<?xml version="1.0" encoding="utf-8" standalone="no"?>
<!DOCTYPE svg PUBLIC "-//W3C//DTD SVG 1.1//EN"
  "http://www.w3.org/Graphics/SVG/1.1/DTD/svg11.dtd">
<!-- Created with matplotlib (https://matplotlib.org/) -->
<svg height="345.6pt" version="1.1" viewBox="0 0 460.8 345.6" width="460.8pt" xmlns="http://www.w3.org/2000/svg" xmlns:xlink="http://www.w3.org/1999/xlink">
 <defs>
  <style type="text/css">
*{stroke-linecap:butt;stroke-linejoin:round;}
  </style>
 </defs>
 <g id="figure_1">
  <g id="patch_1">
   <path d="M 0 345.6 
L 460.8 345.6 
L 460.8 0 
L 0 0 
z
" style="fill:#ffffff;"/>
  </g>
  <g id="axes_1">
   <g id="patch_2">
    <path d="M 57.6 307.584 
L 414.72 307.584 
L 414.72 41.472 
L 57.6 41.472 
z
" style="fill:#ffffff;"/>
   </g>
   <g id="line2d_1">
    <path clip-path="url(#pfb91ca1355)" d="M 398.200715 268.158282 
L 398.004629 267.84903 
L 397.908095 267.227128 
L 397.712009 267.539778 
L 397.81156 269.402087 
L 398.004629 269.711339 
L 397.908095 267.227128 
L 397.908095 267.539778 
L 397.81156 268.158282 
L 397.615474 268.470932 
L 397.615474 268.780184 
L 398.104181 267.84903 
L 398.004629 266.917876 
L 397.908095 266.608624 
L 397.81156 266.917876 
L 397.712009 267.84903 
L 397.712009 267.84903 
L 397.908095 267.84903 
L 398.104181 267.227128 
L 398.104181 269.092835 
L 398.200715 267.84903 
L 398.29725 268.158282 
L 398.396801 267.84903 
L 398.396801 268.158282 
L 398.200715 269.092835 
L 397.908095 269.402087 
L 397.712009 269.092835 
L 397.615474 269.402087 
L 397.615474 270.023989 
L 397.712009 270.023989 
L 397.908095 269.402087 
L 397.908095 269.402087 
L 397.81156 269.092835 
L 397.81156 269.092835 
L 397.908095 267.539778 
L 398.104181 267.539778 
L 398.104181 269.092835 
L 397.712009 269.092835 
L 397.712009 268.780184 
L 397.908095 268.470932 
L 398.004629 267.227128 
L 397.908095 267.227128 
L 397.908095 267.227128 
L 398.004629 266.917876 
L 397.712009 268.158282 
L 397.81156 267.84903 
L 397.615474 267.539778 
L 397.226318 267.539778 
L 397.518939 267.539778 
L 397.615474 267.227128 
L 397.322853 268.470932 
L 397.322853 270.333241 
L 397.419388 269.402087 
L 397.712009 269.092835 
L 397.712009 269.092835 
L 397.419388 270.023989 
L 397.419388 269.711339 
L 397.322853 269.402087 
L 397.518939 269.402087 
L 397.712009 267.84903 
L 397.615474 268.470932 
L 396.933698 269.092835 
L 396.933698 268.780184 
L 397.322853 267.84903 
L 397.712009 265.986721 
L 397.615474 266.295973 
L 397.518939 266.295973 
L 397.615474 266.295973 
L 397.615474 266.917876 
L 397.322853 268.780184 
L 397.518939 268.158282 
L 397.712009 268.158282 
L 397.712009 267.227128 
L 397.518939 266.917876 
L 397.030232 267.539778 
L 397.030232 268.158282 
L 397.126767 267.84903 
L 397.226318 267.539778 
L 397.518939 267.227128 
L 397.712009 267.227128 
L 397.908095 268.158282 
L 397.81156 268.470932 
L 397.126767 267.227128 
L 396.933698 267.227128 
L 396.933698 268.158282 
L 397.226318 268.158282 
L 397.615474 267.227128 
L 397.81156 266.917876 
L 397.81156 266.608624 
L 397.712009 266.608624 
L 397.419388 267.227128 
L 397.615474 268.158282 
L 397.712009 267.84903 
L 397.518939 267.84903 
L 397.322853 267.539778 
L 397.615474 266.608624 
L 397.518939 266.608624 
L 397.226318 266.917876 
L 397.419388 265.986721 
L 397.322853 265.674071 
L 397.322853 265.986721 
L 397.419388 266.917876 
L 397.518939 267.227128 
L 397.518939 266.917876 
L 397.712009 266.608624 
L 397.81156 265.986721 
L 397.419388 264.742917 
L 398.004629 264.742917 
L 398.104181 265.364819 
L 397.518939 266.917876 
L 397.322853 267.227128 
L 397.615474 266.608624 
L 397.712009 265.674071 
L 397.518939 266.608624 
L 397.419388 266.608624 
L 397.419388 266.608624 
L 397.81156 265.674071 
L 398.104181 265.055567 
L 398.200715 264.433665 
L 397.908095 264.433665 
L 397.615474 265.674071 
L 397.615474 266.917876 
L 397.615474 265.364819 
L 397.908095 266.608624 
L 397.81156 267.227128 
L 397.81156 266.917876 
L 397.615474 266.917876 
L 397.226318 267.539778 
L 397.030232 267.227128 
L 397.126767 267.539778 
L 397.226318 268.780184 
L 397.419388 269.092835 
L 397.712009 268.158282 
L 397.712009 267.539778 
L 397.226318 267.539778 
L 397.126767 267.227128 
L 396.834146 267.539778 
L 395.859749 270.333241 
L 395.078422 271.886297 
L 393.711853 273.748606 
L 392.052663 276.545467 
L 389.904766 279.65158 
L 387.367714 282.754295 
L 384.341956 286.173059 
L 380.830507 289.897676 
L 377.02342 293.003789 
L 372.730644 295.178748 
L 367.65654 295.488 
L 361.994177 294.866098 
L 356.238297 293.313041 
L 350.772021 291.450733 
L 345.697917 288.65727 
L 340.819899 284.620002 
L 336.13495 279.960832 
L 331.353467 276.232817 
L 325.88719 272.817452 
L 319.835673 270.955143 
L 313.395 270.955143 
L 306.565171 272.195549 
L 299.928412 274.370508 
L 293.584273 275.923565 
L 287.828393 275.301663 
L 282.654738 273.439354 
L 277.972806 270.645891 
L 269.091615 266.917876 
L 264.503201 265.674071 
L 254.940235 264.433665 
L 250.062217 264.121014 
L 240.98494 264.121014 
L 236.592612 263.811762 
L 232.39637 262.880608 
L 221.3703 261.949454 
L 218.148455 261.949454 
L 215.222247 261.327552 
L 212.585644 261.0183 
L 210.440764 261.0183 
L 206.341057 261.636804 
L 204.781419 261.636804 
L 204.389246 261.949454 
L 204.389246 262.258706 
L 204.292712 261.949454 
L 204.19316 261.636804 
L 204.292712 261.949454 
L 204.585332 260.705649 
L 204.485781 260.705649 
L 204.19316 261.327552 
L 204.19316 261.0183 
L 203.607919 261.636804 
L 203.607919 261.636804 
L 203.804005 259.774495 
L 203.70747 260.087145 
L 203.607919 260.396397 
L 203.607919 260.087145 
L 203.511384 260.087145 
L 203.41485 260.396397 
L 203.41485 260.396397 
L 203.70747 258.534089 
L 203.90054 257.599536 
L 203.607919 256.668382 
L 204.000091 258.221438 
L 203.90054 258.221438 
L 203.70747 257.912186 
L 203.607919 256.981032 
L 203.804005 256.35913 
L 203.804005 255.737228 
L 203.70747 256.049878 
L 203.607919 256.049878 
L 203.41485 255.427976 
L 203.41485 255.427976 
L 204.000091 255.427976 
L 204.000091 255.427976 
L 203.70747 255.737228 
L 203.607919 256.049878 
L 203.70747 256.35913 
L 203.70747 256.35913 
L 203.804005 255.737228 
L 203.41485 256.981032 
L 203.218763 256.049878 
L 203.315298 256.049878 
L 203.218763 254.496821 
L 203.315298 255.115325 
L 203.607919 255.115325 
L 203.804005 255.427976 
L 203.70747 255.427976 
L 203.804005 254.806073 
L 204.096626 254.496821 
L 204.096626 254.806073 
L 203.607919 256.049878 
L 203.41485 255.427976 
L 203.511384 254.184171 
L 203.70747 253.874919 
L 203.804005 254.496821 
L 203.70747 255.427976 
L 203.511384 255.115325 
L 203.607919 254.184171 
L 203.804005 253.874919 
L 203.70747 254.184171 
L 203.607919 254.496821 
L 203.41485 253.562269 
L 203.607919 253.874919 
L 203.804005 253.562269 
L 204.000091 253.562269 
L 203.90054 254.496821 
L 204.000091 252.321862 
L 204.096626 253.253017 
L 204.19316 252.321862 
L 204.000091 252.01261 
L 203.804005 252.321862 
L 203.70747 252.943765 
L 203.70747 252.943765 
L 203.90054 252.943765 
L 204.19316 252.321862 
L 204.000091 252.943765 
L 203.804005 252.631114 
L 203.607919 251.69996 
L 203.804005 250.768806 
L 204.000091 250.768806 
L 204.000091 251.390708 
L 203.70747 252.321862 
L 203.70747 252.01261 
L 204.000091 249.837651 
L 204.19316 249.837651 
L 204.19316 249.837651 
L 204.19316 247.662693 
L 204.000091 246.422286 
L 202.829608 243.625425 
L 201.948729 240.519312 
L 201.070867 236.794695 
L 200.09647 233.997834 
L 198.729901 231.513623 
L 196.874625 229.029412 
L 194.82628 225.923299 
L 192.678383 222.198681 
L 190.337417 217.539512 
L 187.700814 212.57109 
L 185.163762 208.533822 
L 182.726261 205.427709 
L 177.748692 197.975077 
L 172.575036 189.900542 
L 164.378639 178.410641 
L 161.742035 174.373374 
L 159.108448 170.026855 
L 154.716121 161.021165 
L 150.912051 151.393574 
L 149.349396 147.043656 
L 146.908878 138.969121 
L 145.738395 134.622602 
L 144.860533 130.585334 
L 143.883119 123.441953 
L 143.297878 115.367418 
L 143.005257 111.020899 
L 143.005257 107.292883 
L 143.201343 104.190169 
L 143.493964 97.35604 
L 143.883119 93.940675 
L 145.249689 87.728448 
L 145.542309 85.244238 
L 145.83493 84.622335 
L 146.227102 84.313083 
L 146.323637 83.691181 
L 146.423188 82.138124 
L 146.908878 81.51962 
L 146.908878 81.20697 
L 147.00843 81.20697 
L 147.104964 80.897718 
L 147.201499 77.791605 
L 147.397585 77.791605 
L 147.690206 77.482353 
L 147.886292 76.551199 
L 147.982827 74.37624 
L 148.178913 73.754337 
L 148.374999 73.754337 
L 148.471533 70.960875 
L 148.568068 70.02972 
L 148.860689 70.02972 
L 148.860689 70.338972 
L 148.764154 70.02972 
L 148.568068 69.71707 
L 148.66762 69.095168 
L 149.15331 67.232859 
L 148.764154 65.679802 
L 148.96024 65.992453 
L 149.15331 66.301705 
L 149.44593 66.301705 
L 149.838102 65.37055 
L 149.934637 64.748648 
L 149.838102 64.126746 
L 149.642016 63.817494 
L 149.642016 63.504844 
L 149.934637 63.504844 
L 150.130723 62.88634 
L 150.227258 63.504844 
L 150.130723 62.88634 
L 150.227258 62.264437 
L 150.519879 61.955185 
L 150.812499 61.955185 
L 150.715965 61.955185 
L 150.61943 61.642535 
L 150.715965 60.089478 
L 150.912051 59.470974 
L 150.912051 59.780226 
L 150.812499 61.333283 
L 150.912051 60.402129 
L 151.10512 58.536422 
L 151.10512 58.536422 
L 151.204672 59.780226 
L 151.204672 60.089478 
L 151.301206 58.22717 
L 151.497292 57.605267 
L 151.690362 57.605267 
L 151.789913 57.917918 
L 151.690362 57.605267 
L 151.982982 55.742959 
L 151.982982 56.052211 
L 151.593827 56.674113 
L 151.497292 57.296016 
L 151.593827 57.296016 
L 151.789913 56.674113 
L 151.982982 56.674113 
L 151.982982 56.674113 
L 151.789913 56.983365 
L 151.789913 55.433707 
L 151.789913 55.433707 
L 152.179068 55.742959 
L 152.571241 55.742959 
L 152.667775 56.052211 
L 152.571241 56.052211 
L 152.27862 55.742959 
L 151.886448 55.742959 
L 151.886448 55.742959 
L 151.982982 55.433707 
L 152.179068 55.742959 
L 152.082534 55.742959 
L 152.082534 56.052211 
L 151.982982 54.499154 
L 152.375155 53.568 
L 152.667775 53.88065 
L 152.571241 55.121057 
L 152.27862 56.052211 
L 152.375155 55.742959 
L 152.27862 55.433707 
L 152.27862 55.433707 
L 152.471689 55.121057 
L 152.471689 54.499154 
L 152.375155 55.742959 
L 152.082534 55.433707 
L 152.179068 54.499154 
L 152.471689 54.811805 
L 152.667775 55.742959 
L 152.571241 55.121057 
L 152.76431 55.121057 
L 152.76431 55.121057 
L 152.571241 55.433707 
L 152.471689 56.364861 
L 152.76431 55.742959 
L 152.76431 56.052211 
L 152.76431 57.296016 
L 152.863861 57.296016 
L 153.156482 56.983365 
L 153.156482 56.674113 
L 153.056931 56.674113 
L 152.863861 56.674113 
L 152.960396 57.917918 
L 153.056931 58.536422 
L 153.056931 57.917918 
L 152.960396 55.742959 
L 152.571241 55.742959 
L 151.982982 56.052211 
L 149.838102 55.121057 
L 148.96024 55.121057 
L 147.49412 55.742959 
L 144.079206 57.605267 
L 142.420016 58.849072 
L 140.567757 60.089478 
L 136.078894 64.126746 
L 133.831446 66.923607 
L 131.783101 70.02972 
L 129.538669 72.823183 
L 127.197703 75.307394 
L 122.60929 80.897718 
L 117.827806 87.419196 
L 115.67991 89.594155 
L 113.242409 91.456464 
L 110.801892 94.249927 
L 108.55746 97.046788 
L 106.509115 99.840251 
L 104.557304 102.946364 
L 102.409408 106.983632 
L 98.409252 114.127012 
L 95.090872 120.026588 
L 90.405924 126.857319 
L 87.672786 131.829139 
L 86.209682 134.000699 
L 84.843113 136.48491 
L 83.868716 139.903674 
L 83.183923 143.006388 
L 82.402596 145.490599 
L 79.280302 153.565134 
L 78.013284 159.468109 
L 77.621112 162.570824 
L 75.376681 174.064122 
L 75.08406 175.926431 
L 75.180595 180.894852 
L 75.476232 186.175924 
L 75.376681 191.144346 
L 75.180595 193.315907 
L 75.280146 196.112768 
L 75.376681 197.665825 
L 75.376681 206.049612 
L 75.180595 207.91192 
L 74.595353 209.155725 
L 74.498819 210.708781 
L 74.595353 215.055301 
L 74.302733 216.917609 
L 74.498819 220.645625 
L 74.498819 223.751738 
L 74.302733 224.992144 
L 74.498819 225.304795 
L 74.595353 225.923299 
L 74.402284 227.789006 
L 74.498819 228.098257 
L 74.791439 228.410908 
L 74.595353 229.342062 
L 74.595353 230.582468 
L 74.595353 230.273216 
L 74.791439 231.204371 
L 74.791439 231.826273 
L 74.791439 231.826273 
L 74.987526 231.826273 
L 75.180595 232.444777 
L 75.08406 236.482044 
L 74.887974 237.103947 
L 75.280146 236.172792 
L 75.376681 236.482044 
L 75.280146 236.482044 
L 75.08406 236.794695 
L 74.791439 238.347751 
L 74.694905 239.588158 
L 74.694905 239.588158 
L 74.887974 239.278906 
L 74.987526 240.831962 
L 75.08406 241.141214 
L 75.180595 240.519312 
L 75.180595 240.519312 
L 74.887974 240.519312 
L 74.791439 240.831962 
L 74.987526 241.453865 
L 75.572767 239.900808 
L 75.572767 240.831962 
L 75.572767 240.831962 
L 75.865388 241.763117 
L 75.669302 241.763117 
L 75.572767 241.763117 
L 75.572767 240.21006 
L 75.476232 240.831962 
L 75.376681 241.763117 
L 75.961922 241.763117 
L 76.158009 241.453865 
L 75.961922 241.141214 
L 76.061474 243.003523 
L 76.158009 243.003523 
L 76.158009 243.003523 
L 76.158009 243.316173 
L 76.254543 243.003523 
L 76.354095 243.003523 
L 76.158009 243.316173 
L 76.646715 242.694271 
L 76.547164 242.385019 
L 76.158009 242.385019 
L 76.354095 242.694271 
L 76.547164 242.385019 
L 76.547164 241.763117 
L 76.939336 241.763117 
L 76.939336 241.763117 
L 76.646715 242.385019 
L 76.646715 241.453865 
L 76.939336 242.072368 
L 77.035871 242.385019 
L 77.035871 243.625425 
L 77.231957 243.625425 
L 77.524578 243.003523 
L 77.524578 242.385019 
L 77.328491 242.072368 
L 77.231957 242.385019 
L 77.231957 242.385019 
L 77.231957 243.938075 
L 77.132405 243.625425 
L 77.035871 243.316173 
L 77.328491 243.316173 
L 77.428043 243.003523 
L 77.428043 242.385019 
L 77.328491 243.316173 
L 77.231957 244.247327 
L 77.231957 243.938075 
L 77.231957 243.003523 
L 77.428043 242.694271 
L 77.720664 243.316173 
L 77.621112 244.556579 
L 77.428043 245.491132 
L 77.621112 245.800384 
L 77.913733 245.800384 
L 78.013284 244.86923 
L 78.305905 243.938075 
L 78.598526 243.625425 
L 78.598526 244.247327 
L 78.305905 244.86923 
L 77.913733 244.86923 
L 78.109819 244.86923 
L 78.109819 244.556579 
L 78.109819 244.556579 
L 78.305905 244.556579 
L 78.305905 244.556579 
L 78.109819 245.491132 
L 78.206354 245.491132 
L 78.013284 244.556579 
L 78.206354 244.86923 
L 78.498974 245.491132 
L 78.305905 244.86923 
L 78.206354 246.109636 
L 78.891147 243.938075 
L 78.109819 246.731538 
L 78.598526 244.556579 
L 78.40244 244.247327 
L 78.498974 243.003523 
L 78.498974 243.316173 
L 78.598526 243.625425 
L 78.695061 243.316173 
L 78.695061 243.316173 
L 78.791595 243.625425 
L 79.183767 243.938075 
L 78.987681 242.072368 
L 79.084216 243.625425 
L 78.891147 243.625425 
L 78.791595 243.938075 
L 78.987681 243.003523 
L 78.891147 241.763117 
L 78.987681 240.831962 
L 79.280302 240.519312 
L 81.036027 236.794695 
L 82.209526 234.619736 
L 84.939648 230.273216 
L 88.258027 224.37364 
L 90.405924 221.267527 
L 97.335304 209.777627 
L 100.164977 206.358864 
L 103.091184 202.321596 
L 105.923874 197.975077 
L 114.802047 185.863274 
L 117.827806 182.138657 
L 120.9501 178.719893 
L 124.268479 175.304528 
L 127.683394 171.579911 
L 130.808704 167.851896 
L 133.930997 164.745782 
L 137.149826 162.570824 
L 140.664291 160.399263 
L 144.178757 157.602402 
L 151.204672 151.393574 
L 154.815672 148.596713 
L 158.230586 145.80325 
L 161.548966 143.319039 
L 170.134519 135.244504 
L 172.771122 133.691447 
L 175.404709 132.447643 
L 177.748692 131.516488 
L 179.700502 130.585334 
L 181.652313 129.032277 
L 183.408037 127.169969 
L 184.871141 125.926164 
L 186.922503 125.30766 
L 188.678227 125.30766 
L 189.166934 124.99501 
L 189.360004 124.373108 
L 189.652624 124.685758 
L 189.945245 125.30766 
L 190.237866 125.30766 
L 190.337417 124.99501 
L 190.337417 124.373108 
L 190.044796 124.373108 
L 189.55609 125.616912 
L 189.652624 125.926164 
L 189.945245 125.926164 
L 190.237866 125.616912 
L 190.433952 125.926164 
L 190.433952 125.616912 
L 190.630038 124.99501 
L 190.922659 124.685758 
L 191.019193 124.063856 
L 190.922659 123.754604 
L 190.826124 124.373108 
L 190.826124 125.30766 
L 191.019193 125.616912 
L 191.215279 125.616912 
L 191.215279 125.30766 
L 191.215279 125.616912 
L 191.411365 126.238815 
L 191.411365 125.926164 
L 191.311814 125.30766 
L 191.019193 124.685758 
L 190.726573 124.99501 
L 190.922659 125.30766 
L 191.411365 125.30766 
L 191.5079 124.373108 
L 191.311814 123.754604 
L 191.311814 124.063856 
L 191.5079 123.754604 
L 191.311814 121.888897 
L 191.5079 121.888897 
L 191.800521 123.754604 
L 191.897056 123.754604 
L 191.996607 123.441953 
L 191.897056 123.754604 
L 191.703986 124.685758 
L 191.996607 123.441953 
L 191.996607 123.754604 
L 191.996607 124.063856 
L 191.897056 124.063856 
L 191.411365 124.685758 
L 191.5079 124.99501 
L 191.703986 124.685758 
L 191.703986 124.063856 
L 192.189676 123.132701 
L 192.289228 122.823449 
L 192.289228 123.132701 
L 192.289228 123.441953 
L 192.385762 121.888897 
L 192.581848 121.270393 
L 192.777935 121.270393 
L 192.971004 122.201547 
L 192.777935 121.888897 
L 192.581848 121.888897 
L 192.777935 121.270393 
L 192.482297 121.888897 
L 192.581848 120.33584 
L 192.874469 120.026588 
L 192.971004 119.404686 
L 192.678383 119.404686 
L 192.678383 119.717336 
L 192.971004 120.33584 
L 192.971004 120.33584 
L 193.070555 119.404686 
L 193.16709 119.717336 
L 193.070555 120.648491 
L 192.874469 119.717336 
L 192.971004 118.473532 
L 192.874469 118.473532 
L 192.874469 119.717336 
L 192.777935 119.717336 
L 192.678383 119.095434 
L 192.777935 117.542377 
L 192.971004 117.542377 
L 193.263625 118.16428 
L 192.874469 117.542377 
L 192.678383 118.473532 
L 192.678383 118.473532 
L 192.777935 118.473532 
L 192.874469 118.16428 
L 192.874469 118.16428 
L 193.16709 117.851629 
L 193.263625 117.542377 
L 193.16709 117.233125 
L 193.363176 116.920475 
L 193.363176 117.233125 
L 193.070555 117.542377 
L 192.874469 117.233125 
L 192.777935 115.680069 
L 192.874469 115.058166 
L 193.16709 116.298573 
L 193.363176 115.989321 
L 193.263625 115.989321 
L 192.971004 115.989321 
L 192.874469 115.367418 
L 192.971004 115.367418 
L 193.16709 115.680069 
L 193.363176 115.367418 
L 193.848866 113.50511 
L 195.314987 111.020899 
L 196.192849 109.777094 
L 196.974176 109.15859 
L 197.948573 108.227436 
L 198.925987 107.605534 
L 199.996919 106.67438 
L 201.070867 106.67438 
L 202.144815 107.292883 
L 203.218763 108.536688 
L 205.659281 111.952053 
L 207.02585 114.436264 
L 209.659437 119.717336 
L 211.026006 121.270393 
L 212.489109 123.132701 
L 213.952213 125.926164 
L 215.026161 129.344928 
L 216.10011 132.138391 
L 217.466679 134.31335 
L 219.029334 136.48491 
L 220.685507 139.591023 
L 222.248162 143.628291 
L 223.810817 147.97481 
L 228.492749 159.155458 
L 230.055404 163.505376 
L 231.618059 168.473798 
L 235.032974 177.788739 
L 237.766112 186.794428 
L 238.936595 189.900542 
L 240.303164 192.697403 
L 241.669733 196.42202 
L 243.521992 202.634246 
L 244.692475 206.049612 
L 245.181182 208.22457 
L 245.377268 210.396131 
L 245.669889 220.336373 
L 245.377268 222.820584 
L 245.280733 224.37364 
L 244.499406 226.857851 
L 244.59594 231.513623 
L 244.692475 233.37933 
L 244.888561 234.932386 
L 244.888561 235.86354 
L 244.59594 237.103947 
L 244.692475 238.035101 
L 244.399854 242.072368 
L 244.59594 242.072368 
L 244.59594 241.763117 
L 244.30332 242.385019 
L 244.010699 243.316173 
L 244.206785 244.86923 
L 244.499406 246.109636 
L 244.499406 246.109636 
L 244.499406 247.04079 
L 244.30332 248.284595 
L 244.010699 248.593847 
L 244.499406 247.975343 
L 244.206785 248.906497 
L 244.30332 248.906497 
L 244.399854 248.906497 
L 244.399854 249.215749 
L 244.499406 248.906497 
L 244.692475 248.906497 
L 244.792026 248.593847 
L 244.59594 248.906497 
L 244.399854 249.215749 
L 244.206785 249.837651 
L 244.206785 249.837651 
L 244.399854 249.837651 
L 244.59594 249.5284 
L 244.692475 249.837651 
L 244.59594 250.459554 
L 244.399854 250.146903 
L 244.206785 250.146903 
L 244.206785 250.459554 
L 244.399854 250.459554 
L 244.985096 248.593847 
L 244.985096 247.975343 
L 244.888561 248.593847 
L 244.692475 249.837651 
L 244.888561 249.5284 
L 244.888561 251.69996 
L 244.985096 251.078058 
L 245.084647 251.078058 
L 244.985096 252.01261 
L 244.792026 252.321862 
L 245.084647 251.69996 
L 245.181182 252.321862 
L 244.985096 252.631114 
L 245.084647 252.631114 
L 245.280733 252.943765 
L 245.181182 254.184171 
L 245.084647 254.184171 
L 245.280733 253.253017 
L 245.280733 253.562269 
L 245.280733 254.184171 
L 245.181182 253.253017 
L 244.792026 252.631114 
L 245.669889 253.874919 
L 245.865975 253.562269 
L 245.181182 253.562269 
L 244.888561 252.943765 
L 244.985096 252.321862 
L 245.181182 252.631114 
L 245.377268 253.253017 
L 245.473803 255.115325 
L 245.573354 255.115325 
L 245.669889 254.496821 
L 245.473803 254.184171 
L 245.473803 254.184171 
L 245.377268 254.496821 
L 245.377268 254.496821 
L 245.669889 254.496821 
L 245.865975 255.427976 
L 245.962509 255.115325 
L 245.865975 255.427976 
L 245.669889 256.981032 
L 245.766423 256.049878 
L 245.573354 255.115325 
L 245.669889 256.049878 
L 245.669889 256.668382 
L 245.473803 256.981032 
L 245.573354 257.599536 
L 245.669889 256.981032 
L 245.573354 256.049878 
L 245.377268 256.35913 
L 245.280733 256.049878 
L 245.377268 255.115325 
L 245.669889 254.806073 
L 245.669889 255.115325 
L 245.573354 254.806073 
L 245.181182 256.049878 
L 245.377268 255.737228 
L 245.473803 256.049878 
L 245.669889 256.049878 
L 245.573354 256.35913 
L 245.181182 256.35913 
L 245.280733 256.049878 
L 245.473803 256.35913 
L 245.473803 256.35913 
L 245.573354 255.737228 
L 245.573354 257.290284 
L 245.377268 256.981032 
L 245.181182 256.35913 
L 245.280733 256.981032 
L 245.181182 256.981032 
L 244.888561 255.115325 
L 244.985096 256.35913 
L 244.888561 256.35913 
L 244.692475 255.427976 
L 244.888561 256.668382 
L 244.59594 256.35913 
L 244.30332 255.427976 
L 244.107234 255.737228 
L 244.010699 256.981032 
L 244.010699 256.35913 
L 244.010699 254.496821 
L 243.914164 254.496821 
L 243.621543 254.806073 
L 243.425457 255.427976 
L 243.521992 255.737228 
L 243.718078 255.737228 
L 243.814613 254.806073 
L 243.718078 253.874919 
L 243.425457 252.943765 
L 243.328923 252.01261 
L 243.814613 250.768806 
L 244.010699 250.768806 
L 244.010699 250.146903 
L 243.814613 250.146903 
L 243.814613 250.146903 
L 243.814613 248.906497 
L 243.621543 247.975343 
L 243.521992 246.731538 
L 243.814613 244.86923 
L 243.521992 244.247327 
L 243.033285 242.694271 
L 243.229371 243.003523 
L 243.132837 240.21006 
L 243.132837 240.21006 
L 242.936751 240.831962 
L 243.033285 238.035101 
L 243.132837 237.416597 
L 243.033285 236.482044 
L 242.448044 236.482044 
L 242.740664 236.482044 
L 242.740664 235.86354 
L 242.64413 235.86354 
L 242.448044 235.55089 
L 242.448044 234.932386 
L 242.64413 234.619736 
L 242.840216 234.932386 
L 242.64413 235.241638 
L 242.448044 234.619736 
L 242.351509 233.37933 
L 242.64413 230.895119 
L 242.840216 229.960566 
L 242.740664 229.342062 
L 242.840216 226.857851 
L 242.936751 225.923299 
L 242.840216 224.992144 
L 243.229371 221.267527 
L 243.328923 218.161414 
L 243.621543 216.917609 
L 243.621543 216.917609 
L 243.521992 216.299105 
L 243.621543 215.055301 
L 244.107234 212.261838 
L 244.30332 211.949188 
L 244.399854 209.777627 
L 244.692475 209.155725 
L 244.692475 208.22457 
L 244.399854 206.358864 
L 244.399854 206.049612 
L 244.499406 206.671514 
L 244.692475 206.671514 
L 244.59594 206.049612 
L 244.499406 205.74036 
L 244.59594 205.118457 
L 244.888561 204.805807 
L 245.084647 204.805807 
L 244.985096 203.874653 
L 244.692475 203.874653 
L 244.59594 204.496555 
L 244.692475 204.805807 
L 244.59594 204.805807 
L 244.399854 204.496555 
L 244.399854 204.187303 
L 244.30332 204.805807 
L 244.399854 204.805807 
L 244.792026 203.565401 
L 244.792026 204.187303 
L 244.59594 204.496555 
L 244.206785 203.565401 
L 244.206785 203.256149 
L 244.399854 203.565401 
L 244.499406 204.187303 
L 244.206785 205.427709 
L 244.107234 205.427709 
L 244.107234 205.427709 
L 243.718078 203.874653 
L 243.814613 203.874653 
L 243.914164 204.805807 
L 244.206785 204.187303 
L 244.107234 204.187303 
L 243.814613 203.565401 
L 243.914164 204.805807 
L 243.814613 203.565401 
L 244.010699 203.256149 
L 244.30332 203.256149 
L 244.206785 203.256149 
L 244.010699 203.565401 
L 243.914164 204.187303 
L 243.425457 203.565401 
L 243.718078 203.565401 
L 243.814613 202.943498 
L 243.521992 202.634246 
L 243.229371 202.634246 
L 243.521992 202.012344 
L 243.718078 202.012344 
L 243.521992 202.634246 
L 243.132837 201.390442 
L 242.936751 201.703092 
L 242.840216 202.634246 
L 243.132837 202.634246 
L 243.229371 202.012344 
L 243.033285 201.703092 
L 243.132837 201.390442 
L 243.425457 202.012344 
L 243.328923 202.012344 
L 243.132837 201.703092 
L 243.033285 201.08119 
L 243.229371 200.768539 
L 243.521992 200.768539 
L 243.718078 200.459287 
L 243.814613 199.837385 
L 243.621543 199.218881 
L 243.328923 199.218881 
L 243.033285 200.150035 
L 243.033285 199.837385 
L 243.132837 198.906231 
L 243.132837 199.528133 
L 242.448044 197.665825 
L 242.351509 197.975077 
L 242.448044 197.975077 
L 242.547595 197.975077 
L 242.64413 197.353174 
L 242.740664 197.043922 
L 242.547595 196.73467 
L 242.254974 195.800118 
L 242.058888 197.353174 
L 241.862802 197.043922 
L 241.669733 196.112768 
L 241.669733 195.490866 
L 241.962354 194.559711 
L 242.254974 195.490866 
L 242.155423 196.112768 
L 241.570182 196.112768 
L 241.570182 196.73467 
L 241.473647 195.490866 
L 241.277561 195.181614 
L 241.081475 196.112768 
L 241.081475 196.42202 
L 241.181026 196.112768 
L 241.473647 196.73467 
L 241.570182 197.353174 
L 241.377112 197.353174 
L 241.081475 197.043922 
L 241.081475 197.043922 
L 241.277561 197.043922 
L 241.473647 196.73467 
L 240.98494 197.353174 
L 240.595785 197.353174 
L 240.399699 197.975077 
L 240.692319 198.284329 
L 240.98494 198.284329 
L 240.788854 197.975077 
L 240.496233 197.975077 
L 240.303164 198.596979 
L 240.303164 198.284329 
L 240.496233 196.73467 
L 240.788854 197.043922 
L 240.692319 197.043922 
L 240.595785 198.284329 
L 240.692319 198.284329 
L 240.595785 197.665825 
L 240.303164 198.284329 
L 240.107078 198.284329 
L 240.107078 197.975077 
L 240.399699 197.975077 
L 240.496233 198.596979 
L 240.692319 198.906231 
L 240.692319 198.906231 
L 240.692319 199.218881 
L 240.496233 199.218881 
L 240.203612 198.906231 
L 239.814457 197.975077 
L 239.814457 198.906231 
L 240.010543 199.528133 
L 239.910992 197.665825 
L 239.717922 197.975077 
L 239.618371 197.975077 
L 239.717922 197.043922 
L 239.717922 197.043922 
L 239.425302 197.043922 
L 239.32575 196.73467 
L 239.425302 197.043922 
L 239.32575 197.665825 
L 239.229216 197.353174 
L 239.32575 196.42202 
L 239.521836 196.112768 
L 239.229216 196.73467 
L 239.32575 196.42202 
L 239.229216 195.800118 
L 239.229216 196.112768 
L 239.32575 197.043922 
L 239.32575 196.42202 
L 239.425302 195.800118 
L 239.425302 195.800118 
L 239.425302 196.73467 
L 239.618371 197.665825 
L 239.814457 197.665825 
L 239.425302 197.665825 
L 239.32575 197.043922 
L 239.229216 195.490866 
L 239.132681 195.490866 
L 239.132681 195.800118 
L 239.229216 195.490866 
L 239.521836 195.181614 
L 239.618371 195.800118 
L 239.521836 196.42202 
L 239.618371 196.73467 
L 239.618371 196.42202 
L 239.425302 195.490866 
L 239.132681 194.868963 
L 239.132681 194.868963 
L 239.814457 193.006655 
L 239.910992 194.868963 
L 239.814457 194.868963 
L 239.521836 193.628557 
L 239.618371 193.937809 
L 239.910992 194.247061 
L 239.910992 193.937809 
L 240.203612 193.315907 
L 240.010543 193.937809 
L 240.107078 193.937809 
L 240.203612 194.247061 
L 239.717922 195.490866 
L 239.910992 195.490866 
L 240.203612 195.490866 
L 240.303164 195.181614 
L 240.399699 193.006655 
L 240.399699 193.006655 
L 240.692319 193.006655 
L 240.98494 192.384752 
L 241.081475 191.76285 
L 240.888405 191.76285 
L 240.692319 192.384752 
L 240.788854 193.315907 
L 240.788854 190.831696 
L 240.888405 190.831696 
L 240.98494 192.697403 
L 241.181026 193.315907 
L 241.377112 191.76285 
L 241.277561 192.075501 
L 241.181026 192.075501 
L 241.181026 192.075501 
L 241.277561 192.697403 
L 241.570182 193.006655 
L 241.669733 192.697403 
L 241.669733 192.697403 
" style="fill:none;stroke:#1f77b4;stroke-linecap:square;stroke-width:1.5;"/>
   </g>
   <g id="matplotlib.axis_1">
    <g id="xtick_1">
     <g id="line2d_2">
      <defs>
       <path d="M 0 0 
L 0 3.5 
" id="m2bcf4d3832" style="stroke:#000000;stroke-width:0.8;"/>
      </defs>
      <g>
       <use style="stroke:#000000;stroke-width:0.8;" x="58.293059" xlink:href="#m2bcf4d3832" y="307.584"/>
      </g>
     </g>
     <g id="text_1">
      <!-- −400 -->
      <defs>
       <path d="M 10.59375 35.5 
L 73.1875 35.5 
L 73.1875 27.203125 
L 10.59375 27.203125 
z
" id="DejaVuSans-8722"/>
       <path d="M 37.796875 64.3125 
L 12.890625 25.390625 
L 37.796875 25.390625 
z
M 35.203125 72.90625 
L 47.609375 72.90625 
L 47.609375 25.390625 
L 58.015625 25.390625 
L 58.015625 17.1875 
L 47.609375 17.1875 
L 47.609375 0 
L 37.796875 0 
L 37.796875 17.1875 
L 4.890625 17.1875 
L 4.890625 26.703125 
z
" id="DejaVuSans-52"/>
       <path d="M 31.78125 66.40625 
Q 24.171875 66.40625 20.328125 58.90625 
Q 16.5 51.421875 16.5 36.375 
Q 16.5 21.390625 20.328125 13.890625 
Q 24.171875 6.390625 31.78125 6.390625 
Q 39.453125 6.390625 43.28125 13.890625 
Q 47.125 21.390625 47.125 36.375 
Q 47.125 51.421875 43.28125 58.90625 
Q 39.453125 66.40625 31.78125 66.40625 
z
M 31.78125 74.21875 
Q 44.046875 74.21875 50.515625 64.515625 
Q 56.984375 54.828125 56.984375 36.375 
Q 56.984375 17.96875 50.515625 8.265625 
Q 44.046875 -1.421875 31.78125 -1.421875 
Q 19.53125 -1.421875 13.0625 8.265625 
Q 6.59375 17.96875 6.59375 36.375 
Q 6.59375 54.828125 13.0625 64.515625 
Q 19.53125 74.21875 31.78125 74.21875 
z
" id="DejaVuSans-48"/>
      </defs>
      <g transform="translate(44.559466 322.182437)scale(0.1 -0.1)">
       <use xlink:href="#DejaVuSans-8722"/>
       <use x="83.789062" xlink:href="#DejaVuSans-52"/>
       <use x="147.412109" xlink:href="#DejaVuSans-48"/>
       <use x="211.035156" xlink:href="#DejaVuSans-48"/>
      </g>
     </g>
    </g>
    <g id="xtick_2">
     <g id="line2d_3">
      <g>
       <use style="stroke:#000000;stroke-width:0.8;" x="118.627234" xlink:href="#m2bcf4d3832" y="307.584"/>
      </g>
     </g>
     <g id="text_2">
      <!-- −200 -->
      <defs>
       <path d="M 19.1875 8.296875 
L 53.609375 8.296875 
L 53.609375 0 
L 7.328125 0 
L 7.328125 8.296875 
Q 12.9375 14.109375 22.625 23.890625 
Q 32.328125 33.6875 34.8125 36.53125 
Q 39.546875 41.84375 41.421875 45.53125 
Q 43.3125 49.21875 43.3125 52.78125 
Q 43.3125 58.59375 39.234375 62.25 
Q 35.15625 65.921875 28.609375 65.921875 
Q 23.96875 65.921875 18.8125 64.3125 
Q 13.671875 62.703125 7.8125 59.421875 
L 7.8125 69.390625 
Q 13.765625 71.78125 18.9375 73 
Q 24.125 74.21875 28.421875 74.21875 
Q 39.75 74.21875 46.484375 68.546875 
Q 53.21875 62.890625 53.21875 53.421875 
Q 53.21875 48.921875 51.53125 44.890625 
Q 49.859375 40.875 45.40625 35.40625 
Q 44.1875 33.984375 37.640625 27.21875 
Q 31.109375 20.453125 19.1875 8.296875 
z
" id="DejaVuSans-50"/>
      </defs>
      <g transform="translate(104.89364 322.182437)scale(0.1 -0.1)">
       <use xlink:href="#DejaVuSans-8722"/>
       <use x="83.789062" xlink:href="#DejaVuSans-50"/>
       <use x="147.412109" xlink:href="#DejaVuSans-48"/>
       <use x="211.035156" xlink:href="#DejaVuSans-48"/>
      </g>
     </g>
    </g>
    <g id="xtick_3">
     <g id="line2d_4">
      <g>
       <use style="stroke:#000000;stroke-width:0.8;" x="178.961409" xlink:href="#m2bcf4d3832" y="307.584"/>
      </g>
     </g>
     <g id="text_3">
      <!-- 0 -->
      <g transform="translate(175.780159 322.182437)scale(0.1 -0.1)">
       <use xlink:href="#DejaVuSans-48"/>
      </g>
     </g>
    </g>
    <g id="xtick_4">
     <g id="line2d_5">
      <g>
       <use style="stroke:#000000;stroke-width:0.8;" x="239.295583" xlink:href="#m2bcf4d3832" y="307.584"/>
      </g>
     </g>
     <g id="text_4">
      <!-- 200 -->
      <g transform="translate(229.751833 322.182437)scale(0.1 -0.1)">
       <use xlink:href="#DejaVuSans-50"/>
       <use x="63.623047" xlink:href="#DejaVuSans-48"/>
       <use x="127.246094" xlink:href="#DejaVuSans-48"/>
      </g>
     </g>
    </g>
    <g id="xtick_5">
     <g id="line2d_6">
      <g>
       <use style="stroke:#000000;stroke-width:0.8;" x="299.629758" xlink:href="#m2bcf4d3832" y="307.584"/>
      </g>
     </g>
     <g id="text_5">
      <!-- 400 -->
      <g transform="translate(290.086008 322.182437)scale(0.1 -0.1)">
       <use xlink:href="#DejaVuSans-52"/>
       <use x="63.623047" xlink:href="#DejaVuSans-48"/>
       <use x="127.246094" xlink:href="#DejaVuSans-48"/>
      </g>
     </g>
    </g>
    <g id="xtick_6">
     <g id="line2d_7">
      <g>
       <use style="stroke:#000000;stroke-width:0.8;" x="359.963932" xlink:href="#m2bcf4d3832" y="307.584"/>
      </g>
     </g>
     <g id="text_6">
      <!-- 600 -->
      <defs>
       <path d="M 33.015625 40.375 
Q 26.375 40.375 22.484375 35.828125 
Q 18.609375 31.296875 18.609375 23.390625 
Q 18.609375 15.53125 22.484375 10.953125 
Q 26.375 6.390625 33.015625 6.390625 
Q 39.65625 6.390625 43.53125 10.953125 
Q 47.40625 15.53125 47.40625 23.390625 
Q 47.40625 31.296875 43.53125 35.828125 
Q 39.65625 40.375 33.015625 40.375 
z
M 52.59375 71.296875 
L 52.59375 62.3125 
Q 48.875 64.0625 45.09375 64.984375 
Q 41.3125 65.921875 37.59375 65.921875 
Q 27.828125 65.921875 22.671875 59.328125 
Q 17.53125 52.734375 16.796875 39.40625 
Q 19.671875 43.65625 24.015625 45.921875 
Q 28.375 48.1875 33.59375 48.1875 
Q 44.578125 48.1875 50.953125 41.515625 
Q 57.328125 34.859375 57.328125 23.390625 
Q 57.328125 12.15625 50.6875 5.359375 
Q 44.046875 -1.421875 33.015625 -1.421875 
Q 20.359375 -1.421875 13.671875 8.265625 
Q 6.984375 17.96875 6.984375 36.375 
Q 6.984375 53.65625 15.1875 63.9375 
Q 23.390625 74.21875 37.203125 74.21875 
Q 40.921875 74.21875 44.703125 73.484375 
Q 48.484375 72.75 52.59375 71.296875 
z
" id="DejaVuSans-54"/>
      </defs>
      <g transform="translate(350.420182 322.182437)scale(0.1 -0.1)">
       <use xlink:href="#DejaVuSans-54"/>
       <use x="63.623047" xlink:href="#DejaVuSans-48"/>
       <use x="127.246094" xlink:href="#DejaVuSans-48"/>
      </g>
     </g>
    </g>
   </g>
   <g id="matplotlib.axis_2">
    <g id="ytick_1">
     <g id="line2d_8">
      <defs>
       <path d="M 0 0 
L -3.5 0 
" id="mc184f33ede" style="stroke:#000000;stroke-width:0.8;"/>
      </defs>
      <g>
       <use style="stroke:#000000;stroke-width:0.8;" x="57.6" xlink:href="#mc184f33ede" y="303.644096"/>
      </g>
     </g>
     <g id="text_7">
      <!-- −700 -->
      <defs>
       <path d="M 8.203125 72.90625 
L 55.078125 72.90625 
L 55.078125 68.703125 
L 28.609375 0 
L 18.3125 0 
L 43.21875 64.59375 
L 8.203125 64.59375 
z
" id="DejaVuSans-55"/>
      </defs>
      <g transform="translate(23.132812 307.443315)scale(0.1 -0.1)">
       <use xlink:href="#DejaVuSans-8722"/>
       <use x="83.789062" xlink:href="#DejaVuSans-55"/>
       <use x="147.412109" xlink:href="#DejaVuSans-48"/>
       <use x="211.035156" xlink:href="#DejaVuSans-48"/>
      </g>
     </g>
    </g>
    <g id="ytick_2">
     <g id="line2d_9">
      <g>
       <use style="stroke:#000000;stroke-width:0.8;" x="57.6" xlink:href="#mc184f33ede" y="269.660363"/>
      </g>
     </g>
     <g id="text_8">
      <!-- −600 -->
      <g transform="translate(23.132812 273.459582)scale(0.1 -0.1)">
       <use xlink:href="#DejaVuSans-8722"/>
       <use x="83.789062" xlink:href="#DejaVuSans-54"/>
       <use x="147.412109" xlink:href="#DejaVuSans-48"/>
       <use x="211.035156" xlink:href="#DejaVuSans-48"/>
      </g>
     </g>
    </g>
    <g id="ytick_3">
     <g id="line2d_10">
      <g>
       <use style="stroke:#000000;stroke-width:0.8;" x="57.6" xlink:href="#mc184f33ede" y="235.67663"/>
      </g>
     </g>
     <g id="text_9">
      <!-- −500 -->
      <defs>
       <path d="M 10.796875 72.90625 
L 49.515625 72.90625 
L 49.515625 64.59375 
L 19.828125 64.59375 
L 19.828125 46.734375 
Q 21.96875 47.46875 24.109375 47.828125 
Q 26.265625 48.1875 28.421875 48.1875 
Q 40.625 48.1875 47.75 41.5 
Q 54.890625 34.8125 54.890625 23.390625 
Q 54.890625 11.625 47.5625 5.09375 
Q 40.234375 -1.421875 26.90625 -1.421875 
Q 22.3125 -1.421875 17.546875 -0.640625 
Q 12.796875 0.140625 7.71875 1.703125 
L 7.71875 11.625 
Q 12.109375 9.234375 16.796875 8.0625 
Q 21.484375 6.890625 26.703125 6.890625 
Q 35.15625 6.890625 40.078125 11.328125 
Q 45.015625 15.765625 45.015625 23.390625 
Q 45.015625 31 40.078125 35.4375 
Q 35.15625 39.890625 26.703125 39.890625 
Q 22.75 39.890625 18.8125 39.015625 
Q 14.890625 38.140625 10.796875 36.28125 
z
" id="DejaVuSans-53"/>
      </defs>
      <g transform="translate(23.132812 239.475849)scale(0.1 -0.1)">
       <use xlink:href="#DejaVuSans-8722"/>
       <use x="83.789062" xlink:href="#DejaVuSans-53"/>
       <use x="147.412109" xlink:href="#DejaVuSans-48"/>
       <use x="211.035156" xlink:href="#DejaVuSans-48"/>
      </g>
     </g>
    </g>
    <g id="ytick_4">
     <g id="line2d_11">
      <g>
       <use style="stroke:#000000;stroke-width:0.8;" x="57.6" xlink:href="#mc184f33ede" y="201.692897"/>
      </g>
     </g>
     <g id="text_10">
      <!-- −400 -->
      <g transform="translate(23.132812 205.492116)scale(0.1 -0.1)">
       <use xlink:href="#DejaVuSans-8722"/>
       <use x="83.789062" xlink:href="#DejaVuSans-52"/>
       <use x="147.412109" xlink:href="#DejaVuSans-48"/>
       <use x="211.035156" xlink:href="#DejaVuSans-48"/>
      </g>
     </g>
    </g>
    <g id="ytick_5">
     <g id="line2d_12">
      <g>
       <use style="stroke:#000000;stroke-width:0.8;" x="57.6" xlink:href="#mc184f33ede" y="167.709164"/>
      </g>
     </g>
     <g id="text_11">
      <!-- −300 -->
      <defs>
       <path d="M 40.578125 39.3125 
Q 47.65625 37.796875 51.625 33 
Q 55.609375 28.21875 55.609375 21.1875 
Q 55.609375 10.40625 48.1875 4.484375 
Q 40.765625 -1.421875 27.09375 -1.421875 
Q 22.515625 -1.421875 17.65625 -0.515625 
Q 12.796875 0.390625 7.625 2.203125 
L 7.625 11.71875 
Q 11.71875 9.328125 16.59375 8.109375 
Q 21.484375 6.890625 26.8125 6.890625 
Q 36.078125 6.890625 40.9375 10.546875 
Q 45.796875 14.203125 45.796875 21.1875 
Q 45.796875 27.640625 41.28125 31.265625 
Q 36.765625 34.90625 28.71875 34.90625 
L 20.21875 34.90625 
L 20.21875 43.015625 
L 29.109375 43.015625 
Q 36.375 43.015625 40.234375 45.921875 
Q 44.09375 48.828125 44.09375 54.296875 
Q 44.09375 59.90625 40.109375 62.90625 
Q 36.140625 65.921875 28.71875 65.921875 
Q 24.65625 65.921875 20.015625 65.03125 
Q 15.375 64.15625 9.8125 62.3125 
L 9.8125 71.09375 
Q 15.4375 72.65625 20.34375 73.4375 
Q 25.25 74.21875 29.59375 74.21875 
Q 40.828125 74.21875 47.359375 69.109375 
Q 53.90625 64.015625 53.90625 55.328125 
Q 53.90625 49.265625 50.4375 45.09375 
Q 46.96875 40.921875 40.578125 39.3125 
z
" id="DejaVuSans-51"/>
      </defs>
      <g transform="translate(23.132812 171.508383)scale(0.1 -0.1)">
       <use xlink:href="#DejaVuSans-8722"/>
       <use x="83.789062" xlink:href="#DejaVuSans-51"/>
       <use x="147.412109" xlink:href="#DejaVuSans-48"/>
       <use x="211.035156" xlink:href="#DejaVuSans-48"/>
      </g>
     </g>
    </g>
    <g id="ytick_6">
     <g id="line2d_13">
      <g>
       <use style="stroke:#000000;stroke-width:0.8;" x="57.6" xlink:href="#mc184f33ede" y="133.725431"/>
      </g>
     </g>
     <g id="text_12">
      <!-- −200 -->
      <g transform="translate(23.132812 137.52465)scale(0.1 -0.1)">
       <use xlink:href="#DejaVuSans-8722"/>
       <use x="83.789062" xlink:href="#DejaVuSans-50"/>
       <use x="147.412109" xlink:href="#DejaVuSans-48"/>
       <use x="211.035156" xlink:href="#DejaVuSans-48"/>
      </g>
     </g>
    </g>
    <g id="ytick_7">
     <g id="line2d_14">
      <g>
       <use style="stroke:#000000;stroke-width:0.8;" x="57.6" xlink:href="#mc184f33ede" y="99.741698"/>
      </g>
     </g>
     <g id="text_13">
      <!-- −100 -->
      <defs>
       <path d="M 12.40625 8.296875 
L 28.515625 8.296875 
L 28.515625 63.921875 
L 10.984375 60.40625 
L 10.984375 69.390625 
L 28.421875 72.90625 
L 38.28125 72.90625 
L 38.28125 8.296875 
L 54.390625 8.296875 
L 54.390625 0 
L 12.40625 0 
z
" id="DejaVuSans-49"/>
      </defs>
      <g transform="translate(23.132812 103.540917)scale(0.1 -0.1)">
       <use xlink:href="#DejaVuSans-8722"/>
       <use x="83.789062" xlink:href="#DejaVuSans-49"/>
       <use x="147.412109" xlink:href="#DejaVuSans-48"/>
       <use x="211.035156" xlink:href="#DejaVuSans-48"/>
      </g>
     </g>
    </g>
    <g id="ytick_8">
     <g id="line2d_15">
      <g>
       <use style="stroke:#000000;stroke-width:0.8;" x="57.6" xlink:href="#mc184f33ede" y="65.757965"/>
      </g>
     </g>
     <g id="text_14">
      <!-- 0 -->
      <g transform="translate(44.2375 69.557184)scale(0.1 -0.1)">
       <use xlink:href="#DejaVuSans-48"/>
      </g>
     </g>
    </g>
   </g>
   <g id="line2d_16">
    <path clip-path="url(#pfb91ca1355)" d="M 397.175008 268.189806 
L 204.924817 256.415663 
L 149.583164 66.650157 
L 75.144992 231.954321 
L 78.577409 242.246113 
L 191.097838 122.139753 
L 244.776459 243.939743 
L 244.272804 245.812129 
L 241.715917 198.396683 
" style="fill:none;stroke:#ff0000;stroke-linecap:square;stroke-width:0.5;"/>
   </g>
   <g id="patch_3">
    <path d="M 57.6 307.584 
L 57.6 41.472 
" style="fill:none;stroke:#000000;stroke-linecap:square;stroke-linejoin:miter;stroke-width:0.8;"/>
   </g>
   <g id="patch_4">
    <path d="M 414.72 307.584 
L 414.72 41.472 
" style="fill:none;stroke:#000000;stroke-linecap:square;stroke-linejoin:miter;stroke-width:0.8;"/>
   </g>
   <g id="patch_5">
    <path d="M 57.6 307.584 
L 414.72 307.584 
" style="fill:none;stroke:#000000;stroke-linecap:square;stroke-linejoin:miter;stroke-width:0.8;"/>
   </g>
   <g id="patch_6">
    <path d="M 57.6 41.472 
L 414.72 41.472 
" style="fill:none;stroke:#000000;stroke-linecap:square;stroke-linejoin:miter;stroke-width:0.8;"/>
   </g>
   <g id="PathCollection_1">
    <defs>
     <path d="M 0 2.738613 
C 0.726289 2.738613 1.422928 2.450055 1.936492 1.936492 
C 2.450055 1.422928 2.738613 0.726289 2.738613 0 
C 2.738613 -0.726289 2.450055 -1.422928 1.936492 -1.936492 
C 1.422928 -2.450055 0.726289 -2.738613 0 -2.738613 
C -0.726289 -2.738613 -1.422928 -2.450055 -1.936492 -1.936492 
C -2.450055 -1.422928 -2.738613 -0.726289 -2.738613 0 
C -2.738613 0.726289 -2.450055 1.422928 -1.936492 1.936492 
C -1.422928 2.450055 -0.726289 2.738613 0 2.738613 
z
" id="mc7f9af52e2" style="stroke:#ff0000;"/>
    </defs>
    <g clip-path="url(#pfb91ca1355)">
     <use style="fill:#ff0000;stroke:#ff0000;" x="397.175008" xlink:href="#mc7f9af52e2" y="268.189806"/>
     <use style="fill:#ff0000;stroke:#ff0000;" x="204.924817" xlink:href="#mc7f9af52e2" y="256.415663"/>
     <use style="fill:#ff0000;stroke:#ff0000;" x="149.583164" xlink:href="#mc7f9af52e2" y="66.650157"/>
     <use style="fill:#ff0000;stroke:#ff0000;" x="75.144992" xlink:href="#mc7f9af52e2" y="231.954321"/>
     <use style="fill:#ff0000;stroke:#ff0000;" x="78.577409" xlink:href="#mc7f9af52e2" y="242.246113"/>
     <use style="fill:#ff0000;stroke:#ff0000;" x="191.097838" xlink:href="#mc7f9af52e2" y="122.139753"/>
     <use style="fill:#ff0000;stroke:#ff0000;" x="244.776459" xlink:href="#mc7f9af52e2" y="243.939743"/>
     <use style="fill:#ff0000;stroke:#ff0000;" x="244.272804" xlink:href="#mc7f9af52e2" y="245.812129"/>
     <use style="fill:#ff0000;stroke:#ff0000;" x="241.715917" xlink:href="#mc7f9af52e2" y="198.396683"/>
    </g>
   </g>
   <g id="text_15">
    <!-- (104) Subject: s27, Known = False, Degree = 1, Duration = 0.1 -->
    <defs>
     <path d="M 31 75.875 
Q 24.46875 64.65625 21.28125 53.65625 
Q 18.109375 42.671875 18.109375 31.390625 
Q 18.109375 20.125 21.3125 9.0625 
Q 24.515625 -2 31 -13.1875 
L 23.1875 -13.1875 
Q 15.875 -1.703125 12.234375 9.375 
Q 8.59375 20.453125 8.59375 31.390625 
Q 8.59375 42.28125 12.203125 53.3125 
Q 15.828125 64.359375 23.1875 75.875 
z
" id="DejaVuSans-40"/>
     <path d="M 8.015625 75.875 
L 15.828125 75.875 
Q 23.140625 64.359375 26.78125 53.3125 
Q 30.421875 42.28125 30.421875 31.390625 
Q 30.421875 20.453125 26.78125 9.375 
Q 23.140625 -1.703125 15.828125 -13.1875 
L 8.015625 -13.1875 
Q 14.5 -2 17.703125 9.0625 
Q 20.90625 20.125 20.90625 31.390625 
Q 20.90625 42.671875 17.703125 53.65625 
Q 14.5 64.65625 8.015625 75.875 
z
" id="DejaVuSans-41"/>
     <path id="DejaVuSans-32"/>
     <path d="M 53.515625 70.515625 
L 53.515625 60.890625 
Q 47.90625 63.578125 42.921875 64.890625 
Q 37.9375 66.21875 33.296875 66.21875 
Q 25.25 66.21875 20.875 63.09375 
Q 16.5 59.96875 16.5 54.203125 
Q 16.5 49.359375 19.40625 46.890625 
Q 22.3125 44.4375 30.421875 42.921875 
L 36.375 41.703125 
Q 47.40625 39.59375 52.65625 34.296875 
Q 57.90625 29 57.90625 20.125 
Q 57.90625 9.515625 50.796875 4.046875 
Q 43.703125 -1.421875 29.984375 -1.421875 
Q 24.8125 -1.421875 18.96875 -0.25 
Q 13.140625 0.921875 6.890625 3.21875 
L 6.890625 13.375 
Q 12.890625 10.015625 18.65625 8.296875 
Q 24.421875 6.59375 29.984375 6.59375 
Q 38.421875 6.59375 43.015625 9.90625 
Q 47.609375 13.234375 47.609375 19.390625 
Q 47.609375 24.75 44.3125 27.78125 
Q 41.015625 30.8125 33.5 32.328125 
L 27.484375 33.5 
Q 16.453125 35.6875 11.515625 40.375 
Q 6.59375 45.0625 6.59375 53.421875 
Q 6.59375 63.09375 13.40625 68.65625 
Q 20.21875 74.21875 32.171875 74.21875 
Q 37.3125 74.21875 42.625 73.28125 
Q 47.953125 72.359375 53.515625 70.515625 
z
" id="DejaVuSans-83"/>
     <path d="M 8.5 21.578125 
L 8.5 54.6875 
L 17.484375 54.6875 
L 17.484375 21.921875 
Q 17.484375 14.15625 20.5 10.265625 
Q 23.53125 6.390625 29.59375 6.390625 
Q 36.859375 6.390625 41.078125 11.03125 
Q 45.3125 15.671875 45.3125 23.6875 
L 45.3125 54.6875 
L 54.296875 54.6875 
L 54.296875 0 
L 45.3125 0 
L 45.3125 8.40625 
Q 42.046875 3.421875 37.71875 1 
Q 33.40625 -1.421875 27.6875 -1.421875 
Q 18.265625 -1.421875 13.375 4.4375 
Q 8.5 10.296875 8.5 21.578125 
z
M 31.109375 56 
z
" id="DejaVuSans-117"/>
     <path d="M 48.6875 27.296875 
Q 48.6875 37.203125 44.609375 42.84375 
Q 40.53125 48.484375 33.40625 48.484375 
Q 26.265625 48.484375 22.1875 42.84375 
Q 18.109375 37.203125 18.109375 27.296875 
Q 18.109375 17.390625 22.1875 11.75 
Q 26.265625 6.109375 33.40625 6.109375 
Q 40.53125 6.109375 44.609375 11.75 
Q 48.6875 17.390625 48.6875 27.296875 
z
M 18.109375 46.390625 
Q 20.953125 51.265625 25.265625 53.625 
Q 29.59375 56 35.59375 56 
Q 45.5625 56 51.78125 48.09375 
Q 58.015625 40.1875 58.015625 27.296875 
Q 58.015625 14.40625 51.78125 6.484375 
Q 45.5625 -1.421875 35.59375 -1.421875 
Q 29.59375 -1.421875 25.265625 0.953125 
Q 20.953125 3.328125 18.109375 8.203125 
L 18.109375 0 
L 9.078125 0 
L 9.078125 75.984375 
L 18.109375 75.984375 
z
" id="DejaVuSans-98"/>
     <path d="M 9.421875 54.6875 
L 18.40625 54.6875 
L 18.40625 -0.984375 
Q 18.40625 -11.421875 14.421875 -16.109375 
Q 10.453125 -20.796875 1.609375 -20.796875 
L -1.8125 -20.796875 
L -1.8125 -13.1875 
L 0.59375 -13.1875 
Q 5.71875 -13.1875 7.5625 -10.8125 
Q 9.421875 -8.453125 9.421875 -0.984375 
z
M 9.421875 75.984375 
L 18.40625 75.984375 
L 18.40625 64.59375 
L 9.421875 64.59375 
z
" id="DejaVuSans-106"/>
     <path d="M 56.203125 29.59375 
L 56.203125 25.203125 
L 14.890625 25.203125 
Q 15.484375 15.921875 20.484375 11.0625 
Q 25.484375 6.203125 34.421875 6.203125 
Q 39.59375 6.203125 44.453125 7.46875 
Q 49.3125 8.734375 54.109375 11.28125 
L 54.109375 2.78125 
Q 49.265625 0.734375 44.1875 -0.34375 
Q 39.109375 -1.421875 33.890625 -1.421875 
Q 20.796875 -1.421875 13.15625 6.1875 
Q 5.515625 13.8125 5.515625 26.8125 
Q 5.515625 40.234375 12.765625 48.109375 
Q 20.015625 56 32.328125 56 
Q 43.359375 56 49.78125 48.890625 
Q 56.203125 41.796875 56.203125 29.59375 
z
M 47.21875 32.234375 
Q 47.125 39.59375 43.09375 43.984375 
Q 39.0625 48.390625 32.421875 48.390625 
Q 24.90625 48.390625 20.390625 44.140625 
Q 15.875 39.890625 15.1875 32.171875 
z
" id="DejaVuSans-101"/>
     <path d="M 48.78125 52.59375 
L 48.78125 44.1875 
Q 44.96875 46.296875 41.140625 47.34375 
Q 37.3125 48.390625 33.40625 48.390625 
Q 24.65625 48.390625 19.8125 42.84375 
Q 14.984375 37.3125 14.984375 27.296875 
Q 14.984375 17.28125 19.8125 11.734375 
Q 24.65625 6.203125 33.40625 6.203125 
Q 37.3125 6.203125 41.140625 7.25 
Q 44.96875 8.296875 48.78125 10.40625 
L 48.78125 2.09375 
Q 45.015625 0.34375 40.984375 -0.53125 
Q 36.96875 -1.421875 32.421875 -1.421875 
Q 20.0625 -1.421875 12.78125 6.34375 
Q 5.515625 14.109375 5.515625 27.296875 
Q 5.515625 40.671875 12.859375 48.328125 
Q 20.21875 56 33.015625 56 
Q 37.15625 56 41.109375 55.140625 
Q 45.0625 54.296875 48.78125 52.59375 
z
" id="DejaVuSans-99"/>
     <path d="M 18.3125 70.21875 
L 18.3125 54.6875 
L 36.8125 54.6875 
L 36.8125 47.703125 
L 18.3125 47.703125 
L 18.3125 18.015625 
Q 18.3125 11.328125 20.140625 9.421875 
Q 21.96875 7.515625 27.59375 7.515625 
L 36.8125 7.515625 
L 36.8125 0 
L 27.59375 0 
Q 17.1875 0 13.234375 3.875 
Q 9.28125 7.765625 9.28125 18.015625 
L 9.28125 47.703125 
L 2.6875 47.703125 
L 2.6875 54.6875 
L 9.28125 54.6875 
L 9.28125 70.21875 
z
" id="DejaVuSans-116"/>
     <path d="M 11.71875 12.40625 
L 22.015625 12.40625 
L 22.015625 0 
L 11.71875 0 
z
M 11.71875 51.703125 
L 22.015625 51.703125 
L 22.015625 39.3125 
L 11.71875 39.3125 
z
" id="DejaVuSans-58"/>
     <path d="M 44.28125 53.078125 
L 44.28125 44.578125 
Q 40.484375 46.53125 36.375 47.5 
Q 32.28125 48.484375 27.875 48.484375 
Q 21.1875 48.484375 17.84375 46.4375 
Q 14.5 44.390625 14.5 40.28125 
Q 14.5 37.15625 16.890625 35.375 
Q 19.28125 33.59375 26.515625 31.984375 
L 29.59375 31.296875 
Q 39.15625 29.25 43.1875 25.515625 
Q 47.21875 21.78125 47.21875 15.09375 
Q 47.21875 7.46875 41.1875 3.015625 
Q 35.15625 -1.421875 24.609375 -1.421875 
Q 20.21875 -1.421875 15.453125 -0.5625 
Q 10.6875 0.296875 5.421875 2 
L 5.421875 11.28125 
Q 10.40625 8.6875 15.234375 7.390625 
Q 20.0625 6.109375 24.8125 6.109375 
Q 31.15625 6.109375 34.5625 8.28125 
Q 37.984375 10.453125 37.984375 14.40625 
Q 37.984375 18.0625 35.515625 20.015625 
Q 33.0625 21.96875 24.703125 23.78125 
L 21.578125 24.515625 
Q 13.234375 26.265625 9.515625 29.90625 
Q 5.8125 33.546875 5.8125 39.890625 
Q 5.8125 47.609375 11.28125 51.796875 
Q 16.75 56 26.8125 56 
Q 31.78125 56 36.171875 55.265625 
Q 40.578125 54.546875 44.28125 53.078125 
z
" id="DejaVuSans-115"/>
     <path d="M 11.71875 12.40625 
L 22.015625 12.40625 
L 22.015625 4 
L 14.015625 -11.625 
L 7.71875 -11.625 
L 11.71875 4 
z
" id="DejaVuSans-44"/>
     <path d="M 9.8125 72.90625 
L 19.671875 72.90625 
L 19.671875 42.09375 
L 52.390625 72.90625 
L 65.09375 72.90625 
L 28.90625 38.921875 
L 67.671875 0 
L 54.6875 0 
L 19.671875 35.109375 
L 19.671875 0 
L 9.8125 0 
z
" id="DejaVuSans-75"/>
     <path d="M 54.890625 33.015625 
L 54.890625 0 
L 45.90625 0 
L 45.90625 32.71875 
Q 45.90625 40.484375 42.875 44.328125 
Q 39.84375 48.1875 33.796875 48.1875 
Q 26.515625 48.1875 22.3125 43.546875 
Q 18.109375 38.921875 18.109375 30.90625 
L 18.109375 0 
L 9.078125 0 
L 9.078125 54.6875 
L 18.109375 54.6875 
L 18.109375 46.1875 
Q 21.34375 51.125 25.703125 53.5625 
Q 30.078125 56 35.796875 56 
Q 45.21875 56 50.046875 50.171875 
Q 54.890625 44.34375 54.890625 33.015625 
z
" id="DejaVuSans-110"/>
     <path d="M 30.609375 48.390625 
Q 23.390625 48.390625 19.1875 42.75 
Q 14.984375 37.109375 14.984375 27.296875 
Q 14.984375 17.484375 19.15625 11.84375 
Q 23.34375 6.203125 30.609375 6.203125 
Q 37.796875 6.203125 41.984375 11.859375 
Q 46.1875 17.53125 46.1875 27.296875 
Q 46.1875 37.015625 41.984375 42.703125 
Q 37.796875 48.390625 30.609375 48.390625 
z
M 30.609375 56 
Q 42.328125 56 49.015625 48.375 
Q 55.71875 40.765625 55.71875 27.296875 
Q 55.71875 13.875 49.015625 6.21875 
Q 42.328125 -1.421875 30.609375 -1.421875 
Q 18.84375 -1.421875 12.171875 6.21875 
Q 5.515625 13.875 5.515625 27.296875 
Q 5.515625 40.765625 12.171875 48.375 
Q 18.84375 56 30.609375 56 
z
" id="DejaVuSans-111"/>
     <path d="M 4.203125 54.6875 
L 13.1875 54.6875 
L 24.421875 12.015625 
L 35.59375 54.6875 
L 46.1875 54.6875 
L 57.421875 12.015625 
L 68.609375 54.6875 
L 77.59375 54.6875 
L 63.28125 0 
L 52.6875 0 
L 40.921875 44.828125 
L 29.109375 0 
L 18.5 0 
z
" id="DejaVuSans-119"/>
     <path d="M 10.59375 45.40625 
L 73.1875 45.40625 
L 73.1875 37.203125 
L 10.59375 37.203125 
z
M 10.59375 25.484375 
L 73.1875 25.484375 
L 73.1875 17.1875 
L 10.59375 17.1875 
z
" id="DejaVuSans-61"/>
     <path d="M 9.8125 72.90625 
L 51.703125 72.90625 
L 51.703125 64.59375 
L 19.671875 64.59375 
L 19.671875 43.109375 
L 48.578125 43.109375 
L 48.578125 34.8125 
L 19.671875 34.8125 
L 19.671875 0 
L 9.8125 0 
z
" id="DejaVuSans-70"/>
     <path d="M 34.28125 27.484375 
Q 23.390625 27.484375 19.1875 25 
Q 14.984375 22.515625 14.984375 16.5 
Q 14.984375 11.71875 18.140625 8.90625 
Q 21.296875 6.109375 26.703125 6.109375 
Q 34.1875 6.109375 38.703125 11.40625 
Q 43.21875 16.703125 43.21875 25.484375 
L 43.21875 27.484375 
z
M 52.203125 31.203125 
L 52.203125 0 
L 43.21875 0 
L 43.21875 8.296875 
Q 40.140625 3.328125 35.546875 0.953125 
Q 30.953125 -1.421875 24.3125 -1.421875 
Q 15.921875 -1.421875 10.953125 3.296875 
Q 6 8.015625 6 15.921875 
Q 6 25.140625 12.171875 29.828125 
Q 18.359375 34.515625 30.609375 34.515625 
L 43.21875 34.515625 
L 43.21875 35.40625 
Q 43.21875 41.609375 39.140625 45 
Q 35.0625 48.390625 27.6875 48.390625 
Q 23 48.390625 18.546875 47.265625 
Q 14.109375 46.140625 10.015625 43.890625 
L 10.015625 52.203125 
Q 14.9375 54.109375 19.578125 55.046875 
Q 24.21875 56 28.609375 56 
Q 40.484375 56 46.34375 49.84375 
Q 52.203125 43.703125 52.203125 31.203125 
z
" id="DejaVuSans-97"/>
     <path d="M 9.421875 75.984375 
L 18.40625 75.984375 
L 18.40625 0 
L 9.421875 0 
z
" id="DejaVuSans-108"/>
     <path d="M 19.671875 64.796875 
L 19.671875 8.109375 
L 31.59375 8.109375 
Q 46.6875 8.109375 53.6875 14.9375 
Q 60.6875 21.78125 60.6875 36.53125 
Q 60.6875 51.171875 53.6875 57.984375 
Q 46.6875 64.796875 31.59375 64.796875 
z
M 9.8125 72.90625 
L 30.078125 72.90625 
Q 51.265625 72.90625 61.171875 64.09375 
Q 71.09375 55.28125 71.09375 36.53125 
Q 71.09375 17.671875 61.125 8.828125 
Q 51.171875 0 30.078125 0 
L 9.8125 0 
z
" id="DejaVuSans-68"/>
     <path d="M 45.40625 27.984375 
Q 45.40625 37.75 41.375 43.109375 
Q 37.359375 48.484375 30.078125 48.484375 
Q 22.859375 48.484375 18.828125 43.109375 
Q 14.796875 37.75 14.796875 27.984375 
Q 14.796875 18.265625 18.828125 12.890625 
Q 22.859375 7.515625 30.078125 7.515625 
Q 37.359375 7.515625 41.375 12.890625 
Q 45.40625 18.265625 45.40625 27.984375 
z
M 54.390625 6.78125 
Q 54.390625 -7.171875 48.1875 -13.984375 
Q 42 -20.796875 29.203125 -20.796875 
Q 24.46875 -20.796875 20.265625 -20.09375 
Q 16.0625 -19.390625 12.109375 -17.921875 
L 12.109375 -9.1875 
Q 16.0625 -11.328125 19.921875 -12.34375 
Q 23.78125 -13.375 27.78125 -13.375 
Q 36.625 -13.375 41.015625 -8.765625 
Q 45.40625 -4.15625 45.40625 5.171875 
L 45.40625 9.625 
Q 42.625 4.78125 38.28125 2.390625 
Q 33.9375 0 27.875 0 
Q 17.828125 0 11.671875 7.65625 
Q 5.515625 15.328125 5.515625 27.984375 
Q 5.515625 40.671875 11.671875 48.328125 
Q 17.828125 56 27.875 56 
Q 33.9375 56 38.28125 53.609375 
Q 42.625 51.21875 45.40625 46.390625 
L 45.40625 54.6875 
L 54.390625 54.6875 
z
" id="DejaVuSans-103"/>
     <path d="M 41.109375 46.296875 
Q 39.59375 47.171875 37.8125 47.578125 
Q 36.03125 48 33.890625 48 
Q 26.265625 48 22.1875 43.046875 
Q 18.109375 38.09375 18.109375 28.8125 
L 18.109375 0 
L 9.078125 0 
L 9.078125 54.6875 
L 18.109375 54.6875 
L 18.109375 46.1875 
Q 20.953125 51.171875 25.484375 53.578125 
Q 30.03125 56 36.53125 56 
Q 37.453125 56 38.578125 55.875 
Q 39.703125 55.765625 41.0625 55.515625 
z
" id="DejaVuSans-114"/>
     <path d="M 9.421875 54.6875 
L 18.40625 54.6875 
L 18.40625 0 
L 9.421875 0 
z
M 9.421875 75.984375 
L 18.40625 75.984375 
L 18.40625 64.59375 
L 9.421875 64.59375 
z
" id="DejaVuSans-105"/>
     <path d="M 10.6875 12.40625 
L 21 12.40625 
L 21 0 
L 10.6875 0 
z
" id="DejaVuSans-46"/>
    </defs>
    <g transform="translate(45.924375 35.472)scale(0.12 -0.12)">
     <use xlink:href="#DejaVuSans-40"/>
     <use x="39.013672" xlink:href="#DejaVuSans-49"/>
     <use x="102.636719" xlink:href="#DejaVuSans-48"/>
     <use x="166.259766" xlink:href="#DejaVuSans-52"/>
     <use x="229.882812" xlink:href="#DejaVuSans-41"/>
     <use x="268.896484" xlink:href="#DejaVuSans-32"/>
     <use x="300.683594" xlink:href="#DejaVuSans-83"/>
     <use x="364.160156" xlink:href="#DejaVuSans-117"/>
     <use x="427.539062" xlink:href="#DejaVuSans-98"/>
     <use x="491.015625" xlink:href="#DejaVuSans-106"/>
     <use x="518.798828" xlink:href="#DejaVuSans-101"/>
     <use x="580.322266" xlink:href="#DejaVuSans-99"/>
     <use x="635.302734" xlink:href="#DejaVuSans-116"/>
     <use x="674.511719" xlink:href="#DejaVuSans-58"/>
     <use x="708.203125" xlink:href="#DejaVuSans-32"/>
     <use x="739.990234" xlink:href="#DejaVuSans-115"/>
     <use x="792.089844" xlink:href="#DejaVuSans-50"/>
     <use x="855.712891" xlink:href="#DejaVuSans-55"/>
     <use x="919.335938" xlink:href="#DejaVuSans-44"/>
     <use x="951.123047" xlink:href="#DejaVuSans-32"/>
     <use x="982.910156" xlink:href="#DejaVuSans-75"/>
     <use x="1048.486328" xlink:href="#DejaVuSans-110"/>
     <use x="1111.865234" xlink:href="#DejaVuSans-111"/>
     <use x="1173.046875" xlink:href="#DejaVuSans-119"/>
     <use x="1254.833984" xlink:href="#DejaVuSans-110"/>
     <use x="1318.212891" xlink:href="#DejaVuSans-32"/>
     <use x="1350" xlink:href="#DejaVuSans-61"/>
     <use x="1433.789062" xlink:href="#DejaVuSans-32"/>
     <use x="1465.576172" xlink:href="#DejaVuSans-70"/>
     <use x="1522.955078" xlink:href="#DejaVuSans-97"/>
     <use x="1584.234375" xlink:href="#DejaVuSans-108"/>
     <use x="1612.017578" xlink:href="#DejaVuSans-115"/>
     <use x="1664.117188" xlink:href="#DejaVuSans-101"/>
     <use x="1725.640625" xlink:href="#DejaVuSans-44"/>
     <use x="1757.427734" xlink:href="#DejaVuSans-32"/>
     <use x="1789.214844" xlink:href="#DejaVuSans-68"/>
     <use x="1866.216797" xlink:href="#DejaVuSans-101"/>
     <use x="1927.740234" xlink:href="#DejaVuSans-103"/>
     <use x="1991.216797" xlink:href="#DejaVuSans-114"/>
     <use x="2032.298828" xlink:href="#DejaVuSans-101"/>
     <use x="2093.822266" xlink:href="#DejaVuSans-101"/>
     <use x="2155.345703" xlink:href="#DejaVuSans-32"/>
     <use x="2187.132812" xlink:href="#DejaVuSans-61"/>
     <use x="2270.921875" xlink:href="#DejaVuSans-32"/>
     <use x="2302.708984" xlink:href="#DejaVuSans-49"/>
     <use x="2366.332031" xlink:href="#DejaVuSans-44"/>
     <use x="2398.119141" xlink:href="#DejaVuSans-32"/>
     <use x="2429.90625" xlink:href="#DejaVuSans-68"/>
     <use x="2506.908203" xlink:href="#DejaVuSans-117"/>
     <use x="2570.287109" xlink:href="#DejaVuSans-114"/>
     <use x="2611.400391" xlink:href="#DejaVuSans-97"/>
     <use x="2672.679688" xlink:href="#DejaVuSans-116"/>
     <use x="2711.888672" xlink:href="#DejaVuSans-105"/>
     <use x="2739.671875" xlink:href="#DejaVuSans-111"/>
     <use x="2800.853516" xlink:href="#DejaVuSans-110"/>
     <use x="2864.232422" xlink:href="#DejaVuSans-32"/>
     <use x="2896.019531" xlink:href="#DejaVuSans-61"/>
     <use x="2979.808594" xlink:href="#DejaVuSans-32"/>
     <use x="3011.595703" xlink:href="#DejaVuSans-48"/>
     <use x="3075.21875" xlink:href="#DejaVuSans-46"/>
     <use x="3107.005859" xlink:href="#DejaVuSans-49"/>
    </g>
   </g>
  </g>
 </g>
 <defs>
  <clipPath id="pfb91ca1355">
   <rect height="266.112" width="357.12" x="57.6" y="41.472"/>
  </clipPath>
 </defs>
</svg>
