<?xml version="1.0" encoding="utf-8" standalone="no"?>
<!DOCTYPE svg PUBLIC "-//W3C//DTD SVG 1.1//EN"
  "http://www.w3.org/Graphics/SVG/1.1/DTD/svg11.dtd">
<!-- Created with matplotlib (https://matplotlib.org/) -->
<svg height="345.6pt" version="1.1" viewBox="0 0 460.8 345.6" width="460.8pt" xmlns="http://www.w3.org/2000/svg" xmlns:xlink="http://www.w3.org/1999/xlink">
 <defs>
  <style type="text/css">
*{stroke-linecap:butt;stroke-linejoin:round;}
  </style>
 </defs>
 <g id="figure_1">
  <g id="patch_1">
   <path d="M 0 345.6 
L 460.8 345.6 
L 460.8 0 
L 0 0 
z
" style="fill:#ffffff;"/>
  </g>
  <g id="axes_1">
   <g id="patch_2">
    <path d="M 57.6 307.584 
L 414.72 307.584 
L 414.72 41.472 
L 57.6 41.472 
z
" style="fill:#ffffff;"/>
   </g>
   <g id="line2d_1">
    <path clip-path="url(#p4075c6a2b8)" d="M 395.823357 112.247303 
L 395.639743 112.247303 
L 395.733055 112.035224 
L 395.54944 111.929185 
L 395.272514 112.247303 
L 395.365826 112.247303 
L 395.639743 112.035224 
L 395.733055 111.823146 
L 395.916669 111.718234 
L 395.733055 111.718234 
L 395.54944 111.612195 
L 395.456128 111.506155 
L 395.365826 111.612195 
L 395.365826 111.506155 
L 395.272514 111.188037 
L 395.182211 111.188037 
L 395.54944 111.294076 
L 395.456128 111.188037 
L 395.272514 110.552928 
L 395.365826 110.340849 
L 395.54944 110.340849 
L 395.823357 110.658968 
L 395.733055 110.763879 
L 395.54944 110.658968 
L 395.639743 110.23481 
L 395.733055 110.022731 
L 396.190586 110.12877 
L 396.100284 109.916691 
L 395.823357 109.705741 
L 396.190586 110.022731 
L 396.190586 110.022731 
L 396.100284 109.705741 
L 396.190586 108.963464 
L 396.006972 108.963464 
L 395.916669 108.751385 
L 396.006972 108.540435 
L 396.190586 108.540435 
L 396.100284 108.751385 
L 396.100284 108.751385 
L 396.557815 108.434395 
L 396.283899 108.540435 
L 396.100284 108.222316 
L 396.190586 108.116277 
L 396.651128 108.010237 
L 396.557815 107.798158 
L 396.374201 107.798158 
L 396.467513 107.481168 
L 396.834742 107.587208 
L 396.74143 107.693247 
L 396.100284 107.798158 
L 396.100284 107.693247 
L 396.190586 107.375129 
L 396.74143 107.05701 
L 396.74143 107.05701 
L 396.557815 106.950971 
L 396.467513 106.844931 
L 396.834742 106.950971 
L 396.925044 107.05701 
L 396.834742 106.74002 
L 396.74143 106.74002 
L 397.385586 106.633981 
L 397.752815 106.527941 
L 397.385586 106.633981 
L 397.385586 106.844931 
L 397.5692 107.05701 
L 397.843117 106.950971 
L 397.018357 106.527941 
L 397.108659 106.421902 
L 397.659502 106.315862 
L 397.659502 106.103783 
L 397.752815 106.209823 
L 397.843117 106.74002 
L 397.5692 106.527941 
L 397.5692 106.633981 
L 397.5692 106.844931 
L 397.5692 105.997744 
L 397.475888 106.103783 
L 397.385586 106.315862 
L 397.5692 106.527941 
L 398.026731 106.421902 
L 397.843117 106.74002 
L 397.843117 106.844931 
L 397.843117 106.315862 
L 397.752815 106.421902 
L 398.026731 106.633981 
L 398.39396 106.74002 
L 398.487273 106.633981 
L 397.843117 106.209823 
L 397.843117 106.103783 
L 397.936429 106.315862 
L 397.843117 106.209823 
L 398.210346 106.315862 
L 398.120044 106.103783 
L 397.936429 105.997744 
L 398.026731 106.103783 
L 398.39396 105.574714 
L 398.303658 105.256596 
L 397.936429 105.362635 
L 397.752815 105.891704 
L 397.936429 105.891704 
L 397.936429 105.785665 
L 398.026731 105.256596 
L 398.120044 105.150556 
L 398.210346 105.362635 
L 397.936429 105.785665 
L 397.659502 105.680753 
L 397.5692 105.362635 
L 397.5692 105.574714 
L 397.5692 105.785665 
L 397.5692 105.680753 
L 397.292273 105.785665 
L 397.385586 105.785665 
L 397.659502 105.891704 
L 397.5692 104.938477 
L 397.752815 105.362635 
L 397.108659 105.574714 
L 393.713295 105.680753 
L 385.908173 107.16305 
L 381.868654 108.222316 
L 377.094677 109.175543 
L 374.707688 109.810652 
L 372.227387 110.658968 
L 367.637024 111.823146 
L 360.382745 113.094491 
L 355.792383 113.835639 
L 350.928103 115.213024 
L 345.600272 116.37833 
L 343.122981 117.013439 
L 327.145508 122.309771 
L 321.54677 124.110186 
L 319.89424 124.851334 
L 316.221949 126.757788 
L 310.529899 130.994854 
L 309.979056 131.525051 
L 308.693754 132.266199 
L 307.041223 134.596811 
L 306.397068 134.913802 
L 305.385683 136.079108 
L 305.295381 137.985562 
L 305.202068 138.832749 
L 305.295381 139.998055 
L 305.295381 140.633164 
L 305.111766 141.37544 
L 305.111766 141.37544 
L 305.018454 142.751697 
L 304.560922 143.600013 
L 304.100381 143.704924 
L 304.377308 144.235121 
L 304.834839 144.4472 
L 305.111766 144.4472 
L 304.834839 144.4472 
L 304.560922 145.082309 
L 304.560922 145.400427 
L 304.560922 145.400427 
L 304.928151 144.976269 
L 305.018454 145.082309 
L 304.560922 145.082309 
L 304.651225 145.188348 
L 304.744537 145.294388 
L 304.744537 145.294388 
L 304.744537 145.082309 
L 304.651225 145.082309 
L 304.46761 145.611378 
L 305.018454 145.188348 
L 304.651225 145.506467 
L 304.651225 146.247615 
L 304.46761 146.035536 
L 304.377308 145.717418 
L 304.560922 145.400427 
L 304.834839 145.400427 
L 305.018454 145.611378 
L 305.018454 145.823457 
L 305.295381 146.035536 
L 305.385683 145.611378 
L 305.295381 145.611378 
L 304.560922 146.035536 
L 304.928151 146.035536 
L 304.744537 146.141575 
L 304.46761 146.353654 
L 304.651225 146.247615 
L 304.744537 145.717418 
L 304.744537 145.929496 
L 304.834839 146.565733 
L 304.744537 146.565733 
L 304.834839 146.459694 
L 304.651225 146.988763 
L 304.744537 146.670645 
L 304.928151 146.776684 
L 304.928151 146.670645 
L 305.111766 146.565733 
L 305.295381 146.459694 
L 305.295381 146.459694 
L 305.202068 146.670645 
L 304.834839 146.776684 
L 304.651225 146.776684 
L 305.478995 146.882724 
L 305.755922 146.988763 
L 305.66261 146.882724 
L 304.928151 146.988763 
L 304.560922 146.882724 
L 304.283996 146.670645 
L 303.365923 146.459694 
L 302.631465 146.353654 
L 301.62309 146.353654 
L 296.481884 147.306881 
L 293.360437 148.048029 
L 291.981823 148.366148 
L 285.097784 150.801671 
L 283.258628 151.331868 
L 277.476276 152.391135 
L 273.343445 153.979471 
L 271.507299 154.932698 
L 265.44802 158.639566 
L 263.888802 159.804872 
L 262.233261 160.864139 
L 260.306814 161.605287 
L 258.010127 162.241524 
L 254.888681 163.617781 
L 253.603379 164.466096 
L 252.595004 165.630274 
L 251.860546 166.79558 
L 251.21639 167.431817 
L 250.39163 167.854847 
L 249.931089 168.279004 
L 249.840787 170.291498 
L 249.56386 171.985873 
L 249.013016 172.833061 
L 249.473557 173.786288 
L 249.380245 174.422525 
L 249.106328 174.951594 
L 248.922714 175.586702 
L 248.829402 178.764502 
L 248.555485 179.929808 
L 248.094944 180.035847 
L 248.37187 180.776996 
L 248.094944 181.836262 
L 247.5441 183.425726 
L 247.176871 183.742716 
L 247.176871 184.166874 
L 247.270183 184.166874 
L 247.821027 183.954795 
L 247.911329 184.166874 
L 247.821027 185.014062 
L 247.637412 185.543131 
L 247.5441 185.33218 
L 247.453798 185.33218 
L 247.5441 185.967289 
L 247.637412 186.073328 
L 247.637412 185.967289 
L 247.453798 186.073328 
L 247.086569 186.708437 
L 247.360485 186.814476 
L 247.453798 186.920516 
L 246.993256 187.238634 
L 247.086569 187.132595 
L 246.993256 187.661664 
L 247.086569 187.661664 
L 247.453798 188.297901 
L 247.453798 188.191861 
L 247.360485 187.873743 
L 247.176871 187.979782 
L 247.086569 188.614891 
L 247.176871 187.873743 
L 247.270183 188.614891 
L 247.360485 188.933009 
L 246.993256 189.145088 
L 247.086569 189.145088 
L 247.360485 189.568118 
L 247.360485 189.568118 
L 247.360485 189.674157 
L 247.360485 189.674157 
L 247.086569 189.780197 
L 247.086569 189.886236 
L 247.176871 189.886236 
L 247.453798 189.674157 
L 247.270183 189.886236 
L 247.086569 190.733424 
L 247.360485 190.310394 
L 247.453798 190.733424 
L 247.270183 191.051542 
L 246.71934 190.945503 
L 246.442413 190.733424 
L 245.984882 190.627384 
L 244.055424 190.839463 
L 242.67982 190.839463 
L 241.02428 190.627384 
L 239.371749 190.098315 
L 237.628916 189.674157 
L 235.609156 189.780197 
L 233.405782 190.310394 
L 224.866202 191.580611 
L 222.388911 191.89873 
L 213.38879 193.593105 
L 209.900114 193.805184 
L 204.391679 195.076529 
L 201.453846 195.182569 
L 198.792941 195.605599 
L 196.496254 195.605599 
L 195.578182 195.817677 
L 193.558422 196.558826 
L 191.261736 197.195062 
L 191.171433 197.407141 
L 191.538662 198.04225 
L 191.905891 198.783398 
L 191.812579 198.783398 
L 191.905891 198.889438 
L 192.363423 199.418507 
L 192.363423 199.736625 
L 192.179808 199.842665 
L 191.996194 199.736625 
L 191.905891 199.948704 
L 191.996194 200.266822 
L 192.179808 200.477773 
L 192.089506 200.901931 
L 191.355048 201.855158 
L 191.44535 202.385355 
L 191.538662 202.808385 
L 191.44535 203.232543 
L 191.171433 203.338582 
L 191.44535 203.232543 
L 191.628965 203.443494 
L 191.538662 203.867652 
L 191.261736 203.761612 
L 190.804204 203.867652 
L 190.804204 203.867652 
L 190.894507 204.926918 
L 191.171433 205.245037 
L 191.538662 205.245037 
L 191.44535 205.455987 
L 190.894507 206.198264 
L 191.171433 206.304303 
L 191.44535 206.727333 
L 191.44535 206.939412 
L 191.355048 206.939412 
L 190.710892 206.833372 
L 190.62059 206.621293 
L 190.710892 206.409214 
L 190.894507 206.515254 
L 190.894507 206.727333 
L 190.436975 207.25753 
L 190.710892 207.36357 
L 190.804204 207.57452 
L 190.710892 207.68056 
L 190.253361 207.786599 
L 189.976434 208.104718 
L 190.160049 208.951905 
L 190.160049 208.951905 
L 189.79282 208.527747 
L 189.702517 208.633787 
L 189.79282 208.633787 
L 189.702517 209.057945 
L 189.79282 209.270024 
L 189.518903 208.633787 
L 189.518903 208.633787 
L 189.241976 209.270024 
L 189.058361 209.270024 
L 188.968059 208.951905 
L 189.241976 208.845866 
L 189.241976 208.739826 
L 189.151674 208.845866 
L 189.058361 208.845866 
L 189.42559 208.739826 
L 189.609205 208.316797 
L 189.518903 208.316797 
L 189.42559 208.316797 
L 189.42559 208.421708 
L 189.335288 208.633787 
L 188.784445 208.316797 
L 188.60083 208.421708 
L 188.784445 208.633787 
L 189.335288 208.527747 
L 189.151674 208.527747 
L 188.784445 208.316797 
L 189.058361 208.421708 
L 188.968059 208.951905 
L 188.874747 208.739826 
L 188.968059 208.210757 
L 188.968059 208.210757 
L 189.151674 208.527747 
L 189.518903 208.421708 
L 189.335288 208.421708 
L 189.058361 208.316797 
L 188.874747 207.892639 
L 188.874747 207.892639 
L 188.874747 208.210757 
L 189.058361 208.210757 
L 189.79282 207.892639 
L 189.42559 207.998678 
L 189.335288 208.210757 
L 189.058361 208.316797 
L 189.151674 208.421708 
L 189.151674 208.421708 
L 189.42559 208.104718 
L 189.335288 208.104718 
L 189.42559 208.316797 
L 189.702517 208.527747 
L 189.702517 208.527747 
L 189.42559 208.633787 
L 189.241976 208.527747 
L 189.241976 208.316797 
L 189.42559 208.210757 
L 189.518903 208.421708 
L 189.335288 208.210757 
L 189.518903 208.316797 
L 189.79282 207.892639 
L 189.79282 207.998678 
L 189.609205 208.316797 
L 190.069746 208.739826 
L 190.253361 208.951905 
L 190.160049 208.951905 
L 189.79282 208.527747 
L 189.886132 208.739826 
L 189.79282 208.845866 
L 189.976434 208.951905 
L 190.253361 208.845866 
L 190.160049 208.527747 
L 189.886132 208.951905 
L 190.069746 208.951905 
L 190.253361 208.739826 
L 190.160049 208.633787 
L 189.976434 208.845866 
L 189.976434 208.845866 
L 189.886132 208.739826 
L 190.343663 209.376063 
L 190.343663 209.376063 
L 190.069746 209.270024 
L 189.976434 209.057945 
L 190.069746 209.163984 
L 190.710892 209.057945 
L 192.547037 207.786599 
L 193.648724 207.36357 
L 195.210953 207.045451 
L 197.047098 206.515254 
L 201.453846 204.714839 
L 204.117762 204.079731 
L 207.239209 203.655573 
L 210.634572 203.020464 
L 214.032946 202.067237 
L 217.611924 201.326089 
L 233.405782 198.783398 
L 241.391509 197.830171 
L 245.617653 197.301102 
L 263.428261 196.135796 
L 275.730433 195.499559 
L 283.809472 194.97049 
L 291.891521 194.652371 
L 299.877247 194.652371 
L 307.498755 194.229342 
L 317.781168 194.335381 
L 320.812312 194.440293 
L 325.953519 194.86445 
L 334.309484 196.347875 
L 335.501473 197.407141 
L 335.685088 197.93621 
L 335.134244 197.830171 
L 335.043942 198.148289 
L 334.95063 198.889438 
L 334.767015 198.995477 
L 335.043942 199.630586 
L 334.95063 200.795892 
L 334.860328 200.795892 
L 334.860328 200.795892 
L 334.860328 201.961198 
L 335.043942 202.173276 
L 335.411171 202.067237 
L 335.227557 202.279316 
L 335.043942 203.338582 
L 335.043942 203.655573 
L 335.411171 203.973691 
L 335.043942 203.761612 
L 334.95063 203.867652 
L 335.227557 204.29181 
L 335.317859 204.397849 
L 335.227557 204.6088 
L 335.043942 204.6088 
L 335.7784 204.6088 
L 335.7784 204.714839 
L 335.501473 205.032958 
L 335.685088 205.351076 
L 335.685088 205.351076 
L 335.868703 205.455987 
L 335.868703 205.774106 
L 335.317859 205.986185 
L 335.411171 206.621293 
L 335.594786 206.833372 
L 335.685088 206.409214 
L 335.685088 206.515254 
L 335.868703 207.045451 
L 335.962015 207.045451 
L 335.868703 207.151491 
L 335.868703 207.468481 
L 335.685088 207.468481 
L 335.501473 207.151491 
L 335.7784 207.57452 
L 335.594786 207.468481 
L 335.501473 207.468481 
L 335.685088 207.786599 
L 336.145629 207.998678 
L 336.419546 207.998678 
L 336.419546 207.892639 
L 336.235932 207.786599 
L 336.329244 207.892639 
L 336.235932 207.998678 
L 336.235932 207.998678 
L 336.145629 207.57452 
L 336.235932 207.57452 
L 336.512858 207.998678 
L 336.603161 207.998678 
L 336.329244 208.104718 
L 335.7784 208.316797 
L 335.868703 208.421708 
L 336.329244 208.527747 
L 336.512858 208.845866 
L 336.512858 208.951905 
L 335.868703 208.633787 
L 336.145629 208.421708 
L 336.329244 208.421708 
L 336.145629 208.421708 
L 335.962015 208.633787 
L 336.145629 208.951905 
L 335.868703 208.633787 
L 335.962015 208.845866 
L 336.145629 208.951905 
L 336.145629 208.951905 
L 336.052317 208.739826 
L 335.868703 208.845866 
L 335.7784 209.057945 
L 335.868703 209.163984 
L 336.145629 209.057945 
L 336.512858 208.739826 
L 336.419546 208.527747 
L 336.145629 208.633787 
L 336.145629 208.845866 
L 335.685088 208.739826 
L 335.7784 208.527747 
L 336.052317 208.316797 
L 336.145629 208.527747 
L 336.052317 208.421708 
L 335.7784 208.421708 
L 335.7784 208.421708 
L 335.868703 208.845866 
L 336.235932 208.739826 
L 336.329244 208.633787 
L 336.052317 208.421708 
L 336.145629 208.421708 
L 336.235932 208.316797 
L 336.145629 208.210757 
L 335.685088 208.316797 
L 335.685088 208.421708 
L 335.7784 208.316797 
L 335.868703 208.527747 
L 336.235932 208.421708 
L 336.329244 208.316797 
L 336.235932 208.421708 
L 335.962015 208.316797 
L 336.052317 208.210757 
L 336.235932 208.104718 
L 336.145629 207.892639 
L 335.868703 207.892639 
L 335.7784 208.104718 
L 335.868703 208.210757 
L 336.052317 208.210757 
L 336.052317 208.316797 
L 335.868703 208.633787 
L 335.501473 208.104718 
L 335.411171 208.210757 
L 335.501473 208.527747 
L 335.685088 208.739826 
L 335.868703 208.527747 
L 335.685088 207.998678 
L 335.7784 207.998678 
L 336.603161 207.468481 
L 336.603161 207.36357 
L 336.786775 207.36357 
L 337.337619 207.151491 
L 339.724607 205.774106 
L 340.826294 205.455987 
L 343.49021 204.397849 
L 345.50997 204.18577 
L 347.713344 203.761612 
L 349.365874 203.655573 
L 350.01003 203.443494 
L 350.560874 203.549533 
L 351.018405 203.761612 
L 351.752863 203.549533 
L 352.213405 203.655573 
L 352.85455 204.079731 
L 353.772623 204.079731 
L 354.139852 203.867652 
L 354.600393 203.973691 
L 354.784008 204.18577 
L 354.784008 204.50276 
L 354.233164 204.820879 
L 353.865935 204.820879 
L 353.682321 205.032958 
L 353.405394 204.6088 
L 353.589008 204.50276 
L 353.772623 204.714839 
L 353.865935 205.351076 
L 354.139852 205.668066 
L 354.04955 205.455987 
L 354.04955 205.351076 
L 354.139852 205.455987 
L 354.233164 205.668066 
L 353.956237 205.668066 
L 353.682321 205.880145 
L 353.772623 206.621293 
L 353.865935 206.409214 
L 353.682321 205.668066 
L 353.498706 205.668066 
L 353.221779 205.986185 
L 352.85455 206.198264 
L 352.670936 206.092224 
L 352.580634 205.774106 
L 353.131477 205.668066 
L 352.764248 205.774106 
L 352.487321 205.986185 
L 352.85455 205.351076 
L 353.038165 205.032958 
L 352.670936 205.668066 
L 352.764248 205.668066 
L 353.131477 205.668066 
L 353.131477 205.880145 
L 352.764248 205.562027 
L 352.397019 205.138997 
L 352.670936 204.820879 
L 352.670936 205.032958 
L 352.487321 205.138997 
L 351.846176 205.245037 
L 351.478946 205.351076 
L 351.752863 204.926918 
L 351.111717 204.820879 
L 351.20202 204.926918 
L 351.295332 205.351076 
L 351.385634 205.245037 
L 351.385634 205.032958 
L 351.111717 204.714839 
L 351.20202 204.820879 
L 351.018405 204.926918 
L 350.928103 204.714839 
L 350.744488 204.714839 
L 350.651176 205.032958 
L 350.834791 205.032958 
L 350.744488 204.397849 
L 350.651176 204.50276 
L 350.283947 204.397849 
L 350.377259 204.50276 
L 350.283947 204.397849 
L 350.100333 204.50276 
L 350.01003 205.245037 
L 349.916718 205.138997 
L 350.01003 204.714839 
L 350.100333 204.714839 
L 349.916718 204.926918 
L 349.365874 205.032958 
L 349.091958 204.926918 
L 349.091958 205.032958 
L 349.275572 205.774106 
L 349.091958 205.138997 
L 348.815031 204.926918 
L 348.724729 205.032958 
L 348.080573 204.397849 
L 347.069188 203.655573 
L 346.518344 202.808385 
L 345.783886 201.961198 
L 341.47045 198.889438 
L 339.634305 197.407141 
L 333.391412 191.263621 
L 328.340507 187.238634 
L 323.289603 183.213647 
L 318.69924 179.08262 
L 313.834961 175.057633 
L 311.171045 172.620982 
L 308.693754 170.185459 
L 304.46761 165.207244 
L 297.306644 155.673846 
L 292.993208 150.59072 
L 290.880136 148.154069 
L 288.953689 145.611378 
L 285.738929 140.739203 
L 284.363326 138.40972 
L 282.891399 136.291187 
L 279.67965 132.16016 
L 278.394349 129.935587 
L 276.464891 126.122679 
L 274.445132 122.94488 
L 273.710674 121.462584 
L 272.885913 118.496863 
L 272.976216 117.543636 
L 273.069528 117.331557 
L 273.069528 117.331557 
L 273.343445 117.225517 
L 273.803986 117.437596 
L 273.803986 117.119478 
L 273.436757 116.37833 
L 273.253142 116.37833 
L 272.976216 115.954172 
L 273.069528 115.637182 
L 272.976216 115.000945 
L 271.690914 113.518649 
L 272.058143 113.094491 
L 271.967841 113.094491 
L 271.507299 113.20053 
L 271.323685 112.247303 
L 271.416997 112.353343 
L 271.323685 112.459382 
L 271.049768 112.353343 
L 270.956456 111.718234 
L 270.866154 111.823146 
L 270.956456 112.035224 
L 270.589227 111.294076 
L 270.498925 111.718234 
L 270.589227 111.823146 
L 270.498925 111.823146 
L 270.405612 111.823146 
L 270.405612 111.294076 
L 270.131696 111.188037 
L 270.498925 111.506155 
L 270.866154 111.506155 
L 270.682539 110.975958 
L 270.682539 110.975958 
L 271.323685 110.975958 
L 270.221998 110.869918 
L 270.589227 110.869918 
L 270.772841 110.763879 
L 270.866154 110.552928 
L 270.31531 110.658968 
L 270.221998 110.763879 
L 270.405612 110.658968 
L 271.14007 110.022731 
L 270.866154 110.022731 
L 270.589227 109.599701 
L 270.131696 109.281583 
L 269.948081 109.493662 
L 270.131696 109.599701 
L 270.405612 109.599701 
L 270.221998 109.175543 
L 270.866154 108.857425 
L 270.772841 108.857425 
L 270.589227 108.857425 
L 270.498925 108.646474 
L 270.589227 108.434395 
L 270.589227 108.540435 
L 271.14007 108.010237 
L 271.233383 107.693247 
L 271.233383 106.950971 
L 271.14007 107.375129 
L 270.866154 107.481168 
L 271.049768 107.269089 
L 270.956456 107.05701 
L 270.956456 107.16305 
L 270.956456 107.587208 
L 270.956456 107.587208 
L 271.416997 107.05701 
L 271.233383 107.375129 
L 271.323685 107.587208 
L 271.323685 107.587208 
L 271.507299 106.844931 
L 271.416997 106.844931 
L 271.233383 107.05701 
L 271.233383 106.844931 
L 271.323685 107.16305 
L 271.416997 107.481168 
L 271.784226 107.481168 
L 271.874528 107.16305 
L 271.874528 107.481168 
L 271.874528 107.587208 
L 271.784226 107.587208 
L 271.323685 107.16305 
L 271.690914 107.375129 
L 272.058143 107.269089 
L 271.784226 107.269089 
L 271.784226 106.844931 
L 271.874528 106.844931 
L 272.058143 106.74002 
L 271.784226 106.527941 
L 271.323685 106.421902 
L 271.874528 106.527941 
L 271.690914 106.527941 
L 271.14007 106.633981 
L 271.507299 106.209823 
L 271.600612 106.421902 
L 271.784226 106.315862 
L 272.058143 105.891704 
L 271.967841 105.891704 
L 272.518684 106.103783 
L 272.518684 105.997744 
L 272.33507 105.680753 
L 271.967841 106.103783 
L 272.151455 105.997744 
L 272.058143 105.044517 
L 272.058143 105.785665 
L 271.874528 105.574714 
L 271.967841 105.785665 
L 271.967841 105.997744 
L 272.058143 105.997744 
L 272.241757 105.785665 
L 272.151455 105.680753 
L 272.425372 105.891704 
L 272.241757 105.680753 
L 272.33507 105.362635 
L 272.518684 105.468675 
L 272.608987 105.680753 
L 272.792601 105.785665 
L 272.792601 105.680753 
L 272.885913 105.468675 
L 272.976216 105.574714 
L 272.976216 105.468675 
L 273.15983 105.574714 
L 272.702299 105.362635 
L 272.885913 105.362635 
L 272.976216 105.256596 
L 272.702299 105.044517 
L 272.885913 104.938477 
L 272.976216 105.150556 
L 273.069528 105.044517 
L 273.069528 104.832438 
L 272.976216 105.044517 
L 272.792601 104.938477 
L 272.792601 104.938477 
L 273.069528 104.832438 
L 273.15983 105.044517 
L 273.15983 105.150556 
L 273.253142 105.044517 
L 273.343445 105.044517 
L 273.15983 104.938477 
L 273.15983 104.727526 
L 273.436757 104.727526 
L 273.620371 104.938477 
L 273.620371 104.938477 
L 274.445132 104.832438 
L 276.190975 104.09129 
L 277.933808 103.98525 
L 278.85188 104.09129 
L 279.863265 104.409408 
L 282.066639 105.680753 
L 283.168326 106.315862 
L 285.555315 108.328356 
L 286.750314 109.599701 
L 287.942304 111.188037 
L 289.043991 112.882412 
L 290.329292 114.577915 
L 291.891521 116.166251 
L 295.196582 119.238011 
L 296.939415 121.038426 
L 298.959175 122.732801 
L 301.162549 124.110186 
L 303.182309 125.698521 
L 309.3349 131.419012 
L 313.925263 134.384732 
L 315.945022 136.079108 
L 317.781168 137.879522 
L 321.269843 141.79847 
L 329.168278 149.107296 
L 330.911111 150.59072 
L 335.962015 154.297589 
L 337.521233 155.568934 
L 338.806535 156.945191 
L 343.122981 162.453603 
L 343.857439 163.72382 
L 344.408283 165.101205 
L 344.775512 166.37255 
L 345.326355 168.914113 
L 345.693584 169.97338 
L 345.783886 171.244725 
L 345.50997 173.998367 
L 344.498585 178.658463 
L 344.408283 179.294699 
L 344.131356 180.141887 
L 343.764127 182.68345 
L 343.49021 183.954795 
L 343.122981 186.496358 
L 343.396898 186.708437 
L 343.580512 187.026555 
L 343.029669 189.886236 
L 343.122981 189.886236 
L 343.122981 189.992276 
L 343.029669 191.79269 
L 343.029669 191.686651 
L 342.846054 191.89873 
L 342.755752 192.322888 
L 342.939366 192.428927 
L 343.029669 193.276115 
L 342.755752 193.487066 
L 342.478825 193.699144 
L 342.295211 193.911223 
L 342.204908 195.182569 
L 342.204908 194.97049 
L 342.111596 195.076529 
L 341.927982 194.758411 
L 341.837679 194.546332 
L 341.837679 194.758411 
L 341.744367 194.97049 
L 341.654065 195.076529 
L 341.744367 194.86445 
L 341.654065 194.652371 
L 341.47045 194.86445 
L 341.103221 195.076529 
L 341.193523 195.182569 
L 341.377138 195.076529 
L 341.744367 194.335381 
L 341.654065 194.123302 
L 341.193523 194.229342 
L 341.103221 194.335381 
L 341.654065 194.440293 
L 341.744367 194.229342 
L 341.377138 193.593105 
L 341.286836 193.699144 
L 340.919607 193.805184 
L 340.735992 193.911223 
L 340.919607 193.593105 
L 340.919607 193.911223 
L 340.919607 193.487066 
L 340.919607 193.593105 
L 340.64268 193.170075 
L 341.009909 192.745917 
L 340.552378 193.382154 
L 340.368763 193.276115 
L 340.64268 192.639878 
L 340.735992 192.533838 
L 340.64268 193.064036 
L 340.185149 193.170075 
L 339.81792 192.957996 
L 339.724607 192.745917 
L 339.81792 192.639878 
L 339.724607 192.533838 
L 339.81792 192.745917 
L 340.091836 192.322888 
L 339.634305 192.851957 
L 339.357378 192.851957 
L 339.267076 192.533838 
L 339.357378 192.322888 
L 339.634305 192.639878 
L 339.634305 192.639878 
L 339.083462 192.745917 
L 338.990149 192.428927 
L 339.540993 192.428927 
L 339.634305 192.745917 
L 338.165389 192.322888 
L 338.255691 192.004769 
L 337.981774 192.957996 
L 337.888462 192.851957 
L 337.981774 192.428927 
L 338.165389 192.216848 
L 338.255691 192.639878 
L 338.072077 192.957996 
L 337.154004 192.957996 
L 337.154004 192.851957 
L 337.063702 192.745917 
L 336.880087 192.851957 
L 336.97039 192.745917 
L 337.063702 192.533838 
L 337.430931 192.639878 
L 336.603161 193.064036 
L 336.696473 193.276115 
L 337.063702 193.064036 
L 336.97039 192.957996 
L 336.512858 192.745917 
L 336.603161 192.639878 
L 336.329244 192.851957 
L 336.052317 192.851957 
L 336.052317 192.745917 
L 336.052317 192.533838 
L 336.145629 192.533838 
L 336.235932 192.639878 
L 336.052317 192.428927 
L 335.962015 192.110809 
L 335.962015 192.216848 
L 335.594786 192.533838 
L 335.227557 192.639878 
L 335.227557 192.533838 
L 335.227557 192.322888 
L 335.134244 192.745917 
L 335.043942 192.745917 
L 335.134244 192.639878 
L 335.411171 192.428927 
L 335.043942 192.110809 
L 334.95063 192.110809 
L 334.95063 192.216848 
L 334.676713 192.428927 
L 334.493099 192.428927 
L 334.493099 192.322888 
L 334.676713 192.216848 
L 334.767015 192.322888 
L 334.676713 192.428927 
L 334.493099 192.428927 
L 334.216172 191.686651 
L 333.942255 191.79269 
L 333.848943 192.110809 
L 333.942255 191.89873 
L 333.758641 191.686651 
L 333.481714 191.474572 
L 333.942255 191.157582 
L 333.848943 191.263621 
L 333.665328 191.686651 
L 333.575026 191.474572 
L 333.391412 191.369661 
L 333.298099 191.580611 
L 333.207797 191.474572 
L 332.93087 191.263621 
L 332.747256 191.263621 
L 332.840568 191.369661 
L 332.93087 191.474572 
L 332.840568 191.474572 
L 333.114485 191.051542 
L 332.93087 191.157582 
L 332.93087 191.051542 
L 332.93087 190.733424 
L 332.656954 190.627384 
L 331.922495 191.051542 
L 332.289724 190.733424 
L 332.473339 190.521345 
L 332.380027 190.521345 
L 332.10611 190.733424 
L 331.922495 191.051542 
L 332.012798 191.157582 
L 332.380027 191.263621 
L 331.829183 191.157582 
L 331.645569 190.733424 
L 331.645569 190.204355 
L 331.188037 190.733424 
L 331.371652 190.521345 
L 330.911111 190.204355 
L 330.820808 189.992276 
L 330.820808 190.098315 
L 329.993038 190.416434 
L 330.08635 190.416434 
L 330.360267 190.521345 
L 330.360267 190.733424 
L 330.360267 190.204355 
L 330.08635 190.098315 
L 330.176653 190.204355 
L 330.08635 190.204355 
L 329.902736 189.462078 
L 329.902736 189.886236 
L 329.351892 189.568118 
L 329.25858 189.674157 
L 329.351892 189.886236 
L 329.351892 189.568118 
L 329.442194 189.357167 
L 329.351892 189.357167 
L 328.707736 189.357167 
L 328.707736 189.251128 
L 328.891351 189.039049 
L 328.891351 188.508851 
L 329.168278 188.508851 
L 329.074965 188.614891 
L 328.707736 188.82697 
L 328.801049 188.82697 
L 328.891351 188.82697 
L 328.891351 188.933009 
L 328.707736 189.145088 
L 328.250205 189.251128 
L 328.801049 188.72093 
L 328.891351 188.508851 
L 328.801049 188.508851 
L 328.524122 188.82697 
L 328.156893 188.933009 
L 328.066591 188.82697 
L 328.340507 188.614891 
L 328.250205 188.72093 
L 328.250205 189.039049 
L 328.156893 189.039049 
L 328.066591 188.82697 
L 328.066591 188.933009 
L 328.066591 189.145088 
L 327.882976 189.145088 
L 327.422435 188.614891 
L 326.961893 188.40394 
L 327.145508 188.297901 
L 327.422435 188.297901 
L 327.332133 188.297901 
L 327.332133 188.508851 
L 327.332133 188.508851 
L 327.145508 188.508851 
L 326.871591 188.82697 
L 326.778279 188.72093 
L 326.871591 188.297901 
L 326.778279 188.085822 
L 326.594664 188.085822 
L 326.594664 187.979782 
L 326.594664 187.555624 
L 326.41105 187.555624 
L 325.953519 188.191861 
L 326.043821 188.614891 
L 326.043821 188.508851 
L 326.227435 188.191861 
L 326.137133 188.191861 
L 326.043821 188.191861 
L 326.043821 188.085822 
L 325.953519 187.979782 
L 325.492977 187.873743 
L 325.58629 188.191861 
L 325.676592 188.191861 
L 325.402675 188.297901 
L 324.942134 187.661664 
L 324.942134 187.661664 
L 325.125748 187.767703 
L 324.942134 187.767703 
L 324.758519 188.191861 
L 324.851832 188.191861 
L 324.758519 188.614891 
L 324.39129 188.508851 
L 324.574905 188.297901 
L 324.117373 188.72093 
L 324.39129 188.40394 
L 324.117373 188.297901 
L 324.117373 188.085822 
L 324.117373 188.085822 
L 323.840447 188.085822 
L 323.933759 188.191861 
L 324.117373 188.72093 
L 324.117373 188.72093 
L 323.56653 188.191861 
L 323.56653 188.085822 
L 323.199301 187.767703 
L 323.015686 187.873743 
L 323.015686 188.085822 
L 323.105989 188.085822 
L 323.199301 187.979782 
L 323.015686 187.873743 
L 322.648457 187.767703 
L 322.648457 187.661664 
L 323.105989 187.767703 
L 322.832072 187.555624 
L 322.73876 187.238634 
L 322.555145 187.344673 
L 322.73876 186.814476 
L 322.371531 186.496358 
L 322.648457 186.073328 
L 322.371531 185.438219 
L 322.371531 185.33218 
L 322.464843 185.438219 
L 322.648457 185.438219 
L 322.648457 185.33218 
L 322.464843 185.120101 
L 322.555145 184.908022 
L 322.922374 184.801983 
L 322.832072 184.695943 
L 322.922374 183.742716 
L 322.922374 183.636677 
L 322.832072 183.742716 
L 322.73876 183.742716 
L 322.464843 182.789489 
L 323.015686 182.366459 
L 323.105989 181.624183 
L 322.73876 181.095114 
L 322.73876 181.095114 
L 322.832072 180.883035 
L 322.73876 179.18866 
L 322.464843 178.552423 
L 321.913999 176.01086 
L 321.637072 174.633475 
L 321.453458 172.833061 
L 321.637072 168.385044 
L 321.453458 159.698833 
L 321.363156 153.873431 
L 321.269843 150.484681 
L 321.453458 147.094802 
L 321.820687 143.917003 
L 322.464843 140.951282 
L 322.922374 137.667443 
L 323.105989 134.172654 
L 323.473218 130.782775 
L 324.207676 127.394025 
L 325.219061 123.898107 
L 326.137133 120.191238 
L 326.778279 116.484369 
L 327.606049 109.599701 
L 328.984663 102.925984 
L 330.911111 95.935276 
L 332.10611 92.652565 
L 332.93087 89.474766 
L 334.216172 83.543324 
L 335.043942 80.577604 
L 338.899847 70.409097 
L 339.540993 68.078485 
L 340.64268 61.193816 
L 341.927982 55.050296 
L 342.295211 54.203109 
L 342.204908 53.886118 
L 342.295211 53.568 
L 342.572137 53.674039 
L 342.939366 54.627267 
L 343.396898 54.944257 
L 343.396898 54.839345 
L 343.396898 54.733306 
L 343.49021 54.733306 
L 343.764127 54.944257 
L 344.041054 54.944257 
L 343.857439 54.839345 
L 343.764127 54.627267 
L 344.131356 54.521227 
L 343.947741 54.415188 
L 343.857439 54.309148 
L 343.947741 54.309148 
L 343.764127 54.415188 
L 343.49021 54.309148 
L 343.580512 54.309148 
L 344.31497 53.886118 
L 344.131356 53.886118 
L 343.580512 53.886118 
L 344.041054 53.99103 
L 344.31497 54.415188 
L 344.31497 54.733306 
L 344.224668 54.733306 
L 344.131356 54.733306 
L 344.31497 54.733306 
L 344.31497 54.733306 
L 344.131356 55.156336 
L 343.947741 55.156336 
L 343.857439 54.944257 
L 343.947741 54.839345 
L 344.224668 55.368415 
L 344.131356 55.580494 
L 344.31497 55.792572 
L 344.408283 55.580494 
L 344.224668 55.368415 
L 344.408283 55.792572 
L 344.498585 55.686533 
L 344.498585 55.686533 
L 344.408283 56.109563 
L 344.31497 56.109563 
L 344.408283 56.533721 
L 344.591897 56.533721 
L 344.591897 56.003523 
L 344.498585 56.003523 
L 344.31497 56.533721 
L 344.775512 56.533721 
L 343.947741 56.63976 
L 343.857439 56.7458 
L 343.947741 56.95675 
L 343.857439 57.06279 
L 343.764127 56.95675 
L 343.857439 56.851839 
L 344.224668 56.7458 
L 343.764127 56.95675 
L 343.857439 57.168829 
L 343.764127 57.380908 
L 343.857439 57.274869 
L 343.947741 57.699027 
L 343.764127 58.122056 
L 343.764127 56.95675 
L 343.49021 57.168829 
L 343.396898 57.486948 
L 343.580512 58.122056 
L 343.396898 58.228096 
L 343.306595 58.228096 
L 343.49021 58.758293 
L 343.306595 58.969244 
L 343.49021 58.652254 
L 343.396898 58.758293 
L 343.122981 59.181323 
L 343.213283 59.075283 
L 343.396898 59.075283 
L 343.396898 59.181323 
L 343.306595 59.393402 
L 343.396898 59.181323 
L 343.580512 59.499441 
L 343.673824 59.393402 
L 343.673824 59.287362 
L 343.580512 59.393402 
L 343.122981 59.81756 
L 343.029669 59.393402 
L 342.846054 59.71152 
L 343.306595 59.81756 
L 343.396898 60.240589 
L 343.306595 60.452668 
L 342.939366 60.558708 
L 342.846054 60.981737 
L 342.939366 61.617974 
L 342.939366 61.087777 
L 343.213283 61.087777 
L 343.122981 60.981737 
L 342.755752 60.876826 
L 342.478825 60.981737 
L 342.66244 60.981737 
L 342.846054 60.981737 
L 342.66244 61.193816 
L 342.572137 61.511935 
L 342.66244 61.724014 
L 343.029669 61.934965 
L 342.846054 61.724014 
L 342.755752 61.299856 
L 342.846054 61.193816 
L 342.755752 61.299856 
L 342.478825 61.087777 
L 342.295211 61.299856 
L 342.204908 61.617974 
L 342.295211 61.617974 
L 342.388523 61.299856 
L 342.204908 61.830053 
L 342.021294 61.934965 
L 342.021294 61.724014 
L 341.927982 62.041004 
L 341.837679 62.147043 
L 342.204908 61.724014 
L 342.111596 61.830053 
L 342.295211 61.934965 
L 342.204908 61.934965 
L 342.021294 61.934965 
L 341.560753 62.253083 
L 341.286836 62.041004 
L 341.47045 62.041004 
L 341.193523 61.934965 
L 340.275451 61.405895 
L 339.540993 60.981737 
L 337.247316 60.13455 
L 335.594786 59.922471 
L 331.555266 58.864333 
L 326.41105 57.805066 
L 320.995927 56.95675 
L 318.515626 56.321642 
L 315.945022 55.898612 
L 313.284117 55.580494 
L 307.592067 55.156336 
L 304.651225 55.050296 
L 293.544051 55.368415 
L 281.69941 55.368415 
L 277.292662 55.686533 
L 273.069528 55.686533 
L 271.049768 55.898612 
L 267.377478 56.63976 
L 265.908562 56.63976 
L 264.529948 56.427681 
L 261.77573 56.321642 
L 258.377356 55.792572 
L 257.826513 55.898612 
L 257.275669 56.215602 
L 256.267295 56.533721 
L 256.450909 56.533721 
L 256.724826 56.7458 
L 256.724826 57.911105 
L 257.368982 58.122056 
L 257.368982 58.440175 
L 257.185367 58.440175 
L 257.552596 58.546214 
L 257.552596 58.652254 
L 257.459284 58.652254 
L 257.275669 58.758293 
L 257.552596 59.499441 
L 257.368982 59.81756 
L 257.552596 59.81756 
L 257.919825 59.393402 
L 257.368982 59.499441 
L 257.368982 59.605481 
L 257.642898 59.922471 
L 257.642898 60.13455 
L 257.001753 60.558708 
L 257.092055 60.770787 
L 257.459284 60.770787 
L 257.552596 61.193816 
L 257.185367 61.299856 
L 257.368982 61.724014 
L 257.459284 61.724014 
L 257.275669 62.041004 
L 257.459284 61.617974 
L 257.642898 61.830053 
L 257.552596 62.359122 
L 257.368982 62.253083 
L 257.275669 62.359122 
L 257.368982 62.571201 
L 257.275669 62.465162 
L 257.092055 62.465162 
L 256.818138 63.20631 
L 257.001753 63.842547 
L 256.818138 64.053498 
L 256.90844 64.900685 
L 257.092055 65.112764 
L 257.001753 65.324843 
L 256.724826 65.430882 
L 256.90844 65.430882 
L 256.90844 65.536922 
L 256.541211 66.172031 
L 256.90844 66.27807 
L 256.634524 66.808267 
L 256.267295 66.808267 
L 255.990368 67.231297 
L 256.08368 67.337336 
L 255.900066 67.972445 
L 255.806753 68.290564 
L 255.165607 68.608682 
L 255.25591 69.137751 
L 255.532837 69.243791 
L 255.716451 69.45587 
L 255.532837 69.45587 
L 254.981993 69.773988 
L 255.072295 70.197018 
L 254.981993 70.197018 
L 254.981993 70.090978 
L 255.349222 69.667948 
L 255.349222 69.878899 
L 255.25591 70.197018 
L 255.439524 70.621175 
L 255.532837 70.621175 
L 255.439524 70.727215 
L 255.25591 71.044205 
L 255.25591 71.574403 
L 254.154223 74.009926 
L 253.23615 76.975646 
L 253.052536 78.353031 
L 252.962233 80.047406 
L 253.145848 82.271979 
L 253.145848 84.919581 
L 252.685306 90.215914 
L 252.962233 97.52474 
L 252.868921 100.278381 
L 252.962233 102.819944 
L 253.23615 105.256596 
L 254.614764 113.30657 
L 255.072295 116.37833 
L 255.900066 125.169452 
L 256.541211 127.923094 
L 257.368982 130.888815 
L 259.111815 138.197641 
L 259.75597 140.104095 
L 261.224887 143.600013 
L 261.866032 145.611378 
L 263.154344 151.437908 
L 265.357718 158.004458 
L 265.908562 160.016951 
L 266.182478 161.817366 
L 267.928321 168.595995 
L 268.018624 172.197952 
L 267.928321 174.845554 
L 267.284166 180.460005 
L 267.193863 182.68345 
L 266.826634 186.285407 
L 267.193863 189.039049 
L 266.64302 191.369661 
L 266.733322 192.110809 
L 267.193863 193.487066 
L 267.377478 194.97049 
L 267.193863 195.817677 
L 267.284166 196.558826 
L 267.46778 197.089023 
L 267.46778 197.830171 
L 267.651395 198.360368 
L 267.928321 198.677359 
L 268.018624 198.995477 
L 267.651395 200.054743 
L 267.651395 201.431 
L 267.928321 202.279316 
L 267.744707 202.490267 
L 267.651395 202.808385 
L 267.651395 203.549533 
L 268.018624 203.655573 
L 268.018624 204.18577 
L 267.46778 204.50276 
L 267.46778 204.397849 
L 267.46778 204.29181 
L 267.561092 204.397849 
L 267.744707 204.6088 
L 267.744707 204.714839 
L 268.29555 204.820879 
L 268.29555 205.351076 
L 268.385853 205.351076 
L 268.479165 205.351076 
L 268.385853 205.351076 
L 268.662779 205.774106 
L 268.753082 205.774106 
L 268.662779 205.880145 
L 268.662779 206.198264 
L 268.111936 206.198264 
L 268.202238 206.409214 
L 268.385853 206.409214 
L 268.385853 206.515254 
L 268.662779 206.939412 
L 268.846394 206.939412 
L 269.120311 206.727333 
L 269.120311 206.833372 
L 268.569467 207.25753 
L 268.569467 207.468481 
L 269.030008 207.68056 
L 269.030008 207.468481 
L 269.120311 207.68056 
L 269.48754 208.421708 
L 269.397238 208.421708 
L 269.303925 208.527747 
L 269.303925 208.739826 
L 269.397238 208.316797 
L 269.764467 208.316797 
L 270.131696 207.892639 
L 269.948081 208.104718 
L 269.948081 208.739826 
L 270.038383 208.210757 
L 270.31531 208.210757 
L 270.31531 208.210757 
L 270.31531 207.998678 
L 270.221998 208.421708 
L 270.131696 208.633787 
L 270.038383 208.421708 
L 270.221998 208.210757 
L 270.589227 208.316797 
L 270.498925 208.421708 
L 270.31531 208.316797 
L 270.221998 208.421708 
L 270.589227 208.421708 
L 270.589227 208.316797 
L 270.405612 208.210757 
L 270.131696 208.739826 
L 269.764467 208.421708 
L 268.018624 207.998678 
L 263.428261 207.57452 
L 261.408501 207.151491 
L 259.021512 206.515254 
L 253.23615 205.668066 
L 250.114703 205.455987 
L 242.496206 205.562027 
L 234.414157 205.880145 
L 230.46795 205.986185 
L 217.06108 206.939412 
L 208.614812 207.36357 
L 195.578182 208.739826 
L 174.001971 209.799093 
L 165.372089 210.117211 
L 161.332569 210.540241 
L 157.476665 211.070438 
L 153.894677 211.387429 
L 146.182867 211.705547 
L 139.205515 211.811586 
L 128.552863 212.235744 
L 123.595271 212.976892 
L 123.228042 213.082932 
L 123.411657 212.976892 
L 123.688584 213.082932 
L 123.9625 213.399922 
L 124.423042 213.505962 
L 125.431416 213.082932 
L 126.075572 213.295011 
L 126.349489 213.505962 
L 127.267562 212.870853 
L 127.360874 212.976892 
L 127.360874 213.295011 
L 127.177259 213.718041 
L 126.900333 214.142198 
L 126.993645 214.248238 
L 127.083947 213.718041 
L 127.177259 213.612001 
L 127.177259 213.718041 
L 127.634791 214.036159 
L 127.728103 214.354277 
L 127.360874 214.459189 
L 127.451176 214.354277 
L 128.00202 214.248238 
L 128.00202 214.459189 
L 128.00202 214.565228 
L 128.00202 214.459189 
L 128.278946 214.248238 
L 128.185634 214.354277 
L 128.646176 214.989386 
L 128.369249 214.883346 
L 128.278946 215.518455 
L 128.369249 214.671268 
L 128.462561 215.518455 
L 128.646176 215.201465 
L 128.646176 215.201465 
L 128.736478 215.518455 
L 128.552863 215.624495 
L 128.462561 215.518455 
L 128.646176 215.412416 
L 129.103707 215.307504 
L 129.470936 215.518455 
L 128.82979 215.730534 
L 128.736478 215.624495 
L 129.470936 215.730534 
L 129.747863 215.624495 
L 129.65455 215.624495 
L 129.013405 215.518455 
L 129.013405 215.730534 
L 129.470936 215.942613 
L 129.470936 215.624495 
L 129.564248 215.624495 
L 129.65455 215.518455 
L 129.470936 215.201465 
L 129.65455 215.518455 
L 129.65455 215.412416 
L 129.470936 215.624495 
L 129.197019 215.836574 
L 129.287321 216.154692 
L 129.470936 216.260731 
L 129.747863 216.154692 
L 130.021779 216.260731 
L 129.747863 216.683761 
L 129.747863 216.789801 
L 129.65455 216.683761 
L 129.380634 216.683761 
L 129.470936 216.89584 
L 129.747863 216.89584 
L 129.197019 217.001879 
L 128.82979 217.107919 
L 128.736478 217.001879 
L 128.920092 216.789801 
L 128.646176 216.577722 
L 128.736478 216.577722 
L 128.920092 216.471682 
L 129.013405 216.789801 
L 128.736478 216.89584 
L 128.646176 217.001879 
L 128.82979 216.89584 
L 128.920092 216.89584 
L 128.82979 217.530949 
L 128.736478 217.743028 
L 128.552863 217.530949 
L 128.462561 217.213958 
L 128.646176 217.213958 
L 128.00202 217.107919 
L 128.185634 217.001879 
L 128.646176 217.213958 
L 128.646176 217.319998 
L 128.369249 217.107919 
L 128.369249 217.107919 
L 128.095332 217.424909 
L 128.369249 217.001879 
L 128.369249 217.001879 
L 128.278946 217.001879 
L 127.911717 216.471682 
L 127.634791 217.319998 
L 127.634791 217.530949 
L 127.544488 217.107919 
L 127.544488 217.213958 
L 127.267562 217.319998 
L 127.267562 216.89584 
L 127.083947 216.683761 
L 127.177259 216.89584 
L 127.177259 217.107919 
L 126.993645 217.213958 
L 126.81003 216.89584 
L 126.993645 216.577722 
L 127.267562 216.577722 
L 126.993645 216.471682 
L 127.360874 216.154692 
L 127.544488 216.260731 
L 127.451176 216.365643 
L 127.818405 216.048652 
L 128.095332 216.471682 
L 128.369249 216.789801 
L 128.278946 216.789801 
L 127.728103 216.89584 
L 127.728103 217.107919 
L 128.095332 217.213958 
L 128.369249 217.001879 
L 128.185634 216.789801 
L 128.185634 217.001879 
L 128.278946 216.683761 
L 128.095332 216.789801 
L 127.728103 216.048652 
L 127.634791 216.048652 
L 127.634791 216.154692 
L 127.177259 216.683761 
L 127.083947 217.001879 
L 127.267562 216.471682 
L 127.267562 216.683761 
L 127.177259 217.213958 
L 126.81003 217.319998 
L 126.442801 217.107919 
L 126.259187 216.789801 
L 126.259187 216.789801 
L 126.626416 216.89584 
L 126.533104 217.001879 
L 126.442801 217.213958 
L 126.442801 217.213958 
L 126.259187 217.001879 
L 126.259187 217.001879 
L 126.259187 216.89584 
L 126.165874 216.89584 
L 125.708343 217.213958 
L 125.798645 217.319998 
L 125.798645 217.319998 
L 125.524729 217.424909 
L 125.798645 217.213958 
L 125.98226 217.107919 
L 125.891958 217.319998 
L 125.524729 217.530949 
L 124.606656 217.743028 
L 124.790271 217.955107 
L 125.064187 217.849067 
L 125.341114 217.530949 
L 125.247802 217.213958 
L 125.064187 217.213958 
L 124.513344 217.636988 
L 124.696958 217.424909 
L 124.790271 217.213958 
L 124.696958 217.213958 
L 124.513344 217.319998 
L 124.606656 217.213958 
L 124.513344 216.789801 
L 124.329729 216.577722 
L 124.146115 216.577722 
L 124.239427 216.471682 
L 124.239427 216.260731 
L 123.778886 216.048652 
L 123.778886 214.777307 
L 123.595271 214.671268 
L 123.321355 214.036159 
L 123.228042 213.82408 
L 122.770511 213.930119 
L 122.770511 213.718041 
L 122.770511 213.612001 
L 122.954126 213.718041 
L 123.13774 213.612001 
L 123.228042 213.188971 
L 122.860813 212.764813 
L 122.677199 213.082932 
L 122.860813 213.188971 
L 122.586896 212.976892 
L 122.493584 213.082932 
L 121.391897 213.399922 
L 121.11798 213.295011 
L 121.024668 213.505962 
L 120.934366 214.248238 
L 120.567137 214.565228 
L 121.11798 214.142198 
L 123.504969 214.036159 
L 126.259187 213.505962 
L 129.931477 212.764813 
L 135.256298 212.023665 
L 142.326962 210.64628 
L 146.089555 210.117211 
L 150.038772 209.376063 
L 154.261906 208.421708 
L 158.761966 207.57452 
L 168.493536 205.986185 
L 173.267513 205.032958 
L 193.558422 202.067237 
L 203.840835 201.11401 
L 219.357767 199.842665 
L 239.371749 199.630586 
L 258.377356 200.795892 
L 267.377478 201.220049 
L 271.784226 201.643079 
L 275.823746 202.385355 
L 282.52417 204.18577 
L 288.770074 205.455987 
L 290.973448 206.304303 
L 292.442364 207.25753 
L 294.462124 208.951905 
L 294.829353 209.587014 
L 295.196582 210.858359 
L 295.196582 211.282517 
L 293.817968 214.142198 
L 293.450739 215.942613 
L 293.176822 216.154692 
L 292.993208 216.577722 
L 292.899896 217.955107 
L 292.809593 219.649482 
L 293.176822 222.192173 
L 293.544051 222.827281 
L 293.634354 223.568429 
L 293.727666 224.098627 
L 293.634354 225.263933 
L 293.634354 225.899041 
L 293.91128 226.640189 
L 293.817968 227.064347 
L 293.91128 228.229653 
L 293.817968 228.652683 
L 293.544051 229.076841 
L 293.634354 230.030068 
L 293.817968 230.771216 
L 293.634354 232.25464 
L 293.360437 232.889749 
L 293.450739 233.418818 
L 293.727666 233.842976 
L 294.094895 234.267134 
L 294.27851 234.796203 
L 294.27851 235.431312 
L 294.645739 236.596618 
L 294.645739 237.126815 
L 294.368812 237.974003 
L 294.919655 238.715151 
L 295.10327 238.609111 
L 295.10327 239.986496 
L 295.380197 240.409526 
L 295.380197 241.574832 
L 295.747426 241.99899 
L 295.747426 242.211069 
L 295.563811 242.528059 
L 296.114655 242.634098 
L 296.481884 242.952217 
L 296.572186 243.799404 
L 296.388571 244.646592 
L 296.481884 244.858671 
L 296.298269 245.49378 
L 296.388571 245.917937 
L 297.032727 246.765125 
L 296.849113 247.294194 
L 296.849113 248.353461 
L 296.939415 248.353461 
L 297.123029 248.56554 
L 297.032727 249.095737 
L 297.306644 249.201776 
L 297.673873 249.518767 
L 297.9508 250.048964 
L 298.041102 250.578033 
L 297.583571 251.21427 
L 297.673873 251.6373 
L 298.041102 252.061457 
L 298.77556 253.649793 
L 298.591946 254.60302 
L 298.318029 255.027178 
L 298.501643 255.344168 
L 298.685258 256.721553 
L 298.408331 257.145711 
L 297.9508 257.462701 
L 297.767185 257.78082 
L 298.041102 258.415928 
L 297.9508 259.052165 
L 297.767185 259.263116 
L 297.673873 259.158205 
L 297.673873 259.158205 
L 297.673873 259.475195 
L 297.490259 259.899353 
L 297.216342 260.005392 
L 297.216342 259.899353 
L 297.399956 260.216343 
L 297.490259 260.640501 
L 297.490259 260.640501 
L 297.9508 260.74654 
L 298.041102 260.958619 
L 297.490259 262.123925 
L 297.857488 262.865073 
L 297.490259 263.500182 
L 297.123029 263.712261 
L 296.298269 264.983606 
L 296.298269 265.300597 
L 296.481884 265.512676 
L 296.665498 265.936833 
L 296.388571 266.784021 
L 296.204957 267.31309 
L 296.298269 267.737248 
L 296.114655 268.055366 
L 295.837728 268.266317 
L 295.654113 268.902554 
L 295.470499 269.114633 
L 295.380197 269.855781 
L 295.10327 269.855781 
L 295.012968 270.172771 
L 294.919655 271.444117 
L 294.27851 272.397344 
L 293.727666 272.715462 
L 293.450739 274.197759 
L 293.544051 274.515877 
L 293.267125 274.940035 
L 292.993208 275.363064 
L 292.899896 275.787222 
L 292.993208 276.846489 
L 292.349052 277.269519 
L 292.25875 277.163479 
L 292.349052 276.952528 
L 292.165438 276.846489 
L 291.707906 277.269519 
L 291.614594 277.269519 
L 291.614594 276.952528 
L 291.891521 276.846489 
L 292.075135 277.058568 
L 292.165438 278.117834 
L 292.25875 278.222746 
L 291.891521 278.222746 
L 291.430979 278.434825 
L 291.247365 278.646903 
L 291.340677 279.071061 
L 291.524292 279.388052 
L 291.524292 279.388052 
L 291.06375 279.282012 
L 290.789834 279.70617 
L 290.696521 280.024288 
L 290.880136 280.130328 
L 290.880136 280.130328 
L 290.329292 280.553358 
L 290.23899 280.765436 
L 289.778449 281.083555 
L 289.688147 281.718664 
L 289.504532 281.718664 
L 289.504532 281.824703 
L 289.688147 282.141693 
L 289.504532 281.930742 
L 289.41122 282.141693 
L 289.41122 282.671891 
L 288.953689 282.247733 
L 288.953689 282.671891 
L 288.860376 282.565851 
L 288.493147 282.671891 
L 288.58646 282.883969 
L 288.402845 282.247733 
L 288.402845 282.141693 
L 288.58646 282.036782 
L 288.676762 281.824703 
L 288.676762 281.824703 
L 288.21923 281.612624 
L 287.852001 281.824703 
L 287.852001 281.718664 
L 287.852001 281.294506 
L 287.942304 281.400545 
L 288.035616 281.400545 
L 287.575075 281.506585 
L 287.758689 281.400545 
L 287.575075 280.977515 
L 287.207846 280.553358 
L 286.933929 280.765436 
L 287.117543 280.871476 
L 286.840617 280.659397 
L 286.840617 280.871476 
L 286.750314 280.977515 
L 286.750314 280.977515 
L 286.750314 280.765436 
L 286.383085 280.659397 
L 286.5667 280.659397 
L 286.5667 280.447318 
L 286.473388 280.447318 
L 286.289773 280.447318 
L 286.199471 280.235239 
L 286.383085 280.130328 
L 286.5667 280.235239 
L 286.289773 280.130328 
L 286.106159 280.130328 
L 286.106159 280.024288 
L 286.383085 279.812209 
L 286.289773 279.918249 
L 286.199471 280.130328 
L 286.289773 280.024288 
L 286.473388 279.812209 
L 286.5667 279.494091 
L 286.473388 278.117834 
L 285.922544 278.222746 
L 286.106159 277.269519 
L 285.648627 277.058568 
L 285.832242 276.952528 
L 286.199471 277.058568 
L 286.199471 277.269519 
L 286.106159 277.163479 
L 286.015856 276.952528 
L 285.922544 277.058568 
L 286.015856 277.375558 
L 285.922544 277.375558 
L 285.648627 276.952528 
L 285.465013 276.846489 
L 285.281398 277.058568 
L 284.453628 277.481597 
L 284.54694 277.375558 
L 284.270013 276.952528 
L 284.453628 277.375558 
L 284.54694 277.693676 
L 284.453628 277.693676 
L 284.270013 277.375558 
L 284.086399 277.481597 
L 283.809472 277.905755 
L 283.71917 277.799716 
L 283.71917 277.799716 
L 283.351941 277.905755 
L 283.351941 277.693676 
L 283.535555 277.587637 
L 283.442243 276.952528 
L 283.258628 276.952528 
L 282.707785 277.693676 
L 282.707785 277.799716 
L 283.168326 277.799716 
L 283.075014 277.905755 
L 282.433868 278.011795 
L 282.52417 277.799716 
L 282.340556 278.222746 
L 282.066639 278.328785 
L 281.973327 278.222746 
L 282.156941 278.117834 
L 282.250254 278.222746 
L 282.156941 278.540864 
L 281.883025 278.965022 
L 281.332181 279.071061 
L 280.964952 279.282012 
L 280.87164 279.175973 
L 281.055254 278.858982 
L 280.964952 279.175973 
L 280.87164 279.60013 
L 280.688025 279.494091 
L 280.320796 279.494091 
L 280.414109 279.812209 
L 280.230494 278.965022 
L 280.137182 278.858982 
L 280.230494 278.646903 
L 280.230494 278.540864 
L 280.137182 278.646903 
L 279.863265 278.646903 
L 279.67965 278.434825 
L 280.046879 277.587637 
L 279.769953 276.952528 
L 279.402724 276.740449 
L 279.035495 276.846489 
L 279.128807 276.740449 
L 279.035495 275.893262 
L 278.945192 275.681183 
L 278.577963 275.469104 
L 278.577963 275.575143 
L 278.484651 275.787222 
L 278.668266 275.575143 
L 278.761578 275.787222 
L 278.484651 275.681183 
L 278.210734 275.575143 
L 278.394349 275.257025 
L 278.301037 275.046074 
L 278.117422 274.940035 
L 278.02712 275.257025 
L 277.843505 275.363064 
L 277.843505 275.363064 
L 278.02712 275.469104 
L 278.02712 275.681183 
L 277.843505 275.787222 
L 277.566578 275.469104 
L 277.382964 275.046074 
L 277.476276 275.046074 
L 277.659891 275.046074 
L 277.015735 274.940035 
L 277.015735 275.046074 
L 277.109047 275.363064 
L 277.292662 275.575143 
L 277.199349 275.469104 
L 276.648506 275.363064 
L 276.83212 275.152114 
L 277.476276 275.575143 
L 277.109047 275.257025 
L 276.925433 274.727956 
L 276.558204 274.833995 
L 276.281277 275.152114 
L 276.281277 275.469104 
L 276.190975 275.363064 
L 276.097662 275.257025 
L 276.097662 275.363064 
L 276.190975 275.787222 
L 276.190975 275.787222 
L 276.00736 275.893262 
L 275.823746 276.422331 
L 276.097662 276.952528 
L 276.097662 276.952528 
L 275.914048 276.952528 
L 275.546819 277.163479 
L 275.089288 277.799716 
L 274.995975 277.693676 
L 275.089288 277.481597 
L 275.272902 277.481597 
L 275.17959 278.011795 
L 275.089288 278.222746 
L 274.995975 278.117834 
L 274.995975 277.587637 
L 274.628746 277.587637 
L 274.628746 276.740449 
L 274.905673 276.422331 
L 274.905673 276.210252 
L 274.628746 275.787222 
L 274.261517 275.469104 
L 273.803986 275.575143 
L 273.803986 275.681183 
L 273.253142 275.575143 
L 272.702299 275.046074 
L 272.425372 275.152114 
L 272.518684 275.469104 
L 271.233383 275.893262 
L 271.416997 275.787222 
L 271.233383 275.893262 
L 270.682539 276.210252 
L 270.131696 276.63441 
L 270.221998 277.058568 
L 270.221998 276.952528 
L 268.936696 276.210252 
L 268.569467 275.363064 
L 268.662779 274.940035 
L 269.030008 274.833995 
L 269.030008 274.833995 
L 268.936696 274.621916 
L 268.202238 274.303798 
L 268.202238 274.303798 
L 268.111936 274.303798 
L 268.111936 274.197759 
L 268.385853 273.774729 
L 268.29555 273.880768 
L 268.385853 273.880768 
L 268.479165 273.350571 
L 268.753082 273.45661 
L 269.213623 273.880768 
L 269.580852 273.668689 
L 269.213623 272.927541 
L 269.303925 272.609423 
L 270.038383 271.338077 
L 270.038383 270.809008 
L 269.764467 269.537663 
L 269.671154 269.008594 
L 269.854769 268.055366 
L 269.764467 266.784021 
L 270.131696 265.830794 
L 270.221998 265.618715 
L 270.038383 265.406636 
L 269.948081 264.665488 
L 270.221998 263.500182 
L 270.405612 263.077152 
L 270.405612 262.759034 
L 270.131696 262.123925 
L 270.038383 261.381649 
L 269.764467 260.958619 
L 268.29555 259.793313 
L 267.284166 259.158205 
L 265.908562 258.521968 
L 261.77573 257.039672 
L 258.654283 256.192484 
L 255.072295 255.027178 
L 251.400005 253.543754 
L 247.637412 251.743339 
L 243.781507 250.155003 
L 235.425542 248.03647 
L 226.244816 246.236056 
L 216.877466 245.07075 
L 212.196801 244.646592 
L 199.343784 244.011483 
L 176.021731 243.905444 
L 167.024619 243.799404 
L 132.869309 243.905444 
L 121.852438 244.858671 
L 115.976774 245.811898 
L 108.90611 246.765125 
L 107.069965 247.294194 
L 103.487977 248.671579 
L 102.569904 248.777619 
L 101.651832 249.095737 
L 101.745144 249.730846 
L 102.019061 249.942924 
L 102.38629 250.048964 
L 104.132133 249.730846 
L 105.324122 250.259915 
L 105.601049 250.259915 
L 105.601049 249.942924 
L 105.050205 249.306688 
L 104.773278 249.518767 
L 104.03882 249.306688 
L 103.764904 249.518767 
L 103.855206 249.730846 
L 104.222435 249.730846 
L 104.03882 249.518767 
L 104.132133 249.201776 
L 104.866591 248.671579 
L 104.866591 249.095737 
L 104.866591 248.671579 
L 104.682976 248.14251 
L 104.132133 247.824391 
L 104.03882 248.03647 
L 104.132133 248.671579 
L 103.764904 248.247421 
L 103.671591 248.353461 
L 103.764904 248.4595 
L 103.764904 248.671579 
L 103.397674 249.095737 
L 103.21406 248.883658 
L 103.304362 249.095737 
L 103.21406 249.412727 
L 103.030445 248.671579 
L 103.21406 248.56554 
L 103.487977 248.777619 
L 103.397674 249.095737 
L 103.304362 249.201776 
L 103.397674 249.412727 
L 103.397674 249.942924 
L 103.487977 249.836885 
L 103.581289 250.259915 
L 103.581289 250.259915 
L 102.569904 249.624806 
L 102.569904 249.624806 
L 102.479602 249.942924 
L 101.928758 249.730846 
L 101.835446 249.942924 
L 101.928758 250.471994 
L 102.112373 250.578033 
L 102.479602 250.471994 
L 102.38629 250.790112 
L 102.479602 252.272408 
L 102.753519 253.437714 
L 102.663216 253.649793 
L 102.479602 253.755833 
L 102.38629 254.073951 
L 102.479602 254.073951 
L 102.753519 254.60302 
L 102.663216 254.60302 
L 102.38629 254.496981 
L 101.745144 254.284902 
L 101.651832 254.073951 
L 101.284603 253.861872 
L 101.100988 253.967912 
L 100.643457 254.60302 
L 99.908999 254.70906 
L 99.174541 254.921139 
L 99.174541 254.921139 
L 99.081228 255.238129 
L 98.256468 257.356662 
L 98.34677 257.67478 
L 97.889239 260.534461 
L 97.979541 260.85258 
L 97.889239 261.27561 
L 97.154781 262.228837 
L 96.787552 264.136419 
L 96.603937 264.559449 
L 96.603937 265.194557 
L 96.420323 265.406636 
L 96.053094 266.148912 
L 95.869479 266.359863 
L 95.041709 266.784021 
L 94.951407 267.737248 
L 94.858094 268.478396 
L 94.67448 268.690475 
L 94.123636 269.008594 
L 93.482491 269.537663 
L 93.205564 270.06786 
L 92.748033 272.080354 
L 92.471106 272.715462 
L 91.82996 273.45661 
L 91.646345 273.986808 
L 91.276106 276.210252 
L 90.084117 277.163479 
L 89.900502 277.587637 
L 89.533273 278.011795 
L 87.880743 279.175973 
L 87.603816 279.071061 
L 87.052972 279.70617 
L 85.951285 282.141693 
L 85.584056 282.459812 
L 85.216827 282.883969 
L 84.942911 283.20096 
L 84.575682 283.943236 
L 84.392067 284.154187 
L 84.298755 284.578345 
L 84.575682 285.319493 
L 84.482369 285.531572 
L 84.208452 285.531572 
L 83.473994 285.95573 
L 82.278995 287.438026 
L 81.454235 287.650105 
L 81.087006 288.815411 
L 80.719777 289.556559 
L 80.44285 290.509786 
L 80.168933 290.933944 
L 79.801704 291.144895 
L 79.157548 291.356973 
L 79.341163 292.098122 
L 79.157548 292.204161 
L 76.77056 292.3102 
L 76.403331 292.628319 
L 75.668872 292.522279 
L 75.027727 291.887171 
L 74.7508 291.887171 
L 74.844112 292.628319 
L 75.118029 292.946437 
L 74.934414 292.840398 
L 74.476883 292.628319 
L 74.199956 292.628319 
L 74.293269 292.734358 
L 74.7508 293.052477 
L 74.844112 293.263428 
L 74.660498 293.581546 
L 74.567185 294.110615 
L 74.293269 294.322694 
L 74.109654 294.428733 
L 73.832727 295.06497 
L 74.016342 295.488 
L 74.016342 295.488 
" style="fill:none;stroke:#1f77b4;stroke-linecap:square;stroke-width:1.5;"/>
   </g>
   <g id="matplotlib.axis_1">
    <g id="xtick_1">
     <g id="line2d_2">
      <defs>
       <path d="M 0 0 
L 0 3.5 
" id="mc3f169bdfb" style="stroke:#000000;stroke-width:0.8;"/>
      </defs>
      <g>
       <use style="stroke:#000000;stroke-width:0.8;" x="102.717398" xlink:href="#mc3f169bdfb" y="307.584"/>
      </g>
     </g>
     <g id="text_1">
      <!-- 200 -->
      <defs>
       <path d="M 10.59375 35.5 
L 73.1875 35.5 
L 73.1875 27.203125 
L 10.59375 27.203125 
z
" id="DejaVuSans-8722"/>
       <path d="M 19.1875 8.296875 
L 53.609375 8.296875 
L 53.609375 0 
L 7.328125 0 
L 7.328125 8.296875 
Q 12.9375 14.109375 22.625 23.890625 
Q 32.328125 33.6875 34.8125 36.53125 
Q 39.546875 41.84375 41.421875 45.53125 
Q 43.3125 49.21875 43.3125 52.78125 
Q 43.3125 58.59375 39.234375 62.25 
Q 35.15625 65.921875 28.609375 65.921875 
Q 23.96875 65.921875 18.8125 64.3125 
Q 13.671875 62.703125 7.8125 59.421875 
L 7.8125 69.390625 
Q 13.765625 71.78125 18.9375 73 
Q 24.125 74.21875 28.421875 74.21875 
Q 39.75 74.21875 46.484375 68.546875 
Q 53.21875 62.890625 53.21875 53.421875 
Q 53.21875 48.921875 51.53125 44.890625 
Q 49.859375 40.875 45.40625 35.40625 
Q 44.1875 33.984375 37.640625 27.21875 
Q 31.109375 20.453125 19.1875 8.296875 
z
" id="DejaVuSans-50"/>
       <path d="M 31.78125 66.40625 
Q 24.171875 66.40625 20.328125 58.90625 
Q 16.5 51.421875 16.5 36.375 
Q 16.5 21.390625 20.328125 13.890625 
Q 24.171875 6.390625 31.78125 6.390625 
Q 39.453125 6.390625 43.28125 13.890625 
Q 47.125 21.390625 47.125 36.375 
Q 47.125 51.421875 43.28125 58.90625 
Q 39.453125 66.40625 31.78125 66.40625 
z
M 31.78125 74.21875 
Q 44.046875 74.21875 50.515625 64.515625 
Q 56.984375 54.828125 56.984375 36.375 
Q 56.984375 17.96875 50.515625 8.265625 
Q 44.046875 -1.421875 31.78125 -1.421875 
Q 19.53125 -1.421875 13.0625 8.265625 
Q 6.59375 17.96875 6.59375 36.375 
Q 6.59375 54.828125 13.0625 64.515625 
Q 19.53125 74.21875 31.78125 74.21875 
z
" id="DejaVuSans-48"/>
      </defs>
      <g transform="translate(88.983804 322.182437)scale(0.1 -0.1)">
       <use xlink:href="#DejaVuSans-8722"/>
       <use x="83.789062" xlink:href="#DejaVuSans-50"/>
       <use x="147.412109" xlink:href="#DejaVuSans-48"/>
       <use x="211.035156" xlink:href="#DejaVuSans-48"/>
      </g>
     </g>
    </g>
    <g id="xtick_2">
     <g id="line2d_3">
      <g>
       <use style="stroke:#000000;stroke-width:0.8;" x="162.918879" xlink:href="#mc3f169bdfb" y="307.584"/>
      </g>
     </g>
     <g id="text_2">
      <!-- 0 -->
      <g transform="translate(159.737629 322.182437)scale(0.1 -0.1)">
       <use xlink:href="#DejaVuSans-48"/>
      </g>
     </g>
    </g>
    <g id="xtick_3">
     <g id="line2d_4">
      <g>
       <use style="stroke:#000000;stroke-width:0.8;" x="223.120359" xlink:href="#mc3f169bdfb" y="307.584"/>
      </g>
     </g>
     <g id="text_3">
      <!-- 200 -->
      <g transform="translate(213.576609 322.182437)scale(0.1 -0.1)">
       <use xlink:href="#DejaVuSans-50"/>
       <use x="63.623047" xlink:href="#DejaVuSans-48"/>
       <use x="127.246094" xlink:href="#DejaVuSans-48"/>
      </g>
     </g>
    </g>
    <g id="xtick_4">
     <g id="line2d_5">
      <g>
       <use style="stroke:#000000;stroke-width:0.8;" x="283.32184" xlink:href="#mc3f169bdfb" y="307.584"/>
      </g>
     </g>
     <g id="text_4">
      <!-- 400 -->
      <defs>
       <path d="M 37.796875 64.3125 
L 12.890625 25.390625 
L 37.796875 25.390625 
z
M 35.203125 72.90625 
L 47.609375 72.90625 
L 47.609375 25.390625 
L 58.015625 25.390625 
L 58.015625 17.1875 
L 47.609375 17.1875 
L 47.609375 0 
L 37.796875 0 
L 37.796875 17.1875 
L 4.890625 17.1875 
L 4.890625 26.703125 
z
" id="DejaVuSans-52"/>
      </defs>
      <g transform="translate(273.77809 322.182437)scale(0.1 -0.1)">
       <use xlink:href="#DejaVuSans-52"/>
       <use x="63.623047" xlink:href="#DejaVuSans-48"/>
       <use x="127.246094" xlink:href="#DejaVuSans-48"/>
      </g>
     </g>
    </g>
    <g id="xtick_5">
     <g id="line2d_6">
      <g>
       <use style="stroke:#000000;stroke-width:0.8;" x="343.523321" xlink:href="#mc3f169bdfb" y="307.584"/>
      </g>
     </g>
     <g id="text_5">
      <!-- 600 -->
      <defs>
       <path d="M 33.015625 40.375 
Q 26.375 40.375 22.484375 35.828125 
Q 18.609375 31.296875 18.609375 23.390625 
Q 18.609375 15.53125 22.484375 10.953125 
Q 26.375 6.390625 33.015625 6.390625 
Q 39.65625 6.390625 43.53125 10.953125 
Q 47.40625 15.53125 47.40625 23.390625 
Q 47.40625 31.296875 43.53125 35.828125 
Q 39.65625 40.375 33.015625 40.375 
z
M 52.59375 71.296875 
L 52.59375 62.3125 
Q 48.875 64.0625 45.09375 64.984375 
Q 41.3125 65.921875 37.59375 65.921875 
Q 27.828125 65.921875 22.671875 59.328125 
Q 17.53125 52.734375 16.796875 39.40625 
Q 19.671875 43.65625 24.015625 45.921875 
Q 28.375 48.1875 33.59375 48.1875 
Q 44.578125 48.1875 50.953125 41.515625 
Q 57.328125 34.859375 57.328125 23.390625 
Q 57.328125 12.15625 50.6875 5.359375 
Q 44.046875 -1.421875 33.015625 -1.421875 
Q 20.359375 -1.421875 13.671875 8.265625 
Q 6.984375 17.96875 6.984375 36.375 
Q 6.984375 53.65625 15.1875 63.9375 
Q 23.390625 74.21875 37.203125 74.21875 
Q 40.921875 74.21875 44.703125 73.484375 
Q 48.484375 72.75 52.59375 71.296875 
z
" id="DejaVuSans-54"/>
      </defs>
      <g transform="translate(333.979571 322.182437)scale(0.1 -0.1)">
       <use xlink:href="#DejaVuSans-54"/>
       <use x="63.623047" xlink:href="#DejaVuSans-48"/>
       <use x="127.246094" xlink:href="#DejaVuSans-48"/>
      </g>
     </g>
    </g>
    <g id="xtick_6">
     <g id="line2d_7">
      <g>
       <use style="stroke:#000000;stroke-width:0.8;" x="403.724802" xlink:href="#mc3f169bdfb" y="307.584"/>
      </g>
     </g>
     <g id="text_6">
      <!-- 800 -->
      <defs>
       <path d="M 31.78125 34.625 
Q 24.75 34.625 20.71875 30.859375 
Q 16.703125 27.09375 16.703125 20.515625 
Q 16.703125 13.921875 20.71875 10.15625 
Q 24.75 6.390625 31.78125 6.390625 
Q 38.8125 6.390625 42.859375 10.171875 
Q 46.921875 13.96875 46.921875 20.515625 
Q 46.921875 27.09375 42.890625 30.859375 
Q 38.875 34.625 31.78125 34.625 
z
M 21.921875 38.8125 
Q 15.578125 40.375 12.03125 44.71875 
Q 8.5 49.078125 8.5 55.328125 
Q 8.5 64.0625 14.71875 69.140625 
Q 20.953125 74.21875 31.78125 74.21875 
Q 42.671875 74.21875 48.875 69.140625 
Q 55.078125 64.0625 55.078125 55.328125 
Q 55.078125 49.078125 51.53125 44.71875 
Q 48 40.375 41.703125 38.8125 
Q 48.828125 37.15625 52.796875 32.3125 
Q 56.78125 27.484375 56.78125 20.515625 
Q 56.78125 9.90625 50.3125 4.234375 
Q 43.84375 -1.421875 31.78125 -1.421875 
Q 19.734375 -1.421875 13.25 4.234375 
Q 6.78125 9.90625 6.78125 20.515625 
Q 6.78125 27.484375 10.78125 32.3125 
Q 14.796875 37.15625 21.921875 38.8125 
z
M 18.3125 54.390625 
Q 18.3125 48.734375 21.84375 45.5625 
Q 25.390625 42.390625 31.78125 42.390625 
Q 38.140625 42.390625 41.71875 45.5625 
Q 45.3125 48.734375 45.3125 54.390625 
Q 45.3125 60.0625 41.71875 63.234375 
Q 38.140625 66.40625 31.78125 66.40625 
Q 25.390625 66.40625 21.84375 63.234375 
Q 18.3125 60.0625 18.3125 54.390625 
z
" id="DejaVuSans-56"/>
      </defs>
      <g transform="translate(394.181052 322.182437)scale(0.1 -0.1)">
       <use xlink:href="#DejaVuSans-56"/>
       <use x="63.623047" xlink:href="#DejaVuSans-48"/>
       <use x="127.246094" xlink:href="#DejaVuSans-48"/>
      </g>
     </g>
    </g>
   </g>
   <g id="matplotlib.axis_2">
    <g id="ytick_1">
     <g id="line2d_8">
      <defs>
       <path d="M 0 0 
L -3.5 0 
" id="md83484cc95" style="stroke:#000000;stroke-width:0.8;"/>
      </defs>
      <g>
       <use style="stroke:#000000;stroke-width:0.8;" x="57.6" xlink:href="#md83484cc95" y="273.13962"/>
      </g>
     </g>
     <g id="text_7">
      <!-- 500 -->
      <defs>
       <path d="M 10.796875 72.90625 
L 49.515625 72.90625 
L 49.515625 64.59375 
L 19.828125 64.59375 
L 19.828125 46.734375 
Q 21.96875 47.46875 24.109375 47.828125 
Q 26.265625 48.1875 28.421875 48.1875 
Q 40.625 48.1875 47.75 41.5 
Q 54.890625 34.8125 54.890625 23.390625 
Q 54.890625 11.625 47.5625 5.09375 
Q 40.234375 -1.421875 26.90625 -1.421875 
Q 22.3125 -1.421875 17.546875 -0.640625 
Q 12.796875 0.140625 7.71875 1.703125 
L 7.71875 11.625 
Q 12.109375 9.234375 16.796875 8.0625 
Q 21.484375 6.890625 26.703125 6.890625 
Q 35.15625 6.890625 40.078125 11.328125 
Q 45.015625 15.765625 45.015625 23.390625 
Q 45.015625 31 40.078125 35.4375 
Q 35.15625 39.890625 26.703125 39.890625 
Q 22.75 39.890625 18.8125 39.015625 
Q 14.890625 38.140625 10.796875 36.28125 
z
" id="DejaVuSans-53"/>
      </defs>
      <g transform="translate(23.132812 276.938839)scale(0.1 -0.1)">
       <use xlink:href="#DejaVuSans-8722"/>
       <use x="83.789062" xlink:href="#DejaVuSans-53"/>
       <use x="147.412109" xlink:href="#DejaVuSans-48"/>
       <use x="211.035156" xlink:href="#DejaVuSans-48"/>
      </g>
     </g>
    </g>
    <g id="ytick_2">
     <g id="line2d_9">
      <g>
       <use style="stroke:#000000;stroke-width:0.8;" x="57.6" xlink:href="#md83484cc95" y="216.735653"/>
      </g>
     </g>
     <g id="text_8">
      <!-- 0 -->
      <g transform="translate(44.2375 220.534872)scale(0.1 -0.1)">
       <use xlink:href="#DejaVuSans-48"/>
      </g>
     </g>
    </g>
    <g id="ytick_3">
     <g id="line2d_10">
      <g>
       <use style="stroke:#000000;stroke-width:0.8;" x="57.6" xlink:href="#md83484cc95" y="160.331685"/>
      </g>
     </g>
     <g id="text_9">
      <!-- 500 -->
      <g transform="translate(31.5125 164.130904)scale(0.1 -0.1)">
       <use xlink:href="#DejaVuSans-53"/>
       <use x="63.623047" xlink:href="#DejaVuSans-48"/>
       <use x="127.246094" xlink:href="#DejaVuSans-48"/>
      </g>
     </g>
    </g>
    <g id="ytick_4">
     <g id="line2d_11">
      <g>
       <use style="stroke:#000000;stroke-width:0.8;" x="57.6" xlink:href="#md83484cc95" y="103.927718"/>
      </g>
     </g>
     <g id="text_10">
      <!-- 1000 -->
      <defs>
       <path d="M 12.40625 8.296875 
L 28.515625 8.296875 
L 28.515625 63.921875 
L 10.984375 60.40625 
L 10.984375 69.390625 
L 28.421875 72.90625 
L 38.28125 72.90625 
L 38.28125 8.296875 
L 54.390625 8.296875 
L 54.390625 0 
L 12.40625 0 
z
" id="DejaVuSans-49"/>
      </defs>
      <g transform="translate(25.15 107.726937)scale(0.1 -0.1)">
       <use xlink:href="#DejaVuSans-49"/>
       <use x="63.623047" xlink:href="#DejaVuSans-48"/>
       <use x="127.246094" xlink:href="#DejaVuSans-48"/>
       <use x="190.869141" xlink:href="#DejaVuSans-48"/>
      </g>
     </g>
    </g>
    <g id="ytick_5">
     <g id="line2d_12">
      <g>
       <use style="stroke:#000000;stroke-width:0.8;" x="57.6" xlink:href="#md83484cc95" y="47.523751"/>
      </g>
     </g>
     <g id="text_11">
      <!-- 1500 -->
      <g transform="translate(25.15 51.32297)scale(0.1 -0.1)">
       <use xlink:href="#DejaVuSans-49"/>
       <use x="63.623047" xlink:href="#DejaVuSans-53"/>
       <use x="127.246094" xlink:href="#DejaVuSans-48"/>
       <use x="190.869141" xlink:href="#DejaVuSans-48"/>
      </g>
     </g>
    </g>
   </g>
   <g id="line2d_13">
    <path clip-path="url(#p4075c6a2b8)" d="M 396.095075 107.681529 
L 304.957929 144.343519 
L 247.623326 185.313222 
L 191.185661 204.039689 
L 190.787554 208.185214 
L 335.270745 203.899895 
L 345.188674 206.215686 
L 271.483903 112.873193 
L 272.852445 106.560655 
L 341.759607 192.295716 
L 329.925701 189.717762 
L 343.162771 58.138721 
L 258.007552 60.780592 
L 268.744386 205.266488 
L 128.98246 215.062202 
L 126.263497 216.001791 
L 291.375813 277.7822 
L 278.465957 276.92929 
L 104.66347 249.054805 
" style="fill:none;stroke:#ff0000;stroke-linecap:square;stroke-width:0.5;"/>
   </g>
   <g id="patch_3">
    <path d="M 57.6 307.584 
L 57.6 41.472 
" style="fill:none;stroke:#000000;stroke-linecap:square;stroke-linejoin:miter;stroke-width:0.8;"/>
   </g>
   <g id="patch_4">
    <path d="M 414.72 307.584 
L 414.72 41.472 
" style="fill:none;stroke:#000000;stroke-linecap:square;stroke-linejoin:miter;stroke-width:0.8;"/>
   </g>
   <g id="patch_5">
    <path d="M 57.6 307.584 
L 414.72 307.584 
" style="fill:none;stroke:#000000;stroke-linecap:square;stroke-linejoin:miter;stroke-width:0.8;"/>
   </g>
   <g id="patch_6">
    <path d="M 57.6 41.472 
L 414.72 41.472 
" style="fill:none;stroke:#000000;stroke-linecap:square;stroke-linejoin:miter;stroke-width:0.8;"/>
   </g>
   <g id="PathCollection_1">
    <defs>
     <path d="M 0 2.738613 
C 0.726289 2.738613 1.422928 2.450055 1.936492 1.936492 
C 2.450055 1.422928 2.738613 0.726289 2.738613 0 
C 2.738613 -0.726289 2.450055 -1.422928 1.936492 -1.936492 
C 1.422928 -2.450055 0.726289 -2.738613 0 -2.738613 
C -0.726289 -2.738613 -1.422928 -2.450055 -1.936492 -1.936492 
C -2.450055 -1.422928 -2.738613 -0.726289 -2.738613 0 
C -2.738613 0.726289 -2.450055 1.422928 -1.936492 1.936492 
C -1.422928 2.450055 -0.726289 2.738613 0 2.738613 
z
" id="mabe3ae20e7" style="stroke:#ff0000;"/>
    </defs>
    <g clip-path="url(#p4075c6a2b8)">
     <use style="fill:#ff0000;stroke:#ff0000;" x="396.095075" xlink:href="#mabe3ae20e7" y="107.681529"/>
     <use style="fill:#ff0000;stroke:#ff0000;" x="304.957929" xlink:href="#mabe3ae20e7" y="144.343519"/>
     <use style="fill:#ff0000;stroke:#ff0000;" x="247.623326" xlink:href="#mabe3ae20e7" y="185.313222"/>
     <use style="fill:#ff0000;stroke:#ff0000;" x="191.185661" xlink:href="#mabe3ae20e7" y="204.039689"/>
     <use style="fill:#ff0000;stroke:#ff0000;" x="190.787554" xlink:href="#mabe3ae20e7" y="208.185214"/>
     <use style="fill:#ff0000;stroke:#ff0000;" x="335.270745" xlink:href="#mabe3ae20e7" y="203.899895"/>
     <use style="fill:#ff0000;stroke:#ff0000;" x="345.188674" xlink:href="#mabe3ae20e7" y="206.215686"/>
     <use style="fill:#ff0000;stroke:#ff0000;" x="271.483903" xlink:href="#mabe3ae20e7" y="112.873193"/>
     <use style="fill:#ff0000;stroke:#ff0000;" x="272.852445" xlink:href="#mabe3ae20e7" y="106.560655"/>
     <use style="fill:#ff0000;stroke:#ff0000;" x="341.759607" xlink:href="#mabe3ae20e7" y="192.295716"/>
     <use style="fill:#ff0000;stroke:#ff0000;" x="329.925701" xlink:href="#mabe3ae20e7" y="189.717762"/>
     <use style="fill:#ff0000;stroke:#ff0000;" x="343.162771" xlink:href="#mabe3ae20e7" y="58.138721"/>
     <use style="fill:#ff0000;stroke:#ff0000;" x="258.007552" xlink:href="#mabe3ae20e7" y="60.780592"/>
     <use style="fill:#ff0000;stroke:#ff0000;" x="268.744386" xlink:href="#mabe3ae20e7" y="205.266488"/>
     <use style="fill:#ff0000;stroke:#ff0000;" x="128.98246" xlink:href="#mabe3ae20e7" y="215.062202"/>
     <use style="fill:#ff0000;stroke:#ff0000;" x="126.263497" xlink:href="#mabe3ae20e7" y="216.001791"/>
     <use style="fill:#ff0000;stroke:#ff0000;" x="291.375813" xlink:href="#mabe3ae20e7" y="277.7822"/>
     <use style="fill:#ff0000;stroke:#ff0000;" x="278.465957" xlink:href="#mabe3ae20e7" y="276.92929"/>
     <use style="fill:#ff0000;stroke:#ff0000;" x="104.66347" xlink:href="#mabe3ae20e7" y="249.054805"/>
    </g>
   </g>
   <g id="text_12">
    <!-- (107) Subject: s27, Known = True, Degree = 1, Duration = 0.1 -->
    <defs>
     <path d="M 31 75.875 
Q 24.46875 64.65625 21.28125 53.65625 
Q 18.109375 42.671875 18.109375 31.390625 
Q 18.109375 20.125 21.3125 9.0625 
Q 24.515625 -2 31 -13.1875 
L 23.1875 -13.1875 
Q 15.875 -1.703125 12.234375 9.375 
Q 8.59375 20.453125 8.59375 31.390625 
Q 8.59375 42.28125 12.203125 53.3125 
Q 15.828125 64.359375 23.1875 75.875 
z
" id="DejaVuSans-40"/>
     <path d="M 8.203125 72.90625 
L 55.078125 72.90625 
L 55.078125 68.703125 
L 28.609375 0 
L 18.3125 0 
L 43.21875 64.59375 
L 8.203125 64.59375 
z
" id="DejaVuSans-55"/>
     <path d="M 8.015625 75.875 
L 15.828125 75.875 
Q 23.140625 64.359375 26.78125 53.3125 
Q 30.421875 42.28125 30.421875 31.390625 
Q 30.421875 20.453125 26.78125 9.375 
Q 23.140625 -1.703125 15.828125 -13.1875 
L 8.015625 -13.1875 
Q 14.5 -2 17.703125 9.0625 
Q 20.90625 20.125 20.90625 31.390625 
Q 20.90625 42.671875 17.703125 53.65625 
Q 14.5 64.65625 8.015625 75.875 
z
" id="DejaVuSans-41"/>
     <path id="DejaVuSans-32"/>
     <path d="M 53.515625 70.515625 
L 53.515625 60.890625 
Q 47.90625 63.578125 42.921875 64.890625 
Q 37.9375 66.21875 33.296875 66.21875 
Q 25.25 66.21875 20.875 63.09375 
Q 16.5 59.96875 16.5 54.203125 
Q 16.5 49.359375 19.40625 46.890625 
Q 22.3125 44.4375 30.421875 42.921875 
L 36.375 41.703125 
Q 47.40625 39.59375 52.65625 34.296875 
Q 57.90625 29 57.90625 20.125 
Q 57.90625 9.515625 50.796875 4.046875 
Q 43.703125 -1.421875 29.984375 -1.421875 
Q 24.8125 -1.421875 18.96875 -0.25 
Q 13.140625 0.921875 6.890625 3.21875 
L 6.890625 13.375 
Q 12.890625 10.015625 18.65625 8.296875 
Q 24.421875 6.59375 29.984375 6.59375 
Q 38.421875 6.59375 43.015625 9.90625 
Q 47.609375 13.234375 47.609375 19.390625 
Q 47.609375 24.75 44.3125 27.78125 
Q 41.015625 30.8125 33.5 32.328125 
L 27.484375 33.5 
Q 16.453125 35.6875 11.515625 40.375 
Q 6.59375 45.0625 6.59375 53.421875 
Q 6.59375 63.09375 13.40625 68.65625 
Q 20.21875 74.21875 32.171875 74.21875 
Q 37.3125 74.21875 42.625 73.28125 
Q 47.953125 72.359375 53.515625 70.515625 
z
" id="DejaVuSans-83"/>
     <path d="M 8.5 21.578125 
L 8.5 54.6875 
L 17.484375 54.6875 
L 17.484375 21.921875 
Q 17.484375 14.15625 20.5 10.265625 
Q 23.53125 6.390625 29.59375 6.390625 
Q 36.859375 6.390625 41.078125 11.03125 
Q 45.3125 15.671875 45.3125 23.6875 
L 45.3125 54.6875 
L 54.296875 54.6875 
L 54.296875 0 
L 45.3125 0 
L 45.3125 8.40625 
Q 42.046875 3.421875 37.71875 1 
Q 33.40625 -1.421875 27.6875 -1.421875 
Q 18.265625 -1.421875 13.375 4.4375 
Q 8.5 10.296875 8.5 21.578125 
z
M 31.109375 56 
z
" id="DejaVuSans-117"/>
     <path d="M 48.6875 27.296875 
Q 48.6875 37.203125 44.609375 42.84375 
Q 40.53125 48.484375 33.40625 48.484375 
Q 26.265625 48.484375 22.1875 42.84375 
Q 18.109375 37.203125 18.109375 27.296875 
Q 18.109375 17.390625 22.1875 11.75 
Q 26.265625 6.109375 33.40625 6.109375 
Q 40.53125 6.109375 44.609375 11.75 
Q 48.6875 17.390625 48.6875 27.296875 
z
M 18.109375 46.390625 
Q 20.953125 51.265625 25.265625 53.625 
Q 29.59375 56 35.59375 56 
Q 45.5625 56 51.78125 48.09375 
Q 58.015625 40.1875 58.015625 27.296875 
Q 58.015625 14.40625 51.78125 6.484375 
Q 45.5625 -1.421875 35.59375 -1.421875 
Q 29.59375 -1.421875 25.265625 0.953125 
Q 20.953125 3.328125 18.109375 8.203125 
L 18.109375 0 
L 9.078125 0 
L 9.078125 75.984375 
L 18.109375 75.984375 
z
" id="DejaVuSans-98"/>
     <path d="M 9.421875 54.6875 
L 18.40625 54.6875 
L 18.40625 -0.984375 
Q 18.40625 -11.421875 14.421875 -16.109375 
Q 10.453125 -20.796875 1.609375 -20.796875 
L -1.8125 -20.796875 
L -1.8125 -13.1875 
L 0.59375 -13.1875 
Q 5.71875 -13.1875 7.5625 -10.8125 
Q 9.421875 -8.453125 9.421875 -0.984375 
z
M 9.421875 75.984375 
L 18.40625 75.984375 
L 18.40625 64.59375 
L 9.421875 64.59375 
z
" id="DejaVuSans-106"/>
     <path d="M 56.203125 29.59375 
L 56.203125 25.203125 
L 14.890625 25.203125 
Q 15.484375 15.921875 20.484375 11.0625 
Q 25.484375 6.203125 34.421875 6.203125 
Q 39.59375 6.203125 44.453125 7.46875 
Q 49.3125 8.734375 54.109375 11.28125 
L 54.109375 2.78125 
Q 49.265625 0.734375 44.1875 -0.34375 
Q 39.109375 -1.421875 33.890625 -1.421875 
Q 20.796875 -1.421875 13.15625 6.1875 
Q 5.515625 13.8125 5.515625 26.8125 
Q 5.515625 40.234375 12.765625 48.109375 
Q 20.015625 56 32.328125 56 
Q 43.359375 56 49.78125 48.890625 
Q 56.203125 41.796875 56.203125 29.59375 
z
M 47.21875 32.234375 
Q 47.125 39.59375 43.09375 43.984375 
Q 39.0625 48.390625 32.421875 48.390625 
Q 24.90625 48.390625 20.390625 44.140625 
Q 15.875 39.890625 15.1875 32.171875 
z
" id="DejaVuSans-101"/>
     <path d="M 48.78125 52.59375 
L 48.78125 44.1875 
Q 44.96875 46.296875 41.140625 47.34375 
Q 37.3125 48.390625 33.40625 48.390625 
Q 24.65625 48.390625 19.8125 42.84375 
Q 14.984375 37.3125 14.984375 27.296875 
Q 14.984375 17.28125 19.8125 11.734375 
Q 24.65625 6.203125 33.40625 6.203125 
Q 37.3125 6.203125 41.140625 7.25 
Q 44.96875 8.296875 48.78125 10.40625 
L 48.78125 2.09375 
Q 45.015625 0.34375 40.984375 -0.53125 
Q 36.96875 -1.421875 32.421875 -1.421875 
Q 20.0625 -1.421875 12.78125 6.34375 
Q 5.515625 14.109375 5.515625 27.296875 
Q 5.515625 40.671875 12.859375 48.328125 
Q 20.21875 56 33.015625 56 
Q 37.15625 56 41.109375 55.140625 
Q 45.0625 54.296875 48.78125 52.59375 
z
" id="DejaVuSans-99"/>
     <path d="M 18.3125 70.21875 
L 18.3125 54.6875 
L 36.8125 54.6875 
L 36.8125 47.703125 
L 18.3125 47.703125 
L 18.3125 18.015625 
Q 18.3125 11.328125 20.140625 9.421875 
Q 21.96875 7.515625 27.59375 7.515625 
L 36.8125 7.515625 
L 36.8125 0 
L 27.59375 0 
Q 17.1875 0 13.234375 3.875 
Q 9.28125 7.765625 9.28125 18.015625 
L 9.28125 47.703125 
L 2.6875 47.703125 
L 2.6875 54.6875 
L 9.28125 54.6875 
L 9.28125 70.21875 
z
" id="DejaVuSans-116"/>
     <path d="M 11.71875 12.40625 
L 22.015625 12.40625 
L 22.015625 0 
L 11.71875 0 
z
M 11.71875 51.703125 
L 22.015625 51.703125 
L 22.015625 39.3125 
L 11.71875 39.3125 
z
" id="DejaVuSans-58"/>
     <path d="M 44.28125 53.078125 
L 44.28125 44.578125 
Q 40.484375 46.53125 36.375 47.5 
Q 32.28125 48.484375 27.875 48.484375 
Q 21.1875 48.484375 17.84375 46.4375 
Q 14.5 44.390625 14.5 40.28125 
Q 14.5 37.15625 16.890625 35.375 
Q 19.28125 33.59375 26.515625 31.984375 
L 29.59375 31.296875 
Q 39.15625 29.25 43.1875 25.515625 
Q 47.21875 21.78125 47.21875 15.09375 
Q 47.21875 7.46875 41.1875 3.015625 
Q 35.15625 -1.421875 24.609375 -1.421875 
Q 20.21875 -1.421875 15.453125 -0.5625 
Q 10.6875 0.296875 5.421875 2 
L 5.421875 11.28125 
Q 10.40625 8.6875 15.234375 7.390625 
Q 20.0625 6.109375 24.8125 6.109375 
Q 31.15625 6.109375 34.5625 8.28125 
Q 37.984375 10.453125 37.984375 14.40625 
Q 37.984375 18.0625 35.515625 20.015625 
Q 33.0625 21.96875 24.703125 23.78125 
L 21.578125 24.515625 
Q 13.234375 26.265625 9.515625 29.90625 
Q 5.8125 33.546875 5.8125 39.890625 
Q 5.8125 47.609375 11.28125 51.796875 
Q 16.75 56 26.8125 56 
Q 31.78125 56 36.171875 55.265625 
Q 40.578125 54.546875 44.28125 53.078125 
z
" id="DejaVuSans-115"/>
     <path d="M 11.71875 12.40625 
L 22.015625 12.40625 
L 22.015625 4 
L 14.015625 -11.625 
L 7.71875 -11.625 
L 11.71875 4 
z
" id="DejaVuSans-44"/>
     <path d="M 9.8125 72.90625 
L 19.671875 72.90625 
L 19.671875 42.09375 
L 52.390625 72.90625 
L 65.09375 72.90625 
L 28.90625 38.921875 
L 67.671875 0 
L 54.6875 0 
L 19.671875 35.109375 
L 19.671875 0 
L 9.8125 0 
z
" id="DejaVuSans-75"/>
     <path d="M 54.890625 33.015625 
L 54.890625 0 
L 45.90625 0 
L 45.90625 32.71875 
Q 45.90625 40.484375 42.875 44.328125 
Q 39.84375 48.1875 33.796875 48.1875 
Q 26.515625 48.1875 22.3125 43.546875 
Q 18.109375 38.921875 18.109375 30.90625 
L 18.109375 0 
L 9.078125 0 
L 9.078125 54.6875 
L 18.109375 54.6875 
L 18.109375 46.1875 
Q 21.34375 51.125 25.703125 53.5625 
Q 30.078125 56 35.796875 56 
Q 45.21875 56 50.046875 50.171875 
Q 54.890625 44.34375 54.890625 33.015625 
z
" id="DejaVuSans-110"/>
     <path d="M 30.609375 48.390625 
Q 23.390625 48.390625 19.1875 42.75 
Q 14.984375 37.109375 14.984375 27.296875 
Q 14.984375 17.484375 19.15625 11.84375 
Q 23.34375 6.203125 30.609375 6.203125 
Q 37.796875 6.203125 41.984375 11.859375 
Q 46.1875 17.53125 46.1875 27.296875 
Q 46.1875 37.015625 41.984375 42.703125 
Q 37.796875 48.390625 30.609375 48.390625 
z
M 30.609375 56 
Q 42.328125 56 49.015625 48.375 
Q 55.71875 40.765625 55.71875 27.296875 
Q 55.71875 13.875 49.015625 6.21875 
Q 42.328125 -1.421875 30.609375 -1.421875 
Q 18.84375 -1.421875 12.171875 6.21875 
Q 5.515625 13.875 5.515625 27.296875 
Q 5.515625 40.765625 12.171875 48.375 
Q 18.84375 56 30.609375 56 
z
" id="DejaVuSans-111"/>
     <path d="M 4.203125 54.6875 
L 13.1875 54.6875 
L 24.421875 12.015625 
L 35.59375 54.6875 
L 46.1875 54.6875 
L 57.421875 12.015625 
L 68.609375 54.6875 
L 77.59375 54.6875 
L 63.28125 0 
L 52.6875 0 
L 40.921875 44.828125 
L 29.109375 0 
L 18.5 0 
z
" id="DejaVuSans-119"/>
     <path d="M 10.59375 45.40625 
L 73.1875 45.40625 
L 73.1875 37.203125 
L 10.59375 37.203125 
z
M 10.59375 25.484375 
L 73.1875 25.484375 
L 73.1875 17.1875 
L 10.59375 17.1875 
z
" id="DejaVuSans-61"/>
     <path d="M -0.296875 72.90625 
L 61.375 72.90625 
L 61.375 64.59375 
L 35.5 64.59375 
L 35.5 0 
L 25.59375 0 
L 25.59375 64.59375 
L -0.296875 64.59375 
z
" id="DejaVuSans-84"/>
     <path d="M 41.109375 46.296875 
Q 39.59375 47.171875 37.8125 47.578125 
Q 36.03125 48 33.890625 48 
Q 26.265625 48 22.1875 43.046875 
Q 18.109375 38.09375 18.109375 28.8125 
L 18.109375 0 
L 9.078125 0 
L 9.078125 54.6875 
L 18.109375 54.6875 
L 18.109375 46.1875 
Q 20.953125 51.171875 25.484375 53.578125 
Q 30.03125 56 36.53125 56 
Q 37.453125 56 38.578125 55.875 
Q 39.703125 55.765625 41.0625 55.515625 
z
" id="DejaVuSans-114"/>
     <path d="M 19.671875 64.796875 
L 19.671875 8.109375 
L 31.59375 8.109375 
Q 46.6875 8.109375 53.6875 14.9375 
Q 60.6875 21.78125 60.6875 36.53125 
Q 60.6875 51.171875 53.6875 57.984375 
Q 46.6875 64.796875 31.59375 64.796875 
z
M 9.8125 72.90625 
L 30.078125 72.90625 
Q 51.265625 72.90625 61.171875 64.09375 
Q 71.09375 55.28125 71.09375 36.53125 
Q 71.09375 17.671875 61.125 8.828125 
Q 51.171875 0 30.078125 0 
L 9.8125 0 
z
" id="DejaVuSans-68"/>
     <path d="M 45.40625 27.984375 
Q 45.40625 37.75 41.375 43.109375 
Q 37.359375 48.484375 30.078125 48.484375 
Q 22.859375 48.484375 18.828125 43.109375 
Q 14.796875 37.75 14.796875 27.984375 
Q 14.796875 18.265625 18.828125 12.890625 
Q 22.859375 7.515625 30.078125 7.515625 
Q 37.359375 7.515625 41.375 12.890625 
Q 45.40625 18.265625 45.40625 27.984375 
z
M 54.390625 6.78125 
Q 54.390625 -7.171875 48.1875 -13.984375 
Q 42 -20.796875 29.203125 -20.796875 
Q 24.46875 -20.796875 20.265625 -20.09375 
Q 16.0625 -19.390625 12.109375 -17.921875 
L 12.109375 -9.1875 
Q 16.0625 -11.328125 19.921875 -12.34375 
Q 23.78125 -13.375 27.78125 -13.375 
Q 36.625 -13.375 41.015625 -8.765625 
Q 45.40625 -4.15625 45.40625 5.171875 
L 45.40625 9.625 
Q 42.625 4.78125 38.28125 2.390625 
Q 33.9375 0 27.875 0 
Q 17.828125 0 11.671875 7.65625 
Q 5.515625 15.328125 5.515625 27.984375 
Q 5.515625 40.671875 11.671875 48.328125 
Q 17.828125 56 27.875 56 
Q 33.9375 56 38.28125 53.609375 
Q 42.625 51.21875 45.40625 46.390625 
L 45.40625 54.6875 
L 54.390625 54.6875 
z
" id="DejaVuSans-103"/>
     <path d="M 34.28125 27.484375 
Q 23.390625 27.484375 19.1875 25 
Q 14.984375 22.515625 14.984375 16.5 
Q 14.984375 11.71875 18.140625 8.90625 
Q 21.296875 6.109375 26.703125 6.109375 
Q 34.1875 6.109375 38.703125 11.40625 
Q 43.21875 16.703125 43.21875 25.484375 
L 43.21875 27.484375 
z
M 52.203125 31.203125 
L 52.203125 0 
L 43.21875 0 
L 43.21875 8.296875 
Q 40.140625 3.328125 35.546875 0.953125 
Q 30.953125 -1.421875 24.3125 -1.421875 
Q 15.921875 -1.421875 10.953125 3.296875 
Q 6 8.015625 6 15.921875 
Q 6 25.140625 12.171875 29.828125 
Q 18.359375 34.515625 30.609375 34.515625 
L 43.21875 34.515625 
L 43.21875 35.40625 
Q 43.21875 41.609375 39.140625 45 
Q 35.0625 48.390625 27.6875 48.390625 
Q 23 48.390625 18.546875 47.265625 
Q 14.109375 46.140625 10.015625 43.890625 
L 10.015625 52.203125 
Q 14.9375 54.109375 19.578125 55.046875 
Q 24.21875 56 28.609375 56 
Q 40.484375 56 46.34375 49.84375 
Q 52.203125 43.703125 52.203125 31.203125 
z
" id="DejaVuSans-97"/>
     <path d="M 9.421875 54.6875 
L 18.40625 54.6875 
L 18.40625 0 
L 9.421875 0 
z
M 9.421875 75.984375 
L 18.40625 75.984375 
L 18.40625 64.59375 
L 9.421875 64.59375 
z
" id="DejaVuSans-105"/>
     <path d="M 10.6875 12.40625 
L 21 12.40625 
L 21 0 
L 10.6875 0 
z
" id="DejaVuSans-46"/>
    </defs>
    <g transform="translate(47.915625 35.472)scale(0.12 -0.12)">
     <use xlink:href="#DejaVuSans-40"/>
     <use x="39.013672" xlink:href="#DejaVuSans-49"/>
     <use x="102.636719" xlink:href="#DejaVuSans-48"/>
     <use x="166.259766" xlink:href="#DejaVuSans-55"/>
     <use x="229.882812" xlink:href="#DejaVuSans-41"/>
     <use x="268.896484" xlink:href="#DejaVuSans-32"/>
     <use x="300.683594" xlink:href="#DejaVuSans-83"/>
     <use x="364.160156" xlink:href="#DejaVuSans-117"/>
     <use x="427.539062" xlink:href="#DejaVuSans-98"/>
     <use x="491.015625" xlink:href="#DejaVuSans-106"/>
     <use x="518.798828" xlink:href="#DejaVuSans-101"/>
     <use x="580.322266" xlink:href="#DejaVuSans-99"/>
     <use x="635.302734" xlink:href="#DejaVuSans-116"/>
     <use x="674.511719" xlink:href="#DejaVuSans-58"/>
     <use x="708.203125" xlink:href="#DejaVuSans-32"/>
     <use x="739.990234" xlink:href="#DejaVuSans-115"/>
     <use x="792.089844" xlink:href="#DejaVuSans-50"/>
     <use x="855.712891" xlink:href="#DejaVuSans-55"/>
     <use x="919.335938" xlink:href="#DejaVuSans-44"/>
     <use x="951.123047" xlink:href="#DejaVuSans-32"/>
     <use x="982.910156" xlink:href="#DejaVuSans-75"/>
     <use x="1048.486328" xlink:href="#DejaVuSans-110"/>
     <use x="1111.865234" xlink:href="#DejaVuSans-111"/>
     <use x="1173.046875" xlink:href="#DejaVuSans-119"/>
     <use x="1254.833984" xlink:href="#DejaVuSans-110"/>
     <use x="1318.212891" xlink:href="#DejaVuSans-32"/>
     <use x="1350" xlink:href="#DejaVuSans-61"/>
     <use x="1433.789062" xlink:href="#DejaVuSans-32"/>
     <use x="1465.576172" xlink:href="#DejaVuSans-84"/>
     <use x="1526.441406" xlink:href="#DejaVuSans-114"/>
     <use x="1567.554688" xlink:href="#DejaVuSans-117"/>
     <use x="1630.933594" xlink:href="#DejaVuSans-101"/>
     <use x="1692.457031" xlink:href="#DejaVuSans-44"/>
     <use x="1724.244141" xlink:href="#DejaVuSans-32"/>
     <use x="1756.03125" xlink:href="#DejaVuSans-68"/>
     <use x="1833.033203" xlink:href="#DejaVuSans-101"/>
     <use x="1894.556641" xlink:href="#DejaVuSans-103"/>
     <use x="1958.033203" xlink:href="#DejaVuSans-114"/>
     <use x="1999.115234" xlink:href="#DejaVuSans-101"/>
     <use x="2060.638672" xlink:href="#DejaVuSans-101"/>
     <use x="2122.162109" xlink:href="#DejaVuSans-32"/>
     <use x="2153.949219" xlink:href="#DejaVuSans-61"/>
     <use x="2237.738281" xlink:href="#DejaVuSans-32"/>
     <use x="2269.525391" xlink:href="#DejaVuSans-49"/>
     <use x="2333.148438" xlink:href="#DejaVuSans-44"/>
     <use x="2364.935547" xlink:href="#DejaVuSans-32"/>
     <use x="2396.722656" xlink:href="#DejaVuSans-68"/>
     <use x="2473.724609" xlink:href="#DejaVuSans-117"/>
     <use x="2537.103516" xlink:href="#DejaVuSans-114"/>
     <use x="2578.216797" xlink:href="#DejaVuSans-97"/>
     <use x="2639.496094" xlink:href="#DejaVuSans-116"/>
     <use x="2678.705078" xlink:href="#DejaVuSans-105"/>
     <use x="2706.488281" xlink:href="#DejaVuSans-111"/>
     <use x="2767.669922" xlink:href="#DejaVuSans-110"/>
     <use x="2831.048828" xlink:href="#DejaVuSans-32"/>
     <use x="2862.835938" xlink:href="#DejaVuSans-61"/>
     <use x="2946.625" xlink:href="#DejaVuSans-32"/>
     <use x="2978.412109" xlink:href="#DejaVuSans-48"/>
     <use x="3042.035156" xlink:href="#DejaVuSans-46"/>
     <use x="3073.822266" xlink:href="#DejaVuSans-49"/>
    </g>
   </g>
  </g>
 </g>
 <defs>
  <clipPath id="p4075c6a2b8">
   <rect height="266.112" width="357.12" x="57.6" y="41.472"/>
  </clipPath>
 </defs>
</svg>
