<?xml version="1.0" encoding="utf-8" standalone="no"?>
<!DOCTYPE svg PUBLIC "-//W3C//DTD SVG 1.1//EN"
  "http://www.w3.org/Graphics/SVG/1.1/DTD/svg11.dtd">
<!-- Created with matplotlib (https://matplotlib.org/) -->
<svg height="345.6pt" version="1.1" viewBox="0 0 460.8 345.6" width="460.8pt" xmlns="http://www.w3.org/2000/svg" xmlns:xlink="http://www.w3.org/1999/xlink">
 <defs>
  <style type="text/css">
*{stroke-linecap:butt;stroke-linejoin:round;}
  </style>
 </defs>
 <g id="figure_1">
  <g id="patch_1">
   <path d="M 0 345.6 
L 460.8 345.6 
L 460.8 0 
L 0 0 
z
" style="fill:#ffffff;"/>
  </g>
  <g id="axes_1">
   <g id="patch_2">
    <path d="M 57.6 307.584 
L 414.72 307.584 
L 414.72 41.472 
L 57.6 41.472 
z
" style="fill:#ffffff;"/>
   </g>
   <g id="line2d_1">
    <path clip-path="url(#p1e0990583d)" d="M 75.578235 286.040292 
L 75.71301 286.040292 
L 75.443459 286.040292 
L 75.71301 286.040292 
L 75.71301 288.306551 
L 75.71301 286.040292 
L 75.173908 286.792877 
L 75.308684 286.792877 
L 75.71301 286.418711 
L 75.71301 287.171296 
L 75.443459 287.549714 
L 75.443459 286.792877 
L 75.71301 284.905036 
L 75.847786 285.283455 
L 75.847786 287.171296 
L 75.847786 286.792877 
L 75.578235 285.661873 
L 75.578235 285.661873 
L 75.982561 286.040292 
L 75.847786 286.040292 
L 75.308684 287.549714 
L 75.578235 287.928133 
L 75.982561 287.928133 
L 76.248825 287.171296 
L 76.11405 287.928133 
L 75.71301 289.063389 
L 75.71301 289.063389 
L 75.982561 287.549714 
L 76.248825 287.171296 
L 76.11405 287.549714 
L 75.982561 288.306551 
L 75.982561 289.063389 
L 75.982561 289.063389 
L 76.11405 288.68497 
L 76.248825 287.928133 
L 76.11405 287.549714 
L 75.847786 287.549714 
L 75.71301 288.306551 
L 75.847786 289.441807 
L 75.71301 290.198644 
L 75.578235 290.198644 
L 75.578235 289.820226 
L 75.982561 289.441807 
L 76.248825 289.441807 
L 75.71301 290.198644 
L 75.847786 290.572811 
L 76.653152 290.572811 
L 76.518376 291.329648 
L 76.11405 290.951229 
L 75.71301 290.198644 
L 75.443459 290.572811 
L 75.443459 292.464904 
L 75.578235 292.086485 
L 75.443459 292.086485 
L 75.578235 291.329648 
L 75.71301 291.329648 
L 75.443459 292.843322 
L 75.443459 292.464904 
L 75.443459 292.086485 
L 75.308684 292.464904 
L 75.578235 293.978578 
L 75.443459 293.600159 
L 74.772869 292.464904 
L 74.772869 292.086485 
L 75.039133 292.086485 
L 75.578235 293.221741 
L 75.039133 291.329648 
L 74.772869 290.572811 
L 74.638093 289.820226 
L 74.907644 289.820226 
L 75.443459 292.464904 
L 75.578235 293.221741 
L 75.039133 293.221741 
L 75.173908 292.843322 
L 75.173908 292.464904 
L 75.443459 290.951229 
L 75.308684 292.086485 
L 74.907644 293.221741 
L 74.368542 293.221741 
L 74.503318 293.978578 
L 74.907644 293.978578 
L 75.308684 293.600159 
L 75.173908 293.221741 
L 74.368542 293.221741 
L 74.233767 292.843322 
L 74.368542 292.843322 
L 74.368542 293.221741 
L 74.233767 293.978578 
L 73.967503 294.731163 
L 73.832727 294.731163 
L 73.967503 294.352744 
L 74.368542 294.352744 
L 74.638093 293.978578 
L 74.638093 294.731163 
L 74.503318 294.731163 
L 74.503318 294.352744 
L 74.503318 294.731163 
L 73.967503 295.488 
L 74.368542 294.731163 
L 74.368542 294.352744 
L 74.233767 294.731163 
L 74.907644 292.843322 
L 74.907644 292.464904 
L 74.907644 292.464904 
L 75.173908 292.464904 
L 75.173908 293.600159 
L 75.173908 293.600159 
L 75.443459 292.843322 
L 75.443459 292.464904 
L 75.443459 292.843322 
L 75.308684 292.843322 
L 75.443459 292.086485 
L 75.443459 290.951229 
L 75.578235 290.198644 
L 75.443459 290.572811 
L 75.443459 290.198644 
L 75.71301 289.441807 
L 75.71301 288.68497 
L 75.443459 288.306551 
L 75.847786 288.68497 
L 76.383601 288.306551 
L 76.248825 289.063389 
L 75.847786 289.820226 
L 75.443459 289.820226 
L 75.308684 289.441807 
L 75.443459 288.68497 
L 75.578235 288.68497 
L 75.578235 289.063389 
L 75.71301 289.820226 
L 75.847786 289.820226 
L 75.847786 289.441807 
L 75.847786 290.198644 
L 75.578235 290.572811 
L 75.308684 290.572811 
L 75.308684 290.198644 
L 75.443459 289.820226 
L 75.443459 289.063389 
L 75.443459 289.063389 
L 75.71301 289.820226 
L 75.982561 289.820226 
L 76.383601 289.063389 
L 76.922703 288.68497 
L 79.338801 288.68497 
L 81.084309 287.549714 
L 83.099367 285.283455 
L 88.204402 277.723588 
L 91.695417 273.186817 
L 95.995085 269.028465 
L 101.234895 264.870113 
L 113.187184 256.931827 
L 127.42737 245.970445 
L 135.484317 240.676837 
L 143.948879 235.387482 
L 152.814479 229.337037 
L 161.410529 222.912425 
L 169.335988 214.97414 
L 176.85712 207.035854 
L 184.243477 200.232824 
L 191.498346 194.560798 
L 198.348887 190.024027 
L 204.660327 185.491508 
L 211.244605 181.333156 
L 223.601221 174.151707 
L 228.972519 171.502778 
L 234.077554 168.479681 
L 244.152847 163.94291 
L 248.853555 161.298233 
L 252.748896 159.40614 
L 259.599438 157.13988 
L 262.689414 154.873621 
L 265.375063 152.60311 
L 267.255346 151.467854 
L 268.73459 151.846273 
L 269.80622 152.60311 
L 270.614873 152.981528 
L 271.015912 152.981528 
L 271.015912 152.60311 
L 270.480097 152.60311 
L 269.80622 153.359947 
L 269.000854 154.495202 
L 268.195488 156.004625 
L 267.120571 157.518299 
L 266.315205 159.027721 
L 265.644614 161.676651 
L 264.970736 160.919814 
L 264.970736 161.298233 
L 264.839248 162.05507 
L 264.434922 162.807655 
L 264.030595 163.186073 
L 263.764331 163.186073 
L 263.629555 163.564492 
L 263.629555 165.078166 
L 263.764331 165.456585 
L 263.629555 165.835003 
L 263.225229 166.587588 
L 262.554638 167.722844 
L 262.419863 167.344425 
L 261.749272 166.213422 
L 261.614497 165.835003 
L 261.749272 166.213422 
L 261.479721 165.835003 
L 260.943906 165.456585 
L 260.809131 165.835003 
L 260.809131 166.213422 
L 261.21017 165.456585 
L 260.943906 165.835003 
L 260.809131 165.835003 
L 260.53958 165.078166 
L 260.270029 165.456585 
L 260.003765 166.213422 
L 259.868989 166.213422 
L 259.329887 165.456585 
L 259.060336 165.835003 
L 259.060336 166.213422 
L 259.060336 166.213422 
L 258.794072 166.966007 
L 258.794072 167.344425 
L 258.928848 167.344425 
L 259.195112 166.966007 
L 258.928848 166.587588 
L 258.25497 166.587588 
L 257.58438 165.835003 
L 257.58438 165.456585 
L 257.58438 165.456585 
L 257.719155 166.213422 
L 257.988706 166.213422 
L 257.988706 166.213422 
L 257.449604 167.344425 
L 257.58438 166.966007 
L 257.719155 165.835003 
L 257.719155 165.835003 
L 257.449604 166.966007 
L 257.048565 167.344425 
L 256.779014 166.966007 
L 256.509462 167.722844 
L 256.509462 167.344425 
L 256.644238 166.587588 
L 256.374687 165.456585 
L 256.374687 165.456585 
L 256.779014 165.456585 
L 256.779014 165.835003 
L 256.644238 166.966007 
L 256.374687 167.722844 
L 256.374687 166.213422 
L 256.509462 164.699748 
L 256.509462 164.699748 
L 256.239911 164.699748 
L 255.973648 163.94291 
L 255.838872 164.321329 
L 255.973648 165.456585 
L 255.704096 165.456585 
L 254.89873 163.94291 
L 255.033506 163.564492 
L 255.29977 163.94291 
L 255.29977 165.078166 
L 255.164994 165.456585 
L 254.89873 164.699748 
L 254.89873 164.321329 
L 255.164994 165.078166 
L 255.29977 165.078166 
L 255.29977 164.699748 
L 255.164994 164.699748 
L 254.89873 165.456585 
L 254.763955 165.078166 
L 254.763955 164.321329 
L 254.89873 163.564492 
L 254.629179 165.078166 
L 254.89873 163.564492 
L 254.89873 162.807655 
L 254.629179 162.433488 
L 254.494404 162.05507 
L 254.494404 161.298233 
L 254.629179 161.298233 
L 254.093364 161.298233 
L 253.823813 161.676651 
L 253.823813 161.676651 
L 253.958589 162.05507 
L 254.224853 162.433488 
L 254.093364 162.807655 
L 253.823813 160.919814 
L 254.093364 160.541395 
L 254.224853 160.919814 
L 253.554262 160.919814 
L 253.419487 160.541395 
L 254.224853 160.541395 
L 255.033506 160.919814 
L 255.973648 160.919814 
L 258.928848 156.761462 
L 261.075395 155.247788 
L 267.255346 152.60311 
L 271.420239 149.958432 
L 275.986171 146.556917 
L 285.791913 140.506472 
L 291.166499 136.726538 
L 296.807348 132.946605 
L 302.448197 129.923508 
L 308.358598 127.27883 
L 314.268998 125.008319 
L 319.775072 122.363641 
L 325.149657 120.097382 
L 330.520956 118.205289 
L 335.895541 115.93903 
L 341.132064 113.2901 
L 346.237098 111.023841 
L 351.207357 108.379163 
L 360.608772 103.085555 
L 365.30948 100.819295 
L 369.743924 99.305621 
L 374.040305 97.413529 
L 378.205198 95.147269 
L 381.965764 92.502591 
L 388.546755 88.344239 
L 390.831365 86.452146 
L 392.711648 85.695309 
L 397.412356 85.695309 
L 398.352497 84.942724 
L 398.487273 84.185887 
L 398.352497 83.42905 
L 398.086233 83.42905 
L 397.547131 84.942724 
L 397.011316 86.830565 
L 396.741765 87.208984 
L 396.60699 86.452146 
L 396.071175 86.452146 
L 395.265809 87.208984 
L 394.591931 88.344239 
L 394.056116 88.344239 
L 393.651789 87.965821 
L 393.115974 87.965821 
L 392.175833 89.101076 
L 392.041057 89.853661 
L 392.041057 90.610499 
L 391.906282 90.988917 
L 391.636731 90.988917 
L 391.501955 90.610499 
L 391.501955 90.610499 
L 391.235691 90.23208 
L 390.831365 90.23208 
L 390.696589 90.610499 
L 390.696589 92.502591 
L 390.696589 92.502591 
L 390.430325 90.988917 
L 390.160774 91.745754 
L 389.891223 92.88101 
L 390.025999 93.633595 
L 390.160774 93.255176 
L 390.160774 92.88101 
L 389.891223 93.255176 
L 389.490184 92.88101 
L 389.085857 90.988917 
L 388.681531 90.610499 
L 388.415267 91.367336 
L 388.01094 93.633595 
L 387.475125 90.610499 
L 387.606614 90.988917 
L 387.741389 90.610499 
L 387.475125 90.610499 
L 387.34035 92.502591 
L 387.475125 91.367336 
L 387.606614 92.124173 
L 387.606614 91.745754 
L 387.606614 90.988917 
L 387.876165 90.610499 
L 387.876165 90.610499 
L 387.606614 91.367336 
L 387.205574 91.745754 
L 387.205574 91.745754 
L 386.936023 91.367336 
L 386.666472 90.23208 
L 387.070799 91.745754 
L 386.936023 91.745754 
L 386.801248 91.745754 
L 386.666472 92.88101 
L 386.666472 92.124173 
L 386.534984 91.367336 
L 386.265433 90.988917 
L 386.265433 90.610499 
L 386.400208 90.23208 
L 386.265433 90.23208 
L 386.130657 92.124173 
L 386.130657 92.124173 
L 385.995881 91.367336 
L 385.861106 91.367336 
L 385.861106 91.745754 
L 385.861106 90.988917 
L 385.72633 90.610499 
L 385.460067 90.610499 
L 385.325291 90.988917 
L 385.325291 90.610499 
L 385.05574 89.853661 
L 384.786189 89.475243 
L 384.654701 89.853661 
L 384.920964 91.367336 
L 384.786189 90.23208 
L 384.654701 89.101076 
L 384.654701 89.101076 
L 384.385149 89.101076 
L 384.385149 89.101076 
L 384.250374 89.475243 
L 384.250374 90.23208 
L 384.385149 90.610499 
L 384.786189 90.988917 
L 384.250374 89.475243 
L 383.980823 87.965821 
L 384.250374 89.101076 
L 384.385149 89.475243 
L 384.385149 89.475243 
L 384.250374 89.853661 
L 384.250374 89.475243 
L 384.519925 87.208984 
L 384.385149 86.073728 
L 384.115598 85.695309 
L 383.846047 86.073728 
L 383.846047 86.073728 
L 383.980823 84.942724 
L 384.115598 86.073728 
L 384.519925 87.208984 
L 384.786189 86.830565 
L 384.920964 84.942724 
L 384.786189 83.807469 
L 385.05574 83.807469 
L 385.72633 83.050631 
L 385.460067 81.915376 
L 385.05574 81.162791 
L 384.920964 81.541209 
L 385.325291 80.405953 
L 385.72633 79.649116 
L 385.995881 78.892279 
L 385.995881 78.513861 
L 385.72633 78.513861 
L 385.460067 77.757024 
L 385.325291 76.62602 
L 385.325291 77.004438 
L 385.05574 76.62602 
L 384.786189 76.62602 
L 384.654701 76.247601 
L 384.786189 75.869183 
L 384.920964 75.112346 
L 384.920964 75.112346 
L 385.05574 75.112346 
L 385.190515 74.733927 
L 385.05574 73.224505 
L 384.786189 72.467668 
L 384.519925 70.953994 
L 384.385149 70.953994 
L 384.250374 70.575575 
L 384.250374 70.197157 
L 384.519925 70.953994 
L 384.654701 71.710831 
L 384.115598 68.309316 
L 383.310232 67.17406 
L 383.445008 67.552479 
L 383.175457 66.795642 
L 383.040681 66.043056 
L 383.310232 65.664638 
L 383.711272 64.907801 
L 383.711272 64.529382 
L 383.310232 65.664638 
L 383.040681 66.043056 
L 383.175457 65.664638 
L 383.445008 64.907801 
L 383.175457 64.529382 
L 383.040681 65.664638 
L 383.175457 64.529382 
L 383.175457 63.772545 
L 383.445008 61.506286 
L 383.310232 61.506286 
L 383.175457 61.884704 
L 382.639642 62.637289 
L 382.77113 62.258871 
L 382.77113 61.506286 
L 382.639642 61.127867 
L 382.504866 60.37103 
L 383.040681 59.614193 
L 383.040681 60.749449 
L 382.905906 61.127867 
L 382.504866 58.478937 
L 382.77113 58.857356 
L 383.310232 59.235774 
L 383.310232 58.857356 
L 383.040681 57.726352 
L 382.905906 58.104771 
L 382.639642 58.104771 
L 382.639642 57.726352 
L 382.639642 58.104771 
L 382.77113 58.104771 
L 382.77113 57.347934 
L 382.639642 58.104771 
L 382.639642 59.235774 
L 382.77113 59.235774 
L 383.445008 58.104771 
L 383.310232 58.104771 
L 383.175457 58.104771 
L 383.846047 59.992611 
L 383.711272 60.37103 
L 383.310232 59.614193 
L 383.310232 58.857356 
L 383.310232 58.857356 
L 383.175457 58.857356 
L 382.905906 58.478937 
L 382.905906 58.857356 
L 383.040681 59.614193 
L 383.579783 59.614193 
L 383.579783 59.992611 
L 383.579783 59.992611 
L 382.905906 59.992611 
L 383.040681 59.614193 
L 383.445008 58.857356 
L 383.711272 58.857356 
L 383.579783 59.235774 
L 383.445008 59.992611 
L 383.579783 59.235774 
L 383.711272 59.235774 
L 383.711272 59.614193 
L 383.579783 59.235774 
L 383.445008 58.478937 
L 383.579783 59.614193 
L 383.579783 59.992611 
L 383.711272 59.235774 
L 383.711272 58.478937 
L 383.711272 58.857356 
L 383.579783 59.614193 
L 383.175457 59.614193 
L 383.040681 59.235774 
L 383.310232 58.857356 
L 383.310232 59.235774 
L 383.175457 59.235774 
L 383.175457 59.614193 
L 383.310232 59.235774 
L 383.175457 58.857356 
L 383.175457 59.235774 
L 383.445008 59.992611 
L 383.445008 59.992611 
L 383.175457 58.857356 
L 382.905906 58.857356 
L 383.040681 59.614193 
L 383.711272 59.614193 
L 383.040681 59.614193 
L 382.77113 59.235774 
L 382.639642 58.857356 
L 382.639642 58.857356 
L 382.905906 58.857356 
L 383.040681 59.235774 
L 382.77113 59.235774 
L 382.504866 58.857356 
L 382.504866 58.478937 
L 382.905906 59.235774 
L 382.504866 59.235774 
L 382.370091 59.614193 
L 382.10054 59.992611 
L 382.235315 60.37103 
L 382.370091 60.37103 
L 382.504866 60.749449 
L 382.235315 60.749449 
L 382.235315 59.992611 
L 382.504866 59.614193 
L 382.504866 59.235774 
L 382.10054 59.235774 
L 382.235315 59.992611 
L 382.235315 61.506286 
L 381.965764 62.258871 
L 381.830989 61.884704 
L 381.830989 61.506286 
L 381.965764 61.127867 
L 381.965764 61.127867 
L 381.429949 61.127867 
L 381.429949 59.614193 
L 381.295174 58.857356 
L 381.295174 56.591096 
L 381.295174 59.235774 
L 381.564725 59.992611 
L 381.564725 59.614193 
L 381.564725 59.992611 
L 381.295174 59.992611 
L 380.890847 59.614193 
L 380.890847 59.614193 
L 380.355032 58.104771 
L 380.624583 58.478937 
L 381.160398 58.857356 
L 381.429949 59.235774 
L 381.160398 59.235774 
L 381.160398 59.614193 
L 381.429949 59.992611 
L 381.6995 61.884704 
L 381.830989 61.506286 
L 381.564725 60.749449 
L 381.295174 60.37103 
L 380.624583 60.37103 
L 380.489808 59.614193 
L 380.624583 58.478937 
L 381.025623 59.235774 
L 381.160398 60.37103 
L 380.890847 60.37103 
L 380.890847 60.37103 
L 381.025623 59.992611 
L 381.295174 58.478937 
L 381.295174 58.857356 
L 381.564725 59.614193 
L 381.830989 59.992611 
L 381.6995 60.37103 
L 381.429949 60.749449 
L 381.160398 60.37103 
L 381.160398 58.478937 
L 381.429949 58.478937 
L 381.564725 58.857356 
L 381.564725 58.857356 
L 381.564725 59.235774 
L 381.429949 58.857356 
L 381.160398 58.857356 
L 381.025623 59.235774 
L 381.160398 59.614193 
L 381.6995 59.992611 
L 381.564725 59.235774 
L 381.295174 58.857356 
L 381.160398 59.235774 
L 381.160398 59.992611 
L 381.295174 59.992611 
L 381.295174 59.614193 
L 380.890847 59.235774 
L 380.759359 58.857356 
L 380.759359 58.857356 
L 381.025623 58.857356 
L 381.160398 59.235774 
L 381.160398 58.857356 
L 381.025623 58.478937 
L 380.624583 59.614193 
L 380.759359 59.614193 
L 380.759359 58.478937 
L 380.489808 56.969515 
L 380.890847 57.726352 
L 381.429949 59.235774 
L 381.160398 58.104771 
L 381.160398 58.478937 
L 381.160398 58.104771 
L 380.890847 58.478937 
L 380.489808 59.235774 
L 380.624583 59.614193 
L 381.025623 59.235774 
L 381.160398 58.857356 
L 380.890847 58.104771 
L 380.890847 57.347934 
L 381.160398 57.347934 
L 381.295174 57.726352 
L 381.025623 57.726352 
L 381.025623 56.591096 
L 381.025623 57.347934 
L 380.624583 58.478937 
L 380.489808 58.478937 
L 380.759359 57.347934 
L 380.890847 56.212678 
L 381.025623 56.212678 
L 380.890847 57.347934 
L 380.759359 57.347934 
L 380.759359 56.212678 
L 380.890847 55.455841 
L 380.624583 57.347934 
L 380.759359 57.726352 
L 380.890847 57.726352 
L 381.025623 57.347934 
L 381.160398 57.347934 
L 381.025623 56.591096 
L 380.759359 55.834259 
L 380.624583 55.077422 
L 380.759359 54.324837 
L 380.890847 54.324837 
L 380.890847 54.699004 
L 380.624583 56.212678 
L 380.624583 55.834259 
L 380.489808 55.834259 
L 380.489808 55.455841 
L 380.624583 55.455841 
L 380.759359 55.834259 
L 381.025623 55.834259 
L 381.025623 55.834259 
L 381.025623 54.699004 
L 380.890847 54.699004 
L 380.759359 55.455841 
L 380.890847 56.212678 
L 381.564725 55.077422 
L 381.564725 55.834259 
L 381.160398 56.591096 
L 381.295174 56.212678 
L 381.295174 55.834259 
L 381.160398 55.077422 
L 381.160398 54.324837 
L 381.295174 53.946419 
L 381.295174 54.699004 
L 381.160398 55.455841 
L 381.295174 55.077422 
L 381.025623 54.324837 
L 380.890847 53.568 
L 380.624583 53.568 
L 381.025623 55.455841 
L 381.025623 55.455841 
L 380.759359 55.077422 
L 380.759359 54.324837 
L 381.160398 54.699004 
L 381.295174 55.834259 
L 380.890847 56.969515 
L 380.355032 56.969515 
L 380.085481 56.212678 
L 380.220257 55.834259 
L 380.489808 55.834259 
L 380.489808 56.212678 
L 380.355032 55.834259 
L 380.489808 55.455841 
L 380.759359 55.455841 
L 380.759359 56.212678 
L 380.489808 56.591096 
L 380.355032 56.212678 
L 380.355032 56.212678 
L 380.355032 56.591096 
L 380.220257 56.591096 
L 380.489808 55.834259 
L 380.355032 55.834259 
L 380.220257 56.591096 
L 380.220257 56.591096 
L 380.624583 56.591096 
L 380.489808 56.212678 
L 380.355032 56.212678 
L 380.489808 56.212678 
L 380.489808 55.834259 
L 380.355032 55.455841 
L 380.220257 55.455841 
L 380.220257 54.324837 
L 380.220257 54.699004 
L 380.624583 55.834259 
L 380.759359 55.455841 
L 380.759359 55.077422 
L 380.489808 55.077422 
L 380.220257 55.455841 
L 379.950706 55.455841 
L 380.085481 55.455841 
L 380.085481 56.212678 
L 379.81593 56.969515 
L 379.549666 56.969515 
L 379.280115 56.591096 
L 379.280115 56.969515 
L 379.280115 56.969515 
L 379.684442 56.969515 
L 379.549666 56.591096 
L 379.414891 55.834259 
L 379.414891 55.077422 
L 379.81593 55.077422 
L 379.684442 55.455841 
L 379.684442 55.455841 
L 379.81593 55.834259 
L 379.950706 55.455841 
L 379.684442 55.077422 
L 379.414891 55.077422 
L 379.414891 55.834259 
L 379.14534 54.699004 
L 379.14534 55.455841 
L 379.280115 56.212678 
L 379.414891 56.212678 
L 379.414891 54.324837 
L 379.14534 54.324837 
L 378.875788 54.699004 
L 378.875788 54.699004 
L 379.14534 54.699004 
L 379.010564 55.077422 
L 378.609525 55.834259 
L 378.070422 56.212678 
L 377.265056 55.455841 
L 376.055364 54.699004 
L 373.908817 56.212678 
L 372.160022 55.455841 
L 370.684066 55.834259 
L 368.938558 56.591096 
L 363.968299 56.591096 
L 362.35428 56.969515 
L 361.013099 57.726352 
L 360.207733 58.857356 
L 359.39908 59.614193 
L 358.192674 59.614193 
L 354.563596 58.857356 
L 352.818089 59.235774 
L 349.192298 61.506286 
L 345.296957 63.772545 
L 343.147122 64.529382 
L 340.057147 65.286219 
L 337.775824 66.795642 
L 332.940341 69.82299 
L 332.000199 70.575575 
L 331.191546 70.953994 
L 330.655731 71.710831 
L 330.38618 72.846086 
L 330.38618 74.355509 
L 330.520956 74.733927 
L 330.655731 73.602923 
L 330.520956 72.467668 
L 330.38618 72.846086 
L 330.655731 74.355509 
L 331.191546 73.602923 
L 331.326322 73.97709 
L 331.191546 73.97709 
L 331.461097 73.224505 
L 331.730648 72.846086 
L 332.131688 73.224505 
L 332.266463 74.355509 
L 331.865424 75.869183 
L 331.865424 75.112346 
L 331.730648 75.490764 
L 331.730648 76.247601 
L 331.326322 76.62602 
L 330.925282 77.382857 
L 330.655731 77.382857 
L 330.790507 77.757024 
L 330.790507 76.62602 
L 330.655731 76.247601 
L 330.655731 76.62602 
L 330.520956 76.62602 
L 330.38618 77.004438 
L 330.655731 78.513861 
L 330.655731 78.135442 
L 330.925282 77.382857 
L 331.060058 76.62602 
L 331.060058 76.62602 
L 330.790507 76.62602 
L 330.520956 75.869183 
L 330.251404 75.490764 
L 330.251404 76.247601 
L 330.38618 77.004438 
L 330.655731 77.382857 
L 331.461097 76.62602 
L 331.191546 77.004438 
L 330.925282 77.382857 
L 331.060058 77.382857 
L 331.326322 77.382857 
L 331.461097 77.757024 
L 330.655731 77.757024 
L 330.790507 77.757024 
L 330.790507 78.135442 
L 330.655731 78.513861 
L 330.790507 78.513861 
L 331.326322 78.892279 
L 331.060058 78.513861 
L 330.790507 78.513861 
L 330.790507 77.757024 
L 330.925282 77.757024 
L 330.790507 78.513861 
L 330.925282 79.270698 
L 330.790507 79.649116 
L 330.655731 79.649116 
L 330.790507 79.649116 
L 330.790507 81.162791 
L 330.790507 80.027535 
L 330.520956 80.784372 
L 330.38618 80.027535 
L 330.38618 80.405953 
L 330.251404 80.405953 
L 330.251404 79.270698 
L 330.655731 79.649116 
L 330.925282 81.541209 
L 330.790507 81.541209 
L 330.655731 81.162791 
L 330.790507 80.784372 
L 330.790507 79.649116 
L 330.790507 79.649116 
L 330.925282 81.162791 
L 331.191546 82.293794 
L 331.060058 81.915376 
L 330.790507 81.541209 
L 330.790507 81.915376 
L 331.326322 82.672213 
L 331.730648 83.050631 
L 331.730648 82.293794 
L 331.326322 80.784372 
L 331.191546 81.162791 
L 331.060058 81.162791 
L 330.925282 80.784372 
L 330.925282 80.405953 
L 331.060058 80.405953 
L 332.131688 79.649116 
L 332.131688 78.513861 
L 332.000199 78.513861 
L 331.865424 78.892279 
L 332.000199 80.027535 
L 332.266463 80.405953 
L 332.266463 79.270698 
L 332.401239 78.513861 
L 332.805565 77.382857 
L 333.071829 77.004438 
L 333.071829 76.62602 
L 333.071829 77.004438 
L 332.940341 76.62602 
L 332.940341 75.490764 
L 333.071829 75.490764 
L 333.206605 75.869183 
L 333.071829 76.247601 
L 332.940341 76.247601 
L 332.940341 76.62602 
L 333.476156 75.869183 
L 333.610931 75.112346 
L 333.610931 73.97709 
L 333.206605 72.846086 
L 333.206605 72.846086 
L 333.34138 72.089249 
L 333.610931 72.089249 
L 333.610931 71.332412 
L 333.476156 70.575575 
L 333.476156 70.575575 
L 333.610931 70.575575 
L 333.610931 70.575575 
L 333.34138 70.197157 
L 333.206605 69.444571 
L 333.476156 68.687734 
L 333.476156 68.309316 
L 333.34138 68.309316 
L 332.940341 68.687734 
L 333.071829 68.309316 
L 334.015258 66.417223 
L 334.015258 66.043056 
L 333.610931 66.043056 
L 333.206605 66.795642 
L 333.206605 67.17406 
L 333.206605 64.907801 
L 333.34138 64.907801 
L 333.476156 65.664638 
L 333.476156 65.664638 
L 333.610931 64.907801 
L 333.610931 64.150964 
L 333.476156 63.772545 
L 333.34138 64.150964 
L 333.610931 63.394127 
L 333.745707 62.637289 
L 333.880482 63.015708 
L 333.745707 63.772545 
L 333.476156 63.772545 
L 332.805565 63.015708 
L 332.805565 63.015708 
L 332.805565 62.637289 
L 332.805565 62.637289 
L 333.206605 62.637289 
L 333.34138 61.884704 
L 332.805565 61.884704 
L 332.67079 62.258871 
L 332.67079 61.127867 
L 332.805565 60.749449 
L 332.940341 60.749449 
L 333.071829 60.37103 
L 333.206605 60.37103 
L 333.206605 60.749449 
L 332.940341 61.127867 
L 332.67079 61.884704 
L 332.401239 61.884704 
L 332.266463 61.506286 
L 332.266463 61.506286 
L 332.401239 61.506286 
L 332.940341 60.749449 
L 332.940341 60.37103 
L 332.805565 59.992611 
L 332.805565 59.992611 
L 332.805565 60.37103 
L 332.536014 60.37103 
L 332.536014 60.749449 
L 332.536014 60.749449 
L 332.401239 60.749449 
L 332.401239 60.37103 
L 332.266463 60.37103 
L 333.071829 60.37103 
L 333.206605 59.992611 
L 333.071829 59.614193 
L 332.940341 59.614193 
L 332.805565 59.992611 
L 332.805565 60.749449 
L 332.940341 61.127867 
L 332.940341 61.127867 
L 332.940341 61.506286 
L 332.805565 61.884704 
L 332.67079 61.127867 
L 332.805565 60.749449 
L 333.071829 60.749449 
L 332.940341 60.37103 
L 332.536014 59.614193 
L 332.67079 59.992611 
L 332.940341 59.614193 
L 333.206605 60.37103 
L 333.206605 60.749449 
L 333.206605 60.37103 
L 333.34138 59.235774 
L 332.940341 59.614193 
L 332.67079 60.37103 
L 332.67079 61.884704 
L 332.67079 61.884704 
L 332.940341 61.884704 
L 333.206605 62.258871 
L 333.071829 62.637289 
L 332.67079 62.637289 
L 332.266463 61.884704 
L 332.131688 61.884704 
L 332.131688 62.637289 
L 332.000199 62.637289 
L 332.000199 62.258871 
L 332.131688 61.884704 
L 332.000199 61.506286 
L 332.000199 61.127867 
L 332.131688 60.749449 
L 332.266463 60.749449 
L 332.401239 61.506286 
L 332.401239 62.258871 
L 332.266463 62.258871 
L 331.865424 61.506286 
L 332.000199 61.506286 
L 332.401239 62.637289 
L 332.401239 62.258871 
L 332.131688 61.884704 
L 331.865424 62.258871 
L 332.131688 61.884704 
L 332.131688 61.506286 
L 331.730648 61.506286 
L 331.730648 61.506286 
L 331.730648 62.258871 
L 331.595873 62.637289 
L 331.326322 62.258871 
L 331.326322 61.506286 
L 331.461097 61.506286 
L 331.730648 61.884704 
L 332.000199 61.884704 
L 332.131688 62.258871 
L 331.865424 62.258871 
L 331.865424 62.258871 
" style="fill:none;stroke:#1f77b4;stroke-linecap:square;stroke-width:1.5;"/>
   </g>
   <g id="matplotlib.axis_1">
    <g id="xtick_1">
     <g id="line2d_2">
      <defs>
       <path d="M 0 0 
L 0 3.5 
" id="m7596bdfec3" style="stroke:#000000;stroke-width:0.8;"/>
      </defs>
      <g>
       <use style="stroke:#000000;stroke-width:0.8;" x="99.68662" xlink:href="#m7596bdfec3" y="307.584"/>
      </g>
     </g>
     <g id="text_1">
      <!-- −800 -->
      <defs>
       <path d="M 10.59375 35.5 
L 73.1875 35.5 
L 73.1875 27.203125 
L 10.59375 27.203125 
z
" id="DejaVuSans-8722"/>
       <path d="M 31.78125 34.625 
Q 24.75 34.625 20.71875 30.859375 
Q 16.703125 27.09375 16.703125 20.515625 
Q 16.703125 13.921875 20.71875 10.15625 
Q 24.75 6.390625 31.78125 6.390625 
Q 38.8125 6.390625 42.859375 10.171875 
Q 46.921875 13.96875 46.921875 20.515625 
Q 46.921875 27.09375 42.890625 30.859375 
Q 38.875 34.625 31.78125 34.625 
z
M 21.921875 38.8125 
Q 15.578125 40.375 12.03125 44.71875 
Q 8.5 49.078125 8.5 55.328125 
Q 8.5 64.0625 14.71875 69.140625 
Q 20.953125 74.21875 31.78125 74.21875 
Q 42.671875 74.21875 48.875 69.140625 
Q 55.078125 64.0625 55.078125 55.328125 
Q 55.078125 49.078125 51.53125 44.71875 
Q 48 40.375 41.703125 38.8125 
Q 48.828125 37.15625 52.796875 32.3125 
Q 56.78125 27.484375 56.78125 20.515625 
Q 56.78125 9.90625 50.3125 4.234375 
Q 43.84375 -1.421875 31.78125 -1.421875 
Q 19.734375 -1.421875 13.25 4.234375 
Q 6.78125 9.90625 6.78125 20.515625 
Q 6.78125 27.484375 10.78125 32.3125 
Q 14.796875 37.15625 21.921875 38.8125 
z
M 18.3125 54.390625 
Q 18.3125 48.734375 21.84375 45.5625 
Q 25.390625 42.390625 31.78125 42.390625 
Q 38.140625 42.390625 41.71875 45.5625 
Q 45.3125 48.734375 45.3125 54.390625 
Q 45.3125 60.0625 41.71875 63.234375 
Q 38.140625 66.40625 31.78125 66.40625 
Q 25.390625 66.40625 21.84375 63.234375 
Q 18.3125 60.0625 18.3125 54.390625 
z
" id="DejaVuSans-56"/>
       <path d="M 31.78125 66.40625 
Q 24.171875 66.40625 20.328125 58.90625 
Q 16.5 51.421875 16.5 36.375 
Q 16.5 21.390625 20.328125 13.890625 
Q 24.171875 6.390625 31.78125 6.390625 
Q 39.453125 6.390625 43.28125 13.890625 
Q 47.125 21.390625 47.125 36.375 
Q 47.125 51.421875 43.28125 58.90625 
Q 39.453125 66.40625 31.78125 66.40625 
z
M 31.78125 74.21875 
Q 44.046875 74.21875 50.515625 64.515625 
Q 56.984375 54.828125 56.984375 36.375 
Q 56.984375 17.96875 50.515625 8.265625 
Q 44.046875 -1.421875 31.78125 -1.421875 
Q 19.53125 -1.421875 13.0625 8.265625 
Q 6.59375 17.96875 6.59375 36.375 
Q 6.59375 54.828125 13.0625 64.515625 
Q 19.53125 74.21875 31.78125 74.21875 
z
" id="DejaVuSans-48"/>
      </defs>
      <g transform="translate(85.953026 322.182437)scale(0.1 -0.1)">
       <use xlink:href="#DejaVuSans-8722"/>
       <use x="83.789062" xlink:href="#DejaVuSans-56"/>
       <use x="147.412109" xlink:href="#DejaVuSans-48"/>
       <use x="211.035156" xlink:href="#DejaVuSans-48"/>
      </g>
     </g>
    </g>
    <g id="xtick_2">
     <g id="line2d_3">
      <g>
       <use style="stroke:#000000;stroke-width:0.8;" x="165.430784" xlink:href="#m7596bdfec3" y="307.584"/>
      </g>
     </g>
     <g id="text_2">
      <!-- −600 -->
      <defs>
       <path d="M 33.015625 40.375 
Q 26.375 40.375 22.484375 35.828125 
Q 18.609375 31.296875 18.609375 23.390625 
Q 18.609375 15.53125 22.484375 10.953125 
Q 26.375 6.390625 33.015625 6.390625 
Q 39.65625 6.390625 43.53125 10.953125 
Q 47.40625 15.53125 47.40625 23.390625 
Q 47.40625 31.296875 43.53125 35.828125 
Q 39.65625 40.375 33.015625 40.375 
z
M 52.59375 71.296875 
L 52.59375 62.3125 
Q 48.875 64.0625 45.09375 64.984375 
Q 41.3125 65.921875 37.59375 65.921875 
Q 27.828125 65.921875 22.671875 59.328125 
Q 17.53125 52.734375 16.796875 39.40625 
Q 19.671875 43.65625 24.015625 45.921875 
Q 28.375 48.1875 33.59375 48.1875 
Q 44.578125 48.1875 50.953125 41.515625 
Q 57.328125 34.859375 57.328125 23.390625 
Q 57.328125 12.15625 50.6875 5.359375 
Q 44.046875 -1.421875 33.015625 -1.421875 
Q 20.359375 -1.421875 13.671875 8.265625 
Q 6.984375 17.96875 6.984375 36.375 
Q 6.984375 53.65625 15.1875 63.9375 
Q 23.390625 74.21875 37.203125 74.21875 
Q 40.921875 74.21875 44.703125 73.484375 
Q 48.484375 72.75 52.59375 71.296875 
z
" id="DejaVuSans-54"/>
      </defs>
      <g transform="translate(151.697191 322.182437)scale(0.1 -0.1)">
       <use xlink:href="#DejaVuSans-8722"/>
       <use x="83.789062" xlink:href="#DejaVuSans-54"/>
       <use x="147.412109" xlink:href="#DejaVuSans-48"/>
       <use x="211.035156" xlink:href="#DejaVuSans-48"/>
      </g>
     </g>
    </g>
    <g id="xtick_3">
     <g id="line2d_4">
      <g>
       <use style="stroke:#000000;stroke-width:0.8;" x="231.174949" xlink:href="#m7596bdfec3" y="307.584"/>
      </g>
     </g>
     <g id="text_3">
      <!-- −400 -->
      <defs>
       <path d="M 37.796875 64.3125 
L 12.890625 25.390625 
L 37.796875 25.390625 
z
M 35.203125 72.90625 
L 47.609375 72.90625 
L 47.609375 25.390625 
L 58.015625 25.390625 
L 58.015625 17.1875 
L 47.609375 17.1875 
L 47.609375 0 
L 37.796875 0 
L 37.796875 17.1875 
L 4.890625 17.1875 
L 4.890625 26.703125 
z
" id="DejaVuSans-52"/>
      </defs>
      <g transform="translate(217.441355 322.182437)scale(0.1 -0.1)">
       <use xlink:href="#DejaVuSans-8722"/>
       <use x="83.789062" xlink:href="#DejaVuSans-52"/>
       <use x="147.412109" xlink:href="#DejaVuSans-48"/>
       <use x="211.035156" xlink:href="#DejaVuSans-48"/>
      </g>
     </g>
    </g>
    <g id="xtick_4">
     <g id="line2d_5">
      <g>
       <use style="stroke:#000000;stroke-width:0.8;" x="296.919113" xlink:href="#m7596bdfec3" y="307.584"/>
      </g>
     </g>
     <g id="text_4">
      <!-- −200 -->
      <defs>
       <path d="M 19.1875 8.296875 
L 53.609375 8.296875 
L 53.609375 0 
L 7.328125 0 
L 7.328125 8.296875 
Q 12.9375 14.109375 22.625 23.890625 
Q 32.328125 33.6875 34.8125 36.53125 
Q 39.546875 41.84375 41.421875 45.53125 
Q 43.3125 49.21875 43.3125 52.78125 
Q 43.3125 58.59375 39.234375 62.25 
Q 35.15625 65.921875 28.609375 65.921875 
Q 23.96875 65.921875 18.8125 64.3125 
Q 13.671875 62.703125 7.8125 59.421875 
L 7.8125 69.390625 
Q 13.765625 71.78125 18.9375 73 
Q 24.125 74.21875 28.421875 74.21875 
Q 39.75 74.21875 46.484375 68.546875 
Q 53.21875 62.890625 53.21875 53.421875 
Q 53.21875 48.921875 51.53125 44.890625 
Q 49.859375 40.875 45.40625 35.40625 
Q 44.1875 33.984375 37.640625 27.21875 
Q 31.109375 20.453125 19.1875 8.296875 
z
" id="DejaVuSans-50"/>
      </defs>
      <g transform="translate(283.185519 322.182437)scale(0.1 -0.1)">
       <use xlink:href="#DejaVuSans-8722"/>
       <use x="83.789062" xlink:href="#DejaVuSans-50"/>
       <use x="147.412109" xlink:href="#DejaVuSans-48"/>
       <use x="211.035156" xlink:href="#DejaVuSans-48"/>
      </g>
     </g>
    </g>
    <g id="xtick_5">
     <g id="line2d_6">
      <g>
       <use style="stroke:#000000;stroke-width:0.8;" x="362.663278" xlink:href="#m7596bdfec3" y="307.584"/>
      </g>
     </g>
     <g id="text_5">
      <!-- 0 -->
      <g transform="translate(359.482028 322.182437)scale(0.1 -0.1)">
       <use xlink:href="#DejaVuSans-48"/>
      </g>
     </g>
    </g>
   </g>
   <g id="matplotlib.axis_2">
    <g id="ytick_1">
     <g id="line2d_7">
      <defs>
       <path d="M 0 0 
L -3.5 0 
" id="mc8ea2c4b5d" style="stroke:#000000;stroke-width:0.8;"/>
      </defs>
      <g>
       <use style="stroke:#000000;stroke-width:0.8;" x="57.6" xlink:href="#mc8ea2c4b5d" y="271.894241"/>
      </g>
     </g>
     <g id="text_6">
      <!-- −1000 -->
      <defs>
       <path d="M 12.40625 8.296875 
L 28.515625 8.296875 
L 28.515625 63.921875 
L 10.984375 60.40625 
L 10.984375 69.390625 
L 28.421875 72.90625 
L 38.28125 72.90625 
L 38.28125 8.296875 
L 54.390625 8.296875 
L 54.390625 0 
L 12.40625 0 
z
" id="DejaVuSans-49"/>
      </defs>
      <g transform="translate(16.770313 275.69346)scale(0.1 -0.1)">
       <use xlink:href="#DejaVuSans-8722"/>
       <use x="83.789062" xlink:href="#DejaVuSans-49"/>
       <use x="147.412109" xlink:href="#DejaVuSans-48"/>
       <use x="211.035156" xlink:href="#DejaVuSans-48"/>
       <use x="274.658203" xlink:href="#DejaVuSans-48"/>
      </g>
     </g>
    </g>
    <g id="ytick_2">
     <g id="line2d_8">
      <g>
       <use style="stroke:#000000;stroke-width:0.8;" x="57.6" xlink:href="#mc8ea2c4b5d" y="229.375304"/>
      </g>
     </g>
     <g id="text_7">
      <!-- −900 -->
      <defs>
       <path d="M 10.984375 1.515625 
L 10.984375 10.5 
Q 14.703125 8.734375 18.5 7.8125 
Q 22.3125 6.890625 25.984375 6.890625 
Q 35.75 6.890625 40.890625 13.453125 
Q 46.046875 20.015625 46.78125 33.40625 
Q 43.953125 29.203125 39.59375 26.953125 
Q 35.25 24.703125 29.984375 24.703125 
Q 19.046875 24.703125 12.671875 31.3125 
Q 6.296875 37.9375 6.296875 49.421875 
Q 6.296875 60.640625 12.9375 67.421875 
Q 19.578125 74.21875 30.609375 74.21875 
Q 43.265625 74.21875 49.921875 64.515625 
Q 56.59375 54.828125 56.59375 36.375 
Q 56.59375 19.140625 48.40625 8.859375 
Q 40.234375 -1.421875 26.421875 -1.421875 
Q 22.703125 -1.421875 18.890625 -0.6875 
Q 15.09375 0.046875 10.984375 1.515625 
z
M 30.609375 32.421875 
Q 37.25 32.421875 41.125 36.953125 
Q 45.015625 41.5 45.015625 49.421875 
Q 45.015625 57.28125 41.125 61.84375 
Q 37.25 66.40625 30.609375 66.40625 
Q 23.96875 66.40625 20.09375 61.84375 
Q 16.21875 57.28125 16.21875 49.421875 
Q 16.21875 41.5 20.09375 36.953125 
Q 23.96875 32.421875 30.609375 32.421875 
z
" id="DejaVuSans-57"/>
      </defs>
      <g transform="translate(23.132812 233.174522)scale(0.1 -0.1)">
       <use xlink:href="#DejaVuSans-8722"/>
       <use x="83.789062" xlink:href="#DejaVuSans-57"/>
       <use x="147.412109" xlink:href="#DejaVuSans-48"/>
       <use x="211.035156" xlink:href="#DejaVuSans-48"/>
      </g>
     </g>
    </g>
    <g id="ytick_3">
     <g id="line2d_9">
      <g>
       <use style="stroke:#000000;stroke-width:0.8;" x="57.6" xlink:href="#mc8ea2c4b5d" y="186.856366"/>
      </g>
     </g>
     <g id="text_8">
      <!-- −800 -->
      <g transform="translate(23.132812 190.655585)scale(0.1 -0.1)">
       <use xlink:href="#DejaVuSans-8722"/>
       <use x="83.789062" xlink:href="#DejaVuSans-56"/>
       <use x="147.412109" xlink:href="#DejaVuSans-48"/>
       <use x="211.035156" xlink:href="#DejaVuSans-48"/>
      </g>
     </g>
    </g>
    <g id="ytick_4">
     <g id="line2d_10">
      <g>
       <use style="stroke:#000000;stroke-width:0.8;" x="57.6" xlink:href="#mc8ea2c4b5d" y="144.337428"/>
      </g>
     </g>
     <g id="text_9">
      <!-- −700 -->
      <defs>
       <path d="M 8.203125 72.90625 
L 55.078125 72.90625 
L 55.078125 68.703125 
L 28.609375 0 
L 18.3125 0 
L 43.21875 64.59375 
L 8.203125 64.59375 
z
" id="DejaVuSans-55"/>
      </defs>
      <g transform="translate(23.132812 148.136647)scale(0.1 -0.1)">
       <use xlink:href="#DejaVuSans-8722"/>
       <use x="83.789062" xlink:href="#DejaVuSans-55"/>
       <use x="147.412109" xlink:href="#DejaVuSans-48"/>
       <use x="211.035156" xlink:href="#DejaVuSans-48"/>
      </g>
     </g>
    </g>
    <g id="ytick_5">
     <g id="line2d_11">
      <g>
       <use style="stroke:#000000;stroke-width:0.8;" x="57.6" xlink:href="#mc8ea2c4b5d" y="101.818491"/>
      </g>
     </g>
     <g id="text_10">
      <!-- −600 -->
      <g transform="translate(23.132812 105.617709)scale(0.1 -0.1)">
       <use xlink:href="#DejaVuSans-8722"/>
       <use x="83.789062" xlink:href="#DejaVuSans-54"/>
       <use x="147.412109" xlink:href="#DejaVuSans-48"/>
       <use x="211.035156" xlink:href="#DejaVuSans-48"/>
      </g>
     </g>
    </g>
    <g id="ytick_6">
     <g id="line2d_12">
      <g>
       <use style="stroke:#000000;stroke-width:0.8;" x="57.6" xlink:href="#mc8ea2c4b5d" y="59.299553"/>
      </g>
     </g>
     <g id="text_11">
      <!-- −500 -->
      <defs>
       <path d="M 10.796875 72.90625 
L 49.515625 72.90625 
L 49.515625 64.59375 
L 19.828125 64.59375 
L 19.828125 46.734375 
Q 21.96875 47.46875 24.109375 47.828125 
Q 26.265625 48.1875 28.421875 48.1875 
Q 40.625 48.1875 47.75 41.5 
Q 54.890625 34.8125 54.890625 23.390625 
Q 54.890625 11.625 47.5625 5.09375 
Q 40.234375 -1.421875 26.90625 -1.421875 
Q 22.3125 -1.421875 17.546875 -0.640625 
Q 12.796875 0.140625 7.71875 1.703125 
L 7.71875 11.625 
Q 12.109375 9.234375 16.796875 8.0625 
Q 21.484375 6.890625 26.703125 6.890625 
Q 35.15625 6.890625 40.078125 11.328125 
Q 45.015625 15.765625 45.015625 23.390625 
Q 45.015625 31 40.078125 35.4375 
Q 35.15625 39.890625 26.703125 39.890625 
Q 22.75 39.890625 18.8125 39.015625 
Q 14.890625 38.140625 10.796875 36.28125 
z
" id="DejaVuSans-53"/>
      </defs>
      <g transform="translate(23.132812 63.098772)scale(0.1 -0.1)">
       <use xlink:href="#DejaVuSans-8722"/>
       <use x="83.789062" xlink:href="#DejaVuSans-53"/>
       <use x="147.412109" xlink:href="#DejaVuSans-48"/>
       <use x="211.035156" xlink:href="#DejaVuSans-48"/>
      </g>
     </g>
    </g>
   </g>
   <g id="line2d_13">
    <path clip-path="url(#p1e0990583d)" d="M 76.1029 289.82474 
L 258.668505 163.102971 
L 387.502306 89.271657 
L 381.058269 59.223141 
L 332.466334 69.722875 
" style="fill:none;stroke:#ff0000;stroke-linecap:square;stroke-width:0.5;"/>
   </g>
   <g id="patch_3">
    <path d="M 57.6 307.584 
L 57.6 41.472 
" style="fill:none;stroke:#000000;stroke-linecap:square;stroke-linejoin:miter;stroke-width:0.8;"/>
   </g>
   <g id="patch_4">
    <path d="M 414.72 307.584 
L 414.72 41.472 
" style="fill:none;stroke:#000000;stroke-linecap:square;stroke-linejoin:miter;stroke-width:0.8;"/>
   </g>
   <g id="patch_5">
    <path d="M 57.6 307.584 
L 414.72 307.584 
" style="fill:none;stroke:#000000;stroke-linecap:square;stroke-linejoin:miter;stroke-width:0.8;"/>
   </g>
   <g id="patch_6">
    <path d="M 57.6 41.472 
L 414.72 41.472 
" style="fill:none;stroke:#000000;stroke-linecap:square;stroke-linejoin:miter;stroke-width:0.8;"/>
   </g>
   <g id="PathCollection_1">
    <defs>
     <path d="M 0 2.738613 
C 0.726289 2.738613 1.422928 2.450055 1.936492 1.936492 
C 2.450055 1.422928 2.738613 0.726289 2.738613 0 
C 2.738613 -0.726289 2.450055 -1.422928 1.936492 -1.936492 
C 1.422928 -2.450055 0.726289 -2.738613 0 -2.738613 
C -0.726289 -2.738613 -1.422928 -2.450055 -1.936492 -1.936492 
C -2.450055 -1.422928 -2.738613 -0.726289 -2.738613 0 
C -2.738613 0.726289 -2.450055 1.422928 -1.936492 1.936492 
C -1.422928 2.450055 -0.726289 2.738613 0 2.738613 
z
" id="m5c7ac0488d" style="stroke:#ff0000;"/>
    </defs>
    <g clip-path="url(#p1e0990583d)">
     <use style="fill:#ff0000;stroke:#ff0000;" x="76.1029" xlink:href="#m5c7ac0488d" y="289.82474"/>
     <use style="fill:#ff0000;stroke:#ff0000;" x="258.668505" xlink:href="#m5c7ac0488d" y="163.102971"/>
     <use style="fill:#ff0000;stroke:#ff0000;" x="387.502306" xlink:href="#m5c7ac0488d" y="89.271657"/>
     <use style="fill:#ff0000;stroke:#ff0000;" x="381.058269" xlink:href="#m5c7ac0488d" y="59.223141"/>
     <use style="fill:#ff0000;stroke:#ff0000;" x="332.466334" xlink:href="#m5c7ac0488d" y="69.722875"/>
    </g>
   </g>
   <g id="text_12">
    <!-- (111) Subject: s7, Known = False, Degree = 1, Duration = 0.1 -->
    <defs>
     <path d="M 31 75.875 
Q 24.46875 64.65625 21.28125 53.65625 
Q 18.109375 42.671875 18.109375 31.390625 
Q 18.109375 20.125 21.3125 9.0625 
Q 24.515625 -2 31 -13.1875 
L 23.1875 -13.1875 
Q 15.875 -1.703125 12.234375 9.375 
Q 8.59375 20.453125 8.59375 31.390625 
Q 8.59375 42.28125 12.203125 53.3125 
Q 15.828125 64.359375 23.1875 75.875 
z
" id="DejaVuSans-40"/>
     <path d="M 8.015625 75.875 
L 15.828125 75.875 
Q 23.140625 64.359375 26.78125 53.3125 
Q 30.421875 42.28125 30.421875 31.390625 
Q 30.421875 20.453125 26.78125 9.375 
Q 23.140625 -1.703125 15.828125 -13.1875 
L 8.015625 -13.1875 
Q 14.5 -2 17.703125 9.0625 
Q 20.90625 20.125 20.90625 31.390625 
Q 20.90625 42.671875 17.703125 53.65625 
Q 14.5 64.65625 8.015625 75.875 
z
" id="DejaVuSans-41"/>
     <path id="DejaVuSans-32"/>
     <path d="M 53.515625 70.515625 
L 53.515625 60.890625 
Q 47.90625 63.578125 42.921875 64.890625 
Q 37.9375 66.21875 33.296875 66.21875 
Q 25.25 66.21875 20.875 63.09375 
Q 16.5 59.96875 16.5 54.203125 
Q 16.5 49.359375 19.40625 46.890625 
Q 22.3125 44.4375 30.421875 42.921875 
L 36.375 41.703125 
Q 47.40625 39.59375 52.65625 34.296875 
Q 57.90625 29 57.90625 20.125 
Q 57.90625 9.515625 50.796875 4.046875 
Q 43.703125 -1.421875 29.984375 -1.421875 
Q 24.8125 -1.421875 18.96875 -0.25 
Q 13.140625 0.921875 6.890625 3.21875 
L 6.890625 13.375 
Q 12.890625 10.015625 18.65625 8.296875 
Q 24.421875 6.59375 29.984375 6.59375 
Q 38.421875 6.59375 43.015625 9.90625 
Q 47.609375 13.234375 47.609375 19.390625 
Q 47.609375 24.75 44.3125 27.78125 
Q 41.015625 30.8125 33.5 32.328125 
L 27.484375 33.5 
Q 16.453125 35.6875 11.515625 40.375 
Q 6.59375 45.0625 6.59375 53.421875 
Q 6.59375 63.09375 13.40625 68.65625 
Q 20.21875 74.21875 32.171875 74.21875 
Q 37.3125 74.21875 42.625 73.28125 
Q 47.953125 72.359375 53.515625 70.515625 
z
" id="DejaVuSans-83"/>
     <path d="M 8.5 21.578125 
L 8.5 54.6875 
L 17.484375 54.6875 
L 17.484375 21.921875 
Q 17.484375 14.15625 20.5 10.265625 
Q 23.53125 6.390625 29.59375 6.390625 
Q 36.859375 6.390625 41.078125 11.03125 
Q 45.3125 15.671875 45.3125 23.6875 
L 45.3125 54.6875 
L 54.296875 54.6875 
L 54.296875 0 
L 45.3125 0 
L 45.3125 8.40625 
Q 42.046875 3.421875 37.71875 1 
Q 33.40625 -1.421875 27.6875 -1.421875 
Q 18.265625 -1.421875 13.375 4.4375 
Q 8.5 10.296875 8.5 21.578125 
z
M 31.109375 56 
z
" id="DejaVuSans-117"/>
     <path d="M 48.6875 27.296875 
Q 48.6875 37.203125 44.609375 42.84375 
Q 40.53125 48.484375 33.40625 48.484375 
Q 26.265625 48.484375 22.1875 42.84375 
Q 18.109375 37.203125 18.109375 27.296875 
Q 18.109375 17.390625 22.1875 11.75 
Q 26.265625 6.109375 33.40625 6.109375 
Q 40.53125 6.109375 44.609375 11.75 
Q 48.6875 17.390625 48.6875 27.296875 
z
M 18.109375 46.390625 
Q 20.953125 51.265625 25.265625 53.625 
Q 29.59375 56 35.59375 56 
Q 45.5625 56 51.78125 48.09375 
Q 58.015625 40.1875 58.015625 27.296875 
Q 58.015625 14.40625 51.78125 6.484375 
Q 45.5625 -1.421875 35.59375 -1.421875 
Q 29.59375 -1.421875 25.265625 0.953125 
Q 20.953125 3.328125 18.109375 8.203125 
L 18.109375 0 
L 9.078125 0 
L 9.078125 75.984375 
L 18.109375 75.984375 
z
" id="DejaVuSans-98"/>
     <path d="M 9.421875 54.6875 
L 18.40625 54.6875 
L 18.40625 -0.984375 
Q 18.40625 -11.421875 14.421875 -16.109375 
Q 10.453125 -20.796875 1.609375 -20.796875 
L -1.8125 -20.796875 
L -1.8125 -13.1875 
L 0.59375 -13.1875 
Q 5.71875 -13.1875 7.5625 -10.8125 
Q 9.421875 -8.453125 9.421875 -0.984375 
z
M 9.421875 75.984375 
L 18.40625 75.984375 
L 18.40625 64.59375 
L 9.421875 64.59375 
z
" id="DejaVuSans-106"/>
     <path d="M 56.203125 29.59375 
L 56.203125 25.203125 
L 14.890625 25.203125 
Q 15.484375 15.921875 20.484375 11.0625 
Q 25.484375 6.203125 34.421875 6.203125 
Q 39.59375 6.203125 44.453125 7.46875 
Q 49.3125 8.734375 54.109375 11.28125 
L 54.109375 2.78125 
Q 49.265625 0.734375 44.1875 -0.34375 
Q 39.109375 -1.421875 33.890625 -1.421875 
Q 20.796875 -1.421875 13.15625 6.1875 
Q 5.515625 13.8125 5.515625 26.8125 
Q 5.515625 40.234375 12.765625 48.109375 
Q 20.015625 56 32.328125 56 
Q 43.359375 56 49.78125 48.890625 
Q 56.203125 41.796875 56.203125 29.59375 
z
M 47.21875 32.234375 
Q 47.125 39.59375 43.09375 43.984375 
Q 39.0625 48.390625 32.421875 48.390625 
Q 24.90625 48.390625 20.390625 44.140625 
Q 15.875 39.890625 15.1875 32.171875 
z
" id="DejaVuSans-101"/>
     <path d="M 48.78125 52.59375 
L 48.78125 44.1875 
Q 44.96875 46.296875 41.140625 47.34375 
Q 37.3125 48.390625 33.40625 48.390625 
Q 24.65625 48.390625 19.8125 42.84375 
Q 14.984375 37.3125 14.984375 27.296875 
Q 14.984375 17.28125 19.8125 11.734375 
Q 24.65625 6.203125 33.40625 6.203125 
Q 37.3125 6.203125 41.140625 7.25 
Q 44.96875 8.296875 48.78125 10.40625 
L 48.78125 2.09375 
Q 45.015625 0.34375 40.984375 -0.53125 
Q 36.96875 -1.421875 32.421875 -1.421875 
Q 20.0625 -1.421875 12.78125 6.34375 
Q 5.515625 14.109375 5.515625 27.296875 
Q 5.515625 40.671875 12.859375 48.328125 
Q 20.21875 56 33.015625 56 
Q 37.15625 56 41.109375 55.140625 
Q 45.0625 54.296875 48.78125 52.59375 
z
" id="DejaVuSans-99"/>
     <path d="M 18.3125 70.21875 
L 18.3125 54.6875 
L 36.8125 54.6875 
L 36.8125 47.703125 
L 18.3125 47.703125 
L 18.3125 18.015625 
Q 18.3125 11.328125 20.140625 9.421875 
Q 21.96875 7.515625 27.59375 7.515625 
L 36.8125 7.515625 
L 36.8125 0 
L 27.59375 0 
Q 17.1875 0 13.234375 3.875 
Q 9.28125 7.765625 9.28125 18.015625 
L 9.28125 47.703125 
L 2.6875 47.703125 
L 2.6875 54.6875 
L 9.28125 54.6875 
L 9.28125 70.21875 
z
" id="DejaVuSans-116"/>
     <path d="M 11.71875 12.40625 
L 22.015625 12.40625 
L 22.015625 0 
L 11.71875 0 
z
M 11.71875 51.703125 
L 22.015625 51.703125 
L 22.015625 39.3125 
L 11.71875 39.3125 
z
" id="DejaVuSans-58"/>
     <path d="M 44.28125 53.078125 
L 44.28125 44.578125 
Q 40.484375 46.53125 36.375 47.5 
Q 32.28125 48.484375 27.875 48.484375 
Q 21.1875 48.484375 17.84375 46.4375 
Q 14.5 44.390625 14.5 40.28125 
Q 14.5 37.15625 16.890625 35.375 
Q 19.28125 33.59375 26.515625 31.984375 
L 29.59375 31.296875 
Q 39.15625 29.25 43.1875 25.515625 
Q 47.21875 21.78125 47.21875 15.09375 
Q 47.21875 7.46875 41.1875 3.015625 
Q 35.15625 -1.421875 24.609375 -1.421875 
Q 20.21875 -1.421875 15.453125 -0.5625 
Q 10.6875 0.296875 5.421875 2 
L 5.421875 11.28125 
Q 10.40625 8.6875 15.234375 7.390625 
Q 20.0625 6.109375 24.8125 6.109375 
Q 31.15625 6.109375 34.5625 8.28125 
Q 37.984375 10.453125 37.984375 14.40625 
Q 37.984375 18.0625 35.515625 20.015625 
Q 33.0625 21.96875 24.703125 23.78125 
L 21.578125 24.515625 
Q 13.234375 26.265625 9.515625 29.90625 
Q 5.8125 33.546875 5.8125 39.890625 
Q 5.8125 47.609375 11.28125 51.796875 
Q 16.75 56 26.8125 56 
Q 31.78125 56 36.171875 55.265625 
Q 40.578125 54.546875 44.28125 53.078125 
z
" id="DejaVuSans-115"/>
     <path d="M 11.71875 12.40625 
L 22.015625 12.40625 
L 22.015625 4 
L 14.015625 -11.625 
L 7.71875 -11.625 
L 11.71875 4 
z
" id="DejaVuSans-44"/>
     <path d="M 9.8125 72.90625 
L 19.671875 72.90625 
L 19.671875 42.09375 
L 52.390625 72.90625 
L 65.09375 72.90625 
L 28.90625 38.921875 
L 67.671875 0 
L 54.6875 0 
L 19.671875 35.109375 
L 19.671875 0 
L 9.8125 0 
z
" id="DejaVuSans-75"/>
     <path d="M 54.890625 33.015625 
L 54.890625 0 
L 45.90625 0 
L 45.90625 32.71875 
Q 45.90625 40.484375 42.875 44.328125 
Q 39.84375 48.1875 33.796875 48.1875 
Q 26.515625 48.1875 22.3125 43.546875 
Q 18.109375 38.921875 18.109375 30.90625 
L 18.109375 0 
L 9.078125 0 
L 9.078125 54.6875 
L 18.109375 54.6875 
L 18.109375 46.1875 
Q 21.34375 51.125 25.703125 53.5625 
Q 30.078125 56 35.796875 56 
Q 45.21875 56 50.046875 50.171875 
Q 54.890625 44.34375 54.890625 33.015625 
z
" id="DejaVuSans-110"/>
     <path d="M 30.609375 48.390625 
Q 23.390625 48.390625 19.1875 42.75 
Q 14.984375 37.109375 14.984375 27.296875 
Q 14.984375 17.484375 19.15625 11.84375 
Q 23.34375 6.203125 30.609375 6.203125 
Q 37.796875 6.203125 41.984375 11.859375 
Q 46.1875 17.53125 46.1875 27.296875 
Q 46.1875 37.015625 41.984375 42.703125 
Q 37.796875 48.390625 30.609375 48.390625 
z
M 30.609375 56 
Q 42.328125 56 49.015625 48.375 
Q 55.71875 40.765625 55.71875 27.296875 
Q 55.71875 13.875 49.015625 6.21875 
Q 42.328125 -1.421875 30.609375 -1.421875 
Q 18.84375 -1.421875 12.171875 6.21875 
Q 5.515625 13.875 5.515625 27.296875 
Q 5.515625 40.765625 12.171875 48.375 
Q 18.84375 56 30.609375 56 
z
" id="DejaVuSans-111"/>
     <path d="M 4.203125 54.6875 
L 13.1875 54.6875 
L 24.421875 12.015625 
L 35.59375 54.6875 
L 46.1875 54.6875 
L 57.421875 12.015625 
L 68.609375 54.6875 
L 77.59375 54.6875 
L 63.28125 0 
L 52.6875 0 
L 40.921875 44.828125 
L 29.109375 0 
L 18.5 0 
z
" id="DejaVuSans-119"/>
     <path d="M 10.59375 45.40625 
L 73.1875 45.40625 
L 73.1875 37.203125 
L 10.59375 37.203125 
z
M 10.59375 25.484375 
L 73.1875 25.484375 
L 73.1875 17.1875 
L 10.59375 17.1875 
z
" id="DejaVuSans-61"/>
     <path d="M 9.8125 72.90625 
L 51.703125 72.90625 
L 51.703125 64.59375 
L 19.671875 64.59375 
L 19.671875 43.109375 
L 48.578125 43.109375 
L 48.578125 34.8125 
L 19.671875 34.8125 
L 19.671875 0 
L 9.8125 0 
z
" id="DejaVuSans-70"/>
     <path d="M 34.28125 27.484375 
Q 23.390625 27.484375 19.1875 25 
Q 14.984375 22.515625 14.984375 16.5 
Q 14.984375 11.71875 18.140625 8.90625 
Q 21.296875 6.109375 26.703125 6.109375 
Q 34.1875 6.109375 38.703125 11.40625 
Q 43.21875 16.703125 43.21875 25.484375 
L 43.21875 27.484375 
z
M 52.203125 31.203125 
L 52.203125 0 
L 43.21875 0 
L 43.21875 8.296875 
Q 40.140625 3.328125 35.546875 0.953125 
Q 30.953125 -1.421875 24.3125 -1.421875 
Q 15.921875 -1.421875 10.953125 3.296875 
Q 6 8.015625 6 15.921875 
Q 6 25.140625 12.171875 29.828125 
Q 18.359375 34.515625 30.609375 34.515625 
L 43.21875 34.515625 
L 43.21875 35.40625 
Q 43.21875 41.609375 39.140625 45 
Q 35.0625 48.390625 27.6875 48.390625 
Q 23 48.390625 18.546875 47.265625 
Q 14.109375 46.140625 10.015625 43.890625 
L 10.015625 52.203125 
Q 14.9375 54.109375 19.578125 55.046875 
Q 24.21875 56 28.609375 56 
Q 40.484375 56 46.34375 49.84375 
Q 52.203125 43.703125 52.203125 31.203125 
z
" id="DejaVuSans-97"/>
     <path d="M 9.421875 75.984375 
L 18.40625 75.984375 
L 18.40625 0 
L 9.421875 0 
z
" id="DejaVuSans-108"/>
     <path d="M 19.671875 64.796875 
L 19.671875 8.109375 
L 31.59375 8.109375 
Q 46.6875 8.109375 53.6875 14.9375 
Q 60.6875 21.78125 60.6875 36.53125 
Q 60.6875 51.171875 53.6875 57.984375 
Q 46.6875 64.796875 31.59375 64.796875 
z
M 9.8125 72.90625 
L 30.078125 72.90625 
Q 51.265625 72.90625 61.171875 64.09375 
Q 71.09375 55.28125 71.09375 36.53125 
Q 71.09375 17.671875 61.125 8.828125 
Q 51.171875 0 30.078125 0 
L 9.8125 0 
z
" id="DejaVuSans-68"/>
     <path d="M 45.40625 27.984375 
Q 45.40625 37.75 41.375 43.109375 
Q 37.359375 48.484375 30.078125 48.484375 
Q 22.859375 48.484375 18.828125 43.109375 
Q 14.796875 37.75 14.796875 27.984375 
Q 14.796875 18.265625 18.828125 12.890625 
Q 22.859375 7.515625 30.078125 7.515625 
Q 37.359375 7.515625 41.375 12.890625 
Q 45.40625 18.265625 45.40625 27.984375 
z
M 54.390625 6.78125 
Q 54.390625 -7.171875 48.1875 -13.984375 
Q 42 -20.796875 29.203125 -20.796875 
Q 24.46875 -20.796875 20.265625 -20.09375 
Q 16.0625 -19.390625 12.109375 -17.921875 
L 12.109375 -9.1875 
Q 16.0625 -11.328125 19.921875 -12.34375 
Q 23.78125 -13.375 27.78125 -13.375 
Q 36.625 -13.375 41.015625 -8.765625 
Q 45.40625 -4.15625 45.40625 5.171875 
L 45.40625 9.625 
Q 42.625 4.78125 38.28125 2.390625 
Q 33.9375 0 27.875 0 
Q 17.828125 0 11.671875 7.65625 
Q 5.515625 15.328125 5.515625 27.984375 
Q 5.515625 40.671875 11.671875 48.328125 
Q 17.828125 56 27.875 56 
Q 33.9375 56 38.28125 53.609375 
Q 42.625 51.21875 45.40625 46.390625 
L 45.40625 54.6875 
L 54.390625 54.6875 
z
" id="DejaVuSans-103"/>
     <path d="M 41.109375 46.296875 
Q 39.59375 47.171875 37.8125 47.578125 
Q 36.03125 48 33.890625 48 
Q 26.265625 48 22.1875 43.046875 
Q 18.109375 38.09375 18.109375 28.8125 
L 18.109375 0 
L 9.078125 0 
L 9.078125 54.6875 
L 18.109375 54.6875 
L 18.109375 46.1875 
Q 20.953125 51.171875 25.484375 53.578125 
Q 30.03125 56 36.53125 56 
Q 37.453125 56 38.578125 55.875 
Q 39.703125 55.765625 41.0625 55.515625 
z
" id="DejaVuSans-114"/>
     <path d="M 9.421875 54.6875 
L 18.40625 54.6875 
L 18.40625 0 
L 9.421875 0 
z
M 9.421875 75.984375 
L 18.40625 75.984375 
L 18.40625 64.59375 
L 9.421875 64.59375 
z
" id="DejaVuSans-105"/>
     <path d="M 10.6875 12.40625 
L 21 12.40625 
L 21 0 
L 10.6875 0 
z
" id="DejaVuSans-46"/>
    </defs>
    <g transform="translate(49.741875 35.472)scale(0.12 -0.12)">
     <use xlink:href="#DejaVuSans-40"/>
     <use x="39.013672" xlink:href="#DejaVuSans-49"/>
     <use x="102.636719" xlink:href="#DejaVuSans-49"/>
     <use x="166.259766" xlink:href="#DejaVuSans-49"/>
     <use x="229.882812" xlink:href="#DejaVuSans-41"/>
     <use x="268.896484" xlink:href="#DejaVuSans-32"/>
     <use x="300.683594" xlink:href="#DejaVuSans-83"/>
     <use x="364.160156" xlink:href="#DejaVuSans-117"/>
     <use x="427.539062" xlink:href="#DejaVuSans-98"/>
     <use x="491.015625" xlink:href="#DejaVuSans-106"/>
     <use x="518.798828" xlink:href="#DejaVuSans-101"/>
     <use x="580.322266" xlink:href="#DejaVuSans-99"/>
     <use x="635.302734" xlink:href="#DejaVuSans-116"/>
     <use x="674.511719" xlink:href="#DejaVuSans-58"/>
     <use x="708.203125" xlink:href="#DejaVuSans-32"/>
     <use x="739.990234" xlink:href="#DejaVuSans-115"/>
     <use x="792.089844" xlink:href="#DejaVuSans-55"/>
     <use x="855.712891" xlink:href="#DejaVuSans-44"/>
     <use x="887.5" xlink:href="#DejaVuSans-32"/>
     <use x="919.287109" xlink:href="#DejaVuSans-75"/>
     <use x="984.863281" xlink:href="#DejaVuSans-110"/>
     <use x="1048.242188" xlink:href="#DejaVuSans-111"/>
     <use x="1109.423828" xlink:href="#DejaVuSans-119"/>
     <use x="1191.210938" xlink:href="#DejaVuSans-110"/>
     <use x="1254.589844" xlink:href="#DejaVuSans-32"/>
     <use x="1286.376953" xlink:href="#DejaVuSans-61"/>
     <use x="1370.166016" xlink:href="#DejaVuSans-32"/>
     <use x="1401.953125" xlink:href="#DejaVuSans-70"/>
     <use x="1459.332031" xlink:href="#DejaVuSans-97"/>
     <use x="1520.611328" xlink:href="#DejaVuSans-108"/>
     <use x="1548.394531" xlink:href="#DejaVuSans-115"/>
     <use x="1600.494141" xlink:href="#DejaVuSans-101"/>
     <use x="1662.017578" xlink:href="#DejaVuSans-44"/>
     <use x="1693.804688" xlink:href="#DejaVuSans-32"/>
     <use x="1725.591797" xlink:href="#DejaVuSans-68"/>
     <use x="1802.59375" xlink:href="#DejaVuSans-101"/>
     <use x="1864.117188" xlink:href="#DejaVuSans-103"/>
     <use x="1927.59375" xlink:href="#DejaVuSans-114"/>
     <use x="1968.675781" xlink:href="#DejaVuSans-101"/>
     <use x="2030.199219" xlink:href="#DejaVuSans-101"/>
     <use x="2091.722656" xlink:href="#DejaVuSans-32"/>
     <use x="2123.509766" xlink:href="#DejaVuSans-61"/>
     <use x="2207.298828" xlink:href="#DejaVuSans-32"/>
     <use x="2239.085938" xlink:href="#DejaVuSans-49"/>
     <use x="2302.708984" xlink:href="#DejaVuSans-44"/>
     <use x="2334.496094" xlink:href="#DejaVuSans-32"/>
     <use x="2366.283203" xlink:href="#DejaVuSans-68"/>
     <use x="2443.285156" xlink:href="#DejaVuSans-117"/>
     <use x="2506.664062" xlink:href="#DejaVuSans-114"/>
     <use x="2547.777344" xlink:href="#DejaVuSans-97"/>
     <use x="2609.056641" xlink:href="#DejaVuSans-116"/>
     <use x="2648.265625" xlink:href="#DejaVuSans-105"/>
     <use x="2676.048828" xlink:href="#DejaVuSans-111"/>
     <use x="2737.230469" xlink:href="#DejaVuSans-110"/>
     <use x="2800.609375" xlink:href="#DejaVuSans-32"/>
     <use x="2832.396484" xlink:href="#DejaVuSans-61"/>
     <use x="2916.185547" xlink:href="#DejaVuSans-32"/>
     <use x="2947.972656" xlink:href="#DejaVuSans-48"/>
     <use x="3011.595703" xlink:href="#DejaVuSans-46"/>
     <use x="3043.382812" xlink:href="#DejaVuSans-49"/>
    </g>
   </g>
  </g>
 </g>
 <defs>
  <clipPath id="p1e0990583d">
   <rect height="266.112" width="357.12" x="57.6" y="41.472"/>
  </clipPath>
 </defs>
</svg>
