<?xml version="1.0" encoding="utf-8" standalone="no"?>
<!DOCTYPE svg PUBLIC "-//W3C//DTD SVG 1.1//EN"
  "http://www.w3.org/Graphics/SVG/1.1/DTD/svg11.dtd">
<!-- Created with matplotlib (https://matplotlib.org/) -->
<svg height="345.6pt" version="1.1" viewBox="0 0 460.8 345.6" width="460.8pt" xmlns="http://www.w3.org/2000/svg" xmlns:xlink="http://www.w3.org/1999/xlink">
 <defs>
  <style type="text/css">
*{stroke-linecap:butt;stroke-linejoin:round;}
  </style>
 </defs>
 <g id="figure_1">
  <g id="patch_1">
   <path d="M 0 345.6 
L 460.8 345.6 
L 460.8 0 
L 0 0 
z
" style="fill:#ffffff;"/>
  </g>
  <g id="axes_1">
   <g id="patch_2">
    <path d="M 57.6 307.584 
L 414.72 307.584 
L 414.72 41.472 
L 57.6 41.472 
z
" style="fill:#ffffff;"/>
   </g>
   <g id="line2d_1">
    <path clip-path="url(#p03177e2644)" d="M 74.059147 293.408078 
L 74.170615 293.408078 
L 73.944195 293.060792 
L 74.059147 292.713505 
L 74.059147 292.713505 
L 73.832727 292.8862 
L 73.832727 292.8862 
L 73.944195 292.366219 
L 74.170615 292.193525 
L 74.508502 292.713505 
L 74.734922 292.366219 
L 74.619971 292.366219 
L 74.282083 292.193525 
L 74.282083 292.366219 
L 74.282083 292.366219 
L 74.397034 292.018933 
L 74.734922 291.673544 
L 74.957858 291.673544 
L 75.184278 291.846238 
L 74.957858 291.846238 
L 74.508502 291.498952 
L 74.734922 291.673544 
L 74.84639 292.366219 
L 74.84639 292.366219 
L 74.734922 292.193525 
L 74.508502 292.193525 
L 74.619971 292.193525 
L 75.410697 292.540811 
L 75.184278 292.540811 
L 75.184278 291.846238 
L 75.522165 292.540811 
L 75.637117 292.540811 
L 75.522165 292.366219 
L 75.410697 292.540811 
L 75.410697 292.8862 
L 75.184278 293.060792 
L 75.184278 292.8862 
L 75.522165 292.8862 
L 75.860053 293.060792 
L 75.637117 292.8862 
L 75.975004 292.193525 
L 75.860053 292.018933 
L 75.748585 292.193525 
L 75.637117 292.713505 
L 75.637117 292.713505 
L 75.975004 292.540811 
L 76.19794 292.713505 
L 75.860053 292.540811 
L 75.975004 292.540811 
L 76.312892 292.540811 
L 76.312892 292.540811 
L 76.086472 292.713505 
L 76.086472 292.540811 
L 76.312892 292.193525 
L 76.19794 292.366219 
L 76.086472 292.193525 
L 76.086472 293.060792 
L 75.975004 293.233486 
L 76.312892 292.540811 
L 76.312892 292.366219 
L 76.19794 292.540811 
L 76.19794 292.366219 
L 75.860053 292.540811 
L 76.312892 291.846238 
L 75.975004 291.498952 
L 75.975004 291.326258 
L 76.312892 291.498952 
L 76.650779 291.846238 
L 76.650779 292.018933 
L 76.535828 292.018933 
L 76.312892 292.540811 
L 76.42436 292.713505 
L 76.535828 292.540811 
L 76.535828 292.540811 
L 76.650779 292.713505 
L 76.762248 292.540811 
L 76.762248 291.846238 
L 76.650779 291.326258 
L 75.860053 291.846238 
L 75.748585 292.018933 
L 75.860053 292.018933 
L 76.19794 292.540811 
L 76.19794 292.366219 
L 76.42436 292.018933 
L 76.42436 292.540811 
L 76.42436 292.540811 
L 76.762248 292.540811 
L 76.873716 292.713505 
L 76.650779 292.713505 
L 76.42436 292.8862 
L 76.650779 293.060792 
L 76.535828 292.8862 
L 76.650779 292.713505 
L 76.650779 292.713505 
L 76.42436 292.713505 
L 76.19794 292.540811 
L 76.312892 292.540811 
L 76.535828 292.540811 
L 76.535828 292.540811 
L 76.535828 292.366219 
L 76.312892 292.8862 
L 76.42436 292.713505 
L 76.535828 292.713505 
L 76.535828 292.713505 
L 76.535828 292.540811 
L 76.873716 292.366219 
L 76.988667 292.713505 
L 76.650779 293.233486 
L 76.42436 293.233486 
L 76.762248 292.193525 
L 76.42436 292.8862 
L 76.42436 292.540811 
L 76.42436 292.713505 
L 76.312892 292.713505 
L 76.535828 292.366219 
L 76.762248 292.8862 
L 76.762248 293.233486 
L 76.873716 293.928058 
L 76.535828 292.540811 
L 76.19794 292.8862 
L 75.860053 293.580772 
L 75.975004 293.753466 
L 76.19794 293.233486 
L 76.42436 293.233486 
L 76.42436 293.580772 
L 76.42436 293.580772 
L 76.535828 293.408078 
L 76.873716 293.233486 
L 77.211603 292.540811 
L 76.762248 293.233486 
L 76.312892 293.408078 
L 76.42436 293.060792 
L 76.42436 293.233486 
L 76.19794 293.233486 
L 76.42436 293.233486 
L 76.42436 293.408078 
L 75.975004 293.753466 
L 75.860053 294.448039 
L 76.086472 294.100753 
L 76.312892 293.408078 
L 76.535828 293.928058 
L 76.42436 293.928058 
L 76.42436 293.753466 
L 76.650779 293.580772 
L 76.312892 293.753466 
L 76.19794 293.753466 
L 75.975004 294.795325 
L 76.086472 295.488 
L 76.312892 295.140714 
L 76.42436 294.620733 
L 76.312892 294.448039 
L 75.860053 294.795325 
L 76.42436 294.448039 
L 76.650779 294.448039 
L 76.762248 294.100753 
L 76.650779 294.100753 
L 76.42436 294.448039 
L 76.650779 294.273447 
L 77.100135 294.100753 
L 77.438023 294.448039 
L 77.326555 294.620733 
L 76.988667 294.620733 
L 77.100135 294.273447 
L 77.438023 293.753466 
L 77.890862 293.753466 
L 78.340217 294.100753 
L 79.015993 294.100753 
L 81.719093 292.540811 
L 83.749902 291.326258 
L 86.341535 290.111705 
L 88.818216 288.724457 
L 91.071961 286.81723 
L 93.663594 284.215429 
L 96.819534 281.26824 
L 100.424829 278.319153 
L 104.145076 275.719251 
L 108.203211 273.464736 
L 112.710701 271.730203 
L 117.667547 270.342955 
L 122.96228 269.475689 
L 128.034078 269.128402 
L 137.386945 269.822975 
L 146.739813 269.475689 
L 151.585191 268.781116 
L 156.542037 267.913849 
L 161.613834 266.526602 
L 166.685632 264.44668 
L 171.531009 262.017573 
L 176.376387 259.763059 
L 181.333233 257.683137 
L 186.516498 255.775909 
L 196.886513 252.306842 
L 212.209889 246.06328 
L 217.281686 244.328746 
L 226.85749 239.819718 
L 236.210358 235.137995 
L 249.057054 229.936292 
L 258.072034 226.987205 
L 265.623996 224.559997 
L 269.229292 223.172749 
L 276.77777 221.090929 
L 283.653957 218.836415 
L 289.962353 217.101882 
L 293.006825 215.889226 
L 295.709925 215.021959 
L 300.443835 213.980101 
L 302.359693 213.287426 
L 303.934179 212.592853 
L 305.400681 211.725586 
L 306.640763 211.552892 
L 307.880846 211.725586 
L 308.330201 211.205606 
L 308.330201 211.380198 
L 307.765894 211.380198 
L 307.542958 211.205606 
L 307.20507 210.512931 
L 306.640763 209.992951 
L 306.978651 209.298378 
L 307.090119 209.471072 
L 307.20507 209.471072 
L 307.880846 208.431111 
L 307.765894 208.431111 
L 306.978651 208.431111 
L 306.978651 208.258417 
L 307.542958 207.563844 
L 306.978651 207.218456 
L 306.978651 206.696577 
L 307.316539 206.176597 
L 307.316539 205.656616 
L 307.20507 205.30933 
L 306.867183 206.003903 
L 307.090119 205.483922 
L 307.20507 204.963942 
L 306.978651 204.78935 
L 306.640763 204.963942 
L 306.640763 205.30933 
L 306.752231 205.30933 
L 306.752231 205.136636 
L 306.414344 204.78935 
L 306.640763 204.963942 
L 306.978651 203.922083 
L 306.414344 203.922083 
L 306.640763 203.922083 
L 306.187924 203.574796 
L 306.529295 203.229408 
L 306.529295 203.402102 
L 306.529295 203.402102 
L 306.414344 203.402102 
L 306.640763 203.054816 
L 307.090119 203.402102 
L 306.867183 203.574796 
L 306.529295 203.922083 
L 306.752231 203.574796 
L 306.529295 203.054816 
L 306.752231 203.749388 
L 306.752231 203.574796 
L 306.302876 203.229408 
L 306.187924 203.402102 
L 306.302876 203.402102 
L 306.302876 203.574796 
L 306.302876 202.882122 
L 306.302876 203.229408 
L 306.867183 202.709427 
L 306.867183 202.534835 
L 306.414344 202.534835 
L 306.302876 202.882122 
L 306.529295 202.882122 
L 306.640763 202.709427 
L 306.529295 202.709427 
L 306.302876 202.534835 
L 306.302876 202.709427 
L 306.529295 202.882122 
L 306.529295 202.534835 
L 306.640763 202.534835 
L 306.640763 202.362141 
L 306.640763 202.362141 
L 306.867183 202.534835 
L 307.20507 202.362141 
L 308.103782 202.187549 
L 310.583946 201.32218 
L 312.050448 200.627607 
L 316.220051 199.587646 
L 318.358844 199.24036 
L 320.61259 199.067666 
L 322.866335 199.067666 
L 328.27602 199.413054 
L 331.431959 199.760341 
L 334.587899 200.627607 
L 337.291 201.494874 
L 345.177366 203.574796 
L 350.022744 205.829311 
L 354.868122 207.563844 
L 357.236818 208.605703 
L 359.713499 209.992951 
L 364.558877 212.420159 
L 366.701154 213.634712 
L 371.435064 216.061921 
L 375.266779 217.796454 
L 376.956217 218.836415 
L 380.223625 221.090929 
L 381.690126 221.785502 
L 383.82892 223.518138 
L 384.619647 224.559997 
L 385.069002 225.599958 
L 385.295422 226.639919 
L 385.63331 227.507186 
L 386.082665 228.027166 
L 386.309085 229.069025 
L 386.197617 229.589006 
L 385.744778 229.7617 
L 385.40689 229.7617 
L 385.295422 230.108986 
L 385.295422 230.803559 
L 385.180471 231.668928 
L 385.295422 232.190806 
L 385.63331 232.883481 
L 385.63331 233.230767 
L 385.295422 233.750748 
L 385.180471 234.965301 
L 385.295422 235.137995 
L 385.63331 234.965301 
L 385.971197 235.137995 
L 385.859729 235.310689 
L 385.518358 235.485281 
L 385.518358 235.657976 
L 385.859729 235.657976 
L 386.197617 236.177956 
L 385.744778 236.699835 
L 385.295422 237.219815 
L 385.518358 237.739796 
L 385.40689 237.739796 
L 385.180471 237.739796 
L 385.180471 237.739796 
L 385.180471 238.087082 
L 385.180471 238.087082 
L 385.295422 238.087082 
L 385.295422 238.259776 
L 385.180471 238.779757 
L 385.518358 238.779757 
L 385.295422 238.952451 
L 385.180471 238.607062 
L 384.957534 238.43247 
L 384.842583 239.127043 
L 385.069002 238.087082 
L 384.957534 238.779757 
L 385.518358 238.779757 
L 385.40689 238.779757 
L 385.180471 238.952451 
L 385.180471 238.607062 
L 384.731115 238.259776 
L 384.731115 238.087082 
L 384.731115 238.259776 
L 384.619647 238.43247 
L 384.619647 238.087082 
L 384.842583 237.739796 
L 384.957534 237.565204 
L 384.957534 237.565204 
L 384.619647 237.565204 
L 384.619647 237.045223 
L 384.619647 237.045223 
L 384.957534 236.872529 
L 384.731115 236.872529 
L 384.957534 236.352548 
L 384.957534 235.832568 
L 384.166808 234.44532 
L 384.393227 234.098034 
L 384.393227 234.098034 
L 384.619647 234.098034 
L 384.166808 234.098034 
L 384.166808 233.578053 
L 384.393227 233.403461 
L 384.166808 233.403461 
L 383.717452 233.403461 
L 383.717452 233.578053 
L 383.82892 233.578053 
L 384.166808 233.056175 
L 384.166808 233.056175 
L 384.05534 232.883481 
L 383.717452 232.710787 
L 383.491033 233.056175 
L 383.717452 233.230767 
L 383.943872 232.883481 
L 383.717452 232.190806 
L 383.943872 232.3635 
L 383.82892 232.3635 
L 383.605984 232.3635 
L 383.379564 232.190806 
L 383.264613 232.190806 
L 383.264613 232.016214 
L 383.491033 231.323539 
L 383.491033 230.976253 
L 383.379564 230.976253 
L 383.264613 231.148947 
L 383.491033 231.323539 
L 384.05534 230.456272 
L 384.05534 230.456272 
L 383.717452 230.628967 
L 383.153145 230.628967 
L 383.041677 230.976253 
L 383.153145 230.976253 
L 383.264613 230.628967 
L 383.153145 230.28168 
L 383.379564 229.7617 
L 383.379564 229.241719 
L 383.264613 229.069025 
L 383.153145 229.414414 
L 383.264613 229.414414 
L 383.491033 229.589006 
L 383.153145 229.069025 
L 383.153145 229.069025 
L 383.379564 229.069025 
L 383.491033 228.721739 
L 383.264613 228.201758 
L 383.379564 228.201758 
L 383.605984 227.681778 
L 383.491033 227.334491 
L 383.264613 227.159899 
L 383.041677 227.159899 
L 383.041677 227.507186 
L 383.041677 227.507186 
L 383.153145 227.334491 
L 383.379564 227.681778 
L 383.605984 227.681778 
L 383.82892 227.334491 
L 383.82892 226.987205 
L 383.605984 226.29453 
L 383.379564 226.119938 
L 383.153145 225.772652 
L 383.153145 226.29453 
L 383.379564 226.467225 
L 383.717452 226.119938 
L 383.717452 225.252672 
L 383.605984 224.385405 
L 383.82892 224.385405 
L 383.379564 222.305483 
L 383.264613 220.918235 
L 383.264613 219.011007 
L 382.926725 216.581901 
L 382.139482 213.807406 
L 380.787932 211.205606 
L 379.098494 208.431111 
L 377.067685 205.483922 
L 372.222307 198.025807 
L 366.474735 191.262264 
L 360.392758 183.286066 
L 357.236818 178.777038 
L 354.307298 173.920723 
L 340.44694 153.284707 
L 335.263674 144.439345 
L 332.78351 140.277603 
L 330.191877 136.635841 
L 328.0496 132.994079 
L 324.555773 124.670595 
L 322.639915 121.026936 
L 320.501121 117.907053 
L 318.696732 114.61068 
L 315.317856 107.501749 
L 311.712561 101.085492 
L 307.542958 92.24013 
L 304.613438 86.863835 
L 302.471161 81.834826 
L 301.457498 79.580311 
L 299.315221 73.684036 
L 298.301558 72.296788 
L 297.514315 70.909541 
L 296.723588 68.827721 
L 296.159281 67.440474 
L 296.274233 67.440474 
L 296.61212 67.78776 
L 296.61212 67.960454 
L 296.61212 67.960454 
L 296.835056 67.960454 
L 297.399363 69.002313 
L 297.625783 68.827721 
L 297.852203 69.002313 
L 297.737251 69.002313 
L 297.625783 68.482333 
L 297.737251 68.482333 
L 297.176427 67.78776 
L 297.399363 66.920493 
L 297.176427 66.400513 
L 297.061476 65.707838 
L 297.176427 65.360551 
L 297.287895 65.707838 
L 297.287895 66.227818 
L 297.176427 66.573207 
L 296.61212 66.227818 
L 296.835056 65.707838 
L 297.061476 65.533246 
L 296.950008 65.707838 
L 296.723588 65.533246 
L 296.723588 65.360551 
L 297.061476 65.013265 
L 296.950008 64.840571 
L 296.835056 65.013265 
L 296.835056 65.013265 
L 296.950008 65.185959 
L 296.835056 65.185959 
L 296.723588 65.360551 
L 296.835056 65.185959 
L 296.950008 65.360551 
L 296.835056 65.707838 
L 296.835056 65.707838 
L 296.723588 65.533246 
L 296.723588 65.707838 
L 296.723588 65.880532 
L 296.497169 65.360551 
L 296.835056 65.360551 
L 297.061476 65.533246 
L 297.061476 65.707838 
L 296.835056 65.360551 
L 296.497169 65.360551 
L 296.497169 65.707838 
L 296.723588 66.053226 
L 297.061476 65.880532 
L 297.399363 65.185959 
L 297.061476 65.880532 
L 296.835056 65.880532 
L 296.723588 65.707838 
L 296.950008 65.533246 
L 297.287895 65.880532 
L 297.399363 66.227818 
L 297.176427 65.880532 
L 297.061476 65.707838 
L 297.061476 65.707838 
L 297.061476 66.920493 
L 297.176427 66.747799 
L 297.176427 66.053226 
L 296.950008 66.053226 
L 296.950008 66.227818 
L 297.061476 66.920493 
L 296.950008 66.920493 
L 296.835056 66.400513 
L 296.835056 66.573207 
L 296.497169 67.095085 
L 296.61212 66.920493 
L 296.950008 66.747799 
L 296.950008 66.747799 
L 296.950008 66.920493 
L 297.061476 67.095085 
L 297.176427 66.920493 
L 297.061476 67.095085 
L 296.950008 66.920493 
L 296.61212 66.920493 
L 296.61212 67.095085 
L 297.061476 67.095085 
L 297.399363 66.920493 
L 297.399363 66.920493 
L 297.061476 66.920493 
L 296.723588 66.747799 
L 296.723588 66.920493 
L 296.835056 67.267779 
L 296.723588 67.440474 
L 297.061476 67.095085 
L 297.176427 67.095085 
L 297.176427 67.440474 
L 297.514315 67.440474 
L 297.399363 67.267779 
L 297.287895 66.573207 
L 297.287895 67.095085 
L 297.176427 67.095085 
L 297.176427 67.095085 
L 297.061476 66.920493 
L 297.061476 67.095085 
L 296.950008 67.095085 
L 296.835056 66.573207 
L 297.176427 67.095085 
L 297.399363 66.920493 
L 297.514315 66.573207 
L 297.176427 67.440474 
L 296.835056 67.095085 
L 296.835056 67.267779 
L 297.176427 67.267779 
L 297.514315 66.920493 
L 297.287895 66.747799 
L 297.287895 67.440474 
L 297.287895 67.440474 
L 297.399363 67.440474 
L 297.061476 66.747799 
L 297.061476 66.920493 
L 297.176427 66.920493 
L 296.950008 66.920493 
L 297.176427 67.095085 
L 297.176427 67.440474 
L 296.950008 67.615066 
L 297.287895 66.920493 
L 297.399363 67.095085 
L 297.287895 67.267779 
L 297.176427 67.095085 
L 297.399363 66.573207 
L 296.950008 67.440474 
L 297.176427 67.440474 
L 297.287895 67.440474 
L 297.514315 67.267779 
L 297.514315 67.615066 
L 297.287895 67.78776 
L 296.950008 67.615066 
L 297.287895 67.78776 
L 297.287895 67.615066 
L 297.176427 67.615066 
L 297.176427 67.615066 
L 297.176427 67.78776 
L 297.061476 67.78776 
L 296.950008 67.960454 
L 297.176427 67.78776 
L 297.399363 67.615066 
L 297.514315 67.095085 
L 297.399363 67.095085 
L 297.061476 67.960454 
L 297.176427 67.960454 
L 297.176427 67.267779 
L 297.287895 66.920493 
L 297.287895 67.095085 
L 297.399363 67.615066 
L 297.176427 68.307741 
L 297.287895 67.78776 
L 297.176427 66.920493 
L 297.399363 66.573207 
L 297.514315 66.747799 
L 297.399363 67.267779 
L 297.061476 67.267779 
L 296.950008 67.095085 
L 297.514315 67.095085 
L 297.514315 66.920493 
L 297.176427 67.095085 
L 296.723588 67.615066 
L 296.723588 67.78776 
L 297.061476 67.615066 
L 297.399363 67.095085 
L 296.950008 66.227818 
L 297.061476 65.533246 
L 296.835056 65.360551 
L 295.598457 66.053226 
L 294.696263 66.053226 
L 294.243424 66.747799 
L 293.45618 67.615066 
L 290.077304 71.949502 
L 289.398046 72.644075 
L 288.837222 73.684036 
L 286.245589 76.111244 
L 285.454863 76.633122 
L 284.66762 77.500389 
L 282.187455 81.142151 
L 280.947373 82.529398 
L 279.031515 85.649281 
L 276.892722 89.292941 
L 271.709456 100.043633 
L 268.553516 108.194423 
L 267.989209 110.276243 
L 267.087015 112.530757 
L 265.846932 114.61068 
L 263.2553 118.427033 
L 262.241637 120.681547 
L 259.312116 128.657745 
L 258.298454 130.566871 
L 257.058371 134.034041 
L 256.609016 135.941268 
L 255.368933 139.410336 
L 255.257465 140.624889 
L 255.257465 142.012136 
L 255.368933 143.919364 
L 255.595353 145.653898 
L 255.480401 147.041145 
L 254.916094 148.775679 
L 254.466739 154.844649 
L 254.578207 155.88461 
L 254.804626 156.579182 
L 254.804626 157.446449 
L 254.578207 159.700963 
L 254.017383 161.260905 
L 253.902432 161.780886 
L 254.017383 162.475458 
L 253.679495 163.862706 
L 252.888769 165.249953 
L 252.665833 165.944526 
L 252.777301 167.331773 
L 252.665833 167.504467 
L 252.888769 167.504467 
L 252.777301 167.677161 
L 252.439413 167.677161 
L 252.212994 168.024448 
L 252.439413 169.064409 
L 252.324462 169.064409 
L 252.212994 169.064409 
L 252.212994 169.064409 
L 251.875106 169.411695 
L 252.212994 169.239001 
L 252.212994 169.411695 
L 252.101526 169.931676 
L 252.324462 170.106268 
L 252.550881 169.758981 
L 252.550881 169.411695 
L 251.986574 169.064409 
L 251.537218 169.411695 
L 251.648686 169.239001 
L 251.763638 168.891715 
L 251.537218 169.064409 
L 251.763638 169.239001 
L 251.648686 169.239001 
L 251.199331 169.239001 
L 251.199331 169.411695 
L 251.310799 169.411695 
L 251.310799 169.586287 
L 251.087863 169.411695 
L 250.972911 168.891715 
L 251.199331 168.71902 
L 251.310799 168.71902 
L 251.087863 169.239001 
L 250.861443 169.064409 
L 250.635024 168.371734 
L 250.749975 168.544428 
L 250.972911 168.71902 
L 251.087863 168.544428 
L 250.972911 168.197142 
L 250.635024 167.851753 
L 250.297136 168.197142 
L 250.185668 168.71902 
L 250.297136 169.239001 
L 250.412088 169.239001 
L 250.635024 168.891715 
L 250.635024 168.197142 
L 250.412088 167.677161 
L 249.84778 168.024448 
L 250.070717 168.197142 
L 250.070717 168.024448 
L 249.84778 168.024448 
L 249.84778 168.197142 
L 249.84778 168.197142 
L 249.732829 168.371734 
L 249.84778 168.024448 
L 249.84778 167.851753 
L 249.621361 168.024448 
L 249.621361 168.371734 
L 249.509893 168.197142 
L 249.283473 167.331773 
L 249.509893 166.809895 
L 249.394941 167.157181 
L 248.834118 166.809895 
L 248.607698 166.809895 
L 248.381279 167.677161 
L 248.043391 167.504467 
L 248.158342 167.504467 
L 248.269811 167.157181 
L 248.158342 167.157181 
L 248.043391 167.331773 
L 248.043391 166.984487 
L 248.719166 166.11722 
L 248.834118 166.289914 
L 248.49623 166.6372 
L 248.158342 166.6372 
L 248.158342 166.289914 
L 248.381279 165.944526 
L 248.607698 166.11722 
L 248.49623 166.11722 
L 248.49623 166.289914 
L 248.49623 166.289914 
L 248.381279 166.464506 
L 247.705503 166.464506 
L 247.705503 166.464506 
L 247.931923 166.289914 
L 248.269811 165.597239 
L 247.931923 166.11722 
L 247.705503 165.944526 
L 247.816971 165.422647 
L 248.158342 164.902667 
L 248.158342 165.422647 
L 248.043391 165.769934 
L 247.931923 165.422647 
L 247.705503 165.249953 
L 247.479084 165.249953 
L 247.705503 165.422647 
L 247.705503 165.249953 
L 247.931923 164.729972 
L 247.931923 165.077259 
L 247.705503 165.249953 
L 247.256148 164.209992 
L 247.256148 164.55538 
L 247.367616 165.422647 
L 247.141196 165.422647 
L 247.256148 165.249953 
L 247.594035 165.077259 
L 247.141196 164.55538 
L 246.91826 164.382686 
L 247.029728 164.209992 
L 246.803309 163.862706 
L 246.91826 163.690011 
L 247.256148 163.515419 
L 247.479084 163.690011 
L 247.479084 164.209992 
L 247.141196 164.209992 
L 246.691841 164.0354 
L 246.580373 163.862706 
L 247.029728 163.862706 
L 247.029728 164.0354 
L 246.465421 163.690011 
L 246.127534 163.515419 
L 246.127534 163.342725 
L 246.465421 162.995439 
L 246.580373 162.648152 
L 246.465421 162.648152 
L 246.353953 162.995439 
L 246.465421 163.515419 
L 246.691841 163.690011 
L 247.141196 163.342725 
L 246.691841 163.342725 
L 246.353953 162.648152 
L 245.904597 162.822745 
L 246.465421 162.475458 
L 246.691841 161.955478 
L 246.580373 162.300866 
L 246.691841 162.475458 
L 246.580373 162.300866 
L 246.91826 162.475458 
L 247.141196 162.300866 
L 246.691841 162.648152 
L 246.242485 163.168133 
L 246.016065 163.168133 
L 246.580373 163.168133 
L 246.242485 163.342725 
L 245.904597 163.168133 
L 245.904597 162.995439 
L 246.353953 162.822745 
L 246.127534 163.515419 
L 246.127534 163.168133 
L 246.127534 162.822745 
L 246.242485 162.822745 
L 246.242485 162.995439 
L 245.904597 162.995439 
L 246.803309 162.128172 
L 247.594035 161.780886 
L 248.269811 161.780886 
L 250.412088 161.260905 
L 253.790963 159.353677 
L 258.298454 158.313716 
L 263.708139 156.579182 
L 266.637659 155.711916 
L 269.567179 155.191935 
L 272.723119 154.844649 
L 275.875575 154.844649 
L 279.146467 155.191935 
L 282.298923 155.711916 
L 285.454863 156.40459 
L 292.10463 156.751877 
L 295.598457 157.446449 
L 298.865865 158.313716 
L 302.133273 158.659105 
L 305.400681 158.833697 
L 308.78304 159.873658 
L 312.273384 161.608191 
L 315.882163 163.168133 
L 319.598927 163.862706 
L 323.092754 164.209992 
L 326.360162 165.077259 
L 329.516102 166.464506 
L 342.247846 170.973534 
L 344.95443 171.666209 
L 347.546063 172.70617 
L 350.022744 173.400743 
L 352.165021 174.26801 
L 353.96941 175.135277 
L 360.277806 179.124324 
L 361.068533 179.816999 
L 362.984391 182.4188 
L 363.545214 183.806047 
L 363.660166 184.498722 
L 363.322278 185.365989 
L 363.322278 185.885969 
L 362.984391 187.967789 
L 363.883102 190.222303 
L 363.883102 191.956837 
L 364.109521 192.996798 
L 363.998053 193.17139 
L 363.998053 193.516779 
L 364.22099 194.731332 
L 364.335941 194.558637 
L 364.785297 195.425904 
L 364.785297 195.598599 
L 364.673829 195.598599 
L 364.900248 195.945885 
L 365.123184 196.985846 
L 364.447409 197.853113 
L 364.558877 198.373093 
L 365.011716 199.067666 
L 365.238136 198.893074 
L 365.349604 199.24036 
L 365.576023 199.413054 
L 365.576023 199.24036 
L 365.687491 199.24036 
L 365.687491 200.280321 
L 365.798959 200.800302 
L 365.687491 200.800302 
L 365.687491 200.627607 
L 365.798959 200.627607 
L 366.136847 201.147588 
L 366.363267 201.147588 
L 366.589686 201.32218 
L 366.474735 202.014855 
L 366.474735 201.842161 
L 366.701154 202.362141 
L 366.701154 202.709427 
L 367.039042 202.709427 
L 367.039042 203.054816 
L 366.812622 203.229408 
L 366.812622 203.574796 
L 367.039042 203.749388 
L 367.039042 204.269369 
L 366.927574 204.616655 
L 367.039042 204.616655 
L 367.265461 204.78935 
L 367.153993 205.30933 
L 367.265461 205.483922 
L 367.603349 205.656616 
L 368.052705 205.656616 
L 368.052705 205.656616 
L 368.390592 205.829311 
L 368.954899 205.829311 
L 368.505544 206.003903 
L 368.167656 206.523883 
L 368.390592 207.39115 
L 368.72848 206.696577 
L 368.954899 206.871169 
L 369.181319 207.218456 
L 368.954899 207.738436 
L 368.843431 207.563844 
L 369.181319 207.563844 
L 369.407738 207.738436 
L 369.181319 208.083825 
L 368.843431 208.258417 
L 368.843431 208.431111 
L 369.066367 208.778397 
L 369.292787 208.083825 
L 369.519206 208.083825 
L 369.519206 208.431111 
L 369.407738 208.951092 
L 369.519206 208.951092 
L 369.745626 209.471072 
L 369.630674 209.645664 
L 369.857094 209.125684 
L 369.857094 208.951092 
L 369.968562 209.298378 
L 369.968562 208.951092 
L 370.194982 208.951092 
L 370.421401 209.471072 
L 370.194982 209.471072 
L 369.968562 209.298378 
L 370.194982 209.645664 
L 370.532869 209.645664 
L 370.532869 209.471072 
L 370.421401 209.645664 
L 370.759289 210.338339 
L 370.532869 210.860217 
L 370.194982 211.032912 
L 370.194982 210.685625 
L 370.30645 210.338339 
L 370.30645 210.512931 
L 370.30645 211.032912 
L 370.421401 211.380198 
L 370.532869 211.205606 
L 370.644337 210.685625 
L 370.532869 210.338339 
L 370.30645 210.860217 
L 370.30645 210.860217 
L 370.532869 210.860217 
L 370.759289 211.032912 
L 370.644337 211.032912 
L 370.532869 211.032912 
L 370.644337 211.205606 
L 370.759289 210.860217 
L 370.644337 210.338339 
L 370.644337 210.512931 
L 370.532869 210.860217 
L 370.870757 210.165645 
L 370.532869 209.992951 
L 370.421401 210.165645 
L 370.759289 210.860217 
L 370.870757 210.860217 
L 370.532869 210.685625 
L 370.194982 210.685625 
L 370.30645 210.512931 
L 370.759289 210.512931 
L 371.320112 210.165645 
L 371.435064 209.645664 
L 371.320112 209.298378 
L 370.759289 209.298378 
L 370.870757 209.125684 
L 370.870757 208.605703 
L 370.870757 208.605703 
L 371.208644 208.605703 
L 371.097176 208.605703 
L 370.870757 208.258417 
L 370.870757 207.738436 
L 370.532869 207.043864 
L 370.30645 206.871169 
L 370.30645 206.696577 
L 370.421401 206.871169 
L 370.644337 206.523883 
L 370.870757 206.696577 
L 370.759289 207.043864 
L 370.30645 207.043864 
L 369.968562 206.871169 
L 370.194982 206.871169 
L 370.759289 206.351189 
L 370.644337 206.351189 
L 370.644337 205.483922 
L 370.30645 205.483922 
L 370.083513 205.30933 
L 370.194982 205.30933 
L 370.30645 205.30933 
L 370.194982 205.136636 
L 370.083513 204.616655 
L 370.30645 204.269369 
L 370.194982 204.442063 
L 370.421401 204.616655 
L 370.532869 204.269369 
L 370.532869 203.574796 
L 369.857094 203.574796 
L 369.630674 203.922083 
L 369.745626 204.269369 
L 370.083513 203.749388 
L 370.083513 203.749388 
L 370.194982 203.922083 
L 370.194982 203.922083 
L 370.30645 203.402102 
L 370.759289 202.534835 
L 370.532869 202.362141 
L 370.194982 203.054816 
L 370.30645 203.054816 
L 370.759289 201.494874 
L 370.421401 201.842161 
L 370.30645 201.494874 
L 370.30645 200.454913 
L 368.72848 196.985846 
L 367.603349 195.078618 
L 365.123184 189.702323 
L 363.433746 186.927828 
L 361.406421 184.326028 
L 358.814788 181.551533 
L 356.108204 178.257058 
L 348.221838 166.984487 
L 344.839478 162.822745 
L 337.628887 154.671955 
L 334.587899 150.682907 
L 331.881315 146.866553 
L 326.47163 138.543069 
L 320.839009 131.43224 
L 318.247376 128.312357 
L 316.105099 125.015984 
L 312.050448 117.732461 
L 308.103782 109.928957 
L 306.076456 106.45989 
L 304.049131 103.685395 
L 302.359693 101.085492 
L 299.203753 94.667338 
L 297.737251 91.545557 
L 296.497169 88.598368 
L 295.598457 85.649281 
L 294.581311 82.702092 
L 292.442518 77.500389 
L 290.188773 69.86958 
L 289.286578 67.960454 
L 288.272915 66.400513 
L 287.482188 64.318693 
L 287.032833 59.984256 
L 286.245589 57.902436 
L 286.130638 55.647922 
L 286.245589 54.955247 
L 286.694945 54.435267 
L 287.032833 54.435267 
L 287.144301 54.607961 
L 287.032833 54.955247 
L 287.144301 55.302534 
L 287.708608 55.995208 
L 287.59714 56.515189 
L 287.37072 56.862475 
L 287.37072 56.515189 
L 287.59714 56.167903 
L 287.59714 56.342495 
L 287.59714 56.515189 
L 287.823559 56.342495 
L 287.935027 55.475228 
L 287.823559 55.302534 
L 287.59714 55.647922 
L 287.708608 55.822514 
L 287.59714 55.475228 
L 287.59714 55.475228 
L 287.708608 55.475228 
L 287.935027 55.302534 
L 287.935027 54.955247 
L 288.272915 54.607961 
L 287.935027 54.607961 
L 287.935027 54.435267 
L 288.046496 54.435267 
L 288.384383 54.607961 
L 288.610803 53.740694 
L 288.384383 53.740694 
L 288.499335 54.087981 
L 288.722271 54.087981 
L 288.499335 54.087981 
L 288.384383 54.435267 
L 288.499335 54.435267 
L 288.722271 54.087981 
L 288.499335 53.568 
L 288.384383 53.740694 
L 288.499335 53.740694 
L 288.610803 53.915286 
L 288.384383 54.435267 
L 288.610803 54.435267 
L 288.837222 54.260675 
L 288.837222 54.087981 
L 288.499335 53.740694 
L 288.384383 53.568 
L 288.610803 54.087981 
L 288.610803 54.780655 
L 288.610803 54.435267 
L 288.384383 54.260675 
L 288.161447 54.435267 
L 288.272915 54.780655 
L 288.499335 54.780655 
L 288.499335 54.087981 
L 288.384383 54.435267 
L 288.722271 54.435267 
L 288.722271 55.127942 
L 288.722271 54.955247 
L 288.610803 55.647922 
L 288.610803 55.475228 
L 288.272915 54.955247 
L 288.384383 54.955247 
L 288.837222 54.955247 
L 288.94869 54.780655 
L 288.610803 54.435267 
L 288.610803 54.955247 
L 288.722271 55.475228 
L 288.94869 55.647922 
L 289.17511 55.475228 
L 289.17511 55.302534 
L 288.722271 55.647922 
L 288.837222 55.647922 
L 289.286578 56.342495 
L 289.17511 56.515189 
L 288.94869 56.342495 
L 289.060158 56.515189 
L 289.17511 56.862475 
L 289.286578 56.689781 
L 289.624465 56.689781 
L 289.735933 57.03517 
L 289.624465 57.557048 
L 289.286578 58.077028 
L 289.286578 57.902436 
L 289.286578 57.557048 
L 289.17511 57.557048 
L 289.17511 57.729742 
L 289.286578 57.902436 
L 289.512997 57.902436 
L 289.512997 57.729742 
L 289.286578 57.729742 
L 289.286578 57.557048 
L 289.624465 57.902436 
L 289.735933 57.902436 
L 289.735933 58.597009 
L 289.850885 59.116989 
L 289.735933 59.289684 
L 289.512997 59.116989 
L 289.512997 58.944295 
L 289.624465 58.769703 
L 289.962353 58.769703 
L 289.962353 58.944295 
L 289.850885 59.289684 
L 289.624465 59.464276 
L 289.286578 59.464276 
L 289.398046 59.811562 
L 289.060158 59.811562 
L 289.060158 59.464276 
L 289.17511 59.289684 
L 289.624465 60.156951 
L 289.624465 60.504237 
L 289.850885 60.156951 
L 289.962353 60.331543 
L 289.962353 60.331543 
L 290.077304 59.63697 
L 289.962353 59.63697 
L 289.962353 60.156951 
L 290.077304 60.676931 
L 289.962353 60.504237 
L 289.512997 60.504237 
L 289.512997 61.198809 
L 289.624465 61.024217 
L 289.624465 60.676931 
L 289.624465 60.676931 
L 289.850885 60.676931 
L 289.962353 60.504237 
L 289.962353 60.676931 
L 289.962353 61.198809 
L 290.077304 61.544198 
L 289.624465 60.504237 
L 289.512997 60.504237 
L 289.512997 61.024217 
L 289.512997 60.676931 
L 289.286578 60.331543 
L 289.512997 60.331543 
L 289.850885 60.156951 
L 290.077304 59.811562 
L 289.398046 60.851523 
L 289.286578 60.676931 
L 289.398046 60.504237 
L 289.398046 60.504237 
L 289.512997 60.851523 
L 289.512997 61.024217 
L 289.624465 61.024217 
L 289.512997 61.198809 
L 290.077304 60.504237 
L 290.300241 60.331543 
L 290.75308 59.63697 
L 291.202435 59.464276 
L 291.766742 59.464276 
L 294.807731 60.156951 
L 295.709925 60.676931 
L 296.950008 61.198809 
L 301.004659 62.586057 
L 302.244741 63.278732 
L 303.822711 64.318693 
L 305.627101 65.013265 
L 307.765894 65.707838 
L 310.019639 66.227818 
L 317.118762 68.307741 
L 319.372507 68.827721 
L 321.514784 69.694988 
L 323.768529 70.909541 
L 326.133743 72.644075 
L 328.725375 74.723997 
L 331.654895 76.45853 
L 334.587899 78.02037 
L 337.402468 80.100292 
L 339.994101 82.702092 
L 344.839478 88.425674 
L 347.208175 91.025577 
L 352.840796 96.229178 
L 355.432429 99.350959 
L 357.686174 102.818128 
L 360.277806 106.45989 
L 362.984391 109.581671 
L 365.461072 112.703452 
L 367.829768 115.997927 
L 375.151827 125.36327 
L 377.294104 128.312357 
L 386.873392 143.224792 
L 388.451362 146.001184 
L 391.042994 149.988334 
L 392.056657 152.070154 
L 392.958852 154.324668 
L 394.871226 161.088211 
L 396.564147 165.422647 
L 397.013503 167.157181 
L 397.013503 169.064409 
L 396.787084 170.973534 
L 396.22626 174.26801 
L 396.337728 176.002543 
L 396.564147 177.737077 
L 396.564147 181.031552 
L 396.449196 182.4188 
L 395.888372 184.498722 
L 395.888372 188.315075 
L 395.661953 190.394998 
L 395.888372 191.262264 
L 395.99984 192.129531 
L 395.888372 192.996798 
L 395.661953 193.691371 
L 395.661953 194.558637 
L 395.99984 197.15854 
L 396.111308 197.505826 
L 395.888372 198.72038 
L 395.435533 200.107627 
L 395.661953 201.147588 
L 395.435533 201.32218 
L 395.212597 201.842161 
L 395.212597 202.362141 
L 395.435533 203.402102 
L 395.661953 203.402102 
L 395.888372 202.882122 
L 395.773421 203.402102 
L 395.773421 203.922083 
L 395.888372 204.269369 
L 396.337728 204.096675 
L 396.449196 203.922083 
L 396.22626 204.096675 
L 395.888372 204.096675 
L 395.99984 204.269369 
L 395.550485 205.656616 
L 395.661953 206.176597 
L 396.22626 206.871169 
L 395.888372 205.829311 
L 395.888372 206.176597 
L 395.773421 206.696577 
L 395.888372 206.696577 
L 395.888372 206.523883 
L 395.550485 206.871169 
L 395.212597 206.871169 
L 395.435533 206.871169 
L 395.661953 207.043864 
L 395.888372 207.563844 
L 395.661953 208.083825 
L 395.550485 207.911131 
L 395.550485 207.911131 
L 395.888372 207.911131 
L 396.111308 207.738436 
L 396.111308 207.911131 
L 396.449196 209.645664 
L 396.449196 210.165645 
L 396.449196 209.992951 
L 396.22626 209.471072 
L 396.337728 209.125684 
L 396.449196 209.298378 
L 396.22626 209.645664 
L 396.337728 209.645664 
L 396.675615 209.992951 
L 396.337728 209.992951 
L 396.22626 210.165645 
L 396.675615 209.471072 
L 396.787084 209.645664 
L 396.564147 210.165645 
L 396.787084 211.032912 
L 397.013503 211.032912 
L 397.351391 210.338339 
L 397.239923 210.338339 
L 396.787084 210.512931 
L 396.902035 210.512931 
L 397.239923 210.165645 
L 397.351391 209.818358 
L 397.124971 210.338339 
L 396.902035 210.165645 
L 396.902035 210.165645 
L 396.675615 210.338339 
L 396.675615 210.512931 
L 396.902035 210.685625 
L 397.351391 210.685625 
L 397.239923 210.512931 
L 397.013503 210.512931 
L 396.902035 210.165645 
L 397.239923 209.992951 
L 397.351391 210.165645 
L 397.239923 210.512931 
L 397.013503 210.685625 
L 396.787084 210.338339 
L 397.239923 211.205606 
L 397.239923 211.380198 
L 396.902035 211.032912 
L 397.013503 211.205606 
L 397.466342 210.860217 
L 397.466342 211.032912 
L 397.124971 211.725586 
L 396.902035 212.247465 
L 396.902035 211.552892 
L 397.57781 212.072873 
L 397.351391 212.420159 
L 397.239923 212.072873 
L 397.124971 212.247465 
L 397.013503 212.767445 
L 396.787084 213.287426 
L 397.013503 213.287426 
L 397.239923 212.767445 
L 397.239923 212.592853 
L 397.351391 212.592853 
L 397.57781 212.420159 
L 397.915698 212.420159 
L 397.689278 212.420159 
L 397.689278 212.767445 
L 398.027166 213.46012 
L 397.689278 212.767445 
L 397.80423 212.420159 
L 398.027166 212.767445 
L 397.915698 213.114732 
L 397.689278 213.287426 
L 397.689278 213.46012 
L 397.124971 214.327387 
L 397.239923 213.980101 
L 397.351391 213.46012 
L 397.80423 213.46012 
L 397.57781 213.114732 
L 397.57781 213.287426 
L 397.351391 213.807406 
L 397.013503 213.634712 
L 396.675615 213.807406 
L 396.675615 213.980101 
L 397.239923 214.327387 
L 397.466342 214.327387 
L 397.351391 214.327387 
L 397.239923 213.980101 
L 397.239923 214.327387 
L 396.902035 214.674673 
L 397.466342 214.154693 
L 397.57781 214.154693 
L 397.57781 214.327387 
L 397.466342 214.501979 
L 397.57781 214.847367 
L 397.239923 215.54194 
L 397.124971 215.54194 
L 397.124971 215.367348 
L 397.351391 215.194654 
L 397.351391 215.021959 
L 397.124971 215.021959 
L 397.013503 215.367348 
L 397.466342 216.234615 
L 397.466342 216.409207 
L 397.239923 216.234615 
L 397.239923 215.889226 
L 396.902035 215.54194 
L 396.675615 216.061921 
L 396.675615 216.061921 
L 396.902035 216.061921 
L 397.013503 215.54194 
L 397.013503 215.714634 
L 396.675615 215.889226 
L 396.675615 215.889226 
L 396.675615 215.714634 
L 396.337728 215.367348 
L 396.111308 215.54194 
L 395.888372 216.061921 
L 395.99984 216.409207 
L 396.337728 216.409207 
L 396.787084 215.714634 
L 397.013503 215.889226 
L 396.902035 215.889226 
L 396.564147 216.234615 
L 396.675615 216.409207 
L 396.902035 216.234615 
L 396.564147 216.409207 
L 396.111308 216.581901 
L 396.111308 216.581901 
" style="fill:none;stroke:#1f77b4;stroke-linecap:square;stroke-width:1.5;"/>
   </g>
   <g id="matplotlib.axis_1">
    <g id="xtick_1">
     <g id="line2d_2">
      <defs>
       <path d="M 0 0 
L 0 3.5 
" id="md706c380da" style="stroke:#000000;stroke-width:0.8;"/>
      </defs>
      <g>
       <use style="stroke:#000000;stroke-width:0.8;" x="78.650238" xlink:href="#md706c380da" y="307.584"/>
      </g>
     </g>
     <g id="text_1">
      <!-- −600 -->
      <defs>
       <path d="M 10.59375 35.5 
L 73.1875 35.5 
L 73.1875 27.203125 
L 10.59375 27.203125 
z
" id="DejaVuSans-8722"/>
       <path d="M 33.015625 40.375 
Q 26.375 40.375 22.484375 35.828125 
Q 18.609375 31.296875 18.609375 23.390625 
Q 18.609375 15.53125 22.484375 10.953125 
Q 26.375 6.390625 33.015625 6.390625 
Q 39.65625 6.390625 43.53125 10.953125 
Q 47.40625 15.53125 47.40625 23.390625 
Q 47.40625 31.296875 43.53125 35.828125 
Q 39.65625 40.375 33.015625 40.375 
z
M 52.59375 71.296875 
L 52.59375 62.3125 
Q 48.875 64.0625 45.09375 64.984375 
Q 41.3125 65.921875 37.59375 65.921875 
Q 27.828125 65.921875 22.671875 59.328125 
Q 17.53125 52.734375 16.796875 39.40625 
Q 19.671875 43.65625 24.015625 45.921875 
Q 28.375 48.1875 33.59375 48.1875 
Q 44.578125 48.1875 50.953125 41.515625 
Q 57.328125 34.859375 57.328125 23.390625 
Q 57.328125 12.15625 50.6875 5.359375 
Q 44.046875 -1.421875 33.015625 -1.421875 
Q 20.359375 -1.421875 13.671875 8.265625 
Q 6.984375 17.96875 6.984375 36.375 
Q 6.984375 53.65625 15.1875 63.9375 
Q 23.390625 74.21875 37.203125 74.21875 
Q 40.921875 74.21875 44.703125 73.484375 
Q 48.484375 72.75 52.59375 71.296875 
z
" id="DejaVuSans-54"/>
       <path d="M 31.78125 66.40625 
Q 24.171875 66.40625 20.328125 58.90625 
Q 16.5 51.421875 16.5 36.375 
Q 16.5 21.390625 20.328125 13.890625 
Q 24.171875 6.390625 31.78125 6.390625 
Q 39.453125 6.390625 43.28125 13.890625 
Q 47.125 21.390625 47.125 36.375 
Q 47.125 51.421875 43.28125 58.90625 
Q 39.453125 66.40625 31.78125 66.40625 
z
M 31.78125 74.21875 
Q 44.046875 74.21875 50.515625 64.515625 
Q 56.984375 54.828125 56.984375 36.375 
Q 56.984375 17.96875 50.515625 8.265625 
Q 44.046875 -1.421875 31.78125 -1.421875 
Q 19.53125 -1.421875 13.0625 8.265625 
Q 6.59375 17.96875 6.59375 36.375 
Q 6.59375 54.828125 13.0625 64.515625 
Q 19.53125 74.21875 31.78125 74.21875 
z
" id="DejaVuSans-48"/>
      </defs>
      <g transform="translate(64.916644 322.182437)scale(0.1 -0.1)">
       <use xlink:href="#DejaVuSans-8722"/>
       <use x="83.789062" xlink:href="#DejaVuSans-54"/>
       <use x="147.412109" xlink:href="#DejaVuSans-48"/>
       <use x="211.035156" xlink:href="#DejaVuSans-48"/>
      </g>
     </g>
    </g>
    <g id="xtick_2">
     <g id="line2d_3">
      <g>
       <use style="stroke:#000000;stroke-width:0.8;" x="148.317783" xlink:href="#md706c380da" y="307.584"/>
      </g>
     </g>
     <g id="text_2">
      <!-- −400 -->
      <defs>
       <path d="M 37.796875 64.3125 
L 12.890625 25.390625 
L 37.796875 25.390625 
z
M 35.203125 72.90625 
L 47.609375 72.90625 
L 47.609375 25.390625 
L 58.015625 25.390625 
L 58.015625 17.1875 
L 47.609375 17.1875 
L 47.609375 0 
L 37.796875 0 
L 37.796875 17.1875 
L 4.890625 17.1875 
L 4.890625 26.703125 
z
" id="DejaVuSans-52"/>
      </defs>
      <g transform="translate(134.58419 322.182437)scale(0.1 -0.1)">
       <use xlink:href="#DejaVuSans-8722"/>
       <use x="83.789062" xlink:href="#DejaVuSans-52"/>
       <use x="147.412109" xlink:href="#DejaVuSans-48"/>
       <use x="211.035156" xlink:href="#DejaVuSans-48"/>
      </g>
     </g>
    </g>
    <g id="xtick_3">
     <g id="line2d_4">
      <g>
       <use style="stroke:#000000;stroke-width:0.8;" x="217.985329" xlink:href="#md706c380da" y="307.584"/>
      </g>
     </g>
     <g id="text_3">
      <!-- −200 -->
      <defs>
       <path d="M 19.1875 8.296875 
L 53.609375 8.296875 
L 53.609375 0 
L 7.328125 0 
L 7.328125 8.296875 
Q 12.9375 14.109375 22.625 23.890625 
Q 32.328125 33.6875 34.8125 36.53125 
Q 39.546875 41.84375 41.421875 45.53125 
Q 43.3125 49.21875 43.3125 52.78125 
Q 43.3125 58.59375 39.234375 62.25 
Q 35.15625 65.921875 28.609375 65.921875 
Q 23.96875 65.921875 18.8125 64.3125 
Q 13.671875 62.703125 7.8125 59.421875 
L 7.8125 69.390625 
Q 13.765625 71.78125 18.9375 73 
Q 24.125 74.21875 28.421875 74.21875 
Q 39.75 74.21875 46.484375 68.546875 
Q 53.21875 62.890625 53.21875 53.421875 
Q 53.21875 48.921875 51.53125 44.890625 
Q 49.859375 40.875 45.40625 35.40625 
Q 44.1875 33.984375 37.640625 27.21875 
Q 31.109375 20.453125 19.1875 8.296875 
z
" id="DejaVuSans-50"/>
      </defs>
      <g transform="translate(204.251735 322.182437)scale(0.1 -0.1)">
       <use xlink:href="#DejaVuSans-8722"/>
       <use x="83.789062" xlink:href="#DejaVuSans-50"/>
       <use x="147.412109" xlink:href="#DejaVuSans-48"/>
       <use x="211.035156" xlink:href="#DejaVuSans-48"/>
      </g>
     </g>
    </g>
    <g id="xtick_4">
     <g id="line2d_5">
      <g>
       <use style="stroke:#000000;stroke-width:0.8;" x="287.652874" xlink:href="#md706c380da" y="307.584"/>
      </g>
     </g>
     <g id="text_4">
      <!-- 0 -->
      <g transform="translate(284.471624 322.182437)scale(0.1 -0.1)">
       <use xlink:href="#DejaVuSans-48"/>
      </g>
     </g>
    </g>
    <g id="xtick_5">
     <g id="line2d_6">
      <g>
       <use style="stroke:#000000;stroke-width:0.8;" x="357.320419" xlink:href="#md706c380da" y="307.584"/>
      </g>
     </g>
     <g id="text_5">
      <!-- 200 -->
      <g transform="translate(347.776669 322.182437)scale(0.1 -0.1)">
       <use xlink:href="#DejaVuSans-50"/>
       <use x="63.623047" xlink:href="#DejaVuSans-48"/>
       <use x="127.246094" xlink:href="#DejaVuSans-48"/>
      </g>
     </g>
    </g>
   </g>
   <g id="matplotlib.axis_2">
    <g id="ytick_1">
     <g id="line2d_7">
      <defs>
       <path d="M 0 0 
L -3.5 0 
" id="m0e491d8bef" style="stroke:#000000;stroke-width:0.8;"/>
      </defs>
      <g>
       <use style="stroke:#000000;stroke-width:0.8;" x="57.6" xlink:href="#m0e491d8bef" y="305.147493"/>
      </g>
     </g>
     <g id="text_6">
      <!-- −800 -->
      <defs>
       <path d="M 31.78125 34.625 
Q 24.75 34.625 20.71875 30.859375 
Q 16.703125 27.09375 16.703125 20.515625 
Q 16.703125 13.921875 20.71875 10.15625 
Q 24.75 6.390625 31.78125 6.390625 
Q 38.8125 6.390625 42.859375 10.171875 
Q 46.921875 13.96875 46.921875 20.515625 
Q 46.921875 27.09375 42.890625 30.859375 
Q 38.875 34.625 31.78125 34.625 
z
M 21.921875 38.8125 
Q 15.578125 40.375 12.03125 44.71875 
Q 8.5 49.078125 8.5 55.328125 
Q 8.5 64.0625 14.71875 69.140625 
Q 20.953125 74.21875 31.78125 74.21875 
Q 42.671875 74.21875 48.875 69.140625 
Q 55.078125 64.0625 55.078125 55.328125 
Q 55.078125 49.078125 51.53125 44.71875 
Q 48 40.375 41.703125 38.8125 
Q 48.828125 37.15625 52.796875 32.3125 
Q 56.78125 27.484375 56.78125 20.515625 
Q 56.78125 9.90625 50.3125 4.234375 
Q 43.84375 -1.421875 31.78125 -1.421875 
Q 19.734375 -1.421875 13.25 4.234375 
Q 6.78125 9.90625 6.78125 20.515625 
Q 6.78125 27.484375 10.78125 32.3125 
Q 14.796875 37.15625 21.921875 38.8125 
z
M 18.3125 54.390625 
Q 18.3125 48.734375 21.84375 45.5625 
Q 25.390625 42.390625 31.78125 42.390625 
Q 38.140625 42.390625 41.71875 45.5625 
Q 45.3125 48.734375 45.3125 54.390625 
Q 45.3125 60.0625 41.71875 63.234375 
Q 38.140625 66.40625 31.78125 66.40625 
Q 25.390625 66.40625 21.84375 63.234375 
Q 18.3125 60.0625 18.3125 54.390625 
z
" id="DejaVuSans-56"/>
      </defs>
      <g transform="translate(23.132812 308.946711)scale(0.1 -0.1)">
       <use xlink:href="#DejaVuSans-8722"/>
       <use x="83.789062" xlink:href="#DejaVuSans-56"/>
       <use x="147.412109" xlink:href="#DejaVuSans-48"/>
       <use x="211.035156" xlink:href="#DejaVuSans-48"/>
      </g>
     </g>
    </g>
    <g id="ytick_2">
     <g id="line2d_8">
      <g>
       <use style="stroke:#000000;stroke-width:0.8;" x="57.6" xlink:href="#m0e491d8bef" y="267.192708"/>
      </g>
     </g>
     <g id="text_7">
      <!-- −600 -->
      <g transform="translate(23.132812 270.991927)scale(0.1 -0.1)">
       <use xlink:href="#DejaVuSans-8722"/>
       <use x="83.789062" xlink:href="#DejaVuSans-54"/>
       <use x="147.412109" xlink:href="#DejaVuSans-48"/>
       <use x="211.035156" xlink:href="#DejaVuSans-48"/>
      </g>
     </g>
    </g>
    <g id="ytick_3">
     <g id="line2d_9">
      <g>
       <use style="stroke:#000000;stroke-width:0.8;" x="57.6" xlink:href="#m0e491d8bef" y="229.237924"/>
      </g>
     </g>
     <g id="text_8">
      <!-- −400 -->
      <g transform="translate(23.132812 233.037143)scale(0.1 -0.1)">
       <use xlink:href="#DejaVuSans-8722"/>
       <use x="83.789062" xlink:href="#DejaVuSans-52"/>
       <use x="147.412109" xlink:href="#DejaVuSans-48"/>
       <use x="211.035156" xlink:href="#DejaVuSans-48"/>
      </g>
     </g>
    </g>
    <g id="ytick_4">
     <g id="line2d_10">
      <g>
       <use style="stroke:#000000;stroke-width:0.8;" x="57.6" xlink:href="#m0e491d8bef" y="191.28314"/>
      </g>
     </g>
     <g id="text_9">
      <!-- −200 -->
      <g transform="translate(23.132812 195.082358)scale(0.1 -0.1)">
       <use xlink:href="#DejaVuSans-8722"/>
       <use x="83.789062" xlink:href="#DejaVuSans-50"/>
       <use x="147.412109" xlink:href="#DejaVuSans-48"/>
       <use x="211.035156" xlink:href="#DejaVuSans-48"/>
      </g>
     </g>
    </g>
    <g id="ytick_5">
     <g id="line2d_11">
      <g>
       <use style="stroke:#000000;stroke-width:0.8;" x="57.6" xlink:href="#m0e491d8bef" y="153.328355"/>
      </g>
     </g>
     <g id="text_10">
      <!-- 0 -->
      <g transform="translate(44.2375 157.127574)scale(0.1 -0.1)">
       <use xlink:href="#DejaVuSans-48"/>
      </g>
     </g>
    </g>
    <g id="ytick_6">
     <g id="line2d_12">
      <g>
       <use style="stroke:#000000;stroke-width:0.8;" x="57.6" xlink:href="#m0e491d8bef" y="115.373571"/>
      </g>
     </g>
     <g id="text_11">
      <!-- 200 -->
      <g transform="translate(31.5125 119.17279)scale(0.1 -0.1)">
       <use xlink:href="#DejaVuSans-50"/>
       <use x="63.623047" xlink:href="#DejaVuSans-48"/>
       <use x="127.246094" xlink:href="#DejaVuSans-48"/>
      </g>
     </g>
    </g>
    <g id="ytick_7">
     <g id="line2d_13">
      <g>
       <use style="stroke:#000000;stroke-width:0.8;" x="57.6" xlink:href="#m0e491d8bef" y="77.418786"/>
      </g>
     </g>
     <g id="text_12">
      <!-- 400 -->
      <g transform="translate(31.5125 81.218005)scale(0.1 -0.1)">
       <use xlink:href="#DejaVuSans-52"/>
       <use x="63.623047" xlink:href="#DejaVuSans-48"/>
       <use x="127.246094" xlink:href="#DejaVuSans-48"/>
      </g>
     </g>
    </g>
   </g>
   <g id="line2d_14">
    <path clip-path="url(#p03177e2644)" d="M 76.585219 292.597499 
L 306.294899 205.835424 
L 384.190408 232.062744 
L 297.07919 67.302682 
L 250.44606 166.161828 
L 365.89284 198.861091 
L 370.107081 206.788378 
L 289.102647 57.75517 
L 396.334767 205.96893 
L 397.174602 214.304748 
" style="fill:none;stroke:#ff0000;stroke-linecap:square;stroke-width:0.5;"/>
   </g>
   <g id="patch_3">
    <path d="M 57.6 307.584 
L 57.6 41.472 
" style="fill:none;stroke:#000000;stroke-linecap:square;stroke-linejoin:miter;stroke-width:0.8;"/>
   </g>
   <g id="patch_4">
    <path d="M 414.72 307.584 
L 414.72 41.472 
" style="fill:none;stroke:#000000;stroke-linecap:square;stroke-linejoin:miter;stroke-width:0.8;"/>
   </g>
   <g id="patch_5">
    <path d="M 57.6 307.584 
L 414.72 307.584 
" style="fill:none;stroke:#000000;stroke-linecap:square;stroke-linejoin:miter;stroke-width:0.8;"/>
   </g>
   <g id="patch_6">
    <path d="M 57.6 41.472 
L 414.72 41.472 
" style="fill:none;stroke:#000000;stroke-linecap:square;stroke-linejoin:miter;stroke-width:0.8;"/>
   </g>
   <g id="PathCollection_1">
    <defs>
     <path d="M 0 2.738613 
C 0.726289 2.738613 1.422928 2.450055 1.936492 1.936492 
C 2.450055 1.422928 2.738613 0.726289 2.738613 0 
C 2.738613 -0.726289 2.450055 -1.422928 1.936492 -1.936492 
C 1.422928 -2.450055 0.726289 -2.738613 0 -2.738613 
C -0.726289 -2.738613 -1.422928 -2.450055 -1.936492 -1.936492 
C -2.450055 -1.422928 -2.738613 -0.726289 -2.738613 0 
C -2.738613 0.726289 -2.450055 1.422928 -1.936492 1.936492 
C -1.422928 2.450055 -0.726289 2.738613 0 2.738613 
z
" id="mb7b2a8567c" style="stroke:#ff0000;"/>
    </defs>
    <g clip-path="url(#p03177e2644)">
     <use style="fill:#ff0000;stroke:#ff0000;" x="76.585219" xlink:href="#mb7b2a8567c" y="292.597499"/>
     <use style="fill:#ff0000;stroke:#ff0000;" x="306.294899" xlink:href="#mb7b2a8567c" y="205.835424"/>
     <use style="fill:#ff0000;stroke:#ff0000;" x="384.190408" xlink:href="#mb7b2a8567c" y="232.062744"/>
     <use style="fill:#ff0000;stroke:#ff0000;" x="297.07919" xlink:href="#mb7b2a8567c" y="67.302682"/>
     <use style="fill:#ff0000;stroke:#ff0000;" x="250.44606" xlink:href="#mb7b2a8567c" y="166.161828"/>
     <use style="fill:#ff0000;stroke:#ff0000;" x="365.89284" xlink:href="#mb7b2a8567c" y="198.861091"/>
     <use style="fill:#ff0000;stroke:#ff0000;" x="370.107081" xlink:href="#mb7b2a8567c" y="206.788378"/>
     <use style="fill:#ff0000;stroke:#ff0000;" x="289.102647" xlink:href="#mb7b2a8567c" y="57.75517"/>
     <use style="fill:#ff0000;stroke:#ff0000;" x="396.334767" xlink:href="#mb7b2a8567c" y="205.96893"/>
     <use style="fill:#ff0000;stroke:#ff0000;" x="397.174602" xlink:href="#mb7b2a8567c" y="214.304748"/>
    </g>
   </g>
   <g id="text_13">
    <!-- (125) Subject: s27, Known = False, Degree = 1, Duration = 0.1 -->
    <defs>
     <path d="M 31 75.875 
Q 24.46875 64.65625 21.28125 53.65625 
Q 18.109375 42.671875 18.109375 31.390625 
Q 18.109375 20.125 21.3125 9.0625 
Q 24.515625 -2 31 -13.1875 
L 23.1875 -13.1875 
Q 15.875 -1.703125 12.234375 9.375 
Q 8.59375 20.453125 8.59375 31.390625 
Q 8.59375 42.28125 12.203125 53.3125 
Q 15.828125 64.359375 23.1875 75.875 
z
" id="DejaVuSans-40"/>
     <path d="M 12.40625 8.296875 
L 28.515625 8.296875 
L 28.515625 63.921875 
L 10.984375 60.40625 
L 10.984375 69.390625 
L 28.421875 72.90625 
L 38.28125 72.90625 
L 38.28125 8.296875 
L 54.390625 8.296875 
L 54.390625 0 
L 12.40625 0 
z
" id="DejaVuSans-49"/>
     <path d="M 10.796875 72.90625 
L 49.515625 72.90625 
L 49.515625 64.59375 
L 19.828125 64.59375 
L 19.828125 46.734375 
Q 21.96875 47.46875 24.109375 47.828125 
Q 26.265625 48.1875 28.421875 48.1875 
Q 40.625 48.1875 47.75 41.5 
Q 54.890625 34.8125 54.890625 23.390625 
Q 54.890625 11.625 47.5625 5.09375 
Q 40.234375 -1.421875 26.90625 -1.421875 
Q 22.3125 -1.421875 17.546875 -0.640625 
Q 12.796875 0.140625 7.71875 1.703125 
L 7.71875 11.625 
Q 12.109375 9.234375 16.796875 8.0625 
Q 21.484375 6.890625 26.703125 6.890625 
Q 35.15625 6.890625 40.078125 11.328125 
Q 45.015625 15.765625 45.015625 23.390625 
Q 45.015625 31 40.078125 35.4375 
Q 35.15625 39.890625 26.703125 39.890625 
Q 22.75 39.890625 18.8125 39.015625 
Q 14.890625 38.140625 10.796875 36.28125 
z
" id="DejaVuSans-53"/>
     <path d="M 8.015625 75.875 
L 15.828125 75.875 
Q 23.140625 64.359375 26.78125 53.3125 
Q 30.421875 42.28125 30.421875 31.390625 
Q 30.421875 20.453125 26.78125 9.375 
Q 23.140625 -1.703125 15.828125 -13.1875 
L 8.015625 -13.1875 
Q 14.5 -2 17.703125 9.0625 
Q 20.90625 20.125 20.90625 31.390625 
Q 20.90625 42.671875 17.703125 53.65625 
Q 14.5 64.65625 8.015625 75.875 
z
" id="DejaVuSans-41"/>
     <path id="DejaVuSans-32"/>
     <path d="M 53.515625 70.515625 
L 53.515625 60.890625 
Q 47.90625 63.578125 42.921875 64.890625 
Q 37.9375 66.21875 33.296875 66.21875 
Q 25.25 66.21875 20.875 63.09375 
Q 16.5 59.96875 16.5 54.203125 
Q 16.5 49.359375 19.40625 46.890625 
Q 22.3125 44.4375 30.421875 42.921875 
L 36.375 41.703125 
Q 47.40625 39.59375 52.65625 34.296875 
Q 57.90625 29 57.90625 20.125 
Q 57.90625 9.515625 50.796875 4.046875 
Q 43.703125 -1.421875 29.984375 -1.421875 
Q 24.8125 -1.421875 18.96875 -0.25 
Q 13.140625 0.921875 6.890625 3.21875 
L 6.890625 13.375 
Q 12.890625 10.015625 18.65625 8.296875 
Q 24.421875 6.59375 29.984375 6.59375 
Q 38.421875 6.59375 43.015625 9.90625 
Q 47.609375 13.234375 47.609375 19.390625 
Q 47.609375 24.75 44.3125 27.78125 
Q 41.015625 30.8125 33.5 32.328125 
L 27.484375 33.5 
Q 16.453125 35.6875 11.515625 40.375 
Q 6.59375 45.0625 6.59375 53.421875 
Q 6.59375 63.09375 13.40625 68.65625 
Q 20.21875 74.21875 32.171875 74.21875 
Q 37.3125 74.21875 42.625 73.28125 
Q 47.953125 72.359375 53.515625 70.515625 
z
" id="DejaVuSans-83"/>
     <path d="M 8.5 21.578125 
L 8.5 54.6875 
L 17.484375 54.6875 
L 17.484375 21.921875 
Q 17.484375 14.15625 20.5 10.265625 
Q 23.53125 6.390625 29.59375 6.390625 
Q 36.859375 6.390625 41.078125 11.03125 
Q 45.3125 15.671875 45.3125 23.6875 
L 45.3125 54.6875 
L 54.296875 54.6875 
L 54.296875 0 
L 45.3125 0 
L 45.3125 8.40625 
Q 42.046875 3.421875 37.71875 1 
Q 33.40625 -1.421875 27.6875 -1.421875 
Q 18.265625 -1.421875 13.375 4.4375 
Q 8.5 10.296875 8.5 21.578125 
z
M 31.109375 56 
z
" id="DejaVuSans-117"/>
     <path d="M 48.6875 27.296875 
Q 48.6875 37.203125 44.609375 42.84375 
Q 40.53125 48.484375 33.40625 48.484375 
Q 26.265625 48.484375 22.1875 42.84375 
Q 18.109375 37.203125 18.109375 27.296875 
Q 18.109375 17.390625 22.1875 11.75 
Q 26.265625 6.109375 33.40625 6.109375 
Q 40.53125 6.109375 44.609375 11.75 
Q 48.6875 17.390625 48.6875 27.296875 
z
M 18.109375 46.390625 
Q 20.953125 51.265625 25.265625 53.625 
Q 29.59375 56 35.59375 56 
Q 45.5625 56 51.78125 48.09375 
Q 58.015625 40.1875 58.015625 27.296875 
Q 58.015625 14.40625 51.78125 6.484375 
Q 45.5625 -1.421875 35.59375 -1.421875 
Q 29.59375 -1.421875 25.265625 0.953125 
Q 20.953125 3.328125 18.109375 8.203125 
L 18.109375 0 
L 9.078125 0 
L 9.078125 75.984375 
L 18.109375 75.984375 
z
" id="DejaVuSans-98"/>
     <path d="M 9.421875 54.6875 
L 18.40625 54.6875 
L 18.40625 -0.984375 
Q 18.40625 -11.421875 14.421875 -16.109375 
Q 10.453125 -20.796875 1.609375 -20.796875 
L -1.8125 -20.796875 
L -1.8125 -13.1875 
L 0.59375 -13.1875 
Q 5.71875 -13.1875 7.5625 -10.8125 
Q 9.421875 -8.453125 9.421875 -0.984375 
z
M 9.421875 75.984375 
L 18.40625 75.984375 
L 18.40625 64.59375 
L 9.421875 64.59375 
z
" id="DejaVuSans-106"/>
     <path d="M 56.203125 29.59375 
L 56.203125 25.203125 
L 14.890625 25.203125 
Q 15.484375 15.921875 20.484375 11.0625 
Q 25.484375 6.203125 34.421875 6.203125 
Q 39.59375 6.203125 44.453125 7.46875 
Q 49.3125 8.734375 54.109375 11.28125 
L 54.109375 2.78125 
Q 49.265625 0.734375 44.1875 -0.34375 
Q 39.109375 -1.421875 33.890625 -1.421875 
Q 20.796875 -1.421875 13.15625 6.1875 
Q 5.515625 13.8125 5.515625 26.8125 
Q 5.515625 40.234375 12.765625 48.109375 
Q 20.015625 56 32.328125 56 
Q 43.359375 56 49.78125 48.890625 
Q 56.203125 41.796875 56.203125 29.59375 
z
M 47.21875 32.234375 
Q 47.125 39.59375 43.09375 43.984375 
Q 39.0625 48.390625 32.421875 48.390625 
Q 24.90625 48.390625 20.390625 44.140625 
Q 15.875 39.890625 15.1875 32.171875 
z
" id="DejaVuSans-101"/>
     <path d="M 48.78125 52.59375 
L 48.78125 44.1875 
Q 44.96875 46.296875 41.140625 47.34375 
Q 37.3125 48.390625 33.40625 48.390625 
Q 24.65625 48.390625 19.8125 42.84375 
Q 14.984375 37.3125 14.984375 27.296875 
Q 14.984375 17.28125 19.8125 11.734375 
Q 24.65625 6.203125 33.40625 6.203125 
Q 37.3125 6.203125 41.140625 7.25 
Q 44.96875 8.296875 48.78125 10.40625 
L 48.78125 2.09375 
Q 45.015625 0.34375 40.984375 -0.53125 
Q 36.96875 -1.421875 32.421875 -1.421875 
Q 20.0625 -1.421875 12.78125 6.34375 
Q 5.515625 14.109375 5.515625 27.296875 
Q 5.515625 40.671875 12.859375 48.328125 
Q 20.21875 56 33.015625 56 
Q 37.15625 56 41.109375 55.140625 
Q 45.0625 54.296875 48.78125 52.59375 
z
" id="DejaVuSans-99"/>
     <path d="M 18.3125 70.21875 
L 18.3125 54.6875 
L 36.8125 54.6875 
L 36.8125 47.703125 
L 18.3125 47.703125 
L 18.3125 18.015625 
Q 18.3125 11.328125 20.140625 9.421875 
Q 21.96875 7.515625 27.59375 7.515625 
L 36.8125 7.515625 
L 36.8125 0 
L 27.59375 0 
Q 17.1875 0 13.234375 3.875 
Q 9.28125 7.765625 9.28125 18.015625 
L 9.28125 47.703125 
L 2.6875 47.703125 
L 2.6875 54.6875 
L 9.28125 54.6875 
L 9.28125 70.21875 
z
" id="DejaVuSans-116"/>
     <path d="M 11.71875 12.40625 
L 22.015625 12.40625 
L 22.015625 0 
L 11.71875 0 
z
M 11.71875 51.703125 
L 22.015625 51.703125 
L 22.015625 39.3125 
L 11.71875 39.3125 
z
" id="DejaVuSans-58"/>
     <path d="M 44.28125 53.078125 
L 44.28125 44.578125 
Q 40.484375 46.53125 36.375 47.5 
Q 32.28125 48.484375 27.875 48.484375 
Q 21.1875 48.484375 17.84375 46.4375 
Q 14.5 44.390625 14.5 40.28125 
Q 14.5 37.15625 16.890625 35.375 
Q 19.28125 33.59375 26.515625 31.984375 
L 29.59375 31.296875 
Q 39.15625 29.25 43.1875 25.515625 
Q 47.21875 21.78125 47.21875 15.09375 
Q 47.21875 7.46875 41.1875 3.015625 
Q 35.15625 -1.421875 24.609375 -1.421875 
Q 20.21875 -1.421875 15.453125 -0.5625 
Q 10.6875 0.296875 5.421875 2 
L 5.421875 11.28125 
Q 10.40625 8.6875 15.234375 7.390625 
Q 20.0625 6.109375 24.8125 6.109375 
Q 31.15625 6.109375 34.5625 8.28125 
Q 37.984375 10.453125 37.984375 14.40625 
Q 37.984375 18.0625 35.515625 20.015625 
Q 33.0625 21.96875 24.703125 23.78125 
L 21.578125 24.515625 
Q 13.234375 26.265625 9.515625 29.90625 
Q 5.8125 33.546875 5.8125 39.890625 
Q 5.8125 47.609375 11.28125 51.796875 
Q 16.75 56 26.8125 56 
Q 31.78125 56 36.171875 55.265625 
Q 40.578125 54.546875 44.28125 53.078125 
z
" id="DejaVuSans-115"/>
     <path d="M 8.203125 72.90625 
L 55.078125 72.90625 
L 55.078125 68.703125 
L 28.609375 0 
L 18.3125 0 
L 43.21875 64.59375 
L 8.203125 64.59375 
z
" id="DejaVuSans-55"/>
     <path d="M 11.71875 12.40625 
L 22.015625 12.40625 
L 22.015625 4 
L 14.015625 -11.625 
L 7.71875 -11.625 
L 11.71875 4 
z
" id="DejaVuSans-44"/>
     <path d="M 9.8125 72.90625 
L 19.671875 72.90625 
L 19.671875 42.09375 
L 52.390625 72.90625 
L 65.09375 72.90625 
L 28.90625 38.921875 
L 67.671875 0 
L 54.6875 0 
L 19.671875 35.109375 
L 19.671875 0 
L 9.8125 0 
z
" id="DejaVuSans-75"/>
     <path d="M 54.890625 33.015625 
L 54.890625 0 
L 45.90625 0 
L 45.90625 32.71875 
Q 45.90625 40.484375 42.875 44.328125 
Q 39.84375 48.1875 33.796875 48.1875 
Q 26.515625 48.1875 22.3125 43.546875 
Q 18.109375 38.921875 18.109375 30.90625 
L 18.109375 0 
L 9.078125 0 
L 9.078125 54.6875 
L 18.109375 54.6875 
L 18.109375 46.1875 
Q 21.34375 51.125 25.703125 53.5625 
Q 30.078125 56 35.796875 56 
Q 45.21875 56 50.046875 50.171875 
Q 54.890625 44.34375 54.890625 33.015625 
z
" id="DejaVuSans-110"/>
     <path d="M 30.609375 48.390625 
Q 23.390625 48.390625 19.1875 42.75 
Q 14.984375 37.109375 14.984375 27.296875 
Q 14.984375 17.484375 19.15625 11.84375 
Q 23.34375 6.203125 30.609375 6.203125 
Q 37.796875 6.203125 41.984375 11.859375 
Q 46.1875 17.53125 46.1875 27.296875 
Q 46.1875 37.015625 41.984375 42.703125 
Q 37.796875 48.390625 30.609375 48.390625 
z
M 30.609375 56 
Q 42.328125 56 49.015625 48.375 
Q 55.71875 40.765625 55.71875 27.296875 
Q 55.71875 13.875 49.015625 6.21875 
Q 42.328125 -1.421875 30.609375 -1.421875 
Q 18.84375 -1.421875 12.171875 6.21875 
Q 5.515625 13.875 5.515625 27.296875 
Q 5.515625 40.765625 12.171875 48.375 
Q 18.84375 56 30.609375 56 
z
" id="DejaVuSans-111"/>
     <path d="M 4.203125 54.6875 
L 13.1875 54.6875 
L 24.421875 12.015625 
L 35.59375 54.6875 
L 46.1875 54.6875 
L 57.421875 12.015625 
L 68.609375 54.6875 
L 77.59375 54.6875 
L 63.28125 0 
L 52.6875 0 
L 40.921875 44.828125 
L 29.109375 0 
L 18.5 0 
z
" id="DejaVuSans-119"/>
     <path d="M 10.59375 45.40625 
L 73.1875 45.40625 
L 73.1875 37.203125 
L 10.59375 37.203125 
z
M 10.59375 25.484375 
L 73.1875 25.484375 
L 73.1875 17.1875 
L 10.59375 17.1875 
z
" id="DejaVuSans-61"/>
     <path d="M 9.8125 72.90625 
L 51.703125 72.90625 
L 51.703125 64.59375 
L 19.671875 64.59375 
L 19.671875 43.109375 
L 48.578125 43.109375 
L 48.578125 34.8125 
L 19.671875 34.8125 
L 19.671875 0 
L 9.8125 0 
z
" id="DejaVuSans-70"/>
     <path d="M 34.28125 27.484375 
Q 23.390625 27.484375 19.1875 25 
Q 14.984375 22.515625 14.984375 16.5 
Q 14.984375 11.71875 18.140625 8.90625 
Q 21.296875 6.109375 26.703125 6.109375 
Q 34.1875 6.109375 38.703125 11.40625 
Q 43.21875 16.703125 43.21875 25.484375 
L 43.21875 27.484375 
z
M 52.203125 31.203125 
L 52.203125 0 
L 43.21875 0 
L 43.21875 8.296875 
Q 40.140625 3.328125 35.546875 0.953125 
Q 30.953125 -1.421875 24.3125 -1.421875 
Q 15.921875 -1.421875 10.953125 3.296875 
Q 6 8.015625 6 15.921875 
Q 6 25.140625 12.171875 29.828125 
Q 18.359375 34.515625 30.609375 34.515625 
L 43.21875 34.515625 
L 43.21875 35.40625 
Q 43.21875 41.609375 39.140625 45 
Q 35.0625 48.390625 27.6875 48.390625 
Q 23 48.390625 18.546875 47.265625 
Q 14.109375 46.140625 10.015625 43.890625 
L 10.015625 52.203125 
Q 14.9375 54.109375 19.578125 55.046875 
Q 24.21875 56 28.609375 56 
Q 40.484375 56 46.34375 49.84375 
Q 52.203125 43.703125 52.203125 31.203125 
z
" id="DejaVuSans-97"/>
     <path d="M 9.421875 75.984375 
L 18.40625 75.984375 
L 18.40625 0 
L 9.421875 0 
z
" id="DejaVuSans-108"/>
     <path d="M 19.671875 64.796875 
L 19.671875 8.109375 
L 31.59375 8.109375 
Q 46.6875 8.109375 53.6875 14.9375 
Q 60.6875 21.78125 60.6875 36.53125 
Q 60.6875 51.171875 53.6875 57.984375 
Q 46.6875 64.796875 31.59375 64.796875 
z
M 9.8125 72.90625 
L 30.078125 72.90625 
Q 51.265625 72.90625 61.171875 64.09375 
Q 71.09375 55.28125 71.09375 36.53125 
Q 71.09375 17.671875 61.125 8.828125 
Q 51.171875 0 30.078125 0 
L 9.8125 0 
z
" id="DejaVuSans-68"/>
     <path d="M 45.40625 27.984375 
Q 45.40625 37.75 41.375 43.109375 
Q 37.359375 48.484375 30.078125 48.484375 
Q 22.859375 48.484375 18.828125 43.109375 
Q 14.796875 37.75 14.796875 27.984375 
Q 14.796875 18.265625 18.828125 12.890625 
Q 22.859375 7.515625 30.078125 7.515625 
Q 37.359375 7.515625 41.375 12.890625 
Q 45.40625 18.265625 45.40625 27.984375 
z
M 54.390625 6.78125 
Q 54.390625 -7.171875 48.1875 -13.984375 
Q 42 -20.796875 29.203125 -20.796875 
Q 24.46875 -20.796875 20.265625 -20.09375 
Q 16.0625 -19.390625 12.109375 -17.921875 
L 12.109375 -9.1875 
Q 16.0625 -11.328125 19.921875 -12.34375 
Q 23.78125 -13.375 27.78125 -13.375 
Q 36.625 -13.375 41.015625 -8.765625 
Q 45.40625 -4.15625 45.40625 5.171875 
L 45.40625 9.625 
Q 42.625 4.78125 38.28125 2.390625 
Q 33.9375 0 27.875 0 
Q 17.828125 0 11.671875 7.65625 
Q 5.515625 15.328125 5.515625 27.984375 
Q 5.515625 40.671875 11.671875 48.328125 
Q 17.828125 56 27.875 56 
Q 33.9375 56 38.28125 53.609375 
Q 42.625 51.21875 45.40625 46.390625 
L 45.40625 54.6875 
L 54.390625 54.6875 
z
" id="DejaVuSans-103"/>
     <path d="M 41.109375 46.296875 
Q 39.59375 47.171875 37.8125 47.578125 
Q 36.03125 48 33.890625 48 
Q 26.265625 48 22.1875 43.046875 
Q 18.109375 38.09375 18.109375 28.8125 
L 18.109375 0 
L 9.078125 0 
L 9.078125 54.6875 
L 18.109375 54.6875 
L 18.109375 46.1875 
Q 20.953125 51.171875 25.484375 53.578125 
Q 30.03125 56 36.53125 56 
Q 37.453125 56 38.578125 55.875 
Q 39.703125 55.765625 41.0625 55.515625 
z
" id="DejaVuSans-114"/>
     <path d="M 9.421875 54.6875 
L 18.40625 54.6875 
L 18.40625 0 
L 9.421875 0 
z
M 9.421875 75.984375 
L 18.40625 75.984375 
L 18.40625 64.59375 
L 9.421875 64.59375 
z
" id="DejaVuSans-105"/>
     <path d="M 10.6875 12.40625 
L 21 12.40625 
L 21 0 
L 10.6875 0 
z
" id="DejaVuSans-46"/>
    </defs>
    <g transform="translate(45.924375 35.472)scale(0.12 -0.12)">
     <use xlink:href="#DejaVuSans-40"/>
     <use x="39.013672" xlink:href="#DejaVuSans-49"/>
     <use x="102.636719" xlink:href="#DejaVuSans-50"/>
     <use x="166.259766" xlink:href="#DejaVuSans-53"/>
     <use x="229.882812" xlink:href="#DejaVuSans-41"/>
     <use x="268.896484" xlink:href="#DejaVuSans-32"/>
     <use x="300.683594" xlink:href="#DejaVuSans-83"/>
     <use x="364.160156" xlink:href="#DejaVuSans-117"/>
     <use x="427.539062" xlink:href="#DejaVuSans-98"/>
     <use x="491.015625" xlink:href="#DejaVuSans-106"/>
     <use x="518.798828" xlink:href="#DejaVuSans-101"/>
     <use x="580.322266" xlink:href="#DejaVuSans-99"/>
     <use x="635.302734" xlink:href="#DejaVuSans-116"/>
     <use x="674.511719" xlink:href="#DejaVuSans-58"/>
     <use x="708.203125" xlink:href="#DejaVuSans-32"/>
     <use x="739.990234" xlink:href="#DejaVuSans-115"/>
     <use x="792.089844" xlink:href="#DejaVuSans-50"/>
     <use x="855.712891" xlink:href="#DejaVuSans-55"/>
     <use x="919.335938" xlink:href="#DejaVuSans-44"/>
     <use x="951.123047" xlink:href="#DejaVuSans-32"/>
     <use x="982.910156" xlink:href="#DejaVuSans-75"/>
     <use x="1048.486328" xlink:href="#DejaVuSans-110"/>
     <use x="1111.865234" xlink:href="#DejaVuSans-111"/>
     <use x="1173.046875" xlink:href="#DejaVuSans-119"/>
     <use x="1254.833984" xlink:href="#DejaVuSans-110"/>
     <use x="1318.212891" xlink:href="#DejaVuSans-32"/>
     <use x="1350" xlink:href="#DejaVuSans-61"/>
     <use x="1433.789062" xlink:href="#DejaVuSans-32"/>
     <use x="1465.576172" xlink:href="#DejaVuSans-70"/>
     <use x="1522.955078" xlink:href="#DejaVuSans-97"/>
     <use x="1584.234375" xlink:href="#DejaVuSans-108"/>
     <use x="1612.017578" xlink:href="#DejaVuSans-115"/>
     <use x="1664.117188" xlink:href="#DejaVuSans-101"/>
     <use x="1725.640625" xlink:href="#DejaVuSans-44"/>
     <use x="1757.427734" xlink:href="#DejaVuSans-32"/>
     <use x="1789.214844" xlink:href="#DejaVuSans-68"/>
     <use x="1866.216797" xlink:href="#DejaVuSans-101"/>
     <use x="1927.740234" xlink:href="#DejaVuSans-103"/>
     <use x="1991.216797" xlink:href="#DejaVuSans-114"/>
     <use x="2032.298828" xlink:href="#DejaVuSans-101"/>
     <use x="2093.822266" xlink:href="#DejaVuSans-101"/>
     <use x="2155.345703" xlink:href="#DejaVuSans-32"/>
     <use x="2187.132812" xlink:href="#DejaVuSans-61"/>
     <use x="2270.921875" xlink:href="#DejaVuSans-32"/>
     <use x="2302.708984" xlink:href="#DejaVuSans-49"/>
     <use x="2366.332031" xlink:href="#DejaVuSans-44"/>
     <use x="2398.119141" xlink:href="#DejaVuSans-32"/>
     <use x="2429.90625" xlink:href="#DejaVuSans-68"/>
     <use x="2506.908203" xlink:href="#DejaVuSans-117"/>
     <use x="2570.287109" xlink:href="#DejaVuSans-114"/>
     <use x="2611.400391" xlink:href="#DejaVuSans-97"/>
     <use x="2672.679688" xlink:href="#DejaVuSans-116"/>
     <use x="2711.888672" xlink:href="#DejaVuSans-105"/>
     <use x="2739.671875" xlink:href="#DejaVuSans-111"/>
     <use x="2800.853516" xlink:href="#DejaVuSans-110"/>
     <use x="2864.232422" xlink:href="#DejaVuSans-32"/>
     <use x="2896.019531" xlink:href="#DejaVuSans-61"/>
     <use x="2979.808594" xlink:href="#DejaVuSans-32"/>
     <use x="3011.595703" xlink:href="#DejaVuSans-48"/>
     <use x="3075.21875" xlink:href="#DejaVuSans-46"/>
     <use x="3107.005859" xlink:href="#DejaVuSans-49"/>
    </g>
   </g>
  </g>
 </g>
 <defs>
  <clipPath id="p03177e2644">
   <rect height="266.112" width="357.12" x="57.6" y="41.472"/>
  </clipPath>
 </defs>
</svg>
