<?xml version="1.0" encoding="utf-8" standalone="no"?>
<!DOCTYPE svg PUBLIC "-//W3C//DTD SVG 1.1//EN"
  "http://www.w3.org/Graphics/SVG/1.1/DTD/svg11.dtd">
<!-- Created with matplotlib (https://matplotlib.org/) -->
<svg height="345.6pt" version="1.1" viewBox="0 0 460.8 345.6" width="460.8pt" xmlns="http://www.w3.org/2000/svg" xmlns:xlink="http://www.w3.org/1999/xlink">
 <defs>
  <style type="text/css">
*{stroke-linecap:butt;stroke-linejoin:round;}
  </style>
 </defs>
 <g id="figure_1">
  <g id="patch_1">
   <path d="M 0 345.6 
L 460.8 345.6 
L 460.8 0 
L 0 0 
z
" style="fill:#ffffff;"/>
  </g>
  <g id="axes_1">
   <g id="patch_2">
    <path d="M 57.6 307.584 
L 414.72 307.584 
L 414.72 41.472 
L 57.6 41.472 
z
" style="fill:#ffffff;"/>
   </g>
   <g id="line2d_1">
    <path clip-path="url(#p05c0105d12)" d="M 77.715848 186.531232 
L 78.268834 186.531232 
L 78.824874 187.453253 
L 79.09984 189.297293 
L 78.546854 189.297293 
L 78.268834 187.453253 
L 77.715848 186.531232 
L 77.715848 186.531232 
L 77.990813 186.531232 
L 77.990813 183.759515 
L 77.715848 186.531232 
L 77.159807 188.375273 
L 76.881787 188.375273 
L 77.715848 188.375273 
L 78.268834 187.453253 
L 78.824874 187.453253 
L 77.990813 187.453253 
L 77.437827 186.531232 
L 77.159807 186.531232 
L 77.159807 186.531232 
L 77.715848 188.375273 
L 77.437827 186.531232 
L 77.437827 184.681535 
L 77.990813 186.531232 
L 78.546854 190.22497 
L 78.268834 192.06901 
L 77.715848 190.22497 
L 77.159807 186.531232 
L 77.159807 182.837495 
L 77.437827 182.837495 
L 77.437827 183.759515 
L 77.715848 186.531232 
L 77.437827 189.297293 
L 77.437827 191.14699 
L 77.159807 190.22497 
L 76.881787 187.453253 
L 77.159807 187.453253 
L 77.437827 189.297293 
L 77.437827 189.297293 
L 77.159807 189.297293 
L 77.159807 186.531232 
L 77.159807 186.531232 
L 76.881787 188.375273 
L 77.159807 186.531232 
L 77.437827 187.453253 
L 75.77276 192.99103 
L 75.497795 192.06901 
L 75.77276 190.22497 
L 75.77276 189.297293 
L 75.77276 190.22497 
L 75.219774 190.22497 
L 75.219774 188.375273 
L 75.497795 187.453253 
L 75.77276 187.453253 
L 75.77276 189.297293 
L 75.77276 188.375273 
L 76.05078 189.297293 
L 75.77276 190.22497 
L 75.497795 190.22497 
L 75.77276 190.22497 
L 75.77276 191.14699 
L 76.328801 192.06901 
L 76.606821 192.99103 
L 76.328801 194.840727 
L 75.497795 195.762747 
L 75.219774 194.840727 
L 75.219774 191.14699 
L 75.219774 191.14699 
L 75.497795 191.14699 
L 75.77276 190.22497 
L 76.05078 188.375273 
L 75.77276 189.297293 
L 75.497795 192.99103 
L 75.77276 190.22497 
L 76.05078 188.375273 
L 75.77276 190.22497 
L 75.77276 191.14699 
L 75.77276 190.22497 
L 75.497795 190.22497 
L 74.941754 192.06901 
L 74.110748 195.762747 
L 74.110748 197.606788 
L 74.941754 196.684768 
L 74.941754 194.840727 
L 75.77276 194.840727 
L 75.219774 194.840727 
L 74.110748 193.918707 
L 73.832727 192.06901 
L 73.832727 192.06901 
L 74.388768 193.918707 
L 74.941754 194.840727 
L 75.497795 193.918707 
L 75.497795 192.99103 
L 75.219774 193.918707 
L 74.941754 195.762747 
L 74.941754 193.918707 
L 75.497795 189.297293 
L 75.219774 191.14699 
L 74.663733 192.06901 
L 74.388768 191.14699 
L 74.941754 189.297293 
L 74.941754 192.06901 
L 75.497795 192.99103 
L 75.77276 193.918707 
L 75.77276 196.684768 
L 76.05078 196.684768 
L 76.606821 195.762747 
L 76.606821 192.99103 
L 76.606821 195.762747 
L 76.328801 196.684768 
L 75.77276 195.762747 
L 75.77276 193.918707 
L 76.05078 193.918707 
L 75.77276 192.06901 
L 75.497795 191.14699 
L 74.941754 192.06901 
L 75.497795 192.99103 
L 76.328801 192.99103 
L 76.328801 192.99103 
L 76.05078 194.840727 
L 76.328801 192.99103 
L 76.606821 192.99103 
L 76.328801 194.840727 
L 76.05078 195.762747 
L 75.219774 192.99103 
L 75.497795 193.918707 
L 76.05078 194.840727 
L 77.159807 192.99103 
L 77.437827 193.918707 
L 77.159807 194.840727 
L 76.05078 194.840727 
L 75.497795 193.918707 
L 76.328801 191.14699 
L 76.328801 191.14699 
L 75.497795 191.14699 
L 75.219774 192.06901 
L 75.219774 193.918707 
L 74.941754 195.762747 
L 74.663733 195.762747 
L 74.663733 192.99103 
L 75.497795 189.297293 
L 75.497795 194.840727 
L 75.77276 195.762747 
L 76.05078 195.762747 
L 75.77276 193.918707 
L 75.497795 192.99103 
L 75.497795 192.99103 
L 75.497795 194.840727 
L 75.219774 194.840727 
L 74.941754 192.99103 
L 74.663733 192.06901 
L 74.941754 191.14699 
L 75.497795 191.14699 
L 75.497795 192.06901 
L 74.663733 193.918707 
L 74.388768 194.840727 
L 74.663733 194.840727 
L 75.219774 195.762747 
L 75.219774 194.840727 
L 74.388768 193.918707 
L 74.388768 193.918707 
L 75.497795 195.762747 
L 75.77276 193.918707 
L 75.497795 192.06901 
L 75.77276 190.22497 
L 76.05078 190.22497 
L 75.497795 191.14699 
L 74.941754 192.99103 
L 74.941754 197.606788 
L 74.663733 199.456485 
L 74.663733 198.534465 
L 75.219774 197.606788 
L 75.77276 198.534465 
L 75.77276 198.534465 
L 75.497795 198.534465 
L 74.663733 197.606788 
L 74.388768 197.606788 
L 74.388768 196.684768 
L 74.941754 198.534465 
L 75.497795 197.606788 
L 76.05078 195.762747 
L 76.328801 193.918707 
L 77.715848 192.99103 
L 79.37786 192.99103 
L 80.764907 193.918707 
L 82.70494 192.06901 
L 85.753999 185.603556 
L 88.803058 177.294061 
L 92.408159 168.984566 
L 97.675271 161.597091 
L 103.498424 154.209616 
L 109.596543 144.978101 
L 115.419696 136.668606 
L 121.24285 130.203152 
L 127.618989 123.743354 
L 133.717107 116.355879 
L 139.54026 108.968404 
L 145.085393 104.352646 
L 161.720792 85.88396 
L 167.54089 81.268202 
L 173.364043 75.724768 
L 178.631156 69.26497 
L 183.623303 63.721535 
L 188.612395 62.799515 
L 193.879508 62.799515 
L 198.871655 61.877495 
L 203.029741 59.105778 
L 206.909806 57.256081 
L 215.503998 55.41204 
L 220.218125 54.49002 
L 224.09819 53.568 
L 229.921344 55.41204 
L 234.079429 55.41204 
L 235.188456 59.105778 
L 236.297483 61.877495 
L 237.406509 63.721535 
L 237.96255 66.493253 
L 237.406509 71.10901 
L 236.575503 74.802747 
L 236.022517 83.112242 
L 235.466476 87.728 
L 234.35745 92.343758 
L 233.526444 100.658909 
L 232.695438 114.506182 
L 231.586411 120.049616 
L 229.921344 126.509414 
L 227.981311 132.974869 
L 226.594264 139.440323 
L 226.041278 144.978101 
L 225.485237 145.900121 
L 225.207217 144.978101 
L 224.654231 144.978101 
L 223.267184 152.365576 
L 224.09819 153.287596 
L 224.654231 153.287596 
L 224.09819 153.287596 
L 223.545205 155.137293 
L 222.989164 157.903354 
L 222.989164 161.597091 
L 222.989164 161.597091 
L 222.436178 162.519111 
L 221.605172 163.446788 
L 221.049131 162.519111 
L 221.327151 163.446788 
L 222.158158 168.062545 
L 221.327151 168.984566 
L 220.218125 170.834263 
L 219.387119 175.45002 
L 219.662084 176.37204 
L 219.940104 176.37204 
L 218.278092 179.143758 
L 218.000072 179.143758 
L 218.278092 180.987798 
L 218.000072 183.759515 
L 217.447086 192.06901 
L 217.722051 193.918707 
L 217.722051 193.918707 
L 217.722051 192.99103 
L 216.891045 195.762747 
L 216.613025 195.762747 
L 216.338059 194.840727 
L 216.338059 196.684768 
L 216.060039 200.378505 
L 214.951012 203.150222 
L 213.841986 201.300525 
L 213.285945 199.456485 
L 213.563965 199.456485 
L 213.563965 202.228202 
L 214.951012 206.84396 
L 214.672992 206.84396 
L 213.841986 207.76598 
L 213.841986 206.84396 
L 213.563965 205.921939 
L 213.563965 207.76598 
L 213.285945 208.688 
L 212.732959 209.615677 
L 212.454939 212.381737 
L 211.901953 216.075475 
L 211.623933 216.075475 
L 211.623933 215.153455 
L 211.345912 216.075475 
L 211.345912 216.997495 
L 211.067892 216.075475 
L 211.067892 215.153455 
L 211.345912 216.997495 
L 211.623933 219.769212 
L 211.345912 222.540929 
L 210.792927 222.540929 
L 210.514906 221.618909 
L 210.514906 221.618909 
L 210.514906 222.540929 
L 209.958865 228.078707 
L 209.6839 228.078707 
L 209.40588 227.156687 
L 209.958865 228.078707 
L 210.792927 228.078707 
L 211.067892 226.234667 
L 210.236886 225.312646 
L 209.40588 228.078707 
L 209.127859 230.850424 
L 209.127859 230.850424 
L 209.40588 230.850424 
L 209.6839 231.772444 
L 209.958865 233.622141 
L 208.574873 233.622141 
L 208.018833 232.694465 
L 208.018833 232.694465 
L 208.018833 235.466182 
L 207.740812 239.159919 
L 206.909806 239.159919 
L 206.631786 238.237899 
L 206.631786 237.315879 
L 206.631786 239.159919 
L 206.631786 239.159919 
L 206.35682 237.315879 
L 206.0788 236.388202 
L 206.0788 238.237899 
L 206.631786 240.081939 
L 206.909806 241.931636 
L 206.631786 242.853657 
L 206.0788 242.853657 
L 206.35682 242.853657 
L 205.800779 246.547394 
L 206.909806 246.547394 
L 206.909806 247.469414 
L 206.631786 248.391434 
L 206.0788 247.469414 
L 204.969773 247.469414 
L 205.247794 246.547394 
L 205.800779 245.625374 
L 206.0788 244.703354 
L 204.969773 248.391434 
L 206.35682 248.391434 
L 206.909806 246.547394 
L 207.187826 244.703354 
L 207.187826 239.159919 
L 207.465847 239.159919 
L 207.465847 239.159919 
L 207.187826 237.315879 
L 206.631786 235.466182 
L 206.0788 235.466182 
L 205.247794 236.388202 
L 204.138767 237.315879 
L 200.811687 236.388202 
L 199.702661 237.315879 
L 198.037593 241.009616 
L 197.484608 242.853657 
L 197.484608 242.853657 
L 197.206587 242.853657 
L 197.206587 243.775677 
L 196.928567 245.625374 
L 196.653602 248.391434 
L 196.653602 250.241131 
L 196.928567 250.241131 
L 197.484608 251.163152 
L 198.315614 251.163152 
L 198.871655 252.085172 
L 198.315614 253.934869 
L 197.484608 255.778909 
L 197.484608 255.778909 
L 197.206587 256.706586 
L 197.484608 257.628606 
L 198.037593 258.550626 
L 198.037593 261.322343 
L 197.484608 263.166384 
L 197.206587 263.166384 
L 197.762628 263.166384 
L 198.037593 264.088404 
L 196.097561 264.088404 
L 194.988534 265.016081 
L 194.435548 265.938101 
L 194.710514 265.938101 
L 194.710514 267.782141 
L 194.988534 268.709818 
L 194.988534 269.631838 
L 194.435548 270.553859 
L 193.601487 271.475879 
L 193.326522 269.631838 
L 193.326522 269.631838 
L 193.601487 270.553859 
L 194.157528 271.475879 
L 194.435548 271.475879 
L 194.710514 270.553859 
L 194.435548 271.475879 
L 193.879508 270.553859 
L 193.326522 268.709818 
L 193.326522 267.782141 
L 193.879508 271.475879 
L 193.601487 272.403556 
L 193.326522 274.247596 
L 193.048501 275.169616 
L 193.048501 277.019313 
L 193.326522 277.941333 
L 193.048501 277.941333 
L 192.770481 277.019313 
L 193.048501 276.097293 
L 193.326522 277.019313 
L 193.326522 279.79103 
L 193.048501 281.635071 
L 192.217495 278.863354 
L 192.49246 278.863354 
L 192.770481 279.79103 
L 192.770481 279.79103 
L 192.49246 277.941333 
L 193.048501 277.941333 
L 192.770481 280.713051 
L 192.217495 282.557091 
L 191.939475 284.406788 
L 192.49246 285.328808 
L 192.49246 284.406788 
L 191.661454 282.557091 
L 191.661454 281.635071 
L 191.939475 281.635071 
L 191.939475 281.635071 
L 191.661454 280.713051 
L 191.108469 280.713051 
L 191.108469 281.635071 
L 191.661454 282.557091 
L 192.49246 282.557091 
L 192.49246 283.479111 
L 192.217495 282.557091 
L 191.661454 282.557091 
L 190.552428 284.406788 
L 189.999442 284.406788 
L 189.999442 283.479111 
L 190.830448 283.479111 
L 190.552428 285.328808 
L 190.274407 285.328808 
L 189.721422 286.250828 
L 189.721422 287.172848 
L 189.721422 286.250828 
L 190.274407 283.479111 
L 190.274407 283.479111 
L 190.552428 285.328808 
L 190.552428 286.250828 
L 190.274407 286.250828 
L 189.721422 289.022545 
L 189.165381 289.022545 
L 188.612395 287.172848 
L 189.443401 289.944566 
L 189.721422 289.944566 
L 189.721422 289.944566 
L 189.721422 289.022545 
L 190.274407 289.022545 
L 189.999442 289.944566 
L 189.165381 289.944566 
L 189.443401 289.944566 
L 189.721422 289.022545 
L 189.999442 289.022545 
L 190.274407 289.944566 
L 189.999442 289.944566 
L 189.999442 289.944566 
L 189.999442 290.866586 
L 189.721422 292.716283 
L 189.721422 292.716283 
L 189.165381 292.716283 
L 189.165381 291.794263 
L 188.334375 291.794263 
L 188.334375 290.866586 
L 188.890416 289.944566 
L 189.999442 292.716283 
L 190.552428 295.488 
L 188.890416 292.716283 
L 187.781389 291.794263 
L 187.781389 292.716283 
L 188.612395 292.716283 
L 188.612395 291.794263 
L 188.890416 290.866586 
L 189.165381 292.716283 
L 188.890416 294.560323 
L 189.165381 292.716283 
L 189.721422 289.944566 
L 190.830448 289.022545 
L 192.217495 289.022545 
L 193.879508 288.100525 
L 195.81954 286.250828 
L 198.871655 281.635071 
L 202.4737 277.941333 
L 205.800779 274.247596 
L 209.958865 268.709818 
L 214.672992 263.166384 
L 220.218125 255.778909 
L 227.42527 247.469414 
L 234.913491 240.081939 
L 242.673622 231.772444 
L 250.992849 220.691232 
L 259.865061 210.537697 
L 268.737274 201.300525 
L 277.884452 192.99103 
L 287.034685 183.759515 
L 295.906897 172.678303 
L 304.501089 159.753051 
L 313.095282 149.593859 
L 320.858468 141.284364 
L 327.512627 132.974869 
L 333.888766 126.509414 
L 339.708864 121.893657 
L 345.253997 120.049616 
L 350.79913 120.049616 
L 355.791277 119.121939 
L 360.502349 119.121939 
L 364.66349 116.355879 
L 368.821576 111.734465 
L 373.532647 107.118707 
L 378.246774 103.42497 
L 382.40486 103.42497 
L 389.059019 107.118707 
L 392.108079 106.196687 
L 394.326132 105.274667 
L 395.713179 106.196687 
L 397.931232 109.890424 
L 398.487273 111.734465 
L 397.931232 113.584162 
L 396.544185 116.355879 
L 394.882173 120.049616 
L 393.773146 121.893657 
L 392.94214 123.743354 
L 392.108079 126.509414 
L 390.724087 130.203152 
L 389.33704 132.974869 
L 388.228013 134.818909 
L 387.397007 135.746586 
L 386.840966 135.746586 
L 386.840966 134.818909 
L 387.118987 132.052848 
L 387.397007 131.125172 
L 387.671972 131.125172 
L 388.228013 132.052848 
L 388.506034 132.974869 
L 388.506034 134.818909 
L 388.780999 137.590626 
L 388.506034 137.590626 
L 387.397007 135.746586 
L 388.228013 138.512646 
L 388.228013 140.362343 
L 388.228013 140.362343 
L 387.671972 138.512646 
L 386.840966 138.512646 
L 385.456974 141.284364 
L 384.622913 144.056081 
L 384.622913 145.900121 
L 384.900933 144.978101 
L 384.900933 143.128404 
L 384.347948 144.978101 
L 384.622913 144.978101 
L 384.622913 144.978101 
L 384.347948 145.900121 
L 384.069927 145.900121 
L 383.791907 144.056081 
L 384.069927 144.056081 
L 384.622913 144.978101 
L 385.178954 144.978101 
L 385.456974 143.128404 
L 384.900933 142.206384 
L 384.622913 142.206384 
L 384.900933 144.056081 
L 384.622913 144.978101 
L 383.791907 142.206384 
L 384.069927 143.128404 
L 384.347948 144.978101 
L 384.347948 144.056081 
L 383.791907 142.206384 
L 383.513886 140.362343 
L 383.513886 140.362343 
L 383.513886 141.284364 
L 383.791907 142.206384 
L 383.513886 141.284364 
L 382.960901 140.362343 
L 382.68288 140.362343 
L 382.960901 142.206384 
L 383.238921 142.206384 
L 383.238921 136.668606 
L 383.238921 138.512646 
L 382.68288 137.590626 
L 382.40486 136.668606 
L 382.40486 136.668606 
L 382.960901 137.590626 
L 383.238921 138.512646 
L 383.238921 139.440323 
L 382.960901 139.440323 
L 381.851874 138.512646 
L 381.573854 138.512646 
L 382.129895 141.284364 
L 381.851874 143.128404 
L 381.020868 143.128404 
L 381.020868 142.206384 
L 381.573854 142.206384 
L 381.851874 143.128404 
L 381.295833 141.284364 
L 380.464827 141.284364 
L 380.186807 142.206384 
L 380.186807 143.128404 
L 380.464827 142.206384 
L 380.464827 140.362343 
L 380.186807 141.284364 
L 379.911841 143.128404 
L 379.911841 147.749818 
L 379.07778 147.749818 
L 379.355801 145.900121 
L 380.186807 144.056081 
L 381.020868 143.128404 
L 380.742848 142.206384 
L 380.186807 142.206384 
L 379.911841 141.284364 
L 379.07778 141.284364 
L 379.355801 142.206384 
L 379.633821 144.056081 
L 379.355801 144.056081 
L 379.633821 143.128404 
L 379.633821 142.206384 
L 379.07778 144.056081 
L 377.968753 145.900121 
L 378.246774 144.978101 
L 378.802815 144.978101 
L 378.802815 145.900121 
L 378.246774 147.749818 
L 377.693788 148.671838 
L 377.415768 147.749818 
L 377.415768 147.749818 
L 377.968753 147.749818 
L 378.246774 148.671838 
L 378.246774 150.515879 
L 378.246774 150.515879 
L 378.524794 149.593859 
L 378.802815 149.593859 
L 377.968753 149.593859 
L 376.859727 148.671838 
L 376.584762 147.749818 
L 377.137747 148.671838 
L 377.415768 150.515879 
L 376.859727 151.443556 
L 376.584762 149.593859 
L 376.859727 147.749818 
L 377.137747 146.822141 
L 377.415768 147.749818 
L 377.415768 147.749818 
L 377.693788 147.749818 
L 377.693788 148.671838 
L 377.415768 149.593859 
L 377.693788 150.515879 
L 377.693788 152.365576 
L 377.415768 155.137293 
L 377.137747 155.137293 
L 377.137747 152.365576 
L 377.415768 149.593859 
L 377.968753 151.443556 
L 377.968753 152.365576 
L 378.524794 152.365576 
L 378.524794 152.365576 
L 378.246774 153.287596 
L 377.968753 153.287596 
L 377.968753 154.209616 
L 377.693788 153.287596 
L 377.693788 152.365576 
L 377.693788 152.365576 
L 377.137747 154.209616 
L 377.415768 156.059313 
L 377.693788 156.059313 
L 377.693788 155.137293 
L 376.859727 155.137293 
L 376.306741 156.059313 
L 376.306741 156.981333 
L 376.859727 156.981333 
L 377.415768 153.287596 
L 377.415768 151.443556 
L 376.859727 150.515879 
L 376.306741 151.443556 
L 376.584762 153.287596 
L 377.137747 156.059313 
L 377.968753 156.059313 
L 378.246774 155.137293 
L 378.246774 153.287596 
L 377.693788 152.365576 
L 376.584762 154.209616 
L 376.859727 155.137293 
L 377.415768 153.287596 
L 377.968753 150.515879 
L 378.246774 151.443556 
L 378.246774 154.209616 
L 377.693788 156.059313 
L 376.028721 156.059313 
L 376.584762 156.059313 
L 377.137747 156.981333 
L 377.415768 157.903354 
L 377.415768 157.903354 
L 377.137747 157.903354 
L 377.968753 157.903354 
L 377.968753 156.981333 
L 377.693788 156.059313 
L 376.859727 155.137293 
L 376.028721 156.059313 
L 374.919694 159.753051 
L 375.197715 158.83103 
L 375.475735 156.059313 
L 375.475735 154.209616 
L 375.197715 154.209616 
L 376.028721 154.209616 
L 376.028721 154.209616 
L 374.919694 156.059313 
L 374.919694 158.83103 
L 375.7507 159.753051 
L 375.7507 158.83103 
L 375.7507 159.753051 
L 375.475735 159.753051 
L 374.919694 160.675071 
L 374.641674 160.675071 
L 374.919694 161.597091 
L 375.197715 161.597091 
L 375.197715 161.597091 
L 374.919694 160.675071 
L 374.366709 159.753051 
L 374.088688 158.83103 
L 374.366709 158.83103 
L 375.197715 160.675071 
L 375.7507 162.519111 
L 375.7507 164.368808 
L 374.641674 163.446788 
L 374.088688 162.519111 
L 374.088688 160.675071 
L 373.810668 157.903354 
L 373.810668 156.059313 
L 374.088688 156.059313 
L 374.088688 158.83103 
L 373.810668 160.675071 
L 373.810668 160.675071 
L 373.257682 158.83103 
L 372.979661 156.981333 
L 372.979661 159.753051 
L 372.701641 161.597091 
L 372.423621 162.519111 
L 372.701641 162.519111 
L 373.257682 160.675071 
L 373.257682 159.753051 
L 372.979661 158.83103 
L 372.701641 159.753051 
L 372.979661 160.675071 
L 373.532647 160.675071 
L 373.257682 159.753051 
L 372.423621 157.903354 
L 371.592614 157.903354 
L 371.314594 160.675071 
L 371.870635 164.368808 
L 372.701641 165.290828 
L 372.979661 165.290828 
L 372.979661 165.290828 
L 372.701641 166.212848 
L 372.148655 167.140525 
L 371.314594 164.368808 
L 371.314594 164.368808 
L 371.314594 162.519111 
L 371.314594 162.519111 
L 371.870635 163.446788 
L 372.148655 165.290828 
L 372.979661 165.290828 
L 372.979661 164.368808 
L 372.148655 164.368808 
L 371.314594 163.446788 
L 370.761608 163.446788 
L 370.205567 162.519111 
L 370.205567 161.597091 
L 370.483588 162.519111 
L 371.039629 166.212848 
L 371.314594 166.212848 
L 371.592614 165.290828 
L 371.314594 165.290828 
L 371.592614 167.140525 
L 371.870635 167.140525 
L 371.870635 165.290828 
L 371.314594 160.675071 
L 371.314594 160.675071 
L 371.870635 160.675071 
L 371.870635 164.368808 
L 372.148655 163.446788 
L 371.870635 163.446788 
L 372.148655 165.290828 
L 372.423621 164.368808 
L 372.701641 162.519111 
L 372.701641 161.597091 
L 372.423621 161.597091 
L 371.870635 160.675071 
L 371.592614 160.675071 
L 371.592614 160.675071 
L 370.483588 164.368808 
L 370.205567 166.212848 
L 370.205567 167.140525 
L 370.205567 166.212848 
L 371.039629 163.446788 
L 372.148655 163.446788 
L 372.423621 165.290828 
L 371.870635 166.212848 
L 371.039629 166.212848 
L 371.314594 167.140525 
L 370.483588 164.368808 
L 370.483588 162.519111 
L 370.761608 162.519111 
L 371.039629 163.446788 
L 371.039629 163.446788 
L 371.039629 164.368808 
L 371.870635 166.212848 
L 372.701641 167.140525 
L 372.701641 167.140525 
L 372.148655 166.212848 
L 371.592614 166.212848 
L 371.039629 164.368808 
L 370.761608 164.368808 
L 371.039629 165.290828 
L 371.039629 165.290828 
L 370.761608 166.212848 
L 370.205567 164.368808 
L 370.205567 162.519111 
L 369.930602 162.519111 
L 369.930602 166.212848 
L 370.205567 166.212848 
L 370.483588 164.368808 
L 370.483588 161.597091 
L 370.483588 161.597091 
L 370.761608 165.290828 
L 370.483588 165.290828 
L 370.483588 164.368808 
L 370.483588 165.290828 
L 369.099596 165.290828 
L 369.652582 164.368808 
L 369.930602 163.446788 
L 369.930602 166.212848 
L 370.483588 166.212848 
L 370.483588 165.290828 
L 370.205567 165.290828 
L 369.652582 166.212848 
L 369.099596 168.062545 
L 369.374561 168.984566 
L 370.205567 167.140525 
L 369.930602 165.290828 
L 369.374561 163.446788 
L 369.374561 162.519111 
L 370.205567 163.446788 
L 370.205567 164.368808 
L 369.930602 165.290828 
L 369.652582 165.290828 
L 369.652582 165.290828 
L 370.205567 163.446788 
L 370.483588 164.368808 
L 370.205567 165.290828 
L 369.652582 164.368808 
L 369.374561 165.290828 
L 370.205567 165.290828 
L 370.483588 166.212848 
L 369.930602 168.062545 
L 369.374561 168.984566 
L 369.099596 168.984566 
L 369.930602 168.984566 
L 370.761608 168.062545 
L 370.761608 168.062545 
" style="fill:none;stroke:#1f77b4;stroke-linecap:square;stroke-width:1.5;"/>
   </g>
   <g id="matplotlib.axis_1">
    <g id="xtick_1">
     <g id="line2d_2">
      <defs>
       <path d="M 0 0 
L 0 3.5 
" id="m53edb31e99" style="stroke:#000000;stroke-width:0.8;"/>
      </defs>
      <g>
       <use style="stroke:#000000;stroke-width:0.8;" x="112.126223" xlink:href="#m53edb31e99" y="307.584"/>
      </g>
     </g>
     <g id="text_1">
      <!-- −600 -->
      <defs>
       <path d="M 10.59375 35.5 
L 73.1875 35.5 
L 73.1875 27.203125 
L 10.59375 27.203125 
z
" id="DejaVuSans-8722"/>
       <path d="M 33.015625 40.375 
Q 26.375 40.375 22.484375 35.828125 
Q 18.609375 31.296875 18.609375 23.390625 
Q 18.609375 15.53125 22.484375 10.953125 
Q 26.375 6.390625 33.015625 6.390625 
Q 39.65625 6.390625 43.53125 10.953125 
Q 47.40625 15.53125 47.40625 23.390625 
Q 47.40625 31.296875 43.53125 35.828125 
Q 39.65625 40.375 33.015625 40.375 
z
M 52.59375 71.296875 
L 52.59375 62.3125 
Q 48.875 64.0625 45.09375 64.984375 
Q 41.3125 65.921875 37.59375 65.921875 
Q 27.828125 65.921875 22.671875 59.328125 
Q 17.53125 52.734375 16.796875 39.40625 
Q 19.671875 43.65625 24.015625 45.921875 
Q 28.375 48.1875 33.59375 48.1875 
Q 44.578125 48.1875 50.953125 41.515625 
Q 57.328125 34.859375 57.328125 23.390625 
Q 57.328125 12.15625 50.6875 5.359375 
Q 44.046875 -1.421875 33.015625 -1.421875 
Q 20.359375 -1.421875 13.671875 8.265625 
Q 6.984375 17.96875 6.984375 36.375 
Q 6.984375 53.65625 15.1875 63.9375 
Q 23.390625 74.21875 37.203125 74.21875 
Q 40.921875 74.21875 44.703125 73.484375 
Q 48.484375 72.75 52.59375 71.296875 
z
" id="DejaVuSans-54"/>
       <path d="M 31.78125 66.40625 
Q 24.171875 66.40625 20.328125 58.90625 
Q 16.5 51.421875 16.5 36.375 
Q 16.5 21.390625 20.328125 13.890625 
Q 24.171875 6.390625 31.78125 6.390625 
Q 39.453125 6.390625 43.28125 13.890625 
Q 47.125 21.390625 47.125 36.375 
Q 47.125 51.421875 43.28125 58.90625 
Q 39.453125 66.40625 31.78125 66.40625 
z
M 31.78125 74.21875 
Q 44.046875 74.21875 50.515625 64.515625 
Q 56.984375 54.828125 56.984375 36.375 
Q 56.984375 17.96875 50.515625 8.265625 
Q 44.046875 -1.421875 31.78125 -1.421875 
Q 19.53125 -1.421875 13.0625 8.265625 
Q 6.59375 17.96875 6.59375 36.375 
Q 6.59375 54.828125 13.0625 64.515625 
Q 19.53125 74.21875 31.78125 74.21875 
z
" id="DejaVuSans-48"/>
      </defs>
      <g transform="translate(98.39263 322.182437)scale(0.1 -0.1)">
       <use xlink:href="#DejaVuSans-8722"/>
       <use x="83.789062" xlink:href="#DejaVuSans-54"/>
       <use x="147.412109" xlink:href="#DejaVuSans-48"/>
       <use x="211.035156" xlink:href="#DejaVuSans-48"/>
      </g>
     </g>
    </g>
    <g id="xtick_2">
     <g id="line2d_3">
      <g>
       <use style="stroke:#000000;stroke-width:0.8;" x="173.229616" xlink:href="#m53edb31e99" y="307.584"/>
      </g>
     </g>
     <g id="text_2">
      <!-- −400 -->
      <defs>
       <path d="M 37.796875 64.3125 
L 12.890625 25.390625 
L 37.796875 25.390625 
z
M 35.203125 72.90625 
L 47.609375 72.90625 
L 47.609375 25.390625 
L 58.015625 25.390625 
L 58.015625 17.1875 
L 47.609375 17.1875 
L 47.609375 0 
L 37.796875 0 
L 37.796875 17.1875 
L 4.890625 17.1875 
L 4.890625 26.703125 
z
" id="DejaVuSans-52"/>
      </defs>
      <g transform="translate(159.496022 322.182437)scale(0.1 -0.1)">
       <use xlink:href="#DejaVuSans-8722"/>
       <use x="83.789062" xlink:href="#DejaVuSans-52"/>
       <use x="147.412109" xlink:href="#DejaVuSans-48"/>
       <use x="211.035156" xlink:href="#DejaVuSans-48"/>
      </g>
     </g>
    </g>
    <g id="xtick_3">
     <g id="line2d_4">
      <g>
       <use style="stroke:#000000;stroke-width:0.8;" x="234.333009" xlink:href="#m53edb31e99" y="307.584"/>
      </g>
     </g>
     <g id="text_3">
      <!-- −200 -->
      <defs>
       <path d="M 19.1875 8.296875 
L 53.609375 8.296875 
L 53.609375 0 
L 7.328125 0 
L 7.328125 8.296875 
Q 12.9375 14.109375 22.625 23.890625 
Q 32.328125 33.6875 34.8125 36.53125 
Q 39.546875 41.84375 41.421875 45.53125 
Q 43.3125 49.21875 43.3125 52.78125 
Q 43.3125 58.59375 39.234375 62.25 
Q 35.15625 65.921875 28.609375 65.921875 
Q 23.96875 65.921875 18.8125 64.3125 
Q 13.671875 62.703125 7.8125 59.421875 
L 7.8125 69.390625 
Q 13.765625 71.78125 18.9375 73 
Q 24.125 74.21875 28.421875 74.21875 
Q 39.75 74.21875 46.484375 68.546875 
Q 53.21875 62.890625 53.21875 53.421875 
Q 53.21875 48.921875 51.53125 44.890625 
Q 49.859375 40.875 45.40625 35.40625 
Q 44.1875 33.984375 37.640625 27.21875 
Q 31.109375 20.453125 19.1875 8.296875 
z
" id="DejaVuSans-50"/>
      </defs>
      <g transform="translate(220.599415 322.182437)scale(0.1 -0.1)">
       <use xlink:href="#DejaVuSans-8722"/>
       <use x="83.789062" xlink:href="#DejaVuSans-50"/>
       <use x="147.412109" xlink:href="#DejaVuSans-48"/>
       <use x="211.035156" xlink:href="#DejaVuSans-48"/>
      </g>
     </g>
    </g>
    <g id="xtick_4">
     <g id="line2d_5">
      <g>
       <use style="stroke:#000000;stroke-width:0.8;" x="295.436401" xlink:href="#m53edb31e99" y="307.584"/>
      </g>
     </g>
     <g id="text_4">
      <!-- 0 -->
      <g transform="translate(292.255151 322.182437)scale(0.1 -0.1)">
       <use xlink:href="#DejaVuSans-48"/>
      </g>
     </g>
    </g>
    <g id="xtick_5">
     <g id="line2d_6">
      <g>
       <use style="stroke:#000000;stroke-width:0.8;" x="356.539794" xlink:href="#m53edb31e99" y="307.584"/>
      </g>
     </g>
     <g id="text_5">
      <!-- 200 -->
      <g transform="translate(346.996044 322.182437)scale(0.1 -0.1)">
       <use xlink:href="#DejaVuSans-50"/>
       <use x="63.623047" xlink:href="#DejaVuSans-48"/>
       <use x="127.246094" xlink:href="#DejaVuSans-48"/>
      </g>
     </g>
    </g>
   </g>
   <g id="matplotlib.axis_2">
    <g id="ytick_1">
     <g id="line2d_7">
      <defs>
       <path d="M 0 0 
L -3.5 0 
" id="m46f9c58f59" style="stroke:#000000;stroke-width:0.8;"/>
      </defs>
      <g>
       <use style="stroke:#000000;stroke-width:0.8;" x="57.6" xlink:href="#m46f9c58f59" y="295.284364"/>
      </g>
     </g>
     <g id="text_6">
      <!-- −300 -->
      <defs>
       <path d="M 40.578125 39.3125 
Q 47.65625 37.796875 51.625 33 
Q 55.609375 28.21875 55.609375 21.1875 
Q 55.609375 10.40625 48.1875 4.484375 
Q 40.765625 -1.421875 27.09375 -1.421875 
Q 22.515625 -1.421875 17.65625 -0.515625 
Q 12.796875 0.390625 7.625 2.203125 
L 7.625 11.71875 
Q 11.71875 9.328125 16.59375 8.109375 
Q 21.484375 6.890625 26.8125 6.890625 
Q 36.078125 6.890625 40.9375 10.546875 
Q 45.796875 14.203125 45.796875 21.1875 
Q 45.796875 27.640625 41.28125 31.265625 
Q 36.765625 34.90625 28.71875 34.90625 
L 20.21875 34.90625 
L 20.21875 43.015625 
L 29.109375 43.015625 
Q 36.375 43.015625 40.234375 45.921875 
Q 44.09375 48.828125 44.09375 54.296875 
Q 44.09375 59.90625 40.109375 62.90625 
Q 36.140625 65.921875 28.71875 65.921875 
Q 24.65625 65.921875 20.015625 65.03125 
Q 15.375 64.15625 9.8125 62.3125 
L 9.8125 71.09375 
Q 15.4375 72.65625 20.34375 73.4375 
Q 25.25 74.21875 29.59375 74.21875 
Q 40.828125 74.21875 47.359375 69.109375 
Q 53.90625 64.015625 53.90625 55.328125 
Q 53.90625 49.265625 50.4375 45.09375 
Q 46.96875 40.921875 40.578125 39.3125 
z
" id="DejaVuSans-51"/>
      </defs>
      <g transform="translate(23.132812 299.083582)scale(0.1 -0.1)">
       <use xlink:href="#DejaVuSans-8722"/>
       <use x="83.789062" xlink:href="#DejaVuSans-51"/>
       <use x="147.412109" xlink:href="#DejaVuSans-48"/>
       <use x="211.035156" xlink:href="#DejaVuSans-48"/>
      </g>
     </g>
    </g>
    <g id="ytick_2">
     <g id="line2d_8">
      <g>
       <use style="stroke:#000000;stroke-width:0.8;" x="57.6" xlink:href="#m46f9c58f59" y="238.718707"/>
      </g>
     </g>
     <g id="text_7">
      <!-- −200 -->
      <g transform="translate(23.132812 242.517926)scale(0.1 -0.1)">
       <use xlink:href="#DejaVuSans-8722"/>
       <use x="83.789062" xlink:href="#DejaVuSans-50"/>
       <use x="147.412109" xlink:href="#DejaVuSans-48"/>
       <use x="211.035156" xlink:href="#DejaVuSans-48"/>
      </g>
     </g>
    </g>
    <g id="ytick_3">
     <g id="line2d_9">
      <g>
       <use style="stroke:#000000;stroke-width:0.8;" x="57.6" xlink:href="#m46f9c58f59" y="182.153051"/>
      </g>
     </g>
     <g id="text_8">
      <!-- −100 -->
      <defs>
       <path d="M 12.40625 8.296875 
L 28.515625 8.296875 
L 28.515625 63.921875 
L 10.984375 60.40625 
L 10.984375 69.390625 
L 28.421875 72.90625 
L 38.28125 72.90625 
L 38.28125 8.296875 
L 54.390625 8.296875 
L 54.390625 0 
L 12.40625 0 
z
" id="DejaVuSans-49"/>
      </defs>
      <g transform="translate(23.132812 185.952269)scale(0.1 -0.1)">
       <use xlink:href="#DejaVuSans-8722"/>
       <use x="83.789062" xlink:href="#DejaVuSans-49"/>
       <use x="147.412109" xlink:href="#DejaVuSans-48"/>
       <use x="211.035156" xlink:href="#DejaVuSans-48"/>
      </g>
     </g>
    </g>
    <g id="ytick_4">
     <g id="line2d_10">
      <g>
       <use style="stroke:#000000;stroke-width:0.8;" x="57.6" xlink:href="#m46f9c58f59" y="125.587394"/>
      </g>
     </g>
     <g id="text_9">
      <!-- 0 -->
      <g transform="translate(44.2375 129.386613)scale(0.1 -0.1)">
       <use xlink:href="#DejaVuSans-48"/>
      </g>
     </g>
    </g>
    <g id="ytick_5">
     <g id="line2d_11">
      <g>
       <use style="stroke:#000000;stroke-width:0.8;" x="57.6" xlink:href="#m46f9c58f59" y="69.021737"/>
      </g>
     </g>
     <g id="text_10">
      <!-- 100 -->
      <g transform="translate(31.5125 72.820956)scale(0.1 -0.1)">
       <use xlink:href="#DejaVuSans-49"/>
       <use x="63.623047" xlink:href="#DejaVuSans-48"/>
       <use x="127.246094" xlink:href="#DejaVuSans-48"/>
      </g>
     </g>
    </g>
   </g>
   <g id="line2d_12">
    <path clip-path="url(#p05c0105d12)" d="M 76.62746 191.166553 
L 209.685358 226.292737 
L 192.887663 277.133486 
L 383.931686 138.386837 
L 373.486178 160.396474 
" style="fill:none;stroke:#ff0000;stroke-linecap:square;stroke-width:0.5;"/>
   </g>
   <g id="patch_3">
    <path d="M 57.6 307.584 
L 57.6 41.472 
" style="fill:none;stroke:#000000;stroke-linecap:square;stroke-linejoin:miter;stroke-width:0.8;"/>
   </g>
   <g id="patch_4">
    <path d="M 414.72 307.584 
L 414.72 41.472 
" style="fill:none;stroke:#000000;stroke-linecap:square;stroke-linejoin:miter;stroke-width:0.8;"/>
   </g>
   <g id="patch_5">
    <path d="M 57.6 307.584 
L 414.72 307.584 
" style="fill:none;stroke:#000000;stroke-linecap:square;stroke-linejoin:miter;stroke-width:0.8;"/>
   </g>
   <g id="patch_6">
    <path d="M 57.6 41.472 
L 414.72 41.472 
" style="fill:none;stroke:#000000;stroke-linecap:square;stroke-linejoin:miter;stroke-width:0.8;"/>
   </g>
   <g id="PathCollection_1">
    <defs>
     <path d="M 0 2.738613 
C 0.726289 2.738613 1.422928 2.450055 1.936492 1.936492 
C 2.450055 1.422928 2.738613 0.726289 2.738613 0 
C 2.738613 -0.726289 2.450055 -1.422928 1.936492 -1.936492 
C 1.422928 -2.450055 0.726289 -2.738613 0 -2.738613 
C -0.726289 -2.738613 -1.422928 -2.450055 -1.936492 -1.936492 
C -2.450055 -1.422928 -2.738613 -0.726289 -2.738613 0 
C -2.738613 0.726289 -2.450055 1.422928 -1.936492 1.936492 
C -1.422928 2.450055 -0.726289 2.738613 0 2.738613 
z
" id="m53c0dbf012" style="stroke:#ff0000;"/>
    </defs>
    <g clip-path="url(#p05c0105d12)">
     <use style="fill:#ff0000;stroke:#ff0000;" x="76.62746" xlink:href="#m53c0dbf012" y="191.166553"/>
     <use style="fill:#ff0000;stroke:#ff0000;" x="209.685358" xlink:href="#m53c0dbf012" y="226.292737"/>
     <use style="fill:#ff0000;stroke:#ff0000;" x="192.887663" xlink:href="#m53c0dbf012" y="277.133486"/>
     <use style="fill:#ff0000;stroke:#ff0000;" x="383.931686" xlink:href="#m53c0dbf012" y="138.386837"/>
     <use style="fill:#ff0000;stroke:#ff0000;" x="373.486178" xlink:href="#m53c0dbf012" y="160.396474"/>
    </g>
   </g>
   <g id="text_11">
    <!-- (13) Subject: s13, Known = False, Degree = 1, Duration = 0.1 -->
    <defs>
     <path d="M 31 75.875 
Q 24.46875 64.65625 21.28125 53.65625 
Q 18.109375 42.671875 18.109375 31.390625 
Q 18.109375 20.125 21.3125 9.0625 
Q 24.515625 -2 31 -13.1875 
L 23.1875 -13.1875 
Q 15.875 -1.703125 12.234375 9.375 
Q 8.59375 20.453125 8.59375 31.390625 
Q 8.59375 42.28125 12.203125 53.3125 
Q 15.828125 64.359375 23.1875 75.875 
z
" id="DejaVuSans-40"/>
     <path d="M 8.015625 75.875 
L 15.828125 75.875 
Q 23.140625 64.359375 26.78125 53.3125 
Q 30.421875 42.28125 30.421875 31.390625 
Q 30.421875 20.453125 26.78125 9.375 
Q 23.140625 -1.703125 15.828125 -13.1875 
L 8.015625 -13.1875 
Q 14.5 -2 17.703125 9.0625 
Q 20.90625 20.125 20.90625 31.390625 
Q 20.90625 42.671875 17.703125 53.65625 
Q 14.5 64.65625 8.015625 75.875 
z
" id="DejaVuSans-41"/>
     <path id="DejaVuSans-32"/>
     <path d="M 53.515625 70.515625 
L 53.515625 60.890625 
Q 47.90625 63.578125 42.921875 64.890625 
Q 37.9375 66.21875 33.296875 66.21875 
Q 25.25 66.21875 20.875 63.09375 
Q 16.5 59.96875 16.5 54.203125 
Q 16.5 49.359375 19.40625 46.890625 
Q 22.3125 44.4375 30.421875 42.921875 
L 36.375 41.703125 
Q 47.40625 39.59375 52.65625 34.296875 
Q 57.90625 29 57.90625 20.125 
Q 57.90625 9.515625 50.796875 4.046875 
Q 43.703125 -1.421875 29.984375 -1.421875 
Q 24.8125 -1.421875 18.96875 -0.25 
Q 13.140625 0.921875 6.890625 3.21875 
L 6.890625 13.375 
Q 12.890625 10.015625 18.65625 8.296875 
Q 24.421875 6.59375 29.984375 6.59375 
Q 38.421875 6.59375 43.015625 9.90625 
Q 47.609375 13.234375 47.609375 19.390625 
Q 47.609375 24.75 44.3125 27.78125 
Q 41.015625 30.8125 33.5 32.328125 
L 27.484375 33.5 
Q 16.453125 35.6875 11.515625 40.375 
Q 6.59375 45.0625 6.59375 53.421875 
Q 6.59375 63.09375 13.40625 68.65625 
Q 20.21875 74.21875 32.171875 74.21875 
Q 37.3125 74.21875 42.625 73.28125 
Q 47.953125 72.359375 53.515625 70.515625 
z
" id="DejaVuSans-83"/>
     <path d="M 8.5 21.578125 
L 8.5 54.6875 
L 17.484375 54.6875 
L 17.484375 21.921875 
Q 17.484375 14.15625 20.5 10.265625 
Q 23.53125 6.390625 29.59375 6.390625 
Q 36.859375 6.390625 41.078125 11.03125 
Q 45.3125 15.671875 45.3125 23.6875 
L 45.3125 54.6875 
L 54.296875 54.6875 
L 54.296875 0 
L 45.3125 0 
L 45.3125 8.40625 
Q 42.046875 3.421875 37.71875 1 
Q 33.40625 -1.421875 27.6875 -1.421875 
Q 18.265625 -1.421875 13.375 4.4375 
Q 8.5 10.296875 8.5 21.578125 
z
M 31.109375 56 
z
" id="DejaVuSans-117"/>
     <path d="M 48.6875 27.296875 
Q 48.6875 37.203125 44.609375 42.84375 
Q 40.53125 48.484375 33.40625 48.484375 
Q 26.265625 48.484375 22.1875 42.84375 
Q 18.109375 37.203125 18.109375 27.296875 
Q 18.109375 17.390625 22.1875 11.75 
Q 26.265625 6.109375 33.40625 6.109375 
Q 40.53125 6.109375 44.609375 11.75 
Q 48.6875 17.390625 48.6875 27.296875 
z
M 18.109375 46.390625 
Q 20.953125 51.265625 25.265625 53.625 
Q 29.59375 56 35.59375 56 
Q 45.5625 56 51.78125 48.09375 
Q 58.015625 40.1875 58.015625 27.296875 
Q 58.015625 14.40625 51.78125 6.484375 
Q 45.5625 -1.421875 35.59375 -1.421875 
Q 29.59375 -1.421875 25.265625 0.953125 
Q 20.953125 3.328125 18.109375 8.203125 
L 18.109375 0 
L 9.078125 0 
L 9.078125 75.984375 
L 18.109375 75.984375 
z
" id="DejaVuSans-98"/>
     <path d="M 9.421875 54.6875 
L 18.40625 54.6875 
L 18.40625 -0.984375 
Q 18.40625 -11.421875 14.421875 -16.109375 
Q 10.453125 -20.796875 1.609375 -20.796875 
L -1.8125 -20.796875 
L -1.8125 -13.1875 
L 0.59375 -13.1875 
Q 5.71875 -13.1875 7.5625 -10.8125 
Q 9.421875 -8.453125 9.421875 -0.984375 
z
M 9.421875 75.984375 
L 18.40625 75.984375 
L 18.40625 64.59375 
L 9.421875 64.59375 
z
" id="DejaVuSans-106"/>
     <path d="M 56.203125 29.59375 
L 56.203125 25.203125 
L 14.890625 25.203125 
Q 15.484375 15.921875 20.484375 11.0625 
Q 25.484375 6.203125 34.421875 6.203125 
Q 39.59375 6.203125 44.453125 7.46875 
Q 49.3125 8.734375 54.109375 11.28125 
L 54.109375 2.78125 
Q 49.265625 0.734375 44.1875 -0.34375 
Q 39.109375 -1.421875 33.890625 -1.421875 
Q 20.796875 -1.421875 13.15625 6.1875 
Q 5.515625 13.8125 5.515625 26.8125 
Q 5.515625 40.234375 12.765625 48.109375 
Q 20.015625 56 32.328125 56 
Q 43.359375 56 49.78125 48.890625 
Q 56.203125 41.796875 56.203125 29.59375 
z
M 47.21875 32.234375 
Q 47.125 39.59375 43.09375 43.984375 
Q 39.0625 48.390625 32.421875 48.390625 
Q 24.90625 48.390625 20.390625 44.140625 
Q 15.875 39.890625 15.1875 32.171875 
z
" id="DejaVuSans-101"/>
     <path d="M 48.78125 52.59375 
L 48.78125 44.1875 
Q 44.96875 46.296875 41.140625 47.34375 
Q 37.3125 48.390625 33.40625 48.390625 
Q 24.65625 48.390625 19.8125 42.84375 
Q 14.984375 37.3125 14.984375 27.296875 
Q 14.984375 17.28125 19.8125 11.734375 
Q 24.65625 6.203125 33.40625 6.203125 
Q 37.3125 6.203125 41.140625 7.25 
Q 44.96875 8.296875 48.78125 10.40625 
L 48.78125 2.09375 
Q 45.015625 0.34375 40.984375 -0.53125 
Q 36.96875 -1.421875 32.421875 -1.421875 
Q 20.0625 -1.421875 12.78125 6.34375 
Q 5.515625 14.109375 5.515625 27.296875 
Q 5.515625 40.671875 12.859375 48.328125 
Q 20.21875 56 33.015625 56 
Q 37.15625 56 41.109375 55.140625 
Q 45.0625 54.296875 48.78125 52.59375 
z
" id="DejaVuSans-99"/>
     <path d="M 18.3125 70.21875 
L 18.3125 54.6875 
L 36.8125 54.6875 
L 36.8125 47.703125 
L 18.3125 47.703125 
L 18.3125 18.015625 
Q 18.3125 11.328125 20.140625 9.421875 
Q 21.96875 7.515625 27.59375 7.515625 
L 36.8125 7.515625 
L 36.8125 0 
L 27.59375 0 
Q 17.1875 0 13.234375 3.875 
Q 9.28125 7.765625 9.28125 18.015625 
L 9.28125 47.703125 
L 2.6875 47.703125 
L 2.6875 54.6875 
L 9.28125 54.6875 
L 9.28125 70.21875 
z
" id="DejaVuSans-116"/>
     <path d="M 11.71875 12.40625 
L 22.015625 12.40625 
L 22.015625 0 
L 11.71875 0 
z
M 11.71875 51.703125 
L 22.015625 51.703125 
L 22.015625 39.3125 
L 11.71875 39.3125 
z
" id="DejaVuSans-58"/>
     <path d="M 44.28125 53.078125 
L 44.28125 44.578125 
Q 40.484375 46.53125 36.375 47.5 
Q 32.28125 48.484375 27.875 48.484375 
Q 21.1875 48.484375 17.84375 46.4375 
Q 14.5 44.390625 14.5 40.28125 
Q 14.5 37.15625 16.890625 35.375 
Q 19.28125 33.59375 26.515625 31.984375 
L 29.59375 31.296875 
Q 39.15625 29.25 43.1875 25.515625 
Q 47.21875 21.78125 47.21875 15.09375 
Q 47.21875 7.46875 41.1875 3.015625 
Q 35.15625 -1.421875 24.609375 -1.421875 
Q 20.21875 -1.421875 15.453125 -0.5625 
Q 10.6875 0.296875 5.421875 2 
L 5.421875 11.28125 
Q 10.40625 8.6875 15.234375 7.390625 
Q 20.0625 6.109375 24.8125 6.109375 
Q 31.15625 6.109375 34.5625 8.28125 
Q 37.984375 10.453125 37.984375 14.40625 
Q 37.984375 18.0625 35.515625 20.015625 
Q 33.0625 21.96875 24.703125 23.78125 
L 21.578125 24.515625 
Q 13.234375 26.265625 9.515625 29.90625 
Q 5.8125 33.546875 5.8125 39.890625 
Q 5.8125 47.609375 11.28125 51.796875 
Q 16.75 56 26.8125 56 
Q 31.78125 56 36.171875 55.265625 
Q 40.578125 54.546875 44.28125 53.078125 
z
" id="DejaVuSans-115"/>
     <path d="M 11.71875 12.40625 
L 22.015625 12.40625 
L 22.015625 4 
L 14.015625 -11.625 
L 7.71875 -11.625 
L 11.71875 4 
z
" id="DejaVuSans-44"/>
     <path d="M 9.8125 72.90625 
L 19.671875 72.90625 
L 19.671875 42.09375 
L 52.390625 72.90625 
L 65.09375 72.90625 
L 28.90625 38.921875 
L 67.671875 0 
L 54.6875 0 
L 19.671875 35.109375 
L 19.671875 0 
L 9.8125 0 
z
" id="DejaVuSans-75"/>
     <path d="M 54.890625 33.015625 
L 54.890625 0 
L 45.90625 0 
L 45.90625 32.71875 
Q 45.90625 40.484375 42.875 44.328125 
Q 39.84375 48.1875 33.796875 48.1875 
Q 26.515625 48.1875 22.3125 43.546875 
Q 18.109375 38.921875 18.109375 30.90625 
L 18.109375 0 
L 9.078125 0 
L 9.078125 54.6875 
L 18.109375 54.6875 
L 18.109375 46.1875 
Q 21.34375 51.125 25.703125 53.5625 
Q 30.078125 56 35.796875 56 
Q 45.21875 56 50.046875 50.171875 
Q 54.890625 44.34375 54.890625 33.015625 
z
" id="DejaVuSans-110"/>
     <path d="M 30.609375 48.390625 
Q 23.390625 48.390625 19.1875 42.75 
Q 14.984375 37.109375 14.984375 27.296875 
Q 14.984375 17.484375 19.15625 11.84375 
Q 23.34375 6.203125 30.609375 6.203125 
Q 37.796875 6.203125 41.984375 11.859375 
Q 46.1875 17.53125 46.1875 27.296875 
Q 46.1875 37.015625 41.984375 42.703125 
Q 37.796875 48.390625 30.609375 48.390625 
z
M 30.609375 56 
Q 42.328125 56 49.015625 48.375 
Q 55.71875 40.765625 55.71875 27.296875 
Q 55.71875 13.875 49.015625 6.21875 
Q 42.328125 -1.421875 30.609375 -1.421875 
Q 18.84375 -1.421875 12.171875 6.21875 
Q 5.515625 13.875 5.515625 27.296875 
Q 5.515625 40.765625 12.171875 48.375 
Q 18.84375 56 30.609375 56 
z
" id="DejaVuSans-111"/>
     <path d="M 4.203125 54.6875 
L 13.1875 54.6875 
L 24.421875 12.015625 
L 35.59375 54.6875 
L 46.1875 54.6875 
L 57.421875 12.015625 
L 68.609375 54.6875 
L 77.59375 54.6875 
L 63.28125 0 
L 52.6875 0 
L 40.921875 44.828125 
L 29.109375 0 
L 18.5 0 
z
" id="DejaVuSans-119"/>
     <path d="M 10.59375 45.40625 
L 73.1875 45.40625 
L 73.1875 37.203125 
L 10.59375 37.203125 
z
M 10.59375 25.484375 
L 73.1875 25.484375 
L 73.1875 17.1875 
L 10.59375 17.1875 
z
" id="DejaVuSans-61"/>
     <path d="M 9.8125 72.90625 
L 51.703125 72.90625 
L 51.703125 64.59375 
L 19.671875 64.59375 
L 19.671875 43.109375 
L 48.578125 43.109375 
L 48.578125 34.8125 
L 19.671875 34.8125 
L 19.671875 0 
L 9.8125 0 
z
" id="DejaVuSans-70"/>
     <path d="M 34.28125 27.484375 
Q 23.390625 27.484375 19.1875 25 
Q 14.984375 22.515625 14.984375 16.5 
Q 14.984375 11.71875 18.140625 8.90625 
Q 21.296875 6.109375 26.703125 6.109375 
Q 34.1875 6.109375 38.703125 11.40625 
Q 43.21875 16.703125 43.21875 25.484375 
L 43.21875 27.484375 
z
M 52.203125 31.203125 
L 52.203125 0 
L 43.21875 0 
L 43.21875 8.296875 
Q 40.140625 3.328125 35.546875 0.953125 
Q 30.953125 -1.421875 24.3125 -1.421875 
Q 15.921875 -1.421875 10.953125 3.296875 
Q 6 8.015625 6 15.921875 
Q 6 25.140625 12.171875 29.828125 
Q 18.359375 34.515625 30.609375 34.515625 
L 43.21875 34.515625 
L 43.21875 35.40625 
Q 43.21875 41.609375 39.140625 45 
Q 35.0625 48.390625 27.6875 48.390625 
Q 23 48.390625 18.546875 47.265625 
Q 14.109375 46.140625 10.015625 43.890625 
L 10.015625 52.203125 
Q 14.9375 54.109375 19.578125 55.046875 
Q 24.21875 56 28.609375 56 
Q 40.484375 56 46.34375 49.84375 
Q 52.203125 43.703125 52.203125 31.203125 
z
" id="DejaVuSans-97"/>
     <path d="M 9.421875 75.984375 
L 18.40625 75.984375 
L 18.40625 0 
L 9.421875 0 
z
" id="DejaVuSans-108"/>
     <path d="M 19.671875 64.796875 
L 19.671875 8.109375 
L 31.59375 8.109375 
Q 46.6875 8.109375 53.6875 14.9375 
Q 60.6875 21.78125 60.6875 36.53125 
Q 60.6875 51.171875 53.6875 57.984375 
Q 46.6875 64.796875 31.59375 64.796875 
z
M 9.8125 72.90625 
L 30.078125 72.90625 
Q 51.265625 72.90625 61.171875 64.09375 
Q 71.09375 55.28125 71.09375 36.53125 
Q 71.09375 17.671875 61.125 8.828125 
Q 51.171875 0 30.078125 0 
L 9.8125 0 
z
" id="DejaVuSans-68"/>
     <path d="M 45.40625 27.984375 
Q 45.40625 37.75 41.375 43.109375 
Q 37.359375 48.484375 30.078125 48.484375 
Q 22.859375 48.484375 18.828125 43.109375 
Q 14.796875 37.75 14.796875 27.984375 
Q 14.796875 18.265625 18.828125 12.890625 
Q 22.859375 7.515625 30.078125 7.515625 
Q 37.359375 7.515625 41.375 12.890625 
Q 45.40625 18.265625 45.40625 27.984375 
z
M 54.390625 6.78125 
Q 54.390625 -7.171875 48.1875 -13.984375 
Q 42 -20.796875 29.203125 -20.796875 
Q 24.46875 -20.796875 20.265625 -20.09375 
Q 16.0625 -19.390625 12.109375 -17.921875 
L 12.109375 -9.1875 
Q 16.0625 -11.328125 19.921875 -12.34375 
Q 23.78125 -13.375 27.78125 -13.375 
Q 36.625 -13.375 41.015625 -8.765625 
Q 45.40625 -4.15625 45.40625 5.171875 
L 45.40625 9.625 
Q 42.625 4.78125 38.28125 2.390625 
Q 33.9375 0 27.875 0 
Q 17.828125 0 11.671875 7.65625 
Q 5.515625 15.328125 5.515625 27.984375 
Q 5.515625 40.671875 11.671875 48.328125 
Q 17.828125 56 27.875 56 
Q 33.9375 56 38.28125 53.609375 
Q 42.625 51.21875 45.40625 46.390625 
L 45.40625 54.6875 
L 54.390625 54.6875 
z
" id="DejaVuSans-103"/>
     <path d="M 41.109375 46.296875 
Q 39.59375 47.171875 37.8125 47.578125 
Q 36.03125 48 33.890625 48 
Q 26.265625 48 22.1875 43.046875 
Q 18.109375 38.09375 18.109375 28.8125 
L 18.109375 0 
L 9.078125 0 
L 9.078125 54.6875 
L 18.109375 54.6875 
L 18.109375 46.1875 
Q 20.953125 51.171875 25.484375 53.578125 
Q 30.03125 56 36.53125 56 
Q 37.453125 56 38.578125 55.875 
Q 39.703125 55.765625 41.0625 55.515625 
z
" id="DejaVuSans-114"/>
     <path d="M 9.421875 54.6875 
L 18.40625 54.6875 
L 18.40625 0 
L 9.421875 0 
z
M 9.421875 75.984375 
L 18.40625 75.984375 
L 18.40625 64.59375 
L 9.421875 64.59375 
z
" id="DejaVuSans-105"/>
     <path d="M 10.6875 12.40625 
L 21 12.40625 
L 21 0 
L 10.6875 0 
z
" id="DejaVuSans-46"/>
    </defs>
    <g transform="translate(49.741875 35.472)scale(0.12 -0.12)">
     <use xlink:href="#DejaVuSans-40"/>
     <use x="39.013672" xlink:href="#DejaVuSans-49"/>
     <use x="102.636719" xlink:href="#DejaVuSans-51"/>
     <use x="166.259766" xlink:href="#DejaVuSans-41"/>
     <use x="205.273438" xlink:href="#DejaVuSans-32"/>
     <use x="237.060547" xlink:href="#DejaVuSans-83"/>
     <use x="300.537109" xlink:href="#DejaVuSans-117"/>
     <use x="363.916016" xlink:href="#DejaVuSans-98"/>
     <use x="427.392578" xlink:href="#DejaVuSans-106"/>
     <use x="455.175781" xlink:href="#DejaVuSans-101"/>
     <use x="516.699219" xlink:href="#DejaVuSans-99"/>
     <use x="571.679688" xlink:href="#DejaVuSans-116"/>
     <use x="610.888672" xlink:href="#DejaVuSans-58"/>
     <use x="644.580078" xlink:href="#DejaVuSans-32"/>
     <use x="676.367188" xlink:href="#DejaVuSans-115"/>
     <use x="728.466797" xlink:href="#DejaVuSans-49"/>
     <use x="792.089844" xlink:href="#DejaVuSans-51"/>
     <use x="855.712891" xlink:href="#DejaVuSans-44"/>
     <use x="887.5" xlink:href="#DejaVuSans-32"/>
     <use x="919.287109" xlink:href="#DejaVuSans-75"/>
     <use x="984.863281" xlink:href="#DejaVuSans-110"/>
     <use x="1048.242188" xlink:href="#DejaVuSans-111"/>
     <use x="1109.423828" xlink:href="#DejaVuSans-119"/>
     <use x="1191.210938" xlink:href="#DejaVuSans-110"/>
     <use x="1254.589844" xlink:href="#DejaVuSans-32"/>
     <use x="1286.376953" xlink:href="#DejaVuSans-61"/>
     <use x="1370.166016" xlink:href="#DejaVuSans-32"/>
     <use x="1401.953125" xlink:href="#DejaVuSans-70"/>
     <use x="1459.332031" xlink:href="#DejaVuSans-97"/>
     <use x="1520.611328" xlink:href="#DejaVuSans-108"/>
     <use x="1548.394531" xlink:href="#DejaVuSans-115"/>
     <use x="1600.494141" xlink:href="#DejaVuSans-101"/>
     <use x="1662.017578" xlink:href="#DejaVuSans-44"/>
     <use x="1693.804688" xlink:href="#DejaVuSans-32"/>
     <use x="1725.591797" xlink:href="#DejaVuSans-68"/>
     <use x="1802.59375" xlink:href="#DejaVuSans-101"/>
     <use x="1864.117188" xlink:href="#DejaVuSans-103"/>
     <use x="1927.59375" xlink:href="#DejaVuSans-114"/>
     <use x="1968.675781" xlink:href="#DejaVuSans-101"/>
     <use x="2030.199219" xlink:href="#DejaVuSans-101"/>
     <use x="2091.722656" xlink:href="#DejaVuSans-32"/>
     <use x="2123.509766" xlink:href="#DejaVuSans-61"/>
     <use x="2207.298828" xlink:href="#DejaVuSans-32"/>
     <use x="2239.085938" xlink:href="#DejaVuSans-49"/>
     <use x="2302.708984" xlink:href="#DejaVuSans-44"/>
     <use x="2334.496094" xlink:href="#DejaVuSans-32"/>
     <use x="2366.283203" xlink:href="#DejaVuSans-68"/>
     <use x="2443.285156" xlink:href="#DejaVuSans-117"/>
     <use x="2506.664062" xlink:href="#DejaVuSans-114"/>
     <use x="2547.777344" xlink:href="#DejaVuSans-97"/>
     <use x="2609.056641" xlink:href="#DejaVuSans-116"/>
     <use x="2648.265625" xlink:href="#DejaVuSans-105"/>
     <use x="2676.048828" xlink:href="#DejaVuSans-111"/>
     <use x="2737.230469" xlink:href="#DejaVuSans-110"/>
     <use x="2800.609375" xlink:href="#DejaVuSans-32"/>
     <use x="2832.396484" xlink:href="#DejaVuSans-61"/>
     <use x="2916.185547" xlink:href="#DejaVuSans-32"/>
     <use x="2947.972656" xlink:href="#DejaVuSans-48"/>
     <use x="3011.595703" xlink:href="#DejaVuSans-46"/>
     <use x="3043.382812" xlink:href="#DejaVuSans-49"/>
    </g>
   </g>
  </g>
 </g>
 <defs>
  <clipPath id="p05c0105d12">
   <rect height="266.112" width="357.12" x="57.6" y="41.472"/>
  </clipPath>
 </defs>
</svg>
