<?xml version="1.0" encoding="utf-8" standalone="no"?>
<!DOCTYPE svg PUBLIC "-//W3C//DTD SVG 1.1//EN"
  "http://www.w3.org/Graphics/SVG/1.1/DTD/svg11.dtd">
<!-- Created with matplotlib (https://matplotlib.org/) -->
<svg height="345.6pt" version="1.1" viewBox="0 0 460.8 345.6" width="460.8pt" xmlns="http://www.w3.org/2000/svg" xmlns:xlink="http://www.w3.org/1999/xlink">
 <defs>
  <style type="text/css">
*{stroke-linecap:butt;stroke-linejoin:round;}
  </style>
 </defs>
 <g id="figure_1">
  <g id="patch_1">
   <path d="M 0 345.6 
L 460.8 345.6 
L 460.8 0 
L 0 0 
z
" style="fill:#ffffff;"/>
  </g>
  <g id="axes_1">
   <g id="patch_2">
    <path d="M 57.6 307.584 
L 414.72 307.584 
L 414.72 41.472 
L 57.6 41.472 
z
" style="fill:#ffffff;"/>
   </g>
   <g id="line2d_1">
    <path clip-path="url(#pef4fffc845)" d="M 74.472458 54.07713 
L 74.344512 53.90884 
L 74.72835 53.568 
L 74.472458 53.90884 
L 74.600404 54.588391 
L 74.72835 54.417971 
L 74.72835 54.07713 
L 74.856296 54.07713 
L 74.856296 53.90884 
L 74.72835 53.90884 
L 74.72835 53.73842 
L 74.856296 53.73842 
L 75.112188 53.90884 
L 75.112188 53.90884 
L 74.856296 53.90884 
L 74.472458 54.588391 
L 74.600404 54.588391 
L 74.472458 54.417971 
L 74.600404 54.417971 
L 74.856296 54.417971 
L 75.112188 54.588391 
L 75.112188 54.588391 
L 74.984242 54.247551 
L 74.600404 53.90884 
L 74.216566 54.247551 
L 74.216566 54.588391 
L 74.344512 54.588391 
L 74.856296 54.247551 
L 74.856296 54.417971 
L 74.72835 54.758811 
L 74.72835 54.927101 
L 74.600404 54.758811 
L 74.600404 54.07713 
L 74.472458 54.07713 
L 74.472458 54.417971 
L 74.216566 54.588391 
L 74.088619 54.417971 
L 74.088619 54.07713 
L 74.088619 54.07713 
L 74.344512 54.417971 
L 74.72835 54.247551 
L 74.984242 54.417971 
L 74.984242 54.417971 
L 74.472458 54.417971 
L 74.856296 54.758811 
L 74.600404 54.588391 
L 74.600404 54.758811 
L 74.216566 54.588391 
L 74.600404 54.247551 
L 74.600404 54.927101 
L 74.600404 54.927101 
L 74.72835 54.927101 
L 74.72835 54.588391 
L 74.72835 54.758811 
L 74.600404 54.927101 
L 74.72835 54.588391 
L 74.72835 54.927101 
L 74.856296 55.097521 
L 74.472458 55.438362 
L 74.472458 55.438362 
L 74.472458 55.267942 
L 74.856296 55.097521 
L 74.600404 55.267942 
L 74.72835 55.608782 
L 74.472458 55.097521 
L 73.832727 55.608782 
L 73.832727 55.777072 
L 74.344512 55.097521 
L 74.72835 55.438362 
L 74.856296 55.608782 
L 74.72835 55.438362 
L 74.984242 54.927101 
L 74.984242 55.097521 
L 74.344512 55.267942 
L 74.216566 55.267942 
L 74.600404 54.927101 
L 74.72835 54.927101 
L 74.472458 54.927101 
L 74.856296 55.438362 
L 74.472458 55.267942 
L 75.112188 55.438362 
L 75.240134 55.097521 
L 75.240134 54.758811 
L 74.984242 54.588391 
L 74.984242 54.758811 
L 75.112188 55.097521 
L 74.984242 55.267942 
L 74.72835 55.097521 
L 74.72835 55.097521 
L 74.72835 55.267942 
L 74.856296 55.438362 
L 74.856296 55.438362 
L 74.856296 54.927101 
L 75.240134 55.777072 
L 75.36808 55.608782 
L 75.36808 54.927101 
L 75.496026 55.267942 
L 75.36808 55.438362 
L 75.112188 55.267942 
L 74.984242 54.927101 
L 74.984242 55.097521 
L 75.240134 55.267942 
L 75.240134 55.777072 
L 75.112188 55.777072 
L 74.856296 55.947492 
L 74.856296 55.947492 
L 75.112188 55.608782 
L 74.984242 55.267942 
L 74.72835 55.267942 
L 74.472458 55.777072 
L 74.72835 56.288332 
L 74.984242 56.288332 
L 75.36808 55.947492 
L 75.36808 55.097521 
L 75.240134 54.927101 
L 74.984242 55.097521 
L 74.856296 55.438362 
L 75.240134 55.608782 
L 75.36808 56.117912 
L 75.240134 56.288332 
L 75.240134 56.117912 
L 75.240134 55.777072 
L 75.112188 56.117912 
L 75.240134 56.117912 
L 75.496026 55.947492 
L 75.623972 56.117912 
L 75.36808 56.458753 
L 74.984242 56.627043 
L 74.72835 56.458753 
L 74.600404 55.608782 
L 74.984242 56.458753 
L 74.856296 56.288332 
L 74.856296 56.797463 
L 74.72835 56.288332 
L 74.984242 56.458753 
L 75.240134 56.458753 
L 75.36808 56.627043 
L 75.240134 56.967883 
L 75.240134 57.647434 
L 75.36808 57.817854 
L 75.751919 57.817854 
L 76.007811 57.479144 
L 76.519595 57.988274 
L 77.41176 58.497404 
L 80.351062 59.347375 
L 82.654091 60.197346 
L 85.721339 61.047317 
L 93.519134 62.747258 
L 97.734439 63.599359 
L 102.209094 64.27891 
L 107.192075 65.638011 
L 112.690299 67.337952 
L 124.831345 70.737836 
L 138.123906 74.137719 
L 145.026079 75.83979 
L 152.056197 77.878442 
L 159.214262 80.428354 
L 180.688456 88.418932 
L 194.87664 93.180046 
L 202.290597 95.559538 
L 237.053894 107.459129 
L 243.572228 109.161201 
L 262.618905 114.599735 
L 268.625455 116.470097 
L 289.971703 124.119834 
L 302.368641 129.390079 
L 305.435889 130.92173 
L 310.934113 134.660324 
L 313.489576 136.191975 
L 315.40531 137.721497 
L 318.092177 140.950959 
L 319.240234 142.480481 
L 320.007911 144.182552 
L 320.391749 146.221204 
L 320.263803 146.732465 
L 319.624072 147.071175 
L 318.856396 147.750726 
L 317.452447 149.282377 
L 316.556824 149.621087 
L 315.533256 149.621087 
L 314.769037 149.450667 
L 313.873415 149.450667 
L 313.233684 149.621087 
L 312.849846 149.450667 
L 312.849846 149.111957 
L 312.466008 148.771116 
L 311.954223 148.941537 
L 311.826277 149.282377 
L 311.954223 149.450667 
L 312.338062 149.450667 
L 312.466008 149.111957 
L 312.338062 149.450667 
L 312.593954 149.621087 
L 313.233684 150.641478 
L 313.233684 150.811898 
L 312.977792 150.982319 
L 312.977792 151.491449 
L 312.849846 151.491449 
L 312.593954 151.152739 
L 312.593954 151.321029 
L 312.593954 151.832289 
L 312.338062 152.171 
L 311.954223 152.171 
L 311.445897 152.00271 
L 311.190005 152.34142 
L 309.910544 150.811898 
L 309.910544 150.982319 
L 309.654652 151.491449 
L 309.526706 151.491449 
L 309.654652 151.152739 
L 309.39876 151.321029 
L 308.886975 152.00271 
L 308.886975 152.00271 
L 308.759029 151.832289 
L 307.866865 151.491449 
L 307.483026 151.832289 
L 307.610972 152.00271 
L 307.994811 152.00271 
L 308.247245 151.832289 
L 308.119299 152.00271 
L 307.994811 152.34142 
L 307.866865 152.34142 
L 307.738919 152.00271 
L 307.227134 152.34142 
L 307.483026 153.02097 
L 307.227134 152.68226 
L 306.71535 152.68226 
L 306.459458 152.85268 
L 306.587404 153.02097 
L 306.71535 152.85268 
L 306.587404 152.85268 
L 306.459458 152.34142 
L 306.587404 153.02097 
L 306.459458 152.68226 
L 306.075619 152.68226 
L 306.075619 153.02097 
L 306.459458 153.361811 
L 306.71535 153.361811 
L 306.203565 154.211781 
L 306.075619 154.041361 
L 306.075619 153.870941 
L 306.075619 154.041361 
L 304.924105 154.041361 
L 304.159886 154.552622 
L 301.984803 155.573013 
L 301.092638 156.252563 
L 297.641552 161.011548 
L 295.338522 165.602242 
L 292.015382 171.042907 
L 289.331972 176.651862 
L 288.564296 179.372194 
L 287.544185 185.32412 
L 287.160347 188.383163 
L 287.032401 191.103495 
L 286.776509 193.653407 
L 286.39267 196.032899 
L 286.264724 198.414522 
L 286.39267 200.623594 
L 287.032401 204.873448 
L 288.564296 209.634562 
L 288.692242 210.654953 
L 288.692242 212.354894 
L 288.564296 213.204865 
L 288.308404 213.884416 
L 287.924565 214.225256 
L 287.668673 214.225256 
L 286.904455 215.243517 
L 286.776509 215.754777 
L 286.776509 215.584357 
L 286.776509 215.243517 
L 286.520616 215.413937 
L 286.136778 215.925198 
L 285.880886 216.604748 
L 285.241156 217.625139 
L 284.985263 217.963849 
L 284.601425 219.663791 
L 284.345533 219.834211 
L 284.221045 220.175052 
L 284.221045 220.684182 
L 284.093099 221.363732 
L 283.837207 221.874993 
L 283.709261 221.874993 
L 284.221045 222.554544 
L 284.093099 222.895384 
L 283.837207 223.234094 
L 284.221045 223.745355 
L 283.965153 223.574935 
L 284.093099 224.084065 
L 283.837207 224.254485 
L 283.197476 224.084065 
L 282.4298 225.274876 
L 282.173908 225.784006 
L 282.301854 225.954427 
L 282.557746 225.784006 
L 282.941584 226.465687 
L 282.557746 226.804397 
L 282.685692 226.974818 
L 283.06953 226.974818 
L 283.06953 226.804397 
L 282.941584 226.633977 
L 282.557746 226.974818 
L 282.557746 227.483948 
L 282.4298 228.333919 
L 282.557746 228.165629 
L 281.918015 227.824788 
L 281.790069 228.333919 
L 281.918015 228.333919 
L 281.790069 228.333919 
L 281.406231 228.674759 
L 281.278285 229.0156 
L 281.662123 229.35431 
L 281.918015 229.0156 
L 282.045961 229.18389 
L 281.406231 230.204281 
L 281.150339 230.885961 
L 280.514066 230.885961 
L 279.490498 231.054251 
L 276.935034 231.735932 
L 267.47394 232.585903 
L 264.1508 233.265453 
L 260.699713 234.115424 
L 250.858239 238.024438 
L 244.467851 240.23564 
L 241.016764 241.594741 
L 234.754322 244.826334 
L 232.198858 246.015015 
L 227.980096 248.396637 
L 226.064362 249.585318 
L 222.613276 251.114839 
L 221.077923 251.79652 
L 215.455211 253.155621 
L 214.047804 253.155621 
L 213.919858 252.305651 
L 214.17575 252.13523 
L 214.687535 253.155621 
L 214.943427 253.155621 
L 215.583157 252.305651 
L 215.711103 252.476071 
L 215.83905 253.155621 
L 216.475322 254.346433 
L 216.347376 254.176012 
L 216.094942 254.005592 
L 215.711103 254.176012 
L 215.071373 255.705534 
L 214.687535 256.046374 
L 214.047804 256.046374 
L 213.919858 256.385084 
L 214.431643 257.235055 
L 214.303696 257.575895 
L 213.919858 257.916736 
L 213.408074 257.405475 
L 213.791912 257.916736 
L 213.919858 258.255446 
L 213.791912 258.255446 
L 213.53602 258.425866 
L 213.53602 258.255446 
L 213.408074 258.255446 
L 213.408074 258.425866 
L 213.53602 258.766707 
L 213.791912 259.105417 
L 213.408074 258.766707 
L 213.53602 258.766707 
L 213.53602 259.105417 
L 213.408074 259.616677 
L 212.515909 260.805358 
L 212.643855 260.975779 
L 212.89629 260.805358 
L 213.152182 261.146199 
L 213.53602 261.316619 
L 213.152182 261.146199 
L 212.768343 261.487039 
L 212.768343 261.655329 
L 212.768343 261.487039 
L 212.260017 262.16659 
L 212.260017 262.67572 
L 212.387963 263.01656 
L 212.515909 262.5053 
L 212.387963 263.01656 
L 212.643855 263.01656 
L 212.515909 263.01656 
L 212.260017 263.525691 
L 212.132071 263.866531 
L 211.876179 264.036951 
L 212.132071 263.866531 
L 212.387963 263.355271 
L 211.876179 264.205241 
L 212.004125 264.375662 
L 212.004125 264.716502 
L 211.620287 264.716502 
L 211.364395 264.546082 
L 211.492341 264.546082 
L 212.132071 264.716502 
L 212.260017 264.716502 
L 212.387963 265.225632 
L 212.387963 265.736893 
L 212.132071 265.566473 
L 212.132071 264.886922 
L 212.132071 265.055212 
L 211.876179 265.736893 
L 211.876179 265.736893 
L 212.132071 265.566473 
L 212.004125 265.396053 
L 211.748233 265.907313 
L 212.387963 265.907313 
L 212.515909 265.736893 
L 212.387963 265.566473 
L 212.132071 266.246023 
L 212.260017 266.586864 
L 211.620287 266.586864 
L 211.492341 266.416444 
L 211.364395 266.586864 
L 211.492341 266.586864 
L 211.748233 266.416444 
L 211.876179 266.075603 
L 211.876179 265.736893 
L 211.876179 266.075603 
L 212.132071 267.095994 
L 212.004125 267.266414 
L 211.876179 267.095994 
L 212.132071 266.757284 
L 211.876179 266.586864 
L 211.748233 266.925574 
L 211.748233 267.775545 
L 211.876179 267.607255 
L 212.004125 266.925574 
L 211.876179 266.925574 
L 211.876179 267.266414 
L 212.260017 267.945965 
L 212.89629 267.775545 
L 214.17575 267.607255 
L 215.83905 267.607255 
L 220.438193 268.116385 
L 223.889279 268.457225 
L 228.363934 268.457225 
L 233.474861 268.116385 
L 239.228977 268.286805 
L 251.497969 269.645906 
L 258.272196 270.325457 
L 273.10011 272.195819 
L 281.022393 273.38663 
L 288.820188 274.236601 
L 303.520156 276.277383 
L 310.550274 277.466063 
L 324.098727 280.186396 
L 336.751558 282.227178 
L 342.630162 283.417989 
L 348.384277 284.26796 
L 354.006989 284.77709 
L 369.346687 287.156582 
L 373.561992 287.327003 
L 381.231841 286.647452 
L 384.810874 286.477032 
L 388.006068 286.477032 
L 393.244941 286.136191 
L 395.164133 286.306612 
L 398.231381 286.306612 
L 398.487273 286.136191 
L 398.359327 285.797481 
L 397.975488 285.627061 
L 397.207812 285.797481 
L 396.059755 285.797481 
L 394.652348 285.627061 
L 393.372887 285.797481 
L 392.608669 286.136191 
L 389.413475 286.136191 
L 389.413475 286.306612 
L 390.049747 286.817872 
L 390.305639 287.497423 
L 390.817424 287.836133 
L 391.329208 288.006553 
L 391.5851 287.836133 
L 391.5851 287.836133 
L 391.329208 288.176973 
L 391.329208 288.688234 
L 391.5851 288.517814 
L 391.840992 288.006553 
L 392.096884 288.176973 
L 392.096884 288.517814 
L 391.840992 289.026944 
L 391.457154 288.856524 
L 391.457154 288.347393 
L 391.5851 288.176973 
L 391.5851 288.176973 
L 391.329208 288.006553 
L 390.817424 288.347393 
L 390.561531 288.688234 
L 390.049747 288.688234 
L 390.305639 289.026944 
L 390.177693 289.367784 
L 389.541421 289.367784 
L 389.413475 289.197364 
L 389.413475 288.856524 
L 389.541421 288.688234 
L 389.541421 289.367784 
L 389.413475 290.217755 
L 389.541421 290.556465 
L 389.793855 290.726886 
L 390.049747 290.556465 
L 389.921801 290.217755 
L 389.285529 289.706495 
L 389.413475 289.876915 
L 389.285529 290.217755 
L 389.285529 290.047335 
L 389.541421 289.367784 
L 389.541421 290.388175 
L 389.285529 290.726886 
L 389.541421 290.217755 
L 389.541421 289.876915 
L 389.413475 289.538205 
L 389.413475 289.706495 
L 389.285529 290.217755 
L 389.285529 290.726886 
L 389.541421 290.897306 
L 389.285529 290.897306 
L 388.645798 290.897306 
L 388.773744 291.238146 
L 388.645798 291.238146 
L 388.517852 290.897306 
L 388.517852 291.067726 
L 388.26196 291.747277 
L 388.26196 291.576856 
L 388.134014 291.576856 
L 388.134014 292.256407 
L 388.006068 292.426827 
L 388.134014 292.088117 
L 388.645798 290.897306 
L 388.389906 291.067726 
L 388.26196 291.747277 
L 388.006068 292.088117 
L 388.006068 291.917697 
L 388.006068 291.406436 
L 388.134014 291.406436 
L 388.26196 291.917697 
L 388.134014 292.256407 
L 388.134014 292.597247 
L 388.26196 292.597247 
L 388.26196 292.597247 
L 388.389906 292.088117 
L 388.134014 291.747277 
L 388.134014 291.238146 
L 388.389906 291.238146 
L 388.134014 291.917697 
L 388.134014 292.256407 
L 388.645798 293.106378 
L 388.26196 292.597247 
L 388.389906 292.256407 
L 388.389906 291.917697 
L 388.134014 291.747277 
L 388.006068 292.088117 
L 388.134014 292.426827 
L 388.26196 292.426827 
L 388.26196 292.426827 
L 388.26196 292.597247 
L 388.006068 293.106378 
L 388.006068 293.106378 
L 388.26196 293.276798 
L 388.517852 293.276798 
L 388.517852 293.106378 
L 388.134014 293.788058 
L 388.389906 293.788058 
L 388.773744 293.447218 
L 388.517852 293.276798 
L 388.134014 293.617638 
L 388.134014 293.788058 
L 388.26196 293.447218 
L 388.26196 293.106378 
L 388.134014 293.106378 
L 388.134014 293.106378 
L 387.878122 293.617638 
L 387.750176 293.956348 
L 387.750176 293.956348 
L 388.26196 293.956348 
L 388.389906 294.126769 
L 387.750176 294.976739 
L 388.134014 295.31758 
L 388.134014 294.638029 
L 388.006068 293.788058 
L 388.134014 294.808449 
L 388.389906 294.976739 
L 388.134014 295.14716 
L 387.878122 295.14716 
L 387.62223 295.31758 
L 387.750176 295.14716 
L 387.750176 294.976739 
L 387.62223 294.808449 
L 386.982499 294.808449 
L 386.982499 294.638029 
L 387.110445 294.638029 
L 387.238391 294.808449 
L 387.238391 295.14716 
L 387.110445 295.488 
L 386.726607 295.488 
L 386.346227 294.808449 
L 386.470715 294.297189 
L 386.854553 294.638029 
L 386.982499 295.488 
L 386.598661 293.617638 
L 386.598661 293.788058 
L 386.598661 294.126769 
L 386.470715 294.467609 
L 386.726607 294.976739 
L 386.854553 294.808449 
L 386.726607 294.297189 
L 386.982499 294.126769 
L 386.854553 293.956348 
L 386.218281 294.297189 
L 386.346227 294.808449 
L 386.218281 294.467609 
L 386.470715 294.297189 
L 386.346227 293.956348 
L 385.962388 293.617638 
L 385.962388 294.297189 
L 385.834442 294.297189 
L 385.834442 293.956348 
L 385.962388 294.297189 
L 385.834442 294.126769 
L 385.194712 294.467609 
L 385.322658 294.467609 
L 385.706496 294.467609 
L 385.706496 294.126769 
L 385.57855 293.788058 
L 385.706496 293.788058 
L 385.834442 293.447218 
L 385.706496 293.106378 
L 385.57855 293.276798 
L 385.57855 293.617638 
L 385.706496 293.788058 
L 385.066766 293.106378 
L 384.682928 293.447218 
L 384.682928 293.788058 
L 385.194712 294.126769 
L 385.194712 294.126769 
L 385.194712 293.276798 
L 385.194712 293.617638 
L 384.810874 293.956348 
L 385.194712 293.617638 
L 385.066766 293.447218 
L 384.682928 293.447218 
L 384.427035 293.276798 
L 384.554981 293.276798 
L 384.682928 293.276798 
L 384.682928 293.447218 
L 384.682928 293.447218 
L 384.554981 293.276798 
L 383.915251 293.788058 
L 383.915251 293.788058 
L 384.171143 293.788058 
L 384.427035 293.617638 
L 384.427035 294.638029 
L 384.554981 294.976739 
L 384.427035 294.638029 
L 384.427035 294.297189 
L 384.043197 293.956348 
L 384.043197 293.788058 
L 382.89514 294.467609 
L 381.999518 294.297189 
L 380.720057 293.788058 
L 373.689938 292.597247 
L 370.238852 292.256407 
L 358.097806 290.556465 
L 353.239313 290.047335 
L 348.000439 289.197364 
L 336.495666 287.836133 
L 325.758568 285.797481 
L 319.879965 284.94751 
L 314.001361 284.43625 
L 308.503137 283.586279 
L 303.136317 282.565888 
L 297.38566 281.886338 
L 286.008832 280.865947 
L 280.769959 280.015976 
L 275.911465 279.506845 
L 266.453829 278.827295 
L 261.979174 278.656875 
L 257.888357 278.827295 
L 254.437271 278.827295 
L 242.808009 276.956933 
L 239.993196 276.277383 
L 237.309786 275.427412 
L 235.010214 274.916151 
L 233.094481 274.745731 
L 231.303236 274.236601 
L 229.515449 273.21621 
L 227.852149 272.536659 
L 226.572689 272.195819 
L 225.552578 272.195819 
L 224.784901 272.366239 
L 223.505441 271.857109 
L 223.505441 271.686688 
L 224.017225 271.516268 
L 224.529009 271.177558 
L 224.912848 271.177558 
L 225.552578 271.857109 
L 225.936416 271.857109 
L 226.444743 271.516268 
L 226.828581 271.516268 
L 227.212419 271.686688 
L 226.956527 271.516268 
L 226.956527 271.177558 
L 226.828581 271.345848 
L 226.700635 271.857109 
L 226.320254 272.366239 
L 225.80847 272.707079 
L 225.424632 272.707079 
L 225.296686 272.366239 
L 225.424632 272.027529 
L 225.552578 272.366239 
L 224.784901 271.345848 
L 224.784901 271.516268 
L 224.401063 271.516268 
L 224.529009 271.686688 
L 224.529009 272.027529 
L 224.529009 271.857109 
L 224.656955 271.686688 
L 224.784901 271.857109 
L 225.040794 271.686688 
L 225.296686 271.007138 
L 225.16874 271.007138 
L 225.296686 271.516268 
L 225.040794 271.345848 
L 224.529009 271.686688 
L 224.656955 271.516268 
L 225.040794 271.177558 
L 225.424632 271.007138 
L 225.296686 271.177558 
L 224.656955 271.516268 
L 224.656955 271.516268 
L 225.296686 272.027529 
L 225.16874 272.195819 
L 224.784901 272.195819 
L 224.273117 272.027529 
L 224.017225 271.516268 
L 224.273117 271.516268 
L 224.656955 271.857109 
L 224.656955 272.027529 
L 224.656955 271.857109 
L 225.16874 271.516268 
L 225.552578 271.516268 
L 225.552578 271.516268 
L 225.296686 271.686688 
L 224.784901 271.857109 
L 224.912848 271.857109 
L 224.273117 272.366239 
L 224.017225 271.686688 
L 224.273117 272.707079 
L 224.273117 272.707079 
L 224.017225 272.536659 
L 224.017225 272.195819 
L 224.529009 271.686688 
L 224.273117 271.516268 
L 223.633387 271.857109 
L 223.889279 271.686688 
L 224.017225 271.857109 
L 224.017225 272.366239 
L 223.889279 272.707079 
L 223.889279 272.536659 
L 223.889279 272.195819 
L 223.889279 272.366239 
L 224.017225 272.195819 
L 224.273117 272.707079 
L 224.273117 273.045789 
L 224.273117 272.877499 
L 224.529009 272.366239 
L 224.529009 272.366239 
L 224.529009 272.195819 
L 224.529009 272.195819 
L 224.145171 273.045789 
L 224.017225 273.045789 
L 223.889279 272.707079 
L 223.889279 272.366239 
L 223.761333 272.536659 
L 223.889279 272.707079 
L 224.017225 272.536659 
L 223.889279 272.536659 
L 223.761333 272.536659 
L 223.761333 272.707079 
L 223.761333 272.366239 
L 224.017225 272.366239 
L 224.401063 272.536659 
L 223.889279 272.366239 
L 224.273117 271.857109 
L 223.633387 272.877499 
L 224.017225 272.707079 
L 224.145171 272.366239 
L 224.273117 272.366239 
L 223.633387 271.857109 
L 223.761333 272.027529 
L 223.761333 272.195819 
L 223.505441 272.195819 
L 223.249548 272.027529 
L 223.633387 272.195819 
L 223.761333 272.027529 
L 223.761333 272.027529 
L 223.377495 272.027529 
L 223.377495 272.195819 
L 223.505441 272.195819 
L 223.761333 271.686688 
L 223.377495 272.366239 
L 223.505441 272.366239 
L 223.889279 272.195819 
L 223.889279 272.027529 
L 223.761333 272.027529 
L 223.633387 272.536659 
L 223.377495 273.045789 
L 223.249548 272.877499 
L 223.633387 272.195819 
L 223.633387 272.536659 
L 223.761333 272.027529 
L 223.505441 272.027529 
L 223.249548 272.707079 
L 223.505441 272.707079 
L 223.761333 272.366239 
L 223.889279 271.516268 
L 223.505441 271.345848 
L 223.377495 271.516268 
L 223.761333 271.857109 
L 223.633387 271.857109 
L 223.633387 272.195819 
L 224.017225 272.536659 
L 224.017225 272.707079 
L 223.377495 272.707079 
L 223.505441 272.707079 
L 224.017225 272.366239 
L 224.017225 272.195819 
L 224.017225 272.366239 
L 223.889279 272.707079 
L 223.633387 272.536659 
L 223.377495 272.027529 
L 223.377495 272.195819 
L 223.121602 272.536659 
L 223.505441 272.195819 
L 223.505441 272.195819 
L 223.889279 273.045789 
L 224.017225 273.045789 
L 223.889279 272.877499 
L 223.505441 272.877499 
L 223.505441 272.707079 
L 223.505441 272.707079 
L 223.761333 273.21621 
L 223.761333 273.045789 
L 223.889279 272.707079 
L 224.145171 272.707079 
L 224.017225 273.045789 
L 223.761333 273.21621 
L 223.377495 272.536659 
L 223.377495 272.366239 
L 223.761333 272.707079 
L 223.889279 272.707079 
L 223.505441 272.707079 
L 223.377495 273.045789 
L 223.505441 273.72747 
L 223.505441 273.55705 
L 223.249548 273.045789 
L 223.377495 272.536659 
L 223.633387 272.366239 
L 223.889279 272.366239 
L 224.145171 272.027529 
L 223.633387 272.536659 
L 223.377495 272.707079 
L 223.633387 273.38663 
L 223.633387 273.21621 
L 223.761333 272.877499 
L 223.633387 272.707079 
L 223.377495 272.877499 
L 223.377495 273.21621 
L 223.889279 273.38663 
L 224.401063 273.21621 
L 224.529009 272.877499 
L 223.633387 272.877499 
L 223.249548 273.38663 
L 223.377495 273.89576 
L 223.633387 273.89576 
L 223.889279 273.72747 
L 223.889279 273.38663 
L 223.633387 272.877499 
L 223.505441 273.045789 
L 223.505441 273.21621 
L 223.761333 273.38663 
L 223.889279 272.877499 
L 223.761333 272.877499 
L 223.505441 273.045789 
L 222.993656 272.707079 
L 222.993656 272.707079 
L 223.121602 273.045789 
L 223.249548 273.045789 
L 223.505441 273.21621 
L 223.761333 273.21621 
L 223.889279 273.045789 
L 223.889279 272.707079 
L 223.761333 272.707079 
L 223.633387 272.536659 
L 223.889279 271.345848 
L 224.273117 271.007138 
L 224.656955 271.007138 
L 225.424632 270.495877 
L 228.235988 267.775545 
L 230.279667 266.246023 
L 232.838589 264.546082 
L 236.033783 262.84614 
L 239.612815 261.316619 
L 243.191848 259.616677 
L 254.565217 253.155621 
L 258.78398 250.264869 
L 266.837667 244.315073 
L 274.759951 239.385669 
L 278.338983 237.006177 
L 281.662123 234.285844 
L 284.729371 231.395092 
L 292.655112 224.254485 
L 294.954684 222.045413 
L 297.38566 220.175052 
L 299.685231 218.6434 
L 301.728911 217.113879 
L 303.648102 215.413937 
L 305.563835 214.054836 
L 307.35508 213.034445 
L 308.631083 212.014054 
L 309.526706 210.993663 
L 310.166436 208.614171 
L 310.166436 207.93462 
L 309.526706 206.743809 
L 308.631083 206.064259 
L 307.738919 205.723418 
L 307.227134 205.723418 
L 306.843296 205.552998 
L 306.075619 205.552998 
L 304.924105 205.893838 
L 303.648102 206.914229 
L 303.648102 206.914229 
L 303.520156 207.25294 
L 303.520156 207.08465 
L 303.39221 207.42336 
L 303.776048 207.42336 
L 304.03194 207.25294 
L 304.03194 206.743809 
L 304.03194 206.914229 
L 304.287832 207.08465 
L 304.796159 207.08465 
L 304.287832 206.573389 
L 304.415778 206.573389 
L 304.415778 205.723418 
L 304.668212 205.723418 
L 304.543724 205.893838 
L 304.159886 205.893838 
L 304.03194 206.064259 
L 303.648102 205.214288 
L 303.39221 205.043868 
L 303.39221 205.214288 
L 303.520156 204.873448 
L 303.520156 204.534737 
L 303.520156 204.534737 
L 303.39221 204.534737 
L 303.39221 204.534737 
L 303.648102 205.384708 
L 303.39221 205.552998 
L 303.264264 205.043868 
L 303.520156 205.043868 
L 303.903994 205.384708 
L 304.03194 205.723418 
L 303.776048 206.064259 
L 304.03194 205.552998 
L 303.903994 205.043868 
L 303.39221 204.534737 
L 303.136317 204.534737 
L 303.008371 204.703027 
L 303.39221 205.384708 
L 303.264264 205.384708 
L 303.264264 205.384708 
L 303.264264 205.214288 
L 303.264264 205.384708 
L 303.136317 205.552998 
L 302.880425 205.552998 
L 303.008371 205.214288 
L 303.264264 205.214288 
L 303.264264 205.214288 
L 303.136317 205.043868 
L 303.008371 205.384708 
L 303.008371 205.893838 
L 302.880425 206.064259 
L 302.880425 206.064259 
L 302.880425 205.723418 
L 303.136317 205.214288 
L 303.264264 205.214288 
L 303.39221 205.723418 
L 303.264264 205.384708 
L 303.264264 205.214288 
L 303.008371 205.384708 
L 302.752479 205.893838 
L 302.496587 205.893838 
L 302.240695 206.064259 
L 302.240695 205.384708 
L 302.112749 205.384708 
L 302.368641 205.384708 
L 302.624533 205.552998 
L 302.880425 205.043868 
L 302.752479 205.043868 
L 302.624533 205.384708 
L 302.880425 205.552998 
L 302.880425 205.384708 
L 303.136317 205.214288 
L 302.752479 205.384708 
L 302.624533 205.384708 
L 302.624533 205.384708 
L 302.624533 205.214288 
L 302.368641 205.552998 
L 302.752479 206.402969 
L 302.880425 206.234679 
L 302.240695 205.552998 
L 302.624533 206.064259 
L 302.496587 206.064259 
L 302.240695 205.893838 
L 302.240695 205.893838 
L 302.496587 205.384708 
L 301.984803 205.384708 
L 301.984803 205.384708 
L 302.624533 206.064259 
L 302.880425 206.234679 
L 302.880425 206.402969 
L 302.624533 206.402969 
L 302.112749 205.723418 
L 302.752479 205.723418 
L 302.880425 205.893838 
L 302.240695 206.234679 
L 302.368641 206.402969 
L 302.752479 206.064259 
L 303.008371 206.064259 
L 303.008371 205.723418 
L 302.624533 205.552998 
L 302.496587 205.723418 
L 302.368641 206.402969 
L 302.112749 206.914229 
L 302.496587 206.064259 
L 302.624533 205.384708 
L 302.496587 206.402969 
L 302.240695 206.234679 
L 302.112749 205.893838 
L 302.240695 205.893838 
L 302.240695 205.893838 
L 302.240695 206.064259 
L 302.240695 205.723418 
L 302.112749 206.064259 
L 302.240695 206.064259 
L 302.496587 206.402969 
L 302.240695 207.08465 
L 302.368641 206.914229 
L 302.112749 206.234679 
L 301.984803 206.234679 
L 302.112749 206.064259 
L 301.984803 205.723418 
L 301.984803 205.723418 
L 302.240695 205.723418 
L 302.368641 205.893838 
L 302.240695 206.234679 
L 302.112749 206.234679 
L 301.984803 205.214288 
L 301.984803 205.893838 
L 301.856857 205.723418 
L 301.856857 205.384708 
L 301.600964 205.384708 
L 301.345072 206.064259 
L 301.345072 205.723418 
L 301.345072 205.723418 
L 301.600964 206.234679 
L 301.473018 206.234679 
L 301.092638 205.723418 
L 301.220584 205.893838 
L 301.220584 205.552998 
L 301.728911 205.043868 
L 301.220584 205.552998 
L 301.092638 206.064259 
L 301.220584 206.064259 
L 301.345072 205.893838 
L 301.092638 205.384708 
L 301.345072 205.043868 
L 301.728911 205.043868 
L 301.473018 205.043868 
L 300.964692 205.384708 
L 300.964692 205.043868 
L 301.092638 204.873448 
L 301.345072 204.873448 
L 301.345072 205.384708 
L 301.092638 205.384708 
L 301.092638 205.214288 
L 301.220584 205.043868 
L 300.836746 205.552998 
L 300.7088 205.214288 
L 300.7088 204.703027 
L 300.7088 205.552998 
L 300.7088 205.214288 
L 300.580854 204.873448 
L 300.452908 204.873448 
L 300.580854 204.703027 
L 300.452908 204.534737 
L 300.197015 204.534737 
L 300.069069 204.703027 
L 300.197015 204.873448 
L 300.452908 204.873448 
L 300.324962 204.873448 
L 300.197015 204.703027 
L 300.197015 204.703027 
L 300.069069 204.873448 
L 299.941123 205.723418 
L 300.324962 205.552998 
L 300.7088 205.214288 
L 300.7088 204.534737 
L 300.7088 204.703027 
L 300.580854 204.873448 
L 300.069069 204.873448 
L 299.941123 204.703027 
L 300.069069 204.364317 
L 300.324962 204.534737 
L 300.324962 205.043868 
L 300.069069 205.384708 
L 299.685231 205.214288 
L 299.557285 204.873448 
L 299.685231 204.873448 
L 299.685231 204.873448 
L 299.685231 204.703027 
L 299.557285 204.703027 
L 299.301393 205.214288 
L 299.301393 205.043868 
L 299.557285 204.873448 
L 299.685231 205.043868 
L 299.685231 205.384708 
L 299.429339 205.384708 
L 299.301393 205.043868 
L 299.301393 204.703027 
L 299.429339 204.703027 
L 299.685231 205.043868 
L 299.557285 204.873448 
L 299.301393 205.043868 
L 298.917555 205.552998 
L 298.917555 205.214288 
L 299.045501 204.873448 
L 299.173447 204.873448 
L 299.045501 205.043868 
L 299.045501 205.043868 
L 299.429339 205.384708 
L 299.429339 205.723418 
L 299.045501 206.402969 
L 299.045501 206.064259 
L 298.917555 205.893838 
L 298.789609 206.064259 
L 299.045501 206.573389 
L 299.301393 206.573389 
L 299.557285 206.743809 
L 299.429339 206.914229 
L 299.045501 206.914229 
L 298.917555 206.743809 
L 299.045501 206.743809 
L 299.173447 206.743809 
L 299.173447 206.573389 
L 298.917555 205.552998 
L 298.917555 205.893838 
L 298.789609 206.402969 
L 298.789609 207.42336 
L 298.789609 207.25294 
L 299.045501 206.743809 
L 299.173447 206.064259 
L 299.173447 206.064259 
L 299.045501 206.064259 
L 298.789609 205.893838 
L 298.789609 205.723418 
L 298.917555 205.723418 
L 298.917555 207.08465 
L 298.789609 207.59378 
L 298.789609 207.42336 
L 298.789609 206.914229 
L 298.40577 206.402969 
L 298.533716 206.234679 
L 298.40577 206.234679 
L 298.40577 206.064259 
L 298.40577 206.234679 
L 298.533716 206.573389 
L 298.661662 206.573389 
L 298.533716 206.402969 
L 298.277824 206.402969 
L 298.661662 206.064259 
L 298.149878 206.402969 
L 298.40577 205.893838 
L 298.40577 206.064259 
L 298.277824 205.893838 
L 298.021932 205.893838 
L 297.893986 206.402969 
L 298.021932 206.743809 
L 298.149878 206.234679 
L 298.021932 206.234679 
L 298.021932 206.402969 
L 298.021932 206.234679 
L 298.149878 206.234679 
L 298.40577 205.723418 
L 298.277824 205.552998 
L 298.021932 205.893838 
L 298.149878 205.893838 
L 298.277824 205.893838 
L 298.021932 205.384708 
L 297.893986 205.384708 
L 297.893986 205.723418 
L 298.021932 205.723418 
L 298.021932 205.043868 
L 298.149878 205.552998 
L 298.661662 206.064259 
L 298.533716 206.064259 
L 298.149878 206.064259 
L 298.021932 205.723418 
L 298.021932 205.552998 
L 297.769498 205.214288 
L 298.021932 205.552998 
L 298.277824 205.214288 
L 298.40577 205.384708 
L 298.277824 205.893838 
L 298.149878 205.893838 
L 298.149878 205.384708 
L 298.277824 205.552998 
L 298.021932 206.064259 
L 298.149878 206.064259 
L 298.533716 205.723418 
L 298.661662 205.552998 
L 298.149878 206.234679 
L 298.149878 206.234679 
L 298.40577 206.234679 
L 298.40577 206.234679 
L 298.40577 206.573389 
L 298.40577 206.402969 
L 298.533716 205.893838 
L 298.40577 206.234679 
L 298.277824 206.402969 
L 298.277824 206.743809 
L 298.149878 206.914229 
L 298.021932 206.743809 
L 298.277824 206.573389 
L 298.277824 206.743809 
L 298.40577 206.914229 
L 298.40577 206.743809 
L 298.40577 206.573389 
L 298.277824 206.573389 
L 298.149878 206.402969 
L 298.277824 206.064259 
L 298.149878 206.064259 
L 297.769498 206.402969 
L 298.021932 206.234679 
" style="fill:none;stroke:#1f77b4;stroke-linecap:square;stroke-width:1.5;"/>
   </g>
   <g id="matplotlib.axis_1">
    <g id="xtick_1">
     <g id="line2d_2">
      <defs>
       <path d="M 0 0 
L 0 3.5 
" id="m8c6d5daa1d" style="stroke:#000000;stroke-width:0.8;"/>
      </defs>
      <g>
       <use style="stroke:#000000;stroke-width:0.8;" x="105.006618" xlink:href="#m8c6d5daa1d" y="307.584"/>
      </g>
     </g>
     <g id="text_1">
      <!-- −600 -->
      <defs>
       <path d="M 10.59375 35.5 
L 73.1875 35.5 
L 73.1875 27.203125 
L 10.59375 27.203125 
z
" id="DejaVuSans-8722"/>
       <path d="M 33.015625 40.375 
Q 26.375 40.375 22.484375 35.828125 
Q 18.609375 31.296875 18.609375 23.390625 
Q 18.609375 15.53125 22.484375 10.953125 
Q 26.375 6.390625 33.015625 6.390625 
Q 39.65625 6.390625 43.53125 10.953125 
Q 47.40625 15.53125 47.40625 23.390625 
Q 47.40625 31.296875 43.53125 35.828125 
Q 39.65625 40.375 33.015625 40.375 
z
M 52.59375 71.296875 
L 52.59375 62.3125 
Q 48.875 64.0625 45.09375 64.984375 
Q 41.3125 65.921875 37.59375 65.921875 
Q 27.828125 65.921875 22.671875 59.328125 
Q 17.53125 52.734375 16.796875 39.40625 
Q 19.671875 43.65625 24.015625 45.921875 
Q 28.375 48.1875 33.59375 48.1875 
Q 44.578125 48.1875 50.953125 41.515625 
Q 57.328125 34.859375 57.328125 23.390625 
Q 57.328125 12.15625 50.6875 5.359375 
Q 44.046875 -1.421875 33.015625 -1.421875 
Q 20.359375 -1.421875 13.671875 8.265625 
Q 6.984375 17.96875 6.984375 36.375 
Q 6.984375 53.65625 15.1875 63.9375 
Q 23.390625 74.21875 37.203125 74.21875 
Q 40.921875 74.21875 44.703125 73.484375 
Q 48.484375 72.75 52.59375 71.296875 
z
" id="DejaVuSans-54"/>
       <path d="M 31.78125 66.40625 
Q 24.171875 66.40625 20.328125 58.90625 
Q 16.5 51.421875 16.5 36.375 
Q 16.5 21.390625 20.328125 13.890625 
Q 24.171875 6.390625 31.78125 6.390625 
Q 39.453125 6.390625 43.28125 13.890625 
Q 47.125 21.390625 47.125 36.375 
Q 47.125 51.421875 43.28125 58.90625 
Q 39.453125 66.40625 31.78125 66.40625 
z
M 31.78125 74.21875 
Q 44.046875 74.21875 50.515625 64.515625 
Q 56.984375 54.828125 56.984375 36.375 
Q 56.984375 17.96875 50.515625 8.265625 
Q 44.046875 -1.421875 31.78125 -1.421875 
Q 19.53125 -1.421875 13.0625 8.265625 
Q 6.59375 17.96875 6.59375 36.375 
Q 6.59375 54.828125 13.0625 64.515625 
Q 19.53125 74.21875 31.78125 74.21875 
z
" id="DejaVuSans-48"/>
      </defs>
      <g transform="translate(91.273024 322.182437)scale(0.1 -0.1)">
       <use xlink:href="#DejaVuSans-8722"/>
       <use x="83.789062" xlink:href="#DejaVuSans-54"/>
       <use x="147.412109" xlink:href="#DejaVuSans-48"/>
       <use x="211.035156" xlink:href="#DejaVuSans-48"/>
      </g>
     </g>
    </g>
    <g id="xtick_2">
     <g id="line2d_3">
      <g>
       <use style="stroke:#000000;stroke-width:0.8;" x="174.166664" xlink:href="#m8c6d5daa1d" y="307.584"/>
      </g>
     </g>
     <g id="text_2">
      <!-- −400 -->
      <defs>
       <path d="M 37.796875 64.3125 
L 12.890625 25.390625 
L 37.796875 25.390625 
z
M 35.203125 72.90625 
L 47.609375 72.90625 
L 47.609375 25.390625 
L 58.015625 25.390625 
L 58.015625 17.1875 
L 47.609375 17.1875 
L 47.609375 0 
L 37.796875 0 
L 37.796875 17.1875 
L 4.890625 17.1875 
L 4.890625 26.703125 
z
" id="DejaVuSans-52"/>
      </defs>
      <g transform="translate(160.43307 322.182437)scale(0.1 -0.1)">
       <use xlink:href="#DejaVuSans-8722"/>
       <use x="83.789062" xlink:href="#DejaVuSans-52"/>
       <use x="147.412109" xlink:href="#DejaVuSans-48"/>
       <use x="211.035156" xlink:href="#DejaVuSans-48"/>
      </g>
     </g>
    </g>
    <g id="xtick_3">
     <g id="line2d_4">
      <g>
       <use style="stroke:#000000;stroke-width:0.8;" x="243.32671" xlink:href="#m8c6d5daa1d" y="307.584"/>
      </g>
     </g>
     <g id="text_3">
      <!-- −200 -->
      <defs>
       <path d="M 19.1875 8.296875 
L 53.609375 8.296875 
L 53.609375 0 
L 7.328125 0 
L 7.328125 8.296875 
Q 12.9375 14.109375 22.625 23.890625 
Q 32.328125 33.6875 34.8125 36.53125 
Q 39.546875 41.84375 41.421875 45.53125 
Q 43.3125 49.21875 43.3125 52.78125 
Q 43.3125 58.59375 39.234375 62.25 
Q 35.15625 65.921875 28.609375 65.921875 
Q 23.96875 65.921875 18.8125 64.3125 
Q 13.671875 62.703125 7.8125 59.421875 
L 7.8125 69.390625 
Q 13.765625 71.78125 18.9375 73 
Q 24.125 74.21875 28.421875 74.21875 
Q 39.75 74.21875 46.484375 68.546875 
Q 53.21875 62.890625 53.21875 53.421875 
Q 53.21875 48.921875 51.53125 44.890625 
Q 49.859375 40.875 45.40625 35.40625 
Q 44.1875 33.984375 37.640625 27.21875 
Q 31.109375 20.453125 19.1875 8.296875 
z
" id="DejaVuSans-50"/>
      </defs>
      <g transform="translate(229.593116 322.182437)scale(0.1 -0.1)">
       <use xlink:href="#DejaVuSans-8722"/>
       <use x="83.789062" xlink:href="#DejaVuSans-50"/>
       <use x="147.412109" xlink:href="#DejaVuSans-48"/>
       <use x="211.035156" xlink:href="#DejaVuSans-48"/>
      </g>
     </g>
    </g>
    <g id="xtick_4">
     <g id="line2d_5">
      <g>
       <use style="stroke:#000000;stroke-width:0.8;" x="312.486756" xlink:href="#m8c6d5daa1d" y="307.584"/>
      </g>
     </g>
     <g id="text_4">
      <!-- 0 -->
      <g transform="translate(309.305506 322.182437)scale(0.1 -0.1)">
       <use xlink:href="#DejaVuSans-48"/>
      </g>
     </g>
    </g>
    <g id="xtick_5">
     <g id="line2d_6">
      <g>
       <use style="stroke:#000000;stroke-width:0.8;" x="381.646802" xlink:href="#m8c6d5daa1d" y="307.584"/>
      </g>
     </g>
     <g id="text_5">
      <!-- 200 -->
      <g transform="translate(372.103052 322.182437)scale(0.1 -0.1)">
       <use xlink:href="#DejaVuSans-50"/>
       <use x="63.623047" xlink:href="#DejaVuSans-48"/>
       <use x="127.246094" xlink:href="#DejaVuSans-48"/>
      </g>
     </g>
    </g>
   </g>
   <g id="matplotlib.axis_2">
    <g id="ytick_1">
     <g id="line2d_7">
      <defs>
       <path d="M 0 0 
L -3.5 0 
" id="me1205bced6" style="stroke:#000000;stroke-width:0.8;"/>
      </defs>
      <g>
       <use style="stroke:#000000;stroke-width:0.8;" x="57.6" xlink:href="#me1205bced6" y="278.767648"/>
      </g>
     </g>
     <g id="text_6">
      <!-- −400 -->
      <g transform="translate(23.132812 282.566867)scale(0.1 -0.1)">
       <use xlink:href="#DejaVuSans-8722"/>
       <use x="83.789062" xlink:href="#DejaVuSans-52"/>
       <use x="147.412109" xlink:href="#DejaVuSans-48"/>
       <use x="211.035156" xlink:href="#DejaVuSans-48"/>
      </g>
     </g>
    </g>
    <g id="ytick_2">
     <g id="line2d_8">
      <g>
       <use style="stroke:#000000;stroke-width:0.8;" x="57.6" xlink:href="#me1205bced6" y="236.162597"/>
      </g>
     </g>
     <g id="text_7">
      <!-- −200 -->
      <g transform="translate(23.132812 239.961816)scale(0.1 -0.1)">
       <use xlink:href="#DejaVuSans-8722"/>
       <use x="83.789062" xlink:href="#DejaVuSans-50"/>
       <use x="147.412109" xlink:href="#DejaVuSans-48"/>
       <use x="211.035156" xlink:href="#DejaVuSans-48"/>
      </g>
     </g>
    </g>
    <g id="ytick_3">
     <g id="line2d_9">
      <g>
       <use style="stroke:#000000;stroke-width:0.8;" x="57.6" xlink:href="#me1205bced6" y="193.557546"/>
      </g>
     </g>
     <g id="text_8">
      <!-- 0 -->
      <g transform="translate(44.2375 197.356765)scale(0.1 -0.1)">
       <use xlink:href="#DejaVuSans-48"/>
      </g>
     </g>
    </g>
    <g id="ytick_4">
     <g id="line2d_10">
      <g>
       <use style="stroke:#000000;stroke-width:0.8;" x="57.6" xlink:href="#me1205bced6" y="150.952495"/>
      </g>
     </g>
     <g id="text_9">
      <!-- 200 -->
      <g transform="translate(31.5125 154.751714)scale(0.1 -0.1)">
       <use xlink:href="#DejaVuSans-50"/>
       <use x="63.623047" xlink:href="#DejaVuSans-48"/>
       <use x="127.246094" xlink:href="#DejaVuSans-48"/>
      </g>
     </g>
    </g>
    <g id="ytick_5">
     <g id="line2d_11">
      <g>
       <use style="stroke:#000000;stroke-width:0.8;" x="57.6" xlink:href="#me1205bced6" y="108.347444"/>
      </g>
     </g>
     <g id="text_10">
      <!-- 400 -->
      <g transform="translate(31.5125 112.146663)scale(0.1 -0.1)">
       <use xlink:href="#DejaVuSans-52"/>
       <use x="63.623047" xlink:href="#DejaVuSans-48"/>
       <use x="127.246094" xlink:href="#DejaVuSans-48"/>
      </g>
     </g>
    </g>
    <g id="ytick_6">
     <g id="line2d_12">
      <g>
       <use style="stroke:#000000;stroke-width:0.8;" x="57.6" xlink:href="#me1205bced6" y="65.742393"/>
      </g>
     </g>
     <g id="text_11">
      <!-- 600 -->
      <g transform="translate(31.5125 69.541612)scale(0.1 -0.1)">
       <use xlink:href="#DejaVuSans-54"/>
       <use x="63.623047" xlink:href="#DejaVuSans-48"/>
       <use x="127.246094" xlink:href="#DejaVuSans-48"/>
      </g>
     </g>
    </g>
   </g>
   <g id="line2d_13">
    <path clip-path="url(#pef4fffc845)" d="M 75.602397 55.4852 
L 310.403539 150.337832 
L 283.843479 222.72628 
L 214.116316 259.221565 
L 389.015685 290.259136 
L 383.798627 293.938454 
L 225.011356 272.445065 
L 301.088517 206.048164 
" style="fill:none;stroke:#ff0000;stroke-linecap:square;stroke-width:0.5;"/>
   </g>
   <g id="patch_3">
    <path d="M 57.6 307.584 
L 57.6 41.472 
" style="fill:none;stroke:#000000;stroke-linecap:square;stroke-linejoin:miter;stroke-width:0.8;"/>
   </g>
   <g id="patch_4">
    <path d="M 414.72 307.584 
L 414.72 41.472 
" style="fill:none;stroke:#000000;stroke-linecap:square;stroke-linejoin:miter;stroke-width:0.8;"/>
   </g>
   <g id="patch_5">
    <path d="M 57.6 307.584 
L 414.72 307.584 
" style="fill:none;stroke:#000000;stroke-linecap:square;stroke-linejoin:miter;stroke-width:0.8;"/>
   </g>
   <g id="patch_6">
    <path d="M 57.6 41.472 
L 414.72 41.472 
" style="fill:none;stroke:#000000;stroke-linecap:square;stroke-linejoin:miter;stroke-width:0.8;"/>
   </g>
   <g id="PathCollection_1">
    <defs>
     <path d="M 0 2.738613 
C 0.726289 2.738613 1.422928 2.450055 1.936492 1.936492 
C 2.450055 1.422928 2.738613 0.726289 2.738613 0 
C 2.738613 -0.726289 2.450055 -1.422928 1.936492 -1.936492 
C 1.422928 -2.450055 0.726289 -2.738613 0 -2.738613 
C -0.726289 -2.738613 -1.422928 -2.450055 -1.936492 -1.936492 
C -2.450055 -1.422928 -2.738613 -0.726289 -2.738613 0 
C -2.738613 0.726289 -2.450055 1.422928 -1.936492 1.936492 
C -1.422928 2.450055 -0.726289 2.738613 0 2.738613 
z
" id="m7ed9bf9617" style="stroke:#ff0000;"/>
    </defs>
    <g clip-path="url(#pef4fffc845)">
     <use style="fill:#ff0000;stroke:#ff0000;" x="75.602397" xlink:href="#m7ed9bf9617" y="55.4852"/>
     <use style="fill:#ff0000;stroke:#ff0000;" x="310.403539" xlink:href="#m7ed9bf9617" y="150.337832"/>
     <use style="fill:#ff0000;stroke:#ff0000;" x="283.843479" xlink:href="#m7ed9bf9617" y="222.72628"/>
     <use style="fill:#ff0000;stroke:#ff0000;" x="214.116316" xlink:href="#m7ed9bf9617" y="259.221565"/>
     <use style="fill:#ff0000;stroke:#ff0000;" x="389.015685" xlink:href="#m7ed9bf9617" y="290.259136"/>
     <use style="fill:#ff0000;stroke:#ff0000;" x="383.798627" xlink:href="#m7ed9bf9617" y="293.938454"/>
     <use style="fill:#ff0000;stroke:#ff0000;" x="225.011356" xlink:href="#m7ed9bf9617" y="272.445065"/>
     <use style="fill:#ff0000;stroke:#ff0000;" x="301.088517" xlink:href="#m7ed9bf9617" y="206.048164"/>
    </g>
   </g>
   <g id="text_12">
    <!-- (131) Subject: s17, Known = False, Degree = 1, Duration = 0.1 -->
    <defs>
     <path d="M 31 75.875 
Q 24.46875 64.65625 21.28125 53.65625 
Q 18.109375 42.671875 18.109375 31.390625 
Q 18.109375 20.125 21.3125 9.0625 
Q 24.515625 -2 31 -13.1875 
L 23.1875 -13.1875 
Q 15.875 -1.703125 12.234375 9.375 
Q 8.59375 20.453125 8.59375 31.390625 
Q 8.59375 42.28125 12.203125 53.3125 
Q 15.828125 64.359375 23.1875 75.875 
z
" id="DejaVuSans-40"/>
     <path d="M 12.40625 8.296875 
L 28.515625 8.296875 
L 28.515625 63.921875 
L 10.984375 60.40625 
L 10.984375 69.390625 
L 28.421875 72.90625 
L 38.28125 72.90625 
L 38.28125 8.296875 
L 54.390625 8.296875 
L 54.390625 0 
L 12.40625 0 
z
" id="DejaVuSans-49"/>
     <path d="M 40.578125 39.3125 
Q 47.65625 37.796875 51.625 33 
Q 55.609375 28.21875 55.609375 21.1875 
Q 55.609375 10.40625 48.1875 4.484375 
Q 40.765625 -1.421875 27.09375 -1.421875 
Q 22.515625 -1.421875 17.65625 -0.515625 
Q 12.796875 0.390625 7.625 2.203125 
L 7.625 11.71875 
Q 11.71875 9.328125 16.59375 8.109375 
Q 21.484375 6.890625 26.8125 6.890625 
Q 36.078125 6.890625 40.9375 10.546875 
Q 45.796875 14.203125 45.796875 21.1875 
Q 45.796875 27.640625 41.28125 31.265625 
Q 36.765625 34.90625 28.71875 34.90625 
L 20.21875 34.90625 
L 20.21875 43.015625 
L 29.109375 43.015625 
Q 36.375 43.015625 40.234375 45.921875 
Q 44.09375 48.828125 44.09375 54.296875 
Q 44.09375 59.90625 40.109375 62.90625 
Q 36.140625 65.921875 28.71875 65.921875 
Q 24.65625 65.921875 20.015625 65.03125 
Q 15.375 64.15625 9.8125 62.3125 
L 9.8125 71.09375 
Q 15.4375 72.65625 20.34375 73.4375 
Q 25.25 74.21875 29.59375 74.21875 
Q 40.828125 74.21875 47.359375 69.109375 
Q 53.90625 64.015625 53.90625 55.328125 
Q 53.90625 49.265625 50.4375 45.09375 
Q 46.96875 40.921875 40.578125 39.3125 
z
" id="DejaVuSans-51"/>
     <path d="M 8.015625 75.875 
L 15.828125 75.875 
Q 23.140625 64.359375 26.78125 53.3125 
Q 30.421875 42.28125 30.421875 31.390625 
Q 30.421875 20.453125 26.78125 9.375 
Q 23.140625 -1.703125 15.828125 -13.1875 
L 8.015625 -13.1875 
Q 14.5 -2 17.703125 9.0625 
Q 20.90625 20.125 20.90625 31.390625 
Q 20.90625 42.671875 17.703125 53.65625 
Q 14.5 64.65625 8.015625 75.875 
z
" id="DejaVuSans-41"/>
     <path id="DejaVuSans-32"/>
     <path d="M 53.515625 70.515625 
L 53.515625 60.890625 
Q 47.90625 63.578125 42.921875 64.890625 
Q 37.9375 66.21875 33.296875 66.21875 
Q 25.25 66.21875 20.875 63.09375 
Q 16.5 59.96875 16.5 54.203125 
Q 16.5 49.359375 19.40625 46.890625 
Q 22.3125 44.4375 30.421875 42.921875 
L 36.375 41.703125 
Q 47.40625 39.59375 52.65625 34.296875 
Q 57.90625 29 57.90625 20.125 
Q 57.90625 9.515625 50.796875 4.046875 
Q 43.703125 -1.421875 29.984375 -1.421875 
Q 24.8125 -1.421875 18.96875 -0.25 
Q 13.140625 0.921875 6.890625 3.21875 
L 6.890625 13.375 
Q 12.890625 10.015625 18.65625 8.296875 
Q 24.421875 6.59375 29.984375 6.59375 
Q 38.421875 6.59375 43.015625 9.90625 
Q 47.609375 13.234375 47.609375 19.390625 
Q 47.609375 24.75 44.3125 27.78125 
Q 41.015625 30.8125 33.5 32.328125 
L 27.484375 33.5 
Q 16.453125 35.6875 11.515625 40.375 
Q 6.59375 45.0625 6.59375 53.421875 
Q 6.59375 63.09375 13.40625 68.65625 
Q 20.21875 74.21875 32.171875 74.21875 
Q 37.3125 74.21875 42.625 73.28125 
Q 47.953125 72.359375 53.515625 70.515625 
z
" id="DejaVuSans-83"/>
     <path d="M 8.5 21.578125 
L 8.5 54.6875 
L 17.484375 54.6875 
L 17.484375 21.921875 
Q 17.484375 14.15625 20.5 10.265625 
Q 23.53125 6.390625 29.59375 6.390625 
Q 36.859375 6.390625 41.078125 11.03125 
Q 45.3125 15.671875 45.3125 23.6875 
L 45.3125 54.6875 
L 54.296875 54.6875 
L 54.296875 0 
L 45.3125 0 
L 45.3125 8.40625 
Q 42.046875 3.421875 37.71875 1 
Q 33.40625 -1.421875 27.6875 -1.421875 
Q 18.265625 -1.421875 13.375 4.4375 
Q 8.5 10.296875 8.5 21.578125 
z
M 31.109375 56 
z
" id="DejaVuSans-117"/>
     <path d="M 48.6875 27.296875 
Q 48.6875 37.203125 44.609375 42.84375 
Q 40.53125 48.484375 33.40625 48.484375 
Q 26.265625 48.484375 22.1875 42.84375 
Q 18.109375 37.203125 18.109375 27.296875 
Q 18.109375 17.390625 22.1875 11.75 
Q 26.265625 6.109375 33.40625 6.109375 
Q 40.53125 6.109375 44.609375 11.75 
Q 48.6875 17.390625 48.6875 27.296875 
z
M 18.109375 46.390625 
Q 20.953125 51.265625 25.265625 53.625 
Q 29.59375 56 35.59375 56 
Q 45.5625 56 51.78125 48.09375 
Q 58.015625 40.1875 58.015625 27.296875 
Q 58.015625 14.40625 51.78125 6.484375 
Q 45.5625 -1.421875 35.59375 -1.421875 
Q 29.59375 -1.421875 25.265625 0.953125 
Q 20.953125 3.328125 18.109375 8.203125 
L 18.109375 0 
L 9.078125 0 
L 9.078125 75.984375 
L 18.109375 75.984375 
z
" id="DejaVuSans-98"/>
     <path d="M 9.421875 54.6875 
L 18.40625 54.6875 
L 18.40625 -0.984375 
Q 18.40625 -11.421875 14.421875 -16.109375 
Q 10.453125 -20.796875 1.609375 -20.796875 
L -1.8125 -20.796875 
L -1.8125 -13.1875 
L 0.59375 -13.1875 
Q 5.71875 -13.1875 7.5625 -10.8125 
Q 9.421875 -8.453125 9.421875 -0.984375 
z
M 9.421875 75.984375 
L 18.40625 75.984375 
L 18.40625 64.59375 
L 9.421875 64.59375 
z
" id="DejaVuSans-106"/>
     <path d="M 56.203125 29.59375 
L 56.203125 25.203125 
L 14.890625 25.203125 
Q 15.484375 15.921875 20.484375 11.0625 
Q 25.484375 6.203125 34.421875 6.203125 
Q 39.59375 6.203125 44.453125 7.46875 
Q 49.3125 8.734375 54.109375 11.28125 
L 54.109375 2.78125 
Q 49.265625 0.734375 44.1875 -0.34375 
Q 39.109375 -1.421875 33.890625 -1.421875 
Q 20.796875 -1.421875 13.15625 6.1875 
Q 5.515625 13.8125 5.515625 26.8125 
Q 5.515625 40.234375 12.765625 48.109375 
Q 20.015625 56 32.328125 56 
Q 43.359375 56 49.78125 48.890625 
Q 56.203125 41.796875 56.203125 29.59375 
z
M 47.21875 32.234375 
Q 47.125 39.59375 43.09375 43.984375 
Q 39.0625 48.390625 32.421875 48.390625 
Q 24.90625 48.390625 20.390625 44.140625 
Q 15.875 39.890625 15.1875 32.171875 
z
" id="DejaVuSans-101"/>
     <path d="M 48.78125 52.59375 
L 48.78125 44.1875 
Q 44.96875 46.296875 41.140625 47.34375 
Q 37.3125 48.390625 33.40625 48.390625 
Q 24.65625 48.390625 19.8125 42.84375 
Q 14.984375 37.3125 14.984375 27.296875 
Q 14.984375 17.28125 19.8125 11.734375 
Q 24.65625 6.203125 33.40625 6.203125 
Q 37.3125 6.203125 41.140625 7.25 
Q 44.96875 8.296875 48.78125 10.40625 
L 48.78125 2.09375 
Q 45.015625 0.34375 40.984375 -0.53125 
Q 36.96875 -1.421875 32.421875 -1.421875 
Q 20.0625 -1.421875 12.78125 6.34375 
Q 5.515625 14.109375 5.515625 27.296875 
Q 5.515625 40.671875 12.859375 48.328125 
Q 20.21875 56 33.015625 56 
Q 37.15625 56 41.109375 55.140625 
Q 45.0625 54.296875 48.78125 52.59375 
z
" id="DejaVuSans-99"/>
     <path d="M 18.3125 70.21875 
L 18.3125 54.6875 
L 36.8125 54.6875 
L 36.8125 47.703125 
L 18.3125 47.703125 
L 18.3125 18.015625 
Q 18.3125 11.328125 20.140625 9.421875 
Q 21.96875 7.515625 27.59375 7.515625 
L 36.8125 7.515625 
L 36.8125 0 
L 27.59375 0 
Q 17.1875 0 13.234375 3.875 
Q 9.28125 7.765625 9.28125 18.015625 
L 9.28125 47.703125 
L 2.6875 47.703125 
L 2.6875 54.6875 
L 9.28125 54.6875 
L 9.28125 70.21875 
z
" id="DejaVuSans-116"/>
     <path d="M 11.71875 12.40625 
L 22.015625 12.40625 
L 22.015625 0 
L 11.71875 0 
z
M 11.71875 51.703125 
L 22.015625 51.703125 
L 22.015625 39.3125 
L 11.71875 39.3125 
z
" id="DejaVuSans-58"/>
     <path d="M 44.28125 53.078125 
L 44.28125 44.578125 
Q 40.484375 46.53125 36.375 47.5 
Q 32.28125 48.484375 27.875 48.484375 
Q 21.1875 48.484375 17.84375 46.4375 
Q 14.5 44.390625 14.5 40.28125 
Q 14.5 37.15625 16.890625 35.375 
Q 19.28125 33.59375 26.515625 31.984375 
L 29.59375 31.296875 
Q 39.15625 29.25 43.1875 25.515625 
Q 47.21875 21.78125 47.21875 15.09375 
Q 47.21875 7.46875 41.1875 3.015625 
Q 35.15625 -1.421875 24.609375 -1.421875 
Q 20.21875 -1.421875 15.453125 -0.5625 
Q 10.6875 0.296875 5.421875 2 
L 5.421875 11.28125 
Q 10.40625 8.6875 15.234375 7.390625 
Q 20.0625 6.109375 24.8125 6.109375 
Q 31.15625 6.109375 34.5625 8.28125 
Q 37.984375 10.453125 37.984375 14.40625 
Q 37.984375 18.0625 35.515625 20.015625 
Q 33.0625 21.96875 24.703125 23.78125 
L 21.578125 24.515625 
Q 13.234375 26.265625 9.515625 29.90625 
Q 5.8125 33.546875 5.8125 39.890625 
Q 5.8125 47.609375 11.28125 51.796875 
Q 16.75 56 26.8125 56 
Q 31.78125 56 36.171875 55.265625 
Q 40.578125 54.546875 44.28125 53.078125 
z
" id="DejaVuSans-115"/>
     <path d="M 8.203125 72.90625 
L 55.078125 72.90625 
L 55.078125 68.703125 
L 28.609375 0 
L 18.3125 0 
L 43.21875 64.59375 
L 8.203125 64.59375 
z
" id="DejaVuSans-55"/>
     <path d="M 11.71875 12.40625 
L 22.015625 12.40625 
L 22.015625 4 
L 14.015625 -11.625 
L 7.71875 -11.625 
L 11.71875 4 
z
" id="DejaVuSans-44"/>
     <path d="M 9.8125 72.90625 
L 19.671875 72.90625 
L 19.671875 42.09375 
L 52.390625 72.90625 
L 65.09375 72.90625 
L 28.90625 38.921875 
L 67.671875 0 
L 54.6875 0 
L 19.671875 35.109375 
L 19.671875 0 
L 9.8125 0 
z
" id="DejaVuSans-75"/>
     <path d="M 54.890625 33.015625 
L 54.890625 0 
L 45.90625 0 
L 45.90625 32.71875 
Q 45.90625 40.484375 42.875 44.328125 
Q 39.84375 48.1875 33.796875 48.1875 
Q 26.515625 48.1875 22.3125 43.546875 
Q 18.109375 38.921875 18.109375 30.90625 
L 18.109375 0 
L 9.078125 0 
L 9.078125 54.6875 
L 18.109375 54.6875 
L 18.109375 46.1875 
Q 21.34375 51.125 25.703125 53.5625 
Q 30.078125 56 35.796875 56 
Q 45.21875 56 50.046875 50.171875 
Q 54.890625 44.34375 54.890625 33.015625 
z
" id="DejaVuSans-110"/>
     <path d="M 30.609375 48.390625 
Q 23.390625 48.390625 19.1875 42.75 
Q 14.984375 37.109375 14.984375 27.296875 
Q 14.984375 17.484375 19.15625 11.84375 
Q 23.34375 6.203125 30.609375 6.203125 
Q 37.796875 6.203125 41.984375 11.859375 
Q 46.1875 17.53125 46.1875 27.296875 
Q 46.1875 37.015625 41.984375 42.703125 
Q 37.796875 48.390625 30.609375 48.390625 
z
M 30.609375 56 
Q 42.328125 56 49.015625 48.375 
Q 55.71875 40.765625 55.71875 27.296875 
Q 55.71875 13.875 49.015625 6.21875 
Q 42.328125 -1.421875 30.609375 -1.421875 
Q 18.84375 -1.421875 12.171875 6.21875 
Q 5.515625 13.875 5.515625 27.296875 
Q 5.515625 40.765625 12.171875 48.375 
Q 18.84375 56 30.609375 56 
z
" id="DejaVuSans-111"/>
     <path d="M 4.203125 54.6875 
L 13.1875 54.6875 
L 24.421875 12.015625 
L 35.59375 54.6875 
L 46.1875 54.6875 
L 57.421875 12.015625 
L 68.609375 54.6875 
L 77.59375 54.6875 
L 63.28125 0 
L 52.6875 0 
L 40.921875 44.828125 
L 29.109375 0 
L 18.5 0 
z
" id="DejaVuSans-119"/>
     <path d="M 10.59375 45.40625 
L 73.1875 45.40625 
L 73.1875 37.203125 
L 10.59375 37.203125 
z
M 10.59375 25.484375 
L 73.1875 25.484375 
L 73.1875 17.1875 
L 10.59375 17.1875 
z
" id="DejaVuSans-61"/>
     <path d="M 9.8125 72.90625 
L 51.703125 72.90625 
L 51.703125 64.59375 
L 19.671875 64.59375 
L 19.671875 43.109375 
L 48.578125 43.109375 
L 48.578125 34.8125 
L 19.671875 34.8125 
L 19.671875 0 
L 9.8125 0 
z
" id="DejaVuSans-70"/>
     <path d="M 34.28125 27.484375 
Q 23.390625 27.484375 19.1875 25 
Q 14.984375 22.515625 14.984375 16.5 
Q 14.984375 11.71875 18.140625 8.90625 
Q 21.296875 6.109375 26.703125 6.109375 
Q 34.1875 6.109375 38.703125 11.40625 
Q 43.21875 16.703125 43.21875 25.484375 
L 43.21875 27.484375 
z
M 52.203125 31.203125 
L 52.203125 0 
L 43.21875 0 
L 43.21875 8.296875 
Q 40.140625 3.328125 35.546875 0.953125 
Q 30.953125 -1.421875 24.3125 -1.421875 
Q 15.921875 -1.421875 10.953125 3.296875 
Q 6 8.015625 6 15.921875 
Q 6 25.140625 12.171875 29.828125 
Q 18.359375 34.515625 30.609375 34.515625 
L 43.21875 34.515625 
L 43.21875 35.40625 
Q 43.21875 41.609375 39.140625 45 
Q 35.0625 48.390625 27.6875 48.390625 
Q 23 48.390625 18.546875 47.265625 
Q 14.109375 46.140625 10.015625 43.890625 
L 10.015625 52.203125 
Q 14.9375 54.109375 19.578125 55.046875 
Q 24.21875 56 28.609375 56 
Q 40.484375 56 46.34375 49.84375 
Q 52.203125 43.703125 52.203125 31.203125 
z
" id="DejaVuSans-97"/>
     <path d="M 9.421875 75.984375 
L 18.40625 75.984375 
L 18.40625 0 
L 9.421875 0 
z
" id="DejaVuSans-108"/>
     <path d="M 19.671875 64.796875 
L 19.671875 8.109375 
L 31.59375 8.109375 
Q 46.6875 8.109375 53.6875 14.9375 
Q 60.6875 21.78125 60.6875 36.53125 
Q 60.6875 51.171875 53.6875 57.984375 
Q 46.6875 64.796875 31.59375 64.796875 
z
M 9.8125 72.90625 
L 30.078125 72.90625 
Q 51.265625 72.90625 61.171875 64.09375 
Q 71.09375 55.28125 71.09375 36.53125 
Q 71.09375 17.671875 61.125 8.828125 
Q 51.171875 0 30.078125 0 
L 9.8125 0 
z
" id="DejaVuSans-68"/>
     <path d="M 45.40625 27.984375 
Q 45.40625 37.75 41.375 43.109375 
Q 37.359375 48.484375 30.078125 48.484375 
Q 22.859375 48.484375 18.828125 43.109375 
Q 14.796875 37.75 14.796875 27.984375 
Q 14.796875 18.265625 18.828125 12.890625 
Q 22.859375 7.515625 30.078125 7.515625 
Q 37.359375 7.515625 41.375 12.890625 
Q 45.40625 18.265625 45.40625 27.984375 
z
M 54.390625 6.78125 
Q 54.390625 -7.171875 48.1875 -13.984375 
Q 42 -20.796875 29.203125 -20.796875 
Q 24.46875 -20.796875 20.265625 -20.09375 
Q 16.0625 -19.390625 12.109375 -17.921875 
L 12.109375 -9.1875 
Q 16.0625 -11.328125 19.921875 -12.34375 
Q 23.78125 -13.375 27.78125 -13.375 
Q 36.625 -13.375 41.015625 -8.765625 
Q 45.40625 -4.15625 45.40625 5.171875 
L 45.40625 9.625 
Q 42.625 4.78125 38.28125 2.390625 
Q 33.9375 0 27.875 0 
Q 17.828125 0 11.671875 7.65625 
Q 5.515625 15.328125 5.515625 27.984375 
Q 5.515625 40.671875 11.671875 48.328125 
Q 17.828125 56 27.875 56 
Q 33.9375 56 38.28125 53.609375 
Q 42.625 51.21875 45.40625 46.390625 
L 45.40625 54.6875 
L 54.390625 54.6875 
z
" id="DejaVuSans-103"/>
     <path d="M 41.109375 46.296875 
Q 39.59375 47.171875 37.8125 47.578125 
Q 36.03125 48 33.890625 48 
Q 26.265625 48 22.1875 43.046875 
Q 18.109375 38.09375 18.109375 28.8125 
L 18.109375 0 
L 9.078125 0 
L 9.078125 54.6875 
L 18.109375 54.6875 
L 18.109375 46.1875 
Q 20.953125 51.171875 25.484375 53.578125 
Q 30.03125 56 36.53125 56 
Q 37.453125 56 38.578125 55.875 
Q 39.703125 55.765625 41.0625 55.515625 
z
" id="DejaVuSans-114"/>
     <path d="M 9.421875 54.6875 
L 18.40625 54.6875 
L 18.40625 0 
L 9.421875 0 
z
M 9.421875 75.984375 
L 18.40625 75.984375 
L 18.40625 64.59375 
L 9.421875 64.59375 
z
" id="DejaVuSans-105"/>
     <path d="M 10.6875 12.40625 
L 21 12.40625 
L 21 0 
L 10.6875 0 
z
" id="DejaVuSans-46"/>
    </defs>
    <g transform="translate(45.924375 35.472)scale(0.12 -0.12)">
     <use xlink:href="#DejaVuSans-40"/>
     <use x="39.013672" xlink:href="#DejaVuSans-49"/>
     <use x="102.636719" xlink:href="#DejaVuSans-51"/>
     <use x="166.259766" xlink:href="#DejaVuSans-49"/>
     <use x="229.882812" xlink:href="#DejaVuSans-41"/>
     <use x="268.896484" xlink:href="#DejaVuSans-32"/>
     <use x="300.683594" xlink:href="#DejaVuSans-83"/>
     <use x="364.160156" xlink:href="#DejaVuSans-117"/>
     <use x="427.539062" xlink:href="#DejaVuSans-98"/>
     <use x="491.015625" xlink:href="#DejaVuSans-106"/>
     <use x="518.798828" xlink:href="#DejaVuSans-101"/>
     <use x="580.322266" xlink:href="#DejaVuSans-99"/>
     <use x="635.302734" xlink:href="#DejaVuSans-116"/>
     <use x="674.511719" xlink:href="#DejaVuSans-58"/>
     <use x="708.203125" xlink:href="#DejaVuSans-32"/>
     <use x="739.990234" xlink:href="#DejaVuSans-115"/>
     <use x="792.089844" xlink:href="#DejaVuSans-49"/>
     <use x="855.712891" xlink:href="#DejaVuSans-55"/>
     <use x="919.335938" xlink:href="#DejaVuSans-44"/>
     <use x="951.123047" xlink:href="#DejaVuSans-32"/>
     <use x="982.910156" xlink:href="#DejaVuSans-75"/>
     <use x="1048.486328" xlink:href="#DejaVuSans-110"/>
     <use x="1111.865234" xlink:href="#DejaVuSans-111"/>
     <use x="1173.046875" xlink:href="#DejaVuSans-119"/>
     <use x="1254.833984" xlink:href="#DejaVuSans-110"/>
     <use x="1318.212891" xlink:href="#DejaVuSans-32"/>
     <use x="1350" xlink:href="#DejaVuSans-61"/>
     <use x="1433.789062" xlink:href="#DejaVuSans-32"/>
     <use x="1465.576172" xlink:href="#DejaVuSans-70"/>
     <use x="1522.955078" xlink:href="#DejaVuSans-97"/>
     <use x="1584.234375" xlink:href="#DejaVuSans-108"/>
     <use x="1612.017578" xlink:href="#DejaVuSans-115"/>
     <use x="1664.117188" xlink:href="#DejaVuSans-101"/>
     <use x="1725.640625" xlink:href="#DejaVuSans-44"/>
     <use x="1757.427734" xlink:href="#DejaVuSans-32"/>
     <use x="1789.214844" xlink:href="#DejaVuSans-68"/>
     <use x="1866.216797" xlink:href="#DejaVuSans-101"/>
     <use x="1927.740234" xlink:href="#DejaVuSans-103"/>
     <use x="1991.216797" xlink:href="#DejaVuSans-114"/>
     <use x="2032.298828" xlink:href="#DejaVuSans-101"/>
     <use x="2093.822266" xlink:href="#DejaVuSans-101"/>
     <use x="2155.345703" xlink:href="#DejaVuSans-32"/>
     <use x="2187.132812" xlink:href="#DejaVuSans-61"/>
     <use x="2270.921875" xlink:href="#DejaVuSans-32"/>
     <use x="2302.708984" xlink:href="#DejaVuSans-49"/>
     <use x="2366.332031" xlink:href="#DejaVuSans-44"/>
     <use x="2398.119141" xlink:href="#DejaVuSans-32"/>
     <use x="2429.90625" xlink:href="#DejaVuSans-68"/>
     <use x="2506.908203" xlink:href="#DejaVuSans-117"/>
     <use x="2570.287109" xlink:href="#DejaVuSans-114"/>
     <use x="2611.400391" xlink:href="#DejaVuSans-97"/>
     <use x="2672.679688" xlink:href="#DejaVuSans-116"/>
     <use x="2711.888672" xlink:href="#DejaVuSans-105"/>
     <use x="2739.671875" xlink:href="#DejaVuSans-111"/>
     <use x="2800.853516" xlink:href="#DejaVuSans-110"/>
     <use x="2864.232422" xlink:href="#DejaVuSans-32"/>
     <use x="2896.019531" xlink:href="#DejaVuSans-61"/>
     <use x="2979.808594" xlink:href="#DejaVuSans-32"/>
     <use x="3011.595703" xlink:href="#DejaVuSans-48"/>
     <use x="3075.21875" xlink:href="#DejaVuSans-46"/>
     <use x="3107.005859" xlink:href="#DejaVuSans-49"/>
    </g>
   </g>
  </g>
 </g>
 <defs>
  <clipPath id="pef4fffc845">
   <rect height="266.112" width="357.12" x="57.6" y="41.472"/>
  </clipPath>
 </defs>
</svg>
