<?xml version="1.0" encoding="utf-8" standalone="no"?>
<!DOCTYPE svg PUBLIC "-//W3C//DTD SVG 1.1//EN"
  "http://www.w3.org/Graphics/SVG/1.1/DTD/svg11.dtd">
<!-- Created with matplotlib (https://matplotlib.org/) -->
<svg height="345.6pt" version="1.1" viewBox="0 0 460.8 345.6" width="460.8pt" xmlns="http://www.w3.org/2000/svg" xmlns:xlink="http://www.w3.org/1999/xlink">
 <defs>
  <style type="text/css">
*{stroke-linecap:butt;stroke-linejoin:round;}
  </style>
 </defs>
 <g id="figure_1">
  <g id="patch_1">
   <path d="M 0 345.6 
L 460.8 345.6 
L 460.8 0 
L 0 0 
z
" style="fill:#ffffff;"/>
  </g>
  <g id="axes_1">
   <g id="patch_2">
    <path d="M 57.6 307.584 
L 414.72 307.584 
L 414.72 41.472 
L 57.6 41.472 
z
" style="fill:#ffffff;"/>
   </g>
   <g id="line2d_1">
    <path clip-path="url(#p32824b18f0)" d="M 224.518681 166.153733 
L 224.518681 166.578261 
L 224.518681 166.578261 
L 224.319794 165.941469 
L 224.319794 165.516941 
L 224.518681 165.941469 
L 224.518681 166.365997 
L 223.735963 166.365997 
L 223.928435 166.153733 
L 224.319794 166.365997 
L 224.518681 166.790525 
L 224.518681 166.578261 
L 224.319794 166.790525 
L 224.319794 167.212795 
L 224.518681 167.637323 
L 224.518681 167.637323 
L 223.928435 167.212795 
L 223.344605 166.578261 
L 223.145717 166.578261 
L 223.344605 167.212795 
L 223.735963 167.637323 
L 224.127322 167.425059 
L 224.518681 166.790525 
L 224.319794 167.002789 
L 224.319794 166.790525 
L 224.319794 166.790525 
L 223.928435 167.212795 
L 224.127322 167.637323 
L 223.928435 167.425059 
L 223.537076 167.425059 
L 223.145717 167.637323 
L 223.537076 168.061851 
L 224.518681 168.486379 
L 223.344605 168.486379 
L 223.145717 168.274115 
L 223.344605 168.061851 
L 223.928435 169.120913 
L 223.928435 168.698643 
L 223.928435 169.120913 
L 224.127322 169.120913 
L 223.537076 169.333177 
L 222.953246 169.757705 
L 222.754359 170.182233 
L 222.953246 170.182233 
L 223.145717 169.757705 
L 223.344605 169.757705 
L 222.953246 169.757705 
L 222.754359 169.545441 
L 222.754359 169.333177 
L 222.953246 168.698643 
L 222.953246 168.698643 
L 222.953246 169.120913 
L 222.561887 170.182233 
L 222.754359 169.969969 
L 222.561887 169.545441 
L 222.363 169.757705 
L 222.363 169.969969 
L 223.537076 169.969969 
L 223.145717 169.969969 
L 222.953246 169.757705 
L 222.953246 169.333177 
L 223.145717 168.910907 
L 222.754359 168.910907 
L 222.754359 169.757705 
L 222.561887 170.394497 
L 222.561887 170.394497 
L 222.561887 169.969969 
L 222.754359 169.545441 
L 222.561887 170.182233 
L 221.971641 170.606761 
L 221.580282 170.394497 
L 221.77917 169.757705 
L 222.363 169.545441 
L 222.754359 169.969969 
L 222.953246 170.394497 
L 222.953246 170.819025 
L 222.953246 170.606761 
L 223.145717 170.394497 
L 223.145717 170.182233 
L 222.754359 170.182233 
L 222.363 170.606761 
L 222.953246 170.394497 
L 222.953246 170.394497 
L 222.754359 170.606761 
L 222.754359 170.606761 
L 222.754359 170.182233 
L 222.561887 170.182233 
L 222.363 170.394497 
L 222.363 170.606761 
L 222.170528 170.819025 
L 221.971641 170.819025 
L 221.580282 170.606761 
L 221.580282 170.394497 
L 221.971641 170.182233 
L 222.363 170.182233 
L 222.363 170.394497 
L 222.170528 170.606761 
L 221.971641 170.394497 
L 222.363 169.757705 
L 222.561887 169.969969 
L 222.170528 169.969969 
L 221.580282 169.757705 
L 221.188924 169.333177 
L 221.188924 169.545441 
L 222.170528 170.606761 
L 222.170528 170.182233 
L 221.77917 169.545441 
L 221.387811 169.545441 
L 221.387811 169.757705 
L 221.580282 169.545441 
L 221.77917 169.120913 
L 221.387811 169.120913 
L 220.797565 168.910907 
L 220.797565 168.274115 
L 221.580282 168.061851 
L 222.363 168.061851 
L 222.561887 168.274115 
L 221.971641 168.486379 
L 222.561887 168.274115 
L 222.754359 167.849587 
L 222.170528 167.425059 
L 221.971641 167.425059 
L 222.363 167.849587 
L 222.953246 167.849587 
L 223.145717 167.425059 
L 223.145717 167.002789 
L 222.953246 166.365997 
L 222.754359 166.365997 
L 222.363 166.153733 
L 222.363 165.941469 
L 222.754359 165.516941 
L 223.145717 164.245615 
L 223.145717 164.245615 
L 222.953246 164.245615 
L 223.145717 164.033351 
L 223.537076 162.762025 
L 223.344605 162.549761 
L 223.537076 162.337497 
L 223.537076 161.912969 
L 223.145717 161.700705 
L 223.145717 161.276177 
L 223.344605 160.641643 
L 223.735963 160.217115 
L 224.518681 160.217115 
L 224.319794 160.004851 
L 223.344605 159.368059 
L 223.145717 158.945789 
L 223.344605 158.733525 
L 223.928435 158.308997 
L 224.518681 157.459941 
L 224.518681 157.037672 
L 224.518681 157.672205 
L 224.127322 157.672205 
L 223.735963 157.037672 
L 223.735963 156.825408 
L 223.928435 156.613144 
L 224.319794 156.613144 
L 224.319794 156.613144 
L 224.127322 156.825408 
L 224.127322 156.825408 
L 223.928435 156.825408 
L 223.928435 156.188615 
L 224.127322 155.976351 
L 224.319794 155.976351 
L 224.518681 156.188615 
L 224.518681 156.40088 
L 224.319794 156.613144 
L 224.518681 156.825408 
L 224.91004 156.40088 
L 224.91004 156.40088 
L 224.91004 155.551823 
L 224.91004 155.551823 
L 224.518681 156.188615 
L 224.319794 156.40088 
L 224.319794 156.188615 
L 224.518681 156.188615 
L 224.91004 156.40088 
L 225.102511 156.188615 
L 225.102511 155.764087 
L 225.49387 156.40088 
L 226.276587 155.551823 
L 225.885229 155.976351 
L 225.102511 156.613144 
L 224.91004 156.40088 
L 224.711152 155.764087 
L 224.91004 155.339559 
L 225.692757 154.91729 
L 226.475475 154.91729 
L 226.667946 155.339559 
L 226.084116 155.551823 
L 226.866833 155.339559 
L 227.258192 155.551823 
L 227.649551 155.339559 
L 227.649551 154.91729 
L 227.258192 154.492762 
L 226.667946 154.492762 
L 226.667946 154.705026 
L 226.866833 154.705026 
L 226.866833 154.91729 
L 227.059305 154.91729 
L 227.059305 154.705026 
L 226.475475 154.91729 
L 226.084116 154.91729 
L 225.885229 154.705026 
L 225.885229 154.705026 
L 226.866833 154.280498 
L 227.059305 154.492762 
L 226.866833 154.705026 
L 226.667946 155.129554 
L 226.667946 155.551823 
L 226.667946 155.339559 
L 227.059305 155.129554 
L 227.059305 154.91729 
L 226.866833 155.129554 
L 226.866833 155.129554 
L 228.233381 155.129554 
L 227.842022 154.492762 
L 227.258192 154.280498 
L 227.258192 154.492762 
L 227.842022 154.492762 
L 228.04091 154.068234 
L 228.432268 154.068234 
L 228.233381 153.643706 
L 228.432268 153.431442 
L 228.62474 153.643706 
L 228.62474 153.85597 
L 228.432268 153.643706 
L 227.450664 154.068234 
L 227.842022 153.85597 
L 227.842022 153.219178 
L 228.04091 153.009172 
L 228.62474 153.219178 
L 228.823627 153.431442 
L 228.62474 153.643706 
L 228.233381 153.85597 
L 228.233381 154.280498 
L 228.432268 154.068234 
L 228.823627 152.584644 
L 229.016099 152.584644 
L 229.016099 152.796908 
L 229.214986 152.796908 
L 229.016099 152.584644 
L 228.62474 152.584644 
L 228.62474 152.37238 
L 229.016099 152.160116 
L 229.016099 151.947852 
L 228.62474 152.37238 
L 228.233381 152.37238 
L 228.62474 152.37238 
L 229.016099 152.584644 
L 229.016099 153.219178 
L 229.016099 153.219178 
L 229.798816 152.796908 
L 229.997703 151.947852 
L 230.389062 150.88879 
L 231.75561 150.676526 
L 233.519932 151.101054 
L 235.476726 151.31106 
L 240.365503 150.88879 
L 243.105014 150.464262 
L 246.043413 150.676526 
L 249.565641 151.101054 
L 261.107517 153.009172 
L 265.219992 154.492762 
L 277.352113 158.096733 
L 282.048418 159.792587 
L 287.136082 161.276177 
L 291.639916 162.762025 
L 296.137334 164.033351 
L 306.312661 166.153733 
L 311.406741 167.002789 
L 316.103046 168.061851 
L 320.799351 169.333177 
L 325.495656 171.031289 
L 330.384433 172.514879 
L 340.758648 175.059789 
L 345.846312 176.755643 
L 355.437809 181.630941 
L 359.351397 183.539059 
L 373.831671 188.841143 
L 376.372295 190.961525 
L 378.527976 193.291913 
L 381.267487 196.473615 
L 382.050205 197.957204 
L 382.441564 199.440794 
L 382.242676 200.926642 
L 382.242676 202.410232 
L 381.851318 203.893822 
L 381.267487 205.589676 
L 379.310694 209.193648 
L 379.310694 210.042704 
L 379.503165 210.89176 
L 380.093411 212.163086 
L 380.285883 213.434412 
L 380.285883 214.283468 
L 379.702052 214.92026 
L 380.285883 215.554794 
L 380.093411 216.191586 
L 379.702052 217.038384 
L 379.503165 217.88744 
L 380.093411 218.524232 
L 380.093411 219.158766 
L 379.503165 220.220086 
L 379.503165 221.279148 
L 380.093411 222.128204 
L 379.702052 222.552732 
L 380.093411 222.975002 
L 380.285883 223.39953 
L 380.093411 224.036322 
L 379.503165 224.885378 
L 379.503165 226.581232 
L 378.720448 227.003502 
L 378.720448 227.42803 
L 379.310694 227.852558 
L 379.894524 228.064822 
L 379.894524 228.277086 
L 379.702052 228.913878 
L 379.702052 230.185204 
L 379.894524 230.397468 
L 379.702052 230.397468 
L 379.702052 230.609732 
L 379.894524 231.032002 
L 379.894524 231.668794 
L 379.503165 231.881058 
L 378.919335 231.881058 
L 378.919335 232.305586 
L 379.310694 232.94012 
L 379.310694 233.152384 
L 379.702052 232.730114 
L 380.285883 233.364648 
L 380.876129 233.364648 
L 381.0686 233.152384 
L 380.876129 233.152384 
L 380.093411 233.576912 
L 379.702052 234.213704 
L 379.894524 234.213704 
L 380.093411 234.850496 
L 380.093411 235.272765 
L 380.093411 234.638232 
L 379.894524 234.425968 
L 380.285883 234.850496 
L 379.894524 235.909558 
L 379.894524 235.909558 
L 380.285883 235.909558 
L 380.48477 236.121822 
L 380.093411 238.029939 
L 380.677241 238.029939 
L 380.876129 237.817675 
L 380.48477 237.180883 
L 380.093411 237.180883 
L 379.894524 237.393147 
L 380.285883 238.242203 
L 380.48477 238.029939 
L 380.48477 237.605411 
L 380.48477 237.605411 
L 380.876129 237.817675 
L 380.876129 238.029939 
L 380.677241 238.242203 
L 381.267487 239.938057 
L 380.876129 239.725793 
L 380.48477 239.301265 
L 379.894524 239.513529 
L 380.285883 239.301265 
L 380.677241 239.938057 
L 380.876129 240.574849 
L 380.677241 240.787113 
L 380.285883 240.574849 
L 379.702052 240.574849 
L 380.48477 242.058439 
L 380.48477 241.846175 
L 380.285883 241.209383 
L 380.285883 240.787113 
L 380.285883 240.997119 
L 379.894524 242.482967 
L 380.285883 242.905237 
L 380.285883 243.117501 
L 379.894524 243.117501 
L 379.894524 242.695231 
L 379.702052 242.695231 
L 379.702052 242.695231 
L 380.093411 243.117501 
L 380.677241 244.391085 
L 380.48477 244.391085 
L 380.285883 243.966557 
L 379.894524 243.966557 
L 379.702052 244.178821 
L 379.702052 244.603349 
L 379.503165 245.025619 
L 379.111806 245.450147 
L 378.919335 246.086939 
L 378.919335 246.086939 
L 378.919335 245.237883 
L 379.310694 245.662411 
L 379.310694 246.086939 
L 379.111806 246.723731 
L 378.720448 247.146001 
L 378.720448 247.358265 
L 378.919335 247.358265 
L 378.919335 247.358265 
L 378.919335 246.933737 
L 378.919335 247.782793 
L 379.111806 248.207321 
L 378.919335 248.207321 
L 378.919335 247.782793 
L 379.702052 247.358265 
L 379.503165 247.570529 
L 378.919335 247.995057 
L 378.329089 248.207321 
L 377.745259 247.782793 
L 375.005747 246.299203 
L 372.657595 246.086939 
L 352.499411 243.329765 
L 346.821501 243.117501 
L 340.367289 242.695231 
L 333.71419 242.695231 
L 305.529944 241.209383 
L 297.510297 240.997119 
L 289.291763 240.574849 
L 281.265701 239.725793 
L 272.655808 239.089001 
L 246.627243 238.454467 
L 230.190175 238.878995 
L 212.771502 239.725793 
L 195.551717 239.725793 
L 179.114649 239.301265 
L 170.703644 239.301265 
L 162.478694 239.513529 
L 154.850406 239.938057 
L 147.805948 240.150321 
L 141.15285 240.574849 
L 133.909505 240.787113 
L 118.838985 242.058439 
L 101.426728 242.695231 
L 92.617948 243.117501 
L 88.903247 243.542029 
L 83.424225 243.966557 
L 81.85879 244.391085 
L 79.31175 246.086939 
L 78.920391 246.723731 
L 79.31175 248.207321 
L 79.31175 248.844113 
L 79.703109 249.054119 
L 79.901996 249.690911 
L 80.094467 250.962237 
L 79.901996 251.386765 
L 79.901996 251.386765 
L 79.901996 251.811293 
L 79.703109 252.235821 
L 79.901996 252.235821 
L 79.901996 252.235821 
L 78.330145 253.082619 
L 77.938786 253.507147 
L 77.938786 254.143939 
L 78.137674 254.990737 
L 77.938786 255.839793 
L 78.137674 256.476585 
L 78.330145 256.476585 
L 78.330145 256.264321 
L 78.137674 256.264321 
L 78.137674 256.264321 
L 78.137674 259.231501 
L 78.330145 259.443765 
L 78.529032 259.443765 
L 78.721504 259.231501 
L 78.721504 259.656029 
L 78.529032 260.080557 
L 78.330145 260.080557 
L 78.529032 259.868293 
L 78.529032 260.080557 
L 77.156069 261.988675 
L 77.156069 261.988675 
L 76.963597 261.776411 
L 76.76471 261.988675 
L 76.572239 262.625467 
L 76.963597 263.472265 
L 77.354956 263.896793 
L 77.354956 264.109057 
L 76.963597 264.109057 
L 76.572239 263.896793 
L 76.572239 263.684529 
L 76.76471 263.684529 
L 76.963597 263.896793 
L 77.156069 264.321321 
L 76.76471 264.321321 
L 76.572239 264.745849 
L 76.572239 265.380383 
L 76.18088 265.804911 
L 75.590634 266.017175 
L 75.789521 266.017175 
L 76.373351 266.229439 
L 76.373351 266.863973 
L 76.18088 267.925293 
L 75.981993 267.500765 
L 75.789521 267.500765 
L 75.789521 267.925293 
L 75.789521 267.713029 
L 75.981993 267.500765 
L 76.373351 267.713029 
L 76.572239 268.137557 
L 76.572239 268.137557 
L 76.373351 268.137557 
L 75.789521 269.196619 
L 75.590634 269.408883 
L 75.398162 269.408883 
L 75.590634 269.196619 
L 75.590634 268.984355 
L 75.006804 269.408883 
L 74.807916 270.045675 
L 75.006804 270.682467 
L 75.199275 270.682467 
L 75.398162 270.470203 
L 75.590634 270.682467 
L 76.18088 271.104737 
L 75.789521 271.741529 
L 75.199275 271.953793 
L 75.789521 271.741529 
L 75.199275 272.378321 
L 74.615445 272.590585 
L 74.416558 272.166057 
L 74.224086 272.166057 
L 73.832727 272.378321 
L 73.832727 272.590585 
L 74.615445 272.590585 
L 75.006804 272.802849 
L 75.006804 273.012855 
L 74.807916 273.225119 
L 75.006804 273.437383 
L 75.006804 274.286439 
L 74.807916 274.498703 
L 74.224086 274.074175 
L 74.025199 273.861911 
L 74.224086 273.861911 
L 74.416558 274.074175 
L 74.615445 274.074175 
L 74.615445 274.710967 
L 74.416558 275.557764 
L 74.615445 275.557764 
L 74.615445 275.982293 
L 74.416558 275.3455 
L 74.416558 274.710967 
L 74.224086 274.710967 
L 74.224086 275.133236 
L 74.615445 275.557764 
L 75.398162 275.557764 
L 75.590634 275.982293 
L 74.224086 277.041354 
L 74.025199 277.041354 
L 74.025199 277.041354 
L 74.224086 276.82909 
L 74.615445 276.82909 
L 74.807916 276.619085 
L 74.615445 276.619085 
L 74.615445 276.619085 
L 74.807916 276.406821 
L 74.615445 276.619085 
L 74.416558 277.253618 
L 74.416558 277.678146 
L 74.807916 277.465882 
L 75.398162 276.82909 
L 75.590634 277.041354 
L 75.398162 277.678146 
L 75.398162 278.314938 
L 75.199275 278.314938 
L 74.615445 277.253618 
L 74.615445 277.465882 
L 74.615445 277.678146 
L 74.416558 278.102674 
L 74.224086 278.102674 
L 74.224086 277.678146 
L 74.615445 277.678146 
L 75.398162 278.102674 
L 75.981993 278.739466 
L 75.590634 278.527202 
L 74.807916 278.314938 
L 74.224086 277.89041 
L 74.615445 277.89041 
L 75.006804 278.314938 
L 75.199275 278.314938 
L 75.398162 278.102674 
L 75.006804 278.527202 
L 74.615445 278.527202 
L 74.224086 277.465882 
L 74.224086 277.041354 
L 74.615445 277.041354 
L 75.199275 277.253618 
L 75.006804 277.253618 
L 74.807916 276.82909 
L 75.006804 275.982293 
L 76.572239 273.437383 
L 77.156069 271.953793 
L 79.510637 263.896793 
L 80.684713 260.505085 
L 81.659902 257.111119 
L 83.032866 253.082619 
L 84.598301 248.844113 
L 85.964849 244.603349 
L 87.729171 240.150321 
L 90.077324 235.060501 
L 93.208194 229.548412 
L 96.140177 224.673114 
L 101.619199 214.283468 
L 105.340315 208.34685 
L 109.645262 202.622496 
L 114.142679 196.898143 
L 122.560101 185.659441 
L 125.889858 180.359615 
L 135.866298 163.396559 
L 143.109643 152.796908 
L 150.154101 143.466324 
L 153.67633 138.591026 
L 156.608313 133.501206 
L 158.956465 128.625908 
L 161.695976 123.960616 
L 165.218205 119.507588 
L 167.957717 115.691352 
L 169.722039 111.875117 
L 171.486361 108.695673 
L 173.051796 106.150763 
L 174.617231 104.242645 
L 176.182666 102.122263 
L 177.748101 100.426409 
L 178.72329 99.155083 
L 179.506008 97.669235 
L 180.487613 97.246965 
L 181.85416 97.246965 
L 181.462802 96.822437 
L 181.462802 96.822437 
L 181.462802 97.456971 
L 181.85416 98.093763 
L 182.245519 98.518291 
L 182.053048 98.518291 
L 181.661689 98.093763 
L 181.85416 98.093763 
L 182.636878 97.246965 
L 182.636878 97.246965 
L 182.636878 97.034701 
L 182.636878 97.034701 
L 182.835765 97.246965 
L 183.227124 97.034701 
L 183.227124 97.246965 
L 182.835765 97.456971 
L 183.028237 97.669235 
L 183.227124 97.246965 
L 183.227124 96.822437 
L 182.835765 96.397909 
L 183.028237 96.185645 
L 182.835765 95.548853 
L 182.444406 94.914319 
L 182.444406 94.489791 
L 182.636878 94.489791 
L 182.636878 94.065263 
L 182.444406 93.428471 
L 182.636878 93.218465 
L 183.618483 93.640735 
L 183.618483 93.428471 
L 183.419595 93.218465 
L 183.227124 93.428471 
L 183.419595 93.428471 
L 183.810954 92.793937 
L 183.419595 93.218465 
L 183.227124 93.218465 
L 183.227124 91.944881 
L 183.618483 91.732617 
L 184.009841 91.308089 
L 184.593672 91.308089 
L 184.4012 91.308089 
L 184.009841 91.098083 
L 183.618483 90.461291 
L 183.810954 90.461291 
L 184.009841 90.673555 
L 183.618483 91.098083 
L 183.028237 91.098083 
L 183.227124 90.673555 
L 184.202313 90.249027 
L 184.4012 90.461291 
L 184.4012 90.673555 
L 184.4012 90.249027 
L 184.202313 90.036763 
L 184.202313 89.824499 
L 184.593672 89.824499 
L 185.183918 89.612235 
L 185.376389 89.399971 
L 185.376389 89.612235 
L 184.98503 89.824499 
L 184.593672 89.824499 
L 184.792559 89.824499 
L 184.98503 89.612235 
L 184.98503 89.399971 
L 184.4012 89.189965 
L 185.376389 89.612235 
L 185.767748 89.612235 
L 185.183918 89.399971 
L 184.98503 89.189965 
L 184.98503 88.977701 
L 185.376389 88.977701 
L 185.575276 89.399971 
L 185.376389 89.399971 
L 185.575276 89.612235 
L 185.575276 90.036763 
L 185.767748 89.824499 
L 185.966635 89.399971 
L 185.767748 89.189965 
L 185.767748 89.399971 
L 185.767748 89.189965 
L 185.376389 88.765437 
L 184.98503 88.977701 
L 185.183918 88.977701 
L 185.183918 89.399971 
L 185.183918 89.189965 
L 185.966635 88.765437 
L 185.767748 88.977701 
L 185.767748 89.824499 
L 186.159107 89.612235 
L 186.159107 89.189965 
L 186.550466 89.189965 
L 187.724542 90.036763 
L 187.923429 89.824499 
L 187.53207 89.612235 
L 187.140712 89.612235 
L 187.140712 89.612235 
L 187.923429 90.461291 
L 187.923429 90.249027 
L 187.53207 89.824499 
L 187.333183 89.399971 
L 187.140712 89.612235 
L 187.333183 90.249027 
L 187.333183 90.249027 
L 186.941824 90.249027 
L 186.941824 90.673555 
L 186.941824 90.673555 
L 187.53207 90.036763 
L 187.333183 90.461291 
L 186.749353 90.885819 
L 186.749353 90.885819 
L 187.333183 90.673555 
L 187.724542 90.673555 
L 186.357994 90.673555 
L 186.357994 90.673555 
L 186.749353 90.461291 
L 187.140712 90.461291 
L 188.314788 90.885819 
L 188.314788 91.520353 
L 188.115901 91.308089 
L 188.507259 90.249027 
L 188.507259 90.036763 
L 187.333183 90.461291 
L 187.333183 91.098083 
L 187.923429 91.732617 
L 188.507259 91.732617 
L 188.507259 91.308089 
L 188.115901 91.098083 
L 187.724542 91.098083 
L 187.53207 91.308089 
L 187.724542 91.944881 
L 187.53207 92.157145 
L 187.724542 91.732617 
L 187.923429 90.885819 
L 188.314788 90.673555 
L 188.507259 91.098083 
L 187.724542 91.520353 
L 187.333183 91.944881 
L 186.941824 91.520353 
L 186.941824 91.520353 
L 187.333183 91.520353 
L 187.923429 91.308089 
L 187.140712 91.732617 
L 187.333183 91.732617 
L 187.53207 91.520353 
L 187.724542 91.520353 
L 188.115901 91.732617 
L 188.706147 91.732617 
L 192.812206 90.885819 
L 194.768999 90.885819 
L 199.856663 90.461291 
L 207.491367 91.308089 
L 211.404955 91.520353 
L 215.318542 92.157145 
L 219.23213 93.218465 
L 223.344605 94.489791 
L 228.04091 96.185645 
L 233.321045 98.306027 
L 238.800068 100.850937 
L 248.584037 104.879437 
L 257.392817 109.966999 
L 272.854695 119.085318 
L 277.942359 122.264762 
L 283.030023 125.868734 
L 287.9188 130.109498 
L 292.813992 134.562526 
L 302.790433 142.407262 
L 307.685625 146.011234 
L 312.972176 149.615206 
L 318.64367 153.219178 
L 324.514052 156.613144 
L 329.601715 159.792587 
L 334.689379 162.762025 
L 345.454953 167.425059 
L 350.933976 170.182233 
L 360.326586 176.331115 
L 368.744007 180.996407 
L 372.657595 183.539059 
L 376.372295 186.296233 
L 379.894524 189.051149 
L 382.832922 191.808323 
L 385.572434 194.990025 
L 391.635287 200.714378 
L 393.59208 203.044766 
L 394.965044 205.377412 
L 395.940233 207.710058 
L 397.313196 209.618176 
L 398.288385 211.738558 
L 398.487273 214.283468 
L 398.288385 216.828378 
L 397.897027 219.158766 
L 397.704555 221.279148 
L 397.114309 223.39953 
L 396.331592 225.519912 
L 395.157515 230.397468 
L 394.182326 234.213704 
L 393.790968 236.758614 
L 393.200722 238.242203 
L 392.809363 240.362585 
L 392.225533 245.662411 
L 392.026645 246.511467 
L 391.051456 248.631849 
L 390.852569 250.327703 
L 391.051456 251.599029 
L 391.442815 252.660349 
L 391.442815 254.990737 
L 391.834174 256.476585 
L 391.442815 257.747911 
L 390.660098 259.019237 
L 390.46121 259.868293 
L 391.051456 260.292821 
L 391.243928 260.717349 
L 391.442815 261.564147 
L 391.442815 262.413203 
L 391.243928 263.472265 
L 390.268739 264.533585 
L 390.268739 265.380383 
L 390.852569 266.017175 
L 391.051456 266.017175 
L 391.243928 266.653967 
L 391.051456 267.288501 
L 390.852569 267.500765 
L 391.243928 267.500765 
L 391.442815 267.925293 
L 391.243928 267.925293 
L 391.442815 267.925293 
L 391.834174 268.349821 
L 391.834174 268.562085 
L 391.243928 268.562085 
L 391.442815 268.984355 
L 391.442815 269.621147 
L 390.852569 271.317001 
L 390.852569 271.953793 
L 391.051456 272.590585 
L 391.442815 272.802849 
L 391.834174 273.225119 
L 391.834174 273.861911 
L 391.834174 273.861911 
L 391.243928 274.286439 
L 391.442815 274.286439 
L 391.635287 274.074175 
L 391.635287 274.710967 
L 391.243928 275.133236 
L 390.852569 275.133236 
L 390.268739 275.557764 
L 390.46121 275.982293 
L 390.852569 276.194557 
L 390.852569 276.82909 
L 390.660098 277.253618 
L 390.660098 277.678146 
L 390.660098 277.678146 
L 390.852569 277.89041 
L 391.442815 277.89041 
L 391.442815 278.102674 
L 391.243928 278.102674 
L 391.051456 277.89041 
L 391.243928 277.89041 
L 391.243928 277.89041 
L 391.051456 278.102674 
L 390.46121 278.314938 
L 390.46121 278.314938 
L 390.660098 277.89041 
L 391.051456 277.678146 
L 391.243928 277.89041 
L 391.243928 278.527202 
L 391.051456 278.527202 
L 391.051456 278.527202 
L 390.852569 278.739466 
L 390.268739 279.161736 
L 390.46121 279.161736 
L 390.268739 279.374 
L 389.486021 279.798528 
L 389.486021 280.010792 
L 389.87738 280.010792 
L 390.268739 279.798528 
L 390.660098 279.798528 
L 390.852569 279.586264 
L 391.442815 279.586264 
L 391.051456 279.586264 
L 389.87738 279.798528 
L 390.268739 279.798528 
L 390.46121 280.010792 
L 390.660098 280.647584 
L 390.268739 281.069854 
L 390.268739 281.069854 
L 390.268739 281.494382 
L 390.268739 281.494382 
L 390.852569 280.43532 
L 390.069852 280.43532 
L 389.678493 280.647584 
L 389.678493 280.85759 
L 389.87738 281.069854 
L 390.069852 281.069854 
L 389.87738 281.069854 
L 389.87738 281.494382 
L 390.069852 281.706646 
L 390.46121 281.494382 
L 390.46121 281.282118 
L 390.069852 281.706646 
L 389.486021 281.91891 
L 388.895775 283.4025 
L 389.094663 283.190236 
L 390.268739 282.343438 
L 390.268739 282.131174 
L 389.87738 281.706646 
L 389.678493 281.91891 
L 389.678493 282.343438 
L 389.486021 282.977972 
L 389.678493 283.190236 
L 390.069852 283.190236 
L 389.87738 283.190236 
L 389.678493 283.4025 
L 390.46121 283.4025 
L 390.069852 284.039292 
L 389.678493 284.46382 
L 389.678493 284.676084 
L 389.87738 284.46382 
L 389.87738 284.46382 
L 389.87738 284.676084 
L 389.486021 284.88609 
L 389.094663 284.676084 
L 389.094663 284.88609 
L 388.703304 285.310618 
L 388.703304 285.522882 
L 389.486021 285.098354 
L 389.287134 285.098354 
L 388.895775 285.098354 
L 389.094663 285.098354 
L 389.287134 284.88609 
L 389.287134 284.88609 
L 388.895775 284.46382 
L 388.895775 284.251556 
L 388.895775 284.676084 
L 388.504417 284.676084 
L 388.311945 284.46382 
L 387.920586 284.676084 
L 387.33034 285.310618 
L 387.33034 285.310618 
L 387.920586 285.310618 
L 387.920586 285.310618 
L 387.33034 285.94741 
L 387.529227 285.735146 
L 387.721699 285.310618 
L 387.721699 285.522882 
L 387.721699 285.735146 
L 386.547623 286.371938 
L 386.74651 286.584202 
L 386.74651 286.159674 
L 386.547623 285.522882 
L 386.355151 285.735146 
L 386.355151 286.794208 
L 386.547623 287.643264 
L 386.74651 287.431 
L 386.74651 287.218736 
L 386.547623 287.218736 
L 386.355151 287.431 
L 386.156264 287.218736 
L 386.156264 287.006472 
L 386.547623 287.218736 
L 386.938981 287.218736 
L 386.156264 287.218736 
L 385.963792 286.584202 
L 385.963792 286.159674 
L 385.963792 286.584202 
L 385.764905 287.218736 
L 385.963792 287.218736 
L 386.156264 287.006472 
L 385.963792 287.431 
L 385.373546 287.855528 
L 385.181075 287.855528 
L 385.181075 287.218736 
L 384.982188 287.431 
L 384.982188 287.643264 
L 384.982188 287.431 
L 385.181075 287.218736 
L 384.398357 288.067792 
L 384.398357 288.067792 
L 383.61564 287.643264 
L 383.416753 288.067792 
L 383.61564 288.49232 
L 384.19947 288.704584 
L 384.982188 288.49232 
L 384.789716 288.704584 
L 384.789716 288.704584 
L 384.789716 288.280056 
L 384.982188 287.431 
L 384.789716 287.218736 
L 384.590829 288.067792 
L 384.19947 287.643264 
L 383.61564 287.643264 
L 383.224281 287.855528 
L 383.61564 288.280056 
L 383.61564 288.49232 
L 383.416753 288.91459 
L 383.025394 289.126854 
L 382.832922 288.49232 
L 382.634035 288.280056 
L 383.025394 288.91459 
L 383.416753 288.91459 
L 383.224281 289.126854 
L 382.634035 289.551382 
L 382.242676 289.551382 
L 382.050205 289.126854 
L 382.441564 289.126854 
L 382.441564 288.91459 
L 382.242676 288.91459 
L 382.634035 288.704584 
L 383.025394 288.91459 
L 383.416753 289.763646 
L 383.808111 290.188174 
L 383.61564 289.97591 
L 382.441564 288.91459 
L 382.441564 289.339118 
L 382.832922 289.763646 
L 382.634035 289.551382 
L 382.634035 289.339118 
L 382.634035 289.763646 
L 381.851318 290.188174 
L 381.0686 290.188174 
L 381.0686 289.97591 
L 381.851318 289.97591 
L 382.441564 290.188174 
L 382.441564 289.97591 
L 382.050205 289.339118 
L 381.658846 289.126854 
L 381.851318 289.551382 
L 382.242676 289.97591 
L 382.242676 289.763646 
L 382.050205 289.551382 
L 381.459959 290.822708 
L 381.267487 290.822708 
L 381.851318 290.822708 
L 382.242676 291.034972 
L 382.050205 291.034972 
L 381.459959 291.034972 
L 380.876129 290.612702 
L 380.677241 290.822708 
L 380.677241 291.671764 
L 380.48477 292.308556 
L 380.677241 292.096292 
L 380.876129 291.671764 
L 379.894524 291.671764 
L 379.503165 291.884028 
L 379.702052 291.884028 
L 380.48477 291.884028 
L 380.48477 292.096292 
L 380.48477 292.096292 
L 380.677241 291.671764 
L 380.48477 291.4595 
L 379.894524 292.733084 
L 379.503165 291.884028 
L 379.503165 291.4595 
L 379.702052 291.671764 
L 380.093411 291.884028 
L 379.894524 292.096292 
L 379.702052 292.52082 
L 379.702052 293.367618 
L 380.093411 293.792146 
L 380.285883 293.579882 
L 380.285883 292.52082 
L 380.48477 292.94309 
L 380.285883 292.94309 
L 379.702052 292.733084 
L 379.111806 292.733084 
L 379.111806 293.155354 
L 379.503165 293.579882 
L 379.894524 293.579882 
L 379.894524 292.94309 
L 379.503165 293.367618 
L 379.111806 294.00441 
L 378.527976 294.641202 
L 378.919335 294.00441 
L 379.111806 293.367618 
L 378.919335 294.00441 
L 379.111806 294.216674 
L 379.111806 294.428938 
L 379.310694 294.428938 
L 379.111806 294.216674 
L 379.111806 294.00441 
L 379.111806 294.216674 
L 378.720448 294.00441 
L 378.720448 294.00441 
L 378.919335 293.792146 
L 379.310694 293.792146 
L 379.503165 294.00441 
L 379.503165 294.00441 
L 378.919335 293.792146 
L 377.93773 293.792146 
L 378.329089 294.00441 
L 378.919335 294.00441 
L 379.310694 294.216674 
L 379.310694 295.063472 
L 379.310694 295.063472 
L 379.111806 294.851208 
L 379.111806 294.851208 
L 379.503165 294.851208 
L 379.503165 294.851208 
L 379.111806 295.275736 
L 378.720448 295.488 
L 378.720448 293.579882 
L 378.919335 293.367618 
L 379.111806 293.792146 
L 379.310694 293.579882 
L 379.310694 293.367618 
L 379.310694 293.579882 
L 379.111806 294.216674 
L 379.111806 294.00441 
L 378.919335 294.00441 
L 378.720448 293.792146 
L 378.527976 293.792146 
L 378.527976 294.00441 
L 378.329089 294.00441 
L 378.527976 293.155354 
L 378.919335 292.733084 
L 378.919335 292.52082 
L 379.111806 291.884028 
L 379.111806 291.884028 
L 379.310694 292.096292 
L 379.310694 292.096292 
L 379.111806 292.096292 
L 379.111806 292.096292 
L 379.111806 292.308556 
L 379.310694 292.308556 
L 379.111806 292.308556 
L 379.702052 291.671764 
L 379.702052 291.247236 
L 379.503165 291.034972 
L 378.919335 290.822708 
L 378.720448 291.034972 
L 379.310694 291.034972 
L 380.093411 290.612702 
L 380.285883 290.188174 
L 379.894524 290.188174 
L 379.310694 290.400438 
L 379.894524 289.339118 
L 379.503165 288.91459 
L 379.503165 288.49232 
L 379.702052 287.855528 
L 380.285883 287.643264 
L 380.677241 287.855528 
L 381.0686 288.280056 
L 381.267487 288.280056 
L 380.876129 288.067792 
L 380.48477 287.643264 
L 380.285883 286.794208 
L 380.677241 286.371938 
L 381.267487 285.522882 
L 380.48477 285.522882 
L 380.48477 285.098354 
L 381.267487 282.977972 
L 381.459959 281.91891 
L 381.267487 281.282118 
L 380.677241 280.223056 
L 380.285883 278.527202 
L 378.720448 269.833411 
L 377.3539 266.017175 
L 375.589577 261.564147 
L 373.241425 256.898855 
L 368.54512 246.511467 
L 365.41425 240.362585 
L 361.308191 234.213704 
L 357.003244 228.064822 
L 353.089657 221.703676 
L 349.368541 215.130266 
L 345.647425 208.983642 
L 342.125196 202.83476 
L 336.646173 190.324733 
L 333.515303 183.963587 
L 328.235168 171.453559 
L 325.887015 165.304677 
L 323.930221 158.733525 
L 321.582069 152.37238 
L 319.035029 146.011234 
L 316.103046 140.28688 
L 309.058588 129.260442 
L 306.12019 123.536088 
L 301.423885 111.875117 
L 298.876845 106.787555 
L 295.944862 102.122263 
L 293.59671 97.034701 
L 291.832387 91.732617 
L 289.875594 86.857319 
L 287.726328 82.616555 
L 285.570647 78.800319 
L 283.030023 72.651438 
L 281.464588 69.25973 
L 278.725077 62.474056 
L 276.569396 55.053848 
L 276.569396 53.992528 
L 276.768283 53.568 
L 277.159642 53.568 
L 277.159642 55.053848 
L 277.551001 55.266112 
L 277.551001 55.266112 
L 277.159642 55.900646 
L 276.960755 56.537438 
L 277.551001 56.749702 
L 278.134831 56.537438 
L 277.743472 56.11291 
L 277.942359 55.476118 
L 278.52619 55.053848 
L 278.725077 55.266112 
L 278.52619 55.476118 
L 278.52619 55.266112 
L 278.333718 54.62932 
L 278.134831 54.417056 
L 279.308907 54.841584 
L 279.507794 54.62932 
L 279.507794 54.841584 
L 279.116436 54.841584 
L 278.725077 54.62932 
L 278.333718 54.62932 
L 278.725077 54.62932 
L 278.917548 54.841584 
L 278.917548 54.841584 
L 279.700266 53.992528 
L 279.700266 53.992528 
L 279.308907 54.62932 
L 278.917548 55.053848 
L 278.52619 54.62932 
L 278.917548 54.417056 
L 279.700266 54.62932 
L 279.899153 55.266112 
L 279.700266 55.900646 
L 279.308907 56.537438 
L 279.899153 55.476118 
L 279.700266 55.053848 
L 279.116436 55.053848 
L 279.507794 55.053848 
L 279.899153 55.266112 
L 279.899153 55.476118 
L 279.308907 55.476118 
L 278.725077 55.900646 
L 278.134831 55.688382 
L 278.333718 55.900646 
L 278.333718 55.900646 
L 278.52619 55.688382 
L 280.091625 55.688382 
L 280.290512 55.900646 
L 280.091625 55.900646 
L 279.700266 55.476118 
L 279.116436 55.266112 
L 278.333718 55.266112 
L 278.333718 55.900646 
L 279.507794 55.900646 
L 279.899153 55.688382 
L 278.725077 55.476118 
L 278.52619 56.325174 
L 278.917548 56.325174 
L 279.507794 56.11291 
L 279.700266 55.688382 
L 279.507794 55.476118 
L 278.917548 55.266112 
L 278.725077 55.266112 
L 279.116436 55.476118 
L 279.507794 55.476118 
L 279.700266 55.266112 
L 279.116436 55.266112 
L 278.52619 55.476118 
L 278.52619 55.266112 
L 278.917548 55.053848 
L 278.917548 55.266112 
L 278.52619 55.688382 
L 278.52619 56.537438 
L 278.725077 56.749702 
L 279.308907 56.11291 
L 279.308907 55.688382 
L 279.116436 56.11291 
L 278.725077 56.537438 
L 278.333718 56.537438 
L 277.942359 56.325174 
L 277.942359 56.537438 
L 278.333718 56.537438 
L 278.917548 56.749702 
L 278.917548 56.325174 
L 278.725077 56.11291 
L 278.725077 56.11291 
L 279.116436 56.11291 
L 279.507794 56.325174 
L 279.507794 56.961966 
L 279.700266 56.961966 
L 278.917548 56.961966 
L 279.116436 56.749702 
L 279.308907 56.749702 
L 279.308907 57.386494 
L 279.116436 58.233292 
L 279.308907 58.445556 
L 279.116436 58.65782 
L 278.725077 58.65782 
L 278.917548 58.65782 
L 278.917548 58.445556 
L 278.725077 58.233292 
L 278.725077 58.445556 
L 278.52619 58.870084 
L 278.52619 58.870084 
L 278.917548 58.65782 
L 279.116436 59.082348 
L 278.917548 58.870084 
L 279.116436 58.445556 
L 279.116436 58.021028 
L 279.308907 58.021028 
L 279.308907 58.233292 
L 279.116436 58.233292 
L 279.116436 58.445556 
L 278.725077 59.082348 
L 278.725077 58.870084 
L 279.116436 58.65782 
L 279.116436 58.870084 
L 278.917548 59.082348 
L 278.725077 59.082348 
L 278.725077 59.082348 
L 278.917548 59.294612 
L 278.917548 59.716882 
L 278.725077 60.353674 
L 278.917548 60.353674 
L 278.917548 60.14141 
L 279.116436 59.929146 
L 279.116436 59.929146 
L 279.507794 59.929146 
L 279.116436 59.929146 
L 279.116436 59.504618 
L 279.507794 58.65782 
L 279.308907 58.445556 
L 279.308907 58.870084 
L 278.917548 59.929146 
L 280.482983 59.929146 
L 280.290512 59.716882 
L 280.091625 59.716882 
L 279.700266 59.504618 
L 279.507794 59.716882 
L 279.507794 60.14141 
L 279.700266 60.565938 
L 279.507794 60.565938 
L 278.917548 59.504618 
L 279.116436 59.504618 
L 279.308907 59.716882 
L 279.308907 60.778202 
L 279.116436 60.990466 
L 278.917548 60.778202 
L 278.917548 60.565938 
L 279.899153 60.14141 
L 280.290512 60.778202 
L 280.290512 60.14141 
L 279.700266 60.14141 
L 279.308907 60.353674 
L 279.116436 60.990466 
L 279.507794 61.20273 
L 279.700266 60.565938 
L 279.507794 60.778202 
L 279.507794 61.412736 
L 279.308907 61.625 
L 278.917548 61.20273 
L 279.116436 60.990466 
L 279.700266 60.990466 
L 280.091625 61.20273 
L 280.482983 62.049528 
L 280.482983 63.323112 
L 279.899153 63.323112 
L 279.507794 62.898584 
L 279.700266 61.837264 
L 279.899153 61.412736 
L 279.507794 62.474056 
L 279.507794 62.261792 
L 279.308907 62.049528 
L 278.917548 61.837264 
L 279.116436 61.412736 
L 279.116436 60.990466 
L 279.507794 60.565938 
L 279.899153 60.778202 
L 279.700266 60.990466 
L 279.700266 61.20273 
L 280.290512 61.20273 
L 280.290512 60.990466 
L 279.700266 60.990466 
L 278.917548 61.412736 
L 278.52619 62.049528 
L 278.52619 62.474056 
L 278.725077 62.474056 
L 278.725077 62.049528 
L 278.917548 62.049528 
L 279.308907 62.261792 
L 279.116436 62.261792 
L 278.725077 62.474056 
L 278.917548 62.474056 
L 279.308907 61.412736 
L 279.308907 61.412736 
L 279.308907 61.837264 
L 279.507794 62.474056 
L 279.507794 62.474056 
L 280.091625 62.68632 
L 282.439777 61.625 
L 283.613853 61.837264 
L 287.33497 63.745382 
L 288.509046 65.018966 
L 294.379427 72.014646 
L 296.72758 74.559556 
L 298.876845 77.31673 
L 301.032526 80.283909 
L 304.747226 87.704117 
L 310.033778 95.548853 
L 312.580817 99.789617 
L 317.469594 108.483409 
L 320.407992 113.358707 
L 323.339975 118.873054 
L 326.470845 124.385144 
L 329.210357 129.68497 
L 332.148755 134.350262 
L 335.080738 138.378762 
L 338.019137 142.619526 
L 340.758648 147.28256 
L 343.498159 151.523324 
L 346.629029 155.551823 
L 350.151258 159.368059 
L 353.282128 162.974289 
L 356.02164 166.578261 
L 358.177321 170.182233 
L 360.326586 173.361677 
L 362.873626 176.331115 
L 367.96129 183.114531 
L 370.309442 186.508497 
L 372.458707 189.900205 
L 376.571182 197.108148 
L 379.310694 202.622496 
L 381.0686 205.377412 
L 382.634035 208.134586 
L 383.61564 210.679496 
L 383.808111 213.222148 
L 383.416753 218.099704 
L 383.61564 220.43235 
L 384.19947 222.975002 
L 384.19947 226.156704 
L 384.006999 229.123884 
L 383.416753 231.668794 
L 383.025394 234.00144 
L 382.832922 236.334086 
L 382.832922 238.454467 
L 382.634035 240.997119 
L 382.242676 243.117501 
L 382.441564 244.815613 
L 382.832922 246.299203 
L 382.832922 248.207321 
L 381.459959 251.811293 
L 381.267487 253.082619 
L 380.876129 254.143939 
L 380.48477 257.111119 
L 379.702052 259.019237 
L 379.702052 260.080557 
L 379.894524 261.564147 
L 379.894524 264.533585 
L 379.702052 265.592647 
L 379.702052 267.925293 
L 379.503165 268.984355 
L 378.720448 271.104737 
L 378.720448 271.741529 
L 377.93773 272.166057 
L 377.93773 272.802849 
L 378.527976 274.710967 
L 378.527976 275.557764 
L 378.720448 276.194557 
L 378.720448 276.82909 
L 379.111806 278.102674 
L 378.919335 277.678146 
L 378.329089 277.253618 
L 377.745259 277.678146 
L 377.3539 279.374 
L 377.546371 279.586264 
L 378.136617 280.85759 
L 378.329089 280.85759 
L 378.527976 281.069854 
L 378.527976 281.282118 
L 378.720448 281.494382 
L 378.919335 281.91891 
L 378.919335 282.555702 
L 378.720448 282.767966 
L 378.720448 282.343438 
L 378.919335 282.977972 
L 378.919335 284.039292 
L 378.527976 284.676084 
L 378.136617 284.88609 
L 378.329089 285.098354 
L 378.720448 285.310618 
L 378.720448 285.098354 
L 378.136617 284.88609 
L 377.546371 284.88609 
L 377.546371 285.098354 
L 377.93773 285.310618 
L 378.329089 285.310618 
L 378.136617 285.098354 
L 377.745259 285.735146 
L 377.93773 286.584202 
L 378.329089 286.794208 
L 378.527976 286.371938 
L 378.527976 285.94741 
L 378.720448 286.159674 
L 379.111806 286.159674 
L 378.329089 286.159674 
L 377.745259 286.371938 
L 377.93773 286.584202 
L 378.720448 286.584202 
L 378.919335 286.371938 
L 378.919335 286.371938 
L 378.527976 286.371938 
L 378.329089 286.584202 
L 378.720448 286.159674 
L 378.720448 285.94741 
L 378.527976 285.735146 
L 378.720448 286.159674 
L 378.919335 287.006472 
L 378.720448 287.218736 
L 378.329089 286.794208 
L 378.329089 286.584202 
L 378.527976 286.584202 
L 378.527976 286.371938 
L 378.720448 286.584202 
L 379.310694 287.006472 
L 379.503165 287.006472 
L 378.919335 286.794208 
L 379.111806 286.794208 
L 379.503165 286.794208 
L 379.111806 286.584202 
L 378.527976 286.584202 
L 378.329089 286.794208 
L 378.720448 287.006472 
L 378.720448 287.218736 
L 378.329089 286.794208 
L 377.93773 286.794208 
L 377.546371 287.006472 
L 377.93773 287.218736 
L 378.720448 287.006472 
L 378.720448 287.006472 
" style="fill:none;stroke:#1f77b4;stroke-linecap:square;stroke-width:1.5;"/>
   </g>
   <g id="matplotlib.axis_1">
    <g id="xtick_1">
     <g id="line2d_2">
      <defs>
       <path d="M 0 0 
L 0 3.5 
" id="m33d4e21832" style="stroke:#000000;stroke-width:0.8;"/>
      </defs>
      <g>
       <use style="stroke:#000000;stroke-width:0.8;" x="98.283026" xlink:href="#m33d4e21832" y="307.584"/>
      </g>
     </g>
     <g id="text_1">
      <!-- −100 -->
      <defs>
       <path d="M 10.59375 35.5 
L 73.1875 35.5 
L 73.1875 27.203125 
L 10.59375 27.203125 
z
" id="DejaVuSans-8722"/>
       <path d="M 12.40625 8.296875 
L 28.515625 8.296875 
L 28.515625 63.921875 
L 10.984375 60.40625 
L 10.984375 69.390625 
L 28.421875 72.90625 
L 38.28125 72.90625 
L 38.28125 8.296875 
L 54.390625 8.296875 
L 54.390625 0 
L 12.40625 0 
z
" id="DejaVuSans-49"/>
       <path d="M 31.78125 66.40625 
Q 24.171875 66.40625 20.328125 58.90625 
Q 16.5 51.421875 16.5 36.375 
Q 16.5 21.390625 20.328125 13.890625 
Q 24.171875 6.390625 31.78125 6.390625 
Q 39.453125 6.390625 43.28125 13.890625 
Q 47.125 21.390625 47.125 36.375 
Q 47.125 51.421875 43.28125 58.90625 
Q 39.453125 66.40625 31.78125 66.40625 
z
M 31.78125 74.21875 
Q 44.046875 74.21875 50.515625 64.515625 
Q 56.984375 54.828125 56.984375 36.375 
Q 56.984375 17.96875 50.515625 8.265625 
Q 44.046875 -1.421875 31.78125 -1.421875 
Q 19.53125 -1.421875 13.0625 8.265625 
Q 6.59375 17.96875 6.59375 36.375 
Q 6.59375 54.828125 13.0625 64.515625 
Q 19.53125 74.21875 31.78125 74.21875 
z
" id="DejaVuSans-48"/>
      </defs>
      <g transform="translate(84.549432 322.182437)scale(0.1 -0.1)">
       <use xlink:href="#DejaVuSans-8722"/>
       <use x="83.789062" xlink:href="#DejaVuSans-49"/>
       <use x="147.412109" xlink:href="#DejaVuSans-48"/>
       <use x="211.035156" xlink:href="#DejaVuSans-48"/>
      </g>
     </g>
    </g>
    <g id="xtick_2">
     <g id="line2d_3">
      <g>
       <use style="stroke:#000000;stroke-width:0.8;" x="162.4402" xlink:href="#m33d4e21832" y="307.584"/>
      </g>
     </g>
     <g id="text_2">
      <!-- 0 -->
      <g transform="translate(159.25895 322.182437)scale(0.1 -0.1)">
       <use xlink:href="#DejaVuSans-48"/>
      </g>
     </g>
    </g>
    <g id="xtick_3">
     <g id="line2d_4">
      <g>
       <use style="stroke:#000000;stroke-width:0.8;" x="226.597373" xlink:href="#m33d4e21832" y="307.584"/>
      </g>
     </g>
     <g id="text_3">
      <!-- 100 -->
      <g transform="translate(217.053623 322.182437)scale(0.1 -0.1)">
       <use xlink:href="#DejaVuSans-49"/>
       <use x="63.623047" xlink:href="#DejaVuSans-48"/>
       <use x="127.246094" xlink:href="#DejaVuSans-48"/>
      </g>
     </g>
    </g>
    <g id="xtick_4">
     <g id="line2d_5">
      <g>
       <use style="stroke:#000000;stroke-width:0.8;" x="290.754547" xlink:href="#m33d4e21832" y="307.584"/>
      </g>
     </g>
     <g id="text_4">
      <!-- 200 -->
      <defs>
       <path d="M 19.1875 8.296875 
L 53.609375 8.296875 
L 53.609375 0 
L 7.328125 0 
L 7.328125 8.296875 
Q 12.9375 14.109375 22.625 23.890625 
Q 32.328125 33.6875 34.8125 36.53125 
Q 39.546875 41.84375 41.421875 45.53125 
Q 43.3125 49.21875 43.3125 52.78125 
Q 43.3125 58.59375 39.234375 62.25 
Q 35.15625 65.921875 28.609375 65.921875 
Q 23.96875 65.921875 18.8125 64.3125 
Q 13.671875 62.703125 7.8125 59.421875 
L 7.8125 69.390625 
Q 13.765625 71.78125 18.9375 73 
Q 24.125 74.21875 28.421875 74.21875 
Q 39.75 74.21875 46.484375 68.546875 
Q 53.21875 62.890625 53.21875 53.421875 
Q 53.21875 48.921875 51.53125 44.890625 
Q 49.859375 40.875 45.40625 35.40625 
Q 44.1875 33.984375 37.640625 27.21875 
Q 31.109375 20.453125 19.1875 8.296875 
z
" id="DejaVuSans-50"/>
      </defs>
      <g transform="translate(281.210797 322.182437)scale(0.1 -0.1)">
       <use xlink:href="#DejaVuSans-50"/>
       <use x="63.623047" xlink:href="#DejaVuSans-48"/>
       <use x="127.246094" xlink:href="#DejaVuSans-48"/>
      </g>
     </g>
    </g>
    <g id="xtick_5">
     <g id="line2d_6">
      <g>
       <use style="stroke:#000000;stroke-width:0.8;" x="354.91172" xlink:href="#m33d4e21832" y="307.584"/>
      </g>
     </g>
     <g id="text_5">
      <!-- 300 -->
      <defs>
       <path d="M 40.578125 39.3125 
Q 47.65625 37.796875 51.625 33 
Q 55.609375 28.21875 55.609375 21.1875 
Q 55.609375 10.40625 48.1875 4.484375 
Q 40.765625 -1.421875 27.09375 -1.421875 
Q 22.515625 -1.421875 17.65625 -0.515625 
Q 12.796875 0.390625 7.625 2.203125 
L 7.625 11.71875 
Q 11.71875 9.328125 16.59375 8.109375 
Q 21.484375 6.890625 26.8125 6.890625 
Q 36.078125 6.890625 40.9375 10.546875 
Q 45.796875 14.203125 45.796875 21.1875 
Q 45.796875 27.640625 41.28125 31.265625 
Q 36.765625 34.90625 28.71875 34.90625 
L 20.21875 34.90625 
L 20.21875 43.015625 
L 29.109375 43.015625 
Q 36.375 43.015625 40.234375 45.921875 
Q 44.09375 48.828125 44.09375 54.296875 
Q 44.09375 59.90625 40.109375 62.90625 
Q 36.140625 65.921875 28.71875 65.921875 
Q 24.65625 65.921875 20.015625 65.03125 
Q 15.375 64.15625 9.8125 62.3125 
L 9.8125 71.09375 
Q 15.4375 72.65625 20.34375 73.4375 
Q 25.25 74.21875 29.59375 74.21875 
Q 40.828125 74.21875 47.359375 69.109375 
Q 53.90625 64.015625 53.90625 55.328125 
Q 53.90625 49.265625 50.4375 45.09375 
Q 46.96875 40.921875 40.578125 39.3125 
z
" id="DejaVuSans-51"/>
      </defs>
      <g transform="translate(345.36797 322.182437)scale(0.1 -0.1)">
       <use xlink:href="#DejaVuSans-51"/>
       <use x="63.623047" xlink:href="#DejaVuSans-48"/>
       <use x="127.246094" xlink:href="#DejaVuSans-48"/>
      </g>
     </g>
    </g>
   </g>
   <g id="matplotlib.axis_2">
    <g id="ytick_1">
     <g id="line2d_7">
      <defs>
       <path d="M 0 0 
L -3.5 0 
" id="m6f9781ab30" style="stroke:#000000;stroke-width:0.8;"/>
      </defs>
      <g>
       <use style="stroke:#000000;stroke-width:0.8;" x="57.6" xlink:href="#m6f9781ab30" y="271.425391"/>
      </g>
     </g>
     <g id="text_6">
      <!-- −600 -->
      <defs>
       <path d="M 33.015625 40.375 
Q 26.375 40.375 22.484375 35.828125 
Q 18.609375 31.296875 18.609375 23.390625 
Q 18.609375 15.53125 22.484375 10.953125 
Q 26.375 6.390625 33.015625 6.390625 
Q 39.65625 6.390625 43.53125 10.953125 
Q 47.40625 15.53125 47.40625 23.390625 
Q 47.40625 31.296875 43.53125 35.828125 
Q 39.65625 40.375 33.015625 40.375 
z
M 52.59375 71.296875 
L 52.59375 62.3125 
Q 48.875 64.0625 45.09375 64.984375 
Q 41.3125 65.921875 37.59375 65.921875 
Q 27.828125 65.921875 22.671875 59.328125 
Q 17.53125 52.734375 16.796875 39.40625 
Q 19.671875 43.65625 24.015625 45.921875 
Q 28.375 48.1875 33.59375 48.1875 
Q 44.578125 48.1875 50.953125 41.515625 
Q 57.328125 34.859375 57.328125 23.390625 
Q 57.328125 12.15625 50.6875 5.359375 
Q 44.046875 -1.421875 33.015625 -1.421875 
Q 20.359375 -1.421875 13.671875 8.265625 
Q 6.984375 17.96875 6.984375 36.375 
Q 6.984375 53.65625 15.1875 63.9375 
Q 23.390625 74.21875 37.203125 74.21875 
Q 40.921875 74.21875 44.703125 73.484375 
Q 48.484375 72.75 52.59375 71.296875 
z
" id="DejaVuSans-54"/>
      </defs>
      <g transform="translate(23.132812 275.224609)scale(0.1 -0.1)">
       <use xlink:href="#DejaVuSans-8722"/>
       <use x="83.789062" xlink:href="#DejaVuSans-54"/>
       <use x="147.412109" xlink:href="#DejaVuSans-48"/>
       <use x="211.035156" xlink:href="#DejaVuSans-48"/>
      </g>
     </g>
    </g>
    <g id="ytick_2">
     <g id="line2d_8">
      <g>
       <use style="stroke:#000000;stroke-width:0.8;" x="57.6" xlink:href="#m6f9781ab30" y="226.262836"/>
      </g>
     </g>
     <g id="text_7">
      <!-- −400 -->
      <defs>
       <path d="M 37.796875 64.3125 
L 12.890625 25.390625 
L 37.796875 25.390625 
z
M 35.203125 72.90625 
L 47.609375 72.90625 
L 47.609375 25.390625 
L 58.015625 25.390625 
L 58.015625 17.1875 
L 47.609375 17.1875 
L 47.609375 0 
L 37.796875 0 
L 37.796875 17.1875 
L 4.890625 17.1875 
L 4.890625 26.703125 
z
" id="DejaVuSans-52"/>
      </defs>
      <g transform="translate(23.132812 230.062055)scale(0.1 -0.1)">
       <use xlink:href="#DejaVuSans-8722"/>
       <use x="83.789062" xlink:href="#DejaVuSans-52"/>
       <use x="147.412109" xlink:href="#DejaVuSans-48"/>
       <use x="211.035156" xlink:href="#DejaVuSans-48"/>
      </g>
     </g>
    </g>
    <g id="ytick_3">
     <g id="line2d_9">
      <g>
       <use style="stroke:#000000;stroke-width:0.8;" x="57.6" xlink:href="#m6f9781ab30" y="181.100281"/>
      </g>
     </g>
     <g id="text_8">
      <!-- −200 -->
      <g transform="translate(23.132812 184.8995)scale(0.1 -0.1)">
       <use xlink:href="#DejaVuSans-8722"/>
       <use x="83.789062" xlink:href="#DejaVuSans-50"/>
       <use x="147.412109" xlink:href="#DejaVuSans-48"/>
       <use x="211.035156" xlink:href="#DejaVuSans-48"/>
      </g>
     </g>
    </g>
    <g id="ytick_4">
     <g id="line2d_10">
      <g>
       <use style="stroke:#000000;stroke-width:0.8;" x="57.6" xlink:href="#m6f9781ab30" y="135.937726"/>
      </g>
     </g>
     <g id="text_9">
      <!-- 0 -->
      <g transform="translate(44.2375 139.736945)scale(0.1 -0.1)">
       <use xlink:href="#DejaVuSans-48"/>
      </g>
     </g>
    </g>
    <g id="ytick_5">
     <g id="line2d_11">
      <g>
       <use style="stroke:#000000;stroke-width:0.8;" x="57.6" xlink:href="#m6f9781ab30" y="90.775171"/>
      </g>
     </g>
     <g id="text_10">
      <!-- 200 -->
      <g transform="translate(31.5125 94.57439)scale(0.1 -0.1)">
       <use xlink:href="#DejaVuSans-50"/>
       <use x="63.623047" xlink:href="#DejaVuSans-48"/>
       <use x="127.246094" xlink:href="#DejaVuSans-48"/>
      </g>
     </g>
    </g>
    <g id="ytick_6">
     <g id="line2d_12">
      <g>
       <use style="stroke:#000000;stroke-width:0.8;" x="57.6" xlink:href="#m6f9781ab30" y="45.612616"/>
      </g>
     </g>
     <g id="text_11">
      <!-- 400 -->
      <g transform="translate(31.5125 49.411835)scale(0.1 -0.1)">
       <use xlink:href="#DejaVuSans-52"/>
       <use x="63.623047" xlink:href="#DejaVuSans-48"/>
       <use x="127.246094" xlink:href="#DejaVuSans-48"/>
      </g>
     </g>
    </g>
   </g>
   <g id="line2d_13">
    <path clip-path="url(#p32824b18f0)" d="M 225.389181 162.269981 
L 380.031123 230.00166 
L 77.366527 261.922302 
L 184.964391 92.286221 
L 390.953101 272.103025 
L 383.347378 288.35314 
L 279.402143 58.707084 
L 378.688849 280.361182 
" style="fill:none;stroke:#ff0000;stroke-linecap:square;stroke-width:0.5;"/>
   </g>
   <g id="patch_3">
    <path d="M 57.6 307.584 
L 57.6 41.472 
" style="fill:none;stroke:#000000;stroke-linecap:square;stroke-linejoin:miter;stroke-width:0.8;"/>
   </g>
   <g id="patch_4">
    <path d="M 414.72 307.584 
L 414.72 41.472 
" style="fill:none;stroke:#000000;stroke-linecap:square;stroke-linejoin:miter;stroke-width:0.8;"/>
   </g>
   <g id="patch_5">
    <path d="M 57.6 307.584 
L 414.72 307.584 
" style="fill:none;stroke:#000000;stroke-linecap:square;stroke-linejoin:miter;stroke-width:0.8;"/>
   </g>
   <g id="patch_6">
    <path d="M 57.6 41.472 
L 414.72 41.472 
" style="fill:none;stroke:#000000;stroke-linecap:square;stroke-linejoin:miter;stroke-width:0.8;"/>
   </g>
   <g id="PathCollection_1">
    <defs>
     <path d="M 0 2.738613 
C 0.726289 2.738613 1.422928 2.450055 1.936492 1.936492 
C 2.450055 1.422928 2.738613 0.726289 2.738613 0 
C 2.738613 -0.726289 2.450055 -1.422928 1.936492 -1.936492 
C 1.422928 -2.450055 0.726289 -2.738613 0 -2.738613 
C -0.726289 -2.738613 -1.422928 -2.450055 -1.936492 -1.936492 
C -2.450055 -1.422928 -2.738613 -0.726289 -2.738613 0 
C -2.738613 0.726289 -2.450055 1.422928 -1.936492 1.936492 
C -1.422928 2.450055 -0.726289 2.738613 0 2.738613 
z
" id="m190c3af645" style="stroke:#ff0000;"/>
    </defs>
    <g clip-path="url(#p32824b18f0)">
     <use style="fill:#ff0000;stroke:#ff0000;" x="225.389181" xlink:href="#m190c3af645" y="162.269981"/>
     <use style="fill:#ff0000;stroke:#ff0000;" x="380.031123" xlink:href="#m190c3af645" y="230.00166"/>
     <use style="fill:#ff0000;stroke:#ff0000;" x="77.366527" xlink:href="#m190c3af645" y="261.922302"/>
     <use style="fill:#ff0000;stroke:#ff0000;" x="184.964391" xlink:href="#m190c3af645" y="92.286221"/>
     <use style="fill:#ff0000;stroke:#ff0000;" x="390.953101" xlink:href="#m190c3af645" y="272.103025"/>
     <use style="fill:#ff0000;stroke:#ff0000;" x="383.347378" xlink:href="#m190c3af645" y="288.35314"/>
     <use style="fill:#ff0000;stroke:#ff0000;" x="279.402143" xlink:href="#m190c3af645" y="58.707084"/>
     <use style="fill:#ff0000;stroke:#ff0000;" x="378.688849" xlink:href="#m190c3af645" y="280.361182"/>
    </g>
   </g>
   <g id="text_12">
    <!-- (133) Subject: s27, Known = False, Degree = 1, Duration = 0.1 -->
    <defs>
     <path d="M 31 75.875 
Q 24.46875 64.65625 21.28125 53.65625 
Q 18.109375 42.671875 18.109375 31.390625 
Q 18.109375 20.125 21.3125 9.0625 
Q 24.515625 -2 31 -13.1875 
L 23.1875 -13.1875 
Q 15.875 -1.703125 12.234375 9.375 
Q 8.59375 20.453125 8.59375 31.390625 
Q 8.59375 42.28125 12.203125 53.3125 
Q 15.828125 64.359375 23.1875 75.875 
z
" id="DejaVuSans-40"/>
     <path d="M 8.015625 75.875 
L 15.828125 75.875 
Q 23.140625 64.359375 26.78125 53.3125 
Q 30.421875 42.28125 30.421875 31.390625 
Q 30.421875 20.453125 26.78125 9.375 
Q 23.140625 -1.703125 15.828125 -13.1875 
L 8.015625 -13.1875 
Q 14.5 -2 17.703125 9.0625 
Q 20.90625 20.125 20.90625 31.390625 
Q 20.90625 42.671875 17.703125 53.65625 
Q 14.5 64.65625 8.015625 75.875 
z
" id="DejaVuSans-41"/>
     <path id="DejaVuSans-32"/>
     <path d="M 53.515625 70.515625 
L 53.515625 60.890625 
Q 47.90625 63.578125 42.921875 64.890625 
Q 37.9375 66.21875 33.296875 66.21875 
Q 25.25 66.21875 20.875 63.09375 
Q 16.5 59.96875 16.5 54.203125 
Q 16.5 49.359375 19.40625 46.890625 
Q 22.3125 44.4375 30.421875 42.921875 
L 36.375 41.703125 
Q 47.40625 39.59375 52.65625 34.296875 
Q 57.90625 29 57.90625 20.125 
Q 57.90625 9.515625 50.796875 4.046875 
Q 43.703125 -1.421875 29.984375 -1.421875 
Q 24.8125 -1.421875 18.96875 -0.25 
Q 13.140625 0.921875 6.890625 3.21875 
L 6.890625 13.375 
Q 12.890625 10.015625 18.65625 8.296875 
Q 24.421875 6.59375 29.984375 6.59375 
Q 38.421875 6.59375 43.015625 9.90625 
Q 47.609375 13.234375 47.609375 19.390625 
Q 47.609375 24.75 44.3125 27.78125 
Q 41.015625 30.8125 33.5 32.328125 
L 27.484375 33.5 
Q 16.453125 35.6875 11.515625 40.375 
Q 6.59375 45.0625 6.59375 53.421875 
Q 6.59375 63.09375 13.40625 68.65625 
Q 20.21875 74.21875 32.171875 74.21875 
Q 37.3125 74.21875 42.625 73.28125 
Q 47.953125 72.359375 53.515625 70.515625 
z
" id="DejaVuSans-83"/>
     <path d="M 8.5 21.578125 
L 8.5 54.6875 
L 17.484375 54.6875 
L 17.484375 21.921875 
Q 17.484375 14.15625 20.5 10.265625 
Q 23.53125 6.390625 29.59375 6.390625 
Q 36.859375 6.390625 41.078125 11.03125 
Q 45.3125 15.671875 45.3125 23.6875 
L 45.3125 54.6875 
L 54.296875 54.6875 
L 54.296875 0 
L 45.3125 0 
L 45.3125 8.40625 
Q 42.046875 3.421875 37.71875 1 
Q 33.40625 -1.421875 27.6875 -1.421875 
Q 18.265625 -1.421875 13.375 4.4375 
Q 8.5 10.296875 8.5 21.578125 
z
M 31.109375 56 
z
" id="DejaVuSans-117"/>
     <path d="M 48.6875 27.296875 
Q 48.6875 37.203125 44.609375 42.84375 
Q 40.53125 48.484375 33.40625 48.484375 
Q 26.265625 48.484375 22.1875 42.84375 
Q 18.109375 37.203125 18.109375 27.296875 
Q 18.109375 17.390625 22.1875 11.75 
Q 26.265625 6.109375 33.40625 6.109375 
Q 40.53125 6.109375 44.609375 11.75 
Q 48.6875 17.390625 48.6875 27.296875 
z
M 18.109375 46.390625 
Q 20.953125 51.265625 25.265625 53.625 
Q 29.59375 56 35.59375 56 
Q 45.5625 56 51.78125 48.09375 
Q 58.015625 40.1875 58.015625 27.296875 
Q 58.015625 14.40625 51.78125 6.484375 
Q 45.5625 -1.421875 35.59375 -1.421875 
Q 29.59375 -1.421875 25.265625 0.953125 
Q 20.953125 3.328125 18.109375 8.203125 
L 18.109375 0 
L 9.078125 0 
L 9.078125 75.984375 
L 18.109375 75.984375 
z
" id="DejaVuSans-98"/>
     <path d="M 9.421875 54.6875 
L 18.40625 54.6875 
L 18.40625 -0.984375 
Q 18.40625 -11.421875 14.421875 -16.109375 
Q 10.453125 -20.796875 1.609375 -20.796875 
L -1.8125 -20.796875 
L -1.8125 -13.1875 
L 0.59375 -13.1875 
Q 5.71875 -13.1875 7.5625 -10.8125 
Q 9.421875 -8.453125 9.421875 -0.984375 
z
M 9.421875 75.984375 
L 18.40625 75.984375 
L 18.40625 64.59375 
L 9.421875 64.59375 
z
" id="DejaVuSans-106"/>
     <path d="M 56.203125 29.59375 
L 56.203125 25.203125 
L 14.890625 25.203125 
Q 15.484375 15.921875 20.484375 11.0625 
Q 25.484375 6.203125 34.421875 6.203125 
Q 39.59375 6.203125 44.453125 7.46875 
Q 49.3125 8.734375 54.109375 11.28125 
L 54.109375 2.78125 
Q 49.265625 0.734375 44.1875 -0.34375 
Q 39.109375 -1.421875 33.890625 -1.421875 
Q 20.796875 -1.421875 13.15625 6.1875 
Q 5.515625 13.8125 5.515625 26.8125 
Q 5.515625 40.234375 12.765625 48.109375 
Q 20.015625 56 32.328125 56 
Q 43.359375 56 49.78125 48.890625 
Q 56.203125 41.796875 56.203125 29.59375 
z
M 47.21875 32.234375 
Q 47.125 39.59375 43.09375 43.984375 
Q 39.0625 48.390625 32.421875 48.390625 
Q 24.90625 48.390625 20.390625 44.140625 
Q 15.875 39.890625 15.1875 32.171875 
z
" id="DejaVuSans-101"/>
     <path d="M 48.78125 52.59375 
L 48.78125 44.1875 
Q 44.96875 46.296875 41.140625 47.34375 
Q 37.3125 48.390625 33.40625 48.390625 
Q 24.65625 48.390625 19.8125 42.84375 
Q 14.984375 37.3125 14.984375 27.296875 
Q 14.984375 17.28125 19.8125 11.734375 
Q 24.65625 6.203125 33.40625 6.203125 
Q 37.3125 6.203125 41.140625 7.25 
Q 44.96875 8.296875 48.78125 10.40625 
L 48.78125 2.09375 
Q 45.015625 0.34375 40.984375 -0.53125 
Q 36.96875 -1.421875 32.421875 -1.421875 
Q 20.0625 -1.421875 12.78125 6.34375 
Q 5.515625 14.109375 5.515625 27.296875 
Q 5.515625 40.671875 12.859375 48.328125 
Q 20.21875 56 33.015625 56 
Q 37.15625 56 41.109375 55.140625 
Q 45.0625 54.296875 48.78125 52.59375 
z
" id="DejaVuSans-99"/>
     <path d="M 18.3125 70.21875 
L 18.3125 54.6875 
L 36.8125 54.6875 
L 36.8125 47.703125 
L 18.3125 47.703125 
L 18.3125 18.015625 
Q 18.3125 11.328125 20.140625 9.421875 
Q 21.96875 7.515625 27.59375 7.515625 
L 36.8125 7.515625 
L 36.8125 0 
L 27.59375 0 
Q 17.1875 0 13.234375 3.875 
Q 9.28125 7.765625 9.28125 18.015625 
L 9.28125 47.703125 
L 2.6875 47.703125 
L 2.6875 54.6875 
L 9.28125 54.6875 
L 9.28125 70.21875 
z
" id="DejaVuSans-116"/>
     <path d="M 11.71875 12.40625 
L 22.015625 12.40625 
L 22.015625 0 
L 11.71875 0 
z
M 11.71875 51.703125 
L 22.015625 51.703125 
L 22.015625 39.3125 
L 11.71875 39.3125 
z
" id="DejaVuSans-58"/>
     <path d="M 44.28125 53.078125 
L 44.28125 44.578125 
Q 40.484375 46.53125 36.375 47.5 
Q 32.28125 48.484375 27.875 48.484375 
Q 21.1875 48.484375 17.84375 46.4375 
Q 14.5 44.390625 14.5 40.28125 
Q 14.5 37.15625 16.890625 35.375 
Q 19.28125 33.59375 26.515625 31.984375 
L 29.59375 31.296875 
Q 39.15625 29.25 43.1875 25.515625 
Q 47.21875 21.78125 47.21875 15.09375 
Q 47.21875 7.46875 41.1875 3.015625 
Q 35.15625 -1.421875 24.609375 -1.421875 
Q 20.21875 -1.421875 15.453125 -0.5625 
Q 10.6875 0.296875 5.421875 2 
L 5.421875 11.28125 
Q 10.40625 8.6875 15.234375 7.390625 
Q 20.0625 6.109375 24.8125 6.109375 
Q 31.15625 6.109375 34.5625 8.28125 
Q 37.984375 10.453125 37.984375 14.40625 
Q 37.984375 18.0625 35.515625 20.015625 
Q 33.0625 21.96875 24.703125 23.78125 
L 21.578125 24.515625 
Q 13.234375 26.265625 9.515625 29.90625 
Q 5.8125 33.546875 5.8125 39.890625 
Q 5.8125 47.609375 11.28125 51.796875 
Q 16.75 56 26.8125 56 
Q 31.78125 56 36.171875 55.265625 
Q 40.578125 54.546875 44.28125 53.078125 
z
" id="DejaVuSans-115"/>
     <path d="M 8.203125 72.90625 
L 55.078125 72.90625 
L 55.078125 68.703125 
L 28.609375 0 
L 18.3125 0 
L 43.21875 64.59375 
L 8.203125 64.59375 
z
" id="DejaVuSans-55"/>
     <path d="M 11.71875 12.40625 
L 22.015625 12.40625 
L 22.015625 4 
L 14.015625 -11.625 
L 7.71875 -11.625 
L 11.71875 4 
z
" id="DejaVuSans-44"/>
     <path d="M 9.8125 72.90625 
L 19.671875 72.90625 
L 19.671875 42.09375 
L 52.390625 72.90625 
L 65.09375 72.90625 
L 28.90625 38.921875 
L 67.671875 0 
L 54.6875 0 
L 19.671875 35.109375 
L 19.671875 0 
L 9.8125 0 
z
" id="DejaVuSans-75"/>
     <path d="M 54.890625 33.015625 
L 54.890625 0 
L 45.90625 0 
L 45.90625 32.71875 
Q 45.90625 40.484375 42.875 44.328125 
Q 39.84375 48.1875 33.796875 48.1875 
Q 26.515625 48.1875 22.3125 43.546875 
Q 18.109375 38.921875 18.109375 30.90625 
L 18.109375 0 
L 9.078125 0 
L 9.078125 54.6875 
L 18.109375 54.6875 
L 18.109375 46.1875 
Q 21.34375 51.125 25.703125 53.5625 
Q 30.078125 56 35.796875 56 
Q 45.21875 56 50.046875 50.171875 
Q 54.890625 44.34375 54.890625 33.015625 
z
" id="DejaVuSans-110"/>
     <path d="M 30.609375 48.390625 
Q 23.390625 48.390625 19.1875 42.75 
Q 14.984375 37.109375 14.984375 27.296875 
Q 14.984375 17.484375 19.15625 11.84375 
Q 23.34375 6.203125 30.609375 6.203125 
Q 37.796875 6.203125 41.984375 11.859375 
Q 46.1875 17.53125 46.1875 27.296875 
Q 46.1875 37.015625 41.984375 42.703125 
Q 37.796875 48.390625 30.609375 48.390625 
z
M 30.609375 56 
Q 42.328125 56 49.015625 48.375 
Q 55.71875 40.765625 55.71875 27.296875 
Q 55.71875 13.875 49.015625 6.21875 
Q 42.328125 -1.421875 30.609375 -1.421875 
Q 18.84375 -1.421875 12.171875 6.21875 
Q 5.515625 13.875 5.515625 27.296875 
Q 5.515625 40.765625 12.171875 48.375 
Q 18.84375 56 30.609375 56 
z
" id="DejaVuSans-111"/>
     <path d="M 4.203125 54.6875 
L 13.1875 54.6875 
L 24.421875 12.015625 
L 35.59375 54.6875 
L 46.1875 54.6875 
L 57.421875 12.015625 
L 68.609375 54.6875 
L 77.59375 54.6875 
L 63.28125 0 
L 52.6875 0 
L 40.921875 44.828125 
L 29.109375 0 
L 18.5 0 
z
" id="DejaVuSans-119"/>
     <path d="M 10.59375 45.40625 
L 73.1875 45.40625 
L 73.1875 37.203125 
L 10.59375 37.203125 
z
M 10.59375 25.484375 
L 73.1875 25.484375 
L 73.1875 17.1875 
L 10.59375 17.1875 
z
" id="DejaVuSans-61"/>
     <path d="M 9.8125 72.90625 
L 51.703125 72.90625 
L 51.703125 64.59375 
L 19.671875 64.59375 
L 19.671875 43.109375 
L 48.578125 43.109375 
L 48.578125 34.8125 
L 19.671875 34.8125 
L 19.671875 0 
L 9.8125 0 
z
" id="DejaVuSans-70"/>
     <path d="M 34.28125 27.484375 
Q 23.390625 27.484375 19.1875 25 
Q 14.984375 22.515625 14.984375 16.5 
Q 14.984375 11.71875 18.140625 8.90625 
Q 21.296875 6.109375 26.703125 6.109375 
Q 34.1875 6.109375 38.703125 11.40625 
Q 43.21875 16.703125 43.21875 25.484375 
L 43.21875 27.484375 
z
M 52.203125 31.203125 
L 52.203125 0 
L 43.21875 0 
L 43.21875 8.296875 
Q 40.140625 3.328125 35.546875 0.953125 
Q 30.953125 -1.421875 24.3125 -1.421875 
Q 15.921875 -1.421875 10.953125 3.296875 
Q 6 8.015625 6 15.921875 
Q 6 25.140625 12.171875 29.828125 
Q 18.359375 34.515625 30.609375 34.515625 
L 43.21875 34.515625 
L 43.21875 35.40625 
Q 43.21875 41.609375 39.140625 45 
Q 35.0625 48.390625 27.6875 48.390625 
Q 23 48.390625 18.546875 47.265625 
Q 14.109375 46.140625 10.015625 43.890625 
L 10.015625 52.203125 
Q 14.9375 54.109375 19.578125 55.046875 
Q 24.21875 56 28.609375 56 
Q 40.484375 56 46.34375 49.84375 
Q 52.203125 43.703125 52.203125 31.203125 
z
" id="DejaVuSans-97"/>
     <path d="M 9.421875 75.984375 
L 18.40625 75.984375 
L 18.40625 0 
L 9.421875 0 
z
" id="DejaVuSans-108"/>
     <path d="M 19.671875 64.796875 
L 19.671875 8.109375 
L 31.59375 8.109375 
Q 46.6875 8.109375 53.6875 14.9375 
Q 60.6875 21.78125 60.6875 36.53125 
Q 60.6875 51.171875 53.6875 57.984375 
Q 46.6875 64.796875 31.59375 64.796875 
z
M 9.8125 72.90625 
L 30.078125 72.90625 
Q 51.265625 72.90625 61.171875 64.09375 
Q 71.09375 55.28125 71.09375 36.53125 
Q 71.09375 17.671875 61.125 8.828125 
Q 51.171875 0 30.078125 0 
L 9.8125 0 
z
" id="DejaVuSans-68"/>
     <path d="M 45.40625 27.984375 
Q 45.40625 37.75 41.375 43.109375 
Q 37.359375 48.484375 30.078125 48.484375 
Q 22.859375 48.484375 18.828125 43.109375 
Q 14.796875 37.75 14.796875 27.984375 
Q 14.796875 18.265625 18.828125 12.890625 
Q 22.859375 7.515625 30.078125 7.515625 
Q 37.359375 7.515625 41.375 12.890625 
Q 45.40625 18.265625 45.40625 27.984375 
z
M 54.390625 6.78125 
Q 54.390625 -7.171875 48.1875 -13.984375 
Q 42 -20.796875 29.203125 -20.796875 
Q 24.46875 -20.796875 20.265625 -20.09375 
Q 16.0625 -19.390625 12.109375 -17.921875 
L 12.109375 -9.1875 
Q 16.0625 -11.328125 19.921875 -12.34375 
Q 23.78125 -13.375 27.78125 -13.375 
Q 36.625 -13.375 41.015625 -8.765625 
Q 45.40625 -4.15625 45.40625 5.171875 
L 45.40625 9.625 
Q 42.625 4.78125 38.28125 2.390625 
Q 33.9375 0 27.875 0 
Q 17.828125 0 11.671875 7.65625 
Q 5.515625 15.328125 5.515625 27.984375 
Q 5.515625 40.671875 11.671875 48.328125 
Q 17.828125 56 27.875 56 
Q 33.9375 56 38.28125 53.609375 
Q 42.625 51.21875 45.40625 46.390625 
L 45.40625 54.6875 
L 54.390625 54.6875 
z
" id="DejaVuSans-103"/>
     <path d="M 41.109375 46.296875 
Q 39.59375 47.171875 37.8125 47.578125 
Q 36.03125 48 33.890625 48 
Q 26.265625 48 22.1875 43.046875 
Q 18.109375 38.09375 18.109375 28.8125 
L 18.109375 0 
L 9.078125 0 
L 9.078125 54.6875 
L 18.109375 54.6875 
L 18.109375 46.1875 
Q 20.953125 51.171875 25.484375 53.578125 
Q 30.03125 56 36.53125 56 
Q 37.453125 56 38.578125 55.875 
Q 39.703125 55.765625 41.0625 55.515625 
z
" id="DejaVuSans-114"/>
     <path d="M 9.421875 54.6875 
L 18.40625 54.6875 
L 18.40625 0 
L 9.421875 0 
z
M 9.421875 75.984375 
L 18.40625 75.984375 
L 18.40625 64.59375 
L 9.421875 64.59375 
z
" id="DejaVuSans-105"/>
     <path d="M 10.6875 12.40625 
L 21 12.40625 
L 21 0 
L 10.6875 0 
z
" id="DejaVuSans-46"/>
    </defs>
    <g transform="translate(45.924375 35.472)scale(0.12 -0.12)">
     <use xlink:href="#DejaVuSans-40"/>
     <use x="39.013672" xlink:href="#DejaVuSans-49"/>
     <use x="102.636719" xlink:href="#DejaVuSans-51"/>
     <use x="166.259766" xlink:href="#DejaVuSans-51"/>
     <use x="229.882812" xlink:href="#DejaVuSans-41"/>
     <use x="268.896484" xlink:href="#DejaVuSans-32"/>
     <use x="300.683594" xlink:href="#DejaVuSans-83"/>
     <use x="364.160156" xlink:href="#DejaVuSans-117"/>
     <use x="427.539062" xlink:href="#DejaVuSans-98"/>
     <use x="491.015625" xlink:href="#DejaVuSans-106"/>
     <use x="518.798828" xlink:href="#DejaVuSans-101"/>
     <use x="580.322266" xlink:href="#DejaVuSans-99"/>
     <use x="635.302734" xlink:href="#DejaVuSans-116"/>
     <use x="674.511719" xlink:href="#DejaVuSans-58"/>
     <use x="708.203125" xlink:href="#DejaVuSans-32"/>
     <use x="739.990234" xlink:href="#DejaVuSans-115"/>
     <use x="792.089844" xlink:href="#DejaVuSans-50"/>
     <use x="855.712891" xlink:href="#DejaVuSans-55"/>
     <use x="919.335938" xlink:href="#DejaVuSans-44"/>
     <use x="951.123047" xlink:href="#DejaVuSans-32"/>
     <use x="982.910156" xlink:href="#DejaVuSans-75"/>
     <use x="1048.486328" xlink:href="#DejaVuSans-110"/>
     <use x="1111.865234" xlink:href="#DejaVuSans-111"/>
     <use x="1173.046875" xlink:href="#DejaVuSans-119"/>
     <use x="1254.833984" xlink:href="#DejaVuSans-110"/>
     <use x="1318.212891" xlink:href="#DejaVuSans-32"/>
     <use x="1350" xlink:href="#DejaVuSans-61"/>
     <use x="1433.789062" xlink:href="#DejaVuSans-32"/>
     <use x="1465.576172" xlink:href="#DejaVuSans-70"/>
     <use x="1522.955078" xlink:href="#DejaVuSans-97"/>
     <use x="1584.234375" xlink:href="#DejaVuSans-108"/>
     <use x="1612.017578" xlink:href="#DejaVuSans-115"/>
     <use x="1664.117188" xlink:href="#DejaVuSans-101"/>
     <use x="1725.640625" xlink:href="#DejaVuSans-44"/>
     <use x="1757.427734" xlink:href="#DejaVuSans-32"/>
     <use x="1789.214844" xlink:href="#DejaVuSans-68"/>
     <use x="1866.216797" xlink:href="#DejaVuSans-101"/>
     <use x="1927.740234" xlink:href="#DejaVuSans-103"/>
     <use x="1991.216797" xlink:href="#DejaVuSans-114"/>
     <use x="2032.298828" xlink:href="#DejaVuSans-101"/>
     <use x="2093.822266" xlink:href="#DejaVuSans-101"/>
     <use x="2155.345703" xlink:href="#DejaVuSans-32"/>
     <use x="2187.132812" xlink:href="#DejaVuSans-61"/>
     <use x="2270.921875" xlink:href="#DejaVuSans-32"/>
     <use x="2302.708984" xlink:href="#DejaVuSans-49"/>
     <use x="2366.332031" xlink:href="#DejaVuSans-44"/>
     <use x="2398.119141" xlink:href="#DejaVuSans-32"/>
     <use x="2429.90625" xlink:href="#DejaVuSans-68"/>
     <use x="2506.908203" xlink:href="#DejaVuSans-117"/>
     <use x="2570.287109" xlink:href="#DejaVuSans-114"/>
     <use x="2611.400391" xlink:href="#DejaVuSans-97"/>
     <use x="2672.679688" xlink:href="#DejaVuSans-116"/>
     <use x="2711.888672" xlink:href="#DejaVuSans-105"/>
     <use x="2739.671875" xlink:href="#DejaVuSans-111"/>
     <use x="2800.853516" xlink:href="#DejaVuSans-110"/>
     <use x="2864.232422" xlink:href="#DejaVuSans-32"/>
     <use x="2896.019531" xlink:href="#DejaVuSans-61"/>
     <use x="2979.808594" xlink:href="#DejaVuSans-32"/>
     <use x="3011.595703" xlink:href="#DejaVuSans-48"/>
     <use x="3075.21875" xlink:href="#DejaVuSans-46"/>
     <use x="3107.005859" xlink:href="#DejaVuSans-49"/>
    </g>
   </g>
  </g>
 </g>
 <defs>
  <clipPath id="p32824b18f0">
   <rect height="266.112" width="357.12" x="57.6" y="41.472"/>
  </clipPath>
 </defs>
</svg>
