<?xml version="1.0" encoding="utf-8" standalone="no"?>
<!DOCTYPE svg PUBLIC "-//W3C//DTD SVG 1.1//EN"
  "http://www.w3.org/Graphics/SVG/1.1/DTD/svg11.dtd">
<!-- Created with matplotlib (https://matplotlib.org/) -->
<svg height="345.6pt" version="1.1" viewBox="0 0 460.8 345.6" width="460.8pt" xmlns="http://www.w3.org/2000/svg" xmlns:xlink="http://www.w3.org/1999/xlink">
 <defs>
  <style type="text/css">
*{stroke-linecap:butt;stroke-linejoin:round;}
  </style>
 </defs>
 <g id="figure_1">
  <g id="patch_1">
   <path d="M 0 345.6 
L 460.8 345.6 
L 460.8 0 
L 0 0 
z
" style="fill:#ffffff;"/>
  </g>
  <g id="axes_1">
   <g id="patch_2">
    <path d="M 57.6 307.584 
L 414.72 307.584 
L 414.72 41.472 
L 57.6 41.472 
z
" style="fill:#ffffff;"/>
   </g>
   <g id="line2d_1">
    <path clip-path="url(#p0aee2c2c52)" d="M 135.305484 295.488 
L 134.345437 294.636654 
L 134.662153 294.848907 
L 135.305484 294.848907 
L 135.938918 295.063493 
L 135.938918 295.063493 
L 136.582249 294.636654 
L 136.908863 294.636654 
L 135.938918 294.636654 
L 135.305484 294.422068 
L 135.305484 294.209814 
L 136.265532 293.997561 
L 137.22558 293.997561 
L 137.868911 294.422068 
L 137.868911 294.422068 
L 137.868911 294.209814 
L 138.185628 293.782975 
L 138.502345 293.782975 
L 138.502345 293.997561 
L 138.828959 294.209814 
L 139.462393 293.782975 
L 138.502345 293.143882 
L 139.145676 293.143882 
L 138.828959 293.782975 
L 138.185628 294.422068 
L 138.185628 294.209814 
L 139.145676 293.782975 
L 139.462393 293.356135 
L 139.462393 293.143882 
L 138.828959 293.143882 
L 140.105724 292.292535 
L 140.422441 292.717042 
L 140.105724 292.931628 
L 138.502345 292.931628 
L 139.462393 293.356135 
L 140.105724 293.782975 
L 140.422441 293.782975 
L 141.065772 292.931628 
L 139.145676 292.292535 
L 139.462393 291.865696 
L 140.105724 291.865696 
L 139.789007 291.865696 
L 139.462393 292.077949 
L 139.789007 292.292535 
L 140.105724 292.292535 
L 140.105724 291.865696 
L 139.789007 291.65111 
L 140.422441 291.65111 
L 140.422441 291.226603 
L 140.105724 291.012017 
L 140.105724 291.012017 
L 140.422441 291.012017 
L 140.422441 290.799764 
L 140.105724 290.372924 
L 140.105724 290.160671 
L 141.065772 289.733831 
L 141.382489 289.306992 
L 141.065772 288.880152 
L 139.462393 289.521578 
L 140.105724 289.094738 
L 140.749055 288.667899 
L 140.749055 288.880152 
L 140.422441 289.094738 
L 139.789007 288.880152 
L 139.789007 288.667899 
L 141.065772 288.667899 
L 141.065772 288.455645 
L 140.749055 288.028806 
L 142.669151 287.389713 
L 142.669151 287.175127 
L 142.342537 286.75062 
L 142.02582 286.536034 
L 142.02582 286.109195 
L 142.985868 285.684688 
L 142.02582 285.257848 
L 140.749055 285.045595 
L 140.749055 285.045595 
L 140.749055 284.831009 
L 142.342537 284.404169 
L 142.342537 284.191916 
L 142.02582 283.979662 
L 141.382489 283.765076 
L 141.065772 283.340569 
L 141.382489 283.125983 
L 142.342537 283.125983 
L 142.342537 282.91373 
L 141.709103 282.060051 
L 141.709103 281.847798 
L 141.382489 281.847798 
L 141.065772 282.060051 
L 142.02582 282.060051 
L 142.669151 281.633212 
L 142.669151 281.208705 
L 142.669151 281.847798 
L 142.342537 281.633212 
L 142.669151 281.208705 
L 142.669151 280.355026 
L 142.985868 280.142772 
L 143.302584 280.142772 
L 142.985868 280.142772 
L 141.709103 279.715933 
L 141.709103 279.289093 
L 142.342537 278.862254 
L 142.669151 278.862254 
L 142.342537 278.862254 
L 142.669151 278.65 
L 143.945915 278.437747 
L 143.302584 278.65 
L 142.669151 278.65 
L 142.985868 278.437747 
L 143.302584 278.010907 
L 143.302584 277.798654 
L 143.629199 277.371815 
L 143.629199 277.584068 
L 143.302584 277.798654 
L 142.342537 277.584068 
L 142.02582 277.157229 
L 142.985868 276.944975 
L 142.342537 276.944975 
L 142.02582 276.518136 
L 142.342537 276.093629 
L 142.669151 275.879043 
L 142.985868 276.093629 
L 142.985868 276.732722 
L 143.302584 276.944975 
L 144.589247 276.305882 
L 144.27253 276.518136 
L 143.629199 276.518136 
L 143.629199 276.305882 
L 144.27253 275.879043 
L 144.589247 275.452203 
L 143.945915 275.452203 
L 143.302584 275.027696 
L 143.945915 274.174017 
L 143.945915 274.174017 
L 143.302584 274.600857 
L 143.302584 274.600857 
L 143.629199 274.81311 
L 143.629199 274.600857 
L 143.302584 274.386271 
L 143.302584 274.600857 
L 143.629199 275.027696 
L 143.945915 274.81311 
L 143.945915 273.961764 
L 143.302584 273.322671 
L 143.302584 273.108085 
L 143.945915 273.534924 
L 143.945915 273.961764 
L 143.945915 273.961764 
L 144.589247 273.747178 
L 145.232578 273.322671 
L 145.232578 273.108085 
L 144.905963 273.108085 
L 144.905963 273.322671 
L 144.905963 273.322671 
L 143.945915 271.615313 
L 142.985868 271.829899 
L 143.302584 271.829899 
L 144.905963 271.615313 
L 146.192626 272.042153 
L 145.866011 272.468992 
L 144.905963 272.468992 
L 144.27253 272.256739 
L 143.945915 272.468992 
L 143.629199 272.468992 
L 143.302584 272.256739 
L 143.945915 272.042153 
L 144.27253 272.256739 
L 144.27253 272.681246 
L 143.945915 273.108085 
L 143.629199 273.108085 
L 143.629199 272.895832 
L 144.27253 272.468992 
L 144.905963 272.256739 
L 143.629199 271.40306 
L 144.589247 270.763967 
L 145.549294 270.337127 
L 144.905963 270.337127 
L 142.985868 270.124874 
L 142.02582 269.698034 
L 141.382489 269.271195 
L 141.382489 268.846688 
L 140.749055 268.205263 
L 139.462393 267.353916 
L 136.265532 266.287984 
L 132.425341 265.434305 
L 128.901866 264.156119 
L 125.378391 262.23884 
L 121.5382 260.533815 
L 117.371394 259.253297 
L 110.007728 257.548271 
L 106.167536 256.482339 
L 101.367297 255.416407 
L 96.240443 254.138221 
L 91.440204 252.645449 
L 87.600012 251.581849 
L 84.719868 250.515917 
L 79.909731 248.169466 
L 74.149444 243.05439 
L 73.832727 241.776204 
L 73.832727 240.922525 
L 74.149444 240.710272 
L 74.466161 241.137111 
L 74.466161 241.137111 
L 74.792775 240.710272 
L 74.792775 240.498018 
L 75.752823 240.498018 
L 76.386257 241.349365 
L 77.672919 241.349365 
L 78.632967 241.137111 
L 77.989636 241.137111 
L 76.06954 241.563951 
L 76.386257 241.988458 
L 77.672919 242.203044 
L 77.989636 242.415297 
L 78.31625 242.415297 
L 78.31625 242.627551 
L 78.632967 242.627551 
L 78.632967 242.842136 
L 78.632967 242.842136 
L 78.31625 242.627551 
L 77.989636 242.203044 
L 77.989636 242.203044 
L 78.632967 242.415297 
L 79.909731 242.415297 
L 79.909731 241.988458 
L 79.593015 241.349365 
L 79.276298 241.137111 
L 79.593015 241.137111 
L 79.909731 240.922525 
L 80.236346 240.922525 
L 80.236346 241.349365 
L 80.553063 241.349365 
L 80.553063 240.498018 
L 80.869779 240.710272 
L 81.51311 240.710272 
L 81.51311 240.498018 
L 80.553063 239.858925 
L 80.236346 240.071179 
L 80.553063 239.858925 
L 80.553063 239.644339 
L 80.236346 239.432086 
L 80.553063 239.2175 
L 80.236346 239.644339 
L 80.553063 240.071179 
L 82.156441 240.710272 
L 82.156441 240.283432 
L 81.51311 240.071179 
L 82.156441 240.071179 
L 83.116489 240.283432 
L 83.116489 240.498018 
L 82.156441 240.498018 
L 81.829827 240.710272 
L 82.473158 240.710272 
L 83.116489 240.498018 
L 83.116489 240.283432 
L 83.116489 240.283432 
L 82.789875 240.071179 
L 83.116489 239.644339 
L 84.076537 239.644339 
L 84.719868 240.071179 
L 85.036585 240.071179 
L 84.393254 239.644339 
L 83.433206 239.644339 
L 82.789875 240.498018 
L 83.116489 240.283432 
L 83.116489 239.644339 
L 82.789875 239.432086 
L 82.789875 239.005246 
L 82.473158 239.005246 
L 83.75982 239.858925 
L 84.076537 239.858925 
L 84.076537 239.644339 
L 83.75982 239.432086 
L 83.75982 239.432086 
L 84.719868 239.858925 
L 84.393254 240.071179 
L 83.433206 240.283432 
L 83.433206 240.283432 
L 83.75982 240.071179 
L 83.433206 240.071179 
L 83.433206 240.283432 
L 84.393254 239.858925 
L 84.393254 238.792993 
L 84.719868 238.578407 
L 85.036585 239.005246 
L 85.036585 239.2175 
L 84.393254 239.432086 
L 84.393254 239.2175 
L 85.996633 237.512475 
L 86.31335 236.661128 
L 85.679916 235.807449 
L 85.353302 234.31701 
L 86.639964 232.185145 
L 88.233446 230.05328 
L 94.963678 223.233179 
L 97.527105 220.035382 
L 100.407249 217.052171 
L 104.24744 214.066627 
L 108.087632 210.656577 
L 111.611107 207.246526 
L 115.768015 203.836475 
L 120.578152 200.638678 
L 125.378391 197.016374 
L 130.178631 193.179484 
L 142.985868 182.095653 
L 150.992865 175.060966 
L 154.189725 171.650916 
L 156.753152 168.667704 
L 159.633296 165.896747 
L 162.51344 162.911203 
L 164.116819 159.501152 
L 165.720198 155.664262 
L 167.640293 151.829705 
L 170.520437 148.631908 
L 173.400581 145.648696 
L 175.647291 142.663153 
L 177.25067 139.465356 
L 177.884103 136.269891 
L 178.844151 133.498933 
L 180.130813 130.940229 
L 181.724295 128.596111 
L 183.010957 126.251993 
L 183.327674 124.332381 
L 185.574384 120.922331 
L 187.167865 119.217306 
L 190.374623 114.953576 
L 192.611436 111.543525 
L 193.254767 109.8385 
L 194.214815 108.348061 
L 195.174863 107.067542 
L 196.461525 105.150264 
L 197.421573 104.296585 
L 197.73829 104.723424 
L 197.421573 105.577103 
L 197.421573 106.216196 
L 198.381621 106.216196 
L 199.341669 105.789357 
L 200.301716 105.150264 
L 200.618433 105.362517 
L 200.301716 105.577103 
L 199.658385 104.723424 
L 199.658385 104.296585 
L 199.341669 104.296585 
L 199.341669 104.084331 
L 199.975102 103.657492 
L 200.301716 103.230652 
L 200.301716 103.230652 
L 200.618433 103.018399 
L 200.93515 102.591559 
L 201.895198 102.379306 
L 202.855246 102.379306 
L 203.18186 102.167052 
L 202.855246 102.167052 
L 203.18186 101.952466 
L 202.855246 101.740213 
L 202.538529 101.313374 
L 202.855246 101.10112 
L 203.18186 101.10112 
L 203.18186 100.886534 
L 203.18186 100.886534 
L 203.825191 100.886534 
L 205.745287 100.459695 
L 204.785239 100.247441 
L 202.855246 100.459695 
L 202.221812 100.886534 
L 202.855246 101.10112 
L 203.498577 100.886534 
L 203.498577 100.459695 
L 202.855246 100.247441 
L 202.855246 100.674281 
L 203.18186 101.10112 
L 203.825191 101.10112 
L 204.458625 100.886534 
L 204.458625 100.674281 
L 204.141908 100.247441 
L 203.498577 100.035188 
L 203.498577 100.035188 
L 203.498577 100.247441 
L 203.498577 100.247441 
L 203.18186 100.459695 
L 203.498577 100.459695 
L 204.458625 100.247441 
L 205.745287 100.247441 
L 206.705335 100.035188 
L 206.705335 100.035188 
L 206.378721 100.459695 
L 205.418673 100.886534 
L 204.458625 101.10112 
L 203.825191 100.886534 
L 204.141908 100.886534 
L 205.745287 100.886534 
L 206.378721 100.674281 
L 206.378721 100.674281 
L 206.705335 100.886534 
L 206.378721 100.674281 
L 206.062004 100.247441 
L 205.101956 100.247441 
L 204.785239 100.674281 
L 205.101956 101.10112 
L 206.378721 100.674281 
L 206.062004 100.674281 
L 206.378721 100.886534 
L 206.705335 100.886534 
L 206.378721 101.10112 
L 206.062004 101.10112 
L 206.705335 101.10112 
L 206.378721 101.10112 
L 207.338768 100.459695 
L 206.378721 101.10112 
L 206.378721 100.674281 
L 205.418673 100.886534 
L 206.705335 99.608348 
L 207.665383 99.820602 
L 207.9821 100.247441 
L 207.9821 100.459695 
L 207.022052 100.459695 
L 207.338768 100.674281 
L 207.338768 101.525627 
L 206.705335 101.740213 
L 206.705335 101.952466 
L 206.705335 101.313374 
L 207.338768 100.886534 
L 207.022052 100.459695 
L 206.378721 100.459695 
L 206.705335 100.674281 
L 207.338768 100.886534 
L 206.705335 101.10112 
L 206.062004 101.10112 
L 206.062004 101.313374 
L 205.418673 101.313374 
L 207.022052 101.313374 
L 207.022052 101.10112 
L 207.022052 101.10112 
L 207.338768 100.886534 
L 207.9821 100.886534 
L 205.745287 101.525627 
L 204.785239 101.740213 
L 205.418673 101.740213 
L 207.338768 101.525627 
L 206.705335 101.525627 
L 206.062004 101.952466 
L 206.378721 102.167052 
L 207.022052 102.167052 
L 207.022052 101.740213 
L 206.378721 101.313374 
L 206.378721 101.10112 
L 207.022052 101.313374 
L 207.338768 101.740213 
L 207.338768 101.952466 
L 207.338768 101.740213 
L 207.022052 101.952466 
L 206.378721 102.167052 
L 206.378721 102.379306 
L 206.378721 102.379306 
L 206.062004 102.591559 
L 206.378721 102.591559 
L 206.378721 102.379306 
L 205.745287 102.806145 
L 205.418673 103.230652 
L 205.745287 103.445238 
L 206.705335 103.230652 
L 207.022052 102.591559 
L 206.705335 102.379306 
L 206.378721 102.591559 
L 206.378721 102.806145 
L 207.022052 103.018399 
L 207.338768 103.445238 
L 207.022052 103.872078 
L 206.705335 103.872078 
L 206.062004 103.657492 
L 206.062004 103.445238 
L 206.378721 103.445238 
L 206.705335 103.657492 
L 206.378721 104.084331 
L 205.745287 104.084331 
L 207.022052 103.872078 
L 206.705335 104.084331 
L 206.705335 104.511171 
L 207.022052 104.296585 
L 207.022052 104.084331 
L 206.378721 104.084331 
L 205.418673 103.657492 
L 204.141908 103.230652 
L 202.538529 103.018399 
L 200.618433 102.591559 
L 198.381621 101.525627 
L 194.858146 98.754669 
L 192.294719 97.688737 
L 185.891101 94.278686 
L 183.010957 92.149154 
L 180.130813 89.59045 
L 176.924055 87.246332 
L 173.083864 85.32672 
L 170.520437 83.194856 
L 167.95701 78.933459 
L 166.036914 76.801594 
L 163.483385 75.096569 
L 161.236675 72.964704 
L 159.633296 71.259678 
L 158.356531 69.554653 
L 156.753152 67.849628 
L 155.793104 66.356856 
L 154.51634 64.651831 
L 151.636196 61.880873 
L 149.706203 60.814941 
L 145.232578 58.685408 
L 144.27253 57.619476 
L 142.985868 54.207093 
L 142.02582 53.568 
L 142.342537 53.782586 
L 142.669151 54.207093 
L 142.342537 54.633932 
L 142.985868 55.060772 
L 145.549294 55.060772 
L 145.866011 55.273025 
L 144.905963 55.487611 
L 144.589247 55.914451 
L 144.589247 55.914451 
L 145.549294 55.699865 
L 145.549294 55.487611 
L 144.905963 55.487611 
L 144.27253 55.699865 
L 144.905963 56.978051 
L 144.905963 56.978051 
L 144.589247 56.765797 
L 144.27253 56.978051 
L 144.589247 57.40489 
L 144.905963 57.40489 
L 145.232578 57.192637 
L 145.549294 56.765797 
L 145.866011 56.765797 
L 145.866011 57.192637 
L 145.549294 57.40489 
L 145.549294 57.619476 
L 145.232578 57.40489 
L 144.905963 56.978051 
L 144.905963 56.765797 
L 144.905963 56.765797 
L 144.27253 57.192637 
L 143.945915 57.619476 
L 143.629199 57.831729 
L 143.302584 57.831729 
L 143.945915 57.831729 
L 144.905963 58.043983 
L 145.549294 57.831729 
L 144.905963 56.978051 
L 144.27253 57.192637 
L 143.945915 57.831729 
L 144.27253 57.40489 
L 144.905963 56.978051 
L 145.549294 57.192637 
L 145.866011 57.831729 
L 144.27253 58.470822 
L 144.27253 58.470822 
L 144.589247 58.258569 
L 144.589247 58.043983 
L 144.589247 58.685408 
L 143.302584 59.324501 
L 143.945915 59.749008 
L 144.27253 59.749008 
L 143.629199 59.749008 
L 143.302584 60.175848 
L 143.302584 60.390434 
L 143.302584 60.390434 
L 144.27253 60.390434 
L 144.27253 60.390434 
L 145.232578 61.029527 
L 145.232578 61.24178 
L 145.549294 61.029527 
L 144.27253 61.029527 
L 143.302584 60.814941 
L 142.985868 60.602687 
L 143.629199 60.390434 
L 143.945915 59.963594 
L 144.905963 59.963594 
L 144.905963 60.175848 
L 143.945915 60.390434 
L 143.302584 60.814941 
L 143.302584 61.029527 
L 143.945915 61.24178 
L 144.589247 61.24178 
L 144.589247 61.454034 
L 144.27253 61.454034 
L 143.945915 61.880873 
L 143.302584 62.095459 
L 143.302584 62.307712 
L 144.27253 61.029527 
L 144.27253 60.814941 
L 144.589247 61.029527 
L 144.905963 61.454034 
L 144.27253 61.880873 
L 143.945915 61.880873 
L 143.945915 62.095459 
L 144.905963 62.734552 
L 144.905963 62.519966 
L 144.589247 62.307712 
L 144.589247 62.307712 
L 144.27253 62.307712 
L 144.27253 62.095459 
L 144.589247 62.095459 
L 143.629199 62.734552 
L 143.629199 63.585898 
L 143.302584 63.800484 
L 143.302584 63.585898 
L 143.945915 63.161391 
L 144.589247 63.373645 
L 144.27253 63.373645 
L 144.27253 62.946805 
L 143.945915 62.946805 
L 142.342537 63.585898 
L 143.945915 64.012738 
L 144.905963 64.224991 
L 144.27253 64.224991 
L 142.02582 63.800484 
L 142.02582 63.373645 
L 142.669151 63.161391 
L 143.302584 63.585898 
L 143.302584 63.800484 
L 142.669151 63.800484 
L 142.02582 63.585898 
L 142.342537 63.800484 
L 142.985868 64.224991 
L 143.302584 64.651831 
L 143.945915 64.866417 
L 144.905963 64.866417 
L 144.905963 65.07867 
L 144.27253 64.866417 
L 143.945915 64.439577 
L 143.629199 63.800484 
L 143.629199 63.373645 
L 143.629199 63.585898 
L 143.945915 63.585898 
L 143.945915 64.012738 
L 142.342537 65.07867 
L 143.629199 64.224991 
L 144.27253 64.439577 
L 144.27253 65.07867 
L 143.629199 65.07867 
L 142.985868 64.866417 
L 143.302584 64.651831 
L 142.985868 64.866417 
L 143.302584 64.866417 
L 143.945915 65.07867 
L 143.302584 64.866417 
L 142.342537 65.07867 
L 142.02582 65.290924 
L 142.02582 65.50551 
L 144.27253 65.50551 
L 144.905963 65.717763 
L 144.27253 66.356856 
L 143.302584 66.144603 
L 142.985868 65.717763 
L 143.302584 65.717763 
L 143.945915 66.144603 
L 144.27253 66.571442 
L 143.945915 66.144603 
L 143.629199 65.290924 
L 143.302584 64.866417 
L 143.629199 65.290924 
L 143.629199 65.932349 
L 142.985868 66.571442 
L 142.985868 66.783695 
L 143.629199 66.783695 
L 143.945915 66.995949 
L 143.945915 67.210535 
L 144.27253 66.995949 
L 144.589247 66.571442 
L 142.985868 66.571442 
L 142.985868 66.995949 
L 143.302584 66.995949 
L 143.302584 66.995949 
L 143.302584 67.210535 
L 142.669151 67.422788 
L 142.342537 67.210535 
L 142.669151 66.783695 
L 143.629199 66.571442 
L 143.945915 66.995949 
L 142.985868 67.637374 
L 142.02582 68.061881 
L 141.709103 68.061881 
L 142.669151 68.061881 
L 143.302584 68.276467 
L 143.302584 68.276467 
L 142.669151 67.422788 
L 142.02582 67.637374 
L 141.709103 68.061881 
L 141.709103 67.849628 
L 142.342537 67.422788 
L 142.669151 67.422788 
L 142.985868 67.849628 
L 142.669151 68.061881 
L 142.669151 68.488721 
L 142.985868 68.488721 
L 142.985868 67.849628 
L 142.669151 67.637374 
L 142.669151 67.637374 
L 142.342537 67.849628 
L 142.985868 67.849628 
L 144.27253 68.700974 
L 144.27253 69.3424 
L 143.945915 69.3424 
L 143.302584 68.488721 
L 142.985868 68.488721 
L 142.669151 68.276467 
L 142.342537 68.488721 
L 142.669151 68.700974 
L 143.629199 68.91556 
L 143.945915 69.127814 
L 143.302584 69.127814 
L 142.985868 69.3424 
L 143.302584 69.127814 
L 142.985868 69.127814 
L 142.342537 69.3424 
L 142.342537 69.766907 
L 142.985868 69.981493 
L 142.985868 69.554653 
L 143.302584 69.127814 
L 143.629199 69.127814 
L 142.985868 69.3424 
L 141.382489 69.3424 
L 141.709103 69.766907 
L 142.02582 69.981493 
L 142.02582 69.981493 
L 141.709103 69.981493 
L 142.342537 69.554653 
L 142.342537 69.127814 
L 142.02582 69.127814 
L 142.342537 69.3424 
L 143.302584 69.766907 
L 142.985868 70.193746 
L 143.302584 70.193746 
L 143.629199 69.981493 
L 143.629199 69.766907 
L 142.342537 70.193746 
L 141.709103 69.981493 
L 141.709103 69.3424 
L 142.02582 69.127814 
L 142.342537 69.554653 
L 142.342537 69.981493 
L 142.669151 69.981493 
L 142.669151 69.554653 
L 142.985868 69.127814 
L 143.302584 69.3424 
L 144.27253 69.554653 
L 145.232578 69.554653 
L 146.192626 69.3424 
L 147.152673 68.91556 
L 148.429438 68.488721 
L 150.349534 68.276467 
L 153.556292 68.276467 
L 156.753152 68.061881 
L 159.95991 68.488721 
L 163.483385 68.700974 
L 167.95701 68.700974 
L 173.083864 68.91556 
L 178.210718 70.193746 
L 183.327674 71.686518 
L 188.127913 72.325611 
L 192.294719 72.75245 
L 197.094959 73.391543 
L 207.022052 75.096569 
L 217.265862 76.801594 
L 222.392715 77.228433 
L 233.91329 77.655273 
L 239.683475 78.718873 
L 251.204049 81.277577 
L 257.290951 82.982602 
L 263.051238 85.114467 
L 269.13814 87.885425 
L 274.58171 91.295475 
L 279.698667 94.920112 
L 285.142237 98.542416 
L 290.585808 101.952466 
L 296.355992 104.935678 
L 301.789666 108.348061 
L 307.233236 111.970365 
L 312.043373 115.380415 
L 317.160329 118.151373 
L 322.287183 120.710077 
L 332.214276 126.037407 
L 338.29128 129.235204 
L 344.694899 133.498933 
L 350.7818 138.401756 
L 353.978661 140.319035 
L 357.502135 142.236313 
L 362.945706 147.139136 
L 365.82585 148.844161 
L 367.429229 150.336933 
L 368.07256 152.681051 
L 368.389276 154.812916 
L 369.349324 156.305688 
L 370.635986 157.796127 
L 371.596034 159.501152 
L 371.912751 161.206178 
L 372.556082 162.69895 
L 373.832847 164.830814 
L 374.149564 165.896747 
L 373.51613 167.814026 
L 372.872799 168.667704 
L 372.872799 169.94589 
L 373.189516 171.011823 
L 374.149564 171.865502 
L 375.109612 172.077755 
L 375.436226 172.504594 
L 375.436226 173.78278 
L 375.109612 174.636459 
L 375.109612 176.126899 
L 375.436226 176.126899 
L 376.079557 176.553738 
L 376.396274 177.192831 
L 376.396274 178.897856 
L 377.039605 179.324696 
L 377.673039 180.176042 
L 377.673039 180.602882 
L 377.039605 181.029721 
L 377.039605 180.390628 
L 377.673039 180.176042 
L 378.31637 180.602882 
L 378.633086 181.241974 
L 378.633086 181.029721 
L 379.276418 180.390628 
L 379.919749 179.963789 
L 379.593134 180.176042 
L 379.276418 180.817468 
L 378.959701 181.029721 
L 379.276418 181.029721 
L 379.276418 181.241974 
L 379.276418 181.241974 
L 379.919749 181.029721 
L 380.236465 181.241974 
L 380.236465 181.668814 
L 381.51323 180.817468 
L 382.156561 180.602882 
L 382.799892 181.029721 
L 383.116609 181.8834 
L 382.799892 181.668814 
L 382.799892 181.029721 
L 383.116609 181.029721 
L 383.443223 180.817468 
L 384.719988 180.602882 
L 384.719988 180.602882 
L 384.076657 180.390628 
L 384.076657 179.963789 
L 385.363319 179.751535 
L 385.680036 179.963789 
L 385.680036 180.176042 
L 385.680036 180.176042 
L 386.640084 179.963789 
L 387.283415 180.176042 
L 387.600132 180.602882 
L 387.916849 180.602882 
L 387.600132 180.602882 
L 387.283415 180.390628 
L 386.956801 180.390628 
L 386.640084 180.176042 
L 387.283415 179.963789 
L 388.886794 179.963789 
L 387.916849 179.963789 
L 388.243463 179.751535 
L 389.846842 179.112442 
L 389.846842 178.897856 
L 389.203511 178.897856 
L 388.886794 179.324696 
L 388.886794 180.176042 
L 388.886794 180.176042 
L 389.846842 180.390628 
L 390.80689 180.176042 
L 391.123606 179.963789 
L 390.163559 179.751535 
L 390.480275 179.324696 
L 390.80689 178.471017 
L 390.480275 178.04651 
L 390.163559 178.04651 
L 390.480275 177.831924 
L 390.480275 177.405084 
L 391.440323 178.04651 
L 392.726985 177.831924 
L 392.400371 177.831924 
L 392.083654 178.04651 
L 392.726985 177.61967 
L 392.726985 177.405084 
L 392.400371 177.405084 
L 392.726985 177.61967 
L 393.687033 177.61967 
L 394.320467 177.405084 
L 394.00375 176.765991 
L 393.360419 176.341485 
L 393.360419 176.126899 
L 393.687033 175.914645 
L 394.00375 175.914645 
L 394.00375 176.126899 
L 393.687033 176.553738 
L 393.687033 175.275552 
L 394.00375 175.275552 
L 394.647081 175.487806 
L 394.647081 175.275552 
L 394.963798 174.848713 
L 394.963798 174.421873 
L 395.923846 174.421873 
L 397.210508 173.995034 
L 396.883894 173.995034 
L 396.25046 173.995034 
L 396.25046 173.78278 
L 396.567177 173.570527 
L 396.567177 173.143687 
L 397.210508 172.929101 
L 396.883894 172.716848 
L 395.923846 172.929101 
L 395.923846 173.143687 
L 396.567177 173.143687 
L 396.25046 172.929101 
L 395.923846 172.290009 
L 396.567177 171.650916 
L 396.883894 171.865502 
L 397.210508 172.290009 
L 397.210508 172.716848 
L 397.843942 172.929101 
L 397.843942 172.077755 
L 397.527225 171.650916 
L 397.843942 171.224076 
L 398.170556 170.584983 
L 398.487273 170.37273 
L 398.487273 170.584983 
L 398.170556 170.584983 
L 397.843942 170.37273 
L 397.210508 170.158144 
L 397.210508 170.37273 
L 397.843942 170.158144 
L 397.527225 170.158144 
" style="fill:none;stroke:#1f77b4;stroke-linecap:square;stroke-width:1.5;"/>
   </g>
   <g id="matplotlib.axis_1">
    <g id="xtick_1">
     <g id="line2d_2">
      <defs>
       <path d="M 0 0 
L 0 3.5 
" id="ma87840f898" style="stroke:#000000;stroke-width:0.8;"/>
      </defs>
      <g>
       <use style="stroke:#000000;stroke-width:0.8;" x="104.346414" xlink:href="#ma87840f898" y="307.584"/>
      </g>
     </g>
     <g id="text_1">
      <!-- −150 -->
      <defs>
       <path d="M 10.59375 35.5 
L 73.1875 35.5 
L 73.1875 27.203125 
L 10.59375 27.203125 
z
" id="DejaVuSans-8722"/>
       <path d="M 12.40625 8.296875 
L 28.515625 8.296875 
L 28.515625 63.921875 
L 10.984375 60.40625 
L 10.984375 69.390625 
L 28.421875 72.90625 
L 38.28125 72.90625 
L 38.28125 8.296875 
L 54.390625 8.296875 
L 54.390625 0 
L 12.40625 0 
z
" id="DejaVuSans-49"/>
       <path d="M 10.796875 72.90625 
L 49.515625 72.90625 
L 49.515625 64.59375 
L 19.828125 64.59375 
L 19.828125 46.734375 
Q 21.96875 47.46875 24.109375 47.828125 
Q 26.265625 48.1875 28.421875 48.1875 
Q 40.625 48.1875 47.75 41.5 
Q 54.890625 34.8125 54.890625 23.390625 
Q 54.890625 11.625 47.5625 5.09375 
Q 40.234375 -1.421875 26.90625 -1.421875 
Q 22.3125 -1.421875 17.546875 -0.640625 
Q 12.796875 0.140625 7.71875 1.703125 
L 7.71875 11.625 
Q 12.109375 9.234375 16.796875 8.0625 
Q 21.484375 6.890625 26.703125 6.890625 
Q 35.15625 6.890625 40.078125 11.328125 
Q 45.015625 15.765625 45.015625 23.390625 
Q 45.015625 31 40.078125 35.4375 
Q 35.15625 39.890625 26.703125 39.890625 
Q 22.75 39.890625 18.8125 39.015625 
Q 14.890625 38.140625 10.796875 36.28125 
z
" id="DejaVuSans-53"/>
       <path d="M 31.78125 66.40625 
Q 24.171875 66.40625 20.328125 58.90625 
Q 16.5 51.421875 16.5 36.375 
Q 16.5 21.390625 20.328125 13.890625 
Q 24.171875 6.390625 31.78125 6.390625 
Q 39.453125 6.390625 43.28125 13.890625 
Q 47.125 21.390625 47.125 36.375 
Q 47.125 51.421875 43.28125 58.90625 
Q 39.453125 66.40625 31.78125 66.40625 
z
M 31.78125 74.21875 
Q 44.046875 74.21875 50.515625 64.515625 
Q 56.984375 54.828125 56.984375 36.375 
Q 56.984375 17.96875 50.515625 8.265625 
Q 44.046875 -1.421875 31.78125 -1.421875 
Q 19.53125 -1.421875 13.0625 8.265625 
Q 6.59375 17.96875 6.59375 36.375 
Q 6.59375 54.828125 13.0625 64.515625 
Q 19.53125 74.21875 31.78125 74.21875 
z
" id="DejaVuSans-48"/>
      </defs>
      <g transform="translate(90.612821 322.182437)scale(0.1 -0.1)">
       <use xlink:href="#DejaVuSans-8722"/>
       <use x="83.789062" xlink:href="#DejaVuSans-49"/>
       <use x="147.412109" xlink:href="#DejaVuSans-53"/>
       <use x="211.035156" xlink:href="#DejaVuSans-48"/>
      </g>
     </g>
    </g>
    <g id="xtick_2">
     <g id="line2d_3">
      <g>
       <use style="stroke:#000000;stroke-width:0.8;" x="153.833419" xlink:href="#ma87840f898" y="307.584"/>
      </g>
     </g>
     <g id="text_2">
      <!-- −100 -->
      <g transform="translate(140.099825 322.182437)scale(0.1 -0.1)">
       <use xlink:href="#DejaVuSans-8722"/>
       <use x="83.789062" xlink:href="#DejaVuSans-49"/>
       <use x="147.412109" xlink:href="#DejaVuSans-48"/>
       <use x="211.035156" xlink:href="#DejaVuSans-48"/>
      </g>
     </g>
    </g>
    <g id="xtick_3">
     <g id="line2d_4">
      <g>
       <use style="stroke:#000000;stroke-width:0.8;" x="203.320424" xlink:href="#ma87840f898" y="307.584"/>
      </g>
     </g>
     <g id="text_3">
      <!-- −50 -->
      <g transform="translate(192.76808 322.182437)scale(0.1 -0.1)">
       <use xlink:href="#DejaVuSans-8722"/>
       <use x="83.789062" xlink:href="#DejaVuSans-53"/>
       <use x="147.412109" xlink:href="#DejaVuSans-48"/>
      </g>
     </g>
    </g>
    <g id="xtick_4">
     <g id="line2d_5">
      <g>
       <use style="stroke:#000000;stroke-width:0.8;" x="252.807428" xlink:href="#ma87840f898" y="307.584"/>
      </g>
     </g>
     <g id="text_4">
      <!-- 0 -->
      <g transform="translate(249.626178 322.182437)scale(0.1 -0.1)">
       <use xlink:href="#DejaVuSans-48"/>
      </g>
     </g>
    </g>
    <g id="xtick_5">
     <g id="line2d_6">
      <g>
       <use style="stroke:#000000;stroke-width:0.8;" x="302.294433" xlink:href="#ma87840f898" y="307.584"/>
      </g>
     </g>
     <g id="text_5">
      <!-- 50 -->
      <g transform="translate(295.931933 322.182437)scale(0.1 -0.1)">
       <use xlink:href="#DejaVuSans-53"/>
       <use x="63.623047" xlink:href="#DejaVuSans-48"/>
      </g>
     </g>
    </g>
    <g id="xtick_6">
     <g id="line2d_7">
      <g>
       <use style="stroke:#000000;stroke-width:0.8;" x="351.781438" xlink:href="#ma87840f898" y="307.584"/>
      </g>
     </g>
     <g id="text_6">
      <!-- 100 -->
      <g transform="translate(342.237688 322.182437)scale(0.1 -0.1)">
       <use xlink:href="#DejaVuSans-49"/>
       <use x="63.623047" xlink:href="#DejaVuSans-48"/>
       <use x="127.246094" xlink:href="#DejaVuSans-48"/>
      </g>
     </g>
    </g>
    <g id="xtick_7">
     <g id="line2d_8">
      <g>
       <use style="stroke:#000000;stroke-width:0.8;" x="401.268442" xlink:href="#ma87840f898" y="307.584"/>
      </g>
     </g>
     <g id="text_7">
      <!-- 150 -->
      <g transform="translate(391.724692 322.182437)scale(0.1 -0.1)">
       <use xlink:href="#DejaVuSans-49"/>
       <use x="63.623047" xlink:href="#DejaVuSans-53"/>
       <use x="127.246094" xlink:href="#DejaVuSans-48"/>
      </g>
     </g>
    </g>
   </g>
   <g id="matplotlib.axis_2">
    <g id="ytick_1">
     <g id="line2d_9">
      <defs>
       <path d="M 0 0 
L -3.5 0 
" id="m2f3a02b3d6" style="stroke:#000000;stroke-width:0.8;"/>
      </defs>
      <g>
       <use style="stroke:#000000;stroke-width:0.8;" x="57.6" xlink:href="#m2f3a02b3d6" y="287.217111"/>
      </g>
     </g>
     <g id="text_8">
      <!-- −800 -->
      <defs>
       <path d="M 31.78125 34.625 
Q 24.75 34.625 20.71875 30.859375 
Q 16.703125 27.09375 16.703125 20.515625 
Q 16.703125 13.921875 20.71875 10.15625 
Q 24.75 6.390625 31.78125 6.390625 
Q 38.8125 6.390625 42.859375 10.171875 
Q 46.921875 13.96875 46.921875 20.515625 
Q 46.921875 27.09375 42.890625 30.859375 
Q 38.875 34.625 31.78125 34.625 
z
M 21.921875 38.8125 
Q 15.578125 40.375 12.03125 44.71875 
Q 8.5 49.078125 8.5 55.328125 
Q 8.5 64.0625 14.71875 69.140625 
Q 20.953125 74.21875 31.78125 74.21875 
Q 42.671875 74.21875 48.875 69.140625 
Q 55.078125 64.0625 55.078125 55.328125 
Q 55.078125 49.078125 51.53125 44.71875 
Q 48 40.375 41.703125 38.8125 
Q 48.828125 37.15625 52.796875 32.3125 
Q 56.78125 27.484375 56.78125 20.515625 
Q 56.78125 9.90625 50.3125 4.234375 
Q 43.84375 -1.421875 31.78125 -1.421875 
Q 19.734375 -1.421875 13.25 4.234375 
Q 6.78125 9.90625 6.78125 20.515625 
Q 6.78125 27.484375 10.78125 32.3125 
Q 14.796875 37.15625 21.921875 38.8125 
z
M 18.3125 54.390625 
Q 18.3125 48.734375 21.84375 45.5625 
Q 25.390625 42.390625 31.78125 42.390625 
Q 38.140625 42.390625 41.71875 45.5625 
Q 45.3125 48.734375 45.3125 54.390625 
Q 45.3125 60.0625 41.71875 63.234375 
Q 38.140625 66.40625 31.78125 66.40625 
Q 25.390625 66.40625 21.84375 63.234375 
Q 18.3125 60.0625 18.3125 54.390625 
z
" id="DejaVuSans-56"/>
      </defs>
      <g transform="translate(23.132812 291.01633)scale(0.1 -0.1)">
       <use xlink:href="#DejaVuSans-8722"/>
       <use x="83.789062" xlink:href="#DejaVuSans-56"/>
       <use x="147.412109" xlink:href="#DejaVuSans-48"/>
       <use x="211.035156" xlink:href="#DejaVuSans-48"/>
      </g>
     </g>
    </g>
    <g id="ytick_2">
     <g id="line2d_10">
      <g>
       <use style="stroke:#000000;stroke-width:0.8;" x="57.6" xlink:href="#m2f3a02b3d6" y="240.567992"/>
      </g>
     </g>
     <g id="text_9">
      <!-- −600 -->
      <defs>
       <path d="M 33.015625 40.375 
Q 26.375 40.375 22.484375 35.828125 
Q 18.609375 31.296875 18.609375 23.390625 
Q 18.609375 15.53125 22.484375 10.953125 
Q 26.375 6.390625 33.015625 6.390625 
Q 39.65625 6.390625 43.53125 10.953125 
Q 47.40625 15.53125 47.40625 23.390625 
Q 47.40625 31.296875 43.53125 35.828125 
Q 39.65625 40.375 33.015625 40.375 
z
M 52.59375 71.296875 
L 52.59375 62.3125 
Q 48.875 64.0625 45.09375 64.984375 
Q 41.3125 65.921875 37.59375 65.921875 
Q 27.828125 65.921875 22.671875 59.328125 
Q 17.53125 52.734375 16.796875 39.40625 
Q 19.671875 43.65625 24.015625 45.921875 
Q 28.375 48.1875 33.59375 48.1875 
Q 44.578125 48.1875 50.953125 41.515625 
Q 57.328125 34.859375 57.328125 23.390625 
Q 57.328125 12.15625 50.6875 5.359375 
Q 44.046875 -1.421875 33.015625 -1.421875 
Q 20.359375 -1.421875 13.671875 8.265625 
Q 6.984375 17.96875 6.984375 36.375 
Q 6.984375 53.65625 15.1875 63.9375 
Q 23.390625 74.21875 37.203125 74.21875 
Q 40.921875 74.21875 44.703125 73.484375 
Q 48.484375 72.75 52.59375 71.296875 
z
" id="DejaVuSans-54"/>
      </defs>
      <g transform="translate(23.132812 244.367211)scale(0.1 -0.1)">
       <use xlink:href="#DejaVuSans-8722"/>
       <use x="83.789062" xlink:href="#DejaVuSans-54"/>
       <use x="147.412109" xlink:href="#DejaVuSans-48"/>
       <use x="211.035156" xlink:href="#DejaVuSans-48"/>
      </g>
     </g>
    </g>
    <g id="ytick_3">
     <g id="line2d_11">
      <g>
       <use style="stroke:#000000;stroke-width:0.8;" x="57.6" xlink:href="#m2f3a02b3d6" y="193.918873"/>
      </g>
     </g>
     <g id="text_10">
      <!-- −400 -->
      <defs>
       <path d="M 37.796875 64.3125 
L 12.890625 25.390625 
L 37.796875 25.390625 
z
M 35.203125 72.90625 
L 47.609375 72.90625 
L 47.609375 25.390625 
L 58.015625 25.390625 
L 58.015625 17.1875 
L 47.609375 17.1875 
L 47.609375 0 
L 37.796875 0 
L 37.796875 17.1875 
L 4.890625 17.1875 
L 4.890625 26.703125 
z
" id="DejaVuSans-52"/>
      </defs>
      <g transform="translate(23.132812 197.718091)scale(0.1 -0.1)">
       <use xlink:href="#DejaVuSans-8722"/>
       <use x="83.789062" xlink:href="#DejaVuSans-52"/>
       <use x="147.412109" xlink:href="#DejaVuSans-48"/>
       <use x="211.035156" xlink:href="#DejaVuSans-48"/>
      </g>
     </g>
    </g>
    <g id="ytick_4">
     <g id="line2d_12">
      <g>
       <use style="stroke:#000000;stroke-width:0.8;" x="57.6" xlink:href="#m2f3a02b3d6" y="147.269753"/>
      </g>
     </g>
     <g id="text_11">
      <!-- −200 -->
      <defs>
       <path d="M 19.1875 8.296875 
L 53.609375 8.296875 
L 53.609375 0 
L 7.328125 0 
L 7.328125 8.296875 
Q 12.9375 14.109375 22.625 23.890625 
Q 32.328125 33.6875 34.8125 36.53125 
Q 39.546875 41.84375 41.421875 45.53125 
Q 43.3125 49.21875 43.3125 52.78125 
Q 43.3125 58.59375 39.234375 62.25 
Q 35.15625 65.921875 28.609375 65.921875 
Q 23.96875 65.921875 18.8125 64.3125 
Q 13.671875 62.703125 7.8125 59.421875 
L 7.8125 69.390625 
Q 13.765625 71.78125 18.9375 73 
Q 24.125 74.21875 28.421875 74.21875 
Q 39.75 74.21875 46.484375 68.546875 
Q 53.21875 62.890625 53.21875 53.421875 
Q 53.21875 48.921875 51.53125 44.890625 
Q 49.859375 40.875 45.40625 35.40625 
Q 44.1875 33.984375 37.640625 27.21875 
Q 31.109375 20.453125 19.1875 8.296875 
z
" id="DejaVuSans-50"/>
      </defs>
      <g transform="translate(23.132812 151.068972)scale(0.1 -0.1)">
       <use xlink:href="#DejaVuSans-8722"/>
       <use x="83.789062" xlink:href="#DejaVuSans-50"/>
       <use x="147.412109" xlink:href="#DejaVuSans-48"/>
       <use x="211.035156" xlink:href="#DejaVuSans-48"/>
      </g>
     </g>
    </g>
    <g id="ytick_5">
     <g id="line2d_13">
      <g>
       <use style="stroke:#000000;stroke-width:0.8;" x="57.6" xlink:href="#m2f3a02b3d6" y="100.620634"/>
      </g>
     </g>
     <g id="text_12">
      <!-- 0 -->
      <g transform="translate(44.2375 104.419853)scale(0.1 -0.1)">
       <use xlink:href="#DejaVuSans-48"/>
      </g>
     </g>
    </g>
    <g id="ytick_6">
     <g id="line2d_14">
      <g>
       <use style="stroke:#000000;stroke-width:0.8;" x="57.6" xlink:href="#m2f3a02b3d6" y="53.971515"/>
      </g>
     </g>
     <g id="text_13">
      <!-- 200 -->
      <g transform="translate(31.5125 57.770734)scale(0.1 -0.1)">
       <use xlink:href="#DejaVuSans-50"/>
       <use x="63.623047" xlink:href="#DejaVuSans-48"/>
       <use x="127.246094" xlink:href="#DejaVuSans-48"/>
      </g>
     </g>
    </g>
   </g>
   <g id="line2d_15">
    <path clip-path="url(#p0aee2c2c52)" d="M 141.228147 282.551048 
L 82.398243 241.518683 
L 203.656556 102.856321 
L 144.90584 64.023569 
L 384.341069 176.989192 
" style="fill:none;stroke:#ff0000;stroke-linecap:square;stroke-width:0.5;"/>
   </g>
   <g id="patch_3">
    <path d="M 57.6 307.584 
L 57.6 41.472 
" style="fill:none;stroke:#000000;stroke-linecap:square;stroke-linejoin:miter;stroke-width:0.8;"/>
   </g>
   <g id="patch_4">
    <path d="M 414.72 307.584 
L 414.72 41.472 
" style="fill:none;stroke:#000000;stroke-linecap:square;stroke-linejoin:miter;stroke-width:0.8;"/>
   </g>
   <g id="patch_5">
    <path d="M 57.6 307.584 
L 414.72 307.584 
" style="fill:none;stroke:#000000;stroke-linecap:square;stroke-linejoin:miter;stroke-width:0.8;"/>
   </g>
   <g id="patch_6">
    <path d="M 57.6 41.472 
L 414.72 41.472 
" style="fill:none;stroke:#000000;stroke-linecap:square;stroke-linejoin:miter;stroke-width:0.8;"/>
   </g>
   <g id="PathCollection_1">
    <defs>
     <path d="M 0 2.738613 
C 0.726289 2.738613 1.422928 2.450055 1.936492 1.936492 
C 2.450055 1.422928 2.738613 0.726289 2.738613 0 
C 2.738613 -0.726289 2.450055 -1.422928 1.936492 -1.936492 
C 1.422928 -2.450055 0.726289 -2.738613 0 -2.738613 
C -0.726289 -2.738613 -1.422928 -2.450055 -1.936492 -1.936492 
C -2.450055 -1.422928 -2.738613 -0.726289 -2.738613 0 
C -2.738613 0.726289 -2.450055 1.422928 -1.936492 1.936492 
C -1.422928 2.450055 -0.726289 2.738613 0 2.738613 
z
" id="m144dfccb34" style="stroke:#ff0000;"/>
    </defs>
    <g clip-path="url(#p0aee2c2c52)">
     <use style="fill:#ff0000;stroke:#ff0000;" x="141.228147" xlink:href="#m144dfccb34" y="282.551048"/>
     <use style="fill:#ff0000;stroke:#ff0000;" x="82.398243" xlink:href="#m144dfccb34" y="241.518683"/>
     <use style="fill:#ff0000;stroke:#ff0000;" x="203.656556" xlink:href="#m144dfccb34" y="102.856321"/>
     <use style="fill:#ff0000;stroke:#ff0000;" x="144.90584" xlink:href="#m144dfccb34" y="64.023569"/>
     <use style="fill:#ff0000;stroke:#ff0000;" x="384.341069" xlink:href="#m144dfccb34" y="176.989192"/>
    </g>
   </g>
   <g id="text_14">
    <!-- (136) Subject: s27, Known = True, Degree = 1, Duration = 0.1 -->
    <defs>
     <path d="M 31 75.875 
Q 24.46875 64.65625 21.28125 53.65625 
Q 18.109375 42.671875 18.109375 31.390625 
Q 18.109375 20.125 21.3125 9.0625 
Q 24.515625 -2 31 -13.1875 
L 23.1875 -13.1875 
Q 15.875 -1.703125 12.234375 9.375 
Q 8.59375 20.453125 8.59375 31.390625 
Q 8.59375 42.28125 12.203125 53.3125 
Q 15.828125 64.359375 23.1875 75.875 
z
" id="DejaVuSans-40"/>
     <path d="M 40.578125 39.3125 
Q 47.65625 37.796875 51.625 33 
Q 55.609375 28.21875 55.609375 21.1875 
Q 55.609375 10.40625 48.1875 4.484375 
Q 40.765625 -1.421875 27.09375 -1.421875 
Q 22.515625 -1.421875 17.65625 -0.515625 
Q 12.796875 0.390625 7.625 2.203125 
L 7.625 11.71875 
Q 11.71875 9.328125 16.59375 8.109375 
Q 21.484375 6.890625 26.8125 6.890625 
Q 36.078125 6.890625 40.9375 10.546875 
Q 45.796875 14.203125 45.796875 21.1875 
Q 45.796875 27.640625 41.28125 31.265625 
Q 36.765625 34.90625 28.71875 34.90625 
L 20.21875 34.90625 
L 20.21875 43.015625 
L 29.109375 43.015625 
Q 36.375 43.015625 40.234375 45.921875 
Q 44.09375 48.828125 44.09375 54.296875 
Q 44.09375 59.90625 40.109375 62.90625 
Q 36.140625 65.921875 28.71875 65.921875 
Q 24.65625 65.921875 20.015625 65.03125 
Q 15.375 64.15625 9.8125 62.3125 
L 9.8125 71.09375 
Q 15.4375 72.65625 20.34375 73.4375 
Q 25.25 74.21875 29.59375 74.21875 
Q 40.828125 74.21875 47.359375 69.109375 
Q 53.90625 64.015625 53.90625 55.328125 
Q 53.90625 49.265625 50.4375 45.09375 
Q 46.96875 40.921875 40.578125 39.3125 
z
" id="DejaVuSans-51"/>
     <path d="M 8.015625 75.875 
L 15.828125 75.875 
Q 23.140625 64.359375 26.78125 53.3125 
Q 30.421875 42.28125 30.421875 31.390625 
Q 30.421875 20.453125 26.78125 9.375 
Q 23.140625 -1.703125 15.828125 -13.1875 
L 8.015625 -13.1875 
Q 14.5 -2 17.703125 9.0625 
Q 20.90625 20.125 20.90625 31.390625 
Q 20.90625 42.671875 17.703125 53.65625 
Q 14.5 64.65625 8.015625 75.875 
z
" id="DejaVuSans-41"/>
     <path id="DejaVuSans-32"/>
     <path d="M 53.515625 70.515625 
L 53.515625 60.890625 
Q 47.90625 63.578125 42.921875 64.890625 
Q 37.9375 66.21875 33.296875 66.21875 
Q 25.25 66.21875 20.875 63.09375 
Q 16.5 59.96875 16.5 54.203125 
Q 16.5 49.359375 19.40625 46.890625 
Q 22.3125 44.4375 30.421875 42.921875 
L 36.375 41.703125 
Q 47.40625 39.59375 52.65625 34.296875 
Q 57.90625 29 57.90625 20.125 
Q 57.90625 9.515625 50.796875 4.046875 
Q 43.703125 -1.421875 29.984375 -1.421875 
Q 24.8125 -1.421875 18.96875 -0.25 
Q 13.140625 0.921875 6.890625 3.21875 
L 6.890625 13.375 
Q 12.890625 10.015625 18.65625 8.296875 
Q 24.421875 6.59375 29.984375 6.59375 
Q 38.421875 6.59375 43.015625 9.90625 
Q 47.609375 13.234375 47.609375 19.390625 
Q 47.609375 24.75 44.3125 27.78125 
Q 41.015625 30.8125 33.5 32.328125 
L 27.484375 33.5 
Q 16.453125 35.6875 11.515625 40.375 
Q 6.59375 45.0625 6.59375 53.421875 
Q 6.59375 63.09375 13.40625 68.65625 
Q 20.21875 74.21875 32.171875 74.21875 
Q 37.3125 74.21875 42.625 73.28125 
Q 47.953125 72.359375 53.515625 70.515625 
z
" id="DejaVuSans-83"/>
     <path d="M 8.5 21.578125 
L 8.5 54.6875 
L 17.484375 54.6875 
L 17.484375 21.921875 
Q 17.484375 14.15625 20.5 10.265625 
Q 23.53125 6.390625 29.59375 6.390625 
Q 36.859375 6.390625 41.078125 11.03125 
Q 45.3125 15.671875 45.3125 23.6875 
L 45.3125 54.6875 
L 54.296875 54.6875 
L 54.296875 0 
L 45.3125 0 
L 45.3125 8.40625 
Q 42.046875 3.421875 37.71875 1 
Q 33.40625 -1.421875 27.6875 -1.421875 
Q 18.265625 -1.421875 13.375 4.4375 
Q 8.5 10.296875 8.5 21.578125 
z
M 31.109375 56 
z
" id="DejaVuSans-117"/>
     <path d="M 48.6875 27.296875 
Q 48.6875 37.203125 44.609375 42.84375 
Q 40.53125 48.484375 33.40625 48.484375 
Q 26.265625 48.484375 22.1875 42.84375 
Q 18.109375 37.203125 18.109375 27.296875 
Q 18.109375 17.390625 22.1875 11.75 
Q 26.265625 6.109375 33.40625 6.109375 
Q 40.53125 6.109375 44.609375 11.75 
Q 48.6875 17.390625 48.6875 27.296875 
z
M 18.109375 46.390625 
Q 20.953125 51.265625 25.265625 53.625 
Q 29.59375 56 35.59375 56 
Q 45.5625 56 51.78125 48.09375 
Q 58.015625 40.1875 58.015625 27.296875 
Q 58.015625 14.40625 51.78125 6.484375 
Q 45.5625 -1.421875 35.59375 -1.421875 
Q 29.59375 -1.421875 25.265625 0.953125 
Q 20.953125 3.328125 18.109375 8.203125 
L 18.109375 0 
L 9.078125 0 
L 9.078125 75.984375 
L 18.109375 75.984375 
z
" id="DejaVuSans-98"/>
     <path d="M 9.421875 54.6875 
L 18.40625 54.6875 
L 18.40625 -0.984375 
Q 18.40625 -11.421875 14.421875 -16.109375 
Q 10.453125 -20.796875 1.609375 -20.796875 
L -1.8125 -20.796875 
L -1.8125 -13.1875 
L 0.59375 -13.1875 
Q 5.71875 -13.1875 7.5625 -10.8125 
Q 9.421875 -8.453125 9.421875 -0.984375 
z
M 9.421875 75.984375 
L 18.40625 75.984375 
L 18.40625 64.59375 
L 9.421875 64.59375 
z
" id="DejaVuSans-106"/>
     <path d="M 56.203125 29.59375 
L 56.203125 25.203125 
L 14.890625 25.203125 
Q 15.484375 15.921875 20.484375 11.0625 
Q 25.484375 6.203125 34.421875 6.203125 
Q 39.59375 6.203125 44.453125 7.46875 
Q 49.3125 8.734375 54.109375 11.28125 
L 54.109375 2.78125 
Q 49.265625 0.734375 44.1875 -0.34375 
Q 39.109375 -1.421875 33.890625 -1.421875 
Q 20.796875 -1.421875 13.15625 6.1875 
Q 5.515625 13.8125 5.515625 26.8125 
Q 5.515625 40.234375 12.765625 48.109375 
Q 20.015625 56 32.328125 56 
Q 43.359375 56 49.78125 48.890625 
Q 56.203125 41.796875 56.203125 29.59375 
z
M 47.21875 32.234375 
Q 47.125 39.59375 43.09375 43.984375 
Q 39.0625 48.390625 32.421875 48.390625 
Q 24.90625 48.390625 20.390625 44.140625 
Q 15.875 39.890625 15.1875 32.171875 
z
" id="DejaVuSans-101"/>
     <path d="M 48.78125 52.59375 
L 48.78125 44.1875 
Q 44.96875 46.296875 41.140625 47.34375 
Q 37.3125 48.390625 33.40625 48.390625 
Q 24.65625 48.390625 19.8125 42.84375 
Q 14.984375 37.3125 14.984375 27.296875 
Q 14.984375 17.28125 19.8125 11.734375 
Q 24.65625 6.203125 33.40625 6.203125 
Q 37.3125 6.203125 41.140625 7.25 
Q 44.96875 8.296875 48.78125 10.40625 
L 48.78125 2.09375 
Q 45.015625 0.34375 40.984375 -0.53125 
Q 36.96875 -1.421875 32.421875 -1.421875 
Q 20.0625 -1.421875 12.78125 6.34375 
Q 5.515625 14.109375 5.515625 27.296875 
Q 5.515625 40.671875 12.859375 48.328125 
Q 20.21875 56 33.015625 56 
Q 37.15625 56 41.109375 55.140625 
Q 45.0625 54.296875 48.78125 52.59375 
z
" id="DejaVuSans-99"/>
     <path d="M 18.3125 70.21875 
L 18.3125 54.6875 
L 36.8125 54.6875 
L 36.8125 47.703125 
L 18.3125 47.703125 
L 18.3125 18.015625 
Q 18.3125 11.328125 20.140625 9.421875 
Q 21.96875 7.515625 27.59375 7.515625 
L 36.8125 7.515625 
L 36.8125 0 
L 27.59375 0 
Q 17.1875 0 13.234375 3.875 
Q 9.28125 7.765625 9.28125 18.015625 
L 9.28125 47.703125 
L 2.6875 47.703125 
L 2.6875 54.6875 
L 9.28125 54.6875 
L 9.28125 70.21875 
z
" id="DejaVuSans-116"/>
     <path d="M 11.71875 12.40625 
L 22.015625 12.40625 
L 22.015625 0 
L 11.71875 0 
z
M 11.71875 51.703125 
L 22.015625 51.703125 
L 22.015625 39.3125 
L 11.71875 39.3125 
z
" id="DejaVuSans-58"/>
     <path d="M 44.28125 53.078125 
L 44.28125 44.578125 
Q 40.484375 46.53125 36.375 47.5 
Q 32.28125 48.484375 27.875 48.484375 
Q 21.1875 48.484375 17.84375 46.4375 
Q 14.5 44.390625 14.5 40.28125 
Q 14.5 37.15625 16.890625 35.375 
Q 19.28125 33.59375 26.515625 31.984375 
L 29.59375 31.296875 
Q 39.15625 29.25 43.1875 25.515625 
Q 47.21875 21.78125 47.21875 15.09375 
Q 47.21875 7.46875 41.1875 3.015625 
Q 35.15625 -1.421875 24.609375 -1.421875 
Q 20.21875 -1.421875 15.453125 -0.5625 
Q 10.6875 0.296875 5.421875 2 
L 5.421875 11.28125 
Q 10.40625 8.6875 15.234375 7.390625 
Q 20.0625 6.109375 24.8125 6.109375 
Q 31.15625 6.109375 34.5625 8.28125 
Q 37.984375 10.453125 37.984375 14.40625 
Q 37.984375 18.0625 35.515625 20.015625 
Q 33.0625 21.96875 24.703125 23.78125 
L 21.578125 24.515625 
Q 13.234375 26.265625 9.515625 29.90625 
Q 5.8125 33.546875 5.8125 39.890625 
Q 5.8125 47.609375 11.28125 51.796875 
Q 16.75 56 26.8125 56 
Q 31.78125 56 36.171875 55.265625 
Q 40.578125 54.546875 44.28125 53.078125 
z
" id="DejaVuSans-115"/>
     <path d="M 8.203125 72.90625 
L 55.078125 72.90625 
L 55.078125 68.703125 
L 28.609375 0 
L 18.3125 0 
L 43.21875 64.59375 
L 8.203125 64.59375 
z
" id="DejaVuSans-55"/>
     <path d="M 11.71875 12.40625 
L 22.015625 12.40625 
L 22.015625 4 
L 14.015625 -11.625 
L 7.71875 -11.625 
L 11.71875 4 
z
" id="DejaVuSans-44"/>
     <path d="M 9.8125 72.90625 
L 19.671875 72.90625 
L 19.671875 42.09375 
L 52.390625 72.90625 
L 65.09375 72.90625 
L 28.90625 38.921875 
L 67.671875 0 
L 54.6875 0 
L 19.671875 35.109375 
L 19.671875 0 
L 9.8125 0 
z
" id="DejaVuSans-75"/>
     <path d="M 54.890625 33.015625 
L 54.890625 0 
L 45.90625 0 
L 45.90625 32.71875 
Q 45.90625 40.484375 42.875 44.328125 
Q 39.84375 48.1875 33.796875 48.1875 
Q 26.515625 48.1875 22.3125 43.546875 
Q 18.109375 38.921875 18.109375 30.90625 
L 18.109375 0 
L 9.078125 0 
L 9.078125 54.6875 
L 18.109375 54.6875 
L 18.109375 46.1875 
Q 21.34375 51.125 25.703125 53.5625 
Q 30.078125 56 35.796875 56 
Q 45.21875 56 50.046875 50.171875 
Q 54.890625 44.34375 54.890625 33.015625 
z
" id="DejaVuSans-110"/>
     <path d="M 30.609375 48.390625 
Q 23.390625 48.390625 19.1875 42.75 
Q 14.984375 37.109375 14.984375 27.296875 
Q 14.984375 17.484375 19.15625 11.84375 
Q 23.34375 6.203125 30.609375 6.203125 
Q 37.796875 6.203125 41.984375 11.859375 
Q 46.1875 17.53125 46.1875 27.296875 
Q 46.1875 37.015625 41.984375 42.703125 
Q 37.796875 48.390625 30.609375 48.390625 
z
M 30.609375 56 
Q 42.328125 56 49.015625 48.375 
Q 55.71875 40.765625 55.71875 27.296875 
Q 55.71875 13.875 49.015625 6.21875 
Q 42.328125 -1.421875 30.609375 -1.421875 
Q 18.84375 -1.421875 12.171875 6.21875 
Q 5.515625 13.875 5.515625 27.296875 
Q 5.515625 40.765625 12.171875 48.375 
Q 18.84375 56 30.609375 56 
z
" id="DejaVuSans-111"/>
     <path d="M 4.203125 54.6875 
L 13.1875 54.6875 
L 24.421875 12.015625 
L 35.59375 54.6875 
L 46.1875 54.6875 
L 57.421875 12.015625 
L 68.609375 54.6875 
L 77.59375 54.6875 
L 63.28125 0 
L 52.6875 0 
L 40.921875 44.828125 
L 29.109375 0 
L 18.5 0 
z
" id="DejaVuSans-119"/>
     <path d="M 10.59375 45.40625 
L 73.1875 45.40625 
L 73.1875 37.203125 
L 10.59375 37.203125 
z
M 10.59375 25.484375 
L 73.1875 25.484375 
L 73.1875 17.1875 
L 10.59375 17.1875 
z
" id="DejaVuSans-61"/>
     <path d="M -0.296875 72.90625 
L 61.375 72.90625 
L 61.375 64.59375 
L 35.5 64.59375 
L 35.5 0 
L 25.59375 0 
L 25.59375 64.59375 
L -0.296875 64.59375 
z
" id="DejaVuSans-84"/>
     <path d="M 41.109375 46.296875 
Q 39.59375 47.171875 37.8125 47.578125 
Q 36.03125 48 33.890625 48 
Q 26.265625 48 22.1875 43.046875 
Q 18.109375 38.09375 18.109375 28.8125 
L 18.109375 0 
L 9.078125 0 
L 9.078125 54.6875 
L 18.109375 54.6875 
L 18.109375 46.1875 
Q 20.953125 51.171875 25.484375 53.578125 
Q 30.03125 56 36.53125 56 
Q 37.453125 56 38.578125 55.875 
Q 39.703125 55.765625 41.0625 55.515625 
z
" id="DejaVuSans-114"/>
     <path d="M 19.671875 64.796875 
L 19.671875 8.109375 
L 31.59375 8.109375 
Q 46.6875 8.109375 53.6875 14.9375 
Q 60.6875 21.78125 60.6875 36.53125 
Q 60.6875 51.171875 53.6875 57.984375 
Q 46.6875 64.796875 31.59375 64.796875 
z
M 9.8125 72.90625 
L 30.078125 72.90625 
Q 51.265625 72.90625 61.171875 64.09375 
Q 71.09375 55.28125 71.09375 36.53125 
Q 71.09375 17.671875 61.125 8.828125 
Q 51.171875 0 30.078125 0 
L 9.8125 0 
z
" id="DejaVuSans-68"/>
     <path d="M 45.40625 27.984375 
Q 45.40625 37.75 41.375 43.109375 
Q 37.359375 48.484375 30.078125 48.484375 
Q 22.859375 48.484375 18.828125 43.109375 
Q 14.796875 37.75 14.796875 27.984375 
Q 14.796875 18.265625 18.828125 12.890625 
Q 22.859375 7.515625 30.078125 7.515625 
Q 37.359375 7.515625 41.375 12.890625 
Q 45.40625 18.265625 45.40625 27.984375 
z
M 54.390625 6.78125 
Q 54.390625 -7.171875 48.1875 -13.984375 
Q 42 -20.796875 29.203125 -20.796875 
Q 24.46875 -20.796875 20.265625 -20.09375 
Q 16.0625 -19.390625 12.109375 -17.921875 
L 12.109375 -9.1875 
Q 16.0625 -11.328125 19.921875 -12.34375 
Q 23.78125 -13.375 27.78125 -13.375 
Q 36.625 -13.375 41.015625 -8.765625 
Q 45.40625 -4.15625 45.40625 5.171875 
L 45.40625 9.625 
Q 42.625 4.78125 38.28125 2.390625 
Q 33.9375 0 27.875 0 
Q 17.828125 0 11.671875 7.65625 
Q 5.515625 15.328125 5.515625 27.984375 
Q 5.515625 40.671875 11.671875 48.328125 
Q 17.828125 56 27.875 56 
Q 33.9375 56 38.28125 53.609375 
Q 42.625 51.21875 45.40625 46.390625 
L 45.40625 54.6875 
L 54.390625 54.6875 
z
" id="DejaVuSans-103"/>
     <path d="M 34.28125 27.484375 
Q 23.390625 27.484375 19.1875 25 
Q 14.984375 22.515625 14.984375 16.5 
Q 14.984375 11.71875 18.140625 8.90625 
Q 21.296875 6.109375 26.703125 6.109375 
Q 34.1875 6.109375 38.703125 11.40625 
Q 43.21875 16.703125 43.21875 25.484375 
L 43.21875 27.484375 
z
M 52.203125 31.203125 
L 52.203125 0 
L 43.21875 0 
L 43.21875 8.296875 
Q 40.140625 3.328125 35.546875 0.953125 
Q 30.953125 -1.421875 24.3125 -1.421875 
Q 15.921875 -1.421875 10.953125 3.296875 
Q 6 8.015625 6 15.921875 
Q 6 25.140625 12.171875 29.828125 
Q 18.359375 34.515625 30.609375 34.515625 
L 43.21875 34.515625 
L 43.21875 35.40625 
Q 43.21875 41.609375 39.140625 45 
Q 35.0625 48.390625 27.6875 48.390625 
Q 23 48.390625 18.546875 47.265625 
Q 14.109375 46.140625 10.015625 43.890625 
L 10.015625 52.203125 
Q 14.9375 54.109375 19.578125 55.046875 
Q 24.21875 56 28.609375 56 
Q 40.484375 56 46.34375 49.84375 
Q 52.203125 43.703125 52.203125 31.203125 
z
" id="DejaVuSans-97"/>
     <path d="M 9.421875 54.6875 
L 18.40625 54.6875 
L 18.40625 0 
L 9.421875 0 
z
M 9.421875 75.984375 
L 18.40625 75.984375 
L 18.40625 64.59375 
L 9.421875 64.59375 
z
" id="DejaVuSans-105"/>
     <path d="M 10.6875 12.40625 
L 21 12.40625 
L 21 0 
L 10.6875 0 
z
" id="DejaVuSans-46"/>
    </defs>
    <g transform="translate(47.915625 35.472)scale(0.12 -0.12)">
     <use xlink:href="#DejaVuSans-40"/>
     <use x="39.013672" xlink:href="#DejaVuSans-49"/>
     <use x="102.636719" xlink:href="#DejaVuSans-51"/>
     <use x="166.259766" xlink:href="#DejaVuSans-54"/>
     <use x="229.882812" xlink:href="#DejaVuSans-41"/>
     <use x="268.896484" xlink:href="#DejaVuSans-32"/>
     <use x="300.683594" xlink:href="#DejaVuSans-83"/>
     <use x="364.160156" xlink:href="#DejaVuSans-117"/>
     <use x="427.539062" xlink:href="#DejaVuSans-98"/>
     <use x="491.015625" xlink:href="#DejaVuSans-106"/>
     <use x="518.798828" xlink:href="#DejaVuSans-101"/>
     <use x="580.322266" xlink:href="#DejaVuSans-99"/>
     <use x="635.302734" xlink:href="#DejaVuSans-116"/>
     <use x="674.511719" xlink:href="#DejaVuSans-58"/>
     <use x="708.203125" xlink:href="#DejaVuSans-32"/>
     <use x="739.990234" xlink:href="#DejaVuSans-115"/>
     <use x="792.089844" xlink:href="#DejaVuSans-50"/>
     <use x="855.712891" xlink:href="#DejaVuSans-55"/>
     <use x="919.335938" xlink:href="#DejaVuSans-44"/>
     <use x="951.123047" xlink:href="#DejaVuSans-32"/>
     <use x="982.910156" xlink:href="#DejaVuSans-75"/>
     <use x="1048.486328" xlink:href="#DejaVuSans-110"/>
     <use x="1111.865234" xlink:href="#DejaVuSans-111"/>
     <use x="1173.046875" xlink:href="#DejaVuSans-119"/>
     <use x="1254.833984" xlink:href="#DejaVuSans-110"/>
     <use x="1318.212891" xlink:href="#DejaVuSans-32"/>
     <use x="1350" xlink:href="#DejaVuSans-61"/>
     <use x="1433.789062" xlink:href="#DejaVuSans-32"/>
     <use x="1465.576172" xlink:href="#DejaVuSans-84"/>
     <use x="1526.441406" xlink:href="#DejaVuSans-114"/>
     <use x="1567.554688" xlink:href="#DejaVuSans-117"/>
     <use x="1630.933594" xlink:href="#DejaVuSans-101"/>
     <use x="1692.457031" xlink:href="#DejaVuSans-44"/>
     <use x="1724.244141" xlink:href="#DejaVuSans-32"/>
     <use x="1756.03125" xlink:href="#DejaVuSans-68"/>
     <use x="1833.033203" xlink:href="#DejaVuSans-101"/>
     <use x="1894.556641" xlink:href="#DejaVuSans-103"/>
     <use x="1958.033203" xlink:href="#DejaVuSans-114"/>
     <use x="1999.115234" xlink:href="#DejaVuSans-101"/>
     <use x="2060.638672" xlink:href="#DejaVuSans-101"/>
     <use x="2122.162109" xlink:href="#DejaVuSans-32"/>
     <use x="2153.949219" xlink:href="#DejaVuSans-61"/>
     <use x="2237.738281" xlink:href="#DejaVuSans-32"/>
     <use x="2269.525391" xlink:href="#DejaVuSans-49"/>
     <use x="2333.148438" xlink:href="#DejaVuSans-44"/>
     <use x="2364.935547" xlink:href="#DejaVuSans-32"/>
     <use x="2396.722656" xlink:href="#DejaVuSans-68"/>
     <use x="2473.724609" xlink:href="#DejaVuSans-117"/>
     <use x="2537.103516" xlink:href="#DejaVuSans-114"/>
     <use x="2578.216797" xlink:href="#DejaVuSans-97"/>
     <use x="2639.496094" xlink:href="#DejaVuSans-116"/>
     <use x="2678.705078" xlink:href="#DejaVuSans-105"/>
     <use x="2706.488281" xlink:href="#DejaVuSans-111"/>
     <use x="2767.669922" xlink:href="#DejaVuSans-110"/>
     <use x="2831.048828" xlink:href="#DejaVuSans-32"/>
     <use x="2862.835938" xlink:href="#DejaVuSans-61"/>
     <use x="2946.625" xlink:href="#DejaVuSans-32"/>
     <use x="2978.412109" xlink:href="#DejaVuSans-48"/>
     <use x="3042.035156" xlink:href="#DejaVuSans-46"/>
     <use x="3073.822266" xlink:href="#DejaVuSans-49"/>
    </g>
   </g>
  </g>
 </g>
 <defs>
  <clipPath id="p0aee2c2c52">
   <rect height="266.112" width="357.12" x="57.6" y="41.472"/>
  </clipPath>
 </defs>
</svg>
