<?xml version="1.0" encoding="utf-8" standalone="no"?>
<!DOCTYPE svg PUBLIC "-//W3C//DTD SVG 1.1//EN"
  "http://www.w3.org/Graphics/SVG/1.1/DTD/svg11.dtd">
<!-- Created with matplotlib (https://matplotlib.org/) -->
<svg height="345.6pt" version="1.1" viewBox="0 0 460.8 345.6" width="460.8pt" xmlns="http://www.w3.org/2000/svg" xmlns:xlink="http://www.w3.org/1999/xlink">
 <defs>
  <style type="text/css">
*{stroke-linecap:butt;stroke-linejoin:round;}
  </style>
 </defs>
 <g id="figure_1">
  <g id="patch_1">
   <path d="M 0 345.6 
L 460.8 345.6 
L 460.8 0 
L 0 0 
z
" style="fill:#ffffff;"/>
  </g>
  <g id="axes_1">
   <g id="patch_2">
    <path d="M 57.6 307.584 
L 414.72 307.584 
L 414.72 41.472 
L 57.6 41.472 
z
" style="fill:#ffffff;"/>
   </g>
   <g id="line2d_1">
    <path clip-path="url(#p1d021874db)" d="M 396.370274 294.350035 
L 396.370274 294.120804 
L 396.246803 294.350035 
L 395.873821 294.350035 
L 395.873821 294.120804 
L 396.123333 293.437206 
L 396.370274 293.212069 
L 395.997291 293.437206 
L 395.747778 292.753608 
L 395.500838 291.161275 
L 395.251325 291.390506 
L 395.125283 291.844873 
L 395.251325 292.528471 
L 395.500838 293.212069 
L 395.624308 293.212069 
L 395.500838 292.753608 
L 395.251325 292.528471 
L 395.001812 293.437206 
L 395.001812 293.437206 
L 394.878342 293.437206 
L 395.624308 293.437206 
L 395.747778 293.212069 
L 395.624308 293.212069 
L 395.251325 293.212069 
L 395.001812 293.437206 
L 395.001812 293.895667 
L 395.125283 293.895667 
L 395.125283 293.666437 
L 395.374795 293.666437 
L 395.500838 294.120804 
L 395.500838 294.804402 
L 395.374795 294.804402 
L 395.125283 294.350035 
L 395.125283 293.437206 
L 395.624308 292.753608 
L 395.624308 293.437206 
L 395.125283 294.579265 
L 395.001812 294.804402 
L 394.7523 294.804402 
L 394.7523 294.804402 
L 394.7523 294.350035 
L 394.62883 293.895667 
L 394.62883 293.437206 
L 394.7523 293.212069 
L 395.001812 293.212069 
L 395.125283 293.437206 
L 395.125283 294.120804 
L 394.878342 294.804402 
L 394.62883 294.804402 
L 394.502787 294.350035 
L 394.255847 294.120804 
L 394.129804 294.350035 
L 394.255847 294.350035 
L 394.62883 294.120804 
L 394.255847 295.033632 
L 394.7523 294.120804 
L 394.7523 294.120804 
L 394.878342 294.350035 
L 395.001812 294.120804 
L 394.502787 293.437206 
L 394.502787 294.350035 
L 394.62883 295.033632 
L 394.878342 294.350035 
L 394.878342 294.120804 
L 394.7523 294.804402 
L 394.7523 295.488 
L 394.62883 295.488 
L 394.62883 294.804402 
L 394.7523 294.120804 
L 394.878342 294.120804 
L 394.7523 293.666437 
L 394.7523 292.982839 
L 394.62883 292.982839 
L 394.379317 293.895667 
L 394.255847 293.437206 
L 394.379317 294.120804 
L 395.001812 293.437206 
L 394.7523 293.437206 
L 394.62883 293.212069 
L 394.7523 292.753608 
L 395.747778 291.615643 
L 395.747778 291.615643 
L 395.873821 291.161275 
L 395.873821 290.02331 
L 395.251325 290.477677 
L 395.251325 290.248447 
L 395.500838 290.248447 
L 396.370274 290.706908 
L 396.123333 290.932045 
L 396.246803 290.477677 
L 396.370274 289.339712 
L 396.370274 288.197653 
L 396.123333 287.972516 
L 396.123333 288.426883 
L 396.370274 288.656114 
L 396.869299 287.743285 
L 396.496316 287.518148 
L 396.246803 286.83455 
L 396.246803 286.150952 
L 396.619786 285.238124 
L 397.118812 285.008893 
L 397.118812 285.238124 
L 396.869299 285.921722 
L 396.745829 285.692491 
L 396.745829 285.008893 
L 396.869299 284.554526 
L 396.992769 284.554526 
L 396.869299 285.008893 
L 396.869299 284.783756 
L 396.992769 284.100158 
L 397.368324 283.41656 
L 397.615265 282.732962 
L 397.741307 283.18733 
L 397.368324 282.503732 
L 397.368324 281.594997 
L 397.615265 281.136536 
L 397.988247 281.136536 
L 397.741307 281.365766 
L 397.615265 281.136536 
L 397.615265 280.227801 
L 397.741307 279.76934 
L 397.741307 279.76934 
L 397.491794 278.631375 
L 397.615265 278.406238 
L 397.864777 278.406238 
L 398.487273 277.039042 
L 397.988247 276.126213 
L 397.741307 274.529787 
L 397.491794 274.30465 
L 397.615265 274.529787 
L 397.491794 274.075419 
L 397.242282 274.075419 
L 397.242282 273.850282 
L 397.368324 273.391821 
L 397.368324 272.937454 
L 396.992769 272.253856 
L 397.118812 272.253856 
L 397.242282 272.024625 
L 397.118812 272.253856 
L 397.242282 272.483086 
L 397.615265 272.708223 
L 397.864777 272.024625 
L 397.491794 271.799488 
L 397.242282 271.799488 
L 397.242282 272.024625 
L 397.491794 272.708223 
L 397.242282 273.166684 
L 396.869299 272.937454 
L 396.619786 272.937454 
L 396.869299 273.621052 
L 396.992769 272.937454 
L 396.992769 272.024625 
L 396.869299 271.570258 
L 396.745829 271.570258 
L 396.619786 271.799488 
L 396.869299 271.570258 
L 397.368324 271.11589 
L 397.242282 270.88666 
L 396.869299 271.11589 
L 396.370274 270.88666 
L 396.370274 270.88666 
L 396.619786 271.341027 
L 397.242282 270.88666 
L 397.118812 271.11589 
L 396.869299 271.11589 
L 396.619786 270.88666 
L 396.619786 270.657429 
L 396.496316 271.11589 
L 395.997291 271.570258 
L 395.747778 271.11589 
L 395.624308 270.657429 
L 395.624308 270.88666 
L 395.873821 270.88666 
L 396.246803 270.657429 
L 396.370274 270.432292 
L 396.123333 270.203062 
L 395.873821 270.432292 
L 395.873821 270.88666 
L 396.123333 271.11589 
L 396.123333 271.11589 
L 396.370274 270.88666 
L 396.370274 269.748694 
L 396.496316 269.973831 
L 396.496316 270.203062 
L 396.123333 270.432292 
L 395.624308 270.432292 
L 395.747778 270.432292 
L 396.370274 270.657429 
L 396.992769 271.11589 
L 396.992769 271.570258 
L 396.619786 271.570258 
L 395.747778 270.657429 
L 395.747778 270.432292 
L 395.997291 270.203062 
L 396.246803 270.432292 
L 396.246803 270.657429 
L 396.123333 271.11589 
L 395.624308 271.341027 
L 395.125283 271.11589 
L 394.502787 270.657429 
L 393.507309 269.748694 
L 392.015378 268.835866 
L 389.898378 268.152268 
L 387.531867 267.243533 
L 384.794944 267.014303 
L 381.556424 266.330705 
L 377.947494 264.509141 
L 364.628149 257.218794 
L 359.524714 255.168 
L 353.922255 252.662839 
L 348.196326 249.474079 
L 342.470396 245.830952 
L 336.991407 242.183732 
L 326.411556 234.439017 
L 321.058609 230.337429 
L 315.705663 225.556337 
L 310.229246 220.087553 
L 304.750257 215.07723 
L 299.27384 210.292045 
L 293.920893 205.281722 
L 288.817459 199.812938 
L 283.587982 193.889787 
L 278.235036 188.195866 
L 273.131602 182.272715 
L 268.27768 175.895196 
L 263.547229 169.972045 
L 253.836814 159.492938 
L 245.497432 149.92666 
L 242.135442 146.50867 
L 232.67454 138.080357 
L 229.811575 135.120828 
L 227.694576 132.157206 
L 225.953132 129.422814 
L 224.458628 127.601251 
L 223.337107 126.692516 
L 222.591142 125.779687 
L 222.218159 124.866859 
L 222.218159 124.412491 
L 222.467672 124.641722 
L 223.213637 125.096089 
L 225.827089 127.37202 
L 226.326115 127.601251 
L 226.822568 127.601251 
L 227.321593 128.055618 
L 227.571106 128.739216 
L 227.820618 129.881275 
L 228.067559 130.335643 
L 228.067559 130.79001 
L 227.571106 131.927976 
L 227.198123 132.157206 
L 226.94861 132.840804 
L 226.699098 133.295172 
L 226.575627 133.97877 
L 226.326115 134.662368 
L 226.076602 134.891598 
L 225.953132 134.43723 
L 225.827089 134.662368 
L 225.827089 134.891598 
L 225.953132 134.43723 
L 225.703619 135.120828 
L 225.580149 135.804426 
L 225.703619 136.258794 
L 226.202645 136.029563 
L 226.449585 135.575196 
L 226.449585 135.575196 
L 226.202645 135.345965 
L 226.202645 135.345965 
L 226.326115 135.804426 
L 226.326115 135.804426 
L 226.575627 135.804426 
L 226.699098 136.483931 
L 226.575627 136.942392 
L 226.575627 136.483931 
L 226.822568 135.575196 
L 226.326115 136.258794 
L 226.326115 135.575196 
L 226.202645 135.575196 
L 226.202645 136.258794 
L 226.076602 136.258794 
L 225.953132 135.575196 
L 226.202645 136.029563 
L 226.326115 136.713161 
L 226.449585 136.483931 
L 226.326115 136.258794 
L 226.326115 136.483931 
L 226.575627 136.258794 
L 226.575627 136.258794 
L 226.326115 136.029563 
L 225.953132 136.029563 
L 225.827089 136.258794 
L 226.076602 136.258794 
L 226.326115 136.029563 
L 226.575627 136.029563 
L 226.202645 136.713161 
L 226.202645 136.713161 
L 226.449585 137.167529 
L 226.449585 136.942392 
L 226.449585 136.029563 
L 225.953132 136.483931 
L 225.953132 136.483931 
L 225.703619 136.029563 
L 226.076602 135.575196 
L 226.326115 135.575196 
L 226.326115 135.575196 
L 226.202645 135.345965 
L 226.326115 134.891598 
L 226.449585 133.753632 
L 226.699098 133.753632 
L 226.699098 133.97877 
L 226.449585 133.524402 
L 226.575627 133.524402 
L 226.822568 133.753632 
L 227.07208 133.524402 
L 226.449585 133.070035 
L 226.575627 133.070035 
L 226.94861 133.070035 
L 227.07208 132.611574 
L 226.94861 132.611574 
L 226.94861 133.295172 
L 227.321593 133.97877 
L 227.445063 134.891598 
L 227.198123 133.524402 
L 226.575627 133.97877 
L 226.326115 133.753632 
L 226.326115 133.295172 
L 226.575627 134.208 
L 226.699098 134.208 
L 226.575627 134.43723 
L 226.575627 134.891598 
L 226.94861 135.120828 
L 227.198123 134.208 
L 227.321593 133.295172 
L 227.198123 133.070035 
L 226.699098 133.524402 
L 226.822568 133.070035 
L 227.198123 132.611574 
L 227.07208 132.157206 
L 226.326115 131.927976 
L 225.330636 132.386437 
L 224.085645 132.611574 
L 222.467672 132.157206 
L 220.10116 131.702839 
L 217.238195 131.473608 
L 214.125718 130.335643 
L 206.408832 126.917653 
L 201.801851 125.32532 
L 197.071399 123.958124 
L 192.340948 123.274526 
L 187.610497 122.13656 
L 182.880046 120.310904 
L 178.149594 118.26011 
L 165.702257 114.387752 
L 161.843814 112.341052 
L 153.128877 108.239464 
L 148.647939 106.18867 
L 144.416513 103.683509 
L 140.555497 101.178347 
L 136.447542 98.898323 
L 132.090073 96.847529 
L 123.501179 93.204402 
L 119.393223 91.382839 
L 115.161797 89.102814 
L 111.053842 86.597653 
L 107.195398 84.776089 
L 103.583896 83.408893 
L 99.848923 81.58733 
L 95.99048 79.307306 
L 92.631062 77.485742 
L 89.642055 76.118546 
L 86.65562 75.434948 
L 83.792655 74.980581 
L 81.05316 74.296983 
L 78.936161 73.613385 
L 76.945205 73.159017 
L 75.450701 72.475419 
L 73.956197 71.108223 
L 73.832727 70.424625 
L 73.956197 70.195395 
L 75.327231 70.195395 
L 77.318188 69.741027 
L 78.812691 70.195395 
L 79.558657 69.741027 
L 80.554135 68.828199 
L 81.675656 68.828199 
L 82.421622 69.741027 
L 82.920647 71.337454 
L 82.547664 72.016958 
L 82.421622 72.700556 
L 82.421622 72.475419 
L 82.298151 72.475419 
L 82.172109 73.159017 
L 81.426143 74.067752 
L 81.302673 74.526213 
L 81.675656 74.526213 
L 81.799126 74.296983 
L 82.671134 75.664179 
L 82.671134 75.209811 
L 82.421622 74.980581 
L 82.547664 75.209811 
L 82.547664 75.434948 
L 82.794604 75.664179 
L 83.044117 75.209811 
L 82.794604 74.980581 
L 82.671134 75.209811 
L 83.17016 75.664179 
L 83.666613 75.893409 
L 83.4171 75.893409 
L 83.29363 76.347777 
L 83.4171 76.118546 
L 83.4171 76.802144 
L 83.4171 76.802144 
L 83.792655 76.572914 
L 83.792655 76.572914 
L 84.165638 77.031375 
L 84.165638 76.802144 
L 83.916125 76.802144 
L 83.916125 76.802144 
L 84.165638 77.031375 
L 84.289108 77.485742 
L 83.792655 77.485742 
L 84.039595 76.572914 
L 83.916125 76.347777 
L 84.538621 77.485742 
L 84.538621 77.485742 
L 84.289108 77.485742 
L 84.41515 77.714973 
L 84.662091 77.714973 
L 84.538621 77.714973 
L 84.538621 77.485742 
L 84.41515 77.256512 
L 84.289108 77.485742 
L 84.289108 77.256512 
L 84.039595 76.802144 
L 84.039595 76.802144 
L 84.165638 77.485742 
L 84.538621 78.16934 
L 84.788133 78.16934 
L 85.284586 79.082169 
L 85.410629 79.082169 
L 85.410629 79.082169 
L 85.410629 78.852938 
L 85.534099 78.623708 
L 84.911604 79.765766 
L 84.911604 80.220134 
L 85.035074 80.903732 
L 84.911604 81.128869 
L 84.788133 80.903732 
L 85.035074 79.990904 
L 84.911604 79.536536 
L 84.911604 79.765766 
L 85.161116 79.990904 
L 85.410629 79.990904 
L 85.410629 79.990904 
L 85.410629 80.449364 
L 85.410629 80.220134 
L 85.284586 79.765766 
L 85.657569 80.674502 
L 85.657569 80.903732 
L 85.783612 81.358099 
L 85.783612 81.812467 
L 85.783612 81.58733 
L 85.534099 80.903732 
L 85.657569 81.128869 
L 86.156594 81.128869 
L 86.406107 80.903732 
L 86.65562 80.903732 
L 87.028603 80.674502 
L 86.90256 80.903732 
L 86.65562 80.903732 
L 86.406107 81.128869 
L 86.529577 81.58733 
L 86.77909 81.812467 
L 87.028603 81.58733 
L 86.90256 81.128869 
L 86.406107 80.674502 
L 86.156594 80.903732 
L 86.156594 81.358099 
L 86.280065 81.58733 
L 86.529577 81.358099 
L 86.529577 81.58733 
L 86.65562 81.358099 
L 86.65562 80.220134 
L 86.156594 81.128869 
L 86.406107 81.128869 
L 86.529577 80.449364 
L 86.77909 80.674502 
L 86.77909 80.903732 
L 86.280065 80.903732 
L 86.65562 81.128869 
L 86.65562 80.903732 
L 86.65562 80.903732 
L 86.77909 80.674502 
L 87.278115 80.449364 
L 87.525056 80.674502 
L 87.401585 80.903732 
L 86.90256 81.358099 
L 86.90256 81.358099 
L 86.77909 80.903732 
L 87.028603 80.674502 
L 87.525056 81.128869 
L 87.651098 81.58733 
L 87.525056 81.58733 
L 87.152073 81.358099 
L 87.278115 81.358099 
L 87.651098 81.128869 
L 87.900611 81.128869 
L 87.774568 80.903732 
L 88.397064 81.812467 
L 88.523106 81.58733 
L 88.147551 81.358099 
L 87.774568 81.358099 
L 87.525056 81.128869 
L 87.774568 80.903732 
L 88.273594 81.58733 
L 88.397064 81.358099 
L 88.397064 80.674502 
L 88.397064 81.128869 
L 88.273594 81.128869 
L 88.024081 80.903732 
L 87.774568 80.449364 
L 87.525056 80.674502 
L 87.525056 80.903732 
L 87.900611 80.903732 
L 88.646576 80.674502 
L 88.646576 81.58733 
L 88.646576 80.220134 
L 88.770047 80.674502 
L 88.770047 81.128869 
L 88.646576 80.903732 
L 88.646576 80.449364 
L 88.896089 80.449364 
L 88.896089 80.903732 
L 88.646576 81.128869 
L 88.397064 80.674502 
L 88.397064 80.220134 
L 88.646576 80.220134 
L 89.269072 80.903732 
L 89.642055 80.674502 
L 90.14108 79.990904 
L 90.637533 79.536536 
L 91.260029 79.536536 
L 92.255507 79.765766 
L 93.75001 79.990904 
L 97.361513 79.536536 
L 101.716409 79.082169 
L 104.332434 79.082169 
L 106.945886 79.765766 
L 109.808851 80.220134 
L 118.647258 80.903732 
L 124.6227 81.812467 
L 127.609135 82.725295 
L 133.584577 83.638124 
L 136.573584 84.321722 
L 139.686061 85.459687 
L 142.922009 85.914055 
L 146.157957 85.914055 
L 149.393904 86.143285 
L 152.632424 86.597653 
L 162.58978 88.648447 
L 169.933683 90.015643 
L 175.909125 91.607976 
L 181.635055 92.975172 
L 184.125037 93.433632 
L 185.992523 93.65877 
L 187.610497 94.11723 
L 188.98153 94.11723 
L 190.226521 93.888 
L 191.222 94.11723 
L 192.091435 95.255196 
L 191.967965 95.938794 
L 191.594982 96.847529 
L 190.972487 96.847529 
L 190.473462 96.393161 
L 190.100479 96.393161 
L 189.604026 97.30599 
L 188.855488 97.760357 
L 187.98348 97.531127 
L 186.988001 97.531127 
L 186.242036 97.076759 
L 185.869053 97.076759 
L 185.49607 96.847529 
L 185.120515 96.393161 
L 184.997045 95.709563 
L 185.869053 94.571598 
L 185.61954 96.163931 
L 185.61954 95.938794 
L 185.370028 95.938794 
L 185.120515 96.163931 
L 185.120515 95.938794 
L 185.120515 96.163931 
L 184.624062 97.076759 
L 184.374549 96.847529 
L 184.125037 95.709563 
L 184.125037 95.709563 
L 183.875524 95.255196 
L 183.875524 95.255196 
L 184.125037 95.255196 
L 184.374549 95.709563 
L 184.374549 94.342368 
L 184.125037 94.342368 
L 183.875524 94.571598 
L 183.875524 94.11723 
L 183.752054 94.11723 
L 183.752054 93.888 
L 183.628584 93.888 
L 183.628584 93.888 
L 182.756575 93.204402 
L 182.507063 93.204402 
L 182.633105 93.204402 
L 182.756575 92.750035 
L 182.756575 92.750035 
L 182.383593 92.750035 
L 182.13408 92.520804 
L 182.13408 92.066437 
L 182.25755 92.066437 
L 182.25755 92.520804 
L 182.01061 92.520804 
L 181.761097 92.291574 
L 181.761097 92.520804 
L 181.884567 92.975172 
L 181.761097 93.65877 
L 181.884567 93.65877 
L 182.13408 93.204402 
L 182.13408 92.520804 
L 181.884567 92.520804 
L 181.635055 93.204402 
L 181.511584 93.204402 
L 181.511584 93.204402 
L 181.635055 93.433632 
L 181.884567 93.433632 
L 182.633105 93.888 
L 182.383593 94.11723 
L 181.761097 94.571598 
L 181.511584 93.433632 
L 181.388114 93.65877 
L 181.511584 93.888 
L 181.388114 93.888 
L 181.138602 93.888 
L 181.012559 93.433632 
L 181.262072 93.204402 
L 181.262072 93.888 
L 181.138602 94.571598 
L 180.889089 94.342368 
L 180.889089 93.65877 
L 180.765619 93.65877 
L 180.765619 92.520804 
L 180.889089 92.520804 
L 180.889089 93.204402 
L 180.889089 93.204402 
L 181.262072 92.750035 
L 181.262072 92.975172 
L 180.889089 92.975172 
L 180.390064 93.433632 
L 180.390064 93.204402 
L 180.266594 93.204402 
L 180.143123 93.433632 
L 180.143123 93.888 
L 180.390064 94.342368 
L 180.390064 93.888 
L 180.017081 93.888 
L 179.520628 94.11723 
L 179.767568 93.433632 
L 180.017081 93.204402 
L 179.893611 93.65877 
L 179.644098 94.11723 
L 179.767568 94.571598 
L 179.893611 94.571598 
L 179.767568 94.342368 
L 179.394585 94.342368 
L 179.520628 94.342368 
L 179.644098 94.11723 
L 179.520628 93.65877 
L 179.644098 93.204402 
L 179.644098 93.65877 
L 179.520628 93.888 
L 179.271115 93.65877 
L 179.021603 93.204402 
L 178.77209 93.204402 
L 178.77209 93.888 
L 178.898132 94.571598 
L 179.021603 94.571598 
L 179.271115 94.11723 
L 179.271115 93.65877 
L 179.767568 92.975172 
L 180.017081 92.750035 
L 180.266594 93.433632 
L 180.889089 93.888 
L 182.01061 94.11723 
L 183.379071 94.11723 
L 185.370028 94.571598 
L 187.98348 95.480333 
L 190.972487 96.163931 
L 193.958922 96.163931 
L 197.197442 95.480333 
L 200.806372 95.709563 
L 204.541345 96.393161 
L 212.258231 98.673186 
L 215.869734 99.581921 
L 219.604707 100.036288 
L 223.090167 100.949117 
L 226.449585 102.316313 
L 232.175514 104.821474 
L 234.915009 105.734303 
L 237.777974 106.417901 
L 240.890451 106.417901 
L 244.126399 107.326636 
L 246.989364 108.923062 
L 249.728858 109.831797 
L 252.21884 110.061027 
L 257.198804 110.061027 
L 259.688786 110.744625 
L 261.929255 111.657454 
L 264.043682 112.111821 
L 266.037211 111.882591 
L 268.028168 110.973856 
L 269.769612 111.198993 
L 271.264115 112.795419 
L 272.509106 114.387752 
L 273.257644 114.846213 
L 273.754097 115.300581 
L 273.504584 115.07135 
L 273.008131 115.300581 
L 272.509106 115.754948 
L 272.136123 116.667777 
L 271.886611 117.805742 
L 271.264115 118.26011 
L 269.646141 118.26011 
L 268.527193 117.805742 
L 268.028168 118.034973 
L 267.529142 118.48934 
L 267.156159 118.48934 
L 266.906647 118.943708 
L 266.906647 119.402169 
L 266.160681 120.310904 
L 266.160681 120.769364 
L 265.787698 121.223732 
L 265.661656 121.452962 
L 265.538186 121.223732 
L 265.288673 121.452962 
L 265.165203 121.90733 
L 265.165203 122.816065 
L 265.288673 123.499663 
L 265.165203 123.499663 
L 264.91569 122.361697 
L 264.169724 122.361697 
L 264.043682 122.816065 
L 263.920212 122.816065 
L 263.796742 122.590928 
L 263.920212 122.361697 
L 264.043682 122.590928 
L 263.920212 123.499663 
L 263.670699 123.728893 
L 263.174246 123.728893 
L 262.798691 123.499663 
L 262.425708 123.045295 
L 262.551751 122.816065 
L 262.798691 123.045295 
L 262.798691 123.274526 
L 262.425708 123.499663 
L 262.176196 123.499663 
L 262.176196 123.274526 
L 262.425708 123.045295 
L 262.052725 123.274526 
L 261.679743 123.274526 
L 261.30676 124.183261 
L 261.43023 124.412491 
L 261.180717 123.958124 
L 260.931205 123.958124 
L 260.558222 124.412491 
L 260.684264 124.641722 
L 260.684264 125.096089 
L 260.434752 124.412491 
L 260.558222 123.958124 
L 260.931205 123.728893 
L 260.931205 123.958124 
L 260.558222 123.958124 
L 260.061769 123.499663 
L 259.812256 123.045295 
L 260.311281 124.183261 
L 260.061769 124.866859 
L 259.688786 125.32532 
L 259.688786 123.045295 
L 259.812256 122.816065 
L 259.439273 123.274526 
L 259.06629 123.499663 
L 259.313231 123.958124 
L 259.189761 124.641722 
L 259.06629 124.641722 
L 259.06629 124.183261 
L 258.940248 124.183261 
L 258.940248 123.728893 
L 259.06629 123.274526 
L 259.313231 123.045295 
L 259.189761 123.274526 
L 258.816778 123.958124 
L 258.567265 124.866859 
L 258.443795 124.412491 
L 258.567265 124.412491 
L 258.567265 124.641722 
L 258.317752 124.866859 
L 258.194282 124.412491 
L 258.194282 123.728893 
L 258.317752 123.958124 
L 258.443795 124.641722 
L 258.317752 125.096089 
L 258.194282 125.096089 
L 258.194282 125.779687 
L 258.06824 126.008918 
L 258.443795 125.32532 
L 258.690735 125.32532 
L 258.567265 125.550457 
L 258.194282 125.779687 
L 258.194282 125.550457 
L 258.443795 124.866859 
L 258.317752 124.412491 
L 257.94477 124.412491 
L 257.571787 124.641722 
L 257.322274 124.641722 
L 257.322274 124.641722 
L 257.821299 125.32532 
L 258.06824 125.32532 
L 258.194282 124.866859 
L 257.94477 124.866859 
L 257.571787 125.32532 
L 257.198804 126.692516 
L 256.823249 126.463285 
L 257.322274 126.692516 
L 257.445744 126.463285 
L 257.445744 126.692516 
L 257.821299 126.692516 
L 257.072762 126.692516 
L 256.823249 126.463285 
L 257.072762 126.463285 
L 257.198804 126.917653 
L 257.198804 127.601251 
L 256.699779 126.917653 
L 256.450266 126.917653 
L 256.326796 127.146883 
L 256.699779 127.37202 
L 257.198804 127.146883 
L 256.949291 127.146883 
L 256.326796 127.146883 
L 256.077283 126.917653 
L 256.077283 126.692516 
L 256.077283 126.692516 
L 256.203326 126.917653 
L 256.203326 127.37202 
L 256.326796 127.37202 
L 256.326796 127.37202 
L 256.077283 127.146883 
L 255.205275 127.146883 
L 255.205275 126.692516 
L 255.454788 126.234055 
L 255.7043 126.008918 
L 255.7043 126.692516 
L 255.953813 127.830481 
L 255.827771 127.601251 
L 255.7043 127.146883 
L 255.827771 126.917653 
L 256.077283 126.692516 
L 256.576308 126.692516 
L 257.198804 126.917653 
L 257.94477 127.601251 
L 258.940248 127.601251 
L 260.061769 126.692516 
L 261.43023 126.008918 
L 262.675221 126.692516 
L 263.670699 127.37202 
L 265.03916 128.055618 
L 266.906647 128.514079 
L 270.268637 128.968447 
L 271.513628 129.197677 
L 273.008131 129.197677 
L 275.248601 129.652045 
L 275.994566 130.106412 
L 276.743104 129.881275 
L 277.239557 130.106412 
L 278.484548 131.019241 
L 279.230514 130.564873 
L 279.606069 130.335643 
L 280.102522 130.335643 
L 280.475505 130.564873 
L 280.475505 130.335643 
L 280.102522 130.106412 
L 279.729539 130.564873 
L 279.853009 131.248471 
L 280.352035 132.157206 
L 279.230514 132.157206 
L 278.734061 132.386437 
L 278.361078 132.157206 
L 277.985523 132.157206 
L 277.862053 132.611574 
L 277.862053 133.295172 
L 277.3656 134.43723 
L 276.866575 134.43723 
L 276.743104 134.662368 
L 276.990045 134.662368 
L 277.239557 134.891598 
L 277.3656 135.575196 
L 277.116087 136.029563 
L 276.367549 133.97877 
L 276.367549 134.208 
L 276.493592 134.662368 
L 276.743104 134.891598 
L 276.743104 135.120828 
L 276.493592 135.120828 
L 276.617062 135.345965 
L 276.244079 135.345965 
L 276.244079 135.345965 
L 276.244079 135.120828 
L 276.120609 134.891598 
L 276.120609 135.120828 
L 276.244079 135.575196 
L 276.120609 136.029563 
L 275.745054 136.713161 
L 275.745054 135.575196 
L 275.498113 135.575196 
L 275.248601 136.258794 
L 275.498113 136.029563 
L 275.745054 135.575196 
L 275.994566 135.575196 
L 275.871096 135.804426 
L 275.621584 135.575196 
L 275.372071 134.662368 
L 275.372071 134.662368 
L 275.122558 135.804426 
L 275.122558 136.258794 
L 274.999088 136.713161 
L 274.875618 136.713161 
L 274.875618 136.258794 
L 274.749575 136.258794 
L 274.749575 136.029563 
L 275.372071 135.345965 
L 275.372071 135.575196 
L 275.122558 136.029563 
L 274.875618 136.029563 
L 274.875618 136.029563 
L 274.500063 136.483931 
L 274.500063 136.483931 
L 274.376593 136.258794 
L 274.376593 136.258794 
L 274.500063 136.029563 
L 274.875618 135.804426 
L 275.248601 135.804426 
L 275.122558 136.483931 
L 274.749575 136.713161 
L 274.376593 136.258794 
L 274.376593 135.345965 
L 274.00361 136.483931 
L 274.12708 136.483931 
L 274.253122 136.483931 
L 274.253122 136.942392 
L 274.00361 135.804426 
L 273.754097 135.804426 
L 273.630627 135.575196 
L 273.630627 135.804426 
L 273.754097 136.713161 
L 273.630627 136.713161 
L 273.257644 136.483931 
L 273.008131 136.483931 
L 273.008131 137.167529 
L 273.131602 136.713161 
L 273.131602 136.713161 
L 273.131602 138.309588 
L 273.008131 138.534725 
L 273.008131 138.309588 
L 273.008131 137.851127 
L 272.882089 137.396759 
L 272.758619 137.396759 
L 272.758619 137.851127 
L 272.882089 138.080357 
L 273.008131 137.851127 
L 272.635149 138.309588 
L 272.259593 137.851127 
L 272.259593 138.080357 
L 272.259593 138.534725 
L 272.509106 138.763955 
L 272.882089 138.534725 
L 273.008131 138.309588 
L 272.758619 138.080357 
L 272.259593 138.080357 
L 272.136123 138.309588 
L 272.259593 138.534725 
L 272.385636 138.309588 
L 272.635149 137.62599 
L 272.635149 137.167529 
L 272.635149 137.396759 
L 272.882089 138.534725 
L 273.131602 138.993186 
L 273.008131 138.080357 
L 272.509106 137.62599 
L 272.136123 137.851127 
L 272.259593 138.080357 
L 273.131602 138.080357 
L 273.008131 138.080357 
L 273.008131 138.309588 
L 272.635149 138.534725 
L 272.635149 138.080357 
L 272.509106 137.851127 
L 272.259593 138.993186 
L 272.259593 139.447553 
L 272.385636 139.218323 
L 272.385636 139.447553 
L 272.385636 139.901921 
L 272.136123 140.131151 
L 271.886611 140.131151 
L 271.76314 139.901921 
L 271.76314 139.901921 
L 272.012653 139.218323 
L 272.136123 139.676784 
L 272.259593 140.585519 
L 272.259593 140.585519 
L 272.259593 139.676784 
L 272.136123 139.218323 
L 272.012653 139.901921 
L 272.012653 139.676784 
L 272.012653 140.360382 
L 272.136123 141.498347 
L 271.637098 141.498347 
L 271.390158 141.269117 
L 271.513628 140.360382 
L 272.136123 138.763955 
L 271.886611 139.218323 
L 271.886611 140.131151 
L 272.012653 140.585519 
L 271.76314 140.814749 
L 271.513628 140.585519 
L 271.513628 139.676784 
L 271.76314 139.218323 
L 271.886611 139.447553 
L 272.136123 139.447553 
L 272.385636 138.763955 
L 272.136123 139.676784 
L 272.259593 139.218323 
L 272.509106 139.218323 
L 272.509106 138.534725 
L 272.259593 138.309588 
L 271.886611 138.534725 
L 272.012653 138.080357 
L 272.635149 137.167529 
L 272.509106 137.396759 
L 272.136123 137.396759 
L 270.767662 135.575196 
L 269.646141 135.120828 
L 268.151638 135.120828 
L 264.79222 133.524402 
L 262.425708 133.070035 
L 259.313231 132.840804 
L 246.616381 131.248471 
L 241.88593 129.881275 
L 237.032008 128.284849 
L 227.198123 126.917653 
L 216.988682 125.096089 
L 211.885248 123.728893 
L 206.658344 121.90733 
L 201.67838 119.856536 
L 196.821887 118.034973 
L 182.633105 112.111821 
L 178.275637 109.60666 
L 174.291151 106.872268 
L 170.183196 104.367107 
L 165.825727 102.316313 
L 161.221318 99.811151 
L 156.74038 96.622392 
L 152.382912 92.975172 
L 147.65246 89.332045 
L 138.441071 83.638124 
L 129.353151 77.256512 
L 124.74617 74.296983 
L 120.141761 71.562591 
L 115.65825 69.511797 
L 111.676337 68.373831 
L 108.064834 67.006636 
L 104.954929 64.730705 
L 99.601982 61.312715 
L 94.745489 58.807553 
L 94.122993 58.123955 
L 93.75001 57.211127 
L 93.75001 55.843931 
L 94.122993 54.705965 
L 94.871531 53.793137 
L 95.740967 53.568 
L 96.862488 53.793137 
L 99.47594 53.793137 
L 100.597461 54.022368 
L 100.970444 54.476735 
L 101.965922 54.476735 
L 102.464947 54.705965 
L 102.711888 54.935196 
L 102.83793 55.160333 
L 102.588417 57.211127 
L 102.588417 57.211127 
L 102.464947 56.98599 
L 102.464947 56.98599 
L 101.592939 58.123955 
L 100.720931 58.123955 
L 101.219956 58.807553 
L 101.343426 58.807553 
L 101.093914 58.807553 
L 101.219956 59.03269 
L 101.469469 58.807553 
L 101.343426 58.349092 
L 101.219956 58.807553 
L 101.343426 58.807553 
L 101.592939 59.261921 
L 101.592939 59.716288 
L 101.219956 59.261921 
L 101.093914 59.261921 
L 101.219956 59.03269 
L 102.215435 59.03269 
L 102.215435 59.945519 
L 102.338905 59.945519 
L 102.338905 59.716288 
L 102.089392 59.716288 
L 101.842452 60.399886 
L 102.464947 60.399886 
L 102.711888 60.629117 
L 102.711888 60.858347 
L 101.842452 62.45068 
L 102.089392 62.225543 
L 102.464947 62.225543 
L 102.711888 62.679911 
L 102.711888 63.134278 
L 102.588417 63.363509 
L 102.464947 62.905048 
L 102.464947 62.45068 
L 102.588417 62.679911 
L 102.588417 63.363509 
L 102.711888 63.588646 
L 103.210913 63.817876 
L 103.087443 63.363509 
L 102.338905 62.905048 
L 102.464947 62.45068 
L 102.711888 61.996313 
L 103.087443 62.45068 
L 103.460426 62.45068 
L 103.833408 62.679911 
L 103.833408 63.134278 
L 103.460426 63.588646 
L 102.9614 63.588646 
L 102.588417 62.679911 
L 102.588417 62.45068 
L 103.087443 63.588646 
L 103.334383 63.363509 
L 103.460426 62.905048 
L 103.583896 62.905048 
L 103.583896 63.363509 
L 103.460426 63.363509 
L 103.210913 63.588646 
L 102.9614 64.047107 
L 103.087443 64.955842 
L 103.334383 64.955842 
L 103.956879 64.047107 
L 104.082921 64.501474 
L 104.206391 64.501474 
L 104.082921 64.272244 
L 103.210913 64.272244 
L 103.334383 64.047107 
L 103.709938 64.501474 
L 103.956879 63.817876 
L 104.332434 63.817876 
L 104.705417 64.501474 
L 104.705417 65.414303 
L 104.455904 65.414303 
L 103.709938 63.817876 
L 104.206391 64.730705 
L 104.332434 64.730705 
L 104.455904 65.414303 
L 104.206391 65.63944 
L 104.206391 65.63944 
L 104.206391 65.185072 
L 104.455904 64.047107 
L 104.705417 64.047107 
L 104.828887 64.272244 
L 104.705417 64.730705 
L 104.705417 65.414303 
L 104.954929 65.414303 
L 105.20187 65.63944 
L 104.954929 65.63944 
L 104.828887 65.86867 
L 105.451382 66.323038 
L 105.577425 66.323038 
L 105.451382 66.323038 
L 105.451382 66.097901 
L 105.700895 66.323038 
L 105.577425 66.552268 
L 105.078399 66.323038 
L 104.705417 66.323038 
L 104.579374 66.552268 
L 105.078399 67.006636 
L 105.20187 67.690234 
L 105.451382 67.006636 
L 104.954929 68.144601 
L 104.954929 68.603062 
L 105.20187 68.828199 
L 105.327912 68.603062 
L 105.327912 68.144601 
L 105.20187 67.690234 
L 105.20187 67.235866 
L 105.078399 67.235866 
L 105.078399 67.235866 
L 105.078399 67.690234 
L 105.327912 67.919464 
L 105.700895 67.919464 
L 105.950407 68.144601 
L 105.950407 68.373831 
L 105.950407 68.144601 
L 106.073878 68.144601 
L 106.44686 67.690234 
L 106.572903 68.144601 
L 106.073878 68.828199 
L 106.073878 68.828199 
L 105.451382 68.373831 
L 105.700895 67.919464 
L 106.19992 67.461003 
L 106.572903 67.919464 
L 106.696373 68.373831 
L 105.950407 69.28666 
L 105.950407 69.28666 
L 106.073878 68.603062 
L 106.073878 67.235866 
L 106.19992 67.461003 
L 106.572903 69.057429 
L 106.19992 68.828199 
L 106.073878 68.373831 
L 106.44686 68.373831 
L 106.32339 68.144601 
L 105.824365 67.690234 
L 105.950407 68.373831 
L 106.44686 69.057429 
L 106.819843 69.057429 
L 106.945886 68.144601 
L 106.819843 68.373831 
L 106.44686 68.603062 
L 105.824365 67.235866 
L 106.572903 67.235866 
L 107.195398 66.781498 
L 107.318869 66.552268 
L 107.069356 67.006636 
L 106.819843 67.235866 
L 106.572903 66.552268 
L 106.19992 66.552268 
L 106.073878 66.781498 
L 106.073878 67.235866 
L 106.32339 67.690234 
L 106.44686 67.461003 
L 106.819843 67.235866 
L 107.195398 66.781498 
L 107.069356 67.235866 
L 106.696373 67.461003 
L 106.19992 67.006636 
L 106.19992 66.097901 
L 106.572903 65.63944 
L 106.945886 66.097901 
L 106.945886 66.097901 
" style="fill:none;stroke:#1f77b4;stroke-linecap:square;stroke-width:1.5;"/>
   </g>
   <g id="matplotlib.axis_1">
    <g id="xtick_1">
     <g id="line2d_2">
      <defs>
       <path d="M 0 0 
L 0 3.5 
" id="m762081411a" style="stroke:#000000;stroke-width:0.8;"/>
      </defs>
      <g>
       <use style="stroke:#000000;stroke-width:0.8;" x="72.019259" xlink:href="#m762081411a" y="307.584"/>
      </g>
     </g>
     <g id="text_1">
      <!-- −600 -->
      <defs>
       <path d="M 10.59375 35.5 
L 73.1875 35.5 
L 73.1875 27.203125 
L 10.59375 27.203125 
z
" id="DejaVuSans-8722"/>
       <path d="M 33.015625 40.375 
Q 26.375 40.375 22.484375 35.828125 
Q 18.609375 31.296875 18.609375 23.390625 
Q 18.609375 15.53125 22.484375 10.953125 
Q 26.375 6.390625 33.015625 6.390625 
Q 39.65625 6.390625 43.53125 10.953125 
Q 47.40625 15.53125 47.40625 23.390625 
Q 47.40625 31.296875 43.53125 35.828125 
Q 39.65625 40.375 33.015625 40.375 
z
M 52.59375 71.296875 
L 52.59375 62.3125 
Q 48.875 64.0625 45.09375 64.984375 
Q 41.3125 65.921875 37.59375 65.921875 
Q 27.828125 65.921875 22.671875 59.328125 
Q 17.53125 52.734375 16.796875 39.40625 
Q 19.671875 43.65625 24.015625 45.921875 
Q 28.375 48.1875 33.59375 48.1875 
Q 44.578125 48.1875 50.953125 41.515625 
Q 57.328125 34.859375 57.328125 23.390625 
Q 57.328125 12.15625 50.6875 5.359375 
Q 44.046875 -1.421875 33.015625 -1.421875 
Q 20.359375 -1.421875 13.671875 8.265625 
Q 6.984375 17.96875 6.984375 36.375 
Q 6.984375 53.65625 15.1875 63.9375 
Q 23.390625 74.21875 37.203125 74.21875 
Q 40.921875 74.21875 44.703125 73.484375 
Q 48.484375 72.75 52.59375 71.296875 
z
" id="DejaVuSans-54"/>
       <path d="M 31.78125 66.40625 
Q 24.171875 66.40625 20.328125 58.90625 
Q 16.5 51.421875 16.5 36.375 
Q 16.5 21.390625 20.328125 13.890625 
Q 24.171875 6.390625 31.78125 6.390625 
Q 39.453125 6.390625 43.28125 13.890625 
Q 47.125 21.390625 47.125 36.375 
Q 47.125 51.421875 43.28125 58.90625 
Q 39.453125 66.40625 31.78125 66.40625 
z
M 31.78125 74.21875 
Q 44.046875 74.21875 50.515625 64.515625 
Q 56.984375 54.828125 56.984375 36.375 
Q 56.984375 17.96875 50.515625 8.265625 
Q 44.046875 -1.421875 31.78125 -1.421875 
Q 19.53125 -1.421875 13.0625 8.265625 
Q 6.59375 17.96875 6.59375 36.375 
Q 6.59375 54.828125 13.0625 64.515625 
Q 19.53125 74.21875 31.78125 74.21875 
z
" id="DejaVuSans-48"/>
      </defs>
      <g transform="translate(58.285665 322.182437)scale(0.1 -0.1)">
       <use xlink:href="#DejaVuSans-8722"/>
       <use x="83.789062" xlink:href="#DejaVuSans-54"/>
       <use x="147.412109" xlink:href="#DejaVuSans-48"/>
       <use x="211.035156" xlink:href="#DejaVuSans-48"/>
      </g>
     </g>
    </g>
    <g id="xtick_2">
     <g id="line2d_3">
      <g>
       <use style="stroke:#000000;stroke-width:0.8;" x="123.465167" xlink:href="#m762081411a" y="307.584"/>
      </g>
     </g>
     <g id="text_2">
      <!-- −400 -->
      <defs>
       <path d="M 37.796875 64.3125 
L 12.890625 25.390625 
L 37.796875 25.390625 
z
M 35.203125 72.90625 
L 47.609375 72.90625 
L 47.609375 25.390625 
L 58.015625 25.390625 
L 58.015625 17.1875 
L 47.609375 17.1875 
L 47.609375 0 
L 37.796875 0 
L 37.796875 17.1875 
L 4.890625 17.1875 
L 4.890625 26.703125 
z
" id="DejaVuSans-52"/>
      </defs>
      <g transform="translate(109.731573 322.182437)scale(0.1 -0.1)">
       <use xlink:href="#DejaVuSans-8722"/>
       <use x="83.789062" xlink:href="#DejaVuSans-52"/>
       <use x="147.412109" xlink:href="#DejaVuSans-48"/>
       <use x="211.035156" xlink:href="#DejaVuSans-48"/>
      </g>
     </g>
    </g>
    <g id="xtick_3">
     <g id="line2d_4">
      <g>
       <use style="stroke:#000000;stroke-width:0.8;" x="174.911075" xlink:href="#m762081411a" y="307.584"/>
      </g>
     </g>
     <g id="text_3">
      <!-- −200 -->
      <defs>
       <path d="M 19.1875 8.296875 
L 53.609375 8.296875 
L 53.609375 0 
L 7.328125 0 
L 7.328125 8.296875 
Q 12.9375 14.109375 22.625 23.890625 
Q 32.328125 33.6875 34.8125 36.53125 
Q 39.546875 41.84375 41.421875 45.53125 
Q 43.3125 49.21875 43.3125 52.78125 
Q 43.3125 58.59375 39.234375 62.25 
Q 35.15625 65.921875 28.609375 65.921875 
Q 23.96875 65.921875 18.8125 64.3125 
Q 13.671875 62.703125 7.8125 59.421875 
L 7.8125 69.390625 
Q 13.765625 71.78125 18.9375 73 
Q 24.125 74.21875 28.421875 74.21875 
Q 39.75 74.21875 46.484375 68.546875 
Q 53.21875 62.890625 53.21875 53.421875 
Q 53.21875 48.921875 51.53125 44.890625 
Q 49.859375 40.875 45.40625 35.40625 
Q 44.1875 33.984375 37.640625 27.21875 
Q 31.109375 20.453125 19.1875 8.296875 
z
" id="DejaVuSans-50"/>
      </defs>
      <g transform="translate(161.177481 322.182437)scale(0.1 -0.1)">
       <use xlink:href="#DejaVuSans-8722"/>
       <use x="83.789062" xlink:href="#DejaVuSans-50"/>
       <use x="147.412109" xlink:href="#DejaVuSans-48"/>
       <use x="211.035156" xlink:href="#DejaVuSans-48"/>
      </g>
     </g>
    </g>
    <g id="xtick_4">
     <g id="line2d_5">
      <g>
       <use style="stroke:#000000;stroke-width:0.8;" x="226.356982" xlink:href="#m762081411a" y="307.584"/>
      </g>
     </g>
     <g id="text_4">
      <!-- 0 -->
      <g transform="translate(223.175732 322.182437)scale(0.1 -0.1)">
       <use xlink:href="#DejaVuSans-48"/>
      </g>
     </g>
    </g>
    <g id="xtick_5">
     <g id="line2d_6">
      <g>
       <use style="stroke:#000000;stroke-width:0.8;" x="277.80289" xlink:href="#m762081411a" y="307.584"/>
      </g>
     </g>
     <g id="text_5">
      <!-- 200 -->
      <g transform="translate(268.25914 322.182437)scale(0.1 -0.1)">
       <use xlink:href="#DejaVuSans-50"/>
       <use x="63.623047" xlink:href="#DejaVuSans-48"/>
       <use x="127.246094" xlink:href="#DejaVuSans-48"/>
      </g>
     </g>
    </g>
    <g id="xtick_6">
     <g id="line2d_7">
      <g>
       <use style="stroke:#000000;stroke-width:0.8;" x="329.248798" xlink:href="#m762081411a" y="307.584"/>
      </g>
     </g>
     <g id="text_6">
      <!-- 400 -->
      <g transform="translate(319.705048 322.182437)scale(0.1 -0.1)">
       <use xlink:href="#DejaVuSans-52"/>
       <use x="63.623047" xlink:href="#DejaVuSans-48"/>
       <use x="127.246094" xlink:href="#DejaVuSans-48"/>
      </g>
     </g>
    </g>
    <g id="xtick_7">
     <g id="line2d_8">
      <g>
       <use style="stroke:#000000;stroke-width:0.8;" x="380.694706" xlink:href="#m762081411a" y="307.584"/>
      </g>
     </g>
     <g id="text_7">
      <!-- 600 -->
      <g transform="translate(371.150956 322.182437)scale(0.1 -0.1)">
       <use xlink:href="#DejaVuSans-54"/>
       <use x="63.623047" xlink:href="#DejaVuSans-48"/>
       <use x="127.246094" xlink:href="#DejaVuSans-48"/>
      </g>
     </g>
    </g>
   </g>
   <g id="matplotlib.axis_2">
    <g id="ytick_1">
     <g id="line2d_9">
      <defs>
       <path d="M 0 0 
L -3.5 0 
" id="m43b365af18" style="stroke:#000000;stroke-width:0.8;"/>
      </defs>
      <g>
       <use style="stroke:#000000;stroke-width:0.8;" x="57.6" xlink:href="#m43b365af18" y="275.524483"/>
      </g>
     </g>
     <g id="text_8">
      <!-- −700 -->
      <defs>
       <path d="M 8.203125 72.90625 
L 55.078125 72.90625 
L 55.078125 68.703125 
L 28.609375 0 
L 18.3125 0 
L 43.21875 64.59375 
L 8.203125 64.59375 
z
" id="DejaVuSans-55"/>
      </defs>
      <g transform="translate(23.132812 279.323702)scale(0.1 -0.1)">
       <use xlink:href="#DejaVuSans-8722"/>
       <use x="83.789062" xlink:href="#DejaVuSans-55"/>
       <use x="147.412109" xlink:href="#DejaVuSans-48"/>
       <use x="211.035156" xlink:href="#DejaVuSans-48"/>
      </g>
     </g>
    </g>
    <g id="ytick_2">
     <g id="line2d_10">
      <g>
       <use style="stroke:#000000;stroke-width:0.8;" x="57.6" xlink:href="#m43b365af18" y="234.590473"/>
      </g>
     </g>
     <g id="text_9">
      <!-- −600 -->
      <g transform="translate(23.132812 238.389692)scale(0.1 -0.1)">
       <use xlink:href="#DejaVuSans-8722"/>
       <use x="83.789062" xlink:href="#DejaVuSans-54"/>
       <use x="147.412109" xlink:href="#DejaVuSans-48"/>
       <use x="211.035156" xlink:href="#DejaVuSans-48"/>
      </g>
     </g>
    </g>
    <g id="ytick_3">
     <g id="line2d_11">
      <g>
       <use style="stroke:#000000;stroke-width:0.8;" x="57.6" xlink:href="#m43b365af18" y="193.656463"/>
      </g>
     </g>
     <g id="text_10">
      <!-- −500 -->
      <defs>
       <path d="M 10.796875 72.90625 
L 49.515625 72.90625 
L 49.515625 64.59375 
L 19.828125 64.59375 
L 19.828125 46.734375 
Q 21.96875 47.46875 24.109375 47.828125 
Q 26.265625 48.1875 28.421875 48.1875 
Q 40.625 48.1875 47.75 41.5 
Q 54.890625 34.8125 54.890625 23.390625 
Q 54.890625 11.625 47.5625 5.09375 
Q 40.234375 -1.421875 26.90625 -1.421875 
Q 22.3125 -1.421875 17.546875 -0.640625 
Q 12.796875 0.140625 7.71875 1.703125 
L 7.71875 11.625 
Q 12.109375 9.234375 16.796875 8.0625 
Q 21.484375 6.890625 26.703125 6.890625 
Q 35.15625 6.890625 40.078125 11.328125 
Q 45.015625 15.765625 45.015625 23.390625 
Q 45.015625 31 40.078125 35.4375 
Q 35.15625 39.890625 26.703125 39.890625 
Q 22.75 39.890625 18.8125 39.015625 
Q 14.890625 38.140625 10.796875 36.28125 
z
" id="DejaVuSans-53"/>
      </defs>
      <g transform="translate(23.132812 197.455682)scale(0.1 -0.1)">
       <use xlink:href="#DejaVuSans-8722"/>
       <use x="83.789062" xlink:href="#DejaVuSans-53"/>
       <use x="147.412109" xlink:href="#DejaVuSans-48"/>
       <use x="211.035156" xlink:href="#DejaVuSans-48"/>
      </g>
     </g>
    </g>
    <g id="ytick_4">
     <g id="line2d_12">
      <g>
       <use style="stroke:#000000;stroke-width:0.8;" x="57.6" xlink:href="#m43b365af18" y="152.722453"/>
      </g>
     </g>
     <g id="text_11">
      <!-- −400 -->
      <g transform="translate(23.132812 156.521672)scale(0.1 -0.1)">
       <use xlink:href="#DejaVuSans-8722"/>
       <use x="83.789062" xlink:href="#DejaVuSans-52"/>
       <use x="147.412109" xlink:href="#DejaVuSans-48"/>
       <use x="211.035156" xlink:href="#DejaVuSans-48"/>
      </g>
     </g>
    </g>
    <g id="ytick_5">
     <g id="line2d_13">
      <g>
       <use style="stroke:#000000;stroke-width:0.8;" x="57.6" xlink:href="#m43b365af18" y="111.788443"/>
      </g>
     </g>
     <g id="text_12">
      <!-- −300 -->
      <defs>
       <path d="M 40.578125 39.3125 
Q 47.65625 37.796875 51.625 33 
Q 55.609375 28.21875 55.609375 21.1875 
Q 55.609375 10.40625 48.1875 4.484375 
Q 40.765625 -1.421875 27.09375 -1.421875 
Q 22.515625 -1.421875 17.65625 -0.515625 
Q 12.796875 0.390625 7.625 2.203125 
L 7.625 11.71875 
Q 11.71875 9.328125 16.59375 8.109375 
Q 21.484375 6.890625 26.8125 6.890625 
Q 36.078125 6.890625 40.9375 10.546875 
Q 45.796875 14.203125 45.796875 21.1875 
Q 45.796875 27.640625 41.28125 31.265625 
Q 36.765625 34.90625 28.71875 34.90625 
L 20.21875 34.90625 
L 20.21875 43.015625 
L 29.109375 43.015625 
Q 36.375 43.015625 40.234375 45.921875 
Q 44.09375 48.828125 44.09375 54.296875 
Q 44.09375 59.90625 40.109375 62.90625 
Q 36.140625 65.921875 28.71875 65.921875 
Q 24.65625 65.921875 20.015625 65.03125 
Q 15.375 64.15625 9.8125 62.3125 
L 9.8125 71.09375 
Q 15.4375 72.65625 20.34375 73.4375 
Q 25.25 74.21875 29.59375 74.21875 
Q 40.828125 74.21875 47.359375 69.109375 
Q 53.90625 64.015625 53.90625 55.328125 
Q 53.90625 49.265625 50.4375 45.09375 
Q 46.96875 40.921875 40.578125 39.3125 
z
" id="DejaVuSans-51"/>
      </defs>
      <g transform="translate(23.132812 115.587661)scale(0.1 -0.1)">
       <use xlink:href="#DejaVuSans-8722"/>
       <use x="83.789062" xlink:href="#DejaVuSans-51"/>
       <use x="147.412109" xlink:href="#DejaVuSans-48"/>
       <use x="211.035156" xlink:href="#DejaVuSans-48"/>
      </g>
     </g>
    </g>
    <g id="ytick_6">
     <g id="line2d_14">
      <g>
       <use style="stroke:#000000;stroke-width:0.8;" x="57.6" xlink:href="#m43b365af18" y="70.854432"/>
      </g>
     </g>
     <g id="text_13">
      <!-- −200 -->
      <g transform="translate(23.132812 74.653651)scale(0.1 -0.1)">
       <use xlink:href="#DejaVuSans-8722"/>
       <use x="83.789062" xlink:href="#DejaVuSans-50"/>
       <use x="147.412109" xlink:href="#DejaVuSans-48"/>
       <use x="211.035156" xlink:href="#DejaVuSans-48"/>
      </g>
     </g>
    </g>
   </g>
   <g id="line2d_15">
    <path clip-path="url(#p1d021874db)" d="M 395.740397 283.427435 
L 226.622114 134.123002 
L 85.646139 78.322771 
L 182.476355 94.123243 
L 260.722064 123.496031 
L 273.723134 136.394061 
L 103.92589 63.937256 
" style="fill:none;stroke:#ff0000;stroke-linecap:square;stroke-width:0.5;"/>
   </g>
   <g id="patch_3">
    <path d="M 57.6 307.584 
L 57.6 41.472 
" style="fill:none;stroke:#000000;stroke-linecap:square;stroke-linejoin:miter;stroke-width:0.8;"/>
   </g>
   <g id="patch_4">
    <path d="M 414.72 307.584 
L 414.72 41.472 
" style="fill:none;stroke:#000000;stroke-linecap:square;stroke-linejoin:miter;stroke-width:0.8;"/>
   </g>
   <g id="patch_5">
    <path d="M 57.6 307.584 
L 414.72 307.584 
" style="fill:none;stroke:#000000;stroke-linecap:square;stroke-linejoin:miter;stroke-width:0.8;"/>
   </g>
   <g id="patch_6">
    <path d="M 57.6 41.472 
L 414.72 41.472 
" style="fill:none;stroke:#000000;stroke-linecap:square;stroke-linejoin:miter;stroke-width:0.8;"/>
   </g>
   <g id="PathCollection_1">
    <defs>
     <path d="M 0 2.738613 
C 0.726289 2.738613 1.422928 2.450055 1.936492 1.936492 
C 2.450055 1.422928 2.738613 0.726289 2.738613 0 
C 2.738613 -0.726289 2.450055 -1.422928 1.936492 -1.936492 
C 1.422928 -2.450055 0.726289 -2.738613 0 -2.738613 
C -0.726289 -2.738613 -1.422928 -2.450055 -1.936492 -1.936492 
C -2.450055 -1.422928 -2.738613 -0.726289 -2.738613 0 
C -2.738613 0.726289 -2.450055 1.422928 -1.936492 1.936492 
C -1.422928 2.450055 -0.726289 2.738613 0 2.738613 
z
" id="m197a20f9a7" style="stroke:#ff0000;"/>
    </defs>
    <g clip-path="url(#p1d021874db)">
     <use style="fill:#ff0000;stroke:#ff0000;" x="395.740397" xlink:href="#m197a20f9a7" y="283.427435"/>
     <use style="fill:#ff0000;stroke:#ff0000;" x="226.622114" xlink:href="#m197a20f9a7" y="134.123002"/>
     <use style="fill:#ff0000;stroke:#ff0000;" x="85.646139" xlink:href="#m197a20f9a7" y="78.322771"/>
     <use style="fill:#ff0000;stroke:#ff0000;" x="182.476355" xlink:href="#m197a20f9a7" y="94.123243"/>
     <use style="fill:#ff0000;stroke:#ff0000;" x="260.722064" xlink:href="#m197a20f9a7" y="123.496031"/>
     <use style="fill:#ff0000;stroke:#ff0000;" x="273.723134" xlink:href="#m197a20f9a7" y="136.394061"/>
     <use style="fill:#ff0000;stroke:#ff0000;" x="103.92589" xlink:href="#m197a20f9a7" y="63.937256"/>
    </g>
   </g>
   <g id="text_14">
    <!-- (138) Subject: s7, Known = False, Degree = 1, Duration = 0.1 -->
    <defs>
     <path d="M 31 75.875 
Q 24.46875 64.65625 21.28125 53.65625 
Q 18.109375 42.671875 18.109375 31.390625 
Q 18.109375 20.125 21.3125 9.0625 
Q 24.515625 -2 31 -13.1875 
L 23.1875 -13.1875 
Q 15.875 -1.703125 12.234375 9.375 
Q 8.59375 20.453125 8.59375 31.390625 
Q 8.59375 42.28125 12.203125 53.3125 
Q 15.828125 64.359375 23.1875 75.875 
z
" id="DejaVuSans-40"/>
     <path d="M 12.40625 8.296875 
L 28.515625 8.296875 
L 28.515625 63.921875 
L 10.984375 60.40625 
L 10.984375 69.390625 
L 28.421875 72.90625 
L 38.28125 72.90625 
L 38.28125 8.296875 
L 54.390625 8.296875 
L 54.390625 0 
L 12.40625 0 
z
" id="DejaVuSans-49"/>
     <path d="M 31.78125 34.625 
Q 24.75 34.625 20.71875 30.859375 
Q 16.703125 27.09375 16.703125 20.515625 
Q 16.703125 13.921875 20.71875 10.15625 
Q 24.75 6.390625 31.78125 6.390625 
Q 38.8125 6.390625 42.859375 10.171875 
Q 46.921875 13.96875 46.921875 20.515625 
Q 46.921875 27.09375 42.890625 30.859375 
Q 38.875 34.625 31.78125 34.625 
z
M 21.921875 38.8125 
Q 15.578125 40.375 12.03125 44.71875 
Q 8.5 49.078125 8.5 55.328125 
Q 8.5 64.0625 14.71875 69.140625 
Q 20.953125 74.21875 31.78125 74.21875 
Q 42.671875 74.21875 48.875 69.140625 
Q 55.078125 64.0625 55.078125 55.328125 
Q 55.078125 49.078125 51.53125 44.71875 
Q 48 40.375 41.703125 38.8125 
Q 48.828125 37.15625 52.796875 32.3125 
Q 56.78125 27.484375 56.78125 20.515625 
Q 56.78125 9.90625 50.3125 4.234375 
Q 43.84375 -1.421875 31.78125 -1.421875 
Q 19.734375 -1.421875 13.25 4.234375 
Q 6.78125 9.90625 6.78125 20.515625 
Q 6.78125 27.484375 10.78125 32.3125 
Q 14.796875 37.15625 21.921875 38.8125 
z
M 18.3125 54.390625 
Q 18.3125 48.734375 21.84375 45.5625 
Q 25.390625 42.390625 31.78125 42.390625 
Q 38.140625 42.390625 41.71875 45.5625 
Q 45.3125 48.734375 45.3125 54.390625 
Q 45.3125 60.0625 41.71875 63.234375 
Q 38.140625 66.40625 31.78125 66.40625 
Q 25.390625 66.40625 21.84375 63.234375 
Q 18.3125 60.0625 18.3125 54.390625 
z
" id="DejaVuSans-56"/>
     <path d="M 8.015625 75.875 
L 15.828125 75.875 
Q 23.140625 64.359375 26.78125 53.3125 
Q 30.421875 42.28125 30.421875 31.390625 
Q 30.421875 20.453125 26.78125 9.375 
Q 23.140625 -1.703125 15.828125 -13.1875 
L 8.015625 -13.1875 
Q 14.5 -2 17.703125 9.0625 
Q 20.90625 20.125 20.90625 31.390625 
Q 20.90625 42.671875 17.703125 53.65625 
Q 14.5 64.65625 8.015625 75.875 
z
" id="DejaVuSans-41"/>
     <path id="DejaVuSans-32"/>
     <path d="M 53.515625 70.515625 
L 53.515625 60.890625 
Q 47.90625 63.578125 42.921875 64.890625 
Q 37.9375 66.21875 33.296875 66.21875 
Q 25.25 66.21875 20.875 63.09375 
Q 16.5 59.96875 16.5 54.203125 
Q 16.5 49.359375 19.40625 46.890625 
Q 22.3125 44.4375 30.421875 42.921875 
L 36.375 41.703125 
Q 47.40625 39.59375 52.65625 34.296875 
Q 57.90625 29 57.90625 20.125 
Q 57.90625 9.515625 50.796875 4.046875 
Q 43.703125 -1.421875 29.984375 -1.421875 
Q 24.8125 -1.421875 18.96875 -0.25 
Q 13.140625 0.921875 6.890625 3.21875 
L 6.890625 13.375 
Q 12.890625 10.015625 18.65625 8.296875 
Q 24.421875 6.59375 29.984375 6.59375 
Q 38.421875 6.59375 43.015625 9.90625 
Q 47.609375 13.234375 47.609375 19.390625 
Q 47.609375 24.75 44.3125 27.78125 
Q 41.015625 30.8125 33.5 32.328125 
L 27.484375 33.5 
Q 16.453125 35.6875 11.515625 40.375 
Q 6.59375 45.0625 6.59375 53.421875 
Q 6.59375 63.09375 13.40625 68.65625 
Q 20.21875 74.21875 32.171875 74.21875 
Q 37.3125 74.21875 42.625 73.28125 
Q 47.953125 72.359375 53.515625 70.515625 
z
" id="DejaVuSans-83"/>
     <path d="M 8.5 21.578125 
L 8.5 54.6875 
L 17.484375 54.6875 
L 17.484375 21.921875 
Q 17.484375 14.15625 20.5 10.265625 
Q 23.53125 6.390625 29.59375 6.390625 
Q 36.859375 6.390625 41.078125 11.03125 
Q 45.3125 15.671875 45.3125 23.6875 
L 45.3125 54.6875 
L 54.296875 54.6875 
L 54.296875 0 
L 45.3125 0 
L 45.3125 8.40625 
Q 42.046875 3.421875 37.71875 1 
Q 33.40625 -1.421875 27.6875 -1.421875 
Q 18.265625 -1.421875 13.375 4.4375 
Q 8.5 10.296875 8.5 21.578125 
z
M 31.109375 56 
z
" id="DejaVuSans-117"/>
     <path d="M 48.6875 27.296875 
Q 48.6875 37.203125 44.609375 42.84375 
Q 40.53125 48.484375 33.40625 48.484375 
Q 26.265625 48.484375 22.1875 42.84375 
Q 18.109375 37.203125 18.109375 27.296875 
Q 18.109375 17.390625 22.1875 11.75 
Q 26.265625 6.109375 33.40625 6.109375 
Q 40.53125 6.109375 44.609375 11.75 
Q 48.6875 17.390625 48.6875 27.296875 
z
M 18.109375 46.390625 
Q 20.953125 51.265625 25.265625 53.625 
Q 29.59375 56 35.59375 56 
Q 45.5625 56 51.78125 48.09375 
Q 58.015625 40.1875 58.015625 27.296875 
Q 58.015625 14.40625 51.78125 6.484375 
Q 45.5625 -1.421875 35.59375 -1.421875 
Q 29.59375 -1.421875 25.265625 0.953125 
Q 20.953125 3.328125 18.109375 8.203125 
L 18.109375 0 
L 9.078125 0 
L 9.078125 75.984375 
L 18.109375 75.984375 
z
" id="DejaVuSans-98"/>
     <path d="M 9.421875 54.6875 
L 18.40625 54.6875 
L 18.40625 -0.984375 
Q 18.40625 -11.421875 14.421875 -16.109375 
Q 10.453125 -20.796875 1.609375 -20.796875 
L -1.8125 -20.796875 
L -1.8125 -13.1875 
L 0.59375 -13.1875 
Q 5.71875 -13.1875 7.5625 -10.8125 
Q 9.421875 -8.453125 9.421875 -0.984375 
z
M 9.421875 75.984375 
L 18.40625 75.984375 
L 18.40625 64.59375 
L 9.421875 64.59375 
z
" id="DejaVuSans-106"/>
     <path d="M 56.203125 29.59375 
L 56.203125 25.203125 
L 14.890625 25.203125 
Q 15.484375 15.921875 20.484375 11.0625 
Q 25.484375 6.203125 34.421875 6.203125 
Q 39.59375 6.203125 44.453125 7.46875 
Q 49.3125 8.734375 54.109375 11.28125 
L 54.109375 2.78125 
Q 49.265625 0.734375 44.1875 -0.34375 
Q 39.109375 -1.421875 33.890625 -1.421875 
Q 20.796875 -1.421875 13.15625 6.1875 
Q 5.515625 13.8125 5.515625 26.8125 
Q 5.515625 40.234375 12.765625 48.109375 
Q 20.015625 56 32.328125 56 
Q 43.359375 56 49.78125 48.890625 
Q 56.203125 41.796875 56.203125 29.59375 
z
M 47.21875 32.234375 
Q 47.125 39.59375 43.09375 43.984375 
Q 39.0625 48.390625 32.421875 48.390625 
Q 24.90625 48.390625 20.390625 44.140625 
Q 15.875 39.890625 15.1875 32.171875 
z
" id="DejaVuSans-101"/>
     <path d="M 48.78125 52.59375 
L 48.78125 44.1875 
Q 44.96875 46.296875 41.140625 47.34375 
Q 37.3125 48.390625 33.40625 48.390625 
Q 24.65625 48.390625 19.8125 42.84375 
Q 14.984375 37.3125 14.984375 27.296875 
Q 14.984375 17.28125 19.8125 11.734375 
Q 24.65625 6.203125 33.40625 6.203125 
Q 37.3125 6.203125 41.140625 7.25 
Q 44.96875 8.296875 48.78125 10.40625 
L 48.78125 2.09375 
Q 45.015625 0.34375 40.984375 -0.53125 
Q 36.96875 -1.421875 32.421875 -1.421875 
Q 20.0625 -1.421875 12.78125 6.34375 
Q 5.515625 14.109375 5.515625 27.296875 
Q 5.515625 40.671875 12.859375 48.328125 
Q 20.21875 56 33.015625 56 
Q 37.15625 56 41.109375 55.140625 
Q 45.0625 54.296875 48.78125 52.59375 
z
" id="DejaVuSans-99"/>
     <path d="M 18.3125 70.21875 
L 18.3125 54.6875 
L 36.8125 54.6875 
L 36.8125 47.703125 
L 18.3125 47.703125 
L 18.3125 18.015625 
Q 18.3125 11.328125 20.140625 9.421875 
Q 21.96875 7.515625 27.59375 7.515625 
L 36.8125 7.515625 
L 36.8125 0 
L 27.59375 0 
Q 17.1875 0 13.234375 3.875 
Q 9.28125 7.765625 9.28125 18.015625 
L 9.28125 47.703125 
L 2.6875 47.703125 
L 2.6875 54.6875 
L 9.28125 54.6875 
L 9.28125 70.21875 
z
" id="DejaVuSans-116"/>
     <path d="M 11.71875 12.40625 
L 22.015625 12.40625 
L 22.015625 0 
L 11.71875 0 
z
M 11.71875 51.703125 
L 22.015625 51.703125 
L 22.015625 39.3125 
L 11.71875 39.3125 
z
" id="DejaVuSans-58"/>
     <path d="M 44.28125 53.078125 
L 44.28125 44.578125 
Q 40.484375 46.53125 36.375 47.5 
Q 32.28125 48.484375 27.875 48.484375 
Q 21.1875 48.484375 17.84375 46.4375 
Q 14.5 44.390625 14.5 40.28125 
Q 14.5 37.15625 16.890625 35.375 
Q 19.28125 33.59375 26.515625 31.984375 
L 29.59375 31.296875 
Q 39.15625 29.25 43.1875 25.515625 
Q 47.21875 21.78125 47.21875 15.09375 
Q 47.21875 7.46875 41.1875 3.015625 
Q 35.15625 -1.421875 24.609375 -1.421875 
Q 20.21875 -1.421875 15.453125 -0.5625 
Q 10.6875 0.296875 5.421875 2 
L 5.421875 11.28125 
Q 10.40625 8.6875 15.234375 7.390625 
Q 20.0625 6.109375 24.8125 6.109375 
Q 31.15625 6.109375 34.5625 8.28125 
Q 37.984375 10.453125 37.984375 14.40625 
Q 37.984375 18.0625 35.515625 20.015625 
Q 33.0625 21.96875 24.703125 23.78125 
L 21.578125 24.515625 
Q 13.234375 26.265625 9.515625 29.90625 
Q 5.8125 33.546875 5.8125 39.890625 
Q 5.8125 47.609375 11.28125 51.796875 
Q 16.75 56 26.8125 56 
Q 31.78125 56 36.171875 55.265625 
Q 40.578125 54.546875 44.28125 53.078125 
z
" id="DejaVuSans-115"/>
     <path d="M 11.71875 12.40625 
L 22.015625 12.40625 
L 22.015625 4 
L 14.015625 -11.625 
L 7.71875 -11.625 
L 11.71875 4 
z
" id="DejaVuSans-44"/>
     <path d="M 9.8125 72.90625 
L 19.671875 72.90625 
L 19.671875 42.09375 
L 52.390625 72.90625 
L 65.09375 72.90625 
L 28.90625 38.921875 
L 67.671875 0 
L 54.6875 0 
L 19.671875 35.109375 
L 19.671875 0 
L 9.8125 0 
z
" id="DejaVuSans-75"/>
     <path d="M 54.890625 33.015625 
L 54.890625 0 
L 45.90625 0 
L 45.90625 32.71875 
Q 45.90625 40.484375 42.875 44.328125 
Q 39.84375 48.1875 33.796875 48.1875 
Q 26.515625 48.1875 22.3125 43.546875 
Q 18.109375 38.921875 18.109375 30.90625 
L 18.109375 0 
L 9.078125 0 
L 9.078125 54.6875 
L 18.109375 54.6875 
L 18.109375 46.1875 
Q 21.34375 51.125 25.703125 53.5625 
Q 30.078125 56 35.796875 56 
Q 45.21875 56 50.046875 50.171875 
Q 54.890625 44.34375 54.890625 33.015625 
z
" id="DejaVuSans-110"/>
     <path d="M 30.609375 48.390625 
Q 23.390625 48.390625 19.1875 42.75 
Q 14.984375 37.109375 14.984375 27.296875 
Q 14.984375 17.484375 19.15625 11.84375 
Q 23.34375 6.203125 30.609375 6.203125 
Q 37.796875 6.203125 41.984375 11.859375 
Q 46.1875 17.53125 46.1875 27.296875 
Q 46.1875 37.015625 41.984375 42.703125 
Q 37.796875 48.390625 30.609375 48.390625 
z
M 30.609375 56 
Q 42.328125 56 49.015625 48.375 
Q 55.71875 40.765625 55.71875 27.296875 
Q 55.71875 13.875 49.015625 6.21875 
Q 42.328125 -1.421875 30.609375 -1.421875 
Q 18.84375 -1.421875 12.171875 6.21875 
Q 5.515625 13.875 5.515625 27.296875 
Q 5.515625 40.765625 12.171875 48.375 
Q 18.84375 56 30.609375 56 
z
" id="DejaVuSans-111"/>
     <path d="M 4.203125 54.6875 
L 13.1875 54.6875 
L 24.421875 12.015625 
L 35.59375 54.6875 
L 46.1875 54.6875 
L 57.421875 12.015625 
L 68.609375 54.6875 
L 77.59375 54.6875 
L 63.28125 0 
L 52.6875 0 
L 40.921875 44.828125 
L 29.109375 0 
L 18.5 0 
z
" id="DejaVuSans-119"/>
     <path d="M 10.59375 45.40625 
L 73.1875 45.40625 
L 73.1875 37.203125 
L 10.59375 37.203125 
z
M 10.59375 25.484375 
L 73.1875 25.484375 
L 73.1875 17.1875 
L 10.59375 17.1875 
z
" id="DejaVuSans-61"/>
     <path d="M 9.8125 72.90625 
L 51.703125 72.90625 
L 51.703125 64.59375 
L 19.671875 64.59375 
L 19.671875 43.109375 
L 48.578125 43.109375 
L 48.578125 34.8125 
L 19.671875 34.8125 
L 19.671875 0 
L 9.8125 0 
z
" id="DejaVuSans-70"/>
     <path d="M 34.28125 27.484375 
Q 23.390625 27.484375 19.1875 25 
Q 14.984375 22.515625 14.984375 16.5 
Q 14.984375 11.71875 18.140625 8.90625 
Q 21.296875 6.109375 26.703125 6.109375 
Q 34.1875 6.109375 38.703125 11.40625 
Q 43.21875 16.703125 43.21875 25.484375 
L 43.21875 27.484375 
z
M 52.203125 31.203125 
L 52.203125 0 
L 43.21875 0 
L 43.21875 8.296875 
Q 40.140625 3.328125 35.546875 0.953125 
Q 30.953125 -1.421875 24.3125 -1.421875 
Q 15.921875 -1.421875 10.953125 3.296875 
Q 6 8.015625 6 15.921875 
Q 6 25.140625 12.171875 29.828125 
Q 18.359375 34.515625 30.609375 34.515625 
L 43.21875 34.515625 
L 43.21875 35.40625 
Q 43.21875 41.609375 39.140625 45 
Q 35.0625 48.390625 27.6875 48.390625 
Q 23 48.390625 18.546875 47.265625 
Q 14.109375 46.140625 10.015625 43.890625 
L 10.015625 52.203125 
Q 14.9375 54.109375 19.578125 55.046875 
Q 24.21875 56 28.609375 56 
Q 40.484375 56 46.34375 49.84375 
Q 52.203125 43.703125 52.203125 31.203125 
z
" id="DejaVuSans-97"/>
     <path d="M 9.421875 75.984375 
L 18.40625 75.984375 
L 18.40625 0 
L 9.421875 0 
z
" id="DejaVuSans-108"/>
     <path d="M 19.671875 64.796875 
L 19.671875 8.109375 
L 31.59375 8.109375 
Q 46.6875 8.109375 53.6875 14.9375 
Q 60.6875 21.78125 60.6875 36.53125 
Q 60.6875 51.171875 53.6875 57.984375 
Q 46.6875 64.796875 31.59375 64.796875 
z
M 9.8125 72.90625 
L 30.078125 72.90625 
Q 51.265625 72.90625 61.171875 64.09375 
Q 71.09375 55.28125 71.09375 36.53125 
Q 71.09375 17.671875 61.125 8.828125 
Q 51.171875 0 30.078125 0 
L 9.8125 0 
z
" id="DejaVuSans-68"/>
     <path d="M 45.40625 27.984375 
Q 45.40625 37.75 41.375 43.109375 
Q 37.359375 48.484375 30.078125 48.484375 
Q 22.859375 48.484375 18.828125 43.109375 
Q 14.796875 37.75 14.796875 27.984375 
Q 14.796875 18.265625 18.828125 12.890625 
Q 22.859375 7.515625 30.078125 7.515625 
Q 37.359375 7.515625 41.375 12.890625 
Q 45.40625 18.265625 45.40625 27.984375 
z
M 54.390625 6.78125 
Q 54.390625 -7.171875 48.1875 -13.984375 
Q 42 -20.796875 29.203125 -20.796875 
Q 24.46875 -20.796875 20.265625 -20.09375 
Q 16.0625 -19.390625 12.109375 -17.921875 
L 12.109375 -9.1875 
Q 16.0625 -11.328125 19.921875 -12.34375 
Q 23.78125 -13.375 27.78125 -13.375 
Q 36.625 -13.375 41.015625 -8.765625 
Q 45.40625 -4.15625 45.40625 5.171875 
L 45.40625 9.625 
Q 42.625 4.78125 38.28125 2.390625 
Q 33.9375 0 27.875 0 
Q 17.828125 0 11.671875 7.65625 
Q 5.515625 15.328125 5.515625 27.984375 
Q 5.515625 40.671875 11.671875 48.328125 
Q 17.828125 56 27.875 56 
Q 33.9375 56 38.28125 53.609375 
Q 42.625 51.21875 45.40625 46.390625 
L 45.40625 54.6875 
L 54.390625 54.6875 
z
" id="DejaVuSans-103"/>
     <path d="M 41.109375 46.296875 
Q 39.59375 47.171875 37.8125 47.578125 
Q 36.03125 48 33.890625 48 
Q 26.265625 48 22.1875 43.046875 
Q 18.109375 38.09375 18.109375 28.8125 
L 18.109375 0 
L 9.078125 0 
L 9.078125 54.6875 
L 18.109375 54.6875 
L 18.109375 46.1875 
Q 20.953125 51.171875 25.484375 53.578125 
Q 30.03125 56 36.53125 56 
Q 37.453125 56 38.578125 55.875 
Q 39.703125 55.765625 41.0625 55.515625 
z
" id="DejaVuSans-114"/>
     <path d="M 9.421875 54.6875 
L 18.40625 54.6875 
L 18.40625 0 
L 9.421875 0 
z
M 9.421875 75.984375 
L 18.40625 75.984375 
L 18.40625 64.59375 
L 9.421875 64.59375 
z
" id="DejaVuSans-105"/>
     <path d="M 10.6875 12.40625 
L 21 12.40625 
L 21 0 
L 10.6875 0 
z
" id="DejaVuSans-46"/>
    </defs>
    <g transform="translate(49.741875 35.472)scale(0.12 -0.12)">
     <use xlink:href="#DejaVuSans-40"/>
     <use x="39.013672" xlink:href="#DejaVuSans-49"/>
     <use x="102.636719" xlink:href="#DejaVuSans-51"/>
     <use x="166.259766" xlink:href="#DejaVuSans-56"/>
     <use x="229.882812" xlink:href="#DejaVuSans-41"/>
     <use x="268.896484" xlink:href="#DejaVuSans-32"/>
     <use x="300.683594" xlink:href="#DejaVuSans-83"/>
     <use x="364.160156" xlink:href="#DejaVuSans-117"/>
     <use x="427.539062" xlink:href="#DejaVuSans-98"/>
     <use x="491.015625" xlink:href="#DejaVuSans-106"/>
     <use x="518.798828" xlink:href="#DejaVuSans-101"/>
     <use x="580.322266" xlink:href="#DejaVuSans-99"/>
     <use x="635.302734" xlink:href="#DejaVuSans-116"/>
     <use x="674.511719" xlink:href="#DejaVuSans-58"/>
     <use x="708.203125" xlink:href="#DejaVuSans-32"/>
     <use x="739.990234" xlink:href="#DejaVuSans-115"/>
     <use x="792.089844" xlink:href="#DejaVuSans-55"/>
     <use x="855.712891" xlink:href="#DejaVuSans-44"/>
     <use x="887.5" xlink:href="#DejaVuSans-32"/>
     <use x="919.287109" xlink:href="#DejaVuSans-75"/>
     <use x="984.863281" xlink:href="#DejaVuSans-110"/>
     <use x="1048.242188" xlink:href="#DejaVuSans-111"/>
     <use x="1109.423828" xlink:href="#DejaVuSans-119"/>
     <use x="1191.210938" xlink:href="#DejaVuSans-110"/>
     <use x="1254.589844" xlink:href="#DejaVuSans-32"/>
     <use x="1286.376953" xlink:href="#DejaVuSans-61"/>
     <use x="1370.166016" xlink:href="#DejaVuSans-32"/>
     <use x="1401.953125" xlink:href="#DejaVuSans-70"/>
     <use x="1459.332031" xlink:href="#DejaVuSans-97"/>
     <use x="1520.611328" xlink:href="#DejaVuSans-108"/>
     <use x="1548.394531" xlink:href="#DejaVuSans-115"/>
     <use x="1600.494141" xlink:href="#DejaVuSans-101"/>
     <use x="1662.017578" xlink:href="#DejaVuSans-44"/>
     <use x="1693.804688" xlink:href="#DejaVuSans-32"/>
     <use x="1725.591797" xlink:href="#DejaVuSans-68"/>
     <use x="1802.59375" xlink:href="#DejaVuSans-101"/>
     <use x="1864.117188" xlink:href="#DejaVuSans-103"/>
     <use x="1927.59375" xlink:href="#DejaVuSans-114"/>
     <use x="1968.675781" xlink:href="#DejaVuSans-101"/>
     <use x="2030.199219" xlink:href="#DejaVuSans-101"/>
     <use x="2091.722656" xlink:href="#DejaVuSans-32"/>
     <use x="2123.509766" xlink:href="#DejaVuSans-61"/>
     <use x="2207.298828" xlink:href="#DejaVuSans-32"/>
     <use x="2239.085938" xlink:href="#DejaVuSans-49"/>
     <use x="2302.708984" xlink:href="#DejaVuSans-44"/>
     <use x="2334.496094" xlink:href="#DejaVuSans-32"/>
     <use x="2366.283203" xlink:href="#DejaVuSans-68"/>
     <use x="2443.285156" xlink:href="#DejaVuSans-117"/>
     <use x="2506.664062" xlink:href="#DejaVuSans-114"/>
     <use x="2547.777344" xlink:href="#DejaVuSans-97"/>
     <use x="2609.056641" xlink:href="#DejaVuSans-116"/>
     <use x="2648.265625" xlink:href="#DejaVuSans-105"/>
     <use x="2676.048828" xlink:href="#DejaVuSans-111"/>
     <use x="2737.230469" xlink:href="#DejaVuSans-110"/>
     <use x="2800.609375" xlink:href="#DejaVuSans-32"/>
     <use x="2832.396484" xlink:href="#DejaVuSans-61"/>
     <use x="2916.185547" xlink:href="#DejaVuSans-32"/>
     <use x="2947.972656" xlink:href="#DejaVuSans-48"/>
     <use x="3011.595703" xlink:href="#DejaVuSans-46"/>
     <use x="3043.382812" xlink:href="#DejaVuSans-49"/>
    </g>
   </g>
  </g>
 </g>
 <defs>
  <clipPath id="p1d021874db">
   <rect height="266.112" width="357.12" x="57.6" y="41.472"/>
  </clipPath>
 </defs>
</svg>
