<?xml version="1.0" encoding="utf-8" standalone="no"?>
<!DOCTYPE svg PUBLIC "-//W3C//DTD SVG 1.1//EN"
  "http://www.w3.org/Graphics/SVG/1.1/DTD/svg11.dtd">
<!-- Created with matplotlib (https://matplotlib.org/) -->
<svg height="345.6pt" version="1.1" viewBox="0 0 460.8 345.6" width="460.8pt" xmlns="http://www.w3.org/2000/svg" xmlns:xlink="http://www.w3.org/1999/xlink">
 <defs>
  <style type="text/css">
*{stroke-linecap:butt;stroke-linejoin:round;}
  </style>
 </defs>
 <g id="figure_1">
  <g id="patch_1">
   <path d="M 0 345.6 
L 460.8 345.6 
L 460.8 0 
L 0 0 
z
" style="fill:#ffffff;"/>
  </g>
  <g id="axes_1">
   <g id="patch_2">
    <path d="M 57.6 307.584 
L 414.72 307.584 
L 414.72 41.472 
L 57.6 41.472 
z
" style="fill:#ffffff;"/>
   </g>
   <g id="line2d_1">
    <path clip-path="url(#p25c0ab0475)" d="M 396.564523 281.663806 
L 396.564523 280.800643 
L 396.777846 280.800643 
L 396.777846 281.232225 
L 396.137878 280.369062 
L 396.137878 280.369062 
L 396.137878 282.530367 
L 395.924555 283.393529 
L 395.924555 284.256692 
L 395.924555 283.393529 
L 396.137878 282.095387 
L 396.137878 282.530367 
L 396.3512 282.530367 
L 396.3512 282.530367 
L 395.924555 282.961948 
L 395.924555 283.393529 
L 396.777846 282.530367 
L 396.3512 281.663806 
L 396.3512 281.232225 
L 396.3512 282.530367 
L 396.3512 282.530367 
L 396.564523 282.530367 
L 396.564523 282.530367 
L 396.564523 281.663806 
L 396.777846 281.232225 
L 396.777846 282.961948 
L 396.991169 283.393529 
L 396.991169 282.530367 
L 396.991169 282.530367 
L 396.777846 282.961948 
L 397.420659 281.663806 
L 397.420659 281.663806 
L 396.777846 281.663806 
L 396.777846 282.530367 
L 396.137878 280.369062 
L 396.3512 280.369062 
L 396.777846 280.800643 
L 396.777846 282.095387 
L 396.777846 279.937481 
L 396.564523 279.937481 
L 397.207336 277.776176 
L 397.207336 278.207757 
L 396.991169 279.074318 
L 396.3512 279.505899 
L 395.924555 279.074318 
L 395.924555 278.207757 
L 396.137878 277.776176 
L 396.564523 278.207757 
L 396.777846 279.505899 
L 396.3512 279.937481 
L 396.137878 278.639339 
L 396.3512 276.049851 
L 396.3512 275.61827 
L 396.777846 274.751709 
L 396.777846 276.049851 
L 396.991169 277.344595 
L 396.564523 275.61827 
L 396.3512 275.18329 
L 396.564523 275.18329 
L 396.564523 275.61827 
L 396.564523 273.456965 
L 396.777846 273.888546 
L 396.777846 275.18329 
L 396.777846 275.18329 
L 396.991169 274.320127 
L 397.207336 274.320127 
L 396.777846 275.61827 
L 396.991169 275.61827 
L 397.420659 275.18329 
L 397.420659 274.751709 
L 396.777846 274.751709 
L 396.564523 274.320127 
L 396.991169 273.888546 
L 397.633982 274.320127 
L 397.847304 274.751709 
L 397.847304 275.18329 
L 398.060627 275.18329 
L 398.060627 275.18329 
L 398.060627 274.751709 
L 397.847304 274.320127 
L 397.420659 274.320127 
L 397.420659 273.888546 
L 397.207336 273.888546 
L 396.564523 273.456965 
L 396.137878 273.456965 
L 396.3512 274.320127 
L 396.777846 274.320127 
L 397.420659 273.888546 
L 397.847304 273.888546 
L 397.847304 273.888546 
L 398.060627 272.593802 
L 398.27395 273.025384 
L 398.27395 273.888546 
L 397.633982 273.888546 
L 397.633982 273.025384 
L 396.991169 273.025384 
L 397.633982 273.025384 
L 397.633982 272.593802 
L 397.633982 274.320127 
L 398.060627 274.751709 
L 398.060627 274.320127 
L 397.420659 273.888546 
L 397.207336 273.888546 
L 397.207336 273.888546 
L 397.420659 273.456965 
L 397.420659 271.727241 
L 397.847304 272.162221 
L 398.487273 272.593802 
L 398.27395 272.593802 
L 397.847304 272.162221 
L 397.847304 271.727241 
L 398.060627 271.29566 
L 398.27395 271.29566 
L 398.27395 272.162221 
L 398.060627 273.025384 
L 397.847304 273.025384 
L 398.060627 272.593802 
L 398.27395 271.727241 
L 398.27395 271.727241 
L 397.847304 271.727241 
L 397.207336 272.162221 
L 396.564523 273.025384 
L 396.777846 273.456965 
L 397.207336 273.025384 
L 397.207336 271.727241 
L 396.991169 270.864079 
L 396.564523 270.864079 
L 396.3512 271.29566 
L 396.137878 271.29566 
L 396.137878 270.864079 
L 396.564523 270.432498 
L 397.207336 271.727241 
L 397.420659 271.29566 
L 397.420659 270.432498 
L 396.991169 270.432498 
L 396.777846 270.864079 
L 396.777846 270.864079 
L 397.207336 270.864079 
L 397.420659 271.29566 
L 397.420659 272.162221 
L 397.633982 271.727241 
L 397.847304 270.864079 
L 397.633982 270.000916 
L 397.420659 270.000916 
L 396.564523 270.864079 
L 396.137878 272.593802 
L 396.564523 271.29566 
L 396.137878 271.29566 
L 395.924555 271.727241 
L 395.924555 271.727241 
L 396.3512 271.727241 
L 396.777846 272.162221 
L 397.420659 271.727241 
L 397.847304 270.864079 
L 397.633982 270.000916 
L 396.564523 268.706172 
L 396.564523 270.864079 
L 396.991169 270.000916 
L 396.991169 269.569335 
L 396.564523 270.000916 
L 396.3512 270.000916 
L 396.3512 270.432498 
L 396.564523 270.000916 
L 396.3512 270.000916 
L 396.3512 268.706172 
L 396.137878 268.271193 
L 395.711232 267.839612 
L 395.284586 266.976449 
L 394.644618 266.976449 
L 393.151358 269.137754 
L 391.868577 270.432498 
L 389.735349 270.864079 
L 386.31934 270.864079 
L 382.692853 272.593802 
L 378.636875 273.456965 
L 374.367575 273.456965 
L 369.671629 273.025384 
L 364.549038 273.025384 
L 358.786478 273.456965 
L 353.234396 273.456965 
L 347.471836 272.593802 
L 341.922599 270.864079 
L 336.586685 268.706172 
L 331.037448 267.40803 
L 325.488211 266.544868 
L 314.17357 265.681705 
L 308.197687 264.815144 
L 302.221804 263.520401 
L 289.413904 263.520401 
L 283.224698 264.383563 
L 277.462138 264.383563 
L 272.552869 263.951982 
L 267.643601 262.657238 
L 262.521009 263.088819 
L 252.915795 264.815144 
L 249.07314 264.815144 
L 245.017163 264.383563 
L 233.27872 260.495933 
L 229.436065 259.632771 
L 222.604047 258.769608 
L 219.617528 257.903047 
L 217.268133 256.608303 
L 215.134905 256.176722 
L 212.358864 256.176722 
L 211.718896 257.039885 
L 211.078927 257.471466 
L 210.865605 257.039885 
L 210.865605 256.176722 
L 210.652282 255.31356 
L 210.652282 255.31356 
L 211.505573 255.31356 
L 212.145541 256.176722 
L 213.425478 257.471466 
L 214.494937 257.471466 
L 214.921582 256.176722 
L 214.708259 255.745141 
L 214.708259 256.176722 
L 214.494937 256.176722 
L 214.921582 255.31356 
L 214.921582 255.745141 
L 214.708259 255.745141 
L 214.494937 255.31356 
L 214.921582 254.446999 
L 215.134905 255.31356 
L 214.921582 256.176722 
L 214.494937 255.745141 
L 213.641645 254.446999 
L 213.641645 254.446999 
L 213.641645 254.881978 
L 212.998833 256.176722 
L 213.641645 256.176722 
L 213.425478 255.31356 
L 212.78551 254.446999 
L 213.212155 254.446999 
L 212.998833 254.446999 
L 212.998833 254.881978 
L 213.425478 255.31356 
L 213.425478 255.31356 
L 212.998833 254.015417 
L 212.78551 255.31356 
L 212.358864 256.176722 
L 212.358864 256.176722 
L 212.998833 255.745141 
L 213.641645 254.446999 
L 213.212155 253.583836 
L 212.572187 252.720674 
L 212.145541 252.720674 
L 212.145541 252.720674 
L 211.932219 251.857511 
L 211.932219 250.994348 
L 212.572187 254.015417 
L 212.572187 254.015417 
L 212.358864 253.583836 
L 212.145541 252.720674 
L 212.358864 252.720674 
L 212.358864 252.720674 
L 212.358864 252.289092 
L 212.78551 252.289092 
L 212.572187 252.720674 
L 212.145541 253.152255 
L 212.145541 252.720674 
L 211.718896 251.857511 
L 211.29225 251.857511 
L 210.865605 252.720674 
L 211.078927 253.583836 
L 211.29225 253.583836 
L 211.29225 252.720674 
L 211.505573 252.289092 
L 211.718896 252.289092 
L 211.505573 252.289092 
L 211.29225 252.720674 
L 211.718896 253.583836 
L 211.718896 253.583836 
L 211.718896 254.015417 
L 211.718896 253.583836 
L 211.078927 253.583836 
L 210.865605 252.720674 
L 210.865605 251.42593 
L 211.29225 251.42593 
L 211.505573 252.720674 
L 211.29225 251.42593 
L 211.078927 251.42593 
L 211.078927 252.289092 
L 210.865605 252.289092 
L 210.652282 251.857511 
L 210.652282 251.42593 
L 210.652282 251.857511 
L 210.865605 251.857511 
L 211.078927 251.42593 
L 210.865605 250.127788 
L 211.29225 250.559369 
L 211.505573 251.857511 
L 210.225636 253.152255 
L 208.945699 253.583836 
L 207.876241 252.720674 
L 205.956336 250.559369 
L 204.249754 250.559369 
L 201.687036 250.994348 
L 198.484349 250.559369 
L 195.071185 249.696206 
L 191.868498 249.264625 
L 184.396512 249.264625 
L 175.007464 250.127788 
L 170.524841 250.994348 
L 165.828895 251.42593 
L 151.314412 251.42593 
L 146.405143 250.994348 
L 141.495875 251.42593 
L 137.226574 252.289092 
L 128.474651 252.289092 
L 123.778705 251.857511 
L 115.453427 252.720674 
L 106.701504 252.720674 
L 103.288339 253.152255 
L 100.298976 254.446999 
L 94.323093 255.31356 
L 91.760375 256.176722 
L 89.84047 257.039885 
L 88.133888 257.471466 
L 87.064429 257.903047 
L 86.424461 258.769608 
L 85.57117 259.632771 
L 84.717879 260.064352 
L 83.864587 260.064352 
L 83.437942 259.632771 
L 82.795129 259.632771 
L 82.581806 260.064352 
L 82.795129 259.632771 
L 83.011296 259.632771 
L 83.437942 259.201189 
L 84.07791 258.338027 
L 84.504556 257.471466 
L 84.717879 257.471466 
L 84.717879 258.769608 
L 85.357847 259.632771 
L 85.997815 259.201189 
L 85.997815 258.769608 
L 85.784493 257.903047 
L 85.997815 258.769608 
L 85.997815 259.632771 
L 85.784493 260.064352 
L 85.784493 260.927515 
L 85.357847 263.088819 
L 85.357847 263.088819 
L 84.931201 263.088819 
L 84.504556 263.520401 
L 84.504556 263.520401 
L 84.717879 263.520401 
L 84.717879 263.088819 
L 84.717879 263.520401 
L 84.931201 264.383563 
L 84.931201 266.113286 
L 84.931201 266.113286 
L 84.717879 266.544868 
L 84.291233 266.976449 
L 84.291233 266.976449 
L 84.717879 266.113286 
L 84.717879 265.681705 
L 84.07791 265.681705 
L 83.864587 266.113286 
L 83.864587 266.544868 
L 83.651265 266.544868 
L 83.651265 266.113286 
L 83.651265 266.113286 
L 83.864587 266.544868 
L 83.864587 266.976449 
L 84.07791 266.544868 
L 84.504556 266.113286 
L 84.931201 266.544868 
L 84.931201 267.839612 
L 84.717879 268.706172 
L 84.291233 269.137754 
L 84.07791 268.706172 
L 84.07791 268.706172 
L 84.07791 268.271193 
L 83.864587 267.839612 
L 83.651265 267.839612 
L 83.651265 268.271193 
L 83.651265 267.839612 
L 83.864587 267.839612 
L 84.07791 268.271193 
L 84.717879 268.271193 
L 84.717879 268.706172 
L 84.931201 268.706172 
L 84.717879 269.137754 
L 84.717879 269.569335 
L 84.717879 268.706172 
L 84.291233 268.706172 
L 83.864587 269.137754 
L 83.651265 269.569335 
L 84.931201 269.569335 
L 84.717879 269.569335 
L 84.291233 270.000916 
L 84.504556 270.864079 
L 85.57117 270.432498 
L 85.784493 270.000916 
L 85.57117 269.569335 
L 85.357847 269.569335 
L 85.357847 269.137754 
L 85.57117 268.271193 
L 85.997815 267.839612 
L 85.997815 269.137754 
L 85.784493 270.000916 
L 85.357847 270.432498 
L 84.931201 270.000916 
L 84.717879 269.569335 
L 84.717879 269.137754 
L 85.144524 269.569335 
L 85.57117 269.569335 
L 85.144524 269.569335 
L 84.931201 270.000916 
L 84.931201 270.000916 
L 85.144524 270.432498 
L 85.357847 270.432498 
L 85.144524 270.432498 
L 84.931201 269.569335 
L 85.144524 269.137754 
L 85.144524 269.137754 
L 84.931201 268.706172 
L 84.931201 268.706172 
L 84.504556 268.706172 
L 84.504556 269.569335 
L 84.717879 270.432498 
L 84.931201 270.000916 
L 84.931201 269.569335 
L 84.931201 269.569335 
L 84.717879 270.864079 
L 84.931201 270.864079 
L 85.57117 269.569335 
L 85.57117 269.569335 
L 85.57117 269.137754 
L 85.784493 268.706172 
L 86.211138 267.40803 
L 86.424461 267.40803 
L 85.57117 270.432498 
L 85.784493 270.432498 
L 86.211138 270.432498 
L 85.784493 270.000916 
L 85.784493 269.569335 
L 86.424461 269.569335 
L 86.637784 270.000916 
L 86.424461 271.29566 
L 85.997815 272.162221 
L 85.997815 272.593802 
L 85.997815 272.593802 
L 86.424461 270.432498 
L 86.211138 270.000916 
L 85.997815 270.000916 
L 86.211138 270.432498 
L 86.637784 270.432498 
L 86.851107 270.000916 
L 87.064429 270.432498 
L 87.064429 270.432498 
L 87.064429 270.000916 
L 87.064429 270.864079 
L 87.277752 271.727241 
L 86.637784 269.569335 
L 86.424461 269.137754 
L 86.211138 269.137754 
L 86.424461 269.137754 
L 86.424461 268.706172 
L 86.637784 269.137754 
L 87.277752 271.29566 
L 87.491075 271.29566 
L 87.277752 270.864079 
L 86.851107 270.432498 
L 86.851107 270.000916 
L 87.064429 270.000916 
L 87.277752 269.569335 
L 87.064429 269.569335 
L 86.637784 268.706172 
L 86.211138 268.706172 
L 86.424461 269.569335 
L 87.277752 269.569335 
L 87.491075 268.706172 
L 87.277752 269.137754 
L 87.277752 268.706172 
L 86.851107 269.137754 
L 86.424461 270.000916 
L 85.997815 269.569335 
L 86.211138 268.706172 
L 86.424461 269.137754 
L 87.064429 269.569335 
L 87.277752 269.137754 
L 87.491075 268.271193 
L 87.064429 270.000916 
L 86.637784 270.000916 
L 86.424461 269.569335 
L 86.211138 268.706172 
L 86.424461 267.839612 
L 86.424461 266.976449 
L 86.637784 266.976449 
L 87.064429 267.40803 
L 87.064429 268.271193 
L 87.277752 268.271193 
L 87.064429 268.706172 
L 86.637784 269.137754 
L 86.424461 268.706172 
L 87.064429 267.839612 
L 87.920565 267.839612 
L 87.920565 266.976449 
L 87.277752 266.976449 
L 87.064429 268.271193 
L 87.277752 266.976449 
L 88.133888 266.544868 
L 90.480438 265.681705 
L 91.760375 265.681705 
L 93.683125 265.250124 
L 96.242998 263.520401 
L 98.805716 261.359096 
L 101.578913 259.632771 
L 104.781599 258.338027 
L 107.984285 256.608303 
L 111.184127 254.446999 
L 114.813459 251.42593 
L 118.442791 248.833044 
L 122.072123 246.671739 
L 126.125256 245.376995 
L 133.810565 241.920947 
L 137.866543 240.626203 
L 142.135843 238.464898 
L 146.405143 235.440431 
L 150.458277 232.847545 
L 154.300931 231.12122 
L 157.930263 230.258057 
L 160.919627 229.391496 
L 163.692823 228.959915 
L 166.682187 228.096752 
L 172.871392 224.640704 
L 175.220787 222.910981 
L 177.354015 222.479399 
L 179.916733 222.479399 
L 183.756543 223.34596 
L 184.612679 222.910981 
L 185.252647 222.047818 
L 186.319261 222.047818 
L 187.385875 221.616237 
L 187.812521 221.184655 
L 188.025844 220.753074 
L 187.812521 220.753074 
L 187.385875 221.184655 
L 186.745907 221.616237 
L 186.105938 221.616237 
L 185.252647 220.753074 
L 184.612679 220.753074 
L 184.183189 221.616237 
L 184.183189 222.910981 
L 183.756543 224.209123 
L 183.116575 225.072285 
L 182.263284 225.072285 
L 182.049961 224.640704 
L 183.116575 224.640704 
L 183.116575 224.640704 
L 183.116575 224.209123 
L 182.689929 223.777541 
L 182.476607 223.777541 
L 183.329898 223.777541 
L 183.969866 225.072285 
L 183.756543 225.503866 
L 182.903252 225.503866 
L 182.689929 224.640704 
L 182.689929 223.777541 
L 182.689929 223.777541 
L 182.476607 224.209123 
L 182.263284 225.072285 
L 182.476607 225.072285 
L 182.903252 224.640704 
L 182.903252 223.777541 
L 182.903252 224.209123 
L 183.116575 223.777541 
L 182.903252 222.910981 
L 182.263284 222.479399 
L 182.049961 222.479399 
L 182.476607 222.910981 
L 182.049961 222.479399 
L 181.836638 222.479399 
L 182.049961 222.910981 
L 182.476607 222.047818 
L 182.476607 221.184655 
L 182.263284 221.184655 
L 182.049961 221.616237 
L 182.049961 221.616237 
L 182.263284 221.616237 
L 181.836638 221.616237 
L 181.409993 222.047818 
L 181.623315 222.479399 
L 181.836638 222.479399 
L 182.049961 222.047818 
L 182.049961 222.479399 
L 181.409993 221.184655 
L 181.409993 221.616237 
L 181.19667 222.479399 
L 181.19667 222.047818 
L 181.19667 221.616237 
L 181.19667 222.047818 
L 181.409993 222.047818 
L 181.409993 221.616237 
L 181.19667 221.184655 
L 180.983347 221.184655 
L 181.19667 221.184655 
L 181.623315 220.753074 
L 181.623315 220.753074 
L 180.770024 220.753074 
L 180.770024 222.047818 
L 180.983347 221.616237 
L 181.19667 221.616237 
L 182.049961 220.753074 
L 182.049961 220.321493 
L 181.623315 220.753074 
L 181.409993 220.321493 
L 181.836638 219.45833 
L 181.19667 219.45833 
L 181.19667 219.45833 
L 181.409993 219.023351 
L 181.19667 219.45833 
L 181.19667 220.321493 
L 181.623315 220.321493 
L 182.263284 219.023351 
L 182.263284 219.45833 
L 182.263284 219.45833 
L 181.836638 219.45833 
L 181.836638 219.45833 
L 181.836638 220.321493 
L 181.623315 220.321493 
L 181.409993 219.889912 
L 181.623315 219.889912 
L 181.836638 220.321493 
L 182.049961 219.889912 
L 182.049961 218.591769 
L 181.836638 218.160188 
L 181.409993 218.591769 
L 181.19667 219.889912 
L 180.983347 219.889912 
L 180.556701 219.023351 
L 180.983347 219.023351 
L 180.556701 219.45833 
L 180.130056 219.023351 
L 180.130056 219.023351 
L 180.343379 219.023351 
L 180.770024 218.591769 
L 181.19667 218.591769 
L 180.983347 219.45833 
L 180.556701 220.321493 
L 180.983347 220.321493 
L 181.409993 219.45833 
L 181.409993 218.160188 
L 181.409993 218.160188 
L 180.983347 219.45833 
L 181.19667 218.591769 
L 181.409993 217.297026 
L 181.19667 216.433863 
L 180.770024 216.433863 
L 180.556701 216.865444 
L 180.770024 217.297026 
L 181.623315 217.297026 
L 181.836638 217.728607 
L 182.049961 217.728607 
L 182.049961 216.865444 
L 181.836638 216.433863 
L 181.623315 216.433863 
L 181.836638 216.865444 
L 181.409993 216.002282 
L 181.19667 215.135721 
L 181.409993 215.135721 
L 181.409993 216.002282 
L 180.770024 216.433863 
L 180.556701 215.567302 
L 180.983347 212.977814 
L 180.343379 212.977814 
L 180.130056 213.840977 
L 180.556701 215.135721 
L 182.049961 215.135721 
L 182.049961 214.70414 
L 181.623315 214.272558 
L 180.983347 213.840977 
L 180.770024 214.272558 
L 180.983347 214.70414 
L 180.983347 214.272558 
L 180.556701 212.977814 
L 180.770024 212.546233 
L 181.409993 212.111254 
L 181.19667 211.679672 
L 180.770024 211.248091 
L 180.556701 211.248091 
L 180.556701 211.248091 
L 180.983347 210.81651 
L 181.19667 210.81651 
L 180.983347 210.384928 
L 180.343379 210.384928 
L 179.487243 209.521766 
L 178.847275 208.223624 
L 178.633952 206.497299 
L 178.207306 204.335994 
L 176.92737 201.743108 
L 175.007464 199.15362 
L 172.444746 196.992316 
L 169.668706 195.26599 
L 167.322155 192.673104 
L 165.188927 188.785475 
L 163.266177 184.031284 
L 161.132949 178.417329 
L 158.356909 172.799976 
L 155.797035 166.751041 
L 150.674444 155.519733 
L 148.325049 149.905778 
L 145.978498 144.720006 
L 142.989134 140.400795 
L 140.426416 135.650003 
L 138.079866 130.895812 
L 135.943793 126.145019 
L 134.023888 122.25739 
L 132.530629 120.096085 
L 131.677337 117.938179 
L 129.541265 107.570033 
L 129.754588 104.545566 
L 130.821202 97.201887 
L 131.247848 92.447697 
L 132.103983 87.696904 
L 132.530629 83.377693 
L 132.957274 80.784807 
L 133.597243 79.055084 
L 134.023888 76.465596 
L 134.023888 68.686938 
L 134.237211 65.665869 
L 134.237211 63.072983 
L 134.023888 60.480097 
L 133.38392 57.024049 
L 131.89066 57.887211 
L 131.464015 58.753772 
L 130.607879 59.616935 
L 129.541265 59.185353 
L 130.181234 60.048516 
L 130.394556 61.34326 
L 129.541265 62.209821 
L 129.327942 62.209821 
L 129.754588 62.641402 
L 129.967911 62.209821 
L 129.327942 60.911678 
L 129.11462 60.911678 
L 129.327942 61.34326 
L 129.754588 61.778239 
L 128.901297 61.778239 
L 128.474651 61.34326 
L 128.687974 60.480097 
L 128.687974 60.480097 
L 128.474651 60.048516 
L 127.834683 60.048516 
L 127.834683 60.480097 
L 128.474651 60.911678 
L 128.901297 60.480097 
L 128.901297 58.753772 
L 129.11462 57.887211 
L 129.327942 58.322191 
L 129.11462 59.185353 
L 128.687974 60.048516 
L 128.474651 59.616935 
L 128.261328 57.887211 
L 127.834683 58.753772 
L 127.408037 58.753772 
L 127.194714 59.185353 
L 127.194714 59.616935 
L 127.408037 60.048516 
L 127.62136 59.185353 
L 127.408037 58.753772 
L 127.194714 59.616935 
L 127.408037 60.480097 
L 127.834683 60.911678 
L 128.048006 60.048516 
L 127.62136 59.616935 
L 127.194714 60.048516 
L 126.981392 60.480097 
L 126.981392 60.480097 
L 127.194714 61.34326 
L 126.981392 60.480097 
L 126.981392 59.616935 
L 126.554746 59.616935 
L 126.768069 59.185353 
L 126.768069 58.753772 
L 126.554746 58.322191 
L 125.911933 57.887211 
L 125.69861 57.887211 
L 126.125256 58.753772 
L 126.768069 59.185353 
L 126.981392 59.616935 
L 126.338579 59.616935 
L 126.981392 59.616935 
L 126.981392 59.185353 
L 126.981392 59.185353 
L 127.194714 59.616935 
L 127.408037 59.616935 
L 127.194714 59.616935 
L 126.768069 59.185353 
L 126.554746 59.185353 
L 126.981392 58.322191 
L 126.981392 57.887211 
L 126.338579 58.753772 
L 126.125256 59.616935 
L 126.554746 59.616935 
L 126.768069 59.185353 
L 126.554746 58.753772 
L 125.69861 58.753772 
L 126.125256 58.753772 
L 126.338579 57.887211 
L 126.554746 57.887211 
L 126.338579 57.887211 
L 126.554746 57.45563 
L 126.554746 57.887211 
L 126.338579 58.322191 
L 125.911933 58.322191 
L 125.485288 57.887211 
L 125.271965 57.45563 
L 125.271965 57.024049 
L 125.911933 58.322191 
L 125.911933 58.753772 
L 125.911933 58.322191 
L 125.271965 58.322191 
L 125.271965 58.322191 
L 125.271965 59.185353 
L 125.271965 59.185353 
L 125.69861 57.45563 
L 126.125256 57.45563 
L 126.125256 57.887211 
L 125.911933 57.887211 
L 125.485288 57.024049 
L 125.69861 56.592467 
L 125.69861 56.160886 
L 125.271965 56.160886 
L 124.845319 57.024049 
L 124.845319 56.592467 
L 125.058642 56.160886 
L 125.485288 57.024049 
L 125.911933 57.45563 
L 125.058642 57.45563 
L 124.845319 57.887211 
L 124.845319 58.322191 
L 125.058642 58.753772 
L 125.271965 58.322191 
L 124.845319 57.024049 
L 124.845319 58.322191 
L 125.058642 59.616935 
L 125.271965 60.048516 
L 125.271965 57.887211 
L 125.058642 57.887211 
L 125.058642 57.024049 
L 124.631996 56.592467 
L 124.418674 56.592467 
L 123.992028 58.322191 
L 124.205351 58.753772 
L 124.631996 57.887211 
L 124.631996 57.024049 
L 125.69861 56.592467 
L 128.687974 56.592467 
L 130.181234 56.160886 
L 132.317306 54.866142 
L 134.877179 54.431163 
L 138.079866 55.297723 
L 141.069229 55.297723 
L 144.695717 53.999581 
L 148.325049 53.568 
L 151.741058 53.999581 
L 155.367545 55.297723 
L 158.996877 57.024049 
L 167.108832 61.34326 
L 179.487243 66.529032 
L 192.935112 73.009547 
L 197.844381 75.599035 
L 206.596304 79.921645 
L 210.865605 82.079551 
L 228.156129 92.016115 
L 232.209262 94.609001 
L 235.625271 96.335326 
L 238.827957 98.496631 
L 242.027799 101.089517 
L 247.57988 103.247424 
L 249.926431 104.113984 
L 251.846336 105.840309 
L 254.195732 108.433195 
L 255.049023 109.296358 
L 256.115637 110.591102 
L 256.542282 112.320825 
L 256.32896 113.615569 
L 256.115637 113.615569 
L 256.115637 114.04715 
L 255.902314 115.345293 
L 255.475668 116.640036 
L 253.769086 117.503199 
L 252.915795 118.36976 
L 251.633014 122.688971 
L 250.779722 124.415296 
L 248.433172 127.439763 
L 248.006526 128.302926 
L 247.150391 130.895812 
L 246.297099 132.625535 
L 246.083777 133.920279 
L 246.297099 136.081584 
L 246.297099 138.23949 
L 246.510422 139.537632 
L 246.510422 143.425262 
L 245.657131 146.881311 
L 245.017163 147.744473 
L 244.590517 149.905778 
L 244.163871 150.337359 
L 243.737226 149.905778 
L 243.523903 149.474197 
L 243.523903 149.474197 
L 243.523903 150.337359 
L 243.737226 150.768941 
L 243.737226 150.768941 
L 243.523903 150.768941 
L 243.523903 151.632103 
L 243.31058 152.495266 
L 242.027799 151.632103 
L 242.027799 151.632103 
L 242.027799 152.063684 
L 241.601154 152.930245 
L 241.387831 154.224989 
L 241.814476 155.519733 
L 242.457289 155.951314 
L 242.670612 155.519733 
L 241.814476 155.519733 
L 241.387831 156.386294 
L 241.174508 156.386294 
L 241.174508 156.817875 
L 241.387831 157.681038 
L 241.814476 157.681038 
L 241.814476 157.249456 
L 241.601154 156.386294 
L 241.387831 156.386294 
L 242.241122 158.112619 
L 242.027799 159.407363 
L 241.387831 160.273924 
L 240.747862 160.705505 
L 240.321217 161.568668 
L 239.894571 162.000249 
L 239.681248 162.000249 
L 239.681248 161.568668 
L 240.107894 161.137086 
L 240.107894 161.137086 
L 240.107894 162.43183 
L 239.894571 162.43183 
L 239.467926 162.000249 
L 239.254603 162.000249 
L 239.894571 163.294993 
L 240.107894 164.161553 
L 240.107894 163.729972 
L 240.107894 162.863411 
L 239.894571 162.863411 
L 239.467926 165.456297 
L 239.467926 166.31946 
L 239.254603 165.887879 
L 238.827957 164.593135 
L 238.827957 163.729972 
L 238.827957 164.161553 
L 239.254603 164.161553 
L 239.254603 164.593135 
L 239.254603 164.593135 
L 238.827957 165.024716 
L 238.614634 165.887879 
L 239.254603 165.887879 
L 239.04128 165.456297 
L 238.614634 165.456297 
L 238.827957 165.456297 
L 239.254603 165.887879 
L 239.254603 166.751041 
L 239.04128 168.480765 
L 238.614634 168.912346 
L 238.401312 167.617602 
L 238.401312 168.049183 
L 238.614634 168.049183 
L 238.187989 166.751041 
L 237.974666 166.751041 
L 238.187989 166.751041 
L 238.187989 167.617602 
L 238.401312 168.480765 
L 238.401312 168.049183 
L 238.827957 168.049183 
L 238.827957 169.775508 
L 238.827957 168.480765 
L 238.187989 168.480765 
L 238.187989 168.912346 
L 239.04128 168.049183 
L 239.467926 168.480765 
L 239.467926 169.343927 
L 239.04128 169.343927 
L 239.04128 170.20709 
L 239.04128 169.775508 
L 238.827957 169.343927 
L 238.827957 170.20709 
L 238.827957 170.20709 
L 239.254603 170.20709 
L 239.254603 169.775508 
L 238.401312 169.775508 
L 238.401312 170.642069 
L 238.614634 171.505232 
L 238.401312 172.799976 
L 238.614634 172.799976 
L 238.827957 171.505232 
L 238.614634 171.073651 
L 238.401312 171.505232 
L 238.401312 171.073651 
L 238.187989 169.775508 
L 238.401312 170.20709 
L 239.04128 170.20709 
L 239.254603 170.642069 
L 237.761343 170.642069 
L 237.761343 171.505232 
L 237.974666 172.368394 
L 238.614634 172.368394 
L 238.614634 172.368394 
L 237.545176 173.663138 
L 237.974666 173.663138 
L 238.401312 174.098118 
L 238.401312 173.663138 
L 238.187989 172.799976 
L 238.187989 172.799976 
L 237.974666 175.392862 
L 238.401312 174.529699 
L 238.187989 174.529699 
L 238.187989 174.96128 
L 237.974666 175.392862 
L 237.331853 175.392862 
L 237.11853 176.256024 
L 237.331853 177.985748 
L 237.761343 177.554166 
L 237.974666 177.119187 
L 237.974666 175.824443 
L 237.974666 175.824443 
L 238.187989 176.256024 
L 238.401312 177.554166 
L 237.974666 179.280492 
L 237.761343 179.280492 
L 237.761343 177.985748 
L 237.761343 177.985748 
L 237.974666 177.985748 
L 237.761343 177.985748 
L 238.401312 180.143654 
L 238.401312 181.441796 
L 238.187989 181.441796 
L 237.545176 180.143654 
L 236.691885 180.143654 
L 233.492043 179.280492 
L 225.806733 179.280492 
L 218.550914 180.143654 
L 214.281614 179.712073 
L 209.798991 180.143654 
L 205.103045 181.873378 
L 199.980453 184.466263 
L 194.857862 186.62417 
L 189.521948 187.922312 
L 183.969866 188.785475 
L 178.207306 190.943381 
L 172.018101 193.536267 
L 166.255541 195.697572 
L 160.706304 196.992316 
L 155.797035 197.855478 
L 150.674444 199.585202 
L 145.335685 201.743108 
L 139.786448 203.472831 
L 134.663857 205.199156 
L 129.754588 206.497299 
L 115.240105 209.090185 
L 102.648371 212.977814 
L 98.592393 214.70414 
L 95.176384 216.865444 
L 92.187021 218.160188 
L 87.704398 220.321493 
L 85.997815 219.889912 
L 83.864587 219.889912 
L 81.941838 220.321493 
L 80.661901 220.753074 
L 80.021933 220.753074 
L 79.595287 221.184655 
L 78.955319 221.616237 
L 78.741996 222.479399 
L 78.955319 224.209123 
L 79.595287 226.802009 
L 81.728515 231.12122 
L 82.368484 234.577268 
L 82.368484 235.872012 
L 82.795129 237.601736 
L 82.581806 239.328061 
L 82.155161 240.191223 
L 82.155161 240.191223 
L 82.581806 241.057784 
L 82.581806 242.352528 
L 81.941838 243.647272 
L 81.088547 244.945414 
L 80.661901 245.808576 
L 80.875224 246.240158 
L 81.515192 246.671739 
L 81.728515 247.5383 
L 80.661901 249.696206 
L 79.80861 250.559369 
L 79.168642 251.42593 
L 79.381964 251.857511 
L 79.595287 253.583836 
L 79.595287 254.881978 
L 78.741996 258.769608 
L 78.955319 260.064352 
L 79.168642 260.495933 
L 79.168642 260.927515 
L 78.955319 261.359096 
L 78.955319 261.794075 
L 78.528673 263.088819 
L 78.31535 263.088819 
L 78.099183 263.520401 
L 77.672538 265.681705 
L 77.672538 269.137754 
L 77.245892 270.864079 
L 76.819246 270.864079 
L 76.392601 271.29566 
L 75.965955 272.162221 
L 75.965955 273.888546 
L 76.605924 275.18329 
L 77.032569 275.18329 
L 76.819246 275.18329 
L 76.605924 276.481432 
L 75.965955 277.776176 
L 75.325987 278.639339 
L 74.686018 279.937481 
L 75.112664 282.961948 
L 74.899341 283.825111 
L 74.686018 283.825111 
L 74.686018 284.688273 
L 74.259373 288.575903 
L 74.259373 290.305626 
L 74.472696 291.60037 
L 74.472696 292.895114 
L 74.259373 292.463533 
L 74.259373 292.031951 
L 74.472696 292.463533 
L 74.259373 294.193256 
L 73.832727 295.488 
L 73.832727 295.488 
" style="fill:none;stroke:#1f77b4;stroke-linecap:square;stroke-width:1.5;"/>
   </g>
   <g id="matplotlib.axis_1">
    <g id="xtick_1">
     <g id="line2d_2">
      <defs>
       <path d="M 0 0 
L 0 3.5 
" id="m87eae990aa" style="stroke:#000000;stroke-width:0.8;"/>
      </defs>
      <g>
       <use style="stroke:#000000;stroke-width:0.8;" x="75.024491" xlink:href="#m87eae990aa" y="307.584"/>
      </g>
     </g>
     <g id="text_1">
      <!-- −400 -->
      <defs>
       <path d="M 10.59375 35.5 
L 73.1875 35.5 
L 73.1875 27.203125 
L 10.59375 27.203125 
z
" id="DejaVuSans-8722"/>
       <path d="M 37.796875 64.3125 
L 12.890625 25.390625 
L 37.796875 25.390625 
z
M 35.203125 72.90625 
L 47.609375 72.90625 
L 47.609375 25.390625 
L 58.015625 25.390625 
L 58.015625 17.1875 
L 47.609375 17.1875 
L 47.609375 0 
L 37.796875 0 
L 37.796875 17.1875 
L 4.890625 17.1875 
L 4.890625 26.703125 
z
" id="DejaVuSans-52"/>
       <path d="M 31.78125 66.40625 
Q 24.171875 66.40625 20.328125 58.90625 
Q 16.5 51.421875 16.5 36.375 
Q 16.5 21.390625 20.328125 13.890625 
Q 24.171875 6.390625 31.78125 6.390625 
Q 39.453125 6.390625 43.28125 13.890625 
Q 47.125 21.390625 47.125 36.375 
Q 47.125 51.421875 43.28125 58.90625 
Q 39.453125 66.40625 31.78125 66.40625 
z
M 31.78125 74.21875 
Q 44.046875 74.21875 50.515625 64.515625 
Q 56.984375 54.828125 56.984375 36.375 
Q 56.984375 17.96875 50.515625 8.265625 
Q 44.046875 -1.421875 31.78125 -1.421875 
Q 19.53125 -1.421875 13.0625 8.265625 
Q 6.59375 17.96875 6.59375 36.375 
Q 6.59375 54.828125 13.0625 64.515625 
Q 19.53125 74.21875 31.78125 74.21875 
z
" id="DejaVuSans-48"/>
      </defs>
      <g transform="translate(61.290897 322.182437)scale(0.1 -0.1)">
       <use xlink:href="#DejaVuSans-8722"/>
       <use x="83.789062" xlink:href="#DejaVuSans-52"/>
       <use x="147.412109" xlink:href="#DejaVuSans-48"/>
       <use x="211.035156" xlink:href="#DejaVuSans-48"/>
      </g>
     </g>
    </g>
    <g id="xtick_2">
     <g id="line2d_3">
      <g>
       <use style="stroke:#000000;stroke-width:0.8;" x="131.91057" xlink:href="#m87eae990aa" y="307.584"/>
      </g>
     </g>
     <g id="text_2">
      <!-- −200 -->
      <defs>
       <path d="M 19.1875 8.296875 
L 53.609375 8.296875 
L 53.609375 0 
L 7.328125 0 
L 7.328125 8.296875 
Q 12.9375 14.109375 22.625 23.890625 
Q 32.328125 33.6875 34.8125 36.53125 
Q 39.546875 41.84375 41.421875 45.53125 
Q 43.3125 49.21875 43.3125 52.78125 
Q 43.3125 58.59375 39.234375 62.25 
Q 35.15625 65.921875 28.609375 65.921875 
Q 23.96875 65.921875 18.8125 64.3125 
Q 13.671875 62.703125 7.8125 59.421875 
L 7.8125 69.390625 
Q 13.765625 71.78125 18.9375 73 
Q 24.125 74.21875 28.421875 74.21875 
Q 39.75 74.21875 46.484375 68.546875 
Q 53.21875 62.890625 53.21875 53.421875 
Q 53.21875 48.921875 51.53125 44.890625 
Q 49.859375 40.875 45.40625 35.40625 
Q 44.1875 33.984375 37.640625 27.21875 
Q 31.109375 20.453125 19.1875 8.296875 
z
" id="DejaVuSans-50"/>
      </defs>
      <g transform="translate(118.176977 322.182437)scale(0.1 -0.1)">
       <use xlink:href="#DejaVuSans-8722"/>
       <use x="83.789062" xlink:href="#DejaVuSans-50"/>
       <use x="147.412109" xlink:href="#DejaVuSans-48"/>
       <use x="211.035156" xlink:href="#DejaVuSans-48"/>
      </g>
     </g>
    </g>
    <g id="xtick_3">
     <g id="line2d_4">
      <g>
       <use style="stroke:#000000;stroke-width:0.8;" x="188.79665" xlink:href="#m87eae990aa" y="307.584"/>
      </g>
     </g>
     <g id="text_3">
      <!-- 0 -->
      <g transform="translate(185.6154 322.182437)scale(0.1 -0.1)">
       <use xlink:href="#DejaVuSans-48"/>
      </g>
     </g>
    </g>
    <g id="xtick_4">
     <g id="line2d_5">
      <g>
       <use style="stroke:#000000;stroke-width:0.8;" x="245.68273" xlink:href="#m87eae990aa" y="307.584"/>
      </g>
     </g>
     <g id="text_4">
      <!-- 200 -->
      <g transform="translate(236.13898 322.182437)scale(0.1 -0.1)">
       <use xlink:href="#DejaVuSans-50"/>
       <use x="63.623047" xlink:href="#DejaVuSans-48"/>
       <use x="127.246094" xlink:href="#DejaVuSans-48"/>
      </g>
     </g>
    </g>
    <g id="xtick_5">
     <g id="line2d_6">
      <g>
       <use style="stroke:#000000;stroke-width:0.8;" x="302.568809" xlink:href="#m87eae990aa" y="307.584"/>
      </g>
     </g>
     <g id="text_5">
      <!-- 400 -->
      <g transform="translate(293.025059 322.182437)scale(0.1 -0.1)">
       <use xlink:href="#DejaVuSans-52"/>
       <use x="63.623047" xlink:href="#DejaVuSans-48"/>
       <use x="127.246094" xlink:href="#DejaVuSans-48"/>
      </g>
     </g>
    </g>
    <g id="xtick_6">
     <g id="line2d_7">
      <g>
       <use style="stroke:#000000;stroke-width:0.8;" x="359.454889" xlink:href="#m87eae990aa" y="307.584"/>
      </g>
     </g>
     <g id="text_6">
      <!-- 600 -->
      <defs>
       <path d="M 33.015625 40.375 
Q 26.375 40.375 22.484375 35.828125 
Q 18.609375 31.296875 18.609375 23.390625 
Q 18.609375 15.53125 22.484375 10.953125 
Q 26.375 6.390625 33.015625 6.390625 
Q 39.65625 6.390625 43.53125 10.953125 
Q 47.40625 15.53125 47.40625 23.390625 
Q 47.40625 31.296875 43.53125 35.828125 
Q 39.65625 40.375 33.015625 40.375 
z
M 52.59375 71.296875 
L 52.59375 62.3125 
Q 48.875 64.0625 45.09375 64.984375 
Q 41.3125 65.921875 37.59375 65.921875 
Q 27.828125 65.921875 22.671875 59.328125 
Q 17.53125 52.734375 16.796875 39.40625 
Q 19.671875 43.65625 24.015625 45.921875 
Q 28.375 48.1875 33.59375 48.1875 
Q 44.578125 48.1875 50.953125 41.515625 
Q 57.328125 34.859375 57.328125 23.390625 
Q 57.328125 12.15625 50.6875 5.359375 
Q 44.046875 -1.421875 33.015625 -1.421875 
Q 20.359375 -1.421875 13.671875 8.265625 
Q 6.984375 17.96875 6.984375 36.375 
Q 6.984375 53.65625 15.1875 63.9375 
Q 23.390625 74.21875 37.203125 74.21875 
Q 40.921875 74.21875 44.703125 73.484375 
Q 48.484375 72.75 52.59375 71.296875 
z
" id="DejaVuSans-54"/>
      </defs>
      <g transform="translate(349.911139 322.182437)scale(0.1 -0.1)">
       <use xlink:href="#DejaVuSans-54"/>
       <use x="63.623047" xlink:href="#DejaVuSans-48"/>
       <use x="127.246094" xlink:href="#DejaVuSans-48"/>
      </g>
     </g>
    </g>
   </g>
   <g id="matplotlib.axis_2">
    <g id="ytick_1">
     <g id="line2d_8">
      <defs>
       <path d="M 0 0 
L -3.5 0 
" id="mead2b3a48c" style="stroke:#000000;stroke-width:0.8;"/>
      </defs>
      <g>
       <use style="stroke:#000000;stroke-width:0.8;" x="57.6" xlink:href="#mead2b3a48c" y="277.052343"/>
      </g>
     </g>
     <g id="text_7">
      <!-- −700 -->
      <defs>
       <path d="M 8.203125 72.90625 
L 55.078125 72.90625 
L 55.078125 68.703125 
L 28.609375 0 
L 18.3125 0 
L 43.21875 64.59375 
L 8.203125 64.59375 
z
" id="DejaVuSans-55"/>
      </defs>
      <g transform="translate(23.132812 280.851562)scale(0.1 -0.1)">
       <use xlink:href="#DejaVuSans-8722"/>
       <use x="83.789062" xlink:href="#DejaVuSans-55"/>
       <use x="147.412109" xlink:href="#DejaVuSans-48"/>
       <use x="211.035156" xlink:href="#DejaVuSans-48"/>
      </g>
     </g>
    </g>
    <g id="ytick_2">
     <g id="line2d_9">
      <g>
       <use style="stroke:#000000;stroke-width:0.8;" x="57.6" xlink:href="#mead2b3a48c" y="243.069565"/>
      </g>
     </g>
     <g id="text_8">
      <!-- −600 -->
      <g transform="translate(23.132812 246.868783)scale(0.1 -0.1)">
       <use xlink:href="#DejaVuSans-8722"/>
       <use x="83.789062" xlink:href="#DejaVuSans-54"/>
       <use x="147.412109" xlink:href="#DejaVuSans-48"/>
       <use x="211.035156" xlink:href="#DejaVuSans-48"/>
      </g>
     </g>
    </g>
    <g id="ytick_3">
     <g id="line2d_10">
      <g>
       <use style="stroke:#000000;stroke-width:0.8;" x="57.6" xlink:href="#mead2b3a48c" y="209.086786"/>
      </g>
     </g>
     <g id="text_9">
      <!-- −500 -->
      <defs>
       <path d="M 10.796875 72.90625 
L 49.515625 72.90625 
L 49.515625 64.59375 
L 19.828125 64.59375 
L 19.828125 46.734375 
Q 21.96875 47.46875 24.109375 47.828125 
Q 26.265625 48.1875 28.421875 48.1875 
Q 40.625 48.1875 47.75 41.5 
Q 54.890625 34.8125 54.890625 23.390625 
Q 54.890625 11.625 47.5625 5.09375 
Q 40.234375 -1.421875 26.90625 -1.421875 
Q 22.3125 -1.421875 17.546875 -0.640625 
Q 12.796875 0.140625 7.71875 1.703125 
L 7.71875 11.625 
Q 12.109375 9.234375 16.796875 8.0625 
Q 21.484375 6.890625 26.703125 6.890625 
Q 35.15625 6.890625 40.078125 11.328125 
Q 45.015625 15.765625 45.015625 23.390625 
Q 45.015625 31 40.078125 35.4375 
Q 35.15625 39.890625 26.703125 39.890625 
Q 22.75 39.890625 18.8125 39.015625 
Q 14.890625 38.140625 10.796875 36.28125 
z
" id="DejaVuSans-53"/>
      </defs>
      <g transform="translate(23.132812 212.886005)scale(0.1 -0.1)">
       <use xlink:href="#DejaVuSans-8722"/>
       <use x="83.789062" xlink:href="#DejaVuSans-53"/>
       <use x="147.412109" xlink:href="#DejaVuSans-48"/>
       <use x="211.035156" xlink:href="#DejaVuSans-48"/>
      </g>
     </g>
    </g>
    <g id="ytick_4">
     <g id="line2d_11">
      <g>
       <use style="stroke:#000000;stroke-width:0.8;" x="57.6" xlink:href="#mead2b3a48c" y="175.104008"/>
      </g>
     </g>
     <g id="text_10">
      <!-- −400 -->
      <g transform="translate(23.132812 178.903227)scale(0.1 -0.1)">
       <use xlink:href="#DejaVuSans-8722"/>
       <use x="83.789062" xlink:href="#DejaVuSans-52"/>
       <use x="147.412109" xlink:href="#DejaVuSans-48"/>
       <use x="211.035156" xlink:href="#DejaVuSans-48"/>
      </g>
     </g>
    </g>
    <g id="ytick_5">
     <g id="line2d_12">
      <g>
       <use style="stroke:#000000;stroke-width:0.8;" x="57.6" xlink:href="#mead2b3a48c" y="141.12123"/>
      </g>
     </g>
     <g id="text_11">
      <!-- −300 -->
      <defs>
       <path d="M 40.578125 39.3125 
Q 47.65625 37.796875 51.625 33 
Q 55.609375 28.21875 55.609375 21.1875 
Q 55.609375 10.40625 48.1875 4.484375 
Q 40.765625 -1.421875 27.09375 -1.421875 
Q 22.515625 -1.421875 17.65625 -0.515625 
Q 12.796875 0.390625 7.625 2.203125 
L 7.625 11.71875 
Q 11.71875 9.328125 16.59375 8.109375 
Q 21.484375 6.890625 26.8125 6.890625 
Q 36.078125 6.890625 40.9375 10.546875 
Q 45.796875 14.203125 45.796875 21.1875 
Q 45.796875 27.640625 41.28125 31.265625 
Q 36.765625 34.90625 28.71875 34.90625 
L 20.21875 34.90625 
L 20.21875 43.015625 
L 29.109375 43.015625 
Q 36.375 43.015625 40.234375 45.921875 
Q 44.09375 48.828125 44.09375 54.296875 
Q 44.09375 59.90625 40.109375 62.90625 
Q 36.140625 65.921875 28.71875 65.921875 
Q 24.65625 65.921875 20.015625 65.03125 
Q 15.375 64.15625 9.8125 62.3125 
L 9.8125 71.09375 
Q 15.4375 72.65625 20.34375 73.4375 
Q 25.25 74.21875 29.59375 74.21875 
Q 40.828125 74.21875 47.359375 69.109375 
Q 53.90625 64.015625 53.90625 55.328125 
Q 53.90625 49.265625 50.4375 45.09375 
Q 46.96875 40.921875 40.578125 39.3125 
z
" id="DejaVuSans-51"/>
      </defs>
      <g transform="translate(23.132812 144.920449)scale(0.1 -0.1)">
       <use xlink:href="#DejaVuSans-8722"/>
       <use x="83.789062" xlink:href="#DejaVuSans-51"/>
       <use x="147.412109" xlink:href="#DejaVuSans-48"/>
       <use x="211.035156" xlink:href="#DejaVuSans-48"/>
      </g>
     </g>
    </g>
    <g id="ytick_6">
     <g id="line2d_13">
      <g>
       <use style="stroke:#000000;stroke-width:0.8;" x="57.6" xlink:href="#mead2b3a48c" y="107.138452"/>
      </g>
     </g>
     <g id="text_12">
      <!-- −200 -->
      <g transform="translate(23.132812 110.93767)scale(0.1 -0.1)">
       <use xlink:href="#DejaVuSans-8722"/>
       <use x="83.789062" xlink:href="#DejaVuSans-50"/>
       <use x="147.412109" xlink:href="#DejaVuSans-48"/>
       <use x="211.035156" xlink:href="#DejaVuSans-48"/>
      </g>
     </g>
    </g>
    <g id="ytick_7">
     <g id="line2d_14">
      <g>
       <use style="stroke:#000000;stroke-width:0.8;" x="57.6" xlink:href="#mead2b3a48c" y="73.155673"/>
      </g>
     </g>
     <g id="text_13">
      <!-- −100 -->
      <defs>
       <path d="M 12.40625 8.296875 
L 28.515625 8.296875 
L 28.515625 63.921875 
L 10.984375 60.40625 
L 10.984375 69.390625 
L 28.421875 72.90625 
L 38.28125 72.90625 
L 38.28125 8.296875 
L 54.390625 8.296875 
L 54.390625 0 
L 12.40625 0 
z
" id="DejaVuSans-49"/>
      </defs>
      <g transform="translate(23.132812 76.954892)scale(0.1 -0.1)">
       <use xlink:href="#DejaVuSans-8722"/>
       <use x="83.789062" xlink:href="#DejaVuSans-49"/>
       <use x="147.412109" xlink:href="#DejaVuSans-48"/>
       <use x="211.035156" xlink:href="#DejaVuSans-48"/>
      </g>
     </g>
    </g>
   </g>
   <g id="line2d_15">
    <path clip-path="url(#p25c0ab0475)" d="M 396.160907 275.262721 
L 213.318129 254.272271 
L 85.65938 266.04792 
L 181.39016 222.849564 
L 127.936975 60.723184 
L 241.08583 158.670046 
" style="fill:none;stroke:#ff0000;stroke-linecap:square;stroke-width:0.5;"/>
   </g>
   <g id="patch_3">
    <path d="M 57.6 307.584 
L 57.6 41.472 
" style="fill:none;stroke:#000000;stroke-linecap:square;stroke-linejoin:miter;stroke-width:0.8;"/>
   </g>
   <g id="patch_4">
    <path d="M 414.72 307.584 
L 414.72 41.472 
" style="fill:none;stroke:#000000;stroke-linecap:square;stroke-linejoin:miter;stroke-width:0.8;"/>
   </g>
   <g id="patch_5">
    <path d="M 57.6 307.584 
L 414.72 307.584 
" style="fill:none;stroke:#000000;stroke-linecap:square;stroke-linejoin:miter;stroke-width:0.8;"/>
   </g>
   <g id="patch_6">
    <path d="M 57.6 41.472 
L 414.72 41.472 
" style="fill:none;stroke:#000000;stroke-linecap:square;stroke-linejoin:miter;stroke-width:0.8;"/>
   </g>
   <g id="PathCollection_1">
    <defs>
     <path d="M 0 2.738613 
C 0.726289 2.738613 1.422928 2.450055 1.936492 1.936492 
C 2.450055 1.422928 2.738613 0.726289 2.738613 0 
C 2.738613 -0.726289 2.450055 -1.422928 1.936492 -1.936492 
C 1.422928 -2.450055 0.726289 -2.738613 0 -2.738613 
C -0.726289 -2.738613 -1.422928 -2.450055 -1.936492 -1.936492 
C -2.450055 -1.422928 -2.738613 -0.726289 -2.738613 0 
C -2.738613 0.726289 -2.450055 1.422928 -1.936492 1.936492 
C -1.422928 2.450055 -0.726289 2.738613 0 2.738613 
z
" id="m1fee0c9600" style="stroke:#ff0000;"/>
    </defs>
    <g clip-path="url(#p25c0ab0475)">
     <use style="fill:#ff0000;stroke:#ff0000;" x="396.160907" xlink:href="#m1fee0c9600" y="275.262721"/>
     <use style="fill:#ff0000;stroke:#ff0000;" x="213.318129" xlink:href="#m1fee0c9600" y="254.272271"/>
     <use style="fill:#ff0000;stroke:#ff0000;" x="85.65938" xlink:href="#m1fee0c9600" y="266.04792"/>
     <use style="fill:#ff0000;stroke:#ff0000;" x="181.39016" xlink:href="#m1fee0c9600" y="222.849564"/>
     <use style="fill:#ff0000;stroke:#ff0000;" x="127.936975" xlink:href="#m1fee0c9600" y="60.723184"/>
     <use style="fill:#ff0000;stroke:#ff0000;" x="241.08583" xlink:href="#m1fee0c9600" y="158.670046"/>
    </g>
   </g>
   <g id="text_14">
    <!-- (148) Subject: s3, Known = False, Degree = 1, Duration = 0.1 -->
    <defs>
     <path d="M 31 75.875 
Q 24.46875 64.65625 21.28125 53.65625 
Q 18.109375 42.671875 18.109375 31.390625 
Q 18.109375 20.125 21.3125 9.0625 
Q 24.515625 -2 31 -13.1875 
L 23.1875 -13.1875 
Q 15.875 -1.703125 12.234375 9.375 
Q 8.59375 20.453125 8.59375 31.390625 
Q 8.59375 42.28125 12.203125 53.3125 
Q 15.828125 64.359375 23.1875 75.875 
z
" id="DejaVuSans-40"/>
     <path d="M 31.78125 34.625 
Q 24.75 34.625 20.71875 30.859375 
Q 16.703125 27.09375 16.703125 20.515625 
Q 16.703125 13.921875 20.71875 10.15625 
Q 24.75 6.390625 31.78125 6.390625 
Q 38.8125 6.390625 42.859375 10.171875 
Q 46.921875 13.96875 46.921875 20.515625 
Q 46.921875 27.09375 42.890625 30.859375 
Q 38.875 34.625 31.78125 34.625 
z
M 21.921875 38.8125 
Q 15.578125 40.375 12.03125 44.71875 
Q 8.5 49.078125 8.5 55.328125 
Q 8.5 64.0625 14.71875 69.140625 
Q 20.953125 74.21875 31.78125 74.21875 
Q 42.671875 74.21875 48.875 69.140625 
Q 55.078125 64.0625 55.078125 55.328125 
Q 55.078125 49.078125 51.53125 44.71875 
Q 48 40.375 41.703125 38.8125 
Q 48.828125 37.15625 52.796875 32.3125 
Q 56.78125 27.484375 56.78125 20.515625 
Q 56.78125 9.90625 50.3125 4.234375 
Q 43.84375 -1.421875 31.78125 -1.421875 
Q 19.734375 -1.421875 13.25 4.234375 
Q 6.78125 9.90625 6.78125 20.515625 
Q 6.78125 27.484375 10.78125 32.3125 
Q 14.796875 37.15625 21.921875 38.8125 
z
M 18.3125 54.390625 
Q 18.3125 48.734375 21.84375 45.5625 
Q 25.390625 42.390625 31.78125 42.390625 
Q 38.140625 42.390625 41.71875 45.5625 
Q 45.3125 48.734375 45.3125 54.390625 
Q 45.3125 60.0625 41.71875 63.234375 
Q 38.140625 66.40625 31.78125 66.40625 
Q 25.390625 66.40625 21.84375 63.234375 
Q 18.3125 60.0625 18.3125 54.390625 
z
" id="DejaVuSans-56"/>
     <path d="M 8.015625 75.875 
L 15.828125 75.875 
Q 23.140625 64.359375 26.78125 53.3125 
Q 30.421875 42.28125 30.421875 31.390625 
Q 30.421875 20.453125 26.78125 9.375 
Q 23.140625 -1.703125 15.828125 -13.1875 
L 8.015625 -13.1875 
Q 14.5 -2 17.703125 9.0625 
Q 20.90625 20.125 20.90625 31.390625 
Q 20.90625 42.671875 17.703125 53.65625 
Q 14.5 64.65625 8.015625 75.875 
z
" id="DejaVuSans-41"/>
     <path id="DejaVuSans-32"/>
     <path d="M 53.515625 70.515625 
L 53.515625 60.890625 
Q 47.90625 63.578125 42.921875 64.890625 
Q 37.9375 66.21875 33.296875 66.21875 
Q 25.25 66.21875 20.875 63.09375 
Q 16.5 59.96875 16.5 54.203125 
Q 16.5 49.359375 19.40625 46.890625 
Q 22.3125 44.4375 30.421875 42.921875 
L 36.375 41.703125 
Q 47.40625 39.59375 52.65625 34.296875 
Q 57.90625 29 57.90625 20.125 
Q 57.90625 9.515625 50.796875 4.046875 
Q 43.703125 -1.421875 29.984375 -1.421875 
Q 24.8125 -1.421875 18.96875 -0.25 
Q 13.140625 0.921875 6.890625 3.21875 
L 6.890625 13.375 
Q 12.890625 10.015625 18.65625 8.296875 
Q 24.421875 6.59375 29.984375 6.59375 
Q 38.421875 6.59375 43.015625 9.90625 
Q 47.609375 13.234375 47.609375 19.390625 
Q 47.609375 24.75 44.3125 27.78125 
Q 41.015625 30.8125 33.5 32.328125 
L 27.484375 33.5 
Q 16.453125 35.6875 11.515625 40.375 
Q 6.59375 45.0625 6.59375 53.421875 
Q 6.59375 63.09375 13.40625 68.65625 
Q 20.21875 74.21875 32.171875 74.21875 
Q 37.3125 74.21875 42.625 73.28125 
Q 47.953125 72.359375 53.515625 70.515625 
z
" id="DejaVuSans-83"/>
     <path d="M 8.5 21.578125 
L 8.5 54.6875 
L 17.484375 54.6875 
L 17.484375 21.921875 
Q 17.484375 14.15625 20.5 10.265625 
Q 23.53125 6.390625 29.59375 6.390625 
Q 36.859375 6.390625 41.078125 11.03125 
Q 45.3125 15.671875 45.3125 23.6875 
L 45.3125 54.6875 
L 54.296875 54.6875 
L 54.296875 0 
L 45.3125 0 
L 45.3125 8.40625 
Q 42.046875 3.421875 37.71875 1 
Q 33.40625 -1.421875 27.6875 -1.421875 
Q 18.265625 -1.421875 13.375 4.4375 
Q 8.5 10.296875 8.5 21.578125 
z
M 31.109375 56 
z
" id="DejaVuSans-117"/>
     <path d="M 48.6875 27.296875 
Q 48.6875 37.203125 44.609375 42.84375 
Q 40.53125 48.484375 33.40625 48.484375 
Q 26.265625 48.484375 22.1875 42.84375 
Q 18.109375 37.203125 18.109375 27.296875 
Q 18.109375 17.390625 22.1875 11.75 
Q 26.265625 6.109375 33.40625 6.109375 
Q 40.53125 6.109375 44.609375 11.75 
Q 48.6875 17.390625 48.6875 27.296875 
z
M 18.109375 46.390625 
Q 20.953125 51.265625 25.265625 53.625 
Q 29.59375 56 35.59375 56 
Q 45.5625 56 51.78125 48.09375 
Q 58.015625 40.1875 58.015625 27.296875 
Q 58.015625 14.40625 51.78125 6.484375 
Q 45.5625 -1.421875 35.59375 -1.421875 
Q 29.59375 -1.421875 25.265625 0.953125 
Q 20.953125 3.328125 18.109375 8.203125 
L 18.109375 0 
L 9.078125 0 
L 9.078125 75.984375 
L 18.109375 75.984375 
z
" id="DejaVuSans-98"/>
     <path d="M 9.421875 54.6875 
L 18.40625 54.6875 
L 18.40625 -0.984375 
Q 18.40625 -11.421875 14.421875 -16.109375 
Q 10.453125 -20.796875 1.609375 -20.796875 
L -1.8125 -20.796875 
L -1.8125 -13.1875 
L 0.59375 -13.1875 
Q 5.71875 -13.1875 7.5625 -10.8125 
Q 9.421875 -8.453125 9.421875 -0.984375 
z
M 9.421875 75.984375 
L 18.40625 75.984375 
L 18.40625 64.59375 
L 9.421875 64.59375 
z
" id="DejaVuSans-106"/>
     <path d="M 56.203125 29.59375 
L 56.203125 25.203125 
L 14.890625 25.203125 
Q 15.484375 15.921875 20.484375 11.0625 
Q 25.484375 6.203125 34.421875 6.203125 
Q 39.59375 6.203125 44.453125 7.46875 
Q 49.3125 8.734375 54.109375 11.28125 
L 54.109375 2.78125 
Q 49.265625 0.734375 44.1875 -0.34375 
Q 39.109375 -1.421875 33.890625 -1.421875 
Q 20.796875 -1.421875 13.15625 6.1875 
Q 5.515625 13.8125 5.515625 26.8125 
Q 5.515625 40.234375 12.765625 48.109375 
Q 20.015625 56 32.328125 56 
Q 43.359375 56 49.78125 48.890625 
Q 56.203125 41.796875 56.203125 29.59375 
z
M 47.21875 32.234375 
Q 47.125 39.59375 43.09375 43.984375 
Q 39.0625 48.390625 32.421875 48.390625 
Q 24.90625 48.390625 20.390625 44.140625 
Q 15.875 39.890625 15.1875 32.171875 
z
" id="DejaVuSans-101"/>
     <path d="M 48.78125 52.59375 
L 48.78125 44.1875 
Q 44.96875 46.296875 41.140625 47.34375 
Q 37.3125 48.390625 33.40625 48.390625 
Q 24.65625 48.390625 19.8125 42.84375 
Q 14.984375 37.3125 14.984375 27.296875 
Q 14.984375 17.28125 19.8125 11.734375 
Q 24.65625 6.203125 33.40625 6.203125 
Q 37.3125 6.203125 41.140625 7.25 
Q 44.96875 8.296875 48.78125 10.40625 
L 48.78125 2.09375 
Q 45.015625 0.34375 40.984375 -0.53125 
Q 36.96875 -1.421875 32.421875 -1.421875 
Q 20.0625 -1.421875 12.78125 6.34375 
Q 5.515625 14.109375 5.515625 27.296875 
Q 5.515625 40.671875 12.859375 48.328125 
Q 20.21875 56 33.015625 56 
Q 37.15625 56 41.109375 55.140625 
Q 45.0625 54.296875 48.78125 52.59375 
z
" id="DejaVuSans-99"/>
     <path d="M 18.3125 70.21875 
L 18.3125 54.6875 
L 36.8125 54.6875 
L 36.8125 47.703125 
L 18.3125 47.703125 
L 18.3125 18.015625 
Q 18.3125 11.328125 20.140625 9.421875 
Q 21.96875 7.515625 27.59375 7.515625 
L 36.8125 7.515625 
L 36.8125 0 
L 27.59375 0 
Q 17.1875 0 13.234375 3.875 
Q 9.28125 7.765625 9.28125 18.015625 
L 9.28125 47.703125 
L 2.6875 47.703125 
L 2.6875 54.6875 
L 9.28125 54.6875 
L 9.28125 70.21875 
z
" id="DejaVuSans-116"/>
     <path d="M 11.71875 12.40625 
L 22.015625 12.40625 
L 22.015625 0 
L 11.71875 0 
z
M 11.71875 51.703125 
L 22.015625 51.703125 
L 22.015625 39.3125 
L 11.71875 39.3125 
z
" id="DejaVuSans-58"/>
     <path d="M 44.28125 53.078125 
L 44.28125 44.578125 
Q 40.484375 46.53125 36.375 47.5 
Q 32.28125 48.484375 27.875 48.484375 
Q 21.1875 48.484375 17.84375 46.4375 
Q 14.5 44.390625 14.5 40.28125 
Q 14.5 37.15625 16.890625 35.375 
Q 19.28125 33.59375 26.515625 31.984375 
L 29.59375 31.296875 
Q 39.15625 29.25 43.1875 25.515625 
Q 47.21875 21.78125 47.21875 15.09375 
Q 47.21875 7.46875 41.1875 3.015625 
Q 35.15625 -1.421875 24.609375 -1.421875 
Q 20.21875 -1.421875 15.453125 -0.5625 
Q 10.6875 0.296875 5.421875 2 
L 5.421875 11.28125 
Q 10.40625 8.6875 15.234375 7.390625 
Q 20.0625 6.109375 24.8125 6.109375 
Q 31.15625 6.109375 34.5625 8.28125 
Q 37.984375 10.453125 37.984375 14.40625 
Q 37.984375 18.0625 35.515625 20.015625 
Q 33.0625 21.96875 24.703125 23.78125 
L 21.578125 24.515625 
Q 13.234375 26.265625 9.515625 29.90625 
Q 5.8125 33.546875 5.8125 39.890625 
Q 5.8125 47.609375 11.28125 51.796875 
Q 16.75 56 26.8125 56 
Q 31.78125 56 36.171875 55.265625 
Q 40.578125 54.546875 44.28125 53.078125 
z
" id="DejaVuSans-115"/>
     <path d="M 11.71875 12.40625 
L 22.015625 12.40625 
L 22.015625 4 
L 14.015625 -11.625 
L 7.71875 -11.625 
L 11.71875 4 
z
" id="DejaVuSans-44"/>
     <path d="M 9.8125 72.90625 
L 19.671875 72.90625 
L 19.671875 42.09375 
L 52.390625 72.90625 
L 65.09375 72.90625 
L 28.90625 38.921875 
L 67.671875 0 
L 54.6875 0 
L 19.671875 35.109375 
L 19.671875 0 
L 9.8125 0 
z
" id="DejaVuSans-75"/>
     <path d="M 54.890625 33.015625 
L 54.890625 0 
L 45.90625 0 
L 45.90625 32.71875 
Q 45.90625 40.484375 42.875 44.328125 
Q 39.84375 48.1875 33.796875 48.1875 
Q 26.515625 48.1875 22.3125 43.546875 
Q 18.109375 38.921875 18.109375 30.90625 
L 18.109375 0 
L 9.078125 0 
L 9.078125 54.6875 
L 18.109375 54.6875 
L 18.109375 46.1875 
Q 21.34375 51.125 25.703125 53.5625 
Q 30.078125 56 35.796875 56 
Q 45.21875 56 50.046875 50.171875 
Q 54.890625 44.34375 54.890625 33.015625 
z
" id="DejaVuSans-110"/>
     <path d="M 30.609375 48.390625 
Q 23.390625 48.390625 19.1875 42.75 
Q 14.984375 37.109375 14.984375 27.296875 
Q 14.984375 17.484375 19.15625 11.84375 
Q 23.34375 6.203125 30.609375 6.203125 
Q 37.796875 6.203125 41.984375 11.859375 
Q 46.1875 17.53125 46.1875 27.296875 
Q 46.1875 37.015625 41.984375 42.703125 
Q 37.796875 48.390625 30.609375 48.390625 
z
M 30.609375 56 
Q 42.328125 56 49.015625 48.375 
Q 55.71875 40.765625 55.71875 27.296875 
Q 55.71875 13.875 49.015625 6.21875 
Q 42.328125 -1.421875 30.609375 -1.421875 
Q 18.84375 -1.421875 12.171875 6.21875 
Q 5.515625 13.875 5.515625 27.296875 
Q 5.515625 40.765625 12.171875 48.375 
Q 18.84375 56 30.609375 56 
z
" id="DejaVuSans-111"/>
     <path d="M 4.203125 54.6875 
L 13.1875 54.6875 
L 24.421875 12.015625 
L 35.59375 54.6875 
L 46.1875 54.6875 
L 57.421875 12.015625 
L 68.609375 54.6875 
L 77.59375 54.6875 
L 63.28125 0 
L 52.6875 0 
L 40.921875 44.828125 
L 29.109375 0 
L 18.5 0 
z
" id="DejaVuSans-119"/>
     <path d="M 10.59375 45.40625 
L 73.1875 45.40625 
L 73.1875 37.203125 
L 10.59375 37.203125 
z
M 10.59375 25.484375 
L 73.1875 25.484375 
L 73.1875 17.1875 
L 10.59375 17.1875 
z
" id="DejaVuSans-61"/>
     <path d="M 9.8125 72.90625 
L 51.703125 72.90625 
L 51.703125 64.59375 
L 19.671875 64.59375 
L 19.671875 43.109375 
L 48.578125 43.109375 
L 48.578125 34.8125 
L 19.671875 34.8125 
L 19.671875 0 
L 9.8125 0 
z
" id="DejaVuSans-70"/>
     <path d="M 34.28125 27.484375 
Q 23.390625 27.484375 19.1875 25 
Q 14.984375 22.515625 14.984375 16.5 
Q 14.984375 11.71875 18.140625 8.90625 
Q 21.296875 6.109375 26.703125 6.109375 
Q 34.1875 6.109375 38.703125 11.40625 
Q 43.21875 16.703125 43.21875 25.484375 
L 43.21875 27.484375 
z
M 52.203125 31.203125 
L 52.203125 0 
L 43.21875 0 
L 43.21875 8.296875 
Q 40.140625 3.328125 35.546875 0.953125 
Q 30.953125 -1.421875 24.3125 -1.421875 
Q 15.921875 -1.421875 10.953125 3.296875 
Q 6 8.015625 6 15.921875 
Q 6 25.140625 12.171875 29.828125 
Q 18.359375 34.515625 30.609375 34.515625 
L 43.21875 34.515625 
L 43.21875 35.40625 
Q 43.21875 41.609375 39.140625 45 
Q 35.0625 48.390625 27.6875 48.390625 
Q 23 48.390625 18.546875 47.265625 
Q 14.109375 46.140625 10.015625 43.890625 
L 10.015625 52.203125 
Q 14.9375 54.109375 19.578125 55.046875 
Q 24.21875 56 28.609375 56 
Q 40.484375 56 46.34375 49.84375 
Q 52.203125 43.703125 52.203125 31.203125 
z
" id="DejaVuSans-97"/>
     <path d="M 9.421875 75.984375 
L 18.40625 75.984375 
L 18.40625 0 
L 9.421875 0 
z
" id="DejaVuSans-108"/>
     <path d="M 19.671875 64.796875 
L 19.671875 8.109375 
L 31.59375 8.109375 
Q 46.6875 8.109375 53.6875 14.9375 
Q 60.6875 21.78125 60.6875 36.53125 
Q 60.6875 51.171875 53.6875 57.984375 
Q 46.6875 64.796875 31.59375 64.796875 
z
M 9.8125 72.90625 
L 30.078125 72.90625 
Q 51.265625 72.90625 61.171875 64.09375 
Q 71.09375 55.28125 71.09375 36.53125 
Q 71.09375 17.671875 61.125 8.828125 
Q 51.171875 0 30.078125 0 
L 9.8125 0 
z
" id="DejaVuSans-68"/>
     <path d="M 45.40625 27.984375 
Q 45.40625 37.75 41.375 43.109375 
Q 37.359375 48.484375 30.078125 48.484375 
Q 22.859375 48.484375 18.828125 43.109375 
Q 14.796875 37.75 14.796875 27.984375 
Q 14.796875 18.265625 18.828125 12.890625 
Q 22.859375 7.515625 30.078125 7.515625 
Q 37.359375 7.515625 41.375 12.890625 
Q 45.40625 18.265625 45.40625 27.984375 
z
M 54.390625 6.78125 
Q 54.390625 -7.171875 48.1875 -13.984375 
Q 42 -20.796875 29.203125 -20.796875 
Q 24.46875 -20.796875 20.265625 -20.09375 
Q 16.0625 -19.390625 12.109375 -17.921875 
L 12.109375 -9.1875 
Q 16.0625 -11.328125 19.921875 -12.34375 
Q 23.78125 -13.375 27.78125 -13.375 
Q 36.625 -13.375 41.015625 -8.765625 
Q 45.40625 -4.15625 45.40625 5.171875 
L 45.40625 9.625 
Q 42.625 4.78125 38.28125 2.390625 
Q 33.9375 0 27.875 0 
Q 17.828125 0 11.671875 7.65625 
Q 5.515625 15.328125 5.515625 27.984375 
Q 5.515625 40.671875 11.671875 48.328125 
Q 17.828125 56 27.875 56 
Q 33.9375 56 38.28125 53.609375 
Q 42.625 51.21875 45.40625 46.390625 
L 45.40625 54.6875 
L 54.390625 54.6875 
z
" id="DejaVuSans-103"/>
     <path d="M 41.109375 46.296875 
Q 39.59375 47.171875 37.8125 47.578125 
Q 36.03125 48 33.890625 48 
Q 26.265625 48 22.1875 43.046875 
Q 18.109375 38.09375 18.109375 28.8125 
L 18.109375 0 
L 9.078125 0 
L 9.078125 54.6875 
L 18.109375 54.6875 
L 18.109375 46.1875 
Q 20.953125 51.171875 25.484375 53.578125 
Q 30.03125 56 36.53125 56 
Q 37.453125 56 38.578125 55.875 
Q 39.703125 55.765625 41.0625 55.515625 
z
" id="DejaVuSans-114"/>
     <path d="M 9.421875 54.6875 
L 18.40625 54.6875 
L 18.40625 0 
L 9.421875 0 
z
M 9.421875 75.984375 
L 18.40625 75.984375 
L 18.40625 64.59375 
L 9.421875 64.59375 
z
" id="DejaVuSans-105"/>
     <path d="M 10.6875 12.40625 
L 21 12.40625 
L 21 0 
L 10.6875 0 
z
" id="DejaVuSans-46"/>
    </defs>
    <g transform="translate(49.741875 35.472)scale(0.12 -0.12)">
     <use xlink:href="#DejaVuSans-40"/>
     <use x="39.013672" xlink:href="#DejaVuSans-49"/>
     <use x="102.636719" xlink:href="#DejaVuSans-52"/>
     <use x="166.259766" xlink:href="#DejaVuSans-56"/>
     <use x="229.882812" xlink:href="#DejaVuSans-41"/>
     <use x="268.896484" xlink:href="#DejaVuSans-32"/>
     <use x="300.683594" xlink:href="#DejaVuSans-83"/>
     <use x="364.160156" xlink:href="#DejaVuSans-117"/>
     <use x="427.539062" xlink:href="#DejaVuSans-98"/>
     <use x="491.015625" xlink:href="#DejaVuSans-106"/>
     <use x="518.798828" xlink:href="#DejaVuSans-101"/>
     <use x="580.322266" xlink:href="#DejaVuSans-99"/>
     <use x="635.302734" xlink:href="#DejaVuSans-116"/>
     <use x="674.511719" xlink:href="#DejaVuSans-58"/>
     <use x="708.203125" xlink:href="#DejaVuSans-32"/>
     <use x="739.990234" xlink:href="#DejaVuSans-115"/>
     <use x="792.089844" xlink:href="#DejaVuSans-51"/>
     <use x="855.712891" xlink:href="#DejaVuSans-44"/>
     <use x="887.5" xlink:href="#DejaVuSans-32"/>
     <use x="919.287109" xlink:href="#DejaVuSans-75"/>
     <use x="984.863281" xlink:href="#DejaVuSans-110"/>
     <use x="1048.242188" xlink:href="#DejaVuSans-111"/>
     <use x="1109.423828" xlink:href="#DejaVuSans-119"/>
     <use x="1191.210938" xlink:href="#DejaVuSans-110"/>
     <use x="1254.589844" xlink:href="#DejaVuSans-32"/>
     <use x="1286.376953" xlink:href="#DejaVuSans-61"/>
     <use x="1370.166016" xlink:href="#DejaVuSans-32"/>
     <use x="1401.953125" xlink:href="#DejaVuSans-70"/>
     <use x="1459.332031" xlink:href="#DejaVuSans-97"/>
     <use x="1520.611328" xlink:href="#DejaVuSans-108"/>
     <use x="1548.394531" xlink:href="#DejaVuSans-115"/>
     <use x="1600.494141" xlink:href="#DejaVuSans-101"/>
     <use x="1662.017578" xlink:href="#DejaVuSans-44"/>
     <use x="1693.804688" xlink:href="#DejaVuSans-32"/>
     <use x="1725.591797" xlink:href="#DejaVuSans-68"/>
     <use x="1802.59375" xlink:href="#DejaVuSans-101"/>
     <use x="1864.117188" xlink:href="#DejaVuSans-103"/>
     <use x="1927.59375" xlink:href="#DejaVuSans-114"/>
     <use x="1968.675781" xlink:href="#DejaVuSans-101"/>
     <use x="2030.199219" xlink:href="#DejaVuSans-101"/>
     <use x="2091.722656" xlink:href="#DejaVuSans-32"/>
     <use x="2123.509766" xlink:href="#DejaVuSans-61"/>
     <use x="2207.298828" xlink:href="#DejaVuSans-32"/>
     <use x="2239.085938" xlink:href="#DejaVuSans-49"/>
     <use x="2302.708984" xlink:href="#DejaVuSans-44"/>
     <use x="2334.496094" xlink:href="#DejaVuSans-32"/>
     <use x="2366.283203" xlink:href="#DejaVuSans-68"/>
     <use x="2443.285156" xlink:href="#DejaVuSans-117"/>
     <use x="2506.664062" xlink:href="#DejaVuSans-114"/>
     <use x="2547.777344" xlink:href="#DejaVuSans-97"/>
     <use x="2609.056641" xlink:href="#DejaVuSans-116"/>
     <use x="2648.265625" xlink:href="#DejaVuSans-105"/>
     <use x="2676.048828" xlink:href="#DejaVuSans-111"/>
     <use x="2737.230469" xlink:href="#DejaVuSans-110"/>
     <use x="2800.609375" xlink:href="#DejaVuSans-32"/>
     <use x="2832.396484" xlink:href="#DejaVuSans-61"/>
     <use x="2916.185547" xlink:href="#DejaVuSans-32"/>
     <use x="2947.972656" xlink:href="#DejaVuSans-48"/>
     <use x="3011.595703" xlink:href="#DejaVuSans-46"/>
     <use x="3043.382812" xlink:href="#DejaVuSans-49"/>
    </g>
   </g>
  </g>
 </g>
 <defs>
  <clipPath id="p25c0ab0475">
   <rect height="266.112" width="357.12" x="57.6" y="41.472"/>
  </clipPath>
 </defs>
</svg>
