<?xml version="1.0" encoding="utf-8" standalone="no"?>
<!DOCTYPE svg PUBLIC "-//W3C//DTD SVG 1.1//EN"
  "http://www.w3.org/Graphics/SVG/1.1/DTD/svg11.dtd">
<!-- Created with matplotlib (https://matplotlib.org/) -->
<svg height="345.6pt" version="1.1" viewBox="0 0 460.8 345.6" width="460.8pt" xmlns="http://www.w3.org/2000/svg" xmlns:xlink="http://www.w3.org/1999/xlink">
 <defs>
  <style type="text/css">
*{stroke-linecap:butt;stroke-linejoin:round;}
  </style>
 </defs>
 <g id="figure_1">
  <g id="patch_1">
   <path d="M 0 345.6 
L 460.8 345.6 
L 460.8 0 
L 0 0 
z
" style="fill:#ffffff;"/>
  </g>
  <g id="axes_1">
   <g id="patch_2">
    <path d="M 57.6 307.584 
L 414.72 307.584 
L 414.72 41.472 
L 57.6 41.472 
z
" style="fill:#ffffff;"/>
   </g>
   <g id="line2d_1">
    <path clip-path="url(#p9a96eeae87)" d="M 77.302906 285.108881 
L 76.987773 285.75667 
L 76.987773 286.409292 
L 77.302906 285.75667 
L 77.302906 284.461093 
L 77.302906 285.108881 
L 78.248308 287.704869 
L 77.933174 287.704869 
L 77.933174 287.704869 
L 78.563442 286.409292 
L 78.563442 285.75667 
L 77.61804 286.409292 
L 77.302906 286.409292 
L 77.61804 287.057081 
L 77.933174 286.409292 
L 77.302906 286.409292 
L 76.672639 285.75667 
L 76.357505 286.409292 
L 76.987773 287.704869 
L 76.987773 288.352658 
L 76.672639 289.000446 
L 76.987773 289.000446 
L 77.302906 288.352658 
L 77.61804 288.352658 
L 77.61804 291.596435 
L 77.933174 291.596435 
L 77.933174 289.000446 
L 77.933174 291.596435 
L 78.248308 290.948646 
L 78.563442 290.948646 
L 78.878575 291.596435 
L 78.878575 292.244223 
L 78.248308 292.892012 
L 78.563442 292.892012 
L 78.563442 292.892012 
L 78.563442 291.596435 
L 78.248308 290.300858 
L 77.933174 289.648235 
L 77.933174 292.892012 
L 77.61804 292.892012 
L 77.302906 291.596435 
L 77.61804 290.300858 
L 77.933174 290.300858 
L 77.933174 289.648235 
L 77.933174 289.648235 
L 78.248308 290.948646 
L 78.878575 292.244223 
L 79.193709 292.244223 
L 78.878575 291.596435 
L 78.563442 292.892012 
L 78.878575 294.192423 
L 79.823977 294.192423 
L 80.454244 293.5398 
L 78.878575 293.5398 
L 78.248308 294.192423 
L 77.933174 294.192423 
L 77.61804 293.5398 
L 77.61804 292.244223 
L 77.933174 291.596435 
L 79.508843 291.596435 
L 79.193709 291.596435 
L 79.193709 292.892012 
L 79.823977 291.596435 
L 79.508843 291.596435 
L 78.878575 292.244223 
L 79.193709 293.5398 
L 79.823977 294.840211 
L 80.139111 294.192423 
L 79.508843 292.892012 
L 78.878575 293.5398 
L 77.933174 295.488 
L 78.248308 294.840211 
L 78.563442 293.5398 
L 78.563442 292.892012 
L 77.933174 292.244223 
L 77.61804 292.244223 
L 77.61804 292.244223 
L 78.563442 292.892012 
L 79.193709 293.5398 
L 78.563442 294.192423 
L 77.933174 294.192423 
L 78.248308 293.5398 
L 79.193709 292.892012 
L 79.193709 293.5398 
L 78.563442 293.5398 
L 78.878575 294.192423 
L 79.508843 294.840211 
L 79.193709 294.840211 
L 78.878575 293.5398 
L 78.878575 292.244223 
L 78.563442 290.948646 
L 78.563442 290.300858 
L 78.248308 290.948646 
L 78.248308 293.5398 
L 78.563442 293.5398 
L 79.508843 292.892012 
L 80.139111 291.596435 
L 80.139111 291.596435 
L 79.823977 292.892012 
L 79.193709 294.192423 
L 78.878575 294.192423 
L 78.878575 294.192423 
L 78.878575 293.5398 
L 77.61804 293.5398 
L 77.61804 292.244223 
L 78.248308 290.948646 
L 78.248308 290.948646 
L 79.508843 290.948646 
L 79.508843 291.596435 
L 79.193709 291.596435 
L 78.563442 290.948646 
L 77.933174 290.948646 
L 77.933174 290.948646 
L 78.563442 290.300858 
L 78.563442 289.648235 
L 78.563442 290.300858 
L 78.248308 290.948646 
L 78.563442 290.300858 
L 78.563442 289.648235 
L 77.933174 289.000446 
L 77.61804 287.704869 
L 77.61804 288.352658 
L 78.878575 288.352658 
L 78.878575 289.000446 
L 78.563442 289.648235 
L 78.248308 289.000446 
L 77.933174 287.704869 
L 77.61804 287.057081 
L 77.61804 287.057081 
L 77.61804 286.409292 
L 77.933174 285.108881 
L 78.248308 285.108881 
L 78.248308 285.75667 
L 77.933174 287.057081 
L 76.987773 287.704869 
L 76.987773 286.409292 
L 77.61804 285.108881 
L 77.302906 284.461093 
L 76.357505 284.461093 
L 75.727238 283.813304 
L 76.042371 283.813304 
L 75.727238 283.813304 
L 75.727238 282.517727 
L 76.672639 281.217316 
L 77.302906 281.217316 
L 76.987773 282.517727 
L 76.672639 282.517727 
L 76.357505 281.865104 
L 76.357505 280.569527 
L 76.042371 279.921739 
L 76.042371 279.27395 
L 76.672639 279.27395 
L 76.672639 279.27395 
L 76.672639 279.921739 
L 76.987773 279.921739 
L 77.302906 279.27395 
L 76.987773 279.27395 
L 76.042371 279.921739 
L 74.781836 280.569527 
L 74.781836 281.217316 
L 75.727238 280.569527 
L 76.672639 277.973539 
L 76.672639 278.626162 
L 76.042371 279.27395 
L 75.727238 278.626162 
L 76.042371 278.626162 
L 75.727238 279.27395 
L 75.412104 279.27395 
L 74.147861 280.569527 
L 73.832727 281.217316 
L 74.147861 279.921739 
L 74.781836 278.626162 
L 75.727238 279.27395 
L 76.042371 280.569527 
L 76.042371 281.865104 
L 75.412104 281.865104 
L 74.781836 280.569527 
L 74.781836 278.626162 
L 75.727238 277.325751 
L 76.987773 274.734597 
L 77.302906 275.382385 
L 77.302906 276.677962 
L 76.042371 279.27395 
L 75.727238 278.626162 
L 75.727238 278.626162 
L 75.727238 279.27395 
L 75.412104 279.27395 
L 75.412104 278.626162 
L 75.727238 277.973539 
L 75.412104 279.27395 
L 75.412104 280.569527 
L 75.412104 280.569527 
L 75.727238 279.27395 
L 75.727238 277.325751 
L 76.042371 277.325751 
L 76.357505 277.973539 
L 76.042371 279.27395 
L 75.727238 279.27395 
L 75.412104 277.973539 
L 75.412104 277.973539 
L 75.412104 278.626162 
L 75.412104 278.626162 
L 75.727238 278.626162 
L 75.727238 278.626162 
L 75.412104 277.973539 
L 75.412104 277.325751 
L 75.727238 277.325751 
L 75.727238 279.27395 
L 75.412104 280.569527 
L 76.042371 279.27395 
L 75.412104 276.677962 
L 74.781836 276.677962 
L 76.042371 279.27395 
L 75.727238 278.626162 
L 75.09697 278.626162 
L 75.412104 277.973539 
L 76.042371 277.973539 
L 76.672639 277.325751 
L 76.672639 277.325751 
L 76.357505 276.677962 
L 76.357505 276.677962 
L 75.727238 276.677962 
L 75.09697 276.030174 
L 75.09697 275.382385 
L 75.412104 276.677962 
L 75.412104 276.677962 
L 75.412104 276.030174 
L 75.727238 275.382385 
L 76.987773 276.677962 
L 76.987773 276.677962 
L 76.672639 276.030174 
L 76.357505 276.030174 
L 76.672639 275.382385 
L 76.987773 275.382385 
L 76.672639 276.677962 
L 75.727238 276.677962 
L 75.09697 276.030174 
L 74.781836 276.030174 
L 74.466702 275.382385 
L 75.09697 275.382385 
L 76.042371 276.030174 
L 76.672639 276.030174 
L 77.302906 273.434185 
L 78.248308 271.49082 
L 78.878575 270.843031 
L 80.139111 270.843031 
L 82.029913 270.190409 
L 84.866118 268.247043 
L 88.017456 267.599255 
L 91.799061 266.298843 
L 99.996247 262.412112 
L 104.408121 261.111701 
L 108.50486 258.520547 
L 113.235574 255.27677 
L 118.277715 251.385205 
L 135.613781 236.466733 
L 151.374179 220.252683 
L 157.991988 215.713329 
L 165.870333 210.521353 
L 172.806984 204.038634 
L 178.164259 198.198869 
L 188.882515 188.472373 
L 194.554924 183.933019 
L 200.542466 179.393665 
L 209.36992 170.962746 
L 213.151525 167.718969 
L 217.563399 165.122981 
L 222.924381 161.231416 
L 227.966521 156.692062 
L 232.063261 152.152708 
L 236.16 148.261143 
L 240.256739 145.017366 
L 244.67232 142.421378 
L 248.453926 138.529813 
L 251.920397 133.990459 
L 255.071735 130.098894 
L 257.907939 126.855117 
L 260.747851 125.55954 
L 262.953788 124.263963 
L 265.159724 122.315763 
L 266.420259 119.724609 
L 267.050527 119.071987 
L 266.735393 119.724609 
L 265.789992 119.724609 
L 265.159724 121.020186 
L 264.214323 122.315763 
L 262.008386 122.315763 
L 260.432717 123.616175 
L 258.853341 125.55954 
L 257.907939 127.50774 
L 257.277672 128.155528 
L 255.071735 132.694882 
L 255.071735 131.399305 
L 255.071735 132.694882 
L 254.756601 134.638248 
L 254.756601 134.638248 
L 255.386869 132.694882 
L 255.386869 131.399305 
L 254.756601 130.746682 
L 254.441468 131.399305 
L 254.756601 132.047094 
L 255.071735 131.399305 
L 255.071735 131.399305 
L 254.441468 131.399305 
L 253.8112 132.047094 
L 253.496066 131.399305 
L 253.496066 129.451105 
L 253.496066 130.098894 
L 253.180933 132.047094 
L 252.550665 133.990459 
L 251.920397 133.990459 
L 251.920397 132.694882 
L 251.920397 132.694882 
L 251.605264 133.342671 
L 250.974996 133.990459 
L 250.974996 135.29087 
L 251.29013 135.29087 
L 251.605264 134.638248 
L 251.605264 133.342671 
L 251.920397 133.342671 
L 251.920397 133.990459 
L 251.605264 134.638248 
L 251.605264 135.938659 
L 251.605264 135.29087 
L 251.29013 134.638248 
L 250.659862 133.990459 
L 250.344728 133.990459 
L 250.659862 133.990459 
L 250.659862 135.938659 
L 250.344728 137.234236 
L 250.974996 134.638248 
L 250.344728 135.938659 
L 249.399327 138.529813 
L 248.769059 138.529813 
L 248.138792 136.586447 
L 248.453926 136.586447 
L 248.453926 137.882024 
L 248.769059 137.882024 
L 248.769059 134.638248 
L 248.453926 134.638248 
L 248.138792 135.29087 
L 248.138792 137.882024 
L 248.453926 136.586447 
L 248.138792 134.638248 
L 247.823658 134.638248 
L 247.823658 135.938659 
L 249.084193 137.882024 
L 249.714461 137.882024 
L 249.084193 134.638248 
L 248.769059 134.638248 
L 248.453926 135.29087 
L 247.508524 135.938659 
L 246.878257 137.234236 
L 246.878257 137.234236 
L 247.19339 135.938659 
L 247.823658 135.938659 
L 247.823658 136.586447 
L 248.138792 137.234236 
L 250.344728 137.234236 
L 251.920397 136.586447 
L 254.441468 134.638248 
L 257.592806 132.694882 
L 264.529457 127.50774 
L 269.256464 122.963552 
L 274.298604 118.424198 
L 279.344453 115.180421 
L 284.07146 111.941479 
L 288.168199 107.402125 
L 299.831857 100.266783 
L 306.134533 95.727429 
L 317.483057 87.944299 
L 323.155465 84.700522 
L 328.827874 80.161168 
L 334.50399 76.269603 
L 339.54613 72.378038 
L 344.588271 71.077627 
L 349.315278 70.429838 
L 353.730859 69.134261 
L 357.827598 67.186061 
L 361.29407 65.242696 
L 365.075675 63.947119 
L 369.487548 61.998919 
L 374.218263 60.055554 
L 377.999868 58.755142 
L 381.151206 57.459565 
L 383.987411 56.163988 
L 390.924062 54.863577 
L 392.814864 54.215789 
L 394.390533 54.215789 
L 395.966202 56.163988 
L 397.541871 56.811777 
L 398.487273 56.163988 
L 398.487273 54.863577 
L 397.857005 54.215789 
L 397.541871 53.568 
L 397.226738 54.215789 
L 397.226738 54.863577 
L 396.911604 54.863577 
L 396.59647 55.511366 
L 396.59647 57.459565 
L 395.651069 57.459565 
L 394.0754 56.163988 
L 392.499731 54.215789 
L 391.239195 54.215789 
L 390.608928 55.511366 
L 390.608928 58.107354 
L 390.924062 60.703342 
L 391.239195 61.351131 
L 391.239195 61.998919 
L 390.924062 61.998919 
L 389.659819 61.351131 
L 388.714418 60.055554 
L 388.714418 59.402931 
L 389.974953 60.703342 
L 389.974953 60.055554 
L 389.659819 60.703342 
L 389.659819 61.998919 
L 389.344685 63.294496 
L 389.029551 63.294496 
L 388.714418 62.646708 
L 388.399284 61.351131 
L 388.399284 60.055554 
L 388.399284 61.351131 
L 388.08415 62.646708 
L 387.453882 63.947119 
L 386.823615 64.594907 
L 386.508481 65.242696 
L 386.508481 65.242696 
L 386.823615 65.242696 
L 386.508481 64.594907 
L 385.878213 64.594907 
L 385.56308 63.947119 
L 385.56308 62.646708 
L 386.193347 62.646708 
L 386.508481 63.947119 
L 386.193347 63.947119 
L 385.878213 63.294496 
L 385.878213 63.294496 
L 385.878213 63.947119 
L 385.878213 63.947119 
L 386.193347 63.947119 
L 386.508481 65.242696 
L 386.193347 65.890484 
L 385.56308 65.890484 
L 384.617678 67.838684 
L 384.617678 68.486473 
L 383.987411 67.838684 
L 383.987411 67.838684 
L 384.302544 67.838684 
L 383.987411 68.486473 
L 383.987411 69.134261 
L 384.932812 69.134261 
L 384.932812 65.242696 
L 384.617678 65.890484 
L 383.987411 66.538273 
L 383.042009 67.838684 
L 382.411742 69.134261 
L 382.096608 69.134261 
L 382.096608 69.134261 
L 382.096608 68.486473 
L 383.042009 69.134261 
L 383.357143 69.78205 
L 383.357143 69.78205 
L 382.411742 67.186061 
L 382.096608 67.838684 
L 382.096608 70.429838 
L 382.096608 70.429838 
L 382.411742 70.429838 
L 382.096608 71.077627 
L 381.781474 71.077627 
L 382.411742 70.429838 
L 382.726875 70.429838 
L 383.357143 74.321403 
L 383.042009 75.621815 
L 381.781474 75.621815 
L 382.726875 73.673615 
L 381.151206 73.673615 
L 381.781474 73.673615 
L 382.411742 74.321403 
L 382.726875 74.321403 
L 382.726875 74.321403 
L 382.096608 73.673615 
L 381.781474 73.025826 
L 381.781474 72.378038 
L 382.096608 73.025826 
L 382.411742 73.025826 
L 382.096608 72.378038 
L 381.781474 72.378038 
L 381.781474 73.673615 
L 381.781474 73.673615 
L 381.46634 74.321403 
L 381.46634 74.969192 
L 381.151206 74.969192 
L 381.151206 74.969192 
L 381.151206 75.621815 
L 380.836073 76.917392 
L 381.151206 76.917392 
L 381.46634 75.621815 
L 382.096608 75.621815 
L 381.781474 76.917392 
L 381.46634 76.917392 
L 381.151206 76.269603 
L 381.151206 74.969192 
L 381.46634 74.969192 
L 381.781474 75.621815 
L 381.781474 76.269603 
L 381.151206 75.621815 
L 380.836073 74.969192 
L 380.836073 76.269603 
L 381.151206 77.56518 
L 381.151206 77.56518 
L 380.836073 77.56518 
L 380.520939 76.917392 
L 380.520939 76.269603 
L 381.151206 75.621815 
L 381.781474 75.621815 
L 381.46634 75.621815 
L 381.46634 76.269603 
L 381.781474 76.917392 
L 382.096608 76.917392 
L 381.781474 77.56518 
L 381.151206 77.56518 
L 380.836073 78.860757 
L 379.890671 79.51338 
L 379.260404 79.51338 
L 379.260404 78.212969 
L 379.890671 77.56518 
L 380.520939 77.56518 
L 380.836073 78.860757 
L 380.836073 80.161168 
L 381.151206 80.161168 
L 381.151206 80.808957 
L 381.151206 80.808957 
L 380.836073 80.161168 
L 381.151206 79.51338 
L 381.781474 79.51338 
L 381.781474 79.51338 
L 381.151206 80.808957 
L 381.151206 82.104534 
L 380.836073 82.104534 
L 380.836073 80.161168 
L 381.151206 79.51338 
L 381.46634 80.161168 
L 381.46634 80.808957 
L 381.151206 80.808957 
L 380.836073 80.161168 
L 380.205805 79.51338 
L 379.890671 80.161168 
L 379.575537 80.161168 
L 380.836073 80.161168 
L 380.836073 80.161168 
L 380.520939 78.860757 
L 380.205805 78.212969 
L 379.575537 78.212969 
L 379.575537 78.860757 
L 379.890671 79.51338 
L 380.520939 80.161168 
L 379.890671 80.161168 
L 379.260404 79.51338 
L 379.260404 79.51338 
L 379.575537 80.808957 
L 379.575537 82.752322 
L 379.260404 84.052734 
L 379.260404 82.752322 
L 379.890671 80.161168 
L 380.205805 78.212969 
L 380.205805 78.212969 
L 379.890671 78.212969 
L 380.205805 78.860757 
L 379.890671 79.51338 
L 379.575537 79.51338 
L 378.94527 78.860757 
L 378.630136 78.860757 
L 378.630136 80.161168 
L 379.575537 80.161168 
L 379.890671 80.808957 
L 379.575537 81.456745 
L 378.94527 80.808957 
L 378.630136 80.161168 
L 378.315002 80.161168 
L 377.999868 79.51338 
L 377.999868 79.51338 
L 378.630136 79.51338 
L 379.260404 80.808957 
L 378.94527 82.104534 
L 378.630136 82.752322 
L 379.260404 80.161168 
L 379.890671 80.161168 
L 380.205805 80.808957 
L 380.205805 82.104534 
L 379.890671 82.104534 
L 379.575537 80.808957 
L 379.575537 80.161168 
L 378.94527 77.56518 
L 377.999868 77.56518 
L 377.369601 80.808957 
L 377.369601 80.161168 
L 377.684735 78.860757 
L 378.315002 78.860757 
L 378.630136 79.51338 
L 378.315002 80.161168 
L 378.630136 79.51338 
L 378.630136 78.860757 
L 378.315002 78.860757 
L 378.315002 80.808957 
L 378.630136 82.104534 
L 378.630136 83.404945 
L 378.630136 83.404945 
L 378.315002 82.104534 
L 377.999868 81.456745 
L 377.999868 82.752322 
L 377.684735 82.104534 
L 377.684735 79.51338 
L 377.684735 81.456745 
L 377.369601 80.808957 
L 376.424199 80.808957 
L 376.109066 81.456745 
L 376.109066 82.104534 
L 376.739333 82.752322 
L 377.684735 82.752322 
L 377.684735 82.104534 
L 377.054467 81.456745 
L 377.054467 80.161168 
L 377.369601 79.51338 
L 377.369601 79.51338 
L 377.054467 79.51338 
L 377.054467 79.51338 
L 376.739333 80.161168 
L 376.739333 81.456745 
L 376.739333 81.456745 
L 376.424199 80.161168 
L 376.739333 79.51338 
L 376.739333 80.808957 
L 376.424199 80.161168 
L 376.424199 78.860757 
L 377.054467 78.860757 
L 377.369601 80.161168 
L 377.369601 80.808957 
L 377.054467 80.161168 
L 376.739333 80.808957 
L 377.054467 80.808957 
L 377.369601 80.161168 
L 377.369601 79.51338 
L 376.739333 79.51338 
L 376.424199 80.161168 
L 376.424199 80.808957 
L 376.739333 80.808957 
L 377.369601 82.104534 
L 377.684735 82.104534 
L 376.424199 79.51338 
L 376.109066 80.808957 
L 376.424199 82.104534 
L 377.054467 82.104534 
L 377.369601 81.456745 
L 377.369601 80.808957 
L 375.793932 80.808957 
L 375.793932 82.104534 
L 376.109066 82.104534 
L 374.84853 82.104534 
L 375.478798 80.808957 
L 375.793932 81.456745 
L 375.793932 82.104534 
L 375.793932 82.104534 
L 376.109066 81.456745 
L 375.793932 80.161168 
L 375.163664 80.161168 
L 374.533397 80.808957 
L 373.587995 81.456745 
L 370.43295 84.052734 
L 368.227013 84.052734 
L 365.390809 85.348311 
L 362.239471 87.291676 
L 359.403267 89.887664 
L 355.621661 92.483653 
L 350.890947 94.427018 
L 336.394792 102.857937 
L 330.718676 106.101714 
L 325.99167 108.049914 
L 322.210064 109.993279 
L 318.113325 111.941479 
L 313.067476 115.180421 
L 308.025336 119.071987 
L 303.613462 121.667975 
L 299.516723 124.911752 
L 295.101142 128.803317 
L 291.004403 132.047094 
L 282.810924 134.638248 
L 278.395344 137.234236 
L 274.613738 140.478013 
L 268.311062 144.369578 
L 264.529457 147.613355 
L 260.432717 150.852297 
L 256.962538 152.800497 
L 254.441468 153.448285 
L 250.974996 154.743862 
L 247.19339 156.692062 
L 243.726919 159.935839 
L 240.571873 162.526993 
L 237.420535 164.475193 
L 234.269197 165.122981 
L 231.432993 165.122981 
L 228.596789 167.071181 
L 225.760585 169.662335 
L 222.605539 171.610535 
L 220.084469 173.5539 
L 218.193666 174.201689 
L 216.617997 175.5021 
L 211.89099 182.632608 
L 209.685054 185.228596 
L 208.424518 185.228596 
L 207.794251 183.933019 
L 207.163983 183.28523 
L 208.424518 183.28523 
L 208.739652 182.632608 
L 209.054786 182.632608 
L 210.315321 181.337031 
L 210.630455 181.337031 
L 211.89099 182.632608 
L 211.89099 178.741042 
L 212.836392 176.797677 
L 213.466659 176.149888 
L 213.151525 176.149888 
L 212.836392 175.5021 
L 212.836392 174.849477 
L 213.151525 174.849477 
L 213.151525 176.149888 
L 212.836392 178.741042 
L 212.521258 179.393665 
L 212.836392 176.797677 
L 211.575856 176.797677 
L 211.575856 176.797677 
L 211.575856 176.149888 
L 211.89099 176.797677 
L 211.89099 178.093254 
L 211.575856 178.741042 
L 210.945589 177.445465 
L 210.630455 176.149888 
L 210.630455 176.797677 
L 210.945589 177.445465 
L 210.945589 177.445465 
L 210.315321 176.797677 
L 210.000187 177.445465 
L 209.685054 177.445465 
L 209.685054 178.093254 
L 210.630455 176.149888 
L 210.630455 174.849477 
L 209.054786 174.849477 
L 208.739652 173.5539 
L 208.109385 173.5539 
L 208.109385 174.849477 
L 207.794251 174.849477 
L 208.109385 174.201689 
L 207.479117 172.906112 
L 206.848849 172.258323 
L 206.848849 172.906112 
L 207.479117 172.906112 
L 207.479117 168.366758 
L 207.479117 169.014546 
L 206.848849 170.310123 
L 206.848849 171.610535 
L 205.27318 171.610535 
L 205.27318 171.610535 
L 206.218582 170.962746 
L 206.848849 170.310123 
L 206.848849 170.310123 
L 206.848849 171.610535 
L 206.533716 171.610535 
L 204.958047 168.366758 
L 204.958047 167.718969 
L 204.958047 170.310123 
L 205.27318 169.662335 
L 205.27318 167.071181 
L 205.27318 168.366758 
L 205.588314 168.366758 
L 205.903448 169.014546 
L 204.958047 169.014546 
L 204.008938 168.366758 
L 203.693804 167.718969 
L 204.008938 167.718969 
L 204.327779 168.366758 
L 204.327779 167.718969 
L 204.642913 167.071181 
L 204.327779 165.77077 
L 203.693804 165.77077 
L 203.063536 167.718969 
L 203.063536 168.366758 
L 203.063536 167.718969 
L 202.748403 167.071181 
L 203.063536 167.718969 
L 203.693804 168.366758 
L 204.642913 169.014546 
L 204.327779 169.014546 
L 204.327779 167.718969 
L 204.008938 166.418558 
L 202.748403 166.418558 
L 202.748403 165.122981 
L 202.118135 167.718969 
L 202.433269 168.366758 
L 202.748403 167.071181 
L 203.37867 167.071181 
L 203.37867 168.366758 
L 202.748403 167.718969 
L 202.433269 166.418558 
L 202.433269 165.77077 
L 202.118135 165.77077 
L 202.433269 166.418558 
L 203.063536 165.77077 
L 203.063536 165.122981 
L 202.748403 166.418558 
L 202.748403 167.718969 
L 202.748403 167.718969 
L 203.37867 167.071181 
L 203.693804 165.77077 
L 203.693804 164.475193 
L 203.063536 163.827404 
L 203.37867 164.475193 
L 203.693804 165.77077 
L 203.693804 165.77077 
L 203.063536 165.77077 
L 202.433269 166.418558 
L 202.748403 166.418558 
L 203.37867 165.77077 
L 203.37867 166.418558 
L 202.748403 167.071181 
L 202.118135 167.071181 
L 202.433269 165.77077 
L 202.433269 165.77077 
" style="fill:none;stroke:#1f77b4;stroke-linecap:square;stroke-width:1.5;"/>
   </g>
   <g id="matplotlib.axis_1">
    <g id="xtick_1">
     <g id="line2d_2">
      <defs>
       <path d="M 0 0 
L 0 3.5 
" id="m2b7dfd0309" style="stroke:#000000;stroke-width:0.8;"/>
      </defs>
      <g>
       <use style="stroke:#000000;stroke-width:0.8;" x="93.715816" xlink:href="#m2b7dfd0309" y="307.584"/>
      </g>
     </g>
     <g id="text_1">
      <!-- −600 -->
      <defs>
       <path d="M 10.59375 35.5 
L 73.1875 35.5 
L 73.1875 27.203125 
L 10.59375 27.203125 
z
" id="DejaVuSans-8722"/>
       <path d="M 33.015625 40.375 
Q 26.375 40.375 22.484375 35.828125 
Q 18.609375 31.296875 18.609375 23.390625 
Q 18.609375 15.53125 22.484375 10.953125 
Q 26.375 6.390625 33.015625 6.390625 
Q 39.65625 6.390625 43.53125 10.953125 
Q 47.40625 15.53125 47.40625 23.390625 
Q 47.40625 31.296875 43.53125 35.828125 
Q 39.65625 40.375 33.015625 40.375 
z
M 52.59375 71.296875 
L 52.59375 62.3125 
Q 48.875 64.0625 45.09375 64.984375 
Q 41.3125 65.921875 37.59375 65.921875 
Q 27.828125 65.921875 22.671875 59.328125 
Q 17.53125 52.734375 16.796875 39.40625 
Q 19.671875 43.65625 24.015625 45.921875 
Q 28.375 48.1875 33.59375 48.1875 
Q 44.578125 48.1875 50.953125 41.515625 
Q 57.328125 34.859375 57.328125 23.390625 
Q 57.328125 12.15625 50.6875 5.359375 
Q 44.046875 -1.421875 33.015625 -1.421875 
Q 20.359375 -1.421875 13.671875 8.265625 
Q 6.984375 17.96875 6.984375 36.375 
Q 6.984375 53.65625 15.1875 63.9375 
Q 23.390625 74.21875 37.203125 74.21875 
Q 40.921875 74.21875 44.703125 73.484375 
Q 48.484375 72.75 52.59375 71.296875 
z
" id="DejaVuSans-54"/>
       <path d="M 31.78125 66.40625 
Q 24.171875 66.40625 20.328125 58.90625 
Q 16.5 51.421875 16.5 36.375 
Q 16.5 21.390625 20.328125 13.890625 
Q 24.171875 6.390625 31.78125 6.390625 
Q 39.453125 6.390625 43.28125 13.890625 
Q 47.125 21.390625 47.125 36.375 
Q 47.125 51.421875 43.28125 58.90625 
Q 39.453125 66.40625 31.78125 66.40625 
z
M 31.78125 74.21875 
Q 44.046875 74.21875 50.515625 64.515625 
Q 56.984375 54.828125 56.984375 36.375 
Q 56.984375 17.96875 50.515625 8.265625 
Q 44.046875 -1.421875 31.78125 -1.421875 
Q 19.53125 -1.421875 13.0625 8.265625 
Q 6.59375 17.96875 6.59375 36.375 
Q 6.59375 54.828125 13.0625 64.515625 
Q 19.53125 74.21875 31.78125 74.21875 
z
" id="DejaVuSans-48"/>
      </defs>
      <g transform="translate(79.982222 322.182437)scale(0.1 -0.1)">
       <use xlink:href="#DejaVuSans-8722"/>
       <use x="83.789062" xlink:href="#DejaVuSans-54"/>
       <use x="147.412109" xlink:href="#DejaVuSans-48"/>
       <use x="211.035156" xlink:href="#DejaVuSans-48"/>
      </g>
     </g>
    </g>
    <g id="xtick_2">
     <g id="line2d_3">
      <g>
       <use style="stroke:#000000;stroke-width:0.8;" x="167.864945" xlink:href="#m2b7dfd0309" y="307.584"/>
      </g>
     </g>
     <g id="text_2">
      <!-- −400 -->
      <defs>
       <path d="M 37.796875 64.3125 
L 12.890625 25.390625 
L 37.796875 25.390625 
z
M 35.203125 72.90625 
L 47.609375 72.90625 
L 47.609375 25.390625 
L 58.015625 25.390625 
L 58.015625 17.1875 
L 47.609375 17.1875 
L 47.609375 0 
L 37.796875 0 
L 37.796875 17.1875 
L 4.890625 17.1875 
L 4.890625 26.703125 
z
" id="DejaVuSans-52"/>
      </defs>
      <g transform="translate(154.131351 322.182437)scale(0.1 -0.1)">
       <use xlink:href="#DejaVuSans-8722"/>
       <use x="83.789062" xlink:href="#DejaVuSans-52"/>
       <use x="147.412109" xlink:href="#DejaVuSans-48"/>
       <use x="211.035156" xlink:href="#DejaVuSans-48"/>
      </g>
     </g>
    </g>
    <g id="xtick_3">
     <g id="line2d_4">
      <g>
       <use style="stroke:#000000;stroke-width:0.8;" x="242.014074" xlink:href="#m2b7dfd0309" y="307.584"/>
      </g>
     </g>
     <g id="text_3">
      <!-- −200 -->
      <defs>
       <path d="M 19.1875 8.296875 
L 53.609375 8.296875 
L 53.609375 0 
L 7.328125 0 
L 7.328125 8.296875 
Q 12.9375 14.109375 22.625 23.890625 
Q 32.328125 33.6875 34.8125 36.53125 
Q 39.546875 41.84375 41.421875 45.53125 
Q 43.3125 49.21875 43.3125 52.78125 
Q 43.3125 58.59375 39.234375 62.25 
Q 35.15625 65.921875 28.609375 65.921875 
Q 23.96875 65.921875 18.8125 64.3125 
Q 13.671875 62.703125 7.8125 59.421875 
L 7.8125 69.390625 
Q 13.765625 71.78125 18.9375 73 
Q 24.125 74.21875 28.421875 74.21875 
Q 39.75 74.21875 46.484375 68.546875 
Q 53.21875 62.890625 53.21875 53.421875 
Q 53.21875 48.921875 51.53125 44.890625 
Q 49.859375 40.875 45.40625 35.40625 
Q 44.1875 33.984375 37.640625 27.21875 
Q 31.109375 20.453125 19.1875 8.296875 
z
" id="DejaVuSans-50"/>
      </defs>
      <g transform="translate(228.28048 322.182437)scale(0.1 -0.1)">
       <use xlink:href="#DejaVuSans-8722"/>
       <use x="83.789062" xlink:href="#DejaVuSans-50"/>
       <use x="147.412109" xlink:href="#DejaVuSans-48"/>
       <use x="211.035156" xlink:href="#DejaVuSans-48"/>
      </g>
     </g>
    </g>
    <g id="xtick_4">
     <g id="line2d_5">
      <g>
       <use style="stroke:#000000;stroke-width:0.8;" x="316.163202" xlink:href="#m2b7dfd0309" y="307.584"/>
      </g>
     </g>
     <g id="text_4">
      <!-- 0 -->
      <g transform="translate(312.981952 322.182437)scale(0.1 -0.1)">
       <use xlink:href="#DejaVuSans-48"/>
      </g>
     </g>
    </g>
    <g id="xtick_5">
     <g id="line2d_6">
      <g>
       <use style="stroke:#000000;stroke-width:0.8;" x="390.312331" xlink:href="#m2b7dfd0309" y="307.584"/>
      </g>
     </g>
     <g id="text_5">
      <!-- 200 -->
      <g transform="translate(380.768581 322.182437)scale(0.1 -0.1)">
       <use xlink:href="#DejaVuSans-50"/>
       <use x="63.623047" xlink:href="#DejaVuSans-48"/>
       <use x="127.246094" xlink:href="#DejaVuSans-48"/>
      </g>
     </g>
    </g>
   </g>
   <g id="matplotlib.axis_2">
    <g id="ytick_1">
     <g id="line2d_7">
      <defs>
       <path d="M 0 0 
L -3.5 0 
" id="mafc0958022" style="stroke:#000000;stroke-width:0.8;"/>
      </defs>
      <g>
       <use style="stroke:#000000;stroke-width:0.8;" x="57.6" xlink:href="#mafc0958022" y="262.818189"/>
      </g>
     </g>
     <g id="text_6">
      <!-- −700 -->
      <defs>
       <path d="M 8.203125 72.90625 
L 55.078125 72.90625 
L 55.078125 68.703125 
L 28.609375 0 
L 18.3125 0 
L 43.21875 64.59375 
L 8.203125 64.59375 
z
" id="DejaVuSans-55"/>
      </defs>
      <g transform="translate(23.132812 266.617408)scale(0.1 -0.1)">
       <use xlink:href="#DejaVuSans-8722"/>
       <use x="83.789062" xlink:href="#DejaVuSans-55"/>
       <use x="147.412109" xlink:href="#DejaVuSans-48"/>
       <use x="211.035156" xlink:href="#DejaVuSans-48"/>
      </g>
     </g>
    </g>
    <g id="ytick_2">
     <g id="line2d_8">
      <g>
       <use style="stroke:#000000;stroke-width:0.8;" x="57.6" xlink:href="#mafc0958022" y="214.475763"/>
      </g>
     </g>
     <g id="text_7">
      <!-- −600 -->
      <g transform="translate(23.132812 218.274982)scale(0.1 -0.1)">
       <use xlink:href="#DejaVuSans-8722"/>
       <use x="83.789062" xlink:href="#DejaVuSans-54"/>
       <use x="147.412109" xlink:href="#DejaVuSans-48"/>
       <use x="211.035156" xlink:href="#DejaVuSans-48"/>
      </g>
     </g>
    </g>
    <g id="ytick_3">
     <g id="line2d_9">
      <g>
       <use style="stroke:#000000;stroke-width:0.8;" x="57.6" xlink:href="#mafc0958022" y="166.133338"/>
      </g>
     </g>
     <g id="text_8">
      <!-- −500 -->
      <defs>
       <path d="M 10.796875 72.90625 
L 49.515625 72.90625 
L 49.515625 64.59375 
L 19.828125 64.59375 
L 19.828125 46.734375 
Q 21.96875 47.46875 24.109375 47.828125 
Q 26.265625 48.1875 28.421875 48.1875 
Q 40.625 48.1875 47.75 41.5 
Q 54.890625 34.8125 54.890625 23.390625 
Q 54.890625 11.625 47.5625 5.09375 
Q 40.234375 -1.421875 26.90625 -1.421875 
Q 22.3125 -1.421875 17.546875 -0.640625 
Q 12.796875 0.140625 7.71875 1.703125 
L 7.71875 11.625 
Q 12.109375 9.234375 16.796875 8.0625 
Q 21.484375 6.890625 26.703125 6.890625 
Q 35.15625 6.890625 40.078125 11.328125 
Q 45.015625 15.765625 45.015625 23.390625 
Q 45.015625 31 40.078125 35.4375 
Q 35.15625 39.890625 26.703125 39.890625 
Q 22.75 39.890625 18.8125 39.015625 
Q 14.890625 38.140625 10.796875 36.28125 
z
" id="DejaVuSans-53"/>
      </defs>
      <g transform="translate(23.132812 169.932557)scale(0.1 -0.1)">
       <use xlink:href="#DejaVuSans-8722"/>
       <use x="83.789062" xlink:href="#DejaVuSans-53"/>
       <use x="147.412109" xlink:href="#DejaVuSans-48"/>
       <use x="211.035156" xlink:href="#DejaVuSans-48"/>
      </g>
     </g>
    </g>
    <g id="ytick_4">
     <g id="line2d_10">
      <g>
       <use style="stroke:#000000;stroke-width:0.8;" x="57.6" xlink:href="#mafc0958022" y="117.790912"/>
      </g>
     </g>
     <g id="text_9">
      <!-- −400 -->
      <g transform="translate(23.132812 121.590131)scale(0.1 -0.1)">
       <use xlink:href="#DejaVuSans-8722"/>
       <use x="83.789062" xlink:href="#DejaVuSans-52"/>
       <use x="147.412109" xlink:href="#DejaVuSans-48"/>
       <use x="211.035156" xlink:href="#DejaVuSans-48"/>
      </g>
     </g>
    </g>
    <g id="ytick_5">
     <g id="line2d_11">
      <g>
       <use style="stroke:#000000;stroke-width:0.8;" x="57.6" xlink:href="#mafc0958022" y="69.448487"/>
      </g>
     </g>
     <g id="text_10">
      <!-- −300 -->
      <defs>
       <path d="M 40.578125 39.3125 
Q 47.65625 37.796875 51.625 33 
Q 55.609375 28.21875 55.609375 21.1875 
Q 55.609375 10.40625 48.1875 4.484375 
Q 40.765625 -1.421875 27.09375 -1.421875 
Q 22.515625 -1.421875 17.65625 -0.515625 
Q 12.796875 0.390625 7.625 2.203125 
L 7.625 11.71875 
Q 11.71875 9.328125 16.59375 8.109375 
Q 21.484375 6.890625 26.8125 6.890625 
Q 36.078125 6.890625 40.9375 10.546875 
Q 45.796875 14.203125 45.796875 21.1875 
Q 45.796875 27.640625 41.28125 31.265625 
Q 36.765625 34.90625 28.71875 34.90625 
L 20.21875 34.90625 
L 20.21875 43.015625 
L 29.109375 43.015625 
Q 36.375 43.015625 40.234375 45.921875 
Q 44.09375 48.828125 44.09375 54.296875 
Q 44.09375 59.90625 40.109375 62.90625 
Q 36.140625 65.921875 28.71875 65.921875 
Q 24.65625 65.921875 20.015625 65.03125 
Q 15.375 64.15625 9.8125 62.3125 
L 9.8125 71.09375 
Q 15.4375 72.65625 20.34375 73.4375 
Q 25.25 74.21875 29.59375 74.21875 
Q 40.828125 74.21875 47.359375 69.109375 
Q 53.90625 64.015625 53.90625 55.328125 
Q 53.90625 49.265625 50.4375 45.09375 
Q 46.96875 40.921875 40.578125 39.3125 
z
" id="DejaVuSans-51"/>
      </defs>
      <g transform="translate(23.132812 73.247706)scale(0.1 -0.1)">
       <use xlink:href="#DejaVuSans-8722"/>
       <use x="83.789062" xlink:href="#DejaVuSans-51"/>
       <use x="147.412109" xlink:href="#DejaVuSans-48"/>
       <use x="211.035156" xlink:href="#DejaVuSans-48"/>
      </g>
     </g>
    </g>
   </g>
   <g id="line2d_12">
    <path clip-path="url(#p9a96eeae87)" d="M 77.793128 284.851206 
L 253.671111 132.381606 
L 386.326253 63.58632 
L 378.139706 79.705593 
L 208.110364 171.751701 
" style="fill:none;stroke:#ff0000;stroke-linecap:square;stroke-width:0.5;"/>
   </g>
   <g id="patch_3">
    <path d="M 57.6 307.584 
L 57.6 41.472 
" style="fill:none;stroke:#000000;stroke-linecap:square;stroke-linejoin:miter;stroke-width:0.8;"/>
   </g>
   <g id="patch_4">
    <path d="M 414.72 307.584 
L 414.72 41.472 
" style="fill:none;stroke:#000000;stroke-linecap:square;stroke-linejoin:miter;stroke-width:0.8;"/>
   </g>
   <g id="patch_5">
    <path d="M 57.6 307.584 
L 414.72 307.584 
" style="fill:none;stroke:#000000;stroke-linecap:square;stroke-linejoin:miter;stroke-width:0.8;"/>
   </g>
   <g id="patch_6">
    <path d="M 57.6 41.472 
L 414.72 41.472 
" style="fill:none;stroke:#000000;stroke-linecap:square;stroke-linejoin:miter;stroke-width:0.8;"/>
   </g>
   <g id="PathCollection_1">
    <defs>
     <path d="M 0 2.738613 
C 0.726289 2.738613 1.422928 2.450055 1.936492 1.936492 
C 2.450055 1.422928 2.738613 0.726289 2.738613 0 
C 2.738613 -0.726289 2.450055 -1.422928 1.936492 -1.936492 
C 1.422928 -2.450055 0.726289 -2.738613 0 -2.738613 
C -0.726289 -2.738613 -1.422928 -2.450055 -1.936492 -1.936492 
C -2.450055 -1.422928 -2.738613 -0.726289 -2.738613 0 
C -2.738613 0.726289 -2.450055 1.422928 -1.936492 1.936492 
C -1.422928 2.450055 -0.726289 2.738613 0 2.738613 
z
" id="m2eee153dc8" style="stroke:#ff0000;"/>
    </defs>
    <g clip-path="url(#p9a96eeae87)">
     <use style="fill:#ff0000;stroke:#ff0000;" x="77.793128" xlink:href="#m2eee153dc8" y="284.851206"/>
     <use style="fill:#ff0000;stroke:#ff0000;" x="253.671111" xlink:href="#m2eee153dc8" y="132.381606"/>
     <use style="fill:#ff0000;stroke:#ff0000;" x="386.326253" xlink:href="#m2eee153dc8" y="63.58632"/>
     <use style="fill:#ff0000;stroke:#ff0000;" x="378.139706" xlink:href="#m2eee153dc8" y="79.705593"/>
     <use style="fill:#ff0000;stroke:#ff0000;" x="208.110364" xlink:href="#m2eee153dc8" y="171.751701"/>
    </g>
   </g>
   <g id="text_11">
    <!-- (21) Subject: s3, Known = False, Degree = 1, Duration = 0.1 -->
    <defs>
     <path d="M 31 75.875 
Q 24.46875 64.65625 21.28125 53.65625 
Q 18.109375 42.671875 18.109375 31.390625 
Q 18.109375 20.125 21.3125 9.0625 
Q 24.515625 -2 31 -13.1875 
L 23.1875 -13.1875 
Q 15.875 -1.703125 12.234375 9.375 
Q 8.59375 20.453125 8.59375 31.390625 
Q 8.59375 42.28125 12.203125 53.3125 
Q 15.828125 64.359375 23.1875 75.875 
z
" id="DejaVuSans-40"/>
     <path d="M 12.40625 8.296875 
L 28.515625 8.296875 
L 28.515625 63.921875 
L 10.984375 60.40625 
L 10.984375 69.390625 
L 28.421875 72.90625 
L 38.28125 72.90625 
L 38.28125 8.296875 
L 54.390625 8.296875 
L 54.390625 0 
L 12.40625 0 
z
" id="DejaVuSans-49"/>
     <path d="M 8.015625 75.875 
L 15.828125 75.875 
Q 23.140625 64.359375 26.78125 53.3125 
Q 30.421875 42.28125 30.421875 31.390625 
Q 30.421875 20.453125 26.78125 9.375 
Q 23.140625 -1.703125 15.828125 -13.1875 
L 8.015625 -13.1875 
Q 14.5 -2 17.703125 9.0625 
Q 20.90625 20.125 20.90625 31.390625 
Q 20.90625 42.671875 17.703125 53.65625 
Q 14.5 64.65625 8.015625 75.875 
z
" id="DejaVuSans-41"/>
     <path id="DejaVuSans-32"/>
     <path d="M 53.515625 70.515625 
L 53.515625 60.890625 
Q 47.90625 63.578125 42.921875 64.890625 
Q 37.9375 66.21875 33.296875 66.21875 
Q 25.25 66.21875 20.875 63.09375 
Q 16.5 59.96875 16.5 54.203125 
Q 16.5 49.359375 19.40625 46.890625 
Q 22.3125 44.4375 30.421875 42.921875 
L 36.375 41.703125 
Q 47.40625 39.59375 52.65625 34.296875 
Q 57.90625 29 57.90625 20.125 
Q 57.90625 9.515625 50.796875 4.046875 
Q 43.703125 -1.421875 29.984375 -1.421875 
Q 24.8125 -1.421875 18.96875 -0.25 
Q 13.140625 0.921875 6.890625 3.21875 
L 6.890625 13.375 
Q 12.890625 10.015625 18.65625 8.296875 
Q 24.421875 6.59375 29.984375 6.59375 
Q 38.421875 6.59375 43.015625 9.90625 
Q 47.609375 13.234375 47.609375 19.390625 
Q 47.609375 24.75 44.3125 27.78125 
Q 41.015625 30.8125 33.5 32.328125 
L 27.484375 33.5 
Q 16.453125 35.6875 11.515625 40.375 
Q 6.59375 45.0625 6.59375 53.421875 
Q 6.59375 63.09375 13.40625 68.65625 
Q 20.21875 74.21875 32.171875 74.21875 
Q 37.3125 74.21875 42.625 73.28125 
Q 47.953125 72.359375 53.515625 70.515625 
z
" id="DejaVuSans-83"/>
     <path d="M 8.5 21.578125 
L 8.5 54.6875 
L 17.484375 54.6875 
L 17.484375 21.921875 
Q 17.484375 14.15625 20.5 10.265625 
Q 23.53125 6.390625 29.59375 6.390625 
Q 36.859375 6.390625 41.078125 11.03125 
Q 45.3125 15.671875 45.3125 23.6875 
L 45.3125 54.6875 
L 54.296875 54.6875 
L 54.296875 0 
L 45.3125 0 
L 45.3125 8.40625 
Q 42.046875 3.421875 37.71875 1 
Q 33.40625 -1.421875 27.6875 -1.421875 
Q 18.265625 -1.421875 13.375 4.4375 
Q 8.5 10.296875 8.5 21.578125 
z
M 31.109375 56 
z
" id="DejaVuSans-117"/>
     <path d="M 48.6875 27.296875 
Q 48.6875 37.203125 44.609375 42.84375 
Q 40.53125 48.484375 33.40625 48.484375 
Q 26.265625 48.484375 22.1875 42.84375 
Q 18.109375 37.203125 18.109375 27.296875 
Q 18.109375 17.390625 22.1875 11.75 
Q 26.265625 6.109375 33.40625 6.109375 
Q 40.53125 6.109375 44.609375 11.75 
Q 48.6875 17.390625 48.6875 27.296875 
z
M 18.109375 46.390625 
Q 20.953125 51.265625 25.265625 53.625 
Q 29.59375 56 35.59375 56 
Q 45.5625 56 51.78125 48.09375 
Q 58.015625 40.1875 58.015625 27.296875 
Q 58.015625 14.40625 51.78125 6.484375 
Q 45.5625 -1.421875 35.59375 -1.421875 
Q 29.59375 -1.421875 25.265625 0.953125 
Q 20.953125 3.328125 18.109375 8.203125 
L 18.109375 0 
L 9.078125 0 
L 9.078125 75.984375 
L 18.109375 75.984375 
z
" id="DejaVuSans-98"/>
     <path d="M 9.421875 54.6875 
L 18.40625 54.6875 
L 18.40625 -0.984375 
Q 18.40625 -11.421875 14.421875 -16.109375 
Q 10.453125 -20.796875 1.609375 -20.796875 
L -1.8125 -20.796875 
L -1.8125 -13.1875 
L 0.59375 -13.1875 
Q 5.71875 -13.1875 7.5625 -10.8125 
Q 9.421875 -8.453125 9.421875 -0.984375 
z
M 9.421875 75.984375 
L 18.40625 75.984375 
L 18.40625 64.59375 
L 9.421875 64.59375 
z
" id="DejaVuSans-106"/>
     <path d="M 56.203125 29.59375 
L 56.203125 25.203125 
L 14.890625 25.203125 
Q 15.484375 15.921875 20.484375 11.0625 
Q 25.484375 6.203125 34.421875 6.203125 
Q 39.59375 6.203125 44.453125 7.46875 
Q 49.3125 8.734375 54.109375 11.28125 
L 54.109375 2.78125 
Q 49.265625 0.734375 44.1875 -0.34375 
Q 39.109375 -1.421875 33.890625 -1.421875 
Q 20.796875 -1.421875 13.15625 6.1875 
Q 5.515625 13.8125 5.515625 26.8125 
Q 5.515625 40.234375 12.765625 48.109375 
Q 20.015625 56 32.328125 56 
Q 43.359375 56 49.78125 48.890625 
Q 56.203125 41.796875 56.203125 29.59375 
z
M 47.21875 32.234375 
Q 47.125 39.59375 43.09375 43.984375 
Q 39.0625 48.390625 32.421875 48.390625 
Q 24.90625 48.390625 20.390625 44.140625 
Q 15.875 39.890625 15.1875 32.171875 
z
" id="DejaVuSans-101"/>
     <path d="M 48.78125 52.59375 
L 48.78125 44.1875 
Q 44.96875 46.296875 41.140625 47.34375 
Q 37.3125 48.390625 33.40625 48.390625 
Q 24.65625 48.390625 19.8125 42.84375 
Q 14.984375 37.3125 14.984375 27.296875 
Q 14.984375 17.28125 19.8125 11.734375 
Q 24.65625 6.203125 33.40625 6.203125 
Q 37.3125 6.203125 41.140625 7.25 
Q 44.96875 8.296875 48.78125 10.40625 
L 48.78125 2.09375 
Q 45.015625 0.34375 40.984375 -0.53125 
Q 36.96875 -1.421875 32.421875 -1.421875 
Q 20.0625 -1.421875 12.78125 6.34375 
Q 5.515625 14.109375 5.515625 27.296875 
Q 5.515625 40.671875 12.859375 48.328125 
Q 20.21875 56 33.015625 56 
Q 37.15625 56 41.109375 55.140625 
Q 45.0625 54.296875 48.78125 52.59375 
z
" id="DejaVuSans-99"/>
     <path d="M 18.3125 70.21875 
L 18.3125 54.6875 
L 36.8125 54.6875 
L 36.8125 47.703125 
L 18.3125 47.703125 
L 18.3125 18.015625 
Q 18.3125 11.328125 20.140625 9.421875 
Q 21.96875 7.515625 27.59375 7.515625 
L 36.8125 7.515625 
L 36.8125 0 
L 27.59375 0 
Q 17.1875 0 13.234375 3.875 
Q 9.28125 7.765625 9.28125 18.015625 
L 9.28125 47.703125 
L 2.6875 47.703125 
L 2.6875 54.6875 
L 9.28125 54.6875 
L 9.28125 70.21875 
z
" id="DejaVuSans-116"/>
     <path d="M 11.71875 12.40625 
L 22.015625 12.40625 
L 22.015625 0 
L 11.71875 0 
z
M 11.71875 51.703125 
L 22.015625 51.703125 
L 22.015625 39.3125 
L 11.71875 39.3125 
z
" id="DejaVuSans-58"/>
     <path d="M 44.28125 53.078125 
L 44.28125 44.578125 
Q 40.484375 46.53125 36.375 47.5 
Q 32.28125 48.484375 27.875 48.484375 
Q 21.1875 48.484375 17.84375 46.4375 
Q 14.5 44.390625 14.5 40.28125 
Q 14.5 37.15625 16.890625 35.375 
Q 19.28125 33.59375 26.515625 31.984375 
L 29.59375 31.296875 
Q 39.15625 29.25 43.1875 25.515625 
Q 47.21875 21.78125 47.21875 15.09375 
Q 47.21875 7.46875 41.1875 3.015625 
Q 35.15625 -1.421875 24.609375 -1.421875 
Q 20.21875 -1.421875 15.453125 -0.5625 
Q 10.6875 0.296875 5.421875 2 
L 5.421875 11.28125 
Q 10.40625 8.6875 15.234375 7.390625 
Q 20.0625 6.109375 24.8125 6.109375 
Q 31.15625 6.109375 34.5625 8.28125 
Q 37.984375 10.453125 37.984375 14.40625 
Q 37.984375 18.0625 35.515625 20.015625 
Q 33.0625 21.96875 24.703125 23.78125 
L 21.578125 24.515625 
Q 13.234375 26.265625 9.515625 29.90625 
Q 5.8125 33.546875 5.8125 39.890625 
Q 5.8125 47.609375 11.28125 51.796875 
Q 16.75 56 26.8125 56 
Q 31.78125 56 36.171875 55.265625 
Q 40.578125 54.546875 44.28125 53.078125 
z
" id="DejaVuSans-115"/>
     <path d="M 11.71875 12.40625 
L 22.015625 12.40625 
L 22.015625 4 
L 14.015625 -11.625 
L 7.71875 -11.625 
L 11.71875 4 
z
" id="DejaVuSans-44"/>
     <path d="M 9.8125 72.90625 
L 19.671875 72.90625 
L 19.671875 42.09375 
L 52.390625 72.90625 
L 65.09375 72.90625 
L 28.90625 38.921875 
L 67.671875 0 
L 54.6875 0 
L 19.671875 35.109375 
L 19.671875 0 
L 9.8125 0 
z
" id="DejaVuSans-75"/>
     <path d="M 54.890625 33.015625 
L 54.890625 0 
L 45.90625 0 
L 45.90625 32.71875 
Q 45.90625 40.484375 42.875 44.328125 
Q 39.84375 48.1875 33.796875 48.1875 
Q 26.515625 48.1875 22.3125 43.546875 
Q 18.109375 38.921875 18.109375 30.90625 
L 18.109375 0 
L 9.078125 0 
L 9.078125 54.6875 
L 18.109375 54.6875 
L 18.109375 46.1875 
Q 21.34375 51.125 25.703125 53.5625 
Q 30.078125 56 35.796875 56 
Q 45.21875 56 50.046875 50.171875 
Q 54.890625 44.34375 54.890625 33.015625 
z
" id="DejaVuSans-110"/>
     <path d="M 30.609375 48.390625 
Q 23.390625 48.390625 19.1875 42.75 
Q 14.984375 37.109375 14.984375 27.296875 
Q 14.984375 17.484375 19.15625 11.84375 
Q 23.34375 6.203125 30.609375 6.203125 
Q 37.796875 6.203125 41.984375 11.859375 
Q 46.1875 17.53125 46.1875 27.296875 
Q 46.1875 37.015625 41.984375 42.703125 
Q 37.796875 48.390625 30.609375 48.390625 
z
M 30.609375 56 
Q 42.328125 56 49.015625 48.375 
Q 55.71875 40.765625 55.71875 27.296875 
Q 55.71875 13.875 49.015625 6.21875 
Q 42.328125 -1.421875 30.609375 -1.421875 
Q 18.84375 -1.421875 12.171875 6.21875 
Q 5.515625 13.875 5.515625 27.296875 
Q 5.515625 40.765625 12.171875 48.375 
Q 18.84375 56 30.609375 56 
z
" id="DejaVuSans-111"/>
     <path d="M 4.203125 54.6875 
L 13.1875 54.6875 
L 24.421875 12.015625 
L 35.59375 54.6875 
L 46.1875 54.6875 
L 57.421875 12.015625 
L 68.609375 54.6875 
L 77.59375 54.6875 
L 63.28125 0 
L 52.6875 0 
L 40.921875 44.828125 
L 29.109375 0 
L 18.5 0 
z
" id="DejaVuSans-119"/>
     <path d="M 10.59375 45.40625 
L 73.1875 45.40625 
L 73.1875 37.203125 
L 10.59375 37.203125 
z
M 10.59375 25.484375 
L 73.1875 25.484375 
L 73.1875 17.1875 
L 10.59375 17.1875 
z
" id="DejaVuSans-61"/>
     <path d="M 9.8125 72.90625 
L 51.703125 72.90625 
L 51.703125 64.59375 
L 19.671875 64.59375 
L 19.671875 43.109375 
L 48.578125 43.109375 
L 48.578125 34.8125 
L 19.671875 34.8125 
L 19.671875 0 
L 9.8125 0 
z
" id="DejaVuSans-70"/>
     <path d="M 34.28125 27.484375 
Q 23.390625 27.484375 19.1875 25 
Q 14.984375 22.515625 14.984375 16.5 
Q 14.984375 11.71875 18.140625 8.90625 
Q 21.296875 6.109375 26.703125 6.109375 
Q 34.1875 6.109375 38.703125 11.40625 
Q 43.21875 16.703125 43.21875 25.484375 
L 43.21875 27.484375 
z
M 52.203125 31.203125 
L 52.203125 0 
L 43.21875 0 
L 43.21875 8.296875 
Q 40.140625 3.328125 35.546875 0.953125 
Q 30.953125 -1.421875 24.3125 -1.421875 
Q 15.921875 -1.421875 10.953125 3.296875 
Q 6 8.015625 6 15.921875 
Q 6 25.140625 12.171875 29.828125 
Q 18.359375 34.515625 30.609375 34.515625 
L 43.21875 34.515625 
L 43.21875 35.40625 
Q 43.21875 41.609375 39.140625 45 
Q 35.0625 48.390625 27.6875 48.390625 
Q 23 48.390625 18.546875 47.265625 
Q 14.109375 46.140625 10.015625 43.890625 
L 10.015625 52.203125 
Q 14.9375 54.109375 19.578125 55.046875 
Q 24.21875 56 28.609375 56 
Q 40.484375 56 46.34375 49.84375 
Q 52.203125 43.703125 52.203125 31.203125 
z
" id="DejaVuSans-97"/>
     <path d="M 9.421875 75.984375 
L 18.40625 75.984375 
L 18.40625 0 
L 9.421875 0 
z
" id="DejaVuSans-108"/>
     <path d="M 19.671875 64.796875 
L 19.671875 8.109375 
L 31.59375 8.109375 
Q 46.6875 8.109375 53.6875 14.9375 
Q 60.6875 21.78125 60.6875 36.53125 
Q 60.6875 51.171875 53.6875 57.984375 
Q 46.6875 64.796875 31.59375 64.796875 
z
M 9.8125 72.90625 
L 30.078125 72.90625 
Q 51.265625 72.90625 61.171875 64.09375 
Q 71.09375 55.28125 71.09375 36.53125 
Q 71.09375 17.671875 61.125 8.828125 
Q 51.171875 0 30.078125 0 
L 9.8125 0 
z
" id="DejaVuSans-68"/>
     <path d="M 45.40625 27.984375 
Q 45.40625 37.75 41.375 43.109375 
Q 37.359375 48.484375 30.078125 48.484375 
Q 22.859375 48.484375 18.828125 43.109375 
Q 14.796875 37.75 14.796875 27.984375 
Q 14.796875 18.265625 18.828125 12.890625 
Q 22.859375 7.515625 30.078125 7.515625 
Q 37.359375 7.515625 41.375 12.890625 
Q 45.40625 18.265625 45.40625 27.984375 
z
M 54.390625 6.78125 
Q 54.390625 -7.171875 48.1875 -13.984375 
Q 42 -20.796875 29.203125 -20.796875 
Q 24.46875 -20.796875 20.265625 -20.09375 
Q 16.0625 -19.390625 12.109375 -17.921875 
L 12.109375 -9.1875 
Q 16.0625 -11.328125 19.921875 -12.34375 
Q 23.78125 -13.375 27.78125 -13.375 
Q 36.625 -13.375 41.015625 -8.765625 
Q 45.40625 -4.15625 45.40625 5.171875 
L 45.40625 9.625 
Q 42.625 4.78125 38.28125 2.390625 
Q 33.9375 0 27.875 0 
Q 17.828125 0 11.671875 7.65625 
Q 5.515625 15.328125 5.515625 27.984375 
Q 5.515625 40.671875 11.671875 48.328125 
Q 17.828125 56 27.875 56 
Q 33.9375 56 38.28125 53.609375 
Q 42.625 51.21875 45.40625 46.390625 
L 45.40625 54.6875 
L 54.390625 54.6875 
z
" id="DejaVuSans-103"/>
     <path d="M 41.109375 46.296875 
Q 39.59375 47.171875 37.8125 47.578125 
Q 36.03125 48 33.890625 48 
Q 26.265625 48 22.1875 43.046875 
Q 18.109375 38.09375 18.109375 28.8125 
L 18.109375 0 
L 9.078125 0 
L 9.078125 54.6875 
L 18.109375 54.6875 
L 18.109375 46.1875 
Q 20.953125 51.171875 25.484375 53.578125 
Q 30.03125 56 36.53125 56 
Q 37.453125 56 38.578125 55.875 
Q 39.703125 55.765625 41.0625 55.515625 
z
" id="DejaVuSans-114"/>
     <path d="M 9.421875 54.6875 
L 18.40625 54.6875 
L 18.40625 0 
L 9.421875 0 
z
M 9.421875 75.984375 
L 18.40625 75.984375 
L 18.40625 64.59375 
L 9.421875 64.59375 
z
" id="DejaVuSans-105"/>
     <path d="M 10.6875 12.40625 
L 21 12.40625 
L 21 0 
L 10.6875 0 
z
" id="DejaVuSans-46"/>
    </defs>
    <g transform="translate(53.559375 35.472)scale(0.12 -0.12)">
     <use xlink:href="#DejaVuSans-40"/>
     <use x="39.013672" xlink:href="#DejaVuSans-50"/>
     <use x="102.636719" xlink:href="#DejaVuSans-49"/>
     <use x="166.259766" xlink:href="#DejaVuSans-41"/>
     <use x="205.273438" xlink:href="#DejaVuSans-32"/>
     <use x="237.060547" xlink:href="#DejaVuSans-83"/>
     <use x="300.537109" xlink:href="#DejaVuSans-117"/>
     <use x="363.916016" xlink:href="#DejaVuSans-98"/>
     <use x="427.392578" xlink:href="#DejaVuSans-106"/>
     <use x="455.175781" xlink:href="#DejaVuSans-101"/>
     <use x="516.699219" xlink:href="#DejaVuSans-99"/>
     <use x="571.679688" xlink:href="#DejaVuSans-116"/>
     <use x="610.888672" xlink:href="#DejaVuSans-58"/>
     <use x="644.580078" xlink:href="#DejaVuSans-32"/>
     <use x="676.367188" xlink:href="#DejaVuSans-115"/>
     <use x="728.466797" xlink:href="#DejaVuSans-51"/>
     <use x="792.089844" xlink:href="#DejaVuSans-44"/>
     <use x="823.876953" xlink:href="#DejaVuSans-32"/>
     <use x="855.664062" xlink:href="#DejaVuSans-75"/>
     <use x="921.240234" xlink:href="#DejaVuSans-110"/>
     <use x="984.619141" xlink:href="#DejaVuSans-111"/>
     <use x="1045.800781" xlink:href="#DejaVuSans-119"/>
     <use x="1127.587891" xlink:href="#DejaVuSans-110"/>
     <use x="1190.966797" xlink:href="#DejaVuSans-32"/>
     <use x="1222.753906" xlink:href="#DejaVuSans-61"/>
     <use x="1306.542969" xlink:href="#DejaVuSans-32"/>
     <use x="1338.330078" xlink:href="#DejaVuSans-70"/>
     <use x="1395.708984" xlink:href="#DejaVuSans-97"/>
     <use x="1456.988281" xlink:href="#DejaVuSans-108"/>
     <use x="1484.771484" xlink:href="#DejaVuSans-115"/>
     <use x="1536.871094" xlink:href="#DejaVuSans-101"/>
     <use x="1598.394531" xlink:href="#DejaVuSans-44"/>
     <use x="1630.181641" xlink:href="#DejaVuSans-32"/>
     <use x="1661.96875" xlink:href="#DejaVuSans-68"/>
     <use x="1738.970703" xlink:href="#DejaVuSans-101"/>
     <use x="1800.494141" xlink:href="#DejaVuSans-103"/>
     <use x="1863.970703" xlink:href="#DejaVuSans-114"/>
     <use x="1905.052734" xlink:href="#DejaVuSans-101"/>
     <use x="1966.576172" xlink:href="#DejaVuSans-101"/>
     <use x="2028.099609" xlink:href="#DejaVuSans-32"/>
     <use x="2059.886719" xlink:href="#DejaVuSans-61"/>
     <use x="2143.675781" xlink:href="#DejaVuSans-32"/>
     <use x="2175.462891" xlink:href="#DejaVuSans-49"/>
     <use x="2239.085938" xlink:href="#DejaVuSans-44"/>
     <use x="2270.873047" xlink:href="#DejaVuSans-32"/>
     <use x="2302.660156" xlink:href="#DejaVuSans-68"/>
     <use x="2379.662109" xlink:href="#DejaVuSans-117"/>
     <use x="2443.041016" xlink:href="#DejaVuSans-114"/>
     <use x="2484.154297" xlink:href="#DejaVuSans-97"/>
     <use x="2545.433594" xlink:href="#DejaVuSans-116"/>
     <use x="2584.642578" xlink:href="#DejaVuSans-105"/>
     <use x="2612.425781" xlink:href="#DejaVuSans-111"/>
     <use x="2673.607422" xlink:href="#DejaVuSans-110"/>
     <use x="2736.986328" xlink:href="#DejaVuSans-32"/>
     <use x="2768.773438" xlink:href="#DejaVuSans-61"/>
     <use x="2852.5625" xlink:href="#DejaVuSans-32"/>
     <use x="2884.349609" xlink:href="#DejaVuSans-48"/>
     <use x="2947.972656" xlink:href="#DejaVuSans-46"/>
     <use x="2979.759766" xlink:href="#DejaVuSans-49"/>
    </g>
   </g>
  </g>
 </g>
 <defs>
  <clipPath id="p9a96eeae87">
   <rect height="266.112" width="357.12" x="57.6" y="41.472"/>
  </clipPath>
 </defs>
</svg>
