<?xml version="1.0" encoding="utf-8" standalone="no"?>
<!DOCTYPE svg PUBLIC "-//W3C//DTD SVG 1.1//EN"
  "http://www.w3.org/Graphics/SVG/1.1/DTD/svg11.dtd">
<!-- Created with matplotlib (https://matplotlib.org/) -->
<svg height="345.6pt" version="1.1" viewBox="0 0 460.8 345.6" width="460.8pt" xmlns="http://www.w3.org/2000/svg" xmlns:xlink="http://www.w3.org/1999/xlink">
 <defs>
  <style type="text/css">
*{stroke-linecap:butt;stroke-linejoin:round;}
  </style>
 </defs>
 <g id="figure_1">
  <g id="patch_1">
   <path d="M 0 345.6 
L 460.8 345.6 
L 460.8 0 
L 0 0 
z
" style="fill:#ffffff;"/>
  </g>
  <g id="axes_1">
   <g id="patch_2">
    <path d="M 57.6 307.584 
L 414.72 307.584 
L 414.72 41.472 
L 57.6 41.472 
z
" style="fill:#ffffff;"/>
   </g>
   <g id="line2d_1">
    <path clip-path="url(#pd48e36c8e5)" d="M 397.162498 290.621137 
L 397.282026 290.081994 
L 397.282026 289.54285 
L 397.282026 290.081994 
L 397.523574 291.432281 
L 397.282026 290.349137 
L 397.404045 289.54285 
L 397.404045 289.809993 
L 397.162498 289.809993 
L 397.162498 289.809993 
L 397.404045 291.160281 
L 397.404045 292.515425 
L 397.042969 292.515425 
L 396.92095 293.054569 
L 397.162498 293.593712 
L 397.404045 293.326569 
L 397.645592 291.704281 
L 397.645592 291.704281 
L 397.162498 292.782568 
L 397.404045 292.782568 
L 397.645592 292.515425 
L 397.404045 292.243425 
L 397.042969 291.432281 
L 397.282026 291.160281 
L 397.645592 291.704281 
L 397.765121 292.782568 
L 397.282026 293.593712 
L 397.523574 293.865712 
L 397.162498 293.326569 
L 397.042969 293.593712 
L 396.92095 293.326569 
L 396.92095 293.054569 
L 397.162498 293.054569 
L 397.523574 292.782568 
L 397.645592 292.515425 
L 397.645592 292.515425 
L 397.523574 293.054569 
L 397.282026 293.326569 
L 397.042969 293.326569 
L 397.765121 293.326569 
L 397.404045 293.326569 
L 397.645592 293.865712 
L 397.645592 293.865712 
L 397.404045 294.404856 
L 397.042969 294.404856 
L 397.042969 294.137713 
L 397.404045 293.865712 
L 397.523574 293.593712 
L 397.282026 292.782568 
L 397.404045 292.243425 
L 397.645592 292.243425 
L 397.765121 292.782568 
L 397.282026 293.326569 
L 397.404045 293.054569 
L 397.523574 292.782568 
L 397.162498 292.782568 
L 397.523574 292.243425 
L 397.88465 292.515425 
L 398.006668 292.515425 
L 398.006668 292.782568 
L 397.88465 292.515425 
L 397.523574 292.515425 
L 397.404045 292.243425 
L 397.523574 292.243425 
L 398.006668 292.243425 
L 398.367744 292.515425 
L 398.487273 293.054569 
L 398.248216 293.054569 
L 397.765121 292.515425 
L 397.765121 291.971424 
L 398.126197 290.893137 
L 397.765121 291.160281 
L 397.645592 291.704281 
L 398.006668 291.971424 
L 398.006668 291.704281 
L 398.126197 291.160281 
L 398.006668 291.160281 
L 397.88465 291.432281 
L 397.88465 292.782568 
L 397.88465 292.782568 
L 398.006668 292.782568 
L 397.88465 292.515425 
L 396.92095 293.326569 
L 397.162498 292.515425 
L 397.404045 292.243425 
L 397.645592 292.515425 
L 397.404045 293.326569 
L 397.523574 293.054569 
L 397.765121 293.054569 
L 397.765121 292.782568 
L 397.523574 292.782568 
L 397.404045 293.326569 
L 397.645592 291.971424 
L 397.523574 291.971424 
L 397.523574 292.782568 
L 397.765121 293.593712 
L 397.645592 293.593712 
L 397.282026 292.782568 
L 396.92095 292.515425 
L 396.679403 292.515425 
L 396.559874 291.971424 
L 396.679403 292.243425 
L 396.92095 292.782568 
L 397.282026 292.782568 
L 397.404045 292.515425 
L 397.162498 292.515425 
L 396.801422 292.782568 
L 396.92095 293.054569 
L 397.162498 293.054569 
L 397.162498 293.326569 
L 397.042969 293.326569 
L 396.92095 293.593712 
L 396.801422 293.326569 
L 396.679403 293.593712 
L 396.801422 293.865712 
L 397.162498 294.137713 
L 397.162498 294.137713 
L 397.162498 293.865712 
L 396.801422 293.865712 
L 396.679403 294.137713 
L 396.92095 294.404856 
L 396.92095 294.948857 
L 397.162498 295.216 
L 397.162498 294.948857 
L 397.042969 294.676856 
L 396.679403 294.676856 
L 396.679403 294.404856 
L 396.92095 294.137713 
L 397.042969 294.404856 
L 396.92095 294.676856 
L 396.92095 293.865712 
L 396.679403 293.865712 
L 396.559874 294.137713 
L 396.679403 294.137713 
L 396.92095 294.676856 
L 396.801422 294.948857 
L 396.679403 294.404856 
L 396.801422 294.137713 
L 397.042969 294.137713 
L 396.92095 294.137713 
L 397.042969 293.865712 
L 397.404045 293.865712 
L 396.440346 293.865712 
L 396.679403 293.326569 
L 396.92095 293.593712 
L 397.042969 294.137713 
L 396.92095 294.404856 
L 397.042969 293.865712 
L 397.042969 293.326569 
L 396.92095 292.782568 
L 396.679403 292.515425 
L 396.679403 292.782568 
L 396.801422 292.782568 
L 396.801422 293.054569 
L 396.440346 294.676856 
L 396.559874 294.404856 
L 396.679403 293.865712 
L 396.559874 294.676856 
L 396.92095 294.676856 
L 396.559874 294.676856 
L 396.801422 295.488 
L 396.679403 295.216 
L 396.440346 295.216 
L 396.07927 295.488 
L 396.07927 295.488 
L 396.198799 295.216 
L 396.318327 294.404856 
L 396.198799 294.676856 
L 395.957251 295.216 
L 395.354628 295.488 
L 394.390929 295.216 
L 393.305211 294.676856 
L 391.860907 294.404856 
L 384.5099 291.432281 
L 380.894161 290.081994 
L 377.158893 288.459706 
L 368.602639 286.837418 
L 363.540106 285.215131 
L 358.480063 283.3257 
L 342.933878 278.458837 
L 337.993364 276.297406 
L 333.413925 273.319974 
L 328.351392 269.808255 
L 323.049802 266.296537 
L 318.228816 262.779961 
L 313.890925 259.268243 
L 309.550544 256.023668 
L 304.851577 252.779092 
L 300.272138 248.45623 
L 296.295323 243.317367 
L 292.679584 238.994505 
L 289.063844 235.477929 
L 285.450595 232.238211 
L 282.076403 228.993636 
L 278.941268 225.47706 
L 276.1697 221.426198 
L 271.953827 214.397904 
L 270.145958 211.692472 
L 268.457617 210.070185 
L 264.841877 205.747323 
L 263.034008 203.853035 
L 262.79495 202.774748 
L 263.034008 201.963604 
L 263.275555 202.774748 
L 263.636631 204.397035 
L 263.758649 205.747323 
L 264.361273 207.09761 
L 264.361273 207.641611 
L 264.60033 208.180754 
L 265.202953 208.991898 
L 265.202953 210.881329 
L 265.324972 211.692472 
L 265.083424 212.503616 
L 264.963896 212.236473 
L 264.963896 212.236473 
L 264.841877 212.236473 
L 264.60033 211.964473 
L 264.722349 212.236473 
L 264.841877 213.047617 
L 264.60033 213.047617 
L 264.361273 212.775617 
L 263.997707 212.775617 
L 264.361273 212.236473 
L 263.997707 212.236473 
L 264.239254 212.503616 
L 264.722349 212.503616 
L 264.963896 211.964473 
L 264.963896 211.425329 
L 264.841877 211.425329 
L 264.60033 212.236473 
L 264.60033 212.503616 
L 264.722349 212.236473 
L 264.722349 211.692472 
L 264.722349 211.692472 
L 264.963896 212.236473 
L 265.4445 213.047617 
L 265.202953 211.692472 
L 265.324972 212.503616 
L 265.4445 212.236473 
L 265.805576 212.775617 
L 265.566519 212.775617 
L 265.202953 213.853904 
L 265.083424 213.58676 
L 264.963896 213.31476 
L 264.841877 213.31476 
L 264.963896 213.853904 
L 264.963896 213.58676 
L 265.083424 213.31476 
L 265.324972 213.853904 
L 265.083424 213.853904 
L 264.841877 213.58676 
L 264.841877 212.503616 
L 265.202953 211.964473 
L 265.202953 212.775617 
L 265.083424 213.31476 
L 265.202953 213.047617 
L 265.083424 212.775617 
L 264.841877 212.775617 
L 264.60033 213.047617 
L 265.202953 213.047617 
L 265.4445 213.31476 
L 265.324972 213.853904 
L 265.083424 213.853904 
L 264.963896 213.047617 
L 265.202953 211.964473 
L 265.4445 212.236473 
L 265.324972 212.236473 
L 265.202953 212.775617 
L 265.202953 213.853904 
L 264.963896 214.397904 
L 264.722349 213.58676 
L 264.841877 213.047617 
L 265.202953 212.503616 
L 265.4445 211.425329 
L 265.4445 212.503616 
L 265.686048 211.692472 
L 265.4445 211.964473 
L 264.963896 211.964473 
L 264.841877 211.692472 
L 265.4445 211.692472 
L 265.4445 211.692472 
L 265.566519 211.153329 
L 265.805576 210.881329 
L 265.805576 210.881329 
L 265.805576 211.425329 
L 265.805576 210.881329 
L 265.927595 210.881329 
L 265.927595 210.614185 
L 265.927595 210.614185 
L 265.805576 210.614185 
L 265.686048 210.342185 
L 265.566519 209.531041 
L 265.805576 208.991898 
L 266.169142 209.259041 
L 266.288671 209.531041 
L 266.4082 209.259041 
L 266.530218 209.259041 
L 266.649747 208.991898 
L 266.4082 208.447897 
L 266.530218 208.180754 
L 266.771766 207.09761 
L 267.010823 205.475322 
L 267.25237 205.208179 
L 267.374389 205.475322 
L 267.613446 205.475322 
L 267.735465 205.208179 
L 267.493917 204.664178 
L 267.25237 204.397035 
L 267.493917 203.585891 
L 267.493917 202.774748 
L 267.25237 202.502747 
L 268.096541 202.502747 
L 268.457617 202.774748 
L 268.457617 202.774748 
L 268.338088 202.235604 
L 268.338088 201.42446 
L 268.216069 200.88046 
L 268.338088 200.613317 
L 268.338088 200.341316 
L 268.457617 199.530172 
L 268.940711 198.991029 
L 268.699164 199.530172 
L 268.096541 199.802173 
L 267.374389 198.991029 
L 266.530218 197.635884 
L 265.324972 196.018454 
L 263.636631 194.663309 
L 261.589704 193.585023 
L 258.937664 192.773879 
L 252.669884 190.612448 
L 248.815088 189.529303 
L 244.477197 188.179016 
L 239.775739 185.745585 
L 234.954754 182.77301 
L 230.014239 179.528434 
L 219.650116 172.22814 
L 214.468054 168.988422 
L 209.408011 165.471846 
L 204.709044 161.960128 
L 200.249134 158.443552 
L 195.669696 154.387833 
L 186.993914 144.930965 
L 183.017098 140.875246 
L 179.401359 136.819527 
L 176.268714 131.952664 
L 173.255598 127.629802 
L 170.242482 123.574083 
L 166.987819 119.790364 
L 163.855174 115.467502 
L 160.600511 110.600639 
L 156.984771 106.277777 
L 150.599953 99.249483 
L 147.34529 94.921763 
L 144.090626 90.870901 
L 140.716434 88.165469 
L 137.222714 86.815182 
L 133.848522 85.192894 
L 130.835406 83.298607 
L 127.82229 81.681176 
L 124.689645 80.326032 
L 121.676529 79.247745 
L 119.507583 78.703744 
L 118.302337 78.1646 
L 117.819242 77.353457 
L 117.819242 75.731169 
L 118.060789 75.192026 
L 118.543884 74.652882 
L 119.385564 74.380882 
L 120.351754 73.569738 
L 121.315453 73.030594 
L 122.159623 72.758594 
L 123.725946 73.297738 
L 125.533815 73.297738 
L 126.375496 73.030594 
L 126.978119 72.758594 
L 126.978119 72.758594 
L 127.100138 72.486594 
L 127.339195 72.486594 
L 127.339195 73.030594 
L 127.219666 74.108881 
L 126.978119 74.920025 
L 127.100138 74.380882 
L 127.100138 74.108881 
L 126.85859 74.108881 
L 126.85859 73.841738 
L 126.617043 73.841738 
L 126.01442 74.380882 
L 126.136439 74.380882 
L 126.375496 74.108881 
L 126.617043 74.108881 
L 126.85859 74.380882 
L 126.739062 74.920025 
L 127.100138 75.192026 
L 127.461214 75.192026 
L 127.339195 75.192026 
L 127.339195 75.731169 
L 127.461214 75.731169 
L 128.183366 75.192026 
L 128.183366 74.920025 
L 128.063837 74.652882 
L 127.702761 74.652882 
L 127.461214 74.920025 
L 127.702761 75.192026 
L 128.183366 75.192026 
L 128.424913 75.731169 
L 128.063837 76.814313 
L 128.424913 77.353457 
L 128.305384 77.081456 
L 128.183366 77.353457 
L 128.183366 77.625457 
L 128.785989 77.625457 
L 128.785989 77.625457 
L 128.66646 78.1646 
L 128.66646 78.703744 
L 128.544441 78.975744 
L 128.063837 78.436601 
L 128.063837 78.1646 
L 128.305384 78.703744 
L 128.424913 79.514888 
L 128.66646 79.514888 
L 128.66646 79.514888 
L 128.305384 79.786888 
L 128.305384 79.514888 
L 128.183366 79.247745 
L 128.424913 80.058888 
L 128.305384 79.514888 
L 128.063837 79.247745 
L 128.183366 79.786888 
L 128.544441 80.870032 
L 128.908007 81.137175 
L 129.147065 80.870032 
L 129.147065 80.598032 
L 129.027536 80.870032 
L 129.147065 80.598032 
L 129.388612 79.247745 
L 129.269083 79.514888 
L 129.147065 78.975744 
L 129.147065 78.975744 
L 129.147065 79.514888 
L 129.269083 79.786888 
L 129.147065 79.786888 
L 129.147065 80.058888 
L 129.388612 80.058888 
L 129.510631 79.786888 
L 129.510631 79.514888 
L 129.388612 79.786888 
L 129.510631 80.326032 
L 129.269083 80.870032 
L 129.269083 81.948319 
L 129.510631 81.948319 
L 130.352311 82.487463 
L 130.232782 82.22032 
L 129.991235 82.22032 
L 130.232782 82.22032 
L 130.47433 81.948319 
L 130.47433 81.681176 
L 130.232782 81.681176 
L 129.871707 82.22032 
L 129.749688 81.948319 
L 129.749688 81.948319 
L 129.991235 81.948319 
L 130.232782 81.681176 
L 130.113254 81.948319 
L 130.113254 82.22032 
L 130.232782 81.948319 
L 130.593858 81.948319 
L 130.954934 82.759463 
L 130.47433 82.759463 
L 130.835406 81.681176 
L 130.352311 83.031463 
L 129.991235 83.570607 
L 129.269083 83.298607 
L 128.305384 82.759463 
L 124.931192 81.681176 
L 122.881775 81.137175 
L 120.71283 79.786888 
L 117.941261 78.703744 
L 111.7955 77.625457 
L 108.540837 76.27517 
L 105.408192 74.652882 
L 102.514604 72.758594 
L 99.623507 71.94745 
L 96.610391 71.67545 
L 93.838822 71.136306 
L 91.308801 70.058019 
L 86.00472 67.352588 
L 84.921493 66.541444 
L 83.957793 66.0023 
L 82.630528 64.919156 
L 81.666829 63.568869 
L 80.944677 61.946581 
L 80.220035 60.596294 
L 79.378355 59.51315 
L 78.534184 58.702006 
L 76.004163 57.890862 
L 75.40154 57.623719 
L 74.676898 57.623719 
L 74.074275 57.079718 
L 73.832727 56.268575 
L 74.074275 56.268575 
L 74.315822 56.001431 
L 74.43535 55.190288 
L 74.557369 55.190288 
L 74.798917 56.268575 
L 75.279521 57.079718 
L 75.762616 57.351719 
L 76.484767 57.351719 
L 76.606786 57.890862 
L 76.845843 58.434863 
L 77.328938 58.702006 
L 77.809543 58.434863 
L 77.809543 58.162863 
L 77.690014 58.162863 
L 77.570485 58.434863 
L 77.690014 58.434863 
L 77.809543 58.434863 
L 77.690014 58.434863 
L 77.570485 58.162863 
L 77.809543 57.623719 
L 77.809543 57.890862 
L 77.690014 58.702006 
L 77.809543 59.246007 
L 77.809543 59.246007 
L 77.809543 58.702006 
L 78.05109 57.079718 
L 78.292637 57.351719 
L 78.653713 58.162863 
L 78.89526 58.162863 
L 79.256336 57.890862 
L 79.256336 58.162863 
L 79.136808 58.434863 
L 78.89526 57.623719 
L 78.775732 57.623719 
L 78.89526 57.351719 
L 79.014789 57.623719 
L 79.256336 57.623719 
L 79.497884 56.812575 
L 79.617412 57.079718 
L 79.136808 58.702006 
L 79.014789 58.702006 
L 79.136808 58.162863 
L 79.256336 58.162863 
L 79.617412 58.434863 
L 79.858959 58.162863 
L 79.739431 57.890862 
L 79.497884 57.890862 
L 79.378355 58.434863 
L 79.497884 58.974006 
L 79.739431 59.246007 
L 79.497884 58.702006 
L 79.378355 58.974006 
L 79.739431 58.162863 
L 80.220035 57.351719 
L 80.342054 56.812575 
L 80.220035 56.812575 
L 80.220035 57.351719 
L 80.100507 57.351719 
L 79.980978 57.079718 
L 79.980978 57.079718 
L 80.342054 56.540575 
L 80.944677 56.540575 
L 80.822659 57.079718 
L 80.583601 57.890862 
L 80.822659 57.079718 
L 81.183735 56.540575 
L 81.064206 56.268575 
L 80.461583 57.079718 
L 80.583601 57.351719 
L 80.944677 57.623719 
L 81.064206 57.890862 
L 80.822659 57.351719 
L 80.944677 57.623719 
L 81.183735 57.623719 
L 81.305753 57.351719 
L 81.183735 57.079718 
L 81.305753 57.351719 
L 81.786358 57.079718 
L 82.027905 56.812575 
L 81.666829 57.079718 
L 81.305753 56.540575 
L 81.547301 57.623719 
L 81.547301 57.623719 
L 81.786358 57.351719 
L 82.149924 57.623719 
L 81.908376 57.079718 
L 81.547301 56.540575 
L 81.305753 56.540575 
L 81.305753 56.812575 
L 81.547301 56.812575 
L 81.908376 56.540575 
L 81.908376 56.540575 
L 81.786358 56.812575 
L 81.666829 57.351719 
L 81.786358 57.623719 
L 82.027905 57.623719 
L 82.269452 57.079718 
L 82.269452 56.268575 
L 82.149924 56.268575 
L 82.149924 56.812575 
L 82.752547 58.434863 
L 82.027905 56.268575 
L 82.269452 56.268575 
L 82.630528 56.812575 
L 82.872076 57.623719 
L 82.752547 57.623719 
L 82.630528 56.268575 
L 82.872076 56.268575 
L 82.752547 56.268575 
L 82.752547 56.812575 
L 82.752547 56.540575 
L 82.991604 56.001431 
L 82.872076 56.001431 
L 82.630528 56.268575 
L 82.630528 56.540575 
L 82.630528 56.268575 
L 82.752547 55.457431 
L 82.991604 55.190288 
L 82.991604 56.001431 
L 83.113623 56.268575 
L 83.35517 56.001431 
L 83.35517 55.190288 
L 83.474699 55.457431 
L 83.35517 56.001431 
L 83.474699 56.540575 
L 83.835775 57.079718 
L 83.716246 56.812575 
L 83.474699 56.268575 
L 83.594227 55.729431 
L 83.474699 55.729431 
L 84.077322 55.729431 
L 84.077322 55.729431 
L 84.077322 56.268575 
L 84.196851 57.079718 
L 83.835775 56.812575 
L 83.474699 56.268575 
L 83.474699 55.729431 
L 83.716246 55.457431 
L 84.077322 56.268575 
L 84.318869 56.540575 
L 84.438398 56.001431 
L 84.438398 55.457431 
L 84.077322 55.457431 
L 83.716246 55.729431 
L 83.716246 56.001431 
L 83.957793 56.268575 
L 84.679945 56.268575 
L 84.921493 56.001431 
L 85.041021 55.190288 
L 84.679945 54.651144 
L 84.318869 54.918287 
L 84.196851 55.457431 
L 84.318869 55.729431 
L 84.438398 55.457431 
L 84.560417 55.457431 
L 84.799474 55.729431 
L 85.16304 55.729431 
L 85.524116 55.190288 
L 85.524116 55.457431 
L 85.282568 56.268575 
L 84.799474 56.540575 
L 84.438398 56.001431 
L 84.560417 55.729431 
L 84.921493 55.729431 
L 85.524116 56.001431 
L 85.16304 56.540575 
L 85.16304 56.540575 
L 85.402097 56.812575 
L 85.402097 57.351719 
L 85.16304 57.079718 
L 85.16304 56.268575 
L 85.402097 56.001431 
L 85.885192 55.729431 
L 86.00472 56.268575 
L 86.00472 56.812575 
L 85.643644 57.351719 
L 85.402097 57.351719 
L 85.402097 56.812575 
L 85.524116 56.540575 
L 85.282568 56.540575 
L 85.402097 56.540575 
L 86.00472 55.457431 
L 85.643644 54.918287 
L 85.763173 54.918287 
L 85.885192 54.651144 
L 86.00472 54.918287 
L 86.246268 56.268575 
L 86.365796 56.268575 
L 85.885192 55.729431 
L 85.885192 55.457431 
L 86.00472 55.457431 
L 86.00472 56.001431 
L 86.126739 56.001431 
L 86.607344 54.651144 
L 86.487815 54.379144 
L 86.126739 54.379144 
L 86.365796 54.379144 
L 86.607344 54.107143 
L 86.607344 54.107143 
L 86.607344 54.651144 
L 86.246268 55.457431 
L 86.00472 55.457431 
L 86.00472 54.918287 
L 86.365796 54.918287 
L 86.729362 54.379144 
L 86.729362 54.918287 
L 86.487815 55.729431 
L 86.246268 55.729431 
L 86.246268 54.651144 
L 86.607344 54.107143 
L 87.090438 55.457431 
L 87.209967 54.918287 
L 87.090438 54.651144 
L 86.487815 55.190288 
L 86.487815 55.190288 
L 86.365796 55.457431 
L 86.487815 56.268575 
L 86.848891 57.079718 
L 86.607344 56.540575 
L 86.607344 54.918287 
L 86.487815 54.651144 
L 86.365796 54.918287 
L 86.607344 55.729431 
L 87.090438 54.918287 
L 86.968419 54.918287 
L 86.848891 54.918287 
L 86.848891 54.651144 
L 86.729362 54.107143 
L 86.848891 54.107143 
L 87.090438 54.379144 
L 87.090438 54.107143 
L 86.968419 53.568 
L 86.848891 53.84 
L 87.090438 54.379144 
L 87.090438 54.379144 
L 87.571043 54.651144 
L 88.537232 54.651144 
L 94.441445 56.001431 
L 96.72992 56.812575 
L 99.501488 57.351719 
L 102.395076 57.079718 
L 105.649739 57.351719 
L 109.385007 58.162863 
L 113.361822 59.246007 
L 121.557 61.946581 
L 125.411797 63.029725 
L 129.027536 63.840869 
L 132.643275 64.380013 
L 136.136996 65.191157 
L 139.391659 66.269444 
L 142.646323 67.080587 
L 148.911612 69.514019 
L 151.683181 70.325163 
L 154.937844 70.869163 
L 158.673112 71.136306 
L 162.166833 71.67545 
L 165.179949 72.758594 
L 168.434612 73.569738 
L 171.928333 74.108881 
L 175.666091 74.920025 
L 183.497703 77.081456 
L 191.692881 78.703744 
L 199.526983 81.409176 
L 203.140232 82.759463 
L 206.636442 83.842607 
L 210.010634 85.192894 
L 213.265298 86.276039 
L 219.047493 88.976613 
L 221.580004 90.598901 
L 223.74895 92.493189 
L 225.434801 93.299475 
L 226.881595 93.571476 
L 227.967312 94.110619 
L 228.808993 94.38262 
L 229.05054 94.921763 
L 228.689464 97.355195 
L 228.086841 98.438339 
L 227.603746 98.438339 
L 227.001123 98.705482 
L 226.278971 99.249483 
L 225.556819 100.060626 
L 224.712649 100.59977 
L 223.868478 99.516626 
L 223.387874 99.516626 
L 222.904779 99.788626 
L 222.421685 99.516626 
L 222.060609 99.249483 
L 221.580004 99.249483 
L 221.09691 99.516626 
L 221.09691 100.060626 
L 221.09691 100.060626 
L 220.977381 100.060626 
L 220.616305 100.59977 
L 219.891663 101.950057 
L 219.891663 102.761201 
L 219.772135 103.305202 
L 219.772135 103.305202 
L 219.047493 101.410914 
L 218.927964 100.87177 
L 218.686417 100.87177 
L 218.566888 101.138913 
L 218.444869 101.138913 
L 218.205812 100.87177 
L 218.083794 100.32777 
L 217.844736 100.32777 
L 217.603189 100.59977 
L 217.964265 100.32777 
L 217.964265 100.87177 
L 217.722718 101.682914 
L 217.722718 101.682914 
L 217.48117 101.138913 
L 216.759018 98.705482 
L 216.759018 98.977482 
L 216.517471 99.788626 
L 216.275924 100.060626 
L 216.517471 100.060626 
L 216.759018 99.516626 
L 216.759018 98.977482 
L 216.397943 98.705482 
L 216.156395 98.705482 
L 215.914848 98.166338 
L 215.914848 97.355195 
L 216.036867 97.088051 
L 216.036867 97.627195 
L 216.036867 97.627195 
L 215.914848 97.899195 
L 215.673301 97.899195 
L 215.553772 97.355195 
L 216.036867 95.465764 
L 216.036867 95.465764 
L 215.795319 95.732907 
L 215.434243 95.465764 
L 215.434243 95.465764 
L 215.795319 94.38262 
L 216.156395 93.843476 
L 215.312225 94.921763 
L 215.192696 94.110619 
L 215.192696 92.760332 
L 215.434243 92.493189 
L 215.673301 91.949188 
L 215.553772 91.682045 
L 215.312225 91.949188 
L 215.312225 92.221189 
L 215.070677 92.221189 
L 214.709601 91.410045 
L 214.951149 91.410045 
L 215.434243 90.870901 
L 215.553772 91.138044 
L 215.434243 91.410045 
L 215.192696 90.870901 
L 215.192696 90.598901 
L 215.192696 90.598901 
L 214.951149 90.059757 
L 214.590073 90.059757 
L 214.348526 90.326901 
L 214.590073 90.326901 
L 214.709601 89.787757 
L 214.83162 88.704613 
L 214.590073 88.43747 
L 214.348526 88.976613 
L 214.348526 89.248614 
L 214.468054 88.976613 
L 214.590073 88.976613 
L 214.468054 88.976613 
L 214.106978 88.43747 
L 213.867921 87.626326 
L 213.98745 87.354326 
L 214.348526 87.087182 
L 214.228997 87.087182 
L 213.98745 87.626326 
L 213.384826 86.276039 
L 213.745902 86.543182 
L 214.106978 86.543182 
L 214.590073 86.276039 
L 215.192696 86.276039 
L 217.242113 86.815182 
L 218.686417 86.543182 
L 220.374758 86.543182 
L 222.785251 87.087182 
L 225.798367 87.087182 
L 229.05054 86.543182 
L 232.546751 86.276039 
L 240.017287 88.976613 
L 243.633026 90.059757 
L 247.248765 90.870901 
L 254.358225 91.410045 
L 257.49087 91.410045 
L 263.517102 92.493189 
L 266.288671 93.843476 
L 268.818692 95.465764 
L 271.470733 96.816051 
L 274.36183 97.088051 
L 279.424363 98.166338 
L 281.712837 98.438339 
L 283.642726 98.166338 
L 285.450595 98.166338 
L 288.702769 100.32777 
L 290.39111 100.59977 
L 291.715885 100.32777 
L 292.801603 100.32777 
L 294.006849 101.138913 
L 294.245906 101.138913 
L 294.367925 100.59977 
L 294.367925 100.87177 
L 293.88483 101.138913 
L 293.282207 101.682914 
L 291.837903 103.033201 
L 291.23528 103.305202 
L 290.632657 103.305202 
L 290.030034 103.033201 
L 289.305392 103.844345 
L 288.944316 104.922632 
L 288.944316 105.466633 
L 289.063844 105.733776 
L 288.824787 105.194632 
L 288.58324 105.194632 
L 288.100145 105.733776 
L 287.861088 106.277777 
L 287.136446 106.81692 
L 286.894899 107.356064 
L 286.894899 107.628064 
L 287.136446 107.900064 
L 287.016918 107.900064 
L 286.172747 108.439208 
L 285.811671 108.439208 
L 284.847972 108.978351 
L 284.725953 109.517495 
L 284.725953 109.789495 
L 284.847972 110.872639 
L 284.725953 110.328638 
L 284.606425 109.789495 
L 284.364877 109.517495 
L 284.003802 109.789495 
L 283.762254 110.600639 
L 284.12333 110.061495 
L 283.762254 110.328638 
L 283.159631 111.411783 
L 282.557008 111.950926 
L 282.437479 111.683783 
L 282.557008 111.411783 
L 282.557008 111.411783 
L 282.679027 111.411783 
L 282.918084 111.683783 
L 282.437479 112.494927 
L 281.834856 112.76207 
L 281.834856 111.683783 
L 281.593309 111.683783 
L 281.47378 112.222926 
L 281.232233 114.117214 
L 281.232233 114.117214 
L 280.990685 114.117214 
L 280.749138 113.845214 
L 280.749138 114.928358 
L 280.507591 114.928358 
L 280.507591 114.928358 
L 280.749138 115.195501 
L 280.990685 114.928358 
L 280.62961 114.656358 
L 280.388062 115.195501 
L 280.146515 114.928358 
L 279.785439 114.928358 
L 279.182816 117.089789 
L 279.424363 116.545789 
L 279.66591 116.278645 
L 279.66591 116.006645 
L 279.182816 116.006645 
L 278.580193 117.089789 
L 278.702211 116.545789 
L 278.460664 116.278645 
L 278.460664 116.278645 
L 278.460664 116.817789 
L 278.219117 117.628933 
L 277.977569 117.628933 
L 277.977569 117.089789 
L 278.219117 116.278645 
L 278.219117 117.356932 
L 277.496965 118.440077 
L 277.496965 118.712077 
L 277.736022 119.25122 
L 277.736022 120.062364 
L 277.736022 119.790364 
L 277.616493 118.97922 
L 277.374946 118.712077 
L 277.255418 119.25122 
L 277.374946 120.062364 
L 277.374946 120.334365 
L 277.496965 120.873508 
L 277.496965 121.412652 
L 277.255418 121.412652 
L 276.894342 119.25122 
L 276.652794 119.25122 
L 276.652794 119.523221 
L 276.894342 120.334365 
L 276.652794 121.140651 
L 276.411247 120.601508 
L 276.411247 118.712077 
L 276.411247 119.790364 
L 276.652794 120.601508 
L 276.652794 121.412652 
L 276.530776 121.412652 
L 276.411247 121.140651 
L 276.411247 120.601508 
L 276.291718 120.062364 
L 276.050171 120.062364 
L 275.930643 120.334365 
L 275.808624 120.334365 
L 275.808624 120.062364 
L 275.808624 120.062364 
L 275.689095 120.062364 
L 275.086472 121.140651 
L 275.689095 121.140651 
L 275.689095 120.873508 
L 275.567076 120.873508 
L 275.206001 121.140651 
L 274.844925 120.873508 
L 275.086472 120.601508 
L 275.328019 120.601508 
L 275.328019 120.334365 
L 275.206001 120.062364 
L 274.844925 120.062364 
L 274.603377 120.334365 
L 274.725396 120.601508 
L 274.725396 120.873508 
L 274.844925 121.684652 
L 274.964453 121.412652 
L 275.206001 120.334365 
L 275.206001 120.601508 
L 275.206001 120.334365 
L 274.844925 120.062364 
L 274.483849 119.523221 
L 274.603377 119.25122 
L 274.964453 119.25122 
L 274.964453 119.25122 
" style="fill:none;stroke:#1f77b4;stroke-linecap:square;stroke-width:1.5;"/>
   </g>
   <g id="matplotlib.axis_1">
    <g id="xtick_1">
     <g id="line2d_2">
      <defs>
       <path d="M 0 0 
L 0 3.5 
" id="m8058a1d994" style="stroke:#000000;stroke-width:0.8;"/>
      </defs>
      <g>
       <use style="stroke:#000000;stroke-width:0.8;" x="62.467552" xlink:href="#m8058a1d994" y="307.584"/>
      </g>
     </g>
     <g id="text_1">
      <!-- −600 -->
      <defs>
       <path d="M 10.59375 35.5 
L 73.1875 35.5 
L 73.1875 27.203125 
L 10.59375 27.203125 
z
" id="DejaVuSans-8722"/>
       <path d="M 33.015625 40.375 
Q 26.375 40.375 22.484375 35.828125 
Q 18.609375 31.296875 18.609375 23.390625 
Q 18.609375 15.53125 22.484375 10.953125 
Q 26.375 6.390625 33.015625 6.390625 
Q 39.65625 6.390625 43.53125 10.953125 
Q 47.40625 15.53125 47.40625 23.390625 
Q 47.40625 31.296875 43.53125 35.828125 
Q 39.65625 40.375 33.015625 40.375 
z
M 52.59375 71.296875 
L 52.59375 62.3125 
Q 48.875 64.0625 45.09375 64.984375 
Q 41.3125 65.921875 37.59375 65.921875 
Q 27.828125 65.921875 22.671875 59.328125 
Q 17.53125 52.734375 16.796875 39.40625 
Q 19.671875 43.65625 24.015625 45.921875 
Q 28.375 48.1875 33.59375 48.1875 
Q 44.578125 48.1875 50.953125 41.515625 
Q 57.328125 34.859375 57.328125 23.390625 
Q 57.328125 12.15625 50.6875 5.359375 
Q 44.046875 -1.421875 33.015625 -1.421875 
Q 20.359375 -1.421875 13.671875 8.265625 
Q 6.984375 17.96875 6.984375 36.375 
Q 6.984375 53.65625 15.1875 63.9375 
Q 23.390625 74.21875 37.203125 74.21875 
Q 40.921875 74.21875 44.703125 73.484375 
Q 48.484375 72.75 52.59375 71.296875 
z
" id="DejaVuSans-54"/>
       <path d="M 31.78125 66.40625 
Q 24.171875 66.40625 20.328125 58.90625 
Q 16.5 51.421875 16.5 36.375 
Q 16.5 21.390625 20.328125 13.890625 
Q 24.171875 6.390625 31.78125 6.390625 
Q 39.453125 6.390625 43.28125 13.890625 
Q 47.125 21.390625 47.125 36.375 
Q 47.125 51.421875 43.28125 58.90625 
Q 39.453125 66.40625 31.78125 66.40625 
z
M 31.78125 74.21875 
Q 44.046875 74.21875 50.515625 64.515625 
Q 56.984375 54.828125 56.984375 36.375 
Q 56.984375 17.96875 50.515625 8.265625 
Q 44.046875 -1.421875 31.78125 -1.421875 
Q 19.53125 -1.421875 13.0625 8.265625 
Q 6.59375 17.96875 6.59375 36.375 
Q 6.59375 54.828125 13.0625 64.515625 
Q 19.53125 74.21875 31.78125 74.21875 
z
" id="DejaVuSans-48"/>
      </defs>
      <g transform="translate(48.733958 322.182437)scale(0.1 -0.1)">
       <use xlink:href="#DejaVuSans-8722"/>
       <use x="83.789062" xlink:href="#DejaVuSans-54"/>
       <use x="147.412109" xlink:href="#DejaVuSans-48"/>
       <use x="211.035156" xlink:href="#DejaVuSans-48"/>
      </g>
     </g>
    </g>
    <g id="xtick_2">
     <g id="line2d_3">
      <g>
       <use style="stroke:#000000;stroke-width:0.8;" x="112.271124" xlink:href="#m8058a1d994" y="307.584"/>
      </g>
     </g>
     <g id="text_2">
      <!-- −400 -->
      <defs>
       <path d="M 37.796875 64.3125 
L 12.890625 25.390625 
L 37.796875 25.390625 
z
M 35.203125 72.90625 
L 47.609375 72.90625 
L 47.609375 25.390625 
L 58.015625 25.390625 
L 58.015625 17.1875 
L 47.609375 17.1875 
L 47.609375 0 
L 37.796875 0 
L 37.796875 17.1875 
L 4.890625 17.1875 
L 4.890625 26.703125 
z
" id="DejaVuSans-52"/>
      </defs>
      <g transform="translate(98.53753 322.182437)scale(0.1 -0.1)">
       <use xlink:href="#DejaVuSans-8722"/>
       <use x="83.789062" xlink:href="#DejaVuSans-52"/>
       <use x="147.412109" xlink:href="#DejaVuSans-48"/>
       <use x="211.035156" xlink:href="#DejaVuSans-48"/>
      </g>
     </g>
    </g>
    <g id="xtick_3">
     <g id="line2d_4">
      <g>
       <use style="stroke:#000000;stroke-width:0.8;" x="162.074696" xlink:href="#m8058a1d994" y="307.584"/>
      </g>
     </g>
     <g id="text_3">
      <!-- −200 -->
      <defs>
       <path d="M 19.1875 8.296875 
L 53.609375 8.296875 
L 53.609375 0 
L 7.328125 0 
L 7.328125 8.296875 
Q 12.9375 14.109375 22.625 23.890625 
Q 32.328125 33.6875 34.8125 36.53125 
Q 39.546875 41.84375 41.421875 45.53125 
Q 43.3125 49.21875 43.3125 52.78125 
Q 43.3125 58.59375 39.234375 62.25 
Q 35.15625 65.921875 28.609375 65.921875 
Q 23.96875 65.921875 18.8125 64.3125 
Q 13.671875 62.703125 7.8125 59.421875 
L 7.8125 69.390625 
Q 13.765625 71.78125 18.9375 73 
Q 24.125 74.21875 28.421875 74.21875 
Q 39.75 74.21875 46.484375 68.546875 
Q 53.21875 62.890625 53.21875 53.421875 
Q 53.21875 48.921875 51.53125 44.890625 
Q 49.859375 40.875 45.40625 35.40625 
Q 44.1875 33.984375 37.640625 27.21875 
Q 31.109375 20.453125 19.1875 8.296875 
z
" id="DejaVuSans-50"/>
      </defs>
      <g transform="translate(148.341103 322.182437)scale(0.1 -0.1)">
       <use xlink:href="#DejaVuSans-8722"/>
       <use x="83.789062" xlink:href="#DejaVuSans-50"/>
       <use x="147.412109" xlink:href="#DejaVuSans-48"/>
       <use x="211.035156" xlink:href="#DejaVuSans-48"/>
      </g>
     </g>
    </g>
    <g id="xtick_4">
     <g id="line2d_5">
      <g>
       <use style="stroke:#000000;stroke-width:0.8;" x="211.878268" xlink:href="#m8058a1d994" y="307.584"/>
      </g>
     </g>
     <g id="text_4">
      <!-- 0 -->
      <g transform="translate(208.697018 322.182437)scale(0.1 -0.1)">
       <use xlink:href="#DejaVuSans-48"/>
      </g>
     </g>
    </g>
    <g id="xtick_5">
     <g id="line2d_6">
      <g>
       <use style="stroke:#000000;stroke-width:0.8;" x="261.681841" xlink:href="#m8058a1d994" y="307.584"/>
      </g>
     </g>
     <g id="text_5">
      <!-- 200 -->
      <g transform="translate(252.138091 322.182437)scale(0.1 -0.1)">
       <use xlink:href="#DejaVuSans-50"/>
       <use x="63.623047" xlink:href="#DejaVuSans-48"/>
       <use x="127.246094" xlink:href="#DejaVuSans-48"/>
      </g>
     </g>
    </g>
    <g id="xtick_6">
     <g id="line2d_7">
      <g>
       <use style="stroke:#000000;stroke-width:0.8;" x="311.485413" xlink:href="#m8058a1d994" y="307.584"/>
      </g>
     </g>
     <g id="text_6">
      <!-- 400 -->
      <g transform="translate(301.941663 322.182437)scale(0.1 -0.1)">
       <use xlink:href="#DejaVuSans-52"/>
       <use x="63.623047" xlink:href="#DejaVuSans-48"/>
       <use x="127.246094" xlink:href="#DejaVuSans-48"/>
      </g>
     </g>
    </g>
    <g id="xtick_7">
     <g id="line2d_8">
      <g>
       <use style="stroke:#000000;stroke-width:0.8;" x="361.288985" xlink:href="#m8058a1d994" y="307.584"/>
      </g>
     </g>
     <g id="text_7">
      <!-- 600 -->
      <g transform="translate(351.745235 322.182437)scale(0.1 -0.1)">
       <use xlink:href="#DejaVuSans-54"/>
       <use x="63.623047" xlink:href="#DejaVuSans-48"/>
       <use x="127.246094" xlink:href="#DejaVuSans-48"/>
      </g>
     </g>
    </g>
    <g id="xtick_8">
     <g id="line2d_9">
      <g>
       <use style="stroke:#000000;stroke-width:0.8;" x="411.092557" xlink:href="#m8058a1d994" y="307.584"/>
      </g>
     </g>
     <g id="text_8">
      <!-- 800 -->
      <defs>
       <path d="M 31.78125 34.625 
Q 24.75 34.625 20.71875 30.859375 
Q 16.703125 27.09375 16.703125 20.515625 
Q 16.703125 13.921875 20.71875 10.15625 
Q 24.75 6.390625 31.78125 6.390625 
Q 38.8125 6.390625 42.859375 10.171875 
Q 46.921875 13.96875 46.921875 20.515625 
Q 46.921875 27.09375 42.890625 30.859375 
Q 38.875 34.625 31.78125 34.625 
z
M 21.921875 38.8125 
Q 15.578125 40.375 12.03125 44.71875 
Q 8.5 49.078125 8.5 55.328125 
Q 8.5 64.0625 14.71875 69.140625 
Q 20.953125 74.21875 31.78125 74.21875 
Q 42.671875 74.21875 48.875 69.140625 
Q 55.078125 64.0625 55.078125 55.328125 
Q 55.078125 49.078125 51.53125 44.71875 
Q 48 40.375 41.703125 38.8125 
Q 48.828125 37.15625 52.796875 32.3125 
Q 56.78125 27.484375 56.78125 20.515625 
Q 56.78125 9.90625 50.3125 4.234375 
Q 43.84375 -1.421875 31.78125 -1.421875 
Q 19.734375 -1.421875 13.25 4.234375 
Q 6.78125 9.90625 6.78125 20.515625 
Q 6.78125 27.484375 10.78125 32.3125 
Q 14.796875 37.15625 21.921875 38.8125 
z
M 18.3125 54.390625 
Q 18.3125 48.734375 21.84375 45.5625 
Q 25.390625 42.390625 31.78125 42.390625 
Q 38.140625 42.390625 41.71875 45.5625 
Q 45.3125 48.734375 45.3125 54.390625 
Q 45.3125 60.0625 41.71875 63.234375 
Q 38.140625 66.40625 31.78125 66.40625 
Q 25.390625 66.40625 21.84375 63.234375 
Q 18.3125 60.0625 18.3125 54.390625 
z
" id="DejaVuSans-56"/>
      </defs>
      <g transform="translate(401.548807 322.182437)scale(0.1 -0.1)">
       <use xlink:href="#DejaVuSans-56"/>
       <use x="63.623047" xlink:href="#DejaVuSans-48"/>
       <use x="127.246094" xlink:href="#DejaVuSans-48"/>
      </g>
     </g>
    </g>
   </g>
   <g id="matplotlib.axis_2">
    <g id="ytick_1">
     <g id="line2d_10">
      <defs>
       <path d="M 0 0 
L -3.5 0 
" id="m132584c711" style="stroke:#000000;stroke-width:0.8;"/>
      </defs>
      <g>
       <use style="stroke:#000000;stroke-width:0.8;" x="57.6" xlink:href="#m132584c711" y="289.843993"/>
      </g>
     </g>
     <g id="text_9">
      <!-- −800 -->
      <g transform="translate(23.132812 293.643212)scale(0.1 -0.1)">
       <use xlink:href="#DejaVuSans-8722"/>
       <use x="83.789062" xlink:href="#DejaVuSans-56"/>
       <use x="147.412109" xlink:href="#DejaVuSans-48"/>
       <use x="211.035156" xlink:href="#DejaVuSans-48"/>
      </g>
     </g>
    </g>
    <g id="ytick_2">
     <g id="line2d_11">
      <g>
       <use style="stroke:#000000;stroke-width:0.8;" x="57.6" xlink:href="#m132584c711" y="241.272507"/>
      </g>
     </g>
     <g id="text_10">
      <!-- −700 -->
      <defs>
       <path d="M 8.203125 72.90625 
L 55.078125 72.90625 
L 55.078125 68.703125 
L 28.609375 0 
L 18.3125 0 
L 43.21875 64.59375 
L 8.203125 64.59375 
z
" id="DejaVuSans-55"/>
      </defs>
      <g transform="translate(23.132812 245.071726)scale(0.1 -0.1)">
       <use xlink:href="#DejaVuSans-8722"/>
       <use x="83.789062" xlink:href="#DejaVuSans-55"/>
       <use x="147.412109" xlink:href="#DejaVuSans-48"/>
       <use x="211.035156" xlink:href="#DejaVuSans-48"/>
      </g>
     </g>
    </g>
    <g id="ytick_3">
     <g id="line2d_12">
      <g>
       <use style="stroke:#000000;stroke-width:0.8;" x="57.6" xlink:href="#m132584c711" y="192.701021"/>
      </g>
     </g>
     <g id="text_11">
      <!-- −600 -->
      <g transform="translate(23.132812 196.50024)scale(0.1 -0.1)">
       <use xlink:href="#DejaVuSans-8722"/>
       <use x="83.789062" xlink:href="#DejaVuSans-54"/>
       <use x="147.412109" xlink:href="#DejaVuSans-48"/>
       <use x="211.035156" xlink:href="#DejaVuSans-48"/>
      </g>
     </g>
    </g>
    <g id="ytick_4">
     <g id="line2d_13">
      <g>
       <use style="stroke:#000000;stroke-width:0.8;" x="57.6" xlink:href="#m132584c711" y="144.129536"/>
      </g>
     </g>
     <g id="text_12">
      <!-- −500 -->
      <defs>
       <path d="M 10.796875 72.90625 
L 49.515625 72.90625 
L 49.515625 64.59375 
L 19.828125 64.59375 
L 19.828125 46.734375 
Q 21.96875 47.46875 24.109375 47.828125 
Q 26.265625 48.1875 28.421875 48.1875 
Q 40.625 48.1875 47.75 41.5 
Q 54.890625 34.8125 54.890625 23.390625 
Q 54.890625 11.625 47.5625 5.09375 
Q 40.234375 -1.421875 26.90625 -1.421875 
Q 22.3125 -1.421875 17.546875 -0.640625 
Q 12.796875 0.140625 7.71875 1.703125 
L 7.71875 11.625 
Q 12.109375 9.234375 16.796875 8.0625 
Q 21.484375 6.890625 26.703125 6.890625 
Q 35.15625 6.890625 40.078125 11.328125 
Q 45.015625 15.765625 45.015625 23.390625 
Q 45.015625 31 40.078125 35.4375 
Q 35.15625 39.890625 26.703125 39.890625 
Q 22.75 39.890625 18.8125 39.015625 
Q 14.890625 38.140625 10.796875 36.28125 
z
" id="DejaVuSans-53"/>
      </defs>
      <g transform="translate(23.132812 147.928754)scale(0.1 -0.1)">
       <use xlink:href="#DejaVuSans-8722"/>
       <use x="83.789062" xlink:href="#DejaVuSans-53"/>
       <use x="147.412109" xlink:href="#DejaVuSans-48"/>
       <use x="211.035156" xlink:href="#DejaVuSans-48"/>
      </g>
     </g>
    </g>
    <g id="ytick_5">
     <g id="line2d_14">
      <g>
       <use style="stroke:#000000;stroke-width:0.8;" x="57.6" xlink:href="#m132584c711" y="95.55805"/>
      </g>
     </g>
     <g id="text_13">
      <!-- −400 -->
      <g transform="translate(23.132812 99.357268)scale(0.1 -0.1)">
       <use xlink:href="#DejaVuSans-8722"/>
       <use x="83.789062" xlink:href="#DejaVuSans-52"/>
       <use x="147.412109" xlink:href="#DejaVuSans-48"/>
       <use x="211.035156" xlink:href="#DejaVuSans-48"/>
      </g>
     </g>
    </g>
    <g id="ytick_6">
     <g id="line2d_15">
      <g>
       <use style="stroke:#000000;stroke-width:0.8;" x="57.6" xlink:href="#m132584c711" y="46.986564"/>
      </g>
     </g>
     <g id="text_14">
      <!-- −300 -->
      <defs>
       <path d="M 40.578125 39.3125 
Q 47.65625 37.796875 51.625 33 
Q 55.609375 28.21875 55.609375 21.1875 
Q 55.609375 10.40625 48.1875 4.484375 
Q 40.765625 -1.421875 27.09375 -1.421875 
Q 22.515625 -1.421875 17.65625 -0.515625 
Q 12.796875 0.390625 7.625 2.203125 
L 7.625 11.71875 
Q 11.71875 9.328125 16.59375 8.109375 
Q 21.484375 6.890625 26.8125 6.890625 
Q 36.078125 6.890625 40.9375 10.546875 
Q 45.796875 14.203125 45.796875 21.1875 
Q 45.796875 27.640625 41.28125 31.265625 
Q 36.765625 34.90625 28.71875 34.90625 
L 20.21875 34.90625 
L 20.21875 43.015625 
L 29.109375 43.015625 
Q 36.375 43.015625 40.234375 45.921875 
Q 44.09375 48.828125 44.09375 54.296875 
Q 44.09375 59.90625 40.109375 62.90625 
Q 36.140625 65.921875 28.71875 65.921875 
Q 24.65625 65.921875 20.015625 65.03125 
Q 15.375 64.15625 9.8125 62.3125 
L 9.8125 71.09375 
Q 15.4375 72.65625 20.34375 73.4375 
Q 25.25 74.21875 29.59375 74.21875 
Q 40.828125 74.21875 47.359375 69.109375 
Q 53.90625 64.015625 53.90625 55.328125 
Q 53.90625 49.265625 50.4375 45.09375 
Q 46.96875 40.921875 40.578125 39.3125 
z
" id="DejaVuSans-51"/>
      </defs>
      <g transform="translate(23.132812 50.785782)scale(0.1 -0.1)">
       <use xlink:href="#DejaVuSans-8722"/>
       <use x="83.789062" xlink:href="#DejaVuSans-51"/>
       <use x="147.412109" xlink:href="#DejaVuSans-48"/>
       <use x="211.035156" xlink:href="#DejaVuSans-48"/>
      </g>
     </g>
    </g>
   </g>
   <g id="line2d_16">
    <path clip-path="url(#pd48e36c8e5)" d="M 396.340425 292.957088 
L 265.807775 209.803352 
L 127.706458 78.542644 
L 82.164432 57.330482 
L 218.062303 94.564596 
L 283.597053 109.850441 
" style="fill:none;stroke:#ff0000;stroke-linecap:square;stroke-width:0.5;"/>
   </g>
   <g id="patch_3">
    <path d="M 57.6 307.584 
L 57.6 41.472 
" style="fill:none;stroke:#000000;stroke-linecap:square;stroke-linejoin:miter;stroke-width:0.8;"/>
   </g>
   <g id="patch_4">
    <path d="M 414.72 307.584 
L 414.72 41.472 
" style="fill:none;stroke:#000000;stroke-linecap:square;stroke-linejoin:miter;stroke-width:0.8;"/>
   </g>
   <g id="patch_5">
    <path d="M 57.6 307.584 
L 414.72 307.584 
" style="fill:none;stroke:#000000;stroke-linecap:square;stroke-linejoin:miter;stroke-width:0.8;"/>
   </g>
   <g id="patch_6">
    <path d="M 57.6 41.472 
L 414.72 41.472 
" style="fill:none;stroke:#000000;stroke-linecap:square;stroke-linejoin:miter;stroke-width:0.8;"/>
   </g>
   <g id="PathCollection_1">
    <defs>
     <path d="M 0 2.738613 
C 0.726289 2.738613 1.422928 2.450055 1.936492 1.936492 
C 2.450055 1.422928 2.738613 0.726289 2.738613 0 
C 2.738613 -0.726289 2.450055 -1.422928 1.936492 -1.936492 
C 1.422928 -2.450055 0.726289 -2.738613 0 -2.738613 
C -0.726289 -2.738613 -1.422928 -2.450055 -1.936492 -1.936492 
C -2.450055 -1.422928 -2.738613 -0.726289 -2.738613 0 
C -2.738613 0.726289 -2.450055 1.422928 -1.936492 1.936492 
C -1.422928 2.450055 -0.726289 2.738613 0 2.738613 
z
" id="m930079034f" style="stroke:#ff0000;"/>
    </defs>
    <g clip-path="url(#pd48e36c8e5)">
     <use style="fill:#ff0000;stroke:#ff0000;" x="396.340425" xlink:href="#m930079034f" y="292.957088"/>
     <use style="fill:#ff0000;stroke:#ff0000;" x="265.807775" xlink:href="#m930079034f" y="209.803352"/>
     <use style="fill:#ff0000;stroke:#ff0000;" x="127.706458" xlink:href="#m930079034f" y="78.542644"/>
     <use style="fill:#ff0000;stroke:#ff0000;" x="82.164432" xlink:href="#m930079034f" y="57.330482"/>
     <use style="fill:#ff0000;stroke:#ff0000;" x="218.062303" xlink:href="#m930079034f" y="94.564596"/>
     <use style="fill:#ff0000;stroke:#ff0000;" x="283.597053" xlink:href="#m930079034f" y="109.850441"/>
    </g>
   </g>
   <g id="text_15">
    <!-- (25) Subject: s7, Known = True, Degree = 1, Duration = 0.1 -->
    <defs>
     <path d="M 31 75.875 
Q 24.46875 64.65625 21.28125 53.65625 
Q 18.109375 42.671875 18.109375 31.390625 
Q 18.109375 20.125 21.3125 9.0625 
Q 24.515625 -2 31 -13.1875 
L 23.1875 -13.1875 
Q 15.875 -1.703125 12.234375 9.375 
Q 8.59375 20.453125 8.59375 31.390625 
Q 8.59375 42.28125 12.203125 53.3125 
Q 15.828125 64.359375 23.1875 75.875 
z
" id="DejaVuSans-40"/>
     <path d="M 8.015625 75.875 
L 15.828125 75.875 
Q 23.140625 64.359375 26.78125 53.3125 
Q 30.421875 42.28125 30.421875 31.390625 
Q 30.421875 20.453125 26.78125 9.375 
Q 23.140625 -1.703125 15.828125 -13.1875 
L 8.015625 -13.1875 
Q 14.5 -2 17.703125 9.0625 
Q 20.90625 20.125 20.90625 31.390625 
Q 20.90625 42.671875 17.703125 53.65625 
Q 14.5 64.65625 8.015625 75.875 
z
" id="DejaVuSans-41"/>
     <path id="DejaVuSans-32"/>
     <path d="M 53.515625 70.515625 
L 53.515625 60.890625 
Q 47.90625 63.578125 42.921875 64.890625 
Q 37.9375 66.21875 33.296875 66.21875 
Q 25.25 66.21875 20.875 63.09375 
Q 16.5 59.96875 16.5 54.203125 
Q 16.5 49.359375 19.40625 46.890625 
Q 22.3125 44.4375 30.421875 42.921875 
L 36.375 41.703125 
Q 47.40625 39.59375 52.65625 34.296875 
Q 57.90625 29 57.90625 20.125 
Q 57.90625 9.515625 50.796875 4.046875 
Q 43.703125 -1.421875 29.984375 -1.421875 
Q 24.8125 -1.421875 18.96875 -0.25 
Q 13.140625 0.921875 6.890625 3.21875 
L 6.890625 13.375 
Q 12.890625 10.015625 18.65625 8.296875 
Q 24.421875 6.59375 29.984375 6.59375 
Q 38.421875 6.59375 43.015625 9.90625 
Q 47.609375 13.234375 47.609375 19.390625 
Q 47.609375 24.75 44.3125 27.78125 
Q 41.015625 30.8125 33.5 32.328125 
L 27.484375 33.5 
Q 16.453125 35.6875 11.515625 40.375 
Q 6.59375 45.0625 6.59375 53.421875 
Q 6.59375 63.09375 13.40625 68.65625 
Q 20.21875 74.21875 32.171875 74.21875 
Q 37.3125 74.21875 42.625 73.28125 
Q 47.953125 72.359375 53.515625 70.515625 
z
" id="DejaVuSans-83"/>
     <path d="M 8.5 21.578125 
L 8.5 54.6875 
L 17.484375 54.6875 
L 17.484375 21.921875 
Q 17.484375 14.15625 20.5 10.265625 
Q 23.53125 6.390625 29.59375 6.390625 
Q 36.859375 6.390625 41.078125 11.03125 
Q 45.3125 15.671875 45.3125 23.6875 
L 45.3125 54.6875 
L 54.296875 54.6875 
L 54.296875 0 
L 45.3125 0 
L 45.3125 8.40625 
Q 42.046875 3.421875 37.71875 1 
Q 33.40625 -1.421875 27.6875 -1.421875 
Q 18.265625 -1.421875 13.375 4.4375 
Q 8.5 10.296875 8.5 21.578125 
z
M 31.109375 56 
z
" id="DejaVuSans-117"/>
     <path d="M 48.6875 27.296875 
Q 48.6875 37.203125 44.609375 42.84375 
Q 40.53125 48.484375 33.40625 48.484375 
Q 26.265625 48.484375 22.1875 42.84375 
Q 18.109375 37.203125 18.109375 27.296875 
Q 18.109375 17.390625 22.1875 11.75 
Q 26.265625 6.109375 33.40625 6.109375 
Q 40.53125 6.109375 44.609375 11.75 
Q 48.6875 17.390625 48.6875 27.296875 
z
M 18.109375 46.390625 
Q 20.953125 51.265625 25.265625 53.625 
Q 29.59375 56 35.59375 56 
Q 45.5625 56 51.78125 48.09375 
Q 58.015625 40.1875 58.015625 27.296875 
Q 58.015625 14.40625 51.78125 6.484375 
Q 45.5625 -1.421875 35.59375 -1.421875 
Q 29.59375 -1.421875 25.265625 0.953125 
Q 20.953125 3.328125 18.109375 8.203125 
L 18.109375 0 
L 9.078125 0 
L 9.078125 75.984375 
L 18.109375 75.984375 
z
" id="DejaVuSans-98"/>
     <path d="M 9.421875 54.6875 
L 18.40625 54.6875 
L 18.40625 -0.984375 
Q 18.40625 -11.421875 14.421875 -16.109375 
Q 10.453125 -20.796875 1.609375 -20.796875 
L -1.8125 -20.796875 
L -1.8125 -13.1875 
L 0.59375 -13.1875 
Q 5.71875 -13.1875 7.5625 -10.8125 
Q 9.421875 -8.453125 9.421875 -0.984375 
z
M 9.421875 75.984375 
L 18.40625 75.984375 
L 18.40625 64.59375 
L 9.421875 64.59375 
z
" id="DejaVuSans-106"/>
     <path d="M 56.203125 29.59375 
L 56.203125 25.203125 
L 14.890625 25.203125 
Q 15.484375 15.921875 20.484375 11.0625 
Q 25.484375 6.203125 34.421875 6.203125 
Q 39.59375 6.203125 44.453125 7.46875 
Q 49.3125 8.734375 54.109375 11.28125 
L 54.109375 2.78125 
Q 49.265625 0.734375 44.1875 -0.34375 
Q 39.109375 -1.421875 33.890625 -1.421875 
Q 20.796875 -1.421875 13.15625 6.1875 
Q 5.515625 13.8125 5.515625 26.8125 
Q 5.515625 40.234375 12.765625 48.109375 
Q 20.015625 56 32.328125 56 
Q 43.359375 56 49.78125 48.890625 
Q 56.203125 41.796875 56.203125 29.59375 
z
M 47.21875 32.234375 
Q 47.125 39.59375 43.09375 43.984375 
Q 39.0625 48.390625 32.421875 48.390625 
Q 24.90625 48.390625 20.390625 44.140625 
Q 15.875 39.890625 15.1875 32.171875 
z
" id="DejaVuSans-101"/>
     <path d="M 48.78125 52.59375 
L 48.78125 44.1875 
Q 44.96875 46.296875 41.140625 47.34375 
Q 37.3125 48.390625 33.40625 48.390625 
Q 24.65625 48.390625 19.8125 42.84375 
Q 14.984375 37.3125 14.984375 27.296875 
Q 14.984375 17.28125 19.8125 11.734375 
Q 24.65625 6.203125 33.40625 6.203125 
Q 37.3125 6.203125 41.140625 7.25 
Q 44.96875 8.296875 48.78125 10.40625 
L 48.78125 2.09375 
Q 45.015625 0.34375 40.984375 -0.53125 
Q 36.96875 -1.421875 32.421875 -1.421875 
Q 20.0625 -1.421875 12.78125 6.34375 
Q 5.515625 14.109375 5.515625 27.296875 
Q 5.515625 40.671875 12.859375 48.328125 
Q 20.21875 56 33.015625 56 
Q 37.15625 56 41.109375 55.140625 
Q 45.0625 54.296875 48.78125 52.59375 
z
" id="DejaVuSans-99"/>
     <path d="M 18.3125 70.21875 
L 18.3125 54.6875 
L 36.8125 54.6875 
L 36.8125 47.703125 
L 18.3125 47.703125 
L 18.3125 18.015625 
Q 18.3125 11.328125 20.140625 9.421875 
Q 21.96875 7.515625 27.59375 7.515625 
L 36.8125 7.515625 
L 36.8125 0 
L 27.59375 0 
Q 17.1875 0 13.234375 3.875 
Q 9.28125 7.765625 9.28125 18.015625 
L 9.28125 47.703125 
L 2.6875 47.703125 
L 2.6875 54.6875 
L 9.28125 54.6875 
L 9.28125 70.21875 
z
" id="DejaVuSans-116"/>
     <path d="M 11.71875 12.40625 
L 22.015625 12.40625 
L 22.015625 0 
L 11.71875 0 
z
M 11.71875 51.703125 
L 22.015625 51.703125 
L 22.015625 39.3125 
L 11.71875 39.3125 
z
" id="DejaVuSans-58"/>
     <path d="M 44.28125 53.078125 
L 44.28125 44.578125 
Q 40.484375 46.53125 36.375 47.5 
Q 32.28125 48.484375 27.875 48.484375 
Q 21.1875 48.484375 17.84375 46.4375 
Q 14.5 44.390625 14.5 40.28125 
Q 14.5 37.15625 16.890625 35.375 
Q 19.28125 33.59375 26.515625 31.984375 
L 29.59375 31.296875 
Q 39.15625 29.25 43.1875 25.515625 
Q 47.21875 21.78125 47.21875 15.09375 
Q 47.21875 7.46875 41.1875 3.015625 
Q 35.15625 -1.421875 24.609375 -1.421875 
Q 20.21875 -1.421875 15.453125 -0.5625 
Q 10.6875 0.296875 5.421875 2 
L 5.421875 11.28125 
Q 10.40625 8.6875 15.234375 7.390625 
Q 20.0625 6.109375 24.8125 6.109375 
Q 31.15625 6.109375 34.5625 8.28125 
Q 37.984375 10.453125 37.984375 14.40625 
Q 37.984375 18.0625 35.515625 20.015625 
Q 33.0625 21.96875 24.703125 23.78125 
L 21.578125 24.515625 
Q 13.234375 26.265625 9.515625 29.90625 
Q 5.8125 33.546875 5.8125 39.890625 
Q 5.8125 47.609375 11.28125 51.796875 
Q 16.75 56 26.8125 56 
Q 31.78125 56 36.171875 55.265625 
Q 40.578125 54.546875 44.28125 53.078125 
z
" id="DejaVuSans-115"/>
     <path d="M 11.71875 12.40625 
L 22.015625 12.40625 
L 22.015625 4 
L 14.015625 -11.625 
L 7.71875 -11.625 
L 11.71875 4 
z
" id="DejaVuSans-44"/>
     <path d="M 9.8125 72.90625 
L 19.671875 72.90625 
L 19.671875 42.09375 
L 52.390625 72.90625 
L 65.09375 72.90625 
L 28.90625 38.921875 
L 67.671875 0 
L 54.6875 0 
L 19.671875 35.109375 
L 19.671875 0 
L 9.8125 0 
z
" id="DejaVuSans-75"/>
     <path d="M 54.890625 33.015625 
L 54.890625 0 
L 45.90625 0 
L 45.90625 32.71875 
Q 45.90625 40.484375 42.875 44.328125 
Q 39.84375 48.1875 33.796875 48.1875 
Q 26.515625 48.1875 22.3125 43.546875 
Q 18.109375 38.921875 18.109375 30.90625 
L 18.109375 0 
L 9.078125 0 
L 9.078125 54.6875 
L 18.109375 54.6875 
L 18.109375 46.1875 
Q 21.34375 51.125 25.703125 53.5625 
Q 30.078125 56 35.796875 56 
Q 45.21875 56 50.046875 50.171875 
Q 54.890625 44.34375 54.890625 33.015625 
z
" id="DejaVuSans-110"/>
     <path d="M 30.609375 48.390625 
Q 23.390625 48.390625 19.1875 42.75 
Q 14.984375 37.109375 14.984375 27.296875 
Q 14.984375 17.484375 19.15625 11.84375 
Q 23.34375 6.203125 30.609375 6.203125 
Q 37.796875 6.203125 41.984375 11.859375 
Q 46.1875 17.53125 46.1875 27.296875 
Q 46.1875 37.015625 41.984375 42.703125 
Q 37.796875 48.390625 30.609375 48.390625 
z
M 30.609375 56 
Q 42.328125 56 49.015625 48.375 
Q 55.71875 40.765625 55.71875 27.296875 
Q 55.71875 13.875 49.015625 6.21875 
Q 42.328125 -1.421875 30.609375 -1.421875 
Q 18.84375 -1.421875 12.171875 6.21875 
Q 5.515625 13.875 5.515625 27.296875 
Q 5.515625 40.765625 12.171875 48.375 
Q 18.84375 56 30.609375 56 
z
" id="DejaVuSans-111"/>
     <path d="M 4.203125 54.6875 
L 13.1875 54.6875 
L 24.421875 12.015625 
L 35.59375 54.6875 
L 46.1875 54.6875 
L 57.421875 12.015625 
L 68.609375 54.6875 
L 77.59375 54.6875 
L 63.28125 0 
L 52.6875 0 
L 40.921875 44.828125 
L 29.109375 0 
L 18.5 0 
z
" id="DejaVuSans-119"/>
     <path d="M 10.59375 45.40625 
L 73.1875 45.40625 
L 73.1875 37.203125 
L 10.59375 37.203125 
z
M 10.59375 25.484375 
L 73.1875 25.484375 
L 73.1875 17.1875 
L 10.59375 17.1875 
z
" id="DejaVuSans-61"/>
     <path d="M -0.296875 72.90625 
L 61.375 72.90625 
L 61.375 64.59375 
L 35.5 64.59375 
L 35.5 0 
L 25.59375 0 
L 25.59375 64.59375 
L -0.296875 64.59375 
z
" id="DejaVuSans-84"/>
     <path d="M 41.109375 46.296875 
Q 39.59375 47.171875 37.8125 47.578125 
Q 36.03125 48 33.890625 48 
Q 26.265625 48 22.1875 43.046875 
Q 18.109375 38.09375 18.109375 28.8125 
L 18.109375 0 
L 9.078125 0 
L 9.078125 54.6875 
L 18.109375 54.6875 
L 18.109375 46.1875 
Q 20.953125 51.171875 25.484375 53.578125 
Q 30.03125 56 36.53125 56 
Q 37.453125 56 38.578125 55.875 
Q 39.703125 55.765625 41.0625 55.515625 
z
" id="DejaVuSans-114"/>
     <path d="M 19.671875 64.796875 
L 19.671875 8.109375 
L 31.59375 8.109375 
Q 46.6875 8.109375 53.6875 14.9375 
Q 60.6875 21.78125 60.6875 36.53125 
Q 60.6875 51.171875 53.6875 57.984375 
Q 46.6875 64.796875 31.59375 64.796875 
z
M 9.8125 72.90625 
L 30.078125 72.90625 
Q 51.265625 72.90625 61.171875 64.09375 
Q 71.09375 55.28125 71.09375 36.53125 
Q 71.09375 17.671875 61.125 8.828125 
Q 51.171875 0 30.078125 0 
L 9.8125 0 
z
" id="DejaVuSans-68"/>
     <path d="M 45.40625 27.984375 
Q 45.40625 37.75 41.375 43.109375 
Q 37.359375 48.484375 30.078125 48.484375 
Q 22.859375 48.484375 18.828125 43.109375 
Q 14.796875 37.75 14.796875 27.984375 
Q 14.796875 18.265625 18.828125 12.890625 
Q 22.859375 7.515625 30.078125 7.515625 
Q 37.359375 7.515625 41.375 12.890625 
Q 45.40625 18.265625 45.40625 27.984375 
z
M 54.390625 6.78125 
Q 54.390625 -7.171875 48.1875 -13.984375 
Q 42 -20.796875 29.203125 -20.796875 
Q 24.46875 -20.796875 20.265625 -20.09375 
Q 16.0625 -19.390625 12.109375 -17.921875 
L 12.109375 -9.1875 
Q 16.0625 -11.328125 19.921875 -12.34375 
Q 23.78125 -13.375 27.78125 -13.375 
Q 36.625 -13.375 41.015625 -8.765625 
Q 45.40625 -4.15625 45.40625 5.171875 
L 45.40625 9.625 
Q 42.625 4.78125 38.28125 2.390625 
Q 33.9375 0 27.875 0 
Q 17.828125 0 11.671875 7.65625 
Q 5.515625 15.328125 5.515625 27.984375 
Q 5.515625 40.671875 11.671875 48.328125 
Q 17.828125 56 27.875 56 
Q 33.9375 56 38.28125 53.609375 
Q 42.625 51.21875 45.40625 46.390625 
L 45.40625 54.6875 
L 54.390625 54.6875 
z
" id="DejaVuSans-103"/>
     <path d="M 12.40625 8.296875 
L 28.515625 8.296875 
L 28.515625 63.921875 
L 10.984375 60.40625 
L 10.984375 69.390625 
L 28.421875 72.90625 
L 38.28125 72.90625 
L 38.28125 8.296875 
L 54.390625 8.296875 
L 54.390625 0 
L 12.40625 0 
z
" id="DejaVuSans-49"/>
     <path d="M 34.28125 27.484375 
Q 23.390625 27.484375 19.1875 25 
Q 14.984375 22.515625 14.984375 16.5 
Q 14.984375 11.71875 18.140625 8.90625 
Q 21.296875 6.109375 26.703125 6.109375 
Q 34.1875 6.109375 38.703125 11.40625 
Q 43.21875 16.703125 43.21875 25.484375 
L 43.21875 27.484375 
z
M 52.203125 31.203125 
L 52.203125 0 
L 43.21875 0 
L 43.21875 8.296875 
Q 40.140625 3.328125 35.546875 0.953125 
Q 30.953125 -1.421875 24.3125 -1.421875 
Q 15.921875 -1.421875 10.953125 3.296875 
Q 6 8.015625 6 15.921875 
Q 6 25.140625 12.171875 29.828125 
Q 18.359375 34.515625 30.609375 34.515625 
L 43.21875 34.515625 
L 43.21875 35.40625 
Q 43.21875 41.609375 39.140625 45 
Q 35.0625 48.390625 27.6875 48.390625 
Q 23 48.390625 18.546875 47.265625 
Q 14.109375 46.140625 10.015625 43.890625 
L 10.015625 52.203125 
Q 14.9375 54.109375 19.578125 55.046875 
Q 24.21875 56 28.609375 56 
Q 40.484375 56 46.34375 49.84375 
Q 52.203125 43.703125 52.203125 31.203125 
z
" id="DejaVuSans-97"/>
     <path d="M 9.421875 54.6875 
L 18.40625 54.6875 
L 18.40625 0 
L 9.421875 0 
z
M 9.421875 75.984375 
L 18.40625 75.984375 
L 18.40625 64.59375 
L 9.421875 64.59375 
z
" id="DejaVuSans-105"/>
     <path d="M 10.6875 12.40625 
L 21 12.40625 
L 21 0 
L 10.6875 0 
z
" id="DejaVuSans-46"/>
    </defs>
    <g transform="translate(55.550625 35.472)scale(0.12 -0.12)">
     <use xlink:href="#DejaVuSans-40"/>
     <use x="39.013672" xlink:href="#DejaVuSans-50"/>
     <use x="102.636719" xlink:href="#DejaVuSans-53"/>
     <use x="166.259766" xlink:href="#DejaVuSans-41"/>
     <use x="205.273438" xlink:href="#DejaVuSans-32"/>
     <use x="237.060547" xlink:href="#DejaVuSans-83"/>
     <use x="300.537109" xlink:href="#DejaVuSans-117"/>
     <use x="363.916016" xlink:href="#DejaVuSans-98"/>
     <use x="427.392578" xlink:href="#DejaVuSans-106"/>
     <use x="455.175781" xlink:href="#DejaVuSans-101"/>
     <use x="516.699219" xlink:href="#DejaVuSans-99"/>
     <use x="571.679688" xlink:href="#DejaVuSans-116"/>
     <use x="610.888672" xlink:href="#DejaVuSans-58"/>
     <use x="644.580078" xlink:href="#DejaVuSans-32"/>
     <use x="676.367188" xlink:href="#DejaVuSans-115"/>
     <use x="728.466797" xlink:href="#DejaVuSans-55"/>
     <use x="792.089844" xlink:href="#DejaVuSans-44"/>
     <use x="823.876953" xlink:href="#DejaVuSans-32"/>
     <use x="855.664062" xlink:href="#DejaVuSans-75"/>
     <use x="921.240234" xlink:href="#DejaVuSans-110"/>
     <use x="984.619141" xlink:href="#DejaVuSans-111"/>
     <use x="1045.800781" xlink:href="#DejaVuSans-119"/>
     <use x="1127.587891" xlink:href="#DejaVuSans-110"/>
     <use x="1190.966797" xlink:href="#DejaVuSans-32"/>
     <use x="1222.753906" xlink:href="#DejaVuSans-61"/>
     <use x="1306.542969" xlink:href="#DejaVuSans-32"/>
     <use x="1338.330078" xlink:href="#DejaVuSans-84"/>
     <use x="1399.195312" xlink:href="#DejaVuSans-114"/>
     <use x="1440.308594" xlink:href="#DejaVuSans-117"/>
     <use x="1503.6875" xlink:href="#DejaVuSans-101"/>
     <use x="1565.210938" xlink:href="#DejaVuSans-44"/>
     <use x="1596.998047" xlink:href="#DejaVuSans-32"/>
     <use x="1628.785156" xlink:href="#DejaVuSans-68"/>
     <use x="1705.787109" xlink:href="#DejaVuSans-101"/>
     <use x="1767.310547" xlink:href="#DejaVuSans-103"/>
     <use x="1830.787109" xlink:href="#DejaVuSans-114"/>
     <use x="1871.869141" xlink:href="#DejaVuSans-101"/>
     <use x="1933.392578" xlink:href="#DejaVuSans-101"/>
     <use x="1994.916016" xlink:href="#DejaVuSans-32"/>
     <use x="2026.703125" xlink:href="#DejaVuSans-61"/>
     <use x="2110.492188" xlink:href="#DejaVuSans-32"/>
     <use x="2142.279297" xlink:href="#DejaVuSans-49"/>
     <use x="2205.902344" xlink:href="#DejaVuSans-44"/>
     <use x="2237.689453" xlink:href="#DejaVuSans-32"/>
     <use x="2269.476562" xlink:href="#DejaVuSans-68"/>
     <use x="2346.478516" xlink:href="#DejaVuSans-117"/>
     <use x="2409.857422" xlink:href="#DejaVuSans-114"/>
     <use x="2450.970703" xlink:href="#DejaVuSans-97"/>
     <use x="2512.25" xlink:href="#DejaVuSans-116"/>
     <use x="2551.458984" xlink:href="#DejaVuSans-105"/>
     <use x="2579.242188" xlink:href="#DejaVuSans-111"/>
     <use x="2640.423828" xlink:href="#DejaVuSans-110"/>
     <use x="2703.802734" xlink:href="#DejaVuSans-32"/>
     <use x="2735.589844" xlink:href="#DejaVuSans-61"/>
     <use x="2819.378906" xlink:href="#DejaVuSans-32"/>
     <use x="2851.166016" xlink:href="#DejaVuSans-48"/>
     <use x="2914.789062" xlink:href="#DejaVuSans-46"/>
     <use x="2946.576172" xlink:href="#DejaVuSans-49"/>
    </g>
   </g>
  </g>
 </g>
 <defs>
  <clipPath id="pd48e36c8e5">
   <rect height="266.112" width="357.12" x="57.6" y="41.472"/>
  </clipPath>
 </defs>
</svg>
