<?xml version="1.0" encoding="utf-8" standalone="no"?>
<!DOCTYPE svg PUBLIC "-//W3C//DTD SVG 1.1//EN"
  "http://www.w3.org/Graphics/SVG/1.1/DTD/svg11.dtd">
<!-- Created with matplotlib (https://matplotlib.org/) -->
<svg height="345.6pt" version="1.1" viewBox="0 0 460.8 345.6" width="460.8pt" xmlns="http://www.w3.org/2000/svg" xmlns:xlink="http://www.w3.org/1999/xlink">
 <defs>
  <style type="text/css">
*{stroke-linecap:butt;stroke-linejoin:round;}
  </style>
 </defs>
 <g id="figure_1">
  <g id="patch_1">
   <path d="M 0 345.6 
L 460.8 345.6 
L 460.8 0 
L 0 0 
z
" style="fill:#ffffff;"/>
  </g>
  <g id="axes_1">
   <g id="patch_2">
    <path d="M 57.6 307.584 
L 414.72 307.584 
L 414.72 41.472 
L 57.6 41.472 
z
" style="fill:#ffffff;"/>
   </g>
   <g id="line2d_1">
    <path clip-path="url(#pc1c2178a22)" d="M 397.69441 288.163982 
L 397.69441 288.528719 
L 397.852375 289.078077 
L 398.168305 289.078077 
L 398.487273 288.713339 
L 398.487273 288.528719 
L 398.168305 288.528719 
L 397.852375 288.34635 
L 397.533407 287.979362 
L 397.533407 288.163982 
L 397.852375 288.528719 
L 398.329308 288.713339 
L 398.487273 288.528719 
L 398.329308 288.528719 
L 398.01034 289.078077 
L 397.852375 289.078077 
L 397.852375 288.34635 
L 398.168305 287.979362 
L 398.329308 288.163982 
L 398.329308 288.528719 
L 398.01034 289.627435 
L 398.168305 288.713339 
L 398.01034 288.528719 
L 397.375442 288.895708 
L 397.533407 288.895708 
L 397.852375 288.34635 
L 398.329308 288.528719 
L 398.487273 288.895708 
L 398.329308 288.895708 
L 398.329308 289.078077 
L 398.168305 289.445066 
L 398.01034 289.445066 
L 397.852375 288.895708 
L 397.69441 289.078077 
L 397.69441 289.445066 
L 397.852375 290.361412 
L 397.69441 290.361412 
L 397.852375 290.176792 
L 397.852375 289.812055 
L 397.852375 290.543781 
L 397.852375 290.543781 
L 398.168305 290.176792 
L 398.329308 289.445066 
L 398.01034 289.262697 
L 397.533407 289.445066 
L 397.375442 289.812055 
L 397.375442 289.627435 
L 397.217477 289.262697 
L 397.217477 289.262697 
L 397.533407 289.445066 
L 397.69441 289.812055 
L 397.69441 290.361412 
L 397.533407 290.72615 
L 397.69441 290.543781 
L 397.852375 290.543781 
L 397.533407 290.361412 
L 397.059512 290.543781 
L 396.901547 290.72615 
L 397.059512 290.72615 
L 397.059512 290.72615 
L 397.217477 290.91077 
L 397.059512 291.093139 
L 397.217477 291.275507 
L 397.69441 291.460128 
L 397.852375 291.642496 
L 397.69441 291.275507 
L 397.533407 289.812055 
L 397.533407 290.91077 
L 397.375442 291.824865 
L 397.375442 291.824865 
L 397.533407 292.009485 
L 397.375442 292.009485 
L 397.059512 291.642496 
L 396.740544 291.460128 
L 396.740544 291.642496 
L 397.059512 292.191854 
L 397.217477 292.741212 
L 397.217477 293.290569 
L 396.901547 293.290569 
L 396.901547 293.108201 
L 397.059512 293.290569 
L 397.059512 293.290569 
L 397.059512 293.108201 
L 396.901547 293.290569 
L 396.901547 293.290569 
L 396.901547 293.108201 
L 397.059512 293.290569 
L 396.901547 293.472938 
L 396.582579 293.472938 
L 396.266649 293.290569 
L 396.266649 292.92358 
L 396.266649 293.108201 
L 396.105646 293.657558 
L 396.266649 294.206916 
L 396.740544 294.571653 
L 397.217477 294.571653 
L 397.375442 294.389285 
L 397.375442 294.206916 
L 397.375442 294.206916 
L 397.059512 294.022296 
L 397.059512 294.206916 
L 397.217477 294.206916 
L 397.533407 294.389285 
L 397.69441 294.756274 
L 397.375442 294.756274 
L 397.375442 294.756274 
L 398.01034 294.389285 
L 398.329308 294.022296 
L 398.01034 294.022296 
L 396.901547 294.206916 
L 396.740544 294.022296 
L 397.059512 294.022296 
L 397.217477 294.206916 
L 397.375442 294.571653 
L 397.69441 294.571653 
L 397.217477 293.290569 
L 396.901547 292.92358 
L 396.582579 292.741212 
L 396.582579 293.839927 
L 396.740544 293.657558 
L 396.901547 293.657558 
L 396.901547 293.472938 
L 396.266649 293.839927 
L 396.901547 294.571653 
L 396.901547 294.756274 
L 396.740544 294.938642 
L 396.901547 295.305631 
L 397.059512 295.121011 
L 397.217477 294.571653 
L 397.059512 294.206916 
L 396.740544 294.206916 
L 396.901547 294.389285 
L 397.217477 294.571653 
L 397.059512 294.389285 
L 396.901547 294.206916 
L 396.740544 294.389285 
L 397.059512 294.756274 
L 397.059512 294.938642 
L 396.582579 294.938642 
L 397.217477 294.206916 
L 397.217477 294.938642 
L 397.375442 294.756274 
L 397.375442 294.389285 
L 397.059512 293.290569 
L 397.217477 293.472938 
L 397.217477 293.108201 
L 397.375442 293.108201 
L 397.69441 294.571653 
L 397.69441 294.022296 
L 397.852375 292.92358 
L 397.533407 292.741212 
L 396.740544 293.108201 
L 396.740544 294.022296 
L 396.582579 294.389285 
L 396.266649 294.022296 
L 396.105646 293.472938 
L 396.105646 293.472938 
L 396.582579 293.839927 
L 396.424614 293.472938 
L 396.105646 293.657558 
L 395.789716 294.022296 
L 395.789716 294.389285 
L 396.105646 294.756274 
L 396.424614 294.938642 
L 396.582579 295.305631 
L 396.901547 295.488 
L 397.059512 295.305631 
L 397.059512 294.756274 
L 396.901547 294.206916 
L 397.059512 294.022296 
L 397.059512 294.022296 
L 396.740544 295.121011 
L 396.424614 294.938642 
L 396.266649 294.389285 
L 395.312784 293.839927 
L 393.727058 293.472938 
L 391.822364 292.741212 
L 389.443776 291.460128 
L 386.111322 289.994423 
L 372.62354 285.599562 
L 367.067425 283.402132 
L 360.87945 280.655343 
L 354.375544 277.356946 
L 347.868601 273.878431 
L 341.045728 269.848307 
L 333.745922 266.002804 
L 318.988345 258.494165 
L 311.530573 254.648662 
L 297.249929 246.957655 
L 283.604183 238.167932 
L 276.623344 234.320177 
L 269.800471 230.841663 
L 263.135563 227.727885 
L 256.470655 224.798728 
L 242.982873 218.206436 
L 236.478968 214.72567 
L 230.606922 211.247156 
L 224.892842 207.584021 
L 219.181799 203.738517 
L 214.105655 199.890762 
L 209.819335 196.412248 
L 205.851983 192.933733 
L 201.884631 189.635336 
L 197.920317 186.706179 
L 194.42686 183.95939 
L 191.571339 181.212602 
L 186.653159 175.534405 
L 183.955603 172.969986 
L 178.402525 168.392756 
L 175.862934 166.377694 
L 173.64231 165.278979 
L 171.895582 163.997894 
L 168.563128 160.517128 
L 166.819437 159.053676 
L 165.072708 158.137329 
L 164.121881 157.220982 
L 163.644948 156.122267 
L 163.960878 154.656563 
L 164.279846 154.474194 
L 164.756778 154.656563 
L 165.230673 155.205921 
L 166.658434 157.220982 
L 167.6123 157.95496 
L 168.72413 158.504318 
L 169.832923 159.603033 
L 169.832923 159.418413 
L 169.674958 159.603033 
L 169.516993 159.967771 
L 169.516993 160.517128 
L 169.35599 161.251106 
L 168.882095 161.800464 
L 168.72413 162.165201 
L 168.72413 162.165201 
L 168.405163 161.982833 
L 168.089233 161.615844 
L 167.6123 161.251106 
L 166.977402 161.066486 
L 166.342504 161.066486 
L 167.454335 160.701749 
L 167.454335 160.517128 
L 167.135367 160.517128 
L 166.977402 160.701749 
L 167.135367 160.884117 
L 167.454335 160.884117 
L 167.770265 160.701749 
L 168.089233 160.701749 
L 168.882095 160.884117 
L 169.990888 160.884117 
L 170.467821 160.517128 
L 170.309856 160.152391 
L 170.309856 160.152391 
L 170.625786 159.967771 
L 170.944754 159.967771 
L 171.102719 160.33476 
L 171.737617 160.884117 
L 171.895582 160.701749 
L 172.21455 160.701749 
L 172.372515 161.066486 
L 172.21455 161.251106 
L 172.21455 161.066486 
L 172.53048 161.066486 
L 172.53048 161.066486 
L 172.53048 160.701749 
L 172.372515 160.33476 
L 173.007412 161.982833 
L 172.849447 161.615844 
L 173.165377 161.066486 
L 173.64231 160.884117 
L 173.800275 161.066486 
L 173.165377 161.251106 
L 172.688445 161.251106 
L 172.849447 161.251106 
L 173.165377 161.066486 
L 173.165377 160.517128 
L 173.165377 161.433475 
L 173.165377 160.884117 
L 173.007412 160.517128 
L 173.165377 160.701749 
L 173.95824 161.066486 
L 174.435173 161.066486 
L 174.435173 161.066486 
L 174.435173 160.884117 
L 174.435173 161.066486 
L 174.593138 161.066486 
L 174.593138 160.884117 
L 174.435173 160.884117 
L 174.116205 161.251106 
L 174.116205 161.615844 
L 174.435173 161.615844 
L 174.912106 161.982833 
L 175.070071 162.349821 
L 175.070071 162.349821 
L 174.751103 161.251106 
L 174.435173 161.066486 
L 174.277208 161.433475 
L 174.435173 161.615844 
L 175.070071 161.615844 
L 174.593138 161.615844 
L 174.277208 161.800464 
L 174.435173 162.165201 
L 174.435173 162.165201 
L 174.912106 161.800464 
L 174.751103 161.800464 
L 174.751103 161.982833 
L 174.751103 161.982833 
L 175.386001 161.982833 
L 175.862934 162.165201 
L 176.181901 162.165201 
L 176.181901 162.165201 
L 175.862934 162.349821 
L 175.547004 162.714559 
L 175.547004 162.53219 
L 175.862934 162.349821 
L 175.704969 161.982833 
L 175.228036 161.982833 
L 175.547004 162.349821 
L 176.020899 162.714559 
L 175.862934 163.081548 
L 175.547004 163.448537 
L 175.386001 163.448537 
L 175.386001 163.081548 
L 175.547004 162.53219 
L 175.704969 162.53219 
L 175.386001 163.263917 
L 175.547004 163.630906 
L 175.862934 163.997894 
L 176.181901 163.997894 
L 176.181901 163.813274 
L 175.862934 163.263917 
L 175.547004 163.081548 
L 175.547004 163.081548 
L 175.704969 163.448537 
L 176.020899 163.630906 
L 176.181901 163.997894 
L 175.862934 164.362632 
L 176.020899 164.180263 
L 176.339866 164.180263 
L 176.339866 163.081548 
L 176.181901 163.263917 
L 176.020899 163.630906 
L 175.862934 163.263917 
L 176.020899 162.899179 
L 176.020899 162.899179 
L 176.181901 163.263917 
L 176.497831 163.448537 
L 176.655797 163.081548 
L 176.497831 162.714559 
L 176.339866 162.714559 
L 176.339866 162.53219 
L 176.181901 162.899179 
L 176.497831 163.448537 
L 177.448659 163.813274 
L 178.083557 163.813274 
L 177.925592 163.263917 
L 177.609662 163.081548 
L 177.448659 163.263917 
L 177.132729 163.263917 
L 176.813762 162.899179 
L 176.974764 163.081548 
L 177.448659 163.448537 
L 177.767627 163.448537 
L 177.448659 163.448537 
L 177.609662 163.081548 
L 177.925592 163.081548 
L 177.925592 163.448537 
L 177.767627 163.263917 
L 177.609662 163.263917 
L 177.609662 163.630906 
L 177.767627 164.180263 
L 178.083557 163.813274 
L 178.083557 162.899179 
L 177.767627 162.165201 
L 177.925592 162.349821 
L 178.718455 162.349821 
L 178.879458 162.899179 
L 178.718455 163.630906 
L 178.718455 163.630906 
L 178.718455 163.081548 
L 178.879458 162.53219 
L 178.879458 162.53219 
L 178.718455 162.53219 
L 178.718455 162.53219 
L 179.037423 162.899179 
L 179.353353 162.53219 
L 179.672321 162.349821 
L 179.511318 162.53219 
L 179.195388 163.081548 
L 179.353353 163.263917 
L 180.307218 163.263917 
L 179.672321 163.263917 
L 179.830286 162.899179 
L 179.830286 162.53219 
L 179.988251 162.165201 
L 180.146216 162.165201 
L 179.672321 162.165201 
L 179.353353 161.615844 
L 178.56049 160.517128 
L 177.448659 159.236044 
L 176.813762 157.95496 
L 176.020899 155.939898 
L 174.751103 153.557848 
L 171.260684 149.162986 
L 169.674958 146.416198 
L 167.92823 143.120052 
L 166.026574 139.823906 
L 163.802913 136.34314 
L 161.424324 132.132899 
L 156.822075 122.791567 
L 154.282483 118.763695 
L 151.903895 114.733571 
L 150.157166 110.33871 
L 148.094508 105.943849 
L 145.873884 101.731356 
L 143.969191 97.703484 
L 142.699395 93.855729 
L 142.064497 90.377214 
L 141.748567 87.263437 
L 141.271635 84.516649 
L 141.11367 82.13685 
L 141.587565 80.304156 
L 142.222462 78.656083 
L 142.85736 75.726926 
L 143.811226 74.992949 
L 144.920019 74.443591 
L 146.508782 73.344876 
L 147.301645 72.980138 
L 149.206339 73.894233 
L 149.206339 75.177569 
L 149.364304 76.276284 
L 148.729406 77.924357 
L 148.729406 79.390061 
L 148.887371 80.121788 
L 149.206339 80.671145 
L 149.206339 81.220503 
L 148.729406 81.952229 
L 147.778578 82.501587 
L 146.824712 82.501587 
L 146.666747 81.952229 
L 146.824712 81.587492 
L 147.301645 81.587492 
L 147.45961 81.769861 
L 147.45961 81.952229 
L 147.617575 81.769861 
L 148.094508 81.038134 
L 148.094508 80.488777 
L 147.617575 79.939419 
L 147.936543 79.939419 
L 149.045336 80.671145 
L 149.206339 80.488777 
L 149.206339 80.488777 
L 149.364304 80.671145 
L 149.364304 80.853514 
L 149.680234 81.220503 
L 149.680234 81.220503 
L 149.364304 80.488777 
L 149.680234 80.488777 
L 150.634099 81.220503 
L 150.634099 81.587492 
L 150.792064 81.952229 
L 150.950029 81.952229 
L 150.476134 81.769861 
L 150.792064 81.769861 
L 150.950029 81.769861 
L 150.476134 81.769861 
L 150.476134 81.587492 
L 150.476134 81.769861 
L 150.792064 81.402872 
L 150.634099 81.220503 
L 150.315131 81.220503 
L 150.476134 81.402872 
L 150.634099 81.952229 
L 150.950029 82.319218 
L 151.107994 82.319218 
L 151.268997 82.501587 
L 152.06186 82.868576 
L 152.06186 82.868576 
L 151.903895 82.319218 
L 152.219825 82.501587 
L 152.538793 83.050945 
L 152.219825 83.050945 
L 152.219825 82.868576 
L 152.37779 82.686207 
L 152.538793 82.868576 
L 152.37779 83.050945 
L 152.06186 82.868576 
L 151.584927 82.868576 
L 152.06186 83.784922 
L 153.012688 84.14966 
L 153.48962 83.600302 
L 153.331655 83.600302 
L 153.012688 83.784922 
L 152.696758 84.14966 
L 152.854723 83.967291 
L 152.538793 83.600302 
L 152.538793 84.33428 
L 152.696758 84.699018 
L 152.538793 84.699018 
L 152.538793 84.516649 
L 153.647585 84.516649 
L 153.48962 84.516649 
L 153.17369 84.699018 
L 154.124518 85.432995 
L 154.440448 85.432995 
L 154.440448 85.066007 
L 154.124518 85.066007 
L 154.124518 84.699018 
L 154.440448 84.699018 
L 154.124518 85.615364 
L 154.282483 85.615364 
L 154.282483 85.615364 
L 154.440448 85.797733 
L 154.759416 85.797733 
L 154.759416 85.432995 
L 154.440448 85.432995 
L 154.124518 85.797733 
L 154.124518 85.982353 
L 154.124518 85.797733 
L 154.440448 85.797733 
L 154.601451 85.982353 
L 154.601451 86.164722 
L 153.80555 86.164722 
L 153.966553 85.797733 
L 154.917381 85.615364 
L 154.601451 85.982353 
L 154.440448 86.347091 
L 154.759416 86.531711 
L 154.759416 86.347091 
L 154.917381 86.164722 
L 154.759416 86.164722 
L 154.601451 86.347091 
L 154.440448 86.347091 
L 154.601451 86.164722 
L 154.759416 86.347091 
L 155.075346 86.896448 
L 155.394314 87.630426 
L 155.394314 87.263437 
L 155.236349 87.448057 
L 155.075346 87.812795 
L 154.759416 87.448057 
L 154.917381 86.531711 
L 155.236349 86.531711 
L 155.236349 87.448057 
L 155.394314 87.630426 
L 155.236349 87.630426 
L 154.917381 87.448057 
L 154.917381 87.630426 
L 154.759416 87.812795 
L 154.759416 87.997415 
L 154.917381 87.812795 
L 155.394314 88.179784 
L 155.552279 88.362152 
L 155.552279 88.362152 
L 155.552279 87.997415 
L 155.394314 87.997415 
L 155.075346 88.362152 
L 154.917381 88.179784 
L 154.759416 88.179784 
L 154.759416 88.546773 
L 154.601451 88.91151 
L 154.759416 89.278499 
L 154.759416 89.645488 
L 154.601451 89.645488 
L 154.440448 89.460868 
L 154.440448 89.460868 
L 154.282483 89.827857 
L 154.440448 90.194846 
L 155.075346 90.194846 
L 155.075346 90.010225 
L 154.601451 89.645488 
L 154.601451 89.460868 
L 154.440448 89.645488 
L 154.282483 89.645488 
L 154.124518 89.460868 
L 154.601451 90.010225 
L 154.759416 90.559583 
L 154.759416 90.377214 
L 154.759416 90.010225 
L 154.917381 90.010225 
L 155.075346 89.827857 
L 155.075346 89.827857 
L 154.601451 90.194846 
L 153.80555 91.108941 
L 153.647585 91.108941 
L 153.80555 91.47593 
L 154.124518 91.658298 
L 154.440448 91.108941 
L 154.601451 90.377214 
L 154.282483 89.827857 
L 153.80555 89.645488 
L 153.48962 90.010225 
L 153.647585 90.926572 
L 154.124518 91.47593 
L 154.601451 91.658298 
L 155.236349 92.207656 
L 154.917381 91.842919 
L 154.601451 91.293561 
L 154.759416 90.926572 
L 154.440448 90.926572 
L 154.282483 91.108941 
L 154.440448 91.108941 
L 155.236349 91.47593 
L 155.236349 91.293561 
L 155.075346 91.293561 
L 154.917381 91.47593 
L 154.917381 91.842919 
L 154.601451 91.842919 
L 153.647585 91.47593 
L 154.440448 91.47593 
L 154.759416 92.025287 
L 154.759416 92.574645 
L 154.601451 92.941634 
L 154.601451 92.941634 
L 154.440448 92.574645 
L 154.440448 92.025287 
L 154.282483 92.025287 
L 154.124518 92.941634 
L 154.282483 92.941634 
L 154.601451 92.757014 
L 154.601451 92.757014 
L 154.282483 93.490992 
L 154.124518 93.306371 
L 153.966553 92.941634 
L 153.647585 93.124003 
L 153.80555 93.306371 
L 154.440448 93.306371 
L 155.075346 93.490992 
L 155.552279 94.405087 
L 154.759416 92.941634 
L 154.759416 92.207656 
L 154.601451 92.392276 
L 154.759416 92.757014 
L 154.759416 93.67336 
L 154.601451 93.855729 
L 154.440448 93.490992 
L 154.759416 93.306371 
L 155.236349 93.306371 
L 155.236349 93.306371 
L 155.075346 92.941634 
L 154.917381 92.941634 
L 154.601451 93.855729 
L 154.759416 93.490992 
L 154.440448 93.490992 
L 154.440448 93.67336 
L 154.917381 93.67336 
L 155.394314 93.855729 
L 155.236349 94.222718 
L 154.440448 94.222718 
L 154.601451 94.222718 
L 155.552279 94.954444 
L 155.710244 94.772076 
L 155.710244 94.405087 
L 155.552279 94.222718 
L 155.075346 94.405087 
L 154.917381 95.139064 
L 155.236349 95.503802 
L 155.552279 95.503802 
L 155.871247 95.321433 
L 155.871247 95.321433 
L 155.710244 94.772076 
L 155.394314 94.222718 
L 155.075346 94.222718 
L 155.394314 94.772076 
L 155.710244 94.772076 
L 155.871247 94.589707 
L 155.552279 94.589707 
L 155.394314 94.772076 
L 155.394314 94.954444 
L 155.552279 94.954444 
L 155.552279 94.954444 
L 155.075346 95.139064 
L 155.236349 95.139064 
L 155.394314 95.139064 
L 155.710244 95.321433 
L 156.345142 95.870791 
L 156.503107 96.23778 
L 156.187177 96.23778 
L 155.394314 95.870791 
L 155.075346 95.321433 
L 154.917381 95.321433 
L 155.394314 95.503802 
L 155.871247 95.870791 
L 156.345142 95.688422 
L 156.503107 95.321433 
L 156.503107 95.503802 
L 156.345142 96.055411 
L 156.503107 96.420149 
L 156.66411 96.055411 
L 156.345142 95.503802 
L 155.871247 95.321433 
L 153.647585 96.055411 
L 152.37779 95.688422 
L 151.107994 95.139064 
L 148.887371 95.139064 
L 148.094508 95.503802 
L 147.778578 95.870791 
L 147.45961 96.604769 
L 144.604089 98.984568 
L 143.811226 99.166937 
L 143.176328 99.533926 
L 142.85736 100.083283 
L 142.064497 100.632641 
L 138.890008 102.098345 
L 137.781216 102.463083 
L 136.669385 102.647703 
L 135.718557 102.647703 
L 134.925694 102.463083 
L 134.129794 102.098345 
L 133.494896 102.647703 
L 132.702033 103.561798 
L 131.751205 104.478145 
L 131.116307 105.394491 
L 130.958342 106.310838 
L 130.639374 106.860195 
L 130.165479 107.042564 
L 130.323444 107.224933 
L 130.323444 108.141279 
L 130.165479 109.057626 
L 130.323444 110.33871 
L 130.797339 111.619794 
L 131.432237 111.986783 
L 131.751205 111.804414 
L 132.067135 111.986783 
L 132.386103 112.536141 
L 132.386103 114.551203 
L 132.702033 114.184214 
L 133.021001 113.634856 
L 133.494896 113.634856 
L 133.655899 114.733571 
L 133.336931 114.551203 
L 132.863036 114.001845 
L 132.067135 114.184214 
L 131.751205 114.733571 
L 132.544068 116.016907 
L 132.544068 115.832287 
L 132.702033 115.467549 
L 132.702033 117.115622 
L 132.544068 117.297991 
L 132.067135 116.748633 
L 131.90917 116.381644 
L 131.751205 116.566264 
L 131.90917 117.115622 
L 132.702033 117.115622 
L 132.544068 117.48036 
L 132.702033 118.029717 
L 133.178966 118.396706 
L 133.494896 118.214337 
L 133.494896 117.66498 
L 133.336931 118.029717 
L 133.336931 118.396706 
L 133.971829 119.128433 
L 133.178966 119.495421 
L 133.494896 119.67779 
L 133.813864 119.313053 
L 133.813864 118.579075 
L 133.655899 118.579075 
L 133.021001 119.313053 
L 133.178966 119.495421 
L 133.178966 119.495421 
L 133.336931 119.495421 
L 133.813864 119.67779 
L 134.448761 119.67779 
L 134.290796 119.313053 
L 133.494896 118.946064 
L 133.178966 119.128433 
L 133.178966 119.86241 
L 133.336931 120.594137 
L 133.494896 120.776506 
L 133.813864 120.776506 
L 133.971829 120.594137 
L 134.290796 120.411768 
L 134.290796 119.86241 
L 133.813864 119.67779 
L 133.336931 119.86241 
L 133.336931 120.411768 
L 133.655899 120.594137 
L 134.290796 120.044779 
L 134.129794 120.411768 
L 133.971829 121.692852 
L 133.971829 121.325863 
L 133.813864 120.961126 
L 133.494896 120.776506 
L 133.336931 120.961126 
L 133.655899 120.961126 
L 133.813864 121.143494 
L 133.813864 121.325863 
L 134.129794 121.692852 
L 133.971829 121.510483 
L 133.021001 121.143494 
L 132.863036 120.594137 
L 133.021001 120.594137 
L 133.336931 121.143494 
L 133.655899 122.059841 
L 134.129794 122.42683 
L 134.129794 122.24221 
L 133.971829 122.059841 
L 133.813864 121.692852 
L 133.971829 121.692852 
L 134.129794 122.24221 
L 133.971829 122.609199 
L 133.494896 122.42683 
L 133.655899 122.42683 
L 134.129794 122.24221 
L 134.448761 121.875221 
L 134.129794 121.510483 
L 133.813864 121.510483 
L 133.655899 121.692852 
L 133.494896 121.325863 
L 133.655899 121.143494 
L 134.129794 120.961126 
L 134.448761 121.325863 
L 134.606726 122.059841 
L 134.448761 122.42683 
L 133.971829 122.42683 
L 133.971829 122.42683 
L 133.813864 122.24221 
L 133.655899 122.42683 
L 133.494896 122.42683 
L 133.494896 122.24221 
L 133.336931 122.24221 
L 133.178966 122.059841 
L 133.021001 122.059841 
L 133.178966 122.42683 
L 133.655899 122.976188 
L 133.971829 122.791567 
L 134.129794 122.059841 
L 133.971829 121.875221 
L 133.971829 122.24221 
L 134.290796 123.158556 
L 134.290796 123.158556 
L 133.336931 122.609199 
L 133.494896 122.42683 
L 133.655899 122.42683 
L 133.494896 122.609199 
L 133.178966 122.24221 
L 133.178966 122.609199 
L 133.494896 123.158556 
L 133.336931 123.340925 
L 133.336931 123.890283 
L 133.494896 123.890283 
L 133.494896 123.525545 
L 133.178966 122.791567 
L 133.178966 122.791567 
L 134.290796 122.42683 
L 133.971829 122.791567 
L 133.494896 123.158556 
L 133.178966 123.158556 
L 133.021001 123.340925 
L 132.544068 123.525545 
L 132.544068 123.707914 
L 133.336931 124.074903 
L 133.655899 123.890283 
L 133.655899 123.525545 
L 133.178966 123.158556 
L 132.702033 123.340925 
L 132.544068 123.525545 
L 133.021001 123.890283 
L 133.494896 124.43964 
L 133.655899 124.43964 
L 133.336931 123.890283 
L 132.863036 123.525545 
L 132.544068 123.525545 
L 132.544068 123.340925 
L 132.702033 123.340925 
L 132.702033 123.525545 
L 133.494896 123.525545 
L 133.971829 124.074903 
L 132.544068 123.340925 
L 132.067135 123.525545 
L 132.067135 123.707914 
L 133.178966 124.257272 
L 133.655899 124.074903 
L 133.655899 124.257272 
L 133.336931 124.074903 
L 132.863036 123.340925 
L 133.021001 123.525545 
L 133.494896 123.707914 
L 133.655899 123.890283 
L 133.494896 124.074903 
L 133.494896 124.43964 
L 133.655899 124.624261 
L 133.971829 124.257272 
L 133.971829 123.890283 
L 133.021001 123.890283 
L 133.021001 124.074903 
L 133.494896 123.890283 
L 133.655899 123.707914 
L 133.494896 123.707914 
L 133.813864 124.43964 
L 133.655899 124.806629 
L 133.021001 124.806629 
L 131.751205 124.074903 
L 133.178966 124.074903 
L 133.655899 124.43964 
L 133.494896 124.43964 
L 133.178966 124.257272 
L 132.544068 124.257272 
L 132.067135 124.43964 
L 132.228138 124.43964 
L 132.544068 124.43964 
L 132.544068 124.257272 
L 131.90917 123.890283 
L 132.067135 123.707914 
L 132.544068 123.707914 
L 132.863036 124.257272 
L 132.702033 124.257272 
L 132.702033 124.074903 
L 132.863036 124.074903 
L 132.863036 124.074903 
L 132.863036 124.43964 
L 133.021001 124.624261 
L 133.178966 124.624261 
L 133.178966 123.707914 
L 133.178966 123.707914 
L 133.336931 123.890283 
L 133.336931 124.074903 
L 133.021001 123.890283 
L 133.021001 123.707914 
L 133.021001 124.074903 
L 132.702033 124.624261 
L 132.067135 124.257272 
L 132.067135 123.890283 
L 132.386103 124.074903 
L 133.021001 124.806629 
L 133.021001 124.624261 
L 132.544068 124.43964 
L 132.228138 124.624261 
L 132.228138 124.806629 
L 132.386103 124.43964 
L 132.702033 124.074903 
L 132.702033 123.890283 
L 132.702033 123.890283 
L 132.863036 124.074903 
L 132.863036 124.257272 
L 132.702033 124.43964 
L 132.386103 124.43964 
L 132.386103 124.257272 
L 132.702033 124.074903 
L 133.021001 124.074903 
L 132.863036 124.074903 
L 132.386103 124.43964 
L 132.702033 124.074903 
L 132.386103 123.707914 
L 132.228138 123.707914 
L 133.494896 124.43964 
L 134.290796 124.43964 
L 134.290796 124.624261 
L 133.971829 124.074903 
L 133.813864 123.525545 
L 134.129794 123.525545 
L 134.448761 123.890283 
L 134.448761 124.257272 
L 133.655899 124.624261 
L 133.655899 124.988998 
L 133.813864 124.988998 
L 133.813864 124.43964 
L 133.494896 123.890283 
L 132.544068 122.791567 
L 131.751205 122.609199 
L 130.323444 122.791567 
L 128.734681 122.791567 
L 127.30692 122.24221 
L 125.721195 121.143494 
L 123.339568 120.044779 
L 120.484047 119.128433 
L 114.93097 116.931002 
L 112.233413 115.649918 
L 109.693822 115.10056 
L 103.028914 114.551203 
L 100.173392 114.001845 
L 99.0646 114.184214 
L 97.952769 114.551203 
L 95.571143 114.184214 
L 94.939283 114.551203 
L 94.46235 115.282929 
L 94.143382 116.199276 
L 93.669487 116.931002 
L 93.034589 117.66498 
L 91.129896 118.214337 
L 89.54417 119.67779 
L 86.846614 121.510483 
L 85.576818 121.875221 
L 83.195192 123.158556 
L 82.086399 123.525545 
L 79.862738 124.624261 
L 78.753945 125.355987 
L 77.958044 125.722976 
L 77.165181 125.905345 
L 74.467625 127.735786 
L 74.151695 128.652133 
L 74.151695 130.482575 
L 73.99373 130.849564 
L 73.832727 131.76591 
L 73.832727 132.497636 
L 74.30966 133.413983 
L 74.786593 133.963341 
L 75.260488 134.33033 
L 75.260488 134.33033 
L 75.260488 136.160771 
L 75.579456 136.160771 
L 75.579456 135.978403 
L 75.737421 136.34314 
L 75.737421 137.808844 
L 75.579456 138.540571 
L 75.737421 138.725191 
L 76.214354 138.725191 
L 76.849251 138.540571 
L 76.372319 138.540571 
L 75.737421 138.90756 
L 75.737421 139.456917 
L 76.214354 140.006275 
L 76.372319 140.006275 
L 76.214354 140.190895 
L 76.214354 140.190895 
L 76.214354 140.006275 
L 76.372319 139.641537 
L 76.849251 139.641537 
L 77.323146 139.823906 
L 77.323146 139.641537 
L 77.484149 139.274549 
L 77.800079 139.274549 
L 77.958044 139.641537 
L 77.958044 140.373264 
L 78.119047 140.922621 
L 78.434977 141.10499 
L 78.592942 140.740253 
L 78.753945 140.006275 
L 78.592942 139.274549 
L 79.069875 139.456917 
L 79.546808 139.823906 
L 79.704773 140.190895 
L 79.546808 140.373264 
L 79.388843 140.373264 
L 79.388843 140.006275 
L 79.704773 139.641537 
L 79.704773 139.456917 
L 79.546808 139.456917 
L 79.388843 139.089928 
L 79.069875 139.089928 
L 78.277012 139.641537 
L 78.277012 140.006275 
L 78.753945 140.190895 
L 79.22784 140.190895 
L 79.546808 139.823906 
L 79.388843 140.006275 
L 79.388843 139.823906 
L 79.546808 139.456917 
L 79.862738 139.456917 
L 79.862738 140.190895 
L 79.704773 140.555633 
L 79.704773 140.555633 
L 80.497636 140.006275 
L 80.020703 139.456917 
L 79.862738 139.089928 
L 79.862738 138.175833 
L 80.181705 138.358202 
L 80.181705 139.089928 
L 80.497636 140.190895 
L 80.816603 140.373264 
L 80.816603 139.823906 
L 80.497636 139.641537 
L 80.497636 139.823906 
L 80.497636 139.641537 
L 80.974568 138.90756 
L 81.132533 139.274549 
L 80.816603 139.274549 
L 80.497636 138.90756 
L 80.497636 139.089928 
L 80.655601 139.274549 
L 81.132533 139.641537 
L 80.974568 140.006275 
L 80.974568 140.373264 
L 81.132533 140.373264 
L 81.132533 140.190895 
L 80.655601 139.823906 
L 80.33967 139.089928 
L 80.33967 139.274549 
L 80.497636 139.274549 
L 80.974568 138.90756 
L 81.451501 138.725191 
L 81.451501 138.540571 
L 81.132533 138.540571 
L 80.974568 138.725191 
L 80.655601 139.456917 
L 81.290498 139.089928 
L 81.290498 138.90756 
L 81.290498 139.274549 
L 81.609466 139.456917 
L 81.767431 139.274549 
L 81.767431 139.089928 
L 81.132533 139.641537 
L 81.290498 139.823906 
L 81.290498 139.823906 
L 81.609466 139.823906 
L 81.925396 139.456917 
L 81.132533 138.540571 
L 81.132533 139.823906 
L 81.609466 139.456917 
L 82.086399 139.274549 
L 82.718259 139.641537 
L 82.086399 138.540571 
L 82.086399 138.90756 
L 81.767431 139.274549 
L 81.767431 139.274549 
L 81.925396 139.456917 
L 81.925396 139.641537 
L 82.086399 139.823906 
L 82.244364 139.456917 
L 82.560294 139.274549 
L 82.402329 139.456917 
L 81.609466 139.641537 
L 81.290498 139.274549 
L 81.609466 139.274549 
L 81.925396 139.823906 
L 82.086399 140.373264 
L 81.925396 139.456917 
L 81.767431 139.641537 
L 81.451501 140.373264 
L 81.609466 140.190895 
L 81.925396 139.641537 
L 82.244364 139.456917 
L 82.244364 139.456917 
L 82.402329 139.641537 
L 82.402329 139.456917 
L 82.244364 139.274549 
L 82.244364 139.456917 
L 82.560294 139.456917 
L 82.718259 139.641537 
L 82.402329 139.823906 
L 82.402329 140.006275 
L 82.560294 140.006275 
L 82.560294 140.006275 
L 82.086399 140.373264 
L 81.767431 140.740253 
L 81.451501 140.555633 
L 81.767431 140.740253 
L 81.767431 140.922621 
L 81.767431 140.922621 
L 82.086399 141.10499 
L 82.402329 141.471979 
L 81.767431 141.471979 
L 81.609466 141.28961 
L 82.086399 140.740253 
L 81.925396 140.373264 
L 81.925396 140.373264 
L 81.925396 140.922621 
L 82.086399 141.471979 
L 81.925396 141.28961 
L 81.609466 140.555633 
L 81.451501 140.555633 
L 81.451501 140.740253 
L 81.609466 140.740253 
L 82.086399 140.922621 
L 82.879262 141.838968 
L 82.879262 141.28961 
L 82.402329 141.838968 
L 82.244364 141.838968 
L 82.402329 141.654348 
L 82.718259 141.654348 
L 82.718259 141.654348 
L 82.560294 141.838968 
L 82.244364 141.838968 
L 82.086399 141.654348 
L 82.560294 141.10499 
L 82.402329 140.922621 
L 82.244364 141.10499 
L 82.244364 141.28961 
L 82.560294 141.654348 
L 82.879262 141.838968 
L 82.879262 141.838968 
L 82.879262 141.471979 
L 83.037227 141.10499 
L 83.51416 140.922621 
L 83.51416 141.10499 
L 83.037227 141.10499 
L 82.718259 140.922621 
L 82.560294 140.555633 
L 82.402329 140.740253 
L 82.244364 141.28961 
L 82.560294 141.28961 
L 82.879262 141.471979 
L 83.037227 141.838968 
L 82.879262 141.471979 
L 82.879262 141.10499 
L 83.353157 142.021337 
L 83.988055 142.021337 
L 84.464987 141.471979 
L 83.353157 141.471979 
L 83.195192 141.10499 
L 83.51416 141.28961 
L 84.149057 141.471979 
L 84.783955 141.838968 
L 84.783955 142.570694 
L 84.622952 142.753063 
L 83.988055 142.753063 
L 83.353157 142.570694 
L 83.037227 142.203706 
L 83.353157 142.021337 
L 84.622952 142.388326 
L 85.099885 141.654348 
L 85.892748 140.190895 
L 87.320509 139.274549 
L 88.909272 138.725191 
L 90.652963 137.808844 
L 92.399691 136.160771 
L 94.77828 134.695067 
L 100.331357 131.583541 
L 106.522371 127.186429 
L 109.854825 124.806629 
L 116.993628 120.044779 
L 120.010152 117.297991 
L 122.230776 114.368834 
L 124.293434 111.255057 
L 126.99099 108.323648 
L 130.481409 105.394491 
L 134.290796 103.197061 
L 138.416113 101.548988 
L 147.301645 98.802199 
L 151.426962 96.604769 
L 161.582289 88.729141 
L 165.230673 85.982353 
L 168.405163 83.417934 
L 171.102719 81.038134 
L 173.484345 78.473715 
L 175.386001 75.726926 
L 177.290694 72.43078 
L 178.718455 69.499372 
L 179.672321 67.119573 
L 180.623148 65.104511 
L 183.16274 61.808365 
L 184.748465 58.512219 
L 185.702331 57.413504 
L 186.653159 56.497157 
L 187.130092 55.58081 
L 186.653159 53.568 
L 186.811124 53.932737 
L 186.969089 54.299726 
L 186.811124 54.482095 
L 186.811124 54.849084 
L 187.288057 56.864146 
L 186.811124 57.595872 
L 186.176226 57.962861 
L 185.860296 58.694588 
L 186.018261 59.426314 
L 186.018261 60.342661 
L 185.541328 62.540091 
L 185.702331 62.724711 
L 186.653159 63.089449 
L 186.018261 63.089449 
L 186.018261 63.274069 
L 186.337229 63.274069 
L 186.811124 62.90708 
L 186.811124 62.724711 
L 185.860296 62.724711 
L 185.860296 62.357722 
L 186.018261 62.357722 
L 185.860296 62.357722 
L 185.702331 62.540091 
L 185.702331 62.724711 
L 186.018261 62.724711 
L 186.337229 62.175354 
L 186.653159 61.990734 
L 186.811124 62.357722 
L 186.811124 64.188164 
L 186.969089 64.372784 
L 186.811124 63.823427 
L 186.337229 63.274069 
L 186.337229 63.823427 
L 186.337229 63.823427 
L 186.176226 63.638807 
L 186.018261 63.823427 
L 185.702331 64.922142 
L 186.495194 64.372784 
L 186.495194 64.372784 
L 186.018261 64.555153 
L 185.860296 65.286879 
L 185.860296 64.922142 
L 185.702331 65.104511 
L 185.541328 65.104511 
L 185.702331 64.922142 
L 186.176226 64.922142 
L 186.176226 65.286879 
L 186.018261 65.836237 
L 185.702331 66.203226 
L 185.541328 66.203226 
L 185.067433 65.653868 
L 185.067433 65.653868 
L 184.90643 65.836237 
L 184.5905 66.752584 
L 184.5905 66.570215 
L 184.90643 66.385595 
L 184.90643 66.570215 
L 184.748465 66.934952 
L 184.432535 67.301941 
L 184.432535 67.301941 
" style="fill:none;stroke:#1f77b4;stroke-linecap:square;stroke-width:1.5;"/>
   </g>
   <g id="matplotlib.axis_1">
    <g id="xtick_1">
     <g id="line2d_2">
      <defs>
       <path d="M 0 0 
L 0 3.5 
" id="m677cf8202a" style="stroke:#000000;stroke-width:0.8;"/>
      </defs>
      <g>
       <use style="stroke:#000000;stroke-width:0.8;" x="102.889175" xlink:href="#m677cf8202a" y="307.584"/>
      </g>
     </g>
     <g id="text_1">
      <!-- −200 -->
      <defs>
       <path d="M 10.59375 35.5 
L 73.1875 35.5 
L 73.1875 27.203125 
L 10.59375 27.203125 
z
" id="DejaVuSans-8722"/>
       <path d="M 19.1875 8.296875 
L 53.609375 8.296875 
L 53.609375 0 
L 7.328125 0 
L 7.328125 8.296875 
Q 12.9375 14.109375 22.625 23.890625 
Q 32.328125 33.6875 34.8125 36.53125 
Q 39.546875 41.84375 41.421875 45.53125 
Q 43.3125 49.21875 43.3125 52.78125 
Q 43.3125 58.59375 39.234375 62.25 
Q 35.15625 65.921875 28.609375 65.921875 
Q 23.96875 65.921875 18.8125 64.3125 
Q 13.671875 62.703125 7.8125 59.421875 
L 7.8125 69.390625 
Q 13.765625 71.78125 18.9375 73 
Q 24.125 74.21875 28.421875 74.21875 
Q 39.75 74.21875 46.484375 68.546875 
Q 53.21875 62.890625 53.21875 53.421875 
Q 53.21875 48.921875 51.53125 44.890625 
Q 49.859375 40.875 45.40625 35.40625 
Q 44.1875 33.984375 37.640625 27.21875 
Q 31.109375 20.453125 19.1875 8.296875 
z
" id="DejaVuSans-50"/>
       <path d="M 31.78125 66.40625 
Q 24.171875 66.40625 20.328125 58.90625 
Q 16.5 51.421875 16.5 36.375 
Q 16.5 21.390625 20.328125 13.890625 
Q 24.171875 6.390625 31.78125 6.390625 
Q 39.453125 6.390625 43.28125 13.890625 
Q 47.125 21.390625 47.125 36.375 
Q 47.125 51.421875 43.28125 58.90625 
Q 39.453125 66.40625 31.78125 66.40625 
z
M 31.78125 74.21875 
Q 44.046875 74.21875 50.515625 64.515625 
Q 56.984375 54.828125 56.984375 36.375 
Q 56.984375 17.96875 50.515625 8.265625 
Q 44.046875 -1.421875 31.78125 -1.421875 
Q 19.53125 -1.421875 13.0625 8.265625 
Q 6.59375 17.96875 6.59375 36.375 
Q 6.59375 54.828125 13.0625 64.515625 
Q 19.53125 74.21875 31.78125 74.21875 
z
" id="DejaVuSans-48"/>
      </defs>
      <g transform="translate(89.155582 322.182437)scale(0.1 -0.1)">
       <use xlink:href="#DejaVuSans-8722"/>
       <use x="83.789062" xlink:href="#DejaVuSans-50"/>
       <use x="147.412109" xlink:href="#DejaVuSans-48"/>
       <use x="211.035156" xlink:href="#DejaVuSans-48"/>
      </g>
     </g>
    </g>
    <g id="xtick_2">
     <g id="line2d_3">
      <g>
       <use style="stroke:#000000;stroke-width:0.8;" x="163.644948" xlink:href="#m677cf8202a" y="307.584"/>
      </g>
     </g>
     <g id="text_2">
      <!-- 0 -->
      <g transform="translate(160.463698 322.182437)scale(0.1 -0.1)">
       <use xlink:href="#DejaVuSans-48"/>
      </g>
     </g>
    </g>
    <g id="xtick_3">
     <g id="line2d_4">
      <g>
       <use style="stroke:#000000;stroke-width:0.8;" x="224.40072" xlink:href="#m677cf8202a" y="307.584"/>
      </g>
     </g>
     <g id="text_3">
      <!-- 200 -->
      <g transform="translate(214.85697 322.182437)scale(0.1 -0.1)">
       <use xlink:href="#DejaVuSans-50"/>
       <use x="63.623047" xlink:href="#DejaVuSans-48"/>
       <use x="127.246094" xlink:href="#DejaVuSans-48"/>
      </g>
     </g>
    </g>
    <g id="xtick_4">
     <g id="line2d_5">
      <g>
       <use style="stroke:#000000;stroke-width:0.8;" x="285.156493" xlink:href="#m677cf8202a" y="307.584"/>
      </g>
     </g>
     <g id="text_4">
      <!-- 400 -->
      <defs>
       <path d="M 37.796875 64.3125 
L 12.890625 25.390625 
L 37.796875 25.390625 
z
M 35.203125 72.90625 
L 47.609375 72.90625 
L 47.609375 25.390625 
L 58.015625 25.390625 
L 58.015625 17.1875 
L 47.609375 17.1875 
L 47.609375 0 
L 37.796875 0 
L 37.796875 17.1875 
L 4.890625 17.1875 
L 4.890625 26.703125 
z
" id="DejaVuSans-52"/>
      </defs>
      <g transform="translate(275.612743 322.182437)scale(0.1 -0.1)">
       <use xlink:href="#DejaVuSans-52"/>
       <use x="63.623047" xlink:href="#DejaVuSans-48"/>
       <use x="127.246094" xlink:href="#DejaVuSans-48"/>
      </g>
     </g>
    </g>
    <g id="xtick_5">
     <g id="line2d_6">
      <g>
       <use style="stroke:#000000;stroke-width:0.8;" x="345.912265" xlink:href="#m677cf8202a" y="307.584"/>
      </g>
     </g>
     <g id="text_5">
      <!-- 600 -->
      <defs>
       <path d="M 33.015625 40.375 
Q 26.375 40.375 22.484375 35.828125 
Q 18.609375 31.296875 18.609375 23.390625 
Q 18.609375 15.53125 22.484375 10.953125 
Q 26.375 6.390625 33.015625 6.390625 
Q 39.65625 6.390625 43.53125 10.953125 
Q 47.40625 15.53125 47.40625 23.390625 
Q 47.40625 31.296875 43.53125 35.828125 
Q 39.65625 40.375 33.015625 40.375 
z
M 52.59375 71.296875 
L 52.59375 62.3125 
Q 48.875 64.0625 45.09375 64.984375 
Q 41.3125 65.921875 37.59375 65.921875 
Q 27.828125 65.921875 22.671875 59.328125 
Q 17.53125 52.734375 16.796875 39.40625 
Q 19.671875 43.65625 24.015625 45.921875 
Q 28.375 48.1875 33.59375 48.1875 
Q 44.578125 48.1875 50.953125 41.515625 
Q 57.328125 34.859375 57.328125 23.390625 
Q 57.328125 12.15625 50.6875 5.359375 
Q 44.046875 -1.421875 33.015625 -1.421875 
Q 20.359375 -1.421875 13.671875 8.265625 
Q 6.984375 17.96875 6.984375 36.375 
Q 6.984375 53.65625 15.1875 63.9375 
Q 23.390625 74.21875 37.203125 74.21875 
Q 40.921875 74.21875 44.703125 73.484375 
Q 48.484375 72.75 52.59375 71.296875 
z
" id="DejaVuSans-54"/>
      </defs>
      <g transform="translate(336.368515 322.182437)scale(0.1 -0.1)">
       <use xlink:href="#DejaVuSans-54"/>
       <use x="63.623047" xlink:href="#DejaVuSans-48"/>
       <use x="127.246094" xlink:href="#DejaVuSans-48"/>
      </g>
     </g>
    </g>
    <g id="xtick_6">
     <g id="line2d_7">
      <g>
       <use style="stroke:#000000;stroke-width:0.8;" x="406.668037" xlink:href="#m677cf8202a" y="307.584"/>
      </g>
     </g>
     <g id="text_6">
      <!-- 800 -->
      <defs>
       <path d="M 31.78125 34.625 
Q 24.75 34.625 20.71875 30.859375 
Q 16.703125 27.09375 16.703125 20.515625 
Q 16.703125 13.921875 20.71875 10.15625 
Q 24.75 6.390625 31.78125 6.390625 
Q 38.8125 6.390625 42.859375 10.171875 
Q 46.921875 13.96875 46.921875 20.515625 
Q 46.921875 27.09375 42.890625 30.859375 
Q 38.875 34.625 31.78125 34.625 
z
M 21.921875 38.8125 
Q 15.578125 40.375 12.03125 44.71875 
Q 8.5 49.078125 8.5 55.328125 
Q 8.5 64.0625 14.71875 69.140625 
Q 20.953125 74.21875 31.78125 74.21875 
Q 42.671875 74.21875 48.875 69.140625 
Q 55.078125 64.0625 55.078125 55.328125 
Q 55.078125 49.078125 51.53125 44.71875 
Q 48 40.375 41.703125 38.8125 
Q 48.828125 37.15625 52.796875 32.3125 
Q 56.78125 27.484375 56.78125 20.515625 
Q 56.78125 9.90625 50.3125 4.234375 
Q 43.84375 -1.421875 31.78125 -1.421875 
Q 19.734375 -1.421875 13.25 4.234375 
Q 6.78125 9.90625 6.78125 20.515625 
Q 6.78125 27.484375 10.78125 32.3125 
Q 14.796875 37.15625 21.921875 38.8125 
z
M 18.3125 54.390625 
Q 18.3125 48.734375 21.84375 45.5625 
Q 25.390625 42.390625 31.78125 42.390625 
Q 38.140625 42.390625 41.71875 45.5625 
Q 45.3125 48.734375 45.3125 54.390625 
Q 45.3125 60.0625 41.71875 63.234375 
Q 38.140625 66.40625 31.78125 66.40625 
Q 25.390625 66.40625 21.84375 63.234375 
Q 18.3125 60.0625 18.3125 54.390625 
z
" id="DejaVuSans-56"/>
      </defs>
      <g transform="translate(397.124287 322.182437)scale(0.1 -0.1)">
       <use xlink:href="#DejaVuSans-56"/>
       <use x="63.623047" xlink:href="#DejaVuSans-48"/>
       <use x="127.246094" xlink:href="#DejaVuSans-48"/>
      </g>
     </g>
    </g>
   </g>
   <g id="matplotlib.axis_2">
    <g id="ytick_1">
     <g id="line2d_8">
      <defs>
       <path d="M 0 0 
L -3.5 0 
" id="m095ad2b492" style="stroke:#000000;stroke-width:0.8;"/>
      </defs>
      <g>
       <use style="stroke:#000000;stroke-width:0.8;" x="57.6" xlink:href="#m095ad2b492" y="270.798426"/>
      </g>
     </g>
     <g id="text_7">
      <!-- −600 -->
      <g transform="translate(23.132812 274.597645)scale(0.1 -0.1)">
       <use xlink:href="#DejaVuSans-8722"/>
       <use x="83.789062" xlink:href="#DejaVuSans-54"/>
       <use x="147.412109" xlink:href="#DejaVuSans-48"/>
       <use x="211.035156" xlink:href="#DejaVuSans-48"/>
      </g>
     </g>
    </g>
    <g id="ytick_2">
     <g id="line2d_9">
      <g>
       <use style="stroke:#000000;stroke-width:0.8;" x="57.6" xlink:href="#m095ad2b492" y="225.76911"/>
      </g>
     </g>
     <g id="text_8">
      <!-- −400 -->
      <g transform="translate(23.132812 229.568329)scale(0.1 -0.1)">
       <use xlink:href="#DejaVuSans-8722"/>
       <use x="83.789062" xlink:href="#DejaVuSans-52"/>
       <use x="147.412109" xlink:href="#DejaVuSans-48"/>
       <use x="211.035156" xlink:href="#DejaVuSans-48"/>
      </g>
     </g>
    </g>
    <g id="ytick_3">
     <g id="line2d_10">
      <g>
       <use style="stroke:#000000;stroke-width:0.8;" x="57.6" xlink:href="#m095ad2b492" y="180.739794"/>
      </g>
     </g>
     <g id="text_9">
      <!-- −200 -->
      <g transform="translate(23.132812 184.539013)scale(0.1 -0.1)">
       <use xlink:href="#DejaVuSans-8722"/>
       <use x="83.789062" xlink:href="#DejaVuSans-50"/>
       <use x="147.412109" xlink:href="#DejaVuSans-48"/>
       <use x="211.035156" xlink:href="#DejaVuSans-48"/>
      </g>
     </g>
    </g>
    <g id="ytick_4">
     <g id="line2d_11">
      <g>
       <use style="stroke:#000000;stroke-width:0.8;" x="57.6" xlink:href="#m095ad2b492" y="135.710478"/>
      </g>
     </g>
     <g id="text_10">
      <!-- 0 -->
      <g transform="translate(44.2375 139.509697)scale(0.1 -0.1)">
       <use xlink:href="#DejaVuSans-48"/>
      </g>
     </g>
    </g>
    <g id="ytick_5">
     <g id="line2d_12">
      <g>
       <use style="stroke:#000000;stroke-width:0.8;" x="57.6" xlink:href="#m095ad2b492" y="90.681162"/>
      </g>
     </g>
     <g id="text_11">
      <!-- 200 -->
      <g transform="translate(31.5125 94.480381)scale(0.1 -0.1)">
       <use xlink:href="#DejaVuSans-50"/>
       <use x="63.623047" xlink:href="#DejaVuSans-48"/>
       <use x="127.246094" xlink:href="#DejaVuSans-48"/>
      </g>
     </g>
    </g>
    <g id="ytick_6">
     <g id="line2d_13">
      <g>
       <use style="stroke:#000000;stroke-width:0.8;" x="57.6" xlink:href="#m095ad2b492" y="45.651846"/>
      </g>
     </g>
     <g id="text_12">
      <!-- 400 -->
      <g transform="translate(31.5125 49.451065)scale(0.1 -0.1)">
       <use xlink:href="#DejaVuSans-52"/>
       <use x="63.623047" xlink:href="#DejaVuSans-48"/>
       <use x="127.246094" xlink:href="#DejaVuSans-48"/>
      </g>
     </g>
    </g>
   </g>
   <g id="line2d_14">
    <path clip-path="url(#pc1c2178a22)" d="M 396.58635 292.07378 
L 174.31628 161.788123 
L 149.677379 81.575555 
L 153.676687 91.879897 
L 132.831389 121.322393 
L 80.086391 137.78737 
" style="fill:none;stroke:#ff0000;stroke-linecap:square;stroke-width:0.5;"/>
   </g>
   <g id="patch_3">
    <path d="M 57.6 307.584 
L 57.6 41.472 
" style="fill:none;stroke:#000000;stroke-linecap:square;stroke-linejoin:miter;stroke-width:0.8;"/>
   </g>
   <g id="patch_4">
    <path d="M 414.72 307.584 
L 414.72 41.472 
" style="fill:none;stroke:#000000;stroke-linecap:square;stroke-linejoin:miter;stroke-width:0.8;"/>
   </g>
   <g id="patch_5">
    <path d="M 57.6 307.584 
L 414.72 307.584 
" style="fill:none;stroke:#000000;stroke-linecap:square;stroke-linejoin:miter;stroke-width:0.8;"/>
   </g>
   <g id="patch_6">
    <path d="M 57.6 41.472 
L 414.72 41.472 
" style="fill:none;stroke:#000000;stroke-linecap:square;stroke-linejoin:miter;stroke-width:0.8;"/>
   </g>
   <g id="PathCollection_1">
    <defs>
     <path d="M 0 2.738613 
C 0.726289 2.738613 1.422928 2.450055 1.936492 1.936492 
C 2.450055 1.422928 2.738613 0.726289 2.738613 0 
C 2.738613 -0.726289 2.450055 -1.422928 1.936492 -1.936492 
C 1.422928 -2.450055 0.726289 -2.738613 0 -2.738613 
C -0.726289 -2.738613 -1.422928 -2.450055 -1.936492 -1.936492 
C -2.450055 -1.422928 -2.738613 -0.726289 -2.738613 0 
C -2.738613 0.726289 -2.450055 1.422928 -1.936492 1.936492 
C -1.422928 2.450055 -0.726289 2.738613 0 2.738613 
z
" id="m2703f519eb" style="stroke:#ff0000;"/>
    </defs>
    <g clip-path="url(#pc1c2178a22)">
     <use style="fill:#ff0000;stroke:#ff0000;" x="396.58635" xlink:href="#m2703f519eb" y="292.07378"/>
     <use style="fill:#ff0000;stroke:#ff0000;" x="174.31628" xlink:href="#m2703f519eb" y="161.788123"/>
     <use style="fill:#ff0000;stroke:#ff0000;" x="149.677379" xlink:href="#m2703f519eb" y="81.575555"/>
     <use style="fill:#ff0000;stroke:#ff0000;" x="153.676687" xlink:href="#m2703f519eb" y="91.879897"/>
     <use style="fill:#ff0000;stroke:#ff0000;" x="132.831389" xlink:href="#m2703f519eb" y="121.322393"/>
     <use style="fill:#ff0000;stroke:#ff0000;" x="80.086391" xlink:href="#m2703f519eb" y="137.78737"/>
    </g>
   </g>
   <g id="text_13">
    <!-- (28) Subject: s23, Known = False, Degree = 1, Duration = 0.1 -->
    <defs>
     <path d="M 31 75.875 
Q 24.46875 64.65625 21.28125 53.65625 
Q 18.109375 42.671875 18.109375 31.390625 
Q 18.109375 20.125 21.3125 9.0625 
Q 24.515625 -2 31 -13.1875 
L 23.1875 -13.1875 
Q 15.875 -1.703125 12.234375 9.375 
Q 8.59375 20.453125 8.59375 31.390625 
Q 8.59375 42.28125 12.203125 53.3125 
Q 15.828125 64.359375 23.1875 75.875 
z
" id="DejaVuSans-40"/>
     <path d="M 8.015625 75.875 
L 15.828125 75.875 
Q 23.140625 64.359375 26.78125 53.3125 
Q 30.421875 42.28125 30.421875 31.390625 
Q 30.421875 20.453125 26.78125 9.375 
Q 23.140625 -1.703125 15.828125 -13.1875 
L 8.015625 -13.1875 
Q 14.5 -2 17.703125 9.0625 
Q 20.90625 20.125 20.90625 31.390625 
Q 20.90625 42.671875 17.703125 53.65625 
Q 14.5 64.65625 8.015625 75.875 
z
" id="DejaVuSans-41"/>
     <path id="DejaVuSans-32"/>
     <path d="M 53.515625 70.515625 
L 53.515625 60.890625 
Q 47.90625 63.578125 42.921875 64.890625 
Q 37.9375 66.21875 33.296875 66.21875 
Q 25.25 66.21875 20.875 63.09375 
Q 16.5 59.96875 16.5 54.203125 
Q 16.5 49.359375 19.40625 46.890625 
Q 22.3125 44.4375 30.421875 42.921875 
L 36.375 41.703125 
Q 47.40625 39.59375 52.65625 34.296875 
Q 57.90625 29 57.90625 20.125 
Q 57.90625 9.515625 50.796875 4.046875 
Q 43.703125 -1.421875 29.984375 -1.421875 
Q 24.8125 -1.421875 18.96875 -0.25 
Q 13.140625 0.921875 6.890625 3.21875 
L 6.890625 13.375 
Q 12.890625 10.015625 18.65625 8.296875 
Q 24.421875 6.59375 29.984375 6.59375 
Q 38.421875 6.59375 43.015625 9.90625 
Q 47.609375 13.234375 47.609375 19.390625 
Q 47.609375 24.75 44.3125 27.78125 
Q 41.015625 30.8125 33.5 32.328125 
L 27.484375 33.5 
Q 16.453125 35.6875 11.515625 40.375 
Q 6.59375 45.0625 6.59375 53.421875 
Q 6.59375 63.09375 13.40625 68.65625 
Q 20.21875 74.21875 32.171875 74.21875 
Q 37.3125 74.21875 42.625 73.28125 
Q 47.953125 72.359375 53.515625 70.515625 
z
" id="DejaVuSans-83"/>
     <path d="M 8.5 21.578125 
L 8.5 54.6875 
L 17.484375 54.6875 
L 17.484375 21.921875 
Q 17.484375 14.15625 20.5 10.265625 
Q 23.53125 6.390625 29.59375 6.390625 
Q 36.859375 6.390625 41.078125 11.03125 
Q 45.3125 15.671875 45.3125 23.6875 
L 45.3125 54.6875 
L 54.296875 54.6875 
L 54.296875 0 
L 45.3125 0 
L 45.3125 8.40625 
Q 42.046875 3.421875 37.71875 1 
Q 33.40625 -1.421875 27.6875 -1.421875 
Q 18.265625 -1.421875 13.375 4.4375 
Q 8.5 10.296875 8.5 21.578125 
z
M 31.109375 56 
z
" id="DejaVuSans-117"/>
     <path d="M 48.6875 27.296875 
Q 48.6875 37.203125 44.609375 42.84375 
Q 40.53125 48.484375 33.40625 48.484375 
Q 26.265625 48.484375 22.1875 42.84375 
Q 18.109375 37.203125 18.109375 27.296875 
Q 18.109375 17.390625 22.1875 11.75 
Q 26.265625 6.109375 33.40625 6.109375 
Q 40.53125 6.109375 44.609375 11.75 
Q 48.6875 17.390625 48.6875 27.296875 
z
M 18.109375 46.390625 
Q 20.953125 51.265625 25.265625 53.625 
Q 29.59375 56 35.59375 56 
Q 45.5625 56 51.78125 48.09375 
Q 58.015625 40.1875 58.015625 27.296875 
Q 58.015625 14.40625 51.78125 6.484375 
Q 45.5625 -1.421875 35.59375 -1.421875 
Q 29.59375 -1.421875 25.265625 0.953125 
Q 20.953125 3.328125 18.109375 8.203125 
L 18.109375 0 
L 9.078125 0 
L 9.078125 75.984375 
L 18.109375 75.984375 
z
" id="DejaVuSans-98"/>
     <path d="M 9.421875 54.6875 
L 18.40625 54.6875 
L 18.40625 -0.984375 
Q 18.40625 -11.421875 14.421875 -16.109375 
Q 10.453125 -20.796875 1.609375 -20.796875 
L -1.8125 -20.796875 
L -1.8125 -13.1875 
L 0.59375 -13.1875 
Q 5.71875 -13.1875 7.5625 -10.8125 
Q 9.421875 -8.453125 9.421875 -0.984375 
z
M 9.421875 75.984375 
L 18.40625 75.984375 
L 18.40625 64.59375 
L 9.421875 64.59375 
z
" id="DejaVuSans-106"/>
     <path d="M 56.203125 29.59375 
L 56.203125 25.203125 
L 14.890625 25.203125 
Q 15.484375 15.921875 20.484375 11.0625 
Q 25.484375 6.203125 34.421875 6.203125 
Q 39.59375 6.203125 44.453125 7.46875 
Q 49.3125 8.734375 54.109375 11.28125 
L 54.109375 2.78125 
Q 49.265625 0.734375 44.1875 -0.34375 
Q 39.109375 -1.421875 33.890625 -1.421875 
Q 20.796875 -1.421875 13.15625 6.1875 
Q 5.515625 13.8125 5.515625 26.8125 
Q 5.515625 40.234375 12.765625 48.109375 
Q 20.015625 56 32.328125 56 
Q 43.359375 56 49.78125 48.890625 
Q 56.203125 41.796875 56.203125 29.59375 
z
M 47.21875 32.234375 
Q 47.125 39.59375 43.09375 43.984375 
Q 39.0625 48.390625 32.421875 48.390625 
Q 24.90625 48.390625 20.390625 44.140625 
Q 15.875 39.890625 15.1875 32.171875 
z
" id="DejaVuSans-101"/>
     <path d="M 48.78125 52.59375 
L 48.78125 44.1875 
Q 44.96875 46.296875 41.140625 47.34375 
Q 37.3125 48.390625 33.40625 48.390625 
Q 24.65625 48.390625 19.8125 42.84375 
Q 14.984375 37.3125 14.984375 27.296875 
Q 14.984375 17.28125 19.8125 11.734375 
Q 24.65625 6.203125 33.40625 6.203125 
Q 37.3125 6.203125 41.140625 7.25 
Q 44.96875 8.296875 48.78125 10.40625 
L 48.78125 2.09375 
Q 45.015625 0.34375 40.984375 -0.53125 
Q 36.96875 -1.421875 32.421875 -1.421875 
Q 20.0625 -1.421875 12.78125 6.34375 
Q 5.515625 14.109375 5.515625 27.296875 
Q 5.515625 40.671875 12.859375 48.328125 
Q 20.21875 56 33.015625 56 
Q 37.15625 56 41.109375 55.140625 
Q 45.0625 54.296875 48.78125 52.59375 
z
" id="DejaVuSans-99"/>
     <path d="M 18.3125 70.21875 
L 18.3125 54.6875 
L 36.8125 54.6875 
L 36.8125 47.703125 
L 18.3125 47.703125 
L 18.3125 18.015625 
Q 18.3125 11.328125 20.140625 9.421875 
Q 21.96875 7.515625 27.59375 7.515625 
L 36.8125 7.515625 
L 36.8125 0 
L 27.59375 0 
Q 17.1875 0 13.234375 3.875 
Q 9.28125 7.765625 9.28125 18.015625 
L 9.28125 47.703125 
L 2.6875 47.703125 
L 2.6875 54.6875 
L 9.28125 54.6875 
L 9.28125 70.21875 
z
" id="DejaVuSans-116"/>
     <path d="M 11.71875 12.40625 
L 22.015625 12.40625 
L 22.015625 0 
L 11.71875 0 
z
M 11.71875 51.703125 
L 22.015625 51.703125 
L 22.015625 39.3125 
L 11.71875 39.3125 
z
" id="DejaVuSans-58"/>
     <path d="M 44.28125 53.078125 
L 44.28125 44.578125 
Q 40.484375 46.53125 36.375 47.5 
Q 32.28125 48.484375 27.875 48.484375 
Q 21.1875 48.484375 17.84375 46.4375 
Q 14.5 44.390625 14.5 40.28125 
Q 14.5 37.15625 16.890625 35.375 
Q 19.28125 33.59375 26.515625 31.984375 
L 29.59375 31.296875 
Q 39.15625 29.25 43.1875 25.515625 
Q 47.21875 21.78125 47.21875 15.09375 
Q 47.21875 7.46875 41.1875 3.015625 
Q 35.15625 -1.421875 24.609375 -1.421875 
Q 20.21875 -1.421875 15.453125 -0.5625 
Q 10.6875 0.296875 5.421875 2 
L 5.421875 11.28125 
Q 10.40625 8.6875 15.234375 7.390625 
Q 20.0625 6.109375 24.8125 6.109375 
Q 31.15625 6.109375 34.5625 8.28125 
Q 37.984375 10.453125 37.984375 14.40625 
Q 37.984375 18.0625 35.515625 20.015625 
Q 33.0625 21.96875 24.703125 23.78125 
L 21.578125 24.515625 
Q 13.234375 26.265625 9.515625 29.90625 
Q 5.8125 33.546875 5.8125 39.890625 
Q 5.8125 47.609375 11.28125 51.796875 
Q 16.75 56 26.8125 56 
Q 31.78125 56 36.171875 55.265625 
Q 40.578125 54.546875 44.28125 53.078125 
z
" id="DejaVuSans-115"/>
     <path d="M 40.578125 39.3125 
Q 47.65625 37.796875 51.625 33 
Q 55.609375 28.21875 55.609375 21.1875 
Q 55.609375 10.40625 48.1875 4.484375 
Q 40.765625 -1.421875 27.09375 -1.421875 
Q 22.515625 -1.421875 17.65625 -0.515625 
Q 12.796875 0.390625 7.625 2.203125 
L 7.625 11.71875 
Q 11.71875 9.328125 16.59375 8.109375 
Q 21.484375 6.890625 26.8125 6.890625 
Q 36.078125 6.890625 40.9375 10.546875 
Q 45.796875 14.203125 45.796875 21.1875 
Q 45.796875 27.640625 41.28125 31.265625 
Q 36.765625 34.90625 28.71875 34.90625 
L 20.21875 34.90625 
L 20.21875 43.015625 
L 29.109375 43.015625 
Q 36.375 43.015625 40.234375 45.921875 
Q 44.09375 48.828125 44.09375 54.296875 
Q 44.09375 59.90625 40.109375 62.90625 
Q 36.140625 65.921875 28.71875 65.921875 
Q 24.65625 65.921875 20.015625 65.03125 
Q 15.375 64.15625 9.8125 62.3125 
L 9.8125 71.09375 
Q 15.4375 72.65625 20.34375 73.4375 
Q 25.25 74.21875 29.59375 74.21875 
Q 40.828125 74.21875 47.359375 69.109375 
Q 53.90625 64.015625 53.90625 55.328125 
Q 53.90625 49.265625 50.4375 45.09375 
Q 46.96875 40.921875 40.578125 39.3125 
z
" id="DejaVuSans-51"/>
     <path d="M 11.71875 12.40625 
L 22.015625 12.40625 
L 22.015625 4 
L 14.015625 -11.625 
L 7.71875 -11.625 
L 11.71875 4 
z
" id="DejaVuSans-44"/>
     <path d="M 9.8125 72.90625 
L 19.671875 72.90625 
L 19.671875 42.09375 
L 52.390625 72.90625 
L 65.09375 72.90625 
L 28.90625 38.921875 
L 67.671875 0 
L 54.6875 0 
L 19.671875 35.109375 
L 19.671875 0 
L 9.8125 0 
z
" id="DejaVuSans-75"/>
     <path d="M 54.890625 33.015625 
L 54.890625 0 
L 45.90625 0 
L 45.90625 32.71875 
Q 45.90625 40.484375 42.875 44.328125 
Q 39.84375 48.1875 33.796875 48.1875 
Q 26.515625 48.1875 22.3125 43.546875 
Q 18.109375 38.921875 18.109375 30.90625 
L 18.109375 0 
L 9.078125 0 
L 9.078125 54.6875 
L 18.109375 54.6875 
L 18.109375 46.1875 
Q 21.34375 51.125 25.703125 53.5625 
Q 30.078125 56 35.796875 56 
Q 45.21875 56 50.046875 50.171875 
Q 54.890625 44.34375 54.890625 33.015625 
z
" id="DejaVuSans-110"/>
     <path d="M 30.609375 48.390625 
Q 23.390625 48.390625 19.1875 42.75 
Q 14.984375 37.109375 14.984375 27.296875 
Q 14.984375 17.484375 19.15625 11.84375 
Q 23.34375 6.203125 30.609375 6.203125 
Q 37.796875 6.203125 41.984375 11.859375 
Q 46.1875 17.53125 46.1875 27.296875 
Q 46.1875 37.015625 41.984375 42.703125 
Q 37.796875 48.390625 30.609375 48.390625 
z
M 30.609375 56 
Q 42.328125 56 49.015625 48.375 
Q 55.71875 40.765625 55.71875 27.296875 
Q 55.71875 13.875 49.015625 6.21875 
Q 42.328125 -1.421875 30.609375 -1.421875 
Q 18.84375 -1.421875 12.171875 6.21875 
Q 5.515625 13.875 5.515625 27.296875 
Q 5.515625 40.765625 12.171875 48.375 
Q 18.84375 56 30.609375 56 
z
" id="DejaVuSans-111"/>
     <path d="M 4.203125 54.6875 
L 13.1875 54.6875 
L 24.421875 12.015625 
L 35.59375 54.6875 
L 46.1875 54.6875 
L 57.421875 12.015625 
L 68.609375 54.6875 
L 77.59375 54.6875 
L 63.28125 0 
L 52.6875 0 
L 40.921875 44.828125 
L 29.109375 0 
L 18.5 0 
z
" id="DejaVuSans-119"/>
     <path d="M 10.59375 45.40625 
L 73.1875 45.40625 
L 73.1875 37.203125 
L 10.59375 37.203125 
z
M 10.59375 25.484375 
L 73.1875 25.484375 
L 73.1875 17.1875 
L 10.59375 17.1875 
z
" id="DejaVuSans-61"/>
     <path d="M 9.8125 72.90625 
L 51.703125 72.90625 
L 51.703125 64.59375 
L 19.671875 64.59375 
L 19.671875 43.109375 
L 48.578125 43.109375 
L 48.578125 34.8125 
L 19.671875 34.8125 
L 19.671875 0 
L 9.8125 0 
z
" id="DejaVuSans-70"/>
     <path d="M 34.28125 27.484375 
Q 23.390625 27.484375 19.1875 25 
Q 14.984375 22.515625 14.984375 16.5 
Q 14.984375 11.71875 18.140625 8.90625 
Q 21.296875 6.109375 26.703125 6.109375 
Q 34.1875 6.109375 38.703125 11.40625 
Q 43.21875 16.703125 43.21875 25.484375 
L 43.21875 27.484375 
z
M 52.203125 31.203125 
L 52.203125 0 
L 43.21875 0 
L 43.21875 8.296875 
Q 40.140625 3.328125 35.546875 0.953125 
Q 30.953125 -1.421875 24.3125 -1.421875 
Q 15.921875 -1.421875 10.953125 3.296875 
Q 6 8.015625 6 15.921875 
Q 6 25.140625 12.171875 29.828125 
Q 18.359375 34.515625 30.609375 34.515625 
L 43.21875 34.515625 
L 43.21875 35.40625 
Q 43.21875 41.609375 39.140625 45 
Q 35.0625 48.390625 27.6875 48.390625 
Q 23 48.390625 18.546875 47.265625 
Q 14.109375 46.140625 10.015625 43.890625 
L 10.015625 52.203125 
Q 14.9375 54.109375 19.578125 55.046875 
Q 24.21875 56 28.609375 56 
Q 40.484375 56 46.34375 49.84375 
Q 52.203125 43.703125 52.203125 31.203125 
z
" id="DejaVuSans-97"/>
     <path d="M 9.421875 75.984375 
L 18.40625 75.984375 
L 18.40625 0 
L 9.421875 0 
z
" id="DejaVuSans-108"/>
     <path d="M 19.671875 64.796875 
L 19.671875 8.109375 
L 31.59375 8.109375 
Q 46.6875 8.109375 53.6875 14.9375 
Q 60.6875 21.78125 60.6875 36.53125 
Q 60.6875 51.171875 53.6875 57.984375 
Q 46.6875 64.796875 31.59375 64.796875 
z
M 9.8125 72.90625 
L 30.078125 72.90625 
Q 51.265625 72.90625 61.171875 64.09375 
Q 71.09375 55.28125 71.09375 36.53125 
Q 71.09375 17.671875 61.125 8.828125 
Q 51.171875 0 30.078125 0 
L 9.8125 0 
z
" id="DejaVuSans-68"/>
     <path d="M 45.40625 27.984375 
Q 45.40625 37.75 41.375 43.109375 
Q 37.359375 48.484375 30.078125 48.484375 
Q 22.859375 48.484375 18.828125 43.109375 
Q 14.796875 37.75 14.796875 27.984375 
Q 14.796875 18.265625 18.828125 12.890625 
Q 22.859375 7.515625 30.078125 7.515625 
Q 37.359375 7.515625 41.375 12.890625 
Q 45.40625 18.265625 45.40625 27.984375 
z
M 54.390625 6.78125 
Q 54.390625 -7.171875 48.1875 -13.984375 
Q 42 -20.796875 29.203125 -20.796875 
Q 24.46875 -20.796875 20.265625 -20.09375 
Q 16.0625 -19.390625 12.109375 -17.921875 
L 12.109375 -9.1875 
Q 16.0625 -11.328125 19.921875 -12.34375 
Q 23.78125 -13.375 27.78125 -13.375 
Q 36.625 -13.375 41.015625 -8.765625 
Q 45.40625 -4.15625 45.40625 5.171875 
L 45.40625 9.625 
Q 42.625 4.78125 38.28125 2.390625 
Q 33.9375 0 27.875 0 
Q 17.828125 0 11.671875 7.65625 
Q 5.515625 15.328125 5.515625 27.984375 
Q 5.515625 40.671875 11.671875 48.328125 
Q 17.828125 56 27.875 56 
Q 33.9375 56 38.28125 53.609375 
Q 42.625 51.21875 45.40625 46.390625 
L 45.40625 54.6875 
L 54.390625 54.6875 
z
" id="DejaVuSans-103"/>
     <path d="M 41.109375 46.296875 
Q 39.59375 47.171875 37.8125 47.578125 
Q 36.03125 48 33.890625 48 
Q 26.265625 48 22.1875 43.046875 
Q 18.109375 38.09375 18.109375 28.8125 
L 18.109375 0 
L 9.078125 0 
L 9.078125 54.6875 
L 18.109375 54.6875 
L 18.109375 46.1875 
Q 20.953125 51.171875 25.484375 53.578125 
Q 30.03125 56 36.53125 56 
Q 37.453125 56 38.578125 55.875 
Q 39.703125 55.765625 41.0625 55.515625 
z
" id="DejaVuSans-114"/>
     <path d="M 12.40625 8.296875 
L 28.515625 8.296875 
L 28.515625 63.921875 
L 10.984375 60.40625 
L 10.984375 69.390625 
L 28.421875 72.90625 
L 38.28125 72.90625 
L 38.28125 8.296875 
L 54.390625 8.296875 
L 54.390625 0 
L 12.40625 0 
z
" id="DejaVuSans-49"/>
     <path d="M 9.421875 54.6875 
L 18.40625 54.6875 
L 18.40625 0 
L 9.421875 0 
z
M 9.421875 75.984375 
L 18.40625 75.984375 
L 18.40625 64.59375 
L 9.421875 64.59375 
z
" id="DejaVuSans-105"/>
     <path d="M 10.6875 12.40625 
L 21 12.40625 
L 21 0 
L 10.6875 0 
z
" id="DejaVuSans-46"/>
    </defs>
    <g transform="translate(49.741875 35.472)scale(0.12 -0.12)">
     <use xlink:href="#DejaVuSans-40"/>
     <use x="39.013672" xlink:href="#DejaVuSans-50"/>
     <use x="102.636719" xlink:href="#DejaVuSans-56"/>
     <use x="166.259766" xlink:href="#DejaVuSans-41"/>
     <use x="205.273438" xlink:href="#DejaVuSans-32"/>
     <use x="237.060547" xlink:href="#DejaVuSans-83"/>
     <use x="300.537109" xlink:href="#DejaVuSans-117"/>
     <use x="363.916016" xlink:href="#DejaVuSans-98"/>
     <use x="427.392578" xlink:href="#DejaVuSans-106"/>
     <use x="455.175781" xlink:href="#DejaVuSans-101"/>
     <use x="516.699219" xlink:href="#DejaVuSans-99"/>
     <use x="571.679688" xlink:href="#DejaVuSans-116"/>
     <use x="610.888672" xlink:href="#DejaVuSans-58"/>
     <use x="644.580078" xlink:href="#DejaVuSans-32"/>
     <use x="676.367188" xlink:href="#DejaVuSans-115"/>
     <use x="728.466797" xlink:href="#DejaVuSans-50"/>
     <use x="792.089844" xlink:href="#DejaVuSans-51"/>
     <use x="855.712891" xlink:href="#DejaVuSans-44"/>
     <use x="887.5" xlink:href="#DejaVuSans-32"/>
     <use x="919.287109" xlink:href="#DejaVuSans-75"/>
     <use x="984.863281" xlink:href="#DejaVuSans-110"/>
     <use x="1048.242188" xlink:href="#DejaVuSans-111"/>
     <use x="1109.423828" xlink:href="#DejaVuSans-119"/>
     <use x="1191.210938" xlink:href="#DejaVuSans-110"/>
     <use x="1254.589844" xlink:href="#DejaVuSans-32"/>
     <use x="1286.376953" xlink:href="#DejaVuSans-61"/>
     <use x="1370.166016" xlink:href="#DejaVuSans-32"/>
     <use x="1401.953125" xlink:href="#DejaVuSans-70"/>
     <use x="1459.332031" xlink:href="#DejaVuSans-97"/>
     <use x="1520.611328" xlink:href="#DejaVuSans-108"/>
     <use x="1548.394531" xlink:href="#DejaVuSans-115"/>
     <use x="1600.494141" xlink:href="#DejaVuSans-101"/>
     <use x="1662.017578" xlink:href="#DejaVuSans-44"/>
     <use x="1693.804688" xlink:href="#DejaVuSans-32"/>
     <use x="1725.591797" xlink:href="#DejaVuSans-68"/>
     <use x="1802.59375" xlink:href="#DejaVuSans-101"/>
     <use x="1864.117188" xlink:href="#DejaVuSans-103"/>
     <use x="1927.59375" xlink:href="#DejaVuSans-114"/>
     <use x="1968.675781" xlink:href="#DejaVuSans-101"/>
     <use x="2030.199219" xlink:href="#DejaVuSans-101"/>
     <use x="2091.722656" xlink:href="#DejaVuSans-32"/>
     <use x="2123.509766" xlink:href="#DejaVuSans-61"/>
     <use x="2207.298828" xlink:href="#DejaVuSans-32"/>
     <use x="2239.085938" xlink:href="#DejaVuSans-49"/>
     <use x="2302.708984" xlink:href="#DejaVuSans-44"/>
     <use x="2334.496094" xlink:href="#DejaVuSans-32"/>
     <use x="2366.283203" xlink:href="#DejaVuSans-68"/>
     <use x="2443.285156" xlink:href="#DejaVuSans-117"/>
     <use x="2506.664062" xlink:href="#DejaVuSans-114"/>
     <use x="2547.777344" xlink:href="#DejaVuSans-97"/>
     <use x="2609.056641" xlink:href="#DejaVuSans-116"/>
     <use x="2648.265625" xlink:href="#DejaVuSans-105"/>
     <use x="2676.048828" xlink:href="#DejaVuSans-111"/>
     <use x="2737.230469" xlink:href="#DejaVuSans-110"/>
     <use x="2800.609375" xlink:href="#DejaVuSans-32"/>
     <use x="2832.396484" xlink:href="#DejaVuSans-61"/>
     <use x="2916.185547" xlink:href="#DejaVuSans-32"/>
     <use x="2947.972656" xlink:href="#DejaVuSans-48"/>
     <use x="3011.595703" xlink:href="#DejaVuSans-46"/>
     <use x="3043.382812" xlink:href="#DejaVuSans-49"/>
    </g>
   </g>
  </g>
 </g>
 <defs>
  <clipPath id="pc1c2178a22">
   <rect height="266.112" width="357.12" x="57.6" y="41.472"/>
  </clipPath>
 </defs>
</svg>
