<?xml version="1.0" encoding="utf-8" standalone="no"?>
<!DOCTYPE svg PUBLIC "-//W3C//DTD SVG 1.1//EN"
  "http://www.w3.org/Graphics/SVG/1.1/DTD/svg11.dtd">
<!-- Created with matplotlib (https://matplotlib.org/) -->
<svg height="345.6pt" version="1.1" viewBox="0 0 460.8 345.6" width="460.8pt" xmlns="http://www.w3.org/2000/svg" xmlns:xlink="http://www.w3.org/1999/xlink">
 <defs>
  <style type="text/css">
*{stroke-linecap:butt;stroke-linejoin:round;}
  </style>
 </defs>
 <g id="figure_1">
  <g id="patch_1">
   <path d="M 0 345.6 
L 460.8 345.6 
L 460.8 0 
L 0 0 
z
" style="fill:#ffffff;"/>
  </g>
  <g id="axes_1">
   <g id="patch_2">
    <path d="M 57.6 307.584 
L 414.72 307.584 
L 414.72 41.472 
L 57.6 41.472 
z
" style="fill:#ffffff;"/>
   </g>
   <g id="line2d_1">
    <path clip-path="url(#p8d5753222a)" d="M 75.594799 291.810903 
L 75.398372 292.073285 
L 75.398372 290.761375 
L 75.594799 290.498993 
L 75.791227 291.286139 
L 76.377621 292.073285 
L 76.574049 292.073285 
L 76.574049 292.335667 
L 76.184082 293.126562 
L 75.987655 293.388944 
L 75.791227 292.860431 
L 76.184082 291.810903 
L 76.574049 291.286139 
L 75.987655 291.286139 
L 75.791227 291.548521 
L 75.791227 291.548521 
L 75.987655 291.548521 
L 76.574049 292.073285 
L 76.184082 292.335667 
L 75.594799 292.598049 
L 75.398372 292.335667 
L 75.791227 291.810903 
L 76.184082 291.810903 
L 76.377621 292.335667 
L 76.377621 293.913708 
L 76.377621 293.126562 
L 76.184082 292.860431 
L 76.184082 292.073285 
L 76.377621 291.810903 
L 76.574049 291.810903 
L 76.574049 291.548521 
L 76.574049 291.810903 
L 76.770477 292.073285 
L 76.574049 291.810903 
L 76.184082 291.810903 
L 75.791227 292.335667 
L 75.398372 292.598049 
L 75.987655 292.335667 
L 76.377621 292.335667 
L 76.184082 292.598049 
L 75.791227 292.598049 
L 75.791227 292.335667 
L 75.594799 292.598049 
L 75.594799 292.860431 
L 75.398372 292.860431 
L 75.398372 292.860431 
L 75.201944 293.126562 
L 74.811977 292.860431 
L 74.811977 292.335667 
L 75.201944 291.810903 
L 75.398372 291.810903 
L 75.201944 292.335667 
L 75.201944 292.860431 
L 75.201944 291.810903 
L 75.008405 291.810903 
L 75.201944 292.073285 
L 75.594799 292.335667 
L 75.398372 292.598049 
L 75.008405 292.860431 
L 74.419122 292.598049 
L 74.419122 292.335667 
L 74.811977 292.073285 
L 75.398372 292.073285 
L 75.398372 292.335667 
L 75.008405 292.335667 
L 75.201944 292.335667 
L 75.398372 291.810903 
L 75.201944 291.548521 
L 74.811977 292.073285 
L 74.222694 292.335667 
L 74.026266 292.860431 
L 74.222694 293.126562 
L 74.222694 293.126562 
L 74.026266 293.126562 
L 73.832727 292.860431 
L 74.026266 292.335667 
L 74.419122 292.073285 
L 75.398372 292.073285 
L 75.008405 291.810903 
L 74.419122 291.810903 
L 74.419122 292.073285 
L 74.615549 292.598049 
L 74.615549 293.388944 
L 74.811977 293.651326 
L 75.398372 293.388944 
L 75.594799 292.860431 
L 75.398372 293.126562 
L 75.201944 293.388944 
L 75.201944 293.388944 
L 75.201944 293.126562 
L 75.201944 293.913708 
L 75.398372 293.913708 
L 75.594799 294.438472 
L 76.184082 295.225618 
L 76.184082 295.225618 
L 76.184082 294.700854 
L 75.987655 293.913708 
L 75.201944 293.126562 
L 74.615549 292.860431 
L 74.811977 293.126562 
L 75.201944 293.913708 
L 75.398372 294.963236 
L 75.201944 295.488 
L 75.398372 295.488 
L 75.398372 295.225618 
L 75.201944 295.225618 
L 74.811977 294.700854 
L 74.811977 293.913708 
L 74.419122 293.388944 
L 74.419122 293.126562 
L 74.419122 293.651326 
L 75.594799 293.651326 
L 75.594799 293.651326 
L 75.008405 293.913708 
L 74.615549 293.913708 
L 75.008405 293.651326 
L 75.594799 292.860431 
L 76.184082 292.335667 
L 76.574049 291.810903 
L 76.770477 292.335667 
L 76.770477 293.126562 
L 76.966905 293.126562 
L 76.966905 293.126562 
L 76.966905 292.860431 
L 77.163332 292.860431 
L 76.574049 292.860431 
L 76.574049 292.073285 
L 76.966905 292.073285 
L 77.946154 292.598049 
L 77.946154 292.860431 
L 78.33901 293.388944 
L 77.749727 292.598049 
L 77.163332 292.073285 
L 77.35976 292.335667 
L 77.749727 292.073285 
L 78.33901 290.236611 
L 78.142582 290.498993 
L 77.553299 290.761375 
L 77.553299 290.498993 
L 77.35976 289.974229 
L 77.553299 289.183334 
L 78.142582 288.920952 
L 78.33901 289.183334 
L 78.33901 289.974229 
L 78.532549 290.498993 
L 78.142582 289.183334 
L 78.532549 289.183334 
L 78.728977 288.920952 
L 78.728977 288.920952 
L 78.728977 289.183334 
L 78.728977 288.920952 
L 79.121832 288.65857 
L 78.728977 288.920952 
L 77.946154 288.920952 
L 78.142582 288.133806 
L 78.142582 286.297132 
L 78.33901 286.559514 
L 78.728977 287.34666 
L 79.121832 287.084278 
L 79.121832 287.34666 
L 79.31826 288.133806 
L 78.925404 288.65857 
L 78.532549 287.871424 
L 78.142582 287.871424 
L 78.532549 287.871424 
L 78.925404 288.396188 
L 78.925404 288.920952 
L 78.728977 288.920952 
L 78.728977 288.133806 
L 79.121832 286.821896 
L 80.297509 285.768619 
L 84.217398 283.407181 
L 87.155147 281.82914 
L 91.072147 280.779612 
L 95.581318 278.939189 
L 100.673995 275.786856 
L 106.552382 271.060231 
L 113.213592 266.595988 
L 120.07123 261.603232 
L 127.125295 256.089461 
L 134.3729 249.522413 
L 142.016248 242.430601 
L 158.8657 228.771741 
L 166.899016 222.467075 
L 182.769218 209.595361 
L 190.019711 203.290695 
L 196.484493 196.986029 
L 202.559309 191.472258 
L 208.241269 186.479502 
L 217.447373 178.07578 
L 221.367261 175.448211 
L 225.677116 173.345407 
L 232.534753 168.094017 
L 235.475392 166.253595 
L 238.216714 164.941684 
L 239.981674 163.629774 
L 241.350891 162.051733 
L 241.940174 160.477441 
L 242.526568 159.948929 
L 242.526568 160.477441 
L 241.940174 161.264587 
L 241.157352 162.83888 
L 240.568069 164.41692 
L 239.785247 164.941684 
L 238.413141 165.466448 
L 237.041036 166.778359 
L 236.258214 167.831635 
L 235.475392 167.831635 
L 234.689681 168.356399 
L 234.103286 169.66831 
L 234.103286 170.983968 
L 234.299714 171.771114 
L 233.710431 172.295878 
L 232.927609 172.55826 
L 232.534753 172.033496 
L 232.338326 171.508732 
L 232.338326 171.771114 
L 232.144787 172.033496 
L 232.144787 172.295878 
L 231.751931 172.295878 
L 231.162648 172.820643 
L 230.772681 173.345407 
L 230.576254 173.873919 
L 230.379826 173.873919 
L 229.986971 173.345407 
L 229.204149 173.083025 
L 228.811293 173.083025 
L 229.204149 173.607789 
L 228.224899 174.398683 
L 227.442077 174.661065 
L 227.049221 174.923447 
L 227.245649 174.923447 
L 227.442077 174.923447 
L 227.442077 174.661065 
L 226.852793 174.661065 
L 226.069971 175.185829 
L 226.069971 175.972975 
L 226.266399 176.49774 
L 225.480688 177.022504 
L 225.090721 177.022504 
L 225.287149 176.760122 
L 225.480688 176.760122 
L 225.287149 176.760122 
L 224.697866 177.022504 
L 223.915044 177.551016 
L 223.129333 177.813398 
L 223.522188 177.288634 
L 223.522188 177.022504 
L 223.522188 177.551016 
L 223.129333 178.07578 
L 222.739366 177.551016 
L 222.739366 177.813398 
L 222.346511 178.07578 
L 221.953656 178.600544 
L 221.563689 179.38769 
L 221.367261 179.38769 
L 221.367261 178.600544 
L 220.974406 178.338162 
L 220.191584 178.862926 
L 220.191584 178.600544 
L 220.191584 178.600544 
L 220.388011 179.125308 
L 220.388011 180.437219 
L 220.191584 181.228113 
L 219.015906 180.703349 
L 218.819478 180.437219 
L 218.819478 180.174837 
L 218.623051 179.912455 
L 218.623051 180.965731 
L 218.819478 181.228113 
L 217.643801 181.228113 
L 217.057406 180.437219 
L 217.057406 180.437219 
L 217.447373 180.437219 
L 217.447373 181.228113 
L 217.057406 182.277641 
L 216.664551 182.540023 
L 216.664551 182.277641 
L 217.253834 182.015259 
L 217.447373 182.277641 
L 216.860979 182.540023 
L 216.078156 182.540023 
L 215.685301 182.277641 
L 215.685301 181.752877 
L 215.881729 181.752877 
L 215.881729 182.802405 
L 216.271695 183.064787 
L 216.271695 183.32717 
L 215.685301 183.589552 
L 214.902479 183.32717 
L 214.313196 182.540023 
L 214.509623 182.802405 
L 214.509623 183.064787 
L 214.313196 183.851934 
L 214.509623 184.118064 
L 214.509623 183.589552 
L 213.530374 184.118064 
L 213.137518 183.851934 
L 213.726801 183.064787 
L 213.726801 183.32717 
L 213.530374 184.118064 
L 213.530374 184.642828 
L 213.333946 184.642828 
L 212.747551 183.851934 
L 212.551124 183.851934 
L 212.551124 183.851934 
L 212.551124 183.064787 
L 212.551124 183.32717 
L 212.354696 183.851934 
L 212.551124 184.642828 
L 212.551124 184.642828 
L 212.354696 184.642828 
L 211.961841 185.692356 
L 212.354696 185.429974 
L 213.137518 185.167592 
L 213.333946 185.429974 
L 213.137518 185.954738 
L 212.747551 185.954738 
L 212.747551 185.167592 
L 212.551124 184.90521 
L 211.961841 185.429974 
L 211.571874 186.21712 
L 211.571874 186.479502 
L 212.354696 186.479502 
L 212.747551 187.004267 
L 213.137518 187.004267 
L 212.941091 187.004267 
L 212.747551 186.741885 
L 212.354696 185.692356 
L 212.158268 185.692356 
L 212.354696 185.954738 
L 212.941091 186.479502 
L 213.530374 186.741885 
L 214.509623 186.741885 
L 215.881729 186.479502 
L 217.643801 185.692356 
L 219.605189 183.851934 
L 222.150083 181.752877 
L 225.090721 179.125308 
L 238.413141 169.66831 
L 244.095101 165.991213 
L 249.580634 162.051733 
L 260.161732 153.648011 
L 265.647264 149.442402 
L 270.936369 144.978159 
L 276.42479 140.776297 
L 281.517467 136.574436 
L 291.705709 126.855055 
L 297.387669 121.8623 
L 303.266057 117.135675 
L 315.022833 109.519098 
L 325.79747 103.214433 
L 343.039777 90.080337 
L 349.114593 85.616093 
L 360.478513 77.995769 
L 366.160473 75.371948 
L 371.842433 72.481998 
L 377.327965 69.854429 
L 382.227103 67.22686 
L 386.34053 64.336909 
L 389.671135 61.184576 
L 392.805313 58.560756 
L 395.353095 56.720333 
L 396.921628 55.146041 
L 397.900878 54.617528 
L 398.487273 54.092764 
L 398.293734 53.830382 
L 397.508023 53.568 
L 396.725201 53.830382 
L 395.942379 54.617528 
L 394.570273 55.408423 
L 393.198168 56.457951 
L 392.022491 58.035992 
L 390.650385 59.347902 
L 389.27828 60.39743 
L 388.495458 61.184576 
L 387.123353 62.237853 
L 386.34053 63.024999 
L 385.947675 63.812145 
L 385.557708 63.812145 
L 385.754136 63.287381 
L 386.34053 63.024999 
L 386.733386 63.024999 
L 386.536958 63.024999 
L 386.536958 62.237853 
L 386.34053 62.237853 
L 386.144103 62.500235 
L 386.144103 62.762617 
L 385.557708 62.237853 
L 384.968425 62.500235 
L 383.402781 62.500235 
L 383.402781 63.287381 
L 383.009926 63.812145 
L 382.813498 64.599291 
L 382.423531 64.865421 
L 381.834248 64.865421 
L 381.441393 65.127804 
L 381.63782 65.390186 
L 382.227103 65.652568 
L 382.030676 66.702096 
L 381.441393 67.22686 
L 380.462143 66.702096 
L 380.462143 67.489242 
L 380.265715 67.489242 
L 380.265715 67.22686 
L 380.854998 67.751624 
L 380.854998 68.014006 
L 380.65857 68.280136 
L 379.679321 70.379193 
L 379.286465 70.379193 
L 379.090037 69.592047 
L 379.090037 68.804901 
L 379.090037 68.804901 
L 378.700071 69.067283 
L 378.307215 69.067283 
L 378.503643 69.592047 
L 378.700071 69.592047 
L 378.503643 69.592047 
L 377.720821 70.379193 
L 377.524393 70.116811 
L 377.327965 70.116811 
L 377.131538 70.903957 
L 377.131538 71.957234 
L 377.524393 72.481998 
L 377.720821 71.957234 
L 377.327965 71.694851 
L 377.131538 71.166339 
L 377.131538 71.166339 
L 376.741571 71.428721 
L 375.95586 71.694851 
L 375.759432 71.428721 
L 375.759432 72.219616 
L 375.95586 72.481998 
L 375.95586 72.481998 
L 375.759432 72.481998 
L 375.173038 73.006762 
L 375.95586 72.219616 
L 375.759432 72.481998 
L 375.565893 73.006762 
L 375.759432 73.793908 
L 375.565893 74.318672 
L 374.97661 74.05629 
L 374.780183 73.793908 
L 374.780183 73.531526 
L 374.780183 73.531526 
L 374.583755 73.531526 
L 374.390216 73.006762 
L 374.583755 73.006762 
L 374.583755 73.006762 
L 374.583755 73.531526 
L 374.97661 75.371948 
L 374.780183 75.371948 
L 374.390216 74.843436 
L 373.800933 74.318672 
L 373.214538 74.318672 
L 373.214538 74.581054 
L 373.408077 75.109566 
L 374.390216 75.634331 
L 374.390216 75.896713 
L 373.604505 75.371948 
L 373.408077 75.634331 
L 373.018111 75.896713 
L 372.625255 75.896713 
L 372.625255 75.896713 
L 373.018111 76.683859 
L 373.408077 76.946241 
L 371.449578 75.634331 
L 371.449578 75.371948 
L 371.449578 75.634331 
L 371.646005 75.634331 
L 371.646005 75.634331 
L 371.25315 76.159095 
L 371.059611 76.159095 
L 371.25315 75.634331 
L 371.449578 75.634331 
L 371.059611 75.371948 
L 370.666756 75.371948 
L 370.470328 75.109566 
L 370.077472 75.109566 
L 369.687506 75.371948 
L 369.491078 76.159095 
L 369.491078 76.946241 
L 369.687506 77.208623 
L 369.687506 77.208623 
L 370.077472 76.421477 
L 370.077472 75.896713 
L 370.077472 75.896713 
L 369.883933 76.159095 
L 369.491078 76.159095 
L 369.098223 76.683859 
L 368.708256 76.946241 
L 368.3154 76.946241 
L 368.3154 77.471005 
L 368.511828 77.471005 
L 368.511828 75.634331 
L 368.511828 77.208623 
L 368.708256 77.208623 
L 368.708256 77.995769 
L 368.708256 77.471005 
L 368.118973 78.258151 
L 367.532578 78.524281 
L 367.336151 79.311428 
L 367.336151 79.311428 
L 367.532578 79.049046 
L 367.726117 79.049046 
L 367.532578 78.786663 
L 367.139723 79.049046 
L 367.139723 78.786663 
L 367.532578 78.524281 
L 367.532578 78.786663 
L 367.336151 79.049046 
L 367.726117 79.049046 
L 367.532578 79.311428 
L 367.139723 79.57381 
L 366.943295 79.049046 
L 367.139723 78.786663 
L 367.336151 79.049046 
L 367.532578 79.57381 
L 367.726117 79.57381 
L 367.532578 79.311428 
L 367.532578 79.311428 
L 367.726117 79.836192 
L 368.118973 80.360956 
L 368.511828 80.360956 
L 366.943295 79.311428 
L 367.139723 79.311428 
L 367.336151 79.311428 
L 367.532578 79.57381 
L 367.532578 79.836192 
L 367.336151 80.360956 
L 366.55044 80.623338 
L 365.767618 80.098574 
L 365.57119 79.311428 
L 365.964045 79.311428 
L 366.356901 79.57381 
L 366.55044 79.311428 
L 366.746867 79.311428 
L 366.943295 79.049046 
L 367.139723 79.57381 
L 367.139723 80.098574 
L 366.943295 80.360956 
L 366.746867 80.360956 
L 366.356901 80.098574 
L 365.964045 79.57381 
L 366.55044 80.360956 
L 366.943295 80.623338 
L 365.57119 79.57381 
L 365.374762 79.311428 
L 365.964045 79.049046 
L 366.746867 79.57381 
L 367.336151 80.623338 
L 366.943295 80.098574 
L 366.55044 79.836192 
L 366.356901 80.098574 
L 366.356901 80.623338 
L 365.964045 80.88572 
L 365.57119 80.360956 
L 365.57119 79.836192 
L 365.964045 79.57381 
L 366.55044 79.57381 
L 366.55044 80.098574 
L 366.160473 80.098574 
L 365.964045 79.836192 
L 365.964045 80.098574 
L 366.356901 80.623338 
L 366.160473 80.360956 
L 366.160473 80.098574 
L 366.160473 80.098574 
L 366.55044 81.148102 
L 366.356901 80.88572 
L 366.356901 79.836192 
L 366.356901 79.836192 
L 365.964045 80.360956 
L 365.374762 80.098574 
L 365.57119 79.049046 
L 366.160473 79.311428 
L 366.356901 80.623338 
L 365.964045 81.672866 
L 366.160473 81.148102 
L 366.160473 80.623338 
L 365.57119 80.623338 
L 365.181223 81.148102 
L 365.181223 81.148102 
L 364.984795 80.88572 
L 364.788368 80.360956 
L 365.57119 82.201378 
L 365.767618 81.938996 
L 365.374762 81.410484 
L 364.788368 80.88572 
L 364.395512 80.88572 
L 364.201973 81.410484 
L 364.201973 81.410484 
L 364.984795 80.360956 
L 364.788368 80.623338 
L 364.005546 80.88572 
L 363.809118 81.148102 
L 363.809118 81.938996 
L 364.005546 82.463761 
L 364.788368 81.938996 
L 365.181223 80.623338 
L 363.219835 81.938996 
L 363.416263 82.201378 
L 363.416263 81.938996 
L 363.219835 81.672866 
L 363.219835 81.410484 
L 363.61269 81.938996 
L 363.809118 81.938996 
L 363.61269 81.938996 
L 363.416263 82.201378 
L 363.219835 82.726143 
L 363.416263 82.201378 
L 362.437013 81.672866 
L 362.63344 81.938996 
L 363.416263 83.513289 
L 362.829868 82.463761 
L 362.829868 81.938996 
L 362.437013 81.938996 
L 362.240585 82.201378 
L 362.437013 82.201378 
L 363.026296 82.726143 
L 363.219835 83.775671 
L 363.026296 84.562817 
L 362.829868 84.562817 
L 362.63344 84.038053 
L 362.829868 83.250907 
L 362.044157 83.250907 
L 361.654191 82.726143 
L 361.850618 81.938996 
L 362.240585 81.938996 
L 362.63344 83.250907 
L 362.044157 83.250907 
L 361.850618 82.463761 
L 361.654191 82.726143 
L 361.654191 83.775671 
L 361.654191 83.775671 
L 361.457763 83.775671 
L 361.261335 83.250907 
L 361.457763 82.988525 
L 361.850618 83.513289 
L 362.240585 82.988525 
L 362.240585 82.726143 
L 361.850618 82.726143 
L 361.261335 83.513289 
L 361.064907 83.513289 
L 360.86848 83.250907 
L 360.674941 83.250907 
L 360.478513 83.513289 
L 360.674941 84.038053 
L 360.674941 83.775671 
L 360.674941 82.988525 
L 360.86848 83.250907 
L 360.478513 83.775671 
L 360.085658 84.038053 
L 359.692802 83.775671 
L 360.085658 82.726143 
L 359.692802 83.513289 
L 357.344336 86.140858 
L 355.775803 86.928004 
L 353.620875 87.452768 
L 351.662376 88.239914 
L 349.897415 89.29319 
L 347.742488 90.867483 
L 341.471244 95.069344 
L 338.533495 96.909767 
L 335.595745 97.959295 
L 332.655107 99.274953 
L 330.303752 100.586864 
L 328.148825 102.161156 
L 326.190325 102.95205 
L 324.621792 103.739197 
L 323.83897 104.788725 
L 322.85972 106.366765 
L 321.88047 107.153912 
L 320.508365 107.416294 
L 318.939832 107.416294 
L 316.19851 107.941058 
L 313.257872 108.465822 
L 312.278622 108.728204 
L 309.340872 109.78148 
L 307.575912 110.043862 
L 306.010267 109.78148 
L 305.031018 108.728204 
L 302.873202 108.20344 
L 302.090379 107.678676 
L 301.697524 107.153912 
L 301.893952 106.89153 
L 301.893952 106.629147 
L 302.090379 106.104383 
L 302.090379 105.575871 
L 301.307557 105.575871 
L 300.718274 105.051107 
L 300.13188 104.001579 
L 298.956202 102.689668 
L 298.759774 102.427286 
L 298.17338 102.689668 
L 296.604847 105.842001 
L 295.625597 106.104383 
L 294.646347 106.104383 
L 293.664209 106.89153 
L 291.315742 108.465822 
L 289.943637 108.990586 
L 289.550782 108.990586 
L 289.550782 108.990586 
L 289.354354 109.256716 
L 288.76796 109.256716 
L 288.76796 108.990586 
L 289.354354 108.20344 
L 289.157926 107.153912 
L 288.76796 107.153912 
L 288.76796 108.465822 
L 288.375104 108.990586 
L 287.395854 108.990586 
L 287.592282 108.20344 
L 288.178677 107.153912 
L 288.375104 106.366765 
L 287.78871 106.366765 
L 287.395854 106.89153 
L 287.592282 107.416294 
L 287.592282 108.20344 
L 287.199427 108.990586 
L 286.80946 109.256716 
L 286.023749 109.256716 
L 285.827321 108.990586 
L 285.827321 108.465822 
L 285.240927 107.678676 
L 284.651644 107.153912 
L 285.044499 107.678676 
L 285.437355 108.728204 
L 285.437355 109.256716 
L 284.261677 109.256716 
L 283.672394 109.519098 
L 283.282427 109.519098 
L 283.282427 109.256716 
L 283.672394 108.990586 
L 284.065249 109.256716 
L 283.475966 110.043862 
L 282.889572 110.043862 
L 283.282427 110.043862 
L 283.086 109.519098 
L 282.693144 108.990586 
L 282.300289 108.728204 
L 281.713894 108.728204 
L 281.713894 109.256716 
L 281.321039 109.256716 
L 280.931072 108.990586 
L 281.321039 108.990586 
L 281.910322 109.256716 
L 281.910322 109.78148 
L 280.931072 109.78148 
L 279.755395 108.728204 
L 279.558967 109.519098 
L 279.166112 110.568627 
L 279.166112 111.093391 
L 279.558967 111.093391 
L 279.951822 110.831009 
L 279.558967 110.568627 
L 277.990434 110.568627 
L 277.794006 110.306245 
L 278.186862 110.043862 
L 278.776145 110.831009 
L 277.990434 109.78148 
L 277.990434 109.78148 
L 278.186862 110.306245 
L 278.579717 110.043862 
L 278.579717 110.043862 
L 278.186862 110.043862 
L 277.40404 109.78148 
L 278.383289 110.568627 
L 278.579717 110.831009 
L 278.383289 110.831009 
L 277.990434 111.093391 
L 277.794006 111.618155 
L 277.40404 111.618155 
L 277.40404 110.831009 
L 277.207612 111.093391 
L 277.207612 111.880537 
L 277.40404 112.142919 
L 277.794006 111.093391 
L 277.600467 111.355773 
L 276.42479 112.142919 
L 276.618329 111.618155 
L 276.42479 111.618155 
L 276.031934 113.196195 
L 276.228362 113.196195 
L 276.228362 113.196195 
L 276.42479 113.458577 
L 276.618329 113.458577 
L 277.011184 113.196195 
L 276.814756 112.933813 
L 276.814756 112.671431 
L 276.814756 112.671431 
L 276.618329 112.671431 
L 276.228362 113.983342 
L 276.42479 114.245724 
L 276.618329 113.983342 
L 276.42479 113.196195 
L 276.031934 112.671431 
L 275.835507 112.671431 
L 276.031934 112.405301 
L 276.42479 112.142919 
L 275.639079 112.671431 
L 275.249112 113.196195 
L 275.44554 113.196195 
L 276.228362 112.671431 
L 276.814756 112.142919 
L 276.618329 111.880537 
L 276.031934 112.142919 
L 275.44554 112.671431 
L 275.44554 112.933813 
L 275.44554 112.933813 
L 275.249112 112.933813 
L 275.249112 112.933813 
L 275.052684 113.196195 
L 275.052684 113.458577 
L 275.249112 113.196195 
L 275.249112 112.671431 
L 275.639079 112.142919 
L 275.835507 112.405301 
L 275.835507 113.196195 
L 276.031934 113.983342 
L 275.835507 114.245724 
L 275.249112 113.983342 
L 274.463401 113.983342 
L 274.269862 114.245724 
L 274.269862 114.245724 
L 274.269862 113.458577 
L 273.877007 113.458577 
L 272.897757 114.508106 
L 271.525652 115.557634 
L 270.74283 116.348528 
L 269.957119 116.61091 
L 266.040119 119.500861 
L 263.099481 121.337536 
L 259.768876 124.752251 
L 255.262594 128.69173 
L 252.128416 131.581681 
L 240.960924 140.251533 
L 237.630319 142.35059 
L 234.299714 144.715776 
L 231.162648 147.343345 
L 225.873544 152.857117 
L 223.129333 154.959921 
L 220.584439 156.271832 
L 218.429512 158.374636 
L 216.860979 160.477441 
L 215.685301 161.789351 
L 214.509623 162.051733 
L 213.530374 162.051733 
L 212.941091 162.83888 
L 212.747551 163.892156 
L 212.941091 164.679302 
L 213.923229 165.204066 
L 216.271695 164.679302 
L 217.253834 164.154538 
L 218.623051 162.314115 
L 219.605189 162.051733 
L 220.388011 162.576498 
L 220.388011 163.629774 
L 220.191584 164.41692 
L 219.798728 165.204066 
L 219.212334 165.72883 
L 218.233084 166.778359 
L 217.057406 167.831635 
L 214.509623 168.881163 
L 213.333946 169.66831 
L 211.765413 173.345407 
L 210.786163 174.398683 
L 209.610486 174.661065 
L 209.024091 174.661065 
L 208.631236 175.710593 
L 207.651986 177.551016 
L 207.25913 177.813398 
L 206.279881 177.813398 
L 206.279881 178.07578 
L 206.476308 178.600544 
L 206.476308 178.600544 
L 206.279881 178.600544 
L 205.889914 178.338162 
L 205.104203 178.600544 
L 204.714236 178.862926 
L 204.517809 179.38769 
L 204.124953 179.912455 
L 203.928526 180.437219 
L 203.928526 181.752877 
L 203.342131 182.015259 
L 202.752848 182.015259 
L 202.362881 182.277641 
L 201.773598 182.540023 
L 200.990776 182.540023 
L 200.990776 182.540023 
L 201.57717 183.064787 
L 202.166454 183.851934 
L 201.970026 184.380446 
L 201.57717 184.642828 
L 201.383631 185.167592 
L 199.032276 185.167592 
L 200.011526 185.167592 
L 200.011526 185.692356 
L 199.618671 186.479502 
L 199.225815 186.741885 
L 199.032276 186.479502 
L 199.225815 186.479502 
L 198.442993 186.479502 
L 197.856599 187.004267 
L 198.050138 187.532779 
L 198.442993 187.795161 
L 198.246565 188.057543 
L 198.050138 188.057543 
L 197.856599 188.319925 
L 197.660171 188.057543 
L 197.660171 187.795161 
L 197.267316 188.582307 
L 196.877349 188.319925 
L 196.484493 187.532779 
L 196.288066 188.057543 
L 196.288066 189.107071 
L 196.484493 189.894217 
L 196.484493 190.947494 
L 196.091638 190.418982 
L 195.701671 189.631835 
L 195.701671 189.107071 
L 195.505244 189.369453 
L 195.308816 190.418982 
L 195.308816 190.418982 
L 193.740283 190.418982 
L 193.543855 190.156599 
L 193.543855 190.418982 
L 193.350316 190.418982 
L 192.957461 190.947494 
L 192.957461 191.209876 
L 193.153888 191.472258 
L 193.350316 191.209876 
L 192.957461 191.209876 
L 192.957461 191.73464 
L 192.368178 191.73464 
L 192.368178 191.73464 
L 192.368178 191.472258 
L 192.368178 191.472258 
L 191.978211 191.209876 
L 191.781783 190.681364 
L 191.781783 190.681364 
L 191.781783 192.259404 
L 191.781783 192.259404 
L 191.585356 191.997022 
L 191.585356 192.259404 
L 191.388928 192.521786 
L 191.585356 192.521786 
L 191.195389 192.784168 
L 190.606106 193.571314 
L 190.019711 193.308932 
L 189.234 191.73464 
L 189.626856 192.259404 
L 190.019711 193.571314 
L 190.019711 194.362209 
L 189.430428 193.833697 
L 189.430428 193.571314 
L 189.626856 193.571314 
L 190.019711 193.308932 
L 190.019711 192.784168 
L 189.037573 191.997022 
L 188.844034 192.259404 
L 189.037573 192.521786 
L 189.234 193.04655 
L 189.234 193.04655 
L 189.037573 193.308932 
L 189.037573 193.571314 
L 189.234 193.833697 
L 189.430428 193.571314 
L 189.037573 193.308932 
L 188.647606 193.833697 
L 188.451178 194.362209 
L 188.647606 194.624591 
L 189.234 193.833697 
L 189.037573 193.833697 
L 189.037573 194.362209 
L 189.234 194.886973 
L 189.037573 195.149355 
L 189.037573 194.886973 
L 188.844034 194.624591 
L 188.647606 194.886973 
L 188.647606 195.674119 
L 187.861895 195.674119 
L 187.275501 196.198883 
L 186.686218 196.461265 
L 186.492679 196.198883 
L 186.882645 196.723647 
L 188.254751 196.723647 
L 188.058323 197.248412 
L 188.058323 197.248412 
L 188.254751 197.510794 
L 187.861895 197.776924 
L 187.079073 197.776924 
L 186.882645 197.510794 
L 187.275501 196.723647 
L 187.668356 196.723647 
L 188.254751 196.986029 
L 188.058323 197.776924 
L 187.275501 199.088834 
L 187.275501 198.56407 
L 187.471928 197.776924 
L 187.471928 198.039306 
L 187.471928 196.986029 
L 186.882645 197.248412 
L 186.296251 198.039306 
L 186.296251 199.088834 
L 186.686218 198.826452 
L 186.686218 198.039306 
L 186.492679 198.56407 
L 186.492679 198.301688 
L 185.903395 197.510794 
L 185.903395 197.776924 
L 186.296251 199.87598 
L 185.317001 199.351216 
L 185.706968 199.613598 
L 186.099823 199.351216 
L 187.079073 199.351216 
L 187.079073 200.138362 
L 186.686218 200.663127 
L 186.296251 200.138362 
L 185.903395 199.351216 
L 185.706968 199.87598 
L 185.706968 200.400744 
L 185.317001 200.138362 
L 184.727718 199.351216 
L 184.337751 199.351216 
L 184.141323 200.400744 
L 184.53129 201.454021 
L 184.924146 201.454021 
L 184.727718 200.925509 
L 184.337751 200.400744 
L 184.53129 200.138362 
L 185.513429 200.138362 
L 185.317001 199.87598 
L 184.924146 200.138362 
L 184.53129 200.138362 
L 184.53129 200.400744 
L 184.727718 200.400744 
L 184.53129 200.138362 
L 183.355613 200.663127 
L 182.965646 200.663127 
L 184.53129 199.613598 
L 185.120573 199.87598 
L 185.513429 199.87598 
L 186.296251 199.613598 
L 187.275501 199.088834 
L 190.019711 196.198883 
L 193.350316 193.833697 
L 197.660171 192.784168 
L 199.422243 191.73464 
L 200.794348 190.156599 
L 201.970026 189.107071 
L 203.342131 188.582307 
L 205.300631 187.266649 
L 206.083453 186.21712 
L 207.065591 184.642828 
L 207.455558 184.90521 
L 207.651986 185.429974 
L 207.25913 185.954738 
L 206.476308 186.21712 
L 206.083453 186.741885 
L 205.693486 186.741885 
L 204.907775 187.004267 
L 204.321381 187.532779 
L 203.734986 188.319925 
L 203.145703 188.582307 
L 202.949276 188.844689 
L 203.145703 189.369453 
L 202.752848 189.369453 
L 202.559309 189.631835 
L 202.752848 189.894217 
L 202.752848 189.631835 
L 202.559309 189.369453 
L 202.166454 189.631835 
L 202.166454 191.73464 
L 202.166454 190.947494 
L 201.57717 190.681364 
L 201.383631 190.418982 
L 201.383631 190.156599 
L 201.57717 189.369453 
L 201.187204 189.369453 
L 201.187204 190.681364 
L 200.990776 191.209876 
L 200.207954 190.947494 
L 199.815098 190.681364 
L 199.815098 190.681364 
L 199.815098 190.947494 
L 199.422243 191.472258 
L 199.422243 191.472258 
L 199.815098 191.472258 
L 200.207954 191.997022 
L 200.207954 192.259404 
L 199.225815 192.259404 
L 199.422243 192.259404 
L 200.401493 192.784168 
L 200.011526 192.521786 
L 199.422243 192.521786 
L 198.835849 192.259404 
L 198.442993 192.521786 
L 198.050138 193.308932 
L 197.856599 193.04655 
L 197.856599 194.096079 
L 198.050138 194.362209 
L 198.246565 194.096079 
L 198.442993 193.571314 
L 198.442993 193.571314 
L 197.856599 194.096079 
L 197.267316 194.886973 
L 197.070888 194.886973 
L 197.267316 194.362209 
L 197.856599 194.096079 
L 197.070888 194.624591 
L 197.267316 194.886973 
L 197.267316 194.362209 
L 196.877349 193.308932 
L 197.070888 193.308932 
L 197.070888 193.833697 
L 197.267316 194.624591 
L 197.267316 195.411737 
L 197.267316 195.411737 
L 196.680921 195.411737 
L 196.680921 195.411737 
L 196.680921 195.149355 
L 196.484493 195.149355 
L 196.288066 195.674119 
L 196.288066 195.149355 
L 196.484493 194.362209 
L 196.288066 193.833697 
L 195.89521 194.362209 
L 195.505244 195.149355 
L 195.505244 195.936501 
L 195.701671 196.461265 
L 195.89521 196.461265 
L 195.701671 195.936501 
L 195.308816 195.674119 
L 195.308816 196.986029 
L 195.112388 197.248412 
L 194.91596 196.986029 
L 194.91596 195.674119 
L 195.112388 194.886973 
L 195.112388 195.149355 
L 195.112388 197.510794 
L 194.719533 196.986029 
L 194.329566 196.986029 
L 193.936711 196.723647 
L 193.936711 196.198883 
L 194.525994 195.936501 
L 194.133138 196.198883 
L 193.543855 196.986029 
L 193.153888 197.248412 
L 192.761033 197.248412 
L 192.957461 196.723647 
L 193.543855 196.723647 
L 193.350316 196.723647 
L 193.350316 197.510794 
L 193.543855 198.039306 
L 193.350316 198.039306 
L 192.957461 197.248412 
L 192.564605 196.986029 
L 192.368178 197.248412 
L 192.368178 197.510794 
L 192.761033 197.510794 
L 193.153888 198.039306 
L 193.936711 198.039306 
L 195.505244 197.248412 
L 199.422243 193.308932 
L 202.362881 191.209876 
L 206.083453 188.844689 
L 210.199769 185.954738 
L 214.706051 182.540023 
L 220.191584 178.600544 
L 226.462827 173.873919 
L 240.568069 163.892156 
L 253.890488 152.857117 
L 261.140981 147.605727 
L 268.195047 141.825826 
L 274.659829 136.045924 
L 281.321039 130.26977 
L 288.375104 124.489869 
L 295.42917 119.234731 
L 301.697524 114.770488 
L 307.185945 110.568627 
L 312.082194 106.104383 
L 317.17776 101.636392 
L 322.663292 97.434531 
L 328.148825 94.019816 
L 333.440818 90.867483 
L 349.311021 82.201378 
L 353.22802 79.049046 
L 356.558625 76.683859 
L 359.499263 74.843436 
L 365.374762 72.481998 
L 367.336151 72.219616 
L 368.118973 71.957234 
L 368.511828 71.694851 
L 368.901795 72.219616 
L 368.901795 72.74438 
L 368.511828 73.793908 
L 367.726117 75.109566 
L 366.55044 75.896713 
L 365.181223 76.159095 
L 364.201973 76.159095 
L 363.219835 76.421477 
L 361.064907 77.995769 
L 360.674941 78.524281 
L 360.282085 79.57381 
L 360.085658 80.623338 
L 359.692802 80.88572 
L 359.106408 80.88572 
L 359.302835 81.148102 
L 359.302835 80.88572 
L 359.302835 80.88572 
L 359.88923 81.410484 
L 360.085658 82.201378 
L 360.282085 82.463761 
L 359.88923 81.938996 
L 359.302835 81.410484 
L 357.93073 81.938996 
L 357.147908 81.938996 
L 356.95148 82.463761 
L 356.95148 82.463761 
L 356.755053 82.463761 
L 356.558625 82.726143 
L 356.362197 83.513289 
L 355.97223 84.038053 
L 355.775803 83.250907 
L 354.796553 85.616093 
L 354.600125 85.353711 
L 354.600125 85.878476 
L 354.403698 86.140858 
L 353.817303 86.40324 
L 352.838053 85.878476 
L 352.641626 85.878476 
L 352.445198 86.140858 
L 352.445198 86.40324 
L 352.641626 86.665622 
L 353.031592 86.928004 
L 353.22802 86.665622 
L 352.838053 86.140858 
L 352.052342 86.40324 
L 351.465948 87.452768 
L 351.465948 87.71515 
L 351.26952 86.928004 
L 351.26952 86.40324 
L 351.465948 87.190386 
L 351.855915 88.239914 
L 351.855915 88.768426 
L 351.662376 88.239914 
L 350.29027 87.452768 
L 350.093843 87.452768 
L 350.29027 87.71515 
L 350.29027 88.239914 
L 350.29027 87.71515 
L 349.897415 87.452768 
L 349.50456 87.452768 
L 349.114593 87.977532 
L 349.114593 88.502296 
L 349.50456 89.030808 
L 349.50456 89.817955 
L 349.311021 89.817955 
L 349.311021 89.555573 
L 349.700987 89.29319 
L 350.093843 90.080337 
L 350.29027 90.867483 
L 349.700987 90.867483 
L 349.50456 91.129865 
L 349.897415 90.080337 
L 350.093843 90.342719 
L 350.29027 90.867483 
L 349.700987 91.654629 
L 348.721737 91.392247 
L 348.135343 90.867483 
L 348.135343 90.867483 
L 348.721737 90.867483 
L 349.114593 91.129865 
L 349.114593 91.654629 
L 348.918165 91.917011 
L 348.918165 91.654629 
L 349.311021 91.129865 
L 349.311021 91.129865 
L 348.918165 91.129865 
L 348.721737 90.605101 
L 348.918165 90.080337 
L 349.50456 89.817955 
L 349.897415 90.080337 
L 350.093843 90.867483 
L 349.897415 91.654629 
L 349.700987 91.654629 
L 349.311021 91.129865 
L 349.50456 90.605101 
L 349.700987 90.605101 
L 349.897415 90.080337 
L 349.700987 89.817955 
L 349.700987 91.129865 
L 349.700987 91.129865 
L 350.29027 90.605101 
L 350.680237 90.080337 
L 350.680237 89.29319 
L 350.486698 88.768426 
L 350.486698 89.030808 
L 350.486698 90.342719 
L 350.680237 90.342719 
L 350.680237 89.817955 
L 350.486698 89.555573 
L 350.093843 89.29319 
L 350.29027 88.768426 
L 350.680237 88.502296 
L 350.680237 88.239914 
L 350.486698 87.977532 
L 351.465948 88.768426 
L 351.662376 89.030808 
L 350.876665 88.502296 
L 350.486698 88.502296 
L 350.680237 88.239914 
L 350.876665 87.452768 
L 350.680237 87.190386 
L 350.680237 86.665622 
L 351.26952 86.665622 
L 352.052342 86.928004 
L 352.24877 87.452768 
L 352.052342 87.71515 
L 351.662376 87.977532 
L 351.465948 87.71515 
L 350.680237 87.452768 
L 350.680237 87.190386 
L 351.662376 87.977532 
L 351.465948 88.239914 
L 351.465948 88.239914 
L 351.26952 88.239914 
L 351.073093 87.71515 
L 351.465948 86.140858 
L 351.073093 86.140858 
L 350.680237 86.665622 
L 350.29027 86.665622 
L 350.29027 86.665622 
L 350.680237 87.452768 
L 351.26952 87.71515 
L 351.26952 87.452768 
L 350.680237 87.190386 
L 350.093843 87.190386 
L 349.50456 86.665622 
L 349.897415 86.665622 
L 350.29027 87.190386 
L 350.486698 87.977532 
L 350.876665 88.239914 
L 351.073093 87.977532 
L 351.073093 87.452768 
L 351.26952 86.928004 
L 351.073093 86.665622 
L 350.486698 87.190386 
L 349.700987 87.71515 
L 349.50456 88.239914 
L 349.897415 88.768426 
L 350.29027 89.030808 
L 351.073093 89.29319 
L 351.26952 89.555573 
L 351.073093 89.555573 
L 351.073093 89.29319 
L 351.662376 89.030808 
L 351.662376 88.768426 
L 350.680237 88.768426 
L 349.897415 89.29319 
L 350.093843 89.030808 
L 350.876665 88.239914 
L 351.073093 88.239914 
L 350.680237 89.030808 
L 350.876665 88.768426 
L 351.073093 88.502296 
L 351.073093 87.71515 
L 350.680237 87.452768 
L 350.29027 87.452768 
L 350.486698 87.452768 
L 350.680237 87.71515 
L 351.073093 89.29319 
L 351.073093 89.817955 
L 351.073093 89.555573 
L 350.876665 89.030808 
L 350.876665 88.502296 
L 351.26952 88.239914 
L 351.662376 88.239914 
L 351.662376 87.977532 
L 352.052342 86.928004 
L 352.24877 86.928004 
L 352.052342 87.71515 
L 351.662376 88.502296 
L 351.26952 88.768426 
L 351.26952 88.502296 
L 351.662376 87.977532 
L 351.855915 87.452768 
L 352.052342 87.71515 
L 351.662376 89.555573 
L 351.662376 89.29319 
L 351.465948 88.502296 
L 351.855915 88.502296 
L 353.22802 87.977532 
L 353.031592 88.239914 
L 352.641626 88.502296 
L 352.445198 88.768426 
L 352.445198 88.768426 
L 352.445198 88.502296 
L 353.031592 88.502296 
L 354.20727 87.71515 
L 358.127158 86.40324 
L 359.106408 85.353711 
L 360.085658 83.513289 
L 364.005546 80.098574 
L 366.943295 78.258151 
L 367.922545 77.995769 
L 369.883933 76.421477 
L 370.666756 75.634331 
L 371.25315 74.581054 
L 371.646005 73.006762 
L 371.449578 73.793908 
L 371.449578 73.531526 
L 371.646005 73.006762 
L 371.25315 73.006762 
L 369.883933 74.318672 
L 369.491078 74.318672 
L 368.901795 74.05629 
L 368.118973 74.05629 
L 367.922545 74.318672 
L 368.118973 74.843436 
L 368.708256 75.634331 
L 369.29465 75.634331 
L 369.491078 75.371948 
L 369.098223 74.843436 
L 368.901795 74.843436 
L 368.3154 75.371948 
L 368.511828 75.109566 
L 368.511828 75.371948 
L 368.3154 75.896713 
L 368.3154 76.421477 
L 368.3154 75.896713 
L 367.922545 75.896713 
L 367.532578 76.683859 
L 367.922545 76.159095 
L 368.3154 75.896713 
L 367.922545 75.371948 
L 367.139723 75.371948 
L 367.336151 75.371948 
L 367.532578 74.843436 
L 366.746867 76.683859 
L 366.746867 76.683859 
L 367.336151 76.159095 
L 366.55044 76.946241 
L 366.356901 76.683859 
L 366.356901 76.683859 
L 366.746867 76.946241 
L 367.336151 77.733387 
L 367.336151 77.471005 
L 367.139723 77.733387 
L 366.356901 77.995769 
L 365.964045 78.258151 
L 366.160473 77.995769 
L 365.767618 77.471005 
L 365.767618 77.471005 
L 366.160473 77.471005 
L 366.160473 77.995769 
L 365.964045 78.258151 
L 365.964045 77.995769 
L 365.964045 77.995769 
L 365.767618 78.258151 
L 365.374762 78.524281 
L 364.984795 78.524281 
L 364.984795 79.049046 
L 365.57119 79.57381 
L 366.160473 79.57381 
L 366.55044 79.049046 
L 366.356901 78.524281 
L 366.160473 78.524281 
L 366.160473 79.049046 
L 365.964045 79.57381 
L 365.767618 79.311428 
L 365.57119 78.786663 
L 365.964045 79.57381 
L 366.160473 79.836192 
L 366.160473 79.57381 
L 365.964045 79.311428 
L 365.767618 79.57381 
L 365.767618 80.623338 
L 365.57119 80.88572 
L 365.374762 80.88572 
L 365.374762 80.360956 
L 366.55044 79.311428 
L 366.943295 79.57381 
L 367.139723 80.098574 
L 366.746867 80.098574 
L 366.160473 79.836192 
L 365.57119 79.836192 
L 365.374762 79.311428 
L 365.767618 78.786663 
L 366.160473 78.786663 
L 366.55044 79.57381 
L 366.55044 79.836192 
L 366.356901 80.098574 
L 365.767618 80.360956 
L 365.181223 80.098574 
L 364.984795 79.57381 
L 365.374762 79.049046 
L 365.767618 79.57381 
L 365.767618 80.098574 
L 365.57119 80.360956 
L 365.964045 80.360956 
L 365.964045 80.360956 
L 365.964045 79.57381 
L 365.964045 80.098574 
L 365.767618 80.098574 
L 365.57119 79.57381 
L 365.767618 79.836192 
L 365.767618 80.623338 
L 365.57119 81.148102 
L 365.57119 79.57381 
L 365.57119 79.836192 
L 365.374762 80.360956 
L 364.788368 80.360956 
L 364.788368 80.098574 
L 364.984795 79.57381 
L 365.374762 79.049046 
L 365.767618 78.786663 
L 364.395512 79.836192 
L 363.809118 79.311428 
L 364.005546 79.049046 
L 364.201973 79.049046 
L 364.201973 79.049046 
L 364.59194 78.786663 
L 365.374762 78.786663 
L 364.788368 78.524281 
L 364.59194 78.786663 
L 364.984795 79.57381 
L 364.59194 79.57381 
L 364.005546 79.311428 
L 363.61269 79.311428 
L 364.005546 79.311428 
L 364.984795 78.524281 
L 364.788368 77.995769 
L 364.59194 77.995769 
L 364.395512 78.258151 
L 364.395512 78.258151 
L 364.005546 78.524281 
L 363.809118 79.049046 
L 364.005546 79.57381 
L 364.201973 79.57381 
L 364.201973 79.311428 
L 364.395512 79.049046 
L 364.395512 79.049046 
L 364.788368 79.049046 
L 364.59194 79.311428 
L 363.416263 79.311428 
L 363.61269 79.836192 
L 364.005546 79.836192 
L 364.395512 79.311428 
L 364.788368 79.311428 
L 363.809118 79.311428 
L 362.829868 79.049046 
L 362.63344 79.311428 
L 364.395512 79.311428 
L 364.005546 79.049046 
L 363.61269 79.049046 
L 363.61269 80.623338 
L 363.416263 80.098574 
L 363.416263 79.311428 
L 363.809118 80.623338 
L 363.809118 81.148102 
L 363.416263 80.88572 
L 363.219835 80.098574 
L 363.026296 80.098574 
L 363.219835 80.360956 
L 363.416263 80.360956 
L 363.809118 80.098574 
L 363.809118 80.098574 
L 363.026296 80.098574 
L 363.416263 80.098574 
L 363.61269 80.360956 
L 363.416263 80.88572 
L 363.61269 81.148102 
L 364.201973 81.410484 
L 364.788368 81.148102 
L 364.984795 80.88572 
L 364.005546 81.410484 
L 363.026296 81.410484 
L 363.026296 81.410484 
L 363.219835 81.148102 
L 363.219835 80.098574 
L 363.416263 79.836192 
L 363.416263 80.88572 
L 363.61269 80.88572 
L 364.005546 81.672866 
L 364.005546 81.938996 
L 364.005546 81.938996 
L 363.61269 81.672866 
L 362.240585 81.672866 
L 362.437013 81.672866 
L 363.219835 81.938996 
L 364.005546 81.938996 
L 364.005546 82.201378 
L 363.61269 82.463761 
L 363.219835 82.201378 
L 363.026296 81.148102 
L 363.026296 80.360956 
L 363.026296 80.360956 
L 363.219835 80.623338 
L 363.219835 80.88572 
L 363.416263 81.148102 
L 363.416263 81.672866 
L 363.219835 82.463761 
L 363.219835 83.250907 
L 363.026296 83.250907 
L 362.63344 82.726143 
L 362.63344 82.201378 
L 362.63344 82.463761 
L 362.240585 82.726143 
L 362.240585 82.463761 
L 362.437013 82.726143 
L 362.240585 82.988525 
L 362.437013 82.726143 
L 362.240585 82.463761 
L 361.850618 82.726143 
L 361.261335 83.513289 
L 361.457763 82.988525 
L 361.850618 82.726143 
L 362.240585 83.250907 
L 362.829868 82.726143 
L 362.829868 82.988525 
L 362.437013 83.513289 
L 361.850618 84.038053 
L 361.457763 84.038053 
L 361.457763 83.775671 
L 361.654191 83.775671 
L 361.654191 84.038053 
L 361.064907 84.038053 
L 360.674941 83.775671 
L 360.674941 84.038053 
L 360.86848 84.300435 
L 361.261335 84.562817 
L 361.261335 84.562817 
L 361.261335 84.300435 
L 361.064907 83.513289 
L 361.261335 84.038053 
L 361.261335 84.825199 
L 361.064907 85.353711 
L 360.86848 85.353711 
L 360.478513 85.616093 
L 359.88923 85.616093 
L 359.106408 85.878476 
L 358.713552 85.616093 
L 358.713552 85.087581 
L 359.302835 84.562817 
L 360.085658 84.562817 
L 360.674941 85.353711 
L 360.86848 85.878476 
L 360.674941 86.140858 
L 360.085658 85.878476 
L 359.499263 86.40324 
L 359.106408 85.878476 
L 358.713552 85.087581 
L 358.90998 84.825199 
L 359.499263 84.825199 
L 359.88923 85.353711 
L 360.085658 86.140858 
L 359.88923 86.665622 
L 359.302835 85.878476 
L 359.302835 85.878476 
L 359.499263 85.616093 
L 359.499263 85.087581 
L 359.106408 85.353711 
L 359.106408 86.40324 
L 358.90998 87.452768 
L 357.734302 85.878476 
L 357.537875 86.140858 
L 357.147908 86.40324 
L 357.147908 86.140858 
L 357.537875 85.616093 
L 357.734302 85.878476 
L 357.734302 86.140858 
L 357.93073 86.40324 
L 358.127158 87.190386 
L 357.93073 86.665622 
L 357.537875 86.140858 
L 356.558625 85.616093 
L 356.558625 85.616093 
L 357.344336 85.616093 
L 357.147908 85.353711 
L 356.95148 85.878476 
L 356.95148 86.40324 
L 357.147908 86.665622 
L 356.95148 86.928004 
L 356.168658 86.928004 
L 356.168658 86.928004 
L 356.558625 86.665622 
L 356.558625 87.190386 
L 356.362197 87.977532 
L 356.362197 87.977532 
L 356.168658 87.190386 
L 355.775803 86.665622 
L 355.382947 86.928004 
L 354.992981 86.665622 
L 355.18652 86.40324 
L 355.579375 86.928004 
L 355.579375 87.452768 
L 355.18652 87.190386 
L 354.796553 86.665622 
L 354.796553 86.140858 
L 354.600125 85.878476 
L 354.992981 85.878476 
L 354.992981 85.878476 
L 354.600125 86.40324 
L 354.992981 86.40324 
L 355.18652 87.190386 
L 354.403698 85.087581 
L 354.010842 85.616093 
L 354.403698 85.878476 
L 354.796553 85.616093 
L 354.796553 85.353711 
L 354.600125 85.616093 
L 354.403698 86.140858 
L 354.403698 86.928004 
L 353.620875 86.665622 
L 353.817303 86.40324 
L 353.817303 86.665622 
L 353.817303 86.665622 
L 354.010842 86.928004 
L 353.817303 87.452768 
L 353.424448 87.71515 
L 353.22802 86.928004 
L 353.22802 85.878476 
L 352.838053 85.878476 
L 352.24877 86.140858 
L 352.052342 86.40324 
L 352.24877 86.665622 
L 352.838053 87.71515 
L 353.22802 87.977532 
L 353.22802 87.452768 
L 353.424448 87.190386 
L 353.620875 87.190386 
L 353.620875 87.190386 
L 353.22802 87.977532 
L 353.22802 86.928004 
L 353.424448 86.928004 
L 353.620875 87.71515 
L 353.620875 88.239914 
L 353.620875 87.977532 
L 353.031592 87.452768 
L 352.838053 87.190386 
L 353.031592 86.928004 
L 353.031592 86.928004 
L 353.424448 87.71515 
L 353.424448 87.452768 
L 352.838053 87.452768 
L 352.24877 86.928004 
L 352.445198 87.452768 
L 352.052342 88.768426 
L 352.052342 88.768426 
" style="fill:none;stroke:#1f77b4;stroke-linecap:square;stroke-width:1.5;"/>
   </g>
   <g id="matplotlib.axis_1">
    <g id="xtick_1">
     <g id="line2d_2">
      <defs>
       <path d="M 0 0 
L 0 3.5 
" id="mca84093043" style="stroke:#000000;stroke-width:0.8;"/>
      </defs>
      <g>
       <use style="stroke:#000000;stroke-width:0.8;" x="109.328368" xlink:href="#mca84093043" y="307.584"/>
      </g>
     </g>
     <g id="text_1">
      <!-- −600 -->
      <defs>
       <path d="M 10.59375 35.5 
L 73.1875 35.5 
L 73.1875 27.203125 
L 10.59375 27.203125 
z
" id="DejaVuSans-8722"/>
       <path d="M 33.015625 40.375 
Q 26.375 40.375 22.484375 35.828125 
Q 18.609375 31.296875 18.609375 23.390625 
Q 18.609375 15.53125 22.484375 10.953125 
Q 26.375 6.390625 33.015625 6.390625 
Q 39.65625 6.390625 43.53125 10.953125 
Q 47.40625 15.53125 47.40625 23.390625 
Q 47.40625 31.296875 43.53125 35.828125 
Q 39.65625 40.375 33.015625 40.375 
z
M 52.59375 71.296875 
L 52.59375 62.3125 
Q 48.875 64.0625 45.09375 64.984375 
Q 41.3125 65.921875 37.59375 65.921875 
Q 27.828125 65.921875 22.671875 59.328125 
Q 17.53125 52.734375 16.796875 39.40625 
Q 19.671875 43.65625 24.015625 45.921875 
Q 28.375 48.1875 33.59375 48.1875 
Q 44.578125 48.1875 50.953125 41.515625 
Q 57.328125 34.859375 57.328125 23.390625 
Q 57.328125 12.15625 50.6875 5.359375 
Q 44.046875 -1.421875 33.015625 -1.421875 
Q 20.359375 -1.421875 13.671875 8.265625 
Q 6.984375 17.96875 6.984375 36.375 
Q 6.984375 53.65625 15.1875 63.9375 
Q 23.390625 74.21875 37.203125 74.21875 
Q 40.921875 74.21875 44.703125 73.484375 
Q 48.484375 72.75 52.59375 71.296875 
z
" id="DejaVuSans-54"/>
       <path d="M 31.78125 66.40625 
Q 24.171875 66.40625 20.328125 58.90625 
Q 16.5 51.421875 16.5 36.375 
Q 16.5 21.390625 20.328125 13.890625 
Q 24.171875 6.390625 31.78125 6.390625 
Q 39.453125 6.390625 43.28125 13.890625 
Q 47.125 21.390625 47.125 36.375 
Q 47.125 51.421875 43.28125 58.90625 
Q 39.453125 66.40625 31.78125 66.40625 
z
M 31.78125 74.21875 
Q 44.046875 74.21875 50.515625 64.515625 
Q 56.984375 54.828125 56.984375 36.375 
Q 56.984375 17.96875 50.515625 8.265625 
Q 44.046875 -1.421875 31.78125 -1.421875 
Q 19.53125 -1.421875 13.0625 8.265625 
Q 6.59375 17.96875 6.59375 36.375 
Q 6.59375 54.828125 13.0625 64.515625 
Q 19.53125 74.21875 31.78125 74.21875 
z
" id="DejaVuSans-48"/>
      </defs>
      <g transform="translate(95.594774 322.182437)scale(0.1 -0.1)">
       <use xlink:href="#DejaVuSans-8722"/>
       <use x="83.789062" xlink:href="#DejaVuSans-54"/>
       <use x="147.412109" xlink:href="#DejaVuSans-48"/>
       <use x="211.035156" xlink:href="#DejaVuSans-48"/>
      </g>
     </g>
    </g>
    <g id="xtick_2">
     <g id="line2d_3">
      <g>
       <use style="stroke:#000000;stroke-width:0.8;" x="167.101221" xlink:href="#mca84093043" y="307.584"/>
      </g>
     </g>
     <g id="text_2">
      <!-- −400 -->
      <defs>
       <path d="M 37.796875 64.3125 
L 12.890625 25.390625 
L 37.796875 25.390625 
z
M 35.203125 72.90625 
L 47.609375 72.90625 
L 47.609375 25.390625 
L 58.015625 25.390625 
L 58.015625 17.1875 
L 47.609375 17.1875 
L 47.609375 0 
L 37.796875 0 
L 37.796875 17.1875 
L 4.890625 17.1875 
L 4.890625 26.703125 
z
" id="DejaVuSans-52"/>
      </defs>
      <g transform="translate(153.367627 322.182437)scale(0.1 -0.1)">
       <use xlink:href="#DejaVuSans-8722"/>
       <use x="83.789062" xlink:href="#DejaVuSans-52"/>
       <use x="147.412109" xlink:href="#DejaVuSans-48"/>
       <use x="211.035156" xlink:href="#DejaVuSans-48"/>
      </g>
     </g>
    </g>
    <g id="xtick_3">
     <g id="line2d_4">
      <g>
       <use style="stroke:#000000;stroke-width:0.8;" x="224.874073" xlink:href="#mca84093043" y="307.584"/>
      </g>
     </g>
     <g id="text_3">
      <!-- −200 -->
      <defs>
       <path d="M 19.1875 8.296875 
L 53.609375 8.296875 
L 53.609375 0 
L 7.328125 0 
L 7.328125 8.296875 
Q 12.9375 14.109375 22.625 23.890625 
Q 32.328125 33.6875 34.8125 36.53125 
Q 39.546875 41.84375 41.421875 45.53125 
Q 43.3125 49.21875 43.3125 52.78125 
Q 43.3125 58.59375 39.234375 62.25 
Q 35.15625 65.921875 28.609375 65.921875 
Q 23.96875 65.921875 18.8125 64.3125 
Q 13.671875 62.703125 7.8125 59.421875 
L 7.8125 69.390625 
Q 13.765625 71.78125 18.9375 73 
Q 24.125 74.21875 28.421875 74.21875 
Q 39.75 74.21875 46.484375 68.546875 
Q 53.21875 62.890625 53.21875 53.421875 
Q 53.21875 48.921875 51.53125 44.890625 
Q 49.859375 40.875 45.40625 35.40625 
Q 44.1875 33.984375 37.640625 27.21875 
Q 31.109375 20.453125 19.1875 8.296875 
z
" id="DejaVuSans-50"/>
      </defs>
      <g transform="translate(211.140479 322.182437)scale(0.1 -0.1)">
       <use xlink:href="#DejaVuSans-8722"/>
       <use x="83.789062" xlink:href="#DejaVuSans-50"/>
       <use x="147.412109" xlink:href="#DejaVuSans-48"/>
       <use x="211.035156" xlink:href="#DejaVuSans-48"/>
      </g>
     </g>
    </g>
    <g id="xtick_4">
     <g id="line2d_5">
      <g>
       <use style="stroke:#000000;stroke-width:0.8;" x="282.646926" xlink:href="#mca84093043" y="307.584"/>
      </g>
     </g>
     <g id="text_4">
      <!-- 0 -->
      <g transform="translate(279.465676 322.182437)scale(0.1 -0.1)">
       <use xlink:href="#DejaVuSans-48"/>
      </g>
     </g>
    </g>
    <g id="xtick_5">
     <g id="line2d_6">
      <g>
       <use style="stroke:#000000;stroke-width:0.8;" x="340.419779" xlink:href="#mca84093043" y="307.584"/>
      </g>
     </g>
     <g id="text_5">
      <!-- 200 -->
      <g transform="translate(330.876029 322.182437)scale(0.1 -0.1)">
       <use xlink:href="#DejaVuSans-50"/>
       <use x="63.623047" xlink:href="#DejaVuSans-48"/>
       <use x="127.246094" xlink:href="#DejaVuSans-48"/>
      </g>
     </g>
    </g>
    <g id="xtick_6">
     <g id="line2d_7">
      <g>
       <use style="stroke:#000000;stroke-width:0.8;" x="398.192631" xlink:href="#mca84093043" y="307.584"/>
      </g>
     </g>
     <g id="text_6">
      <!-- 400 -->
      <g transform="translate(388.648881 322.182437)scale(0.1 -0.1)">
       <use xlink:href="#DejaVuSans-52"/>
       <use x="63.623047" xlink:href="#DejaVuSans-48"/>
       <use x="127.246094" xlink:href="#DejaVuSans-48"/>
      </g>
     </g>
    </g>
   </g>
   <g id="matplotlib.axis_2">
    <g id="ytick_1">
     <g id="line2d_8">
      <defs>
       <path d="M 0 0 
L -3.5 0 
" id="m71b756e160" style="stroke:#000000;stroke-width:0.8;"/>
      </defs>
      <g>
       <use style="stroke:#000000;stroke-width:0.8;" x="57.6" xlink:href="#m71b756e160" y="293.08533"/>
      </g>
     </g>
     <g id="text_7">
      <!-- −300 -->
      <defs>
       <path d="M 40.578125 39.3125 
Q 47.65625 37.796875 51.625 33 
Q 55.609375 28.21875 55.609375 21.1875 
Q 55.609375 10.40625 48.1875 4.484375 
Q 40.765625 -1.421875 27.09375 -1.421875 
Q 22.515625 -1.421875 17.65625 -0.515625 
Q 12.796875 0.390625 7.625 2.203125 
L 7.625 11.71875 
Q 11.71875 9.328125 16.59375 8.109375 
Q 21.484375 6.890625 26.8125 6.890625 
Q 36.078125 6.890625 40.9375 10.546875 
Q 45.796875 14.203125 45.796875 21.1875 
Q 45.796875 27.640625 41.28125 31.265625 
Q 36.765625 34.90625 28.71875 34.90625 
L 20.21875 34.90625 
L 20.21875 43.015625 
L 29.109375 43.015625 
Q 36.375 43.015625 40.234375 45.921875 
Q 44.09375 48.828125 44.09375 54.296875 
Q 44.09375 59.90625 40.109375 62.90625 
Q 36.140625 65.921875 28.71875 65.921875 
Q 24.65625 65.921875 20.015625 65.03125 
Q 15.375 64.15625 9.8125 62.3125 
L 9.8125 71.09375 
Q 15.4375 72.65625 20.34375 73.4375 
Q 25.25 74.21875 29.59375 74.21875 
Q 40.828125 74.21875 47.359375 69.109375 
Q 53.90625 64.015625 53.90625 55.328125 
Q 53.90625 49.265625 50.4375 45.09375 
Q 46.96875 40.921875 40.578125 39.3125 
z
" id="DejaVuSans-51"/>
      </defs>
      <g transform="translate(23.132812 296.884549)scale(0.1 -0.1)">
       <use xlink:href="#DejaVuSans-8722"/>
       <use x="83.789062" xlink:href="#DejaVuSans-51"/>
       <use x="147.412109" xlink:href="#DejaVuSans-48"/>
       <use x="211.035156" xlink:href="#DejaVuSans-48"/>
      </g>
     </g>
    </g>
    <g id="ytick_2">
     <g id="line2d_9">
      <g>
       <use style="stroke:#000000;stroke-width:0.8;" x="57.6" xlink:href="#m71b756e160" y="255.60218"/>
      </g>
     </g>
     <g id="text_8">
      <!-- −200 -->
      <g transform="translate(23.132812 259.401399)scale(0.1 -0.1)">
       <use xlink:href="#DejaVuSans-8722"/>
       <use x="83.789062" xlink:href="#DejaVuSans-50"/>
       <use x="147.412109" xlink:href="#DejaVuSans-48"/>
       <use x="211.035156" xlink:href="#DejaVuSans-48"/>
      </g>
     </g>
    </g>
    <g id="ytick_3">
     <g id="line2d_10">
      <g>
       <use style="stroke:#000000;stroke-width:0.8;" x="57.6" xlink:href="#m71b756e160" y="218.11903"/>
      </g>
     </g>
     <g id="text_9">
      <!-- −100 -->
      <defs>
       <path d="M 12.40625 8.296875 
L 28.515625 8.296875 
L 28.515625 63.921875 
L 10.984375 60.40625 
L 10.984375 69.390625 
L 28.421875 72.90625 
L 38.28125 72.90625 
L 38.28125 8.296875 
L 54.390625 8.296875 
L 54.390625 0 
L 12.40625 0 
z
" id="DejaVuSans-49"/>
      </defs>
      <g transform="translate(23.132812 221.918248)scale(0.1 -0.1)">
       <use xlink:href="#DejaVuSans-8722"/>
       <use x="83.789062" xlink:href="#DejaVuSans-49"/>
       <use x="147.412109" xlink:href="#DejaVuSans-48"/>
       <use x="211.035156" xlink:href="#DejaVuSans-48"/>
      </g>
     </g>
    </g>
    <g id="ytick_4">
     <g id="line2d_11">
      <g>
       <use style="stroke:#000000;stroke-width:0.8;" x="57.6" xlink:href="#m71b756e160" y="180.635879"/>
      </g>
     </g>
     <g id="text_10">
      <!-- 0 -->
      <g transform="translate(44.2375 184.435098)scale(0.1 -0.1)">
       <use xlink:href="#DejaVuSans-48"/>
      </g>
     </g>
    </g>
    <g id="ytick_5">
     <g id="line2d_12">
      <g>
       <use style="stroke:#000000;stroke-width:0.8;" x="57.6" xlink:href="#m71b756e160" y="143.152729"/>
      </g>
     </g>
     <g id="text_11">
      <!-- 100 -->
      <g transform="translate(31.5125 146.951948)scale(0.1 -0.1)">
       <use xlink:href="#DejaVuSans-49"/>
       <use x="63.623047" xlink:href="#DejaVuSans-48"/>
       <use x="127.246094" xlink:href="#DejaVuSans-48"/>
      </g>
     </g>
    </g>
    <g id="ytick_6">
     <g id="line2d_13">
      <g>
       <use style="stroke:#000000;stroke-width:0.8;" x="57.6" xlink:href="#m71b756e160" y="105.669579"/>
      </g>
     </g>
     <g id="text_12">
      <!-- 200 -->
      <g transform="translate(31.5125 109.468798)scale(0.1 -0.1)">
       <use xlink:href="#DejaVuSans-50"/>
       <use x="63.623047" xlink:href="#DejaVuSans-48"/>
       <use x="127.246094" xlink:href="#DejaVuSans-48"/>
      </g>
     </g>
    </g>
    <g id="ytick_7">
     <g id="line2d_14">
      <g>
       <use style="stroke:#000000;stroke-width:0.8;" x="57.6" xlink:href="#m71b756e160" y="68.186429"/>
      </g>
     </g>
     <g id="text_13">
      <!-- 300 -->
      <g transform="translate(31.5125 71.985647)scale(0.1 -0.1)">
       <use xlink:href="#DejaVuSans-51"/>
       <use x="63.623047" xlink:href="#DejaVuSans-48"/>
       <use x="127.246094" xlink:href="#DejaVuSans-48"/>
      </g>
     </g>
    </g>
   </g>
   <g id="line2d_15">
    <path clip-path="url(#p8d5753222a)" d="M 77.043839 291.317125 
L 226.321934 175.086212 
L 380.724468 67.999394 
L 365.013726 80.670443 
L 290.171528 108.278994 
L 199.665577 185.109654 
L 193.595941 194.821112 
L 358.605899 83.582241 
" style="fill:none;stroke:#ff0000;stroke-linecap:square;stroke-width:0.5;"/>
   </g>
   <g id="patch_3">
    <path d="M 57.6 307.584 
L 57.6 41.472 
" style="fill:none;stroke:#000000;stroke-linecap:square;stroke-linejoin:miter;stroke-width:0.8;"/>
   </g>
   <g id="patch_4">
    <path d="M 414.72 307.584 
L 414.72 41.472 
" style="fill:none;stroke:#000000;stroke-linecap:square;stroke-linejoin:miter;stroke-width:0.8;"/>
   </g>
   <g id="patch_5">
    <path d="M 57.6 307.584 
L 414.72 307.584 
" style="fill:none;stroke:#000000;stroke-linecap:square;stroke-linejoin:miter;stroke-width:0.8;"/>
   </g>
   <g id="patch_6">
    <path d="M 57.6 41.472 
L 414.72 41.472 
" style="fill:none;stroke:#000000;stroke-linecap:square;stroke-linejoin:miter;stroke-width:0.8;"/>
   </g>
   <g id="PathCollection_1">
    <defs>
     <path d="M 0 2.738613 
C 0.726289 2.738613 1.422928 2.450055 1.936492 1.936492 
C 2.450055 1.422928 2.738613 0.726289 2.738613 0 
C 2.738613 -0.726289 2.450055 -1.422928 1.936492 -1.936492 
C 1.422928 -2.450055 0.726289 -2.738613 0 -2.738613 
C -0.726289 -2.738613 -1.422928 -2.450055 -1.936492 -1.936492 
C -2.450055 -1.422928 -2.738613 -0.726289 -2.738613 0 
C -2.738613 0.726289 -2.450055 1.422928 -1.936492 1.936492 
C -1.422928 2.450055 -0.726289 2.738613 0 2.738613 
z
" id="mc718af9fb7" style="stroke:#ff0000;"/>
    </defs>
    <g clip-path="url(#p8d5753222a)">
     <use style="fill:#ff0000;stroke:#ff0000;" x="77.043839" xlink:href="#mc718af9fb7" y="291.317125"/>
     <use style="fill:#ff0000;stroke:#ff0000;" x="226.321934" xlink:href="#mc718af9fb7" y="175.086212"/>
     <use style="fill:#ff0000;stroke:#ff0000;" x="380.724468" xlink:href="#mc718af9fb7" y="67.999394"/>
     <use style="fill:#ff0000;stroke:#ff0000;" x="365.013726" xlink:href="#mc718af9fb7" y="80.670443"/>
     <use style="fill:#ff0000;stroke:#ff0000;" x="290.171528" xlink:href="#mc718af9fb7" y="108.278994"/>
     <use style="fill:#ff0000;stroke:#ff0000;" x="199.665577" xlink:href="#mc718af9fb7" y="185.109654"/>
     <use style="fill:#ff0000;stroke:#ff0000;" x="193.595941" xlink:href="#mc718af9fb7" y="194.821112"/>
     <use style="fill:#ff0000;stroke:#ff0000;" x="358.605899" xlink:href="#mc718af9fb7" y="83.582241"/>
    </g>
   </g>
   <g id="text_14">
    <!-- (32) Subject: s13, Known = False, Degree = 1, Duration = 0.1 -->
    <defs>
     <path d="M 31 75.875 
Q 24.46875 64.65625 21.28125 53.65625 
Q 18.109375 42.671875 18.109375 31.390625 
Q 18.109375 20.125 21.3125 9.0625 
Q 24.515625 -2 31 -13.1875 
L 23.1875 -13.1875 
Q 15.875 -1.703125 12.234375 9.375 
Q 8.59375 20.453125 8.59375 31.390625 
Q 8.59375 42.28125 12.203125 53.3125 
Q 15.828125 64.359375 23.1875 75.875 
z
" id="DejaVuSans-40"/>
     <path d="M 8.015625 75.875 
L 15.828125 75.875 
Q 23.140625 64.359375 26.78125 53.3125 
Q 30.421875 42.28125 30.421875 31.390625 
Q 30.421875 20.453125 26.78125 9.375 
Q 23.140625 -1.703125 15.828125 -13.1875 
L 8.015625 -13.1875 
Q 14.5 -2 17.703125 9.0625 
Q 20.90625 20.125 20.90625 31.390625 
Q 20.90625 42.671875 17.703125 53.65625 
Q 14.5 64.65625 8.015625 75.875 
z
" id="DejaVuSans-41"/>
     <path id="DejaVuSans-32"/>
     <path d="M 53.515625 70.515625 
L 53.515625 60.890625 
Q 47.90625 63.578125 42.921875 64.890625 
Q 37.9375 66.21875 33.296875 66.21875 
Q 25.25 66.21875 20.875 63.09375 
Q 16.5 59.96875 16.5 54.203125 
Q 16.5 49.359375 19.40625 46.890625 
Q 22.3125 44.4375 30.421875 42.921875 
L 36.375 41.703125 
Q 47.40625 39.59375 52.65625 34.296875 
Q 57.90625 29 57.90625 20.125 
Q 57.90625 9.515625 50.796875 4.046875 
Q 43.703125 -1.421875 29.984375 -1.421875 
Q 24.8125 -1.421875 18.96875 -0.25 
Q 13.140625 0.921875 6.890625 3.21875 
L 6.890625 13.375 
Q 12.890625 10.015625 18.65625 8.296875 
Q 24.421875 6.59375 29.984375 6.59375 
Q 38.421875 6.59375 43.015625 9.90625 
Q 47.609375 13.234375 47.609375 19.390625 
Q 47.609375 24.75 44.3125 27.78125 
Q 41.015625 30.8125 33.5 32.328125 
L 27.484375 33.5 
Q 16.453125 35.6875 11.515625 40.375 
Q 6.59375 45.0625 6.59375 53.421875 
Q 6.59375 63.09375 13.40625 68.65625 
Q 20.21875 74.21875 32.171875 74.21875 
Q 37.3125 74.21875 42.625 73.28125 
Q 47.953125 72.359375 53.515625 70.515625 
z
" id="DejaVuSans-83"/>
     <path d="M 8.5 21.578125 
L 8.5 54.6875 
L 17.484375 54.6875 
L 17.484375 21.921875 
Q 17.484375 14.15625 20.5 10.265625 
Q 23.53125 6.390625 29.59375 6.390625 
Q 36.859375 6.390625 41.078125 11.03125 
Q 45.3125 15.671875 45.3125 23.6875 
L 45.3125 54.6875 
L 54.296875 54.6875 
L 54.296875 0 
L 45.3125 0 
L 45.3125 8.40625 
Q 42.046875 3.421875 37.71875 1 
Q 33.40625 -1.421875 27.6875 -1.421875 
Q 18.265625 -1.421875 13.375 4.4375 
Q 8.5 10.296875 8.5 21.578125 
z
M 31.109375 56 
z
" id="DejaVuSans-117"/>
     <path d="M 48.6875 27.296875 
Q 48.6875 37.203125 44.609375 42.84375 
Q 40.53125 48.484375 33.40625 48.484375 
Q 26.265625 48.484375 22.1875 42.84375 
Q 18.109375 37.203125 18.109375 27.296875 
Q 18.109375 17.390625 22.1875 11.75 
Q 26.265625 6.109375 33.40625 6.109375 
Q 40.53125 6.109375 44.609375 11.75 
Q 48.6875 17.390625 48.6875 27.296875 
z
M 18.109375 46.390625 
Q 20.953125 51.265625 25.265625 53.625 
Q 29.59375 56 35.59375 56 
Q 45.5625 56 51.78125 48.09375 
Q 58.015625 40.1875 58.015625 27.296875 
Q 58.015625 14.40625 51.78125 6.484375 
Q 45.5625 -1.421875 35.59375 -1.421875 
Q 29.59375 -1.421875 25.265625 0.953125 
Q 20.953125 3.328125 18.109375 8.203125 
L 18.109375 0 
L 9.078125 0 
L 9.078125 75.984375 
L 18.109375 75.984375 
z
" id="DejaVuSans-98"/>
     <path d="M 9.421875 54.6875 
L 18.40625 54.6875 
L 18.40625 -0.984375 
Q 18.40625 -11.421875 14.421875 -16.109375 
Q 10.453125 -20.796875 1.609375 -20.796875 
L -1.8125 -20.796875 
L -1.8125 -13.1875 
L 0.59375 -13.1875 
Q 5.71875 -13.1875 7.5625 -10.8125 
Q 9.421875 -8.453125 9.421875 -0.984375 
z
M 9.421875 75.984375 
L 18.40625 75.984375 
L 18.40625 64.59375 
L 9.421875 64.59375 
z
" id="DejaVuSans-106"/>
     <path d="M 56.203125 29.59375 
L 56.203125 25.203125 
L 14.890625 25.203125 
Q 15.484375 15.921875 20.484375 11.0625 
Q 25.484375 6.203125 34.421875 6.203125 
Q 39.59375 6.203125 44.453125 7.46875 
Q 49.3125 8.734375 54.109375 11.28125 
L 54.109375 2.78125 
Q 49.265625 0.734375 44.1875 -0.34375 
Q 39.109375 -1.421875 33.890625 -1.421875 
Q 20.796875 -1.421875 13.15625 6.1875 
Q 5.515625 13.8125 5.515625 26.8125 
Q 5.515625 40.234375 12.765625 48.109375 
Q 20.015625 56 32.328125 56 
Q 43.359375 56 49.78125 48.890625 
Q 56.203125 41.796875 56.203125 29.59375 
z
M 47.21875 32.234375 
Q 47.125 39.59375 43.09375 43.984375 
Q 39.0625 48.390625 32.421875 48.390625 
Q 24.90625 48.390625 20.390625 44.140625 
Q 15.875 39.890625 15.1875 32.171875 
z
" id="DejaVuSans-101"/>
     <path d="M 48.78125 52.59375 
L 48.78125 44.1875 
Q 44.96875 46.296875 41.140625 47.34375 
Q 37.3125 48.390625 33.40625 48.390625 
Q 24.65625 48.390625 19.8125 42.84375 
Q 14.984375 37.3125 14.984375 27.296875 
Q 14.984375 17.28125 19.8125 11.734375 
Q 24.65625 6.203125 33.40625 6.203125 
Q 37.3125 6.203125 41.140625 7.25 
Q 44.96875 8.296875 48.78125 10.40625 
L 48.78125 2.09375 
Q 45.015625 0.34375 40.984375 -0.53125 
Q 36.96875 -1.421875 32.421875 -1.421875 
Q 20.0625 -1.421875 12.78125 6.34375 
Q 5.515625 14.109375 5.515625 27.296875 
Q 5.515625 40.671875 12.859375 48.328125 
Q 20.21875 56 33.015625 56 
Q 37.15625 56 41.109375 55.140625 
Q 45.0625 54.296875 48.78125 52.59375 
z
" id="DejaVuSans-99"/>
     <path d="M 18.3125 70.21875 
L 18.3125 54.6875 
L 36.8125 54.6875 
L 36.8125 47.703125 
L 18.3125 47.703125 
L 18.3125 18.015625 
Q 18.3125 11.328125 20.140625 9.421875 
Q 21.96875 7.515625 27.59375 7.515625 
L 36.8125 7.515625 
L 36.8125 0 
L 27.59375 0 
Q 17.1875 0 13.234375 3.875 
Q 9.28125 7.765625 9.28125 18.015625 
L 9.28125 47.703125 
L 2.6875 47.703125 
L 2.6875 54.6875 
L 9.28125 54.6875 
L 9.28125 70.21875 
z
" id="DejaVuSans-116"/>
     <path d="M 11.71875 12.40625 
L 22.015625 12.40625 
L 22.015625 0 
L 11.71875 0 
z
M 11.71875 51.703125 
L 22.015625 51.703125 
L 22.015625 39.3125 
L 11.71875 39.3125 
z
" id="DejaVuSans-58"/>
     <path d="M 44.28125 53.078125 
L 44.28125 44.578125 
Q 40.484375 46.53125 36.375 47.5 
Q 32.28125 48.484375 27.875 48.484375 
Q 21.1875 48.484375 17.84375 46.4375 
Q 14.5 44.390625 14.5 40.28125 
Q 14.5 37.15625 16.890625 35.375 
Q 19.28125 33.59375 26.515625 31.984375 
L 29.59375 31.296875 
Q 39.15625 29.25 43.1875 25.515625 
Q 47.21875 21.78125 47.21875 15.09375 
Q 47.21875 7.46875 41.1875 3.015625 
Q 35.15625 -1.421875 24.609375 -1.421875 
Q 20.21875 -1.421875 15.453125 -0.5625 
Q 10.6875 0.296875 5.421875 2 
L 5.421875 11.28125 
Q 10.40625 8.6875 15.234375 7.390625 
Q 20.0625 6.109375 24.8125 6.109375 
Q 31.15625 6.109375 34.5625 8.28125 
Q 37.984375 10.453125 37.984375 14.40625 
Q 37.984375 18.0625 35.515625 20.015625 
Q 33.0625 21.96875 24.703125 23.78125 
L 21.578125 24.515625 
Q 13.234375 26.265625 9.515625 29.90625 
Q 5.8125 33.546875 5.8125 39.890625 
Q 5.8125 47.609375 11.28125 51.796875 
Q 16.75 56 26.8125 56 
Q 31.78125 56 36.171875 55.265625 
Q 40.578125 54.546875 44.28125 53.078125 
z
" id="DejaVuSans-115"/>
     <path d="M 11.71875 12.40625 
L 22.015625 12.40625 
L 22.015625 4 
L 14.015625 -11.625 
L 7.71875 -11.625 
L 11.71875 4 
z
" id="DejaVuSans-44"/>
     <path d="M 9.8125 72.90625 
L 19.671875 72.90625 
L 19.671875 42.09375 
L 52.390625 72.90625 
L 65.09375 72.90625 
L 28.90625 38.921875 
L 67.671875 0 
L 54.6875 0 
L 19.671875 35.109375 
L 19.671875 0 
L 9.8125 0 
z
" id="DejaVuSans-75"/>
     <path d="M 54.890625 33.015625 
L 54.890625 0 
L 45.90625 0 
L 45.90625 32.71875 
Q 45.90625 40.484375 42.875 44.328125 
Q 39.84375 48.1875 33.796875 48.1875 
Q 26.515625 48.1875 22.3125 43.546875 
Q 18.109375 38.921875 18.109375 30.90625 
L 18.109375 0 
L 9.078125 0 
L 9.078125 54.6875 
L 18.109375 54.6875 
L 18.109375 46.1875 
Q 21.34375 51.125 25.703125 53.5625 
Q 30.078125 56 35.796875 56 
Q 45.21875 56 50.046875 50.171875 
Q 54.890625 44.34375 54.890625 33.015625 
z
" id="DejaVuSans-110"/>
     <path d="M 30.609375 48.390625 
Q 23.390625 48.390625 19.1875 42.75 
Q 14.984375 37.109375 14.984375 27.296875 
Q 14.984375 17.484375 19.15625 11.84375 
Q 23.34375 6.203125 30.609375 6.203125 
Q 37.796875 6.203125 41.984375 11.859375 
Q 46.1875 17.53125 46.1875 27.296875 
Q 46.1875 37.015625 41.984375 42.703125 
Q 37.796875 48.390625 30.609375 48.390625 
z
M 30.609375 56 
Q 42.328125 56 49.015625 48.375 
Q 55.71875 40.765625 55.71875 27.296875 
Q 55.71875 13.875 49.015625 6.21875 
Q 42.328125 -1.421875 30.609375 -1.421875 
Q 18.84375 -1.421875 12.171875 6.21875 
Q 5.515625 13.875 5.515625 27.296875 
Q 5.515625 40.765625 12.171875 48.375 
Q 18.84375 56 30.609375 56 
z
" id="DejaVuSans-111"/>
     <path d="M 4.203125 54.6875 
L 13.1875 54.6875 
L 24.421875 12.015625 
L 35.59375 54.6875 
L 46.1875 54.6875 
L 57.421875 12.015625 
L 68.609375 54.6875 
L 77.59375 54.6875 
L 63.28125 0 
L 52.6875 0 
L 40.921875 44.828125 
L 29.109375 0 
L 18.5 0 
z
" id="DejaVuSans-119"/>
     <path d="M 10.59375 45.40625 
L 73.1875 45.40625 
L 73.1875 37.203125 
L 10.59375 37.203125 
z
M 10.59375 25.484375 
L 73.1875 25.484375 
L 73.1875 17.1875 
L 10.59375 17.1875 
z
" id="DejaVuSans-61"/>
     <path d="M 9.8125 72.90625 
L 51.703125 72.90625 
L 51.703125 64.59375 
L 19.671875 64.59375 
L 19.671875 43.109375 
L 48.578125 43.109375 
L 48.578125 34.8125 
L 19.671875 34.8125 
L 19.671875 0 
L 9.8125 0 
z
" id="DejaVuSans-70"/>
     <path d="M 34.28125 27.484375 
Q 23.390625 27.484375 19.1875 25 
Q 14.984375 22.515625 14.984375 16.5 
Q 14.984375 11.71875 18.140625 8.90625 
Q 21.296875 6.109375 26.703125 6.109375 
Q 34.1875 6.109375 38.703125 11.40625 
Q 43.21875 16.703125 43.21875 25.484375 
L 43.21875 27.484375 
z
M 52.203125 31.203125 
L 52.203125 0 
L 43.21875 0 
L 43.21875 8.296875 
Q 40.140625 3.328125 35.546875 0.953125 
Q 30.953125 -1.421875 24.3125 -1.421875 
Q 15.921875 -1.421875 10.953125 3.296875 
Q 6 8.015625 6 15.921875 
Q 6 25.140625 12.171875 29.828125 
Q 18.359375 34.515625 30.609375 34.515625 
L 43.21875 34.515625 
L 43.21875 35.40625 
Q 43.21875 41.609375 39.140625 45 
Q 35.0625 48.390625 27.6875 48.390625 
Q 23 48.390625 18.546875 47.265625 
Q 14.109375 46.140625 10.015625 43.890625 
L 10.015625 52.203125 
Q 14.9375 54.109375 19.578125 55.046875 
Q 24.21875 56 28.609375 56 
Q 40.484375 56 46.34375 49.84375 
Q 52.203125 43.703125 52.203125 31.203125 
z
" id="DejaVuSans-97"/>
     <path d="M 9.421875 75.984375 
L 18.40625 75.984375 
L 18.40625 0 
L 9.421875 0 
z
" id="DejaVuSans-108"/>
     <path d="M 19.671875 64.796875 
L 19.671875 8.109375 
L 31.59375 8.109375 
Q 46.6875 8.109375 53.6875 14.9375 
Q 60.6875 21.78125 60.6875 36.53125 
Q 60.6875 51.171875 53.6875 57.984375 
Q 46.6875 64.796875 31.59375 64.796875 
z
M 9.8125 72.90625 
L 30.078125 72.90625 
Q 51.265625 72.90625 61.171875 64.09375 
Q 71.09375 55.28125 71.09375 36.53125 
Q 71.09375 17.671875 61.125 8.828125 
Q 51.171875 0 30.078125 0 
L 9.8125 0 
z
" id="DejaVuSans-68"/>
     <path d="M 45.40625 27.984375 
Q 45.40625 37.75 41.375 43.109375 
Q 37.359375 48.484375 30.078125 48.484375 
Q 22.859375 48.484375 18.828125 43.109375 
Q 14.796875 37.75 14.796875 27.984375 
Q 14.796875 18.265625 18.828125 12.890625 
Q 22.859375 7.515625 30.078125 7.515625 
Q 37.359375 7.515625 41.375 12.890625 
Q 45.40625 18.265625 45.40625 27.984375 
z
M 54.390625 6.78125 
Q 54.390625 -7.171875 48.1875 -13.984375 
Q 42 -20.796875 29.203125 -20.796875 
Q 24.46875 -20.796875 20.265625 -20.09375 
Q 16.0625 -19.390625 12.109375 -17.921875 
L 12.109375 -9.1875 
Q 16.0625 -11.328125 19.921875 -12.34375 
Q 23.78125 -13.375 27.78125 -13.375 
Q 36.625 -13.375 41.015625 -8.765625 
Q 45.40625 -4.15625 45.40625 5.171875 
L 45.40625 9.625 
Q 42.625 4.78125 38.28125 2.390625 
Q 33.9375 0 27.875 0 
Q 17.828125 0 11.671875 7.65625 
Q 5.515625 15.328125 5.515625 27.984375 
Q 5.515625 40.671875 11.671875 48.328125 
Q 17.828125 56 27.875 56 
Q 33.9375 56 38.28125 53.609375 
Q 42.625 51.21875 45.40625 46.390625 
L 45.40625 54.6875 
L 54.390625 54.6875 
z
" id="DejaVuSans-103"/>
     <path d="M 41.109375 46.296875 
Q 39.59375 47.171875 37.8125 47.578125 
Q 36.03125 48 33.890625 48 
Q 26.265625 48 22.1875 43.046875 
Q 18.109375 38.09375 18.109375 28.8125 
L 18.109375 0 
L 9.078125 0 
L 9.078125 54.6875 
L 18.109375 54.6875 
L 18.109375 46.1875 
Q 20.953125 51.171875 25.484375 53.578125 
Q 30.03125 56 36.53125 56 
Q 37.453125 56 38.578125 55.875 
Q 39.703125 55.765625 41.0625 55.515625 
z
" id="DejaVuSans-114"/>
     <path d="M 9.421875 54.6875 
L 18.40625 54.6875 
L 18.40625 0 
L 9.421875 0 
z
M 9.421875 75.984375 
L 18.40625 75.984375 
L 18.40625 64.59375 
L 9.421875 64.59375 
z
" id="DejaVuSans-105"/>
     <path d="M 10.6875 12.40625 
L 21 12.40625 
L 21 0 
L 10.6875 0 
z
" id="DejaVuSans-46"/>
    </defs>
    <g transform="translate(49.741875 35.472)scale(0.12 -0.12)">
     <use xlink:href="#DejaVuSans-40"/>
     <use x="39.013672" xlink:href="#DejaVuSans-51"/>
     <use x="102.636719" xlink:href="#DejaVuSans-50"/>
     <use x="166.259766" xlink:href="#DejaVuSans-41"/>
     <use x="205.273438" xlink:href="#DejaVuSans-32"/>
     <use x="237.060547" xlink:href="#DejaVuSans-83"/>
     <use x="300.537109" xlink:href="#DejaVuSans-117"/>
     <use x="363.916016" xlink:href="#DejaVuSans-98"/>
     <use x="427.392578" xlink:href="#DejaVuSans-106"/>
     <use x="455.175781" xlink:href="#DejaVuSans-101"/>
     <use x="516.699219" xlink:href="#DejaVuSans-99"/>
     <use x="571.679688" xlink:href="#DejaVuSans-116"/>
     <use x="610.888672" xlink:href="#DejaVuSans-58"/>
     <use x="644.580078" xlink:href="#DejaVuSans-32"/>
     <use x="676.367188" xlink:href="#DejaVuSans-115"/>
     <use x="728.466797" xlink:href="#DejaVuSans-49"/>
     <use x="792.089844" xlink:href="#DejaVuSans-51"/>
     <use x="855.712891" xlink:href="#DejaVuSans-44"/>
     <use x="887.5" xlink:href="#DejaVuSans-32"/>
     <use x="919.287109" xlink:href="#DejaVuSans-75"/>
     <use x="984.863281" xlink:href="#DejaVuSans-110"/>
     <use x="1048.242188" xlink:href="#DejaVuSans-111"/>
     <use x="1109.423828" xlink:href="#DejaVuSans-119"/>
     <use x="1191.210938" xlink:href="#DejaVuSans-110"/>
     <use x="1254.589844" xlink:href="#DejaVuSans-32"/>
     <use x="1286.376953" xlink:href="#DejaVuSans-61"/>
     <use x="1370.166016" xlink:href="#DejaVuSans-32"/>
     <use x="1401.953125" xlink:href="#DejaVuSans-70"/>
     <use x="1459.332031" xlink:href="#DejaVuSans-97"/>
     <use x="1520.611328" xlink:href="#DejaVuSans-108"/>
     <use x="1548.394531" xlink:href="#DejaVuSans-115"/>
     <use x="1600.494141" xlink:href="#DejaVuSans-101"/>
     <use x="1662.017578" xlink:href="#DejaVuSans-44"/>
     <use x="1693.804688" xlink:href="#DejaVuSans-32"/>
     <use x="1725.591797" xlink:href="#DejaVuSans-68"/>
     <use x="1802.59375" xlink:href="#DejaVuSans-101"/>
     <use x="1864.117188" xlink:href="#DejaVuSans-103"/>
     <use x="1927.59375" xlink:href="#DejaVuSans-114"/>
     <use x="1968.675781" xlink:href="#DejaVuSans-101"/>
     <use x="2030.199219" xlink:href="#DejaVuSans-101"/>
     <use x="2091.722656" xlink:href="#DejaVuSans-32"/>
     <use x="2123.509766" xlink:href="#DejaVuSans-61"/>
     <use x="2207.298828" xlink:href="#DejaVuSans-32"/>
     <use x="2239.085938" xlink:href="#DejaVuSans-49"/>
     <use x="2302.708984" xlink:href="#DejaVuSans-44"/>
     <use x="2334.496094" xlink:href="#DejaVuSans-32"/>
     <use x="2366.283203" xlink:href="#DejaVuSans-68"/>
     <use x="2443.285156" xlink:href="#DejaVuSans-117"/>
     <use x="2506.664062" xlink:href="#DejaVuSans-114"/>
     <use x="2547.777344" xlink:href="#DejaVuSans-97"/>
     <use x="2609.056641" xlink:href="#DejaVuSans-116"/>
     <use x="2648.265625" xlink:href="#DejaVuSans-105"/>
     <use x="2676.048828" xlink:href="#DejaVuSans-111"/>
     <use x="2737.230469" xlink:href="#DejaVuSans-110"/>
     <use x="2800.609375" xlink:href="#DejaVuSans-32"/>
     <use x="2832.396484" xlink:href="#DejaVuSans-61"/>
     <use x="2916.185547" xlink:href="#DejaVuSans-32"/>
     <use x="2947.972656" xlink:href="#DejaVuSans-48"/>
     <use x="3011.595703" xlink:href="#DejaVuSans-46"/>
     <use x="3043.382812" xlink:href="#DejaVuSans-49"/>
    </g>
   </g>
  </g>
 </g>
 <defs>
  <clipPath id="p8d5753222a">
   <rect height="266.112" width="357.12" x="57.6" y="41.472"/>
  </clipPath>
 </defs>
</svg>
