<?xml version="1.0" encoding="utf-8" standalone="no"?>
<!DOCTYPE svg PUBLIC "-//W3C//DTD SVG 1.1//EN"
  "http://www.w3.org/Graphics/SVG/1.1/DTD/svg11.dtd">
<!-- Created with matplotlib (https://matplotlib.org/) -->
<svg height="345.6pt" version="1.1" viewBox="0 0 460.8 345.6" width="460.8pt" xmlns="http://www.w3.org/2000/svg" xmlns:xlink="http://www.w3.org/1999/xlink">
 <defs>
  <style type="text/css">
*{stroke-linecap:butt;stroke-linejoin:round;}
  </style>
 </defs>
 <g id="figure_1">
  <g id="patch_1">
   <path d="M 0 345.6 
L 460.8 345.6 
L 460.8 0 
L 0 0 
z
" style="fill:#ffffff;"/>
  </g>
  <g id="axes_1">
   <g id="patch_2">
    <path d="M 57.6 307.584 
L 414.72 307.584 
L 414.72 41.472 
L 57.6 41.472 
z
" style="fill:#ffffff;"/>
   </g>
   <g id="line2d_1">
    <path clip-path="url(#pa321452d80)" d="M 76.307169 54.483561 
L 76.684226 54.615364 
L 76.307169 54.222309 
L 76.495697 54.354112 
L 76.876683 54.354112 
L 77.446197 54.483561 
L 78.015711 54.354112 
L 77.827182 54.354112 
L 76.876683 54.222309 
L 76.684226 54.222309 
L 76.876683 54.354112 
L 76.876683 54.354112 
L 77.446197 54.090505 
L 77.25374 54.222309 
L 76.876683 54.090505 
L 76.876683 54.483561 
L 77.25374 54.354112 
L 78.015711 53.829253 
L 78.20424 53.961056 
L 78.20424 54.222309 
L 78.015711 54.354112 
L 77.25374 53.69745 
L 77.25374 53.568 
L 77.25374 53.829253 
L 77.446197 53.829253 
L 77.446197 53.69745 
L 77.446197 53.829253 
L 77.25374 54.483561 
L 76.876683 54.876617 
L 77.065212 54.876617 
L 78.015711 54.747168 
L 78.015711 55.00842 
L 77.827182 55.00842 
L 77.446197 54.483561 
L 77.25374 53.829253 
L 77.446197 53.568 
L 77.634726 53.568 
L 77.634726 54.615364 
L 77.446197 54.747168 
L 77.065212 54.483561 
L 77.065212 54.222309 
L 77.065212 54.222309 
L 76.876683 53.961056 
L 76.876683 54.222309 
L 76.876683 54.747168 
L 76.876683 54.483561 
L 76.684226 54.222309 
L 76.876683 54.222309 
L 77.065212 54.090505 
L 77.446197 54.222309 
L 76.876683 54.876617 
L 77.065212 55.269673 
L 77.634726 55.269673 
L 78.015711 55.00842 
L 77.827182 54.615364 
L 76.684226 53.961056 
L 77.065212 53.961056 
L 77.25374 53.961056 
L 77.065212 53.961056 
L 75.733727 54.354112 
L 75.545198 54.483561 
L 76.114712 54.090505 
L 76.307169 54.354112 
L 76.684226 54.483561 
L 77.065212 54.483561 
L 77.065212 54.483561 
L 76.495697 54.222309 
L 76.495697 53.961056 
L 76.876683 53.69745 
L 76.307169 54.090505 
L 75.926183 53.961056 
L 76.114712 53.829253 
L 76.495697 54.090505 
L 76.684226 54.483561 
L 76.684226 54.747168 
L 76.495697 54.747168 
L 76.495697 54.747168 
L 76.876683 54.876617 
L 77.25374 54.876617 
L 77.065212 54.747168 
L 76.495697 54.747168 
L 76.495697 54.483561 
L 76.684226 54.222309 
L 76.684226 54.222309 
L 76.307169 54.090505 
L 76.684226 54.354112 
L 76.876683 54.747168 
L 76.876683 54.747168 
L 76.495697 54.615364 
L 76.495697 54.747168 
L 76.684226 54.876617 
L 76.495697 54.876617 
L 75.926183 54.876617 
L 76.307169 54.876617 
L 76.684226 54.615364 
L 76.495697 54.615364 
L 76.114712 54.483561 
L 75.926183 54.483561 
L 75.926183 54.876617 
L 76.114712 55.269673 
L 76.307169 55.269673 
L 76.307169 55.140223 
L 75.926183 54.615364 
L 75.733727 54.090505 
L 75.926183 53.829253 
L 76.495697 54.090505 
L 77.065212 55.00842 
L 76.684226 54.876617 
L 75.926183 54.483561 
L 76.114712 54.354112 
L 76.114712 54.222309 
L 75.733727 54.876617 
L 76.114712 55.140223 
L 76.495697 54.747168 
L 76.114712 54.615364 
L 75.545198 54.615364 
L 75.545198 54.615364 
L 75.926183 54.483561 
L 76.114712 54.483561 
L 76.114712 55.140223 
L 75.926183 55.401476 
L 75.545198 55.662729 
L 75.164212 55.662729 
L 75.164212 55.401476 
L 75.733727 55.269673 
L 75.926183 55.662729 
L 75.733727 56.055785 
L 75.545198 56.055785 
L 75.733727 55.794532 
L 75.545198 55.533279 
L 74.975683 55.401476 
L 75.164212 55.401476 
L 75.545198 55.269673 
L 75.545198 54.876617 
L 75.545198 54.876617 
L 75.356669 55.140223 
L 75.356669 55.401476 
L 74.594698 55.533279 
L 74.783227 55.533279 
L 74.213713 55.533279 
L 74.213713 55.533279 
L 74.025184 55.794532 
L 74.025184 56.055785 
L 74.975683 55.662729 
L 74.406169 55.401476 
L 73.832727 55.401476 
L 74.406169 56.187588 
L 74.406169 55.923982 
L 74.213713 56.055785 
L 74.213713 56.580644 
L 74.213713 56.580644 
L 73.832727 56.580644 
L 74.594698 56.9737 
L 75.356669 56.9737 
L 75.356669 56.9737 
L 75.164212 57.103149 
L 75.926183 57.103149 
L 79.916711 56.841896 
L 82.387224 56.9737 
L 100.446717 59.068428 
L 109.947786 59.722737 
L 115.08127 60.508849 
L 130.285337 64.307604 
L 140.740833 66.534136 
L 146.062845 67.845107 
L 154.998327 70.594144 
L 159.36984 71.905115 
L 168.112866 75.179012 
L 182.55889 81.072496 
L 187.311388 82.905972 
L 192.440944 84.741802 
L 197.193442 86.704728 
L 201.187897 88.93126 
L 205.747939 90.896539 
L 216.203435 94.827098 
L 230.837988 100.981835 
L 235.971471 103.078917 
L 240.531513 105.434899 
L 247.565996 110.151569 
L 250.987009 112.639354 
L 254.596551 114.734083 
L 258.017564 117.092418 
L 260.869063 119.450753 
L 263.532033 121.809088 
L 266.383532 123.903817 
L 269.042575 126.130349 
L 271.324559 128.488684 
L 273.414087 130.844666 
L 275.126558 133.203001 
L 278.928557 138.049121 
L 280.829556 140.536905 
L 282.157113 142.895241 
L 283.300069 145.253576 
L 284.250569 147.480108 
L 285.389598 149.70664 
L 286.721083 151.933172 
L 287.479126 154.159704 
L 287.290597 156.124983 
L 287.290597 157.826656 
L 287.671582 159.530683 
L 287.671582 161.495962 
L 286.909611 163.458888 
L 283.488598 167.650699 
L 281.206614 169.354726 
L 280.256114 170.270287 
L 278.928557 171.710707 
L 276.646572 173.282931 
L 275.507543 174.462098 
L 274.745573 175.641266 
L 274.364587 176.68863 
L 273.795073 177.604192 
L 273.03703 178.260854 
L 272.08653 178.783359 
L 271.513088 179.440021 
L 270.943574 180.355583 
L 270.562589 181.796003 
L 269.612089 183.106974 
L 268.284532 184.415591 
L 266.953046 185.465309 
L 266.191076 186.38087 
L 265.433033 188.34615 
L 264.290076 189.261711 
L 263.339577 190.179626 
L 262.012019 192.799214 
L 261.250049 193.453522 
L 260.488078 193.846578 
L 258.968064 195.025746 
L 258.39855 195.418801 
L 257.44805 196.597969 
L 256.690007 196.991025 
L 255.928036 197.645333 
L 255.739507 198.038389 
L 255.739507 199.085754 
L 255.358522 199.347006 
L 254.215566 199.47881 
L 253.076537 199.740062 
L 252.695552 200.396725 
L 252.888008 200.91923 
L 252.507023 201.051033 
L 252.126037 201.051033 
L 251.937509 201.182836 
L 251.556523 202.230201 
L 250.794552 202.752706 
L 250.417495 203.277565 
L 249.844053 203.670621 
L 248.705024 203.931874 
L 248.705024 204.193126 
L 248.893553 204.717985 
L 248.324039 205.372294 
L 247.565996 205.76535 
L 246.804025 205.897153 
L 246.234511 206.158406 
L 244.903026 206.158406 
L 245.664996 206.812714 
L 245.47254 207.076321 
L 244.903026 207.337573 
L 244.714497 207.469376 
L 244.333511 207.469376 
L 243.952526 207.20577 
L 243.383012 207.598826 
L 243.383012 207.598826 
L 242.813498 207.598826 
L 242.813498 207.730629 
L 242.813498 207.730629 
L 241.670541 207.730629 
L 241.482012 207.991882 
L 241.482012 208.255488 
L 242.051527 208.516741 
L 242.432512 208.123685 
L 242.051527 207.991882 
L 241.482012 208.123685 
L 241.293484 208.384938 
L 240.912498 208.384938 
L 240.531513 207.991882 
L 240.912498 207.730629 
L 241.293484 207.862432 
L 239.961999 208.384938 
L 239.961999 208.516741 
L 239.77347 208.384938 
L 239.77347 207.991882 
L 239.581013 207.730629 
L 239.392484 207.862432 
L 239.392484 208.123685 
L 239.581013 208.255488 
L 239.200028 207.862432 
L 238.630514 207.20577 
L 238.060999 206.944517 
L 237.491485 207.076321 
L 236.729514 207.076321 
L 233.689486 206.422012 
L 231.407502 206.158406 
L 228.556003 206.028956 
L 225.89696 206.028956 
L 223.995961 205.897153 
L 222.094962 205.897153 
L 216.580493 206.290209 
L 211.831922 206.944517 
L 209.930923 207.469376 
L 206.317453 209.564105 
L 202.707911 211.136329 
L 199.856412 212.969805 
L 197.955413 213.494664 
L 196.054414 213.88772 
L 194.341943 214.542028 
L 193.014386 215.32814 
L 190.162887 216.636757 
L 188.069431 217.291066 
L 183.697918 218.077178 
L 180.276905 218.863289 
L 173.815864 221.746483 
L 172.865364 222.530242 
L 171.152894 224.495521 
L 171.152894 225.806492 
L 170.964365 226.4608 
L 170.394851 227.115109 
L 170.202394 227.639968 
L 170.394851 228.033024 
L 171.914865 229.080388 
L 171.914865 229.734697 
L 172.29585 230.652612 
L 172.103393 230.913864 
L 172.103393 231.175117 
L 171.152894 231.568173 
L 170.771908 231.961229 
L 170.771908 232.224835 
L 170.394851 232.617891 
L 169.821409 233.010947 
L 169.821409 233.140396 
L 170.394851 233.272199 
L 170.394851 233.533452 
L 169.63288 234.580817 
L 169.63288 234.844423 
L 169.444351 234.844423 
L 168.493851 234.71262 
L 168.493851 235.105676 
L 168.301395 235.498731 
L 168.301395 235.891787 
L 168.493851 236.15304 
L 168.870909 236.284843 
L 169.251895 236.677899 
L 169.251895 237.200404 
L 168.870909 237.725263 
L 168.870909 237.857067 
L 169.063366 237.59346 
L 169.063366 237.857067 
L 168.870909 238.118319 
L 168.493851 238.250122 
L 168.68238 238.250122 
L 169.444351 238.118319 
L 168.870909 238.772628 
L 168.870909 238.772628 
L 168.870909 238.250122 
L 168.870909 238.250122 
L 169.063366 238.250122 
L 169.251895 238.379572 
L 169.251895 238.772628 
L 168.493851 239.165684 
L 168.493851 239.165684 
L 168.870909 238.379572 
L 169.063366 238.250122 
L 169.251895 237.986516 
L 169.251895 237.725263 
L 169.251895 237.857067 
L 169.63288 237.986516 
L 169.63288 238.118319 
L 169.63288 237.986516 
L 170.013865 237.857067 
L 169.821409 237.857067 
L 170.013865 237.986516 
L 169.63288 238.379572 
L 169.63288 238.250122 
L 169.821409 237.857067 
L 170.202394 237.332208 
L 170.202394 237.070955 
L 170.013865 236.939152 
L 170.202394 237.200404 
L 170.013865 237.332208 
L 169.251895 237.464011 
L 169.63288 237.332208 
L 170.58338 236.807349 
L 170.58338 236.939152 
L 170.013865 237.332208 
L 169.821409 237.200404 
L 170.013865 236.939152 
L 170.394851 236.939152 
L 170.013865 236.807349 
L 169.63288 236.807349 
L 169.821409 236.677899 
L 170.202394 236.677899 
L 170.58338 236.414293 
L 170.394851 236.284843 
L 169.251895 236.15304 
L 169.821409 236.284843 
L 170.202394 236.021237 
L 170.013865 235.759984 
L 169.63288 235.498731 
L 169.63288 235.630535 
L 169.63288 235.891787 
L 169.63288 235.630535 
L 169.821409 235.630535 
L 170.202394 235.498731 
L 170.202394 235.105676 
L 170.394851 235.105676 
L 170.394851 234.973872 
L 170.202394 234.580817 
L 170.58338 234.973872 
L 170.58338 234.973872 
L 170.394851 234.973872 
L 170.771908 234.973872 
L 170.964365 234.844423 
L 172.29585 234.580817 
L 173.053893 234.580817 
L 174.196849 234.187761 
L 175.905392 233.926508 
L 179.137876 234.319564 
L 180.846419 234.319564 
L 183.128404 234.451367 
L 185.791374 234.844423 
L 188.450416 235.366928 
L 194.722929 235.891787 
L 198.524927 236.546096 
L 215.060479 240.083599 
L 219.431992 240.737907 
L 223.995961 241.653468 
L 237.1105 244.797915 
L 246.045982 245.977083 
L 256.116565 248.071812 
L 274.176058 250.168894 
L 282.730555 251.477511 
L 287.860111 252.263623 
L 298.127078 253.310988 
L 302.68712 253.96765 
L 306.677648 254.883211 
L 313.519674 255.801126 
L 316.563629 256.194182 
L 319.222672 256.716687 
L 321.316128 257.241546 
L 325.118126 258.681966 
L 325.687641 259.206826 
L 325.495184 259.861134 
L 324.92567 260.383639 
L 323.594185 260.647246 
L 319.415128 261.826413 
L 318.653158 262.348919 
L 317.702658 262.741975 
L 316.563629 262.873778 
L 315.801659 262.741975 
L 315.420673 262.873778 
L 315.043616 263.266834 
L 314.093116 263.396283 
L 313.142616 263.921142 
L 312.95016 263.921142 
L 313.71213 264.446001 
L 313.71213 264.968507 
L 313.142616 265.229759 
L 312.380645 264.836704 
L 311.811131 264.836704 
L 311.622602 264.968507 
L 311.811131 265.10031 
L 311.811131 265.361563 
L 311.430146 265.754618 
L 309.910132 266.015871 
L 309.910132 266.015871 
L 309.721603 266.015871 
L 309.148161 265.886422 
L 308.959632 266.147674 
L 308.959632 266.408927 
L 308.578647 266.408927 
L 307.439618 266.147674 
L 306.677648 266.408927 
L 306.296662 266.408927 
L 306.296662 266.408927 
L 306.489119 266.672533 
L 306.296662 266.933786 
L 305.919604 266.933786 
L 305.35009 266.672533 
L 304.969105 266.672533 
L 304.588119 266.933786 
L 304.588119 267.326842 
L 304.399591 267.326842 
L 303.826149 267.458645 
L 303.449091 267.849347 
L 303.449091 267.719898 
L 303.068105 267.458645 
L 302.306135 267.458645 
L 302.306135 267.458645 
L 302.306135 267.719898 
L 302.498591 268.112954 
L 302.68712 268.767262 
L 302.498591 268.899065 
L 302.117606 268.767262 
L 301.73662 268.899065 
L 301.548092 269.160318 
L 301.167106 269.292121 
L 301.167106 269.028515 
L 300.405135 269.028515 
L 300.597592 269.160318 
L 300.97465 269.553374 
L 300.786121 269.94643 
L 300.405135 270.078233 
L 300.02415 269.814627 
L 299.454636 270.207682 
L 299.835621 269.814627 
L 300.02415 269.553374 
L 300.02415 269.685177 
L 300.216607 270.078233 
L 299.835621 270.339486 
L 299.266107 270.339486 
L 299.077578 270.207682 
L 299.454636 270.600738 
L 299.077578 270.600738 
L 298.696593 270.468935 
L 299.647092 270.861991 
L 299.835621 270.993794 
L 299.454636 270.732541 
L 298.127078 270.468935 
L 297.934622 270.732541 
L 298.127078 270.993794 
L 298.127078 270.861991 
L 298.885121 271.38685 
L 299.077578 271.38685 
L 298.696593 271.125597 
L 299.077578 271.255047 
L 299.835621 271.255047 
L 301.355635 271.38685 
L 303.256634 271.38685 
L 305.538619 271.255047 
L 315.232144 271.648103 
L 319.603657 271.779906 
L 323.97517 272.041159 
L 328.539139 272.041159 
L 333.668695 272.434214 
L 338.990708 272.959073 
L 348.87669 273.481579 
L 358.18923 274.138241 
L 375.675281 275.317409 
L 378.338251 275.708111 
L 383.848793 276.364773 
L 388.220305 276.887279 
L 389.932776 277.150885 
L 391.264261 277.67339 
L 394.492818 277.67339 
L 396.967259 277.412138 
L 398.294816 277.936997 
L 398.487273 278.066446 
L 398.487273 278.327699 
L 398.106287 278.459502 
L 397.344317 278.591305 
L 396.016759 279.377417 
L 394.304289 279.770473 
L 394.304289 279.899922 
L 394.11576 280.292978 
L 393.542318 280.817837 
L 392.591818 281.210893 
L 391.641319 281.210893 
L 390.694747 280.817837 
L 390.121305 280.817837 
L 389.744247 281.07909 
L 390.121305 281.997005 
L 390.50229 282.51951 
L 390.313761 282.651313 
L 389.932776 282.651313 
L 389.170805 282.912566 
L 388.793747 282.912566 
L 388.412762 283.176172 
L 388.031777 283.176172 
L 387.462262 283.437425 
L 387.269806 283.698678 
L 387.269806 283.698678 
L 386.700292 283.566875 
L 385.942248 283.566875 
L 385.749792 283.698678 
L 385.749792 283.566875 
L 386.319306 283.566875 
L 386.892748 284.091734 
L 386.700292 284.352986 
L 385.942248 284.484789 
L 385.180278 284.484789 
L 384.229778 284.223537 
L 383.660264 285.009648 
L 383.090749 285.009648 
L 382.14025 284.484789 
L 381.759264 284.877845 
L 381.570736 285.402704 
L 381.570736 285.270901 
L 380.808765 284.877845 
L 380.239251 285.009648 
L 380.046794 285.270901 
L 380.620236 285.402704 
L 380.808765 285.663957 
L 380.427779 285.79576 
L 380.046794 285.79576 
L 378.719237 285.402704 
L 378.52678 285.532154 
L 379.288751 285.139098 
L 379.669736 285.270901 
L 379.47728 285.532154 
L 378.907765 285.92521 
L 377.57628 286.318266 
L 377.57628 286.186462 
L 377.57628 286.186462 
L 377.387752 286.450069 
L 377.387752 286.450069 
L 377.199223 286.186462 
L 375.867738 287.104377 
L 375.867738 286.972574 
L 375.675281 286.843125 
L 375.675281 286.318266 
L 375.486752 286.057013 
L 375.298223 286.186462 
L 375.105767 286.972574 
L 375.298223 286.972574 
L 375.867738 286.843125 
L 375.867738 287.104377 
L 375.486752 287.104377 
L 375.105767 286.843125 
L 374.917238 286.450069 
L 374.536253 286.318266 
L 374.347724 286.579518 
L 374.347724 287.104377 
L 374.536253 287.497433 
L 373.774282 287.497433 
L 373.397224 287.36563 
L 373.774282 287.23618 
L 374.155267 287.23618 
L 373.966738 287.36563 
L 373.397224 287.497433 
L 373.397224 287.497433 
L 374.155267 287.104377 
L 373.774282 287.36563 
L 373.397224 287.629236 
L 372.823782 287.890489 
L 372.446724 287.629236 
L 372.254268 287.890489 
L 372.254268 288.151742 
L 372.823782 288.151742 
L 373.016239 288.022292 
L 372.446724 288.022292 
L 372.065739 288.151742 
L 372.065739 287.890489 
L 371.873283 287.890489 
L 371.684754 288.151742 
L 372.065739 288.415348 
L 373.016239 288.676601 
L 372.823782 288.544798 
L 372.635253 288.415348 
L 372.065739 288.415348 
L 371.496225 288.544798 
L 371.303768 288.283545 
L 371.303768 287.890489 
L 371.303768 288.022292 
L 371.115239 288.415348 
L 371.496225 288.676601 
L 371.873283 288.676601 
L 371.873283 288.80605 
L 371.303768 289.069657 
L 370.926711 288.544798 
L 371.115239 288.80605 
L 371.496225 288.544798 
L 371.496225 288.676601 
L 371.496225 288.937853 
L 370.734254 288.937853 
L 371.115239 288.676601 
L 371.496225 289.462713 
L 371.496225 289.462713 
L 370.545725 288.80605 
L 370.545725 288.80605 
L 370.353269 289.069657 
L 370.545725 289.199106 
L 370.545725 289.069657 
L 370.926711 289.199106 
L 370.926711 289.592162 
L 370.545725 289.723965 
L 370.16474 289.592162 
L 370.545725 289.462713 
L 369.402769 289.069657 
L 369.595226 289.330909 
L 370.16474 289.330909 
L 370.16474 289.330909 
L 369.783754 288.937853 
L 369.976211 288.937853 
L 369.783754 288.937853 
L 369.595226 289.069657 
L 369.783754 289.462713 
L 370.353269 289.723965 
L 370.545725 289.592162 
L 370.353269 289.462713 
L 369.783754 289.723965 
L 369.402769 289.592162 
L 369.025711 289.592162 
L 369.025711 289.592162 
L 369.025711 289.723965 
L 369.21424 289.855768 
L 369.21424 289.723965 
L 369.21424 289.592162 
L 369.025711 289.855768 
L 368.833255 289.723965 
L 369.21424 289.462713 
L 369.21424 289.462713 
L 369.21424 289.723965 
L 368.833255 290.248824 
L 368.452269 290.378274 
L 368.075212 290.248824 
L 367.694226 289.985218 
L 367.694226 289.723965 
L 368.075212 289.592162 
L 368.452269 289.723965 
L 368.075212 289.723965 
L 367.50177 289.855768 
L 368.075212 290.117021 
L 368.644726 290.378274 
L 368.26374 290.64188 
L 366.743727 290.77133 
L 366.743727 290.64188 
L 367.50177 290.117021 
L 367.882755 290.510077 
L 367.882755 290.903133 
L 367.50177 291.034936 
L 366.55127 291.034936 
L 366.743727 291.034936 
L 366.743727 291.818694 
L 366.55127 291.818694 
L 366.55127 291.296189 
L 366.362741 291.034936 
L 365.981756 291.034936 
L 365.60077 291.164385 
L 365.412242 291.164385 
L 365.412242 291.425638 
L 365.60077 291.689245 
L 366.174212 291.950497 
L 366.55127 291.818694 
L 367.50177 291.296189 
L 370.926711 291.296189 
L 371.684754 291.034936 
L 373.016239 290.77133 
L 374.536253 290.903133 
L 375.486752 291.164385 
L 376.437252 291.689245 
L 377.387752 292.0823 
L 378.52678 292.21175 
L 380.620236 292.0823 
L 382.14025 292.343553 
L 383.279278 291.950497 
L 383.660264 292.0823 
L 383.279278 292.475356 
L 383.660264 292.736609 
L 383.660264 292.736609 
L 383.279278 292.736609 
L 383.090749 292.604806 
L 382.898293 292.21175 
L 382.709764 292.343553 
L 382.521235 292.868412 
L 382.898293 293.390918 
L 382.521235 293.261468 
L 382.14025 293.390918 
L 381.947793 293.654524 
L 381.759264 293.654524 
L 381.759264 293.129665 
L 381.947793 293.129665 
L 382.14025 293.390918 
L 382.14025 293.783973 
L 381.947793 293.915777 
L 382.14025 294.177029 
L 382.14025 294.045226 
L 381.570736 294.045226 
L 380.808765 294.177029 
L 380.620236 294.438282 
L 380.808765 294.438282 
L 381.378279 294.045226 
L 381.570736 294.177029 
L 381.570736 294.438282 
L 381.18975 294.570085 
L 380.620236 294.308832 
L 380.239251 294.438282 
L 380.239251 294.438282 
L 380.239251 294.570085 
L 380.427779 294.701888 
L 380.620236 295.094944 
L 380.427779 295.488 
L 379.858265 294.963141 
L 379.858265 294.438282 
L 379.669736 294.701888 
L 380.427779 294.701888 
L 380.808765 294.831338 
L 380.808765 295.094944 
L 380.427779 295.094944 
L 380.046794 294.831338 
L 379.47728 294.701888 
L 378.907765 294.438282 
L 378.52678 294.438282 
L 378.52678 294.438282 
L 378.907765 294.570085 
L 379.288751 295.094944 
L 379.288751 295.094944 
L 379.096294 295.356197 
L 378.907765 295.356197 
L 378.338251 294.831338 
L 378.52678 294.701888 
L 379.47728 294.438282 
L 379.669736 294.570085 
L 379.288751 294.438282 
L 378.719237 294.570085 
L 378.338251 294.438282 
L 378.338251 294.177029 
L 378.719237 293.783973 
L 378.907765 293.783973 
L 378.907765 294.045226 
L 379.288751 294.308832 
L 378.907765 294.177029 
L 378.719237 294.177029 
L 379.288751 294.177029 
L 379.288751 293.783973 
L 379.096294 293.261468 
L 378.907765 293.129665 
L 379.096294 293.261468 
L 379.47728 292.868412 
L 379.288751 292.868412 
L 378.52678 293.522721 
L 379.669736 292.604806 
L 379.669736 292.736609 
L 379.858265 292.868412 
L 379.858265 293.129665 
L 379.288751 293.129665 
L 378.719237 292.868412 
L 379.47728 291.557441 
L 379.47728 291.557441 
L 379.47728 291.818694 
L 379.669736 291.950497 
L 380.239251 291.689245 
L 380.046794 291.425638 
L 380.239251 291.164385 
L 380.997294 290.64188 
L 380.997294 290.77133 
L 380.997294 290.903133 
L 381.378279 290.903133 
L 381.18975 290.903133 
L 380.808765 290.77133 
L 380.997294 290.378274 
L 380.997294 289.985218 
L 380.808765 289.855768 
L 380.808765 289.985218 
L 380.808765 290.248824 
L 380.997294 289.985218 
L 379.858265 289.199106 
L 380.046794 289.199106 
L 380.239251 289.069657 
L 380.046794 288.80605 
L 380.046794 288.80605 
L 380.620236 288.544798 
L 380.808765 288.80605 
L 380.046794 288.022292 
L 380.046794 287.629236 
L 380.046794 287.890489 
L 380.239251 288.022292 
L 380.808765 288.022292 
L 380.808765 287.890489 
L 380.620236 287.497433 
L 380.239251 286.972574 
L 380.239251 287.104377 
L 380.620236 286.972574 
L 380.620236 286.843125 
L 379.858265 287.23618 
L 380.046794 287.23618 
L 380.427779 287.104377 
L 380.239251 286.711321 
L 379.47728 286.057013 
L 379.47728 285.92521 
L 380.427779 286.186462 
L 380.997294 286.057013 
L 380.997294 285.92521 
L 379.858265 285.663957 
L 379.669736 285.270901 
L 379.669736 285.270901 
L 378.907765 285.139098 
L 376.437252 285.139098 
L 374.917238 285.009648 
L 372.823782 284.616593 
L 366.743727 284.091734 
L 362.372214 283.830481 
L 357.431187 283.305622 
L 351.916718 282.390061 
L 345.26322 281.865202 
L 338.232665 281.472146 
L 331.198182 280.686034 
L 324.356155 279.770473 
L 316.944615 279.113811 
L 308.959632 278.198249 
L 292.612609 276.887279 
L 284.250569 275.839914 
L 248.516495 270.207682 
L 241.862998 269.028515 
L 234.828515 268.112954 
L 228.175017 267.065589 
L 221.902505 265.622815 
L 216.010979 264.052945 
L 209.738466 262.610172 
L 196.623928 260.647246 
L 190.92093 259.336275 
L 185.217932 257.895855 
L 175.335878 255.669323 
L 166.023338 254.097099 
L 154.617342 252.788482 
L 149.676315 251.870567 
L 148.725815 251.477511 
L 148.533359 251.216259 
L 148.533359 251.216259 
L 148.914344 251.348062 
L 149.29533 251.348062 
L 149.864844 251.084456 
L 150.434358 250.955006 
L 151.384858 251.084456 
L 152.716343 251.084456 
L 154.047828 250.955006 
L 154.805871 251.216259 
L 155.186856 251.870567 
L 155.567842 252.263623 
L 155.948827 252.263623 
L 156.325885 252.524876 
L 156.518341 253.049735 
L 156.899327 253.310988 
L 156.899327 253.310988 
L 156.518341 253.310988 
L 156.137356 253.442791 
L 156.518341 253.96765 
L 156.518341 254.358352 
L 156.70687 254.490155 
L 156.325885 254.228902 
L 155.948827 254.490155 
L 156.518341 255.015014 
L 156.518341 255.015014 
L 156.325885 255.144464 
L 156.518341 255.144464 
L 156.899327 255.015014 
L 156.70687 255.015014 
L 156.325885 254.751408 
L 156.899327 254.751408 
L 157.276384 254.883211 
L 157.468841 255.144464 
L 157.468841 255.40807 
L 157.276384 255.40807 
L 157.468841 255.40807 
L 157.468841 255.144464 
L 157.087856 255.40807 
L 156.899327 255.801126 
L 156.899327 256.323631 
L 157.087856 256.716687 
L 157.468841 256.587238 
L 157.65737 256.323631 
L 157.276384 256.455434 
L 156.899327 256.455434 
L 157.087856 256.587238 
L 157.65737 256.587238 
L 157.849826 256.716687 
L 157.65737 257.109743 
L 157.65737 257.634602 
L 157.849826 257.895855 
L 157.65737 257.634602 
L 157.087856 258.027658 
L 157.087856 257.895855 
L 156.518341 258.027658 
L 156.325885 258.420714 
L 156.518341 258.550163 
L 157.276384 258.288911 
L 156.518341 258.550163 
L 156.70687 258.681966 
L 157.276384 258.681966 
L 157.65737 258.81377 
L 156.70687 259.336275 
L 157.087856 259.336275 
L 157.087856 259.597528 
L 156.70687 259.861134 
L 156.325885 259.861134 
L 157.849826 259.336275 
L 157.849826 259.729331 
L 158.226884 259.729331 
L 157.468841 259.729331 
L 157.276384 259.990584 
L 157.65737 260.122387 
L 158.419341 259.861134 
L 156.899327 260.383639 
L 156.899327 260.122387 
L 157.276384 259.861134 
L 158.038355 260.25419 
L 157.65737 260.122387 
L 157.276384 260.122387 
L 157.65737 260.122387 
L 157.65737 259.990584 
L 156.70687 259.990584 
L 157.468841 259.990584 
L 157.849826 260.122387 
L 157.849826 260.383639 
L 157.65737 260.776695 
L 157.468841 260.908499 
L 157.087856 260.515443 
L 157.276384 260.647246 
L 158.038355 260.908499 
L 157.65737 260.908499 
L 157.65737 261.040302 
L 157.849826 261.301554 
L 158.226884 261.301554 
L 158.226884 261.301554 
L 157.087856 261.040302 
L 157.65737 260.383639 
L 158.038355 260.383639 
L 158.038355 260.776695 
L 158.226884 261.040302 
L 158.226884 259.861134 
L 157.849826 260.122387 
L 157.276384 261.301554 
L 157.468841 260.908499 
L 157.65737 260.908499 
L 158.226884 260.647246 
L 158.038355 260.647246 
L 157.65737 260.515443 
L 157.468841 260.25419 
L 157.849826 260.383639 
L 158.038355 260.647246 
L 158.038355 260.908499 
L 157.849826 261.040302 
L 157.849826 260.908499 
L 157.849826 260.776695 
L 157.65737 260.647246 
L 157.468841 260.908499 
L 157.468841 260.908499 
L 157.849826 260.776695 
L 158.038355 260.383639 
L 157.849826 260.25419 
L 158.038355 260.25419 
L 158.226884 260.25419 
L 158.60787 259.861134 
L 158.988855 260.25419 
L 158.988855 260.515443 
L 158.226884 259.861134 
L 158.226884 259.729331 
L 158.226884 259.990584 
L 158.419341 260.515443 
L 158.419341 260.647246 
L 158.60787 260.776695 
L 159.177384 260.515443 
L 159.177384 260.383639 
L 158.800326 260.647246 
L 158.800326 260.647246 
L 158.800326 260.383639 
L 159.36984 259.861134 
L 159.36984 259.468078 
L 159.36984 259.468078 
L 159.558369 259.990584 
L 159.36984 260.122387 
L 159.177384 259.990584 
L 159.558369 259.861134 
L 159.750826 259.597528 
L 159.750826 259.206826 
L 159.558369 258.81377 
L 159.177384 258.550163 
L 159.36984 258.681966 
L 159.36984 258.943219 
L 159.750826 259.597528 
L 158.988855 258.420714 
L 159.177384 258.681966 
L 159.36984 258.681966 
L 159.177384 258.943219 
L 159.558369 259.075022 
L 159.558369 258.81377 
L 160.127883 258.420714 
L 159.750826 258.288911 
L 158.988855 258.681966 
L 158.800326 258.550163 
L 159.36984 258.288911 
L 159.750826 258.420714 
L 159.558369 258.550163 
L 159.36984 258.550163 
L 159.177384 258.288911 
L 158.800326 258.027658 
L 158.60787 257.634602 
L 158.988855 257.502799 
L 159.36984 257.764052 
L 159.750826 258.288911 
L 160.127883 258.550163 
L 158.988855 257.764052 
L 158.988855 257.502799 
L 159.177384 257.502799 
L 159.177384 257.370996 
L 159.36984 257.241546 
L 159.750826 257.370996 
L 160.127883 257.764052 
L 159.750826 257.502799 
L 158.988855 257.241546 
L 159.36984 257.634602 
L 158.988855 257.109743 
L 159.36984 256.97794 
L 160.127883 257.109743 
L 160.127883 257.370996 
L 159.177384 257.895855 
L 159.558369 256.97794 
L 159.558369 257.764052 
L 159.939355 258.288911 
L 159.177384 258.681966 
L 159.177384 258.681966 
L 159.177384 258.420714 
L 159.36984 258.027658 
L 159.558369 257.895855 
L 159.750826 258.027658 
L 159.36984 258.420714 
L 159.36984 258.157107 
L 160.127883 257.502799 
L 159.36984 257.241546 
L 159.177384 257.370996 
L 159.36984 257.634602 
L 159.939355 257.895855 
L 159.558369 257.764052 
L 158.988855 257.764052 
L 158.988855 257.895855 
L 158.60787 257.895855 
L 158.419341 257.502799 
L 158.60787 257.502799 
L 159.36984 258.027658 
L 159.36984 258.420714 
L 158.988855 258.420714 
L 158.419341 257.895855 
L 158.419341 258.027658 
L 158.226884 258.027658 
L 158.226884 258.027658 
L 158.60787 258.288911 
L 158.60787 258.420714 
L 158.60787 258.420714 
" style="fill:none;stroke:#1f77b4;stroke-linecap:square;stroke-width:1.5;"/>
   </g>
   <g id="matplotlib.axis_1">
    <g id="xtick_1">
     <g id="line2d_2">
      <defs>
       <path d="M 0 0 
L 0 3.5 
" id="m27d345bfb7" style="stroke:#000000;stroke-width:0.8;"/>
      </defs>
      <g>
       <use style="stroke:#000000;stroke-width:0.8;" x="60.753538" xlink:href="#m27d345bfb7" y="307.584"/>
      </g>
     </g>
     <g id="text_1">
      <!-- −600 -->
      <defs>
       <path d="M 10.59375 35.5 
L 73.1875 35.5 
L 73.1875 27.203125 
L 10.59375 27.203125 
z
" id="DejaVuSans-8722"/>
       <path d="M 33.015625 40.375 
Q 26.375 40.375 22.484375 35.828125 
Q 18.609375 31.296875 18.609375 23.390625 
Q 18.609375 15.53125 22.484375 10.953125 
Q 26.375 6.390625 33.015625 6.390625 
Q 39.65625 6.390625 43.53125 10.953125 
Q 47.40625 15.53125 47.40625 23.390625 
Q 47.40625 31.296875 43.53125 35.828125 
Q 39.65625 40.375 33.015625 40.375 
z
M 52.59375 71.296875 
L 52.59375 62.3125 
Q 48.875 64.0625 45.09375 64.984375 
Q 41.3125 65.921875 37.59375 65.921875 
Q 27.828125 65.921875 22.671875 59.328125 
Q 17.53125 52.734375 16.796875 39.40625 
Q 19.671875 43.65625 24.015625 45.921875 
Q 28.375 48.1875 33.59375 48.1875 
Q 44.578125 48.1875 50.953125 41.515625 
Q 57.328125 34.859375 57.328125 23.390625 
Q 57.328125 12.15625 50.6875 5.359375 
Q 44.046875 -1.421875 33.015625 -1.421875 
Q 20.359375 -1.421875 13.671875 8.265625 
Q 6.984375 17.96875 6.984375 36.375 
Q 6.984375 53.65625 15.1875 63.9375 
Q 23.390625 74.21875 37.203125 74.21875 
Q 40.921875 74.21875 44.703125 73.484375 
Q 48.484375 72.75 52.59375 71.296875 
z
" id="DejaVuSans-54"/>
       <path d="M 31.78125 66.40625 
Q 24.171875 66.40625 20.328125 58.90625 
Q 16.5 51.421875 16.5 36.375 
Q 16.5 21.390625 20.328125 13.890625 
Q 24.171875 6.390625 31.78125 6.390625 
Q 39.453125 6.390625 43.28125 13.890625 
Q 47.125 21.390625 47.125 36.375 
Q 47.125 51.421875 43.28125 58.90625 
Q 39.453125 66.40625 31.78125 66.40625 
z
M 31.78125 74.21875 
Q 44.046875 74.21875 50.515625 64.515625 
Q 56.984375 54.828125 56.984375 36.375 
Q 56.984375 17.96875 50.515625 8.265625 
Q 44.046875 -1.421875 31.78125 -1.421875 
Q 19.53125 -1.421875 13.0625 8.265625 
Q 6.59375 17.96875 6.59375 36.375 
Q 6.59375 54.828125 13.0625 64.515625 
Q 19.53125 74.21875 31.78125 74.21875 
z
" id="DejaVuSans-48"/>
      </defs>
      <g transform="translate(47.019944 322.182437)scale(0.1 -0.1)">
       <use xlink:href="#DejaVuSans-8722"/>
       <use x="83.789062" xlink:href="#DejaVuSans-54"/>
       <use x="147.412109" xlink:href="#DejaVuSans-48"/>
       <use x="211.035156" xlink:href="#DejaVuSans-48"/>
      </g>
     </g>
    </g>
    <g id="xtick_2">
     <g id="line2d_3">
      <g>
       <use style="stroke:#000000;stroke-width:0.8;" x="139.307228" xlink:href="#m27d345bfb7" y="307.584"/>
      </g>
     </g>
     <g id="text_2">
      <!-- −400 -->
      <defs>
       <path d="M 37.796875 64.3125 
L 12.890625 25.390625 
L 37.796875 25.390625 
z
M 35.203125 72.90625 
L 47.609375 72.90625 
L 47.609375 25.390625 
L 58.015625 25.390625 
L 58.015625 17.1875 
L 47.609375 17.1875 
L 47.609375 0 
L 37.796875 0 
L 37.796875 17.1875 
L 4.890625 17.1875 
L 4.890625 26.703125 
z
" id="DejaVuSans-52"/>
      </defs>
      <g transform="translate(125.573634 322.182437)scale(0.1 -0.1)">
       <use xlink:href="#DejaVuSans-8722"/>
       <use x="83.789062" xlink:href="#DejaVuSans-52"/>
       <use x="147.412109" xlink:href="#DejaVuSans-48"/>
       <use x="211.035156" xlink:href="#DejaVuSans-48"/>
      </g>
     </g>
    </g>
    <g id="xtick_3">
     <g id="line2d_4">
      <g>
       <use style="stroke:#000000;stroke-width:0.8;" x="217.860918" xlink:href="#m27d345bfb7" y="307.584"/>
      </g>
     </g>
     <g id="text_3">
      <!-- −200 -->
      <defs>
       <path d="M 19.1875 8.296875 
L 53.609375 8.296875 
L 53.609375 0 
L 7.328125 0 
L 7.328125 8.296875 
Q 12.9375 14.109375 22.625 23.890625 
Q 32.328125 33.6875 34.8125 36.53125 
Q 39.546875 41.84375 41.421875 45.53125 
Q 43.3125 49.21875 43.3125 52.78125 
Q 43.3125 58.59375 39.234375 62.25 
Q 35.15625 65.921875 28.609375 65.921875 
Q 23.96875 65.921875 18.8125 64.3125 
Q 13.671875 62.703125 7.8125 59.421875 
L 7.8125 69.390625 
Q 13.765625 71.78125 18.9375 73 
Q 24.125 74.21875 28.421875 74.21875 
Q 39.75 74.21875 46.484375 68.546875 
Q 53.21875 62.890625 53.21875 53.421875 
Q 53.21875 48.921875 51.53125 44.890625 
Q 49.859375 40.875 45.40625 35.40625 
Q 44.1875 33.984375 37.640625 27.21875 
Q 31.109375 20.453125 19.1875 8.296875 
z
" id="DejaVuSans-50"/>
      </defs>
      <g transform="translate(204.127324 322.182437)scale(0.1 -0.1)">
       <use xlink:href="#DejaVuSans-8722"/>
       <use x="83.789062" xlink:href="#DejaVuSans-50"/>
       <use x="147.412109" xlink:href="#DejaVuSans-48"/>
       <use x="211.035156" xlink:href="#DejaVuSans-48"/>
      </g>
     </g>
    </g>
    <g id="xtick_4">
     <g id="line2d_5">
      <g>
       <use style="stroke:#000000;stroke-width:0.8;" x="296.414608" xlink:href="#m27d345bfb7" y="307.584"/>
      </g>
     </g>
     <g id="text_4">
      <!-- 0 -->
      <g transform="translate(293.233358 322.182437)scale(0.1 -0.1)">
       <use xlink:href="#DejaVuSans-48"/>
      </g>
     </g>
    </g>
    <g id="xtick_5">
     <g id="line2d_6">
      <g>
       <use style="stroke:#000000;stroke-width:0.8;" x="374.968298" xlink:href="#m27d345bfb7" y="307.584"/>
      </g>
     </g>
     <g id="text_5">
      <!-- 200 -->
      <g transform="translate(365.424548 322.182437)scale(0.1 -0.1)">
       <use xlink:href="#DejaVuSans-50"/>
       <use x="63.623047" xlink:href="#DejaVuSans-48"/>
       <use x="127.246094" xlink:href="#DejaVuSans-48"/>
      </g>
     </g>
    </g>
   </g>
   <g id="matplotlib.axis_2">
    <g id="ytick_1">
     <g id="line2d_7">
      <defs>
       <path d="M 0 0 
L -3.5 0 
" id="m0aff6ceebb" style="stroke:#000000;stroke-width:0.8;"/>
      </defs>
      <g>
       <use style="stroke:#000000;stroke-width:0.8;" x="57.6" xlink:href="#m0aff6ceebb" y="262.301846"/>
      </g>
     </g>
     <g id="text_6">
      <!-- −200 -->
      <g transform="translate(23.132812 266.101065)scale(0.1 -0.1)">
       <use xlink:href="#DejaVuSans-8722"/>
       <use x="83.789062" xlink:href="#DejaVuSans-50"/>
       <use x="147.412109" xlink:href="#DejaVuSans-48"/>
       <use x="211.035156" xlink:href="#DejaVuSans-48"/>
      </g>
     </g>
    </g>
    <g id="ytick_2">
     <g id="line2d_8">
      <g>
       <use style="stroke:#000000;stroke-width:0.8;" x="57.6" xlink:href="#m0aff6ceebb" y="215.229288"/>
      </g>
     </g>
     <g id="text_7">
      <!-- 0 -->
      <g transform="translate(44.2375 219.028506)scale(0.1 -0.1)">
       <use xlink:href="#DejaVuSans-48"/>
      </g>
     </g>
    </g>
    <g id="ytick_3">
     <g id="line2d_9">
      <g>
       <use style="stroke:#000000;stroke-width:0.8;" x="57.6" xlink:href="#m0aff6ceebb" y="168.156729"/>
      </g>
     </g>
     <g id="text_8">
      <!-- 200 -->
      <g transform="translate(31.5125 171.955948)scale(0.1 -0.1)">
       <use xlink:href="#DejaVuSans-50"/>
       <use x="63.623047" xlink:href="#DejaVuSans-48"/>
       <use x="127.246094" xlink:href="#DejaVuSans-48"/>
      </g>
     </g>
    </g>
    <g id="ytick_4">
     <g id="line2d_10">
      <g>
       <use style="stroke:#000000;stroke-width:0.8;" x="57.6" xlink:href="#m0aff6ceebb" y="121.084171"/>
      </g>
     </g>
     <g id="text_9">
      <!-- 400 -->
      <g transform="translate(31.5125 124.883389)scale(0.1 -0.1)">
       <use xlink:href="#DejaVuSans-52"/>
       <use x="63.623047" xlink:href="#DejaVuSans-48"/>
       <use x="127.246094" xlink:href="#DejaVuSans-48"/>
      </g>
     </g>
    </g>
    <g id="ytick_5">
     <g id="line2d_11">
      <g>
       <use style="stroke:#000000;stroke-width:0.8;" x="57.6" xlink:href="#m0aff6ceebb" y="74.011612"/>
      </g>
     </g>
     <g id="text_10">
      <!-- 600 -->
      <g transform="translate(31.5125 77.810831)scale(0.1 -0.1)">
       <use xlink:href="#DejaVuSans-54"/>
       <use x="63.623047" xlink:href="#DejaVuSans-48"/>
       <use x="127.246094" xlink:href="#DejaVuSans-48"/>
      </g>
     </g>
    </g>
   </g>
   <g id="line2d_12">
    <path clip-path="url(#pa321452d80)" d="M 77.561038 55.018678 
L 171.420739 234.328175 
L 307.594762 266.659264 
L 385.666782 282.112219 
L 375.347931 290.167702 
L 158.255942 258.038184 
" style="fill:none;stroke:#ff0000;stroke-linecap:square;stroke-width:0.5;"/>
   </g>
   <g id="patch_3">
    <path d="M 57.6 307.584 
L 57.6 41.472 
" style="fill:none;stroke:#000000;stroke-linecap:square;stroke-linejoin:miter;stroke-width:0.8;"/>
   </g>
   <g id="patch_4">
    <path d="M 414.72 307.584 
L 414.72 41.472 
" style="fill:none;stroke:#000000;stroke-linecap:square;stroke-linejoin:miter;stroke-width:0.8;"/>
   </g>
   <g id="patch_5">
    <path d="M 57.6 307.584 
L 414.72 307.584 
" style="fill:none;stroke:#000000;stroke-linecap:square;stroke-linejoin:miter;stroke-width:0.8;"/>
   </g>
   <g id="patch_6">
    <path d="M 57.6 41.472 
L 414.72 41.472 
" style="fill:none;stroke:#000000;stroke-linecap:square;stroke-linejoin:miter;stroke-width:0.8;"/>
   </g>
   <g id="PathCollection_1">
    <defs>
     <path d="M 0 2.738613 
C 0.726289 2.738613 1.422928 2.450055 1.936492 1.936492 
C 2.450055 1.422928 2.738613 0.726289 2.738613 0 
C 2.738613 -0.726289 2.450055 -1.422928 1.936492 -1.936492 
C 1.422928 -2.450055 0.726289 -2.738613 0 -2.738613 
C -0.726289 -2.738613 -1.422928 -2.450055 -1.936492 -1.936492 
C -2.450055 -1.422928 -2.738613 -0.726289 -2.738613 0 
C -2.738613 0.726289 -2.450055 1.422928 -1.936492 1.936492 
C -1.422928 2.450055 -0.726289 2.738613 0 2.738613 
z
" id="m094c16dbc2" style="stroke:#ff0000;"/>
    </defs>
    <g clip-path="url(#pa321452d80)">
     <use style="fill:#ff0000;stroke:#ff0000;" x="77.561038" xlink:href="#m094c16dbc2" y="55.018678"/>
     <use style="fill:#ff0000;stroke:#ff0000;" x="171.420739" xlink:href="#m094c16dbc2" y="234.328175"/>
     <use style="fill:#ff0000;stroke:#ff0000;" x="307.594762" xlink:href="#m094c16dbc2" y="266.659264"/>
     <use style="fill:#ff0000;stroke:#ff0000;" x="385.666782" xlink:href="#m094c16dbc2" y="282.112219"/>
     <use style="fill:#ff0000;stroke:#ff0000;" x="375.347931" xlink:href="#m094c16dbc2" y="290.167702"/>
     <use style="fill:#ff0000;stroke:#ff0000;" x="158.255942" xlink:href="#m094c16dbc2" y="258.038184"/>
    </g>
   </g>
   <g id="text_11">
    <!-- (35) Subject: s7, Known = False, Degree = 1, Duration = 0.1 -->
    <defs>
     <path d="M 31 75.875 
Q 24.46875 64.65625 21.28125 53.65625 
Q 18.109375 42.671875 18.109375 31.390625 
Q 18.109375 20.125 21.3125 9.0625 
Q 24.515625 -2 31 -13.1875 
L 23.1875 -13.1875 
Q 15.875 -1.703125 12.234375 9.375 
Q 8.59375 20.453125 8.59375 31.390625 
Q 8.59375 42.28125 12.203125 53.3125 
Q 15.828125 64.359375 23.1875 75.875 
z
" id="DejaVuSans-40"/>
     <path d="M 40.578125 39.3125 
Q 47.65625 37.796875 51.625 33 
Q 55.609375 28.21875 55.609375 21.1875 
Q 55.609375 10.40625 48.1875 4.484375 
Q 40.765625 -1.421875 27.09375 -1.421875 
Q 22.515625 -1.421875 17.65625 -0.515625 
Q 12.796875 0.390625 7.625 2.203125 
L 7.625 11.71875 
Q 11.71875 9.328125 16.59375 8.109375 
Q 21.484375 6.890625 26.8125 6.890625 
Q 36.078125 6.890625 40.9375 10.546875 
Q 45.796875 14.203125 45.796875 21.1875 
Q 45.796875 27.640625 41.28125 31.265625 
Q 36.765625 34.90625 28.71875 34.90625 
L 20.21875 34.90625 
L 20.21875 43.015625 
L 29.109375 43.015625 
Q 36.375 43.015625 40.234375 45.921875 
Q 44.09375 48.828125 44.09375 54.296875 
Q 44.09375 59.90625 40.109375 62.90625 
Q 36.140625 65.921875 28.71875 65.921875 
Q 24.65625 65.921875 20.015625 65.03125 
Q 15.375 64.15625 9.8125 62.3125 
L 9.8125 71.09375 
Q 15.4375 72.65625 20.34375 73.4375 
Q 25.25 74.21875 29.59375 74.21875 
Q 40.828125 74.21875 47.359375 69.109375 
Q 53.90625 64.015625 53.90625 55.328125 
Q 53.90625 49.265625 50.4375 45.09375 
Q 46.96875 40.921875 40.578125 39.3125 
z
" id="DejaVuSans-51"/>
     <path d="M 10.796875 72.90625 
L 49.515625 72.90625 
L 49.515625 64.59375 
L 19.828125 64.59375 
L 19.828125 46.734375 
Q 21.96875 47.46875 24.109375 47.828125 
Q 26.265625 48.1875 28.421875 48.1875 
Q 40.625 48.1875 47.75 41.5 
Q 54.890625 34.8125 54.890625 23.390625 
Q 54.890625 11.625 47.5625 5.09375 
Q 40.234375 -1.421875 26.90625 -1.421875 
Q 22.3125 -1.421875 17.546875 -0.640625 
Q 12.796875 0.140625 7.71875 1.703125 
L 7.71875 11.625 
Q 12.109375 9.234375 16.796875 8.0625 
Q 21.484375 6.890625 26.703125 6.890625 
Q 35.15625 6.890625 40.078125 11.328125 
Q 45.015625 15.765625 45.015625 23.390625 
Q 45.015625 31 40.078125 35.4375 
Q 35.15625 39.890625 26.703125 39.890625 
Q 22.75 39.890625 18.8125 39.015625 
Q 14.890625 38.140625 10.796875 36.28125 
z
" id="DejaVuSans-53"/>
     <path d="M 8.015625 75.875 
L 15.828125 75.875 
Q 23.140625 64.359375 26.78125 53.3125 
Q 30.421875 42.28125 30.421875 31.390625 
Q 30.421875 20.453125 26.78125 9.375 
Q 23.140625 -1.703125 15.828125 -13.1875 
L 8.015625 -13.1875 
Q 14.5 -2 17.703125 9.0625 
Q 20.90625 20.125 20.90625 31.390625 
Q 20.90625 42.671875 17.703125 53.65625 
Q 14.5 64.65625 8.015625 75.875 
z
" id="DejaVuSans-41"/>
     <path id="DejaVuSans-32"/>
     <path d="M 53.515625 70.515625 
L 53.515625 60.890625 
Q 47.90625 63.578125 42.921875 64.890625 
Q 37.9375 66.21875 33.296875 66.21875 
Q 25.25 66.21875 20.875 63.09375 
Q 16.5 59.96875 16.5 54.203125 
Q 16.5 49.359375 19.40625 46.890625 
Q 22.3125 44.4375 30.421875 42.921875 
L 36.375 41.703125 
Q 47.40625 39.59375 52.65625 34.296875 
Q 57.90625 29 57.90625 20.125 
Q 57.90625 9.515625 50.796875 4.046875 
Q 43.703125 -1.421875 29.984375 -1.421875 
Q 24.8125 -1.421875 18.96875 -0.25 
Q 13.140625 0.921875 6.890625 3.21875 
L 6.890625 13.375 
Q 12.890625 10.015625 18.65625 8.296875 
Q 24.421875 6.59375 29.984375 6.59375 
Q 38.421875 6.59375 43.015625 9.90625 
Q 47.609375 13.234375 47.609375 19.390625 
Q 47.609375 24.75 44.3125 27.78125 
Q 41.015625 30.8125 33.5 32.328125 
L 27.484375 33.5 
Q 16.453125 35.6875 11.515625 40.375 
Q 6.59375 45.0625 6.59375 53.421875 
Q 6.59375 63.09375 13.40625 68.65625 
Q 20.21875 74.21875 32.171875 74.21875 
Q 37.3125 74.21875 42.625 73.28125 
Q 47.953125 72.359375 53.515625 70.515625 
z
" id="DejaVuSans-83"/>
     <path d="M 8.5 21.578125 
L 8.5 54.6875 
L 17.484375 54.6875 
L 17.484375 21.921875 
Q 17.484375 14.15625 20.5 10.265625 
Q 23.53125 6.390625 29.59375 6.390625 
Q 36.859375 6.390625 41.078125 11.03125 
Q 45.3125 15.671875 45.3125 23.6875 
L 45.3125 54.6875 
L 54.296875 54.6875 
L 54.296875 0 
L 45.3125 0 
L 45.3125 8.40625 
Q 42.046875 3.421875 37.71875 1 
Q 33.40625 -1.421875 27.6875 -1.421875 
Q 18.265625 -1.421875 13.375 4.4375 
Q 8.5 10.296875 8.5 21.578125 
z
M 31.109375 56 
z
" id="DejaVuSans-117"/>
     <path d="M 48.6875 27.296875 
Q 48.6875 37.203125 44.609375 42.84375 
Q 40.53125 48.484375 33.40625 48.484375 
Q 26.265625 48.484375 22.1875 42.84375 
Q 18.109375 37.203125 18.109375 27.296875 
Q 18.109375 17.390625 22.1875 11.75 
Q 26.265625 6.109375 33.40625 6.109375 
Q 40.53125 6.109375 44.609375 11.75 
Q 48.6875 17.390625 48.6875 27.296875 
z
M 18.109375 46.390625 
Q 20.953125 51.265625 25.265625 53.625 
Q 29.59375 56 35.59375 56 
Q 45.5625 56 51.78125 48.09375 
Q 58.015625 40.1875 58.015625 27.296875 
Q 58.015625 14.40625 51.78125 6.484375 
Q 45.5625 -1.421875 35.59375 -1.421875 
Q 29.59375 -1.421875 25.265625 0.953125 
Q 20.953125 3.328125 18.109375 8.203125 
L 18.109375 0 
L 9.078125 0 
L 9.078125 75.984375 
L 18.109375 75.984375 
z
" id="DejaVuSans-98"/>
     <path d="M 9.421875 54.6875 
L 18.40625 54.6875 
L 18.40625 -0.984375 
Q 18.40625 -11.421875 14.421875 -16.109375 
Q 10.453125 -20.796875 1.609375 -20.796875 
L -1.8125 -20.796875 
L -1.8125 -13.1875 
L 0.59375 -13.1875 
Q 5.71875 -13.1875 7.5625 -10.8125 
Q 9.421875 -8.453125 9.421875 -0.984375 
z
M 9.421875 75.984375 
L 18.40625 75.984375 
L 18.40625 64.59375 
L 9.421875 64.59375 
z
" id="DejaVuSans-106"/>
     <path d="M 56.203125 29.59375 
L 56.203125 25.203125 
L 14.890625 25.203125 
Q 15.484375 15.921875 20.484375 11.0625 
Q 25.484375 6.203125 34.421875 6.203125 
Q 39.59375 6.203125 44.453125 7.46875 
Q 49.3125 8.734375 54.109375 11.28125 
L 54.109375 2.78125 
Q 49.265625 0.734375 44.1875 -0.34375 
Q 39.109375 -1.421875 33.890625 -1.421875 
Q 20.796875 -1.421875 13.15625 6.1875 
Q 5.515625 13.8125 5.515625 26.8125 
Q 5.515625 40.234375 12.765625 48.109375 
Q 20.015625 56 32.328125 56 
Q 43.359375 56 49.78125 48.890625 
Q 56.203125 41.796875 56.203125 29.59375 
z
M 47.21875 32.234375 
Q 47.125 39.59375 43.09375 43.984375 
Q 39.0625 48.390625 32.421875 48.390625 
Q 24.90625 48.390625 20.390625 44.140625 
Q 15.875 39.890625 15.1875 32.171875 
z
" id="DejaVuSans-101"/>
     <path d="M 48.78125 52.59375 
L 48.78125 44.1875 
Q 44.96875 46.296875 41.140625 47.34375 
Q 37.3125 48.390625 33.40625 48.390625 
Q 24.65625 48.390625 19.8125 42.84375 
Q 14.984375 37.3125 14.984375 27.296875 
Q 14.984375 17.28125 19.8125 11.734375 
Q 24.65625 6.203125 33.40625 6.203125 
Q 37.3125 6.203125 41.140625 7.25 
Q 44.96875 8.296875 48.78125 10.40625 
L 48.78125 2.09375 
Q 45.015625 0.34375 40.984375 -0.53125 
Q 36.96875 -1.421875 32.421875 -1.421875 
Q 20.0625 -1.421875 12.78125 6.34375 
Q 5.515625 14.109375 5.515625 27.296875 
Q 5.515625 40.671875 12.859375 48.328125 
Q 20.21875 56 33.015625 56 
Q 37.15625 56 41.109375 55.140625 
Q 45.0625 54.296875 48.78125 52.59375 
z
" id="DejaVuSans-99"/>
     <path d="M 18.3125 70.21875 
L 18.3125 54.6875 
L 36.8125 54.6875 
L 36.8125 47.703125 
L 18.3125 47.703125 
L 18.3125 18.015625 
Q 18.3125 11.328125 20.140625 9.421875 
Q 21.96875 7.515625 27.59375 7.515625 
L 36.8125 7.515625 
L 36.8125 0 
L 27.59375 0 
Q 17.1875 0 13.234375 3.875 
Q 9.28125 7.765625 9.28125 18.015625 
L 9.28125 47.703125 
L 2.6875 47.703125 
L 2.6875 54.6875 
L 9.28125 54.6875 
L 9.28125 70.21875 
z
" id="DejaVuSans-116"/>
     <path d="M 11.71875 12.40625 
L 22.015625 12.40625 
L 22.015625 0 
L 11.71875 0 
z
M 11.71875 51.703125 
L 22.015625 51.703125 
L 22.015625 39.3125 
L 11.71875 39.3125 
z
" id="DejaVuSans-58"/>
     <path d="M 44.28125 53.078125 
L 44.28125 44.578125 
Q 40.484375 46.53125 36.375 47.5 
Q 32.28125 48.484375 27.875 48.484375 
Q 21.1875 48.484375 17.84375 46.4375 
Q 14.5 44.390625 14.5 40.28125 
Q 14.5 37.15625 16.890625 35.375 
Q 19.28125 33.59375 26.515625 31.984375 
L 29.59375 31.296875 
Q 39.15625 29.25 43.1875 25.515625 
Q 47.21875 21.78125 47.21875 15.09375 
Q 47.21875 7.46875 41.1875 3.015625 
Q 35.15625 -1.421875 24.609375 -1.421875 
Q 20.21875 -1.421875 15.453125 -0.5625 
Q 10.6875 0.296875 5.421875 2 
L 5.421875 11.28125 
Q 10.40625 8.6875 15.234375 7.390625 
Q 20.0625 6.109375 24.8125 6.109375 
Q 31.15625 6.109375 34.5625 8.28125 
Q 37.984375 10.453125 37.984375 14.40625 
Q 37.984375 18.0625 35.515625 20.015625 
Q 33.0625 21.96875 24.703125 23.78125 
L 21.578125 24.515625 
Q 13.234375 26.265625 9.515625 29.90625 
Q 5.8125 33.546875 5.8125 39.890625 
Q 5.8125 47.609375 11.28125 51.796875 
Q 16.75 56 26.8125 56 
Q 31.78125 56 36.171875 55.265625 
Q 40.578125 54.546875 44.28125 53.078125 
z
" id="DejaVuSans-115"/>
     <path d="M 8.203125 72.90625 
L 55.078125 72.90625 
L 55.078125 68.703125 
L 28.609375 0 
L 18.3125 0 
L 43.21875 64.59375 
L 8.203125 64.59375 
z
" id="DejaVuSans-55"/>
     <path d="M 11.71875 12.40625 
L 22.015625 12.40625 
L 22.015625 4 
L 14.015625 -11.625 
L 7.71875 -11.625 
L 11.71875 4 
z
" id="DejaVuSans-44"/>
     <path d="M 9.8125 72.90625 
L 19.671875 72.90625 
L 19.671875 42.09375 
L 52.390625 72.90625 
L 65.09375 72.90625 
L 28.90625 38.921875 
L 67.671875 0 
L 54.6875 0 
L 19.671875 35.109375 
L 19.671875 0 
L 9.8125 0 
z
" id="DejaVuSans-75"/>
     <path d="M 54.890625 33.015625 
L 54.890625 0 
L 45.90625 0 
L 45.90625 32.71875 
Q 45.90625 40.484375 42.875 44.328125 
Q 39.84375 48.1875 33.796875 48.1875 
Q 26.515625 48.1875 22.3125 43.546875 
Q 18.109375 38.921875 18.109375 30.90625 
L 18.109375 0 
L 9.078125 0 
L 9.078125 54.6875 
L 18.109375 54.6875 
L 18.109375 46.1875 
Q 21.34375 51.125 25.703125 53.5625 
Q 30.078125 56 35.796875 56 
Q 45.21875 56 50.046875 50.171875 
Q 54.890625 44.34375 54.890625 33.015625 
z
" id="DejaVuSans-110"/>
     <path d="M 30.609375 48.390625 
Q 23.390625 48.390625 19.1875 42.75 
Q 14.984375 37.109375 14.984375 27.296875 
Q 14.984375 17.484375 19.15625 11.84375 
Q 23.34375 6.203125 30.609375 6.203125 
Q 37.796875 6.203125 41.984375 11.859375 
Q 46.1875 17.53125 46.1875 27.296875 
Q 46.1875 37.015625 41.984375 42.703125 
Q 37.796875 48.390625 30.609375 48.390625 
z
M 30.609375 56 
Q 42.328125 56 49.015625 48.375 
Q 55.71875 40.765625 55.71875 27.296875 
Q 55.71875 13.875 49.015625 6.21875 
Q 42.328125 -1.421875 30.609375 -1.421875 
Q 18.84375 -1.421875 12.171875 6.21875 
Q 5.515625 13.875 5.515625 27.296875 
Q 5.515625 40.765625 12.171875 48.375 
Q 18.84375 56 30.609375 56 
z
" id="DejaVuSans-111"/>
     <path d="M 4.203125 54.6875 
L 13.1875 54.6875 
L 24.421875 12.015625 
L 35.59375 54.6875 
L 46.1875 54.6875 
L 57.421875 12.015625 
L 68.609375 54.6875 
L 77.59375 54.6875 
L 63.28125 0 
L 52.6875 0 
L 40.921875 44.828125 
L 29.109375 0 
L 18.5 0 
z
" id="DejaVuSans-119"/>
     <path d="M 10.59375 45.40625 
L 73.1875 45.40625 
L 73.1875 37.203125 
L 10.59375 37.203125 
z
M 10.59375 25.484375 
L 73.1875 25.484375 
L 73.1875 17.1875 
L 10.59375 17.1875 
z
" id="DejaVuSans-61"/>
     <path d="M 9.8125 72.90625 
L 51.703125 72.90625 
L 51.703125 64.59375 
L 19.671875 64.59375 
L 19.671875 43.109375 
L 48.578125 43.109375 
L 48.578125 34.8125 
L 19.671875 34.8125 
L 19.671875 0 
L 9.8125 0 
z
" id="DejaVuSans-70"/>
     <path d="M 34.28125 27.484375 
Q 23.390625 27.484375 19.1875 25 
Q 14.984375 22.515625 14.984375 16.5 
Q 14.984375 11.71875 18.140625 8.90625 
Q 21.296875 6.109375 26.703125 6.109375 
Q 34.1875 6.109375 38.703125 11.40625 
Q 43.21875 16.703125 43.21875 25.484375 
L 43.21875 27.484375 
z
M 52.203125 31.203125 
L 52.203125 0 
L 43.21875 0 
L 43.21875 8.296875 
Q 40.140625 3.328125 35.546875 0.953125 
Q 30.953125 -1.421875 24.3125 -1.421875 
Q 15.921875 -1.421875 10.953125 3.296875 
Q 6 8.015625 6 15.921875 
Q 6 25.140625 12.171875 29.828125 
Q 18.359375 34.515625 30.609375 34.515625 
L 43.21875 34.515625 
L 43.21875 35.40625 
Q 43.21875 41.609375 39.140625 45 
Q 35.0625 48.390625 27.6875 48.390625 
Q 23 48.390625 18.546875 47.265625 
Q 14.109375 46.140625 10.015625 43.890625 
L 10.015625 52.203125 
Q 14.9375 54.109375 19.578125 55.046875 
Q 24.21875 56 28.609375 56 
Q 40.484375 56 46.34375 49.84375 
Q 52.203125 43.703125 52.203125 31.203125 
z
" id="DejaVuSans-97"/>
     <path d="M 9.421875 75.984375 
L 18.40625 75.984375 
L 18.40625 0 
L 9.421875 0 
z
" id="DejaVuSans-108"/>
     <path d="M 19.671875 64.796875 
L 19.671875 8.109375 
L 31.59375 8.109375 
Q 46.6875 8.109375 53.6875 14.9375 
Q 60.6875 21.78125 60.6875 36.53125 
Q 60.6875 51.171875 53.6875 57.984375 
Q 46.6875 64.796875 31.59375 64.796875 
z
M 9.8125 72.90625 
L 30.078125 72.90625 
Q 51.265625 72.90625 61.171875 64.09375 
Q 71.09375 55.28125 71.09375 36.53125 
Q 71.09375 17.671875 61.125 8.828125 
Q 51.171875 0 30.078125 0 
L 9.8125 0 
z
" id="DejaVuSans-68"/>
     <path d="M 45.40625 27.984375 
Q 45.40625 37.75 41.375 43.109375 
Q 37.359375 48.484375 30.078125 48.484375 
Q 22.859375 48.484375 18.828125 43.109375 
Q 14.796875 37.75 14.796875 27.984375 
Q 14.796875 18.265625 18.828125 12.890625 
Q 22.859375 7.515625 30.078125 7.515625 
Q 37.359375 7.515625 41.375 12.890625 
Q 45.40625 18.265625 45.40625 27.984375 
z
M 54.390625 6.78125 
Q 54.390625 -7.171875 48.1875 -13.984375 
Q 42 -20.796875 29.203125 -20.796875 
Q 24.46875 -20.796875 20.265625 -20.09375 
Q 16.0625 -19.390625 12.109375 -17.921875 
L 12.109375 -9.1875 
Q 16.0625 -11.328125 19.921875 -12.34375 
Q 23.78125 -13.375 27.78125 -13.375 
Q 36.625 -13.375 41.015625 -8.765625 
Q 45.40625 -4.15625 45.40625 5.171875 
L 45.40625 9.625 
Q 42.625 4.78125 38.28125 2.390625 
Q 33.9375 0 27.875 0 
Q 17.828125 0 11.671875 7.65625 
Q 5.515625 15.328125 5.515625 27.984375 
Q 5.515625 40.671875 11.671875 48.328125 
Q 17.828125 56 27.875 56 
Q 33.9375 56 38.28125 53.609375 
Q 42.625 51.21875 45.40625 46.390625 
L 45.40625 54.6875 
L 54.390625 54.6875 
z
" id="DejaVuSans-103"/>
     <path d="M 41.109375 46.296875 
Q 39.59375 47.171875 37.8125 47.578125 
Q 36.03125 48 33.890625 48 
Q 26.265625 48 22.1875 43.046875 
Q 18.109375 38.09375 18.109375 28.8125 
L 18.109375 0 
L 9.078125 0 
L 9.078125 54.6875 
L 18.109375 54.6875 
L 18.109375 46.1875 
Q 20.953125 51.171875 25.484375 53.578125 
Q 30.03125 56 36.53125 56 
Q 37.453125 56 38.578125 55.875 
Q 39.703125 55.765625 41.0625 55.515625 
z
" id="DejaVuSans-114"/>
     <path d="M 12.40625 8.296875 
L 28.515625 8.296875 
L 28.515625 63.921875 
L 10.984375 60.40625 
L 10.984375 69.390625 
L 28.421875 72.90625 
L 38.28125 72.90625 
L 38.28125 8.296875 
L 54.390625 8.296875 
L 54.390625 0 
L 12.40625 0 
z
" id="DejaVuSans-49"/>
     <path d="M 9.421875 54.6875 
L 18.40625 54.6875 
L 18.40625 0 
L 9.421875 0 
z
M 9.421875 75.984375 
L 18.40625 75.984375 
L 18.40625 64.59375 
L 9.421875 64.59375 
z
" id="DejaVuSans-105"/>
     <path d="M 10.6875 12.40625 
L 21 12.40625 
L 21 0 
L 10.6875 0 
z
" id="DejaVuSans-46"/>
    </defs>
    <g transform="translate(53.559375 35.472)scale(0.12 -0.12)">
     <use xlink:href="#DejaVuSans-40"/>
     <use x="39.013672" xlink:href="#DejaVuSans-51"/>
     <use x="102.636719" xlink:href="#DejaVuSans-53"/>
     <use x="166.259766" xlink:href="#DejaVuSans-41"/>
     <use x="205.273438" xlink:href="#DejaVuSans-32"/>
     <use x="237.060547" xlink:href="#DejaVuSans-83"/>
     <use x="300.537109" xlink:href="#DejaVuSans-117"/>
     <use x="363.916016" xlink:href="#DejaVuSans-98"/>
     <use x="427.392578" xlink:href="#DejaVuSans-106"/>
     <use x="455.175781" xlink:href="#DejaVuSans-101"/>
     <use x="516.699219" xlink:href="#DejaVuSans-99"/>
     <use x="571.679688" xlink:href="#DejaVuSans-116"/>
     <use x="610.888672" xlink:href="#DejaVuSans-58"/>
     <use x="644.580078" xlink:href="#DejaVuSans-32"/>
     <use x="676.367188" xlink:href="#DejaVuSans-115"/>
     <use x="728.466797" xlink:href="#DejaVuSans-55"/>
     <use x="792.089844" xlink:href="#DejaVuSans-44"/>
     <use x="823.876953" xlink:href="#DejaVuSans-32"/>
     <use x="855.664062" xlink:href="#DejaVuSans-75"/>
     <use x="921.240234" xlink:href="#DejaVuSans-110"/>
     <use x="984.619141" xlink:href="#DejaVuSans-111"/>
     <use x="1045.800781" xlink:href="#DejaVuSans-119"/>
     <use x="1127.587891" xlink:href="#DejaVuSans-110"/>
     <use x="1190.966797" xlink:href="#DejaVuSans-32"/>
     <use x="1222.753906" xlink:href="#DejaVuSans-61"/>
     <use x="1306.542969" xlink:href="#DejaVuSans-32"/>
     <use x="1338.330078" xlink:href="#DejaVuSans-70"/>
     <use x="1395.708984" xlink:href="#DejaVuSans-97"/>
     <use x="1456.988281" xlink:href="#DejaVuSans-108"/>
     <use x="1484.771484" xlink:href="#DejaVuSans-115"/>
     <use x="1536.871094" xlink:href="#DejaVuSans-101"/>
     <use x="1598.394531" xlink:href="#DejaVuSans-44"/>
     <use x="1630.181641" xlink:href="#DejaVuSans-32"/>
     <use x="1661.96875" xlink:href="#DejaVuSans-68"/>
     <use x="1738.970703" xlink:href="#DejaVuSans-101"/>
     <use x="1800.494141" xlink:href="#DejaVuSans-103"/>
     <use x="1863.970703" xlink:href="#DejaVuSans-114"/>
     <use x="1905.052734" xlink:href="#DejaVuSans-101"/>
     <use x="1966.576172" xlink:href="#DejaVuSans-101"/>
     <use x="2028.099609" xlink:href="#DejaVuSans-32"/>
     <use x="2059.886719" xlink:href="#DejaVuSans-61"/>
     <use x="2143.675781" xlink:href="#DejaVuSans-32"/>
     <use x="2175.462891" xlink:href="#DejaVuSans-49"/>
     <use x="2239.085938" xlink:href="#DejaVuSans-44"/>
     <use x="2270.873047" xlink:href="#DejaVuSans-32"/>
     <use x="2302.660156" xlink:href="#DejaVuSans-68"/>
     <use x="2379.662109" xlink:href="#DejaVuSans-117"/>
     <use x="2443.041016" xlink:href="#DejaVuSans-114"/>
     <use x="2484.154297" xlink:href="#DejaVuSans-97"/>
     <use x="2545.433594" xlink:href="#DejaVuSans-116"/>
     <use x="2584.642578" xlink:href="#DejaVuSans-105"/>
     <use x="2612.425781" xlink:href="#DejaVuSans-111"/>
     <use x="2673.607422" xlink:href="#DejaVuSans-110"/>
     <use x="2736.986328" xlink:href="#DejaVuSans-32"/>
     <use x="2768.773438" xlink:href="#DejaVuSans-61"/>
     <use x="2852.5625" xlink:href="#DejaVuSans-32"/>
     <use x="2884.349609" xlink:href="#DejaVuSans-48"/>
     <use x="2947.972656" xlink:href="#DejaVuSans-46"/>
     <use x="2979.759766" xlink:href="#DejaVuSans-49"/>
    </g>
   </g>
  </g>
 </g>
 <defs>
  <clipPath id="pa321452d80">
   <rect height="266.112" width="357.12" x="57.6" y="41.472"/>
  </clipPath>
 </defs>
</svg>
