<?xml version="1.0" encoding="utf-8" standalone="no"?>
<!DOCTYPE svg PUBLIC "-//W3C//DTD SVG 1.1//EN"
  "http://www.w3.org/Graphics/SVG/1.1/DTD/svg11.dtd">
<!-- Created with matplotlib (https://matplotlib.org/) -->
<svg height="345.6pt" version="1.1" viewBox="0 0 460.8 345.6" width="460.8pt" xmlns="http://www.w3.org/2000/svg" xmlns:xlink="http://www.w3.org/1999/xlink">
 <defs>
  <style type="text/css">
*{stroke-linecap:butt;stroke-linejoin:round;}
  </style>
 </defs>
 <g id="figure_1">
  <g id="patch_1">
   <path d="M 0 345.6 
L 460.8 345.6 
L 460.8 0 
L 0 0 
z
" style="fill:#ffffff;"/>
  </g>
  <g id="axes_1">
   <g id="patch_2">
    <path d="M 57.6 307.584 
L 414.72 307.584 
L 414.72 41.472 
L 57.6 41.472 
z
" style="fill:#ffffff;"/>
   </g>
   <g id="line2d_1">
    <path clip-path="url(#pabe0ba99d9)" d="M 206.313033 255.590451 
L 206.423527 255.767045 
L 206.858739 255.707828 
L 206.969233 255.767045 
L 206.7505 255.707828 
L 206.531766 255.707828 
L 201.401678 259.002839 
L 201.512172 258.885462 
L 202.057878 258.474114 
L 201.947384 258.474114 
L 201.730905 258.238303 
L 201.730905 257.825898 
L 201.401678 257.591144 
L 201.401678 257.591144 
L 201.947384 257.297173 
L 201.947384 257.178739 
L 201.293439 256.648957 
L 201.074705 256.648957 
L 201.620411 256.590798 
L 202.276612 256.472363 
L 202.384851 256.295769 
L 202.057878 256.061016 
L 201.293439 256.001799 
L 201.074705 256.178392 
L 200.312521 255.825205 
L 200.747732 255.943639 
L 202.930557 256.001799 
L 202.930557 255.943639 
L 203.25753 255.707828 
L 203.694996 255.767045 
L 203.584502 255.590451 
L 203.476263 255.531234 
L 203.25753 255.767045 
L 203.476263 255.648611 
L 203.368024 255.295423 
L 203.25753 255.413857 
L 203.25753 255.590451 
L 203.476263 255.707828 
L 203.694996 255.648611 
L 203.584502 255.35464 
L 203.694996 254.943292 
L 203.803236 254.943292 
L 203.694996 255.295423 
L 203.803236 255.118829 
L 203.91373 255.001452 
L 204.457181 254.824858 
L 204.348942 254.766698 
L 204.240703 254.47167 
L 204.021969 254.354293 
L 204.240703 254.354293 
L 204.567675 254.41351 
L 204.675914 254.530887 
L 204.567675 254.530887 
L 204.348942 254.354293 
L 204.130208 254.118482 
L 204.240703 254.236916 
L 204.130208 254.354293 
L 203.91373 254.295076 
L 203.91373 254.177699 
L 204.021969 254.236916 
L 204.457181 254.295076 
L 204.457181 254.177699 
L 204.567675 254.060322 
L 204.457181 254.060322 
L 204.348942 254.177699 
L 204.021969 254.001105 
L 204.457181 254.236916 
L 204.567675 254.118482 
L 204.567675 253.941888 
L 204.457181 253.941888 
L 204.240703 253.941888 
L 204.675914 253.941888 
L 204.675914 254.001105 
L 204.348942 254.177699 
L 204.348942 254.236916 
L 204.240703 254.236916 
L 204.130208 254.236916 
L 204.130208 254.236916 
L 204.021969 253.941888 
L 204.567675 254.118482 
L 204.348942 254.236916 
L 204.240703 254.354293 
L 204.130208 254.118482 
L 204.130208 254.354293 
L 204.021969 254.47167 
L 204.021969 254.354293 
L 204.021969 254.236916 
L 203.91373 254.236916 
L 203.584502 254.47167 
L 204.021969 254.177699 
L 203.91373 254.295076 
L 203.91373 254.648264 
L 203.91373 254.236916 
L 203.803236 254.236916 
L 203.584502 254.41351 
L 203.803236 254.530887 
L 203.91373 254.41351 
L 203.694996 254.236916 
L 204.021969 254.41351 
L 203.91373 254.648264 
L 203.584502 254.590104 
L 203.368024 254.41351 
L 203.476263 254.41351 
L 203.803236 254.707481 
L 203.584502 254.766698 
L 203.25753 254.707481 
L 203.25753 254.766698 
L 204.240703 255.060669 
L 204.021969 255.118829 
L 203.803236 255.237263 
L 203.584502 255.178046 
L 203.694996 254.824858 
L 203.803236 254.943292 
L 203.584502 255.118829 
L 203.584502 255.060669 
L 203.694996 255.060669 
L 203.803236 255.060669 
L 203.368024 255.060669 
L 203.368024 255.060669 
L 203.476263 255.237263 
L 204.021969 255.295423 
L 203.803236 255.35464 
L 202.822318 255.237263 
L 202.822318 255.060669 
L 203.038796 255.001452 
L 203.368024 255.060669 
L 203.476263 255.295423 
L 203.14929 255.35464 
L 202.822318 255.590451 
L 203.038796 255.590451 
L 202.603584 255.590451 
L 202.603584 255.35464 
L 202.49309 255.943639 
L 202.166117 256.120233 
L 201.947384 255.943639 
L 202.49309 255.767045 
L 202.166117 255.943639 
L 202.276612 256.061016 
L 201.947384 256.23761 
L 201.947384 256.23761 
L 202.057878 256.23761 
L 202.057878 256.295769 
L 202.276612 256.472363 
L 202.166117 255.884422 
L 201.730905 256.001799 
L 201.730905 256.120233 
L 202.603584 256.178392 
L 202.057878 256.120233 
L 202.384851 256.354986 
L 202.49309 256.414204 
L 202.166117 256.295769 
L 201.947384 256.295769 
L 202.057878 256.354986 
L 202.166117 256.414204 
L 201.730905 256.120233 
L 201.839145 256.178392 
L 202.166117 256.061016 
L 202.384851 256.178392 
L 201.947384 255.884422 
L 202.384851 256.061016 
L 202.603584 255.943639 
L 202.49309 255.943639 
L 202.057878 255.943639 
L 202.384851 255.943639 
L 202.49309 256.061016 
L 202.384851 256.295769 
L 202.276612 256.001799 
L 202.49309 256.295769 
L 202.822318 256.590798 
L 202.276612 256.53158 
L 202.603584 256.53158 
L 202.711823 256.414204 
L 202.49309 256.295769 
L 202.603584 256.23761 
L 202.930557 256.414204 
L 202.384851 256.590798 
L 202.711823 256.472363 
L 202.822318 256.23761 
L 202.930557 256.414204 
L 203.14929 256.53158 
L 203.14929 256.472363 
L 202.603584 256.648957 
L 202.603584 256.53158 
L 202.603584 256.590798 
L 202.930557 256.53158 
L 202.930557 256.590798 
L 202.822318 256.648957 
L 202.930557 256.648957 
L 203.038796 256.708174 
L 203.25753 256.354986 
L 203.038796 256.354986 
L 203.14929 256.414204 
L 202.603584 256.767392 
L 202.822318 256.648957 
L 203.368024 256.767392 
L 203.14929 256.767392 
L 202.822318 256.825551 
L 202.930557 256.708174 
L 203.25753 256.590798 
L 203.368024 256.648957 
L 203.25753 256.708174 
L 202.603584 256.767392 
L 203.25753 256.648957 
L 203.25753 256.590798 
L 202.822318 256.767392 
L 202.930557 256.590798 
L 202.930557 257.061362 
L 203.038796 257.061362 
L 203.14929 256.943986 
L 202.930557 256.884768 
L 202.603584 257.002145 
L 202.822318 256.884768 
L 202.930557 256.767392 
L 202.822318 256.884768 
L 202.49309 256.943986 
L 202.822318 256.943986 
L 203.038796 257.297173 
L 202.930557 257.297173 
L 202.930557 257.237956 
L 202.822318 257.120579 
L 202.711823 257.120579 
L 202.711823 257.178739 
L 202.711823 257.237956 
L 201.947384 257.355333 
L 200.639493 256.884768 
L 198.891881 256.943986 
L 194.09102 257.297173 
L 192.891368 257.591144 
L 190.271077 258.002492 
L 189.071426 258.35568 
L 183.724859 261.003532 
L 181.869007 262.180473 
L 177.176386 263.710601 
L 174.339616 264.123006 
L 173.137709 264.770165 
L 173.02947 264.946759 
L 173.137709 265.18257 
L 172.921231 266.241077 
L 172.921231 266.476888 
L 173.137709 266.536105 
L 173.466937 266.417671 
L 174.447855 266.653482 
L 174.556094 266.947453 
L 174.666588 267.477235 
L 174.229122 268.007017 
L 174.120882 268.360204 
L 174.229122 268.536798 
L 174.556094 268.713392 
L 174.447855 269.06658 
L 174.120882 269.12474 
L 174.447855 269.06658 
L 174.774828 269.360551 
L 174.666588 269.477928 
L 174.556094 269.418711 
L 174.666588 269.243174 
L 175.647506 269.243174 
L 174.993561 269.06658 
L 174.774828 269.301334 
L 175.1018 269.360551 
L 175.320534 269.301334 
L 175.758001 269.477928 
L 175.758001 269.654522 
L 175.647506 269.360551 
L 175.758001 269.418711 
L 175.976734 269.537145 
L 175.431028 269.595305 
L 175.212295 269.654522 
L 175.320534 269.537145 
L 175.320534 269.418711 
L 175.1018 269.360551 
L 175.1018 269.418711 
L 175.1018 269.537145 
L 175.212295 269.418711 
L 175.320534 269.477928 
L 175.431028 269.771899 
L 175.431028 269.713739 
L 175.647506 269.654522 
L 176.193213 269.831116 
L 176.084973 270.243521 
L 175.976734 270.301681 
L 175.86624 270.184304 
L 175.86624 269.890333 
L 175.86624 270.066927 
L 176.303707 270.301681 
L 176.193213 270.537492 
L 176.303707 270.595652 
L 175.86624 270.478275 
L 175.976734 270.654869 
L 176.957652 270.243521 
L 175.86624 270.595652 
L 175.758001 270.595652 
L 175.758001 270.94884 
L 176.084973 271.067274 
L 176.303707 271.008057 
L 176.193213 270.654869 
L 174.885322 270.595652 
L 173.137709 270.654869 
L 168.663821 270.595652 
L 164.408667 270.301681 
L 158.732872 269.831116 
L 155.56913 269.713739 
L 152.403132 269.713739 
L 145.74642 269.890333 
L 142.255704 269.948493 
L 129.487985 270.595652 
L 117.811679 270.772246 
L 114.753921 270.714086 
L 102.204935 271.125433 
L 99.041193 271.067274 
L 92.819692 270.772246 
L 89.874683 270.714086 
L 84.525861 270.420115 
L 82.016064 270.420115 
L 78.196121 270.714086 
L 73.832727 271.302027 
L 73.940967 271.361245 
L 75.140618 271.302027 
L 77.104709 272.067621 
L 78.414855 272.008403 
L 78.852321 272.008403 
L 79.616761 272.302374 
L 79.943734 272.478968 
L 79.616761 272.655562 
L 79.725 272.714779 
L 79.833239 273.00875 
L 80.162467 273.126127 
L 79.725 273.302721 
L 79.179294 273.244561 
L 79.179294 273.126127 
L 79.287533 273.126127 
L 79.725 273.185344 
L 79.943734 273.421155 
L 79.725 273.067967 
L 79.833239 273.00875 
L 81.035146 273.421155 
L 80.924652 273.244561 
L 80.924652 273.067967 
L 81.035146 273.067967 
L 81.251624 273.185344 
L 81.143385 273.244561 
L 81.035146 273.361938 
L 81.143385 273.655909 
L 81.580852 273.361938 
L 81.251624 273.302721 
L 81.035146 273.302721 
L 82.016064 273.361938 
L 81.79733 273.244561 
L 81.689091 273.067967 
L 81.79733 273.067967 
L 82.453531 272.949533 
L 82.126558 273.067967 
L 81.907825 273.185344 
L 82.016064 273.185344 
L 83.107476 273.597749 
L 83.107476 273.479315 
L 83.32621 273.538532 
L 82.999237 273.597749 
L 82.672264 273.479315 
L 82.453531 273.597749 
L 82.234797 274.244908 
L 82.780503 274.009097 
L 83.107476 274.068314 
L 82.999237 274.126474 
L 82.999237 274.185691 
L 83.21797 274.185691 
L 83.107476 274.185691 
L 82.999237 274.068314 
L 83.21797 273.89172 
L 83.434449 273.89172 
L 83.32621 273.89172 
L 82.888743 273.715126 
L 83.107476 273.715126 
L 82.888743 273.655909 
L 82.888743 273.715126 
L 82.888743 274.068314 
L 82.999237 273.950937 
L 83.32621 273.89172 
L 83.107476 274.009097 
L 83.32621 274.009097 
L 83.544943 273.774343 
L 83.107476 273.950937 
L 83.107476 274.185691 
L 83.653182 273.950937 
L 83.871916 273.715126 
L 83.434449 274.068314 
L 83.32621 274.068314 
L 83.544943 274.009097 
L 83.653182 273.597749 
L 83.653182 273.655909 
L 84.090649 274.009097 
L 83.980155 274.009097 
L 83.544943 274.068314 
L 83.653182 274.185691 
L 83.544943 274.303068 
L 83.980155 274.244908 
L 84.198888 274.009097 
L 84.090649 274.185691 
L 84.525861 274.303068 
L 84.198888 274.126474 
L 84.198888 274.009097 
L 84.307128 274.009097 
L 84.525861 274.185691 
L 84.417622 274.068314 
L 84.090649 274.009097 
L 83.763676 274.068314 
L 83.763676 274.598096 
L 83.653182 274.598096 
L 83.434449 274.598096 
L 83.434449 274.656256 
L 83.544943 274.715473 
L 83.653182 274.951284 
L 83.653182 274.77469 
L 83.763676 274.77469 
L 83.653182 275.009444 
L 83.434449 275.186037 
L 83.21797 275.186037 
L 83.107476 275.303414 
L 83.21797 275.186037 
L 83.434449 275.127878 
L 83.653182 275.186037 
L 83.980155 275.480008 
L 83.871916 275.480008 
L 83.653182 275.421849 
L 83.763676 275.480008 
L 83.544943 275.480008 
L 83.653182 275.715819 
L 83.980155 275.598443 
L 83.980155 275.598443 
L 83.653182 275.421849 
L 83.871916 275.598443 
L 83.544943 275.775037 
L 84.198888 275.539225 
L 83.871916 275.480008 
L 83.871916 275.303414 
L 83.871916 275.715819 
L 83.653182 275.715819 
L 83.763676 275.362631 
L 83.763676 275.480008 
L 83.980155 275.539225 
L 84.307128 275.421849 
L 84.525861 275.127878 
L 84.090649 275.186037 
L 84.090649 275.303414 
L 84.636355 275.421849 
L 84.636355 275.362631 
L 84.090649 275.127878 
L 83.980155 275.480008 
L 84.090649 275.362631 
L 84.198888 275.245255 
L 84.307128 275.303414 
L 84.198888 275.362631 
L 84.198888 275.480008 
L 84.307128 275.009444 
L 84.417622 274.951284 
L 84.636355 275.068661 
L 84.525861 275.480008 
L 84.636355 275.303414 
L 84.307128 275.303414 
L 84.198888 275.186037 
L 84.417622 274.892067 
L 84.307128 274.892067 
L 84.307128 274.77469 
L 85.071567 274.715473 
L 85.071567 274.538879 
L 84.636355 274.479662 
L 84.525861 274.598096 
L 84.963328 275.009444 
L 84.963328 274.951284 
L 85.071567 274.83285 
L 84.963328 274.77469 
L 84.417622 274.892067 
L 84.307128 274.77469 
L 84.417622 274.715473 
L 84.307128 274.83285 
L 84.417622 274.892067 
L 85.182061 274.951284 
L 85.182061 274.83285 
L 84.852834 274.715473 
L 84.963328 274.538879 
L 85.509034 274.951284 
L 85.182061 274.951284 
L 85.290301 274.951284 
L 85.182061 274.656256 
L 84.963328 274.598096 
L 84.852834 274.715473 
L 85.290301 275.009444 
L 85.182061 274.715473 
L 85.071567 274.656256 
L 85.290301 274.598096 
L 85.836007 274.598096 
L 89.655949 275.068661 
L 91.074334 275.127878 
L 95.22125 275.068661 
L 112.354618 276.00979 
L 130.579398 277.128571 
L 137.125616 277.363325 
L 142.801411 278.010484 
L 145.311208 278.305512 
L 147.821005 278.482106 
L 152.840599 278.540266 
L 159.497312 279.01083 
L 173.683415 279.8938 
L 179.467449 280.482799 
L 184.487043 280.717553 
L 187.542547 281.364712 
L 191.362489 282.247682 
L 191.362489 282.424276 
L 190.162838 282.60087 
L 189.179665 282.660087 
L 185.797189 283.189869 
L 183.506125 283.483839 
L 183.395631 283.895187 
L 183.395631 284.013621 
L 182.741686 284.248375 
L 182.414713 284.248375 
L 182.849925 284.071781 
L 181.869007 284.66078 
L 181.760768 284.778157 
L 181.104568 284.778157 
L 180.669356 284.895534 
L 180.231889 284.954751 
L 180.013155 285.190562 
L 180.231889 285.190562 
L 178.376037 285.190562 
L 178.157304 285.425316 
L 177.395119 285.190562 
L 177.068146 285.484533 
L 177.176386 285.778504 
L 177.176386 285.895881 
L 177.068146 285.895881 
L 175.976734 285.54375 
L 176.084973 285.54375 
L 176.630679 285.60191 
L 176.084973 285.955098 
L 176.084973 286.190909 
L 175.976734 286.190909 
L 175.539267 285.955098 
L 176.084973 286.190909 
L 175.86624 286.308286 
L 174.774828 286.249068 
L 174.885322 286.367503 
L 174.774828 286.661474 
L 174.447855 286.77885 
L 174.447855 286.720691 
L 174.120882 286.602256 
L 173.79391 286.602256 
L 174.120882 286.544097 
L 174.012643 286.720691 
L 173.683415 286.838068 
L 173.683415 286.77885 
L 173.683415 286.661474 
L 173.02947 286.838068 
L 173.137709 286.897285 
L 173.356443 286.838068 
L 173.248204 286.897285 
L 173.02947 287.014662 
L 173.02947 287.014662 
L 172.921231 287.191255 
L 172.702497 287.367849 
L 172.592003 287.191255 
L 172.702497 286.897285 
L 172.483764 287.132038 
L 172.156791 287.191255 
L 173.02947 286.955444 
L 172.921231 287.072821 
L 172.702497 287.367849 
L 172.592003 287.367849 
L 172.702497 287.426009 
L 173.02947 287.485226 
L 171.938058 287.249415 
L 171.392352 287.191255 
L 171.392352 287.367849 
L 172.046297 287.721037 
L 172.375525 287.721037 
L 172.592003 287.602603 
L 172.483764 287.485226 
L 171.500591 287.426009 
L 172.265031 287.249415 
L 173.356443 287.367849 
L 176.630679 287.367849 
L 185.361977 288.015008 
L 191.799956 288.485573 
L 195.401166 288.838761 
L 198.891881 289.015355 
L 205.767327 289.191949 
L 216.462715 289.898325 
L 231.413259 291.605047 
L 233.814817 291.899018 
L 241.233714 292.4288 
L 245.926335 293.134119 
L 254.984606 293.723118 
L 261.095612 293.723118 
L 262.951464 294.135523 
L 262.84097 294.076306 
L 261.749558 294.429494 
L 260.987373 294.54687 
L 259.568988 294.606088 
L 258.477576 294.723464 
L 258.040109 295.076652 
L 257.602642 294.959276 
L 256.513485 294.959276 
L 256.729963 295.312463 
L 256.621724 295.312463 
L 256.076018 295.488 
L 256.076018 295.42984 
L 256.184257 295.42984 
L 255.857285 295.253246 
L 255.857285 295.135869 
L 255.092845 295.076652 
L 255.203339 294.900058 
L 255.311578 294.900058 
L 255.092845 294.840841 
L 255.092845 294.664247 
L 254.984606 294.664247 
L 254.657633 294.723464 
L 254.33066 294.664247 
L 254.220166 294.487653 
L 254.33066 294.311059 
L 254.547139 294.2529 
L 254.001433 294.311059 
L 253.784954 294.2529 
L 252.801781 294.135523 
L 253.020515 294.135523 
L 253.455727 293.958929 
L 253.347487 293.958929 
L 252.474809 294.135523 
L 253.239248 293.605741 
L 253.128754 293.546524 
L 252.366569 293.36993 
L 251.929103 293.36993 
L 252.037342 293.429147 
L 252.366569 293.546524 
L 252.256075 293.252553 
L 252.256075 293.310713 
L 251.491636 293.36993 
L 251.164663 293.310713 
L 251.275157 293.134119 
L 251.491636 293.016742 
L 251.491636 293.134119 
L 251.491636 293.310713 
L 251.491636 293.310713 
L 251.056424 293.075959 
L 251.164663 292.899365 
L 251.056424 293.075959 
L 251.275157 293.134119 
L 251.491636 293.075959 
L 251.056424 293.134119 
L 250.618957 292.899365 
L 250.183745 293.016742 
L 249.965012 293.193336 
L 250.400223 293.310713 
L 249.527545 292.899365 
L 249.638039 292.958582 
L 249.311066 293.016742 
L 249.419305 293.134119 
L 249.854517 293.36993 
L 249.200572 293.429147 
L 249.311066 293.310713 
L 249.638039 293.016742 
L 249.419305 293.310713 
L 249.638039 293.310713 
L 248.873599 293.310713 
L 248.654866 293.487307 
L 249.200572 293.723118 
L 249.419305 293.723118 
L 249.419305 293.663901 
L 248.546627 293.429147 
L 249.092333 293.36993 
L 249.311066 293.36993 
L 249.092333 293.429147 
L 248.436132 293.487307 
L 249.092333 293.310713 
L 249.311066 293.36993 
L 249.092333 293.429147 
L 248.219654 293.36993 
L 247.563454 293.605741 
L 247.673948 293.663901 
L 248.219654 293.723118 
L 248.10916 293.36993 
L 247.455214 293.310713 
L 247.890426 293.429147 
L 248.327893 293.605741 
L 248.873599 293.546524 
L 248.76536 293.429147 
L 248.000921 293.36993 
L 247.890426 293.429147 
L 248.327893 293.723118 
L 248.219654 293.782335 
L 248.10916 293.899712 
L 248.10916 293.840495 
L 248.10916 293.723118 
L 248.10916 293.899712 
L 247.673948 294.076306 
L 247.890426 294.076306 
L 248.219654 293.958929 
L 248.10916 293.899712 
L 247.673948 293.958929 
L 248.000921 293.958929 
L 248.546627 294.135523 
L 248.10916 294.193682 
L 247.563454 294.017089 
L 247.563454 294.076306 
L 247.455214 294.2529 
L 247.563454 294.311059 
L 247.673948 294.076306 
L 247.782187 294.076306 
L 247.673948 294.193682 
L 247.128242 294.2529 
L 247.236481 294.370276 
L 247.563454 294.429494 
L 246.909508 294.370276 
L 247.128242 294.429494 
L 246.909508 294.429494 
L 247.236481 294.487653 
L 247.236481 294.723464 
L 247.236481 294.311059 
L 247.017748 294.2529 
L 246.690775 294.429494 
L 246.472041 294.840841 
L 246.690775 294.840841 
L 246.799014 294.723464 
L 246.472041 294.664247 
L 246.690775 294.664247 
L 246.909508 294.54687 
L 246.799014 294.487653 
L 246.582536 294.487653 
L 246.582536 294.54687 
L 246.909508 294.723464 
L 247.128242 294.664247 
L 247.128242 294.54687 
L 246.472041 294.311059 
L 246.799014 294.370276 
L 246.799014 294.429494 
L 246.690775 294.429494 
L 246.145069 294.606088 
L 246.03683 294.487653 
L 246.363802 294.2529 
L 246.363802 294.2529 
L 246.363802 294.370276 
L 246.472041 294.311059 
L 246.582536 294.311059 
L 246.253308 294.370276 
L 246.253308 294.429494 
L 246.582536 294.487653 
L 246.472041 294.429494 
L 246.582536 294.311059 
L 246.582536 294.311059 
L 246.253308 294.429494 
L 246.472041 294.487653 
L 246.799014 294.311059 
L 246.253308 294.2529 
L 246.03683 294.311059 
L 246.03683 294.429494 
L 246.253308 294.487653 
L 246.253308 294.429494 
L 246.253308 294.2529 
L 246.690775 293.958929 
L 246.472041 294.017089 
L 246.03683 294.076306 
L 246.145069 294.135523 
L 246.253308 294.311059 
L 245.926335 294.429494 
L 246.03683 294.076306 
L 245.926335 293.899712 
L 245.709857 293.899712 
L 245.709857 294.311059 
L 245.709857 294.311059 
L 246.03683 294.135523 
L 245.818096 294.193682 
L 245.380629 294.193682 
L 245.599363 294.135523 
L 245.818096 294.076306 
L 245.709857 294.193682 
L 245.599363 294.2529 
L 245.818096 294.076306 
L 245.818096 293.899712 
L 245.926335 294.2529 
L 246.03683 294.2529 
L 245.709857 293.723118 
L 245.491123 294.076306 
L 245.599363 294.135523 
L 246.145069 294.017089 
L 245.709857 294.017089 
L 245.491123 294.017089 
L 245.380629 294.135523 
L 245.491123 294.193682 
L 246.145069 294.076306 
L 245.926335 294.135523 
L 245.053657 294.017089 
L 245.164151 294.017089 
L 245.053657 294.193682 
L 245.164151 294.2529 
L 244.726684 293.899712 
L 245.053657 293.958929 
L 245.053657 294.017089 
L 244.180978 293.899712 
L 244.289217 294.017089 
L 244.945417 294.135523 
L 244.834923 294.193682 
L 244.726684 294.311059 
L 244.072739 294.370276 
L 244.072739 294.370276 
L 244.399711 294.2529 
L 244.399711 294.017089 
L 244.50795 294.017089 
L 244.945417 294.2529 
L 244.50795 294.076306 
L 243.308299 293.958929 
L 242.325126 294.017089 
L 234.468762 293.487307 
L 229.338674 292.663554 
L 226.28317 292.4288 
L 223.227667 292.369583 
L 219.953431 292.192989 
L 199.437587 289.48592 
L 190.052344 288.132385 
L 180.885834 286.77885 
L 172.265031 285.307939 
L 159.389072 283.718593 
L 138.762734 279.599829 
L 133.851379 278.540266 
L 126.759455 276.833543 
L 124.468391 276.480355 
L 119.884009 275.951631 
L 113.119057 274.656256 
L 113.008563 274.77469 
L 113.335536 275.009444 
L 113.773003 275.127878 
L 114.753921 275.127878 
L 115.191387 275.245255 
L 116.828506 275.480008 
L 117.482451 275.598443 
L 117.811679 275.539225 
L 119.230064 275.833196 
L 118.246891 276.480355 
L 117.811679 277.128571 
L 117.701185 277.069354 
L 117.811679 276.89276 
L 117.701185 276.833543 
L 117.592945 276.951977 
L 117.592945 277.186731 
L 118.028157 277.245948 
L 117.919918 276.951977 
L 118.138651 276.89276 
L 118.246891 277.186731 
L 118.573863 277.363325 
L 118.246891 277.657296 
L 118.246891 277.657296 
L 117.811679 277.363325 
L 118.246891 277.363325 
L 118.792597 277.539919 
L 118.684358 277.657296 
L 118.900836 277.716513 
L 118.792597 277.77573 
L 118.246891 277.716513 
L 118.028157 277.657296 
L 117.701185 277.77573 
L 117.919918 277.77573 
L 118.573863 277.952324 
L 118.246891 278.010484 
L 118.246891 277.952324 
L 118.684358 277.83389 
L 118.573863 277.952324 
L 118.465624 278.128918 
L 118.35513 278.246295 
L 117.811679 278.187078 
L 117.919918 278.246295 
L 118.573863 278.363672 
L 118.684358 278.246295 
L 118.573863 278.246295 
L 118.465624 278.246295 
L 118.573863 278.482106 
L 118.684358 278.599483 
L 118.465624 278.482106 
L 118.573863 278.305512 
L 118.573863 278.482106 
L 118.792597 278.599483 
L 118.684358 278.540266 
L 118.900836 278.893454 
L 118.900836 278.71686 
L 118.900836 278.540266 
L 118.900836 278.599483 
L 118.573863 278.776077 
L 119.01133 278.71686 
L 118.900836 278.482106 
L 118.792597 278.363672 
L 119.01133 278.128918 
L 119.338303 278.128918 
L 119.557036 278.363672 
L 119.446542 278.187078 
L 119.557036 277.657296 
L 119.557036 277.657296 
L 119.77577 277.893107 
L 119.992248 277.952324 
L 120.210982 277.657296 
L 120.102742 277.186731 
L 121.08366 276.951977 
L 121.08366 277.010137 
L 120.867182 277.010137 
L 120.756688 276.775383 
L 120.867182 276.716166 
L 121.194155 276.89276 
L 121.08366 276.89276 
L 121.08366 276.775383 
L 121.302394 276.656949 
L 121.521127 276.716166 
L 121.08366 276.539572 
L 120.975421 276.304818 
L 121.08366 276.245601 
L 121.08366 276.069007 
L 121.629367 276.00979 
L 121.629367 276.128224 
L 121.629367 276.128224 
L 122.066833 276.00979 
L 121.739861 275.833196 
L 121.8481 275.775037 
L 122.175073 275.833196 
L 122.175073 276.00979 
L 122.066833 276.00979 
L 121.8481 275.715819 
L 121.629367 275.715819 
L 121.521127 275.598443 
L 121.629367 275.539225 
L 122.066833 275.715819 
L 121.629367 275.775037 
L 121.739861 275.951631 
L 121.629367 275.951631 
L 121.739861 275.480008 
L 122.175073 275.598443 
L 122.175073 275.951631 
L 122.285567 275.245255 
L 122.502045 275.245255 
L 122.831273 275.480008 
L 122.393806 275.598443 
L 122.502045 275.480008 
L 122.939512 275.362631 
L 122.939512 275.421849 
L 122.831273 275.421849 
L 122.61254 275.186037 
L 122.831273 275.009444 
L 123.266485 275.186037 
L 122.939512 275.127878 
L 122.61254 275.362631 
L 122.393806 275.362631 
L 122.502045 275.421849 
L 122.831273 275.480008 
L 122.831273 275.303414 
L 122.720779 275.362631 
L 122.502045 275.539225 
L 122.393806 275.303414 
L 122.285567 275.186037 
L 122.393806 275.068661 
L 122.831273 275.068661 
L 122.831273 275.127878 
L 122.939512 275.186037 
L 122.502045 275.009444 
L 122.175073 275.068661 
L 121.956339 274.951284 
L 120.210982 274.656256 
L 114.645681 274.244908 
L 107.224529 274.185691 
L 98.930698 273.89172 
L 91.72828 273.361938 
L 89.437216 273.126127 
L 88.345804 273.244561 
L 86.273474 273.067967 
L 85.509034 272.891373 
L 84.852834 272.891373 
L 83.21797 273.126127 
L 82.343037 273.126127 
L 81.251624 272.949533 
L 80.378946 273.067967 
L 80.48944 272.538185 
L 81.470358 272.773996 
L 82.016064 273.126127 
L 82.56177 273.361938 
L 82.999237 273.302721 
L 83.107476 273.479315 
L 82.888743 273.774343 
L 82.672264 273.832503 
L 82.453531 273.538532 
L 82.126558 273.832503 
L 82.234797 274.009097 
L 82.016064 274.185691 
L 82.343037 274.244908 
L 82.234797 274.126474 
L 82.453531 274.009097 
L 82.888743 274.421502 
L 82.780503 274.244908 
L 82.888743 274.244908 
L 82.343037 274.303068 
L 82.56177 274.303068 
L 82.672264 274.362285 
L 82.56177 274.598096 
L 82.780503 274.715473 
L 82.672264 274.83285 
L 82.999237 274.538879 
L 82.999237 274.715473 
L 82.888743 274.715473 
L 82.672264 274.656256 
L 82.780503 274.598096 
L 83.107476 274.656256 
L 83.434449 274.83285 
L 83.434449 274.77469 
L 83.544943 274.538879 
L 83.544943 274.479662 
L 83.434449 274.538879 
L 83.32621 274.598096 
L 83.653182 274.538879 
L 83.763676 274.538879 
L 83.763676 274.538879 
L 83.871916 274.715473 
L 83.763676 274.538879 
L 83.107476 274.362285 
L 83.32621 274.303068 
L 83.980155 274.479662 
L 83.980155 274.538879 
L 83.871916 274.538879 
L 83.544943 274.303068 
L 83.653182 274.362285 
L 83.980155 274.303068 
L 83.871916 274.362285 
L 83.763676 274.598096 
L 84.417622 274.538879 
L 84.417622 274.421502 
L 83.980155 274.244908 
L 84.198888 274.303068 
L 84.307128 274.538879 
L 84.417622 274.479662 
L 84.307128 274.479662 
L 83.980155 274.421502 
L 83.980155 274.421502 
L 83.980155 274.362285 
L 84.090649 274.362285 
L 84.852834 274.303068 
L 83.763676 274.362285 
L 83.980155 274.421502 
L 84.198888 274.538879 
L 84.636355 274.538879 
L 84.525861 274.598096 
L 84.636355 274.656256 
L 84.090649 274.362285 
L 84.525861 274.068314 
L 84.852834 274.421502 
L 84.636355 274.479662 
L 85.182061 274.303068 
L 85.071567 274.303068 
L 84.852834 274.244908 
L 84.852834 274.303068 
L 85.290301 274.715473 
L 85.509034 274.656256 
L 85.071567 274.421502 
L 85.182061 274.538879 
L 85.071567 274.656256 
L 85.071567 274.598096 
L 85.182061 274.421502 
L 85.182061 274.479662 
L 85.39854 274.538879 
L 84.963328 274.656256 
L 84.744594 274.715473 
L 85.071567 274.538879 
L 85.071567 274.421502 
L 84.963328 274.479662 
L 84.636355 274.77469 
L 84.744594 274.892067 
L 85.182061 274.715473 
L 85.071567 274.83285 
L 85.182061 275.009444 
L 85.182061 274.77469 
L 85.071567 274.83285 
L 84.636355 274.598096 
L 84.636355 274.715473 
L 85.071567 274.951284 
L 85.071567 274.83285 
L 85.290301 274.77469 
L 85.39854 274.892067 
L 85.290301 275.009444 
L 84.525861 274.83285 
L 85.071567 274.951284 
L 85.182061 275.127878 
L 85.071567 275.421849 
L 85.290301 275.127878 
L 84.744594 275.068661 
L 84.744594 275.068661 
L 84.744594 275.186037 
L 84.744594 275.186037 
L 85.071567 275.009444 
L 84.963328 275.009444 
L 85.182061 275.245255 
L 84.852834 274.951284 
L 84.636355 274.951284 
L 84.525861 275.068661 
L 84.636355 275.009444 
L 84.744594 275.127878 
L 84.525861 275.303414 
L 84.198888 275.303414 
L 84.744594 275.245255 
L 84.636355 274.951284 
L 84.417622 275.245255 
L 84.636355 275.362631 
L 84.852834 275.303414 
L 84.852834 275.186037 
L 84.636355 275.186037 
L 84.525861 275.421849 
L 84.636355 275.245255 
L 84.525861 275.009444 
L 84.307128 274.951284 
L 84.307128 275.068661 
L 84.417622 275.068661 
L 84.852834 275.303414 
L 84.744594 275.186037 
L 84.852834 275.009444 
L 84.852834 275.127878 
L 84.963328 275.245255 
L 85.290301 275.068661 
L 85.182061 275.245255 
L 85.290301 275.245255 
L 84.963328 275.127878 
L 84.852834 275.362631 
L 84.636355 275.421849 
L 84.417622 275.245255 
L 84.307128 274.951284 
L 84.417622 275.009444 
L 84.852834 275.186037 
L 84.963328 275.009444 
L 84.852834 275.009444 
L 84.744594 275.127878 
L 84.852834 275.127878 
L 84.636355 275.009444 
L 84.090649 275.009444 
L 84.307128 275.068661 
L 84.636355 275.303414 
L 84.636355 275.245255 
L 84.417622 275.245255 
L 84.852834 275.245255 
L 85.836007 275.303414 
L 87.800098 275.362631 
L 91.62004 275.539225 
L 100.678311 275.715819 
L 104.714732 275.656602 
L 109.080381 275.715819 
L 113.881242 275.951631 
L 124.139164 276.716166 
L 129.487985 276.89276 
L 145.965153 276.951977 
L 151.422214 277.128571 
L 167.026703 278.010484 
L 171.938058 278.128918 
L 176.411946 278.482106 
L 185.470216 279.364018 
L 198.129696 280.246988 
L 206.423527 281.129958 
L 214.171652 281.7179 
L 228.357756 282.660087 
L 235.014468 283.307245 
L 255.749045 284.954751 
L 256.184257 285.131345 
L 256.076018 285.425316 
L 255.422073 285.484533 
L 252.256075 285.720344 
L 251.929103 285.837721 
L 250.729451 285.778504 
L 249.638039 285.955098 
L 248.654866 286.367503 
L 247.782187 286.602256 
L 247.455214 286.897285 
L 247.563454 287.249415 
L 247.34472 287.249415 
L 247.017748 287.367849 
L 247.017748 287.426009 
L 245.27239 287.485226 
L 245.27239 287.485226 
L 245.164151 287.66182 
L 244.945417 287.721037 
L 244.726684 287.721037 
L 244.50795 287.485226 
L 244.180978 287.485226 
L 243.527032 287.602603 
L 243.635272 287.426009 
L 243.416538 287.426009 
L 241.671181 287.485226 
L 241.77942 287.426009 
L 241.998153 287.249415 
L 241.889914 287.132038 
L 241.344208 287.014662 
L 241.125475 286.838068 
L 241.017235 287.072821 
L 240.906741 287.191255 
L 240.906741 287.072821 
L 240.688008 286.720691 
L 239.815329 286.720691 
L 239.70709 285.720344 
L 239.161384 285.54375 
L 238.834411 285.720344 
L 238.723917 285.60191 
L 238.615677 285.307939 
L 238.396944 285.190562 
L 238.396944 284.954751 
L 238.288705 285.013968 
L 238.178211 285.131345 
L 238.505183 285.367156 
L 238.396944 285.307939 
L 237.305532 285.013968 
L 237.524265 284.895534 
L 237.524265 284.895534 
L 237.197293 284.778157 
L 236.978559 284.778157 
L 236.432853 284.601563 
L 236.432853 284.66078 
L 236.432853 284.601563 
L 235.995386 284.543403 
L 235.887147 284.248375 
L 235.887147 284.601563 
L 235.668414 284.601563 
L 235.887147 284.130998 
L 235.668414 284.013621 
L 235.122707 284.130998 
L 235.560174 284.013621 
L 235.778908 283.837027 
L 235.668414 283.660433 
L 234.903974 283.718593 
L 235.122707 283.601216 
L 235.233202 283.541999 
L 235.122707 283.601216 
L 234.903974 283.541999 
L 234.795735 283.248028 
L 234.687495 282.954058 
L 234.031295 282.777464 
L 233.923056 282.424276 
L 234.031295 282.483493 
L 233.923056 282.60087 
L 233.485589 282.071088 
L 233.485589 281.953711 
L 234.468762 281.600523 
L 233.485589 281.012581 
L 233.814817 280.894147 
L 233.596083 280.835987 
L 233.158616 280.835987 
L 233.158616 280.835987 
L 233.050377 280.423582 
L 232.831644 280.011177 
L 232.831644 280.070394 
L 232.504671 280.129611 
L 232.285938 279.8938 
L 232.394177 279.835641 
L 232.177698 279.835641 
L 232.285938 279.776423 
L 231.958965 279.776423 
L 231.848471 279.835641 
L 231.631992 279.717206 
L 231.413259 279.187424 
L 231.413259 279.423235 
L 231.740232 279.423235 
L 231.194525 279.305859 
L 230.757059 278.952671 
L 231.086286 279.305859 
L 230.975792 279.423235 
L 230.103113 279.129265 
L 229.88438 279.01083 
L 229.994874 278.952671 
L 230.430086 278.893454 
L 230.213607 279.01083 
L 230.321847 279.01083 
L 230.321847 279.01083 
L 230.213607 279.129265 
L 229.338674 279.423235 
L 229.230434 279.246641 
L 229.449168 279.482453 
L 229.557407 279.540612 
L 229.667901 279.364018 
L 229.88438 279.305859 
L 228.792968 279.659047 
L 228.684728 279.776423 
L 228.903462 280.011177 
L 228.792968 280.011177 
L 228.576489 279.835641 
L 228.465995 280.070394 
L 228.357756 280.129611 
L 228.684728 280.011177 
L 229.011701 279.8938 
L 228.576489 279.8938 
L 228.357756 280.070394 
L 228.684728 280.187771 
L 228.792968 280.070394 
L 228.576489 280.011177 
L 228.357756 280.070394 
L 228.357756 280.246988 
L 227.593316 280.540959 
L 227.593316 280.482799 
L 227.593316 280.659393 
L 227.593316 280.364365 
L 227.266343 280.423582 
L 227.266343 280.600176 
L 227.593316 280.600176 
L 228.030783 280.306205 
L 227.593316 280.482799 
L 226.828877 280.540959 
L 226.612398 280.894147 
L 226.612398 280.77677 
L 227.04761 280.717553 
L 227.04761 280.77677 
L 227.155849 280.894147 
L 226.939371 281.070741 
L 226.393665 281.129958 
L 226.720637 281.129958 
L 226.828877 281.247335 
L 227.04761 281.306552 
L 227.155849 281.129958 
L 227.04761 281.012581 
L 226.501904 281.364712 
L 226.174931 281.188118 
L 225.956198 280.894147 
L 226.174931 280.835987 
L 226.501904 280.953364 
L 226.612398 281.247335 
L 226.501904 281.306552 
L 226.612398 281.188118 
L 226.612398 281.070741 
L 226.939371 280.953364 
L 226.720637 281.129958 
L 226.828877 281.306552 
L 226.393665 281.483146 
L 226.393665 281.188118 
L 225.956198 281.070741 
L 226.612398 280.953364 
L 227.04761 281.129958 
L 226.612398 281.306552 
L 226.28317 281.070741 
L 226.066692 281.247335 
L 226.393665 281.070741 
L 226.174931 281.129958 
L 226.066692 281.012581 
L 225.956198 281.247335 
L 225.847959 281.129958 
L 226.066692 281.129958 
L 225.737464 281.070741 
L 225.629225 281.012581 
L 225.629225 281.129958 
L 225.737464 281.306552 
L 226.174931 281.188118 
L 226.174931 281.188118 
L 226.28317 281.306552 
L 225.956198 281.070741 
L 225.847959 281.012581 
L 225.847959 281.129958 
L 225.629225 281.247335 
L 225.737464 281.364712 
L 225.956198 281.364712 
L 225.520986 281.423929 
L 225.520986 281.483146 
L 225.737464 281.541306 
L 226.066692 281.483146 
L 225.847959 281.423929 
L 225.629225 281.129958 
L 225.629225 281.306552 
L 225.410492 281.306552 
L 224.97528 281.070741 
L 225.191758 281.129958 
L 225.629225 281.306552 
L 225.191758 281.188118 
L 224.97528 281.364712 
L 224.864786 281.541306 
L 225.083519 281.423929 
L 225.410492 281.129958 
L 225.083519 281.364712 
L 225.737464 281.423929 
L 225.302252 281.423929 
L 224.756546 281.423929 
L 224.646052 281.364712 
L 224.864786 281.541306 
L 224.97528 281.777117 
L 224.864786 281.894494 
L 224.646052 281.836334 
L 224.646052 281.600523 
L 224.646052 281.953711 
L 224.429574 282.012928 
L 224.646052 282.130305 
L 224.537813 282.071088 
L 224.100346 281.953711 
L 224.756546 282.012928 
L 224.864786 281.894494 
L 224.646052 282.071088 
L 223.883868 282.247682 
L 223.665134 282.660087 
L 223.773373 283.071434 
L 223.665134 282.89484 
L 223.338161 283.013275 
L 224.319079 283.248028 
L 223.665134 283.130651 
L 223.773373 283.307245 
L 223.992107 283.366463 
L 224.21084 283.130651 
L 223.883868 283.483839 
L 223.55464 283.483839 
L 223.446401 283.366463 
L 223.227667 283.366463 
L 223.227667 283.601216 
L 223.446401 283.77781 
L 223.338161 283.77781 
L 223.011189 283.837027 
L 222.573722 283.541999 
L 223.992107 283.248028 
L 224.21084 282.89484 
L 224.756546 282.424276 
L 226.501904 281.600523 
L 227.485077 281.012581 
L 229.011701 279.953017 
L 234.250029 277.186731 
L 237.305532 275.303414 
L 240.471529 273.067967 
L 243.527032 270.537492 
L 246.363802 267.713046 
L 253.347487 261.29856 
L 265.788234 250.823471 
L 273.644598 243.467856 
L 277.356301 239.877817 
L 281.06575 236.111184 
L 288.049435 228.461598 
L 291.323672 224.871559 
L 294.489669 221.046766 
L 300.490181 213.45534 
L 303.545685 209.865301 
L 306.165976 206.276319 
L 308.567534 202.68628 
L 313.803606 195.742012 
L 318.496228 188.680368 
L 321.335253 185.091386 
L 324.609489 181.677941 
L 328.318938 178.44109 
L 332.24712 175.322673 
L 336.285796 172.498227 
L 340.322217 169.849317 
L 344.687866 167.142248 
L 348.726542 164.377019 
L 352.54423 161.552573 
L 356.582906 158.786286 
L 364.658004 153.961147 
L 371.425211 149.900543 
L 374.37022 147.723255 
L 376.771778 145.310157 
L 378.735869 142.838898 
L 380.154253 140.485017 
L 381.353905 138.131136 
L 382.228839 135.836471 
L 382.337078 131.363462 
L 382.991023 127.068105 
L 382.991023 125.125571 
L 382.555811 123.184095 
L 382.337078 121.241561 
L 382.445317 119.417461 
L 382.664051 117.710739 
L 382.991023 116.12245 
L 383.42849 114.592322 
L 384.19293 113.002976 
L 386.046526 109.884559 
L 386.702727 108.531024 
L 389.320763 101.175409 
L 389.539497 98.821528 
L 390.193442 97.702747 
L 391.503588 95.702054 
L 391.941054 94.231142 
L 392.376266 93.642143 
L 392.921972 92.288608 
L 394.123879 90.994291 
L 395.43177 89.81735 
L 395.869236 89.229409 
L 396.414943 88.052468 
L 396.414943 87.580846 
L 396.196209 87.346092 
L 395.104797 87.052121 
L 394.232118 87.110281 
L 391.395348 88.229062 
L 389.10203 89.170191 
L 388.666818 89.346785 
L 388.012872 90.347132 
L 387.794139 90.641103 
L 386.702727 91.170885 
L 385.830048 91.464856 
L 385.830048 91.64145 
L 385.719554 91.64145 
L 385.173848 91.700667 
L 385.284342 91.936478 
L 385.065608 91.936478 
L 383.974196 91.818044 
L 383.974196 91.818044 
L 384.301169 92.171232 
L 383.974196 92.113072 
L 383.536729 92.230449 
L 383.101517 92.053855 
L 382.010105 92.52442 
L 382.118344 92.407043 
L 382.445317 92.465202 
L 382.445317 92.583637 
L 381.683133 92.52442 
L 381.245666 92.641796 
L 381.245666 92.52442 
L 381.353905 92.465202 
L 381.026932 92.583637 
L 380.59172 92.407043 
L 380.59172 92.230449 
L 380.918693 92.230449 
L 380.481226 92.347826 
L 380.810454 92.288608 
L 380.918693 92.171232 
L 380.810454 92.053855 
L 380.264748 91.936478 
L 380.046014 92.053855 
L 379.93552 91.877261 
L 380.046014 91.936478 
L 380.154253 91.994638 
L 379.608547 91.58329 
L 379.500308 91.347479 
L 379.500308 91.230102 
L 379.827281 91.170885 
L 380.154253 90.936131 
L 382.445317 88.405656 
L 385.284342 84.874834 
L 386.157021 83.874487 
L 387.248433 81.814577 
L 388.121112 79.460695 
L 389.212524 75.576685 
L 390.52267 71.810052 
L 390.957881 70.927082 
L 393.248945 67.985259 
L 394.232118 67.04413 
L 396.08797 65.748755 
L 396.960649 65.395567 
L 397.614594 64.866842 
L 398.379033 63.983872 
L 398.487273 63.924655 
L 398.379033 63.630684 
L 398.052061 63.571467 
L 397.287621 63.630684 
L 396.196209 64.513654 
L 395.650503 64.454437 
L 395.32353 64.690248 
L 394.996558 64.454437 
L 394.886063 64.571814 
L 394.450852 64.513654 
L 394.123879 64.277843 
L 394.450852 63.983872 
L 393.794651 63.924655 
L 393.467679 63.748061 
L 393.794651 63.924655 
L 393.905145 63.807278 
L 394.013385 63.865438 
L 394.013385 64.160466 
L 393.578173 63.865438 
L 393.905145 63.983872 
L 394.013385 63.924655 
L 393.905145 63.688844 
L 393.578173 63.748061 
L 393.032467 63.807278 
L 392.813733 63.630684 
L 393.467679 63.748061 
L 392.703239 63.807278 
L 392.376266 63.688844 
L 392.376266 63.513307 
L 392.595 63.45409 
L 392.486761 63.630684 
L 392.376266 63.807278 
L 392.595 63.924655 
L 392.486761 63.983872 
L 392.268027 63.983872 
L 391.941054 63.688844 
L 392.049294 63.394873 
L 392.268027 63.571467 
L 392.049294 63.807278 
L 392.049294 63.748061 
L 391.83056 63.218279 
L 392.159788 63.336713 
L 392.159788 63.277496 
L 392.376266 63.100902 
L 392.049294 63.218279 
L 391.614082 63.160119 
L 391.503588 63.041685 
L 391.722321 62.983526 
L 392.268027 63.160119 
L 392.159788 63.277496 
L 392.376266 62.983526 
L 392.159788 62.806932 
L 391.614082 62.511903 
L 391.614082 62.688497 
L 391.722321 62.865091 
L 392.049294 62.865091 
L 391.722321 62.865091 
L 391.83056 62.688497 
L 391.83056 62.27715 
L 392.486761 62.511903 
L 392.268027 62.336367 
L 392.268027 62.217932 
L 392.049294 62.159773 
L 391.722321 62.27715 
L 391.941054 62.511903 
L 392.268027 62.688497 
L 392.486761 62.630338 
L 392.813733 62.394526 
L 392.813733 62.453744 
L 392.049294 62.27715 
L 391.83056 62.453744 
L 391.83056 62.630338 
L 392.159788 62.630338 
L 392.703239 62.336367 
L 392.376266 62.394526 
L 392.159788 62.336367 
L 392.268027 62.159773 
L 392.159788 62.159773 
L 392.159788 61.983179 
L 392.159788 62.57112 
L 392.159788 62.511903 
L 391.722321 62.100556 
L 391.941054 62.453744 
L 391.176615 61.983179 
L 391.614082 62.336367 
L 391.395348 62.336367 
L 391.284854 62.217932 
L 391.503588 61.864745 
L 392.268027 62.159773 
L 392.159788 61.923962 
L 391.722321 61.688151 
L 391.722321 61.747368 
L 391.941054 61.747368 
L 391.503588 61.747368 
L 391.941054 61.983179 
L 391.503588 61.688151 
L 391.722321 61.570774 
L 392.159788 61.864745 
L 392.159788 62.041338 
L 391.503588 61.923962 
L 391.83056 61.864745 
L 391.941054 61.688151 
L 391.83056 61.629991 
L 391.503588 61.688151 
L 391.284854 61.864745 
L 391.503588 61.629991 
L 391.503588 61.276803 
L 391.503588 61.747368 
L 391.395348 61.276803 
L 391.176615 61.159426 
L 390.849642 61.159426 
L 390.957881 61.276803 
L 391.503588 61.453397 
L 391.395348 61.453397 
L 390.957881 61.806585 
L 391.176615 61.688151 
L 390.849642 61.334963 
L 390.630909 61.334963 
L 390.52267 61.511557 
L 390.739148 61.453397 
L 390.849642 61.453397 
L 390.739148 61.453397 
L 390.193442 61.159426 
L 390.085203 61.276803 
L 390.085203 61.453397 
L 390.303936 61.511557 
L 390.630909 61.276803 
L 390.52267 61.334963 
L 390.085203 61.217586 
L 389.976963 61.276803 
L 390.085203 61.276803 
L 390.303936 61.276803 
L 390.52267 61.39418 
L 390.412175 61.570774 
L 390.193442 61.39418 
L 390.303936 61.334963 
L 389.976963 61.39418 
L 389.431257 61.453397 
L 389.75823 61.334963 
L 389.976963 61.570774 
L 389.647736 61.39418 
L 389.647736 61.570774 
L 389.320763 61.629991 
L 389.212524 61.629991 
L 389.431257 61.688151 
L 389.539497 61.806585 
L 389.212524 61.570774 
L 389.10203 61.570774 
L 389.10203 61.511557 
L 389.10203 61.453397 
L 389.320763 61.629991 
L 388.556324 61.159426 
L 387.356672 61.100209 
L 386.592233 61.100209 
L 384.846875 60.629644 
L 383.865957 60.217239 
L 382.337078 59.746674 
L 378.627629 59.040298 
L 377.317484 58.628951 
L 370.660771 57.156982 
L 366.513856 55.745287 
L 364.112298 54.685724 
L 363.13138 53.921188 
L 362.148207 53.861971 
L 362.039968 53.568 
L 362.039968 53.802754 
L 362.148207 54.332536 
L 362.256446 54.50913 
L 361.929473 54.50913 
L 361.275528 54.744941 
L 361.383767 54.862318 
L 361.494261 54.979694 
L 361.383767 54.979694 
L 360.948555 54.744941 
L 361.056795 55.098129 
L 361.167289 55.215505 
L 360.948555 55.274723 
L 360.292355 55.215505 
L 360.838061 55.038911 
L 360.511088 54.979694 
L 360.511088 55.038911 
L 360.838061 55.156288 
L 361.056795 55.156288 
L 360.729822 55.098129 
L 359.965382 54.979694 
L 360.075877 54.979694 
L 360.292355 55.156288 
L 360.511088 55.509476 
L 360.292355 55.509476 
L 359.63841 55.332882 
L 359.63841 55.392099 
L 359.311437 55.745287 
L 358.765731 55.745287 
L 358.87397 55.68607 
L 359.200943 55.509476 
L 358.765731 55.803447 
L 358.87397 55.626853 
L 358.765731 55.568693 
L 358.87397 55.450259 
L 358.655237 55.568693 
L 358.546997 55.568693 
L 358.655237 55.509476 
L 358.655237 55.392099 
L 358.328264 55.274723 
L 358.001291 55.332882 
L 357.566079 55.274723 
L 357.674319 55.392099 
L 358.328264 55.568693 
L 358.328264 55.568693 
L 358.438758 55.450259 
L 358.328264 55.509476 
L 357.893052 55.450259 
L 358.001291 55.392099 
L 357.782558 55.509476 
L 357.782558 55.392099 
L 357.782558 55.274723 
L 357.893052 55.274723 
L 358.111786 55.215505 
L 358.111786 55.274723 
L 357.893052 55.68607 
L 358.001291 55.626853 
L 358.220025 55.392099 
L 358.220025 55.215505 
L 358.220025 55.392099 
L 357.782558 55.450259 
L 358.111786 55.392099 
L 358.001291 55.215505 
L 357.455585 55.215505 
L 357.236852 55.332882 
L 358.001291 54.979694 
L 358.438758 55.332882 
L 358.220025 55.274723 
L 357.893052 54.979694 
L 358.001291 55.156288 
L 358.111786 55.509476 
L 358.001291 55.450259 
L 357.782558 55.392099 
L 357.566079 55.156288 
L 358.001291 55.215505 
L 358.220025 55.274723 
L 357.674319 55.745287 
L 357.566079 55.745287 
L 358.001291 55.450259 
L 358.001291 55.450259 
L 357.347346 55.392099 
L 358.111786 55.509476 
L 358.001291 55.392099 
L 357.455585 55.215505 
L 357.782558 55.274723 
L 357.674319 55.450259 
L 357.782558 55.156288 
L 357.455585 55.156288 
L 357.347346 55.392099 
L 356.80164 55.568693 
L 357.347346 55.509476 
L 357.674319 55.450259 
L 357.455585 55.568693 
L 356.909879 55.68607 
L 356.80164 55.450259 
L 356.582906 55.392099 
L 356.909879 55.509476 
L 357.020373 55.626853 
L 357.020373 55.980041 
L 356.909879 55.68607 
L 356.474667 55.626853 
L 356.80164 55.745287 
L 355.818467 55.803447 
L 355.928961 55.745287 
L 355.928961 55.626853 
L 356.0372 55.626853 
L 356.255934 55.68607 
L 356.255934 55.803447 
L 356.14544 55.745287 
L 356.0372 55.803447 
L 355.710228 55.745287 
L 355.928961 55.745287 
L 356.255934 55.68607 
L 356.0372 55.803447 
L 356.0372 55.921881 
L 356.0372 55.862664 
L 355.599733 55.745287 
L 355.599733 55.803447 
L 355.818467 55.921881 
L 356.14544 55.980041 
L 355.928961 55.862664 
L 355.710228 55.803447 
L 355.491494 55.626853 
L 355.383255 55.392099 
L 355.491494 55.392099 
L 356.0372 55.626853 
L 356.14544 55.745287 
L 355.928961 55.803447 
L 355.599733 55.745287 
L 355.491494 55.392099 
L 356.0372 55.215505 
L 356.80164 54.921535 
L 356.691146 54.8031 
L 356.0372 54.568347 
L 356.474667 54.626506 
L 356.364173 54.50913 
L 356.474667 54.50913 
L 356.582906 54.50913 
L 356.691146 54.215159 
L 356.80164 54.155942 
L 356.691146 54.038565 
L 356.255934 54.038565 
L 356.14544 53.921188 
L 356.255934 53.685377 
L 356.582906 53.568 
L 356.474667 54.038565 
L 355.491494 54.097782 
L 354.618815 54.155942 
L 353.527403 54.744941 
L 351.452818 55.745287 
L 349.161754 56.686417 
L 347.089424 57.922575 
L 345.779278 58.68711 
L 344.796106 59.57008 
L 344.360894 60.51121 
L 343.815187 62.924308 
L 343.161242 64.218626 
L 341.086657 66.925695 
L 339.776511 68.338447 
L 336.612769 73.280963 
L 335.194384 74.870309 
L 331.701414 78.283754 
L 329.845562 79.990477 
L 323.953289 84.874834 
L 319.698134 88.523033 
L 317.734043 90.287915 
L 315.878192 92.171232 
L 311.623037 96.114459 
L 308.238306 100.351657 
L 305.293297 104.411203 
L 303.983151 106.412954 
L 301.581594 110.649095 
L 300.381942 112.826382 
L 297.763906 116.828826 
L 296.235027 118.770303 
L 292.088111 122.418502 
L 282.813362 130.069145 
L 276.154395 136.247819 
L 272.009734 140.720828 
L 269.935149 142.779681 
L 266.006967 147.134256 
L 262.513997 151.430671 
L 258.477576 157.374592 
L 256.729963 159.256851 
L 253.239248 162.84689 
L 252.147836 164.494396 
L 248.76536 170.61491 
L 248.10916 172.085822 
L 247.236481 175.146079 
L 245.164151 180.147812 
L 243.743511 183.325447 
L 242.652099 187.151297 
L 241.889914 189.033556 
L 241.344208 190.799496 
L 240.361035 194.447695 
L 237.961732 200.097645 
L 236.978559 201.862527 
L 234.468762 205.805754 
L 229.449168 212.631587 
L 227.920289 214.044339 
L 224.646052 216.515597 
L 223.446401 217.575161 
L 222.573722 218.51629 
L 221.155337 220.399607 
L 219.409979 222.517677 
L 218.64554 224.047806 
L 217.98934 225.577935 
L 217.554128 226.28431 
L 217.008422 227.931816 
L 216.897927 228.697409 
L 216.135743 230.462291 
L 215.698276 231.286044 
L 215.263064 232.756956 
L 214.171652 233.933896 
L 213.952918 234.699489 
L 213.952918 236.229618 
L 213.515451 236.935994 
L 212.969745 237.583153 
L 212.642773 238.171094 
L 212.642773 238.583499 
L 212.424039 238.936687 
L 212.097067 239.171441 
L 211.661855 240.054411 
L 211.332627 240.64341 
L 209.368536 242.467509 
L 209.041563 242.644103 
L 208.714591 243.291262 
L 208.387618 243.70261 
L 208.060645 243.761827 
L 207.185712 244.291609 
L 207.185712 244.291609 
" style="fill:none;stroke:#1f77b4;stroke-linecap:square;stroke-width:1.5;"/>
   </g>
   <g id="matplotlib.axis_1">
    <g id="xtick_1">
     <g id="line2d_2">
      <defs>
       <path d="M 0 0 
L 0 3.5 
" id="m9a19d5ce3f" style="stroke:#000000;stroke-width:0.8;"/>
      </defs>
      <g>
       <use style="stroke:#000000;stroke-width:0.8;" x="63.459801" xlink:href="#m9a19d5ce3f" y="307.584"/>
      </g>
     </g>
     <g id="text_1">
      <!-- −600 -->
      <defs>
       <path d="M 10.59375 35.5 
L 73.1875 35.5 
L 73.1875 27.203125 
L 10.59375 27.203125 
z
" id="DejaVuSans-8722"/>
       <path d="M 33.015625 40.375 
Q 26.375 40.375 22.484375 35.828125 
Q 18.609375 31.296875 18.609375 23.390625 
Q 18.609375 15.53125 22.484375 10.953125 
Q 26.375 6.390625 33.015625 6.390625 
Q 39.65625 6.390625 43.53125 10.953125 
Q 47.40625 15.53125 47.40625 23.390625 
Q 47.40625 31.296875 43.53125 35.828125 
Q 39.65625 40.375 33.015625 40.375 
z
M 52.59375 71.296875 
L 52.59375 62.3125 
Q 48.875 64.0625 45.09375 64.984375 
Q 41.3125 65.921875 37.59375 65.921875 
Q 27.828125 65.921875 22.671875 59.328125 
Q 17.53125 52.734375 16.796875 39.40625 
Q 19.671875 43.65625 24.015625 45.921875 
Q 28.375 48.1875 33.59375 48.1875 
Q 44.578125 48.1875 50.953125 41.515625 
Q 57.328125 34.859375 57.328125 23.390625 
Q 57.328125 12.15625 50.6875 5.359375 
Q 44.046875 -1.421875 33.015625 -1.421875 
Q 20.359375 -1.421875 13.671875 8.265625 
Q 6.984375 17.96875 6.984375 36.375 
Q 6.984375 53.65625 15.1875 63.9375 
Q 23.390625 74.21875 37.203125 74.21875 
Q 40.921875 74.21875 44.703125 73.484375 
Q 48.484375 72.75 52.59375 71.296875 
z
" id="DejaVuSans-54"/>
       <path d="M 31.78125 66.40625 
Q 24.171875 66.40625 20.328125 58.90625 
Q 16.5 51.421875 16.5 36.375 
Q 16.5 21.390625 20.328125 13.890625 
Q 24.171875 6.390625 31.78125 6.390625 
Q 39.453125 6.390625 43.28125 13.890625 
Q 47.125 21.390625 47.125 36.375 
Q 47.125 51.421875 43.28125 58.90625 
Q 39.453125 66.40625 31.78125 66.40625 
z
M 31.78125 74.21875 
Q 44.046875 74.21875 50.515625 64.515625 
Q 56.984375 54.828125 56.984375 36.375 
Q 56.984375 17.96875 50.515625 8.265625 
Q 44.046875 -1.421875 31.78125 -1.421875 
Q 19.53125 -1.421875 13.0625 8.265625 
Q 6.59375 17.96875 6.59375 36.375 
Q 6.59375 54.828125 13.0625 64.515625 
Q 19.53125 74.21875 31.78125 74.21875 
z
" id="DejaVuSans-48"/>
      </defs>
      <g transform="translate(49.726207 322.182437)scale(0.1 -0.1)">
       <use xlink:href="#DejaVuSans-8722"/>
       <use x="83.789062" xlink:href="#DejaVuSans-54"/>
       <use x="147.412109" xlink:href="#DejaVuSans-48"/>
       <use x="211.035156" xlink:href="#DejaVuSans-48"/>
      </g>
     </g>
    </g>
    <g id="xtick_2">
     <g id="line2d_3">
      <g>
       <use style="stroke:#000000;stroke-width:0.8;" x="108.55948" xlink:href="#m9a19d5ce3f" y="307.584"/>
      </g>
     </g>
     <g id="text_2">
      <!-- −400 -->
      <defs>
       <path d="M 37.796875 64.3125 
L 12.890625 25.390625 
L 37.796875 25.390625 
z
M 35.203125 72.90625 
L 47.609375 72.90625 
L 47.609375 25.390625 
L 58.015625 25.390625 
L 58.015625 17.1875 
L 47.609375 17.1875 
L 47.609375 0 
L 37.796875 0 
L 37.796875 17.1875 
L 4.890625 17.1875 
L 4.890625 26.703125 
z
" id="DejaVuSans-52"/>
      </defs>
      <g transform="translate(94.825886 322.182437)scale(0.1 -0.1)">
       <use xlink:href="#DejaVuSans-8722"/>
       <use x="83.789062" xlink:href="#DejaVuSans-52"/>
       <use x="147.412109" xlink:href="#DejaVuSans-48"/>
       <use x="211.035156" xlink:href="#DejaVuSans-48"/>
      </g>
     </g>
    </g>
    <g id="xtick_3">
     <g id="line2d_4">
      <g>
       <use style="stroke:#000000;stroke-width:0.8;" x="153.659158" xlink:href="#m9a19d5ce3f" y="307.584"/>
      </g>
     </g>
     <g id="text_3">
      <!-- −200 -->
      <defs>
       <path d="M 19.1875 8.296875 
L 53.609375 8.296875 
L 53.609375 0 
L 7.328125 0 
L 7.328125 8.296875 
Q 12.9375 14.109375 22.625 23.890625 
Q 32.328125 33.6875 34.8125 36.53125 
Q 39.546875 41.84375 41.421875 45.53125 
Q 43.3125 49.21875 43.3125 52.78125 
Q 43.3125 58.59375 39.234375 62.25 
Q 35.15625 65.921875 28.609375 65.921875 
Q 23.96875 65.921875 18.8125 64.3125 
Q 13.671875 62.703125 7.8125 59.421875 
L 7.8125 69.390625 
Q 13.765625 71.78125 18.9375 73 
Q 24.125 74.21875 28.421875 74.21875 
Q 39.75 74.21875 46.484375 68.546875 
Q 53.21875 62.890625 53.21875 53.421875 
Q 53.21875 48.921875 51.53125 44.890625 
Q 49.859375 40.875 45.40625 35.40625 
Q 44.1875 33.984375 37.640625 27.21875 
Q 31.109375 20.453125 19.1875 8.296875 
z
" id="DejaVuSans-50"/>
      </defs>
      <g transform="translate(139.925564 322.182437)scale(0.1 -0.1)">
       <use xlink:href="#DejaVuSans-8722"/>
       <use x="83.789062" xlink:href="#DejaVuSans-50"/>
       <use x="147.412109" xlink:href="#DejaVuSans-48"/>
       <use x="211.035156" xlink:href="#DejaVuSans-48"/>
      </g>
     </g>
    </g>
    <g id="xtick_4">
     <g id="line2d_5">
      <g>
       <use style="stroke:#000000;stroke-width:0.8;" x="198.758837" xlink:href="#m9a19d5ce3f" y="307.584"/>
      </g>
     </g>
     <g id="text_4">
      <!-- 0 -->
      <g transform="translate(195.577587 322.182437)scale(0.1 -0.1)">
       <use xlink:href="#DejaVuSans-48"/>
      </g>
     </g>
    </g>
    <g id="xtick_5">
     <g id="line2d_6">
      <g>
       <use style="stroke:#000000;stroke-width:0.8;" x="243.858515" xlink:href="#m9a19d5ce3f" y="307.584"/>
      </g>
     </g>
     <g id="text_5">
      <!-- 200 -->
      <g transform="translate(234.314765 322.182437)scale(0.1 -0.1)">
       <use xlink:href="#DejaVuSans-50"/>
       <use x="63.623047" xlink:href="#DejaVuSans-48"/>
       <use x="127.246094" xlink:href="#DejaVuSans-48"/>
      </g>
     </g>
    </g>
    <g id="xtick_6">
     <g id="line2d_7">
      <g>
       <use style="stroke:#000000;stroke-width:0.8;" x="288.958194" xlink:href="#m9a19d5ce3f" y="307.584"/>
      </g>
     </g>
     <g id="text_6">
      <!-- 400 -->
      <g transform="translate(279.414444 322.182437)scale(0.1 -0.1)">
       <use xlink:href="#DejaVuSans-52"/>
       <use x="63.623047" xlink:href="#DejaVuSans-48"/>
       <use x="127.246094" xlink:href="#DejaVuSans-48"/>
      </g>
     </g>
    </g>
    <g id="xtick_7">
     <g id="line2d_8">
      <g>
       <use style="stroke:#000000;stroke-width:0.8;" x="334.057872" xlink:href="#m9a19d5ce3f" y="307.584"/>
      </g>
     </g>
     <g id="text_7">
      <!-- 600 -->
      <g transform="translate(324.514122 322.182437)scale(0.1 -0.1)">
       <use xlink:href="#DejaVuSans-54"/>
       <use x="63.623047" xlink:href="#DejaVuSans-48"/>
       <use x="127.246094" xlink:href="#DejaVuSans-48"/>
      </g>
     </g>
    </g>
    <g id="xtick_8">
     <g id="line2d_9">
      <g>
       <use style="stroke:#000000;stroke-width:0.8;" x="379.157551" xlink:href="#m9a19d5ce3f" y="307.584"/>
      </g>
     </g>
     <g id="text_8">
      <!-- 800 -->
      <defs>
       <path d="M 31.78125 34.625 
Q 24.75 34.625 20.71875 30.859375 
Q 16.703125 27.09375 16.703125 20.515625 
Q 16.703125 13.921875 20.71875 10.15625 
Q 24.75 6.390625 31.78125 6.390625 
Q 38.8125 6.390625 42.859375 10.171875 
Q 46.921875 13.96875 46.921875 20.515625 
Q 46.921875 27.09375 42.890625 30.859375 
Q 38.875 34.625 31.78125 34.625 
z
M 21.921875 38.8125 
Q 15.578125 40.375 12.03125 44.71875 
Q 8.5 49.078125 8.5 55.328125 
Q 8.5 64.0625 14.71875 69.140625 
Q 20.953125 74.21875 31.78125 74.21875 
Q 42.671875 74.21875 48.875 69.140625 
Q 55.078125 64.0625 55.078125 55.328125 
Q 55.078125 49.078125 51.53125 44.71875 
Q 48 40.375 41.703125 38.8125 
Q 48.828125 37.15625 52.796875 32.3125 
Q 56.78125 27.484375 56.78125 20.515625 
Q 56.78125 9.90625 50.3125 4.234375 
Q 43.84375 -1.421875 31.78125 -1.421875 
Q 19.734375 -1.421875 13.25 4.234375 
Q 6.78125 9.90625 6.78125 20.515625 
Q 6.78125 27.484375 10.78125 32.3125 
Q 14.796875 37.15625 21.921875 38.8125 
z
M 18.3125 54.390625 
Q 18.3125 48.734375 21.84375 45.5625 
Q 25.390625 42.390625 31.78125 42.390625 
Q 38.140625 42.390625 41.71875 45.5625 
Q 45.3125 48.734375 45.3125 54.390625 
Q 45.3125 60.0625 41.71875 63.234375 
Q 38.140625 66.40625 31.78125 66.40625 
Q 25.390625 66.40625 21.84375 63.234375 
Q 18.3125 60.0625 18.3125 54.390625 
z
" id="DejaVuSans-56"/>
      </defs>
      <g transform="translate(369.613801 322.182437)scale(0.1 -0.1)">
       <use xlink:href="#DejaVuSans-56"/>
       <use x="63.623047" xlink:href="#DejaVuSans-48"/>
       <use x="127.246094" xlink:href="#DejaVuSans-48"/>
      </g>
     </g>
    </g>
   </g>
   <g id="matplotlib.axis_2">
    <g id="ytick_1">
     <g id="line2d_10">
      <defs>
       <path d="M 0 0 
L -3.5 0 
" id="mfb536301c5" style="stroke:#000000;stroke-width:0.8;"/>
      </defs>
      <g>
       <use style="stroke:#000000;stroke-width:0.8;" x="57.6" xlink:href="#mfb536301c5" y="273.527958"/>
      </g>
     </g>
     <g id="text_9">
      <!-- 0 -->
      <g transform="translate(44.2375 277.327176)scale(0.1 -0.1)">
       <use xlink:href="#DejaVuSans-48"/>
      </g>
     </g>
    </g>
    <g id="ytick_2">
     <g id="line2d_11">
      <g>
       <use style="stroke:#000000;stroke-width:0.8;" x="57.6" xlink:href="#mfb536301c5" y="220.65551"/>
      </g>
     </g>
     <g id="text_10">
      <!-- 500 -->
      <defs>
       <path d="M 10.796875 72.90625 
L 49.515625 72.90625 
L 49.515625 64.59375 
L 19.828125 64.59375 
L 19.828125 46.734375 
Q 21.96875 47.46875 24.109375 47.828125 
Q 26.265625 48.1875 28.421875 48.1875 
Q 40.625 48.1875 47.75 41.5 
Q 54.890625 34.8125 54.890625 23.390625 
Q 54.890625 11.625 47.5625 5.09375 
Q 40.234375 -1.421875 26.90625 -1.421875 
Q 22.3125 -1.421875 17.546875 -0.640625 
Q 12.796875 0.140625 7.71875 1.703125 
L 7.71875 11.625 
Q 12.109375 9.234375 16.796875 8.0625 
Q 21.484375 6.890625 26.703125 6.890625 
Q 35.15625 6.890625 40.078125 11.328125 
Q 45.015625 15.765625 45.015625 23.390625 
Q 45.015625 31 40.078125 35.4375 
Q 35.15625 39.890625 26.703125 39.890625 
Q 22.75 39.890625 18.8125 39.015625 
Q 14.890625 38.140625 10.796875 36.28125 
z
" id="DejaVuSans-53"/>
      </defs>
      <g transform="translate(31.5125 224.454728)scale(0.1 -0.1)">
       <use xlink:href="#DejaVuSans-53"/>
       <use x="63.623047" xlink:href="#DejaVuSans-48"/>
       <use x="127.246094" xlink:href="#DejaVuSans-48"/>
      </g>
     </g>
    </g>
    <g id="ytick_3">
     <g id="line2d_12">
      <g>
       <use style="stroke:#000000;stroke-width:0.8;" x="57.6" xlink:href="#mfb536301c5" y="167.783062"/>
      </g>
     </g>
     <g id="text_11">
      <!-- 1000 -->
      <defs>
       <path d="M 12.40625 8.296875 
L 28.515625 8.296875 
L 28.515625 63.921875 
L 10.984375 60.40625 
L 10.984375 69.390625 
L 28.421875 72.90625 
L 38.28125 72.90625 
L 38.28125 8.296875 
L 54.390625 8.296875 
L 54.390625 0 
L 12.40625 0 
z
" id="DejaVuSans-49"/>
      </defs>
      <g transform="translate(25.15 171.582281)scale(0.1 -0.1)">
       <use xlink:href="#DejaVuSans-49"/>
       <use x="63.623047" xlink:href="#DejaVuSans-48"/>
       <use x="127.246094" xlink:href="#DejaVuSans-48"/>
       <use x="190.869141" xlink:href="#DejaVuSans-48"/>
      </g>
     </g>
    </g>
    <g id="ytick_4">
     <g id="line2d_13">
      <g>
       <use style="stroke:#000000;stroke-width:0.8;" x="57.6" xlink:href="#mfb536301c5" y="114.910614"/>
      </g>
     </g>
     <g id="text_12">
      <!-- 1500 -->
      <g transform="translate(25.15 118.709833)scale(0.1 -0.1)">
       <use xlink:href="#DejaVuSans-49"/>
       <use x="63.623047" xlink:href="#DejaVuSans-53"/>
       <use x="127.246094" xlink:href="#DejaVuSans-48"/>
       <use x="190.869141" xlink:href="#DejaVuSans-48"/>
      </g>
     </g>
    </g>
    <g id="ytick_5">
     <g id="line2d_14">
      <g>
       <use style="stroke:#000000;stroke-width:0.8;" x="57.6" xlink:href="#mfb536301c5" y="62.038166"/>
      </g>
     </g>
     <g id="text_13">
      <!-- 2000 -->
      <g transform="translate(25.15 65.837385)scale(0.1 -0.1)">
       <use xlink:href="#DejaVuSans-50"/>
       <use x="63.623047" xlink:href="#DejaVuSans-48"/>
       <use x="127.246094" xlink:href="#DejaVuSans-48"/>
       <use x="190.869141" xlink:href="#DejaVuSans-48"/>
      </g>
     </g>
    </g>
   </g>
   <g id="line2d_15">
    <path clip-path="url(#pabe0ba99d9)" d="M 202.678793 255.834173 
L 175.487419 268.50261 
L 82.244037 273.410417 
L 85.839647 275.188899 
L 179.189316 284.955361 
L 248.734655 293.996686 
L 119.99344 276.63319 
L 84.866504 274.559601 
L 241.587981 285.624155 
L 227.600663 280.971495 
L 384.991952 91.144315 
L 393.434486 64.024633 
L 390.144603 61.559312 
L 357.795104 55.27085 
" style="fill:none;stroke:#ff0000;stroke-linecap:square;stroke-width:0.5;"/>
   </g>
   <g id="patch_3">
    <path d="M 57.6 307.584 
L 57.6 41.472 
" style="fill:none;stroke:#000000;stroke-linecap:square;stroke-linejoin:miter;stroke-width:0.8;"/>
   </g>
   <g id="patch_4">
    <path d="M 414.72 307.584 
L 414.72 41.472 
" style="fill:none;stroke:#000000;stroke-linecap:square;stroke-linejoin:miter;stroke-width:0.8;"/>
   </g>
   <g id="patch_5">
    <path d="M 57.6 307.584 
L 414.72 307.584 
" style="fill:none;stroke:#000000;stroke-linecap:square;stroke-linejoin:miter;stroke-width:0.8;"/>
   </g>
   <g id="patch_6">
    <path d="M 57.6 41.472 
L 414.72 41.472 
" style="fill:none;stroke:#000000;stroke-linecap:square;stroke-linejoin:miter;stroke-width:0.8;"/>
   </g>
   <g id="PathCollection_1">
    <defs>
     <path d="M 0 2.738613 
C 0.726289 2.738613 1.422928 2.450055 1.936492 1.936492 
C 2.450055 1.422928 2.738613 0.726289 2.738613 0 
C 2.738613 -0.726289 2.450055 -1.422928 1.936492 -1.936492 
C 1.422928 -2.450055 0.726289 -2.738613 0 -2.738613 
C -0.726289 -2.738613 -1.422928 -2.450055 -1.936492 -1.936492 
C -2.450055 -1.422928 -2.738613 -0.726289 -2.738613 0 
C -2.738613 0.726289 -2.450055 1.422928 -1.936492 1.936492 
C -1.422928 2.450055 -0.726289 2.738613 0 2.738613 
z
" id="m51a7edc460" style="stroke:#ff0000;"/>
    </defs>
    <g clip-path="url(#pabe0ba99d9)">
     <use style="fill:#ff0000;stroke:#ff0000;" x="202.678793" xlink:href="#m51a7edc460" y="255.834173"/>
     <use style="fill:#ff0000;stroke:#ff0000;" x="175.487419" xlink:href="#m51a7edc460" y="268.50261"/>
     <use style="fill:#ff0000;stroke:#ff0000;" x="82.244037" xlink:href="#m51a7edc460" y="273.410417"/>
     <use style="fill:#ff0000;stroke:#ff0000;" x="85.839647" xlink:href="#m51a7edc460" y="275.188899"/>
     <use style="fill:#ff0000;stroke:#ff0000;" x="179.189316" xlink:href="#m51a7edc460" y="284.955361"/>
     <use style="fill:#ff0000;stroke:#ff0000;" x="248.734655" xlink:href="#m51a7edc460" y="293.996686"/>
     <use style="fill:#ff0000;stroke:#ff0000;" x="119.99344" xlink:href="#m51a7edc460" y="276.63319"/>
     <use style="fill:#ff0000;stroke:#ff0000;" x="84.866504" xlink:href="#m51a7edc460" y="274.559601"/>
     <use style="fill:#ff0000;stroke:#ff0000;" x="241.587981" xlink:href="#m51a7edc460" y="285.624155"/>
     <use style="fill:#ff0000;stroke:#ff0000;" x="227.600663" xlink:href="#m51a7edc460" y="280.971495"/>
     <use style="fill:#ff0000;stroke:#ff0000;" x="384.991952" xlink:href="#m51a7edc460" y="91.144315"/>
     <use style="fill:#ff0000;stroke:#ff0000;" x="393.434486" xlink:href="#m51a7edc460" y="64.024633"/>
     <use style="fill:#ff0000;stroke:#ff0000;" x="390.144603" xlink:href="#m51a7edc460" y="61.559312"/>
     <use style="fill:#ff0000;stroke:#ff0000;" x="357.795104" xlink:href="#m51a7edc460" y="55.27085"/>
    </g>
   </g>
   <g id="text_14">
    <!-- (45) Subject: s7, Known = False, Degree = 1, Duration = 0.1 -->
    <defs>
     <path d="M 31 75.875 
Q 24.46875 64.65625 21.28125 53.65625 
Q 18.109375 42.671875 18.109375 31.390625 
Q 18.109375 20.125 21.3125 9.0625 
Q 24.515625 -2 31 -13.1875 
L 23.1875 -13.1875 
Q 15.875 -1.703125 12.234375 9.375 
Q 8.59375 20.453125 8.59375 31.390625 
Q 8.59375 42.28125 12.203125 53.3125 
Q 15.828125 64.359375 23.1875 75.875 
z
" id="DejaVuSans-40"/>
     <path d="M 8.015625 75.875 
L 15.828125 75.875 
Q 23.140625 64.359375 26.78125 53.3125 
Q 30.421875 42.28125 30.421875 31.390625 
Q 30.421875 20.453125 26.78125 9.375 
Q 23.140625 -1.703125 15.828125 -13.1875 
L 8.015625 -13.1875 
Q 14.5 -2 17.703125 9.0625 
Q 20.90625 20.125 20.90625 31.390625 
Q 20.90625 42.671875 17.703125 53.65625 
Q 14.5 64.65625 8.015625 75.875 
z
" id="DejaVuSans-41"/>
     <path id="DejaVuSans-32"/>
     <path d="M 53.515625 70.515625 
L 53.515625 60.890625 
Q 47.90625 63.578125 42.921875 64.890625 
Q 37.9375 66.21875 33.296875 66.21875 
Q 25.25 66.21875 20.875 63.09375 
Q 16.5 59.96875 16.5 54.203125 
Q 16.5 49.359375 19.40625 46.890625 
Q 22.3125 44.4375 30.421875 42.921875 
L 36.375 41.703125 
Q 47.40625 39.59375 52.65625 34.296875 
Q 57.90625 29 57.90625 20.125 
Q 57.90625 9.515625 50.796875 4.046875 
Q 43.703125 -1.421875 29.984375 -1.421875 
Q 24.8125 -1.421875 18.96875 -0.25 
Q 13.140625 0.921875 6.890625 3.21875 
L 6.890625 13.375 
Q 12.890625 10.015625 18.65625 8.296875 
Q 24.421875 6.59375 29.984375 6.59375 
Q 38.421875 6.59375 43.015625 9.90625 
Q 47.609375 13.234375 47.609375 19.390625 
Q 47.609375 24.75 44.3125 27.78125 
Q 41.015625 30.8125 33.5 32.328125 
L 27.484375 33.5 
Q 16.453125 35.6875 11.515625 40.375 
Q 6.59375 45.0625 6.59375 53.421875 
Q 6.59375 63.09375 13.40625 68.65625 
Q 20.21875 74.21875 32.171875 74.21875 
Q 37.3125 74.21875 42.625 73.28125 
Q 47.953125 72.359375 53.515625 70.515625 
z
" id="DejaVuSans-83"/>
     <path d="M 8.5 21.578125 
L 8.5 54.6875 
L 17.484375 54.6875 
L 17.484375 21.921875 
Q 17.484375 14.15625 20.5 10.265625 
Q 23.53125 6.390625 29.59375 6.390625 
Q 36.859375 6.390625 41.078125 11.03125 
Q 45.3125 15.671875 45.3125 23.6875 
L 45.3125 54.6875 
L 54.296875 54.6875 
L 54.296875 0 
L 45.3125 0 
L 45.3125 8.40625 
Q 42.046875 3.421875 37.71875 1 
Q 33.40625 -1.421875 27.6875 -1.421875 
Q 18.265625 -1.421875 13.375 4.4375 
Q 8.5 10.296875 8.5 21.578125 
z
M 31.109375 56 
z
" id="DejaVuSans-117"/>
     <path d="M 48.6875 27.296875 
Q 48.6875 37.203125 44.609375 42.84375 
Q 40.53125 48.484375 33.40625 48.484375 
Q 26.265625 48.484375 22.1875 42.84375 
Q 18.109375 37.203125 18.109375 27.296875 
Q 18.109375 17.390625 22.1875 11.75 
Q 26.265625 6.109375 33.40625 6.109375 
Q 40.53125 6.109375 44.609375 11.75 
Q 48.6875 17.390625 48.6875 27.296875 
z
M 18.109375 46.390625 
Q 20.953125 51.265625 25.265625 53.625 
Q 29.59375 56 35.59375 56 
Q 45.5625 56 51.78125 48.09375 
Q 58.015625 40.1875 58.015625 27.296875 
Q 58.015625 14.40625 51.78125 6.484375 
Q 45.5625 -1.421875 35.59375 -1.421875 
Q 29.59375 -1.421875 25.265625 0.953125 
Q 20.953125 3.328125 18.109375 8.203125 
L 18.109375 0 
L 9.078125 0 
L 9.078125 75.984375 
L 18.109375 75.984375 
z
" id="DejaVuSans-98"/>
     <path d="M 9.421875 54.6875 
L 18.40625 54.6875 
L 18.40625 -0.984375 
Q 18.40625 -11.421875 14.421875 -16.109375 
Q 10.453125 -20.796875 1.609375 -20.796875 
L -1.8125 -20.796875 
L -1.8125 -13.1875 
L 0.59375 -13.1875 
Q 5.71875 -13.1875 7.5625 -10.8125 
Q 9.421875 -8.453125 9.421875 -0.984375 
z
M 9.421875 75.984375 
L 18.40625 75.984375 
L 18.40625 64.59375 
L 9.421875 64.59375 
z
" id="DejaVuSans-106"/>
     <path d="M 56.203125 29.59375 
L 56.203125 25.203125 
L 14.890625 25.203125 
Q 15.484375 15.921875 20.484375 11.0625 
Q 25.484375 6.203125 34.421875 6.203125 
Q 39.59375 6.203125 44.453125 7.46875 
Q 49.3125 8.734375 54.109375 11.28125 
L 54.109375 2.78125 
Q 49.265625 0.734375 44.1875 -0.34375 
Q 39.109375 -1.421875 33.890625 -1.421875 
Q 20.796875 -1.421875 13.15625 6.1875 
Q 5.515625 13.8125 5.515625 26.8125 
Q 5.515625 40.234375 12.765625 48.109375 
Q 20.015625 56 32.328125 56 
Q 43.359375 56 49.78125 48.890625 
Q 56.203125 41.796875 56.203125 29.59375 
z
M 47.21875 32.234375 
Q 47.125 39.59375 43.09375 43.984375 
Q 39.0625 48.390625 32.421875 48.390625 
Q 24.90625 48.390625 20.390625 44.140625 
Q 15.875 39.890625 15.1875 32.171875 
z
" id="DejaVuSans-101"/>
     <path d="M 48.78125 52.59375 
L 48.78125 44.1875 
Q 44.96875 46.296875 41.140625 47.34375 
Q 37.3125 48.390625 33.40625 48.390625 
Q 24.65625 48.390625 19.8125 42.84375 
Q 14.984375 37.3125 14.984375 27.296875 
Q 14.984375 17.28125 19.8125 11.734375 
Q 24.65625 6.203125 33.40625 6.203125 
Q 37.3125 6.203125 41.140625 7.25 
Q 44.96875 8.296875 48.78125 10.40625 
L 48.78125 2.09375 
Q 45.015625 0.34375 40.984375 -0.53125 
Q 36.96875 -1.421875 32.421875 -1.421875 
Q 20.0625 -1.421875 12.78125 6.34375 
Q 5.515625 14.109375 5.515625 27.296875 
Q 5.515625 40.671875 12.859375 48.328125 
Q 20.21875 56 33.015625 56 
Q 37.15625 56 41.109375 55.140625 
Q 45.0625 54.296875 48.78125 52.59375 
z
" id="DejaVuSans-99"/>
     <path d="M 18.3125 70.21875 
L 18.3125 54.6875 
L 36.8125 54.6875 
L 36.8125 47.703125 
L 18.3125 47.703125 
L 18.3125 18.015625 
Q 18.3125 11.328125 20.140625 9.421875 
Q 21.96875 7.515625 27.59375 7.515625 
L 36.8125 7.515625 
L 36.8125 0 
L 27.59375 0 
Q 17.1875 0 13.234375 3.875 
Q 9.28125 7.765625 9.28125 18.015625 
L 9.28125 47.703125 
L 2.6875 47.703125 
L 2.6875 54.6875 
L 9.28125 54.6875 
L 9.28125 70.21875 
z
" id="DejaVuSans-116"/>
     <path d="M 11.71875 12.40625 
L 22.015625 12.40625 
L 22.015625 0 
L 11.71875 0 
z
M 11.71875 51.703125 
L 22.015625 51.703125 
L 22.015625 39.3125 
L 11.71875 39.3125 
z
" id="DejaVuSans-58"/>
     <path d="M 44.28125 53.078125 
L 44.28125 44.578125 
Q 40.484375 46.53125 36.375 47.5 
Q 32.28125 48.484375 27.875 48.484375 
Q 21.1875 48.484375 17.84375 46.4375 
Q 14.5 44.390625 14.5 40.28125 
Q 14.5 37.15625 16.890625 35.375 
Q 19.28125 33.59375 26.515625 31.984375 
L 29.59375 31.296875 
Q 39.15625 29.25 43.1875 25.515625 
Q 47.21875 21.78125 47.21875 15.09375 
Q 47.21875 7.46875 41.1875 3.015625 
Q 35.15625 -1.421875 24.609375 -1.421875 
Q 20.21875 -1.421875 15.453125 -0.5625 
Q 10.6875 0.296875 5.421875 2 
L 5.421875 11.28125 
Q 10.40625 8.6875 15.234375 7.390625 
Q 20.0625 6.109375 24.8125 6.109375 
Q 31.15625 6.109375 34.5625 8.28125 
Q 37.984375 10.453125 37.984375 14.40625 
Q 37.984375 18.0625 35.515625 20.015625 
Q 33.0625 21.96875 24.703125 23.78125 
L 21.578125 24.515625 
Q 13.234375 26.265625 9.515625 29.90625 
Q 5.8125 33.546875 5.8125 39.890625 
Q 5.8125 47.609375 11.28125 51.796875 
Q 16.75 56 26.8125 56 
Q 31.78125 56 36.171875 55.265625 
Q 40.578125 54.546875 44.28125 53.078125 
z
" id="DejaVuSans-115"/>
     <path d="M 8.203125 72.90625 
L 55.078125 72.90625 
L 55.078125 68.703125 
L 28.609375 0 
L 18.3125 0 
L 43.21875 64.59375 
L 8.203125 64.59375 
z
" id="DejaVuSans-55"/>
     <path d="M 11.71875 12.40625 
L 22.015625 12.40625 
L 22.015625 4 
L 14.015625 -11.625 
L 7.71875 -11.625 
L 11.71875 4 
z
" id="DejaVuSans-44"/>
     <path d="M 9.8125 72.90625 
L 19.671875 72.90625 
L 19.671875 42.09375 
L 52.390625 72.90625 
L 65.09375 72.90625 
L 28.90625 38.921875 
L 67.671875 0 
L 54.6875 0 
L 19.671875 35.109375 
L 19.671875 0 
L 9.8125 0 
z
" id="DejaVuSans-75"/>
     <path d="M 54.890625 33.015625 
L 54.890625 0 
L 45.90625 0 
L 45.90625 32.71875 
Q 45.90625 40.484375 42.875 44.328125 
Q 39.84375 48.1875 33.796875 48.1875 
Q 26.515625 48.1875 22.3125 43.546875 
Q 18.109375 38.921875 18.109375 30.90625 
L 18.109375 0 
L 9.078125 0 
L 9.078125 54.6875 
L 18.109375 54.6875 
L 18.109375 46.1875 
Q 21.34375 51.125 25.703125 53.5625 
Q 30.078125 56 35.796875 56 
Q 45.21875 56 50.046875 50.171875 
Q 54.890625 44.34375 54.890625 33.015625 
z
" id="DejaVuSans-110"/>
     <path d="M 30.609375 48.390625 
Q 23.390625 48.390625 19.1875 42.75 
Q 14.984375 37.109375 14.984375 27.296875 
Q 14.984375 17.484375 19.15625 11.84375 
Q 23.34375 6.203125 30.609375 6.203125 
Q 37.796875 6.203125 41.984375 11.859375 
Q 46.1875 17.53125 46.1875 27.296875 
Q 46.1875 37.015625 41.984375 42.703125 
Q 37.796875 48.390625 30.609375 48.390625 
z
M 30.609375 56 
Q 42.328125 56 49.015625 48.375 
Q 55.71875 40.765625 55.71875 27.296875 
Q 55.71875 13.875 49.015625 6.21875 
Q 42.328125 -1.421875 30.609375 -1.421875 
Q 18.84375 -1.421875 12.171875 6.21875 
Q 5.515625 13.875 5.515625 27.296875 
Q 5.515625 40.765625 12.171875 48.375 
Q 18.84375 56 30.609375 56 
z
" id="DejaVuSans-111"/>
     <path d="M 4.203125 54.6875 
L 13.1875 54.6875 
L 24.421875 12.015625 
L 35.59375 54.6875 
L 46.1875 54.6875 
L 57.421875 12.015625 
L 68.609375 54.6875 
L 77.59375 54.6875 
L 63.28125 0 
L 52.6875 0 
L 40.921875 44.828125 
L 29.109375 0 
L 18.5 0 
z
" id="DejaVuSans-119"/>
     <path d="M 10.59375 45.40625 
L 73.1875 45.40625 
L 73.1875 37.203125 
L 10.59375 37.203125 
z
M 10.59375 25.484375 
L 73.1875 25.484375 
L 73.1875 17.1875 
L 10.59375 17.1875 
z
" id="DejaVuSans-61"/>
     <path d="M 9.8125 72.90625 
L 51.703125 72.90625 
L 51.703125 64.59375 
L 19.671875 64.59375 
L 19.671875 43.109375 
L 48.578125 43.109375 
L 48.578125 34.8125 
L 19.671875 34.8125 
L 19.671875 0 
L 9.8125 0 
z
" id="DejaVuSans-70"/>
     <path d="M 34.28125 27.484375 
Q 23.390625 27.484375 19.1875 25 
Q 14.984375 22.515625 14.984375 16.5 
Q 14.984375 11.71875 18.140625 8.90625 
Q 21.296875 6.109375 26.703125 6.109375 
Q 34.1875 6.109375 38.703125 11.40625 
Q 43.21875 16.703125 43.21875 25.484375 
L 43.21875 27.484375 
z
M 52.203125 31.203125 
L 52.203125 0 
L 43.21875 0 
L 43.21875 8.296875 
Q 40.140625 3.328125 35.546875 0.953125 
Q 30.953125 -1.421875 24.3125 -1.421875 
Q 15.921875 -1.421875 10.953125 3.296875 
Q 6 8.015625 6 15.921875 
Q 6 25.140625 12.171875 29.828125 
Q 18.359375 34.515625 30.609375 34.515625 
L 43.21875 34.515625 
L 43.21875 35.40625 
Q 43.21875 41.609375 39.140625 45 
Q 35.0625 48.390625 27.6875 48.390625 
Q 23 48.390625 18.546875 47.265625 
Q 14.109375 46.140625 10.015625 43.890625 
L 10.015625 52.203125 
Q 14.9375 54.109375 19.578125 55.046875 
Q 24.21875 56 28.609375 56 
Q 40.484375 56 46.34375 49.84375 
Q 52.203125 43.703125 52.203125 31.203125 
z
" id="DejaVuSans-97"/>
     <path d="M 9.421875 75.984375 
L 18.40625 75.984375 
L 18.40625 0 
L 9.421875 0 
z
" id="DejaVuSans-108"/>
     <path d="M 19.671875 64.796875 
L 19.671875 8.109375 
L 31.59375 8.109375 
Q 46.6875 8.109375 53.6875 14.9375 
Q 60.6875 21.78125 60.6875 36.53125 
Q 60.6875 51.171875 53.6875 57.984375 
Q 46.6875 64.796875 31.59375 64.796875 
z
M 9.8125 72.90625 
L 30.078125 72.90625 
Q 51.265625 72.90625 61.171875 64.09375 
Q 71.09375 55.28125 71.09375 36.53125 
Q 71.09375 17.671875 61.125 8.828125 
Q 51.171875 0 30.078125 0 
L 9.8125 0 
z
" id="DejaVuSans-68"/>
     <path d="M 45.40625 27.984375 
Q 45.40625 37.75 41.375 43.109375 
Q 37.359375 48.484375 30.078125 48.484375 
Q 22.859375 48.484375 18.828125 43.109375 
Q 14.796875 37.75 14.796875 27.984375 
Q 14.796875 18.265625 18.828125 12.890625 
Q 22.859375 7.515625 30.078125 7.515625 
Q 37.359375 7.515625 41.375 12.890625 
Q 45.40625 18.265625 45.40625 27.984375 
z
M 54.390625 6.78125 
Q 54.390625 -7.171875 48.1875 -13.984375 
Q 42 -20.796875 29.203125 -20.796875 
Q 24.46875 -20.796875 20.265625 -20.09375 
Q 16.0625 -19.390625 12.109375 -17.921875 
L 12.109375 -9.1875 
Q 16.0625 -11.328125 19.921875 -12.34375 
Q 23.78125 -13.375 27.78125 -13.375 
Q 36.625 -13.375 41.015625 -8.765625 
Q 45.40625 -4.15625 45.40625 5.171875 
L 45.40625 9.625 
Q 42.625 4.78125 38.28125 2.390625 
Q 33.9375 0 27.875 0 
Q 17.828125 0 11.671875 7.65625 
Q 5.515625 15.328125 5.515625 27.984375 
Q 5.515625 40.671875 11.671875 48.328125 
Q 17.828125 56 27.875 56 
Q 33.9375 56 38.28125 53.609375 
Q 42.625 51.21875 45.40625 46.390625 
L 45.40625 54.6875 
L 54.390625 54.6875 
z
" id="DejaVuSans-103"/>
     <path d="M 41.109375 46.296875 
Q 39.59375 47.171875 37.8125 47.578125 
Q 36.03125 48 33.890625 48 
Q 26.265625 48 22.1875 43.046875 
Q 18.109375 38.09375 18.109375 28.8125 
L 18.109375 0 
L 9.078125 0 
L 9.078125 54.6875 
L 18.109375 54.6875 
L 18.109375 46.1875 
Q 20.953125 51.171875 25.484375 53.578125 
Q 30.03125 56 36.53125 56 
Q 37.453125 56 38.578125 55.875 
Q 39.703125 55.765625 41.0625 55.515625 
z
" id="DejaVuSans-114"/>
     <path d="M 9.421875 54.6875 
L 18.40625 54.6875 
L 18.40625 0 
L 9.421875 0 
z
M 9.421875 75.984375 
L 18.40625 75.984375 
L 18.40625 64.59375 
L 9.421875 64.59375 
z
" id="DejaVuSans-105"/>
     <path d="M 10.6875 12.40625 
L 21 12.40625 
L 21 0 
L 10.6875 0 
z
" id="DejaVuSans-46"/>
    </defs>
    <g transform="translate(53.559375 35.472)scale(0.12 -0.12)">
     <use xlink:href="#DejaVuSans-40"/>
     <use x="39.013672" xlink:href="#DejaVuSans-52"/>
     <use x="102.636719" xlink:href="#DejaVuSans-53"/>
     <use x="166.259766" xlink:href="#DejaVuSans-41"/>
     <use x="205.273438" xlink:href="#DejaVuSans-32"/>
     <use x="237.060547" xlink:href="#DejaVuSans-83"/>
     <use x="300.537109" xlink:href="#DejaVuSans-117"/>
     <use x="363.916016" xlink:href="#DejaVuSans-98"/>
     <use x="427.392578" xlink:href="#DejaVuSans-106"/>
     <use x="455.175781" xlink:href="#DejaVuSans-101"/>
     <use x="516.699219" xlink:href="#DejaVuSans-99"/>
     <use x="571.679688" xlink:href="#DejaVuSans-116"/>
     <use x="610.888672" xlink:href="#DejaVuSans-58"/>
     <use x="644.580078" xlink:href="#DejaVuSans-32"/>
     <use x="676.367188" xlink:href="#DejaVuSans-115"/>
     <use x="728.466797" xlink:href="#DejaVuSans-55"/>
     <use x="792.089844" xlink:href="#DejaVuSans-44"/>
     <use x="823.876953" xlink:href="#DejaVuSans-32"/>
     <use x="855.664062" xlink:href="#DejaVuSans-75"/>
     <use x="921.240234" xlink:href="#DejaVuSans-110"/>
     <use x="984.619141" xlink:href="#DejaVuSans-111"/>
     <use x="1045.800781" xlink:href="#DejaVuSans-119"/>
     <use x="1127.587891" xlink:href="#DejaVuSans-110"/>
     <use x="1190.966797" xlink:href="#DejaVuSans-32"/>
     <use x="1222.753906" xlink:href="#DejaVuSans-61"/>
     <use x="1306.542969" xlink:href="#DejaVuSans-32"/>
     <use x="1338.330078" xlink:href="#DejaVuSans-70"/>
     <use x="1395.708984" xlink:href="#DejaVuSans-97"/>
     <use x="1456.988281" xlink:href="#DejaVuSans-108"/>
     <use x="1484.771484" xlink:href="#DejaVuSans-115"/>
     <use x="1536.871094" xlink:href="#DejaVuSans-101"/>
     <use x="1598.394531" xlink:href="#DejaVuSans-44"/>
     <use x="1630.181641" xlink:href="#DejaVuSans-32"/>
     <use x="1661.96875" xlink:href="#DejaVuSans-68"/>
     <use x="1738.970703" xlink:href="#DejaVuSans-101"/>
     <use x="1800.494141" xlink:href="#DejaVuSans-103"/>
     <use x="1863.970703" xlink:href="#DejaVuSans-114"/>
     <use x="1905.052734" xlink:href="#DejaVuSans-101"/>
     <use x="1966.576172" xlink:href="#DejaVuSans-101"/>
     <use x="2028.099609" xlink:href="#DejaVuSans-32"/>
     <use x="2059.886719" xlink:href="#DejaVuSans-61"/>
     <use x="2143.675781" xlink:href="#DejaVuSans-32"/>
     <use x="2175.462891" xlink:href="#DejaVuSans-49"/>
     <use x="2239.085938" xlink:href="#DejaVuSans-44"/>
     <use x="2270.873047" xlink:href="#DejaVuSans-32"/>
     <use x="2302.660156" xlink:href="#DejaVuSans-68"/>
     <use x="2379.662109" xlink:href="#DejaVuSans-117"/>
     <use x="2443.041016" xlink:href="#DejaVuSans-114"/>
     <use x="2484.154297" xlink:href="#DejaVuSans-97"/>
     <use x="2545.433594" xlink:href="#DejaVuSans-116"/>
     <use x="2584.642578" xlink:href="#DejaVuSans-105"/>
     <use x="2612.425781" xlink:href="#DejaVuSans-111"/>
     <use x="2673.607422" xlink:href="#DejaVuSans-110"/>
     <use x="2736.986328" xlink:href="#DejaVuSans-32"/>
     <use x="2768.773438" xlink:href="#DejaVuSans-61"/>
     <use x="2852.5625" xlink:href="#DejaVuSans-32"/>
     <use x="2884.349609" xlink:href="#DejaVuSans-48"/>
     <use x="2947.972656" xlink:href="#DejaVuSans-46"/>
     <use x="2979.759766" xlink:href="#DejaVuSans-49"/>
    </g>
   </g>
  </g>
 </g>
 <defs>
  <clipPath id="pabe0ba99d9">
   <rect height="266.112" width="357.12" x="57.6" y="41.472"/>
  </clipPath>
 </defs>
</svg>
