<?xml version="1.0" encoding="utf-8" standalone="no"?>
<!DOCTYPE svg PUBLIC "-//W3C//DTD SVG 1.1//EN"
  "http://www.w3.org/Graphics/SVG/1.1/DTD/svg11.dtd">
<!-- Created with matplotlib (https://matplotlib.org/) -->
<svg height="345.6pt" version="1.1" viewBox="0 0 460.8 345.6" width="460.8pt" xmlns="http://www.w3.org/2000/svg" xmlns:xlink="http://www.w3.org/1999/xlink">
 <defs>
  <style type="text/css">
*{stroke-linecap:butt;stroke-linejoin:round;}
  </style>
 </defs>
 <g id="figure_1">
  <g id="patch_1">
   <path d="M 0 345.6 
L 460.8 345.6 
L 460.8 0 
L 0 0 
z
" style="fill:#ffffff;"/>
  </g>
  <g id="axes_1">
   <g id="patch_2">
    <path d="M 57.6 307.584 
L 414.72 307.584 
L 414.72 41.472 
L 57.6 41.472 
z
" style="fill:#ffffff;"/>
   </g>
   <g id="line2d_1">
    <path clip-path="url(#p1ec578ad27)" d="M 74.443507 283.812385 
L 74.650438 283.812385 
L 74.546973 283.812385 
L 74.239914 284.124089 
L 74.343379 283.968237 
L 74.443507 283.500682 
L 74.239914 283.34483 
L 74.036321 283.34483 
L 74.139786 283.500682 
L 74.343379 284.124089 
L 74.443507 284.901689 
L 74.750566 285.213393 
L 74.954159 284.901689 
L 74.854031 284.434134 
L 74.546973 284.434134 
L 74.443507 284.745837 
L 74.443507 285.213393 
L 74.443507 285.213393 
L 74.036321 284.901689 
L 74.343379 285.057541 
L 74.650438 284.745837 
L 74.650438 284.589986 
L 74.443507 284.589986 
L 74.239914 285.213393 
L 74.343379 285.213393 
L 74.239914 285.680948 
L 74.443507 285.369244 
L 74.546973 285.057541 
L 74.343379 285.057541 
L 74.343379 285.369244 
L 74.239914 285.369244 
L 74.036321 285.213393 
L 73.832727 285.213393 
L 73.936193 285.213393 
L 74.139786 285.525096 
L 74.750566 285.835141 
L 74.443507 285.680948 
L 74.239914 285.835141 
L 74.139786 286.302697 
L 74.239914 286.146845 
L 74.750566 286.302697 
L 74.854031 286.146845 
L 74.854031 286.146845 
L 74.546973 285.525096 
L 74.650438 285.057541 
L 74.750566 285.369244 
L 74.650438 285.990993 
L 74.443507 286.146845 
L 74.239914 285.369244 
L 74.036321 285.990993 
L 74.239914 286.302697 
L 74.546973 285.835141 
L 74.750566 285.835141 
L 74.443507 286.6144 
L 74.239914 286.770252 
L 74.343379 286.6144 
L 74.443507 286.302697 
L 74.343379 285.835141 
L 74.443507 286.146845 
L 74.650438 286.6144 
L 74.443507 286.6144 
L 74.954159 286.302697 
L 75.768532 285.057541 
L 76.482778 284.27994 
L 77.397279 283.968237 
L 78.415245 283.968237 
L 79.333084 283.812385 
L 80.554644 283.34483 
L 82.283518 282.877275 
L 84.219323 282.723081 
L 87.576944 281.787971 
L 89.512749 281.476267 
L 91.548682 281.632119 
L 93.381021 281.943823 
L 96.842108 281.943823 
L 98.574319 282.255526 
L 100.303194 282.723081 
L 104.071338 283.968237 
L 106.207399 284.901689 
L 108.446926 285.680948 
L 113.640223 286.926104 
L 115.676156 287.081955 
L 117.915683 287.547852 
L 120.155209 288.171259 
L 122.498201 288.94886 
L 124.837855 289.572267 
L 127.077381 290.039822 
L 133.695832 290.973274 
L 135.6283 291.440829 
L 137.564105 291.596681 
L 141.228784 291.284978 
L 142.246751 291.440829 
L 143.061124 291.906726 
L 146.422082 292.685985 
L 146.725803 292.841837 
L 146.725803 292.997689 
L 146.014895 293.775289 
L 146.115023 293.775289 
L 146.422082 293.775289 
L 146.318617 294.55289 
L 146.115023 294.398696 
L 146.014895 294.086993 
L 146.115023 293.619437 
L 146.725803 293.463586 
L 146.829269 294.086993 
L 147.032862 294.242844 
L 147.13299 294.086993 
L 147.236455 293.463586 
L 147.440048 292.997689 
L 147.643642 292.997689 
L 147.847235 293.151882 
L 147.947363 292.841837 
L 147.643642 292.997689 
L 147.643642 292.841837 
L 147.74377 292.841837 
L 148.050828 292.530133 
L 148.150956 292.374282 
L 147.947363 292.530133 
L 147.947363 291.596681 
L 148.150956 291.440829 
L 148.354549 291.440829 
L 148.458015 291.596681 
L 148.254422 291.284978 
L 148.458015 290.817422 
L 148.761736 290.505719 
L 148.965329 290.505719 
L 149.068795 290.194016 
L 149.168923 290.194016 
L 149.372516 290.505719 
L 149.576109 290.505719 
L 149.475981 290.817422 
L 149.372516 290.973274 
L 149.372516 290.817422 
L 149.372516 290.505719 
L 149.475981 290.505719 
L 149.679575 290.349867 
L 149.372516 290.661571 
L 149.475981 290.817422 
L 149.679575 290.661571 
L 149.779703 290.194016 
L 149.679575 289.88397 
L 149.779703 289.88397 
L 150.086761 289.572267 
L 150.186889 289.260563 
L 150.086761 289.728118 
L 150.186889 289.728118 
L 150.594076 289.572267 
L 150.493948 289.572267 
L 150.594076 289.260563 
L 151.001262 289.260563 
L 150.797669 289.260563 
L 150.697541 289.416415 
L 150.901135 289.416415 
L 151.104728 289.728118 
L 151.511914 289.260563 
L 151.408449 289.260563 
L 151.308321 289.104712 
L 151.408449 289.260563 
L 151.408449 289.572267 
L 151.612042 289.572267 
L 151.919101 289.260563 
L 151.815636 288.94886 
L 151.612042 288.94886 
L 151.612042 288.94886 
L 151.919101 288.638814 
L 152.122694 288.638814 
L 152.122694 288.793008 
L 152.222822 288.638814 
L 152.326288 288.015408 
L 152.222822 288.482963 
L 152.630009 288.171259 
L 152.733474 287.547852 
L 152.630009 287.703704 
L 152.733474 287.859556 
L 152.937067 287.703704 
L 152.937067 287.236149 
L 152.630009 287.081955 
L 152.733474 287.081955 
L 152.937067 287.081955 
L 153.344254 286.302697 
L 152.833602 287.081955 
L 153.240789 286.6144 
L 153.037195 286.302697 
L 153.140661 285.990993 
L 153.647975 285.835141 
L 153.547847 285.680948 
L 153.647975 285.213393 
L 154.055162 284.901689 
L 154.665942 285.213393 
L 155.887502 284.124089 
L 156.905468 283.500682 
L 158.534214 282.877275 
L 160.673613 281.787971 
L 163.013267 280.231112 
L 168.613751 275.560534 
L 171.97471 272.914371 
L 175.739517 270.112356 
L 179.711255 267.310341 
L 192.537633 259.526045 
L 197.323744 256.72403 
L 202.00639 254.38957 
L 206.992757 251.743407 
L 217.479481 246.605275 
L 222.36572 244.270815 
L 227.559018 241.624652 
L 238.653184 236.642371 
L 248.836186 232.751052 
L 263.494903 228.080474 
L 272.860195 224.499201 
L 277.339248 223.254045 
L 282.125359 222.476444 
L 295.15533 221.231288 
L 299.023603 220.919585 
L 306.252834 219.984475 
L 309.814048 219.674429 
L 313.582192 219.518578 
L 317.246872 219.206874 
L 320.707958 219.051022 
L 323.761857 219.051022 
L 331.091216 218.273422 
L 333.027021 218.427616 
L 334.859361 218.427616 
L 336.488107 217.961718 
L 337.609539 217.805867 
L 338.320447 218.273422 
L 338.423912 218.739319 
L 338.320447 218.895171 
L 338.320447 219.518578 
L 338.116854 219.518578 
L 337.609539 219.362726 
L 337.202352 219.362726 
L 336.387979 219.984475 
L 336.488107 219.830281 
L 336.387979 219.206874 
L 336.284514 219.206874 
L 336.488107 220.140326 
L 336.488107 220.45203 
L 336.387979 220.140326 
L 336.184386 219.830281 
L 336.184386 220.140326 
L 336.284514 219.830281 
L 336.387979 220.296178 
L 335.877327 219.984475 
L 336.080921 220.296178 
L 335.877327 220.296178 
L 335.877327 220.45203 
L 335.777199 220.45203 
L 335.673734 220.607882 
L 336.080921 220.607882 
L 336.387979 220.296178 
L 336.184386 220.140326 
L 335.673734 220.140326 
L 335.366675 220.296178 
L 335.673734 220.763733 
L 335.570268 220.763733 
L 335.366675 220.607882 
L 335.163082 220.763733 
L 334.959489 221.231288 
L 334.859361 221.075437 
L 334.959489 221.075437 
L 335.266547 221.231288 
L 335.366675 220.919585 
L 335.163082 220.919585 
L 334.755895 221.231288 
L 334.859361 221.385482 
L 334.959489 221.231288 
L 334.755895 221.231288 
L 334.452174 221.075437 
L 335.062954 221.541334 
L 334.452174 222.320592 
L 334.248581 222.476444 
L 334.348709 221.853037 
L 334.248581 222.008889 
L 334.044988 222.164741 
L 334.248581 222.476444 
L 334.452174 222.476444 
L 334.552302 222.164741 
L 334.452174 221.697186 
L 334.044988 221.231288 
L 333.737929 221.075437 
L 333.841394 221.385482 
L 333.637801 221.231288 
L 333.534336 221.075437 
L 334.145115 221.853037 
L 334.044988 221.231288 
L 334.044988 221.075437 
L 334.044988 221.075437 
L 334.248581 221.075437 
L 334.755895 220.763733 
L 335.877327 220.607882 
L 337.506074 220.140326 
L 343.613873 217.805867 
L 353.386351 216.404859 
L 356.033064 216.249007 
L 358.679777 216.404859 
L 361.429955 217.026608 
L 366.826846 217.650015 
L 371.60962 219.206874 
L 390.343541 226.835318 
L 391.972287 227.768771 
L 394.922721 228.858075 
L 396.044153 229.793185 
L 397.162247 231.971793 
L 397.976621 233.528652 
L 398.180214 234.307911 
L 398.180214 235.397215 
L 398.487273 236.954074 
L 397.265713 239.756089 
L 396.958654 240.067792 
L 396.45134 241.312948 
L 396.044153 241.624652 
L 395.84056 241.934697 
L 395.533501 243.181511 
L 395.433373 243.181511 
L 395.126315 244.114963 
L 395.737094 245.671822 
L 395.433373 245.983526 
L 395.329908 245.827674 
L 395.329908 245.827674 
L 394.719128 246.605275 
L 394.515535 246.916978 
L 394.619 248.006282 
L 394.719128 248.162134 
L 394.719128 248.162134 
L 394.515535 248.317985 
L 394.211813 249.251438 
L 394.619 249.563141 
L 394.515535 249.251438 
L 394.415407 249.563141 
L 394.311941 250.498251 
L 394.108348 250.808297 
L 393.39744 251.431704 
L 393.904755 251.12 
L 393.701161 251.431704 
L 393.39744 251.587555 
L 392.990254 251.431704 
L 393.193847 251.431704 
L 394.00822 251.431704 
L 394.00822 251.431704 
L 393.701161 252.055111 
L 393.804627 251.899259 
L 394.108348 251.743407 
L 394.00822 251.899259 
L 393.601034 252.365156 
L 393.497568 252.055111 
L 393.39744 252.67686 
L 393.804627 253.144415 
L 393.701161 252.67686 
L 393.701161 253.610312 
L 393.497568 253.300266 
L 393.601034 252.521008 
L 393.497568 252.67686 
L 393.497568 252.67686 
L 393.601034 252.832711 
L 393.193847 253.766164 
L 392.78666 253.922015 
L 392.990254 253.766164 
L 393.090382 253.610312 
L 393.701161 254.38957 
L 393.39744 254.077867 
L 392.683195 253.610312 
L 393.090382 253.766164 
L 393.193847 253.610312 
L 392.886788 254.077867 
L 393.090382 253.766164 
L 392.990254 253.300266 
L 393.090382 253.922015 
L 392.379474 254.233719 
L 392.17588 254.077867 
L 392.072415 253.610312 
L 392.276008 253.610312 
L 392.479602 253.922015 
L 392.990254 254.077867 
L 392.886788 253.922015 
L 392.886788 253.922015 
L 392.583067 254.38957 
L 392.78666 254.077867 
L 392.78666 253.610312 
L 392.683195 253.922015 
L 392.379474 254.077867 
L 392.17588 254.38957 
L 392.479602 254.077867 
L 392.479602 254.077867 
L 392.379474 254.701274 
L 392.072415 254.701274 
L 392.072415 254.857126 
L 392.17588 254.857126 
L 392.276008 254.857126 
L 392.276008 254.857126 
L 392.276008 253.766164 
L 392.17588 254.077867 
L 392.072415 254.701274 
L 392.276008 253.766164 
L 392.479602 253.766164 
L 392.479602 253.922015 
L 392.276008 253.922015 
L 392.072415 253.766164 
L 392.072415 253.610312 
L 391.972287 254.233719 
L 391.868822 254.38957 
L 391.972287 254.077867 
L 391.868822 254.077867 
L 391.665228 254.233719 
L 391.665228 254.38957 
L 391.768694 254.233719 
L 391.868822 254.233719 
L 391.868822 254.38957 
L 391.768694 254.077867 
L 391.565101 254.077867 
L 391.361507 254.38957 
L 391.461635 254.545422 
L 391.461635 254.857126 
L 391.461635 253.922015 
L 391.768694 253.144415 
L 391.868822 252.521008 
L 391.768694 252.209304 
L 391.361507 251.587555 
L 391.054449 250.652445 
L 390.750727 249.251438 
L 390.036482 248.006282 
L 388.918388 246.916978 
L 387.696828 245.360119 
L 384.743056 240.223644 
L 382.807251 237.731675 
L 373.441959 226.679467 
L 369.473559 220.45203 
L 364.891041 213.446993 
L 362.855108 209.24397 
L 359.086963 200.836267 
L 356.950902 196.944948 
L 354.811504 193.365333 
L 352.571978 189.316504 
L 350.435917 184.491733 
L 344.835432 171.103407 
L 342.799499 166.43283 
L 338.52404 157.55923 
L 336.795166 153.044504 
L 335.266547 148.218075 
L 331.701996 138.566874 
L 328.140782 129.225719 
L 326.40857 124.710993 
L 323.458136 115.6832 
L 322.133111 110.85677 
L 320.911551 105.874489 
L 319.99705 101.049718 
L 319.589863 96.690844 
L 319.486398 92.797867 
L 318.368304 77.698488 
L 318.264838 74.740622 
L 318.468431 72.0928 
L 318.77549 69.602489 
L 319.182677 67.578075 
L 319.38627 65.71117 
L 319.486398 62.909155 
L 319.589863 61.974045 
L 319.793457 61.663999 
L 320.097178 62.753303 
L 320.097178 62.753303 
L 319.893585 62.909155 
L 319.893585 63.219201 
L 320.60783 63.998459 
L 320.60783 63.842607 
L 320.404237 63.686756 
L 320.200643 63.686756 
L 320.200643 63.686756 
L 320.300771 63.530904 
L 320.60783 61.818193 
L 320.60783 60.728889 
L 320.707958 61.196444 
L 320.911551 61.352296 
L 320.911551 61.352296 
L 320.811423 61.508148 
L 320.707958 61.352296 
L 320.707958 60.884741 
L 320.911551 60.573037 
L 320.504364 61.040592 
L 320.504364 61.040592 
L 320.811423 61.196444 
L 320.60783 61.196444 
L 320.200643 61.196444 
L 319.99705 61.040592 
L 320.097178 60.573037 
L 320.200643 60.728889 
L 320.097178 61.196444 
L 320.300771 61.508148 
L 320.60783 61.663999 
L 320.811423 61.508148 
L 320.60783 61.352296 
L 320.504364 62.129896 
L 320.504364 62.129896 
L 319.99705 62.129896 
L 319.893585 62.4416 
L 319.689991 63.065007 
L 319.486398 63.219201 
L 320.200643 62.753303 
L 319.99705 62.753303 
L 319.689991 62.753303 
L 319.486398 62.597452 
L 319.893585 63.065007 
L 319.793457 63.065007 
L 319.689991 63.065007 
L 319.589863 63.219201 
L 319.793457 63.686756 
L 319.689991 63.686756 
L 319.38627 63.530904 
L 319.486398 63.842607 
L 319.589863 64.620208 
L 319.38627 64.620208 
L 319.182677 64.466014 
L 319.182677 64.154311 
L 319.689991 63.998459 
L 319.793457 64.154311 
L 319.793457 64.154311 
L 319.893585 63.998459 
L 320.200643 64.310163 
L 320.404237 64.77606 
L 319.893585 64.77606 
L 319.689991 65.243615 
L 319.689991 65.71117 
L 319.689991 65.399467 
L 319.282805 65.399467 
L 319.282805 65.399467 
L 319.182677 65.867022 
L 319.182677 65.867022 
L 319.893585 65.555318 
L 319.893585 65.555318 
L 319.689991 65.867022 
L 319.689991 66.177067 
L 319.689991 66.177067 
L 319.38627 66.488771 
L 319.589863 66.488771 
L 319.589863 66.956326 
L 319.486398 66.800474 
L 319.182677 66.800474 
L 318.979084 67.268029 
L 319.079211 67.889778 
L 319.38627 67.268029 
L 319.486398 67.423881 
L 319.38627 68.98074 
L 319.486398 67.733926 
L 318.77549 67.733926 
L 318.77549 67.733926 
L 319.079211 67.578075 
L 318.979084 67.733926 
L 319.079211 67.889778 
L 319.282805 67.889778 
L 318.979084 67.889778 
L 319.182677 67.889778 
L 318.979084 67.578075 
L 318.672025 67.578075 
L 318.77549 67.889778 
L 318.77549 68.04563 
L 318.672025 67.889778 
L 318.571897 67.889778 
L 318.571897 68.04563 
L 318.672025 67.889778 
L 318.875618 67.423881 
L 319.282805 67.733926 
L 319.182677 67.112177 
L 319.38627 68.04563 
L 319.182677 68.04563 
L 318.875618 67.578075 
L 319.486398 67.423881 
L 319.079211 67.423881 
L 318.979084 66.956326 
L 319.079211 66.956326 
L 319.38627 66.800474 
L 319.689991 66.488771 
L 319.589863 66.177067 
L 319.182677 66.177067 
L 318.979084 66.332919 
L 319.079211 66.332919 
L 319.38627 66.177067 
L 319.589863 65.71117 
L 319.589863 65.399467 
L 319.689991 65.867022 
L 319.793457 65.867022 
L 319.793457 65.087763 
L 319.893585 65.087763 
L 320.200643 64.931911 
L 320.60783 64.931911 
L 321.82939 64.620208 
L 323.254543 64.931911 
L 324.068916 65.243615 
L 324.779824 66.022873 
L 325.594197 67.268029 
L 330.073249 71.936949 
L 333.127149 76.297481 
L 335.062954 78.476089 
L 338.627506 83.302518 
L 344.631839 90.619259 
L 346.364051 93.265422 
L 348.196391 95.599882 
L 350.332451 98.091851 
L 353.997131 103.851733 
L 358.783242 109.767466 
L 363.36576 116.4608 
L 369.473559 126.267852 
L 374.867113 134.208 
L 379.653224 142.302341 
L 380.874784 144.170904 
L 382.096343 146.35117 
L 384.642928 151.799348 
L 386.068082 154.601363 
L 388.714794 159.116089 
L 391.972287 167.056237 
L 392.479602 168.923141 
L 392.78666 171.103407 
L 392.78666 173.126164 
L 392.379474 176.395734 
L 391.361507 179.665304 
L 391.258042 181.999763 
L 390.139948 185.736889 
L 389.732761 187.605451 
L 389.629295 193.365333 
L 389.529168 194.454637 
L 389.325574 195.232238 
L 389.018516 198.969363 
L 389.018516 199.902815 
L 388.407736 203.172385 
L 388.511201 206.441955 
L 388.814922 207.375408 
L 389.018516 209.088118 
L 389.018516 209.088118 
L 389.222109 209.24397 
L 389.121981 210.489126 
L 389.018516 210.489126 
L 388.814922 210.644978 
L 388.611329 211.890133 
L 388.611329 212.357689 
L 388.918388 212.51354 
L 389.121981 212.357689 
L 388.918388 212.357689 
L 388.714794 212.51354 
L 389.222109 213.446993 
L 389.425702 213.914548 
L 389.629295 214.068741 
L 389.732761 214.848 
L 389.629295 214.848 
L 389.936354 215.003852 
L 390.036482 215.315555 
L 389.832889 215.469749 
L 389.629295 215.469749 
L 389.732761 215.781452 
L 390.036482 215.781452 
L 390.240075 215.625601 
L 390.139948 215.781452 
L 389.936354 216.249007 
L 390.036482 216.249007 
L 390.139948 216.404859 
L 390.036482 216.404859 
L 390.240075 216.249007 
L 390.443669 216.560711 
L 390.443669 216.872414 
L 390.443669 216.560711 
L 390.954321 217.494163 
L 391.054449 217.18246 
L 391.361507 217.18246 
L 391.054449 216.872414 
L 390.850855 216.872414 
L 390.750727 217.18246 
L 390.850855 217.338311 
L 390.750727 217.338311 
L 390.647262 217.494163 
L 390.750727 217.494163 
L 391.054449 218.11757 
L 391.258042 217.805867 
L 391.054449 217.338311 
L 390.850855 217.18246 
L 390.850855 217.650015 
L 391.258042 218.11757 
L 391.461635 218.11757 
L 391.565101 217.961718 
L 391.258042 217.805867 
L 391.361507 217.650015 
L 391.054449 217.961718 
L 391.565101 218.427616 
L 391.461635 218.739319 
L 391.258042 218.739319 
L 391.258042 218.583467 
L 391.157914 219.206874 
L 391.258042 218.739319 
L 391.461635 219.206874 
L 391.461635 219.206874 
L 391.258042 219.206874 
L 391.361507 219.518578 
L 391.768694 219.518578 
L 391.665228 219.518578 
L 391.461635 219.674429 
L 391.258042 219.984475 
L 391.157914 219.830281 
L 391.361507 219.830281 
L 391.665228 219.984475 
L 391.868822 220.296178 
L 391.768694 220.296178 
L 391.157914 219.984475 
L 391.258042 220.140326 
L 391.461635 219.984475 
L 391.665228 220.140326 
L 391.665228 220.296178 
L 391.768694 220.296178 
L 392.072415 220.296178 
L 392.072415 220.140326 
L 391.361507 220.607882 
L 391.054449 221.075437 
L 391.157914 220.919585 
L 391.361507 220.919585 
L 391.361507 220.919585 
L 391.258042 221.075437 
L 391.461635 221.385482 
L 391.361507 221.231288 
L 391.157914 221.231288 
L 391.054449 221.385482 
L 391.054449 221.697186 
L 391.054449 221.385482 
L 391.768694 221.853037 
L 391.565101 222.320592 
L 391.565101 222.476444 
L 391.565101 221.697186 
L 391.361507 221.853037 
L 391.258042 222.320592 
L 391.361507 222.632296 
L 391.768694 222.320592 
L 391.665228 222.476444 
L 391.461635 222.942341 
L 391.868822 222.164741 
L 391.972287 222.164741 
L 391.868822 223.098193 
L 391.768694 223.409896 
L 391.972287 222.632296 
L 391.461635 222.632296 
L 390.647262 222.942341 
L 389.732761 222.942341 
L 387.186176 222.008889 
L 385.150243 221.231288 
L 382.707123 220.607882 
L 377.006511 219.674429 
L 369.880746 218.583467 
L 365.80888 217.650015 
L 352.268257 215.781452 
L 347.482145 215.469749 
L 342.799499 215.315555 
L 337.91326 215.315555 
L 328.037316 215.937304 
L 323.050949 216.093156 
L 313.482064 216.093156 
L 308.592488 216.404859 
L 303.299062 217.338311 
L 297.905508 218.11757 
L 292.71221 218.427616 
L 287.315319 218.583467 
L 281.718172 219.051022 
L 276.01756 219.674429 
L 270.213482 219.984475 
L 253.722425 221.231288 
L 247.918347 221.541334 
L 242.3212 222.164741 
L 232.138198 223.7216 
L 227.251959 223.877452 
L 222.36572 224.189155 
L 217.582946 224.966756 
L 212.896963 225.900208 
L 208.41791 226.523615 
L 204.142451 226.835318 
L 199.970457 226.99117 
L 196.305778 227.301215 
L 189.483733 228.858075 
L 185.919182 229.32563 
L 182.765154 229.949037 
L 178.489695 231.038341 
L 176.860949 231.66009 
L 175.535924 232.439348 
L 173.399863 233.996207 
L 173.603456 234.92966 
L 173.703584 235.553067 
L 173.907177 236.018964 
L 174.214236 236.174815 
L 174.825016 237.265777 
L 175.33233 238.97683 
L 174.925144 240.377838 
L 175.028609 240.845393 
L 174.417829 242.402252 
L 174.314364 243.181511 
L 173.807049 244.426666 
L 174.010643 245.360119 
L 173.807049 245.983526 
L 173.499991 246.293571 
L 173.499991 246.139377 
L 174.417829 247.07283 
L 173.907177 248.006282 
L 173.807049 251.12 
L 173.807049 250.964149 
L 173.703584 250.652445 
L 173.499991 250.964149 
L 173.296397 251.899259 
L 173.296397 251.743407 
L 173.092804 251.899259 
L 172.992676 252.67686 
L 173.399863 253.610312 
L 173.296397 253.456118 
L 172.992676 253.610312 
L 172.992676 254.545422 
L 172.58549 253.766164 
L 172.685617 254.077867 
L 172.789083 254.545422 
L 172.482024 254.857126 
L 172.889211 255.011319 
L 172.278431 255.323023 
L 172.381896 255.478874 
L 172.58549 255.323023 
L 172.482024 255.323023 
L 172.278431 255.323023 
L 172.381896 255.478874 
L 172.685617 255.478874 
L 172.992676 255.790578 
L 172.889211 255.790578 
L 172.58549 256.102281 
L 172.482024 256.568178 
L 172.482024 256.568178 
L 172.178303 255.94643 
L 172.381896 256.568178 
L 172.178303 257.503289 
L 171.871244 257.814992 
L 171.97471 257.814992 
L 172.178303 257.969186 
L 172.074837 257.814992 
L 171.871244 257.65914 
L 171.667651 257.814992 
L 171.97471 258.436741 
L 172.074837 258.436741 
L 171.567523 258.125038 
L 172.178303 258.125038 
L 171.567523 259.060148 
L 171.36393 259.681897 
L 171.567523 259.9936 
L 171.871244 260.149452 
L 171.97471 259.9936 
L 171.871244 259.681897 
L 171.464058 259.681897 
L 171.36393 259.9936 
L 171.36393 259.681897 
L 171.260464 259.526045 
L 171.056871 259.837749 
L 171.160336 260.305304 
L 171.36393 260.305304 
L 171.567523 260.149452 
L 171.464058 260.149452 
L 171.36393 261.862163 
L 171.464058 261.862163 
L 171.667651 261.706311 
L 171.567523 261.238756 
L 171.36393 261.238756 
L 171.36393 261.550459 
L 171.567523 261.862163 
L 171.97471 262.173866 
L 171.871244 262.32806 
L 171.464058 261.862163 
L 171.464058 261.706311 
L 171.36393 262.018015 
L 171.056871 262.32806 
L 171.36393 262.173866 
L 171.260464 262.795615 
L 171.464058 262.018015 
L 171.36393 262.32806 
L 171.056871 262.639763 
L 171.056871 262.483912 
L 171.160336 262.173866 
L 170.956743 262.483912 
L 171.160336 262.951467 
L 171.464058 263.26317 
L 171.260464 262.951467 
L 171.056871 262.639763 
L 170.853278 262.795615 
L 170.649684 263.107319 
L 170.649684 263.419022 
L 170.853278 263.574874 
L 171.36393 263.574874 
L 171.056871 264.040771 
L 170.75315 264.196623 
L 170.549557 263.884919 
L 170.853278 264.508326 
L 170.956743 264.82003 
L 170.956743 264.664178 
L 171.160336 263.884919 
L 170.956743 264.040771 
L 170.75315 264.040771 
L 170.75315 264.040771 
L 170.75315 264.352474 
L 170.549557 264.664178 
L 170.649684 264.664178 
L 170.956743 264.82003 
L 171.260464 264.82003 
L 171.260464 264.82003 
L 171.260464 265.441778 
L 171.160336 265.131733 
L 170.956743 265.131733 
L 170.549557 265.285927 
L 170.956743 264.975881 
L 171.260464 264.975881 
L 171.260464 264.975881 
L 171.160336 265.131733 
L 171.260464 265.285927 
L 171.464058 265.285927 
L 171.667651 265.131733 
L 171.464058 264.975881 
L 170.956743 265.441778 
L 170.956743 265.59763 
L 171.36393 265.909334 
L 171.260464 265.753482 
L 171.160336 265.59763 
L 170.853278 266.065185 
L 170.956743 265.59763 
L 171.260464 265.59763 
L 171.160336 265.59763 
L 170.956743 265.753482 
L 171.056871 266.376889 
L 170.75315 266.065185 
L 170.853278 266.065185 
L 171.056871 266.376889 
L 171.567523 266.376889 
L 172.074837 266.53274 
L 173.807049 265.59763 
L 185.104809 261.550459 
L 191.823387 259.9936 
L 195.898591 259.060148 
L 200.477771 258.280889 
L 209.946528 257.035734 
L 215.036361 256.568178 
L 220.329787 255.94643 
L 225.726678 255.167171 
L 231.323825 254.545422 
L 236.820844 254.38957 
L 242.3212 253.766164 
L 253.315239 252.209304 
L 269.706168 250.3424 
L 275.203187 249.874845 
L 280.496613 249.718993 
L 285.890166 249.251438 
L 291.694244 248.629689 
L 297.498322 248.162134 
L 308.899546 248.162134 
L 314.396566 247.85043 
L 325.494069 247.85043 
L 331.091216 247.694579 
L 336.387979 247.694579 
L 346.160458 248.317985 
L 351.046697 248.785541 
L 355.82947 249.097244 
L 360.311861 249.563141 
L 368.862779 251.12 
L 376.699452 252.209304 
L 382.50353 253.766164 
L 385.253708 254.233719 
L 387.796956 254.545422 
L 389.629295 255.011319 
L 390.750727 255.478874 
L 391.361507 256.258133 
L 392.276008 257.969186 
L 392.379474 258.592593 
L 392.379474 259.526045 
L 391.972287 260.927053 
L 391.665228 261.082904 
L 391.361507 261.082904 
L 390.647262 261.394608 
L 390.547134 261.862163 
L 390.647262 262.795615 
L 390.547134 262.795615 
L 390.343541 262.951467 
L 390.240075 263.419022 
L 390.443669 263.884919 
L 390.850855 264.196623 
L 390.750727 264.82003 
L 390.647262 266.842786 
L 390.750727 266.842786 
L 391.157914 266.842786 
L 390.240075 267.622044 
L 390.139948 268.0896 
L 390.139948 268.0896 
L 390.343541 269.178904 
L 390.443669 269.023052 
L 390.443669 268.8672 
L 390.443669 269.023052 
L 390.850855 269.800653 
L 390.850855 270.112356 
L 390.139948 270.579911 
L 390.036482 270.268208 
L 390.240075 270.112356 
L 390.443669 270.268208 
L 390.443669 270.579911 
L 390.547134 270.579911 
L 390.750727 270.579911 
L 390.750727 270.735763 
L 390.647262 270.735763 
L 390.443669 271.047466 
L 390.547134 271.513363 
L 390.343541 271.669215 
L 390.036482 271.669215 
L 389.832889 271.357512 
L 389.832889 270.891615 
L 389.732761 271.825067 
L 389.936354 271.825067 
L 390.343541 271.825067 
L 390.240075 271.825067 
L 389.832889 272.13677 
L 389.832889 272.13677 
L 390.036482 271.513363 
L 390.036482 271.513363 
L 390.343541 271.669215 
L 390.343541 271.669215 
L 390.443669 271.980919 
L 390.647262 272.13677 
L 390.547134 271.669215 
L 390.750727 271.825067 
L 390.850855 271.513363 
L 391.157914 271.047466 
L 391.361507 270.268208 
L 391.157914 270.735763 
L 390.954321 270.735763 
L 390.954321 270.579911 
L 390.954321 270.579911 
L 391.157914 270.735763 
L 391.361507 271.047466 
L 391.258042 270.735763 
L 391.361507 269.800653 
L 391.461635 269.800653 
L 391.361507 270.268208 
L 391.461635 270.268208 
L 391.461635 269.800653 
L 391.868822 269.800653 
L 392.276008 269.644801 
L 392.17588 269.334755 
L 391.565101 268.8672 
L 391.461635 269.023052 
L 391.768694 269.644801 
L 391.972287 269.800653 
L 392.17588 269.644801 
L 392.683195 269.023052 
L 393.090382 268.711348 
L 392.886788 268.711348 
L 392.479602 269.178904 
L 392.583067 268.8672 
L 392.78666 268.0896 
L 392.683195 267.622044 
L 392.379474 267.154489 
L 392.479602 266.998638 
L 393.193847 266.53274 
L 393.293975 266.842786 
L 393.193847 267.466193 
L 392.990254 267.622044 
L 392.886788 267.310341 
L 393.090382 266.842786 
L 393.39744 266.688592 
L 393.497568 267.622044 
L 393.293975 267.154489 
L 393.090382 266.998638 
L 392.886788 266.688592 
L 392.990254 266.221037 
L 393.090382 266.221037 
L 393.193847 266.376889 
L 393.193847 266.376889 
L 393.293975 266.065185 
L 393.601034 265.909334 
L 393.804627 266.065185 
L 393.701161 266.53274 
L 393.497568 266.376889 
L 393.601034 265.753482 
L 394.00822 265.441778 
L 393.904755 265.441778 
L 393.601034 265.441778 
L 393.804627 265.909334 
L 393.701161 265.753482 
L 394.108348 265.285927 
L 394.211813 265.441778 
L 394.108348 265.909334 
L 393.904755 265.909334 
L 393.804627 265.59763 
L 393.904755 265.753482 
L 394.108348 265.909334 
L 394.311941 265.909334 
L 394.415407 265.753482 
L 394.311941 265.909334 
L 394.00822 264.975881 
L 394.211813 264.975881 
L 394.515535 265.131733 
L 394.719128 265.59763 
L 394.619 264.82003 
L 394.515535 264.664178 
L 394.619 264.352474 
L 394.415407 264.196623 
L 394.515535 264.508326 
L 394.719128 264.664178 
L 394.822593 264.040771 
L 395.026187 263.884919 
L 395.329908 263.884919 
L 395.433373 264.040771 
L 394.822593 262.951467 
L 394.211813 261.394608 
L 392.990254 258.280889 
L 392.072415 256.413985 
L 388.611329 252.521008 
L 386.475268 249.874845 
L 382.096343 242.869807 
L 373.238366 231.815941 
L 370.287932 227.612919 
L 367.537754 223.254045 
L 362.347794 213.914548 
L 354.404317 200.682074 
L 351.757604 196.011496 
L 349.010764 191.652622 
L 346.364051 186.982044 
L 343.817466 181.999763 
L 341.477812 176.863289 
L 334.044988 161.762252 
L 331.601868 156.469926 
L 329.362342 151.02009 
L 325.290476 140.435437 
L 321.115144 130.472533 
L 319.182677 125.3344 
L 312.871285 106.8096 
L 311.84998 102.450725 
L 310.628421 97.780148 
L 305.43846 81.433956 
L 304.520622 77.698488 
L 303.706249 73.805511 
L 303.095469 70.070044 
L 302.077502 60.884741 
L 302.384561 58.082726 
L 302.180968 56.83757 
L 301.773781 55.436563 
L 301.873909 54.969007 
L 302.077502 54.657304 
L 303.095469 54.347259 
L 303.606121 54.813156 
L 303.909842 54.657304 
L 304.113435 55.124859 
L 303.909842 55.436563 
L 304.216901 55.436563 
L 304.624087 55.124859 
L 305.031274 55.124859 
L 304.927808 54.657304 
L 304.827681 54.347259 
L 304.113435 53.568 
L 304.317028 53.879703 
L 304.520622 54.347259 
L 304.724215 54.501452 
L 305.131402 53.723852 
L 305.43846 53.879703 
L 305.538588 54.501452 
L 305.43846 54.969007 
L 305.334995 54.813156 
L 305.131402 54.813156 
L 305.031274 54.657304 
L 305.131402 54.657304 
L 305.845647 55.280711 
L 305.945775 55.436563 
L 305.845647 55.748266 
L 305.43846 56.058311 
L 305.845647 56.83757 
L 305.642054 56.83757 
L 305.334995 56.681718 
L 305.845647 56.214163 
L 305.845647 56.214163 
L 305.642054 56.83757 
L 305.642054 57.615171 
L 305.742182 57.149274 
L 305.945775 56.993422 
L 306.149368 57.303467 
L 306.04924 57.771022 
L 305.742182 57.771022 
L 306.04924 58.394429 
L 305.945775 58.860326 
L 305.642054 59.016178 
L 305.742182 58.394429 
L 305.845647 58.706133 
L 305.845647 59.483733 
L 305.538588 60.10714 
L 305.742182 59.951288 
L 306.352961 59.17203 
L 306.352961 59.016178 
L 306.149368 59.327882 
L 305.945775 59.951288 
L 306.04924 59.951288 
L 306.252834 59.951288 
L 306.352961 60.261334 
L 306.252834 60.728889 
L 305.945775 61.352296 
L 305.742182 61.352296 
L 305.642054 61.196444 
L 305.742182 62.4416 
L 305.845647 62.4416 
L 305.945775 62.129896 
L 305.742182 61.974045 
L 305.845647 62.129896 
L 305.642054 62.597452 
L 305.642054 62.909155 
L 305.845647 63.219201 
L 305.742182 63.219201 
L 305.642054 63.219201 
L 305.642054 63.219201 
L 305.234867 63.530904 
L 305.234867 63.842607 
L 305.43846 64.466014 
L 305.43846 65.087763 
L 305.43846 65.087763 
L 305.642054 65.087763 
L 305.742182 65.243615 
L 305.538588 65.399467 
L 304.724215 66.644622 
L 304.624087 68.04563 
L 304.520622 68.201482 
L 304.724215 69.290786 
L 304.827681 69.446637 
L 304.624087 69.446637 
L 304.317028 69.758341 
L 304.520622 70.225896 
L 304.420494 71.003496 
L 304.420494 70.691793 
L 304.216901 70.535941 
L 303.909842 70.691793 
L 303.606121 71.3152 
L 303.606121 72.404504 
L 303.809714 73.183762 
L 303.706249 73.339614 
L 303.402527 73.183762 
L 303.198934 73.493808 
L 303.095469 73.961363 
L 303.299062 74.428918 
L 303.299062 74.273067 
L 303.402527 74.273067 
L 303.606121 74.428918 
L 303.606121 74.740622 
L 303.402527 75.050667 
L 302.891875 76.607526 
L 302.995341 76.763378 
L 302.891875 76.763378 
L 302.791748 76.763378 
L 302.688282 76.607526 
L 302.891875 76.763378 
L 302.995341 76.763378 
L 303.095469 77.075081 
L 302.995341 77.386785 
L 302.484689 77.698488 
L 302.077502 78.008534 
L 302.588154 78.476089 
L 302.791748 78.787792 
L 302.791748 79.877096 
L 302.588154 80.032948 
L 302.281095 80.032948 
L 302.077502 80.1888 
L 302.180968 80.344652 
L 302.281095 80.032948 
L 302.281095 80.1888 
L 302.588154 80.500503 
L 302.588154 81.122252 
L 301.773781 83.45837 
L 301.873909 83.302518 
L 302.180968 83.146666 
L 302.281095 83.302518 
L 301.873909 84.23597 
L 301.570188 84.391822 
L 301.466722 84.391822 
L 301.670316 84.23597 
L 301.670316 85.79283 
L 301.670316 85.79283 
L 301.873909 85.79283 
L 301.773781 85.481126 
L 301.670316 85.481126 
L 301.570188 85.79283 
L 301.263129 86.260385 
L 301.163001 86.726282 
L 301.263129 86.882134 
L 301.263129 86.726282 
L 301.366594 86.416237 
L 301.670316 86.416237 
L 301.873909 86.57043 
L 301.670316 87.037985 
L 301.773781 87.037985 
L 302.484689 86.726282 
L 302.995341 86.57043 
L 303.706249 86.726282 
L 304.724215 86.726282 
L 305.845647 87.037985 
L 306.863613 87.661392 
L 309.406861 89.684149 
L 310.731886 90.775111 
L 311.953446 92.176118 
L 313.378599 93.577126 
L 316.332371 97.000889 
L 321.318738 103.54003 
L 324.983417 107.5872 
L 326.612163 109.611615 
L 328.344375 112.101926 
L 330.380308 114.748089 
L 332.312776 117.705956 
L 334.044988 120.663823 
L 337.813132 126.423704 
L 341.070625 132.651141 
L 342.902965 135.920711 
L 345.039026 138.722726 
L 347.382017 141.368889 
L 349.621544 144.638459 
L 352.879036 151.331793 
L 354.607911 154.133808 
L 360.311861 162.385659 
L 364.076668 167.056237 
L 365.909007 168.923141 
L 367.537754 170.947555 
L 369.269966 173.282015 
L 370.795247 175.773985 
L 371.916679 178.264296 
L 375.377765 188.2272 
L 376.292266 190.407466 
L 377.106639 192.741926 
L 378.531792 197.568355 
L 379.042444 199.902815 
L 379.346165 204.105837 
L 380.264004 208.932267 
L 380.160538 219.518578 
L 379.956945 221.541334 
L 379.856817 225.278459 
L 379.549758 227.301215 
L 379.142572 229.169778 
L 378.838851 232.5952 
L 378.735385 236.798222 
L 378.838851 238.355081 
L 378.635257 240.067792 
L 378.124605 241.624652 
L 377.717419 243.335704 
L 377.106639 248.162134 
L 376.699452 252.055111 
L 376.495859 253.456118 
L 376.395731 257.969186 
L 376.192138 260.461155 
L 376.192138 262.639763 
L 375.885079 263.419022 
L 375.581358 263.884919 
L 375.681486 264.975881 
L 375.784951 265.753482 
L 375.681486 266.376889 
L 375.070706 267.154489 
L 375.070706 267.777896 
L 375.784951 270.268208 
L 375.274299 271.513363 
L 375.377765 272.292622 
L 375.581358 272.758519 
L 375.377765 273.693629 
L 375.681486 274.005333 
L 375.477892 274.782933 
L 375.477892 275.250489 
L 375.581358 274.627082 
L 375.377765 275.094637 
L 375.174171 276.028089 
L 375.377765 275.872238 
L 375.581358 275.872238 
L 376.088672 276.028089 
L 375.885079 276.339793 
L 375.681486 276.183941 
L 375.784951 276.028089 
L 375.885079 276.183941 
L 375.885079 276.651496 
L 375.681486 277.273245 
L 375.477892 277.273245 
L 375.377765 276.651496 
L 375.581358 276.339793 
L 376.088672 277.117393 
L 376.088672 277.896652 
L 375.988545 277.7408 
L 375.885079 277.7408 
L 375.477892 278.518401 
L 375.477892 278.830104 
L 375.581358 278.674252 
L 375.681486 278.674252 
L 375.681486 278.674252 
L 375.681486 279.453511 
L 375.377765 280.231112 
L 375.274299 280.854518 
L 375.377765 280.542815 
L 375.784951 280.07526 
L 375.681486 281.787971 
L 375.885079 281.787971 
L 376.088672 281.943823 
L 376.088672 281.943823 
L 375.988545 282.567229 
L 375.681486 283.033127 
L 375.784951 283.033127 
L 375.988545 282.877275 
L 375.681486 283.188978 
L 375.885079 283.033127 
L 376.292266 285.213393 
L 376.192138 285.680948 
L 375.681486 286.146845 
L 375.784951 285.990993 
L 375.784951 287.081955 
L 375.681486 286.770252 
L 375.581358 286.926104 
L 375.581358 286.770252 
L 375.581358 286.6144 
L 375.681486 286.770252 
L 375.885079 286.926104 
L 376.088672 286.926104 
L 376.088672 287.081955 
L 375.885079 287.236149 
L 375.377765 288.638814 
L 375.274299 288.482963 
L 375.274299 288.171259 
L 375.377765 288.171259 
L 375.581358 288.171259 
L 375.784951 288.327111 
L 375.988545 288.94886 
L 375.885079 289.260563 
L 375.581358 289.416415 
L 375.784951 289.416415 
L 375.477892 290.039822 
L 375.477892 290.039822 
L 375.477892 289.88397 
L 375.477892 290.194016 
L 374.970578 291.284978 
L 374.970578 291.129126 
L 374.970578 290.817422 
L 374.970578 290.817422 
L 375.581358 291.596681 
L 375.274299 291.596681 
L 375.274299 291.284978 
L 375.377765 291.440829 
L 375.581358 292.062578 
L 375.477892 292.21843 
L 375.274299 292.21843 
L 375.174171 292.374282 
L 375.174171 292.685985 
L 374.970578 293.151882 
L 374.766985 293.151882 
L 374.867113 292.997689 
L 374.970578 293.151882 
L 374.359798 293.775289 
L 374.663519 293.619437 
L 374.867113 293.463586 
L 374.867113 293.463586 
L 375.174171 293.463586 
L 375.377765 293.775289 
L 375.274299 294.242844 
L 374.970578 294.398696 
L 375.377765 294.864593 
L 375.274299 294.708741 
L 375.274299 294.398696 
L 375.274299 294.55289 
L 375.070706 294.55289 
L 374.867113 294.708741 
L 374.970578 294.864593 
L 375.377765 294.864593 
L 375.581358 294.708741 
L 375.581358 294.708741 
L 375.581358 295.488 
L 375.581358 295.176297 
L 375.988545 294.398696 
L 375.885079 294.708741 
L 375.681486 295.176297 
L 375.477892 295.332148 
L 375.174171 295.332148 
L 375.377765 294.864593 
L 375.581358 294.708741 
L 375.681486 295.020445 
L 375.377765 295.176297 
L 375.070706 295.176297 
L 374.970578 295.020445 
L 375.070706 294.55289 
L 375.070706 294.55289 
L 374.970578 294.398696 
L 374.970578 294.398696 
L 375.274299 294.086993 
L 375.477892 294.086993 
L 375.477892 293.775289 
L 375.581358 293.775289 
L 375.784951 293.931141 
L 375.581358 293.931141 
L 375.274299 293.775289 
L 375.377765 293.775289 
L 375.581358 293.619437 
L 376.395731 293.619437 
L 376.292266 293.775289 
L 376.699452 292.997689 
L 376.699452 292.841837 
L 376.495859 292.530133 
L 376.599324 292.062578 
L 376.903046 291.596681 
L 377.106639 291.596681 
L 377.006511 292.062578 
L 376.802918 292.062578 
L 376.802918 291.284978 
L 377.006511 290.817422 
L 376.495859 291.129126 
L 377.106639 290.817422 
L 377.210104 290.349867 
L 377.617291 290.039822 
L 377.617291 289.88397 
L 377.413698 289.728118 
L 377.310232 290.039822 
L 377.413698 290.194016 
L 377.413698 289.572267 
L 377.310232 289.728118 
L 377.210104 289.572267 
L 377.210104 289.572267 
L 377.413698 289.572267 
L 377.717419 289.416415 
L 377.921012 289.104712 
L 378.228071 288.94886 
L 378.635257 288.94886 
L 378.635257 288.94886 
L 378.124605 288.638814 
L 378.124605 288.638814 
L 378.328199 288.482963 
L 378.838851 287.703704 
L 378.531792 287.703704 
L 378.228071 288.015408 
L 378.124605 288.327111 
L 378.228071 288.171259 
L 378.431664 288.015408 
L 378.735385 287.081955 
L 378.635257 287.081955 
L 378.735385 287.081955 
L 379.042444 287.236149 
L 379.142572 287.703704 
L 379.142572 287.703704 
L 378.938979 287.547852 
L 378.838851 287.236149 
L 378.938979 287.081955 
L 379.449631 286.770252 
L 379.142572 286.770252 
L 379.246037 286.458548 
L 379.142572 286.770252 
L 379.346165 286.6144 
L 379.549758 285.990993 
L 379.549758 285.990993 
" style="fill:none;stroke:#1f77b4;stroke-linecap:square;stroke-width:1.5;"/>
   </g>
   <g id="matplotlib.axis_1">
    <g id="xtick_1">
     <g id="line2d_2">
      <defs>
       <path d="M 0 0 
L 0 3.5 
" id="md2eae43e79" style="stroke:#000000;stroke-width:0.8;"/>
      </defs>
      <g>
       <use style="stroke:#000000;stroke-width:0.8;" x="113.483356" xlink:href="#md2eae43e79" y="307.584"/>
      </g>
     </g>
     <g id="text_1">
      <!-- −600 -->
      <defs>
       <path d="M 10.59375 35.5 
L 73.1875 35.5 
L 73.1875 27.203125 
L 10.59375 27.203125 
z
" id="DejaVuSans-8722"/>
       <path d="M 33.015625 40.375 
Q 26.375 40.375 22.484375 35.828125 
Q 18.609375 31.296875 18.609375 23.390625 
Q 18.609375 15.53125 22.484375 10.953125 
Q 26.375 6.390625 33.015625 6.390625 
Q 39.65625 6.390625 43.53125 10.953125 
Q 47.40625 15.53125 47.40625 23.390625 
Q 47.40625 31.296875 43.53125 35.828125 
Q 39.65625 40.375 33.015625 40.375 
z
M 52.59375 71.296875 
L 52.59375 62.3125 
Q 48.875 64.0625 45.09375 64.984375 
Q 41.3125 65.921875 37.59375 65.921875 
Q 27.828125 65.921875 22.671875 59.328125 
Q 17.53125 52.734375 16.796875 39.40625 
Q 19.671875 43.65625 24.015625 45.921875 
Q 28.375 48.1875 33.59375 48.1875 
Q 44.578125 48.1875 50.953125 41.515625 
Q 57.328125 34.859375 57.328125 23.390625 
Q 57.328125 12.15625 50.6875 5.359375 
Q 44.046875 -1.421875 33.015625 -1.421875 
Q 20.359375 -1.421875 13.671875 8.265625 
Q 6.984375 17.96875 6.984375 36.375 
Q 6.984375 53.65625 15.1875 63.9375 
Q 23.390625 74.21875 37.203125 74.21875 
Q 40.921875 74.21875 44.703125 73.484375 
Q 48.484375 72.75 52.59375 71.296875 
z
" id="DejaVuSans-54"/>
       <path d="M 31.78125 66.40625 
Q 24.171875 66.40625 20.328125 58.90625 
Q 16.5 51.421875 16.5 36.375 
Q 16.5 21.390625 20.328125 13.890625 
Q 24.171875 6.390625 31.78125 6.390625 
Q 39.453125 6.390625 43.28125 13.890625 
Q 47.125 21.390625 47.125 36.375 
Q 47.125 51.421875 43.28125 58.90625 
Q 39.453125 66.40625 31.78125 66.40625 
z
M 31.78125 74.21875 
Q 44.046875 74.21875 50.515625 64.515625 
Q 56.984375 54.828125 56.984375 36.375 
Q 56.984375 17.96875 50.515625 8.265625 
Q 44.046875 -1.421875 31.78125 -1.421875 
Q 19.53125 -1.421875 13.0625 8.265625 
Q 6.59375 17.96875 6.59375 36.375 
Q 6.59375 54.828125 13.0625 64.515625 
Q 19.53125 74.21875 31.78125 74.21875 
z
" id="DejaVuSans-48"/>
      </defs>
      <g transform="translate(99.749763 322.182437)scale(0.1 -0.1)">
       <use xlink:href="#DejaVuSans-8722"/>
       <use x="83.789062" xlink:href="#DejaVuSans-54"/>
       <use x="147.412109" xlink:href="#DejaVuSans-48"/>
       <use x="211.035156" xlink:href="#DejaVuSans-48"/>
      </g>
     </g>
    </g>
    <g id="xtick_2">
     <g id="line2d_3">
      <g>
       <use style="stroke:#000000;stroke-width:0.8;" x="180.235257" xlink:href="#md2eae43e79" y="307.584"/>
      </g>
     </g>
     <g id="text_2">
      <!-- −400 -->
      <defs>
       <path d="M 37.796875 64.3125 
L 12.890625 25.390625 
L 37.796875 25.390625 
z
M 35.203125 72.90625 
L 47.609375 72.90625 
L 47.609375 25.390625 
L 58.015625 25.390625 
L 58.015625 17.1875 
L 47.609375 17.1875 
L 47.609375 0 
L 37.796875 0 
L 37.796875 17.1875 
L 4.890625 17.1875 
L 4.890625 26.703125 
z
" id="DejaVuSans-52"/>
      </defs>
      <g transform="translate(166.501664 322.182437)scale(0.1 -0.1)">
       <use xlink:href="#DejaVuSans-8722"/>
       <use x="83.789062" xlink:href="#DejaVuSans-52"/>
       <use x="147.412109" xlink:href="#DejaVuSans-48"/>
       <use x="211.035156" xlink:href="#DejaVuSans-48"/>
      </g>
     </g>
    </g>
    <g id="xtick_3">
     <g id="line2d_4">
      <g>
       <use style="stroke:#000000;stroke-width:0.8;" x="246.987158" xlink:href="#md2eae43e79" y="307.584"/>
      </g>
     </g>
     <g id="text_3">
      <!-- −200 -->
      <defs>
       <path d="M 19.1875 8.296875 
L 53.609375 8.296875 
L 53.609375 0 
L 7.328125 0 
L 7.328125 8.296875 
Q 12.9375 14.109375 22.625 23.890625 
Q 32.328125 33.6875 34.8125 36.53125 
Q 39.546875 41.84375 41.421875 45.53125 
Q 43.3125 49.21875 43.3125 52.78125 
Q 43.3125 58.59375 39.234375 62.25 
Q 35.15625 65.921875 28.609375 65.921875 
Q 23.96875 65.921875 18.8125 64.3125 
Q 13.671875 62.703125 7.8125 59.421875 
L 7.8125 69.390625 
Q 13.765625 71.78125 18.9375 73 
Q 24.125 74.21875 28.421875 74.21875 
Q 39.75 74.21875 46.484375 68.546875 
Q 53.21875 62.890625 53.21875 53.421875 
Q 53.21875 48.921875 51.53125 44.890625 
Q 49.859375 40.875 45.40625 35.40625 
Q 44.1875 33.984375 37.640625 27.21875 
Q 31.109375 20.453125 19.1875 8.296875 
z
" id="DejaVuSans-50"/>
      </defs>
      <g transform="translate(233.253565 322.182437)scale(0.1 -0.1)">
       <use xlink:href="#DejaVuSans-8722"/>
       <use x="83.789062" xlink:href="#DejaVuSans-50"/>
       <use x="147.412109" xlink:href="#DejaVuSans-48"/>
       <use x="211.035156" xlink:href="#DejaVuSans-48"/>
      </g>
     </g>
    </g>
    <g id="xtick_4">
     <g id="line2d_5">
      <g>
       <use style="stroke:#000000;stroke-width:0.8;" x="313.739059" xlink:href="#md2eae43e79" y="307.584"/>
      </g>
     </g>
     <g id="text_4">
      <!-- 0 -->
      <g transform="translate(310.557809 322.182437)scale(0.1 -0.1)">
       <use xlink:href="#DejaVuSans-48"/>
      </g>
     </g>
    </g>
    <g id="xtick_5">
     <g id="line2d_6">
      <g>
       <use style="stroke:#000000;stroke-width:0.8;" x="380.49096" xlink:href="#md2eae43e79" y="307.584"/>
      </g>
     </g>
     <g id="text_5">
      <!-- 200 -->
      <g transform="translate(370.94721 322.182437)scale(0.1 -0.1)">
       <use xlink:href="#DejaVuSans-50"/>
       <use x="63.623047" xlink:href="#DejaVuSans-48"/>
       <use x="127.246094" xlink:href="#DejaVuSans-48"/>
      </g>
     </g>
    </g>
   </g>
   <g id="matplotlib.axis_2">
    <g id="ytick_1">
     <g id="line2d_7">
      <defs>
       <path d="M 0 0 
L -3.5 0 
" id="md7f4cb0f2e" style="stroke:#000000;stroke-width:0.8;"/>
      </defs>
      <g>
       <use style="stroke:#000000;stroke-width:0.8;" x="57.6" xlink:href="#md7f4cb0f2e" y="275.212355"/>
      </g>
     </g>
     <g id="text_6">
      <!-- −600 -->
      <g transform="translate(23.132812 279.011573)scale(0.1 -0.1)">
       <use xlink:href="#DejaVuSans-8722"/>
       <use x="83.789062" xlink:href="#DejaVuSans-54"/>
       <use x="147.412109" xlink:href="#DejaVuSans-48"/>
       <use x="211.035156" xlink:href="#DejaVuSans-48"/>
      </g>
     </g>
    </g>
    <g id="ytick_2">
     <g id="line2d_8">
      <g>
       <use style="stroke:#000000;stroke-width:0.8;" x="57.6" xlink:href="#md7f4cb0f2e" y="242.052415"/>
      </g>
     </g>
     <g id="text_7">
      <!-- −400 -->
      <g transform="translate(23.132812 245.851633)scale(0.1 -0.1)">
       <use xlink:href="#DejaVuSans-8722"/>
       <use x="83.789062" xlink:href="#DejaVuSans-52"/>
       <use x="147.412109" xlink:href="#DejaVuSans-48"/>
       <use x="211.035156" xlink:href="#DejaVuSans-48"/>
      </g>
     </g>
    </g>
    <g id="ytick_3">
     <g id="line2d_9">
      <g>
       <use style="stroke:#000000;stroke-width:0.8;" x="57.6" xlink:href="#md7f4cb0f2e" y="208.892475"/>
      </g>
     </g>
     <g id="text_8">
      <!-- −200 -->
      <g transform="translate(23.132812 212.691694)scale(0.1 -0.1)">
       <use xlink:href="#DejaVuSans-8722"/>
       <use x="83.789062" xlink:href="#DejaVuSans-50"/>
       <use x="147.412109" xlink:href="#DejaVuSans-48"/>
       <use x="211.035156" xlink:href="#DejaVuSans-48"/>
      </g>
     </g>
    </g>
    <g id="ytick_4">
     <g id="line2d_10">
      <g>
       <use style="stroke:#000000;stroke-width:0.8;" x="57.6" xlink:href="#md7f4cb0f2e" y="175.732535"/>
      </g>
     </g>
     <g id="text_9">
      <!-- 0 -->
      <g transform="translate(44.2375 179.531754)scale(0.1 -0.1)">
       <use xlink:href="#DejaVuSans-48"/>
      </g>
     </g>
    </g>
    <g id="ytick_5">
     <g id="line2d_11">
      <g>
       <use style="stroke:#000000;stroke-width:0.8;" x="57.6" xlink:href="#md7f4cb0f2e" y="142.572595"/>
      </g>
     </g>
     <g id="text_10">
      <!-- 200 -->
      <g transform="translate(31.5125 146.371814)scale(0.1 -0.1)">
       <use xlink:href="#DejaVuSans-50"/>
       <use x="63.623047" xlink:href="#DejaVuSans-48"/>
       <use x="127.246094" xlink:href="#DejaVuSans-48"/>
      </g>
     </g>
    </g>
    <g id="ytick_6">
     <g id="line2d_12">
      <g>
       <use style="stroke:#000000;stroke-width:0.8;" x="57.6" xlink:href="#md7f4cb0f2e" y="109.412655"/>
      </g>
     </g>
     <g id="text_11">
      <!-- 400 -->
      <g transform="translate(31.5125 113.211874)scale(0.1 -0.1)">
       <use xlink:href="#DejaVuSans-52"/>
       <use x="63.623047" xlink:href="#DejaVuSans-48"/>
       <use x="127.246094" xlink:href="#DejaVuSans-48"/>
      </g>
     </g>
    </g>
    <g id="ytick_7">
     <g id="line2d_13">
      <g>
       <use style="stroke:#000000;stroke-width:0.8;" x="57.6" xlink:href="#md7f4cb0f2e" y="76.252715"/>
      </g>
     </g>
     <g id="text_12">
      <!-- 600 -->
      <g transform="translate(31.5125 80.051934)scale(0.1 -0.1)">
       <use xlink:href="#DejaVuSans-54"/>
       <use x="63.623047" xlink:href="#DejaVuSans-48"/>
       <use x="127.246094" xlink:href="#DejaVuSans-48"/>
      </g>
     </g>
    </g>
    <g id="ytick_8">
     <g id="line2d_14">
      <g>
       <use style="stroke:#000000;stroke-width:0.8;" x="57.6" xlink:href="#md7f4cb0f2e" y="43.092775"/>
      </g>
     </g>
     <g id="text_13">
      <!-- 800 -->
      <defs>
       <path d="M 31.78125 34.625 
Q 24.75 34.625 20.71875 30.859375 
Q 16.703125 27.09375 16.703125 20.515625 
Q 16.703125 13.921875 20.71875 10.15625 
Q 24.75 6.390625 31.78125 6.390625 
Q 38.8125 6.390625 42.859375 10.171875 
Q 46.921875 13.96875 46.921875 20.515625 
Q 46.921875 27.09375 42.890625 30.859375 
Q 38.875 34.625 31.78125 34.625 
z
M 21.921875 38.8125 
Q 15.578125 40.375 12.03125 44.71875 
Q 8.5 49.078125 8.5 55.328125 
Q 8.5 64.0625 14.71875 69.140625 
Q 20.953125 74.21875 31.78125 74.21875 
Q 42.671875 74.21875 48.875 69.140625 
Q 55.078125 64.0625 55.078125 55.328125 
Q 55.078125 49.078125 51.53125 44.71875 
Q 48 40.375 41.703125 38.8125 
Q 48.828125 37.15625 52.796875 32.3125 
Q 56.78125 27.484375 56.78125 20.515625 
Q 56.78125 9.90625 50.3125 4.234375 
Q 43.84375 -1.421875 31.78125 -1.421875 
Q 19.734375 -1.421875 13.25 4.234375 
Q 6.78125 9.90625 6.78125 20.515625 
Q 6.78125 27.484375 10.78125 32.3125 
Q 14.796875 37.15625 21.921875 38.8125 
z
M 18.3125 54.390625 
Q 18.3125 48.734375 21.84375 45.5625 
Q 25.390625 42.390625 31.78125 42.390625 
Q 38.140625 42.390625 41.71875 45.5625 
Q 45.3125 48.734375 45.3125 54.390625 
Q 45.3125 60.0625 41.71875 63.234375 
Q 38.140625 66.40625 31.78125 66.40625 
Q 25.390625 66.40625 21.84375 63.234375 
Q 18.3125 60.0625 18.3125 54.390625 
z
" id="DejaVuSans-56"/>
      </defs>
      <g transform="translate(31.5125 46.891994)scale(0.1 -0.1)">
       <use xlink:href="#DejaVuSans-56"/>
       <use x="63.623047" xlink:href="#DejaVuSans-48"/>
       <use x="127.246094" xlink:href="#DejaVuSans-48"/>
      </g>
     </g>
    </g>
   </g>
   <g id="line2d_15">
    <path clip-path="url(#p1ec578ad27)" d="M 78.463398 284.99336 
L 148.5423 290.154439 
L 333.830007 220.471898 
L 394.405085 248.963002 
L 319.930375 65.134423 
L 389.902719 212.804462 
L 388.910319 220.696947 
L 173.329279 250.112629 
L 172.587297 263.046701 
L 392.055207 266.748366 
L 304.782545 62.056868 
L 375.724689 275.886975 
L 376.341484 290.802696 
" style="fill:none;stroke:#ff0000;stroke-linecap:square;stroke-width:0.5;"/>
   </g>
   <g id="patch_3">
    <path d="M 57.6 307.584 
L 57.6 41.472 
" style="fill:none;stroke:#000000;stroke-linecap:square;stroke-linejoin:miter;stroke-width:0.8;"/>
   </g>
   <g id="patch_4">
    <path d="M 414.72 307.584 
L 414.72 41.472 
" style="fill:none;stroke:#000000;stroke-linecap:square;stroke-linejoin:miter;stroke-width:0.8;"/>
   </g>
   <g id="patch_5">
    <path d="M 57.6 307.584 
L 414.72 307.584 
" style="fill:none;stroke:#000000;stroke-linecap:square;stroke-linejoin:miter;stroke-width:0.8;"/>
   </g>
   <g id="patch_6">
    <path d="M 57.6 41.472 
L 414.72 41.472 
" style="fill:none;stroke:#000000;stroke-linecap:square;stroke-linejoin:miter;stroke-width:0.8;"/>
   </g>
   <g id="PathCollection_1">
    <defs>
     <path d="M 0 2.738613 
C 0.726289 2.738613 1.422928 2.450055 1.936492 1.936492 
C 2.450055 1.422928 2.738613 0.726289 2.738613 0 
C 2.738613 -0.726289 2.450055 -1.422928 1.936492 -1.936492 
C 1.422928 -2.450055 0.726289 -2.738613 0 -2.738613 
C -0.726289 -2.738613 -1.422928 -2.450055 -1.936492 -1.936492 
C -2.450055 -1.422928 -2.738613 -0.726289 -2.738613 0 
C -2.738613 0.726289 -2.450055 1.422928 -1.936492 1.936492 
C -1.422928 2.450055 -0.726289 2.738613 0 2.738613 
z
" id="m0771f2d558" style="stroke:#ff0000;"/>
    </defs>
    <g clip-path="url(#p1ec578ad27)">
     <use style="fill:#ff0000;stroke:#ff0000;" x="78.463398" xlink:href="#m0771f2d558" y="284.99336"/>
     <use style="fill:#ff0000;stroke:#ff0000;" x="148.5423" xlink:href="#m0771f2d558" y="290.154439"/>
     <use style="fill:#ff0000;stroke:#ff0000;" x="333.830007" xlink:href="#m0771f2d558" y="220.471898"/>
     <use style="fill:#ff0000;stroke:#ff0000;" x="394.405085" xlink:href="#m0771f2d558" y="248.963002"/>
     <use style="fill:#ff0000;stroke:#ff0000;" x="319.930375" xlink:href="#m0771f2d558" y="65.134423"/>
     <use style="fill:#ff0000;stroke:#ff0000;" x="389.902719" xlink:href="#m0771f2d558" y="212.804462"/>
     <use style="fill:#ff0000;stroke:#ff0000;" x="388.910319" xlink:href="#m0771f2d558" y="220.696947"/>
     <use style="fill:#ff0000;stroke:#ff0000;" x="173.329279" xlink:href="#m0771f2d558" y="250.112629"/>
     <use style="fill:#ff0000;stroke:#ff0000;" x="172.587297" xlink:href="#m0771f2d558" y="263.046701"/>
     <use style="fill:#ff0000;stroke:#ff0000;" x="392.055207" xlink:href="#m0771f2d558" y="266.748366"/>
     <use style="fill:#ff0000;stroke:#ff0000;" x="304.782545" xlink:href="#m0771f2d558" y="62.056868"/>
     <use style="fill:#ff0000;stroke:#ff0000;" x="375.724689" xlink:href="#m0771f2d558" y="275.886975"/>
     <use style="fill:#ff0000;stroke:#ff0000;" x="376.341484" xlink:href="#m0771f2d558" y="290.802696"/>
    </g>
   </g>
   <g id="text_14">
    <!-- (50) Subject: s27, Known = False, Degree = 1, Duration = 0.1 -->
    <defs>
     <path d="M 31 75.875 
Q 24.46875 64.65625 21.28125 53.65625 
Q 18.109375 42.671875 18.109375 31.390625 
Q 18.109375 20.125 21.3125 9.0625 
Q 24.515625 -2 31 -13.1875 
L 23.1875 -13.1875 
Q 15.875 -1.703125 12.234375 9.375 
Q 8.59375 20.453125 8.59375 31.390625 
Q 8.59375 42.28125 12.203125 53.3125 
Q 15.828125 64.359375 23.1875 75.875 
z
" id="DejaVuSans-40"/>
     <path d="M 10.796875 72.90625 
L 49.515625 72.90625 
L 49.515625 64.59375 
L 19.828125 64.59375 
L 19.828125 46.734375 
Q 21.96875 47.46875 24.109375 47.828125 
Q 26.265625 48.1875 28.421875 48.1875 
Q 40.625 48.1875 47.75 41.5 
Q 54.890625 34.8125 54.890625 23.390625 
Q 54.890625 11.625 47.5625 5.09375 
Q 40.234375 -1.421875 26.90625 -1.421875 
Q 22.3125 -1.421875 17.546875 -0.640625 
Q 12.796875 0.140625 7.71875 1.703125 
L 7.71875 11.625 
Q 12.109375 9.234375 16.796875 8.0625 
Q 21.484375 6.890625 26.703125 6.890625 
Q 35.15625 6.890625 40.078125 11.328125 
Q 45.015625 15.765625 45.015625 23.390625 
Q 45.015625 31 40.078125 35.4375 
Q 35.15625 39.890625 26.703125 39.890625 
Q 22.75 39.890625 18.8125 39.015625 
Q 14.890625 38.140625 10.796875 36.28125 
z
" id="DejaVuSans-53"/>
     <path d="M 8.015625 75.875 
L 15.828125 75.875 
Q 23.140625 64.359375 26.78125 53.3125 
Q 30.421875 42.28125 30.421875 31.390625 
Q 30.421875 20.453125 26.78125 9.375 
Q 23.140625 -1.703125 15.828125 -13.1875 
L 8.015625 -13.1875 
Q 14.5 -2 17.703125 9.0625 
Q 20.90625 20.125 20.90625 31.390625 
Q 20.90625 42.671875 17.703125 53.65625 
Q 14.5 64.65625 8.015625 75.875 
z
" id="DejaVuSans-41"/>
     <path id="DejaVuSans-32"/>
     <path d="M 53.515625 70.515625 
L 53.515625 60.890625 
Q 47.90625 63.578125 42.921875 64.890625 
Q 37.9375 66.21875 33.296875 66.21875 
Q 25.25 66.21875 20.875 63.09375 
Q 16.5 59.96875 16.5 54.203125 
Q 16.5 49.359375 19.40625 46.890625 
Q 22.3125 44.4375 30.421875 42.921875 
L 36.375 41.703125 
Q 47.40625 39.59375 52.65625 34.296875 
Q 57.90625 29 57.90625 20.125 
Q 57.90625 9.515625 50.796875 4.046875 
Q 43.703125 -1.421875 29.984375 -1.421875 
Q 24.8125 -1.421875 18.96875 -0.25 
Q 13.140625 0.921875 6.890625 3.21875 
L 6.890625 13.375 
Q 12.890625 10.015625 18.65625 8.296875 
Q 24.421875 6.59375 29.984375 6.59375 
Q 38.421875 6.59375 43.015625 9.90625 
Q 47.609375 13.234375 47.609375 19.390625 
Q 47.609375 24.75 44.3125 27.78125 
Q 41.015625 30.8125 33.5 32.328125 
L 27.484375 33.5 
Q 16.453125 35.6875 11.515625 40.375 
Q 6.59375 45.0625 6.59375 53.421875 
Q 6.59375 63.09375 13.40625 68.65625 
Q 20.21875 74.21875 32.171875 74.21875 
Q 37.3125 74.21875 42.625 73.28125 
Q 47.953125 72.359375 53.515625 70.515625 
z
" id="DejaVuSans-83"/>
     <path d="M 8.5 21.578125 
L 8.5 54.6875 
L 17.484375 54.6875 
L 17.484375 21.921875 
Q 17.484375 14.15625 20.5 10.265625 
Q 23.53125 6.390625 29.59375 6.390625 
Q 36.859375 6.390625 41.078125 11.03125 
Q 45.3125 15.671875 45.3125 23.6875 
L 45.3125 54.6875 
L 54.296875 54.6875 
L 54.296875 0 
L 45.3125 0 
L 45.3125 8.40625 
Q 42.046875 3.421875 37.71875 1 
Q 33.40625 -1.421875 27.6875 -1.421875 
Q 18.265625 -1.421875 13.375 4.4375 
Q 8.5 10.296875 8.5 21.578125 
z
M 31.109375 56 
z
" id="DejaVuSans-117"/>
     <path d="M 48.6875 27.296875 
Q 48.6875 37.203125 44.609375 42.84375 
Q 40.53125 48.484375 33.40625 48.484375 
Q 26.265625 48.484375 22.1875 42.84375 
Q 18.109375 37.203125 18.109375 27.296875 
Q 18.109375 17.390625 22.1875 11.75 
Q 26.265625 6.109375 33.40625 6.109375 
Q 40.53125 6.109375 44.609375 11.75 
Q 48.6875 17.390625 48.6875 27.296875 
z
M 18.109375 46.390625 
Q 20.953125 51.265625 25.265625 53.625 
Q 29.59375 56 35.59375 56 
Q 45.5625 56 51.78125 48.09375 
Q 58.015625 40.1875 58.015625 27.296875 
Q 58.015625 14.40625 51.78125 6.484375 
Q 45.5625 -1.421875 35.59375 -1.421875 
Q 29.59375 -1.421875 25.265625 0.953125 
Q 20.953125 3.328125 18.109375 8.203125 
L 18.109375 0 
L 9.078125 0 
L 9.078125 75.984375 
L 18.109375 75.984375 
z
" id="DejaVuSans-98"/>
     <path d="M 9.421875 54.6875 
L 18.40625 54.6875 
L 18.40625 -0.984375 
Q 18.40625 -11.421875 14.421875 -16.109375 
Q 10.453125 -20.796875 1.609375 -20.796875 
L -1.8125 -20.796875 
L -1.8125 -13.1875 
L 0.59375 -13.1875 
Q 5.71875 -13.1875 7.5625 -10.8125 
Q 9.421875 -8.453125 9.421875 -0.984375 
z
M 9.421875 75.984375 
L 18.40625 75.984375 
L 18.40625 64.59375 
L 9.421875 64.59375 
z
" id="DejaVuSans-106"/>
     <path d="M 56.203125 29.59375 
L 56.203125 25.203125 
L 14.890625 25.203125 
Q 15.484375 15.921875 20.484375 11.0625 
Q 25.484375 6.203125 34.421875 6.203125 
Q 39.59375 6.203125 44.453125 7.46875 
Q 49.3125 8.734375 54.109375 11.28125 
L 54.109375 2.78125 
Q 49.265625 0.734375 44.1875 -0.34375 
Q 39.109375 -1.421875 33.890625 -1.421875 
Q 20.796875 -1.421875 13.15625 6.1875 
Q 5.515625 13.8125 5.515625 26.8125 
Q 5.515625 40.234375 12.765625 48.109375 
Q 20.015625 56 32.328125 56 
Q 43.359375 56 49.78125 48.890625 
Q 56.203125 41.796875 56.203125 29.59375 
z
M 47.21875 32.234375 
Q 47.125 39.59375 43.09375 43.984375 
Q 39.0625 48.390625 32.421875 48.390625 
Q 24.90625 48.390625 20.390625 44.140625 
Q 15.875 39.890625 15.1875 32.171875 
z
" id="DejaVuSans-101"/>
     <path d="M 48.78125 52.59375 
L 48.78125 44.1875 
Q 44.96875 46.296875 41.140625 47.34375 
Q 37.3125 48.390625 33.40625 48.390625 
Q 24.65625 48.390625 19.8125 42.84375 
Q 14.984375 37.3125 14.984375 27.296875 
Q 14.984375 17.28125 19.8125 11.734375 
Q 24.65625 6.203125 33.40625 6.203125 
Q 37.3125 6.203125 41.140625 7.25 
Q 44.96875 8.296875 48.78125 10.40625 
L 48.78125 2.09375 
Q 45.015625 0.34375 40.984375 -0.53125 
Q 36.96875 -1.421875 32.421875 -1.421875 
Q 20.0625 -1.421875 12.78125 6.34375 
Q 5.515625 14.109375 5.515625 27.296875 
Q 5.515625 40.671875 12.859375 48.328125 
Q 20.21875 56 33.015625 56 
Q 37.15625 56 41.109375 55.140625 
Q 45.0625 54.296875 48.78125 52.59375 
z
" id="DejaVuSans-99"/>
     <path d="M 18.3125 70.21875 
L 18.3125 54.6875 
L 36.8125 54.6875 
L 36.8125 47.703125 
L 18.3125 47.703125 
L 18.3125 18.015625 
Q 18.3125 11.328125 20.140625 9.421875 
Q 21.96875 7.515625 27.59375 7.515625 
L 36.8125 7.515625 
L 36.8125 0 
L 27.59375 0 
Q 17.1875 0 13.234375 3.875 
Q 9.28125 7.765625 9.28125 18.015625 
L 9.28125 47.703125 
L 2.6875 47.703125 
L 2.6875 54.6875 
L 9.28125 54.6875 
L 9.28125 70.21875 
z
" id="DejaVuSans-116"/>
     <path d="M 11.71875 12.40625 
L 22.015625 12.40625 
L 22.015625 0 
L 11.71875 0 
z
M 11.71875 51.703125 
L 22.015625 51.703125 
L 22.015625 39.3125 
L 11.71875 39.3125 
z
" id="DejaVuSans-58"/>
     <path d="M 44.28125 53.078125 
L 44.28125 44.578125 
Q 40.484375 46.53125 36.375 47.5 
Q 32.28125 48.484375 27.875 48.484375 
Q 21.1875 48.484375 17.84375 46.4375 
Q 14.5 44.390625 14.5 40.28125 
Q 14.5 37.15625 16.890625 35.375 
Q 19.28125 33.59375 26.515625 31.984375 
L 29.59375 31.296875 
Q 39.15625 29.25 43.1875 25.515625 
Q 47.21875 21.78125 47.21875 15.09375 
Q 47.21875 7.46875 41.1875 3.015625 
Q 35.15625 -1.421875 24.609375 -1.421875 
Q 20.21875 -1.421875 15.453125 -0.5625 
Q 10.6875 0.296875 5.421875 2 
L 5.421875 11.28125 
Q 10.40625 8.6875 15.234375 7.390625 
Q 20.0625 6.109375 24.8125 6.109375 
Q 31.15625 6.109375 34.5625 8.28125 
Q 37.984375 10.453125 37.984375 14.40625 
Q 37.984375 18.0625 35.515625 20.015625 
Q 33.0625 21.96875 24.703125 23.78125 
L 21.578125 24.515625 
Q 13.234375 26.265625 9.515625 29.90625 
Q 5.8125 33.546875 5.8125 39.890625 
Q 5.8125 47.609375 11.28125 51.796875 
Q 16.75 56 26.8125 56 
Q 31.78125 56 36.171875 55.265625 
Q 40.578125 54.546875 44.28125 53.078125 
z
" id="DejaVuSans-115"/>
     <path d="M 8.203125 72.90625 
L 55.078125 72.90625 
L 55.078125 68.703125 
L 28.609375 0 
L 18.3125 0 
L 43.21875 64.59375 
L 8.203125 64.59375 
z
" id="DejaVuSans-55"/>
     <path d="M 11.71875 12.40625 
L 22.015625 12.40625 
L 22.015625 4 
L 14.015625 -11.625 
L 7.71875 -11.625 
L 11.71875 4 
z
" id="DejaVuSans-44"/>
     <path d="M 9.8125 72.90625 
L 19.671875 72.90625 
L 19.671875 42.09375 
L 52.390625 72.90625 
L 65.09375 72.90625 
L 28.90625 38.921875 
L 67.671875 0 
L 54.6875 0 
L 19.671875 35.109375 
L 19.671875 0 
L 9.8125 0 
z
" id="DejaVuSans-75"/>
     <path d="M 54.890625 33.015625 
L 54.890625 0 
L 45.90625 0 
L 45.90625 32.71875 
Q 45.90625 40.484375 42.875 44.328125 
Q 39.84375 48.1875 33.796875 48.1875 
Q 26.515625 48.1875 22.3125 43.546875 
Q 18.109375 38.921875 18.109375 30.90625 
L 18.109375 0 
L 9.078125 0 
L 9.078125 54.6875 
L 18.109375 54.6875 
L 18.109375 46.1875 
Q 21.34375 51.125 25.703125 53.5625 
Q 30.078125 56 35.796875 56 
Q 45.21875 56 50.046875 50.171875 
Q 54.890625 44.34375 54.890625 33.015625 
z
" id="DejaVuSans-110"/>
     <path d="M 30.609375 48.390625 
Q 23.390625 48.390625 19.1875 42.75 
Q 14.984375 37.109375 14.984375 27.296875 
Q 14.984375 17.484375 19.15625 11.84375 
Q 23.34375 6.203125 30.609375 6.203125 
Q 37.796875 6.203125 41.984375 11.859375 
Q 46.1875 17.53125 46.1875 27.296875 
Q 46.1875 37.015625 41.984375 42.703125 
Q 37.796875 48.390625 30.609375 48.390625 
z
M 30.609375 56 
Q 42.328125 56 49.015625 48.375 
Q 55.71875 40.765625 55.71875 27.296875 
Q 55.71875 13.875 49.015625 6.21875 
Q 42.328125 -1.421875 30.609375 -1.421875 
Q 18.84375 -1.421875 12.171875 6.21875 
Q 5.515625 13.875 5.515625 27.296875 
Q 5.515625 40.765625 12.171875 48.375 
Q 18.84375 56 30.609375 56 
z
" id="DejaVuSans-111"/>
     <path d="M 4.203125 54.6875 
L 13.1875 54.6875 
L 24.421875 12.015625 
L 35.59375 54.6875 
L 46.1875 54.6875 
L 57.421875 12.015625 
L 68.609375 54.6875 
L 77.59375 54.6875 
L 63.28125 0 
L 52.6875 0 
L 40.921875 44.828125 
L 29.109375 0 
L 18.5 0 
z
" id="DejaVuSans-119"/>
     <path d="M 10.59375 45.40625 
L 73.1875 45.40625 
L 73.1875 37.203125 
L 10.59375 37.203125 
z
M 10.59375 25.484375 
L 73.1875 25.484375 
L 73.1875 17.1875 
L 10.59375 17.1875 
z
" id="DejaVuSans-61"/>
     <path d="M 9.8125 72.90625 
L 51.703125 72.90625 
L 51.703125 64.59375 
L 19.671875 64.59375 
L 19.671875 43.109375 
L 48.578125 43.109375 
L 48.578125 34.8125 
L 19.671875 34.8125 
L 19.671875 0 
L 9.8125 0 
z
" id="DejaVuSans-70"/>
     <path d="M 34.28125 27.484375 
Q 23.390625 27.484375 19.1875 25 
Q 14.984375 22.515625 14.984375 16.5 
Q 14.984375 11.71875 18.140625 8.90625 
Q 21.296875 6.109375 26.703125 6.109375 
Q 34.1875 6.109375 38.703125 11.40625 
Q 43.21875 16.703125 43.21875 25.484375 
L 43.21875 27.484375 
z
M 52.203125 31.203125 
L 52.203125 0 
L 43.21875 0 
L 43.21875 8.296875 
Q 40.140625 3.328125 35.546875 0.953125 
Q 30.953125 -1.421875 24.3125 -1.421875 
Q 15.921875 -1.421875 10.953125 3.296875 
Q 6 8.015625 6 15.921875 
Q 6 25.140625 12.171875 29.828125 
Q 18.359375 34.515625 30.609375 34.515625 
L 43.21875 34.515625 
L 43.21875 35.40625 
Q 43.21875 41.609375 39.140625 45 
Q 35.0625 48.390625 27.6875 48.390625 
Q 23 48.390625 18.546875 47.265625 
Q 14.109375 46.140625 10.015625 43.890625 
L 10.015625 52.203125 
Q 14.9375 54.109375 19.578125 55.046875 
Q 24.21875 56 28.609375 56 
Q 40.484375 56 46.34375 49.84375 
Q 52.203125 43.703125 52.203125 31.203125 
z
" id="DejaVuSans-97"/>
     <path d="M 9.421875 75.984375 
L 18.40625 75.984375 
L 18.40625 0 
L 9.421875 0 
z
" id="DejaVuSans-108"/>
     <path d="M 19.671875 64.796875 
L 19.671875 8.109375 
L 31.59375 8.109375 
Q 46.6875 8.109375 53.6875 14.9375 
Q 60.6875 21.78125 60.6875 36.53125 
Q 60.6875 51.171875 53.6875 57.984375 
Q 46.6875 64.796875 31.59375 64.796875 
z
M 9.8125 72.90625 
L 30.078125 72.90625 
Q 51.265625 72.90625 61.171875 64.09375 
Q 71.09375 55.28125 71.09375 36.53125 
Q 71.09375 17.671875 61.125 8.828125 
Q 51.171875 0 30.078125 0 
L 9.8125 0 
z
" id="DejaVuSans-68"/>
     <path d="M 45.40625 27.984375 
Q 45.40625 37.75 41.375 43.109375 
Q 37.359375 48.484375 30.078125 48.484375 
Q 22.859375 48.484375 18.828125 43.109375 
Q 14.796875 37.75 14.796875 27.984375 
Q 14.796875 18.265625 18.828125 12.890625 
Q 22.859375 7.515625 30.078125 7.515625 
Q 37.359375 7.515625 41.375 12.890625 
Q 45.40625 18.265625 45.40625 27.984375 
z
M 54.390625 6.78125 
Q 54.390625 -7.171875 48.1875 -13.984375 
Q 42 -20.796875 29.203125 -20.796875 
Q 24.46875 -20.796875 20.265625 -20.09375 
Q 16.0625 -19.390625 12.109375 -17.921875 
L 12.109375 -9.1875 
Q 16.0625 -11.328125 19.921875 -12.34375 
Q 23.78125 -13.375 27.78125 -13.375 
Q 36.625 -13.375 41.015625 -8.765625 
Q 45.40625 -4.15625 45.40625 5.171875 
L 45.40625 9.625 
Q 42.625 4.78125 38.28125 2.390625 
Q 33.9375 0 27.875 0 
Q 17.828125 0 11.671875 7.65625 
Q 5.515625 15.328125 5.515625 27.984375 
Q 5.515625 40.671875 11.671875 48.328125 
Q 17.828125 56 27.875 56 
Q 33.9375 56 38.28125 53.609375 
Q 42.625 51.21875 45.40625 46.390625 
L 45.40625 54.6875 
L 54.390625 54.6875 
z
" id="DejaVuSans-103"/>
     <path d="M 41.109375 46.296875 
Q 39.59375 47.171875 37.8125 47.578125 
Q 36.03125 48 33.890625 48 
Q 26.265625 48 22.1875 43.046875 
Q 18.109375 38.09375 18.109375 28.8125 
L 18.109375 0 
L 9.078125 0 
L 9.078125 54.6875 
L 18.109375 54.6875 
L 18.109375 46.1875 
Q 20.953125 51.171875 25.484375 53.578125 
Q 30.03125 56 36.53125 56 
Q 37.453125 56 38.578125 55.875 
Q 39.703125 55.765625 41.0625 55.515625 
z
" id="DejaVuSans-114"/>
     <path d="M 12.40625 8.296875 
L 28.515625 8.296875 
L 28.515625 63.921875 
L 10.984375 60.40625 
L 10.984375 69.390625 
L 28.421875 72.90625 
L 38.28125 72.90625 
L 38.28125 8.296875 
L 54.390625 8.296875 
L 54.390625 0 
L 12.40625 0 
z
" id="DejaVuSans-49"/>
     <path d="M 9.421875 54.6875 
L 18.40625 54.6875 
L 18.40625 0 
L 9.421875 0 
z
M 9.421875 75.984375 
L 18.40625 75.984375 
L 18.40625 64.59375 
L 9.421875 64.59375 
z
" id="DejaVuSans-105"/>
     <path d="M 10.6875 12.40625 
L 21 12.40625 
L 21 0 
L 10.6875 0 
z
" id="DejaVuSans-46"/>
    </defs>
    <g transform="translate(49.741875 35.472)scale(0.12 -0.12)">
     <use xlink:href="#DejaVuSans-40"/>
     <use x="39.013672" xlink:href="#DejaVuSans-53"/>
     <use x="102.636719" xlink:href="#DejaVuSans-48"/>
     <use x="166.259766" xlink:href="#DejaVuSans-41"/>
     <use x="205.273438" xlink:href="#DejaVuSans-32"/>
     <use x="237.060547" xlink:href="#DejaVuSans-83"/>
     <use x="300.537109" xlink:href="#DejaVuSans-117"/>
     <use x="363.916016" xlink:href="#DejaVuSans-98"/>
     <use x="427.392578" xlink:href="#DejaVuSans-106"/>
     <use x="455.175781" xlink:href="#DejaVuSans-101"/>
     <use x="516.699219" xlink:href="#DejaVuSans-99"/>
     <use x="571.679688" xlink:href="#DejaVuSans-116"/>
     <use x="610.888672" xlink:href="#DejaVuSans-58"/>
     <use x="644.580078" xlink:href="#DejaVuSans-32"/>
     <use x="676.367188" xlink:href="#DejaVuSans-115"/>
     <use x="728.466797" xlink:href="#DejaVuSans-50"/>
     <use x="792.089844" xlink:href="#DejaVuSans-55"/>
     <use x="855.712891" xlink:href="#DejaVuSans-44"/>
     <use x="887.5" xlink:href="#DejaVuSans-32"/>
     <use x="919.287109" xlink:href="#DejaVuSans-75"/>
     <use x="984.863281" xlink:href="#DejaVuSans-110"/>
     <use x="1048.242188" xlink:href="#DejaVuSans-111"/>
     <use x="1109.423828" xlink:href="#DejaVuSans-119"/>
     <use x="1191.210938" xlink:href="#DejaVuSans-110"/>
     <use x="1254.589844" xlink:href="#DejaVuSans-32"/>
     <use x="1286.376953" xlink:href="#DejaVuSans-61"/>
     <use x="1370.166016" xlink:href="#DejaVuSans-32"/>
     <use x="1401.953125" xlink:href="#DejaVuSans-70"/>
     <use x="1459.332031" xlink:href="#DejaVuSans-97"/>
     <use x="1520.611328" xlink:href="#DejaVuSans-108"/>
     <use x="1548.394531" xlink:href="#DejaVuSans-115"/>
     <use x="1600.494141" xlink:href="#DejaVuSans-101"/>
     <use x="1662.017578" xlink:href="#DejaVuSans-44"/>
     <use x="1693.804688" xlink:href="#DejaVuSans-32"/>
     <use x="1725.591797" xlink:href="#DejaVuSans-68"/>
     <use x="1802.59375" xlink:href="#DejaVuSans-101"/>
     <use x="1864.117188" xlink:href="#DejaVuSans-103"/>
     <use x="1927.59375" xlink:href="#DejaVuSans-114"/>
     <use x="1968.675781" xlink:href="#DejaVuSans-101"/>
     <use x="2030.199219" xlink:href="#DejaVuSans-101"/>
     <use x="2091.722656" xlink:href="#DejaVuSans-32"/>
     <use x="2123.509766" xlink:href="#DejaVuSans-61"/>
     <use x="2207.298828" xlink:href="#DejaVuSans-32"/>
     <use x="2239.085938" xlink:href="#DejaVuSans-49"/>
     <use x="2302.708984" xlink:href="#DejaVuSans-44"/>
     <use x="2334.496094" xlink:href="#DejaVuSans-32"/>
     <use x="2366.283203" xlink:href="#DejaVuSans-68"/>
     <use x="2443.285156" xlink:href="#DejaVuSans-117"/>
     <use x="2506.664062" xlink:href="#DejaVuSans-114"/>
     <use x="2547.777344" xlink:href="#DejaVuSans-97"/>
     <use x="2609.056641" xlink:href="#DejaVuSans-116"/>
     <use x="2648.265625" xlink:href="#DejaVuSans-105"/>
     <use x="2676.048828" xlink:href="#DejaVuSans-111"/>
     <use x="2737.230469" xlink:href="#DejaVuSans-110"/>
     <use x="2800.609375" xlink:href="#DejaVuSans-32"/>
     <use x="2832.396484" xlink:href="#DejaVuSans-61"/>
     <use x="2916.185547" xlink:href="#DejaVuSans-32"/>
     <use x="2947.972656" xlink:href="#DejaVuSans-48"/>
     <use x="3011.595703" xlink:href="#DejaVuSans-46"/>
     <use x="3043.382812" xlink:href="#DejaVuSans-49"/>
    </g>
   </g>
  </g>
 </g>
 <defs>
  <clipPath id="p1ec578ad27">
   <rect height="266.112" width="357.12" x="57.6" y="41.472"/>
  </clipPath>
 </defs>
</svg>
