<?xml version="1.0" encoding="utf-8" standalone="no"?>
<!DOCTYPE svg PUBLIC "-//W3C//DTD SVG 1.1//EN"
  "http://www.w3.org/Graphics/SVG/1.1/DTD/svg11.dtd">
<!-- Created with matplotlib (https://matplotlib.org/) -->
<svg height="345.6pt" version="1.1" viewBox="0 0 460.8 345.6" width="460.8pt" xmlns="http://www.w3.org/2000/svg" xmlns:xlink="http://www.w3.org/1999/xlink">
 <defs>
  <style type="text/css">
*{stroke-linecap:butt;stroke-linejoin:round;}
  </style>
 </defs>
 <g id="figure_1">
  <g id="patch_1">
   <path d="M 0 345.6 
L 460.8 345.6 
L 460.8 0 
L 0 0 
z
" style="fill:#ffffff;"/>
  </g>
  <g id="axes_1">
   <g id="patch_2">
    <path d="M 57.6 307.584 
L 414.72 307.584 
L 414.72 41.472 
L 57.6 41.472 
z
" style="fill:#ffffff;"/>
   </g>
   <g id="line2d_1">
    <path clip-path="url(#p089b351048)" d="M 74.866991 295.488 
L 74.866991 294.88853 
L 74.607635 294.292427 
L 74.348278 294.292427 
L 74.218599 294.588794 
L 74.348278 294.588794 
L 74.737313 294.292427 
L 75.123185 294.292427 
L 74.866991 294.292427 
L 74.737313 293.992692 
L 74.866991 293.692956 
L 75.123185 293.692956 
L 75.252864 293.992692 
L 75.252864 294.292427 
L 74.993507 294.292427 
L 74.866991 294.588794 
L 75.123185 294.588794 
L 74.993507 294.292427 
L 74.866991 294.588794 
L 74.737313 295.188265 
L 74.348278 295.488 
L 74.993507 294.88853 
L 75.123185 293.992692 
L 74.993507 293.992692 
L 74.866991 294.88853 
L 74.993507 294.588794 
L 74.866991 294.292427 
L 74.607635 294.588794 
L 74.737313 294.588794 
L 74.993507 294.588794 
L 74.737313 294.588794 
L 74.993507 294.292427 
L 75.252864 294.292427 
L 74.866991 294.292427 
L 74.866991 294.88853 
L 74.737313 294.88853 
L 74.737313 294.588794 
L 75.123185 294.292427 
L 75.252864 293.992692 
L 75.123185 293.692956 
L 74.866991 294.292427 
L 74.737313 294.292427 
L 74.737313 293.692956 
L 74.866991 293.093486 
L 74.866991 293.393221 
L 74.993507 293.692956 
L 75.252864 293.992692 
L 75.252864 293.992692 
L 74.866991 293.992692 
L 74.607635 293.692956 
L 74.607635 293.093486 
L 74.866991 293.093486 
L 75.123185 293.393221 
L 74.993507 293.692956 
L 74.607635 293.692956 
L 74.477956 293.992692 
L 74.607635 294.292427 
L 74.737313 293.992692 
L 74.477956 292.19428 
L 74.477956 292.494016 
L 74.348278 292.494016 
L 74.218599 291.894545 
L 73.962406 291.59481 
L 74.088921 291.59481 
L 74.218599 292.494016 
L 74.477956 292.793751 
L 74.737313 292.793751 
L 74.737313 293.692956 
L 74.737313 293.692956 
L 74.477956 293.093486 
L 73.962406 292.19428 
L 73.962406 292.793751 
L 73.832727 293.393221 
L 73.832727 293.393221 
L 74.348278 292.793751 
L 73.832727 293.992692 
L 73.832727 293.992692 
L 73.832727 292.793751 
L 74.088921 292.494016 
L 74.218599 291.894545 
L 74.088921 292.494016 
L 74.218599 292.793751 
L 74.348278 292.494016 
L 73.962406 292.494016 
L 73.832727 292.19428 
L 73.962406 291.894545 
L 74.218599 291.59481 
L 74.477956 290.998707 
L 74.737313 290.998707 
L 74.993507 291.59481 
L 74.993507 292.494016 
L 74.866991 293.093486 
L 74.866991 293.093486 
L 74.477956 292.19428 
L 74.477956 292.19428 
L 74.477956 293.992692 
L 74.477956 293.992692 
L 74.348278 292.494016 
L 74.737313 292.793751 
L 74.866991 292.793751 
L 74.737313 292.494016 
L 74.348278 292.494016 
L 74.218599 293.093486 
L 74.477956 293.393221 
L 74.737313 292.793751 
L 74.737313 292.793751 
L 74.348278 293.093486 
L 74.218599 292.494016 
L 74.218599 291.894545 
L 74.218599 291.894545 
L 74.348278 292.19428 
L 74.737313 292.494016 
L 74.993507 292.494016 
L 74.993507 292.494016 
L 74.866991 291.894545 
L 74.866991 292.19428 
L 74.607635 293.093486 
L 74.477956 293.093486 
L 74.607635 293.093486 
L 74.737313 293.393221 
L 74.866991 293.093486 
L 74.866991 293.093486 
L 74.607635 291.894545 
L 74.477956 291.894545 
L 74.607635 292.19428 
L 74.477956 291.894545 
L 74.218599 291.59481 
L 74.218599 291.298443 
L 74.607635 290.698972 
L 74.866991 289.500031 
L 74.737313 289.500031 
L 74.993507 291.298443 
L 75.123185 290.998707 
L 74.993507 290.399237 
L 75.51222 289.799766 
L 75.51222 289.799766 
L 75.123185 289.799766 
L 74.607635 289.500031 
L 74.477956 289.799766 
L 74.607635 290.399237 
L 74.866991 290.399237 
L 75.123185 289.500031 
L 75.123185 288.004723 
L 75.123185 288.900561 
L 75.252864 288.600826 
L 75.382542 288.600826 
L 75.252864 288.304458 
L 74.866991 288.004723 
L 74.477956 288.600826 
L 74.737313 288.900561 
L 75.382542 289.200296 
L 75.382542 289.200296 
L 75.51222 289.200296 
L 76.157449 288.900561 
L 76.932357 288.004723 
L 83.523813 282.313122 
L 87.015641 280.218343 
L 91.538569 277.823829 
L 102.782633 270.936655 
L 109.244411 267.94267 
L 142.976602 255.367262 
L 152.281816 252.073543 
L 161.327673 248.483456 
L 170.117336 244.590266 
L 179.163193 240.097605 
L 188.082535 235.308577 
L 196.612841 231.415387 
L 205.143148 228.121668 
L 221.685047 220.938126 
L 236.547454 214.050951 
L 250.634953 208.662453 
L 257.485766 205.668469 
L 264.206901 202.075014 
L 270.795195 199.081029 
L 277.130458 196.683148 
L 283.073523 193.988898 
L 288.630715 191.294649 
L 293.672357 189.499606 
L 298.584321 188.00093 
L 307.759857 185.606416 
L 318.48837 182.312696 
L 321.717677 181.413491 
L 324.561113 180.817388 
L 328.049777 180.817388 
L 329.343398 181.117123 
L 330.247984 182.012961 
L 330.637019 183.211902 
L 330.377662 184.407475 
L 328.954363 188.6004 
L 328.179456 190.099076 
L 326.499963 192.49359 
L 325.984412 193.988898 
L 325.33602 194.888104 
L 324.690791 195.187839 
L 324.301756 195.187839 
L 323.915884 196.087045 
L 323.39717 196.683148 
L 323.140976 198.181824 
L 322.88162 197.882089 
L 322.622263 197.882089 
L 322.236391 198.481559 
L 321.587999 201.175808 
L 320.813092 201.175808 
L 320.424056 201.775279 
L 320.297541 203.270587 
L 320.297541 204.769263 
L 320.167863 205.368733 
L 319.649149 205.368733 
L 319.133599 204.769263 
L 318.874242 204.169792 
L 318.48837 202.970852 
L 318.229013 203.570322 
L 317.969656 204.469528 
L 317.583784 204.769263 
L 317.194749 204.469528 
L 317.06507 204.169792 
L 316.676035 205.668469 
L 316.290163 205.964836 
L 316.290163 205.368733 
L 316.030806 205.668469 
L 315.515256 205.668469 
L 315.644934 205.668469 
L 315.644934 205.368733 
L 315.255899 205.368733 
L 315.126221 206.264571 
L 315.126221 205.964836 
L 314.996542 205.068998 
L 314.61067 204.469528 
L 314.351313 204.769263 
L 314.221635 206.264571 
L 314.351313 208.362718 
L 314.221635 206.264571 
L 313.057692 206.264571 
L 312.542142 206.564306 
L 312.412463 205.964836 
L 311.896913 205.964836 
L 311.896913 205.668469 
L 312.023428 205.964836 
L 312.023428 206.264571 
L 311.637556 206.264571 
L 311.507878 206.564306 
L 311.507878 206.864042 
L 311.248521 206.264571 
L 311.378199 205.964836 
L 311.637556 205.668469 
L 311.767234 204.769263 
L 311.248521 204.169792 
L 310.73297 204.469528 
L 310.473614 205.964836 
L 310.343935 204.769263 
L 310.603292 202.671116 
L 310.473614 202.671116 
L 310.343935 202.970852 
L 310.343935 203.570322 
L 310.603292 203.270587 
L 310.214257 203.870057 
L 309.958063 205.068998 
L 309.698706 205.668469 
L 309.43935 205.068998 
L 309.053477 203.270587 
L 308.923799 203.270587 
L 308.923799 203.870057 
L 308.794121 203.570322 
L 308.275407 203.270587 
L 307.889535 203.270587 
L 307.889535 203.570322 
L 308.148892 203.270587 
L 308.275407 202.374749 
L 308.148892 202.374749 
L 307.759857 202.671116 
L 307.244306 202.075014 
L 307.114628 201.175808 
L 306.855271 200.576338 
L 306.595914 200.576338 
L 306.595914 201.175808 
L 306.725592 201.775279 
L 306.595914 200.876073 
L 305.950685 200.276602 
L 305.950685 200.576338 
L 305.691328 200.876073 
L 305.56165 200.576338 
L 305.691328 199.677132 
L 305.950685 199.081029 
L 306.210042 198.781294 
L 306.595914 198.781294 
L 307.5005 198.181824 
L 308.794121 196.683148 
L 310.343935 195.187839 
L 312.282785 193.988898 
L 317.324427 191.294649 
L 320.683413 189.499606 
L 324.301756 187.701194 
L 328.049777 185.606416 
L 342.65599 176.924198 
L 347.438275 173.930213 
L 352.090882 170.636494 
L 356.484132 167.942245 
L 365.144117 164.34879 
L 369.148332 161.954276 
L 375.999146 158.061086 
L 378.583224 156.862145 
L 383.36551 155.067102 
L 385.434038 154.167896 
L 387.243209 153.571793 
L 388.922702 152.372852 
L 390.605358 151.473647 
L 392.544208 150.577809 
L 394.223701 149.978338 
L 395.257965 149.079133 
L 396.032872 148.179927 
L 396.548423 146.984354 
L 398.101401 144.886208 
L 398.487273 144.886208 
L 397.582687 144.886208 
L 397.067136 145.185943 
L 396.418745 144.586472 
L 396.032872 144.290105 
L 395.643837 144.586472 
L 395.38448 144.586472 
L 394.998608 144.290105 
L 394.609573 143.390899 
L 394.609573 143.091164 
L 394.353379 143.091164 
L 394.353379 143.091164 
L 394.353379 142.191958 
L 394.223701 142.491694 
L 394.353379 143.091164 
L 394.094023 143.390899 
L 393.575309 143.390899 
L 393.319115 142.791429 
L 393.319115 141.296121 
L 393.189437 140.996385 
L 392.93008 140.996385 
L 392.284851 140.09718 
L 391.895816 138.002401 
L 392.155173 137.702666 
L 392.155173 137.40293 
L 391.895816 137.702666 
L 391.636459 138.302136 
L 391.380265 138.598504 
L 390.99123 136.503725 
L 390.99123 136.20399 
L 390.346001 135.604519 
L 390.346001 135.904254 
L 390.346001 135.604519 
L 390.086645 134.408946 
L 389.441416 134.408946 
L 389.441416 133.50974 
L 389.052381 131.714697 
L 388.922702 132.014432 
L 388.666508 132.91027 
L 388.666508 131.414962 
L 388.018116 130.815491 
L 387.888438 130.815491 
L 387.761923 131.115226 
L 387.761923 131.115226 
L 387.761923 130.815491 
L 387.888438 130.515756 
L 388.018116 130.515756 
L 388.018116 130.216021 
L 387.761923 130.216021 
L 387.502566 129.61655 
L 387.888438 129.020448 
L 387.761923 128.720713 
L 387.502566 128.720713 
L 387.243209 128.121242 
L 386.59798 127.521772 
L 386.468302 128.121242 
L 386.59798 128.121242 
L 386.59798 127.821507 
L 386.983852 126.922301 
L 386.983852 126.922301 
L 386.983852 128.121242 
L 386.468302 126.922301 
L 386.468302 127.222036 
L 386.727659 127.521772 
L 386.983852 127.521772 
L 386.983852 127.222036 
L 386.468302 127.222036 
L 386.208945 126.922301 
L 386.208945 126.322831 
L 386.338623 126.622566 
L 386.338623 127.521772 
L 386.208945 127.821507 
L 386.208945 126.922301 
L 386.338623 126.026463 
L 386.59798 124.827523 
L 386.338623 125.426993 
L 385.952751 126.622566 
L 385.823073 127.521772 
L 386.079267 127.521772 
L 386.079267 127.521772 
L 386.208945 128.121242 
L 386.468302 128.121242 
L 386.338623 127.521772 
L 386.079267 126.922301 
L 386.079267 127.222036 
L 386.079267 127.222036 
L 385.823073 126.322831 
L 385.563716 126.322831 
L 385.563716 126.026463 
L 385.563716 126.026463 
L 385.693394 126.322831 
L 385.823073 126.922301 
L 385.952751 126.922301 
L 385.952751 126.922301 
L 385.823073 127.521772 
L 385.563716 127.821507 
L 385.304359 127.521772 
L 385.434038 127.521772 
L 385.563716 127.521772 
L 385.823073 127.222036 
L 385.952751 126.322831 
L 385.952751 126.026463 
L 385.693394 125.426993 
L 385.563716 125.426993 
L 385.434038 126.026463 
L 385.434038 126.622566 
L 385.563716 127.521772 
L 385.563716 127.222036 
L 385.563716 126.322831 
L 385.434038 126.322831 
L 385.304359 126.922301 
L 384.918487 127.222036 
L 384.788809 127.222036 
L 384.788809 127.222036 
L 384.788809 126.922301 
L 384.65913 126.026463 
L 384.788809 125.726728 
L 384.65913 126.322831 
L 384.399774 126.322831 
L 384.399774 125.426993 
L 384.529452 125.726728 
L 384.529452 126.322831 
L 384.65913 126.622566 
L 384.65913 126.322831 
L 384.529452 126.026463 
L 384.270095 126.026463 
L 384.270095 126.026463 
L 384.399774 126.322831 
L 384.529452 126.322831 
L 384.788809 125.726728 
L 384.788809 125.726728 
L 384.788809 125.127258 
L 384.918487 124.827523 
L 384.918487 125.426993 
L 384.65913 126.922301 
L 384.529452 126.622566 
L 384.270095 126.322831 
L 384.013901 126.622566 
L 384.013901 126.622566 
L 384.270095 126.622566 
L 384.013901 126.622566 
L 383.884223 126.922301 
L 383.754545 126.922301 
L 383.624866 127.222036 
L 383.624866 127.222036 
L 383.624866 127.521772 
L 383.495188 127.821507 
L 383.495188 127.821507 
L 383.624866 127.222036 
L 383.884223 126.622566 
L 383.754545 126.622566 
L 383.36551 127.222036 
L 383.235831 128.420977 
L 383.36551 128.720713 
L 383.495188 128.420977 
L 383.624866 127.821507 
L 383.624866 127.222036 
L 383.495188 127.521772 
L 383.36551 127.222036 
L 383.36551 127.222036 
L 383.36551 127.521772 
L 383.495188 127.821507 
L 383.624866 127.521772 
L 383.624866 127.222036 
L 383.36551 126.622566 
L 383.495188 127.222036 
L 383.495188 127.821507 
L 383.36551 128.121242 
L 383.109316 128.420977 
L 383.109316 128.420977 
L 383.109316 128.121242 
L 383.235831 128.121242 
L 383.235831 128.121242 
L 383.109316 127.821507 
L 382.979637 127.821507 
L 382.979637 127.821507 
L 383.109316 127.521772 
L 383.36551 127.821507 
L 383.495188 128.420977 
L 383.624866 128.121242 
L 383.624866 127.821507 
L 383.754545 127.821507 
L 383.884223 128.420977 
L 383.754545 128.720713 
L 383.624866 129.316815 
L 383.495188 129.316815 
L 383.495188 129.316815 
L 383.235831 128.720713 
L 383.884223 128.121242 
L 384.013901 128.420977 
L 384.140417 129.020448 
L 384.013901 129.316815 
L 383.754545 128.720713 
L 383.754545 128.420977 
L 384.140417 128.420977 
L 383.495188 129.020448 
L 383.495188 129.020448 
L 383.495188 128.720713 
L 383.235831 128.720713 
L 383.235831 128.720713 
L 383.109316 129.916286 
L 383.109316 129.61655 
L 383.36551 129.316815 
L 383.624866 129.61655 
L 383.36551 129.61655 
L 383.235831 129.020448 
L 383.235831 127.521772 
L 383.36551 128.121242 
L 383.36551 129.020448 
L 383.109316 128.720713 
L 382.849959 129.020448 
L 382.590602 129.916286 
L 382.720281 130.515756 
L 382.849959 130.216021 
L 382.849959 129.61655 
L 382.720281 129.61655 
L 382.720281 130.815491 
L 382.720281 130.515756 
L 382.590602 130.216021 
L 382.590602 129.916286 
L 382.720281 130.216021 
L 382.979637 129.916286 
L 382.979637 128.720713 
L 382.849959 129.61655 
L 382.590602 130.515756 
L 382.460924 130.515756 
L 382.460924 130.216021 
L 382.331245 129.61655 
L 382.331245 129.020448 
L 382.20473 129.316815 
L 382.20473 129.916286 
L 382.331245 129.916286 
L 382.460924 129.61655 
L 382.460924 129.316815 
L 382.20473 129.316815 
L 382.20473 129.61655 
L 381.945373 130.216021 
L 381.945373 129.916286 
L 382.331245 129.916286 
L 382.720281 129.316815 
L 382.590602 129.316815 
L 382.460924 129.020448 
L 382.20473 129.316815 
L 382.590602 129.020448 
L 382.460924 128.720713 
L 382.20473 129.020448 
L 382.075052 129.916286 
L 381.945373 129.916286 
L 381.815695 129.61655 
L 381.815695 129.316815 
L 381.945373 129.61655 
L 382.20473 129.61655 
L 382.331245 130.515756 
L 382.20473 131.115226 
L 381.945373 130.515756 
L 381.815695 130.515756 
L 381.815695 129.316815 
L 381.686016 128.720713 
L 381.556338 129.020448 
L 381.815695 129.61655 
L 381.945373 129.61655 
L 381.815695 129.61655 
L 381.815695 129.916286 
L 381.945373 129.916286 
L 381.945373 129.61655 
L 381.686016 128.720713 
L 381.815695 129.020448 
L 381.945373 129.020448 
L 382.460924 130.216021 
L 382.849959 130.515756 
L 382.460924 129.916286 
L 382.20473 129.316815 
L 382.075052 129.61655 
L 382.20473 130.515756 
L 382.331245 130.515756 
L 382.460924 129.61655 
L 382.331245 129.61655 
L 382.075052 130.815491 
L 382.075052 131.414962 
L 382.075052 131.115226 
L 382.20473 130.815491 
L 382.075052 131.115226 
L 382.331245 130.216021 
L 382.460924 130.216021 
L 382.331245 130.515756 
L 382.20473 130.515756 
L 382.075052 130.815491 
L 382.20473 130.815491 
L 382.460924 130.515756 
L 382.720281 130.515756 
L 382.720281 130.815491 
L 382.460924 130.815491 
L 382.075052 130.515756 
L 381.945373 130.216021 
L 381.945373 129.916286 
L 382.075052 129.61655 
L 382.331245 129.316815 
L 382.460924 129.61655 
L 382.460924 131.714697 
L 382.331245 132.014432 
L 382.331245 131.714697 
L 382.075052 131.115226 
L 381.815695 131.115226 
L 381.815695 131.414962 
L 381.945373 131.414962 
L 382.331245 130.515756 
L 382.460924 129.916286 
L 382.460924 130.216021 
L 382.460924 131.414962 
L 382.331245 132.610535 
L 382.075052 132.3108 
L 382.20473 130.815491 
L 382.460924 130.216021 
L 382.590602 130.216021 
L 382.331245 130.216021 
L 382.075052 129.916286 
L 382.075052 130.216021 
L 382.20473 130.815491 
L 382.20473 131.414962 
L 382.20473 131.414962 
L 382.331245 130.815491 
L 382.20473 130.815491 
L 382.20473 131.714697 
L 382.460924 132.91027 
L 382.20473 132.610535 
L 381.815695 131.714697 
L 381.815695 131.115226 
L 382.075052 131.414962 
L 382.331245 131.414962 
L 382.331245 131.414962 
L 382.20473 131.714697 
L 382.075052 132.3108 
L 381.815695 132.3108 
L 381.815695 131.414962 
L 381.945373 131.414962 
L 381.815695 131.414962 
L 380.006523 132.014432 
L 377.292766 132.014432 
L 375.483595 132.610535 
L 373.15571 132.610535 
L 367.598517 133.210005 
L 360.361832 133.809476 
L 356.743489 134.408946 
L 348.472539 136.20399 
L 343.946448 137.103195 
L 335.030269 136.503725 
L 330.637019 137.103195 
L 326.499963 138.302136 
L 322.236391 139.197974 
L 318.099334 139.197974 
L 314.740348 138.898239 
L 311.378199 138.898239 
L 307.759857 139.197974 
L 304.271192 139.197974 
L 301.557435 138.898239 
L 296.515793 138.898239 
L 294.187908 138.598504 
L 291.863186 138.002401 
L 289.279107 137.702666 
L 286.691866 137.702666 
L 284.237465 137.103195 
L 281.912743 136.20399 
L 279.584858 136.503725 
L 277.386652 137.702666 
L 275.450965 138.898239 
L 273.638631 139.497709 
L 272.088816 139.797444 
L 271.18423 139.797444 
L 270.539001 140.396915 
L 269.634416 140.69665 
L 268.72983 140.09718 
L 268.72983 139.197974 
L 268.986024 138.898239 
L 269.115702 139.197974 
L 269.115702 139.197974 
L 271.313909 139.197974 
L 271.443587 138.898239 
L 271.443587 138.302136 
L 271.702944 138.302136 
L 272.348173 137.702666 
L 272.607529 138.302136 
L 272.607529 139.197974 
L 272.477851 140.09718 
L 271.959138 140.996385 
L 271.313909 141.892223 
L 271.443587 141.892223 
L 271.573265 141.592488 
L 271.443587 140.996385 
L 271.313909 140.996385 
L 271.313909 143.390899 
L 271.054552 142.791429 
L 271.443587 143.690634 
L 271.702944 143.690634 
L 271.573265 144.290105 
L 271.313909 144.290105 
L 270.924873 143.390899 
L 271.054552 143.690634 
L 271.18423 144.290105 
L 271.18423 145.185943 
L 271.054552 145.485678 
L 270.66868 145.785413 
L 270.409323 145.485678 
L 270.409323 145.185943 
L 270.539001 145.185943 
L 270.66868 145.785413 
L 270.539001 146.085148 
L 270.409323 145.785413 
L 270.409323 145.785413 
L 270.149966 145.485678 
L 269.890609 145.485678 
L 269.890609 146.085148 
L 270.409323 147.580457 
L 270.149966 147.580457 
L 269.890609 146.984354 
L 269.890609 146.684619 
L 269.890609 146.684619 
L 269.764094 146.984354 
L 269.764094 147.580457 
L 269.634416 147.580457 
L 269.24538 146.984354 
L 269.24538 147.880192 
L 269.24538 147.284089 
L 269.375059 146.984354 
L 269.375059 147.284089 
L 269.24538 147.880192 
L 268.600151 149.378868 
L 269.24538 148.479662 
L 269.375059 148.479662 
L 269.375059 148.479662 
L 269.115702 147.580457 
L 268.72983 147.580457 
L 268.72983 148.179927 
L 268.986024 148.479662 
L 269.115702 148.179927 
L 269.375059 147.880192 
L 269.375059 147.880192 
L 269.115702 148.479662 
L 268.986024 149.678603 
L 269.115702 149.678603 
L 269.375059 149.978338 
L 269.375059 149.978338 
L 268.986024 149.978338 
L 268.859508 149.678603 
L 268.72983 150.278074 
L 268.986024 150.577809 
L 269.504737 149.978338 
L 269.24538 150.278074 
L 268.986024 150.278074 
L 269.24538 149.378868 
L 269.24538 149.378868 
L 269.375059 149.978338 
L 269.375059 151.473647 
L 269.375059 150.874176 
L 269.504737 151.773382 
L 269.504737 151.173911 
L 269.504737 149.978338 
L 269.24538 150.577809 
L 268.859508 151.173911 
L 268.986024 151.173911 
L 269.115702 151.473647 
L 269.375059 151.473647 
L 269.634416 150.874176 
L 269.634416 150.874176 
L 269.634416 150.577809 
L 269.504737 150.278074 
L 269.375059 150.278074 
L 269.504737 149.978338 
L 270.020288 149.978338 
L 270.020288 150.278074 
L 269.634416 151.173911 
L 269.634416 151.473647 
L 270.020288 150.874176 
L 270.020288 150.278074 
L 269.764094 149.978338 
L 270.409323 149.378868 
L 270.539001 149.678603 
L 270.279644 150.577809 
L 270.66868 148.479662 
L 270.795195 148.179927 
L 270.409323 149.079133 
L 270.409323 148.779398 
L 270.924873 148.179927 
L 271.702944 148.179927 
L 271.829459 147.580457 
L 271.829459 146.984354 
L 271.702944 146.684619 
L 271.573265 146.984354 
L 271.573265 147.284089 
L 271.702944 146.684619 
L 271.573265 146.085148 
L 271.443587 146.384884 
L 271.573265 146.684619 
L 271.959138 146.984354 
L 272.348173 146.684619 
L 272.863723 145.785413 
L 272.993402 144.886208 
L 272.477851 143.690634 
L 272.477851 142.791429 
L 272.348173 142.791429 
L 272.218494 142.491694 
L 272.088816 142.491694 
L 271.959138 142.191958 
L 272.088816 141.892223 
L 272.607529 140.396915 
L 272.477851 140.09718 
L 272.348173 140.09718 
L 272.477851 139.797444 
L 272.348173 139.497709 
L 272.088816 139.497709 
L 272.088816 139.197974 
L 272.218494 138.302136 
L 272.088816 138.302136 
L 271.829459 138.898239 
L 271.959138 138.598504 
L 272.348173 138.002401 
L 272.088816 136.80346 
L 272.348173 135.904254 
L 272.348173 135.008417 
L 272.218494 135.008417 
L 272.218494 135.304784 
L 272.477851 135.604519 
L 272.348173 135.904254 
L 272.218494 135.904254 
L 271.959138 135.604519 
L 271.959138 135.008417 
L 272.218494 134.109211 
L 272.218494 134.109211 
L 271.959138 134.109211 
L 271.573265 134.708681 
L 271.829459 134.708681 
L 271.829459 133.809476 
L 271.702944 133.210005 
L 271.313909 132.91027 
L 271.054552 133.210005 
L 271.18423 132.91027 
L 271.18423 132.610535 
L 271.054552 132.91027 
L 271.054552 131.714697 
L 270.924873 131.714697 
L 271.054552 132.014432 
L 271.054552 131.714697 
L 270.924873 131.414962 
L 270.924873 131.714697 
L 271.18423 132.014432 
L 271.313909 131.714697 
L 271.313909 131.414962 
L 271.443587 131.115226 
L 271.18423 131.414962 
L 270.795195 132.3108 
L 270.795195 132.91027 
L 270.409323 132.014432 
L 270.409323 131.414962 
L 270.279644 131.115226 
L 270.279644 131.115226 
L 270.409323 131.115226 
L 270.66868 131.714697 
L 270.66868 132.610535 
L 270.539001 132.91027 
L 270.279644 132.610535 
L 270.409323 132.91027 
L 270.539001 132.610535 
L 271.18423 131.414962 
L 271.313909 131.115226 
L 271.313909 131.115226 
L 271.313909 132.91027 
L 271.18423 132.91027 
L 270.924873 131.115226 
L 271.054552 130.815491 
L 271.054552 130.815491 
L 271.443587 130.815491 
L 271.573265 131.115226 
L 271.573265 131.115226 
L 271.573265 130.815491 
L 271.702944 130.815491 
L 271.573265 131.115226 
L 271.573265 131.414962 
L 271.313909 131.714697 
L 270.924873 131.115226 
L 270.795195 130.515756 
L 271.18423 129.916286 
L 271.573265 129.61655 
L 271.829459 129.61655 
L 271.702944 129.916286 
L 271.573265 130.515756 
L 271.313909 131.115226 
L 271.18423 131.115226 
L 271.054552 130.815491 
L 271.18423 131.115226 
L 271.702944 132.014432 
L 271.573265 132.3108 
L 271.443587 132.014432 
L 271.443587 132.014432 
L 271.829459 131.714697 
L 271.829459 131.714697 
L 271.959138 132.014432 
L 271.573265 130.515756 
L 271.313909 129.316815 
L 271.702944 129.316815 
L 271.959138 129.916286 
L 272.088816 130.815491 
L 271.959138 131.115226 
L 271.573265 131.414962 
L 271.054552 130.815491 
L 270.795195 130.815491 
L 270.795195 131.714697 
L 270.924873 132.014432 
L 271.054552 132.014432 
L 271.054552 132.014432 
L 270.924873 132.3108 
L 271.054552 132.3108 
L 271.313909 132.610535 
L 271.573265 132.610535 
L 271.573265 132.3108 
L 270.924873 131.115226 
L 271.054552 131.414962 
L 271.18423 132.3108 
L 271.054552 132.91027 
L 270.795195 132.91027 
L 270.66868 132.014432 
L 270.795195 131.714697 
L 270.66868 132.3108 
L 270.66868 132.014432 
L 270.924873 131.714697 
L 271.054552 131.115226 
L 270.924873 130.815491 
L 271.054552 130.515756 
L 271.18423 130.515756 
L 271.313909 129.916286 
L 271.18423 129.916286 
L 271.18423 130.815491 
L 271.054552 131.115226 
L 270.924873 131.115226 
L 270.924873 130.815491 
L 271.054552 130.515756 
L 271.313909 130.216021 
L 271.313909 130.216021 
L 271.313909 130.515756 
L 271.054552 130.515756 
L 270.924873 130.216021 
L 271.313909 129.316815 
L 271.829459 129.020448 
L 271.573265 129.316815 
L 271.18423 129.316815 
L 271.443587 129.916286 
L 271.829459 130.515756 
L 271.829459 130.815491 
L 271.443587 131.115226 
L 271.18423 130.815491 
L 271.313909 130.815491 
L 271.443587 130.815491 
L 271.313909 130.815491 
L 271.18423 130.216021 
L 271.443587 129.61655 
L 271.443587 129.61655 
L 271.313909 130.216021 
L 271.443587 130.216021 
L 271.829459 129.916286 
L 271.702944 129.916286 
L 271.443587 129.61655 
L 271.18423 129.020448 
L 271.313909 128.420977 
L 271.573265 128.720713 
L 271.443587 129.61655 
L 271.18423 129.916286 
L 271.18423 130.216021 
L 271.443587 130.815491 
L 271.829459 131.115226 
L 271.829459 130.815491 
L 271.959138 130.515756 
L 271.959138 130.515756 
L 271.829459 129.916286 
L 271.829459 129.316815 
L 272.088816 128.720713 
L 272.348173 128.720713 
L 272.348173 129.61655 
L 272.088816 130.216021 
L 271.829459 129.916286 
L 271.829459 129.916286 
L 271.959138 130.515756 
L 272.218494 131.115226 
L 272.348173 131.115226 
L 272.218494 130.815491 
L 271.959138 131.414962 
L 272.088816 132.014432 
L 272.348173 132.014432 
L 272.348173 130.815491 
L 272.348173 130.815491 
L 272.734045 129.916286 
L 272.863723 129.316815 
L 272.863723 128.121242 
L 272.734045 127.821507 
L 272.477851 128.121242 
L 272.607529 128.720713 
L 272.863723 128.720713 
L 272.863723 128.121242 
L 272.477851 127.821507 
L 272.348173 127.521772 
L 272.477851 127.821507 
L 272.734045 128.121242 
L 273.252758 126.026463 
L 273.12308 126.322831 
L 272.734045 126.322831 
L 272.734045 126.026463 
L 273.12308 125.726728 
L 273.512115 124.827523 
L 273.382437 124.527787 
L 272.734045 123.628582 
L 272.607529 123.328846 
L 272.088816 122.732744 
L 271.573265 121.833538 
L 271.054552 120.334862 
L 270.66868 118.539819 
L 269.890609 116.744775 
L 268.859508 115.545834 
L 266.79098 111.952379 
L 265.627038 110.756806 
L 264.333417 108.958395 
L 263.172637 105.964411 
L 262.524245 102.970426 
L 262.138373 100.575912 
L 260.069845 93.089267 
L 259.940167 90.395018 
L 260.069845 87.700769 
L 260.069845 85.306255 
L 259.68081 75.724832 
L 259.68081 72.730847 
L 260.069845 66.742878 
L 260.329202 65.543938 
L 259.940167 62.549953 
L 259.940167 60.155439 
L 260.329202 58.06066 
L 260.974431 57.161455 
L 261.363466 56.86172 
L 260.974431 54.467206 
L 260.844752 54.16747 
L 260.585396 54.16747 
L 260.45888 53.568 
L 260.329202 53.568 
L 260.329202 53.867735 
L 260.069845 55.066676 
L 260.329202 55.066676 
L 260.715074 54.766941 
L 260.844752 54.467206 
L 260.199523 57.161455 
L 259.810488 57.760925 
L 259.551131 57.46119 
L 259.551131 57.161455 
L 259.424616 58.06066 
L 259.424616 59.555969 
L 259.165259 61.054645 
L 258.905903 61.35438 
L 259.294938 61.054645 
L 259.294938 60.455174 
L 259.035581 60.455174 
L 258.905903 60.75491 
L 258.905903 60.155439 
L 259.035581 60.155439 
L 259.035581 61.654115 
L 259.165259 61.950483 
L 259.165259 61.950483 
L 258.776224 61.654115 
L 258.646546 61.950483 
L 258.390352 61.950483 
L 258.390352 61.950483 
L 258.646546 62.549953 
L 258.776224 62.549953 
L 258.52003 62.250218 
L 257.871638 62.250218 
L 257.615445 61.950483 
L 257.615445 62.250218 
L 258.130995 63.149424 
L 257.74196 63.449159 
L 257.871638 63.449159 
L 258.130995 63.449159 
L 258.260674 63.748894 
L 257.871638 64.048629 
L 257.871638 64.048629 
L 257.74196 64.6481 
L 257.485766 64.944467 
L 257.096731 64.944467 
L 256.967053 65.543938 
L 257.096731 65.843673 
L 257.485766 65.244202 
L 257.615445 64.6481 
L 257.485766 64.6481 
L 257.096731 66.742878 
L 257.356088 66.443143 
L 257.356088 65.543938 
L 257.226409 65.244202 
L 256.451502 65.244202 
L 256.451502 65.543938 
L 256.710859 65.543938 
L 256.967053 65.843673 
L 256.710859 66.443143 
L 256.581181 65.843673 
L 256.710859 64.6481 
L 256.967053 64.348364 
L 256.967053 65.244202 
L 256.581181 66.143408 
L 256.451502 66.143408 
L 256.710859 66.143408 
L 256.581181 66.742878 
L 256.451502 66.443143 
L 256.192145 66.443143 
L 256.192145 66.443143 
L 256.192145 66.742878 
L 255.80311 68.238187 
L 256.062467 67.642084 
L 256.192145 67.342349 
L 256.062467 67.642084 
L 255.80311 68.837657 
L 255.417238 68.238187 
L 255.417238 68.238187 
L 255.417238 67.938451 
L 255.546916 68.238187 
L 255.546916 68.238187 
L 255.417238 68.537922 
L 255.157881 68.537922 
L 255.157881 67.938451 
L 255.28756 67.342349 
L 255.28756 66.742878 
L 255.28756 66.742878 
L 255.157881 67.342349 
L 254.512652 68.837657 
L 254.512652 68.837657 
L 254.772009 68.537922 
L 254.898525 67.642084 
L 255.157881 67.342349 
L 255.546916 67.342349 
L 255.157881 67.342349 
L 255.157881 68.537922 
L 254.772009 69.137392 
L 254.512652 68.837657 
L 254.512652 68.238187 
L 254.772009 67.642084 
L 255.028203 67.642084 
L 255.157881 67.342349 
L 255.157881 67.342349 
L 255.157881 68.238187 
L 255.157881 68.238187 
L 255.028203 68.537922 
L 254.772009 68.537922 
L 254.772009 68.537922 
L 254.772009 67.938451 
L 254.772009 67.938451 
L 254.898525 68.238187 
L 254.898525 68.238187 
L 254.772009 68.537922 
L 254.772009 68.837657 
L 254.898525 69.137392 
L 254.898525 69.137392 
" style="fill:none;stroke:#1f77b4;stroke-linecap:square;stroke-width:1.5;"/>
   </g>
   <g id="matplotlib.axis_1">
    <g id="xtick_1">
     <g id="line2d_2">
      <defs>
       <path d="M 0 0 
L 0 3.5 
" id="m63e01fb977" style="stroke:#000000;stroke-width:0.8;"/>
      </defs>
      <g>
       <use style="stroke:#000000;stroke-width:0.8;" x="75.116859" xlink:href="#m63e01fb977" y="307.584"/>
      </g>
     </g>
     <g id="text_1">
      <!-- −800 -->
      <defs>
       <path d="M 10.59375 35.5 
L 73.1875 35.5 
L 73.1875 27.203125 
L 10.59375 27.203125 
z
" id="DejaVuSans-8722"/>
       <path d="M 31.78125 34.625 
Q 24.75 34.625 20.71875 30.859375 
Q 16.703125 27.09375 16.703125 20.515625 
Q 16.703125 13.921875 20.71875 10.15625 
Q 24.75 6.390625 31.78125 6.390625 
Q 38.8125 6.390625 42.859375 10.171875 
Q 46.921875 13.96875 46.921875 20.515625 
Q 46.921875 27.09375 42.890625 30.859375 
Q 38.875 34.625 31.78125 34.625 
z
M 21.921875 38.8125 
Q 15.578125 40.375 12.03125 44.71875 
Q 8.5 49.078125 8.5 55.328125 
Q 8.5 64.0625 14.71875 69.140625 
Q 20.953125 74.21875 31.78125 74.21875 
Q 42.671875 74.21875 48.875 69.140625 
Q 55.078125 64.0625 55.078125 55.328125 
Q 55.078125 49.078125 51.53125 44.71875 
Q 48 40.375 41.703125 38.8125 
Q 48.828125 37.15625 52.796875 32.3125 
Q 56.78125 27.484375 56.78125 20.515625 
Q 56.78125 9.90625 50.3125 4.234375 
Q 43.84375 -1.421875 31.78125 -1.421875 
Q 19.734375 -1.421875 13.25 4.234375 
Q 6.78125 9.90625 6.78125 20.515625 
Q 6.78125 27.484375 10.78125 32.3125 
Q 14.796875 37.15625 21.921875 38.8125 
z
M 18.3125 54.390625 
Q 18.3125 48.734375 21.84375 45.5625 
Q 25.390625 42.390625 31.78125 42.390625 
Q 38.140625 42.390625 41.71875 45.5625 
Q 45.3125 48.734375 45.3125 54.390625 
Q 45.3125 60.0625 41.71875 63.234375 
Q 38.140625 66.40625 31.78125 66.40625 
Q 25.390625 66.40625 21.84375 63.234375 
Q 18.3125 60.0625 18.3125 54.390625 
z
" id="DejaVuSans-56"/>
       <path d="M 31.78125 66.40625 
Q 24.171875 66.40625 20.328125 58.90625 
Q 16.5 51.421875 16.5 36.375 
Q 16.5 21.390625 20.328125 13.890625 
Q 24.171875 6.390625 31.78125 6.390625 
Q 39.453125 6.390625 43.28125 13.890625 
Q 47.125 21.390625 47.125 36.375 
Q 47.125 51.421875 43.28125 58.90625 
Q 39.453125 66.40625 31.78125 66.40625 
z
M 31.78125 74.21875 
Q 44.046875 74.21875 50.515625 64.515625 
Q 56.984375 54.828125 56.984375 36.375 
Q 56.984375 17.96875 50.515625 8.265625 
Q 44.046875 -1.421875 31.78125 -1.421875 
Q 19.53125 -1.421875 13.0625 8.265625 
Q 6.59375 17.96875 6.59375 36.375 
Q 6.59375 54.828125 13.0625 64.515625 
Q 19.53125 74.21875 31.78125 74.21875 
z
" id="DejaVuSans-48"/>
      </defs>
      <g transform="translate(61.383266 322.182437)scale(0.1 -0.1)">
       <use xlink:href="#DejaVuSans-8722"/>
       <use x="83.789062" xlink:href="#DejaVuSans-56"/>
       <use x="147.412109" xlink:href="#DejaVuSans-48"/>
       <use x="211.035156" xlink:href="#DejaVuSans-48"/>
      </g>
     </g>
    </g>
    <g id="xtick_2">
     <g id="line2d_3">
      <g>
       <use style="stroke:#000000;stroke-width:0.8;" x="138.374601" xlink:href="#m63e01fb977" y="307.584"/>
      </g>
     </g>
     <g id="text_2">
      <!-- −600 -->
      <defs>
       <path d="M 33.015625 40.375 
Q 26.375 40.375 22.484375 35.828125 
Q 18.609375 31.296875 18.609375 23.390625 
Q 18.609375 15.53125 22.484375 10.953125 
Q 26.375 6.390625 33.015625 6.390625 
Q 39.65625 6.390625 43.53125 10.953125 
Q 47.40625 15.53125 47.40625 23.390625 
Q 47.40625 31.296875 43.53125 35.828125 
Q 39.65625 40.375 33.015625 40.375 
z
M 52.59375 71.296875 
L 52.59375 62.3125 
Q 48.875 64.0625 45.09375 64.984375 
Q 41.3125 65.921875 37.59375 65.921875 
Q 27.828125 65.921875 22.671875 59.328125 
Q 17.53125 52.734375 16.796875 39.40625 
Q 19.671875 43.65625 24.015625 45.921875 
Q 28.375 48.1875 33.59375 48.1875 
Q 44.578125 48.1875 50.953125 41.515625 
Q 57.328125 34.859375 57.328125 23.390625 
Q 57.328125 12.15625 50.6875 5.359375 
Q 44.046875 -1.421875 33.015625 -1.421875 
Q 20.359375 -1.421875 13.671875 8.265625 
Q 6.984375 17.96875 6.984375 36.375 
Q 6.984375 53.65625 15.1875 63.9375 
Q 23.390625 74.21875 37.203125 74.21875 
Q 40.921875 74.21875 44.703125 73.484375 
Q 48.484375 72.75 52.59375 71.296875 
z
" id="DejaVuSans-54"/>
      </defs>
      <g transform="translate(124.641008 322.182437)scale(0.1 -0.1)">
       <use xlink:href="#DejaVuSans-8722"/>
       <use x="83.789062" xlink:href="#DejaVuSans-54"/>
       <use x="147.412109" xlink:href="#DejaVuSans-48"/>
       <use x="211.035156" xlink:href="#DejaVuSans-48"/>
      </g>
     </g>
    </g>
    <g id="xtick_3">
     <g id="line2d_4">
      <g>
       <use style="stroke:#000000;stroke-width:0.8;" x="201.632343" xlink:href="#m63e01fb977" y="307.584"/>
      </g>
     </g>
     <g id="text_3">
      <!-- −400 -->
      <defs>
       <path d="M 37.796875 64.3125 
L 12.890625 25.390625 
L 37.796875 25.390625 
z
M 35.203125 72.90625 
L 47.609375 72.90625 
L 47.609375 25.390625 
L 58.015625 25.390625 
L 58.015625 17.1875 
L 47.609375 17.1875 
L 47.609375 0 
L 37.796875 0 
L 37.796875 17.1875 
L 4.890625 17.1875 
L 4.890625 26.703125 
z
" id="DejaVuSans-52"/>
      </defs>
      <g transform="translate(187.898749 322.182437)scale(0.1 -0.1)">
       <use xlink:href="#DejaVuSans-8722"/>
       <use x="83.789062" xlink:href="#DejaVuSans-52"/>
       <use x="147.412109" xlink:href="#DejaVuSans-48"/>
       <use x="211.035156" xlink:href="#DejaVuSans-48"/>
      </g>
     </g>
    </g>
    <g id="xtick_4">
     <g id="line2d_5">
      <g>
       <use style="stroke:#000000;stroke-width:0.8;" x="264.890085" xlink:href="#m63e01fb977" y="307.584"/>
      </g>
     </g>
     <g id="text_4">
      <!-- −200 -->
      <defs>
       <path d="M 19.1875 8.296875 
L 53.609375 8.296875 
L 53.609375 0 
L 7.328125 0 
L 7.328125 8.296875 
Q 12.9375 14.109375 22.625 23.890625 
Q 32.328125 33.6875 34.8125 36.53125 
Q 39.546875 41.84375 41.421875 45.53125 
Q 43.3125 49.21875 43.3125 52.78125 
Q 43.3125 58.59375 39.234375 62.25 
Q 35.15625 65.921875 28.609375 65.921875 
Q 23.96875 65.921875 18.8125 64.3125 
Q 13.671875 62.703125 7.8125 59.421875 
L 7.8125 69.390625 
Q 13.765625 71.78125 18.9375 73 
Q 24.125 74.21875 28.421875 74.21875 
Q 39.75 74.21875 46.484375 68.546875 
Q 53.21875 62.890625 53.21875 53.421875 
Q 53.21875 48.921875 51.53125 44.890625 
Q 49.859375 40.875 45.40625 35.40625 
Q 44.1875 33.984375 37.640625 27.21875 
Q 31.109375 20.453125 19.1875 8.296875 
z
" id="DejaVuSans-50"/>
      </defs>
      <g transform="translate(251.156491 322.182437)scale(0.1 -0.1)">
       <use xlink:href="#DejaVuSans-8722"/>
       <use x="83.789062" xlink:href="#DejaVuSans-50"/>
       <use x="147.412109" xlink:href="#DejaVuSans-48"/>
       <use x="211.035156" xlink:href="#DejaVuSans-48"/>
      </g>
     </g>
    </g>
    <g id="xtick_5">
     <g id="line2d_6">
      <g>
       <use style="stroke:#000000;stroke-width:0.8;" x="328.147827" xlink:href="#m63e01fb977" y="307.584"/>
      </g>
     </g>
     <g id="text_5">
      <!-- 0 -->
      <g transform="translate(324.966577 322.182437)scale(0.1 -0.1)">
       <use xlink:href="#DejaVuSans-48"/>
      </g>
     </g>
    </g>
    <g id="xtick_6">
     <g id="line2d_7">
      <g>
       <use style="stroke:#000000;stroke-width:0.8;" x="391.405569" xlink:href="#m63e01fb977" y="307.584"/>
      </g>
     </g>
     <g id="text_6">
      <!-- 200 -->
      <g transform="translate(381.861819 322.182437)scale(0.1 -0.1)">
       <use xlink:href="#DejaVuSans-50"/>
       <use x="63.623047" xlink:href="#DejaVuSans-48"/>
       <use x="127.246094" xlink:href="#DejaVuSans-48"/>
      </g>
     </g>
    </g>
   </g>
   <g id="matplotlib.axis_2">
    <g id="ytick_1">
     <g id="line2d_8">
      <defs>
       <path d="M 0 0 
L -3.5 0 
" id="m82446acdb3" style="stroke:#000000;stroke-width:0.8;"/>
      </defs>
      <g>
       <use style="stroke:#000000;stroke-width:0.8;" x="57.6" xlink:href="#m82446acdb3" y="287.583747"/>
      </g>
     </g>
     <g id="text_7">
      <!-- −900 -->
      <defs>
       <path d="M 10.984375 1.515625 
L 10.984375 10.5 
Q 14.703125 8.734375 18.5 7.8125 
Q 22.3125 6.890625 25.984375 6.890625 
Q 35.75 6.890625 40.890625 13.453125 
Q 46.046875 20.015625 46.78125 33.40625 
Q 43.953125 29.203125 39.59375 26.953125 
Q 35.25 24.703125 29.984375 24.703125 
Q 19.046875 24.703125 12.671875 31.3125 
Q 6.296875 37.9375 6.296875 49.421875 
Q 6.296875 60.640625 12.9375 67.421875 
Q 19.578125 74.21875 30.609375 74.21875 
Q 43.265625 74.21875 49.921875 64.515625 
Q 56.59375 54.828125 56.59375 36.375 
Q 56.59375 19.140625 48.40625 8.859375 
Q 40.234375 -1.421875 26.421875 -1.421875 
Q 22.703125 -1.421875 18.890625 -0.6875 
Q 15.09375 0.046875 10.984375 1.515625 
z
M 30.609375 32.421875 
Q 37.25 32.421875 41.125 36.953125 
Q 45.015625 41.5 45.015625 49.421875 
Q 45.015625 57.28125 41.125 61.84375 
Q 37.25 66.40625 30.609375 66.40625 
Q 23.96875 66.40625 20.09375 61.84375 
Q 16.21875 57.28125 16.21875 49.421875 
Q 16.21875 41.5 20.09375 36.953125 
Q 23.96875 32.421875 30.609375 32.421875 
z
" id="DejaVuSans-57"/>
      </defs>
      <g transform="translate(23.132812 291.382965)scale(0.1 -0.1)">
       <use xlink:href="#DejaVuSans-8722"/>
       <use x="83.789062" xlink:href="#DejaVuSans-57"/>
       <use x="147.412109" xlink:href="#DejaVuSans-48"/>
       <use x="211.035156" xlink:href="#DejaVuSans-48"/>
      </g>
     </g>
    </g>
    <g id="ytick_2">
     <g id="line2d_9">
      <g>
       <use style="stroke:#000000;stroke-width:0.8;" x="57.6" xlink:href="#m82446acdb3" y="253.905632"/>
      </g>
     </g>
     <g id="text_8">
      <!-- −800 -->
      <g transform="translate(23.132812 257.704851)scale(0.1 -0.1)">
       <use xlink:href="#DejaVuSans-8722"/>
       <use x="83.789062" xlink:href="#DejaVuSans-56"/>
       <use x="147.412109" xlink:href="#DejaVuSans-48"/>
       <use x="211.035156" xlink:href="#DejaVuSans-48"/>
      </g>
     </g>
    </g>
    <g id="ytick_3">
     <g id="line2d_10">
      <g>
       <use style="stroke:#000000;stroke-width:0.8;" x="57.6" xlink:href="#m82446acdb3" y="220.227517"/>
      </g>
     </g>
     <g id="text_9">
      <!-- −700 -->
      <defs>
       <path d="M 8.203125 72.90625 
L 55.078125 72.90625 
L 55.078125 68.703125 
L 28.609375 0 
L 18.3125 0 
L 43.21875 64.59375 
L 8.203125 64.59375 
z
" id="DejaVuSans-55"/>
      </defs>
      <g transform="translate(23.132812 224.026736)scale(0.1 -0.1)">
       <use xlink:href="#DejaVuSans-8722"/>
       <use x="83.789062" xlink:href="#DejaVuSans-55"/>
       <use x="147.412109" xlink:href="#DejaVuSans-48"/>
       <use x="211.035156" xlink:href="#DejaVuSans-48"/>
      </g>
     </g>
    </g>
    <g id="ytick_4">
     <g id="line2d_11">
      <g>
       <use style="stroke:#000000;stroke-width:0.8;" x="57.6" xlink:href="#m82446acdb3" y="186.549403"/>
      </g>
     </g>
     <g id="text_10">
      <!-- −600 -->
      <g transform="translate(23.132812 190.348622)scale(0.1 -0.1)">
       <use xlink:href="#DejaVuSans-8722"/>
       <use x="83.789062" xlink:href="#DejaVuSans-54"/>
       <use x="147.412109" xlink:href="#DejaVuSans-48"/>
       <use x="211.035156" xlink:href="#DejaVuSans-48"/>
      </g>
     </g>
    </g>
    <g id="ytick_5">
     <g id="line2d_12">
      <g>
       <use style="stroke:#000000;stroke-width:0.8;" x="57.6" xlink:href="#m82446acdb3" y="152.871288"/>
      </g>
     </g>
     <g id="text_11">
      <!-- −500 -->
      <defs>
       <path d="M 10.796875 72.90625 
L 49.515625 72.90625 
L 49.515625 64.59375 
L 19.828125 64.59375 
L 19.828125 46.734375 
Q 21.96875 47.46875 24.109375 47.828125 
Q 26.265625 48.1875 28.421875 48.1875 
Q 40.625 48.1875 47.75 41.5 
Q 54.890625 34.8125 54.890625 23.390625 
Q 54.890625 11.625 47.5625 5.09375 
Q 40.234375 -1.421875 26.90625 -1.421875 
Q 22.3125 -1.421875 17.546875 -0.640625 
Q 12.796875 0.140625 7.71875 1.703125 
L 7.71875 11.625 
Q 12.109375 9.234375 16.796875 8.0625 
Q 21.484375 6.890625 26.703125 6.890625 
Q 35.15625 6.890625 40.078125 11.328125 
Q 45.015625 15.765625 45.015625 23.390625 
Q 45.015625 31 40.078125 35.4375 
Q 35.15625 39.890625 26.703125 39.890625 
Q 22.75 39.890625 18.8125 39.015625 
Q 14.890625 38.140625 10.796875 36.28125 
z
" id="DejaVuSans-53"/>
      </defs>
      <g transform="translate(23.132812 156.670507)scale(0.1 -0.1)">
       <use xlink:href="#DejaVuSans-8722"/>
       <use x="83.789062" xlink:href="#DejaVuSans-53"/>
       <use x="147.412109" xlink:href="#DejaVuSans-48"/>
       <use x="211.035156" xlink:href="#DejaVuSans-48"/>
      </g>
     </g>
    </g>
    <g id="ytick_6">
     <g id="line2d_13">
      <g>
       <use style="stroke:#000000;stroke-width:0.8;" x="57.6" xlink:href="#m82446acdb3" y="119.193174"/>
      </g>
     </g>
     <g id="text_12">
      <!-- −400 -->
      <g transform="translate(23.132812 122.992393)scale(0.1 -0.1)">
       <use xlink:href="#DejaVuSans-8722"/>
       <use x="83.789062" xlink:href="#DejaVuSans-52"/>
       <use x="147.412109" xlink:href="#DejaVuSans-48"/>
       <use x="211.035156" xlink:href="#DejaVuSans-48"/>
      </g>
     </g>
    </g>
    <g id="ytick_7">
     <g id="line2d_14">
      <g>
       <use style="stroke:#000000;stroke-width:0.8;" x="57.6" xlink:href="#m82446acdb3" y="85.515059"/>
      </g>
     </g>
     <g id="text_13">
      <!-- −300 -->
      <defs>
       <path d="M 40.578125 39.3125 
Q 47.65625 37.796875 51.625 33 
Q 55.609375 28.21875 55.609375 21.1875 
Q 55.609375 10.40625 48.1875 4.484375 
Q 40.765625 -1.421875 27.09375 -1.421875 
Q 22.515625 -1.421875 17.65625 -0.515625 
Q 12.796875 0.390625 7.625 2.203125 
L 7.625 11.71875 
Q 11.71875 9.328125 16.59375 8.109375 
Q 21.484375 6.890625 26.8125 6.890625 
Q 36.078125 6.890625 40.9375 10.546875 
Q 45.796875 14.203125 45.796875 21.1875 
Q 45.796875 27.640625 41.28125 31.265625 
Q 36.765625 34.90625 28.71875 34.90625 
L 20.21875 34.90625 
L 20.21875 43.015625 
L 29.109375 43.015625 
Q 36.375 43.015625 40.234375 45.921875 
Q 44.09375 48.828125 44.09375 54.296875 
Q 44.09375 59.90625 40.109375 62.90625 
Q 36.140625 65.921875 28.71875 65.921875 
Q 24.65625 65.921875 20.015625 65.03125 
Q 15.375 64.15625 9.8125 62.3125 
L 9.8125 71.09375 
Q 15.4375 72.65625 20.34375 73.4375 
Q 25.25 74.21875 29.59375 74.21875 
Q 40.828125 74.21875 47.359375 69.109375 
Q 53.90625 64.015625 53.90625 55.328125 
Q 53.90625 49.265625 50.4375 45.09375 
Q 46.96875 40.921875 40.578125 39.3125 
z
" id="DejaVuSans-51"/>
      </defs>
      <g transform="translate(23.132812 89.314278)scale(0.1 -0.1)">
       <use xlink:href="#DejaVuSans-8722"/>
       <use x="83.789062" xlink:href="#DejaVuSans-51"/>
       <use x="147.412109" xlink:href="#DejaVuSans-48"/>
       <use x="211.035156" xlink:href="#DejaVuSans-48"/>
      </g>
     </g>
    </g>
    <g id="ytick_8">
     <g id="line2d_15">
      <g>
       <use style="stroke:#000000;stroke-width:0.8;" x="57.6" xlink:href="#m82446acdb3" y="51.836945"/>
      </g>
     </g>
     <g id="text_14">
      <!-- −200 -->
      <g transform="translate(23.132812 55.636164)scale(0.1 -0.1)">
       <use xlink:href="#DejaVuSans-8722"/>
       <use x="83.789062" xlink:href="#DejaVuSans-50"/>
       <use x="147.412109" xlink:href="#DejaVuSans-48"/>
       <use x="211.035156" xlink:href="#DejaVuSans-48"/>
      </g>
     </g>
    </g>
   </g>
   <g id="line2d_16">
    <path clip-path="url(#p089b351048)" d="M 75.397522 292.010341 
L 316.631914 201.017125 
L 390.455957 136.827774 
L 382.67764 128.937521 
L 272.507745 143.63672 
L 271.22629 135.075753 
L 258.039758 64.904006 
" style="fill:none;stroke:#ff0000;stroke-linecap:square;stroke-width:0.5;"/>
   </g>
   <g id="patch_3">
    <path d="M 57.6 307.584 
L 57.6 41.472 
" style="fill:none;stroke:#000000;stroke-linecap:square;stroke-linejoin:miter;stroke-width:0.8;"/>
   </g>
   <g id="patch_4">
    <path d="M 414.72 307.584 
L 414.72 41.472 
" style="fill:none;stroke:#000000;stroke-linecap:square;stroke-linejoin:miter;stroke-width:0.8;"/>
   </g>
   <g id="patch_5">
    <path d="M 57.6 307.584 
L 414.72 307.584 
" style="fill:none;stroke:#000000;stroke-linecap:square;stroke-linejoin:miter;stroke-width:0.8;"/>
   </g>
   <g id="patch_6">
    <path d="M 57.6 41.472 
L 414.72 41.472 
" style="fill:none;stroke:#000000;stroke-linecap:square;stroke-linejoin:miter;stroke-width:0.8;"/>
   </g>
   <g id="PathCollection_1">
    <defs>
     <path d="M 0 2.738613 
C 0.726289 2.738613 1.422928 2.450055 1.936492 1.936492 
C 2.450055 1.422928 2.738613 0.726289 2.738613 0 
C 2.738613 -0.726289 2.450055 -1.422928 1.936492 -1.936492 
C 1.422928 -2.450055 0.726289 -2.738613 0 -2.738613 
C -0.726289 -2.738613 -1.422928 -2.450055 -1.936492 -1.936492 
C -2.450055 -1.422928 -2.738613 -0.726289 -2.738613 0 
C -2.738613 0.726289 -2.450055 1.422928 -1.936492 1.936492 
C -1.422928 2.450055 -0.726289 2.738613 0 2.738613 
z
" id="m77825a278d" style="stroke:#ff0000;"/>
    </defs>
    <g clip-path="url(#p089b351048)">
     <use style="fill:#ff0000;stroke:#ff0000;" x="75.397522" xlink:href="#m77825a278d" y="292.010341"/>
     <use style="fill:#ff0000;stroke:#ff0000;" x="316.631914" xlink:href="#m77825a278d" y="201.017125"/>
     <use style="fill:#ff0000;stroke:#ff0000;" x="390.455957" xlink:href="#m77825a278d" y="136.827774"/>
     <use style="fill:#ff0000;stroke:#ff0000;" x="382.67764" xlink:href="#m77825a278d" y="128.937521"/>
     <use style="fill:#ff0000;stroke:#ff0000;" x="272.507745" xlink:href="#m77825a278d" y="143.63672"/>
     <use style="fill:#ff0000;stroke:#ff0000;" x="271.22629" xlink:href="#m77825a278d" y="135.075753"/>
     <use style="fill:#ff0000;stroke:#ff0000;" x="258.039758" xlink:href="#m77825a278d" y="64.904006"/>
    </g>
   </g>
   <g id="text_15">
    <!-- (52) Subject: s7, Known = False, Degree = 1, Duration = 0.1 -->
    <defs>
     <path d="M 31 75.875 
Q 24.46875 64.65625 21.28125 53.65625 
Q 18.109375 42.671875 18.109375 31.390625 
Q 18.109375 20.125 21.3125 9.0625 
Q 24.515625 -2 31 -13.1875 
L 23.1875 -13.1875 
Q 15.875 -1.703125 12.234375 9.375 
Q 8.59375 20.453125 8.59375 31.390625 
Q 8.59375 42.28125 12.203125 53.3125 
Q 15.828125 64.359375 23.1875 75.875 
z
" id="DejaVuSans-40"/>
     <path d="M 8.015625 75.875 
L 15.828125 75.875 
Q 23.140625 64.359375 26.78125 53.3125 
Q 30.421875 42.28125 30.421875 31.390625 
Q 30.421875 20.453125 26.78125 9.375 
Q 23.140625 -1.703125 15.828125 -13.1875 
L 8.015625 -13.1875 
Q 14.5 -2 17.703125 9.0625 
Q 20.90625 20.125 20.90625 31.390625 
Q 20.90625 42.671875 17.703125 53.65625 
Q 14.5 64.65625 8.015625 75.875 
z
" id="DejaVuSans-41"/>
     <path id="DejaVuSans-32"/>
     <path d="M 53.515625 70.515625 
L 53.515625 60.890625 
Q 47.90625 63.578125 42.921875 64.890625 
Q 37.9375 66.21875 33.296875 66.21875 
Q 25.25 66.21875 20.875 63.09375 
Q 16.5 59.96875 16.5 54.203125 
Q 16.5 49.359375 19.40625 46.890625 
Q 22.3125 44.4375 30.421875 42.921875 
L 36.375 41.703125 
Q 47.40625 39.59375 52.65625 34.296875 
Q 57.90625 29 57.90625 20.125 
Q 57.90625 9.515625 50.796875 4.046875 
Q 43.703125 -1.421875 29.984375 -1.421875 
Q 24.8125 -1.421875 18.96875 -0.25 
Q 13.140625 0.921875 6.890625 3.21875 
L 6.890625 13.375 
Q 12.890625 10.015625 18.65625 8.296875 
Q 24.421875 6.59375 29.984375 6.59375 
Q 38.421875 6.59375 43.015625 9.90625 
Q 47.609375 13.234375 47.609375 19.390625 
Q 47.609375 24.75 44.3125 27.78125 
Q 41.015625 30.8125 33.5 32.328125 
L 27.484375 33.5 
Q 16.453125 35.6875 11.515625 40.375 
Q 6.59375 45.0625 6.59375 53.421875 
Q 6.59375 63.09375 13.40625 68.65625 
Q 20.21875 74.21875 32.171875 74.21875 
Q 37.3125 74.21875 42.625 73.28125 
Q 47.953125 72.359375 53.515625 70.515625 
z
" id="DejaVuSans-83"/>
     <path d="M 8.5 21.578125 
L 8.5 54.6875 
L 17.484375 54.6875 
L 17.484375 21.921875 
Q 17.484375 14.15625 20.5 10.265625 
Q 23.53125 6.390625 29.59375 6.390625 
Q 36.859375 6.390625 41.078125 11.03125 
Q 45.3125 15.671875 45.3125 23.6875 
L 45.3125 54.6875 
L 54.296875 54.6875 
L 54.296875 0 
L 45.3125 0 
L 45.3125 8.40625 
Q 42.046875 3.421875 37.71875 1 
Q 33.40625 -1.421875 27.6875 -1.421875 
Q 18.265625 -1.421875 13.375 4.4375 
Q 8.5 10.296875 8.5 21.578125 
z
M 31.109375 56 
z
" id="DejaVuSans-117"/>
     <path d="M 48.6875 27.296875 
Q 48.6875 37.203125 44.609375 42.84375 
Q 40.53125 48.484375 33.40625 48.484375 
Q 26.265625 48.484375 22.1875 42.84375 
Q 18.109375 37.203125 18.109375 27.296875 
Q 18.109375 17.390625 22.1875 11.75 
Q 26.265625 6.109375 33.40625 6.109375 
Q 40.53125 6.109375 44.609375 11.75 
Q 48.6875 17.390625 48.6875 27.296875 
z
M 18.109375 46.390625 
Q 20.953125 51.265625 25.265625 53.625 
Q 29.59375 56 35.59375 56 
Q 45.5625 56 51.78125 48.09375 
Q 58.015625 40.1875 58.015625 27.296875 
Q 58.015625 14.40625 51.78125 6.484375 
Q 45.5625 -1.421875 35.59375 -1.421875 
Q 29.59375 -1.421875 25.265625 0.953125 
Q 20.953125 3.328125 18.109375 8.203125 
L 18.109375 0 
L 9.078125 0 
L 9.078125 75.984375 
L 18.109375 75.984375 
z
" id="DejaVuSans-98"/>
     <path d="M 9.421875 54.6875 
L 18.40625 54.6875 
L 18.40625 -0.984375 
Q 18.40625 -11.421875 14.421875 -16.109375 
Q 10.453125 -20.796875 1.609375 -20.796875 
L -1.8125 -20.796875 
L -1.8125 -13.1875 
L 0.59375 -13.1875 
Q 5.71875 -13.1875 7.5625 -10.8125 
Q 9.421875 -8.453125 9.421875 -0.984375 
z
M 9.421875 75.984375 
L 18.40625 75.984375 
L 18.40625 64.59375 
L 9.421875 64.59375 
z
" id="DejaVuSans-106"/>
     <path d="M 56.203125 29.59375 
L 56.203125 25.203125 
L 14.890625 25.203125 
Q 15.484375 15.921875 20.484375 11.0625 
Q 25.484375 6.203125 34.421875 6.203125 
Q 39.59375 6.203125 44.453125 7.46875 
Q 49.3125 8.734375 54.109375 11.28125 
L 54.109375 2.78125 
Q 49.265625 0.734375 44.1875 -0.34375 
Q 39.109375 -1.421875 33.890625 -1.421875 
Q 20.796875 -1.421875 13.15625 6.1875 
Q 5.515625 13.8125 5.515625 26.8125 
Q 5.515625 40.234375 12.765625 48.109375 
Q 20.015625 56 32.328125 56 
Q 43.359375 56 49.78125 48.890625 
Q 56.203125 41.796875 56.203125 29.59375 
z
M 47.21875 32.234375 
Q 47.125 39.59375 43.09375 43.984375 
Q 39.0625 48.390625 32.421875 48.390625 
Q 24.90625 48.390625 20.390625 44.140625 
Q 15.875 39.890625 15.1875 32.171875 
z
" id="DejaVuSans-101"/>
     <path d="M 48.78125 52.59375 
L 48.78125 44.1875 
Q 44.96875 46.296875 41.140625 47.34375 
Q 37.3125 48.390625 33.40625 48.390625 
Q 24.65625 48.390625 19.8125 42.84375 
Q 14.984375 37.3125 14.984375 27.296875 
Q 14.984375 17.28125 19.8125 11.734375 
Q 24.65625 6.203125 33.40625 6.203125 
Q 37.3125 6.203125 41.140625 7.25 
Q 44.96875 8.296875 48.78125 10.40625 
L 48.78125 2.09375 
Q 45.015625 0.34375 40.984375 -0.53125 
Q 36.96875 -1.421875 32.421875 -1.421875 
Q 20.0625 -1.421875 12.78125 6.34375 
Q 5.515625 14.109375 5.515625 27.296875 
Q 5.515625 40.671875 12.859375 48.328125 
Q 20.21875 56 33.015625 56 
Q 37.15625 56 41.109375 55.140625 
Q 45.0625 54.296875 48.78125 52.59375 
z
" id="DejaVuSans-99"/>
     <path d="M 18.3125 70.21875 
L 18.3125 54.6875 
L 36.8125 54.6875 
L 36.8125 47.703125 
L 18.3125 47.703125 
L 18.3125 18.015625 
Q 18.3125 11.328125 20.140625 9.421875 
Q 21.96875 7.515625 27.59375 7.515625 
L 36.8125 7.515625 
L 36.8125 0 
L 27.59375 0 
Q 17.1875 0 13.234375 3.875 
Q 9.28125 7.765625 9.28125 18.015625 
L 9.28125 47.703125 
L 2.6875 47.703125 
L 2.6875 54.6875 
L 9.28125 54.6875 
L 9.28125 70.21875 
z
" id="DejaVuSans-116"/>
     <path d="M 11.71875 12.40625 
L 22.015625 12.40625 
L 22.015625 0 
L 11.71875 0 
z
M 11.71875 51.703125 
L 22.015625 51.703125 
L 22.015625 39.3125 
L 11.71875 39.3125 
z
" id="DejaVuSans-58"/>
     <path d="M 44.28125 53.078125 
L 44.28125 44.578125 
Q 40.484375 46.53125 36.375 47.5 
Q 32.28125 48.484375 27.875 48.484375 
Q 21.1875 48.484375 17.84375 46.4375 
Q 14.5 44.390625 14.5 40.28125 
Q 14.5 37.15625 16.890625 35.375 
Q 19.28125 33.59375 26.515625 31.984375 
L 29.59375 31.296875 
Q 39.15625 29.25 43.1875 25.515625 
Q 47.21875 21.78125 47.21875 15.09375 
Q 47.21875 7.46875 41.1875 3.015625 
Q 35.15625 -1.421875 24.609375 -1.421875 
Q 20.21875 -1.421875 15.453125 -0.5625 
Q 10.6875 0.296875 5.421875 2 
L 5.421875 11.28125 
Q 10.40625 8.6875 15.234375 7.390625 
Q 20.0625 6.109375 24.8125 6.109375 
Q 31.15625 6.109375 34.5625 8.28125 
Q 37.984375 10.453125 37.984375 14.40625 
Q 37.984375 18.0625 35.515625 20.015625 
Q 33.0625 21.96875 24.703125 23.78125 
L 21.578125 24.515625 
Q 13.234375 26.265625 9.515625 29.90625 
Q 5.8125 33.546875 5.8125 39.890625 
Q 5.8125 47.609375 11.28125 51.796875 
Q 16.75 56 26.8125 56 
Q 31.78125 56 36.171875 55.265625 
Q 40.578125 54.546875 44.28125 53.078125 
z
" id="DejaVuSans-115"/>
     <path d="M 11.71875 12.40625 
L 22.015625 12.40625 
L 22.015625 4 
L 14.015625 -11.625 
L 7.71875 -11.625 
L 11.71875 4 
z
" id="DejaVuSans-44"/>
     <path d="M 9.8125 72.90625 
L 19.671875 72.90625 
L 19.671875 42.09375 
L 52.390625 72.90625 
L 65.09375 72.90625 
L 28.90625 38.921875 
L 67.671875 0 
L 54.6875 0 
L 19.671875 35.109375 
L 19.671875 0 
L 9.8125 0 
z
" id="DejaVuSans-75"/>
     <path d="M 54.890625 33.015625 
L 54.890625 0 
L 45.90625 0 
L 45.90625 32.71875 
Q 45.90625 40.484375 42.875 44.328125 
Q 39.84375 48.1875 33.796875 48.1875 
Q 26.515625 48.1875 22.3125 43.546875 
Q 18.109375 38.921875 18.109375 30.90625 
L 18.109375 0 
L 9.078125 0 
L 9.078125 54.6875 
L 18.109375 54.6875 
L 18.109375 46.1875 
Q 21.34375 51.125 25.703125 53.5625 
Q 30.078125 56 35.796875 56 
Q 45.21875 56 50.046875 50.171875 
Q 54.890625 44.34375 54.890625 33.015625 
z
" id="DejaVuSans-110"/>
     <path d="M 30.609375 48.390625 
Q 23.390625 48.390625 19.1875 42.75 
Q 14.984375 37.109375 14.984375 27.296875 
Q 14.984375 17.484375 19.15625 11.84375 
Q 23.34375 6.203125 30.609375 6.203125 
Q 37.796875 6.203125 41.984375 11.859375 
Q 46.1875 17.53125 46.1875 27.296875 
Q 46.1875 37.015625 41.984375 42.703125 
Q 37.796875 48.390625 30.609375 48.390625 
z
M 30.609375 56 
Q 42.328125 56 49.015625 48.375 
Q 55.71875 40.765625 55.71875 27.296875 
Q 55.71875 13.875 49.015625 6.21875 
Q 42.328125 -1.421875 30.609375 -1.421875 
Q 18.84375 -1.421875 12.171875 6.21875 
Q 5.515625 13.875 5.515625 27.296875 
Q 5.515625 40.765625 12.171875 48.375 
Q 18.84375 56 30.609375 56 
z
" id="DejaVuSans-111"/>
     <path d="M 4.203125 54.6875 
L 13.1875 54.6875 
L 24.421875 12.015625 
L 35.59375 54.6875 
L 46.1875 54.6875 
L 57.421875 12.015625 
L 68.609375 54.6875 
L 77.59375 54.6875 
L 63.28125 0 
L 52.6875 0 
L 40.921875 44.828125 
L 29.109375 0 
L 18.5 0 
z
" id="DejaVuSans-119"/>
     <path d="M 10.59375 45.40625 
L 73.1875 45.40625 
L 73.1875 37.203125 
L 10.59375 37.203125 
z
M 10.59375 25.484375 
L 73.1875 25.484375 
L 73.1875 17.1875 
L 10.59375 17.1875 
z
" id="DejaVuSans-61"/>
     <path d="M 9.8125 72.90625 
L 51.703125 72.90625 
L 51.703125 64.59375 
L 19.671875 64.59375 
L 19.671875 43.109375 
L 48.578125 43.109375 
L 48.578125 34.8125 
L 19.671875 34.8125 
L 19.671875 0 
L 9.8125 0 
z
" id="DejaVuSans-70"/>
     <path d="M 34.28125 27.484375 
Q 23.390625 27.484375 19.1875 25 
Q 14.984375 22.515625 14.984375 16.5 
Q 14.984375 11.71875 18.140625 8.90625 
Q 21.296875 6.109375 26.703125 6.109375 
Q 34.1875 6.109375 38.703125 11.40625 
Q 43.21875 16.703125 43.21875 25.484375 
L 43.21875 27.484375 
z
M 52.203125 31.203125 
L 52.203125 0 
L 43.21875 0 
L 43.21875 8.296875 
Q 40.140625 3.328125 35.546875 0.953125 
Q 30.953125 -1.421875 24.3125 -1.421875 
Q 15.921875 -1.421875 10.953125 3.296875 
Q 6 8.015625 6 15.921875 
Q 6 25.140625 12.171875 29.828125 
Q 18.359375 34.515625 30.609375 34.515625 
L 43.21875 34.515625 
L 43.21875 35.40625 
Q 43.21875 41.609375 39.140625 45 
Q 35.0625 48.390625 27.6875 48.390625 
Q 23 48.390625 18.546875 47.265625 
Q 14.109375 46.140625 10.015625 43.890625 
L 10.015625 52.203125 
Q 14.9375 54.109375 19.578125 55.046875 
Q 24.21875 56 28.609375 56 
Q 40.484375 56 46.34375 49.84375 
Q 52.203125 43.703125 52.203125 31.203125 
z
" id="DejaVuSans-97"/>
     <path d="M 9.421875 75.984375 
L 18.40625 75.984375 
L 18.40625 0 
L 9.421875 0 
z
" id="DejaVuSans-108"/>
     <path d="M 19.671875 64.796875 
L 19.671875 8.109375 
L 31.59375 8.109375 
Q 46.6875 8.109375 53.6875 14.9375 
Q 60.6875 21.78125 60.6875 36.53125 
Q 60.6875 51.171875 53.6875 57.984375 
Q 46.6875 64.796875 31.59375 64.796875 
z
M 9.8125 72.90625 
L 30.078125 72.90625 
Q 51.265625 72.90625 61.171875 64.09375 
Q 71.09375 55.28125 71.09375 36.53125 
Q 71.09375 17.671875 61.125 8.828125 
Q 51.171875 0 30.078125 0 
L 9.8125 0 
z
" id="DejaVuSans-68"/>
     <path d="M 45.40625 27.984375 
Q 45.40625 37.75 41.375 43.109375 
Q 37.359375 48.484375 30.078125 48.484375 
Q 22.859375 48.484375 18.828125 43.109375 
Q 14.796875 37.75 14.796875 27.984375 
Q 14.796875 18.265625 18.828125 12.890625 
Q 22.859375 7.515625 30.078125 7.515625 
Q 37.359375 7.515625 41.375 12.890625 
Q 45.40625 18.265625 45.40625 27.984375 
z
M 54.390625 6.78125 
Q 54.390625 -7.171875 48.1875 -13.984375 
Q 42 -20.796875 29.203125 -20.796875 
Q 24.46875 -20.796875 20.265625 -20.09375 
Q 16.0625 -19.390625 12.109375 -17.921875 
L 12.109375 -9.1875 
Q 16.0625 -11.328125 19.921875 -12.34375 
Q 23.78125 -13.375 27.78125 -13.375 
Q 36.625 -13.375 41.015625 -8.765625 
Q 45.40625 -4.15625 45.40625 5.171875 
L 45.40625 9.625 
Q 42.625 4.78125 38.28125 2.390625 
Q 33.9375 0 27.875 0 
Q 17.828125 0 11.671875 7.65625 
Q 5.515625 15.328125 5.515625 27.984375 
Q 5.515625 40.671875 11.671875 48.328125 
Q 17.828125 56 27.875 56 
Q 33.9375 56 38.28125 53.609375 
Q 42.625 51.21875 45.40625 46.390625 
L 45.40625 54.6875 
L 54.390625 54.6875 
z
" id="DejaVuSans-103"/>
     <path d="M 41.109375 46.296875 
Q 39.59375 47.171875 37.8125 47.578125 
Q 36.03125 48 33.890625 48 
Q 26.265625 48 22.1875 43.046875 
Q 18.109375 38.09375 18.109375 28.8125 
L 18.109375 0 
L 9.078125 0 
L 9.078125 54.6875 
L 18.109375 54.6875 
L 18.109375 46.1875 
Q 20.953125 51.171875 25.484375 53.578125 
Q 30.03125 56 36.53125 56 
Q 37.453125 56 38.578125 55.875 
Q 39.703125 55.765625 41.0625 55.515625 
z
" id="DejaVuSans-114"/>
     <path d="M 12.40625 8.296875 
L 28.515625 8.296875 
L 28.515625 63.921875 
L 10.984375 60.40625 
L 10.984375 69.390625 
L 28.421875 72.90625 
L 38.28125 72.90625 
L 38.28125 8.296875 
L 54.390625 8.296875 
L 54.390625 0 
L 12.40625 0 
z
" id="DejaVuSans-49"/>
     <path d="M 9.421875 54.6875 
L 18.40625 54.6875 
L 18.40625 0 
L 9.421875 0 
z
M 9.421875 75.984375 
L 18.40625 75.984375 
L 18.40625 64.59375 
L 9.421875 64.59375 
z
" id="DejaVuSans-105"/>
     <path d="M 10.6875 12.40625 
L 21 12.40625 
L 21 0 
L 10.6875 0 
z
" id="DejaVuSans-46"/>
    </defs>
    <g transform="translate(53.559375 35.472)scale(0.12 -0.12)">
     <use xlink:href="#DejaVuSans-40"/>
     <use x="39.013672" xlink:href="#DejaVuSans-53"/>
     <use x="102.636719" xlink:href="#DejaVuSans-50"/>
     <use x="166.259766" xlink:href="#DejaVuSans-41"/>
     <use x="205.273438" xlink:href="#DejaVuSans-32"/>
     <use x="237.060547" xlink:href="#DejaVuSans-83"/>
     <use x="300.537109" xlink:href="#DejaVuSans-117"/>
     <use x="363.916016" xlink:href="#DejaVuSans-98"/>
     <use x="427.392578" xlink:href="#DejaVuSans-106"/>
     <use x="455.175781" xlink:href="#DejaVuSans-101"/>
     <use x="516.699219" xlink:href="#DejaVuSans-99"/>
     <use x="571.679688" xlink:href="#DejaVuSans-116"/>
     <use x="610.888672" xlink:href="#DejaVuSans-58"/>
     <use x="644.580078" xlink:href="#DejaVuSans-32"/>
     <use x="676.367188" xlink:href="#DejaVuSans-115"/>
     <use x="728.466797" xlink:href="#DejaVuSans-55"/>
     <use x="792.089844" xlink:href="#DejaVuSans-44"/>
     <use x="823.876953" xlink:href="#DejaVuSans-32"/>
     <use x="855.664062" xlink:href="#DejaVuSans-75"/>
     <use x="921.240234" xlink:href="#DejaVuSans-110"/>
     <use x="984.619141" xlink:href="#DejaVuSans-111"/>
     <use x="1045.800781" xlink:href="#DejaVuSans-119"/>
     <use x="1127.587891" xlink:href="#DejaVuSans-110"/>
     <use x="1190.966797" xlink:href="#DejaVuSans-32"/>
     <use x="1222.753906" xlink:href="#DejaVuSans-61"/>
     <use x="1306.542969" xlink:href="#DejaVuSans-32"/>
     <use x="1338.330078" xlink:href="#DejaVuSans-70"/>
     <use x="1395.708984" xlink:href="#DejaVuSans-97"/>
     <use x="1456.988281" xlink:href="#DejaVuSans-108"/>
     <use x="1484.771484" xlink:href="#DejaVuSans-115"/>
     <use x="1536.871094" xlink:href="#DejaVuSans-101"/>
     <use x="1598.394531" xlink:href="#DejaVuSans-44"/>
     <use x="1630.181641" xlink:href="#DejaVuSans-32"/>
     <use x="1661.96875" xlink:href="#DejaVuSans-68"/>
     <use x="1738.970703" xlink:href="#DejaVuSans-101"/>
     <use x="1800.494141" xlink:href="#DejaVuSans-103"/>
     <use x="1863.970703" xlink:href="#DejaVuSans-114"/>
     <use x="1905.052734" xlink:href="#DejaVuSans-101"/>
     <use x="1966.576172" xlink:href="#DejaVuSans-101"/>
     <use x="2028.099609" xlink:href="#DejaVuSans-32"/>
     <use x="2059.886719" xlink:href="#DejaVuSans-61"/>
     <use x="2143.675781" xlink:href="#DejaVuSans-32"/>
     <use x="2175.462891" xlink:href="#DejaVuSans-49"/>
     <use x="2239.085938" xlink:href="#DejaVuSans-44"/>
     <use x="2270.873047" xlink:href="#DejaVuSans-32"/>
     <use x="2302.660156" xlink:href="#DejaVuSans-68"/>
     <use x="2379.662109" xlink:href="#DejaVuSans-117"/>
     <use x="2443.041016" xlink:href="#DejaVuSans-114"/>
     <use x="2484.154297" xlink:href="#DejaVuSans-97"/>
     <use x="2545.433594" xlink:href="#DejaVuSans-116"/>
     <use x="2584.642578" xlink:href="#DejaVuSans-105"/>
     <use x="2612.425781" xlink:href="#DejaVuSans-111"/>
     <use x="2673.607422" xlink:href="#DejaVuSans-110"/>
     <use x="2736.986328" xlink:href="#DejaVuSans-32"/>
     <use x="2768.773438" xlink:href="#DejaVuSans-61"/>
     <use x="2852.5625" xlink:href="#DejaVuSans-32"/>
     <use x="2884.349609" xlink:href="#DejaVuSans-48"/>
     <use x="2947.972656" xlink:href="#DejaVuSans-46"/>
     <use x="2979.759766" xlink:href="#DejaVuSans-49"/>
    </g>
   </g>
  </g>
 </g>
 <defs>
  <clipPath id="p089b351048">
   <rect height="266.112" width="357.12" x="57.6" y="41.472"/>
  </clipPath>
 </defs>
</svg>
