<?xml version="1.0" encoding="utf-8" standalone="no"?>
<!DOCTYPE svg PUBLIC "-//W3C//DTD SVG 1.1//EN"
  "http://www.w3.org/Graphics/SVG/1.1/DTD/svg11.dtd">
<!-- Created with matplotlib (https://matplotlib.org/) -->
<svg height="345.6pt" version="1.1" viewBox="0 0 460.8 345.6" width="460.8pt" xmlns="http://www.w3.org/2000/svg" xmlns:xlink="http://www.w3.org/1999/xlink">
 <defs>
  <style type="text/css">
*{stroke-linecap:butt;stroke-linejoin:round;}
  </style>
 </defs>
 <g id="figure_1">
  <g id="patch_1">
   <path d="M 0 345.6 
L 460.8 345.6 
L 460.8 0 
L 0 0 
z
" style="fill:#ffffff;"/>
  </g>
  <g id="axes_1">
   <g id="patch_2">
    <path d="M 57.6 307.584 
L 414.72 307.584 
L 414.72 41.472 
L 57.6 41.472 
z
" style="fill:#ffffff;"/>
   </g>
   <g id="line2d_1">
    <path clip-path="url(#p92befc2d15)" d="M 397.74606 54.079187 
L 397.630928 54.079187 
L 397.630928 54.079187 
L 397.857702 54.590373 
L 397.74606 54.4206 
L 397.519286 54.24896 
L 397.519286 53.907547 
L 397.519286 53.907547 
L 397.630928 53.907547 
L 397.630928 53.737774 
L 397.857702 53.568 
L 397.972834 53.907547 
L 397.972834 54.079187 
L 397.857702 54.079187 
L 397.857702 54.079187 
L 397.857702 54.24896 
L 398.084476 54.24896 
L 398.422892 54.079187 
L 397.972834 54.24896 
L 398.084476 54.079187 
L 398.084476 53.737774 
L 398.084476 54.4206 
L 397.857702 54.760147 
L 397.74606 54.590373 
L 397.519286 54.590373 
L 397.519286 54.590373 
L 397.74606 54.760147 
L 397.74606 54.4206 
L 397.857702 54.24896 
L 398.196119 54.760147 
L 398.196119 55.10156 
L 398.196119 54.931786 
L 397.972834 54.590373 
L 397.74606 54.760147 
L 397.630928 54.590373 
L 397.857702 54.24896 
L 397.74606 54.24896 
L 397.630928 54.24896 
L 397.857702 54.24896 
L 398.084476 54.760147 
L 397.857702 54.760147 
L 397.74606 54.590373 
L 397.972834 54.24896 
L 397.857702 55.10156 
L 397.857702 55.271334 
L 397.630928 55.10156 
L 397.292512 55.10156 
L 397.292512 54.931786 
L 397.630928 54.931786 
L 397.857702 55.442973 
L 397.857702 55.10156 
L 397.972834 54.760147 
L 397.972834 54.760147 
L 397.74606 54.760147 
L 397.857702 54.760147 
L 397.972834 54.931786 
L 397.972834 55.271334 
L 397.857702 55.442973 
L 398.084476 55.271334 
L 398.422892 55.10156 
L 398.422892 54.931786 
L 398.196119 54.590373 
L 397.857702 54.4206 
L 398.084476 54.590373 
L 398.084476 54.931786 
L 398.084476 54.931786 
L 397.972834 54.760147 
L 397.74606 54.931786 
L 397.74606 55.271334 
L 398.196119 54.931786 
L 398.084476 55.10156 
L 397.857702 55.442973 
L 397.972834 55.10156 
L 397.630928 55.271334 
L 397.857702 55.10156 
L 397.972834 55.271334 
L 397.74606 55.442973 
L 397.519286 55.271334 
L 397.519286 54.760147 
L 397.74606 54.760147 
L 397.857702 54.931786 
L 398.196119 54.931786 
L 398.196119 54.931786 
L 397.630928 55.784386 
L 398.084476 55.271334 
L 398.084476 55.612746 
L 398.196119 56.295572 
L 398.422892 56.636985 
L 398.422892 56.295572 
L 398.196119 56.123933 
L 397.972834 56.123933 
L 397.972834 56.295572 
L 398.084476 56.295572 
L 398.084476 56.123933 
L 397.972834 55.784386 
L 397.74606 55.784386 
L 397.630928 56.636985 
L 397.857702 56.636985 
L 398.31125 56.295572 
L 397.972834 56.295572 
L 397.972834 56.123933 
L 398.084476 56.123933 
L 398.196119 56.295572 
L 398.31125 56.123933 
L 398.422892 55.442973 
L 398.31125 55.784386 
L 397.74606 56.465346 
L 397.74606 56.636985 
L 398.196119 56.636985 
L 398.084476 56.465346 
L 397.857702 56.806759 
L 398.196119 57.317946 
L 397.972834 57.829132 
L 397.972834 57.829132 
L 397.972834 56.295572 
L 397.857702 56.465346 
L 397.857702 56.976533 
L 397.74606 57.148172 
L 397.972834 56.806759 
L 397.972834 56.976533 
L 397.857702 57.317946 
L 397.630928 57.487719 
L 397.74606 57.829132 
L 397.972834 58.000772 
L 397.972834 58.170545 
L 397.972834 58.170545 
L 397.857702 58.170545 
L 397.74606 57.829132 
L 397.857702 57.487719 
L 398.196119 57.148172 
L 398.422892 57.659359 
L 398.422892 58.000772 
L 398.196119 58.170545 
L 397.857702 58.170545 
L 397.519286 58.511958 
L 397.519286 58.340319 
L 397.74606 59.023145 
L 397.972834 59.192918 
L 397.972834 58.853371 
L 397.972834 58.853371 
L 397.630928 58.853371 
L 397.407643 59.192918 
L 397.407643 59.875744 
L 397.857702 59.023145 
L 397.74606 59.534331 
L 398.31125 59.534331 
L 398.196119 59.534331 
L 397.972834 59.192918 
L 398.084476 58.853371 
L 397.857702 59.364558 
L 397.519286 59.704105 
L 397.972834 60.045518 
L 397.857702 60.217157 
L 397.630928 60.045518 
L 397.630928 60.217157 
L 397.74606 60.217157 
L 397.74606 60.045518 
L 397.630928 60.045518 
L 398.084476 59.364558 
L 397.857702 59.534331 
L 397.180869 60.217157 
L 397.180869 60.045518 
L 397.519286 59.875744 
L 398.084476 59.364558 
L 397.972834 59.704105 
L 397.407643 60.386931 
L 397.630928 59.534331 
L 397.292512 60.556705 
L 397.292512 59.875744 
L 397.292512 59.875744 
L 397.407643 59.875744 
L 397.972834 60.556705 
L 397.972834 60.728344 
L 397.972834 60.728344 
L 397.857702 60.898118 
L 398.196119 60.556705 
L 398.31125 60.556705 
L 398.196119 60.728344 
L 398.084476 60.556705 
L 398.084476 60.556705 
L 397.857702 60.556705 
L 397.630928 60.728344 
L 397.407643 61.067891 
L 397.519286 61.409304 
L 397.630928 61.239531 
L 397.630928 60.728344 
L 397.519286 60.556705 
L 397.519286 60.556705 
L 397.630928 61.409304 
L 397.74606 61.239531 
L 397.74606 60.898118 
L 397.74606 60.898118 
L 397.857702 61.409304 
L 397.857702 62.09213 
L 397.519286 62.261904 
L 397.180869 62.09213 
L 396.954096 61.409304 
L 396.842453 61.750717 
L 396.392394 62.261904 
L 395.60043 62.433543 
L 394.473538 62.433543 
L 391.989492 62.77309 
L 390.409053 62.77309 
L 388.040138 62.94473 
L 384.990902 62.94473 
L 381.606738 62.77309 
L 377.880668 63.284277 
L 373.819672 63.967103 
L 369.528412 64.819703 
L 365.467416 66.013715 
L 360.952871 67.205862 
L 341.314254 71.46886 
L 336.122877 72.14982 
L 331.269916 73.174059 
L 326.305312 74.537845 
L 321.452351 76.071405 
L 316.599391 77.776604 
L 307.45517 80.504177 
L 303.055757 82.209376 
L 298.764498 83.742936 
L 289.623766 86.470508 
L 271.68072 93.802491 
L 266.939401 96.188651 
L 262.536499 98.746449 
L 258.248729 100.962835 
L 249.558056 105.225833 
L 245.493571 107.611993 
L 241.77099 109.486965 
L 238.044921 110.850752 
L 223.262754 118.182735 
L 219.986743 120.057708 
L 213.556832 123.46624 
L 204.751028 129.945624 
L 202.043697 132.16201 
L 199.786425 134.719808 
L 196.287129 138.980941 
L 193.12625 143.585352 
L 190.418919 147.505071 
L 189.626955 149.381909 
L 189.065254 151.426656 
L 188.726837 153.301629 
L 188.611706 154.837054 
L 188.611706 160.803386 
L 188.500063 162.338811 
L 188.500063 164.042145 
L 188.726837 167.622317 
L 189.065254 170.351755 
L 189.065254 174.1017 
L 188.611706 176.829273 
L 188.161647 179.387071 
L 188.388421 181.262044 
L 188.27329 182.456057 
L 188.27329 183.989617 
L 188.050005 185.353403 
L 188.27329 185.864589 
L 188.27329 186.717189 
L 187.823231 188.933575 
L 188.388421 191.149961 
L 188.500063 191.149961 
L 188.500063 191.491373 
L 188.388421 191.832786 
L 188.500063 192.174199 
L 188.500063 192.685386 
L 188.83848 193.707759 
L 188.611706 193.707759 
L 188.611706 194.049172 
L 188.950122 194.38872 
L 188.950122 194.38872 
L 188.83848 194.38872 
L 189.288539 194.38872 
L 189.288539 194.38872 
L 188.83848 194.560359 
L 188.83848 194.38872 
L 189.065254 194.560359 
L 189.40367 195.412958 
L 189.626955 195.582732 
L 189.626955 195.754371 
L 189.40367 196.093919 
L 189.40367 196.605105 
L 189.40367 196.265558 
L 189.065254 195.582732 
L 189.065254 195.924145 
L 188.950122 195.924145 
L 188.950122 196.265558 
L 189.40367 196.776745 
L 189.515313 196.776745 
L 189.515313 196.435332 
L 189.853729 196.776745 
L 190.418919 196.946518 
L 190.080503 196.946518 
L 189.96886 196.946518 
L 190.418919 196.946518 
L 190.080503 197.629344 
L 189.96886 197.457705 
L 189.96886 198.821491 
L 190.307277 198.310304 
L 190.418919 197.799118 
L 190.307277 197.457705 
L 190.530562 198.140531 
L 190.080503 198.651717 
L 190.307277 198.651717 
L 190.530562 198.821491 
L 190.645693 199.162904 
L 190.418919 199.504317 
L 190.192145 198.99313 
L 190.192145 199.162904 
L 190.757336 199.162904 
L 190.530562 199.162904 
L 190.757336 198.821491 
L 190.645693 198.99313 
L 190.757336 198.99313 
L 190.98411 198.821491 
L 191.322526 199.504317 
L 191.095752 199.334543 
L 191.095752 199.162904 
L 191.322526 199.162904 
L 191.322526 199.334543 
L 190.868978 200.015504 
L 191.095752 200.356917 
L 191.545811 199.674091 
L 190.98411 200.69833 
L 190.868978 200.52669 
L 190.530562 200.356917 
L 190.080503 200.52669 
L 189.515313 200.868103 
L 189.176896 200.868103 
L 188.050005 200.356917 
L 187.146398 200.356917 
L 186.242791 200.52669 
L 185.339185 201.209516 
L 184.323935 202.231889 
L 183.420329 203.425902 
L 182.293437 206.323248 
L 181.616604 207.175848 
L 180.82464 207.858673 
L 180.036165 208.711273 
L 178.455725 211.267206 
L 178.002178 212.461219 
L 177.663761 213.825005 
L 177.10206 214.847378 
L 176.425227 215.699978 
L 176.086811 216.89399 
L 176.086811 218.599189 
L 175.971679 222.179361 
L 176.198453 223.712921 
L 178.567368 228.828519 
L 179.359332 229.850892 
L 180.147807 230.533718 
L 182.40508 233.942251 
L 183.081912 235.306037 
L 183.985519 238.546661 
L 185.000768 239.569035 
L 185.227542 240.591408 
L 185.339185 241.78542 
L 186.131149 243.49062 
L 186.131149 245.707005 
L 186.242791 246.729379 
L 187.369683 249.287177 
L 188.500063 250.990511 
L 188.611706 251.673337 
L 188.500063 252.354297 
L 188.27329 252.867349 
L 188.950122 253.719949 
L 189.065254 254.400909 
L 188.83848 254.742322 
L 189.288539 255.253509 
L 189.288539 255.936335 
L 188.950122 256.958708 
L 189.065254 256.787069 
L 189.288539 256.787069 
L 189.515313 257.128482 
L 189.40367 258.150855 
L 189.626955 258.492268 
L 189.853729 258.322494 
L 189.626955 257.811307 
L 189.742087 257.981081 
L 189.515313 257.981081 
L 189.40367 258.322494 
L 189.626955 258.833681 
L 189.515313 258.833681 
L 189.40367 259.003454 
L 189.515313 259.175094 
L 189.742087 258.833681 
L 189.515313 258.663907 
L 189.96886 258.663907 
L 190.307277 258.492268 
L 190.192145 258.663907 
L 190.080503 258.833681 
L 190.192145 258.663907 
L 190.530562 258.663907 
L 190.418919 258.492268 
L 189.96886 258.322494 
L 189.742087 259.003454 
L 189.626955 258.833681 
L 189.742087 258.492268 
L 189.742087 258.492268 
L 189.853729 259.003454 
L 189.742087 258.663907 
L 189.40367 258.150855 
L 189.40367 258.150855 
L 189.742087 258.322494 
L 189.853729 258.663907 
L 189.742087 258.492268 
L 190.192145 258.150855 
L 190.192145 257.981081 
L 189.853729 258.663907 
L 189.853729 258.492268 
L 189.853729 257.811307 
L 190.192145 258.322494 
L 190.080503 258.150855 
L 189.742087 258.492268 
L 189.626955 258.322494 
L 189.853729 257.981081 
L 190.192145 257.981081 
L 190.307277 258.492268 
L 190.307277 259.003454 
L 190.080503 259.344867 
L 189.96886 259.175094 
L 190.080503 258.833681 
L 189.96886 258.833681 
L 189.96886 259.175094 
L 190.192145 259.344867 
L 190.307277 259.175094 
L 190.192145 258.833681 
L 190.307277 259.003454 
L 190.080503 259.003454 
L 189.742087 258.663907 
L 189.626955 258.492268 
L 189.515313 258.663907 
L 189.853729 259.516507 
L 189.96886 259.516507 
L 189.742087 259.516507 
L 189.742087 259.344867 
L 189.96886 259.003454 
L 190.080503 258.833681 
L 189.853729 259.175094 
L 189.96886 259.175094 
L 190.192145 259.175094 
L 189.853729 259.68628 
L 189.626955 259.68628 
L 189.853729 259.68628 
L 189.96886 260.197467 
L 190.080503 259.856054 
L 189.96886 259.68628 
L 188.500063 260.708654 
L 187.484814 260.708654 
L 184.212293 261.050066 
L 182.40508 261.391479 
L 180.036165 261.391479 
L 170.780302 261.902666 
L 167.396138 261.902666 
L 160.285905 261.21984 
L 156.559836 261.21984 
L 148.322711 261.902666 
L 144.484999 261.902666 
L 140.985704 262.413853 
L 137.598051 263.266452 
L 134.102245 263.777639 
L 127.215297 264.119052 
L 111.075975 265.652612 
L 108.030227 265.652612 
L 99.566329 266.676851 
L 96.632223 267.52945 
L 90.760525 269.91561 
L 88.279967 271.109622 
L 85.795921 272.131995 
L 83.650292 273.154369 
L 79.700937 275.712167 
L 78.120498 276.564767 
L 76.766832 277.58714 
L 75.863226 278.609513 
L 74.959619 279.122566 
L 74.171144 279.803526 
L 73.832727 280.314713 
L 73.832727 280.997538 
L 73.94437 281.508725 
L 74.736334 282.702738 
L 74.736334 283.213924 
L 74.847976 283.894885 
L 75.07475 284.236297 
L 75.301524 284.236297 
L 75.524809 284.406071 
L 75.863226 285.088897 
L 75.978357 285.600084 
L 75.301524 286.11127 
L 75.07475 286.452683 
L 75.186393 286.794096 
L 75.413167 286.96387 
L 75.413167 286.794096 
L 75.301524 286.794096 
L 75.301524 286.96387 
L 75.301524 286.96387 
L 75.413167 286.96387 
L 75.524809 287.305283 
L 75.413167 287.816469 
L 75.07475 287.816469 
L 74.959619 287.305283 
L 75.07475 287.646696 
L 75.524809 287.986243 
L 75.301524 289.180256 
L 75.413167 289.350029 
L 75.301524 289.350029 
L 75.186393 289.350029 
L 75.07475 289.691442 
L 75.07475 289.691442 
L 75.301524 289.521669 
L 75.524809 289.691442 
L 75.301524 289.863082 
L 74.959619 289.863082 
L 74.736334 290.032855 
L 75.186393 290.544042 
L 75.524809 290.544042 
L 75.524809 290.544042 
L 74.847976 290.202629 
L 75.186393 290.374268 
L 75.413167 290.885455 
L 75.301524 291.396641 
L 74.959619 291.566415 
L 74.736334 291.226868 
L 74.847976 290.885455 
L 75.186393 291.396641 
L 75.07475 291.396641 
L 75.301524 291.907828 
L 75.186393 292.249241 
L 74.50956 291.566415 
L 74.621203 291.738054 
L 74.736334 292.249241 
L 75.07475 292.930201 
L 75.186393 293.271614 
L 75.186393 293.271614 
L 75.413167 292.930201 
L 75.07475 293.271614 
L 75.301524 293.271614 
L 75.524809 293.271614 
L 75.524809 293.271614 
L 75.639941 292.930201 
L 75.301524 293.443254 
L 75.301524 293.443254 
L 75.301524 292.930201 
L 75.07475 293.101841 
L 75.07475 293.443254 
L 75.301524 294.465627 
L 75.413167 294.465627 
L 75.524809 294.124214 
L 75.186393 293.95444 
L 75.186393 293.95444 
L 75.301524 294.295853 
L 75.186393 294.295853 
L 74.959619 294.124214 
L 74.847976 294.124214 
L 74.959619 293.95444 
L 74.50956 294.6354 
L 74.621203 294.6354 
L 74.736334 294.6354 
L 74.847976 294.976813 
L 74.736334 295.146587 
L 75.07475 294.80704 
L 74.847976 294.976813 
L 74.959619 295.488 
L 75.186393 295.488 
L 75.524809 294.80704 
L 75.524809 294.465627 
L 75.413167 294.295853 
L 75.413167 294.6354 
L 75.524809 294.80704 
L 75.413167 294.6354 
L 75.413167 295.146587 
L 75.186393 294.976813 
L 75.07475 293.95444 
L 75.07475 294.124214 
L 74.959619 294.295853 
L 74.959619 294.6354 
L 74.736334 294.80704 
L 75.186393 294.295853 
L 75.413167 294.295853 
L 75.413167 294.6354 
L 75.413167 294.465627 
L 75.301524 294.295853 
L 74.959619 294.6354 
L 74.959619 294.976813 
L 75.413167 294.80704 
L 75.639941 294.465627 
L 75.524809 294.295853 
L 75.301524 294.295853 
L 75.07475 294.465627 
L 74.847976 294.465627 
L 74.847976 294.295853 
L 75.301524 293.613027 
L 75.301524 294.465627 
L 75.413167 293.782801 
L 75.301524 293.613027 
L 75.186393 293.782801 
L 75.301524 293.782801 
L 75.639941 293.443254 
L 75.639941 294.465627 
L 75.639941 293.95444 
L 75.978357 293.443254 
L 75.978357 293.613027 
L 76.201642 294.295853 
L 75.863226 293.443254 
L 75.413167 293.443254 
L 75.413167 293.613027 
L 75.863226 293.95444 
L 75.978357 293.782801 
L 75.978357 293.443254 
L 75.863226 293.271614 
L 75.863226 292.930201 
L 75.978357 292.930201 
L 75.978357 293.271614 
L 75.863226 293.613027 
L 75.978357 293.613027 
L 76.316773 293.95444 
L 76.09 294.124214 
L 75.863226 294.124214 
L 75.863226 294.124214 
L 75.978357 293.95444 
L 76.540058 294.124214 
L 76.65519 293.613027 
L 76.540058 293.271614 
L 76.316773 293.271614 
L 76.201642 293.443254 
L 76.316773 293.613027 
L 76.316773 294.124214 
L 76.428416 293.782801 
L 76.428416 293.101841 
L 76.540058 292.590654 
L 76.428416 292.590654 
L 76.316773 292.760428 
L 76.09 293.613027 
L 75.863226 293.271614 
L 75.863226 292.760428 
L 76.201642 292.760428 
L 76.201642 292.760428 
L 76.766832 292.079467 
L 77.332023 292.079467 
L 79.135747 291.738054 
L 80.604544 291.055228 
L 84.103839 288.669069 
L 85.907564 287.475056 
L 88.164836 286.28291 
L 90.760525 285.088897 
L 97.082282 282.702738 
L 100.581578 281.508725 
L 104.192516 280.486352 
L 108.257001 279.633752 
L 112.544772 278.609513 
L 116.832542 277.417366 
L 121.120313 276.393128 
L 125.523215 275.540528 
L 134.440661 274.176742 
L 138.840074 273.665555 
L 143.46975 273.326008 
L 148.434354 272.643182 
L 153.287314 272.473408 
L 162.316403 272.812956 
L 171.683909 272.131995 
L 180.601355 272.473408 
L 185.000768 272.473408 
L 189.515313 272.131995 
L 198.432759 272.131995 
L 202.608887 271.960356 
L 222.359147 270.257023 
L 226.081727 270.426796 
L 229.46938 270.257023 
L 232.741902 269.91561 
L 235.90278 269.74397 
L 243.236299 270.257023 
L 245.043512 270.085383 
L 247.865974 270.085383 
L 248.204391 270.426796 
L 248.316033 270.59657 
L 248.204391 270.59657 
L 247.977617 270.937983 
L 247.977617 270.768209 
L 248.431165 270.426796 
L 248.65445 270.937983 
L 248.881224 271.790582 
L 248.992866 271.790582 
L 248.992866 270.937983 
L 248.881224 270.768209 
L 248.992866 271.109622 
L 249.107997 271.449169 
L 248.881224 270.768209 
L 248.881224 271.109622 
L 249.107997 272.473408 
L 248.992866 272.131995 
L 248.881224 271.790582 
L 248.992866 271.790582 
L 249.446414 272.473408 
L 249.107997 272.131995 
L 249.107997 272.473408 
L 249.21964 272.643182 
L 249.669699 271.960356 
L 249.558056 272.131995 
L 249.78483 272.812956 
L 249.446414 271.790582 
L 249.669699 272.131995 
L 249.896473 272.301769 
L 249.78483 272.131995 
L 249.896473 271.620809 
L 249.78483 271.449169 
L 250.123247 271.790582 
L 250.234889 271.790582 
L 250.234889 271.109622 
L 250.008115 272.131995 
L 250.123247 272.131995 
L 250.346532 271.960356 
L 250.573306 272.131995 
L 250.573306 271.960356 
L 250.800079 271.960356 
L 250.688437 271.960356 
L 250.573306 271.790582 
L 250.573306 271.790582 
L 250.573306 272.643182 
L 250.461663 272.984595 
L 250.346532 272.812956 
L 250.573306 272.643182 
L 251.588555 272.301769 
L 251.588555 272.301769 
L 251.138496 272.643182 
L 250.573306 272.812956 
L 250.573306 272.812956 
L 250.688437 272.643182 
L 250.573306 272.812956 
L 250.800079 272.812956 
L 251.250138 273.154369 
L 251.703686 272.812956 
L 251.703686 272.643182 
L 251.36527 272.984595 
L 251.250138 272.812956 
L 251.250138 272.301769 
L 251.588555 271.960356 
L 251.250138 272.643182 
L 251.250138 272.473408 
L 251.36527 272.301769 
L 251.476912 272.643182 
L 251.476912 272.812956 
L 251.815329 272.473408 
L 251.926971 272.131995 
L 251.703686 272.473408 
L 251.476912 272.812956 
L 251.476912 273.154369 
L 251.476912 272.984595 
L 251.36527 272.643182 
L 251.476912 272.812956 
L 251.588555 272.812956 
L 251.815329 273.326008 
L 251.588555 272.643182 
L 251.815329 272.473408 
L 251.815329 272.473408 
L 251.926971 272.643182 
L 251.703686 272.473408 
L 251.588555 272.643182 
L 251.815329 272.643182 
L 252.042102 272.473408 
L 252.042102 272.301769 
L 252.265387 272.131995 
L 252.265387 272.131995 
L 251.476912 272.473408 
L 251.926971 272.301769 
L 251.926971 272.473408 
L 251.815329 272.473408 
L 252.042102 272.473408 
L 252.380519 271.620809 
L 252.265387 271.449169 
L 252.265387 271.620809 
L 252.153745 271.620809 
L 252.042102 271.279396 
L 252.042102 271.279396 
L 251.926971 271.449169 
L 252.153745 271.279396 
L 252.380519 270.426796 
L 252.380519 269.74397 
L 251.926971 269.574197 
L 250.008115 268.21041 
L 246.623951 265.652612 
L 242.674597 262.07244 
L 237.368089 258.322494 
L 234.660757 255.594922 
L 231.953426 252.69571 
L 229.130964 249.968138 
L 226.535275 246.899152 
L 221.567183 240.080221 
L 215.814104 233.089651 
L 213.103284 229.168066 
L 210.169179 225.41812 
L 207.461848 221.668175 
L 204.977802 217.74659 
L 198.544402 206.664661 
L 193.918215 200.015504 
L 191.434169 196.946518 
L 189.065254 194.218946 
L 184.662352 188.422388 
L 180.374581 181.773231 
L 178.002178 178.023285 
L 172.699158 170.351755 
L 171.23385 167.793956 
L 166.604174 160.292199 
L 165.250508 157.906039 
L 163.781711 155.689654 
L 161.186023 152.790442 
L 160.397547 150.915469 
L 159.832357 148.868857 
L 158.817108 146.312924 
L 158.590334 144.949138 
L 158.705466 144.777499 
L 158.705466 144.436086 
L 158.590334 144.096538 
L 158.817108 143.924899 
L 159.043882 143.924899 
L 159.267167 145.118911 
L 159.493941 145.460324 
L 159.493941 145.460324 
L 159.267167 145.971511 
L 159.493941 145.971511 
L 159.720715 145.801737 
L 159.720715 145.630098 
L 159.609072 145.288685 
L 159.832357 144.949138 
L 159.609072 145.118911 
L 158.928751 145.118911 
L 159.267167 144.777499 
L 159.382298 144.777499 
L 159.720715 144.266312 
L 159.720715 143.924899 
L 159.832357 143.585352 
L 159.609072 143.585352 
L 159.382298 143.755125 
L 159.155524 143.755125 
L 159.043882 143.585352 
L 159.155524 143.413712 
L 159.382298 143.413712 
L 159.155524 143.413712 
L 159.155524 143.072299 
L 159.267167 142.732752 
L 159.493941 143.243939 
L 159.382298 143.243939 
L 159.382298 142.732752 
L 159.155524 142.732752 
L 159.155524 142.902526 
L 159.382298 143.243939 
L 159.382298 143.243939 
L 159.382298 143.072299 
L 159.267167 142.902526 
L 159.155524 143.243939 
L 159.155524 143.924899 
L 159.382298 144.266312 
L 159.043882 143.924899 
L 158.817108 144.266312 
L 158.928751 144.096538 
L 159.382298 144.096538 
L 159.382298 143.755125 
L 159.267167 143.413712 
L 158.928751 143.413712 
L 158.705466 144.096538 
L 158.817108 144.436086 
L 159.155524 144.096538 
L 159.382298 143.585352 
L 159.382298 143.755125 
L 159.382298 144.266312 
L 159.267167 144.607725 
L 159.267167 144.436086 
L 159.043882 144.436086 
L 159.043882 144.777499 
L 158.928751 144.777499 
L 158.928751 144.607725 
L 158.817108 144.436086 
L 158.478692 145.460324 
L 159.382298 144.777499 
L 159.382298 144.607725 
L 159.267167 144.607725 
L 159.267167 144.777499 
L 159.267167 144.777499 
L 159.155524 144.607725 
L 159.382298 144.777499 
L 159.720715 144.777499 
L 159.493941 144.949138 
L 159.043882 145.118911 
L 158.705466 145.118911 
L 158.817108 144.949138 
L 159.043882 144.949138 
L 158.928751 145.288685 
L 158.705466 145.288685 
L 159.155524 145.288685 
L 159.155524 145.288685 
L 159.155524 145.460324 
L 159.267167 146.482698 
L 159.155524 146.482698 
L 159.155524 146.824111 
L 159.267167 146.993884 
L 159.267167 146.993884 
L 158.928751 146.993884 
L 158.928751 147.165524 
L 158.705466 147.335297 
L 158.590334 147.165524 
L 158.590334 146.824111 
L 158.928751 146.993884 
L 159.043882 147.67671 
L 158.817108 148.016258 
L 158.928751 148.016258 
L 159.043882 148.187897 
L 158.817108 147.846484 
L 158.817108 147.846484 
L 158.705466 148.187897 
L 158.705466 148.016258 
L 159.043882 148.016258 
L 159.043882 148.35767 
L 158.705466 148.187897 
L 158.478692 147.67671 
L 158.705466 147.165524 
L 158.928751 147.505071 
L 159.043882 148.868857 
L 158.928751 148.868857 
L 158.817108 148.52931 
L 158.928751 149.21027 
L 158.590334 149.21027 
L 158.590334 149.21027 
L 158.590334 149.381909 
L 159.043882 149.381909 
L 159.267167 149.551683 
L 159.267167 149.551683 
L 158.478692 149.893096 
L 158.251918 150.06287 
L 158.705466 149.721457 
L 158.705466 149.381909 
L 158.478692 148.52931 
L 158.590334 149.040496 
L 158.140275 149.551683 
L 158.140275 150.06287 
L 158.478692 150.06287 
L 158.367049 149.893096 
L 158.367049 149.551683 
L 158.590334 149.21027 
L 158.590334 149.21027 
L 158.590334 149.381909 
L 158.478692 149.381909 
L 158.367049 149.040496 
L 158.590334 148.52931 
L 158.590334 148.187897 
L 158.367049 148.35767 
L 158.367049 148.699083 
L 158.590334 148.868857 
L 158.478692 148.868857 
L 158.251918 148.868857 
L 158.251918 148.187897 
L 158.140275 148.016258 
L 158.028633 148.187897 
L 158.367049 147.846484 
L 158.478692 147.846484 
L 158.028633 148.35767 
L 158.028633 147.67671 
L 158.140275 147.335297 
L 158.028633 146.824111 
L 158.251918 146.824111 
L 158.367049 146.993884 
L 158.367049 146.824111 
L 158.251918 146.482698 
L 158.028633 146.312924 
L 158.028633 146.312924 
L 158.028633 145.971511 
L 158.251918 145.118911 
L 158.590334 144.949138 
L 158.817108 144.949138 
L 159.267167 144.777499 
L 161.412797 143.585352 
L 164.346902 143.243939 
L 167.734554 142.2197 
L 169.426636 142.2197 
L 171.23385 142.561113 
L 173.602765 142.732752 
L 176.198453 143.072299 
L 178.794142 143.755125 
L 186.354434 147.505071 
L 188.611706 148.868857 
L 193.241382 152.449029 
L 195.948713 154.154228 
L 198.656044 155.518014 
L 201.366864 156.370614 
L 203.85091 157.7344 
L 206.219825 159.439599 
L 214.006891 164.213784 
L 217.052638 165.918983 
L 219.875101 167.96373 
L 228.115715 175.465486 
L 233.645508 180.239671 
L 238.383338 183.648204 
L 240.64061 185.864589 
L 244.593453 190.127587 
L 248.089259 194.901772 
L 249.896473 196.946518 
L 251.36527 198.821491 
L 252.603804 200.69833 
L 254.749434 205.470648 
L 255.764683 207.347487 
L 256.779932 208.711273 
L 257.571896 210.244833 
L 258.137086 211.950032 
L 259.375621 218.088003 
L 260.279227 223.371508 
L 260.394359 224.73716 
L 260.732775 225.929307 
L 261.071191 229.850892 
L 261.071191 232.067278 
L 261.182834 233.942251 
L 261.182834 234.79485 
L 261.071191 235.477676 
L 261.52125 238.375022 
L 261.52125 239.057848 
L 261.409608 239.397395 
L 261.409608 240.761182 
L 261.859667 242.466381 
L 261.859667 242.977567 
L 261.409608 243.660393 
L 261.971309 245.707005 
L 261.971309 246.218192 
L 262.424857 246.218192 
L 262.424857 246.387966 
L 262.086441 246.899152 
L 261.971309 247.751752 
L 262.086441 248.093165 
L 262.424857 248.434578 
L 262.536499 249.115538 
L 262.763273 249.456951 
L 262.651631 249.798364 
L 262.424857 249.798364 
L 262.424857 249.626725 
L 262.424857 251.331924 
L 262.536499 251.331924 
L 262.763273 251.84311 
L 262.424857 251.331924 
L 262.086441 251.331924 
L 261.971309 251.673337 
L 262.086441 252.184523 
L 262.424857 252.525936 
L 262.990047 252.69571 
L 263.10169 252.69571 
L 262.874916 252.525936 
L 262.651631 252.69571 
L 262.990047 252.867349 
L 263.328464 253.206897 
L 263.440106 253.54831 
L 263.328464 253.889723 
L 262.763273 254.231135 
L 262.874916 254.231135 
L 263.10169 254.400909 
L 263.66688 254.059496 
L 264.005296 254.059496 
L 264.116939 254.400909 
L 264.005296 254.400909 
L 263.778523 254.400909 
L 264.005296 255.083735 
L 263.890165 255.253509 
L 264.005296 255.253509 
L 264.116939 255.253509 
L 264.116939 255.253509 
L 264.005296 254.912096 
L 264.005296 254.912096 
" style="fill:none;stroke:#1f77b4;stroke-linecap:square;stroke-width:1.5;"/>
   </g>
   <g id="matplotlib.axis_1">
    <g id="xtick_1">
     <g id="line2d_2">
      <defs>
       <path d="M 0 0 
L 0 3.5 
" id="me1ab8b2842" style="stroke:#000000;stroke-width:0.8;"/>
      </defs>
      <g>
       <use style="stroke:#000000;stroke-width:0.8;" x="101.91431" xlink:href="#me1ab8b2842" y="307.584"/>
      </g>
     </g>
     <g id="text_1">
      <!-- −200 -->
      <defs>
       <path d="M 10.59375 35.5 
L 73.1875 35.5 
L 73.1875 27.203125 
L 10.59375 27.203125 
z
" id="DejaVuSans-8722"/>
       <path d="M 19.1875 8.296875 
L 53.609375 8.296875 
L 53.609375 0 
L 7.328125 0 
L 7.328125 8.296875 
Q 12.9375 14.109375 22.625 23.890625 
Q 32.328125 33.6875 34.8125 36.53125 
Q 39.546875 41.84375 41.421875 45.53125 
Q 43.3125 49.21875 43.3125 52.78125 
Q 43.3125 58.59375 39.234375 62.25 
Q 35.15625 65.921875 28.609375 65.921875 
Q 23.96875 65.921875 18.8125 64.3125 
Q 13.671875 62.703125 7.8125 59.421875 
L 7.8125 69.390625 
Q 13.765625 71.78125 18.9375 73 
Q 24.125 74.21875 28.421875 74.21875 
Q 39.75 74.21875 46.484375 68.546875 
Q 53.21875 62.890625 53.21875 53.421875 
Q 53.21875 48.921875 51.53125 44.890625 
Q 49.859375 40.875 45.40625 35.40625 
Q 44.1875 33.984375 37.640625 27.21875 
Q 31.109375 20.453125 19.1875 8.296875 
z
" id="DejaVuSans-50"/>
       <path d="M 31.78125 66.40625 
Q 24.171875 66.40625 20.328125 58.90625 
Q 16.5 51.421875 16.5 36.375 
Q 16.5 21.390625 20.328125 13.890625 
Q 24.171875 6.390625 31.78125 6.390625 
Q 39.453125 6.390625 43.28125 13.890625 
Q 47.125 21.390625 47.125 36.375 
Q 47.125 51.421875 43.28125 58.90625 
Q 39.453125 66.40625 31.78125 66.40625 
z
M 31.78125 74.21875 
Q 44.046875 74.21875 50.515625 64.515625 
Q 56.984375 54.828125 56.984375 36.375 
Q 56.984375 17.96875 50.515625 8.265625 
Q 44.046875 -1.421875 31.78125 -1.421875 
Q 19.53125 -1.421875 13.0625 8.265625 
Q 6.59375 17.96875 6.59375 36.375 
Q 6.59375 54.828125 13.0625 64.515625 
Q 19.53125 74.21875 31.78125 74.21875 
z
" id="DejaVuSans-48"/>
      </defs>
      <g transform="translate(88.180717 322.182437)scale(0.1 -0.1)">
       <use xlink:href="#DejaVuSans-8722"/>
       <use x="83.789062" xlink:href="#DejaVuSans-50"/>
       <use x="147.412109" xlink:href="#DejaVuSans-48"/>
       <use x="211.035156" xlink:href="#DejaVuSans-48"/>
      </g>
     </g>
    </g>
    <g id="xtick_2">
     <g id="line2d_3">
      <g>
       <use style="stroke:#000000;stroke-width:0.8;" x="171.690886" xlink:href="#me1ab8b2842" y="307.584"/>
      </g>
     </g>
     <g id="text_2">
      <!-- 0 -->
      <g transform="translate(168.509636 322.182437)scale(0.1 -0.1)">
       <use xlink:href="#DejaVuSans-48"/>
      </g>
     </g>
    </g>
    <g id="xtick_3">
     <g id="line2d_4">
      <g>
       <use style="stroke:#000000;stroke-width:0.8;" x="241.467462" xlink:href="#me1ab8b2842" y="307.584"/>
      </g>
     </g>
     <g id="text_3">
      <!-- 200 -->
      <g transform="translate(231.923712 322.182437)scale(0.1 -0.1)">
       <use xlink:href="#DejaVuSans-50"/>
       <use x="63.623047" xlink:href="#DejaVuSans-48"/>
       <use x="127.246094" xlink:href="#DejaVuSans-48"/>
      </g>
     </g>
    </g>
    <g id="xtick_4">
     <g id="line2d_5">
      <g>
       <use style="stroke:#000000;stroke-width:0.8;" x="311.244038" xlink:href="#me1ab8b2842" y="307.584"/>
      </g>
     </g>
     <g id="text_4">
      <!-- 400 -->
      <defs>
       <path d="M 37.796875 64.3125 
L 12.890625 25.390625 
L 37.796875 25.390625 
z
M 35.203125 72.90625 
L 47.609375 72.90625 
L 47.609375 25.390625 
L 58.015625 25.390625 
L 58.015625 17.1875 
L 47.609375 17.1875 
L 47.609375 0 
L 37.796875 0 
L 37.796875 17.1875 
L 4.890625 17.1875 
L 4.890625 26.703125 
z
" id="DejaVuSans-52"/>
      </defs>
      <g transform="translate(301.700288 322.182437)scale(0.1 -0.1)">
       <use xlink:href="#DejaVuSans-52"/>
       <use x="63.623047" xlink:href="#DejaVuSans-48"/>
       <use x="127.246094" xlink:href="#DejaVuSans-48"/>
      </g>
     </g>
    </g>
    <g id="xtick_5">
     <g id="line2d_6">
      <g>
       <use style="stroke:#000000;stroke-width:0.8;" x="381.020614" xlink:href="#me1ab8b2842" y="307.584"/>
      </g>
     </g>
     <g id="text_5">
      <!-- 600 -->
      <defs>
       <path d="M 33.015625 40.375 
Q 26.375 40.375 22.484375 35.828125 
Q 18.609375 31.296875 18.609375 23.390625 
Q 18.609375 15.53125 22.484375 10.953125 
Q 26.375 6.390625 33.015625 6.390625 
Q 39.65625 6.390625 43.53125 10.953125 
Q 47.40625 15.53125 47.40625 23.390625 
Q 47.40625 31.296875 43.53125 35.828125 
Q 39.65625 40.375 33.015625 40.375 
z
M 52.59375 71.296875 
L 52.59375 62.3125 
Q 48.875 64.0625 45.09375 64.984375 
Q 41.3125 65.921875 37.59375 65.921875 
Q 27.828125 65.921875 22.671875 59.328125 
Q 17.53125 52.734375 16.796875 39.40625 
Q 19.671875 43.65625 24.015625 45.921875 
Q 28.375 48.1875 33.59375 48.1875 
Q 44.578125 48.1875 50.953125 41.515625 
Q 57.328125 34.859375 57.328125 23.390625 
Q 57.328125 12.15625 50.6875 5.359375 
Q 44.046875 -1.421875 33.015625 -1.421875 
Q 20.359375 -1.421875 13.671875 8.265625 
Q 6.984375 17.96875 6.984375 36.375 
Q 6.984375 53.65625 15.1875 63.9375 
Q 23.390625 74.21875 37.203125 74.21875 
Q 40.921875 74.21875 44.703125 73.484375 
Q 48.484375 72.75 52.59375 71.296875 
z
" id="DejaVuSans-54"/>
      </defs>
      <g transform="translate(371.476864 322.182437)scale(0.1 -0.1)">
       <use xlink:href="#DejaVuSans-54"/>
       <use x="63.623047" xlink:href="#DejaVuSans-48"/>
       <use x="127.246094" xlink:href="#DejaVuSans-48"/>
      </g>
     </g>
    </g>
   </g>
   <g id="matplotlib.axis_2">
    <g id="ytick_1">
     <g id="line2d_7">
      <defs>
       <path d="M 0 0 
L -3.5 0 
" id="mb3297769e9" style="stroke:#000000;stroke-width:0.8;"/>
      </defs>
      <g>
       <use style="stroke:#000000;stroke-width:0.8;" x="57.6" xlink:href="#mb3297769e9" y="277.583409"/>
      </g>
     </g>
     <g id="text_6">
      <!-- −400 -->
      <g transform="translate(23.132812 281.382628)scale(0.1 -0.1)">
       <use xlink:href="#DejaVuSans-8722"/>
       <use x="83.789062" xlink:href="#DejaVuSans-52"/>
       <use x="147.412109" xlink:href="#DejaVuSans-48"/>
       <use x="211.035156" xlink:href="#DejaVuSans-48"/>
      </g>
     </g>
    </g>
    <g id="ytick_2">
     <g id="line2d_8">
      <g>
       <use style="stroke:#000000;stroke-width:0.8;" x="57.6" xlink:href="#mb3297769e9" y="240.270517"/>
      </g>
     </g>
     <g id="text_7">
      <!-- −200 -->
      <g transform="translate(23.132812 244.069736)scale(0.1 -0.1)">
       <use xlink:href="#DejaVuSans-8722"/>
       <use x="83.789062" xlink:href="#DejaVuSans-50"/>
       <use x="147.412109" xlink:href="#DejaVuSans-48"/>
       <use x="211.035156" xlink:href="#DejaVuSans-48"/>
      </g>
     </g>
    </g>
    <g id="ytick_3">
     <g id="line2d_9">
      <g>
       <use style="stroke:#000000;stroke-width:0.8;" x="57.6" xlink:href="#mb3297769e9" y="202.957625"/>
      </g>
     </g>
     <g id="text_8">
      <!-- 0 -->
      <g transform="translate(44.2375 206.756844)scale(0.1 -0.1)">
       <use xlink:href="#DejaVuSans-48"/>
      </g>
     </g>
    </g>
    <g id="ytick_4">
     <g id="line2d_10">
      <g>
       <use style="stroke:#000000;stroke-width:0.8;" x="57.6" xlink:href="#mb3297769e9" y="165.644733"/>
      </g>
     </g>
     <g id="text_9">
      <!-- 200 -->
      <g transform="translate(31.5125 169.443952)scale(0.1 -0.1)">
       <use xlink:href="#DejaVuSans-50"/>
       <use x="63.623047" xlink:href="#DejaVuSans-48"/>
       <use x="127.246094" xlink:href="#DejaVuSans-48"/>
      </g>
     </g>
    </g>
    <g id="ytick_5">
     <g id="line2d_11">
      <g>
       <use style="stroke:#000000;stroke-width:0.8;" x="57.6" xlink:href="#mb3297769e9" y="128.331841"/>
      </g>
     </g>
     <g id="text_10">
      <!-- 400 -->
      <g transform="translate(31.5125 132.13106)scale(0.1 -0.1)">
       <use xlink:href="#DejaVuSans-52"/>
       <use x="63.623047" xlink:href="#DejaVuSans-48"/>
       <use x="127.246094" xlink:href="#DejaVuSans-48"/>
      </g>
     </g>
    </g>
    <g id="ytick_6">
     <g id="line2d_12">
      <g>
       <use style="stroke:#000000;stroke-width:0.8;" x="57.6" xlink:href="#mb3297769e9" y="91.01895"/>
      </g>
     </g>
     <g id="text_11">
      <!-- 600 -->
      <g transform="translate(31.5125 94.818168)scale(0.1 -0.1)">
       <use xlink:href="#DejaVuSans-54"/>
       <use x="63.623047" xlink:href="#DejaVuSans-48"/>
       <use x="127.246094" xlink:href="#DejaVuSans-48"/>
      </g>
     </g>
    </g>
    <g id="ytick_7">
     <g id="line2d_13">
      <g>
       <use style="stroke:#000000;stroke-width:0.8;" x="57.6" xlink:href="#mb3297769e9" y="53.706058"/>
      </g>
     </g>
     <g id="text_12">
      <!-- 800 -->
      <defs>
       <path d="M 31.78125 34.625 
Q 24.75 34.625 20.71875 30.859375 
Q 16.703125 27.09375 16.703125 20.515625 
Q 16.703125 13.921875 20.71875 10.15625 
Q 24.75 6.390625 31.78125 6.390625 
Q 38.8125 6.390625 42.859375 10.171875 
Q 46.921875 13.96875 46.921875 20.515625 
Q 46.921875 27.09375 42.890625 30.859375 
Q 38.875 34.625 31.78125 34.625 
z
M 21.921875 38.8125 
Q 15.578125 40.375 12.03125 44.71875 
Q 8.5 49.078125 8.5 55.328125 
Q 8.5 64.0625 14.71875 69.140625 
Q 20.953125 74.21875 31.78125 74.21875 
Q 42.671875 74.21875 48.875 69.140625 
Q 55.078125 64.0625 55.078125 55.328125 
Q 55.078125 49.078125 51.53125 44.71875 
Q 48 40.375 41.703125 38.8125 
Q 48.828125 37.15625 52.796875 32.3125 
Q 56.78125 27.484375 56.78125 20.515625 
Q 56.78125 9.90625 50.3125 4.234375 
Q 43.84375 -1.421875 31.78125 -1.421875 
Q 19.734375 -1.421875 13.25 4.234375 
Q 6.78125 9.90625 6.78125 20.515625 
Q 6.78125 27.484375 10.78125 32.3125 
Q 14.796875 37.15625 21.921875 38.8125 
z
M 18.3125 54.390625 
Q 18.3125 48.734375 21.84375 45.5625 
Q 25.390625 42.390625 31.78125 42.390625 
Q 38.140625 42.390625 41.71875 45.5625 
Q 45.3125 48.734375 45.3125 54.390625 
Q 45.3125 60.0625 41.71875 63.234375 
Q 38.140625 66.40625 31.78125 66.40625 
Q 25.390625 66.40625 21.84375 63.234375 
Q 18.3125 60.0625 18.3125 54.390625 
z
" id="DejaVuSans-56"/>
      </defs>
      <g transform="translate(31.5125 57.505276)scale(0.1 -0.1)">
       <use xlink:href="#DejaVuSans-56"/>
       <use x="63.623047" xlink:href="#DejaVuSans-48"/>
       <use x="127.246094" xlink:href="#DejaVuSans-48"/>
      </g>
     </g>
    </g>
   </g>
   <g id="line2d_14">
    <path clip-path="url(#p92befc2d15)" d="M 397.172999 57.327119 
L 189.403949 193.699371 
L 189.28048 256.449282 
L 75.459037 288.4717 
L 76.819419 293.352306 
L 248.859593 271.845069 
L 159.248653 146.517871 
" style="fill:none;stroke:#ff0000;stroke-linecap:square;stroke-width:0.5;"/>
   </g>
   <g id="patch_3">
    <path d="M 57.6 307.584 
L 57.6 41.472 
" style="fill:none;stroke:#000000;stroke-linecap:square;stroke-linejoin:miter;stroke-width:0.8;"/>
   </g>
   <g id="patch_4">
    <path d="M 414.72 307.584 
L 414.72 41.472 
" style="fill:none;stroke:#000000;stroke-linecap:square;stroke-linejoin:miter;stroke-width:0.8;"/>
   </g>
   <g id="patch_5">
    <path d="M 57.6 307.584 
L 414.72 307.584 
" style="fill:none;stroke:#000000;stroke-linecap:square;stroke-linejoin:miter;stroke-width:0.8;"/>
   </g>
   <g id="patch_6">
    <path d="M 57.6 41.472 
L 414.72 41.472 
" style="fill:none;stroke:#000000;stroke-linecap:square;stroke-linejoin:miter;stroke-width:0.8;"/>
   </g>
   <g id="PathCollection_1">
    <defs>
     <path d="M 0 2.738613 
C 0.726289 2.738613 1.422928 2.450055 1.936492 1.936492 
C 2.450055 1.422928 2.738613 0.726289 2.738613 0 
C 2.738613 -0.726289 2.450055 -1.422928 1.936492 -1.936492 
C 1.422928 -2.450055 0.726289 -2.738613 0 -2.738613 
C -0.726289 -2.738613 -1.422928 -2.450055 -1.936492 -1.936492 
C -2.450055 -1.422928 -2.738613 -0.726289 -2.738613 0 
C -2.738613 0.726289 -2.450055 1.422928 -1.936492 1.936492 
C -1.422928 2.450055 -0.726289 2.738613 0 2.738613 
z
" id="mb6bde37adb" style="stroke:#ff0000;"/>
    </defs>
    <g clip-path="url(#p92befc2d15)">
     <use style="fill:#ff0000;stroke:#ff0000;" x="397.172999" xlink:href="#mb6bde37adb" y="57.327119"/>
     <use style="fill:#ff0000;stroke:#ff0000;" x="189.403949" xlink:href="#mb6bde37adb" y="193.699371"/>
     <use style="fill:#ff0000;stroke:#ff0000;" x="189.28048" xlink:href="#mb6bde37adb" y="256.449282"/>
     <use style="fill:#ff0000;stroke:#ff0000;" x="75.459037" xlink:href="#mb6bde37adb" y="288.4717"/>
     <use style="fill:#ff0000;stroke:#ff0000;" x="76.819419" xlink:href="#mb6bde37adb" y="293.352306"/>
     <use style="fill:#ff0000;stroke:#ff0000;" x="248.859593" xlink:href="#mb6bde37adb" y="271.845069"/>
     <use style="fill:#ff0000;stroke:#ff0000;" x="159.248653" xlink:href="#mb6bde37adb" y="146.517871"/>
    </g>
   </g>
   <g id="text_13">
    <!-- (55) Subject: s27, Known = False, Degree = 1, Duration = 0.1 -->
    <defs>
     <path d="M 31 75.875 
Q 24.46875 64.65625 21.28125 53.65625 
Q 18.109375 42.671875 18.109375 31.390625 
Q 18.109375 20.125 21.3125 9.0625 
Q 24.515625 -2 31 -13.1875 
L 23.1875 -13.1875 
Q 15.875 -1.703125 12.234375 9.375 
Q 8.59375 20.453125 8.59375 31.390625 
Q 8.59375 42.28125 12.203125 53.3125 
Q 15.828125 64.359375 23.1875 75.875 
z
" id="DejaVuSans-40"/>
     <path d="M 10.796875 72.90625 
L 49.515625 72.90625 
L 49.515625 64.59375 
L 19.828125 64.59375 
L 19.828125 46.734375 
Q 21.96875 47.46875 24.109375 47.828125 
Q 26.265625 48.1875 28.421875 48.1875 
Q 40.625 48.1875 47.75 41.5 
Q 54.890625 34.8125 54.890625 23.390625 
Q 54.890625 11.625 47.5625 5.09375 
Q 40.234375 -1.421875 26.90625 -1.421875 
Q 22.3125 -1.421875 17.546875 -0.640625 
Q 12.796875 0.140625 7.71875 1.703125 
L 7.71875 11.625 
Q 12.109375 9.234375 16.796875 8.0625 
Q 21.484375 6.890625 26.703125 6.890625 
Q 35.15625 6.890625 40.078125 11.328125 
Q 45.015625 15.765625 45.015625 23.390625 
Q 45.015625 31 40.078125 35.4375 
Q 35.15625 39.890625 26.703125 39.890625 
Q 22.75 39.890625 18.8125 39.015625 
Q 14.890625 38.140625 10.796875 36.28125 
z
" id="DejaVuSans-53"/>
     <path d="M 8.015625 75.875 
L 15.828125 75.875 
Q 23.140625 64.359375 26.78125 53.3125 
Q 30.421875 42.28125 30.421875 31.390625 
Q 30.421875 20.453125 26.78125 9.375 
Q 23.140625 -1.703125 15.828125 -13.1875 
L 8.015625 -13.1875 
Q 14.5 -2 17.703125 9.0625 
Q 20.90625 20.125 20.90625 31.390625 
Q 20.90625 42.671875 17.703125 53.65625 
Q 14.5 64.65625 8.015625 75.875 
z
" id="DejaVuSans-41"/>
     <path id="DejaVuSans-32"/>
     <path d="M 53.515625 70.515625 
L 53.515625 60.890625 
Q 47.90625 63.578125 42.921875 64.890625 
Q 37.9375 66.21875 33.296875 66.21875 
Q 25.25 66.21875 20.875 63.09375 
Q 16.5 59.96875 16.5 54.203125 
Q 16.5 49.359375 19.40625 46.890625 
Q 22.3125 44.4375 30.421875 42.921875 
L 36.375 41.703125 
Q 47.40625 39.59375 52.65625 34.296875 
Q 57.90625 29 57.90625 20.125 
Q 57.90625 9.515625 50.796875 4.046875 
Q 43.703125 -1.421875 29.984375 -1.421875 
Q 24.8125 -1.421875 18.96875 -0.25 
Q 13.140625 0.921875 6.890625 3.21875 
L 6.890625 13.375 
Q 12.890625 10.015625 18.65625 8.296875 
Q 24.421875 6.59375 29.984375 6.59375 
Q 38.421875 6.59375 43.015625 9.90625 
Q 47.609375 13.234375 47.609375 19.390625 
Q 47.609375 24.75 44.3125 27.78125 
Q 41.015625 30.8125 33.5 32.328125 
L 27.484375 33.5 
Q 16.453125 35.6875 11.515625 40.375 
Q 6.59375 45.0625 6.59375 53.421875 
Q 6.59375 63.09375 13.40625 68.65625 
Q 20.21875 74.21875 32.171875 74.21875 
Q 37.3125 74.21875 42.625 73.28125 
Q 47.953125 72.359375 53.515625 70.515625 
z
" id="DejaVuSans-83"/>
     <path d="M 8.5 21.578125 
L 8.5 54.6875 
L 17.484375 54.6875 
L 17.484375 21.921875 
Q 17.484375 14.15625 20.5 10.265625 
Q 23.53125 6.390625 29.59375 6.390625 
Q 36.859375 6.390625 41.078125 11.03125 
Q 45.3125 15.671875 45.3125 23.6875 
L 45.3125 54.6875 
L 54.296875 54.6875 
L 54.296875 0 
L 45.3125 0 
L 45.3125 8.40625 
Q 42.046875 3.421875 37.71875 1 
Q 33.40625 -1.421875 27.6875 -1.421875 
Q 18.265625 -1.421875 13.375 4.4375 
Q 8.5 10.296875 8.5 21.578125 
z
M 31.109375 56 
z
" id="DejaVuSans-117"/>
     <path d="M 48.6875 27.296875 
Q 48.6875 37.203125 44.609375 42.84375 
Q 40.53125 48.484375 33.40625 48.484375 
Q 26.265625 48.484375 22.1875 42.84375 
Q 18.109375 37.203125 18.109375 27.296875 
Q 18.109375 17.390625 22.1875 11.75 
Q 26.265625 6.109375 33.40625 6.109375 
Q 40.53125 6.109375 44.609375 11.75 
Q 48.6875 17.390625 48.6875 27.296875 
z
M 18.109375 46.390625 
Q 20.953125 51.265625 25.265625 53.625 
Q 29.59375 56 35.59375 56 
Q 45.5625 56 51.78125 48.09375 
Q 58.015625 40.1875 58.015625 27.296875 
Q 58.015625 14.40625 51.78125 6.484375 
Q 45.5625 -1.421875 35.59375 -1.421875 
Q 29.59375 -1.421875 25.265625 0.953125 
Q 20.953125 3.328125 18.109375 8.203125 
L 18.109375 0 
L 9.078125 0 
L 9.078125 75.984375 
L 18.109375 75.984375 
z
" id="DejaVuSans-98"/>
     <path d="M 9.421875 54.6875 
L 18.40625 54.6875 
L 18.40625 -0.984375 
Q 18.40625 -11.421875 14.421875 -16.109375 
Q 10.453125 -20.796875 1.609375 -20.796875 
L -1.8125 -20.796875 
L -1.8125 -13.1875 
L 0.59375 -13.1875 
Q 5.71875 -13.1875 7.5625 -10.8125 
Q 9.421875 -8.453125 9.421875 -0.984375 
z
M 9.421875 75.984375 
L 18.40625 75.984375 
L 18.40625 64.59375 
L 9.421875 64.59375 
z
" id="DejaVuSans-106"/>
     <path d="M 56.203125 29.59375 
L 56.203125 25.203125 
L 14.890625 25.203125 
Q 15.484375 15.921875 20.484375 11.0625 
Q 25.484375 6.203125 34.421875 6.203125 
Q 39.59375 6.203125 44.453125 7.46875 
Q 49.3125 8.734375 54.109375 11.28125 
L 54.109375 2.78125 
Q 49.265625 0.734375 44.1875 -0.34375 
Q 39.109375 -1.421875 33.890625 -1.421875 
Q 20.796875 -1.421875 13.15625 6.1875 
Q 5.515625 13.8125 5.515625 26.8125 
Q 5.515625 40.234375 12.765625 48.109375 
Q 20.015625 56 32.328125 56 
Q 43.359375 56 49.78125 48.890625 
Q 56.203125 41.796875 56.203125 29.59375 
z
M 47.21875 32.234375 
Q 47.125 39.59375 43.09375 43.984375 
Q 39.0625 48.390625 32.421875 48.390625 
Q 24.90625 48.390625 20.390625 44.140625 
Q 15.875 39.890625 15.1875 32.171875 
z
" id="DejaVuSans-101"/>
     <path d="M 48.78125 52.59375 
L 48.78125 44.1875 
Q 44.96875 46.296875 41.140625 47.34375 
Q 37.3125 48.390625 33.40625 48.390625 
Q 24.65625 48.390625 19.8125 42.84375 
Q 14.984375 37.3125 14.984375 27.296875 
Q 14.984375 17.28125 19.8125 11.734375 
Q 24.65625 6.203125 33.40625 6.203125 
Q 37.3125 6.203125 41.140625 7.25 
Q 44.96875 8.296875 48.78125 10.40625 
L 48.78125 2.09375 
Q 45.015625 0.34375 40.984375 -0.53125 
Q 36.96875 -1.421875 32.421875 -1.421875 
Q 20.0625 -1.421875 12.78125 6.34375 
Q 5.515625 14.109375 5.515625 27.296875 
Q 5.515625 40.671875 12.859375 48.328125 
Q 20.21875 56 33.015625 56 
Q 37.15625 56 41.109375 55.140625 
Q 45.0625 54.296875 48.78125 52.59375 
z
" id="DejaVuSans-99"/>
     <path d="M 18.3125 70.21875 
L 18.3125 54.6875 
L 36.8125 54.6875 
L 36.8125 47.703125 
L 18.3125 47.703125 
L 18.3125 18.015625 
Q 18.3125 11.328125 20.140625 9.421875 
Q 21.96875 7.515625 27.59375 7.515625 
L 36.8125 7.515625 
L 36.8125 0 
L 27.59375 0 
Q 17.1875 0 13.234375 3.875 
Q 9.28125 7.765625 9.28125 18.015625 
L 9.28125 47.703125 
L 2.6875 47.703125 
L 2.6875 54.6875 
L 9.28125 54.6875 
L 9.28125 70.21875 
z
" id="DejaVuSans-116"/>
     <path d="M 11.71875 12.40625 
L 22.015625 12.40625 
L 22.015625 0 
L 11.71875 0 
z
M 11.71875 51.703125 
L 22.015625 51.703125 
L 22.015625 39.3125 
L 11.71875 39.3125 
z
" id="DejaVuSans-58"/>
     <path d="M 44.28125 53.078125 
L 44.28125 44.578125 
Q 40.484375 46.53125 36.375 47.5 
Q 32.28125 48.484375 27.875 48.484375 
Q 21.1875 48.484375 17.84375 46.4375 
Q 14.5 44.390625 14.5 40.28125 
Q 14.5 37.15625 16.890625 35.375 
Q 19.28125 33.59375 26.515625 31.984375 
L 29.59375 31.296875 
Q 39.15625 29.25 43.1875 25.515625 
Q 47.21875 21.78125 47.21875 15.09375 
Q 47.21875 7.46875 41.1875 3.015625 
Q 35.15625 -1.421875 24.609375 -1.421875 
Q 20.21875 -1.421875 15.453125 -0.5625 
Q 10.6875 0.296875 5.421875 2 
L 5.421875 11.28125 
Q 10.40625 8.6875 15.234375 7.390625 
Q 20.0625 6.109375 24.8125 6.109375 
Q 31.15625 6.109375 34.5625 8.28125 
Q 37.984375 10.453125 37.984375 14.40625 
Q 37.984375 18.0625 35.515625 20.015625 
Q 33.0625 21.96875 24.703125 23.78125 
L 21.578125 24.515625 
Q 13.234375 26.265625 9.515625 29.90625 
Q 5.8125 33.546875 5.8125 39.890625 
Q 5.8125 47.609375 11.28125 51.796875 
Q 16.75 56 26.8125 56 
Q 31.78125 56 36.171875 55.265625 
Q 40.578125 54.546875 44.28125 53.078125 
z
" id="DejaVuSans-115"/>
     <path d="M 8.203125 72.90625 
L 55.078125 72.90625 
L 55.078125 68.703125 
L 28.609375 0 
L 18.3125 0 
L 43.21875 64.59375 
L 8.203125 64.59375 
z
" id="DejaVuSans-55"/>
     <path d="M 11.71875 12.40625 
L 22.015625 12.40625 
L 22.015625 4 
L 14.015625 -11.625 
L 7.71875 -11.625 
L 11.71875 4 
z
" id="DejaVuSans-44"/>
     <path d="M 9.8125 72.90625 
L 19.671875 72.90625 
L 19.671875 42.09375 
L 52.390625 72.90625 
L 65.09375 72.90625 
L 28.90625 38.921875 
L 67.671875 0 
L 54.6875 0 
L 19.671875 35.109375 
L 19.671875 0 
L 9.8125 0 
z
" id="DejaVuSans-75"/>
     <path d="M 54.890625 33.015625 
L 54.890625 0 
L 45.90625 0 
L 45.90625 32.71875 
Q 45.90625 40.484375 42.875 44.328125 
Q 39.84375 48.1875 33.796875 48.1875 
Q 26.515625 48.1875 22.3125 43.546875 
Q 18.109375 38.921875 18.109375 30.90625 
L 18.109375 0 
L 9.078125 0 
L 9.078125 54.6875 
L 18.109375 54.6875 
L 18.109375 46.1875 
Q 21.34375 51.125 25.703125 53.5625 
Q 30.078125 56 35.796875 56 
Q 45.21875 56 50.046875 50.171875 
Q 54.890625 44.34375 54.890625 33.015625 
z
" id="DejaVuSans-110"/>
     <path d="M 30.609375 48.390625 
Q 23.390625 48.390625 19.1875 42.75 
Q 14.984375 37.109375 14.984375 27.296875 
Q 14.984375 17.484375 19.15625 11.84375 
Q 23.34375 6.203125 30.609375 6.203125 
Q 37.796875 6.203125 41.984375 11.859375 
Q 46.1875 17.53125 46.1875 27.296875 
Q 46.1875 37.015625 41.984375 42.703125 
Q 37.796875 48.390625 30.609375 48.390625 
z
M 30.609375 56 
Q 42.328125 56 49.015625 48.375 
Q 55.71875 40.765625 55.71875 27.296875 
Q 55.71875 13.875 49.015625 6.21875 
Q 42.328125 -1.421875 30.609375 -1.421875 
Q 18.84375 -1.421875 12.171875 6.21875 
Q 5.515625 13.875 5.515625 27.296875 
Q 5.515625 40.765625 12.171875 48.375 
Q 18.84375 56 30.609375 56 
z
" id="DejaVuSans-111"/>
     <path d="M 4.203125 54.6875 
L 13.1875 54.6875 
L 24.421875 12.015625 
L 35.59375 54.6875 
L 46.1875 54.6875 
L 57.421875 12.015625 
L 68.609375 54.6875 
L 77.59375 54.6875 
L 63.28125 0 
L 52.6875 0 
L 40.921875 44.828125 
L 29.109375 0 
L 18.5 0 
z
" id="DejaVuSans-119"/>
     <path d="M 10.59375 45.40625 
L 73.1875 45.40625 
L 73.1875 37.203125 
L 10.59375 37.203125 
z
M 10.59375 25.484375 
L 73.1875 25.484375 
L 73.1875 17.1875 
L 10.59375 17.1875 
z
" id="DejaVuSans-61"/>
     <path d="M 9.8125 72.90625 
L 51.703125 72.90625 
L 51.703125 64.59375 
L 19.671875 64.59375 
L 19.671875 43.109375 
L 48.578125 43.109375 
L 48.578125 34.8125 
L 19.671875 34.8125 
L 19.671875 0 
L 9.8125 0 
z
" id="DejaVuSans-70"/>
     <path d="M 34.28125 27.484375 
Q 23.390625 27.484375 19.1875 25 
Q 14.984375 22.515625 14.984375 16.5 
Q 14.984375 11.71875 18.140625 8.90625 
Q 21.296875 6.109375 26.703125 6.109375 
Q 34.1875 6.109375 38.703125 11.40625 
Q 43.21875 16.703125 43.21875 25.484375 
L 43.21875 27.484375 
z
M 52.203125 31.203125 
L 52.203125 0 
L 43.21875 0 
L 43.21875 8.296875 
Q 40.140625 3.328125 35.546875 0.953125 
Q 30.953125 -1.421875 24.3125 -1.421875 
Q 15.921875 -1.421875 10.953125 3.296875 
Q 6 8.015625 6 15.921875 
Q 6 25.140625 12.171875 29.828125 
Q 18.359375 34.515625 30.609375 34.515625 
L 43.21875 34.515625 
L 43.21875 35.40625 
Q 43.21875 41.609375 39.140625 45 
Q 35.0625 48.390625 27.6875 48.390625 
Q 23 48.390625 18.546875 47.265625 
Q 14.109375 46.140625 10.015625 43.890625 
L 10.015625 52.203125 
Q 14.9375 54.109375 19.578125 55.046875 
Q 24.21875 56 28.609375 56 
Q 40.484375 56 46.34375 49.84375 
Q 52.203125 43.703125 52.203125 31.203125 
z
" id="DejaVuSans-97"/>
     <path d="M 9.421875 75.984375 
L 18.40625 75.984375 
L 18.40625 0 
L 9.421875 0 
z
" id="DejaVuSans-108"/>
     <path d="M 19.671875 64.796875 
L 19.671875 8.109375 
L 31.59375 8.109375 
Q 46.6875 8.109375 53.6875 14.9375 
Q 60.6875 21.78125 60.6875 36.53125 
Q 60.6875 51.171875 53.6875 57.984375 
Q 46.6875 64.796875 31.59375 64.796875 
z
M 9.8125 72.90625 
L 30.078125 72.90625 
Q 51.265625 72.90625 61.171875 64.09375 
Q 71.09375 55.28125 71.09375 36.53125 
Q 71.09375 17.671875 61.125 8.828125 
Q 51.171875 0 30.078125 0 
L 9.8125 0 
z
" id="DejaVuSans-68"/>
     <path d="M 45.40625 27.984375 
Q 45.40625 37.75 41.375 43.109375 
Q 37.359375 48.484375 30.078125 48.484375 
Q 22.859375 48.484375 18.828125 43.109375 
Q 14.796875 37.75 14.796875 27.984375 
Q 14.796875 18.265625 18.828125 12.890625 
Q 22.859375 7.515625 30.078125 7.515625 
Q 37.359375 7.515625 41.375 12.890625 
Q 45.40625 18.265625 45.40625 27.984375 
z
M 54.390625 6.78125 
Q 54.390625 -7.171875 48.1875 -13.984375 
Q 42 -20.796875 29.203125 -20.796875 
Q 24.46875 -20.796875 20.265625 -20.09375 
Q 16.0625 -19.390625 12.109375 -17.921875 
L 12.109375 -9.1875 
Q 16.0625 -11.328125 19.921875 -12.34375 
Q 23.78125 -13.375 27.78125 -13.375 
Q 36.625 -13.375 41.015625 -8.765625 
Q 45.40625 -4.15625 45.40625 5.171875 
L 45.40625 9.625 
Q 42.625 4.78125 38.28125 2.390625 
Q 33.9375 0 27.875 0 
Q 17.828125 0 11.671875 7.65625 
Q 5.515625 15.328125 5.515625 27.984375 
Q 5.515625 40.671875 11.671875 48.328125 
Q 17.828125 56 27.875 56 
Q 33.9375 56 38.28125 53.609375 
Q 42.625 51.21875 45.40625 46.390625 
L 45.40625 54.6875 
L 54.390625 54.6875 
z
" id="DejaVuSans-103"/>
     <path d="M 41.109375 46.296875 
Q 39.59375 47.171875 37.8125 47.578125 
Q 36.03125 48 33.890625 48 
Q 26.265625 48 22.1875 43.046875 
Q 18.109375 38.09375 18.109375 28.8125 
L 18.109375 0 
L 9.078125 0 
L 9.078125 54.6875 
L 18.109375 54.6875 
L 18.109375 46.1875 
Q 20.953125 51.171875 25.484375 53.578125 
Q 30.03125 56 36.53125 56 
Q 37.453125 56 38.578125 55.875 
Q 39.703125 55.765625 41.0625 55.515625 
z
" id="DejaVuSans-114"/>
     <path d="M 12.40625 8.296875 
L 28.515625 8.296875 
L 28.515625 63.921875 
L 10.984375 60.40625 
L 10.984375 69.390625 
L 28.421875 72.90625 
L 38.28125 72.90625 
L 38.28125 8.296875 
L 54.390625 8.296875 
L 54.390625 0 
L 12.40625 0 
z
" id="DejaVuSans-49"/>
     <path d="M 9.421875 54.6875 
L 18.40625 54.6875 
L 18.40625 0 
L 9.421875 0 
z
M 9.421875 75.984375 
L 18.40625 75.984375 
L 18.40625 64.59375 
L 9.421875 64.59375 
z
" id="DejaVuSans-105"/>
     <path d="M 10.6875 12.40625 
L 21 12.40625 
L 21 0 
L 10.6875 0 
z
" id="DejaVuSans-46"/>
    </defs>
    <g transform="translate(49.741875 35.472)scale(0.12 -0.12)">
     <use xlink:href="#DejaVuSans-40"/>
     <use x="39.013672" xlink:href="#DejaVuSans-53"/>
     <use x="102.636719" xlink:href="#DejaVuSans-53"/>
     <use x="166.259766" xlink:href="#DejaVuSans-41"/>
     <use x="205.273438" xlink:href="#DejaVuSans-32"/>
     <use x="237.060547" xlink:href="#DejaVuSans-83"/>
     <use x="300.537109" xlink:href="#DejaVuSans-117"/>
     <use x="363.916016" xlink:href="#DejaVuSans-98"/>
     <use x="427.392578" xlink:href="#DejaVuSans-106"/>
     <use x="455.175781" xlink:href="#DejaVuSans-101"/>
     <use x="516.699219" xlink:href="#DejaVuSans-99"/>
     <use x="571.679688" xlink:href="#DejaVuSans-116"/>
     <use x="610.888672" xlink:href="#DejaVuSans-58"/>
     <use x="644.580078" xlink:href="#DejaVuSans-32"/>
     <use x="676.367188" xlink:href="#DejaVuSans-115"/>
     <use x="728.466797" xlink:href="#DejaVuSans-50"/>
     <use x="792.089844" xlink:href="#DejaVuSans-55"/>
     <use x="855.712891" xlink:href="#DejaVuSans-44"/>
     <use x="887.5" xlink:href="#DejaVuSans-32"/>
     <use x="919.287109" xlink:href="#DejaVuSans-75"/>
     <use x="984.863281" xlink:href="#DejaVuSans-110"/>
     <use x="1048.242188" xlink:href="#DejaVuSans-111"/>
     <use x="1109.423828" xlink:href="#DejaVuSans-119"/>
     <use x="1191.210938" xlink:href="#DejaVuSans-110"/>
     <use x="1254.589844" xlink:href="#DejaVuSans-32"/>
     <use x="1286.376953" xlink:href="#DejaVuSans-61"/>
     <use x="1370.166016" xlink:href="#DejaVuSans-32"/>
     <use x="1401.953125" xlink:href="#DejaVuSans-70"/>
     <use x="1459.332031" xlink:href="#DejaVuSans-97"/>
     <use x="1520.611328" xlink:href="#DejaVuSans-108"/>
     <use x="1548.394531" xlink:href="#DejaVuSans-115"/>
     <use x="1600.494141" xlink:href="#DejaVuSans-101"/>
     <use x="1662.017578" xlink:href="#DejaVuSans-44"/>
     <use x="1693.804688" xlink:href="#DejaVuSans-32"/>
     <use x="1725.591797" xlink:href="#DejaVuSans-68"/>
     <use x="1802.59375" xlink:href="#DejaVuSans-101"/>
     <use x="1864.117188" xlink:href="#DejaVuSans-103"/>
     <use x="1927.59375" xlink:href="#DejaVuSans-114"/>
     <use x="1968.675781" xlink:href="#DejaVuSans-101"/>
     <use x="2030.199219" xlink:href="#DejaVuSans-101"/>
     <use x="2091.722656" xlink:href="#DejaVuSans-32"/>
     <use x="2123.509766" xlink:href="#DejaVuSans-61"/>
     <use x="2207.298828" xlink:href="#DejaVuSans-32"/>
     <use x="2239.085938" xlink:href="#DejaVuSans-49"/>
     <use x="2302.708984" xlink:href="#DejaVuSans-44"/>
     <use x="2334.496094" xlink:href="#DejaVuSans-32"/>
     <use x="2366.283203" xlink:href="#DejaVuSans-68"/>
     <use x="2443.285156" xlink:href="#DejaVuSans-117"/>
     <use x="2506.664062" xlink:href="#DejaVuSans-114"/>
     <use x="2547.777344" xlink:href="#DejaVuSans-97"/>
     <use x="2609.056641" xlink:href="#DejaVuSans-116"/>
     <use x="2648.265625" xlink:href="#DejaVuSans-105"/>
     <use x="2676.048828" xlink:href="#DejaVuSans-111"/>
     <use x="2737.230469" xlink:href="#DejaVuSans-110"/>
     <use x="2800.609375" xlink:href="#DejaVuSans-32"/>
     <use x="2832.396484" xlink:href="#DejaVuSans-61"/>
     <use x="2916.185547" xlink:href="#DejaVuSans-32"/>
     <use x="2947.972656" xlink:href="#DejaVuSans-48"/>
     <use x="3011.595703" xlink:href="#DejaVuSans-46"/>
     <use x="3043.382812" xlink:href="#DejaVuSans-49"/>
    </g>
   </g>
  </g>
 </g>
 <defs>
  <clipPath id="p92befc2d15">
   <rect height="266.112" width="357.12" x="57.6" y="41.472"/>
  </clipPath>
 </defs>
</svg>
