<?xml version="1.0" encoding="utf-8" standalone="no"?>
<!DOCTYPE svg PUBLIC "-//W3C//DTD SVG 1.1//EN"
  "http://www.w3.org/Graphics/SVG/1.1/DTD/svg11.dtd">
<!-- Created with matplotlib (https://matplotlib.org/) -->
<svg height="345.6pt" version="1.1" viewBox="0 0 460.8 345.6" width="460.8pt" xmlns="http://www.w3.org/2000/svg" xmlns:xlink="http://www.w3.org/1999/xlink">
 <defs>
  <style type="text/css">
*{stroke-linecap:butt;stroke-linejoin:round;}
  </style>
 </defs>
 <g id="figure_1">
  <g id="patch_1">
   <path d="M 0 345.6 
L 460.8 345.6 
L 460.8 0 
L 0 0 
z
" style="fill:#ffffff;"/>
  </g>
  <g id="axes_1">
   <g id="patch_2">
    <path d="M 57.6 307.584 
L 414.72 307.584 
L 414.72 41.472 
L 57.6 41.472 
z
" style="fill:#ffffff;"/>
   </g>
   <g id="line2d_1">
    <path clip-path="url(#pf6de6e0d6c)" d="M 354.731116 161.651874 
L 354.340668 158.223639 
L 354.340668 153.081287 
L 355.121563 156.509522 
L 355.512011 159.937757 
L 354.340668 159.937757 
L 354.340668 161.651874 
L 354.731116 161.651874 
L 355.121563 163.379489 
L 355.121563 163.379489 
L 355.121563 161.651874 
L 354.731116 159.937757 
L 354.340668 159.937757 
L 354.340668 165.093606 
L 355.121563 166.807723 
L 355.512011 165.093606 
L 355.512011 165.093606 
L 355.121563 165.093606 
L 355.121563 163.379489 
L 355.121563 163.379489 
L 354.340668 161.651874 
L 353.950221 161.651874 
L 354.731116 163.379489 
L 355.121563 165.093606 
L 355.512011 165.093606 
L 355.512011 165.093606 
L 355.512011 163.379489 
L 354.731116 161.651874 
L 354.340668 159.937757 
L 355.121563 158.223639 
L 355.121563 158.223639 
L 355.121563 156.509522 
L 355.121563 156.509522 
L 354.731116 156.509522 
L 354.340668 158.223639 
L 355.121563 158.223639 
L 355.512011 153.081287 
L 355.512011 147.925438 
L 354.731116 147.925438 
L 353.950221 149.653052 
L 353.559773 151.36717 
L 353.950221 154.795405 
L 354.340668 156.509522 
L 353.950221 158.223639 
L 352.778878 159.937757 
L 353.169326 158.223639 
L 354.731116 158.223639 
L 355.121563 156.509522 
L 354.731116 156.509522 
L 354.340668 158.223639 
L 355.121563 158.223639 
L 354.731116 156.509522 
L 353.950221 154.795405 
L 354.731116 153.081287 
L 355.121563 154.795405 
L 354.731116 156.509522 
L 353.559773 158.223639 
L 353.559773 156.509522 
L 354.340668 156.509522 
L 354.731116 154.795405 
L 354.340668 151.36717 
L 353.950221 149.653052 
L 353.169326 153.081287 
L 353.169326 156.509522 
L 353.559773 158.223639 
L 353.559773 154.795405 
L 353.950221 149.653052 
L 354.340668 149.653052 
L 354.340668 149.653052 
L 353.950221 151.36717 
L 354.340668 154.795405 
L 355.121563 158.223639 
L 355.902459 158.223639 
L 355.512011 153.081287 
L 354.340668 147.925438 
L 353.559773 147.925438 
L 353.950221 149.653052 
L 355.121563 151.36717 
L 355.512011 153.081287 
L 355.121563 147.925438 
L 355.121563 144.497203 
L 355.512011 144.497203 
L 355.121563 149.653052 
L 354.340668 153.081287 
L 353.169326 151.36717 
L 355.512011 151.36717 
L 355.512011 149.653052 
L 354.731116 151.36717 
L 354.340668 153.081287 
L 353.950221 153.081287 
L 353.950221 153.081287 
L 353.559773 154.795405 
L 354.340668 154.795405 
L 355.121563 156.509522 
L 355.512011 156.509522 
L 355.512011 156.509522 
L 355.512011 158.223639 
L 354.731116 161.651874 
L 355.512011 161.651874 
L 354.731116 159.937757 
L 353.559773 159.937757 
L 353.559773 158.223639 
L 353.950221 158.223639 
L 353.950221 156.509522 
L 353.950221 158.223639 
L 354.340668 156.509522 
L 354.340668 158.223639 
L 354.340668 154.795405 
L 354.340668 154.795405 
L 353.950221 156.509522 
L 353.950221 154.795405 
L 354.340668 151.36717 
L 354.731116 149.653052 
L 355.121563 149.653052 
L 355.512011 151.36717 
L 354.731116 151.36717 
L 354.731116 149.653052 
L 354.731116 151.36717 
L 353.950221 153.081287 
L 353.950221 153.081287 
L 355.121563 147.925438 
L 355.512011 144.497203 
L 355.512011 146.211321 
L 355.121563 146.211321 
L 355.121563 146.211321 
L 355.121563 151.36717 
L 355.902459 149.653052 
L 355.902459 146.211321 
L 355.121563 142.783086 
L 355.512011 144.497203 
L 355.902459 144.497203 
L 356.292906 146.211321 
L 356.683354 146.211321 
L 356.683354 142.783086 
L 356.292906 139.354851 
L 355.512011 134.199002 
L 355.121563 130.770767 
L 355.121563 129.05665 
L 355.121563 129.05665 
L 354.731116 129.05665 
L 355.121563 132.484885 
L 355.121563 132.484885 
L 355.512011 130.770767 
L 354.731116 134.199002 
L 354.340668 134.199002 
L 354.340668 129.05665 
L 355.512011 130.770767 
L 355.902459 129.05665 
L 355.121563 125.628415 
L 354.340668 127.342532 
L 354.340668 130.770767 
L 354.731116 130.770767 
L 354.731116 115.330214 
L 353.559773 113.616096 
L 353.559773 115.330214 
L 353.950221 115.330214 
L 354.340668 111.901979 
L 354.340668 106.74613 
L 354.340668 106.74613 
L 353.950221 105.032012 
L 353.559773 105.032012 
L 353.950221 105.032012 
L 354.340668 106.74613 
L 354.340668 110.187862 
L 353.169326 105.032012 
L 353.559773 101.603778 
L 354.340668 99.88966 
L 354.731116 99.88966 
L 354.340668 103.317895 
L 353.559773 106.74613 
L 353.559773 108.473744 
L 354.340668 106.74613 
L 354.731116 105.032012 
L 354.340668 105.032012 
L 353.950221 106.74613 
L 354.731116 103.317895 
L 354.731116 99.88966 
L 354.340668 99.88966 
L 353.169326 94.747308 
L 352.778878 94.747308 
L 353.169326 98.175543 
L 353.950221 101.603778 
L 353.950221 99.88966 
L 354.340668 99.88966 
L 354.731116 98.175543 
L 354.340668 99.88966 
L 353.950221 99.88966 
L 354.340668 96.461426 
L 355.121563 94.747308 
L 355.121563 93.019694 
L 355.512011 94.747308 
L 355.902459 94.747308 
L 355.902459 96.461426 
L 355.121563 93.019694 
L 355.512011 91.305576 
L 355.902459 91.305576 
L 356.292906 89.591459 
L 357.464249 91.305576 
L 357.854696 94.747308 
L 357.073801 96.461426 
L 356.292906 94.747308 
L 355.902459 93.019694 
L 355.512011 89.591459 
L 355.512011 89.591459 
L 355.512011 86.163224 
L 355.512011 96.461426 
L 355.512011 96.461426 
L 355.902459 94.747308 
L 355.902459 91.305576 
L 356.683354 87.877342 
L 357.464249 86.163224 
L 357.464249 87.877342 
L 357.073801 86.163224 
L 356.683354 86.163224 
L 357.073801 86.163224 
L 357.073801 84.449107 
L 356.683354 86.163224 
L 357.073801 86.163224 
L 357.464249 81.020872 
L 357.464249 75.865023 
L 357.464249 77.57914 
L 358.245144 81.020872 
L 358.635591 81.020872 
L 359.026039 75.865023 
L 359.026039 74.150906 
L 359.026039 77.57914 
L 358.635591 79.306755 
L 357.854696 77.57914 
L 357.464249 75.865023 
L 357.854696 77.57914 
L 360.202588 77.57914 
L 360.202588 77.57914 
L 360.202588 81.020872 
L 359.806934 79.306755 
L 360.202588 75.865023 
L 360.983483 75.865023 
L 361.37393 79.306755 
L 360.593035 82.73499 
L 360.202588 79.306755 
L 360.202588 75.865023 
L 360.593035 74.150906 
L 360.202588 75.865023 
L 360.202588 77.57914 
L 360.593035 79.306755 
L 360.983483 79.306755 
L 360.983483 74.150906 
L 361.37393 72.436788 
L 361.764378 72.436788 
L 360.202588 75.865023 
L 359.806934 77.57914 
L 360.983483 75.865023 
L 362.154826 72.436788 
L 361.764378 70.722671 
L 361.37393 74.150906 
L 360.983483 74.150906 
L 360.593035 72.436788 
L 359.806934 70.722671 
L 359.416487 72.436788 
L 360.202588 72.436788 
L 360.983483 69.008553 
L 360.593035 67.294436 
L 359.026039 69.008553 
L 357.073801 70.722671 
L 355.512011 67.294436 
L 353.559773 62.138587 
L 350.430987 56.996235 
L 341.835934 56.996235 
L 336.369668 55.282117 
L 331.288644 55.282117 
L 325.041483 53.568 
L 317.227326 56.996235 
L 309.022721 62.138587 
L 300.037221 62.138587 
L 290.270826 58.710352 
L 280.504431 56.996235 
L 270.342383 58.710352 
L 259.404645 62.138587 
L 248.466907 63.852704 
L 237.919617 67.294436 
L 227.762774 72.436788 
L 217.210278 79.306755 
L 207.053436 87.877342 
L 196.896593 94.747308 
L 186.349303 101.603778 
L 176.582908 106.74613 
L 167.20696 111.901979 
L 115.636646 111.901979 
L 109.774727 115.330214 
L 104.308461 118.758449 
L 99.227437 122.20018 
L 94.53686 127.342532 
L 90.241937 132.484885 
L 86.337461 139.354851 
L 82.818227 144.497203 
L 79.694647 149.653052 
L 76.956308 147.925438 
L 75.784965 142.783086 
L 75.00407 144.497203 
L 73.832727 154.795405 
L 74.223175 158.223639 
L 75.394518 159.937757 
L 76.956308 159.937757 
L 77.351961 163.379489 
L 77.351961 168.521841 
L 77.742409 173.664193 
L 78.913752 175.37831 
L 80.865989 173.664193 
L 82.037332 171.950075 
L 82.818227 173.664193 
L 82.818227 190.832361 
L 82.42778 187.390629 
L 82.037332 189.104746 
L 82.037332 194.260595 
L 82.818227 199.402948 
L 83.208675 201.117065 
L 83.599122 197.68883 
L 83.208675 197.68883 
L 82.037332 202.831182 
L 81.646884 207.987031 
L 81.646884 213.129384 
L 82.037332 216.557618 
L 82.037332 219.99935 
L 81.256437 221.713468 
L 80.475542 225.141702 
L 80.475542 226.85582 
L 80.865989 228.569937 
L 80.865989 230.284054 
L 80.085094 237.154021 
L 79.304199 240.582256 
L 79.304199 240.582256 
L 79.694647 237.154021 
L 79.694647 235.439904 
L 79.694647 244.010491 
L 79.694647 238.868138 
L 79.304199 238.868138 
L 78.523304 242.296373 
L 78.523304 245.724608 
L 78.132856 249.16634 
L 77.742409 250.880457 
L 76.56586 250.880457 
L 76.956308 250.880457 
L 77.742409 249.16634 
L 78.132856 249.16634 
L 78.132856 256.022809 
L 76.956308 259.451044 
L 75.784965 261.178658 
L 76.175413 261.178658 
L 77.351961 257.736927 
L 78.913752 257.736927 
L 78.132856 257.736927 
L 77.351961 254.308692 
L 76.956308 254.308692 
L 76.56586 256.022809 
L 76.56586 257.736927 
L 76.56586 250.880457 
L 76.175413 249.16634 
L 76.175413 257.736927 
L 76.956308 262.892776 
L 76.956308 264.606893 
L 76.175413 262.892776 
L 75.784965 259.451044 
L 76.56586 261.178658 
L 77.351961 264.606893 
L 76.956308 262.892776 
L 76.956308 256.022809 
L 76.175413 257.736927 
L 75.00407 259.451044 
L 75.00407 261.178658 
L 75.394518 264.606893 
L 75.00407 268.035128 
L 75.394518 268.035128 
L 76.175413 266.32101 
L 76.956308 269.749245 
L 76.956308 269.749245 
L 76.956308 280.047447 
L 77.351961 281.761564 
L 76.956308 280.047447 
L 76.956308 276.619212 
L 76.175413 273.17748 
L 75.784965 273.17748 
L 76.56586 274.905094 
L 76.56586 278.333329 
L 76.175413 281.761564 
L 75.784965 283.475681 
L 77.351961 280.047447 
L 76.56586 276.619212 
L 76.175413 276.619212 
L 76.175413 276.619212 
L 76.56586 278.333329 
L 75.394518 283.475681 
L 74.613622 283.475681 
L 75.00407 283.475681 
L 75.784965 281.761564 
L 75.784965 285.189799 
L 75.784965 283.475681 
L 76.175413 281.761564 
L 76.175413 290.345648 
L 76.56586 292.059765 
L 76.56586 293.773883 
L 76.175413 293.773883 
L 76.56586 292.059765 
L 77.742409 288.63153 
L 78.523304 286.903916 
L 77.742409 286.903916 
L 77.351961 288.63153 
L 77.742409 288.63153 
L 77.742409 290.345648 
L 77.351961 292.059765 
L 76.56586 292.059765 
L 76.175413 290.345648 
L 77.351961 290.345648 
L 77.351961 293.773883 
L 76.956308 295.488 
L 76.175413 292.059765 
L 76.175413 290.345648 
L 76.956308 293.773883 
L 77.351961 290.345648 
L 77.742409 285.189799 
L 77.742409 285.189799 
L 77.351961 288.63153 
L 76.56586 292.059765 
L 76.175413 290.345648 
L 76.175413 292.059765 
L 76.956308 293.773883 
L 76.956308 293.773883 
L 76.56586 292.059765 
L 76.56586 290.345648 
L 76.956308 288.63153 
L 77.351961 290.345648 
L 77.742409 290.345648 
L 77.742409 292.059765 
L 76.956308 290.345648 
L 75.784965 288.63153 
L 75.394518 288.63153 
L 76.956308 292.059765 
L 78.523304 290.345648 
L 80.085094 286.903916 
L 82.818227 285.189799 
L 85.947014 283.475681 
L 89.851489 283.475681 
L 93.365517 281.761564 
L 100.398779 274.905094 
L 105.089356 271.463363 
L 110.165174 266.32101 
L 116.417541 262.892776 
L 121.889013 257.736927 
L 126.183936 250.880457 
L 131.264961 242.296373 
L 136.340779 237.154021 
L 141.031356 231.998172 
L 144.935831 228.569937 
L 149.626408 225.141702 
L 169.940093 211.415266 
L 175.021118 204.558797 
L 180.487384 197.68883 
L 185.17796 192.546478 
L 190.253779 189.104746 
L 200.410621 189.104746 
L 203.929855 185.676511 
L 207.443883 180.534159 
L 211.353565 175.37831 
L 214.477145 175.37831 
L 220.729512 178.820042 
L 223.072198 177.105925 
L 225.414883 171.950075 
L 228.934117 166.807723 
L 236.748274 166.807723 
L 239.871855 163.379489 
L 243.77633 161.651874 
L 248.07646 159.937757 
L 252.76183 154.795405 
L 256.281064 146.211321 
L 259.404645 141.068969 
L 263.314326 139.354851 
L 266.828355 139.354851 
L 269.561488 134.199002 
L 271.909379 130.770767 
L 272.690274 132.484885 
L 272.690274 134.199002 
L 272.299826 132.484885 
L 272.299826 130.770767 
L 272.690274 130.770767 
L 272.299826 135.926616 
L 271.123278 139.354851 
L 269.561488 141.068969 
L 267.999697 141.068969 
L 266.437907 146.211321 
L 265.657012 151.36717 
L 265.266564 153.081287 
L 264.095222 153.081287 
L 263.704774 151.36717 
L 263.704774 151.36717 
L 263.704774 147.925438 
L 264.095222 146.211321 
L 264.485669 146.211321 
L 264.095222 147.925438 
L 262.923879 158.223639 
L 262.528225 156.509522 
L 262.923879 151.36717 
L 262.923879 149.653052 
L 263.314326 147.925438 
L 263.704774 149.653052 
L 264.095222 154.795405 
L 264.095222 158.223639 
L 263.704774 156.509522 
L 263.314326 153.081287 
L 262.528225 153.081287 
L 262.528225 154.795405 
L 263.314326 156.509522 
L 263.314326 158.223639 
L 263.314326 156.509522 
L 263.704774 154.795405 
L 263.314326 154.795405 
L 261.74733 158.223639 
L 261.74733 158.223639 
L 261.74733 159.937757 
L 262.137778 156.509522 
L 262.137778 151.36717 
L 261.356883 149.653052 
L 260.966435 147.925438 
L 261.356883 153.081287 
L 261.356883 158.223639 
L 261.74733 163.379489 
L 262.528225 163.379489 
L 262.528225 161.651874 
L 261.74733 159.937757 
L 261.356883 161.651874 
L 261.356883 161.651874 
L 261.356883 159.937757 
L 261.356883 159.937757 
L 260.966435 159.937757 
L 260.575988 158.223639 
L 260.575988 156.509522 
L 260.966435 154.795405 
L 260.966435 154.795405 
L 260.575988 158.223639 
L 259.795092 161.651874 
L 259.795092 161.651874 
L 259.795092 159.937757 
L 260.966435 158.223639 
L 261.356883 156.509522 
L 260.966435 156.509522 
L 260.18554 163.379489 
L 260.575988 165.093606 
L 260.575988 165.093606 
L 260.575988 163.379489 
L 260.18554 159.937757 
L 259.014197 159.937757 
L 259.795092 159.937757 
L 260.575988 161.651874 
L 260.575988 159.937757 
L 260.18554 159.937757 
L 258.62375 158.223639 
L 258.233302 156.509522 
L 258.62375 154.795405 
L 259.014197 156.509522 
L 259.795092 156.509522 
L 260.575988 159.937757 
L 261.356883 161.651874 
L 261.356883 161.651874 
L 260.966435 158.223639 
L 260.575988 156.509522 
L 259.795092 156.509522 
L 259.014197 154.795405 
L 258.62375 153.081287 
L 259.795092 154.795405 
L 260.966435 154.795405 
L 260.18554 156.509522 
L 259.404645 163.379489 
L 258.62375 168.521841 
L 258.62375 159.937757 
L 258.233302 156.509522 
L 257.842855 154.795405 
L 257.842855 156.509522 
L 258.233302 161.651874 
L 259.014197 161.651874 
L 259.014197 158.223639 
L 259.404645 154.795405 
L 259.795092 153.081287 
L 259.404645 154.795405 
L 259.014197 158.223639 
L 258.233302 161.651874 
L 258.62375 159.937757 
L 259.014197 159.937757 
L 259.014197 158.223639 
L 258.233302 158.223639 
L 257.842855 153.081287 
L 257.452407 149.653052 
L 257.452407 149.653052 
L 259.014197 156.509522 
L 260.18554 156.509522 
L 262.137778 153.081287 
L 264.485669 149.653052 
L 267.60925 146.211321 
L 276.59475 146.211321 
L 281.675774 144.497203 
L 287.14204 141.068969 
L 293.003959 134.199002 
L 299.256326 127.342532 
L 316.836878 117.044331 
L 323.084039 113.616096 
L 328.945959 108.473744 
L 335.198326 101.603778 
L 341.055039 96.461426 
L 346.136064 93.019694 
L 351.211882 87.877342 
L 355.902459 84.449107 
L 359.806934 82.73499 
L 363.326168 81.020872 
L 371.140325 81.020872 
L 374.263906 84.449107 
L 376.997039 84.449107 
L 380.125825 86.163224 
L 382.858958 89.591459 
L 385.201644 91.305576 
L 386.76864 93.019694 
L 389.501773 93.019694 
L 391.454011 91.305576 
L 393.015801 89.591459 
L 394.187144 93.019694 
L 394.968039 94.747308 
L 396.535035 94.747308 
L 398.096825 93.019694 
L 398.487273 94.747308 
L 396.925482 96.461426 
L 394.968039 99.88966 
L 393.406248 103.317895 
L 391.063563 99.88966 
L 390.673116 99.88966 
L 390.282668 101.603778 
L 390.282668 105.032012 
L 389.501773 110.187862 
L 388.720878 113.616096 
L 387.549535 115.330214 
L 387.549535 113.616096 
L 387.549535 115.330214 
L 387.159087 111.901979 
L 387.159087 117.044331 
L 387.549535 122.20018 
L 387.549535 123.914298 
L 387.159087 122.20018 
L 387.159087 125.628415 
L 386.76864 127.342532 
L 385.982539 127.342532 
L 385.592091 129.05665 
L 385.592091 129.05665 
L 385.982539 125.628415 
L 387.159087 125.628415 
L 387.549535 127.342532 
L 385.982539 134.199002 
L 385.592091 134.199002 
L 385.201644 135.926616 
L 384.420749 137.640734 
L 384.030301 135.926616 
L 384.420749 135.926616 
L 385.982539 142.783086 
L 384.420749 142.783086 
L 384.030301 144.497203 
L 384.030301 141.068969 
L 384.811196 134.199002 
L 385.201644 129.05665 
L 385.592091 130.770767 
L 385.592091 135.926616 
L 384.811196 141.068969 
L 383.249406 141.068969 
L 384.420749 141.068969 
L 385.201644 139.354851 
L 384.811196 135.926616 
L 384.420749 135.926616 
L 384.420749 139.354851 
L 384.030301 137.640734 
L 383.639853 139.354851 
L 383.249406 139.354851 
L 383.639853 141.068969 
L 383.639853 142.783086 
L 383.249406 144.497203 
L 382.468511 144.497203 
L 382.858958 142.783086 
L 384.030301 141.068969 
L 384.420749 137.640734 
L 384.030301 135.926616 
L 384.030301 137.640734 
L 384.420749 137.640734 
L 384.030301 137.640734 
L 383.249406 135.926616 
L 382.858958 137.640734 
L 382.858958 139.354851 
L 382.858958 130.770767 
L 382.468511 130.770767 
L 382.468511 142.783086 
L 382.468511 141.068969 
L 382.858958 139.354851 
L 382.858958 134.199002 
L 382.078063 127.342532 
L 382.078063 127.342532 
L 382.078063 130.770767 
L 382.468511 130.770767 
L 382.468511 127.342532 
L 382.078063 125.628415 
L 382.468511 127.342532 
L 382.078063 127.342532 
L 381.687616 123.914298 
L 381.687616 122.20018 
L 384.030301 122.20018 
L 383.249406 122.20018 
L 382.858958 123.914298 
L 382.468511 123.914298 
L 382.468511 123.914298 
L 382.858958 122.20018 
L 382.468511 123.914298 
L 381.297168 123.914298 
L 380.516273 120.472566 
L 380.90672 120.472566 
L 381.297168 122.20018 
L 380.516273 122.20018 
L 379.735378 125.628415 
L 379.34493 123.914298 
L 379.735378 120.472566 
L 380.125825 118.758449 
L 380.516273 120.472566 
L 382.468511 120.472566 
L 381.687616 118.758449 
L 380.516273 117.044331 
L 380.125825 118.758449 
L 380.125825 123.914298 
L 379.735378 127.342532 
L 379.34493 125.628415 
L 379.34493 117.044331 
L 379.735378 115.330214 
L 379.34493 115.330214 
L 379.34493 117.044331 
L 380.90672 120.472566 
L 380.90672 117.044331 
L 380.125825 111.901979 
L 379.34493 111.901979 
L 378.954483 117.044331 
L 378.564035 120.472566 
L 378.954483 118.758449 
L 379.34493 115.330214 
L 380.90672 115.330214 
L 379.735378 115.330214 
L 379.34493 117.044331 
L 379.735378 117.044331 
L 380.516273 113.616096 
L 380.90672 113.616096 
L 380.516273 117.044331 
L 380.125825 117.044331 
L 380.125825 115.330214 
L 380.90672 115.330214 
L 381.687616 113.616096 
L 381.687616 110.187862 
L 380.90672 106.74613 
L 379.34493 110.187862 
L 378.564035 117.044331 
L 378.954483 117.044331 
L 379.735378 115.330214 
L 380.90672 111.901979 
L 381.297168 111.901979 
L 380.90672 115.330214 
L 380.125825 117.044331 
L 378.564035 117.044331 
L 378.954483 117.044331 
L 379.735378 113.616096 
L 379.34493 110.187862 
L 378.954483 111.901979 
L 378.954483 117.044331 
L 379.735378 117.044331 
L 380.125825 115.330214 
L 379.735378 115.330214 
L 380.125825 117.044331 
L 380.125825 117.044331 
L 380.125825 115.330214 
L 379.735378 113.616096 
L 380.125825 113.616096 
L 380.125825 113.616096 
L 379.735378 111.901979 
L 379.735378 110.187862 
L 378.954483 110.187862 
L 378.954483 111.901979 
L 379.34493 113.616096 
L 379.34493 117.044331 
L 378.954483 117.044331 
L 378.954483 115.330214 
L 379.34493 110.187862 
L 379.735378 108.473744 
L 379.735378 113.616096 
L 379.34493 110.187862 
L 378.564035 105.032012 
L 378.564035 105.032012 
L 378.954483 110.187862 
L 379.735378 113.616096 
L 379.735378 115.330214 
L 379.34493 113.616096 
L 378.954483 113.616096 
L 379.34493 115.330214 
L 380.125825 113.616096 
L 380.516273 110.187862 
L 380.90672 108.473744 
L 380.516273 110.187862 
L 379.735378 110.187862 
L 379.34493 111.901979 
L 379.34493 111.901979 
L 379.34493 110.187862 
L 379.735378 108.473744 
L 378.954483 111.901979 
L 379.735378 111.901979 
L 380.516273 108.473744 
L 380.125825 106.74613 
L 378.954483 105.032012 
L 378.173588 106.74613 
L 378.564035 108.473744 
L 379.735378 110.187862 
L 380.516273 108.473744 
L 380.125825 106.74613 
L 380.125825 106.74613 
L 380.516273 106.74613 
L 380.90672 103.317895 
L 380.90672 101.603778 
L 380.125825 105.032012 
L 379.34493 106.74613 
L 378.564035 105.032012 
L 378.954483 101.603778 
L 379.34493 101.603778 
L 379.735378 103.317895 
L 379.735378 106.74613 
L 379.34493 106.74613 
L 378.954483 108.473744 
L 378.954483 108.473744 
L 379.34493 110.187862 
L 379.735378 110.187862 
L 380.125825 108.473744 
L 379.34493 101.603778 
L 378.954483 101.603778 
L 379.34493 103.317895 
L 379.735378 103.317895 
L 379.735378 101.603778 
L 379.34493 99.88966 
L 379.34493 101.603778 
L 379.735378 101.603778 
L 379.735378 99.88966 
L 380.125825 96.461426 
L 380.125825 98.175543 
L 380.516273 99.88966 
L 379.735378 96.461426 
L 379.735378 94.747308 
L 380.516273 94.747308 
L 380.516273 96.461426 
L 380.125825 96.461426 
L 379.735378 99.88966 
L 378.954483 101.603778 
L 378.954483 101.603778 
L 379.34493 99.88966 
L 379.735378 99.88966 
L 379.735378 99.88966 
L 379.735378 101.603778 
L 379.34493 99.88966 
L 379.34493 99.88966 
L 378.564035 99.88966 
L 378.564035 98.175543 
L 378.954483 94.747308 
L 380.125825 93.019694 
L 380.125825 94.747308 
L 378.954483 99.88966 
L 378.954483 94.747308 
L 378.564035 93.019694 
L 378.173588 93.019694 
L 378.564035 94.747308 
L 378.954483 98.175543 
L 378.954483 99.88966 
L 378.954483 99.88966 
" style="fill:none;stroke:#1f77b4;stroke-linecap:square;stroke-width:1.5;"/>
   </g>
   <g id="matplotlib.axis_1">
    <g id="xtick_1">
     <g id="line2d_2">
      <defs>
       <path d="M 0 0 
L 0 3.5 
" id="mc726e9bd33" style="stroke:#000000;stroke-width:0.8;"/>
      </defs>
      <g>
       <use style="stroke:#000000;stroke-width:0.8;" x="58.980102" xlink:href="#mc726e9bd33" y="307.584"/>
      </g>
     </g>
     <g id="text_1">
      <!-- −400 -->
      <defs>
       <path d="M 10.59375 35.5 
L 73.1875 35.5 
L 73.1875 27.203125 
L 10.59375 27.203125 
z
" id="DejaVuSans-8722"/>
       <path d="M 37.796875 64.3125 
L 12.890625 25.390625 
L 37.796875 25.390625 
z
M 35.203125 72.90625 
L 47.609375 72.90625 
L 47.609375 25.390625 
L 58.015625 25.390625 
L 58.015625 17.1875 
L 47.609375 17.1875 
L 47.609375 0 
L 37.796875 0 
L 37.796875 17.1875 
L 4.890625 17.1875 
L 4.890625 26.703125 
z
" id="DejaVuSans-52"/>
       <path d="M 31.78125 66.40625 
Q 24.171875 66.40625 20.328125 58.90625 
Q 16.5 51.421875 16.5 36.375 
Q 16.5 21.390625 20.328125 13.890625 
Q 24.171875 6.390625 31.78125 6.390625 
Q 39.453125 6.390625 43.28125 13.890625 
Q 47.125 21.390625 47.125 36.375 
Q 47.125 51.421875 43.28125 58.90625 
Q 39.453125 66.40625 31.78125 66.40625 
z
M 31.78125 74.21875 
Q 44.046875 74.21875 50.515625 64.515625 
Q 56.984375 54.828125 56.984375 36.375 
Q 56.984375 17.96875 50.515625 8.265625 
Q 44.046875 -1.421875 31.78125 -1.421875 
Q 19.53125 -1.421875 13.0625 8.265625 
Q 6.59375 17.96875 6.59375 36.375 
Q 6.59375 54.828125 13.0625 64.515625 
Q 19.53125 74.21875 31.78125 74.21875 
z
" id="DejaVuSans-48"/>
      </defs>
      <g transform="translate(45.246508 322.182437)scale(0.1 -0.1)">
       <use xlink:href="#DejaVuSans-8722"/>
       <use x="83.789062" xlink:href="#DejaVuSans-52"/>
       <use x="147.412109" xlink:href="#DejaVuSans-48"/>
       <use x="211.035156" xlink:href="#DejaVuSans-48"/>
      </g>
     </g>
    </g>
    <g id="xtick_2">
     <g id="line2d_3">
      <g>
       <use style="stroke:#000000;stroke-width:0.8;" x="111.039777" xlink:href="#mc726e9bd33" y="307.584"/>
      </g>
     </g>
     <g id="text_2">
      <!-- −300 -->
      <defs>
       <path d="M 40.578125 39.3125 
Q 47.65625 37.796875 51.625 33 
Q 55.609375 28.21875 55.609375 21.1875 
Q 55.609375 10.40625 48.1875 4.484375 
Q 40.765625 -1.421875 27.09375 -1.421875 
Q 22.515625 -1.421875 17.65625 -0.515625 
Q 12.796875 0.390625 7.625 2.203125 
L 7.625 11.71875 
Q 11.71875 9.328125 16.59375 8.109375 
Q 21.484375 6.890625 26.8125 6.890625 
Q 36.078125 6.890625 40.9375 10.546875 
Q 45.796875 14.203125 45.796875 21.1875 
Q 45.796875 27.640625 41.28125 31.265625 
Q 36.765625 34.90625 28.71875 34.90625 
L 20.21875 34.90625 
L 20.21875 43.015625 
L 29.109375 43.015625 
Q 36.375 43.015625 40.234375 45.921875 
Q 44.09375 48.828125 44.09375 54.296875 
Q 44.09375 59.90625 40.109375 62.90625 
Q 36.140625 65.921875 28.71875 65.921875 
Q 24.65625 65.921875 20.015625 65.03125 
Q 15.375 64.15625 9.8125 62.3125 
L 9.8125 71.09375 
Q 15.4375 72.65625 20.34375 73.4375 
Q 25.25 74.21875 29.59375 74.21875 
Q 40.828125 74.21875 47.359375 69.109375 
Q 53.90625 64.015625 53.90625 55.328125 
Q 53.90625 49.265625 50.4375 45.09375 
Q 46.96875 40.921875 40.578125 39.3125 
z
" id="DejaVuSans-51"/>
      </defs>
      <g transform="translate(97.306183 322.182437)scale(0.1 -0.1)">
       <use xlink:href="#DejaVuSans-8722"/>
       <use x="83.789062" xlink:href="#DejaVuSans-51"/>
       <use x="147.412109" xlink:href="#DejaVuSans-48"/>
       <use x="211.035156" xlink:href="#DejaVuSans-48"/>
      </g>
     </g>
    </g>
    <g id="xtick_3">
     <g id="line2d_4">
      <g>
       <use style="stroke:#000000;stroke-width:0.8;" x="163.099452" xlink:href="#mc726e9bd33" y="307.584"/>
      </g>
     </g>
     <g id="text_3">
      <!-- −200 -->
      <defs>
       <path d="M 19.1875 8.296875 
L 53.609375 8.296875 
L 53.609375 0 
L 7.328125 0 
L 7.328125 8.296875 
Q 12.9375 14.109375 22.625 23.890625 
Q 32.328125 33.6875 34.8125 36.53125 
Q 39.546875 41.84375 41.421875 45.53125 
Q 43.3125 49.21875 43.3125 52.78125 
Q 43.3125 58.59375 39.234375 62.25 
Q 35.15625 65.921875 28.609375 65.921875 
Q 23.96875 65.921875 18.8125 64.3125 
Q 13.671875 62.703125 7.8125 59.421875 
L 7.8125 69.390625 
Q 13.765625 71.78125 18.9375 73 
Q 24.125 74.21875 28.421875 74.21875 
Q 39.75 74.21875 46.484375 68.546875 
Q 53.21875 62.890625 53.21875 53.421875 
Q 53.21875 48.921875 51.53125 44.890625 
Q 49.859375 40.875 45.40625 35.40625 
Q 44.1875 33.984375 37.640625 27.21875 
Q 31.109375 20.453125 19.1875 8.296875 
z
" id="DejaVuSans-50"/>
      </defs>
      <g transform="translate(149.365858 322.182437)scale(0.1 -0.1)">
       <use xlink:href="#DejaVuSans-8722"/>
       <use x="83.789062" xlink:href="#DejaVuSans-50"/>
       <use x="147.412109" xlink:href="#DejaVuSans-48"/>
       <use x="211.035156" xlink:href="#DejaVuSans-48"/>
      </g>
     </g>
    </g>
    <g id="xtick_4">
     <g id="line2d_5">
      <g>
       <use style="stroke:#000000;stroke-width:0.8;" x="215.159127" xlink:href="#mc726e9bd33" y="307.584"/>
      </g>
     </g>
     <g id="text_4">
      <!-- −100 -->
      <defs>
       <path d="M 12.40625 8.296875 
L 28.515625 8.296875 
L 28.515625 63.921875 
L 10.984375 60.40625 
L 10.984375 69.390625 
L 28.421875 72.90625 
L 38.28125 72.90625 
L 38.28125 8.296875 
L 54.390625 8.296875 
L 54.390625 0 
L 12.40625 0 
z
" id="DejaVuSans-49"/>
      </defs>
      <g transform="translate(201.425533 322.182437)scale(0.1 -0.1)">
       <use xlink:href="#DejaVuSans-8722"/>
       <use x="83.789062" xlink:href="#DejaVuSans-49"/>
       <use x="147.412109" xlink:href="#DejaVuSans-48"/>
       <use x="211.035156" xlink:href="#DejaVuSans-48"/>
      </g>
     </g>
    </g>
    <g id="xtick_5">
     <g id="line2d_6">
      <g>
       <use style="stroke:#000000;stroke-width:0.8;" x="267.218802" xlink:href="#mc726e9bd33" y="307.584"/>
      </g>
     </g>
     <g id="text_5">
      <!-- 0 -->
      <g transform="translate(264.037552 322.182437)scale(0.1 -0.1)">
       <use xlink:href="#DejaVuSans-48"/>
      </g>
     </g>
    </g>
    <g id="xtick_6">
     <g id="line2d_7">
      <g>
       <use style="stroke:#000000;stroke-width:0.8;" x="319.278477" xlink:href="#mc726e9bd33" y="307.584"/>
      </g>
     </g>
     <g id="text_6">
      <!-- 100 -->
      <g transform="translate(309.734727 322.182437)scale(0.1 -0.1)">
       <use xlink:href="#DejaVuSans-49"/>
       <use x="63.623047" xlink:href="#DejaVuSans-48"/>
       <use x="127.246094" xlink:href="#DejaVuSans-48"/>
      </g>
     </g>
    </g>
    <g id="xtick_7">
     <g id="line2d_8">
      <g>
       <use style="stroke:#000000;stroke-width:0.8;" x="371.338152" xlink:href="#mc726e9bd33" y="307.584"/>
      </g>
     </g>
     <g id="text_7">
      <!-- 200 -->
      <g transform="translate(361.794402 322.182437)scale(0.1 -0.1)">
       <use xlink:href="#DejaVuSans-50"/>
       <use x="63.623047" xlink:href="#DejaVuSans-48"/>
       <use x="127.246094" xlink:href="#DejaVuSans-48"/>
      </g>
     </g>
    </g>
   </g>
   <g id="matplotlib.axis_2">
    <g id="ytick_1">
     <g id="line2d_9">
      <defs>
       <path d="M 0 0 
L -3.5 0 
" id="m4076238323" style="stroke:#000000;stroke-width:0.8;"/>
      </defs>
      <g>
       <use style="stroke:#000000;stroke-width:0.8;" x="57.6" xlink:href="#m4076238323" y="303.464719"/>
      </g>
     </g>
     <g id="text_8">
      <!-- −275 -->
      <defs>
       <path d="M 8.203125 72.90625 
L 55.078125 72.90625 
L 55.078125 68.703125 
L 28.609375 0 
L 18.3125 0 
L 43.21875 64.59375 
L 8.203125 64.59375 
z
" id="DejaVuSans-55"/>
       <path d="M 10.796875 72.90625 
L 49.515625 72.90625 
L 49.515625 64.59375 
L 19.828125 64.59375 
L 19.828125 46.734375 
Q 21.96875 47.46875 24.109375 47.828125 
Q 26.265625 48.1875 28.421875 48.1875 
Q 40.625 48.1875 47.75 41.5 
Q 54.890625 34.8125 54.890625 23.390625 
Q 54.890625 11.625 47.5625 5.09375 
Q 40.234375 -1.421875 26.90625 -1.421875 
Q 22.3125 -1.421875 17.546875 -0.640625 
Q 12.796875 0.140625 7.71875 1.703125 
L 7.71875 11.625 
Q 12.109375 9.234375 16.796875 8.0625 
Q 21.484375 6.890625 26.703125 6.890625 
Q 35.15625 6.890625 40.078125 11.328125 
Q 45.015625 15.765625 45.015625 23.390625 
Q 45.015625 31 40.078125 35.4375 
Q 35.15625 39.890625 26.703125 39.890625 
Q 22.75 39.890625 18.8125 39.015625 
Q 14.890625 38.140625 10.796875 36.28125 
z
" id="DejaVuSans-53"/>
      </defs>
      <g transform="translate(23.132812 307.263938)scale(0.1 -0.1)">
       <use xlink:href="#DejaVuSans-8722"/>
       <use x="83.789062" xlink:href="#DejaVuSans-50"/>
       <use x="147.412109" xlink:href="#DejaVuSans-55"/>
       <use x="211.035156" xlink:href="#DejaVuSans-53"/>
      </g>
     </g>
    </g>
    <g id="ytick_2">
     <g id="line2d_10">
      <g>
       <use style="stroke:#000000;stroke-width:0.8;" x="57.6" xlink:href="#m4076238323" y="269.722251"/>
      </g>
     </g>
     <g id="text_9">
      <!-- −250 -->
      <g transform="translate(23.132812 273.52147)scale(0.1 -0.1)">
       <use xlink:href="#DejaVuSans-8722"/>
       <use x="83.789062" xlink:href="#DejaVuSans-50"/>
       <use x="147.412109" xlink:href="#DejaVuSans-53"/>
       <use x="211.035156" xlink:href="#DejaVuSans-48"/>
      </g>
     </g>
    </g>
    <g id="ytick_3">
     <g id="line2d_11">
      <g>
       <use style="stroke:#000000;stroke-width:0.8;" x="57.6" xlink:href="#m4076238323" y="235.979783"/>
      </g>
     </g>
     <g id="text_10">
      <!-- −225 -->
      <g transform="translate(23.132812 239.779002)scale(0.1 -0.1)">
       <use xlink:href="#DejaVuSans-8722"/>
       <use x="83.789062" xlink:href="#DejaVuSans-50"/>
       <use x="147.412109" xlink:href="#DejaVuSans-50"/>
       <use x="211.035156" xlink:href="#DejaVuSans-53"/>
      </g>
     </g>
    </g>
    <g id="ytick_4">
     <g id="line2d_12">
      <g>
       <use style="stroke:#000000;stroke-width:0.8;" x="57.6" xlink:href="#m4076238323" y="202.237315"/>
      </g>
     </g>
     <g id="text_11">
      <!-- −200 -->
      <g transform="translate(23.132812 206.036534)scale(0.1 -0.1)">
       <use xlink:href="#DejaVuSans-8722"/>
       <use x="83.789062" xlink:href="#DejaVuSans-50"/>
       <use x="147.412109" xlink:href="#DejaVuSans-48"/>
       <use x="211.035156" xlink:href="#DejaVuSans-48"/>
      </g>
     </g>
    </g>
    <g id="ytick_5">
     <g id="line2d_13">
      <g>
       <use style="stroke:#000000;stroke-width:0.8;" x="57.6" xlink:href="#m4076238323" y="168.494847"/>
      </g>
     </g>
     <g id="text_12">
      <!-- −175 -->
      <g transform="translate(23.132812 172.294065)scale(0.1 -0.1)">
       <use xlink:href="#DejaVuSans-8722"/>
       <use x="83.789062" xlink:href="#DejaVuSans-49"/>
       <use x="147.412109" xlink:href="#DejaVuSans-55"/>
       <use x="211.035156" xlink:href="#DejaVuSans-53"/>
      </g>
     </g>
    </g>
    <g id="ytick_6">
     <g id="line2d_14">
      <g>
       <use style="stroke:#000000;stroke-width:0.8;" x="57.6" xlink:href="#m4076238323" y="134.752378"/>
      </g>
     </g>
     <g id="text_13">
      <!-- −150 -->
      <g transform="translate(23.132812 138.551597)scale(0.1 -0.1)">
       <use xlink:href="#DejaVuSans-8722"/>
       <use x="83.789062" xlink:href="#DejaVuSans-49"/>
       <use x="147.412109" xlink:href="#DejaVuSans-53"/>
       <use x="211.035156" xlink:href="#DejaVuSans-48"/>
      </g>
     </g>
    </g>
    <g id="ytick_7">
     <g id="line2d_15">
      <g>
       <use style="stroke:#000000;stroke-width:0.8;" x="57.6" xlink:href="#m4076238323" y="101.00991"/>
      </g>
     </g>
     <g id="text_14">
      <!-- −125 -->
      <g transform="translate(23.132812 104.809129)scale(0.1 -0.1)">
       <use xlink:href="#DejaVuSans-8722"/>
       <use x="83.789062" xlink:href="#DejaVuSans-49"/>
       <use x="147.412109" xlink:href="#DejaVuSans-50"/>
       <use x="211.035156" xlink:href="#DejaVuSans-53"/>
      </g>
     </g>
    </g>
    <g id="ytick_8">
     <g id="line2d_16">
      <g>
       <use style="stroke:#000000;stroke-width:0.8;" x="57.6" xlink:href="#m4076238323" y="67.267442"/>
      </g>
     </g>
     <g id="text_15">
      <!-- −100 -->
      <g transform="translate(23.132812 71.066661)scale(0.1 -0.1)">
       <use xlink:href="#DejaVuSans-8722"/>
       <use x="83.789062" xlink:href="#DejaVuSans-49"/>
       <use x="147.412109" xlink:href="#DejaVuSans-48"/>
       <use x="211.035156" xlink:href="#DejaVuSans-48"/>
      </g>
     </g>
    </g>
   </g>
   <g id="line2d_17">
    <path clip-path="url(#pf6de6e0d6c)" d="M 355.198142 123.791079 
L 78.733735 227.579211 
L 259.838067 155.493293 
L 381.612137 115.342794 
" style="fill:none;stroke:#ff0000;stroke-linecap:square;stroke-width:0.5;"/>
   </g>
   <g id="patch_3">
    <path d="M 57.6 307.584 
L 57.6 41.472 
" style="fill:none;stroke:#000000;stroke-linecap:square;stroke-linejoin:miter;stroke-width:0.8;"/>
   </g>
   <g id="patch_4">
    <path d="M 414.72 307.584 
L 414.72 41.472 
" style="fill:none;stroke:#000000;stroke-linecap:square;stroke-linejoin:miter;stroke-width:0.8;"/>
   </g>
   <g id="patch_5">
    <path d="M 57.6 307.584 
L 414.72 307.584 
" style="fill:none;stroke:#000000;stroke-linecap:square;stroke-linejoin:miter;stroke-width:0.8;"/>
   </g>
   <g id="patch_6">
    <path d="M 57.6 41.472 
L 414.72 41.472 
" style="fill:none;stroke:#000000;stroke-linecap:square;stroke-linejoin:miter;stroke-width:0.8;"/>
   </g>
   <g id="PathCollection_1">
    <defs>
     <path d="M 0 2.738613 
C 0.726289 2.738613 1.422928 2.450055 1.936492 1.936492 
C 2.450055 1.422928 2.738613 0.726289 2.738613 0 
C 2.738613 -0.726289 2.450055 -1.422928 1.936492 -1.936492 
C 1.422928 -2.450055 0.726289 -2.738613 0 -2.738613 
C -0.726289 -2.738613 -1.422928 -2.450055 -1.936492 -1.936492 
C -2.450055 -1.422928 -2.738613 -0.726289 -2.738613 0 
C -2.738613 0.726289 -2.450055 1.422928 -1.936492 1.936492 
C -1.422928 2.450055 -0.726289 2.738613 0 2.738613 
z
" id="m54e3519120" style="stroke:#ff0000;"/>
    </defs>
    <g clip-path="url(#pf6de6e0d6c)">
     <use style="fill:#ff0000;stroke:#ff0000;" x="355.198142" xlink:href="#m54e3519120" y="123.791079"/>
     <use style="fill:#ff0000;stroke:#ff0000;" x="78.733735" xlink:href="#m54e3519120" y="227.579211"/>
     <use style="fill:#ff0000;stroke:#ff0000;" x="259.838067" xlink:href="#m54e3519120" y="155.493293"/>
     <use style="fill:#ff0000;stroke:#ff0000;" x="381.612137" xlink:href="#m54e3519120" y="115.342794"/>
    </g>
   </g>
   <g id="text_16">
    <!-- (58) Subject: s3, Known = False, Degree = 1, Duration = 0.1 -->
    <defs>
     <path d="M 31 75.875 
Q 24.46875 64.65625 21.28125 53.65625 
Q 18.109375 42.671875 18.109375 31.390625 
Q 18.109375 20.125 21.3125 9.0625 
Q 24.515625 -2 31 -13.1875 
L 23.1875 -13.1875 
Q 15.875 -1.703125 12.234375 9.375 
Q 8.59375 20.453125 8.59375 31.390625 
Q 8.59375 42.28125 12.203125 53.3125 
Q 15.828125 64.359375 23.1875 75.875 
z
" id="DejaVuSans-40"/>
     <path d="M 31.78125 34.625 
Q 24.75 34.625 20.71875 30.859375 
Q 16.703125 27.09375 16.703125 20.515625 
Q 16.703125 13.921875 20.71875 10.15625 
Q 24.75 6.390625 31.78125 6.390625 
Q 38.8125 6.390625 42.859375 10.171875 
Q 46.921875 13.96875 46.921875 20.515625 
Q 46.921875 27.09375 42.890625 30.859375 
Q 38.875 34.625 31.78125 34.625 
z
M 21.921875 38.8125 
Q 15.578125 40.375 12.03125 44.71875 
Q 8.5 49.078125 8.5 55.328125 
Q 8.5 64.0625 14.71875 69.140625 
Q 20.953125 74.21875 31.78125 74.21875 
Q 42.671875 74.21875 48.875 69.140625 
Q 55.078125 64.0625 55.078125 55.328125 
Q 55.078125 49.078125 51.53125 44.71875 
Q 48 40.375 41.703125 38.8125 
Q 48.828125 37.15625 52.796875 32.3125 
Q 56.78125 27.484375 56.78125 20.515625 
Q 56.78125 9.90625 50.3125 4.234375 
Q 43.84375 -1.421875 31.78125 -1.421875 
Q 19.734375 -1.421875 13.25 4.234375 
Q 6.78125 9.90625 6.78125 20.515625 
Q 6.78125 27.484375 10.78125 32.3125 
Q 14.796875 37.15625 21.921875 38.8125 
z
M 18.3125 54.390625 
Q 18.3125 48.734375 21.84375 45.5625 
Q 25.390625 42.390625 31.78125 42.390625 
Q 38.140625 42.390625 41.71875 45.5625 
Q 45.3125 48.734375 45.3125 54.390625 
Q 45.3125 60.0625 41.71875 63.234375 
Q 38.140625 66.40625 31.78125 66.40625 
Q 25.390625 66.40625 21.84375 63.234375 
Q 18.3125 60.0625 18.3125 54.390625 
z
" id="DejaVuSans-56"/>
     <path d="M 8.015625 75.875 
L 15.828125 75.875 
Q 23.140625 64.359375 26.78125 53.3125 
Q 30.421875 42.28125 30.421875 31.390625 
Q 30.421875 20.453125 26.78125 9.375 
Q 23.140625 -1.703125 15.828125 -13.1875 
L 8.015625 -13.1875 
Q 14.5 -2 17.703125 9.0625 
Q 20.90625 20.125 20.90625 31.390625 
Q 20.90625 42.671875 17.703125 53.65625 
Q 14.5 64.65625 8.015625 75.875 
z
" id="DejaVuSans-41"/>
     <path id="DejaVuSans-32"/>
     <path d="M 53.515625 70.515625 
L 53.515625 60.890625 
Q 47.90625 63.578125 42.921875 64.890625 
Q 37.9375 66.21875 33.296875 66.21875 
Q 25.25 66.21875 20.875 63.09375 
Q 16.5 59.96875 16.5 54.203125 
Q 16.5 49.359375 19.40625 46.890625 
Q 22.3125 44.4375 30.421875 42.921875 
L 36.375 41.703125 
Q 47.40625 39.59375 52.65625 34.296875 
Q 57.90625 29 57.90625 20.125 
Q 57.90625 9.515625 50.796875 4.046875 
Q 43.703125 -1.421875 29.984375 -1.421875 
Q 24.8125 -1.421875 18.96875 -0.25 
Q 13.140625 0.921875 6.890625 3.21875 
L 6.890625 13.375 
Q 12.890625 10.015625 18.65625 8.296875 
Q 24.421875 6.59375 29.984375 6.59375 
Q 38.421875 6.59375 43.015625 9.90625 
Q 47.609375 13.234375 47.609375 19.390625 
Q 47.609375 24.75 44.3125 27.78125 
Q 41.015625 30.8125 33.5 32.328125 
L 27.484375 33.5 
Q 16.453125 35.6875 11.515625 40.375 
Q 6.59375 45.0625 6.59375 53.421875 
Q 6.59375 63.09375 13.40625 68.65625 
Q 20.21875 74.21875 32.171875 74.21875 
Q 37.3125 74.21875 42.625 73.28125 
Q 47.953125 72.359375 53.515625 70.515625 
z
" id="DejaVuSans-83"/>
     <path d="M 8.5 21.578125 
L 8.5 54.6875 
L 17.484375 54.6875 
L 17.484375 21.921875 
Q 17.484375 14.15625 20.5 10.265625 
Q 23.53125 6.390625 29.59375 6.390625 
Q 36.859375 6.390625 41.078125 11.03125 
Q 45.3125 15.671875 45.3125 23.6875 
L 45.3125 54.6875 
L 54.296875 54.6875 
L 54.296875 0 
L 45.3125 0 
L 45.3125 8.40625 
Q 42.046875 3.421875 37.71875 1 
Q 33.40625 -1.421875 27.6875 -1.421875 
Q 18.265625 -1.421875 13.375 4.4375 
Q 8.5 10.296875 8.5 21.578125 
z
M 31.109375 56 
z
" id="DejaVuSans-117"/>
     <path d="M 48.6875 27.296875 
Q 48.6875 37.203125 44.609375 42.84375 
Q 40.53125 48.484375 33.40625 48.484375 
Q 26.265625 48.484375 22.1875 42.84375 
Q 18.109375 37.203125 18.109375 27.296875 
Q 18.109375 17.390625 22.1875 11.75 
Q 26.265625 6.109375 33.40625 6.109375 
Q 40.53125 6.109375 44.609375 11.75 
Q 48.6875 17.390625 48.6875 27.296875 
z
M 18.109375 46.390625 
Q 20.953125 51.265625 25.265625 53.625 
Q 29.59375 56 35.59375 56 
Q 45.5625 56 51.78125 48.09375 
Q 58.015625 40.1875 58.015625 27.296875 
Q 58.015625 14.40625 51.78125 6.484375 
Q 45.5625 -1.421875 35.59375 -1.421875 
Q 29.59375 -1.421875 25.265625 0.953125 
Q 20.953125 3.328125 18.109375 8.203125 
L 18.109375 0 
L 9.078125 0 
L 9.078125 75.984375 
L 18.109375 75.984375 
z
" id="DejaVuSans-98"/>
     <path d="M 9.421875 54.6875 
L 18.40625 54.6875 
L 18.40625 -0.984375 
Q 18.40625 -11.421875 14.421875 -16.109375 
Q 10.453125 -20.796875 1.609375 -20.796875 
L -1.8125 -20.796875 
L -1.8125 -13.1875 
L 0.59375 -13.1875 
Q 5.71875 -13.1875 7.5625 -10.8125 
Q 9.421875 -8.453125 9.421875 -0.984375 
z
M 9.421875 75.984375 
L 18.40625 75.984375 
L 18.40625 64.59375 
L 9.421875 64.59375 
z
" id="DejaVuSans-106"/>
     <path d="M 56.203125 29.59375 
L 56.203125 25.203125 
L 14.890625 25.203125 
Q 15.484375 15.921875 20.484375 11.0625 
Q 25.484375 6.203125 34.421875 6.203125 
Q 39.59375 6.203125 44.453125 7.46875 
Q 49.3125 8.734375 54.109375 11.28125 
L 54.109375 2.78125 
Q 49.265625 0.734375 44.1875 -0.34375 
Q 39.109375 -1.421875 33.890625 -1.421875 
Q 20.796875 -1.421875 13.15625 6.1875 
Q 5.515625 13.8125 5.515625 26.8125 
Q 5.515625 40.234375 12.765625 48.109375 
Q 20.015625 56 32.328125 56 
Q 43.359375 56 49.78125 48.890625 
Q 56.203125 41.796875 56.203125 29.59375 
z
M 47.21875 32.234375 
Q 47.125 39.59375 43.09375 43.984375 
Q 39.0625 48.390625 32.421875 48.390625 
Q 24.90625 48.390625 20.390625 44.140625 
Q 15.875 39.890625 15.1875 32.171875 
z
" id="DejaVuSans-101"/>
     <path d="M 48.78125 52.59375 
L 48.78125 44.1875 
Q 44.96875 46.296875 41.140625 47.34375 
Q 37.3125 48.390625 33.40625 48.390625 
Q 24.65625 48.390625 19.8125 42.84375 
Q 14.984375 37.3125 14.984375 27.296875 
Q 14.984375 17.28125 19.8125 11.734375 
Q 24.65625 6.203125 33.40625 6.203125 
Q 37.3125 6.203125 41.140625 7.25 
Q 44.96875 8.296875 48.78125 10.40625 
L 48.78125 2.09375 
Q 45.015625 0.34375 40.984375 -0.53125 
Q 36.96875 -1.421875 32.421875 -1.421875 
Q 20.0625 -1.421875 12.78125 6.34375 
Q 5.515625 14.109375 5.515625 27.296875 
Q 5.515625 40.671875 12.859375 48.328125 
Q 20.21875 56 33.015625 56 
Q 37.15625 56 41.109375 55.140625 
Q 45.0625 54.296875 48.78125 52.59375 
z
" id="DejaVuSans-99"/>
     <path d="M 18.3125 70.21875 
L 18.3125 54.6875 
L 36.8125 54.6875 
L 36.8125 47.703125 
L 18.3125 47.703125 
L 18.3125 18.015625 
Q 18.3125 11.328125 20.140625 9.421875 
Q 21.96875 7.515625 27.59375 7.515625 
L 36.8125 7.515625 
L 36.8125 0 
L 27.59375 0 
Q 17.1875 0 13.234375 3.875 
Q 9.28125 7.765625 9.28125 18.015625 
L 9.28125 47.703125 
L 2.6875 47.703125 
L 2.6875 54.6875 
L 9.28125 54.6875 
L 9.28125 70.21875 
z
" id="DejaVuSans-116"/>
     <path d="M 11.71875 12.40625 
L 22.015625 12.40625 
L 22.015625 0 
L 11.71875 0 
z
M 11.71875 51.703125 
L 22.015625 51.703125 
L 22.015625 39.3125 
L 11.71875 39.3125 
z
" id="DejaVuSans-58"/>
     <path d="M 44.28125 53.078125 
L 44.28125 44.578125 
Q 40.484375 46.53125 36.375 47.5 
Q 32.28125 48.484375 27.875 48.484375 
Q 21.1875 48.484375 17.84375 46.4375 
Q 14.5 44.390625 14.5 40.28125 
Q 14.5 37.15625 16.890625 35.375 
Q 19.28125 33.59375 26.515625 31.984375 
L 29.59375 31.296875 
Q 39.15625 29.25 43.1875 25.515625 
Q 47.21875 21.78125 47.21875 15.09375 
Q 47.21875 7.46875 41.1875 3.015625 
Q 35.15625 -1.421875 24.609375 -1.421875 
Q 20.21875 -1.421875 15.453125 -0.5625 
Q 10.6875 0.296875 5.421875 2 
L 5.421875 11.28125 
Q 10.40625 8.6875 15.234375 7.390625 
Q 20.0625 6.109375 24.8125 6.109375 
Q 31.15625 6.109375 34.5625 8.28125 
Q 37.984375 10.453125 37.984375 14.40625 
Q 37.984375 18.0625 35.515625 20.015625 
Q 33.0625 21.96875 24.703125 23.78125 
L 21.578125 24.515625 
Q 13.234375 26.265625 9.515625 29.90625 
Q 5.8125 33.546875 5.8125 39.890625 
Q 5.8125 47.609375 11.28125 51.796875 
Q 16.75 56 26.8125 56 
Q 31.78125 56 36.171875 55.265625 
Q 40.578125 54.546875 44.28125 53.078125 
z
" id="DejaVuSans-115"/>
     <path d="M 11.71875 12.40625 
L 22.015625 12.40625 
L 22.015625 4 
L 14.015625 -11.625 
L 7.71875 -11.625 
L 11.71875 4 
z
" id="DejaVuSans-44"/>
     <path d="M 9.8125 72.90625 
L 19.671875 72.90625 
L 19.671875 42.09375 
L 52.390625 72.90625 
L 65.09375 72.90625 
L 28.90625 38.921875 
L 67.671875 0 
L 54.6875 0 
L 19.671875 35.109375 
L 19.671875 0 
L 9.8125 0 
z
" id="DejaVuSans-75"/>
     <path d="M 54.890625 33.015625 
L 54.890625 0 
L 45.90625 0 
L 45.90625 32.71875 
Q 45.90625 40.484375 42.875 44.328125 
Q 39.84375 48.1875 33.796875 48.1875 
Q 26.515625 48.1875 22.3125 43.546875 
Q 18.109375 38.921875 18.109375 30.90625 
L 18.109375 0 
L 9.078125 0 
L 9.078125 54.6875 
L 18.109375 54.6875 
L 18.109375 46.1875 
Q 21.34375 51.125 25.703125 53.5625 
Q 30.078125 56 35.796875 56 
Q 45.21875 56 50.046875 50.171875 
Q 54.890625 44.34375 54.890625 33.015625 
z
" id="DejaVuSans-110"/>
     <path d="M 30.609375 48.390625 
Q 23.390625 48.390625 19.1875 42.75 
Q 14.984375 37.109375 14.984375 27.296875 
Q 14.984375 17.484375 19.15625 11.84375 
Q 23.34375 6.203125 30.609375 6.203125 
Q 37.796875 6.203125 41.984375 11.859375 
Q 46.1875 17.53125 46.1875 27.296875 
Q 46.1875 37.015625 41.984375 42.703125 
Q 37.796875 48.390625 30.609375 48.390625 
z
M 30.609375 56 
Q 42.328125 56 49.015625 48.375 
Q 55.71875 40.765625 55.71875 27.296875 
Q 55.71875 13.875 49.015625 6.21875 
Q 42.328125 -1.421875 30.609375 -1.421875 
Q 18.84375 -1.421875 12.171875 6.21875 
Q 5.515625 13.875 5.515625 27.296875 
Q 5.515625 40.765625 12.171875 48.375 
Q 18.84375 56 30.609375 56 
z
" id="DejaVuSans-111"/>
     <path d="M 4.203125 54.6875 
L 13.1875 54.6875 
L 24.421875 12.015625 
L 35.59375 54.6875 
L 46.1875 54.6875 
L 57.421875 12.015625 
L 68.609375 54.6875 
L 77.59375 54.6875 
L 63.28125 0 
L 52.6875 0 
L 40.921875 44.828125 
L 29.109375 0 
L 18.5 0 
z
" id="DejaVuSans-119"/>
     <path d="M 10.59375 45.40625 
L 73.1875 45.40625 
L 73.1875 37.203125 
L 10.59375 37.203125 
z
M 10.59375 25.484375 
L 73.1875 25.484375 
L 73.1875 17.1875 
L 10.59375 17.1875 
z
" id="DejaVuSans-61"/>
     <path d="M 9.8125 72.90625 
L 51.703125 72.90625 
L 51.703125 64.59375 
L 19.671875 64.59375 
L 19.671875 43.109375 
L 48.578125 43.109375 
L 48.578125 34.8125 
L 19.671875 34.8125 
L 19.671875 0 
L 9.8125 0 
z
" id="DejaVuSans-70"/>
     <path d="M 34.28125 27.484375 
Q 23.390625 27.484375 19.1875 25 
Q 14.984375 22.515625 14.984375 16.5 
Q 14.984375 11.71875 18.140625 8.90625 
Q 21.296875 6.109375 26.703125 6.109375 
Q 34.1875 6.109375 38.703125 11.40625 
Q 43.21875 16.703125 43.21875 25.484375 
L 43.21875 27.484375 
z
M 52.203125 31.203125 
L 52.203125 0 
L 43.21875 0 
L 43.21875 8.296875 
Q 40.140625 3.328125 35.546875 0.953125 
Q 30.953125 -1.421875 24.3125 -1.421875 
Q 15.921875 -1.421875 10.953125 3.296875 
Q 6 8.015625 6 15.921875 
Q 6 25.140625 12.171875 29.828125 
Q 18.359375 34.515625 30.609375 34.515625 
L 43.21875 34.515625 
L 43.21875 35.40625 
Q 43.21875 41.609375 39.140625 45 
Q 35.0625 48.390625 27.6875 48.390625 
Q 23 48.390625 18.546875 47.265625 
Q 14.109375 46.140625 10.015625 43.890625 
L 10.015625 52.203125 
Q 14.9375 54.109375 19.578125 55.046875 
Q 24.21875 56 28.609375 56 
Q 40.484375 56 46.34375 49.84375 
Q 52.203125 43.703125 52.203125 31.203125 
z
" id="DejaVuSans-97"/>
     <path d="M 9.421875 75.984375 
L 18.40625 75.984375 
L 18.40625 0 
L 9.421875 0 
z
" id="DejaVuSans-108"/>
     <path d="M 19.671875 64.796875 
L 19.671875 8.109375 
L 31.59375 8.109375 
Q 46.6875 8.109375 53.6875 14.9375 
Q 60.6875 21.78125 60.6875 36.53125 
Q 60.6875 51.171875 53.6875 57.984375 
Q 46.6875 64.796875 31.59375 64.796875 
z
M 9.8125 72.90625 
L 30.078125 72.90625 
Q 51.265625 72.90625 61.171875 64.09375 
Q 71.09375 55.28125 71.09375 36.53125 
Q 71.09375 17.671875 61.125 8.828125 
Q 51.171875 0 30.078125 0 
L 9.8125 0 
z
" id="DejaVuSans-68"/>
     <path d="M 45.40625 27.984375 
Q 45.40625 37.75 41.375 43.109375 
Q 37.359375 48.484375 30.078125 48.484375 
Q 22.859375 48.484375 18.828125 43.109375 
Q 14.796875 37.75 14.796875 27.984375 
Q 14.796875 18.265625 18.828125 12.890625 
Q 22.859375 7.515625 30.078125 7.515625 
Q 37.359375 7.515625 41.375 12.890625 
Q 45.40625 18.265625 45.40625 27.984375 
z
M 54.390625 6.78125 
Q 54.390625 -7.171875 48.1875 -13.984375 
Q 42 -20.796875 29.203125 -20.796875 
Q 24.46875 -20.796875 20.265625 -20.09375 
Q 16.0625 -19.390625 12.109375 -17.921875 
L 12.109375 -9.1875 
Q 16.0625 -11.328125 19.921875 -12.34375 
Q 23.78125 -13.375 27.78125 -13.375 
Q 36.625 -13.375 41.015625 -8.765625 
Q 45.40625 -4.15625 45.40625 5.171875 
L 45.40625 9.625 
Q 42.625 4.78125 38.28125 2.390625 
Q 33.9375 0 27.875 0 
Q 17.828125 0 11.671875 7.65625 
Q 5.515625 15.328125 5.515625 27.984375 
Q 5.515625 40.671875 11.671875 48.328125 
Q 17.828125 56 27.875 56 
Q 33.9375 56 38.28125 53.609375 
Q 42.625 51.21875 45.40625 46.390625 
L 45.40625 54.6875 
L 54.390625 54.6875 
z
" id="DejaVuSans-103"/>
     <path d="M 41.109375 46.296875 
Q 39.59375 47.171875 37.8125 47.578125 
Q 36.03125 48 33.890625 48 
Q 26.265625 48 22.1875 43.046875 
Q 18.109375 38.09375 18.109375 28.8125 
L 18.109375 0 
L 9.078125 0 
L 9.078125 54.6875 
L 18.109375 54.6875 
L 18.109375 46.1875 
Q 20.953125 51.171875 25.484375 53.578125 
Q 30.03125 56 36.53125 56 
Q 37.453125 56 38.578125 55.875 
Q 39.703125 55.765625 41.0625 55.515625 
z
" id="DejaVuSans-114"/>
     <path d="M 9.421875 54.6875 
L 18.40625 54.6875 
L 18.40625 0 
L 9.421875 0 
z
M 9.421875 75.984375 
L 18.40625 75.984375 
L 18.40625 64.59375 
L 9.421875 64.59375 
z
" id="DejaVuSans-105"/>
     <path d="M 10.6875 12.40625 
L 21 12.40625 
L 21 0 
L 10.6875 0 
z
" id="DejaVuSans-46"/>
    </defs>
    <g transform="translate(53.559375 35.472)scale(0.12 -0.12)">
     <use xlink:href="#DejaVuSans-40"/>
     <use x="39.013672" xlink:href="#DejaVuSans-53"/>
     <use x="102.636719" xlink:href="#DejaVuSans-56"/>
     <use x="166.259766" xlink:href="#DejaVuSans-41"/>
     <use x="205.273438" xlink:href="#DejaVuSans-32"/>
     <use x="237.060547" xlink:href="#DejaVuSans-83"/>
     <use x="300.537109" xlink:href="#DejaVuSans-117"/>
     <use x="363.916016" xlink:href="#DejaVuSans-98"/>
     <use x="427.392578" xlink:href="#DejaVuSans-106"/>
     <use x="455.175781" xlink:href="#DejaVuSans-101"/>
     <use x="516.699219" xlink:href="#DejaVuSans-99"/>
     <use x="571.679688" xlink:href="#DejaVuSans-116"/>
     <use x="610.888672" xlink:href="#DejaVuSans-58"/>
     <use x="644.580078" xlink:href="#DejaVuSans-32"/>
     <use x="676.367188" xlink:href="#DejaVuSans-115"/>
     <use x="728.466797" xlink:href="#DejaVuSans-51"/>
     <use x="792.089844" xlink:href="#DejaVuSans-44"/>
     <use x="823.876953" xlink:href="#DejaVuSans-32"/>
     <use x="855.664062" xlink:href="#DejaVuSans-75"/>
     <use x="921.240234" xlink:href="#DejaVuSans-110"/>
     <use x="984.619141" xlink:href="#DejaVuSans-111"/>
     <use x="1045.800781" xlink:href="#DejaVuSans-119"/>
     <use x="1127.587891" xlink:href="#DejaVuSans-110"/>
     <use x="1190.966797" xlink:href="#DejaVuSans-32"/>
     <use x="1222.753906" xlink:href="#DejaVuSans-61"/>
     <use x="1306.542969" xlink:href="#DejaVuSans-32"/>
     <use x="1338.330078" xlink:href="#DejaVuSans-70"/>
     <use x="1395.708984" xlink:href="#DejaVuSans-97"/>
     <use x="1456.988281" xlink:href="#DejaVuSans-108"/>
     <use x="1484.771484" xlink:href="#DejaVuSans-115"/>
     <use x="1536.871094" xlink:href="#DejaVuSans-101"/>
     <use x="1598.394531" xlink:href="#DejaVuSans-44"/>
     <use x="1630.181641" xlink:href="#DejaVuSans-32"/>
     <use x="1661.96875" xlink:href="#DejaVuSans-68"/>
     <use x="1738.970703" xlink:href="#DejaVuSans-101"/>
     <use x="1800.494141" xlink:href="#DejaVuSans-103"/>
     <use x="1863.970703" xlink:href="#DejaVuSans-114"/>
     <use x="1905.052734" xlink:href="#DejaVuSans-101"/>
     <use x="1966.576172" xlink:href="#DejaVuSans-101"/>
     <use x="2028.099609" xlink:href="#DejaVuSans-32"/>
     <use x="2059.886719" xlink:href="#DejaVuSans-61"/>
     <use x="2143.675781" xlink:href="#DejaVuSans-32"/>
     <use x="2175.462891" xlink:href="#DejaVuSans-49"/>
     <use x="2239.085938" xlink:href="#DejaVuSans-44"/>
     <use x="2270.873047" xlink:href="#DejaVuSans-32"/>
     <use x="2302.660156" xlink:href="#DejaVuSans-68"/>
     <use x="2379.662109" xlink:href="#DejaVuSans-117"/>
     <use x="2443.041016" xlink:href="#DejaVuSans-114"/>
     <use x="2484.154297" xlink:href="#DejaVuSans-97"/>
     <use x="2545.433594" xlink:href="#DejaVuSans-116"/>
     <use x="2584.642578" xlink:href="#DejaVuSans-105"/>
     <use x="2612.425781" xlink:href="#DejaVuSans-111"/>
     <use x="2673.607422" xlink:href="#DejaVuSans-110"/>
     <use x="2736.986328" xlink:href="#DejaVuSans-32"/>
     <use x="2768.773438" xlink:href="#DejaVuSans-61"/>
     <use x="2852.5625" xlink:href="#DejaVuSans-32"/>
     <use x="2884.349609" xlink:href="#DejaVuSans-48"/>
     <use x="2947.972656" xlink:href="#DejaVuSans-46"/>
     <use x="2979.759766" xlink:href="#DejaVuSans-49"/>
    </g>
   </g>
  </g>
 </g>
 <defs>
  <clipPath id="pf6de6e0d6c">
   <rect height="266.112" width="357.12" x="57.6" y="41.472"/>
  </clipPath>
 </defs>
</svg>
