<?xml version="1.0" encoding="utf-8" standalone="no"?>
<!DOCTYPE svg PUBLIC "-//W3C//DTD SVG 1.1//EN"
  "http://www.w3.org/Graphics/SVG/1.1/DTD/svg11.dtd">
<!-- Created with matplotlib (https://matplotlib.org/) -->
<svg height="345.6pt" version="1.1" viewBox="0 0 460.8 345.6" width="460.8pt" xmlns="http://www.w3.org/2000/svg" xmlns:xlink="http://www.w3.org/1999/xlink">
 <defs>
  <style type="text/css">
*{stroke-linecap:butt;stroke-linejoin:round;}
  </style>
 </defs>
 <g id="figure_1">
  <g id="patch_1">
   <path d="M 0 345.6 
L 460.8 345.6 
L 460.8 0 
L 0 0 
z
" style="fill:#ffffff;"/>
  </g>
  <g id="axes_1">
   <g id="patch_2">
    <path d="M 57.6 307.584 
L 414.72 307.584 
L 414.72 41.472 
L 57.6 41.472 
z
" style="fill:#ffffff;"/>
   </g>
   <g id="line2d_1">
    <path clip-path="url(#p3c8a71f8e2)" d="M 398.487273 230.430113 
L 386.64465 221.186649 
L 380.514979 217.000496 
L 363.095082 206.187224 
L 340.664845 194.152032 
L 334.254129 191.184924 
L 331.608436 189.44261 
L 329.655664 187.174151 
L 327.843413 185.431838 
L 326.031162 184.209918 
L 324.781 183.163379 
L 324.223757 182.464729 
L 323.802191 182.116841 
L 323.525992 181.593572 
L 323.38547 181.070303 
L 323.666514 180.722415 
L 324.083235 180.722415 
L 324.499955 180.894921 
L 324.916676 180.722415 
L 325.754963 180.547033 
L 327.28617 180.023764 
L 327.426692 180.547033 
L 327.426692 181.070303 
L 327.702891 181.41819 
L 327.702891 181.941459 
L 327.145648 182.815492 
L 327.009971 182.987998 
L 326.869449 182.815492 
L 326.312206 182.464729 
L 325.338243 181.593572 
L 324.781 181.245684 
L 323.942713 180.547033 
L 323.244948 181.070303 
L 323.244948 181.41819 
L 323.525992 180.722415 
L 322.828227 180.371652 
L 322.828227 180.199146 
L 322.968749 179.848383 
L 323.666514 180.371652 
L 323.525992 179.848383 
L 323.244948 179.500495 
L 322.968749 179.675876 
L 322.968749 180.023764 
L 322.828227 179.848383 
L 322.547183 179.152607 
L 322.130462 179.325113 
L 321.98994 179.152607 
L 321.713741 179.152607 
L 321.573219 179.675876 
L 321.432697 179.500495 
L 321.29702 179.152607 
L 321.432697 178.453957 
L 321.156498 178.453957 
L 321.015976 178.629338 
L 321.156498 178.453957 
L 321.015976 178.106069 
L 320.739777 177.930687 
L 320.599255 178.278575 
L 320.739777 178.801844 
L 320.599255 178.801844 
L 320.599255 178.278575 
L 320.318211 178.801844 
L 320.318211 178.629338 
L 320.042012 178.106069 
L 319.90149 177.407418 
L 320.318211 176.708768 
L 319.90149 177.5828 
L 319.90149 177.5828 
L 319.90149 177.755306 
L 319.48477 178.106069 
L 319.068049 177.930687 
L 319.068049 177.407418 
L 319.203725 177.407418 
L 318.927527 178.278575 
L 319.068049 178.453957 
L 319.344247 177.755306 
L 319.48477 177.05953 
L 319.344247 176.708768 
L 318.787005 176.884149 
L 319.068049 176.708768 
L 319.203725 176.536261 
L 319.068049 176.708768 
L 318.646482 177.755306 
L 318.787005 177.232037 
L 318.787005 177.05953 
L 318.787005 177.05953 
L 318.646482 177.407418 
L 318.646482 177.407418 
L 318.370284 176.884149 
L 318.646482 177.407418 
L 318.510806 177.5828 
L 318.370284 177.5828 
L 318.646482 177.407418 
L 318.787005 177.5828 
L 318.510806 177.755306 
L 318.229762 177.5828 
L 318.510806 177.232037 
L 318.229762 177.05953 
L 318.229762 176.884149 
L 317.953563 176.884149 
L 318.510806 176.884149 
L 318.787005 177.05953 
L 318.787005 177.232037 
L 318.510806 177.05953 
L 318.510806 176.884149 
L 318.646482 176.884149 
L 318.646482 177.05953 
L 318.787005 177.05953 
L 318.787005 177.05953 
L 318.646482 177.407418 
L 318.370284 177.5828 
L 318.370284 177.407418 
L 318.787005 177.05953 
L 319.203725 176.185498 
L 319.203725 175.662229 
L 319.203725 176.012992 
L 318.787005 176.185498 
L 318.08924 176.012992 
L 317.813041 175.489723 
L 318.08924 175.314341 
L 318.370284 175.314341 
L 318.229762 175.13896 
L 318.370284 174.966454 
L 319.068049 174.966454 
L 318.646482 174.267803 
L 318.787005 173.744534 
L 318.646482 173.919915 
L 318.229762 173.919915 
L 318.370284 173.919915 
L 318.229762 174.092422 
L 317.953563 173.919915 
L 317.953563 173.569152 
L 318.08924 173.396646 
L 317.813041 173.396646 
L 317.672519 173.221265 
L 317.813041 172.873377 
L 317.813041 173.045883 
L 318.08924 173.045883 
L 318.08924 174.615691 
L 317.953563 174.092422 
L 318.370284 172.873377 
L 318.08924 172.697995 
L 317.531997 173.045883 
L 317.531997 173.221265 
L 317.39632 173.221265 
L 317.115276 173.396646 
L 317.115276 173.396646 
L 317.672519 173.396646 
L 317.672519 173.221265 
L 317.39632 173.045883 
L 317.39632 173.396646 
L 317.531997 173.396646 
L 317.813041 173.045883 
L 317.813041 172.697995 
L 317.531997 173.045883 
L 317.39632 173.396646 
L 317.813041 173.396646 
L 317.813041 173.396646 
L 317.813041 172.697995 
L 317.672519 172.174726 
L 317.813041 172.522614 
L 317.531997 173.045883 
L 317.115276 173.221265 
L 316.698555 172.697995 
L 316.698555 172.350108 
L 316.698555 172.522614 
L 317.255798 173.221265 
L 317.39632 173.221265 
L 317.531997 173.045883 
L 317.531997 172.174726 
L 317.672519 171.999345 
L 317.672519 172.873377 
L 317.531997 172.697995 
L 317.672519 172.697995 
L 317.813041 172.697995 
L 317.813041 172.873377 
L 317.672519 173.045883 
L 317.39632 172.697995 
L 317.39632 172.174726 
L 317.39632 172.174726 
L 317.531997 172.873377 
L 317.39632 173.396646 
L 316.698555 173.396646 
L 316.698555 173.569152 
L 316.839077 173.221265 
L 316.839077 173.221265 
L 317.115276 173.569152 
L 316.698555 173.221265 
L 316.974754 173.569152 
L 316.974754 174.092422 
L 316.698555 173.569152 
L 316.698555 173.396646 
L 316.417511 174.092422 
L 316.417511 173.744534 
L 316.558033 173.221265 
L 316.417511 173.045883 
L 316.839077 173.744534 
L 316.839077 173.396646 
L 316.974754 173.221265 
L 317.115276 173.221265 
L 317.115276 173.396646 
L 317.255798 173.221265 
L 317.255798 173.396646 
L 316.974754 174.092422 
L 316.974754 173.569152 
L 316.558033 174.092422 
L 316.276989 173.919915 
L 316.698555 173.919915 
L 317.255798 174.092422 
L 317.39632 174.267803 
L 317.255798 174.092422 
L 317.39632 173.744534 
L 317.255798 173.919915 
L 316.276989 174.267803 
L 316.276989 174.092422 
L 316.558033 174.092422 
L 316.839077 174.267803 
L 316.839077 174.267803 
L 316.974754 174.092422 
L 316.974754 173.744534 
L 316.974754 174.092422 
L 316.698555 173.919915 
L 316.698555 173.919915 
L 316.839077 173.744534 
L 316.698555 173.919915 
L 316.839077 174.267803 
L 317.255798 174.615691 
L 317.39632 174.615691 
L 317.672519 174.267803 
L 317.255798 174.791072 
L 316.974754 174.966454 
L 316.974754 173.569152 
L 316.698555 173.569152 
L 316.141312 174.092422 
L 316.839077 174.092422 
L 317.39632 174.267803 
L 317.531997 174.615691 
L 317.39632 174.615691 
L 317.115276 174.092422 
L 316.558033 173.744534 
L 315.860268 173.744534 
L 315.026827 173.919915 
L 313.912341 173.744534 
L 312.10009 173.045883 
L 309.449552 172.522614 
L 306.246617 172.174726 
L 302.345917 172.350108 
L 297.747452 172.697995 
L 281.165842 173.221265 
L 274.895648 173.569152 
L 260.54301 175.13896 
L 253.158331 176.012992 
L 238.946214 178.106069 
L 231.842579 179.500495 
L 224.87462 181.070303 
L 218.187706 182.815492 
L 211.360269 183.86203 
L 204.39231 184.557805 
L 191.29468 185.604344 
L 185.165008 186.475501 
L 178.894815 187.522039 
L 172.90082 189.091847 
L 167.328391 190.138385 
L 162.032161 190.837036 
L 157.016975 191.360305 
L 147.679522 193.105494 
L 143.362101 193.453382 
L 135.696378 192.754731 
L 132.217244 192.582225 
L 123.296512 193.453382 
L 120.791342 193.453382 
L 116.885796 193.80127 
L 115.495112 194.675302 
L 114.521148 195.72184 
L 114.099582 196.592997 
L 113.963906 197.291648 
L 114.099582 198.162805 
L 114.797347 198.861455 
L 116.75012 199.557231 
L 118.140804 200.779151 
L 118.838569 200.954532 
L 119.676856 200.603769 
L 119.536334 200.779151 
L 119.395812 200.954532 
L 119.395812 200.954532 
L 119.395812 200.603769 
L 119.25529 200.431263 
L 118.281326 200.431263 
L 117.864606 200.779151 
L 116.609598 203.743384 
L 116.328554 203.918766 
L 115.911833 204.442035 
L 116.192877 204.266653 
L 116.609598 204.266653 
L 116.75012 204.442035 
L 116.609598 204.442035 
L 116.192877 204.789923 
L 116.328554 204.789923 
L 117.166841 204.789923 
L 117.443039 204.617416 
L 117.583561 204.789923 
L 117.583561 205.140686 
L 117.724084 205.663955 
L 117.307363 205.313192 
L 117.166841 205.488573 
L 117.166841 206.011843 
L 116.885796 206.35973 
L 116.885796 206.710493 
L 116.885796 206.710493 
L 117.166841 207.058381 
L 117.166841 207.406269 
L 117.026319 207.58165 
L 117.443039 207.233762 
L 117.166841 207.233762 
L 116.75012 207.233762 
L 116.469076 207.58165 
L 116.328554 208.280301 
L 116.469076 207.406269 
L 116.75012 207.757032 
L 116.609598 207.929538 
L 116.75012 208.104919 
L 116.885796 208.452807 
L 116.75012 208.104919 
L 116.328554 207.58165 
L 115.911833 207.406269 
L 115.771311 207.757032 
L 115.771311 208.280301 
L 116.192877 208.628188 
L 116.192877 208.976076 
L 116.328554 209.151458 
L 116.328554 208.80357 
L 116.052355 208.280301 
L 115.771311 208.280301 
L 115.495112 208.976076 
L 115.495112 209.674727 
L 115.771311 209.499345 
L 116.052355 208.280301 
L 116.192877 208.104919 
L 116.052355 208.452807 
L 115.771311 210.022615 
L 115.635634 209.850108 
L 115.771311 209.674727 
L 115.771311 209.674727 
L 115.771311 210.022615 
L 115.635634 210.373378 
L 115.35459 210.545884 
L 115.35459 210.197996 
L 115.214068 209.674727 
L 114.937869 209.499345 
L 115.078391 210.022615 
L 115.771311 210.373378 
L 116.192877 210.373378 
L 115.635634 210.373378 
L 115.635634 210.022615 
L 115.771311 209.499345 
L 115.771311 209.499345 
L 115.911833 209.850108 
L 115.771311 209.674727 
L 115.635634 209.499345 
L 115.495112 209.499345 
L 115.35459 209.850108 
L 115.35459 210.197996 
L 115.35459 210.197996 
L 115.635634 210.373378 
L 116.052355 210.373378 
L 116.052355 210.197996 
L 115.771311 210.197996 
L 115.495112 210.721265 
L 115.771311 210.896647 
L 116.052355 210.721265 
L 116.192877 211.069153 
L 116.192877 210.545884 
L 115.911833 210.022615 
L 115.911833 210.022615 
L 115.771311 210.197996 
L 115.635634 210.721265 
L 115.495112 210.721265 
L 115.495112 210.373378 
L 115.911833 210.022615 
L 116.328554 210.022615 
L 116.192877 210.022615 
L 116.192877 210.197996 
L 116.328554 210.373378 
L 116.192877 210.197996 
L 115.771311 209.850108 
L 116.052355 210.197996 
L 116.469076 210.545884 
L 116.75012 210.373378 
L 116.469076 210.545884 
L 116.192877 210.373378 
L 116.192877 210.197996 
L 116.469076 210.373378 
L 116.75012 210.721265 
L 116.609598 210.721265 
L 116.469076 210.896647 
L 116.75012 211.419916 
L 117.166841 211.592422 
L 117.307363 211.244534 
L 117.026319 210.545884 
L 116.609598 210.022615 
L 116.75012 210.022615 
L 116.885796 210.022615 
L 117.166841 209.850108 
L 117.583561 210.022615 
L 117.583561 209.850108 
L 118.698047 210.197996 
L 122.322549 210.197996 
L 123.577557 210.896647 
L 126.504293 214.38415 
L 127.754455 215.255307 
L 129.009463 216.477226 
L 131.238435 218.394922 
L 132.076722 219.268954 
L 132.633965 220.487999 
L 133.191208 222.233188 
L 133.74845 222.233188 
L 134.446215 221.8853 
L 134.722414 222.057806 
L 134.581892 222.408569 
L 134.305693 222.756457 
L 134.024649 222.756457 
L 133.467406 222.057806 
L 133.050685 222.057806 
L 132.076722 222.581075 
L 131.795678 222.931838 
L 131.795678 222.931838 
L 131.660001 222.756457 
L 131.378957 222.581075 
L 131.238435 222.756457 
L 131.660001 223.279726 
L 131.519479 223.455107 
L 131.378957 223.978377 
L 132.217244 225.024915 
L 132.217244 225.024915 
L 132.076722 225.024915 
L 132.35292 225.372803 
L 132.35292 225.548184 
L 131.9362 225.372803 
L 131.660001 225.548184 
L 131.795678 225.896072 
L 132.076722 225.896072 
L 132.35292 226.24396 
L 132.35292 226.24396 
L 132.35292 225.896072 
L 132.633965 225.548184 
L 132.633965 225.720691 
L 132.633965 226.071453 
L 132.774487 226.24396 
L 132.774487 226.071453 
L 132.633965 225.720691 
L 132.217244 225.548184 
L 131.9362 225.720691 
L 131.9362 225.720691 
L 131.795678 225.548184 
L 131.9362 225.896072 
L 132.35292 228.860306 
L 132.35292 228.337037 
L 131.9362 227.117992 
L 132.076722 226.94261 
L 132.076722 227.117992 
L 132.076722 227.46588 
L 132.217244 227.989149 
L 132.076722 228.512418 
L 132.217244 228.337037 
L 132.493443 227.641261 
L 132.493443 227.117992 
L 132.35292 227.290498 
L 132.076722 227.813767 
L 132.076722 228.16453 
L 132.076722 227.641261 
L 132.076722 227.813767 
L 131.9362 227.989149 
L 131.660001 227.989149 
L 131.660001 227.989149 
L 132.076722 228.512418 
L 132.35292 228.512418 
L 132.633965 227.989149 
L 132.493443 227.989149 
L 132.217244 228.512418 
L 132.217244 229.035687 
L 132.35292 228.860306 
L 132.493443 228.16453 
L 132.217244 228.16453 
L 132.217244 228.337037 
L 132.493443 228.337037 
L 132.774487 228.16453 
L 132.774487 228.16453 
L 132.774487 228.337037 
L 132.076722 229.383575 
L 131.9362 229.734338 
L 132.217244 229.734338 
L 132.217244 230.082226 
L 132.076722 230.430113 
L 131.795678 230.605495 
L 131.795678 230.430113 
L 131.9362 230.257607 
L 132.076722 229.734338 
L 132.217244 229.734338 
L 132.35292 229.906844 
L 132.910163 230.257607 
L 135.977422 230.780876 
L 138.763636 230.780876 
L 146.986603 230.430113 
L 152.277988 230.605495 
L 158.688703 231.128764 
L 165.797184 231.827415 
L 173.739107 232.873953 
L 191.851923 235.838187 
L 201.465574 237.407994 
L 232.676021 242.813193 
L 243.268481 245.081651 
L 253.579897 247.697997 
L 273.64064 253.278577 
L 292.175023 258.68665 
L 310.287839 263.048185 
L 318.370284 265.313768 
L 325.895485 267.582226 
L 340.107602 271.245111 
L 358.777661 274.732614 
L 368.948555 276.477803 
L 373.406498 277.524341 
L 383.717914 279.26953 
L 386.363606 279.617418 
L 388.597423 279.792799 
L 391.102593 280.663956 
L 392.076557 281.535113 
L 391.94088 281.710495 
L 390.962071 282.058382 
L 388.456901 281.710495 
L 386.227929 282.058382 
L 385.530164 282.233764 
L 384.972922 282.233764 
L 384.415679 282.581652 
L 383.577392 282.581652 
L 384.275157 282.932414 
L 385.389642 283.455684 
L 386.785172 284.502222 
L 387.201893 285.025491 
L 387.759136 285.025491 
L 388.175857 284.85011 
L 388.456901 285.197998 
L 388.456901 286.595299 
L 388.456901 286.419917 
L 388.597423 286.07203 
L 388.7331 286.07203 
L 388.456901 286.244536 
L 388.316379 286.419917 
L 388.597423 286.595299 
L 388.873622 286.595299 
L 388.7331 286.595299 
L 388.175857 287.466456 
L 388.316379 287.291074 
L 388.316379 288.165106 
L 388.456901 288.165106 
L 388.456901 288.165106 
L 388.456901 288.337613 
L 388.456901 288.337613 
L 389.290342 288.688376 
L 389.430865 288.512994 
L 389.430865 288.165106 
L 388.7331 288.165106 
L 388.597423 288.512994 
L 388.873622 288.860882 
L 389.154666 288.860882 
L 389.571387 288.512994 
L 389.711909 289.036263 
L 389.571387 289.384151 
L 389.154666 289.384151 
L 388.456901 289.559533 
L 388.456901 289.384151 
L 388.873622 289.211645 
L 389.154666 289.559533 
L 388.456901 290.082802 
L 388.316379 290.430689 
L 388.597423 290.606071 
L 388.873622 290.430689 
L 388.873622 290.258183 
L 388.7331 290.082802 
L 388.7331 290.953959 
L 389.154666 290.953959 
L 389.711909 291.12934 
L 389.711909 291.301846 
L 389.290342 291.652609 
L 389.290342 291.825116 
L 389.290342 291.477228 
L 389.571387 291.301846 
L 389.711909 291.477228 
L 389.014144 292.348385 
L 388.873622 292.699148 
L 389.154666 291.825116 
L 389.430865 292.175878 
L 389.571387 292.175878 
L 389.430865 292.175878 
L 389.290342 292.348385 
L 389.847585 291.825116 
L 390.269152 291.825116 
L 390.12863 292.348385 
L 389.847585 292.523766 
L 389.571387 292.523766 
L 389.290342 292.871654 
L 389.154666 293.394923 
L 389.847585 293.047035 
L 389.711909 293.047035 
L 389.430865 293.047035 
L 389.290342 293.394923 
L 389.571387 293.570305 
L 389.711909 293.570305 
L 389.571387 293.570305 
L 389.290342 293.222417 
L 389.014144 293.222417 
L 388.873622 293.394923 
L 388.7331 293.918192 
L 388.7331 294.616843 
L 389.014144 294.964731 
L 389.014144 294.792224 
L 389.014144 294.268955 
L 389.290342 293.570305 
L 389.014144 294.268955 
L 389.847585 294.268955 
L 389.847585 294.441462 
L 389.290342 294.792224 
L 389.014144 294.964731 
L 388.7331 294.964731 
L 388.597423 294.616843 
L 388.7331 294.268955 
L 388.873622 294.268955 
L 388.873622 295.488 
L 389.014144 295.488 
L 389.154666 295.315494 
L 389.290342 294.964731 
L 389.290342 294.616843 
L 389.014144 294.441462 
L 388.873622 294.616843 
L 389.154666 294.441462 
L 389.290342 294.441462 
L 389.154666 294.441462 
L 389.014144 294.616843 
L 389.290342 294.792224 
L 389.430865 294.792224 
L 389.290342 295.140112 
L 389.571387 294.616843 
L 389.430865 295.315494 
L 389.571387 294.792224 
L 389.571387 293.570305 
L 389.430865 293.745686 
L 389.571387 294.268955 
L 389.571387 294.792224 
L 389.290342 295.140112 
L 389.014144 295.140112 
L 388.7331 294.616843 
L 388.597423 294.441462 
L 388.597423 294.441462 
L 388.597423 295.140112 
L 389.154666 295.488 
L 389.430865 295.315494 
L 389.571387 294.964731 
L 389.430865 294.792224 
L 389.154666 294.792224 
L 388.873622 294.441462 
L 389.154666 294.093574 
L 389.290342 293.745686 
L 389.430865 293.918192 
L 389.290342 294.792224 
L 389.571387 294.792224 
L 389.847585 294.268955 
L 389.847585 293.570305 
L 389.571387 293.394923 
L 388.873622 293.222417 
L 385.670687 292.000497 
L 383.301193 291.477228 
L 380.093412 290.953959 
L 376.192712 289.734914 
L 371.734769 287.814343 
L 366.438539 285.721267 
L 360.308867 283.62819 
L 353.06471 281.362607 
L 345.26331 279.094149 
L 336.899821 276.302421 
L 327.983935 273.513569 
L 318.646482 271.245111 
L 309.173354 268.804146 
L 299.41918 265.664531 
L 289.388809 262.174153 
L 279.217915 259.209919 
L 259.569046 254.325115 
L 240.898987 249.092423 
L 232.118778 246.476077 
L 215.401491 241.070879 
L 207.038003 238.627039 
L 198.67936 236.361456 
L 190.596915 233.920491 
L 182.654993 231.304145 
L 174.853592 228.860306 
L 159.526991 224.674152 
L 137.789673 217.523765 
L 130.54067 215.255307 
L 110.05836 208.280301 
L 104.06921 206.011843 
L 93.481596 201.477801 
L 89.018807 199.732612 
L 79.264634 196.768378 
L 77.035662 196.417616 
L 75.644978 195.546459 
L 75.228257 195.023189 
L 75.228257 195.023189 
L 75.921177 195.198571 
L 78.707391 195.198571 
L 80.383965 194.675302 
L 81.915172 194.324539 
L 82.889135 194.49992 
L 83.863099 196.417616 
L 84.420342 196.417616 
L 85.258629 195.546459 
L 85.534828 195.546459 
L 85.258629 196.245109 
L 84.003621 197.464154 
L 83.17018 197.639535 
L 82.472415 197.639535 
L 81.634128 197.291648 
L 80.800686 197.291648 
L 80.102921 197.639535 
L 79.6862 198.162805 
L 79.264634 198.162805 
L 78.150148 197.814917 
L 78.29067 197.814917 
L 78.431192 197.639535 
L 79.128957 196.245109 
L 79.264634 196.245109 
L 79.545678 196.417616 
L 80.800686 196.417616 
L 80.660164 196.245109 
L 80.383965 196.245109 
L 80.102921 196.069728 
L 79.962399 196.245109 
L 79.826722 196.069728 
L 79.826722 195.371077 
L 79.826722 195.546459 
L 79.405156 196.069728 
L 79.264634 195.894346 
L 78.988435 195.894346 
L 78.707391 196.069728 
L 78.847913 196.069728 
L 79.128957 195.546459 
L 79.128957 195.198571 
L 78.707391 195.198571 
L 78.150148 195.546459 
L 78.150148 195.546459 
L 78.014472 195.894346 
L 78.014472 195.546459 
L 77.87395 195.371077 
L 77.592905 195.894346 
L 77.733427 195.894346 
L 77.592905 195.72184 
L 77.592905 195.72184 
L 77.87395 195.546459 
L 77.87395 195.894346 
L 77.457229 196.245109 
L 76.618942 196.069728 
L 76.342743 196.069728 
L 76.342743 195.198571 
L 76.342743 195.894346 
L 76.061699 195.546459 
L 76.202221 195.894346 
L 75.921177 196.417616 
L 75.228257 196.768378 
L 74.806691 196.940885 
L 74.806691 196.768378 
L 75.087735 196.768378 
L 75.363934 197.116266 
L 75.087735 196.592997 
L 75.087735 196.245109 
L 75.644978 196.592997 
L 75.504456 196.940885 
L 74.947213 197.116266 
L 75.228257 197.116266 
L 75.087735 197.291648 
L 75.087735 197.116266 
L 75.087735 196.768378 
L 74.947213 196.768378 
L 74.38997 197.464154 
L 73.973249 196.940885 
L 74.38997 197.639535 
L 73.832727 197.291648 
L 73.832727 197.639535 
L 73.973249 197.814917 
L 74.530492 197.464154 
L 74.530492 197.116266 
L 74.249448 197.639535 
L 74.38997 197.639535 
L 74.947213 197.464154 
L 74.947213 197.291648 
L 74.671014 197.464154 
L 74.38997 197.464154 
L 74.38997 197.464154 
L 74.38997 197.291648 
L 74.249448 197.814917 
L 73.832727 198.686074 
L 74.113772 198.686074 
L 74.249448 198.338186 
L 74.530492 197.814917 
L 74.947213 197.464154 
L 74.947213 197.464154 
L 74.671014 197.464154 
L 74.530492 197.291648 
L 74.671014 197.639535 
L 74.530492 198.162805 
L 74.806691 198.162805 
L 75.087735 197.639535 
L 74.806691 197.639535 
L 75.087735 197.639535 
L 74.530492 197.116266 
L 74.671014 197.639535 
L 74.947213 197.639535 
L 75.087735 197.291648 
L 74.947213 196.940885 
L 74.671014 196.768378 
L 74.947213 196.940885 
L 74.947213 197.116266 
L 75.363934 196.592997 
L 75.363934 196.592997 
L 75.087735 197.291648 
L 75.087735 197.814917 
L 75.363934 197.987423 
L 75.228257 197.814917 
L 75.087735 197.464154 
L 75.228257 197.291648 
L 75.363934 197.464154 
L 75.363934 197.464154 
L 75.087735 197.639535 
L 74.947213 197.116266 
L 75.087735 196.592997 
L 75.363934 196.592997 
L 75.644978 196.069728 
L 75.7855 196.417616 
L 75.504456 196.417616 
L 75.228257 196.245109 
L 75.363934 196.417616 
L 75.363934 196.768378 
L 75.228257 197.116266 
L 75.087735 197.116266 
L 75.087735 197.116266 
L 75.504456 196.768378 
L 75.228257 196.592997 
L 75.228257 196.592997 
L 75.087735 196.592997 
L 74.806691 196.245109 
L 75.087735 196.592997 
L 75.504456 196.417616 
L 75.7855 195.72184 
L 75.921177 195.894346 
L 76.202221 196.069728 
L 76.202221 195.894346 
L 76.061699 195.894346 
L 76.342743 196.592997 
L 76.202221 196.592997 
L 75.7855 196.069728 
L 75.644978 195.023189 
L 75.7855 195.023189 
L 75.7855 194.847808 
L 75.504456 194.49992 
L 75.504456 194.152032 
L 75.644978 193.628763 
L 76.061699 193.105494 
L 76.342743 192.406843 
L 76.759464 189.790497 
L 77.733427 187.522039 
L 78.988435 185.081075 
L 82.055694 180.199146 
L 84.560864 176.536261 
L 87.347078 171.999345 
L 93.341074 161.533961 
L 96.825053 156.47665 
L 100.444709 150.896071 
L 104.06921 144.789347 
L 107.55319 138.162228 
L 111.313368 131.882998 
L 115.495112 125.779149 
L 123.296512 114.091845 
L 139.878122 93.51184 
L 144.200389 88.802418 
L 148.377287 84.616264 
L 152.41851 80.777998 
L 156.459732 77.638383 
L 160.641476 74.674149 
L 164.542176 72.057803 
L 167.885634 69.441457 
L 170.671848 66.477224 
L 174.71307 61.592419 
L 176.942042 58.104916 
L 177.358763 56.882997 
L 177.223086 55.836458 
L 175.968078 53.918763 
L 174.71307 53.568 
L 173.31754 53.743381 
L 171.510135 55.48857 
L 168.859597 56.707615 
L 168.583399 57.406266 
L 168.161832 58.104916 
L 167.604589 58.452804 
L 167.328391 58.976073 
L 167.468913 59.323961 
L 167.885634 58.976073 
L 168.026156 58.452804 
L 168.302354 58.104916 
L 168.719075 58.104916 
L 169.281164 58.628186 
L 170.255127 57.230884 
L 170.395649 56.535109 
L 169.000119 54.965301 
L 168.583399 54.965301 
L 168.583399 55.137808 
L 168.719075 55.48857 
L 169.000119 55.313189 
L 168.859597 55.137808 
L 168.583399 55.313189 
L 168.442877 55.661077 
L 168.583399 55.661077 
L 168.719075 55.48857 
L 168.583399 55.836458 
L 168.442877 56.184346 
L 168.583399 56.359727 
L 168.719075 56.01184 
L 168.719075 55.661077 
L 168.583399 55.313189 
L 168.719075 54.965301 
L 168.583399 55.313189 
L 168.719075 55.836458 
L 169.000119 56.184346 
L 168.442877 55.661077 
L 168.026156 56.01184 
L 168.026156 56.535109 
L 168.161832 56.535109 
L 168.302354 56.01184 
L 168.161832 55.661077 
L 168.161832 55.661077 
L 168.161832 55.313189 
L 168.026156 54.614538 
L 167.745112 54.266651 
L 167.885634 54.091269 
L 168.161832 54.442032 
L 168.161832 54.965301 
L 168.026156 55.313189 
L 168.161832 55.313189 
L 168.302354 55.137808 
L 168.302354 54.78992 
L 168.161832 54.78992 
L 168.161832 54.965301 
L 168.026156 55.137808 
L 167.885634 54.965301 
L 167.745112 54.614538 
L 167.604589 54.965301 
L 167.604589 55.313189 
L 167.604589 55.137808 
L 167.745112 55.48857 
L 167.885634 55.313189 
L 167.885634 54.091269 
L 167.745112 54.442032 
L 167.745112 54.965301 
L 167.885634 56.184346 
L 167.745112 56.184346 
L 167.745112 56.01184 
L 167.885634 55.661077 
L 168.161832 55.661077 
L 168.302354 55.313189 
L 168.026156 54.78992 
L 168.583399 56.01184 
L 168.583399 56.01184 
L 168.583399 55.661077 
L 168.719075 55.48857 
L 168.442877 56.01184 
L 168.442877 56.184346 
L 168.442877 55.661077 
L 168.859597 55.313189 
L 168.719075 55.48857 
L 168.442877 54.965301 
L 168.161832 56.184346 
L 168.442877 56.359727 
L 168.719075 56.184346 
L 168.719075 56.01184 
L 168.583399 55.661077 
L 168.719075 55.661077 
L 168.719075 56.184346 
L 168.859597 56.01184 
L 168.859597 56.184346 
L 169.000119 56.359727 
L 169.000119 56.359727 
L 168.719075 56.359727 
L 168.719075 56.535109 
L 168.719075 56.359727 
L 168.859597 56.01184 
L 168.442877 57.058378 
L 168.583399 56.882997 
L 169.000119 56.707615 
L 169.41684 56.707615 
L 169.41684 56.707615 
L 169.000119 56.535109 
L 169.000119 56.707615 
L 168.719075 56.707615 
L 168.719075 56.707615 
L 168.859597 56.882997 
L 168.442877 56.535109 
L 168.302354 56.535109 
L 169.000119 57.058378 
L 169.000119 57.058378 
L 169.000119 56.535109 
L 169.140642 56.184346 
L 168.859597 56.707615 
L 168.719075 56.707615 
L 168.719075 56.535109 
L 168.859597 56.359727 
L 168.859597 56.707615 
L 168.583399 56.707615 
L 169.000119 56.707615 
L 169.000119 57.230884 
L 168.859597 57.406266 
L 168.719075 57.058378 
L 168.442877 56.535109 
L 168.442877 57.406266 
L 168.719075 57.754154 
L 167.885634 56.535109 
L 168.161832 56.535109 
L 168.583399 56.707615 
L 168.442877 57.058378 
L 168.583399 57.230884 
L 168.442877 57.406266 
L 168.161832 57.406266 
L 168.026156 57.058378 
L 168.161832 57.058378 
L 168.302354 57.230884 
L 168.302354 57.058378 
L 168.161832 56.707615 
L 168.442877 57.230884 
L 168.583399 57.230884 
L 168.719075 57.058378 
L 169.000119 57.058378 
L 169.000119 57.406266 
L 168.719075 58.104916 
L 168.161832 58.277423 
L 168.161832 58.104916 
L 168.442877 57.581647 
L 168.302354 57.754154 
L 168.161832 56.882997 
L 168.302354 57.754154 
L 168.442877 57.754154 
L 168.302354 57.581647 
L 168.026156 57.581647 
L 167.745112 57.929535 
L 167.604589 57.581647 
L 167.328391 57.581647 
L 167.468913 57.581647 
L 167.468913 56.882997 
L 167.187869 56.535109 
L 167.328391 56.535109 
L 167.885634 57.058378 
L 167.604589 57.406266 
L 167.745112 57.581647 
L 168.302354 57.929535 
L 168.302354 58.104916 
L 168.026156 58.104916 
L 167.885634 58.452804 
L 167.885634 58.628186 
L 167.745112 58.800692 
L 167.604589 58.452804 
L 167.604589 58.104916 
L 167.885634 58.104916 
L 167.468913 58.452804 
L 167.047347 58.452804 
L 166.91167 58.104916 
L 166.91167 57.581647 
L 166.91167 57.581647 
L 167.187869 57.406266 
L 167.604589 57.581647 
L 167.885634 58.277423 
L 167.885634 58.976073 
L 167.604589 58.976073 
L 167.328391 58.628186 
L 167.328391 57.929535 
L 167.468913 57.754154 
L 167.328391 58.104916 
L 167.328391 59.151455 
L 167.745112 59.499343 
L 167.745112 59.323961 
L 168.026156 58.628186 
L 167.885634 58.628186 
L 166.490104 57.929535 
L 166.490104 57.929535 
L 166.91167 58.800692 
L 167.047347 58.976073 
L 167.047347 58.976073 
L 167.328391 58.452804 
L 167.604589 58.277423 
L 167.745112 58.452804 
L 167.047347 58.452804 
L 167.047347 58.277423 
L 167.328391 58.277423 
L 167.328391 58.277423 
" style="fill:none;stroke:#1f77b4;stroke-linecap:square;stroke-width:1.5;"/>
   </g>
   <g id="matplotlib.axis_1">
    <g id="xtick_1">
     <g id="line2d_2">
      <defs>
       <path d="M 0 0 
L 0 3.5 
" id="m70a6593e07" style="stroke:#000000;stroke-width:0.8;"/>
      </defs>
      <g>
       <use style="stroke:#000000;stroke-width:0.8;" x="104.14674" xlink:href="#m70a6593e07" y="307.584"/>
      </g>
     </g>
     <g id="text_1">
      <!-- −300 -->
      <defs>
       <path d="M 10.59375 35.5 
L 73.1875 35.5 
L 73.1875 27.203125 
L 10.59375 27.203125 
z
" id="DejaVuSans-8722"/>
       <path d="M 40.578125 39.3125 
Q 47.65625 37.796875 51.625 33 
Q 55.609375 28.21875 55.609375 21.1875 
Q 55.609375 10.40625 48.1875 4.484375 
Q 40.765625 -1.421875 27.09375 -1.421875 
Q 22.515625 -1.421875 17.65625 -0.515625 
Q 12.796875 0.390625 7.625 2.203125 
L 7.625 11.71875 
Q 11.71875 9.328125 16.59375 8.109375 
Q 21.484375 6.890625 26.8125 6.890625 
Q 36.078125 6.890625 40.9375 10.546875 
Q 45.796875 14.203125 45.796875 21.1875 
Q 45.796875 27.640625 41.28125 31.265625 
Q 36.765625 34.90625 28.71875 34.90625 
L 20.21875 34.90625 
L 20.21875 43.015625 
L 29.109375 43.015625 
Q 36.375 43.015625 40.234375 45.921875 
Q 44.09375 48.828125 44.09375 54.296875 
Q 44.09375 59.90625 40.109375 62.90625 
Q 36.140625 65.921875 28.71875 65.921875 
Q 24.65625 65.921875 20.015625 65.03125 
Q 15.375 64.15625 9.8125 62.3125 
L 9.8125 71.09375 
Q 15.4375 72.65625 20.34375 73.4375 
Q 25.25 74.21875 29.59375 74.21875 
Q 40.828125 74.21875 47.359375 69.109375 
Q 53.90625 64.015625 53.90625 55.328125 
Q 53.90625 49.265625 50.4375 45.09375 
Q 46.96875 40.921875 40.578125 39.3125 
z
" id="DejaVuSans-51"/>
       <path d="M 31.78125 66.40625 
Q 24.171875 66.40625 20.328125 58.90625 
Q 16.5 51.421875 16.5 36.375 
Q 16.5 21.390625 20.328125 13.890625 
Q 24.171875 6.390625 31.78125 6.390625 
Q 39.453125 6.390625 43.28125 13.890625 
Q 47.125 21.390625 47.125 36.375 
Q 47.125 51.421875 43.28125 58.90625 
Q 39.453125 66.40625 31.78125 66.40625 
z
M 31.78125 74.21875 
Q 44.046875 74.21875 50.515625 64.515625 
Q 56.984375 54.828125 56.984375 36.375 
Q 56.984375 17.96875 50.515625 8.265625 
Q 44.046875 -1.421875 31.78125 -1.421875 
Q 19.53125 -1.421875 13.0625 8.265625 
Q 6.59375 17.96875 6.59375 36.375 
Q 6.59375 54.828125 13.0625 64.515625 
Q 19.53125 74.21875 31.78125 74.21875 
z
" id="DejaVuSans-48"/>
      </defs>
      <g transform="translate(90.413146 322.182437)scale(0.1 -0.1)">
       <use xlink:href="#DejaVuSans-8722"/>
       <use x="83.789062" xlink:href="#DejaVuSans-51"/>
       <use x="147.412109" xlink:href="#DejaVuSans-48"/>
       <use x="211.035156" xlink:href="#DejaVuSans-48"/>
      </g>
     </g>
    </g>
    <g id="xtick_2">
     <g id="line2d_3">
      <g>
       <use style="stroke:#000000;stroke-width:0.8;" x="152.602642" xlink:href="#m70a6593e07" y="307.584"/>
      </g>
     </g>
     <g id="text_2">
      <!-- −200 -->
      <defs>
       <path d="M 19.1875 8.296875 
L 53.609375 8.296875 
L 53.609375 0 
L 7.328125 0 
L 7.328125 8.296875 
Q 12.9375 14.109375 22.625 23.890625 
Q 32.328125 33.6875 34.8125 36.53125 
Q 39.546875 41.84375 41.421875 45.53125 
Q 43.3125 49.21875 43.3125 52.78125 
Q 43.3125 58.59375 39.234375 62.25 
Q 35.15625 65.921875 28.609375 65.921875 
Q 23.96875 65.921875 18.8125 64.3125 
Q 13.671875 62.703125 7.8125 59.421875 
L 7.8125 69.390625 
Q 13.765625 71.78125 18.9375 73 
Q 24.125 74.21875 28.421875 74.21875 
Q 39.75 74.21875 46.484375 68.546875 
Q 53.21875 62.890625 53.21875 53.421875 
Q 53.21875 48.921875 51.53125 44.890625 
Q 49.859375 40.875 45.40625 35.40625 
Q 44.1875 33.984375 37.640625 27.21875 
Q 31.109375 20.453125 19.1875 8.296875 
z
" id="DejaVuSans-50"/>
      </defs>
      <g transform="translate(138.869048 322.182437)scale(0.1 -0.1)">
       <use xlink:href="#DejaVuSans-8722"/>
       <use x="83.789062" xlink:href="#DejaVuSans-50"/>
       <use x="147.412109" xlink:href="#DejaVuSans-48"/>
       <use x="211.035156" xlink:href="#DejaVuSans-48"/>
      </g>
     </g>
    </g>
    <g id="xtick_3">
     <g id="line2d_4">
      <g>
       <use style="stroke:#000000;stroke-width:0.8;" x="201.058544" xlink:href="#m70a6593e07" y="307.584"/>
      </g>
     </g>
     <g id="text_3">
      <!-- −100 -->
      <defs>
       <path d="M 12.40625 8.296875 
L 28.515625 8.296875 
L 28.515625 63.921875 
L 10.984375 60.40625 
L 10.984375 69.390625 
L 28.421875 72.90625 
L 38.28125 72.90625 
L 38.28125 8.296875 
L 54.390625 8.296875 
L 54.390625 0 
L 12.40625 0 
z
" id="DejaVuSans-49"/>
      </defs>
      <g transform="translate(187.324951 322.182437)scale(0.1 -0.1)">
       <use xlink:href="#DejaVuSans-8722"/>
       <use x="83.789062" xlink:href="#DejaVuSans-49"/>
       <use x="147.412109" xlink:href="#DejaVuSans-48"/>
       <use x="211.035156" xlink:href="#DejaVuSans-48"/>
      </g>
     </g>
    </g>
    <g id="xtick_4">
     <g id="line2d_5">
      <g>
       <use style="stroke:#000000;stroke-width:0.8;" x="249.514447" xlink:href="#m70a6593e07" y="307.584"/>
      </g>
     </g>
     <g id="text_4">
      <!-- 0 -->
      <g transform="translate(246.333197 322.182437)scale(0.1 -0.1)">
       <use xlink:href="#DejaVuSans-48"/>
      </g>
     </g>
    </g>
    <g id="xtick_5">
     <g id="line2d_6">
      <g>
       <use style="stroke:#000000;stroke-width:0.8;" x="297.970349" xlink:href="#m70a6593e07" y="307.584"/>
      </g>
     </g>
     <g id="text_5">
      <!-- 100 -->
      <g transform="translate(288.426599 322.182437)scale(0.1 -0.1)">
       <use xlink:href="#DejaVuSans-49"/>
       <use x="63.623047" xlink:href="#DejaVuSans-48"/>
       <use x="127.246094" xlink:href="#DejaVuSans-48"/>
      </g>
     </g>
    </g>
    <g id="xtick_6">
     <g id="line2d_7">
      <g>
       <use style="stroke:#000000;stroke-width:0.8;" x="346.426251" xlink:href="#m70a6593e07" y="307.584"/>
      </g>
     </g>
     <g id="text_6">
      <!-- 200 -->
      <g transform="translate(336.882501 322.182437)scale(0.1 -0.1)">
       <use xlink:href="#DejaVuSans-50"/>
       <use x="63.623047" xlink:href="#DejaVuSans-48"/>
       <use x="127.246094" xlink:href="#DejaVuSans-48"/>
      </g>
     </g>
    </g>
    <g id="xtick_7">
     <g id="line2d_8">
      <g>
       <use style="stroke:#000000;stroke-width:0.8;" x="394.882154" xlink:href="#m70a6593e07" y="307.584"/>
      </g>
     </g>
     <g id="text_7">
      <!-- 300 -->
      <g transform="translate(385.338404 322.182437)scale(0.1 -0.1)">
       <use xlink:href="#DejaVuSans-51"/>
       <use x="63.623047" xlink:href="#DejaVuSans-48"/>
       <use x="127.246094" xlink:href="#DejaVuSans-48"/>
      </g>
     </g>
    </g>
   </g>
   <g id="matplotlib.axis_2">
    <g id="ytick_1">
     <g id="line2d_9">
      <defs>
       <path d="M 0 0 
L -3.5 0 
" id="m3ba854d578" style="stroke:#000000;stroke-width:0.8;"/>
      </defs>
      <g>
       <use style="stroke:#000000;stroke-width:0.8;" x="57.6" xlink:href="#m3ba854d578" y="274.35885"/>
      </g>
     </g>
     <g id="text_8">
      <!-- −400 -->
      <defs>
       <path d="M 37.796875 64.3125 
L 12.890625 25.390625 
L 37.796875 25.390625 
z
M 35.203125 72.90625 
L 47.609375 72.90625 
L 47.609375 25.390625 
L 58.015625 25.390625 
L 58.015625 17.1875 
L 47.609375 17.1875 
L 47.609375 0 
L 37.796875 0 
L 37.796875 17.1875 
L 4.890625 17.1875 
L 4.890625 26.703125 
z
" id="DejaVuSans-52"/>
      </defs>
      <g transform="translate(23.132812 278.158069)scale(0.1 -0.1)">
       <use xlink:href="#DejaVuSans-8722"/>
       <use x="83.789062" xlink:href="#DejaVuSans-52"/>
       <use x="147.412109" xlink:href="#DejaVuSans-48"/>
       <use x="211.035156" xlink:href="#DejaVuSans-48"/>
      </g>
     </g>
    </g>
    <g id="ytick_2">
     <g id="line2d_10">
      <g>
       <use style="stroke:#000000;stroke-width:0.8;" x="57.6" xlink:href="#m3ba854d578" y="216.85674"/>
      </g>
     </g>
     <g id="text_9">
      <!-- −200 -->
      <g transform="translate(23.132812 220.655959)scale(0.1 -0.1)">
       <use xlink:href="#DejaVuSans-8722"/>
       <use x="83.789062" xlink:href="#DejaVuSans-50"/>
       <use x="147.412109" xlink:href="#DejaVuSans-48"/>
       <use x="211.035156" xlink:href="#DejaVuSans-48"/>
      </g>
     </g>
    </g>
    <g id="ytick_3">
     <g id="line2d_11">
      <g>
       <use style="stroke:#000000;stroke-width:0.8;" x="57.6" xlink:href="#m3ba854d578" y="159.354631"/>
      </g>
     </g>
     <g id="text_10">
      <!-- 0 -->
      <g transform="translate(44.2375 163.15385)scale(0.1 -0.1)">
       <use xlink:href="#DejaVuSans-48"/>
      </g>
     </g>
    </g>
    <g id="ytick_4">
     <g id="line2d_12">
      <g>
       <use style="stroke:#000000;stroke-width:0.8;" x="57.6" xlink:href="#m3ba854d578" y="101.852521"/>
      </g>
     </g>
     <g id="text_11">
      <!-- 200 -->
      <g transform="translate(31.5125 105.65174)scale(0.1 -0.1)">
       <use xlink:href="#DejaVuSans-50"/>
       <use x="63.623047" xlink:href="#DejaVuSans-48"/>
       <use x="127.246094" xlink:href="#DejaVuSans-48"/>
      </g>
     </g>
    </g>
    <g id="ytick_5">
     <g id="line2d_13">
      <g>
       <use style="stroke:#000000;stroke-width:0.8;" x="57.6" xlink:href="#m3ba854d578" y="44.350412"/>
      </g>
     </g>
     <g id="text_12">
      <!-- 400 -->
      <g transform="translate(31.5125 48.149631)scale(0.1 -0.1)">
       <use xlink:href="#DejaVuSans-52"/>
       <use x="63.623047" xlink:href="#DejaVuSans-48"/>
       <use x="127.246094" xlink:href="#DejaVuSans-48"/>
      </g>
     </g>
    </g>
   </g>
   <g id="line2d_14">
    <path clip-path="url(#p3c8a71f8e2)" d="M 321.161968 178.238279 
L 313.550559 173.585709 
L 118.880397 203.629167 
L 126.597887 219.806712 
L 387.71339 287.975614 
L 77.232666 196.768828 
L 168.441424 57.088103 
" style="fill:none;stroke:#ff0000;stroke-linecap:square;stroke-width:0.5;"/>
   </g>
   <g id="patch_3">
    <path d="M 57.6 307.584 
L 57.6 41.472 
" style="fill:none;stroke:#000000;stroke-linecap:square;stroke-linejoin:miter;stroke-width:0.8;"/>
   </g>
   <g id="patch_4">
    <path d="M 414.72 307.584 
L 414.72 41.472 
" style="fill:none;stroke:#000000;stroke-linecap:square;stroke-linejoin:miter;stroke-width:0.8;"/>
   </g>
   <g id="patch_5">
    <path d="M 57.6 307.584 
L 414.72 307.584 
" style="fill:none;stroke:#000000;stroke-linecap:square;stroke-linejoin:miter;stroke-width:0.8;"/>
   </g>
   <g id="patch_6">
    <path d="M 57.6 41.472 
L 414.72 41.472 
" style="fill:none;stroke:#000000;stroke-linecap:square;stroke-linejoin:miter;stroke-width:0.8;"/>
   </g>
   <g id="PathCollection_1">
    <defs>
     <path d="M 0 2.738613 
C 0.726289 2.738613 1.422928 2.450055 1.936492 1.936492 
C 2.450055 1.422928 2.738613 0.726289 2.738613 0 
C 2.738613 -0.726289 2.450055 -1.422928 1.936492 -1.936492 
C 1.422928 -2.450055 0.726289 -2.738613 0 -2.738613 
C -0.726289 -2.738613 -1.422928 -2.450055 -1.936492 -1.936492 
C -2.450055 -1.422928 -2.738613 -0.726289 -2.738613 0 
C -2.738613 0.726289 -2.450055 1.422928 -1.936492 1.936492 
C -1.422928 2.450055 -0.726289 2.738613 0 2.738613 
z
" id="m92cce724f1" style="stroke:#ff0000;"/>
    </defs>
    <g clip-path="url(#p3c8a71f8e2)">
     <use style="fill:#ff0000;stroke:#ff0000;" x="321.161968" xlink:href="#m92cce724f1" y="178.238279"/>
     <use style="fill:#ff0000;stroke:#ff0000;" x="313.550559" xlink:href="#m92cce724f1" y="173.585709"/>
     <use style="fill:#ff0000;stroke:#ff0000;" x="118.880397" xlink:href="#m92cce724f1" y="203.629167"/>
     <use style="fill:#ff0000;stroke:#ff0000;" x="126.597887" xlink:href="#m92cce724f1" y="219.806712"/>
     <use style="fill:#ff0000;stroke:#ff0000;" x="387.71339" xlink:href="#m92cce724f1" y="287.975614"/>
     <use style="fill:#ff0000;stroke:#ff0000;" x="77.232666" xlink:href="#m92cce724f1" y="196.768828"/>
     <use style="fill:#ff0000;stroke:#ff0000;" x="168.441424" xlink:href="#m92cce724f1" y="57.088103"/>
    </g>
   </g>
   <g id="text_13">
    <!-- (64) Subject: s17, Known = False, Degree = 1, Duration = 0.1 -->
    <defs>
     <path d="M 31 75.875 
Q 24.46875 64.65625 21.28125 53.65625 
Q 18.109375 42.671875 18.109375 31.390625 
Q 18.109375 20.125 21.3125 9.0625 
Q 24.515625 -2 31 -13.1875 
L 23.1875 -13.1875 
Q 15.875 -1.703125 12.234375 9.375 
Q 8.59375 20.453125 8.59375 31.390625 
Q 8.59375 42.28125 12.203125 53.3125 
Q 15.828125 64.359375 23.1875 75.875 
z
" id="DejaVuSans-40"/>
     <path d="M 33.015625 40.375 
Q 26.375 40.375 22.484375 35.828125 
Q 18.609375 31.296875 18.609375 23.390625 
Q 18.609375 15.53125 22.484375 10.953125 
Q 26.375 6.390625 33.015625 6.390625 
Q 39.65625 6.390625 43.53125 10.953125 
Q 47.40625 15.53125 47.40625 23.390625 
Q 47.40625 31.296875 43.53125 35.828125 
Q 39.65625 40.375 33.015625 40.375 
z
M 52.59375 71.296875 
L 52.59375 62.3125 
Q 48.875 64.0625 45.09375 64.984375 
Q 41.3125 65.921875 37.59375 65.921875 
Q 27.828125 65.921875 22.671875 59.328125 
Q 17.53125 52.734375 16.796875 39.40625 
Q 19.671875 43.65625 24.015625 45.921875 
Q 28.375 48.1875 33.59375 48.1875 
Q 44.578125 48.1875 50.953125 41.515625 
Q 57.328125 34.859375 57.328125 23.390625 
Q 57.328125 12.15625 50.6875 5.359375 
Q 44.046875 -1.421875 33.015625 -1.421875 
Q 20.359375 -1.421875 13.671875 8.265625 
Q 6.984375 17.96875 6.984375 36.375 
Q 6.984375 53.65625 15.1875 63.9375 
Q 23.390625 74.21875 37.203125 74.21875 
Q 40.921875 74.21875 44.703125 73.484375 
Q 48.484375 72.75 52.59375 71.296875 
z
" id="DejaVuSans-54"/>
     <path d="M 8.015625 75.875 
L 15.828125 75.875 
Q 23.140625 64.359375 26.78125 53.3125 
Q 30.421875 42.28125 30.421875 31.390625 
Q 30.421875 20.453125 26.78125 9.375 
Q 23.140625 -1.703125 15.828125 -13.1875 
L 8.015625 -13.1875 
Q 14.5 -2 17.703125 9.0625 
Q 20.90625 20.125 20.90625 31.390625 
Q 20.90625 42.671875 17.703125 53.65625 
Q 14.5 64.65625 8.015625 75.875 
z
" id="DejaVuSans-41"/>
     <path id="DejaVuSans-32"/>
     <path d="M 53.515625 70.515625 
L 53.515625 60.890625 
Q 47.90625 63.578125 42.921875 64.890625 
Q 37.9375 66.21875 33.296875 66.21875 
Q 25.25 66.21875 20.875 63.09375 
Q 16.5 59.96875 16.5 54.203125 
Q 16.5 49.359375 19.40625 46.890625 
Q 22.3125 44.4375 30.421875 42.921875 
L 36.375 41.703125 
Q 47.40625 39.59375 52.65625 34.296875 
Q 57.90625 29 57.90625 20.125 
Q 57.90625 9.515625 50.796875 4.046875 
Q 43.703125 -1.421875 29.984375 -1.421875 
Q 24.8125 -1.421875 18.96875 -0.25 
Q 13.140625 0.921875 6.890625 3.21875 
L 6.890625 13.375 
Q 12.890625 10.015625 18.65625 8.296875 
Q 24.421875 6.59375 29.984375 6.59375 
Q 38.421875 6.59375 43.015625 9.90625 
Q 47.609375 13.234375 47.609375 19.390625 
Q 47.609375 24.75 44.3125 27.78125 
Q 41.015625 30.8125 33.5 32.328125 
L 27.484375 33.5 
Q 16.453125 35.6875 11.515625 40.375 
Q 6.59375 45.0625 6.59375 53.421875 
Q 6.59375 63.09375 13.40625 68.65625 
Q 20.21875 74.21875 32.171875 74.21875 
Q 37.3125 74.21875 42.625 73.28125 
Q 47.953125 72.359375 53.515625 70.515625 
z
" id="DejaVuSans-83"/>
     <path d="M 8.5 21.578125 
L 8.5 54.6875 
L 17.484375 54.6875 
L 17.484375 21.921875 
Q 17.484375 14.15625 20.5 10.265625 
Q 23.53125 6.390625 29.59375 6.390625 
Q 36.859375 6.390625 41.078125 11.03125 
Q 45.3125 15.671875 45.3125 23.6875 
L 45.3125 54.6875 
L 54.296875 54.6875 
L 54.296875 0 
L 45.3125 0 
L 45.3125 8.40625 
Q 42.046875 3.421875 37.71875 1 
Q 33.40625 -1.421875 27.6875 -1.421875 
Q 18.265625 -1.421875 13.375 4.4375 
Q 8.5 10.296875 8.5 21.578125 
z
M 31.109375 56 
z
" id="DejaVuSans-117"/>
     <path d="M 48.6875 27.296875 
Q 48.6875 37.203125 44.609375 42.84375 
Q 40.53125 48.484375 33.40625 48.484375 
Q 26.265625 48.484375 22.1875 42.84375 
Q 18.109375 37.203125 18.109375 27.296875 
Q 18.109375 17.390625 22.1875 11.75 
Q 26.265625 6.109375 33.40625 6.109375 
Q 40.53125 6.109375 44.609375 11.75 
Q 48.6875 17.390625 48.6875 27.296875 
z
M 18.109375 46.390625 
Q 20.953125 51.265625 25.265625 53.625 
Q 29.59375 56 35.59375 56 
Q 45.5625 56 51.78125 48.09375 
Q 58.015625 40.1875 58.015625 27.296875 
Q 58.015625 14.40625 51.78125 6.484375 
Q 45.5625 -1.421875 35.59375 -1.421875 
Q 29.59375 -1.421875 25.265625 0.953125 
Q 20.953125 3.328125 18.109375 8.203125 
L 18.109375 0 
L 9.078125 0 
L 9.078125 75.984375 
L 18.109375 75.984375 
z
" id="DejaVuSans-98"/>
     <path d="M 9.421875 54.6875 
L 18.40625 54.6875 
L 18.40625 -0.984375 
Q 18.40625 -11.421875 14.421875 -16.109375 
Q 10.453125 -20.796875 1.609375 -20.796875 
L -1.8125 -20.796875 
L -1.8125 -13.1875 
L 0.59375 -13.1875 
Q 5.71875 -13.1875 7.5625 -10.8125 
Q 9.421875 -8.453125 9.421875 -0.984375 
z
M 9.421875 75.984375 
L 18.40625 75.984375 
L 18.40625 64.59375 
L 9.421875 64.59375 
z
" id="DejaVuSans-106"/>
     <path d="M 56.203125 29.59375 
L 56.203125 25.203125 
L 14.890625 25.203125 
Q 15.484375 15.921875 20.484375 11.0625 
Q 25.484375 6.203125 34.421875 6.203125 
Q 39.59375 6.203125 44.453125 7.46875 
Q 49.3125 8.734375 54.109375 11.28125 
L 54.109375 2.78125 
Q 49.265625 0.734375 44.1875 -0.34375 
Q 39.109375 -1.421875 33.890625 -1.421875 
Q 20.796875 -1.421875 13.15625 6.1875 
Q 5.515625 13.8125 5.515625 26.8125 
Q 5.515625 40.234375 12.765625 48.109375 
Q 20.015625 56 32.328125 56 
Q 43.359375 56 49.78125 48.890625 
Q 56.203125 41.796875 56.203125 29.59375 
z
M 47.21875 32.234375 
Q 47.125 39.59375 43.09375 43.984375 
Q 39.0625 48.390625 32.421875 48.390625 
Q 24.90625 48.390625 20.390625 44.140625 
Q 15.875 39.890625 15.1875 32.171875 
z
" id="DejaVuSans-101"/>
     <path d="M 48.78125 52.59375 
L 48.78125 44.1875 
Q 44.96875 46.296875 41.140625 47.34375 
Q 37.3125 48.390625 33.40625 48.390625 
Q 24.65625 48.390625 19.8125 42.84375 
Q 14.984375 37.3125 14.984375 27.296875 
Q 14.984375 17.28125 19.8125 11.734375 
Q 24.65625 6.203125 33.40625 6.203125 
Q 37.3125 6.203125 41.140625 7.25 
Q 44.96875 8.296875 48.78125 10.40625 
L 48.78125 2.09375 
Q 45.015625 0.34375 40.984375 -0.53125 
Q 36.96875 -1.421875 32.421875 -1.421875 
Q 20.0625 -1.421875 12.78125 6.34375 
Q 5.515625 14.109375 5.515625 27.296875 
Q 5.515625 40.671875 12.859375 48.328125 
Q 20.21875 56 33.015625 56 
Q 37.15625 56 41.109375 55.140625 
Q 45.0625 54.296875 48.78125 52.59375 
z
" id="DejaVuSans-99"/>
     <path d="M 18.3125 70.21875 
L 18.3125 54.6875 
L 36.8125 54.6875 
L 36.8125 47.703125 
L 18.3125 47.703125 
L 18.3125 18.015625 
Q 18.3125 11.328125 20.140625 9.421875 
Q 21.96875 7.515625 27.59375 7.515625 
L 36.8125 7.515625 
L 36.8125 0 
L 27.59375 0 
Q 17.1875 0 13.234375 3.875 
Q 9.28125 7.765625 9.28125 18.015625 
L 9.28125 47.703125 
L 2.6875 47.703125 
L 2.6875 54.6875 
L 9.28125 54.6875 
L 9.28125 70.21875 
z
" id="DejaVuSans-116"/>
     <path d="M 11.71875 12.40625 
L 22.015625 12.40625 
L 22.015625 0 
L 11.71875 0 
z
M 11.71875 51.703125 
L 22.015625 51.703125 
L 22.015625 39.3125 
L 11.71875 39.3125 
z
" id="DejaVuSans-58"/>
     <path d="M 44.28125 53.078125 
L 44.28125 44.578125 
Q 40.484375 46.53125 36.375 47.5 
Q 32.28125 48.484375 27.875 48.484375 
Q 21.1875 48.484375 17.84375 46.4375 
Q 14.5 44.390625 14.5 40.28125 
Q 14.5 37.15625 16.890625 35.375 
Q 19.28125 33.59375 26.515625 31.984375 
L 29.59375 31.296875 
Q 39.15625 29.25 43.1875 25.515625 
Q 47.21875 21.78125 47.21875 15.09375 
Q 47.21875 7.46875 41.1875 3.015625 
Q 35.15625 -1.421875 24.609375 -1.421875 
Q 20.21875 -1.421875 15.453125 -0.5625 
Q 10.6875 0.296875 5.421875 2 
L 5.421875 11.28125 
Q 10.40625 8.6875 15.234375 7.390625 
Q 20.0625 6.109375 24.8125 6.109375 
Q 31.15625 6.109375 34.5625 8.28125 
Q 37.984375 10.453125 37.984375 14.40625 
Q 37.984375 18.0625 35.515625 20.015625 
Q 33.0625 21.96875 24.703125 23.78125 
L 21.578125 24.515625 
Q 13.234375 26.265625 9.515625 29.90625 
Q 5.8125 33.546875 5.8125 39.890625 
Q 5.8125 47.609375 11.28125 51.796875 
Q 16.75 56 26.8125 56 
Q 31.78125 56 36.171875 55.265625 
Q 40.578125 54.546875 44.28125 53.078125 
z
" id="DejaVuSans-115"/>
     <path d="M 8.203125 72.90625 
L 55.078125 72.90625 
L 55.078125 68.703125 
L 28.609375 0 
L 18.3125 0 
L 43.21875 64.59375 
L 8.203125 64.59375 
z
" id="DejaVuSans-55"/>
     <path d="M 11.71875 12.40625 
L 22.015625 12.40625 
L 22.015625 4 
L 14.015625 -11.625 
L 7.71875 -11.625 
L 11.71875 4 
z
" id="DejaVuSans-44"/>
     <path d="M 9.8125 72.90625 
L 19.671875 72.90625 
L 19.671875 42.09375 
L 52.390625 72.90625 
L 65.09375 72.90625 
L 28.90625 38.921875 
L 67.671875 0 
L 54.6875 0 
L 19.671875 35.109375 
L 19.671875 0 
L 9.8125 0 
z
" id="DejaVuSans-75"/>
     <path d="M 54.890625 33.015625 
L 54.890625 0 
L 45.90625 0 
L 45.90625 32.71875 
Q 45.90625 40.484375 42.875 44.328125 
Q 39.84375 48.1875 33.796875 48.1875 
Q 26.515625 48.1875 22.3125 43.546875 
Q 18.109375 38.921875 18.109375 30.90625 
L 18.109375 0 
L 9.078125 0 
L 9.078125 54.6875 
L 18.109375 54.6875 
L 18.109375 46.1875 
Q 21.34375 51.125 25.703125 53.5625 
Q 30.078125 56 35.796875 56 
Q 45.21875 56 50.046875 50.171875 
Q 54.890625 44.34375 54.890625 33.015625 
z
" id="DejaVuSans-110"/>
     <path d="M 30.609375 48.390625 
Q 23.390625 48.390625 19.1875 42.75 
Q 14.984375 37.109375 14.984375 27.296875 
Q 14.984375 17.484375 19.15625 11.84375 
Q 23.34375 6.203125 30.609375 6.203125 
Q 37.796875 6.203125 41.984375 11.859375 
Q 46.1875 17.53125 46.1875 27.296875 
Q 46.1875 37.015625 41.984375 42.703125 
Q 37.796875 48.390625 30.609375 48.390625 
z
M 30.609375 56 
Q 42.328125 56 49.015625 48.375 
Q 55.71875 40.765625 55.71875 27.296875 
Q 55.71875 13.875 49.015625 6.21875 
Q 42.328125 -1.421875 30.609375 -1.421875 
Q 18.84375 -1.421875 12.171875 6.21875 
Q 5.515625 13.875 5.515625 27.296875 
Q 5.515625 40.765625 12.171875 48.375 
Q 18.84375 56 30.609375 56 
z
" id="DejaVuSans-111"/>
     <path d="M 4.203125 54.6875 
L 13.1875 54.6875 
L 24.421875 12.015625 
L 35.59375 54.6875 
L 46.1875 54.6875 
L 57.421875 12.015625 
L 68.609375 54.6875 
L 77.59375 54.6875 
L 63.28125 0 
L 52.6875 0 
L 40.921875 44.828125 
L 29.109375 0 
L 18.5 0 
z
" id="DejaVuSans-119"/>
     <path d="M 10.59375 45.40625 
L 73.1875 45.40625 
L 73.1875 37.203125 
L 10.59375 37.203125 
z
M 10.59375 25.484375 
L 73.1875 25.484375 
L 73.1875 17.1875 
L 10.59375 17.1875 
z
" id="DejaVuSans-61"/>
     <path d="M 9.8125 72.90625 
L 51.703125 72.90625 
L 51.703125 64.59375 
L 19.671875 64.59375 
L 19.671875 43.109375 
L 48.578125 43.109375 
L 48.578125 34.8125 
L 19.671875 34.8125 
L 19.671875 0 
L 9.8125 0 
z
" id="DejaVuSans-70"/>
     <path d="M 34.28125 27.484375 
Q 23.390625 27.484375 19.1875 25 
Q 14.984375 22.515625 14.984375 16.5 
Q 14.984375 11.71875 18.140625 8.90625 
Q 21.296875 6.109375 26.703125 6.109375 
Q 34.1875 6.109375 38.703125 11.40625 
Q 43.21875 16.703125 43.21875 25.484375 
L 43.21875 27.484375 
z
M 52.203125 31.203125 
L 52.203125 0 
L 43.21875 0 
L 43.21875 8.296875 
Q 40.140625 3.328125 35.546875 0.953125 
Q 30.953125 -1.421875 24.3125 -1.421875 
Q 15.921875 -1.421875 10.953125 3.296875 
Q 6 8.015625 6 15.921875 
Q 6 25.140625 12.171875 29.828125 
Q 18.359375 34.515625 30.609375 34.515625 
L 43.21875 34.515625 
L 43.21875 35.40625 
Q 43.21875 41.609375 39.140625 45 
Q 35.0625 48.390625 27.6875 48.390625 
Q 23 48.390625 18.546875 47.265625 
Q 14.109375 46.140625 10.015625 43.890625 
L 10.015625 52.203125 
Q 14.9375 54.109375 19.578125 55.046875 
Q 24.21875 56 28.609375 56 
Q 40.484375 56 46.34375 49.84375 
Q 52.203125 43.703125 52.203125 31.203125 
z
" id="DejaVuSans-97"/>
     <path d="M 9.421875 75.984375 
L 18.40625 75.984375 
L 18.40625 0 
L 9.421875 0 
z
" id="DejaVuSans-108"/>
     <path d="M 19.671875 64.796875 
L 19.671875 8.109375 
L 31.59375 8.109375 
Q 46.6875 8.109375 53.6875 14.9375 
Q 60.6875 21.78125 60.6875 36.53125 
Q 60.6875 51.171875 53.6875 57.984375 
Q 46.6875 64.796875 31.59375 64.796875 
z
M 9.8125 72.90625 
L 30.078125 72.90625 
Q 51.265625 72.90625 61.171875 64.09375 
Q 71.09375 55.28125 71.09375 36.53125 
Q 71.09375 17.671875 61.125 8.828125 
Q 51.171875 0 30.078125 0 
L 9.8125 0 
z
" id="DejaVuSans-68"/>
     <path d="M 45.40625 27.984375 
Q 45.40625 37.75 41.375 43.109375 
Q 37.359375 48.484375 30.078125 48.484375 
Q 22.859375 48.484375 18.828125 43.109375 
Q 14.796875 37.75 14.796875 27.984375 
Q 14.796875 18.265625 18.828125 12.890625 
Q 22.859375 7.515625 30.078125 7.515625 
Q 37.359375 7.515625 41.375 12.890625 
Q 45.40625 18.265625 45.40625 27.984375 
z
M 54.390625 6.78125 
Q 54.390625 -7.171875 48.1875 -13.984375 
Q 42 -20.796875 29.203125 -20.796875 
Q 24.46875 -20.796875 20.265625 -20.09375 
Q 16.0625 -19.390625 12.109375 -17.921875 
L 12.109375 -9.1875 
Q 16.0625 -11.328125 19.921875 -12.34375 
Q 23.78125 -13.375 27.78125 -13.375 
Q 36.625 -13.375 41.015625 -8.765625 
Q 45.40625 -4.15625 45.40625 5.171875 
L 45.40625 9.625 
Q 42.625 4.78125 38.28125 2.390625 
Q 33.9375 0 27.875 0 
Q 17.828125 0 11.671875 7.65625 
Q 5.515625 15.328125 5.515625 27.984375 
Q 5.515625 40.671875 11.671875 48.328125 
Q 17.828125 56 27.875 56 
Q 33.9375 56 38.28125 53.609375 
Q 42.625 51.21875 45.40625 46.390625 
L 45.40625 54.6875 
L 54.390625 54.6875 
z
" id="DejaVuSans-103"/>
     <path d="M 41.109375 46.296875 
Q 39.59375 47.171875 37.8125 47.578125 
Q 36.03125 48 33.890625 48 
Q 26.265625 48 22.1875 43.046875 
Q 18.109375 38.09375 18.109375 28.8125 
L 18.109375 0 
L 9.078125 0 
L 9.078125 54.6875 
L 18.109375 54.6875 
L 18.109375 46.1875 
Q 20.953125 51.171875 25.484375 53.578125 
Q 30.03125 56 36.53125 56 
Q 37.453125 56 38.578125 55.875 
Q 39.703125 55.765625 41.0625 55.515625 
z
" id="DejaVuSans-114"/>
     <path d="M 9.421875 54.6875 
L 18.40625 54.6875 
L 18.40625 0 
L 9.421875 0 
z
M 9.421875 75.984375 
L 18.40625 75.984375 
L 18.40625 64.59375 
L 9.421875 64.59375 
z
" id="DejaVuSans-105"/>
     <path d="M 10.6875 12.40625 
L 21 12.40625 
L 21 0 
L 10.6875 0 
z
" id="DejaVuSans-46"/>
    </defs>
    <g transform="translate(49.741875 35.472)scale(0.12 -0.12)">
     <use xlink:href="#DejaVuSans-40"/>
     <use x="39.013672" xlink:href="#DejaVuSans-54"/>
     <use x="102.636719" xlink:href="#DejaVuSans-52"/>
     <use x="166.259766" xlink:href="#DejaVuSans-41"/>
     <use x="205.273438" xlink:href="#DejaVuSans-32"/>
     <use x="237.060547" xlink:href="#DejaVuSans-83"/>
     <use x="300.537109" xlink:href="#DejaVuSans-117"/>
     <use x="363.916016" xlink:href="#DejaVuSans-98"/>
     <use x="427.392578" xlink:href="#DejaVuSans-106"/>
     <use x="455.175781" xlink:href="#DejaVuSans-101"/>
     <use x="516.699219" xlink:href="#DejaVuSans-99"/>
     <use x="571.679688" xlink:href="#DejaVuSans-116"/>
     <use x="610.888672" xlink:href="#DejaVuSans-58"/>
     <use x="644.580078" xlink:href="#DejaVuSans-32"/>
     <use x="676.367188" xlink:href="#DejaVuSans-115"/>
     <use x="728.466797" xlink:href="#DejaVuSans-49"/>
     <use x="792.089844" xlink:href="#DejaVuSans-55"/>
     <use x="855.712891" xlink:href="#DejaVuSans-44"/>
     <use x="887.5" xlink:href="#DejaVuSans-32"/>
     <use x="919.287109" xlink:href="#DejaVuSans-75"/>
     <use x="984.863281" xlink:href="#DejaVuSans-110"/>
     <use x="1048.242188" xlink:href="#DejaVuSans-111"/>
     <use x="1109.423828" xlink:href="#DejaVuSans-119"/>
     <use x="1191.210938" xlink:href="#DejaVuSans-110"/>
     <use x="1254.589844" xlink:href="#DejaVuSans-32"/>
     <use x="1286.376953" xlink:href="#DejaVuSans-61"/>
     <use x="1370.166016" xlink:href="#DejaVuSans-32"/>
     <use x="1401.953125" xlink:href="#DejaVuSans-70"/>
     <use x="1459.332031" xlink:href="#DejaVuSans-97"/>
     <use x="1520.611328" xlink:href="#DejaVuSans-108"/>
     <use x="1548.394531" xlink:href="#DejaVuSans-115"/>
     <use x="1600.494141" xlink:href="#DejaVuSans-101"/>
     <use x="1662.017578" xlink:href="#DejaVuSans-44"/>
     <use x="1693.804688" xlink:href="#DejaVuSans-32"/>
     <use x="1725.591797" xlink:href="#DejaVuSans-68"/>
     <use x="1802.59375" xlink:href="#DejaVuSans-101"/>
     <use x="1864.117188" xlink:href="#DejaVuSans-103"/>
     <use x="1927.59375" xlink:href="#DejaVuSans-114"/>
     <use x="1968.675781" xlink:href="#DejaVuSans-101"/>
     <use x="2030.199219" xlink:href="#DejaVuSans-101"/>
     <use x="2091.722656" xlink:href="#DejaVuSans-32"/>
     <use x="2123.509766" xlink:href="#DejaVuSans-61"/>
     <use x="2207.298828" xlink:href="#DejaVuSans-32"/>
     <use x="2239.085938" xlink:href="#DejaVuSans-49"/>
     <use x="2302.708984" xlink:href="#DejaVuSans-44"/>
     <use x="2334.496094" xlink:href="#DejaVuSans-32"/>
     <use x="2366.283203" xlink:href="#DejaVuSans-68"/>
     <use x="2443.285156" xlink:href="#DejaVuSans-117"/>
     <use x="2506.664062" xlink:href="#DejaVuSans-114"/>
     <use x="2547.777344" xlink:href="#DejaVuSans-97"/>
     <use x="2609.056641" xlink:href="#DejaVuSans-116"/>
     <use x="2648.265625" xlink:href="#DejaVuSans-105"/>
     <use x="2676.048828" xlink:href="#DejaVuSans-111"/>
     <use x="2737.230469" xlink:href="#DejaVuSans-110"/>
     <use x="2800.609375" xlink:href="#DejaVuSans-32"/>
     <use x="2832.396484" xlink:href="#DejaVuSans-61"/>
     <use x="2916.185547" xlink:href="#DejaVuSans-32"/>
     <use x="2947.972656" xlink:href="#DejaVuSans-48"/>
     <use x="3011.595703" xlink:href="#DejaVuSans-46"/>
     <use x="3043.382812" xlink:href="#DejaVuSans-49"/>
    </g>
   </g>
  </g>
 </g>
 <defs>
  <clipPath id="p3c8a71f8e2">
   <rect height="266.112" width="357.12" x="57.6" y="41.472"/>
  </clipPath>
 </defs>
</svg>
