<?xml version="1.0" encoding="utf-8" standalone="no"?>
<!DOCTYPE svg PUBLIC "-//W3C//DTD SVG 1.1//EN"
  "http://www.w3.org/Graphics/SVG/1.1/DTD/svg11.dtd">
<!-- Created with matplotlib (https://matplotlib.org/) -->
<svg height="345.6pt" version="1.1" viewBox="0 0 460.8 345.6" width="460.8pt" xmlns="http://www.w3.org/2000/svg" xmlns:xlink="http://www.w3.org/1999/xlink">
 <defs>
  <style type="text/css">
*{stroke-linecap:butt;stroke-linejoin:round;}
  </style>
 </defs>
 <g id="figure_1">
  <g id="patch_1">
   <path d="M 0 345.6 
L 460.8 345.6 
L 460.8 0 
L 0 0 
z
" style="fill:#ffffff;"/>
  </g>
  <g id="axes_1">
   <g id="patch_2">
    <path d="M 57.6 307.584 
L 414.72 307.584 
L 414.72 41.472 
L 57.6 41.472 
z
" style="fill:#ffffff;"/>
   </g>
   <g id="line2d_1">
    <path clip-path="url(#p0f95c30f65)" d="M 223.360788 93.501193 
L 222.142043 93.501193 
L 221.735795 92.923138 
L 222.142043 91.76703 
L 222.548291 91.76703 
L 222.142043 92.345084 
L 221.735795 91.76703 
L 222.142043 91.76703 
L 222.95454 92.345084 
L 224.173285 92.923138 
L 224.173285 93.501193 
L 224.173285 92.345084 
L 224.579533 91.184662 
L 224.985781 91.184662 
L 224.173285 91.184662 
L 222.95454 90.606608 
L 222.142043 90.028553 
L 222.142043 90.028553 
L 222.95454 91.184662 
L 222.95454 91.76703 
L 222.548291 91.76703 
L 222.548291 91.76703 
L 222.548291 91.184662 
L 222.95454 90.606608 
L 222.95454 87.133969 
L 222.95454 88.294391 
L 222.548291 89.450499 
L 222.548291 90.028553 
L 222.548291 89.450499 
L 222.95454 89.450499 
L 223.360788 88.872445 
L 223.360788 88.872445 
L 223.360788 88.294391 
L 222.95454 88.872445 
L 222.95454 90.606608 
L 222.95454 90.028553 
L 223.360788 89.450499 
L 222.95454 90.028553 
L 222.95454 90.606608 
L 222.142043 89.450499 
L 221.735795 88.294391 
L 221.329546 88.872445 
L 221.329546 90.028553 
L 222.142043 90.028553 
L 222.548291 89.450499 
L 222.548291 89.450499 
L 222.142043 90.606608 
L 222.142043 91.184662 
L 222.548291 91.184662 
L 222.142043 91.184662 
L 221.735795 89.450499 
L 222.142043 87.712023 
L 222.142043 86.555914 
L 222.142043 87.712023 
L 221.735795 88.294391 
L 221.735795 88.872445 
L 221.735795 88.872445 
L 222.142043 88.294391 
L 221.735795 87.712023 
L 221.329546 88.294391 
L 221.329546 89.450499 
L 222.95454 89.450499 
L 222.95454 88.872445 
L 222.548291 88.872445 
L 222.548291 88.872445 
L 222.95454 89.450499 
L 223.360788 88.872445 
L 223.360788 87.712023 
L 222.95454 86.555914 
L 222.95454 85.97786 
L 222.95454 88.294391 
L 222.548291 88.294391 
L 222.142043 87.133969 
L 222.142043 86.555914 
L 222.548291 87.133969 
L 222.95454 88.294391 
L 222.548291 87.712023 
L 222.142043 87.712023 
L 221.329546 89.450499 
L 221.735795 90.028553 
L 222.142043 88.872445 
L 222.142043 87.712023 
L 221.735795 87.133969 
L 221.735795 87.712023 
L 222.548291 88.872445 
L 223.360788 89.450499 
L 224.173285 88.872445 
L 224.173285 87.712023 
L 223.360788 87.133969 
L 222.142043 88.294391 
L 221.735795 89.450499 
L 222.142043 89.450499 
L 223.360788 88.872445 
L 223.360788 87.712023 
L 222.95454 88.294391 
L 222.548291 89.450499 
L 222.95454 90.606608 
L 222.142043 90.606608 
L 222.95454 91.76703 
L 222.95454 91.76703 
L 222.95454 90.028553 
L 223.767036 88.872445 
L 224.173285 88.872445 
L 224.173285 90.028553 
L 222.95454 90.606608 
L 222.548291 90.606608 
L 222.548291 91.184662 
L 222.95454 92.345084 
L 222.548291 93.501193 
L 222.142043 92.923138 
L 222.548291 91.184662 
L 222.548291 90.028553 
L 222.142043 89.450499 
L 221.329546 88.872445 
L 220.51705 89.450499 
L 220.51705 90.606608 
L 221.329546 90.606608 
L 222.142043 90.028553 
L 222.548291 90.606608 
L 222.95454 90.606608 
L 222.95454 90.028553 
L 222.548291 89.450499 
L 222.142043 90.028553 
L 221.735795 90.028553 
L 221.329546 90.606608 
L 221.735795 91.184662 
L 222.142043 91.184662 
L 222.142043 91.184662 
L 222.548291 91.76703 
L 222.548291 92.345084 
L 222.142043 93.501193 
L 221.735795 93.501193 
L 221.329546 92.923138 
L 221.329546 92.923138 
L 221.735795 92.923138 
L 222.142043 92.345084 
L 222.142043 92.923138 
L 222.142043 92.923138 
L 220.51705 92.923138 
L 220.923298 92.345084 
L 220.923298 92.345084 
L 220.923298 91.76703 
L 221.329546 91.184662 
L 222.142043 91.76703 
L 222.548291 92.923138 
L 222.548291 94.079247 
L 222.142043 94.657301 
L 221.735795 93.501193 
L 221.735795 92.345084 
L 222.142043 92.345084 
L 221.735795 91.76703 
L 222.95454 91.76703 
L 222.548291 91.76703 
L 221.735795 92.345084 
L 221.329546 92.345084 
L 221.329546 90.606608 
L 220.923298 90.028553 
L 220.923298 90.028553 
L 220.51705 90.606608 
L 220.51705 91.76703 
L 220.923298 92.345084 
L 220.923298 91.76703 
L 221.329546 91.76703 
L 220.923298 91.76703 
L 220.110801 92.345084 
L 220.110801 92.345084 
L 220.51705 92.345084 
L 220.110801 92.345084 
L 220.110801 91.76703 
L 219.704553 90.606608 
L 219.704553 90.606608 
L 220.110801 90.606608 
L 220.923298 90.028553 
L 220.923298 89.450499 
L 220.51705 90.028553 
L 221.329546 91.184662 
L 222.142043 91.184662 
L 222.548291 90.028553 
L 222.548291 90.028553 
L 222.548291 92.345084 
L 222.548291 92.345084 
L 220.51705 92.345084 
L 220.51705 92.345084 
L 220.110801 91.76703 
L 220.51705 90.606608 
L 220.923298 90.028553 
L 220.923298 90.028553 
L 221.329546 90.028553 
L 220.923298 90.606608 
L 220.51705 91.76703 
L 220.51705 94.657301 
L 221.329546 95.239669 
L 221.329546 94.657301 
L 220.51705 94.657301 
L 220.110801 94.079247 
L 220.110801 92.923138 
L 220.51705 92.923138 
L 221.329546 94.079247 
L 222.142043 94.657301 
L 222.548291 94.657301 
L 222.95454 95.239669 
L 222.95454 95.239669 
L 222.142043 94.657301 
L 221.329546 94.657301 
L 221.329546 95.239669 
L 222.142043 96.395777 
L 222.548291 95.817723 
L 222.548291 94.657301 
L 221.735795 93.501193 
L 221.735795 93.501193 
L 221.735795 96.395777 
L 220.51705 96.395777 
L 219.704553 96.973832 
L 220.110801 98.12994 
L 220.923298 98.712308 
L 221.329546 98.12994 
L 220.923298 97.551886 
L 220.923298 97.551886 
L 220.923298 98.12994 
L 222.142043 98.12994 
L 222.548291 97.551886 
L 222.142043 96.973832 
L 221.735795 96.973832 
L 222.142043 96.973832 
L 222.142043 98.12994 
L 221.735795 97.551886 
L 222.142043 98.12994 
L 220.923298 98.12994 
L 220.923298 99.868417 
L 221.735795 98.712308 
L 222.548291 99.290362 
L 222.142043 99.868417 
L 220.923298 99.868417 
L 220.51705 99.290362 
L 220.51705 99.868417 
L 220.923298 99.868417 
L 221.329546 100.446471 
L 221.329546 101.024525 
L 221.735795 101.024525 
L 221.735795 99.868417 
L 221.329546 99.290362 
L 221.735795 99.290362 
L 221.735795 100.446471 
L 222.142043 101.024525 
L 222.95454 100.446471 
L 222.548291 100.446471 
L 222.548291 102.184947 
L 222.142043 102.763001 
L 221.735795 101.602579 
L 221.735795 101.024525 
L 221.329546 101.602579 
L 221.329546 101.602579 
L 220.923298 101.024525 
L 221.329546 101.024525 
L 222.142043 102.184947 
L 223.360788 102.763001 
L 223.360788 102.763001 
L 222.548291 102.184947 
L 222.142043 101.024525 
L 221.735795 100.446471 
L 222.142043 100.446471 
L 222.142043 101.024525 
L 222.548291 101.024525 
L 222.95454 101.602579 
L 222.95454 101.602579 
L 223.360788 101.602579 
L 223.767036 102.184947 
L 222.95454 102.763001 
L 222.142043 102.184947 
L 221.735795 101.602579 
L 222.142043 101.602579 
L 222.548291 101.024525 
L 222.548291 101.024525 
L 222.95454 101.602579 
L 222.142043 101.024525 
L 221.735795 101.024525 
L 221.735795 102.763001 
L 222.142043 103.341056 
L 222.142043 103.91911 
L 222.142043 103.341056 
L 221.329546 102.763001 
L 221.329546 101.024525 
L 221.735795 101.024525 
L 221.329546 102.184947 
L 220.110801 103.91911 
L 220.110801 104.497164 
L 221.329546 104.497164 
L 221.735795 103.91911 
L 222.142043 104.497164 
L 222.142043 105.075218 
L 221.735795 105.657586 
L 220.923298 105.075218 
L 220.923298 105.075218 
L 221.329546 105.657586 
L 221.329546 102.184947 
L 222.142043 102.763001 
L 222.548291 105.075218 
L 222.142043 106.235641 
L 221.329546 106.235641 
L 220.923298 105.657586 
L 220.923298 103.91911 
L 220.51705 104.497164 
L 221.329546 105.075218 
L 222.95454 105.657586 
L 223.360788 106.235641 
L 222.548291 106.813695 
L 221.735795 106.235641 
L 221.735795 107.391749 
L 222.142043 107.969803 
L 221.735795 108.547857 
L 220.923298 108.547857 
L 221.329546 107.969803 
L 222.142043 107.969803 
L 222.95454 109.130225 
L 224.579533 109.70828 
L 226.610775 109.130225 
L 229.048265 107.969803 
L 231.485755 109.130225 
L 233.110748 110.286334 
L 234.735741 110.864388 
L 236.766983 110.864388 
L 240.021749 111.442442 
L 244.49048 112.598551 
L 248.552964 113.180919 
L 252.209199 112.598551 
L 255.865434 112.598551 
L 260.740413 113.180919 
L 265.620173 114.915081 
L 270.901401 116.07119 
L 276.182629 116.653558 
L 281.463858 116.653558 
L 286.749865 116.07119 
L 292.031093 116.653558 
L 301.781053 120.126197 
L 306.249785 120.126197 
L 315.192027 118.965775 
L 320.067007 119.543829 
L 324.129491 121.282305 
L 328.191974 121.860359 
L 334.290478 120.704251 
L 337.540465 119.543829 
L 340.384203 119.543829 
L 342.415445 120.126197 
L 344.040438 121.282305 
L 344.852935 123.598836 
L 344.852935 124.754944 
L 345.259183 125.332999 
L 345.259183 125.911053 
L 344.446686 126.489107 
L 342.415445 127.649529 
L 340.384203 128.227583 
L 339.165458 128.227583 
L 338.75921 127.649529 
L 338.75921 127.071475 
L 337.946713 127.649529 
L 334.290478 132.856331 
L 333.066954 133.434385 
L 332.660706 134.016753 
L 332.660706 134.016753 
L 333.066954 134.016753 
L 333.477982 134.594807 
L 333.477982 135.750916 
L 332.660706 136.907024 
L 332.254457 138.645501 
L 332.254457 139.223555 
L 333.066954 139.223555 
L 332.660706 139.223555 
L 331.848209 140.379663 
L 331.035712 140.957718 
L 331.035712 141.540086 
L 331.848209 142.696194 
L 332.254457 144.430357 
L 332.254457 144.430357 
L 332.254457 146.746887 
L 331.848209 146.168833 
L 330.629464 146.168833 
L 329.816967 147.324942 
L 329.816967 147.902996 
L 331.035712 147.902996 
L 331.441961 149.063418 
L 330.629464 149.641472 
L 330.223216 149.641472 
L 331.035712 150.797581 
L 331.441961 151.958003 
L 330.629464 153.114111 
L 331.035712 153.692165 
L 331.035712 154.27022 
L 330.629464 154.27022 
L 330.223216 153.692165 
L 330.223216 153.692165 
L 330.223216 154.27022 
L 329.816967 154.27022 
L 329.004471 154.848274 
L 328.598222 155.430642 
L 328.598222 157.164805 
L 329.004471 157.742859 
L 329.004471 158.320913 
L 329.004471 158.320913 
L 329.410719 158.903281 
L 329.816967 158.320913 
L 329.004471 157.164805 
L 329.004471 157.164805 
L 329.004471 157.742859 
L 328.191974 158.903281 
L 328.191974 159.481335 
L 328.598222 160.059389 
L 328.598222 159.481335 
L 328.191974 160.059389 
L 327.785726 160.059389 
L 327.785726 161.793552 
L 328.191974 162.37592 
L 328.191974 161.215498 
L 328.191974 164.110083 
L 328.598222 165.266191 
L 328.598222 166.426613 
L 327.785726 166.426613 
L 327.785726 165.844245 
L 327.379477 164.110083 
L 327.379477 163.532029 
L 327.785726 163.532029 
L 328.598222 164.688137 
L 328.598222 165.266191 
L 328.191974 165.266191 
L 327.379477 164.688137 
L 327.785726 164.688137 
L 329.004471 166.426613 
L 329.004471 165.266191 
L 329.004471 167.004668 
L 328.598222 166.426613 
L 327.785726 165.844245 
L 326.160732 165.844245 
L 322.910746 167.004668 
L 320.879504 168.160776 
L 315.192027 172.211469 
L 310.723296 175.106054 
L 304.218543 176.844531 
L 289.187355 180.31717 
L 282.276354 183.207441 
L 274.557636 186.68008 
L 267.245166 190.735087 
L 259.521669 194.203412 
L 250.990454 197.676051 
L 242.05299 200.570636 
L 231.485755 203.465221 
L 221.329546 206.93786 
L 211.981055 211.566608 
L 193.293632 219.672308 
L 184.35139 224.301056 
L 176.226423 228.351749 
L 168.507705 231.824388 
L 161.190456 234.718973 
L 153.065489 238.769666 
L 144.940523 243.398414 
L 136.404528 245.13689 
L 129.498307 247.449107 
L 122.998334 250.921746 
L 116.493581 255.554807 
L 109.587359 257.867024 
L 102.681138 259.027447 
L 96.993661 261.339663 
L 92.52015 264.812302 
L 89.270164 267.706887 
L 86.832674 268.86731 
L 84.801432 270.601472 
L 82.363942 272.918003 
L 79.520204 274.652165 
L 77.488962 274.074111 
L 77.082714 274.074111 
L 77.895211 275.23022 
L 79.113956 276.390642 
L 79.926452 276.968696 
L 80.738949 276.390642 
L 81.957694 274.652165 
L 83.582687 273.496057 
L 85.20768 273.496057 
L 86.020177 274.074111 
L 86.426425 274.652165 
L 86.426425 276.390642 
L 87.64517 274.652165 
L 87.64517 275.23022 
L 86.426425 276.968696 
L 86.020177 278.124805 
L 85.613929 278.702859 
L 84.801432 278.124805 
L 84.395184 278.124805 
L 83.988935 278.702859 
L 83.582687 279.863281 
L 83.176439 280.441335 
L 82.77019 279.280913 
L 82.77019 278.124805 
L 83.176439 278.124805 
L 82.77019 278.124805 
L 82.77019 281.019389 
L 82.363942 281.019389 
L 82.363942 280.441335 
L 81.145197 282.175498 
L 80.738949 283.33592 
L 80.738949 283.913974 
L 80.738949 282.753552 
L 79.926452 282.753552 
L 80.332701 283.913974 
L 80.332701 285.070083 
L 79.926452 286.226191 
L 79.520204 285.648137 
L 79.926452 285.070083 
L 79.113956 285.070083 
L 78.301459 285.648137 
L 78.301459 287.386613 
L 78.301459 287.386613 
L 79.926452 288.542722 
L 78.707707 288.542722 
L 79.113956 287.386613 
L 79.113956 286.226191 
L 79.113956 286.226191 
L 78.301459 286.808559 
L 77.895211 286.808559 
L 77.895211 287.964668 
L 77.895211 287.386613 
L 77.082714 286.226191 
L 76.676466 286.226191 
L 76.676466 289.69883 
L 76.676466 289.120776 
L 77.082714 287.964668 
L 77.082714 286.808559 
L 77.488962 287.386613 
L 78.301459 289.120776 
L 78.301459 290.859252 
L 78.301459 289.69883 
L 77.488962 288.542722 
L 77.488962 287.964668 
L 77.895211 288.542722 
L 77.895211 289.69883 
L 77.488962 290.281198 
L 77.082714 290.281198 
L 76.676466 289.69883 
L 76.270217 289.69883 
L 76.270217 290.281198 
L 76.676466 291.437307 
L 77.082714 292.015361 
L 77.895211 290.859252 
L 77.895211 290.859252 
L 77.488962 292.015361 
L 76.676466 292.015361 
L 75.863969 291.437307 
L 75.457721 290.859252 
L 75.457721 290.859252 
L 75.863969 290.859252 
L 76.270217 290.281198 
L 76.270217 289.69883 
L 76.676466 290.281198 
L 75.863969 291.437307 
L 75.051472 291.437307 
L 75.051472 291.437307 
L 75.051472 290.859252 
L 75.457721 290.281198 
L 75.863969 290.281198 
L 75.457721 289.69883 
L 75.051472 288.542722 
L 75.863969 289.69883 
L 75.863969 292.593415 
L 75.457721 293.171469 
L 75.457721 292.015361 
L 75.863969 290.281198 
L 75.457721 289.69883 
L 75.457721 289.69883 
L 74.645224 290.859252 
L 74.238976 292.015361 
L 74.238976 292.015361 
L 74.645224 292.015361 
L 75.863969 292.593415 
L 76.676466 293.171469 
L 76.676466 293.753837 
L 75.457721 292.593415 
L 74.238976 290.859252 
L 74.645224 289.120776 
L 75.051472 289.120776 
L 75.051472 290.281198 
L 74.645224 290.281198 
L 75.457721 289.69883 
L 76.676466 290.859252 
L 77.082714 291.437307 
L 76.676466 290.859252 
L 75.457721 290.281198 
L 75.051472 289.69883 
L 74.238976 289.120776 
L 73.832727 289.120776 
L 75.051472 290.281198 
L 76.676466 292.593415 
L 75.051472 292.593415 
L 75.051472 291.437307 
L 75.863969 289.69883 
L 76.270217 289.69883 
L 76.270217 289.69883 
L 75.457721 290.281198 
L 75.051472 291.437307 
L 75.051472 292.593415 
L 75.457721 293.171469 
L 76.270217 292.593415 
L 76.270217 290.859252 
L 76.270217 290.859252 
L 75.863969 290.859252 
L 75.051472 292.593415 
L 75.457721 294.331892 
L 75.457721 294.331892 
L 75.051472 293.171469 
L 74.645224 291.437307 
L 75.051472 290.859252 
L 76.270217 292.593415 
L 75.863969 293.171469 
L 75.051472 293.171469 
L 75.051472 292.015361 
L 75.457721 290.859252 
L 75.863969 290.281198 
L 76.676466 289.69883 
L 77.082714 289.69883 
L 77.082714 290.281198 
L 76.676466 290.859252 
L 76.270217 292.015361 
L 76.270217 293.171469 
L 77.082714 293.171469 
L 76.676466 292.593415 
L 75.457721 292.593415 
L 75.051472 293.753837 
L 75.457721 294.909946 
L 76.676466 294.909946 
L 76.676466 294.909946 
L 76.676466 295.488 
L 76.270217 294.909946 
L 76.270217 292.593415 
L 76.676466 292.015361 
L 76.676466 293.753837 
L 77.082714 294.331892 
L 77.488962 294.331892 
L 77.895211 293.171469 
L 77.895211 292.593415 
L 77.488962 292.593415 
L 77.488962 293.171469 
L 77.488962 292.593415 
L 77.082714 292.015361 
L 76.270217 293.171469 
L 76.270217 293.753837 
L 77.082714 293.753837 
L 77.895211 294.331892 
L 77.895211 294.331892 
L 77.488962 294.909946 
L 76.270217 293.753837 
L 75.457721 292.015361 
L 75.863969 292.593415 
L 77.488962 294.331892 
L 77.488962 294.909946 
L 77.082714 293.753837 
L 77.082714 292.593415 
L 77.488962 292.593415 
L 77.082714 293.171469 
L 76.270217 293.753837 
L 75.863969 294.331892 
L 77.082714 294.331892 
L 77.082714 294.909946 
L 77.488962 294.331892 
L 78.301459 292.015361 
L 78.707707 292.015361 
L 79.113956 292.593415 
L 78.301459 293.753837 
L 78.301459 293.171469 
L 77.895211 292.015361 
L 77.488962 292.593415 
L 77.082714 293.753837 
L 76.270217 294.909946 
L 76.676466 295.488 
L 77.488962 295.488 
L 77.488962 294.331892 
L 77.895211 293.753837 
L 78.707707 292.015361 
L 78.707707 291.437307 
L 77.895211 291.437307 
L 77.082714 290.859252 
L 76.676466 289.69883 
L 77.082714 289.120776 
L 77.082714 289.69883 
L 76.676466 291.437307 
L 76.676466 292.593415 
L 76.676466 291.437307 
L 77.488962 290.281198 
L 77.895211 290.281198 
L 77.895211 290.281198 
L 77.082714 290.859252 
L 77.082714 291.437307 
L 77.488962 292.015361 
L 77.488962 292.593415 
L 77.488962 292.015361 
L 76.270217 290.281198 
L 76.676466 289.120776 
L 77.082714 289.120776 
L 77.082714 289.69883 
L 76.676466 290.859252 
L 76.676466 292.015361 
L 77.082714 290.859252 
L 77.895211 289.69883 
L 77.895211 288.542722 
L 77.082714 287.964668 
L 76.270217 287.964668 
L 75.863969 287.386613 
L 76.270217 287.386613 
L 76.270217 289.120776 
L 75.863969 289.69883 
L 75.863969 289.69883 
L 76.676466 289.69883 
L 77.082714 289.120776 
L 77.488962 287.964668 
L 81.551445 284.492029 
L 83.176439 282.753552 
L 85.613929 280.441335 
L 88.863915 278.124805 
L 95.368668 274.652165 
L 99.024903 271.757581 
L 103.493635 268.86731 
L 107.556118 264.812302 
L 111.212353 259.605501 
L 114.868588 253.816331 
L 118.529602 249.187583 
L 121.779589 246.871053 
L 125.435824 244.558836 
L 128.68581 241.664251 
L 134.779535 235.297027 
L 137.217025 231.824388 
L 143.721778 226.035218 
L 148.596758 220.250362 
L 151.440496 218.511886 
L 155.096731 215.039247 
L 158.346717 210.988553 
L 162.815449 204.62133 
L 164.440442 202.887167 
L 166.070215 201.731058 
L 167.28896 199.992582 
L 170.132698 194.78578 
L 170.538947 192.46925 
L 170.538947 190.152719 
L 170.132698 188.418556 
L 169.72645 186.102026 
L 168.913953 183.789809 
L 167.695208 182.629387 
L 165.252939 181.473278 
L 163.627946 181.473278 
L 164.440442 182.629387 
L 163.627946 182.629387 
L 162.815449 182.051332 
L 162.815449 182.051332 
L 162.815449 183.789809 
L 162.002952 184.945917 
L 160.377959 184.367863 
L 159.159214 184.945917 
L 158.752966 186.68008 
L 159.565462 187.840502 
L 160.377959 188.418556 
L 160.377959 188.418556 
L 161.596704 188.418556 
L 162.409201 188.996611 
L 162.002952 189.574665 
L 161.190456 190.152719 
L 160.784207 190.152719 
L 159.565462 191.891195 
L 159.565462 189.574665 
L 159.971711 190.735087 
L 159.971711 190.735087 
L 159.565462 190.735087 
L 158.752966 191.313141 
L 158.346717 191.891195 
L 158.346717 192.46925 
L 157.940469 191.891195 
L 157.534221 190.735087 
L 157.534221 190.735087 
L 157.940469 191.313141 
L 158.346717 190.735087 
L 158.346717 188.418556 
L 158.346717 188.418556 
L 156.721724 190.735087 
L 156.721724 191.891195 
L 156.315476 191.891195 
L 156.315476 191.891195 
L 157.127973 191.313141 
L 157.127973 191.891195 
L 156.721724 191.891195 
L 156.315476 191.313141 
L 156.721724 190.152719 
L 156.721724 190.152719 
L 155.909228 190.735087 
L 155.502979 190.735087 
L 155.909228 190.735087 
L 156.721724 191.891195 
L 156.721724 191.891195 
L 156.315476 190.735087 
L 156.315476 189.574665 
L 155.502979 190.735087 
L 154.690483 191.313141 
L 154.284234 191.313141 
L 154.284234 191.313141 
L 155.096731 192.46925 
L 155.096731 192.46925 
L 154.284234 190.152719 
L 155.096731 190.152719 
L 155.502979 191.313141 
L 155.502979 192.46925 
L 155.096731 193.625358 
L 154.690483 193.625358 
L 154.284234 192.46925 
L 153.471738 191.313141 
L 154.284234 189.574665 
L 155.096731 188.418556 
L 155.096731 188.996611 
L 154.284234 190.735087 
L 153.471738 191.313141 
L 153.471738 192.46925 
L 153.065489 193.047304 
L 152.659241 192.46925 
L 153.065489 191.313141 
L 153.877986 190.735087 
L 153.877986 190.735087 
L 153.877986 188.418556 
L 154.284234 188.418556 
L 154.284234 189.574665 
L 153.877986 189.574665 
L 153.471738 190.152719 
L 153.877986 191.313141 
L 153.877986 192.46925 
L 153.065489 193.047304 
L 151.846744 193.047304 
L 151.846744 193.047304 
L 152.659241 192.46925 
L 153.065489 192.46925 
L 153.471738 191.313141 
L 152.659241 190.735087 
L 151.846744 190.735087 
L 151.440496 191.313141 
L 151.846744 190.735087 
L 153.877986 190.735087 
L 153.877986 190.735087 
L 153.065489 191.313141 
L 151.846744 191.313141 
L 151.846744 191.313141 
L 151.846744 191.891195 
L 152.252993 191.313141 
L 151.846744 189.574665 
L 151.846744 188.996611 
L 152.252993 188.996611 
L 152.252993 187.262448 
L 151.846744 188.418556 
L 151.846744 193.047304 
L 151.034248 190.735087 
L 151.034248 190.152719 
L 151.034248 190.152719 
L 151.846744 189.574665 
L 152.252993 188.418556 
L 152.659241 187.840502 
L 154.284234 187.840502 
L 156.721724 185.523971 
L 158.752966 182.051332 
L 161.190456 179.734802 
L 166.882712 171.633415 
L 170.945195 165.266191 
L 173.788933 158.903281 
L 175.820175 153.692165 
L 178.663913 148.485364 
L 182.320148 143.852302 
L 185.163886 138.067447 
L 186.78888 131.700223 
L 188.007625 125.332999 
L 189.637397 118.965775 
L 191.668639 113.180919 
L 193.293632 106.813695 
L 194.106129 95.817723 
L 194.918626 86.555914 
L 196.543619 82.505221 
L 198.574861 78.454528 
L 199.793606 74.981889 
L 199.793606 63.985917 
L 200.199854 59.935224 
L 200.606102 57.040639 
L 199.387357 55.884531 
L 198.168612 55.302163 
L 196.949867 54.146054 
L 195.731122 53.568 
L 193.293632 53.568 
L 191.668639 54.146054 
L 190.449894 54.724108 
L 190.449894 56.462585 
L 190.856142 57.040639 
L 190.856142 57.618693 
L 188.820121 60.513278 
L 188.413873 61.669387 
L 188.007625 62.247441 
L 186.78888 63.407863 
L 185.976383 63.985917 
L 185.570135 64.563971 
L 186.382631 65.142026 
L 186.78888 66.298134 
L 187.195128 66.880502 
L 188.007625 66.298134 
L 188.007625 66.298134 
L 188.007625 66.880502 
L 187.601376 67.458556 
L 186.382631 66.880502 
L 185.570135 65.72008 
L 185.976383 65.142026 
L 186.382631 65.142026 
L 185.570135 66.298134 
L 184.35139 66.880502 
L 183.945141 66.880502 
L 184.35139 65.72008 
L 185.570135 65.142026 
L 185.976383 65.72008 
L 185.570135 66.298134 
L 184.757638 66.298134 
L 184.757638 66.298134 
L 184.757638 64.563971 
L 184.35139 63.407863 
L 183.945141 62.825495 
L 183.538893 63.985917 
L 183.538893 65.142026 
L 183.945141 65.72008 
L 183.945141 65.142026 
L 183.538893 63.985917 
L 181.9139 63.985917 
L 183.132645 64.563971 
L 183.945141 64.563971 
L 183.945141 63.985917 
L 183.132645 63.985917 
L 181.507652 63.407863 
L 181.101403 63.407863 
L 181.507652 63.407863 
L 181.9139 62.825495 
L 182.726397 62.825495 
L 184.35139 65.142026 
L 182.726397 65.142026 
L 181.101403 66.298134 
L 181.101403 66.880502 
L 181.507652 67.458556 
L 182.320148 66.298134 
L 182.726397 65.142026 
L 182.726397 65.142026 
L 181.9139 66.880502 
L 181.9139 67.458556 
L 181.9139 66.298134 
L 181.9139 66.298134 
L 181.507652 66.298134 
L 180.695155 65.142026 
L 180.288907 65.142026 
L 179.47641 66.298134 
L 180.288907 66.298134 
L 179.882658 66.880502 
L 179.882658 67.458556 
L 180.288907 68.036611 
L 180.288907 68.036611 
L 179.882658 66.298134 
L 179.882658 65.142026 
L 179.882658 65.72008 
L 179.47641 66.880502 
L 179.47641 68.036611 
L 179.47641 66.298134 
L 178.663913 66.880502 
L 178.663913 68.036611 
L 178.663913 66.880502 
L 178.257665 67.458556 
L 178.257665 68.036611 
L 179.47641 68.036611 
L 179.47641 68.614665 
L 179.070162 69.192719 
L 179.070162 68.036611 
L 179.070162 68.036611 
L 178.663913 67.458556 
L 177.851417 68.036611 
L 177.445168 68.614665 
L 178.257665 68.614665 
L 178.663913 67.458556 
L 179.070162 66.880502 
L 179.070162 66.298134 
L 178.257665 67.458556 
L 178.257665 68.036611 
L 178.663913 67.458556 
L 178.663913 66.298134 
L 177.851417 65.72008 
L 177.03892 65.72008 
L 176.632672 65.142026 
L 177.03892 65.142026 
L 177.445168 65.72008 
L 177.445168 66.298134 
L 176.632672 65.72008 
L 176.226423 64.563971 
L 176.226423 63.985917 
L 176.632672 63.985917 
L 177.03892 64.563971 
L 177.03892 65.72008 
L 176.632672 66.880502 
L 176.632672 66.880502 
L 175.413927 66.880502 
L 175.007678 67.458556 
L 175.007678 67.458556 
L 174.60143 67.458556 
L 174.60143 69.192719 
L 175.413927 70.353141 
L 176.226423 70.353141 
L 176.632672 69.192719 
L 176.226423 69.192719 
L 175.820175 69.770773 
L 175.820175 69.770773 
L 176.632672 68.036611 
L 177.03892 66.298134 
L 177.03892 66.298134 
L 176.632672 67.458556 
L 176.632672 69.770773 
L 177.03892 69.770773 
L 176.226423 68.614665 
L 176.632672 69.192719 
L 177.03892 70.353141 
L 177.851417 70.931195 
L 177.445168 70.931195 
L 176.632672 69.770773 
L 176.226423 69.770773 
L 176.226423 69.770773 
L 176.226423 69.192719 
L 176.632672 68.614665 
L 176.226423 69.192719 
L 174.60143 70.353141 
L 174.195182 70.353141 
L 175.820175 70.353141 
L 176.226423 70.931195 
L 176.632672 70.931195 
L 177.03892 70.353141 
L 177.03892 69.192719 
L 176.632672 69.192719 
L 176.632672 69.192719 
L 177.851417 70.931195 
L 177.851417 71.50925 
L 177.445168 70.931195 
L 177.03892 68.614665 
L 176.632672 68.036611 
L 176.632672 69.192719 
L 175.820175 70.353141 
L 175.007678 70.353141 
L 175.007678 69.192719 
L 175.413927 68.614665 
L 175.413927 69.192719 
L 175.413927 69.192719 
L 175.007678 70.353141 
L 175.820175 71.50925 
L 175.413927 71.50925 
L 175.007678 70.353141 
L 175.413927 69.770773 
L 175.820175 69.770773 
L 176.632672 70.353141 
L 177.851417 69.770773 
L 179.47641 69.192719 
L 181.507652 68.614665 
L 184.757638 67.458556 
L 188.007625 64.563971 
L 192.481136 62.825495 
L 196.949867 62.247441 
L 207.918572 59.935224 
L 214.829573 58.196748 
L 229.860761 57.040639 
L 244.084232 54.724108 
L 251.80295 53.568 
L 258.709172 54.146054 
L 264.807676 55.884531 
L 270.088904 58.774802 
L 276.182629 60.513278 
L 283.088851 62.247441 
L 289.593603 63.407863 
L 310.317048 67.458556 
L 316.817021 70.353141 
L 323.316994 73.82578 
L 329.004471 75.559943 
L 340.384203 75.559943 
L 346.07168 76.137997 
L 363.138889 76.137997 
L 368.013869 76.716051 
L 373.295097 78.454528 
L 377.763829 80.18869 
L 381.424843 81.349113 
L 385.487326 81.927167 
L 388.737313 83.083275 
L 390.768555 84.243698 
L 392.799796 83.66133 
L 394.831038 82.505221 
L 396.862279 82.505221 
L 398.081024 83.66133 
L 398.487273 84.821752 
L 398.081024 84.821752 
L 397.674776 84.243698 
L 396.862279 84.243698 
L 395.643534 83.66133 
L 394.831038 83.083275 
L 394.018541 83.083275 
L 393.206044 83.66133 
L 391.581051 85.399806 
L 389.956058 87.712023 
L 388.737313 88.872445 
L 387.11232 89.450499 
L 385.893575 89.450499 
L 384.268581 90.606608 
L 381.013815 93.501193 
L 379.79507 94.657301 
L 378.576325 95.239669 
L 377.763829 96.395777 
L 377.763829 97.551886 
L 378.170077 98.712308 
L 377.763829 100.446471 
L 376.951332 99.868417 
L 375.732587 99.290362 
L 374.107594 101.602579 
L 373.701345 102.763001 
L 374.107594 104.497164 
L 374.107594 105.657586 
L 373.701345 106.813695 
L 373.701345 106.813695 
L 372.076352 107.969803 
L 371.263855 109.70828 
L 371.263855 111.442442 
L 370.857607 112.020496 
L 370.451359 112.020496 
L 369.638862 110.864388 
L 368.420117 110.864388 
L 367.60762 110.286334 
L 368.420117 110.286334 
L 368.826365 109.70828 
L 367.60762 109.70828 
L 367.60762 113.180919 
L 367.201372 115.493136 
L 366.388875 116.07119 
L 365.170131 115.493136 
L 364.763882 114.337027 
L 364.357634 113.758973 
L 365.170131 112.598551 
L 365.170131 113.180919 
L 364.763882 114.337027 
L 363.951386 115.493136 
L 363.951386 116.07119 
L 363.951386 113.758973 
L 363.545137 112.020496 
L 363.545137 112.598551 
L 361.920144 114.915081 
L 361.107647 115.493136 
L 360.701399 115.493136 
L 361.107647 115.493136 
L 361.107647 114.915081 
L 359.888902 114.915081 
L 359.076406 116.653558 
L 358.670157 117.809666 
L 360.295151 117.809666 
L 361.107647 117.231612 
L 361.107647 116.653558 
L 360.295151 116.07119 
L 359.888902 116.653558 
L 358.670157 117.809666 
L 357.857661 118.38772 
L 357.451412 118.965775 
L 357.857661 119.543829 
L 358.670157 117.231612 
L 359.482654 116.653558 
L 359.888902 117.809666 
L 359.482654 119.543829 
L 358.263909 120.704251 
L 357.040385 120.704251 
L 356.634136 120.126197 
L 357.040385 120.126197 
L 357.040385 120.126197 
L 356.634136 120.704251 
L 356.634136 120.704251 
L 357.040385 120.704251 
L 357.451412 121.282305 
L 356.634136 122.438414 
L 357.451412 122.438414 
L 358.263909 121.282305 
L 357.857661 119.543829 
L 357.451412 119.543829 
L 356.634136 120.704251 
L 356.634136 122.438414 
L 356.634136 121.860359 
L 357.040385 121.282305 
L 357.857661 121.860359 
L 358.263909 123.016468 
L 357.857661 124.17689 
L 357.857661 125.332999 
L 357.857661 125.332999 
L 357.040385 123.598836 
L 356.634136 121.860359 
L 356.634136 121.282305 
L 356.227888 121.860359 
L 355.415391 125.332999 
L 355.415391 127.649529 
L 355.009143 127.649529 
L 355.009143 127.649529 
L 354.602895 128.227583 
L 355.415391 127.071475 
L 355.415391 124.17689 
L 355.82164 125.332999 
L 356.634136 124.754944 
L 357.040385 123.598836 
L 356.227888 124.754944 
L 355.415391 126.489107 
L 355.82164 127.071475 
L 355.415391 126.489107 
L 354.602895 126.489107 
L 355.415391 127.649529 
L 354.602895 127.649529 
L 353.790398 127.071475 
L 353.790398 128.227583 
L 354.602895 129.383692 
L 355.415391 129.961746 
L 355.82164 128.805638 
L 355.82164 128.805638 
L 355.009143 129.961746 
L 354.602895 131.700223 
L 354.602895 132.278277 
L 355.009143 131.700223 
L 355.82164 129.383692 
L 355.415391 129.383692 
L 355.009143 130.544114 
L 354.602895 132.278277 
L 354.602895 132.856331 
L 355.009143 132.856331 
L 355.009143 131.122168 
L 354.602895 131.122168 
L 354.196646 131.700223 
L 354.196646 131.700223 
L 354.196646 132.856331 
L 353.790398 131.700223 
L 353.790398 130.544114 
L 354.196646 131.122168 
L 354.602895 132.278277 
L 354.196646 131.700223 
L 353.790398 131.700223 
L 353.38415 132.856331 
L 353.790398 134.594807 
L 354.602895 134.016753 
L 355.415391 132.856331 
L 354.602895 132.278277 
L 353.790398 133.434385 
L 354.196646 134.594807 
L 354.196646 134.594807 
L 354.196646 133.434385 
L 353.790398 132.856331 
L 353.38415 132.856331 
L 353.38415 134.594807 
L 354.602895 134.594807 
L 354.196646 134.594807 
L 353.790398 134.016753 
L 354.196646 134.016753 
L 354.602895 134.594807 
L 354.602895 135.172862 
L 353.38415 135.172862 
L 352.977901 135.750916 
L 353.38415 136.32897 
L 353.38415 138.645501 
L 353.790398 139.801609 
L 353.38415 140.379663 
L 353.38415 139.801609 
L 352.977901 139.801609 
L 352.977901 138.645501 
L 353.38415 137.489392 
L 354.196646 136.907024 
L 354.196646 138.067447 
L 353.790398 138.645501 
L 352.977901 138.067447 
L 352.165405 136.907024 
L 352.571653 136.907024 
L 353.790398 138.645501 
L 353.38415 139.223555 
L 352.571653 138.067447 
L 352.571653 137.489392 
L 352.165405 136.907024 
L 351.352908 139.223555 
L 350.94666 139.801609 
L 351.352908 139.801609 
L 352.571653 139.223555 
L 353.38415 138.645501 
L 352.165405 140.379663 
L 351.759156 142.11814 
L 351.759156 142.696194 
L 352.571653 140.379663 
L 352.977901 140.957718 
L 352.977901 142.11814 
L 352.571653 141.540086 
L 352.571653 140.379663 
L 352.977901 141.540086 
L 353.38415 143.852302 
L 354.196646 144.430357 
L 353.790398 144.430357 
L 352.571653 143.274248 
L 351.352908 142.696194 
L 351.759156 142.11814 
L 352.165405 142.696194 
L 352.165405 143.274248 
L 351.352908 143.852302 
L 352.165405 143.274248 
" style="fill:none;stroke:#1f77b4;stroke-linecap:square;stroke-width:1.5;"/>
   </g>
   <g id="matplotlib.axis_1">
    <g id="xtick_1">
     <g id="line2d_2">
      <defs>
       <path d="M 0 0 
L 0 3.5 
" id="m52513dd3b3" style="stroke:#000000;stroke-width:0.8;"/>
      </defs>
      <g>
       <use style="stroke:#000000;stroke-width:0.8;" x="93.996982" xlink:href="#m52513dd3b3" y="307.584"/>
      </g>
     </g>
     <g id="text_1">
      <!-- −300 -->
      <defs>
       <path d="M 10.59375 35.5 
L 73.1875 35.5 
L 73.1875 27.203125 
L 10.59375 27.203125 
z
" id="DejaVuSans-8722"/>
       <path d="M 40.578125 39.3125 
Q 47.65625 37.796875 51.625 33 
Q 55.609375 28.21875 55.609375 21.1875 
Q 55.609375 10.40625 48.1875 4.484375 
Q 40.765625 -1.421875 27.09375 -1.421875 
Q 22.515625 -1.421875 17.65625 -0.515625 
Q 12.796875 0.390625 7.625 2.203125 
L 7.625 11.71875 
Q 11.71875 9.328125 16.59375 8.109375 
Q 21.484375 6.890625 26.8125 6.890625 
Q 36.078125 6.890625 40.9375 10.546875 
Q 45.796875 14.203125 45.796875 21.1875 
Q 45.796875 27.640625 41.28125 31.265625 
Q 36.765625 34.90625 28.71875 34.90625 
L 20.21875 34.90625 
L 20.21875 43.015625 
L 29.109375 43.015625 
Q 36.375 43.015625 40.234375 45.921875 
Q 44.09375 48.828125 44.09375 54.296875 
Q 44.09375 59.90625 40.109375 62.90625 
Q 36.140625 65.921875 28.71875 65.921875 
Q 24.65625 65.921875 20.015625 65.03125 
Q 15.375 64.15625 9.8125 62.3125 
L 9.8125 71.09375 
Q 15.4375 72.65625 20.34375 73.4375 
Q 25.25 74.21875 29.59375 74.21875 
Q 40.828125 74.21875 47.359375 69.109375 
Q 53.90625 64.015625 53.90625 55.328125 
Q 53.90625 49.265625 50.4375 45.09375 
Q 46.96875 40.921875 40.578125 39.3125 
z
" id="DejaVuSans-51"/>
       <path d="M 31.78125 66.40625 
Q 24.171875 66.40625 20.328125 58.90625 
Q 16.5 51.421875 16.5 36.375 
Q 16.5 21.390625 20.328125 13.890625 
Q 24.171875 6.390625 31.78125 6.390625 
Q 39.453125 6.390625 43.28125 13.890625 
Q 47.125 21.390625 47.125 36.375 
Q 47.125 51.421875 43.28125 58.90625 
Q 39.453125 66.40625 31.78125 66.40625 
z
M 31.78125 74.21875 
Q 44.046875 74.21875 50.515625 64.515625 
Q 56.984375 54.828125 56.984375 36.375 
Q 56.984375 17.96875 50.515625 8.265625 
Q 44.046875 -1.421875 31.78125 -1.421875 
Q 19.53125 -1.421875 13.0625 8.265625 
Q 6.59375 17.96875 6.59375 36.375 
Q 6.59375 54.828125 13.0625 64.515625 
Q 19.53125 74.21875 31.78125 74.21875 
z
" id="DejaVuSans-48"/>
      </defs>
      <g transform="translate(80.263389 322.182437)scale(0.1 -0.1)">
       <use xlink:href="#DejaVuSans-8722"/>
       <use x="83.789062" xlink:href="#DejaVuSans-51"/>
       <use x="147.412109" xlink:href="#DejaVuSans-48"/>
       <use x="211.035156" xlink:href="#DejaVuSans-48"/>
      </g>
     </g>
    </g>
    <g id="xtick_2">
     <g id="line2d_3">
      <g>
       <use style="stroke:#000000;stroke-width:0.8;" x="141.790903" xlink:href="#m52513dd3b3" y="307.584"/>
      </g>
     </g>
     <g id="text_2">
      <!-- −200 -->
      <defs>
       <path d="M 19.1875 8.296875 
L 53.609375 8.296875 
L 53.609375 0 
L 7.328125 0 
L 7.328125 8.296875 
Q 12.9375 14.109375 22.625 23.890625 
Q 32.328125 33.6875 34.8125 36.53125 
Q 39.546875 41.84375 41.421875 45.53125 
Q 43.3125 49.21875 43.3125 52.78125 
Q 43.3125 58.59375 39.234375 62.25 
Q 35.15625 65.921875 28.609375 65.921875 
Q 23.96875 65.921875 18.8125 64.3125 
Q 13.671875 62.703125 7.8125 59.421875 
L 7.8125 69.390625 
Q 13.765625 71.78125 18.9375 73 
Q 24.125 74.21875 28.421875 74.21875 
Q 39.75 74.21875 46.484375 68.546875 
Q 53.21875 62.890625 53.21875 53.421875 
Q 53.21875 48.921875 51.53125 44.890625 
Q 49.859375 40.875 45.40625 35.40625 
Q 44.1875 33.984375 37.640625 27.21875 
Q 31.109375 20.453125 19.1875 8.296875 
z
" id="DejaVuSans-50"/>
      </defs>
      <g transform="translate(128.05731 322.182437)scale(0.1 -0.1)">
       <use xlink:href="#DejaVuSans-8722"/>
       <use x="83.789062" xlink:href="#DejaVuSans-50"/>
       <use x="147.412109" xlink:href="#DejaVuSans-48"/>
       <use x="211.035156" xlink:href="#DejaVuSans-48"/>
      </g>
     </g>
    </g>
    <g id="xtick_3">
     <g id="line2d_4">
      <g>
       <use style="stroke:#000000;stroke-width:0.8;" x="189.584824" xlink:href="#m52513dd3b3" y="307.584"/>
      </g>
     </g>
     <g id="text_3">
      <!-- −100 -->
      <defs>
       <path d="M 12.40625 8.296875 
L 28.515625 8.296875 
L 28.515625 63.921875 
L 10.984375 60.40625 
L 10.984375 69.390625 
L 28.421875 72.90625 
L 38.28125 72.90625 
L 38.28125 8.296875 
L 54.390625 8.296875 
L 54.390625 0 
L 12.40625 0 
z
" id="DejaVuSans-49"/>
      </defs>
      <g transform="translate(175.85123 322.182437)scale(0.1 -0.1)">
       <use xlink:href="#DejaVuSans-8722"/>
       <use x="83.789062" xlink:href="#DejaVuSans-49"/>
       <use x="147.412109" xlink:href="#DejaVuSans-48"/>
       <use x="211.035156" xlink:href="#DejaVuSans-48"/>
      </g>
     </g>
    </g>
    <g id="xtick_4">
     <g id="line2d_5">
      <g>
       <use style="stroke:#000000;stroke-width:0.8;" x="237.378745" xlink:href="#m52513dd3b3" y="307.584"/>
      </g>
     </g>
     <g id="text_4">
      <!-- 0 -->
      <g transform="translate(234.197495 322.182437)scale(0.1 -0.1)">
       <use xlink:href="#DejaVuSans-48"/>
      </g>
     </g>
    </g>
    <g id="xtick_5">
     <g id="line2d_6">
      <g>
       <use style="stroke:#000000;stroke-width:0.8;" x="285.172666" xlink:href="#m52513dd3b3" y="307.584"/>
      </g>
     </g>
     <g id="text_5">
      <!-- 100 -->
      <g transform="translate(275.628916 322.182437)scale(0.1 -0.1)">
       <use xlink:href="#DejaVuSans-49"/>
       <use x="63.623047" xlink:href="#DejaVuSans-48"/>
       <use x="127.246094" xlink:href="#DejaVuSans-48"/>
      </g>
     </g>
    </g>
    <g id="xtick_6">
     <g id="line2d_7">
      <g>
       <use style="stroke:#000000;stroke-width:0.8;" x="332.966587" xlink:href="#m52513dd3b3" y="307.584"/>
      </g>
     </g>
     <g id="text_6">
      <!-- 200 -->
      <g transform="translate(323.422837 322.182437)scale(0.1 -0.1)">
       <use xlink:href="#DejaVuSans-50"/>
       <use x="63.623047" xlink:href="#DejaVuSans-48"/>
       <use x="127.246094" xlink:href="#DejaVuSans-48"/>
      </g>
     </g>
    </g>
    <g id="xtick_7">
     <g id="line2d_8">
      <g>
       <use style="stroke:#000000;stroke-width:0.8;" x="380.760507" xlink:href="#m52513dd3b3" y="307.584"/>
      </g>
     </g>
     <g id="text_7">
      <!-- 300 -->
      <g transform="translate(371.216757 322.182437)scale(0.1 -0.1)">
       <use xlink:href="#DejaVuSans-51"/>
       <use x="63.623047" xlink:href="#DejaVuSans-48"/>
       <use x="127.246094" xlink:href="#DejaVuSans-48"/>
      </g>
     </g>
    </g>
   </g>
   <g id="matplotlib.axis_2">
    <g id="ytick_1">
     <g id="line2d_9">
      <defs>
       <path d="M 0 0 
L -3.5 0 
" id="mddb42a853c" style="stroke:#000000;stroke-width:0.8;"/>
      </defs>
      <g>
       <use style="stroke:#000000;stroke-width:0.8;" x="57.6" xlink:href="#mddb42a853c" y="307.023201"/>
      </g>
     </g>
     <g id="text_8">
      <!-- −500 -->
      <defs>
       <path d="M 10.796875 72.90625 
L 49.515625 72.90625 
L 49.515625 64.59375 
L 19.828125 64.59375 
L 19.828125 46.734375 
Q 21.96875 47.46875 24.109375 47.828125 
Q 26.265625 48.1875 28.421875 48.1875 
Q 40.625 48.1875 47.75 41.5 
Q 54.890625 34.8125 54.890625 23.390625 
Q 54.890625 11.625 47.5625 5.09375 
Q 40.234375 -1.421875 26.90625 -1.421875 
Q 22.3125 -1.421875 17.546875 -0.640625 
Q 12.796875 0.140625 7.71875 1.703125 
L 7.71875 11.625 
Q 12.109375 9.234375 16.796875 8.0625 
Q 21.484375 6.890625 26.703125 6.890625 
Q 35.15625 6.890625 40.078125 11.328125 
Q 45.015625 15.765625 45.015625 23.390625 
Q 45.015625 31 40.078125 35.4375 
Q 35.15625 39.890625 26.703125 39.890625 
Q 22.75 39.890625 18.8125 39.015625 
Q 14.890625 38.140625 10.796875 36.28125 
z
" id="DejaVuSans-53"/>
      </defs>
      <g transform="translate(23.132812 310.82242)scale(0.1 -0.1)">
       <use xlink:href="#DejaVuSans-8722"/>
       <use x="83.789062" xlink:href="#DejaVuSans-53"/>
       <use x="147.412109" xlink:href="#DejaVuSans-48"/>
       <use x="211.035156" xlink:href="#DejaVuSans-48"/>
      </g>
     </g>
    </g>
    <g id="ytick_2">
     <g id="line2d_10">
      <g>
       <use style="stroke:#000000;stroke-width:0.8;" x="57.6" xlink:href="#mddb42a853c" y="263.884827"/>
      </g>
     </g>
     <g id="text_9">
      <!-- −400 -->
      <defs>
       <path d="M 37.796875 64.3125 
L 12.890625 25.390625 
L 37.796875 25.390625 
z
M 35.203125 72.90625 
L 47.609375 72.90625 
L 47.609375 25.390625 
L 58.015625 25.390625 
L 58.015625 17.1875 
L 47.609375 17.1875 
L 47.609375 0 
L 37.796875 0 
L 37.796875 17.1875 
L 4.890625 17.1875 
L 4.890625 26.703125 
z
" id="DejaVuSans-52"/>
      </defs>
      <g transform="translate(23.132812 267.684046)scale(0.1 -0.1)">
       <use xlink:href="#DejaVuSans-8722"/>
       <use x="83.789062" xlink:href="#DejaVuSans-52"/>
       <use x="147.412109" xlink:href="#DejaVuSans-48"/>
       <use x="211.035156" xlink:href="#DejaVuSans-48"/>
      </g>
     </g>
    </g>
    <g id="ytick_3">
     <g id="line2d_11">
      <g>
       <use style="stroke:#000000;stroke-width:0.8;" x="57.6" xlink:href="#mddb42a853c" y="220.746454"/>
      </g>
     </g>
     <g id="text_10">
      <!-- −300 -->
      <g transform="translate(23.132812 224.545672)scale(0.1 -0.1)">
       <use xlink:href="#DejaVuSans-8722"/>
       <use x="83.789062" xlink:href="#DejaVuSans-51"/>
       <use x="147.412109" xlink:href="#DejaVuSans-48"/>
       <use x="211.035156" xlink:href="#DejaVuSans-48"/>
      </g>
     </g>
    </g>
    <g id="ytick_4">
     <g id="line2d_12">
      <g>
       <use style="stroke:#000000;stroke-width:0.8;" x="57.6" xlink:href="#mddb42a853c" y="177.60808"/>
      </g>
     </g>
     <g id="text_11">
      <!-- −200 -->
      <g transform="translate(23.132812 181.407299)scale(0.1 -0.1)">
       <use xlink:href="#DejaVuSans-8722"/>
       <use x="83.789062" xlink:href="#DejaVuSans-50"/>
       <use x="147.412109" xlink:href="#DejaVuSans-48"/>
       <use x="211.035156" xlink:href="#DejaVuSans-48"/>
      </g>
     </g>
    </g>
    <g id="ytick_5">
     <g id="line2d_13">
      <g>
       <use style="stroke:#000000;stroke-width:0.8;" x="57.6" xlink:href="#mddb42a853c" y="134.469706"/>
      </g>
     </g>
     <g id="text_12">
      <!-- −100 -->
      <g transform="translate(23.132812 138.268925)scale(0.1 -0.1)">
       <use xlink:href="#DejaVuSans-8722"/>
       <use x="83.789062" xlink:href="#DejaVuSans-49"/>
       <use x="147.412109" xlink:href="#DejaVuSans-48"/>
       <use x="211.035156" xlink:href="#DejaVuSans-48"/>
      </g>
     </g>
    </g>
    <g id="ytick_6">
     <g id="line2d_14">
      <g>
       <use style="stroke:#000000;stroke-width:0.8;" x="57.6" xlink:href="#mddb42a853c" y="91.331332"/>
      </g>
     </g>
     <g id="text_13">
      <!-- 0 -->
      <g transform="translate(44.2375 95.130551)scale(0.1 -0.1)">
       <use xlink:href="#DejaVuSans-48"/>
      </g>
     </g>
    </g>
    <g id="ytick_7">
     <g id="line2d_15">
      <g>
       <use style="stroke:#000000;stroke-width:0.8;" x="57.6" xlink:href="#mddb42a853c" y="48.192959"/>
      </g>
     </g>
     <g id="text_14">
      <!-- 100 -->
      <g transform="translate(31.5125 51.992177)scale(0.1 -0.1)">
       <use xlink:href="#DejaVuSans-49"/>
       <use x="63.623047" xlink:href="#DejaVuSans-48"/>
       <use x="127.246094" xlink:href="#DejaVuSans-48"/>
      </g>
     </g>
    </g>
   </g>
   <g id="line2d_16">
    <path clip-path="url(#p0f95c30f65)" d="M 222.820297 95.266176 
L 331.795255 148.07887 
L 80.301074 283.664311 
L 77.787976 290.605257 
L 156.995472 190.911737 
L 182.221999 66.405527 
L 365.345976 112.595173 
L 354.028685 133.819063 
" style="fill:none;stroke:#ff0000;stroke-linecap:square;stroke-width:0.5;"/>
   </g>
   <g id="patch_3">
    <path d="M 57.6 307.584 
L 57.6 41.472 
" style="fill:none;stroke:#000000;stroke-linecap:square;stroke-linejoin:miter;stroke-width:0.8;"/>
   </g>
   <g id="patch_4">
    <path d="M 414.72 307.584 
L 414.72 41.472 
" style="fill:none;stroke:#000000;stroke-linecap:square;stroke-linejoin:miter;stroke-width:0.8;"/>
   </g>
   <g id="patch_5">
    <path d="M 57.6 307.584 
L 414.72 307.584 
" style="fill:none;stroke:#000000;stroke-linecap:square;stroke-linejoin:miter;stroke-width:0.8;"/>
   </g>
   <g id="patch_6">
    <path d="M 57.6 41.472 
L 414.72 41.472 
" style="fill:none;stroke:#000000;stroke-linecap:square;stroke-linejoin:miter;stroke-width:0.8;"/>
   </g>
   <g id="PathCollection_1">
    <defs>
     <path d="M 0 2.738613 
C 0.726289 2.738613 1.422928 2.450055 1.936492 1.936492 
C 2.450055 1.422928 2.738613 0.726289 2.738613 0 
C 2.738613 -0.726289 2.450055 -1.422928 1.936492 -1.936492 
C 1.422928 -2.450055 0.726289 -2.738613 0 -2.738613 
C -0.726289 -2.738613 -1.422928 -2.450055 -1.936492 -1.936492 
C -2.450055 -1.422928 -2.738613 -0.726289 -2.738613 0 
C -2.738613 0.726289 -2.450055 1.422928 -1.936492 1.936492 
C -1.422928 2.450055 -0.726289 2.738613 0 2.738613 
z
" id="mef070be70b" style="stroke:#ff0000;"/>
    </defs>
    <g clip-path="url(#p0f95c30f65)">
     <use style="fill:#ff0000;stroke:#ff0000;" x="222.820297" xlink:href="#mef070be70b" y="95.266176"/>
     <use style="fill:#ff0000;stroke:#ff0000;" x="331.795255" xlink:href="#mef070be70b" y="148.07887"/>
     <use style="fill:#ff0000;stroke:#ff0000;" x="80.301074" xlink:href="#mef070be70b" y="283.664311"/>
     <use style="fill:#ff0000;stroke:#ff0000;" x="77.787976" xlink:href="#mef070be70b" y="290.605257"/>
     <use style="fill:#ff0000;stroke:#ff0000;" x="156.995472" xlink:href="#mef070be70b" y="190.911737"/>
     <use style="fill:#ff0000;stroke:#ff0000;" x="182.221999" xlink:href="#mef070be70b" y="66.405527"/>
     <use style="fill:#ff0000;stroke:#ff0000;" x="365.345976" xlink:href="#mef070be70b" y="112.595173"/>
     <use style="fill:#ff0000;stroke:#ff0000;" x="354.028685" xlink:href="#mef070be70b" y="133.819063"/>
    </g>
   </g>
   <g id="text_15">
    <!-- (70) Subject: s3, Known = False, Degree = 1, Duration = 0.1 -->
    <defs>
     <path d="M 31 75.875 
Q 24.46875 64.65625 21.28125 53.65625 
Q 18.109375 42.671875 18.109375 31.390625 
Q 18.109375 20.125 21.3125 9.0625 
Q 24.515625 -2 31 -13.1875 
L 23.1875 -13.1875 
Q 15.875 -1.703125 12.234375 9.375 
Q 8.59375 20.453125 8.59375 31.390625 
Q 8.59375 42.28125 12.203125 53.3125 
Q 15.828125 64.359375 23.1875 75.875 
z
" id="DejaVuSans-40"/>
     <path d="M 8.203125 72.90625 
L 55.078125 72.90625 
L 55.078125 68.703125 
L 28.609375 0 
L 18.3125 0 
L 43.21875 64.59375 
L 8.203125 64.59375 
z
" id="DejaVuSans-55"/>
     <path d="M 8.015625 75.875 
L 15.828125 75.875 
Q 23.140625 64.359375 26.78125 53.3125 
Q 30.421875 42.28125 30.421875 31.390625 
Q 30.421875 20.453125 26.78125 9.375 
Q 23.140625 -1.703125 15.828125 -13.1875 
L 8.015625 -13.1875 
Q 14.5 -2 17.703125 9.0625 
Q 20.90625 20.125 20.90625 31.390625 
Q 20.90625 42.671875 17.703125 53.65625 
Q 14.5 64.65625 8.015625 75.875 
z
" id="DejaVuSans-41"/>
     <path id="DejaVuSans-32"/>
     <path d="M 53.515625 70.515625 
L 53.515625 60.890625 
Q 47.90625 63.578125 42.921875 64.890625 
Q 37.9375 66.21875 33.296875 66.21875 
Q 25.25 66.21875 20.875 63.09375 
Q 16.5 59.96875 16.5 54.203125 
Q 16.5 49.359375 19.40625 46.890625 
Q 22.3125 44.4375 30.421875 42.921875 
L 36.375 41.703125 
Q 47.40625 39.59375 52.65625 34.296875 
Q 57.90625 29 57.90625 20.125 
Q 57.90625 9.515625 50.796875 4.046875 
Q 43.703125 -1.421875 29.984375 -1.421875 
Q 24.8125 -1.421875 18.96875 -0.25 
Q 13.140625 0.921875 6.890625 3.21875 
L 6.890625 13.375 
Q 12.890625 10.015625 18.65625 8.296875 
Q 24.421875 6.59375 29.984375 6.59375 
Q 38.421875 6.59375 43.015625 9.90625 
Q 47.609375 13.234375 47.609375 19.390625 
Q 47.609375 24.75 44.3125 27.78125 
Q 41.015625 30.8125 33.5 32.328125 
L 27.484375 33.5 
Q 16.453125 35.6875 11.515625 40.375 
Q 6.59375 45.0625 6.59375 53.421875 
Q 6.59375 63.09375 13.40625 68.65625 
Q 20.21875 74.21875 32.171875 74.21875 
Q 37.3125 74.21875 42.625 73.28125 
Q 47.953125 72.359375 53.515625 70.515625 
z
" id="DejaVuSans-83"/>
     <path d="M 8.5 21.578125 
L 8.5 54.6875 
L 17.484375 54.6875 
L 17.484375 21.921875 
Q 17.484375 14.15625 20.5 10.265625 
Q 23.53125 6.390625 29.59375 6.390625 
Q 36.859375 6.390625 41.078125 11.03125 
Q 45.3125 15.671875 45.3125 23.6875 
L 45.3125 54.6875 
L 54.296875 54.6875 
L 54.296875 0 
L 45.3125 0 
L 45.3125 8.40625 
Q 42.046875 3.421875 37.71875 1 
Q 33.40625 -1.421875 27.6875 -1.421875 
Q 18.265625 -1.421875 13.375 4.4375 
Q 8.5 10.296875 8.5 21.578125 
z
M 31.109375 56 
z
" id="DejaVuSans-117"/>
     <path d="M 48.6875 27.296875 
Q 48.6875 37.203125 44.609375 42.84375 
Q 40.53125 48.484375 33.40625 48.484375 
Q 26.265625 48.484375 22.1875 42.84375 
Q 18.109375 37.203125 18.109375 27.296875 
Q 18.109375 17.390625 22.1875 11.75 
Q 26.265625 6.109375 33.40625 6.109375 
Q 40.53125 6.109375 44.609375 11.75 
Q 48.6875 17.390625 48.6875 27.296875 
z
M 18.109375 46.390625 
Q 20.953125 51.265625 25.265625 53.625 
Q 29.59375 56 35.59375 56 
Q 45.5625 56 51.78125 48.09375 
Q 58.015625 40.1875 58.015625 27.296875 
Q 58.015625 14.40625 51.78125 6.484375 
Q 45.5625 -1.421875 35.59375 -1.421875 
Q 29.59375 -1.421875 25.265625 0.953125 
Q 20.953125 3.328125 18.109375 8.203125 
L 18.109375 0 
L 9.078125 0 
L 9.078125 75.984375 
L 18.109375 75.984375 
z
" id="DejaVuSans-98"/>
     <path d="M 9.421875 54.6875 
L 18.40625 54.6875 
L 18.40625 -0.984375 
Q 18.40625 -11.421875 14.421875 -16.109375 
Q 10.453125 -20.796875 1.609375 -20.796875 
L -1.8125 -20.796875 
L -1.8125 -13.1875 
L 0.59375 -13.1875 
Q 5.71875 -13.1875 7.5625 -10.8125 
Q 9.421875 -8.453125 9.421875 -0.984375 
z
M 9.421875 75.984375 
L 18.40625 75.984375 
L 18.40625 64.59375 
L 9.421875 64.59375 
z
" id="DejaVuSans-106"/>
     <path d="M 56.203125 29.59375 
L 56.203125 25.203125 
L 14.890625 25.203125 
Q 15.484375 15.921875 20.484375 11.0625 
Q 25.484375 6.203125 34.421875 6.203125 
Q 39.59375 6.203125 44.453125 7.46875 
Q 49.3125 8.734375 54.109375 11.28125 
L 54.109375 2.78125 
Q 49.265625 0.734375 44.1875 -0.34375 
Q 39.109375 -1.421875 33.890625 -1.421875 
Q 20.796875 -1.421875 13.15625 6.1875 
Q 5.515625 13.8125 5.515625 26.8125 
Q 5.515625 40.234375 12.765625 48.109375 
Q 20.015625 56 32.328125 56 
Q 43.359375 56 49.78125 48.890625 
Q 56.203125 41.796875 56.203125 29.59375 
z
M 47.21875 32.234375 
Q 47.125 39.59375 43.09375 43.984375 
Q 39.0625 48.390625 32.421875 48.390625 
Q 24.90625 48.390625 20.390625 44.140625 
Q 15.875 39.890625 15.1875 32.171875 
z
" id="DejaVuSans-101"/>
     <path d="M 48.78125 52.59375 
L 48.78125 44.1875 
Q 44.96875 46.296875 41.140625 47.34375 
Q 37.3125 48.390625 33.40625 48.390625 
Q 24.65625 48.390625 19.8125 42.84375 
Q 14.984375 37.3125 14.984375 27.296875 
Q 14.984375 17.28125 19.8125 11.734375 
Q 24.65625 6.203125 33.40625 6.203125 
Q 37.3125 6.203125 41.140625 7.25 
Q 44.96875 8.296875 48.78125 10.40625 
L 48.78125 2.09375 
Q 45.015625 0.34375 40.984375 -0.53125 
Q 36.96875 -1.421875 32.421875 -1.421875 
Q 20.0625 -1.421875 12.78125 6.34375 
Q 5.515625 14.109375 5.515625 27.296875 
Q 5.515625 40.671875 12.859375 48.328125 
Q 20.21875 56 33.015625 56 
Q 37.15625 56 41.109375 55.140625 
Q 45.0625 54.296875 48.78125 52.59375 
z
" id="DejaVuSans-99"/>
     <path d="M 18.3125 70.21875 
L 18.3125 54.6875 
L 36.8125 54.6875 
L 36.8125 47.703125 
L 18.3125 47.703125 
L 18.3125 18.015625 
Q 18.3125 11.328125 20.140625 9.421875 
Q 21.96875 7.515625 27.59375 7.515625 
L 36.8125 7.515625 
L 36.8125 0 
L 27.59375 0 
Q 17.1875 0 13.234375 3.875 
Q 9.28125 7.765625 9.28125 18.015625 
L 9.28125 47.703125 
L 2.6875 47.703125 
L 2.6875 54.6875 
L 9.28125 54.6875 
L 9.28125 70.21875 
z
" id="DejaVuSans-116"/>
     <path d="M 11.71875 12.40625 
L 22.015625 12.40625 
L 22.015625 0 
L 11.71875 0 
z
M 11.71875 51.703125 
L 22.015625 51.703125 
L 22.015625 39.3125 
L 11.71875 39.3125 
z
" id="DejaVuSans-58"/>
     <path d="M 44.28125 53.078125 
L 44.28125 44.578125 
Q 40.484375 46.53125 36.375 47.5 
Q 32.28125 48.484375 27.875 48.484375 
Q 21.1875 48.484375 17.84375 46.4375 
Q 14.5 44.390625 14.5 40.28125 
Q 14.5 37.15625 16.890625 35.375 
Q 19.28125 33.59375 26.515625 31.984375 
L 29.59375 31.296875 
Q 39.15625 29.25 43.1875 25.515625 
Q 47.21875 21.78125 47.21875 15.09375 
Q 47.21875 7.46875 41.1875 3.015625 
Q 35.15625 -1.421875 24.609375 -1.421875 
Q 20.21875 -1.421875 15.453125 -0.5625 
Q 10.6875 0.296875 5.421875 2 
L 5.421875 11.28125 
Q 10.40625 8.6875 15.234375 7.390625 
Q 20.0625 6.109375 24.8125 6.109375 
Q 31.15625 6.109375 34.5625 8.28125 
Q 37.984375 10.453125 37.984375 14.40625 
Q 37.984375 18.0625 35.515625 20.015625 
Q 33.0625 21.96875 24.703125 23.78125 
L 21.578125 24.515625 
Q 13.234375 26.265625 9.515625 29.90625 
Q 5.8125 33.546875 5.8125 39.890625 
Q 5.8125 47.609375 11.28125 51.796875 
Q 16.75 56 26.8125 56 
Q 31.78125 56 36.171875 55.265625 
Q 40.578125 54.546875 44.28125 53.078125 
z
" id="DejaVuSans-115"/>
     <path d="M 11.71875 12.40625 
L 22.015625 12.40625 
L 22.015625 4 
L 14.015625 -11.625 
L 7.71875 -11.625 
L 11.71875 4 
z
" id="DejaVuSans-44"/>
     <path d="M 9.8125 72.90625 
L 19.671875 72.90625 
L 19.671875 42.09375 
L 52.390625 72.90625 
L 65.09375 72.90625 
L 28.90625 38.921875 
L 67.671875 0 
L 54.6875 0 
L 19.671875 35.109375 
L 19.671875 0 
L 9.8125 0 
z
" id="DejaVuSans-75"/>
     <path d="M 54.890625 33.015625 
L 54.890625 0 
L 45.90625 0 
L 45.90625 32.71875 
Q 45.90625 40.484375 42.875 44.328125 
Q 39.84375 48.1875 33.796875 48.1875 
Q 26.515625 48.1875 22.3125 43.546875 
Q 18.109375 38.921875 18.109375 30.90625 
L 18.109375 0 
L 9.078125 0 
L 9.078125 54.6875 
L 18.109375 54.6875 
L 18.109375 46.1875 
Q 21.34375 51.125 25.703125 53.5625 
Q 30.078125 56 35.796875 56 
Q 45.21875 56 50.046875 50.171875 
Q 54.890625 44.34375 54.890625 33.015625 
z
" id="DejaVuSans-110"/>
     <path d="M 30.609375 48.390625 
Q 23.390625 48.390625 19.1875 42.75 
Q 14.984375 37.109375 14.984375 27.296875 
Q 14.984375 17.484375 19.15625 11.84375 
Q 23.34375 6.203125 30.609375 6.203125 
Q 37.796875 6.203125 41.984375 11.859375 
Q 46.1875 17.53125 46.1875 27.296875 
Q 46.1875 37.015625 41.984375 42.703125 
Q 37.796875 48.390625 30.609375 48.390625 
z
M 30.609375 56 
Q 42.328125 56 49.015625 48.375 
Q 55.71875 40.765625 55.71875 27.296875 
Q 55.71875 13.875 49.015625 6.21875 
Q 42.328125 -1.421875 30.609375 -1.421875 
Q 18.84375 -1.421875 12.171875 6.21875 
Q 5.515625 13.875 5.515625 27.296875 
Q 5.515625 40.765625 12.171875 48.375 
Q 18.84375 56 30.609375 56 
z
" id="DejaVuSans-111"/>
     <path d="M 4.203125 54.6875 
L 13.1875 54.6875 
L 24.421875 12.015625 
L 35.59375 54.6875 
L 46.1875 54.6875 
L 57.421875 12.015625 
L 68.609375 54.6875 
L 77.59375 54.6875 
L 63.28125 0 
L 52.6875 0 
L 40.921875 44.828125 
L 29.109375 0 
L 18.5 0 
z
" id="DejaVuSans-119"/>
     <path d="M 10.59375 45.40625 
L 73.1875 45.40625 
L 73.1875 37.203125 
L 10.59375 37.203125 
z
M 10.59375 25.484375 
L 73.1875 25.484375 
L 73.1875 17.1875 
L 10.59375 17.1875 
z
" id="DejaVuSans-61"/>
     <path d="M 9.8125 72.90625 
L 51.703125 72.90625 
L 51.703125 64.59375 
L 19.671875 64.59375 
L 19.671875 43.109375 
L 48.578125 43.109375 
L 48.578125 34.8125 
L 19.671875 34.8125 
L 19.671875 0 
L 9.8125 0 
z
" id="DejaVuSans-70"/>
     <path d="M 34.28125 27.484375 
Q 23.390625 27.484375 19.1875 25 
Q 14.984375 22.515625 14.984375 16.5 
Q 14.984375 11.71875 18.140625 8.90625 
Q 21.296875 6.109375 26.703125 6.109375 
Q 34.1875 6.109375 38.703125 11.40625 
Q 43.21875 16.703125 43.21875 25.484375 
L 43.21875 27.484375 
z
M 52.203125 31.203125 
L 52.203125 0 
L 43.21875 0 
L 43.21875 8.296875 
Q 40.140625 3.328125 35.546875 0.953125 
Q 30.953125 -1.421875 24.3125 -1.421875 
Q 15.921875 -1.421875 10.953125 3.296875 
Q 6 8.015625 6 15.921875 
Q 6 25.140625 12.171875 29.828125 
Q 18.359375 34.515625 30.609375 34.515625 
L 43.21875 34.515625 
L 43.21875 35.40625 
Q 43.21875 41.609375 39.140625 45 
Q 35.0625 48.390625 27.6875 48.390625 
Q 23 48.390625 18.546875 47.265625 
Q 14.109375 46.140625 10.015625 43.890625 
L 10.015625 52.203125 
Q 14.9375 54.109375 19.578125 55.046875 
Q 24.21875 56 28.609375 56 
Q 40.484375 56 46.34375 49.84375 
Q 52.203125 43.703125 52.203125 31.203125 
z
" id="DejaVuSans-97"/>
     <path d="M 9.421875 75.984375 
L 18.40625 75.984375 
L 18.40625 0 
L 9.421875 0 
z
" id="DejaVuSans-108"/>
     <path d="M 19.671875 64.796875 
L 19.671875 8.109375 
L 31.59375 8.109375 
Q 46.6875 8.109375 53.6875 14.9375 
Q 60.6875 21.78125 60.6875 36.53125 
Q 60.6875 51.171875 53.6875 57.984375 
Q 46.6875 64.796875 31.59375 64.796875 
z
M 9.8125 72.90625 
L 30.078125 72.90625 
Q 51.265625 72.90625 61.171875 64.09375 
Q 71.09375 55.28125 71.09375 36.53125 
Q 71.09375 17.671875 61.125 8.828125 
Q 51.171875 0 30.078125 0 
L 9.8125 0 
z
" id="DejaVuSans-68"/>
     <path d="M 45.40625 27.984375 
Q 45.40625 37.75 41.375 43.109375 
Q 37.359375 48.484375 30.078125 48.484375 
Q 22.859375 48.484375 18.828125 43.109375 
Q 14.796875 37.75 14.796875 27.984375 
Q 14.796875 18.265625 18.828125 12.890625 
Q 22.859375 7.515625 30.078125 7.515625 
Q 37.359375 7.515625 41.375 12.890625 
Q 45.40625 18.265625 45.40625 27.984375 
z
M 54.390625 6.78125 
Q 54.390625 -7.171875 48.1875 -13.984375 
Q 42 -20.796875 29.203125 -20.796875 
Q 24.46875 -20.796875 20.265625 -20.09375 
Q 16.0625 -19.390625 12.109375 -17.921875 
L 12.109375 -9.1875 
Q 16.0625 -11.328125 19.921875 -12.34375 
Q 23.78125 -13.375 27.78125 -13.375 
Q 36.625 -13.375 41.015625 -8.765625 
Q 45.40625 -4.15625 45.40625 5.171875 
L 45.40625 9.625 
Q 42.625 4.78125 38.28125 2.390625 
Q 33.9375 0 27.875 0 
Q 17.828125 0 11.671875 7.65625 
Q 5.515625 15.328125 5.515625 27.984375 
Q 5.515625 40.671875 11.671875 48.328125 
Q 17.828125 56 27.875 56 
Q 33.9375 56 38.28125 53.609375 
Q 42.625 51.21875 45.40625 46.390625 
L 45.40625 54.6875 
L 54.390625 54.6875 
z
" id="DejaVuSans-103"/>
     <path d="M 41.109375 46.296875 
Q 39.59375 47.171875 37.8125 47.578125 
Q 36.03125 48 33.890625 48 
Q 26.265625 48 22.1875 43.046875 
Q 18.109375 38.09375 18.109375 28.8125 
L 18.109375 0 
L 9.078125 0 
L 9.078125 54.6875 
L 18.109375 54.6875 
L 18.109375 46.1875 
Q 20.953125 51.171875 25.484375 53.578125 
Q 30.03125 56 36.53125 56 
Q 37.453125 56 38.578125 55.875 
Q 39.703125 55.765625 41.0625 55.515625 
z
" id="DejaVuSans-114"/>
     <path d="M 9.421875 54.6875 
L 18.40625 54.6875 
L 18.40625 0 
L 9.421875 0 
z
M 9.421875 75.984375 
L 18.40625 75.984375 
L 18.40625 64.59375 
L 9.421875 64.59375 
z
" id="DejaVuSans-105"/>
     <path d="M 10.6875 12.40625 
L 21 12.40625 
L 21 0 
L 10.6875 0 
z
" id="DejaVuSans-46"/>
    </defs>
    <g transform="translate(53.559375 35.472)scale(0.12 -0.12)">
     <use xlink:href="#DejaVuSans-40"/>
     <use x="39.013672" xlink:href="#DejaVuSans-55"/>
     <use x="102.636719" xlink:href="#DejaVuSans-48"/>
     <use x="166.259766" xlink:href="#DejaVuSans-41"/>
     <use x="205.273438" xlink:href="#DejaVuSans-32"/>
     <use x="237.060547" xlink:href="#DejaVuSans-83"/>
     <use x="300.537109" xlink:href="#DejaVuSans-117"/>
     <use x="363.916016" xlink:href="#DejaVuSans-98"/>
     <use x="427.392578" xlink:href="#DejaVuSans-106"/>
     <use x="455.175781" xlink:href="#DejaVuSans-101"/>
     <use x="516.699219" xlink:href="#DejaVuSans-99"/>
     <use x="571.679688" xlink:href="#DejaVuSans-116"/>
     <use x="610.888672" xlink:href="#DejaVuSans-58"/>
     <use x="644.580078" xlink:href="#DejaVuSans-32"/>
     <use x="676.367188" xlink:href="#DejaVuSans-115"/>
     <use x="728.466797" xlink:href="#DejaVuSans-51"/>
     <use x="792.089844" xlink:href="#DejaVuSans-44"/>
     <use x="823.876953" xlink:href="#DejaVuSans-32"/>
     <use x="855.664062" xlink:href="#DejaVuSans-75"/>
     <use x="921.240234" xlink:href="#DejaVuSans-110"/>
     <use x="984.619141" xlink:href="#DejaVuSans-111"/>
     <use x="1045.800781" xlink:href="#DejaVuSans-119"/>
     <use x="1127.587891" xlink:href="#DejaVuSans-110"/>
     <use x="1190.966797" xlink:href="#DejaVuSans-32"/>
     <use x="1222.753906" xlink:href="#DejaVuSans-61"/>
     <use x="1306.542969" xlink:href="#DejaVuSans-32"/>
     <use x="1338.330078" xlink:href="#DejaVuSans-70"/>
     <use x="1395.708984" xlink:href="#DejaVuSans-97"/>
     <use x="1456.988281" xlink:href="#DejaVuSans-108"/>
     <use x="1484.771484" xlink:href="#DejaVuSans-115"/>
     <use x="1536.871094" xlink:href="#DejaVuSans-101"/>
     <use x="1598.394531" xlink:href="#DejaVuSans-44"/>
     <use x="1630.181641" xlink:href="#DejaVuSans-32"/>
     <use x="1661.96875" xlink:href="#DejaVuSans-68"/>
     <use x="1738.970703" xlink:href="#DejaVuSans-101"/>
     <use x="1800.494141" xlink:href="#DejaVuSans-103"/>
     <use x="1863.970703" xlink:href="#DejaVuSans-114"/>
     <use x="1905.052734" xlink:href="#DejaVuSans-101"/>
     <use x="1966.576172" xlink:href="#DejaVuSans-101"/>
     <use x="2028.099609" xlink:href="#DejaVuSans-32"/>
     <use x="2059.886719" xlink:href="#DejaVuSans-61"/>
     <use x="2143.675781" xlink:href="#DejaVuSans-32"/>
     <use x="2175.462891" xlink:href="#DejaVuSans-49"/>
     <use x="2239.085938" xlink:href="#DejaVuSans-44"/>
     <use x="2270.873047" xlink:href="#DejaVuSans-32"/>
     <use x="2302.660156" xlink:href="#DejaVuSans-68"/>
     <use x="2379.662109" xlink:href="#DejaVuSans-117"/>
     <use x="2443.041016" xlink:href="#DejaVuSans-114"/>
     <use x="2484.154297" xlink:href="#DejaVuSans-97"/>
     <use x="2545.433594" xlink:href="#DejaVuSans-116"/>
     <use x="2584.642578" xlink:href="#DejaVuSans-105"/>
     <use x="2612.425781" xlink:href="#DejaVuSans-111"/>
     <use x="2673.607422" xlink:href="#DejaVuSans-110"/>
     <use x="2736.986328" xlink:href="#DejaVuSans-32"/>
     <use x="2768.773438" xlink:href="#DejaVuSans-61"/>
     <use x="2852.5625" xlink:href="#DejaVuSans-32"/>
     <use x="2884.349609" xlink:href="#DejaVuSans-48"/>
     <use x="2947.972656" xlink:href="#DejaVuSans-46"/>
     <use x="2979.759766" xlink:href="#DejaVuSans-49"/>
    </g>
   </g>
  </g>
 </g>
 <defs>
  <clipPath id="p0f95c30f65">
   <rect height="266.112" width="357.12" x="57.6" y="41.472"/>
  </clipPath>
 </defs>
</svg>
