<?xml version="1.0" encoding="utf-8" standalone="no"?>
<!DOCTYPE svg PUBLIC "-//W3C//DTD SVG 1.1//EN"
  "http://www.w3.org/Graphics/SVG/1.1/DTD/svg11.dtd">
<!-- Created with matplotlib (https://matplotlib.org/) -->
<svg height="345.6pt" version="1.1" viewBox="0 0 460.8 345.6" width="460.8pt" xmlns="http://www.w3.org/2000/svg" xmlns:xlink="http://www.w3.org/1999/xlink">
 <defs>
  <style type="text/css">
*{stroke-linecap:butt;stroke-linejoin:round;}
  </style>
 </defs>
 <g id="figure_1">
  <g id="patch_1">
   <path d="M 0 345.6 
L 460.8 345.6 
L 460.8 0 
L 0 0 
z
" style="fill:#ffffff;"/>
  </g>
  <g id="axes_1">
   <g id="patch_2">
    <path d="M 57.6 307.584 
L 414.72 307.584 
L 414.72 41.472 
L 57.6 41.472 
z
" style="fill:#ffffff;"/>
   </g>
   <g id="line2d_1">
    <path clip-path="url(#p9cb99503a0)" d="M 290.520447 207.354791 
L 290.369633 207.707767 
L 290.21882 207.532737 
L 290.369633 207.176844 
L 290.068006 206.823868 
L 290.21882 206.645921 
L 290.66606 206.645921 
L 290.66606 207.001815 
L 290.520447 207.532737 
L 290.21882 207.885714 
L 290.21882 207.707767 
L 290.66606 207.354791 
L 290.816873 207.001815 
L 290.66606 206.823868 
L 290.66606 206.823868 
L 290.66606 207.001815 
L 290.967687 207.001815 
L 290.369633 207.354791 
L 290.21882 207.707767 
L 290.520447 207.707767 
L 290.816873 207.354791 
L 290.816873 207.354791 
L 290.369633 207.354791 
L 290.21882 207.176844 
L 290.520447 207.001815 
L 290.816873 207.001815 
L 290.816873 206.645921 
L 290.967687 206.823868 
L 291.1185 207.176844 
L 290.66606 207.176844 
L 290.66606 207.176844 
L 290.66606 207.001815 
L 290.816873 207.001815 
L 290.369633 206.645921 
L 290.21882 206.645921 
L 290.369633 206.645921 
L 290.816873 206.823868 
L 291.1185 207.176844 
L 291.1185 207.001815 
L 290.816873 206.823868 
L 290.66606 207.001815 
L 290.816873 207.176844 
L 290.816873 207.885714 
L 290.967687 207.707767 
L 291.414926 206.470892 
L 291.1185 206.470892 
L 290.369633 206.292945 
L 290.369633 206.292945 
L 290.520447 206.470892 
L 290.520447 206.645921 
L 290.66606 206.823868 
L 290.967687 206.645921 
L 290.967687 206.470892 
L 290.816873 206.470892 
L 290.520447 206.823868 
L 290.369633 207.176844 
L 290.520447 207.176844 
L 290.66606 207.001815 
L 290.520447 207.354791 
L 290.66606 207.176844 
L 290.816873 207.001815 
L 291.1185 206.823868 
L 291.264113 206.470892 
L 290.967687 206.114998 
L 290.369633 206.114998 
L 289.922393 206.292945 
L 289.922393 206.470892 
L 290.068006 206.645921 
L 290.369633 206.645921 
L 290.66606 206.823868 
L 290.967687 206.470892 
L 291.1185 205.939969 
L 290.816873 205.762022 
L 290.66606 206.292945 
L 290.967687 206.645921 
L 291.56574 206.470892 
L 291.56574 206.292945 
L 291.414926 206.292945 
L 291.1185 206.470892 
L 290.816873 206.823868 
L 290.816873 207.001815 
L 290.967687 207.354791 
L 291.1185 207.354791 
L 291.264113 207.176844 
L 291.1185 206.645921 
L 290.967687 206.823868 
L 290.967687 206.823868 
L 290.520447 206.292945 
L 290.66606 206.470892 
L 291.1185 206.645921 
L 290.967687 206.470892 
L 291.414926 205.584075 
L 291.1185 206.292945 
L 291.1185 206.823868 
L 290.967687 207.001815 
L 291.1185 206.645921 
L 291.414926 206.292945 
L 291.716553 206.114998 
L 291.716553 204.878123 
L 291.56574 204.878123 
L 291.414926 205.053152 
L 291.56574 205.409046 
L 291.264113 206.114998 
L 291.264113 206.114998 
L 291.264113 205.939969 
L 291.414926 205.584075 
L 291.716553 205.231099 
L 291.56574 205.053152 
L 291.1185 205.053152 
L 290.967687 205.231099 
L 291.264113 205.584075 
L 292.01298 205.762022 
L 291.264113 205.231099 
L 291.264113 205.053152 
L 291.56574 205.053152 
L 291.56574 205.231099 
L 291.716553 205.231099 
L 292.163793 204.522229 
L 291.862166 204.878123 
L 291.414926 205.231099 
L 291.264113 205.409046 
L 291.414926 205.409046 
L 291.862166 204.878123 
L 292.01298 204.522229 
L 291.862166 204.700176 
L 291.56574 204.878123 
L 291.716553 204.700176 
L 291.716553 204.522229 
L 290.967687 203.991306 
L 291.716553 203.63833 
L 291.716553 203.63833 
L 291.862166 203.285354 
L 291.56574 203.285354 
L 291.716553 203.285354 
L 291.414926 202.929461 
L 291.264113 202.398538 
L 291.56574 201.692585 
L 291.414926 201.692585 
L 290.66606 201.692585 
L 290.816873 201.867615 
L 290.967687 201.692585 
L 291.1185 201.692585 
L 291.1185 201.692585 
L 291.1185 201.867615 
L 290.967687 202.045561 
L 290.66606 201.867615 
L 290.816873 201.336692 
L 291.414926 200.630739 
L 290.369633 200.983715 
L 290.520447 201.161662 
L 290.816873 201.336692 
L 290.21882 200.983715 
L 290.21882 200.983715 
L 290.21882 201.514638 
L 290.967687 201.867615 
L 290.66606 201.692585 
L 290.520447 201.514638 
L 290.068006 201.336692 
L 290.369633 201.692585 
L 289.620766 201.692585 
L 289.469953 201.867615 
L 289.469953 202.398538 
L 289.469953 202.398538 
L 290.21882 201.514638 
L 290.21882 201.514638 
L 290.068006 201.514638 
L 289.922393 201.336692 
L 289.77158 201.514638 
L 289.922393 201.867615 
L 290.66606 201.514638 
L 290.369633 201.336692 
L 290.068006 201.514638 
L 289.922393 201.336692 
L 290.66606 201.867615 
L 290.520447 202.045561 
L 290.369633 202.045561 
L 290.520447 201.867615 
L 290.520447 202.045561 
L 290.369633 202.045561 
L 290.520447 201.867615 
L 290.369633 201.692585 
L 290.068006 201.692585 
L 290.520447 201.692585 
L 290.967687 202.045561 
L 290.967687 202.398538 
L 290.520447 202.223508 
L 290.21882 201.867615 
L 290.816873 202.223508 
L 290.369633 202.754431 
L 290.21882 203.107407 
L 289.922393 202.754431 
L 289.620766 202.045561 
L 289.469953 202.045561 
L 289.620766 201.514638 
L 289.922393 202.223508 
L 290.068006 202.223508 
L 289.922393 202.045561 
L 289.620766 202.045561 
L 289.922393 202.045561 
L 289.77158 202.398538 
L 289.77158 202.754431 
L 290.068006 202.929461 
L 290.21882 202.754431 
L 290.520447 202.576484 
L 290.369633 202.576484 
L 290.068006 203.107407 
L 289.469953 203.816277 
L 288.575473 203.991306 
L 287.379367 203.63833 
L 285.434393 202.754431 
L 282.891366 202.045561 
L 279.9011 201.867615 
L 276.609206 202.045561 
L 272.573647 202.045561 
L 267.940033 202.223508 
L 262.85398 202.929461 
L 257.617113 203.991306 
L 246.2541 206.645921 
L 240.273567 208.23869 
L 234.293034 210.187352 
L 228.3073 212.311044 
L 222.175953 214.787712 
L 216.346233 217.795303 
L 205.43046 224.697301 
L 200.344407 227.882839 
L 195.409167 230.7154 
L 186.287553 235.140731 
L 178.06562 239.919037 
L 174.175674 241.511806 
L 170.43654 242.748682 
L 164.008767 245.403296 
L 160.867687 246.821036 
L 157.575794 248.057911 
L 154.881953 248.944727 
L 150.549967 250.712526 
L 148.303367 251.421395 
L 146.061967 252.305295 
L 143.820567 253.014164 
L 141.72478 253.545087 
L 140.679487 254.428986 
L 139.93062 256.730625 
L 139.93062 257.436577 
L 140.227047 257.9675 
L 140.8251 258.145447 
L 140.975914 258.498423 
L 140.975914 258.854317 
L 140.975914 258.854317 
L 141.423153 260.091192 
L 141.423153 260.800062 
L 141.423153 260.800062 
L 141.27754 260.447085 
L 141.423153 260.447085 
L 141.27754 261.153038 
L 140.975914 261.508931 
L 140.679487 261.153038 
L 140.679487 261.153038 
L 140.679487 261.508931 
L 140.528674 261.861908 
L 139.93062 262.039854 
L 139.483381 262.392831 
L 139.03094 262.923754 
L 139.03094 263.807653 
L 138.5837 264.516522 
L 138.5837 264.338576 
L 138.432887 264.338576 
L 138.13646 264.516522 
L 137.985647 264.869499 
L 138.885327 264.869499 
L 139.181754 265.047445 
L 139.181754 265.578368 
L 138.885327 266.287238 
L 138.5837 266.462267 
L 137.985647 266.109291 
L 137.834834 266.287238 
L 137.985647 266.640214 
L 138.287274 266.99319 
L 138.432887 267.349084 
L 138.287274 267.349084 
L 137.834834 267.171137 
L 138.287274 266.99319 
L 138.5837 266.640214 
L 138.734514 266.640214 
L 138.5837 266.640214 
L 138.13646 266.818161 
L 137.689221 267.171137 
L 137.834834 267.70206 
L 138.13646 267.880007 
L 138.13646 268.055036 
L 137.538407 268.055036 
L 137.834834 268.41093 
L 137.985647 269.116882 
L 137.834834 269.294829 
L 137.834834 268.941853 
L 138.13646 269.116882 
L 137.985647 269.472776 
L 137.689221 269.472776 
L 137.689221 268.41093 
L 137.689221 268.41093 
L 137.538407 268.585959 
L 137.387594 268.941853 
L 137.689221 269.825752 
L 137.689221 270.003699 
L 137.387594 270.178728 
L 137.23678 270.003699 
L 137.387594 270.178728 
L 137.091167 270.534621 
L 136.940354 270.534621 
L 137.091167 270.534621 
L 137.689221 270.356675 
L 137.985647 270.534621 
L 137.689221 270.709651 
L 137.23678 270.709651 
L 136.940354 270.887598 
L 136.940354 271.240574 
L 136.940354 270.887598 
L 137.091167 270.887598 
L 137.23678 271.065544 
L 137.538407 271.065544 
L 137.538407 271.065544 
L 137.23678 271.240574 
L 136.78954 271.240574 
L 136.493114 271.596467 
L 136.493114 271.596467 
L 136.638727 271.240574 
L 136.940354 270.887598 
L 136.940354 270.709651 
L 136.638727 270.887598 
L 136.3423 270.887598 
L 136.3423 270.534621 
L 136.638727 270.178728 
L 136.940354 270.887598 
L 136.78954 270.534621 
L 136.493114 270.887598 
L 136.3423 271.240574 
L 136.3423 271.596467 
L 136.493114 271.771497 
L 136.493114 271.596467 
L 136.3423 271.418521 
L 136.191487 271.418521 
L 136.040674 271.771497 
L 136.040674 271.771497 
L 136.3423 271.596467 
L 136.638727 271.065544 
L 136.638727 270.709651 
L 136.3423 270.887598 
L 135.895061 271.418521 
L 135.744247 271.065544 
L 135.895061 270.887598 
L 136.040674 271.065544 
L 136.040674 271.065544 
L 135.744247 270.534621 
L 135.744247 271.949444 
L 135.593434 272.12739 
L 135.895061 271.596467 
L 136.638727 270.887598 
L 137.834834 270.534621 
L 139.332567 270.356675 
L 144.418621 270.356675 
L 153.38942 270.003699 
L 159.073527 269.825752 
L 172.67794 270.178728 
L 180.30702 270.178728 
L 188.679767 270.356675 
L 236.534433 272.30242 
L 246.2541 273.542212 
L 255.67734 275.134981 
L 265.54262 276.196827 
L 275.714727 276.905697 
L 285.585207 277.43662 
L 304.426486 279.913288 
L 313.246473 281.32811 
L 321.62442 283.098826 
L 329.846353 285.222517 
L 337.626246 286.637339 
L 351.230659 288.408055 
L 367.830539 291.415646 
L 375.45962 292.124516 
L 377.701019 292.833385 
L 379.198753 293.539338 
L 380.540473 293.539338 
L 381.736579 292.833385 
L 381.138526 293.186362 
L 380.540473 293.008415 
L 379.645993 292.302462 
L 378.449886 291.771539 
L 377.25378 291.415646 
L 376.208486 291.240616 
L 375.007179 291.240616 
L 374.1127 291.415646 
L 372.31854 291.06267 
L 372.016913 291.415646 
L 372.016913 291.771539 
L 372.469353 291.946569 
L 372.916593 291.771539 
L 373.213019 291.240616 
L 373.66546 291.593593 
L 374.710753 292.833385 
L 375.007179 292.833385 
L 375.45962 292.655439 
L 376.354099 293.008415 
L 376.80654 292.833385 
L 376.952153 292.655439 
L 376.952153 293.008415 
L 376.80654 293.364308 
L 376.504913 293.364308 
L 376.354099 292.477492 
L 376.504913 292.302462 
L 376.655726 292.477492 
L 376.208486 292.833385 
L 375.45962 292.655439 
L 375.007179 293.717284 
L 374.861566 293.717284 
L 374.861566 293.717284 
L 374.861566 293.008415 
L 375.157993 293.008415 
L 375.308806 293.186362 
L 375.157993 293.364308 
L 375.007179 293.186362 
L 375.157993 293.008415 
L 375.45962 292.833385 
L 375.605233 293.008415 
L 375.45962 293.008415 
L 375.45962 292.833385 
L 375.756046 293.008415 
L 375.756046 293.539338 
L 375.45962 293.895231 
L 375.157993 294.070261 
L 375.007179 294.426154 
L 375.308806 294.601184 
L 375.605233 294.248207 
L 375.605233 293.717284 
L 375.756046 293.539338 
L 375.605233 293.364308 
L 375.605233 293.186362 
L 376.057673 294.248207 
L 375.90686 294.248207 
L 375.45962 293.717284 
L 375.605233 293.895231 
L 375.756046 294.248207 
L 375.45962 294.248207 
L 375.308806 294.070261 
L 375.157993 293.717284 
L 375.308806 293.539338 
L 375.90686 293.895231 
L 375.90686 293.539338 
L 375.90686 293.539338 
L 375.605233 293.539338 
L 375.308806 293.895231 
L 375.308806 294.070261 
L 375.45962 294.248207 
L 376.057673 294.248207 
L 376.057673 294.601184 
L 375.90686 294.77913 
L 375.605233 294.426154 
L 375.605233 294.248207 
L 375.605233 294.248207 
L 375.90686 293.895231 
L 375.90686 293.539338 
L 375.308806 292.833385 
L 375.157993 293.008415 
L 375.308806 293.364308 
L 376.208486 294.070261 
L 376.208486 294.426154 
L 375.605233 294.601184 
L 375.007179 294.248207 
L 374.710753 293.717284 
L 374.861566 293.539338 
L 375.45962 293.895231 
L 375.308806 293.895231 
L 375.308806 294.070261 
L 375.45962 294.248207 
L 375.308806 294.248207 
L 374.861566 293.186362 
L 374.559939 292.833385 
L 374.263513 293.539338 
L 374.409126 294.248207 
L 374.861566 294.070261 
L 375.45962 293.539338 
L 375.45962 293.364308 
L 375.007179 293.539338 
L 374.861566 293.717284 
L 375.157993 293.717284 
L 375.605233 293.539338 
L 375.756046 293.008415 
L 375.45962 292.655439 
L 374.861566 293.008415 
L 374.710753 293.186362 
L 374.710753 293.539338 
L 374.559939 293.717284 
L 374.559939 293.717284 
L 374.409126 293.717284 
L 374.409126 293.364308 
L 375.157993 292.477492 
L 374.861566 291.771539 
L 375.007179 291.593593 
L 375.007179 291.946569 
L 374.559939 292.477492 
L 375.157993 292.124516 
L 375.157993 291.946569 
L 374.710753 291.946569 
L 375.007179 292.124516 
L 374.861566 291.946569 
L 374.559939 291.771539 
L 374.559939 291.593593 
L 374.710753 291.771539 
L 375.157993 291.771539 
L 375.45962 291.593593 
L 375.45962 291.415646 
L 375.45962 291.593593 
L 375.605233 291.771539 
L 375.157993 291.06267 
L 374.861566 290.531747 
L 374.710753 290.709693 
L 374.710753 291.593593 
L 374.861566 291.771539 
L 375.157993 291.771539 
L 375.45962 291.415646 
L 375.157993 291.415646 
L 375.007179 291.240616 
L 375.157993 291.06267 
L 375.308806 291.415646 
L 375.157993 291.946569 
L 374.861566 292.124516 
L 374.559939 291.415646 
L 374.710753 291.415646 
L 375.157993 290.884723 
L 375.157993 291.240616 
L 374.861566 291.593593 
L 375.007179 291.593593 
L 375.756046 291.06267 
L 376.80654 290.531747 
L 379.198753 290.531747 
L 380.992913 290.709693 
L 383.083499 290.709693 
L 386.822633 291.415646 
L 388.91842 291.593593 
L 393.401219 291.240616 
L 394.748139 291.771539 
L 397.291166 293.895231 
L 397.889219 294.426154 
L 397.889219 294.77913 
L 397.889219 294.77913 
L 398.336459 294.601184 
L 398.487273 294.957077 
L 398.190846 295.310053 
L 397.291166 295.488 
L 395.64782 294.957077 
L 395.049766 294.601184 
L 394.597326 293.895231 
L 394.150086 293.539338 
L 393.702846 293.539338 
L 393.401219 293.717284 
L 393.104793 293.364308 
L 393.104793 293.186362 
L 392.953979 293.186362 
L 392.803166 293.364308 
L 393.104793 293.539338 
L 393.401219 293.539338 
L 394.300899 292.477492 
L 394.300899 292.302462 
L 394.451713 292.477492 
L 394.898953 293.717284 
L 394.748139 294.426154 
L 394.451713 294.601184 
L 394.451713 294.426154 
L 394.748139 294.426154 
L 394.748139 294.426154 
L 394.451713 294.248207 
L 394.150086 293.717284 
L 394.150086 293.186362 
L 394.300899 292.833385 
L 394.150086 293.186362 
L 393.999273 293.895231 
L 394.150086 294.601184 
L 393.85366 294.601184 
L 393.552033 294.070261 
L 393.255606 293.895231 
L 393.401219 293.895231 
L 393.552033 293.539338 
L 394.597326 293.008415 
L 394.748139 293.364308 
L 394.597326 293.717284 
L 394.300899 293.539338 
L 394.150086 293.186362 
L 394.451713 293.186362 
L 394.898953 293.539338 
L 395.049766 293.895231 
L 394.898953 293.364308 
L 394.898953 291.771539 
L 394.748139 291.946569 
L 394.748139 292.477492 
L 394.898953 292.655439 
L 394.898953 292.477492 
L 394.748139 292.477492 
L 394.898953 292.833385 
L 395.195379 293.186362 
L 395.195379 293.364308 
L 394.748139 293.186362 
L 394.451713 292.833385 
L 394.451713 292.833385 
L 394.150086 293.008415 
L 394.150086 293.186362 
L 394.300899 293.539338 
L 394.451713 293.539338 
L 394.748139 293.186362 
L 395.195379 292.833385 
L 395.346193 292.477492 
L 394.300899 292.833385 
L 394.300899 292.833385 
L 394.748139 292.655439 
L 394.748139 292.655439 
L 394.748139 292.124516 
L 394.748139 292.302462 
L 394.597326 293.186362 
L 394.748139 293.008415 
L 395.195379 292.833385 
L 395.195379 292.124516 
L 395.346193 291.946569 
L 395.049766 292.124516 
L 394.451713 292.124516 
L 393.104793 291.771539 
L 391.908686 291.771539 
L 389.662086 291.240616 
L 386.526206 290.3538 
L 382.636259 288.938978 
L 377.851833 288.055079 
L 366.785246 286.815286 
L 359.608606 285.575494 
L 351.532286 284.338618 
L 342.561487 283.276772 
L 332.987433 282.389956 
L 323.267766 281.15308 
L 303.381193 278.320519 
L 293.209086 277.080726 
L 262.552353 274.426112 
L 251.63658 273.720159 
L 241.022434 273.189236 
L 230.850327 272.480367 
L 212.009047 271.418521 
L 202.73662 271.065544 
L 193.31858 270.178728 
L 183.89534 269.472776 
L 174.622913 268.941853 
L 165.94854 268.232983 
L 149.353861 266.462267 
L 141.423153 265.756315 
L 126.91906 264.694469 
L 120.038847 263.632623 
L 113.46026 262.214884 
L 101.650007 260.091192 
L 96.262327 258.854317 
L 87.291527 257.083601 
L 83.854021 256.374731 
L 80.863754 255.312886 
L 78.46634 254.25104 
L 76.973807 253.720117 
L 76.074127 253.189194 
L 75.928514 252.658271 
L 76.67218 252.127348 
L 78.320727 250.712526 
L 79.81326 250.712526 
L 80.863754 250.890472 
L 81.758234 251.243449 
L 82.507101 251.774372 
L 83.255967 252.127348 
L 83.255967 252.836218 
L 82.954341 253.720117 
L 81.60742 254.781963 
L 81.160181 255.668779 
L 80.411314 256.021755 
L 79.366021 256.199702 
L 77.722674 256.199702 
L 77.270234 256.021755 
L 76.224941 256.730625 
L 76.526567 256.730625 
L 77.124621 255.843809 
L 76.822994 255.137856 
L 76.67218 254.959909 
L 76.973807 255.137856 
L 77.722674 255.312886 
L 78.169914 255.137856 
L 77.722674 255.312886 
L 77.722674 255.490832 
L 77.868287 255.490832 
L 78.019101 255.668779 
L 78.169914 256.021755 
L 77.868287 256.199702 
L 77.270234 255.843809 
L 77.124621 256.021755 
L 77.124621 256.374731 
L 77.124621 256.374731 
L 77.270234 256.199702 
L 77.421047 256.552678 
L 77.270234 256.730625 
L 76.67218 256.552678 
L 76.224941 256.199702 
L 76.224941 256.199702 
L 76.526567 256.021755 
L 76.526567 256.199702 
L 76.375754 256.552678 
L 76.822994 257.083601 
L 76.822994 257.261548 
L 76.822994 257.261548 
L 76.973807 257.261548 
L 77.124621 257.083601 
L 77.270234 256.730625 
L 77.124621 256.552678 
L 77.124621 257.083601 
L 77.421047 257.436577 
L 77.868287 257.261548 
L 77.868287 257.083601 
L 77.270234 256.730625 
L 77.270234 256.730625 
L 77.270234 257.083601 
L 76.973807 256.730625 
L 76.822994 256.730625 
L 76.822994 256.905654 
L 76.224941 257.261548 
L 75.928514 257.083601 
L 76.074127 256.905654 
L 77.124621 257.261548 
L 77.124621 257.083601 
L 76.526567 257.261548 
L 76.224941 257.792471 
L 76.224941 258.145447 
L 76.375754 258.145447 
L 76.224941 257.792471 
L 76.224941 257.792471 
L 76.224941 257.261548 
L 75.928514 257.083601 
L 75.928514 257.261548 
L 76.074127 257.614524 
L 76.074127 257.9675 
L 76.224941 258.323394 
L 76.526567 257.9675 
L 76.526567 257.436577 
L 76.224941 257.083601 
L 76.074127 257.083601 
L 75.777701 257.436577 
L 75.777701 259.029346 
L 75.777701 258.854317 
L 75.928514 258.498423 
L 75.777701 258.323394 
L 75.777701 258.67637 
L 75.777701 258.498423 
L 75.476074 257.9675 
L 75.330461 257.436577 
L 75.476074 256.905654 
L 75.330461 256.905654 
L 75.476074 257.261548 
L 76.074127 257.083601 
L 75.928514 257.436577 
L 75.928514 257.436577 
L 76.224941 257.792471 
L 76.074127 257.9675 
L 75.777701 257.614524 
L 75.626887 257.083601 
L 75.777701 256.730625 
L 75.626887 257.261548 
L 75.626887 257.261548 
L 75.928514 257.083601 
L 75.928514 257.083601 
L 75.626887 257.083601 
L 75.330461 257.261548 
L 75.476074 257.436577 
L 76.074127 257.261548 
L 75.928514 257.261548 
L 75.777701 257.083601 
L 75.777701 257.083601 
L 75.626887 257.083601 
L 75.330461 257.614524 
L 75.330461 257.614524 
L 75.028834 257.261548 
L 75.028834 257.261548 
L 74.87802 257.436577 
L 75.179647 257.436577 
L 74.732407 256.905654 
L 75.028834 257.083601 
L 75.179647 257.9675 
L 74.87802 257.792471 
L 74.87802 257.436577 
L 75.028834 257.261548 
L 75.330461 256.730625 
L 75.476074 256.552678 
L 75.476074 256.374731 
L 75.179647 256.374731 
L 75.179647 257.436577 
L 74.87802 257.614524 
L 74.430781 257.436577 
L 74.581594 257.614524 
L 75.028834 257.9675 
L 75.179647 257.792471 
L 75.028834 257.436577 
L 75.028834 257.614524 
L 74.87802 257.792471 
L 74.732407 257.614524 
L 74.430781 257.436577 
L 74.430781 257.614524 
L 74.581594 257.9675 
L 75.330461 258.498423 
L 75.179647 258.498423 
L 74.87802 258.67637 
L 74.279967 258.67637 
L 74.430781 258.854317 
L 74.732407 258.854317 
L 75.028834 258.67637 
L 74.87802 258.323394 
L 74.732407 258.323394 
L 74.732407 258.854317 
L 74.581594 259.207293 
L 74.279967 259.207293 
L 73.983541 259.38524 
L 74.134354 259.38524 
L 74.732407 259.029346 
L 74.581594 259.38524 
L 74.581594 259.916163 
L 74.134354 260.269139 
L 74.279967 260.622115 
L 73.832727 260.091192 
L 74.134354 259.738216 
L 74.430781 260.091192 
L 74.732407 260.800062 
L 75.028834 261.153038 
L 75.179647 260.978008 
L 75.179647 260.800062 
L 75.028834 260.622115 
L 74.732407 260.622115 
L 74.732407 260.622115 
L 74.279967 260.269139 
L 74.279967 259.916163 
L 74.134354 259.916163 
L 74.430781 260.800062 
L 74.430781 261.330985 
L 74.430781 260.800062 
L 74.732407 260.091192 
L 75.028834 260.091192 
L 75.028834 260.091192 
L 74.430781 259.916163 
L 74.134354 260.091192 
L 74.134354 260.269139 
L 74.581594 260.269139 
L 73.983541 260.269139 
L 73.832727 260.091192 
L 74.279967 260.091192 
L 74.732407 260.447085 
L 74.732407 260.622115 
L 73.983541 260.269139 
L 74.134354 260.091192 
L 74.134354 259.738216 
L 74.279967 259.560269 
L 74.581594 259.38524 
L 74.732407 259.560269 
L 74.430781 259.738216 
L 74.134354 259.38524 
L 74.134354 259.029346 
L 74.430781 259.029346 
L 74.732407 258.67637 
L 75.330461 256.199702 
L 76.375754 251.952318 
L 76.67218 249.297704 
L 77.124621 246.290113 
L 78.169914 242.042729 
L 79.81326 236.908529 
L 81.461807 231.246323 
L 82.954341 225.584118 
L 86.844287 212.841967 
L 89.387314 205.584075 
L 92.075954 198.329101 
L 95.367847 191.605049 
L 107.1781 169.128339 
L 111.369674 162.051311 
L 116.003287 155.149312 
L 120.938527 148.247314 
L 126.024581 141.698292 
L 136.3423 130.195934 
L 140.679487 124.533728 
L 152.48974 107.89717 
L 156.5305 102.940917 
L 169.53686 84.361531 
L 172.67794 80.289177 
L 175.37178 76.041793 
L 177.16594 71.972356 
L 178.51286 68.255896 
L 181.503127 61.88482 
L 181.65394 59.761129 
L 181.2015 58.16836 
L 180.603447 56.575591 
L 180.30702 55.160769 
L 179.558154 54.273952 
L 178.362047 53.74303 
L 177.16594 53.568 
L 175.969834 53.920976 
L 174.622913 54.629846 
L 173.57762 55.513745 
L 172.979567 57.106514 
L 172.532327 57.815384 
L 172.2307 58.521336 
L 172.079887 59.230206 
L 172.532327 60.114105 
L 172.979567 60.469998 
L 173.728434 60.292052 
L 174.4721 60.292052 
L 174.622913 60.645028 
L 175.668207 59.939075 
L 175.37178 60.114105 
L 175.220967 60.114105 
L 175.37178 59.408152 
L 175.220967 58.877229 
L 174.622913 57.990413 
L 174.4721 57.106514 
L 174.02486 56.222615 
L 174.02486 56.222615 
L 173.57762 56.575591 
L 173.426807 57.106514 
L 172.979567 57.990413 
L 172.979567 58.16836 
L 173.275993 58.346307 
L 173.275993 58.699283 
L 173.426807 58.521336 
L 173.728434 57.990413 
L 173.728434 57.45949 
L 173.57762 57.45949 
L 173.57762 58.16836 
L 173.426807 58.16836 
L 173.426807 58.16836 
L 173.426807 58.521336 
L 173.275993 59.052259 
L 172.979567 59.230206 
L 172.979567 59.408152 
L 172.979567 59.052259 
L 172.828754 58.877229 
L 173.13038 59.052259 
L 173.275993 58.877229 
L 173.275993 58.521336 
L 173.275993 58.521336 
L 173.13038 58.521336 
L 173.13038 58.699283 
L 173.13038 58.699283 
L 172.828754 58.521336 
L 172.532327 58.521336 
L 172.532327 58.877229 
L 172.67794 59.052259 
L 172.67794 59.230206 
L 172.2307 59.052259 
L 172.2307 59.230206 
L 172.979567 59.230206 
L 173.275993 59.408152 
L 173.13038 59.052259 
L 172.532327 58.877229 
L 172.079887 58.877229 
L 172.079887 58.877229 
L 172.532327 58.521336 
L 172.079887 58.877229 
L 171.934274 58.521336 
L 172.079887 58.521336 
L 172.2307 58.699283 
L 172.2307 59.052259 
L 172.079887 59.408152 
L 171.934274 59.408152 
L 172.2307 58.877229 
L 172.079887 58.699283 
L 171.481833 58.521336 
L 171.632647 58.521336 
L 171.78346 58.346307 
L 171.632647 58.346307 
L 172.079887 58.346307 
L 172.532327 58.521336 
L 172.67794 58.699283 
L 172.67794 59.583182 
L 172.67794 59.583182 
L 172.381514 59.583182 
L 171.934274 59.761129 
L 171.632647 59.052259 
L 171.632647 59.052259 
L 171.481833 59.230206 
L 171.481833 59.583182 
L 171.632647 59.761129 
L 171.934274 59.052259 
L 172.2307 59.052259 
L 172.2307 59.408152 
L 172.079887 59.583182 
L 172.2307 59.583182 
L 172.532327 59.761129 
L 172.532327 59.939075 
L 171.78346 59.052259 
L 171.78346 58.699283 
L 172.079887 58.877229 
L 172.67794 59.583182 
L 172.2307 59.583182 
L 171.934274 59.230206 
L 171.78346 58.877229 
L 172.381514 58.699283 
L 172.079887 59.408152 
L 172.381514 59.939075 
L 172.2307 60.292052 
L 171.78346 60.292052 
L 171.632647 59.939075 
L 171.78346 59.583182 
L 171.934274 59.761129 
L 171.78346 60.114105 
L 171.934274 59.583182 
L 171.934274 59.052259 
L 171.78346 59.230206 
L 171.934274 59.583182 
L 171.934274 60.114105 
L 172.381514 59.583182 
L 172.381514 59.583182 
L 172.381514 60.114105 
L 172.532327 60.645028 
L 172.381514 60.822975 
L 171.934274 61.000921 
L 171.632647 61.353898 
L 171.481833 61.88482 
L 171.78346 61.175951 
L 171.934274 61.175951 
L 171.934274 61.000921 
L 172.079887 60.645028 
L 172.079887 60.292052 
L 171.934274 60.114105 
L 171.78346 60.114105 
L 172.079887 60.114105 
L 172.532327 60.292052 
L 172.67794 60.645028 
L 172.2307 61.175951 
L 171.78346 61.353898 
L 171.78346 61.706874 
L 171.934274 61.531844 
L 171.934274 60.292052 
L 172.079887 60.292052 
L 172.532327 61.175951 
L 172.67794 61.353898 
L 172.532327 61.000921 
L 172.079887 60.292052 
L 172.2307 61.175951 
L 172.2307 61.353898 
L 172.079887 61.353898 
L 172.381514 60.645028 
L 172.381514 61.000921 
L 172.2307 61.000921 
L 172.2307 60.645028 
L 172.381514 60.645028 
L 172.532327 61.353898 
L 172.532327 62.062767 
L 172.67794 62.062767 
L 172.67794 61.531844 
L 172.532327 61.706874 
L 172.381514 61.706874 
L 172.381514 61.531844 
L 172.079887 61.706874 
L 171.934274 62.415743 
L 172.2307 62.946666 
L 172.532327 62.59369 
L 172.2307 61.531844 
L 172.532327 61.531844 
L 172.979567 61.706874 
L 172.67794 61.706874 
L 172.2307 61.706874 
L 172.079887 61.88482 
L 172.2307 62.062767 
L 172.381514 61.88482 
L 172.67794 61.88482 
L 172.979567 61.706874 
L 172.979567 61.353898 
L 172.828754 61.353898 
L 172.828754 61.706874 
L 172.67794 62.062767 
L 172.67794 62.062767 
L 172.67794 61.531844 
L 172.828754 61.175951 
L 172.979567 61.175951 
L 172.979567 61.88482 
L 172.828754 61.706874 
L 172.828754 61.706874 
L 172.828754 62.237797 
L 172.532327 61.88482 
L 172.381514 61.353898 
L 172.532327 61.353898 
L 172.828754 62.237797 
L 172.532327 62.062767 
L 172.67794 62.237797 
L 172.828754 62.062767 
L 172.979567 62.237797 
L 173.275993 62.237797 
L 173.275993 61.531844 
L 173.275993 61.531844 
L 173.728434 61.88482 
L 173.57762 62.062767 
L 173.13038 62.062767 
L 172.828754 61.88482 
L 172.979567 62.062767 
L 173.728434 62.76872 
L 173.57762 62.946666 
L 173.275993 62.76872 
L 173.13038 62.237797 
L 173.275993 62.062767 
L 173.275993 62.415743 
L 173.13038 62.415743 
L 173.275993 62.415743 
L 173.57762 62.59369 
L 173.874047 62.59369 
L 174.02486 62.237797 
L 174.02486 61.531844 
L 173.728434 61.706874 
L 173.426807 62.062767 
L 173.275993 62.415743 
L 173.426807 62.415743 
L 173.426807 62.237797 
L 174.02486 62.946666 
L 173.728434 62.946666 
L 173.426807 62.415743 
L 174.175674 63.124613 
L 173.874047 62.76872 
L 173.874047 62.415743 
L 174.02486 62.237797 
L 174.175674 62.237797 
L 174.92454 63.124613 
L 175.220967 62.946666 
L 174.773727 62.415743 
L 174.326487 61.531844 
L 174.4721 61.706874 
L 174.92454 61.88482 
L 174.773727 62.237797 
L 174.4721 62.59369 
L 174.326487 62.946666 
L 174.4721 63.124613 
L 174.326487 63.299643 
L 174.326487 63.655536 
L 174.326487 62.946666 
L 174.4721 62.946666 
L 174.622913 63.299643 
L 174.773727 63.299643 
L 174.622913 63.299643 
L 174.622913 63.830566 
L 174.4721 64.186459 
L 174.4721 64.186459 
L 174.622913 62.946666 
L 174.326487 63.477589 
L 174.175674 64.361488 
L 173.874047 64.892411 
L 173.728434 64.539435 
L 173.57762 63.830566 
L 173.874047 63.477589 
L 174.326487 64.717382 
L 174.4721 64.539435 
L 174.622913 64.539435 
L 174.773727 64.717382 
L 174.622913 64.539435 
L 174.02486 64.539435 
L 173.728434 64.186459 
L 174.175674 63.655536 
L 174.175674 65.248305 
L 174.326487 65.423334 
L 174.326487 65.248305 
L 174.175674 64.892411 
L 174.175674 64.539435 
L 174.326487 64.008512 
L 174.02486 64.186459 
L 173.728434 64.539435 
L 173.426807 65.070358 
L 173.426807 64.717382 
L 173.728434 64.717382 
L 173.874047 64.892411 
L 173.874047 64.892411 
L 174.02486 64.717382 
L 173.57762 65.779228 
L 173.13038 65.954257 
L 172.828754 65.779228 
L 172.828754 65.423334 
L 173.426807 64.717382 
L 173.426807 64.892411 
L 173.13038 64.361488 
L 173.13038 64.539435 
L 173.275993 64.892411 
L 173.426807 64.539435 
L 173.728434 63.655536 
L 174.02486 64.186459 
L 174.02486 64.717382 
L 173.57762 64.717382 
L 173.13038 64.539435 
L 173.728434 64.717382 
L 174.02486 64.717382 
L 173.874047 64.361488 
L 173.57762 64.008512 
L 173.728434 64.186459 
L 173.728434 64.539435 
L 173.426807 65.070358 
L 173.13038 65.248305 
L 173.13038 65.248305 
L 173.57762 64.361488 
L 173.874047 64.361488 
L 174.02486 64.186459 
L 173.728434 64.008512 
L 173.728434 64.186459 
L 173.874047 64.361488 
L 173.728434 64.361488 
L 173.874047 64.008512 
L 174.326487 63.830566 
L 174.326487 64.008512 
L 173.874047 64.361488 
L 174.02486 64.008512 
L 174.02486 63.477589 
L 173.874047 63.477589 
L 173.728434 63.655536 
L 173.874047 63.830566 
L 174.326487 63.830566 
L 174.4721 64.008512 
L 174.4721 64.717382 
L 174.175674 65.070358 
L 174.02486 64.892411 
L 173.874047 64.361488 
L 174.02486 63.830566 
L 174.326487 63.299643 
L 174.622913 63.299643 
L 174.773727 63.655536 
L 174.175674 65.248305 
L 174.175674 65.070358 
L 174.02486 65.070358 
L 174.02486 64.717382 
L 174.175674 64.361488 
L 174.326487 64.361488 
L 174.4721 64.717382 
L 174.773727 64.892411 
L 174.773727 64.717382 
L 174.4721 64.361488 
L 174.02486 64.361488 
L 174.175674 64.717382 
L 174.773727 65.070358 
L 174.92454 65.248305 
L 174.773727 65.070358 
L 174.622913 64.186459 
L 174.175674 63.830566 
L 174.02486 63.477589 
L 173.874047 63.477589 
L 173.874047 63.655536 
L 174.326487 65.248305 
L 174.326487 65.070358 
L 174.326487 64.717382 
L 174.326487 64.892411 
L 174.175674 65.070358 
L 174.02486 64.717382 
L 173.57762 64.539435 
L 173.13038 64.539435 
L 173.13038 64.717382 
L 173.426807 64.717382 
L 173.426807 64.717382 
" style="fill:none;stroke:#1f77b4;stroke-linecap:square;stroke-width:1.5;"/>
   </g>
   <g id="matplotlib.axis_1">
    <g id="xtick_1">
     <g id="line2d_2">
      <defs>
       <path d="M 0 0 
L 0 3.5 
" id="m722a04bb85" style="stroke:#000000;stroke-width:0.8;"/>
      </defs>
      <g>
       <use style="stroke:#000000;stroke-width:0.8;" x="87.66076" xlink:href="#m722a04bb85" y="307.584"/>
      </g>
     </g>
     <g id="text_1">
      <!-- −300 -->
      <defs>
       <path d="M 10.59375 35.5 
L 73.1875 35.5 
L 73.1875 27.203125 
L 10.59375 27.203125 
z
" id="DejaVuSans-8722"/>
       <path d="M 40.578125 39.3125 
Q 47.65625 37.796875 51.625 33 
Q 55.609375 28.21875 55.609375 21.1875 
Q 55.609375 10.40625 48.1875 4.484375 
Q 40.765625 -1.421875 27.09375 -1.421875 
Q 22.515625 -1.421875 17.65625 -0.515625 
Q 12.796875 0.390625 7.625 2.203125 
L 7.625 11.71875 
Q 11.71875 9.328125 16.59375 8.109375 
Q 21.484375 6.890625 26.8125 6.890625 
Q 36.078125 6.890625 40.9375 10.546875 
Q 45.796875 14.203125 45.796875 21.1875 
Q 45.796875 27.640625 41.28125 31.265625 
Q 36.765625 34.90625 28.71875 34.90625 
L 20.21875 34.90625 
L 20.21875 43.015625 
L 29.109375 43.015625 
Q 36.375 43.015625 40.234375 45.921875 
Q 44.09375 48.828125 44.09375 54.296875 
Q 44.09375 59.90625 40.109375 62.90625 
Q 36.140625 65.921875 28.71875 65.921875 
Q 24.65625 65.921875 20.015625 65.03125 
Q 15.375 64.15625 9.8125 62.3125 
L 9.8125 71.09375 
Q 15.4375 72.65625 20.34375 73.4375 
Q 25.25 74.21875 29.59375 74.21875 
Q 40.828125 74.21875 47.359375 69.109375 
Q 53.90625 64.015625 53.90625 55.328125 
Q 53.90625 49.265625 50.4375 45.09375 
Q 46.96875 40.921875 40.578125 39.3125 
z
" id="DejaVuSans-51"/>
       <path d="M 31.78125 66.40625 
Q 24.171875 66.40625 20.328125 58.90625 
Q 16.5 51.421875 16.5 36.375 
Q 16.5 21.390625 20.328125 13.890625 
Q 24.171875 6.390625 31.78125 6.390625 
Q 39.453125 6.390625 43.28125 13.890625 
Q 47.125 21.390625 47.125 36.375 
Q 47.125 51.421875 43.28125 58.90625 
Q 39.453125 66.40625 31.78125 66.40625 
z
M 31.78125 74.21875 
Q 44.046875 74.21875 50.515625 64.515625 
Q 56.984375 54.828125 56.984375 36.375 
Q 56.984375 17.96875 50.515625 8.265625 
Q 44.046875 -1.421875 31.78125 -1.421875 
Q 19.53125 -1.421875 13.0625 8.265625 
Q 6.59375 17.96875 6.59375 36.375 
Q 6.59375 54.828125 13.0625 64.515625 
Q 19.53125 74.21875 31.78125 74.21875 
z
" id="DejaVuSans-48"/>
      </defs>
      <g transform="translate(73.927166 322.182437)scale(0.1 -0.1)">
       <use xlink:href="#DejaVuSans-8722"/>
       <use x="83.789062" xlink:href="#DejaVuSans-51"/>
       <use x="147.412109" xlink:href="#DejaVuSans-48"/>
       <use x="211.035156" xlink:href="#DejaVuSans-48"/>
      </g>
     </g>
    </g>
    <g id="xtick_2">
     <g id="line2d_3">
      <g>
       <use style="stroke:#000000;stroke-width:0.8;" x="139.665397" xlink:href="#m722a04bb85" y="307.584"/>
      </g>
     </g>
     <g id="text_2">
      <!-- −200 -->
      <defs>
       <path d="M 19.1875 8.296875 
L 53.609375 8.296875 
L 53.609375 0 
L 7.328125 0 
L 7.328125 8.296875 
Q 12.9375 14.109375 22.625 23.890625 
Q 32.328125 33.6875 34.8125 36.53125 
Q 39.546875 41.84375 41.421875 45.53125 
Q 43.3125 49.21875 43.3125 52.78125 
Q 43.3125 58.59375 39.234375 62.25 
Q 35.15625 65.921875 28.609375 65.921875 
Q 23.96875 65.921875 18.8125 64.3125 
Q 13.671875 62.703125 7.8125 59.421875 
L 7.8125 69.390625 
Q 13.765625 71.78125 18.9375 73 
Q 24.125 74.21875 28.421875 74.21875 
Q 39.75 74.21875 46.484375 68.546875 
Q 53.21875 62.890625 53.21875 53.421875 
Q 53.21875 48.921875 51.53125 44.890625 
Q 49.859375 40.875 45.40625 35.40625 
Q 44.1875 33.984375 37.640625 27.21875 
Q 31.109375 20.453125 19.1875 8.296875 
z
" id="DejaVuSans-50"/>
      </defs>
      <g transform="translate(125.931803 322.182437)scale(0.1 -0.1)">
       <use xlink:href="#DejaVuSans-8722"/>
       <use x="83.789062" xlink:href="#DejaVuSans-50"/>
       <use x="147.412109" xlink:href="#DejaVuSans-48"/>
       <use x="211.035156" xlink:href="#DejaVuSans-48"/>
      </g>
     </g>
    </g>
    <g id="xtick_3">
     <g id="line2d_4">
      <g>
       <use style="stroke:#000000;stroke-width:0.8;" x="191.670033" xlink:href="#m722a04bb85" y="307.584"/>
      </g>
     </g>
     <g id="text_3">
      <!-- −100 -->
      <defs>
       <path d="M 12.40625 8.296875 
L 28.515625 8.296875 
L 28.515625 63.921875 
L 10.984375 60.40625 
L 10.984375 69.390625 
L 28.421875 72.90625 
L 38.28125 72.90625 
L 38.28125 8.296875 
L 54.390625 8.296875 
L 54.390625 0 
L 12.40625 0 
z
" id="DejaVuSans-49"/>
      </defs>
      <g transform="translate(177.93644 322.182437)scale(0.1 -0.1)">
       <use xlink:href="#DejaVuSans-8722"/>
       <use x="83.789062" xlink:href="#DejaVuSans-49"/>
       <use x="147.412109" xlink:href="#DejaVuSans-48"/>
       <use x="211.035156" xlink:href="#DejaVuSans-48"/>
      </g>
     </g>
    </g>
    <g id="xtick_4">
     <g id="line2d_5">
      <g>
       <use style="stroke:#000000;stroke-width:0.8;" x="243.67467" xlink:href="#m722a04bb85" y="307.584"/>
      </g>
     </g>
     <g id="text_4">
      <!-- 0 -->
      <g transform="translate(240.49342 322.182437)scale(0.1 -0.1)">
       <use xlink:href="#DejaVuSans-48"/>
      </g>
     </g>
    </g>
    <g id="xtick_5">
     <g id="line2d_6">
      <g>
       <use style="stroke:#000000;stroke-width:0.8;" x="295.679307" xlink:href="#m722a04bb85" y="307.584"/>
      </g>
     </g>
     <g id="text_5">
      <!-- 100 -->
      <g transform="translate(286.135557 322.182437)scale(0.1 -0.1)">
       <use xlink:href="#DejaVuSans-49"/>
       <use x="63.623047" xlink:href="#DejaVuSans-48"/>
       <use x="127.246094" xlink:href="#DejaVuSans-48"/>
      </g>
     </g>
    </g>
    <g id="xtick_6">
     <g id="line2d_7">
      <g>
       <use style="stroke:#000000;stroke-width:0.8;" x="347.683943" xlink:href="#m722a04bb85" y="307.584"/>
      </g>
     </g>
     <g id="text_6">
      <!-- 200 -->
      <g transform="translate(338.140193 322.182437)scale(0.1 -0.1)">
       <use xlink:href="#DejaVuSans-50"/>
       <use x="63.623047" xlink:href="#DejaVuSans-48"/>
       <use x="127.246094" xlink:href="#DejaVuSans-48"/>
      </g>
     </g>
    </g>
    <g id="xtick_7">
     <g id="line2d_8">
      <g>
       <use style="stroke:#000000;stroke-width:0.8;" x="399.68858" xlink:href="#m722a04bb85" y="307.584"/>
      </g>
     </g>
     <g id="text_7">
      <!-- 300 -->
      <g transform="translate(390.14483 322.182437)scale(0.1 -0.1)">
       <use xlink:href="#DejaVuSans-51"/>
       <use x="63.623047" xlink:href="#DejaVuSans-48"/>
       <use x="127.246094" xlink:href="#DejaVuSans-48"/>
      </g>
     </g>
    </g>
   </g>
   <g id="matplotlib.axis_2">
    <g id="ytick_1">
     <g id="line2d_9">
      <defs>
       <path d="M 0 0 
L -3.5 0 
" id="m3febe8847d" style="stroke:#000000;stroke-width:0.8;"/>
      </defs>
      <g>
       <use style="stroke:#000000;stroke-width:0.8;" x="57.6" xlink:href="#m3febe8847d" y="259.294808"/>
      </g>
     </g>
     <g id="text_8">
      <!-- −200 -->
      <g transform="translate(23.132812 263.094026)scale(0.1 -0.1)">
       <use xlink:href="#DejaVuSans-8722"/>
       <use x="83.789062" xlink:href="#DejaVuSans-50"/>
       <use x="147.412109" xlink:href="#DejaVuSans-48"/>
       <use x="211.035156" xlink:href="#DejaVuSans-48"/>
      </g>
     </g>
    </g>
    <g id="ytick_2">
     <g id="line2d_10">
      <g>
       <use style="stroke:#000000;stroke-width:0.8;" x="57.6" xlink:href="#m3febe8847d" y="200.951627"/>
      </g>
     </g>
     <g id="text_9">
      <!-- 0 -->
      <g transform="translate(44.2375 204.750845)scale(0.1 -0.1)">
       <use xlink:href="#DejaVuSans-48"/>
      </g>
     </g>
    </g>
    <g id="ytick_3">
     <g id="line2d_11">
      <g>
       <use style="stroke:#000000;stroke-width:0.8;" x="57.6" xlink:href="#m3febe8847d" y="142.608446"/>
      </g>
     </g>
     <g id="text_10">
      <!-- 200 -->
      <g transform="translate(31.5125 146.407664)scale(0.1 -0.1)">
       <use xlink:href="#DejaVuSans-50"/>
       <use x="63.623047" xlink:href="#DejaVuSans-48"/>
       <use x="127.246094" xlink:href="#DejaVuSans-48"/>
      </g>
     </g>
    </g>
    <g id="ytick_4">
     <g id="line2d_12">
      <g>
       <use style="stroke:#000000;stroke-width:0.8;" x="57.6" xlink:href="#m3febe8847d" y="84.265265"/>
      </g>
     </g>
     <g id="text_11">
      <!-- 400 -->
      <defs>
       <path d="M 37.796875 64.3125 
L 12.890625 25.390625 
L 37.796875 25.390625 
z
M 35.203125 72.90625 
L 47.609375 72.90625 
L 47.609375 25.390625 
L 58.015625 25.390625 
L 58.015625 17.1875 
L 47.609375 17.1875 
L 47.609375 0 
L 37.796875 0 
L 37.796875 17.1875 
L 4.890625 17.1875 
L 4.890625 26.703125 
z
" id="DejaVuSans-52"/>
      </defs>
      <g transform="translate(31.5125 88.064483)scale(0.1 -0.1)">
       <use xlink:href="#DejaVuSans-52"/>
       <use x="63.623047" xlink:href="#DejaVuSans-48"/>
       <use x="127.246094" xlink:href="#DejaVuSans-48"/>
      </g>
     </g>
    </g>
   </g>
   <g id="line2d_13">
    <path clip-path="url(#p9cb99503a0)" d="M 289.207321 204.622709 
L 139.585052 265.225867 
L 375.125508 292.634438 
L 391.594104 292.622915 
L 76.935573 257.446294 
L 173.387704 61.890407 
" style="fill:none;stroke:#ff0000;stroke-linecap:square;stroke-width:0.5;"/>
   </g>
   <g id="patch_3">
    <path d="M 57.6 307.584 
L 57.6 41.472 
" style="fill:none;stroke:#000000;stroke-linecap:square;stroke-linejoin:miter;stroke-width:0.8;"/>
   </g>
   <g id="patch_4">
    <path d="M 414.72 307.584 
L 414.72 41.472 
" style="fill:none;stroke:#000000;stroke-linecap:square;stroke-linejoin:miter;stroke-width:0.8;"/>
   </g>
   <g id="patch_5">
    <path d="M 57.6 307.584 
L 414.72 307.584 
" style="fill:none;stroke:#000000;stroke-linecap:square;stroke-linejoin:miter;stroke-width:0.8;"/>
   </g>
   <g id="patch_6">
    <path d="M 57.6 41.472 
L 414.72 41.472 
" style="fill:none;stroke:#000000;stroke-linecap:square;stroke-linejoin:miter;stroke-width:0.8;"/>
   </g>
   <g id="PathCollection_1">
    <defs>
     <path d="M 0 2.738613 
C 0.726289 2.738613 1.422928 2.450055 1.936492 1.936492 
C 2.450055 1.422928 2.738613 0.726289 2.738613 0 
C 2.738613 -0.726289 2.450055 -1.422928 1.936492 -1.936492 
C 1.422928 -2.450055 0.726289 -2.738613 0 -2.738613 
C -0.726289 -2.738613 -1.422928 -2.450055 -1.936492 -1.936492 
C -2.450055 -1.422928 -2.738613 -0.726289 -2.738613 0 
C -2.738613 0.726289 -2.450055 1.422928 -1.936492 1.936492 
C -1.422928 2.450055 -0.726289 2.738613 0 2.738613 
z
" id="m170fd974e1" style="stroke:#ff0000;"/>
    </defs>
    <g clip-path="url(#p9cb99503a0)">
     <use style="fill:#ff0000;stroke:#ff0000;" x="289.207321" xlink:href="#m170fd974e1" y="204.622709"/>
     <use style="fill:#ff0000;stroke:#ff0000;" x="139.585052" xlink:href="#m170fd974e1" y="265.225867"/>
     <use style="fill:#ff0000;stroke:#ff0000;" x="375.125508" xlink:href="#m170fd974e1" y="292.634438"/>
     <use style="fill:#ff0000;stroke:#ff0000;" x="391.594104" xlink:href="#m170fd974e1" y="292.622915"/>
     <use style="fill:#ff0000;stroke:#ff0000;" x="76.935573" xlink:href="#m170fd974e1" y="257.446294"/>
     <use style="fill:#ff0000;stroke:#ff0000;" x="173.387704" xlink:href="#m170fd974e1" y="61.890407"/>
    </g>
   </g>
   <g id="text_12">
    <!-- (72) Subject: s17, Known = False, Degree = 1, Duration = 0.1 -->
    <defs>
     <path d="M 31 75.875 
Q 24.46875 64.65625 21.28125 53.65625 
Q 18.109375 42.671875 18.109375 31.390625 
Q 18.109375 20.125 21.3125 9.0625 
Q 24.515625 -2 31 -13.1875 
L 23.1875 -13.1875 
Q 15.875 -1.703125 12.234375 9.375 
Q 8.59375 20.453125 8.59375 31.390625 
Q 8.59375 42.28125 12.203125 53.3125 
Q 15.828125 64.359375 23.1875 75.875 
z
" id="DejaVuSans-40"/>
     <path d="M 8.203125 72.90625 
L 55.078125 72.90625 
L 55.078125 68.703125 
L 28.609375 0 
L 18.3125 0 
L 43.21875 64.59375 
L 8.203125 64.59375 
z
" id="DejaVuSans-55"/>
     <path d="M 8.015625 75.875 
L 15.828125 75.875 
Q 23.140625 64.359375 26.78125 53.3125 
Q 30.421875 42.28125 30.421875 31.390625 
Q 30.421875 20.453125 26.78125 9.375 
Q 23.140625 -1.703125 15.828125 -13.1875 
L 8.015625 -13.1875 
Q 14.5 -2 17.703125 9.0625 
Q 20.90625 20.125 20.90625 31.390625 
Q 20.90625 42.671875 17.703125 53.65625 
Q 14.5 64.65625 8.015625 75.875 
z
" id="DejaVuSans-41"/>
     <path id="DejaVuSans-32"/>
     <path d="M 53.515625 70.515625 
L 53.515625 60.890625 
Q 47.90625 63.578125 42.921875 64.890625 
Q 37.9375 66.21875 33.296875 66.21875 
Q 25.25 66.21875 20.875 63.09375 
Q 16.5 59.96875 16.5 54.203125 
Q 16.5 49.359375 19.40625 46.890625 
Q 22.3125 44.4375 30.421875 42.921875 
L 36.375 41.703125 
Q 47.40625 39.59375 52.65625 34.296875 
Q 57.90625 29 57.90625 20.125 
Q 57.90625 9.515625 50.796875 4.046875 
Q 43.703125 -1.421875 29.984375 -1.421875 
Q 24.8125 -1.421875 18.96875 -0.25 
Q 13.140625 0.921875 6.890625 3.21875 
L 6.890625 13.375 
Q 12.890625 10.015625 18.65625 8.296875 
Q 24.421875 6.59375 29.984375 6.59375 
Q 38.421875 6.59375 43.015625 9.90625 
Q 47.609375 13.234375 47.609375 19.390625 
Q 47.609375 24.75 44.3125 27.78125 
Q 41.015625 30.8125 33.5 32.328125 
L 27.484375 33.5 
Q 16.453125 35.6875 11.515625 40.375 
Q 6.59375 45.0625 6.59375 53.421875 
Q 6.59375 63.09375 13.40625 68.65625 
Q 20.21875 74.21875 32.171875 74.21875 
Q 37.3125 74.21875 42.625 73.28125 
Q 47.953125 72.359375 53.515625 70.515625 
z
" id="DejaVuSans-83"/>
     <path d="M 8.5 21.578125 
L 8.5 54.6875 
L 17.484375 54.6875 
L 17.484375 21.921875 
Q 17.484375 14.15625 20.5 10.265625 
Q 23.53125 6.390625 29.59375 6.390625 
Q 36.859375 6.390625 41.078125 11.03125 
Q 45.3125 15.671875 45.3125 23.6875 
L 45.3125 54.6875 
L 54.296875 54.6875 
L 54.296875 0 
L 45.3125 0 
L 45.3125 8.40625 
Q 42.046875 3.421875 37.71875 1 
Q 33.40625 -1.421875 27.6875 -1.421875 
Q 18.265625 -1.421875 13.375 4.4375 
Q 8.5 10.296875 8.5 21.578125 
z
M 31.109375 56 
z
" id="DejaVuSans-117"/>
     <path d="M 48.6875 27.296875 
Q 48.6875 37.203125 44.609375 42.84375 
Q 40.53125 48.484375 33.40625 48.484375 
Q 26.265625 48.484375 22.1875 42.84375 
Q 18.109375 37.203125 18.109375 27.296875 
Q 18.109375 17.390625 22.1875 11.75 
Q 26.265625 6.109375 33.40625 6.109375 
Q 40.53125 6.109375 44.609375 11.75 
Q 48.6875 17.390625 48.6875 27.296875 
z
M 18.109375 46.390625 
Q 20.953125 51.265625 25.265625 53.625 
Q 29.59375 56 35.59375 56 
Q 45.5625 56 51.78125 48.09375 
Q 58.015625 40.1875 58.015625 27.296875 
Q 58.015625 14.40625 51.78125 6.484375 
Q 45.5625 -1.421875 35.59375 -1.421875 
Q 29.59375 -1.421875 25.265625 0.953125 
Q 20.953125 3.328125 18.109375 8.203125 
L 18.109375 0 
L 9.078125 0 
L 9.078125 75.984375 
L 18.109375 75.984375 
z
" id="DejaVuSans-98"/>
     <path d="M 9.421875 54.6875 
L 18.40625 54.6875 
L 18.40625 -0.984375 
Q 18.40625 -11.421875 14.421875 -16.109375 
Q 10.453125 -20.796875 1.609375 -20.796875 
L -1.8125 -20.796875 
L -1.8125 -13.1875 
L 0.59375 -13.1875 
Q 5.71875 -13.1875 7.5625 -10.8125 
Q 9.421875 -8.453125 9.421875 -0.984375 
z
M 9.421875 75.984375 
L 18.40625 75.984375 
L 18.40625 64.59375 
L 9.421875 64.59375 
z
" id="DejaVuSans-106"/>
     <path d="M 56.203125 29.59375 
L 56.203125 25.203125 
L 14.890625 25.203125 
Q 15.484375 15.921875 20.484375 11.0625 
Q 25.484375 6.203125 34.421875 6.203125 
Q 39.59375 6.203125 44.453125 7.46875 
Q 49.3125 8.734375 54.109375 11.28125 
L 54.109375 2.78125 
Q 49.265625 0.734375 44.1875 -0.34375 
Q 39.109375 -1.421875 33.890625 -1.421875 
Q 20.796875 -1.421875 13.15625 6.1875 
Q 5.515625 13.8125 5.515625 26.8125 
Q 5.515625 40.234375 12.765625 48.109375 
Q 20.015625 56 32.328125 56 
Q 43.359375 56 49.78125 48.890625 
Q 56.203125 41.796875 56.203125 29.59375 
z
M 47.21875 32.234375 
Q 47.125 39.59375 43.09375 43.984375 
Q 39.0625 48.390625 32.421875 48.390625 
Q 24.90625 48.390625 20.390625 44.140625 
Q 15.875 39.890625 15.1875 32.171875 
z
" id="DejaVuSans-101"/>
     <path d="M 48.78125 52.59375 
L 48.78125 44.1875 
Q 44.96875 46.296875 41.140625 47.34375 
Q 37.3125 48.390625 33.40625 48.390625 
Q 24.65625 48.390625 19.8125 42.84375 
Q 14.984375 37.3125 14.984375 27.296875 
Q 14.984375 17.28125 19.8125 11.734375 
Q 24.65625 6.203125 33.40625 6.203125 
Q 37.3125 6.203125 41.140625 7.25 
Q 44.96875 8.296875 48.78125 10.40625 
L 48.78125 2.09375 
Q 45.015625 0.34375 40.984375 -0.53125 
Q 36.96875 -1.421875 32.421875 -1.421875 
Q 20.0625 -1.421875 12.78125 6.34375 
Q 5.515625 14.109375 5.515625 27.296875 
Q 5.515625 40.671875 12.859375 48.328125 
Q 20.21875 56 33.015625 56 
Q 37.15625 56 41.109375 55.140625 
Q 45.0625 54.296875 48.78125 52.59375 
z
" id="DejaVuSans-99"/>
     <path d="M 18.3125 70.21875 
L 18.3125 54.6875 
L 36.8125 54.6875 
L 36.8125 47.703125 
L 18.3125 47.703125 
L 18.3125 18.015625 
Q 18.3125 11.328125 20.140625 9.421875 
Q 21.96875 7.515625 27.59375 7.515625 
L 36.8125 7.515625 
L 36.8125 0 
L 27.59375 0 
Q 17.1875 0 13.234375 3.875 
Q 9.28125 7.765625 9.28125 18.015625 
L 9.28125 47.703125 
L 2.6875 47.703125 
L 2.6875 54.6875 
L 9.28125 54.6875 
L 9.28125 70.21875 
z
" id="DejaVuSans-116"/>
     <path d="M 11.71875 12.40625 
L 22.015625 12.40625 
L 22.015625 0 
L 11.71875 0 
z
M 11.71875 51.703125 
L 22.015625 51.703125 
L 22.015625 39.3125 
L 11.71875 39.3125 
z
" id="DejaVuSans-58"/>
     <path d="M 44.28125 53.078125 
L 44.28125 44.578125 
Q 40.484375 46.53125 36.375 47.5 
Q 32.28125 48.484375 27.875 48.484375 
Q 21.1875 48.484375 17.84375 46.4375 
Q 14.5 44.390625 14.5 40.28125 
Q 14.5 37.15625 16.890625 35.375 
Q 19.28125 33.59375 26.515625 31.984375 
L 29.59375 31.296875 
Q 39.15625 29.25 43.1875 25.515625 
Q 47.21875 21.78125 47.21875 15.09375 
Q 47.21875 7.46875 41.1875 3.015625 
Q 35.15625 -1.421875 24.609375 -1.421875 
Q 20.21875 -1.421875 15.453125 -0.5625 
Q 10.6875 0.296875 5.421875 2 
L 5.421875 11.28125 
Q 10.40625 8.6875 15.234375 7.390625 
Q 20.0625 6.109375 24.8125 6.109375 
Q 31.15625 6.109375 34.5625 8.28125 
Q 37.984375 10.453125 37.984375 14.40625 
Q 37.984375 18.0625 35.515625 20.015625 
Q 33.0625 21.96875 24.703125 23.78125 
L 21.578125 24.515625 
Q 13.234375 26.265625 9.515625 29.90625 
Q 5.8125 33.546875 5.8125 39.890625 
Q 5.8125 47.609375 11.28125 51.796875 
Q 16.75 56 26.8125 56 
Q 31.78125 56 36.171875 55.265625 
Q 40.578125 54.546875 44.28125 53.078125 
z
" id="DejaVuSans-115"/>
     <path d="M 11.71875 12.40625 
L 22.015625 12.40625 
L 22.015625 4 
L 14.015625 -11.625 
L 7.71875 -11.625 
L 11.71875 4 
z
" id="DejaVuSans-44"/>
     <path d="M 9.8125 72.90625 
L 19.671875 72.90625 
L 19.671875 42.09375 
L 52.390625 72.90625 
L 65.09375 72.90625 
L 28.90625 38.921875 
L 67.671875 0 
L 54.6875 0 
L 19.671875 35.109375 
L 19.671875 0 
L 9.8125 0 
z
" id="DejaVuSans-75"/>
     <path d="M 54.890625 33.015625 
L 54.890625 0 
L 45.90625 0 
L 45.90625 32.71875 
Q 45.90625 40.484375 42.875 44.328125 
Q 39.84375 48.1875 33.796875 48.1875 
Q 26.515625 48.1875 22.3125 43.546875 
Q 18.109375 38.921875 18.109375 30.90625 
L 18.109375 0 
L 9.078125 0 
L 9.078125 54.6875 
L 18.109375 54.6875 
L 18.109375 46.1875 
Q 21.34375 51.125 25.703125 53.5625 
Q 30.078125 56 35.796875 56 
Q 45.21875 56 50.046875 50.171875 
Q 54.890625 44.34375 54.890625 33.015625 
z
" id="DejaVuSans-110"/>
     <path d="M 30.609375 48.390625 
Q 23.390625 48.390625 19.1875 42.75 
Q 14.984375 37.109375 14.984375 27.296875 
Q 14.984375 17.484375 19.15625 11.84375 
Q 23.34375 6.203125 30.609375 6.203125 
Q 37.796875 6.203125 41.984375 11.859375 
Q 46.1875 17.53125 46.1875 27.296875 
Q 46.1875 37.015625 41.984375 42.703125 
Q 37.796875 48.390625 30.609375 48.390625 
z
M 30.609375 56 
Q 42.328125 56 49.015625 48.375 
Q 55.71875 40.765625 55.71875 27.296875 
Q 55.71875 13.875 49.015625 6.21875 
Q 42.328125 -1.421875 30.609375 -1.421875 
Q 18.84375 -1.421875 12.171875 6.21875 
Q 5.515625 13.875 5.515625 27.296875 
Q 5.515625 40.765625 12.171875 48.375 
Q 18.84375 56 30.609375 56 
z
" id="DejaVuSans-111"/>
     <path d="M 4.203125 54.6875 
L 13.1875 54.6875 
L 24.421875 12.015625 
L 35.59375 54.6875 
L 46.1875 54.6875 
L 57.421875 12.015625 
L 68.609375 54.6875 
L 77.59375 54.6875 
L 63.28125 0 
L 52.6875 0 
L 40.921875 44.828125 
L 29.109375 0 
L 18.5 0 
z
" id="DejaVuSans-119"/>
     <path d="M 10.59375 45.40625 
L 73.1875 45.40625 
L 73.1875 37.203125 
L 10.59375 37.203125 
z
M 10.59375 25.484375 
L 73.1875 25.484375 
L 73.1875 17.1875 
L 10.59375 17.1875 
z
" id="DejaVuSans-61"/>
     <path d="M 9.8125 72.90625 
L 51.703125 72.90625 
L 51.703125 64.59375 
L 19.671875 64.59375 
L 19.671875 43.109375 
L 48.578125 43.109375 
L 48.578125 34.8125 
L 19.671875 34.8125 
L 19.671875 0 
L 9.8125 0 
z
" id="DejaVuSans-70"/>
     <path d="M 34.28125 27.484375 
Q 23.390625 27.484375 19.1875 25 
Q 14.984375 22.515625 14.984375 16.5 
Q 14.984375 11.71875 18.140625 8.90625 
Q 21.296875 6.109375 26.703125 6.109375 
Q 34.1875 6.109375 38.703125 11.40625 
Q 43.21875 16.703125 43.21875 25.484375 
L 43.21875 27.484375 
z
M 52.203125 31.203125 
L 52.203125 0 
L 43.21875 0 
L 43.21875 8.296875 
Q 40.140625 3.328125 35.546875 0.953125 
Q 30.953125 -1.421875 24.3125 -1.421875 
Q 15.921875 -1.421875 10.953125 3.296875 
Q 6 8.015625 6 15.921875 
Q 6 25.140625 12.171875 29.828125 
Q 18.359375 34.515625 30.609375 34.515625 
L 43.21875 34.515625 
L 43.21875 35.40625 
Q 43.21875 41.609375 39.140625 45 
Q 35.0625 48.390625 27.6875 48.390625 
Q 23 48.390625 18.546875 47.265625 
Q 14.109375 46.140625 10.015625 43.890625 
L 10.015625 52.203125 
Q 14.9375 54.109375 19.578125 55.046875 
Q 24.21875 56 28.609375 56 
Q 40.484375 56 46.34375 49.84375 
Q 52.203125 43.703125 52.203125 31.203125 
z
" id="DejaVuSans-97"/>
     <path d="M 9.421875 75.984375 
L 18.40625 75.984375 
L 18.40625 0 
L 9.421875 0 
z
" id="DejaVuSans-108"/>
     <path d="M 19.671875 64.796875 
L 19.671875 8.109375 
L 31.59375 8.109375 
Q 46.6875 8.109375 53.6875 14.9375 
Q 60.6875 21.78125 60.6875 36.53125 
Q 60.6875 51.171875 53.6875 57.984375 
Q 46.6875 64.796875 31.59375 64.796875 
z
M 9.8125 72.90625 
L 30.078125 72.90625 
Q 51.265625 72.90625 61.171875 64.09375 
Q 71.09375 55.28125 71.09375 36.53125 
Q 71.09375 17.671875 61.125 8.828125 
Q 51.171875 0 30.078125 0 
L 9.8125 0 
z
" id="DejaVuSans-68"/>
     <path d="M 45.40625 27.984375 
Q 45.40625 37.75 41.375 43.109375 
Q 37.359375 48.484375 30.078125 48.484375 
Q 22.859375 48.484375 18.828125 43.109375 
Q 14.796875 37.75 14.796875 27.984375 
Q 14.796875 18.265625 18.828125 12.890625 
Q 22.859375 7.515625 30.078125 7.515625 
Q 37.359375 7.515625 41.375 12.890625 
Q 45.40625 18.265625 45.40625 27.984375 
z
M 54.390625 6.78125 
Q 54.390625 -7.171875 48.1875 -13.984375 
Q 42 -20.796875 29.203125 -20.796875 
Q 24.46875 -20.796875 20.265625 -20.09375 
Q 16.0625 -19.390625 12.109375 -17.921875 
L 12.109375 -9.1875 
Q 16.0625 -11.328125 19.921875 -12.34375 
Q 23.78125 -13.375 27.78125 -13.375 
Q 36.625 -13.375 41.015625 -8.765625 
Q 45.40625 -4.15625 45.40625 5.171875 
L 45.40625 9.625 
Q 42.625 4.78125 38.28125 2.390625 
Q 33.9375 0 27.875 0 
Q 17.828125 0 11.671875 7.65625 
Q 5.515625 15.328125 5.515625 27.984375 
Q 5.515625 40.671875 11.671875 48.328125 
Q 17.828125 56 27.875 56 
Q 33.9375 56 38.28125 53.609375 
Q 42.625 51.21875 45.40625 46.390625 
L 45.40625 54.6875 
L 54.390625 54.6875 
z
" id="DejaVuSans-103"/>
     <path d="M 41.109375 46.296875 
Q 39.59375 47.171875 37.8125 47.578125 
Q 36.03125 48 33.890625 48 
Q 26.265625 48 22.1875 43.046875 
Q 18.109375 38.09375 18.109375 28.8125 
L 18.109375 0 
L 9.078125 0 
L 9.078125 54.6875 
L 18.109375 54.6875 
L 18.109375 46.1875 
Q 20.953125 51.171875 25.484375 53.578125 
Q 30.03125 56 36.53125 56 
Q 37.453125 56 38.578125 55.875 
Q 39.703125 55.765625 41.0625 55.515625 
z
" id="DejaVuSans-114"/>
     <path d="M 9.421875 54.6875 
L 18.40625 54.6875 
L 18.40625 0 
L 9.421875 0 
z
M 9.421875 75.984375 
L 18.40625 75.984375 
L 18.40625 64.59375 
L 9.421875 64.59375 
z
" id="DejaVuSans-105"/>
     <path d="M 10.6875 12.40625 
L 21 12.40625 
L 21 0 
L 10.6875 0 
z
" id="DejaVuSans-46"/>
    </defs>
    <g transform="translate(49.741875 35.472)scale(0.12 -0.12)">
     <use xlink:href="#DejaVuSans-40"/>
     <use x="39.013672" xlink:href="#DejaVuSans-55"/>
     <use x="102.636719" xlink:href="#DejaVuSans-50"/>
     <use x="166.259766" xlink:href="#DejaVuSans-41"/>
     <use x="205.273438" xlink:href="#DejaVuSans-32"/>
     <use x="237.060547" xlink:href="#DejaVuSans-83"/>
     <use x="300.537109" xlink:href="#DejaVuSans-117"/>
     <use x="363.916016" xlink:href="#DejaVuSans-98"/>
     <use x="427.392578" xlink:href="#DejaVuSans-106"/>
     <use x="455.175781" xlink:href="#DejaVuSans-101"/>
     <use x="516.699219" xlink:href="#DejaVuSans-99"/>
     <use x="571.679688" xlink:href="#DejaVuSans-116"/>
     <use x="610.888672" xlink:href="#DejaVuSans-58"/>
     <use x="644.580078" xlink:href="#DejaVuSans-32"/>
     <use x="676.367188" xlink:href="#DejaVuSans-115"/>
     <use x="728.466797" xlink:href="#DejaVuSans-49"/>
     <use x="792.089844" xlink:href="#DejaVuSans-55"/>
     <use x="855.712891" xlink:href="#DejaVuSans-44"/>
     <use x="887.5" xlink:href="#DejaVuSans-32"/>
     <use x="919.287109" xlink:href="#DejaVuSans-75"/>
     <use x="984.863281" xlink:href="#DejaVuSans-110"/>
     <use x="1048.242188" xlink:href="#DejaVuSans-111"/>
     <use x="1109.423828" xlink:href="#DejaVuSans-119"/>
     <use x="1191.210938" xlink:href="#DejaVuSans-110"/>
     <use x="1254.589844" xlink:href="#DejaVuSans-32"/>
     <use x="1286.376953" xlink:href="#DejaVuSans-61"/>
     <use x="1370.166016" xlink:href="#DejaVuSans-32"/>
     <use x="1401.953125" xlink:href="#DejaVuSans-70"/>
     <use x="1459.332031" xlink:href="#DejaVuSans-97"/>
     <use x="1520.611328" xlink:href="#DejaVuSans-108"/>
     <use x="1548.394531" xlink:href="#DejaVuSans-115"/>
     <use x="1600.494141" xlink:href="#DejaVuSans-101"/>
     <use x="1662.017578" xlink:href="#DejaVuSans-44"/>
     <use x="1693.804688" xlink:href="#DejaVuSans-32"/>
     <use x="1725.591797" xlink:href="#DejaVuSans-68"/>
     <use x="1802.59375" xlink:href="#DejaVuSans-101"/>
     <use x="1864.117188" xlink:href="#DejaVuSans-103"/>
     <use x="1927.59375" xlink:href="#DejaVuSans-114"/>
     <use x="1968.675781" xlink:href="#DejaVuSans-101"/>
     <use x="2030.199219" xlink:href="#DejaVuSans-101"/>
     <use x="2091.722656" xlink:href="#DejaVuSans-32"/>
     <use x="2123.509766" xlink:href="#DejaVuSans-61"/>
     <use x="2207.298828" xlink:href="#DejaVuSans-32"/>
     <use x="2239.085938" xlink:href="#DejaVuSans-49"/>
     <use x="2302.708984" xlink:href="#DejaVuSans-44"/>
     <use x="2334.496094" xlink:href="#DejaVuSans-32"/>
     <use x="2366.283203" xlink:href="#DejaVuSans-68"/>
     <use x="2443.285156" xlink:href="#DejaVuSans-117"/>
     <use x="2506.664062" xlink:href="#DejaVuSans-114"/>
     <use x="2547.777344" xlink:href="#DejaVuSans-97"/>
     <use x="2609.056641" xlink:href="#DejaVuSans-116"/>
     <use x="2648.265625" xlink:href="#DejaVuSans-105"/>
     <use x="2676.048828" xlink:href="#DejaVuSans-111"/>
     <use x="2737.230469" xlink:href="#DejaVuSans-110"/>
     <use x="2800.609375" xlink:href="#DejaVuSans-32"/>
     <use x="2832.396484" xlink:href="#DejaVuSans-61"/>
     <use x="2916.185547" xlink:href="#DejaVuSans-32"/>
     <use x="2947.972656" xlink:href="#DejaVuSans-48"/>
     <use x="3011.595703" xlink:href="#DejaVuSans-46"/>
     <use x="3043.382812" xlink:href="#DejaVuSans-49"/>
    </g>
   </g>
  </g>
 </g>
 <defs>
  <clipPath id="p9cb99503a0">
   <rect height="266.112" width="357.12" x="57.6" y="41.472"/>
  </clipPath>
 </defs>
</svg>
