<?xml version="1.0" encoding="utf-8" standalone="no"?>
<!DOCTYPE svg PUBLIC "-//W3C//DTD SVG 1.1//EN"
  "http://www.w3.org/Graphics/SVG/1.1/DTD/svg11.dtd">
<!-- Created with matplotlib (https://matplotlib.org/) -->
<svg height="345.6pt" version="1.1" viewBox="0 0 460.8 345.6" width="460.8pt" xmlns="http://www.w3.org/2000/svg" xmlns:xlink="http://www.w3.org/1999/xlink">
 <defs>
  <style type="text/css">
*{stroke-linecap:butt;stroke-linejoin:round;}
  </style>
 </defs>
 <g id="figure_1">
  <g id="patch_1">
   <path d="M 0 345.6 
L 460.8 345.6 
L 460.8 0 
L 0 0 
z
" style="fill:#ffffff;"/>
  </g>
  <g id="axes_1">
   <g id="patch_2">
    <path d="M 57.6 307.584 
L 414.72 307.584 
L 414.72 41.472 
L 57.6 41.472 
z
" style="fill:#ffffff;"/>
   </g>
   <g id="line2d_1">
    <path clip-path="url(#p7fc6675565)" d="M 268.969104 250.595765 
L 269.402196 250.704145 
L 269.402196 250.649955 
L 268.969104 250.974517 
L 269.115037 250.920327 
L 269.402196 250.811948 
L 269.830581 250.974517 
L 269.830581 250.974517 
L 284.04731 251.191276 
L 284.908788 250.866137 
L 284.33447 251.191276 
L 284.621629 251.191276 
L 284.475695 251.137086 
L 284.908788 251.082897 
L 284.908788 251.191276 
L 284.908788 251.137086 
L 285.050014 250.974517 
L 285.050014 251.028707 
L 285.483106 251.353269 
L 285.770265 251.407459 
L 286.19865 251.191276 
L 285.624332 251.461649 
L 285.483106 251.678408 
L 285.624332 251.678408 
L 286.057424 251.353269 
L 285.195947 251.137086 
L 285.337173 251.191276 
L 285.337173 251.245466 
L 285.483106 251.353269 
L 286.485809 251.515839 
L 286.772968 251.299079 
L 286.344583 251.407459 
L 286.485809 251.570028 
L 286.772968 251.678408 
L 286.631742 251.732598 
L 286.344583 251.840401 
L 286.344583 251.94878 
L 287.780379 251.894591 
L 287.49322 251.840401 
L 286.485809 251.786211 
L 287.347286 251.786211 
L 287.347286 251.678408 
L 287.206061 251.570028 
L 287.206061 251.624218 
L 287.206061 252.219729 
L 287.206061 252.219729 
L 287.49322 252.00297 
L 287.347286 252.00297 
L 288.208764 251.94878 
L 287.921605 252.05716 
L 287.780379 252.273919 
L 288.783082 252.273919 
L 288.354697 252.381722 
L 287.49322 252.598482 
L 287.780379 252.652671 
L 288.929015 252.544292 
L 288.929015 252.435912 
L 288.783082 252.327533 
L 288.783082 252.381722 
L 288.783082 252.598482 
L 288.354697 252.761051 
L 288.354697 252.598482 
L 288.495923 252.544292 
L 287.921605 252.490102 
L 288.208764 252.435912 
L 287.921605 252.435912 
L 287.634445 252.381722 
L 287.780379 252.327533 
L 288.067538 252.273919 
L 287.206061 252.381722 
L 287.347286 252.435912 
L 287.347286 252.544292 
L 287.206061 252.598482 
L 287.780379 252.490102 
L 288.067538 252.435912 
L 287.780379 253.031423 
L 287.921605 252.923044 
L 287.780379 252.814664 
L 287.060127 252.761051 
L 287.060127 252.814664 
L 287.634445 253.085613 
L 287.780379 253.031423 
L 287.49322 253.031423 
L 287.206061 252.868854 
L 287.347286 252.761051 
L 287.921605 252.814664 
L 287.49322 252.652671 
L 287.634445 252.544292 
L 287.921605 252.652671 
L 287.780379 252.923044 
L 287.206061 253.193993 
L 287.206061 253.085613 
L 286.918901 252.814664 
L 286.918901 252.923044 
L 286.631742 252.923044 
L 286.772968 252.761051 
L 286.19865 252.868854 
L 286.344583 252.923044 
L 286.344583 253.031423 
L 286.057424 253.301796 
L 286.19865 253.193993 
L 286.485809 253.085613 
L 286.344583 253.031423 
L 286.057424 252.977234 
L 286.485809 252.977234 
L 286.344583 253.085613 
L 286.485809 253.301796 
L 286.772968 253.410176 
L 286.918901 253.248183 
L 286.772968 253.085613 
L 285.770265 252.814664 
L 286.057424 252.923044 
L 286.057424 253.139803 
L 285.911491 253.139803 
L 285.911491 253.085613 
L 286.19865 252.868854 
L 285.911491 252.923044 
L 285.483106 253.031423 
L 285.624332 253.085613 
L 285.483106 253.248183 
L 285.483106 253.193993 
L 285.337173 253.085613 
L 285.624332 252.923044 
L 285.483106 252.814664 
L 286.057424 253.193993 
L 285.770265 253.355986 
L 285.911491 253.301796 
L 285.911491 253.139803 
L 285.770265 253.031423 
L 285.624332 253.193993 
L 286.344583 253.355986 
L 287.206061 253.518555 
L 287.206061 253.355986 
L 287.060127 253.139803 
L 286.631742 253.085613 
L 286.057424 253.301796 
L 286.057424 253.410176 
L 286.19865 253.518555 
L 286.772968 253.301796 
L 286.631742 253.301796 
L 286.344583 253.301796 
L 285.624332 253.355986 
L 285.911491 253.464365 
L 286.19865 253.681125 
L 286.631742 253.626935 
L 285.770265 253.735314 
L 286.631742 253.789504 
L 286.631742 253.951497 
L 286.485809 253.897307 
L 287.780379 253.897307 
L 288.208764 253.626935 
L 287.634445 253.843117 
L 287.347286 253.897307 
L 287.347286 253.735314 
L 287.780379 253.626935 
L 287.780379 253.735314 
L 287.921605 253.572745 
L 287.49322 253.735314 
L 286.772968 253.735314 
L 287.921605 253.626935 
L 287.921605 253.518555 
L 287.634445 253.301796 
L 286.918901 253.193993 
L 287.060127 253.193993 
L 287.49322 253.085613 
L 287.634445 252.868854 
L 287.634445 253.031423 
L 287.921605 252.977234 
L 288.208764 252.598482 
L 287.780379 252.381722 
L 287.921605 252.327533 
L 288.208764 252.381722 
L 288.208764 252.381722 
L 289.644559 252.16554 
L 290.793195 251.840401 
L 293.664786 251.515839 
L 297.115403 251.407459 
L 299.125517 251.515839 
L 307.020038 251.570028 
L 311.040266 252.00297 
L 320.949608 252.598482 
L 328.990063 253.355986 
L 331.287336 253.518555 
L 335.307563 254.330249 
L 339.186565 255.14252 
L 343.635177 255.845834 
L 348.088497 256.062593 
L 349.0912 256.279352 
L 351.101314 256.387156 
L 352.24995 256.658105 
L 357.418814 258.606631 
L 357.851906 258.931194 
L 359.428928 259.689274 
L 359.574861 259.959647 
L 359.428928 260.176406 
L 359.428928 260.500968 
L 359.86202 260.9881 
L 360.003246 261.150669 
L 360.003246 261.367429 
L 360.149179 261.583611 
L 360.436338 261.800371 
L 360.436338 262.124933 
L 360.290405 262.450072 
L 359.716087 262.720444 
L 360.577564 262.774634 
L 360.003246 263.207576 
L 359.287702 263.315955 
L 360.149179 263.424335 
L 360.436338 263.586328 
L 360.436338 263.857277 
L 360.290405 263.965656 
L 360.290405 264.127649 
L 359.574861 264.614781 
L 360.436338 264.99411 
L 360.577564 265.372862 
L 360.577564 265.534855 
L 360.577564 265.427052 
L 360.149179 265.589044 
L 360.290405 265.643234 
L 360.003246 265.643234 
L 360.149179 265.751614 
L 360.149179 265.751614 
L 360.290405 265.643234 
L 361.010657 265.589044 
L 360.864723 265.643234 
L 360.577564 265.805804 
L 360.864723 265.751614 
L 361.15659 265.751614 
L 360.864723 265.859993 
L 360.436338 265.914183 
L 361.730908 265.697424 
L 361.010657 265.859993 
L 361.297816 265.968373 
L 361.872134 265.914183 
L 361.730908 265.859993 
L 360.864723 265.859993 
L 360.864723 265.914183 
L 361.297816 265.643234 
L 361.584975 265.914183 
L 361.443749 266.022563 
L 361.297816 265.914183 
L 361.872134 265.589044 
L 362.305226 265.589044 
L 360.723497 265.589044 
L 361.010657 265.534855 
L 360.723497 265.372862 
L 360.436338 265.372862 
L 360.577564 265.481241 
L 360.577564 265.534855 
L 360.577564 265.534855 
L 360.723497 265.589044 
L 360.290405 265.481241 
L 360.864723 265.318672 
L 361.010657 265.427052 
L 360.436338 265.697424 
L 360.290405 265.427052 
L 360.577564 265.481241 
L 360.577564 265.697424 
L 360.290405 265.914183 
L 359.716087 265.968373 
L 360.149179 265.968373 
L 360.149179 266.184556 
L 359.86202 266.292935 
L 359.287702 266.022563 
L 359.716087 266.184556 
L 360.149179 266.292935 
L 360.003246 266.347125 
L 359.428928 266.671687 
L 360.149179 266.834257 
L 359.86202 266.888447 
L 359.86202 267.05044 
L 360.003246 267.05044 
L 359.86202 267.05044 
L 360.436338 267.483958 
L 360.149179 267.375578 
L 359.86202 267.538148 
L 359.428928 267.591761 
L 359.287702 267.375578 
L 359.86202 267.321389 
L 360.003246 267.375578 
L 359.86202 267.429768 
L 359.716087 267.483958 
L 359.86202 267.538148 
L 360.290405 267.538148 
L 360.290405 267.591761 
L 359.86202 267.75433 
L 359.86202 267.75433 
L 360.003246 267.538148 
L 360.149179 267.591761 
L 360.577564 268.078893 
L 360.436338 268.078893 
L 360.577564 267.97109 
L 360.577564 267.86271 
L 359.716087 267.97109 
L 360.290405 267.86271 
L 360.003246 268.025279 
L 359.86202 267.75433 
L 359.574861 267.86271 
L 359.574861 268.025279 
L 359.86202 268.078893 
L 360.149179 267.9169 
L 360.003246 267.700141 
L 361.730908 267.645951 
L 362.305226 267.538148 
L 364.31534 267.483958 
L 366.612613 267.645951 
L 368.476793 267.9169 
L 370.486907 267.97109 
L 371.781477 268.295652 
L 374.078749 269.324105 
L 376.95034 269.540864 
L 377.811818 269.757047 
L 378.527362 270.135799 
L 380.824634 270.7855 
L 383.121907 271.056449 
L 384.844862 271.110639 
L 386.280657 271.381012 
L 389.011022 272.138516 
L 391.73668 272.734027 
L 396.19 274.736744 
L 397.051477 275.170262 
L 398.058888 275.549014 
L 398.487273 275.873576 
L 397.771729 276.685847 
L 397.625795 277.010409 
L 397.197411 277.551731 
L 397.051477 277.876293 
L 396.477159 278.417614 
L 395.474456 278.796367 
L 395.761615 278.796367 
L 396.048774 278.850556 
L 396.048774 279.013126 
L 395.041364 279.608637 
L 394.467045 280.095769 
L 394.608271 280.204148 
L 394.900138 280.149959 
L 394.900138 280.204148 
L 394.754204 280.366141 
L 394.754204 280.799083 
L 394.179886 281.070032 
L 393.746794 281.448784 
L 393.172476 281.881726 
L 393.746794 282.044296 
L 393.892727 282.206865 
L 394.321112 282.368858 
L 394.033953 282.368858 
L 393.746794 282.368858 
L 393.892727 282.477237 
L 394.033953 282.531427 
L 393.892727 282.748186 
L 394.179886 283.018559 
L 393.746794 283.018559 
L 393.746794 282.964369 
L 393.892727 283.072749 
L 393.892727 283.235318 
L 393.172476 283.66826 
L 393.172476 283.66826 
L 393.172476 283.61407 
L 393.318409 283.77664 
L 393.172476 283.938633 
L 393.459635 283.938633 
L 393.746794 283.884443 
L 392.456932 284.101202 
L 392.598157 284.155392 
L 392.310998 284.317961 
L 392.456932 284.317961 
L 392.885317 284.263771 
L 392.310998 284.317961 
L 392.456932 284.209582 
L 392.310998 284.101202 
L 391.73668 284.101202 
L 391.308295 284.209582 
L 391.595454 284.209582 
L 391.882613 284.317961 
L 391.73668 284.425764 
L 391.162362 284.479954 
L 391.162362 284.425764 
L 390.733977 284.371574 
L 391.595454 284.479954 
L 391.595454 284.534144 
L 391.021136 284.750903 
L 391.021136 284.750903 
L 391.308295 284.750903 
L 391.021136 284.859283 
L 390.588044 284.912896 
L 391.308295 284.750903 
L 390.588044 284.912896 
L 390.446818 284.859283 
L 390.588044 284.859283 
L 391.308295 284.750903 
L 391.308295 284.805093 
L 390.733977 284.967086 
L 390.159659 284.859283 
L 390.300885 284.750903 
L 390.300885 284.805093 
L 390.300885 284.912896 
L 390.013726 284.967086 
L 390.733977 284.750903 
L 390.300885 284.696713 
L 389.585341 284.805093 
L 389.585341 284.750903 
L 389.298182 284.534144 
L 388.149545 284.534144 
L 389.298182 284.425764 
L 389.439407 284.371574 
L 388.003612 283.992822 
L 382.547589 282.152675 
L 380.250316 281.340405 
L 374.653067 279.771206 
L 371.207158 278.958936 
L 357.131655 275.061882 
L 343.781111 271.002259 
L 341.050745 269.919616 
L 335.166338 268.025279 
L 326.118472 265.534855 
L 320.229357 263.478525 
L 317.070607 262.503685 
L 310.611881 260.771917 
L 305.009925 258.87758 
L 300.12822 257.091046 
L 293.523561 254.005687 
L 292.51615 253.355986 
L 290.077652 252.381722 
L 289.503333 251.624218 
L 289.216174 251.570028 
L 289.790492 251.678408 
L 290.364811 251.894591 
L 290.364811 252.273919 
L 290.077652 252.381722 
L 289.644559 252.598482 
L 289.3574 252.598482 
L 289.644559 252.544292 
L 290.218877 252.435912 
L 290.793195 252.435912 
L 290.65197 252.381722 
L 290.65197 252.219729 
L 290.218877 252.219729 
L 290.077652 252.273919 
L 290.65197 252.16554 
L 290.793195 252.273919 
L 290.364811 252.327533 
L 290.939129 252.273919 
L 290.793195 252.381722 
L 290.793195 252.598482 
L 290.506036 252.761051 
L 290.65197 252.706861 
L 291.080355 252.761051 
L 290.939129 252.652671 
L 290.65197 252.544292 
L 290.218877 252.652671 
L 290.506036 252.652671 
L 291.367514 252.706861 
L 291.513447 252.814664 
L 290.793195 252.977234 
L 290.939129 252.977234 
L 291.226288 253.031423 
L 290.65197 252.977234 
L 291.226288 252.923044 
L 292.228991 253.031423 
L 292.087765 253.139803 
L 291.654673 253.410176 
L 291.800606 253.410176 
L 292.374924 253.355986 
L 292.228991 253.248183 
L 292.374924 253.248183 
L 291.800606 253.301796 
L 291.800606 253.248183 
L 291.941832 253.193993 
L 292.374924 253.248183 
L 291.941832 253.139803 
L 291.941832 252.977234 
L 292.228991 253.031423 
L 292.228991 253.085613 
L 292.087765 253.139803 
L 292.228991 253.139803 
L 292.803309 253.139803 
L 292.087765 252.923044 
L 292.374924 253.193993 
L 292.374924 253.085613 
L 292.51615 252.977234 
L 292.374924 252.977234 
L 292.087765 252.977234 
L 292.228991 252.923044 
L 292.662083 252.598482 
L 292.228991 252.706861 
L 292.374924 252.598482 
L 291.941832 252.381722 
L 291.367514 252.490102 
L 292.51615 252.219729 
L 292.51615 252.11135 
L 292.803309 251.786211 
L 292.803309 251.786211 
L 292.374924 251.732598 
L 292.087765 251.570028 
L 292.228991 251.407459 
L 292.662083 251.245466 
L 292.662083 251.082897 
L 293.377627 250.811948 
L 293.090468 250.811948 
L 292.662083 250.811948 
L 292.51615 250.649955 
L 292.662083 250.541575 
L 292.51615 250.433196 
L 292.374924 250.487385 
L 292.662083 250.487385 
L 292.51615 250.379006 
L 291.367514 250.270626 
L 291.226288 250.108633 
L 291.367514 250.108633 
L 291.226288 250.000254 
L 291.367514 249.837684 
L 291.800606 249.621502 
L 291.513447 249.458932 
L 290.939129 248.701428 
L 290.793195 248.26791 
L 290.218877 247.564595 
L 289.216174 246.590332 
L 288.208764 245.453499 
L 284.188536 242.15138 
L 280.314242 238.145947 
L 278.158195 234.627646 
L 277.442651 233.490813 
L 277.009559 232.46236 
L 276.7224 230.838972 
L 277.009559 229.106628 
L 277.009559 228.402737 
L 276.868333 227.753612 
L 276.581174 227.212291 
L 275.860922 226.34583 
L 276.006856 225.967078 
L 276.006856 225.588326 
L 275.719697 225.425757 
L 275.860922 225.425757 
L 276.581174 225.696706 
L 276.868333 226.292217 
L 276.868333 226.40002 
L 276.435241 226.562589 
L 276.581174 226.670969 
L 276.435241 226.562589 
L 277.72981 226.40002 
L 277.009559 226.40002 
L 277.009559 226.34583 
L 277.296718 226.129648 
L 277.72981 226.129648 
L 277.72981 226.021268 
L 277.442651 225.912888 
L 278.016969 225.912888 
L 277.155492 225.804509 
L 277.583877 226.021268 
L 277.296718 225.858699 
L 277.871036 225.858699 
L 277.155492 225.858699 
L 277.72981 225.750895 
L 278.304128 225.642516 
L 278.304128 225.750895 
L 278.304128 225.967078 
L 278.304128 225.912888 
L 278.445354 225.696706 
L 277.871036 225.696706 
L 278.016969 225.858699 
L 279.306832 226.021268 
L 279.165606 226.021268 
L 279.452765 225.858699 
L 279.306832 225.804509 
L 278.878447 226.021268 
L 279.165606 225.750895 
L 279.019672 225.696706 
L 278.445354 225.750895 
L 278.732513 225.858699 
L 278.732513 225.912888 
L 279.019672 225.750895 
L 279.165606 225.317377 
L 279.019672 225.317377 
L 279.165606 225.263764 
L 279.452765 225.047005 
L 278.878447 225.317377 
L 279.165606 225.047005 
L 278.445354 224.938625 
L 278.878447 224.938625 
L 279.165606 224.614063 
L 279.165606 224.505683 
L 279.88115 224.505683 
L 280.027083 224.343114 
L 279.593991 224.181121 
L 280.88856 224.018551 
L 280.88856 223.801792 
L 280.601401 223.42304 
L 280.601401 222.990098 
L 280.88856 221.420324 
L 281.462879 220.283491 
L 281.891263 218.930475 
L 282.178423 217.306511 
L 282.178423 213.463647 
L 281.891263 211.46093 
L 280.601401 204.64051 
L 280.314242 202.259041 
L 279.739924 199.985376 
L 279.452765 197.766477 
L 279.452765 195.492811 
L 279.306832 193.165532 
L 279.019672 190.837677 
L 278.878447 188.564588 
L 279.019672 186.345112 
L 279.019672 184.017833 
L 279.165606 181.689978 
L 279.165606 179.362699 
L 279.306832 177.034843 
L 279.593991 174.870134 
L 279.593991 172.704848 
L 279.165606 165.884428 
L 279.165606 163.557149 
L 279.306832 161.12149 
L 279.306832 158.685255 
L 279.019672 156.412166 
L 278.158195 152.298353 
L 278.016969 150.295637 
L 277.583877 148.34711 
L 276.7224 146.560576 
L 275.573763 144.828232 
L 273.56365 141.147938 
L 272.848106 139.307214 
L 272.273787 135.680533 
L 271.553536 133.786196 
L 270.692059 132.000239 
L 270.11774 130.159515 
L 269.830581 128.427747 
L 269.976515 126.857973 
L 269.976515 125.396578 
L 269.402196 122.257028 
L 269.402196 120.633064 
L 269.689355 117.818653 
L 270.263674 115.003666 
L 270.550833 112.080876 
L 271.986628 109.158086 
L 272.127854 107.750304 
L 271.986628 106.451478 
L 271.986628 105.260456 
L 272.127854 104.07001 
L 272.127854 102.716418 
L 272.273787 101.200833 
L 272.273787 98.223853 
L 272.415013 96.870837 
L 272.415013 95.625625 
L 272.127854 94.488792 
L 272.127854 91.07887 
L 271.840695 89.942037 
L 271.840695 88.859394 
L 276.006856 80.902718 
L 276.006856 79.278753 
L 276.581174 77.817358 
L 276.581174 74.407436 
L 276.868333 73.920305 
L 277.871036 72.620902 
L 277.72981 72.513099 
L 278.158195 72.891851 
L 278.158195 73.000231 
L 278.016969 73.324793 
L 277.583877 73.974494 
L 276.868333 74.353247 
L 278.158195 74.407436 
L 278.878447 74.190677 
L 279.739924 74.082298 
L 279.739924 74.136487 
L 279.88115 74.136487 
L 280.027083 73.974494 
L 281.029786 74.136487 
L 281.462879 74.136487 
L 281.316945 74.082298 
L 281.175719 73.920305 
L 282.037197 73.595166 
L 282.324356 73.649356 
L 282.324356 73.649356 
L 282.611515 73.540976 
L 283.472992 73.649356 
L 283.472992 73.595166 
L 283.472992 73.540976 
L 283.472992 73.540976 
L 284.475695 73.649356 
L 284.475695 73.540976 
L 284.188536 73.378983 
L 284.621629 73.540976 
L 283.472992 73.540976 
L 284.188536 73.595166 
L 285.195947 73.540976 
L 285.195947 73.433173 
L 284.621629 73.108034 
L 285.337173 73.108034 
L 285.337173 73.216414 
L 285.050014 73.540976 
L 285.050014 73.595166 
L 284.475695 73.270604 
L 284.621629 73.162224 
L 284.475695 73.216414 
L 285.195947 73.162224 
L 284.908788 73.000231 
L 284.621629 73.053844 
L 284.475695 73.216414 
L 285.337173 73.433173 
L 285.770265 73.378983 
L 285.483106 73.324793 
L 285.195947 73.162224 
L 285.337173 73.216414 
L 285.770265 73.053844 
L 285.770265 73.162224 
L 285.770265 73.216414 
L 286.344583 73.162224 
L 286.344583 73.053844 
L 286.057424 72.891851 
L 286.19865 72.783472 
L 286.344583 72.837662 
L 286.057424 72.675092 
L 286.19865 72.675092 
L 286.344583 72.513099 
L 286.19865 72.566713 
L 285.911491 72.45891 
L 286.772968 72.675092 
L 287.206061 72.40472 
L 286.772968 72.187961 
L 286.918901 72.187961 
L 287.060127 72.133771 
L 286.631742 72.29634 
L 286.918901 72.133771 
L 286.772968 71.971778 
L 287.49322 71.538259 
L 287.780379 71.159507 
L 287.921605 70.618186 
L 287.780379 70.076864 
L 287.780379 69.37355 
L 289.070241 67.370833 
L 289.503333 66.234001 
L 289.644559 65.151358 
L 289.644559 64.068715 
L 290.218877 60.063281 
L 291.080355 57.465054 
L 292.374924 56.112038 
L 293.951946 54.975205 
L 293.951946 54.650643 
L 293.523561 54.217125 
L 293.377627 54.055132 
L 290.506036 53.62219 
L 290.077652 53.568 
L 290.077652 53.675803 
L 289.931718 53.892562 
L 289.503333 54.055132 
L 289.503333 54.000942 
L 288.641856 54.109321 
L 288.641856 54.271314 
L 288.208764 54.704256 
L 288.641856 54.866826 
L 288.641856 54.812636 
L 288.929015 54.704256 
L 288.929015 54.921015 
L 288.641856 55.083585 
L 288.208764 55.083585 
L 288.208764 54.975205 
L 288.495923 54.866826 
L 289.216174 54.921015 
L 288.929015 55.083585 
L 288.067538 55.191964 
L 289.216174 54.975205 
L 289.216174 54.921015 
L 288.067538 55.137775 
L 288.067538 55.137775 
L 288.354697 55.245578 
L 288.929015 54.975205 
L 288.354697 55.137775 
L 288.354697 55.083585 
L 288.641856 55.083585 
L 288.495923 55.191964 
L 288.067538 55.299768 
L 288.495923 55.083585 
L 288.067538 55.137775 
L 288.783082 55.137775 
L 288.641856 55.191964 
L 288.354697 55.245578 
L 288.783082 55.191964 
L 288.783082 55.353957 
L 288.641856 55.408147 
L 288.783082 55.245578 
L 288.783082 55.191964 
L 289.216174 55.299768 
L 287.780379 55.408147 
L 288.067538 55.299768 
L 288.929015 55.299768 
L 288.354697 55.191964 
L 287.921605 55.137775 
L 288.208764 55.245578 
L 287.780379 55.245578 
L 288.067538 54.866826 
L 287.634445 54.921015 
L 287.921605 54.812636 
L 288.208764 54.488074 
L 287.206061 54.650643 
L 287.347286 54.542263 
L 287.347286 54.379694 
L 287.921605 54.325504 
L 287.49322 54.433884 
L 287.49322 54.488074 
L 287.921605 54.055132 
L 287.780379 53.946752 
L 287.780379 53.838373 
L 287.634445 53.838373 
L 287.347286 54.271314 
L 287.060127 54.488074 
L 287.060127 54.866826 
L 286.918901 55.408147 
L 286.485809 56.166228 
L 283.901377 59.46777 
L 283.0399 60.983355 
L 281.891263 62.55313 
L 280.314242 64.122904 
L 278.304128 65.855249 
L 276.581174 67.641206 
L 274.283901 71.105318 
L 272.848106 72.891851 
L 269.115037 78.2503 
L 268.107627 79.982644 
L 266.817764 81.822791 
L 265.09481 83.717705 
L 262.938763 85.720421 
L 260.64149 87.668948 
L 258.918535 89.617475 
L 257.769899 91.566002 
L 255.613852 97.357969 
L 254.465216 101.417592 
L 253.749672 103.420308 
L 251.593625 107.642501 
L 250.444988 109.8614 
L 247.573397 114.408155 
L 245.276125 118.792916 
L 244.127488 120.849823 
L 243.266011 123.014532 
L 242.978852 125.288198 
L 243.124785 127.453484 
L 243.124785 129.51039 
L 242.978852 131.458917 
L 242.978852 133.353254 
L 243.124785 135.301781 
L 242.837626 137.196118 
L 242.404534 139.036842 
L 242.117374 142.771902 
L 242.117374 144.612049 
L 241.830215 146.560576 
L 241.543056 150.674389 
L 241.543056 152.677106 
L 241.830215 154.788202 
L 242.404534 156.953488 
L 243.124785 159.172387 
L 243.55317 161.391863 
L 243.840329 163.557149 
L 244.414647 165.668245 
L 246.137602 169.835671 
L 246.857853 173.787491 
L 246.999079 175.790207 
L 247.573397 179.687261 
L 249.87067 188.78077 
L 251.16524 196.467074 
L 252.742261 200.202135 
L 254.178057 204.099189 
L 254.611149 205.993526 
L 254.898308 207.834249 
L 255.326693 209.620207 
L 256.046944 211.244171 
L 256.621263 212.813946 
L 257.049648 214.383721 
L 257.049648 215.899305 
L 256.762488 218.767906 
L 256.762488 221.907455 
L 257.911125 227.645232 
L 259.205695 231.759045 
L 259.492854 233.166251 
L 259.492854 234.519266 
L 260.067172 239.932481 
L 260.787423 243.179833 
L 260.787423 244.154097 
L 260.64149 245.18255 
L 260.208398 246.211003 
L 259.492854 247.293646 
L 258.631376 249.296363 
L 257.769899 250.866137 
L 257.049648 251.624218 
L 256.621263 252.273919 
L 256.046944 253.518555 
L 255.472626 254.114066 
L 253.603738 257.036857 
L 253.462513 258.01112 
L 253.603738 258.444062 
L 253.462513 258.87758 
L 253.175354 259.364712 
L 252.742261 259.851844 
L 251.593625 260.446779 
L 252.026717 261.04229 
L 251.306466 262.503685 
L 250.878081 263.045006 
L 250.732147 263.370145 
L 249.583511 264.452788 
L 249.583511 264.723161 
L 249.87067 264.99411 
L 248.580808 266.509695 
L 248.580808 266.725877 
L 249.583511 267.05044 
L 249.155126 267.05044 
L 248.867967 267.591761 
L 249.583511 268.241462 
L 249.583511 268.241462 
L 249.296352 268.512411 
L 249.155126 268.782784 
L 248.722034 268.945353 
L 248.434875 268.945353 
L 248.147716 269.107346 
L 248.293649 269.269915 
L 248.580808 269.324105 
L 248.293649 269.540864 
L 248.293649 269.702857 
L 248.00649 269.919616 
L 248.147716 269.919616 
L 248.293649 269.919616 
L 248.580808 270.352558 
L 248.434875 270.460938 
L 248.00649 270.569318 
L 248.00649 270.677121 
L 248.434875 271.002259 
L 248.434875 271.326822 
L 248.580808 271.381012 
L 248.293649 271.381012 
L 248.293649 271.435201 
L 248.434875 271.759764 
L 247.719331 271.705574 
L 247.719331 271.813953 
L 248.147716 271.976523 
L 248.580808 271.976523 
L 248.580808 272.084902 
L 248.580808 272.246895 
L 248.147716 272.084902 
L 248.580808 272.355275 
L 248.722034 272.626224 
L 248.580808 272.734027 
L 249.155126 272.355275 
L 249.155126 272.409465 
L 249.155126 272.626224 
L 249.009193 272.734027 
L 249.155126 272.679837 
L 249.442285 272.572034 
L 249.296352 272.463655 
L 249.155126 272.517844 
L 249.729444 272.626224 
L 249.442285 272.679837 
L 249.155126 272.842407 
L 248.580808 272.950786 
L 248.580808 272.842407 
L 248.434875 272.788217 
L 248.580808 272.896596 
L 248.293649 273.166969 
L 248.722034 273.275349 
L 248.580808 273.383728 
L 248.580808 273.70829 
L 248.434875 273.70829 
L 248.722034 273.600487 
L 249.155126 273.437918 
L 249.155126 273.600487 
L 249.729444 273.654677 
L 249.87067 273.76248 
L 250.732147 273.87086 
L 250.303763 273.87086 
L 250.157829 274.033429 
L 250.590922 273.979239 
L 250.444988 274.033429 
L 250.878081 274.303802 
L 251.452399 274.412181 
L 251.16524 274.357992 
L 251.452399 274.249612 
L 252.167943 274.412181 
L 252.455102 274.68313 
L 252.026717 274.68313 
L 251.019306 274.357992 
L 250.732147 274.195422 
L 244.414647 273.70829 
L 238.671465 272.626224 
L 234.651238 272.192706 
L 230.202626 271.922333 
L 220.434509 271.651384 
L 214.978486 271.543581 
L 209.094078 271.543581 
L 203.204963 271.705574 
L 165.299962 273.492108 
L 131.843573 274.899313 
L 114.609319 276.360708 
L 95.082501 277.822103 
L 88.044749 278.471804 
L 77.99418 279.82482 
L 77.707021 280.041579 
L 77.565796 280.311951 
L 77.852955 280.5829 
L 79.142817 281.015842 
L 79.863068 281.394594 
L 80.291453 281.448784 
L 80.578612 281.665543 
L 80.437387 281.990106 
L 80.150227 282.206865 
L 79.429976 282.531427 
L 79.429976 282.693997 
L 79.28875 282.910179 
L 79.28875 283.126939 
L 79.429976 283.289508 
L 78.140114 284.047012 
L 78.427273 284.263771 
L 78.140114 284.642523 
L 77.707021 284.588334 
L 77.707021 284.696713 
L 77.852955 284.859283 
L 78.568499 285.129655 
L 77.852955 285.400028 
L 77.99418 285.508407 
L 78.714432 285.562597 
L 78.855658 285.725166 
L 78.714432 285.887159 
L 78.427273 286.103919 
L 78.714432 286.374868 
L 78.714432 286.53686 
L 78.140114 286.861999 
L 78.28134 286.915613 
L 79.001591 287.078182 
L 78.855658 287.240751 
L 78.568499 287.349131 
L 77.99418 287.403321 
L 78.28134 287.673693 
L 78.28134 287.619503 
L 78.568499 287.565314 
L 78.427273 287.727883 
L 78.714432 287.836263 
L 78.714432 287.727883 
L 78.714432 287.727883 
L 77.99418 288.106635 
L 77.707021 288.269205 
L 77.565796 288.269205 
L 77.565796 288.323394 
L 77.419862 288.431774 
L 77.707021 288.539577 
L 77.565796 288.593767 
L 77.419862 288.647957 
L 77.565796 288.647957 
L 78.140114 288.810526 
L 77.278636 289.026709 
L 76.558385 289.080899 
L 76.417159 289.297658 
L 77.419862 289.243468 
L 77.278636 289.351847 
L 76.704318 289.67641 
L 76.271226 289.838979 
L 76.417159 289.893169 
L 76.417159 290.000972 
L 76.704318 290.000972 
L 75.842841 289.893169 
L 75.842841 290.109352 
L 75.842841 289.947359 
L 75.984067 289.893169 
L 75.555682 290.109352 
L 75.555682 290.217731 
L 75.696908 290.271921 
L 75.409749 290.271921 
L 75.122589 290.650673 
L 75.268523 290.650673 
L 75.696908 290.542294 
L 75.696908 290.326111 
L 75.409749 290.217731 
L 74.981364 290.542294 
L 75.268523 290.43449 
L 75.555682 290.488104 
L 75.409749 290.704863 
L 75.409749 290.759053 
L 75.555682 290.759053 
L 75.409749 290.867432 
L 75.409749 290.921622 
L 74.407045 290.867432 
L 74.261112 290.759053 
L 74.981364 290.542294 
L 74.981364 290.650673 
L 74.83543 290.813243 
L 73.832727 291.191995 
L 74.261112 291.300374 
L 74.407045 291.462944 
L 74.119886 291.570747 
L 73.832727 291.408754 
L 73.973953 291.354564 
L 74.694205 291.408754 
L 74.407045 291.462944 
L 74.119886 291.462944 
L 73.973953 291.462944 
L 74.83543 291.570747 
L 74.694205 291.679126 
L 73.973953 291.787506 
L 74.548271 291.570747 
L 74.548271 291.516557 
L 74.407045 291.462944 
L 74.261112 291.570747 
L 74.548271 291.841696 
L 74.407045 291.895886 
L 74.407045 291.950075 
L 74.407045 291.950075 
L 74.694205 291.787506 
L 74.83543 291.787506 
L 74.694205 291.895886 
L 73.973953 292.057878 
L 73.832727 292.057878 
L 73.973953 292.112068 
L 74.119886 292.274638 
L 75.268523 292.112068 
L 74.548271 292.112068 
L 74.694205 292.003689 
L 74.981364 292.166258 
L 74.407045 291.950075 
L 74.548271 292.003689 
L 74.83543 292.274638 
L 74.694205 292.491397 
L 74.83543 292.112068 
L 74.261112 292.003689 
L 73.973953 292.003689 
L 75.268523 292.003689 
L 75.268523 291.950075 
L 75.268523 291.733316 
L 75.555682 291.624937 
L 75.409749 291.624937 
L 74.981364 291.679126 
L 74.83543 291.895886 
L 74.981364 291.787506 
L 75.555682 291.516557 
L 75.409749 291.516557 
L 75.409749 291.408754 
L 75.555682 291.408754 
L 75.555682 291.300374 
L 74.981364 291.137805 
L 75.268523 290.975812 
L 75.122589 290.867432 
L 74.83543 290.867432 
L 74.83543 291.029425 
L 74.981364 291.029425 
L 74.981364 290.867432 
L 74.83543 290.704863 
L 74.981364 290.650673 
L 75.984067 290.596483 
L 75.842841 290.542294 
L 76.704318 290.271921 
L 76.417159 290.380301 
L 76.845544 290.163541 
L 76.417159 290.271921 
L 76.704318 290.109352 
L 76.704318 289.947359 
L 76.558385 290.000972 
L 76.704318 290.217731 
L 76.991477 290.271921 
L 76.417159 290.109352 
L 76.845544 290.000972 
L 76.704318 289.947359 
L 76.271226 289.893169 
L 75.984067 289.784789 
L 76.417159 289.893169 
L 76.845544 289.67641 
L 76.704318 289.67641 
L 76.558385 289.67641 
L 76.704318 289.67641 
L 77.419862 289.893169 
L 78.28134 289.62222 
L 78.140114 289.56803 
L 77.132703 289.62222 
L 76.991477 289.7306 
L 77.132703 289.838979 
L 77.132703 290.000972 
L 77.278636 290.055162 
L 77.278636 290.000972 
L 77.707021 289.947359 
L 77.852955 290.055162 
L 77.99418 290.000972 
L 77.707021 289.62222 
L 78.140114 289.56803 
L 78.140114 289.838979 
L 78.427273 289.893169 
L 79.575909 289.56803 
L 79.717135 289.56803 
L 79.28875 289.51384 
L 79.575909 289.459651 
L 79.575909 289.406037 
L 79.28875 289.297658 
L 79.429976 289.243468 
L 79.863068 289.243468 
L 79.429976 289.56803 
L 80.004294 289.62222 
L 79.717135 289.51384 
L 79.142817 289.189278 
L 79.142817 289.243468 
L 79.28875 289.406037 
L 79.717135 289.56803 
L 79.575909 289.459651 
L 81.011705 289.51384 
L 80.724546 289.56803 
L 80.437387 289.67641 
L 81.298864 289.406037 
L 81.298864 289.459651 
L 81.44009 289.51384 
L 81.44009 289.459651 
L 81.44009 289.351847 
L 81.727249 289.135088 
L 81.44009 289.080899 
L 82.588726 289.026709 
L 83.883296 289.080899 
L 86.034635 288.918906 
L 91.062273 288.323394 
L 108.724912 287.186562 
L 119.924116 286.374868 
L 133.133435 285.725166 
L 148.211641 285.129655 
L 171.904621 284.479954 
L 188.27269 284.101202 
L 204.353599 283.397311 
L 212.106895 282.964369 
L 242.978852 281.990106 
L 259.059761 282.044296 
L 275.286604 282.315245 
L 297.115403 282.85599 
L 317.070607 283.938633 
L 329.423156 284.805093 
L 339.760883 285.616787 
L 348.229723 286.049729 
L 351.388473 286.374868 
L 356.270178 287.132372 
L 357.851906 287.294941 
L 358.85461 287.619503 
L 359.287702 288.106635 
L 359.287702 288.539577 
L 359.141769 288.810526 
L 358.280291 289.189278 
L 357.418814 289.62222 
L 357.131655 289.947359 
L 356.844496 290.109352 
L 356.844496 290.542294 
L 356.990429 290.759053 
L 357.277588 290.975812 
L 357.564747 291.029425 
L 357.705973 290.867432 
L 357.705973 290.867432 
L 358.280291 291.408754 
L 358.56745 291.624937 
L 357.993132 291.787506 
L 358.139066 291.787506 
L 358.280291 291.895886 
L 357.277588 292.220448 
L 357.705973 292.220448 
L 357.851906 292.274638 
L 357.705973 292.328827 
L 356.990429 292.274638 
L 357.277588 292.437207 
L 357.564747 292.761769 
L 357.705973 292.761769 
L 357.705973 292.65339 
L 357.277588 292.54501 
L 357.277588 292.65339 
L 357.277588 292.815959 
L 357.131655 292.870149 
L 357.418814 292.870149 
L 358.85461 292.870149 
L 358.426225 292.761769 
L 358.426225 292.65339 
L 358.713384 292.5992 
L 358.713384 292.65339 
L 358.713384 292.70758 
L 358.85461 292.70758 
L 358.85461 292.70758 
L 359.000543 292.978529 
L 359.428928 292.870149 
L 359.428928 292.761769 
L 358.85461 292.870149 
L 359.141769 292.978529 
L 359.141769 292.924339 
L 358.426225 292.761769 
L 359.000543 292.978529 
L 359.428928 293.086332 
L 359.141769 293.086332 
L 359.000543 293.194711 
L 359.141769 293.194711 
L 359.86202 293.032142 
L 359.428928 293.248901 
L 359.287702 293.303091 
L 359.287702 293.194711 
L 359.287702 293.032142 
L 360.149179 292.924339 
L 360.149179 292.978529 
L 360.290405 292.978529 
L 359.428928 293.032142 
L 359.428928 293.086332 
L 359.86202 293.140521 
L 360.149179 292.978529 
L 360.149179 292.815959 
L 360.003246 292.761769 
L 359.86202 292.870149 
L 360.149179 292.978529 
L 360.723497 292.978529 
L 360.436338 292.978529 
L 361.443749 292.815959 
L 361.584975 292.870149 
L 361.443749 292.978529 
L 361.584975 292.978529 
L 361.872134 292.924339 
L 361.297816 292.978529 
L 360.723497 292.870149 
L 361.15659 292.978529 
L 361.010657 293.086332 
L 360.723497 293.086332 
L 360.436338 293.248901 
L 360.577564 293.303091 
L 360.864723 293.140521 
L 361.872134 293.086332 
L 362.159293 293.41147 
L 362.018067 293.303091 
L 362.159293 293.086332 
L 362.305226 293.086332 
L 362.159293 293.194711 
L 362.159293 293.303091 
L 362.159293 293.303091 
L 362.018067 293.248901 
L 361.297816 293.248901 
L 362.305226 293.140521 
L 362.592385 293.086332 
L 362.592385 293.194711 
L 362.446452 293.303091 
L 362.446452 293.303091 
L 362.446452 293.140521 
L 362.305226 293.303091 
L 362.592385 292.978529 
L 362.305226 293.086332 
L 362.018067 293.303091 
L 362.446452 293.032142 
L 362.159293 293.140521 
L 361.730908 293.248901 
L 362.159293 293.194711 
L 362.592385 293.086332 
L 362.305226 293.140521 
L 362.305226 293.032142 
L 362.018067 293.086332 
L 362.018067 293.086332 
L 362.018067 293.194711 
L 361.872134 293.248901 
L 361.584975 293.086332 
L 361.730908 292.978529 
L 362.733611 293.086332 
L 362.592385 292.978529 
L 362.305226 292.924339 
L 362.159293 293.032142 
L 362.446452 293.248901 
L 362.446452 293.140521 
L 362.305226 292.870149 
L 362.305226 292.761769 
L 362.018067 292.761769 
L 362.159293 292.870149 
L 362.159293 293.140521 
L 362.159293 293.086332 
L 361.872134 293.194711 
L 362.733611 293.086332 
L 362.733611 293.140521 
L 362.305226 293.248901 
L 362.446452 293.194711 
L 362.159293 293.086332 
L 361.872134 293.248901 
L 362.305226 293.086332 
L 362.305226 293.140521 
L 362.018067 292.978529 
L 362.018067 293.032142 
L 361.584975 293.303091 
L 361.730908 293.357281 
L 361.872134 293.357281 
L 361.872134 293.41147 
L 362.159293 293.573463 
L 362.733611 293.357281 
L 362.159293 293.51985 
L 362.018067 293.357281 
L 362.305226 293.46566 
L 362.446452 293.46566 
L 362.159293 293.51985 
L 362.305226 293.41147 
L 362.305226 293.140521 
L 362.879544 293.248901 
L 362.879544 293.357281 
L 362.018067 293.248901 
L 362.592385 293.41147 
L 362.592385 293.51985 
L 362.879544 293.51985 
L 362.879544 293.41147 
L 362.446452 293.303091 
L 362.592385 293.41147 
L 362.018067 293.41147 
L 362.305226 293.303091 
L 362.446452 293.248901 
L 362.159293 293.41147 
L 362.592385 293.573463 
L 363.307929 293.51985 
L 363.166704 293.46566 
L 362.592385 293.357281 
L 362.879544 293.51985 
L 362.879544 293.46566 
L 363.453863 293.140521 
L 363.307929 293.140521 
L 362.446452 293.41147 
L 362.733611 293.303091 
L 363.166704 293.46566 
L 362.733611 293.46566 
L 363.166704 293.357281 
L 362.733611 293.086332 
L 362.879544 293.032142 
L 363.02077 293.140521 
L 362.592385 293.46566 
L 362.159293 293.51985 
L 362.018067 293.41147 
L 362.446452 293.032142 
L 362.159293 293.140521 
L 362.159293 293.194711 
L 363.307929 293.086332 
L 363.453863 293.032142 
L 362.733611 292.815959 
L 363.166704 292.870149 
L 363.595088 292.70758 
L 363.02077 292.65339 
L 363.166704 292.70758 
L 363.166704 292.491397 
L 363.307929 292.274638 
L 363.882248 292.220448 
L 364.169407 292.328827 
L 363.741022 292.437207 
L 363.166704 292.437207 
L 363.166704 292.220448 
L 363.453863 291.950075 
L 363.307929 291.787506 
L 363.453863 292.003689 
L 363.882248 291.950075 
L 364.028181 291.787506 
L 363.882248 291.679126 
L 363.595088 291.679126 
L 363.882248 291.570747 
L 363.882248 291.516557 
L 363.453863 291.733316 
L 363.307929 291.624937 
L 363.595088 291.462944 
L 363.741022 291.137805 
L 363.741022 291.083615 
L 364.169407 291.029425 
L 363.882248 290.975812 
L 363.882248 290.759053 
L 364.169407 290.704863 
L 363.882248 290.813243 
L 363.882248 290.704863 
L 364.028181 290.542294 
L 364.743725 290.326111 
L 364.169407 290.43449 
L 363.595088 290.488104 
L 364.31534 290.488104 
L 363.882248 290.704863 
L 363.741022 290.704863 
L 363.741022 290.43449 
L 364.028181 290.217731 
L 363.882248 290.326111 
L 364.028181 290.542294 
L 363.453863 290.43449 
L 363.166704 290.380301 
L 363.453863 290.326111 
L 364.31534 290.488104 
L 363.882248 290.326111 
L 364.31534 290.271921 
L 363.741022 290.488104 
L 363.453863 290.43449 
L 363.307929 290.542294 
L 363.307929 290.542294 
L 363.307929 290.380301 
L 362.879544 290.163541 
L 363.02077 290.271921 
L 363.02077 290.380301 
L 363.453863 290.43449 
L 363.741022 290.43449 
L 363.741022 290.380301 
L 363.453863 290.163541 
L 363.741022 290.000972 
L 364.028181 289.947359 
L 363.741022 290.000972 
L 363.595088 290.163541 
L 363.741022 290.217731 
L 364.028181 290.109352 
L 363.882248 290.055162 
L 363.02077 290.000972 
L 363.307929 289.893169 
L 363.741022 289.893169 
L 363.453863 289.784789 
L 363.166704 289.62222 
L 363.741022 289.838979 
L 363.741022 289.784789 
L 362.733611 289.56803 
L 362.733611 289.7306 
L 363.02077 289.893169 
L 363.02077 289.7306 
L 363.453863 289.56803 
L 363.453863 289.67641 
L 363.453863 289.7306 
L 363.595088 289.7306 
L 363.595088 289.62222 
L 363.453863 289.51384 
L 363.453863 289.62222 
L 362.733611 289.406037 
L 363.595088 289.243468 
L 363.595088 289.135088 
L 362.446452 288.972519 
L 361.443749 288.702146 
L 360.003246 288.431774 
L 355.554634 287.944066 
L 349.665518 287.023992 
L 345.504065 286.64524 
L 316.929381 284.805093 
L 296.107993 284.209582 
L 289.644559 284.101202 
L 275.719697 284.209582 
L 268.25356 284.263771 
L 260.787423 284.479954 
L 239.391717 285.346414 
L 209.235304 286.482671 
L 188.847008 287.349131 
L 171.043144 287.944066 
L 159.410846 288.052445 
L 145.052891 288.160825 
L 138.01514 288.485387 
L 133.707753 288.918906 
L 131.269255 289.080899 
L 130.120618 289.406037 
L 130.694936 289.893169 
L 130.694936 290.109352 
L 130.982096 290.271921 
L 132.417891 290.596483 
L 132.70505 290.867432 
L 132.559117 290.921622 
L 132.271958 291.083615 
L 132.417891 291.246184 
L 131.984799 291.516557 
L 131.123321 291.733316 
L 130.694936 291.733316 
L 130.407777 291.895886 
L 130.261844 292.112068 
L 130.836162 292.166258 
L 131.69764 292.057878 
L 131.69764 292.112068 
L 131.69764 292.166258 
L 131.984799 292.166258 
L 131.984799 292.220448 
L 131.41048 292.437207 
L 131.69764 292.437207 
L 131.843573 292.437207 
L 131.41048 292.54501 
L 131.41048 292.65339 
L 131.69764 292.815959 
L 131.41048 292.924339 
L 130.982096 292.924339 
L 130.261844 293.140521 
L 130.549003 293.140521 
L 130.836162 293.140521 
L 129.974685 293.248901 
L 130.120618 293.303091 
L 131.269255 293.194711 
L 131.41048 293.086332 
L 130.694936 293.627653 
L 131.123321 293.51985 
L 130.694936 293.303091 
L 130.694936 293.357281 
L 131.41048 293.41147 
L 130.549003 293.303091 
L 131.269255 293.248901 
L 131.123321 293.086332 
L 131.123321 293.140521 
L 129.687526 293.573463 
L 129.974685 293.41147 
L 130.549003 293.303091 
L 130.407777 293.41147 
L 130.549003 293.51985 
L 130.407777 293.46566 
L 130.120618 293.51985 
L 129.833459 293.51985 
L 129.5463 293.681843 
L 129.5463 293.681843 
L 128.971982 293.573463 
L 128.971982 293.681843 
L 129.400367 293.681843 
L 129.687526 293.51985 
L 129.687526 293.51985 
L 128.971982 293.573463 
L 128.826049 293.46566 
L 129.113208 293.573463 
L 129.400367 293.681843 
L 129.259141 293.681843 
L 128.684823 293.681843 
L 129.113208 293.790223 
L 129.113208 293.844412 
L 129.113208 293.790223 
L 128.971982 293.627653 
L 128.538889 293.627653 
L 128.826049 293.736033 
L 128.971982 293.844412 
L 128.25173 293.898602 
L 128.397664 293.844412 
L 128.538889 293.736033 
L 127.823345 294.006982 
L 128.25173 294.006982 
L 128.397664 294.060595 
L 128.25173 294.006982 
L 128.25173 293.627653 
L 128.25173 293.627653 
L 127.823345 293.898602 
L 127.964571 294.006982 
L 127.964571 294.006982 
L 127.249027 294.060595 
L 127.964571 293.898602 
L 127.964571 293.844412 
L 127.964571 293.898602 
L 128.110505 294.060595 
L 127.677412 294.114785 
L 127.823345 294.006982 
L 128.25173 293.898602 
L 128.110505 294.006982 
L 128.110505 294.060595 
L 128.538889 293.952792 
L 128.397664 293.844412 
L 128.397664 293.898602 
L 128.397664 294.060595 
L 128.110505 294.277354 
L 128.397664 294.114785 
L 128.684823 294.223164 
L 128.397664 294.277354 
L 128.538889 294.168975 
L 128.538889 294.114785 
L 128.684823 294.223164 
L 128.538889 294.277354 
L 128.538889 294.168975 
L 128.538889 294.060595 
L 127.964571 294.114785 
L 127.964571 294.385734 
L 127.677412 294.439924 
L 127.390253 294.331544 
L 127.390253 294.331544 
L 127.823345 294.277354 
L 127.823345 294.385734 
L 127.390253 294.385734 
L 127.390253 294.494113 
L 127.677412 294.601917 
L 127.823345 294.494113 
L 127.536186 294.601917 
L 127.536186 294.331544 
L 127.536186 294.331544 
L 127.390253 294.223164 
L 127.677412 294.385734 
L 127.677412 294.385734 
L 127.103094 294.385734 
L 127.964571 294.277354 
L 127.536186 294.439924 
L 127.536186 294.547727 
L 127.536186 294.439924 
L 127.390253 294.331544 
L 127.677412 294.656106 
L 127.390253 294.764486 
L 127.249027 294.601917 
L 127.536186 294.494113 
L 127.677412 294.656106 
L 127.677412 294.872866 
L 127.249027 294.872866 
L 127.249027 294.764486 
L 127.390253 294.656106 
L 127.249027 294.601917 
L 126.382842 294.656106 
L 127.677412 294.710296 
L 127.536186 294.656106 
L 127.536186 295.143238 
L 127.536186 295.035435 
L 127.677412 294.872866 
L 127.964571 294.818676 
L 127.964571 294.872866 
L 128.110505 294.927055 
L 130.836162 294.494113 
L 132.559117 294.223164 
L 136.725278 293.844412 
L 143.471163 292.978529 
L 156.96764 291.950075 
L 167.597234 290.975812 
L 179.799142 290.055162 
L 229.482374 287.186562 
L 252.167943 286.266488 
L 260.067172 285.887159 
L 275.432537 285.562597 
L 291.080355 285.508407 
L 313.911857 285.616787 
L 335.453497 286.53686 
L 348.229723 287.023992 
L 354.693156 287.349131 
L 360.577564 287.836263 
L 376.517248 288.702146 
L 382.119204 289.947359 
L 382.406363 290.109352 
L 382.26043 290.326111 
L 380.824634 291.029425 
L 379.821931 291.354564 
L 379.963157 291.408754 
L 379.821931 291.462944 
L 379.821931 291.570747 
L 380.396249 291.733316 
L 380.396249 291.950075 
L 380.250316 292.112068 
L 380.250316 292.112068 
L 379.963157 292.057878 
L 380.683409 292.220448 
L 380.10909 292.112068 
L 379.675998 292.220448 
L 379.388839 292.491397 
L 378.814521 292.491397 
L 379.10168 292.70758 
L 379.247613 292.5992 
L 378.960454 292.761769 
L 378.240202 292.65339 
L 379.10168 292.437207 
L 379.388839 292.491397 
L 379.10168 292.815959 
L 378.960454 292.924339 
L 378.960454 292.761769 
L 378.960454 292.54501 
L 379.388839 292.274638 
L 379.821931 292.491397 
L 378.527362 292.437207 
L 378.960454 292.383017 
L 379.675998 292.220448 
L 379.675998 292.274638 
L 379.534772 292.274638 
L 379.675998 292.220448 
L 379.675998 292.057878 
L 379.534772 292.057878 
L 379.675998 291.950075 
L 379.675998 291.733316 
L 379.534772 291.624937 
L 379.821931 291.895886 
L 379.675998 291.950075 
L 379.675998 291.787506 
L 379.821931 291.624937 
L 379.675998 291.895886 
L 379.675998 291.841696 
L 380.250316 291.570747 
L 380.396249 291.570747 
L 380.10909 291.679126 
L 379.675998 291.787506 
L 380.10909 291.787506 
L 380.824634 291.895886 
L 379.963157 291.787506 
L 380.10909 291.733316 
L 380.537475 291.516557 
L 380.10909 291.462944 
L 380.250316 291.462944 
L 379.388839 291.408754 
L 379.388839 291.300374 
L 380.10909 291.300374 
L 379.963157 291.354564 
L 380.396249 291.137805 
L 380.396249 291.029425 
L 379.821931 291.029425 
L 380.10909 291.246184 
L 380.396249 291.029425 
L 380.537475 290.921622 
L 379.534772 290.975812 
L 379.963157 291.029425 
L 380.537475 291.137805 
L 380.396249 291.137805 
L 379.963157 291.191995 
L 380.250316 291.083615 
L 380.250316 290.921622 
L 380.10909 290.867432 
L 379.963157 291.029425 
L 380.250316 291.029425 
L 379.963157 291.083615 
L 379.821931 291.246184 
L 379.963157 291.246184 
L 380.10909 291.137805 
L 380.10909 290.975812 
L 380.250316 290.921622 
L 380.250316 291.029425 
L 379.963157 291.191995 
L 379.821931 291.083615 
L 380.824634 290.813243 
L 380.396249 290.813243 
L 380.10909 290.759053 
L 379.388839 290.813243 
L 380.824634 290.650673 
L 380.824634 290.704863 
L 380.824634 290.759053 
L 380.10909 290.650673 
L 380.10909 290.542294 
L 380.250316 290.596483 
L 380.10909 290.759053 
L 380.250316 290.650673 
L 380.537475 290.542294 
L 380.396249 290.542294 
L 379.247613 290.488104 
L 379.963157 290.488104 
L 379.963157 290.380301 
L 380.10909 290.163541 
L 378.960454 290.488104 
L 379.247613 290.488104 
L 379.821931 290.380301 
L 379.821931 290.217731 
L 379.534772 290.163541 
L 379.388839 290.271921 
L 379.821931 290.271921 
L 379.534772 290.271921 
L 379.963157 290.109352 
L 379.963157 290.000972 
L 378.960454 289.947359 
L 379.10168 289.893169 
L 379.388839 289.838979 
L 379.247613 289.947359 
L 379.247613 290.000972 
L 379.247613 289.947359 
L 379.675998 289.893169 
L 379.821931 289.893169 
L 379.675998 289.947359 
L 380.250316 290.217731 
L 380.250316 290.109352 
L 379.388839 290.055162 
L 379.388839 290.163541 
L 379.534772 290.055162 
L 379.388839 289.893169 
L 379.388839 290.000972 
L 379.10168 290.055162 
L 379.388839 289.893169 
L 379.247613 289.67641 
L 379.10168 289.893169 
L 379.388839 289.67641 
L 379.534772 289.67641 
L 379.821931 289.838979 
L 379.821931 290.000972 
L 378.960454 290.000972 
L 379.534772 289.784789 
L 379.388839 289.784789 
L 378.527362 289.67641 
L 378.386136 289.784789 
L 378.814521 289.838979 
L 379.247613 289.784789 
L 379.247613 289.838979 
L 379.247613 289.784789 
L 378.386136 289.67641 
L 378.527362 289.51384 
L 379.963157 289.026709 
L 379.821931 289.026709 
L 379.388839 288.810526 
L 377.953043 287.727883 
L 375.227386 286.428481 
L 373.358498 285.833546 
L 367.761249 284.425764 
L 360.290405 282.693997 
L 356.270178 281.665543 
L 352.537109 280.5829 
L 339.186565 276.090336 
L 336.314974 275.061882 
L 333.730542 273.979239 
L 330.858951 272.950786 
L 320.516516 269.757047 
L 295.533674 260.663538 
L 287.780379 258.173689 
L 278.016969 254.168256 
L 275.432537 252.923044 
L 271.125151 250.433196 
L 269.115037 249.404742 
L 266.243446 247.618785 
L 263.371855 246.15739 
L 262.364445 245.399309 
L 261.074582 243.992104 
L 260.928649 243.504972 
L 261.074582 243.179833 
L 261.074582 242.638512 
L 262.223219 242.476519 
L 262.651604 242.31395 
L 263.225922 242.855271 
L 263.225922 242.530709 
L 263.225922 242.746892 
L 263.513081 242.746892 
L 263.80024 242.530709 
L 263.80024 242.368139 
L 264.661717 241.772628 
L 264.661717 241.772628 
L 264.087399 241.556445 
L 264.374558 241.448066 
L 264.807651 241.556445 
L 264.948877 241.826818 
L 264.807651 241.881008 
L 264.948877 241.826818 
L 265.669128 241.989387 
L 265.810354 241.935198 
L 265.236036 242.043577 
L 264.807651 242.09719 
L 265.669128 242.422329 
L 265.669128 242.31395 
L 265.669128 242.15138 
L 265.669128 242.25976 
L 265.810354 242.422329 
L 266.384672 242.476519 
L 266.243446 242.368139 
L 265.810354 242.25976 
L 266.097513 242.530709 
L 266.243446 242.530709 
L 265.236036 242.638512 
L 265.236036 242.638512 
L 265.669128 242.692702 
L 266.530605 242.584899 
L 266.530605 242.638512 
L 266.097513 242.746892 
L 266.243446 242.801081 
L 266.530605 243.017841 
L 266.243446 243.125644 
L 266.671831 243.07203 
L 266.95899 243.288213 
L 266.95899 243.396593 
L 266.817764 243.396593 
L 266.817764 243.450782 
L 266.817764 243.559162 
L 266.817764 243.504972 
L 266.95899 243.396593 
L 267.392083 243.288213 
L 267.966401 243.342403 
L 266.95899 243.288213 
L 266.95899 243.559162 
L 266.817764 243.666965 
L 266.95899 243.721155 
L 267.533308 243.559162 
L 266.95899 243.450782 
L 266.384672 243.829535 
L 266.530605 243.937914 
L 267.104924 243.883724 
L 268.107627 243.666965 
L 267.104924 243.775345 
L 266.95899 243.775345 
L 266.671831 244.208287 
L 266.95899 244.316666 
L 267.246149 244.100484 
L 266.95899 244.208287 
L 266.671831 244.154097 
L 266.817764 244.154097 
L 267.246149 244.100484 
L 267.392083 244.316666 
L 266.671831 244.208287 
L 266.817764 244.154097 
L 267.820468 244.154097 
L 266.671831 244.046294 
L 266.243446 243.992104 
L 266.384672 244.100484 
L 266.817764 244.154097 
L 266.817764 244.100484 
L 266.817764 243.937914 
L 266.530605 243.883724 
L 266.384672 244.046294 
L 266.671831 244.370856 
L 266.817764 244.262476 
L 267.246149 244.100484 
L 267.966401 244.154097 
L 267.966401 244.262476 
L 267.679242 244.425046 
L 267.104924 244.316666 
L 267.104924 244.262476 
L 267.104924 244.316666 
L 267.246149 244.425046 
L 266.097513 244.262476 
L 266.671831 244.425046 
L 266.243446 244.425046 
L 266.384672 244.425046 
L 266.530605 244.316666 
L 267.104924 244.370856 
L 267.104924 244.370856 
L 266.384672 244.695418 
L 266.530605 244.803798 
L 266.097513 244.749608 
L 266.097513 244.695418 
L 266.384672 244.641229 
L 266.384672 244.803798 
L 265.956287 244.641229 
L 265.669128 244.695418 
L 265.956287 244.749608 
L 266.671831 244.803798 
L 266.097513 244.857988 
L 266.384672 245.020557 
L 266.384672 244.912178 
L 266.671831 244.749608 
L 266.384672 244.966367 
L 266.671831 244.803798 
L 266.671831 244.803798 
L 266.384672 244.803798 
L 266.384672 244.857988 
L 266.384672 244.966367 
L 266.530605 244.857988 
L 266.530605 244.587615 
L 266.530605 244.587615 
L 266.95899 244.262476 
L 266.817764 243.937914 
L 265.956287 243.017841 
L 263.80024 239.878291 
L 261.790126 236.955501 
L 261.648901 236.3058 
L 261.648901 235.656099 
L 261.074582 233.112061 
L 261.502967 232.679119 
L 261.074582 232.408746 
L 260.928649 232.191987 
L 260.928649 232.354557 
L 260.787423 232.46236 
L 261.361742 232.246177 
L 262.364445 232.516549 
L 262.364445 232.46236 
L 262.223219 232.354557 
L 261.93606 232.300367 
L 262.364445 232.354557 
L 263.371855 232.191987 
L 262.797537 231.921038 
L 262.938763 231.921038 
L 262.938763 231.867425 
L 262.510378 232.083608 
L 262.364445 232.083608 
L 262.938763 231.975228 
L 262.938763 231.759045 
L 262.797537 231.704855 
L 262.510378 231.867425 
L 262.938763 231.759045 
L 262.938763 231.759045 
L 262.938763 231.704855 
L 263.225922 231.488096 
L 263.084696 231.542286 
L 262.364445 231.704855 
L 261.93606 231.596476 
L 262.077286 231.596476 
L 262.651604 231.271914 
L 262.651604 231.163534 
L 262.223219 231.433906 
L 262.651604 231.380293 
L 262.651604 231.217724 
L 262.797537 231.163534 
L 262.510378 230.946775 
L 262.797537 230.892585 
L 263.225922 230.892585 
L 262.364445 230.838972 
L 262.797537 230.784782 
L 262.938763 230.730592 
L 262.797537 230.513833 
L 263.084696 230.405453 
L 263.225922 230.405453 
L 262.651604 230.513833 
L 263.084696 230.513833 
L 263.513081 230.568023 
L 263.513081 230.459643 
L 264.087399 230.135081 
L 263.225922 230.189271 
L 262.938763 230.189271 
L 263.225922 230.080891 
L 263.225922 230.026701 
L 263.225922 230.135081 
L 263.946173 230.026701 
L 263.80024 230.135081 
L 264.520492 230.189271 
L 263.371855 230.135081 
L 263.80024 230.026701 
L 263.946173 229.918322 
L 264.374558 229.918322 
L 263.946173 230.026701 
L 263.513081 230.135081 
L 264.087399 230.24346 
L 264.233333 230.135081 
L 264.087399 230.026701 
L 264.233333 230.026701 
L 264.374558 229.864708 
L 263.946173 229.810518 
L 264.948877 230.026701 
L 265.523195 230.135081 
L 265.956287 229.972511 
L 265.523195 230.026701 
L 265.09481 229.864708 
L 264.948877 229.810518 
L 260.787423 230.080891 
L 259.205695 230.784782 
L 257.195581 231.759045 
L 256.18817 232.46236 
L 255.185467 233.436623 
L 253.890897 234.519266 
L 252.167943 236.521983 
L 251.306466 237.280063 
L 250.016603 238.091757 
L 244.701806 244.046294 
L 244.127488 245.128937 
L 243.699103 246.211003 
L 242.263308 248.26791 
L 241.68899 249.296363 
L 241.40183 250.270626 
L 240.968738 251.028707 
L 240.681579 251.840401 
L 240.681579 252.814664 
L 240.827512 253.951497 
L 240.681579 255.08833 
L 240.39442 256.062593 
L 240.540353 257.091046 
L 241.40183 259.364712 
L 241.543056 260.446779 
L 241.40183 261.529422 
L 240.827512 262.450072 
L 238.958624 264.77735 
L 238.097147 266.184556 
L 237.955921 266.888447 
L 237.955921 267.538148 
L 237.522829 269.594478 
L 236.948511 270.622931 
L 237.522829 271.597771 
L 237.522829 273.546298 
L 236.807285 274.520561 
L 236.807285 274.845123 
L 236.661352 275.440635 
L 236.948511 275.711007 
L 237.094444 276.036146 
L 236.807285 276.414898 
L 236.661352 276.523277 
L 236.948511 276.90203 
L 237.23567 277.118789 
L 237.23567 277.66011 
L 237.23567 277.66011 
L 236.948511 277.767913 
L 236.807285 278.038862 
L 237.094444 278.201432 
L 237.381603 278.309235 
L 237.381603 278.309235 
L 237.094444 278.363425 
L 237.23567 278.525994 
L 238.530239 278.904746 
L 238.384306 278.796367 
L 238.24308 278.850556 
L 238.530239 279.175695 
L 238.384306 279.175695 
L 238.24308 279.175695 
L 238.530239 279.283498 
L 238.530239 279.717017 
L 238.530239 279.662827 
L 238.958624 279.608637 
L 238.817399 279.662827 
L 239.391717 279.608637 
L 239.678876 279.82482 
L 239.532943 279.82482 
L 239.532943 279.87901 
L 239.820102 280.041579 
L 239.245783 279.87901 
L 239.391717 279.933199 
L 239.391717 279.662827 
L 239.391717 279.662827 
L 239.245783 279.771206 
L 239.245783 280.149959 
L 239.391717 280.204148 
L 240.39442 280.095769 
L 239.966035 280.204148 
L 240.107261 280.420331 
L 240.253194 280.420331 
L 239.966035 280.258338 
L 239.966035 280.311951 
L 239.966035 280.258338 
L 239.820102 280.149959 
L 239.966035 280.095769 
L 239.966035 280.204148 
L 239.820102 280.311951 
L 240.107261 280.204148 
L 240.827512 280.095769 
L 239.966035 280.149959 
L 240.681579 280.041579 
L 240.827512 279.933199 
L 241.40183 279.87901 
L 241.68899 280.095769 
L 241.255897 280.258338 
L 241.255897 280.095769 
L 240.968738 280.095769 
L 241.255897 280.095769 
L 241.68899 279.987389 
L 241.40183 279.987389 
L 241.40183 279.87901 
L 241.543056 279.82482 
L 241.543056 279.87901 
L 240.540353 279.662827 
L 239.104558 279.662827 
L 235.945808 279.121505 
L 233.648535 278.958936 
L 218.424395 278.796367 
L 213.829849 278.742753 
L 204.06644 279.067316 
L 199.04351 279.337688 
L 193.728712 279.500257 
L 177.073485 279.771206 
L 153.667664 280.5829 
L 141.606982 280.74547 
L 135.8638 281.015842 
L 130.407777 281.394594 
L 115.470797 281.935916 
L 95.515593 282.477237 
L 88.190682 282.964369 
L 86.608953 283.181128 
L 84.457614 283.61407 
L 83.883296 283.72245 
L 83.883296 283.992822 
L 84.170455 284.209582 
L 86.754887 284.805093 
L 86.180569 284.696713 
L 86.180569 285.238035 
L 85.893409 285.346414 
L 86.034635 285.400028 
L 86.034635 285.562597 
L 85.893409 285.779356 
L 85.893409 286.103919 
L 85.460317 286.53686 
L 85.747476 286.53686 
L 85.893409 286.482671 
L 86.321794 286.75362 
L 86.608953 286.807809 
L 86.608953 286.969802 
L 86.321794 287.132372 
L 85.60625 287.132372 
L 86.034635 287.186562 
L 87.042046 287.619503 
L 87.183272 287.782073 
L 86.896113 287.944066 
L 86.896113 287.890452 
L 86.608953 287.944066 
L 86.034635 288.160825 
L 85.747476 288.106635 
L 85.747476 287.890452 
L 86.034635 287.944066 
L 85.893409 287.998256 
L 85.60625 288.106635 
L 85.893409 288.106635 
L 86.034635 288.106635 
L 85.60625 288.215015 
L 86.034635 288.106635 
L 85.60625 288.377584 
L 85.893409 288.269205 
L 86.034635 288.593767 
L 85.747476 288.756336 
L 85.893409 288.810526 
L 86.034635 288.864716 
L 86.321794 288.810526 
L 85.60625 288.972519 
L 86.180569 288.918906 
L 86.467728 289.135088 
L 86.180569 289.135088 
L 86.321794 289.080899 
L 86.608953 288.918906 
L 86.608953 288.972519 
L 86.608953 289.080899 
L 86.467728 289.189278 
L 86.467728 289.189278 
L 86.754887 289.243468 
L 86.180569 289.243468 
L 85.60625 289.243468 
L 86.321794 289.297658 
L 86.321794 289.406037 
L 86.467728 289.56803 
L 86.180569 289.67641 
L 85.893409 289.62222 
L 85.893409 289.62222 
L 85.893409 289.893169 
L 85.893409 289.893169 
L 86.034635 289.784789 
L 85.747476 289.56803 
L 85.747476 289.67641 
L 86.034635 289.56803 
L 85.60625 289.7306 
L 85.747476 289.784789 
L 86.608953 289.838979 
L 86.754887 289.947359 
L 86.608953 290.163541 
L 86.180569 290.271921 
L 86.034635 290.163541 
L 86.180569 290.000972 
L 86.467728 289.893169 
L 86.034635 290.000972 
L 86.180569 290.000972 
L 87.042046 290.109352 
L 87.183272 290.109352 
L 86.754887 290.217731 
L 86.180569 290.326111 
L 87.183272 290.217731 
L 87.042046 290.326111 
L 86.034635 290.542294 
L 86.180569 290.596483 
L 86.321794 290.759053 
L 87.042046 290.867432 
L 87.329205 290.975812 
L 87.183272 290.921622 
L 86.467728 290.867432 
L 86.608953 291.029425 
L 87.042046 291.137805 
L 87.329205 291.029425 
L 86.754887 291.083615 
L 86.754887 291.083615 
L 86.321794 290.975812 
L 86.896113 291.191995 
L 87.042046 291.462944 
L 86.608953 291.516557 
L 86.608953 291.516557 
L 86.608953 291.624937 
L 86.467728 291.679126 
L 87.183272 291.354564 
L 87.042046 291.570747 
L 87.183272 291.787506 
L 87.329205 291.733316 
L 87.470431 291.516557 
L 87.329205 291.300374 
L 87.183272 291.354564 
L 87.903523 291.408754 
L 87.75759 291.462944 
L 87.042046 291.570747 
L 86.754887 291.733316 
L 87.75759 291.733316 
L 87.616364 291.841696 
L 87.042046 291.950075 
L 86.896113 291.950075 
L 87.042046 291.733316 
L 86.896113 291.841696 
L 85.893409 292.003689 
L 86.180569 292.003689 
L 86.321794 292.112068 
L 86.321794 292.057878 
L 87.042046 291.950075 
L 87.042046 292.220448 
L 86.896113 292.220448 
L 86.896113 292.003689 
L 86.896113 292.112068 
L 86.754887 292.220448 
L 86.467728 292.328827 
L 87.042046 292.383017 
L 86.896113 292.491397 
L 86.896113 292.491397 
L 87.75759 292.166258 
L 87.75759 292.112068 
L 87.903523 292.166258 
L 87.042046 292.274638 
L 87.183272 292.166258 
L 88.044749 292.220448 
L 87.616364 292.112068 
L 87.616364 292.003689 
L 87.183272 292.112068 
L 86.608953 292.057878 
L 86.608953 292.003689 
L 86.896113 291.841696 
L 87.470431 291.787506 
L 87.616364 291.895886 
L 87.329205 291.950075 
L 87.329205 291.895886 
L 86.467728 292.003689 
L 86.180569 291.895886 
L 86.180569 291.733316 
L 86.321794 291.679126 
L 86.034635 291.679126 
L 86.034635 291.624937 
L 86.608953 291.516557 
L 87.329205 291.354564 
L 87.042046 291.300374 
L 86.321794 291.408754 
L 86.321794 291.300374 
L 87.042046 290.921622 
L 86.754887 290.704863 
L 87.183272 290.975812 
L 87.470431 290.975812 
L 87.470431 290.813243 
L 87.183272 290.650673 
L 87.329205 290.650673 
L 87.329205 290.596483 
L 86.467728 290.488104 
L 85.893409 290.596483 
L 86.321794 290.596483 
L 86.608953 290.596483 
L 87.042046 290.488104 
L 86.467728 290.326111 
L 87.042046 290.217731 
L 87.329205 290.163541 
L 87.183272 290.163541 
L 87.616364 290.055162 
L 87.183272 290.055162 
L 87.042046 290.000972 
L 87.329205 289.7306 
L 87.183272 289.784789 
L 87.042046 289.784789 
L 87.042046 289.893169 
L 87.042046 290.055162 
L 86.896113 290.271921 
L 87.042046 290.163541 
L 87.470431 290.109352 
L 87.042046 290.163541 
L 86.896113 290.000972 
L 87.470431 289.893169 
L 87.903523 290.000972 
L 88.331908 290.055162 
L 88.477841 290.326111 
L 88.190682 290.380301 
L 88.190682 290.271921 
L 88.477841 290.000972 
L 88.477841 289.7306 
L 88.331908 289.7306 
L 88.331908 289.784789 
L 88.906226 290.055162 
L 88.190682 289.784789 
L 88.765 289.947359 
L 89.05216 289.947359 
L 89.05216 289.838979 
L 88.477841 289.838979 
L 88.477841 289.947359 
L 89.05216 290.000972 
L 89.339319 289.947359 
L 88.906226 289.947359 
L 88.619067 289.947359 
L 88.906226 289.838979 
L 88.906226 289.7306 
L 88.765 289.67641 
L 89.193385 289.7306 
L 89.626478 289.7306 
L 89.05216 289.784789 
L 89.480544 289.784789 
L 89.767704 289.893169 
L 89.913637 289.7306 
L 89.193385 289.7306 
L 89.626478 289.838979 
L 89.913637 289.893169 
L 89.480544 289.784789 
L 89.480544 289.67641 
L 89.913637 289.838979 
L 89.913637 289.784789 
L 89.913637 289.62222 
L 90.200796 289.62222 
L 89.913637 289.62222 
L 89.193385 289.406037 
L 89.767704 289.406037 
L 90.054863 289.56803 
L 89.480544 289.351847 
L 89.767704 289.459651 
L 89.913637 289.62222 
L 89.767704 289.406037 
L 89.480544 289.351847 
L 90.054863 289.297658 
L 90.487955 289.243468 
L 90.342022 289.135088 
L 90.054863 289.080899 
L 90.342022 289.243468 
L 89.767704 289.135088 
L 89.626478 289.026709 
L 90.487955 289.026709 
L 90.487955 289.080899 
L 89.913637 289.080899 
L 89.913637 289.135088 
L 90.342022 289.351847 
L 91.062273 289.459651 
L 91.203499 289.406037 
L 91.062273 289.297658 
L 91.062273 289.297658 
L 90.487955 289.351847 
L 90.629181 289.351847 
L 91.203499 289.51384 
L 92.21091 289.351847 
L 91.923751 289.297658 
L 91.490658 289.297658 
L 91.349432 289.62222 
L 91.349432 289.784789 
L 91.349432 289.7306 
L 91.062273 289.784789 
L 91.923751 289.784789 
L 92.21091 289.893169 
L 92.064976 289.7306 
L 92.926454 289.67641 
L 92.639295 289.62222 
L 92.785228 289.784789 
L 92.639295 289.784789 
L 93.072387 289.784789 
L 92.785228 289.7306 
L 92.352135 289.62222 
L 93.072387 289.7306 
L 93.072387 289.67641 
L 93.072387 289.67641 
L 92.498069 289.784789 
L 93.072387 289.62222 
L 92.926454 289.51384 
L 93.072387 289.56803 
L 93.646705 289.67641 
L 93.359546 289.7306 
L 93.072387 289.7306 
L 94.079798 289.67641 
L 93.933864 289.67641 
L 93.505479 289.406037 
L 93.933864 289.459651 
L 93.933864 289.459651 
L 94.079798 289.784789 
L 93.933864 289.784789 
L 93.933864 289.7306 
L 93.933864 289.56803 
L 93.359546 289.51384 
L 94.221023 289.56803 
L 93.792638 289.56803 
L 93.359546 289.7306 
L 94.221023 289.62222 
L 94.366957 289.67641 
L 93.792638 289.7306 
L 94.654116 289.56803 
L 94.079798 289.62222 
L 93.792638 289.62222 
L 94.795342 289.67641 
L 94.079798 289.7306 
L 94.221023 289.784789 
L 94.221023 289.7306 
L 94.221023 289.62222 
L 94.654116 289.459651 
L 95.082501 289.459651 
L 95.082501 289.56803 
L 94.941275 289.7306 
L 94.654116 289.784789 
L 94.221023 289.62222 
L 93.792638 289.62222 
L 93.792638 289.67641 
L 94.221023 289.947359 
L 93.933864 290.055162 
L 93.646705 290.000972 
L 94.221023 290.000972 
L 94.795342 290.055162 
L 94.079798 290.055162 
L 93.646705 290.326111 
L 93.646705 290.271921 
L 93.359546 290.217731 
L 93.792638 290.109352 
L 93.505479 290.217731 
L 93.792638 290.542294 
L 93.933864 290.43449 
L 93.646705 290.380301 
L 93.213613 290.650673 
L 93.646705 290.704863 
L 93.792638 290.650673 
L 93.505479 290.650673 
L 93.646705 290.650673 
L 93.505479 290.596483 
L 93.213613 290.813243 
L 93.213613 290.813243 
L 93.505479 290.813243 
L 93.072387 290.759053 
L 92.785228 290.596483 
L 93.213613 290.867432 
L 93.213613 290.867432 
L 93.505479 290.975812 
L 93.359546 290.975812 
L 92.352135 290.813243 
L 92.352135 290.759053 
L 92.21091 290.867432 
L 92.21091 291.029425 
L 92.352135 291.191995 
L 92.498069 291.137805 
L 92.639295 290.921622 
L 92.639295 290.542294 
L 92.639295 290.596483 
L 92.21091 290.921622 
L 92.064976 291.029425 
L 92.498069 291.137805 
L 92.498069 291.137805 
L 92.21091 291.300374 
L 92.352135 291.408754 
L 92.498069 291.300374 
L 92.498069 291.137805 
L 91.923751 291.354564 
L 91.636591 291.462944 
L 91.636591 291.462944 
L 91.349432 291.354564 
L 91.777817 291.408754 
L 92.352135 291.300374 
L 92.639295 291.408754 
L 92.498069 291.462944 
L 92.064976 291.462944 
L 91.636591 291.137805 
L 91.777817 291.083615 
L 91.636591 291.246184 
L 91.349432 291.570747 
L 91.349432 291.462944 
L 91.203499 291.354564 
L 91.349432 291.246184 
L 91.923751 291.300374 
L 91.777817 291.462944 
L 91.777817 291.354564 
L 91.636591 291.246184 
L 92.064976 291.300374 
L 91.349432 291.191995 
L 91.923751 291.191995 
L 91.636591 291.029425 
L 90.91634 291.029425 
L 91.062273 291.083615 
L 91.636591 291.246184 
L 91.490658 291.300374 
L 91.490658 291.516557 
L 92.064976 291.137805 
L 91.777817 291.408754 
L 91.923751 291.408754 
L 91.777817 291.462944 
L 91.636591 291.570747 
L 91.062273 291.300374 
L 91.203499 291.354564 
L 92.064976 291.570747 
L 91.777817 291.570747 
L 91.777817 291.624937 
L 92.21091 291.679126 
L 90.91634 291.516557 
L 90.91634 291.516557 
" style="fill:none;stroke:#1f77b4;stroke-linecap:square;stroke-width:1.5;"/>
   </g>
   <g id="matplotlib.axis_1">
    <g id="xtick_1">
     <g id="line2d_2">
      <defs>
       <path d="M 0 0 
L 0 3.5 
" id="m99161619f0" style="stroke:#000000;stroke-width:0.8;"/>
      </defs>
      <g>
       <use style="stroke:#000000;stroke-width:0.8;" x="100.166629" xlink:href="#m99161619f0" y="307.584"/>
      </g>
     </g>
     <g id="text_1">
      <!-- 400 -->
      <defs>
       <path d="M 10.59375 35.5 
L 73.1875 35.5 
L 73.1875 27.203125 
L 10.59375 27.203125 
z
" id="DejaVuSans-8722"/>
       <path d="M 37.796875 64.3125 
L 12.890625 25.390625 
L 37.796875 25.390625 
z
M 35.203125 72.90625 
L 47.609375 72.90625 
L 47.609375 25.390625 
L 58.015625 25.390625 
L 58.015625 17.1875 
L 47.609375 17.1875 
L 47.609375 0 
L 37.796875 0 
L 37.796875 17.1875 
L 4.890625 17.1875 
L 4.890625 26.703125 
z
" id="DejaVuSans-52"/>
       <path d="M 31.78125 66.40625 
Q 24.171875 66.40625 20.328125 58.90625 
Q 16.5 51.421875 16.5 36.375 
Q 16.5 21.390625 20.328125 13.890625 
Q 24.171875 6.390625 31.78125 6.390625 
Q 39.453125 6.390625 43.28125 13.890625 
Q 47.125 21.390625 47.125 36.375 
Q 47.125 51.421875 43.28125 58.90625 
Q 39.453125 66.40625 31.78125 66.40625 
z
M 31.78125 74.21875 
Q 44.046875 74.21875 50.515625 64.515625 
Q 56.984375 54.828125 56.984375 36.375 
Q 56.984375 17.96875 50.515625 8.265625 
Q 44.046875 -1.421875 31.78125 -1.421875 
Q 19.53125 -1.421875 13.0625 8.265625 
Q 6.59375 17.96875 6.59375 36.375 
Q 6.59375 54.828125 13.0625 64.515625 
Q 19.53125 74.21875 31.78125 74.21875 
z
" id="DejaVuSans-48"/>
      </defs>
      <g transform="translate(86.433035 322.182437)scale(0.1 -0.1)">
       <use xlink:href="#DejaVuSans-8722"/>
       <use x="83.789062" xlink:href="#DejaVuSans-52"/>
       <use x="147.412109" xlink:href="#DejaVuSans-48"/>
       <use x="211.035156" xlink:href="#DejaVuSans-48"/>
      </g>
     </g>
    </g>
    <g id="xtick_2">
     <g id="line2d_3">
      <g>
       <use style="stroke:#000000;stroke-width:0.8;" x="147.241891" xlink:href="#m99161619f0" y="307.584"/>
      </g>
     </g>
     <g id="text_2">
      <!-- 300 -->
      <defs>
       <path d="M 40.578125 39.3125 
Q 47.65625 37.796875 51.625 33 
Q 55.609375 28.21875 55.609375 21.1875 
Q 55.609375 10.40625 48.1875 4.484375 
Q 40.765625 -1.421875 27.09375 -1.421875 
Q 22.515625 -1.421875 17.65625 -0.515625 
Q 12.796875 0.390625 7.625 2.203125 
L 7.625 11.71875 
Q 11.71875 9.328125 16.59375 8.109375 
Q 21.484375 6.890625 26.8125 6.890625 
Q 36.078125 6.890625 40.9375 10.546875 
Q 45.796875 14.203125 45.796875 21.1875 
Q 45.796875 27.640625 41.28125 31.265625 
Q 36.765625 34.90625 28.71875 34.90625 
L 20.21875 34.90625 
L 20.21875 43.015625 
L 29.109375 43.015625 
Q 36.375 43.015625 40.234375 45.921875 
Q 44.09375 48.828125 44.09375 54.296875 
Q 44.09375 59.90625 40.109375 62.90625 
Q 36.140625 65.921875 28.71875 65.921875 
Q 24.65625 65.921875 20.015625 65.03125 
Q 15.375 64.15625 9.8125 62.3125 
L 9.8125 71.09375 
Q 15.4375 72.65625 20.34375 73.4375 
Q 25.25 74.21875 29.59375 74.21875 
Q 40.828125 74.21875 47.359375 69.109375 
Q 53.90625 64.015625 53.90625 55.328125 
Q 53.90625 49.265625 50.4375 45.09375 
Q 46.96875 40.921875 40.578125 39.3125 
z
" id="DejaVuSans-51"/>
      </defs>
      <g transform="translate(133.508297 322.182437)scale(0.1 -0.1)">
       <use xlink:href="#DejaVuSans-8722"/>
       <use x="83.789062" xlink:href="#DejaVuSans-51"/>
       <use x="147.412109" xlink:href="#DejaVuSans-48"/>
       <use x="211.035156" xlink:href="#DejaVuSans-48"/>
      </g>
     </g>
    </g>
    <g id="xtick_3">
     <g id="line2d_4">
      <g>
       <use style="stroke:#000000;stroke-width:0.8;" x="194.317153" xlink:href="#m99161619f0" y="307.584"/>
      </g>
     </g>
     <g id="text_3">
      <!-- 200 -->
      <defs>
       <path d="M 19.1875 8.296875 
L 53.609375 8.296875 
L 53.609375 0 
L 7.328125 0 
L 7.328125 8.296875 
Q 12.9375 14.109375 22.625 23.890625 
Q 32.328125 33.6875 34.8125 36.53125 
Q 39.546875 41.84375 41.421875 45.53125 
Q 43.3125 49.21875 43.3125 52.78125 
Q 43.3125 58.59375 39.234375 62.25 
Q 35.15625 65.921875 28.609375 65.921875 
Q 23.96875 65.921875 18.8125 64.3125 
Q 13.671875 62.703125 7.8125 59.421875 
L 7.8125 69.390625 
Q 13.765625 71.78125 18.9375 73 
Q 24.125 74.21875 28.421875 74.21875 
Q 39.75 74.21875 46.484375 68.546875 
Q 53.21875 62.890625 53.21875 53.421875 
Q 53.21875 48.921875 51.53125 44.890625 
Q 49.859375 40.875 45.40625 35.40625 
Q 44.1875 33.984375 37.640625 27.21875 
Q 31.109375 20.453125 19.1875 8.296875 
z
" id="DejaVuSans-50"/>
      </defs>
      <g transform="translate(180.583559 322.182437)scale(0.1 -0.1)">
       <use xlink:href="#DejaVuSans-8722"/>
       <use x="83.789062" xlink:href="#DejaVuSans-50"/>
       <use x="147.412109" xlink:href="#DejaVuSans-48"/>
       <use x="211.035156" xlink:href="#DejaVuSans-48"/>
      </g>
     </g>
    </g>
    <g id="xtick_4">
     <g id="line2d_5">
      <g>
       <use style="stroke:#000000;stroke-width:0.8;" x="241.392415" xlink:href="#m99161619f0" y="307.584"/>
      </g>
     </g>
     <g id="text_4">
      <!-- 100 -->
      <defs>
       <path d="M 12.40625 8.296875 
L 28.515625 8.296875 
L 28.515625 63.921875 
L 10.984375 60.40625 
L 10.984375 69.390625 
L 28.421875 72.90625 
L 38.28125 72.90625 
L 38.28125 8.296875 
L 54.390625 8.296875 
L 54.390625 0 
L 12.40625 0 
z
" id="DejaVuSans-49"/>
      </defs>
      <g transform="translate(227.658822 322.182437)scale(0.1 -0.1)">
       <use xlink:href="#DejaVuSans-8722"/>
       <use x="83.789062" xlink:href="#DejaVuSans-49"/>
       <use x="147.412109" xlink:href="#DejaVuSans-48"/>
       <use x="211.035156" xlink:href="#DejaVuSans-48"/>
      </g>
     </g>
    </g>
    <g id="xtick_5">
     <g id="line2d_6">
      <g>
       <use style="stroke:#000000;stroke-width:0.8;" x="288.467678" xlink:href="#m99161619f0" y="307.584"/>
      </g>
     </g>
     <g id="text_5">
      <!-- 0 -->
      <g transform="translate(285.286428 322.182437)scale(0.1 -0.1)">
       <use xlink:href="#DejaVuSans-48"/>
      </g>
     </g>
    </g>
    <g id="xtick_6">
     <g id="line2d_7">
      <g>
       <use style="stroke:#000000;stroke-width:0.8;" x="335.54294" xlink:href="#m99161619f0" y="307.584"/>
      </g>
     </g>
     <g id="text_6">
      <!-- 100 -->
      <g transform="translate(325.99919 322.182437)scale(0.1 -0.1)">
       <use xlink:href="#DejaVuSans-49"/>
       <use x="63.623047" xlink:href="#DejaVuSans-48"/>
       <use x="127.246094" xlink:href="#DejaVuSans-48"/>
      </g>
     </g>
    </g>
    <g id="xtick_7">
     <g id="line2d_8">
      <g>
       <use style="stroke:#000000;stroke-width:0.8;" x="382.618202" xlink:href="#m99161619f0" y="307.584"/>
      </g>
     </g>
     <g id="text_7">
      <!-- 200 -->
      <g transform="translate(373.074452 322.182437)scale(0.1 -0.1)">
       <use xlink:href="#DejaVuSans-50"/>
       <use x="63.623047" xlink:href="#DejaVuSans-48"/>
       <use x="127.246094" xlink:href="#DejaVuSans-48"/>
      </g>
     </g>
    </g>
   </g>
   <g id="matplotlib.axis_2">
    <g id="ytick_1">
     <g id="line2d_9">
      <defs>
       <path d="M 0 0 
L -3.5 0 
" id="mde89155dd5" style="stroke:#000000;stroke-width:0.8;"/>
      </defs>
      <g>
       <use style="stroke:#000000;stroke-width:0.8;" x="57.6" xlink:href="#mde89155dd5" y="251.258725"/>
      </g>
     </g>
     <g id="text_8">
      <!-- 0 -->
      <g transform="translate(44.2375 255.057944)scale(0.1 -0.1)">
       <use xlink:href="#DejaVuSans-48"/>
      </g>
     </g>
    </g>
    <g id="ytick_2">
     <g id="line2d_10">
      <g>
       <use style="stroke:#000000;stroke-width:0.8;" x="57.6" xlink:href="#mde89155dd5" y="193.610004"/>
      </g>
     </g>
     <g id="text_9">
      <!-- 1000 -->
      <g transform="translate(25.15 197.409223)scale(0.1 -0.1)">
       <use xlink:href="#DejaVuSans-49"/>
       <use x="63.623047" xlink:href="#DejaVuSans-48"/>
       <use x="127.246094" xlink:href="#DejaVuSans-48"/>
       <use x="190.869141" xlink:href="#DejaVuSans-48"/>
      </g>
     </g>
    </g>
    <g id="ytick_3">
     <g id="line2d_11">
      <g>
       <use style="stroke:#000000;stroke-width:0.8;" x="57.6" xlink:href="#mde89155dd5" y="135.961282"/>
      </g>
     </g>
     <g id="text_10">
      <!-- 2000 -->
      <g transform="translate(25.15 139.760501)scale(0.1 -0.1)">
       <use xlink:href="#DejaVuSans-50"/>
       <use x="63.623047" xlink:href="#DejaVuSans-48"/>
       <use x="127.246094" xlink:href="#DejaVuSans-48"/>
       <use x="190.869141" xlink:href="#DejaVuSans-48"/>
      </g>
     </g>
    </g>
    <g id="ytick_4">
     <g id="line2d_12">
      <g>
       <use style="stroke:#000000;stroke-width:0.8;" x="57.6" xlink:href="#mde89155dd5" y="78.312561"/>
      </g>
     </g>
     <g id="text_11">
      <!-- 3000 -->
      <g transform="translate(25.15 82.111779)scale(0.1 -0.1)">
       <use xlink:href="#DejaVuSans-51"/>
       <use x="63.623047" xlink:href="#DejaVuSans-48"/>
       <use x="127.246094" xlink:href="#DejaVuSans-48"/>
       <use x="190.869141" xlink:href="#DejaVuSans-48"/>
      </g>
     </g>
    </g>
   </g>
   <g id="line2d_13">
    <path clip-path="url(#p7fc6675565)" d="M 286.840999 252.54127 
L 360.55426 264.779678 
L 393.492416 282.524069 
L 291.624659 252.653849 
L 277.794329 226.207558 
L 282.289381 73.769739 
L 288.563736 55.185698 
L 248.730352 270.128702 
L 78.146894 286.701857 
L 77.053024 290.493401 
L 358.603952 292.066442 
L 362.644733 292.018542 
L 131.211798 292.574312 
L 129.258681 294.175339 
L 379.535874 290.867103 
L 265.9701 243.551793 
L 262.652675 231.522975 
L 238.743859 278.749328 
L 86.289825 287.123118 
L 89.88719 290.481016 
" style="fill:none;stroke:#ff0000;stroke-linecap:square;stroke-width:0.5;"/>
   </g>
   <g id="patch_3">
    <path d="M 57.6 307.584 
L 57.6 41.472 
" style="fill:none;stroke:#000000;stroke-linecap:square;stroke-linejoin:miter;stroke-width:0.8;"/>
   </g>
   <g id="patch_4">
    <path d="M 414.72 307.584 
L 414.72 41.472 
" style="fill:none;stroke:#000000;stroke-linecap:square;stroke-linejoin:miter;stroke-width:0.8;"/>
   </g>
   <g id="patch_5">
    <path d="M 57.6 307.584 
L 414.72 307.584 
" style="fill:none;stroke:#000000;stroke-linecap:square;stroke-linejoin:miter;stroke-width:0.8;"/>
   </g>
   <g id="patch_6">
    <path d="M 57.6 41.472 
L 414.72 41.472 
" style="fill:none;stroke:#000000;stroke-linecap:square;stroke-linejoin:miter;stroke-width:0.8;"/>
   </g>
   <g id="PathCollection_1">
    <defs>
     <path d="M 0 2.738613 
C 0.726289 2.738613 1.422928 2.450055 1.936492 1.936492 
C 2.450055 1.422928 2.738613 0.726289 2.738613 0 
C 2.738613 -0.726289 2.450055 -1.422928 1.936492 -1.936492 
C 1.422928 -2.450055 0.726289 -2.738613 0 -2.738613 
C -0.726289 -2.738613 -1.422928 -2.450055 -1.936492 -1.936492 
C -2.450055 -1.422928 -2.738613 -0.726289 -2.738613 0 
C -2.738613 0.726289 -2.450055 1.422928 -1.936492 1.936492 
C -1.422928 2.450055 -0.726289 2.738613 0 2.738613 
z
" id="md9a3bd8226" style="stroke:#ff0000;"/>
    </defs>
    <g clip-path="url(#p7fc6675565)">
     <use style="fill:#ff0000;stroke:#ff0000;" x="286.840999" xlink:href="#md9a3bd8226" y="252.54127"/>
     <use style="fill:#ff0000;stroke:#ff0000;" x="360.55426" xlink:href="#md9a3bd8226" y="264.779678"/>
     <use style="fill:#ff0000;stroke:#ff0000;" x="393.492416" xlink:href="#md9a3bd8226" y="282.524069"/>
     <use style="fill:#ff0000;stroke:#ff0000;" x="291.624659" xlink:href="#md9a3bd8226" y="252.653849"/>
     <use style="fill:#ff0000;stroke:#ff0000;" x="277.794329" xlink:href="#md9a3bd8226" y="226.207558"/>
     <use style="fill:#ff0000;stroke:#ff0000;" x="282.289381" xlink:href="#md9a3bd8226" y="73.769739"/>
     <use style="fill:#ff0000;stroke:#ff0000;" x="288.563736" xlink:href="#md9a3bd8226" y="55.185698"/>
     <use style="fill:#ff0000;stroke:#ff0000;" x="248.730352" xlink:href="#md9a3bd8226" y="270.128702"/>
     <use style="fill:#ff0000;stroke:#ff0000;" x="78.146894" xlink:href="#md9a3bd8226" y="286.701857"/>
     <use style="fill:#ff0000;stroke:#ff0000;" x="77.053024" xlink:href="#md9a3bd8226" y="290.493401"/>
     <use style="fill:#ff0000;stroke:#ff0000;" x="358.603952" xlink:href="#md9a3bd8226" y="292.066442"/>
     <use style="fill:#ff0000;stroke:#ff0000;" x="362.644733" xlink:href="#md9a3bd8226" y="292.018542"/>
     <use style="fill:#ff0000;stroke:#ff0000;" x="131.211798" xlink:href="#md9a3bd8226" y="292.574312"/>
     <use style="fill:#ff0000;stroke:#ff0000;" x="129.258681" xlink:href="#md9a3bd8226" y="294.175339"/>
     <use style="fill:#ff0000;stroke:#ff0000;" x="379.535874" xlink:href="#md9a3bd8226" y="290.867103"/>
     <use style="fill:#ff0000;stroke:#ff0000;" x="265.9701" xlink:href="#md9a3bd8226" y="243.551793"/>
     <use style="fill:#ff0000;stroke:#ff0000;" x="262.652675" xlink:href="#md9a3bd8226" y="231.522975"/>
     <use style="fill:#ff0000;stroke:#ff0000;" x="238.743859" xlink:href="#md9a3bd8226" y="278.749328"/>
     <use style="fill:#ff0000;stroke:#ff0000;" x="86.289825" xlink:href="#md9a3bd8226" y="287.123118"/>
     <use style="fill:#ff0000;stroke:#ff0000;" x="89.88719" xlink:href="#md9a3bd8226" y="290.481016"/>
    </g>
   </g>
   <g id="text_12">
    <!-- (80) Subject: s27, Known = False, Degree = 1, Duration = 0.1 -->
    <defs>
     <path d="M 31 75.875 
Q 24.46875 64.65625 21.28125 53.65625 
Q 18.109375 42.671875 18.109375 31.390625 
Q 18.109375 20.125 21.3125 9.0625 
Q 24.515625 -2 31 -13.1875 
L 23.1875 -13.1875 
Q 15.875 -1.703125 12.234375 9.375 
Q 8.59375 20.453125 8.59375 31.390625 
Q 8.59375 42.28125 12.203125 53.3125 
Q 15.828125 64.359375 23.1875 75.875 
z
" id="DejaVuSans-40"/>
     <path d="M 31.78125 34.625 
Q 24.75 34.625 20.71875 30.859375 
Q 16.703125 27.09375 16.703125 20.515625 
Q 16.703125 13.921875 20.71875 10.15625 
Q 24.75 6.390625 31.78125 6.390625 
Q 38.8125 6.390625 42.859375 10.171875 
Q 46.921875 13.96875 46.921875 20.515625 
Q 46.921875 27.09375 42.890625 30.859375 
Q 38.875 34.625 31.78125 34.625 
z
M 21.921875 38.8125 
Q 15.578125 40.375 12.03125 44.71875 
Q 8.5 49.078125 8.5 55.328125 
Q 8.5 64.0625 14.71875 69.140625 
Q 20.953125 74.21875 31.78125 74.21875 
Q 42.671875 74.21875 48.875 69.140625 
Q 55.078125 64.0625 55.078125 55.328125 
Q 55.078125 49.078125 51.53125 44.71875 
Q 48 40.375 41.703125 38.8125 
Q 48.828125 37.15625 52.796875 32.3125 
Q 56.78125 27.484375 56.78125 20.515625 
Q 56.78125 9.90625 50.3125 4.234375 
Q 43.84375 -1.421875 31.78125 -1.421875 
Q 19.734375 -1.421875 13.25 4.234375 
Q 6.78125 9.90625 6.78125 20.515625 
Q 6.78125 27.484375 10.78125 32.3125 
Q 14.796875 37.15625 21.921875 38.8125 
z
M 18.3125 54.390625 
Q 18.3125 48.734375 21.84375 45.5625 
Q 25.390625 42.390625 31.78125 42.390625 
Q 38.140625 42.390625 41.71875 45.5625 
Q 45.3125 48.734375 45.3125 54.390625 
Q 45.3125 60.0625 41.71875 63.234375 
Q 38.140625 66.40625 31.78125 66.40625 
Q 25.390625 66.40625 21.84375 63.234375 
Q 18.3125 60.0625 18.3125 54.390625 
z
" id="DejaVuSans-56"/>
     <path d="M 8.015625 75.875 
L 15.828125 75.875 
Q 23.140625 64.359375 26.78125 53.3125 
Q 30.421875 42.28125 30.421875 31.390625 
Q 30.421875 20.453125 26.78125 9.375 
Q 23.140625 -1.703125 15.828125 -13.1875 
L 8.015625 -13.1875 
Q 14.5 -2 17.703125 9.0625 
Q 20.90625 20.125 20.90625 31.390625 
Q 20.90625 42.671875 17.703125 53.65625 
Q 14.5 64.65625 8.015625 75.875 
z
" id="DejaVuSans-41"/>
     <path id="DejaVuSans-32"/>
     <path d="M 53.515625 70.515625 
L 53.515625 60.890625 
Q 47.90625 63.578125 42.921875 64.890625 
Q 37.9375 66.21875 33.296875 66.21875 
Q 25.25 66.21875 20.875 63.09375 
Q 16.5 59.96875 16.5 54.203125 
Q 16.5 49.359375 19.40625 46.890625 
Q 22.3125 44.4375 30.421875 42.921875 
L 36.375 41.703125 
Q 47.40625 39.59375 52.65625 34.296875 
Q 57.90625 29 57.90625 20.125 
Q 57.90625 9.515625 50.796875 4.046875 
Q 43.703125 -1.421875 29.984375 -1.421875 
Q 24.8125 -1.421875 18.96875 -0.25 
Q 13.140625 0.921875 6.890625 3.21875 
L 6.890625 13.375 
Q 12.890625 10.015625 18.65625 8.296875 
Q 24.421875 6.59375 29.984375 6.59375 
Q 38.421875 6.59375 43.015625 9.90625 
Q 47.609375 13.234375 47.609375 19.390625 
Q 47.609375 24.75 44.3125 27.78125 
Q 41.015625 30.8125 33.5 32.328125 
L 27.484375 33.5 
Q 16.453125 35.6875 11.515625 40.375 
Q 6.59375 45.0625 6.59375 53.421875 
Q 6.59375 63.09375 13.40625 68.65625 
Q 20.21875 74.21875 32.171875 74.21875 
Q 37.3125 74.21875 42.625 73.28125 
Q 47.953125 72.359375 53.515625 70.515625 
z
" id="DejaVuSans-83"/>
     <path d="M 8.5 21.578125 
L 8.5 54.6875 
L 17.484375 54.6875 
L 17.484375 21.921875 
Q 17.484375 14.15625 20.5 10.265625 
Q 23.53125 6.390625 29.59375 6.390625 
Q 36.859375 6.390625 41.078125 11.03125 
Q 45.3125 15.671875 45.3125 23.6875 
L 45.3125 54.6875 
L 54.296875 54.6875 
L 54.296875 0 
L 45.3125 0 
L 45.3125 8.40625 
Q 42.046875 3.421875 37.71875 1 
Q 33.40625 -1.421875 27.6875 -1.421875 
Q 18.265625 -1.421875 13.375 4.4375 
Q 8.5 10.296875 8.5 21.578125 
z
M 31.109375 56 
z
" id="DejaVuSans-117"/>
     <path d="M 48.6875 27.296875 
Q 48.6875 37.203125 44.609375 42.84375 
Q 40.53125 48.484375 33.40625 48.484375 
Q 26.265625 48.484375 22.1875 42.84375 
Q 18.109375 37.203125 18.109375 27.296875 
Q 18.109375 17.390625 22.1875 11.75 
Q 26.265625 6.109375 33.40625 6.109375 
Q 40.53125 6.109375 44.609375 11.75 
Q 48.6875 17.390625 48.6875 27.296875 
z
M 18.109375 46.390625 
Q 20.953125 51.265625 25.265625 53.625 
Q 29.59375 56 35.59375 56 
Q 45.5625 56 51.78125 48.09375 
Q 58.015625 40.1875 58.015625 27.296875 
Q 58.015625 14.40625 51.78125 6.484375 
Q 45.5625 -1.421875 35.59375 -1.421875 
Q 29.59375 -1.421875 25.265625 0.953125 
Q 20.953125 3.328125 18.109375 8.203125 
L 18.109375 0 
L 9.078125 0 
L 9.078125 75.984375 
L 18.109375 75.984375 
z
" id="DejaVuSans-98"/>
     <path d="M 9.421875 54.6875 
L 18.40625 54.6875 
L 18.40625 -0.984375 
Q 18.40625 -11.421875 14.421875 -16.109375 
Q 10.453125 -20.796875 1.609375 -20.796875 
L -1.8125 -20.796875 
L -1.8125 -13.1875 
L 0.59375 -13.1875 
Q 5.71875 -13.1875 7.5625 -10.8125 
Q 9.421875 -8.453125 9.421875 -0.984375 
z
M 9.421875 75.984375 
L 18.40625 75.984375 
L 18.40625 64.59375 
L 9.421875 64.59375 
z
" id="DejaVuSans-106"/>
     <path d="M 56.203125 29.59375 
L 56.203125 25.203125 
L 14.890625 25.203125 
Q 15.484375 15.921875 20.484375 11.0625 
Q 25.484375 6.203125 34.421875 6.203125 
Q 39.59375 6.203125 44.453125 7.46875 
Q 49.3125 8.734375 54.109375 11.28125 
L 54.109375 2.78125 
Q 49.265625 0.734375 44.1875 -0.34375 
Q 39.109375 -1.421875 33.890625 -1.421875 
Q 20.796875 -1.421875 13.15625 6.1875 
Q 5.515625 13.8125 5.515625 26.8125 
Q 5.515625 40.234375 12.765625 48.109375 
Q 20.015625 56 32.328125 56 
Q 43.359375 56 49.78125 48.890625 
Q 56.203125 41.796875 56.203125 29.59375 
z
M 47.21875 32.234375 
Q 47.125 39.59375 43.09375 43.984375 
Q 39.0625 48.390625 32.421875 48.390625 
Q 24.90625 48.390625 20.390625 44.140625 
Q 15.875 39.890625 15.1875 32.171875 
z
" id="DejaVuSans-101"/>
     <path d="M 48.78125 52.59375 
L 48.78125 44.1875 
Q 44.96875 46.296875 41.140625 47.34375 
Q 37.3125 48.390625 33.40625 48.390625 
Q 24.65625 48.390625 19.8125 42.84375 
Q 14.984375 37.3125 14.984375 27.296875 
Q 14.984375 17.28125 19.8125 11.734375 
Q 24.65625 6.203125 33.40625 6.203125 
Q 37.3125 6.203125 41.140625 7.25 
Q 44.96875 8.296875 48.78125 10.40625 
L 48.78125 2.09375 
Q 45.015625 0.34375 40.984375 -0.53125 
Q 36.96875 -1.421875 32.421875 -1.421875 
Q 20.0625 -1.421875 12.78125 6.34375 
Q 5.515625 14.109375 5.515625 27.296875 
Q 5.515625 40.671875 12.859375 48.328125 
Q 20.21875 56 33.015625 56 
Q 37.15625 56 41.109375 55.140625 
Q 45.0625 54.296875 48.78125 52.59375 
z
" id="DejaVuSans-99"/>
     <path d="M 18.3125 70.21875 
L 18.3125 54.6875 
L 36.8125 54.6875 
L 36.8125 47.703125 
L 18.3125 47.703125 
L 18.3125 18.015625 
Q 18.3125 11.328125 20.140625 9.421875 
Q 21.96875 7.515625 27.59375 7.515625 
L 36.8125 7.515625 
L 36.8125 0 
L 27.59375 0 
Q 17.1875 0 13.234375 3.875 
Q 9.28125 7.765625 9.28125 18.015625 
L 9.28125 47.703125 
L 2.6875 47.703125 
L 2.6875 54.6875 
L 9.28125 54.6875 
L 9.28125 70.21875 
z
" id="DejaVuSans-116"/>
     <path d="M 11.71875 12.40625 
L 22.015625 12.40625 
L 22.015625 0 
L 11.71875 0 
z
M 11.71875 51.703125 
L 22.015625 51.703125 
L 22.015625 39.3125 
L 11.71875 39.3125 
z
" id="DejaVuSans-58"/>
     <path d="M 44.28125 53.078125 
L 44.28125 44.578125 
Q 40.484375 46.53125 36.375 47.5 
Q 32.28125 48.484375 27.875 48.484375 
Q 21.1875 48.484375 17.84375 46.4375 
Q 14.5 44.390625 14.5 40.28125 
Q 14.5 37.15625 16.890625 35.375 
Q 19.28125 33.59375 26.515625 31.984375 
L 29.59375 31.296875 
Q 39.15625 29.25 43.1875 25.515625 
Q 47.21875 21.78125 47.21875 15.09375 
Q 47.21875 7.46875 41.1875 3.015625 
Q 35.15625 -1.421875 24.609375 -1.421875 
Q 20.21875 -1.421875 15.453125 -0.5625 
Q 10.6875 0.296875 5.421875 2 
L 5.421875 11.28125 
Q 10.40625 8.6875 15.234375 7.390625 
Q 20.0625 6.109375 24.8125 6.109375 
Q 31.15625 6.109375 34.5625 8.28125 
Q 37.984375 10.453125 37.984375 14.40625 
Q 37.984375 18.0625 35.515625 20.015625 
Q 33.0625 21.96875 24.703125 23.78125 
L 21.578125 24.515625 
Q 13.234375 26.265625 9.515625 29.90625 
Q 5.8125 33.546875 5.8125 39.890625 
Q 5.8125 47.609375 11.28125 51.796875 
Q 16.75 56 26.8125 56 
Q 31.78125 56 36.171875 55.265625 
Q 40.578125 54.546875 44.28125 53.078125 
z
" id="DejaVuSans-115"/>
     <path d="M 8.203125 72.90625 
L 55.078125 72.90625 
L 55.078125 68.703125 
L 28.609375 0 
L 18.3125 0 
L 43.21875 64.59375 
L 8.203125 64.59375 
z
" id="DejaVuSans-55"/>
     <path d="M 11.71875 12.40625 
L 22.015625 12.40625 
L 22.015625 4 
L 14.015625 -11.625 
L 7.71875 -11.625 
L 11.71875 4 
z
" id="DejaVuSans-44"/>
     <path d="M 9.8125 72.90625 
L 19.671875 72.90625 
L 19.671875 42.09375 
L 52.390625 72.90625 
L 65.09375 72.90625 
L 28.90625 38.921875 
L 67.671875 0 
L 54.6875 0 
L 19.671875 35.109375 
L 19.671875 0 
L 9.8125 0 
z
" id="DejaVuSans-75"/>
     <path d="M 54.890625 33.015625 
L 54.890625 0 
L 45.90625 0 
L 45.90625 32.71875 
Q 45.90625 40.484375 42.875 44.328125 
Q 39.84375 48.1875 33.796875 48.1875 
Q 26.515625 48.1875 22.3125 43.546875 
Q 18.109375 38.921875 18.109375 30.90625 
L 18.109375 0 
L 9.078125 0 
L 9.078125 54.6875 
L 18.109375 54.6875 
L 18.109375 46.1875 
Q 21.34375 51.125 25.703125 53.5625 
Q 30.078125 56 35.796875 56 
Q 45.21875 56 50.046875 50.171875 
Q 54.890625 44.34375 54.890625 33.015625 
z
" id="DejaVuSans-110"/>
     <path d="M 30.609375 48.390625 
Q 23.390625 48.390625 19.1875 42.75 
Q 14.984375 37.109375 14.984375 27.296875 
Q 14.984375 17.484375 19.15625 11.84375 
Q 23.34375 6.203125 30.609375 6.203125 
Q 37.796875 6.203125 41.984375 11.859375 
Q 46.1875 17.53125 46.1875 27.296875 
Q 46.1875 37.015625 41.984375 42.703125 
Q 37.796875 48.390625 30.609375 48.390625 
z
M 30.609375 56 
Q 42.328125 56 49.015625 48.375 
Q 55.71875 40.765625 55.71875 27.296875 
Q 55.71875 13.875 49.015625 6.21875 
Q 42.328125 -1.421875 30.609375 -1.421875 
Q 18.84375 -1.421875 12.171875 6.21875 
Q 5.515625 13.875 5.515625 27.296875 
Q 5.515625 40.765625 12.171875 48.375 
Q 18.84375 56 30.609375 56 
z
" id="DejaVuSans-111"/>
     <path d="M 4.203125 54.6875 
L 13.1875 54.6875 
L 24.421875 12.015625 
L 35.59375 54.6875 
L 46.1875 54.6875 
L 57.421875 12.015625 
L 68.609375 54.6875 
L 77.59375 54.6875 
L 63.28125 0 
L 52.6875 0 
L 40.921875 44.828125 
L 29.109375 0 
L 18.5 0 
z
" id="DejaVuSans-119"/>
     <path d="M 10.59375 45.40625 
L 73.1875 45.40625 
L 73.1875 37.203125 
L 10.59375 37.203125 
z
M 10.59375 25.484375 
L 73.1875 25.484375 
L 73.1875 17.1875 
L 10.59375 17.1875 
z
" id="DejaVuSans-61"/>
     <path d="M 9.8125 72.90625 
L 51.703125 72.90625 
L 51.703125 64.59375 
L 19.671875 64.59375 
L 19.671875 43.109375 
L 48.578125 43.109375 
L 48.578125 34.8125 
L 19.671875 34.8125 
L 19.671875 0 
L 9.8125 0 
z
" id="DejaVuSans-70"/>
     <path d="M 34.28125 27.484375 
Q 23.390625 27.484375 19.1875 25 
Q 14.984375 22.515625 14.984375 16.5 
Q 14.984375 11.71875 18.140625 8.90625 
Q 21.296875 6.109375 26.703125 6.109375 
Q 34.1875 6.109375 38.703125 11.40625 
Q 43.21875 16.703125 43.21875 25.484375 
L 43.21875 27.484375 
z
M 52.203125 31.203125 
L 52.203125 0 
L 43.21875 0 
L 43.21875 8.296875 
Q 40.140625 3.328125 35.546875 0.953125 
Q 30.953125 -1.421875 24.3125 -1.421875 
Q 15.921875 -1.421875 10.953125 3.296875 
Q 6 8.015625 6 15.921875 
Q 6 25.140625 12.171875 29.828125 
Q 18.359375 34.515625 30.609375 34.515625 
L 43.21875 34.515625 
L 43.21875 35.40625 
Q 43.21875 41.609375 39.140625 45 
Q 35.0625 48.390625 27.6875 48.390625 
Q 23 48.390625 18.546875 47.265625 
Q 14.109375 46.140625 10.015625 43.890625 
L 10.015625 52.203125 
Q 14.9375 54.109375 19.578125 55.046875 
Q 24.21875 56 28.609375 56 
Q 40.484375 56 46.34375 49.84375 
Q 52.203125 43.703125 52.203125 31.203125 
z
" id="DejaVuSans-97"/>
     <path d="M 9.421875 75.984375 
L 18.40625 75.984375 
L 18.40625 0 
L 9.421875 0 
z
" id="DejaVuSans-108"/>
     <path d="M 19.671875 64.796875 
L 19.671875 8.109375 
L 31.59375 8.109375 
Q 46.6875 8.109375 53.6875 14.9375 
Q 60.6875 21.78125 60.6875 36.53125 
Q 60.6875 51.171875 53.6875 57.984375 
Q 46.6875 64.796875 31.59375 64.796875 
z
M 9.8125 72.90625 
L 30.078125 72.90625 
Q 51.265625 72.90625 61.171875 64.09375 
Q 71.09375 55.28125 71.09375 36.53125 
Q 71.09375 17.671875 61.125 8.828125 
Q 51.171875 0 30.078125 0 
L 9.8125 0 
z
" id="DejaVuSans-68"/>
     <path d="M 45.40625 27.984375 
Q 45.40625 37.75 41.375 43.109375 
Q 37.359375 48.484375 30.078125 48.484375 
Q 22.859375 48.484375 18.828125 43.109375 
Q 14.796875 37.75 14.796875 27.984375 
Q 14.796875 18.265625 18.828125 12.890625 
Q 22.859375 7.515625 30.078125 7.515625 
Q 37.359375 7.515625 41.375 12.890625 
Q 45.40625 18.265625 45.40625 27.984375 
z
M 54.390625 6.78125 
Q 54.390625 -7.171875 48.1875 -13.984375 
Q 42 -20.796875 29.203125 -20.796875 
Q 24.46875 -20.796875 20.265625 -20.09375 
Q 16.0625 -19.390625 12.109375 -17.921875 
L 12.109375 -9.1875 
Q 16.0625 -11.328125 19.921875 -12.34375 
Q 23.78125 -13.375 27.78125 -13.375 
Q 36.625 -13.375 41.015625 -8.765625 
Q 45.40625 -4.15625 45.40625 5.171875 
L 45.40625 9.625 
Q 42.625 4.78125 38.28125 2.390625 
Q 33.9375 0 27.875 0 
Q 17.828125 0 11.671875 7.65625 
Q 5.515625 15.328125 5.515625 27.984375 
Q 5.515625 40.671875 11.671875 48.328125 
Q 17.828125 56 27.875 56 
Q 33.9375 56 38.28125 53.609375 
Q 42.625 51.21875 45.40625 46.390625 
L 45.40625 54.6875 
L 54.390625 54.6875 
z
" id="DejaVuSans-103"/>
     <path d="M 41.109375 46.296875 
Q 39.59375 47.171875 37.8125 47.578125 
Q 36.03125 48 33.890625 48 
Q 26.265625 48 22.1875 43.046875 
Q 18.109375 38.09375 18.109375 28.8125 
L 18.109375 0 
L 9.078125 0 
L 9.078125 54.6875 
L 18.109375 54.6875 
L 18.109375 46.1875 
Q 20.953125 51.171875 25.484375 53.578125 
Q 30.03125 56 36.53125 56 
Q 37.453125 56 38.578125 55.875 
Q 39.703125 55.765625 41.0625 55.515625 
z
" id="DejaVuSans-114"/>
     <path d="M 9.421875 54.6875 
L 18.40625 54.6875 
L 18.40625 0 
L 9.421875 0 
z
M 9.421875 75.984375 
L 18.40625 75.984375 
L 18.40625 64.59375 
L 9.421875 64.59375 
z
" id="DejaVuSans-105"/>
     <path d="M 10.6875 12.40625 
L 21 12.40625 
L 21 0 
L 10.6875 0 
z
" id="DejaVuSans-46"/>
    </defs>
    <g transform="translate(49.741875 35.472)scale(0.12 -0.12)">
     <use xlink:href="#DejaVuSans-40"/>
     <use x="39.013672" xlink:href="#DejaVuSans-56"/>
     <use x="102.636719" xlink:href="#DejaVuSans-48"/>
     <use x="166.259766" xlink:href="#DejaVuSans-41"/>
     <use x="205.273438" xlink:href="#DejaVuSans-32"/>
     <use x="237.060547" xlink:href="#DejaVuSans-83"/>
     <use x="300.537109" xlink:href="#DejaVuSans-117"/>
     <use x="363.916016" xlink:href="#DejaVuSans-98"/>
     <use x="427.392578" xlink:href="#DejaVuSans-106"/>
     <use x="455.175781" xlink:href="#DejaVuSans-101"/>
     <use x="516.699219" xlink:href="#DejaVuSans-99"/>
     <use x="571.679688" xlink:href="#DejaVuSans-116"/>
     <use x="610.888672" xlink:href="#DejaVuSans-58"/>
     <use x="644.580078" xlink:href="#DejaVuSans-32"/>
     <use x="676.367188" xlink:href="#DejaVuSans-115"/>
     <use x="728.466797" xlink:href="#DejaVuSans-50"/>
     <use x="792.089844" xlink:href="#DejaVuSans-55"/>
     <use x="855.712891" xlink:href="#DejaVuSans-44"/>
     <use x="887.5" xlink:href="#DejaVuSans-32"/>
     <use x="919.287109" xlink:href="#DejaVuSans-75"/>
     <use x="984.863281" xlink:href="#DejaVuSans-110"/>
     <use x="1048.242188" xlink:href="#DejaVuSans-111"/>
     <use x="1109.423828" xlink:href="#DejaVuSans-119"/>
     <use x="1191.210938" xlink:href="#DejaVuSans-110"/>
     <use x="1254.589844" xlink:href="#DejaVuSans-32"/>
     <use x="1286.376953" xlink:href="#DejaVuSans-61"/>
     <use x="1370.166016" xlink:href="#DejaVuSans-32"/>
     <use x="1401.953125" xlink:href="#DejaVuSans-70"/>
     <use x="1459.332031" xlink:href="#DejaVuSans-97"/>
     <use x="1520.611328" xlink:href="#DejaVuSans-108"/>
     <use x="1548.394531" xlink:href="#DejaVuSans-115"/>
     <use x="1600.494141" xlink:href="#DejaVuSans-101"/>
     <use x="1662.017578" xlink:href="#DejaVuSans-44"/>
     <use x="1693.804688" xlink:href="#DejaVuSans-32"/>
     <use x="1725.591797" xlink:href="#DejaVuSans-68"/>
     <use x="1802.59375" xlink:href="#DejaVuSans-101"/>
     <use x="1864.117188" xlink:href="#DejaVuSans-103"/>
     <use x="1927.59375" xlink:href="#DejaVuSans-114"/>
     <use x="1968.675781" xlink:href="#DejaVuSans-101"/>
     <use x="2030.199219" xlink:href="#DejaVuSans-101"/>
     <use x="2091.722656" xlink:href="#DejaVuSans-32"/>
     <use x="2123.509766" xlink:href="#DejaVuSans-61"/>
     <use x="2207.298828" xlink:href="#DejaVuSans-32"/>
     <use x="2239.085938" xlink:href="#DejaVuSans-49"/>
     <use x="2302.708984" xlink:href="#DejaVuSans-44"/>
     <use x="2334.496094" xlink:href="#DejaVuSans-32"/>
     <use x="2366.283203" xlink:href="#DejaVuSans-68"/>
     <use x="2443.285156" xlink:href="#DejaVuSans-117"/>
     <use x="2506.664062" xlink:href="#DejaVuSans-114"/>
     <use x="2547.777344" xlink:href="#DejaVuSans-97"/>
     <use x="2609.056641" xlink:href="#DejaVuSans-116"/>
     <use x="2648.265625" xlink:href="#DejaVuSans-105"/>
     <use x="2676.048828" xlink:href="#DejaVuSans-111"/>
     <use x="2737.230469" xlink:href="#DejaVuSans-110"/>
     <use x="2800.609375" xlink:href="#DejaVuSans-32"/>
     <use x="2832.396484" xlink:href="#DejaVuSans-61"/>
     <use x="2916.185547" xlink:href="#DejaVuSans-32"/>
     <use x="2947.972656" xlink:href="#DejaVuSans-48"/>
     <use x="3011.595703" xlink:href="#DejaVuSans-46"/>
     <use x="3043.382812" xlink:href="#DejaVuSans-49"/>
    </g>
   </g>
  </g>
 </g>
 <defs>
  <clipPath id="p7fc6675565">
   <rect height="266.112" width="357.12" x="57.6" y="41.472"/>
  </clipPath>
 </defs>
</svg>
