<?xml version="1.0" encoding="utf-8" standalone="no"?>
<!DOCTYPE svg PUBLIC "-//W3C//DTD SVG 1.1//EN"
  "http://www.w3.org/Graphics/SVG/1.1/DTD/svg11.dtd">
<!-- Created with matplotlib (https://matplotlib.org/) -->
<svg height="345.6pt" version="1.1" viewBox="0 0 460.8 345.6" width="460.8pt" xmlns="http://www.w3.org/2000/svg" xmlns:xlink="http://www.w3.org/1999/xlink">
 <defs>
  <style type="text/css">
*{stroke-linecap:butt;stroke-linejoin:round;}
  </style>
 </defs>
 <g id="figure_1">
  <g id="patch_1">
   <path d="M 0 345.6 
L 460.8 345.6 
L 460.8 0 
L 0 0 
z
" style="fill:#ffffff;"/>
  </g>
  <g id="axes_1">
   <g id="patch_2">
    <path d="M 57.6 307.584 
L 414.72 307.584 
L 414.72 41.472 
L 57.6 41.472 
z
" style="fill:#ffffff;"/>
   </g>
   <g id="line2d_1">
    <path clip-path="url(#p036ad6f3b9)" d="M 151.652436 56.132337 
L 150.134422 55.281061 
L 147.155677 54.419276 
L 145.666305 54.419276 
L 147.155677 54.419276 
L 150.134422 56.132337 
L 151.652436 57.845399 
L 151.652436 57.845399 
L 153.141809 56.132337 
L 153.141809 55.281061 
L 150.134422 56.983613 
L 150.134422 56.983613 
L 151.652436 56.983613 
L 153.141809 57.845399 
L 153.141809 59.54795 
L 151.652436 60.409736 
L 151.652436 60.409736 
L 151.652436 58.696675 
L 150.134422 56.983613 
L 148.64505 56.132337 
L 148.64505 56.983613 
L 147.155677 56.983613 
L 144.14829 56.132337 
L 142.658918 56.132337 
L 144.14829 58.696675 
L 147.155677 60.409736 
L 148.64505 60.409736 
L 148.64505 58.696675 
L 150.134422 56.132337 
L 148.64505 54.419276 
L 147.155677 53.568 
L 148.64505 54.419276 
L 151.652436 55.281061 
L 154.631181 56.983613 
L 154.631181 59.54795 
L 156.120553 61.261012 
L 156.120553 61.261012 
L 156.120553 59.54795 
L 156.120553 60.409736 
L 153.141809 62.112288 
L 150.134422 62.974073 
L 147.155677 62.974073 
L 147.155677 61.261012 
L 142.658918 63.825349 
L 141.169546 62.974073 
L 142.658918 60.409736 
L 145.666305 58.696675 
L 144.14829 60.409736 
L 132.204669 60.409736 
L 136.672787 60.409736 
L 139.680173 61.261012 
L 138.162159 61.261012 
L 136.672787 60.409736 
L 139.680173 58.696675 
L 139.680173 61.261012 
L 138.162159 61.261012 
L 135.183414 60.409736 
L 129.197283 59.54795 
L 124.700524 59.54795 
L 126.218538 61.261012 
L 129.197283 62.112288 
L 129.197283 61.261012 
L 126.218538 58.696675 
L 126.218538 57.845399 
L 126.218538 58.696675 
L 129.197283 60.409736 
L 132.204669 60.409736 
L 132.204669 62.112288 
L 130.686655 63.825349 
L 129.197283 63.825349 
L 129.197283 61.261012 
L 126.218538 57.845399 
L 121.721779 56.132337 
L 118.714392 56.132337 
L 121.721779 57.845399 
L 126.218538 59.54795 
L 129.197283 62.112288 
L 130.686655 64.676625 
L 132.204669 63.825349 
L 133.694042 62.112288 
L 124.700524 62.112288 
L 123.211151 61.261012 
L 121.721779 61.261012 
L 120.232406 62.112288 
L 121.721779 63.825349 
L 123.211151 64.676625 
L 124.700524 64.676625 
L 123.211151 63.825349 
L 123.211151 62.112288 
L 118.714392 62.112288 
L 120.232406 62.112288 
L 123.211151 61.261012 
L 123.211151 62.112288 
L 126.218538 63.825349 
L 115.735647 63.825349 
L 114.246275 62.974073 
L 123.211151 64.676625 
L 126.218538 65.538411 
L 124.700524 64.676625 
L 120.232406 63.825349 
L 120.232406 62.974073 
L 123.211151 63.825349 
L 123.211151 65.538411 
L 120.232406 67.240962 
L 120.232406 68.102748 
L 121.721779 66.389686 
L 120.232406 63.825349 
L 118.714392 62.974073 
L 118.714392 63.825349 
L 121.721779 66.389686 
L 123.211151 68.102748 
L 121.721779 68.954024 
L 120.232406 68.954024 
L 123.211151 68.102748 
L 123.211151 65.538411 
L 121.721779 64.676625 
L 121.721779 63.825349 
L 123.211151 63.825349 
L 121.721779 62.974073 
L 115.735647 62.974073 
L 114.246275 63.825349 
L 115.735647 63.825349 
L 118.714392 62.112288 
L 121.721779 61.261012 
L 124.700524 61.261012 
L 121.721779 62.112288 
L 117.22502 62.974073 
L 117.22502 63.825349 
L 118.714392 64.676625 
L 115.735647 65.538411 
L 112.728261 65.538411 
L 112.728261 66.389686 
L 115.735647 69.8053 
L 117.22502 68.954024 
L 117.22502 64.676625 
L 120.232406 62.974073 
L 121.721779 62.974073 
L 120.232406 63.825349 
L 111.238888 63.825349 
L 108.260144 65.538411 
L 106.770771 67.240962 
L 109.749516 67.240962 
L 111.238888 65.538411 
L 109.749516 63.825349 
L 114.246275 68.954024 
L 114.246275 74.082698 
L 109.749516 73.231422 
L 108.260144 70.667085 
L 108.260144 68.102748 
L 109.749516 66.389686 
L 109.749516 66.389686 
L 109.749516 67.240962 
L 108.260144 70.667085 
L 105.252757 72.369637 
L 108.260144 70.667085 
L 111.238888 70.667085 
L 112.728261 69.8053 
L 109.749516 71.518361 
L 105.252757 73.231422 
L 105.252757 74.082698 
L 111.238888 73.231422 
L 114.246275 72.369637 
L 111.238888 72.369637 
L 111.238888 72.369637 
L 111.238888 70.667085 
L 109.749516 68.954024 
L 106.770771 70.667085 
L 103.763385 71.518361 
L 100.78464 69.8053 
L 100.78464 72.369637 
L 103.763385 73.231422 
L 106.770771 73.231422 
L 106.770771 71.518361 
L 105.252757 68.954024 
L 102.274012 66.389686 
L 100.78464 64.676625 
L 100.78464 67.240962 
L 102.274012 69.8053 
L 103.763385 71.518361 
L 106.770771 72.369637 
L 106.770771 73.231422 
L 105.252757 74.082698 
L 99.266625 74.082698 
L 93.280494 71.518361 
L 90.301749 70.667085 
L 94.798508 73.231422 
L 97.777253 72.369637 
L 99.266625 70.667085 
L 100.78464 69.8053 
L 100.78464 70.667085 
L 99.266625 71.518361 
L 99.266625 72.369637 
L 97.777253 71.518361 
L 99.266625 72.369637 
L 99.266625 73.231422 
L 97.777253 74.082698 
L 94.798508 74.933974 
L 91.791122 74.933974 
L 88.812377 74.082698 
L 91.791122 73.231422 
L 94.798508 71.518361 
L 94.798508 70.667085 
L 93.280494 72.369637 
L 93.280494 74.082698 
L 90.301749 74.082698 
L 90.301749 74.082698 
L 90.301749 75.79576 
L 90.301749 75.79576 
L 88.812377 73.231422 
L 87.294363 73.231422 
L 85.80499 75.79576 
L 84.315618 77.498311 
L 84.315618 75.79576 
L 85.80499 74.082698 
L 94.798508 74.082698 
L 93.280494 74.933974 
L 88.812377 76.647036 
L 84.315618 77.498311 
L 85.80499 76.647036 
L 90.301749 76.647036 
L 91.791122 75.79576 
L 90.301749 74.933974 
L 90.301749 75.79576 
L 91.791122 76.647036 
L 90.301749 75.79576 
L 91.791122 74.082698 
L 91.791122 74.082698 
L 93.280494 74.082698 
L 91.791122 75.79576 
L 88.812377 75.79576 
L 85.80499 74.933974 
L 84.315618 75.79576 
L 82.826245 77.498311 
L 84.315618 78.360097 
L 84.315618 76.647036 
L 84.315618 79.211373 
L 82.826245 80.924434 
L 84.315618 80.062649 
L 85.80499 78.360097 
L 87.294363 77.498311 
L 88.812377 77.498311 
L 88.812377 77.498311 
L 82.826245 78.360097 
L 81.336873 79.211373 
L 79.818859 78.360097 
L 78.329486 76.647036 
L 76.840114 74.082698 
L 76.840114 73.231422 
L 81.336873 73.231422 
L 85.80499 72.369637 
L 85.80499 72.369637 
L 84.315618 73.231422 
L 81.336873 74.082698 
L 81.336873 74.082698 
L 82.826245 74.082698 
L 82.826245 74.933974 
L 76.840114 78.360097 
L 78.329486 77.498311 
L 82.826245 76.647036 
L 84.315618 76.647036 
L 82.826245 78.360097 
L 81.336873 79.211373 
L 84.315618 77.498311 
L 84.315618 74.933974 
L 82.826245 73.231422 
L 84.315618 73.231422 
L 85.80499 74.082698 
L 82.826245 74.082698 
L 81.336873 75.79576 
L 84.315618 76.647036 
L 84.315618 73.231422 
L 82.826245 71.518361 
L 79.818859 72.369637 
L 79.818859 73.231422 
L 82.826245 72.369637 
L 82.826245 71.518361 
L 81.336873 71.518361 
L 81.336873 77.498311 
L 79.818859 79.211373 
L 79.818859 78.360097 
L 76.840114 78.360097 
L 78.329486 78.360097 
L 79.818859 76.647036 
L 81.336873 75.79576 
L 82.826245 76.647036 
L 82.826245 78.360097 
L 79.818859 80.062649 
L 76.840114 79.211373 
L 75.350741 77.498311 
L 84.315618 75.79576 
L 82.826245 76.647036 
L 78.329486 78.360097 
L 75.350741 80.062649 
L 78.329486 80.924434 
L 84.315618 81.77571 
L 87.294363 81.77571 
L 88.812377 80.924434 
L 88.812377 81.77571 
L 79.818859 84.340047 
L 81.336873 85.201833 
L 87.294363 83.488772 
L 94.798508 82.637496 
L 94.798508 82.637496 
L 93.280494 81.77571 
L 91.791122 80.062649 
L 88.812377 80.062649 
L 87.294363 81.77571 
L 85.80499 82.637496 
L 87.294363 82.637496 
L 88.812377 81.77571 
L 90.301749 82.637496 
L 88.812377 83.488772 
L 88.812377 85.201833 
L 88.812377 85.201833 
L 85.80499 81.77571 
L 82.826245 82.637496 
L 76.840114 82.637496 
L 73.832727 81.77571 
L 76.840114 80.924434 
L 78.329486 81.77571 
L 78.329486 81.77571 
L 81.336873 80.062649 
L 79.818859 80.062649 
L 79.818859 80.924434 
L 82.826245 81.77571 
L 87.294363 80.924434 
L 93.280494 80.924434 
L 99.266625 82.637496 
L 103.763385 86.053109 
L 112.728261 89.468722 
L 129.197283 92.033059 
L 151.652436 94.597397 
L 171.100203 98.874795 
L 186.051211 103.152194 
L 204.009605 109.132144 
L 226.436117 115.97388 
L 248.89127 123.666892 
L 272.835796 129.646843 
L 298.269694 136.488579 
L 320.696206 145.894652 
L 332.668469 155.290216 
L 338.6546 162.131952 
L 353.605608 175.815423 
L 356.612994 180.082313 
L 353.605608 184.359711 
L 344.640731 198.032674 
L 338.6546 201.458796 
L 331.179096 204.023134 
L 323.703592 207.438747 
L 313.220702 208.300532 
L 304.227184 209.151808 
L 292.283563 210.003084 
L 281.800672 213.429207 
L 274.325168 216.84482 
L 269.828409 219.409157 
L 268.339037 221.122219 
L 268.339037 221.973495 
L 269.828409 221.973495 
L 269.828409 228.815231 
L 271.317782 233.943905 
L 274.325168 237.359518 
L 278.793285 240.775132 
L 281.800672 243.339469 
L 280.3113 245.914316 
L 278.793285 247.616867 
L 281.800672 251.04299 
L 283.290045 254.458603 
L 283.290045 256.171665 
L 284.779417 258.736002 
L 283.290045 261.300339 
L 278.793285 262.151615 
L 277.303913 262.151615 
L 275.814541 260.438554 
L 274.325168 260.438554 
L 272.835796 262.151615 
L 272.835796 263.864677 
L 266.849664 265.567228 
L 262.352905 266.429014 
L 260.863533 268.993351 
L 262.352905 270.695903 
L 266.849664 273.26024 
L 266.849664 277.537639 
L 262.352905 282.666314 
L 260.863533 285.230651 
L 260.863533 285.230651 
L 260.863533 283.517589 
L 259.345519 282.666314 
L 259.345519 286.092436 
L 262.352905 288.656774 
L 266.849664 287.794988 
L 266.849664 287.794988 
L 262.352905 287.794988 
L 266.849664 286.943712 
L 269.828409 286.943712 
L 268.339037 288.656774 
L 265.33165 288.656774 
L 265.33165 286.092436 
L 268.339037 285.230651 
L 269.828409 286.943712 
L 272.835796 286.943712 
L 272.835796 286.092436 
L 272.835796 286.943712 
L 271.317782 288.656774 
L 271.317782 287.794988 
L 268.339037 286.092436 
L 266.849664 287.794988 
L 265.33165 292.072387 
L 265.33165 295.488 
L 269.828409 292.923663 
L 272.835796 289.50805 
L 271.317782 291.221111 
L 269.828409 291.221111 
L 269.828409 290.359325 
L 265.33165 290.359325 
L 265.33165 288.656774 
L 266.849664 286.943712 
L 269.828409 287.794988 
L 269.828409 289.50805 
L 268.339037 288.656774 
L 268.339037 286.092436 
L 269.828409 285.230651 
L 269.828409 286.943712 
L 269.828409 286.943712 
L 268.339037 286.092436 
L 266.849664 286.092436 
L 266.849664 286.092436 
L 263.842278 287.794988 
L 263.842278 286.943712 
L 265.33165 286.092436 
L 265.33165 286.943712 
L 266.849664 287.794988 
L 266.849664 287.794988 
L 266.849664 286.943712 
L 265.33165 286.943712 
L 268.339037 286.943712 
L 268.339037 286.092436 
L 269.828409 284.379375 
L 269.828409 286.092436 
L 272.835796 287.794988 
L 272.835796 287.794988 
L 269.828409 286.943712 
L 271.317782 285.230651 
L 275.814541 283.517589 
L 278.793285 282.666314 
L 277.303913 282.666314 
L 274.325168 281.815038 
L 277.303913 280.101976 
L 280.3113 279.2507 
L 269.828409 279.2507 
L 271.317782 280.953252 
L 271.317782 281.815038 
L 269.828409 280.953252 
L 271.317782 279.2507 
L 274.325168 279.2507 
L 277.303913 280.101976 
L 277.303913 280.101976 
L 274.325168 278.388915 
L 274.325168 278.388915 
L 275.814541 276.686363 
L 277.303913 275.824578 
L 277.303913 275.824578 
L 277.303913 276.686363 
L 275.814541 278.388915 
L 275.814541 279.2507 
L 277.303913 279.2507 
L 277.303913 277.537639 
L 275.814541 275.824578 
L 272.835796 274.973302 
L 269.828409 273.26024 
L 269.828409 271.557689 
L 272.835796 271.557689 
L 275.814541 272.408964 
L 277.303913 274.973302 
L 274.325168 276.686363 
L 277.303913 275.824578 
L 278.793285 275.824578 
L 277.303913 273.26024 
L 275.814541 271.557689 
L 275.814541 268.993351 
L 277.303913 270.695903 
L 278.793285 271.557689 
L 281.800672 272.408964 
L 275.814541 272.408964 
L 272.835796 270.695903 
L 268.339037 271.557689 
L 268.339037 272.408964 
L 271.317782 279.2507 
L 269.828409 280.101976 
L 271.317782 277.537639 
L 274.325168 274.122026 
L 275.814541 273.26024 
L 275.814541 274.122026 
L 271.317782 274.122026 
L 265.33165 273.26024 
L 263.842278 273.26024 
L 265.33165 273.26024 
L 265.33165 272.408964 
L 263.842278 273.26024 
L 266.849664 273.26024 
L 269.828409 272.408964 
L 271.317782 272.408964 
L 272.835796 275.824578 
L 269.828409 271.557689 
L 265.33165 270.695903 
L 263.842278 273.26024 
L 266.849664 275.824578 
L 269.828409 276.686363 
L 269.828409 275.824578 
L 265.33165 275.824578 
L 262.352905 276.686363 
L 260.863533 275.824578 
L 262.352905 273.26024 
L 265.33165 271.557689 
L 266.849664 271.557689 
L 263.842278 274.973302 
L 262.352905 274.973302 
L 262.352905 273.26024 
L 265.33165 271.557689 
L 263.842278 269.844627 
L 260.863533 268.993351 
L 260.863533 271.557689 
L 262.352905 274.973302 
L 263.842278 275.824578 
L 265.33165 273.26024 
L 263.842278 271.557689 
L 262.352905 271.557689 
L 260.863533 270.695903 
L 260.863533 269.844627 
L 271.317782 269.844627 
L 272.835796 270.695903 
L 271.317782 273.26024 
L 272.835796 275.824578 
L 272.835796 276.686363 
L 269.828409 274.973302 
L 272.835796 273.26024 
L 269.828409 274.122026 
L 263.842278 274.122026 
L 263.842278 274.973302 
L 262.352905 275.824578 
L 262.352905 276.686363 
L 266.849664 278.388915 
L 269.828409 277.537639 
L 272.835796 274.973302 
L 272.835796 268.131566 
L 271.317782 267.28029 
L 271.317782 269.844627 
L 269.828409 272.408964 
L 268.339037 274.122026 
L 265.33165 275.824578 
L 262.352905 274.973302 
L 265.33165 273.26024 
L 266.849664 271.557689 
L 265.33165 270.695903 
L 263.842278 271.557689 
L 266.849664 272.408964 
L 271.317782 273.26024 
L 271.317782 273.26024 
L 266.849664 273.26024 
L 266.849664 272.408964 
L 263.842278 270.695903 
L 262.352905 270.695903 
L 262.352905 271.557689 
L 269.828409 271.557689 
L 272.835796 272.408964 
L 274.325168 272.408964 
L 269.828409 272.408964 
L 269.828409 273.26024 
L 268.339037 273.26024 
L 268.339037 273.26024 
L 271.317782 274.122026 
L 275.814541 274.122026 
L 278.793285 274.973302 
L 275.814541 274.122026 
L 274.325168 274.973302 
L 272.835796 274.122026 
L 269.828409 270.695903 
L 266.849664 268.131566 
L 268.339037 268.993351 
L 271.317782 271.557689 
L 274.325168 272.408964 
L 275.814541 272.408964 
L 275.814541 272.408964 
L 277.303913 271.557689 
L 275.814541 270.695903 
L 266.849664 273.26024 
L 265.33165 274.122026 
L 266.849664 274.122026 
L 269.828409 273.26024 
L 269.828409 274.122026 
L 259.345519 274.122026 
L 259.345519 267.28029 
L 262.352905 268.131566 
L 263.842278 269.844627 
L 265.33165 270.695903 
L 266.849664 270.695903 
L 271.317782 272.408964 
L 271.317782 273.26024 
L 265.33165 272.408964 
L 262.352905 270.695903 
L 257.856146 270.695903 
L 259.345519 268.993351 
L 259.345519 268.131566 
L 259.345519 270.695903 
L 257.856146 269.844627 
L 262.352905 267.28029 
L 263.842278 265.567228 
L 265.33165 265.567228 
L 265.33165 267.28029 
L 262.352905 268.131566 
L 262.352905 268.131566 
L 268.339037 269.844627 
L 266.849664 268.993351 
L 263.842278 266.429014 
L 260.863533 264.715953 
L 257.856146 263.864677 
L 253.359387 263.864677 
L 253.359387 263.864677 
L 256.366774 264.715953 
L 259.345519 264.715953 
L 260.863533 265.567228 
L 262.352905 268.131566 
L 265.33165 268.993351 
L 265.33165 268.993351 
L 259.345519 268.993351 
L 253.359387 268.131566 
L 250.380642 267.28029 
L 254.877401 265.567228 
L 262.352905 265.567228 
L 266.849664 267.28029 
L 268.339037 269.844627 
L 272.835796 269.844627 
L 277.303913 268.131566 
L 287.786804 263.864677 
L 301.248439 260.438554 
L 311.731329 257.022941 
L 314.710074 251.894266 
L 319.206833 245.914316 
L 334.157841 240.775132 
L 353.605608 236.508242 
L 367.067243 230.517782 
L 376.060761 222.82477 
L 380.528878 212.567421 
L 383.536265 202.310072 
L 388.033024 190.339662 
L 391.011769 177.517975 
L 394.019155 162.983227 
L 396.9979 150.161541 
L 398.487273 139.052916 
L 396.9979 127.944291 
L 395.508528 115.97388 
L 392.501141 105.716531 
L 388.033024 98.023519 
L 385.025637 92.033059 
L 383.536265 86.053109 
L 379.039506 80.924434 
L 376.060761 78.360097 
L 376.060761 74.933974 
L 379.039506 75.79576 
L 385.025637 79.211373 
L 382.046893 82.637496 
L 380.528878 86.053109 
L 382.046893 89.468722 
L 391.011769 94.597397 
L 394.019155 99.726071 
L 396.9979 101.439133 
L 398.487273 103.152194 
L 396.9979 104.00347 
L 392.501141 105.716531 
L 391.011769 106.567807 
L 391.011769 104.854746 
L 394.019155 104.00347 
L 396.9979 104.00347 
L 396.9979 104.00347 
L 395.508528 104.854746 
L 394.019155 104.854746 
L 395.508528 103.152194 
L 394.019155 102.290408 
L 391.011769 101.439133 
L 391.011769 100.587857 
L 391.011769 100.587857 
L 389.522396 100.587857 
L 385.025637 99.726071 
L 382.046893 99.726071 
L 383.536265 99.726071 
L 389.522396 100.587857 
L 392.501141 102.290408 
L 386.51501 102.290408 
L 385.025637 101.439133 
L 385.025637 99.726071 
L 385.025637 100.587857 
L 386.51501 100.587857 
L 386.51501 103.152194 
L 389.522396 105.716531 
L 391.011769 105.716531 
L 389.522396 104.00347 
L 386.51501 102.290408 
L 383.536265 101.439133 
L 382.046893 102.290408 
L 380.528878 104.854746 
L 379.039506 108.280868 
L 380.528878 109.98342 
L 383.536265 109.98342 
L 385.025637 109.132144 
L 385.025637 105.716531 
L 385.025637 105.716531 
L 386.51501 105.716531 
L 386.51501 104.854746 
L 382.046893 104.854746 
L 379.039506 105.716531 
L 379.039506 105.716531 
L 379.039506 104.854746 
L 377.550134 102.290408 
L 373.053375 101.439133 
L 371.564002 102.290408 
L 371.564002 108.280868 
L 374.542747 109.98342 
L 376.060761 109.132144 
L 377.550134 105.716531 
L 374.542747 103.152194 
L 367.067243 103.152194 
L 365.577871 104.854746 
L 365.577871 107.419083 
L 367.067243 109.98342 
L 371.564002 110.845206 
L 376.060761 109.98342 
L 376.060761 109.98342 
L 373.053375 109.132144 
L 371.564002 109.98342 
L 371.564002 108.280868 
L 373.053375 108.280868 
L 371.564002 108.280868 
L 371.564002 109.98342 
L 370.07463 110.845206 
L 368.585257 110.845206 
L 368.585257 109.98342 
L 368.585257 109.98342 
L 365.577871 109.132144 
L 365.577871 108.280868 
L 365.577871 109.132144 
L 367.067243 109.132144 
L 370.07463 108.280868 
L 370.07463 109.98342 
L 371.564002 112.547758 
L 373.053375 113.409543 
L 376.060761 112.547758 
L 380.528878 111.696482 
L 374.542747 111.696482 
L 377.550134 109.132144 
L 383.536265 109.132144 
L 383.536265 110.845206 
L 379.039506 113.409543 
L 376.060761 112.547758 
L 374.542747 111.696482 
L 373.053375 111.696482 
L 374.542747 111.696482 
L 377.550134 110.845206 
L 379.039506 109.98342 
L 377.550134 110.845206 
L 374.542747 113.409543 
L 373.053375 115.112095 
L 374.542747 113.409543 
L 373.053375 111.696482 
L 367.067243 109.98342 
L 368.585257 109.98342 
L 371.564002 110.845206 
L 376.060761 112.547758 
L 376.060761 115.97388 
L 377.550134 114.260819 
L 380.528878 111.696482 
L 380.528878 109.98342 
L 374.542747 110.845206 
L 368.585257 110.845206 
L 370.07463 109.132144 
L 376.060761 108.280868 
L 379.039506 109.132144 
L 379.039506 110.845206 
L 382.046893 112.547758 
L 385.025637 112.547758 
L 386.51501 113.409543 
L 385.025637 114.260819 
L 382.046893 113.409543 
L 376.060761 113.409543 
L 373.053375 114.260819 
L 377.550134 111.696482 
L 377.550134 109.98342 
L 374.542747 111.696482 
L 373.053375 113.409543 
L 373.053375 116.825156 
L 377.550134 116.825156 
L 380.528878 117.676432 
L 380.528878 117.676432 
L 379.039506 116.825156 
L 377.550134 114.260819 
L 377.550134 114.260819 
L 382.046893 114.260819 
L 385.025637 113.409543 
L 382.046893 112.547758 
L 377.550134 112.547758 
L 376.060761 111.696482 
L 377.550134 111.696482 
L 380.528878 113.409543 
L 385.025637 114.260819 
L 386.51501 114.260819 
L 382.046893 114.260819 
L 379.039506 115.97388 
L 379.039506 117.676432 
L 380.528878 118.538218 
L 380.528878 116.825156 
L 376.060761 116.825156 
L 377.550134 116.825156 
L 377.550134 115.112095 
L 379.039506 115.112095 
L 377.550134 115.112095 
L 377.550134 115.97388 
L 379.039506 115.97388 
L 382.046893 115.112095 
L 382.046893 115.112095 
L 391.011769 117.676432 
L 394.019155 115.97388 
L 391.011769 117.676432 
L 385.025637 119.389494 
L 383.536265 121.953831 
L 385.025637 121.953831 
L 388.033024 118.538218 
L 386.51501 119.389494 
L 382.046893 121.102555 
L 380.528878 121.953831 
L 382.046893 121.953831 
L 380.528878 121.953831 
L 376.060761 121.102555 
L 374.542747 119.389494 
L 376.060761 118.538218 
L 379.039506 119.389494 
L 383.536265 121.102555 
L 389.522396 122.815616 
L 392.501141 122.815616 
L 394.019155 121.953831 
L 389.522396 121.953831 
L 388.033024 121.102555 
L 388.033024 125.379954 
L 391.011769 127.082505 
L 391.011769 125.379954 
L 389.522396 123.666892 
L 389.522396 122.815616 
L 389.522396 122.815616 
L 391.011769 122.815616 
L 389.522396 121.102555 
L 385.025637 117.676432 
L 383.536265 116.825156 
L 388.033024 120.240769 
L 394.019155 122.815616 
L 396.9979 124.518168 
L 396.9979 123.666892 
L 395.508528 121.953831 
L 395.508528 121.102555 
L 396.9979 119.389494 
L 395.508528 117.676432 
L 389.522396 117.676432 
L 386.51501 120.240769 
L 388.033024 122.815616 
L 391.011769 125.379954 
L 398.487273 121.102555 
L 396.9979 121.102555 
L 392.501141 122.815616 
L 386.51501 122.815616 
L 386.51501 121.102555 
L 391.011769 120.240769 
L 395.508528 121.102555 
L 395.508528 125.379954 
L 398.487273 123.666892 
L 398.487273 123.666892 
L 395.508528 124.518168 
L 391.011769 123.666892 
L 385.025637 121.953831 
L 382.046893 121.953831 
L 382.046893 123.666892 
L 386.51501 126.23123 
L 386.51501 127.082505 
L 386.51501 127.082505 
L 391.011769 127.082505 
L 391.011769 125.379954 
L 386.51501 123.666892 
L 382.046893 124.518168 
L 383.536265 126.23123 
L 386.51501 125.379954 
L 386.51501 125.379954 
L 382.046893 127.082505 
L 376.060761 127.944291 
L 376.060761 127.082505 
L 379.039506 126.23123 
L 379.039506 124.518168 
L 377.550134 121.953831 
L 376.060761 121.102555 
L 376.060761 126.23123 
L 377.550134 124.518168 
L 377.550134 123.666892 
L 374.542747 123.666892 
L 374.542747 125.379954 
L 376.060761 127.082505 
L 374.542747 127.082505 
L 374.542747 127.082505 
" style="fill:none;stroke:#1f77b4;stroke-linecap:square;stroke-width:1.5;"/>
   </g>
   <g id="matplotlib.axis_1">
    <g id="xtick_1">
     <g id="line2d_2">
      <defs>
       <path d="M 0 0 
L 0 3.5 
" id="ma3c8a1d4b2" style="stroke:#000000;stroke-width:0.8;"/>
      </defs>
      <g>
       <use style="stroke:#000000;stroke-width:0.8;" x="60.227883" xlink:href="#ma3c8a1d4b2" y="307.584"/>
      </g>
     </g>
     <g id="text_1">
      <!-- −180 -->
      <defs>
       <path d="M 10.59375 35.5 
L 73.1875 35.5 
L 73.1875 27.203125 
L 10.59375 27.203125 
z
" id="DejaVuSans-8722"/>
       <path d="M 12.40625 8.296875 
L 28.515625 8.296875 
L 28.515625 63.921875 
L 10.984375 60.40625 
L 10.984375 69.390625 
L 28.421875 72.90625 
L 38.28125 72.90625 
L 38.28125 8.296875 
L 54.390625 8.296875 
L 54.390625 0 
L 12.40625 0 
z
" id="DejaVuSans-49"/>
       <path d="M 31.78125 34.625 
Q 24.75 34.625 20.71875 30.859375 
Q 16.703125 27.09375 16.703125 20.515625 
Q 16.703125 13.921875 20.71875 10.15625 
Q 24.75 6.390625 31.78125 6.390625 
Q 38.8125 6.390625 42.859375 10.171875 
Q 46.921875 13.96875 46.921875 20.515625 
Q 46.921875 27.09375 42.890625 30.859375 
Q 38.875 34.625 31.78125 34.625 
z
M 21.921875 38.8125 
Q 15.578125 40.375 12.03125 44.71875 
Q 8.5 49.078125 8.5 55.328125 
Q 8.5 64.0625 14.71875 69.140625 
Q 20.953125 74.21875 31.78125 74.21875 
Q 42.671875 74.21875 48.875 69.140625 
Q 55.078125 64.0625 55.078125 55.328125 
Q 55.078125 49.078125 51.53125 44.71875 
Q 48 40.375 41.703125 38.8125 
Q 48.828125 37.15625 52.796875 32.3125 
Q 56.78125 27.484375 56.78125 20.515625 
Q 56.78125 9.90625 50.3125 4.234375 
Q 43.84375 -1.421875 31.78125 -1.421875 
Q 19.734375 -1.421875 13.25 4.234375 
Q 6.78125 9.90625 6.78125 20.515625 
Q 6.78125 27.484375 10.78125 32.3125 
Q 14.796875 37.15625 21.921875 38.8125 
z
M 18.3125 54.390625 
Q 18.3125 48.734375 21.84375 45.5625 
Q 25.390625 42.390625 31.78125 42.390625 
Q 38.140625 42.390625 41.71875 45.5625 
Q 45.3125 48.734375 45.3125 54.390625 
Q 45.3125 60.0625 41.71875 63.234375 
Q 38.140625 66.40625 31.78125 66.40625 
Q 25.390625 66.40625 21.84375 63.234375 
Q 18.3125 60.0625 18.3125 54.390625 
z
" id="DejaVuSans-56"/>
       <path d="M 31.78125 66.40625 
Q 24.171875 66.40625 20.328125 58.90625 
Q 16.5 51.421875 16.5 36.375 
Q 16.5 21.390625 20.328125 13.890625 
Q 24.171875 6.390625 31.78125 6.390625 
Q 39.453125 6.390625 43.28125 13.890625 
Q 47.125 21.390625 47.125 36.375 
Q 47.125 51.421875 43.28125 58.90625 
Q 39.453125 66.40625 31.78125 66.40625 
z
M 31.78125 74.21875 
Q 44.046875 74.21875 50.515625 64.515625 
Q 56.984375 54.828125 56.984375 36.375 
Q 56.984375 17.96875 50.515625 8.265625 
Q 44.046875 -1.421875 31.78125 -1.421875 
Q 19.53125 -1.421875 13.0625 8.265625 
Q 6.59375 17.96875 6.59375 36.375 
Q 6.59375 54.828125 13.0625 64.515625 
Q 19.53125 74.21875 31.78125 74.21875 
z
" id="DejaVuSans-48"/>
      </defs>
      <g transform="translate(46.494289 322.182437)scale(0.1 -0.1)">
       <use xlink:href="#DejaVuSans-8722"/>
       <use x="83.789062" xlink:href="#DejaVuSans-49"/>
       <use x="147.412109" xlink:href="#DejaVuSans-56"/>
       <use x="211.035156" xlink:href="#DejaVuSans-48"/>
      </g>
     </g>
    </g>
    <g id="xtick_2">
     <g id="line2d_3">
      <g>
       <use style="stroke:#000000;stroke-width:0.8;" x="117.511438" xlink:href="#ma3c8a1d4b2" y="307.584"/>
      </g>
     </g>
     <g id="text_2">
      <!-- −160 -->
      <defs>
       <path d="M 33.015625 40.375 
Q 26.375 40.375 22.484375 35.828125 
Q 18.609375 31.296875 18.609375 23.390625 
Q 18.609375 15.53125 22.484375 10.953125 
Q 26.375 6.390625 33.015625 6.390625 
Q 39.65625 6.390625 43.53125 10.953125 
Q 47.40625 15.53125 47.40625 23.390625 
Q 47.40625 31.296875 43.53125 35.828125 
Q 39.65625 40.375 33.015625 40.375 
z
M 52.59375 71.296875 
L 52.59375 62.3125 
Q 48.875 64.0625 45.09375 64.984375 
Q 41.3125 65.921875 37.59375 65.921875 
Q 27.828125 65.921875 22.671875 59.328125 
Q 17.53125 52.734375 16.796875 39.40625 
Q 19.671875 43.65625 24.015625 45.921875 
Q 28.375 48.1875 33.59375 48.1875 
Q 44.578125 48.1875 50.953125 41.515625 
Q 57.328125 34.859375 57.328125 23.390625 
Q 57.328125 12.15625 50.6875 5.359375 
Q 44.046875 -1.421875 33.015625 -1.421875 
Q 20.359375 -1.421875 13.671875 8.265625 
Q 6.984375 17.96875 6.984375 36.375 
Q 6.984375 53.65625 15.1875 63.9375 
Q 23.390625 74.21875 37.203125 74.21875 
Q 40.921875 74.21875 44.703125 73.484375 
Q 48.484375 72.75 52.59375 71.296875 
z
" id="DejaVuSans-54"/>
      </defs>
      <g transform="translate(103.777844 322.182437)scale(0.1 -0.1)">
       <use xlink:href="#DejaVuSans-8722"/>
       <use x="83.789062" xlink:href="#DejaVuSans-49"/>
       <use x="147.412109" xlink:href="#DejaVuSans-54"/>
       <use x="211.035156" xlink:href="#DejaVuSans-48"/>
      </g>
     </g>
    </g>
    <g id="xtick_3">
     <g id="line2d_4">
      <g>
       <use style="stroke:#000000;stroke-width:0.8;" x="174.794992" xlink:href="#ma3c8a1d4b2" y="307.584"/>
      </g>
     </g>
     <g id="text_3">
      <!-- −140 -->
      <defs>
       <path d="M 37.796875 64.3125 
L 12.890625 25.390625 
L 37.796875 25.390625 
z
M 35.203125 72.90625 
L 47.609375 72.90625 
L 47.609375 25.390625 
L 58.015625 25.390625 
L 58.015625 17.1875 
L 47.609375 17.1875 
L 47.609375 0 
L 37.796875 0 
L 37.796875 17.1875 
L 4.890625 17.1875 
L 4.890625 26.703125 
z
" id="DejaVuSans-52"/>
      </defs>
      <g transform="translate(161.061398 322.182437)scale(0.1 -0.1)">
       <use xlink:href="#DejaVuSans-8722"/>
       <use x="83.789062" xlink:href="#DejaVuSans-49"/>
       <use x="147.412109" xlink:href="#DejaVuSans-52"/>
       <use x="211.035156" xlink:href="#DejaVuSans-48"/>
      </g>
     </g>
    </g>
    <g id="xtick_4">
     <g id="line2d_5">
      <g>
       <use style="stroke:#000000;stroke-width:0.8;" x="232.078547" xlink:href="#ma3c8a1d4b2" y="307.584"/>
      </g>
     </g>
     <g id="text_4">
      <!-- −120 -->
      <defs>
       <path d="M 19.1875 8.296875 
L 53.609375 8.296875 
L 53.609375 0 
L 7.328125 0 
L 7.328125 8.296875 
Q 12.9375 14.109375 22.625 23.890625 
Q 32.328125 33.6875 34.8125 36.53125 
Q 39.546875 41.84375 41.421875 45.53125 
Q 43.3125 49.21875 43.3125 52.78125 
Q 43.3125 58.59375 39.234375 62.25 
Q 35.15625 65.921875 28.609375 65.921875 
Q 23.96875 65.921875 18.8125 64.3125 
Q 13.671875 62.703125 7.8125 59.421875 
L 7.8125 69.390625 
Q 13.765625 71.78125 18.9375 73 
Q 24.125 74.21875 28.421875 74.21875 
Q 39.75 74.21875 46.484375 68.546875 
Q 53.21875 62.890625 53.21875 53.421875 
Q 53.21875 48.921875 51.53125 44.890625 
Q 49.859375 40.875 45.40625 35.40625 
Q 44.1875 33.984375 37.640625 27.21875 
Q 31.109375 20.453125 19.1875 8.296875 
z
" id="DejaVuSans-50"/>
      </defs>
      <g transform="translate(218.344953 322.182437)scale(0.1 -0.1)">
       <use xlink:href="#DejaVuSans-8722"/>
       <use x="83.789062" xlink:href="#DejaVuSans-49"/>
       <use x="147.412109" xlink:href="#DejaVuSans-50"/>
       <use x="211.035156" xlink:href="#DejaVuSans-48"/>
      </g>
     </g>
    </g>
    <g id="xtick_5">
     <g id="line2d_6">
      <g>
       <use style="stroke:#000000;stroke-width:0.8;" x="289.362101" xlink:href="#ma3c8a1d4b2" y="307.584"/>
      </g>
     </g>
     <g id="text_5">
      <!-- −100 -->
      <g transform="translate(275.628508 322.182437)scale(0.1 -0.1)">
       <use xlink:href="#DejaVuSans-8722"/>
       <use x="83.789062" xlink:href="#DejaVuSans-49"/>
       <use x="147.412109" xlink:href="#DejaVuSans-48"/>
       <use x="211.035156" xlink:href="#DejaVuSans-48"/>
      </g>
     </g>
    </g>
    <g id="xtick_6">
     <g id="line2d_7">
      <g>
       <use style="stroke:#000000;stroke-width:0.8;" x="346.645656" xlink:href="#ma3c8a1d4b2" y="307.584"/>
      </g>
     </g>
     <g id="text_6">
      <!-- −80 -->
      <g transform="translate(336.093312 322.182437)scale(0.1 -0.1)">
       <use xlink:href="#DejaVuSans-8722"/>
       <use x="83.789062" xlink:href="#DejaVuSans-56"/>
       <use x="147.412109" xlink:href="#DejaVuSans-48"/>
      </g>
     </g>
    </g>
    <g id="xtick_7">
     <g id="line2d_8">
      <g>
       <use style="stroke:#000000;stroke-width:0.8;" x="403.92921" xlink:href="#ma3c8a1d4b2" y="307.584"/>
      </g>
     </g>
     <g id="text_7">
      <!-- −60 -->
      <g transform="translate(393.376867 322.182437)scale(0.1 -0.1)">
       <use xlink:href="#DejaVuSans-8722"/>
       <use x="83.789062" xlink:href="#DejaVuSans-54"/>
       <use x="147.412109" xlink:href="#DejaVuSans-48"/>
      </g>
     </g>
    </g>
   </g>
   <g id="matplotlib.axis_2">
    <g id="ytick_1">
     <g id="line2d_9">
      <defs>
       <path d="M 0 0 
L -3.5 0 
" id="m24096e9886" style="stroke:#000000;stroke-width:0.8;"/>
      </defs>
      <g>
       <use style="stroke:#000000;stroke-width:0.8;" x="57.6" xlink:href="#m24096e9886" y="285.787659"/>
      </g>
     </g>
     <g id="text_8">
      <!-- −100 -->
      <g transform="translate(23.132812 289.586877)scale(0.1 -0.1)">
       <use xlink:href="#DejaVuSans-8722"/>
       <use x="83.789062" xlink:href="#DejaVuSans-49"/>
       <use x="147.412109" xlink:href="#DejaVuSans-48"/>
       <use x="211.035156" xlink:href="#DejaVuSans-48"/>
      </g>
     </g>
    </g>
    <g id="ytick_2">
     <g id="line2d_10">
      <g>
       <use style="stroke:#000000;stroke-width:0.8;" x="57.6" xlink:href="#m24096e9886" y="233.239763"/>
      </g>
     </g>
     <g id="text_9">
      <!-- −50 -->
      <defs>
       <path d="M 10.796875 72.90625 
L 49.515625 72.90625 
L 49.515625 64.59375 
L 19.828125 64.59375 
L 19.828125 46.734375 
Q 21.96875 47.46875 24.109375 47.828125 
Q 26.265625 48.1875 28.421875 48.1875 
Q 40.625 48.1875 47.75 41.5 
Q 54.890625 34.8125 54.890625 23.390625 
Q 54.890625 11.625 47.5625 5.09375 
Q 40.234375 -1.421875 26.90625 -1.421875 
Q 22.3125 -1.421875 17.546875 -0.640625 
Q 12.796875 0.140625 7.71875 1.703125 
L 7.71875 11.625 
Q 12.109375 9.234375 16.796875 8.0625 
Q 21.484375 6.890625 26.703125 6.890625 
Q 35.15625 6.890625 40.078125 11.328125 
Q 45.015625 15.765625 45.015625 23.390625 
Q 45.015625 31 40.078125 35.4375 
Q 35.15625 39.890625 26.703125 39.890625 
Q 22.75 39.890625 18.8125 39.015625 
Q 14.890625 38.140625 10.796875 36.28125 
z
" id="DejaVuSans-53"/>
      </defs>
      <g transform="translate(29.495313 237.038982)scale(0.1 -0.1)">
       <use xlink:href="#DejaVuSans-8722"/>
       <use x="83.789062" xlink:href="#DejaVuSans-53"/>
       <use x="147.412109" xlink:href="#DejaVuSans-48"/>
      </g>
     </g>
    </g>
    <g id="ytick_3">
     <g id="line2d_11">
      <g>
       <use style="stroke:#000000;stroke-width:0.8;" x="57.6" xlink:href="#m24096e9886" y="180.691868"/>
      </g>
     </g>
     <g id="text_10">
      <!-- 0 -->
      <g transform="translate(44.2375 184.491087)scale(0.1 -0.1)">
       <use xlink:href="#DejaVuSans-48"/>
      </g>
     </g>
    </g>
    <g id="ytick_4">
     <g id="line2d_12">
      <g>
       <use style="stroke:#000000;stroke-width:0.8;" x="57.6" xlink:href="#m24096e9886" y="128.143973"/>
      </g>
     </g>
     <g id="text_11">
      <!-- 50 -->
      <g transform="translate(37.875 131.943192)scale(0.1 -0.1)">
       <use xlink:href="#DejaVuSans-53"/>
       <use x="63.623047" xlink:href="#DejaVuSans-48"/>
      </g>
     </g>
    </g>
    <g id="ytick_5">
     <g id="line2d_13">
      <g>
       <use style="stroke:#000000;stroke-width:0.8;" x="57.6" xlink:href="#m24096e9886" y="75.596078"/>
      </g>
     </g>
     <g id="text_12">
      <!-- 100 -->
      <g transform="translate(31.5125 79.395296)scale(0.1 -0.1)">
       <use xlink:href="#DejaVuSans-49"/>
       <use x="63.623047" xlink:href="#DejaVuSans-48"/>
       <use x="127.246094" xlink:href="#DejaVuSans-48"/>
      </g>
     </g>
    </g>
   </g>
   <g id="line2d_14">
    <path clip-path="url(#p036ad6f3b9)" d="M 111.765558 70.690509 
L 272.471544 270.610401 
L 382.340635 113.633931 
" style="fill:none;stroke:#ff0000;stroke-linecap:square;stroke-width:0.5;"/>
   </g>
   <g id="patch_3">
    <path d="M 57.6 307.584 
L 57.6 41.472 
" style="fill:none;stroke:#000000;stroke-linecap:square;stroke-linejoin:miter;stroke-width:0.8;"/>
   </g>
   <g id="patch_4">
    <path d="M 414.72 307.584 
L 414.72 41.472 
" style="fill:none;stroke:#000000;stroke-linecap:square;stroke-linejoin:miter;stroke-width:0.8;"/>
   </g>
   <g id="patch_5">
    <path d="M 57.6 307.584 
L 414.72 307.584 
" style="fill:none;stroke:#000000;stroke-linecap:square;stroke-linejoin:miter;stroke-width:0.8;"/>
   </g>
   <g id="patch_6">
    <path d="M 57.6 41.472 
L 414.72 41.472 
" style="fill:none;stroke:#000000;stroke-linecap:square;stroke-linejoin:miter;stroke-width:0.8;"/>
   </g>
   <g id="PathCollection_1">
    <defs>
     <path d="M 0 2.738613 
C 0.726289 2.738613 1.422928 2.450055 1.936492 1.936492 
C 2.450055 1.422928 2.738613 0.726289 2.738613 0 
C 2.738613 -0.726289 2.450055 -1.422928 1.936492 -1.936492 
C 1.422928 -2.450055 0.726289 -2.738613 0 -2.738613 
C -0.726289 -2.738613 -1.422928 -2.450055 -1.936492 -1.936492 
C -2.450055 -1.422928 -2.738613 -0.726289 -2.738613 0 
C -2.738613 0.726289 -2.450055 1.422928 -1.936492 1.936492 
C -1.422928 2.450055 -0.726289 2.738613 0 2.738613 
z
" id="m44eb74ae5f" style="stroke:#ff0000;"/>
    </defs>
    <g clip-path="url(#p036ad6f3b9)">
     <use style="fill:#ff0000;stroke:#ff0000;" x="111.765558" xlink:href="#m44eb74ae5f" y="70.690509"/>
     <use style="fill:#ff0000;stroke:#ff0000;" x="272.471544" xlink:href="#m44eb74ae5f" y="270.610401"/>
     <use style="fill:#ff0000;stroke:#ff0000;" x="382.340635" xlink:href="#m44eb74ae5f" y="113.633931"/>
    </g>
   </g>
   <g id="text_13">
    <!-- (82) Subject: s23, Known = False, Degree = 1, Duration = 0.1 -->
    <defs>
     <path d="M 31 75.875 
Q 24.46875 64.65625 21.28125 53.65625 
Q 18.109375 42.671875 18.109375 31.390625 
Q 18.109375 20.125 21.3125 9.0625 
Q 24.515625 -2 31 -13.1875 
L 23.1875 -13.1875 
Q 15.875 -1.703125 12.234375 9.375 
Q 8.59375 20.453125 8.59375 31.390625 
Q 8.59375 42.28125 12.203125 53.3125 
Q 15.828125 64.359375 23.1875 75.875 
z
" id="DejaVuSans-40"/>
     <path d="M 8.015625 75.875 
L 15.828125 75.875 
Q 23.140625 64.359375 26.78125 53.3125 
Q 30.421875 42.28125 30.421875 31.390625 
Q 30.421875 20.453125 26.78125 9.375 
Q 23.140625 -1.703125 15.828125 -13.1875 
L 8.015625 -13.1875 
Q 14.5 -2 17.703125 9.0625 
Q 20.90625 20.125 20.90625 31.390625 
Q 20.90625 42.671875 17.703125 53.65625 
Q 14.5 64.65625 8.015625 75.875 
z
" id="DejaVuSans-41"/>
     <path id="DejaVuSans-32"/>
     <path d="M 53.515625 70.515625 
L 53.515625 60.890625 
Q 47.90625 63.578125 42.921875 64.890625 
Q 37.9375 66.21875 33.296875 66.21875 
Q 25.25 66.21875 20.875 63.09375 
Q 16.5 59.96875 16.5 54.203125 
Q 16.5 49.359375 19.40625 46.890625 
Q 22.3125 44.4375 30.421875 42.921875 
L 36.375 41.703125 
Q 47.40625 39.59375 52.65625 34.296875 
Q 57.90625 29 57.90625 20.125 
Q 57.90625 9.515625 50.796875 4.046875 
Q 43.703125 -1.421875 29.984375 -1.421875 
Q 24.8125 -1.421875 18.96875 -0.25 
Q 13.140625 0.921875 6.890625 3.21875 
L 6.890625 13.375 
Q 12.890625 10.015625 18.65625 8.296875 
Q 24.421875 6.59375 29.984375 6.59375 
Q 38.421875 6.59375 43.015625 9.90625 
Q 47.609375 13.234375 47.609375 19.390625 
Q 47.609375 24.75 44.3125 27.78125 
Q 41.015625 30.8125 33.5 32.328125 
L 27.484375 33.5 
Q 16.453125 35.6875 11.515625 40.375 
Q 6.59375 45.0625 6.59375 53.421875 
Q 6.59375 63.09375 13.40625 68.65625 
Q 20.21875 74.21875 32.171875 74.21875 
Q 37.3125 74.21875 42.625 73.28125 
Q 47.953125 72.359375 53.515625 70.515625 
z
" id="DejaVuSans-83"/>
     <path d="M 8.5 21.578125 
L 8.5 54.6875 
L 17.484375 54.6875 
L 17.484375 21.921875 
Q 17.484375 14.15625 20.5 10.265625 
Q 23.53125 6.390625 29.59375 6.390625 
Q 36.859375 6.390625 41.078125 11.03125 
Q 45.3125 15.671875 45.3125 23.6875 
L 45.3125 54.6875 
L 54.296875 54.6875 
L 54.296875 0 
L 45.3125 0 
L 45.3125 8.40625 
Q 42.046875 3.421875 37.71875 1 
Q 33.40625 -1.421875 27.6875 -1.421875 
Q 18.265625 -1.421875 13.375 4.4375 
Q 8.5 10.296875 8.5 21.578125 
z
M 31.109375 56 
z
" id="DejaVuSans-117"/>
     <path d="M 48.6875 27.296875 
Q 48.6875 37.203125 44.609375 42.84375 
Q 40.53125 48.484375 33.40625 48.484375 
Q 26.265625 48.484375 22.1875 42.84375 
Q 18.109375 37.203125 18.109375 27.296875 
Q 18.109375 17.390625 22.1875 11.75 
Q 26.265625 6.109375 33.40625 6.109375 
Q 40.53125 6.109375 44.609375 11.75 
Q 48.6875 17.390625 48.6875 27.296875 
z
M 18.109375 46.390625 
Q 20.953125 51.265625 25.265625 53.625 
Q 29.59375 56 35.59375 56 
Q 45.5625 56 51.78125 48.09375 
Q 58.015625 40.1875 58.015625 27.296875 
Q 58.015625 14.40625 51.78125 6.484375 
Q 45.5625 -1.421875 35.59375 -1.421875 
Q 29.59375 -1.421875 25.265625 0.953125 
Q 20.953125 3.328125 18.109375 8.203125 
L 18.109375 0 
L 9.078125 0 
L 9.078125 75.984375 
L 18.109375 75.984375 
z
" id="DejaVuSans-98"/>
     <path d="M 9.421875 54.6875 
L 18.40625 54.6875 
L 18.40625 -0.984375 
Q 18.40625 -11.421875 14.421875 -16.109375 
Q 10.453125 -20.796875 1.609375 -20.796875 
L -1.8125 -20.796875 
L -1.8125 -13.1875 
L 0.59375 -13.1875 
Q 5.71875 -13.1875 7.5625 -10.8125 
Q 9.421875 -8.453125 9.421875 -0.984375 
z
M 9.421875 75.984375 
L 18.40625 75.984375 
L 18.40625 64.59375 
L 9.421875 64.59375 
z
" id="DejaVuSans-106"/>
     <path d="M 56.203125 29.59375 
L 56.203125 25.203125 
L 14.890625 25.203125 
Q 15.484375 15.921875 20.484375 11.0625 
Q 25.484375 6.203125 34.421875 6.203125 
Q 39.59375 6.203125 44.453125 7.46875 
Q 49.3125 8.734375 54.109375 11.28125 
L 54.109375 2.78125 
Q 49.265625 0.734375 44.1875 -0.34375 
Q 39.109375 -1.421875 33.890625 -1.421875 
Q 20.796875 -1.421875 13.15625 6.1875 
Q 5.515625 13.8125 5.515625 26.8125 
Q 5.515625 40.234375 12.765625 48.109375 
Q 20.015625 56 32.328125 56 
Q 43.359375 56 49.78125 48.890625 
Q 56.203125 41.796875 56.203125 29.59375 
z
M 47.21875 32.234375 
Q 47.125 39.59375 43.09375 43.984375 
Q 39.0625 48.390625 32.421875 48.390625 
Q 24.90625 48.390625 20.390625 44.140625 
Q 15.875 39.890625 15.1875 32.171875 
z
" id="DejaVuSans-101"/>
     <path d="M 48.78125 52.59375 
L 48.78125 44.1875 
Q 44.96875 46.296875 41.140625 47.34375 
Q 37.3125 48.390625 33.40625 48.390625 
Q 24.65625 48.390625 19.8125 42.84375 
Q 14.984375 37.3125 14.984375 27.296875 
Q 14.984375 17.28125 19.8125 11.734375 
Q 24.65625 6.203125 33.40625 6.203125 
Q 37.3125 6.203125 41.140625 7.25 
Q 44.96875 8.296875 48.78125 10.40625 
L 48.78125 2.09375 
Q 45.015625 0.34375 40.984375 -0.53125 
Q 36.96875 -1.421875 32.421875 -1.421875 
Q 20.0625 -1.421875 12.78125 6.34375 
Q 5.515625 14.109375 5.515625 27.296875 
Q 5.515625 40.671875 12.859375 48.328125 
Q 20.21875 56 33.015625 56 
Q 37.15625 56 41.109375 55.140625 
Q 45.0625 54.296875 48.78125 52.59375 
z
" id="DejaVuSans-99"/>
     <path d="M 18.3125 70.21875 
L 18.3125 54.6875 
L 36.8125 54.6875 
L 36.8125 47.703125 
L 18.3125 47.703125 
L 18.3125 18.015625 
Q 18.3125 11.328125 20.140625 9.421875 
Q 21.96875 7.515625 27.59375 7.515625 
L 36.8125 7.515625 
L 36.8125 0 
L 27.59375 0 
Q 17.1875 0 13.234375 3.875 
Q 9.28125 7.765625 9.28125 18.015625 
L 9.28125 47.703125 
L 2.6875 47.703125 
L 2.6875 54.6875 
L 9.28125 54.6875 
L 9.28125 70.21875 
z
" id="DejaVuSans-116"/>
     <path d="M 11.71875 12.40625 
L 22.015625 12.40625 
L 22.015625 0 
L 11.71875 0 
z
M 11.71875 51.703125 
L 22.015625 51.703125 
L 22.015625 39.3125 
L 11.71875 39.3125 
z
" id="DejaVuSans-58"/>
     <path d="M 44.28125 53.078125 
L 44.28125 44.578125 
Q 40.484375 46.53125 36.375 47.5 
Q 32.28125 48.484375 27.875 48.484375 
Q 21.1875 48.484375 17.84375 46.4375 
Q 14.5 44.390625 14.5 40.28125 
Q 14.5 37.15625 16.890625 35.375 
Q 19.28125 33.59375 26.515625 31.984375 
L 29.59375 31.296875 
Q 39.15625 29.25 43.1875 25.515625 
Q 47.21875 21.78125 47.21875 15.09375 
Q 47.21875 7.46875 41.1875 3.015625 
Q 35.15625 -1.421875 24.609375 -1.421875 
Q 20.21875 -1.421875 15.453125 -0.5625 
Q 10.6875 0.296875 5.421875 2 
L 5.421875 11.28125 
Q 10.40625 8.6875 15.234375 7.390625 
Q 20.0625 6.109375 24.8125 6.109375 
Q 31.15625 6.109375 34.5625 8.28125 
Q 37.984375 10.453125 37.984375 14.40625 
Q 37.984375 18.0625 35.515625 20.015625 
Q 33.0625 21.96875 24.703125 23.78125 
L 21.578125 24.515625 
Q 13.234375 26.265625 9.515625 29.90625 
Q 5.8125 33.546875 5.8125 39.890625 
Q 5.8125 47.609375 11.28125 51.796875 
Q 16.75 56 26.8125 56 
Q 31.78125 56 36.171875 55.265625 
Q 40.578125 54.546875 44.28125 53.078125 
z
" id="DejaVuSans-115"/>
     <path d="M 40.578125 39.3125 
Q 47.65625 37.796875 51.625 33 
Q 55.609375 28.21875 55.609375 21.1875 
Q 55.609375 10.40625 48.1875 4.484375 
Q 40.765625 -1.421875 27.09375 -1.421875 
Q 22.515625 -1.421875 17.65625 -0.515625 
Q 12.796875 0.390625 7.625 2.203125 
L 7.625 11.71875 
Q 11.71875 9.328125 16.59375 8.109375 
Q 21.484375 6.890625 26.8125 6.890625 
Q 36.078125 6.890625 40.9375 10.546875 
Q 45.796875 14.203125 45.796875 21.1875 
Q 45.796875 27.640625 41.28125 31.265625 
Q 36.765625 34.90625 28.71875 34.90625 
L 20.21875 34.90625 
L 20.21875 43.015625 
L 29.109375 43.015625 
Q 36.375 43.015625 40.234375 45.921875 
Q 44.09375 48.828125 44.09375 54.296875 
Q 44.09375 59.90625 40.109375 62.90625 
Q 36.140625 65.921875 28.71875 65.921875 
Q 24.65625 65.921875 20.015625 65.03125 
Q 15.375 64.15625 9.8125 62.3125 
L 9.8125 71.09375 
Q 15.4375 72.65625 20.34375 73.4375 
Q 25.25 74.21875 29.59375 74.21875 
Q 40.828125 74.21875 47.359375 69.109375 
Q 53.90625 64.015625 53.90625 55.328125 
Q 53.90625 49.265625 50.4375 45.09375 
Q 46.96875 40.921875 40.578125 39.3125 
z
" id="DejaVuSans-51"/>
     <path d="M 11.71875 12.40625 
L 22.015625 12.40625 
L 22.015625 4 
L 14.015625 -11.625 
L 7.71875 -11.625 
L 11.71875 4 
z
" id="DejaVuSans-44"/>
     <path d="M 9.8125 72.90625 
L 19.671875 72.90625 
L 19.671875 42.09375 
L 52.390625 72.90625 
L 65.09375 72.90625 
L 28.90625 38.921875 
L 67.671875 0 
L 54.6875 0 
L 19.671875 35.109375 
L 19.671875 0 
L 9.8125 0 
z
" id="DejaVuSans-75"/>
     <path d="M 54.890625 33.015625 
L 54.890625 0 
L 45.90625 0 
L 45.90625 32.71875 
Q 45.90625 40.484375 42.875 44.328125 
Q 39.84375 48.1875 33.796875 48.1875 
Q 26.515625 48.1875 22.3125 43.546875 
Q 18.109375 38.921875 18.109375 30.90625 
L 18.109375 0 
L 9.078125 0 
L 9.078125 54.6875 
L 18.109375 54.6875 
L 18.109375 46.1875 
Q 21.34375 51.125 25.703125 53.5625 
Q 30.078125 56 35.796875 56 
Q 45.21875 56 50.046875 50.171875 
Q 54.890625 44.34375 54.890625 33.015625 
z
" id="DejaVuSans-110"/>
     <path d="M 30.609375 48.390625 
Q 23.390625 48.390625 19.1875 42.75 
Q 14.984375 37.109375 14.984375 27.296875 
Q 14.984375 17.484375 19.15625 11.84375 
Q 23.34375 6.203125 30.609375 6.203125 
Q 37.796875 6.203125 41.984375 11.859375 
Q 46.1875 17.53125 46.1875 27.296875 
Q 46.1875 37.015625 41.984375 42.703125 
Q 37.796875 48.390625 30.609375 48.390625 
z
M 30.609375 56 
Q 42.328125 56 49.015625 48.375 
Q 55.71875 40.765625 55.71875 27.296875 
Q 55.71875 13.875 49.015625 6.21875 
Q 42.328125 -1.421875 30.609375 -1.421875 
Q 18.84375 -1.421875 12.171875 6.21875 
Q 5.515625 13.875 5.515625 27.296875 
Q 5.515625 40.765625 12.171875 48.375 
Q 18.84375 56 30.609375 56 
z
" id="DejaVuSans-111"/>
     <path d="M 4.203125 54.6875 
L 13.1875 54.6875 
L 24.421875 12.015625 
L 35.59375 54.6875 
L 46.1875 54.6875 
L 57.421875 12.015625 
L 68.609375 54.6875 
L 77.59375 54.6875 
L 63.28125 0 
L 52.6875 0 
L 40.921875 44.828125 
L 29.109375 0 
L 18.5 0 
z
" id="DejaVuSans-119"/>
     <path d="M 10.59375 45.40625 
L 73.1875 45.40625 
L 73.1875 37.203125 
L 10.59375 37.203125 
z
M 10.59375 25.484375 
L 73.1875 25.484375 
L 73.1875 17.1875 
L 10.59375 17.1875 
z
" id="DejaVuSans-61"/>
     <path d="M 9.8125 72.90625 
L 51.703125 72.90625 
L 51.703125 64.59375 
L 19.671875 64.59375 
L 19.671875 43.109375 
L 48.578125 43.109375 
L 48.578125 34.8125 
L 19.671875 34.8125 
L 19.671875 0 
L 9.8125 0 
z
" id="DejaVuSans-70"/>
     <path d="M 34.28125 27.484375 
Q 23.390625 27.484375 19.1875 25 
Q 14.984375 22.515625 14.984375 16.5 
Q 14.984375 11.71875 18.140625 8.90625 
Q 21.296875 6.109375 26.703125 6.109375 
Q 34.1875 6.109375 38.703125 11.40625 
Q 43.21875 16.703125 43.21875 25.484375 
L 43.21875 27.484375 
z
M 52.203125 31.203125 
L 52.203125 0 
L 43.21875 0 
L 43.21875 8.296875 
Q 40.140625 3.328125 35.546875 0.953125 
Q 30.953125 -1.421875 24.3125 -1.421875 
Q 15.921875 -1.421875 10.953125 3.296875 
Q 6 8.015625 6 15.921875 
Q 6 25.140625 12.171875 29.828125 
Q 18.359375 34.515625 30.609375 34.515625 
L 43.21875 34.515625 
L 43.21875 35.40625 
Q 43.21875 41.609375 39.140625 45 
Q 35.0625 48.390625 27.6875 48.390625 
Q 23 48.390625 18.546875 47.265625 
Q 14.109375 46.140625 10.015625 43.890625 
L 10.015625 52.203125 
Q 14.9375 54.109375 19.578125 55.046875 
Q 24.21875 56 28.609375 56 
Q 40.484375 56 46.34375 49.84375 
Q 52.203125 43.703125 52.203125 31.203125 
z
" id="DejaVuSans-97"/>
     <path d="M 9.421875 75.984375 
L 18.40625 75.984375 
L 18.40625 0 
L 9.421875 0 
z
" id="DejaVuSans-108"/>
     <path d="M 19.671875 64.796875 
L 19.671875 8.109375 
L 31.59375 8.109375 
Q 46.6875 8.109375 53.6875 14.9375 
Q 60.6875 21.78125 60.6875 36.53125 
Q 60.6875 51.171875 53.6875 57.984375 
Q 46.6875 64.796875 31.59375 64.796875 
z
M 9.8125 72.90625 
L 30.078125 72.90625 
Q 51.265625 72.90625 61.171875 64.09375 
Q 71.09375 55.28125 71.09375 36.53125 
Q 71.09375 17.671875 61.125 8.828125 
Q 51.171875 0 30.078125 0 
L 9.8125 0 
z
" id="DejaVuSans-68"/>
     <path d="M 45.40625 27.984375 
Q 45.40625 37.75 41.375 43.109375 
Q 37.359375 48.484375 30.078125 48.484375 
Q 22.859375 48.484375 18.828125 43.109375 
Q 14.796875 37.75 14.796875 27.984375 
Q 14.796875 18.265625 18.828125 12.890625 
Q 22.859375 7.515625 30.078125 7.515625 
Q 37.359375 7.515625 41.375 12.890625 
Q 45.40625 18.265625 45.40625 27.984375 
z
M 54.390625 6.78125 
Q 54.390625 -7.171875 48.1875 -13.984375 
Q 42 -20.796875 29.203125 -20.796875 
Q 24.46875 -20.796875 20.265625 -20.09375 
Q 16.0625 -19.390625 12.109375 -17.921875 
L 12.109375 -9.1875 
Q 16.0625 -11.328125 19.921875 -12.34375 
Q 23.78125 -13.375 27.78125 -13.375 
Q 36.625 -13.375 41.015625 -8.765625 
Q 45.40625 -4.15625 45.40625 5.171875 
L 45.40625 9.625 
Q 42.625 4.78125 38.28125 2.390625 
Q 33.9375 0 27.875 0 
Q 17.828125 0 11.671875 7.65625 
Q 5.515625 15.328125 5.515625 27.984375 
Q 5.515625 40.671875 11.671875 48.328125 
Q 17.828125 56 27.875 56 
Q 33.9375 56 38.28125 53.609375 
Q 42.625 51.21875 45.40625 46.390625 
L 45.40625 54.6875 
L 54.390625 54.6875 
z
" id="DejaVuSans-103"/>
     <path d="M 41.109375 46.296875 
Q 39.59375 47.171875 37.8125 47.578125 
Q 36.03125 48 33.890625 48 
Q 26.265625 48 22.1875 43.046875 
Q 18.109375 38.09375 18.109375 28.8125 
L 18.109375 0 
L 9.078125 0 
L 9.078125 54.6875 
L 18.109375 54.6875 
L 18.109375 46.1875 
Q 20.953125 51.171875 25.484375 53.578125 
Q 30.03125 56 36.53125 56 
Q 37.453125 56 38.578125 55.875 
Q 39.703125 55.765625 41.0625 55.515625 
z
" id="DejaVuSans-114"/>
     <path d="M 9.421875 54.6875 
L 18.40625 54.6875 
L 18.40625 0 
L 9.421875 0 
z
M 9.421875 75.984375 
L 18.40625 75.984375 
L 18.40625 64.59375 
L 9.421875 64.59375 
z
" id="DejaVuSans-105"/>
     <path d="M 10.6875 12.40625 
L 21 12.40625 
L 21 0 
L 10.6875 0 
z
" id="DejaVuSans-46"/>
    </defs>
    <g transform="translate(49.741875 35.472)scale(0.12 -0.12)">
     <use xlink:href="#DejaVuSans-40"/>
     <use x="39.013672" xlink:href="#DejaVuSans-56"/>
     <use x="102.636719" xlink:href="#DejaVuSans-50"/>
     <use x="166.259766" xlink:href="#DejaVuSans-41"/>
     <use x="205.273438" xlink:href="#DejaVuSans-32"/>
     <use x="237.060547" xlink:href="#DejaVuSans-83"/>
     <use x="300.537109" xlink:href="#DejaVuSans-117"/>
     <use x="363.916016" xlink:href="#DejaVuSans-98"/>
     <use x="427.392578" xlink:href="#DejaVuSans-106"/>
     <use x="455.175781" xlink:href="#DejaVuSans-101"/>
     <use x="516.699219" xlink:href="#DejaVuSans-99"/>
     <use x="571.679688" xlink:href="#DejaVuSans-116"/>
     <use x="610.888672" xlink:href="#DejaVuSans-58"/>
     <use x="644.580078" xlink:href="#DejaVuSans-32"/>
     <use x="676.367188" xlink:href="#DejaVuSans-115"/>
     <use x="728.466797" xlink:href="#DejaVuSans-50"/>
     <use x="792.089844" xlink:href="#DejaVuSans-51"/>
     <use x="855.712891" xlink:href="#DejaVuSans-44"/>
     <use x="887.5" xlink:href="#DejaVuSans-32"/>
     <use x="919.287109" xlink:href="#DejaVuSans-75"/>
     <use x="984.863281" xlink:href="#DejaVuSans-110"/>
     <use x="1048.242188" xlink:href="#DejaVuSans-111"/>
     <use x="1109.423828" xlink:href="#DejaVuSans-119"/>
     <use x="1191.210938" xlink:href="#DejaVuSans-110"/>
     <use x="1254.589844" xlink:href="#DejaVuSans-32"/>
     <use x="1286.376953" xlink:href="#DejaVuSans-61"/>
     <use x="1370.166016" xlink:href="#DejaVuSans-32"/>
     <use x="1401.953125" xlink:href="#DejaVuSans-70"/>
     <use x="1459.332031" xlink:href="#DejaVuSans-97"/>
     <use x="1520.611328" xlink:href="#DejaVuSans-108"/>
     <use x="1548.394531" xlink:href="#DejaVuSans-115"/>
     <use x="1600.494141" xlink:href="#DejaVuSans-101"/>
     <use x="1662.017578" xlink:href="#DejaVuSans-44"/>
     <use x="1693.804688" xlink:href="#DejaVuSans-32"/>
     <use x="1725.591797" xlink:href="#DejaVuSans-68"/>
     <use x="1802.59375" xlink:href="#DejaVuSans-101"/>
     <use x="1864.117188" xlink:href="#DejaVuSans-103"/>
     <use x="1927.59375" xlink:href="#DejaVuSans-114"/>
     <use x="1968.675781" xlink:href="#DejaVuSans-101"/>
     <use x="2030.199219" xlink:href="#DejaVuSans-101"/>
     <use x="2091.722656" xlink:href="#DejaVuSans-32"/>
     <use x="2123.509766" xlink:href="#DejaVuSans-61"/>
     <use x="2207.298828" xlink:href="#DejaVuSans-32"/>
     <use x="2239.085938" xlink:href="#DejaVuSans-49"/>
     <use x="2302.708984" xlink:href="#DejaVuSans-44"/>
     <use x="2334.496094" xlink:href="#DejaVuSans-32"/>
     <use x="2366.283203" xlink:href="#DejaVuSans-68"/>
     <use x="2443.285156" xlink:href="#DejaVuSans-117"/>
     <use x="2506.664062" xlink:href="#DejaVuSans-114"/>
     <use x="2547.777344" xlink:href="#DejaVuSans-97"/>
     <use x="2609.056641" xlink:href="#DejaVuSans-116"/>
     <use x="2648.265625" xlink:href="#DejaVuSans-105"/>
     <use x="2676.048828" xlink:href="#DejaVuSans-111"/>
     <use x="2737.230469" xlink:href="#DejaVuSans-110"/>
     <use x="2800.609375" xlink:href="#DejaVuSans-32"/>
     <use x="2832.396484" xlink:href="#DejaVuSans-61"/>
     <use x="2916.185547" xlink:href="#DejaVuSans-32"/>
     <use x="2947.972656" xlink:href="#DejaVuSans-48"/>
     <use x="3011.595703" xlink:href="#DejaVuSans-46"/>
     <use x="3043.382812" xlink:href="#DejaVuSans-49"/>
    </g>
   </g>
  </g>
 </g>
 <defs>
  <clipPath id="p036ad6f3b9">
   <rect height="266.112" width="357.12" x="57.6" y="41.472"/>
  </clipPath>
 </defs>
</svg>
