<?xml version="1.0" encoding="utf-8" standalone="no"?>
<!DOCTYPE svg PUBLIC "-//W3C//DTD SVG 1.1//EN"
  "http://www.w3.org/Graphics/SVG/1.1/DTD/svg11.dtd">
<!-- Created with matplotlib (https://matplotlib.org/) -->
<svg height="345.6pt" version="1.1" viewBox="0 0 460.8 345.6" width="460.8pt" xmlns="http://www.w3.org/2000/svg" xmlns:xlink="http://www.w3.org/1999/xlink">
 <defs>
  <style type="text/css">
*{stroke-linecap:butt;stroke-linejoin:round;}
  </style>
 </defs>
 <g id="figure_1">
  <g id="patch_1">
   <path d="M 0 345.6 
L 460.8 345.6 
L 460.8 0 
L 0 0 
z
" style="fill:#ffffff;"/>
  </g>
  <g id="axes_1">
   <g id="patch_2">
    <path d="M 57.6 307.584 
L 414.72 307.584 
L 414.72 41.472 
L 57.6 41.472 
z
" style="fill:#ffffff;"/>
   </g>
   <g id="line2d_1">
    <path clip-path="url(#p1a32a6b53d)" d="M 73.832727 295.488 
L 74.183491 295.488 
L 74.008109 295.488 
L 73.832727 295.31426 
L 74.358872 294.6193 
L 74.358872 294.6193 
L 74.534254 294.6193 
L 74.534254 294.6193 
L 74.448001 294.447408 
L 74.183491 294.447408 
L 73.921856 294.6193 
L 73.832727 294.96678 
L 74.272619 294.6193 
L 74.448001 294.099928 
L 74.534254 294.273668 
L 74.709636 294.273668 
L 74.798764 294.099928 
L 74.709636 293.926188 
L 74.534254 293.926188 
L 74.534254 293.752448 
L 75.060399 293.231228 
L 75.235781 292.711857 
L 75.149528 292.538117 
L 74.974146 292.711857 
L 75.149528 292.711857 
L 75.586544 292.364377 
L 75.851054 292.538117 
L 76.201818 292.538117 
L 76.989598 292.190637 
L 78.131017 291.495677 
L 79.53407 290.976305 
L 81.287887 290.455085 
L 83.478721 289.588233 
L 86.284829 287.852682 
L 89.530828 286.11713 
L 92.952209 284.555319 
L 110.314998 278.306224 
L 115.490196 276.225041 
L 120.751647 273.968269 
L 125.92397 271.365866 
L 131.360803 268.415982 
L 137.151275 265.985471 
L 149.163484 262.166888 
L 155.129337 260.431336 
L 161.353951 258.869524 
L 167.843074 257.481453 
L 174.245944 256.440861 
L 180.648814 255.572161 
L 187.399572 255.052789 
L 194.417716 254.705309 
L 208.272871 254.705309 
L 215.288139 254.357829 
L 222.303407 254.531569 
L 229.583186 254.531569 
L 236.862964 254.184089 
L 243.964486 253.664718 
L 250.804373 253.317238 
L 257.647135 253.143498 
L 264.487021 253.317238 
L 271.326908 254.010349 
L 278.080541 254.879049 
L 284.745046 255.572161 
L 291.320423 256.093381 
L 297.812421 256.788341 
L 303.950781 257.133973 
L 310.000012 257.307713 
L 316.227501 257.307713 
L 327.891822 258.002673 
L 333.328655 258.523893 
L 338.679235 258.695784 
L 344.026939 259.043264 
L 354.814352 260.431336 
L 359.98955 260.259444 
L 364.900238 259.564484 
L 369.546416 258.695784 
L 373.930958 258.176413 
L 378.142994 257.481453 
L 385.770661 256.440861 
L 391.558258 254.879049 
L 393.487456 254.531569 
L 394.979639 254.879049 
L 397.170472 255.919641 
L 398.136509 257.133973 
L 398.401019 258.523893 
L 397.871999 259.043264 
L 397.521236 259.738224 
L 397.434982 260.952556 
L 397.521236 261.300036 
L 397.521236 261.821256 
L 397.170472 262.166888 
L 397.610364 263.556808 
L 398.401019 265.290511 
L 398.136509 265.811731 
L 397.961128 266.680431 
L 398.136509 266.680431 
L 398.136509 266.852322 
L 397.871999 267.199802 
L 397.696617 267.026062 
L 397.785746 266.159211 
L 397.871999 266.852322 
L 397.871999 267.199802 
L 397.785746 267.199802 
L 397.696617 267.199802 
L 397.696617 267.199802 
L 397.785746 267.026062 
L 398.136509 267.026062 
L 398.050256 266.680431 
L 398.050256 267.721022 
L 397.785746 268.242242 
L 397.521236 268.068502 
L 397.434982 267.547282 
L 397.610364 267.721022 
L 397.785746 268.068502 
L 397.961128 268.068502 
L 397.871999 268.242242 
L 397.610364 268.242242 
L 397.345854 268.415982 
L 397.434982 268.761614 
L 397.696617 268.415982 
L 397.785746 267.026062 
L 397.871999 267.026062 
L 397.785746 267.199802 
L 397.434982 267.373542 
L 397.345854 267.721022 
L 397.785746 267.721022 
L 397.785746 267.721022 
L 397.345854 267.894762 
L 397.610364 267.721022 
L 397.521236 266.852322 
L 397.434982 266.852322 
L 397.434982 266.852322 
L 397.345854 267.026062 
L 397.259601 267.721022 
L 397.259601 267.373542 
L 397.170472 266.506691 
L 397.785746 265.464251 
L 397.785746 265.637991 
L 397.521236 265.985471 
L 397.259601 265.985471 
L 397.084219 265.811731 
L 397.434982 265.464251 
L 397.345854 265.637991 
L 396.995091 265.637991 
L 396.908837 265.118619 
L 397.170472 264.944879 
L 397.785746 265.290511 
L 397.696617 265.118619 
L 398.136509 264.597399 
L 398.136509 264.423659 
L 397.785746 264.771139 
L 397.610364 265.118619 
L 397.785746 264.944879 
L 397.871999 265.464251 
L 397.696617 264.944879 
L 397.521236 264.771139 
L 397.434982 264.944879 
L 397.610364 265.290511 
L 398.050256 265.464251 
L 398.225638 265.464251 
L 398.225638 265.464251 
L 397.961128 265.290511 
L 397.696617 265.290511 
L 397.696617 265.118619 
L 397.871999 265.118619 
L 397.961128 264.944879 
L 397.871999 264.944879 
L 397.785746 264.944879 
L 397.521236 265.118619 
L 397.259601 265.118619 
L 396.819709 265.290511 
L 396.031929 265.811731 
L 393.401203 268.068502 
L 391.558258 269.282834 
L 389.192042 270.323426 
L 382.964554 272.406457 
L 370.949469 275.877561 
L 366.303291 276.572521 
L 361.567985 276.572521 
L 356.743551 275.703821 
L 351.657481 274.142009 
L 346.39603 271.713346 
L 340.783815 268.761614 
L 334.993344 266.159211 
L 323.418151 261.647516 
L 317.895064 259.390744 
L 312.455356 257.481453 
L 306.93227 255.745901 
L 301.495437 253.490978 
L 296.144857 251.407946 
L 285.621955 248.631803 
L 280.271375 247.069991 
L 274.834542 246.201291 
L 269.308581 245.680071 
L 258.524043 245.33444 
L 253.259717 245.33444 
L 248.173647 245.1607 
L 243.176706 245.33444 
L 238.17689 245.33444 
L 228.617149 244.98696 
L 224.321735 244.63948 
L 220.112574 244.63948 
L 216.078794 245.1607 
L 212.131268 245.50818 
L 208.534506 245.50818 
L 205.202253 244.98696 
L 202.045382 244.63948 
L 199.063893 244.81322 
L 193.187168 245.680071 
L 190.996335 246.896251 
L 191.171716 247.069991 
L 191.52248 247.243731 
L 191.873243 247.243731 
L 192.31026 247.069991 
L 192.836405 246.722511 
L 193.451679 246.896251 
L 193.89157 247.243731 
L 194.153205 247.069991 
L 194.593097 247.069991 
L 194.593097 247.069991 
L 194.593097 247.243731 
L 194.328587 247.589363 
L 194.417716 247.763103 
L 194.679351 247.763103 
L 194.854732 247.936843 
L 194.854732 248.284323 
L 194.854732 248.110583 
L 195.119242 248.110583 
L 195.205496 247.243731 
L 195.380877 247.069991 
L 195.556259 246.722511 
L 195.820769 247.243731 
L 195.907023 246.896251 
L 195.820769 246.548771 
L 195.820769 246.722511 
L 195.731641 247.069991 
L 195.907023 247.415623 
L 195.907023 247.415623 
L 196.082404 247.415623 
L 196.346914 247.763103 
L 196.257786 247.589363 
L 196.257786 247.415623 
L 195.907023 247.415623 
L 196.082404 247.415623 
L 196.171533 247.589363 
L 196.082404 248.631803 
L 195.907023 248.805543 
L 195.820769 248.284323 
L 195.996151 248.110583 
L 196.171533 248.284323 
L 196.346914 248.631803 
L 196.433168 248.458063 
L 196.433168 248.110583 
L 196.433168 248.458063 
L 196.873059 249.846135 
L 196.697678 249.151175 
L 196.783931 248.977435 
L 196.873059 249.151175 
L 197.223823 250.193615 
L 197.399205 250.019875 
L 197.310076 249.498655 
L 197.134694 249.324915 
L 197.048441 249.498655 
L 197.310076 250.019875 
L 197.399205 250.539246 
L 197.399205 250.019875 
L 197.399205 249.672395 
L 197.310076 249.846135 
L 197.134694 250.367355 
L 197.134694 250.367355 
L 197.485458 250.367355 
L 198.100731 250.712986 
L 197.92535 251.060466 
L 197.485458 251.407946 
L 198.537748 250.539246 
L 198.451495 250.712986 
L 198.276113 251.407946 
L 198.276113 251.060466 
L 198.011603 250.886726 
L 197.66084 250.367355 
L 197.92535 250.712986 
L 198.451495 251.929166 
L 198.362366 251.581686 
L 198.186985 251.407946 
L 198.011603 251.407946 
L 197.92535 251.234206 
L 197.92535 251.234206 
L 197.92535 250.886726 
L 198.011603 251.581686 
L 198.276113 251.755426 
L 198.276113 251.929166 
L 197.92535 252.274798 
L 198.186985 252.102906 
L 198.276113 252.102906 
L 198.186985 252.102906 
L 198.100731 251.929166 
L 198.537748 252.796018 
L 198.451495 252.969758 
L 198.276113 252.969758 
L 197.92535 252.796018 
L 195.470006 250.019875 
L 194.328587 249.151175 
L 192.661023 248.284323 
L 182.402631 244.11826 
L 179.070378 243.425148 
L 175.738126 242.903928 
L 172.402998 242.730188 
L 169.159874 242.730188 
L 166.003003 242.903928 
L 162.757004 242.903928 
L 159.163117 242.730188 
L 155.304719 243.077668 
L 147.935812 244.11826 
L 140.920544 244.11826 
L 137.588291 244.46574 
L 131.099168 245.50818 
L 124.785427 246.201291 
L 121.803938 246.722511 
L 119.084083 246.896251 
L 113.911761 246.896251 
L 102.948966 248.631803 
L 102.247439 248.458063 
L 101.896676 248.110583 
L 101.456784 247.936843 
L 101.019767 248.284323 
L 101.106021 249.151175 
L 101.370531 249.846135 
L 101.807548 250.367355 
L 102.333693 250.367355 
L 102.509074 250.712986 
L 102.422821 251.581686 
L 102.598203 251.755426 
L 102.948966 251.407946 
L 103.29973 251.234206 
L 103.561365 251.407946 
L 103.475111 251.581686 
L 103.124348 251.929166 
L 102.598203 252.796018 
L 102.684456 252.796018 
L 102.948966 252.969758 
L 103.210601 254.357829 
L 103.124348 254.705309 
L 103.29973 255.400269 
L 103.035219 254.531569 
L 103.124348 254.879049 
L 103.124348 255.226529 
L 103.29973 255.226529 
L 103.475111 255.052789 
L 103.385983 255.572161 
L 103.29973 255.745901 
L 103.475111 255.919641 
L 103.736746 255.919641 
L 104.001256 256.093381 
L 103.912128 255.919641 
L 103.736746 256.093381 
L 104.001256 256.614601 
L 103.912128 258.002673 
L 103.825875 258.002673 
L 103.912128 257.828933 
L 103.825875 257.828933 
L 103.825875 257.481453 
L 103.912128 257.655193 
L 104.08751 258.176413 
L 104.176638 258.002673 
L 103.825875 257.307713 
L 103.736746 257.481453 
L 103.825875 257.828933 
L 103.912128 259.043264 
L 104.08751 259.390744 
L 104.08751 260.085704 
L 104.176638 258.869524 
L 104.08751 259.043264 
L 104.262891 259.043264 
L 104.262891 259.390744 
L 104.08751 259.911964 
L 103.912128 259.911964 
L 104.001256 259.738224 
L 104.176638 259.911964 
L 104.176638 259.911964 
L 103.912128 258.869524 
L 104.176638 259.564484 
L 104.35202 259.911964 
L 104.176638 259.564484 
L 104.001256 259.564484 
L 103.912128 259.738224 
L 103.912128 260.085704 
L 104.08751 260.085704 
L 104.262891 259.564484 
L 104.35202 259.738224 
L 104.35202 260.085704 
L 104.438273 259.911964 
L 104.613655 259.911964 
L 104.613655 260.085704 
L 104.438273 259.911964 
L 104.08751 259.043264 
L 104.001256 259.043264 
L 104.08751 259.043264 
L 104.438273 260.085704 
L 104.35202 259.911964 
L 104.35202 259.390744 
L 104.527402 259.043264 
L 104.613655 259.217004 
L 104.262891 259.564484 
L 104.35202 259.217004 
L 104.438273 259.390744 
L 104.527402 259.911964 
L 104.438273 259.738224 
L 104.262891 259.564484 
L 104.176638 259.217004 
L 104.527402 258.350153 
L 104.527402 258.523893 
L 104.789037 258.869524 
L 104.08751 257.828933 
L 104.35202 258.176413 
L 104.527402 257.828933 
L 104.789037 256.962081 
L 104.613655 256.962081 
L 104.964418 256.440861 
L 105.228928 255.919641 
L 104.878165 255.919641 
L 104.702783 256.093381 
L 104.702783 256.093381 
L 105.053547 255.052789 
L 105.40431 254.531569 
L 105.315182 254.531569 
L 105.228928 254.184089 
L 105.315182 253.664718 
L 105.841327 252.622278 
L 106.281219 251.407946 
L 109.087326 244.98696 
L 110.49038 241.689596 
L 114.348777 233.533058 
L 116.542486 229.195103 
L 119.084083 224.8553 
L 127.591534 212.013327 
L 130.573023 207.675372 
L 136.536001 199.518834 
L 139.51749 195.179031 
L 142.588108 191.362296 
L 145.65585 188.064933 
L 151.969592 181.643946 
L 155.040209 177.825363 
L 158.021698 173.661148 
L 160.827805 169.495085 
L 163.54766 166.371462 
L 166.178385 163.595319 
L 168.544601 160.645435 
L 170.73831 157.519964 
L 174.861217 151.967677 
L 176.876669 149.191534 
L 178.630487 146.413542 
L 181.085831 141.034996 
L 181.962739 138.778224 
L 182.664266 136.521453 
L 183.454921 134.440269 
L 185.11961 130.969166 
L 185.208738 129.926726 
L 185.470373 128.886135 
L 185.910265 128.364915 
L 185.996518 129.059875 
L 185.910265 129.059875 
L 185.821137 129.233615 
L 185.821137 130.274206 
L 185.996518 130.274206 
L 186.347282 130.795426 
L 186.347282 130.795426 
L 186.347282 130.447946 
L 186.43641 130.795426 
L 186.787174 131.316646 
L 187.048809 130.969166 
L 187.048809 130.447946 
L 186.873427 130.447946 
L 186.787174 130.621686 
L 187.22419 129.926726 
L 187.313319 129.926726 
L 187.137937 130.274206 
L 187.313319 128.712395 
L 187.399572 128.886135 
L 187.574954 129.233615 
L 187.664082 129.752986 
L 187.839464 129.926726 
L 188.014846 129.926726 
L 188.014846 129.581095 
L 187.750335 129.752986 
L 188.014846 129.926726 
L 188.276481 129.752986 
L 188.276481 129.581095 
L 188.365609 129.581095 
L 188.451862 129.581095 
L 188.540991 129.752986 
L 188.190227 130.100466 
L 188.190227 130.447946 
L 188.365609 130.447946 
L 188.540991 130.274206 
L 188.627244 130.621686 
L 188.627244 131.316646 
L 188.451862 131.662278 
L 188.451862 131.488538 
L 188.627244 131.142906 
L 189.153389 131.142906 
L 189.417899 131.488538 
L 189.417899 132.009758 
L 189.504153 131.836018 
L 189.679534 131.662278 
L 189.854916 131.662278 
L 189.679534 132.183498 
L 189.679534 132.357238 
L 189.854916 132.357238 
L 190.030298 132.530978 
L 190.030298 132.704718 
L 190.119426 132.704718 
L 190.381061 132.878458 
L 190.556443 133.571569 
L 190.556443 133.571569 
L 190.556443 133.050349 
L 190.381061 132.704718 
L 190.205679 132.704718 
L 190.119426 133.919049 
L 190.556443 134.612161 
L 190.645571 133.745309 
L 190.731825 133.397829 
L 190.731825 133.571569 
L 190.907206 134.612161 
L 190.731825 133.050349 
L 190.645571 133.571569 
L 190.645571 134.092789 
L 190.996335 134.785901 
L 191.082588 134.440269 
L 190.996335 134.266529 
L 191.347098 134.785901 
L 191.608733 134.959641 
L 191.433351 134.612161 
L 191.52248 134.440269 
L 191.347098 134.785901 
L 191.433351 135.133381 
L 191.347098 135.133381 
L 191.25797 135.133381 
L 191.347098 135.133381 
L 191.608733 135.480861 
L 191.873243 135.480861 
L 192.134878 135.307121 
L 192.134878 135.480861 
L 191.873243 135.828341 
L 191.697861 135.480861 
L 191.697861 135.133381 
L 191.697861 135.828341 
L 192.224007 135.307121 
L 192.31026 135.307121 
L 192.224007 135.307121 
L 192.134878 136.175821 
L 192.134878 135.828341 
L 191.873243 135.307121 
L 192.31026 136.002081 
L 192.134878 135.828341 
L 192.31026 135.654601 
L 192.485642 135.828341 
L 192.57477 137.042673 
L 192.925533 137.042673 
L 192.836405 137.563893 
L 192.661023 138.083264 
L 192.485642 138.083264 
L 192.57477 137.563893 
L 193.011787 136.695193 
L 192.925533 137.737633 
L 192.836405 138.083264 
L 192.750152 137.909524 
L 192.925533 137.390153 
L 192.925533 136.868933 
L 192.750152 136.695193 
L 192.57477 136.868933 
L 192.836405 136.695193 
L 192.836405 136.347713 
L 192.57477 135.654601 
L 192.485642 134.092789 
L 192.485642 131.836018 
L 191.433351 118.646565 
L 191.25797 115.870422 
L 190.47019 109.449435 
L 190.119426 106.152072 
L 189.944044 103.028449 
L 189.944044 99.904825 
L 189.768663 96.607462 
L 189.153389 90.879587 
L 189.417899 83.418009 
L 189.153389 78.211354 
L 188.716372 73.178439 
L 188.276481 70.921668 
L 188.014846 68.840485 
L 187.925717 66.583713 
L 188.451862 62.072018 
L 188.451862 60.683946 
L 189.067136 61.724538 
L 189.153389 61.550798 
L 188.978007 60.857686 
L 189.153389 61.377058 
L 189.679534 62.419498 
L 189.504153 61.898278 
L 189.679534 61.377058 
L 189.593281 61.550798 
L 189.504153 61.377058 
L 189.593281 61.203318 
L 189.679534 61.377058 
L 189.679534 61.724538 
L 189.679534 61.203318 
L 190.119426 60.162726 
L 190.294808 59.988986 
L 190.47019 59.988986 
L 190.556443 59.641507 
L 190.47019 59.469615 
L 190.731825 59.988986 
L 190.556443 59.815247 
L 190.47019 59.988986 
L 190.47019 59.988986 
L 190.381061 59.641507 
L 190.47019 59.295875 
L 190.645571 59.469615 
L 190.820953 59.988986 
L 190.820953 60.336466 
L 190.996335 60.336466 
L 190.996335 60.162726 
L 190.907206 60.162726 
L 190.381061 60.162726 
L 190.381061 59.988986 
L 190.907206 59.988986 
L 190.907206 60.162726 
L 190.645571 60.162726 
L 190.381061 59.641507 
L 190.556443 59.641507 
L 190.556443 59.815247 
L 190.381061 60.162726 
L 190.381061 60.510206 
L 190.731825 60.162726 
L 190.731825 59.988986 
L 190.820953 61.377058 
L 190.731825 61.377058 
L 190.556443 61.550798 
L 190.205679 62.245758 
L 190.996335 62.245758 
L 190.820953 62.245758 
L 190.47019 62.76513 
L 190.645571 62.419498 
L 190.820953 62.593238 
L 191.082588 62.93887 
L 190.645571 62.93887 
L 190.556443 62.76513 
L 190.556443 63.11261 
L 190.381061 63.46009 
L 190.381061 63.80757 
L 190.645571 64.500681 
L 190.645571 64.15505 
L 190.731825 64.500681 
L 190.907206 64.500681 
L 190.907206 64.500681 
L 190.820953 65.195641 
L 190.907206 64.848161 
L 191.171716 64.848161 
L 191.25797 65.021901 
L 191.25797 65.021901 
L 191.873243 64.500681 
L 192.661023 65.021901 
L 193.802442 65.021901 
L 194.768479 65.195641 
L 197.223823 65.195641 
L 198.71313 65.890601 
L 201.519237 68.319265 
L 203.186801 69.533596 
L 205.026871 71.616628 
L 208.974397 77.690134 
L 211.078978 81.161238 
L 215.903413 88.624664 
L 218.534138 93.310099 
L 223.881843 102.159749 
L 232.213912 113.96113 
L 237.826126 121.077076 
L 246.859722 131.662278 
L 249.665829 135.133381 
L 255.102662 142.249328 
L 257.90877 145.720431 
L 263.083968 152.488897 
L 268.170037 158.736144 
L 270.536253 162.033507 
L 280.886649 175.22296 
L 282.289702 177.825363 
L 283.517374 180.775247 
L 284.655918 183.89887 
L 285.446573 187.022493 
L 287.901917 198.476394 
L 288.338934 203.509309 
L 288.428062 205.766081 
L 287.98817 210.104036 
L 287.462025 215.658171 
L 287.025008 218.086834 
L 286.498863 220.169865 
L 286.1481 222.079157 
L 285.88359 225.55026 
L 284.8313 230.061955 
L 284.920428 232.838098 
L 285.006681 234.054278 
L 284.920428 235.09487 
L 284.655918 236.135462 
L 284.480536 237.351642 
L 283.954391 239.085345 
L 283.954391 242.210816 
L 283.779009 243.425148 
L 283.779009 245.680071 
L 283.603628 246.375031 
L 283.517374 248.805543 
L 282.991229 251.581686 
L 283.166611 253.143498 
L 282.815847 253.490978 
L 282.815847 253.490978 
L 282.465084 254.879049 
L 282.551337 254.705309 
L 282.726719 254.879049 
L 282.640466 255.400269 
L 282.465084 255.919641 
L 282.375956 256.267121 
L 282.465084 256.093381 
L 282.465084 256.962081 
L 282.640466 256.962081 
L 282.902101 256.440861 
L 282.726719 256.267121 
L 282.551337 256.440861 
L 282.375956 256.962081 
L 282.375956 257.655193 
L 282.375956 257.307713 
L 282.815847 257.307713 
L 282.815847 256.788341 
L 282.815847 256.962081 
L 282.465084 256.962081 
L 282.289702 257.133973 
L 282.465084 256.440861 
L 282.465084 256.614601 
L 282.465084 257.307713 
L 282.289702 257.481453 
L 282.114321 257.133973 
L 282.114321 256.614601 
L 282.114321 256.962081 
L 281.938939 256.962081 
L 281.84981 256.788341 
L 281.763557 256.962081 
L 281.674429 257.481453 
L 281.412794 257.133973 
L 281.499047 256.440861 
L 281.588175 256.440861 
L 281.674429 256.614601 
L 281.412794 257.655193 
L 281.588175 256.788341 
L 281.148284 257.307713 
L 281.148284 257.133973 
L 281.237412 257.133973 
L 281.412794 257.828933 
L 281.323665 257.828933 
L 281.148284 257.655193 
L 281.148284 257.828933 
L 281.237412 257.655193 
L 281.323665 257.481453 
L 281.588175 258.176413 
L 281.674429 258.176413 
L 281.323665 258.176413 
L 281.499047 258.350153 
L 281.588175 258.350153 
L 281.323665 259.043264 
L 281.237412 259.564484 
L 281.148284 259.217004 
L 281.237412 259.043264 
L 281.237412 258.523893 
L 281.148284 258.523893 
L 280.886649 258.695784 
L 280.622139 259.217004 
L 280.711267 259.217004 
L 280.972902 259.043264 
L 281.237412 259.043264 
L 281.323665 259.217004 
L 281.237412 259.564484 
L 281.148284 259.911964 
L 280.79752 259.911964 
L 280.886649 259.911964 
L 281.06203 260.085704 
L 280.79752 259.911964 
L 280.79752 259.911964 
L 280.622139 260.431336 
L 280.271375 260.431336 
L 280.360503 259.911964 
L 280.446757 259.564484 
L 280.360503 259.564484 
L 280.271375 259.738224 
L 280.271375 260.259444 
L 280.185122 260.085704 
L 279.834358 260.605076 
L 280.00974 260.605076 
L 280.271375 260.431336 
L 280.446757 260.085704 
L 280.622139 260.085704 
L 280.360503 259.564484 
L 280.360503 259.217004 
L 280.271375 259.564484 
L 279.920612 260.085704 
L 280.095993 259.911964 
L 280.185122 260.085704 
L 279.834358 261.300036 
L 279.920612 261.126296 
L 279.834358 260.605076 
L 279.920612 260.431336 
L 280.185122 260.605076 
L 280.271375 260.952556 
L 280.095993 261.126296 
L 279.132832 259.390744 
L 276.763741 258.176413 
L 275.886832 258.002673 
L 275.009924 258.002673 
L 273.957634 257.655193 
L 272.991597 257.481453 
L 271.588543 257.828933 
L 270.625381 258.176413 
L 270.449999 258.350153 
L 270.360871 258.695784 
L 269.483962 259.564484 
L 269.483962 260.778816 
L 269.397709 260.431336 
L 269.308581 260.259444 
L 268.957817 260.778816 
L 268.607054 260.952556 
L 268.345419 261.473776 
L 268.345419 263.209328 
L 268.345419 262.688108 
L 268.170037 262.688108 
L 268.170037 262.861848 
L 268.345419 262.861848 
L 268.431672 263.209328 
L 268.431672 263.209328 
L 268.957817 262.688108 
L 268.871564 262.861848 
L 268.607054 263.209328 
L 268.520801 262.861848 
L 268.520801 263.209328 
L 268.345419 263.383068 
L 268.345419 263.209328 
L 268.520801 262.861848 
L 268.696182 262.861848 
L 268.782436 261.473776 
L 269.133199 260.605076 
L 269.222327 260.259444 
L 268.871564 260.605076 
L 269.308581 259.217004 
L 269.222327 259.217004 
L 268.871564 259.217004 
L 268.607054 259.390744 
L 268.871564 259.217004 
L 269.222327 258.695784 
L 269.046946 258.176413 
L 269.046946 258.350153 
L 269.046946 258.695784 
L 269.046946 258.695784 
L 269.397709 258.695784 
L 269.483962 258.523893 
L 269.483962 258.002673 
L 269.923854 257.133973 
L 269.659344 256.614601 
L 269.573091 255.919641 
L 269.748473 255.226529 
L 269.923854 255.745901 
L 269.659344 255.052789 
L 269.659344 255.052789 
L 269.308581 255.400269 
L 269.573091 255.052789 
L 269.834726 254.705309 
L 269.923854 254.357829 
L 269.834726 254.705309 
L 269.748473 254.531569 
L 269.834726 253.664718 
L 270.099236 253.664718 
L 270.360871 254.010349 
L 270.360871 254.531569 
L 270.185489 254.705309 
L 270.010108 254.531569 
L 269.923854 254.010349 
L 270.185489 253.317238 
L 270.099236 253.143498 
L 269.923854 253.143498 
L 270.010108 253.490978 
L 270.185489 253.490978 
L 270.360871 253.317238 
L 270.536253 253.317238 
L 270.625381 253.664718 
L 270.449999 253.490978 
L 270.360871 252.969758 
L 270.536253 252.448538 
L 270.536253 252.448538 
L 270.274618 252.274798 
L 270.274618 252.622278 
L 270.536253 252.969758 
L 270.800763 252.448538 
L 270.711634 251.407946 
L 270.625381 251.234206 
L 270.711634 252.274798 
L 270.976144 252.102906 
L 271.326908 251.581686 
L 271.413161 251.581686 
L 271.413161 251.407946 
L 271.237779 251.407946 
L 271.062398 251.581686 
L 271.50229 251.060466 
L 271.588543 250.886726 
L 271.326908 250.886726 
L 270.711634 249.846135 
L 269.659344 249.324915 
L 267.643892 247.415623 
L 265.800946 246.548771 
L 260.27786 244.81322 
L 253.961244 242.903928 
L 250.453609 241.515856 
L 246.68434 240.301525 
L 242.825943 238.913453 
L 238.878416 237.871013 
L 234.933766 237.004162 
L 221.777262 235.961722 
L 217.306466 235.961722 
L 212.919048 235.61609 
L 208.359124 235.44235 
L 198.97764 235.44235 
L 194.242334 235.61609 
L 189.417899 236.135462 
L 184.507211 237.177902 
L 179.421142 237.871013 
L 174.245944 238.218493 
L 169.159874 238.739713 
L 163.984676 239.432825 
L 158.987735 239.780305 
L 149.427994 240.820897 
L 144.517306 241.515856 
L 139.51749 241.863336 
L 130.397641 242.210816 
L 126.013099 242.730188 
L 121.803938 242.903928 
L 117.856412 243.251408 
L 114.087142 243.946368 
L 110.401251 244.46574 
L 106.893617 244.63948 
L 103.736746 244.98696 
L 100.579876 245.50818 
L 97.687515 246.201291 
L 93.213844 246.896251 
L 91.460027 247.243731 
L 89.266318 248.805543 
L 88.915554 248.805543 
L 88.915554 248.977435 
L 89.355446 250.019875 
L 89.530828 250.886726 
L 89.792463 251.407946 
L 90.056973 251.407946 
L 90.318608 251.234206 
L 90.669371 252.622278 
L 90.583118 252.448538 
L 90.407736 252.274798 
L 90.407736 252.274798 
L 90.056973 253.836609 
L 90.056973 254.357829 
L 89.967845 254.357829 
L 89.70621 253.836609 
L 89.70621 254.357829 
L 90.056973 254.879049 
L 90.232355 255.052789 
L 90.407736 255.572161 
L 89.967845 256.093381 
L 90.056973 255.919641 
L 90.318608 255.572161 
L 90.318608 255.572161 
L 90.318608 256.962081 
L 90.143226 257.307713 
L 90.318608 256.962081 
L 90.232355 256.788341 
L 90.583118 257.655193 
L 90.49399 258.002673 
L 90.583118 258.002673 
L 90.7585 258.350153 
L 90.49399 259.043264 
L 90.7585 260.085704 
L 90.669371 259.911964 
L 90.844753 259.911964 
L 91.020135 260.259444 
L 90.933882 260.952556 
L 90.7585 261.300036 
L 90.49399 260.605076 
L 90.49399 260.259444 
L 90.669371 260.778816 
L 90.844753 261.821256 
L 90.844753 261.473776 
L 90.583118 261.473776 
L 90.056973 262.340628 
L 90.056973 262.340628 
L 90.7585 262.340628 
L 90.49399 262.340628 
L 90.232355 262.514368 
L 90.318608 262.861848 
L 90.49399 263.383068 
L 90.232355 262.861848 
L 90.232355 263.209328 
L 90.318608 263.209328 
L 90.49399 263.035588 
L 90.407736 262.688108 
L 90.232355 262.514368 
L 90.232355 262.340628 
L 90.318608 262.514368 
L 90.407736 262.861848 
L 90.407736 262.688108 
L 90.583118 262.340628 
L 90.583118 262.514368 
L 90.407736 263.383068 
L 90.407736 263.728699 
L 90.318608 263.556808 
L 90.232355 263.383068 
L 90.407736 263.209328 
L 90.407736 263.035588 
L 90.143226 262.688108 
L 90.49399 263.728699 
L 90.49399 263.556808 
L 90.49399 263.209328 
L 90.318608 262.861848 
L 90.583118 262.514368 
L 90.49399 263.209328 
L 90.407736 263.209328 
L 90.583118 262.861848 
L 90.407736 262.861848 
L 90.318608 262.688108 
L 90.143226 262.688108 
L 90.143226 262.861848 
L 90.318608 262.861848 
L 90.49399 262.688108 
L 90.49399 262.514368 
L 90.318608 262.340628 
L 90.232355 262.688108 
L 90.318608 263.556808 
L 90.232355 263.209328 
L 90.143226 263.383068 
L 89.967845 263.209328 
L 89.967845 263.035588 
L 90.056973 263.035588 
L 90.49399 263.209328 
L 90.49399 262.861848 
L 90.407736 262.861848 
L 90.318608 263.209328 
L 90.583118 263.902439 
L 90.232355 264.249919 
L 90.056973 264.076179 
L 89.967845 263.556808 
L 90.232355 263.209328 
L 90.407736 263.209328 
L 90.232355 263.209328 
L 90.49399 263.728699 
L 90.49399 263.728699 
L 90.232355 263.728699 
L 90.232355 263.556808 
L 90.583118 262.861848 
L 90.669371 263.035588 
L 90.583118 264.076179 
L 90.407736 263.383068 
L 90.49399 263.556808 
L 90.669371 263.209328 
L 90.669371 263.383068 
L 90.49399 263.209328 
L 90.407736 262.861848 
L 90.583118 262.688108 
L 90.669371 262.861848 
L 90.49399 262.514368 
L 90.669371 262.861848 
L 90.933882 263.902439 
L 90.933882 263.556808 
L 90.933882 263.035588 
L 90.583118 262.688108 
L 90.583118 263.035588 
L 90.933882 263.383068 
L 91.109263 263.209328 
L 91.020135 262.688108 
L 90.669371 262.688108 
L 90.407736 262.514368 
L 90.407736 262.166888 
L 91.109263 260.778816 
L 91.373773 259.390744 
L 91.460027 257.828933 
L 91.724537 256.614601 
L 92.250682 255.052789 
L 92.776827 252.796018 
L 93.389225 249.672395 
L 94.266134 245.853811 
L 96.635225 236.482942 
L 98.038278 230.756915 
L 99.702967 224.50782 
L 101.456784 218.434314 
L 105.228928 206.806672 
L 108.561181 195.179031 
L 115.401068 174.70174 
L 121.013282 158.736144 
L 123.382373 152.834529 
L 127.502406 141.206888 
L 129.520733 136.175821 
L 131.449932 130.621686 
L 136.975893 113.78739 
L 142.412726 98.688645 
L 144.077415 93.657579 
L 145.744978 89.144036 
L 147.409667 85.153561 
L 150.304903 77.516394 
L 151.79421 73.699659 
L 155.215591 63.98131 
L 156.181628 61.377058 
L 156.969408 58.774655 
L 157.846316 56.691623 
L 158.636972 53.74174 
L 158.898607 53.74174 
L 159.775515 54.08922 
L 160.126279 54.4367 
L 160.477042 54.956072 
L 160.652424 55.651032 
L 160.56617 56.517883 
L 160.652424 56.344143 
L 161.003187 55.998512 
L 160.741552 55.477292 
L 160.827805 55.651032 
L 161.092316 55.651032 
L 161.443079 55.129812 
L 161.704714 54.08922 
L 161.793842 54.26296 
L 161.793842 54.4367 
L 161.969224 54.608592 
L 162.406241 53.568 
L 162.319988 53.91548 
L 162.319988 54.4367 
L 162.670751 54.4367 
L 163.021514 53.568 
L 162.406241 54.782332 
L 162.144606 54.782332 
L 162.055477 54.4367 
L 162.144606 54.4367 
L 162.581623 54.4367 
L 162.757004 54.608592 
L 162.757004 55.129812 
L 162.406241 55.651032 
L 162.406241 55.129812 
L 162.319988 56.865363 
L 162.144606 56.865363 
L 162.319988 56.865363 
L 162.670751 57.560323 
L 162.670751 58.253435 
L 162.846133 58.427175 
L 162.932386 58.079695 
L 162.932386 57.560323 
L 162.757004 57.386583 
L 162.495369 57.905955 
L 162.230859 59.295875 
L 162.319988 59.469615 
L 162.495369 59.469615 
L 162.406241 59.469615 
L 162.319988 59.122135 
L 162.319988 59.295875 
L 162.406241 60.336466 
L 162.319988 59.641507 
L 162.144606 60.162726 
L 162.406241 59.641507 
L 162.319988 59.988986 
L 162.230859 61.377058 
L 161.969224 61.724538 
L 162.144606 61.550798 
L 162.230859 61.724538 
L 162.055477 61.550798 
L 162.055477 61.724538 
L 162.230859 62.072018 
L 162.144606 61.724538 
L 161.969224 61.377058 
L 161.969224 61.724538 
L 161.880096 61.550798 
L 161.529332 61.377058 
L 161.267697 61.550798 
L 161.267697 62.593238 
L 161.443079 62.593238 
L 161.793842 62.072018 
L 161.793842 61.898278 
L 161.793842 62.593238 
L 161.618461 62.93887 
L 161.793842 62.419498 
L 161.178569 63.11261 
L 161.092316 63.46009 
L 161.178569 63.63383 
L 161.353951 63.46009 
L 161.267697 63.28635 
L 161.618461 64.15505 
L 161.529332 64.15505 
L 161.529332 64.848161 
L 161.353951 64.674421 
L 161.443079 64.15505 
L 161.267697 64.32879 
L 161.178569 64.32879 
L 161.353951 64.32879 
L 161.443079 64.674421 
L 161.443079 64.674421 
L 161.092316 64.674421 
L 160.827805 64.848161 
L 160.916934 65.021901 
L 161.178569 64.848161 
L 161.003187 65.021901 
L 161.092316 65.369381 
L 161.092316 65.369381 
L 161.178569 64.674421 
L 161.178569 64.848161 
L 161.353951 65.716861 
L 161.267697 65.543121 
L 161.003187 65.195641 
L 160.827805 65.195641 
L 160.741552 65.369381 
L 160.827805 66.236233 
L 160.652424 65.716861 
L 160.56617 65.890601 
L 160.56617 66.062493 
L 160.741552 65.890601 
L 160.827805 65.543121 
L 160.741552 65.369381 
L 160.477042 65.716861 
L 160.477042 66.062493 
L 160.652424 66.062493 
L 160.30166 66.062493 
L 160.30166 66.409973 
L 160.215407 66.409973 
L 160.126279 66.236233 
L 160.215407 66.409973 
L 160.126279 67.278673 
L 159.950897 67.626153 
L 160.040025 67.626153 
L 160.126279 67.626153 
L 160.30166 67.104933 
L 160.477042 67.452413 
L 160.477042 68.145525 
L 160.390789 67.971785 
L 160.040025 67.104933 
L 160.040025 67.104933 
L 160.126279 67.104933 
L 160.040025 67.626153 
L 159.864644 67.626153 
L 159.689262 67.278673 
L 159.424752 67.104933 
L 159.424752 67.104933 
L 159.689262 66.757453 
L 159.775515 66.409973 
L 159.775515 66.409973 
L 159.864644 66.757453 
L 159.864644 66.409973 
L 159.864644 66.062493 
L 159.864644 66.062493 
L 159.600134 66.409973 
L 159.600134 66.236233 
L 159.163117 66.236233 
L 159.073988 66.062493 
L 159.689262 65.716861 
L 159.775515 65.021901 
L 159.775515 64.848161 
L 159.689262 64.848161 
L 159.600134 64.674421 
L 159.864644 63.80757 
L 159.950897 64.500681 
L 159.864644 64.500681 
L 159.775515 64.32879 
L 159.864644 62.593238 
L 159.689262 62.593238 
L 159.600134 62.76513 
L 159.689262 62.419498 
L 159.775515 61.724538 
L 159.950897 61.550798 
L 159.864644 61.377058 
L 159.600134 61.377058 
L 159.600134 60.857686 
L 160.040025 60.162726 
L 160.215407 60.510206 
L 160.30166 60.336466 
L 160.30166 59.641507 
L 160.215407 59.641507 
L 160.126279 59.295875 
L 160.30166 58.774655 
L 160.215407 59.295875 
L 160.477042 58.427175 
L 160.56617 58.600915 
L 160.477042 58.948395 
L 160.652424 58.948395 
L 160.741552 58.253435 
L 160.56617 57.212843 
L 161.003187 56.865363 
L 161.793842 56.517883 
L 162.757004 56.344143 
L 163.809295 55.998512 
L 165.036967 55.824772 
L 170.123036 57.386583 
L 171.876853 58.253435 
L 173.89518 59.641507 
L 177.753578 63.80757 
L 179.682777 66.062493 
L 184.33183 70.402296 
L 186.698045 72.657219 
L 193.451679 80.641866 
L 196.082404 83.418009 
L 198.537748 86.194152 
L 200.993092 89.317776 
L 208.00836 100.078565 
L 210.377451 104.06904 
L 214.41123 111.184987 
L 223.094063 125.415031 
L 225.023261 128.364915 
L 226.95246 130.795426 
L 230.460094 134.266529 
L 231.949401 136.347713 
L 233.266202 138.951964 
L 236.949218 148.322834 
L 237.915255 151.272717 
L 240.632234 158.388664 
L 241.598271 162.207247 
L 241.859906 164.28843 
L 241.509142 170.190045 
L 241.247507 173.487408 
L 240.721362 181.122726 
L 240.632234 184.59383 
L 239.49369 190.319856 
L 239.142927 192.576628 
L 239.053798 196.221471 
L 238.792163 196.740843 
L 238.527653 197.609543 
L 238.266018 199.518834 
L 238.001508 200.385686 
L 238.266018 202.642458 
L 237.739873 203.683049 
L 238.001508 204.030529 
L 237.739873 204.378009 
L 237.739873 204.378009 
L 237.915255 204.897381 
L 237.826126 205.418601 
L 238.001508 205.939821 
L 238.090636 205.592341 
L 238.090636 205.939821 
L 238.090636 206.113561 
L 237.915255 206.287301 
L 237.915255 206.287301 
L 238.090636 206.287301 
L 238.266018 205.418601 
L 238.527653 205.418601 
L 238.4414 206.287301 
L 238.001508 207.154152 
L 237.826126 207.154152 
L 237.826126 206.806672 
L 238.090636 206.459192 
L 237.915255 206.113561 
L 237.915255 205.418601 
L 238.266018 204.378009 
L 237.650745 205.244861 
L 237.826126 205.766081 
L 238.090636 205.939821 
L 238.001508 205.418601 
L 237.826126 205.071121 
L 238.001508 205.418601 
L 238.17689 205.418601 
L 238.352271 205.244861 
L 238.352271 205.244861 
L 238.352271 205.592341 
L 238.266018 205.244861 
L 238.090636 204.897381 
L 238.090636 205.071121 
L 238.17689 205.071121 
L 238.266018 204.897381 
L 238.352271 204.378009 
L 238.527653 204.030529 
L 238.4414 204.030529 
L 238.266018 204.204269 
L 238.266018 204.204269 
L 238.266018 204.030529 
L 238.266018 204.897381 
L 238.352271 204.725489 
L 238.703035 203.683049 
L 238.703035 203.856789 
L 238.703035 204.204269 
L 238.352271 204.897381 
L 238.527653 204.897381 
L 238.792163 205.071121 
L 238.616781 205.592341 
L 238.703035 205.244861 
L 238.616781 205.244861 
L 238.616781 205.418601 
L 238.878416 205.939821 
L 239.22918 206.113561 
L 239.22918 205.939821 
L 239.053798 205.766081 
L 238.792163 205.766081 
L 238.527653 205.592341 
L 238.792163 204.725489 
L 238.967545 205.071121 
L 238.967545 205.939821 
L 238.878416 205.939821 
L 238.792163 205.939821 
L 238.703035 205.766081 
L 238.792163 205.592341 
L 239.142927 205.244861 
L 238.967545 205.244861 
L 238.703035 205.766081 
L 238.616781 206.632932 
L 238.616781 206.287301 
L 238.792163 206.287301 
L 238.967545 206.113561 
L 238.878416 205.939821 
L 238.703035 205.939821 
L 238.616781 206.113561 
L 238.967545 206.806672 
L 238.703035 206.287301 
L 238.703035 205.939821 
L 239.053798 205.939821 
L 238.967545 205.592341 
L 238.878416 205.592341 
L 238.703035 205.766081 
L 238.792163 205.766081 
L 239.142927 206.459192 
L 238.878416 206.459192 
L 239.053798 206.806672 
L 239.053798 206.632932 
L 238.878416 205.766081 
L 238.967545 205.766081 
L 239.053798 206.459192 
L 239.22918 206.632932 
L 239.22918 206.459192 
L 239.142927 206.459192 
L 238.967545 206.632932 
L 238.878416 206.980412 
L 238.878416 206.632932 
L 238.878416 206.459192 
L 238.792163 207.501632 
L 238.616781 207.501632 
L 238.967545 206.806672 
L 238.792163 206.113561 
L 238.967545 206.632932 
L 239.318308 206.287301 
L 239.318308 206.459192 
L 239.22918 206.287301 
L 238.878416 206.287301 
L 238.967545 206.287301 
L 239.142927 206.459192 
L 239.142927 205.766081 
L 239.22918 206.806672 
L 239.053798 206.459192 
L 238.703035 206.287301 
L 238.527653 206.806672 
L 238.4414 206.632932 
L 238.352271 206.459192 
L 238.4414 206.632932 
L 238.792163 206.980412 
L 238.703035 207.327892 
L 238.792163 207.675372 
L 238.792163 207.501632 
L 238.352271 207.501632 
L 238.527653 207.501632 
L 238.527653 207.849112 
L 238.352271 208.022852 
L 238.4414 208.022852 
L 238.616781 208.022852 
L 238.703035 208.368484 
L 238.616781 208.542224 
L 238.527653 208.368484 
L 238.616781 207.849112 
L 238.527653 208.022852 
L 238.616781 207.327892 
L 238.878416 207.327892 
L 238.967545 207.675372 
L 238.792163 208.715964 
L 238.967545 208.022852 
L 239.053798 207.849112 
L 239.142927 208.194744 
L 239.053798 208.542224 
L 238.792163 208.542224 
L 238.878416 208.542224 
L 239.053798 208.715964 
L 239.053798 208.194744 
L 238.967545 209.063444 
L 239.053798 208.715964 
L 239.318308 208.715964 
L 239.404562 208.542224 
L 238.967545 209.237184 
L 238.792163 209.410924 
L 239.053798 209.237184 
L 239.142927 209.410924 
L 239.053798 209.237184 
L 238.792163 209.930296 
L 238.703035 209.756556 
L 238.792163 209.756556 
L 238.878416 209.756556 
L 238.967545 209.410924 
L 239.22918 210.104036 
L 239.142927 210.104036 
L 238.792163 211.146476 
L 239.053798 210.451516 
L 239.22918 210.277776 
L 239.49369 211.146476 
L 239.404562 210.972736 
L 239.22918 211.146476 
L 239.22918 210.625256 
L 239.142927 210.972736 
L 239.053798 210.972736 
L 239.053798 210.972736 
L 238.967545 211.320216 
L 239.142927 211.146476 
L 239.142927 210.625256 
L 239.053798 210.798996 
L 238.967545 211.320216 
L 238.703035 211.665847 
L 238.703035 211.492107 
L 238.967545 211.492107 
L 238.878416 211.320216 
L 238.878416 211.320216 
L 238.967545 210.625256 
L 238.967545 210.451516 
L 238.703035 210.798996 
L 238.967545 210.798996 
L 239.142927 210.625256 
L 239.053798 210.625256 
L 238.967545 210.625256 
L 239.053798 210.625256 
L 239.22918 210.451516 
L 239.22918 210.277776 
L 239.142927 210.277776 
L 239.053798 210.277776 
L 239.053798 210.451516 
L 238.967545 210.451516 
L 238.792163 210.798996 
L 238.967545 211.320216 
L 238.878416 209.930296 
L 238.792163 209.930296 
L 238.4414 210.625256 
L 238.616781 210.972736 
L 238.4414 210.451516 
L 238.616781 210.277776 
L 238.527653 210.625256 
L 238.527653 210.277776 
L 238.352271 210.277776 
L 238.266018 210.451516 
L 238.266018 210.277776 
L 238.17689 209.756556 
L 238.352271 209.410924 
L 238.4414 209.756556 
L 238.266018 210.451516 
L 237.826126 210.972736 
L 237.915255 210.972736 
L 238.001508 210.451516 
L 237.915255 209.930296 
L 237.739873 209.930296 
L 237.564491 210.451516 
L 237.739873 210.277776 
L 237.915255 209.756556 
L 237.739873 209.756556 
L 237.475363 210.277776 
L 237.650745 210.451516 
L 237.564491 210.451516 
L 237.650745 210.277776 
L 237.826126 210.277776 
L 237.826126 210.625256 
L 237.915255 209.756556 
L 237.739873 209.756556 
L 237.564491 209.756556 
L 237.38911 209.584664 
L 237.826126 210.451516 
L 237.650745 210.277776 
L 237.475363 210.451516 
L 237.475363 210.798996 
L 237.564491 210.451516 
L 237.650745 210.277776 
L 237.564491 210.104036 
L 237.915255 209.584664 
L 237.739873 209.756556 
L 236.862964 210.451516 
L 236.949218 210.625256 
L 237.299981 210.798996 
L 237.299981 211.146476 
L 237.299981 210.625256 
L 237.124599 210.625256 
L 237.124599 210.451516 
L 237.475363 210.277776 
L 237.38911 210.277776 
L 237.213728 210.104036 
L 237.213728 210.625256 
L 237.564491 210.277776 
L 237.564491 210.104036 
L 237.475363 210.625256 
L 237.38911 210.798996 
L 237.038346 210.451516 
L 237.124599 210.277776 
L 237.38911 210.798996 
L 237.38911 211.146476 
L 237.299981 210.798996 
L 237.038346 210.104036 
L 237.038346 210.104036 
L 237.213728 210.104036 
L 237.38911 209.930296 
L 237.299981 209.584664 
L 237.038346 209.584664 
L 236.949218 210.277776 
L 237.038346 210.451516 
L 237.038346 210.451516 
L 236.862964 210.451516 
L 236.862964 209.930296 
L 236.949218 210.104036 
L 237.038346 210.798996 
L 236.862964 210.104036 
L 236.773836 210.798996 
L 236.773836 210.451516 
L 236.687583 210.451516 
L 236.687583 210.972736 
L 236.773836 210.625256 
L 236.862964 210.625256 
L 237.038346 210.798996 
L 237.299981 210.798996 
L 236.598454 210.798996 
L 236.598454 210.451516 
L 236.687583 210.798996 
L 236.773836 210.625256 
L 236.687583 209.237184 
L 236.773836 209.410924 
L 236.862964 210.104036 
L 236.512201 211.320216 
L 236.423073 211.146476 
L 236.687583 210.451516 
L 236.336819 208.715964 
L 236.512201 208.889704 
L 236.687583 209.237184 
L 236.512201 209.063444 
L 236.423073 209.237184 
L 236.336819 209.063444 
L 236.423073 209.063444 
L 236.512201 209.063444 
L 236.598454 208.368484 
L 236.687583 208.022852 
L 236.598454 207.849112 
L 236.161438 208.022852 
L 236.247691 207.675372 
L 236.161438 207.327892 
L 235.986056 207.154152 
L 235.986056 207.327892 
L 236.247691 207.501632 
L 236.423073 207.327892 
L 236.423073 207.154152 
L 236.336819 207.327892 
L 236.247691 207.327892 
L 236.247691 206.287301 
L 235.986056 205.939821 
L 235.810674 205.939821 
L 235.721546 206.113561 
L 235.896927 205.939821 
L 235.810674 205.592341 
L 235.546164 205.244861 
L 235.546164 204.897381 
L 235.721546 204.378009 
L 235.896927 204.378009 
L 235.810674 204.725489 
L 235.810674 204.551749 
L 235.635292 204.378009 
L 235.370782 204.378009 
L 235.284529 204.030529 
L 235.459911 202.989938 
L 235.459911 202.989938 
L 235.721546 202.989938 
L 235.721546 202.989938 
L 235.810674 200.906906 
L 235.635292 200.906906 
L 235.459911 201.254386 
L 235.635292 201.600018 
L 235.635292 200.906906 
L 235.459911 200.559426 
L 235.546164 199.345094 
L 235.635292 199.345094 
L 235.546164 199.866314 
L 235.721546 199.692574 
L 235.986056 197.783283 
L 235.986056 197.957023 
L 235.896927 197.957023 
L 235.635292 197.262063 
L 235.810674 196.914583 
L 236.072309 196.740843 
L 236.161438 196.914583 
L 236.161438 196.914583 
L 236.247691 196.740843 
L 236.161438 196.740843 
L 235.986056 196.740843 
L 235.810674 196.395211 
L 235.810674 195.873991 
L 235.986056 195.700251 
L 235.986056 195.873991 
L 236.161438 195.873991 
L 236.336819 195.700251 
L 236.336819 195.179031 
L 236.072309 195.005291 
L 236.072309 195.179031 
L 236.072309 194.833399 
L 235.986056 194.833399 
L 235.896927 194.659659 
L 236.072309 193.964699 
L 236.161438 194.138439 
L 236.072309 194.659659 
L 235.986056 194.312179 
L 236.161438 193.443479 
L 236.161438 193.790959 
L 236.161438 194.138439 
L 236.336819 194.312179 
L 236.512201 194.312179 
L 236.423073 193.617219 
L 236.512201 193.271588 
L 236.512201 193.271588 
L 236.598454 193.443479 
L 236.598454 193.271588 
L 236.687583 192.576628 
L 236.687583 193.097848 
L 237.038346 193.097848 
L 236.949218 192.576628 
L 236.773836 192.055408 
L 236.687583 192.229148 
L 236.949218 191.881668 
L 236.862964 191.881668 
L 236.598454 191.536036 
L 236.423073 191.709776 
L 236.512201 191.709776 
L 236.949218 191.709776 
L 236.773836 191.536036 
L 236.598454 191.536036 
L 236.687583 191.014816 
L 236.862964 190.667336 
L 237.739873 191.014816 
L 237.564491 190.667336 
L 237.475363 190.146116 
L 237.650745 189.800485 
L 237.564491 189.800485 
L 237.124599 190.146116 
L 237.124599 189.800485 
L 237.299981 189.453005 
L 237.650745 189.105525 
L 237.650745 188.931785 
L 237.38911 189.105525 
L 237.299981 189.105525 
L 237.739873 189.105525 
L 237.650745 189.453005 
L 237.564491 189.453005 
L 237.475363 189.105525 
L 237.564491 188.238673 
L 237.564491 188.931785 
L 237.826126 188.758045 
L 238.001508 187.717453 
L 237.826126 187.891193 
L 237.475363 187.543713 
L 237.475363 187.717453 
L 237.564491 187.717453 
L 237.739873 187.543713 
L 237.739873 187.369973 
L 237.475363 187.369973 
L 237.475363 187.196233 
L 237.739873 187.022493 
L 237.915255 186.676861 
L 237.826126 186.676861 
L 237.564491 186.676861 
L 237.299981 186.329381 
L 237.299981 186.329381 
L 237.475363 186.329381 
L 237.564491 186.503121 
L 237.564491 186.503121 
L 237.739873 186.329381 
L 237.826126 185.634421 
L 237.826126 185.286941 
L 237.650745 184.76757 
L 237.739873 184.94131 
L 238.090636 185.286941 
L 238.17689 184.94131 
L 237.915255 184.59383 
L 237.915255 184.59383 
L 237.826126 184.24635 
L 238.001508 183.89887 
L 238.001508 184.42009 
L 238.17689 184.59383 
L 238.352271 183.379498 
L 238.4414 183.72513 
L 238.266018 183.89887 
L 238.17689 183.89887 
L 238.4414 183.72513 
L 238.527653 183.205758 
L 238.4414 183.032018 
L 238.17689 183.205758 
L 238.17689 183.72513 
L 238.17689 183.205758 
L 238.527653 182.337058 
L 238.266018 182.337058 
L 238.090636 182.684538 
L 238.17689 183.205758 
L 237.915255 181.989578 
L 237.915255 181.989578 
L 238.17689 182.337058 
L 238.4414 182.684538 
L 238.792163 182.858278 
L 238.792163 183.032018 
L 238.266018 183.032018 
L 238.352271 183.72513 
L 238.17689 183.553238 
L 238.001508 184.07261 
L 238.090636 184.07261 
L 238.266018 184.76757 
L 238.4414 184.59383 
L 238.527653 185.11505 
L 238.703035 185.11505 
L 238.703035 185.11505 
L 238.703035 185.460681 
L 238.616781 184.94131 
L 238.527653 184.76757 
L 238.527653 184.94131 
L 238.527653 185.11505 
L 238.616781 184.94131 
L 238.703035 184.59383 
L 238.616781 184.42009 
L 238.352271 184.42009 
L 238.090636 184.76757 
L 238.17689 185.11505 
L 238.352271 184.94131 
L 238.352271 184.59383 
L 238.17689 184.42009 
L 238.527653 185.634421 
L 238.4414 185.286941 
L 238.266018 185.286941 
L 238.266018 185.460681 
L 238.352271 185.286941 
L 238.4414 185.11505 
L 238.4414 185.460681 
L 238.616781 185.634421 
L 238.616781 185.460681 
L 238.352271 184.42009 
L 238.266018 184.59383 
L 238.527653 184.24635 
L 238.527653 184.59383 
L 238.616781 184.42009 
L 238.792163 184.59383 
L 238.792163 185.460681 
L 238.878416 185.286941 
L 238.967545 184.59383 
L 238.878416 184.59383 
L 238.4414 185.11505 
L 238.352271 185.286941 
L 238.352271 185.808161 
L 238.616781 185.808161 
L 238.792163 185.634421 
L 238.703035 185.460681 
L 238.527653 185.634421 
L 238.4414 185.981901 
L 238.616781 185.808161 
L 238.703035 185.460681 
L 238.352271 185.460681 
L 238.4414 185.460681 
L 238.703035 184.94131 
L 238.703035 184.94131 
L 238.792163 185.11505 
L 238.878416 184.94131 
L 238.703035 184.94131 
L 238.527653 185.11505 
L 238.616781 185.634421 
L 238.703035 185.808161 
L 238.703035 184.94131 
L 238.4414 184.76757 
L 238.352271 185.11505 
L 238.4414 185.460681 
L 238.352271 185.808161 
L 238.4414 185.808161 
L 238.967545 185.286941 
L 238.703035 185.460681 
L 237.826126 185.11505 
L 237.915255 184.59383 
L 237.739873 185.286941 
L 237.564491 185.286941 
L 238.001508 185.286941 
L 237.564491 184.94131 
L 237.38911 185.11505 
L 237.38911 185.460681 
L 237.38911 185.460681 
" style="fill:none;stroke:#1f77b4;stroke-linecap:square;stroke-width:1.5;"/>
   </g>
   <g id="matplotlib.axis_1">
    <g id="xtick_1">
     <g id="line2d_2">
      <defs>
       <path d="M 0 0 
L 0 3.5 
" id="m78c75687c8" style="stroke:#000000;stroke-width:0.8;"/>
      </defs>
      <g>
       <use style="stroke:#000000;stroke-width:0.8;" x="111.718052" xlink:href="#m78c75687c8" y="307.584"/>
      </g>
     </g>
     <g id="text_1">
      <!-- 0 -->
      <defs>
       <path d="M 31.78125 66.40625 
Q 24.171875 66.40625 20.328125 58.90625 
Q 16.5 51.421875 16.5 36.375 
Q 16.5 21.390625 20.328125 13.890625 
Q 24.171875 6.390625 31.78125 6.390625 
Q 39.453125 6.390625 43.28125 13.890625 
Q 47.125 21.390625 47.125 36.375 
Q 47.125 51.421875 43.28125 58.90625 
Q 39.453125 66.40625 31.78125 66.40625 
z
M 31.78125 74.21875 
Q 44.046875 74.21875 50.515625 64.515625 
Q 56.984375 54.828125 56.984375 36.375 
Q 56.984375 17.96875 50.515625 8.265625 
Q 44.046875 -1.421875 31.78125 -1.421875 
Q 19.53125 -1.421875 13.0625 8.265625 
Q 6.59375 17.96875 6.59375 36.375 
Q 6.59375 54.828125 13.0625 64.515625 
Q 19.53125 74.21875 31.78125 74.21875 
z
" id="DejaVuSans-48"/>
      </defs>
      <g transform="translate(108.536802 322.182437)scale(0.1 -0.1)">
       <use xlink:href="#DejaVuSans-48"/>
      </g>
     </g>
    </g>
    <g id="xtick_2">
     <g id="line2d_3">
      <g>
       <use style="stroke:#000000;stroke-width:0.8;" x="169.220252" xlink:href="#m78c75687c8" y="307.584"/>
      </g>
     </g>
     <g id="text_2">
      <!-- 200 -->
      <defs>
       <path d="M 19.1875 8.296875 
L 53.609375 8.296875 
L 53.609375 0 
L 7.328125 0 
L 7.328125 8.296875 
Q 12.9375 14.109375 22.625 23.890625 
Q 32.328125 33.6875 34.8125 36.53125 
Q 39.546875 41.84375 41.421875 45.53125 
Q 43.3125 49.21875 43.3125 52.78125 
Q 43.3125 58.59375 39.234375 62.25 
Q 35.15625 65.921875 28.609375 65.921875 
Q 23.96875 65.921875 18.8125 64.3125 
Q 13.671875 62.703125 7.8125 59.421875 
L 7.8125 69.390625 
Q 13.765625 71.78125 18.9375 73 
Q 24.125 74.21875 28.421875 74.21875 
Q 39.75 74.21875 46.484375 68.546875 
Q 53.21875 62.890625 53.21875 53.421875 
Q 53.21875 48.921875 51.53125 44.890625 
Q 49.859375 40.875 45.40625 35.40625 
Q 44.1875 33.984375 37.640625 27.21875 
Q 31.109375 20.453125 19.1875 8.296875 
z
" id="DejaVuSans-50"/>
      </defs>
      <g transform="translate(159.676502 322.182437)scale(0.1 -0.1)">
       <use xlink:href="#DejaVuSans-50"/>
       <use x="63.623047" xlink:href="#DejaVuSans-48"/>
       <use x="127.246094" xlink:href="#DejaVuSans-48"/>
      </g>
     </g>
    </g>
    <g id="xtick_3">
     <g id="line2d_4">
      <g>
       <use style="stroke:#000000;stroke-width:0.8;" x="226.722451" xlink:href="#m78c75687c8" y="307.584"/>
      </g>
     </g>
     <g id="text_3">
      <!-- 400 -->
      <defs>
       <path d="M 37.796875 64.3125 
L 12.890625 25.390625 
L 37.796875 25.390625 
z
M 35.203125 72.90625 
L 47.609375 72.90625 
L 47.609375 25.390625 
L 58.015625 25.390625 
L 58.015625 17.1875 
L 47.609375 17.1875 
L 47.609375 0 
L 37.796875 0 
L 37.796875 17.1875 
L 4.890625 17.1875 
L 4.890625 26.703125 
z
" id="DejaVuSans-52"/>
      </defs>
      <g transform="translate(217.178701 322.182437)scale(0.1 -0.1)">
       <use xlink:href="#DejaVuSans-52"/>
       <use x="63.623047" xlink:href="#DejaVuSans-48"/>
       <use x="127.246094" xlink:href="#DejaVuSans-48"/>
      </g>
     </g>
    </g>
    <g id="xtick_4">
     <g id="line2d_5">
      <g>
       <use style="stroke:#000000;stroke-width:0.8;" x="284.224651" xlink:href="#m78c75687c8" y="307.584"/>
      </g>
     </g>
     <g id="text_4">
      <!-- 600 -->
      <defs>
       <path d="M 33.015625 40.375 
Q 26.375 40.375 22.484375 35.828125 
Q 18.609375 31.296875 18.609375 23.390625 
Q 18.609375 15.53125 22.484375 10.953125 
Q 26.375 6.390625 33.015625 6.390625 
Q 39.65625 6.390625 43.53125 10.953125 
Q 47.40625 15.53125 47.40625 23.390625 
Q 47.40625 31.296875 43.53125 35.828125 
Q 39.65625 40.375 33.015625 40.375 
z
M 52.59375 71.296875 
L 52.59375 62.3125 
Q 48.875 64.0625 45.09375 64.984375 
Q 41.3125 65.921875 37.59375 65.921875 
Q 27.828125 65.921875 22.671875 59.328125 
Q 17.53125 52.734375 16.796875 39.40625 
Q 19.671875 43.65625 24.015625 45.921875 
Q 28.375 48.1875 33.59375 48.1875 
Q 44.578125 48.1875 50.953125 41.515625 
Q 57.328125 34.859375 57.328125 23.390625 
Q 57.328125 12.15625 50.6875 5.359375 
Q 44.046875 -1.421875 33.015625 -1.421875 
Q 20.359375 -1.421875 13.671875 8.265625 
Q 6.984375 17.96875 6.984375 36.375 
Q 6.984375 53.65625 15.1875 63.9375 
Q 23.390625 74.21875 37.203125 74.21875 
Q 40.921875 74.21875 44.703125 73.484375 
Q 48.484375 72.75 52.59375 71.296875 
z
" id="DejaVuSans-54"/>
      </defs>
      <g transform="translate(274.680901 322.182437)scale(0.1 -0.1)">
       <use xlink:href="#DejaVuSans-54"/>
       <use x="63.623047" xlink:href="#DejaVuSans-48"/>
       <use x="127.246094" xlink:href="#DejaVuSans-48"/>
      </g>
     </g>
    </g>
    <g id="xtick_5">
     <g id="line2d_6">
      <g>
       <use style="stroke:#000000;stroke-width:0.8;" x="341.726851" xlink:href="#m78c75687c8" y="307.584"/>
      </g>
     </g>
     <g id="text_5">
      <!-- 800 -->
      <defs>
       <path d="M 31.78125 34.625 
Q 24.75 34.625 20.71875 30.859375 
Q 16.703125 27.09375 16.703125 20.515625 
Q 16.703125 13.921875 20.71875 10.15625 
Q 24.75 6.390625 31.78125 6.390625 
Q 38.8125 6.390625 42.859375 10.171875 
Q 46.921875 13.96875 46.921875 20.515625 
Q 46.921875 27.09375 42.890625 30.859375 
Q 38.875 34.625 31.78125 34.625 
z
M 21.921875 38.8125 
Q 15.578125 40.375 12.03125 44.71875 
Q 8.5 49.078125 8.5 55.328125 
Q 8.5 64.0625 14.71875 69.140625 
Q 20.953125 74.21875 31.78125 74.21875 
Q 42.671875 74.21875 48.875 69.140625 
Q 55.078125 64.0625 55.078125 55.328125 
Q 55.078125 49.078125 51.53125 44.71875 
Q 48 40.375 41.703125 38.8125 
Q 48.828125 37.15625 52.796875 32.3125 
Q 56.78125 27.484375 56.78125 20.515625 
Q 56.78125 9.90625 50.3125 4.234375 
Q 43.84375 -1.421875 31.78125 -1.421875 
Q 19.734375 -1.421875 13.25 4.234375 
Q 6.78125 9.90625 6.78125 20.515625 
Q 6.78125 27.484375 10.78125 32.3125 
Q 14.796875 37.15625 21.921875 38.8125 
z
M 18.3125 54.390625 
Q 18.3125 48.734375 21.84375 45.5625 
Q 25.390625 42.390625 31.78125 42.390625 
Q 38.140625 42.390625 41.71875 45.5625 
Q 45.3125 48.734375 45.3125 54.390625 
Q 45.3125 60.0625 41.71875 63.234375 
Q 38.140625 66.40625 31.78125 66.40625 
Q 25.390625 66.40625 21.84375 63.234375 
Q 18.3125 60.0625 18.3125 54.390625 
z
" id="DejaVuSans-56"/>
      </defs>
      <g transform="translate(332.183101 322.182437)scale(0.1 -0.1)">
       <use xlink:href="#DejaVuSans-56"/>
       <use x="63.623047" xlink:href="#DejaVuSans-48"/>
       <use x="127.246094" xlink:href="#DejaVuSans-48"/>
      </g>
     </g>
    </g>
    <g id="xtick_6">
     <g id="line2d_7">
      <g>
       <use style="stroke:#000000;stroke-width:0.8;" x="399.229051" xlink:href="#m78c75687c8" y="307.584"/>
      </g>
     </g>
     <g id="text_6">
      <!-- 1000 -->
      <defs>
       <path d="M 12.40625 8.296875 
L 28.515625 8.296875 
L 28.515625 63.921875 
L 10.984375 60.40625 
L 10.984375 69.390625 
L 28.421875 72.90625 
L 38.28125 72.90625 
L 38.28125 8.296875 
L 54.390625 8.296875 
L 54.390625 0 
L 12.40625 0 
z
" id="DejaVuSans-49"/>
      </defs>
      <g transform="translate(386.504051 322.182437)scale(0.1 -0.1)">
       <use xlink:href="#DejaVuSans-49"/>
       <use x="63.623047" xlink:href="#DejaVuSans-48"/>
       <use x="127.246094" xlink:href="#DejaVuSans-48"/>
       <use x="190.869141" xlink:href="#DejaVuSans-48"/>
      </g>
     </g>
    </g>
   </g>
   <g id="matplotlib.axis_2">
    <g id="ytick_1">
     <g id="line2d_8">
      <defs>
       <path d="M 0 0 
L -3.5 0 
" id="m8a4eec1de0" style="stroke:#000000;stroke-width:0.8;"/>
      </defs>
      <g>
       <use style="stroke:#000000;stroke-width:0.8;" x="57.6" xlink:href="#m8a4eec1de0" y="279.348664"/>
      </g>
     </g>
     <g id="text_7">
      <!-- 400 -->
      <defs>
       <path d="M 10.59375 35.5 
L 73.1875 35.5 
L 73.1875 27.203125 
L 10.59375 27.203125 
z
" id="DejaVuSans-8722"/>
      </defs>
      <g transform="translate(23.132812 283.147883)scale(0.1 -0.1)">
       <use xlink:href="#DejaVuSans-8722"/>
       <use x="83.789062" xlink:href="#DejaVuSans-52"/>
       <use x="147.412109" xlink:href="#DejaVuSans-48"/>
       <use x="211.035156" xlink:href="#DejaVuSans-48"/>
      </g>
     </g>
    </g>
    <g id="ytick_2">
     <g id="line2d_9">
      <g>
       <use style="stroke:#000000;stroke-width:0.8;" x="57.6" xlink:href="#m8a4eec1de0" y="242.382708"/>
      </g>
     </g>
     <g id="text_8">
      <!-- 200 -->
      <g transform="translate(23.132812 246.181927)scale(0.1 -0.1)">
       <use xlink:href="#DejaVuSans-8722"/>
       <use x="83.789062" xlink:href="#DejaVuSans-50"/>
       <use x="147.412109" xlink:href="#DejaVuSans-48"/>
       <use x="211.035156" xlink:href="#DejaVuSans-48"/>
      </g>
     </g>
    </g>
    <g id="ytick_3">
     <g id="line2d_10">
      <g>
       <use style="stroke:#000000;stroke-width:0.8;" x="57.6" xlink:href="#m8a4eec1de0" y="205.416753"/>
      </g>
     </g>
     <g id="text_9">
      <!-- 0 -->
      <g transform="translate(44.2375 209.215971)scale(0.1 -0.1)">
       <use xlink:href="#DejaVuSans-48"/>
      </g>
     </g>
    </g>
    <g id="ytick_4">
     <g id="line2d_11">
      <g>
       <use style="stroke:#000000;stroke-width:0.8;" x="57.6" xlink:href="#m8a4eec1de0" y="168.450797"/>
      </g>
     </g>
     <g id="text_10">
      <!-- 200 -->
      <g transform="translate(31.5125 172.250016)scale(0.1 -0.1)">
       <use xlink:href="#DejaVuSans-50"/>
       <use x="63.623047" xlink:href="#DejaVuSans-48"/>
       <use x="127.246094" xlink:href="#DejaVuSans-48"/>
      </g>
     </g>
    </g>
    <g id="ytick_5">
     <g id="line2d_12">
      <g>
       <use style="stroke:#000000;stroke-width:0.8;" x="57.6" xlink:href="#m8a4eec1de0" y="131.484841"/>
      </g>
     </g>
     <g id="text_11">
      <!-- 400 -->
      <g transform="translate(31.5125 135.28406)scale(0.1 -0.1)">
       <use xlink:href="#DejaVuSans-52"/>
       <use x="63.623047" xlink:href="#DejaVuSans-48"/>
       <use x="127.246094" xlink:href="#DejaVuSans-48"/>
      </g>
     </g>
    </g>
    <g id="ytick_6">
     <g id="line2d_13">
      <g>
       <use style="stroke:#000000;stroke-width:0.8;" x="57.6" xlink:href="#m8a4eec1de0" y="94.518886"/>
      </g>
     </g>
     <g id="text_12">
      <!-- 600 -->
      <g transform="translate(31.5125 98.318104)scale(0.1 -0.1)">
       <use xlink:href="#DejaVuSans-54"/>
       <use x="63.623047" xlink:href="#DejaVuSans-48"/>
       <use x="127.246094" xlink:href="#DejaVuSans-48"/>
      </g>
     </g>
    </g>
    <g id="ytick_7">
     <g id="line2d_14">
      <g>
       <use style="stroke:#000000;stroke-width:0.8;" x="57.6" xlink:href="#m8a4eec1de0" y="57.55293"/>
      </g>
     </g>
     <g id="text_13">
      <!-- 800 -->
      <g transform="translate(31.5125 61.352149)scale(0.1 -0.1)">
       <use xlink:href="#DejaVuSans-56"/>
       <use x="63.623047" xlink:href="#DejaVuSans-48"/>
       <use x="127.246094" xlink:href="#DejaVuSans-48"/>
      </g>
     </g>
    </g>
   </g>
   <g id="line2d_15">
    <path clip-path="url(#p1a32a6b53d)" d="M 396.963031 265.173612 
L 196.995241 248.467663 
L 104.460875 255.94916 
L 189.683419 133.265293 
L 190.393915 62.666327 
L 282.511109 253.446331 
L 272.809591 257.724184 
L 90.562227 259.030479 
L 160.995706 61.389488 
L 238.585464 204.019201 
L 237.577611 204.373934 
L 238.317787 184.576454 
" style="fill:none;stroke:#ff0000;stroke-linecap:square;stroke-width:0.5;"/>
   </g>
   <g id="patch_3">
    <path d="M 57.6 307.584 
L 57.6 41.472 
" style="fill:none;stroke:#000000;stroke-linecap:square;stroke-linejoin:miter;stroke-width:0.8;"/>
   </g>
   <g id="patch_4">
    <path d="M 414.72 307.584 
L 414.72 41.472 
" style="fill:none;stroke:#000000;stroke-linecap:square;stroke-linejoin:miter;stroke-width:0.8;"/>
   </g>
   <g id="patch_5">
    <path d="M 57.6 307.584 
L 414.72 307.584 
" style="fill:none;stroke:#000000;stroke-linecap:square;stroke-linejoin:miter;stroke-width:0.8;"/>
   </g>
   <g id="patch_6">
    <path d="M 57.6 41.472 
L 414.72 41.472 
" style="fill:none;stroke:#000000;stroke-linecap:square;stroke-linejoin:miter;stroke-width:0.8;"/>
   </g>
   <g id="PathCollection_1">
    <defs>
     <path d="M 0 2.738613 
C 0.726289 2.738613 1.422928 2.450055 1.936492 1.936492 
C 2.450055 1.422928 2.738613 0.726289 2.738613 0 
C 2.738613 -0.726289 2.450055 -1.422928 1.936492 -1.936492 
C 1.422928 -2.450055 0.726289 -2.738613 0 -2.738613 
C -0.726289 -2.738613 -1.422928 -2.450055 -1.936492 -1.936492 
C -2.450055 -1.422928 -2.738613 -0.726289 -2.738613 0 
C -2.738613 0.726289 -2.450055 1.422928 -1.936492 1.936492 
C -1.422928 2.450055 -0.726289 2.738613 0 2.738613 
z
" id="m80f4b5a8af" style="stroke:#ff0000;"/>
    </defs>
    <g clip-path="url(#p1a32a6b53d)">
     <use style="fill:#ff0000;stroke:#ff0000;" x="396.963031" xlink:href="#m80f4b5a8af" y="265.173612"/>
     <use style="fill:#ff0000;stroke:#ff0000;" x="196.995241" xlink:href="#m80f4b5a8af" y="248.467663"/>
     <use style="fill:#ff0000;stroke:#ff0000;" x="104.460875" xlink:href="#m80f4b5a8af" y="255.94916"/>
     <use style="fill:#ff0000;stroke:#ff0000;" x="189.683419" xlink:href="#m80f4b5a8af" y="133.265293"/>
     <use style="fill:#ff0000;stroke:#ff0000;" x="190.393915" xlink:href="#m80f4b5a8af" y="62.666327"/>
     <use style="fill:#ff0000;stroke:#ff0000;" x="282.511109" xlink:href="#m80f4b5a8af" y="253.446331"/>
     <use style="fill:#ff0000;stroke:#ff0000;" x="272.809591" xlink:href="#m80f4b5a8af" y="257.724184"/>
     <use style="fill:#ff0000;stroke:#ff0000;" x="90.562227" xlink:href="#m80f4b5a8af" y="259.030479"/>
     <use style="fill:#ff0000;stroke:#ff0000;" x="160.995706" xlink:href="#m80f4b5a8af" y="61.389488"/>
     <use style="fill:#ff0000;stroke:#ff0000;" x="238.585464" xlink:href="#m80f4b5a8af" y="204.019201"/>
     <use style="fill:#ff0000;stroke:#ff0000;" x="237.577611" xlink:href="#m80f4b5a8af" y="204.373934"/>
     <use style="fill:#ff0000;stroke:#ff0000;" x="238.317787" xlink:href="#m80f4b5a8af" y="184.576454"/>
    </g>
   </g>
   <g id="text_14">
    <!-- (85) Subject: s27, Known = False, Degree = 1, Duration = 0.1 -->
    <defs>
     <path d="M 31 75.875 
Q 24.46875 64.65625 21.28125 53.65625 
Q 18.109375 42.671875 18.109375 31.390625 
Q 18.109375 20.125 21.3125 9.0625 
Q 24.515625 -2 31 -13.1875 
L 23.1875 -13.1875 
Q 15.875 -1.703125 12.234375 9.375 
Q 8.59375 20.453125 8.59375 31.390625 
Q 8.59375 42.28125 12.203125 53.3125 
Q 15.828125 64.359375 23.1875 75.875 
z
" id="DejaVuSans-40"/>
     <path d="M 10.796875 72.90625 
L 49.515625 72.90625 
L 49.515625 64.59375 
L 19.828125 64.59375 
L 19.828125 46.734375 
Q 21.96875 47.46875 24.109375 47.828125 
Q 26.265625 48.1875 28.421875 48.1875 
Q 40.625 48.1875 47.75 41.5 
Q 54.890625 34.8125 54.890625 23.390625 
Q 54.890625 11.625 47.5625 5.09375 
Q 40.234375 -1.421875 26.90625 -1.421875 
Q 22.3125 -1.421875 17.546875 -0.640625 
Q 12.796875 0.140625 7.71875 1.703125 
L 7.71875 11.625 
Q 12.109375 9.234375 16.796875 8.0625 
Q 21.484375 6.890625 26.703125 6.890625 
Q 35.15625 6.890625 40.078125 11.328125 
Q 45.015625 15.765625 45.015625 23.390625 
Q 45.015625 31 40.078125 35.4375 
Q 35.15625 39.890625 26.703125 39.890625 
Q 22.75 39.890625 18.8125 39.015625 
Q 14.890625 38.140625 10.796875 36.28125 
z
" id="DejaVuSans-53"/>
     <path d="M 8.015625 75.875 
L 15.828125 75.875 
Q 23.140625 64.359375 26.78125 53.3125 
Q 30.421875 42.28125 30.421875 31.390625 
Q 30.421875 20.453125 26.78125 9.375 
Q 23.140625 -1.703125 15.828125 -13.1875 
L 8.015625 -13.1875 
Q 14.5 -2 17.703125 9.0625 
Q 20.90625 20.125 20.90625 31.390625 
Q 20.90625 42.671875 17.703125 53.65625 
Q 14.5 64.65625 8.015625 75.875 
z
" id="DejaVuSans-41"/>
     <path id="DejaVuSans-32"/>
     <path d="M 53.515625 70.515625 
L 53.515625 60.890625 
Q 47.90625 63.578125 42.921875 64.890625 
Q 37.9375 66.21875 33.296875 66.21875 
Q 25.25 66.21875 20.875 63.09375 
Q 16.5 59.96875 16.5 54.203125 
Q 16.5 49.359375 19.40625 46.890625 
Q 22.3125 44.4375 30.421875 42.921875 
L 36.375 41.703125 
Q 47.40625 39.59375 52.65625 34.296875 
Q 57.90625 29 57.90625 20.125 
Q 57.90625 9.515625 50.796875 4.046875 
Q 43.703125 -1.421875 29.984375 -1.421875 
Q 24.8125 -1.421875 18.96875 -0.25 
Q 13.140625 0.921875 6.890625 3.21875 
L 6.890625 13.375 
Q 12.890625 10.015625 18.65625 8.296875 
Q 24.421875 6.59375 29.984375 6.59375 
Q 38.421875 6.59375 43.015625 9.90625 
Q 47.609375 13.234375 47.609375 19.390625 
Q 47.609375 24.75 44.3125 27.78125 
Q 41.015625 30.8125 33.5 32.328125 
L 27.484375 33.5 
Q 16.453125 35.6875 11.515625 40.375 
Q 6.59375 45.0625 6.59375 53.421875 
Q 6.59375 63.09375 13.40625 68.65625 
Q 20.21875 74.21875 32.171875 74.21875 
Q 37.3125 74.21875 42.625 73.28125 
Q 47.953125 72.359375 53.515625 70.515625 
z
" id="DejaVuSans-83"/>
     <path d="M 8.5 21.578125 
L 8.5 54.6875 
L 17.484375 54.6875 
L 17.484375 21.921875 
Q 17.484375 14.15625 20.5 10.265625 
Q 23.53125 6.390625 29.59375 6.390625 
Q 36.859375 6.390625 41.078125 11.03125 
Q 45.3125 15.671875 45.3125 23.6875 
L 45.3125 54.6875 
L 54.296875 54.6875 
L 54.296875 0 
L 45.3125 0 
L 45.3125 8.40625 
Q 42.046875 3.421875 37.71875 1 
Q 33.40625 -1.421875 27.6875 -1.421875 
Q 18.265625 -1.421875 13.375 4.4375 
Q 8.5 10.296875 8.5 21.578125 
z
M 31.109375 56 
z
" id="DejaVuSans-117"/>
     <path d="M 48.6875 27.296875 
Q 48.6875 37.203125 44.609375 42.84375 
Q 40.53125 48.484375 33.40625 48.484375 
Q 26.265625 48.484375 22.1875 42.84375 
Q 18.109375 37.203125 18.109375 27.296875 
Q 18.109375 17.390625 22.1875 11.75 
Q 26.265625 6.109375 33.40625 6.109375 
Q 40.53125 6.109375 44.609375 11.75 
Q 48.6875 17.390625 48.6875 27.296875 
z
M 18.109375 46.390625 
Q 20.953125 51.265625 25.265625 53.625 
Q 29.59375 56 35.59375 56 
Q 45.5625 56 51.78125 48.09375 
Q 58.015625 40.1875 58.015625 27.296875 
Q 58.015625 14.40625 51.78125 6.484375 
Q 45.5625 -1.421875 35.59375 -1.421875 
Q 29.59375 -1.421875 25.265625 0.953125 
Q 20.953125 3.328125 18.109375 8.203125 
L 18.109375 0 
L 9.078125 0 
L 9.078125 75.984375 
L 18.109375 75.984375 
z
" id="DejaVuSans-98"/>
     <path d="M 9.421875 54.6875 
L 18.40625 54.6875 
L 18.40625 -0.984375 
Q 18.40625 -11.421875 14.421875 -16.109375 
Q 10.453125 -20.796875 1.609375 -20.796875 
L -1.8125 -20.796875 
L -1.8125 -13.1875 
L 0.59375 -13.1875 
Q 5.71875 -13.1875 7.5625 -10.8125 
Q 9.421875 -8.453125 9.421875 -0.984375 
z
M 9.421875 75.984375 
L 18.40625 75.984375 
L 18.40625 64.59375 
L 9.421875 64.59375 
z
" id="DejaVuSans-106"/>
     <path d="M 56.203125 29.59375 
L 56.203125 25.203125 
L 14.890625 25.203125 
Q 15.484375 15.921875 20.484375 11.0625 
Q 25.484375 6.203125 34.421875 6.203125 
Q 39.59375 6.203125 44.453125 7.46875 
Q 49.3125 8.734375 54.109375 11.28125 
L 54.109375 2.78125 
Q 49.265625 0.734375 44.1875 -0.34375 
Q 39.109375 -1.421875 33.890625 -1.421875 
Q 20.796875 -1.421875 13.15625 6.1875 
Q 5.515625 13.8125 5.515625 26.8125 
Q 5.515625 40.234375 12.765625 48.109375 
Q 20.015625 56 32.328125 56 
Q 43.359375 56 49.78125 48.890625 
Q 56.203125 41.796875 56.203125 29.59375 
z
M 47.21875 32.234375 
Q 47.125 39.59375 43.09375 43.984375 
Q 39.0625 48.390625 32.421875 48.390625 
Q 24.90625 48.390625 20.390625 44.140625 
Q 15.875 39.890625 15.1875 32.171875 
z
" id="DejaVuSans-101"/>
     <path d="M 48.78125 52.59375 
L 48.78125 44.1875 
Q 44.96875 46.296875 41.140625 47.34375 
Q 37.3125 48.390625 33.40625 48.390625 
Q 24.65625 48.390625 19.8125 42.84375 
Q 14.984375 37.3125 14.984375 27.296875 
Q 14.984375 17.28125 19.8125 11.734375 
Q 24.65625 6.203125 33.40625 6.203125 
Q 37.3125 6.203125 41.140625 7.25 
Q 44.96875 8.296875 48.78125 10.40625 
L 48.78125 2.09375 
Q 45.015625 0.34375 40.984375 -0.53125 
Q 36.96875 -1.421875 32.421875 -1.421875 
Q 20.0625 -1.421875 12.78125 6.34375 
Q 5.515625 14.109375 5.515625 27.296875 
Q 5.515625 40.671875 12.859375 48.328125 
Q 20.21875 56 33.015625 56 
Q 37.15625 56 41.109375 55.140625 
Q 45.0625 54.296875 48.78125 52.59375 
z
" id="DejaVuSans-99"/>
     <path d="M 18.3125 70.21875 
L 18.3125 54.6875 
L 36.8125 54.6875 
L 36.8125 47.703125 
L 18.3125 47.703125 
L 18.3125 18.015625 
Q 18.3125 11.328125 20.140625 9.421875 
Q 21.96875 7.515625 27.59375 7.515625 
L 36.8125 7.515625 
L 36.8125 0 
L 27.59375 0 
Q 17.1875 0 13.234375 3.875 
Q 9.28125 7.765625 9.28125 18.015625 
L 9.28125 47.703125 
L 2.6875 47.703125 
L 2.6875 54.6875 
L 9.28125 54.6875 
L 9.28125 70.21875 
z
" id="DejaVuSans-116"/>
     <path d="M 11.71875 12.40625 
L 22.015625 12.40625 
L 22.015625 0 
L 11.71875 0 
z
M 11.71875 51.703125 
L 22.015625 51.703125 
L 22.015625 39.3125 
L 11.71875 39.3125 
z
" id="DejaVuSans-58"/>
     <path d="M 44.28125 53.078125 
L 44.28125 44.578125 
Q 40.484375 46.53125 36.375 47.5 
Q 32.28125 48.484375 27.875 48.484375 
Q 21.1875 48.484375 17.84375 46.4375 
Q 14.5 44.390625 14.5 40.28125 
Q 14.5 37.15625 16.890625 35.375 
Q 19.28125 33.59375 26.515625 31.984375 
L 29.59375 31.296875 
Q 39.15625 29.25 43.1875 25.515625 
Q 47.21875 21.78125 47.21875 15.09375 
Q 47.21875 7.46875 41.1875 3.015625 
Q 35.15625 -1.421875 24.609375 -1.421875 
Q 20.21875 -1.421875 15.453125 -0.5625 
Q 10.6875 0.296875 5.421875 2 
L 5.421875 11.28125 
Q 10.40625 8.6875 15.234375 7.390625 
Q 20.0625 6.109375 24.8125 6.109375 
Q 31.15625 6.109375 34.5625 8.28125 
Q 37.984375 10.453125 37.984375 14.40625 
Q 37.984375 18.0625 35.515625 20.015625 
Q 33.0625 21.96875 24.703125 23.78125 
L 21.578125 24.515625 
Q 13.234375 26.265625 9.515625 29.90625 
Q 5.8125 33.546875 5.8125 39.890625 
Q 5.8125 47.609375 11.28125 51.796875 
Q 16.75 56 26.8125 56 
Q 31.78125 56 36.171875 55.265625 
Q 40.578125 54.546875 44.28125 53.078125 
z
" id="DejaVuSans-115"/>
     <path d="M 8.203125 72.90625 
L 55.078125 72.90625 
L 55.078125 68.703125 
L 28.609375 0 
L 18.3125 0 
L 43.21875 64.59375 
L 8.203125 64.59375 
z
" id="DejaVuSans-55"/>
     <path d="M 11.71875 12.40625 
L 22.015625 12.40625 
L 22.015625 4 
L 14.015625 -11.625 
L 7.71875 -11.625 
L 11.71875 4 
z
" id="DejaVuSans-44"/>
     <path d="M 9.8125 72.90625 
L 19.671875 72.90625 
L 19.671875 42.09375 
L 52.390625 72.90625 
L 65.09375 72.90625 
L 28.90625 38.921875 
L 67.671875 0 
L 54.6875 0 
L 19.671875 35.109375 
L 19.671875 0 
L 9.8125 0 
z
" id="DejaVuSans-75"/>
     <path d="M 54.890625 33.015625 
L 54.890625 0 
L 45.90625 0 
L 45.90625 32.71875 
Q 45.90625 40.484375 42.875 44.328125 
Q 39.84375 48.1875 33.796875 48.1875 
Q 26.515625 48.1875 22.3125 43.546875 
Q 18.109375 38.921875 18.109375 30.90625 
L 18.109375 0 
L 9.078125 0 
L 9.078125 54.6875 
L 18.109375 54.6875 
L 18.109375 46.1875 
Q 21.34375 51.125 25.703125 53.5625 
Q 30.078125 56 35.796875 56 
Q 45.21875 56 50.046875 50.171875 
Q 54.890625 44.34375 54.890625 33.015625 
z
" id="DejaVuSans-110"/>
     <path d="M 30.609375 48.390625 
Q 23.390625 48.390625 19.1875 42.75 
Q 14.984375 37.109375 14.984375 27.296875 
Q 14.984375 17.484375 19.15625 11.84375 
Q 23.34375 6.203125 30.609375 6.203125 
Q 37.796875 6.203125 41.984375 11.859375 
Q 46.1875 17.53125 46.1875 27.296875 
Q 46.1875 37.015625 41.984375 42.703125 
Q 37.796875 48.390625 30.609375 48.390625 
z
M 30.609375 56 
Q 42.328125 56 49.015625 48.375 
Q 55.71875 40.765625 55.71875 27.296875 
Q 55.71875 13.875 49.015625 6.21875 
Q 42.328125 -1.421875 30.609375 -1.421875 
Q 18.84375 -1.421875 12.171875 6.21875 
Q 5.515625 13.875 5.515625 27.296875 
Q 5.515625 40.765625 12.171875 48.375 
Q 18.84375 56 30.609375 56 
z
" id="DejaVuSans-111"/>
     <path d="M 4.203125 54.6875 
L 13.1875 54.6875 
L 24.421875 12.015625 
L 35.59375 54.6875 
L 46.1875 54.6875 
L 57.421875 12.015625 
L 68.609375 54.6875 
L 77.59375 54.6875 
L 63.28125 0 
L 52.6875 0 
L 40.921875 44.828125 
L 29.109375 0 
L 18.5 0 
z
" id="DejaVuSans-119"/>
     <path d="M 10.59375 45.40625 
L 73.1875 45.40625 
L 73.1875 37.203125 
L 10.59375 37.203125 
z
M 10.59375 25.484375 
L 73.1875 25.484375 
L 73.1875 17.1875 
L 10.59375 17.1875 
z
" id="DejaVuSans-61"/>
     <path d="M 9.8125 72.90625 
L 51.703125 72.90625 
L 51.703125 64.59375 
L 19.671875 64.59375 
L 19.671875 43.109375 
L 48.578125 43.109375 
L 48.578125 34.8125 
L 19.671875 34.8125 
L 19.671875 0 
L 9.8125 0 
z
" id="DejaVuSans-70"/>
     <path d="M 34.28125 27.484375 
Q 23.390625 27.484375 19.1875 25 
Q 14.984375 22.515625 14.984375 16.5 
Q 14.984375 11.71875 18.140625 8.90625 
Q 21.296875 6.109375 26.703125 6.109375 
Q 34.1875 6.109375 38.703125 11.40625 
Q 43.21875 16.703125 43.21875 25.484375 
L 43.21875 27.484375 
z
M 52.203125 31.203125 
L 52.203125 0 
L 43.21875 0 
L 43.21875 8.296875 
Q 40.140625 3.328125 35.546875 0.953125 
Q 30.953125 -1.421875 24.3125 -1.421875 
Q 15.921875 -1.421875 10.953125 3.296875 
Q 6 8.015625 6 15.921875 
Q 6 25.140625 12.171875 29.828125 
Q 18.359375 34.515625 30.609375 34.515625 
L 43.21875 34.515625 
L 43.21875 35.40625 
Q 43.21875 41.609375 39.140625 45 
Q 35.0625 48.390625 27.6875 48.390625 
Q 23 48.390625 18.546875 47.265625 
Q 14.109375 46.140625 10.015625 43.890625 
L 10.015625 52.203125 
Q 14.9375 54.109375 19.578125 55.046875 
Q 24.21875 56 28.609375 56 
Q 40.484375 56 46.34375 49.84375 
Q 52.203125 43.703125 52.203125 31.203125 
z
" id="DejaVuSans-97"/>
     <path d="M 9.421875 75.984375 
L 18.40625 75.984375 
L 18.40625 0 
L 9.421875 0 
z
" id="DejaVuSans-108"/>
     <path d="M 19.671875 64.796875 
L 19.671875 8.109375 
L 31.59375 8.109375 
Q 46.6875 8.109375 53.6875 14.9375 
Q 60.6875 21.78125 60.6875 36.53125 
Q 60.6875 51.171875 53.6875 57.984375 
Q 46.6875 64.796875 31.59375 64.796875 
z
M 9.8125 72.90625 
L 30.078125 72.90625 
Q 51.265625 72.90625 61.171875 64.09375 
Q 71.09375 55.28125 71.09375 36.53125 
Q 71.09375 17.671875 61.125 8.828125 
Q 51.171875 0 30.078125 0 
L 9.8125 0 
z
" id="DejaVuSans-68"/>
     <path d="M 45.40625 27.984375 
Q 45.40625 37.75 41.375 43.109375 
Q 37.359375 48.484375 30.078125 48.484375 
Q 22.859375 48.484375 18.828125 43.109375 
Q 14.796875 37.75 14.796875 27.984375 
Q 14.796875 18.265625 18.828125 12.890625 
Q 22.859375 7.515625 30.078125 7.515625 
Q 37.359375 7.515625 41.375 12.890625 
Q 45.40625 18.265625 45.40625 27.984375 
z
M 54.390625 6.78125 
Q 54.390625 -7.171875 48.1875 -13.984375 
Q 42 -20.796875 29.203125 -20.796875 
Q 24.46875 -20.796875 20.265625 -20.09375 
Q 16.0625 -19.390625 12.109375 -17.921875 
L 12.109375 -9.1875 
Q 16.0625 -11.328125 19.921875 -12.34375 
Q 23.78125 -13.375 27.78125 -13.375 
Q 36.625 -13.375 41.015625 -8.765625 
Q 45.40625 -4.15625 45.40625 5.171875 
L 45.40625 9.625 
Q 42.625 4.78125 38.28125 2.390625 
Q 33.9375 0 27.875 0 
Q 17.828125 0 11.671875 7.65625 
Q 5.515625 15.328125 5.515625 27.984375 
Q 5.515625 40.671875 11.671875 48.328125 
Q 17.828125 56 27.875 56 
Q 33.9375 56 38.28125 53.609375 
Q 42.625 51.21875 45.40625 46.390625 
L 45.40625 54.6875 
L 54.390625 54.6875 
z
" id="DejaVuSans-103"/>
     <path d="M 41.109375 46.296875 
Q 39.59375 47.171875 37.8125 47.578125 
Q 36.03125 48 33.890625 48 
Q 26.265625 48 22.1875 43.046875 
Q 18.109375 38.09375 18.109375 28.8125 
L 18.109375 0 
L 9.078125 0 
L 9.078125 54.6875 
L 18.109375 54.6875 
L 18.109375 46.1875 
Q 20.953125 51.171875 25.484375 53.578125 
Q 30.03125 56 36.53125 56 
Q 37.453125 56 38.578125 55.875 
Q 39.703125 55.765625 41.0625 55.515625 
z
" id="DejaVuSans-114"/>
     <path d="M 9.421875 54.6875 
L 18.40625 54.6875 
L 18.40625 0 
L 9.421875 0 
z
M 9.421875 75.984375 
L 18.40625 75.984375 
L 18.40625 64.59375 
L 9.421875 64.59375 
z
" id="DejaVuSans-105"/>
     <path d="M 10.6875 12.40625 
L 21 12.40625 
L 21 0 
L 10.6875 0 
z
" id="DejaVuSans-46"/>
    </defs>
    <g transform="translate(49.741875 35.472)scale(0.12 -0.12)">
     <use xlink:href="#DejaVuSans-40"/>
     <use x="39.013672" xlink:href="#DejaVuSans-56"/>
     <use x="102.636719" xlink:href="#DejaVuSans-53"/>
     <use x="166.259766" xlink:href="#DejaVuSans-41"/>
     <use x="205.273438" xlink:href="#DejaVuSans-32"/>
     <use x="237.060547" xlink:href="#DejaVuSans-83"/>
     <use x="300.537109" xlink:href="#DejaVuSans-117"/>
     <use x="363.916016" xlink:href="#DejaVuSans-98"/>
     <use x="427.392578" xlink:href="#DejaVuSans-106"/>
     <use x="455.175781" xlink:href="#DejaVuSans-101"/>
     <use x="516.699219" xlink:href="#DejaVuSans-99"/>
     <use x="571.679688" xlink:href="#DejaVuSans-116"/>
     <use x="610.888672" xlink:href="#DejaVuSans-58"/>
     <use x="644.580078" xlink:href="#DejaVuSans-32"/>
     <use x="676.367188" xlink:href="#DejaVuSans-115"/>
     <use x="728.466797" xlink:href="#DejaVuSans-50"/>
     <use x="792.089844" xlink:href="#DejaVuSans-55"/>
     <use x="855.712891" xlink:href="#DejaVuSans-44"/>
     <use x="887.5" xlink:href="#DejaVuSans-32"/>
     <use x="919.287109" xlink:href="#DejaVuSans-75"/>
     <use x="984.863281" xlink:href="#DejaVuSans-110"/>
     <use x="1048.242188" xlink:href="#DejaVuSans-111"/>
     <use x="1109.423828" xlink:href="#DejaVuSans-119"/>
     <use x="1191.210938" xlink:href="#DejaVuSans-110"/>
     <use x="1254.589844" xlink:href="#DejaVuSans-32"/>
     <use x="1286.376953" xlink:href="#DejaVuSans-61"/>
     <use x="1370.166016" xlink:href="#DejaVuSans-32"/>
     <use x="1401.953125" xlink:href="#DejaVuSans-70"/>
     <use x="1459.332031" xlink:href="#DejaVuSans-97"/>
     <use x="1520.611328" xlink:href="#DejaVuSans-108"/>
     <use x="1548.394531" xlink:href="#DejaVuSans-115"/>
     <use x="1600.494141" xlink:href="#DejaVuSans-101"/>
     <use x="1662.017578" xlink:href="#DejaVuSans-44"/>
     <use x="1693.804688" xlink:href="#DejaVuSans-32"/>
     <use x="1725.591797" xlink:href="#DejaVuSans-68"/>
     <use x="1802.59375" xlink:href="#DejaVuSans-101"/>
     <use x="1864.117188" xlink:href="#DejaVuSans-103"/>
     <use x="1927.59375" xlink:href="#DejaVuSans-114"/>
     <use x="1968.675781" xlink:href="#DejaVuSans-101"/>
     <use x="2030.199219" xlink:href="#DejaVuSans-101"/>
     <use x="2091.722656" xlink:href="#DejaVuSans-32"/>
     <use x="2123.509766" xlink:href="#DejaVuSans-61"/>
     <use x="2207.298828" xlink:href="#DejaVuSans-32"/>
     <use x="2239.085938" xlink:href="#DejaVuSans-49"/>
     <use x="2302.708984" xlink:href="#DejaVuSans-44"/>
     <use x="2334.496094" xlink:href="#DejaVuSans-32"/>
     <use x="2366.283203" xlink:href="#DejaVuSans-68"/>
     <use x="2443.285156" xlink:href="#DejaVuSans-117"/>
     <use x="2506.664062" xlink:href="#DejaVuSans-114"/>
     <use x="2547.777344" xlink:href="#DejaVuSans-97"/>
     <use x="2609.056641" xlink:href="#DejaVuSans-116"/>
     <use x="2648.265625" xlink:href="#DejaVuSans-105"/>
     <use x="2676.048828" xlink:href="#DejaVuSans-111"/>
     <use x="2737.230469" xlink:href="#DejaVuSans-110"/>
     <use x="2800.609375" xlink:href="#DejaVuSans-32"/>
     <use x="2832.396484" xlink:href="#DejaVuSans-61"/>
     <use x="2916.185547" xlink:href="#DejaVuSans-32"/>
     <use x="2947.972656" xlink:href="#DejaVuSans-48"/>
     <use x="3011.595703" xlink:href="#DejaVuSans-46"/>
     <use x="3043.382812" xlink:href="#DejaVuSans-49"/>
    </g>
   </g>
  </g>
 </g>
 <defs>
  <clipPath id="p1a32a6b53d">
   <rect height="266.112" width="357.12" x="57.6" y="41.472"/>
  </clipPath>
 </defs>
</svg>
