<?xml version="1.0" encoding="utf-8" standalone="no"?>
<!DOCTYPE svg PUBLIC "-//W3C//DTD SVG 1.1//EN"
  "http://www.w3.org/Graphics/SVG/1.1/DTD/svg11.dtd">
<!-- Created with matplotlib (https://matplotlib.org/) -->
<svg height="345.6pt" version="1.1" viewBox="0 0 460.8 345.6" width="460.8pt" xmlns="http://www.w3.org/2000/svg" xmlns:xlink="http://www.w3.org/1999/xlink">
 <defs>
  <style type="text/css">
*{stroke-linecap:butt;stroke-linejoin:round;}
  </style>
 </defs>
 <g id="figure_1">
  <g id="patch_1">
   <path d="M 0 345.6 
L 460.8 345.6 
L 460.8 0 
L 0 0 
z
" style="fill:#ffffff;"/>
  </g>
  <g id="axes_1">
   <g id="patch_2">
    <path d="M 57.6 307.584 
L 414.72 307.584 
L 414.72 41.472 
L 57.6 41.472 
z
" style="fill:#ffffff;"/>
   </g>
   <g id="line2d_1">
    <path clip-path="url(#p784765173c)" d="M 398.21096 54.096603 
L 398.027823 53.919434 
L 398.027823 53.745169 
L 398.21096 53.745169 
L 397.841472 54.273772 
L 397.658335 53.919434 
L 397.471984 53.919434 
L 397.565159 54.096603 
L 397.841472 54.273772 
L 397.934647 54.096603 
L 397.841472 54.096603 
L 397.658335 54.273772 
L 397.658335 54.625206 
L 397.748297 54.625206 
L 397.934647 54.802375 
L 398.117785 54.802375 
L 398.21096 54.273772 
L 398.027823 53.568 
L 397.841472 53.568 
L 397.565159 53.919434 
L 397.195672 53.919434 
L 397.195672 53.568 
L 397.658335 54.448036 
L 397.748297 54.273772 
L 397.658335 53.745169 
L 397.658335 53.745169 
L 397.841472 53.919434 
L 397.748297 53.919434 
L 397.471984 54.273772 
L 397.748297 54.096603 
L 397.841472 54.096603 
L 397.748297 54.448036 
L 397.378809 53.919434 
L 397.378809 54.448036 
L 397.565159 54.802375 
L 397.841472 54.448036 
L 397.841472 54.448036 
L 397.658335 55.330977 
L 397.841472 54.448036 
L 398.027823 54.273772 
L 397.934647 54.802375 
L 397.748297 55.153808 
L 397.841472 55.153808 
L 397.934647 55.153808 
L 397.748297 55.153808 
L 398.487273 53.568 
L 398.117785 53.745169 
L 397.748297 54.448036 
L 397.658335 55.153808 
L 397.841472 54.448036 
L 397.934647 54.448036 
L 397.841472 55.505242 
L 397.748297 55.505242 
L 397.841472 54.802375 
L 397.934647 54.802375 
L 397.934647 54.273772 
L 398.027823 54.976639 
L 398.304135 54.448036 
L 398.304135 55.153808 
L 398.304135 54.802375 
L 397.841472 54.802375 
L 397.565159 54.976639 
L 397.658335 54.976639 
L 397.841472 54.976639 
L 398.117785 54.802375 
L 398.21096 55.505242 
L 397.841472 55.85958 
L 397.841472 55.85958 
L 397.934647 55.153808 
L 397.934647 54.448036 
L 397.934647 55.153808 
L 398.117785 55.682411 
L 398.027823 55.153808 
L 398.21096 54.976639 
L 398.39731 54.976639 
L 398.487273 54.625206 
L 398.39731 54.448036 
L 398.21096 54.625206 
L 398.117785 55.330977 
L 398.21096 55.330977 
L 398.21096 55.330977 
L 398.027823 55.505242 
L 398.027823 55.330977 
L 398.027823 55.505242 
L 397.841472 55.682411 
L 397.841472 55.330977 
L 398.027823 55.153808 
L 398.117785 55.330977 
L 397.934647 55.505242 
L 398.117785 55.505242 
L 398.304135 56.033845 
L 398.117785 56.562448 
L 398.117785 56.562448 
L 398.21096 56.562448 
L 398.21096 56.562448 
L 398.117785 56.739617 
L 397.841472 56.562448 
L 397.748297 55.153808 
L 398.117785 56.033845 
L 398.027823 56.388183 
L 397.934647 56.562448 
L 397.471984 56.211014 
L 397.565159 56.033845 
L 397.748297 56.033845 
L 397.748297 56.211014 
L 397.565159 56.211014 
L 397.658335 56.562448 
L 397.841472 56.739617 
L 398.117785 56.739617 
L 398.21096 57.09105 
L 397.934647 56.033845 
L 397.934647 56.211014 
L 397.565159 56.562448 
L 397.658335 56.033845 
L 397.748297 56.211014 
L 397.658335 56.916786 
L 397.748297 56.916786 
L 397.934647 56.739617 
L 397.934647 56.739617 
L 397.934647 57.09105 
L 397.658335 57.445389 
L 397.748297 57.796822 
L 398.027823 56.562448 
L 398.21096 56.388183 
L 398.117785 56.033845 
L 397.748297 56.033845 
L 397.748297 56.211014 
L 397.934647 56.211014 
L 398.027823 56.033845 
L 397.565159 56.916786 
L 397.195672 56.916786 
L 396.639833 56.739617 
L 395.900858 56.739617 
L 391.929666 59.382631 
L 389.989051 60.088402 
L 387.216286 60.79127 
L 383.79772 61.497042 
L 380.009666 62.025644 
L 375.762161 62.731416 
L 370.955606 63.788622 
L 365.6896 65.37443 
L 359.960932 66.960239 
L 353.95595 68.017444 
L 347.674656 69.426083 
L 341.393362 71.189061 
L 329.749675 75.946486 
L 324.300531 78.412331 
L 318.848176 81.583947 
L 303.143334 92.333172 
L 297.784153 95.504789 
L 292.331797 97.970634 
L 286.789479 100.085045 
L 281.153985 101.848022 
L 275.518492 103.43383 
L 269.882999 104.665301 
L 253.805456 107.836917 
L 248.539451 108.542689 
L 243.552971 109.071292 
L 238.376927 109.774159 
L 233.48041 110.302762 
L 228.770242 110.6571 
L 224.42635 110.831365 
L 215.834953 112.594342 
L 211.953724 113.828717 
L 208.258845 115.765959 
L 204.840279 118.057539 
L 198.558985 121.58059 
L 195.599869 123.87217 
L 190.427039 128.803859 
L 188.210111 130.744006 
L 186.176322 132.858417 
L 184.145745 135.147093 
L 181.003491 139.20165 
L 179.618715 140.433121 
L 176.752774 142.373267 
L 174.535847 144.487678 
L 173.703696 145.016281 
L 172.874758 145.719148 
L 172.042607 146.247751 
L 171.303631 146.073487 
L 170.840968 146.247751 
L 169.82568 148.010729 
L 169.456192 148.362162 
L 169.546154 148.362162 
L 169.639329 148.7165 
L 169.639329 149.245103 
L 169.456192 149.947971 
L 169.732504 151.359514 
L 169.915642 151.888117 
L 169.639329 152.945323 
L 169.456192 154.002528 
L 169.456192 154.002528 
L 169.363016 153.64819 
L 168.43769 155.233999 
L 167.515577 156.468373 
L 167.239264 157.34841 
L 167.239264 158.054181 
L 167.239264 157.702748 
L 167.052914 157.525579 
L 166.683426 159.111387 
L 166.683426 159.814254 
L 166.869776 159.991424 
L 167.052914 159.63999 
L 167.146089 159.111387 
L 166.869776 158.934218 
L 166.407113 159.63999 
L 166.313938 159.814254 
L 166.407113 159.814254 
L 166.590251 159.63999 
L 166.590251 159.63999 
L 166.407113 159.991424 
L 166.313938 160.87146 
L 166.407113 161.400063 
L 166.313938 161.400063 
L 166.220763 161.048629 
L 166.313938 160.697195 
L 166.500289 160.87146 
L 166.683426 161.400063 
L 166.683426 162.105835 
L 166.500289 162.457268 
L 166.500289 162.283004 
L 166.313938 162.105835 
L 166.037625 162.105835 
L 166.127588 163.514474 
L 166.220763 164.220246 
L 166.127588 164.571679 
L 165.94445 164.571679 
L 165.851275 163.868812 
L 165.94445 164.397415 
L 166.127588 163.868812 
L 165.388612 165.45462 
L 165.205475 165.45462 
L 165.112299 164.748849 
L 164.835987 165.277451 
L 164.649636 165.277451 
L 164.649636 165.277451 
L 164.742811 165.983223 
L 164.929162 166.157488 
L 165.112299 165.806054 
L 165.112299 165.45462 
L 165.112299 166.157488 
L 165.019124 166.157488 
L 164.559674 165.806054 
L 164.559674 165.983223 
L 164.559674 166.157488 
L 164.835987 166.511826 
L 164.742811 166.157488 
L 164.559674 166.157488 
L 164.280148 166.686091 
L 164.097011 166.686091 
L 164.466499 167.214693 
L 164.373324 167.214693 
L 164.559674 167.040429 
L 163.820698 168.097634 
L 163.727523 168.097634 
L 164.190186 168.097634 
L 164.280148 168.271899 
L 163.91066 168.977671 
L 164.003836 168.626237 
L 164.003836 168.449068 
L 163.634348 168.097634 
L 163.727523 168.271899 
L 163.91066 168.626237 
L 163.820698 168.626237 
L 163.541173 168.626237 
L 163.081722 168.097634 
L 163.171685 168.271899 
L 163.820698 169.506274 
L 163.634348 169.329105 
L 163.358035 169.506274 
L 163.358035 169.683443 
L 163.727523 169.329105 
L 163.727523 169.15484 
L 163.634348 170.212045 
L 163.541173 170.38631 
L 163.45121 170.034876 
L 163.358035 168.800502 
L 163.26486 168.977671 
L 163.358035 170.034876 
L 163.081722 170.034876 
L 162.619059 169.506274 
L 161.786908 168.977671 
L 160.861582 169.15484 
L 159.846294 169.683443 
L 154.949776 171.092082 
L 153.009161 171.797854 
L 150.885409 172.855059 
L 145.802541 176.555279 
L 143.492439 178.843955 
L 138.965409 183.955718 
L 136.565344 187.127334 
L 134.068891 190.827554 
L 130.0977 197.345052 
L 128.25026 199.813801 
L 122.984255 207.742843 
L 119.00985 211.794496 
L 115.038659 215.846149 
L 113.191219 217.96056 
L 111.064254 220.074971 
L 109.216815 221.483611 
L 107.645688 222.540816 
L 106.354087 223.598022 
L 105.245623 224.655227 
L 104.043984 225.18383 
L 103.028696 227.298241 
L 103.028696 227.298241 
L 104.320297 229.589821 
L 104.689785 229.941255 
L 104.59661 229.766991 
L 104.413472 230.118424 
L 104.78296 231.704233 
L 104.506648 232.232835 
L 103.857634 233.112872 
L 103.028696 235.933055 
L 102.74917 236.284489 
L 102.286507 238.927502 
L 102.379682 238.927502 
L 102.472858 239.104672 
L 102.472858 239.456105 
L 102.379682 239.456105 
L 102.10337 239.456105 
L 101.917019 240.339046 
L 101.917019 239.984708 
L 102.286507 240.339046 
L 102.472858 241.041914 
L 102.472858 241.570516 
L 102.10337 240.69048 
L 102.286507 241.396252 
L 102.10337 242.276288 
L 101.827057 242.804891 
L 102.010195 242.276288 
L 101.917019 242.98206 
L 101.733882 243.156325 
L 101.733882 242.98206 
L 101.917019 242.98206 
L 102.010195 243.156325 
L 102.10337 244.742133 
L 102.379682 244.919302 
L 102.286507 245.096471 
L 102.010195 245.096471 
L 101.733882 244.567868 
L 101.917019 244.742133 
L 102.010195 245.625074 
L 101.917019 245.976508 
L 101.827057 245.799339 
L 101.733882 245.270736 
L 101.457569 245.976508 
L 101.547532 246.50511 
L 101.827057 246.50511 
L 102.010195 246.327941 
L 102.010195 246.153677 
L 101.917019 246.153677 
L 101.733882 246.153677 
L 101.733882 246.327941 
L 102.010195 247.033713 
L 102.010195 247.033713 
L 101.917019 247.033713 
L 101.917019 247.033713 
L 102.010195 246.856544 
L 101.917019 246.68228 
L 102.196545 247.385147 
L 102.010195 247.739485 
L 101.733882 247.91375 
L 101.733882 247.739485 
L 102.010195 247.385147 
L 101.917019 248.090919 
L 101.917019 247.91375 
L 102.010195 248.090919 
L 101.827057 247.739485 
L 101.917019 246.68228 
L 102.010195 247.739485 
L 101.827057 247.739485 
L 101.640707 247.562316 
L 101.733882 247.739485 
L 101.733882 248.796691 
L 101.827057 248.442353 
L 101.917019 248.268088 
L 101.827057 248.442353 
L 101.547532 248.619522 
L 101.547532 248.796691 
L 101.917019 248.442353 
L 101.733882 248.268088 
L 101.364394 248.619522 
L 101.547532 248.442353 
L 101.640707 248.090919 
L 101.547532 247.91375 
L 101.640707 248.970955 
L 101.827057 249.148124 
L 101.733882 248.619522 
L 101.547532 248.619522 
L 101.088081 248.268088 
L 101.178044 248.268088 
L 101.364394 248.090919 
L 101.271219 248.268088 
L 101.088081 248.796691 
L 100.808556 248.796691 
L 101.088081 248.090919 
L 100.901731 248.796691 
L 100.994906 248.970955 
L 101.088081 248.619522 
L 100.994906 248.442353 
L 100.808556 249.148124 
L 100.901731 249.148124 
L 101.271219 249.853896 
L 101.271219 250.20533 
L 101.178044 250.20533 
L 100.994906 249.676727 
L 100.901731 248.796691 
L 100.808556 248.970955 
L 100.901731 249.325293 
L 100.901731 250.20533 
L 100.808556 248.442353 
L 100.718593 248.090919 
L 100.994906 249.148124 
L 100.808556 249.499558 
L 100.718593 249.676727 
L 100.808556 250.20533 
L 100.808556 250.382499 
L 101.088081 249.676727 
L 100.994906 249.499558 
L 101.088081 250.20533 
L 101.271219 250.028161 
L 101.088081 250.20533 
L 100.994906 250.911102 
L 101.178044 250.733933 
L 101.271219 251.085366 
L 101.271219 251.085366 
L 101.640707 251.262536 
L 110.048966 251.262536 
L 113.098044 251.439705 
L 120.767327 251.439705 
L 130.467188 252.671175 
L 136.009506 253.554116 
L 147.649981 254.611321 
L 153.658175 255.842791 
L 171.117281 260.248783 
L 177.308612 262.01176 
L 183.406769 263.420399 
L 189.2254 265.357642 
L 195.140419 267.472053 
L 200.682737 269.763633 
L 206.135093 271.523706 
L 211.584236 273.109514 
L 216.667104 274.872492 
L 229.968668 278.924145 
L 233.756722 280.687122 
L 237.085326 282.624364 
L 240.134404 284.564511 
L 242.903957 286.150319 
L 245.40041 287.030356 
L 247.341025 287.558958 
L 248.818976 288.26473 
L 251.958017 290.201972 
L 251.681704 290.379141 
L 251.125866 290.553406 
L 250.57324 290.553406 
L 249.834265 290.379141 
L 247.247849 290.379141 
L 246.229348 289.4962 
L 245.85986 289.4962 
L 245.40041 289.673369 
L 245.030922 290.024803 
L 245.21406 290.553406 
L 245.769898 291.082009 
L 245.769898 291.082009 
L 245.85986 291.436347 
L 246.046211 291.436347 
L 246.415698 291.259178 
L 246.692011 291.259178 
L 247.061499 291.610611 
L 247.341025 292.139214 
L 247.524162 292.139214 
L 247.154674 291.436347 
L 247.341025 291.787781 
L 247.061499 292.667817 
L 247.061499 292.667817 
L 246.785186 291.96495 
L 246.598836 291.96495 
L 246.508874 292.139214 
L 246.322523 292.139214 
L 246.229348 291.787781 
L 246.415698 291.436347 
L 246.598836 291.259178 
L 246.598836 291.610611 
L 246.229348 292.316383 
L 246.139386 292.139214 
L 246.229348 292.139214 
L 246.415698 292.316383 
L 246.415698 292.316383 
L 246.046211 291.787781 
L 246.508874 292.667817 
L 246.322523 292.844986 
L 246.229348 292.667817 
L 246.322523 292.316383 
L 246.692011 291.436347 
L 246.692011 291.787781 
L 246.415698 293.19642 
L 246.508874 293.022155 
L 246.415698 292.844986 
L 246.415698 292.844986 
L 246.508874 293.373589 
L 246.692011 293.550758 
L 246.415698 293.373589 
L 246.322523 293.550758 
L 246.322523 293.902192 
L 246.508874 294.079361 
L 246.692011 293.902192 
L 246.415698 293.19642 
L 246.598836 292.844986 
L 246.968324 292.844986 
L 246.968324 293.022155 
L 246.598836 294.079361 
L 246.598836 293.19642 
L 246.508874 293.373589 
L 246.229348 294.430794 
L 246.229348 294.079361 
L 246.139386 293.902192 
L 246.139386 293.902192 
L 246.415698 293.902192 
L 246.598836 294.079361 
L 246.415698 294.253625 
L 246.139386 294.079361 
L 246.598836 294.430794 
L 246.508874 294.607964 
L 246.229348 294.253625 
L 246.415698 293.373589 
L 246.322523 294.079361 
L 245.769898 294.079361 
L 245.85986 294.253625 
L 246.139386 294.430794 
L 246.229348 294.253625 
L 246.139386 294.079361 
L 246.139386 293.725023 
L 246.322523 293.725023 
L 246.229348 294.079361 
L 245.953035 294.430794 
L 245.85986 294.253625 
L 245.953035 293.902192 
L 246.229348 294.430794 
L 246.139386 294.959397 
L 246.139386 294.782228 
L 246.046211 294.607964 
L 246.229348 294.782228 
L 246.229348 294.430794 
L 245.953035 293.902192 
L 245.953035 294.253625 
L 245.953035 294.253625 
L 246.139386 294.253625 
L 246.229348 294.607964 
L 246.139386 294.607964 
L 245.953035 294.430794 
L 246.046211 293.550758 
L 246.046211 293.725023 
L 245.769898 293.725023 
L 245.40041 293.902192 
L 245.40041 293.902192 
L 245.583548 294.079361 
L 245.953035 294.782228 
L 245.85986 294.430794 
L 245.583548 293.550758 
L 245.676723 293.550758 
L 245.769898 293.373589 
L 245.953035 293.550758 
L 246.139386 294.253625 
L 246.046211 294.430794 
L 246.046211 294.253625 
L 246.046211 293.550758 
L 245.676723 294.079361 
L 245.769898 294.079361 
L 245.769898 294.782228 
L 245.676723 293.550758 
L 245.769898 294.782228 
L 245.40041 295.310831 
L 245.40041 295.310831 
L 245.40041 294.959397 
L 245.769898 294.959397 
L 245.676723 294.959397 
L 245.583548 294.607964 
L 245.676723 294.430794 
L 245.953035 294.430794 
L 246.139386 294.782228 
L 246.139386 294.782228 
L 245.85986 294.607964 
L 245.583548 294.607964 
L 245.583548 294.782228 
L 245.953035 295.136566 
L 245.676723 295.488 
L 245.583548 295.488 
L 245.583548 295.488 
L 245.676723 295.136566 
L 245.676723 294.607964 
L 245.769898 294.959397 
L 245.85986 295.310831 
L 246.046211 294.959397 
L 246.046211 294.959397 
L 245.769898 295.136566 
L 245.490372 295.136566 
L 245.583548 294.782228 
L 245.953035 294.430794 
L 245.85986 293.902192 
L 245.85986 294.253625 
L 245.490372 294.430794 
L 245.21406 294.430794 
L 245.120884 294.607964 
L 244.844572 294.782228 
L 238.563278 291.436347 
L 228.490717 286.501753 
L 224.150037 284.738775 
L 219.25352 283.152967 
L 202.253864 277.164072 
L 196.618371 275.401094 
L 190.703351 274.343889 
L 184.328882 273.463852 
L 177.861238 272.406647 
L 171.579944 271.172272 
L 165.205475 269.763633 
L 134.348417 262.186025 
L 128.526573 260.071614 
L 123.167392 257.957203 
L 118.177699 256.19713 
L 113.098044 254.785586 
L 93.695111 250.382499 
L 89.813881 248.796691 
L 83.069924 245.270736 
L 80.390334 244.390699 
L 76.325967 243.333494 
L 74.10904 241.747685 
L 74.385353 241.219083 
L 75.034366 240.69048 
L 76.049655 240.339046 
L 77.158118 239.810443 
L 77.990269 239.104672 
L 78.542895 239.104672 
L 79.098733 239.281841 
L 79.744533 239.281841 
L 80.66986 238.753238 
L 80.852997 238.927502 
L 81.039347 240.867649 
L 80.852997 241.570516 
L 79.375046 243.333494 
L 78.63607 244.039266 
L 77.344469 244.742133 
L 76.60228 245.976508 
L 76.232792 245.270736 
L 75.773342 243.862097 
L 76.14283 244.21353 
L 76.419142 243.156325 
L 76.78863 243.156325 
L 77.158118 243.862097 
L 77.251293 244.390699 
L 77.251293 244.039266 
L 77.158118 242.627722 
L 77.251293 243.510663 
L 77.527606 244.039266 
L 77.158118 243.333494 
L 77.158118 243.510663 
L 77.064943 244.567868 
L 76.971768 244.390699 
L 76.881806 243.333494 
L 76.78863 243.333494 
L 76.695455 244.039266 
L 76.60228 244.567868 
L 76.325967 244.919302 
L 76.325967 244.919302 
L 76.60228 244.21353 
L 76.512318 244.21353 
L 76.325967 244.21353 
L 76.512318 244.21353 
L 76.695455 244.567868 
L 76.60228 244.567868 
L 76.512318 245.096471 
L 76.325967 245.270736 
L 76.049655 244.919302 
L 76.049655 244.567868 
L 76.049655 245.096471 
L 75.863304 245.096471 
L 75.773342 244.919302 
L 75.956479 244.21353 
L 75.956479 244.390699 
L 76.14283 244.039266 
L 76.232792 244.567868 
L 75.863304 244.039266 
L 76.049655 244.039266 
L 76.14283 244.039266 
L 76.14283 244.039266 
L 75.863304 244.21353 
L 75.773342 244.039266 
L 75.956479 244.567868 
L 76.232792 244.567868 
L 76.325967 244.21353 
L 76.14283 243.684928 
L 75.956479 243.862097 
L 75.956479 244.390699 
L 75.863304 244.21353 
L 76.232792 245.270736 
L 75.956479 245.270736 
L 75.773342 244.919302 
L 75.773342 242.98206 
L 75.680167 243.862097 
L 75.586991 244.390699 
L 75.773342 243.862097 
L 75.863304 243.510663 
L 75.680167 243.684928 
L 75.493816 244.21353 
L 75.493816 244.21353 
L 75.773342 243.862097 
L 75.863304 245.096471 
L 75.773342 243.684928 
L 75.773342 244.390699 
L 75.586991 243.862097 
L 75.310679 243.684928 
L 75.217504 243.862097 
L 75.403854 244.21353 
L 75.773342 244.390699 
L 76.049655 244.390699 
L 75.956479 244.21353 
L 75.773342 244.21353 
L 76.049655 244.21353 
L 75.956479 243.862097 
L 75.680167 243.862097 
L 75.403854 244.390699 
L 75.493816 244.919302 
L 75.680167 244.742133 
L 75.773342 244.390699 
L 75.586991 245.270736 
L 75.680167 245.625074 
L 75.863304 245.096471 
L 75.863304 244.390699 
L 75.773342 244.390699 
L 75.680167 245.447905 
L 75.586991 244.919302 
L 75.680167 244.567868 
L 75.493816 244.919302 
L 75.403854 245.096471 
L 75.493816 245.096471 
L 75.586991 245.447905 
L 75.493816 245.447905 
L 75.773342 245.096471 
L 75.493816 246.327941 
L 75.493816 246.153677 
L 75.124328 245.096471 
L 75.034366 244.919302 
L 75.124328 244.919302 
L 75.217504 244.919302 
L 75.310679 245.096471 
L 75.403854 245.976508 
L 75.310679 245.799339 
L 75.493816 245.799339 
L 75.586991 245.625074 
L 75.493816 244.919302 
L 75.680167 244.742133 
L 75.680167 244.919302 
L 75.493816 244.919302 
L 75.493816 244.742133 
L 75.773342 244.390699 
L 75.493816 244.742133 
L 75.310679 245.799339 
L 75.403854 245.976508 
L 75.310679 245.799339 
L 75.310679 244.567868 
L 75.217504 244.742133 
L 74.941191 245.447905 
L 75.403854 244.390699 
L 75.493816 244.21353 
L 75.403854 244.21353 
L 75.124328 244.390699 
L 74.848016 244.742133 
L 74.848016 245.096471 
L 75.217504 245.447905 
L 75.310679 245.096471 
L 75.217504 244.567868 
L 75.034366 244.390699 
L 74.754841 244.567868 
L 75.034366 245.096471 
L 75.310679 245.096471 
L 75.586991 244.742133 
L 75.773342 244.039266 
L 75.586991 243.862097 
L 75.217504 244.21353 
L 74.941191 244.742133 
L 75.034366 245.270736 
L 75.034366 245.096471 
L 75.124328 244.742133 
L 75.403854 244.742133 
L 75.034366 244.21353 
L 74.664878 243.684928 
L 74.848016 244.039266 
L 74.848016 244.567868 
L 74.571703 244.919302 
L 74.571703 244.742133 
L 74.848016 244.567868 
L 75.217504 243.684928 
L 75.124328 243.684928 
L 74.848016 244.039266 
L 74.385353 243.862097 
L 74.664878 243.862097 
L 74.571703 243.684928 
L 74.848016 244.390699 
L 74.941191 245.096471 
L 75.124328 244.039266 
L 75.034366 244.039266 
L 75.034366 243.862097 
L 74.941191 244.390699 
L 74.754841 244.039266 
L 74.848016 244.21353 
L 75.034366 245.447905 
L 74.478528 244.039266 
L 74.478528 244.742133 
L 74.571703 244.742133 
L 74.754841 244.919302 
L 74.848016 244.742133 
L 74.664878 244.567868 
L 74.385353 244.742133 
L 74.385353 245.096471 
L 74.10904 244.390699 
L 74.10904 244.21353 
L 74.202215 244.742133 
L 74.29539 245.096471 
L 74.385353 244.919302 
L 74.478528 244.742133 
L 74.29539 245.096471 
L 74.385353 244.742133 
L 74.202215 244.567868 
L 74.015865 244.039266 
L 74.10904 244.039266 
L 74.385353 243.684928 
L 74.29539 243.862097 
L 74.015865 244.390699 
L 74.202215 244.390699 
L 74.385353 244.742133 
L 74.478528 244.567868 
L 74.385353 244.390699 
L 74.29539 244.567868 
L 74.29539 244.567868 
L 74.385353 243.333494 
L 74.202215 243.333494 
L 73.925902 243.510663 
L 73.832727 243.862097 
L 74.10904 243.156325 
L 73.925902 243.862097 
L 73.925902 244.390699 
L 74.10904 244.390699 
L 74.29539 244.039266 
L 74.29539 243.510663 
L 74.10904 243.510663 
L 74.10904 243.510663 
L 74.29539 243.684928 
L 74.202215 245.096471 
L 74.29539 244.742133 
L 74.10904 244.567868 
L 74.202215 243.862097 
L 74.385353 243.862097 
L 74.202215 244.039266 
L 74.10904 244.390699 
L 74.202215 244.567868 
L 74.385353 244.039266 
L 74.478528 243.333494 
L 74.754841 243.333494 
L 74.754841 243.510663 
L 74.571703 243.684928 
L 74.478528 243.510663 
L 74.478528 243.156325 
L 74.385353 243.156325 
L 74.29539 243.510663 
L 74.478528 244.039266 
L 74.848016 243.510663 
L 74.754841 243.333494 
L 74.478528 243.333494 
L 74.10904 243.510663 
L 74.29539 243.510663 
L 74.478528 243.684928 
L 74.571703 244.039266 
L 74.385353 244.039266 
L 74.10904 242.804891 
L 74.202215 243.510663 
L 74.478528 243.510663 
L 74.571703 243.333494 
L 74.29539 242.453457 
L 74.385353 242.98206 
" style="fill:none;stroke:#1f77b4;stroke-linecap:square;stroke-width:1.5;"/>
   </g>
   <g id="matplotlib.axis_1">
    <g id="xtick_1">
     <g id="line2d_2">
      <defs>
       <path d="M 0 0 
L 0 3.5 
" id="mb8c295fef8" style="stroke:#000000;stroke-width:0.8;"/>
      </defs>
      <g>
       <use style="stroke:#000000;stroke-width:0.8;" x="109.515618" xlink:href="#mb8c295fef8" y="307.584"/>
      </g>
     </g>
     <g id="text_1">
      <!-- −200 -->
      <defs>
       <path d="M 10.59375 35.5 
L 73.1875 35.5 
L 73.1875 27.203125 
L 10.59375 27.203125 
z
" id="DejaVuSans-8722"/>
       <path d="M 19.1875 8.296875 
L 53.609375 8.296875 
L 53.609375 0 
L 7.328125 0 
L 7.328125 8.296875 
Q 12.9375 14.109375 22.625 23.890625 
Q 32.328125 33.6875 34.8125 36.53125 
Q 39.546875 41.84375 41.421875 45.53125 
Q 43.3125 49.21875 43.3125 52.78125 
Q 43.3125 58.59375 39.234375 62.25 
Q 35.15625 65.921875 28.609375 65.921875 
Q 23.96875 65.921875 18.8125 64.3125 
Q 13.671875 62.703125 7.8125 59.421875 
L 7.8125 69.390625 
Q 13.765625 71.78125 18.9375 73 
Q 24.125 74.21875 28.421875 74.21875 
Q 39.75 74.21875 46.484375 68.546875 
Q 53.21875 62.890625 53.21875 53.421875 
Q 53.21875 48.921875 51.53125 44.890625 
Q 49.859375 40.875 45.40625 35.40625 
Q 44.1875 33.984375 37.640625 27.21875 
Q 31.109375 20.453125 19.1875 8.296875 
z
" id="DejaVuSans-50"/>
       <path d="M 31.78125 66.40625 
Q 24.171875 66.40625 20.328125 58.90625 
Q 16.5 51.421875 16.5 36.375 
Q 16.5 21.390625 20.328125 13.890625 
Q 24.171875 6.390625 31.78125 6.390625 
Q 39.453125 6.390625 43.28125 13.890625 
Q 47.125 21.390625 47.125 36.375 
Q 47.125 51.421875 43.28125 58.90625 
Q 39.453125 66.40625 31.78125 66.40625 
z
M 31.78125 74.21875 
Q 44.046875 74.21875 50.515625 64.515625 
Q 56.984375 54.828125 56.984375 36.375 
Q 56.984375 17.96875 50.515625 8.265625 
Q 44.046875 -1.421875 31.78125 -1.421875 
Q 19.53125 -1.421875 13.0625 8.265625 
Q 6.59375 17.96875 6.59375 36.375 
Q 6.59375 54.828125 13.0625 64.515625 
Q 19.53125 74.21875 31.78125 74.21875 
z
" id="DejaVuSans-48"/>
      </defs>
      <g transform="translate(95.782024 322.182437)scale(0.1 -0.1)">
       <use xlink:href="#DejaVuSans-8722"/>
       <use x="83.789062" xlink:href="#DejaVuSans-50"/>
       <use x="147.412109" xlink:href="#DejaVuSans-48"/>
       <use x="211.035156" xlink:href="#DejaVuSans-48"/>
      </g>
     </g>
    </g>
    <g id="xtick_2">
     <g id="line2d_3">
      <g>
       <use style="stroke:#000000;stroke-width:0.8;" x="173.77438" xlink:href="#mb8c295fef8" y="307.584"/>
      </g>
     </g>
     <g id="text_2">
      <!-- 0 -->
      <g transform="translate(170.59313 322.182437)scale(0.1 -0.1)">
       <use xlink:href="#DejaVuSans-48"/>
      </g>
     </g>
    </g>
    <g id="xtick_3">
     <g id="line2d_4">
      <g>
       <use style="stroke:#000000;stroke-width:0.8;" x="238.033143" xlink:href="#mb8c295fef8" y="307.584"/>
      </g>
     </g>
     <g id="text_3">
      <!-- 200 -->
      <g transform="translate(228.489393 322.182437)scale(0.1 -0.1)">
       <use xlink:href="#DejaVuSans-50"/>
       <use x="63.623047" xlink:href="#DejaVuSans-48"/>
       <use x="127.246094" xlink:href="#DejaVuSans-48"/>
      </g>
     </g>
    </g>
    <g id="xtick_4">
     <g id="line2d_5">
      <g>
       <use style="stroke:#000000;stroke-width:0.8;" x="302.291905" xlink:href="#mb8c295fef8" y="307.584"/>
      </g>
     </g>
     <g id="text_4">
      <!-- 400 -->
      <defs>
       <path d="M 37.796875 64.3125 
L 12.890625 25.390625 
L 37.796875 25.390625 
z
M 35.203125 72.90625 
L 47.609375 72.90625 
L 47.609375 25.390625 
L 58.015625 25.390625 
L 58.015625 17.1875 
L 47.609375 17.1875 
L 47.609375 0 
L 37.796875 0 
L 37.796875 17.1875 
L 4.890625 17.1875 
L 4.890625 26.703125 
z
" id="DejaVuSans-52"/>
      </defs>
      <g transform="translate(292.748155 322.182437)scale(0.1 -0.1)">
       <use xlink:href="#DejaVuSans-52"/>
       <use x="63.623047" xlink:href="#DejaVuSans-48"/>
       <use x="127.246094" xlink:href="#DejaVuSans-48"/>
      </g>
     </g>
    </g>
    <g id="xtick_5">
     <g id="line2d_6">
      <g>
       <use style="stroke:#000000;stroke-width:0.8;" x="366.550668" xlink:href="#mb8c295fef8" y="307.584"/>
      </g>
     </g>
     <g id="text_5">
      <!-- 600 -->
      <defs>
       <path d="M 33.015625 40.375 
Q 26.375 40.375 22.484375 35.828125 
Q 18.609375 31.296875 18.609375 23.390625 
Q 18.609375 15.53125 22.484375 10.953125 
Q 26.375 6.390625 33.015625 6.390625 
Q 39.65625 6.390625 43.53125 10.953125 
Q 47.40625 15.53125 47.40625 23.390625 
Q 47.40625 31.296875 43.53125 35.828125 
Q 39.65625 40.375 33.015625 40.375 
z
M 52.59375 71.296875 
L 52.59375 62.3125 
Q 48.875 64.0625 45.09375 64.984375 
Q 41.3125 65.921875 37.59375 65.921875 
Q 27.828125 65.921875 22.671875 59.328125 
Q 17.53125 52.734375 16.796875 39.40625 
Q 19.671875 43.65625 24.015625 45.921875 
Q 28.375 48.1875 33.59375 48.1875 
Q 44.578125 48.1875 50.953125 41.515625 
Q 57.328125 34.859375 57.328125 23.390625 
Q 57.328125 12.15625 50.6875 5.359375 
Q 44.046875 -1.421875 33.015625 -1.421875 
Q 20.359375 -1.421875 13.671875 8.265625 
Q 6.984375 17.96875 6.984375 36.375 
Q 6.984375 53.65625 15.1875 63.9375 
Q 23.390625 74.21875 37.203125 74.21875 
Q 40.921875 74.21875 44.703125 73.484375 
Q 48.484375 72.75 52.59375 71.296875 
z
" id="DejaVuSans-54"/>
      </defs>
      <g transform="translate(357.006918 322.182437)scale(0.1 -0.1)">
       <use xlink:href="#DejaVuSans-54"/>
       <use x="63.623047" xlink:href="#DejaVuSans-48"/>
       <use x="127.246094" xlink:href="#DejaVuSans-48"/>
      </g>
     </g>
    </g>
   </g>
   <g id="matplotlib.axis_2">
    <g id="ytick_1">
     <g id="line2d_7">
      <defs>
       <path d="M 0 0 
L -3.5 0 
" id="m51d46c4ee6" style="stroke:#000000;stroke-width:0.8;"/>
      </defs>
      <g>
       <use style="stroke:#000000;stroke-width:0.8;" x="57.6" xlink:href="#m51d46c4ee6" y="301.805094"/>
      </g>
     </g>
     <g id="text_6">
      <!-- −400 -->
      <g transform="translate(23.132812 305.604312)scale(0.1 -0.1)">
       <use xlink:href="#DejaVuSans-8722"/>
       <use x="83.789062" xlink:href="#DejaVuSans-52"/>
       <use x="147.412109" xlink:href="#DejaVuSans-48"/>
       <use x="211.035156" xlink:href="#DejaVuSans-48"/>
      </g>
     </g>
    </g>
    <g id="ytick_2">
     <g id="line2d_8">
      <g>
       <use style="stroke:#000000;stroke-width:0.8;" x="57.6" xlink:href="#m51d46c4ee6" y="243.716876"/>
      </g>
     </g>
     <g id="text_7">
      <!-- −200 -->
      <g transform="translate(23.132812 247.516095)scale(0.1 -0.1)">
       <use xlink:href="#DejaVuSans-8722"/>
       <use x="83.789062" xlink:href="#DejaVuSans-50"/>
       <use x="147.412109" xlink:href="#DejaVuSans-48"/>
       <use x="211.035156" xlink:href="#DejaVuSans-48"/>
      </g>
     </g>
    </g>
    <g id="ytick_3">
     <g id="line2d_9">
      <g>
       <use style="stroke:#000000;stroke-width:0.8;" x="57.6" xlink:href="#m51d46c4ee6" y="185.628658"/>
      </g>
     </g>
     <g id="text_8">
      <!-- 0 -->
      <g transform="translate(44.2375 189.427877)scale(0.1 -0.1)">
       <use xlink:href="#DejaVuSans-48"/>
      </g>
     </g>
    </g>
    <g id="ytick_4">
     <g id="line2d_10">
      <g>
       <use style="stroke:#000000;stroke-width:0.8;" x="57.6" xlink:href="#m51d46c4ee6" y="127.540441"/>
      </g>
     </g>
     <g id="text_9">
      <!-- 200 -->
      <g transform="translate(31.5125 131.33966)scale(0.1 -0.1)">
       <use xlink:href="#DejaVuSans-50"/>
       <use x="63.623047" xlink:href="#DejaVuSans-48"/>
       <use x="127.246094" xlink:href="#DejaVuSans-48"/>
      </g>
     </g>
    </g>
    <g id="ytick_5">
     <g id="line2d_11">
      <g>
       <use style="stroke:#000000;stroke-width:0.8;" x="57.6" xlink:href="#m51d46c4ee6" y="69.452223"/>
      </g>
     </g>
     <g id="text_10">
      <!-- 400 -->
      <g transform="translate(31.5125 73.251442)scale(0.1 -0.1)">
       <use xlink:href="#DejaVuSans-52"/>
       <use x="63.623047" xlink:href="#DejaVuSans-48"/>
       <use x="127.246094" xlink:href="#DejaVuSans-48"/>
      </g>
     </g>
    </g>
   </g>
   <g id="line2d_12">
    <path clip-path="url(#p784765173c)" d="M 396.825902 55.610069 
L 167.073898 159.836196 
L 102.912664 239.314808 
L 103.334246 249.321421 
L 245.533067 292.875449 
L 75.723744 244.252609 
" style="fill:none;stroke:#ff0000;stroke-linecap:square;stroke-width:0.5;"/>
   </g>
   <g id="patch_3">
    <path d="M 57.6 307.584 
L 57.6 41.472 
" style="fill:none;stroke:#000000;stroke-linecap:square;stroke-linejoin:miter;stroke-width:0.8;"/>
   </g>
   <g id="patch_4">
    <path d="M 414.72 307.584 
L 414.72 41.472 
" style="fill:none;stroke:#000000;stroke-linecap:square;stroke-linejoin:miter;stroke-width:0.8;"/>
   </g>
   <g id="patch_5">
    <path d="M 57.6 307.584 
L 414.72 307.584 
" style="fill:none;stroke:#000000;stroke-linecap:square;stroke-linejoin:miter;stroke-width:0.8;"/>
   </g>
   <g id="patch_6">
    <path d="M 57.6 41.472 
L 414.72 41.472 
" style="fill:none;stroke:#000000;stroke-linecap:square;stroke-linejoin:miter;stroke-width:0.8;"/>
   </g>
   <g id="PathCollection_1">
    <defs>
     <path d="M 0 2.738613 
C 0.726289 2.738613 1.422928 2.450055 1.936492 1.936492 
C 2.450055 1.422928 2.738613 0.726289 2.738613 0 
C 2.738613 -0.726289 2.450055 -1.422928 1.936492 -1.936492 
C 1.422928 -2.450055 0.726289 -2.738613 0 -2.738613 
C -0.726289 -2.738613 -1.422928 -2.450055 -1.936492 -1.936492 
C -2.450055 -1.422928 -2.738613 -0.726289 -2.738613 0 
C -2.738613 0.726289 -2.450055 1.422928 -1.936492 1.936492 
C -1.422928 2.450055 -0.726289 2.738613 0 2.738613 
z
" id="m4f5bbbf3f9" style="stroke:#ff0000;"/>
    </defs>
    <g clip-path="url(#p784765173c)">
     <use style="fill:#ff0000;stroke:#ff0000;" x="396.825902" xlink:href="#m4f5bbbf3f9" y="55.610069"/>
     <use style="fill:#ff0000;stroke:#ff0000;" x="167.073898" xlink:href="#m4f5bbbf3f9" y="159.836196"/>
     <use style="fill:#ff0000;stroke:#ff0000;" x="102.912664" xlink:href="#m4f5bbbf3f9" y="239.314808"/>
     <use style="fill:#ff0000;stroke:#ff0000;" x="103.334246" xlink:href="#m4f5bbbf3f9" y="249.321421"/>
     <use style="fill:#ff0000;stroke:#ff0000;" x="245.533067" xlink:href="#m4f5bbbf3f9" y="292.875449"/>
     <use style="fill:#ff0000;stroke:#ff0000;" x="75.723744" xlink:href="#m4f5bbbf3f9" y="244.252609"/>
    </g>
   </g>
   <g id="text_11">
    <!-- (96) Subject: s17, Known = True, Degree = 1, Duration = 0.1 -->
    <defs>
     <path d="M 31 75.875 
Q 24.46875 64.65625 21.28125 53.65625 
Q 18.109375 42.671875 18.109375 31.390625 
Q 18.109375 20.125 21.3125 9.0625 
Q 24.515625 -2 31 -13.1875 
L 23.1875 -13.1875 
Q 15.875 -1.703125 12.234375 9.375 
Q 8.59375 20.453125 8.59375 31.390625 
Q 8.59375 42.28125 12.203125 53.3125 
Q 15.828125 64.359375 23.1875 75.875 
z
" id="DejaVuSans-40"/>
     <path d="M 10.984375 1.515625 
L 10.984375 10.5 
Q 14.703125 8.734375 18.5 7.8125 
Q 22.3125 6.890625 25.984375 6.890625 
Q 35.75 6.890625 40.890625 13.453125 
Q 46.046875 20.015625 46.78125 33.40625 
Q 43.953125 29.203125 39.59375 26.953125 
Q 35.25 24.703125 29.984375 24.703125 
Q 19.046875 24.703125 12.671875 31.3125 
Q 6.296875 37.9375 6.296875 49.421875 
Q 6.296875 60.640625 12.9375 67.421875 
Q 19.578125 74.21875 30.609375 74.21875 
Q 43.265625 74.21875 49.921875 64.515625 
Q 56.59375 54.828125 56.59375 36.375 
Q 56.59375 19.140625 48.40625 8.859375 
Q 40.234375 -1.421875 26.421875 -1.421875 
Q 22.703125 -1.421875 18.890625 -0.6875 
Q 15.09375 0.046875 10.984375 1.515625 
z
M 30.609375 32.421875 
Q 37.25 32.421875 41.125 36.953125 
Q 45.015625 41.5 45.015625 49.421875 
Q 45.015625 57.28125 41.125 61.84375 
Q 37.25 66.40625 30.609375 66.40625 
Q 23.96875 66.40625 20.09375 61.84375 
Q 16.21875 57.28125 16.21875 49.421875 
Q 16.21875 41.5 20.09375 36.953125 
Q 23.96875 32.421875 30.609375 32.421875 
z
" id="DejaVuSans-57"/>
     <path d="M 8.015625 75.875 
L 15.828125 75.875 
Q 23.140625 64.359375 26.78125 53.3125 
Q 30.421875 42.28125 30.421875 31.390625 
Q 30.421875 20.453125 26.78125 9.375 
Q 23.140625 -1.703125 15.828125 -13.1875 
L 8.015625 -13.1875 
Q 14.5 -2 17.703125 9.0625 
Q 20.90625 20.125 20.90625 31.390625 
Q 20.90625 42.671875 17.703125 53.65625 
Q 14.5 64.65625 8.015625 75.875 
z
" id="DejaVuSans-41"/>
     <path id="DejaVuSans-32"/>
     <path d="M 53.515625 70.515625 
L 53.515625 60.890625 
Q 47.90625 63.578125 42.921875 64.890625 
Q 37.9375 66.21875 33.296875 66.21875 
Q 25.25 66.21875 20.875 63.09375 
Q 16.5 59.96875 16.5 54.203125 
Q 16.5 49.359375 19.40625 46.890625 
Q 22.3125 44.4375 30.421875 42.921875 
L 36.375 41.703125 
Q 47.40625 39.59375 52.65625 34.296875 
Q 57.90625 29 57.90625 20.125 
Q 57.90625 9.515625 50.796875 4.046875 
Q 43.703125 -1.421875 29.984375 -1.421875 
Q 24.8125 -1.421875 18.96875 -0.25 
Q 13.140625 0.921875 6.890625 3.21875 
L 6.890625 13.375 
Q 12.890625 10.015625 18.65625 8.296875 
Q 24.421875 6.59375 29.984375 6.59375 
Q 38.421875 6.59375 43.015625 9.90625 
Q 47.609375 13.234375 47.609375 19.390625 
Q 47.609375 24.75 44.3125 27.78125 
Q 41.015625 30.8125 33.5 32.328125 
L 27.484375 33.5 
Q 16.453125 35.6875 11.515625 40.375 
Q 6.59375 45.0625 6.59375 53.421875 
Q 6.59375 63.09375 13.40625 68.65625 
Q 20.21875 74.21875 32.171875 74.21875 
Q 37.3125 74.21875 42.625 73.28125 
Q 47.953125 72.359375 53.515625 70.515625 
z
" id="DejaVuSans-83"/>
     <path d="M 8.5 21.578125 
L 8.5 54.6875 
L 17.484375 54.6875 
L 17.484375 21.921875 
Q 17.484375 14.15625 20.5 10.265625 
Q 23.53125 6.390625 29.59375 6.390625 
Q 36.859375 6.390625 41.078125 11.03125 
Q 45.3125 15.671875 45.3125 23.6875 
L 45.3125 54.6875 
L 54.296875 54.6875 
L 54.296875 0 
L 45.3125 0 
L 45.3125 8.40625 
Q 42.046875 3.421875 37.71875 1 
Q 33.40625 -1.421875 27.6875 -1.421875 
Q 18.265625 -1.421875 13.375 4.4375 
Q 8.5 10.296875 8.5 21.578125 
z
M 31.109375 56 
z
" id="DejaVuSans-117"/>
     <path d="M 48.6875 27.296875 
Q 48.6875 37.203125 44.609375 42.84375 
Q 40.53125 48.484375 33.40625 48.484375 
Q 26.265625 48.484375 22.1875 42.84375 
Q 18.109375 37.203125 18.109375 27.296875 
Q 18.109375 17.390625 22.1875 11.75 
Q 26.265625 6.109375 33.40625 6.109375 
Q 40.53125 6.109375 44.609375 11.75 
Q 48.6875 17.390625 48.6875 27.296875 
z
M 18.109375 46.390625 
Q 20.953125 51.265625 25.265625 53.625 
Q 29.59375 56 35.59375 56 
Q 45.5625 56 51.78125 48.09375 
Q 58.015625 40.1875 58.015625 27.296875 
Q 58.015625 14.40625 51.78125 6.484375 
Q 45.5625 -1.421875 35.59375 -1.421875 
Q 29.59375 -1.421875 25.265625 0.953125 
Q 20.953125 3.328125 18.109375 8.203125 
L 18.109375 0 
L 9.078125 0 
L 9.078125 75.984375 
L 18.109375 75.984375 
z
" id="DejaVuSans-98"/>
     <path d="M 9.421875 54.6875 
L 18.40625 54.6875 
L 18.40625 -0.984375 
Q 18.40625 -11.421875 14.421875 -16.109375 
Q 10.453125 -20.796875 1.609375 -20.796875 
L -1.8125 -20.796875 
L -1.8125 -13.1875 
L 0.59375 -13.1875 
Q 5.71875 -13.1875 7.5625 -10.8125 
Q 9.421875 -8.453125 9.421875 -0.984375 
z
M 9.421875 75.984375 
L 18.40625 75.984375 
L 18.40625 64.59375 
L 9.421875 64.59375 
z
" id="DejaVuSans-106"/>
     <path d="M 56.203125 29.59375 
L 56.203125 25.203125 
L 14.890625 25.203125 
Q 15.484375 15.921875 20.484375 11.0625 
Q 25.484375 6.203125 34.421875 6.203125 
Q 39.59375 6.203125 44.453125 7.46875 
Q 49.3125 8.734375 54.109375 11.28125 
L 54.109375 2.78125 
Q 49.265625 0.734375 44.1875 -0.34375 
Q 39.109375 -1.421875 33.890625 -1.421875 
Q 20.796875 -1.421875 13.15625 6.1875 
Q 5.515625 13.8125 5.515625 26.8125 
Q 5.515625 40.234375 12.765625 48.109375 
Q 20.015625 56 32.328125 56 
Q 43.359375 56 49.78125 48.890625 
Q 56.203125 41.796875 56.203125 29.59375 
z
M 47.21875 32.234375 
Q 47.125 39.59375 43.09375 43.984375 
Q 39.0625 48.390625 32.421875 48.390625 
Q 24.90625 48.390625 20.390625 44.140625 
Q 15.875 39.890625 15.1875 32.171875 
z
" id="DejaVuSans-101"/>
     <path d="M 48.78125 52.59375 
L 48.78125 44.1875 
Q 44.96875 46.296875 41.140625 47.34375 
Q 37.3125 48.390625 33.40625 48.390625 
Q 24.65625 48.390625 19.8125 42.84375 
Q 14.984375 37.3125 14.984375 27.296875 
Q 14.984375 17.28125 19.8125 11.734375 
Q 24.65625 6.203125 33.40625 6.203125 
Q 37.3125 6.203125 41.140625 7.25 
Q 44.96875 8.296875 48.78125 10.40625 
L 48.78125 2.09375 
Q 45.015625 0.34375 40.984375 -0.53125 
Q 36.96875 -1.421875 32.421875 -1.421875 
Q 20.0625 -1.421875 12.78125 6.34375 
Q 5.515625 14.109375 5.515625 27.296875 
Q 5.515625 40.671875 12.859375 48.328125 
Q 20.21875 56 33.015625 56 
Q 37.15625 56 41.109375 55.140625 
Q 45.0625 54.296875 48.78125 52.59375 
z
" id="DejaVuSans-99"/>
     <path d="M 18.3125 70.21875 
L 18.3125 54.6875 
L 36.8125 54.6875 
L 36.8125 47.703125 
L 18.3125 47.703125 
L 18.3125 18.015625 
Q 18.3125 11.328125 20.140625 9.421875 
Q 21.96875 7.515625 27.59375 7.515625 
L 36.8125 7.515625 
L 36.8125 0 
L 27.59375 0 
Q 17.1875 0 13.234375 3.875 
Q 9.28125 7.765625 9.28125 18.015625 
L 9.28125 47.703125 
L 2.6875 47.703125 
L 2.6875 54.6875 
L 9.28125 54.6875 
L 9.28125 70.21875 
z
" id="DejaVuSans-116"/>
     <path d="M 11.71875 12.40625 
L 22.015625 12.40625 
L 22.015625 0 
L 11.71875 0 
z
M 11.71875 51.703125 
L 22.015625 51.703125 
L 22.015625 39.3125 
L 11.71875 39.3125 
z
" id="DejaVuSans-58"/>
     <path d="M 44.28125 53.078125 
L 44.28125 44.578125 
Q 40.484375 46.53125 36.375 47.5 
Q 32.28125 48.484375 27.875 48.484375 
Q 21.1875 48.484375 17.84375 46.4375 
Q 14.5 44.390625 14.5 40.28125 
Q 14.5 37.15625 16.890625 35.375 
Q 19.28125 33.59375 26.515625 31.984375 
L 29.59375 31.296875 
Q 39.15625 29.25 43.1875 25.515625 
Q 47.21875 21.78125 47.21875 15.09375 
Q 47.21875 7.46875 41.1875 3.015625 
Q 35.15625 -1.421875 24.609375 -1.421875 
Q 20.21875 -1.421875 15.453125 -0.5625 
Q 10.6875 0.296875 5.421875 2 
L 5.421875 11.28125 
Q 10.40625 8.6875 15.234375 7.390625 
Q 20.0625 6.109375 24.8125 6.109375 
Q 31.15625 6.109375 34.5625 8.28125 
Q 37.984375 10.453125 37.984375 14.40625 
Q 37.984375 18.0625 35.515625 20.015625 
Q 33.0625 21.96875 24.703125 23.78125 
L 21.578125 24.515625 
Q 13.234375 26.265625 9.515625 29.90625 
Q 5.8125 33.546875 5.8125 39.890625 
Q 5.8125 47.609375 11.28125 51.796875 
Q 16.75 56 26.8125 56 
Q 31.78125 56 36.171875 55.265625 
Q 40.578125 54.546875 44.28125 53.078125 
z
" id="DejaVuSans-115"/>
     <path d="M 12.40625 8.296875 
L 28.515625 8.296875 
L 28.515625 63.921875 
L 10.984375 60.40625 
L 10.984375 69.390625 
L 28.421875 72.90625 
L 38.28125 72.90625 
L 38.28125 8.296875 
L 54.390625 8.296875 
L 54.390625 0 
L 12.40625 0 
z
" id="DejaVuSans-49"/>
     <path d="M 8.203125 72.90625 
L 55.078125 72.90625 
L 55.078125 68.703125 
L 28.609375 0 
L 18.3125 0 
L 43.21875 64.59375 
L 8.203125 64.59375 
z
" id="DejaVuSans-55"/>
     <path d="M 11.71875 12.40625 
L 22.015625 12.40625 
L 22.015625 4 
L 14.015625 -11.625 
L 7.71875 -11.625 
L 11.71875 4 
z
" id="DejaVuSans-44"/>
     <path d="M 9.8125 72.90625 
L 19.671875 72.90625 
L 19.671875 42.09375 
L 52.390625 72.90625 
L 65.09375 72.90625 
L 28.90625 38.921875 
L 67.671875 0 
L 54.6875 0 
L 19.671875 35.109375 
L 19.671875 0 
L 9.8125 0 
z
" id="DejaVuSans-75"/>
     <path d="M 54.890625 33.015625 
L 54.890625 0 
L 45.90625 0 
L 45.90625 32.71875 
Q 45.90625 40.484375 42.875 44.328125 
Q 39.84375 48.1875 33.796875 48.1875 
Q 26.515625 48.1875 22.3125 43.546875 
Q 18.109375 38.921875 18.109375 30.90625 
L 18.109375 0 
L 9.078125 0 
L 9.078125 54.6875 
L 18.109375 54.6875 
L 18.109375 46.1875 
Q 21.34375 51.125 25.703125 53.5625 
Q 30.078125 56 35.796875 56 
Q 45.21875 56 50.046875 50.171875 
Q 54.890625 44.34375 54.890625 33.015625 
z
" id="DejaVuSans-110"/>
     <path d="M 30.609375 48.390625 
Q 23.390625 48.390625 19.1875 42.75 
Q 14.984375 37.109375 14.984375 27.296875 
Q 14.984375 17.484375 19.15625 11.84375 
Q 23.34375 6.203125 30.609375 6.203125 
Q 37.796875 6.203125 41.984375 11.859375 
Q 46.1875 17.53125 46.1875 27.296875 
Q 46.1875 37.015625 41.984375 42.703125 
Q 37.796875 48.390625 30.609375 48.390625 
z
M 30.609375 56 
Q 42.328125 56 49.015625 48.375 
Q 55.71875 40.765625 55.71875 27.296875 
Q 55.71875 13.875 49.015625 6.21875 
Q 42.328125 -1.421875 30.609375 -1.421875 
Q 18.84375 -1.421875 12.171875 6.21875 
Q 5.515625 13.875 5.515625 27.296875 
Q 5.515625 40.765625 12.171875 48.375 
Q 18.84375 56 30.609375 56 
z
" id="DejaVuSans-111"/>
     <path d="M 4.203125 54.6875 
L 13.1875 54.6875 
L 24.421875 12.015625 
L 35.59375 54.6875 
L 46.1875 54.6875 
L 57.421875 12.015625 
L 68.609375 54.6875 
L 77.59375 54.6875 
L 63.28125 0 
L 52.6875 0 
L 40.921875 44.828125 
L 29.109375 0 
L 18.5 0 
z
" id="DejaVuSans-119"/>
     <path d="M 10.59375 45.40625 
L 73.1875 45.40625 
L 73.1875 37.203125 
L 10.59375 37.203125 
z
M 10.59375 25.484375 
L 73.1875 25.484375 
L 73.1875 17.1875 
L 10.59375 17.1875 
z
" id="DejaVuSans-61"/>
     <path d="M -0.296875 72.90625 
L 61.375 72.90625 
L 61.375 64.59375 
L 35.5 64.59375 
L 35.5 0 
L 25.59375 0 
L 25.59375 64.59375 
L -0.296875 64.59375 
z
" id="DejaVuSans-84"/>
     <path d="M 41.109375 46.296875 
Q 39.59375 47.171875 37.8125 47.578125 
Q 36.03125 48 33.890625 48 
Q 26.265625 48 22.1875 43.046875 
Q 18.109375 38.09375 18.109375 28.8125 
L 18.109375 0 
L 9.078125 0 
L 9.078125 54.6875 
L 18.109375 54.6875 
L 18.109375 46.1875 
Q 20.953125 51.171875 25.484375 53.578125 
Q 30.03125 56 36.53125 56 
Q 37.453125 56 38.578125 55.875 
Q 39.703125 55.765625 41.0625 55.515625 
z
" id="DejaVuSans-114"/>
     <path d="M 19.671875 64.796875 
L 19.671875 8.109375 
L 31.59375 8.109375 
Q 46.6875 8.109375 53.6875 14.9375 
Q 60.6875 21.78125 60.6875 36.53125 
Q 60.6875 51.171875 53.6875 57.984375 
Q 46.6875 64.796875 31.59375 64.796875 
z
M 9.8125 72.90625 
L 30.078125 72.90625 
Q 51.265625 72.90625 61.171875 64.09375 
Q 71.09375 55.28125 71.09375 36.53125 
Q 71.09375 17.671875 61.125 8.828125 
Q 51.171875 0 30.078125 0 
L 9.8125 0 
z
" id="DejaVuSans-68"/>
     <path d="M 45.40625 27.984375 
Q 45.40625 37.75 41.375 43.109375 
Q 37.359375 48.484375 30.078125 48.484375 
Q 22.859375 48.484375 18.828125 43.109375 
Q 14.796875 37.75 14.796875 27.984375 
Q 14.796875 18.265625 18.828125 12.890625 
Q 22.859375 7.515625 30.078125 7.515625 
Q 37.359375 7.515625 41.375 12.890625 
Q 45.40625 18.265625 45.40625 27.984375 
z
M 54.390625 6.78125 
Q 54.390625 -7.171875 48.1875 -13.984375 
Q 42 -20.796875 29.203125 -20.796875 
Q 24.46875 -20.796875 20.265625 -20.09375 
Q 16.0625 -19.390625 12.109375 -17.921875 
L 12.109375 -9.1875 
Q 16.0625 -11.328125 19.921875 -12.34375 
Q 23.78125 -13.375 27.78125 -13.375 
Q 36.625 -13.375 41.015625 -8.765625 
Q 45.40625 -4.15625 45.40625 5.171875 
L 45.40625 9.625 
Q 42.625 4.78125 38.28125 2.390625 
Q 33.9375 0 27.875 0 
Q 17.828125 0 11.671875 7.65625 
Q 5.515625 15.328125 5.515625 27.984375 
Q 5.515625 40.671875 11.671875 48.328125 
Q 17.828125 56 27.875 56 
Q 33.9375 56 38.28125 53.609375 
Q 42.625 51.21875 45.40625 46.390625 
L 45.40625 54.6875 
L 54.390625 54.6875 
z
" id="DejaVuSans-103"/>
     <path d="M 34.28125 27.484375 
Q 23.390625 27.484375 19.1875 25 
Q 14.984375 22.515625 14.984375 16.5 
Q 14.984375 11.71875 18.140625 8.90625 
Q 21.296875 6.109375 26.703125 6.109375 
Q 34.1875 6.109375 38.703125 11.40625 
Q 43.21875 16.703125 43.21875 25.484375 
L 43.21875 27.484375 
z
M 52.203125 31.203125 
L 52.203125 0 
L 43.21875 0 
L 43.21875 8.296875 
Q 40.140625 3.328125 35.546875 0.953125 
Q 30.953125 -1.421875 24.3125 -1.421875 
Q 15.921875 -1.421875 10.953125 3.296875 
Q 6 8.015625 6 15.921875 
Q 6 25.140625 12.171875 29.828125 
Q 18.359375 34.515625 30.609375 34.515625 
L 43.21875 34.515625 
L 43.21875 35.40625 
Q 43.21875 41.609375 39.140625 45 
Q 35.0625 48.390625 27.6875 48.390625 
Q 23 48.390625 18.546875 47.265625 
Q 14.109375 46.140625 10.015625 43.890625 
L 10.015625 52.203125 
Q 14.9375 54.109375 19.578125 55.046875 
Q 24.21875 56 28.609375 56 
Q 40.484375 56 46.34375 49.84375 
Q 52.203125 43.703125 52.203125 31.203125 
z
" id="DejaVuSans-97"/>
     <path d="M 9.421875 54.6875 
L 18.40625 54.6875 
L 18.40625 0 
L 9.421875 0 
z
M 9.421875 75.984375 
L 18.40625 75.984375 
L 18.40625 64.59375 
L 9.421875 64.59375 
z
" id="DejaVuSans-105"/>
     <path d="M 10.6875 12.40625 
L 21 12.40625 
L 21 0 
L 10.6875 0 
z
" id="DejaVuSans-46"/>
    </defs>
    <g transform="translate(51.733125 35.472)scale(0.12 -0.12)">
     <use xlink:href="#DejaVuSans-40"/>
     <use x="39.013672" xlink:href="#DejaVuSans-57"/>
     <use x="102.636719" xlink:href="#DejaVuSans-54"/>
     <use x="166.259766" xlink:href="#DejaVuSans-41"/>
     <use x="205.273438" xlink:href="#DejaVuSans-32"/>
     <use x="237.060547" xlink:href="#DejaVuSans-83"/>
     <use x="300.537109" xlink:href="#DejaVuSans-117"/>
     <use x="363.916016" xlink:href="#DejaVuSans-98"/>
     <use x="427.392578" xlink:href="#DejaVuSans-106"/>
     <use x="455.175781" xlink:href="#DejaVuSans-101"/>
     <use x="516.699219" xlink:href="#DejaVuSans-99"/>
     <use x="571.679688" xlink:href="#DejaVuSans-116"/>
     <use x="610.888672" xlink:href="#DejaVuSans-58"/>
     <use x="644.580078" xlink:href="#DejaVuSans-32"/>
     <use x="676.367188" xlink:href="#DejaVuSans-115"/>
     <use x="728.466797" xlink:href="#DejaVuSans-49"/>
     <use x="792.089844" xlink:href="#DejaVuSans-55"/>
     <use x="855.712891" xlink:href="#DejaVuSans-44"/>
     <use x="887.5" xlink:href="#DejaVuSans-32"/>
     <use x="919.287109" xlink:href="#DejaVuSans-75"/>
     <use x="984.863281" xlink:href="#DejaVuSans-110"/>
     <use x="1048.242188" xlink:href="#DejaVuSans-111"/>
     <use x="1109.423828" xlink:href="#DejaVuSans-119"/>
     <use x="1191.210938" xlink:href="#DejaVuSans-110"/>
     <use x="1254.589844" xlink:href="#DejaVuSans-32"/>
     <use x="1286.376953" xlink:href="#DejaVuSans-61"/>
     <use x="1370.166016" xlink:href="#DejaVuSans-32"/>
     <use x="1401.953125" xlink:href="#DejaVuSans-84"/>
     <use x="1462.818359" xlink:href="#DejaVuSans-114"/>
     <use x="1503.931641" xlink:href="#DejaVuSans-117"/>
     <use x="1567.310547" xlink:href="#DejaVuSans-101"/>
     <use x="1628.833984" xlink:href="#DejaVuSans-44"/>
     <use x="1660.621094" xlink:href="#DejaVuSans-32"/>
     <use x="1692.408203" xlink:href="#DejaVuSans-68"/>
     <use x="1769.410156" xlink:href="#DejaVuSans-101"/>
     <use x="1830.933594" xlink:href="#DejaVuSans-103"/>
     <use x="1894.410156" xlink:href="#DejaVuSans-114"/>
     <use x="1935.492188" xlink:href="#DejaVuSans-101"/>
     <use x="1997.015625" xlink:href="#DejaVuSans-101"/>
     <use x="2058.539062" xlink:href="#DejaVuSans-32"/>
     <use x="2090.326172" xlink:href="#DejaVuSans-61"/>
     <use x="2174.115234" xlink:href="#DejaVuSans-32"/>
     <use x="2205.902344" xlink:href="#DejaVuSans-49"/>
     <use x="2269.525391" xlink:href="#DejaVuSans-44"/>
     <use x="2301.3125" xlink:href="#DejaVuSans-32"/>
     <use x="2333.099609" xlink:href="#DejaVuSans-68"/>
     <use x="2410.101562" xlink:href="#DejaVuSans-117"/>
     <use x="2473.480469" xlink:href="#DejaVuSans-114"/>
     <use x="2514.59375" xlink:href="#DejaVuSans-97"/>
     <use x="2575.873047" xlink:href="#DejaVuSans-116"/>
     <use x="2615.082031" xlink:href="#DejaVuSans-105"/>
     <use x="2642.865234" xlink:href="#DejaVuSans-111"/>
     <use x="2704.046875" xlink:href="#DejaVuSans-110"/>
     <use x="2767.425781" xlink:href="#DejaVuSans-32"/>
     <use x="2799.212891" xlink:href="#DejaVuSans-61"/>
     <use x="2883.001953" xlink:href="#DejaVuSans-32"/>
     <use x="2914.789062" xlink:href="#DejaVuSans-48"/>
     <use x="2978.412109" xlink:href="#DejaVuSans-46"/>
     <use x="3010.199219" xlink:href="#DejaVuSans-49"/>
    </g>
   </g>
  </g>
 </g>
 <defs>
  <clipPath id="p784765173c">
   <rect height="266.112" width="357.12" x="57.6" y="41.472"/>
  </clipPath>
 </defs>
</svg>
