<?xml version="1.0" encoding="utf-8" standalone="no"?>
<!DOCTYPE svg PUBLIC "-//W3C//DTD SVG 1.1//EN"
  "http://www.w3.org/Graphics/SVG/1.1/DTD/svg11.dtd">
<!-- Created with matplotlib (https://matplotlib.org/) -->
<svg height="345.6pt" version="1.1" viewBox="0 0 460.8 345.6" width="460.8pt" xmlns="http://www.w3.org/2000/svg" xmlns:xlink="http://www.w3.org/1999/xlink">
 <defs>
  <style type="text/css">
*{stroke-linecap:butt;stroke-linejoin:round;}
  </style>
 </defs>
 <g id="figure_1">
  <g id="patch_1">
   <path d="M 0 345.6 
L 460.8 345.6 
L 460.8 0 
L 0 0 
z
" style="fill:#ffffff;"/>
  </g>
  <g id="axes_1">
   <g id="patch_2">
    <path d="M 57.6 307.584 
L 414.72 307.584 
L 414.72 41.472 
L 57.6 41.472 
z
" style="fill:#ffffff;"/>
   </g>
   <g id="line2d_1">
    <path clip-path="url(#p1f153630ce)" d="M 76.866673 283.673625 
L 77.099022 283.673625 
L 76.866673 283.673625 
L 76.401974 284.185098 
L 76.401974 284.185098 
L 76.866673 284.185098 
L 77.331372 283.673625 
L 77.331372 283.162153 
L 77.331372 283.673625 
L 77.800539 284.185098 
L 77.800539 285.214356 
L 76.866673 286.755087 
L 77.568189 285.725828 
L 77.099022 284.702884 
L 76.866673 284.702884 
L 77.331372 284.702884 
L 78.265237 285.214356 
L 78.734404 286.243615 
L 78.265237 287.266559 
L 78.265237 288.295818 
L 77.800539 288.80729 
L 77.099022 289.325077 
L 76.866673 288.80729 
L 77.331372 288.80729 
L 77.568189 287.784346 
L 77.331372 286.755087 
L 77.099022 287.784346 
L 77.099022 289.325077 
L 77.099022 288.295818 
L 76.634324 287.784346 
L 76.401974 287.784346 
L 76.866673 288.80729 
L 77.568189 289.325077 
L 77.568189 289.325077 
L 77.331372 289.836549 
L 77.099022 290.865807 
L 76.866673 290.865807 
L 76.634324 289.325077 
L 76.866673 287.784346 
L 77.331372 288.295818 
L 77.568189 289.325077 
L 77.800539 289.836549 
L 78.502055 289.836549 
L 78.734404 289.325077 
L 78.502055 288.80729 
L 77.331372 288.80729 
L 77.800539 288.80729 
L 78.265237 289.325077 
L 77.800539 289.836549 
L 77.568189 289.325077 
L 77.800539 288.295818 
L 78.502055 289.325077 
L 78.734404 290.865807 
L 78.032888 291.888752 
L 77.099022 291.37728 
L 76.866673 289.836549 
L 77.099022 289.325077 
L 78.032888 289.836549 
L 78.734404 291.37728 
L 78.966753 291.37728 
L 78.734404 290.865807 
L 78.032888 291.888752 
L 77.568189 291.888752 
L 77.099022 290.865807 
L 77.331372 288.295818 
L 78.032888 287.266559 
L 78.265237 288.80729 
L 78.265237 291.888752 
L 78.032888 292.91801 
L 77.568189 291.37728 
L 77.331372 289.325077 
L 77.568189 288.295818 
L 77.568189 287.784346 
L 77.099022 288.295818 
L 78.032888 288.295818 
L 78.502055 289.325077 
L 78.265237 289.836549 
L 78.032888 289.836549 
L 78.032888 289.836549 
L 77.800539 288.80729 
L 78.032888 286.755087 
L 77.331372 287.266559 
L 77.099022 288.295818 
L 77.800539 289.836549 
L 78.032888 290.865807 
L 78.966753 290.865807 
L 78.734404 291.37728 
L 78.502055 291.37728 
L 78.265237 290.348021 
L 78.265237 289.325077 
L 77.331372 288.80729 
L 76.401974 288.80729 
L 76.165157 289.325077 
L 76.634324 290.348021 
L 77.331372 291.37728 
L 77.099022 291.888752 
L 76.634324 291.37728 
L 76.401974 289.836549 
L 76.634324 288.80729 
L 76.866673 288.80729 
L 76.866673 289.836549 
L 77.099022 290.865807 
L 77.099022 291.888752 
L 77.099022 290.348021 
L 76.866673 289.325077 
L 76.866673 289.325077 
L 76.634324 290.348021 
L 76.634324 290.865807 
L 76.634324 289.836549 
L 76.634324 290.348021 
L 77.568189 292.406538 
L 77.800539 292.406538 
L 77.331372 292.406538 
L 76.866673 291.37728 
L 76.634324 290.348021 
L 76.401974 290.865807 
L 76.401974 290.865807 
L 76.165157 290.348021 
L 76.165157 289.325077 
L 77.568189 290.348021 
L 77.800539 290.348021 
L 77.800539 289.836549 
L 77.568189 290.348021 
L 77.331372 291.37728 
L 77.099022 291.888752 
L 76.866673 291.37728 
L 75.932808 291.37728 
L 76.165157 291.37728 
L 76.634324 292.406538 
L 76.165157 295.488 
L 76.634324 294.970213 
L 77.099022 293.429483 
L 76.634324 291.37728 
L 76.401974 290.865807 
L 75.932808 292.91801 
L 76.165157 293.429483 
L 76.165157 292.406538 
L 76.634324 291.37728 
L 76.634324 290.348021 
L 76.165157 290.348021 
L 76.165157 288.80729 
L 76.165157 291.37728 
L 76.165157 291.37728 
L 75.932808 290.865807 
L 75.932808 288.80729 
L 75.700458 288.80729 
L 75.700458 288.295818 
L 75.700458 288.80729 
L 75.932808 289.836549 
L 75.932808 289.836549 
L 76.165157 288.80729 
L 75.700458 288.295818 
L 74.766593 288.295818 
L 74.297426 289.325077 
L 74.065077 290.865807 
L 74.534243 291.37728 
L 74.998942 290.865807 
L 75.231291 288.80729 
L 74.766593 287.784346 
L 74.766593 287.784346 
L 74.998942 289.836549 
L 75.231291 290.865807 
L 75.231291 289.836549 
L 75.231291 289.836549 
L 74.998942 290.348021 
L 74.534243 290.348021 
L 74.766593 289.325077 
L 75.231291 288.80729 
L 75.468109 289.836549 
L 74.998942 292.406538 
L 74.534243 293.429483 
L 74.534243 291.888752 
L 74.998942 290.348021 
L 75.932808 289.325077 
L 76.165157 289.836549 
L 75.468109 290.348021 
L 74.534243 289.325077 
L 73.832727 288.295818 
L 73.832727 288.80729 
L 74.534243 290.348021 
L 74.998942 289.836549 
L 74.766593 288.295818 
L 74.297426 287.266559 
L 74.065077 287.784346 
L 74.065077 288.80729 
L 74.297426 289.836549 
L 74.998942 289.325077 
L 75.231291 287.266559 
L 74.766593 286.243615 
L 74.297426 287.266559 
L 74.297426 288.295818 
L 74.766593 289.325077 
L 74.766593 289.325077 
L 74.998942 289.325077 
L 74.998942 288.295818 
L 75.231291 287.784346 
L 75.468109 288.295818 
L 75.700458 288.295818 
L 75.468109 288.295818 
L 75.231291 287.784346 
L 75.468109 286.755087 
L 75.700458 286.755087 
L 75.231291 286.755087 
L 74.534243 286.243615 
L 74.534243 285.725828 
L 74.766593 284.702884 
L 74.998942 284.185098 
L 75.231291 285.214356 
L 75.231291 286.243615 
L 74.998942 287.266559 
L 75.231291 287.784346 
L 76.401974 287.784346 
L 78.502055 286.243615 
L 81.066834 284.702884 
L 83.86843 284.702884 
L 89.936322 283.673625 
L 94.136483 282.644367 
L 99.739676 282.644367 
L 113.278491 281.621422 
L 129.846785 280.592164 
L 138.483924 281.103636 
L 147.585761 281.103636 
L 156.455249 280.592164 
L 174.891274 278.539961 
L 195.431846 275.458499 
L 206.401415 274.42924 
L 216.669467 272.370723 
L 225.775773 270.829992 
L 234.877611 269.807048 
L 244.444147 269.807048 
L 253.313635 268.777789 
L 261.718424 266.725586 
L 270.351095 266.2078 
L 278.755885 266.2078 
L 285.989991 268.266317 
L 292.057883 269.807048 
L 297.424258 270.31852 
L 303.027451 269.807048 
L 308.393827 270.31852 
L 312.830805 271.347779 
L 316.329449 272.370723 
L 319.367863 271.859251 
L 322.866508 269.289261 
L 324.50189 269.289261 
L 324.966588 269.807048 
L 324.50189 270.31852 
L 323.098857 270.31852 
L 321.700293 269.289261 
L 319.832562 268.777789 
L 317.964831 268.777789 
L 315.864751 269.289261 
L 314.698536 269.807048 
L 313.99702 270.829992 
L 313.76467 271.859251 
L 313.295504 273.399982 
L 312.598456 274.42924 
L 312.129289 274.42924 
L 311.896939 273.911454 
L 311.66459 272.88851 
L 311.66459 273.399982 
L 311.896939 274.940712 
L 312.830805 276.99923 
L 314.466187 278.022174 
L 316.0971 276.99923 
L 317.263315 274.940712 
L 318.19718 273.911454 
L 319.131046 273.911454 
L 319.600213 274.940712 
L 319.832562 274.940712 
L 320.297261 274.42924 
L 321.231126 273.911454 
L 321.467944 273.399982 
L 321.700293 274.42924 
L 321.700293 274.940712 
L 321.467944 275.458499 
L 320.998777 274.940712 
L 320.534078 274.940712 
L 319.832562 275.458499 
L 318.666347 275.969971 
L 317.964831 274.940712 
L 317.732482 273.911454 
L 317.732482 272.88851 
L 317.263315 271.859251 
L 316.0971 271.859251 
L 316.329449 272.370723 
L 316.0971 272.88851 
L 315.632401 272.370723 
L 315.163235 271.347779 
L 315.400052 270.31852 
L 316.0971 270.31852 
L 316.566267 270.829992 
L 316.0971 271.347779 
L 315.163235 273.399982 
L 315.163235 273.911454 
L 314.698536 274.42924 
L 314.466187 274.940712 
L 314.466187 275.969971 
L 314.466187 275.458499 
L 314.698536 273.911454 
L 315.400052 272.370723 
L 315.864751 272.88851 
L 315.864751 273.911454 
L 315.400052 273.911454 
L 313.99702 275.458499 
L 313.532321 274.940712 
L 313.295504 275.458499 
L 313.76467 275.969971 
L 313.99702 275.969971 
L 313.99702 275.458499 
L 314.229369 274.940712 
L 314.698536 274.42924 
L 315.400052 273.399982 
L 315.632401 272.370723 
L 315.163235 270.829992 
L 314.698536 269.807048 
L 314.466187 269.807048 
L 314.229369 270.829992 
L 313.76467 271.347779 
L 313.532321 272.370723 
L 313.063154 273.399982 
L 312.361638 273.399982 
L 312.129289 272.88851 
L 312.129289 273.911454 
L 312.361638 273.911454 
L 312.598456 273.399982 
L 312.598456 272.370723 
L 311.896939 271.859251 
L 311.66459 271.347779 
L 311.66459 271.859251 
L 312.129289 272.370723 
L 312.361638 272.88851 
L 312.598456 271.859251 
L 312.129289 270.829992 
L 311.432241 270.31852 
L 311.195423 270.31852 
L 311.432241 270.829992 
L 311.432241 272.88851 
L 311.66459 273.399982 
L 311.896939 272.88851 
L 312.129289 271.859251 
L 311.66459 270.829992 
L 310.963074 270.829992 
L 310.261558 270.31852 
L 309.796859 268.777789 
L 310.029208 267.74853 
L 310.730725 267.74853 
L 311.432241 268.266317 
L 311.896939 268.777789 
L 311.896939 269.289261 
L 310.963074 271.347779 
L 311.432241 271.347779 
L 311.66459 270.829992 
L 311.432241 271.347779 
L 310.963074 271.859251 
L 310.261558 272.370723 
L 310.029208 271.859251 
L 310.261558 271.347779 
L 310.963074 271.347779 
L 310.261558 271.347779 
L 310.261558 270.829992 
L 310.261558 270.829992 
L 311.195423 269.807048 
L 311.195423 269.289261 
L 310.963074 269.289261 
L 310.963074 269.807048 
L 310.261558 270.829992 
L 309.796859 271.859251 
L 309.796859 272.370723 
L 309.796859 271.347779 
L 309.56451 270.31852 
L 309.327692 270.829992 
L 308.862994 269.807048 
L 309.095343 268.777789 
L 309.56451 268.777789 
L 309.327692 269.289261 
L 309.327692 269.289261 
L 309.796859 267.74853 
L 310.029208 266.2078 
L 310.498375 265.696327 
L 311.195423 266.2078 
L 312.361638 265.696327 
L 315.632401 259.533404 
L 320.998777 252.341222 
L 324.50189 248.230502 
L 328.9344 242.585365 
L 333.13456 234.881711 
L 339.903968 218.956616 
L 343.170263 211.764433 
L 347.374892 203.549307 
L 352.508918 194.304922 
L 363.246138 173.757635 
L 369.077212 165.024722 
L 375.84662 157.838854 
L 381.682162 150.646672 
L 386.11914 142.425231 
L 389.617785 133.180846 
L 392.65173 123.424989 
L 395.220978 112.639873 
L 396.619542 102.877701 
L 398.018106 86.441134 
L 398.487273 78.73748 
L 398.254923 71.545298 
L 397.088709 64.870902 
L 395.220978 60.24871 
L 393.353247 57.67872 
L 391.717865 55.626517 
L 390.319301 54.597259 
L 388.916268 54.085787 
L 387.750054 54.085787 
L 386.351489 53.568 
L 385.185275 54.085787 
L 384.251409 56.13799 
L 383.549893 58.707979 
L 383.080726 65.900161 
L 383.080726 69.493095 
L 383.317544 73.086029 
L 384.251409 76.16749 
L 386.351489 80.795997 
L 386.583839 82.336728 
L 386.351489 84.388931 
L 386.351489 85.929662 
L 386.583839 86.958921 
L 387.750054 86.958921 
L 388.916268 86.441134 
L 389.850134 85.41819 
L 391.016349 82.8482 
L 391.016349 83.359673 
L 390.55165 83.877459 
L 389.850134 83.359673 
L 389.385435 82.8482 
L 389.617785 82.336728 
L 390.319301 81.30747 
L 390.086951 79.766739 
L 388.683919 78.226008 
L 387.517704 79.766739 
L 387.285355 79.766739 
L 387.048537 79.248952 
L 386.583839 78.73748 
L 386.583839 78.226008 
L 387.048537 78.226008 
L 387.285355 78.73748 
L 387.048537 79.248952 
L 387.517704 80.795997 
L 387.517704 80.795997 
L 387.048537 80.795997 
L 386.816188 80.278211 
L 387.048537 79.248952 
L 386.583839 78.73748 
L 387.048537 79.248952 
L 386.816188 79.766739 
L 386.11914 80.795997 
L 385.649973 81.818942 
L 385.417624 81.818942 
L 385.417624 78.226008 
L 385.185275 78.226008 
L 385.417624 79.248952 
L 385.417624 80.278211 
L 385.417624 80.278211 
L 385.649973 80.278211 
L 385.649973 79.766739 
L 385.417624 79.248952 
L 385.185275 79.248952 
L 384.483758 78.73748 
L 384.014591 77.196749 
L 384.014591 76.16749 
L 383.782242 76.685277 
L 384.251409 79.248952 
L 383.549893 79.248952 
L 383.782242 78.226008 
L 384.014591 78.226008 
L 383.549893 78.226008 
L 383.317544 78.73748 
L 384.948457 78.73748 
L 385.417624 78.226008 
L 385.185275 78.226008 
L 385.417624 79.248952 
L 386.11914 79.766739 
L 386.351489 79.766739 
L 385.649973 78.73748 
L 384.251409 75.656018 
L 384.716108 77.196749 
L 384.948457 78.73748 
L 384.716108 78.73748 
L 384.483758 77.708221 
L 384.948457 77.708221 
L 384.948457 77.708221 
L 384.716108 76.685277 
L 384.251409 76.16749 
L 384.014591 75.144546 
L 384.014591 74.115288 
L 383.782242 74.62676 
L 384.251409 75.656018 
L 384.948457 76.16749 
L 385.417624 76.685277 
L 384.948457 76.685277 
L 384.483758 76.16749 
L 384.948457 73.603815 
L 384.948457 74.115288 
L 384.716108 75.144546 
L 384.716108 75.144546 
L 384.948457 75.656018 
L 385.649973 75.656018 
L 385.649973 75.144546 
L 385.417624 75.144546 
L 385.417624 76.685277 
L 385.417624 75.656018 
L 385.185275 75.144546 
L 385.649973 75.144546 
L 385.882323 76.16749 
L 385.882323 76.685277 
L 385.185275 77.196749 
L 384.716108 77.196749 
L 384.716108 75.144546 
L 385.185275 73.086029 
L 385.417624 72.574557 
L 385.649973 73.086029 
L 386.11914 73.086029 
L 386.351489 72.574557 
L 386.351489 72.063085 
L 384.483758 74.115288 
L 384.948457 74.115288 
L 385.185275 73.603815 
L 384.716108 73.086029 
L 384.716108 73.603815 
L 384.483758 74.115288 
L 384.483758 75.144546 
L 384.716108 74.115288 
L 385.417624 72.574557 
L 385.185275 73.086029 
L 384.483758 74.115288 
L 384.483758 75.144546 
L 384.716108 76.16749 
L 384.948457 76.685277 
L 384.948457 76.685277 
L 385.417624 76.685277 
L 385.882323 77.708221 
L 385.882323 77.708221 
L 385.882323 76.16749 
L 385.417624 75.656018 
L 384.948457 75.656018 
L 385.649973 74.115288 
L 385.649973 74.62676 
L 385.417624 76.16749 
L 385.882323 78.226008 
L 385.882323 78.73748 
L 386.11914 77.196749 
L 385.882323 76.16749 
L 385.417624 75.656018 
L 384.716108 75.144546 
L 384.483758 73.603815 
L 384.251409 74.115288 
L 384.716108 76.685277 
L 385.185275 76.685277 
L 385.649973 76.16749 
L 385.649973 75.656018 
L 385.417624 75.144546 
L 384.948457 74.62676 
L 384.716108 74.115288 
L 384.716108 74.115288 
L 385.185275 75.656018 
L 385.185275 76.685277 
L 385.649973 78.73748 
L 384.716108 78.73748 
L 384.483758 79.248952 
L 384.483758 79.248952 
L 384.483758 78.226008 
L 384.251409 77.708221 
L 384.483758 77.708221 
L 384.251409 77.708221 
L 384.251409 78.73748 
L 384.014591 78.226008 
L 383.549893 77.708221 
L 383.317544 77.708221 
L 383.317544 78.73748 
L 383.782242 79.766739 
L 384.014591 79.766739 
L 383.549893 79.766739 
L 383.317544 78.73748 
L 383.317544 77.708221 
L 383.080726 77.196749 
L 382.383678 77.196749 
L 382.383678 78.226008 
L 382.848377 80.278211 
L 383.317544 80.795997 
L 383.549893 80.278211 
L 383.782242 80.278211 
L 383.549893 80.795997 
L 383.080726 80.795997 
L 383.080726 79.766739 
L 383.080726 80.278211 
L 382.848377 81.30747 
L 382.616027 80.795997 
L 382.848377 79.248952 
L 383.080726 78.73748 
L 383.317544 79.766739 
L 383.317544 80.278211 
L 383.080726 81.30747 
L 382.848377 81.30747 
L 382.848377 80.278211 
L 383.080726 79.766739 
L 383.782242 81.818942 
L 383.782242 81.818942 
L 383.317544 81.30747 
L 382.848377 81.818942 
L 382.616027 81.30747 
L 382.616027 80.278211 
L 382.383678 80.795997 
L 382.616027 81.30747 
L 382.616027 79.766739 
L 382.848377 79.248952 
L 383.080726 79.766739 
L 382.848377 80.278211 
L 382.616027 81.30747 
L 382.616027 81.818942 
L 382.616027 81.818942 
L 382.151329 80.795997 
L 381.682162 80.278211 
L 381.449813 80.278211 
L 381.682162 80.278211 
L 382.151329 79.766739 
L 382.848377 79.248952 
L 383.549893 78.226008 
L 383.782242 78.226008 
L 383.782242 78.73748 
L 383.549893 79.766739 
L 382.383678 82.336728 
L 382.616027 82.8482 
L 383.080726 82.8482 
L 383.317544 83.877459 
L 383.317544 84.900403 
L 382.848377 84.388931 
L 382.151329 83.359673 
L 382.151329 82.8482 
L 383.549893 83.877459 
L 383.782242 83.359673 
L 384.251409 82.8482 
L 384.251409 81.818942 
L 384.014591 82.336728 
L 383.317544 82.8482 
L 382.848377 82.8482 
L 382.848377 82.336728 
L 382.848377 82.336728 
L 383.080726 81.818942 
L 383.317544 82.336728 
L 382.848377 83.877459 
L 382.151329 85.41819 
L 381.914511 86.441134 
L 382.383678 86.958921 
L 382.383678 86.441134 
L 381.914511 85.929662 
L 381.914511 85.929662 
L 381.682162 86.441134 
L 380.980646 86.441134 
L 380.748296 85.929662 
L 380.980646 85.41819 
L 380.980646 85.929662 
L 381.449813 86.958921 
L 381.449813 87.470393 
L 381.449813 87.470393 
L 381.682162 86.441134 
L 382.151329 86.441134 
L 382.151329 87.470393 
L 381.914511 87.981865 
L 381.217463 88.499652 
L 381.914511 87.981865 
L 382.848377 87.470393 
L 383.549893 86.441134 
L 383.782242 86.441134 
L 384.014591 86.958921 
L 384.948457 86.958921 
L 385.882323 87.981865 
L 386.816188 89.522596 
L 387.517704 91.063327 
L 388.21922 91.581113 
L 389.153086 91.063327 
L 390.319301 93.121844 
L 391.016349 95.685519 
L 391.717865 97.744037 
L 392.88408 99.284768 
L 393.817945 101.336971 
L 395.220978 106.47695 
L 395.918026 108.529153 
L 396.154843 110.069883 
L 396.154843 111.610614 
L 396.387192 113.662817 
L 395.918026 116.744279 
L 394.98416 119.825741 
L 394.519461 121.884258 
L 394.287112 123.936461 
L 393.585596 126.506451 
L 393.353247 128.558654 
L 393.585596 130.099384 
L 393.120897 131.128643 
L 392.419381 131.128643 
L 391.950214 132.157902 
L 393.120897 134.721577 
L 392.88408 135.750836 
L 391.253166 137.803039 
L 391.717865 138.832297 
L 391.717865 141.913759 
L 391.950214 142.943018 
L 391.950214 143.45449 
L 392.419381 142.425231 
L 392.88408 142.943018 
L 393.353247 143.965962 
L 393.817945 143.965962 
L 393.585596 144.995221 
L 393.585596 145.506693 
L 393.817945 143.965962 
L 393.585596 143.45449 
L 392.65173 144.995221 
L 391.717865 147.56521 
L 391.717865 149.105941 
L 391.950214 149.617413 
L 391.950214 150.128885 
L 392.187032 150.646672 
L 392.187032 151.158144 
L 391.717865 151.158144 
L 391.717865 152.187403 
L 391.253166 153.216662 
L 391.253166 153.728134 
L 391.717865 153.728134 
L 392.187032 153.216662 
L 392.187032 152.698875 
L 392.419381 152.187403 
L 392.65173 151.158144 
L 392.419381 151.158144 
L 392.419381 152.187403 
L 391.950214 153.216662 
L 391.485516 153.728134 
L 391.717865 153.216662 
L 392.419381 153.728134 
L 392.419381 154.239606 
L 391.950214 154.757392 
L 391.950214 155.268864 
L 391.950214 154.239606 
L 391.485516 153.216662 
L 391.253166 153.728134 
L 391.485516 155.268864 
L 392.65173 156.809595 
L 391.717865 156.809595 
L 391.950214 156.809595 
L 392.419381 156.298123 
L 392.419381 155.268864 
L 392.65173 154.757392 
L 392.419381 154.239606 
L 392.419381 155.268864 
L 392.187032 156.298123 
L 392.187032 156.809595 
L 392.187032 155.780337 
L 392.419381 155.268864 
L 392.419381 154.757392 
L 393.120897 154.757392 
L 393.120897 156.809595 
L 392.88408 158.350326 
L 392.419381 158.350326 
L 392.419381 157.838854 
L 392.187032 156.809595 
L 391.950214 156.298123 
L 391.717865 156.809595 
L 391.717865 157.838854 
L 391.717865 157.321067 
L 392.419381 157.321067 
L 392.88408 158.861798 
L 392.65173 159.379585 
L 392.187032 157.321067 
L 392.65173 158.350326 
L 393.120897 158.350326 
L 393.120897 157.838854 
L 392.88408 157.838854 
L 393.120897 157.838854 
L 393.353247 157.321067 
L 393.120897 157.321067 
L 392.88408 158.350326 
L 392.419381 158.350326 
L 392.419381 158.350326 
L 392.419381 158.861798 
L 392.419381 158.861798 
L 392.65173 159.379585 
L 392.65173 159.379585 
L 392.419381 159.891057 
L 392.88408 158.861798 
L 392.88408 157.838854 
L 392.65173 157.321067 
L 392.187032 157.838854 
L 391.253166 160.920316 
L 391.253166 161.431788 
L 391.485516 161.431788 
L 391.717865 160.920316 
L 392.187032 160.920316 
L 391.950214 160.920316 
L 392.65173 161.431788 
L 393.120897 161.94326 
L 393.120897 160.920316 
L 392.65173 159.891057 
L 392.65173 158.861798 
L 392.88408 158.861798 
L 393.353247 159.379585 
L 393.585596 159.891057 
L 393.817945 159.379585 
L 393.585596 158.861798 
L 393.120897 160.402529 
L 393.120897 161.94326 
L 393.353247 161.431788 
L 393.353247 160.920316 
L 393.353247 160.920316 
L 393.585596 160.920316 
L 393.120897 159.379585 
L 392.65173 158.861798 
L 392.65173 159.891057 
L 393.353247 160.402529 
L 394.98416 161.431788 
L 394.519461 161.94326 
L 393.817945 161.94326 
L 392.88408 160.920316 
L 392.187032 159.891057 
L 391.485516 159.379585 
L 391.485516 159.891057 
L 392.187032 160.920316 
L 393.120897 160.920316 
L 393.120897 160.920316 
L 392.88408 161.431788 
L 392.65173 162.461047 
L 393.120897 162.972519 
L 394.287112 162.972519 
L 393.817945 161.94326 
L 393.120897 162.461047 
L 392.65173 162.972519 
L 391.950214 162.461047 
L 391.950214 161.94326 
L 392.419381 162.972519 
L 392.65173 162.972519 
L 392.187032 162.461047 
L 391.950214 161.431788 
L 391.717865 162.461047 
L 391.485516 164.001777 
L 391.485516 164.001777 
L 392.187032 162.461047 
L 392.65173 162.461047 
L 392.65173 162.972519 
L 392.419381 162.461047 
L 391.950214 161.94326 
L 392.65173 163.483991 
L 393.120897 163.483991 
L 391.950214 163.483991 
L 391.485516 164.001777 
L 391.950214 164.51325 
L 392.187032 165.024722 
L 392.187032 166.05398 
L 392.419381 166.565452 
L 392.88408 166.05398 
L 393.353247 166.05398 
L 393.120897 165.542508 
L 392.419381 165.542508 
L 393.120897 165.542508 
L 393.585596 166.05398 
L 393.120897 168.62397 
L 392.65173 167.594711 
L 392.419381 166.05398 
L 392.419381 165.024722 
L 392.65173 164.001777 
L 392.65173 164.001777 
L 392.88408 164.001777 
L 392.88408 166.565452 
L 392.88408 166.565452 
L 392.419381 166.565452 
L 392.187032 167.083239 
L 392.65173 168.106183 
L 392.88408 168.106183 
L 392.88408 166.565452 
L 392.65173 167.594711 
L 391.950214 169.646914 
L 392.419381 168.106183 
L 391.950214 170.676173 
L 391.253166 170.676173 
L 392.187032 168.62397 
L 391.717865 168.62397 
L 391.016349 169.646914 
L 390.783999 169.646914 
L 391.253166 169.135442 
L 391.717865 169.135442 
L 392.419381 170.676173 
L 392.65173 170.676173 
L 392.419381 171.705432 
L 392.187032 171.705432 
L 391.950214 170.676173 
L 391.485516 170.676173 
L 391.016349 171.187645 
L 390.783999 170.164701 
L 390.783999 169.646914 
L 391.717865 170.676173 
L 392.187032 170.676173 
L 392.187032 172.216904 
L 392.187032 172.216904 
L 391.950214 171.187645 
L 391.717865 168.62397 
L 391.950214 170.164701 
L 391.950214 171.705432 
L 392.187032 172.216904 
L 391.950214 172.728376 
L 391.717865 172.728376 
L 391.485516 172.216904 
L 391.950214 172.216904 
L 392.187032 171.705432 
L 392.419381 171.705432 
L 392.419381 171.705432 
L 392.419381 173.757635 
L 392.419381 173.757635 
L 391.950214 173.757635 
L 391.485516 173.246162 
L 391.485516 171.187645 
L 391.717865 170.164701 
L 391.950214 170.164701 
L 392.187032 171.187645 
L 392.187032 173.246162 
L 391.485516 173.246162 
L 390.319301 171.705432 
L 389.385435 170.676173 
L 386.11914 170.676173 
L 384.251409 169.646914 
L 381.682162 165.024722 
L 380.04678 165.024722 
L 378.415867 166.05398 
L 377.012834 167.083239 
L 374.680405 168.106183 
L 371.646459 168.62397 
L 368.612513 168.106183 
L 366.280083 166.565452 
L 364.412352 164.51325 
L 362.544621 164.001777 
L 360.444541 164.51325 
L 357.642945 164.51325 
L 354.841348 164.001777 
L 352.276569 162.972519 
L 346.673376 161.94326 
L 343.871779 160.402529 
L 341.53935 159.379585 
L 335.471458 157.838854 
L 334.068426 157.321067 
L 333.371378 157.838854 
L 332.437512 158.350326 
L 329.868265 159.379585 
L 327.768185 160.920316 
L 327.299018 162.972519 
L 326.369621 166.05398 
L 325.900454 169.135442 
L 326.132803 170.676173 
L 326.834319 171.187645 
L 327.299018 172.216904 
L 327.299018 184.031278 
L 327.768185 185.572009 
L 328.232883 186.601268 
L 327.768185 188.141999 
L 328.000534 189.68273 
L 328.9344 191.22346 
L 329.868265 194.816394 
L 329.635916 198.409328 
L 329.403566 199.438587 
L 329.868265 199.438587 
L 330.337432 200.467845 
L 330.100614 202.008576 
L 329.635916 203.037835 
L 329.635916 202.008576 
L 330.337432 202.008576 
L 330.337432 203.549307 
L 329.403566 207.142241 
L 328.9344 208.1715 
L 328.70205 209.200758 
L 329.166749 209.712231 
L 329.166749 210.223703 
L 328.70205 210.741489 
L 328.469701 211.252961 
L 328.70205 212.28222 
L 328.9344 213.822951 
L 328.9344 215.363682 
L 328.469701 216.386626 
L 328.469701 216.904413 
L 328.469701 216.904413 
L 328.70205 217.927357 
L 328.70205 218.445143 
L 328.9344 218.956616 
L 329.635916 219.468088 
L 330.100614 219.468088 
L 330.569781 218.956616 
L 330.100614 218.956616 
L 329.166749 219.468088 
L 328.70205 219.985874 
L 328.469701 219.985874 
L 328.469701 219.468088 
L 328.9344 218.445143 
L 329.166749 217.415885 
L 329.403566 217.927357 
L 329.635916 218.956616 
L 330.337432 219.468088 
L 330.802131 218.445143 
L 329.403566 218.445143 
L 329.635916 219.468088 
L 330.337432 221.008819 
L 330.337432 222.549549 
L 329.868265 223.578808 
L 329.403566 224.09028 
L 328.70205 225.119539 
L 328.70205 226.148798 
L 329.166749 226.66027 
L 329.635916 226.66027 
L 329.868265 226.148798 
L 329.403566 225.119539 
L 329.403566 224.608067 
L 329.403566 225.119539 
L 329.635916 225.631011 
L 329.868265 225.631011 
L 328.9344 225.631011 
L 328.9344 225.631011 
L 329.403566 223.578808 
L 329.635916 223.578808 
L 329.635916 228.718787 
L 330.100614 229.230259 
L 330.802131 228.201001 
L 330.802131 227.689529 
L 330.100614 228.201001 
L 329.403566 229.741731 
L 329.403566 229.230259 
L 329.868265 227.689529 
L 329.868265 226.66027 
L 329.403566 228.201001 
L 329.403566 229.230259 
L 329.868265 229.741731 
L 330.100614 229.741731 
L 329.635916 229.230259 
L 329.635916 229.230259 
L 329.868265 229.741731 
L 330.100614 229.230259 
L 329.868265 229.230259 
L 329.868265 229.741731 
L 330.337432 229.741731 
L 330.337432 229.741731 
L 330.337432 231.282462 
L 330.569781 231.800249 
L 330.100614 230.77099 
L 330.337432 229.741731 
L 330.337432 228.718787 
L 330.100614 229.230259 
L 329.868265 230.259518 
L 329.868265 231.800249 
L 330.100614 231.800249 
L 330.100614 230.77099 
L 329.868265 229.230259 
L 329.868265 228.201001 
L 329.635916 228.201001 
L 329.403566 228.718787 
L 329.403566 229.230259 
L 330.569781 230.77099 
L 331.03448 230.259518 
L 330.802131 229.230259 
L 329.868265 228.201001 
L 329.166749 228.201001 
L 329.166749 228.718787 
L 329.635916 228.718787 
L 329.868265 228.201001 
L 329.868265 227.689529 
L 330.100614 228.201001 
L 330.337432 229.230259 
L 330.100614 229.230259 
L 329.868265 228.201001 
L 329.403566 227.689529 
L 329.166749 228.718787 
L 329.403566 229.741731 
L 329.868265 230.259518 
L 330.100614 230.77099 
L 330.569781 232.823193 
L 331.03448 233.852452 
L 330.802131 233.34098 
L 329.868265 232.311721 
L 329.403566 231.282462 
L 329.635916 230.77099 
L 329.635916 230.259518 
L 329.166749 230.259518 
L 329.868265 230.259518 
L 330.100614 230.77099 
L 330.100614 231.282462 
L 330.569781 232.311721 
L 330.337432 231.800249 
L 329.635916 228.718787 
L 329.868265 229.741731 
L 329.403566 232.823193 
L 329.868265 232.823193 
L 330.569781 232.311721 
L 330.569781 231.282462 
L 330.337432 230.77099 
L 329.868265 231.282462 
L 329.635916 231.800249 
L 329.868265 231.800249 
L 330.337432 231.282462 
L 329.868265 230.259518 
L 330.100614 229.230259 
L 330.100614 229.230259 
L 329.635916 229.741731 
L 329.403566 230.77099 
L 329.403566 231.282462 
L 330.337432 231.282462 
L 330.569781 230.77099 
L 330.569781 229.230259 
L 330.569781 231.282462 
L 330.337432 232.311721 
L 330.100614 231.800249 
L 330.337432 229.741731 
L 329.635916 231.282462 
L 329.166749 231.800249 
L 328.9344 231.282462 
L 328.9344 231.282462 
L 329.166749 232.311721 
L 329.635916 233.34098 
L 329.868265 233.34098 
L 330.100614 232.823193 
L 330.100614 232.311721 
L 329.868265 233.852452 
L 329.868265 235.904655 
L 330.100614 235.904655 
L 330.337432 234.881711 
L 330.569781 233.34098 
L 330.100614 232.311721 
L 329.868265 231.282462 
L 329.868265 230.77099 
L 330.100614 231.282462 
L 330.569781 231.282462 
L 330.569781 231.800249 
L 330.802131 231.800249 
L 331.03448 231.282462 
L 330.802131 230.77099 
L 330.802131 230.77099 
L 331.03448 230.259518 
L 331.266829 231.282462 
L 331.03448 232.311721 
L 330.569781 232.311721 
L 330.569781 231.800249 
L 331.03448 231.800249 
L 331.03448 232.311721 
L 330.802131 232.823193 
L 330.802131 232.823193 
L 330.802131 233.34098 
L 331.03448 233.34098 
L 331.03448 232.823193 
L 330.802131 232.311721 
L 330.100614 233.852452 
L 330.100614 235.393183 
L 329.868265 235.393183 
L 330.802131 235.393183 
L 330.569781 235.393183 
L 330.337432 235.904655 
L 330.337432 238.986117 
L 330.337432 236.933914 
L 330.802131 233.852452 
L 331.503647 233.34098 
L 331.735996 233.34098 
L 330.569781 235.904655 
L 331.03448 234.881711 
L 331.503647 234.363924 
L 331.735996 233.852452 
L 331.503647 233.852452 
L 331.03448 234.881711 
L 331.266829 235.393183 
L 332.200695 235.393183 
L 332.669862 235.904655 
L 332.902211 236.933914 
L 332.669862 237.445386 
L 332.437512 236.933914 
L 332.437512 235.904655 
L 333.371378 234.881711 
L 331.968345 236.422441 
L 331.968345 235.904655 
L 332.437512 236.422441 
L 333.13456 236.933914 
L 333.371378 235.904655 
L 333.371378 234.881711 
L 333.371378 235.393183 
L 332.902211 234.881711 
L 332.902211 233.852452 
L 333.13456 232.823193 
L 333.603727 232.311721 
L 333.836076 232.823193 
L 333.603727 233.852452 
L 332.669862 233.852452 
L 331.968345 234.363924 
L 331.503647 234.363924 
L 331.266829 233.852452 
L 331.735996 233.34098 
L 331.968345 232.823193 
L 331.266829 232.823193 
L 331.735996 232.311721 
L 332.437512 232.311721 
L 332.669862 232.823193 
L 331.968345 232.823193 
L 331.503647 231.800249 
L 331.503647 228.718787 
L 331.266829 227.689529 
L 331.735996 227.689529 
L 332.669862 228.201001 
L 333.603727 229.230259 
L 333.836076 230.259518 
L 333.603727 229.741731 
L 333.371378 228.718787 
L 333.836076 227.689529 
L 333.836076 227.178056 
L 332.902211 227.178056 
L 332.437512 226.148798 
L 333.13456 225.119539 
L 334.305243 223.067336 
L 335.002291 221.008819 
L 335.471458 218.445143 
L 336.405324 215.875154 
L 337.803888 209.200758 
L 337.571538 205.60151 
L 337.102372 202.008576 
L 337.803888 198.409328 
L 339.43927 194.816394 
L 340.373135 190.194202 
L 341.070183 185.060537 
L 341.53935 179.409086 
L 342.236398 174.269107 
L 342.473215 168.62397 
L 342.236398 162.972519 
L 342.705565 154.757392 
L 342.705565 150.646672 
L 343.170263 144.483749 
L 343.871779 142.943018 
L 344.573296 135.750836 
L 345.037994 134.210105 
L 345.037994 131.128643 
L 345.274812 130.099384 
L 345.274812 130.099384 
L 345.73951 133.698633 
L 345.73951 135.750836 
L 345.507161 137.291567 
L 345.274812 137.803039 
L 345.507161 138.320825 
L 345.507161 143.965962 
L 345.73951 144.995221 
L 345.97186 144.995221 
L 345.97186 144.995221 
L 345.97186 146.024479 
L 345.507161 146.024479 
L 345.274812 145.506693 
L 345.73951 144.483749 
L 346.204209 143.965962 
L 347.138075 141.913759 
L 348.07194 141.913759 
L 347.839591 141.402287 
L 346.441027 140.373028 
L 346.905725 139.343769 
L 347.839591 138.320825 
L 348.308758 136.780094 
L 348.07194 136.262308 
L 347.839591 136.262308 
L 347.839591 137.291567 
L 348.07194 137.803039 
L 348.07194 137.803039 
L 347.839591 137.803039 
L 347.839591 137.803039 
L 347.839591 137.291567 
L 348.308758 135.239364 
L 348.308758 135.239364 
L 348.07194 135.239364 
L 348.07194 137.291567 
L 348.541107 137.291567 
L 348.773456 136.780094 
L 348.773456 136.780094 
L 348.308758 137.291567 
L 348.541107 137.803039 
L 349.005806 137.803039 
L 349.242623 136.780094 
L 349.242623 135.239364 
L 349.005806 134.210105 
L 349.005806 133.698633 
L 349.242623 134.721577 
L 348.308758 136.780094 
L 348.308758 136.262308 
L 348.07194 134.721577 
L 347.607241 133.180846 
L 347.374892 134.210105 
L 347.839591 136.262308 
L 348.07194 136.262308 
L 348.308758 135.750836 
L 348.541107 135.750836 
L 349.005806 136.262308 
L 348.773456 136.780094 
L 348.308758 136.780094 
L 347.607241 135.239364 
L 347.138075 133.180846 
L 347.374892 132.157902 
L 347.607241 133.180846 
L 347.607241 135.239364 
L 347.839591 136.780094 
L 347.607241 137.803039 
L 347.374892 137.803039 
L 347.138075 136.262308 
L 347.607241 134.721577 
L 348.07194 134.210105 
L 348.308758 135.239364 
L 348.773456 136.262308 
L 349.005806 136.262308 
L 348.773456 136.262308 
L 348.308758 135.239364 
L 348.308758 134.210105 
L 349.242623 132.157902 
L 349.005806 131.640115 
L 348.773456 131.640115 
L 348.308758 133.180846 
L 348.07194 135.750836 
L 348.07194 135.750836 
L 348.07194 134.210105 
L 348.541107 133.698633 
L 348.541107 134.721577 
L 348.308758 134.210105 
L 348.07194 133.180846 
L 347.607241 133.180846 
L 347.138075 133.698633 
L 347.138075 134.210105 
L 347.138075 134.210105 
" style="fill:none;stroke:#1f77b4;stroke-linecap:square;stroke-width:1.5;"/>
   </g>
   <g id="matplotlib.axis_1">
    <g id="xtick_1">
     <g id="line2d_2">
      <defs>
       <path d="M 0 0 
L 0 3.5 
" id="m64b051c995" style="stroke:#000000;stroke-width:0.8;"/>
      </defs>
      <g>
       <use style="stroke:#000000;stroke-width:0.8;" x="67.005232" xlink:href="#m64b051c995" y="307.584"/>
      </g>
     </g>
     <g id="text_1">
      <!-- −800 -->
      <defs>
       <path d="M 10.59375 35.5 
L 73.1875 35.5 
L 73.1875 27.203125 
L 10.59375 27.203125 
z
" id="DejaVuSans-8722"/>
       <path d="M 31.78125 34.625 
Q 24.75 34.625 20.71875 30.859375 
Q 16.703125 27.09375 16.703125 20.515625 
Q 16.703125 13.921875 20.71875 10.15625 
Q 24.75 6.390625 31.78125 6.390625 
Q 38.8125 6.390625 42.859375 10.171875 
Q 46.921875 13.96875 46.921875 20.515625 
Q 46.921875 27.09375 42.890625 30.859375 
Q 38.875 34.625 31.78125 34.625 
z
M 21.921875 38.8125 
Q 15.578125 40.375 12.03125 44.71875 
Q 8.5 49.078125 8.5 55.328125 
Q 8.5 64.0625 14.71875 69.140625 
Q 20.953125 74.21875 31.78125 74.21875 
Q 42.671875 74.21875 48.875 69.140625 
Q 55.078125 64.0625 55.078125 55.328125 
Q 55.078125 49.078125 51.53125 44.71875 
Q 48 40.375 41.703125 38.8125 
Q 48.828125 37.15625 52.796875 32.3125 
Q 56.78125 27.484375 56.78125 20.515625 
Q 56.78125 9.90625 50.3125 4.234375 
Q 43.84375 -1.421875 31.78125 -1.421875 
Q 19.734375 -1.421875 13.25 4.234375 
Q 6.78125 9.90625 6.78125 20.515625 
Q 6.78125 27.484375 10.78125 32.3125 
Q 14.796875 37.15625 21.921875 38.8125 
z
M 18.3125 54.390625 
Q 18.3125 48.734375 21.84375 45.5625 
Q 25.390625 42.390625 31.78125 42.390625 
Q 38.140625 42.390625 41.71875 45.5625 
Q 45.3125 48.734375 45.3125 54.390625 
Q 45.3125 60.0625 41.71875 63.234375 
Q 38.140625 66.40625 31.78125 66.40625 
Q 25.390625 66.40625 21.84375 63.234375 
Q 18.3125 60.0625 18.3125 54.390625 
z
" id="DejaVuSans-56"/>
       <path d="M 31.78125 66.40625 
Q 24.171875 66.40625 20.328125 58.90625 
Q 16.5 51.421875 16.5 36.375 
Q 16.5 21.390625 20.328125 13.890625 
Q 24.171875 6.390625 31.78125 6.390625 
Q 39.453125 6.390625 43.28125 13.890625 
Q 47.125 21.390625 47.125 36.375 
Q 47.125 51.421875 43.28125 58.90625 
Q 39.453125 66.40625 31.78125 66.40625 
z
M 31.78125 74.21875 
Q 44.046875 74.21875 50.515625 64.515625 
Q 56.984375 54.828125 56.984375 36.375 
Q 56.984375 17.96875 50.515625 8.265625 
Q 44.046875 -1.421875 31.78125 -1.421875 
Q 19.53125 -1.421875 13.0625 8.265625 
Q 6.59375 17.96875 6.59375 36.375 
Q 6.59375 54.828125 13.0625 64.515625 
Q 19.53125 74.21875 31.78125 74.21875 
z
" id="DejaVuSans-48"/>
      </defs>
      <g transform="translate(53.271638 322.182437)scale(0.1 -0.1)">
       <use xlink:href="#DejaVuSans-8722"/>
       <use x="83.789062" xlink:href="#DejaVuSans-56"/>
       <use x="147.412109" xlink:href="#DejaVuSans-48"/>
       <use x="211.035156" xlink:href="#DejaVuSans-48"/>
      </g>
     </g>
    </g>
    <g id="xtick_2">
     <g id="line2d_3">
      <g>
       <use style="stroke:#000000;stroke-width:0.8;" x="111.687792" xlink:href="#m64b051c995" y="307.584"/>
      </g>
     </g>
     <g id="text_2">
      <!-- −700 -->
      <defs>
       <path d="M 8.203125 72.90625 
L 55.078125 72.90625 
L 55.078125 68.703125 
L 28.609375 0 
L 18.3125 0 
L 43.21875 64.59375 
L 8.203125 64.59375 
z
" id="DejaVuSans-55"/>
      </defs>
      <g transform="translate(97.954198 322.182437)scale(0.1 -0.1)">
       <use xlink:href="#DejaVuSans-8722"/>
       <use x="83.789062" xlink:href="#DejaVuSans-55"/>
       <use x="147.412109" xlink:href="#DejaVuSans-48"/>
       <use x="211.035156" xlink:href="#DejaVuSans-48"/>
      </g>
     </g>
    </g>
    <g id="xtick_3">
     <g id="line2d_4">
      <g>
       <use style="stroke:#000000;stroke-width:0.8;" x="156.370352" xlink:href="#m64b051c995" y="307.584"/>
      </g>
     </g>
     <g id="text_3">
      <!-- −600 -->
      <defs>
       <path d="M 33.015625 40.375 
Q 26.375 40.375 22.484375 35.828125 
Q 18.609375 31.296875 18.609375 23.390625 
Q 18.609375 15.53125 22.484375 10.953125 
Q 26.375 6.390625 33.015625 6.390625 
Q 39.65625 6.390625 43.53125 10.953125 
Q 47.40625 15.53125 47.40625 23.390625 
Q 47.40625 31.296875 43.53125 35.828125 
Q 39.65625 40.375 33.015625 40.375 
z
M 52.59375 71.296875 
L 52.59375 62.3125 
Q 48.875 64.0625 45.09375 64.984375 
Q 41.3125 65.921875 37.59375 65.921875 
Q 27.828125 65.921875 22.671875 59.328125 
Q 17.53125 52.734375 16.796875 39.40625 
Q 19.671875 43.65625 24.015625 45.921875 
Q 28.375 48.1875 33.59375 48.1875 
Q 44.578125 48.1875 50.953125 41.515625 
Q 57.328125 34.859375 57.328125 23.390625 
Q 57.328125 12.15625 50.6875 5.359375 
Q 44.046875 -1.421875 33.015625 -1.421875 
Q 20.359375 -1.421875 13.671875 8.265625 
Q 6.984375 17.96875 6.984375 36.375 
Q 6.984375 53.65625 15.1875 63.9375 
Q 23.390625 74.21875 37.203125 74.21875 
Q 40.921875 74.21875 44.703125 73.484375 
Q 48.484375 72.75 52.59375 71.296875 
z
" id="DejaVuSans-54"/>
      </defs>
      <g transform="translate(142.636759 322.182437)scale(0.1 -0.1)">
       <use xlink:href="#DejaVuSans-8722"/>
       <use x="83.789062" xlink:href="#DejaVuSans-54"/>
       <use x="147.412109" xlink:href="#DejaVuSans-48"/>
       <use x="211.035156" xlink:href="#DejaVuSans-48"/>
      </g>
     </g>
    </g>
    <g id="xtick_4">
     <g id="line2d_5">
      <g>
       <use style="stroke:#000000;stroke-width:0.8;" x="201.052912" xlink:href="#m64b051c995" y="307.584"/>
      </g>
     </g>
     <g id="text_4">
      <!-- −500 -->
      <defs>
       <path d="M 10.796875 72.90625 
L 49.515625 72.90625 
L 49.515625 64.59375 
L 19.828125 64.59375 
L 19.828125 46.734375 
Q 21.96875 47.46875 24.109375 47.828125 
Q 26.265625 48.1875 28.421875 48.1875 
Q 40.625 48.1875 47.75 41.5 
Q 54.890625 34.8125 54.890625 23.390625 
Q 54.890625 11.625 47.5625 5.09375 
Q 40.234375 -1.421875 26.90625 -1.421875 
Q 22.3125 -1.421875 17.546875 -0.640625 
Q 12.796875 0.140625 7.71875 1.703125 
L 7.71875 11.625 
Q 12.109375 9.234375 16.796875 8.0625 
Q 21.484375 6.890625 26.703125 6.890625 
Q 35.15625 6.890625 40.078125 11.328125 
Q 45.015625 15.765625 45.015625 23.390625 
Q 45.015625 31 40.078125 35.4375 
Q 35.15625 39.890625 26.703125 39.890625 
Q 22.75 39.890625 18.8125 39.015625 
Q 14.890625 38.140625 10.796875 36.28125 
z
" id="DejaVuSans-53"/>
      </defs>
      <g transform="translate(187.319319 322.182437)scale(0.1 -0.1)">
       <use xlink:href="#DejaVuSans-8722"/>
       <use x="83.789062" xlink:href="#DejaVuSans-53"/>
       <use x="147.412109" xlink:href="#DejaVuSans-48"/>
       <use x="211.035156" xlink:href="#DejaVuSans-48"/>
      </g>
     </g>
    </g>
    <g id="xtick_5">
     <g id="line2d_6">
      <g>
       <use style="stroke:#000000;stroke-width:0.8;" x="245.735473" xlink:href="#m64b051c995" y="307.584"/>
      </g>
     </g>
     <g id="text_5">
      <!-- −400 -->
      <defs>
       <path d="M 37.796875 64.3125 
L 12.890625 25.390625 
L 37.796875 25.390625 
z
M 35.203125 72.90625 
L 47.609375 72.90625 
L 47.609375 25.390625 
L 58.015625 25.390625 
L 58.015625 17.1875 
L 47.609375 17.1875 
L 47.609375 0 
L 37.796875 0 
L 37.796875 17.1875 
L 4.890625 17.1875 
L 4.890625 26.703125 
z
" id="DejaVuSans-52"/>
      </defs>
      <g transform="translate(232.001879 322.182437)scale(0.1 -0.1)">
       <use xlink:href="#DejaVuSans-8722"/>
       <use x="83.789062" xlink:href="#DejaVuSans-52"/>
       <use x="147.412109" xlink:href="#DejaVuSans-48"/>
       <use x="211.035156" xlink:href="#DejaVuSans-48"/>
      </g>
     </g>
    </g>
    <g id="xtick_6">
     <g id="line2d_7">
      <g>
       <use style="stroke:#000000;stroke-width:0.8;" x="290.418033" xlink:href="#m64b051c995" y="307.584"/>
      </g>
     </g>
     <g id="text_6">
      <!-- −300 -->
      <defs>
       <path d="M 40.578125 39.3125 
Q 47.65625 37.796875 51.625 33 
Q 55.609375 28.21875 55.609375 21.1875 
Q 55.609375 10.40625 48.1875 4.484375 
Q 40.765625 -1.421875 27.09375 -1.421875 
Q 22.515625 -1.421875 17.65625 -0.515625 
Q 12.796875 0.390625 7.625 2.203125 
L 7.625 11.71875 
Q 11.71875 9.328125 16.59375 8.109375 
Q 21.484375 6.890625 26.8125 6.890625 
Q 36.078125 6.890625 40.9375 10.546875 
Q 45.796875 14.203125 45.796875 21.1875 
Q 45.796875 27.640625 41.28125 31.265625 
Q 36.765625 34.90625 28.71875 34.90625 
L 20.21875 34.90625 
L 20.21875 43.015625 
L 29.109375 43.015625 
Q 36.375 43.015625 40.234375 45.921875 
Q 44.09375 48.828125 44.09375 54.296875 
Q 44.09375 59.90625 40.109375 62.90625 
Q 36.140625 65.921875 28.71875 65.921875 
Q 24.65625 65.921875 20.015625 65.03125 
Q 15.375 64.15625 9.8125 62.3125 
L 9.8125 71.09375 
Q 15.4375 72.65625 20.34375 73.4375 
Q 25.25 74.21875 29.59375 74.21875 
Q 40.828125 74.21875 47.359375 69.109375 
Q 53.90625 64.015625 53.90625 55.328125 
Q 53.90625 49.265625 50.4375 45.09375 
Q 46.96875 40.921875 40.578125 39.3125 
z
" id="DejaVuSans-51"/>
      </defs>
      <g transform="translate(276.684439 322.182437)scale(0.1 -0.1)">
       <use xlink:href="#DejaVuSans-8722"/>
       <use x="83.789062" xlink:href="#DejaVuSans-51"/>
       <use x="147.412109" xlink:href="#DejaVuSans-48"/>
       <use x="211.035156" xlink:href="#DejaVuSans-48"/>
      </g>
     </g>
    </g>
    <g id="xtick_7">
     <g id="line2d_8">
      <g>
       <use style="stroke:#000000;stroke-width:0.8;" x="335.100593" xlink:href="#m64b051c995" y="307.584"/>
      </g>
     </g>
     <g id="text_7">
      <!-- −200 -->
      <defs>
       <path d="M 19.1875 8.296875 
L 53.609375 8.296875 
L 53.609375 0 
L 7.328125 0 
L 7.328125 8.296875 
Q 12.9375 14.109375 22.625 23.890625 
Q 32.328125 33.6875 34.8125 36.53125 
Q 39.546875 41.84375 41.421875 45.53125 
Q 43.3125 49.21875 43.3125 52.78125 
Q 43.3125 58.59375 39.234375 62.25 
Q 35.15625 65.921875 28.609375 65.921875 
Q 23.96875 65.921875 18.8125 64.3125 
Q 13.671875 62.703125 7.8125 59.421875 
L 7.8125 69.390625 
Q 13.765625 71.78125 18.9375 73 
Q 24.125 74.21875 28.421875 74.21875 
Q 39.75 74.21875 46.484375 68.546875 
Q 53.21875 62.890625 53.21875 53.421875 
Q 53.21875 48.921875 51.53125 44.890625 
Q 49.859375 40.875 45.40625 35.40625 
Q 44.1875 33.984375 37.640625 27.21875 
Q 31.109375 20.453125 19.1875 8.296875 
z
" id="DejaVuSans-50"/>
      </defs>
      <g transform="translate(321.366999 322.182437)scale(0.1 -0.1)">
       <use xlink:href="#DejaVuSans-8722"/>
       <use x="83.789062" xlink:href="#DejaVuSans-50"/>
       <use x="147.412109" xlink:href="#DejaVuSans-48"/>
       <use x="211.035156" xlink:href="#DejaVuSans-48"/>
      </g>
     </g>
    </g>
    <g id="xtick_8">
     <g id="line2d_9">
      <g>
       <use style="stroke:#000000;stroke-width:0.8;" x="379.783153" xlink:href="#m64b051c995" y="307.584"/>
      </g>
     </g>
     <g id="text_8">
      <!-- −100 -->
      <defs>
       <path d="M 12.40625 8.296875 
L 28.515625 8.296875 
L 28.515625 63.921875 
L 10.984375 60.40625 
L 10.984375 69.390625 
L 28.421875 72.90625 
L 38.28125 72.90625 
L 38.28125 8.296875 
L 54.390625 8.296875 
L 54.390625 0 
L 12.40625 0 
z
" id="DejaVuSans-49"/>
      </defs>
      <g transform="translate(366.049559 322.182437)scale(0.1 -0.1)">
       <use xlink:href="#DejaVuSans-8722"/>
       <use x="83.789062" xlink:href="#DejaVuSans-49"/>
       <use x="147.412109" xlink:href="#DejaVuSans-48"/>
       <use x="211.035156" xlink:href="#DejaVuSans-48"/>
      </g>
     </g>
    </g>
   </g>
   <g id="matplotlib.axis_2">
    <g id="ytick_1">
     <g id="line2d_10">
      <defs>
       <path d="M 0 0 
L -3.5 0 
" id="mb2676875a5" style="stroke:#000000;stroke-width:0.8;"/>
      </defs>
      <g>
       <use style="stroke:#000000;stroke-width:0.8;" x="57.6" xlink:href="#mb2676875a5" y="293.802036"/>
      </g>
     </g>
     <g id="text_9">
      <!-- −400 -->
      <g transform="translate(23.132812 297.601255)scale(0.1 -0.1)">
       <use xlink:href="#DejaVuSans-8722"/>
       <use x="83.789062" xlink:href="#DejaVuSans-52"/>
       <use x="147.412109" xlink:href="#DejaVuSans-48"/>
       <use x="211.035156" xlink:href="#DejaVuSans-48"/>
      </g>
     </g>
    </g>
    <g id="ytick_2">
     <g id="line2d_11">
      <g>
       <use style="stroke:#000000;stroke-width:0.8;" x="57.6" xlink:href="#mb2676875a5" y="262.229683"/>
      </g>
     </g>
     <g id="text_10">
      <!-- −350 -->
      <g transform="translate(23.132812 266.028902)scale(0.1 -0.1)">
       <use xlink:href="#DejaVuSans-8722"/>
       <use x="83.789062" xlink:href="#DejaVuSans-51"/>
       <use x="147.412109" xlink:href="#DejaVuSans-53"/>
       <use x="211.035156" xlink:href="#DejaVuSans-48"/>
      </g>
     </g>
    </g>
    <g id="ytick_3">
     <g id="line2d_12">
      <g>
       <use style="stroke:#000000;stroke-width:0.8;" x="57.6" xlink:href="#mb2676875a5" y="230.65733"/>
      </g>
     </g>
     <g id="text_11">
      <!-- −300 -->
      <g transform="translate(23.132812 234.456548)scale(0.1 -0.1)">
       <use xlink:href="#DejaVuSans-8722"/>
       <use x="83.789062" xlink:href="#DejaVuSans-51"/>
       <use x="147.412109" xlink:href="#DejaVuSans-48"/>
       <use x="211.035156" xlink:href="#DejaVuSans-48"/>
      </g>
     </g>
    </g>
    <g id="ytick_4">
     <g id="line2d_13">
      <g>
       <use style="stroke:#000000;stroke-width:0.8;" x="57.6" xlink:href="#mb2676875a5" y="199.084976"/>
      </g>
     </g>
     <g id="text_12">
      <!-- −250 -->
      <g transform="translate(23.132812 202.884195)scale(0.1 -0.1)">
       <use xlink:href="#DejaVuSans-8722"/>
       <use x="83.789062" xlink:href="#DejaVuSans-50"/>
       <use x="147.412109" xlink:href="#DejaVuSans-53"/>
       <use x="211.035156" xlink:href="#DejaVuSans-48"/>
      </g>
     </g>
    </g>
    <g id="ytick_5">
     <g id="line2d_14">
      <g>
       <use style="stroke:#000000;stroke-width:0.8;" x="57.6" xlink:href="#mb2676875a5" y="167.512623"/>
      </g>
     </g>
     <g id="text_13">
      <!-- −200 -->
      <g transform="translate(23.132812 171.311842)scale(0.1 -0.1)">
       <use xlink:href="#DejaVuSans-8722"/>
       <use x="83.789062" xlink:href="#DejaVuSans-50"/>
       <use x="147.412109" xlink:href="#DejaVuSans-48"/>
       <use x="211.035156" xlink:href="#DejaVuSans-48"/>
      </g>
     </g>
    </g>
    <g id="ytick_6">
     <g id="line2d_15">
      <g>
       <use style="stroke:#000000;stroke-width:0.8;" x="57.6" xlink:href="#mb2676875a5" y="135.94027"/>
      </g>
     </g>
     <g id="text_14">
      <!-- −150 -->
      <g transform="translate(23.132812 139.739489)scale(0.1 -0.1)">
       <use xlink:href="#DejaVuSans-8722"/>
       <use x="83.789062" xlink:href="#DejaVuSans-49"/>
       <use x="147.412109" xlink:href="#DejaVuSans-53"/>
       <use x="211.035156" xlink:href="#DejaVuSans-48"/>
      </g>
     </g>
    </g>
    <g id="ytick_7">
     <g id="line2d_16">
      <g>
       <use style="stroke:#000000;stroke-width:0.8;" x="57.6" xlink:href="#mb2676875a5" y="104.367916"/>
      </g>
     </g>
     <g id="text_15">
      <!-- −100 -->
      <g transform="translate(23.132812 108.167135)scale(0.1 -0.1)">
       <use xlink:href="#DejaVuSans-8722"/>
       <use x="83.789062" xlink:href="#DejaVuSans-49"/>
       <use x="147.412109" xlink:href="#DejaVuSans-48"/>
       <use x="211.035156" xlink:href="#DejaVuSans-48"/>
      </g>
     </g>
    </g>
    <g id="ytick_8">
     <g id="line2d_17">
      <g>
       <use style="stroke:#000000;stroke-width:0.8;" x="57.6" xlink:href="#mb2676875a5" y="72.795563"/>
      </g>
     </g>
     <g id="text_16">
      <!-- −50 -->
      <g transform="translate(29.495313 76.594782)scale(0.1 -0.1)">
       <use xlink:href="#DejaVuSans-8722"/>
       <use x="83.789062" xlink:href="#DejaVuSans-53"/>
       <use x="147.412109" xlink:href="#DejaVuSans-48"/>
      </g>
     </g>
    </g>
    <g id="ytick_9">
     <g id="line2d_18">
      <g>
       <use style="stroke:#000000;stroke-width:0.8;" x="57.6" xlink:href="#mb2676875a5" y="41.22321"/>
      </g>
     </g>
     <g id="text_17">
      <!-- 0 -->
      <g transform="translate(44.2375 45.022429)scale(0.1 -0.1)">
       <use xlink:href="#DejaVuSans-48"/>
      </g>
     </g>
    </g>
   </g>
   <g id="line2d_19">
    <path clip-path="url(#p1f153630ce)" d="M 78.121087 288.866217 
L 313.259381 271.531393 
L 385.472561 80.577599 
L 391.145317 160.486785 
L 329.746911 214.157859 
L 331.802467 228.727274 
L 347.32582 137.145887 
" style="fill:none;stroke:#ff0000;stroke-linecap:square;stroke-width:0.5;"/>
   </g>
   <g id="patch_3">
    <path d="M 57.6 307.584 
L 57.6 41.472 
" style="fill:none;stroke:#000000;stroke-linecap:square;stroke-linejoin:miter;stroke-width:0.8;"/>
   </g>
   <g id="patch_4">
    <path d="M 414.72 307.584 
L 414.72 41.472 
" style="fill:none;stroke:#000000;stroke-linecap:square;stroke-linejoin:miter;stroke-width:0.8;"/>
   </g>
   <g id="patch_5">
    <path d="M 57.6 307.584 
L 414.72 307.584 
" style="fill:none;stroke:#000000;stroke-linecap:square;stroke-linejoin:miter;stroke-width:0.8;"/>
   </g>
   <g id="patch_6">
    <path d="M 57.6 41.472 
L 414.72 41.472 
" style="fill:none;stroke:#000000;stroke-linecap:square;stroke-linejoin:miter;stroke-width:0.8;"/>
   </g>
   <g id="PathCollection_1">
    <defs>
     <path d="M 0 2.738613 
C 0.726289 2.738613 1.422928 2.450055 1.936492 1.936492 
C 2.450055 1.422928 2.738613 0.726289 2.738613 0 
C 2.738613 -0.726289 2.450055 -1.422928 1.936492 -1.936492 
C 1.422928 -2.450055 0.726289 -2.738613 0 -2.738613 
C -0.726289 -2.738613 -1.422928 -2.450055 -1.936492 -1.936492 
C -2.450055 -1.422928 -2.738613 -0.726289 -2.738613 0 
C -2.738613 0.726289 -2.450055 1.422928 -1.936492 1.936492 
C -1.422928 2.450055 -0.726289 2.738613 0 2.738613 
z
" id="m03c8c09a98" style="stroke:#ff0000;"/>
    </defs>
    <g clip-path="url(#p1f153630ce)">
     <use style="fill:#ff0000;stroke:#ff0000;" x="78.121087" xlink:href="#m03c8c09a98" y="288.866217"/>
     <use style="fill:#ff0000;stroke:#ff0000;" x="313.259381" xlink:href="#m03c8c09a98" y="271.531393"/>
     <use style="fill:#ff0000;stroke:#ff0000;" x="385.472561" xlink:href="#m03c8c09a98" y="80.577599"/>
     <use style="fill:#ff0000;stroke:#ff0000;" x="391.145317" xlink:href="#m03c8c09a98" y="160.486785"/>
     <use style="fill:#ff0000;stroke:#ff0000;" x="329.746911" xlink:href="#m03c8c09a98" y="214.157859"/>
     <use style="fill:#ff0000;stroke:#ff0000;" x="331.802467" xlink:href="#m03c8c09a98" y="228.727274"/>
     <use style="fill:#ff0000;stroke:#ff0000;" x="347.32582" xlink:href="#m03c8c09a98" y="137.145887"/>
    </g>
   </g>
   <g id="text_18">
    <!-- (98) Subject: s23, Known = False, Degree = 1, Duration = 0.1 -->
    <defs>
     <path d="M 31 75.875 
Q 24.46875 64.65625 21.28125 53.65625 
Q 18.109375 42.671875 18.109375 31.390625 
Q 18.109375 20.125 21.3125 9.0625 
Q 24.515625 -2 31 -13.1875 
L 23.1875 -13.1875 
Q 15.875 -1.703125 12.234375 9.375 
Q 8.59375 20.453125 8.59375 31.390625 
Q 8.59375 42.28125 12.203125 53.3125 
Q 15.828125 64.359375 23.1875 75.875 
z
" id="DejaVuSans-40"/>
     <path d="M 10.984375 1.515625 
L 10.984375 10.5 
Q 14.703125 8.734375 18.5 7.8125 
Q 22.3125 6.890625 25.984375 6.890625 
Q 35.75 6.890625 40.890625 13.453125 
Q 46.046875 20.015625 46.78125 33.40625 
Q 43.953125 29.203125 39.59375 26.953125 
Q 35.25 24.703125 29.984375 24.703125 
Q 19.046875 24.703125 12.671875 31.3125 
Q 6.296875 37.9375 6.296875 49.421875 
Q 6.296875 60.640625 12.9375 67.421875 
Q 19.578125 74.21875 30.609375 74.21875 
Q 43.265625 74.21875 49.921875 64.515625 
Q 56.59375 54.828125 56.59375 36.375 
Q 56.59375 19.140625 48.40625 8.859375 
Q 40.234375 -1.421875 26.421875 -1.421875 
Q 22.703125 -1.421875 18.890625 -0.6875 
Q 15.09375 0.046875 10.984375 1.515625 
z
M 30.609375 32.421875 
Q 37.25 32.421875 41.125 36.953125 
Q 45.015625 41.5 45.015625 49.421875 
Q 45.015625 57.28125 41.125 61.84375 
Q 37.25 66.40625 30.609375 66.40625 
Q 23.96875 66.40625 20.09375 61.84375 
Q 16.21875 57.28125 16.21875 49.421875 
Q 16.21875 41.5 20.09375 36.953125 
Q 23.96875 32.421875 30.609375 32.421875 
z
" id="DejaVuSans-57"/>
     <path d="M 8.015625 75.875 
L 15.828125 75.875 
Q 23.140625 64.359375 26.78125 53.3125 
Q 30.421875 42.28125 30.421875 31.390625 
Q 30.421875 20.453125 26.78125 9.375 
Q 23.140625 -1.703125 15.828125 -13.1875 
L 8.015625 -13.1875 
Q 14.5 -2 17.703125 9.0625 
Q 20.90625 20.125 20.90625 31.390625 
Q 20.90625 42.671875 17.703125 53.65625 
Q 14.5 64.65625 8.015625 75.875 
z
" id="DejaVuSans-41"/>
     <path id="DejaVuSans-32"/>
     <path d="M 53.515625 70.515625 
L 53.515625 60.890625 
Q 47.90625 63.578125 42.921875 64.890625 
Q 37.9375 66.21875 33.296875 66.21875 
Q 25.25 66.21875 20.875 63.09375 
Q 16.5 59.96875 16.5 54.203125 
Q 16.5 49.359375 19.40625 46.890625 
Q 22.3125 44.4375 30.421875 42.921875 
L 36.375 41.703125 
Q 47.40625 39.59375 52.65625 34.296875 
Q 57.90625 29 57.90625 20.125 
Q 57.90625 9.515625 50.796875 4.046875 
Q 43.703125 -1.421875 29.984375 -1.421875 
Q 24.8125 -1.421875 18.96875 -0.25 
Q 13.140625 0.921875 6.890625 3.21875 
L 6.890625 13.375 
Q 12.890625 10.015625 18.65625 8.296875 
Q 24.421875 6.59375 29.984375 6.59375 
Q 38.421875 6.59375 43.015625 9.90625 
Q 47.609375 13.234375 47.609375 19.390625 
Q 47.609375 24.75 44.3125 27.78125 
Q 41.015625 30.8125 33.5 32.328125 
L 27.484375 33.5 
Q 16.453125 35.6875 11.515625 40.375 
Q 6.59375 45.0625 6.59375 53.421875 
Q 6.59375 63.09375 13.40625 68.65625 
Q 20.21875 74.21875 32.171875 74.21875 
Q 37.3125 74.21875 42.625 73.28125 
Q 47.953125 72.359375 53.515625 70.515625 
z
" id="DejaVuSans-83"/>
     <path d="M 8.5 21.578125 
L 8.5 54.6875 
L 17.484375 54.6875 
L 17.484375 21.921875 
Q 17.484375 14.15625 20.5 10.265625 
Q 23.53125 6.390625 29.59375 6.390625 
Q 36.859375 6.390625 41.078125 11.03125 
Q 45.3125 15.671875 45.3125 23.6875 
L 45.3125 54.6875 
L 54.296875 54.6875 
L 54.296875 0 
L 45.3125 0 
L 45.3125 8.40625 
Q 42.046875 3.421875 37.71875 1 
Q 33.40625 -1.421875 27.6875 -1.421875 
Q 18.265625 -1.421875 13.375 4.4375 
Q 8.5 10.296875 8.5 21.578125 
z
M 31.109375 56 
z
" id="DejaVuSans-117"/>
     <path d="M 48.6875 27.296875 
Q 48.6875 37.203125 44.609375 42.84375 
Q 40.53125 48.484375 33.40625 48.484375 
Q 26.265625 48.484375 22.1875 42.84375 
Q 18.109375 37.203125 18.109375 27.296875 
Q 18.109375 17.390625 22.1875 11.75 
Q 26.265625 6.109375 33.40625 6.109375 
Q 40.53125 6.109375 44.609375 11.75 
Q 48.6875 17.390625 48.6875 27.296875 
z
M 18.109375 46.390625 
Q 20.953125 51.265625 25.265625 53.625 
Q 29.59375 56 35.59375 56 
Q 45.5625 56 51.78125 48.09375 
Q 58.015625 40.1875 58.015625 27.296875 
Q 58.015625 14.40625 51.78125 6.484375 
Q 45.5625 -1.421875 35.59375 -1.421875 
Q 29.59375 -1.421875 25.265625 0.953125 
Q 20.953125 3.328125 18.109375 8.203125 
L 18.109375 0 
L 9.078125 0 
L 9.078125 75.984375 
L 18.109375 75.984375 
z
" id="DejaVuSans-98"/>
     <path d="M 9.421875 54.6875 
L 18.40625 54.6875 
L 18.40625 -0.984375 
Q 18.40625 -11.421875 14.421875 -16.109375 
Q 10.453125 -20.796875 1.609375 -20.796875 
L -1.8125 -20.796875 
L -1.8125 -13.1875 
L 0.59375 -13.1875 
Q 5.71875 -13.1875 7.5625 -10.8125 
Q 9.421875 -8.453125 9.421875 -0.984375 
z
M 9.421875 75.984375 
L 18.40625 75.984375 
L 18.40625 64.59375 
L 9.421875 64.59375 
z
" id="DejaVuSans-106"/>
     <path d="M 56.203125 29.59375 
L 56.203125 25.203125 
L 14.890625 25.203125 
Q 15.484375 15.921875 20.484375 11.0625 
Q 25.484375 6.203125 34.421875 6.203125 
Q 39.59375 6.203125 44.453125 7.46875 
Q 49.3125 8.734375 54.109375 11.28125 
L 54.109375 2.78125 
Q 49.265625 0.734375 44.1875 -0.34375 
Q 39.109375 -1.421875 33.890625 -1.421875 
Q 20.796875 -1.421875 13.15625 6.1875 
Q 5.515625 13.8125 5.515625 26.8125 
Q 5.515625 40.234375 12.765625 48.109375 
Q 20.015625 56 32.328125 56 
Q 43.359375 56 49.78125 48.890625 
Q 56.203125 41.796875 56.203125 29.59375 
z
M 47.21875 32.234375 
Q 47.125 39.59375 43.09375 43.984375 
Q 39.0625 48.390625 32.421875 48.390625 
Q 24.90625 48.390625 20.390625 44.140625 
Q 15.875 39.890625 15.1875 32.171875 
z
" id="DejaVuSans-101"/>
     <path d="M 48.78125 52.59375 
L 48.78125 44.1875 
Q 44.96875 46.296875 41.140625 47.34375 
Q 37.3125 48.390625 33.40625 48.390625 
Q 24.65625 48.390625 19.8125 42.84375 
Q 14.984375 37.3125 14.984375 27.296875 
Q 14.984375 17.28125 19.8125 11.734375 
Q 24.65625 6.203125 33.40625 6.203125 
Q 37.3125 6.203125 41.140625 7.25 
Q 44.96875 8.296875 48.78125 10.40625 
L 48.78125 2.09375 
Q 45.015625 0.34375 40.984375 -0.53125 
Q 36.96875 -1.421875 32.421875 -1.421875 
Q 20.0625 -1.421875 12.78125 6.34375 
Q 5.515625 14.109375 5.515625 27.296875 
Q 5.515625 40.671875 12.859375 48.328125 
Q 20.21875 56 33.015625 56 
Q 37.15625 56 41.109375 55.140625 
Q 45.0625 54.296875 48.78125 52.59375 
z
" id="DejaVuSans-99"/>
     <path d="M 18.3125 70.21875 
L 18.3125 54.6875 
L 36.8125 54.6875 
L 36.8125 47.703125 
L 18.3125 47.703125 
L 18.3125 18.015625 
Q 18.3125 11.328125 20.140625 9.421875 
Q 21.96875 7.515625 27.59375 7.515625 
L 36.8125 7.515625 
L 36.8125 0 
L 27.59375 0 
Q 17.1875 0 13.234375 3.875 
Q 9.28125 7.765625 9.28125 18.015625 
L 9.28125 47.703125 
L 2.6875 47.703125 
L 2.6875 54.6875 
L 9.28125 54.6875 
L 9.28125 70.21875 
z
" id="DejaVuSans-116"/>
     <path d="M 11.71875 12.40625 
L 22.015625 12.40625 
L 22.015625 0 
L 11.71875 0 
z
M 11.71875 51.703125 
L 22.015625 51.703125 
L 22.015625 39.3125 
L 11.71875 39.3125 
z
" id="DejaVuSans-58"/>
     <path d="M 44.28125 53.078125 
L 44.28125 44.578125 
Q 40.484375 46.53125 36.375 47.5 
Q 32.28125 48.484375 27.875 48.484375 
Q 21.1875 48.484375 17.84375 46.4375 
Q 14.5 44.390625 14.5 40.28125 
Q 14.5 37.15625 16.890625 35.375 
Q 19.28125 33.59375 26.515625 31.984375 
L 29.59375 31.296875 
Q 39.15625 29.25 43.1875 25.515625 
Q 47.21875 21.78125 47.21875 15.09375 
Q 47.21875 7.46875 41.1875 3.015625 
Q 35.15625 -1.421875 24.609375 -1.421875 
Q 20.21875 -1.421875 15.453125 -0.5625 
Q 10.6875 0.296875 5.421875 2 
L 5.421875 11.28125 
Q 10.40625 8.6875 15.234375 7.390625 
Q 20.0625 6.109375 24.8125 6.109375 
Q 31.15625 6.109375 34.5625 8.28125 
Q 37.984375 10.453125 37.984375 14.40625 
Q 37.984375 18.0625 35.515625 20.015625 
Q 33.0625 21.96875 24.703125 23.78125 
L 21.578125 24.515625 
Q 13.234375 26.265625 9.515625 29.90625 
Q 5.8125 33.546875 5.8125 39.890625 
Q 5.8125 47.609375 11.28125 51.796875 
Q 16.75 56 26.8125 56 
Q 31.78125 56 36.171875 55.265625 
Q 40.578125 54.546875 44.28125 53.078125 
z
" id="DejaVuSans-115"/>
     <path d="M 11.71875 12.40625 
L 22.015625 12.40625 
L 22.015625 4 
L 14.015625 -11.625 
L 7.71875 -11.625 
L 11.71875 4 
z
" id="DejaVuSans-44"/>
     <path d="M 9.8125 72.90625 
L 19.671875 72.90625 
L 19.671875 42.09375 
L 52.390625 72.90625 
L 65.09375 72.90625 
L 28.90625 38.921875 
L 67.671875 0 
L 54.6875 0 
L 19.671875 35.109375 
L 19.671875 0 
L 9.8125 0 
z
" id="DejaVuSans-75"/>
     <path d="M 54.890625 33.015625 
L 54.890625 0 
L 45.90625 0 
L 45.90625 32.71875 
Q 45.90625 40.484375 42.875 44.328125 
Q 39.84375 48.1875 33.796875 48.1875 
Q 26.515625 48.1875 22.3125 43.546875 
Q 18.109375 38.921875 18.109375 30.90625 
L 18.109375 0 
L 9.078125 0 
L 9.078125 54.6875 
L 18.109375 54.6875 
L 18.109375 46.1875 
Q 21.34375 51.125 25.703125 53.5625 
Q 30.078125 56 35.796875 56 
Q 45.21875 56 50.046875 50.171875 
Q 54.890625 44.34375 54.890625 33.015625 
z
" id="DejaVuSans-110"/>
     <path d="M 30.609375 48.390625 
Q 23.390625 48.390625 19.1875 42.75 
Q 14.984375 37.109375 14.984375 27.296875 
Q 14.984375 17.484375 19.15625 11.84375 
Q 23.34375 6.203125 30.609375 6.203125 
Q 37.796875 6.203125 41.984375 11.859375 
Q 46.1875 17.53125 46.1875 27.296875 
Q 46.1875 37.015625 41.984375 42.703125 
Q 37.796875 48.390625 30.609375 48.390625 
z
M 30.609375 56 
Q 42.328125 56 49.015625 48.375 
Q 55.71875 40.765625 55.71875 27.296875 
Q 55.71875 13.875 49.015625 6.21875 
Q 42.328125 -1.421875 30.609375 -1.421875 
Q 18.84375 -1.421875 12.171875 6.21875 
Q 5.515625 13.875 5.515625 27.296875 
Q 5.515625 40.765625 12.171875 48.375 
Q 18.84375 56 30.609375 56 
z
" id="DejaVuSans-111"/>
     <path d="M 4.203125 54.6875 
L 13.1875 54.6875 
L 24.421875 12.015625 
L 35.59375 54.6875 
L 46.1875 54.6875 
L 57.421875 12.015625 
L 68.609375 54.6875 
L 77.59375 54.6875 
L 63.28125 0 
L 52.6875 0 
L 40.921875 44.828125 
L 29.109375 0 
L 18.5 0 
z
" id="DejaVuSans-119"/>
     <path d="M 10.59375 45.40625 
L 73.1875 45.40625 
L 73.1875 37.203125 
L 10.59375 37.203125 
z
M 10.59375 25.484375 
L 73.1875 25.484375 
L 73.1875 17.1875 
L 10.59375 17.1875 
z
" id="DejaVuSans-61"/>
     <path d="M 9.8125 72.90625 
L 51.703125 72.90625 
L 51.703125 64.59375 
L 19.671875 64.59375 
L 19.671875 43.109375 
L 48.578125 43.109375 
L 48.578125 34.8125 
L 19.671875 34.8125 
L 19.671875 0 
L 9.8125 0 
z
" id="DejaVuSans-70"/>
     <path d="M 34.28125 27.484375 
Q 23.390625 27.484375 19.1875 25 
Q 14.984375 22.515625 14.984375 16.5 
Q 14.984375 11.71875 18.140625 8.90625 
Q 21.296875 6.109375 26.703125 6.109375 
Q 34.1875 6.109375 38.703125 11.40625 
Q 43.21875 16.703125 43.21875 25.484375 
L 43.21875 27.484375 
z
M 52.203125 31.203125 
L 52.203125 0 
L 43.21875 0 
L 43.21875 8.296875 
Q 40.140625 3.328125 35.546875 0.953125 
Q 30.953125 -1.421875 24.3125 -1.421875 
Q 15.921875 -1.421875 10.953125 3.296875 
Q 6 8.015625 6 15.921875 
Q 6 25.140625 12.171875 29.828125 
Q 18.359375 34.515625 30.609375 34.515625 
L 43.21875 34.515625 
L 43.21875 35.40625 
Q 43.21875 41.609375 39.140625 45 
Q 35.0625 48.390625 27.6875 48.390625 
Q 23 48.390625 18.546875 47.265625 
Q 14.109375 46.140625 10.015625 43.890625 
L 10.015625 52.203125 
Q 14.9375 54.109375 19.578125 55.046875 
Q 24.21875 56 28.609375 56 
Q 40.484375 56 46.34375 49.84375 
Q 52.203125 43.703125 52.203125 31.203125 
z
" id="DejaVuSans-97"/>
     <path d="M 9.421875 75.984375 
L 18.40625 75.984375 
L 18.40625 0 
L 9.421875 0 
z
" id="DejaVuSans-108"/>
     <path d="M 19.671875 64.796875 
L 19.671875 8.109375 
L 31.59375 8.109375 
Q 46.6875 8.109375 53.6875 14.9375 
Q 60.6875 21.78125 60.6875 36.53125 
Q 60.6875 51.171875 53.6875 57.984375 
Q 46.6875 64.796875 31.59375 64.796875 
z
M 9.8125 72.90625 
L 30.078125 72.90625 
Q 51.265625 72.90625 61.171875 64.09375 
Q 71.09375 55.28125 71.09375 36.53125 
Q 71.09375 17.671875 61.125 8.828125 
Q 51.171875 0 30.078125 0 
L 9.8125 0 
z
" id="DejaVuSans-68"/>
     <path d="M 45.40625 27.984375 
Q 45.40625 37.75 41.375 43.109375 
Q 37.359375 48.484375 30.078125 48.484375 
Q 22.859375 48.484375 18.828125 43.109375 
Q 14.796875 37.75 14.796875 27.984375 
Q 14.796875 18.265625 18.828125 12.890625 
Q 22.859375 7.515625 30.078125 7.515625 
Q 37.359375 7.515625 41.375 12.890625 
Q 45.40625 18.265625 45.40625 27.984375 
z
M 54.390625 6.78125 
Q 54.390625 -7.171875 48.1875 -13.984375 
Q 42 -20.796875 29.203125 -20.796875 
Q 24.46875 -20.796875 20.265625 -20.09375 
Q 16.0625 -19.390625 12.109375 -17.921875 
L 12.109375 -9.1875 
Q 16.0625 -11.328125 19.921875 -12.34375 
Q 23.78125 -13.375 27.78125 -13.375 
Q 36.625 -13.375 41.015625 -8.765625 
Q 45.40625 -4.15625 45.40625 5.171875 
L 45.40625 9.625 
Q 42.625 4.78125 38.28125 2.390625 
Q 33.9375 0 27.875 0 
Q 17.828125 0 11.671875 7.65625 
Q 5.515625 15.328125 5.515625 27.984375 
Q 5.515625 40.671875 11.671875 48.328125 
Q 17.828125 56 27.875 56 
Q 33.9375 56 38.28125 53.609375 
Q 42.625 51.21875 45.40625 46.390625 
L 45.40625 54.6875 
L 54.390625 54.6875 
z
" id="DejaVuSans-103"/>
     <path d="M 41.109375 46.296875 
Q 39.59375 47.171875 37.8125 47.578125 
Q 36.03125 48 33.890625 48 
Q 26.265625 48 22.1875 43.046875 
Q 18.109375 38.09375 18.109375 28.8125 
L 18.109375 0 
L 9.078125 0 
L 9.078125 54.6875 
L 18.109375 54.6875 
L 18.109375 46.1875 
Q 20.953125 51.171875 25.484375 53.578125 
Q 30.03125 56 36.53125 56 
Q 37.453125 56 38.578125 55.875 
Q 39.703125 55.765625 41.0625 55.515625 
z
" id="DejaVuSans-114"/>
     <path d="M 9.421875 54.6875 
L 18.40625 54.6875 
L 18.40625 0 
L 9.421875 0 
z
M 9.421875 75.984375 
L 18.40625 75.984375 
L 18.40625 64.59375 
L 9.421875 64.59375 
z
" id="DejaVuSans-105"/>
     <path d="M 10.6875 12.40625 
L 21 12.40625 
L 21 0 
L 10.6875 0 
z
" id="DejaVuSans-46"/>
    </defs>
    <g transform="translate(49.741875 35.472)scale(0.12 -0.12)">
     <use xlink:href="#DejaVuSans-40"/>
     <use x="39.013672" xlink:href="#DejaVuSans-57"/>
     <use x="102.636719" xlink:href="#DejaVuSans-56"/>
     <use x="166.259766" xlink:href="#DejaVuSans-41"/>
     <use x="205.273438" xlink:href="#DejaVuSans-32"/>
     <use x="237.060547" xlink:href="#DejaVuSans-83"/>
     <use x="300.537109" xlink:href="#DejaVuSans-117"/>
     <use x="363.916016" xlink:href="#DejaVuSans-98"/>
     <use x="427.392578" xlink:href="#DejaVuSans-106"/>
     <use x="455.175781" xlink:href="#DejaVuSans-101"/>
     <use x="516.699219" xlink:href="#DejaVuSans-99"/>
     <use x="571.679688" xlink:href="#DejaVuSans-116"/>
     <use x="610.888672" xlink:href="#DejaVuSans-58"/>
     <use x="644.580078" xlink:href="#DejaVuSans-32"/>
     <use x="676.367188" xlink:href="#DejaVuSans-115"/>
     <use x="728.466797" xlink:href="#DejaVuSans-50"/>
     <use x="792.089844" xlink:href="#DejaVuSans-51"/>
     <use x="855.712891" xlink:href="#DejaVuSans-44"/>
     <use x="887.5" xlink:href="#DejaVuSans-32"/>
     <use x="919.287109" xlink:href="#DejaVuSans-75"/>
     <use x="984.863281" xlink:href="#DejaVuSans-110"/>
     <use x="1048.242188" xlink:href="#DejaVuSans-111"/>
     <use x="1109.423828" xlink:href="#DejaVuSans-119"/>
     <use x="1191.210938" xlink:href="#DejaVuSans-110"/>
     <use x="1254.589844" xlink:href="#DejaVuSans-32"/>
     <use x="1286.376953" xlink:href="#DejaVuSans-61"/>
     <use x="1370.166016" xlink:href="#DejaVuSans-32"/>
     <use x="1401.953125" xlink:href="#DejaVuSans-70"/>
     <use x="1459.332031" xlink:href="#DejaVuSans-97"/>
     <use x="1520.611328" xlink:href="#DejaVuSans-108"/>
     <use x="1548.394531" xlink:href="#DejaVuSans-115"/>
     <use x="1600.494141" xlink:href="#DejaVuSans-101"/>
     <use x="1662.017578" xlink:href="#DejaVuSans-44"/>
     <use x="1693.804688" xlink:href="#DejaVuSans-32"/>
     <use x="1725.591797" xlink:href="#DejaVuSans-68"/>
     <use x="1802.59375" xlink:href="#DejaVuSans-101"/>
     <use x="1864.117188" xlink:href="#DejaVuSans-103"/>
     <use x="1927.59375" xlink:href="#DejaVuSans-114"/>
     <use x="1968.675781" xlink:href="#DejaVuSans-101"/>
     <use x="2030.199219" xlink:href="#DejaVuSans-101"/>
     <use x="2091.722656" xlink:href="#DejaVuSans-32"/>
     <use x="2123.509766" xlink:href="#DejaVuSans-61"/>
     <use x="2207.298828" xlink:href="#DejaVuSans-32"/>
     <use x="2239.085938" xlink:href="#DejaVuSans-49"/>
     <use x="2302.708984" xlink:href="#DejaVuSans-44"/>
     <use x="2334.496094" xlink:href="#DejaVuSans-32"/>
     <use x="2366.283203" xlink:href="#DejaVuSans-68"/>
     <use x="2443.285156" xlink:href="#DejaVuSans-117"/>
     <use x="2506.664062" xlink:href="#DejaVuSans-114"/>
     <use x="2547.777344" xlink:href="#DejaVuSans-97"/>
     <use x="2609.056641" xlink:href="#DejaVuSans-116"/>
     <use x="2648.265625" xlink:href="#DejaVuSans-105"/>
     <use x="2676.048828" xlink:href="#DejaVuSans-111"/>
     <use x="2737.230469" xlink:href="#DejaVuSans-110"/>
     <use x="2800.609375" xlink:href="#DejaVuSans-32"/>
     <use x="2832.396484" xlink:href="#DejaVuSans-61"/>
     <use x="2916.185547" xlink:href="#DejaVuSans-32"/>
     <use x="2947.972656" xlink:href="#DejaVuSans-48"/>
     <use x="3011.595703" xlink:href="#DejaVuSans-46"/>
     <use x="3043.382812" xlink:href="#DejaVuSans-49"/>
    </g>
   </g>
  </g>
 </g>
 <defs>
  <clipPath id="p1f153630ce">
   <rect height="266.112" width="357.12" x="57.6" y="41.472"/>
  </clipPath>
 </defs>
</svg>
