<?xml version="1.0" encoding="utf-8" standalone="no"?>
<!DOCTYPE svg PUBLIC "-//W3C//DTD SVG 1.1//EN"
  "http://www.w3.org/Graphics/SVG/1.1/DTD/svg11.dtd">
<!-- Created with matplotlib (https://matplotlib.org/) -->
<svg height="345.6pt" version="1.1" viewBox="0 0 460.8 345.6" width="460.8pt" xmlns="http://www.w3.org/2000/svg" xmlns:xlink="http://www.w3.org/1999/xlink">
 <defs>
  <style type="text/css">
*{stroke-linecap:butt;stroke-linejoin:round;}
  </style>
 </defs>
 <g id="figure_1">
  <g id="patch_1">
   <path d="M 0 345.6 
L 460.8 345.6 
L 460.8 0 
L 0 0 
z
" style="fill:#ffffff;"/>
  </g>
  <g id="axes_1">
   <g id="patch_2">
    <path d="M 57.6 307.584 
L 414.72 307.584 
L 414.72 41.472 
L 57.6 41.472 
z
" style="fill:#ffffff;"/>
   </g>
   <g id="line2d_1">
    <path clip-path="url(#p2c8cc71a25)" d="M 292.05922 56.770451 
L 291.814297 56.370145 
L 291.569374 56.770451 
L 292.05922 57.170758 
L 292.543092 57.170758 
L 292.543092 57.566566 
L 292.05922 57.966873 
L 291.814297 58.767485 
L 296.204992 76.763282 
L 295.966042 76.763282 
L 295.721119 77.163588 
L 295.721119 77.563895 
L 295.966042 77.563895 
L 296.449915 77.163588 
L 296.694838 76.763282 
L 296.939761 77.163588 
L 296.939761 77.163588 
L 296.939761 77.563895 
L 296.694838 78.36001 
L 296.449915 78.760316 
L 296.449915 79.160623 
L 296.204992 79.560929 
L 296.449915 79.560929 
L 296.939761 78.760316 
L 297.184684 77.959703 
L 296.939761 78.760316 
L 296.939761 79.961235 
L 296.694838 80.761848 
L 296.204992 80.361542 
L 295.476196 79.560929 
L 295.231273 78.760316 
L 294.98635 79.160623 
L 295.231273 79.560929 
L 295.966042 78.760316 
L 296.204992 77.959703 
L 295.721119 77.163588 
L 295.966042 76.763282 
L 295.966042 76.362976 
L 295.966042 76.763282 
L 296.204992 77.959703 
L 296.449915 78.36001 
L 296.449915 78.36001 
L 295.966042 77.959703 
L 295.721119 77.959703 
L 295.721119 78.760316 
L 295.476196 79.560929 
L 295.476196 79.160623 
L 295.721119 78.760316 
L 295.966042 79.160623 
L 295.231273 77.959703 
L 295.231273 77.163588 
L 295.721119 77.163588 
L 295.966042 77.959703 
L 295.966042 78.36001 
L 295.966042 78.36001 
L 295.721119 78.36001 
L 296.449915 76.362976 
L 296.694838 75.962669 
L 296.694838 77.163588 
L 296.694838 77.163588 
L 296.939761 76.362976 
L 297.429607 75.162056 
L 298.158403 75.162056 
L 298.158403 77.163588 
L 298.403326 77.163588 
L 298.648249 76.763282 
L 299.138095 76.763282 
L 299.383018 76.362976 
L 299.383018 76.362976 
L 299.383018 75.562363 
L 298.893172 74.76175 
L 299.138095 75.162056 
L 299.383018 74.76175 
L 299.866891 74.361444 
L 300.111814 73.961137 
L 300.111814 71.964103 
L 300.356737 71.964103 
L 300.60166 71.16349 
L 300.60166 71.16349 
L 300.356737 72.364409 
L 300.846583 73.165022 
L 301.575379 72.364409 
L 301.820302 71.16349 
L 301.575379 70.763184 
L 301.091506 70.763184 
L 300.846583 69.566763 
L 300.846583 68.76615 
L 301.091506 69.166456 
L 301.33643 69.962571 
L 301.33643 70.362877 
L 301.33643 69.962571 
L 301.575379 69.566763 
L 301.575379 69.166456 
L 301.575379 69.166456 
L 300.846583 66.764618 
L 300.356737 66.764618 
L 300.846583 67.164924 
L 301.575379 67.565231 
L 301.33643 67.965537 
L 300.356737 67.565231 
L 300.111814 65.964005 
L 300.111814 65.16789 
L 301.091506 64.367277 
L 301.33643 63.966971 
L 301.575379 64.367277 
L 301.33643 64.767584 
L 301.091506 64.367277 
L 300.846583 63.566664 
L 301.091506 62.365745 
L 301.33643 61.965439 
L 301.091506 61.56963 
L 300.356737 61.56963 
L 299.621968 62.365745 
L 299.621968 62.365745 
L 299.621968 61.169324 
L 299.866891 60.368711 
L 300.111814 59.968405 
L 299.866891 60.368711 
L 299.866891 61.56963 
L 300.846583 62.365745 
L 300.356737 61.965439 
L 299.866891 60.769017 
L 299.138095 59.968405 
L 298.648249 59.968405 
L 298.403326 60.368711 
L 298.158403 59.968405 
L 298.648249 59.968405 
L 299.383018 59.568098 
L 299.383018 59.167792 
L 298.893172 59.568098 
L 298.403326 60.368711 
L 297.91348 60.368711 
L 297.67453 60.769017 
L 297.67453 60.769017 
L 298.403326 60.368711 
L 298.893172 59.968405 
L 299.383018 59.968405 
L 299.383018 59.568098 
L 298.648249 58.367179 
L 297.67453 57.566566 
L 297.429607 57.966873 
L 297.429607 58.367179 
L 297.429607 58.367179 
L 297.67453 57.966873 
L 297.91348 57.966873 
L 297.91348 58.767485 
L 297.67453 59.568098 
L 297.91348 59.167792 
L 298.893172 56.770451 
L 299.138095 56.770451 
L 299.138095 57.566566 
L 298.648249 56.770451 
L 298.893172 57.170758 
L 299.138095 56.370145 
L 299.138095 55.569532 
L 298.893172 55.169226 
L 298.158403 55.169226 
L 298.158403 55.569532 
L 298.403326 55.169226 
L 298.893172 54.768919 
L 299.383018 54.768919 
L 299.621968 55.569532 
L 299.621968 55.569532 
L 299.621968 53.568 
L 299.383018 53.568 
L 298.893172 54.768919 
L 298.648249 56.770451 
L 298.648249 55.569532 
L 298.403326 54.768919 
L 297.67453 54.768919 
L 297.91348 54.368613 
L 298.403326 54.368613 
L 298.158403 53.568 
L 297.91348 53.568 
L 298.403326 54.368613 
L 298.648249 55.169226 
L 298.158403 55.169226 
L 298.158403 55.169226 
L 298.403326 54.768919 
L 298.648249 55.569532 
L 298.403326 56.370145 
L 298.648249 56.370145 
L 298.893172 55.969838 
L 298.648249 55.569532 
L 298.158403 55.569532 
L 297.91348 54.768919 
L 298.158403 54.368613 
L 298.158403 55.169226 
L 298.403326 55.969838 
L 298.648249 56.370145 
L 298.893172 55.969838 
L 298.403326 56.370145 
L 297.67453 56.770451 
L 297.429607 56.370145 
L 297.429607 56.370145 
L 297.429607 56.770451 
L 297.429607 56.770451 
L 297.91348 55.969838 
L 297.429607 55.969838 
L 297.429607 55.169226 
L 297.429607 55.569532 
L 297.67453 57.170758 
L 298.158403 58.367179 
L 298.403326 58.367179 
L 298.403326 57.966873 
L 296.939761 57.170758 
L 297.184684 56.370145 
L 297.67453 55.969838 
L 298.158403 55.969838 
L 298.403326 55.169226 
L 298.403326 54.368613 
L 298.158403 54.768919 
L 297.67453 57.566566 
L 298.158403 57.566566 
L 298.158403 58.367179 
L 297.91348 57.966873 
L 298.403326 56.770451 
L 298.403326 55.569532 
L 297.91348 55.569532 
L 297.429607 56.370145 
L 297.91348 57.966873 
L 298.158403 59.568098 
L 297.91348 60.368711 
L 297.67453 60.368711 
L 297.91348 59.968405 
L 297.429607 58.367179 
L 297.184684 57.966873 
L 297.184684 58.367179 
L 297.429607 57.966873 
L 297.91348 57.966873 
L 298.403326 58.767485 
L 298.403326 59.568098 
L 296.939761 58.767485 
L 296.939761 58.767485 
L 297.429607 59.167792 
L 297.67453 59.568098 
L 297.67453 59.968405 
L 297.67453 59.968405 
L 297.429607 59.167792 
L 297.184684 58.767485 
L 297.184684 59.167792 
L 298.648249 59.167792 
L 298.648249 59.167792 
L 298.648249 61.56963 
L 298.403326 62.365745 
L 296.694838 62.365745 
L 297.184684 61.965439 
L 298.403326 60.769017 
L 298.403326 61.965439 
L 298.158403 62.766052 
L 298.648249 63.566664 
L 298.893172 63.166358 
L 299.138095 63.166358 
L 299.621968 63.566664 
L 300.356737 63.566664 
L 300.60166 63.166358 
L 300.60166 62.365745 
L 300.356737 62.365745 
L 300.356737 63.166358 
L 300.356737 63.166358 
L 300.60166 63.166358 
L 301.091506 62.365745 
L 301.091506 61.965439 
L 300.60166 63.566664 
L 300.846583 63.566664 
L 301.33643 63.166358 
L 301.091506 63.566664 
L 300.846583 63.566664 
L 300.846583 63.166358 
L 301.091506 63.566664 
L 301.091506 63.966971 
L 300.846583 63.166358 
L 300.356737 62.766052 
L 300.356737 65.16789 
L 300.60166 64.767584 
L 300.60166 64.367277 
L 300.60166 65.16789 
L 301.091506 64.367277 
L 301.091506 63.966971 
L 300.846583 63.966971 
L 300.846583 63.966971 
L 300.60166 63.166358 
L 300.356737 63.166358 
L 300.356737 63.966971 
L 300.60166 63.966971 
L 300.846583 63.566664 
L 300.846583 62.766052 
L 301.33643 62.766052 
L 301.820302 63.166358 
L 301.33643 63.966971 
L 301.091506 63.966971 
L 301.33643 63.566664 
L 301.820302 63.966971 
L 301.575379 64.767584 
L 301.091506 65.16789 
L 301.091506 65.16789 
L 301.33643 65.16789 
L 301.33643 65.568196 
L 301.33643 63.566664 
L 301.575379 62.766052 
L 301.575379 62.365745 
L 301.575379 63.966971 
L 301.575379 63.966971 
L 301.820302 63.166358 
L 301.820302 62.365745 
L 301.33643 63.166358 
L 300.846583 64.767584 
L 300.846583 65.568196 
L 301.091506 65.568196 
L 301.575379 64.767584 
L 301.575379 63.966971 
L 300.846583 63.966971 
L 300.846583 63.166358 
L 301.091506 62.766052 
L 301.091506 61.56963 
L 300.846583 61.169324 
L 300.356737 61.965439 
L 300.60166 61.56963 
L 300.846583 61.965439 
L 301.091506 62.766052 
L 300.846583 62.766052 
L 300.60166 62.365745 
L 300.846583 61.965439 
L 300.846583 62.365745 
L 300.356737 64.367277 
L 300.356737 63.966971 
L 300.846583 62.766052 
L 301.33643 62.365745 
L 302.065225 61.965439 
L 301.820302 61.56963 
L 301.33643 61.56963 
L 301.575379 61.56963 
L 302.065225 61.965439 
L 302.065225 62.365745 
L 301.33643 63.166358 
L 301.091506 63.966971 
L 301.33643 63.966971 
L 301.820302 63.566664 
L 301.575379 62.766052 
L 301.091506 63.166358 
L 300.60166 64.367277 
L 300.846583 64.367277 
L 301.820302 63.566664 
L 302.310148 62.766052 
L 302.310148 62.766052 
L 301.820302 62.766052 
L 301.575379 63.166358 
L 301.575379 63.966971 
L 301.820302 64.367277 
L 301.575379 65.16789 
L 301.33643 65.568196 
L 302.065225 64.367277 
L 301.820302 64.767584 
L 303.044918 64.767584 
L 302.799995 64.367277 
L 301.575379 64.367277 
L 301.33643 63.966971 
L 301.575379 63.966971 
L 302.065225 63.566664 
L 302.065225 63.966971 
L 302.555071 64.367277 
L 302.799995 64.767584 
L 302.799995 65.964005 
L 302.555071 65.964005 
L 302.555071 65.964005 
L 302.799995 64.367277 
L 302.799995 64.767584 
L 302.555071 65.16789 
L 302.799995 65.568196 
L 302.799995 65.568196 
L 302.799995 65.16789 
L 302.310148 65.964005 
L 302.310148 64.367277 
L 302.310148 64.767584 
L 302.555071 65.964005 
L 303.283867 66.764618 
L 303.52879 66.764618 
L 303.044918 66.364311 
L 302.799995 65.964005 
L 302.799995 65.568196 
L 302.555071 65.568196 
L 302.555071 65.568196 
L 303.52879 66.364311 
L 303.773713 66.364311 
L 303.283867 66.364311 
L 303.044918 66.764618 
L 303.283867 67.164924 
L 304.018636 67.164924 
L 304.263559 66.764618 
L 303.283867 67.565231 
L 303.283867 67.965537 
L 303.773713 67.164924 
L 303.773713 66.764618 
L 303.283867 66.764618 
L 303.773713 67.565231 
L 304.018636 68.76615 
L 304.018636 68.365843 
L 303.283867 67.164924 
L 303.283867 67.164924 
L 303.283867 67.565231 
L 302.799995 67.965537 
L 302.310148 67.965537 
L 301.820302 67.164924 
L 301.33643 67.965537 
L 300.111814 69.566763 
L 298.158403 70.362877 
L 294.496504 71.16349 
L 291.814297 72.764716 
L 289.126116 75.962669 
L 285.70914 79.160623 
L 281.563369 82.358576 
L 274.484493 89.9599 
L 268.134414 95.9555 
L 261.545384 102.751713 
L 258.618255 105.954164 
L 255.930074 108.351505 
L 251.294456 115.147718 
L 249.096122 119.146284 
L 240.798605 130.345868 
L 238.355347 133.543821 
L 235.673141 136.341468 
L 228.349342 141.140647 
L 224.932366 143.537988 
L 221.999263 146.340133 
L 214.681438 151.139311 
L 208.821204 156.734605 
L 202.960971 161.934091 
L 199.788918 167.133576 
L 198.08043 169.530917 
L 196.371942 171.532449 
L 195.637172 173.529483 
L 195.392249 175.931321 
L 196.861788 182.327228 
L 197.100737 183.528147 
L 197.590584 184.324262 
L 197.835507 185.525181 
L 198.570276 187.526713 
L 198.570276 188.723135 
L 198.809225 189.523748 
L 199.054149 189.924054 
L 199.299072 191.925586 
L 199.299072 194.322927 
L 199.054149 195.924152 
L 198.570276 197.52088 
L 197.590584 199.922718 
L 195.637172 202.320059 
L 195.392249 203.120672 
L 196.371942 203.921284 
L 195.392249 205.518012 
L 195.1533 207.119238 
L 195.1533 209.916885 
L 194.663454 210.717498 
L 194.663454 210.717498 
L 195.392249 210.717498 
L 195.882096 211.51811 
L 195.637172 212.318723 
L 195.637172 213.114838 
L 195.882096 214.315757 
L 196.371942 215.11637 
L 196.371942 215.11637 
L 196.371942 214.716064 
L 196.861788 215.516677 
L 196.616865 215.916983 
L 195.882096 216.317289 
L 196.371942 216.317289 
L 196.616865 216.717596 
L 197.100737 217.113404 
L 197.835507 217.113404 
L 197.34566 218.314324 
L 196.861788 219.114936 
L 196.861788 219.915549 
L 197.34566 220.716162 
L 198.08043 220.716162 
L 198.08043 220.716162 
L 198.08043 221.512277 
L 198.325353 221.912583 
L 197.590584 223.113503 
L 197.100737 224.314422 
L 196.861788 224.314422 
L 196.861788 223.113503 
L 197.100737 223.113503 
L 197.590584 223.914115 
L 198.08043 223.914115 
L 198.08043 224.314422 
L 197.835507 225.510843 
L 197.835507 225.510843 
L 198.325353 225.115035 
L 198.570276 224.714728 
L 198.325353 225.115035 
L 198.809225 227.112069 
L 198.325353 225.115035 
L 198.570276 223.914115 
L 198.809225 223.513809 
L 199.054149 223.513809 
L 199.054149 223.513809 
L 199.054149 223.113503 
L 199.299072 223.113503 
L 198.809225 223.113503 
L 198.570276 222.713196 
L 199.054149 223.113503 
L 199.543995 223.914115 
L 199.543995 224.314422 
L 199.788918 224.314422 
L 200.278764 223.914115 
L 200.523687 223.513809 
L 200.523687 223.513809 
L 200.523687 223.914115 
L 201.00756 224.314422 
L 201.742329 223.113503 
L 201.987252 223.513809 
L 202.471125 223.113503 
L 202.960971 221.111971 
L 202.716048 220.716162 
L 202.716048 221.512277 
L 202.960971 221.912583 
L 203.205894 221.912583 
L 203.450817 221.512277 
L 203.69574 221.912583 
L 203.940663 222.713196 
L 204.424536 222.713196 
L 204.424536 221.912583 
L 204.669459 221.512277 
L 205.159305 221.111971 
L 205.404228 220.716162 
L 205.404228 219.915549 
L 205.649151 220.315856 
L 206.377947 220.716162 
L 206.867793 220.315856 
L 206.867793 219.515243 
L 206.377947 219.114936 
L 206.133024 219.114936 
L 206.867793 218.71463 
L 207.602563 219.114936 
L 207.841512 219.114936 
L 208.086435 218.71463 
L 208.331358 217.914017 
L 208.086435 217.113404 
L 208.086435 216.717596 
L 208.576281 216.717596 
L 208.576281 217.513711 
L 207.841512 217.914017 
L 206.867793 217.513711 
L 206.377947 216.717596 
L 205.649151 216.317289 
L 204.424536 215.916983 
L 201.00756 215.916983 
L 198.325353 216.717596 
L 194.908377 217.513711 
L 191.001555 217.513711 
L 186.849809 218.314324 
L 182.459114 220.315856 
L 177.5726 222.713196 
L 171.963263 224.714728 
L 167.076748 226.711762 
L 162.686053 228.713294 
L 158.779231 231.510941 
L 154.388536 234.308588 
L 150.236791 236.31012 
L 147.064738 237.506542 
L 143.892685 237.506542 
L 140.469735 238.307154 
L 136.813809 238.707461 
L 133.39086 239.508074 
L 130.218807 240.708993 
L 126.556907 241.109299 
L 123.384854 241.905414 
L 120.702648 243.106333 
L 117.285672 243.906946 
L 112.889003 243.906946 
L 102.882998 244.707559 
L 98.976176 246.304287 
L 95.314276 247.1049 
L 91.8973 247.505206 
L 85.792144 249.902547 
L 83.35486 251.904079 
L 78.958191 254.701726 
L 76.031062 254.701726 
L 74.81242 255.902645 
L 74.07765 257.50387 
L 74.07765 259.100598 
L 73.832727 259.500904 
L 73.832727 260.301517 
L 74.322573 260.301517 
L 75.296292 259.901211 
L 75.786138 260.301517 
L 76.275985 261.502436 
L 76.759857 261.902743 
L 77.00478 262.298551 
L 77.249703 261.902743 
L 77.249703 261.10213 
L 77.00478 261.502436 
L 77.00478 263.099164 
L 77.249703 264.300083 
L 77.73955 264.70039 
L 77.73955 267.09773 
L 77.984473 267.09773 
L 77.73955 267.898343 
L 77.249703 269.899875 
L 76.759857 270.295684 
L 76.520908 269.899875 
L 76.520908 269.899875 
L 76.520908 272.297216 
L 76.759857 272.697522 
L 77.249703 272.697522 
L 77.494626 273.097829 
L 77.00478 276.295782 
L 77.249703 276.295782 
L 78.229396 274.694556 
L 77.984473 275.094863 
L 77.494626 276.295782 
L 77.00478 277.096395 
L 76.520908 277.496701 
L 77.00478 277.496701 
L 77.249703 278.297314 
L 77.494626 278.297314 
L 77.494626 277.897008 
L 77.249703 277.496701 
L 77.00478 277.496701 
L 76.759857 278.297314 
L 76.759857 279.093429 
L 77.249703 279.493735 
L 77.249703 280.294348 
L 78.468345 280.294348 
L 78.713268 280.694655 
L 79.203115 281.094961 
L 79.448038 280.294348 
L 78.958191 279.493735 
L 78.468345 279.894042 
L 78.468345 281.094961 
L 77.73955 281.094961 
L 78.229396 280.294348 
L 78.713268 280.294348 
L 78.713268 280.694655 
L 78.468345 281.094961 
L 78.229396 281.094961 
L 79.203115 281.094961 
L 78.958191 281.094961 
L 78.468345 281.895574 
L 78.468345 282.691689 
L 78.229396 283.091995 
L 78.468345 283.091995 
L 78.713268 283.492301 
L 78.468345 284.292914 
L 77.984473 285.093527 
L 78.229396 284.693221 
L 78.713268 283.091995 
L 79.448038 281.495267 
L 79.937884 281.895574 
L 79.937884 286.294446 
L 79.692961 285.89414 
L 78.958191 285.89414 
L 79.203115 285.89414 
L 79.203115 284.693221 
L 79.203115 284.693221 
L 78.958191 286.294446 
L 78.468345 287.090561 
L 78.229396 287.090561 
L 78.229396 286.294446 
L 78.468345 286.294446 
L 78.229396 286.690255 
L 78.229396 287.490868 
L 78.713268 287.490868 
L 79.448038 286.690255 
L 79.203115 285.89414 
L 78.713268 285.89414 
L 78.713268 285.89414 
L 79.203115 286.690255 
L 79.692961 286.294446 
L 79.692961 286.294446 
L 79.692961 287.090561 
L 79.692961 287.090561 
L 78.958191 285.89414 
L 78.713268 286.690255 
L 79.203115 287.891174 
L 79.203115 287.891174 
L 79.203115 287.090561 
L 78.958191 287.891174 
L 78.468345 288.691787 
L 78.958191 288.691787 
L 79.448038 289.092093 
L 79.448038 288.29148 
L 79.203115 288.29148 
L 78.958191 288.691787 
L 78.468345 288.691787 
L 77.73955 289.092093 
L 77.494626 288.691787 
L 77.984473 288.691787 
L 78.468345 289.092093 
L 79.203115 289.4924 
L 79.448038 290.293012 
L 79.203115 290.688821 
L 78.958191 289.892706 
L 79.203115 288.691787 
L 79.937884 288.691787 
L 79.203115 288.691787 
L 79.203115 288.29148 
L 79.203115 288.29148 
L 79.692961 288.691787 
L 79.937884 289.892706 
L 79.448038 289.892706 
L 78.713268 289.4924 
L 78.229396 289.4924 
L 78.713268 290.688821 
L 79.692961 291.489434 
L 80.182807 291.489434 
L 79.937884 291.489434 
L 79.448038 292.690353 
L 79.448038 293.490966 
L 80.182807 293.090659 
L 80.666679 292.690353 
L 80.666679 292.690353 
L 80.666679 292.290047 
L 80.421756 291.88974 
L 79.937884 293.090659 
L 79.692961 294.687387 
L 79.937884 295.087694 
L 80.421756 294.687387 
L 80.911603 293.891272 
L 81.646372 293.891272 
L 81.891295 293.490966 
L 81.646372 293.090659 
L 81.401449 293.090659 
L 81.156526 293.891272 
L 81.156526 294.687387 
L 80.911603 293.891272 
L 81.156526 293.490966 
L 81.646372 293.490966 
L 81.891295 293.090659 
L 81.646372 292.290047 
L 81.156526 291.88974 
L 80.911603 292.690353 
L 81.891295 294.291579 
L 81.891295 294.687387 
L 82.375168 294.687387 
L 82.130244 293.490966 
L 81.646372 293.090659 
L 81.401449 293.490966 
L 81.891295 295.087694 
L 82.865014 295.488 
L 83.35486 294.687387 
L 83.35486 293.891272 
L 82.130244 293.891272 
L 82.130244 293.490966 
L 81.891295 293.090659 
L 81.401449 293.090659 
L 80.911603 293.490966 
L 80.911603 294.687387 
L 80.421756 295.087694 
L 80.666679 295.087694 
L 81.646372 294.291579 
L 82.130244 293.490966 
L 82.375168 293.490966 
L 82.130244 293.891272 
L 81.891295 294.687387 
L 81.401449 295.488 
L 81.156526 295.087694 
L 81.156526 294.687387 
L 81.401449 293.891272 
L 81.646372 293.490966 
L 81.891295 293.490966 
L 81.646372 293.891272 
L 81.156526 293.891272 
L 80.911603 293.090659 
L 81.156526 293.090659 
L 81.156526 293.090659 
L 81.156526 293.490966 
L 81.891295 293.490966 
L 82.375168 294.291579 
L 82.620091 295.087694 
L 82.375168 295.488 
L 81.891295 295.488 
L 81.891295 294.687387 
L 82.865014 293.891272 
L 83.838732 292.690353 
L 85.308271 291.88974 
L 92.387146 291.88974 
L 96.532918 291.089127 
L 101.903305 289.092093 
L 108.253385 287.090561 
L 115.577184 285.493833 
L 131.927295 281.495267 
L 149.502021 279.894042 
L 158.534308 278.693123 
L 166.837799 277.096395 
L 175.135316 276.295782 
L 191.246478 276.295782 
L 199.543995 275.895476 
L 207.841512 276.295782 
L 224.197597 276.295782 
L 232.011241 276.696088 
L 239.573989 276.295782 
L 263.253873 273.898441 
L 289.860886 270.295684 
L 298.648249 269.499569 
L 307.190689 267.898343 
L 315.249257 265.501003 
L 323.791697 263.899777 
L 332.334138 263.499471 
L 348.935146 260.301517 
L 364.556461 260.301517 
L 371.88026 259.500904 
L 378.959135 257.899679 
L 385.303241 257.103564 
L 389.699909 257.103564 
L 393.116885 257.899679 
L 395.799092 258.299985 
L 397.50758 258.700292 
L 398.24235 259.500904 
L 398.487273 261.10213 
L 398.487273 263.099164 
L 397.997427 263.899777 
L 397.262657 264.70039 
L 394.58045 268.29865 
L 393.116885 269.899875 
L 391.89227 270.69599 
L 389.699909 269.899875 
L 388.720217 270.295684 
L 387.991421 271.496603 
L 387.746498 272.297216 
L 387.256652 272.697522 
L 386.03801 273.898441 
L 385.548164 273.498135 
L 385.303241 273.498135 
L 385.058318 274.29425 
L 384.813395 276.295782 
L 384.813395 277.897008 
L 384.329522 278.693123 
L 383.34983 278.693123 
L 383.104907 279.093429 
L 383.104907 279.894042 
L 382.859983 280.294348 
L 381.886265 280.294348 
L 381.151495 280.694655 
L 380.667623 279.894042 
L 379.443007 281.895574 
L 378.959135 283.091995 
L 378.224366 283.492301 
L 378.469289 283.091995 
L 378.959135 282.691689 
L 378.959135 283.091995 
L 378.469289 283.892608 
L 377.979442 283.892608 
L 377.489596 283.492301 
L 377.005724 283.492301 
L 375.542159 284.693221 
L 375.052313 285.493833 
L 374.807389 286.294446 
L 374.562466 286.690255 
L 374.317543 286.690255 
L 374.562466 286.294446 
L 375.052313 286.294446 
L 374.807389 287.090561 
L 374.07262 287.891174 
L 373.343824 288.29148 
L 373.343824 288.29148 
L 373.098901 287.891174 
L 373.098901 287.490868 
L 372.609055 287.891174 
L 372.125183 288.691787 
L 371.88026 288.691787 
L 371.88026 287.891174 
L 371.390413 286.294446 
L 370.900567 285.89414 
L 370.171771 286.690255 
L 369.926848 289.4924 
L 370.171771 289.092093 
L 369.681925 289.092093 
L 369.192079 288.29148 
L 369.192079 288.691787 
L 369.437002 289.092093 
L 369.437002 289.4924 
L 368.947156 290.688821 
L 368.947156 291.88974 
L 368.702233 291.88974 
L 367.483591 289.892706 
L 367.483591 290.688821 
L 367.238668 291.089127 
L 366.993745 291.089127 
L 367.238668 290.293012 
L 366.993745 289.4924 
L 366.754795 289.4924 
L 366.754795 288.691787 
L 366.509872 287.891174 
L 366.264949 287.891174 
L 366.509872 289.092093 
L 366.264949 290.688821 
L 366.020026 291.489434 
L 365.775103 291.089127 
L 365.53018 289.4924 
L 366.020026 289.4924 
L 366.264949 289.892706 
L 365.775103 290.293012 
L 364.556461 290.293012 
L 364.556461 289.892706 
L 365.285257 289.092093 
L 366.020026 288.691787 
L 366.020026 289.092093 
L 365.775103 289.892706 
L 365.046307 291.089127 
L 365.046307 291.089127 
L 364.801384 291.089127 
L 364.066615 291.489434 
L 364.066615 291.489434 
L 364.066615 289.4924 
L 363.331846 289.4924 
L 363.092896 289.892706 
L 363.331846 290.293012 
L 363.331846 291.089127 
L 362.60305 291.089127 
L 361.868281 290.688821 
L 361.384408 290.293012 
L 361.623358 290.688821 
L 361.868281 291.489434 
L 362.113204 291.489434 
L 362.113204 290.688821 
L 361.868281 291.089127 
L 361.868281 291.88974 
L 361.623358 292.290047 
L 361.139485 291.489434 
L 360.894562 291.489434 
L 360.894562 290.293012 
L 361.139485 289.892706 
L 361.384408 290.293012 
L 360.894562 291.089127 
L 360.649639 290.688821 
L 360.649639 290.293012 
L 360.894562 290.293012 
L 360.649639 291.089127 
L 360.649639 292.690353 
L 360.159793 293.891272 
L 360.404716 293.490966 
L 360.894562 292.690353 
L 361.384408 292.290047 
L 361.384408 292.290047 
L 361.384408 291.489434 
L 361.139485 290.688821 
L 361.139485 290.688821 
L 361.384408 290.688821 
L 361.384408 290.688821 
L 361.623358 291.489434 
L 361.623358 292.690353 
L 361.384408 293.891272 
L 361.384408 295.488 
L 361.384408 295.488 
L 361.623358 295.087694 
L 361.623358 294.291579 
L 361.623358 294.291579 
L 361.384408 294.687387 
L 360.894562 295.087694 
L 360.649639 293.891272 
L 360.159793 292.690353 
L 359.67592 292.690353 
L 359.67592 292.690353 
L 359.914869 292.290047 
L 360.159793 293.090659 
L 360.649639 293.891272 
L 360.649639 294.291579 
L 360.404716 295.087694 
L 360.159793 294.687387 
L 360.159793 294.291579 
L 360.159793 294.291579 
L 360.404716 293.490966 
L 360.894562 292.690353 
L 361.384408 292.690353 
L 361.139485 293.090659 
L 360.894562 294.291579 
L 360.894562 294.291579 
L 360.649639 293.891272 
L 360.649639 294.291579 
L 361.139485 294.291579 
L 361.623358 293.090659 
L 361.384408 292.290047 
L 360.894562 292.290047 
L 360.894562 293.490966 
L 361.868281 293.891272 
L 362.358127 293.891272 
L 362.113204 293.490966 
L 361.868281 292.690353 
L 362.358127 292.690353 
L 362.358127 293.090659 
L 362.358127 293.090659 
L 362.113204 293.490966 
L 362.358127 293.891272 
L 363.331846 293.891272 
L 364.556461 293.090659 
L 365.046307 292.290047 
L 365.046307 291.88974 
L 365.046307 291.88974 
L 365.53018 291.88974 
L 365.53018 291.88974 
L 365.046307 291.489434 
L 364.801384 290.293012 
L 365.046307 289.4924 
L 365.775103 289.092093 
L 366.020026 289.092093 
L 366.264949 289.4924 
L 366.264949 289.4924 
L 366.264949 289.892706 
L 366.509872 290.293012 
L 366.509872 287.891174 
L 366.264949 286.690255 
L 366.264949 285.89414 
L 366.754795 285.093527 
L 366.993745 285.093527 
L 366.754795 285.093527 
L 366.264949 284.292914 
L 366.020026 284.292914 
L 366.020026 284.292914 
L 366.264949 285.093527 
L 366.509872 285.093527 
L 366.993745 284.292914 
L 367.238668 283.091995 
L 366.993745 282.691689 
L 366.264949 280.694655 
L 364.801384 280.694655 
L 366.020026 278.693123 
L 366.264949 277.096395 
L 366.509872 276.295782 
L 366.264949 276.295782 
L 365.285257 277.096395 
L 365.046307 277.096395 
L 365.285257 277.496701 
L 365.775103 277.496701 
L 365.53018 277.496701 
L 364.801384 277.096395 
L 364.311538 276.295782 
L 364.311538 275.094863 
L 364.066615 275.094863 
L 363.821692 274.694556 
L 364.066615 274.29425 
L 364.066615 274.694556 
L 363.092896 274.694556 
L 362.60305 273.498135 
L 362.60305 272.697522 
L 361.868281 272.697522 
L 361.623358 273.097829 
L 361.384408 272.697522 
L 361.384408 271.096297 
L 361.139485 271.896909 
L 360.894562 273.097829 
L 360.404716 273.498135 
L 360.159793 272.697522 
L 360.404716 271.896909 
L 361.139485 271.096297 
L 361.139485 270.69599 
L 359.67592 270.69599 
L 359.186074 270.295684 
L 358.696228 269.499569 
L 358.206381 269.099262 
L 358.206381 268.698956 
L 358.696228 268.698956 
L 358.696228 268.698956 
L 358.451305 268.29865 
L 358.451305 268.698956 
L 356.98774 268.698956 
L 357.232663 268.29865 
L 357.967432 268.29865 
L 357.722509 268.29865 
L 357.722509 267.898343 
L 357.967432 266.697424 
L 357.722509 266.697424 
L 357.232663 267.09773 
L 356.98774 267.498037 
L 357.232663 267.09773 
L 357.477586 267.898343 
L 357.232663 268.29865 
L 357.722509 268.29865 
L 358.206381 267.498037 
L 358.206381 265.901309 
L 357.967432 265.100696 
L 357.722509 266.297118 
L 357.967432 268.29865 
L 358.206381 268.29865 
L 357.967432 267.898343 
L 357.477586 267.898343 
L 357.477586 267.498037 
L 357.722509 267.09773 
L 357.967432 267.09773 
L 357.477586 266.697424 
L 356.742816 267.898343 
L 356.98774 267.498037 
L 357.967432 266.297118 
L 357.967432 265.100696 
L 357.477586 265.501003 
L 357.477586 266.697424 
L 356.98774 267.498037 
L 356.742816 268.29865 
L 357.477586 267.09773 
L 357.232663 266.697424 
L 356.98774 267.09773 
L 356.742816 267.09773 
L 356.742816 267.09773 
L 356.98774 266.697424 
L 357.232663 266.697424 
L 357.477586 267.09773 
L 357.477586 267.898343 
L 357.722509 268.698956 
L 357.722509 267.898343 
L 357.477586 267.09773 
L 357.722509 267.09773 
L 357.722509 267.498037 
L 357.232663 268.29865 
L 356.742816 267.498037 
L 356.742816 267.09773 
L 356.742816 267.498037 
" style="fill:none;stroke:#1f77b4;stroke-linecap:square;stroke-width:1.5;"/>
   </g>
   <g id="matplotlib.axis_1">
    <g id="xtick_1">
     <g id="line2d_2">
      <defs>
       <path d="M 0 0 
L 0 3.5 
" id="mb251c4fc44" style="stroke:#000000;stroke-width:0.8;"/>
      </defs>
      <g>
       <use style="stroke:#000000;stroke-width:0.8;" x="79.400248" xlink:href="#mb251c4fc44" y="307.584"/>
      </g>
     </g>
     <g id="text_1">
      <!-- −400 -->
      <defs>
       <path d="M 10.59375 35.5 
L 73.1875 35.5 
L 73.1875 27.203125 
L 10.59375 27.203125 
z
" id="DejaVuSans-8722"/>
       <path d="M 37.796875 64.3125 
L 12.890625 25.390625 
L 37.796875 25.390625 
z
M 35.203125 72.90625 
L 47.609375 72.90625 
L 47.609375 25.390625 
L 58.015625 25.390625 
L 58.015625 17.1875 
L 47.609375 17.1875 
L 47.609375 0 
L 37.796875 0 
L 37.796875 17.1875 
L 4.890625 17.1875 
L 4.890625 26.703125 
z
" id="DejaVuSans-52"/>
       <path d="M 31.78125 66.40625 
Q 24.171875 66.40625 20.328125 58.90625 
Q 16.5 51.421875 16.5 36.375 
Q 16.5 21.390625 20.328125 13.890625 
Q 24.171875 6.390625 31.78125 6.390625 
Q 39.453125 6.390625 43.28125 13.890625 
Q 47.125 21.390625 47.125 36.375 
Q 47.125 51.421875 43.28125 58.90625 
Q 39.453125 66.40625 31.78125 66.40625 
z
M 31.78125 74.21875 
Q 44.046875 74.21875 50.515625 64.515625 
Q 56.984375 54.828125 56.984375 36.375 
Q 56.984375 17.96875 50.515625 8.265625 
Q 44.046875 -1.421875 31.78125 -1.421875 
Q 19.53125 -1.421875 13.0625 8.265625 
Q 6.59375 17.96875 6.59375 36.375 
Q 6.59375 54.828125 13.0625 64.515625 
Q 19.53125 74.21875 31.78125 74.21875 
z
" id="DejaVuSans-48"/>
      </defs>
      <g transform="translate(65.666654 322.182437)scale(0.1 -0.1)">
       <use xlink:href="#DejaVuSans-8722"/>
       <use x="83.789062" xlink:href="#DejaVuSans-52"/>
       <use x="147.412109" xlink:href="#DejaVuSans-48"/>
       <use x="211.035156" xlink:href="#DejaVuSans-48"/>
      </g>
     </g>
    </g>
    <g id="xtick_2">
     <g id="line2d_3">
      <g>
       <use style="stroke:#000000;stroke-width:0.8;" x="139.137592" xlink:href="#mb251c4fc44" y="307.584"/>
      </g>
     </g>
     <g id="text_2">
      <!-- −300 -->
      <defs>
       <path d="M 40.578125 39.3125 
Q 47.65625 37.796875 51.625 33 
Q 55.609375 28.21875 55.609375 21.1875 
Q 55.609375 10.40625 48.1875 4.484375 
Q 40.765625 -1.421875 27.09375 -1.421875 
Q 22.515625 -1.421875 17.65625 -0.515625 
Q 12.796875 0.390625 7.625 2.203125 
L 7.625 11.71875 
Q 11.71875 9.328125 16.59375 8.109375 
Q 21.484375 6.890625 26.8125 6.890625 
Q 36.078125 6.890625 40.9375 10.546875 
Q 45.796875 14.203125 45.796875 21.1875 
Q 45.796875 27.640625 41.28125 31.265625 
Q 36.765625 34.90625 28.71875 34.90625 
L 20.21875 34.90625 
L 20.21875 43.015625 
L 29.109375 43.015625 
Q 36.375 43.015625 40.234375 45.921875 
Q 44.09375 48.828125 44.09375 54.296875 
Q 44.09375 59.90625 40.109375 62.90625 
Q 36.140625 65.921875 28.71875 65.921875 
Q 24.65625 65.921875 20.015625 65.03125 
Q 15.375 64.15625 9.8125 62.3125 
L 9.8125 71.09375 
Q 15.4375 72.65625 20.34375 73.4375 
Q 25.25 74.21875 29.59375 74.21875 
Q 40.828125 74.21875 47.359375 69.109375 
Q 53.90625 64.015625 53.90625 55.328125 
Q 53.90625 49.265625 50.4375 45.09375 
Q 46.96875 40.921875 40.578125 39.3125 
z
" id="DejaVuSans-51"/>
      </defs>
      <g transform="translate(125.403998 322.182437)scale(0.1 -0.1)">
       <use xlink:href="#DejaVuSans-8722"/>
       <use x="83.789062" xlink:href="#DejaVuSans-51"/>
       <use x="147.412109" xlink:href="#DejaVuSans-48"/>
       <use x="211.035156" xlink:href="#DejaVuSans-48"/>
      </g>
     </g>
    </g>
    <g id="xtick_3">
     <g id="line2d_4">
      <g>
       <use style="stroke:#000000;stroke-width:0.8;" x="198.874937" xlink:href="#mb251c4fc44" y="307.584"/>
      </g>
     </g>
     <g id="text_3">
      <!-- −200 -->
      <defs>
       <path d="M 19.1875 8.296875 
L 53.609375 8.296875 
L 53.609375 0 
L 7.328125 0 
L 7.328125 8.296875 
Q 12.9375 14.109375 22.625 23.890625 
Q 32.328125 33.6875 34.8125 36.53125 
Q 39.546875 41.84375 41.421875 45.53125 
Q 43.3125 49.21875 43.3125 52.78125 
Q 43.3125 58.59375 39.234375 62.25 
Q 35.15625 65.921875 28.609375 65.921875 
Q 23.96875 65.921875 18.8125 64.3125 
Q 13.671875 62.703125 7.8125 59.421875 
L 7.8125 69.390625 
Q 13.765625 71.78125 18.9375 73 
Q 24.125 74.21875 28.421875 74.21875 
Q 39.75 74.21875 46.484375 68.546875 
Q 53.21875 62.890625 53.21875 53.421875 
Q 53.21875 48.921875 51.53125 44.890625 
Q 49.859375 40.875 45.40625 35.40625 
Q 44.1875 33.984375 37.640625 27.21875 
Q 31.109375 20.453125 19.1875 8.296875 
z
" id="DejaVuSans-50"/>
      </defs>
      <g transform="translate(185.141343 322.182437)scale(0.1 -0.1)">
       <use xlink:href="#DejaVuSans-8722"/>
       <use x="83.789062" xlink:href="#DejaVuSans-50"/>
       <use x="147.412109" xlink:href="#DejaVuSans-48"/>
       <use x="211.035156" xlink:href="#DejaVuSans-48"/>
      </g>
     </g>
    </g>
    <g id="xtick_4">
     <g id="line2d_5">
      <g>
       <use style="stroke:#000000;stroke-width:0.8;" x="258.612281" xlink:href="#mb251c4fc44" y="307.584"/>
      </g>
     </g>
     <g id="text_4">
      <!-- −100 -->
      <defs>
       <path d="M 12.40625 8.296875 
L 28.515625 8.296875 
L 28.515625 63.921875 
L 10.984375 60.40625 
L 10.984375 69.390625 
L 28.421875 72.90625 
L 38.28125 72.90625 
L 38.28125 8.296875 
L 54.390625 8.296875 
L 54.390625 0 
L 12.40625 0 
z
" id="DejaVuSans-49"/>
      </defs>
      <g transform="translate(244.878687 322.182437)scale(0.1 -0.1)">
       <use xlink:href="#DejaVuSans-8722"/>
       <use x="83.789062" xlink:href="#DejaVuSans-49"/>
       <use x="147.412109" xlink:href="#DejaVuSans-48"/>
       <use x="211.035156" xlink:href="#DejaVuSans-48"/>
      </g>
     </g>
    </g>
    <g id="xtick_5">
     <g id="line2d_6">
      <g>
       <use style="stroke:#000000;stroke-width:0.8;" x="318.349625" xlink:href="#mb251c4fc44" y="307.584"/>
      </g>
     </g>
     <g id="text_5">
      <!-- 0 -->
      <g transform="translate(315.168375 322.182437)scale(0.1 -0.1)">
       <use xlink:href="#DejaVuSans-48"/>
      </g>
     </g>
    </g>
    <g id="xtick_6">
     <g id="line2d_7">
      <g>
       <use style="stroke:#000000;stroke-width:0.8;" x="378.08697" xlink:href="#mb251c4fc44" y="307.584"/>
      </g>
     </g>
     <g id="text_6">
      <!-- 100 -->
      <g transform="translate(368.54322 322.182437)scale(0.1 -0.1)">
       <use xlink:href="#DejaVuSans-49"/>
       <use x="63.623047" xlink:href="#DejaVuSans-48"/>
       <use x="127.246094" xlink:href="#DejaVuSans-48"/>
      </g>
     </g>
    </g>
   </g>
   <g id="matplotlib.axis_2">
    <g id="ytick_1">
     <g id="line2d_8">
      <defs>
       <path d="M 0 0 
L -3.5 0 
" id="m4c1721eef0" style="stroke:#000000;stroke-width:0.8;"/>
      </defs>
      <g>
       <use style="stroke:#000000;stroke-width:0.8;" x="57.6" xlink:href="#m4c1721eef0" y="267.048254"/>
      </g>
     </g>
     <g id="text_7">
      <!-- −400 -->
      <g transform="translate(23.132812 270.847473)scale(0.1 -0.1)">
       <use xlink:href="#DejaVuSans-8722"/>
       <use x="83.789062" xlink:href="#DejaVuSans-52"/>
       <use x="147.412109" xlink:href="#DejaVuSans-48"/>
       <use x="211.035156" xlink:href="#DejaVuSans-48"/>
      </g>
     </g>
    </g>
    <g id="ytick_2">
     <g id="line2d_9">
      <g>
       <use style="stroke:#000000;stroke-width:0.8;" x="57.6" xlink:href="#m4c1721eef0" y="222.070007"/>
      </g>
     </g>
     <g id="text_8">
      <!-- −300 -->
      <g transform="translate(23.132812 225.869226)scale(0.1 -0.1)">
       <use xlink:href="#DejaVuSans-8722"/>
       <use x="83.789062" xlink:href="#DejaVuSans-51"/>
       <use x="147.412109" xlink:href="#DejaVuSans-48"/>
       <use x="211.035156" xlink:href="#DejaVuSans-48"/>
      </g>
     </g>
    </g>
    <g id="ytick_3">
     <g id="line2d_10">
      <g>
       <use style="stroke:#000000;stroke-width:0.8;" x="57.6" xlink:href="#m4c1721eef0" y="177.09176"/>
      </g>
     </g>
     <g id="text_9">
      <!-- −200 -->
      <g transform="translate(23.132812 180.890979)scale(0.1 -0.1)">
       <use xlink:href="#DejaVuSans-8722"/>
       <use x="83.789062" xlink:href="#DejaVuSans-50"/>
       <use x="147.412109" xlink:href="#DejaVuSans-48"/>
       <use x="211.035156" xlink:href="#DejaVuSans-48"/>
      </g>
     </g>
    </g>
    <g id="ytick_4">
     <g id="line2d_11">
      <g>
       <use style="stroke:#000000;stroke-width:0.8;" x="57.6" xlink:href="#m4c1721eef0" y="132.113513"/>
      </g>
     </g>
     <g id="text_10">
      <!-- −100 -->
      <g transform="translate(23.132812 135.912732)scale(0.1 -0.1)">
       <use xlink:href="#DejaVuSans-8722"/>
       <use x="83.789062" xlink:href="#DejaVuSans-49"/>
       <use x="147.412109" xlink:href="#DejaVuSans-48"/>
       <use x="211.035156" xlink:href="#DejaVuSans-48"/>
      </g>
     </g>
    </g>
    <g id="ytick_5">
     <g id="line2d_12">
      <g>
       <use style="stroke:#000000;stroke-width:0.8;" x="57.6" xlink:href="#m4c1721eef0" y="87.135266"/>
      </g>
     </g>
     <g id="text_11">
      <!-- 0 -->
      <g transform="translate(44.2375 90.934485)scale(0.1 -0.1)">
       <use xlink:href="#DejaVuSans-48"/>
      </g>
     </g>
    </g>
    <g id="ytick_6">
     <g id="line2d_13">
      <g>
       <use style="stroke:#000000;stroke-width:0.8;" x="57.6" xlink:href="#m4c1721eef0" y="42.157019"/>
      </g>
     </g>
     <g id="text_12">
      <!-- 100 -->
      <g transform="translate(31.5125 45.956237)scale(0.1 -0.1)">
       <use xlink:href="#DejaVuSans-49"/>
       <use x="63.623047" xlink:href="#DejaVuSans-48"/>
       <use x="127.246094" xlink:href="#DejaVuSans-48"/>
      </g>
     </g>
    </g>
   </g>
   <g id="line2d_14">
    <path clip-path="url(#p2c8cc71a25)" d="M 297.712643 66.215287 
L 198.912465 210.781626 
L 85.18302 281.354446 
L 368.498454 282.81651 
L 361.103923 279.588485 
" style="fill:none;stroke:#ff0000;stroke-linecap:square;stroke-width:0.5;"/>
   </g>
   <g id="patch_3">
    <path d="M 57.6 307.584 
L 57.6 41.472 
" style="fill:none;stroke:#000000;stroke-linecap:square;stroke-linejoin:miter;stroke-width:0.8;"/>
   </g>
   <g id="patch_4">
    <path d="M 414.72 307.584 
L 414.72 41.472 
" style="fill:none;stroke:#000000;stroke-linecap:square;stroke-linejoin:miter;stroke-width:0.8;"/>
   </g>
   <g id="patch_5">
    <path d="M 57.6 307.584 
L 414.72 307.584 
" style="fill:none;stroke:#000000;stroke-linecap:square;stroke-linejoin:miter;stroke-width:0.8;"/>
   </g>
   <g id="patch_6">
    <path d="M 57.6 41.472 
L 414.72 41.472 
" style="fill:none;stroke:#000000;stroke-linecap:square;stroke-linejoin:miter;stroke-width:0.8;"/>
   </g>
   <g id="PathCollection_1">
    <defs>
     <path d="M 0 2.738613 
C 0.726289 2.738613 1.422928 2.450055 1.936492 1.936492 
C 2.450055 1.422928 2.738613 0.726289 2.738613 0 
C 2.738613 -0.726289 2.450055 -1.422928 1.936492 -1.936492 
C 1.422928 -2.450055 0.726289 -2.738613 0 -2.738613 
C -0.726289 -2.738613 -1.422928 -2.450055 -1.936492 -1.936492 
C -2.450055 -1.422928 -2.738613 -0.726289 -2.738613 0 
C -2.738613 0.726289 -2.450055 1.422928 -1.936492 1.936492 
C -1.422928 2.450055 -0.726289 2.738613 0 2.738613 
z
" id="mdfbbda7f1c" style="stroke:#ff0000;"/>
    </defs>
    <g clip-path="url(#p2c8cc71a25)">
     <use style="fill:#ff0000;stroke:#ff0000;" x="297.712643" xlink:href="#mdfbbda7f1c" y="66.215287"/>
     <use style="fill:#ff0000;stroke:#ff0000;" x="198.912465" xlink:href="#mdfbbda7f1c" y="210.781626"/>
     <use style="fill:#ff0000;stroke:#ff0000;" x="85.18302" xlink:href="#mdfbbda7f1c" y="281.354446"/>
     <use style="fill:#ff0000;stroke:#ff0000;" x="368.498454" xlink:href="#mdfbbda7f1c" y="282.81651"/>
     <use style="fill:#ff0000;stroke:#ff0000;" x="361.103923" xlink:href="#mdfbbda7f1c" y="279.588485"/>
    </g>
   </g>
   <g id="text_13">
    <!-- (0) Subject: s7, Known = False, Degree = 2, Duration = 0.1 -->
    <defs>
     <path d="M 31 75.875 
Q 24.46875 64.65625 21.28125 53.65625 
Q 18.109375 42.671875 18.109375 31.390625 
Q 18.109375 20.125 21.3125 9.0625 
Q 24.515625 -2 31 -13.1875 
L 23.1875 -13.1875 
Q 15.875 -1.703125 12.234375 9.375 
Q 8.59375 20.453125 8.59375 31.390625 
Q 8.59375 42.28125 12.203125 53.3125 
Q 15.828125 64.359375 23.1875 75.875 
z
" id="DejaVuSans-40"/>
     <path d="M 8.015625 75.875 
L 15.828125 75.875 
Q 23.140625 64.359375 26.78125 53.3125 
Q 30.421875 42.28125 30.421875 31.390625 
Q 30.421875 20.453125 26.78125 9.375 
Q 23.140625 -1.703125 15.828125 -13.1875 
L 8.015625 -13.1875 
Q 14.5 -2 17.703125 9.0625 
Q 20.90625 20.125 20.90625 31.390625 
Q 20.90625 42.671875 17.703125 53.65625 
Q 14.5 64.65625 8.015625 75.875 
z
" id="DejaVuSans-41"/>
     <path id="DejaVuSans-32"/>
     <path d="M 53.515625 70.515625 
L 53.515625 60.890625 
Q 47.90625 63.578125 42.921875 64.890625 
Q 37.9375 66.21875 33.296875 66.21875 
Q 25.25 66.21875 20.875 63.09375 
Q 16.5 59.96875 16.5 54.203125 
Q 16.5 49.359375 19.40625 46.890625 
Q 22.3125 44.4375 30.421875 42.921875 
L 36.375 41.703125 
Q 47.40625 39.59375 52.65625 34.296875 
Q 57.90625 29 57.90625 20.125 
Q 57.90625 9.515625 50.796875 4.046875 
Q 43.703125 -1.421875 29.984375 -1.421875 
Q 24.8125 -1.421875 18.96875 -0.25 
Q 13.140625 0.921875 6.890625 3.21875 
L 6.890625 13.375 
Q 12.890625 10.015625 18.65625 8.296875 
Q 24.421875 6.59375 29.984375 6.59375 
Q 38.421875 6.59375 43.015625 9.90625 
Q 47.609375 13.234375 47.609375 19.390625 
Q 47.609375 24.75 44.3125 27.78125 
Q 41.015625 30.8125 33.5 32.328125 
L 27.484375 33.5 
Q 16.453125 35.6875 11.515625 40.375 
Q 6.59375 45.0625 6.59375 53.421875 
Q 6.59375 63.09375 13.40625 68.65625 
Q 20.21875 74.21875 32.171875 74.21875 
Q 37.3125 74.21875 42.625 73.28125 
Q 47.953125 72.359375 53.515625 70.515625 
z
" id="DejaVuSans-83"/>
     <path d="M 8.5 21.578125 
L 8.5 54.6875 
L 17.484375 54.6875 
L 17.484375 21.921875 
Q 17.484375 14.15625 20.5 10.265625 
Q 23.53125 6.390625 29.59375 6.390625 
Q 36.859375 6.390625 41.078125 11.03125 
Q 45.3125 15.671875 45.3125 23.6875 
L 45.3125 54.6875 
L 54.296875 54.6875 
L 54.296875 0 
L 45.3125 0 
L 45.3125 8.40625 
Q 42.046875 3.421875 37.71875 1 
Q 33.40625 -1.421875 27.6875 -1.421875 
Q 18.265625 -1.421875 13.375 4.4375 
Q 8.5 10.296875 8.5 21.578125 
z
M 31.109375 56 
z
" id="DejaVuSans-117"/>
     <path d="M 48.6875 27.296875 
Q 48.6875 37.203125 44.609375 42.84375 
Q 40.53125 48.484375 33.40625 48.484375 
Q 26.265625 48.484375 22.1875 42.84375 
Q 18.109375 37.203125 18.109375 27.296875 
Q 18.109375 17.390625 22.1875 11.75 
Q 26.265625 6.109375 33.40625 6.109375 
Q 40.53125 6.109375 44.609375 11.75 
Q 48.6875 17.390625 48.6875 27.296875 
z
M 18.109375 46.390625 
Q 20.953125 51.265625 25.265625 53.625 
Q 29.59375 56 35.59375 56 
Q 45.5625 56 51.78125 48.09375 
Q 58.015625 40.1875 58.015625 27.296875 
Q 58.015625 14.40625 51.78125 6.484375 
Q 45.5625 -1.421875 35.59375 -1.421875 
Q 29.59375 -1.421875 25.265625 0.953125 
Q 20.953125 3.328125 18.109375 8.203125 
L 18.109375 0 
L 9.078125 0 
L 9.078125 75.984375 
L 18.109375 75.984375 
z
" id="DejaVuSans-98"/>
     <path d="M 9.421875 54.6875 
L 18.40625 54.6875 
L 18.40625 -0.984375 
Q 18.40625 -11.421875 14.421875 -16.109375 
Q 10.453125 -20.796875 1.609375 -20.796875 
L -1.8125 -20.796875 
L -1.8125 -13.1875 
L 0.59375 -13.1875 
Q 5.71875 -13.1875 7.5625 -10.8125 
Q 9.421875 -8.453125 9.421875 -0.984375 
z
M 9.421875 75.984375 
L 18.40625 75.984375 
L 18.40625 64.59375 
L 9.421875 64.59375 
z
" id="DejaVuSans-106"/>
     <path d="M 56.203125 29.59375 
L 56.203125 25.203125 
L 14.890625 25.203125 
Q 15.484375 15.921875 20.484375 11.0625 
Q 25.484375 6.203125 34.421875 6.203125 
Q 39.59375 6.203125 44.453125 7.46875 
Q 49.3125 8.734375 54.109375 11.28125 
L 54.109375 2.78125 
Q 49.265625 0.734375 44.1875 -0.34375 
Q 39.109375 -1.421875 33.890625 -1.421875 
Q 20.796875 -1.421875 13.15625 6.1875 
Q 5.515625 13.8125 5.515625 26.8125 
Q 5.515625 40.234375 12.765625 48.109375 
Q 20.015625 56 32.328125 56 
Q 43.359375 56 49.78125 48.890625 
Q 56.203125 41.796875 56.203125 29.59375 
z
M 47.21875 32.234375 
Q 47.125 39.59375 43.09375 43.984375 
Q 39.0625 48.390625 32.421875 48.390625 
Q 24.90625 48.390625 20.390625 44.140625 
Q 15.875 39.890625 15.1875 32.171875 
z
" id="DejaVuSans-101"/>
     <path d="M 48.78125 52.59375 
L 48.78125 44.1875 
Q 44.96875 46.296875 41.140625 47.34375 
Q 37.3125 48.390625 33.40625 48.390625 
Q 24.65625 48.390625 19.8125 42.84375 
Q 14.984375 37.3125 14.984375 27.296875 
Q 14.984375 17.28125 19.8125 11.734375 
Q 24.65625 6.203125 33.40625 6.203125 
Q 37.3125 6.203125 41.140625 7.25 
Q 44.96875 8.296875 48.78125 10.40625 
L 48.78125 2.09375 
Q 45.015625 0.34375 40.984375 -0.53125 
Q 36.96875 -1.421875 32.421875 -1.421875 
Q 20.0625 -1.421875 12.78125 6.34375 
Q 5.515625 14.109375 5.515625 27.296875 
Q 5.515625 40.671875 12.859375 48.328125 
Q 20.21875 56 33.015625 56 
Q 37.15625 56 41.109375 55.140625 
Q 45.0625 54.296875 48.78125 52.59375 
z
" id="DejaVuSans-99"/>
     <path d="M 18.3125 70.21875 
L 18.3125 54.6875 
L 36.8125 54.6875 
L 36.8125 47.703125 
L 18.3125 47.703125 
L 18.3125 18.015625 
Q 18.3125 11.328125 20.140625 9.421875 
Q 21.96875 7.515625 27.59375 7.515625 
L 36.8125 7.515625 
L 36.8125 0 
L 27.59375 0 
Q 17.1875 0 13.234375 3.875 
Q 9.28125 7.765625 9.28125 18.015625 
L 9.28125 47.703125 
L 2.6875 47.703125 
L 2.6875 54.6875 
L 9.28125 54.6875 
L 9.28125 70.21875 
z
" id="DejaVuSans-116"/>
     <path d="M 11.71875 12.40625 
L 22.015625 12.40625 
L 22.015625 0 
L 11.71875 0 
z
M 11.71875 51.703125 
L 22.015625 51.703125 
L 22.015625 39.3125 
L 11.71875 39.3125 
z
" id="DejaVuSans-58"/>
     <path d="M 44.28125 53.078125 
L 44.28125 44.578125 
Q 40.484375 46.53125 36.375 47.5 
Q 32.28125 48.484375 27.875 48.484375 
Q 21.1875 48.484375 17.84375 46.4375 
Q 14.5 44.390625 14.5 40.28125 
Q 14.5 37.15625 16.890625 35.375 
Q 19.28125 33.59375 26.515625 31.984375 
L 29.59375 31.296875 
Q 39.15625 29.25 43.1875 25.515625 
Q 47.21875 21.78125 47.21875 15.09375 
Q 47.21875 7.46875 41.1875 3.015625 
Q 35.15625 -1.421875 24.609375 -1.421875 
Q 20.21875 -1.421875 15.453125 -0.5625 
Q 10.6875 0.296875 5.421875 2 
L 5.421875 11.28125 
Q 10.40625 8.6875 15.234375 7.390625 
Q 20.0625 6.109375 24.8125 6.109375 
Q 31.15625 6.109375 34.5625 8.28125 
Q 37.984375 10.453125 37.984375 14.40625 
Q 37.984375 18.0625 35.515625 20.015625 
Q 33.0625 21.96875 24.703125 23.78125 
L 21.578125 24.515625 
Q 13.234375 26.265625 9.515625 29.90625 
Q 5.8125 33.546875 5.8125 39.890625 
Q 5.8125 47.609375 11.28125 51.796875 
Q 16.75 56 26.8125 56 
Q 31.78125 56 36.171875 55.265625 
Q 40.578125 54.546875 44.28125 53.078125 
z
" id="DejaVuSans-115"/>
     <path d="M 8.203125 72.90625 
L 55.078125 72.90625 
L 55.078125 68.703125 
L 28.609375 0 
L 18.3125 0 
L 43.21875 64.59375 
L 8.203125 64.59375 
z
" id="DejaVuSans-55"/>
     <path d="M 11.71875 12.40625 
L 22.015625 12.40625 
L 22.015625 4 
L 14.015625 -11.625 
L 7.71875 -11.625 
L 11.71875 4 
z
" id="DejaVuSans-44"/>
     <path d="M 9.8125 72.90625 
L 19.671875 72.90625 
L 19.671875 42.09375 
L 52.390625 72.90625 
L 65.09375 72.90625 
L 28.90625 38.921875 
L 67.671875 0 
L 54.6875 0 
L 19.671875 35.109375 
L 19.671875 0 
L 9.8125 0 
z
" id="DejaVuSans-75"/>
     <path d="M 54.890625 33.015625 
L 54.890625 0 
L 45.90625 0 
L 45.90625 32.71875 
Q 45.90625 40.484375 42.875 44.328125 
Q 39.84375 48.1875 33.796875 48.1875 
Q 26.515625 48.1875 22.3125 43.546875 
Q 18.109375 38.921875 18.109375 30.90625 
L 18.109375 0 
L 9.078125 0 
L 9.078125 54.6875 
L 18.109375 54.6875 
L 18.109375 46.1875 
Q 21.34375 51.125 25.703125 53.5625 
Q 30.078125 56 35.796875 56 
Q 45.21875 56 50.046875 50.171875 
Q 54.890625 44.34375 54.890625 33.015625 
z
" id="DejaVuSans-110"/>
     <path d="M 30.609375 48.390625 
Q 23.390625 48.390625 19.1875 42.75 
Q 14.984375 37.109375 14.984375 27.296875 
Q 14.984375 17.484375 19.15625 11.84375 
Q 23.34375 6.203125 30.609375 6.203125 
Q 37.796875 6.203125 41.984375 11.859375 
Q 46.1875 17.53125 46.1875 27.296875 
Q 46.1875 37.015625 41.984375 42.703125 
Q 37.796875 48.390625 30.609375 48.390625 
z
M 30.609375 56 
Q 42.328125 56 49.015625 48.375 
Q 55.71875 40.765625 55.71875 27.296875 
Q 55.71875 13.875 49.015625 6.21875 
Q 42.328125 -1.421875 30.609375 -1.421875 
Q 18.84375 -1.421875 12.171875 6.21875 
Q 5.515625 13.875 5.515625 27.296875 
Q 5.515625 40.765625 12.171875 48.375 
Q 18.84375 56 30.609375 56 
z
" id="DejaVuSans-111"/>
     <path d="M 4.203125 54.6875 
L 13.1875 54.6875 
L 24.421875 12.015625 
L 35.59375 54.6875 
L 46.1875 54.6875 
L 57.421875 12.015625 
L 68.609375 54.6875 
L 77.59375 54.6875 
L 63.28125 0 
L 52.6875 0 
L 40.921875 44.828125 
L 29.109375 0 
L 18.5 0 
z
" id="DejaVuSans-119"/>
     <path d="M 10.59375 45.40625 
L 73.1875 45.40625 
L 73.1875 37.203125 
L 10.59375 37.203125 
z
M 10.59375 25.484375 
L 73.1875 25.484375 
L 73.1875 17.1875 
L 10.59375 17.1875 
z
" id="DejaVuSans-61"/>
     <path d="M 9.8125 72.90625 
L 51.703125 72.90625 
L 51.703125 64.59375 
L 19.671875 64.59375 
L 19.671875 43.109375 
L 48.578125 43.109375 
L 48.578125 34.8125 
L 19.671875 34.8125 
L 19.671875 0 
L 9.8125 0 
z
" id="DejaVuSans-70"/>
     <path d="M 34.28125 27.484375 
Q 23.390625 27.484375 19.1875 25 
Q 14.984375 22.515625 14.984375 16.5 
Q 14.984375 11.71875 18.140625 8.90625 
Q 21.296875 6.109375 26.703125 6.109375 
Q 34.1875 6.109375 38.703125 11.40625 
Q 43.21875 16.703125 43.21875 25.484375 
L 43.21875 27.484375 
z
M 52.203125 31.203125 
L 52.203125 0 
L 43.21875 0 
L 43.21875 8.296875 
Q 40.140625 3.328125 35.546875 0.953125 
Q 30.953125 -1.421875 24.3125 -1.421875 
Q 15.921875 -1.421875 10.953125 3.296875 
Q 6 8.015625 6 15.921875 
Q 6 25.140625 12.171875 29.828125 
Q 18.359375 34.515625 30.609375 34.515625 
L 43.21875 34.515625 
L 43.21875 35.40625 
Q 43.21875 41.609375 39.140625 45 
Q 35.0625 48.390625 27.6875 48.390625 
Q 23 48.390625 18.546875 47.265625 
Q 14.109375 46.140625 10.015625 43.890625 
L 10.015625 52.203125 
Q 14.9375 54.109375 19.578125 55.046875 
Q 24.21875 56 28.609375 56 
Q 40.484375 56 46.34375 49.84375 
Q 52.203125 43.703125 52.203125 31.203125 
z
" id="DejaVuSans-97"/>
     <path d="M 9.421875 75.984375 
L 18.40625 75.984375 
L 18.40625 0 
L 9.421875 0 
z
" id="DejaVuSans-108"/>
     <path d="M 19.671875 64.796875 
L 19.671875 8.109375 
L 31.59375 8.109375 
Q 46.6875 8.109375 53.6875 14.9375 
Q 60.6875 21.78125 60.6875 36.53125 
Q 60.6875 51.171875 53.6875 57.984375 
Q 46.6875 64.796875 31.59375 64.796875 
z
M 9.8125 72.90625 
L 30.078125 72.90625 
Q 51.265625 72.90625 61.171875 64.09375 
Q 71.09375 55.28125 71.09375 36.53125 
Q 71.09375 17.671875 61.125 8.828125 
Q 51.171875 0 30.078125 0 
L 9.8125 0 
z
" id="DejaVuSans-68"/>
     <path d="M 45.40625 27.984375 
Q 45.40625 37.75 41.375 43.109375 
Q 37.359375 48.484375 30.078125 48.484375 
Q 22.859375 48.484375 18.828125 43.109375 
Q 14.796875 37.75 14.796875 27.984375 
Q 14.796875 18.265625 18.828125 12.890625 
Q 22.859375 7.515625 30.078125 7.515625 
Q 37.359375 7.515625 41.375 12.890625 
Q 45.40625 18.265625 45.40625 27.984375 
z
M 54.390625 6.78125 
Q 54.390625 -7.171875 48.1875 -13.984375 
Q 42 -20.796875 29.203125 -20.796875 
Q 24.46875 -20.796875 20.265625 -20.09375 
Q 16.0625 -19.390625 12.109375 -17.921875 
L 12.109375 -9.1875 
Q 16.0625 -11.328125 19.921875 -12.34375 
Q 23.78125 -13.375 27.78125 -13.375 
Q 36.625 -13.375 41.015625 -8.765625 
Q 45.40625 -4.15625 45.40625 5.171875 
L 45.40625 9.625 
Q 42.625 4.78125 38.28125 2.390625 
Q 33.9375 0 27.875 0 
Q 17.828125 0 11.671875 7.65625 
Q 5.515625 15.328125 5.515625 27.984375 
Q 5.515625 40.671875 11.671875 48.328125 
Q 17.828125 56 27.875 56 
Q 33.9375 56 38.28125 53.609375 
Q 42.625 51.21875 45.40625 46.390625 
L 45.40625 54.6875 
L 54.390625 54.6875 
z
" id="DejaVuSans-103"/>
     <path d="M 41.109375 46.296875 
Q 39.59375 47.171875 37.8125 47.578125 
Q 36.03125 48 33.890625 48 
Q 26.265625 48 22.1875 43.046875 
Q 18.109375 38.09375 18.109375 28.8125 
L 18.109375 0 
L 9.078125 0 
L 9.078125 54.6875 
L 18.109375 54.6875 
L 18.109375 46.1875 
Q 20.953125 51.171875 25.484375 53.578125 
Q 30.03125 56 36.53125 56 
Q 37.453125 56 38.578125 55.875 
Q 39.703125 55.765625 41.0625 55.515625 
z
" id="DejaVuSans-114"/>
     <path d="M 9.421875 54.6875 
L 18.40625 54.6875 
L 18.40625 0 
L 9.421875 0 
z
M 9.421875 75.984375 
L 18.40625 75.984375 
L 18.40625 64.59375 
L 9.421875 64.59375 
z
" id="DejaVuSans-105"/>
     <path d="M 10.6875 12.40625 
L 21 12.40625 
L 21 0 
L 10.6875 0 
z
" id="DejaVuSans-46"/>
    </defs>
    <g transform="translate(57.376875 35.472)scale(0.12 -0.12)">
     <use xlink:href="#DejaVuSans-40"/>
     <use x="39.013672" xlink:href="#DejaVuSans-48"/>
     <use x="102.636719" xlink:href="#DejaVuSans-41"/>
     <use x="141.650391" xlink:href="#DejaVuSans-32"/>
     <use x="173.4375" xlink:href="#DejaVuSans-83"/>
     <use x="236.914062" xlink:href="#DejaVuSans-117"/>
     <use x="300.292969" xlink:href="#DejaVuSans-98"/>
     <use x="363.769531" xlink:href="#DejaVuSans-106"/>
     <use x="391.552734" xlink:href="#DejaVuSans-101"/>
     <use x="453.076172" xlink:href="#DejaVuSans-99"/>
     <use x="508.056641" xlink:href="#DejaVuSans-116"/>
     <use x="547.265625" xlink:href="#DejaVuSans-58"/>
     <use x="580.957031" xlink:href="#DejaVuSans-32"/>
     <use x="612.744141" xlink:href="#DejaVuSans-115"/>
     <use x="664.84375" xlink:href="#DejaVuSans-55"/>
     <use x="728.466797" xlink:href="#DejaVuSans-44"/>
     <use x="760.253906" xlink:href="#DejaVuSans-32"/>
     <use x="792.041016" xlink:href="#DejaVuSans-75"/>
     <use x="857.617188" xlink:href="#DejaVuSans-110"/>
     <use x="920.996094" xlink:href="#DejaVuSans-111"/>
     <use x="982.177734" xlink:href="#DejaVuSans-119"/>
     <use x="1063.964844" xlink:href="#DejaVuSans-110"/>
     <use x="1127.34375" xlink:href="#DejaVuSans-32"/>
     <use x="1159.130859" xlink:href="#DejaVuSans-61"/>
     <use x="1242.919922" xlink:href="#DejaVuSans-32"/>
     <use x="1274.707031" xlink:href="#DejaVuSans-70"/>
     <use x="1332.085938" xlink:href="#DejaVuSans-97"/>
     <use x="1393.365234" xlink:href="#DejaVuSans-108"/>
     <use x="1421.148438" xlink:href="#DejaVuSans-115"/>
     <use x="1473.248047" xlink:href="#DejaVuSans-101"/>
     <use x="1534.771484" xlink:href="#DejaVuSans-44"/>
     <use x="1566.558594" xlink:href="#DejaVuSans-32"/>
     <use x="1598.345703" xlink:href="#DejaVuSans-68"/>
     <use x="1675.347656" xlink:href="#DejaVuSans-101"/>
     <use x="1736.871094" xlink:href="#DejaVuSans-103"/>
     <use x="1800.347656" xlink:href="#DejaVuSans-114"/>
     <use x="1841.429688" xlink:href="#DejaVuSans-101"/>
     <use x="1902.953125" xlink:href="#DejaVuSans-101"/>
     <use x="1964.476562" xlink:href="#DejaVuSans-32"/>
     <use x="1996.263672" xlink:href="#DejaVuSans-61"/>
     <use x="2080.052734" xlink:href="#DejaVuSans-32"/>
     <use x="2111.839844" xlink:href="#DejaVuSans-50"/>
     <use x="2175.462891" xlink:href="#DejaVuSans-44"/>
     <use x="2207.25" xlink:href="#DejaVuSans-32"/>
     <use x="2239.037109" xlink:href="#DejaVuSans-68"/>
     <use x="2316.039062" xlink:href="#DejaVuSans-117"/>
     <use x="2379.417969" xlink:href="#DejaVuSans-114"/>
     <use x="2420.53125" xlink:href="#DejaVuSans-97"/>
     <use x="2481.810547" xlink:href="#DejaVuSans-116"/>
     <use x="2521.019531" xlink:href="#DejaVuSans-105"/>
     <use x="2548.802734" xlink:href="#DejaVuSans-111"/>
     <use x="2609.984375" xlink:href="#DejaVuSans-110"/>
     <use x="2673.363281" xlink:href="#DejaVuSans-32"/>
     <use x="2705.150391" xlink:href="#DejaVuSans-61"/>
     <use x="2788.939453" xlink:href="#DejaVuSans-32"/>
     <use x="2820.726562" xlink:href="#DejaVuSans-48"/>
     <use x="2884.349609" xlink:href="#DejaVuSans-46"/>
     <use x="2916.136719" xlink:href="#DejaVuSans-49"/>
    </g>
   </g>
  </g>
 </g>
 <defs>
  <clipPath id="p2c8cc71a25">
   <rect height="266.112" width="357.12" x="57.6" y="41.472"/>
  </clipPath>
 </defs>
</svg>
