<?xml version="1.0" encoding="utf-8" standalone="no"?>
<!DOCTYPE svg PUBLIC "-//W3C//DTD SVG 1.1//EN"
  "http://www.w3.org/Graphics/SVG/1.1/DTD/svg11.dtd">
<!-- Created with matplotlib (https://matplotlib.org/) -->
<svg height="345.6pt" version="1.1" viewBox="0 0 460.8 345.6" width="460.8pt" xmlns="http://www.w3.org/2000/svg" xmlns:xlink="http://www.w3.org/1999/xlink">
 <defs>
  <style type="text/css">
*{stroke-linecap:butt;stroke-linejoin:round;}
  </style>
 </defs>
 <g id="figure_1">
  <g id="patch_1">
   <path d="M 0 345.6 
L 460.8 345.6 
L 460.8 0 
L 0 0 
z
" style="fill:#ffffff;"/>
  </g>
  <g id="axes_1">
   <g id="patch_2">
    <path d="M 57.6 307.584 
L 414.72 307.584 
L 414.72 41.472 
L 57.6 41.472 
z
" style="fill:#ffffff;"/>
   </g>
   <g id="line2d_1">
    <path clip-path="url(#pc4c64f0168)" d="M 398.368818 61.415136 
L 398.13191 60.840325 
L 398.487273 61.415136 
L 398.016344 60.073911 
L 398.13191 60.457118 
L 398.368818 60.457118 
L 398.368818 59.882307 
L 398.250364 59.882307 
L 398.13191 60.073911 
L 398.016344 59.501253 
L 398.250364 58.543235 
L 398.250364 58.926442 
L 397.779436 59.882307 
L 397.660981 59.30965 
L 397.779436 58.351632 
L 398.13191 57.58737 
L 398.016344 57.395766 
L 397.779436 57.58737 
L 397.779436 57.776821 
L 398.016344 57.776821 
L 398.016344 57.395766 
L 397.779436 57.204163 
L 397.424073 57.204163 
L 397.071599 57.58737 
L 397.071599 57.776821 
L 397.779436 56.437748 
L 397.424073 57.012559 
L 397.071599 57.012559 
L 396.716235 56.629352 
L 396.597781 56.437748 
L 396.597781 56.054541 
L 397.071599 56.054541 
L 396.953144 55.673487 
L 396.83469 55.673487 
L 396.597781 55.862938 
L 396.716235 55.862938 
L 396.83469 55.29028 
L 396.716235 54.907072 
L 396.479327 54.907072 
L 396.479327 55.29028 
L 396.597781 55.29028 
L 396.597781 54.907072 
L 396.597781 55.481883 
L 396.360872 55.29028 
L 396.245307 54.715469 
L 396.126853 54.907072 
L 395.77149 54.907072 
L 395.534581 55.098676 
L 395.77149 55.098676 
L 396.008398 54.715469 
L 396.126853 54.140658 
L 395.889944 54.140658 
L 395.419016 54.523865 
L 395.300561 54.332262 
L 395.534581 54.523865 
L 395.653035 54.523865 
L 395.653035 54.332262 
L 395.419016 53.759604 
L 395.063652 53.759604 
L 394.945198 54.332262 
L 395.063652 54.907072 
L 395.419016 54.907072 
L 396.126853 53.949054 
L 395.889944 53.949054 
L 395.77149 53.759604 
L 395.77149 55.098676 
L 395.889944 55.29028 
L 395.889944 55.29028 
L 396.126853 54.332262 
L 396.126853 53.759604 
L 395.889944 53.568 
L 395.77149 53.949054 
L 396.008398 53.949054 
L 396.245307 54.140658 
L 396.245307 53.759604 
L 396.245307 54.715469 
L 396.360872 54.715469 
L 396.479327 54.140658 
L 396.245307 54.523865 
L 396.245307 54.907072 
L 396.245307 54.140658 
L 396.479327 53.949054 
L 396.716235 54.140658 
L 396.716235 54.523865 
L 396.245307 53.949054 
L 396.245307 54.715469 
L 396.360872 54.715469 
L 396.597781 54.332262 
L 396.479327 53.949054 
L 395.77149 54.523865 
L 395.77149 54.332262 
L 396.360872 54.332262 
L 396.597781 54.523865 
L 396.597781 54.907072 
L 396.360872 55.673487 
L 396.126853 55.481883 
L 395.77149 54.715469 
L 395.77149 54.140658 
L 396.360872 54.715469 
L 396.479327 55.29028 
L 396.479327 55.098676 
L 396.126853 55.098676 
L 396.008398 54.715469 
L 396.126853 55.29028 
L 396.126853 55.29028 
L 395.889944 55.098676 
L 395.77149 54.715469 
L 395.77149 54.332262 
L 395.77149 54.332262 
L 396.008398 54.715469 
L 396.245307 54.523865 
L 395.889944 54.715469 
L 396.126853 54.332262 
L 396.360872 54.523865 
L 396.479327 55.098676 
L 396.126853 55.29028 
L 396.360872 55.098676 
L 396.479327 54.907072 
L 396.126853 54.907072 
L 395.889944 55.098676 
L 395.889944 55.29028 
L 396.126853 56.246145 
L 396.126853 56.820956 
L 395.77149 56.246145 
L 394.945198 56.629352 
L 394.355815 56.437748 
L 392.821687 56.437748 
L 389.987449 55.673487 
L 380.187517 55.673487 
L 377.000805 56.437748 
L 373.106256 57.012559 
L 368.73789 57.776821 
L 364.369524 58.734839 
L 360.001158 60.073911 
L 345.243477 63.520623 
L 340.167273 65.242903 
L 334.854161 67.348389 
L 329.543938 69.834931 
L 319.036169 73.662697 
L 309.002217 77.682067 
L 298.612901 81.701437 
L 293.299789 83.998527 
L 288.105132 85.91241 
L 283.028928 87.443086 
L 277.952725 88.784312 
L 273.110542 90.314988 
L 268.389701 92.228871 
L 263.550407 93.95115 
L 258.589769 95.290223 
L 253.750474 96.823051 
L 248.792726 98.736935 
L 243.953431 100.840269 
L 234.508862 104.095377 
L 230.022041 105.626053 
L 225.890584 107.348332 
L 221.993146 109.262216 
L 218.451071 111.176099 
L 215.382814 112.515171 
L 212.667031 113.473189 
L 210.425065 114.620658 
L 208.417119 115.961883 
L 206.88299 117.492559 
L 205.81979 118.831632 
L 205.348862 120.172857 
L 205.230408 122.08674 
L 205.938245 124.956488 
L 206.88299 125.531299 
L 207.353919 126.10611 
L 207.472373 126.678768 
L 208.061756 126.678768 
L 208.535573 126.870371 
L 208.654028 127.445182 
L 208.654028 128.209444 
L 208.772482 130.12548 
L 208.417119 130.314931 
L 208.417119 131.081345 
L 208.535573 132.039363 
L 208.417119 133.186832 
L 208.535573 133.186832 
L 209.006502 134.142697 
L 209.006502 134.525904 
L 209.124956 134.717508 
L 209.124956 135.100715 
L 208.772482 136.05658 
L 208.535573 136.248184 
L 208.417119 136.631391 
L 208.772482 136.631391 
L 209.006502 137.014598 
L 209.006502 137.970463 
L 209.361865 137.970463 
L 209.480319 138.162067 
L 209.480319 138.545274 
L 209.361865 138.736878 
L 209.361865 139.120085 
L 209.124956 139.503292 
L 208.890937 139.503292 
L 208.890937 139.694896 
L 209.006502 140.07595 
L 209.361865 140.459157 
L 209.598774 140.07595 
L 209.832793 140.07595 
L 209.832793 140.267554 
L 209.480319 140.842364 
L 209.006502 140.842364 
L 209.243411 140.842364 
L 209.243411 141.800382 
L 209.124956 141.989833 
L 209.124956 141.800382 
L 208.772482 141.989833 
L 209.006502 142.37304 
L 209.243411 143.139455 
L 209.243411 144.478527 
L 209.006502 144.286924 
L 208.772482 144.478527 
L 208.772482 145.436545 
L 208.890937 145.628149 
L 208.890937 145.628149 
L 209.006502 145.436545 
L 208.890937 145.8176 
L 208.890937 146.39241 
L 208.061756 147.733636 
L 208.061756 147.350428 
L 208.061756 147.733636 
L 208.298665 148.306294 
L 208.772482 148.689501 
L 208.535573 148.306294 
L 208.654028 148.689501 
L 208.772482 149.455915 
L 208.535573 149.836969 
L 208.535573 150.220177 
L 208.654028 150.220177 
L 208.772482 150.028573 
L 208.654028 149.647519 
L 209.124956 150.028573 
L 209.124956 150.028573 
L 208.890937 149.647519 
L 208.535573 149.455915 
L 208.061756 150.028573 
L 207.590828 150.41178 
L 206.527627 150.028573 
L 204.638136 149.647519 
L 203.222461 149.836969 
L 201.569878 150.220177 
L 196.022747 152.13406 
L 194.014801 153.856339 
L 191.772835 155.578619 
L 186.930651 159.789593 
L 182.328266 164.766981 
L 180.083411 167.255675 
L 175.715045 171.464495 
L 168.74935 178.355766 
L 166.744293 180.652857 
L 162.139018 185.628092 
L 160.015507 187.541975 
L 155.999614 191.561345 
L 153.28672 193.666832 
L 148.092063 197.111391 
L 145.494734 199.216878 
L 143.131425 201.705572 
L 141.126368 203.619455 
L 138.763059 205.341734 
L 136.050164 207.830428 
L 130.973961 212.805663 
L 128.847561 214.719547 
L 127.194978 216.63343 
L 122.118775 224.288963 
L 120.93712 228.116729 
L 120.818666 230.222216 
L 120.818666 230.797026 
L 121.055574 232.902513 
L 121.292483 235.391207 
L 121.644957 236.347072 
L 122.00032 236.921883 
L 122.118775 237.688298 
L 121.881866 239.218974 
L 121.881866 239.983235 
L 122.118775 240.74965 
L 122.00032 241.32446 
L 121.529392 242.088722 
L 121.174029 243.04674 
L 120.93712 244.385812 
L 120.584646 248.596786 
L 120.110828 250.319065 
L 119.521446 251.277083 
L 118.458246 254.721643 
L 118.458246 256.252319 
L 118.221337 256.443922 
L 118.105772 257.018733 
L 118.105772 257.591391 
L 118.339791 258.166202 
L 117.395045 258.932616 
L 117.27948 259.31367 
L 117.27948 259.696878 
L 117.161026 259.888481 
L 117.161026 261.038103 
L 117.042571 261.038103 
L 116.924117 261.229706 
L 116.924117 261.802364 
L 116.687208 261.802364 
L 116.097825 261.419157 
L 115.979371 261.802364 
L 115.979371 262.568779 
L 116.097825 262.951986 
L 116.21628 262.568779 
L 115.979371 262.760382 
L 115.389988 263.907851 
L 115.271534 264.482662 
L 115.508443 264.674266 
L 115.860917 264.674266 
L 116.21628 264.482662 
L 116.097825 264.865869 
L 115.626897 264.291058 
L 115.508443 264.865869 
L 115.508443 266.013338 
L 115.508443 265.630131 
L 115.626897 265.821734 
L 115.389988 265.246924 
L 115.389988 265.438527 
L 115.15308 266.779752 
L 115.15308 266.779752 
L 115.389988 266.204942 
L 115.508443 265.821734 
L 115.508443 265.438527 
L 115.626897 265.246924 
L 115.626897 266.971356 
L 115.626897 266.779752 
L 115.389988 266.588149 
L 115.271534 266.588149 
L 115.15308 266.396545 
L 115.508443 266.779752 
L 115.508443 266.779752 
L 115.508443 266.204942 
L 115.508443 266.779752 
L 115.389988 266.971356 
L 115.389988 267.544014 
L 115.626897 268.118825 
L 115.979371 268.310428 
L 115.626897 267.544014 
L 115.508443 267.35241 
L 115.742462 267.160807 
L 116.097825 267.35241 
L 116.21628 267.735618 
L 115.979371 268.502032 
L 115.742462 268.885239 
L 116.334734 268.118825 
L 116.334734 268.310428 
L 116.21628 268.885239 
L 115.860917 269.266294 
L 115.979371 269.076843 
L 116.21628 269.266294 
L 116.568754 269.076843 
L 116.568754 268.502032 
L 116.097825 268.693636 
L 115.860917 269.457897 
L 115.860917 269.841104 
L 115.979371 269.649501 
L 115.860917 269.457897 
L 115.860917 269.649501 
L 115.860917 269.841104 
L 115.860917 269.649501 
L 116.21628 269.649501 
L 116.568754 269.841104 
L 116.805663 269.841104 
L 116.687208 269.841104 
L 116.453189 269.649501 
L 116.21628 269.649501 
L 115.979371 270.032708 
L 115.742462 270.032708 
L 115.860917 269.841104 
L 116.21628 269.841104 
L 115.979371 269.649501 
L 116.334734 270.224312 
L 116.334734 270.224312 
L 116.568754 269.841104 
L 116.568754 269.266294 
L 116.453189 268.885239 
L 115.979371 268.885239 
L 115.389988 269.457897 
L 114.682151 269.649501 
L 112.555751 269.649501 
L 105.826965 270.799122 
L 103.700564 271.563384 
L 98.034978 274.243681 
L 96.50085 274.818492 
L 92.721866 276.732375 
L 90.242992 278.454655 
L 87.764117 279.602124 
L 86.348443 279.602124 
L 85.166788 279.41052 
L 83.63266 279.41052 
L 82.56946 279.985331 
L 80.445948 280.751745 
L 79.735222 280.751745 
L 78.908931 281.1328 
L 77.137893 282.474025 
L 75.603765 283.238287 
L 74.895927 283.813097 
L 74.424999 284.768963 
L 74.777473 284.004701 
L 74.895927 284.196305 
L 74.659019 284.579512 
L 74.895927 284.768963 
L 75.251291 284.579512 
L 75.722219 284.960566 
L 75.959128 284.960566 
L 76.311602 285.15217 
L 76.311602 285.343773 
L 76.077582 285.343773 
L 76.430056 284.960566 
L 76.430056 285.343773 
L 76.311602 286.110188 
L 76.430056 285.918584 
L 76.54851 286.110188 
L 76.54851 286.493395 
L 76.430056 286.874449 
L 75.722219 287.44926 
L 75.014382 287.832467 
L 74.777473 287.44926 
L 75.014382 287.832467 
L 74.895927 288.215675 
L 74.659019 288.215675 
L 74.543454 288.024071 
L 74.659019 287.640864 
L 74.777473 287.832467 
L 74.777473 288.215675 
L 74.543454 288.979936 
L 74.306545 288.979936 
L 74.18809 288.598882 
L 74.306545 288.215675 
L 74.543454 288.024071 
L 74.543454 288.215675 
L 74.543454 288.215675 
L 74.306545 288.788332 
L 74.424999 288.598882 
L 74.543454 288.598882 
L 74.543454 288.407278 
L 74.424999 288.407278 
L 74.543454 288.215675 
L 73.832727 288.215675 
L 74.18809 287.832467 
L 74.424999 288.788332 
L 74.543454 289.554747 
L 74.659019 289.554747 
L 74.659019 289.17154 
L 74.424999 289.74635 
L 74.424999 289.937954 
L 74.306545 289.74635 
L 73.951182 289.74635 
L 73.951182 289.554747 
L 74.18809 289.554747 
L 74.424999 289.74635 
L 74.069636 289.363143 
L 74.18809 289.554747 
L 74.18809 289.937954 
L 74.069636 290.129558 
L 74.424999 289.74635 
L 74.543454 289.937954 
L 74.659019 289.74635 
L 74.543454 289.554747 
L 74.543454 290.512765 
L 74.659019 290.512765 
L 74.659019 289.74635 
L 74.543454 289.937954 
L 74.543454 290.702216 
L 74.543454 290.702216 
L 74.424999 290.893819 
L 74.424999 290.702216 
L 74.543454 290.321161 
L 74.895927 290.129558 
L 75.132836 290.129558 
L 75.132836 290.321161 
L 75.251291 290.893819 
L 75.132836 291.277026 
L 75.132836 290.321161 
L 75.251291 290.321161 
L 75.48531 290.702216 
L 75.48531 291.085423 
L 75.251291 291.085423 
L 75.132836 290.893819 
L 75.369745 290.702216 
L 75.722219 290.893819 
L 75.603765 291.46863 
L 75.251291 291.660234 
L 75.132836 291.277026 
L 75.251291 290.893819 
L 75.48531 291.085423 
L 75.48531 291.660234 
L 75.251291 292.235044 
L 75.251291 292.235044 
L 75.132836 292.235044 
L 75.132836 291.660234 
L 75.251291 291.277026 
L 75.48531 291.085423 
L 75.48531 291.277026 
L 75.369745 291.46863 
L 75.603765 291.277026 
L 75.959128 291.085423 
L 75.959128 291.277026 
L 75.840673 291.660234 
L 75.840673 292.043441 
L 75.840673 291.851837 
L 75.959128 291.660234 
L 75.840673 291.851837 
L 75.959128 292.043441 
L 76.196036 291.660234 
L 76.311602 291.085423 
L 75.959128 291.085423 
L 75.840673 292.807702 
L 75.959128 292.807702 
L 76.196036 292.235044 
L 76.077582 292.043441 
L 75.603765 292.616099 
L 75.251291 292.616099 
L 75.251291 292.426648 
L 75.603765 292.235044 
L 75.959128 292.616099 
L 75.722219 292.999306 
L 75.48531 292.999306 
L 75.369745 292.616099 
L 75.369745 292.999306 
L 75.369745 293.19091 
L 75.48531 293.574117 
L 75.840673 293.957324 
L 76.077582 292.999306 
L 75.840673 292.807702 
L 75.840673 292.807702 
L 76.196036 292.807702 
L 75.603765 293.19091 
L 75.603765 293.19091 
L 75.722219 293.574117 
L 76.077582 293.574117 
L 76.196036 293.19091 
L 75.840673 292.807702 
L 75.722219 293.19091 
L 75.722219 293.76572 
L 75.840673 293.76572 
L 75.722219 293.957324 
L 75.603765 294.532135 
L 75.722219 294.913189 
L 75.959128 295.104793 
L 76.196036 295.104793 
L 76.196036 295.104793 
L 76.196036 294.532135 
L 76.077582 293.957324 
L 76.077582 294.340531 
L 76.077582 294.913189 
L 76.196036 294.913189 
L 76.311602 294.721586 
L 76.196036 294.340531 
L 76.430056 294.913189 
L 76.54851 294.913189 
L 76.666965 294.721586 
L 76.785419 295.104793 
L 77.137893 295.104793 
L 77.137893 295.296396 
L 76.903874 295.104793 
L 76.54851 295.104793 
L 76.54851 295.296396 
L 77.022328 295.488 
L 77.256348 295.296396 
L 77.137893 295.296396 
L 76.666965 294.913189 
L 77.022328 294.148928 
L 77.022328 294.532135 
L 76.903874 294.913189 
L 76.54851 295.488 
L 76.785419 295.296396 
L 76.903874 295.296396 
L 76.903874 295.104793 
L 76.666965 294.721586 
L 76.54851 293.957324 
L 77.256348 294.532135 
L 77.730165 295.104793 
L 78.201093 295.296396 
L 79.145839 294.721586 
L 80.561513 293.382513 
L 84.458951 290.893819 
L 86.819371 289.554747 
L 103.34809 278.646259 
L 110.784713 272.904609 
L 114.445242 269.457897 
L 121.763411 261.419157 
L 125.42394 257.210337 
L 129.321378 252.999363 
L 133.57129 248.788389 
L 137.584293 244.194209 
L 141.126368 239.602181 
L 155.291777 219.505331 
L 158.244469 215.102754 
L 163.910055 205.341734 
L 169.460076 196.155526 
L 186.693743 169.359008 
L 189.409526 164.575377 
L 191.8884 159.789593 
L 196.256766 150.603384 
L 200.03575 141.608779 
L 202.869987 133.186832 
L 204.993499 126.487164 
L 205.582882 123.617416 
L 205.701336 120.553911 
L 205.467316 116.34509 
L 204.875044 115.003865 
L 203.340916 113.664793 
L 202.633079 113.856396 
L 201.925242 114.431207 
L 201.09895 114.812262 
L 200.154204 115.003865 
L 199.209458 115.578676 
L 198.501621 116.34509 
L 197.790895 116.917748 
L 197.319967 117.492559 
L 196.256766 119.598046 
L 195.078001 120.172857 
L 194.841092 120.172857 
L 194.841092 120.553911 
L 194.722638 120.937118 
L 194.367275 121.128722 
L 193.540983 120.745515 
L 193.540983 120.553911 
L 194.25171 119.981253 
L 193.540983 119.981253 
L 193.306964 119.78965 
L 193.306964 119.78965 
L 192.714692 119.78965 
L 192.362218 119.406442 
L 192.362218 119.78965 
L 192.006855 120.172857 
L 191.772835 120.172857 
L 191.772835 119.78965 
L 191.535926 119.598046 
L 191.180563 119.78965 
L 190.828089 119.214839 
L 190.59118 119.214839 
L 190.472726 119.598046 
L 190.59118 119.78965 
L 190.59118 119.78965 
L 190.235817 119.981253 
L 190.117363 120.172857 
L 190.235817 120.172857 
L 190.472726 119.981253 
L 190.472726 119.78965 
L 190.472726 119.78965 
L 190.117363 119.78965 
L 189.883343 119.406442 
L 189.646435 119.981253 
L 189.764889 119.981253 
L 189.764889 119.023235 
L 189.883343 119.023235 
L 189.883343 119.023235 
L 189.52798 118.831632 
L 189.291072 118.258974 
L 189.764889 117.875766 
L 189.764889 117.684163 
L 189.764889 117.684163 
L 189.52798 117.492559 
L 189.291072 117.492559 
L 188.938598 118.258974 
L 188.938598 118.448424 
L 188.938598 118.06737 
L 189.175506 117.109352 
L 188.938598 116.917748 
L 188.701689 116.917748 
L 188.701689 117.492559 
L 188.820143 117.109352 
L 188.701689 116.534541 
L 188.701689 115.961883 
L 189.291072 116.534541 
L 189.175506 116.34509 
L 189.057052 116.534541 
L 188.938598 117.109352 
L 188.820143 117.109352 
L 189.057052 115.578676 
L 188.701689 115.961883 
L 188.820143 115.77028 
L 188.938598 115.387072 
L 188.820143 115.387072 
L 188.349215 116.153487 
L 188.23076 115.961883 
L 188.23076 115.578676 
L 188.701689 115.003865 
L 188.820143 114.620658 
L 188.701689 114.239604 
L 188.46478 114.239604 
L 188.46478 114.431207 
L 188.820143 115.387072 
L 188.701689 115.961883 
L 188.46478 115.77028 
L 188.46478 115.195469 
L 188.820143 113.473189 
L 189.057052 113.281586 
L 189.175506 113.856396 
L 188.938598 114.431207 
L 188.820143 114.239604 
L 188.583234 114.239604 
L 188.583234 114.239604 
L 188.701689 113.664793 
L 188.583234 113.664793 
L 188.112306 113.473189 
L 188.46478 113.664793 
L 188.820143 114.048 
L 188.112306 113.281586 
L 187.875397 113.664793 
L 188.349215 112.898378 
L 187.875397 113.473189 
L 187.875397 113.089982 
L 187.993852 112.898378 
L 187.638489 112.515171 
L 187.993852 112.898378 
L 188.23076 112.32572 
L 188.46478 112.515171 
L 188.701689 113.281586 
L 189.764889 113.664793 
L 190.235817 114.239604 
L 190.472726 115.77028 
L 191.180563 117.875766 
L 191.535926 119.023235 
L 191.654381 120.745515 
L 192.714692 126.10611 
L 193.659438 130.314931 
L 194.25171 132.995228 
L 195.430475 140.650761 
L 196.022747 143.139455 
L 196.730584 145.244942 
L 198.501621 149.072708 
L 200.272659 153.856339 
L 200.980496 156.728241 
L 201.806787 162.086683 
L 202.277716 167.445125 
L 202.633079 173.569982 
L 202.514624 175.675469 
L 202.159261 177.589352 
L 201.451424 179.694839 
L 200.862041 181.991929 
L 200.625133 184.480623 
L 200.506678 187.350371 
L 200.03575 190.030669 
L 199.446367 192.327759 
L 199.091004 194.433246 
L 198.146258 197.877805 
L 197.909349 199.791688 
L 197.201512 203.044644 
L 196.493675 205.341734 
L 195.430475 207.638825 
L 194.841092 209.744312 
L 194.485729 210.508573 
L 194.014801 210.508573 
L 193.659438 210.89178 
L 193.188509 211.849798 
L 192.833146 213.188871 
L 192.480672 215.869168 
L 192.125309 216.63343 
L 190.943654 217.783051 
L 190.472726 218.547313 
L 190.235817 222.183476 
L 189.883343 223.141494 
L 189.409526 224.097359 
L 188.820143 224.480566 
L 188.349215 225.055377 
L 186.459723 228.883143 
L 186.222814 229.074747 
L 186.10436 229.649558 
L 185.751886 230.413819 
L 185.396523 231.755044 
L 185.278068 232.136099 
L 184.451777 232.519306 
L 184.570231 232.71091 
L 184.570231 233.28572 
L 184.451777 234.049982 
L 184.214868 234.241586 
L 184.214868 234.241586 
L 184.096414 233.860531 
L 184.096414 233.28572 
L 184.096414 234.433189 
L 183.980849 234.433189 
L 183.74394 234.241586 
L 183.74394 234.433189 
L 183.980849 235.391207 
L 183.74394 234.816396 
L 183.74394 234.241586 
L 183.862394 233.860531 
L 183.862394 233.860531 
L 183.507031 233.668928 
L 183.270122 234.049982 
L 183.270122 234.624793 
L 183.507031 234.816396 
L 183.388577 234.624793 
L 183.388577 234.433189 
L 183.388577 234.624793 
L 183.270122 234.624793 
L 183.270122 235.008 
L 182.917648 235.008 
L 182.562285 234.624793 
L 182.562285 234.433189 
L 182.443831 234.241586 
L 182.328266 234.433189 
L 182.328266 235.391207 
L 182.091357 234.816396 
L 182.443831 234.433189 
L 182.091357 234.624793 
L 181.854448 234.433189 
L 181.854448 233.860531 
L 181.972903 233.477324 
L 182.209811 233.28572 
L 182.209811 233.094117 
L 182.209811 233.28572 
L 182.443831 234.049982 
L 181.735994 234.049982 
L 181.617539 233.860531 
L 181.38352 234.049982 
L 181.028157 234.816396 
L 180.672794 235.391207 
L 180.791248 235.199604 
L 180.672794 234.816396 
L 180.672794 235.008 
L 180.32032 234.816396 
L 179.964956 234.816396 
L 179.375574 235.582811 
L 179.375574 235.582811 
" style="fill:none;stroke:#1f77b4;stroke-linecap:square;stroke-width:1.5;"/>
   </g>
   <g id="matplotlib.axis_1">
    <g id="xtick_1">
     <g id="line2d_2">
      <defs>
       <path d="M 0 0 
L 0 3.5 
" id="mf7ad2e08b6" style="stroke:#000000;stroke-width:0.8;"/>
      </defs>
      <g>
       <use style="stroke:#000000;stroke-width:0.8;" x="75.089499" xlink:href="#mf7ad2e08b6" y="307.584"/>
      </g>
     </g>
     <g id="text_1">
      <!-- −400 -->
      <defs>
       <path d="M 10.59375 35.5 
L 73.1875 35.5 
L 73.1875 27.203125 
L 10.59375 27.203125 
z
" id="DejaVuSans-8722"/>
       <path d="M 37.796875 64.3125 
L 12.890625 25.390625 
L 37.796875 25.390625 
z
M 35.203125 72.90625 
L 47.609375 72.90625 
L 47.609375 25.390625 
L 58.015625 25.390625 
L 58.015625 17.1875 
L 47.609375 17.1875 
L 47.609375 0 
L 37.796875 0 
L 37.796875 17.1875 
L 4.890625 17.1875 
L 4.890625 26.703125 
z
" id="DejaVuSans-52"/>
       <path d="M 31.78125 66.40625 
Q 24.171875 66.40625 20.328125 58.90625 
Q 16.5 51.421875 16.5 36.375 
Q 16.5 21.390625 20.328125 13.890625 
Q 24.171875 6.390625 31.78125 6.390625 
Q 39.453125 6.390625 43.28125 13.890625 
Q 47.125 21.390625 47.125 36.375 
Q 47.125 51.421875 43.28125 58.90625 
Q 39.453125 66.40625 31.78125 66.40625 
z
M 31.78125 74.21875 
Q 44.046875 74.21875 50.515625 64.515625 
Q 56.984375 54.828125 56.984375 36.375 
Q 56.984375 17.96875 50.515625 8.265625 
Q 44.046875 -1.421875 31.78125 -1.421875 
Q 19.53125 -1.421875 13.0625 8.265625 
Q 6.59375 17.96875 6.59375 36.375 
Q 6.59375 54.828125 13.0625 64.515625 
Q 19.53125 74.21875 31.78125 74.21875 
z
" id="DejaVuSans-48"/>
      </defs>
      <g transform="translate(61.355906 322.182437)scale(0.1 -0.1)">
       <use xlink:href="#DejaVuSans-8722"/>
       <use x="83.789062" xlink:href="#DejaVuSans-52"/>
       <use x="147.412109" xlink:href="#DejaVuSans-48"/>
       <use x="211.035156" xlink:href="#DejaVuSans-48"/>
      </g>
     </g>
    </g>
    <g id="xtick_2">
     <g id="line2d_3">
      <g>
       <use style="stroke:#000000;stroke-width:0.8;" x="132.87212" xlink:href="#mf7ad2e08b6" y="307.584"/>
      </g>
     </g>
     <g id="text_2">
      <!-- −200 -->
      <defs>
       <path d="M 19.1875 8.296875 
L 53.609375 8.296875 
L 53.609375 0 
L 7.328125 0 
L 7.328125 8.296875 
Q 12.9375 14.109375 22.625 23.890625 
Q 32.328125 33.6875 34.8125 36.53125 
Q 39.546875 41.84375 41.421875 45.53125 
Q 43.3125 49.21875 43.3125 52.78125 
Q 43.3125 58.59375 39.234375 62.25 
Q 35.15625 65.921875 28.609375 65.921875 
Q 23.96875 65.921875 18.8125 64.3125 
Q 13.671875 62.703125 7.8125 59.421875 
L 7.8125 69.390625 
Q 13.765625 71.78125 18.9375 73 
Q 24.125 74.21875 28.421875 74.21875 
Q 39.75 74.21875 46.484375 68.546875 
Q 53.21875 62.890625 53.21875 53.421875 
Q 53.21875 48.921875 51.53125 44.890625 
Q 49.859375 40.875 45.40625 35.40625 
Q 44.1875 33.984375 37.640625 27.21875 
Q 31.109375 20.453125 19.1875 8.296875 
z
" id="DejaVuSans-50"/>
      </defs>
      <g transform="translate(119.138527 322.182437)scale(0.1 -0.1)">
       <use xlink:href="#DejaVuSans-8722"/>
       <use x="83.789062" xlink:href="#DejaVuSans-50"/>
       <use x="147.412109" xlink:href="#DejaVuSans-48"/>
       <use x="211.035156" xlink:href="#DejaVuSans-48"/>
      </g>
     </g>
    </g>
    <g id="xtick_3">
     <g id="line2d_4">
      <g>
       <use style="stroke:#000000;stroke-width:0.8;" x="190.654741" xlink:href="#mf7ad2e08b6" y="307.584"/>
      </g>
     </g>
     <g id="text_3">
      <!-- 0 -->
      <g transform="translate(187.473491 322.182437)scale(0.1 -0.1)">
       <use xlink:href="#DejaVuSans-48"/>
      </g>
     </g>
    </g>
    <g id="xtick_4">
     <g id="line2d_5">
      <g>
       <use style="stroke:#000000;stroke-width:0.8;" x="248.437362" xlink:href="#mf7ad2e08b6" y="307.584"/>
      </g>
     </g>
     <g id="text_4">
      <!-- 200 -->
      <g transform="translate(238.893612 322.182437)scale(0.1 -0.1)">
       <use xlink:href="#DejaVuSans-50"/>
       <use x="63.623047" xlink:href="#DejaVuSans-48"/>
       <use x="127.246094" xlink:href="#DejaVuSans-48"/>
      </g>
     </g>
    </g>
    <g id="xtick_5">
     <g id="line2d_6">
      <g>
       <use style="stroke:#000000;stroke-width:0.8;" x="306.219983" xlink:href="#mf7ad2e08b6" y="307.584"/>
      </g>
     </g>
     <g id="text_5">
      <!-- 400 -->
      <g transform="translate(296.676233 322.182437)scale(0.1 -0.1)">
       <use xlink:href="#DejaVuSans-52"/>
       <use x="63.623047" xlink:href="#DejaVuSans-48"/>
       <use x="127.246094" xlink:href="#DejaVuSans-48"/>
      </g>
     </g>
    </g>
    <g id="xtick_6">
     <g id="line2d_7">
      <g>
       <use style="stroke:#000000;stroke-width:0.8;" x="364.002604" xlink:href="#mf7ad2e08b6" y="307.584"/>
      </g>
     </g>
     <g id="text_6">
      <!-- 600 -->
      <defs>
       <path d="M 33.015625 40.375 
Q 26.375 40.375 22.484375 35.828125 
Q 18.609375 31.296875 18.609375 23.390625 
Q 18.609375 15.53125 22.484375 10.953125 
Q 26.375 6.390625 33.015625 6.390625 
Q 39.65625 6.390625 43.53125 10.953125 
Q 47.40625 15.53125 47.40625 23.390625 
Q 47.40625 31.296875 43.53125 35.828125 
Q 39.65625 40.375 33.015625 40.375 
z
M 52.59375 71.296875 
L 52.59375 62.3125 
Q 48.875 64.0625 45.09375 64.984375 
Q 41.3125 65.921875 37.59375 65.921875 
Q 27.828125 65.921875 22.671875 59.328125 
Q 17.53125 52.734375 16.796875 39.40625 
Q 19.671875 43.65625 24.015625 45.921875 
Q 28.375 48.1875 33.59375 48.1875 
Q 44.578125 48.1875 50.953125 41.515625 
Q 57.328125 34.859375 57.328125 23.390625 
Q 57.328125 12.15625 50.6875 5.359375 
Q 44.046875 -1.421875 33.015625 -1.421875 
Q 20.359375 -1.421875 13.671875 8.265625 
Q 6.984375 17.96875 6.984375 36.375 
Q 6.984375 53.65625 15.1875 63.9375 
Q 23.390625 74.21875 37.203125 74.21875 
Q 40.921875 74.21875 44.703125 73.484375 
Q 48.484375 72.75 52.59375 71.296875 
z
" id="DejaVuSans-54"/>
      </defs>
      <g transform="translate(354.458854 322.182437)scale(0.1 -0.1)">
       <use xlink:href="#DejaVuSans-54"/>
       <use x="63.623047" xlink:href="#DejaVuSans-48"/>
       <use x="127.246094" xlink:href="#DejaVuSans-48"/>
      </g>
     </g>
    </g>
   </g>
   <g id="matplotlib.axis_2">
    <g id="ytick_1">
     <g id="line2d_8">
      <defs>
       <path d="M 0 0 
L -3.5 0 
" id="mfaabc535f4" style="stroke:#000000;stroke-width:0.8;"/>
      </defs>
      <g>
       <use style="stroke:#000000;stroke-width:0.8;" x="57.6" xlink:href="#mfaabc535f4" y="274.476189"/>
      </g>
     </g>
     <g id="text_7">
      <!-- −200 -->
      <g transform="translate(23.132812 278.275408)scale(0.1 -0.1)">
       <use xlink:href="#DejaVuSans-8722"/>
       <use x="83.789062" xlink:href="#DejaVuSans-50"/>
       <use x="147.412109" xlink:href="#DejaVuSans-48"/>
       <use x="211.035156" xlink:href="#DejaVuSans-48"/>
      </g>
     </g>
    </g>
    <g id="ytick_2">
     <g id="line2d_9">
      <g>
       <use style="stroke:#000000;stroke-width:0.8;" x="57.6" xlink:href="#mfaabc535f4" y="231.4192"/>
      </g>
     </g>
     <g id="text_8">
      <!-- 0 -->
      <g transform="translate(44.2375 235.218419)scale(0.1 -0.1)">
       <use xlink:href="#DejaVuSans-48"/>
      </g>
     </g>
    </g>
    <g id="ytick_3">
     <g id="line2d_10">
      <g>
       <use style="stroke:#000000;stroke-width:0.8;" x="57.6" xlink:href="#mfaabc535f4" y="188.362211"/>
      </g>
     </g>
     <g id="text_9">
      <!-- 200 -->
      <g transform="translate(31.5125 192.161429)scale(0.1 -0.1)">
       <use xlink:href="#DejaVuSans-50"/>
       <use x="63.623047" xlink:href="#DejaVuSans-48"/>
       <use x="127.246094" xlink:href="#DejaVuSans-48"/>
      </g>
     </g>
    </g>
    <g id="ytick_4">
     <g id="line2d_11">
      <g>
       <use style="stroke:#000000;stroke-width:0.8;" x="57.6" xlink:href="#mfaabc535f4" y="145.305221"/>
      </g>
     </g>
     <g id="text_10">
      <!-- 400 -->
      <g transform="translate(31.5125 149.10444)scale(0.1 -0.1)">
       <use xlink:href="#DejaVuSans-52"/>
       <use x="63.623047" xlink:href="#DejaVuSans-48"/>
       <use x="127.246094" xlink:href="#DejaVuSans-48"/>
      </g>
     </g>
    </g>
    <g id="ytick_5">
     <g id="line2d_12">
      <g>
       <use style="stroke:#000000;stroke-width:0.8;" x="57.6" xlink:href="#mfaabc535f4" y="102.248232"/>
      </g>
     </g>
     <g id="text_11">
      <!-- 600 -->
      <g transform="translate(31.5125 106.047451)scale(0.1 -0.1)">
       <use xlink:href="#DejaVuSans-54"/>
       <use x="63.623047" xlink:href="#DejaVuSans-48"/>
       <use x="127.246094" xlink:href="#DejaVuSans-48"/>
      </g>
     </g>
    </g>
    <g id="ytick_6">
     <g id="line2d_13">
      <g>
       <use style="stroke:#000000;stroke-width:0.8;" x="57.6" xlink:href="#mfaabc535f4" y="59.191243"/>
      </g>
     </g>
     <g id="text_12">
      <!-- 800 -->
      <defs>
       <path d="M 31.78125 34.625 
Q 24.75 34.625 20.71875 30.859375 
Q 16.703125 27.09375 16.703125 20.515625 
Q 16.703125 13.921875 20.71875 10.15625 
Q 24.75 6.390625 31.78125 6.390625 
Q 38.8125 6.390625 42.859375 10.171875 
Q 46.921875 13.96875 46.921875 20.515625 
Q 46.921875 27.09375 42.890625 30.859375 
Q 38.875 34.625 31.78125 34.625 
z
M 21.921875 38.8125 
Q 15.578125 40.375 12.03125 44.71875 
Q 8.5 49.078125 8.5 55.328125 
Q 8.5 64.0625 14.71875 69.140625 
Q 20.953125 74.21875 31.78125 74.21875 
Q 42.671875 74.21875 48.875 69.140625 
Q 55.078125 64.0625 55.078125 55.328125 
Q 55.078125 49.078125 51.53125 44.71875 
Q 48 40.375 41.703125 38.8125 
Q 48.828125 37.15625 52.796875 32.3125 
Q 56.78125 27.484375 56.78125 20.515625 
Q 56.78125 9.90625 50.3125 4.234375 
Q 43.84375 -1.421875 31.78125 -1.421875 
Q 19.734375 -1.421875 13.25 4.234375 
Q 6.78125 9.90625 6.78125 20.515625 
Q 6.78125 27.484375 10.78125 32.3125 
Q 14.796875 37.15625 21.921875 38.8125 
z
M 18.3125 54.390625 
Q 18.3125 48.734375 21.84375 45.5625 
Q 25.390625 42.390625 31.78125 42.390625 
Q 38.140625 42.390625 41.71875 45.5625 
Q 45.3125 48.734375 45.3125 54.390625 
Q 45.3125 60.0625 41.71875 63.234375 
Q 38.140625 66.40625 31.78125 66.40625 
Q 25.390625 66.40625 21.84375 63.234375 
Q 18.3125 60.0625 18.3125 54.390625 
z
" id="DejaVuSans-56"/>
      </defs>
      <g transform="translate(31.5125 62.990462)scale(0.1 -0.1)">
       <use xlink:href="#DejaVuSans-56"/>
       <use x="63.623047" xlink:href="#DejaVuSans-48"/>
       <use x="127.246094" xlink:href="#DejaVuSans-48"/>
      </g>
     </g>
    </g>
   </g>
   <g id="line2d_14">
    <path clip-path="url(#pc4c64f0168)" d="M 393.700432 56.185286 
L 209.429903 135.176472 
L 118.468203 252.710672 
L 86.581588 284.527556 
L 192.176682 121.214512 
L 186.332535 226.813245 
" style="fill:none;stroke:#ff0000;stroke-linecap:square;stroke-width:0.5;"/>
   </g>
   <g id="patch_3">
    <path d="M 57.6 307.584 
L 57.6 41.472 
" style="fill:none;stroke:#000000;stroke-linecap:square;stroke-linejoin:miter;stroke-width:0.8;"/>
   </g>
   <g id="patch_4">
    <path d="M 414.72 307.584 
L 414.72 41.472 
" style="fill:none;stroke:#000000;stroke-linecap:square;stroke-linejoin:miter;stroke-width:0.8;"/>
   </g>
   <g id="patch_5">
    <path d="M 57.6 307.584 
L 414.72 307.584 
" style="fill:none;stroke:#000000;stroke-linecap:square;stroke-linejoin:miter;stroke-width:0.8;"/>
   </g>
   <g id="patch_6">
    <path d="M 57.6 41.472 
L 414.72 41.472 
" style="fill:none;stroke:#000000;stroke-linecap:square;stroke-linejoin:miter;stroke-width:0.8;"/>
   </g>
   <g id="PathCollection_1">
    <defs>
     <path d="M 0 2.738613 
C 0.726289 2.738613 1.422928 2.450055 1.936492 1.936492 
C 2.450055 1.422928 2.738613 0.726289 2.738613 0 
C 2.738613 -0.726289 2.450055 -1.422928 1.936492 -1.936492 
C 1.422928 -2.450055 0.726289 -2.738613 0 -2.738613 
C -0.726289 -2.738613 -1.422928 -2.450055 -1.936492 -1.936492 
C -2.450055 -1.422928 -2.738613 -0.726289 -2.738613 0 
C -2.738613 0.726289 -2.450055 1.422928 -1.936492 1.936492 
C -1.422928 2.450055 -0.726289 2.738613 0 2.738613 
z
" id="mfa70e7e3c4" style="stroke:#ff0000;"/>
    </defs>
    <g clip-path="url(#pc4c64f0168)">
     <use style="fill:#ff0000;stroke:#ff0000;" x="393.700432" xlink:href="#mfa70e7e3c4" y="56.185286"/>
     <use style="fill:#ff0000;stroke:#ff0000;" x="209.429903" xlink:href="#mfa70e7e3c4" y="135.176472"/>
     <use style="fill:#ff0000;stroke:#ff0000;" x="118.468203" xlink:href="#mfa70e7e3c4" y="252.710672"/>
     <use style="fill:#ff0000;stroke:#ff0000;" x="86.581588" xlink:href="#mfa70e7e3c4" y="284.527556"/>
     <use style="fill:#ff0000;stroke:#ff0000;" x="192.176682" xlink:href="#mfa70e7e3c4" y="121.214512"/>
     <use style="fill:#ff0000;stroke:#ff0000;" x="186.332535" xlink:href="#mfa70e7e3c4" y="226.813245"/>
    </g>
   </g>
   <g id="text_13">
    <!-- (103) Subject: s7, Known = False, Degree = 2, Duration = 0.1 -->
    <defs>
     <path d="M 31 75.875 
Q 24.46875 64.65625 21.28125 53.65625 
Q 18.109375 42.671875 18.109375 31.390625 
Q 18.109375 20.125 21.3125 9.0625 
Q 24.515625 -2 31 -13.1875 
L 23.1875 -13.1875 
Q 15.875 -1.703125 12.234375 9.375 
Q 8.59375 20.453125 8.59375 31.390625 
Q 8.59375 42.28125 12.203125 53.3125 
Q 15.828125 64.359375 23.1875 75.875 
z
" id="DejaVuSans-40"/>
     <path d="M 12.40625 8.296875 
L 28.515625 8.296875 
L 28.515625 63.921875 
L 10.984375 60.40625 
L 10.984375 69.390625 
L 28.421875 72.90625 
L 38.28125 72.90625 
L 38.28125 8.296875 
L 54.390625 8.296875 
L 54.390625 0 
L 12.40625 0 
z
" id="DejaVuSans-49"/>
     <path d="M 40.578125 39.3125 
Q 47.65625 37.796875 51.625 33 
Q 55.609375 28.21875 55.609375 21.1875 
Q 55.609375 10.40625 48.1875 4.484375 
Q 40.765625 -1.421875 27.09375 -1.421875 
Q 22.515625 -1.421875 17.65625 -0.515625 
Q 12.796875 0.390625 7.625 2.203125 
L 7.625 11.71875 
Q 11.71875 9.328125 16.59375 8.109375 
Q 21.484375 6.890625 26.8125 6.890625 
Q 36.078125 6.890625 40.9375 10.546875 
Q 45.796875 14.203125 45.796875 21.1875 
Q 45.796875 27.640625 41.28125 31.265625 
Q 36.765625 34.90625 28.71875 34.90625 
L 20.21875 34.90625 
L 20.21875 43.015625 
L 29.109375 43.015625 
Q 36.375 43.015625 40.234375 45.921875 
Q 44.09375 48.828125 44.09375 54.296875 
Q 44.09375 59.90625 40.109375 62.90625 
Q 36.140625 65.921875 28.71875 65.921875 
Q 24.65625 65.921875 20.015625 65.03125 
Q 15.375 64.15625 9.8125 62.3125 
L 9.8125 71.09375 
Q 15.4375 72.65625 20.34375 73.4375 
Q 25.25 74.21875 29.59375 74.21875 
Q 40.828125 74.21875 47.359375 69.109375 
Q 53.90625 64.015625 53.90625 55.328125 
Q 53.90625 49.265625 50.4375 45.09375 
Q 46.96875 40.921875 40.578125 39.3125 
z
" id="DejaVuSans-51"/>
     <path d="M 8.015625 75.875 
L 15.828125 75.875 
Q 23.140625 64.359375 26.78125 53.3125 
Q 30.421875 42.28125 30.421875 31.390625 
Q 30.421875 20.453125 26.78125 9.375 
Q 23.140625 -1.703125 15.828125 -13.1875 
L 8.015625 -13.1875 
Q 14.5 -2 17.703125 9.0625 
Q 20.90625 20.125 20.90625 31.390625 
Q 20.90625 42.671875 17.703125 53.65625 
Q 14.5 64.65625 8.015625 75.875 
z
" id="DejaVuSans-41"/>
     <path id="DejaVuSans-32"/>
     <path d="M 53.515625 70.515625 
L 53.515625 60.890625 
Q 47.90625 63.578125 42.921875 64.890625 
Q 37.9375 66.21875 33.296875 66.21875 
Q 25.25 66.21875 20.875 63.09375 
Q 16.5 59.96875 16.5 54.203125 
Q 16.5 49.359375 19.40625 46.890625 
Q 22.3125 44.4375 30.421875 42.921875 
L 36.375 41.703125 
Q 47.40625 39.59375 52.65625 34.296875 
Q 57.90625 29 57.90625 20.125 
Q 57.90625 9.515625 50.796875 4.046875 
Q 43.703125 -1.421875 29.984375 -1.421875 
Q 24.8125 -1.421875 18.96875 -0.25 
Q 13.140625 0.921875 6.890625 3.21875 
L 6.890625 13.375 
Q 12.890625 10.015625 18.65625 8.296875 
Q 24.421875 6.59375 29.984375 6.59375 
Q 38.421875 6.59375 43.015625 9.90625 
Q 47.609375 13.234375 47.609375 19.390625 
Q 47.609375 24.75 44.3125 27.78125 
Q 41.015625 30.8125 33.5 32.328125 
L 27.484375 33.5 
Q 16.453125 35.6875 11.515625 40.375 
Q 6.59375 45.0625 6.59375 53.421875 
Q 6.59375 63.09375 13.40625 68.65625 
Q 20.21875 74.21875 32.171875 74.21875 
Q 37.3125 74.21875 42.625 73.28125 
Q 47.953125 72.359375 53.515625 70.515625 
z
" id="DejaVuSans-83"/>
     <path d="M 8.5 21.578125 
L 8.5 54.6875 
L 17.484375 54.6875 
L 17.484375 21.921875 
Q 17.484375 14.15625 20.5 10.265625 
Q 23.53125 6.390625 29.59375 6.390625 
Q 36.859375 6.390625 41.078125 11.03125 
Q 45.3125 15.671875 45.3125 23.6875 
L 45.3125 54.6875 
L 54.296875 54.6875 
L 54.296875 0 
L 45.3125 0 
L 45.3125 8.40625 
Q 42.046875 3.421875 37.71875 1 
Q 33.40625 -1.421875 27.6875 -1.421875 
Q 18.265625 -1.421875 13.375 4.4375 
Q 8.5 10.296875 8.5 21.578125 
z
M 31.109375 56 
z
" id="DejaVuSans-117"/>
     <path d="M 48.6875 27.296875 
Q 48.6875 37.203125 44.609375 42.84375 
Q 40.53125 48.484375 33.40625 48.484375 
Q 26.265625 48.484375 22.1875 42.84375 
Q 18.109375 37.203125 18.109375 27.296875 
Q 18.109375 17.390625 22.1875 11.75 
Q 26.265625 6.109375 33.40625 6.109375 
Q 40.53125 6.109375 44.609375 11.75 
Q 48.6875 17.390625 48.6875 27.296875 
z
M 18.109375 46.390625 
Q 20.953125 51.265625 25.265625 53.625 
Q 29.59375 56 35.59375 56 
Q 45.5625 56 51.78125 48.09375 
Q 58.015625 40.1875 58.015625 27.296875 
Q 58.015625 14.40625 51.78125 6.484375 
Q 45.5625 -1.421875 35.59375 -1.421875 
Q 29.59375 -1.421875 25.265625 0.953125 
Q 20.953125 3.328125 18.109375 8.203125 
L 18.109375 0 
L 9.078125 0 
L 9.078125 75.984375 
L 18.109375 75.984375 
z
" id="DejaVuSans-98"/>
     <path d="M 9.421875 54.6875 
L 18.40625 54.6875 
L 18.40625 -0.984375 
Q 18.40625 -11.421875 14.421875 -16.109375 
Q 10.453125 -20.796875 1.609375 -20.796875 
L -1.8125 -20.796875 
L -1.8125 -13.1875 
L 0.59375 -13.1875 
Q 5.71875 -13.1875 7.5625 -10.8125 
Q 9.421875 -8.453125 9.421875 -0.984375 
z
M 9.421875 75.984375 
L 18.40625 75.984375 
L 18.40625 64.59375 
L 9.421875 64.59375 
z
" id="DejaVuSans-106"/>
     <path d="M 56.203125 29.59375 
L 56.203125 25.203125 
L 14.890625 25.203125 
Q 15.484375 15.921875 20.484375 11.0625 
Q 25.484375 6.203125 34.421875 6.203125 
Q 39.59375 6.203125 44.453125 7.46875 
Q 49.3125 8.734375 54.109375 11.28125 
L 54.109375 2.78125 
Q 49.265625 0.734375 44.1875 -0.34375 
Q 39.109375 -1.421875 33.890625 -1.421875 
Q 20.796875 -1.421875 13.15625 6.1875 
Q 5.515625 13.8125 5.515625 26.8125 
Q 5.515625 40.234375 12.765625 48.109375 
Q 20.015625 56 32.328125 56 
Q 43.359375 56 49.78125 48.890625 
Q 56.203125 41.796875 56.203125 29.59375 
z
M 47.21875 32.234375 
Q 47.125 39.59375 43.09375 43.984375 
Q 39.0625 48.390625 32.421875 48.390625 
Q 24.90625 48.390625 20.390625 44.140625 
Q 15.875 39.890625 15.1875 32.171875 
z
" id="DejaVuSans-101"/>
     <path d="M 48.78125 52.59375 
L 48.78125 44.1875 
Q 44.96875 46.296875 41.140625 47.34375 
Q 37.3125 48.390625 33.40625 48.390625 
Q 24.65625 48.390625 19.8125 42.84375 
Q 14.984375 37.3125 14.984375 27.296875 
Q 14.984375 17.28125 19.8125 11.734375 
Q 24.65625 6.203125 33.40625 6.203125 
Q 37.3125 6.203125 41.140625 7.25 
Q 44.96875 8.296875 48.78125 10.40625 
L 48.78125 2.09375 
Q 45.015625 0.34375 40.984375 -0.53125 
Q 36.96875 -1.421875 32.421875 -1.421875 
Q 20.0625 -1.421875 12.78125 6.34375 
Q 5.515625 14.109375 5.515625 27.296875 
Q 5.515625 40.671875 12.859375 48.328125 
Q 20.21875 56 33.015625 56 
Q 37.15625 56 41.109375 55.140625 
Q 45.0625 54.296875 48.78125 52.59375 
z
" id="DejaVuSans-99"/>
     <path d="M 18.3125 70.21875 
L 18.3125 54.6875 
L 36.8125 54.6875 
L 36.8125 47.703125 
L 18.3125 47.703125 
L 18.3125 18.015625 
Q 18.3125 11.328125 20.140625 9.421875 
Q 21.96875 7.515625 27.59375 7.515625 
L 36.8125 7.515625 
L 36.8125 0 
L 27.59375 0 
Q 17.1875 0 13.234375 3.875 
Q 9.28125 7.765625 9.28125 18.015625 
L 9.28125 47.703125 
L 2.6875 47.703125 
L 2.6875 54.6875 
L 9.28125 54.6875 
L 9.28125 70.21875 
z
" id="DejaVuSans-116"/>
     <path d="M 11.71875 12.40625 
L 22.015625 12.40625 
L 22.015625 0 
L 11.71875 0 
z
M 11.71875 51.703125 
L 22.015625 51.703125 
L 22.015625 39.3125 
L 11.71875 39.3125 
z
" id="DejaVuSans-58"/>
     <path d="M 44.28125 53.078125 
L 44.28125 44.578125 
Q 40.484375 46.53125 36.375 47.5 
Q 32.28125 48.484375 27.875 48.484375 
Q 21.1875 48.484375 17.84375 46.4375 
Q 14.5 44.390625 14.5 40.28125 
Q 14.5 37.15625 16.890625 35.375 
Q 19.28125 33.59375 26.515625 31.984375 
L 29.59375 31.296875 
Q 39.15625 29.25 43.1875 25.515625 
Q 47.21875 21.78125 47.21875 15.09375 
Q 47.21875 7.46875 41.1875 3.015625 
Q 35.15625 -1.421875 24.609375 -1.421875 
Q 20.21875 -1.421875 15.453125 -0.5625 
Q 10.6875 0.296875 5.421875 2 
L 5.421875 11.28125 
Q 10.40625 8.6875 15.234375 7.390625 
Q 20.0625 6.109375 24.8125 6.109375 
Q 31.15625 6.109375 34.5625 8.28125 
Q 37.984375 10.453125 37.984375 14.40625 
Q 37.984375 18.0625 35.515625 20.015625 
Q 33.0625 21.96875 24.703125 23.78125 
L 21.578125 24.515625 
Q 13.234375 26.265625 9.515625 29.90625 
Q 5.8125 33.546875 5.8125 39.890625 
Q 5.8125 47.609375 11.28125 51.796875 
Q 16.75 56 26.8125 56 
Q 31.78125 56 36.171875 55.265625 
Q 40.578125 54.546875 44.28125 53.078125 
z
" id="DejaVuSans-115"/>
     <path d="M 8.203125 72.90625 
L 55.078125 72.90625 
L 55.078125 68.703125 
L 28.609375 0 
L 18.3125 0 
L 43.21875 64.59375 
L 8.203125 64.59375 
z
" id="DejaVuSans-55"/>
     <path d="M 11.71875 12.40625 
L 22.015625 12.40625 
L 22.015625 4 
L 14.015625 -11.625 
L 7.71875 -11.625 
L 11.71875 4 
z
" id="DejaVuSans-44"/>
     <path d="M 9.8125 72.90625 
L 19.671875 72.90625 
L 19.671875 42.09375 
L 52.390625 72.90625 
L 65.09375 72.90625 
L 28.90625 38.921875 
L 67.671875 0 
L 54.6875 0 
L 19.671875 35.109375 
L 19.671875 0 
L 9.8125 0 
z
" id="DejaVuSans-75"/>
     <path d="M 54.890625 33.015625 
L 54.890625 0 
L 45.90625 0 
L 45.90625 32.71875 
Q 45.90625 40.484375 42.875 44.328125 
Q 39.84375 48.1875 33.796875 48.1875 
Q 26.515625 48.1875 22.3125 43.546875 
Q 18.109375 38.921875 18.109375 30.90625 
L 18.109375 0 
L 9.078125 0 
L 9.078125 54.6875 
L 18.109375 54.6875 
L 18.109375 46.1875 
Q 21.34375 51.125 25.703125 53.5625 
Q 30.078125 56 35.796875 56 
Q 45.21875 56 50.046875 50.171875 
Q 54.890625 44.34375 54.890625 33.015625 
z
" id="DejaVuSans-110"/>
     <path d="M 30.609375 48.390625 
Q 23.390625 48.390625 19.1875 42.75 
Q 14.984375 37.109375 14.984375 27.296875 
Q 14.984375 17.484375 19.15625 11.84375 
Q 23.34375 6.203125 30.609375 6.203125 
Q 37.796875 6.203125 41.984375 11.859375 
Q 46.1875 17.53125 46.1875 27.296875 
Q 46.1875 37.015625 41.984375 42.703125 
Q 37.796875 48.390625 30.609375 48.390625 
z
M 30.609375 56 
Q 42.328125 56 49.015625 48.375 
Q 55.71875 40.765625 55.71875 27.296875 
Q 55.71875 13.875 49.015625 6.21875 
Q 42.328125 -1.421875 30.609375 -1.421875 
Q 18.84375 -1.421875 12.171875 6.21875 
Q 5.515625 13.875 5.515625 27.296875 
Q 5.515625 40.765625 12.171875 48.375 
Q 18.84375 56 30.609375 56 
z
" id="DejaVuSans-111"/>
     <path d="M 4.203125 54.6875 
L 13.1875 54.6875 
L 24.421875 12.015625 
L 35.59375 54.6875 
L 46.1875 54.6875 
L 57.421875 12.015625 
L 68.609375 54.6875 
L 77.59375 54.6875 
L 63.28125 0 
L 52.6875 0 
L 40.921875 44.828125 
L 29.109375 0 
L 18.5 0 
z
" id="DejaVuSans-119"/>
     <path d="M 10.59375 45.40625 
L 73.1875 45.40625 
L 73.1875 37.203125 
L 10.59375 37.203125 
z
M 10.59375 25.484375 
L 73.1875 25.484375 
L 73.1875 17.1875 
L 10.59375 17.1875 
z
" id="DejaVuSans-61"/>
     <path d="M 9.8125 72.90625 
L 51.703125 72.90625 
L 51.703125 64.59375 
L 19.671875 64.59375 
L 19.671875 43.109375 
L 48.578125 43.109375 
L 48.578125 34.8125 
L 19.671875 34.8125 
L 19.671875 0 
L 9.8125 0 
z
" id="DejaVuSans-70"/>
     <path d="M 34.28125 27.484375 
Q 23.390625 27.484375 19.1875 25 
Q 14.984375 22.515625 14.984375 16.5 
Q 14.984375 11.71875 18.140625 8.90625 
Q 21.296875 6.109375 26.703125 6.109375 
Q 34.1875 6.109375 38.703125 11.40625 
Q 43.21875 16.703125 43.21875 25.484375 
L 43.21875 27.484375 
z
M 52.203125 31.203125 
L 52.203125 0 
L 43.21875 0 
L 43.21875 8.296875 
Q 40.140625 3.328125 35.546875 0.953125 
Q 30.953125 -1.421875 24.3125 -1.421875 
Q 15.921875 -1.421875 10.953125 3.296875 
Q 6 8.015625 6 15.921875 
Q 6 25.140625 12.171875 29.828125 
Q 18.359375 34.515625 30.609375 34.515625 
L 43.21875 34.515625 
L 43.21875 35.40625 
Q 43.21875 41.609375 39.140625 45 
Q 35.0625 48.390625 27.6875 48.390625 
Q 23 48.390625 18.546875 47.265625 
Q 14.109375 46.140625 10.015625 43.890625 
L 10.015625 52.203125 
Q 14.9375 54.109375 19.578125 55.046875 
Q 24.21875 56 28.609375 56 
Q 40.484375 56 46.34375 49.84375 
Q 52.203125 43.703125 52.203125 31.203125 
z
" id="DejaVuSans-97"/>
     <path d="M 9.421875 75.984375 
L 18.40625 75.984375 
L 18.40625 0 
L 9.421875 0 
z
" id="DejaVuSans-108"/>
     <path d="M 19.671875 64.796875 
L 19.671875 8.109375 
L 31.59375 8.109375 
Q 46.6875 8.109375 53.6875 14.9375 
Q 60.6875 21.78125 60.6875 36.53125 
Q 60.6875 51.171875 53.6875 57.984375 
Q 46.6875 64.796875 31.59375 64.796875 
z
M 9.8125 72.90625 
L 30.078125 72.90625 
Q 51.265625 72.90625 61.171875 64.09375 
Q 71.09375 55.28125 71.09375 36.53125 
Q 71.09375 17.671875 61.125 8.828125 
Q 51.171875 0 30.078125 0 
L 9.8125 0 
z
" id="DejaVuSans-68"/>
     <path d="M 45.40625 27.984375 
Q 45.40625 37.75 41.375 43.109375 
Q 37.359375 48.484375 30.078125 48.484375 
Q 22.859375 48.484375 18.828125 43.109375 
Q 14.796875 37.75 14.796875 27.984375 
Q 14.796875 18.265625 18.828125 12.890625 
Q 22.859375 7.515625 30.078125 7.515625 
Q 37.359375 7.515625 41.375 12.890625 
Q 45.40625 18.265625 45.40625 27.984375 
z
M 54.390625 6.78125 
Q 54.390625 -7.171875 48.1875 -13.984375 
Q 42 -20.796875 29.203125 -20.796875 
Q 24.46875 -20.796875 20.265625 -20.09375 
Q 16.0625 -19.390625 12.109375 -17.921875 
L 12.109375 -9.1875 
Q 16.0625 -11.328125 19.921875 -12.34375 
Q 23.78125 -13.375 27.78125 -13.375 
Q 36.625 -13.375 41.015625 -8.765625 
Q 45.40625 -4.15625 45.40625 5.171875 
L 45.40625 9.625 
Q 42.625 4.78125 38.28125 2.390625 
Q 33.9375 0 27.875 0 
Q 17.828125 0 11.671875 7.65625 
Q 5.515625 15.328125 5.515625 27.984375 
Q 5.515625 40.671875 11.671875 48.328125 
Q 17.828125 56 27.875 56 
Q 33.9375 56 38.28125 53.609375 
Q 42.625 51.21875 45.40625 46.390625 
L 45.40625 54.6875 
L 54.390625 54.6875 
z
" id="DejaVuSans-103"/>
     <path d="M 41.109375 46.296875 
Q 39.59375 47.171875 37.8125 47.578125 
Q 36.03125 48 33.890625 48 
Q 26.265625 48 22.1875 43.046875 
Q 18.109375 38.09375 18.109375 28.8125 
L 18.109375 0 
L 9.078125 0 
L 9.078125 54.6875 
L 18.109375 54.6875 
L 18.109375 46.1875 
Q 20.953125 51.171875 25.484375 53.578125 
Q 30.03125 56 36.53125 56 
Q 37.453125 56 38.578125 55.875 
Q 39.703125 55.765625 41.0625 55.515625 
z
" id="DejaVuSans-114"/>
     <path d="M 9.421875 54.6875 
L 18.40625 54.6875 
L 18.40625 0 
L 9.421875 0 
z
M 9.421875 75.984375 
L 18.40625 75.984375 
L 18.40625 64.59375 
L 9.421875 64.59375 
z
" id="DejaVuSans-105"/>
     <path d="M 10.6875 12.40625 
L 21 12.40625 
L 21 0 
L 10.6875 0 
z
" id="DejaVuSans-46"/>
    </defs>
    <g transform="translate(49.741875 35.472)scale(0.12 -0.12)">
     <use xlink:href="#DejaVuSans-40"/>
     <use x="39.013672" xlink:href="#DejaVuSans-49"/>
     <use x="102.636719" xlink:href="#DejaVuSans-48"/>
     <use x="166.259766" xlink:href="#DejaVuSans-51"/>
     <use x="229.882812" xlink:href="#DejaVuSans-41"/>
     <use x="268.896484" xlink:href="#DejaVuSans-32"/>
     <use x="300.683594" xlink:href="#DejaVuSans-83"/>
     <use x="364.160156" xlink:href="#DejaVuSans-117"/>
     <use x="427.539062" xlink:href="#DejaVuSans-98"/>
     <use x="491.015625" xlink:href="#DejaVuSans-106"/>
     <use x="518.798828" xlink:href="#DejaVuSans-101"/>
     <use x="580.322266" xlink:href="#DejaVuSans-99"/>
     <use x="635.302734" xlink:href="#DejaVuSans-116"/>
     <use x="674.511719" xlink:href="#DejaVuSans-58"/>
     <use x="708.203125" xlink:href="#DejaVuSans-32"/>
     <use x="739.990234" xlink:href="#DejaVuSans-115"/>
     <use x="792.089844" xlink:href="#DejaVuSans-55"/>
     <use x="855.712891" xlink:href="#DejaVuSans-44"/>
     <use x="887.5" xlink:href="#DejaVuSans-32"/>
     <use x="919.287109" xlink:href="#DejaVuSans-75"/>
     <use x="984.863281" xlink:href="#DejaVuSans-110"/>
     <use x="1048.242188" xlink:href="#DejaVuSans-111"/>
     <use x="1109.423828" xlink:href="#DejaVuSans-119"/>
     <use x="1191.210938" xlink:href="#DejaVuSans-110"/>
     <use x="1254.589844" xlink:href="#DejaVuSans-32"/>
     <use x="1286.376953" xlink:href="#DejaVuSans-61"/>
     <use x="1370.166016" xlink:href="#DejaVuSans-32"/>
     <use x="1401.953125" xlink:href="#DejaVuSans-70"/>
     <use x="1459.332031" xlink:href="#DejaVuSans-97"/>
     <use x="1520.611328" xlink:href="#DejaVuSans-108"/>
     <use x="1548.394531" xlink:href="#DejaVuSans-115"/>
     <use x="1600.494141" xlink:href="#DejaVuSans-101"/>
     <use x="1662.017578" xlink:href="#DejaVuSans-44"/>
     <use x="1693.804688" xlink:href="#DejaVuSans-32"/>
     <use x="1725.591797" xlink:href="#DejaVuSans-68"/>
     <use x="1802.59375" xlink:href="#DejaVuSans-101"/>
     <use x="1864.117188" xlink:href="#DejaVuSans-103"/>
     <use x="1927.59375" xlink:href="#DejaVuSans-114"/>
     <use x="1968.675781" xlink:href="#DejaVuSans-101"/>
     <use x="2030.199219" xlink:href="#DejaVuSans-101"/>
     <use x="2091.722656" xlink:href="#DejaVuSans-32"/>
     <use x="2123.509766" xlink:href="#DejaVuSans-61"/>
     <use x="2207.298828" xlink:href="#DejaVuSans-32"/>
     <use x="2239.085938" xlink:href="#DejaVuSans-50"/>
     <use x="2302.708984" xlink:href="#DejaVuSans-44"/>
     <use x="2334.496094" xlink:href="#DejaVuSans-32"/>
     <use x="2366.283203" xlink:href="#DejaVuSans-68"/>
     <use x="2443.285156" xlink:href="#DejaVuSans-117"/>
     <use x="2506.664062" xlink:href="#DejaVuSans-114"/>
     <use x="2547.777344" xlink:href="#DejaVuSans-97"/>
     <use x="2609.056641" xlink:href="#DejaVuSans-116"/>
     <use x="2648.265625" xlink:href="#DejaVuSans-105"/>
     <use x="2676.048828" xlink:href="#DejaVuSans-111"/>
     <use x="2737.230469" xlink:href="#DejaVuSans-110"/>
     <use x="2800.609375" xlink:href="#DejaVuSans-32"/>
     <use x="2832.396484" xlink:href="#DejaVuSans-61"/>
     <use x="2916.185547" xlink:href="#DejaVuSans-32"/>
     <use x="2947.972656" xlink:href="#DejaVuSans-48"/>
     <use x="3011.595703" xlink:href="#DejaVuSans-46"/>
     <use x="3043.382812" xlink:href="#DejaVuSans-49"/>
    </g>
   </g>
  </g>
 </g>
 <defs>
  <clipPath id="pc4c64f0168">
   <rect height="266.112" width="357.12" x="57.6" y="41.472"/>
  </clipPath>
 </defs>
</svg>
