<?xml version="1.0" encoding="utf-8" standalone="no"?>
<!DOCTYPE svg PUBLIC "-//W3C//DTD SVG 1.1//EN"
  "http://www.w3.org/Graphics/SVG/1.1/DTD/svg11.dtd">
<!-- Created with matplotlib (https://matplotlib.org/) -->
<svg height="345.6pt" version="1.1" viewBox="0 0 460.8 345.6" width="460.8pt" xmlns="http://www.w3.org/2000/svg" xmlns:xlink="http://www.w3.org/1999/xlink">
 <defs>
  <style type="text/css">
*{stroke-linecap:butt;stroke-linejoin:round;}
  </style>
 </defs>
 <g id="figure_1">
  <g id="patch_1">
   <path d="M 0 345.6 
L 460.8 345.6 
L 460.8 0 
L 0 0 
z
" style="fill:#ffffff;"/>
  </g>
  <g id="axes_1">
   <g id="patch_2">
    <path d="M 57.6 307.584 
L 414.72 307.584 
L 414.72 41.472 
L 57.6 41.472 
z
" style="fill:#ffffff;"/>
   </g>
   <g id="line2d_1">
    <path clip-path="url(#p4a97f6084f)" d="M 398.290848 268.158282 
L 398.094422 267.84903 
L 397.997721 267.227128 
L 397.801296 267.539778 
L 397.901019 269.402087 
L 398.094422 269.711339 
L 397.997721 267.227128 
L 397.997721 267.539778 
L 397.901019 268.158282 
L 397.704594 268.470932 
L 397.704594 268.780184 
L 398.194146 267.84903 
L 398.094422 266.917876 
L 397.997721 266.608624 
L 397.901019 266.917876 
L 397.801296 267.84903 
L 397.801296 267.84903 
L 397.997721 267.84903 
L 398.194146 267.227128 
L 398.194146 269.092835 
L 398.290848 267.84903 
L 398.387549 268.158282 
L 398.487273 267.84903 
L 398.487273 268.158282 
L 398.290848 269.092835 
L 397.997721 269.402087 
L 397.801296 269.092835 
L 397.704594 269.402087 
L 397.704594 270.023989 
L 397.801296 270.023989 
L 397.997721 269.402087 
L 397.997721 269.402087 
L 397.901019 269.092835 
L 397.901019 269.092835 
L 397.997721 267.539778 
L 398.194146 267.539778 
L 398.194146 269.092835 
L 397.801296 269.092835 
L 397.801296 268.780184 
L 397.997721 268.470932 
L 398.094422 267.227128 
L 397.997721 267.227128 
L 397.997721 267.227128 
L 398.094422 266.917876 
L 397.801296 268.158282 
L 397.901019 267.84903 
L 397.704594 267.539778 
L 397.314766 267.539778 
L 397.607892 267.539778 
L 397.704594 267.227128 
L 397.411467 268.470932 
L 397.411467 270.333241 
L 397.508169 269.402087 
L 397.801296 269.092835 
L 397.801296 269.092835 
L 397.508169 270.023989 
L 397.508169 269.711339 
L 397.411467 269.402087 
L 397.607892 269.402087 
L 397.801296 267.84903 
L 397.704594 268.470932 
L 397.021639 269.092835 
L 397.021639 268.780184 
L 397.411467 267.84903 
L 397.801296 265.986721 
L 397.704594 266.295973 
L 397.607892 266.295973 
L 397.704594 266.295973 
L 397.704594 266.917876 
L 397.411467 268.780184 
L 397.607892 268.158282 
L 397.801296 268.158282 
L 397.801296 267.227128 
L 397.607892 266.917876 
L 397.11834 267.539778 
L 397.11834 268.158282 
L 397.215042 267.84903 
L 397.314766 267.539778 
L 397.607892 267.227128 
L 397.801296 267.227128 
L 397.997721 268.158282 
L 397.901019 268.470932 
L 397.215042 267.227128 
L 397.021639 267.227128 
L 397.021639 268.158282 
L 397.314766 268.158282 
L 397.704594 267.227128 
L 397.901019 266.917876 
L 397.901019 266.608624 
L 397.801296 266.608624 
L 397.508169 267.227128 
L 397.704594 268.158282 
L 397.801296 267.84903 
L 397.607892 267.84903 
L 397.411467 267.539778 
L 397.704594 266.608624 
L 397.607892 266.608624 
L 397.314766 266.917876 
L 397.508169 265.986721 
L 397.411467 265.674071 
L 397.411467 265.986721 
L 397.508169 266.917876 
L 397.607892 267.227128 
L 397.607892 266.917876 
L 397.801296 266.608624 
L 397.901019 265.986721 
L 397.508169 264.742917 
L 398.094422 264.742917 
L 398.194146 265.364819 
L 397.607892 266.917876 
L 397.411467 267.227128 
L 397.704594 266.608624 
L 397.801296 265.674071 
L 397.607892 266.608624 
L 397.508169 266.608624 
L 397.508169 266.608624 
L 397.901019 265.674071 
L 398.194146 265.055567 
L 398.290848 264.433665 
L 397.997721 264.433665 
L 397.704594 265.674071 
L 397.704594 266.917876 
L 397.704594 265.364819 
L 397.997721 266.608624 
L 397.901019 267.227128 
L 397.901019 266.917876 
L 397.704594 266.917876 
L 397.314766 267.539778 
L 397.11834 267.227128 
L 397.215042 267.539778 
L 397.314766 268.780184 
L 397.508169 269.092835 
L 397.801296 268.158282 
L 397.801296 267.539778 
L 397.314766 267.539778 
L 397.215042 267.227128 
L 396.921915 267.539778 
L 395.945833 270.333241 
L 395.163154 271.886297 
L 393.794222 273.748606 
L 392.132163 276.545467 
L 389.980552 279.65158 
L 387.439112 282.754295 
L 384.408121 286.173059 
L 380.890599 289.897676 
L 377.076929 293.003789 
L 372.776729 295.178748 
L 367.69385 295.488 
L 362.021695 294.866098 
L 356.255861 293.313041 
L 350.780131 291.450733 
L 345.697252 288.65727 
L 340.810799 284.620002 
L 336.117748 279.960832 
L 331.327996 276.232817 
L 325.852266 272.817452 
L 319.790283 270.955143 
L 313.338472 270.955143 
L 306.496832 272.195549 
L 299.848595 274.370508 
L 293.493486 275.923565 
L 287.727651 275.301663 
L 282.545049 273.439354 
L 277.85502 270.645891 
L 268.958471 266.917876 
L 264.362122 265.674071 
L 254.782617 264.433665 
L 249.896163 264.121014 
L 240.803189 264.121014 
L 236.403265 263.811762 
L 232.199766 262.880608 
L 221.154628 261.949454 
L 217.927211 261.949454 
L 214.995943 261.327552 
L 212.35478 261.0183 
L 210.206191 261.0183 
L 206.099394 261.636804 
L 204.537058 261.636804 
L 204.144208 261.949454 
L 204.144208 262.258706 
L 204.047506 261.949454 
L 203.947783 261.636804 
L 204.047506 261.949454 
L 204.340633 260.705649 
L 204.24091 260.705649 
L 203.947783 261.327552 
L 203.947783 261.0183 
L 203.361529 261.636804 
L 203.361529 261.636804 
L 203.557954 259.774495 
L 203.461253 260.087145 
L 203.361529 260.396397 
L 203.361529 260.087145 
L 203.264828 260.087145 
L 203.168126 260.396397 
L 203.168126 260.396397 
L 203.461253 258.534089 
L 203.654656 257.599536 
L 203.361529 256.668382 
L 203.75438 258.221438 
L 203.654656 258.221438 
L 203.461253 257.912186 
L 203.361529 256.981032 
L 203.557954 256.35913 
L 203.557954 255.737228 
L 203.461253 256.049878 
L 203.361529 256.049878 
L 203.168126 255.427976 
L 203.168126 255.427976 
L 203.75438 255.427976 
L 203.75438 255.427976 
L 203.461253 255.737228 
L 203.361529 256.049878 
L 203.461253 256.35913 
L 203.461253 256.35913 
L 203.557954 255.737228 
L 203.168126 256.981032 
L 202.971701 256.049878 
L 203.068402 256.049878 
L 202.971701 254.496821 
L 203.068402 255.115325 
L 203.361529 255.115325 
L 203.557954 255.427976 
L 203.461253 255.427976 
L 203.557954 254.806073 
L 203.851081 254.496821 
L 203.851081 254.806073 
L 203.361529 256.049878 
L 203.168126 255.427976 
L 203.264828 254.184171 
L 203.461253 253.874919 
L 203.557954 254.496821 
L 203.461253 255.427976 
L 203.264828 255.115325 
L 203.361529 254.184171 
L 203.557954 253.874919 
L 203.461253 254.184171 
L 203.361529 254.496821 
L 203.168126 253.562269 
L 203.361529 253.874919 
L 203.557954 253.562269 
L 203.75438 253.562269 
L 203.654656 254.496821 
L 203.75438 252.321862 
L 203.851081 253.253017 
L 203.947783 252.321862 
L 203.75438 252.01261 
L 203.557954 252.321862 
L 203.461253 252.943765 
L 203.461253 252.943765 
L 203.654656 252.943765 
L 203.947783 252.321862 
L 203.75438 252.943765 
L 203.557954 252.631114 
L 203.361529 251.69996 
L 203.557954 250.768806 
L 203.75438 250.768806 
L 203.75438 251.390708 
L 203.461253 252.321862 
L 203.461253 252.01261 
L 203.75438 249.837651 
L 203.947783 249.837651 
L 203.947783 249.837651 
L 203.947783 247.662693 
L 203.75438 246.422286 
L 202.581872 243.625425 
L 201.69947 240.519312 
L 200.82009 236.794695 
L 199.844008 233.997834 
L 198.475075 231.513623 
L 196.616591 229.029412 
L 194.564703 225.923299 
L 192.413092 222.198681 
L 190.068078 217.539512 
L 187.426915 212.57109 
L 184.885475 208.533822 
L 182.443759 205.427709 
L 177.457582 197.975077 
L 172.274979 189.900542 
L 164.064407 178.410641 
L 161.423244 174.373374 
L 158.785103 170.026855 
L 154.385179 161.021165 
L 150.574531 151.393574 
L 149.009173 147.043656 
L 146.564435 138.969121 
L 145.391928 134.622602 
L 144.512548 130.585334 
L 143.533444 123.441953 
L 142.94719 115.367418 
L 142.654064 111.020899 
L 142.654064 107.292883 
L 142.850489 104.190169 
L 143.143615 97.35604 
L 143.533444 93.940675 
L 144.902376 87.728448 
L 145.195503 85.244238 
L 145.48863 84.622335 
L 145.88148 84.313083 
L 145.978182 83.691181 
L 146.077905 82.138124 
L 146.564435 81.51962 
L 146.564435 81.20697 
L 146.664159 81.20697 
L 146.760861 80.897718 
L 146.857562 77.791605 
L 147.053987 77.791605 
L 147.347114 77.482353 
L 147.543539 76.551199 
L 147.640241 74.37624 
L 147.836666 73.754337 
L 148.033091 73.754337 
L 148.129793 70.960875 
L 148.226495 70.02972 
L 148.519621 70.02972 
L 148.519621 70.338972 
L 148.42292 70.02972 
L 148.226495 69.71707 
L 148.326218 69.095168 
L 148.812748 67.232859 
L 148.42292 65.679802 
L 148.619345 65.992453 
L 148.812748 66.301705 
L 149.105875 66.301705 
L 149.498725 65.37055 
L 149.595427 64.748648 
L 149.498725 64.126746 
L 149.3023 63.817494 
L 149.3023 63.504844 
L 149.595427 63.504844 
L 149.791852 62.88634 
L 149.888554 63.504844 
L 149.791852 62.88634 
L 149.888554 62.264437 
L 150.18168 61.955185 
L 150.474807 61.955185 
L 150.378106 61.955185 
L 150.281404 61.642535 
L 150.378106 60.089478 
L 150.574531 59.470974 
L 150.574531 59.780226 
L 150.474807 61.333283 
L 150.574531 60.402129 
L 150.767934 58.536422 
L 150.767934 58.536422 
L 150.867658 59.780226 
L 150.867658 60.089478 
L 150.964359 58.22717 
L 151.160784 57.605267 
L 151.354188 57.605267 
L 151.453911 57.917918 
L 151.354188 57.605267 
L 151.647314 55.742959 
L 151.647314 56.052211 
L 151.257486 56.674113 
L 151.160784 57.296016 
L 151.257486 57.296016 
L 151.453911 56.674113 
L 151.647314 56.674113 
L 151.647314 56.674113 
L 151.453911 56.983365 
L 151.453911 55.433707 
L 151.453911 55.433707 
L 151.84374 55.742959 
L 152.23659 55.742959 
L 152.333292 56.052211 
L 152.23659 56.052211 
L 151.943463 55.742959 
L 151.550613 55.742959 
L 151.550613 55.742959 
L 151.647314 55.433707 
L 151.84374 55.742959 
L 151.747038 55.742959 
L 151.747038 56.052211 
L 151.647314 54.499154 
L 152.040165 53.568 
L 152.333292 53.88065 
L 152.23659 55.121057 
L 151.943463 56.052211 
L 152.040165 55.742959 
L 151.943463 55.433707 
L 151.943463 55.433707 
L 152.136866 55.121057 
L 152.136866 54.499154 
L 152.040165 55.742959 
L 151.747038 55.433707 
L 151.84374 54.499154 
L 152.136866 54.811805 
L 152.333292 55.742959 
L 152.23659 55.121057 
L 152.429993 55.121057 
L 152.429993 55.121057 
L 152.23659 55.433707 
L 152.136866 56.364861 
L 152.429993 55.742959 
L 152.429993 56.052211 
L 152.429993 57.296016 
L 152.529717 57.296016 
L 152.822844 56.983365 
L 152.822844 56.674113 
L 152.72312 56.674113 
L 152.529717 56.674113 
L 152.626418 57.917918 
L 152.72312 58.536422 
L 152.72312 57.917918 
L 152.626418 55.742959 
L 152.23659 55.742959 
L 151.647314 56.052211 
L 149.498725 55.121057 
L 148.619345 55.121057 
L 147.150689 55.742959 
L 143.729869 57.605267 
L 142.06781 58.849072 
L 140.212348 60.089478 
L 135.715722 64.126746 
L 133.464387 66.923607 
L 131.4125 70.02972 
L 129.164187 72.823183 
L 126.819173 75.307394 
L 122.222824 80.897718 
L 117.433072 87.419196 
L 115.28146 89.594155 
L 112.839744 91.456464 
L 110.395007 94.249927 
L 108.146694 97.046788 
L 106.094806 99.840251 
L 104.13962 102.946364 
L 101.988009 106.983632 
L 97.980936 114.127012 
L 94.656817 120.026588 
L 89.963767 126.857319 
L 87.225902 131.829139 
L 85.760268 134.000699 
L 84.391336 136.48491 
L 83.415254 139.903674 
L 82.729277 143.006388 
L 81.946598 145.490599 
L 78.818905 153.565134 
L 77.549696 159.468109 
L 77.156846 162.570824 
L 74.908533 174.064122 
L 74.615406 175.926431 
L 74.712108 180.894852 
L 75.008256 186.175924 
L 74.908533 191.144346 
L 74.712108 193.315907 
L 74.811831 196.112768 
L 74.908533 197.665825 
L 74.908533 206.049612 
L 74.712108 207.91192 
L 74.125854 209.155725 
L 74.029152 210.708781 
L 74.125854 215.055301 
L 73.832727 216.917609 
L 74.029152 220.645625 
L 74.029152 223.751738 
L 73.832727 224.992144 
L 74.029152 225.304795 
L 74.125854 225.923299 
L 73.932451 227.789006 
L 74.029152 228.098257 
L 74.322279 228.410908 
L 74.125854 229.342062 
L 74.125854 230.582468 
L 74.125854 230.273216 
L 74.322279 231.204371 
L 74.322279 231.826273 
L 74.322279 231.826273 
L 74.518704 231.826273 
L 74.712108 232.444777 
L 74.615406 236.482044 
L 74.418981 237.103947 
L 74.811831 236.172792 
L 74.908533 236.482044 
L 74.811831 236.482044 
L 74.615406 236.794695 
L 74.322279 238.347751 
L 74.225578 239.588158 
L 74.225578 239.588158 
L 74.418981 239.278906 
L 74.518704 240.831962 
L 74.615406 241.141214 
L 74.712108 240.519312 
L 74.712108 240.519312 
L 74.418981 240.519312 
L 74.322279 240.831962 
L 74.518704 241.453865 
L 75.104958 239.900808 
L 75.104958 240.831962 
L 75.104958 240.831962 
L 75.398085 241.763117 
L 75.20166 241.763117 
L 75.104958 241.763117 
L 75.104958 240.21006 
L 75.008256 240.831962 
L 74.908533 241.763117 
L 75.494786 241.763117 
L 75.691212 241.453865 
L 75.494786 241.141214 
L 75.59451 243.003523 
L 75.691212 243.003523 
L 75.691212 243.003523 
L 75.691212 243.316173 
L 75.787913 243.003523 
L 75.887637 243.003523 
L 75.691212 243.316173 
L 76.180764 242.694271 
L 76.08104 242.385019 
L 75.691212 242.385019 
L 75.887637 242.694271 
L 76.08104 242.385019 
L 76.08104 241.763117 
L 76.47389 241.763117 
L 76.47389 241.763117 
L 76.180764 242.385019 
L 76.180764 241.453865 
L 76.47389 242.072368 
L 76.570592 242.385019 
L 76.570592 243.625425 
L 76.767017 243.625425 
L 77.060144 243.003523 
L 77.060144 242.385019 
L 76.863719 242.072368 
L 76.767017 242.385019 
L 76.767017 242.385019 
L 76.767017 243.938075 
L 76.667294 243.625425 
L 76.570592 243.316173 
L 76.863719 243.316173 
L 76.963442 243.003523 
L 76.963442 242.385019 
L 76.863719 243.316173 
L 76.767017 244.247327 
L 76.767017 243.938075 
L 76.767017 243.003523 
L 76.963442 242.694271 
L 77.256569 243.316173 
L 77.156846 244.556579 
L 76.963442 245.491132 
L 77.156846 245.800384 
L 77.449972 245.800384 
L 77.549696 244.86923 
L 77.842823 243.938075 
L 78.135949 243.625425 
L 78.135949 244.247327 
L 77.842823 244.86923 
L 77.449972 244.86923 
L 77.646398 244.86923 
L 77.646398 244.556579 
L 77.646398 244.556579 
L 77.842823 244.556579 
L 77.842823 244.556579 
L 77.646398 245.491132 
L 77.743099 245.491132 
L 77.549696 244.556579 
L 77.743099 244.86923 
L 78.036226 245.491132 
L 77.842823 244.86923 
L 77.743099 246.109636 
L 78.429076 243.938075 
L 77.646398 246.731538 
L 78.135949 244.556579 
L 77.939524 244.247327 
L 78.036226 243.003523 
L 78.036226 243.316173 
L 78.135949 243.625425 
L 78.232651 243.316173 
L 78.232651 243.316173 
L 78.329353 243.625425 
L 78.722203 243.938075 
L 78.525778 242.072368 
L 78.62248 243.625425 
L 78.429076 243.625425 
L 78.329353 243.938075 
L 78.525778 243.003523 
L 78.429076 241.763117 
L 78.525778 240.831962 
L 78.818905 240.519312 
L 80.577665 236.794695 
L 81.753195 234.619736 
L 84.488037 230.273216 
L 87.812156 224.37364 
L 89.963767 221.267527 
L 96.90513 209.777627 
L 99.739696 206.358864 
L 102.670964 202.321596 
L 105.508553 197.975077 
L 114.40208 185.863274 
L 117.433072 182.138657 
L 120.560765 178.719893 
L 123.884883 175.304528 
L 127.305703 171.579911 
L 130.436418 167.851896 
L 133.564111 164.745782 
L 136.788506 162.570824 
L 140.309049 160.399263 
L 143.829593 157.602402 
L 150.867658 151.393574 
L 154.484903 148.596713 
L 157.905723 145.80325 
L 161.229841 143.319039 
L 169.830241 135.244504 
L 172.471405 133.691447 
L 175.109546 132.447643 
L 177.457582 131.516488 
L 179.412768 130.585334 
L 181.367954 129.032277 
L 183.126715 127.169969 
L 184.592349 125.926164 
L 186.647258 125.30766 
L 188.406019 125.30766 
L 188.895571 124.99501 
L 189.088974 124.373108 
L 189.382101 124.685758 
L 189.675228 125.30766 
L 189.968354 125.30766 
L 190.068078 124.99501 
L 190.068078 124.373108 
L 189.774951 124.373108 
L 189.285399 125.616912 
L 189.382101 125.926164 
L 189.675228 125.926164 
L 189.968354 125.616912 
L 190.16478 125.926164 
L 190.16478 125.616912 
L 190.361205 124.99501 
L 190.654332 124.685758 
L 190.751033 124.063856 
L 190.654332 123.754604 
L 190.55763 124.373108 
L 190.55763 125.30766 
L 190.751033 125.616912 
L 190.947458 125.616912 
L 190.947458 125.30766 
L 190.947458 125.616912 
L 191.143884 126.238815 
L 191.143884 125.926164 
L 191.04416 125.30766 
L 190.751033 124.685758 
L 190.457906 124.99501 
L 190.654332 125.30766 
L 191.143884 125.30766 
L 191.240585 124.373108 
L 191.04416 123.754604 
L 191.04416 124.063856 
L 191.240585 123.754604 
L 191.04416 121.888897 
L 191.240585 121.888897 
L 191.533712 123.754604 
L 191.630414 123.754604 
L 191.730137 123.441953 
L 191.630414 123.754604 
L 191.43701 124.685758 
L 191.730137 123.441953 
L 191.730137 123.754604 
L 191.730137 124.063856 
L 191.630414 124.063856 
L 191.143884 124.685758 
L 191.240585 124.99501 
L 191.43701 124.685758 
L 191.43701 124.063856 
L 191.92354 123.132701 
L 192.023264 122.823449 
L 192.023264 123.132701 
L 192.023264 123.441953 
L 192.119966 121.888897 
L 192.316391 121.270393 
L 192.512816 121.270393 
L 192.706219 122.201547 
L 192.512816 121.888897 
L 192.316391 121.888897 
L 192.512816 121.270393 
L 192.216667 121.888897 
L 192.316391 120.33584 
L 192.609518 120.026588 
L 192.706219 119.404686 
L 192.413092 119.404686 
L 192.413092 119.717336 
L 192.706219 120.33584 
L 192.706219 120.33584 
L 192.805943 119.404686 
L 192.902644 119.717336 
L 192.805943 120.648491 
L 192.609518 119.717336 
L 192.706219 118.473532 
L 192.609518 118.473532 
L 192.609518 119.717336 
L 192.512816 119.717336 
L 192.413092 119.095434 
L 192.512816 117.542377 
L 192.706219 117.542377 
L 192.999346 118.16428 
L 192.609518 117.542377 
L 192.413092 118.473532 
L 192.413092 118.473532 
L 192.512816 118.473532 
L 192.609518 118.16428 
L 192.609518 118.16428 
L 192.902644 117.851629 
L 192.999346 117.542377 
L 192.902644 117.233125 
L 193.09907 116.920475 
L 193.09907 117.233125 
L 192.805943 117.542377 
L 192.609518 117.233125 
L 192.512816 115.680069 
L 192.609518 115.058166 
L 192.902644 116.298573 
L 193.09907 115.989321 
L 192.999346 115.989321 
L 192.706219 115.989321 
L 192.609518 115.367418 
L 192.706219 115.367418 
L 192.902644 115.680069 
L 193.09907 115.367418 
L 193.5856 113.50511 
L 195.054255 111.020899 
L 195.933636 109.777094 
L 196.716315 109.15859 
L 197.692397 108.227436 
L 198.671501 107.605534 
L 199.744284 106.67438 
L 200.82009 106.67438 
L 201.895895 107.292883 
L 202.971701 108.536688 
L 205.416439 111.952053 
L 206.785371 114.436264 
L 209.423512 119.717336 
L 210.792445 121.270393 
L 212.258079 123.132701 
L 213.723713 125.926164 
L 214.799518 129.344928 
L 215.875324 132.138391 
L 217.244256 134.31335 
L 218.809614 136.48491 
L 220.468651 139.591023 
L 222.034008 143.628291 
L 223.599366 147.97481 
L 228.289394 159.155458 
L 229.854752 163.505376 
L 231.42011 168.473798 
L 234.840929 177.788739 
L 237.578794 186.794428 
L 238.751301 189.900542 
L 240.120234 192.697403 
L 241.489166 196.42202 
L 243.344628 202.634246 
L 244.517136 206.049612 
L 245.006688 208.22457 
L 245.203113 210.396131 
L 245.496239 220.336373 
L 245.203113 222.820584 
L 245.106411 224.37364 
L 244.323732 226.857851 
L 244.420434 231.513623 
L 244.517136 233.37933 
L 244.713561 234.932386 
L 244.713561 235.86354 
L 244.420434 237.103947 
L 244.517136 238.035101 
L 244.224009 242.072368 
L 244.420434 242.072368 
L 244.420434 241.763117 
L 244.127307 242.385019 
L 243.83418 243.316173 
L 244.030606 244.86923 
L 244.323732 246.109636 
L 244.323732 246.109636 
L 244.323732 247.04079 
L 244.127307 248.284595 
L 243.83418 248.593847 
L 244.323732 247.975343 
L 244.030606 248.906497 
L 244.127307 248.906497 
L 244.224009 248.906497 
L 244.224009 249.215749 
L 244.323732 248.906497 
L 244.517136 248.906497 
L 244.616859 248.593847 
L 244.420434 248.906497 
L 244.224009 249.215749 
L 244.030606 249.837651 
L 244.030606 249.837651 
L 244.224009 249.837651 
L 244.420434 249.5284 
L 244.517136 249.837651 
L 244.420434 250.459554 
L 244.224009 250.146903 
L 244.030606 250.146903 
L 244.030606 250.459554 
L 244.224009 250.459554 
L 244.810262 248.593847 
L 244.810262 247.975343 
L 244.713561 248.593847 
L 244.517136 249.837651 
L 244.713561 249.5284 
L 244.713561 251.69996 
L 244.810262 251.078058 
L 244.909986 251.078058 
L 244.810262 252.01261 
L 244.616859 252.321862 
L 244.909986 251.69996 
L 245.006688 252.321862 
L 244.810262 252.631114 
L 244.909986 252.631114 
L 245.106411 252.943765 
L 245.006688 254.184171 
L 244.909986 254.184171 
L 245.106411 253.253017 
L 245.106411 253.562269 
L 245.106411 254.184171 
L 245.006688 253.253017 
L 244.616859 252.631114 
L 245.496239 253.874919 
L 245.692665 253.562269 
L 245.006688 253.562269 
L 244.713561 252.943765 
L 244.810262 252.321862 
L 245.006688 252.631114 
L 245.203113 253.253017 
L 245.299814 255.115325 
L 245.399538 255.115325 
L 245.496239 254.496821 
L 245.299814 254.184171 
L 245.299814 254.184171 
L 245.203113 254.496821 
L 245.203113 254.496821 
L 245.496239 254.496821 
L 245.692665 255.427976 
L 245.789366 255.115325 
L 245.692665 255.427976 
L 245.496239 256.981032 
L 245.592941 256.049878 
L 245.399538 255.115325 
L 245.496239 256.049878 
L 245.496239 256.668382 
L 245.299814 256.981032 
L 245.399538 257.599536 
L 245.496239 256.981032 
L 245.399538 256.049878 
L 245.203113 256.35913 
L 245.106411 256.049878 
L 245.203113 255.115325 
L 245.496239 254.806073 
L 245.496239 255.115325 
L 245.399538 254.806073 
L 245.006688 256.049878 
L 245.203113 255.737228 
L 245.299814 256.049878 
L 245.496239 256.049878 
L 245.399538 256.35913 
L 245.006688 256.35913 
L 245.106411 256.049878 
L 245.299814 256.35913 
L 245.299814 256.35913 
L 245.399538 255.737228 
L 245.399538 257.290284 
L 245.203113 256.981032 
L 245.006688 256.35913 
L 245.106411 256.981032 
L 245.006688 256.981032 
L 244.713561 255.115325 
L 244.810262 256.35913 
L 244.713561 256.35913 
L 244.517136 255.427976 
L 244.713561 256.668382 
L 244.420434 256.35913 
L 244.127307 255.427976 
L 243.930882 255.737228 
L 243.83418 256.981032 
L 243.83418 256.35913 
L 243.83418 254.496821 
L 243.737479 254.496821 
L 243.444352 254.806073 
L 243.247927 255.427976 
L 243.344628 255.737228 
L 243.541054 255.737228 
L 243.637755 254.806073 
L 243.541054 253.874919 
L 243.247927 252.943765 
L 243.151225 252.01261 
L 243.637755 250.768806 
L 243.83418 250.768806 
L 243.83418 250.146903 
L 243.637755 250.146903 
L 243.637755 250.146903 
L 243.637755 248.906497 
L 243.444352 247.975343 
L 243.344628 246.731538 
L 243.637755 244.86923 
L 243.344628 244.247327 
L 242.855076 242.694271 
L 243.051502 243.003523 
L 242.9548 240.21006 
L 242.9548 240.21006 
L 242.758375 240.831962 
L 242.855076 238.035101 
L 242.9548 237.416597 
L 242.855076 236.482044 
L 242.268823 236.482044 
L 242.56195 236.482044 
L 242.56195 235.86354 
L 242.465248 235.86354 
L 242.268823 235.55089 
L 242.268823 234.932386 
L 242.465248 234.619736 
L 242.661673 234.932386 
L 242.465248 235.241638 
L 242.268823 234.619736 
L 242.172121 233.37933 
L 242.465248 230.895119 
L 242.661673 229.960566 
L 242.56195 229.342062 
L 242.661673 226.857851 
L 242.758375 225.923299 
L 242.661673 224.992144 
L 243.051502 221.267527 
L 243.151225 218.161414 
L 243.444352 216.917609 
L 243.444352 216.917609 
L 243.344628 216.299105 
L 243.444352 215.055301 
L 243.930882 212.261838 
L 244.127307 211.949188 
L 244.224009 209.777627 
L 244.517136 209.155725 
L 244.517136 208.22457 
L 244.224009 206.358864 
L 244.224009 206.049612 
L 244.323732 206.671514 
L 244.517136 206.671514 
L 244.420434 206.049612 
L 244.323732 205.74036 
L 244.420434 205.118457 
L 244.713561 204.805807 
L 244.909986 204.805807 
L 244.810262 203.874653 
L 244.517136 203.874653 
L 244.420434 204.496555 
L 244.517136 204.805807 
L 244.420434 204.805807 
L 244.224009 204.496555 
L 244.224009 204.187303 
L 244.127307 204.805807 
L 244.224009 204.805807 
L 244.616859 203.565401 
L 244.616859 204.187303 
L 244.420434 204.496555 
L 244.030606 203.565401 
L 244.030606 203.256149 
L 244.224009 203.565401 
L 244.323732 204.187303 
L 244.030606 205.427709 
L 243.930882 205.427709 
L 243.930882 205.427709 
L 243.541054 203.874653 
L 243.637755 203.874653 
L 243.737479 204.805807 
L 244.030606 204.187303 
L 243.930882 204.187303 
L 243.637755 203.565401 
L 243.737479 204.805807 
L 243.637755 203.565401 
L 243.83418 203.256149 
L 244.127307 203.256149 
L 244.030606 203.256149 
L 243.83418 203.565401 
L 243.737479 204.187303 
L 243.247927 203.565401 
L 243.541054 203.565401 
L 243.637755 202.943498 
L 243.344628 202.634246 
L 243.051502 202.634246 
L 243.344628 202.012344 
L 243.541054 202.012344 
L 243.344628 202.634246 
L 242.9548 201.390442 
L 242.758375 201.703092 
L 242.661673 202.634246 
L 242.9548 202.634246 
L 243.051502 202.012344 
L 242.855076 201.703092 
L 242.9548 201.390442 
L 243.247927 202.012344 
L 243.151225 202.012344 
L 242.9548 201.703092 
L 242.855076 201.08119 
L 243.051502 200.768539 
L 243.344628 200.768539 
L 243.541054 200.459287 
L 243.637755 199.837385 
L 243.444352 199.218881 
L 243.151225 199.218881 
L 242.855076 200.150035 
L 242.855076 199.837385 
L 242.9548 198.906231 
L 242.9548 199.528133 
L 242.268823 197.665825 
L 242.172121 197.975077 
L 242.268823 197.975077 
L 242.368546 197.975077 
L 242.465248 197.353174 
L 242.56195 197.043922 
L 242.368546 196.73467 
L 242.07542 195.800118 
L 241.878994 197.353174 
L 241.682569 197.043922 
L 241.489166 196.112768 
L 241.489166 195.490866 
L 241.782293 194.559711 
L 242.07542 195.490866 
L 241.975696 196.112768 
L 241.389442 196.112768 
L 241.389442 196.73467 
L 241.292741 195.490866 
L 241.096316 195.181614 
L 240.89989 196.112768 
L 240.89989 196.42202 
L 240.999614 196.112768 
L 241.292741 196.73467 
L 241.389442 197.353174 
L 241.196039 197.353174 
L 240.89989 197.043922 
L 240.89989 197.043922 
L 241.096316 197.043922 
L 241.292741 196.73467 
L 240.803189 197.353174 
L 240.41336 197.353174 
L 240.216935 197.975077 
L 240.510062 198.284329 
L 240.803189 198.284329 
L 240.606764 197.975077 
L 240.313637 197.975077 
L 240.120234 198.596979 
L 240.120234 198.284329 
L 240.313637 196.73467 
L 240.606764 197.043922 
L 240.510062 197.043922 
L 240.41336 198.284329 
L 240.510062 198.284329 
L 240.41336 197.665825 
L 240.120234 198.284329 
L 239.923808 198.284329 
L 239.923808 197.975077 
L 240.216935 197.975077 
L 240.313637 198.596979 
L 240.510062 198.906231 
L 240.510062 198.906231 
L 240.510062 199.218881 
L 240.313637 199.218881 
L 240.02051 198.906231 
L 239.630682 197.975077 
L 239.630682 198.906231 
L 239.827107 199.528133 
L 239.727383 197.665825 
L 239.53398 197.975077 
L 239.434257 197.975077 
L 239.53398 197.043922 
L 239.53398 197.043922 
L 239.240853 197.043922 
L 239.14113 196.73467 
L 239.240853 197.043922 
L 239.14113 197.665825 
L 239.044428 197.353174 
L 239.14113 196.42202 
L 239.337555 196.112768 
L 239.044428 196.73467 
L 239.14113 196.42202 
L 239.044428 195.800118 
L 239.044428 196.112768 
L 239.14113 197.043922 
L 239.14113 196.42202 
L 239.240853 195.800118 
L 239.240853 195.800118 
L 239.240853 196.73467 
L 239.434257 197.665825 
L 239.630682 197.665825 
L 239.240853 197.665825 
L 239.14113 197.043922 
L 239.044428 195.490866 
L 238.947726 195.490866 
L 238.947726 195.800118 
L 239.044428 195.490866 
L 239.337555 195.181614 
L 239.434257 195.800118 
L 239.337555 196.42202 
L 239.434257 196.73467 
L 239.434257 196.42202 
L 239.240853 195.490866 
L 238.947726 194.868963 
L 238.947726 194.868963 
L 239.630682 193.006655 
L 239.727383 194.868963 
L 239.630682 194.868963 
L 239.337555 193.628557 
L 239.434257 193.937809 
L 239.727383 194.247061 
L 239.727383 193.937809 
L 240.02051 193.315907 
L 239.827107 193.937809 
L 239.923808 193.937809 
L 240.02051 194.247061 
L 239.53398 195.490866 
L 239.727383 195.490866 
L 240.02051 195.490866 
L 240.120234 195.181614 
L 240.216935 193.006655 
L 240.216935 193.006655 
L 240.510062 193.006655 
L 240.803189 192.384752 
L 240.89989 191.76285 
L 240.706487 191.76285 
L 240.510062 192.384752 
L 240.606764 193.315907 
L 240.606764 190.831696 
L 240.706487 190.831696 
L 240.803189 192.697403 
L 240.999614 193.315907 
L 241.196039 191.76285 
L 241.096316 192.075501 
L 240.999614 192.075501 
L 240.999614 192.075501 
L 241.096316 192.697403 
L 241.389442 193.006655 
L 241.489166 192.697403 
L 241.489166 192.697403 
" style="fill:none;stroke:#1f77b4;stroke-linecap:square;stroke-width:1.5;"/>
   </g>
   <g id="matplotlib.axis_1">
    <g id="xtick_1">
     <g id="line2d_2">
      <defs>
       <path d="M 0 0 
L 0 3.5 
" id="mddf4e75b69" style="stroke:#000000;stroke-width:0.8;"/>
      </defs>
      <g>
       <use style="stroke:#000000;stroke-width:0.8;" x="57.795367" xlink:href="#mddf4e75b69" y="307.584"/>
      </g>
     </g>
     <g id="text_1">
      <!-- −400 -->
      <defs>
       <path d="M 10.59375 35.5 
L 73.1875 35.5 
L 73.1875 27.203125 
L 10.59375 27.203125 
z
" id="DejaVuSans-8722"/>
       <path d="M 37.796875 64.3125 
L 12.890625 25.390625 
L 37.796875 25.390625 
z
M 35.203125 72.90625 
L 47.609375 72.90625 
L 47.609375 25.390625 
L 58.015625 25.390625 
L 58.015625 17.1875 
L 47.609375 17.1875 
L 47.609375 0 
L 37.796875 0 
L 37.796875 17.1875 
L 4.890625 17.1875 
L 4.890625 26.703125 
z
" id="DejaVuSans-52"/>
       <path d="M 31.78125 66.40625 
Q 24.171875 66.40625 20.328125 58.90625 
Q 16.5 51.421875 16.5 36.375 
Q 16.5 21.390625 20.328125 13.890625 
Q 24.171875 6.390625 31.78125 6.390625 
Q 39.453125 6.390625 43.28125 13.890625 
Q 47.125 21.390625 47.125 36.375 
Q 47.125 51.421875 43.28125 58.90625 
Q 39.453125 66.40625 31.78125 66.40625 
z
M 31.78125 74.21875 
Q 44.046875 74.21875 50.515625 64.515625 
Q 56.984375 54.828125 56.984375 36.375 
Q 56.984375 17.96875 50.515625 8.265625 
Q 44.046875 -1.421875 31.78125 -1.421875 
Q 19.53125 -1.421875 13.0625 8.265625 
Q 6.59375 17.96875 6.59375 36.375 
Q 6.59375 54.828125 13.0625 64.515625 
Q 19.53125 74.21875 31.78125 74.21875 
z
" id="DejaVuSans-48"/>
      </defs>
      <g transform="translate(44.061774 322.182437)scale(0.1 -0.1)">
       <use xlink:href="#DejaVuSans-8722"/>
       <use x="83.789062" xlink:href="#DejaVuSans-52"/>
       <use x="147.412109" xlink:href="#DejaVuSans-48"/>
       <use x="211.035156" xlink:href="#DejaVuSans-48"/>
      </g>
     </g>
    </g>
    <g id="xtick_2">
     <g id="line2d_3">
      <g>
       <use style="stroke:#000000;stroke-width:0.8;" x="118.233882" xlink:href="#mddf4e75b69" y="307.584"/>
      </g>
     </g>
     <g id="text_2">
      <!-- −200 -->
      <defs>
       <path d="M 19.1875 8.296875 
L 53.609375 8.296875 
L 53.609375 0 
L 7.328125 0 
L 7.328125 8.296875 
Q 12.9375 14.109375 22.625 23.890625 
Q 32.328125 33.6875 34.8125 36.53125 
Q 39.546875 41.84375 41.421875 45.53125 
Q 43.3125 49.21875 43.3125 52.78125 
Q 43.3125 58.59375 39.234375 62.25 
Q 35.15625 65.921875 28.609375 65.921875 
Q 23.96875 65.921875 18.8125 64.3125 
Q 13.671875 62.703125 7.8125 59.421875 
L 7.8125 69.390625 
Q 13.765625 71.78125 18.9375 73 
Q 24.125 74.21875 28.421875 74.21875 
Q 39.75 74.21875 46.484375 68.546875 
Q 53.21875 62.890625 53.21875 53.421875 
Q 53.21875 48.921875 51.53125 44.890625 
Q 49.859375 40.875 45.40625 35.40625 
Q 44.1875 33.984375 37.640625 27.21875 
Q 31.109375 20.453125 19.1875 8.296875 
z
" id="DejaVuSans-50"/>
      </defs>
      <g transform="translate(104.500288 322.182437)scale(0.1 -0.1)">
       <use xlink:href="#DejaVuSans-8722"/>
       <use x="83.789062" xlink:href="#DejaVuSans-50"/>
       <use x="147.412109" xlink:href="#DejaVuSans-48"/>
       <use x="211.035156" xlink:href="#DejaVuSans-48"/>
      </g>
     </g>
    </g>
    <g id="xtick_3">
     <g id="line2d_4">
      <g>
       <use style="stroke:#000000;stroke-width:0.8;" x="178.672396" xlink:href="#mddf4e75b69" y="307.584"/>
      </g>
     </g>
     <g id="text_3">
      <!-- 0 -->
      <g transform="translate(175.491146 322.182437)scale(0.1 -0.1)">
       <use xlink:href="#DejaVuSans-48"/>
      </g>
     </g>
    </g>
    <g id="xtick_4">
     <g id="line2d_5">
      <g>
       <use style="stroke:#000000;stroke-width:0.8;" x="239.11091" xlink:href="#mddf4e75b69" y="307.584"/>
      </g>
     </g>
     <g id="text_4">
      <!-- 200 -->
      <g transform="translate(229.56716 322.182437)scale(0.1 -0.1)">
       <use xlink:href="#DejaVuSans-50"/>
       <use x="63.623047" xlink:href="#DejaVuSans-48"/>
       <use x="127.246094" xlink:href="#DejaVuSans-48"/>
      </g>
     </g>
    </g>
    <g id="xtick_5">
     <g id="line2d_6">
      <g>
       <use style="stroke:#000000;stroke-width:0.8;" x="299.549425" xlink:href="#mddf4e75b69" y="307.584"/>
      </g>
     </g>
     <g id="text_5">
      <!-- 400 -->
      <g transform="translate(290.005675 322.182437)scale(0.1 -0.1)">
       <use xlink:href="#DejaVuSans-52"/>
       <use x="63.623047" xlink:href="#DejaVuSans-48"/>
       <use x="127.246094" xlink:href="#DejaVuSans-48"/>
      </g>
     </g>
    </g>
    <g id="xtick_6">
     <g id="line2d_7">
      <g>
       <use style="stroke:#000000;stroke-width:0.8;" x="359.987939" xlink:href="#mddf4e75b69" y="307.584"/>
      </g>
     </g>
     <g id="text_6">
      <!-- 600 -->
      <defs>
       <path d="M 33.015625 40.375 
Q 26.375 40.375 22.484375 35.828125 
Q 18.609375 31.296875 18.609375 23.390625 
Q 18.609375 15.53125 22.484375 10.953125 
Q 26.375 6.390625 33.015625 6.390625 
Q 39.65625 6.390625 43.53125 10.953125 
Q 47.40625 15.53125 47.40625 23.390625 
Q 47.40625 31.296875 43.53125 35.828125 
Q 39.65625 40.375 33.015625 40.375 
z
M 52.59375 71.296875 
L 52.59375 62.3125 
Q 48.875 64.0625 45.09375 64.984375 
Q 41.3125 65.921875 37.59375 65.921875 
Q 27.828125 65.921875 22.671875 59.328125 
Q 17.53125 52.734375 16.796875 39.40625 
Q 19.671875 43.65625 24.015625 45.921875 
Q 28.375 48.1875 33.59375 48.1875 
Q 44.578125 48.1875 50.953125 41.515625 
Q 57.328125 34.859375 57.328125 23.390625 
Q 57.328125 12.15625 50.6875 5.359375 
Q 44.046875 -1.421875 33.015625 -1.421875 
Q 20.359375 -1.421875 13.671875 8.265625 
Q 6.984375 17.96875 6.984375 36.375 
Q 6.984375 53.65625 15.1875 63.9375 
Q 23.390625 74.21875 37.203125 74.21875 
Q 40.921875 74.21875 44.703125 73.484375 
Q 48.484375 72.75 52.59375 71.296875 
z
" id="DejaVuSans-54"/>
      </defs>
      <g transform="translate(350.444189 322.182437)scale(0.1 -0.1)">
       <use xlink:href="#DejaVuSans-54"/>
       <use x="63.623047" xlink:href="#DejaVuSans-48"/>
       <use x="127.246094" xlink:href="#DejaVuSans-48"/>
      </g>
     </g>
    </g>
   </g>
   <g id="matplotlib.axis_2">
    <g id="ytick_1">
     <g id="line2d_8">
      <defs>
       <path d="M 0 0 
L -3.5 0 
" id="m264cda44c3" style="stroke:#000000;stroke-width:0.8;"/>
      </defs>
      <g>
       <use style="stroke:#000000;stroke-width:0.8;" x="57.6" xlink:href="#m264cda44c3" y="303.644096"/>
      </g>
     </g>
     <g id="text_7">
      <!-- −700 -->
      <defs>
       <path d="M 8.203125 72.90625 
L 55.078125 72.90625 
L 55.078125 68.703125 
L 28.609375 0 
L 18.3125 0 
L 43.21875 64.59375 
L 8.203125 64.59375 
z
" id="DejaVuSans-55"/>
      </defs>
      <g transform="translate(23.132812 307.443315)scale(0.1 -0.1)">
       <use xlink:href="#DejaVuSans-8722"/>
       <use x="83.789062" xlink:href="#DejaVuSans-55"/>
       <use x="147.412109" xlink:href="#DejaVuSans-48"/>
       <use x="211.035156" xlink:href="#DejaVuSans-48"/>
      </g>
     </g>
    </g>
    <g id="ytick_2">
     <g id="line2d_9">
      <g>
       <use style="stroke:#000000;stroke-width:0.8;" x="57.6" xlink:href="#m264cda44c3" y="269.660363"/>
      </g>
     </g>
     <g id="text_8">
      <!-- −600 -->
      <g transform="translate(23.132812 273.459582)scale(0.1 -0.1)">
       <use xlink:href="#DejaVuSans-8722"/>
       <use x="83.789062" xlink:href="#DejaVuSans-54"/>
       <use x="147.412109" xlink:href="#DejaVuSans-48"/>
       <use x="211.035156" xlink:href="#DejaVuSans-48"/>
      </g>
     </g>
    </g>
    <g id="ytick_3">
     <g id="line2d_10">
      <g>
       <use style="stroke:#000000;stroke-width:0.8;" x="57.6" xlink:href="#m264cda44c3" y="235.67663"/>
      </g>
     </g>
     <g id="text_9">
      <!-- −500 -->
      <defs>
       <path d="M 10.796875 72.90625 
L 49.515625 72.90625 
L 49.515625 64.59375 
L 19.828125 64.59375 
L 19.828125 46.734375 
Q 21.96875 47.46875 24.109375 47.828125 
Q 26.265625 48.1875 28.421875 48.1875 
Q 40.625 48.1875 47.75 41.5 
Q 54.890625 34.8125 54.890625 23.390625 
Q 54.890625 11.625 47.5625 5.09375 
Q 40.234375 -1.421875 26.90625 -1.421875 
Q 22.3125 -1.421875 17.546875 -0.640625 
Q 12.796875 0.140625 7.71875 1.703125 
L 7.71875 11.625 
Q 12.109375 9.234375 16.796875 8.0625 
Q 21.484375 6.890625 26.703125 6.890625 
Q 35.15625 6.890625 40.078125 11.328125 
Q 45.015625 15.765625 45.015625 23.390625 
Q 45.015625 31 40.078125 35.4375 
Q 35.15625 39.890625 26.703125 39.890625 
Q 22.75 39.890625 18.8125 39.015625 
Q 14.890625 38.140625 10.796875 36.28125 
z
" id="DejaVuSans-53"/>
      </defs>
      <g transform="translate(23.132812 239.475849)scale(0.1 -0.1)">
       <use xlink:href="#DejaVuSans-8722"/>
       <use x="83.789062" xlink:href="#DejaVuSans-53"/>
       <use x="147.412109" xlink:href="#DejaVuSans-48"/>
       <use x="211.035156" xlink:href="#DejaVuSans-48"/>
      </g>
     </g>
    </g>
    <g id="ytick_4">
     <g id="line2d_11">
      <g>
       <use style="stroke:#000000;stroke-width:0.8;" x="57.6" xlink:href="#m264cda44c3" y="201.692897"/>
      </g>
     </g>
     <g id="text_10">
      <!-- −400 -->
      <g transform="translate(23.132812 205.492116)scale(0.1 -0.1)">
       <use xlink:href="#DejaVuSans-8722"/>
       <use x="83.789062" xlink:href="#DejaVuSans-52"/>
       <use x="147.412109" xlink:href="#DejaVuSans-48"/>
       <use x="211.035156" xlink:href="#DejaVuSans-48"/>
      </g>
     </g>
    </g>
    <g id="ytick_5">
     <g id="line2d_12">
      <g>
       <use style="stroke:#000000;stroke-width:0.8;" x="57.6" xlink:href="#m264cda44c3" y="167.709164"/>
      </g>
     </g>
     <g id="text_11">
      <!-- −300 -->
      <defs>
       <path d="M 40.578125 39.3125 
Q 47.65625 37.796875 51.625 33 
Q 55.609375 28.21875 55.609375 21.1875 
Q 55.609375 10.40625 48.1875 4.484375 
Q 40.765625 -1.421875 27.09375 -1.421875 
Q 22.515625 -1.421875 17.65625 -0.515625 
Q 12.796875 0.390625 7.625 2.203125 
L 7.625 11.71875 
Q 11.71875 9.328125 16.59375 8.109375 
Q 21.484375 6.890625 26.8125 6.890625 
Q 36.078125 6.890625 40.9375 10.546875 
Q 45.796875 14.203125 45.796875 21.1875 
Q 45.796875 27.640625 41.28125 31.265625 
Q 36.765625 34.90625 28.71875 34.90625 
L 20.21875 34.90625 
L 20.21875 43.015625 
L 29.109375 43.015625 
Q 36.375 43.015625 40.234375 45.921875 
Q 44.09375 48.828125 44.09375 54.296875 
Q 44.09375 59.90625 40.109375 62.90625 
Q 36.140625 65.921875 28.71875 65.921875 
Q 24.65625 65.921875 20.015625 65.03125 
Q 15.375 64.15625 9.8125 62.3125 
L 9.8125 71.09375 
Q 15.4375 72.65625 20.34375 73.4375 
Q 25.25 74.21875 29.59375 74.21875 
Q 40.828125 74.21875 47.359375 69.109375 
Q 53.90625 64.015625 53.90625 55.328125 
Q 53.90625 49.265625 50.4375 45.09375 
Q 46.96875 40.921875 40.578125 39.3125 
z
" id="DejaVuSans-51"/>
      </defs>
      <g transform="translate(23.132812 171.508383)scale(0.1 -0.1)">
       <use xlink:href="#DejaVuSans-8722"/>
       <use x="83.789062" xlink:href="#DejaVuSans-51"/>
       <use x="147.412109" xlink:href="#DejaVuSans-48"/>
       <use x="211.035156" xlink:href="#DejaVuSans-48"/>
      </g>
     </g>
    </g>
    <g id="ytick_6">
     <g id="line2d_13">
      <g>
       <use style="stroke:#000000;stroke-width:0.8;" x="57.6" xlink:href="#m264cda44c3" y="133.725431"/>
      </g>
     </g>
     <g id="text_12">
      <!-- −200 -->
      <g transform="translate(23.132812 137.52465)scale(0.1 -0.1)">
       <use xlink:href="#DejaVuSans-8722"/>
       <use x="83.789062" xlink:href="#DejaVuSans-50"/>
       <use x="147.412109" xlink:href="#DejaVuSans-48"/>
       <use x="211.035156" xlink:href="#DejaVuSans-48"/>
      </g>
     </g>
    </g>
    <g id="ytick_7">
     <g id="line2d_14">
      <g>
       <use style="stroke:#000000;stroke-width:0.8;" x="57.6" xlink:href="#m264cda44c3" y="99.741698"/>
      </g>
     </g>
     <g id="text_13">
      <!-- −100 -->
      <defs>
       <path d="M 12.40625 8.296875 
L 28.515625 8.296875 
L 28.515625 63.921875 
L 10.984375 60.40625 
L 10.984375 69.390625 
L 28.421875 72.90625 
L 38.28125 72.90625 
L 38.28125 8.296875 
L 54.390625 8.296875 
L 54.390625 0 
L 12.40625 0 
z
" id="DejaVuSans-49"/>
      </defs>
      <g transform="translate(23.132812 103.540917)scale(0.1 -0.1)">
       <use xlink:href="#DejaVuSans-8722"/>
       <use x="83.789062" xlink:href="#DejaVuSans-49"/>
       <use x="147.412109" xlink:href="#DejaVuSans-48"/>
       <use x="211.035156" xlink:href="#DejaVuSans-48"/>
      </g>
     </g>
    </g>
    <g id="ytick_8">
     <g id="line2d_15">
      <g>
       <use style="stroke:#000000;stroke-width:0.8;" x="57.6" xlink:href="#m264cda44c3" y="65.757965"/>
      </g>
     </g>
     <g id="text_14">
      <!-- 0 -->
      <g transform="translate(44.2375 69.557184)scale(0.1 -0.1)">
       <use xlink:href="#DejaVuSans-48"/>
      </g>
     </g>
    </g>
   </g>
   <g id="line2d_16">
    <path clip-path="url(#p4a97f6084f)" d="M 395.327448 268.880515 
L 207.883658 257.391499 
L 148.282719 75.974099 
L 146.77984 60.104145 
L 75.34058 228.854227 
L 188.702129 124.066048 
L 244.258343 241.780566 
L 242.358817 214.420694 
" style="fill:none;stroke:#ff0000;stroke-linecap:square;stroke-width:0.5;"/>
   </g>
   <g id="patch_3">
    <path d="M 57.6 307.584 
L 57.6 41.472 
" style="fill:none;stroke:#000000;stroke-linecap:square;stroke-linejoin:miter;stroke-width:0.8;"/>
   </g>
   <g id="patch_4">
    <path d="M 414.72 307.584 
L 414.72 41.472 
" style="fill:none;stroke:#000000;stroke-linecap:square;stroke-linejoin:miter;stroke-width:0.8;"/>
   </g>
   <g id="patch_5">
    <path d="M 57.6 307.584 
L 414.72 307.584 
" style="fill:none;stroke:#000000;stroke-linecap:square;stroke-linejoin:miter;stroke-width:0.8;"/>
   </g>
   <g id="patch_6">
    <path d="M 57.6 41.472 
L 414.72 41.472 
" style="fill:none;stroke:#000000;stroke-linecap:square;stroke-linejoin:miter;stroke-width:0.8;"/>
   </g>
   <g id="PathCollection_1">
    <defs>
     <path d="M 0 2.738613 
C 0.726289 2.738613 1.422928 2.450055 1.936492 1.936492 
C 2.450055 1.422928 2.738613 0.726289 2.738613 0 
C 2.738613 -0.726289 2.450055 -1.422928 1.936492 -1.936492 
C 1.422928 -2.450055 0.726289 -2.738613 0 -2.738613 
C -0.726289 -2.738613 -1.422928 -2.450055 -1.936492 -1.936492 
C -2.450055 -1.422928 -2.738613 -0.726289 -2.738613 0 
C -2.738613 0.726289 -2.450055 1.422928 -1.936492 1.936492 
C -1.422928 2.450055 -0.726289 2.738613 0 2.738613 
z
" id="m5eec4c2220" style="stroke:#ff0000;"/>
    </defs>
    <g clip-path="url(#p4a97f6084f)">
     <use style="fill:#ff0000;stroke:#ff0000;" x="395.327448" xlink:href="#m5eec4c2220" y="268.880515"/>
     <use style="fill:#ff0000;stroke:#ff0000;" x="207.883658" xlink:href="#m5eec4c2220" y="257.391499"/>
     <use style="fill:#ff0000;stroke:#ff0000;" x="148.282719" xlink:href="#m5eec4c2220" y="75.974099"/>
     <use style="fill:#ff0000;stroke:#ff0000;" x="146.77984" xlink:href="#m5eec4c2220" y="60.104145"/>
     <use style="fill:#ff0000;stroke:#ff0000;" x="75.34058" xlink:href="#m5eec4c2220" y="228.854227"/>
     <use style="fill:#ff0000;stroke:#ff0000;" x="188.702129" xlink:href="#m5eec4c2220" y="124.066048"/>
     <use style="fill:#ff0000;stroke:#ff0000;" x="244.258343" xlink:href="#m5eec4c2220" y="241.780566"/>
     <use style="fill:#ff0000;stroke:#ff0000;" x="242.358817" xlink:href="#m5eec4c2220" y="214.420694"/>
    </g>
   </g>
   <g id="text_15">
    <!-- (104) Subject: s27, Known = False, Degree = 2, Duration = 0.1 -->
    <defs>
     <path d="M 31 75.875 
Q 24.46875 64.65625 21.28125 53.65625 
Q 18.109375 42.671875 18.109375 31.390625 
Q 18.109375 20.125 21.3125 9.0625 
Q 24.515625 -2 31 -13.1875 
L 23.1875 -13.1875 
Q 15.875 -1.703125 12.234375 9.375 
Q 8.59375 20.453125 8.59375 31.390625 
Q 8.59375 42.28125 12.203125 53.3125 
Q 15.828125 64.359375 23.1875 75.875 
z
" id="DejaVuSans-40"/>
     <path d="M 8.015625 75.875 
L 15.828125 75.875 
Q 23.140625 64.359375 26.78125 53.3125 
Q 30.421875 42.28125 30.421875 31.390625 
Q 30.421875 20.453125 26.78125 9.375 
Q 23.140625 -1.703125 15.828125 -13.1875 
L 8.015625 -13.1875 
Q 14.5 -2 17.703125 9.0625 
Q 20.90625 20.125 20.90625 31.390625 
Q 20.90625 42.671875 17.703125 53.65625 
Q 14.5 64.65625 8.015625 75.875 
z
" id="DejaVuSans-41"/>
     <path id="DejaVuSans-32"/>
     <path d="M 53.515625 70.515625 
L 53.515625 60.890625 
Q 47.90625 63.578125 42.921875 64.890625 
Q 37.9375 66.21875 33.296875 66.21875 
Q 25.25 66.21875 20.875 63.09375 
Q 16.5 59.96875 16.5 54.203125 
Q 16.5 49.359375 19.40625 46.890625 
Q 22.3125 44.4375 30.421875 42.921875 
L 36.375 41.703125 
Q 47.40625 39.59375 52.65625 34.296875 
Q 57.90625 29 57.90625 20.125 
Q 57.90625 9.515625 50.796875 4.046875 
Q 43.703125 -1.421875 29.984375 -1.421875 
Q 24.8125 -1.421875 18.96875 -0.25 
Q 13.140625 0.921875 6.890625 3.21875 
L 6.890625 13.375 
Q 12.890625 10.015625 18.65625 8.296875 
Q 24.421875 6.59375 29.984375 6.59375 
Q 38.421875 6.59375 43.015625 9.90625 
Q 47.609375 13.234375 47.609375 19.390625 
Q 47.609375 24.75 44.3125 27.78125 
Q 41.015625 30.8125 33.5 32.328125 
L 27.484375 33.5 
Q 16.453125 35.6875 11.515625 40.375 
Q 6.59375 45.0625 6.59375 53.421875 
Q 6.59375 63.09375 13.40625 68.65625 
Q 20.21875 74.21875 32.171875 74.21875 
Q 37.3125 74.21875 42.625 73.28125 
Q 47.953125 72.359375 53.515625 70.515625 
z
" id="DejaVuSans-83"/>
     <path d="M 8.5 21.578125 
L 8.5 54.6875 
L 17.484375 54.6875 
L 17.484375 21.921875 
Q 17.484375 14.15625 20.5 10.265625 
Q 23.53125 6.390625 29.59375 6.390625 
Q 36.859375 6.390625 41.078125 11.03125 
Q 45.3125 15.671875 45.3125 23.6875 
L 45.3125 54.6875 
L 54.296875 54.6875 
L 54.296875 0 
L 45.3125 0 
L 45.3125 8.40625 
Q 42.046875 3.421875 37.71875 1 
Q 33.40625 -1.421875 27.6875 -1.421875 
Q 18.265625 -1.421875 13.375 4.4375 
Q 8.5 10.296875 8.5 21.578125 
z
M 31.109375 56 
z
" id="DejaVuSans-117"/>
     <path d="M 48.6875 27.296875 
Q 48.6875 37.203125 44.609375 42.84375 
Q 40.53125 48.484375 33.40625 48.484375 
Q 26.265625 48.484375 22.1875 42.84375 
Q 18.109375 37.203125 18.109375 27.296875 
Q 18.109375 17.390625 22.1875 11.75 
Q 26.265625 6.109375 33.40625 6.109375 
Q 40.53125 6.109375 44.609375 11.75 
Q 48.6875 17.390625 48.6875 27.296875 
z
M 18.109375 46.390625 
Q 20.953125 51.265625 25.265625 53.625 
Q 29.59375 56 35.59375 56 
Q 45.5625 56 51.78125 48.09375 
Q 58.015625 40.1875 58.015625 27.296875 
Q 58.015625 14.40625 51.78125 6.484375 
Q 45.5625 -1.421875 35.59375 -1.421875 
Q 29.59375 -1.421875 25.265625 0.953125 
Q 20.953125 3.328125 18.109375 8.203125 
L 18.109375 0 
L 9.078125 0 
L 9.078125 75.984375 
L 18.109375 75.984375 
z
" id="DejaVuSans-98"/>
     <path d="M 9.421875 54.6875 
L 18.40625 54.6875 
L 18.40625 -0.984375 
Q 18.40625 -11.421875 14.421875 -16.109375 
Q 10.453125 -20.796875 1.609375 -20.796875 
L -1.8125 -20.796875 
L -1.8125 -13.1875 
L 0.59375 -13.1875 
Q 5.71875 -13.1875 7.5625 -10.8125 
Q 9.421875 -8.453125 9.421875 -0.984375 
z
M 9.421875 75.984375 
L 18.40625 75.984375 
L 18.40625 64.59375 
L 9.421875 64.59375 
z
" id="DejaVuSans-106"/>
     <path d="M 56.203125 29.59375 
L 56.203125 25.203125 
L 14.890625 25.203125 
Q 15.484375 15.921875 20.484375 11.0625 
Q 25.484375 6.203125 34.421875 6.203125 
Q 39.59375 6.203125 44.453125 7.46875 
Q 49.3125 8.734375 54.109375 11.28125 
L 54.109375 2.78125 
Q 49.265625 0.734375 44.1875 -0.34375 
Q 39.109375 -1.421875 33.890625 -1.421875 
Q 20.796875 -1.421875 13.15625 6.1875 
Q 5.515625 13.8125 5.515625 26.8125 
Q 5.515625 40.234375 12.765625 48.109375 
Q 20.015625 56 32.328125 56 
Q 43.359375 56 49.78125 48.890625 
Q 56.203125 41.796875 56.203125 29.59375 
z
M 47.21875 32.234375 
Q 47.125 39.59375 43.09375 43.984375 
Q 39.0625 48.390625 32.421875 48.390625 
Q 24.90625 48.390625 20.390625 44.140625 
Q 15.875 39.890625 15.1875 32.171875 
z
" id="DejaVuSans-101"/>
     <path d="M 48.78125 52.59375 
L 48.78125 44.1875 
Q 44.96875 46.296875 41.140625 47.34375 
Q 37.3125 48.390625 33.40625 48.390625 
Q 24.65625 48.390625 19.8125 42.84375 
Q 14.984375 37.3125 14.984375 27.296875 
Q 14.984375 17.28125 19.8125 11.734375 
Q 24.65625 6.203125 33.40625 6.203125 
Q 37.3125 6.203125 41.140625 7.25 
Q 44.96875 8.296875 48.78125 10.40625 
L 48.78125 2.09375 
Q 45.015625 0.34375 40.984375 -0.53125 
Q 36.96875 -1.421875 32.421875 -1.421875 
Q 20.0625 -1.421875 12.78125 6.34375 
Q 5.515625 14.109375 5.515625 27.296875 
Q 5.515625 40.671875 12.859375 48.328125 
Q 20.21875 56 33.015625 56 
Q 37.15625 56 41.109375 55.140625 
Q 45.0625 54.296875 48.78125 52.59375 
z
" id="DejaVuSans-99"/>
     <path d="M 18.3125 70.21875 
L 18.3125 54.6875 
L 36.8125 54.6875 
L 36.8125 47.703125 
L 18.3125 47.703125 
L 18.3125 18.015625 
Q 18.3125 11.328125 20.140625 9.421875 
Q 21.96875 7.515625 27.59375 7.515625 
L 36.8125 7.515625 
L 36.8125 0 
L 27.59375 0 
Q 17.1875 0 13.234375 3.875 
Q 9.28125 7.765625 9.28125 18.015625 
L 9.28125 47.703125 
L 2.6875 47.703125 
L 2.6875 54.6875 
L 9.28125 54.6875 
L 9.28125 70.21875 
z
" id="DejaVuSans-116"/>
     <path d="M 11.71875 12.40625 
L 22.015625 12.40625 
L 22.015625 0 
L 11.71875 0 
z
M 11.71875 51.703125 
L 22.015625 51.703125 
L 22.015625 39.3125 
L 11.71875 39.3125 
z
" id="DejaVuSans-58"/>
     <path d="M 44.28125 53.078125 
L 44.28125 44.578125 
Q 40.484375 46.53125 36.375 47.5 
Q 32.28125 48.484375 27.875 48.484375 
Q 21.1875 48.484375 17.84375 46.4375 
Q 14.5 44.390625 14.5 40.28125 
Q 14.5 37.15625 16.890625 35.375 
Q 19.28125 33.59375 26.515625 31.984375 
L 29.59375 31.296875 
Q 39.15625 29.25 43.1875 25.515625 
Q 47.21875 21.78125 47.21875 15.09375 
Q 47.21875 7.46875 41.1875 3.015625 
Q 35.15625 -1.421875 24.609375 -1.421875 
Q 20.21875 -1.421875 15.453125 -0.5625 
Q 10.6875 0.296875 5.421875 2 
L 5.421875 11.28125 
Q 10.40625 8.6875 15.234375 7.390625 
Q 20.0625 6.109375 24.8125 6.109375 
Q 31.15625 6.109375 34.5625 8.28125 
Q 37.984375 10.453125 37.984375 14.40625 
Q 37.984375 18.0625 35.515625 20.015625 
Q 33.0625 21.96875 24.703125 23.78125 
L 21.578125 24.515625 
Q 13.234375 26.265625 9.515625 29.90625 
Q 5.8125 33.546875 5.8125 39.890625 
Q 5.8125 47.609375 11.28125 51.796875 
Q 16.75 56 26.8125 56 
Q 31.78125 56 36.171875 55.265625 
Q 40.578125 54.546875 44.28125 53.078125 
z
" id="DejaVuSans-115"/>
     <path d="M 11.71875 12.40625 
L 22.015625 12.40625 
L 22.015625 4 
L 14.015625 -11.625 
L 7.71875 -11.625 
L 11.71875 4 
z
" id="DejaVuSans-44"/>
     <path d="M 9.8125 72.90625 
L 19.671875 72.90625 
L 19.671875 42.09375 
L 52.390625 72.90625 
L 65.09375 72.90625 
L 28.90625 38.921875 
L 67.671875 0 
L 54.6875 0 
L 19.671875 35.109375 
L 19.671875 0 
L 9.8125 0 
z
" id="DejaVuSans-75"/>
     <path d="M 54.890625 33.015625 
L 54.890625 0 
L 45.90625 0 
L 45.90625 32.71875 
Q 45.90625 40.484375 42.875 44.328125 
Q 39.84375 48.1875 33.796875 48.1875 
Q 26.515625 48.1875 22.3125 43.546875 
Q 18.109375 38.921875 18.109375 30.90625 
L 18.109375 0 
L 9.078125 0 
L 9.078125 54.6875 
L 18.109375 54.6875 
L 18.109375 46.1875 
Q 21.34375 51.125 25.703125 53.5625 
Q 30.078125 56 35.796875 56 
Q 45.21875 56 50.046875 50.171875 
Q 54.890625 44.34375 54.890625 33.015625 
z
" id="DejaVuSans-110"/>
     <path d="M 30.609375 48.390625 
Q 23.390625 48.390625 19.1875 42.75 
Q 14.984375 37.109375 14.984375 27.296875 
Q 14.984375 17.484375 19.15625 11.84375 
Q 23.34375 6.203125 30.609375 6.203125 
Q 37.796875 6.203125 41.984375 11.859375 
Q 46.1875 17.53125 46.1875 27.296875 
Q 46.1875 37.015625 41.984375 42.703125 
Q 37.796875 48.390625 30.609375 48.390625 
z
M 30.609375 56 
Q 42.328125 56 49.015625 48.375 
Q 55.71875 40.765625 55.71875 27.296875 
Q 55.71875 13.875 49.015625 6.21875 
Q 42.328125 -1.421875 30.609375 -1.421875 
Q 18.84375 -1.421875 12.171875 6.21875 
Q 5.515625 13.875 5.515625 27.296875 
Q 5.515625 40.765625 12.171875 48.375 
Q 18.84375 56 30.609375 56 
z
" id="DejaVuSans-111"/>
     <path d="M 4.203125 54.6875 
L 13.1875 54.6875 
L 24.421875 12.015625 
L 35.59375 54.6875 
L 46.1875 54.6875 
L 57.421875 12.015625 
L 68.609375 54.6875 
L 77.59375 54.6875 
L 63.28125 0 
L 52.6875 0 
L 40.921875 44.828125 
L 29.109375 0 
L 18.5 0 
z
" id="DejaVuSans-119"/>
     <path d="M 10.59375 45.40625 
L 73.1875 45.40625 
L 73.1875 37.203125 
L 10.59375 37.203125 
z
M 10.59375 25.484375 
L 73.1875 25.484375 
L 73.1875 17.1875 
L 10.59375 17.1875 
z
" id="DejaVuSans-61"/>
     <path d="M 9.8125 72.90625 
L 51.703125 72.90625 
L 51.703125 64.59375 
L 19.671875 64.59375 
L 19.671875 43.109375 
L 48.578125 43.109375 
L 48.578125 34.8125 
L 19.671875 34.8125 
L 19.671875 0 
L 9.8125 0 
z
" id="DejaVuSans-70"/>
     <path d="M 34.28125 27.484375 
Q 23.390625 27.484375 19.1875 25 
Q 14.984375 22.515625 14.984375 16.5 
Q 14.984375 11.71875 18.140625 8.90625 
Q 21.296875 6.109375 26.703125 6.109375 
Q 34.1875 6.109375 38.703125 11.40625 
Q 43.21875 16.703125 43.21875 25.484375 
L 43.21875 27.484375 
z
M 52.203125 31.203125 
L 52.203125 0 
L 43.21875 0 
L 43.21875 8.296875 
Q 40.140625 3.328125 35.546875 0.953125 
Q 30.953125 -1.421875 24.3125 -1.421875 
Q 15.921875 -1.421875 10.953125 3.296875 
Q 6 8.015625 6 15.921875 
Q 6 25.140625 12.171875 29.828125 
Q 18.359375 34.515625 30.609375 34.515625 
L 43.21875 34.515625 
L 43.21875 35.40625 
Q 43.21875 41.609375 39.140625 45 
Q 35.0625 48.390625 27.6875 48.390625 
Q 23 48.390625 18.546875 47.265625 
Q 14.109375 46.140625 10.015625 43.890625 
L 10.015625 52.203125 
Q 14.9375 54.109375 19.578125 55.046875 
Q 24.21875 56 28.609375 56 
Q 40.484375 56 46.34375 49.84375 
Q 52.203125 43.703125 52.203125 31.203125 
z
" id="DejaVuSans-97"/>
     <path d="M 9.421875 75.984375 
L 18.40625 75.984375 
L 18.40625 0 
L 9.421875 0 
z
" id="DejaVuSans-108"/>
     <path d="M 19.671875 64.796875 
L 19.671875 8.109375 
L 31.59375 8.109375 
Q 46.6875 8.109375 53.6875 14.9375 
Q 60.6875 21.78125 60.6875 36.53125 
Q 60.6875 51.171875 53.6875 57.984375 
Q 46.6875 64.796875 31.59375 64.796875 
z
M 9.8125 72.90625 
L 30.078125 72.90625 
Q 51.265625 72.90625 61.171875 64.09375 
Q 71.09375 55.28125 71.09375 36.53125 
Q 71.09375 17.671875 61.125 8.828125 
Q 51.171875 0 30.078125 0 
L 9.8125 0 
z
" id="DejaVuSans-68"/>
     <path d="M 45.40625 27.984375 
Q 45.40625 37.75 41.375 43.109375 
Q 37.359375 48.484375 30.078125 48.484375 
Q 22.859375 48.484375 18.828125 43.109375 
Q 14.796875 37.75 14.796875 27.984375 
Q 14.796875 18.265625 18.828125 12.890625 
Q 22.859375 7.515625 30.078125 7.515625 
Q 37.359375 7.515625 41.375 12.890625 
Q 45.40625 18.265625 45.40625 27.984375 
z
M 54.390625 6.78125 
Q 54.390625 -7.171875 48.1875 -13.984375 
Q 42 -20.796875 29.203125 -20.796875 
Q 24.46875 -20.796875 20.265625 -20.09375 
Q 16.0625 -19.390625 12.109375 -17.921875 
L 12.109375 -9.1875 
Q 16.0625 -11.328125 19.921875 -12.34375 
Q 23.78125 -13.375 27.78125 -13.375 
Q 36.625 -13.375 41.015625 -8.765625 
Q 45.40625 -4.15625 45.40625 5.171875 
L 45.40625 9.625 
Q 42.625 4.78125 38.28125 2.390625 
Q 33.9375 0 27.875 0 
Q 17.828125 0 11.671875 7.65625 
Q 5.515625 15.328125 5.515625 27.984375 
Q 5.515625 40.671875 11.671875 48.328125 
Q 17.828125 56 27.875 56 
Q 33.9375 56 38.28125 53.609375 
Q 42.625 51.21875 45.40625 46.390625 
L 45.40625 54.6875 
L 54.390625 54.6875 
z
" id="DejaVuSans-103"/>
     <path d="M 41.109375 46.296875 
Q 39.59375 47.171875 37.8125 47.578125 
Q 36.03125 48 33.890625 48 
Q 26.265625 48 22.1875 43.046875 
Q 18.109375 38.09375 18.109375 28.8125 
L 18.109375 0 
L 9.078125 0 
L 9.078125 54.6875 
L 18.109375 54.6875 
L 18.109375 46.1875 
Q 20.953125 51.171875 25.484375 53.578125 
Q 30.03125 56 36.53125 56 
Q 37.453125 56 38.578125 55.875 
Q 39.703125 55.765625 41.0625 55.515625 
z
" id="DejaVuSans-114"/>
     <path d="M 9.421875 54.6875 
L 18.40625 54.6875 
L 18.40625 0 
L 9.421875 0 
z
M 9.421875 75.984375 
L 18.40625 75.984375 
L 18.40625 64.59375 
L 9.421875 64.59375 
z
" id="DejaVuSans-105"/>
     <path d="M 10.6875 12.40625 
L 21 12.40625 
L 21 0 
L 10.6875 0 
z
" id="DejaVuSans-46"/>
    </defs>
    <g transform="translate(45.924375 35.472)scale(0.12 -0.12)">
     <use xlink:href="#DejaVuSans-40"/>
     <use x="39.013672" xlink:href="#DejaVuSans-49"/>
     <use x="102.636719" xlink:href="#DejaVuSans-48"/>
     <use x="166.259766" xlink:href="#DejaVuSans-52"/>
     <use x="229.882812" xlink:href="#DejaVuSans-41"/>
     <use x="268.896484" xlink:href="#DejaVuSans-32"/>
     <use x="300.683594" xlink:href="#DejaVuSans-83"/>
     <use x="364.160156" xlink:href="#DejaVuSans-117"/>
     <use x="427.539062" xlink:href="#DejaVuSans-98"/>
     <use x="491.015625" xlink:href="#DejaVuSans-106"/>
     <use x="518.798828" xlink:href="#DejaVuSans-101"/>
     <use x="580.322266" xlink:href="#DejaVuSans-99"/>
     <use x="635.302734" xlink:href="#DejaVuSans-116"/>
     <use x="674.511719" xlink:href="#DejaVuSans-58"/>
     <use x="708.203125" xlink:href="#DejaVuSans-32"/>
     <use x="739.990234" xlink:href="#DejaVuSans-115"/>
     <use x="792.089844" xlink:href="#DejaVuSans-50"/>
     <use x="855.712891" xlink:href="#DejaVuSans-55"/>
     <use x="919.335938" xlink:href="#DejaVuSans-44"/>
     <use x="951.123047" xlink:href="#DejaVuSans-32"/>
     <use x="982.910156" xlink:href="#DejaVuSans-75"/>
     <use x="1048.486328" xlink:href="#DejaVuSans-110"/>
     <use x="1111.865234" xlink:href="#DejaVuSans-111"/>
     <use x="1173.046875" xlink:href="#DejaVuSans-119"/>
     <use x="1254.833984" xlink:href="#DejaVuSans-110"/>
     <use x="1318.212891" xlink:href="#DejaVuSans-32"/>
     <use x="1350" xlink:href="#DejaVuSans-61"/>
     <use x="1433.789062" xlink:href="#DejaVuSans-32"/>
     <use x="1465.576172" xlink:href="#DejaVuSans-70"/>
     <use x="1522.955078" xlink:href="#DejaVuSans-97"/>
     <use x="1584.234375" xlink:href="#DejaVuSans-108"/>
     <use x="1612.017578" xlink:href="#DejaVuSans-115"/>
     <use x="1664.117188" xlink:href="#DejaVuSans-101"/>
     <use x="1725.640625" xlink:href="#DejaVuSans-44"/>
     <use x="1757.427734" xlink:href="#DejaVuSans-32"/>
     <use x="1789.214844" xlink:href="#DejaVuSans-68"/>
     <use x="1866.216797" xlink:href="#DejaVuSans-101"/>
     <use x="1927.740234" xlink:href="#DejaVuSans-103"/>
     <use x="1991.216797" xlink:href="#DejaVuSans-114"/>
     <use x="2032.298828" xlink:href="#DejaVuSans-101"/>
     <use x="2093.822266" xlink:href="#DejaVuSans-101"/>
     <use x="2155.345703" xlink:href="#DejaVuSans-32"/>
     <use x="2187.132812" xlink:href="#DejaVuSans-61"/>
     <use x="2270.921875" xlink:href="#DejaVuSans-32"/>
     <use x="2302.708984" xlink:href="#DejaVuSans-50"/>
     <use x="2366.332031" xlink:href="#DejaVuSans-44"/>
     <use x="2398.119141" xlink:href="#DejaVuSans-32"/>
     <use x="2429.90625" xlink:href="#DejaVuSans-68"/>
     <use x="2506.908203" xlink:href="#DejaVuSans-117"/>
     <use x="2570.287109" xlink:href="#DejaVuSans-114"/>
     <use x="2611.400391" xlink:href="#DejaVuSans-97"/>
     <use x="2672.679688" xlink:href="#DejaVuSans-116"/>
     <use x="2711.888672" xlink:href="#DejaVuSans-105"/>
     <use x="2739.671875" xlink:href="#DejaVuSans-111"/>
     <use x="2800.853516" xlink:href="#DejaVuSans-110"/>
     <use x="2864.232422" xlink:href="#DejaVuSans-32"/>
     <use x="2896.019531" xlink:href="#DejaVuSans-61"/>
     <use x="2979.808594" xlink:href="#DejaVuSans-32"/>
     <use x="3011.595703" xlink:href="#DejaVuSans-48"/>
     <use x="3075.21875" xlink:href="#DejaVuSans-46"/>
     <use x="3107.005859" xlink:href="#DejaVuSans-49"/>
    </g>
   </g>
  </g>
 </g>
 <defs>
  <clipPath id="p4a97f6084f">
   <rect height="266.112" width="357.12" x="57.6" y="41.472"/>
  </clipPath>
 </defs>
</svg>
