<?xml version="1.0" encoding="utf-8" standalone="no"?>
<!DOCTYPE svg PUBLIC "-//W3C//DTD SVG 1.1//EN"
  "http://www.w3.org/Graphics/SVG/1.1/DTD/svg11.dtd">
<!-- Created with matplotlib (https://matplotlib.org/) -->
<svg height="345.6pt" version="1.1" viewBox="0 0 460.8 345.6" width="460.8pt" xmlns="http://www.w3.org/2000/svg" xmlns:xlink="http://www.w3.org/1999/xlink">
 <defs>
  <style type="text/css">
*{stroke-linecap:butt;stroke-linejoin:round;}
  </style>
 </defs>
 <g id="figure_1">
  <g id="patch_1">
   <path d="M 0 345.6 
L 460.8 345.6 
L 460.8 0 
L 0 0 
z
" style="fill:#ffffff;"/>
  </g>
  <g id="axes_1">
   <g id="patch_2">
    <path d="M 57.6 307.584 
L 414.72 307.584 
L 414.72 41.472 
L 57.6 41.472 
z
" style="fill:#ffffff;"/>
   </g>
   <g id="line2d_1">
    <path clip-path="url(#p568f35cd01)" d="M 398.487273 58.328698 
L 398.194436 58.328698 
L 398.194436 58.328698 
L 397.901599 59.121108 
L 397.315925 59.121108 
L 397.019184 59.649381 
L 397.315925 59.649381 
L 397.608762 59.385244 
L 397.901599 59.385244 
L 397.901599 59.385244 
L 397.608762 59.913518 
L 397.019184 60.443871 
L 397.019184 60.972144 
L 396.726347 60.972144 
L 396.726347 60.972144 
L 396.726347 61.23628 
L 397.019184 61.500417 
L 397.608762 61.764554 
L 397.608762 61.500417 
L 397.315925 61.23628 
L 397.901599 61.23628 
L 398.194436 60.177654 
L 397.019184 60.708007 
L 396.43351 61.500417 
L 396.140673 61.500417 
L 396.140673 61.500417 
L 395.847837 61.764554 
L 395.847837 62.292827 
L 395.847837 62.02869 
L 395.555 61.764554 
L 395.847837 61.764554 
L 396.43351 61.23628 
L 397.019184 60.972144 
L 397.019184 60.972144 
L 396.43351 60.708007 
L 395.847837 60.708007 
L 394.969326 61.500417 
L 394.676489 61.23628 
L 394.090816 61.23628 
L 393.797979 61.764554 
L 394.090816 61.764554 
L 394.676489 61.23628 
L 394.676489 60.708007 
L 394.383652 60.708007 
L 395.262163 61.500417 
L 395.555 61.500417 
L 395.262163 60.708007 
L 394.676489 59.649381 
L 394.090816 59.121108 
L 393.797979 59.121108 
L 393.797979 59.913518 
L 394.090816 60.443871 
L 394.676489 60.972144 
L 394.383652 60.708007 
L 394.090816 60.708007 
L 394.090816 59.385244 
L 394.090816 59.649381 
L 393.797979 59.913518 
L 393.505142 60.443871 
L 393.505142 60.443871 
L 394.090816 59.913518 
L 393.505142 60.443871 
L 393.212305 60.443871 
L 393.212305 59.913518 
L 392.919468 59.385244 
L 392.919468 60.708007 
L 393.212305 60.972144 
L 393.505142 60.708007 
L 393.212305 60.972144 
L 392.919468 60.972144 
L 392.919468 60.972144 
L 392.626631 60.708007 
L 392.626631 59.913518 
L 392.626631 59.913518 
L 392.333794 60.708007 
L 392.333794 60.708007 
L 392.333794 60.177654 
L 392.040958 59.913518 
L 391.455284 60.177654 
L 391.748121 60.443871 
L 393.212305 59.649381 
L 392.919468 59.649381 
L 392.333794 59.649381 
L 392.040958 59.385244 
L 391.748121 59.649381 
L 391.162447 59.913518 
L 390.86961 60.177654 
L 391.748121 60.972144 
L 392.040958 60.972144 
L 392.040958 60.972144 
L 392.333794 60.443871 
L 392.333794 59.913518 
L 392.040958 59.649381 
L 391.455284 59.649381 
L 391.455284 60.177654 
L 392.333794 59.385244 
L 392.626631 59.385244 
L 392.626631 59.913518 
L 392.919468 60.177654 
L 392.919468 59.913518 
L 391.748121 58.856971 
L 391.455284 58.856971 
L 391.455284 59.385244 
L 390.280032 59.385244 
L 389.987195 59.913518 
L 389.694358 60.177654 
L 390.280032 59.913518 
L 390.576773 58.856971 
L 390.280032 58.328698 
L 389.401522 58.856971 
L 389.108685 59.913518 
L 389.401522 60.443871 
L 389.694358 60.177654 
L 389.694358 59.913518 
L 389.987195 59.649381 
L 389.987195 59.121108 
L 389.987195 59.121108 
L 390.86961 59.649381 
L 391.748121 59.649381 
L 391.748121 59.121108 
L 390.86961 58.062482 
L 390.576773 58.062482 
L 389.987195 58.592835 
L 389.987195 58.592835 
L 389.987195 58.328698 
L 389.694358 58.062482 
L 389.694358 57.798345 
L 390.280032 57.534208 
L 391.162447 57.534208 
L 391.455284 57.798345 
L 391.162447 58.062482 
L 390.576773 58.062482 
L 389.987195 58.328698 
L 389.694358 58.592835 
L 389.694358 58.856971 
L 390.280032 58.856971 
L 390.576773 58.592835 
L 389.401522 57.534208 
L 388.523011 58.328698 
L 388.523011 58.856971 
L 389.108685 58.856971 
L 389.694358 58.592835 
L 389.694358 58.856971 
L 389.108685 59.121108 
L 388.230174 59.121108 
L 388.523011 58.592835 
L 389.401522 57.798345 
L 390.280032 57.270072 
L 390.86961 57.270072 
L 389.401522 57.798345 
L 389.108685 57.270072 
L 388.815848 57.005935 
L 388.815848 57.005935 
L 388.523011 57.534208 
L 387.351664 57.798345 
L 387.351664 57.534208 
L 387.6445 57.534208 
L 387.351664 57.270072 
L 387.6445 56.741799 
L 388.230174 56.741799 
L 387.937337 56.477662 
L 387.351664 55.683173 
L 387.351664 55.419036 
L 387.6445 55.683173 
L 388.523011 55.419036 
L 389.108685 54.890763 
L 388.815848 54.36249 
L 388.523011 54.36249 
L 386.76599 54.890763 
L 386.76599 53.568 
L 386.76599 53.834216 
L 387.058827 54.36249 
L 387.058827 54.890763 
L 387.058827 54.626626 
L 386.76599 54.36249 
L 386.180316 54.890763 
L 386.473153 54.890763 
L 386.76599 55.154899 
L 386.473153 55.683173 
L 385.594643 55.949389 
L 385.887479 55.683173 
L 387.058827 55.683173 
L 386.76599 55.419036 
L 386.180316 55.419036 
L 385.594643 55.154899 
L 385.301806 54.626626 
L 385.594643 54.36249 
L 386.180316 54.626626 
L 386.180316 54.626626 
L 386.473153 54.36249 
L 386.473153 54.626626 
L 385.887479 55.419036 
L 385.301806 55.419036 
L 385.008969 55.154899 
L 385.008969 55.419036 
L 385.008969 55.419036 
L 384.130458 54.890763 
L 382.955206 54.626626 
L 382.369533 54.890763 
L 381.491022 55.419036 
L 375.923218 57.270072 
L 372.116339 58.062482 
L 367.719881 58.856971 
L 363.030587 59.913518 
L 358.052361 60.443871 
L 353.07023 60.443871 
L 347.795262 61.23628 
L 341.641784 62.82318 
L 335.195469 63.879726 
L 328.456317 64.674216 
L 321.424328 65.730762 
L 290.656937 71.019733 
L 282.746438 72.07628 
L 270.146644 74.191452 
L 263.700329 76.306625 
L 257.546851 78.685934 
L 252.568625 80.272833 
L 248.172167 82.123869 
L 238.504647 86.618351 
L 234.10819 88.20525 
L 229.418896 90.320423 
L 223.851091 93.228005 
L 217.99045 96.663861 
L 211.548039 99.837659 
L 198.948246 106.447314 
L 192.501931 110.149386 
L 186.055616 113.056968 
L 179.902137 115.700414 
L 169.937876 119.666622 
L 158.806171 123.368694 
L 156.459572 124.691457 
L 154.995388 125.748003 
L 154.116877 126.540413 
L 154.116877 127.334902 
L 154.409714 127.863176 
L 154.702551 127.863176 
L 154.995388 128.127312 
L 154.995388 128.391449 
L 155.581061 128.391449 
L 156.166735 128.921802 
L 156.459572 129.450075 
L 157.923756 131.301111 
L 158.806171 132.093521 
L 158.513334 132.621794 
L 158.513334 132.885931 
L 157.630919 134.47283 
L 156.752409 135.531456 
L 154.995388 136.852139 
L 154.409714 137.910765 
L 153.82404 139.231448 
L 152.652693 140.290074 
L 151.774182 141.346621 
L 151.184604 142.669383 
L 150.59893 143.197657 
L 150.013257 143.992146 
L 149.427583 145.312829 
L 149.427583 146.107319 
L 148.549072 149.014901 
L 147.670562 150.6018 
L 147.377725 151.39421 
L 147.084888 151.39421 
L 147.084888 151.39421 
L 147.377725 151.922483 
L 146.206378 153.509383 
L 146.206378 154.037656 
L 146.499214 154.565929 
L 145.913541 155.096282 
L 145.913541 156.416965 
L 145.327867 156.947318 
L 144.738289 158.003864 
L 144.445452 158.796274 
L 144.445452 162.762483 
L 143.274105 163.821109 
L 141.80992 164.613519 
L 140.93141 165.672145 
L 140.345736 166.200418 
L 140.052899 166.728691 
L 139.174389 166.992828 
L 137.7063 167.787317 
L 135.949279 169.108 
L 133.606584 170.430763 
L 130.674311 171.487309 
L 127.160269 171.753526 
L 119.542607 172.810072 
L 116.02466 173.866619 
L 112.217781 175.189381 
L 108.699834 176.248008 
L 104.889051 177.040417 
L 100.789335 178.891453 
L 96.978552 181.799036 
L 94.050183 184.972834 
L 91.996421 188.144553 
L 89.068052 194.754207 
L 87.311031 197.928006 
L 86.725357 201.363862 
L 86.725357 205.065934 
L 87.603868 208.503869 
L 93.464509 218.285242 
L 95.807204 221.459041 
L 98.442736 224.102486 
L 101.375009 225.953522 
L 102.839193 228.332832 
L 102.839193 233.355586 
L 103.424867 234.414213 
L 104.303377 235.734896 
L 104.303377 237.321795 
L 103.717704 238.644558 
L 102.839193 239.701104 
L 102.253519 240.75973 
L 101.667846 242.080413 
L 100.789335 242.874903 
L 99.617988 243.667313 
L 98.739477 244.459722 
L 98.149899 245.254212 
L 97.564225 246.574895 
L 96.978552 248.956284 
L 95.807204 250.541103 
L 95.807204 251.863866 
L 96.392878 254.243175 
L 96.100041 255.035585 
L 95.514367 256.094211 
L 95.807204 257.150758 
L 95.514367 258.47352 
L 94.928694 260.324556 
L 94.635857 262.703865 
L 93.757346 265.611448 
L 93.757346 268.52111 
L 93.171673 270.105929 
L 92.293162 271.428692 
L 91.703584 271.956965 
L 92.293162 273.808001 
L 92.293162 274.600411 
L 91.703584 275.130764 
L 91.11791 275.923174 
L 90.532236 278.830756 
L 89.946563 279.625246 
L 89.360889 279.889382 
L 88.775215 279.625246 
L 89.360889 279.889382 
L 89.068052 280.417656 
L 87.896705 281.476282 
L 88.189542 282.532828 
L 88.189542 283.327318 
L 87.603868 283.855591 
L 87.311031 284.383864 
L 87.311031 284.912137 
L 87.603868 285.44249 
L 86.139684 287.291446 
L 85.846847 288.350073 
L 86.725357 288.878346 
L 87.311031 288.878346 
L 87.018194 289.406619 
L 86.432521 289.936972 
L 86.432521 290.465245 
L 86.725357 290.729382 
L 86.725357 291.257655 
L 86.432521 291.785928 
L 86.139684 292.052145 
L 84.964432 292.580418 
L 84.671595 293.108691 
L 84.378758 293.108691 
L 84.671595 293.636964 
L 84.671595 294.431454 
L 84.378758 294.431454 
L 84.378758 293.901101 
L 84.378758 294.69559 
L 84.085921 294.69559 
L 83.793085 293.636964 
L 84.085921 293.901101 
L 84.085921 293.901101 
L 83.500248 293.901101 
L 82.914574 294.167317 
L 82.914574 294.167317 
L 83.500248 294.431454 
L 83.793085 294.431454 
L 84.085921 294.69559 
L 84.085921 294.959727 
L 83.793085 294.69559 
L 83.500248 294.69559 
L 83.793085 294.69559 
L 84.085921 295.223863 
L 83.793085 295.488 
L 83.793085 294.959727 
L 81.45039 295.488 
L 81.45039 294.69559 
L 82.036063 294.431454 
L 82.621737 294.69559 
L 82.621737 295.223863 
L 82.621737 294.959727 
L 83.207411 293.636964 
L 83.207411 294.167317 
L 82.621737 294.167317 
L 82.621737 293.901101 
L 82.914574 293.901101 
L 82.914574 293.636964 
L 82.621737 293.108691 
L 82.3289 293.108691 
L 82.621737 293.108691 
L 83.207411 292.844554 
L 83.207411 292.316281 
L 82.621737 292.052145 
L 82.3289 291.785928 
L 82.621737 291.521792 
L 82.3289 291.257655 
L 81.743227 291.785928 
L 81.157553 292.052145 
L 81.45039 291.785928 
L 81.743227 291.257655 
L 81.157553 290.729382 
L 80.864716 290.729382 
L 81.157553 290.465245 
L 81.743227 290.465245 
L 82.3289 289.936972 
L 81.743227 289.406619 
L 79.693369 288.878346 
L 79.693369 288.614209 
L 80.279042 288.085936 
L 81.157553 287.821799 
L 81.157553 287.821799 
L 80.571879 288.350073 
L 79.986206 288.614209 
L 79.986206 288.085936 
L 80.571879 287.821799 
L 80.864716 288.085936 
L 80.571879 288.350073 
L 79.986206 287.291446 
L 79.986206 286.499037 
L 80.279042 285.970763 
L 80.571879 286.2349 
L 80.279042 286.2349 
L 79.400532 285.970763 
L 79.400532 285.44249 
L 79.986206 284.912137 
L 79.693369 285.176274 
L 79.693369 285.706627 
L 80.279042 285.706627 
L 80.571879 285.970763 
L 80.571879 285.970763 
L 80.279042 285.970763 
L 80.279042 285.176274 
L 79.986206 284.648001 
L 79.986206 284.648001 
L 79.693369 284.648001 
L 80.279042 283.855591 
L 80.864716 283.855591 
L 80.279042 283.591454 
L 79.400532 283.327318 
L 78.814858 282.796965 
L 79.107695 282.532828 
L 79.400532 282.532828 
L 78.814858 282.268692 
L 78.518117 281.212145 
L 78.518117 279.625246 
L 77.932443 278.56662 
L 76.468259 277.510073 
L 75.296912 276.187311 
L 74.125564 275.130764 
L 73.832727 274.072138 
L 74.125564 273.015592 
L 75.004075 271.692829 
L 75.296912 270.370066 
L 75.296912 269.31352 
L 75.882585 267.990757 
L 76.761096 266.670074 
L 77.346769 265.083175 
L 78.22528 263.760412 
L 79.400532 262.703865 
L 80.571879 261.381103 
L 81.45039 260.85283 
L 82.036063 261.116966 
L 82.3289 261.116966 
L 82.036063 260.588693 
L 81.743227 260.324556 
L 80.864716 260.324556 
L 80.279042 260.588693 
L 79.107695 260.06042 
L 78.518117 260.324556 
L 77.639606 261.116966 
L 77.639606 261.645239 
L 77.932443 261.645239 
L 77.639606 261.911456 
L 77.053933 261.911456 
L 76.468259 262.968002 
L 76.761096 263.496275 
L 77.053933 263.496275 
L 77.346769 263.232139 
L 77.932443 262.439729 
L 77.932443 262.175592 
L 77.932443 262.439729 
L 78.22528 262.968002 
L 78.22528 262.968002 
L 77.932443 262.703865 
L 78.22528 261.911456 
L 78.518117 261.911456 
L 78.518117 261.911456 
L 78.22528 262.175592 
L 77.932443 262.703865 
L 77.639606 262.703865 
L 77.346769 262.439729 
L 76.761096 262.175592 
L 76.468259 261.911456 
L 76.468259 261.381103 
L 76.761096 260.85283 
L 76.761096 261.381103 
L 77.053933 261.381103 
L 77.346769 261.116966 
L 77.932443 261.116966 
L 77.639606 261.381103 
L 77.053933 261.645239 
L 76.761096 261.645239 
L 77.053933 261.911456 
L 77.053933 262.175592 
L 77.346769 261.911456 
L 77.346769 261.381103 
L 77.053933 261.381103 
L 77.053933 261.116966 
L 77.053933 261.116966 
L 77.346769 261.116966 
L 77.639606 260.85283 
L 77.639606 260.588693 
L 77.639606 261.116966 
L 77.932443 261.645239 
L 77.932443 261.911456 
L 77.932443 261.381103 
L 77.639606 260.85283 
L 77.639606 260.85283 
L 77.346769 261.116966 
L 77.639606 261.381103 
L 78.22528 261.381103 
L 77.639606 260.324556 
L 77.639606 260.06042 
L 77.639606 260.324556 
L 77.053933 260.588693 
L 76.761096 260.85283 
L 77.053933 261.116966 
L 77.639606 261.381103 
L 77.639606 261.645239 
L 77.932443 261.645239 
L 78.22528 261.116966 
L 77.932443 260.324556 
L 77.346769 260.324556 
L 77.053933 260.588693 
L 77.053933 260.85283 
L 77.346769 260.85283 
L 77.053933 260.588693 
L 77.053933 260.588693 
L 77.346769 260.588693 
L 77.346769 260.06042 
L 76.175422 260.588693 
L 76.468259 260.324556 
L 76.468259 260.324556 
L 76.175422 260.85283 
L 75.882585 261.116966 
L 75.882585 260.588693 
L 76.468259 259.796283 
L 77.053933 259.26593 
L 77.639606 259.26593 
L 77.053933 259.26593 
L 76.468259 259.001794 
L 76.468259 258.737657 
L 76.761096 258.47352 
L 76.761096 258.209384 
L 76.175422 258.47352 
L 76.468259 259.001794 
L 77.053933 259.530067 
L 77.932443 259.530067 
L 77.932443 259.26593 
L 77.346769 259.530067 
L 77.053933 259.530067 
L 77.639606 258.209384 
L 77.932443 257.681111 
L 78.518117 257.150758 
L 79.400532 256.886621 
L 80.864716 256.622484 
L 82.914574 256.094211 
L 86.139684 255.830075 
L 89.946563 255.830075 
L 94.34302 255.035585 
L 99.032314 253.714902 
L 104.596214 252.392139 
L 110.456855 251.863866 
L 116.317497 251.069377 
L 122.178138 249.748694 
L 128.331617 247.897658 
L 135.070769 246.310758 
L 142.102757 244.990075 
L 149.427583 243.931449 
L 156.459572 242.610766 
L 171.40206 240.495594 
L 178.141212 239.701104 
L 184.001853 238.380421 
L 189.569658 237.321795 
L 200.705267 236.265249 
L 205.980235 235.999032 
L 210.958461 235.470759 
L 216.233429 234.678349 
L 221.21556 233.355586 
L 225.612017 232.563177 
L 232.351169 230.712141 
L 238.797484 230.183868 
L 241.433015 229.125241 
L 243.77571 227.540422 
L 245.243799 226.745932 
L 245.536636 226.217659 
L 243.77571 225.689386 
L 243.190037 225.689386 
L 242.604363 226.745932 
L 242.018689 227.540422 
L 241.433015 228.068695 
L 240.554505 228.068695 
L 238.797484 228.596968 
L 236.743721 228.596968 
L 236.450885 228.861105 
L 236.450885 228.861105 
L 236.158048 229.389378 
L 236.450885 229.919731 
L 236.743721 229.919731 
L 236.450885 229.919731 
L 235.572374 230.712141 
L 236.158048 230.183868 
L 236.450885 230.712141 
L 236.743721 231.50455 
L 236.450885 231.240414 
L 236.158048 230.448004 
L 236.450885 229.655594 
L 236.743721 229.389378 
L 236.450885 229.655594 
L 235.279537 230.183868 
L 234.10819 230.976277 
L 234.10819 230.976277 
L 234.401027 230.976277 
L 234.10819 230.976277 
L 233.522516 231.240414 
L 233.815353 231.240414 
L 233.815353 231.240414 
L 233.522516 230.976277 
L 233.522516 230.712141 
L 234.10819 230.712141 
L 234.401027 231.240414 
L 234.10819 231.768687 
L 234.10819 231.768687 
L 234.401027 230.976277 
L 234.9867 230.183868 
L 234.9867 229.919731 
L 234.693864 230.183868 
L 234.10819 230.448004 
L 233.522516 230.976277 
L 232.351169 231.50455 
L 231.765495 231.240414 
L 231.765495 230.448004 
L 232.058332 229.919731 
L 232.351169 229.655594 
L 232.351169 229.919731 
L 232.936842 229.389378 
L 233.522516 229.655594 
L 232.936842 230.183868 
L 231.765495 230.183868 
L 231.765495 230.448004 
L 232.058332 230.976277 
L 232.644006 230.712141 
L 232.936842 230.183868 
L 232.936842 230.448004 
L 233.229679 230.183868 
L 232.936842 230.183868 
L 232.936842 230.448004 
L 232.936842 230.448004 
L 233.229679 230.183868 
L 232.936842 229.919731 
L 232.936842 230.448004 
L 232.936842 230.448004 
L 232.351169 230.448004 
L 232.058332 230.976277 
L 232.058332 231.50455 
L 231.472658 231.50455 
L 231.472658 230.712141 
L 231.765495 230.448004 
L 232.058332 230.448004 
L 231.765495 230.976277 
L 231.472658 230.712141 
L 232.058332 230.183868 
L 232.644006 229.919731 
L 232.351169 229.655594 
L 232.058332 229.655594 
L 231.765495 230.448004 
L 231.765495 231.768687 
L 232.351169 231.240414 
L 232.351169 230.448004 
L 232.058332 229.919731 
L 231.472658 230.448004 
L 231.472658 230.712141 
L 231.765495 230.448004 
L 230.88308 230.448004 
L 231.175917 230.448004 
L 232.058332 231.240414 
L 232.058332 230.976277 
L 231.472658 230.712141 
L 230.88308 230.976277 
L 230.590243 231.50455 
L 230.88308 231.50455 
L 231.472658 231.240414 
L 231.472658 231.240414 
L 231.175917 231.240414 
L 231.175917 230.712141 
L 231.765495 231.768687 
L 231.472658 231.240414 
L 231.175917 230.448004 
L 231.175917 229.919731 
L 231.472658 229.919731 
L 231.472658 230.712141 
L 231.175917 231.240414 
L 231.175917 230.183868 
L 231.765495 229.655594 
L 232.058332 229.655594 
L 232.351169 230.183868 
L 231.765495 230.712141 
L 231.175917 230.976277 
L 231.175917 230.183868 
L 231.175917 230.183868 
L 231.765495 230.448004 
L 231.765495 230.712141 
L 231.472658 230.448004 
L 230.590243 230.183868 
L 230.004569 230.183868 
L 230.004569 230.976277 
L 230.297406 231.50455 
L 230.297406 230.976277 
L 230.88308 230.448004 
L 231.175917 230.448004 
L 230.590243 230.712141 
L 230.297406 230.976277 
L 229.711733 229.919731 
L 229.418896 229.655594 
L 230.004569 229.389378 
L 230.297406 229.389378 
L 230.297406 229.125241 
L 230.004569 228.861105 
L 229.711733 228.861105 
L 229.711733 229.389378 
L 230.297406 229.655594 
L 230.297406 229.389378 
L 230.004569 229.125241 
L 229.418896 229.125241 
L 229.711733 229.125241 
L 230.004569 228.861105 
L 229.126059 228.861105 
L 229.418896 229.125241 
L 230.004569 229.389378 
L 230.297406 229.389378 
L 230.88308 229.125241 
L 230.590243 229.125241 
L 230.004569 229.655594 
L 229.711733 230.183868 
L 229.711733 230.448004 
L 230.004569 230.183868 
L 229.711733 229.655594 
L 229.418896 229.389378 
L 229.711733 229.655594 
L 230.004569 229.389378 
L 230.004569 229.389378 
L 230.004569 230.183868 
L 230.297406 230.976277 
L 230.590243 230.976277 
L 230.297406 230.712141 
L 230.004569 230.712141 
L 230.004569 230.976277 
L 230.590243 230.448004 
L 230.88308 229.389378 
L 230.004569 229.655594 
L 229.418896 229.655594 
L 229.711733 229.919731 
L 230.004569 229.919731 
L 230.297406 229.655594 
L 230.004569 229.655594 
L 229.418896 230.976277 
L 229.418896 230.712141 
L 229.711733 230.448004 
L 230.004569 229.919731 
L 231.175917 229.919731 
L 231.472658 230.183868 
L 231.472658 229.919731 
L 231.472658 230.448004 
L 230.88308 230.448004 
L 229.711733 230.183868 
L 229.418896 229.655594 
L 229.418896 229.389378 
L 229.711733 228.861105 
L 229.711733 228.596968 
L 229.711733 229.125241 
L 230.004569 229.655594 
L 230.297406 229.919731 
L 230.004569 229.919731 
L 230.297406 229.919731 
L 230.004569 229.655594 
L 230.004569 230.448004 
L 229.711733 230.448004 
L 229.126059 229.655594 
L 228.833222 229.655594 
L 229.126059 229.919731 
L 229.126059 230.183868 
L 228.833222 230.448004 
L 228.540385 230.183868 
L 227.954712 229.919731 
L 227.661875 230.183868 
L 227.661875 229.655594 
L 228.247548 228.596968 
L 229.418896 228.332832 
L 228.247548 228.596968 
L 227.954712 228.332832 
L 228.540385 228.596968 
L 228.833222 229.125241 
L 227.954712 229.389378 
L 227.369038 229.125241 
L 227.954712 229.655594 
L 228.540385 229.919731 
L 229.126059 229.655594 
L 229.418896 229.655594 
L 229.126059 230.183868 
L 228.833222 230.183868 
L 228.540385 229.919731 
L 228.833222 229.125241 
L 228.833222 228.596968 
L 228.540385 228.861105 
L 228.540385 229.389378 
L 228.540385 229.389378 
L 228.247548 229.655594 
L 228.540385 229.389378 
L 228.540385 228.861105 
L 228.540385 228.861105 
L 229.126059 228.861105 
L 229.126059 228.596968 
L 228.540385 228.596968 
L 227.661875 228.068695 
L 227.369038 227.540422 
L 227.369038 227.540422 
L 227.076201 227.804558 
L 227.369038 228.332832 
L 227.661875 228.332832 
L 227.369038 228.596968 
L 227.076201 228.332832 
L 227.076201 227.540422 
L 227.369038 227.804558 
L 227.369038 228.332832 
L 227.661875 228.861105 
L 227.369038 228.861105 
L 227.076201 228.596968 
L 227.076201 228.596968 
L 227.076201 228.861105 
L 227.369038 228.596968 
L 227.369038 228.068695 
L 227.076201 227.804558 
L 226.490527 227.804558 
L 226.19769 228.332832 
L 226.19769 228.596968 
L 227.369038 228.332832 
L 227.954712 228.332832 
L 227.661875 228.596968 
L 227.076201 228.596968 
L 226.19769 228.332832 
L 225.904854 228.068695 
L 226.19769 228.068695 
L 226.19769 228.596968 
L 226.19769 228.596968 
L 226.490527 228.596968 
L 226.783364 228.332832 
L 226.783364 229.655594 
L 226.490527 229.655594 
L 226.19769 229.919731 
L 226.490527 229.655594 
L 226.490527 228.596968 
L 226.490527 228.596968 
L 227.076201 228.596968 
L 226.783364 228.596968 
L 226.490527 228.861105 
L 226.19769 229.389378 
L 226.19769 229.655594 
L 225.31918 229.125241 
L 225.026343 228.596968 
L 225.612017 228.068695 
L 225.612017 228.068695 
L 225.904854 228.068695 
L 227.076201 227.540422 
L 227.076201 228.596968 
L 226.783364 228.596968 
L 226.19769 228.861105 
L 225.904854 229.125241 
L 225.904854 229.125241 
L 225.31918 227.804558 
L 225.026343 228.068695 
L 225.026343 228.068695 
L 225.612017 227.804558 
L 226.19769 227.274205 
L 225.904854 227.274205 
L 225.612017 227.540422 
L 225.31918 227.540422 
L 225.31918 227.274205 
L 225.026343 227.274205 
L 225.026343 228.068695 
L 225.31918 228.068695 
L 225.31918 227.274205 
L 225.026343 227.010069 
L 225.31918 227.274205 
L 225.904854 227.274205 
L 225.904854 227.010069 
L 225.31918 227.274205 
L 224.436765 227.804558 
L 224.436765 227.804558 
" style="fill:none;stroke:#1f77b4;stroke-linecap:square;stroke-width:1.5;"/>
   </g>
   <g id="matplotlib.axis_1">
    <g id="xtick_1">
     <g id="line2d_2">
      <defs>
       <path d="M 0 0 
L 0 3.5 
" id="m5e18dd605d" style="stroke:#000000;stroke-width:0.8;"/>
      </defs>
      <g>
       <use style="stroke:#000000;stroke-width:0.8;" x="62.736163" xlink:href="#m5e18dd605d" y="307.584"/>
      </g>
     </g>
     <g id="text_1">
      <!-- −200 -->
      <defs>
       <path d="M 10.59375 35.5 
L 73.1875 35.5 
L 73.1875 27.203125 
L 10.59375 27.203125 
z
" id="DejaVuSans-8722"/>
       <path d="M 19.1875 8.296875 
L 53.609375 8.296875 
L 53.609375 0 
L 7.328125 0 
L 7.328125 8.296875 
Q 12.9375 14.109375 22.625 23.890625 
Q 32.328125 33.6875 34.8125 36.53125 
Q 39.546875 41.84375 41.421875 45.53125 
Q 43.3125 49.21875 43.3125 52.78125 
Q 43.3125 58.59375 39.234375 62.25 
Q 35.15625 65.921875 28.609375 65.921875 
Q 23.96875 65.921875 18.8125 64.3125 
Q 13.671875 62.703125 7.8125 59.421875 
L 7.8125 69.390625 
Q 13.765625 71.78125 18.9375 73 
Q 24.125 74.21875 28.421875 74.21875 
Q 39.75 74.21875 46.484375 68.546875 
Q 53.21875 62.890625 53.21875 53.421875 
Q 53.21875 48.921875 51.53125 44.890625 
Q 49.859375 40.875 45.40625 35.40625 
Q 44.1875 33.984375 37.640625 27.21875 
Q 31.109375 20.453125 19.1875 8.296875 
z
" id="DejaVuSans-50"/>
       <path d="M 31.78125 66.40625 
Q 24.171875 66.40625 20.328125 58.90625 
Q 16.5 51.421875 16.5 36.375 
Q 16.5 21.390625 20.328125 13.890625 
Q 24.171875 6.390625 31.78125 6.390625 
Q 39.453125 6.390625 43.28125 13.890625 
Q 47.125 21.390625 47.125 36.375 
Q 47.125 51.421875 43.28125 58.90625 
Q 39.453125 66.40625 31.78125 66.40625 
z
M 31.78125 74.21875 
Q 44.046875 74.21875 50.515625 64.515625 
Q 56.984375 54.828125 56.984375 36.375 
Q 56.984375 17.96875 50.515625 8.265625 
Q 44.046875 -1.421875 31.78125 -1.421875 
Q 19.53125 -1.421875 13.0625 8.265625 
Q 6.59375 17.96875 6.59375 36.375 
Q 6.59375 54.828125 13.0625 64.515625 
Q 19.53125 74.21875 31.78125 74.21875 
z
" id="DejaVuSans-48"/>
      </defs>
      <g transform="translate(49.002569 322.182437)scale(0.1 -0.1)">
       <use xlink:href="#DejaVuSans-8722"/>
       <use x="83.789062" xlink:href="#DejaVuSans-50"/>
       <use x="147.412109" xlink:href="#DejaVuSans-48"/>
       <use x="211.035156" xlink:href="#DejaVuSans-48"/>
      </g>
     </g>
    </g>
    <g id="xtick_2">
     <g id="line2d_3">
      <g>
       <use style="stroke:#000000;stroke-width:0.8;" x="140.825989" xlink:href="#m5e18dd605d" y="307.584"/>
      </g>
     </g>
     <g id="text_2">
      <!-- 0 -->
      <g transform="translate(137.644739 322.182437)scale(0.1 -0.1)">
       <use xlink:href="#DejaVuSans-48"/>
      </g>
     </g>
    </g>
    <g id="xtick_3">
     <g id="line2d_4">
      <g>
       <use style="stroke:#000000;stroke-width:0.8;" x="218.915814" xlink:href="#m5e18dd605d" y="307.584"/>
      </g>
     </g>
     <g id="text_3">
      <!-- 200 -->
      <g transform="translate(209.372064 322.182437)scale(0.1 -0.1)">
       <use xlink:href="#DejaVuSans-50"/>
       <use x="63.623047" xlink:href="#DejaVuSans-48"/>
       <use x="127.246094" xlink:href="#DejaVuSans-48"/>
      </g>
     </g>
    </g>
    <g id="xtick_4">
     <g id="line2d_5">
      <g>
       <use style="stroke:#000000;stroke-width:0.8;" x="297.00564" xlink:href="#m5e18dd605d" y="307.584"/>
      </g>
     </g>
     <g id="text_4">
      <!-- 400 -->
      <defs>
       <path d="M 37.796875 64.3125 
L 12.890625 25.390625 
L 37.796875 25.390625 
z
M 35.203125 72.90625 
L 47.609375 72.90625 
L 47.609375 25.390625 
L 58.015625 25.390625 
L 58.015625 17.1875 
L 47.609375 17.1875 
L 47.609375 0 
L 37.796875 0 
L 37.796875 17.1875 
L 4.890625 17.1875 
L 4.890625 26.703125 
z
" id="DejaVuSans-52"/>
      </defs>
      <g transform="translate(287.46189 322.182437)scale(0.1 -0.1)">
       <use xlink:href="#DejaVuSans-52"/>
       <use x="63.623047" xlink:href="#DejaVuSans-48"/>
       <use x="127.246094" xlink:href="#DejaVuSans-48"/>
      </g>
     </g>
    </g>
    <g id="xtick_5">
     <g id="line2d_6">
      <g>
       <use style="stroke:#000000;stroke-width:0.8;" x="375.095465" xlink:href="#m5e18dd605d" y="307.584"/>
      </g>
     </g>
     <g id="text_5">
      <!-- 600 -->
      <defs>
       <path d="M 33.015625 40.375 
Q 26.375 40.375 22.484375 35.828125 
Q 18.609375 31.296875 18.609375 23.390625 
Q 18.609375 15.53125 22.484375 10.953125 
Q 26.375 6.390625 33.015625 6.390625 
Q 39.65625 6.390625 43.53125 10.953125 
Q 47.40625 15.53125 47.40625 23.390625 
Q 47.40625 31.296875 43.53125 35.828125 
Q 39.65625 40.375 33.015625 40.375 
z
M 52.59375 71.296875 
L 52.59375 62.3125 
Q 48.875 64.0625 45.09375 64.984375 
Q 41.3125 65.921875 37.59375 65.921875 
Q 27.828125 65.921875 22.671875 59.328125 
Q 17.53125 52.734375 16.796875 39.40625 
Q 19.671875 43.65625 24.015625 45.921875 
Q 28.375 48.1875 33.59375 48.1875 
Q 44.578125 48.1875 50.953125 41.515625 
Q 57.328125 34.859375 57.328125 23.390625 
Q 57.328125 12.15625 50.6875 5.359375 
Q 44.046875 -1.421875 33.015625 -1.421875 
Q 20.359375 -1.421875 13.671875 8.265625 
Q 6.984375 17.96875 6.984375 36.375 
Q 6.984375 53.65625 15.1875 63.9375 
Q 23.390625 74.21875 37.203125 74.21875 
Q 40.921875 74.21875 44.703125 73.484375 
Q 48.484375 72.75 52.59375 71.296875 
z
" id="DejaVuSans-54"/>
      </defs>
      <g transform="translate(365.551715 322.182437)scale(0.1 -0.1)">
       <use xlink:href="#DejaVuSans-54"/>
       <use x="63.623047" xlink:href="#DejaVuSans-48"/>
       <use x="127.246094" xlink:href="#DejaVuSans-48"/>
      </g>
     </g>
    </g>
   </g>
   <g id="matplotlib.axis_2">
    <g id="ytick_1">
     <g id="line2d_7">
      <defs>
       <path d="M 0 0 
L -3.5 0 
" id="m90dfb24206" style="stroke:#000000;stroke-width:0.8;"/>
      </defs>
      <g>
       <use style="stroke:#000000;stroke-width:0.8;" x="57.6" xlink:href="#m90dfb24206" y="297.18305"/>
      </g>
     </g>
     <g id="text_6">
      <!-- −600 -->
      <g transform="translate(23.132812 300.982269)scale(0.1 -0.1)">
       <use xlink:href="#DejaVuSans-8722"/>
       <use x="83.789062" xlink:href="#DejaVuSans-54"/>
       <use x="147.412109" xlink:href="#DejaVuSans-48"/>
       <use x="211.035156" xlink:href="#DejaVuSans-48"/>
      </g>
     </g>
    </g>
    <g id="ytick_2">
     <g id="line2d_8">
      <g>
       <use style="stroke:#000000;stroke-width:0.8;" x="57.6" xlink:href="#m90dfb24206" y="255.586736"/>
      </g>
     </g>
     <g id="text_7">
      <!-- −400 -->
      <g transform="translate(23.132812 259.385955)scale(0.1 -0.1)">
       <use xlink:href="#DejaVuSans-8722"/>
       <use x="83.789062" xlink:href="#DejaVuSans-52"/>
       <use x="147.412109" xlink:href="#DejaVuSans-48"/>
       <use x="211.035156" xlink:href="#DejaVuSans-48"/>
      </g>
     </g>
    </g>
    <g id="ytick_3">
     <g id="line2d_9">
      <g>
       <use style="stroke:#000000;stroke-width:0.8;" x="57.6" xlink:href="#m90dfb24206" y="213.990423"/>
      </g>
     </g>
     <g id="text_8">
      <!-- −200 -->
      <g transform="translate(23.132812 217.789641)scale(0.1 -0.1)">
       <use xlink:href="#DejaVuSans-8722"/>
       <use x="83.789062" xlink:href="#DejaVuSans-50"/>
       <use x="147.412109" xlink:href="#DejaVuSans-48"/>
       <use x="211.035156" xlink:href="#DejaVuSans-48"/>
      </g>
     </g>
    </g>
    <g id="ytick_4">
     <g id="line2d_10">
      <g>
       <use style="stroke:#000000;stroke-width:0.8;" x="57.6" xlink:href="#m90dfb24206" y="172.394109"/>
      </g>
     </g>
     <g id="text_9">
      <!-- 0 -->
      <g transform="translate(44.2375 176.193328)scale(0.1 -0.1)">
       <use xlink:href="#DejaVuSans-48"/>
      </g>
     </g>
    </g>
    <g id="ytick_5">
     <g id="line2d_11">
      <g>
       <use style="stroke:#000000;stroke-width:0.8;" x="57.6" xlink:href="#m90dfb24206" y="130.797796"/>
      </g>
     </g>
     <g id="text_10">
      <!-- 200 -->
      <g transform="translate(31.5125 134.597014)scale(0.1 -0.1)">
       <use xlink:href="#DejaVuSans-50"/>
       <use x="63.623047" xlink:href="#DejaVuSans-48"/>
       <use x="127.246094" xlink:href="#DejaVuSans-48"/>
      </g>
     </g>
    </g>
    <g id="ytick_6">
     <g id="line2d_12">
      <g>
       <use style="stroke:#000000;stroke-width:0.8;" x="57.6" xlink:href="#m90dfb24206" y="89.201482"/>
      </g>
     </g>
     <g id="text_11">
      <!-- 400 -->
      <g transform="translate(31.5125 93.000701)scale(0.1 -0.1)">
       <use xlink:href="#DejaVuSans-52"/>
       <use x="63.623047" xlink:href="#DejaVuSans-48"/>
       <use x="127.246094" xlink:href="#DejaVuSans-48"/>
      </g>
     </g>
    </g>
    <g id="ytick_7">
     <g id="line2d_13">
      <g>
       <use style="stroke:#000000;stroke-width:0.8;" x="57.6" xlink:href="#m90dfb24206" y="47.605168"/>
      </g>
     </g>
     <g id="text_12">
      <!-- 600 -->
      <g transform="translate(31.5125 51.404387)scale(0.1 -0.1)">
       <use xlink:href="#DejaVuSans-54"/>
       <use x="63.623047" xlink:href="#DejaVuSans-48"/>
       <use x="127.246094" xlink:href="#DejaVuSans-48"/>
      </g>
     </g>
    </g>
   </g>
   <g id="line2d_14">
    <path clip-path="url(#p568f35cd01)" d="M 388.613685 58.954557 
L 86.864812 283.336734 
L 79.478916 266.747776 
L 229.446659 229.766581 
" style="fill:none;stroke:#ff0000;stroke-linecap:square;stroke-width:0.5;"/>
   </g>
   <g id="patch_3">
    <path d="M 57.6 307.584 
L 57.6 41.472 
" style="fill:none;stroke:#000000;stroke-linecap:square;stroke-linejoin:miter;stroke-width:0.8;"/>
   </g>
   <g id="patch_4">
    <path d="M 414.72 307.584 
L 414.72 41.472 
" style="fill:none;stroke:#000000;stroke-linecap:square;stroke-linejoin:miter;stroke-width:0.8;"/>
   </g>
   <g id="patch_5">
    <path d="M 57.6 307.584 
L 414.72 307.584 
" style="fill:none;stroke:#000000;stroke-linecap:square;stroke-linejoin:miter;stroke-width:0.8;"/>
   </g>
   <g id="patch_6">
    <path d="M 57.6 41.472 
L 414.72 41.472 
" style="fill:none;stroke:#000000;stroke-linecap:square;stroke-linejoin:miter;stroke-width:0.8;"/>
   </g>
   <g id="PathCollection_1">
    <defs>
     <path d="M 0 2.738613 
C 0.726289 2.738613 1.422928 2.450055 1.936492 1.936492 
C 2.450055 1.422928 2.738613 0.726289 2.738613 0 
C 2.738613 -0.726289 2.450055 -1.422928 1.936492 -1.936492 
C 1.422928 -2.450055 0.726289 -2.738613 0 -2.738613 
C -0.726289 -2.738613 -1.422928 -2.450055 -1.936492 -1.936492 
C -2.450055 -1.422928 -2.738613 -0.726289 -2.738613 0 
C -2.738613 0.726289 -2.450055 1.422928 -1.936492 1.936492 
C -1.422928 2.450055 -0.726289 2.738613 0 2.738613 
z
" id="m8626ad04f7" style="stroke:#ff0000;"/>
    </defs>
    <g clip-path="url(#p568f35cd01)">
     <use style="fill:#ff0000;stroke:#ff0000;" x="388.613685" xlink:href="#m8626ad04f7" y="58.954557"/>
     <use style="fill:#ff0000;stroke:#ff0000;" x="86.864812" xlink:href="#m8626ad04f7" y="283.336734"/>
     <use style="fill:#ff0000;stroke:#ff0000;" x="79.478916" xlink:href="#m8626ad04f7" y="266.747776"/>
     <use style="fill:#ff0000;stroke:#ff0000;" x="229.446659" xlink:href="#m8626ad04f7" y="229.766581"/>
    </g>
   </g>
   <g id="text_13">
    <!-- (105) Subject: s3, Known = False, Degree = 2, Duration = 0.1 -->
    <defs>
     <path d="M 31 75.875 
Q 24.46875 64.65625 21.28125 53.65625 
Q 18.109375 42.671875 18.109375 31.390625 
Q 18.109375 20.125 21.3125 9.0625 
Q 24.515625 -2 31 -13.1875 
L 23.1875 -13.1875 
Q 15.875 -1.703125 12.234375 9.375 
Q 8.59375 20.453125 8.59375 31.390625 
Q 8.59375 42.28125 12.203125 53.3125 
Q 15.828125 64.359375 23.1875 75.875 
z
" id="DejaVuSans-40"/>
     <path d="M 12.40625 8.296875 
L 28.515625 8.296875 
L 28.515625 63.921875 
L 10.984375 60.40625 
L 10.984375 69.390625 
L 28.421875 72.90625 
L 38.28125 72.90625 
L 38.28125 8.296875 
L 54.390625 8.296875 
L 54.390625 0 
L 12.40625 0 
z
" id="DejaVuSans-49"/>
     <path d="M 10.796875 72.90625 
L 49.515625 72.90625 
L 49.515625 64.59375 
L 19.828125 64.59375 
L 19.828125 46.734375 
Q 21.96875 47.46875 24.109375 47.828125 
Q 26.265625 48.1875 28.421875 48.1875 
Q 40.625 48.1875 47.75 41.5 
Q 54.890625 34.8125 54.890625 23.390625 
Q 54.890625 11.625 47.5625 5.09375 
Q 40.234375 -1.421875 26.90625 -1.421875 
Q 22.3125 -1.421875 17.546875 -0.640625 
Q 12.796875 0.140625 7.71875 1.703125 
L 7.71875 11.625 
Q 12.109375 9.234375 16.796875 8.0625 
Q 21.484375 6.890625 26.703125 6.890625 
Q 35.15625 6.890625 40.078125 11.328125 
Q 45.015625 15.765625 45.015625 23.390625 
Q 45.015625 31 40.078125 35.4375 
Q 35.15625 39.890625 26.703125 39.890625 
Q 22.75 39.890625 18.8125 39.015625 
Q 14.890625 38.140625 10.796875 36.28125 
z
" id="DejaVuSans-53"/>
     <path d="M 8.015625 75.875 
L 15.828125 75.875 
Q 23.140625 64.359375 26.78125 53.3125 
Q 30.421875 42.28125 30.421875 31.390625 
Q 30.421875 20.453125 26.78125 9.375 
Q 23.140625 -1.703125 15.828125 -13.1875 
L 8.015625 -13.1875 
Q 14.5 -2 17.703125 9.0625 
Q 20.90625 20.125 20.90625 31.390625 
Q 20.90625 42.671875 17.703125 53.65625 
Q 14.5 64.65625 8.015625 75.875 
z
" id="DejaVuSans-41"/>
     <path id="DejaVuSans-32"/>
     <path d="M 53.515625 70.515625 
L 53.515625 60.890625 
Q 47.90625 63.578125 42.921875 64.890625 
Q 37.9375 66.21875 33.296875 66.21875 
Q 25.25 66.21875 20.875 63.09375 
Q 16.5 59.96875 16.5 54.203125 
Q 16.5 49.359375 19.40625 46.890625 
Q 22.3125 44.4375 30.421875 42.921875 
L 36.375 41.703125 
Q 47.40625 39.59375 52.65625 34.296875 
Q 57.90625 29 57.90625 20.125 
Q 57.90625 9.515625 50.796875 4.046875 
Q 43.703125 -1.421875 29.984375 -1.421875 
Q 24.8125 -1.421875 18.96875 -0.25 
Q 13.140625 0.921875 6.890625 3.21875 
L 6.890625 13.375 
Q 12.890625 10.015625 18.65625 8.296875 
Q 24.421875 6.59375 29.984375 6.59375 
Q 38.421875 6.59375 43.015625 9.90625 
Q 47.609375 13.234375 47.609375 19.390625 
Q 47.609375 24.75 44.3125 27.78125 
Q 41.015625 30.8125 33.5 32.328125 
L 27.484375 33.5 
Q 16.453125 35.6875 11.515625 40.375 
Q 6.59375 45.0625 6.59375 53.421875 
Q 6.59375 63.09375 13.40625 68.65625 
Q 20.21875 74.21875 32.171875 74.21875 
Q 37.3125 74.21875 42.625 73.28125 
Q 47.953125 72.359375 53.515625 70.515625 
z
" id="DejaVuSans-83"/>
     <path d="M 8.5 21.578125 
L 8.5 54.6875 
L 17.484375 54.6875 
L 17.484375 21.921875 
Q 17.484375 14.15625 20.5 10.265625 
Q 23.53125 6.390625 29.59375 6.390625 
Q 36.859375 6.390625 41.078125 11.03125 
Q 45.3125 15.671875 45.3125 23.6875 
L 45.3125 54.6875 
L 54.296875 54.6875 
L 54.296875 0 
L 45.3125 0 
L 45.3125 8.40625 
Q 42.046875 3.421875 37.71875 1 
Q 33.40625 -1.421875 27.6875 -1.421875 
Q 18.265625 -1.421875 13.375 4.4375 
Q 8.5 10.296875 8.5 21.578125 
z
M 31.109375 56 
z
" id="DejaVuSans-117"/>
     <path d="M 48.6875 27.296875 
Q 48.6875 37.203125 44.609375 42.84375 
Q 40.53125 48.484375 33.40625 48.484375 
Q 26.265625 48.484375 22.1875 42.84375 
Q 18.109375 37.203125 18.109375 27.296875 
Q 18.109375 17.390625 22.1875 11.75 
Q 26.265625 6.109375 33.40625 6.109375 
Q 40.53125 6.109375 44.609375 11.75 
Q 48.6875 17.390625 48.6875 27.296875 
z
M 18.109375 46.390625 
Q 20.953125 51.265625 25.265625 53.625 
Q 29.59375 56 35.59375 56 
Q 45.5625 56 51.78125 48.09375 
Q 58.015625 40.1875 58.015625 27.296875 
Q 58.015625 14.40625 51.78125 6.484375 
Q 45.5625 -1.421875 35.59375 -1.421875 
Q 29.59375 -1.421875 25.265625 0.953125 
Q 20.953125 3.328125 18.109375 8.203125 
L 18.109375 0 
L 9.078125 0 
L 9.078125 75.984375 
L 18.109375 75.984375 
z
" id="DejaVuSans-98"/>
     <path d="M 9.421875 54.6875 
L 18.40625 54.6875 
L 18.40625 -0.984375 
Q 18.40625 -11.421875 14.421875 -16.109375 
Q 10.453125 -20.796875 1.609375 -20.796875 
L -1.8125 -20.796875 
L -1.8125 -13.1875 
L 0.59375 -13.1875 
Q 5.71875 -13.1875 7.5625 -10.8125 
Q 9.421875 -8.453125 9.421875 -0.984375 
z
M 9.421875 75.984375 
L 18.40625 75.984375 
L 18.40625 64.59375 
L 9.421875 64.59375 
z
" id="DejaVuSans-106"/>
     <path d="M 56.203125 29.59375 
L 56.203125 25.203125 
L 14.890625 25.203125 
Q 15.484375 15.921875 20.484375 11.0625 
Q 25.484375 6.203125 34.421875 6.203125 
Q 39.59375 6.203125 44.453125 7.46875 
Q 49.3125 8.734375 54.109375 11.28125 
L 54.109375 2.78125 
Q 49.265625 0.734375 44.1875 -0.34375 
Q 39.109375 -1.421875 33.890625 -1.421875 
Q 20.796875 -1.421875 13.15625 6.1875 
Q 5.515625 13.8125 5.515625 26.8125 
Q 5.515625 40.234375 12.765625 48.109375 
Q 20.015625 56 32.328125 56 
Q 43.359375 56 49.78125 48.890625 
Q 56.203125 41.796875 56.203125 29.59375 
z
M 47.21875 32.234375 
Q 47.125 39.59375 43.09375 43.984375 
Q 39.0625 48.390625 32.421875 48.390625 
Q 24.90625 48.390625 20.390625 44.140625 
Q 15.875 39.890625 15.1875 32.171875 
z
" id="DejaVuSans-101"/>
     <path d="M 48.78125 52.59375 
L 48.78125 44.1875 
Q 44.96875 46.296875 41.140625 47.34375 
Q 37.3125 48.390625 33.40625 48.390625 
Q 24.65625 48.390625 19.8125 42.84375 
Q 14.984375 37.3125 14.984375 27.296875 
Q 14.984375 17.28125 19.8125 11.734375 
Q 24.65625 6.203125 33.40625 6.203125 
Q 37.3125 6.203125 41.140625 7.25 
Q 44.96875 8.296875 48.78125 10.40625 
L 48.78125 2.09375 
Q 45.015625 0.34375 40.984375 -0.53125 
Q 36.96875 -1.421875 32.421875 -1.421875 
Q 20.0625 -1.421875 12.78125 6.34375 
Q 5.515625 14.109375 5.515625 27.296875 
Q 5.515625 40.671875 12.859375 48.328125 
Q 20.21875 56 33.015625 56 
Q 37.15625 56 41.109375 55.140625 
Q 45.0625 54.296875 48.78125 52.59375 
z
" id="DejaVuSans-99"/>
     <path d="M 18.3125 70.21875 
L 18.3125 54.6875 
L 36.8125 54.6875 
L 36.8125 47.703125 
L 18.3125 47.703125 
L 18.3125 18.015625 
Q 18.3125 11.328125 20.140625 9.421875 
Q 21.96875 7.515625 27.59375 7.515625 
L 36.8125 7.515625 
L 36.8125 0 
L 27.59375 0 
Q 17.1875 0 13.234375 3.875 
Q 9.28125 7.765625 9.28125 18.015625 
L 9.28125 47.703125 
L 2.6875 47.703125 
L 2.6875 54.6875 
L 9.28125 54.6875 
L 9.28125 70.21875 
z
" id="DejaVuSans-116"/>
     <path d="M 11.71875 12.40625 
L 22.015625 12.40625 
L 22.015625 0 
L 11.71875 0 
z
M 11.71875 51.703125 
L 22.015625 51.703125 
L 22.015625 39.3125 
L 11.71875 39.3125 
z
" id="DejaVuSans-58"/>
     <path d="M 44.28125 53.078125 
L 44.28125 44.578125 
Q 40.484375 46.53125 36.375 47.5 
Q 32.28125 48.484375 27.875 48.484375 
Q 21.1875 48.484375 17.84375 46.4375 
Q 14.5 44.390625 14.5 40.28125 
Q 14.5 37.15625 16.890625 35.375 
Q 19.28125 33.59375 26.515625 31.984375 
L 29.59375 31.296875 
Q 39.15625 29.25 43.1875 25.515625 
Q 47.21875 21.78125 47.21875 15.09375 
Q 47.21875 7.46875 41.1875 3.015625 
Q 35.15625 -1.421875 24.609375 -1.421875 
Q 20.21875 -1.421875 15.453125 -0.5625 
Q 10.6875 0.296875 5.421875 2 
L 5.421875 11.28125 
Q 10.40625 8.6875 15.234375 7.390625 
Q 20.0625 6.109375 24.8125 6.109375 
Q 31.15625 6.109375 34.5625 8.28125 
Q 37.984375 10.453125 37.984375 14.40625 
Q 37.984375 18.0625 35.515625 20.015625 
Q 33.0625 21.96875 24.703125 23.78125 
L 21.578125 24.515625 
Q 13.234375 26.265625 9.515625 29.90625 
Q 5.8125 33.546875 5.8125 39.890625 
Q 5.8125 47.609375 11.28125 51.796875 
Q 16.75 56 26.8125 56 
Q 31.78125 56 36.171875 55.265625 
Q 40.578125 54.546875 44.28125 53.078125 
z
" id="DejaVuSans-115"/>
     <path d="M 40.578125 39.3125 
Q 47.65625 37.796875 51.625 33 
Q 55.609375 28.21875 55.609375 21.1875 
Q 55.609375 10.40625 48.1875 4.484375 
Q 40.765625 -1.421875 27.09375 -1.421875 
Q 22.515625 -1.421875 17.65625 -0.515625 
Q 12.796875 0.390625 7.625 2.203125 
L 7.625 11.71875 
Q 11.71875 9.328125 16.59375 8.109375 
Q 21.484375 6.890625 26.8125 6.890625 
Q 36.078125 6.890625 40.9375 10.546875 
Q 45.796875 14.203125 45.796875 21.1875 
Q 45.796875 27.640625 41.28125 31.265625 
Q 36.765625 34.90625 28.71875 34.90625 
L 20.21875 34.90625 
L 20.21875 43.015625 
L 29.109375 43.015625 
Q 36.375 43.015625 40.234375 45.921875 
Q 44.09375 48.828125 44.09375 54.296875 
Q 44.09375 59.90625 40.109375 62.90625 
Q 36.140625 65.921875 28.71875 65.921875 
Q 24.65625 65.921875 20.015625 65.03125 
Q 15.375 64.15625 9.8125 62.3125 
L 9.8125 71.09375 
Q 15.4375 72.65625 20.34375 73.4375 
Q 25.25 74.21875 29.59375 74.21875 
Q 40.828125 74.21875 47.359375 69.109375 
Q 53.90625 64.015625 53.90625 55.328125 
Q 53.90625 49.265625 50.4375 45.09375 
Q 46.96875 40.921875 40.578125 39.3125 
z
" id="DejaVuSans-51"/>
     <path d="M 11.71875 12.40625 
L 22.015625 12.40625 
L 22.015625 4 
L 14.015625 -11.625 
L 7.71875 -11.625 
L 11.71875 4 
z
" id="DejaVuSans-44"/>
     <path d="M 9.8125 72.90625 
L 19.671875 72.90625 
L 19.671875 42.09375 
L 52.390625 72.90625 
L 65.09375 72.90625 
L 28.90625 38.921875 
L 67.671875 0 
L 54.6875 0 
L 19.671875 35.109375 
L 19.671875 0 
L 9.8125 0 
z
" id="DejaVuSans-75"/>
     <path d="M 54.890625 33.015625 
L 54.890625 0 
L 45.90625 0 
L 45.90625 32.71875 
Q 45.90625 40.484375 42.875 44.328125 
Q 39.84375 48.1875 33.796875 48.1875 
Q 26.515625 48.1875 22.3125 43.546875 
Q 18.109375 38.921875 18.109375 30.90625 
L 18.109375 0 
L 9.078125 0 
L 9.078125 54.6875 
L 18.109375 54.6875 
L 18.109375 46.1875 
Q 21.34375 51.125 25.703125 53.5625 
Q 30.078125 56 35.796875 56 
Q 45.21875 56 50.046875 50.171875 
Q 54.890625 44.34375 54.890625 33.015625 
z
" id="DejaVuSans-110"/>
     <path d="M 30.609375 48.390625 
Q 23.390625 48.390625 19.1875 42.75 
Q 14.984375 37.109375 14.984375 27.296875 
Q 14.984375 17.484375 19.15625 11.84375 
Q 23.34375 6.203125 30.609375 6.203125 
Q 37.796875 6.203125 41.984375 11.859375 
Q 46.1875 17.53125 46.1875 27.296875 
Q 46.1875 37.015625 41.984375 42.703125 
Q 37.796875 48.390625 30.609375 48.390625 
z
M 30.609375 56 
Q 42.328125 56 49.015625 48.375 
Q 55.71875 40.765625 55.71875 27.296875 
Q 55.71875 13.875 49.015625 6.21875 
Q 42.328125 -1.421875 30.609375 -1.421875 
Q 18.84375 -1.421875 12.171875 6.21875 
Q 5.515625 13.875 5.515625 27.296875 
Q 5.515625 40.765625 12.171875 48.375 
Q 18.84375 56 30.609375 56 
z
" id="DejaVuSans-111"/>
     <path d="M 4.203125 54.6875 
L 13.1875 54.6875 
L 24.421875 12.015625 
L 35.59375 54.6875 
L 46.1875 54.6875 
L 57.421875 12.015625 
L 68.609375 54.6875 
L 77.59375 54.6875 
L 63.28125 0 
L 52.6875 0 
L 40.921875 44.828125 
L 29.109375 0 
L 18.5 0 
z
" id="DejaVuSans-119"/>
     <path d="M 10.59375 45.40625 
L 73.1875 45.40625 
L 73.1875 37.203125 
L 10.59375 37.203125 
z
M 10.59375 25.484375 
L 73.1875 25.484375 
L 73.1875 17.1875 
L 10.59375 17.1875 
z
" id="DejaVuSans-61"/>
     <path d="M 9.8125 72.90625 
L 51.703125 72.90625 
L 51.703125 64.59375 
L 19.671875 64.59375 
L 19.671875 43.109375 
L 48.578125 43.109375 
L 48.578125 34.8125 
L 19.671875 34.8125 
L 19.671875 0 
L 9.8125 0 
z
" id="DejaVuSans-70"/>
     <path d="M 34.28125 27.484375 
Q 23.390625 27.484375 19.1875 25 
Q 14.984375 22.515625 14.984375 16.5 
Q 14.984375 11.71875 18.140625 8.90625 
Q 21.296875 6.109375 26.703125 6.109375 
Q 34.1875 6.109375 38.703125 11.40625 
Q 43.21875 16.703125 43.21875 25.484375 
L 43.21875 27.484375 
z
M 52.203125 31.203125 
L 52.203125 0 
L 43.21875 0 
L 43.21875 8.296875 
Q 40.140625 3.328125 35.546875 0.953125 
Q 30.953125 -1.421875 24.3125 -1.421875 
Q 15.921875 -1.421875 10.953125 3.296875 
Q 6 8.015625 6 15.921875 
Q 6 25.140625 12.171875 29.828125 
Q 18.359375 34.515625 30.609375 34.515625 
L 43.21875 34.515625 
L 43.21875 35.40625 
Q 43.21875 41.609375 39.140625 45 
Q 35.0625 48.390625 27.6875 48.390625 
Q 23 48.390625 18.546875 47.265625 
Q 14.109375 46.140625 10.015625 43.890625 
L 10.015625 52.203125 
Q 14.9375 54.109375 19.578125 55.046875 
Q 24.21875 56 28.609375 56 
Q 40.484375 56 46.34375 49.84375 
Q 52.203125 43.703125 52.203125 31.203125 
z
" id="DejaVuSans-97"/>
     <path d="M 9.421875 75.984375 
L 18.40625 75.984375 
L 18.40625 0 
L 9.421875 0 
z
" id="DejaVuSans-108"/>
     <path d="M 19.671875 64.796875 
L 19.671875 8.109375 
L 31.59375 8.109375 
Q 46.6875 8.109375 53.6875 14.9375 
Q 60.6875 21.78125 60.6875 36.53125 
Q 60.6875 51.171875 53.6875 57.984375 
Q 46.6875 64.796875 31.59375 64.796875 
z
M 9.8125 72.90625 
L 30.078125 72.90625 
Q 51.265625 72.90625 61.171875 64.09375 
Q 71.09375 55.28125 71.09375 36.53125 
Q 71.09375 17.671875 61.125 8.828125 
Q 51.171875 0 30.078125 0 
L 9.8125 0 
z
" id="DejaVuSans-68"/>
     <path d="M 45.40625 27.984375 
Q 45.40625 37.75 41.375 43.109375 
Q 37.359375 48.484375 30.078125 48.484375 
Q 22.859375 48.484375 18.828125 43.109375 
Q 14.796875 37.75 14.796875 27.984375 
Q 14.796875 18.265625 18.828125 12.890625 
Q 22.859375 7.515625 30.078125 7.515625 
Q 37.359375 7.515625 41.375 12.890625 
Q 45.40625 18.265625 45.40625 27.984375 
z
M 54.390625 6.78125 
Q 54.390625 -7.171875 48.1875 -13.984375 
Q 42 -20.796875 29.203125 -20.796875 
Q 24.46875 -20.796875 20.265625 -20.09375 
Q 16.0625 -19.390625 12.109375 -17.921875 
L 12.109375 -9.1875 
Q 16.0625 -11.328125 19.921875 -12.34375 
Q 23.78125 -13.375 27.78125 -13.375 
Q 36.625 -13.375 41.015625 -8.765625 
Q 45.40625 -4.15625 45.40625 5.171875 
L 45.40625 9.625 
Q 42.625 4.78125 38.28125 2.390625 
Q 33.9375 0 27.875 0 
Q 17.828125 0 11.671875 7.65625 
Q 5.515625 15.328125 5.515625 27.984375 
Q 5.515625 40.671875 11.671875 48.328125 
Q 17.828125 56 27.875 56 
Q 33.9375 56 38.28125 53.609375 
Q 42.625 51.21875 45.40625 46.390625 
L 45.40625 54.6875 
L 54.390625 54.6875 
z
" id="DejaVuSans-103"/>
     <path d="M 41.109375 46.296875 
Q 39.59375 47.171875 37.8125 47.578125 
Q 36.03125 48 33.890625 48 
Q 26.265625 48 22.1875 43.046875 
Q 18.109375 38.09375 18.109375 28.8125 
L 18.109375 0 
L 9.078125 0 
L 9.078125 54.6875 
L 18.109375 54.6875 
L 18.109375 46.1875 
Q 20.953125 51.171875 25.484375 53.578125 
Q 30.03125 56 36.53125 56 
Q 37.453125 56 38.578125 55.875 
Q 39.703125 55.765625 41.0625 55.515625 
z
" id="DejaVuSans-114"/>
     <path d="M 9.421875 54.6875 
L 18.40625 54.6875 
L 18.40625 0 
L 9.421875 0 
z
M 9.421875 75.984375 
L 18.40625 75.984375 
L 18.40625 64.59375 
L 9.421875 64.59375 
z
" id="DejaVuSans-105"/>
     <path d="M 10.6875 12.40625 
L 21 12.40625 
L 21 0 
L 10.6875 0 
z
" id="DejaVuSans-46"/>
    </defs>
    <g transform="translate(49.741875 35.472)scale(0.12 -0.12)">
     <use xlink:href="#DejaVuSans-40"/>
     <use x="39.013672" xlink:href="#DejaVuSans-49"/>
     <use x="102.636719" xlink:href="#DejaVuSans-48"/>
     <use x="166.259766" xlink:href="#DejaVuSans-53"/>
     <use x="229.882812" xlink:href="#DejaVuSans-41"/>
     <use x="268.896484" xlink:href="#DejaVuSans-32"/>
     <use x="300.683594" xlink:href="#DejaVuSans-83"/>
     <use x="364.160156" xlink:href="#DejaVuSans-117"/>
     <use x="427.539062" xlink:href="#DejaVuSans-98"/>
     <use x="491.015625" xlink:href="#DejaVuSans-106"/>
     <use x="518.798828" xlink:href="#DejaVuSans-101"/>
     <use x="580.322266" xlink:href="#DejaVuSans-99"/>
     <use x="635.302734" xlink:href="#DejaVuSans-116"/>
     <use x="674.511719" xlink:href="#DejaVuSans-58"/>
     <use x="708.203125" xlink:href="#DejaVuSans-32"/>
     <use x="739.990234" xlink:href="#DejaVuSans-115"/>
     <use x="792.089844" xlink:href="#DejaVuSans-51"/>
     <use x="855.712891" xlink:href="#DejaVuSans-44"/>
     <use x="887.5" xlink:href="#DejaVuSans-32"/>
     <use x="919.287109" xlink:href="#DejaVuSans-75"/>
     <use x="984.863281" xlink:href="#DejaVuSans-110"/>
     <use x="1048.242188" xlink:href="#DejaVuSans-111"/>
     <use x="1109.423828" xlink:href="#DejaVuSans-119"/>
     <use x="1191.210938" xlink:href="#DejaVuSans-110"/>
     <use x="1254.589844" xlink:href="#DejaVuSans-32"/>
     <use x="1286.376953" xlink:href="#DejaVuSans-61"/>
     <use x="1370.166016" xlink:href="#DejaVuSans-32"/>
     <use x="1401.953125" xlink:href="#DejaVuSans-70"/>
     <use x="1459.332031" xlink:href="#DejaVuSans-97"/>
     <use x="1520.611328" xlink:href="#DejaVuSans-108"/>
     <use x="1548.394531" xlink:href="#DejaVuSans-115"/>
     <use x="1600.494141" xlink:href="#DejaVuSans-101"/>
     <use x="1662.017578" xlink:href="#DejaVuSans-44"/>
     <use x="1693.804688" xlink:href="#DejaVuSans-32"/>
     <use x="1725.591797" xlink:href="#DejaVuSans-68"/>
     <use x="1802.59375" xlink:href="#DejaVuSans-101"/>
     <use x="1864.117188" xlink:href="#DejaVuSans-103"/>
     <use x="1927.59375" xlink:href="#DejaVuSans-114"/>
     <use x="1968.675781" xlink:href="#DejaVuSans-101"/>
     <use x="2030.199219" xlink:href="#DejaVuSans-101"/>
     <use x="2091.722656" xlink:href="#DejaVuSans-32"/>
     <use x="2123.509766" xlink:href="#DejaVuSans-61"/>
     <use x="2207.298828" xlink:href="#DejaVuSans-32"/>
     <use x="2239.085938" xlink:href="#DejaVuSans-50"/>
     <use x="2302.708984" xlink:href="#DejaVuSans-44"/>
     <use x="2334.496094" xlink:href="#DejaVuSans-32"/>
     <use x="2366.283203" xlink:href="#DejaVuSans-68"/>
     <use x="2443.285156" xlink:href="#DejaVuSans-117"/>
     <use x="2506.664062" xlink:href="#DejaVuSans-114"/>
     <use x="2547.777344" xlink:href="#DejaVuSans-97"/>
     <use x="2609.056641" xlink:href="#DejaVuSans-116"/>
     <use x="2648.265625" xlink:href="#DejaVuSans-105"/>
     <use x="2676.048828" xlink:href="#DejaVuSans-111"/>
     <use x="2737.230469" xlink:href="#DejaVuSans-110"/>
     <use x="2800.609375" xlink:href="#DejaVuSans-32"/>
     <use x="2832.396484" xlink:href="#DejaVuSans-61"/>
     <use x="2916.185547" xlink:href="#DejaVuSans-32"/>
     <use x="2947.972656" xlink:href="#DejaVuSans-48"/>
     <use x="3011.595703" xlink:href="#DejaVuSans-46"/>
     <use x="3043.382812" xlink:href="#DejaVuSans-49"/>
    </g>
   </g>
  </g>
 </g>
 <defs>
  <clipPath id="p568f35cd01">
   <rect height="266.112" width="357.12" x="57.6" y="41.472"/>
  </clipPath>
 </defs>
</svg>
