<?xml version="1.0" encoding="utf-8" standalone="no"?>
<!DOCTYPE svg PUBLIC "-//W3C//DTD SVG 1.1//EN"
  "http://www.w3.org/Graphics/SVG/1.1/DTD/svg11.dtd">
<!-- Created with matplotlib (https://matplotlib.org/) -->
<svg height="345.6pt" version="1.1" viewBox="0 0 460.8 345.6" width="460.8pt" xmlns="http://www.w3.org/2000/svg" xmlns:xlink="http://www.w3.org/1999/xlink">
 <defs>
  <style type="text/css">
*{stroke-linecap:butt;stroke-linejoin:round;}
  </style>
 </defs>
 <g id="figure_1">
  <g id="patch_1">
   <path d="M 0 345.6 
L 460.8 345.6 
L 460.8 0 
L 0 0 
z
" style="fill:#ffffff;"/>
  </g>
  <g id="axes_1">
   <g id="patch_2">
    <path d="M 57.6 307.584 
L 414.72 307.584 
L 414.72 41.472 
L 57.6 41.472 
z
" style="fill:#ffffff;"/>
   </g>
   <g id="line2d_1">
    <path clip-path="url(#p9e5ff2e787)" d="M 73.832727 263.178914 
L 73.936565 262.905562 
L 74.043648 263.178914 
L 73.936565 264.536763 
L 74.043648 264.536763 
L 74.358408 264.807145 
L 74.358408 265.077526 
L 73.832727 265.894613 
L 74.043648 266.708728 
L 74.043648 266.435375 
L 74.043648 266.164994 
L 74.251325 266.435375 
L 74.462246 266.979109 
L 74.566084 268.336958 
L 74.358408 268.336958 
L 74.043648 267.249491 
L 74.251325 267.249491 
L 74.566084 267.522843 
L 74.673167 267.522843 
L 74.673167 269.424426 
L 74.358408 269.424426 
L 74.462246 269.694808 
L 74.884088 269.965189 
L 74.884088 269.965189 
L 74.987926 270.508923 
L 74.884088 270.508923 
L 74.777005 270.238542 
L 74.884088 269.151074 
L 74.884088 269.424426 
L 74.987926 271.596391 
L 74.987926 271.596391 
L 74.884088 270.508923 
L 75.198848 271.323038 
L 75.302686 271.052657 
L 75.198848 270.238542 
L 74.987926 269.965189 
L 74.673167 270.238542 
L 74.673167 270.508923 
L 74.884088 269.965189 
L 74.987926 270.238542 
L 74.987926 271.052657 
L 75.932204 271.052657 
L 75.828366 270.779304 
L 75.932204 269.151074 
L 76.036043 269.151074 
L 76.036043 269.151074 
L 75.932204 269.694808 
L 75.932204 269.694808 
L 75.617445 268.880692 
L 75.721283 269.151074 
L 75.932204 268.880692 
L 75.932204 268.880692 
L 75.932204 269.424426 
L 76.036043 269.424426 
L 76.143126 269.424426 
L 75.932204 268.60734 
L 75.932204 268.60734 
L 76.246964 268.336958 
L 76.457885 268.336958 
L 76.143126 268.336958 
L 76.350802 268.336958 
L 76.665561 268.60734 
L 76.665561 268.60734 
L 76.561723 268.066577 
L 76.457885 267.793224 
L 76.665561 267.793224 
L 76.876482 267.522843 
L 76.983565 266.708728 
L 76.876482 265.894613 
L 76.983565 265.894613 
L 77.087404 266.708728 
L 77.087404 266.708728 
L 77.191242 266.435375 
L 76.983565 265.894613 
L 76.983565 266.164994 
L 76.772644 266.435375 
L 76.983565 266.435375 
L 77.087404 266.435375 
L 77.191242 265.62126 
L 77.191242 264.536763 
L 76.983565 263.993029 
L 77.087404 263.993029 
L 77.402163 263.993029 
L 77.927843 264.536763 
L 77.82076 264.807145 
L 77.613084 263.722648 
L 77.613084 263.993029 
L 77.191242 263.449295 
L 77.191242 263.178914 
L 77.506001 262.905562 
L 77.716922 262.905562 
L 77.82076 261.277331 
L 77.82076 261.821065 
L 77.927843 261.821065 
L 77.82076 261.277331 
L 78.031682 259.919482 
L 78.242603 259.919482 
L 78.346441 258.561633 
L 78.346441 258.561633 
L 78.450279 259.105367 
L 78.557362 258.834985 
L 78.450279 256.663021 
L 78.346441 256.933402 
L 78.557362 257.203783 
L 78.97596 257.203783 
L 79.186881 256.933402 
L 79.186881 256.389668 
L 79.397802 256.119287 
L 79.083043 256.119287 
L 78.872121 256.389668 
L 78.872121 257.203783 
L 79.186881 257.477136 
L 79.397802 257.203783 
L 79.290719 257.203783 
L 78.97596 257.203783 
L 79.083043 256.933402 
L 78.97596 256.389668 
L 79.186881 256.933402 
L 79.397802 258.561633 
L 79.290719 258.291251 
L 79.083043 257.477136 
L 79.186881 257.203783 
L 79.50164 258.291251 
L 79.397802 258.291251 
L 79.083043 258.017899 
L 78.97596 258.561633 
L 79.186881 258.291251 
L 79.397802 258.291251 
L 79.50164 258.561633 
L 79.397802 258.561633 
L 79.186881 258.561633 
L 79.186881 258.834985 
L 79.397802 258.834985 
L 79.712561 258.291251 
L 80.027321 258.017899 
L 80.445918 258.017899 
L 80.864516 257.477136 
L 81.601117 255.845934 
L 82.963993 253.947322 
L 84.644872 252.316121 
L 86.42959 251.231624 
L 88.529067 250.144156 
L 91.468984 249.059659 
L 95.03842 248.786307 
L 99.130291 250.144156 
L 103.329246 252.589473 
L 107.950042 254.761438 
L 112.986192 255.845934 
L 118.129424 256.663021 
L 127.997291 257.203783 
L 132.932847 256.933402 
L 138.287001 256.119287 
L 143.848831 254.761438 
L 154.135295 251.502005 
L 164.110246 247.70181 
L 173.137673 244.986112 
L 177.755225 243.084529 
L 182.583698 241.456298 
L 187.412171 240.098449 
L 192.029722 239.284334 
L 196.546681 238.199837 
L 205.259349 237.112369 
L 213.972017 234.940405 
L 218.693407 233.582555 
L 227.931755 231.410591 
L 232.13071 230.323123 
L 240.42478 227.610396 
L 244.412813 226.522928 
L 248.086087 225.979194 
L 251.551685 225.979194 
L 254.699278 225.438431 
L 257.850116 224.350964 
L 260.99771 224.350964 
L 266.877544 225.979194 
L 269.395618 226.796281 
L 271.706017 227.337043 
L 274.01317 227.610396 
L 276.21973 227.337043 
L 278.212124 227.610396 
L 279.893004 228.424511 
L 281.573884 229.509008 
L 284.617639 230.866857 
L 285.772838 231.14021 
L 286.610033 231.680972 
L 287.239552 232.498059 
L 287.872315 233.582555 
L 287.976153 233.582555 
L 287.872315 234.126289 
L 287.554311 234.940405 
L 287.239552 235.210786 
L 286.924792 235.210786 
L 286.506195 234.940405 
L 286.191436 234.940405 
L 286.087598 235.484139 
L 286.191436 237.112369 
L 286.295274 237.926484 
L 286.402357 238.199837 
L 286.295274 237.656103 
L 286.295274 237.656103 
L 286.820954 238.199837 
L 286.924792 238.199837 
L 286.717116 238.470218 
L 286.295274 238.199837 
L 286.402357 238.199837 
L 286.295274 238.7406 
L 286.087598 239.013952 
L 286.191436 240.371801 
L 286.295274 240.371801 
L 286.191436 239.013952 
L 286.191436 239.284334 
L 286.087598 240.098449 
L 286.295274 240.371801 
L 286.402357 240.098449 
L 286.087598 239.554715 
L 285.561917 241.185917 
L 285.772838 240.642183 
L 286.191436 240.371801 
L 286.191436 241.456298 
L 285.980514 241.729651 
L 285.561917 240.371801 
L 285.665755 239.554715 
L 285.980514 239.554715 
L 285.980514 240.371801 
L 285.772838 240.642183 
L 285.561917 240.371801 
L 285.665755 239.284334 
L 285.876676 239.284334 
L 286.402357 239.828068 
L 286.087598 239.554715 
L 285.561917 240.642183 
L 285.454834 240.642183 
L 285.454834 241.185917 
L 285.665755 241.456298 
L 286.191436 240.371801 
L 286.402357 240.642183 
L 286.191436 240.371801 
L 286.191436 240.642183 
L 285.980514 240.642183 
L 285.772838 240.371801 
L 285.454834 240.912564 
L 285.876676 240.098449 
L 285.772838 240.098449 
L 285.665755 240.371801 
L 285.980514 240.912564 
L 285.876676 240.912564 
L 286.402357 240.912564 
L 286.402357 240.642183 
L 285.772838 240.098449 
L 285.772838 239.828068 
L 285.980514 239.284334 
L 285.772838 239.828068 
L 286.087598 241.456298 
L 286.087598 241.185917 
L 286.191436 240.642183 
L 285.980514 240.098449 
L 285.772838 238.470218 
L 286.820954 238.470218 
L 288.394751 237.38275 
L 289.446112 236.841988 
L 290.916071 235.75452 
L 292.908465 234.670023 
L 295.007942 233.852937 
L 297.31834 232.76844 
L 299.836415 232.498059 
L 308.445245 232.498059 
L 311.489 233.038822 
L 314.532755 233.852937 
L 317.472672 235.210786 
L 320.412589 236.841988 
L 323.352506 238.7406 
L 326.18534 239.828068 
L 329.229095 240.371801 
L 332.483771 241.185917 
L 335.738448 242.814147 
L 338.782203 243.901615 
L 341.511199 244.71573 
L 346.446755 245.800227 
L 348.860991 246.887695 
L 351.589987 248.245544 
L 354.526659 250.417509 
L 357.255655 252.589473 
L 359.987896 254.491056 
L 362.50597 256.389668 
L 367.438282 259.6491 
L 369.644842 261.547712 
L 372.792435 265.62126 
L 374.158556 266.979109 
L 375.628514 267.522843 
L 376.887551 268.60734 
L 377.831829 269.965189 
L 378.35751 271.323038 
L 378.565186 272.95424 
L 378.565186 274.58247 
L 378.35751 276.481082 
L 378.35751 280.010896 
L 378.146589 280.827983 
L 377.620908 280.827983 
L 377.306149 281.368745 
L 377.306149 285.171912 
L 376.991389 286.256408 
L 378.146589 287.070523 
L 378.146589 287.614257 
L 377.727991 289.242488 
L 377.727991 291.417424 
L 378.776107 290.600337 
L 378.672269 290.87369 
L 378.250427 291.417424 
L 378.146589 291.958186 
L 378.35751 291.958186 
L 378.776107 291.687805 
L 378.776107 292.231539 
L 378.042751 294.130151 
L 378.146589 294.130151 
L 378.250427 294.403503 
L 378.35751 294.130151 
L 378.565186 294.130151 
L 378.672269 294.403503 
L 378.461348 294.130151 
L 378.35751 294.130151 
L 378.146589 294.673885 
L 378.250427 295.488 
L 378.461348 295.217619 
L 378.776107 294.673885 
L 378.672269 294.944266 
L 378.672269 295.488 
L 378.776107 295.488 
L 379.19795 294.944266 
L 379.405626 294.403503 
L 379.405626 294.673885 
L 379.405626 294.944266 
L 379.19795 295.217619 
L 378.776107 295.217619 
L 378.776107 295.217619 
L 378.879945 294.130151 
L 378.987029 293.859769 
L 379.19795 294.403503 
L 379.301788 294.403503 
L 379.616547 294.130151 
L 379.720385 295.217619 
L 379.931306 294.403503 
L 379.827468 294.130151 
L 379.827468 294.130151 
L 379.616547 294.130151 
L 379.301788 294.673885 
L 379.616547 294.403503 
L 379.931306 293.859769 
L 379.931306 293.859769 
L 379.616547 294.130151 
L 379.512709 294.403503 
L 379.616547 294.403503 
L 379.720385 294.403503 
L 380.035145 293.316036 
L 379.931306 293.316036 
L 379.827468 292.231539 
L 379.720385 292.50192 
L 379.720385 292.50192 
L 380.456987 293.045654 
L 380.349904 293.045654 
L 380.035145 292.50192 
L 380.035145 292.231539 
L 380.142228 292.50192 
L 380.246066 292.50192 
L 380.246066 292.50192 
L 380.349904 292.772302 
L 380.246066 292.231539 
L 380.142228 292.50192 
L 380.246066 293.045654 
L 380.246066 293.045654 
L 380.349904 293.045654 
L 380.349904 293.045654 
L 380.246066 293.316036 
L 380.349904 293.045654 
L 380.456987 292.231539 
L 380.349904 291.144071 
L 380.560825 292.231539 
L 380.560825 292.231539 
L 380.035145 293.316036 
L 380.035145 293.045654 
L 380.035145 292.772302 
L 380.456987 292.231539 
L 380.771746 291.417424 
L 380.771746 290.87369 
L 380.875584 291.144071 
L 381.086506 291.417424 
L 380.979423 291.958186 
L 380.771746 291.687805 
L 380.771746 292.50192 
L 380.771746 291.144071 
L 380.875584 291.144071 
L 380.979423 290.600337 
L 380.875584 290.87369 
L 380.664663 291.144071 
L 380.771746 290.329956 
L 380.560825 290.87369 
L 380.349904 290.87369 
L 380.142228 291.417424 
L 380.246066 291.687805 
L 380.560825 291.417424 
L 380.771746 290.600337 
L 380.664663 290.600337 
L 380.560825 290.600337 
L 380.560825 290.600337 
L 380.771746 290.329956 
L 380.979423 290.329956 
L 380.771746 290.059574 
L 380.664663 290.600337 
L 380.664663 290.87369 
L 380.246066 289.51584 
L 380.349904 289.242488 
L 380.560825 289.242488 
L 380.771746 289.51584 
L 380.979423 289.51584 
L 381.086506 289.242488 
L 380.875584 288.972107 
L 380.979423 290.329956 
L 380.979423 290.059574 
L 380.664663 288.972107 
L 380.664663 288.972107 
L 380.771746 288.972107 
L 380.875584 289.242488 
L 380.875584 289.242488 
L 380.875584 288.701725 
L 381.086506 288.157991 
L 381.401265 287.88761 
L 381.086506 288.157991 
L 380.875584 289.786222 
L 380.875584 289.786222 
L 380.771746 288.972107 
L 380.875584 288.157991 
L 380.875584 288.157991 
L 380.664663 287.88761 
L 380.664663 288.157991 
L 380.771746 288.157991 
L 380.979423 287.88761 
L 380.979423 287.614257 
L 380.875584 287.614257 
L 380.664663 287.614257 
L 380.560825 288.157991 
L 380.875584 288.157991 
L 380.771746 288.428373 
L 380.771746 288.428373 
L 380.771746 287.343876 
L 380.875584 287.614257 
L 381.086506 287.88761 
L 380.875584 287.614257 
L 380.979423 287.343876 
L 380.771746 287.88761 
L 380.560825 287.88761 
L 380.560825 287.343876 
L 380.771746 287.070523 
L 380.664663 287.070523 
L 380.664663 286.800142 
L 381.086506 285.986027 
L 381.297427 285.986027 
L 381.190344 286.529761 
L 380.875584 287.070523 
L 380.560825 287.070523 
L 381.401265 287.070523 
L 381.190344 286.800142 
L 380.456987 286.529761 
L 380.560825 285.986027 
L 381.086506 285.442293 
L 380.979423 284.357796 
L 380.875584 284.628178 
L 380.771746 286.256408 
L 380.771746 284.898559 
L 380.664663 284.898559 
L 380.664663 285.171912 
L 380.771746 285.171912 
L 380.875584 285.171912 
L 380.771746 284.898559 
L 380.875584 285.442293 
L 380.771746 285.442293 
L 380.771746 284.628178 
L 381.086506 283.54071 
L 380.875584 283.270328 
L 380.771746 282.726594 
L 380.979423 281.642098 
L 380.560825 280.827983 
L 379.827468 278.926399 
L 378.987029 276.210701 
L 378.35751 272.95424 
L 376.67663 266.708728 
L 375.732352 262.091446 
L 374.684236 256.389668 
L 373.318116 250.144156 
L 371.637236 244.442378 
L 369.959601 239.554715 
L 366.601087 228.424511 
L 362.402132 216.747602 
L 358.307016 205.617399 
L 356.522298 199.91562 
L 354.948502 193.670108 
L 351.275228 181.179084 
L 349.383427 175.206925 
L 347.705792 169.231794 
L 345.921074 163.803368 
L 344.347278 158.371971 
L 339.830319 141.266637 
L 336.997485 130.950548 
L 335.842286 125.24877 
L 333.95373 114.929711 
L 333.11329 110.856163 
L 332.065174 106.512234 
L 329.650938 97.280642 
L 328.284817 89.4069 
L 327.129618 81.533157 
L 326.396261 74.203148 
L 325.241062 66.599787 
L 325.241062 63.613707 
L 325.030141 63.069973 
L 325.137224 61.16839 
L 324.926303 61.441743 
L 324.715381 60.898009 
L 324.50446 60.898009 
L 324.400622 61.16839 
L 324.50446 60.627627 
L 324.822465 58.996426 
L 324.715381 58.726044 
L 324.715381 58.726044 
L 324.822465 59.54016 
L 324.400622 58.452692 
L 324.715381 57.097814 
L 324.611543 57.097814 
L 324.400622 56.280727 
L 324.400622 55.466612 
L 324.715381 54.922878 
L 324.715381 54.922878 
L 324.611543 54.922878 
L 324.611543 53.838381 
L 324.296784 53.568 
L 324.611543 54.382115 
L 324.50446 54.652497 
L 324.715381 55.196231 
L 324.50446 54.652497 
L 324.400622 55.196231 
L 324.611543 54.382115 
L 324.611543 54.652497 
L 324.50446 55.466612 
L 324.189701 56.010346 
L 324.296784 55.739964 
L 324.296784 55.196231 
L 324.400622 55.196231 
L 324.611543 55.466612 
L 324.611543 55.739964 
L 324.085863 56.010346 
L 324.189701 56.010346 
L 324.085863 56.280727 
L 323.982025 57.097814 
L 324.085863 56.824461 
L 324.296784 56.010346 
L 324.296784 56.280727 
L 324.400622 56.824461 
L 324.822465 57.368195 
L 324.611543 56.55408 
L 324.400622 56.824461 
L 324.189701 58.452692 
L 324.611543 58.996426 
L 324.611543 58.996426 
L 324.50446 58.452692 
L 324.085863 58.452692 
L 324.085863 60.627627 
L 324.611543 60.083893 
L 324.715381 60.083893 
L 324.189701 60.898009 
L 324.189701 60.627627 
L 324.296784 60.354275 
L 324.822465 60.354275 
L 324.822465 60.627627 
L 324.611543 60.898009 
L 324.296784 62.526239 
L 324.400622 62.255858 
L 324.822465 61.982505 
L 324.822465 63.069973 
L 324.715381 63.069973 
L 324.189701 63.884088 
L 324.400622 64.427822 
L 324.611543 63.884088 
L 324.50446 64.427822 
L 324.50446 64.971556 
L 324.715381 65.241938 
L 325.030141 65.241938 
L 325.030141 64.971556 
L 324.715381 64.971556 
L 324.400622 64.698204 
L 324.189701 64.971556 
L 324.296784 64.971556 
L 324.50446 64.971556 
L 324.50446 65.785672 
L 324.400622 65.512319 
L 324.085863 66.329406 
L 323.874942 66.329406 
L 323.874942 66.329406 
L 323.874942 66.056053 
L 323.982025 66.056053 
L 324.189701 66.870168 
L 324.085863 66.056053 
L 324.189701 65.512319 
L 324.085863 64.971556 
L 323.874942 64.971556 
L 323.771103 66.056053 
L 323.982025 64.698204 
L 324.189701 63.613707 
L 324.400622 63.613707 
L 325.137224 64.698204 
L 325.3449 64.427822 
L 325.766743 63.340355 
L 326.18534 61.712124 
L 326.71102 60.627627 
L 327.55146 60.083893 
L 329.543854 60.083893 
L 330.595216 60.627627 
L 333.11329 61.16839 
L 334.479411 62.255858 
L 337.523166 66.329406 
L 340.88168 70.943716 
L 342.877319 73.929796 
L 344.554954 76.915875 
L 348.12439 82.347272 
L 354.422821 92.936713 
L 356.311377 96.466527 
L 358.203178 99.725959 
L 360.406493 103.255773 
L 362.716892 107.326349 
L 365.024045 112.214012 
L 367.123522 117.101675 
L 369.119161 122.533072 
L 371.322477 127.961498 
L 373.736713 133.392894 
L 376.15095 138.280557 
L 378.35751 143.16822 
L 381.401265 154.571776 
L 382.975062 159.186087 
L 384.759779 163.803368 
L 386.544497 168.961413 
L 387.910618 174.119457 
L 388.958734 179.00712 
L 390.010095 183.351049 
L 391.898651 188.782445 
L 392.424331 191.498144 
L 393.261526 201.27347 
L 393.891045 210.775443 
L 394.312887 217.020955 
L 394.416725 220.277416 
L 394.942406 227.610396 
L 395.046244 243.084529 
L 395.257165 244.71573 
L 395.046244 248.245544 
L 395.153327 251.231624 
L 394.838568 254.761438 
L 394.523809 258.017899 
L 394.627647 259.375748 
L 394.838568 260.463216 
L 394.731485 265.62126 
L 394.523809 267.249491 
L 394.416725 273.495003 
L 394.312887 273.224621 
L 394.416725 272.95424 
L 394.416725 275.126204 
L 394.101966 276.481082 
L 394.205804 276.481082 
L 394.523809 276.210701 
L 394.838568 276.481082 
L 395.046244 278.382666 
L 394.838568 278.926399 
L 394.731485 278.382666 
L 394.838568 277.838932 
L 394.838568 278.382666 
L 394.942406 279.740515 
L 394.838568 278.112284 
L 394.942406 278.382666 
L 395.361003 279.740515 
L 395.153327 279.470133 
L 395.153327 278.926399 
L 395.361003 278.656018 
L 395.361003 278.382666 
L 395.153327 278.382666 
L 395.153327 278.656018 
L 395.571925 278.656018 
L 395.468087 278.926399 
L 395.571925 278.926399 
L 395.675763 278.926399 
L 395.675763 278.926399 
L 395.990522 279.470133 
L 396.097605 279.470133 
L 395.990522 279.196781 
L 395.782846 279.470133 
L 395.990522 280.284249 
L 395.886684 279.740515 
L 395.468087 279.740515 
L 395.675763 280.010896 
L 395.886684 280.010896 
L 395.990522 280.55463 
L 395.990522 280.827983 
L 396.097605 280.010896 
L 396.305281 280.010896 
L 396.412365 279.740515 
L 396.201443 279.196781 
L 396.516203 278.656018 
L 396.412365 278.656018 
L 396.305281 278.926399 
L 396.830962 277.838932 
L 396.830962 278.112284 
L 396.305281 277.56855 
L 396.412365 278.382666 
L 397.041883 278.382666 
L 397.145721 278.112284 
L 397.145721 278.112284 
L 396.830962 278.112284 
L 397.041883 278.112284 
L 397.252804 277.838932 
L 397.252804 277.024816 
L 397.041883 276.481082 
L 397.041883 276.754435 
L 397.041883 277.838932 
L 397.252804 277.56855 
L 397.356642 277.024816 
L 397.356642 275.94032 
L 397.460481 276.210701 
L 397.567564 277.024816 
L 397.252804 277.56855 
L 397.356642 277.56855 
L 397.252804 277.298169 
L 397.252804 276.754435 
L 397.145721 276.754435 
L 397.041883 277.024816 
L 397.460481 277.024816 
L 398.197082 276.210701 
L 397.77524 276.481082 
L 397.77524 275.94032 
L 397.986161 275.94032 
L 397.986161 276.481082 
L 397.77524 276.481082 
L 397.567564 275.666967 
L 397.567564 276.210701 
L 397.567564 276.481082 
L 397.882323 275.94032 
L 397.882323 275.94032 
L 397.986161 276.481082 
L 397.986161 276.481082 
L 397.671402 276.210701 
L 397.460481 277.024816 
L 397.567564 276.210701 
L 397.252804 275.666967 
L 397.041883 275.94032 
L 397.041883 276.754435 
L 397.252804 277.024816 
L 397.567564 276.481082 
L 397.567564 276.210701 
L 397.567564 278.382666 
L 397.671402 277.838932 
L 397.77524 277.838932 
L 397.567564 277.56855 
L 397.567564 276.754435 
L 397.986161 276.481082 
L 397.882323 277.024816 
L 397.041883 278.112284 
L 397.356642 277.56855 
L 397.041883 278.926399 
L 397.356642 278.926399 
L 397.145721 279.196781 
L 396.727124 278.926399 
L 396.938045 279.470133 
L 397.145721 279.470133 
L 397.252804 279.196781 
L 397.041883 278.926399 
L 396.727124 277.838932 
L 396.727124 278.382666 
L 396.623286 280.010896 
L 396.516203 280.010896 
L 396.727124 280.010896 
L 396.938045 279.196781 
L 397.041883 278.382666 
L 397.356642 279.196781 
L 397.041883 280.55463 
L 396.623286 280.827983 
L 396.305281 280.827983 
L 396.412365 280.55463 
L 396.516203 280.827983 
L 396.623286 280.55463 
L 396.516203 280.284249 
L 396.623286 280.284249 
L 396.727124 280.010896 
L 396.830962 278.926399 
L 396.938045 280.010896 
L 396.830962 279.470133 
L 396.623286 279.196781 
L 396.623286 278.926399 
L 396.830962 278.926399 
L 396.623286 280.010896 
L 396.516203 279.740515 
L 396.623286 278.926399 
L 396.830962 278.656018 
L 396.516203 279.740515 
L 396.623286 279.196781 
L 396.727124 279.470133 
L 396.727124 280.010896 
L 396.830962 279.196781 
L 396.830962 279.196781 
" style="fill:none;stroke:#1f77b4;stroke-linecap:square;stroke-width:1.5;"/>
   </g>
   <g id="matplotlib.axis_1">
    <g id="xtick_1">
     <g id="line2d_2">
      <defs>
       <path d="M 0 0 
L 0 3.5 
" id="m0e810fe9d2" style="stroke:#000000;stroke-width:0.8;"/>
      </defs>
      <g>
       <use style="stroke:#000000;stroke-width:0.8;" x="85.177043" xlink:href="#m0e810fe9d2" y="307.584"/>
      </g>
     </g>
     <g id="text_1">
      <!-- −800 -->
      <defs>
       <path d="M 10.59375 35.5 
L 73.1875 35.5 
L 73.1875 27.203125 
L 10.59375 27.203125 
z
" id="DejaVuSans-8722"/>
       <path d="M 31.78125 34.625 
Q 24.75 34.625 20.71875 30.859375 
Q 16.703125 27.09375 16.703125 20.515625 
Q 16.703125 13.921875 20.71875 10.15625 
Q 24.75 6.390625 31.78125 6.390625 
Q 38.8125 6.390625 42.859375 10.171875 
Q 46.921875 13.96875 46.921875 20.515625 
Q 46.921875 27.09375 42.890625 30.859375 
Q 38.875 34.625 31.78125 34.625 
z
M 21.921875 38.8125 
Q 15.578125 40.375 12.03125 44.71875 
Q 8.5 49.078125 8.5 55.328125 
Q 8.5 64.0625 14.71875 69.140625 
Q 20.953125 74.21875 31.78125 74.21875 
Q 42.671875 74.21875 48.875 69.140625 
Q 55.078125 64.0625 55.078125 55.328125 
Q 55.078125 49.078125 51.53125 44.71875 
Q 48 40.375 41.703125 38.8125 
Q 48.828125 37.15625 52.796875 32.3125 
Q 56.78125 27.484375 56.78125 20.515625 
Q 56.78125 9.90625 50.3125 4.234375 
Q 43.84375 -1.421875 31.78125 -1.421875 
Q 19.734375 -1.421875 13.25 4.234375 
Q 6.78125 9.90625 6.78125 20.515625 
Q 6.78125 27.484375 10.78125 32.3125 
Q 14.796875 37.15625 21.921875 38.8125 
z
M 18.3125 54.390625 
Q 18.3125 48.734375 21.84375 45.5625 
Q 25.390625 42.390625 31.78125 42.390625 
Q 38.140625 42.390625 41.71875 45.5625 
Q 45.3125 48.734375 45.3125 54.390625 
Q 45.3125 60.0625 41.71875 63.234375 
Q 38.140625 66.40625 31.78125 66.40625 
Q 25.390625 66.40625 21.84375 63.234375 
Q 18.3125 60.0625 18.3125 54.390625 
z
" id="DejaVuSans-56"/>
       <path d="M 31.78125 66.40625 
Q 24.171875 66.40625 20.328125 58.90625 
Q 16.5 51.421875 16.5 36.375 
Q 16.5 21.390625 20.328125 13.890625 
Q 24.171875 6.390625 31.78125 6.390625 
Q 39.453125 6.390625 43.28125 13.890625 
Q 47.125 21.390625 47.125 36.375 
Q 47.125 51.421875 43.28125 58.90625 
Q 39.453125 66.40625 31.78125 66.40625 
z
M 31.78125 74.21875 
Q 44.046875 74.21875 50.515625 64.515625 
Q 56.984375 54.828125 56.984375 36.375 
Q 56.984375 17.96875 50.515625 8.265625 
Q 44.046875 -1.421875 31.78125 -1.421875 
Q 19.53125 -1.421875 13.0625 8.265625 
Q 6.59375 17.96875 6.59375 36.375 
Q 6.59375 54.828125 13.0625 64.515625 
Q 19.53125 74.21875 31.78125 74.21875 
z
" id="DejaVuSans-48"/>
      </defs>
      <g transform="translate(71.443449 322.182437)scale(0.1 -0.1)">
       <use xlink:href="#DejaVuSans-8722"/>
       <use x="83.789062" xlink:href="#DejaVuSans-56"/>
       <use x="147.412109" xlink:href="#DejaVuSans-48"/>
       <use x="211.035156" xlink:href="#DejaVuSans-48"/>
      </g>
     </g>
    </g>
    <g id="xtick_2">
     <g id="line2d_3">
      <g>
       <use style="stroke:#000000;stroke-width:0.8;" x="150.075873" xlink:href="#m0e810fe9d2" y="307.584"/>
      </g>
     </g>
     <g id="text_2">
      <!-- −600 -->
      <defs>
       <path d="M 33.015625 40.375 
Q 26.375 40.375 22.484375 35.828125 
Q 18.609375 31.296875 18.609375 23.390625 
Q 18.609375 15.53125 22.484375 10.953125 
Q 26.375 6.390625 33.015625 6.390625 
Q 39.65625 6.390625 43.53125 10.953125 
Q 47.40625 15.53125 47.40625 23.390625 
Q 47.40625 31.296875 43.53125 35.828125 
Q 39.65625 40.375 33.015625 40.375 
z
M 52.59375 71.296875 
L 52.59375 62.3125 
Q 48.875 64.0625 45.09375 64.984375 
Q 41.3125 65.921875 37.59375 65.921875 
Q 27.828125 65.921875 22.671875 59.328125 
Q 17.53125 52.734375 16.796875 39.40625 
Q 19.671875 43.65625 24.015625 45.921875 
Q 28.375 48.1875 33.59375 48.1875 
Q 44.578125 48.1875 50.953125 41.515625 
Q 57.328125 34.859375 57.328125 23.390625 
Q 57.328125 12.15625 50.6875 5.359375 
Q 44.046875 -1.421875 33.015625 -1.421875 
Q 20.359375 -1.421875 13.671875 8.265625 
Q 6.984375 17.96875 6.984375 36.375 
Q 6.984375 53.65625 15.1875 63.9375 
Q 23.390625 74.21875 37.203125 74.21875 
Q 40.921875 74.21875 44.703125 73.484375 
Q 48.484375 72.75 52.59375 71.296875 
z
" id="DejaVuSans-54"/>
      </defs>
      <g transform="translate(136.34228 322.182437)scale(0.1 -0.1)">
       <use xlink:href="#DejaVuSans-8722"/>
       <use x="83.789062" xlink:href="#DejaVuSans-54"/>
       <use x="147.412109" xlink:href="#DejaVuSans-48"/>
       <use x="211.035156" xlink:href="#DejaVuSans-48"/>
      </g>
     </g>
    </g>
    <g id="xtick_3">
     <g id="line2d_4">
      <g>
       <use style="stroke:#000000;stroke-width:0.8;" x="214.974704" xlink:href="#m0e810fe9d2" y="307.584"/>
      </g>
     </g>
     <g id="text_3">
      <!-- −400 -->
      <defs>
       <path d="M 37.796875 64.3125 
L 12.890625 25.390625 
L 37.796875 25.390625 
z
M 35.203125 72.90625 
L 47.609375 72.90625 
L 47.609375 25.390625 
L 58.015625 25.390625 
L 58.015625 17.1875 
L 47.609375 17.1875 
L 47.609375 0 
L 37.796875 0 
L 37.796875 17.1875 
L 4.890625 17.1875 
L 4.890625 26.703125 
z
" id="DejaVuSans-52"/>
      </defs>
      <g transform="translate(201.24111 322.182437)scale(0.1 -0.1)">
       <use xlink:href="#DejaVuSans-8722"/>
       <use x="83.789062" xlink:href="#DejaVuSans-52"/>
       <use x="147.412109" xlink:href="#DejaVuSans-48"/>
       <use x="211.035156" xlink:href="#DejaVuSans-48"/>
      </g>
     </g>
    </g>
    <g id="xtick_4">
     <g id="line2d_5">
      <g>
       <use style="stroke:#000000;stroke-width:0.8;" x="279.873534" xlink:href="#m0e810fe9d2" y="307.584"/>
      </g>
     </g>
     <g id="text_4">
      <!-- −200 -->
      <defs>
       <path d="M 19.1875 8.296875 
L 53.609375 8.296875 
L 53.609375 0 
L 7.328125 0 
L 7.328125 8.296875 
Q 12.9375 14.109375 22.625 23.890625 
Q 32.328125 33.6875 34.8125 36.53125 
Q 39.546875 41.84375 41.421875 45.53125 
Q 43.3125 49.21875 43.3125 52.78125 
Q 43.3125 58.59375 39.234375 62.25 
Q 35.15625 65.921875 28.609375 65.921875 
Q 23.96875 65.921875 18.8125 64.3125 
Q 13.671875 62.703125 7.8125 59.421875 
L 7.8125 69.390625 
Q 13.765625 71.78125 18.9375 73 
Q 24.125 74.21875 28.421875 74.21875 
Q 39.75 74.21875 46.484375 68.546875 
Q 53.21875 62.890625 53.21875 53.421875 
Q 53.21875 48.921875 51.53125 44.890625 
Q 49.859375 40.875 45.40625 35.40625 
Q 44.1875 33.984375 37.640625 27.21875 
Q 31.109375 20.453125 19.1875 8.296875 
z
" id="DejaVuSans-50"/>
      </defs>
      <g transform="translate(266.139941 322.182437)scale(0.1 -0.1)">
       <use xlink:href="#DejaVuSans-8722"/>
       <use x="83.789062" xlink:href="#DejaVuSans-50"/>
       <use x="147.412109" xlink:href="#DejaVuSans-48"/>
       <use x="211.035156" xlink:href="#DejaVuSans-48"/>
      </g>
     </g>
    </g>
    <g id="xtick_5">
     <g id="line2d_6">
      <g>
       <use style="stroke:#000000;stroke-width:0.8;" x="344.772365" xlink:href="#m0e810fe9d2" y="307.584"/>
      </g>
     </g>
     <g id="text_5">
      <!-- 0 -->
      <g transform="translate(341.591115 322.182437)scale(0.1 -0.1)">
       <use xlink:href="#DejaVuSans-48"/>
      </g>
     </g>
    </g>
    <g id="xtick_6">
     <g id="line2d_7">
      <g>
       <use style="stroke:#000000;stroke-width:0.8;" x="409.671196" xlink:href="#m0e810fe9d2" y="307.584"/>
      </g>
     </g>
     <g id="text_6">
      <!-- 200 -->
      <g transform="translate(400.127446 322.182437)scale(0.1 -0.1)">
       <use xlink:href="#DejaVuSans-50"/>
       <use x="63.623047" xlink:href="#DejaVuSans-48"/>
       <use x="127.246094" xlink:href="#DejaVuSans-48"/>
      </g>
     </g>
    </g>
   </g>
   <g id="matplotlib.axis_2">
    <g id="ytick_1">
     <g id="line2d_8">
      <defs>
       <path d="M 0 0 
L -3.5 0 
" id="m2be574ae90" style="stroke:#000000;stroke-width:0.8;"/>
      </defs>
      <g>
       <use style="stroke:#000000;stroke-width:0.8;" x="57.6" xlink:href="#m2be574ae90" y="295.018547"/>
      </g>
     </g>
     <g id="text_7">
      <!-- −700 -->
      <defs>
       <path d="M 8.203125 72.90625 
L 55.078125 72.90625 
L 55.078125 68.703125 
L 28.609375 0 
L 18.3125 0 
L 43.21875 64.59375 
L 8.203125 64.59375 
z
" id="DejaVuSans-55"/>
      </defs>
      <g transform="translate(23.132812 298.817765)scale(0.1 -0.1)">
       <use xlink:href="#DejaVuSans-8722"/>
       <use x="83.789062" xlink:href="#DejaVuSans-55"/>
       <use x="147.412109" xlink:href="#DejaVuSans-48"/>
       <use x="211.035156" xlink:href="#DejaVuSans-48"/>
      </g>
     </g>
    </g>
    <g id="ytick_2">
     <g id="line2d_9">
      <g>
       <use style="stroke:#000000;stroke-width:0.8;" x="57.6" xlink:href="#m2be574ae90" y="265.30631"/>
      </g>
     </g>
     <g id="text_8">
      <!-- −600 -->
      <g transform="translate(23.132812 269.105529)scale(0.1 -0.1)">
       <use xlink:href="#DejaVuSans-8722"/>
       <use x="83.789062" xlink:href="#DejaVuSans-54"/>
       <use x="147.412109" xlink:href="#DejaVuSans-48"/>
       <use x="211.035156" xlink:href="#DejaVuSans-48"/>
      </g>
     </g>
    </g>
    <g id="ytick_3">
     <g id="line2d_10">
      <g>
       <use style="stroke:#000000;stroke-width:0.8;" x="57.6" xlink:href="#m2be574ae90" y="235.594074"/>
      </g>
     </g>
     <g id="text_9">
      <!-- −500 -->
      <defs>
       <path d="M 10.796875 72.90625 
L 49.515625 72.90625 
L 49.515625 64.59375 
L 19.828125 64.59375 
L 19.828125 46.734375 
Q 21.96875 47.46875 24.109375 47.828125 
Q 26.265625 48.1875 28.421875 48.1875 
Q 40.625 48.1875 47.75 41.5 
Q 54.890625 34.8125 54.890625 23.390625 
Q 54.890625 11.625 47.5625 5.09375 
Q 40.234375 -1.421875 26.90625 -1.421875 
Q 22.3125 -1.421875 17.546875 -0.640625 
Q 12.796875 0.140625 7.71875 1.703125 
L 7.71875 11.625 
Q 12.109375 9.234375 16.796875 8.0625 
Q 21.484375 6.890625 26.703125 6.890625 
Q 35.15625 6.890625 40.078125 11.328125 
Q 45.015625 15.765625 45.015625 23.390625 
Q 45.015625 31 40.078125 35.4375 
Q 35.15625 39.890625 26.703125 39.890625 
Q 22.75 39.890625 18.8125 39.015625 
Q 14.890625 38.140625 10.796875 36.28125 
z
" id="DejaVuSans-53"/>
      </defs>
      <g transform="translate(23.132812 239.393293)scale(0.1 -0.1)">
       <use xlink:href="#DejaVuSans-8722"/>
       <use x="83.789062" xlink:href="#DejaVuSans-53"/>
       <use x="147.412109" xlink:href="#DejaVuSans-48"/>
       <use x="211.035156" xlink:href="#DejaVuSans-48"/>
      </g>
     </g>
    </g>
    <g id="ytick_4">
     <g id="line2d_11">
      <g>
       <use style="stroke:#000000;stroke-width:0.8;" x="57.6" xlink:href="#m2be574ae90" y="205.881837"/>
      </g>
     </g>
     <g id="text_10">
      <!-- −400 -->
      <g transform="translate(23.132812 209.681056)scale(0.1 -0.1)">
       <use xlink:href="#DejaVuSans-8722"/>
       <use x="83.789062" xlink:href="#DejaVuSans-52"/>
       <use x="147.412109" xlink:href="#DejaVuSans-48"/>
       <use x="211.035156" xlink:href="#DejaVuSans-48"/>
      </g>
     </g>
    </g>
    <g id="ytick_5">
     <g id="line2d_12">
      <g>
       <use style="stroke:#000000;stroke-width:0.8;" x="57.6" xlink:href="#m2be574ae90" y="176.169601"/>
      </g>
     </g>
     <g id="text_11">
      <!-- −300 -->
      <defs>
       <path d="M 40.578125 39.3125 
Q 47.65625 37.796875 51.625 33 
Q 55.609375 28.21875 55.609375 21.1875 
Q 55.609375 10.40625 48.1875 4.484375 
Q 40.765625 -1.421875 27.09375 -1.421875 
Q 22.515625 -1.421875 17.65625 -0.515625 
Q 12.796875 0.390625 7.625 2.203125 
L 7.625 11.71875 
Q 11.71875 9.328125 16.59375 8.109375 
Q 21.484375 6.890625 26.8125 6.890625 
Q 36.078125 6.890625 40.9375 10.546875 
Q 45.796875 14.203125 45.796875 21.1875 
Q 45.796875 27.640625 41.28125 31.265625 
Q 36.765625 34.90625 28.71875 34.90625 
L 20.21875 34.90625 
L 20.21875 43.015625 
L 29.109375 43.015625 
Q 36.375 43.015625 40.234375 45.921875 
Q 44.09375 48.828125 44.09375 54.296875 
Q 44.09375 59.90625 40.109375 62.90625 
Q 36.140625 65.921875 28.71875 65.921875 
Q 24.65625 65.921875 20.015625 65.03125 
Q 15.375 64.15625 9.8125 62.3125 
L 9.8125 71.09375 
Q 15.4375 72.65625 20.34375 73.4375 
Q 25.25 74.21875 29.59375 74.21875 
Q 40.828125 74.21875 47.359375 69.109375 
Q 53.90625 64.015625 53.90625 55.328125 
Q 53.90625 49.265625 50.4375 45.09375 
Q 46.96875 40.921875 40.578125 39.3125 
z
" id="DejaVuSans-51"/>
      </defs>
      <g transform="translate(23.132812 179.96882)scale(0.1 -0.1)">
       <use xlink:href="#DejaVuSans-8722"/>
       <use x="83.789062" xlink:href="#DejaVuSans-51"/>
       <use x="147.412109" xlink:href="#DejaVuSans-48"/>
       <use x="211.035156" xlink:href="#DejaVuSans-48"/>
      </g>
     </g>
    </g>
    <g id="ytick_6">
     <g id="line2d_13">
      <g>
       <use style="stroke:#000000;stroke-width:0.8;" x="57.6" xlink:href="#m2be574ae90" y="146.457365"/>
      </g>
     </g>
     <g id="text_12">
      <!-- −200 -->
      <g transform="translate(23.132812 150.256583)scale(0.1 -0.1)">
       <use xlink:href="#DejaVuSans-8722"/>
       <use x="83.789062" xlink:href="#DejaVuSans-50"/>
       <use x="147.412109" xlink:href="#DejaVuSans-48"/>
       <use x="211.035156" xlink:href="#DejaVuSans-48"/>
      </g>
     </g>
    </g>
    <g id="ytick_7">
     <g id="line2d_14">
      <g>
       <use style="stroke:#000000;stroke-width:0.8;" x="57.6" xlink:href="#m2be574ae90" y="116.745128"/>
      </g>
     </g>
     <g id="text_13">
      <!-- −100 -->
      <defs>
       <path d="M 12.40625 8.296875 
L 28.515625 8.296875 
L 28.515625 63.921875 
L 10.984375 60.40625 
L 10.984375 69.390625 
L 28.421875 72.90625 
L 38.28125 72.90625 
L 38.28125 8.296875 
L 54.390625 8.296875 
L 54.390625 0 
L 12.40625 0 
z
" id="DejaVuSans-49"/>
      </defs>
      <g transform="translate(23.132812 120.544347)scale(0.1 -0.1)">
       <use xlink:href="#DejaVuSans-8722"/>
       <use x="83.789062" xlink:href="#DejaVuSans-49"/>
       <use x="147.412109" xlink:href="#DejaVuSans-48"/>
       <use x="211.035156" xlink:href="#DejaVuSans-48"/>
      </g>
     </g>
    </g>
    <g id="ytick_8">
     <g id="line2d_15">
      <g>
       <use style="stroke:#000000;stroke-width:0.8;" x="57.6" xlink:href="#m2be574ae90" y="87.032892"/>
      </g>
     </g>
     <g id="text_14">
      <!-- 0 -->
      <g transform="translate(44.2375 90.832111)scale(0.1 -0.1)">
       <use xlink:href="#DejaVuSans-48"/>
      </g>
     </g>
    </g>
    <g id="ytick_9">
     <g id="line2d_16">
      <g>
       <use style="stroke:#000000;stroke-width:0.8;" x="57.6" xlink:href="#m2be574ae90" y="57.320655"/>
      </g>
     </g>
     <g id="text_15">
      <!-- 100 -->
      <g transform="translate(31.5125 61.119874)scale(0.1 -0.1)">
       <use xlink:href="#DejaVuSans-49"/>
       <use x="63.623047" xlink:href="#DejaVuSans-48"/>
       <use x="127.246094" xlink:href="#DejaVuSans-48"/>
      </g>
     </g>
    </g>
   </g>
   <g id="line2d_17">
    <path clip-path="url(#p9e5ff2e787)" d="M 79.511257 263.725547 
L 281.095873 237.454098 
L 378.685434 286.86914 
L 325.383378 62.947576 
L 395.659946 268.386479 
L 397.173914 278.213497 
" style="fill:none;stroke:#ff0000;stroke-linecap:square;stroke-width:0.5;"/>
   </g>
   <g id="patch_3">
    <path d="M 57.6 307.584 
L 57.6 41.472 
" style="fill:none;stroke:#000000;stroke-linecap:square;stroke-linejoin:miter;stroke-width:0.8;"/>
   </g>
   <g id="patch_4">
    <path d="M 414.72 307.584 
L 414.72 41.472 
" style="fill:none;stroke:#000000;stroke-linecap:square;stroke-linejoin:miter;stroke-width:0.8;"/>
   </g>
   <g id="patch_5">
    <path d="M 57.6 307.584 
L 414.72 307.584 
" style="fill:none;stroke:#000000;stroke-linecap:square;stroke-linejoin:miter;stroke-width:0.8;"/>
   </g>
   <g id="patch_6">
    <path d="M 57.6 41.472 
L 414.72 41.472 
" style="fill:none;stroke:#000000;stroke-linecap:square;stroke-linejoin:miter;stroke-width:0.8;"/>
   </g>
   <g id="PathCollection_1">
    <defs>
     <path d="M 0 2.738613 
C 0.726289 2.738613 1.422928 2.450055 1.936492 1.936492 
C 2.450055 1.422928 2.738613 0.726289 2.738613 0 
C 2.738613 -0.726289 2.450055 -1.422928 1.936492 -1.936492 
C 1.422928 -2.450055 0.726289 -2.738613 0 -2.738613 
C -0.726289 -2.738613 -1.422928 -2.450055 -1.936492 -1.936492 
C -2.450055 -1.422928 -2.738613 -0.726289 -2.738613 0 
C -2.738613 0.726289 -2.450055 1.422928 -1.936492 1.936492 
C -1.422928 2.450055 -0.726289 2.738613 0 2.738613 
z
" id="m08518cc659" style="stroke:#ff0000;"/>
    </defs>
    <g clip-path="url(#p9e5ff2e787)">
     <use style="fill:#ff0000;stroke:#ff0000;" x="79.511257" xlink:href="#m08518cc659" y="263.725547"/>
     <use style="fill:#ff0000;stroke:#ff0000;" x="281.095873" xlink:href="#m08518cc659" y="237.454098"/>
     <use style="fill:#ff0000;stroke:#ff0000;" x="378.685434" xlink:href="#m08518cc659" y="286.86914"/>
     <use style="fill:#ff0000;stroke:#ff0000;" x="325.383378" xlink:href="#m08518cc659" y="62.947576"/>
     <use style="fill:#ff0000;stroke:#ff0000;" x="395.659946" xlink:href="#m08518cc659" y="268.386479"/>
     <use style="fill:#ff0000;stroke:#ff0000;" x="397.173914" xlink:href="#m08518cc659" y="278.213497"/>
    </g>
   </g>
   <g id="text_16">
    <!-- (108) Subject: s27, Known = False, Degree = 2, Duration = 0.1 -->
    <defs>
     <path d="M 31 75.875 
Q 24.46875 64.65625 21.28125 53.65625 
Q 18.109375 42.671875 18.109375 31.390625 
Q 18.109375 20.125 21.3125 9.0625 
Q 24.515625 -2 31 -13.1875 
L 23.1875 -13.1875 
Q 15.875 -1.703125 12.234375 9.375 
Q 8.59375 20.453125 8.59375 31.390625 
Q 8.59375 42.28125 12.203125 53.3125 
Q 15.828125 64.359375 23.1875 75.875 
z
" id="DejaVuSans-40"/>
     <path d="M 8.015625 75.875 
L 15.828125 75.875 
Q 23.140625 64.359375 26.78125 53.3125 
Q 30.421875 42.28125 30.421875 31.390625 
Q 30.421875 20.453125 26.78125 9.375 
Q 23.140625 -1.703125 15.828125 -13.1875 
L 8.015625 -13.1875 
Q 14.5 -2 17.703125 9.0625 
Q 20.90625 20.125 20.90625 31.390625 
Q 20.90625 42.671875 17.703125 53.65625 
Q 14.5 64.65625 8.015625 75.875 
z
" id="DejaVuSans-41"/>
     <path id="DejaVuSans-32"/>
     <path d="M 53.515625 70.515625 
L 53.515625 60.890625 
Q 47.90625 63.578125 42.921875 64.890625 
Q 37.9375 66.21875 33.296875 66.21875 
Q 25.25 66.21875 20.875 63.09375 
Q 16.5 59.96875 16.5 54.203125 
Q 16.5 49.359375 19.40625 46.890625 
Q 22.3125 44.4375 30.421875 42.921875 
L 36.375 41.703125 
Q 47.40625 39.59375 52.65625 34.296875 
Q 57.90625 29 57.90625 20.125 
Q 57.90625 9.515625 50.796875 4.046875 
Q 43.703125 -1.421875 29.984375 -1.421875 
Q 24.8125 -1.421875 18.96875 -0.25 
Q 13.140625 0.921875 6.890625 3.21875 
L 6.890625 13.375 
Q 12.890625 10.015625 18.65625 8.296875 
Q 24.421875 6.59375 29.984375 6.59375 
Q 38.421875 6.59375 43.015625 9.90625 
Q 47.609375 13.234375 47.609375 19.390625 
Q 47.609375 24.75 44.3125 27.78125 
Q 41.015625 30.8125 33.5 32.328125 
L 27.484375 33.5 
Q 16.453125 35.6875 11.515625 40.375 
Q 6.59375 45.0625 6.59375 53.421875 
Q 6.59375 63.09375 13.40625 68.65625 
Q 20.21875 74.21875 32.171875 74.21875 
Q 37.3125 74.21875 42.625 73.28125 
Q 47.953125 72.359375 53.515625 70.515625 
z
" id="DejaVuSans-83"/>
     <path d="M 8.5 21.578125 
L 8.5 54.6875 
L 17.484375 54.6875 
L 17.484375 21.921875 
Q 17.484375 14.15625 20.5 10.265625 
Q 23.53125 6.390625 29.59375 6.390625 
Q 36.859375 6.390625 41.078125 11.03125 
Q 45.3125 15.671875 45.3125 23.6875 
L 45.3125 54.6875 
L 54.296875 54.6875 
L 54.296875 0 
L 45.3125 0 
L 45.3125 8.40625 
Q 42.046875 3.421875 37.71875 1 
Q 33.40625 -1.421875 27.6875 -1.421875 
Q 18.265625 -1.421875 13.375 4.4375 
Q 8.5 10.296875 8.5 21.578125 
z
M 31.109375 56 
z
" id="DejaVuSans-117"/>
     <path d="M 48.6875 27.296875 
Q 48.6875 37.203125 44.609375 42.84375 
Q 40.53125 48.484375 33.40625 48.484375 
Q 26.265625 48.484375 22.1875 42.84375 
Q 18.109375 37.203125 18.109375 27.296875 
Q 18.109375 17.390625 22.1875 11.75 
Q 26.265625 6.109375 33.40625 6.109375 
Q 40.53125 6.109375 44.609375 11.75 
Q 48.6875 17.390625 48.6875 27.296875 
z
M 18.109375 46.390625 
Q 20.953125 51.265625 25.265625 53.625 
Q 29.59375 56 35.59375 56 
Q 45.5625 56 51.78125 48.09375 
Q 58.015625 40.1875 58.015625 27.296875 
Q 58.015625 14.40625 51.78125 6.484375 
Q 45.5625 -1.421875 35.59375 -1.421875 
Q 29.59375 -1.421875 25.265625 0.953125 
Q 20.953125 3.328125 18.109375 8.203125 
L 18.109375 0 
L 9.078125 0 
L 9.078125 75.984375 
L 18.109375 75.984375 
z
" id="DejaVuSans-98"/>
     <path d="M 9.421875 54.6875 
L 18.40625 54.6875 
L 18.40625 -0.984375 
Q 18.40625 -11.421875 14.421875 -16.109375 
Q 10.453125 -20.796875 1.609375 -20.796875 
L -1.8125 -20.796875 
L -1.8125 -13.1875 
L 0.59375 -13.1875 
Q 5.71875 -13.1875 7.5625 -10.8125 
Q 9.421875 -8.453125 9.421875 -0.984375 
z
M 9.421875 75.984375 
L 18.40625 75.984375 
L 18.40625 64.59375 
L 9.421875 64.59375 
z
" id="DejaVuSans-106"/>
     <path d="M 56.203125 29.59375 
L 56.203125 25.203125 
L 14.890625 25.203125 
Q 15.484375 15.921875 20.484375 11.0625 
Q 25.484375 6.203125 34.421875 6.203125 
Q 39.59375 6.203125 44.453125 7.46875 
Q 49.3125 8.734375 54.109375 11.28125 
L 54.109375 2.78125 
Q 49.265625 0.734375 44.1875 -0.34375 
Q 39.109375 -1.421875 33.890625 -1.421875 
Q 20.796875 -1.421875 13.15625 6.1875 
Q 5.515625 13.8125 5.515625 26.8125 
Q 5.515625 40.234375 12.765625 48.109375 
Q 20.015625 56 32.328125 56 
Q 43.359375 56 49.78125 48.890625 
Q 56.203125 41.796875 56.203125 29.59375 
z
M 47.21875 32.234375 
Q 47.125 39.59375 43.09375 43.984375 
Q 39.0625 48.390625 32.421875 48.390625 
Q 24.90625 48.390625 20.390625 44.140625 
Q 15.875 39.890625 15.1875 32.171875 
z
" id="DejaVuSans-101"/>
     <path d="M 48.78125 52.59375 
L 48.78125 44.1875 
Q 44.96875 46.296875 41.140625 47.34375 
Q 37.3125 48.390625 33.40625 48.390625 
Q 24.65625 48.390625 19.8125 42.84375 
Q 14.984375 37.3125 14.984375 27.296875 
Q 14.984375 17.28125 19.8125 11.734375 
Q 24.65625 6.203125 33.40625 6.203125 
Q 37.3125 6.203125 41.140625 7.25 
Q 44.96875 8.296875 48.78125 10.40625 
L 48.78125 2.09375 
Q 45.015625 0.34375 40.984375 -0.53125 
Q 36.96875 -1.421875 32.421875 -1.421875 
Q 20.0625 -1.421875 12.78125 6.34375 
Q 5.515625 14.109375 5.515625 27.296875 
Q 5.515625 40.671875 12.859375 48.328125 
Q 20.21875 56 33.015625 56 
Q 37.15625 56 41.109375 55.140625 
Q 45.0625 54.296875 48.78125 52.59375 
z
" id="DejaVuSans-99"/>
     <path d="M 18.3125 70.21875 
L 18.3125 54.6875 
L 36.8125 54.6875 
L 36.8125 47.703125 
L 18.3125 47.703125 
L 18.3125 18.015625 
Q 18.3125 11.328125 20.140625 9.421875 
Q 21.96875 7.515625 27.59375 7.515625 
L 36.8125 7.515625 
L 36.8125 0 
L 27.59375 0 
Q 17.1875 0 13.234375 3.875 
Q 9.28125 7.765625 9.28125 18.015625 
L 9.28125 47.703125 
L 2.6875 47.703125 
L 2.6875 54.6875 
L 9.28125 54.6875 
L 9.28125 70.21875 
z
" id="DejaVuSans-116"/>
     <path d="M 11.71875 12.40625 
L 22.015625 12.40625 
L 22.015625 0 
L 11.71875 0 
z
M 11.71875 51.703125 
L 22.015625 51.703125 
L 22.015625 39.3125 
L 11.71875 39.3125 
z
" id="DejaVuSans-58"/>
     <path d="M 44.28125 53.078125 
L 44.28125 44.578125 
Q 40.484375 46.53125 36.375 47.5 
Q 32.28125 48.484375 27.875 48.484375 
Q 21.1875 48.484375 17.84375 46.4375 
Q 14.5 44.390625 14.5 40.28125 
Q 14.5 37.15625 16.890625 35.375 
Q 19.28125 33.59375 26.515625 31.984375 
L 29.59375 31.296875 
Q 39.15625 29.25 43.1875 25.515625 
Q 47.21875 21.78125 47.21875 15.09375 
Q 47.21875 7.46875 41.1875 3.015625 
Q 35.15625 -1.421875 24.609375 -1.421875 
Q 20.21875 -1.421875 15.453125 -0.5625 
Q 10.6875 0.296875 5.421875 2 
L 5.421875 11.28125 
Q 10.40625 8.6875 15.234375 7.390625 
Q 20.0625 6.109375 24.8125 6.109375 
Q 31.15625 6.109375 34.5625 8.28125 
Q 37.984375 10.453125 37.984375 14.40625 
Q 37.984375 18.0625 35.515625 20.015625 
Q 33.0625 21.96875 24.703125 23.78125 
L 21.578125 24.515625 
Q 13.234375 26.265625 9.515625 29.90625 
Q 5.8125 33.546875 5.8125 39.890625 
Q 5.8125 47.609375 11.28125 51.796875 
Q 16.75 56 26.8125 56 
Q 31.78125 56 36.171875 55.265625 
Q 40.578125 54.546875 44.28125 53.078125 
z
" id="DejaVuSans-115"/>
     <path d="M 11.71875 12.40625 
L 22.015625 12.40625 
L 22.015625 4 
L 14.015625 -11.625 
L 7.71875 -11.625 
L 11.71875 4 
z
" id="DejaVuSans-44"/>
     <path d="M 9.8125 72.90625 
L 19.671875 72.90625 
L 19.671875 42.09375 
L 52.390625 72.90625 
L 65.09375 72.90625 
L 28.90625 38.921875 
L 67.671875 0 
L 54.6875 0 
L 19.671875 35.109375 
L 19.671875 0 
L 9.8125 0 
z
" id="DejaVuSans-75"/>
     <path d="M 54.890625 33.015625 
L 54.890625 0 
L 45.90625 0 
L 45.90625 32.71875 
Q 45.90625 40.484375 42.875 44.328125 
Q 39.84375 48.1875 33.796875 48.1875 
Q 26.515625 48.1875 22.3125 43.546875 
Q 18.109375 38.921875 18.109375 30.90625 
L 18.109375 0 
L 9.078125 0 
L 9.078125 54.6875 
L 18.109375 54.6875 
L 18.109375 46.1875 
Q 21.34375 51.125 25.703125 53.5625 
Q 30.078125 56 35.796875 56 
Q 45.21875 56 50.046875 50.171875 
Q 54.890625 44.34375 54.890625 33.015625 
z
" id="DejaVuSans-110"/>
     <path d="M 30.609375 48.390625 
Q 23.390625 48.390625 19.1875 42.75 
Q 14.984375 37.109375 14.984375 27.296875 
Q 14.984375 17.484375 19.15625 11.84375 
Q 23.34375 6.203125 30.609375 6.203125 
Q 37.796875 6.203125 41.984375 11.859375 
Q 46.1875 17.53125 46.1875 27.296875 
Q 46.1875 37.015625 41.984375 42.703125 
Q 37.796875 48.390625 30.609375 48.390625 
z
M 30.609375 56 
Q 42.328125 56 49.015625 48.375 
Q 55.71875 40.765625 55.71875 27.296875 
Q 55.71875 13.875 49.015625 6.21875 
Q 42.328125 -1.421875 30.609375 -1.421875 
Q 18.84375 -1.421875 12.171875 6.21875 
Q 5.515625 13.875 5.515625 27.296875 
Q 5.515625 40.765625 12.171875 48.375 
Q 18.84375 56 30.609375 56 
z
" id="DejaVuSans-111"/>
     <path d="M 4.203125 54.6875 
L 13.1875 54.6875 
L 24.421875 12.015625 
L 35.59375 54.6875 
L 46.1875 54.6875 
L 57.421875 12.015625 
L 68.609375 54.6875 
L 77.59375 54.6875 
L 63.28125 0 
L 52.6875 0 
L 40.921875 44.828125 
L 29.109375 0 
L 18.5 0 
z
" id="DejaVuSans-119"/>
     <path d="M 10.59375 45.40625 
L 73.1875 45.40625 
L 73.1875 37.203125 
L 10.59375 37.203125 
z
M 10.59375 25.484375 
L 73.1875 25.484375 
L 73.1875 17.1875 
L 10.59375 17.1875 
z
" id="DejaVuSans-61"/>
     <path d="M 9.8125 72.90625 
L 51.703125 72.90625 
L 51.703125 64.59375 
L 19.671875 64.59375 
L 19.671875 43.109375 
L 48.578125 43.109375 
L 48.578125 34.8125 
L 19.671875 34.8125 
L 19.671875 0 
L 9.8125 0 
z
" id="DejaVuSans-70"/>
     <path d="M 34.28125 27.484375 
Q 23.390625 27.484375 19.1875 25 
Q 14.984375 22.515625 14.984375 16.5 
Q 14.984375 11.71875 18.140625 8.90625 
Q 21.296875 6.109375 26.703125 6.109375 
Q 34.1875 6.109375 38.703125 11.40625 
Q 43.21875 16.703125 43.21875 25.484375 
L 43.21875 27.484375 
z
M 52.203125 31.203125 
L 52.203125 0 
L 43.21875 0 
L 43.21875 8.296875 
Q 40.140625 3.328125 35.546875 0.953125 
Q 30.953125 -1.421875 24.3125 -1.421875 
Q 15.921875 -1.421875 10.953125 3.296875 
Q 6 8.015625 6 15.921875 
Q 6 25.140625 12.171875 29.828125 
Q 18.359375 34.515625 30.609375 34.515625 
L 43.21875 34.515625 
L 43.21875 35.40625 
Q 43.21875 41.609375 39.140625 45 
Q 35.0625 48.390625 27.6875 48.390625 
Q 23 48.390625 18.546875 47.265625 
Q 14.109375 46.140625 10.015625 43.890625 
L 10.015625 52.203125 
Q 14.9375 54.109375 19.578125 55.046875 
Q 24.21875 56 28.609375 56 
Q 40.484375 56 46.34375 49.84375 
Q 52.203125 43.703125 52.203125 31.203125 
z
" id="DejaVuSans-97"/>
     <path d="M 9.421875 75.984375 
L 18.40625 75.984375 
L 18.40625 0 
L 9.421875 0 
z
" id="DejaVuSans-108"/>
     <path d="M 19.671875 64.796875 
L 19.671875 8.109375 
L 31.59375 8.109375 
Q 46.6875 8.109375 53.6875 14.9375 
Q 60.6875 21.78125 60.6875 36.53125 
Q 60.6875 51.171875 53.6875 57.984375 
Q 46.6875 64.796875 31.59375 64.796875 
z
M 9.8125 72.90625 
L 30.078125 72.90625 
Q 51.265625 72.90625 61.171875 64.09375 
Q 71.09375 55.28125 71.09375 36.53125 
Q 71.09375 17.671875 61.125 8.828125 
Q 51.171875 0 30.078125 0 
L 9.8125 0 
z
" id="DejaVuSans-68"/>
     <path d="M 45.40625 27.984375 
Q 45.40625 37.75 41.375 43.109375 
Q 37.359375 48.484375 30.078125 48.484375 
Q 22.859375 48.484375 18.828125 43.109375 
Q 14.796875 37.75 14.796875 27.984375 
Q 14.796875 18.265625 18.828125 12.890625 
Q 22.859375 7.515625 30.078125 7.515625 
Q 37.359375 7.515625 41.375 12.890625 
Q 45.40625 18.265625 45.40625 27.984375 
z
M 54.390625 6.78125 
Q 54.390625 -7.171875 48.1875 -13.984375 
Q 42 -20.796875 29.203125 -20.796875 
Q 24.46875 -20.796875 20.265625 -20.09375 
Q 16.0625 -19.390625 12.109375 -17.921875 
L 12.109375 -9.1875 
Q 16.0625 -11.328125 19.921875 -12.34375 
Q 23.78125 -13.375 27.78125 -13.375 
Q 36.625 -13.375 41.015625 -8.765625 
Q 45.40625 -4.15625 45.40625 5.171875 
L 45.40625 9.625 
Q 42.625 4.78125 38.28125 2.390625 
Q 33.9375 0 27.875 0 
Q 17.828125 0 11.671875 7.65625 
Q 5.515625 15.328125 5.515625 27.984375 
Q 5.515625 40.671875 11.671875 48.328125 
Q 17.828125 56 27.875 56 
Q 33.9375 56 38.28125 53.609375 
Q 42.625 51.21875 45.40625 46.390625 
L 45.40625 54.6875 
L 54.390625 54.6875 
z
" id="DejaVuSans-103"/>
     <path d="M 41.109375 46.296875 
Q 39.59375 47.171875 37.8125 47.578125 
Q 36.03125 48 33.890625 48 
Q 26.265625 48 22.1875 43.046875 
Q 18.109375 38.09375 18.109375 28.8125 
L 18.109375 0 
L 9.078125 0 
L 9.078125 54.6875 
L 18.109375 54.6875 
L 18.109375 46.1875 
Q 20.953125 51.171875 25.484375 53.578125 
Q 30.03125 56 36.53125 56 
Q 37.453125 56 38.578125 55.875 
Q 39.703125 55.765625 41.0625 55.515625 
z
" id="DejaVuSans-114"/>
     <path d="M 9.421875 54.6875 
L 18.40625 54.6875 
L 18.40625 0 
L 9.421875 0 
z
M 9.421875 75.984375 
L 18.40625 75.984375 
L 18.40625 64.59375 
L 9.421875 64.59375 
z
" id="DejaVuSans-105"/>
     <path d="M 10.6875 12.40625 
L 21 12.40625 
L 21 0 
L 10.6875 0 
z
" id="DejaVuSans-46"/>
    </defs>
    <g transform="translate(45.924375 35.472)scale(0.12 -0.12)">
     <use xlink:href="#DejaVuSans-40"/>
     <use x="39.013672" xlink:href="#DejaVuSans-49"/>
     <use x="102.636719" xlink:href="#DejaVuSans-48"/>
     <use x="166.259766" xlink:href="#DejaVuSans-56"/>
     <use x="229.882812" xlink:href="#DejaVuSans-41"/>
     <use x="268.896484" xlink:href="#DejaVuSans-32"/>
     <use x="300.683594" xlink:href="#DejaVuSans-83"/>
     <use x="364.160156" xlink:href="#DejaVuSans-117"/>
     <use x="427.539062" xlink:href="#DejaVuSans-98"/>
     <use x="491.015625" xlink:href="#DejaVuSans-106"/>
     <use x="518.798828" xlink:href="#DejaVuSans-101"/>
     <use x="580.322266" xlink:href="#DejaVuSans-99"/>
     <use x="635.302734" xlink:href="#DejaVuSans-116"/>
     <use x="674.511719" xlink:href="#DejaVuSans-58"/>
     <use x="708.203125" xlink:href="#DejaVuSans-32"/>
     <use x="739.990234" xlink:href="#DejaVuSans-115"/>
     <use x="792.089844" xlink:href="#DejaVuSans-50"/>
     <use x="855.712891" xlink:href="#DejaVuSans-55"/>
     <use x="919.335938" xlink:href="#DejaVuSans-44"/>
     <use x="951.123047" xlink:href="#DejaVuSans-32"/>
     <use x="982.910156" xlink:href="#DejaVuSans-75"/>
     <use x="1048.486328" xlink:href="#DejaVuSans-110"/>
     <use x="1111.865234" xlink:href="#DejaVuSans-111"/>
     <use x="1173.046875" xlink:href="#DejaVuSans-119"/>
     <use x="1254.833984" xlink:href="#DejaVuSans-110"/>
     <use x="1318.212891" xlink:href="#DejaVuSans-32"/>
     <use x="1350" xlink:href="#DejaVuSans-61"/>
     <use x="1433.789062" xlink:href="#DejaVuSans-32"/>
     <use x="1465.576172" xlink:href="#DejaVuSans-70"/>
     <use x="1522.955078" xlink:href="#DejaVuSans-97"/>
     <use x="1584.234375" xlink:href="#DejaVuSans-108"/>
     <use x="1612.017578" xlink:href="#DejaVuSans-115"/>
     <use x="1664.117188" xlink:href="#DejaVuSans-101"/>
     <use x="1725.640625" xlink:href="#DejaVuSans-44"/>
     <use x="1757.427734" xlink:href="#DejaVuSans-32"/>
     <use x="1789.214844" xlink:href="#DejaVuSans-68"/>
     <use x="1866.216797" xlink:href="#DejaVuSans-101"/>
     <use x="1927.740234" xlink:href="#DejaVuSans-103"/>
     <use x="1991.216797" xlink:href="#DejaVuSans-114"/>
     <use x="2032.298828" xlink:href="#DejaVuSans-101"/>
     <use x="2093.822266" xlink:href="#DejaVuSans-101"/>
     <use x="2155.345703" xlink:href="#DejaVuSans-32"/>
     <use x="2187.132812" xlink:href="#DejaVuSans-61"/>
     <use x="2270.921875" xlink:href="#DejaVuSans-32"/>
     <use x="2302.708984" xlink:href="#DejaVuSans-50"/>
     <use x="2366.332031" xlink:href="#DejaVuSans-44"/>
     <use x="2398.119141" xlink:href="#DejaVuSans-32"/>
     <use x="2429.90625" xlink:href="#DejaVuSans-68"/>
     <use x="2506.908203" xlink:href="#DejaVuSans-117"/>
     <use x="2570.287109" xlink:href="#DejaVuSans-114"/>
     <use x="2611.400391" xlink:href="#DejaVuSans-97"/>
     <use x="2672.679688" xlink:href="#DejaVuSans-116"/>
     <use x="2711.888672" xlink:href="#DejaVuSans-105"/>
     <use x="2739.671875" xlink:href="#DejaVuSans-111"/>
     <use x="2800.853516" xlink:href="#DejaVuSans-110"/>
     <use x="2864.232422" xlink:href="#DejaVuSans-32"/>
     <use x="2896.019531" xlink:href="#DejaVuSans-61"/>
     <use x="2979.808594" xlink:href="#DejaVuSans-32"/>
     <use x="3011.595703" xlink:href="#DejaVuSans-48"/>
     <use x="3075.21875" xlink:href="#DejaVuSans-46"/>
     <use x="3107.005859" xlink:href="#DejaVuSans-49"/>
    </g>
   </g>
  </g>
 </g>
 <defs>
  <clipPath id="p9e5ff2e787">
   <rect height="266.112" width="357.12" x="57.6" y="41.472"/>
  </clipPath>
 </defs>
</svg>
