<?xml version="1.0" encoding="utf-8" standalone="no"?>
<!DOCTYPE svg PUBLIC "-//W3C//DTD SVG 1.1//EN"
  "http://www.w3.org/Graphics/SVG/1.1/DTD/svg11.dtd">
<!-- Created with matplotlib (https://matplotlib.org/) -->
<svg height="345.6pt" version="1.1" viewBox="0 0 460.8 345.6" width="460.8pt" xmlns="http://www.w3.org/2000/svg" xmlns:xlink="http://www.w3.org/1999/xlink">
 <defs>
  <style type="text/css">
*{stroke-linecap:butt;stroke-linejoin:round;}
  </style>
 </defs>
 <g id="figure_1">
  <g id="patch_1">
   <path d="M 0 345.6 
L 460.8 345.6 
L 460.8 0 
L 0 0 
z
" style="fill:#ffffff;"/>
  </g>
  <g id="axes_1">
   <g id="patch_2">
    <path d="M 57.6 307.584 
L 414.72 307.584 
L 414.72 41.472 
L 57.6 41.472 
z
" style="fill:#ffffff;"/>
   </g>
   <g id="line2d_1">
    <path clip-path="url(#p8ba1d87660)" d="M 398.487273 55.872284 
L 398.229862 55.706918 
L 397.969459 55.21353 
L 397.969459 55.21353 
L 398.05626 54.554776 
L 398.229862 54.720142 
L 398.400472 54.720142 
L 398.487273 54.554776 
L 398.400472 54.554776 
L 397.798849 55.048164 
L 397.625247 55.21353 
L 397.625247 55.048164 
L 397.454637 55.21353 
L 397.454637 55.541551 
L 397.712048 55.541551 
L 397.969459 55.21353 
L 397.88565 54.39212 
L 397.712048 54.226754 
L 397.625247 54.39212 
L 397.798849 54.554776 
L 397.969459 54.39212 
L 397.88565 54.226754 
L 397.454637 54.226754 
L 397.625247 54.226754 
L 397.625247 53.898733 
L 397.625247 54.554776 
L 397.541439 54.39212 
L 397.454637 54.554776 
L 397.197227 54.226754 
L 397.281035 53.733366 
L 397.367836 53.568 
L 397.367836 53.898733 
L 397.023624 54.554776 
L 397.197227 54.39212 
L 397.367836 54.39212 
L 397.367836 54.39212 
L 397.454637 54.061388 
L 397.367836 54.39212 
L 397.110426 54.554776 
L 396.936823 54.226754 
L 397.023624 54.061388 
L 397.197227 54.226754 
L 397.023624 53.898733 
L 397.110426 54.061388 
L 396.766214 55.541551 
L 396.936823 55.541551 
L 397.110426 55.378896 
L 397.281035 55.541551 
L 397.281035 55.541551 
L 397.110426 56.034939 
L 396.936823 55.541551 
L 396.766214 56.693693 
L 396.592611 56.85906 
L 396.679413 56.200306 
L 396.936823 55.872284 
L 396.936823 55.872284 
L 396.853015 56.365672 
L 396.936823 56.365672 
L 396.936823 56.365672 
L 396.853015 56.034939 
L 396.766214 56.200306 
L 396.853015 56.693693 
L 396.853015 56.528327 
L 397.281035 57.352448 
L 397.023624 56.693693 
L 397.110426 56.693693 
L 397.110426 57.515103 
L 396.853015 57.680469 
L 396.936823 57.680469 
L 396.936823 57.845835 
L 396.936823 57.845835 
L 397.367836 57.515103 
L 397.281035 57.680469 
L 396.853015 58.501879 
L 397.023624 58.339223 
L 397.023624 58.501879 
L 396.936823 58.008491 
L 396.936823 58.173857 
L 396.853015 58.832611 
L 396.936823 58.832611 
L 396.936823 58.667245 
L 396.936823 58.995267 
L 397.197227 59.325999 
L 397.367836 59.325999 
L 397.023624 58.501879 
L 397.023624 58.667245 
L 397.023624 58.832611 
L 396.936823 58.832611 
L 396.853015 58.995267 
L 396.853015 59.654021 
L 396.936823 59.160633 
L 397.110426 58.832611 
L 397.023624 58.995267 
L 397.281035 59.325999 
L 397.281035 59.325999 
L 397.197227 58.995267 
L 397.023624 59.160633 
L 397.023624 59.654021 
L 397.110426 59.488654 
L 397.281035 58.995267 
L 397.110426 58.667245 
L 397.023624 58.832611 
L 397.110426 59.160633 
L 397.110426 58.995267 
L 396.936823 58.995267 
L 396.936823 58.995267 
L 396.766214 58.501879 
L 396.766214 58.173857 
L 397.110426 58.008491 
L 396.592611 58.173857 
L 396.679413 58.173857 
L 396.936823 58.501879 
L 396.853015 58.501879 
L 396.679413 58.339223 
L 396.679413 57.845835 
L 396.50581 58.173857 
L 396.50581 58.501879 
L 396.592611 58.501879 
L 396.936823 57.680469 
L 396.766214 57.515103 
L 396.679413 57.680469 
L 397.023624 58.339223 
L 396.936823 58.832611 
L 396.766214 58.995267 
L 396.592611 58.667245 
L 396.335201 58.667245 
L 395.990989 58.995267 
L 395.473175 59.654021 
L 394.356732 59.819387 
L 392.719481 59.819387 
L 385.577835 60.968818 
L 382.393128 61.299551 
L 374.646867 61.627572 
L 369.824909 61.627572 
L 364.661733 61.955594 
L 359.324954 62.779714 
L 348.136575 65.574675 
L 342.284975 67.220205 
L 336.603985 69.193756 
L 331.354007 71.329963 
L 326.104029 73.796903 
L 321.024661 76.594574 
L 316.118895 79.882923 
L 300.45277 91.065478 
L 295.118985 94.519193 
L 283.927613 100.767869 
L 278.333423 104.058929 
L 272.739234 107.512644 
L 267.231846 110.635626 
L 262.152478 113.267932 
L 257.246712 115.569505 
L 246.833558 120.834116 
L 241.754189 122.807668 
L 236.935225 124.450487 
L 232.200068 126.261383 
L 213.783242 134.48361 
L 210.080721 136.457162 
L 203.109685 140.732286 
L 196.913873 144.186002 
L 194.588199 146.159553 
L 192.696531 148.133104 
L 191.232882 149.94129 
L 190.284055 151.58682 
L 189.338221 152.901617 
L 188.562996 154.381781 
L 188.048175 156.355332 
L 187.530361 161.126555 
L 187.874573 163.75615 
L 188.048175 164.58027 
L 187.961374 165.729701 
L 187.790765 165.40168 
L 187.446553 165.895068 
L 187.102341 166.223089 
L 186.584527 166.388456 
L 186.153514 166.716477 
L 185.638693 166.716477 
L 185.20768 167.04721 
L 183.657231 169.183417 
L 183.229211 170.170192 
L 182.453986 172.474476 
L 181.765563 173.789274 
L 180.903537 174.282662 
L 180.816735 174.117295 
L 180.816735 173.789274 
L 180.732927 173.95464 
L 180.559325 174.610683 
L 180.903537 174.282662 
L 180.732927 174.610683 
L 179.957703 175.597459 
L 179.52669 175.597459 
L 179.7841 175.928191 
L 179.095677 178.395131 
L 178.925067 178.395131 
L 178.751465 178.723152 
L 178.925067 179.21654 
L 178.838266 179.051174 
L 178.580855 179.051174 
L 178.236644 179.381906 
L 178.063041 179.21654 
L 177.805631 178.557786 
L 177.892432 178.064398 
L 178.063041 178.064398 
L 178.149842 178.229764 
L 177.805631 177.736377 
L 177.287817 177.242989 
L 177.204008 177.408355 
L 177.461419 176.914967 
L 177.461419 175.434804 
L 177.632028 175.434804 
L 177.805631 175.762825 
L 177.805631 175.762825 
L 177.632028 175.762825 
L 177.287817 174.941416 
L 177.718829 174.941416 
L 177.892432 175.434804 
L 178.320452 175.597459 
L 178.751465 176.090847 
L 179.269279 176.914967 
L 179.870901 177.57101 
L 180.646126 178.064398 
L 181.59196 179.051174 
L 183.39982 181.355458 
L 184.519257 182.670255 
L 187.359752 186.289337 
L 192.091915 192.20728 
L 191.663895 191.713892 
L 190.80187 191.220504 
L 189.769234 190.892483 
L 188.562996 191.713892 
L 187.272951 193.194056 
L 185.638693 194.839586 
L 183.830833 196.485116 
L 182.022973 198.458667 
L 180.301914 200.101486 
L 179.011868 201.58165 
L 177.892432 203.392546 
L 176.515585 205.035365 
L 172.037839 208.982468 
L 170.918402 209.641222 
L 169.801959 210.462631 
L 168.50892 211.614773 
L 167.218874 213.094937 
L 165.240405 215.561876 
L 163.432545 216.383286 
L 162.65732 216.383286 
L 159.730024 215.561876 
L 158.954799 215.561876 
L 158.182567 215.39651 
L 157.407343 215.561876 
L 153.965225 215.068488 
L 152.845788 214.5751 
L 151.555743 214.409734 
L 150.262704 214.740467 
L 148.972658 215.39651 
L 147.853221 216.548652 
L 145.70115 218.194182 
L 143.72268 220.330389 
L 142.603244 222.30394 
L 142.001621 223.94947 
L 141.139595 226.416409 
L 140.882185 227.896573 
L 140.882185 228.883349 
L 141.226397 230.035491 
L 141.397006 230.035491 
L 141.052794 230.035491 
L 140.882185 230.363512 
L 140.795384 231.515654 
L 140.193761 232.171697 
L 139.84955 232.171697 
L 139.505338 232.665085 
L 139.161126 234.145249 
L 138.816914 234.638637 
L 137.266465 236.449533 
L 136.407432 237.76433 
L 135.458605 238.092352 
L 134.943784 238.58574 
L 133.566937 240.724658 
L 133.222725 240.559291 
L 132.878513 240.23127 
L 132.360699 240.065903 
L 131.241262 241.052679 
L 129.951217 241.380701 
L 129.089191 241.380701 
L 128.316959 241.546067 
L 127.712344 242.039455 
L 127.110721 242.039455 
L 126.592907 242.204821 
L 126.335497 242.698209 
L 126.248695 243.191597 
L 125.991285 243.519618 
L 124.95865 244.178373 
L 124.527637 244.178373 
L 123.926014 244.506394 
L 123.755405 244.999782 
L 123.237591 245.821192 
L 122.98018 246.314579 
L 122.291757 246.973334 
L 121.947545 247.1387 
L 121.259121 248.781519 
L 120.654506 249.768294 
L 120.226486 249.933661 
L 119.882274 249.933661 
L 119.451261 250.592415 
L 118.933447 251.741846 
L 118.074414 252.728622 
L 117.469799 254.04613 
L 116.868177 255.195561 
L 116.437164 257.169113 
L 116.179753 257.334479 
L 115.404528 258.814642 
L 114.889707 259.30803 
L 114.716105 259.636052 
L 114.629304 260.788194 
L 114.716105 260.788194 
L 114.716105 260.788194 
L 114.285092 261.77497 
L 114.285092 261.77497 
L 114.201284 261.446948 
L 113.857072 262.102991 
L 113.857072 262.102991 
L 113.94088 262.433724 
L 113.081847 264.241909 
L 113.168649 264.735297 
L 113.252457 264.900663 
L 112.737636 265.722073 
L 112.650834 266.380827 
L 112.737636 266.708848 
L 112.908245 266.874215 
L 112.908245 266.874215 
L 112.824437 267.03687 
L 112.650834 267.03687 
L 112.480225 267.367602 
L 112.564033 268.6824 
L 112.480225 269.010421 
L 112.136013 269.341154 
L 112.049212 269.175788 
L 111.962411 269.503809 
L 112.136013 270.32793 
L 112.049212 270.32793 
L 111.962411 270.490585 
L 111.705 270.32793 
L 111.618199 270.490585 
L 111.705 272.629503 
L 111.618199 270.983973 
L 111.444597 270.821317 
L 111.444597 270.821317 
L 111.444597 272.136115 
L 111.360789 272.136115 
L 111.273987 272.136115 
L 111.100385 271.970749 
L 111.100385 271.808093 
L 111.100385 271.808093 
L 111.273987 271.808093 
L 111.531398 271.477361 
L 111.531398 271.149339 
L 111.360789 271.314705 
L 111.273987 272.464136 
L 111.531398 272.301481 
L 112.136013 272.464136 
L 113.081847 272.464136 
L 114.201284 272.136115 
L 115.835541 271.808093 
L 118.074414 271.808093 
L 127.972747 271.314705 
L 132.360699 271.314705 
L 142.516442 271.642727 
L 159.903626 272.629503 
L 166.186239 273.450912 
L 172.382051 274.437688 
L 178.494054 275.58983 
L 184.432455 276.576606 
L 190.544459 278.056769 
L 196.48286 279.208911 
L 202.163851 280.195687 
L 212.921217 282.49726 
L 222.906351 285.292221 
L 231.772048 287.593794 
L 239.51831 290.391466 
L 246.145134 291.378242 
L 249.069438 292.199651 
L 251.826125 292.858405 
L 256.387679 293.186427 
L 258.195539 293.514449 
L 260.431419 294.501224 
L 261.119842 294.173203 
L 261.464054 293.514449 
L 261.293445 293.021061 
L 260.862432 292.858405 
L 259.228174 292.858405 
L 258.366148 292.693039 
L 257.590923 292.365017 
L 255.09464 291.87163 
L 254.406216 291.87163 
L 254.235607 292.034285 
L 254.493018 292.034285 
L 254.837229 291.87163 
L 255.612454 292.693039 
L 256.043467 293.186427 
L 256.300878 293.186427 
L 256.558288 293.351793 
L 256.815699 293.679815 
L 257.076102 293.514449 
L 257.333513 292.858405 
L 257.590923 293.186427 
L 257.420314 293.514449 
L 257.420314 293.514449 
L 257.677725 293.845181 
L 257.677725 294.501224 
L 257.420314 294.501224 
L 256.9025 293.679815 
L 256.558288 294.007836 
L 256.387679 293.845181 
L 256.214076 293.845181 
L 256.471487 293.845181 
L 256.731891 294.173203 
L 257.15991 294.994612 
L 257.076102 295.159978 
L 256.9025 295.159978 
L 257.246712 295.159978 
L 257.420314 294.994612 
L 256.989301 294.501224 
L 256.9025 294.173203 
L 256.989301 294.007836 
L 257.076102 294.338569 
L 256.989301 294.994612 
L 256.989301 294.501224 
L 256.9025 294.173203 
L 256.9025 294.173203 
L 257.076102 294.173203 
L 257.15991 294.007836 
L 256.9025 294.501224 
L 256.815699 294.994612 
L 256.9025 294.994612 
L 257.076102 294.831957 
L 256.989301 294.501224 
L 257.15991 294.831957 
L 257.333513 293.845181 
L 257.246712 293.845181 
L 256.989301 294.173203 
L 256.989301 294.501224 
L 257.076102 294.501224 
L 257.420314 294.831957 
L 257.504122 294.666591 
L 257.504122 294.173203 
L 257.333513 294.173203 
L 257.076102 294.831957 
L 256.989301 294.831957 
L 257.246712 294.173203 
L 257.15991 294.666591 
L 257.246712 294.994612 
L 257.420314 294.994612 
L 257.504122 294.831957 
L 257.590923 295.488 
L 257.677725 295.325345 
L 257.590923 294.994612 
L 257.504122 294.501224 
L 257.420314 294.338569 
L 257.420314 294.501224 
L 257.333513 294.501224 
L 256.989301 293.679815 
L 257.15991 293.351793 
L 257.420314 293.514449 
L 257.333513 294.173203 
L 257.504122 294.007836 
L 257.677725 294.007836 
L 257.677725 293.679815 
L 257.590923 293.679815 
L 257.504122 293.514449 
L 257.677725 294.007836 
L 257.590923 294.173203 
L 257.677725 294.338569 
L 258.021936 294.338569 
L 258.021936 294.173203 
L 257.590923 293.186427 
L 257.935135 293.351793 
L 257.848334 293.679815 
L 257.764526 293.351793 
L 258.021936 293.021061 
L 258.623559 293.021061 
L 258.539751 293.186427 
L 258.279347 293.021061 
L 258.108738 292.693039 
L 258.195539 293.021061 
L 258.366148 293.845181 
L 258.366148 294.173203 
L 257.935135 293.186427 
L 258.021936 293.351793 
L 258.195539 293.021061 
L 258.279347 293.514449 
L 258.279347 293.514449 
L 258.108738 293.679815 
L 258.108738 294.338569 
L 258.279347 294.338569 
L 258.366148 294.501224 
L 258.108738 294.173203 
L 258.366148 293.845181 
L 258.539751 293.845181 
L 258.195539 294.501224 
L 258.108738 294.338569 
L 258.366148 293.186427 
L 258.279347 293.679815 
L 258.366148 293.845181 
L 258.623559 293.679815 
L 258.883962 293.679815 
L 258.797161 293.514449 
L 258.539751 293.514449 
L 258.452949 293.186427 
L 258.452949 293.514449 
L 258.366148 293.514449 
L 258.452949 292.858405 
L 258.71036 292.527673 
L 258.71036 293.514449 
L 258.623559 293.021061 
L 258.539751 292.858405 
L 258.539751 293.021061 
L 258.452949 293.021061 
L 258.623559 292.858405 
L 258.71036 292.858405 
L 258.623559 292.527673 
L 258.623559 292.693039 
L 258.452949 293.351793 
L 258.366148 291.047509 
L 258.366148 291.047509 
L 258.195539 291.212875 
L 258.195539 291.706263 
L 258.279347 291.540897 
L 258.623559 291.212875 
L 258.539751 290.884854 
L 258.366148 290.884854 
L 258.366148 291.047509 
L 258.539751 291.047509 
L 258.797161 290.884854 
L 258.797161 290.719488 
L 258.71036 290.719488 
L 258.452949 290.719488 
L 258.279347 290.554121 
L 258.539751 290.554121 
L 258.108738 290.2261 
L 258.021936 290.2261 
L 258.021936 290.060733 
L 258.021936 290.060733 
L 258.452949 290.060733 
L 258.539751 290.391466 
L 258.452949 290.2261 
L 258.279347 290.2261 
L 258.195539 290.391466 
L 258.108738 290.2261 
L 257.935135 289.073958 
L 257.848334 289.239324 
L 257.677725 290.2261 
L 257.848334 289.567346 
L 258.195539 288.911302 
L 258.279347 289.073958 
L 258.195539 289.40469 
L 258.021936 289.567346 
L 257.848334 289.40469 
L 257.677725 288.911302 
L 257.764526 289.239324 
L 257.677725 289.239324 
L 257.333513 288.745936 
L 256.731891 288.087182 
L 256.043467 287.75916 
L 255.010832 287.593794 
L 253.804594 286.937751 
L 252.254145 285.785609 
L 250.275675 284.964199 
L 247.866193 284.305445 
L 245.025698 283.649402 
L 242.0116 282.662626 
L 235.214166 281.182463 
L 231.341035 280.195687 
L 227.381104 278.878179 
L 223.337364 277.728748 
L 218.946419 277.069994 
L 214.298064 276.741972 
L 195.707635 271.477361 
L 190.888671 270.162563 
L 185.982905 269.010421 
L 176.171373 266.380827 
L 166.530451 264.407275 
L 156.97633 261.77497 
L 152.157365 260.622828 
L 147.422208 259.636052 
L 142.860654 258.814642 
L 138.556511 257.827867 
L 134.68338 256.675725 
L 131.070653 255.854315 
L 127.628536 255.195561 
L 124.270226 254.208785 
L 118.502434 251.741846 
L 116.092952 251.248458 
L 113.94088 250.592415 
L 112.136013 249.605639 
L 110.498763 248.946885 
L 109.379326 248.618863 
L 108.690903 248.288131 
L 108.433492 247.794743 
L 108.520293 247.301355 
L 108.951306 247.301355 
L 109.295518 247.632088 
L 109.810339 247.794743 
L 111.360789 247.466721 
L 112.650834 247.466721 
L 112.908245 247.960109 
L 112.219821 249.112251 
L 111.791802 249.274907 
L 111.016577 250.427049 
L 110.585564 250.592415 
L 110.241352 250.920436 
L 110.06775 250.920436 
L 110.06775 250.75507 
L 109.983941 250.75507 
L 109.810339 251.248458 
L 109.466127 251.579191 
L 109.379326 251.579191 
L 109.466127 250.920436 
L 109.552928 250.592415 
L 109.723538 250.592415 
L 110.06775 251.085803 
L 110.411961 251.085803 
L 110.756173 251.248458 
L 110.756173 251.085803 
L 110.585564 250.920436 
L 110.672365 250.75507 
L 110.842974 251.085803 
L 110.756173 251.085803 
L 110.585564 250.920436 
L 110.411961 251.085803 
L 110.241352 251.579191 
L 110.06775 251.413824 
L 109.89714 250.592415 
L 109.983941 250.592415 
L 110.06775 250.427049 
L 110.06775 250.427049 
L 109.63973 251.741846 
L 109.466127 251.741846 
L 109.466127 251.579191 
L 109.63973 251.741846 
L 109.810339 251.741846 
L 109.983941 251.579191 
L 109.89714 251.579191 
L 109.810339 251.579191 
L 109.89714 251.907212 
L 109.723538 251.579191 
L 109.983941 251.579191 
L 110.328153 251.413824 
L 110.06775 251.741846 
L 109.89714 251.741846 
L 109.723538 251.413824 
L 109.466127 251.579191 
L 109.552928 251.907212 
L 109.810339 252.072578 
L 109.810339 251.741846 
L 109.552928 251.413824 
L 109.552928 251.741846 
L 109.63973 251.741846 
L 109.983941 251.248458 
L 109.723538 252.565966 
L 109.63973 252.235234 
L 109.63973 251.085803 
L 109.723538 251.085803 
L 109.89714 251.085803 
L 109.89714 250.75507 
L 109.983941 250.920436 
L 110.154551 251.413824 
L 110.06775 251.413824 
L 109.983941 251.579191 
L 109.983941 252.072578 
L 110.154551 252.235234 
L 110.328153 252.072578 
L 110.328153 251.907212 
L 110.241352 252.072578 
L 110.154551 252.893988 
L 110.154551 252.565966 
L 109.983941 252.072578 
L 109.983941 251.907212 
L 110.328153 252.235234 
L 110.154551 252.072578 
L 110.06775 252.235234 
L 110.154551 252.893988 
L 110.328153 252.728622 
L 110.498763 252.4006 
L 110.585564 253.387376 
L 110.411961 253.387376 
L 110.241352 253.059354 
L 110.06775 253.059354 
L 110.06775 252.893988 
L 110.154551 253.552742 
L 110.241352 253.715397 
L 110.241352 253.387376 
L 110.06775 253.059354 
L 109.89714 253.059354 
L 109.810339 253.387376 
L 110.241352 254.539518 
L 110.411961 254.702173 
L 110.585564 254.374152 
L 110.498763 253.715397 
L 110.498763 253.715397 
L 110.411961 253.715397 
L 110.328153 253.387376 
L 110.411961 254.04613 
L 110.498763 253.880764 
L 110.411961 254.208785 
L 110.154551 254.539518 
L 109.63973 254.374152 
L 107.918671 253.22201 
L 106.625632 252.893988 
L 105.078176 252.728622 
L 103.183514 252.728622 
L 96.038875 253.22201 
L 93.716194 253.059354 
L 89.32525 253.059354 
L 87.51739 252.728622 
L 85.969933 252.072578 
L 84.335676 251.907212 
L 82.785226 252.4006 
L 81.234777 252.728622 
L 79.771128 252.235234 
L 76.415812 250.427049 
L 75.640587 250.261682 
L 74.865363 249.768294 
L 74.093131 249.605639 
L 73.832727 249.605639 
L 73.832727 249.605639 
L 73.919528 250.099027 
L 74.093131 250.261682 
L 74.26374 250.261682 
L 74.521151 250.099027 
L 74.781554 250.592415 
L 75.125766 250.920436 
L 75.469978 250.75507 
L 75.640587 250.261682 
L 75.553786 249.933661 
L 75.640587 250.099027 
L 75.81419 250.427049 
L 75.81419 250.261682 
L 75.81419 250.099027 
L 75.640587 249.933661 
L 75.469978 250.099027 
L 75.469978 250.261682 
L 75.383177 249.933661 
L 75.296376 250.099027 
L 75.125766 250.099027 
L 75.125766 250.099027 
L 74.952164 250.592415 
L 74.952164 251.248458 
L 75.209574 250.920436 
L 75.296376 250.920436 
L 75.469978 250.592415 
L 75.469978 250.592415 
L 75.469978 251.579191 
L 75.383177 250.920436 
L 74.781554 250.592415 
L 75.125766 250.75507 
L 75.383177 251.085803 
L 75.553786 251.741846 
L 75.469978 252.072578 
L 75.296376 251.741846 
L 75.296376 251.907212 
L 75.296376 252.072578 
L 75.296376 252.072578 
L 75.038965 252.235234 
L 74.952164 252.565966 
L 75.038965 251.907212 
L 75.038965 252.072578 
L 75.296376 252.072578 
L 75.038965 253.059354 
L 75.125766 253.059354 
L 75.038965 252.728622 
L 75.125766 252.728622 
L 75.296376 252.728622 
L 75.640587 252.4006 
L 75.469978 252.235234 
L 75.209574 252.235234 
L 75.296376 252.4006 
L 74.952164 253.22201 
L 74.952164 253.387376 
L 75.296376 253.387376 
L 74.952164 253.059354 
L 75.038965 253.059354 
L 75.038965 252.893988 
L 75.038965 253.059354 
L 75.469978 253.552742 
L 75.469978 253.387376 
L 75.383177 253.059354 
L 75.209574 253.22201 
L 74.952164 253.552742 
L 75.125766 253.552742 
L 75.296376 253.715397 
L 75.038965 253.552742 
L 74.865363 253.715397 
L 75.038965 254.04613 
L 74.952164 253.387376 
L 74.865363 253.552742 
L 74.781554 253.552742 
L 74.781554 253.552742 
L 74.952164 253.880764 
L 74.952164 253.880764 
L 75.038965 253.715397 
L 75.038965 253.387376 
L 75.038965 253.552742 
L 74.865363 253.552742 
L 74.781554 253.715397 
L 74.607952 253.715397 
L 74.521151 254.208785 
L 74.781554 254.374152 
L 74.865363 254.208785 
L 74.865363 253.387376 
L 74.607952 253.715397 
L 74.437343 254.208785 
L 74.607952 254.539518 
L 74.952164 254.539518 
L 74.781554 254.539518 
L 74.694753 254.374152 
L 74.607952 254.539518 
L 74.607952 255.032906 
L 74.607952 254.04613 
L 74.521151 254.04613 
L 74.437343 254.208785 
L 74.781554 253.552742 
L 74.865363 253.880764 
L 74.781554 255.032906 
L 74.952164 254.867539 
L 74.781554 254.04613 
L 74.521151 253.715397 
L 74.26374 253.880764 
L 74.350541 254.867539 
L 74.694753 254.374152 
L 74.521151 254.702173 
L 74.521151 254.867539 
L 74.350541 254.702173 
L 74.26374 254.208785 
L 74.350541 253.880764 
L 74.607952 254.04613 
L 75.038965 254.867539 
L 75.125766 254.374152 
L 74.865363 254.374152 
L 74.694753 254.702173 
L 74.607952 254.374152 
L 74.694753 253.880764 
L 74.521151 254.374152 
L 74.694753 254.208785 
L 74.694753 253.880764 
L 74.781554 254.867539 
L 74.781554 254.702173 
L 74.865363 254.208785 
L 74.865363 254.208785 
L 74.952164 254.374152 
L 74.865363 254.374152 
L 74.781554 254.539518 
L 74.521151 254.539518 
L 74.350541 254.374152 
L 74.350541 254.374152 
L 74.781554 253.552742 
L 74.607952 254.04613 
L 74.781554 254.702173 
L 74.607952 254.208785 
L 74.865363 253.22201 
L 74.952164 252.893988 
L 74.694753 253.552742 
L 74.694753 253.059354 
L 74.952164 252.728622 
L 75.469978 252.893988 
L 76.502613 253.387376 
L 79.85793 254.04613 
L 82.611624 253.880764 
L 85.883132 253.387376 
L 89.585653 252.565966 
L 93.629393 251.907212 
L 98.277749 251.741846 
L 109.552928 252.072578 
L 115.74874 251.579191 
L 122.204956 250.920436 
L 128.744979 250.75507 
L 135.201194 251.248458 
L 141.741218 251.907212 
L 148.628446 252.072578 
L 155.599483 252.728622 
L 169.113536 254.702173 
L 175.910969 255.526294 
L 182.711397 256.675725 
L 189.338221 258.155888 
L 195.620834 259.801418 
L 201.732838 261.609603 
L 213.60964 264.407275 
L 224.798019 267.530258 
L 244.337274 272.464136 
L 247.866193 273.450912 
L 251.308311 274.275033 
L 254.750428 274.76842 
L 258.108738 275.096442 
L 261.293445 275.261808 
L 264.391351 275.58983 
L 271.880201 276.904627 
L 273.858671 276.904627 
L 275.666531 277.23536 
L 278.677635 277.23536 
L 278.677635 277.398015 
L 278.333423 277.891403 
L 277.731801 278.222136 
L 276.699166 278.222136 
L 275.666531 277.891403 
L 274.460293 277.069994 
L 273.945472 277.069994 
L 272.996645 278.056769 
L 272.912836 278.056769 
L 272.996645 278.056769 
L 273.340856 278.715523 
L 273.771869 278.878179 
L 274.547094 279.702299 
L 274.891306 279.702299 
L 275.148716 279.371567 
L 275.322319 279.536933 
L 275.235518 279.864954 
L 274.978107 280.030321 
L 274.720697 280.030321 
L 274.891306 279.702299 
L 275.064908 279.702299 
L 274.891306 279.864954 
L 274.633895 279.864954 
L 274.289684 279.536933 
L 274.376485 279.864954 
L 274.202882 279.208911 
L 274.202882 279.043545 
L 274.116081 279.208911 
L 274.032273 279.371567 
L 274.032273 280.195687 
L 274.376485 279.864954 
L 274.289684 279.371567 
L 274.460293 280.030321 
L 274.547094 280.030321 
L 274.547094 280.195687 
L 274.289684 280.85173 
L 274.289684 280.523709 
L 274.202882 280.523709 
L 273.945472 280.195687 
L 274.116081 279.864954 
L 274.032273 279.864954 
L 274.202882 280.358342 
L 274.032273 280.689075 
L 273.514459 281.017096 
L 273.60126 280.85173 
L 274.116081 280.358342 
L 274.116081 281.017096 
L 273.945472 281.017096 
L 273.771869 280.358342 
L 273.771869 280.689075 
L 273.945472 281.345118 
L 274.032273 281.345118 
L 274.202882 280.85173 
L 274.032273 281.017096 
L 274.116081 281.345118 
L 274.032273 281.182463 
L 273.685068 281.510484 
L 273.685068 281.510484 
L 273.771869 281.182463 
L 273.945472 281.017096 
L 273.771869 281.675851 
L 273.685068 281.182463 
L 273.771869 280.689075 
L 273.60126 281.510484 
L 273.771869 281.675851 
L 273.945472 281.510484 
L 273.945472 281.182463 
L 273.685068 280.85173 
L 273.60126 281.182463 
L 273.771869 281.345118 
L 273.945472 281.345118 
L 274.116081 281.182463 
L 274.289684 281.182463 
L 274.202882 281.675851 
L 273.945472 282.331894 
L 273.858671 282.003872 
L 273.771869 280.85173 
L 273.771869 281.017096 
L 273.685068 281.017096 
L 273.685068 281.675851 
L 273.858671 282.003872 
L 274.116081 281.675851 
L 273.945472 282.003872 
L 273.858671 282.169238 
L 273.945472 281.838506 
L 273.858671 281.345118 
L 273.858671 281.345118 
L 274.032273 281.182463 
L 273.60126 282.003872 
L 273.60126 282.331894 
L 273.685068 281.510484 
L 273.858671 281.510484 
L 274.032273 281.675851 
L 274.032273 281.182463 
L 273.945472 281.345118 
L 273.771869 281.510484 
L 273.60126 281.345118 
L 273.858671 281.510484 
L 273.945472 281.182463 
L 273.945472 280.523709 
L 273.858671 281.182463 
L 273.685068 282.003872 
L 273.60126 281.182463 
L 273.60126 281.345118 
L 273.514459 282.169238 
L 273.60126 282.49726 
L 273.771869 281.182463 
L 273.771869 281.838506 
L 273.945472 281.838506 
L 273.858671 281.838506 
L 274.032273 281.675851 
L 273.858671 282.003872 
L 273.771869 281.838506 
L 273.514459 281.838506 
L 273.170247 281.510484 
L 273.257048 281.510484 
L 273.514459 281.510484 
L 273.60126 281.675851 
L 273.685068 282.169238 
L 273.60126 281.838506 
L 273.427658 281.675851 
L 273.427658 281.510484 
L 273.685068 281.345118 
L 273.60126 281.345118 
L 273.340856 281.345118 
L 273.60126 281.345118 
L 273.858671 282.169238 
L 273.945472 282.169238 
L 274.116081 282.003872 
L 274.116081 281.838506 
L 273.685068 281.345118 
L 273.514459 281.510484 
L 273.514459 281.838506 
L 273.60126 281.838506 
L 273.685068 281.838506 
L 273.514459 282.169238 
L 273.60126 281.510484 
L 273.858671 282.49726 
L 273.514459 282.169238 
L 273.60126 282.169238 
L 273.685068 282.662626 
L 273.945472 282.662626 
L 273.60126 282.662626 
L 273.427658 282.49726 
L 273.340856 282.169238 
L 273.514459 281.838506 
L 273.685068 281.838506 
L 273.771869 282.003872 
L 273.858671 282.825282 
L 273.945472 282.825282 
L 274.032273 282.662626 
L 273.945472 282.662626 
L 273.858671 282.662626 
L 273.858671 282.662626 
L 273.858671 282.49726 
L 273.945472 282.49726 
L 274.032273 282.49726 
L 274.116081 282.331894 
L 274.116081 281.838506 
L 274.032273 281.838506 
L 273.858671 282.169238 
L 273.945472 281.838506 
L 273.945472 281.675851 
L 274.116081 281.838506 
L 274.289684 281.838506 
L 274.289684 281.510484 
L 273.945472 280.85173 
L 274.202882 281.345118 
L 274.116081 281.838506 
L 274.116081 281.017096 
L 273.945472 280.85173 
L 274.032273 281.182463 
L 274.202882 280.85173 
L 274.116081 280.523709 
L 273.60126 279.702299 
L 273.427658 279.864954 
L 273.858671 280.85173 
L 273.858671 280.85173 
L 274.116081 280.195687 
L 274.032273 280.195687 
L 273.858671 280.030321 
L 273.945472 279.864954 
L 273.60126 278.715523 
L 273.340856 278.550157 
L 268.521892 272.301481 
L 264.047139 265.556706 
L 258.108738 258.155888 
L 254.924031 253.715397 
L 251.395112 248.453497 
L 244.424075 237.270942 
L 237.279437 227.075163 
L 234.007928 221.810552 
L 231.167433 216.055264 
L 228.50054 210.299976 
L 225.917455 205.035365 
L 218.859618 188.918931 
L 216.536937 184.150419 
L 214.127454 179.544562 
L 211.888581 174.610683 
L 209.823311 169.676804 
L 207.75804 165.073658 
L 205.519167 160.795823 
L 198.892342 148.954514 
L 197.171284 145.172777 
L 194.243987 137.771959 
L 193.124551 134.318244 
L 192.436127 131.195262 
L 191.05928 120.996772 
L 190.715068 116.721647 
L 190.628267 114.913462 
L 190.888671 110.800993 
L 190.975472 110.966359 
L 191.146081 111.953135 
L 190.975472 112.11579 
L 190.888671 114.420074 
L 190.544459 114.913462 
L 190.544459 114.913462 
L 190.457658 114.913462 
L 190.113446 115.734871 
L 190.026645 116.062893 
L 189.939844 115.900238 
L 189.856035 115.40685 
L 190.026645 114.913462 
L 189.769234 113.76132 
L 189.856035 113.595954 
L 189.856035 113.76132 
" style="fill:none;stroke:#1f77b4;stroke-linecap:square;stroke-width:1.5;"/>
   </g>
   <g id="matplotlib.axis_1">
    <g id="xtick_1">
     <g id="line2d_2">
      <defs>
       <path d="M 0 0 
L 0 3.5 
" id="m6d056e929d" style="stroke:#000000;stroke-width:0.8;"/>
      </defs>
      <g>
       <use style="stroke:#000000;stroke-width:0.8;" x="68.286428" xlink:href="#m6d056e929d" y="307.584"/>
      </g>
     </g>
     <g id="text_1">
      <!-- −400 -->
      <defs>
       <path d="M 10.59375 35.5 
L 73.1875 35.5 
L 73.1875 27.203125 
L 10.59375 27.203125 
z
" id="DejaVuSans-8722"/>
       <path d="M 37.796875 64.3125 
L 12.890625 25.390625 
L 37.796875 25.390625 
z
M 35.203125 72.90625 
L 47.609375 72.90625 
L 47.609375 25.390625 
L 58.015625 25.390625 
L 58.015625 17.1875 
L 47.609375 17.1875 
L 47.609375 0 
L 37.796875 0 
L 37.796875 17.1875 
L 4.890625 17.1875 
L 4.890625 26.703125 
z
" id="DejaVuSans-52"/>
       <path d="M 31.78125 66.40625 
Q 24.171875 66.40625 20.328125 58.90625 
Q 16.5 51.421875 16.5 36.375 
Q 16.5 21.390625 20.328125 13.890625 
Q 24.171875 6.390625 31.78125 6.390625 
Q 39.453125 6.390625 43.28125 13.890625 
Q 47.125 21.390625 47.125 36.375 
Q 47.125 51.421875 43.28125 58.90625 
Q 39.453125 66.40625 31.78125 66.40625 
z
M 31.78125 74.21875 
Q 44.046875 74.21875 50.515625 64.515625 
Q 56.984375 54.828125 56.984375 36.375 
Q 56.984375 17.96875 50.515625 8.265625 
Q 44.046875 -1.421875 31.78125 -1.421875 
Q 19.53125 -1.421875 13.0625 8.265625 
Q 6.59375 17.96875 6.59375 36.375 
Q 6.59375 54.828125 13.0625 64.515625 
Q 19.53125 74.21875 31.78125 74.21875 
z
" id="DejaVuSans-48"/>
      </defs>
      <g transform="translate(54.552834 322.182437)scale(0.1 -0.1)">
       <use xlink:href="#DejaVuSans-8722"/>
       <use x="83.789062" xlink:href="#DejaVuSans-52"/>
       <use x="147.412109" xlink:href="#DejaVuSans-48"/>
       <use x="211.035156" xlink:href="#DejaVuSans-48"/>
      </g>
     </g>
    </g>
    <g id="xtick_2">
     <g id="line2d_3">
      <g>
       <use style="stroke:#000000;stroke-width:0.8;" x="128.149343" xlink:href="#m6d056e929d" y="307.584"/>
      </g>
     </g>
     <g id="text_2">
      <!-- −200 -->
      <defs>
       <path d="M 19.1875 8.296875 
L 53.609375 8.296875 
L 53.609375 0 
L 7.328125 0 
L 7.328125 8.296875 
Q 12.9375 14.109375 22.625 23.890625 
Q 32.328125 33.6875 34.8125 36.53125 
Q 39.546875 41.84375 41.421875 45.53125 
Q 43.3125 49.21875 43.3125 52.78125 
Q 43.3125 58.59375 39.234375 62.25 
Q 35.15625 65.921875 28.609375 65.921875 
Q 23.96875 65.921875 18.8125 64.3125 
Q 13.671875 62.703125 7.8125 59.421875 
L 7.8125 69.390625 
Q 13.765625 71.78125 18.9375 73 
Q 24.125 74.21875 28.421875 74.21875 
Q 39.75 74.21875 46.484375 68.546875 
Q 53.21875 62.890625 53.21875 53.421875 
Q 53.21875 48.921875 51.53125 44.890625 
Q 49.859375 40.875 45.40625 35.40625 
Q 44.1875 33.984375 37.640625 27.21875 
Q 31.109375 20.453125 19.1875 8.296875 
z
" id="DejaVuSans-50"/>
      </defs>
      <g transform="translate(114.415749 322.182437)scale(0.1 -0.1)">
       <use xlink:href="#DejaVuSans-8722"/>
       <use x="83.789062" xlink:href="#DejaVuSans-50"/>
       <use x="147.412109" xlink:href="#DejaVuSans-48"/>
       <use x="211.035156" xlink:href="#DejaVuSans-48"/>
      </g>
     </g>
    </g>
    <g id="xtick_3">
     <g id="line2d_4">
      <g>
       <use style="stroke:#000000;stroke-width:0.8;" x="188.012258" xlink:href="#m6d056e929d" y="307.584"/>
      </g>
     </g>
     <g id="text_3">
      <!-- 0 -->
      <g transform="translate(184.831008 322.182437)scale(0.1 -0.1)">
       <use xlink:href="#DejaVuSans-48"/>
      </g>
     </g>
    </g>
    <g id="xtick_4">
     <g id="line2d_5">
      <g>
       <use style="stroke:#000000;stroke-width:0.8;" x="247.875172" xlink:href="#m6d056e929d" y="307.584"/>
      </g>
     </g>
     <g id="text_4">
      <!-- 200 -->
      <g transform="translate(238.331422 322.182437)scale(0.1 -0.1)">
       <use xlink:href="#DejaVuSans-50"/>
       <use x="63.623047" xlink:href="#DejaVuSans-48"/>
       <use x="127.246094" xlink:href="#DejaVuSans-48"/>
      </g>
     </g>
    </g>
    <g id="xtick_5">
     <g id="line2d_6">
      <g>
       <use style="stroke:#000000;stroke-width:0.8;" x="307.738087" xlink:href="#m6d056e929d" y="307.584"/>
      </g>
     </g>
     <g id="text_5">
      <!-- 400 -->
      <g transform="translate(298.194337 322.182437)scale(0.1 -0.1)">
       <use xlink:href="#DejaVuSans-52"/>
       <use x="63.623047" xlink:href="#DejaVuSans-48"/>
       <use x="127.246094" xlink:href="#DejaVuSans-48"/>
      </g>
     </g>
    </g>
    <g id="xtick_6">
     <g id="line2d_7">
      <g>
       <use style="stroke:#000000;stroke-width:0.8;" x="367.601002" xlink:href="#m6d056e929d" y="307.584"/>
      </g>
     </g>
     <g id="text_6">
      <!-- 600 -->
      <defs>
       <path d="M 33.015625 40.375 
Q 26.375 40.375 22.484375 35.828125 
Q 18.609375 31.296875 18.609375 23.390625 
Q 18.609375 15.53125 22.484375 10.953125 
Q 26.375 6.390625 33.015625 6.390625 
Q 39.65625 6.390625 43.53125 10.953125 
Q 47.40625 15.53125 47.40625 23.390625 
Q 47.40625 31.296875 43.53125 35.828125 
Q 39.65625 40.375 33.015625 40.375 
z
M 52.59375 71.296875 
L 52.59375 62.3125 
Q 48.875 64.0625 45.09375 64.984375 
Q 41.3125 65.921875 37.59375 65.921875 
Q 27.828125 65.921875 22.671875 59.328125 
Q 17.53125 52.734375 16.796875 39.40625 
Q 19.671875 43.65625 24.015625 45.921875 
Q 28.375 48.1875 33.59375 48.1875 
Q 44.578125 48.1875 50.953125 41.515625 
Q 57.328125 34.859375 57.328125 23.390625 
Q 57.328125 12.15625 50.6875 5.359375 
Q 44.046875 -1.421875 33.015625 -1.421875 
Q 20.359375 -1.421875 13.671875 8.265625 
Q 6.984375 17.96875 6.984375 36.375 
Q 6.984375 53.65625 15.1875 63.9375 
Q 23.390625 74.21875 37.203125 74.21875 
Q 40.921875 74.21875 44.703125 73.484375 
Q 48.484375 72.75 52.59375 71.296875 
z
" id="DejaVuSans-54"/>
      </defs>
      <g transform="translate(358.057252 322.182437)scale(0.1 -0.1)">
       <use xlink:href="#DejaVuSans-54"/>
       <use x="63.623047" xlink:href="#DejaVuSans-48"/>
       <use x="127.246094" xlink:href="#DejaVuSans-48"/>
      </g>
     </g>
    </g>
   </g>
   <g id="matplotlib.axis_2">
    <g id="ytick_1">
     <g id="line2d_8">
      <defs>
       <path d="M 0 0 
L -3.5 0 
" id="mebcf438f7d" style="stroke:#000000;stroke-width:0.8;"/>
      </defs>
      <g>
       <use style="stroke:#000000;stroke-width:0.8;" x="57.6" xlink:href="#mebcf438f7d" y="266.326608"/>
      </g>
     </g>
     <g id="text_7">
      <!-- −200 -->
      <g transform="translate(23.132812 270.125827)scale(0.1 -0.1)">
       <use xlink:href="#DejaVuSans-8722"/>
       <use x="83.789062" xlink:href="#DejaVuSans-50"/>
       <use x="147.412109" xlink:href="#DejaVuSans-48"/>
       <use x="211.035156" xlink:href="#DejaVuSans-48"/>
      </g>
     </g>
    </g>
    <g id="ytick_2">
     <g id="line2d_9">
      <g>
       <use style="stroke:#000000;stroke-width:0.8;" x="57.6" xlink:href="#mebcf438f7d" y="212.108161"/>
      </g>
     </g>
     <g id="text_8">
      <!-- 0 -->
      <g transform="translate(44.2375 215.90738)scale(0.1 -0.1)">
       <use xlink:href="#DejaVuSans-48"/>
      </g>
     </g>
    </g>
    <g id="ytick_3">
     <g id="line2d_10">
      <g>
       <use style="stroke:#000000;stroke-width:0.8;" x="57.6" xlink:href="#mebcf438f7d" y="157.889714"/>
      </g>
     </g>
     <g id="text_9">
      <!-- 200 -->
      <g transform="translate(31.5125 161.688933)scale(0.1 -0.1)">
       <use xlink:href="#DejaVuSans-50"/>
       <use x="63.623047" xlink:href="#DejaVuSans-48"/>
       <use x="127.246094" xlink:href="#DejaVuSans-48"/>
      </g>
     </g>
    </g>
    <g id="ytick_4">
     <g id="line2d_11">
      <g>
       <use style="stroke:#000000;stroke-width:0.8;" x="57.6" xlink:href="#mebcf438f7d" y="103.671267"/>
      </g>
     </g>
     <g id="text_10">
      <!-- 400 -->
      <g transform="translate(31.5125 107.470486)scale(0.1 -0.1)">
       <use xlink:href="#DejaVuSans-52"/>
       <use x="63.623047" xlink:href="#DejaVuSans-48"/>
       <use x="127.246094" xlink:href="#DejaVuSans-48"/>
      </g>
     </g>
    </g>
    <g id="ytick_5">
     <g id="line2d_12">
      <g>
       <use style="stroke:#000000;stroke-width:0.8;" x="57.6" xlink:href="#mebcf438f7d" y="49.45282"/>
      </g>
     </g>
     <g id="text_11">
      <!-- 600 -->
      <g transform="translate(31.5125 53.252039)scale(0.1 -0.1)">
       <use xlink:href="#DejaVuSans-54"/>
       <use x="63.623047" xlink:href="#DejaVuSans-48"/>
       <use x="127.246094" xlink:href="#DejaVuSans-48"/>
      </g>
     </g>
    </g>
   </g>
   <g id="line2d_13">
    <path clip-path="url(#p8ba1d87660)" d="M 394.482012 57.326404 
L 182.820773 171.195495 
L 135.479441 235.405538 
L 117.583514 267.899869 
L 254.473503 291.894143 
L 112.985871 252.181619 
L 78.590944 252.774359 
L 270.872502 279.02311 
L 272.519771 279.634791 
" style="fill:none;stroke:#ff0000;stroke-linecap:square;stroke-width:0.5;"/>
   </g>
   <g id="patch_3">
    <path d="M 57.6 307.584 
L 57.6 41.472 
" style="fill:none;stroke:#000000;stroke-linecap:square;stroke-linejoin:miter;stroke-width:0.8;"/>
   </g>
   <g id="patch_4">
    <path d="M 414.72 307.584 
L 414.72 41.472 
" style="fill:none;stroke:#000000;stroke-linecap:square;stroke-linejoin:miter;stroke-width:0.8;"/>
   </g>
   <g id="patch_5">
    <path d="M 57.6 307.584 
L 414.72 307.584 
" style="fill:none;stroke:#000000;stroke-linecap:square;stroke-linejoin:miter;stroke-width:0.8;"/>
   </g>
   <g id="patch_6">
    <path d="M 57.6 41.472 
L 414.72 41.472 
" style="fill:none;stroke:#000000;stroke-linecap:square;stroke-linejoin:miter;stroke-width:0.8;"/>
   </g>
   <g id="PathCollection_1">
    <defs>
     <path d="M 0 2.738613 
C 0.726289 2.738613 1.422928 2.450055 1.936492 1.936492 
C 2.450055 1.422928 2.738613 0.726289 2.738613 0 
C 2.738613 -0.726289 2.450055 -1.422928 1.936492 -1.936492 
C 1.422928 -2.450055 0.726289 -2.738613 0 -2.738613 
C -0.726289 -2.738613 -1.422928 -2.450055 -1.936492 -1.936492 
C -2.450055 -1.422928 -2.738613 -0.726289 -2.738613 0 
C -2.738613 0.726289 -2.450055 1.422928 -1.936492 1.936492 
C -1.422928 2.450055 -0.726289 2.738613 0 2.738613 
z
" id="m899c12058f" style="stroke:#ff0000;"/>
    </defs>
    <g clip-path="url(#p8ba1d87660)">
     <use style="fill:#ff0000;stroke:#ff0000;" x="394.482012" xlink:href="#m899c12058f" y="57.326404"/>
     <use style="fill:#ff0000;stroke:#ff0000;" x="182.820773" xlink:href="#m899c12058f" y="171.195495"/>
     <use style="fill:#ff0000;stroke:#ff0000;" x="135.479441" xlink:href="#m899c12058f" y="235.405538"/>
     <use style="fill:#ff0000;stroke:#ff0000;" x="117.583514" xlink:href="#m899c12058f" y="267.899869"/>
     <use style="fill:#ff0000;stroke:#ff0000;" x="254.473503" xlink:href="#m899c12058f" y="291.894143"/>
     <use style="fill:#ff0000;stroke:#ff0000;" x="112.985871" xlink:href="#m899c12058f" y="252.181619"/>
     <use style="fill:#ff0000;stroke:#ff0000;" x="78.590944" xlink:href="#m899c12058f" y="252.774359"/>
     <use style="fill:#ff0000;stroke:#ff0000;" x="270.872502" xlink:href="#m899c12058f" y="279.02311"/>
     <use style="fill:#ff0000;stroke:#ff0000;" x="272.519771" xlink:href="#m899c12058f" y="279.634791"/>
    </g>
   </g>
   <g id="text_12">
    <!-- (109) Subject: s17, Known = False, Degree = 2, Duration = 0.1 -->
    <defs>
     <path d="M 31 75.875 
Q 24.46875 64.65625 21.28125 53.65625 
Q 18.109375 42.671875 18.109375 31.390625 
Q 18.109375 20.125 21.3125 9.0625 
Q 24.515625 -2 31 -13.1875 
L 23.1875 -13.1875 
Q 15.875 -1.703125 12.234375 9.375 
Q 8.59375 20.453125 8.59375 31.390625 
Q 8.59375 42.28125 12.203125 53.3125 
Q 15.828125 64.359375 23.1875 75.875 
z
" id="DejaVuSans-40"/>
     <path d="M 12.40625 8.296875 
L 28.515625 8.296875 
L 28.515625 63.921875 
L 10.984375 60.40625 
L 10.984375 69.390625 
L 28.421875 72.90625 
L 38.28125 72.90625 
L 38.28125 8.296875 
L 54.390625 8.296875 
L 54.390625 0 
L 12.40625 0 
z
" id="DejaVuSans-49"/>
     <path d="M 10.984375 1.515625 
L 10.984375 10.5 
Q 14.703125 8.734375 18.5 7.8125 
Q 22.3125 6.890625 25.984375 6.890625 
Q 35.75 6.890625 40.890625 13.453125 
Q 46.046875 20.015625 46.78125 33.40625 
Q 43.953125 29.203125 39.59375 26.953125 
Q 35.25 24.703125 29.984375 24.703125 
Q 19.046875 24.703125 12.671875 31.3125 
Q 6.296875 37.9375 6.296875 49.421875 
Q 6.296875 60.640625 12.9375 67.421875 
Q 19.578125 74.21875 30.609375 74.21875 
Q 43.265625 74.21875 49.921875 64.515625 
Q 56.59375 54.828125 56.59375 36.375 
Q 56.59375 19.140625 48.40625 8.859375 
Q 40.234375 -1.421875 26.421875 -1.421875 
Q 22.703125 -1.421875 18.890625 -0.6875 
Q 15.09375 0.046875 10.984375 1.515625 
z
M 30.609375 32.421875 
Q 37.25 32.421875 41.125 36.953125 
Q 45.015625 41.5 45.015625 49.421875 
Q 45.015625 57.28125 41.125 61.84375 
Q 37.25 66.40625 30.609375 66.40625 
Q 23.96875 66.40625 20.09375 61.84375 
Q 16.21875 57.28125 16.21875 49.421875 
Q 16.21875 41.5 20.09375 36.953125 
Q 23.96875 32.421875 30.609375 32.421875 
z
" id="DejaVuSans-57"/>
     <path d="M 8.015625 75.875 
L 15.828125 75.875 
Q 23.140625 64.359375 26.78125 53.3125 
Q 30.421875 42.28125 30.421875 31.390625 
Q 30.421875 20.453125 26.78125 9.375 
Q 23.140625 -1.703125 15.828125 -13.1875 
L 8.015625 -13.1875 
Q 14.5 -2 17.703125 9.0625 
Q 20.90625 20.125 20.90625 31.390625 
Q 20.90625 42.671875 17.703125 53.65625 
Q 14.5 64.65625 8.015625 75.875 
z
" id="DejaVuSans-41"/>
     <path id="DejaVuSans-32"/>
     <path d="M 53.515625 70.515625 
L 53.515625 60.890625 
Q 47.90625 63.578125 42.921875 64.890625 
Q 37.9375 66.21875 33.296875 66.21875 
Q 25.25 66.21875 20.875 63.09375 
Q 16.5 59.96875 16.5 54.203125 
Q 16.5 49.359375 19.40625 46.890625 
Q 22.3125 44.4375 30.421875 42.921875 
L 36.375 41.703125 
Q 47.40625 39.59375 52.65625 34.296875 
Q 57.90625 29 57.90625 20.125 
Q 57.90625 9.515625 50.796875 4.046875 
Q 43.703125 -1.421875 29.984375 -1.421875 
Q 24.8125 -1.421875 18.96875 -0.25 
Q 13.140625 0.921875 6.890625 3.21875 
L 6.890625 13.375 
Q 12.890625 10.015625 18.65625 8.296875 
Q 24.421875 6.59375 29.984375 6.59375 
Q 38.421875 6.59375 43.015625 9.90625 
Q 47.609375 13.234375 47.609375 19.390625 
Q 47.609375 24.75 44.3125 27.78125 
Q 41.015625 30.8125 33.5 32.328125 
L 27.484375 33.5 
Q 16.453125 35.6875 11.515625 40.375 
Q 6.59375 45.0625 6.59375 53.421875 
Q 6.59375 63.09375 13.40625 68.65625 
Q 20.21875 74.21875 32.171875 74.21875 
Q 37.3125 74.21875 42.625 73.28125 
Q 47.953125 72.359375 53.515625 70.515625 
z
" id="DejaVuSans-83"/>
     <path d="M 8.5 21.578125 
L 8.5 54.6875 
L 17.484375 54.6875 
L 17.484375 21.921875 
Q 17.484375 14.15625 20.5 10.265625 
Q 23.53125 6.390625 29.59375 6.390625 
Q 36.859375 6.390625 41.078125 11.03125 
Q 45.3125 15.671875 45.3125 23.6875 
L 45.3125 54.6875 
L 54.296875 54.6875 
L 54.296875 0 
L 45.3125 0 
L 45.3125 8.40625 
Q 42.046875 3.421875 37.71875 1 
Q 33.40625 -1.421875 27.6875 -1.421875 
Q 18.265625 -1.421875 13.375 4.4375 
Q 8.5 10.296875 8.5 21.578125 
z
M 31.109375 56 
z
" id="DejaVuSans-117"/>
     <path d="M 48.6875 27.296875 
Q 48.6875 37.203125 44.609375 42.84375 
Q 40.53125 48.484375 33.40625 48.484375 
Q 26.265625 48.484375 22.1875 42.84375 
Q 18.109375 37.203125 18.109375 27.296875 
Q 18.109375 17.390625 22.1875 11.75 
Q 26.265625 6.109375 33.40625 6.109375 
Q 40.53125 6.109375 44.609375 11.75 
Q 48.6875 17.390625 48.6875 27.296875 
z
M 18.109375 46.390625 
Q 20.953125 51.265625 25.265625 53.625 
Q 29.59375 56 35.59375 56 
Q 45.5625 56 51.78125 48.09375 
Q 58.015625 40.1875 58.015625 27.296875 
Q 58.015625 14.40625 51.78125 6.484375 
Q 45.5625 -1.421875 35.59375 -1.421875 
Q 29.59375 -1.421875 25.265625 0.953125 
Q 20.953125 3.328125 18.109375 8.203125 
L 18.109375 0 
L 9.078125 0 
L 9.078125 75.984375 
L 18.109375 75.984375 
z
" id="DejaVuSans-98"/>
     <path d="M 9.421875 54.6875 
L 18.40625 54.6875 
L 18.40625 -0.984375 
Q 18.40625 -11.421875 14.421875 -16.109375 
Q 10.453125 -20.796875 1.609375 -20.796875 
L -1.8125 -20.796875 
L -1.8125 -13.1875 
L 0.59375 -13.1875 
Q 5.71875 -13.1875 7.5625 -10.8125 
Q 9.421875 -8.453125 9.421875 -0.984375 
z
M 9.421875 75.984375 
L 18.40625 75.984375 
L 18.40625 64.59375 
L 9.421875 64.59375 
z
" id="DejaVuSans-106"/>
     <path d="M 56.203125 29.59375 
L 56.203125 25.203125 
L 14.890625 25.203125 
Q 15.484375 15.921875 20.484375 11.0625 
Q 25.484375 6.203125 34.421875 6.203125 
Q 39.59375 6.203125 44.453125 7.46875 
Q 49.3125 8.734375 54.109375 11.28125 
L 54.109375 2.78125 
Q 49.265625 0.734375 44.1875 -0.34375 
Q 39.109375 -1.421875 33.890625 -1.421875 
Q 20.796875 -1.421875 13.15625 6.1875 
Q 5.515625 13.8125 5.515625 26.8125 
Q 5.515625 40.234375 12.765625 48.109375 
Q 20.015625 56 32.328125 56 
Q 43.359375 56 49.78125 48.890625 
Q 56.203125 41.796875 56.203125 29.59375 
z
M 47.21875 32.234375 
Q 47.125 39.59375 43.09375 43.984375 
Q 39.0625 48.390625 32.421875 48.390625 
Q 24.90625 48.390625 20.390625 44.140625 
Q 15.875 39.890625 15.1875 32.171875 
z
" id="DejaVuSans-101"/>
     <path d="M 48.78125 52.59375 
L 48.78125 44.1875 
Q 44.96875 46.296875 41.140625 47.34375 
Q 37.3125 48.390625 33.40625 48.390625 
Q 24.65625 48.390625 19.8125 42.84375 
Q 14.984375 37.3125 14.984375 27.296875 
Q 14.984375 17.28125 19.8125 11.734375 
Q 24.65625 6.203125 33.40625 6.203125 
Q 37.3125 6.203125 41.140625 7.25 
Q 44.96875 8.296875 48.78125 10.40625 
L 48.78125 2.09375 
Q 45.015625 0.34375 40.984375 -0.53125 
Q 36.96875 -1.421875 32.421875 -1.421875 
Q 20.0625 -1.421875 12.78125 6.34375 
Q 5.515625 14.109375 5.515625 27.296875 
Q 5.515625 40.671875 12.859375 48.328125 
Q 20.21875 56 33.015625 56 
Q 37.15625 56 41.109375 55.140625 
Q 45.0625 54.296875 48.78125 52.59375 
z
" id="DejaVuSans-99"/>
     <path d="M 18.3125 70.21875 
L 18.3125 54.6875 
L 36.8125 54.6875 
L 36.8125 47.703125 
L 18.3125 47.703125 
L 18.3125 18.015625 
Q 18.3125 11.328125 20.140625 9.421875 
Q 21.96875 7.515625 27.59375 7.515625 
L 36.8125 7.515625 
L 36.8125 0 
L 27.59375 0 
Q 17.1875 0 13.234375 3.875 
Q 9.28125 7.765625 9.28125 18.015625 
L 9.28125 47.703125 
L 2.6875 47.703125 
L 2.6875 54.6875 
L 9.28125 54.6875 
L 9.28125 70.21875 
z
" id="DejaVuSans-116"/>
     <path d="M 11.71875 12.40625 
L 22.015625 12.40625 
L 22.015625 0 
L 11.71875 0 
z
M 11.71875 51.703125 
L 22.015625 51.703125 
L 22.015625 39.3125 
L 11.71875 39.3125 
z
" id="DejaVuSans-58"/>
     <path d="M 44.28125 53.078125 
L 44.28125 44.578125 
Q 40.484375 46.53125 36.375 47.5 
Q 32.28125 48.484375 27.875 48.484375 
Q 21.1875 48.484375 17.84375 46.4375 
Q 14.5 44.390625 14.5 40.28125 
Q 14.5 37.15625 16.890625 35.375 
Q 19.28125 33.59375 26.515625 31.984375 
L 29.59375 31.296875 
Q 39.15625 29.25 43.1875 25.515625 
Q 47.21875 21.78125 47.21875 15.09375 
Q 47.21875 7.46875 41.1875 3.015625 
Q 35.15625 -1.421875 24.609375 -1.421875 
Q 20.21875 -1.421875 15.453125 -0.5625 
Q 10.6875 0.296875 5.421875 2 
L 5.421875 11.28125 
Q 10.40625 8.6875 15.234375 7.390625 
Q 20.0625 6.109375 24.8125 6.109375 
Q 31.15625 6.109375 34.5625 8.28125 
Q 37.984375 10.453125 37.984375 14.40625 
Q 37.984375 18.0625 35.515625 20.015625 
Q 33.0625 21.96875 24.703125 23.78125 
L 21.578125 24.515625 
Q 13.234375 26.265625 9.515625 29.90625 
Q 5.8125 33.546875 5.8125 39.890625 
Q 5.8125 47.609375 11.28125 51.796875 
Q 16.75 56 26.8125 56 
Q 31.78125 56 36.171875 55.265625 
Q 40.578125 54.546875 44.28125 53.078125 
z
" id="DejaVuSans-115"/>
     <path d="M 8.203125 72.90625 
L 55.078125 72.90625 
L 55.078125 68.703125 
L 28.609375 0 
L 18.3125 0 
L 43.21875 64.59375 
L 8.203125 64.59375 
z
" id="DejaVuSans-55"/>
     <path d="M 11.71875 12.40625 
L 22.015625 12.40625 
L 22.015625 4 
L 14.015625 -11.625 
L 7.71875 -11.625 
L 11.71875 4 
z
" id="DejaVuSans-44"/>
     <path d="M 9.8125 72.90625 
L 19.671875 72.90625 
L 19.671875 42.09375 
L 52.390625 72.90625 
L 65.09375 72.90625 
L 28.90625 38.921875 
L 67.671875 0 
L 54.6875 0 
L 19.671875 35.109375 
L 19.671875 0 
L 9.8125 0 
z
" id="DejaVuSans-75"/>
     <path d="M 54.890625 33.015625 
L 54.890625 0 
L 45.90625 0 
L 45.90625 32.71875 
Q 45.90625 40.484375 42.875 44.328125 
Q 39.84375 48.1875 33.796875 48.1875 
Q 26.515625 48.1875 22.3125 43.546875 
Q 18.109375 38.921875 18.109375 30.90625 
L 18.109375 0 
L 9.078125 0 
L 9.078125 54.6875 
L 18.109375 54.6875 
L 18.109375 46.1875 
Q 21.34375 51.125 25.703125 53.5625 
Q 30.078125 56 35.796875 56 
Q 45.21875 56 50.046875 50.171875 
Q 54.890625 44.34375 54.890625 33.015625 
z
" id="DejaVuSans-110"/>
     <path d="M 30.609375 48.390625 
Q 23.390625 48.390625 19.1875 42.75 
Q 14.984375 37.109375 14.984375 27.296875 
Q 14.984375 17.484375 19.15625 11.84375 
Q 23.34375 6.203125 30.609375 6.203125 
Q 37.796875 6.203125 41.984375 11.859375 
Q 46.1875 17.53125 46.1875 27.296875 
Q 46.1875 37.015625 41.984375 42.703125 
Q 37.796875 48.390625 30.609375 48.390625 
z
M 30.609375 56 
Q 42.328125 56 49.015625 48.375 
Q 55.71875 40.765625 55.71875 27.296875 
Q 55.71875 13.875 49.015625 6.21875 
Q 42.328125 -1.421875 30.609375 -1.421875 
Q 18.84375 -1.421875 12.171875 6.21875 
Q 5.515625 13.875 5.515625 27.296875 
Q 5.515625 40.765625 12.171875 48.375 
Q 18.84375 56 30.609375 56 
z
" id="DejaVuSans-111"/>
     <path d="M 4.203125 54.6875 
L 13.1875 54.6875 
L 24.421875 12.015625 
L 35.59375 54.6875 
L 46.1875 54.6875 
L 57.421875 12.015625 
L 68.609375 54.6875 
L 77.59375 54.6875 
L 63.28125 0 
L 52.6875 0 
L 40.921875 44.828125 
L 29.109375 0 
L 18.5 0 
z
" id="DejaVuSans-119"/>
     <path d="M 10.59375 45.40625 
L 73.1875 45.40625 
L 73.1875 37.203125 
L 10.59375 37.203125 
z
M 10.59375 25.484375 
L 73.1875 25.484375 
L 73.1875 17.1875 
L 10.59375 17.1875 
z
" id="DejaVuSans-61"/>
     <path d="M 9.8125 72.90625 
L 51.703125 72.90625 
L 51.703125 64.59375 
L 19.671875 64.59375 
L 19.671875 43.109375 
L 48.578125 43.109375 
L 48.578125 34.8125 
L 19.671875 34.8125 
L 19.671875 0 
L 9.8125 0 
z
" id="DejaVuSans-70"/>
     <path d="M 34.28125 27.484375 
Q 23.390625 27.484375 19.1875 25 
Q 14.984375 22.515625 14.984375 16.5 
Q 14.984375 11.71875 18.140625 8.90625 
Q 21.296875 6.109375 26.703125 6.109375 
Q 34.1875 6.109375 38.703125 11.40625 
Q 43.21875 16.703125 43.21875 25.484375 
L 43.21875 27.484375 
z
M 52.203125 31.203125 
L 52.203125 0 
L 43.21875 0 
L 43.21875 8.296875 
Q 40.140625 3.328125 35.546875 0.953125 
Q 30.953125 -1.421875 24.3125 -1.421875 
Q 15.921875 -1.421875 10.953125 3.296875 
Q 6 8.015625 6 15.921875 
Q 6 25.140625 12.171875 29.828125 
Q 18.359375 34.515625 30.609375 34.515625 
L 43.21875 34.515625 
L 43.21875 35.40625 
Q 43.21875 41.609375 39.140625 45 
Q 35.0625 48.390625 27.6875 48.390625 
Q 23 48.390625 18.546875 47.265625 
Q 14.109375 46.140625 10.015625 43.890625 
L 10.015625 52.203125 
Q 14.9375 54.109375 19.578125 55.046875 
Q 24.21875 56 28.609375 56 
Q 40.484375 56 46.34375 49.84375 
Q 52.203125 43.703125 52.203125 31.203125 
z
" id="DejaVuSans-97"/>
     <path d="M 9.421875 75.984375 
L 18.40625 75.984375 
L 18.40625 0 
L 9.421875 0 
z
" id="DejaVuSans-108"/>
     <path d="M 19.671875 64.796875 
L 19.671875 8.109375 
L 31.59375 8.109375 
Q 46.6875 8.109375 53.6875 14.9375 
Q 60.6875 21.78125 60.6875 36.53125 
Q 60.6875 51.171875 53.6875 57.984375 
Q 46.6875 64.796875 31.59375 64.796875 
z
M 9.8125 72.90625 
L 30.078125 72.90625 
Q 51.265625 72.90625 61.171875 64.09375 
Q 71.09375 55.28125 71.09375 36.53125 
Q 71.09375 17.671875 61.125 8.828125 
Q 51.171875 0 30.078125 0 
L 9.8125 0 
z
" id="DejaVuSans-68"/>
     <path d="M 45.40625 27.984375 
Q 45.40625 37.75 41.375 43.109375 
Q 37.359375 48.484375 30.078125 48.484375 
Q 22.859375 48.484375 18.828125 43.109375 
Q 14.796875 37.75 14.796875 27.984375 
Q 14.796875 18.265625 18.828125 12.890625 
Q 22.859375 7.515625 30.078125 7.515625 
Q 37.359375 7.515625 41.375 12.890625 
Q 45.40625 18.265625 45.40625 27.984375 
z
M 54.390625 6.78125 
Q 54.390625 -7.171875 48.1875 -13.984375 
Q 42 -20.796875 29.203125 -20.796875 
Q 24.46875 -20.796875 20.265625 -20.09375 
Q 16.0625 -19.390625 12.109375 -17.921875 
L 12.109375 -9.1875 
Q 16.0625 -11.328125 19.921875 -12.34375 
Q 23.78125 -13.375 27.78125 -13.375 
Q 36.625 -13.375 41.015625 -8.765625 
Q 45.40625 -4.15625 45.40625 5.171875 
L 45.40625 9.625 
Q 42.625 4.78125 38.28125 2.390625 
Q 33.9375 0 27.875 0 
Q 17.828125 0 11.671875 7.65625 
Q 5.515625 15.328125 5.515625 27.984375 
Q 5.515625 40.671875 11.671875 48.328125 
Q 17.828125 56 27.875 56 
Q 33.9375 56 38.28125 53.609375 
Q 42.625 51.21875 45.40625 46.390625 
L 45.40625 54.6875 
L 54.390625 54.6875 
z
" id="DejaVuSans-103"/>
     <path d="M 41.109375 46.296875 
Q 39.59375 47.171875 37.8125 47.578125 
Q 36.03125 48 33.890625 48 
Q 26.265625 48 22.1875 43.046875 
Q 18.109375 38.09375 18.109375 28.8125 
L 18.109375 0 
L 9.078125 0 
L 9.078125 54.6875 
L 18.109375 54.6875 
L 18.109375 46.1875 
Q 20.953125 51.171875 25.484375 53.578125 
Q 30.03125 56 36.53125 56 
Q 37.453125 56 38.578125 55.875 
Q 39.703125 55.765625 41.0625 55.515625 
z
" id="DejaVuSans-114"/>
     <path d="M 9.421875 54.6875 
L 18.40625 54.6875 
L 18.40625 0 
L 9.421875 0 
z
M 9.421875 75.984375 
L 18.40625 75.984375 
L 18.40625 64.59375 
L 9.421875 64.59375 
z
" id="DejaVuSans-105"/>
     <path d="M 10.6875 12.40625 
L 21 12.40625 
L 21 0 
L 10.6875 0 
z
" id="DejaVuSans-46"/>
    </defs>
    <g transform="translate(45.924375 35.472)scale(0.12 -0.12)">
     <use xlink:href="#DejaVuSans-40"/>
     <use x="39.013672" xlink:href="#DejaVuSans-49"/>
     <use x="102.636719" xlink:href="#DejaVuSans-48"/>
     <use x="166.259766" xlink:href="#DejaVuSans-57"/>
     <use x="229.882812" xlink:href="#DejaVuSans-41"/>
     <use x="268.896484" xlink:href="#DejaVuSans-32"/>
     <use x="300.683594" xlink:href="#DejaVuSans-83"/>
     <use x="364.160156" xlink:href="#DejaVuSans-117"/>
     <use x="427.539062" xlink:href="#DejaVuSans-98"/>
     <use x="491.015625" xlink:href="#DejaVuSans-106"/>
     <use x="518.798828" xlink:href="#DejaVuSans-101"/>
     <use x="580.322266" xlink:href="#DejaVuSans-99"/>
     <use x="635.302734" xlink:href="#DejaVuSans-116"/>
     <use x="674.511719" xlink:href="#DejaVuSans-58"/>
     <use x="708.203125" xlink:href="#DejaVuSans-32"/>
     <use x="739.990234" xlink:href="#DejaVuSans-115"/>
     <use x="792.089844" xlink:href="#DejaVuSans-49"/>
     <use x="855.712891" xlink:href="#DejaVuSans-55"/>
     <use x="919.335938" xlink:href="#DejaVuSans-44"/>
     <use x="951.123047" xlink:href="#DejaVuSans-32"/>
     <use x="982.910156" xlink:href="#DejaVuSans-75"/>
     <use x="1048.486328" xlink:href="#DejaVuSans-110"/>
     <use x="1111.865234" xlink:href="#DejaVuSans-111"/>
     <use x="1173.046875" xlink:href="#DejaVuSans-119"/>
     <use x="1254.833984" xlink:href="#DejaVuSans-110"/>
     <use x="1318.212891" xlink:href="#DejaVuSans-32"/>
     <use x="1350" xlink:href="#DejaVuSans-61"/>
     <use x="1433.789062" xlink:href="#DejaVuSans-32"/>
     <use x="1465.576172" xlink:href="#DejaVuSans-70"/>
     <use x="1522.955078" xlink:href="#DejaVuSans-97"/>
     <use x="1584.234375" xlink:href="#DejaVuSans-108"/>
     <use x="1612.017578" xlink:href="#DejaVuSans-115"/>
     <use x="1664.117188" xlink:href="#DejaVuSans-101"/>
     <use x="1725.640625" xlink:href="#DejaVuSans-44"/>
     <use x="1757.427734" xlink:href="#DejaVuSans-32"/>
     <use x="1789.214844" xlink:href="#DejaVuSans-68"/>
     <use x="1866.216797" xlink:href="#DejaVuSans-101"/>
     <use x="1927.740234" xlink:href="#DejaVuSans-103"/>
     <use x="1991.216797" xlink:href="#DejaVuSans-114"/>
     <use x="2032.298828" xlink:href="#DejaVuSans-101"/>
     <use x="2093.822266" xlink:href="#DejaVuSans-101"/>
     <use x="2155.345703" xlink:href="#DejaVuSans-32"/>
     <use x="2187.132812" xlink:href="#DejaVuSans-61"/>
     <use x="2270.921875" xlink:href="#DejaVuSans-32"/>
     <use x="2302.708984" xlink:href="#DejaVuSans-50"/>
     <use x="2366.332031" xlink:href="#DejaVuSans-44"/>
     <use x="2398.119141" xlink:href="#DejaVuSans-32"/>
     <use x="2429.90625" xlink:href="#DejaVuSans-68"/>
     <use x="2506.908203" xlink:href="#DejaVuSans-117"/>
     <use x="2570.287109" xlink:href="#DejaVuSans-114"/>
     <use x="2611.400391" xlink:href="#DejaVuSans-97"/>
     <use x="2672.679688" xlink:href="#DejaVuSans-116"/>
     <use x="2711.888672" xlink:href="#DejaVuSans-105"/>
     <use x="2739.671875" xlink:href="#DejaVuSans-111"/>
     <use x="2800.853516" xlink:href="#DejaVuSans-110"/>
     <use x="2864.232422" xlink:href="#DejaVuSans-32"/>
     <use x="2896.019531" xlink:href="#DejaVuSans-61"/>
     <use x="2979.808594" xlink:href="#DejaVuSans-32"/>
     <use x="3011.595703" xlink:href="#DejaVuSans-48"/>
     <use x="3075.21875" xlink:href="#DejaVuSans-46"/>
     <use x="3107.005859" xlink:href="#DejaVuSans-49"/>
    </g>
   </g>
  </g>
 </g>
 <defs>
  <clipPath id="p8ba1d87660">
   <rect height="266.112" width="357.12" x="57.6" y="41.472"/>
  </clipPath>
 </defs>
</svg>
