<?xml version="1.0" encoding="utf-8" standalone="no"?>
<!DOCTYPE svg PUBLIC "-//W3C//DTD SVG 1.1//EN"
  "http://www.w3.org/Graphics/SVG/1.1/DTD/svg11.dtd">
<!-- Created with matplotlib (https://matplotlib.org/) -->
<svg height="345.6pt" version="1.1" viewBox="0 0 460.8 345.6" width="460.8pt" xmlns="http://www.w3.org/2000/svg" xmlns:xlink="http://www.w3.org/1999/xlink">
 <defs>
  <style type="text/css">
*{stroke-linecap:butt;stroke-linejoin:round;}
  </style>
 </defs>
 <g id="figure_1">
  <g id="patch_1">
   <path d="M 0 345.6 
L 460.8 345.6 
L 460.8 0 
L 0 0 
z
" style="fill:#ffffff;"/>
  </g>
  <g id="axes_1">
   <g id="patch_2">
    <path d="M 57.6 307.584 
L 414.72 307.584 
L 414.72 41.472 
L 57.6 41.472 
z
" style="fill:#ffffff;"/>
   </g>
   <g id="line2d_1">
    <path clip-path="url(#pb9b16cdb62)" d="M 73.832727 273.034467 
L 76.981166 271.61784 
L 80.525443 270.203427 
L 88.405673 267.370173 
L 91.755076 266.358613 
L 98.064132 265.145627 
L 101.212571 263.93264 
L 104.756848 262.314587 
L 116.577194 257.661853 
L 119.335884 256.85172 
L 122.490412 256.245227 
L 125.839814 255.437307 
L 129.585055 254.22432 
L 133.519081 252.604053 
L 137.66016 251.18964 
L 141.996114 249.97444 
L 146.325978 248.356387 
L 150.661932 246.941973 
L 155.19276 245.930413 
L 159.918463 245.32392 
L 164.650255 244.513787 
L 169.570832 243.502227 
L 175.289176 241.682747 
L 181.592142 239.4582 
L 193.211524 234.601827 
L 219.610906 226.7152 
L 238.915645 219.83792 
L 250.735991 217.208307 
L 260.784199 214.981547 
L 264.925278 213.76856 
L 268.664429 212.555573 
L 272.805509 211.74544 
L 276.745624 210.73388 
L 280.484776 209.92596 
L 283.834178 208.9144 
L 289.747396 207.701413 
L 294.07726 206.689853 
L 297.426663 206.689853 
L 297.426663 206.486213 
L 297.231788 206.89128 
L 297.426663 207.497773 
L 297.231788 207.701413 
L 296.641076 207.701413 
L 295.849399 207.296347 
L 295.258686 207.296347 
L 296.641076 207.90284 
L 296.050363 207.701413 
L 296.050363 207.296347 
L 296.050363 207.497773 
L 295.849399 207.90284 
L 295.849399 208.307907 
L 295.849399 208.307907 
L 296.245237 207.90284 
L 296.83595 207.90284 
L 296.83595 207.701413 
L 296.641076 207.296347 
L 296.050363 207.092707 
L 296.050363 207.296347 
L 296.440111 207.296347 
L 296.83595 206.89128 
L 296.83595 206.689853 
L 296.641076 206.689853 
L 296.641076 206.284787 
L 296.440111 206.08336 
L 296.245237 206.08336 
L 296.050363 206.284787 
L 296.050363 206.284787 
L 295.654524 206.284787 
L 295.063811 205.87972 
L 295.258686 205.87972 
L 295.849399 205.474653 
L 295.654524 205.474653 
L 295.45965 205.678293 
L 295.654524 205.678293 
L 296.050363 205.474653 
L 296.050363 205.0718 
L 295.654524 205.0718 
L 295.258686 205.273227 
L 295.063811 205.0718 
L 295.654524 204.86816 
L 295.849399 204.86816 
L 295.849399 204.666733 
L 295.654524 204.666733 
L 295.45965 204.86816 
L 295.654524 204.666733 
L 295.849399 204.261667 
L 295.654524 203.655173 
L 295.849399 203.453747 
L 296.440111 204.06024 
L 296.050363 204.06024 
L 296.245237 203.655173 
L 296.641076 203.453747 
L 296.83595 203.655173 
L 296.641076 203.8566 
L 296.440111 203.8566 
L 296.245237 203.453747 
L 295.849399 203.04868 
L 295.849399 203.04868 
L 296.050363 202.84504 
L 296.050363 202.442187 
L 295.849399 202.03712 
L 295.849399 202.238547 
L 295.849399 202.442187 
L 295.849399 202.442187 
L 296.245237 202.442187 
L 296.245237 202.643613 
L 296.050363 202.442187 
L 295.849399 202.03712 
L 296.050363 201.430627 
L 296.050363 201.430627 
L 295.849399 201.430627 
L 295.45965 201.632053 
L 295.258686 201.430627 
L 295.258686 200.824133 
L 295.258686 201.430627 
L 295.654524 201.430627 
L 295.849399 201.226987 
L 295.654524 201.02556 
L 295.258686 200.824133 
L 295.258686 200.620493 
L 295.654524 200.419067 
L 296.245237 200.419067 
L 296.245237 200.419067 
L 296.050363 200.014 
L 295.45965 199.812573 
L 295.45965 200.215427 
L 295.654524 200.419067 
L 296.050363 200.215427 
L 296.245237 199.812573 
L 295.258686 199.407507 
L 295.063811 199.407507 
L 295.45965 199.608933 
L 295.849399 200.014 
L 296.050363 200.419067 
L 295.849399 200.215427 
L 295.258686 200.014 
L 295.063811 200.620493 
L 295.063811 200.620493 
L 295.45965 200.014 
L 295.654524 199.407507 
L 295.45965 199.00244 
L 295.654524 198.597373 
L 296.245237 198.597373 
L 296.245237 199.608933 
L 296.050363 199.608933 
L 295.654524 199.407507 
L 295.654524 199.20608 
L 295.45965 199.407507 
L 295.45965 199.20608 
L 295.849399 198.597373 
L 296.050363 198.801013 
L 296.440111 199.812573 
L 296.440111 199.608933 
L 296.83595 199.407507 
L 296.83595 199.608933 
L 296.440111 200.014 
L 296.050363 199.812573 
L 296.050363 199.407507 
L 296.245237 199.20608 
L 296.83595 199.407507 
L 297.036914 199.00244 
L 296.440111 198.801013 
L 296.050363 199.812573 
L 296.245237 200.014 
L 296.83595 199.608933 
L 297.231788 199.00244 
L 297.231788 198.597373 
L 297.231788 198.801013 
L 297.036914 199.407507 
L 297.036914 200.419067 
L 297.231788 200.620493 
L 296.83595 199.608933 
L 297.036914 199.00244 
L 297.231788 199.00244 
L 297.627627 199.20608 
L 297.627627 199.407507 
L 297.426663 199.608933 
L 297.036914 199.608933 
L 296.83595 199.20608 
L 297.036914 199.20608 
L 297.231788 199.608933 
L 297.231788 200.215427 
L 297.231788 200.215427 
L 297.426663 199.608933 
L 297.426663 199.20608 
L 297.426663 199.20608 
L 297.036914 199.20608 
L 296.83595 199.00244 
L 296.83595 198.801013 
L 296.440111 198.801013 
L 296.245237 199.00244 
L 296.440111 199.20608 
L 296.440111 198.801013 
L 297.036914 198.801013 
L 297.231788 199.00244 
L 297.426663 199.00244 
L 297.231788 198.801013 
L 296.83595 199.00244 
L 297.036914 199.00244 
L 297.231788 198.395947 
L 297.231788 198.395947 
L 296.83595 198.597373 
L 296.641076 198.19452 
L 296.83595 197.789453 
L 297.231788 197.585813 
L 297.036914 197.585813 
L 296.641076 197.585813 
L 296.641076 197.18296 
L 297.036914 195.96776 
L 296.83595 196.576467 
L 296.245237 197.384387 
L 296.245237 197.789453 
L 296.641076 197.789453 
L 297.231788 198.19452 
L 297.036914 197.789453 
L 296.245237 197.384387 
L 295.849399 197.384387 
L 295.849399 197.789453 
L 296.245237 197.585813 
L 296.641076 196.576467 
L 296.83595 195.766333 
L 296.83595 196.1714 
L 296.83595 196.97932 
L 297.231788 197.384387 
L 297.231788 197.18296 
L 297.426663 196.97932 
L 297.627627 197.18296 
L 296.83595 197.18296 
L 296.83595 197.18296 
L 296.641076 196.97932 
L 296.440111 196.97932 
L 296.83595 196.97932 
L 297.036914 196.777893 
L 296.440111 196.777893 
L 296.440111 197.384387 
L 297.036914 197.585813 
L 297.231788 197.18296 
L 296.641076 196.1714 
L 297.036914 195.96776 
L 297.627627 196.97932 
L 297.822501 196.576467 
L 297.426663 196.1714 
L 296.83595 195.96776 
L 296.440111 195.564907 
L 296.245237 195.564907 
L 296.050363 195.766333 
L 296.050363 195.96776 
L 296.440111 195.96776 
L 296.83595 195.766333 
L 297.036914 195.15984 
L 297.231788 194.9562 
L 297.231788 194.9562 
L 296.641076 195.15984 
L 296.245237 195.15984 
L 297.036914 195.96776 
L 297.036914 196.1714 
L 296.641076 195.96776 
L 296.641076 195.564907 
L 297.036914 195.361267 
L 297.426663 195.564907 
L 297.426663 195.96776 
L 297.426663 195.96776 
L 297.036914 195.766333 
L 296.641076 195.766333 
L 296.641076 195.766333 
L 297.231788 195.564907 
L 297.627627 195.564907 
L 297.627627 195.564907 
L 297.231788 195.361267 
L 295.654524 194.9562 
L 295.45965 195.15984 
L 295.654524 195.564907 
L 296.245237 195.564907 
L 296.83595 195.361267 
L 296.83595 194.754773 
L 296.245237 194.9562 
L 296.050363 195.564907 
L 296.050363 195.96776 
L 296.050363 195.766333 
L 296.440111 195.15984 
L 296.83595 195.15984 
L 296.641076 195.564907 
L 296.245237 195.766333 
L 296.245237 195.361267 
L 296.641076 194.9562 
L 296.83595 194.9562 
L 296.83595 194.9562 
L 297.036914 194.754773 
L 298.017376 194.14828 
L 298.017376 193.946853 
L 298.21834 193.743213 
L 299.003927 194.14828 
L 299.399765 193.338147 
L 301.567742 193.338147 
L 302.944042 193.743213 
L 303.930593 194.349707 
L 306.293445 195.15984 
L 307.079032 195.766333 
L 308.656296 196.372827 
L 311.019147 196.97932 
L 316.536527 197.789453 
L 318.704504 198.597373 
L 321.067355 199.608933 
L 323.826045 200.419067 
L 328.752711 201.226987 
L 331.511401 201.83348 
L 337.619493 203.453747 
L 346.090437 205.87972 
L 349.238875 206.689853 
L 354.951129 209.115827 
L 360.07267 210.73388 
L 364.012786 213.162067 
L 365.985888 214.173627 
L 368.348739 215.185187 
L 370.711591 216.5996 
L 375.443383 219.027787 
L 377.60527 220.444413 
L 379.974211 221.455973 
L 382.136098 222.66896 
L 383.713363 223.881947 
L 385.095752 225.094933 
L 388.049316 227.118053 
L 389.035868 228.333253 
L 390.016329 229.3426 
L 391.398719 231.164293 
L 391.593593 231.972213 
L 391.398719 232.983773 
L 391.00288 233.59248 
L 391.203845 234.198973 
L 391.794557 235.006893 
L 392.184306 235.817027 
L 392.184306 236.42352 
L 391.989432 236.828587 
L 391.593593 238.648067 
L 391.203845 239.4582 
L 390.607042 240.064693 
L 391.00288 240.064693 
L 391.00288 239.861053 
L 390.808006 240.064693 
L 390.607042 240.46976 
L 391.00288 240.872613 
L 391.203845 240.872613 
L 390.808006 241.27768 
L 390.808006 241.682747 
L 391.203845 241.884173 
L 391.398719 241.682747 
L 391.203845 241.682747 
L 390.808006 242.895733 
L 390.607042 242.895733 
L 390.607042 243.09716 
L 391.398719 243.502227 
L 391.593593 243.3008 
L 391.593593 243.09716 
L 391.398719 243.09716 
L 391.203845 243.3008 
L 391.398719 243.502227 
L 391.593593 243.3008 
L 391.593593 243.09716 
L 391.398719 242.895733 
L 391.203845 242.895733 
L 391.398719 243.09716 
L 391.00288 243.502227 
L 390.607042 243.502227 
L 390.412168 243.705867 
L 390.607042 244.10872 
L 390.808006 244.10872 
L 390.607042 244.10872 
L 390.016329 243.907293 
L 389.62658 243.907293 
L 389.62658 244.10872 
L 390.808006 245.32392 
L 390.808006 244.918853 
L 390.607042 244.10872 
L 390.412168 243.907293 
L 390.016329 244.31236 
L 389.821455 244.31236 
L 389.821455 243.907293 
L 390.016329 244.31236 
L 390.412168 244.513787 
L 390.412168 244.717427 
L 390.016329 244.513787 
L 390.016329 243.907293 
L 390.412168 243.705867 
L 390.808006 243.907293 
L 390.607042 244.513787 
L 390.808006 244.717427 
L 390.016329 244.717427 
L 389.230742 244.918853 
L 389.425616 245.12028 
L 389.821455 245.32392 
L 391.00288 245.726773 
L 390.808006 245.32392 
L 390.412168 245.12028 
L 389.62658 245.525347 
L 390.016329 245.525347 
L 390.412168 245.32392 
L 390.808006 245.32392 
L 390.607042 245.32392 
L 390.607042 245.12028 
L 390.607042 245.12028 
L 390.016329 245.12028 
L 389.425616 245.525347 
L 389.425616 245.930413 
L 390.016329 245.930413 
L 390.607042 245.726773 
L 390.808006 245.525347 
L 390.412168 245.32392 
L 389.821455 246.33548 
L 390.217293 246.13184 
L 390.607042 246.13184 
L 390.607042 246.33548 
L 390.412168 246.33548 
L 390.412168 246.13184 
L 390.217293 245.930413 
L 389.821455 246.941973 
L 390.412168 246.536907 
L 390.607042 246.13184 
L 390.412168 246.13184 
L 390.217293 246.536907 
L 390.217293 246.941973 
L 390.016329 247.1434 
L 390.217293 247.34704 
L 390.607042 246.536907 
L 390.412168 246.738333 
L 390.412168 247.34704 
L 390.217293 247.749893 
L 390.016329 247.548467 
L 389.62658 247.548467 
L 389.425616 247.749893 
L 389.821455 247.34704 
L 390.217293 246.536907 
L 390.016329 246.33548 
L 388.640029 247.1434 
L 388.834904 247.548467 
L 389.230742 247.548467 
L 389.821455 247.34704 
L 390.016329 247.1434 
L 389.62658 247.548467 
L 389.62658 247.953533 
L 389.821455 247.953533 
L 389.821455 247.749893 
L 389.230742 247.548467 
L 388.640029 247.548467 
L 388.445155 247.34704 
L 388.834904 246.941973 
L 389.62658 246.941973 
L 389.62658 246.738333 
L 389.821455 246.33548 
L 389.821455 246.33548 
L 390.016329 246.33548 
L 389.821455 246.33548 
L 389.62658 245.930413 
L 389.821455 245.525347 
L 389.821455 245.726773 
L 389.425616 245.726773 
L 389.035868 245.525347 
L 389.035868 245.12028 
L 390.016329 244.717427 
L 390.016329 244.10872 
L 389.230742 243.3008 
L 388.244191 242.490667 
L 386.673016 239.861053 
L 385.095752 237.840147 
L 382.732901 235.613387 
L 380.169086 233.38884 
L 376.819683 230.759227 
L 372.288855 227.724547 
L 366.97244 224.69208 
L 355.937681 217.61116 
L 350.225427 213.567133 
L 344.708047 209.319467 
L 339.586506 204.666733 
L 334.65984 199.812573 
L 329.739263 195.15984 
L 320.080804 185.652947 
L 315.355101 181.606707 
L 311.019147 177.56268 
L 307.279996 173.111373 
L 300.581191 163.80812 
L 295.45965 156.322133 
L 292.70096 152.278107 
L 290.137145 147.423947 
L 288.365006 142.366147 
L 286.988706 137.713413 
L 285.216568 134.07224 
L 283.243465 130.634707 
L 281.276453 126.588467 
L 279.699188 122.139373 
L 278.121924 118.093133 
L 274.577647 110.60936 
L 270.046819 99.282987 
L 267.087165 92.202067 
L 266.106704 88.764533 
L 265.515991 85.528427 
L 264.52944 82.493747 
L 263.938727 79.459067 
L 263.737763 76.628027 
L 264.133601 70.155813 
L 264.133601 61.255413 
L 263.938727 59.63736 
L 263.938727 58.220733 
L 264.133601 57.4106 
L 264.52944 57.007747 
L 265.515991 55.186053 
L 266.301578 54.57956 
L 266.892291 54.57956 
L 267.288129 54.984627 
L 267.288129 55.389693 
L 267.483004 55.59112 
L 267.483004 55.792547 
L 267.288129 56.197613 
L 267.087165 56.197613 
L 268.073717 56.804107 
L 268.664429 56.60268 
L 269.060268 55.792547 
L 268.664429 55.389693 
L 268.274681 55.59112 
L 268.274681 55.792547 
L 268.664429 55.59112 
L 268.664429 55.389693 
L 268.274681 55.389693 
L 267.677878 55.186053 
L 267.483004 54.984627 
L 267.878842 54.984627 
L 268.274681 54.7832 
L 268.274681 54.378133 
L 268.664429 53.973067 
L 268.664429 53.568 
L 268.073717 53.973067 
L 267.878842 54.57956 
L 268.664429 55.186053 
L 268.865394 55.186053 
L 268.664429 54.57956 
L 268.274681 53.973067 
L 268.469555 53.77164 
L 268.664429 54.174493 
L 268.469555 54.57956 
L 268.274681 54.57956 
L 268.469555 54.174493 
L 268.469555 54.174493 
L 268.865394 54.57956 
L 268.274681 54.57956 
L 268.073717 54.378133 
L 269.060268 54.7832 
L 269.456106 54.7832 
L 269.456106 54.984627 
L 269.255142 54.7832 
L 268.865394 54.7832 
L 268.865394 54.984627 
L 268.664429 54.984627 
L 268.865394 54.57956 
L 268.274681 55.996187 
L 268.469555 55.389693 
L 268.865394 55.389693 
L 269.255142 55.59112 
L 268.865394 55.59112 
L 268.274681 55.389693 
L 267.878842 55.792547 
L 267.878842 55.792547 
L 268.073717 55.389693 
L 268.274681 55.389693 
L 267.677878 56.197613 
L 268.664429 55.792547 
L 268.664429 55.996187 
L 268.274681 55.996187 
L 268.469555 56.401253 
L 269.456106 56.401253 
L 269.060268 56.804107 
L 268.664429 57.4106 
L 268.664429 57.815667 
L 268.865394 57.815667 
L 268.865394 57.4106 
L 269.060268 57.4106 
L 269.845855 57.815667 
L 269.845855 57.007747 
L 269.845855 57.007747 
L 269.650981 57.209173 
L 268.865394 57.61424 
L 268.865394 58.019307 
L 269.060268 58.220733 
L 269.060268 58.220733 
L 269.255142 58.220733 
L 269.255142 58.42216 
L 268.865394 59.030867 
L 268.865394 59.030867 
L 268.274681 59.030867 
L 267.878842 59.232293 
L 267.878842 59.43372 
L 268.469555 59.838787 
L 268.664429 60.243853 
L 268.469555 60.44528 
L 268.274681 59.838787 
L 268.274681 60.040213 
L 268.664429 60.44528 
L 269.060268 60.64892 
L 269.060268 60.850347 
L 268.865394 60.850347 
L 268.664429 60.64892 
L 268.865394 60.243853 
L 269.060268 60.44528 
L 269.060268 60.64892 
L 269.255142 61.051773 
L 269.255142 61.861907 
L 268.664429 62.266973 
L 268.664429 62.4684 
L 268.664429 61.66048 
L 268.469555 61.45684 
L 268.469555 62.266973 
L 268.274681 62.4684 
L 268.073717 62.4684 
L 268.469555 62.063333 
L 268.865394 62.063333 
L 268.865394 62.4684 
L 268.469555 62.669827 
L 268.664429 62.266973 
L 269.060268 61.861907 
L 269.255142 61.861907 
L 268.865394 62.063333 
L 268.865394 63.278533 
L 268.664429 63.47996 
L 267.878842 63.074893 
L 266.697417 62.873467 
L 265.515991 63.074893 
L 263.938727 63.074893 
L 258.817186 63.47996 
L 256.058496 63.885027 
L 252.903968 64.692947 
L 249.950404 65.908147 
L 246.99684 67.929053 
L 244.23815 70.35724 
L 241.284586 72.581787 
L 238.525896 74.806333 
L 235.767206 77.639587 
L 233.203391 80.875693 
L 230.444701 83.910373 
L 223.751986 90.382587 
L 220.006745 93.618693 
L 216.657342 96.8548 
L 213.502814 100.495973 
L 210.153412 104.137147 
L 202.273181 111.419493 
L 198.333065 115.66716 
L 194.593914 119.30612 
L 190.848673 122.745867 
L 186.713683 126.1834 
L 182.773568 129.824573 
L 178.833453 133.669387 
L 174.893337 137.917053 
L 168.194532 145.805893 
L 164.650255 149.042 
L 161.300853 152.278107 
L 157.95145 155.91928 
L 154.407173 159.963307 
L 151.252645 163.80812 
L 148.889794 167.44708 
L 143.963127 174.122933 
L 141.009563 177.965533 
L 133.324207 188.687627 
L 130.565517 192.731653 
L 127.611953 196.372827 
L 122.094573 202.442187 
L 120.127561 205.0718 
L 116.778158 210.532453 
L 114.805055 213.363493 
L 110.670066 218.421293 
L 109.092802 221.455973 
L 105.944363 230.152733 
L 104.561973 232.782347 
L 103.380548 235.817027 
L 99.245558 244.10872 
L 97.863168 246.738333 
L 96.876617 248.965093 
L 96.285904 250.784573 
L 95.896155 252.604053 
L 96.285904 254.830813 
L 96.876617 257.256787 
L 97.272455 259.481333 
L 97.668294 263.122507 
L 97.668294 264.74056 
L 97.863168 266.562253 
L 99.245558 272.427973 
L 99.245558 273.439533 
L 98.84972 275.865507 
L 98.453881 276.67564 
L 98.453881 277.48356 
L 98.654845 278.293693 
L 99.245558 279.71032 
L 98.654845 281.328373 
L 98.654845 282.339933 
L 98.84972 283.55292 
L 99.245558 283.957987 
L 99.245558 284.56448 
L 99.044594 285.170973 
L 98.84972 285.3724 
L 98.259007 285.777467 
L 98.453881 285.981107 
L 98.654845 286.5876 
L 98.654845 287.194093 
L 98.259007 287.59916 
L 97.668294 288.002013 
L 97.668294 288.40708 
L 98.453881 288.812147 
L 98.453881 288.812147 
L 98.259007 289.013573 
L 98.064132 288.812147 
L 98.064132 289.41864 
L 98.259007 290.4302 
L 98.654845 291.23812 
L 98.453881 291.44176 
L 98.064132 291.44176 
L 97.47342 291.846827 
L 97.47342 292.048253 
L 98.259007 292.048253 
L 97.668294 292.654747 
L 97.077581 292.858387 
L 96.681743 292.858387 
L 96.681743 292.858387 
L 97.863168 292.45332 
L 97.863168 292.654747 
L 97.668294 293.26124 
L 97.668294 293.666307 
L 98.064132 293.867733 
L 97.863168 293.666307 
L 97.668294 293.46488 
L 97.47342 293.666307 
L 97.668294 293.666307 
L 97.863168 293.867733 
L 97.668294 294.2728 
L 97.47342 294.2728 
L 97.668294 293.666307 
L 98.064132 293.666307 
L 98.064132 294.071373 
L 97.47342 294.677867 
L 97.47342 294.2728 
L 97.668294 294.071373 
L 97.863168 294.071373 
L 97.863168 294.071373 
L 97.863168 293.867733 
L 98.064132 293.867733 
L 98.064132 294.071373 
L 97.272455 294.677867 
L 97.47342 294.879293 
L 97.863168 294.47644 
L 98.064132 294.071373 
L 98.064132 294.2728 
L 98.453881 295.28436 
L 98.453881 295.082933 
L 98.064132 294.879293 
L 98.064132 294.879293 
L 98.84972 294.879293 
L 98.259007 295.488 
L 97.863168 295.488 
L 97.47342 294.677867 
L 97.863168 294.677867 
L 98.259007 294.47644 
L 98.84972 294.47644 
L 98.84972 294.47644 
L 98.453881 294.2728 
L 98.259007 293.867733 
L 98.259007 293.867733 
L 98.453881 293.867733 
L 99.044594 294.2728 
L 98.654845 294.47644 
L 98.064132 294.47644 
L 98.064132 294.071373 
L 98.84972 293.46488 
L 98.654845 293.26124 
L 98.453881 293.46488 
L 98.453881 293.867733 
L 98.654845 294.2728 
L 99.044594 294.2728 
L 99.440432 294.071373 
L 99.440432 293.867733 
L 99.245558 293.666307 
L 98.654845 293.666307 
L 98.453881 293.46488 
L 98.654845 293.059813 
L 99.044594 292.654747 
L 99.245558 292.858387 
L 99.245558 293.26124 
L 98.84972 293.26124 
L 99.044594 293.059813 
L 99.044594 292.45332 
L 98.84972 292.858387 
L 98.84972 293.26124 
L 98.84972 293.059813 
L 99.044594 292.45332 
L 99.044594 292.45332 
L 98.654845 292.24968 
L 98.654845 292.24968 
L 99.044594 292.858387 
L 100.031145 291.846827 
L 100.031145 291.643187 
L 99.635307 291.846827 
L 99.245558 292.24968 
L 99.440432 292.45332 
L 99.635307 292.24968 
L 99.635307 291.846827 
L 100.031145 292.048253 
L 100.426984 292.048253 
L 100.426984 291.643187 
L 100.031145 291.23812 
L 100.031145 291.23812 
L 100.031145 292.048253 
L 100.426984 292.24968 
L 101.017696 292.048253 
L 101.017696 291.846827 
L 100.426984 291.846827 
L 100.226019 291.643187 
L 100.426984 291.44176 
L 100.816732 291.23812 
L 100.816732 291.44176 
L 100.621858 291.643187 
L 100.426984 291.643187 
L 100.226019 291.23812 
L 100.031145 291.23812 
L 100.226019 291.036693 
L 100.816732 291.44176 
L 100.621858 291.23812 
L 100.426984 290.835267 
L 100.621858 290.835267 
L 100.816732 291.036693 
L 101.017696 291.44176 
L 101.017696 291.846827 
L 101.413535 290.835267 
L 102.199122 290.4302 
L 102.004248 290.4302 
L 101.803284 290.025133 
L 102.004248 289.823707 
L 102.393996 289.620067 
L 102.199122 289.41864 
L 102.004248 289.41864 
L 101.803284 289.620067 
L 101.608409 289.620067 
L 102.004248 289.620067 
L 102.199122 289.823707 
L 102.199122 290.025133 
L 102.199122 290.025133 
L 102.984709 290.025133 
L 103.380548 290.4302 
L 103.575422 290.835267 
L 103.185673 289.823707 
L 103.185673 289.620067 
L 103.575422 289.620067 
L 103.971261 289.823707 
L 103.776386 290.025133 
L 103.185673 290.025133 
L 103.380548 290.025133 
L 103.776386 290.228773 
L 103.776386 290.228773 
L 103.971261 290.025133 
L 104.367099 289.41864 
L 104.166135 289.217213 
L 104.166135 288.812147 
L 105.152686 288.40708 
L 105.35365 288.61072 
L 105.743399 288.812147 
L 105.548525 289.013573 
L 105.152686 289.013573 
L 104.957812 289.41864 
L 104.957812 290.025133 
L 105.35365 290.025133 
L 105.944363 289.823707 
L 105.944363 289.013573 
L 106.139237 288.812147 
L 106.139237 288.61072 
L 107.716502 288.61072 
L 108.307214 288.40708 
L 109.293766 287.800587 
L 115.986481 284.969547 
L 118.745171 283.55292 
L 122.685286 282.136293 
L 138.250873 277.888627 
L 144.358966 276.069147 
L 158.146325 272.83304 
L 179.61904 269.393293 
L 195.379501 267.77524 
L 212.321388 266.157187 
L 220.792332 265.75212 
L 228.873527 265.95576 
L 236.948632 265.550693 
L 245.023737 264.74056 
L 253.695645 264.337707 
L 261.965624 264.337707 
L 277.531211 264.74056 
L 285.807281 264.539133 
L 294.667973 264.539133 
L 303.138917 264.74056 
L 311.220111 264.74056 
L 326.584734 264.337707 
L 334.270091 264.337707 
L 348.05745 264.74056 
L 361.059222 264.74056 
L 370.711591 265.550693 
L 375.242419 265.550693 
L 386.076214 266.157187 
L 388.445155 266.358613 
L 391.989432 265.95576 
L 393.365732 266.358613 
L 394.352283 267.168747 
L 394.748122 267.77524 
L 394.157409 267.77524 
L 393.76157 267.97888 
L 393.76157 267.97888 
L 393.566696 268.381733 
L 393.566696 269.191867 
L 394.157409 269.191867 
L 394.748122 269.393293 
L 395.338834 269.999787 
L 395.338834 270.404853 
L 395.533709 270.60628 
L 395.734673 270.60628 
L 395.929547 271.011347 
L 395.734673 271.214987 
L 395.734673 271.214987 
L 395.533709 271.011347 
L 395.734673 270.80992 
L 395.929547 270.80992 
L 395.929547 271.214987 
L 395.734673 271.214987 
L 395.929547 270.80992 
L 396.124421 270.80992 
L 395.929547 271.011347 
L 395.734673 270.80992 
L 396.124421 270.404853 
L 396.52026 270.404853 
L 396.52026 270.60628 
L 396.52026 270.60628 
L 396.916098 270.203427 
L 396.52026 269.999787 
L 396.124421 269.999787 
L 396.52026 270.80992 
L 397.110973 270.80992 
L 398.097524 269.999787 
L 398.292398 269.596933 
L 398.097524 269.596933 
L 398.292398 270.203427 
L 398.097524 270.203427 
L 397.701686 269.999787 
L 397.305847 269.999787 
L 397.110973 270.203427 
L 397.110973 270.404853 
L 396.715134 270.80992 
L 396.916098 270.80992 
L 397.701686 270.404853 
L 398.487273 270.203427 
L 398.487273 270.203427 
" style="fill:none;stroke:#1f77b4;stroke-linecap:square;stroke-width:1.5;"/>
   </g>
   <g id="matplotlib.axis_1">
    <g id="xtick_1">
     <g id="line2d_2">
      <defs>
       <path d="M 0 0 
L 0 3.5 
" id="mc1b3304e38" style="stroke:#000000;stroke-width:0.8;"/>
      </defs>
      <g>
       <use style="stroke:#000000;stroke-width:0.8;" x="64.423951" xlink:href="#mc1b3304e38" y="307.584"/>
      </g>
     </g>
     <g id="text_1">
      <!-- −400 -->
      <defs>
       <path d="M 10.59375 35.5 
L 73.1875 35.5 
L 73.1875 27.203125 
L 10.59375 27.203125 
z
" id="DejaVuSans-8722"/>
       <path d="M 37.796875 64.3125 
L 12.890625 25.390625 
L 37.796875 25.390625 
z
M 35.203125 72.90625 
L 47.609375 72.90625 
L 47.609375 25.390625 
L 58.015625 25.390625 
L 58.015625 17.1875 
L 47.609375 17.1875 
L 47.609375 0 
L 37.796875 0 
L 37.796875 17.1875 
L 4.890625 17.1875 
L 4.890625 26.703125 
z
" id="DejaVuSans-52"/>
       <path d="M 31.78125 66.40625 
Q 24.171875 66.40625 20.328125 58.90625 
Q 16.5 51.421875 16.5 36.375 
Q 16.5 21.390625 20.328125 13.890625 
Q 24.171875 6.390625 31.78125 6.390625 
Q 39.453125 6.390625 43.28125 13.890625 
Q 47.125 21.390625 47.125 36.375 
Q 47.125 51.421875 43.28125 58.90625 
Q 39.453125 66.40625 31.78125 66.40625 
z
M 31.78125 74.21875 
Q 44.046875 74.21875 50.515625 64.515625 
Q 56.984375 54.828125 56.984375 36.375 
Q 56.984375 17.96875 50.515625 8.265625 
Q 44.046875 -1.421875 31.78125 -1.421875 
Q 19.53125 -1.421875 13.0625 8.265625 
Q 6.59375 17.96875 6.59375 36.375 
Q 6.59375 54.828125 13.0625 64.515625 
Q 19.53125 74.21875 31.78125 74.21875 
z
" id="DejaVuSans-48"/>
      </defs>
      <g transform="translate(50.690357 322.182437)scale(0.1 -0.1)">
       <use xlink:href="#DejaVuSans-8722"/>
       <use x="83.789062" xlink:href="#DejaVuSans-52"/>
       <use x="147.412109" xlink:href="#DejaVuSans-48"/>
       <use x="211.035156" xlink:href="#DejaVuSans-48"/>
      </g>
     </g>
    </g>
    <g id="xtick_2">
     <g id="line2d_3">
      <g>
       <use style="stroke:#000000;stroke-width:0.8;" x="125.322179" xlink:href="#mc1b3304e38" y="307.584"/>
      </g>
     </g>
     <g id="text_2">
      <!-- −300 -->
      <defs>
       <path d="M 40.578125 39.3125 
Q 47.65625 37.796875 51.625 33 
Q 55.609375 28.21875 55.609375 21.1875 
Q 55.609375 10.40625 48.1875 4.484375 
Q 40.765625 -1.421875 27.09375 -1.421875 
Q 22.515625 -1.421875 17.65625 -0.515625 
Q 12.796875 0.390625 7.625 2.203125 
L 7.625 11.71875 
Q 11.71875 9.328125 16.59375 8.109375 
Q 21.484375 6.890625 26.8125 6.890625 
Q 36.078125 6.890625 40.9375 10.546875 
Q 45.796875 14.203125 45.796875 21.1875 
Q 45.796875 27.640625 41.28125 31.265625 
Q 36.765625 34.90625 28.71875 34.90625 
L 20.21875 34.90625 
L 20.21875 43.015625 
L 29.109375 43.015625 
Q 36.375 43.015625 40.234375 45.921875 
Q 44.09375 48.828125 44.09375 54.296875 
Q 44.09375 59.90625 40.109375 62.90625 
Q 36.140625 65.921875 28.71875 65.921875 
Q 24.65625 65.921875 20.015625 65.03125 
Q 15.375 64.15625 9.8125 62.3125 
L 9.8125 71.09375 
Q 15.4375 72.65625 20.34375 73.4375 
Q 25.25 74.21875 29.59375 74.21875 
Q 40.828125 74.21875 47.359375 69.109375 
Q 53.90625 64.015625 53.90625 55.328125 
Q 53.90625 49.265625 50.4375 45.09375 
Q 46.96875 40.921875 40.578125 39.3125 
z
" id="DejaVuSans-51"/>
      </defs>
      <g transform="translate(111.588586 322.182437)scale(0.1 -0.1)">
       <use xlink:href="#DejaVuSans-8722"/>
       <use x="83.789062" xlink:href="#DejaVuSans-51"/>
       <use x="147.412109" xlink:href="#DejaVuSans-48"/>
       <use x="211.035156" xlink:href="#DejaVuSans-48"/>
      </g>
     </g>
    </g>
    <g id="xtick_3">
     <g id="line2d_4">
      <g>
       <use style="stroke:#000000;stroke-width:0.8;" x="186.220408" xlink:href="#mc1b3304e38" y="307.584"/>
      </g>
     </g>
     <g id="text_3">
      <!-- −200 -->
      <defs>
       <path d="M 19.1875 8.296875 
L 53.609375 8.296875 
L 53.609375 0 
L 7.328125 0 
L 7.328125 8.296875 
Q 12.9375 14.109375 22.625 23.890625 
Q 32.328125 33.6875 34.8125 36.53125 
Q 39.546875 41.84375 41.421875 45.53125 
Q 43.3125 49.21875 43.3125 52.78125 
Q 43.3125 58.59375 39.234375 62.25 
Q 35.15625 65.921875 28.609375 65.921875 
Q 23.96875 65.921875 18.8125 64.3125 
Q 13.671875 62.703125 7.8125 59.421875 
L 7.8125 69.390625 
Q 13.765625 71.78125 18.9375 73 
Q 24.125 74.21875 28.421875 74.21875 
Q 39.75 74.21875 46.484375 68.546875 
Q 53.21875 62.890625 53.21875 53.421875 
Q 53.21875 48.921875 51.53125 44.890625 
Q 49.859375 40.875 45.40625 35.40625 
Q 44.1875 33.984375 37.640625 27.21875 
Q 31.109375 20.453125 19.1875 8.296875 
z
" id="DejaVuSans-50"/>
      </defs>
      <g transform="translate(172.486814 322.182437)scale(0.1 -0.1)">
       <use xlink:href="#DejaVuSans-8722"/>
       <use x="83.789062" xlink:href="#DejaVuSans-50"/>
       <use x="147.412109" xlink:href="#DejaVuSans-48"/>
       <use x="211.035156" xlink:href="#DejaVuSans-48"/>
      </g>
     </g>
    </g>
    <g id="xtick_4">
     <g id="line2d_5">
      <g>
       <use style="stroke:#000000;stroke-width:0.8;" x="247.118636" xlink:href="#mc1b3304e38" y="307.584"/>
      </g>
     </g>
     <g id="text_4">
      <!-- −100 -->
      <defs>
       <path d="M 12.40625 8.296875 
L 28.515625 8.296875 
L 28.515625 63.921875 
L 10.984375 60.40625 
L 10.984375 69.390625 
L 28.421875 72.90625 
L 38.28125 72.90625 
L 38.28125 8.296875 
L 54.390625 8.296875 
L 54.390625 0 
L 12.40625 0 
z
" id="DejaVuSans-49"/>
      </defs>
      <g transform="translate(233.385042 322.182437)scale(0.1 -0.1)">
       <use xlink:href="#DejaVuSans-8722"/>
       <use x="83.789062" xlink:href="#DejaVuSans-49"/>
       <use x="147.412109" xlink:href="#DejaVuSans-48"/>
       <use x="211.035156" xlink:href="#DejaVuSans-48"/>
      </g>
     </g>
    </g>
    <g id="xtick_5">
     <g id="line2d_6">
      <g>
       <use style="stroke:#000000;stroke-width:0.8;" x="308.016865" xlink:href="#mc1b3304e38" y="307.584"/>
      </g>
     </g>
     <g id="text_5">
      <!-- 0 -->
      <g transform="translate(304.835615 322.182437)scale(0.1 -0.1)">
       <use xlink:href="#DejaVuSans-48"/>
      </g>
     </g>
    </g>
    <g id="xtick_6">
     <g id="line2d_7">
      <g>
       <use style="stroke:#000000;stroke-width:0.8;" x="368.915093" xlink:href="#mc1b3304e38" y="307.584"/>
      </g>
     </g>
     <g id="text_6">
      <!-- 100 -->
      <g transform="translate(359.371343 322.182437)scale(0.1 -0.1)">
       <use xlink:href="#DejaVuSans-49"/>
       <use x="63.623047" xlink:href="#DejaVuSans-48"/>
       <use x="127.246094" xlink:href="#DejaVuSans-48"/>
      </g>
     </g>
    </g>
   </g>
   <g id="matplotlib.axis_2">
    <g id="ytick_1">
     <g id="line2d_8">
      <defs>
       <path d="M 0 0 
L -3.5 0 
" id="m353829240f" style="stroke:#000000;stroke-width:0.8;"/>
      </defs>
      <g>
       <use style="stroke:#000000;stroke-width:0.8;" x="57.6" xlink:href="#m353829240f" y="299.166802"/>
      </g>
     </g>
     <g id="text_7">
      <!-- −800 -->
      <defs>
       <path d="M 31.78125 34.625 
Q 24.75 34.625 20.71875 30.859375 
Q 16.703125 27.09375 16.703125 20.515625 
Q 16.703125 13.921875 20.71875 10.15625 
Q 24.75 6.390625 31.78125 6.390625 
Q 38.8125 6.390625 42.859375 10.171875 
Q 46.921875 13.96875 46.921875 20.515625 
Q 46.921875 27.09375 42.890625 30.859375 
Q 38.875 34.625 31.78125 34.625 
z
M 21.921875 38.8125 
Q 15.578125 40.375 12.03125 44.71875 
Q 8.5 49.078125 8.5 55.328125 
Q 8.5 64.0625 14.71875 69.140625 
Q 20.953125 74.21875 31.78125 74.21875 
Q 42.671875 74.21875 48.875 69.140625 
Q 55.078125 64.0625 55.078125 55.328125 
Q 55.078125 49.078125 51.53125 44.71875 
Q 48 40.375 41.703125 38.8125 
Q 48.828125 37.15625 52.796875 32.3125 
Q 56.78125 27.484375 56.78125 20.515625 
Q 56.78125 9.90625 50.3125 4.234375 
Q 43.84375 -1.421875 31.78125 -1.421875 
Q 19.734375 -1.421875 13.25 4.234375 
Q 6.78125 9.90625 6.78125 20.515625 
Q 6.78125 27.484375 10.78125 32.3125 
Q 14.796875 37.15625 21.921875 38.8125 
z
M 18.3125 54.390625 
Q 18.3125 48.734375 21.84375 45.5625 
Q 25.390625 42.390625 31.78125 42.390625 
Q 38.140625 42.390625 41.71875 45.5625 
Q 45.3125 48.734375 45.3125 54.390625 
Q 45.3125 60.0625 41.71875 63.234375 
Q 38.140625 66.40625 31.78125 66.40625 
Q 25.390625 66.40625 21.84375 63.234375 
Q 18.3125 60.0625 18.3125 54.390625 
z
" id="DejaVuSans-56"/>
      </defs>
      <g transform="translate(23.132812 302.966021)scale(0.1 -0.1)">
       <use xlink:href="#DejaVuSans-8722"/>
       <use x="83.789062" xlink:href="#DejaVuSans-56"/>
       <use x="147.412109" xlink:href="#DejaVuSans-48"/>
       <use x="211.035156" xlink:href="#DejaVuSans-48"/>
      </g>
     </g>
    </g>
    <g id="ytick_2">
     <g id="line2d_9">
      <g>
       <use style="stroke:#000000;stroke-width:0.8;" x="57.6" xlink:href="#m353829240f" y="254.897218"/>
      </g>
     </g>
     <g id="text_8">
      <!-- −600 -->
      <defs>
       <path d="M 33.015625 40.375 
Q 26.375 40.375 22.484375 35.828125 
Q 18.609375 31.296875 18.609375 23.390625 
Q 18.609375 15.53125 22.484375 10.953125 
Q 26.375 6.390625 33.015625 6.390625 
Q 39.65625 6.390625 43.53125 10.953125 
Q 47.40625 15.53125 47.40625 23.390625 
Q 47.40625 31.296875 43.53125 35.828125 
Q 39.65625 40.375 33.015625 40.375 
z
M 52.59375 71.296875 
L 52.59375 62.3125 
Q 48.875 64.0625 45.09375 64.984375 
Q 41.3125 65.921875 37.59375 65.921875 
Q 27.828125 65.921875 22.671875 59.328125 
Q 17.53125 52.734375 16.796875 39.40625 
Q 19.671875 43.65625 24.015625 45.921875 
Q 28.375 48.1875 33.59375 48.1875 
Q 44.578125 48.1875 50.953125 41.515625 
Q 57.328125 34.859375 57.328125 23.390625 
Q 57.328125 12.15625 50.6875 5.359375 
Q 44.046875 -1.421875 33.015625 -1.421875 
Q 20.359375 -1.421875 13.671875 8.265625 
Q 6.984375 17.96875 6.984375 36.375 
Q 6.984375 53.65625 15.1875 63.9375 
Q 23.390625 74.21875 37.203125 74.21875 
Q 40.921875 74.21875 44.703125 73.484375 
Q 48.484375 72.75 52.59375 71.296875 
z
" id="DejaVuSans-54"/>
      </defs>
      <g transform="translate(23.132812 258.696436)scale(0.1 -0.1)">
       <use xlink:href="#DejaVuSans-8722"/>
       <use x="83.789062" xlink:href="#DejaVuSans-54"/>
       <use x="147.412109" xlink:href="#DejaVuSans-48"/>
       <use x="211.035156" xlink:href="#DejaVuSans-48"/>
      </g>
     </g>
    </g>
    <g id="ytick_3">
     <g id="line2d_10">
      <g>
       <use style="stroke:#000000;stroke-width:0.8;" x="57.6" xlink:href="#m353829240f" y="210.627633"/>
      </g>
     </g>
     <g id="text_9">
      <!-- −400 -->
      <g transform="translate(23.132812 214.426852)scale(0.1 -0.1)">
       <use xlink:href="#DejaVuSans-8722"/>
       <use x="83.789062" xlink:href="#DejaVuSans-52"/>
       <use x="147.412109" xlink:href="#DejaVuSans-48"/>
       <use x="211.035156" xlink:href="#DejaVuSans-48"/>
      </g>
     </g>
    </g>
    <g id="ytick_4">
     <g id="line2d_11">
      <g>
       <use style="stroke:#000000;stroke-width:0.8;" x="57.6" xlink:href="#m353829240f" y="166.358048"/>
      </g>
     </g>
     <g id="text_10">
      <!-- −200 -->
      <g transform="translate(23.132812 170.157267)scale(0.1 -0.1)">
       <use xlink:href="#DejaVuSans-8722"/>
       <use x="83.789062" xlink:href="#DejaVuSans-50"/>
       <use x="147.412109" xlink:href="#DejaVuSans-48"/>
       <use x="211.035156" xlink:href="#DejaVuSans-48"/>
      </g>
     </g>
    </g>
    <g id="ytick_5">
     <g id="line2d_12">
      <g>
       <use style="stroke:#000000;stroke-width:0.8;" x="57.6" xlink:href="#m353829240f" y="122.088463"/>
      </g>
     </g>
     <g id="text_11">
      <!-- 0 -->
      <g transform="translate(44.2375 125.887682)scale(0.1 -0.1)">
       <use xlink:href="#DejaVuSans-48"/>
      </g>
     </g>
    </g>
    <g id="ytick_6">
     <g id="line2d_13">
      <g>
       <use style="stroke:#000000;stroke-width:0.8;" x="57.6" xlink:href="#m353829240f" y="77.818879"/>
      </g>
     </g>
     <g id="text_12">
      <!-- 200 -->
      <g transform="translate(31.5125 81.618097)scale(0.1 -0.1)">
       <use xlink:href="#DejaVuSans-50"/>
       <use x="63.623047" xlink:href="#DejaVuSans-48"/>
       <use x="127.246094" xlink:href="#DejaVuSans-48"/>
      </g>
     </g>
    </g>
   </g>
   <g id="line2d_14">
    <path clip-path="url(#pb9b16cdb62)" d="M 290.086629 206.535164 
L 305.080474 199.453379 
L 388.043892 242.181072 
L 267.981917 60.534793 
L 100.027306 288.012994 
" style="fill:none;stroke:#ff0000;stroke-linecap:square;stroke-width:0.5;"/>
   </g>
   <g id="patch_3">
    <path d="M 57.6 307.584 
L 57.6 41.472 
" style="fill:none;stroke:#000000;stroke-linecap:square;stroke-linejoin:miter;stroke-width:0.8;"/>
   </g>
   <g id="patch_4">
    <path d="M 414.72 307.584 
L 414.72 41.472 
" style="fill:none;stroke:#000000;stroke-linecap:square;stroke-linejoin:miter;stroke-width:0.8;"/>
   </g>
   <g id="patch_5">
    <path d="M 57.6 307.584 
L 414.72 307.584 
" style="fill:none;stroke:#000000;stroke-linecap:square;stroke-linejoin:miter;stroke-width:0.8;"/>
   </g>
   <g id="patch_6">
    <path d="M 57.6 41.472 
L 414.72 41.472 
" style="fill:none;stroke:#000000;stroke-linecap:square;stroke-linejoin:miter;stroke-width:0.8;"/>
   </g>
   <g id="PathCollection_1">
    <defs>
     <path d="M 0 2.738613 
C 0.726289 2.738613 1.422928 2.450055 1.936492 1.936492 
C 2.450055 1.422928 2.738613 0.726289 2.738613 0 
C 2.738613 -0.726289 2.450055 -1.422928 1.936492 -1.936492 
C 1.422928 -2.450055 0.726289 -2.738613 0 -2.738613 
C -0.726289 -2.738613 -1.422928 -2.450055 -1.936492 -1.936492 
C -2.450055 -1.422928 -2.738613 -0.726289 -2.738613 0 
C -2.738613 0.726289 -2.450055 1.422928 -1.936492 1.936492 
C -1.422928 2.450055 -0.726289 2.738613 0 2.738613 
z
" id="m38084e0e61" style="stroke:#ff0000;"/>
    </defs>
    <g clip-path="url(#pb9b16cdb62)">
     <use style="fill:#ff0000;stroke:#ff0000;" x="290.086629" xlink:href="#m38084e0e61" y="206.535164"/>
     <use style="fill:#ff0000;stroke:#ff0000;" x="305.080474" xlink:href="#m38084e0e61" y="199.453379"/>
     <use style="fill:#ff0000;stroke:#ff0000;" x="388.043892" xlink:href="#m38084e0e61" y="242.181072"/>
     <use style="fill:#ff0000;stroke:#ff0000;" x="267.981917" xlink:href="#m38084e0e61" y="60.534793"/>
     <use style="fill:#ff0000;stroke:#ff0000;" x="100.027306" xlink:href="#m38084e0e61" y="288.012994"/>
    </g>
   </g>
   <g id="text_13">
    <!-- (110) Subject: s27, Known = True, Degree = 2, Duration = 0.1 -->
    <defs>
     <path d="M 31 75.875 
Q 24.46875 64.65625 21.28125 53.65625 
Q 18.109375 42.671875 18.109375 31.390625 
Q 18.109375 20.125 21.3125 9.0625 
Q 24.515625 -2 31 -13.1875 
L 23.1875 -13.1875 
Q 15.875 -1.703125 12.234375 9.375 
Q 8.59375 20.453125 8.59375 31.390625 
Q 8.59375 42.28125 12.203125 53.3125 
Q 15.828125 64.359375 23.1875 75.875 
z
" id="DejaVuSans-40"/>
     <path d="M 8.015625 75.875 
L 15.828125 75.875 
Q 23.140625 64.359375 26.78125 53.3125 
Q 30.421875 42.28125 30.421875 31.390625 
Q 30.421875 20.453125 26.78125 9.375 
Q 23.140625 -1.703125 15.828125 -13.1875 
L 8.015625 -13.1875 
Q 14.5 -2 17.703125 9.0625 
Q 20.90625 20.125 20.90625 31.390625 
Q 20.90625 42.671875 17.703125 53.65625 
Q 14.5 64.65625 8.015625 75.875 
z
" id="DejaVuSans-41"/>
     <path id="DejaVuSans-32"/>
     <path d="M 53.515625 70.515625 
L 53.515625 60.890625 
Q 47.90625 63.578125 42.921875 64.890625 
Q 37.9375 66.21875 33.296875 66.21875 
Q 25.25 66.21875 20.875 63.09375 
Q 16.5 59.96875 16.5 54.203125 
Q 16.5 49.359375 19.40625 46.890625 
Q 22.3125 44.4375 30.421875 42.921875 
L 36.375 41.703125 
Q 47.40625 39.59375 52.65625 34.296875 
Q 57.90625 29 57.90625 20.125 
Q 57.90625 9.515625 50.796875 4.046875 
Q 43.703125 -1.421875 29.984375 -1.421875 
Q 24.8125 -1.421875 18.96875 -0.25 
Q 13.140625 0.921875 6.890625 3.21875 
L 6.890625 13.375 
Q 12.890625 10.015625 18.65625 8.296875 
Q 24.421875 6.59375 29.984375 6.59375 
Q 38.421875 6.59375 43.015625 9.90625 
Q 47.609375 13.234375 47.609375 19.390625 
Q 47.609375 24.75 44.3125 27.78125 
Q 41.015625 30.8125 33.5 32.328125 
L 27.484375 33.5 
Q 16.453125 35.6875 11.515625 40.375 
Q 6.59375 45.0625 6.59375 53.421875 
Q 6.59375 63.09375 13.40625 68.65625 
Q 20.21875 74.21875 32.171875 74.21875 
Q 37.3125 74.21875 42.625 73.28125 
Q 47.953125 72.359375 53.515625 70.515625 
z
" id="DejaVuSans-83"/>
     <path d="M 8.5 21.578125 
L 8.5 54.6875 
L 17.484375 54.6875 
L 17.484375 21.921875 
Q 17.484375 14.15625 20.5 10.265625 
Q 23.53125 6.390625 29.59375 6.390625 
Q 36.859375 6.390625 41.078125 11.03125 
Q 45.3125 15.671875 45.3125 23.6875 
L 45.3125 54.6875 
L 54.296875 54.6875 
L 54.296875 0 
L 45.3125 0 
L 45.3125 8.40625 
Q 42.046875 3.421875 37.71875 1 
Q 33.40625 -1.421875 27.6875 -1.421875 
Q 18.265625 -1.421875 13.375 4.4375 
Q 8.5 10.296875 8.5 21.578125 
z
M 31.109375 56 
z
" id="DejaVuSans-117"/>
     <path d="M 48.6875 27.296875 
Q 48.6875 37.203125 44.609375 42.84375 
Q 40.53125 48.484375 33.40625 48.484375 
Q 26.265625 48.484375 22.1875 42.84375 
Q 18.109375 37.203125 18.109375 27.296875 
Q 18.109375 17.390625 22.1875 11.75 
Q 26.265625 6.109375 33.40625 6.109375 
Q 40.53125 6.109375 44.609375 11.75 
Q 48.6875 17.390625 48.6875 27.296875 
z
M 18.109375 46.390625 
Q 20.953125 51.265625 25.265625 53.625 
Q 29.59375 56 35.59375 56 
Q 45.5625 56 51.78125 48.09375 
Q 58.015625 40.1875 58.015625 27.296875 
Q 58.015625 14.40625 51.78125 6.484375 
Q 45.5625 -1.421875 35.59375 -1.421875 
Q 29.59375 -1.421875 25.265625 0.953125 
Q 20.953125 3.328125 18.109375 8.203125 
L 18.109375 0 
L 9.078125 0 
L 9.078125 75.984375 
L 18.109375 75.984375 
z
" id="DejaVuSans-98"/>
     <path d="M 9.421875 54.6875 
L 18.40625 54.6875 
L 18.40625 -0.984375 
Q 18.40625 -11.421875 14.421875 -16.109375 
Q 10.453125 -20.796875 1.609375 -20.796875 
L -1.8125 -20.796875 
L -1.8125 -13.1875 
L 0.59375 -13.1875 
Q 5.71875 -13.1875 7.5625 -10.8125 
Q 9.421875 -8.453125 9.421875 -0.984375 
z
M 9.421875 75.984375 
L 18.40625 75.984375 
L 18.40625 64.59375 
L 9.421875 64.59375 
z
" id="DejaVuSans-106"/>
     <path d="M 56.203125 29.59375 
L 56.203125 25.203125 
L 14.890625 25.203125 
Q 15.484375 15.921875 20.484375 11.0625 
Q 25.484375 6.203125 34.421875 6.203125 
Q 39.59375 6.203125 44.453125 7.46875 
Q 49.3125 8.734375 54.109375 11.28125 
L 54.109375 2.78125 
Q 49.265625 0.734375 44.1875 -0.34375 
Q 39.109375 -1.421875 33.890625 -1.421875 
Q 20.796875 -1.421875 13.15625 6.1875 
Q 5.515625 13.8125 5.515625 26.8125 
Q 5.515625 40.234375 12.765625 48.109375 
Q 20.015625 56 32.328125 56 
Q 43.359375 56 49.78125 48.890625 
Q 56.203125 41.796875 56.203125 29.59375 
z
M 47.21875 32.234375 
Q 47.125 39.59375 43.09375 43.984375 
Q 39.0625 48.390625 32.421875 48.390625 
Q 24.90625 48.390625 20.390625 44.140625 
Q 15.875 39.890625 15.1875 32.171875 
z
" id="DejaVuSans-101"/>
     <path d="M 48.78125 52.59375 
L 48.78125 44.1875 
Q 44.96875 46.296875 41.140625 47.34375 
Q 37.3125 48.390625 33.40625 48.390625 
Q 24.65625 48.390625 19.8125 42.84375 
Q 14.984375 37.3125 14.984375 27.296875 
Q 14.984375 17.28125 19.8125 11.734375 
Q 24.65625 6.203125 33.40625 6.203125 
Q 37.3125 6.203125 41.140625 7.25 
Q 44.96875 8.296875 48.78125 10.40625 
L 48.78125 2.09375 
Q 45.015625 0.34375 40.984375 -0.53125 
Q 36.96875 -1.421875 32.421875 -1.421875 
Q 20.0625 -1.421875 12.78125 6.34375 
Q 5.515625 14.109375 5.515625 27.296875 
Q 5.515625 40.671875 12.859375 48.328125 
Q 20.21875 56 33.015625 56 
Q 37.15625 56 41.109375 55.140625 
Q 45.0625 54.296875 48.78125 52.59375 
z
" id="DejaVuSans-99"/>
     <path d="M 18.3125 70.21875 
L 18.3125 54.6875 
L 36.8125 54.6875 
L 36.8125 47.703125 
L 18.3125 47.703125 
L 18.3125 18.015625 
Q 18.3125 11.328125 20.140625 9.421875 
Q 21.96875 7.515625 27.59375 7.515625 
L 36.8125 7.515625 
L 36.8125 0 
L 27.59375 0 
Q 17.1875 0 13.234375 3.875 
Q 9.28125 7.765625 9.28125 18.015625 
L 9.28125 47.703125 
L 2.6875 47.703125 
L 2.6875 54.6875 
L 9.28125 54.6875 
L 9.28125 70.21875 
z
" id="DejaVuSans-116"/>
     <path d="M 11.71875 12.40625 
L 22.015625 12.40625 
L 22.015625 0 
L 11.71875 0 
z
M 11.71875 51.703125 
L 22.015625 51.703125 
L 22.015625 39.3125 
L 11.71875 39.3125 
z
" id="DejaVuSans-58"/>
     <path d="M 44.28125 53.078125 
L 44.28125 44.578125 
Q 40.484375 46.53125 36.375 47.5 
Q 32.28125 48.484375 27.875 48.484375 
Q 21.1875 48.484375 17.84375 46.4375 
Q 14.5 44.390625 14.5 40.28125 
Q 14.5 37.15625 16.890625 35.375 
Q 19.28125 33.59375 26.515625 31.984375 
L 29.59375 31.296875 
Q 39.15625 29.25 43.1875 25.515625 
Q 47.21875 21.78125 47.21875 15.09375 
Q 47.21875 7.46875 41.1875 3.015625 
Q 35.15625 -1.421875 24.609375 -1.421875 
Q 20.21875 -1.421875 15.453125 -0.5625 
Q 10.6875 0.296875 5.421875 2 
L 5.421875 11.28125 
Q 10.40625 8.6875 15.234375 7.390625 
Q 20.0625 6.109375 24.8125 6.109375 
Q 31.15625 6.109375 34.5625 8.28125 
Q 37.984375 10.453125 37.984375 14.40625 
Q 37.984375 18.0625 35.515625 20.015625 
Q 33.0625 21.96875 24.703125 23.78125 
L 21.578125 24.515625 
Q 13.234375 26.265625 9.515625 29.90625 
Q 5.8125 33.546875 5.8125 39.890625 
Q 5.8125 47.609375 11.28125 51.796875 
Q 16.75 56 26.8125 56 
Q 31.78125 56 36.171875 55.265625 
Q 40.578125 54.546875 44.28125 53.078125 
z
" id="DejaVuSans-115"/>
     <path d="M 8.203125 72.90625 
L 55.078125 72.90625 
L 55.078125 68.703125 
L 28.609375 0 
L 18.3125 0 
L 43.21875 64.59375 
L 8.203125 64.59375 
z
" id="DejaVuSans-55"/>
     <path d="M 11.71875 12.40625 
L 22.015625 12.40625 
L 22.015625 4 
L 14.015625 -11.625 
L 7.71875 -11.625 
L 11.71875 4 
z
" id="DejaVuSans-44"/>
     <path d="M 9.8125 72.90625 
L 19.671875 72.90625 
L 19.671875 42.09375 
L 52.390625 72.90625 
L 65.09375 72.90625 
L 28.90625 38.921875 
L 67.671875 0 
L 54.6875 0 
L 19.671875 35.109375 
L 19.671875 0 
L 9.8125 0 
z
" id="DejaVuSans-75"/>
     <path d="M 54.890625 33.015625 
L 54.890625 0 
L 45.90625 0 
L 45.90625 32.71875 
Q 45.90625 40.484375 42.875 44.328125 
Q 39.84375 48.1875 33.796875 48.1875 
Q 26.515625 48.1875 22.3125 43.546875 
Q 18.109375 38.921875 18.109375 30.90625 
L 18.109375 0 
L 9.078125 0 
L 9.078125 54.6875 
L 18.109375 54.6875 
L 18.109375 46.1875 
Q 21.34375 51.125 25.703125 53.5625 
Q 30.078125 56 35.796875 56 
Q 45.21875 56 50.046875 50.171875 
Q 54.890625 44.34375 54.890625 33.015625 
z
" id="DejaVuSans-110"/>
     <path d="M 30.609375 48.390625 
Q 23.390625 48.390625 19.1875 42.75 
Q 14.984375 37.109375 14.984375 27.296875 
Q 14.984375 17.484375 19.15625 11.84375 
Q 23.34375 6.203125 30.609375 6.203125 
Q 37.796875 6.203125 41.984375 11.859375 
Q 46.1875 17.53125 46.1875 27.296875 
Q 46.1875 37.015625 41.984375 42.703125 
Q 37.796875 48.390625 30.609375 48.390625 
z
M 30.609375 56 
Q 42.328125 56 49.015625 48.375 
Q 55.71875 40.765625 55.71875 27.296875 
Q 55.71875 13.875 49.015625 6.21875 
Q 42.328125 -1.421875 30.609375 -1.421875 
Q 18.84375 -1.421875 12.171875 6.21875 
Q 5.515625 13.875 5.515625 27.296875 
Q 5.515625 40.765625 12.171875 48.375 
Q 18.84375 56 30.609375 56 
z
" id="DejaVuSans-111"/>
     <path d="M 4.203125 54.6875 
L 13.1875 54.6875 
L 24.421875 12.015625 
L 35.59375 54.6875 
L 46.1875 54.6875 
L 57.421875 12.015625 
L 68.609375 54.6875 
L 77.59375 54.6875 
L 63.28125 0 
L 52.6875 0 
L 40.921875 44.828125 
L 29.109375 0 
L 18.5 0 
z
" id="DejaVuSans-119"/>
     <path d="M 10.59375 45.40625 
L 73.1875 45.40625 
L 73.1875 37.203125 
L 10.59375 37.203125 
z
M 10.59375 25.484375 
L 73.1875 25.484375 
L 73.1875 17.1875 
L 10.59375 17.1875 
z
" id="DejaVuSans-61"/>
     <path d="M -0.296875 72.90625 
L 61.375 72.90625 
L 61.375 64.59375 
L 35.5 64.59375 
L 35.5 0 
L 25.59375 0 
L 25.59375 64.59375 
L -0.296875 64.59375 
z
" id="DejaVuSans-84"/>
     <path d="M 41.109375 46.296875 
Q 39.59375 47.171875 37.8125 47.578125 
Q 36.03125 48 33.890625 48 
Q 26.265625 48 22.1875 43.046875 
Q 18.109375 38.09375 18.109375 28.8125 
L 18.109375 0 
L 9.078125 0 
L 9.078125 54.6875 
L 18.109375 54.6875 
L 18.109375 46.1875 
Q 20.953125 51.171875 25.484375 53.578125 
Q 30.03125 56 36.53125 56 
Q 37.453125 56 38.578125 55.875 
Q 39.703125 55.765625 41.0625 55.515625 
z
" id="DejaVuSans-114"/>
     <path d="M 19.671875 64.796875 
L 19.671875 8.109375 
L 31.59375 8.109375 
Q 46.6875 8.109375 53.6875 14.9375 
Q 60.6875 21.78125 60.6875 36.53125 
Q 60.6875 51.171875 53.6875 57.984375 
Q 46.6875 64.796875 31.59375 64.796875 
z
M 9.8125 72.90625 
L 30.078125 72.90625 
Q 51.265625 72.90625 61.171875 64.09375 
Q 71.09375 55.28125 71.09375 36.53125 
Q 71.09375 17.671875 61.125 8.828125 
Q 51.171875 0 30.078125 0 
L 9.8125 0 
z
" id="DejaVuSans-68"/>
     <path d="M 45.40625 27.984375 
Q 45.40625 37.75 41.375 43.109375 
Q 37.359375 48.484375 30.078125 48.484375 
Q 22.859375 48.484375 18.828125 43.109375 
Q 14.796875 37.75 14.796875 27.984375 
Q 14.796875 18.265625 18.828125 12.890625 
Q 22.859375 7.515625 30.078125 7.515625 
Q 37.359375 7.515625 41.375 12.890625 
Q 45.40625 18.265625 45.40625 27.984375 
z
M 54.390625 6.78125 
Q 54.390625 -7.171875 48.1875 -13.984375 
Q 42 -20.796875 29.203125 -20.796875 
Q 24.46875 -20.796875 20.265625 -20.09375 
Q 16.0625 -19.390625 12.109375 -17.921875 
L 12.109375 -9.1875 
Q 16.0625 -11.328125 19.921875 -12.34375 
Q 23.78125 -13.375 27.78125 -13.375 
Q 36.625 -13.375 41.015625 -8.765625 
Q 45.40625 -4.15625 45.40625 5.171875 
L 45.40625 9.625 
Q 42.625 4.78125 38.28125 2.390625 
Q 33.9375 0 27.875 0 
Q 17.828125 0 11.671875 7.65625 
Q 5.515625 15.328125 5.515625 27.984375 
Q 5.515625 40.671875 11.671875 48.328125 
Q 17.828125 56 27.875 56 
Q 33.9375 56 38.28125 53.609375 
Q 42.625 51.21875 45.40625 46.390625 
L 45.40625 54.6875 
L 54.390625 54.6875 
z
" id="DejaVuSans-103"/>
     <path d="M 34.28125 27.484375 
Q 23.390625 27.484375 19.1875 25 
Q 14.984375 22.515625 14.984375 16.5 
Q 14.984375 11.71875 18.140625 8.90625 
Q 21.296875 6.109375 26.703125 6.109375 
Q 34.1875 6.109375 38.703125 11.40625 
Q 43.21875 16.703125 43.21875 25.484375 
L 43.21875 27.484375 
z
M 52.203125 31.203125 
L 52.203125 0 
L 43.21875 0 
L 43.21875 8.296875 
Q 40.140625 3.328125 35.546875 0.953125 
Q 30.953125 -1.421875 24.3125 -1.421875 
Q 15.921875 -1.421875 10.953125 3.296875 
Q 6 8.015625 6 15.921875 
Q 6 25.140625 12.171875 29.828125 
Q 18.359375 34.515625 30.609375 34.515625 
L 43.21875 34.515625 
L 43.21875 35.40625 
Q 43.21875 41.609375 39.140625 45 
Q 35.0625 48.390625 27.6875 48.390625 
Q 23 48.390625 18.546875 47.265625 
Q 14.109375 46.140625 10.015625 43.890625 
L 10.015625 52.203125 
Q 14.9375 54.109375 19.578125 55.046875 
Q 24.21875 56 28.609375 56 
Q 40.484375 56 46.34375 49.84375 
Q 52.203125 43.703125 52.203125 31.203125 
z
" id="DejaVuSans-97"/>
     <path d="M 9.421875 54.6875 
L 18.40625 54.6875 
L 18.40625 0 
L 9.421875 0 
z
M 9.421875 75.984375 
L 18.40625 75.984375 
L 18.40625 64.59375 
L 9.421875 64.59375 
z
" id="DejaVuSans-105"/>
     <path d="M 10.6875 12.40625 
L 21 12.40625 
L 21 0 
L 10.6875 0 
z
" id="DejaVuSans-46"/>
    </defs>
    <g transform="translate(47.915625 35.472)scale(0.12 -0.12)">
     <use xlink:href="#DejaVuSans-40"/>
     <use x="39.013672" xlink:href="#DejaVuSans-49"/>
     <use x="102.636719" xlink:href="#DejaVuSans-49"/>
     <use x="166.259766" xlink:href="#DejaVuSans-48"/>
     <use x="229.882812" xlink:href="#DejaVuSans-41"/>
     <use x="268.896484" xlink:href="#DejaVuSans-32"/>
     <use x="300.683594" xlink:href="#DejaVuSans-83"/>
     <use x="364.160156" xlink:href="#DejaVuSans-117"/>
     <use x="427.539062" xlink:href="#DejaVuSans-98"/>
     <use x="491.015625" xlink:href="#DejaVuSans-106"/>
     <use x="518.798828" xlink:href="#DejaVuSans-101"/>
     <use x="580.322266" xlink:href="#DejaVuSans-99"/>
     <use x="635.302734" xlink:href="#DejaVuSans-116"/>
     <use x="674.511719" xlink:href="#DejaVuSans-58"/>
     <use x="708.203125" xlink:href="#DejaVuSans-32"/>
     <use x="739.990234" xlink:href="#DejaVuSans-115"/>
     <use x="792.089844" xlink:href="#DejaVuSans-50"/>
     <use x="855.712891" xlink:href="#DejaVuSans-55"/>
     <use x="919.335938" xlink:href="#DejaVuSans-44"/>
     <use x="951.123047" xlink:href="#DejaVuSans-32"/>
     <use x="982.910156" xlink:href="#DejaVuSans-75"/>
     <use x="1048.486328" xlink:href="#DejaVuSans-110"/>
     <use x="1111.865234" xlink:href="#DejaVuSans-111"/>
     <use x="1173.046875" xlink:href="#DejaVuSans-119"/>
     <use x="1254.833984" xlink:href="#DejaVuSans-110"/>
     <use x="1318.212891" xlink:href="#DejaVuSans-32"/>
     <use x="1350" xlink:href="#DejaVuSans-61"/>
     <use x="1433.789062" xlink:href="#DejaVuSans-32"/>
     <use x="1465.576172" xlink:href="#DejaVuSans-84"/>
     <use x="1526.441406" xlink:href="#DejaVuSans-114"/>
     <use x="1567.554688" xlink:href="#DejaVuSans-117"/>
     <use x="1630.933594" xlink:href="#DejaVuSans-101"/>
     <use x="1692.457031" xlink:href="#DejaVuSans-44"/>
     <use x="1724.244141" xlink:href="#DejaVuSans-32"/>
     <use x="1756.03125" xlink:href="#DejaVuSans-68"/>
     <use x="1833.033203" xlink:href="#DejaVuSans-101"/>
     <use x="1894.556641" xlink:href="#DejaVuSans-103"/>
     <use x="1958.033203" xlink:href="#DejaVuSans-114"/>
     <use x="1999.115234" xlink:href="#DejaVuSans-101"/>
     <use x="2060.638672" xlink:href="#DejaVuSans-101"/>
     <use x="2122.162109" xlink:href="#DejaVuSans-32"/>
     <use x="2153.949219" xlink:href="#DejaVuSans-61"/>
     <use x="2237.738281" xlink:href="#DejaVuSans-32"/>
     <use x="2269.525391" xlink:href="#DejaVuSans-50"/>
     <use x="2333.148438" xlink:href="#DejaVuSans-44"/>
     <use x="2364.935547" xlink:href="#DejaVuSans-32"/>
     <use x="2396.722656" xlink:href="#DejaVuSans-68"/>
     <use x="2473.724609" xlink:href="#DejaVuSans-117"/>
     <use x="2537.103516" xlink:href="#DejaVuSans-114"/>
     <use x="2578.216797" xlink:href="#DejaVuSans-97"/>
     <use x="2639.496094" xlink:href="#DejaVuSans-116"/>
     <use x="2678.705078" xlink:href="#DejaVuSans-105"/>
     <use x="2706.488281" xlink:href="#DejaVuSans-111"/>
     <use x="2767.669922" xlink:href="#DejaVuSans-110"/>
     <use x="2831.048828" xlink:href="#DejaVuSans-32"/>
     <use x="2862.835938" xlink:href="#DejaVuSans-61"/>
     <use x="2946.625" xlink:href="#DejaVuSans-32"/>
     <use x="2978.412109" xlink:href="#DejaVuSans-48"/>
     <use x="3042.035156" xlink:href="#DejaVuSans-46"/>
     <use x="3073.822266" xlink:href="#DejaVuSans-49"/>
    </g>
   </g>
  </g>
 </g>
 <defs>
  <clipPath id="pb9b16cdb62">
   <rect height="266.112" width="357.12" x="57.6" y="41.472"/>
  </clipPath>
 </defs>
</svg>
