<?xml version="1.0" encoding="utf-8" standalone="no"?>
<!DOCTYPE svg PUBLIC "-//W3C//DTD SVG 1.1//EN"
  "http://www.w3.org/Graphics/SVG/1.1/DTD/svg11.dtd">
<!-- Created with matplotlib (https://matplotlib.org/) -->
<svg height="345.6pt" version="1.1" viewBox="0 0 460.8 345.6" width="460.8pt" xmlns="http://www.w3.org/2000/svg" xmlns:xlink="http://www.w3.org/1999/xlink">
 <defs>
  <style type="text/css">
*{stroke-linecap:butt;stroke-linejoin:round;}
  </style>
 </defs>
 <g id="figure_1">
  <g id="patch_1">
   <path d="M 0 345.6 
L 460.8 345.6 
L 460.8 0 
L 0 0 
z
" style="fill:#ffffff;"/>
  </g>
  <g id="axes_1">
   <g id="patch_2">
    <path d="M 57.6 307.584 
L 414.72 307.584 
L 414.72 41.472 
L 57.6 41.472 
z
" style="fill:#ffffff;"/>
   </g>
   <g id="line2d_1">
    <path clip-path="url(#p871930cf73)" d="M 395.624922 55.951828 
L 396.197392 55.422527 
L 397.342332 54.097301 
L 397.056097 54.361951 
L 396.769862 54.361951 
L 396.769862 54.361951 
L 396.197392 53.83265 
L 397.056097 53.83265 
L 397.342332 54.361951 
L 397.056097 53.83265 
L 396.769862 53.568 
L 396.483627 54.097301 
L 395.911157 54.626601 
L 395.624922 54.626601 
L 395.624922 54.361951 
L 396.197392 53.83265 
L 397.056097 53.568 
L 397.628568 53.83265 
L 396.769862 54.626601 
L 396.483627 54.361951 
L 396.483627 54.626601 
L 396.769862 54.893227 
L 396.769862 53.568 
L 397.056097 53.568 
L 397.056097 54.626601 
L 397.056097 54.361951 
L 397.342332 53.83265 
L 397.628568 53.568 
L 397.914803 53.83265 
L 397.628568 54.097301 
L 397.342332 53.83265 
L 397.342332 53.83265 
L 397.056097 54.097301 
L 397.056097 54.361951 
L 397.056097 53.83265 
L 396.483627 54.097301 
L 396.483627 54.361951 
L 396.483627 54.361951 
L 396.769862 55.157877 
L 396.769862 55.687177 
L 397.342332 55.422527 
L 396.769862 54.361951 
L 396.483627 54.361951 
L 396.483627 54.626601 
L 396.769862 54.893227 
L 396.483627 54.626601 
L 396.483627 54.361951 
L 396.197392 54.626601 
L 396.483627 55.157877 
L 397.342332 55.422527 
L 397.914803 55.157877 
L 397.914803 55.422527 
L 397.342332 55.422527 
L 396.769862 54.893227 
L 397.342332 54.361951 
L 397.056097 54.361951 
L 397.056097 54.361951 
L 397.342332 54.626601 
L 397.628568 55.157877 
L 397.628568 55.157877 
L 397.056097 54.361951 
L 396.483627 54.097301 
L 396.197392 54.626601 
L 396.483627 55.422527 
L 397.342332 55.422527 
L 397.056097 55.687177 
L 397.342332 55.687177 
L 397.914803 55.422527 
L 397.914803 55.687177 
L 397.342332 55.687177 
L 397.056097 55.422527 
L 397.056097 54.893227 
L 397.342332 54.626601 
L 397.342332 55.422527 
L 396.483627 56.216478 
L 396.197392 56.216478 
L 397.342332 55.157877 
L 397.056097 54.893227 
L 395.911157 55.157877 
L 395.338687 55.687177 
L 396.197392 55.687177 
L 396.197392 55.157877 
L 396.769862 54.893227 
L 397.342332 55.157877 
L 397.342332 55.687177 
L 396.769862 55.422527 
L 396.769862 54.361951 
L 397.056097 53.83265 
L 397.342332 54.097301 
L 397.342332 54.626601 
L 397.914803 55.422527 
L 398.201038 55.422527 
L 397.342332 54.626601 
L 397.628568 54.097301 
L 397.914803 54.097301 
L 397.056097 54.097301 
L 396.769862 54.626601 
L 396.197392 54.626601 
L 396.197392 54.893227 
L 396.769862 55.157877 
L 397.628568 55.157877 
L 398.201038 54.893227 
L 398.487273 54.361951 
L 398.487273 54.097301 
L 398.201038 54.097301 
L 398.201038 54.361951 
L 398.487273 54.361951 
L 398.201038 54.361951 
L 397.628568 54.097301 
L 397.056097 54.097301 
L 397.056097 54.361951 
L 396.769862 54.361951 
L 396.769862 54.097301 
L 396.769862 55.157877 
L 397.342332 55.157877 
L 397.628568 54.626601 
L 397.056097 54.097301 
L 396.769862 54.097301 
L 396.769862 54.097301 
L 397.342332 54.626601 
L 397.628568 54.626601 
L 397.056097 54.626601 
L 397.628568 54.626601 
L 398.201038 54.097301 
L 398.201038 53.568 
L 397.628568 53.568 
L 397.056097 54.097301 
L 396.769862 55.157877 
L 397.342332 54.626601 
L 397.914803 54.361951 
L 397.914803 54.097301 
L 397.342332 54.097301 
L 397.342332 54.097301 
L 397.628568 53.83265 
L 397.056097 54.097301 
L 396.769862 54.626601 
L 396.769862 55.157877 
L 396.769862 55.157877 
L 397.056097 54.626601 
L 397.056097 54.361951 
L 397.628568 54.626601 
L 397.628568 54.361951 
L 397.342332 54.097301 
L 397.056097 54.097301 
L 396.769862 54.626601 
L 397.628568 54.626601 
L 398.201038 54.097301 
L 398.201038 53.83265 
L 397.628568 54.097301 
L 397.628568 54.626601 
L 397.342332 55.157877 
L 397.342332 54.097301 
L 397.628568 54.626601 
L 397.628568 55.687177 
L 397.056097 55.687177 
L 396.769862 55.422527 
L 397.056097 55.422527 
L 397.056097 55.687177 
L 396.769862 55.951828 
L 396.197392 55.951828 
L 395.624922 55.687177 
L 395.338687 55.157877 
L 395.338687 54.893227 
L 395.911157 55.951828 
L 395.624922 55.951828 
L 395.911157 55.157877 
L 396.769862 54.893227 
L 396.769862 54.893227 
L 396.197392 55.422527 
L 395.624922 55.422527 
L 395.624922 55.422527 
L 395.624922 54.626601 
L 395.338687 54.097301 
L 395.624922 54.361951 
L 395.911157 54.893227 
L 396.197392 55.157877 
L 396.197392 55.422527 
L 395.911157 55.687177 
L 395.911157 55.951828 
L 395.338687 56.216478 
L 395.052452 56.216478 
L 396.197392 56.216478 
L 396.197392 56.747754 
L 395.911157 57.541705 
L 395.624922 57.541705 
L 395.911157 57.012404 
L 395.624922 56.483103 
L 395.624922 56.216478 
L 395.624922 57.012404 
L 395.624922 57.012404 
L 395.911157 56.483103 
L 395.911157 56.216478 
L 394.766217 55.687177 
L 394.193747 55.687177 
L 394.479982 55.951828 
L 395.338687 56.483103 
L 396.197392 57.277054 
L 396.197392 56.747754 
L 395.338687 56.483103 
L 393.907512 57.012404 
L 389.041516 59.927507 
L 386.4654 61.782034 
L 383.027212 63.371911 
L 378.733686 64.961788 
L 374.44016 66.816315 
L 370.719104 69.200143 
L 363.846095 72.911172 
L 360.125039 74.765699 
L 355.831513 76.355576 
L 351.824222 78.210103 
L 348.099799 79.79998 
L 344.951213 81.654507 
L 338.367807 85.098911 
L 334.932986 86.953438 
L 330.063622 90.397842 
L 327.201272 91.987719 
L 324.052686 93.312945 
L 321.762805 95.434098 
L 319.472925 98.082576 
L 314.317326 101.793605 
L 311.454976 104.177433 
L 303.726629 111.330891 
L 300.578043 113.981344 
L 296.85362 116.365171 
L 292.846329 118.750974 
L 289.125273 121.134802 
L 285.690452 123.520605 
L 277.100033 128.554885 
L 272.234037 131.205338 
L 267.368041 133.589166 
L 263.071147 136.239619 
L 257.632681 139.152747 
L 251.90798 141.8032 
L 246.466146 144.718304 
L 241.886385 147.368757 
L 237.306624 149.752584 
L 227.857499 153.461639 
L 224.995149 155.051515 
L 222.419033 157.172668 
L 220.701623 159.291845 
L 218.697977 160.881722 
L 216.980567 161.942298 
L 215.549392 163.000899 
L 214.401084 164.326126 
L 213.256144 165.386702 
L 212.969909 166.445303 
L 214.401084 168.29983 
L 214.401084 169.360407 
L 214.114849 169.889707 
L 214.114849 170.156333 
L 214.690686 171.214934 
L 214.114849 171.479584 
L 213.828614 172.01086 
L 213.542379 172.804811 
L 213.542379 173.336086 
L 213.828614 173.336086 
L 213.828614 173.865387 
L 213.256144 174.925963 
L 210.107558 177.309791 
L 209.535088 178.103742 
L 207.817677 182.608722 
L 206.958972 183.669298 
L 206.100267 184.463249 
L 204.955327 184.994524 
L 204.669092 185.788475 
L 204.382857 187.113702 
L 203.810386 187.643002 
L 203.237916 187.909628 
L 202.951681 188.174278 
L 202.951681 189.49753 
L 202.665446 190.822756 
L 202.092976 191.618682 
L 202.092976 191.618682 
L 202.379211 192.147983 
L 202.379211 192.943908 
L 201.234271 194.00251 
L 200.948036 194.533785 
L 200.661801 194.798436 
L 199.51686 195.327736 
L 199.230625 195.592386 
L 199.51686 196.123662 
L 199.803096 196.917613 
L 199.803096 197.713539 
L 199.51686 198.242839 
L 198.94439 198.50749 
L 198.085685 198.77214 
L 197.509848 199.568066 
L 196.651142 201.157943 
L 198.085685 203.806421 
L 197.79945 204.071071 
L 197.223613 203.806421 
L 196.937377 203.806421 
L 196.078672 205.396298 
L 195.792437 206.192223 
L 196.078672 206.192223 
L 195.792437 205.660948 
L 195.219967 205.660948 
L 194.933732 206.192223 
L 194.933732 206.986174 
L 195.219967 207.7821 
L 195.219967 208.840702 
L 195.506202 208.840702 
L 195.219967 209.107327 
L 195.219967 210.165928 
L 195.506202 210.165928 
L 195.219967 209.901278 
L 195.219967 210.165928 
L 194.647497 211.226504 
L 193.788792 212.28708 
L 193.502557 213.081031 
L 193.788792 213.345682 
L 193.216322 215.200209 
L 193.216322 214.406258 
L 193.502557 213.610332 
L 193.216322 213.345682 
L 193.216322 213.874982 
L 192.930087 214.141608 
L 192.643851 214.670908 
L 192.357616 215.464859 
L 192.643851 215.731484 
L 193.216322 215.996135 
L 193.216322 216.260785 
L 192.357616 216.525435 
L 190.640206 216.525435 
L 190.640206 216.790086 
L 191.212676 217.054736 
L 192.071381 217.850662 
L 192.071381 217.054736 
L 192.071381 217.054736 
L 191.785146 217.321361 
L 191.498911 217.850662 
L 191.498911 218.115312 
L 191.498911 218.115312 
L 190.926441 218.644613 
L 190.353971 218.644613 
L 191.785146 218.644613 
L 192.071381 218.911238 
L 192.071381 219.705189 
L 191.785146 220.234489 
L 191.785146 220.765765 
L 191.498911 220.501115 
L 190.353971 220.234489 
L 190.640206 220.501115 
L 190.926441 220.234489 
L 190.926441 219.969839 
L 191.212676 219.969839 
L 190.926441 221.030415 
L 190.926441 221.030415 
L 191.212676 221.030415 
L 190.926441 221.295066 
L 190.640206 221.824366 
L 190.353971 221.559716 
L 190.353971 221.559716 
L 190.926441 221.824366 
L 191.212676 221.824366 
L 190.926441 221.295066 
L 190.926441 221.295066 
L 191.212676 221.030415 
L 191.212676 221.295066 
L 190.640206 221.824366 
L 189.209031 222.355642 
L 189.495266 222.884942 
L 190.067736 223.414243 
L 189.781501 224.210169 
L 188.350325 224.474819 
L 186.632915 224.474819 
L 184.915505 224.73947 
L 183.198094 225.535395 
L 178.042496 226.593997 
L 175.180145 227.389923 
L 172.317794 228.448524 
L 155.999028 233.74943 
L 152.850443 235.074656 
L 149.415622 236.664533 
L 145.118728 238.252435 
L 140.825202 239.577661 
L 137.104146 240.902888 
L 130.234505 244.347292 
L 126.223847 245.672518 
L 122.216556 246.733095 
L 118.209265 248.587622 
L 111.908726 252.825977 
L 108.473905 254.682479 
L 104.752849 256.272355 
L 95.01749 259.98141 
L 93.013844 261.041986 
L 91.296434 262.896513 
L 89.006553 264.48639 
L 82.423147 266.870217 
L 78.698723 268.460094 
L 77.553783 268.989395 
L 76.408843 269.25602 
L 74.691432 270.049971 
L 74.691432 270.314621 
L 75.263903 270.314621 
L 76.122608 270.579272 
L 76.695078 271.110547 
L 76.981313 271.639848 
L 76.981313 271.639848 
L 77.267548 271.375198 
L 78.126253 270.845897 
L 78.698723 271.375198 
L 79.271194 272.435774 
L 79.560796 273.229725 
L 79.560796 272.965074 
L 78.984958 273.494375 
L 78.984958 273.759025 
L 79.271194 273.759025 
L 77.553783 275.348902 
L 77.553783 275.613552 
L 77.840018 275.880178 
L 77.840018 275.880178 
L 77.840018 275.613552 
L 77.840018 275.613552 
L 78.126253 276.144828 
L 78.126253 276.938779 
L 77.553783 277.203429 
L 77.553783 277.470055 
L 77.840018 277.734705 
L 77.840018 277.734705 
L 77.553783 277.734705 
L 77.553783 277.734705 
L 77.267548 277.999355 
L 76.981313 278.793306 
L 76.408843 278.793306 
L 76.695078 278.793306 
L 76.695078 279.853882 
L 77.267548 279.853882 
L 77.553783 279.324582 
L 77.553783 279.059931 
L 77.267548 279.059931 
L 76.695078 279.324582 
L 76.122608 279.853882 
L 76.122608 281.179109 
L 76.122608 281.179109 
L 76.695078 280.649808 
L 76.408843 280.914458 
L 76.122608 281.443759 
L 75.836373 281.708409 
L 76.122608 282.239685 
L 76.981313 283.033636 
L 76.408843 282.768986 
L 75.550138 283.033636 
L 75.263903 283.562936 
L 77.840018 283.562936 
L 77.267548 284.623513 
L 76.695078 285.152813 
L 75.836373 285.419439 
L 75.550138 285.684089 
L 75.550138 285.948739 
L 76.122608 287.538616 
L 76.981313 286.74269 
L 76.981313 286.47804 
L 76.408843 285.948739 
L 76.408843 287.803266 
L 76.122608 287.803266 
L 75.836373 288.067917 
L 75.836373 288.863842 
L 75.550138 289.128493 
L 75.550138 289.393143 
L 75.836373 289.657793 
L 76.408843 289.128493 
L 76.408843 289.393143 
L 76.981313 289.657793 
L 77.553783 290.187094 
L 77.840018 290.187094 
L 77.553783 289.657793 
L 77.267548 289.393143 
L 76.408843 289.657793 
L 76.122608 290.453719 
L 76.122608 290.98302 
L 76.695078 290.98302 
L 76.695078 290.71837 
L 76.408843 290.71837 
L 76.695078 290.98302 
L 76.695078 290.98302 
L 76.122608 290.71837 
L 75.836373 290.98302 
L 75.550138 291.776971 
L 75.550138 292.308246 
L 76.408843 292.043596 
L 77.267548 292.043596 
L 77.553783 292.572897 
L 77.553783 292.572897 
L 77.267548 292.837547 
L 76.695078 293.102197 
L 76.695078 293.102197 
L 77.553783 293.102197 
L 77.553783 292.837547 
L 77.267548 292.837547 
L 76.981313 293.102197 
L 76.981313 293.366848 
L 76.695078 293.633473 
L 77.267548 293.898123 
L 77.553783 293.898123 
L 77.553783 294.162773 
L 77.553783 293.898123 
L 76.408843 292.837547 
L 76.695078 293.102197 
L 77.267548 293.366848 
L 77.267548 294.427424 
L 76.695078 294.162773 
L 76.122608 293.633473 
L 76.122608 293.102197 
L 76.981313 293.898123 
L 77.840018 293.898123 
L 78.412488 293.633473 
L 78.126253 293.898123 
L 77.553783 294.162773 
L 76.981313 294.162773 
L 76.981313 294.427424 
L 77.267548 294.692074 
L 76.981313 295.22335 
L 76.695078 295.488 
L 76.981313 294.956724 
L 77.553783 294.427424 
L 77.553783 294.427424 
L 76.981313 294.692074 
L 76.695078 294.692074 
L 76.981313 294.427424 
L 76.981313 294.162773 
L 76.695078 294.162773 
L 76.695078 294.427424 
L 76.695078 294.427424 
L 77.267548 293.898123 
L 77.553783 293.898123 
L 77.553783 294.427424 
L 77.267548 294.427424 
L 76.981313 293.898123 
L 76.695078 293.898123 
L 76.408843 294.162773 
L 76.695078 294.692074 
L 76.695078 294.956724 
L 76.408843 294.956724 
L 76.408843 294.692074 
L 76.695078 294.692074 
L 77.267548 294.427424 
L 77.553783 293.633473 
L 76.981313 292.837547 
L 76.408843 292.837547 
L 75.263903 293.898123 
L 75.263903 294.162773 
L 75.550138 294.162773 
L 75.550138 294.427424 
L 75.836373 294.162773 
L 76.122608 293.633473 
L 75.836373 293.102197 
L 75.263903 292.308246 
L 75.263903 291.776971 
L 76.408843 292.837547 
L 76.695078 292.572897 
L 76.981313 291.776971 
L 76.408843 291.51232 
L 75.550138 291.776971 
L 74.977668 293.102197 
L 74.691432 293.102197 
L 74.691432 291.51232 
L 74.405197 290.98302 
L 74.691432 290.98302 
L 74.977668 291.24767 
L 75.263903 290.98302 
L 74.977668 290.98302 
L 74.691432 291.51232 
L 74.405197 291.776971 
L 74.118962 292.308246 
L 74.118962 292.572897 
L 74.405197 292.572897 
L 74.405197 292.308246 
L 73.832727 292.308246 
L 73.832727 292.043596 
L 74.118962 291.51232 
L 74.405197 291.24767 
L 74.405197 291.24767 
L 74.405197 291.51232 
L 74.118962 291.776971 
L 74.405197 292.043596 
L 74.977668 291.776971 
L 78.412488 289.657793 
L 80.991971 289.128493 
L 84.140557 288.863842 
L 87.861613 288.067917 
L 92.155139 286.47804 
L 97.024502 285.152813 
L 102.462969 283.829562 
L 112.481196 281.179109 
L 117.92303 279.853882 
L 129.086197 276.674129 
L 135.386736 275.084252 
L 141.683908 272.965074 
L 147.984446 270.579272 
L 153.995383 268.989395 
L 165.734388 266.340917 
L 171.459089 264.219764 
L 177.18379 262.365237 
L 188.350325 259.716759 
L 199.51686 257.595607 
L 204.096622 256.537006 
L 208.676383 255.211779 
L 218.984212 252.561326 
L 223.563973 251.2361 
L 228.42997 249.646223 
L 233.013098 248.852272 
L 237.592859 248.587622 
L 242.17262 246.997745 
L 246.179911 245.143218 
L 249.331864 243.553341 
L 251.621745 241.963464 
L 253.62539 241.432189 
L 255.342801 241.432189 
L 256.487741 240.902888 
L 257.060211 239.577661 
L 257.632681 238.783711 
L 257.632681 239.577661 
L 257.060211 240.373587 
L 254.484095 239.842312 
L 253.339155 239.842312 
L 251.90798 240.373587 
L 251.33551 240.108937 
L 250.476804 240.108937 
L 249.618099 240.373587 
L 248.759394 241.167538 
L 248.183556 242.228114 
L 248.473159 242.492765 
L 248.473159 242.492765 
L 248.473159 242.757415 
L 248.759394 243.022065 
L 248.473159 243.022065 
L 248.473159 242.492765 
L 247.324851 242.492765 
L 247.611086 242.757415 
L 247.611086 243.022065 
L 248.183556 243.022065 
L 248.183556 242.757415 
L 247.611086 243.022065 
L 246.179911 243.553341 
L 246.466146 243.288691 
L 246.466146 243.022065 
L 246.466146 243.022065 
L 246.752381 243.553341 
L 246.752381 243.817991 
L 246.466146 243.553341 
L 245.893676 243.288691 
L 245.321206 243.288691 
L 245.321206 243.288691 
L 245.607441 243.553341 
L 246.179911 243.288691 
L 246.466146 243.022065 
L 246.179911 243.022065 
L 245.607441 243.553341 
L 245.607441 243.817991 
L 245.607441 243.817991 
L 244.176266 244.611942 
L 244.176266 244.878567 
L 244.748736 244.878567 
L 245.034971 244.347292 
L 245.034971 243.553341 
L 245.321206 243.022065 
L 245.607441 243.022065 
L 245.607441 243.817991 
L 245.321206 244.082642 
L 245.607441 244.082642 
L 245.893676 243.817991 
L 245.607441 243.553341 
L 244.176266 243.553341 
L 244.176266 243.817991 
L 243.89003 243.817991 
L 243.89003 243.553341 
L 244.176266 243.553341 
L 244.176266 243.553341 
L 244.176266 243.817991 
L 243.603795 243.817991 
L 243.31756 244.347292 
L 243.31756 245.143218 
L 244.176266 244.878567 
L 244.462501 243.817991 
L 244.176266 243.022065 
L 243.89003 243.022065 
L 244.176266 243.817991 
L 243.89003 244.611942 
L 242.74509 244.878567 
L 242.74509 244.347292 
L 243.031325 244.082642 
L 243.31756 244.611942 
L 243.603795 244.878567 
L 244.176266 244.878567 
L 244.462501 244.347292 
L 243.89003 244.347292 
L 243.31756 244.878567 
L 243.031325 245.672518 
L 243.31756 245.672518 
L 243.31756 245.407868 
L 243.603795 244.878567 
L 243.603795 244.878567 
L 243.31756 245.143218 
L 242.74509 245.143218 
L 242.458855 244.878567 
L 242.458855 244.878567 
L 242.458855 244.347292 
L 242.74509 243.817991 
L 243.31756 244.082642 
L 243.31756 244.347292 
L 242.74509 244.878567 
L 242.458855 244.878567 
L 242.458855 244.611942 
L 242.74509 244.878567 
L 242.458855 244.878567 
L 241.60015 244.082642 
L 241.60015 244.611942 
L 241.60015 244.611942 
L 241.313915 244.347292 
L 241.60015 243.817991 
L 242.458855 243.553341 
L 243.031325 243.817991 
L 243.31756 244.611942 
L 243.031325 244.878567 
L 242.458855 244.347292 
L 242.458855 243.817991 
L 242.458855 244.347292 
L 242.17262 244.611942 
L 241.886385 245.143218 
L 241.02768 245.937169 
L 241.313915 246.201819 
L 241.60015 246.201819 
L 241.886385 245.937169 
L 242.74509 245.937169 
L 242.74509 245.672518 
L 242.17262 245.672518 
L 241.60015 245.407868 
L 241.60015 244.878567 
L 241.886385 244.611942 
L 243.031325 244.878567 
L 242.74509 244.347292 
L 242.17262 244.347292 
L 241.886385 244.878567 
L 241.886385 245.672518 
L 241.886385 244.082642 
L 242.17262 244.347292 
L 242.74509 244.611942 
L 242.458855 244.878567 
L 241.313915 245.407868 
L 241.313915 245.937169 
L 241.02768 245.937169 
L 241.02768 245.672518 
L 241.313915 245.143218 
L 241.60015 245.143218 
L 241.60015 244.082642 
L 241.886385 243.817991 
L 242.17262 244.082642 
L 242.17262 244.611942 
L 241.886385 245.143218 
L 241.02768 245.407868 
L 240.741445 245.143218 
L 240.741445 245.143218 
L 240.45521 245.407868 
L 240.45521 245.672518 
L 240.741445 245.672518 
L 240.741445 245.672518 
L 240.45521 245.143218 
L 240.45521 244.878567 
L 240.741445 244.878567 
L 240.741445 244.878567 
L 240.741445 244.611942 
L 240.45521 244.611942 
L 240.45521 245.143218 
L 240.741445 245.143218 
L 240.45521 244.878567 
L 240.45521 244.611942 
L 241.02768 244.347292 
L 241.02768 243.817991 
L 241.02768 244.347292 
L 240.741445 244.878567 
L 240.168975 245.672518 
L 239.024034 245.937169 
L 238.737799 246.201819 
L 239.310269 245.143218 
L 239.310269 244.878567 
L 239.596505 245.143218 
L 240.45521 245.143218 
L 240.741445 244.878567 
L 241.60015 244.611942 
L 243.031325 244.611942 
L 246.466146 244.082642 
L 248.183556 243.288691 
L 250.190569 242.228114 
L 252.194215 241.432189 
L 256.201506 240.373587 
L 260.495032 239.842312 
L 262.212442 239.048361 
L 264.788558 236.133258 
L 265.65063 236.133258 
L 266.2231 235.868607 
L 266.2231 235.603957 
L 265.936865 235.074656 
L 265.65063 234.808031 
L 265.65063 233.48478 
L 265.074793 233.74943 
L 264.216088 234.27873 
L 263.071147 234.543381 
L 262.498677 234.808031 
L 262.212442 234.808031 
L 261.067502 234.543381 
L 260.781267 234.543381 
L 260.781267 234.808031 
L 260.208797 235.868607 
L 260.781267 236.133258 
L 261.067502 236.397908 
L 260.495032 236.664533 
L 260.495032 236.664533 
L 260.781267 236.929183 
L 261.067502 236.929183 
L 260.781267 236.929183 
L 261.067502 236.664533 
L 261.353737 236.133258 
L 261.639972 235.074656 
L 261.926207 235.339307 
L 261.639972 235.339307 
L 261.353737 235.603957 
L 260.781267 235.868607 
L 260.495032 235.603957 
L 260.495032 236.664533 
L 260.781267 236.929183 
L 260.781267 236.397908 
L 260.208797 236.133258 
L 259.922562 235.868607 
L 259.636327 235.868607 
L 259.922562 236.133258 
L 259.636327 236.397908 
L 259.350091 236.133258 
L 259.350091 236.133258 
L 260.208797 236.133258 
L 259.922562 236.133258 
L 259.636327 236.397908 
L 259.350091 236.397908 
L 259.636327 236.664533 
L 259.922562 237.193834 
L 259.922562 236.133258 
L 259.636327 236.397908 
L 259.063856 236.397908 
L 258.491386 236.664533 
L 259.063856 236.664533 
L 259.636327 236.133258 
L 259.636327 235.868607 
L 259.636327 235.868607 
L 259.922562 236.133258 
L 260.495032 236.133258 
L 261.067502 236.664533 
L 260.495032 237.193834 
L 259.636327 236.929183 
L 259.350091 236.397908 
L 259.350091 236.133258 
L 259.063856 236.664533 
L 259.063856 236.664533 
L 259.350091 236.397908 
L 259.350091 236.397908 
L 259.350091 236.664533 
L 259.350091 236.397908 
L 258.777621 236.397908 
L 257.918916 237.193834 
L 257.918916 237.458484 
L 258.205151 237.458484 
L 258.205151 237.723134 
L 258.491386 237.723134 
L 258.491386 237.723134 
L 258.491386 236.133258 
L 258.205151 235.868607 
L 257.632681 236.133258 
L 257.632681 236.929183 
L 257.918916 237.193834 
L 258.205151 236.929183 
L 258.205151 237.193834 
L 258.491386 237.723134 
L 258.777621 237.723134 
L 258.777621 236.929183 
L 258.205151 235.868607 
L 257.918916 235.868607 
L 257.632681 236.133258 
L 257.632681 236.929183 
L 257.346446 236.929183 
L 257.346446 237.193834 
L 257.346446 236.664533 
L 257.346446 236.929183 
L 257.632681 236.664533 
L 257.632681 236.397908 
L 257.346446 236.133258 
L 256.773976 235.868607 
L 256.201506 235.868607 
L 255.915271 236.133258 
L 256.201506 236.397908 
L 257.346446 236.397908 
L 257.918916 236.664533 
L 257.918916 237.193834 
L 257.346446 237.458484 
L 257.060211 237.193834 
L 256.773976 236.133258 
L 256.487741 235.603957 
L 256.487741 235.868607 
L 256.773976 236.397908 
L 257.346446 236.397908 
L 257.918916 236.133258 
L 257.918916 236.397908 
L 257.060211 236.929183 
L 256.487741 236.929183 
L 256.201506 236.397908 
L 256.773976 236.133258 
L 257.060211 236.133258 
L 256.487741 235.868607 
L 256.201506 235.603957 
L 256.201506 236.397908 
L 256.773976 236.397908 
L 256.773976 236.664533 
L 256.201506 236.664533 
L 256.201506 236.397908 
L 256.487741 236.664533 
L 256.487741 237.193834 
L 256.487741 236.929183 
L 256.773976 236.397908 
L 256.773976 236.133258 
L 256.773976 236.397908 
L 257.060211 236.664533 
L 257.060211 236.664533 
L 256.773976 236.664533 
L 256.773976 236.929183 
L 256.773976 236.664533 
L 257.346446 235.603957 
L 256.487741 236.397908 
L 257.060211 236.397908 
L 257.060211 236.397908 
L 257.060211 236.664533 
L 257.346446 236.929183 
L 257.346446 236.929183 
L 257.346446 236.664533 
L 256.773976 236.664533 
L 256.487741 236.397908 
L 255.915271 236.133258 
L 255.342801 236.133258 
L 255.342801 236.397908 
L 255.915271 236.664533 
L 257.060211 236.133258 
L 256.773976 235.868607 
L 255.915271 236.133258 
L 255.342801 236.133258 
L 256.201506 236.133258 
L 255.915271 236.133258 
L 255.342801 235.603957 
L 255.629036 235.339307 
L 255.629036 236.133258 
L 255.629036 236.133258 
L 255.056565 236.133258 
L 253.62539 236.929183 
L 251.621745 237.458484 
L 249.331864 238.252435 
L 246.752381 238.51906 
L 241.313915 239.577661 
L 238.451564 240.373587 
L 229.861145 241.432189 
L 224.995149 242.757415 
L 220.987858 244.082642 
L 216.980567 245.143218 
L 213.256144 245.937169 
L 209.248853 246.468444 
L 205.814032 247.262395 
L 199.230625 249.381573 
L 192.930087 251.502725 
L 189.209031 252.561326 
L 185.487975 253.357252 
L 174.89391 254.682479 
L 172.317794 254.947129 
L 169.741679 255.74108 
L 167.165563 257.066306 
L 164.016978 258.391533 
L 161.151259 259.452109 
L 158.288909 260.24606 
L 155.712793 259.98141 
L 153.709148 259.452109 
L 151.991737 258.391533 
L 150.560562 258.656183 
L 148.843152 259.452109 
L 147.411976 260.24606 
L 146.836139 261.306636 
L 146.549904 262.100587 
L 146.836139 262.100587 
L 146.549904 262.100587 
L 146.263669 262.365237 
L 146.263669 262.629888 
L 145.691198 263.161163 
L 145.691198 263.161163 
L 145.977433 263.425814 
L 146.549904 263.161163 
L 147.411976 262.365237 
L 147.698211 262.896513 
L 148.270681 262.896513 
L 147.984446 262.896513 
L 147.698211 262.629888 
L 148.270681 262.365237 
L 148.843152 262.365237 
L 147.984446 262.365237 
L 147.411976 262.100587 
L 147.411976 261.835937 
L 147.411976 262.100587 
L 146.836139 263.425814 
L 146.549904 263.161163 
L 145.977433 263.161163 
L 145.691198 263.425814 
L 145.691198 263.690464 
L 145.977433 263.955114 
L 146.549904 263.955114 
L 146.836139 263.690464 
L 147.125741 263.690464 
L 147.125741 263.425814 
L 147.125741 263.690464 
L 147.411976 263.425814 
L 147.411976 263.425814 
L 147.698211 263.690464 
L 147.411976 264.219764 
L 147.125741 264.219764 
L 146.836139 263.690464 
L 146.836139 263.425814 
L 146.263669 263.425814 
L 146.263669 263.690464 
L 147.411976 264.219764 
L 147.125741 264.48639 
L 145.691198 263.955114 
L 145.977433 263.690464 
L 145.977433 263.425814 
L 146.263669 263.690464 
L 146.549904 264.219764 
L 146.549904 265.01569 
L 146.836139 265.280341 
L 146.836139 265.01569 
L 145.977433 264.48639 
L 145.977433 263.955114 
L 146.836139 263.955114 
L 146.836139 264.219764 
L 146.836139 264.219764 
" style="fill:none;stroke:#1f77b4;stroke-linecap:square;stroke-width:1.5;"/>
   </g>
   <g id="matplotlib.axis_1">
    <g id="xtick_1">
     <g id="line2d_2">
      <defs>
       <path d="M 0 0 
L 0 3.5 
" id="m379dacd129" style="stroke:#000000;stroke-width:0.8;"/>
      </defs>
      <g>
       <use style="stroke:#000000;stroke-width:0.8;" x="96.522749" xlink:href="#m379dacd129" y="307.584"/>
      </g>
     </g>
     <g id="text_1">
      <!-- −200 -->
      <defs>
       <path d="M 10.59375 35.5 
L 73.1875 35.5 
L 73.1875 27.203125 
L 10.59375 27.203125 
z
" id="DejaVuSans-8722"/>
       <path d="M 19.1875 8.296875 
L 53.609375 8.296875 
L 53.609375 0 
L 7.328125 0 
L 7.328125 8.296875 
Q 12.9375 14.109375 22.625 23.890625 
Q 32.328125 33.6875 34.8125 36.53125 
Q 39.546875 41.84375 41.421875 45.53125 
Q 43.3125 49.21875 43.3125 52.78125 
Q 43.3125 58.59375 39.234375 62.25 
Q 35.15625 65.921875 28.609375 65.921875 
Q 23.96875 65.921875 18.8125 64.3125 
Q 13.671875 62.703125 7.8125 59.421875 
L 7.8125 69.390625 
Q 13.765625 71.78125 18.9375 73 
Q 24.125 74.21875 28.421875 74.21875 
Q 39.75 74.21875 46.484375 68.546875 
Q 53.21875 62.890625 53.21875 53.421875 
Q 53.21875 48.921875 51.53125 44.890625 
Q 49.859375 40.875 45.40625 35.40625 
Q 44.1875 33.984375 37.640625 27.21875 
Q 31.109375 20.453125 19.1875 8.296875 
z
" id="DejaVuSans-50"/>
       <path d="M 31.78125 66.40625 
Q 24.171875 66.40625 20.328125 58.90625 
Q 16.5 51.421875 16.5 36.375 
Q 16.5 21.390625 20.328125 13.890625 
Q 24.171875 6.390625 31.78125 6.390625 
Q 39.453125 6.390625 43.28125 13.890625 
Q 47.125 21.390625 47.125 36.375 
Q 47.125 51.421875 43.28125 58.90625 
Q 39.453125 66.40625 31.78125 66.40625 
z
M 31.78125 74.21875 
Q 44.046875 74.21875 50.515625 64.515625 
Q 56.984375 54.828125 56.984375 36.375 
Q 56.984375 17.96875 50.515625 8.265625 
Q 44.046875 -1.421875 31.78125 -1.421875 
Q 19.53125 -1.421875 13.0625 8.265625 
Q 6.59375 17.96875 6.59375 36.375 
Q 6.59375 54.828125 13.0625 64.515625 
Q 19.53125 74.21875 31.78125 74.21875 
z
" id="DejaVuSans-48"/>
      </defs>
      <g transform="translate(82.789155 322.182437)scale(0.1 -0.1)">
       <use xlink:href="#DejaVuSans-8722"/>
       <use x="83.789062" xlink:href="#DejaVuSans-50"/>
       <use x="147.412109" xlink:href="#DejaVuSans-48"/>
       <use x="211.035156" xlink:href="#DejaVuSans-48"/>
      </g>
     </g>
    </g>
    <g id="xtick_2">
     <g id="line2d_3">
      <g>
       <use style="stroke:#000000;stroke-width:0.8;" x="163.872176" xlink:href="#m379dacd129" y="307.584"/>
      </g>
     </g>
     <g id="text_2">
      <!-- 0 -->
      <g transform="translate(160.690926 322.182437)scale(0.1 -0.1)">
       <use xlink:href="#DejaVuSans-48"/>
      </g>
     </g>
    </g>
    <g id="xtick_3">
     <g id="line2d_4">
      <g>
       <use style="stroke:#000000;stroke-width:0.8;" x="231.221603" xlink:href="#m379dacd129" y="307.584"/>
      </g>
     </g>
     <g id="text_3">
      <!-- 200 -->
      <g transform="translate(221.677853 322.182437)scale(0.1 -0.1)">
       <use xlink:href="#DejaVuSans-50"/>
       <use x="63.623047" xlink:href="#DejaVuSans-48"/>
       <use x="127.246094" xlink:href="#DejaVuSans-48"/>
      </g>
     </g>
    </g>
    <g id="xtick_4">
     <g id="line2d_5">
      <g>
       <use style="stroke:#000000;stroke-width:0.8;" x="298.57103" xlink:href="#m379dacd129" y="307.584"/>
      </g>
     </g>
     <g id="text_4">
      <!-- 400 -->
      <defs>
       <path d="M 37.796875 64.3125 
L 12.890625 25.390625 
L 37.796875 25.390625 
z
M 35.203125 72.90625 
L 47.609375 72.90625 
L 47.609375 25.390625 
L 58.015625 25.390625 
L 58.015625 17.1875 
L 47.609375 17.1875 
L 47.609375 0 
L 37.796875 0 
L 37.796875 17.1875 
L 4.890625 17.1875 
L 4.890625 26.703125 
z
" id="DejaVuSans-52"/>
      </defs>
      <g transform="translate(289.02728 322.182437)scale(0.1 -0.1)">
       <use xlink:href="#DejaVuSans-52"/>
       <use x="63.623047" xlink:href="#DejaVuSans-48"/>
       <use x="127.246094" xlink:href="#DejaVuSans-48"/>
      </g>
     </g>
    </g>
    <g id="xtick_5">
     <g id="line2d_6">
      <g>
       <use style="stroke:#000000;stroke-width:0.8;" x="365.920457" xlink:href="#m379dacd129" y="307.584"/>
      </g>
     </g>
     <g id="text_5">
      <!-- 600 -->
      <defs>
       <path d="M 33.015625 40.375 
Q 26.375 40.375 22.484375 35.828125 
Q 18.609375 31.296875 18.609375 23.390625 
Q 18.609375 15.53125 22.484375 10.953125 
Q 26.375 6.390625 33.015625 6.390625 
Q 39.65625 6.390625 43.53125 10.953125 
Q 47.40625 15.53125 47.40625 23.390625 
Q 47.40625 31.296875 43.53125 35.828125 
Q 39.65625 40.375 33.015625 40.375 
z
M 52.59375 71.296875 
L 52.59375 62.3125 
Q 48.875 64.0625 45.09375 64.984375 
Q 41.3125 65.921875 37.59375 65.921875 
Q 27.828125 65.921875 22.671875 59.328125 
Q 17.53125 52.734375 16.796875 39.40625 
Q 19.671875 43.65625 24.015625 45.921875 
Q 28.375 48.1875 33.59375 48.1875 
Q 44.578125 48.1875 50.953125 41.515625 
Q 57.328125 34.859375 57.328125 23.390625 
Q 57.328125 12.15625 50.6875 5.359375 
Q 44.046875 -1.421875 33.015625 -1.421875 
Q 20.359375 -1.421875 13.671875 8.265625 
Q 6.984375 17.96875 6.984375 36.375 
Q 6.984375 53.65625 15.1875 63.9375 
Q 23.390625 74.21875 37.203125 74.21875 
Q 40.921875 74.21875 44.703125 73.484375 
Q 48.484375 72.75 52.59375 71.296875 
z
" id="DejaVuSans-54"/>
      </defs>
      <g transform="translate(356.376707 322.182437)scale(0.1 -0.1)">
       <use xlink:href="#DejaVuSans-54"/>
       <use x="63.623047" xlink:href="#DejaVuSans-48"/>
       <use x="127.246094" xlink:href="#DejaVuSans-48"/>
      </g>
     </g>
    </g>
   </g>
   <g id="matplotlib.axis_2">
    <g id="ytick_1">
     <g id="line2d_7">
      <defs>
       <path d="M 0 0 
L -3.5 0 
" id="mf1dd29f48a" style="stroke:#000000;stroke-width:0.8;"/>
      </defs>
      <g>
       <use style="stroke:#000000;stroke-width:0.8;" x="57.6" xlink:href="#mf1dd29f48a" y="284.345037"/>
      </g>
     </g>
     <g id="text_6">
      <!-- −200 -->
      <g transform="translate(23.132812 288.144256)scale(0.1 -0.1)">
       <use xlink:href="#DejaVuSans-8722"/>
       <use x="83.789062" xlink:href="#DejaVuSans-50"/>
       <use x="147.412109" xlink:href="#DejaVuSans-48"/>
       <use x="211.035156" xlink:href="#DejaVuSans-48"/>
      </g>
     </g>
    </g>
    <g id="ytick_2">
     <g id="line2d_8">
      <g>
       <use style="stroke:#000000;stroke-width:0.8;" x="57.6" xlink:href="#mf1dd29f48a" y="244.844992"/>
      </g>
     </g>
     <g id="text_7">
      <!-- 0 -->
      <g transform="translate(44.2375 248.644211)scale(0.1 -0.1)">
       <use xlink:href="#DejaVuSans-48"/>
      </g>
     </g>
    </g>
    <g id="ytick_3">
     <g id="line2d_9">
      <g>
       <use style="stroke:#000000;stroke-width:0.8;" x="57.6" xlink:href="#mf1dd29f48a" y="205.344948"/>
      </g>
     </g>
     <g id="text_8">
      <!-- 200 -->
      <g transform="translate(31.5125 209.144166)scale(0.1 -0.1)">
       <use xlink:href="#DejaVuSans-50"/>
       <use x="63.623047" xlink:href="#DejaVuSans-48"/>
       <use x="127.246094" xlink:href="#DejaVuSans-48"/>
      </g>
     </g>
    </g>
    <g id="ytick_4">
     <g id="line2d_10">
      <g>
       <use style="stroke:#000000;stroke-width:0.8;" x="57.6" xlink:href="#mf1dd29f48a" y="165.844903"/>
      </g>
     </g>
     <g id="text_9">
      <!-- 400 -->
      <g transform="translate(31.5125 169.644121)scale(0.1 -0.1)">
       <use xlink:href="#DejaVuSans-52"/>
       <use x="63.623047" xlink:href="#DejaVuSans-48"/>
       <use x="127.246094" xlink:href="#DejaVuSans-48"/>
      </g>
     </g>
    </g>
    <g id="ytick_5">
     <g id="line2d_11">
      <g>
       <use style="stroke:#000000;stroke-width:0.8;" x="57.6" xlink:href="#mf1dd29f48a" y="126.344858"/>
      </g>
     </g>
     <g id="text_10">
      <!-- 600 -->
      <g transform="translate(31.5125 130.144076)scale(0.1 -0.1)">
       <use xlink:href="#DejaVuSans-54"/>
       <use x="63.623047" xlink:href="#DejaVuSans-48"/>
       <use x="127.246094" xlink:href="#DejaVuSans-48"/>
      </g>
     </g>
    </g>
    <g id="ytick_6">
     <g id="line2d_12">
      <g>
       <use style="stroke:#000000;stroke-width:0.8;" x="57.6" xlink:href="#mf1dd29f48a" y="86.844813"/>
      </g>
     </g>
     <g id="text_11">
      <!-- 800 -->
      <defs>
       <path d="M 31.78125 34.625 
Q 24.75 34.625 20.71875 30.859375 
Q 16.703125 27.09375 16.703125 20.515625 
Q 16.703125 13.921875 20.71875 10.15625 
Q 24.75 6.390625 31.78125 6.390625 
Q 38.8125 6.390625 42.859375 10.171875 
Q 46.921875 13.96875 46.921875 20.515625 
Q 46.921875 27.09375 42.890625 30.859375 
Q 38.875 34.625 31.78125 34.625 
z
M 21.921875 38.8125 
Q 15.578125 40.375 12.03125 44.71875 
Q 8.5 49.078125 8.5 55.328125 
Q 8.5 64.0625 14.71875 69.140625 
Q 20.953125 74.21875 31.78125 74.21875 
Q 42.671875 74.21875 48.875 69.140625 
Q 55.078125 64.0625 55.078125 55.328125 
Q 55.078125 49.078125 51.53125 44.71875 
Q 48 40.375 41.703125 38.8125 
Q 48.828125 37.15625 52.796875 32.3125 
Q 56.78125 27.484375 56.78125 20.515625 
Q 56.78125 9.90625 50.3125 4.234375 
Q 43.84375 -1.421875 31.78125 -1.421875 
Q 19.734375 -1.421875 13.25 4.234375 
Q 6.78125 9.90625 6.78125 20.515625 
Q 6.78125 27.484375 10.78125 32.3125 
Q 14.796875 37.15625 21.921875 38.8125 
z
M 18.3125 54.390625 
Q 18.3125 48.734375 21.84375 45.5625 
Q 25.390625 42.390625 31.78125 42.390625 
Q 38.140625 42.390625 41.71875 45.5625 
Q 45.3125 48.734375 45.3125 54.390625 
Q 45.3125 60.0625 41.71875 63.234375 
Q 38.140625 66.40625 31.78125 66.40625 
Q 25.390625 66.40625 21.84375 63.234375 
Q 18.3125 60.0625 18.3125 54.390625 
z
" id="DejaVuSans-56"/>
      </defs>
      <g transform="translate(31.5125 90.644032)scale(0.1 -0.1)">
       <use xlink:href="#DejaVuSans-56"/>
       <use x="63.623047" xlink:href="#DejaVuSans-48"/>
       <use x="127.246094" xlink:href="#DejaVuSans-48"/>
      </g>
     </g>
    </g>
    <g id="ytick_7">
     <g id="line2d_13">
      <g>
       <use style="stroke:#000000;stroke-width:0.8;" x="57.6" xlink:href="#mf1dd29f48a" y="47.344768"/>
      </g>
     </g>
     <g id="text_12">
      <!-- 1000 -->
      <defs>
       <path d="M 12.40625 8.296875 
L 28.515625 8.296875 
L 28.515625 63.921875 
L 10.984375 60.40625 
L 10.984375 69.390625 
L 28.421875 72.90625 
L 38.28125 72.90625 
L 38.28125 8.296875 
L 54.390625 8.296875 
L 54.390625 0 
L 12.40625 0 
z
" id="DejaVuSans-49"/>
      </defs>
      <g transform="translate(25.15 51.143987)scale(0.1 -0.1)">
       <use xlink:href="#DejaVuSans-49"/>
       <use x="63.623047" xlink:href="#DejaVuSans-48"/>
       <use x="127.246094" xlink:href="#DejaVuSans-48"/>
       <use x="190.869141" xlink:href="#DejaVuSans-48"/>
      </g>
     </g>
    </g>
   </g>
   <g id="line2d_14">
    <path clip-path="url(#p871930cf73)" d="M 394.828502 55.954273 
L 198.546765 201.411808 
L 78.646019 279.432977 
L 80.296055 291.816583 
L 243.539784 244.290582 
L 255.321381 236.99756 
" style="fill:none;stroke:#ff0000;stroke-linecap:square;stroke-width:0.5;"/>
   </g>
   <g id="patch_3">
    <path d="M 57.6 307.584 
L 57.6 41.472 
" style="fill:none;stroke:#000000;stroke-linecap:square;stroke-linejoin:miter;stroke-width:0.8;"/>
   </g>
   <g id="patch_4">
    <path d="M 414.72 307.584 
L 414.72 41.472 
" style="fill:none;stroke:#000000;stroke-linecap:square;stroke-linejoin:miter;stroke-width:0.8;"/>
   </g>
   <g id="patch_5">
    <path d="M 57.6 307.584 
L 414.72 307.584 
" style="fill:none;stroke:#000000;stroke-linecap:square;stroke-linejoin:miter;stroke-width:0.8;"/>
   </g>
   <g id="patch_6">
    <path d="M 57.6 41.472 
L 414.72 41.472 
" style="fill:none;stroke:#000000;stroke-linecap:square;stroke-linejoin:miter;stroke-width:0.8;"/>
   </g>
   <g id="PathCollection_1">
    <defs>
     <path d="M 0 2.738613 
C 0.726289 2.738613 1.422928 2.450055 1.936492 1.936492 
C 2.450055 1.422928 2.738613 0.726289 2.738613 0 
C 2.738613 -0.726289 2.450055 -1.422928 1.936492 -1.936492 
C 1.422928 -2.450055 0.726289 -2.738613 0 -2.738613 
C -0.726289 -2.738613 -1.422928 -2.450055 -1.936492 -1.936492 
C -2.450055 -1.422928 -2.738613 -0.726289 -2.738613 0 
C -2.738613 0.726289 -2.450055 1.422928 -1.936492 1.936492 
C -1.422928 2.450055 -0.726289 2.738613 0 2.738613 
z
" id="m3c7b628a5e" style="stroke:#ff0000;"/>
    </defs>
    <g clip-path="url(#p871930cf73)">
     <use style="fill:#ff0000;stroke:#ff0000;" x="394.828502" xlink:href="#m3c7b628a5e" y="55.954273"/>
     <use style="fill:#ff0000;stroke:#ff0000;" x="198.546765" xlink:href="#m3c7b628a5e" y="201.411808"/>
     <use style="fill:#ff0000;stroke:#ff0000;" x="78.646019" xlink:href="#m3c7b628a5e" y="279.432977"/>
     <use style="fill:#ff0000;stroke:#ff0000;" x="80.296055" xlink:href="#m3c7b628a5e" y="291.816583"/>
     <use style="fill:#ff0000;stroke:#ff0000;" x="243.539784" xlink:href="#m3c7b628a5e" y="244.290582"/>
     <use style="fill:#ff0000;stroke:#ff0000;" x="255.321381" xlink:href="#m3c7b628a5e" y="236.99756"/>
    </g>
   </g>
   <g id="text_13">
    <!-- (116) Subject: s3, Known = False, Degree = 2, Duration = 0.1 -->
    <defs>
     <path d="M 31 75.875 
Q 24.46875 64.65625 21.28125 53.65625 
Q 18.109375 42.671875 18.109375 31.390625 
Q 18.109375 20.125 21.3125 9.0625 
Q 24.515625 -2 31 -13.1875 
L 23.1875 -13.1875 
Q 15.875 -1.703125 12.234375 9.375 
Q 8.59375 20.453125 8.59375 31.390625 
Q 8.59375 42.28125 12.203125 53.3125 
Q 15.828125 64.359375 23.1875 75.875 
z
" id="DejaVuSans-40"/>
     <path d="M 8.015625 75.875 
L 15.828125 75.875 
Q 23.140625 64.359375 26.78125 53.3125 
Q 30.421875 42.28125 30.421875 31.390625 
Q 30.421875 20.453125 26.78125 9.375 
Q 23.140625 -1.703125 15.828125 -13.1875 
L 8.015625 -13.1875 
Q 14.5 -2 17.703125 9.0625 
Q 20.90625 20.125 20.90625 31.390625 
Q 20.90625 42.671875 17.703125 53.65625 
Q 14.5 64.65625 8.015625 75.875 
z
" id="DejaVuSans-41"/>
     <path id="DejaVuSans-32"/>
     <path d="M 53.515625 70.515625 
L 53.515625 60.890625 
Q 47.90625 63.578125 42.921875 64.890625 
Q 37.9375 66.21875 33.296875 66.21875 
Q 25.25 66.21875 20.875 63.09375 
Q 16.5 59.96875 16.5 54.203125 
Q 16.5 49.359375 19.40625 46.890625 
Q 22.3125 44.4375 30.421875 42.921875 
L 36.375 41.703125 
Q 47.40625 39.59375 52.65625 34.296875 
Q 57.90625 29 57.90625 20.125 
Q 57.90625 9.515625 50.796875 4.046875 
Q 43.703125 -1.421875 29.984375 -1.421875 
Q 24.8125 -1.421875 18.96875 -0.25 
Q 13.140625 0.921875 6.890625 3.21875 
L 6.890625 13.375 
Q 12.890625 10.015625 18.65625 8.296875 
Q 24.421875 6.59375 29.984375 6.59375 
Q 38.421875 6.59375 43.015625 9.90625 
Q 47.609375 13.234375 47.609375 19.390625 
Q 47.609375 24.75 44.3125 27.78125 
Q 41.015625 30.8125 33.5 32.328125 
L 27.484375 33.5 
Q 16.453125 35.6875 11.515625 40.375 
Q 6.59375 45.0625 6.59375 53.421875 
Q 6.59375 63.09375 13.40625 68.65625 
Q 20.21875 74.21875 32.171875 74.21875 
Q 37.3125 74.21875 42.625 73.28125 
Q 47.953125 72.359375 53.515625 70.515625 
z
" id="DejaVuSans-83"/>
     <path d="M 8.5 21.578125 
L 8.5 54.6875 
L 17.484375 54.6875 
L 17.484375 21.921875 
Q 17.484375 14.15625 20.5 10.265625 
Q 23.53125 6.390625 29.59375 6.390625 
Q 36.859375 6.390625 41.078125 11.03125 
Q 45.3125 15.671875 45.3125 23.6875 
L 45.3125 54.6875 
L 54.296875 54.6875 
L 54.296875 0 
L 45.3125 0 
L 45.3125 8.40625 
Q 42.046875 3.421875 37.71875 1 
Q 33.40625 -1.421875 27.6875 -1.421875 
Q 18.265625 -1.421875 13.375 4.4375 
Q 8.5 10.296875 8.5 21.578125 
z
M 31.109375 56 
z
" id="DejaVuSans-117"/>
     <path d="M 48.6875 27.296875 
Q 48.6875 37.203125 44.609375 42.84375 
Q 40.53125 48.484375 33.40625 48.484375 
Q 26.265625 48.484375 22.1875 42.84375 
Q 18.109375 37.203125 18.109375 27.296875 
Q 18.109375 17.390625 22.1875 11.75 
Q 26.265625 6.109375 33.40625 6.109375 
Q 40.53125 6.109375 44.609375 11.75 
Q 48.6875 17.390625 48.6875 27.296875 
z
M 18.109375 46.390625 
Q 20.953125 51.265625 25.265625 53.625 
Q 29.59375 56 35.59375 56 
Q 45.5625 56 51.78125 48.09375 
Q 58.015625 40.1875 58.015625 27.296875 
Q 58.015625 14.40625 51.78125 6.484375 
Q 45.5625 -1.421875 35.59375 -1.421875 
Q 29.59375 -1.421875 25.265625 0.953125 
Q 20.953125 3.328125 18.109375 8.203125 
L 18.109375 0 
L 9.078125 0 
L 9.078125 75.984375 
L 18.109375 75.984375 
z
" id="DejaVuSans-98"/>
     <path d="M 9.421875 54.6875 
L 18.40625 54.6875 
L 18.40625 -0.984375 
Q 18.40625 -11.421875 14.421875 -16.109375 
Q 10.453125 -20.796875 1.609375 -20.796875 
L -1.8125 -20.796875 
L -1.8125 -13.1875 
L 0.59375 -13.1875 
Q 5.71875 -13.1875 7.5625 -10.8125 
Q 9.421875 -8.453125 9.421875 -0.984375 
z
M 9.421875 75.984375 
L 18.40625 75.984375 
L 18.40625 64.59375 
L 9.421875 64.59375 
z
" id="DejaVuSans-106"/>
     <path d="M 56.203125 29.59375 
L 56.203125 25.203125 
L 14.890625 25.203125 
Q 15.484375 15.921875 20.484375 11.0625 
Q 25.484375 6.203125 34.421875 6.203125 
Q 39.59375 6.203125 44.453125 7.46875 
Q 49.3125 8.734375 54.109375 11.28125 
L 54.109375 2.78125 
Q 49.265625 0.734375 44.1875 -0.34375 
Q 39.109375 -1.421875 33.890625 -1.421875 
Q 20.796875 -1.421875 13.15625 6.1875 
Q 5.515625 13.8125 5.515625 26.8125 
Q 5.515625 40.234375 12.765625 48.109375 
Q 20.015625 56 32.328125 56 
Q 43.359375 56 49.78125 48.890625 
Q 56.203125 41.796875 56.203125 29.59375 
z
M 47.21875 32.234375 
Q 47.125 39.59375 43.09375 43.984375 
Q 39.0625 48.390625 32.421875 48.390625 
Q 24.90625 48.390625 20.390625 44.140625 
Q 15.875 39.890625 15.1875 32.171875 
z
" id="DejaVuSans-101"/>
     <path d="M 48.78125 52.59375 
L 48.78125 44.1875 
Q 44.96875 46.296875 41.140625 47.34375 
Q 37.3125 48.390625 33.40625 48.390625 
Q 24.65625 48.390625 19.8125 42.84375 
Q 14.984375 37.3125 14.984375 27.296875 
Q 14.984375 17.28125 19.8125 11.734375 
Q 24.65625 6.203125 33.40625 6.203125 
Q 37.3125 6.203125 41.140625 7.25 
Q 44.96875 8.296875 48.78125 10.40625 
L 48.78125 2.09375 
Q 45.015625 0.34375 40.984375 -0.53125 
Q 36.96875 -1.421875 32.421875 -1.421875 
Q 20.0625 -1.421875 12.78125 6.34375 
Q 5.515625 14.109375 5.515625 27.296875 
Q 5.515625 40.671875 12.859375 48.328125 
Q 20.21875 56 33.015625 56 
Q 37.15625 56 41.109375 55.140625 
Q 45.0625 54.296875 48.78125 52.59375 
z
" id="DejaVuSans-99"/>
     <path d="M 18.3125 70.21875 
L 18.3125 54.6875 
L 36.8125 54.6875 
L 36.8125 47.703125 
L 18.3125 47.703125 
L 18.3125 18.015625 
Q 18.3125 11.328125 20.140625 9.421875 
Q 21.96875 7.515625 27.59375 7.515625 
L 36.8125 7.515625 
L 36.8125 0 
L 27.59375 0 
Q 17.1875 0 13.234375 3.875 
Q 9.28125 7.765625 9.28125 18.015625 
L 9.28125 47.703125 
L 2.6875 47.703125 
L 2.6875 54.6875 
L 9.28125 54.6875 
L 9.28125 70.21875 
z
" id="DejaVuSans-116"/>
     <path d="M 11.71875 12.40625 
L 22.015625 12.40625 
L 22.015625 0 
L 11.71875 0 
z
M 11.71875 51.703125 
L 22.015625 51.703125 
L 22.015625 39.3125 
L 11.71875 39.3125 
z
" id="DejaVuSans-58"/>
     <path d="M 44.28125 53.078125 
L 44.28125 44.578125 
Q 40.484375 46.53125 36.375 47.5 
Q 32.28125 48.484375 27.875 48.484375 
Q 21.1875 48.484375 17.84375 46.4375 
Q 14.5 44.390625 14.5 40.28125 
Q 14.5 37.15625 16.890625 35.375 
Q 19.28125 33.59375 26.515625 31.984375 
L 29.59375 31.296875 
Q 39.15625 29.25 43.1875 25.515625 
Q 47.21875 21.78125 47.21875 15.09375 
Q 47.21875 7.46875 41.1875 3.015625 
Q 35.15625 -1.421875 24.609375 -1.421875 
Q 20.21875 -1.421875 15.453125 -0.5625 
Q 10.6875 0.296875 5.421875 2 
L 5.421875 11.28125 
Q 10.40625 8.6875 15.234375 7.390625 
Q 20.0625 6.109375 24.8125 6.109375 
Q 31.15625 6.109375 34.5625 8.28125 
Q 37.984375 10.453125 37.984375 14.40625 
Q 37.984375 18.0625 35.515625 20.015625 
Q 33.0625 21.96875 24.703125 23.78125 
L 21.578125 24.515625 
Q 13.234375 26.265625 9.515625 29.90625 
Q 5.8125 33.546875 5.8125 39.890625 
Q 5.8125 47.609375 11.28125 51.796875 
Q 16.75 56 26.8125 56 
Q 31.78125 56 36.171875 55.265625 
Q 40.578125 54.546875 44.28125 53.078125 
z
" id="DejaVuSans-115"/>
     <path d="M 40.578125 39.3125 
Q 47.65625 37.796875 51.625 33 
Q 55.609375 28.21875 55.609375 21.1875 
Q 55.609375 10.40625 48.1875 4.484375 
Q 40.765625 -1.421875 27.09375 -1.421875 
Q 22.515625 -1.421875 17.65625 -0.515625 
Q 12.796875 0.390625 7.625 2.203125 
L 7.625 11.71875 
Q 11.71875 9.328125 16.59375 8.109375 
Q 21.484375 6.890625 26.8125 6.890625 
Q 36.078125 6.890625 40.9375 10.546875 
Q 45.796875 14.203125 45.796875 21.1875 
Q 45.796875 27.640625 41.28125 31.265625 
Q 36.765625 34.90625 28.71875 34.90625 
L 20.21875 34.90625 
L 20.21875 43.015625 
L 29.109375 43.015625 
Q 36.375 43.015625 40.234375 45.921875 
Q 44.09375 48.828125 44.09375 54.296875 
Q 44.09375 59.90625 40.109375 62.90625 
Q 36.140625 65.921875 28.71875 65.921875 
Q 24.65625 65.921875 20.015625 65.03125 
Q 15.375 64.15625 9.8125 62.3125 
L 9.8125 71.09375 
Q 15.4375 72.65625 20.34375 73.4375 
Q 25.25 74.21875 29.59375 74.21875 
Q 40.828125 74.21875 47.359375 69.109375 
Q 53.90625 64.015625 53.90625 55.328125 
Q 53.90625 49.265625 50.4375 45.09375 
Q 46.96875 40.921875 40.578125 39.3125 
z
" id="DejaVuSans-51"/>
     <path d="M 11.71875 12.40625 
L 22.015625 12.40625 
L 22.015625 4 
L 14.015625 -11.625 
L 7.71875 -11.625 
L 11.71875 4 
z
" id="DejaVuSans-44"/>
     <path d="M 9.8125 72.90625 
L 19.671875 72.90625 
L 19.671875 42.09375 
L 52.390625 72.90625 
L 65.09375 72.90625 
L 28.90625 38.921875 
L 67.671875 0 
L 54.6875 0 
L 19.671875 35.109375 
L 19.671875 0 
L 9.8125 0 
z
" id="DejaVuSans-75"/>
     <path d="M 54.890625 33.015625 
L 54.890625 0 
L 45.90625 0 
L 45.90625 32.71875 
Q 45.90625 40.484375 42.875 44.328125 
Q 39.84375 48.1875 33.796875 48.1875 
Q 26.515625 48.1875 22.3125 43.546875 
Q 18.109375 38.921875 18.109375 30.90625 
L 18.109375 0 
L 9.078125 0 
L 9.078125 54.6875 
L 18.109375 54.6875 
L 18.109375 46.1875 
Q 21.34375 51.125 25.703125 53.5625 
Q 30.078125 56 35.796875 56 
Q 45.21875 56 50.046875 50.171875 
Q 54.890625 44.34375 54.890625 33.015625 
z
" id="DejaVuSans-110"/>
     <path d="M 30.609375 48.390625 
Q 23.390625 48.390625 19.1875 42.75 
Q 14.984375 37.109375 14.984375 27.296875 
Q 14.984375 17.484375 19.15625 11.84375 
Q 23.34375 6.203125 30.609375 6.203125 
Q 37.796875 6.203125 41.984375 11.859375 
Q 46.1875 17.53125 46.1875 27.296875 
Q 46.1875 37.015625 41.984375 42.703125 
Q 37.796875 48.390625 30.609375 48.390625 
z
M 30.609375 56 
Q 42.328125 56 49.015625 48.375 
Q 55.71875 40.765625 55.71875 27.296875 
Q 55.71875 13.875 49.015625 6.21875 
Q 42.328125 -1.421875 30.609375 -1.421875 
Q 18.84375 -1.421875 12.171875 6.21875 
Q 5.515625 13.875 5.515625 27.296875 
Q 5.515625 40.765625 12.171875 48.375 
Q 18.84375 56 30.609375 56 
z
" id="DejaVuSans-111"/>
     <path d="M 4.203125 54.6875 
L 13.1875 54.6875 
L 24.421875 12.015625 
L 35.59375 54.6875 
L 46.1875 54.6875 
L 57.421875 12.015625 
L 68.609375 54.6875 
L 77.59375 54.6875 
L 63.28125 0 
L 52.6875 0 
L 40.921875 44.828125 
L 29.109375 0 
L 18.5 0 
z
" id="DejaVuSans-119"/>
     <path d="M 10.59375 45.40625 
L 73.1875 45.40625 
L 73.1875 37.203125 
L 10.59375 37.203125 
z
M 10.59375 25.484375 
L 73.1875 25.484375 
L 73.1875 17.1875 
L 10.59375 17.1875 
z
" id="DejaVuSans-61"/>
     <path d="M 9.8125 72.90625 
L 51.703125 72.90625 
L 51.703125 64.59375 
L 19.671875 64.59375 
L 19.671875 43.109375 
L 48.578125 43.109375 
L 48.578125 34.8125 
L 19.671875 34.8125 
L 19.671875 0 
L 9.8125 0 
z
" id="DejaVuSans-70"/>
     <path d="M 34.28125 27.484375 
Q 23.390625 27.484375 19.1875 25 
Q 14.984375 22.515625 14.984375 16.5 
Q 14.984375 11.71875 18.140625 8.90625 
Q 21.296875 6.109375 26.703125 6.109375 
Q 34.1875 6.109375 38.703125 11.40625 
Q 43.21875 16.703125 43.21875 25.484375 
L 43.21875 27.484375 
z
M 52.203125 31.203125 
L 52.203125 0 
L 43.21875 0 
L 43.21875 8.296875 
Q 40.140625 3.328125 35.546875 0.953125 
Q 30.953125 -1.421875 24.3125 -1.421875 
Q 15.921875 -1.421875 10.953125 3.296875 
Q 6 8.015625 6 15.921875 
Q 6 25.140625 12.171875 29.828125 
Q 18.359375 34.515625 30.609375 34.515625 
L 43.21875 34.515625 
L 43.21875 35.40625 
Q 43.21875 41.609375 39.140625 45 
Q 35.0625 48.390625 27.6875 48.390625 
Q 23 48.390625 18.546875 47.265625 
Q 14.109375 46.140625 10.015625 43.890625 
L 10.015625 52.203125 
Q 14.9375 54.109375 19.578125 55.046875 
Q 24.21875 56 28.609375 56 
Q 40.484375 56 46.34375 49.84375 
Q 52.203125 43.703125 52.203125 31.203125 
z
" id="DejaVuSans-97"/>
     <path d="M 9.421875 75.984375 
L 18.40625 75.984375 
L 18.40625 0 
L 9.421875 0 
z
" id="DejaVuSans-108"/>
     <path d="M 19.671875 64.796875 
L 19.671875 8.109375 
L 31.59375 8.109375 
Q 46.6875 8.109375 53.6875 14.9375 
Q 60.6875 21.78125 60.6875 36.53125 
Q 60.6875 51.171875 53.6875 57.984375 
Q 46.6875 64.796875 31.59375 64.796875 
z
M 9.8125 72.90625 
L 30.078125 72.90625 
Q 51.265625 72.90625 61.171875 64.09375 
Q 71.09375 55.28125 71.09375 36.53125 
Q 71.09375 17.671875 61.125 8.828125 
Q 51.171875 0 30.078125 0 
L 9.8125 0 
z
" id="DejaVuSans-68"/>
     <path d="M 45.40625 27.984375 
Q 45.40625 37.75 41.375 43.109375 
Q 37.359375 48.484375 30.078125 48.484375 
Q 22.859375 48.484375 18.828125 43.109375 
Q 14.796875 37.75 14.796875 27.984375 
Q 14.796875 18.265625 18.828125 12.890625 
Q 22.859375 7.515625 30.078125 7.515625 
Q 37.359375 7.515625 41.375 12.890625 
Q 45.40625 18.265625 45.40625 27.984375 
z
M 54.390625 6.78125 
Q 54.390625 -7.171875 48.1875 -13.984375 
Q 42 -20.796875 29.203125 -20.796875 
Q 24.46875 -20.796875 20.265625 -20.09375 
Q 16.0625 -19.390625 12.109375 -17.921875 
L 12.109375 -9.1875 
Q 16.0625 -11.328125 19.921875 -12.34375 
Q 23.78125 -13.375 27.78125 -13.375 
Q 36.625 -13.375 41.015625 -8.765625 
Q 45.40625 -4.15625 45.40625 5.171875 
L 45.40625 9.625 
Q 42.625 4.78125 38.28125 2.390625 
Q 33.9375 0 27.875 0 
Q 17.828125 0 11.671875 7.65625 
Q 5.515625 15.328125 5.515625 27.984375 
Q 5.515625 40.671875 11.671875 48.328125 
Q 17.828125 56 27.875 56 
Q 33.9375 56 38.28125 53.609375 
Q 42.625 51.21875 45.40625 46.390625 
L 45.40625 54.6875 
L 54.390625 54.6875 
z
" id="DejaVuSans-103"/>
     <path d="M 41.109375 46.296875 
Q 39.59375 47.171875 37.8125 47.578125 
Q 36.03125 48 33.890625 48 
Q 26.265625 48 22.1875 43.046875 
Q 18.109375 38.09375 18.109375 28.8125 
L 18.109375 0 
L 9.078125 0 
L 9.078125 54.6875 
L 18.109375 54.6875 
L 18.109375 46.1875 
Q 20.953125 51.171875 25.484375 53.578125 
Q 30.03125 56 36.53125 56 
Q 37.453125 56 38.578125 55.875 
Q 39.703125 55.765625 41.0625 55.515625 
z
" id="DejaVuSans-114"/>
     <path d="M 9.421875 54.6875 
L 18.40625 54.6875 
L 18.40625 0 
L 9.421875 0 
z
M 9.421875 75.984375 
L 18.40625 75.984375 
L 18.40625 64.59375 
L 9.421875 64.59375 
z
" id="DejaVuSans-105"/>
     <path d="M 10.6875 12.40625 
L 21 12.40625 
L 21 0 
L 10.6875 0 
z
" id="DejaVuSans-46"/>
    </defs>
    <g transform="translate(49.741875 35.472)scale(0.12 -0.12)">
     <use xlink:href="#DejaVuSans-40"/>
     <use x="39.013672" xlink:href="#DejaVuSans-49"/>
     <use x="102.636719" xlink:href="#DejaVuSans-49"/>
     <use x="166.259766" xlink:href="#DejaVuSans-54"/>
     <use x="229.882812" xlink:href="#DejaVuSans-41"/>
     <use x="268.896484" xlink:href="#DejaVuSans-32"/>
     <use x="300.683594" xlink:href="#DejaVuSans-83"/>
     <use x="364.160156" xlink:href="#DejaVuSans-117"/>
     <use x="427.539062" xlink:href="#DejaVuSans-98"/>
     <use x="491.015625" xlink:href="#DejaVuSans-106"/>
     <use x="518.798828" xlink:href="#DejaVuSans-101"/>
     <use x="580.322266" xlink:href="#DejaVuSans-99"/>
     <use x="635.302734" xlink:href="#DejaVuSans-116"/>
     <use x="674.511719" xlink:href="#DejaVuSans-58"/>
     <use x="708.203125" xlink:href="#DejaVuSans-32"/>
     <use x="739.990234" xlink:href="#DejaVuSans-115"/>
     <use x="792.089844" xlink:href="#DejaVuSans-51"/>
     <use x="855.712891" xlink:href="#DejaVuSans-44"/>
     <use x="887.5" xlink:href="#DejaVuSans-32"/>
     <use x="919.287109" xlink:href="#DejaVuSans-75"/>
     <use x="984.863281" xlink:href="#DejaVuSans-110"/>
     <use x="1048.242188" xlink:href="#DejaVuSans-111"/>
     <use x="1109.423828" xlink:href="#DejaVuSans-119"/>
     <use x="1191.210938" xlink:href="#DejaVuSans-110"/>
     <use x="1254.589844" xlink:href="#DejaVuSans-32"/>
     <use x="1286.376953" xlink:href="#DejaVuSans-61"/>
     <use x="1370.166016" xlink:href="#DejaVuSans-32"/>
     <use x="1401.953125" xlink:href="#DejaVuSans-70"/>
     <use x="1459.332031" xlink:href="#DejaVuSans-97"/>
     <use x="1520.611328" xlink:href="#DejaVuSans-108"/>
     <use x="1548.394531" xlink:href="#DejaVuSans-115"/>
     <use x="1600.494141" xlink:href="#DejaVuSans-101"/>
     <use x="1662.017578" xlink:href="#DejaVuSans-44"/>
     <use x="1693.804688" xlink:href="#DejaVuSans-32"/>
     <use x="1725.591797" xlink:href="#DejaVuSans-68"/>
     <use x="1802.59375" xlink:href="#DejaVuSans-101"/>
     <use x="1864.117188" xlink:href="#DejaVuSans-103"/>
     <use x="1927.59375" xlink:href="#DejaVuSans-114"/>
     <use x="1968.675781" xlink:href="#DejaVuSans-101"/>
     <use x="2030.199219" xlink:href="#DejaVuSans-101"/>
     <use x="2091.722656" xlink:href="#DejaVuSans-32"/>
     <use x="2123.509766" xlink:href="#DejaVuSans-61"/>
     <use x="2207.298828" xlink:href="#DejaVuSans-32"/>
     <use x="2239.085938" xlink:href="#DejaVuSans-50"/>
     <use x="2302.708984" xlink:href="#DejaVuSans-44"/>
     <use x="2334.496094" xlink:href="#DejaVuSans-32"/>
     <use x="2366.283203" xlink:href="#DejaVuSans-68"/>
     <use x="2443.285156" xlink:href="#DejaVuSans-117"/>
     <use x="2506.664062" xlink:href="#DejaVuSans-114"/>
     <use x="2547.777344" xlink:href="#DejaVuSans-97"/>
     <use x="2609.056641" xlink:href="#DejaVuSans-116"/>
     <use x="2648.265625" xlink:href="#DejaVuSans-105"/>
     <use x="2676.048828" xlink:href="#DejaVuSans-111"/>
     <use x="2737.230469" xlink:href="#DejaVuSans-110"/>
     <use x="2800.609375" xlink:href="#DejaVuSans-32"/>
     <use x="2832.396484" xlink:href="#DejaVuSans-61"/>
     <use x="2916.185547" xlink:href="#DejaVuSans-32"/>
     <use x="2947.972656" xlink:href="#DejaVuSans-48"/>
     <use x="3011.595703" xlink:href="#DejaVuSans-46"/>
     <use x="3043.382812" xlink:href="#DejaVuSans-49"/>
    </g>
   </g>
  </g>
 </g>
 <defs>
  <clipPath id="p871930cf73">
   <rect height="266.112" width="357.12" x="57.6" y="41.472"/>
  </clipPath>
 </defs>
</svg>
