<?xml version="1.0" encoding="utf-8" standalone="no"?>
<!DOCTYPE svg PUBLIC "-//W3C//DTD SVG 1.1//EN"
  "http://www.w3.org/Graphics/SVG/1.1/DTD/svg11.dtd">
<!-- Created with matplotlib (https://matplotlib.org/) -->
<svg height="345.6pt" version="1.1" viewBox="0 0 460.8 345.6" width="460.8pt" xmlns="http://www.w3.org/2000/svg" xmlns:xlink="http://www.w3.org/1999/xlink">
 <defs>
  <style type="text/css">
*{stroke-linecap:butt;stroke-linejoin:round;}
  </style>
 </defs>
 <g id="figure_1">
  <g id="patch_1">
   <path d="M 0 345.6 
L 460.8 345.6 
L 460.8 0 
L 0 0 
z
" style="fill:#ffffff;"/>
  </g>
  <g id="axes_1">
   <g id="patch_2">
    <path d="M 57.6 307.584 
L 414.72 307.584 
L 414.72 41.472 
L 57.6 41.472 
z
" style="fill:#ffffff;"/>
   </g>
   <g id="line2d_1">
    <path clip-path="url(#pe3121e6fbd)" d="M 77.448363 54.301027 
L 76.968125 54.301027 
L 76.968125 54.057686 
L 77.448363 53.814345 
L 77.208244 53.814345 
L 75.522795 53.814345 
L 74.557702 54.301027 
L 74.557702 54.790713 
L 75.278058 55.034054 
L 76.487888 55.034054 
L 76.728007 54.547372 
L 76.487888 54.057686 
L 76.003032 53.568 
L 76.003032 53.568 
L 75.522795 53.814345 
L 74.557702 53.814345 
L 73.832727 54.301027 
L 74.312965 54.790713 
L 75.037939 55.034054 
L 75.522795 55.034054 
L 75.522795 55.034054 
L 75.522795 55.523741 
L 76.003032 56.013427 
L 76.487888 55.767082 
L 76.728007 55.2804 
L 76.487888 55.2804 
L 75.762913 55.523741 
L 75.278058 55.523741 
L 75.522795 55.034054 
L 76.968125 54.790713 
L 76.487888 55.034054 
L 75.762913 55.034054 
L 76.003032 55.523741 
L 76.728007 55.767082 
L 77.448363 55.523741 
L 77.208244 55.523741 
L 76.243151 55.523741 
L 75.278058 55.2804 
L 74.79782 55.034054 
L 74.79782 55.523741 
L 75.522795 56.013427 
L 76.487888 55.523741 
L 76.728007 55.034054 
L 76.487888 54.790713 
L 76.243151 54.790713 
L 76.487888 54.547372 
L 76.243151 54.301027 
L 76.968125 55.523741 
L 76.487888 56.013427 
L 75.522795 54.057686 
L 75.522795 54.547372 
L 76.003032 55.2804 
L 76.003032 55.767082 
L 75.762913 56.746454 
L 75.762913 57.233136 
L 76.003032 56.989795 
L 76.243151 56.013427 
L 75.762913 55.2804 
L 75.037939 54.790713 
L 74.557702 55.2804 
L 75.037939 56.989795 
L 75.278058 56.500109 
L 75.522795 55.2804 
L 75.278058 55.767082 
L 75.037939 56.746454 
L 74.79782 56.989795 
L 74.79782 56.256768 
L 75.278058 55.2804 
L 75.522795 55.2804 
L 75.762913 56.256768 
L 75.762913 56.746454 
L 76.243151 56.256768 
L 76.487888 56.256768 
L 76.487888 56.500109 
L 76.487888 56.256768 
L 75.762913 56.256768 
L 74.79782 56.500109 
L 75.037939 56.256768 
L 75.762913 55.767082 
L 76.243151 55.767082 
L 76.243151 56.500109 
L 75.762913 56.500109 
L 75.037939 56.256768 
L 75.037939 55.767082 
L 75.037939 55.767082 
L 75.278058 56.013427 
L 75.762913 56.746454 
L 76.003032 57.479481 
L 75.762913 56.989795 
L 75.522795 56.746454 
L 75.522795 55.767082 
L 75.278058 55.523741 
L 75.522795 55.2804 
L 76.243151 56.013427 
L 76.487888 56.500109 
L 76.003032 56.746454 
L 75.522795 56.746454 
L 75.522795 56.500109 
L 76.728007 57.233136 
L 77.208244 57.233136 
L 76.487888 57.233136 
L 75.762913 56.500109 
L 76.003032 56.256768 
L 76.728007 56.500109 
L 76.728007 56.500109 
L 75.762913 56.989795 
L 75.762913 56.746454 
L 76.243151 56.013427 
L 76.243151 55.2804 
L 76.243151 55.523741 
L 76.003032 55.523741 
L 76.243151 55.523741 
L 76.487888 55.767082 
L 76.243151 56.013427 
L 76.487888 56.256768 
L 76.968125 56.013427 
L 76.728007 55.523741 
L 76.243151 55.523741 
L 76.968125 55.523741 
L 77.448363 55.034054 
L 77.6931 55.2804 
L 77.6931 55.767082 
L 76.968125 56.013427 
L 75.762913 56.746454 
L 75.522795 56.746454 
L 75.762913 56.500109 
L 76.003032 56.746454 
L 76.243151 56.746454 
L 76.728007 56.989795 
L 77.208244 57.479481 
L 76.968125 57.722822 
L 76.243151 57.479481 
L 76.003032 56.989795 
L 76.243151 56.746454 
L 76.487888 56.746454 
L 76.487888 56.256768 
L 76.243151 55.767082 
L 75.762913 55.523741 
L 75.278058 56.013427 
L 75.762913 56.989795 
L 76.487888 57.479481 
L 76.728007 56.989795 
L 76.487888 56.746454 
L 76.003032 56.746454 
L 76.003032 56.746454 
L 76.003032 56.256768 
L 75.762913 56.013427 
L 75.278058 56.013427 
L 75.037939 56.500109 
L 75.278058 56.746454 
L 76.003032 56.746454 
L 76.243151 56.256768 
L 76.487888 56.500109 
L 76.487888 57.233136 
L 76.003032 57.233136 
L 75.037939 56.746454 
L 75.037939 57.233136 
L 75.762913 57.233136 
L 77.208244 56.746454 
L 77.933218 56.746454 
L 77.6931 56.989795 
L 76.968125 56.989795 
L 76.968125 56.746454 
L 77.208244 56.256768 
L 76.968125 56.013427 
L 76.728007 56.013427 
L 76.728007 56.256768 
L 77.448363 56.500109 
L 78.173337 56.500109 
L 78.658193 56.746454 
L 78.173337 56.989795 
L 76.968125 56.989795 
L 76.968125 56.746454 
L 77.6931 56.746454 
L 78.173337 56.989795 
L 78.173337 57.233136 
L 78.658193 57.233136 
L 79.378549 56.256768 
L 77.933218 55.767082 
L 77.208244 56.013427 
L 76.728007 56.746454 
L 76.728007 56.989795 
L 77.448363 56.989795 
L 77.933218 57.233136 
L 77.6931 57.722822 
L 77.448363 57.722822 
L 77.6931 57.233136 
L 77.448363 57.479481 
L 76.728007 58.455849 
L 76.728007 59.188876 
L 77.6931 58.69919 
L 77.6931 57.966163 
L 76.968125 58.212508 
L 76.968125 58.69919 
L 78.173337 58.455849 
L 78.898312 57.966163 
L 78.898312 57.722822 
L 77.6931 57.479481 
L 77.448363 57.722822 
L 77.448363 57.966163 
L 78.173337 57.966163 
L 78.173337 58.212508 
L 77.6931 58.212508 
L 77.6931 57.722822 
L 78.173337 56.989795 
L 78.173337 57.479481 
L 78.173337 57.479481 
L 77.933218 57.722822 
L 77.933218 57.722822 
L 78.413456 56.500109 
L 78.173337 56.746454 
L 77.933218 57.233136 
L 77.448363 57.722822 
L 77.448363 57.966163 
L 78.173337 57.966163 
L 79.623286 57.479481 
L 79.13843 57.722822 
L 78.413456 57.479481 
L 78.173337 57.722822 
L 77.933218 57.722822 
L 77.448363 57.233136 
L 77.448363 56.989795 
L 78.173337 57.479481 
L 78.658193 57.966163 
L 79.13843 58.69919 
L 80.588379 59.188876 
L 83.479041 59.435222 
L 86.859175 58.945535 
L 90.959666 58.69919 
L 95.540395 59.435222 
L 105.431445 63.100358 
L 112.422598 65.053094 
L 120.62358 66.765494 
L 129.309418 68.71823 
L 147.641569 73.362738 
L 158.012857 75.805161 
L 168.864382 78.493928 
L 189.851693 84.847832 
L 211.79948 92.66779 
L 222.655623 96.332926 
L 233.026911 100.241403 
L 243.158079 104.396225 
L 253.28463 108.307706 
L 262.935561 111.726497 
L 272.101637 115.637978 
L 281.267712 119.059773 
L 300.080101 124.92399 
L 309.486295 128.342781 
L 318.167516 132.010921 
L 326.368498 135.676057 
L 333.604387 139.584534 
L 340.11992 143.982697 
L 346.150598 147.894178 
L 352.176657 151.069628 
L 363.272919 156.200818 
L 367.858266 158.646245 
L 371.473901 161.088668 
L 374.129062 163.044408 
L 375.574393 164.510463 
L 376.539486 166.219858 
L 377.26446 168.175598 
L 376.539486 168.418939 
L 372.679113 168.908626 
L 370.508808 169.151967 
L 368.098385 169.884994 
L 365.687961 170.131339 
L 363.272919 169.641653 
L 360.622376 168.908626 
L 357.727097 168.418939 
L 355.796911 168.418939 
L 353.866725 168.665285 
L 351.936538 169.151967 
L 350.491208 169.641653 
L 349.041259 169.641653 
L 348.561021 169.884994 
L 349.285996 170.131339 
L 352.421394 171.597393 
L 353.626606 171.840734 
L 354.35158 171.840734 
L 355.796911 172.330421 
L 356.277149 172.330421 
L 357.002123 172.084075 
L 357.727097 172.330421 
L 357.967216 172.573762 
L 358.452071 173.306789 
L 359.172428 174.039816 
L 359.657283 174.283157 
L 359.897402 174.529502 
L 359.897402 174.772843 
L 359.172428 175.50587 
L 357.002123 176.238897 
L 356.762004 176.728584 
L 356.762004 177.21827 
L 356.277149 177.21827 
L 355.556792 176.971925 
L 353.626606 177.461611 
L 352.901632 177.461611 
L 351.456301 176.485243 
L 351.456301 177.704952 
L 351.936538 178.194638 
L 352.176657 178.194638 
L 351.936538 177.704952 
L 351.936538 176.971925 
L 352.421394 176.728584 
L 352.421394 176.485243 
L 351.936538 176.238897 
L 351.69642 176.728584 
L 351.69642 177.21827 
L 352.421394 177.21827 
L 352.176657 177.461611 
L 351.216182 177.951297 
L 351.69642 178.437979 
L 352.176657 178.684324 
L 352.661513 178.194638 
L 352.176657 178.684324 
L 351.456301 178.927665 
L 350.971445 178.684324 
L 350.731327 178.194638 
L 351.216182 178.194638 
L 351.456301 178.684324 
L 351.216182 178.684324 
L 350.971445 177.704952 
L 350.491208 178.437979 
L 350.731327 178.437979 
L 351.216182 178.194638 
L 351.69642 178.194638 
L 351.69642 177.951297 
L 350.731327 177.951297 
L 349.766233 177.704952 
L 349.285996 177.704952 
L 349.766233 177.704952 
L 350.731327 177.951297 
L 353.14175 177.951297 
L 354.106844 178.194638 
L 354.591699 178.684324 
L 355.071937 179.660692 
L 355.796911 179.660692 
L 356.762004 179.171006 
L 357.486978 179.171006 
L 357.967216 179.417351 
L 358.207335 180.150379 
L 357.967216 181.370088 
L 357.242242 182.836142 
L 356.03703 184.058855 
L 355.071937 185.281569 
L 350.251089 193.834554 
L 349.285996 196.520318 
L 349.285996 198.965744 
L 351.456301 205.073303 
L 352.421394 208.984784 
L 352.901632 212.64992 
L 354.35158 215.82537 
L 356.762004 219.003824 
L 363.272919 225.601068 
L 370.993664 234.154053 
L 374.369181 237.329503 
L 382.330044 243.440066 
L 385.225324 246.128834 
L 387.395629 248.327915 
L 389.806053 250.526997 
L 392.216476 252.479733 
L 394.386782 255.168501 
L 396.076849 258.346955 
L 397.041942 260.789377 
L 397.766916 261.765745 
L 398.247154 262.745118 
L 398.487273 264.211172 
L 397.766916 265.677226 
L 396.801823 267.143281 
L 395.111756 272.03113 
L 394.386782 273.497184 
L 394.146663 274.473553 
L 393.18157 274.963239 
L 391.736239 275.20658 
L 390.28629 275.696266 
L 389.325815 276.429293 
L 388.600841 276.672634 
L 388.360722 276.915975 
L 388.600841 277.16232 
L 388.360722 278.138689 
L 387.635748 278.871716 
L 387.635748 279.851088 
L 388.840959 280.827456 
L 390.046171 281.560484 
L 390.28629 282.05017 
L 390.28629 282.536852 
L 390.046171 282.536852 
L 389.806053 283.026538 
L 389.325815 283.516224 
L 389.325815 284.492592 
L 389.806053 285.225619 
L 392.216476 285.958647 
L 392.461213 286.448333 
L 392.461213 286.935015 
L 392.941451 287.424701 
L 392.941451 287.914387 
L 392.461213 287.914387 
L 391.736239 287.668042 
L 391.011265 288.157728 
L 391.011265 288.401069 
L 391.49612 288.890755 
L 391.736239 288.890755 
L 391.49612 288.647414 
L 390.771146 288.890755 
L 390.771146 289.380442 
L 391.251383 289.623783 
L 391.976358 290.35681 
L 391.976358 291.579523 
L 391.736239 291.822864 
L 391.49612 291.089837 
L 391.736239 290.113469 
L 391.736239 289.867124 
L 391.251383 289.867124 
L 391.251383 290.113469 
L 391.011265 290.113469 
L 390.531027 289.867124 
L 389.806053 289.623783 
L 389.806053 289.867124 
L 390.531027 290.600151 
L 390.771146 291.336182 
L 390.531027 291.822864 
L 390.771146 291.579523 
L 391.251383 291.336182 
L 391.011265 291.579523 
L 390.28629 292.069209 
L 390.28629 292.31255 
L 391.49612 291.822864 
L 391.736239 292.069209 
L 391.976358 292.069209 
L 391.976358 291.579523 
L 391.976358 291.822864 
L 391.736239 292.069209 
L 391.251383 292.069209 
L 391.011265 291.336182 
L 391.251383 291.089837 
L 391.251383 290.846496 
L 391.011265 290.846496 
L 390.531027 291.089837 
L 390.771146 291.822864 
L 391.011265 292.069209 
L 391.49612 291.579523 
L 391.736239 292.069209 
L 390.531027 291.579523 
L 391.49612 291.822864 
L 391.011265 292.069209 
L 390.771146 291.822864 
L 391.011265 291.579523 
L 391.251383 291.822864 
L 391.251383 292.31255 
L 391.011265 292.555891 
L 390.771146 292.31255 
L 391.011265 292.069209 
L 391.49612 292.31255 
L 391.49612 291.822864 
L 391.251383 291.089837 
L 390.771146 290.846496 
L 390.28629 291.089837 
L 389.565934 291.579523 
L 389.325815 292.069209 
L 389.081078 292.31255 
L 389.081078 292.555891 
L 388.840959 292.555891 
L 388.360722 293.045577 
L 388.360722 293.778605 
L 389.081078 293.778605 
L 389.325815 292.802236 
L 389.081078 292.069209 
L 388.360722 292.31255 
L 387.635748 293.045577 
L 387.635748 293.535264 
L 389.081078 293.535264 
L 390.28629 294.268291 
L 390.046171 293.778605 
L 388.600841 293.778605 
L 388.600841 294.021946 
L 388.600841 294.021946 
L 388.840959 294.268291 
L 389.325815 294.511632 
L 390.046171 294.021946 
L 390.531027 293.045577 
L 390.531027 292.555891 
L 390.28629 292.31255 
L 390.046171 292.802236 
L 390.046171 293.288918 
L 390.531027 293.535264 
L 390.771146 293.288918 
L 390.531027 293.288918 
L 390.046171 293.778605 
L 390.046171 293.778605 
L 389.806053 293.535264 
L 390.046171 293.535264 
L 390.046171 293.288918 
L 389.565934 293.288918 
L 389.325815 293.045577 
L 389.325815 292.802236 
L 389.565934 293.045577 
L 389.806053 294.021946 
L 389.806053 293.778605 
L 389.806053 293.288918 
L 388.840959 293.778605 
L 388.600841 293.778605 
L 388.840959 294.021946 
L 389.325815 294.021946 
L 389.325815 294.021946 
L 390.046171 293.288918 
L 390.531027 293.045577 
L 390.531027 292.802236 
L 390.28629 293.288918 
L 389.806053 293.288918 
L 388.600841 293.778605 
L 387.635748 294.021946 
L 387.875866 294.268291 
L 389.565934 293.778605 
L 390.046171 293.535264 
L 389.806053 293.045577 
L 389.565934 293.288918 
L 389.565934 293.778605 
L 390.046171 293.778605 
L 390.28629 293.535264 
L 389.806053 293.535264 
L 389.325815 293.778605 
L 389.565934 294.021946 
L 390.046171 294.268291 
L 390.046171 294.268291 
L 389.565934 294.511632 
L 389.565934 294.511632 
L 389.565934 294.021946 
L 390.531027 293.045577 
L 390.771146 293.288918 
L 390.771146 293.778605 
L 390.531027 294.021946 
L 390.28629 294.021946 
L 390.28629 293.535264 
L 390.046171 293.535264 
L 390.046171 293.778605 
L 390.531027 294.268291 
L 391.251383 294.511632 
L 391.49612 294.268291 
L 391.736239 294.268291 
L 391.736239 294.511632 
L 391.976358 294.268291 
L 391.736239 293.778605 
L 391.976358 293.778605 
L 391.011265 293.288918 
L 391.011265 294.511632 
L 391.251383 294.268291 
L 391.49612 294.268291 
L 391.736239 294.021946 
L 391.251383 293.535264 
L 390.531027 293.288918 
L 390.531027 293.288918 
L 391.49612 293.288918 
L 392.216476 293.535264 
L 392.216476 294.268291 
L 391.736239 294.754973 
L 392.216476 294.268291 
L 391.736239 294.268291 
L 391.49612 294.021946 
L 391.736239 293.045577 
L 391.976358 292.555891 
L 391.49612 292.802236 
L 391.49612 293.535264 
L 391.976358 294.754973 
L 392.461213 295.488 
L 392.461213 295.488 
L 392.701332 295.001318 
L 392.701332 293.778605 
L 392.941451 293.288918 
L 392.216476 293.288918 
L 391.251383 293.535264 
L 391.251383 293.778605 
L 391.976358 294.021946 
L 391.976358 294.511632 
L 392.216476 294.511632 
L 392.941451 294.021946 
L 392.941451 293.288918 
L 392.216476 292.555891 
L 391.49612 291.336182 
L 390.28629 289.867124 
L 388.840959 289.134096 
L 386.910773 288.647414 
L 384.740468 287.18136 
L 382.089926 284.735933 
L 374.6093 278.628375 
L 371.233783 275.449921 
L 368.098385 272.03113 
L 362.067707 264.454513 
L 358.932309 260.789377 
L 356.762004 257.124241 
L 355.316673 253.702446 
L 354.591699 250.526997 
L 354.106844 247.105202 
L 353.386487 243.926748 
L 352.421394 241.727666 
L 352.176657 240.018271 
L 352.661513 237.575848 
L 353.866725 233.421026 
L 354.591699 232.441654 
L 355.316673 231.708627 
L 355.796911 230.732258 
L 356.277149 230.488917 
L 357.486978 230.732258 
L 358.207335 231.465286 
L 358.69219 231.708627 
L 357.967216 232.441654 
L 358.452071 234.64374 
L 358.452071 235.863449 
L 359.657283 237.329503 
L 359.657283 237.819189 
L 359.412547 237.819189 
L 359.172428 238.06253 
L 358.207335 238.308875 
L 357.242242 238.795557 
L 357.002123 239.285244 
L 357.002123 239.285244 
L 356.762004 239.285244 
L 356.762004 239.041903 
L 356.762004 239.041903 
L 356.521885 239.285244 
L 356.277149 239.285244 
L 356.277149 239.041903 
L 357.002123 238.308875 
L 357.242242 237.819189 
L 357.002123 237.575848 
L 357.242242 237.575848 
L 357.967216 238.06253 
L 358.452071 238.06253 
L 357.967216 238.06253 
L 357.486978 237.575848 
L 357.967216 237.329503 
L 358.69219 237.575848 
L 358.207335 238.06253 
L 357.727097 238.795557 
L 357.967216 239.041903 
L 357.727097 239.285244 
L 357.242242 239.285244 
L 357.242242 239.285244 
L 357.242242 239.041903 
L 357.002123 238.552216 
L 357.486978 238.552216 
L 357.486978 238.308875 
L 357.242242 238.552216 
L 357.486978 239.041903 
L 358.207335 239.041903 
L 357.486978 239.041903 
L 355.796911 239.77493 
L 356.277149 240.751298 
L 356.521885 240.507957 
L 356.521885 239.77493 
L 356.762004 239.77493 
L 356.762004 239.77493 
L 356.762004 239.528585 
L 356.277149 239.285244 
L 355.071937 240.018271 
L 354.831818 240.751298 
L 355.316673 241.240984 
L 355.796911 241.240984 
L 356.03703 240.751298 
L 356.03703 240.018271 
L 355.556792 240.018271 
L 355.556792 240.261612 
L 356.762004 241.484325 
L 356.762004 241.974011 
L 356.277149 241.974011 
L 355.556792 242.217352 
L 355.316673 241.974011 
L 355.071937 241.484325 
L 355.316673 241.727666 
L 355.556792 241.974011 
L 355.316673 241.727666 
L 355.556792 241.240984 
L 356.277149 241.240984 
L 356.521885 241.727666 
L 356.277149 241.727666 
L 355.796911 241.974011 
L 355.556792 242.460693 
L 355.071937 242.460693 
L 354.35158 242.217352 
L 354.591699 241.727666 
L 355.071937 241.484325 
L 355.556792 241.974011 
L 356.03703 242.707039 
L 356.521885 243.193721 
L 356.277149 243.193721 
L 356.277149 242.95038 
L 356.03703 242.460693 
L 355.316673 242.217352 
L 354.831818 242.217352 
L 354.831818 242.217352 
L 354.831818 242.95038 
L 354.591699 243.193721 
L 354.35158 242.707039 
L 354.106844 242.707039 
L 354.106844 242.95038 
L 354.35158 242.95038 
L 355.071937 242.707039 
L 355.316673 242.95038 
L 355.316673 243.193721 
L 355.071937 243.683407 
L 354.591699 243.926748 
L 354.35158 244.173093 
L 354.106844 243.926748 
L 353.866725 243.926748 
L 354.831818 242.95038 
L 354.831818 242.707039 
L 354.831818 243.440066 
L 354.591699 244.173093 
L 354.35158 244.416434 
L 354.106844 244.173093 
L 354.106844 243.683407 
L 353.866725 243.440066 
L 353.386487 243.926748 
L 352.661513 244.416434 
L 352.421394 244.416434 
L 352.901632 244.416434 
L 354.106844 245.149461 
L 354.35158 244.90612 
L 354.831818 244.90612 
L 355.071937 244.662779 
L 353.866725 244.662779 
L 352.421394 244.90612 
L 352.176657 245.395806 
L 353.866725 246.128834 
L 354.106844 246.128834 
L 354.35158 245.882488 
L 354.35158 245.395806 
L 354.106844 245.149461 
L 354.35158 245.882488 
L 354.35158 245.639147 
L 353.866725 245.395806 
L 353.626606 245.639147 
L 353.866725 245.882488 
L 354.591699 245.882488 
L 355.316673 245.639147 
L 354.831818 245.882488 
L 353.866725 245.882488 
L 353.386487 245.639147 
L 353.386487 245.149461 
L 353.866725 245.149461 
L 354.591699 245.395806 
L 354.35158 245.395806 
L 353.866725 246.128834 
L 353.866725 246.861861 
L 353.386487 246.128834 
L 353.14175 246.128834 
L 353.626606 246.128834 
L 355.071937 245.639147 
L 355.071937 246.128834 
L 354.831818 246.372175 
L 354.831818 246.128834 
L 355.071937 246.128834 
L 355.316673 246.372175 
L 355.316673 246.372175 
L 355.316673 247.105202 
L 354.831818 246.861861 
L 354.35158 246.372175 
L 354.591699 246.128834 
L 355.316673 246.128834 
L 355.556792 246.372175 
L 355.796911 246.861861 
L 355.556792 247.348543 
L 355.071937 247.594888 
L 354.35158 247.348543 
L 354.106844 247.105202 
L 354.35158 246.861861 
L 355.071937 246.861861 
L 355.556792 247.594888 
L 355.556792 248.08157 
L 355.556792 247.105202 
L 355.316673 247.105202 
L 355.316673 247.348543 
L 355.796911 247.348543 
L 356.03703 247.105202 
L 356.521885 247.348543 
L 357.727097 249.060942 
L 358.207335 249.547624 
L 358.207335 248.814597 
L 358.452071 248.571256 
L 358.452071 248.327915 
L 357.002123 249.060942 
L 357.002123 249.304283 
L 357.967216 249.304283 
L 358.69219 249.547624 
L 358.932309 249.304283 
L 358.932309 248.571256 
L 358.69219 248.571256 
L 357.967216 249.304283 
L 358.452071 249.304283 
L 358.207335 249.793969 
L 357.727097 250.280651 
L 356.762004 249.793969 
L 357.242242 248.814597 
L 357.486978 248.814597 
L 357.967216 249.304283 
L 358.207335 249.793969 
L 357.967216 249.793969 
L 357.967216 250.280651 
L 357.967216 250.03731 
L 357.727097 249.547624 
L 357.002123 248.814597 
L 357.002123 249.304283 
L 357.486978 250.280651 
L 357.727097 251.260024 
L 357.727097 251.993051 
L 357.242242 251.993051 
L 357.242242 251.746706 
L 357.486978 251.503365 
L 357.002123 251.503365 
L 356.521885 251.260024 
L 356.03703 251.260024 
L 355.796911 250.770338 
L 355.316673 250.526997 
L 354.831818 250.770338 
L 355.071937 251.013679 
L 355.796911 251.013679 
L 356.03703 251.260024 
L 355.796911 251.013679 
L 355.556792 251.013679 
L 355.071937 251.260024 
L 355.316673 251.260024 
L 355.071937 251.746706 
L 355.071937 252.236392 
L 355.316673 252.236392 
L 355.071937 251.746706 
L 354.35158 251.013679 
L 353.626606 250.770338 
L 353.626606 250.770338 
L 353.866725 250.526997 
L 353.866725 250.770338 
L 353.386487 251.013679 
L 353.14175 250.770338 
L 353.386487 250.770338 
L 353.386487 251.013679 
L 353.14175 251.260024 
L 352.901632 251.260024 
L 352.661513 251.013679 
L 352.176657 251.260024 
L 351.69642 251.260024 
L 351.216182 250.770338 
L 351.216182 250.770338 
L 351.936538 250.770338 
L 351.936538 250.526997 
L 351.216182 250.770338 
L 350.731327 251.503365 
L 350.731327 251.993051 
L 350.731327 251.993051 
L 350.491208 251.993051 
L 349.766233 251.746706 
L 349.526115 251.746706 
L 349.526115 251.746706 
L 350.006352 252.236392 
L 350.251089 251.993051 
L 350.006352 251.503365 
L 349.041259 251.013679 
L 348.076166 251.013679 
L 347.595928 251.746706 
L 347.836047 252.479733 
L 347.836047 252.479733 
" style="fill:none;stroke:#1f77b4;stroke-linecap:square;stroke-width:1.5;"/>
   </g>
   <g id="matplotlib.axis_1">
    <g id="xtick_1">
     <g id="line2d_2">
      <defs>
       <path d="M 0 0 
L 0 3.5 
" id="m419985438e" style="stroke:#000000;stroke-width:0.8;"/>
      </defs>
      <g>
       <use style="stroke:#000000;stroke-width:0.8;" x="85.141402" xlink:href="#m419985438e" y="307.584"/>
      </g>
     </g>
     <g id="text_1">
      <!-- −800 -->
      <defs>
       <path d="M 10.59375 35.5 
L 73.1875 35.5 
L 73.1875 27.203125 
L 10.59375 27.203125 
z
" id="DejaVuSans-8722"/>
       <path d="M 31.78125 34.625 
Q 24.75 34.625 20.71875 30.859375 
Q 16.703125 27.09375 16.703125 20.515625 
Q 16.703125 13.921875 20.71875 10.15625 
Q 24.75 6.390625 31.78125 6.390625 
Q 38.8125 6.390625 42.859375 10.171875 
Q 46.921875 13.96875 46.921875 20.515625 
Q 46.921875 27.09375 42.890625 30.859375 
Q 38.875 34.625 31.78125 34.625 
z
M 21.921875 38.8125 
Q 15.578125 40.375 12.03125 44.71875 
Q 8.5 49.078125 8.5 55.328125 
Q 8.5 64.0625 14.71875 69.140625 
Q 20.953125 74.21875 31.78125 74.21875 
Q 42.671875 74.21875 48.875 69.140625 
Q 55.078125 64.0625 55.078125 55.328125 
Q 55.078125 49.078125 51.53125 44.71875 
Q 48 40.375 41.703125 38.8125 
Q 48.828125 37.15625 52.796875 32.3125 
Q 56.78125 27.484375 56.78125 20.515625 
Q 56.78125 9.90625 50.3125 4.234375 
Q 43.84375 -1.421875 31.78125 -1.421875 
Q 19.734375 -1.421875 13.25 4.234375 
Q 6.78125 9.90625 6.78125 20.515625 
Q 6.78125 27.484375 10.78125 32.3125 
Q 14.796875 37.15625 21.921875 38.8125 
z
M 18.3125 54.390625 
Q 18.3125 48.734375 21.84375 45.5625 
Q 25.390625 42.390625 31.78125 42.390625 
Q 38.140625 42.390625 41.71875 45.5625 
Q 45.3125 48.734375 45.3125 54.390625 
Q 45.3125 60.0625 41.71875 63.234375 
Q 38.140625 66.40625 31.78125 66.40625 
Q 25.390625 66.40625 21.84375 63.234375 
Q 18.3125 60.0625 18.3125 54.390625 
z
" id="DejaVuSans-56"/>
       <path d="M 31.78125 66.40625 
Q 24.171875 66.40625 20.328125 58.90625 
Q 16.5 51.421875 16.5 36.375 
Q 16.5 21.390625 20.328125 13.890625 
Q 24.171875 6.390625 31.78125 6.390625 
Q 39.453125 6.390625 43.28125 13.890625 
Q 47.125 21.390625 47.125 36.375 
Q 47.125 51.421875 43.28125 58.90625 
Q 39.453125 66.40625 31.78125 66.40625 
z
M 31.78125 74.21875 
Q 44.046875 74.21875 50.515625 64.515625 
Q 56.984375 54.828125 56.984375 36.375 
Q 56.984375 17.96875 50.515625 8.265625 
Q 44.046875 -1.421875 31.78125 -1.421875 
Q 19.53125 -1.421875 13.0625 8.265625 
Q 6.59375 17.96875 6.59375 36.375 
Q 6.59375 54.828125 13.0625 64.515625 
Q 19.53125 74.21875 31.78125 74.21875 
z
" id="DejaVuSans-48"/>
      </defs>
      <g transform="translate(71.407808 322.182437)scale(0.1 -0.1)">
       <use xlink:href="#DejaVuSans-8722"/>
       <use x="83.789062" xlink:href="#DejaVuSans-56"/>
       <use x="147.412109" xlink:href="#DejaVuSans-48"/>
       <use x="211.035156" xlink:href="#DejaVuSans-48"/>
      </g>
     </g>
    </g>
    <g id="xtick_2">
     <g id="line2d_3">
      <g>
       <use style="stroke:#000000;stroke-width:0.8;" x="131.318105" xlink:href="#m419985438e" y="307.584"/>
      </g>
     </g>
     <g id="text_2">
      <!-- −700 -->
      <defs>
       <path d="M 8.203125 72.90625 
L 55.078125 72.90625 
L 55.078125 68.703125 
L 28.609375 0 
L 18.3125 0 
L 43.21875 64.59375 
L 8.203125 64.59375 
z
" id="DejaVuSans-55"/>
      </defs>
      <g transform="translate(117.584511 322.182437)scale(0.1 -0.1)">
       <use xlink:href="#DejaVuSans-8722"/>
       <use x="83.789062" xlink:href="#DejaVuSans-55"/>
       <use x="147.412109" xlink:href="#DejaVuSans-48"/>
       <use x="211.035156" xlink:href="#DejaVuSans-48"/>
      </g>
     </g>
    </g>
    <g id="xtick_3">
     <g id="line2d_4">
      <g>
       <use style="stroke:#000000;stroke-width:0.8;" x="177.494808" xlink:href="#m419985438e" y="307.584"/>
      </g>
     </g>
     <g id="text_3">
      <!-- −600 -->
      <defs>
       <path d="M 33.015625 40.375 
Q 26.375 40.375 22.484375 35.828125 
Q 18.609375 31.296875 18.609375 23.390625 
Q 18.609375 15.53125 22.484375 10.953125 
Q 26.375 6.390625 33.015625 6.390625 
Q 39.65625 6.390625 43.53125 10.953125 
Q 47.40625 15.53125 47.40625 23.390625 
Q 47.40625 31.296875 43.53125 35.828125 
Q 39.65625 40.375 33.015625 40.375 
z
M 52.59375 71.296875 
L 52.59375 62.3125 
Q 48.875 64.0625 45.09375 64.984375 
Q 41.3125 65.921875 37.59375 65.921875 
Q 27.828125 65.921875 22.671875 59.328125 
Q 17.53125 52.734375 16.796875 39.40625 
Q 19.671875 43.65625 24.015625 45.921875 
Q 28.375 48.1875 33.59375 48.1875 
Q 44.578125 48.1875 50.953125 41.515625 
Q 57.328125 34.859375 57.328125 23.390625 
Q 57.328125 12.15625 50.6875 5.359375 
Q 44.046875 -1.421875 33.015625 -1.421875 
Q 20.359375 -1.421875 13.671875 8.265625 
Q 6.984375 17.96875 6.984375 36.375 
Q 6.984375 53.65625 15.1875 63.9375 
Q 23.390625 74.21875 37.203125 74.21875 
Q 40.921875 74.21875 44.703125 73.484375 
Q 48.484375 72.75 52.59375 71.296875 
z
" id="DejaVuSans-54"/>
      </defs>
      <g transform="translate(163.761214 322.182437)scale(0.1 -0.1)">
       <use xlink:href="#DejaVuSans-8722"/>
       <use x="83.789062" xlink:href="#DejaVuSans-54"/>
       <use x="147.412109" xlink:href="#DejaVuSans-48"/>
       <use x="211.035156" xlink:href="#DejaVuSans-48"/>
      </g>
     </g>
    </g>
    <g id="xtick_4">
     <g id="line2d_5">
      <g>
       <use style="stroke:#000000;stroke-width:0.8;" x="223.671511" xlink:href="#m419985438e" y="307.584"/>
      </g>
     </g>
     <g id="text_4">
      <!-- −500 -->
      <defs>
       <path d="M 10.796875 72.90625 
L 49.515625 72.90625 
L 49.515625 64.59375 
L 19.828125 64.59375 
L 19.828125 46.734375 
Q 21.96875 47.46875 24.109375 47.828125 
Q 26.265625 48.1875 28.421875 48.1875 
Q 40.625 48.1875 47.75 41.5 
Q 54.890625 34.8125 54.890625 23.390625 
Q 54.890625 11.625 47.5625 5.09375 
Q 40.234375 -1.421875 26.90625 -1.421875 
Q 22.3125 -1.421875 17.546875 -0.640625 
Q 12.796875 0.140625 7.71875 1.703125 
L 7.71875 11.625 
Q 12.109375 9.234375 16.796875 8.0625 
Q 21.484375 6.890625 26.703125 6.890625 
Q 35.15625 6.890625 40.078125 11.328125 
Q 45.015625 15.765625 45.015625 23.390625 
Q 45.015625 31 40.078125 35.4375 
Q 35.15625 39.890625 26.703125 39.890625 
Q 22.75 39.890625 18.8125 39.015625 
Q 14.890625 38.140625 10.796875 36.28125 
z
" id="DejaVuSans-53"/>
      </defs>
      <g transform="translate(209.937917 322.182437)scale(0.1 -0.1)">
       <use xlink:href="#DejaVuSans-8722"/>
       <use x="83.789062" xlink:href="#DejaVuSans-53"/>
       <use x="147.412109" xlink:href="#DejaVuSans-48"/>
       <use x="211.035156" xlink:href="#DejaVuSans-48"/>
      </g>
     </g>
    </g>
    <g id="xtick_5">
     <g id="line2d_6">
      <g>
       <use style="stroke:#000000;stroke-width:0.8;" x="269.848214" xlink:href="#m419985438e" y="307.584"/>
      </g>
     </g>
     <g id="text_5">
      <!-- −400 -->
      <defs>
       <path d="M 37.796875 64.3125 
L 12.890625 25.390625 
L 37.796875 25.390625 
z
M 35.203125 72.90625 
L 47.609375 72.90625 
L 47.609375 25.390625 
L 58.015625 25.390625 
L 58.015625 17.1875 
L 47.609375 17.1875 
L 47.609375 0 
L 37.796875 0 
L 37.796875 17.1875 
L 4.890625 17.1875 
L 4.890625 26.703125 
z
" id="DejaVuSans-52"/>
      </defs>
      <g transform="translate(256.11462 322.182437)scale(0.1 -0.1)">
       <use xlink:href="#DejaVuSans-8722"/>
       <use x="83.789062" xlink:href="#DejaVuSans-52"/>
       <use x="147.412109" xlink:href="#DejaVuSans-48"/>
       <use x="211.035156" xlink:href="#DejaVuSans-48"/>
      </g>
     </g>
    </g>
    <g id="xtick_6">
     <g id="line2d_7">
      <g>
       <use style="stroke:#000000;stroke-width:0.8;" x="316.024917" xlink:href="#m419985438e" y="307.584"/>
      </g>
     </g>
     <g id="text_6">
      <!-- −300 -->
      <defs>
       <path d="M 40.578125 39.3125 
Q 47.65625 37.796875 51.625 33 
Q 55.609375 28.21875 55.609375 21.1875 
Q 55.609375 10.40625 48.1875 4.484375 
Q 40.765625 -1.421875 27.09375 -1.421875 
Q 22.515625 -1.421875 17.65625 -0.515625 
Q 12.796875 0.390625 7.625 2.203125 
L 7.625 11.71875 
Q 11.71875 9.328125 16.59375 8.109375 
Q 21.484375 6.890625 26.8125 6.890625 
Q 36.078125 6.890625 40.9375 10.546875 
Q 45.796875 14.203125 45.796875 21.1875 
Q 45.796875 27.640625 41.28125 31.265625 
Q 36.765625 34.90625 28.71875 34.90625 
L 20.21875 34.90625 
L 20.21875 43.015625 
L 29.109375 43.015625 
Q 36.375 43.015625 40.234375 45.921875 
Q 44.09375 48.828125 44.09375 54.296875 
Q 44.09375 59.90625 40.109375 62.90625 
Q 36.140625 65.921875 28.71875 65.921875 
Q 24.65625 65.921875 20.015625 65.03125 
Q 15.375 64.15625 9.8125 62.3125 
L 9.8125 71.09375 
Q 15.4375 72.65625 20.34375 73.4375 
Q 25.25 74.21875 29.59375 74.21875 
Q 40.828125 74.21875 47.359375 69.109375 
Q 53.90625 64.015625 53.90625 55.328125 
Q 53.90625 49.265625 50.4375 45.09375 
Q 46.96875 40.921875 40.578125 39.3125 
z
" id="DejaVuSans-51"/>
      </defs>
      <g transform="translate(302.291323 322.182437)scale(0.1 -0.1)">
       <use xlink:href="#DejaVuSans-8722"/>
       <use x="83.789062" xlink:href="#DejaVuSans-51"/>
       <use x="147.412109" xlink:href="#DejaVuSans-48"/>
       <use x="211.035156" xlink:href="#DejaVuSans-48"/>
      </g>
     </g>
    </g>
    <g id="xtick_7">
     <g id="line2d_8">
      <g>
       <use style="stroke:#000000;stroke-width:0.8;" x="362.20162" xlink:href="#m419985438e" y="307.584"/>
      </g>
     </g>
     <g id="text_7">
      <!-- −200 -->
      <defs>
       <path d="M 19.1875 8.296875 
L 53.609375 8.296875 
L 53.609375 0 
L 7.328125 0 
L 7.328125 8.296875 
Q 12.9375 14.109375 22.625 23.890625 
Q 32.328125 33.6875 34.8125 36.53125 
Q 39.546875 41.84375 41.421875 45.53125 
Q 43.3125 49.21875 43.3125 52.78125 
Q 43.3125 58.59375 39.234375 62.25 
Q 35.15625 65.921875 28.609375 65.921875 
Q 23.96875 65.921875 18.8125 64.3125 
Q 13.671875 62.703125 7.8125 59.421875 
L 7.8125 69.390625 
Q 13.765625 71.78125 18.9375 73 
Q 24.125 74.21875 28.421875 74.21875 
Q 39.75 74.21875 46.484375 68.546875 
Q 53.21875 62.890625 53.21875 53.421875 
Q 53.21875 48.921875 51.53125 44.890625 
Q 49.859375 40.875 45.40625 35.40625 
Q 44.1875 33.984375 37.640625 27.21875 
Q 31.109375 20.453125 19.1875 8.296875 
z
" id="DejaVuSans-50"/>
      </defs>
      <g transform="translate(348.468026 322.182437)scale(0.1 -0.1)">
       <use xlink:href="#DejaVuSans-8722"/>
       <use x="83.789062" xlink:href="#DejaVuSans-50"/>
       <use x="147.412109" xlink:href="#DejaVuSans-48"/>
       <use x="211.035156" xlink:href="#DejaVuSans-48"/>
      </g>
     </g>
    </g>
    <g id="xtick_8">
     <g id="line2d_9">
      <g>
       <use style="stroke:#000000;stroke-width:0.8;" x="408.378322" xlink:href="#m419985438e" y="307.584"/>
      </g>
     </g>
     <g id="text_8">
      <!-- −100 -->
      <defs>
       <path d="M 12.40625 8.296875 
L 28.515625 8.296875 
L 28.515625 63.921875 
L 10.984375 60.40625 
L 10.984375 69.390625 
L 28.421875 72.90625 
L 38.28125 72.90625 
L 38.28125 8.296875 
L 54.390625 8.296875 
L 54.390625 0 
L 12.40625 0 
z
" id="DejaVuSans-49"/>
      </defs>
      <g transform="translate(394.644729 322.182437)scale(0.1 -0.1)">
       <use xlink:href="#DejaVuSans-8722"/>
       <use x="83.789062" xlink:href="#DejaVuSans-49"/>
       <use x="147.412109" xlink:href="#DejaVuSans-48"/>
       <use x="211.035156" xlink:href="#DejaVuSans-48"/>
      </g>
     </g>
    </g>
   </g>
   <g id="matplotlib.axis_2">
    <g id="ytick_1">
     <g id="line2d_10">
      <defs>
       <path d="M 0 0 
L -3.5 0 
" id="me4dce193ab" style="stroke:#000000;stroke-width:0.8;"/>
      </defs>
      <g>
       <use style="stroke:#000000;stroke-width:0.8;" x="57.6" xlink:href="#me4dce193ab" y="283.79862"/>
      </g>
     </g>
     <g id="text_9">
      <!-- 200 -->
      <g transform="translate(31.5125 287.597839)scale(0.1 -0.1)">
       <use xlink:href="#DejaVuSans-50"/>
       <use x="63.623047" xlink:href="#DejaVuSans-48"/>
       <use x="127.246094" xlink:href="#DejaVuSans-48"/>
      </g>
     </g>
    </g>
    <g id="ytick_2">
     <g id="line2d_11">
      <g>
       <use style="stroke:#000000;stroke-width:0.8;" x="57.6" xlink:href="#me4dce193ab" y="253.756522"/>
      </g>
     </g>
     <g id="text_10">
      <!-- 300 -->
      <g transform="translate(31.5125 257.555741)scale(0.1 -0.1)">
       <use xlink:href="#DejaVuSans-51"/>
       <use x="63.623047" xlink:href="#DejaVuSans-48"/>
       <use x="127.246094" xlink:href="#DejaVuSans-48"/>
      </g>
     </g>
    </g>
    <g id="ytick_3">
     <g id="line2d_12">
      <g>
       <use style="stroke:#000000;stroke-width:0.8;" x="57.6" xlink:href="#me4dce193ab" y="223.714424"/>
      </g>
     </g>
     <g id="text_11">
      <!-- 400 -->
      <g transform="translate(31.5125 227.513643)scale(0.1 -0.1)">
       <use xlink:href="#DejaVuSans-52"/>
       <use x="63.623047" xlink:href="#DejaVuSans-48"/>
       <use x="127.246094" xlink:href="#DejaVuSans-48"/>
      </g>
     </g>
    </g>
    <g id="ytick_4">
     <g id="line2d_13">
      <g>
       <use style="stroke:#000000;stroke-width:0.8;" x="57.6" xlink:href="#me4dce193ab" y="193.672327"/>
      </g>
     </g>
     <g id="text_12">
      <!-- 500 -->
      <g transform="translate(31.5125 197.471545)scale(0.1 -0.1)">
       <use xlink:href="#DejaVuSans-53"/>
       <use x="63.623047" xlink:href="#DejaVuSans-48"/>
       <use x="127.246094" xlink:href="#DejaVuSans-48"/>
      </g>
     </g>
    </g>
    <g id="ytick_5">
     <g id="line2d_14">
      <g>
       <use style="stroke:#000000;stroke-width:0.8;" x="57.6" xlink:href="#me4dce193ab" y="163.630229"/>
      </g>
     </g>
     <g id="text_13">
      <!-- 600 -->
      <g transform="translate(31.5125 167.429448)scale(0.1 -0.1)">
       <use xlink:href="#DejaVuSans-54"/>
       <use x="63.623047" xlink:href="#DejaVuSans-48"/>
       <use x="127.246094" xlink:href="#DejaVuSans-48"/>
      </g>
     </g>
    </g>
    <g id="ytick_6">
     <g id="line2d_15">
      <g>
       <use style="stroke:#000000;stroke-width:0.8;" x="57.6" xlink:href="#me4dce193ab" y="133.588131"/>
      </g>
     </g>
     <g id="text_14">
      <!-- 700 -->
      <g transform="translate(31.5125 137.38735)scale(0.1 -0.1)">
       <use xlink:href="#DejaVuSans-55"/>
       <use x="63.623047" xlink:href="#DejaVuSans-48"/>
       <use x="127.246094" xlink:href="#DejaVuSans-48"/>
      </g>
     </g>
    </g>
    <g id="ytick_7">
     <g id="line2d_16">
      <g>
       <use style="stroke:#000000;stroke-width:0.8;" x="57.6" xlink:href="#me4dce193ab" y="103.546034"/>
      </g>
     </g>
     <g id="text_15">
      <!-- 800 -->
      <g transform="translate(31.5125 107.345252)scale(0.1 -0.1)">
       <use xlink:href="#DejaVuSans-56"/>
       <use x="63.623047" xlink:href="#DejaVuSans-48"/>
       <use x="127.246094" xlink:href="#DejaVuSans-48"/>
      </g>
     </g>
    </g>
    <g id="ytick_8">
     <g id="line2d_17">
      <g>
       <use style="stroke:#000000;stroke-width:0.8;" x="57.6" xlink:href="#me4dce193ab" y="73.503936"/>
      </g>
     </g>
     <g id="text_16">
      <!-- 900 -->
      <defs>
       <path d="M 10.984375 1.515625 
L 10.984375 10.5 
Q 14.703125 8.734375 18.5 7.8125 
Q 22.3125 6.890625 25.984375 6.890625 
Q 35.75 6.890625 40.890625 13.453125 
Q 46.046875 20.015625 46.78125 33.40625 
Q 43.953125 29.203125 39.59375 26.953125 
Q 35.25 24.703125 29.984375 24.703125 
Q 19.046875 24.703125 12.671875 31.3125 
Q 6.296875 37.9375 6.296875 49.421875 
Q 6.296875 60.640625 12.9375 67.421875 
Q 19.578125 74.21875 30.609375 74.21875 
Q 43.265625 74.21875 49.921875 64.515625 
Q 56.59375 54.828125 56.59375 36.375 
Q 56.59375 19.140625 48.40625 8.859375 
Q 40.234375 -1.421875 26.421875 -1.421875 
Q 22.703125 -1.421875 18.890625 -0.6875 
Q 15.09375 0.046875 10.984375 1.515625 
z
M 30.609375 32.421875 
Q 37.25 32.421875 41.125 36.953125 
Q 45.015625 41.5 45.015625 49.421875 
Q 45.015625 57.28125 41.125 61.84375 
Q 37.25 66.40625 30.609375 66.40625 
Q 23.96875 66.40625 20.09375 61.84375 
Q 16.21875 57.28125 16.21875 49.421875 
Q 16.21875 41.5 20.09375 36.953125 
Q 23.96875 32.421875 30.609375 32.421875 
z
" id="DejaVuSans-57"/>
      </defs>
      <g transform="translate(31.5125 77.303155)scale(0.1 -0.1)">
       <use xlink:href="#DejaVuSans-57"/>
       <use x="63.623047" xlink:href="#DejaVuSans-48"/>
       <use x="127.246094" xlink:href="#DejaVuSans-48"/>
      </g>
     </g>
    </g>
    <g id="ytick_9">
     <g id="line2d_18">
      <g>
       <use style="stroke:#000000;stroke-width:0.8;" x="57.6" xlink:href="#me4dce193ab" y="43.461838"/>
      </g>
     </g>
     <g id="text_17">
      <!-- 1000 -->
      <g transform="translate(25.15 47.261057)scale(0.1 -0.1)">
       <use xlink:href="#DejaVuSans-49"/>
       <use x="63.623047" xlink:href="#DejaVuSans-48"/>
       <use x="127.246094" xlink:href="#DejaVuSans-48"/>
       <use x="190.869141" xlink:href="#DejaVuSans-48"/>
      </g>
     </g>
    </g>
   </g>
   <g id="line2d_19">
    <path clip-path="url(#pe3121e6fbd)" d="M 79.231367 56.953892 
L 355.021964 173.276212 
L 390.158076 287.47815 
L 359.064947 249.054818 
" style="fill:none;stroke:#ff0000;stroke-linecap:square;stroke-width:0.5;"/>
   </g>
   <g id="patch_3">
    <path d="M 57.6 307.584 
L 57.6 41.472 
" style="fill:none;stroke:#000000;stroke-linecap:square;stroke-linejoin:miter;stroke-width:0.8;"/>
   </g>
   <g id="patch_4">
    <path d="M 414.72 307.584 
L 414.72 41.472 
" style="fill:none;stroke:#000000;stroke-linecap:square;stroke-linejoin:miter;stroke-width:0.8;"/>
   </g>
   <g id="patch_5">
    <path d="M 57.6 307.584 
L 414.72 307.584 
" style="fill:none;stroke:#000000;stroke-linecap:square;stroke-linejoin:miter;stroke-width:0.8;"/>
   </g>
   <g id="patch_6">
    <path d="M 57.6 41.472 
L 414.72 41.472 
" style="fill:none;stroke:#000000;stroke-linecap:square;stroke-linejoin:miter;stroke-width:0.8;"/>
   </g>
   <g id="PathCollection_1">
    <defs>
     <path d="M 0 2.738613 
C 0.726289 2.738613 1.422928 2.450055 1.936492 1.936492 
C 2.450055 1.422928 2.738613 0.726289 2.738613 0 
C 2.738613 -0.726289 2.450055 -1.422928 1.936492 -1.936492 
C 1.422928 -2.450055 0.726289 -2.738613 0 -2.738613 
C -0.726289 -2.738613 -1.422928 -2.450055 -1.936492 -1.936492 
C -2.450055 -1.422928 -2.738613 -0.726289 -2.738613 0 
C -2.738613 0.726289 -2.450055 1.422928 -1.936492 1.936492 
C -1.422928 2.450055 -0.726289 2.738613 0 2.738613 
z
" id="mf31f765650" style="stroke:#ff0000;"/>
    </defs>
    <g clip-path="url(#pe3121e6fbd)">
     <use style="fill:#ff0000;stroke:#ff0000;" x="79.231367" xlink:href="#mf31f765650" y="56.953892"/>
     <use style="fill:#ff0000;stroke:#ff0000;" x="355.021964" xlink:href="#mf31f765650" y="173.276212"/>
     <use style="fill:#ff0000;stroke:#ff0000;" x="390.158076" xlink:href="#mf31f765650" y="287.47815"/>
     <use style="fill:#ff0000;stroke:#ff0000;" x="359.064947" xlink:href="#mf31f765650" y="249.054818"/>
    </g>
   </g>
   <g id="text_18">
    <!-- (118) Subject: s23, Known = False, Degree = 2, Duration = 0.1 -->
    <defs>
     <path d="M 31 75.875 
Q 24.46875 64.65625 21.28125 53.65625 
Q 18.109375 42.671875 18.109375 31.390625 
Q 18.109375 20.125 21.3125 9.0625 
Q 24.515625 -2 31 -13.1875 
L 23.1875 -13.1875 
Q 15.875 -1.703125 12.234375 9.375 
Q 8.59375 20.453125 8.59375 31.390625 
Q 8.59375 42.28125 12.203125 53.3125 
Q 15.828125 64.359375 23.1875 75.875 
z
" id="DejaVuSans-40"/>
     <path d="M 8.015625 75.875 
L 15.828125 75.875 
Q 23.140625 64.359375 26.78125 53.3125 
Q 30.421875 42.28125 30.421875 31.390625 
Q 30.421875 20.453125 26.78125 9.375 
Q 23.140625 -1.703125 15.828125 -13.1875 
L 8.015625 -13.1875 
Q 14.5 -2 17.703125 9.0625 
Q 20.90625 20.125 20.90625 31.390625 
Q 20.90625 42.671875 17.703125 53.65625 
Q 14.5 64.65625 8.015625 75.875 
z
" id="DejaVuSans-41"/>
     <path id="DejaVuSans-32"/>
     <path d="M 53.515625 70.515625 
L 53.515625 60.890625 
Q 47.90625 63.578125 42.921875 64.890625 
Q 37.9375 66.21875 33.296875 66.21875 
Q 25.25 66.21875 20.875 63.09375 
Q 16.5 59.96875 16.5 54.203125 
Q 16.5 49.359375 19.40625 46.890625 
Q 22.3125 44.4375 30.421875 42.921875 
L 36.375 41.703125 
Q 47.40625 39.59375 52.65625 34.296875 
Q 57.90625 29 57.90625 20.125 
Q 57.90625 9.515625 50.796875 4.046875 
Q 43.703125 -1.421875 29.984375 -1.421875 
Q 24.8125 -1.421875 18.96875 -0.25 
Q 13.140625 0.921875 6.890625 3.21875 
L 6.890625 13.375 
Q 12.890625 10.015625 18.65625 8.296875 
Q 24.421875 6.59375 29.984375 6.59375 
Q 38.421875 6.59375 43.015625 9.90625 
Q 47.609375 13.234375 47.609375 19.390625 
Q 47.609375 24.75 44.3125 27.78125 
Q 41.015625 30.8125 33.5 32.328125 
L 27.484375 33.5 
Q 16.453125 35.6875 11.515625 40.375 
Q 6.59375 45.0625 6.59375 53.421875 
Q 6.59375 63.09375 13.40625 68.65625 
Q 20.21875 74.21875 32.171875 74.21875 
Q 37.3125 74.21875 42.625 73.28125 
Q 47.953125 72.359375 53.515625 70.515625 
z
" id="DejaVuSans-83"/>
     <path d="M 8.5 21.578125 
L 8.5 54.6875 
L 17.484375 54.6875 
L 17.484375 21.921875 
Q 17.484375 14.15625 20.5 10.265625 
Q 23.53125 6.390625 29.59375 6.390625 
Q 36.859375 6.390625 41.078125 11.03125 
Q 45.3125 15.671875 45.3125 23.6875 
L 45.3125 54.6875 
L 54.296875 54.6875 
L 54.296875 0 
L 45.3125 0 
L 45.3125 8.40625 
Q 42.046875 3.421875 37.71875 1 
Q 33.40625 -1.421875 27.6875 -1.421875 
Q 18.265625 -1.421875 13.375 4.4375 
Q 8.5 10.296875 8.5 21.578125 
z
M 31.109375 56 
z
" id="DejaVuSans-117"/>
     <path d="M 48.6875 27.296875 
Q 48.6875 37.203125 44.609375 42.84375 
Q 40.53125 48.484375 33.40625 48.484375 
Q 26.265625 48.484375 22.1875 42.84375 
Q 18.109375 37.203125 18.109375 27.296875 
Q 18.109375 17.390625 22.1875 11.75 
Q 26.265625 6.109375 33.40625 6.109375 
Q 40.53125 6.109375 44.609375 11.75 
Q 48.6875 17.390625 48.6875 27.296875 
z
M 18.109375 46.390625 
Q 20.953125 51.265625 25.265625 53.625 
Q 29.59375 56 35.59375 56 
Q 45.5625 56 51.78125 48.09375 
Q 58.015625 40.1875 58.015625 27.296875 
Q 58.015625 14.40625 51.78125 6.484375 
Q 45.5625 -1.421875 35.59375 -1.421875 
Q 29.59375 -1.421875 25.265625 0.953125 
Q 20.953125 3.328125 18.109375 8.203125 
L 18.109375 0 
L 9.078125 0 
L 9.078125 75.984375 
L 18.109375 75.984375 
z
" id="DejaVuSans-98"/>
     <path d="M 9.421875 54.6875 
L 18.40625 54.6875 
L 18.40625 -0.984375 
Q 18.40625 -11.421875 14.421875 -16.109375 
Q 10.453125 -20.796875 1.609375 -20.796875 
L -1.8125 -20.796875 
L -1.8125 -13.1875 
L 0.59375 -13.1875 
Q 5.71875 -13.1875 7.5625 -10.8125 
Q 9.421875 -8.453125 9.421875 -0.984375 
z
M 9.421875 75.984375 
L 18.40625 75.984375 
L 18.40625 64.59375 
L 9.421875 64.59375 
z
" id="DejaVuSans-106"/>
     <path d="M 56.203125 29.59375 
L 56.203125 25.203125 
L 14.890625 25.203125 
Q 15.484375 15.921875 20.484375 11.0625 
Q 25.484375 6.203125 34.421875 6.203125 
Q 39.59375 6.203125 44.453125 7.46875 
Q 49.3125 8.734375 54.109375 11.28125 
L 54.109375 2.78125 
Q 49.265625 0.734375 44.1875 -0.34375 
Q 39.109375 -1.421875 33.890625 -1.421875 
Q 20.796875 -1.421875 13.15625 6.1875 
Q 5.515625 13.8125 5.515625 26.8125 
Q 5.515625 40.234375 12.765625 48.109375 
Q 20.015625 56 32.328125 56 
Q 43.359375 56 49.78125 48.890625 
Q 56.203125 41.796875 56.203125 29.59375 
z
M 47.21875 32.234375 
Q 47.125 39.59375 43.09375 43.984375 
Q 39.0625 48.390625 32.421875 48.390625 
Q 24.90625 48.390625 20.390625 44.140625 
Q 15.875 39.890625 15.1875 32.171875 
z
" id="DejaVuSans-101"/>
     <path d="M 48.78125 52.59375 
L 48.78125 44.1875 
Q 44.96875 46.296875 41.140625 47.34375 
Q 37.3125 48.390625 33.40625 48.390625 
Q 24.65625 48.390625 19.8125 42.84375 
Q 14.984375 37.3125 14.984375 27.296875 
Q 14.984375 17.28125 19.8125 11.734375 
Q 24.65625 6.203125 33.40625 6.203125 
Q 37.3125 6.203125 41.140625 7.25 
Q 44.96875 8.296875 48.78125 10.40625 
L 48.78125 2.09375 
Q 45.015625 0.34375 40.984375 -0.53125 
Q 36.96875 -1.421875 32.421875 -1.421875 
Q 20.0625 -1.421875 12.78125 6.34375 
Q 5.515625 14.109375 5.515625 27.296875 
Q 5.515625 40.671875 12.859375 48.328125 
Q 20.21875 56 33.015625 56 
Q 37.15625 56 41.109375 55.140625 
Q 45.0625 54.296875 48.78125 52.59375 
z
" id="DejaVuSans-99"/>
     <path d="M 18.3125 70.21875 
L 18.3125 54.6875 
L 36.8125 54.6875 
L 36.8125 47.703125 
L 18.3125 47.703125 
L 18.3125 18.015625 
Q 18.3125 11.328125 20.140625 9.421875 
Q 21.96875 7.515625 27.59375 7.515625 
L 36.8125 7.515625 
L 36.8125 0 
L 27.59375 0 
Q 17.1875 0 13.234375 3.875 
Q 9.28125 7.765625 9.28125 18.015625 
L 9.28125 47.703125 
L 2.6875 47.703125 
L 2.6875 54.6875 
L 9.28125 54.6875 
L 9.28125 70.21875 
z
" id="DejaVuSans-116"/>
     <path d="M 11.71875 12.40625 
L 22.015625 12.40625 
L 22.015625 0 
L 11.71875 0 
z
M 11.71875 51.703125 
L 22.015625 51.703125 
L 22.015625 39.3125 
L 11.71875 39.3125 
z
" id="DejaVuSans-58"/>
     <path d="M 44.28125 53.078125 
L 44.28125 44.578125 
Q 40.484375 46.53125 36.375 47.5 
Q 32.28125 48.484375 27.875 48.484375 
Q 21.1875 48.484375 17.84375 46.4375 
Q 14.5 44.390625 14.5 40.28125 
Q 14.5 37.15625 16.890625 35.375 
Q 19.28125 33.59375 26.515625 31.984375 
L 29.59375 31.296875 
Q 39.15625 29.25 43.1875 25.515625 
Q 47.21875 21.78125 47.21875 15.09375 
Q 47.21875 7.46875 41.1875 3.015625 
Q 35.15625 -1.421875 24.609375 -1.421875 
Q 20.21875 -1.421875 15.453125 -0.5625 
Q 10.6875 0.296875 5.421875 2 
L 5.421875 11.28125 
Q 10.40625 8.6875 15.234375 7.390625 
Q 20.0625 6.109375 24.8125 6.109375 
Q 31.15625 6.109375 34.5625 8.28125 
Q 37.984375 10.453125 37.984375 14.40625 
Q 37.984375 18.0625 35.515625 20.015625 
Q 33.0625 21.96875 24.703125 23.78125 
L 21.578125 24.515625 
Q 13.234375 26.265625 9.515625 29.90625 
Q 5.8125 33.546875 5.8125 39.890625 
Q 5.8125 47.609375 11.28125 51.796875 
Q 16.75 56 26.8125 56 
Q 31.78125 56 36.171875 55.265625 
Q 40.578125 54.546875 44.28125 53.078125 
z
" id="DejaVuSans-115"/>
     <path d="M 11.71875 12.40625 
L 22.015625 12.40625 
L 22.015625 4 
L 14.015625 -11.625 
L 7.71875 -11.625 
L 11.71875 4 
z
" id="DejaVuSans-44"/>
     <path d="M 9.8125 72.90625 
L 19.671875 72.90625 
L 19.671875 42.09375 
L 52.390625 72.90625 
L 65.09375 72.90625 
L 28.90625 38.921875 
L 67.671875 0 
L 54.6875 0 
L 19.671875 35.109375 
L 19.671875 0 
L 9.8125 0 
z
" id="DejaVuSans-75"/>
     <path d="M 54.890625 33.015625 
L 54.890625 0 
L 45.90625 0 
L 45.90625 32.71875 
Q 45.90625 40.484375 42.875 44.328125 
Q 39.84375 48.1875 33.796875 48.1875 
Q 26.515625 48.1875 22.3125 43.546875 
Q 18.109375 38.921875 18.109375 30.90625 
L 18.109375 0 
L 9.078125 0 
L 9.078125 54.6875 
L 18.109375 54.6875 
L 18.109375 46.1875 
Q 21.34375 51.125 25.703125 53.5625 
Q 30.078125 56 35.796875 56 
Q 45.21875 56 50.046875 50.171875 
Q 54.890625 44.34375 54.890625 33.015625 
z
" id="DejaVuSans-110"/>
     <path d="M 30.609375 48.390625 
Q 23.390625 48.390625 19.1875 42.75 
Q 14.984375 37.109375 14.984375 27.296875 
Q 14.984375 17.484375 19.15625 11.84375 
Q 23.34375 6.203125 30.609375 6.203125 
Q 37.796875 6.203125 41.984375 11.859375 
Q 46.1875 17.53125 46.1875 27.296875 
Q 46.1875 37.015625 41.984375 42.703125 
Q 37.796875 48.390625 30.609375 48.390625 
z
M 30.609375 56 
Q 42.328125 56 49.015625 48.375 
Q 55.71875 40.765625 55.71875 27.296875 
Q 55.71875 13.875 49.015625 6.21875 
Q 42.328125 -1.421875 30.609375 -1.421875 
Q 18.84375 -1.421875 12.171875 6.21875 
Q 5.515625 13.875 5.515625 27.296875 
Q 5.515625 40.765625 12.171875 48.375 
Q 18.84375 56 30.609375 56 
z
" id="DejaVuSans-111"/>
     <path d="M 4.203125 54.6875 
L 13.1875 54.6875 
L 24.421875 12.015625 
L 35.59375 54.6875 
L 46.1875 54.6875 
L 57.421875 12.015625 
L 68.609375 54.6875 
L 77.59375 54.6875 
L 63.28125 0 
L 52.6875 0 
L 40.921875 44.828125 
L 29.109375 0 
L 18.5 0 
z
" id="DejaVuSans-119"/>
     <path d="M 10.59375 45.40625 
L 73.1875 45.40625 
L 73.1875 37.203125 
L 10.59375 37.203125 
z
M 10.59375 25.484375 
L 73.1875 25.484375 
L 73.1875 17.1875 
L 10.59375 17.1875 
z
" id="DejaVuSans-61"/>
     <path d="M 9.8125 72.90625 
L 51.703125 72.90625 
L 51.703125 64.59375 
L 19.671875 64.59375 
L 19.671875 43.109375 
L 48.578125 43.109375 
L 48.578125 34.8125 
L 19.671875 34.8125 
L 19.671875 0 
L 9.8125 0 
z
" id="DejaVuSans-70"/>
     <path d="M 34.28125 27.484375 
Q 23.390625 27.484375 19.1875 25 
Q 14.984375 22.515625 14.984375 16.5 
Q 14.984375 11.71875 18.140625 8.90625 
Q 21.296875 6.109375 26.703125 6.109375 
Q 34.1875 6.109375 38.703125 11.40625 
Q 43.21875 16.703125 43.21875 25.484375 
L 43.21875 27.484375 
z
M 52.203125 31.203125 
L 52.203125 0 
L 43.21875 0 
L 43.21875 8.296875 
Q 40.140625 3.328125 35.546875 0.953125 
Q 30.953125 -1.421875 24.3125 -1.421875 
Q 15.921875 -1.421875 10.953125 3.296875 
Q 6 8.015625 6 15.921875 
Q 6 25.140625 12.171875 29.828125 
Q 18.359375 34.515625 30.609375 34.515625 
L 43.21875 34.515625 
L 43.21875 35.40625 
Q 43.21875 41.609375 39.140625 45 
Q 35.0625 48.390625 27.6875 48.390625 
Q 23 48.390625 18.546875 47.265625 
Q 14.109375 46.140625 10.015625 43.890625 
L 10.015625 52.203125 
Q 14.9375 54.109375 19.578125 55.046875 
Q 24.21875 56 28.609375 56 
Q 40.484375 56 46.34375 49.84375 
Q 52.203125 43.703125 52.203125 31.203125 
z
" id="DejaVuSans-97"/>
     <path d="M 9.421875 75.984375 
L 18.40625 75.984375 
L 18.40625 0 
L 9.421875 0 
z
" id="DejaVuSans-108"/>
     <path d="M 19.671875 64.796875 
L 19.671875 8.109375 
L 31.59375 8.109375 
Q 46.6875 8.109375 53.6875 14.9375 
Q 60.6875 21.78125 60.6875 36.53125 
Q 60.6875 51.171875 53.6875 57.984375 
Q 46.6875 64.796875 31.59375 64.796875 
z
M 9.8125 72.90625 
L 30.078125 72.90625 
Q 51.265625 72.90625 61.171875 64.09375 
Q 71.09375 55.28125 71.09375 36.53125 
Q 71.09375 17.671875 61.125 8.828125 
Q 51.171875 0 30.078125 0 
L 9.8125 0 
z
" id="DejaVuSans-68"/>
     <path d="M 45.40625 27.984375 
Q 45.40625 37.75 41.375 43.109375 
Q 37.359375 48.484375 30.078125 48.484375 
Q 22.859375 48.484375 18.828125 43.109375 
Q 14.796875 37.75 14.796875 27.984375 
Q 14.796875 18.265625 18.828125 12.890625 
Q 22.859375 7.515625 30.078125 7.515625 
Q 37.359375 7.515625 41.375 12.890625 
Q 45.40625 18.265625 45.40625 27.984375 
z
M 54.390625 6.78125 
Q 54.390625 -7.171875 48.1875 -13.984375 
Q 42 -20.796875 29.203125 -20.796875 
Q 24.46875 -20.796875 20.265625 -20.09375 
Q 16.0625 -19.390625 12.109375 -17.921875 
L 12.109375 -9.1875 
Q 16.0625 -11.328125 19.921875 -12.34375 
Q 23.78125 -13.375 27.78125 -13.375 
Q 36.625 -13.375 41.015625 -8.765625 
Q 45.40625 -4.15625 45.40625 5.171875 
L 45.40625 9.625 
Q 42.625 4.78125 38.28125 2.390625 
Q 33.9375 0 27.875 0 
Q 17.828125 0 11.671875 7.65625 
Q 5.515625 15.328125 5.515625 27.984375 
Q 5.515625 40.671875 11.671875 48.328125 
Q 17.828125 56 27.875 56 
Q 33.9375 56 38.28125 53.609375 
Q 42.625 51.21875 45.40625 46.390625 
L 45.40625 54.6875 
L 54.390625 54.6875 
z
" id="DejaVuSans-103"/>
     <path d="M 41.109375 46.296875 
Q 39.59375 47.171875 37.8125 47.578125 
Q 36.03125 48 33.890625 48 
Q 26.265625 48 22.1875 43.046875 
Q 18.109375 38.09375 18.109375 28.8125 
L 18.109375 0 
L 9.078125 0 
L 9.078125 54.6875 
L 18.109375 54.6875 
L 18.109375 46.1875 
Q 20.953125 51.171875 25.484375 53.578125 
Q 30.03125 56 36.53125 56 
Q 37.453125 56 38.578125 55.875 
Q 39.703125 55.765625 41.0625 55.515625 
z
" id="DejaVuSans-114"/>
     <path d="M 9.421875 54.6875 
L 18.40625 54.6875 
L 18.40625 0 
L 9.421875 0 
z
M 9.421875 75.984375 
L 18.40625 75.984375 
L 18.40625 64.59375 
L 9.421875 64.59375 
z
" id="DejaVuSans-105"/>
     <path d="M 10.6875 12.40625 
L 21 12.40625 
L 21 0 
L 10.6875 0 
z
" id="DejaVuSans-46"/>
    </defs>
    <g transform="translate(45.924375 35.472)scale(0.12 -0.12)">
     <use xlink:href="#DejaVuSans-40"/>
     <use x="39.013672" xlink:href="#DejaVuSans-49"/>
     <use x="102.636719" xlink:href="#DejaVuSans-49"/>
     <use x="166.259766" xlink:href="#DejaVuSans-56"/>
     <use x="229.882812" xlink:href="#DejaVuSans-41"/>
     <use x="268.896484" xlink:href="#DejaVuSans-32"/>
     <use x="300.683594" xlink:href="#DejaVuSans-83"/>
     <use x="364.160156" xlink:href="#DejaVuSans-117"/>
     <use x="427.539062" xlink:href="#DejaVuSans-98"/>
     <use x="491.015625" xlink:href="#DejaVuSans-106"/>
     <use x="518.798828" xlink:href="#DejaVuSans-101"/>
     <use x="580.322266" xlink:href="#DejaVuSans-99"/>
     <use x="635.302734" xlink:href="#DejaVuSans-116"/>
     <use x="674.511719" xlink:href="#DejaVuSans-58"/>
     <use x="708.203125" xlink:href="#DejaVuSans-32"/>
     <use x="739.990234" xlink:href="#DejaVuSans-115"/>
     <use x="792.089844" xlink:href="#DejaVuSans-50"/>
     <use x="855.712891" xlink:href="#DejaVuSans-51"/>
     <use x="919.335938" xlink:href="#DejaVuSans-44"/>
     <use x="951.123047" xlink:href="#DejaVuSans-32"/>
     <use x="982.910156" xlink:href="#DejaVuSans-75"/>
     <use x="1048.486328" xlink:href="#DejaVuSans-110"/>
     <use x="1111.865234" xlink:href="#DejaVuSans-111"/>
     <use x="1173.046875" xlink:href="#DejaVuSans-119"/>
     <use x="1254.833984" xlink:href="#DejaVuSans-110"/>
     <use x="1318.212891" xlink:href="#DejaVuSans-32"/>
     <use x="1350" xlink:href="#DejaVuSans-61"/>
     <use x="1433.789062" xlink:href="#DejaVuSans-32"/>
     <use x="1465.576172" xlink:href="#DejaVuSans-70"/>
     <use x="1522.955078" xlink:href="#DejaVuSans-97"/>
     <use x="1584.234375" xlink:href="#DejaVuSans-108"/>
     <use x="1612.017578" xlink:href="#DejaVuSans-115"/>
     <use x="1664.117188" xlink:href="#DejaVuSans-101"/>
     <use x="1725.640625" xlink:href="#DejaVuSans-44"/>
     <use x="1757.427734" xlink:href="#DejaVuSans-32"/>
     <use x="1789.214844" xlink:href="#DejaVuSans-68"/>
     <use x="1866.216797" xlink:href="#DejaVuSans-101"/>
     <use x="1927.740234" xlink:href="#DejaVuSans-103"/>
     <use x="1991.216797" xlink:href="#DejaVuSans-114"/>
     <use x="2032.298828" xlink:href="#DejaVuSans-101"/>
     <use x="2093.822266" xlink:href="#DejaVuSans-101"/>
     <use x="2155.345703" xlink:href="#DejaVuSans-32"/>
     <use x="2187.132812" xlink:href="#DejaVuSans-61"/>
     <use x="2270.921875" xlink:href="#DejaVuSans-32"/>
     <use x="2302.708984" xlink:href="#DejaVuSans-50"/>
     <use x="2366.332031" xlink:href="#DejaVuSans-44"/>
     <use x="2398.119141" xlink:href="#DejaVuSans-32"/>
     <use x="2429.90625" xlink:href="#DejaVuSans-68"/>
     <use x="2506.908203" xlink:href="#DejaVuSans-117"/>
     <use x="2570.287109" xlink:href="#DejaVuSans-114"/>
     <use x="2611.400391" xlink:href="#DejaVuSans-97"/>
     <use x="2672.679688" xlink:href="#DejaVuSans-116"/>
     <use x="2711.888672" xlink:href="#DejaVuSans-105"/>
     <use x="2739.671875" xlink:href="#DejaVuSans-111"/>
     <use x="2800.853516" xlink:href="#DejaVuSans-110"/>
     <use x="2864.232422" xlink:href="#DejaVuSans-32"/>
     <use x="2896.019531" xlink:href="#DejaVuSans-61"/>
     <use x="2979.808594" xlink:href="#DejaVuSans-32"/>
     <use x="3011.595703" xlink:href="#DejaVuSans-48"/>
     <use x="3075.21875" xlink:href="#DejaVuSans-46"/>
     <use x="3107.005859" xlink:href="#DejaVuSans-49"/>
    </g>
   </g>
  </g>
 </g>
 <defs>
  <clipPath id="pe3121e6fbd">
   <rect height="266.112" width="357.12" x="57.6" y="41.472"/>
  </clipPath>
 </defs>
</svg>
