<?xml version="1.0" encoding="utf-8" standalone="no"?>
<!DOCTYPE svg PUBLIC "-//W3C//DTD SVG 1.1//EN"
  "http://www.w3.org/Graphics/SVG/1.1/DTD/svg11.dtd">
<!-- Created with matplotlib (https://matplotlib.org/) -->
<svg height="345.6pt" version="1.1" viewBox="0 0 460.8 345.6" width="460.8pt" xmlns="http://www.w3.org/2000/svg" xmlns:xlink="http://www.w3.org/1999/xlink">
 <defs>
  <style type="text/css">
*{stroke-linecap:butt;stroke-linejoin:round;}
  </style>
 </defs>
 <g id="figure_1">
  <g id="patch_1">
   <path d="M 0 345.6 
L 460.8 345.6 
L 460.8 0 
L 0 0 
z
" style="fill:#ffffff;"/>
  </g>
  <g id="axes_1">
   <g id="patch_2">
    <path d="M 57.6 307.584 
L 414.72 307.584 
L 414.72 41.472 
L 57.6 41.472 
z
" style="fill:#ffffff;"/>
   </g>
   <g id="line2d_1">
    <path clip-path="url(#p33c072b47e)" d="M 395.934036 242.738884 
L 395.745022 242.738884 
L 395.652065 242.573338 
L 395.745022 243.233759 
L 395.841079 243.233759 
L 396.030093 242.738884 
L 395.841079 242.573338 
L 395.652065 242.573338 
L 395.745022 242.738884 
L 395.745022 242.573338 
L 395.745022 242.407793 
L 396.030093 242.407793 
L 396.030093 242.573338 
L 395.934036 242.407793 
L 395.556009 243.233759 
L 395.745022 243.069975 
L 395.841079 242.738884 
L 395.652065 242.407793 
L 395.463051 242.573338 
L 395.745022 242.904429 
L 395.556009 242.904429 
L 395.934036 242.738884 
L 396.12305 242.407793 
L 396.12305 242.407793 
L 395.934036 242.407793 
L 395.463051 241.745611 
L 395.463051 241.745611 
L 395.745022 241.745611 
L 395.841079 241.911157 
L 395.745022 241.580066 
L 395.745022 241.416281 
L 396.12305 241.745611 
L 396.219106 241.416281 
L 396.219106 240.919645 
L 395.841079 240.588554 
L 395.745022 240.7541 
L 395.745022 240.7541 
L 395.934036 240.7541 
L 396.219106 240.588554 
L 396.219106 240.919645 
L 396.219106 240.7541 
L 395.934036 239.928134 
L 395.934036 239.928134 
L 396.312064 239.100406 
L 396.219106 237.777804 
L 396.40812 238.60377 
L 396.597134 238.769316 
L 396.219106 238.438225 
L 396.219106 238.27444 
L 396.219106 238.438225 
L 396.030093 238.438225 
L 396.030093 237.777804 
L 396.219106 237.281168 
L 396.501078 237.281168 
L 396.40812 236.786293 
L 396.312064 236.620747 
L 396.312064 236.786293 
L 395.934036 236.786293 
L 396.40812 237.115622 
L 396.40812 236.950077 
L 396.40812 236.620747 
L 396.501078 236.950077 
L 396.597134 237.115622 
L 397.068119 235.461929 
L 396.879106 235.298145 
L 396.786148 235.627475 
L 397.164176 235.627475 
L 397.257133 235.461929 
L 397.164176 235.132599 
L 397.257133 234.801508 
L 397.446147 234.801508 
L 397.35319 235.298145 
L 397.446147 235.79302 
L 397.257133 235.958565 
L 396.786148 234.801508 
L 397.068119 235.298145 
L 397.257133 235.461929 
L 397.446147 235.298145 
L 397.35319 235.298145 
L 397.164176 235.79302 
L 397.164176 235.627475 
L 396.786148 235.958565 
L 397.635161 234.635963 
L 397.257133 235.79302 
L 397.164176 235.79302 
L 397.257133 235.627475 
L 397.446147 234.635963 
L 397.635161 234.967054 
L 397.824175 234.967054 
L 397.824175 234.967054 
L 397.635161 235.298145 
L 397.542203 235.132599 
L 397.824175 233.644452 
L 398.109245 233.973781 
L 398.202203 233.973781 
L 398.202203 234.139327 
L 398.202203 234.139327 
L 398.013189 234.139327 
L 397.731217 233.644452 
L 397.824175 233.644452 
L 397.731217 233.644452 
L 398.109245 232.485633 
L 398.298259 232.156304 
L 398.487273 232.156304 
L 398.487273 232.156304 
L 398.109245 232.320088 
L 398.109245 231.825213 
L 397.920231 231.825213 
L 397.920231 232.156304 
L 398.013189 232.156304 
L 398.202203 232.156304 
L 398.202203 232.320088 
L 397.920231 232.320088 
L 398.013189 232.320088 
L 398.109245 232.156304 
L 397.920231 232.485633 
L 397.920231 232.320088 
L 398.013189 231.825213 
L 398.202203 231.825213 
L 398.487273 232.485633 
L 398.013189 232.816724 
L 397.920231 232.320088 
L 398.109245 231.163031 
L 398.298259 231.659667 
L 398.298259 231.990758 
L 398.202203 231.825213 
L 398.013189 231.825213 
L 397.920231 231.990758 
L 397.731217 231.825213 
L 397.542203 231.494122 
L 397.731217 231.990758 
L 397.731217 232.320088 
L 397.824175 231.328577 
L 398.013189 231.328577 
L 397.920231 231.328577 
L 397.542203 232.156304 
L 397.542203 232.320088 
L 397.635161 232.320088 
L 398.013189 232.320088 
L 397.635161 232.320088 
L 397.542203 232.156304 
L 397.824175 232.156304 
L 397.635161 232.156304 
L 397.257133 232.651179 
L 397.068119 232.816724 
L 396.12305 232.816724 
L 395.366995 233.147815 
L 393.098828 233.478906 
L 387.050385 235.79302 
L 384.404191 236.620747 
L 381.472927 236.950077 
L 378.259691 236.786293 
L 374.953498 236.289656 
L 371.455192 235.958565 
L 367.581957 235.461929 
L 363.612666 234.304872 
L 359.736333 232.651179 
L 355.859999 231.163031 
L 351.890708 230.17152 
L 347.828459 228.848917 
L 343.859168 227.195224 
L 339.982835 225.707076 
L 336.295515 224.548258 
L 332.611294 223.225656 
L 329.020031 221.737508 
L 325.332711 220.580451 
L 321.459477 219.58894 
L 317.490185 218.926758 
L 313.802866 218.100792 
L 310.211603 216.941974 
L 306.902311 215.453826 
L 303.596117 214.296769 
L 300.004854 213.800133 
L 296.035563 213.470803 
L 291.970216 212.974167 
L 288.189938 212.146439 
L 284.313605 210.658292 
L 280.533328 209.66678 
L 276.660093 208.840814 
L 268.436441 207.516451 
L 264.18208 207.350905 
L 260.308845 207.021575 
L 256.717581 206.359394 
L 253.315332 205.533428 
L 250.00604 205.202337 
L 246.696748 205.036791 
L 239.988305 204.374609 
L 236.77507 204.209064 
L 233.654792 204.374609 
L 230.252542 204.7057 
L 226.94325 204.7057 
L 221.272835 203.879734 
L 218.533683 203.548643 
L 216.16946 203.383098 
L 214.186364 203.383098 
L 210.028059 203.714189 
L 209.364961 203.548643 
L 208.515948 203.548643 
L 208.419892 203.714189 
L 208.515948 204.209064 
L 208.893976 204.540155 
L 209.742989 204.540155 
L 210.028059 204.871246 
L 210.406087 204.871246 
L 210.688058 204.540155 
L 210.784115 204.209064 
L 210.784115 204.540155 
L 210.499044 205.698973 
L 210.217073 205.202337 
L 209.932003 205.862757 
L 210.121017 205.698973 
L 210.310031 205.698973 
L 210.406087 205.862757 
L 210.310031 206.524939 
L 210.121017 206.524939 
L 209.839045 206.193848 
L 209.839045 206.028303 
L 210.028059 206.028303 
L 210.310031 205.862757 
L 210.595101 206.028303 
L 210.784115 206.359394 
L 210.595101 206.85603 
L 210.499044 206.524939 
L 210.688058 206.193848 
L 210.688058 206.690484 
L 210.688058 206.524939 
L 210.499044 206.524939 
L 210.499044 206.524939 
L 210.973128 206.193848 
L 211.066086 206.193848 
L 210.973128 206.524939 
L 210.877072 206.85603 
L 210.973128 206.85603 
L 210.973128 206.85603 
L 210.784115 206.359394 
L 210.877072 206.193848 
L 210.688058 206.524939 
L 210.877072 206.193848 
L 211.162142 206.193848 
L 211.066086 206.85603 
L 210.877072 207.021575 
L 210.784115 206.85603 
L 210.784115 206.524939 
L 210.973128 206.524939 
L 211.162142 206.193848 
L 210.877072 206.524939 
L 210.499044 206.85603 
L 210.310031 206.85603 
L 210.310031 206.690484 
L 210.406087 206.690484 
L 210.499044 206.690484 
L 210.688058 206.85603 
L 210.406087 207.350905 
L 210.217073 207.350905 
L 210.217073 207.021575 
L 210.595101 206.193848 
L 210.406087 206.85603 
L 210.310031 207.681996 
L 210.784115 207.021575 
L 210.973128 207.021575 
L 210.688058 206.359394 
L 210.688058 206.359394 
L 210.595101 207.187121 
L 210.499044 207.350905 
L 210.595101 207.516451 
L 210.973128 207.021575 
L 211.066086 207.021575 
L 210.973128 207.847541 
L 210.784115 207.847541 
L 210.688058 206.690484 
L 210.688058 206.690484 
L 210.784115 206.85603 
L 210.877072 207.847541 
L 210.877072 206.690484 
L 211.066086 206.524939 
L 211.351156 206.85603 
L 211.444114 206.690484 
L 211.162142 207.187121 
L 210.973128 207.187121 
L 210.973128 207.350905 
L 211.066086 207.350905 
L 211.2551 207.350905 
L 210.973128 207.021575 
L 210.877072 207.187121 
L 210.973128 207.516451 
L 210.877072 207.187121 
L 211.066086 206.85603 
L 210.499044 206.85603 
L 210.595101 207.350905 
L 210.877072 207.847541 
L 211.162142 208.013087 
L 211.351156 207.516451 
L 211.351156 206.85603 
L 211.351156 207.681996 
L 211.162142 207.516451 
L 210.973128 207.187121 
L 211.54017 206.690484 
L 211.729184 206.690484 
L 211.822141 207.187121 
L 211.633128 206.359394 
L 211.351156 205.698973 
L 211.444114 205.533428 
L 211.729184 205.533428 
L 211.918198 206.028303 
L 211.918198 206.359394 
L 211.822141 206.359394 
L 211.633128 206.193848 
L 211.822141 206.028303 
L 211.822141 206.028303 
L 211.822141 206.359394 
L 211.918198 206.359394 
L 212.107212 206.028303 
L 211.822141 204.871246 
L 212.107212 205.698973 
L 212.107212 204.540155 
L 212.200169 204.871246 
L 212.389183 204.871246 
L 212.485239 204.540155 
L 211.918198 204.04528 
L 210.310031 202.060496 
L 208.419892 198.753109 
L 206.811725 196.768325 
L 204.921586 194.619757 
L 202.749476 191.972791 
L 198.02413 185.854654 
L 192.920755 179.736517 
L 190.178505 176.594676 
L 187.628367 173.121744 
L 182.428937 165.51546 
L 172.411202 151.130618 
L 168.723883 144.515845 
L 164.943605 137.075106 
L 161.4453 129.137731 
L 159.555161 125.333708 
L 157.572065 121.696992 
L 156.059954 118.22406 
L 154.829815 114.751128 
L 152.657704 108.136355 
L 149.255455 98.381502 
L 148.592357 95.074115 
L 147.26926 84.986411 
L 146.987289 81.513479 
L 146.798275 75.229797 
L 146.420247 69.939387 
L 146.420247 66.963091 
L 147.176302 55.552784 
L 147.458274 54.890602 
L 147.836302 54.561273 
L 148.214329 54.561273 
L 148.688413 54.395727 
L 149.255455 54.395727 
L 149.444469 54.726818 
L 149.72644 56.04942 
L 150.104468 56.709841 
L 149.915454 56.875386 
L 149.822497 56.709841 
L 149.915454 56.709841 
L 150.104468 56.709841 
L 150.67151 56.214966 
L 150.767566 55.71833 
L 150.95658 55.056148 
L 151.712635 53.733545 
L 151.994607 54.395727 
L 151.901649 54.064636 
L 151.901649 53.733545 
L 151.994607 53.733545 
L 152.090663 53.733545 
L 152.18362 53.568 
L 152.468691 53.733545 
L 152.372634 53.733545 
L 152.279677 54.064636 
L 152.279677 53.733545 
L 152.090663 53.568 
L 152.090663 54.064636 
L 152.279677 54.395727 
L 152.750662 54.561273 
L 152.657704 54.230182 
L 152.561648 54.395727 
L 152.561648 54.726818 
L 152.657704 54.561273 
L 152.750662 54.395727 
L 152.561648 54.561273 
L 152.561648 54.561273 
L 152.750662 54.726818 
L 152.657704 54.561273 
L 152.750662 54.561273 
L 152.846718 54.726818 
L 152.657704 55.221693 
L 152.657704 55.71833 
L 152.846718 55.883875 
L 153.035732 55.883875 
L 152.939676 55.883875 
L 152.750662 56.214966 
L 152.939676 56.709841 
L 153.41376 56.709841 
L 153.317704 56.214966 
L 153.224746 55.883875 
L 153.317704 55.883875 
L 153.506718 56.04942 
L 153.695731 56.544296 
L 153.695731 56.875386 
L 153.41376 56.875386 
L 153.224746 56.380511 
L 153.695731 57.537568 
L 153.695731 57.703114 
L 153.884745 57.537568 
L 153.980801 57.206477 
L 153.980801 57.206477 
L 153.791788 57.372023 
L 153.791788 57.868659 
L 153.884745 57.868659 
L 153.980801 57.868659 
L 153.884745 58.363534 
L 153.791788 58.52908 
L 153.695731 57.868659 
L 153.884745 57.868659 
L 153.980801 58.52908 
L 154.073759 58.694625 
L 153.980801 58.694625 
L 153.884745 58.694625 
L 153.980801 58.694625 
L 154.169815 58.860171 
L 154.358829 58.860171 
L 154.358829 58.860171 
L 154.169815 59.025716 
L 153.791788 59.851682 
L 153.980801 60.017228 
L 154.358829 59.520591 
L 154.451787 59.520591 
L 154.358829 60.513864 
L 154.262773 60.679409 
L 154.073759 60.679409 
L 153.791788 60.348318 
L 153.884745 60.182773 
L 154.073759 60.182773 
L 154.073759 60.182773 
L 153.791788 60.348318 
L 153.791788 60.679409 
L 154.547843 61.670921 
L 154.262773 62.333103 
L 154.169815 62.333103 
L 154.169815 62.333103 
L 154.262773 62.662432 
L 154.451787 62.662432 
L 154.262773 63.324614 
L 154.358829 63.490159 
L 154.451787 63.159069 
L 154.358829 62.993523 
L 154.358829 64.316126 
L 153.980801 64.481671 
L 153.695731 64.481671 
L 153.317704 64.152341 
L 153.12869 64.152341 
L 152.657704 64.481671 
L 151.901649 64.647216 
L 150.95658 64.978307 
L 149.633483 65.143853 
L 148.121372 65.143853 
L 146.324191 65.640489 
L 142.261942 67.623512 
L 140.179691 68.451239 
L 137.911525 69.773842 
L 135.739415 71.758626 
L 131.485053 75.891978 
L 127.89379 80.190876 
L 120.618306 89.781945 
L 118.443097 92.09782 
L 111.26057 101.357798 
L 109.559446 104.168548 
L 107.858321 107.64148 
L 102.091849 120.869264 
L 99.823682 127.318492 
L 98.785655 130.625879 
L 95.191294 143.524334 
L 93.301155 149.476925 
L 91.318059 154.767334 
L 89.331864 160.22505 
L 87.252711 165.349914 
L 84.324546 176.429131 
L 83.001449 182.712813 
L 82.434407 185.194233 
L 81.300324 193.792029 
L 80.733282 199.415291 
L 79.977227 204.209064 
L 79.788213 206.193848 
L 79.503143 211.81711 
L 79.125115 217.107519 
L 78.558074 221.077087 
L 78.36906 225.375985 
L 77.898075 229.014463 
L 77.802018 247.534418 
L 77.709061 248.360384 
L 77.423991 249.188111 
L 77.234977 250.179623 
L 76.763991 254.809612 
L 76.478921 256.29776 
L 76.478921 256.62885 
L 76.763991 257.785907 
L 76.856949 260.265567 
L 76.574978 260.762203 
L 76.289907 260.927748 
L 76.19695 261.424385 
L 76.667935 263.738499 
L 76.667935 264.731771 
L 76.385964 264.895556 
L 76.100894 265.226646 
L 76.100894 265.888828 
L 76.289907 266.88034 
L 76.19695 268.699578 
L 76.007936 268.865124 
L 75.818922 269.196215 
L 76.007936 270.684362 
L 75.91188 271.344783 
L 75.533852 272.17251 
L 75.91188 272.832931 
L 75.91188 272.832931 
L 75.818922 272.998476 
L 75.722866 275.479897 
L 75.440894 275.809226 
L 75.251881 275.809226 
L 75.344838 276.802499 
L 75.722866 277.959556 
L 75.91188 278.951068 
L 76.19695 278.951068 
L 76.289907 279.282158 
L 76.19695 279.778795 
L 76.007936 280.109886 
L 76.007936 280.109886 
L 76.289907 280.109886 
L 76.478921 280.275431 
L 76.007936 280.935852 
L 76.19695 280.935852 
L 76.289907 281.432488 
L 76.19695 282.092909 
L 76.007936 282.423999 
L 76.007936 282.423999 
L 76.19695 282.589545 
L 76.100894 282.920636 
L 76.19695 283.417272 
L 76.007936 284.90542 
L 76.19695 284.739874 
L 75.722866 285.070965 
L 75.722866 285.400295 
L 76.100894 285.731386 
L 76.100894 285.731386 
L 75.722866 286.559113 
L 75.722866 287.219534 
L 75.533852 287.385079 
L 75.533852 287.385079 
L 75.629908 287.550625 
L 75.440894 287.385079 
L 75.344838 287.385079 
L 75.533852 287.881716 
L 75.344838 287.881716 
L 75.251881 287.71617 
L 75.533852 288.211045 
L 75.629908 289.038772 
L 75.533852 288.873227 
L 75.91188 288.376591 
L 76.007936 288.542136 
L 75.722866 289.204318 
L 75.440894 288.873227 
L 75.344838 288.873227 
L 75.440894 288.873227 
L 75.722866 289.038772 
L 75.629908 289.038772 
L 75.629908 289.204318 
L 75.629908 288.873227 
L 75.155824 289.864739 
L 75.629908 289.864739 
L 75.722866 290.361375 
L 75.629908 290.692466 
L 75.251881 289.864739 
L 75.155824 290.030284 
L 75.062867 290.692466 
L 74.777797 291.189102 
L 74.96681 290.858011 
L 75.344838 291.352886 
L 75.440894 291.352886 
L 75.251881 291.189102 
L 75.251881 291.518432 
L 74.684839 291.023557 
L 74.684839 291.023557 
L 74.96681 291.023557 
L 74.96681 290.692466 
L 74.873853 292.015068 
L 74.777797 292.346159 
L 74.588783 292.180614 
L 74.492726 291.849523 
L 74.684839 291.683977 
L 74.777797 292.015068 
L 74.96681 292.511704 
L 74.873853 292.180614 
L 74.588783 291.849523 
L 74.303713 291.849523 
L 74.210755 292.346159 
L 74.303713 292.67725 
L 74.210755 293.668761 
L 74.303713 293.668761 
L 74.492726 293.33767 
L 74.303713 293.503216 
L 74.210755 293.503216 
L 74.492726 293.668761 
L 74.210755 293.668761 
L 73.925685 293.503216 
L 73.925685 293.172125 
L 74.114699 293.503216 
L 74.114699 294.165398 
L 74.021741 294.165398 
L 73.832727 293.999852 
L 73.832727 293.503216 
L 73.925685 293.503216 
L 74.021741 293.999852 
L 74.021741 294.991364 
L 74.021741 294.494727 
L 73.832727 293.999852 
L 74.399769 295.156909 
L 74.873853 295.488 
L 76.385964 293.834307 
L 77.613004 293.33767 
L 79.221172 293.00658 
L 81.393282 292.346159 
L 83.757504 290.692466 
L 86.118628 288.873227 
L 88.764822 287.053988 
L 95.854391 284.243238 
L 103.88903 281.598033 
L 112.772681 278.787283 
L 117.401971 277.628465 
L 122.31943 276.636954 
L 131.485053 274.321079 
L 135.928428 272.832931 
L 140.275747 271.675874 
L 144.719122 270.684362 
L 148.877427 270.022181 
L 153.12869 269.196215 
L 170.425007 266.714794 
L 174.490355 266.385464 
L 182.521894 266.054374 
L 198.591171 266.054374 
L 202.464406 266.385464 
L 206.433697 267.045885 
L 210.121017 267.376976 
L 213.523266 267.376976 
L 216.547488 267.542521 
L 221.746918 268.202942 
L 223.730015 268.202942 
L 226.94325 269.030669 
L 227.22832 269.527306 
L 226.565223 270.518817 
L 226.094237 271.015453 
L 225.905223 271.015453 
L 225.809167 270.849908 
L 225.905223 270.849908 
L 226.094237 270.849908 
L 226.472265 270.353272 
L 225.905223 271.015453 
L 226.283251 270.684362 
L 226.565223 270.518817 
L 226.565223 270.518817 
L 226.472265 270.353272 
L 226.565223 270.187726 
L 226.754236 270.684362 
L 226.850293 271.510329 
L 226.850293 270.684362 
L 226.94325 270.022181 
L 227.132264 269.69109 
L 227.22832 269.856635 
L 227.039307 270.353272 
L 226.850293 270.353272 
L 226.661279 270.187726 
L 226.661279 270.849908 
L 226.850293 270.849908 
L 227.039307 270.684362 
L 227.321278 270.684362 
L 227.321278 271.344783 
L 227.132264 271.675874 
L 227.417334 272.006965 
L 227.510292 271.841419 
L 227.132264 271.015453 
L 227.22832 270.684362 
L 227.606348 270.684362 
L 227.795362 271.015453 
L 227.699306 271.179238 
L 227.984376 270.849908 
L 227.984376 271.015453 
L 227.88832 271.015453 
L 227.795362 271.344783 
L 227.795362 271.015453 
L 227.606348 270.684362 
L 228.077334 271.510329 
L 228.17339 270.684362 
L 228.455361 271.015453 
L 228.551417 270.849908 
L 228.644375 271.015453 
L 228.455361 272.006965 
L 228.362404 271.841419 
L 228.077334 271.510329 
L 228.266347 271.510329 
L 228.455361 271.344783 
L 228.644375 271.344783 
L 228.644375 271.015453 
L 228.740431 271.015453 
L 228.929445 271.015453 
L 229.025501 271.179238 
L 228.833389 271.510329 
L 228.644375 271.510329 
L 228.929445 271.510329 
L 229.403529 271.675874 
L 229.592543 272.006965 
L 229.403529 272.006965 
L 229.025501 271.179238 
L 229.025501 271.015453 
L 229.025501 271.179238 
L 229.496487 272.006965 
L 229.496487 271.675874 
L 229.307473 271.841419 
L 229.403529 272.006965 
L 229.874514 272.006965 
L 229.781557 272.17251 
L 229.970571 271.675874 
L 229.874514 270.849908 
L 229.685501 270.849908 
L 229.592543 271.179238 
L 229.874514 272.503601 
L 229.970571 272.503601 
L 230.063528 272.006965 
L 229.874514 271.510329 
L 229.970571 271.510329 
L 229.781557 271.675874 
L 229.592543 271.510329 
L 229.496487 271.179238 
L 229.307473 271.510329 
L 229.307473 271.510329 
L 229.403529 272.006965 
L 229.874514 272.832931 
L 229.685501 273.164022 
L 229.403529 272.998476 
L 229.403529 272.338056 
L 229.592543 271.841419 
L 229.403529 272.338056 
L 228.929445 272.667385 
L 229.214515 272.338056 
L 229.781557 272.17251 
L 229.781557 272.503601 
L 229.592543 272.667385 
L 229.592543 272.832931 
L 229.496487 272.832931 
L 229.214515 273.495113 
L 229.307473 273.660658 
L 229.496487 273.660658 
L 229.685501 274.157294 
L 229.685501 274.486624 
L 229.685501 274.157294 
L 229.874514 273.164022 
L 229.214515 273.495113 
L 229.403529 273.660658 
L 229.307473 273.329567 
L 229.118459 273.164022 
L 229.214515 273.329567 
L 229.496487 273.826203 
L 229.496487 273.826203 
L 229.403529 274.157294 
L 229.496487 274.817715 
L 229.592543 274.321079 
L 229.781557 275.148806 
L 229.592543 275.479897 
L 229.592543 275.148806 
L 229.496487 275.314351 
L 229.025501 276.305863 
L 229.118459 276.636954 
L 229.496487 275.974772 
L 229.781557 275.974772 
L 230.063528 276.305863 
L 229.496487 276.305863 
L 229.403529 276.471408 
L 229.592543 276.140317 
L 229.403529 275.809226 
L 229.403529 276.471408 
L 229.214515 276.471408 
L 229.118459 276.636954 
L 229.025501 277.13359 
L 228.740431 277.628465 
L 228.929445 277.794011 
L 228.833389 277.794011 
L 228.551417 277.794011 
L 228.455361 277.959556 
L 228.551417 277.959556 
L 228.929445 277.46292 
L 228.266347 278.290647 
L 228.833389 278.290647 
L 228.833389 278.290647 
L 228.833389 278.125101 
L 228.929445 278.787283 
L 228.740431 278.787283 
L 228.266347 278.621738 
L 228.266347 278.951068 
L 228.455361 278.951068 
L 228.833389 278.787283 
L 228.929445 278.621738 
L 228.644375 278.951068 
L 228.740431 278.787283 
L 228.833389 278.290647 
L 229.025501 277.959556 
L 229.025501 278.125101 
L 228.833389 278.621738 
L 228.740431 278.621738 
L 228.551417 278.787283 
L 228.362404 278.787283 
L 228.266347 278.621738 
L 228.362404 278.621738 
L 228.17339 278.951068 
L 228.17339 278.951068 
L 227.984376 278.951068 
L 227.795362 278.456192 
L 227.132264 275.645442 
L 226.376209 274.157294 
L 225.242126 272.667385 
L 223.919029 271.179238 
L 222.406918 269.196215 
L 219.100724 264.235135 
L 204.639615 241.580066 
L 193.298783 220.911542 
L 184.412033 201.729405 
L 182.143867 196.93387 
L 179.971757 191.643461 
L 175.906409 180.72979 
L 170.04698 165.18613 
L 168.345855 160.22505 
L 166.740786 155.098425 
L 161.4453 140.877368 
L 159.933189 135.750743 
L 158.706148 130.791424 
L 156.816009 121.03481 
L 155.963898 116.07373 
L 155.303898 111.11265 
L 154.829815 106.482662 
L 154.262773 98.545286 
L 154.169815 94.743025 
L 154.640801 87.302286 
L 155.207842 79.033819 
L 155.58587 76.55416 
L 156.248968 73.907194 
L 156.437982 72.087955 
L 156.719953 72.087955 
L 157.097981 72.253501 
L 157.476009 72.087955 
L 157.950093 71.758626 
L 157.854036 72.087955 
L 157.950093 72.253501 
L 158.232064 72.419046 
L 158.421078 72.750137 
L 158.232064 73.412319 
L 158.421078 72.750137 
L 158.610092 72.584592 
L 158.706148 70.599808 
L 158.610092 71.096444 
L 158.895162 70.930899 
L 158.706148 71.758626 
L 158.799106 71.427535 
L 159.177133 70.930899 
L 159.27319 71.261989 
L 159.177133 72.584592 
L 158.988119 72.584592 
L 158.988119 73.576103 
L 159.084176 73.576103 
L 159.177133 73.576103 
L 159.177133 73.907194 
L 158.988119 74.07274 
L 158.988119 74.40383 
L 159.366147 75.229797 
L 159.366147 75.229797 
L 159.462203 75.229797 
L 159.462203 75.229797 
L 158.799106 76.223069 
L 158.895162 76.223069 
L 159.084176 76.388615 
L 159.084176 76.717944 
L 158.988119 76.223069 
L 158.799106 76.223069 
L 158.610092 76.717944 
L 158.706148 77.214581 
L 159.840231 77.711217 
L 159.651217 77.876762 
L 159.27319 78.371638 
L 159.084176 78.868274 
L 159.462203 79.36491 
L 159.462203 79.36491 
L 159.27319 79.530456 
L 159.27319 79.36491 
L 159.366147 79.696001 
L 159.462203 79.859785 
L 158.988119 80.521967 
L 159.555161 79.696001 
L 159.651217 79.859785 
L 159.555161 80.025331 
L 159.555161 80.025331 
L 159.744175 80.190876 
L 159.933189 80.687513 
L 159.933189 81.347933 
L 159.462203 82.010115 
L 159.651217 82.010115 
L 159.840231 81.844569 
L 160.029245 82.010115 
L 159.744175 82.341206 
L 159.744175 82.17566 
L 159.555161 82.17566 
L 159.840231 81.844569 
L 159.933189 83.167172 
L 160.029245 83.498263 
L 160.596287 82.506751 
L 160.50023 82.506751 
L 160.311217 82.506751 
L 160.50023 82.506751 
L 160.311217 82.341206 
L 160.50023 82.17566 
L 160.7853 81.513479 
L 160.596287 81.513479 
L 160.50023 81.844569 
L 160.50023 81.844569 
L 160.689244 81.844569 
L 161.067272 82.17566 
L 161.4453 82.17566 
L 161.541356 82.341206 
L 161.163328 82.341206 
L 160.7853 81.513479 
L 160.878258 81.347933 
L 161.067272 81.347933 
L 161.256286 81.513479 
L 161.163328 82.17566 
L 161.163328 82.17566 
L 160.974314 82.010115 
L 160.878258 81.513479 
L 161.067272 80.853058 
L 161.163328 81.018603 
L 160.974314 81.347933 
L 160.878258 81.184149 
L 160.974314 80.853058 
L 161.163328 80.687513 
L 161.634314 80.687513 
L 161.634314 80.521967 
L 161.541356 80.687513 
L 160.974314 81.347933 
L 161.256286 81.347933 
L 161.4453 80.853058 
L 161.634314 79.530456 
L 161.4453 79.530456 
L 161.919384 80.025331 
L 162.012341 79.859785 
L 162.201355 79.199365 
L 162.201355 78.702728 
L 162.012341 78.702728 
L 161.73037 79.199365 
L 161.634314 78.868274 
L 161.634314 78.206092 
L 161.823327 77.711217 
L 162.108397 77.545671 
L 162.201355 77.876762 
L 162.012341 77.876762 
L 161.823327 77.380126 
L 162.012341 77.214581 
L 162.108397 77.380126 
L 162.108397 77.711217 
L 162.012341 77.711217 
L 161.541356 77.049035 
L 161.634314 77.214581 
L 161.919384 77.214581 
L 162.012341 77.049035 
L 161.919384 76.88349 
L 162.012341 77.876762 
L 162.108397 78.042308 
L 162.201355 77.711217 
L 162.108397 77.711217 
L 161.634314 78.537183 
L 161.919384 77.876762 
L 162.012341 77.380126 
L 162.201355 77.545671 
L 162.108397 78.206092 
L 161.919384 78.206092 
L 161.919384 78.042308 
L 162.108397 78.042308 
L 162.390369 78.206092 
L 162.390369 78.206092 
L 162.297411 78.371638 
L 162.297411 78.702728 
L 162.297411 77.545671 
L 162.390369 78.042308 
L 162.579383 78.206092 
L 162.864453 77.380126 
L 162.675439 77.380126 
L 162.486425 77.711217 
L 162.579383 77.876762 
L 162.579383 77.876762 
L 162.675439 77.711217 
L 162.960509 76.55416 
L 162.864453 76.55416 
L 162.768397 76.55416 
L 163.809522 76.55416 
L 164.754592 74.900467 
L 165.321633 74.40383 
L 165.984731 74.238285 
L 166.64473 74.569376 
L 167.589799 74.734921 
L 169.479938 75.560887 
L 170.710077 76.223069 
L 172.126132 77.214581 
L 176.284437 80.687513 
L 177.70359 82.010115 
L 179.497673 83.498263 
L 181.387811 85.317501 
L 183.27795 86.971195 
L 185.264145 88.459342 
L 187.628367 89.781945 
L 190.367519 91.104547 
L 192.731742 92.42715 
L 194.810894 93.420422 
L 196.983004 94.90857 
L 199.536241 96.396718 
L 202.086378 98.050411 
L 207.381865 102.514854 
L 212.578197 106.153332 
L 217.588614 109.295173 
L 219.949737 111.11265 
L 226.187195 117.561878 
L 227.984376 120.043298 
L 229.592543 122.854049 
L 231.293668 125.499253 
L 236.868027 132.610663 
L 240.270277 138.066618 
L 244.713652 145.176266 
L 245.847735 147.492141 
L 247.54886 153.610277 
L 248.493929 156.089937 
L 249.531956 158.074721 
L 250.384068 160.059505 
L 251.047165 162.044289 
L 251.614207 164.192857 
L 251.896179 166.508732 
L 252.181249 175.603165 
L 252.181249 177.917279 
L 251.329137 182.383483 
L 250.666039 188.83095 
L 250.855053 190.484643 
L 251.140123 191.972791 
L 251.236179 193.626484 
L 250.951109 197.099416 
L 250.855053 199.249745 
L 250.477025 202.226041 
L 249.628012 205.202337 
L 249.72097 206.690484 
L 249.909984 207.681996 
L 249.817026 208.509723 
L 249.531956 209.832325 
L 249.153928 212.808621 
L 248.493929 216.281553 
L 248.775901 216.776428 
L 248.871957 217.769701 
L 248.871957 221.077087 
L 248.397873 222.234144 
L 248.208859 223.556747 
L 248.208859 225.375985 
L 248.019845 226.201951 
L 248.115901 226.864133 
L 248.397873 227.360769 
L 248.493929 228.02119 
L 247.926887 229.840429 
L 247.54886 230.17152 
L 247.830831 231.825213 
L 247.737874 233.644452 
L 247.641817 234.470418 
L 247.452804 235.132599 
L 247.452804 235.627475 
L 247.737874 235.79302 
L 247.641817 236.620747 
L 247.54886 237.446713 
L 247.54886 240.091918 
L 247.737874 240.091918 
L 248.019845 240.7541 
L 248.019845 241.085191 
L 247.737874 241.250736 
L 248.019845 240.919645 
L 248.304915 241.085191 
L 248.304915 241.416281 
L 247.830831 242.407793 
L 247.830831 242.738884 
L 248.115901 243.399304 
L 247.926887 243.233759 
L 247.737874 242.738884 
L 247.830831 242.738884 
L 247.926887 242.738884 
L 247.737874 243.069975 
L 247.641817 243.56485 
L 247.737874 243.730395 
L 247.830831 243.56485 
L 247.737874 243.730395 
L 247.926887 244.721907 
L 247.737874 245.218543 
L 247.641817 245.218543 
L 247.641817 245.549634 
L 247.830831 245.549634 
L 247.926887 245.715179 
L 247.641817 245.715179 
L 247.641817 245.549634 
L 247.641817 245.715179 
L 247.830831 245.880725 
L 248.115901 245.880725 
L 247.926887 245.384089 
L 248.019845 245.880725 
L 247.830831 245.880725 
L 247.737874 245.549634 
L 247.830831 245.218543 
L 248.208859 245.218543 
L 248.208859 245.715179 
L 248.115901 245.218543 
L 248.019845 245.052998 
L 248.115901 245.218543 
L 248.115901 244.887452 
L 248.115901 245.880725 
L 247.926887 246.04627 
L 247.737874 245.880725 
L 247.830831 245.384089 
L 248.115901 245.549634 
L 248.115901 246.872236 
L 247.830831 246.872236 
L 247.54886 247.037782 
L 247.641817 247.037782 
L 248.115901 247.203327 
L 248.304915 246.872236 
L 247.737874 247.863748 
L 247.830831 247.863748 
L 248.019845 247.863748 
L 247.830831 247.863748 
L 247.641817 247.368873 
L 247.830831 247.863748 
L 248.208859 249.022566 
L 248.304915 249.022566 
L 248.208859 248.691475 
L 248.397873 248.194839 
L 248.586887 248.029293 
L 248.682943 248.360384 
L 248.397873 247.699964 
L 247.830831 247.699964 
L 247.830831 247.863748 
L 248.304915 248.194839 
L 248.586887 248.360384 
L 248.019845 248.029293 
L 248.208859 247.863748 
L 248.493929 247.863748 
L 248.493929 248.029293 
L 248.208859 248.52593 
L 248.493929 248.029293 
L 248.208859 249.351896 
L 248.397873 249.351896 
L 248.586887 249.351896 
L 248.682943 249.022566 
L 248.586887 248.52593 
L 248.682943 248.691475 
L 248.586887 248.360384 
L 248.397873 248.194839 
L 248.304915 248.52593 
L 248.493929 248.691475 
L 248.493929 248.691475 
L 248.493929 248.360384 
L 248.775901 247.699964 
L 248.493929 247.699964 
L 248.208859 247.534418 
L 248.115901 247.037782 
L 248.208859 247.037782 
L 248.397873 247.203327 
L 248.682943 247.203327 
L 248.493929 247.699964 
L 248.397873 247.534418 
L 248.115901 246.872236 
L 248.115901 246.706691 
L 248.208859 246.706691 
L 248.397873 246.541146 
L 248.586887 246.541146 
L 248.586887 246.872236 
L 248.304915 247.037782 
L 248.397873 247.203327 
L 248.304915 247.203327 
L 247.830831 246.872236 
L 247.830831 248.029293 
L 247.737874 247.203327 
L 247.452804 247.203327 
L 247.737874 247.699964 
L 247.737874 247.534418 
L 247.830831 247.037782 
L 247.641817 247.863748 
L 247.359846 247.699964 
L 247.26379 247.037782 
L 247.359846 246.3756 
L 247.359846 246.706691 
L 247.170832 246.706691 
L 247.074776 246.541146 
L 247.641817 245.715179 
L 247.54886 246.210055 
L 247.359846 246.210055 
L 247.074776 244.887452 
L 247.074776 244.721907 
L 247.26379 245.218543 
L 247.170832 245.052998 
L 247.074776 245.052998 
L 246.981818 245.384089 
L 246.885762 245.384089 
L 246.60379 245.218543 
L 246.507734 245.384089 
L 246.31872 244.887452 
L 246.414777 244.558123 
L 246.414777 244.558123 
L 246.129707 244.558123 
L 246.31872 244.721907 
L 245.658721 243.895941 
L 245.184637 244.061486 
L 244.524638 244.061486 
L 241.311402 242.904429 
L 239.610278 242.573338 
L 234.977889 240.919645 
L 232.238737 240.091918 
L 229.025501 239.597043 
L 225.71621 239.265952 
L 222.217904 238.769316 
L 218.437627 237.94335 
L 214.564392 237.612259 
L 210.688058 237.612259 
L 206.907781 237.446713 
L 203.220462 236.786293 
L 187.154283 235.461929 
L 182.995978 235.627475 
L 178.64866 236.289656 
L 169.290924 237.94335 
L 164.661634 239.100406 
L 155.492912 242.076702 
L 151.049537 243.069975 
L 146.513205 243.399304 
L 141.787858 244.227032 
L 127.989846 248.029293 
L 115.796903 250.841805 
L 103.981987 252.990373 
L 100.957766 253.487009 
L 98.122558 254.14743 
L 95.476364 255.140703 
L 87.915809 257.454816 
L 86.97074 257.785907 
L 85.836657 258.448089 
L 85.551587 258.777419 
L 85.836657 259.936237 
L 86.214684 260.265567 
L 86.97074 261.755476 
L 87.252711 262.415896 
L 87.537781 262.912533 
L 87.630739 264.235135 
L 87.063698 264.235135 
L 87.063698 264.235135 
L 87.063698 265.061101 
L 86.68567 265.888828 
L 86.496656 266.219919 
L 86.403698 266.714794 
L 86.496656 268.368487 
L 86.403698 269.030669 
L 86.592712 269.196215 
L 86.874684 269.196215 
L 86.874684 269.36176 
L 86.592712 269.69109 
L 86.496656 270.518817 
L 86.496656 271.841419 
L 86.403698 271.841419 
L 86.307642 271.675874 
L 86.307642 271.841419 
L 86.214684 272.998476 
L 86.118628 273.826203 
L 86.118628 273.826203 
L 86.214684 273.991749 
L 86.025671 273.826203 
L 85.647643 274.157294 
L 85.647643 274.321079 
L 85.647643 274.157294 
L 85.836657 274.157294 
L 85.836657 274.486624 
L 85.929614 273.826203 
L 86.118628 273.826203 
L 85.929614 273.660658 
L 85.929614 274.486624 
L 85.836657 274.321079 
L 85.551587 273.660658 
L 85.551587 273.329567 
L 85.551587 273.826203 
L 85.740601 273.826203 
L 85.929614 273.991749 
L 85.836657 274.321079 
L 85.551587 274.157294 
L 85.647643 274.65217 
L 85.551587 274.817715 
L 85.458629 274.65217 
L 85.269615 274.65217 
L 85.362573 274.98326 
L 85.647643 275.148806 
L 85.647643 274.98326 
L 85.740601 275.314351 
L 85.458629 275.479897 
L 85.269615 275.314351 
L 85.362573 275.479897 
L 85.551587 275.974772 
L 85.458629 275.809226 
L 85.458629 274.98326 
L 85.458629 275.974772 
L 85.362573 275.645442 
L 85.080601 275.148806 
L 84.891587 275.479897 
L 85.269615 276.802499 
L 85.458629 276.968045 
L 85.458629 276.968045 
L 85.362573 276.636954 
L 85.458629 276.636954 
L 85.647643 276.636954 
L 85.173559 276.636954 
L 85.647643 277.13359 
L 85.740601 277.628465 
L 85.551587 277.959556 
L 85.551587 277.794011 
L 85.551587 278.125101 
L 85.362573 278.621738 
L 84.702574 278.621738 
L 84.702574 278.621738 
L 84.984545 278.951068 
L 84.795531 279.116613 
L 84.606517 279.613249 
L 85.269615 279.613249 
L 84.984545 279.613249 
L 84.51356 279.447704 
L 84.324546 279.116613 
L 84.324546 278.787283 
L 84.324546 279.613249 
L 84.417503 279.613249 
L 84.51356 279.778795 
L 84.606517 280.275431 
L 84.795531 280.604761 
L 85.080601 280.275431 
L 85.080601 280.604761 
L 85.080601 280.275431 
L 85.269615 280.109886 
L 85.173559 280.935852 
L 85.080601 280.439215 
L 84.891587 281.266943 
L 85.269615 281.266943 
L 85.362573 281.101397 
L 85.269615 280.770306 
L 85.269615 280.770306 
L 85.269615 281.266943 
L 85.080601 281.598033 
L 84.795531 281.598033 
L 84.891587 281.929124 
L 84.891587 281.598033 
L 84.891587 281.432488 
L 85.362573 281.432488 
L 85.269615 281.432488 
L 85.080601 281.266943 
L 84.891587 281.598033 
L 84.795531 282.092909 
L 84.891587 282.258454 
L 85.080601 281.598033 
L 85.080601 281.763579 
L 84.891587 281.763579 
L 84.606517 281.101397 
L 84.795531 281.101397 
L 84.795531 281.101397 
" style="fill:none;stroke:#1f77b4;stroke-linecap:square;stroke-width:1.5;"/>
   </g>
   <g id="matplotlib.axis_1">
    <g id="xtick_1">
     <g id="line2d_2">
      <defs>
       <path d="M 0 0 
L 0 3.5 
" id="m6d9473645d" style="stroke:#000000;stroke-width:0.8;"/>
      </defs>
      <g>
       <use style="stroke:#000000;stroke-width:0.8;" x="92.222846" xlink:href="#m6d9473645d" y="307.584"/>
      </g>
     </g>
     <g id="text_1">
      <!-- −400 -->
      <defs>
       <path d="M 10.59375 35.5 
L 73.1875 35.5 
L 73.1875 27.203125 
L 10.59375 27.203125 
z
" id="DejaVuSans-8722"/>
       <path d="M 37.796875 64.3125 
L 12.890625 25.390625 
L 37.796875 25.390625 
z
M 35.203125 72.90625 
L 47.609375 72.90625 
L 47.609375 25.390625 
L 58.015625 25.390625 
L 58.015625 17.1875 
L 47.609375 17.1875 
L 47.609375 0 
L 37.796875 0 
L 37.796875 17.1875 
L 4.890625 17.1875 
L 4.890625 26.703125 
z
" id="DejaVuSans-52"/>
       <path d="M 31.78125 66.40625 
Q 24.171875 66.40625 20.328125 58.90625 
Q 16.5 51.421875 16.5 36.375 
Q 16.5 21.390625 20.328125 13.890625 
Q 24.171875 6.390625 31.78125 6.390625 
Q 39.453125 6.390625 43.28125 13.890625 
Q 47.125 21.390625 47.125 36.375 
Q 47.125 51.421875 43.28125 58.90625 
Q 39.453125 66.40625 31.78125 66.40625 
z
M 31.78125 74.21875 
Q 44.046875 74.21875 50.515625 64.515625 
Q 56.984375 54.828125 56.984375 36.375 
Q 56.984375 17.96875 50.515625 8.265625 
Q 44.046875 -1.421875 31.78125 -1.421875 
Q 19.53125 -1.421875 13.0625 8.265625 
Q 6.59375 17.96875 6.59375 36.375 
Q 6.59375 54.828125 13.0625 64.515625 
Q 19.53125 74.21875 31.78125 74.21875 
z
" id="DejaVuSans-48"/>
      </defs>
      <g transform="translate(78.489253 322.182437)scale(0.1 -0.1)">
       <use xlink:href="#DejaVuSans-8722"/>
       <use x="83.789062" xlink:href="#DejaVuSans-52"/>
       <use x="147.412109" xlink:href="#DejaVuSans-48"/>
       <use x="211.035156" xlink:href="#DejaVuSans-48"/>
      </g>
     </g>
    </g>
    <g id="xtick_2">
     <g id="line2d_3">
      <g>
       <use style="stroke:#000000;stroke-width:0.8;" x="154.194604" xlink:href="#m6d9473645d" y="307.584"/>
      </g>
     </g>
     <g id="text_2">
      <!-- −200 -->
      <defs>
       <path d="M 19.1875 8.296875 
L 53.609375 8.296875 
L 53.609375 0 
L 7.328125 0 
L 7.328125 8.296875 
Q 12.9375 14.109375 22.625 23.890625 
Q 32.328125 33.6875 34.8125 36.53125 
Q 39.546875 41.84375 41.421875 45.53125 
Q 43.3125 49.21875 43.3125 52.78125 
Q 43.3125 58.59375 39.234375 62.25 
Q 35.15625 65.921875 28.609375 65.921875 
Q 23.96875 65.921875 18.8125 64.3125 
Q 13.671875 62.703125 7.8125 59.421875 
L 7.8125 69.390625 
Q 13.765625 71.78125 18.9375 73 
Q 24.125 74.21875 28.421875 74.21875 
Q 39.75 74.21875 46.484375 68.546875 
Q 53.21875 62.890625 53.21875 53.421875 
Q 53.21875 48.921875 51.53125 44.890625 
Q 49.859375 40.875 45.40625 35.40625 
Q 44.1875 33.984375 37.640625 27.21875 
Q 31.109375 20.453125 19.1875 8.296875 
z
" id="DejaVuSans-50"/>
      </defs>
      <g transform="translate(140.46101 322.182437)scale(0.1 -0.1)">
       <use xlink:href="#DejaVuSans-8722"/>
       <use x="83.789062" xlink:href="#DejaVuSans-50"/>
       <use x="147.412109" xlink:href="#DejaVuSans-48"/>
       <use x="211.035156" xlink:href="#DejaVuSans-48"/>
      </g>
     </g>
    </g>
    <g id="xtick_3">
     <g id="line2d_4">
      <g>
       <use style="stroke:#000000;stroke-width:0.8;" x="216.166362" xlink:href="#m6d9473645d" y="307.584"/>
      </g>
     </g>
     <g id="text_3">
      <!-- 0 -->
      <g transform="translate(212.985112 322.182437)scale(0.1 -0.1)">
       <use xlink:href="#DejaVuSans-48"/>
      </g>
     </g>
    </g>
    <g id="xtick_4">
     <g id="line2d_5">
      <g>
       <use style="stroke:#000000;stroke-width:0.8;" x="278.138119" xlink:href="#m6d9473645d" y="307.584"/>
      </g>
     </g>
     <g id="text_4">
      <!-- 200 -->
      <g transform="translate(268.594369 322.182437)scale(0.1 -0.1)">
       <use xlink:href="#DejaVuSans-50"/>
       <use x="63.623047" xlink:href="#DejaVuSans-48"/>
       <use x="127.246094" xlink:href="#DejaVuSans-48"/>
      </g>
     </g>
    </g>
    <g id="xtick_5">
     <g id="line2d_6">
      <g>
       <use style="stroke:#000000;stroke-width:0.8;" x="340.109877" xlink:href="#m6d9473645d" y="307.584"/>
      </g>
     </g>
     <g id="text_5">
      <!-- 400 -->
      <g transform="translate(330.566127 322.182437)scale(0.1 -0.1)">
       <use xlink:href="#DejaVuSans-52"/>
       <use x="63.623047" xlink:href="#DejaVuSans-48"/>
       <use x="127.246094" xlink:href="#DejaVuSans-48"/>
      </g>
     </g>
    </g>
    <g id="xtick_6">
     <g id="line2d_7">
      <g>
       <use style="stroke:#000000;stroke-width:0.8;" x="402.081635" xlink:href="#m6d9473645d" y="307.584"/>
      </g>
     </g>
     <g id="text_6">
      <!-- 600 -->
      <defs>
       <path d="M 33.015625 40.375 
Q 26.375 40.375 22.484375 35.828125 
Q 18.609375 31.296875 18.609375 23.390625 
Q 18.609375 15.53125 22.484375 10.953125 
Q 26.375 6.390625 33.015625 6.390625 
Q 39.65625 6.390625 43.53125 10.953125 
Q 47.40625 15.53125 47.40625 23.390625 
Q 47.40625 31.296875 43.53125 35.828125 
Q 39.65625 40.375 33.015625 40.375 
z
M 52.59375 71.296875 
L 52.59375 62.3125 
Q 48.875 64.0625 45.09375 64.984375 
Q 41.3125 65.921875 37.59375 65.921875 
Q 27.828125 65.921875 22.671875 59.328125 
Q 17.53125 52.734375 16.796875 39.40625 
Q 19.671875 43.65625 24.015625 45.921875 
Q 28.375 48.1875 33.59375 48.1875 
Q 44.578125 48.1875 50.953125 41.515625 
Q 57.328125 34.859375 57.328125 23.390625 
Q 57.328125 12.15625 50.6875 5.359375 
Q 44.046875 -1.421875 33.015625 -1.421875 
Q 20.359375 -1.421875 13.671875 8.265625 
Q 6.984375 17.96875 6.984375 36.375 
Q 6.984375 53.65625 15.1875 63.9375 
Q 23.390625 74.21875 37.203125 74.21875 
Q 40.921875 74.21875 44.703125 73.484375 
Q 48.484375 72.75 52.59375 71.296875 
z
" id="DejaVuSans-54"/>
      </defs>
      <g transform="translate(392.537885 322.182437)scale(0.1 -0.1)">
       <use xlink:href="#DejaVuSans-54"/>
       <use x="63.623047" xlink:href="#DejaVuSans-48"/>
       <use x="127.246094" xlink:href="#DejaVuSans-48"/>
      </g>
     </g>
    </g>
   </g>
   <g id="matplotlib.axis_2">
    <g id="ytick_1">
     <g id="line2d_8">
      <defs>
       <path d="M 0 0 
L -3.5 0 
" id="mc17fa3e963" style="stroke:#000000;stroke-width:0.8;"/>
      </defs>
      <g>
       <use style="stroke:#000000;stroke-width:0.8;" x="57.6" xlink:href="#mc17fa3e963" y="286.560874"/>
      </g>
     </g>
     <g id="text_7">
      <!-- −800 -->
      <defs>
       <path d="M 31.78125 34.625 
Q 24.75 34.625 20.71875 30.859375 
Q 16.703125 27.09375 16.703125 20.515625 
Q 16.703125 13.921875 20.71875 10.15625 
Q 24.75 6.390625 31.78125 6.390625 
Q 38.8125 6.390625 42.859375 10.171875 
Q 46.921875 13.96875 46.921875 20.515625 
Q 46.921875 27.09375 42.890625 30.859375 
Q 38.875 34.625 31.78125 34.625 
z
M 21.921875 38.8125 
Q 15.578125 40.375 12.03125 44.71875 
Q 8.5 49.078125 8.5 55.328125 
Q 8.5 64.0625 14.71875 69.140625 
Q 20.953125 74.21875 31.78125 74.21875 
Q 42.671875 74.21875 48.875 69.140625 
Q 55.078125 64.0625 55.078125 55.328125 
Q 55.078125 49.078125 51.53125 44.71875 
Q 48 40.375 41.703125 38.8125 
Q 48.828125 37.15625 52.796875 32.3125 
Q 56.78125 27.484375 56.78125 20.515625 
Q 56.78125 9.90625 50.3125 4.234375 
Q 43.84375 -1.421875 31.78125 -1.421875 
Q 19.734375 -1.421875 13.25 4.234375 
Q 6.78125 9.90625 6.78125 20.515625 
Q 6.78125 27.484375 10.78125 32.3125 
Q 14.796875 37.15625 21.921875 38.8125 
z
M 18.3125 54.390625 
Q 18.3125 48.734375 21.84375 45.5625 
Q 25.390625 42.390625 31.78125 42.390625 
Q 38.140625 42.390625 41.71875 45.5625 
Q 45.3125 48.734375 45.3125 54.390625 
Q 45.3125 60.0625 41.71875 63.234375 
Q 38.140625 66.40625 31.78125 66.40625 
Q 25.390625 66.40625 21.84375 63.234375 
Q 18.3125 60.0625 18.3125 54.390625 
z
" id="DejaVuSans-56"/>
      </defs>
      <g transform="translate(23.132812 290.360093)scale(0.1 -0.1)">
       <use xlink:href="#DejaVuSans-8722"/>
       <use x="83.789062" xlink:href="#DejaVuSans-56"/>
       <use x="147.412109" xlink:href="#DejaVuSans-48"/>
       <use x="211.035156" xlink:href="#DejaVuSans-48"/>
      </g>
     </g>
    </g>
    <g id="ytick_2">
     <g id="line2d_9">
      <g>
       <use style="stroke:#000000;stroke-width:0.8;" x="57.6" xlink:href="#mc17fa3e963" y="251.338441"/>
      </g>
     </g>
     <g id="text_8">
      <!-- −600 -->
      <g transform="translate(23.132812 255.13766)scale(0.1 -0.1)">
       <use xlink:href="#DejaVuSans-8722"/>
       <use x="83.789062" xlink:href="#DejaVuSans-54"/>
       <use x="147.412109" xlink:href="#DejaVuSans-48"/>
       <use x="211.035156" xlink:href="#DejaVuSans-48"/>
      </g>
     </g>
    </g>
    <g id="ytick_3">
     <g id="line2d_10">
      <g>
       <use style="stroke:#000000;stroke-width:0.8;" x="57.6" xlink:href="#mc17fa3e963" y="216.116008"/>
      </g>
     </g>
     <g id="text_9">
      <!-- −400 -->
      <g transform="translate(23.132812 219.915226)scale(0.1 -0.1)">
       <use xlink:href="#DejaVuSans-8722"/>
       <use x="83.789062" xlink:href="#DejaVuSans-52"/>
       <use x="147.412109" xlink:href="#DejaVuSans-48"/>
       <use x="211.035156" xlink:href="#DejaVuSans-48"/>
      </g>
     </g>
    </g>
    <g id="ytick_4">
     <g id="line2d_11">
      <g>
       <use style="stroke:#000000;stroke-width:0.8;" x="57.6" xlink:href="#mc17fa3e963" y="180.893574"/>
      </g>
     </g>
     <g id="text_10">
      <!-- −200 -->
      <g transform="translate(23.132812 184.692793)scale(0.1 -0.1)">
       <use xlink:href="#DejaVuSans-8722"/>
       <use x="83.789062" xlink:href="#DejaVuSans-50"/>
       <use x="147.412109" xlink:href="#DejaVuSans-48"/>
       <use x="211.035156" xlink:href="#DejaVuSans-48"/>
      </g>
     </g>
    </g>
    <g id="ytick_5">
     <g id="line2d_12">
      <g>
       <use style="stroke:#000000;stroke-width:0.8;" x="57.6" xlink:href="#mc17fa3e963" y="145.671141"/>
      </g>
     </g>
     <g id="text_11">
      <!-- 0 -->
      <g transform="translate(44.2375 149.47036)scale(0.1 -0.1)">
       <use xlink:href="#DejaVuSans-48"/>
      </g>
     </g>
    </g>
    <g id="ytick_6">
     <g id="line2d_13">
      <g>
       <use style="stroke:#000000;stroke-width:0.8;" x="57.6" xlink:href="#mc17fa3e963" y="110.448708"/>
      </g>
     </g>
     <g id="text_12">
      <!-- 200 -->
      <g transform="translate(31.5125 114.247926)scale(0.1 -0.1)">
       <use xlink:href="#DejaVuSans-50"/>
       <use x="63.623047" xlink:href="#DejaVuSans-48"/>
       <use x="127.246094" xlink:href="#DejaVuSans-48"/>
      </g>
     </g>
    </g>
    <g id="ytick_7">
     <g id="line2d_14">
      <g>
       <use style="stroke:#000000;stroke-width:0.8;" x="57.6" xlink:href="#mc17fa3e963" y="75.226274"/>
      </g>
     </g>
     <g id="text_13">
      <!-- 400 -->
      <g transform="translate(31.5125 79.025493)scale(0.1 -0.1)">
       <use xlink:href="#DejaVuSans-52"/>
       <use x="63.623047" xlink:href="#DejaVuSans-48"/>
       <use x="127.246094" xlink:href="#DejaVuSans-48"/>
      </g>
     </g>
    </g>
   </g>
   <g id="line2d_15">
    <path clip-path="url(#p33c072b47e)" d="M 394.6871 236.021979 
L 214.149442 206.147487 
L 152.084546 59.417493 
L 76.221258 272.251943 
L 78.775956 290.54481 
L 220.402451 270.236562 
L 228.116561 273.530228 
L 158.648745 78.02827 
L 165.388112 80.440418 
L 248.160438 236.095452 
L 243.294973 246.03016 
L 88.109446 269.483222 
" style="fill:none;stroke:#ff0000;stroke-linecap:square;stroke-width:0.5;"/>
   </g>
   <g id="patch_3">
    <path d="M 57.6 307.584 
L 57.6 41.472 
" style="fill:none;stroke:#000000;stroke-linecap:square;stroke-linejoin:miter;stroke-width:0.8;"/>
   </g>
   <g id="patch_4">
    <path d="M 414.72 307.584 
L 414.72 41.472 
" style="fill:none;stroke:#000000;stroke-linecap:square;stroke-linejoin:miter;stroke-width:0.8;"/>
   </g>
   <g id="patch_5">
    <path d="M 57.6 307.584 
L 414.72 307.584 
" style="fill:none;stroke:#000000;stroke-linecap:square;stroke-linejoin:miter;stroke-width:0.8;"/>
   </g>
   <g id="patch_6">
    <path d="M 57.6 41.472 
L 414.72 41.472 
" style="fill:none;stroke:#000000;stroke-linecap:square;stroke-linejoin:miter;stroke-width:0.8;"/>
   </g>
   <g id="PathCollection_1">
    <defs>
     <path d="M 0 2.738613 
C 0.726289 2.738613 1.422928 2.450055 1.936492 1.936492 
C 2.450055 1.422928 2.738613 0.726289 2.738613 0 
C 2.738613 -0.726289 2.450055 -1.422928 1.936492 -1.936492 
C 1.422928 -2.450055 0.726289 -2.738613 0 -2.738613 
C -0.726289 -2.738613 -1.422928 -2.450055 -1.936492 -1.936492 
C -2.450055 -1.422928 -2.738613 -0.726289 -2.738613 0 
C -2.738613 0.726289 -2.450055 1.422928 -1.936492 1.936492 
C -1.422928 2.450055 -0.726289 2.738613 0 2.738613 
z
" id="m1d7bcae879" style="stroke:#ff0000;"/>
    </defs>
    <g clip-path="url(#p33c072b47e)">
     <use style="fill:#ff0000;stroke:#ff0000;" x="394.6871" xlink:href="#m1d7bcae879" y="236.021979"/>
     <use style="fill:#ff0000;stroke:#ff0000;" x="214.149442" xlink:href="#m1d7bcae879" y="206.147487"/>
     <use style="fill:#ff0000;stroke:#ff0000;" x="152.084546" xlink:href="#m1d7bcae879" y="59.417493"/>
     <use style="fill:#ff0000;stroke:#ff0000;" x="76.221258" xlink:href="#m1d7bcae879" y="272.251943"/>
     <use style="fill:#ff0000;stroke:#ff0000;" x="78.775956" xlink:href="#m1d7bcae879" y="290.54481"/>
     <use style="fill:#ff0000;stroke:#ff0000;" x="220.402451" xlink:href="#m1d7bcae879" y="270.236562"/>
     <use style="fill:#ff0000;stroke:#ff0000;" x="228.116561" xlink:href="#m1d7bcae879" y="273.530228"/>
     <use style="fill:#ff0000;stroke:#ff0000;" x="158.648745" xlink:href="#m1d7bcae879" y="78.02827"/>
     <use style="fill:#ff0000;stroke:#ff0000;" x="165.388112" xlink:href="#m1d7bcae879" y="80.440418"/>
     <use style="fill:#ff0000;stroke:#ff0000;" x="248.160438" xlink:href="#m1d7bcae879" y="236.095452"/>
     <use style="fill:#ff0000;stroke:#ff0000;" x="243.294973" xlink:href="#m1d7bcae879" y="246.03016"/>
     <use style="fill:#ff0000;stroke:#ff0000;" x="88.109446" xlink:href="#m1d7bcae879" y="269.483222"/>
    </g>
   </g>
   <g id="text_14">
    <!-- (12) Subject: s27, Known = False, Degree = 2, Duration = 0.1 -->
    <defs>
     <path d="M 31 75.875 
Q 24.46875 64.65625 21.28125 53.65625 
Q 18.109375 42.671875 18.109375 31.390625 
Q 18.109375 20.125 21.3125 9.0625 
Q 24.515625 -2 31 -13.1875 
L 23.1875 -13.1875 
Q 15.875 -1.703125 12.234375 9.375 
Q 8.59375 20.453125 8.59375 31.390625 
Q 8.59375 42.28125 12.203125 53.3125 
Q 15.828125 64.359375 23.1875 75.875 
z
" id="DejaVuSans-40"/>
     <path d="M 12.40625 8.296875 
L 28.515625 8.296875 
L 28.515625 63.921875 
L 10.984375 60.40625 
L 10.984375 69.390625 
L 28.421875 72.90625 
L 38.28125 72.90625 
L 38.28125 8.296875 
L 54.390625 8.296875 
L 54.390625 0 
L 12.40625 0 
z
" id="DejaVuSans-49"/>
     <path d="M 8.015625 75.875 
L 15.828125 75.875 
Q 23.140625 64.359375 26.78125 53.3125 
Q 30.421875 42.28125 30.421875 31.390625 
Q 30.421875 20.453125 26.78125 9.375 
Q 23.140625 -1.703125 15.828125 -13.1875 
L 8.015625 -13.1875 
Q 14.5 -2 17.703125 9.0625 
Q 20.90625 20.125 20.90625 31.390625 
Q 20.90625 42.671875 17.703125 53.65625 
Q 14.5 64.65625 8.015625 75.875 
z
" id="DejaVuSans-41"/>
     <path id="DejaVuSans-32"/>
     <path d="M 53.515625 70.515625 
L 53.515625 60.890625 
Q 47.90625 63.578125 42.921875 64.890625 
Q 37.9375 66.21875 33.296875 66.21875 
Q 25.25 66.21875 20.875 63.09375 
Q 16.5 59.96875 16.5 54.203125 
Q 16.5 49.359375 19.40625 46.890625 
Q 22.3125 44.4375 30.421875 42.921875 
L 36.375 41.703125 
Q 47.40625 39.59375 52.65625 34.296875 
Q 57.90625 29 57.90625 20.125 
Q 57.90625 9.515625 50.796875 4.046875 
Q 43.703125 -1.421875 29.984375 -1.421875 
Q 24.8125 -1.421875 18.96875 -0.25 
Q 13.140625 0.921875 6.890625 3.21875 
L 6.890625 13.375 
Q 12.890625 10.015625 18.65625 8.296875 
Q 24.421875 6.59375 29.984375 6.59375 
Q 38.421875 6.59375 43.015625 9.90625 
Q 47.609375 13.234375 47.609375 19.390625 
Q 47.609375 24.75 44.3125 27.78125 
Q 41.015625 30.8125 33.5 32.328125 
L 27.484375 33.5 
Q 16.453125 35.6875 11.515625 40.375 
Q 6.59375 45.0625 6.59375 53.421875 
Q 6.59375 63.09375 13.40625 68.65625 
Q 20.21875 74.21875 32.171875 74.21875 
Q 37.3125 74.21875 42.625 73.28125 
Q 47.953125 72.359375 53.515625 70.515625 
z
" id="DejaVuSans-83"/>
     <path d="M 8.5 21.578125 
L 8.5 54.6875 
L 17.484375 54.6875 
L 17.484375 21.921875 
Q 17.484375 14.15625 20.5 10.265625 
Q 23.53125 6.390625 29.59375 6.390625 
Q 36.859375 6.390625 41.078125 11.03125 
Q 45.3125 15.671875 45.3125 23.6875 
L 45.3125 54.6875 
L 54.296875 54.6875 
L 54.296875 0 
L 45.3125 0 
L 45.3125 8.40625 
Q 42.046875 3.421875 37.71875 1 
Q 33.40625 -1.421875 27.6875 -1.421875 
Q 18.265625 -1.421875 13.375 4.4375 
Q 8.5 10.296875 8.5 21.578125 
z
M 31.109375 56 
z
" id="DejaVuSans-117"/>
     <path d="M 48.6875 27.296875 
Q 48.6875 37.203125 44.609375 42.84375 
Q 40.53125 48.484375 33.40625 48.484375 
Q 26.265625 48.484375 22.1875 42.84375 
Q 18.109375 37.203125 18.109375 27.296875 
Q 18.109375 17.390625 22.1875 11.75 
Q 26.265625 6.109375 33.40625 6.109375 
Q 40.53125 6.109375 44.609375 11.75 
Q 48.6875 17.390625 48.6875 27.296875 
z
M 18.109375 46.390625 
Q 20.953125 51.265625 25.265625 53.625 
Q 29.59375 56 35.59375 56 
Q 45.5625 56 51.78125 48.09375 
Q 58.015625 40.1875 58.015625 27.296875 
Q 58.015625 14.40625 51.78125 6.484375 
Q 45.5625 -1.421875 35.59375 -1.421875 
Q 29.59375 -1.421875 25.265625 0.953125 
Q 20.953125 3.328125 18.109375 8.203125 
L 18.109375 0 
L 9.078125 0 
L 9.078125 75.984375 
L 18.109375 75.984375 
z
" id="DejaVuSans-98"/>
     <path d="M 9.421875 54.6875 
L 18.40625 54.6875 
L 18.40625 -0.984375 
Q 18.40625 -11.421875 14.421875 -16.109375 
Q 10.453125 -20.796875 1.609375 -20.796875 
L -1.8125 -20.796875 
L -1.8125 -13.1875 
L 0.59375 -13.1875 
Q 5.71875 -13.1875 7.5625 -10.8125 
Q 9.421875 -8.453125 9.421875 -0.984375 
z
M 9.421875 75.984375 
L 18.40625 75.984375 
L 18.40625 64.59375 
L 9.421875 64.59375 
z
" id="DejaVuSans-106"/>
     <path d="M 56.203125 29.59375 
L 56.203125 25.203125 
L 14.890625 25.203125 
Q 15.484375 15.921875 20.484375 11.0625 
Q 25.484375 6.203125 34.421875 6.203125 
Q 39.59375 6.203125 44.453125 7.46875 
Q 49.3125 8.734375 54.109375 11.28125 
L 54.109375 2.78125 
Q 49.265625 0.734375 44.1875 -0.34375 
Q 39.109375 -1.421875 33.890625 -1.421875 
Q 20.796875 -1.421875 13.15625 6.1875 
Q 5.515625 13.8125 5.515625 26.8125 
Q 5.515625 40.234375 12.765625 48.109375 
Q 20.015625 56 32.328125 56 
Q 43.359375 56 49.78125 48.890625 
Q 56.203125 41.796875 56.203125 29.59375 
z
M 47.21875 32.234375 
Q 47.125 39.59375 43.09375 43.984375 
Q 39.0625 48.390625 32.421875 48.390625 
Q 24.90625 48.390625 20.390625 44.140625 
Q 15.875 39.890625 15.1875 32.171875 
z
" id="DejaVuSans-101"/>
     <path d="M 48.78125 52.59375 
L 48.78125 44.1875 
Q 44.96875 46.296875 41.140625 47.34375 
Q 37.3125 48.390625 33.40625 48.390625 
Q 24.65625 48.390625 19.8125 42.84375 
Q 14.984375 37.3125 14.984375 27.296875 
Q 14.984375 17.28125 19.8125 11.734375 
Q 24.65625 6.203125 33.40625 6.203125 
Q 37.3125 6.203125 41.140625 7.25 
Q 44.96875 8.296875 48.78125 10.40625 
L 48.78125 2.09375 
Q 45.015625 0.34375 40.984375 -0.53125 
Q 36.96875 -1.421875 32.421875 -1.421875 
Q 20.0625 -1.421875 12.78125 6.34375 
Q 5.515625 14.109375 5.515625 27.296875 
Q 5.515625 40.671875 12.859375 48.328125 
Q 20.21875 56 33.015625 56 
Q 37.15625 56 41.109375 55.140625 
Q 45.0625 54.296875 48.78125 52.59375 
z
" id="DejaVuSans-99"/>
     <path d="M 18.3125 70.21875 
L 18.3125 54.6875 
L 36.8125 54.6875 
L 36.8125 47.703125 
L 18.3125 47.703125 
L 18.3125 18.015625 
Q 18.3125 11.328125 20.140625 9.421875 
Q 21.96875 7.515625 27.59375 7.515625 
L 36.8125 7.515625 
L 36.8125 0 
L 27.59375 0 
Q 17.1875 0 13.234375 3.875 
Q 9.28125 7.765625 9.28125 18.015625 
L 9.28125 47.703125 
L 2.6875 47.703125 
L 2.6875 54.6875 
L 9.28125 54.6875 
L 9.28125 70.21875 
z
" id="DejaVuSans-116"/>
     <path d="M 11.71875 12.40625 
L 22.015625 12.40625 
L 22.015625 0 
L 11.71875 0 
z
M 11.71875 51.703125 
L 22.015625 51.703125 
L 22.015625 39.3125 
L 11.71875 39.3125 
z
" id="DejaVuSans-58"/>
     <path d="M 44.28125 53.078125 
L 44.28125 44.578125 
Q 40.484375 46.53125 36.375 47.5 
Q 32.28125 48.484375 27.875 48.484375 
Q 21.1875 48.484375 17.84375 46.4375 
Q 14.5 44.390625 14.5 40.28125 
Q 14.5 37.15625 16.890625 35.375 
Q 19.28125 33.59375 26.515625 31.984375 
L 29.59375 31.296875 
Q 39.15625 29.25 43.1875 25.515625 
Q 47.21875 21.78125 47.21875 15.09375 
Q 47.21875 7.46875 41.1875 3.015625 
Q 35.15625 -1.421875 24.609375 -1.421875 
Q 20.21875 -1.421875 15.453125 -0.5625 
Q 10.6875 0.296875 5.421875 2 
L 5.421875 11.28125 
Q 10.40625 8.6875 15.234375 7.390625 
Q 20.0625 6.109375 24.8125 6.109375 
Q 31.15625 6.109375 34.5625 8.28125 
Q 37.984375 10.453125 37.984375 14.40625 
Q 37.984375 18.0625 35.515625 20.015625 
Q 33.0625 21.96875 24.703125 23.78125 
L 21.578125 24.515625 
Q 13.234375 26.265625 9.515625 29.90625 
Q 5.8125 33.546875 5.8125 39.890625 
Q 5.8125 47.609375 11.28125 51.796875 
Q 16.75 56 26.8125 56 
Q 31.78125 56 36.171875 55.265625 
Q 40.578125 54.546875 44.28125 53.078125 
z
" id="DejaVuSans-115"/>
     <path d="M 8.203125 72.90625 
L 55.078125 72.90625 
L 55.078125 68.703125 
L 28.609375 0 
L 18.3125 0 
L 43.21875 64.59375 
L 8.203125 64.59375 
z
" id="DejaVuSans-55"/>
     <path d="M 11.71875 12.40625 
L 22.015625 12.40625 
L 22.015625 4 
L 14.015625 -11.625 
L 7.71875 -11.625 
L 11.71875 4 
z
" id="DejaVuSans-44"/>
     <path d="M 9.8125 72.90625 
L 19.671875 72.90625 
L 19.671875 42.09375 
L 52.390625 72.90625 
L 65.09375 72.90625 
L 28.90625 38.921875 
L 67.671875 0 
L 54.6875 0 
L 19.671875 35.109375 
L 19.671875 0 
L 9.8125 0 
z
" id="DejaVuSans-75"/>
     <path d="M 54.890625 33.015625 
L 54.890625 0 
L 45.90625 0 
L 45.90625 32.71875 
Q 45.90625 40.484375 42.875 44.328125 
Q 39.84375 48.1875 33.796875 48.1875 
Q 26.515625 48.1875 22.3125 43.546875 
Q 18.109375 38.921875 18.109375 30.90625 
L 18.109375 0 
L 9.078125 0 
L 9.078125 54.6875 
L 18.109375 54.6875 
L 18.109375 46.1875 
Q 21.34375 51.125 25.703125 53.5625 
Q 30.078125 56 35.796875 56 
Q 45.21875 56 50.046875 50.171875 
Q 54.890625 44.34375 54.890625 33.015625 
z
" id="DejaVuSans-110"/>
     <path d="M 30.609375 48.390625 
Q 23.390625 48.390625 19.1875 42.75 
Q 14.984375 37.109375 14.984375 27.296875 
Q 14.984375 17.484375 19.15625 11.84375 
Q 23.34375 6.203125 30.609375 6.203125 
Q 37.796875 6.203125 41.984375 11.859375 
Q 46.1875 17.53125 46.1875 27.296875 
Q 46.1875 37.015625 41.984375 42.703125 
Q 37.796875 48.390625 30.609375 48.390625 
z
M 30.609375 56 
Q 42.328125 56 49.015625 48.375 
Q 55.71875 40.765625 55.71875 27.296875 
Q 55.71875 13.875 49.015625 6.21875 
Q 42.328125 -1.421875 30.609375 -1.421875 
Q 18.84375 -1.421875 12.171875 6.21875 
Q 5.515625 13.875 5.515625 27.296875 
Q 5.515625 40.765625 12.171875 48.375 
Q 18.84375 56 30.609375 56 
z
" id="DejaVuSans-111"/>
     <path d="M 4.203125 54.6875 
L 13.1875 54.6875 
L 24.421875 12.015625 
L 35.59375 54.6875 
L 46.1875 54.6875 
L 57.421875 12.015625 
L 68.609375 54.6875 
L 77.59375 54.6875 
L 63.28125 0 
L 52.6875 0 
L 40.921875 44.828125 
L 29.109375 0 
L 18.5 0 
z
" id="DejaVuSans-119"/>
     <path d="M 10.59375 45.40625 
L 73.1875 45.40625 
L 73.1875 37.203125 
L 10.59375 37.203125 
z
M 10.59375 25.484375 
L 73.1875 25.484375 
L 73.1875 17.1875 
L 10.59375 17.1875 
z
" id="DejaVuSans-61"/>
     <path d="M 9.8125 72.90625 
L 51.703125 72.90625 
L 51.703125 64.59375 
L 19.671875 64.59375 
L 19.671875 43.109375 
L 48.578125 43.109375 
L 48.578125 34.8125 
L 19.671875 34.8125 
L 19.671875 0 
L 9.8125 0 
z
" id="DejaVuSans-70"/>
     <path d="M 34.28125 27.484375 
Q 23.390625 27.484375 19.1875 25 
Q 14.984375 22.515625 14.984375 16.5 
Q 14.984375 11.71875 18.140625 8.90625 
Q 21.296875 6.109375 26.703125 6.109375 
Q 34.1875 6.109375 38.703125 11.40625 
Q 43.21875 16.703125 43.21875 25.484375 
L 43.21875 27.484375 
z
M 52.203125 31.203125 
L 52.203125 0 
L 43.21875 0 
L 43.21875 8.296875 
Q 40.140625 3.328125 35.546875 0.953125 
Q 30.953125 -1.421875 24.3125 -1.421875 
Q 15.921875 -1.421875 10.953125 3.296875 
Q 6 8.015625 6 15.921875 
Q 6 25.140625 12.171875 29.828125 
Q 18.359375 34.515625 30.609375 34.515625 
L 43.21875 34.515625 
L 43.21875 35.40625 
Q 43.21875 41.609375 39.140625 45 
Q 35.0625 48.390625 27.6875 48.390625 
Q 23 48.390625 18.546875 47.265625 
Q 14.109375 46.140625 10.015625 43.890625 
L 10.015625 52.203125 
Q 14.9375 54.109375 19.578125 55.046875 
Q 24.21875 56 28.609375 56 
Q 40.484375 56 46.34375 49.84375 
Q 52.203125 43.703125 52.203125 31.203125 
z
" id="DejaVuSans-97"/>
     <path d="M 9.421875 75.984375 
L 18.40625 75.984375 
L 18.40625 0 
L 9.421875 0 
z
" id="DejaVuSans-108"/>
     <path d="M 19.671875 64.796875 
L 19.671875 8.109375 
L 31.59375 8.109375 
Q 46.6875 8.109375 53.6875 14.9375 
Q 60.6875 21.78125 60.6875 36.53125 
Q 60.6875 51.171875 53.6875 57.984375 
Q 46.6875 64.796875 31.59375 64.796875 
z
M 9.8125 72.90625 
L 30.078125 72.90625 
Q 51.265625 72.90625 61.171875 64.09375 
Q 71.09375 55.28125 71.09375 36.53125 
Q 71.09375 17.671875 61.125 8.828125 
Q 51.171875 0 30.078125 0 
L 9.8125 0 
z
" id="DejaVuSans-68"/>
     <path d="M 45.40625 27.984375 
Q 45.40625 37.75 41.375 43.109375 
Q 37.359375 48.484375 30.078125 48.484375 
Q 22.859375 48.484375 18.828125 43.109375 
Q 14.796875 37.75 14.796875 27.984375 
Q 14.796875 18.265625 18.828125 12.890625 
Q 22.859375 7.515625 30.078125 7.515625 
Q 37.359375 7.515625 41.375 12.890625 
Q 45.40625 18.265625 45.40625 27.984375 
z
M 54.390625 6.78125 
Q 54.390625 -7.171875 48.1875 -13.984375 
Q 42 -20.796875 29.203125 -20.796875 
Q 24.46875 -20.796875 20.265625 -20.09375 
Q 16.0625 -19.390625 12.109375 -17.921875 
L 12.109375 -9.1875 
Q 16.0625 -11.328125 19.921875 -12.34375 
Q 23.78125 -13.375 27.78125 -13.375 
Q 36.625 -13.375 41.015625 -8.765625 
Q 45.40625 -4.15625 45.40625 5.171875 
L 45.40625 9.625 
Q 42.625 4.78125 38.28125 2.390625 
Q 33.9375 0 27.875 0 
Q 17.828125 0 11.671875 7.65625 
Q 5.515625 15.328125 5.515625 27.984375 
Q 5.515625 40.671875 11.671875 48.328125 
Q 17.828125 56 27.875 56 
Q 33.9375 56 38.28125 53.609375 
Q 42.625 51.21875 45.40625 46.390625 
L 45.40625 54.6875 
L 54.390625 54.6875 
z
" id="DejaVuSans-103"/>
     <path d="M 41.109375 46.296875 
Q 39.59375 47.171875 37.8125 47.578125 
Q 36.03125 48 33.890625 48 
Q 26.265625 48 22.1875 43.046875 
Q 18.109375 38.09375 18.109375 28.8125 
L 18.109375 0 
L 9.078125 0 
L 9.078125 54.6875 
L 18.109375 54.6875 
L 18.109375 46.1875 
Q 20.953125 51.171875 25.484375 53.578125 
Q 30.03125 56 36.53125 56 
Q 37.453125 56 38.578125 55.875 
Q 39.703125 55.765625 41.0625 55.515625 
z
" id="DejaVuSans-114"/>
     <path d="M 9.421875 54.6875 
L 18.40625 54.6875 
L 18.40625 0 
L 9.421875 0 
z
M 9.421875 75.984375 
L 18.40625 75.984375 
L 18.40625 64.59375 
L 9.421875 64.59375 
z
" id="DejaVuSans-105"/>
     <path d="M 10.6875 12.40625 
L 21 12.40625 
L 21 0 
L 10.6875 0 
z
" id="DejaVuSans-46"/>
    </defs>
    <g transform="translate(49.741875 35.472)scale(0.12 -0.12)">
     <use xlink:href="#DejaVuSans-40"/>
     <use x="39.013672" xlink:href="#DejaVuSans-49"/>
     <use x="102.636719" xlink:href="#DejaVuSans-50"/>
     <use x="166.259766" xlink:href="#DejaVuSans-41"/>
     <use x="205.273438" xlink:href="#DejaVuSans-32"/>
     <use x="237.060547" xlink:href="#DejaVuSans-83"/>
     <use x="300.537109" xlink:href="#DejaVuSans-117"/>
     <use x="363.916016" xlink:href="#DejaVuSans-98"/>
     <use x="427.392578" xlink:href="#DejaVuSans-106"/>
     <use x="455.175781" xlink:href="#DejaVuSans-101"/>
     <use x="516.699219" xlink:href="#DejaVuSans-99"/>
     <use x="571.679688" xlink:href="#DejaVuSans-116"/>
     <use x="610.888672" xlink:href="#DejaVuSans-58"/>
     <use x="644.580078" xlink:href="#DejaVuSans-32"/>
     <use x="676.367188" xlink:href="#DejaVuSans-115"/>
     <use x="728.466797" xlink:href="#DejaVuSans-50"/>
     <use x="792.089844" xlink:href="#DejaVuSans-55"/>
     <use x="855.712891" xlink:href="#DejaVuSans-44"/>
     <use x="887.5" xlink:href="#DejaVuSans-32"/>
     <use x="919.287109" xlink:href="#DejaVuSans-75"/>
     <use x="984.863281" xlink:href="#DejaVuSans-110"/>
     <use x="1048.242188" xlink:href="#DejaVuSans-111"/>
     <use x="1109.423828" xlink:href="#DejaVuSans-119"/>
     <use x="1191.210938" xlink:href="#DejaVuSans-110"/>
     <use x="1254.589844" xlink:href="#DejaVuSans-32"/>
     <use x="1286.376953" xlink:href="#DejaVuSans-61"/>
     <use x="1370.166016" xlink:href="#DejaVuSans-32"/>
     <use x="1401.953125" xlink:href="#DejaVuSans-70"/>
     <use x="1459.332031" xlink:href="#DejaVuSans-97"/>
     <use x="1520.611328" xlink:href="#DejaVuSans-108"/>
     <use x="1548.394531" xlink:href="#DejaVuSans-115"/>
     <use x="1600.494141" xlink:href="#DejaVuSans-101"/>
     <use x="1662.017578" xlink:href="#DejaVuSans-44"/>
     <use x="1693.804688" xlink:href="#DejaVuSans-32"/>
     <use x="1725.591797" xlink:href="#DejaVuSans-68"/>
     <use x="1802.59375" xlink:href="#DejaVuSans-101"/>
     <use x="1864.117188" xlink:href="#DejaVuSans-103"/>
     <use x="1927.59375" xlink:href="#DejaVuSans-114"/>
     <use x="1968.675781" xlink:href="#DejaVuSans-101"/>
     <use x="2030.199219" xlink:href="#DejaVuSans-101"/>
     <use x="2091.722656" xlink:href="#DejaVuSans-32"/>
     <use x="2123.509766" xlink:href="#DejaVuSans-61"/>
     <use x="2207.298828" xlink:href="#DejaVuSans-32"/>
     <use x="2239.085938" xlink:href="#DejaVuSans-50"/>
     <use x="2302.708984" xlink:href="#DejaVuSans-44"/>
     <use x="2334.496094" xlink:href="#DejaVuSans-32"/>
     <use x="2366.283203" xlink:href="#DejaVuSans-68"/>
     <use x="2443.285156" xlink:href="#DejaVuSans-117"/>
     <use x="2506.664062" xlink:href="#DejaVuSans-114"/>
     <use x="2547.777344" xlink:href="#DejaVuSans-97"/>
     <use x="2609.056641" xlink:href="#DejaVuSans-116"/>
     <use x="2648.265625" xlink:href="#DejaVuSans-105"/>
     <use x="2676.048828" xlink:href="#DejaVuSans-111"/>
     <use x="2737.230469" xlink:href="#DejaVuSans-110"/>
     <use x="2800.609375" xlink:href="#DejaVuSans-32"/>
     <use x="2832.396484" xlink:href="#DejaVuSans-61"/>
     <use x="2916.185547" xlink:href="#DejaVuSans-32"/>
     <use x="2947.972656" xlink:href="#DejaVuSans-48"/>
     <use x="3011.595703" xlink:href="#DejaVuSans-46"/>
     <use x="3043.382812" xlink:href="#DejaVuSans-49"/>
    </g>
   </g>
  </g>
 </g>
 <defs>
  <clipPath id="p33c072b47e">
   <rect height="266.112" width="357.12" x="57.6" y="41.472"/>
  </clipPath>
 </defs>
</svg>
