<?xml version="1.0" encoding="utf-8" standalone="no"?>
<!DOCTYPE svg PUBLIC "-//W3C//DTD SVG 1.1//EN"
  "http://www.w3.org/Graphics/SVG/1.1/DTD/svg11.dtd">
<!-- Created with matplotlib (https://matplotlib.org/) -->
<svg height="345.6pt" version="1.1" viewBox="0 0 460.8 345.6" width="460.8pt" xmlns="http://www.w3.org/2000/svg" xmlns:xlink="http://www.w3.org/1999/xlink">
 <defs>
  <style type="text/css">
*{stroke-linecap:butt;stroke-linejoin:round;}
  </style>
 </defs>
 <g id="figure_1">
  <g id="patch_1">
   <path d="M 0 345.6 
L 460.8 345.6 
L 460.8 0 
L 0 0 
z
" style="fill:#ffffff;"/>
  </g>
  <g id="axes_1">
   <g id="patch_2">
    <path d="M 57.6 307.584 
L 414.72 307.584 
L 414.72 41.472 
L 57.6 41.472 
z
" style="fill:#ffffff;"/>
   </g>
   <g id="line2d_1">
    <path clip-path="url(#p9d2ba916f0)" d="M 397.778839 231.30871 
L 398.251128 230.075613 
L 398.487273 231.30871 
L 398.487273 233.774903 
L 398.014984 235.008 
L 398.014984 223.900419 
L 398.014984 225.133516 
L 397.778839 227.609419 
L 397.303402 228.842516 
L 396.594968 231.30871 
L 396.12268 232.541806 
L 395.886535 232.541806 
L 396.12268 232.541806 
L 396.358824 235.008 
L 396.831113 235.008 
L 396.831113 233.774903 
L 396.594968 232.541806 
L 396.12268 231.30871 
L 395.886535 231.30871 
L 396.594968 235.008 
L 396.594968 236.241097 
L 396.12268 233.774903 
L 395.886535 233.774903 
L 395.886535 233.774903 
L 395.650391 236.241097 
L 395.414246 236.241097 
L 395.178102 237.483903 
L 395.414246 237.483903 
L 395.414246 237.483903 
L 395.414246 239.950097 
L 395.650391 241.183193 
L 395.414246 239.950097 
L 395.650391 237.483903 
L 396.12268 237.483903 
L 396.358824 238.717 
L 395.886535 242.41629 
L 395.414246 244.882484 
L 395.650391 244.882484 
L 395.886535 243.649387 
L 395.650391 243.649387 
L 395.178102 246.115581 
L 394.705813 247.358387 
L 394.233524 247.358387 
L 393.997379 244.882484 
L 394.469668 244.882484 
L 394.705813 246.115581 
L 394.469668 248.591484 
L 393.997379 251.057677 
L 394.233524 249.824581 
L 393.761235 248.591484 
L 393.761235 249.824581 
L 393.997379 251.057677 
L 394.469668 252.290774 
L 394.233524 255.990065 
L 394.705813 262.165258 
L 394.233524 263.398355 
L 393.761235 263.398355 
L 393.288946 260.932161 
L 393.288946 262.165258 
L 393.525091 263.398355 
L 393.761235 260.932161 
L 393.761235 259.699064 
L 393.525091 260.932161 
L 393.288946 263.398355 
L 393.052802 264.631452 
L 393.052802 265.864548 
L 393.288946 265.864548 
L 393.525091 264.631452 
L 393.288946 264.631452 
L 393.288946 272.039742 
L 392.816657 269.573548 
L 392.816657 267.107355 
L 393.052802 265.864548 
L 393.052802 265.864548 
L 392.816657 265.864548 
L 392.580513 269.573548 
L 392.816657 272.039742 
L 393.288946 273.272839 
L 393.052802 272.039742 
L 393.052802 272.039742 
L 392.816657 274.505935 
L 392.105075 278.214935 
L 392.105075 280.681129 
L 392.344368 278.214935 
L 392.816657 275.739032 
L 393.052802 273.272839 
L 393.288946 272.039742 
L 393.525091 273.272839 
L 393.525091 275.739032 
L 392.816657 279.448032 
L 392.580513 283.147323 
L 392.105075 285.613516 
L 391.632786 285.613516 
L 391.632786 284.380419 
L 391.868931 283.147323 
L 392.105075 283.147323 
L 392.105075 284.380419 
L 392.344368 286.856322 
L 392.344368 286.856322 
L 391.868931 286.856322 
L 391.396642 288.089419 
L 391.632786 289.322516 
L 391.632786 290.555613 
L 391.396642 290.555613 
L 391.160497 289.322516 
L 391.396642 289.322516 
L 391.868931 286.856322 
L 392.344368 285.613516 
L 392.344368 288.089419 
L 392.105075 291.78871 
L 392.105075 294.254903 
L 391.868931 294.254903 
L 391.396642 289.322516 
L 390.924353 289.322516 
L 391.160497 286.856322 
L 391.160497 285.613516 
L 391.160497 290.555613 
L 391.160497 290.555613 
L 391.396642 289.322516 
L 391.868931 288.089419 
L 391.868931 293.021806 
L 392.105075 293.021806 
L 392.580513 291.78871 
L 392.344368 293.021806 
L 391.868931 294.254903 
L 391.160497 294.254903 
L 390.688209 291.78871 
L 391.160497 294.254903 
L 391.632786 294.254903 
L 391.632786 295.488 
L 391.868931 295.488 
L 392.344368 290.555613 
L 392.105075 290.555613 
L 391.396642 291.78871 
L 391.160497 289.322516 
L 391.632786 288.089419 
L 391.632786 289.322516 
L 391.160497 291.78871 
L 390.688209 290.555613 
L 390.688209 288.089419 
L 390.924353 284.380419 
L 391.160497 284.380419 
L 391.396642 286.856322 
L 391.160497 286.856322 
L 390.924353 283.147323 
L 390.924353 280.681129 
L 391.160497 280.681129 
L 391.160497 281.914226 
L 391.632786 276.981838 
L 391.632786 272.039742 
L 391.868931 273.272839 
L 392.105075 278.214935 
L 392.105075 275.739032 
L 392.105075 272.039742 
L 391.632786 269.573548 
L 391.160497 268.340451 
L 391.396642 267.107355 
L 391.632786 264.631452 
L 390.924353 264.631452 
L 390.924353 264.631452 
L 391.160497 263.398355 
L 391.160497 258.465968 
L 391.396642 259.699064 
L 391.868931 259.699064 
L 391.868931 259.699064 
L 391.396642 258.465968 
L 390.688209 253.523871 
L 390.452064 254.756968 
L 389.979775 255.990065 
L 389.743631 253.523871 
L 389.271342 251.057677 
L 387.854475 249.824581 
L 385.962171 248.591484 
L 384.073015 251.057677 
L 381.947715 252.290774 
L 378.638544 252.290774 
L 374.384795 249.824581 
L 370.367191 247.358387 
L 365.880446 248.591484 
L 360.445975 248.591484 
L 354.063778 244.882484 
L 347.21244 238.717 
L 340.124958 235.008 
L 332.562038 233.774903 
L 325.002267 233.774903 
L 317.67864 235.008 
L 302.555949 235.008 
L 294.99303 233.774903 
L 287.197114 231.30871 
L 279.161905 227.609419 
L 271.36599 225.133516 
L 256.479443 222.667323 
L 249.155817 223.900419 
L 241.829041 223.900419 
L 234.741559 220.201129 
L 228.126366 216.492129 
L 213.948253 214.025935 
L 206.86077 210.326645 
L 193.627235 205.384548 
L 186.775897 201.685258 
L 180.160704 197.985968 
L 174.017799 196.752871 
L 168.347184 196.752871 
L 156.058227 194.276968 
L 144.244707 191.810774 
L 139.04638 193.043871 
L 124.395978 193.043871 
L 119.673089 194.276968 
L 115.41934 193.043871 
L 111.874025 190.577677 
L 109.040291 189.344581 
L 105.967265 189.344581 
L 103.366527 190.577677 
L 101.477371 191.810774 
L 100.532794 195.510065 
L 100.296649 200.452161 
L 99.82436 204.151452 
L 99.352071 205.384548 
L 99.352071 205.384548 
L 99.82436 205.384548 
L 100.296649 204.151452 
L 101.005083 204.151452 
L 101.94966 205.384548 
L 102.658094 207.860451 
L 103.60582 210.326645 
L 104.078109 212.792839 
L 104.550398 212.792839 
L 105.022687 210.326645 
L 105.022687 209.093548 
L 104.550398 210.326645 
L 104.550398 209.093548 
L 104.786542 207.860451 
L 104.786542 207.860451 
L 103.60582 207.860451 
L 103.130383 209.093548 
L 102.894238 210.326645 
L 102.894238 210.326645 
L 102.658094 210.326645 
L 102.658094 210.326645 
L 102.658094 209.093548 
L 102.421949 209.093548 
L 102.185805 210.326645 
L 101.94966 210.326645 
L 101.94966 209.093548 
L 101.713516 209.093548 
L 101.477371 210.326645 
L 101.241227 210.326645 
L 101.477371 209.093548 
L 101.477371 209.093548 
L 101.005083 210.326645 
L 100.768938 211.559742 
L 100.768938 210.326645 
L 101.005083 207.860451 
L 101.477371 209.093548 
L 101.713516 210.326645 
L 101.713516 211.559742 
L 101.713516 207.860451 
L 101.477371 206.617645 
L 101.713516 206.617645 
L 101.713516 209.093548 
L 100.296649 209.093548 
L 100.296649 212.792839 
L 100.296649 212.792839 
L 101.005083 209.093548 
L 101.241227 209.093548 
L 101.241227 212.792839 
L 101.005083 214.025935 
L 100.768938 211.559742 
L 100.768938 212.792839 
L 101.005083 216.492129 
L 101.477371 220.201129 
L 101.477371 218.968032 
L 101.713516 216.492129 
L 101.477371 215.259032 
L 100.532794 215.259032 
L 100.296649 217.734935 
L 100.296649 222.667323 
L 100.060505 218.968032 
L 100.296649 216.492129 
L 100.532794 216.492129 
L 100.296649 216.492129 
L 100.296649 215.259032 
L 100.296649 215.259032 
L 100.060505 216.492129 
L 100.296649 215.259032 
L 100.532794 215.259032 
L 100.532794 216.492129 
L 100.532794 216.492129 
L 100.060505 218.968032 
L 100.532794 216.492129 
L 100.532794 218.968032 
L 101.241227 222.667323 
L 100.768938 223.900419 
L 100.532794 223.900419 
L 100.532794 223.900419 
L 101.241227 225.133516 
L 101.713516 223.900419 
L 101.94966 223.900419 
L 101.713516 226.366613 
L 101.713516 226.366613 
L 101.713516 225.133516 
L 100.532794 230.075613 
L 101.005083 230.075613 
L 101.241227 232.541806 
L 101.005083 235.008 
L 101.005083 235.008 
L 101.241227 235.008 
L 101.477371 236.241097 
L 101.713516 236.241097 
L 101.477371 235.008 
L 101.241227 232.541806 
L 101.241227 231.30871 
L 101.005083 230.075613 
L 100.768938 227.609419 
L 100.532794 226.366613 
L 100.532794 225.133516 
L 101.005083 222.667323 
L 101.005083 222.667323 
L 101.241227 222.667323 
L 101.713516 225.133516 
L 101.713516 226.366613 
L 100.532794 226.366613 
L 100.532794 226.366613 
L 100.532794 225.133516 
L 100.768938 222.667323 
L 101.477371 221.434226 
L 101.713516 222.667323 
L 100.296649 222.667323 
L 100.532794 220.201129 
L 101.005083 218.968032 
L 101.241227 216.492129 
L 101.713516 215.259032 
L 102.185805 215.259032 
L 102.185805 220.201129 
L 101.94966 220.201129 
L 101.713516 218.968032 
L 101.477371 218.968032 
L 101.94966 220.201129 
L 102.185805 221.434226 
L 101.94966 220.201129 
L 101.713516 216.492129 
L 101.94966 214.025935 
L 102.185805 212.792839 
L 101.94966 214.025935 
L 101.477371 215.259032 
L 101.005083 215.259032 
L 102.185805 215.259032 
L 102.658094 216.492129 
L 102.421949 218.968032 
L 101.713516 218.968032 
L 101.005083 217.734935 
L 100.532794 217.734935 
L 100.532794 218.968032 
L 100.532794 218.968032 
L 101.477371 210.326645 
L 101.94966 211.559742 
L 101.94966 212.792839 
L 101.477371 212.792839 
L 101.241227 211.559742 
L 101.241227 211.559742 
L 101.241227 210.326645 
L 101.477371 210.326645 
L 101.477371 210.326645 
L 101.477371 207.860451 
L 101.005083 210.326645 
L 101.005083 211.559742 
L 100.768938 211.559742 
L 100.768938 210.326645 
L 101.005083 210.326645 
L 101.005083 210.326645 
L 100.768938 211.559742 
L 100.532794 214.025935 
L 100.296649 214.025935 
L 100.532794 209.093548 
L 100.532794 209.093548 
L 100.532794 216.492129 
L 101.005083 217.734935 
L 101.241227 216.492129 
L 101.005083 212.792839 
L 100.532794 211.559742 
L 100.532794 211.559742 
L 100.768938 211.559742 
L 100.768938 211.559742 
L 100.532794 210.326645 
L 100.296649 210.326645 
L 99.82436 212.792839 
L 99.82436 215.259032 
L 100.296649 216.492129 
L 100.768938 216.492129 
L 100.768938 214.025935 
L 100.296649 211.559742 
L 100.296649 210.326645 
L 101.005083 211.559742 
L 102.185805 211.559742 
L 104.078109 210.326645 
L 105.494976 207.860451 
L 106.439554 206.617645 
L 108.804147 197.985968 
L 111.165591 193.043871 
L 113.527036 189.344581 
L 115.655485 184.402484 
L 117.54464 179.470097 
L 119.909233 174.528 
L 122.506822 172.061806 
L 125.10756 167.129419 
L 126.996716 160.954226 
L 128.413582 153.545935 
L 130.305887 146.137645 
L 132.195042 141.205258 
L 133.611909 135.030065 
L 134.792631 128.864581 
L 135.976502 121.45629 
L 137.157224 115.281097 
L 137.865658 114.048 
L 138.574091 111.581806 
L 138.810236 110.34871 
L 138.810236 109.115613 
L 138.337947 109.115613 
L 137.865658 107.882516 
L 137.393369 107.882516 
L 137.393369 110.34871 
L 136.212647 116.514194 
L 135.501065 118.990097 
L 135.028776 120.223193 
L 134.320342 123.922484 
L 134.320342 126.388677 
L 134.320342 125.155581 
L 134.556487 126.388677 
L 134.792631 126.388677 
L 134.792631 126.388677 
L 134.084198 122.689387 
L 134.084198 121.45629 
L 134.320342 120.223193 
L 134.320342 120.223193 
L 134.320342 121.45629 
L 134.556487 123.922484 
L 135.26492 126.388677 
L 135.740358 126.388677 
L 135.740358 125.155581 
L 135.501065 121.45629 
L 135.028776 118.990097 
L 135.028776 117.757 
L 135.028776 118.990097 
L 134.084198 123.922484 
L 134.084198 126.388677 
L 134.556487 126.388677 
L 134.556487 121.45629 
L 134.320342 118.990097 
L 134.084198 120.223193 
L 134.084198 122.689387 
L 133.848053 123.922484 
L 133.848053 120.223193 
L 134.556487 120.223193 
L 134.792631 121.45629 
L 134.556487 121.45629 
L 134.556487 120.223193 
L 134.792631 117.757 
L 135.028776 116.514194 
L 135.26492 117.757 
L 135.028776 121.45629 
L 134.320342 122.689387 
L 133.848053 121.45629 
L 133.848053 116.514194 
L 134.084198 117.757 
L 134.556487 116.514194 
L 134.792631 115.281097 
L 134.320342 114.048 
L 133.848053 115.281097 
L 133.611909 115.281097 
L 134.084198 116.514194 
L 134.320342 117.757 
L 134.084198 117.757 
L 132.667331 114.048 
L 132.903476 114.048 
L 133.848053 116.514194 
L 134.320342 121.45629 
L 134.084198 122.689387 
L 133.848053 118.990097 
L 133.848053 115.281097 
L 133.375764 115.281097 
L 133.375764 115.281097 
L 133.848053 114.048 
L 134.320342 111.581806 
L 134.556487 111.581806 
L 134.556487 111.581806 
L 134.320342 112.814903 
L 132.903476 116.514194 
L 133.13962 115.281097 
L 133.375764 115.281097 
L 133.375764 112.814903 
L 133.13962 110.34871 
L 133.13962 110.34871 
L 133.13962 111.581806 
L 133.375764 115.281097 
L 133.611909 116.514194 
L 133.848053 116.514194 
L 133.848053 115.281097 
L 134.084198 115.281097 
L 134.084198 110.34871 
L 134.084198 110.34871 
L 133.611909 111.581806 
L 133.611909 110.34871 
L 134.084198 109.115613 
L 134.556487 110.34871 
L 134.792631 111.581806 
L 134.556487 110.34871 
L 134.320342 110.34871 
L 134.556487 109.115613 
L 134.556487 109.115613 
L 133.848053 109.115613 
L 133.375764 106.649419 
L 133.375764 105.406613 
L 133.375764 105.406613 
L 133.848053 107.882516 
L 134.084198 107.882516 
L 134.556487 105.406613 
L 134.556487 105.406613 
L 134.084198 105.406613 
L 133.611909 107.882516 
L 133.375764 107.882516 
L 133.375764 107.882516 
L 133.848053 110.34871 
L 134.320342 109.115613 
L 134.556487 107.882516 
L 134.556487 109.115613 
L 134.084198 109.115613 
L 133.848053 110.34871 
L 133.848053 109.115613 
L 134.556487 106.649419 
L 134.792631 107.882516 
L 134.792631 109.115613 
L 134.320342 110.34871 
L 134.320342 111.581806 
L 134.084198 111.581806 
L 133.611909 112.814903 
L 133.13962 112.814903 
L 133.611909 114.048 
L 134.320342 114.048 
L 134.320342 114.048 
L 134.556487 112.814903 
L 135.501065 110.34871 
L 135.501065 109.115613 
L 135.26492 107.882516 
L 134.792631 109.115613 
L 134.320342 109.115613 
L 134.320342 107.882516 
L 134.320342 107.882516 
L 134.084198 109.115613 
L 134.084198 109.115613 
L 134.320342 110.34871 
L 134.556487 115.281097 
L 134.556487 115.281097 
L 134.792631 112.814903 
L 135.028776 111.581806 
L 135.028776 110.34871 
L 134.792631 109.115613 
L 134.556487 106.649419 
L 134.792631 104.173516 
L 134.792631 104.173516 
L 134.556487 105.406613 
L 133.13962 105.406613 
L 133.375764 105.406613 
L 133.848053 106.649419 
L 134.320342 105.406613 
L 134.792631 102.940419 
L 134.320342 105.406613 
L 134.556487 105.406613 
L 134.792631 106.649419 
L 134.792631 107.882516 
L 134.792631 105.406613 
L 134.556487 102.940419 
L 134.556487 98.008032 
L 134.320342 96.774935 
L 134.320342 102.940419 
L 134.792631 104.173516 
L 135.26492 99.241129 
L 135.028776 98.008032 
L 134.556487 101.707323 
L 134.792631 105.406613 
L 135.028776 106.649419 
L 135.26492 104.173516 
L 135.26492 101.707323 
L 134.792631 100.474226 
L 134.792631 98.008032 
L 135.501065 96.774935 
L 136.212647 96.774935 
L 137.629513 98.008032 
L 139.04638 98.008032 
L 140.463247 95.532129 
L 142.591695 95.532129 
L 145.661573 94.299032 
L 149.206889 90.599742 
L 156.76666 83.191452 
L 161.020409 79.492161 
L 165.038013 75.783161 
L 169.527906 73.316968 
L 173.781655 70.850774 
L 177.796111 69.617677 
L 182.286004 67.151484 
L 190.557357 62.209387 
L 198.353273 59.743193 
L 202.134733 57.277 
L 205.443904 54.801097 
L 208.513781 54.801097 
L 211.114519 56.034194 
L 213.948253 56.034194 
L 217.021279 54.801097 
L 219.855013 54.801097 
L 222.45575 56.034194 
L 224.58105 59.743193 
L 226.709499 59.743193 
L 228.598655 58.510097 
L 232.380114 58.510097 
L 234.033126 57.277 
L 235.449992 58.510097 
L 236.39457 62.209387 
L 237.342297 62.209387 
L 238.05073 57.277 
L 238.759163 53.568 
L 239.231452 54.801097 
L 238.995308 59.743193 
L 237.814585 62.209387 
L 236.630715 60.97629 
L 235.922281 64.675581 
L 235.922281 65.908677 
L 235.213848 65.908677 
L 234.741559 67.151484 
L 234.505415 68.384581 
L 234.033126 67.151484 
L 233.324692 65.908677 
L 232.852403 67.151484 
L 232.852403 69.617677 
L 233.560837 73.316968 
L 233.324692 70.850774 
L 232.852403 69.617677 
L 232.616259 69.617677 
L 232.380114 73.316968 
L 232.852403 75.783161 
L 233.088548 79.492161 
L 233.088548 83.191452 
L 232.616259 84.424548 
L 232.14397 84.424548 
L 232.14397 81.958355 
L 232.380114 79.492161 
L 232.14397 81.958355 
L 232.380114 84.424548 
L 232.14397 84.424548 
L 231.432388 81.958355 
L 231.196244 78.259064 
L 231.432388 83.191452 
L 231.668532 83.191452 
L 232.14397 81.958355 
L 232.380114 83.191452 
L 232.380114 85.657645 
L 232.14397 88.133548 
L 232.380114 89.366645 
L 232.380114 88.133548 
L 230.960099 85.657645 
L 230.48781 83.191452 
L 230.960099 74.550065 
L 231.432388 75.783161 
L 231.668532 81.958355 
L 231.432388 84.424548 
L 230.960099 84.424548 
L 230.960099 81.958355 
L 231.432388 80.725258 
L 232.380114 80.725258 
L 232.14397 83.191452 
L 232.14397 84.424548 
L 232.380114 85.657645 
L 232.380114 86.900451 
L 231.907826 88.133548 
L 231.668532 86.900451 
L 231.668532 84.424548 
L 231.668532 84.424548 
L 231.196244 84.424548 
L 230.960099 85.657645 
L 230.960099 88.133548 
L 230.960099 86.900451 
L 230.723955 84.424548 
L 230.723955 83.191452 
L 231.196244 85.657645 
L 231.196244 84.424548 
L 231.196244 85.657645 
L 230.723955 89.366645 
L 230.015521 89.366645 
L 229.779377 85.657645 
L 230.015521 83.191452 
L 230.251666 81.958355 
L 230.251666 83.191452 
L 230.48781 85.657645 
L 230.251666 83.191452 
L 230.48781 80.725258 
L 230.960099 79.492161 
L 231.196244 81.958355 
L 231.196244 85.657645 
L 230.723955 86.900451 
L 230.251666 86.900451 
L 229.779377 85.657645 
L 229.779377 83.191452 
L 229.779377 83.191452 
L 230.015521 83.191452 
L 229.779377 81.958355 
L 229.779377 79.492161 
L 229.543232 78.259064 
L 229.543232 78.259064 
L 230.251666 78.259064 
L 230.48781 77.025968 
L 230.251666 78.259064 
L 230.251666 79.492161 
L 230.48781 80.725258 
L 230.251666 79.492161 
L 230.251666 78.259064 
L 230.015521 79.492161 
L 229.779377 79.492161 
L 229.779377 78.259064 
L 229.543232 78.259064 
L 229.307088 75.783161 
L 229.543232 75.783161 
L 229.543232 78.259064 
L 229.543232 78.259064 
L 229.779377 79.492161 
L 230.015521 79.492161 
L 230.251666 78.259064 
L 230.48781 78.259064 
L 230.251666 78.259064 
L 230.251666 73.316968 
L 230.015521 74.550065 
L 230.015521 75.783161 
L 230.015521 70.850774 
L 230.015521 72.083871 
L 229.779377 73.316968 
L 229.307088 74.550065 
L 229.307088 74.550065 
L 229.779377 72.083871 
L 229.779377 72.083871 
L 229.543232 69.617677 
L 229.307088 68.384581 
L 229.543232 68.384581 
L 229.779377 69.617677 
L 229.779377 72.083871 
L 229.307088 70.850774 
L 229.543232 69.617677 
L 230.015521 69.617677 
L 230.48781 72.083871 
L 230.48781 73.316968 
L 230.251666 73.316968 
L 230.015521 72.083871 
L 229.779377 72.083871 
L 229.779377 72.083871 
L 230.015521 70.850774 
L 230.251666 70.850774 
L 230.960099 73.316968 
L 230.960099 74.550065 
L 230.48781 74.550065 
L 229.779377 72.083871 
L 228.834799 67.151484 
L 228.126366 67.151484 
L 226.709499 69.617677 
L 222.691895 69.617677 
L 221.035735 68.384581 
L 218.67429 67.151484 
L 211.586808 67.151484 
L 207.096915 65.908677 
L 201.898588 63.442484 
L 196.227973 60.97629 
L 190.793502 60.97629 
L 178.979982 58.510097 
L 173.309366 59.743193 
L 168.11104 64.675581 
L 162.676568 72.083871 
L 157.005953 79.492161 
L 151.096044 84.424548 
L 145.425429 88.133548 
L 133.13962 90.599742 
L 127.23286 93.065935 
L 122.034533 96.774935 
L 117.54464 100.474226 
L 113.290891 105.406613 
L 108.804147 109.115613 
L 104.314254 109.115613 
L 100.532794 106.649419 
L 93.9176 109.115613 
L 88.483129 109.115613 
L 86.590825 111.581806 
L 84.937814 115.281097 
L 83.284803 115.281097 
L 81.628643 110.34871 
L 80.211776 107.882516 
L 79.031054 109.115613 
L 77.378043 112.814903 
L 76.666461 111.581806 
L 75.721883 111.581806 
L 75.249594 112.814903 
L 75.01345 114.048 
L 75.01345 116.514194 
L 75.249594 120.223193 
L 75.958027 121.45629 
L 76.666461 120.223193 
L 76.430316 118.990097 
L 75.958027 118.990097 
L 75.958027 120.223193 
L 75.721883 122.689387 
L 75.721883 126.388677 
L 76.194172 127.631484 
L 76.666461 131.330774 
L 76.666461 132.563871 
L 76.430316 130.097677 
L 76.430316 128.864581 
L 76.905754 128.864581 
L 77.141898 130.097677 
L 76.905754 131.330774 
L 76.905754 133.796968 
L 77.141898 136.263161 
L 76.666461 137.505968 
L 75.958027 137.505968 
L 75.485738 136.263161 
L 74.777305 136.263161 
L 74.777305 135.030065 
L 74.777305 136.263161 
L 75.249594 146.137645 
L 75.485738 146.137645 
L 75.721883 144.904548 
L 75.721883 142.438355 
L 75.721883 143.671452 
L 75.485738 146.137645 
L 75.721883 147.380451 
L 75.485738 146.137645 
L 75.249594 143.671452 
L 75.485738 141.205258 
L 75.249594 142.438355 
L 75.01345 144.904548 
L 75.01345 148.613548 
L 75.01345 147.380451 
L 74.777305 144.904548 
L 74.541161 144.904548 
L 74.305016 147.380451 
L 74.541161 147.380451 
L 74.777305 146.137645 
L 75.01345 147.380451 
L 75.485738 147.380451 
L 75.249594 147.380451 
L 74.777305 148.613548 
L 74.777305 147.380451 
L 75.01345 146.137645 
L 75.485738 144.904548 
L 75.721883 144.904548 
L 76.194172 147.380451 
L 76.194172 148.613548 
L 75.485738 148.613548 
L 75.485738 144.904548 
L 75.721883 142.438355 
L 75.958027 143.671452 
L 75.958027 147.380451 
L 75.721883 149.846645 
L 75.721883 149.846645 
L 75.721883 144.904548 
L 75.721883 146.137645 
L 75.485738 148.613548 
L 75.485738 149.846645 
L 75.721883 148.613548 
L 76.430316 148.613548 
L 75.958027 151.079742 
L 75.249594 152.312839 
L 75.01345 154.779032 
L 75.249594 154.779032 
L 75.721883 152.312839 
L 75.958027 149.846645 
L 75.958027 148.613548 
L 75.485738 148.613548 
L 75.485738 148.613548 
L 75.485738 152.312839 
L 75.249594 153.545935 
L 75.249594 152.312839 
L 75.249594 152.312839 
L 75.721883 151.079742 
L 76.194172 148.613548 
L 75.958027 147.380451 
L 75.485738 147.380451 
L 75.01345 152.312839 
L 75.01345 153.545935 
L 75.249594 151.079742 
L 75.485738 149.846645 
L 75.485738 148.613548 
L 75.01345 147.380451 
L 74.305016 147.380451 
L 74.305016 147.380451 
L 75.01345 149.846645 
L 75.485738 149.846645 
L 75.249594 148.613548 
L 74.541161 148.613548 
L 74.068872 151.079742 
L 74.305016 152.312839 
L 74.777305 149.846645 
L 75.01345 146.137645 
L 75.249594 144.904548 
L 75.485738 146.137645 
L 75.249594 149.846645 
L 74.541161 151.079742 
L 74.541161 152.312839 
L 74.777305 153.545935 
L 74.777305 153.545935 
L 74.777305 151.079742 
L 75.249594 147.380451 
L 75.485738 147.380451 
L 75.249594 151.079742 
L 75.01345 152.312839 
L 74.777305 152.312839 
L 74.541161 153.545935 
L 74.541161 154.779032 
L 75.249594 153.545935 
L 75.721883 152.312839 
L 75.721883 152.312839 
L 75.485738 153.545935 
L 75.249594 153.545935 
L 74.777305 148.613548 
L 74.777305 147.380451 
L 74.777305 147.380451 
L 75.01345 147.380451 
L 75.01345 147.380451 
L 74.541161 148.613548 
L 73.832727 149.846645 
L 73.832727 148.613548 
L 74.305016 147.380451 
L 74.305016 147.380451 
L 75.249594 147.380451 
L 75.249594 147.380451 
L 74.777305 146.137645 
L 74.068872 146.137645 
L 74.305016 146.137645 
L 74.541161 148.613548 
L 74.305016 147.380451 
L 75.01345 143.671452 
L 74.541161 146.137645 
L 74.305016 146.137645 
L 74.541161 147.380451 
L 75.01345 147.380451 
L 74.777305 147.380451 
L 74.068872 146.137645 
L 73.832727 144.904548 
L 74.305016 147.380451 
L 74.777305 147.380451 
L 74.541161 147.380451 
L 74.305016 146.137645 
L 74.777305 143.671452 
L 74.777305 141.205258 
L 74.541161 139.972161 
L 74.305016 142.438355 
L 75.01345 146.137645 
L 75.01345 148.613548 
L 75.485738 146.137645 
L 75.485738 146.137645 
L 75.249594 146.137645 
L 75.249594 144.904548 
L 75.485738 142.438355 
L 75.249594 138.739064 
L 74.777305 138.739064 
L 74.541161 144.904548 
L 74.777305 149.846645 
L 75.01345 151.079742 
L 75.485738 146.137645 
L 75.249594 143.671452 
L 74.777305 143.671452 
L 74.305016 144.904548 
L 74.777305 143.671452 
L 75.01345 143.671452 
L 75.249594 144.904548 
L 75.249594 148.613548 
L 75.485738 151.079742 
L 75.721883 151.079742 
L 75.485738 148.613548 
L 75.249594 147.380451 
L 75.249594 147.380451 
L 75.01345 149.846645 
L 74.777305 151.079742 
L 75.721883 151.079742 
L 75.958027 149.846645 
L 75.958027 148.613548 
L 75.721883 148.613548 
L 75.721883 148.613548 
" style="fill:none;stroke:#1f77b4;stroke-linecap:square;stroke-width:1.5;"/>
   </g>
   <g id="matplotlib.axis_1">
    <g id="xtick_1">
     <g id="line2d_2">
      <defs>
       <path d="M 0 0 
L 0 3.5 
" id="mbff60c6ca2" style="stroke:#000000;stroke-width:0.8;"/>
      </defs>
      <g>
       <use style="stroke:#000000;stroke-width:0.8;" x="96.631687" xlink:href="#mbff60c6ca2" y="307.584"/>
      </g>
     </g>
     <g id="text_1">
      <!-- −200 -->
      <defs>
       <path d="M 10.59375 35.5 
L 73.1875 35.5 
L 73.1875 27.203125 
L 10.59375 27.203125 
z
" id="DejaVuSans-8722"/>
       <path d="M 19.1875 8.296875 
L 53.609375 8.296875 
L 53.609375 0 
L 7.328125 0 
L 7.328125 8.296875 
Q 12.9375 14.109375 22.625 23.890625 
Q 32.328125 33.6875 34.8125 36.53125 
Q 39.546875 41.84375 41.421875 45.53125 
Q 43.3125 49.21875 43.3125 52.78125 
Q 43.3125 58.59375 39.234375 62.25 
Q 35.15625 65.921875 28.609375 65.921875 
Q 23.96875 65.921875 18.8125 64.3125 
Q 13.671875 62.703125 7.8125 59.421875 
L 7.8125 69.390625 
Q 13.765625 71.78125 18.9375 73 
Q 24.125 74.21875 28.421875 74.21875 
Q 39.75 74.21875 46.484375 68.546875 
Q 53.21875 62.890625 53.21875 53.421875 
Q 53.21875 48.921875 51.53125 44.890625 
Q 49.859375 40.875 45.40625 35.40625 
Q 44.1875 33.984375 37.640625 27.21875 
Q 31.109375 20.453125 19.1875 8.296875 
z
" id="DejaVuSans-50"/>
       <path d="M 31.78125 66.40625 
Q 24.171875 66.40625 20.328125 58.90625 
Q 16.5 51.421875 16.5 36.375 
Q 16.5 21.390625 20.328125 13.890625 
Q 24.171875 6.390625 31.78125 6.390625 
Q 39.453125 6.390625 43.28125 13.890625 
Q 47.125 21.390625 47.125 36.375 
Q 47.125 51.421875 43.28125 58.90625 
Q 39.453125 66.40625 31.78125 66.40625 
z
M 31.78125 74.21875 
Q 44.046875 74.21875 50.515625 64.515625 
Q 56.984375 54.828125 56.984375 36.375 
Q 56.984375 17.96875 50.515625 8.265625 
Q 44.046875 -1.421875 31.78125 -1.421875 
Q 19.53125 -1.421875 13.0625 8.265625 
Q 6.59375 17.96875 6.59375 36.375 
Q 6.59375 54.828125 13.0625 64.515625 
Q 19.53125 74.21875 31.78125 74.21875 
z
" id="DejaVuSans-48"/>
      </defs>
      <g transform="translate(82.898094 322.182437)scale(0.1 -0.1)">
       <use xlink:href="#DejaVuSans-8722"/>
       <use x="83.789062" xlink:href="#DejaVuSans-50"/>
       <use x="147.412109" xlink:href="#DejaVuSans-48"/>
       <use x="211.035156" xlink:href="#DejaVuSans-48"/>
      </g>
     </g>
    </g>
    <g id="xtick_2">
     <g id="line2d_3">
      <g>
       <use style="stroke:#000000;stroke-width:0.8;" x="159.603542" xlink:href="#mbff60c6ca2" y="307.584"/>
      </g>
     </g>
     <g id="text_2">
      <!-- 0 -->
      <g transform="translate(156.422292 322.182437)scale(0.1 -0.1)">
       <use xlink:href="#DejaVuSans-48"/>
      </g>
     </g>
    </g>
    <g id="xtick_3">
     <g id="line2d_4">
      <g>
       <use style="stroke:#000000;stroke-width:0.8;" x="222.575397" xlink:href="#mbff60c6ca2" y="307.584"/>
      </g>
     </g>
     <g id="text_3">
      <!-- 200 -->
      <g transform="translate(213.031647 322.182437)scale(0.1 -0.1)">
       <use xlink:href="#DejaVuSans-50"/>
       <use x="63.623047" xlink:href="#DejaVuSans-48"/>
       <use x="127.246094" xlink:href="#DejaVuSans-48"/>
      </g>
     </g>
    </g>
    <g id="xtick_4">
     <g id="line2d_5">
      <g>
       <use style="stroke:#000000;stroke-width:0.8;" x="285.547251" xlink:href="#mbff60c6ca2" y="307.584"/>
      </g>
     </g>
     <g id="text_4">
      <!-- 400 -->
      <defs>
       <path d="M 37.796875 64.3125 
L 12.890625 25.390625 
L 37.796875 25.390625 
z
M 35.203125 72.90625 
L 47.609375 72.90625 
L 47.609375 25.390625 
L 58.015625 25.390625 
L 58.015625 17.1875 
L 47.609375 17.1875 
L 47.609375 0 
L 37.796875 0 
L 37.796875 17.1875 
L 4.890625 17.1875 
L 4.890625 26.703125 
z
" id="DejaVuSans-52"/>
      </defs>
      <g transform="translate(276.003501 322.182437)scale(0.1 -0.1)">
       <use xlink:href="#DejaVuSans-52"/>
       <use x="63.623047" xlink:href="#DejaVuSans-48"/>
       <use x="127.246094" xlink:href="#DejaVuSans-48"/>
      </g>
     </g>
    </g>
    <g id="xtick_5">
     <g id="line2d_6">
      <g>
       <use style="stroke:#000000;stroke-width:0.8;" x="348.519106" xlink:href="#mbff60c6ca2" y="307.584"/>
      </g>
     </g>
     <g id="text_5">
      <!-- 600 -->
      <defs>
       <path d="M 33.015625 40.375 
Q 26.375 40.375 22.484375 35.828125 
Q 18.609375 31.296875 18.609375 23.390625 
Q 18.609375 15.53125 22.484375 10.953125 
Q 26.375 6.390625 33.015625 6.390625 
Q 39.65625 6.390625 43.53125 10.953125 
Q 47.40625 15.53125 47.40625 23.390625 
Q 47.40625 31.296875 43.53125 35.828125 
Q 39.65625 40.375 33.015625 40.375 
z
M 52.59375 71.296875 
L 52.59375 62.3125 
Q 48.875 64.0625 45.09375 64.984375 
Q 41.3125 65.921875 37.59375 65.921875 
Q 27.828125 65.921875 22.671875 59.328125 
Q 17.53125 52.734375 16.796875 39.40625 
Q 19.671875 43.65625 24.015625 45.921875 
Q 28.375 48.1875 33.59375 48.1875 
Q 44.578125 48.1875 50.953125 41.515625 
Q 57.328125 34.859375 57.328125 23.390625 
Q 57.328125 12.15625 50.6875 5.359375 
Q 44.046875 -1.421875 33.015625 -1.421875 
Q 20.359375 -1.421875 13.671875 8.265625 
Q 6.984375 17.96875 6.984375 36.375 
Q 6.984375 53.65625 15.1875 63.9375 
Q 23.390625 74.21875 37.203125 74.21875 
Q 40.921875 74.21875 44.703125 73.484375 
Q 48.484375 72.75 52.59375 71.296875 
z
" id="DejaVuSans-54"/>
      </defs>
      <g transform="translate(338.975356 322.182437)scale(0.1 -0.1)">
       <use xlink:href="#DejaVuSans-54"/>
       <use x="63.623047" xlink:href="#DejaVuSans-48"/>
       <use x="127.246094" xlink:href="#DejaVuSans-48"/>
      </g>
     </g>
    </g>
    <g id="xtick_6">
     <g id="line2d_7">
      <g>
       <use style="stroke:#000000;stroke-width:0.8;" x="411.490961" xlink:href="#mbff60c6ca2" y="307.584"/>
      </g>
     </g>
     <g id="text_6">
      <!-- 800 -->
      <defs>
       <path d="M 31.78125 34.625 
Q 24.75 34.625 20.71875 30.859375 
Q 16.703125 27.09375 16.703125 20.515625 
Q 16.703125 13.921875 20.71875 10.15625 
Q 24.75 6.390625 31.78125 6.390625 
Q 38.8125 6.390625 42.859375 10.171875 
Q 46.921875 13.96875 46.921875 20.515625 
Q 46.921875 27.09375 42.890625 30.859375 
Q 38.875 34.625 31.78125 34.625 
z
M 21.921875 38.8125 
Q 15.578125 40.375 12.03125 44.71875 
Q 8.5 49.078125 8.5 55.328125 
Q 8.5 64.0625 14.71875 69.140625 
Q 20.953125 74.21875 31.78125 74.21875 
Q 42.671875 74.21875 48.875 69.140625 
Q 55.078125 64.0625 55.078125 55.328125 
Q 55.078125 49.078125 51.53125 44.71875 
Q 48 40.375 41.703125 38.8125 
Q 48.828125 37.15625 52.796875 32.3125 
Q 56.78125 27.484375 56.78125 20.515625 
Q 56.78125 9.90625 50.3125 4.234375 
Q 43.84375 -1.421875 31.78125 -1.421875 
Q 19.734375 -1.421875 13.25 4.234375 
Q 6.78125 9.90625 6.78125 20.515625 
Q 6.78125 27.484375 10.78125 32.3125 
Q 14.796875 37.15625 21.921875 38.8125 
z
M 18.3125 54.390625 
Q 18.3125 48.734375 21.84375 45.5625 
Q 25.390625 42.390625 31.78125 42.390625 
Q 38.140625 42.390625 41.71875 45.5625 
Q 45.3125 48.734375 45.3125 54.390625 
Q 45.3125 60.0625 41.71875 63.234375 
Q 38.140625 66.40625 31.78125 66.40625 
Q 25.390625 66.40625 21.84375 63.234375 
Q 18.3125 60.0625 18.3125 54.390625 
z
" id="DejaVuSans-56"/>
      </defs>
      <g transform="translate(401.947211 322.182437)scale(0.1 -0.1)">
       <use xlink:href="#DejaVuSans-56"/>
       <use x="63.623047" xlink:href="#DejaVuSans-48"/>
       <use x="127.246094" xlink:href="#DejaVuSans-48"/>
      </g>
     </g>
    </g>
   </g>
   <g id="matplotlib.axis_2">
    <g id="ytick_1">
     <g id="line2d_8">
      <defs>
       <path d="M 0 0 
L -3.5 0 
" id="m867dedd751" style="stroke:#000000;stroke-width:0.8;"/>
      </defs>
      <g>
       <use style="stroke:#000000;stroke-width:0.8;" x="57.6" xlink:href="#m867dedd751" y="307.712164"/>
      </g>
     </g>
     <g id="text_7">
      <!-- −550 -->
      <defs>
       <path d="M 10.796875 72.90625 
L 49.515625 72.90625 
L 49.515625 64.59375 
L 19.828125 64.59375 
L 19.828125 46.734375 
Q 21.96875 47.46875 24.109375 47.828125 
Q 26.265625 48.1875 28.421875 48.1875 
Q 40.625 48.1875 47.75 41.5 
Q 54.890625 34.8125 54.890625 23.390625 
Q 54.890625 11.625 47.5625 5.09375 
Q 40.234375 -1.421875 26.90625 -1.421875 
Q 22.3125 -1.421875 17.546875 -0.640625 
Q 12.796875 0.140625 7.71875 1.703125 
L 7.71875 11.625 
Q 12.109375 9.234375 16.796875 8.0625 
Q 21.484375 6.890625 26.703125 6.890625 
Q 35.15625 6.890625 40.078125 11.328125 
Q 45.015625 15.765625 45.015625 23.390625 
Q 45.015625 31 40.078125 35.4375 
Q 35.15625 39.890625 26.703125 39.890625 
Q 22.75 39.890625 18.8125 39.015625 
Q 14.890625 38.140625 10.796875 36.28125 
z
" id="DejaVuSans-53"/>
      </defs>
      <g transform="translate(23.132812 311.511383)scale(0.1 -0.1)">
       <use xlink:href="#DejaVuSans-8722"/>
       <use x="83.789062" xlink:href="#DejaVuSans-53"/>
       <use x="147.412109" xlink:href="#DejaVuSans-53"/>
       <use x="211.035156" xlink:href="#DejaVuSans-48"/>
      </g>
     </g>
    </g>
    <g id="ytick_2">
     <g id="line2d_9">
      <g>
       <use style="stroke:#000000;stroke-width:0.8;" x="57.6" xlink:href="#m867dedd751" y="259.165046"/>
      </g>
     </g>
     <g id="text_8">
      <!-- −500 -->
      <g transform="translate(23.132812 262.964265)scale(0.1 -0.1)">
       <use xlink:href="#DejaVuSans-8722"/>
       <use x="83.789062" xlink:href="#DejaVuSans-53"/>
       <use x="147.412109" xlink:href="#DejaVuSans-48"/>
       <use x="211.035156" xlink:href="#DejaVuSans-48"/>
      </g>
     </g>
    </g>
    <g id="ytick_3">
     <g id="line2d_10">
      <g>
       <use style="stroke:#000000;stroke-width:0.8;" x="57.6" xlink:href="#m867dedd751" y="210.617928"/>
      </g>
     </g>
     <g id="text_9">
      <!-- −450 -->
      <g transform="translate(23.132812 214.417147)scale(0.1 -0.1)">
       <use xlink:href="#DejaVuSans-8722"/>
       <use x="83.789062" xlink:href="#DejaVuSans-52"/>
       <use x="147.412109" xlink:href="#DejaVuSans-53"/>
       <use x="211.035156" xlink:href="#DejaVuSans-48"/>
      </g>
     </g>
    </g>
    <g id="ytick_4">
     <g id="line2d_11">
      <g>
       <use style="stroke:#000000;stroke-width:0.8;" x="57.6" xlink:href="#m867dedd751" y="162.070809"/>
      </g>
     </g>
     <g id="text_10">
      <!-- −400 -->
      <g transform="translate(23.132812 165.870028)scale(0.1 -0.1)">
       <use xlink:href="#DejaVuSans-8722"/>
       <use x="83.789062" xlink:href="#DejaVuSans-52"/>
       <use x="147.412109" xlink:href="#DejaVuSans-48"/>
       <use x="211.035156" xlink:href="#DejaVuSans-48"/>
      </g>
     </g>
    </g>
    <g id="ytick_5">
     <g id="line2d_12">
      <g>
       <use style="stroke:#000000;stroke-width:0.8;" x="57.6" xlink:href="#m867dedd751" y="113.523691"/>
      </g>
     </g>
     <g id="text_11">
      <!-- −350 -->
      <defs>
       <path d="M 40.578125 39.3125 
Q 47.65625 37.796875 51.625 33 
Q 55.609375 28.21875 55.609375 21.1875 
Q 55.609375 10.40625 48.1875 4.484375 
Q 40.765625 -1.421875 27.09375 -1.421875 
Q 22.515625 -1.421875 17.65625 -0.515625 
Q 12.796875 0.390625 7.625 2.203125 
L 7.625 11.71875 
Q 11.71875 9.328125 16.59375 8.109375 
Q 21.484375 6.890625 26.8125 6.890625 
Q 36.078125 6.890625 40.9375 10.546875 
Q 45.796875 14.203125 45.796875 21.1875 
Q 45.796875 27.640625 41.28125 31.265625 
Q 36.765625 34.90625 28.71875 34.90625 
L 20.21875 34.90625 
L 20.21875 43.015625 
L 29.109375 43.015625 
Q 36.375 43.015625 40.234375 45.921875 
Q 44.09375 48.828125 44.09375 54.296875 
Q 44.09375 59.90625 40.109375 62.90625 
Q 36.140625 65.921875 28.71875 65.921875 
Q 24.65625 65.921875 20.015625 65.03125 
Q 15.375 64.15625 9.8125 62.3125 
L 9.8125 71.09375 
Q 15.4375 72.65625 20.34375 73.4375 
Q 25.25 74.21875 29.59375 74.21875 
Q 40.828125 74.21875 47.359375 69.109375 
Q 53.90625 64.015625 53.90625 55.328125 
Q 53.90625 49.265625 50.4375 45.09375 
Q 46.96875 40.921875 40.578125 39.3125 
z
" id="DejaVuSans-51"/>
      </defs>
      <g transform="translate(23.132812 117.32291)scale(0.1 -0.1)">
       <use xlink:href="#DejaVuSans-8722"/>
       <use x="83.789062" xlink:href="#DejaVuSans-51"/>
       <use x="147.412109" xlink:href="#DejaVuSans-53"/>
       <use x="211.035156" xlink:href="#DejaVuSans-48"/>
      </g>
     </g>
    </g>
    <g id="ytick_6">
     <g id="line2d_13">
      <g>
       <use style="stroke:#000000;stroke-width:0.8;" x="57.6" xlink:href="#m867dedd751" y="64.976573"/>
      </g>
     </g>
     <g id="text_12">
      <!-- −300 -->
      <g transform="translate(23.132812 68.775792)scale(0.1 -0.1)">
       <use xlink:href="#DejaVuSans-8722"/>
       <use x="83.789062" xlink:href="#DejaVuSans-51"/>
       <use x="147.412109" xlink:href="#DejaVuSans-48"/>
       <use x="211.035156" xlink:href="#DejaVuSans-48"/>
      </g>
     </g>
    </g>
   </g>
   <g id="line2d_14">
    <path clip-path="url(#p9d2ba916f0)" d="M 390.845787 264.244174 
L 104.171913 213.185782 
L 135.868254 112.287711 
L 226.49217 74.821412 
L 77.377285 141.236394 
" style="fill:none;stroke:#ff0000;stroke-linecap:square;stroke-width:0.5;"/>
   </g>
   <g id="patch_3">
    <path d="M 57.6 307.584 
L 57.6 41.472 
" style="fill:none;stroke:#000000;stroke-linecap:square;stroke-linejoin:miter;stroke-width:0.8;"/>
   </g>
   <g id="patch_4">
    <path d="M 414.72 307.584 
L 414.72 41.472 
" style="fill:none;stroke:#000000;stroke-linecap:square;stroke-linejoin:miter;stroke-width:0.8;"/>
   </g>
   <g id="patch_5">
    <path d="M 57.6 307.584 
L 414.72 307.584 
" style="fill:none;stroke:#000000;stroke-linecap:square;stroke-linejoin:miter;stroke-width:0.8;"/>
   </g>
   <g id="patch_6">
    <path d="M 57.6 41.472 
L 414.72 41.472 
" style="fill:none;stroke:#000000;stroke-linecap:square;stroke-linejoin:miter;stroke-width:0.8;"/>
   </g>
   <g id="PathCollection_1">
    <defs>
     <path d="M 0 2.738613 
C 0.726289 2.738613 1.422928 2.450055 1.936492 1.936492 
C 2.450055 1.422928 2.738613 0.726289 2.738613 0 
C 2.738613 -0.726289 2.450055 -1.422928 1.936492 -1.936492 
C 1.422928 -2.450055 0.726289 -2.738613 0 -2.738613 
C -0.726289 -2.738613 -1.422928 -2.450055 -1.936492 -1.936492 
C -2.450055 -1.422928 -2.738613 -0.726289 -2.738613 0 
C -2.738613 0.726289 -2.450055 1.422928 -1.936492 1.936492 
C -1.422928 2.450055 -0.726289 2.738613 0 2.738613 
z
" id="m200cf2210e" style="stroke:#ff0000;"/>
    </defs>
    <g clip-path="url(#p9d2ba916f0)">
     <use style="fill:#ff0000;stroke:#ff0000;" x="390.845787" xlink:href="#m200cf2210e" y="264.244174"/>
     <use style="fill:#ff0000;stroke:#ff0000;" x="104.171913" xlink:href="#m200cf2210e" y="213.185782"/>
     <use style="fill:#ff0000;stroke:#ff0000;" x="135.868254" xlink:href="#m200cf2210e" y="112.287711"/>
     <use style="fill:#ff0000;stroke:#ff0000;" x="226.49217" xlink:href="#m200cf2210e" y="74.821412"/>
     <use style="fill:#ff0000;stroke:#ff0000;" x="77.377285" xlink:href="#m200cf2210e" y="141.236394"/>
    </g>
   </g>
   <g id="text_13">
    <!-- (122) Subject: s3, Known = True, Degree = 2, Duration = 0.1 -->
    <defs>
     <path d="M 31 75.875 
Q 24.46875 64.65625 21.28125 53.65625 
Q 18.109375 42.671875 18.109375 31.390625 
Q 18.109375 20.125 21.3125 9.0625 
Q 24.515625 -2 31 -13.1875 
L 23.1875 -13.1875 
Q 15.875 -1.703125 12.234375 9.375 
Q 8.59375 20.453125 8.59375 31.390625 
Q 8.59375 42.28125 12.203125 53.3125 
Q 15.828125 64.359375 23.1875 75.875 
z
" id="DejaVuSans-40"/>
     <path d="M 12.40625 8.296875 
L 28.515625 8.296875 
L 28.515625 63.921875 
L 10.984375 60.40625 
L 10.984375 69.390625 
L 28.421875 72.90625 
L 38.28125 72.90625 
L 38.28125 8.296875 
L 54.390625 8.296875 
L 54.390625 0 
L 12.40625 0 
z
" id="DejaVuSans-49"/>
     <path d="M 8.015625 75.875 
L 15.828125 75.875 
Q 23.140625 64.359375 26.78125 53.3125 
Q 30.421875 42.28125 30.421875 31.390625 
Q 30.421875 20.453125 26.78125 9.375 
Q 23.140625 -1.703125 15.828125 -13.1875 
L 8.015625 -13.1875 
Q 14.5 -2 17.703125 9.0625 
Q 20.90625 20.125 20.90625 31.390625 
Q 20.90625 42.671875 17.703125 53.65625 
Q 14.5 64.65625 8.015625 75.875 
z
" id="DejaVuSans-41"/>
     <path id="DejaVuSans-32"/>
     <path d="M 53.515625 70.515625 
L 53.515625 60.890625 
Q 47.90625 63.578125 42.921875 64.890625 
Q 37.9375 66.21875 33.296875 66.21875 
Q 25.25 66.21875 20.875 63.09375 
Q 16.5 59.96875 16.5 54.203125 
Q 16.5 49.359375 19.40625 46.890625 
Q 22.3125 44.4375 30.421875 42.921875 
L 36.375 41.703125 
Q 47.40625 39.59375 52.65625 34.296875 
Q 57.90625 29 57.90625 20.125 
Q 57.90625 9.515625 50.796875 4.046875 
Q 43.703125 -1.421875 29.984375 -1.421875 
Q 24.8125 -1.421875 18.96875 -0.25 
Q 13.140625 0.921875 6.890625 3.21875 
L 6.890625 13.375 
Q 12.890625 10.015625 18.65625 8.296875 
Q 24.421875 6.59375 29.984375 6.59375 
Q 38.421875 6.59375 43.015625 9.90625 
Q 47.609375 13.234375 47.609375 19.390625 
Q 47.609375 24.75 44.3125 27.78125 
Q 41.015625 30.8125 33.5 32.328125 
L 27.484375 33.5 
Q 16.453125 35.6875 11.515625 40.375 
Q 6.59375 45.0625 6.59375 53.421875 
Q 6.59375 63.09375 13.40625 68.65625 
Q 20.21875 74.21875 32.171875 74.21875 
Q 37.3125 74.21875 42.625 73.28125 
Q 47.953125 72.359375 53.515625 70.515625 
z
" id="DejaVuSans-83"/>
     <path d="M 8.5 21.578125 
L 8.5 54.6875 
L 17.484375 54.6875 
L 17.484375 21.921875 
Q 17.484375 14.15625 20.5 10.265625 
Q 23.53125 6.390625 29.59375 6.390625 
Q 36.859375 6.390625 41.078125 11.03125 
Q 45.3125 15.671875 45.3125 23.6875 
L 45.3125 54.6875 
L 54.296875 54.6875 
L 54.296875 0 
L 45.3125 0 
L 45.3125 8.40625 
Q 42.046875 3.421875 37.71875 1 
Q 33.40625 -1.421875 27.6875 -1.421875 
Q 18.265625 -1.421875 13.375 4.4375 
Q 8.5 10.296875 8.5 21.578125 
z
M 31.109375 56 
z
" id="DejaVuSans-117"/>
     <path d="M 48.6875 27.296875 
Q 48.6875 37.203125 44.609375 42.84375 
Q 40.53125 48.484375 33.40625 48.484375 
Q 26.265625 48.484375 22.1875 42.84375 
Q 18.109375 37.203125 18.109375 27.296875 
Q 18.109375 17.390625 22.1875 11.75 
Q 26.265625 6.109375 33.40625 6.109375 
Q 40.53125 6.109375 44.609375 11.75 
Q 48.6875 17.390625 48.6875 27.296875 
z
M 18.109375 46.390625 
Q 20.953125 51.265625 25.265625 53.625 
Q 29.59375 56 35.59375 56 
Q 45.5625 56 51.78125 48.09375 
Q 58.015625 40.1875 58.015625 27.296875 
Q 58.015625 14.40625 51.78125 6.484375 
Q 45.5625 -1.421875 35.59375 -1.421875 
Q 29.59375 -1.421875 25.265625 0.953125 
Q 20.953125 3.328125 18.109375 8.203125 
L 18.109375 0 
L 9.078125 0 
L 9.078125 75.984375 
L 18.109375 75.984375 
z
" id="DejaVuSans-98"/>
     <path d="M 9.421875 54.6875 
L 18.40625 54.6875 
L 18.40625 -0.984375 
Q 18.40625 -11.421875 14.421875 -16.109375 
Q 10.453125 -20.796875 1.609375 -20.796875 
L -1.8125 -20.796875 
L -1.8125 -13.1875 
L 0.59375 -13.1875 
Q 5.71875 -13.1875 7.5625 -10.8125 
Q 9.421875 -8.453125 9.421875 -0.984375 
z
M 9.421875 75.984375 
L 18.40625 75.984375 
L 18.40625 64.59375 
L 9.421875 64.59375 
z
" id="DejaVuSans-106"/>
     <path d="M 56.203125 29.59375 
L 56.203125 25.203125 
L 14.890625 25.203125 
Q 15.484375 15.921875 20.484375 11.0625 
Q 25.484375 6.203125 34.421875 6.203125 
Q 39.59375 6.203125 44.453125 7.46875 
Q 49.3125 8.734375 54.109375 11.28125 
L 54.109375 2.78125 
Q 49.265625 0.734375 44.1875 -0.34375 
Q 39.109375 -1.421875 33.890625 -1.421875 
Q 20.796875 -1.421875 13.15625 6.1875 
Q 5.515625 13.8125 5.515625 26.8125 
Q 5.515625 40.234375 12.765625 48.109375 
Q 20.015625 56 32.328125 56 
Q 43.359375 56 49.78125 48.890625 
Q 56.203125 41.796875 56.203125 29.59375 
z
M 47.21875 32.234375 
Q 47.125 39.59375 43.09375 43.984375 
Q 39.0625 48.390625 32.421875 48.390625 
Q 24.90625 48.390625 20.390625 44.140625 
Q 15.875 39.890625 15.1875 32.171875 
z
" id="DejaVuSans-101"/>
     <path d="M 48.78125 52.59375 
L 48.78125 44.1875 
Q 44.96875 46.296875 41.140625 47.34375 
Q 37.3125 48.390625 33.40625 48.390625 
Q 24.65625 48.390625 19.8125 42.84375 
Q 14.984375 37.3125 14.984375 27.296875 
Q 14.984375 17.28125 19.8125 11.734375 
Q 24.65625 6.203125 33.40625 6.203125 
Q 37.3125 6.203125 41.140625 7.25 
Q 44.96875 8.296875 48.78125 10.40625 
L 48.78125 2.09375 
Q 45.015625 0.34375 40.984375 -0.53125 
Q 36.96875 -1.421875 32.421875 -1.421875 
Q 20.0625 -1.421875 12.78125 6.34375 
Q 5.515625 14.109375 5.515625 27.296875 
Q 5.515625 40.671875 12.859375 48.328125 
Q 20.21875 56 33.015625 56 
Q 37.15625 56 41.109375 55.140625 
Q 45.0625 54.296875 48.78125 52.59375 
z
" id="DejaVuSans-99"/>
     <path d="M 18.3125 70.21875 
L 18.3125 54.6875 
L 36.8125 54.6875 
L 36.8125 47.703125 
L 18.3125 47.703125 
L 18.3125 18.015625 
Q 18.3125 11.328125 20.140625 9.421875 
Q 21.96875 7.515625 27.59375 7.515625 
L 36.8125 7.515625 
L 36.8125 0 
L 27.59375 0 
Q 17.1875 0 13.234375 3.875 
Q 9.28125 7.765625 9.28125 18.015625 
L 9.28125 47.703125 
L 2.6875 47.703125 
L 2.6875 54.6875 
L 9.28125 54.6875 
L 9.28125 70.21875 
z
" id="DejaVuSans-116"/>
     <path d="M 11.71875 12.40625 
L 22.015625 12.40625 
L 22.015625 0 
L 11.71875 0 
z
M 11.71875 51.703125 
L 22.015625 51.703125 
L 22.015625 39.3125 
L 11.71875 39.3125 
z
" id="DejaVuSans-58"/>
     <path d="M 44.28125 53.078125 
L 44.28125 44.578125 
Q 40.484375 46.53125 36.375 47.5 
Q 32.28125 48.484375 27.875 48.484375 
Q 21.1875 48.484375 17.84375 46.4375 
Q 14.5 44.390625 14.5 40.28125 
Q 14.5 37.15625 16.890625 35.375 
Q 19.28125 33.59375 26.515625 31.984375 
L 29.59375 31.296875 
Q 39.15625 29.25 43.1875 25.515625 
Q 47.21875 21.78125 47.21875 15.09375 
Q 47.21875 7.46875 41.1875 3.015625 
Q 35.15625 -1.421875 24.609375 -1.421875 
Q 20.21875 -1.421875 15.453125 -0.5625 
Q 10.6875 0.296875 5.421875 2 
L 5.421875 11.28125 
Q 10.40625 8.6875 15.234375 7.390625 
Q 20.0625 6.109375 24.8125 6.109375 
Q 31.15625 6.109375 34.5625 8.28125 
Q 37.984375 10.453125 37.984375 14.40625 
Q 37.984375 18.0625 35.515625 20.015625 
Q 33.0625 21.96875 24.703125 23.78125 
L 21.578125 24.515625 
Q 13.234375 26.265625 9.515625 29.90625 
Q 5.8125 33.546875 5.8125 39.890625 
Q 5.8125 47.609375 11.28125 51.796875 
Q 16.75 56 26.8125 56 
Q 31.78125 56 36.171875 55.265625 
Q 40.578125 54.546875 44.28125 53.078125 
z
" id="DejaVuSans-115"/>
     <path d="M 11.71875 12.40625 
L 22.015625 12.40625 
L 22.015625 4 
L 14.015625 -11.625 
L 7.71875 -11.625 
L 11.71875 4 
z
" id="DejaVuSans-44"/>
     <path d="M 9.8125 72.90625 
L 19.671875 72.90625 
L 19.671875 42.09375 
L 52.390625 72.90625 
L 65.09375 72.90625 
L 28.90625 38.921875 
L 67.671875 0 
L 54.6875 0 
L 19.671875 35.109375 
L 19.671875 0 
L 9.8125 0 
z
" id="DejaVuSans-75"/>
     <path d="M 54.890625 33.015625 
L 54.890625 0 
L 45.90625 0 
L 45.90625 32.71875 
Q 45.90625 40.484375 42.875 44.328125 
Q 39.84375 48.1875 33.796875 48.1875 
Q 26.515625 48.1875 22.3125 43.546875 
Q 18.109375 38.921875 18.109375 30.90625 
L 18.109375 0 
L 9.078125 0 
L 9.078125 54.6875 
L 18.109375 54.6875 
L 18.109375 46.1875 
Q 21.34375 51.125 25.703125 53.5625 
Q 30.078125 56 35.796875 56 
Q 45.21875 56 50.046875 50.171875 
Q 54.890625 44.34375 54.890625 33.015625 
z
" id="DejaVuSans-110"/>
     <path d="M 30.609375 48.390625 
Q 23.390625 48.390625 19.1875 42.75 
Q 14.984375 37.109375 14.984375 27.296875 
Q 14.984375 17.484375 19.15625 11.84375 
Q 23.34375 6.203125 30.609375 6.203125 
Q 37.796875 6.203125 41.984375 11.859375 
Q 46.1875 17.53125 46.1875 27.296875 
Q 46.1875 37.015625 41.984375 42.703125 
Q 37.796875 48.390625 30.609375 48.390625 
z
M 30.609375 56 
Q 42.328125 56 49.015625 48.375 
Q 55.71875 40.765625 55.71875 27.296875 
Q 55.71875 13.875 49.015625 6.21875 
Q 42.328125 -1.421875 30.609375 -1.421875 
Q 18.84375 -1.421875 12.171875 6.21875 
Q 5.515625 13.875 5.515625 27.296875 
Q 5.515625 40.765625 12.171875 48.375 
Q 18.84375 56 30.609375 56 
z
" id="DejaVuSans-111"/>
     <path d="M 4.203125 54.6875 
L 13.1875 54.6875 
L 24.421875 12.015625 
L 35.59375 54.6875 
L 46.1875 54.6875 
L 57.421875 12.015625 
L 68.609375 54.6875 
L 77.59375 54.6875 
L 63.28125 0 
L 52.6875 0 
L 40.921875 44.828125 
L 29.109375 0 
L 18.5 0 
z
" id="DejaVuSans-119"/>
     <path d="M 10.59375 45.40625 
L 73.1875 45.40625 
L 73.1875 37.203125 
L 10.59375 37.203125 
z
M 10.59375 25.484375 
L 73.1875 25.484375 
L 73.1875 17.1875 
L 10.59375 17.1875 
z
" id="DejaVuSans-61"/>
     <path d="M -0.296875 72.90625 
L 61.375 72.90625 
L 61.375 64.59375 
L 35.5 64.59375 
L 35.5 0 
L 25.59375 0 
L 25.59375 64.59375 
L -0.296875 64.59375 
z
" id="DejaVuSans-84"/>
     <path d="M 41.109375 46.296875 
Q 39.59375 47.171875 37.8125 47.578125 
Q 36.03125 48 33.890625 48 
Q 26.265625 48 22.1875 43.046875 
Q 18.109375 38.09375 18.109375 28.8125 
L 18.109375 0 
L 9.078125 0 
L 9.078125 54.6875 
L 18.109375 54.6875 
L 18.109375 46.1875 
Q 20.953125 51.171875 25.484375 53.578125 
Q 30.03125 56 36.53125 56 
Q 37.453125 56 38.578125 55.875 
Q 39.703125 55.765625 41.0625 55.515625 
z
" id="DejaVuSans-114"/>
     <path d="M 19.671875 64.796875 
L 19.671875 8.109375 
L 31.59375 8.109375 
Q 46.6875 8.109375 53.6875 14.9375 
Q 60.6875 21.78125 60.6875 36.53125 
Q 60.6875 51.171875 53.6875 57.984375 
Q 46.6875 64.796875 31.59375 64.796875 
z
M 9.8125 72.90625 
L 30.078125 72.90625 
Q 51.265625 72.90625 61.171875 64.09375 
Q 71.09375 55.28125 71.09375 36.53125 
Q 71.09375 17.671875 61.125 8.828125 
Q 51.171875 0 30.078125 0 
L 9.8125 0 
z
" id="DejaVuSans-68"/>
     <path d="M 45.40625 27.984375 
Q 45.40625 37.75 41.375 43.109375 
Q 37.359375 48.484375 30.078125 48.484375 
Q 22.859375 48.484375 18.828125 43.109375 
Q 14.796875 37.75 14.796875 27.984375 
Q 14.796875 18.265625 18.828125 12.890625 
Q 22.859375 7.515625 30.078125 7.515625 
Q 37.359375 7.515625 41.375 12.890625 
Q 45.40625 18.265625 45.40625 27.984375 
z
M 54.390625 6.78125 
Q 54.390625 -7.171875 48.1875 -13.984375 
Q 42 -20.796875 29.203125 -20.796875 
Q 24.46875 -20.796875 20.265625 -20.09375 
Q 16.0625 -19.390625 12.109375 -17.921875 
L 12.109375 -9.1875 
Q 16.0625 -11.328125 19.921875 -12.34375 
Q 23.78125 -13.375 27.78125 -13.375 
Q 36.625 -13.375 41.015625 -8.765625 
Q 45.40625 -4.15625 45.40625 5.171875 
L 45.40625 9.625 
Q 42.625 4.78125 38.28125 2.390625 
Q 33.9375 0 27.875 0 
Q 17.828125 0 11.671875 7.65625 
Q 5.515625 15.328125 5.515625 27.984375 
Q 5.515625 40.671875 11.671875 48.328125 
Q 17.828125 56 27.875 56 
Q 33.9375 56 38.28125 53.609375 
Q 42.625 51.21875 45.40625 46.390625 
L 45.40625 54.6875 
L 54.390625 54.6875 
z
" id="DejaVuSans-103"/>
     <path d="M 34.28125 27.484375 
Q 23.390625 27.484375 19.1875 25 
Q 14.984375 22.515625 14.984375 16.5 
Q 14.984375 11.71875 18.140625 8.90625 
Q 21.296875 6.109375 26.703125 6.109375 
Q 34.1875 6.109375 38.703125 11.40625 
Q 43.21875 16.703125 43.21875 25.484375 
L 43.21875 27.484375 
z
M 52.203125 31.203125 
L 52.203125 0 
L 43.21875 0 
L 43.21875 8.296875 
Q 40.140625 3.328125 35.546875 0.953125 
Q 30.953125 -1.421875 24.3125 -1.421875 
Q 15.921875 -1.421875 10.953125 3.296875 
Q 6 8.015625 6 15.921875 
Q 6 25.140625 12.171875 29.828125 
Q 18.359375 34.515625 30.609375 34.515625 
L 43.21875 34.515625 
L 43.21875 35.40625 
Q 43.21875 41.609375 39.140625 45 
Q 35.0625 48.390625 27.6875 48.390625 
Q 23 48.390625 18.546875 47.265625 
Q 14.109375 46.140625 10.015625 43.890625 
L 10.015625 52.203125 
Q 14.9375 54.109375 19.578125 55.046875 
Q 24.21875 56 28.609375 56 
Q 40.484375 56 46.34375 49.84375 
Q 52.203125 43.703125 52.203125 31.203125 
z
" id="DejaVuSans-97"/>
     <path d="M 9.421875 54.6875 
L 18.40625 54.6875 
L 18.40625 0 
L 9.421875 0 
z
M 9.421875 75.984375 
L 18.40625 75.984375 
L 18.40625 64.59375 
L 9.421875 64.59375 
z
" id="DejaVuSans-105"/>
     <path d="M 10.6875 12.40625 
L 21 12.40625 
L 21 0 
L 10.6875 0 
z
" id="DejaVuSans-46"/>
    </defs>
    <g transform="translate(51.733125 35.472)scale(0.12 -0.12)">
     <use xlink:href="#DejaVuSans-40"/>
     <use x="39.013672" xlink:href="#DejaVuSans-49"/>
     <use x="102.636719" xlink:href="#DejaVuSans-50"/>
     <use x="166.259766" xlink:href="#DejaVuSans-50"/>
     <use x="229.882812" xlink:href="#DejaVuSans-41"/>
     <use x="268.896484" xlink:href="#DejaVuSans-32"/>
     <use x="300.683594" xlink:href="#DejaVuSans-83"/>
     <use x="364.160156" xlink:href="#DejaVuSans-117"/>
     <use x="427.539062" xlink:href="#DejaVuSans-98"/>
     <use x="491.015625" xlink:href="#DejaVuSans-106"/>
     <use x="518.798828" xlink:href="#DejaVuSans-101"/>
     <use x="580.322266" xlink:href="#DejaVuSans-99"/>
     <use x="635.302734" xlink:href="#DejaVuSans-116"/>
     <use x="674.511719" xlink:href="#DejaVuSans-58"/>
     <use x="708.203125" xlink:href="#DejaVuSans-32"/>
     <use x="739.990234" xlink:href="#DejaVuSans-115"/>
     <use x="792.089844" xlink:href="#DejaVuSans-51"/>
     <use x="855.712891" xlink:href="#DejaVuSans-44"/>
     <use x="887.5" xlink:href="#DejaVuSans-32"/>
     <use x="919.287109" xlink:href="#DejaVuSans-75"/>
     <use x="984.863281" xlink:href="#DejaVuSans-110"/>
     <use x="1048.242188" xlink:href="#DejaVuSans-111"/>
     <use x="1109.423828" xlink:href="#DejaVuSans-119"/>
     <use x="1191.210938" xlink:href="#DejaVuSans-110"/>
     <use x="1254.589844" xlink:href="#DejaVuSans-32"/>
     <use x="1286.376953" xlink:href="#DejaVuSans-61"/>
     <use x="1370.166016" xlink:href="#DejaVuSans-32"/>
     <use x="1401.953125" xlink:href="#DejaVuSans-84"/>
     <use x="1462.818359" xlink:href="#DejaVuSans-114"/>
     <use x="1503.931641" xlink:href="#DejaVuSans-117"/>
     <use x="1567.310547" xlink:href="#DejaVuSans-101"/>
     <use x="1628.833984" xlink:href="#DejaVuSans-44"/>
     <use x="1660.621094" xlink:href="#DejaVuSans-32"/>
     <use x="1692.408203" xlink:href="#DejaVuSans-68"/>
     <use x="1769.410156" xlink:href="#DejaVuSans-101"/>
     <use x="1830.933594" xlink:href="#DejaVuSans-103"/>
     <use x="1894.410156" xlink:href="#DejaVuSans-114"/>
     <use x="1935.492188" xlink:href="#DejaVuSans-101"/>
     <use x="1997.015625" xlink:href="#DejaVuSans-101"/>
     <use x="2058.539062" xlink:href="#DejaVuSans-32"/>
     <use x="2090.326172" xlink:href="#DejaVuSans-61"/>
     <use x="2174.115234" xlink:href="#DejaVuSans-32"/>
     <use x="2205.902344" xlink:href="#DejaVuSans-50"/>
     <use x="2269.525391" xlink:href="#DejaVuSans-44"/>
     <use x="2301.3125" xlink:href="#DejaVuSans-32"/>
     <use x="2333.099609" xlink:href="#DejaVuSans-68"/>
     <use x="2410.101562" xlink:href="#DejaVuSans-117"/>
     <use x="2473.480469" xlink:href="#DejaVuSans-114"/>
     <use x="2514.59375" xlink:href="#DejaVuSans-97"/>
     <use x="2575.873047" xlink:href="#DejaVuSans-116"/>
     <use x="2615.082031" xlink:href="#DejaVuSans-105"/>
     <use x="2642.865234" xlink:href="#DejaVuSans-111"/>
     <use x="2704.046875" xlink:href="#DejaVuSans-110"/>
     <use x="2767.425781" xlink:href="#DejaVuSans-32"/>
     <use x="2799.212891" xlink:href="#DejaVuSans-61"/>
     <use x="2883.001953" xlink:href="#DejaVuSans-32"/>
     <use x="2914.789062" xlink:href="#DejaVuSans-48"/>
     <use x="2978.412109" xlink:href="#DejaVuSans-46"/>
     <use x="3010.199219" xlink:href="#DejaVuSans-49"/>
    </g>
   </g>
  </g>
 </g>
 <defs>
  <clipPath id="p9d2ba916f0">
   <rect height="266.112" width="357.12" x="57.6" y="41.472"/>
  </clipPath>
 </defs>
</svg>
