<?xml version="1.0" encoding="utf-8" standalone="no"?>
<!DOCTYPE svg PUBLIC "-//W3C//DTD SVG 1.1//EN"
  "http://www.w3.org/Graphics/SVG/1.1/DTD/svg11.dtd">
<!-- Created with matplotlib (https://matplotlib.org/) -->
<svg height="345.6pt" version="1.1" viewBox="0 0 460.8 345.6" width="460.8pt" xmlns="http://www.w3.org/2000/svg" xmlns:xlink="http://www.w3.org/1999/xlink">
 <defs>
  <style type="text/css">
*{stroke-linecap:butt;stroke-linejoin:round;}
  </style>
 </defs>
 <g id="figure_1">
  <g id="patch_1">
   <path d="M 0 345.6 
L 460.8 345.6 
L 460.8 0 
L 0 0 
z
" style="fill:#ffffff;"/>
  </g>
  <g id="axes_1">
   <g id="patch_2">
    <path d="M 57.6 307.584 
L 414.72 307.584 
L 414.72 41.472 
L 57.6 41.472 
z
" style="fill:#ffffff;"/>
   </g>
   <g id="line2d_1">
    <path clip-path="url(#pa00037db68)" d="M 73.832727 59.885623 
L 75.384541 62.185667 
L 75.643176 63.333547 
L 75.125905 63.333547 
L 74.867269 62.759607 
L 74.867269 62.185667 
L 75.384541 59.885623 
L 75.643176 59.311683 
L 75.384541 60.463846 
L 74.608634 62.185667 
L 74.608634 62.185667 
L 75.643176 62.185667 
L 76.422125 63.333547 
L 76.16349 63.333547 
L 75.643176 62.759607 
L 75.384541 62.185667 
L 75.384541 62.185667 
L 75.643176 61.037786 
L 75.384541 60.463846 
L 75.643176 61.037786 
L 75.643176 62.185667 
L 75.643176 61.037786 
L 75.125905 59.885623 
L 75.384541 58.737743 
L 75.643176 58.737743 
L 75.643176 60.463846 
L 75.643176 59.885623 
L 75.904854 60.463846 
L 75.904854 61.037786 
L 75.904854 59.885623 
L 76.16349 59.885623 
L 76.16349 61.611726 
L 75.904854 62.185667 
L 75.384541 62.759607 
L 75.125905 61.611726 
L 75.125905 60.463846 
L 75.643176 59.885623 
L 75.904854 59.885623 
L 75.904854 59.311683 
L 75.125905 57.589863 
L 75.643176 57.015923 
L 76.16349 58.163803 
L 76.16349 62.185667 
L 75.904854 61.037786 
L 75.643176 59.311683 
L 75.643176 58.163803 
L 75.643176 58.163803 
L 76.16349 59.311683 
L 76.939397 60.463846 
L 78.49121 59.311683 
L 79.525752 58.163803 
L 80.301659 57.589863 
L 81.077565 57.589863 
L 82.370743 57.015923 
L 83.663921 57.015923 
L 84.957098 56.4377 
L 87.026183 53.568 
L 87.802089 54.14194 
L 88.836631 55.28982 
L 89.612538 55.28982 
L 90.129809 55.86376 
L 90.388445 55.86376 
L 90.388445 53.568 
L 90.388445 53.568 
L 90.905716 58.163803 
L 91.684665 58.737743 
L 92.201936 58.163803 
L 93.236478 59.311683 
L 93.236478 61.037786 
L 93.75375 61.037786 
L 94.271021 61.611726 
L 94.529656 62.185667 
L 95.046927 62.759607 
L 95.046927 63.91177 
L 94.788292 64.48571 
L 95.046927 65.63359 
L 95.046927 66.20753 
L 91.943301 66.20753 
L 92.201936 66.20753 
L 92.460572 65.63359 
L 92.460572 65.63359 
L 91.943301 65.63359 
L 92.201936 65.05965 
L 92.719207 64.48571 
L 92.201936 64.48571 
L 91.684665 65.63359 
L 91.684665 67.359693 
L 92.460572 67.933633 
L 92.977843 66.78147 
L 92.977843 67.359693 
L 92.719207 67.359693 
L 92.460572 66.78147 
L 92.460572 66.20753 
L 92.719207 67.359693 
L 92.719207 67.359693 
L 92.719207 66.78147 
L 92.201936 65.63359 
L 91.684665 65.05965 
L 91.684665 66.20753 
L 92.201936 70.229393 
L 92.977843 68.507573 
L 92.719207 68.507573 
L 92.460572 69.081513 
L 92.977843 72.529436 
L 93.236478 72.529436 
L 93.236478 71.955496 
L 92.719207 71.381556 
L 92.460572 70.807616 
L 92.460572 70.229393 
L 92.719207 69.655453 
L 91.943301 69.655453 
L 91.943301 70.807616 
L 92.460572 69.655453 
L 92.977843 69.081513 
L 93.495114 69.655453 
L 93.495114 70.229393 
L 92.201936 70.229393 
L 92.201936 69.081513 
L 92.201936 69.081513 
L 91.943301 69.081513 
L 91.943301 69.081513 
L 91.42603 71.381556 
L 91.167394 73.103376 
L 91.167394 72.529436 
L 91.167394 71.381556 
L 90.64708 70.229393 
L 90.64708 70.229393 
L 90.905716 71.381556 
L 91.42603 71.955496 
L 91.42603 70.807616 
L 90.905716 70.229393 
L 90.64708 70.229393 
L 90.64708 70.229393 
L 90.64708 70.807616 
L 91.42603 72.529436 
L 91.167394 71.955496 
L 91.167394 71.381556 
L 91.42603 70.229393 
L 90.905716 69.081513 
L 90.905716 69.081513 
L 91.167394 69.081513 
L 91.943301 69.655453 
L 92.201936 69.655453 
L 91.943301 70.229393 
L 90.388445 70.229393 
L 90.64708 69.655453 
L 91.167394 69.081513 
L 92.201936 69.081513 
L 92.460572 68.507573 
L 92.201936 68.507573 
L 91.684665 69.081513 
L 91.42603 70.229393 
L 91.684665 70.807616 
L 92.201936 71.381556 
L 92.201936 71.381556 
L 91.943301 70.807616 
L 92.201936 70.229393 
L 91.943301 70.229393 
L 91.42603 69.655453 
L 91.167394 67.359693 
L 91.684665 67.933633 
L 91.943301 67.933633 
L 91.943301 67.359693 
L 91.684665 68.507573 
L 91.42603 69.081513 
L 91.42603 69.081513 
L 91.42603 70.229393 
L 91.943301 71.381556 
L 92.201936 71.381556 
L 92.460572 70.807616 
L 92.719207 70.807616 
L 92.460572 70.807616 
L 91.943301 70.229393 
L 91.943301 69.655453 
L 91.943301 69.655453 
L 91.684665 70.807616 
L 90.905716 71.381556 
L 90.388445 68.507573 
L 90.388445 71.955496 
L 90.905716 73.103376 
L 91.684665 71.955496 
L 92.460572 71.381556 
L 92.460572 71.955496 
L 92.460572 71.955496 
L 92.719207 70.807616 
L 92.460572 69.655453 
L 91.943301 70.229393 
L 91.684665 70.807616 
L 91.684665 70.807616 
L 91.684665 70.229393 
L 91.42603 70.229393 
L 91.42603 69.081513 
L 91.42603 70.807616 
L 91.943301 71.955496 
L 92.460572 71.955496 
L 92.977843 70.807616 
L 92.719207 70.229393 
L 91.42603 73.103376 
L 91.684665 71.955496 
L 92.201936 70.807616 
L 92.460572 71.381556 
L 92.719207 71.381556 
L 92.201936 70.807616 
L 91.943301 70.807616 
L 91.943301 71.381556 
L 92.201936 72.529436 
L 92.201936 74.251256 
L 91.943301 74.829479 
L 91.943301 74.251256 
L 92.201936 73.677316 
L 92.460572 73.677316 
L 92.460572 74.829479 
L 92.719207 74.251256 
L 92.719207 73.103376 
L 92.460572 72.529436 
L 92.460572 71.955496 
L 92.719207 71.381556 
L 93.236478 73.103376 
L 93.236478 73.677316 
L 93.236478 73.103376 
L 92.719207 72.529436 
L 92.201936 71.381556 
L 93.495114 71.381556 
L 94.529656 70.807616 
L 95.564198 70.807616 
L 96.59874 71.381556 
L 98.150554 72.529436 
L 100.736909 73.677316 
L 103.840536 74.829479 
L 107.20584 74.829479 
L 115.223542 72.529436 
L 118.585804 72.529436 
L 122.46838 73.103376 
L 126.606549 74.251256 
L 131.520624 74.251256 
L 136.434699 73.103376 
L 140.834546 72.529436 
L 149.88679 72.529436 
L 161.011161 73.677316 
L 176.790972 73.677316 
L 181.705047 75.403419 
L 186.880801 77.699179 
L 192.053512 79.425283 
L 196.708952 80.573163 
L 201.108799 81.147103 
L 205.764238 82.299266 
L 210.936949 85.173249 
L 224.38904 91.490872 
L 228.271616 92.069096 
L 236.547953 92.069096 
L 240.168851 93.216976 
L 243.272477 94.938796 
L 246.637782 96.090959 
L 256.724568 97.812779 
L 259.572602 97.238839 
L 264.228042 99.538882 
L 266.297126 100.112822 
L 271.987108 100.112822 
L 274.059235 101.260702 
L 275.611048 102.408582 
L 277.680133 104.134685 
L 277.938768 104.708625 
L 277.680133 106.434729 
L 276.904226 108.156549 
L 276.386955 109.882652 
L 275.352413 111.030532 
L 273.538921 116.200275 
L 272.245744 119.074258 
L 269.659388 122.522182 
L 268.624846 123.674345 
L 267.073033 124.822225 
L 265.779855 126.544045 
L 264.745313 131.144131 
L 264.228042 134.592054 
L 264.228042 135.739934 
L 263.452135 137.461754 
L 263.452135 138.039978 
L 262.934864 139.187858 
L 262.417593 142.635781 
L 262.417593 144.357601 
L 262.158957 144.935824 
L 262.158957 146.657644 
L 261.383051 154.127431 
L 261.383051 155.275311 
L 261.124415 156.427474 
L 261.124415 158.149294 
L 260.86578 158.723234 
L 260.607144 158.723234 
L 260.348509 159.301457 
L 260.089873 160.449337 
L 260.089873 162.74938 
L 259.831238 165.04514 
L 259.055331 166.197303 
L 258.276382 166.197303 
L 257.500475 165.61908 
L 256.983204 165.04514 
L 256.724568 165.61908 
L 256.983204 167.345184 
L 256.983204 169.645227 
L 257.241839 171.367047 
L 256.983204 172.514927 
L 256.465933 175.38891 
L 256.724568 175.38891 
L 256.724568 176.541073 
L 256.465933 177.688953 
L 256.207297 178.262893 
L 256.465933 178.262893 
L 256.465933 179.984713 
L 256.207297 182.284756 
L 256.207297 184.01086 
L 256.465933 184.01086 
L 256.465933 184.5848 
L 256.207297 184.5848 
L 256.465933 184.5848 
L 256.983204 188.032723 
L 256.724568 188.606663 
L 255.948662 188.032723 
L 255.431391 188.606663 
L 255.172755 190.328483 
L 255.172755 191.480646 
L 255.172755 191.480646 
L 254.91412 190.906706 
L 254.396848 191.480646 
L 254.396848 193.202466 
L 255.172755 193.776406 
L 255.948662 193.776406 
L 255.172755 198.376493 
L 255.172755 200.672253 
L 254.91412 201.824416 
L 253.879577 201.824416 
L 253.103671 200.672253 
L 253.620942 200.098313 
L 254.396848 200.672253 
L 254.396848 207.568099 
L 253.879577 208.142039 
L 253.620942 208.142039 
L 253.620942 207.568099 
L 253.362306 207.568099 
L 252.845035 206.420219 
L 253.103671 207.568099 
L 253.362306 209.868142 
L 253.362306 211.016022 
L 254.655484 211.016022 
L 254.91412 212.742126 
L 254.396848 216.763989 
L 253.879577 217.337929 
L 252.845035 215.037886 
L 253.879577 219.637972 
L 253.620942 219.637972 
L 253.620942 219.064032 
L 253.879577 217.911869 
L 253.879577 218.485809 
L 253.620942 219.064032 
L 253.620942 219.064032 
L 254.396848 219.064032 
L 255.431391 218.485809 
L 256.724568 217.911869 
L 260.607144 217.911869 
L 263.452135 216.763989 
L 271.211201 215.616109 
L 275.352413 213.316066 
L 280.007853 210.442082 
L 285.180563 207.568099 
L 289.839046 206.420219 
L 294.494486 206.420219 
L 299.408561 205.272339 
L 316.740185 200.098313 
L 327.088649 198.950433 
L 332.778631 197.224329 
L 337.695749 194.354629 
L 342.351189 192.054586 
L 347.006629 190.328483 
L 361.493262 190.328483 
L 365.634473 188.606663 
L 369.772642 186.30662 
L 373.910811 183.432637 
L 377.790344 182.284756 
L 381.155649 181.136876 
L 384.259275 181.136876 
L 387.362902 180.562936 
L 390.466528 178.836833 
L 392.794248 177.688953 
L 394.863332 177.115013 
L 396.418188 176.541073 
L 397.194095 175.38891 
L 397.970002 175.38891 
L 398.228637 175.96285 
L 397.970002 176.541073 
L 396.159553 176.541073 
L 395.380603 177.115013 
L 394.087426 178.262893 
L 392.794248 179.984713 
L 391.50107 181.136876 
L 389.949257 182.284756 
L 387.880173 183.432637 
L 386.32836 184.5848 
L 386.069724 185.73268 
L 386.32836 186.30662 
L 386.32836 186.88056 
L 385.552453 188.032723 
L 384.776546 189.754543 
L 384.776546 190.906706 
L 385.552453 192.628526 
L 385.552453 196.076449 
L 385.552453 196.076449 
L 385.811088 196.076449 
L 385.035182 196.076449 
L 384.517911 196.650389 
L 384.259275 197.224329 
L 384.517911 197.802553 
L 384.517911 198.376493 
L 384.776546 199.524373 
L 384.776546 198.950433 
L 384.259275 198.376493 
L 382.966097 198.950433 
L 382.448826 200.672253 
L 382.448826 200.672253 
L 382.448826 201.250476 
L 381.67292 202.972296 
L 381.414284 202.972296 
L 381.414284 202.398356 
L 381.155649 201.824416 
L 380.897013 201.824416 
L 380.897013 200.672253 
L 381.155649 200.098313 
L 382.190191 202.398356 
L 382.448826 204.120176 
L 382.190191 204.698399 
L 381.67292 205.272339 
L 381.155649 205.272339 
L 381.155649 202.972296 
L 380.897013 204.120176 
L 380.897013 204.698399 
L 381.155649 204.698399 
L 380.897013 204.698399 
L 380.897013 205.272339 
L 380.635335 205.846279 
L 380.376699 205.272339 
L 380.897013 205.272339 
L 381.155649 204.698399 
L 381.155649 204.120176 
L 380.897013 203.546236 
L 380.376699 204.120176 
L 379.600793 205.272339 
L 379.600793 205.846279 
L 380.897013 205.846279 
L 380.635335 205.272339 
L 380.118064 204.698399 
L 379.859428 205.272339 
L 380.118064 206.994159 
L 380.118064 208.142039 
L 380.376699 208.720262 
L 379.859428 209.868142 
L 379.600793 209.294202 
L 379.859428 208.142039 
L 379.859428 208.142039 
L 379.600793 208.720262 
L 379.083522 208.720262 
L 378.56625 208.142039 
L 378.824886 208.142039 
L 379.342157 209.294202 
L 379.600793 211.016022 
L 379.600793 213.316066 
L 379.342157 212.742126 
L 379.342157 211.589962 
L 379.083522 212.168186 
L 378.824886 212.168186 
L 378.824886 212.168186 
L 378.824886 212.742126 
L 379.342157 213.890006 
L 379.600793 213.890006 
L 379.859428 213.316066 
L 379.600793 213.890006 
L 378.824886 213.890006 
L 378.56625 214.463946 
L 378.307615 214.463946 
L 378.307615 216.190049 
L 378.307615 215.037886 
L 378.824886 212.168186 
L 378.824886 212.168186 
L 379.083522 212.742126 
L 379.083522 214.463946 
L 379.342157 213.890006 
L 379.342157 213.890006 
L 379.342157 214.463946 
L 379.600793 214.463946 
L 379.859428 213.890006 
L 379.342157 214.463946 
L 378.56625 213.890006 
L 378.307615 214.463946 
L 378.56625 215.037886 
L 379.083522 215.616109 
L 379.342157 214.463946 
L 379.342157 213.890006 
L 379.600793 213.890006 
L 379.600793 214.463946 
L 379.859428 215.037886 
L 380.118064 215.037886 
L 378.824886 215.037886 
L 378.824886 215.037886 
L 379.083522 213.890006 
L 378.56625 211.589962 
L 378.307615 212.168186 
L 378.307615 212.742126 
L 378.56625 213.316066 
L 378.56625 212.168186 
L 378.824886 211.016022 
L 378.824886 211.016022 
L 378.824886 210.442082 
L 379.083522 209.294202 
L 379.342157 209.294202 
L 379.083522 209.294202 
L 378.824886 209.868142 
L 378.824886 210.442082 
L 379.083522 211.589962 
L 379.342157 212.168186 
L 378.56625 212.168186 
L 377.531708 210.442082 
L 377.790344 210.442082 
L 377.790344 210.442082 
L 377.790344 209.868142 
L 377.273073 208.142039 
L 377.531708 207.568099 
L 377.790344 208.142039 
L 378.048979 207.568099 
L 378.048979 206.420219 
L 378.307615 205.272339 
L 378.307615 205.272339 
L 378.56625 204.698399 
L 378.307615 204.120176 
L 378.307615 204.120176 
L 377.273073 204.120176 
L 377.531708 203.546236 
L 377.790344 203.546236 
L 377.531708 204.698399 
L 377.273073 204.698399 
L 377.273073 202.972296 
L 377.531708 202.398356 
L 378.048979 201.824416 
L 378.048979 202.398356 
L 377.790344 202.398356 
L 377.790344 201.824416 
L 377.273073 201.250476 
L 376.755802 201.824416 
L 376.755802 201.824416 
L 377.273073 200.672253 
L 377.273073 200.672253 
L 376.755802 200.098313 
L 375.979895 200.098313 
L 375.979895 199.524373 
L 375.72126 198.950433 
L 375.72126 198.376493 
L 376.497166 197.802553 
L 377.014437 196.076449 
L 377.273073 196.076449 
L 377.273073 196.076449 
L 377.273073 196.650389 
L 375.462624 196.650389 
L 373.910811 197.802553 
L 371.324455 200.098313 
L 369.514007 201.250476 
L 366.927651 201.824416 
L 360.45872 204.120176 
L 356.837822 206.420219 
L 347.782536 207.568099 
L 342.86846 209.294202 
L 338.21302 212.168186 
L 333.037267 215.037886 
L 327.347285 217.911869 
L 315.447007 224.807715 
L 309.239754 227.107759 
L 304.064001 229.981742 
L 299.149925 232.855725 
L 294.23585 235.151485 
L 289.060097 238.025468 
L 284.146021 241.473391 
L 278.97331 244.347375 
L 274.059235 247.795298 
L 269.400753 251.817161 
L 265.262584 254.691144 
L 260.607144 256.986904 
L 256.207297 259.286948 
L 251.810493 262.160931 
L 244.568698 268.482837 
L 240.944758 271.352537 
L 234.478869 272.504701 
L 231.892514 274.226521 
L 229.047523 277.100504 
L 226.458124 279.974487 
L 223.871769 281.122367 
L 221.285414 281.122367 
L 218.957694 280.548427 
L 217.40588 281.696307 
L 216.371338 283.42241 
L 214.302254 285.722453 
L 214.043618 286.296393 
L 214.043618 286.870333 
L 213.784983 286.296393 
L 213.784983 285.14423 
L 214.043618 284.57029 
L 214.302254 285.722453 
L 214.302254 286.296393 
L 216.629974 286.296393 
L 217.40588 285.722453 
L 217.147245 286.296393 
L 216.112703 287.444274 
L 215.336796 287.444274 
L 215.336796 286.870333 
L 215.595432 287.444274 
L 215.854067 287.444274 
L 215.078161 287.444274 
L 215.336796 288.592154 
L 215.595432 290.892197 
L 215.336796 291.466137 
L 214.56089 290.892197 
L 214.302254 288.592154 
L 214.302254 288.592154 
L 214.302254 288.018214 
L 214.56089 288.018214 
L 214.819525 287.444274 
L 214.56089 286.870333 
L 213.784983 287.444274 
L 213.267712 289.166094 
L 213.009076 290.892197 
L 214.043618 290.892197 
L 214.302254 290.318257 
L 214.56089 290.892197 
L 214.302254 292.040077 
L 213.526347 292.040077 
L 213.009076 289.744317 
L 213.009076 288.592154 
L 213.267712 288.592154 
L 213.267712 289.166094 
L 213.009076 289.744317 
L 212.488762 290.318257 
L 212.488762 289.744317 
L 212.747398 289.166094 
L 213.267712 289.166094 
L 213.526347 290.892197 
L 213.009076 291.466137 
L 212.747398 290.892197 
L 212.747398 290.892197 
L 212.230127 291.466137 
L 211.971491 292.040077 
L 212.230127 292.614017 
L 212.747398 291.466137 
L 212.747398 289.166094 
L 212.488762 289.166094 
L 212.488762 290.318257 
L 213.009076 291.466137 
L 213.009076 290.892197 
L 212.747398 290.892197 
L 212.747398 290.892197 
L 213.009076 291.466137 
L 212.747398 290.892197 
L 213.526347 290.892197 
L 213.784983 292.040077 
L 213.009076 292.040077 
L 212.230127 291.466137 
L 212.230127 289.166094 
L 211.971491 289.166094 
L 212.488762 290.318257 
L 213.009076 292.040077 
L 213.526347 290.892197 
L 213.267712 290.318257 
L 212.488762 290.318257 
L 212.747398 290.318257 
L 212.747398 291.466137 
L 213.009076 292.040077 
L 213.526347 292.040077 
L 213.526347 292.614017 
L 213.009076 292.614017 
L 213.267712 292.614017 
L 213.267712 291.466137 
L 213.009076 290.892197 
L 212.747398 290.892197 
L 212.747398 292.614017 
L 212.230127 294.34012 
L 212.230127 295.488 
L 212.488762 294.91406 
L 212.747398 294.91406 
L 213.009076 294.34012 
L 212.747398 293.76618 
L 212.488762 292.614017 
L 212.488762 292.614017 
L 212.747398 293.19224 
L 212.488762 292.614017 
L 212.488762 294.34012 
L 212.747398 294.34012 
L 212.488762 294.91406 
L 211.971491 295.488 
L 211.971491 295.488 
L 212.230127 294.34012 
L 211.971491 292.614017 
L 211.712856 292.040077 
L 213.009076 292.040077 
L 213.009076 292.040077 
L 213.009076 291.466137 
L 213.009076 292.040077 
L 212.747398 293.19224 
L 212.747398 294.91406 
L 211.971491 294.91406 
L 211.971491 292.614017 
L 212.230127 292.614017 
L 212.488762 293.19224 
L 212.488762 292.614017 
L 212.230127 292.040077 
L 211.971491 292.040077 
L 212.230127 292.614017 
L 212.747398 291.466137 
L 212.747398 291.466137 
L 212.230127 292.040077 
L 211.971491 292.040077 
L 211.971491 294.91406 
L 212.230127 295.488 
L 212.230127 292.614017 
L 211.971491 291.466137 
L 212.488762 292.614017 
L 211.971491 291.466137 
L 211.971491 290.892197 
L 212.488762 292.040077 
L 212.488762 292.040077 
L 212.747398 292.040077 
L 213.009076 292.614017 
L 212.747398 293.19224 
L 213.009076 292.614017 
L 213.009076 290.318257 
L 212.488762 290.892197 
L 211.971491 290.892197 
L 211.712856 290.318257 
L 211.971491 290.318257 
L 212.230127 292.040077 
L 211.971491 292.614017 
L 212.230127 293.19224 
L 212.230127 292.614017 
L 211.712856 292.040077 
L 211.45422 291.466137 
L 211.712856 290.318257 
L 211.712856 288.018214 
L 211.971491 287.444274 
L 211.971491 287.444274 
L 212.230127 288.018214 
L 211.971491 288.018214 
L 211.971491 288.592154 
L 212.488762 289.166094 
L 212.488762 289.166094 
L 211.971491 289.166094 
L 211.45422 288.592154 
L 211.712856 288.018214 
L 212.230127 288.018214 
L 211.971491 288.592154 
L 211.712856 288.592154 
L 212.747398 288.592154 
L 212.747398 288.018214 
L 212.488762 286.870333 
L 212.747398 285.722453 
L 213.267712 286.296393 
L 213.009076 288.018214 
L 212.230127 288.592154 
L 212.230127 288.018214 
L 212.747398 287.444274 
L 212.488762 286.870333 
L 211.712856 286.296393 
L 211.45422 285.722453 
L 211.45422 285.722453 
L 211.45422 286.296393 
L 211.712856 286.296393 
L 211.712856 288.592154 
L 212.230127 289.166094 
L 212.488762 289.166094 
L 212.747398 288.592154 
L 212.747398 288.018214 
L 211.971491 286.296393 
L 211.712856 286.296393 
L 211.971491 286.870333 
L 211.712856 287.444274 
L 211.195585 288.018214 
L 211.45422 286.296393 
L 211.712856 285.722453 
L 211.712856 286.870333 
L 211.45422 288.018214 
L 211.45422 287.444274 
L 211.712856 286.870333 
L 211.971491 286.870333 
L 212.230127 285.722453 
L 212.488762 285.14423 
L 212.230127 284.57029 
L 211.712856 285.14423 
L 211.712856 286.296393 
L 211.971491 286.870333 
L 211.971491 287.444274 
L 211.45422 287.444274 
L 211.712856 287.444274 
L 212.230127 286.870333 
L 212.230127 287.444274 
L 211.971491 286.870333 
L 212.230127 286.296393 
L 212.488762 285.14423 
L 212.488762 283.99635 
L 212.230127 283.42241 
L 212.230127 284.57029 
L 212.488762 285.14423 
L 212.488762 283.99635 
L 211.971491 283.99635 
L 211.712856 284.57029 
L 211.971491 285.722453 
L 212.488762 285.722453 
L 212.488762 286.296393 
L 211.971491 286.870333 
L 211.971491 286.870333 
L 211.712856 285.722453 
L 211.195585 284.57029 
L 211.195585 283.99635 
L 212.230127 283.99635 
L 211.712856 283.99635 
L 211.712856 283.42241 
L 211.45422 283.99635 
L 211.195585 285.14423 
L 211.45422 285.14423 
L 211.971491 283.42241 
L 212.488762 282.84847 
L 213.009076 283.42241 
L 213.267712 284.57029 
L 212.747398 284.57029 
L 212.230127 285.14423 
L 212.230127 286.296393 
L 212.230127 286.296393 
L 212.488762 285.14423 
L 212.488762 282.27453 
L 212.230127 282.84847 
L 211.195585 282.84847 
L 211.195585 283.42241 
L 211.45422 284.57029 
L 211.45422 284.57029 
L 211.45422 283.99635 
L 211.712856 283.42241 
L 211.712856 283.99635 
L 211.712856 283.99635 
L 211.195585 281.696307 
L 211.712856 281.122367 
L 212.230127 282.27453 
L 212.230127 283.42241 
L 212.230127 282.84847 
L 212.488762 283.42241 
L 212.230127 283.42241 
L 212.488762 282.84847 
L 212.747398 282.84847 
L 212.747398 282.84847 
L 212.747398 282.27453 
L 213.009076 281.696307 
L 213.526347 281.122367 
L 214.302254 279.974487 
L 215.336796 279.400547 
L 217.147245 279.400547 
L 219.992236 279.974487 
L 223.095862 279.400547 
L 226.199489 277.674444 
L 230.3407 274.226521 
L 234.99614 270.204657 
L 240.168851 266.182794 
L 245.344604 263.882751 
L 250.517315 261.008768 
L 256.207297 257.565128 
L 262.417593 254.117204 
L 268.624846 250.091058 
L 275.352413 247.221358 
L 282.076937 243.773435 
L 294.494486 236.877588 
L 301.21901 234.003605 
L 314.15383 225.959878 
L 320.364125 221.359792 
L 326.571378 217.337929 
L 332.519996 212.742126 
L 337.954385 209.294202 
L 342.86846 206.420219 
L 347.5239 204.120176 
L 352.441018 202.398356 
L 357.096458 200.098313 
L 361.751898 198.376493 
L 365.634473 196.650389 
L 369.255371 195.502509 
L 372.617633 193.202466 
L 376.238531 189.754543 
L 379.859428 187.458783 
L 383.224733 185.15874 
L 386.586995 183.432637 
L 391.50107 181.136876 
L 393.570155 179.984713 
L 397.711366 174.24103 
L 398.228637 174.24103 
L 398.487273 173.66709 
L 397.970002 173.09315 
L 397.194095 173.66709 
L 396.159553 175.96285 
L 394.863332 177.115013 
L 392.794248 177.115013 
L 390.207893 180.562936 
L 389.690622 181.710816 
L 388.914715 182.284756 
L 388.138808 182.284756 
L 387.621537 182.858697 
L 387.362902 182.284756 
L 387.362902 181.710816 
L 386.069724 181.710816 
L 385.811088 182.284756 
L 386.845631 183.432637 
L 387.104266 183.432637 
L 387.362902 184.01086 
L 387.362902 185.15874 
L 386.845631 185.15874 
L 386.32836 184.01086 
L 385.811088 183.432637 
L 385.811088 184.01086 
L 385.552453 185.15874 
L 385.552453 186.30662 
L 385.035182 186.88056 
L 384.00064 185.73268 
L 384.00064 185.73268 
L 384.00064 186.88056 
L 383.742004 188.032723 
L 383.224733 188.032723 
L 382.448826 187.458783 
L 382.190191 186.88056 
L 382.448826 187.458783 
L 383.224733 188.606663 
L 383.483369 189.754543 
L 382.707462 188.606663 
L 381.931555 186.88056 
L 381.931555 186.30662 
L 382.448826 186.88056 
L 382.448826 187.458783 
L 382.448826 186.88056 
L 381.931555 186.88056 
L 381.67292 187.458783 
L 381.67292 188.606663 
L 381.414284 189.754543 
L 381.155649 188.032723 
L 381.155649 186.30662 
L 380.897013 186.30662 
L 380.897013 188.032723 
L 380.635335 188.032723 
L 381.155649 187.458783 
L 381.414284 186.30662 
L 381.931555 185.73268 
L 381.931555 185.73268 
L 381.931555 186.30662 
L 380.897013 186.30662 
L 380.897013 186.30662 
L 380.635335 186.88056 
L 380.376699 186.88056 
L 380.376699 186.30662 
L 380.376699 186.88056 
L 380.635335 186.30662 
L 380.635335 186.30662 
L 380.635335 185.73268 
L 380.376699 186.30662 
L 380.376699 186.88056 
L 380.635335 186.88056 
L 380.635335 186.88056 
L 380.118064 185.73268 
L 379.859428 184.5848 
L 379.600793 184.5848 
L 379.600793 185.73268 
L 379.859428 187.458783 
L 380.376699 188.032723 
L 380.897013 187.458783 
L 380.897013 186.30662 
L 380.376699 185.73268 
L 380.118064 185.73268 
L 380.376699 186.30662 
L 380.376699 186.30662 
L 379.859428 185.73268 
L 379.600793 185.15874 
L 379.083522 185.15874 
L 379.342157 185.15874 
L 379.342157 184.5848 
L 378.824886 184.5848 
L 378.824886 184.01086 
L 379.342157 183.432637 
L 378.824886 184.5848 
L 378.824886 184.01086 
L 379.342157 183.432637 
L 379.342157 183.432637 
L 379.083522 182.858697 
L 379.600793 184.01086 
L 379.859428 185.15874 
L 379.859428 184.01086 
L 379.600793 183.432637 
L 379.083522 183.432637 
L 379.859428 183.432637 
L 380.635335 184.5848 
L 380.635335 185.15874 
L 380.118064 186.30662 
L 379.600793 186.88056 
L 379.083522 186.88056 
L 378.824886 185.15874 
L 379.083522 183.432637 
L 379.342157 182.858697 
L 379.342157 183.432637 
L 378.824886 184.5848 
L 378.307615 184.01086 
L 378.56625 182.858697 
L 378.824886 182.284756 
L 379.083522 182.284756 
L 379.083522 182.284756 
L 378.824886 182.858697 
L 378.824886 184.5848 
L 379.083522 186.30662 
L 379.859428 186.30662 
L 380.118064 185.15874 
L 380.118064 184.5848 
L 379.859428 184.5848 
L 379.342157 184.01086 
L 378.307615 184.01086 
L 378.307615 184.01086 
L 378.307615 184.5848 
L 378.307615 183.432637 
L 378.048979 182.284756 
L 378.307615 182.858697 
L 378.307615 182.858697 
L 378.307615 184.01086 
L 377.790344 183.432637 
L 377.273073 182.284756 
L 378.048979 182.284756 
L 378.048979 183.432637 
L 377.531708 184.01086 
L 377.014437 185.15874 
L 377.014437 184.5848 
L 377.273073 182.858697 
L 377.790344 182.284756 
L 377.790344 182.284756 
L 377.014437 182.858697 
L 376.497166 182.284756 
L 377.014437 181.710816 
L 377.790344 180.562936 
L 377.790344 181.136876 
L 377.531708 181.710816 
L 377.531708 181.710816 
L 377.531708 179.984713 
L 377.273073 179.984713 
L 377.531708 179.984713 
L 377.531708 181.136876 
L 377.273073 182.284756 
L 377.014437 184.5848 
L 377.014437 185.73268 
L 377.273073 185.15874 
L 377.531708 184.01086 
L 377.531708 182.858697 
L 377.790344 181.136876 
L 377.531708 181.136876 
L 377.273073 181.710816 
L 376.755802 181.136876 
L 376.755802 180.562936 
L 377.273073 181.136876 
L 377.531708 181.710816 
L 377.273073 181.710816 
L 376.238531 180.562936 
L 376.238531 180.562936 
" style="fill:none;stroke:#1f77b4;stroke-linecap:square;stroke-width:1.5;"/>
   </g>
   <g id="matplotlib.axis_1">
    <g id="xtick_1">
     <g id="line2d_2">
      <defs>
       <path d="M 0 0 
L 0 3.5 
" id="m86d2fd953e" style="stroke:#000000;stroke-width:0.8;"/>
      </defs>
      <g>
       <use style="stroke:#000000;stroke-width:0.8;" x="114.255941" xlink:href="#m86d2fd953e" y="307.584"/>
      </g>
     </g>
     <g id="text_1">
      <!-- −600 -->
      <defs>
       <path d="M 10.59375 35.5 
L 73.1875 35.5 
L 73.1875 27.203125 
L 10.59375 27.203125 
z
" id="DejaVuSans-8722"/>
       <path d="M 33.015625 40.375 
Q 26.375 40.375 22.484375 35.828125 
Q 18.609375 31.296875 18.609375 23.390625 
Q 18.609375 15.53125 22.484375 10.953125 
Q 26.375 6.390625 33.015625 6.390625 
Q 39.65625 6.390625 43.53125 10.953125 
Q 47.40625 15.53125 47.40625 23.390625 
Q 47.40625 31.296875 43.53125 35.828125 
Q 39.65625 40.375 33.015625 40.375 
z
M 52.59375 71.296875 
L 52.59375 62.3125 
Q 48.875 64.0625 45.09375 64.984375 
Q 41.3125 65.921875 37.59375 65.921875 
Q 27.828125 65.921875 22.671875 59.328125 
Q 17.53125 52.734375 16.796875 39.40625 
Q 19.671875 43.65625 24.015625 45.921875 
Q 28.375 48.1875 33.59375 48.1875 
Q 44.578125 48.1875 50.953125 41.515625 
Q 57.328125 34.859375 57.328125 23.390625 
Q 57.328125 12.15625 50.6875 5.359375 
Q 44.046875 -1.421875 33.015625 -1.421875 
Q 20.359375 -1.421875 13.671875 8.265625 
Q 6.984375 17.96875 6.984375 36.375 
Q 6.984375 53.65625 15.1875 63.9375 
Q 23.390625 74.21875 37.203125 74.21875 
Q 40.921875 74.21875 44.703125 73.484375 
Q 48.484375 72.75 52.59375 71.296875 
z
" id="DejaVuSans-54"/>
       <path d="M 31.78125 66.40625 
Q 24.171875 66.40625 20.328125 58.90625 
Q 16.5 51.421875 16.5 36.375 
Q 16.5 21.390625 20.328125 13.890625 
Q 24.171875 6.390625 31.78125 6.390625 
Q 39.453125 6.390625 43.28125 13.890625 
Q 47.125 21.390625 47.125 36.375 
Q 47.125 51.421875 43.28125 58.90625 
Q 39.453125 66.40625 31.78125 66.40625 
z
M 31.78125 74.21875 
Q 44.046875 74.21875 50.515625 64.515625 
Q 56.984375 54.828125 56.984375 36.375 
Q 56.984375 17.96875 50.515625 8.265625 
Q 44.046875 -1.421875 31.78125 -1.421875 
Q 19.53125 -1.421875 13.0625 8.265625 
Q 6.59375 17.96875 6.59375 36.375 
Q 6.59375 54.828125 13.0625 64.515625 
Q 19.53125 74.21875 31.78125 74.21875 
z
" id="DejaVuSans-48"/>
      </defs>
      <g transform="translate(100.522347 322.182437)scale(0.1 -0.1)">
       <use xlink:href="#DejaVuSans-8722"/>
       <use x="83.789062" xlink:href="#DejaVuSans-54"/>
       <use x="147.412109" xlink:href="#DejaVuSans-48"/>
       <use x="211.035156" xlink:href="#DejaVuSans-48"/>
      </g>
     </g>
    </g>
    <g id="xtick_2">
     <g id="line2d_3">
      <g>
       <use style="stroke:#000000;stroke-width:0.8;" x="175.111363" xlink:href="#m86d2fd953e" y="307.584"/>
      </g>
     </g>
     <g id="text_2">
      <!-- −400 -->
      <defs>
       <path d="M 37.796875 64.3125 
L 12.890625 25.390625 
L 37.796875 25.390625 
z
M 35.203125 72.90625 
L 47.609375 72.90625 
L 47.609375 25.390625 
L 58.015625 25.390625 
L 58.015625 17.1875 
L 47.609375 17.1875 
L 47.609375 0 
L 37.796875 0 
L 37.796875 17.1875 
L 4.890625 17.1875 
L 4.890625 26.703125 
z
" id="DejaVuSans-52"/>
      </defs>
      <g transform="translate(161.377769 322.182437)scale(0.1 -0.1)">
       <use xlink:href="#DejaVuSans-8722"/>
       <use x="83.789062" xlink:href="#DejaVuSans-52"/>
       <use x="147.412109" xlink:href="#DejaVuSans-48"/>
       <use x="211.035156" xlink:href="#DejaVuSans-48"/>
      </g>
     </g>
    </g>
    <g id="xtick_3">
     <g id="line2d_4">
      <g>
       <use style="stroke:#000000;stroke-width:0.8;" x="235.966784" xlink:href="#m86d2fd953e" y="307.584"/>
      </g>
     </g>
     <g id="text_3">
      <!-- −200 -->
      <defs>
       <path d="M 19.1875 8.296875 
L 53.609375 8.296875 
L 53.609375 0 
L 7.328125 0 
L 7.328125 8.296875 
Q 12.9375 14.109375 22.625 23.890625 
Q 32.328125 33.6875 34.8125 36.53125 
Q 39.546875 41.84375 41.421875 45.53125 
Q 43.3125 49.21875 43.3125 52.78125 
Q 43.3125 58.59375 39.234375 62.25 
Q 35.15625 65.921875 28.609375 65.921875 
Q 23.96875 65.921875 18.8125 64.3125 
Q 13.671875 62.703125 7.8125 59.421875 
L 7.8125 69.390625 
Q 13.765625 71.78125 18.9375 73 
Q 24.125 74.21875 28.421875 74.21875 
Q 39.75 74.21875 46.484375 68.546875 
Q 53.21875 62.890625 53.21875 53.421875 
Q 53.21875 48.921875 51.53125 44.890625 
Q 49.859375 40.875 45.40625 35.40625 
Q 44.1875 33.984375 37.640625 27.21875 
Q 31.109375 20.453125 19.1875 8.296875 
z
" id="DejaVuSans-50"/>
      </defs>
      <g transform="translate(222.23319 322.182437)scale(0.1 -0.1)">
       <use xlink:href="#DejaVuSans-8722"/>
       <use x="83.789062" xlink:href="#DejaVuSans-50"/>
       <use x="147.412109" xlink:href="#DejaVuSans-48"/>
       <use x="211.035156" xlink:href="#DejaVuSans-48"/>
      </g>
     </g>
    </g>
    <g id="xtick_4">
     <g id="line2d_5">
      <g>
       <use style="stroke:#000000;stroke-width:0.8;" x="296.822206" xlink:href="#m86d2fd953e" y="307.584"/>
      </g>
     </g>
     <g id="text_4">
      <!-- 0 -->
      <g transform="translate(293.640956 322.182437)scale(0.1 -0.1)">
       <use xlink:href="#DejaVuSans-48"/>
      </g>
     </g>
    </g>
    <g id="xtick_5">
     <g id="line2d_6">
      <g>
       <use style="stroke:#000000;stroke-width:0.8;" x="357.677627" xlink:href="#m86d2fd953e" y="307.584"/>
      </g>
     </g>
     <g id="text_5">
      <!-- 200 -->
      <g transform="translate(348.133877 322.182437)scale(0.1 -0.1)">
       <use xlink:href="#DejaVuSans-50"/>
       <use x="63.623047" xlink:href="#DejaVuSans-48"/>
       <use x="127.246094" xlink:href="#DejaVuSans-48"/>
      </g>
     </g>
    </g>
   </g>
   <g id="matplotlib.axis_2">
    <g id="ytick_1">
     <g id="line2d_7">
      <defs>
       <path d="M 0 0 
L -3.5 0 
" id="m1d8f41a48c" style="stroke:#000000;stroke-width:0.8;"/>
      </defs>
      <g>
       <use style="stroke:#000000;stroke-width:0.8;" x="57.6" xlink:href="#m1d8f41a48c" y="281.370789"/>
      </g>
     </g>
     <g id="text_6">
      <!-- −500 -->
      <defs>
       <path d="M 10.796875 72.90625 
L 49.515625 72.90625 
L 49.515625 64.59375 
L 19.828125 64.59375 
L 19.828125 46.734375 
Q 21.96875 47.46875 24.109375 47.828125 
Q 26.265625 48.1875 28.421875 48.1875 
Q 40.625 48.1875 47.75 41.5 
Q 54.890625 34.8125 54.890625 23.390625 
Q 54.890625 11.625 47.5625 5.09375 
Q 40.234375 -1.421875 26.90625 -1.421875 
Q 22.3125 -1.421875 17.546875 -0.640625 
Q 12.796875 0.140625 7.71875 1.703125 
L 7.71875 11.625 
Q 12.109375 9.234375 16.796875 8.0625 
Q 21.484375 6.890625 26.703125 6.890625 
Q 35.15625 6.890625 40.078125 11.328125 
Q 45.015625 15.765625 45.015625 23.390625 
Q 45.015625 31 40.078125 35.4375 
Q 35.15625 39.890625 26.703125 39.890625 
Q 22.75 39.890625 18.8125 39.015625 
Q 14.890625 38.140625 10.796875 36.28125 
z
" id="DejaVuSans-53"/>
      </defs>
      <g transform="translate(23.132812 285.170008)scale(0.1 -0.1)">
       <use xlink:href="#DejaVuSans-8722"/>
       <use x="83.789062" xlink:href="#DejaVuSans-53"/>
       <use x="147.412109" xlink:href="#DejaVuSans-48"/>
       <use x="211.035156" xlink:href="#DejaVuSans-48"/>
      </g>
     </g>
    </g>
    <g id="ytick_2">
     <g id="line2d_8">
      <g>
       <use style="stroke:#000000;stroke-width:0.8;" x="57.6" xlink:href="#m1d8f41a48c" y="238.539444"/>
      </g>
     </g>
     <g id="text_7">
      <!-- −400 -->
      <g transform="translate(23.132812 242.338663)scale(0.1 -0.1)">
       <use xlink:href="#DejaVuSans-8722"/>
       <use x="83.789062" xlink:href="#DejaVuSans-52"/>
       <use x="147.412109" xlink:href="#DejaVuSans-48"/>
       <use x="211.035156" xlink:href="#DejaVuSans-48"/>
      </g>
     </g>
    </g>
    <g id="ytick_3">
     <g id="line2d_9">
      <g>
       <use style="stroke:#000000;stroke-width:0.8;" x="57.6" xlink:href="#m1d8f41a48c" y="195.7081"/>
      </g>
     </g>
     <g id="text_8">
      <!-- −300 -->
      <defs>
       <path d="M 40.578125 39.3125 
Q 47.65625 37.796875 51.625 33 
Q 55.609375 28.21875 55.609375 21.1875 
Q 55.609375 10.40625 48.1875 4.484375 
Q 40.765625 -1.421875 27.09375 -1.421875 
Q 22.515625 -1.421875 17.65625 -0.515625 
Q 12.796875 0.390625 7.625 2.203125 
L 7.625 11.71875 
Q 11.71875 9.328125 16.59375 8.109375 
Q 21.484375 6.890625 26.8125 6.890625 
Q 36.078125 6.890625 40.9375 10.546875 
Q 45.796875 14.203125 45.796875 21.1875 
Q 45.796875 27.640625 41.28125 31.265625 
Q 36.765625 34.90625 28.71875 34.90625 
L 20.21875 34.90625 
L 20.21875 43.015625 
L 29.109375 43.015625 
Q 36.375 43.015625 40.234375 45.921875 
Q 44.09375 48.828125 44.09375 54.296875 
Q 44.09375 59.90625 40.109375 62.90625 
Q 36.140625 65.921875 28.71875 65.921875 
Q 24.65625 65.921875 20.015625 65.03125 
Q 15.375 64.15625 9.8125 62.3125 
L 9.8125 71.09375 
Q 15.4375 72.65625 20.34375 73.4375 
Q 25.25 74.21875 29.59375 74.21875 
Q 40.828125 74.21875 47.359375 69.109375 
Q 53.90625 64.015625 53.90625 55.328125 
Q 53.90625 49.265625 50.4375 45.09375 
Q 46.96875 40.921875 40.578125 39.3125 
z
" id="DejaVuSans-51"/>
      </defs>
      <g transform="translate(23.132812 199.507319)scale(0.1 -0.1)">
       <use xlink:href="#DejaVuSans-8722"/>
       <use x="83.789062" xlink:href="#DejaVuSans-51"/>
       <use x="147.412109" xlink:href="#DejaVuSans-48"/>
       <use x="211.035156" xlink:href="#DejaVuSans-48"/>
      </g>
     </g>
    </g>
    <g id="ytick_4">
     <g id="line2d_10">
      <g>
       <use style="stroke:#000000;stroke-width:0.8;" x="57.6" xlink:href="#m1d8f41a48c" y="152.876755"/>
      </g>
     </g>
     <g id="text_9">
      <!-- −200 -->
      <g transform="translate(23.132812 156.675974)scale(0.1 -0.1)">
       <use xlink:href="#DejaVuSans-8722"/>
       <use x="83.789062" xlink:href="#DejaVuSans-50"/>
       <use x="147.412109" xlink:href="#DejaVuSans-48"/>
       <use x="211.035156" xlink:href="#DejaVuSans-48"/>
      </g>
     </g>
    </g>
    <g id="ytick_5">
     <g id="line2d_11">
      <g>
       <use style="stroke:#000000;stroke-width:0.8;" x="57.6" xlink:href="#m1d8f41a48c" y="110.045411"/>
      </g>
     </g>
     <g id="text_10">
      <!-- −100 -->
      <defs>
       <path d="M 12.40625 8.296875 
L 28.515625 8.296875 
L 28.515625 63.921875 
L 10.984375 60.40625 
L 10.984375 69.390625 
L 28.421875 72.90625 
L 38.28125 72.90625 
L 38.28125 8.296875 
L 54.390625 8.296875 
L 54.390625 0 
L 12.40625 0 
z
" id="DejaVuSans-49"/>
      </defs>
      <g transform="translate(23.132812 113.84463)scale(0.1 -0.1)">
       <use xlink:href="#DejaVuSans-8722"/>
       <use x="83.789062" xlink:href="#DejaVuSans-49"/>
       <use x="147.412109" xlink:href="#DejaVuSans-48"/>
       <use x="211.035156" xlink:href="#DejaVuSans-48"/>
      </g>
     </g>
    </g>
    <g id="ytick_6">
     <g id="line2d_12">
      <g>
       <use style="stroke:#000000;stroke-width:0.8;" x="57.6" xlink:href="#m1d8f41a48c" y="67.214066"/>
      </g>
     </g>
     <g id="text_11">
      <!-- 0 -->
      <g transform="translate(44.2375 71.013285)scale(0.1 -0.1)">
       <use xlink:href="#DejaVuSans-48"/>
      </g>
     </g>
    </g>
   </g>
   <g id="line2d_13">
    <path clip-path="url(#pa00037db68)" d="M 90.182866 66.883183 
L 258.095893 176.306819 
L 381.004404 198.781317 
L 372.733308 208.318209 
L 215.360741 286.949416 
L 380.502177 184.687636 
" style="fill:none;stroke:#ff0000;stroke-linecap:square;stroke-width:0.5;"/>
   </g>
   <g id="patch_3">
    <path d="M 57.6 307.584 
L 57.6 41.472 
" style="fill:none;stroke:#000000;stroke-linecap:square;stroke-linejoin:miter;stroke-width:0.8;"/>
   </g>
   <g id="patch_4">
    <path d="M 414.72 307.584 
L 414.72 41.472 
" style="fill:none;stroke:#000000;stroke-linecap:square;stroke-linejoin:miter;stroke-width:0.8;"/>
   </g>
   <g id="patch_5">
    <path d="M 57.6 307.584 
L 414.72 307.584 
" style="fill:none;stroke:#000000;stroke-linecap:square;stroke-linejoin:miter;stroke-width:0.8;"/>
   </g>
   <g id="patch_6">
    <path d="M 57.6 41.472 
L 414.72 41.472 
" style="fill:none;stroke:#000000;stroke-linecap:square;stroke-linejoin:miter;stroke-width:0.8;"/>
   </g>
   <g id="PathCollection_1">
    <defs>
     <path d="M 0 2.738613 
C 0.726289 2.738613 1.422928 2.450055 1.936492 1.936492 
C 2.450055 1.422928 2.738613 0.726289 2.738613 0 
C 2.738613 -0.726289 2.450055 -1.422928 1.936492 -1.936492 
C 1.422928 -2.450055 0.726289 -2.738613 0 -2.738613 
C -0.726289 -2.738613 -1.422928 -2.450055 -1.936492 -1.936492 
C -2.450055 -1.422928 -2.738613 -0.726289 -2.738613 0 
C -2.738613 0.726289 -2.450055 1.422928 -1.936492 1.936492 
C -1.422928 2.450055 -0.726289 2.738613 0 2.738613 
z
" id="m0b6ab2e810" style="stroke:#ff0000;"/>
    </defs>
    <g clip-path="url(#pa00037db68)">
     <use style="fill:#ff0000;stroke:#ff0000;" x="90.182866" xlink:href="#m0b6ab2e810" y="66.883183"/>
     <use style="fill:#ff0000;stroke:#ff0000;" x="258.095893" xlink:href="#m0b6ab2e810" y="176.306819"/>
     <use style="fill:#ff0000;stroke:#ff0000;" x="381.004404" xlink:href="#m0b6ab2e810" y="198.781317"/>
     <use style="fill:#ff0000;stroke:#ff0000;" x="372.733308" xlink:href="#m0b6ab2e810" y="208.318209"/>
     <use style="fill:#ff0000;stroke:#ff0000;" x="215.360741" xlink:href="#m0b6ab2e810" y="286.949416"/>
     <use style="fill:#ff0000;stroke:#ff0000;" x="380.502177" xlink:href="#m0b6ab2e810" y="184.687636"/>
    </g>
   </g>
   <g id="text_12">
    <!-- (124) Subject: s3, Known = True, Degree = 2, Duration = 0.1 -->
    <defs>
     <path d="M 31 75.875 
Q 24.46875 64.65625 21.28125 53.65625 
Q 18.109375 42.671875 18.109375 31.390625 
Q 18.109375 20.125 21.3125 9.0625 
Q 24.515625 -2 31 -13.1875 
L 23.1875 -13.1875 
Q 15.875 -1.703125 12.234375 9.375 
Q 8.59375 20.453125 8.59375 31.390625 
Q 8.59375 42.28125 12.203125 53.3125 
Q 15.828125 64.359375 23.1875 75.875 
z
" id="DejaVuSans-40"/>
     <path d="M 8.015625 75.875 
L 15.828125 75.875 
Q 23.140625 64.359375 26.78125 53.3125 
Q 30.421875 42.28125 30.421875 31.390625 
Q 30.421875 20.453125 26.78125 9.375 
Q 23.140625 -1.703125 15.828125 -13.1875 
L 8.015625 -13.1875 
Q 14.5 -2 17.703125 9.0625 
Q 20.90625 20.125 20.90625 31.390625 
Q 20.90625 42.671875 17.703125 53.65625 
Q 14.5 64.65625 8.015625 75.875 
z
" id="DejaVuSans-41"/>
     <path id="DejaVuSans-32"/>
     <path d="M 53.515625 70.515625 
L 53.515625 60.890625 
Q 47.90625 63.578125 42.921875 64.890625 
Q 37.9375 66.21875 33.296875 66.21875 
Q 25.25 66.21875 20.875 63.09375 
Q 16.5 59.96875 16.5 54.203125 
Q 16.5 49.359375 19.40625 46.890625 
Q 22.3125 44.4375 30.421875 42.921875 
L 36.375 41.703125 
Q 47.40625 39.59375 52.65625 34.296875 
Q 57.90625 29 57.90625 20.125 
Q 57.90625 9.515625 50.796875 4.046875 
Q 43.703125 -1.421875 29.984375 -1.421875 
Q 24.8125 -1.421875 18.96875 -0.25 
Q 13.140625 0.921875 6.890625 3.21875 
L 6.890625 13.375 
Q 12.890625 10.015625 18.65625 8.296875 
Q 24.421875 6.59375 29.984375 6.59375 
Q 38.421875 6.59375 43.015625 9.90625 
Q 47.609375 13.234375 47.609375 19.390625 
Q 47.609375 24.75 44.3125 27.78125 
Q 41.015625 30.8125 33.5 32.328125 
L 27.484375 33.5 
Q 16.453125 35.6875 11.515625 40.375 
Q 6.59375 45.0625 6.59375 53.421875 
Q 6.59375 63.09375 13.40625 68.65625 
Q 20.21875 74.21875 32.171875 74.21875 
Q 37.3125 74.21875 42.625 73.28125 
Q 47.953125 72.359375 53.515625 70.515625 
z
" id="DejaVuSans-83"/>
     <path d="M 8.5 21.578125 
L 8.5 54.6875 
L 17.484375 54.6875 
L 17.484375 21.921875 
Q 17.484375 14.15625 20.5 10.265625 
Q 23.53125 6.390625 29.59375 6.390625 
Q 36.859375 6.390625 41.078125 11.03125 
Q 45.3125 15.671875 45.3125 23.6875 
L 45.3125 54.6875 
L 54.296875 54.6875 
L 54.296875 0 
L 45.3125 0 
L 45.3125 8.40625 
Q 42.046875 3.421875 37.71875 1 
Q 33.40625 -1.421875 27.6875 -1.421875 
Q 18.265625 -1.421875 13.375 4.4375 
Q 8.5 10.296875 8.5 21.578125 
z
M 31.109375 56 
z
" id="DejaVuSans-117"/>
     <path d="M 48.6875 27.296875 
Q 48.6875 37.203125 44.609375 42.84375 
Q 40.53125 48.484375 33.40625 48.484375 
Q 26.265625 48.484375 22.1875 42.84375 
Q 18.109375 37.203125 18.109375 27.296875 
Q 18.109375 17.390625 22.1875 11.75 
Q 26.265625 6.109375 33.40625 6.109375 
Q 40.53125 6.109375 44.609375 11.75 
Q 48.6875 17.390625 48.6875 27.296875 
z
M 18.109375 46.390625 
Q 20.953125 51.265625 25.265625 53.625 
Q 29.59375 56 35.59375 56 
Q 45.5625 56 51.78125 48.09375 
Q 58.015625 40.1875 58.015625 27.296875 
Q 58.015625 14.40625 51.78125 6.484375 
Q 45.5625 -1.421875 35.59375 -1.421875 
Q 29.59375 -1.421875 25.265625 0.953125 
Q 20.953125 3.328125 18.109375 8.203125 
L 18.109375 0 
L 9.078125 0 
L 9.078125 75.984375 
L 18.109375 75.984375 
z
" id="DejaVuSans-98"/>
     <path d="M 9.421875 54.6875 
L 18.40625 54.6875 
L 18.40625 -0.984375 
Q 18.40625 -11.421875 14.421875 -16.109375 
Q 10.453125 -20.796875 1.609375 -20.796875 
L -1.8125 -20.796875 
L -1.8125 -13.1875 
L 0.59375 -13.1875 
Q 5.71875 -13.1875 7.5625 -10.8125 
Q 9.421875 -8.453125 9.421875 -0.984375 
z
M 9.421875 75.984375 
L 18.40625 75.984375 
L 18.40625 64.59375 
L 9.421875 64.59375 
z
" id="DejaVuSans-106"/>
     <path d="M 56.203125 29.59375 
L 56.203125 25.203125 
L 14.890625 25.203125 
Q 15.484375 15.921875 20.484375 11.0625 
Q 25.484375 6.203125 34.421875 6.203125 
Q 39.59375 6.203125 44.453125 7.46875 
Q 49.3125 8.734375 54.109375 11.28125 
L 54.109375 2.78125 
Q 49.265625 0.734375 44.1875 -0.34375 
Q 39.109375 -1.421875 33.890625 -1.421875 
Q 20.796875 -1.421875 13.15625 6.1875 
Q 5.515625 13.8125 5.515625 26.8125 
Q 5.515625 40.234375 12.765625 48.109375 
Q 20.015625 56 32.328125 56 
Q 43.359375 56 49.78125 48.890625 
Q 56.203125 41.796875 56.203125 29.59375 
z
M 47.21875 32.234375 
Q 47.125 39.59375 43.09375 43.984375 
Q 39.0625 48.390625 32.421875 48.390625 
Q 24.90625 48.390625 20.390625 44.140625 
Q 15.875 39.890625 15.1875 32.171875 
z
" id="DejaVuSans-101"/>
     <path d="M 48.78125 52.59375 
L 48.78125 44.1875 
Q 44.96875 46.296875 41.140625 47.34375 
Q 37.3125 48.390625 33.40625 48.390625 
Q 24.65625 48.390625 19.8125 42.84375 
Q 14.984375 37.3125 14.984375 27.296875 
Q 14.984375 17.28125 19.8125 11.734375 
Q 24.65625 6.203125 33.40625 6.203125 
Q 37.3125 6.203125 41.140625 7.25 
Q 44.96875 8.296875 48.78125 10.40625 
L 48.78125 2.09375 
Q 45.015625 0.34375 40.984375 -0.53125 
Q 36.96875 -1.421875 32.421875 -1.421875 
Q 20.0625 -1.421875 12.78125 6.34375 
Q 5.515625 14.109375 5.515625 27.296875 
Q 5.515625 40.671875 12.859375 48.328125 
Q 20.21875 56 33.015625 56 
Q 37.15625 56 41.109375 55.140625 
Q 45.0625 54.296875 48.78125 52.59375 
z
" id="DejaVuSans-99"/>
     <path d="M 18.3125 70.21875 
L 18.3125 54.6875 
L 36.8125 54.6875 
L 36.8125 47.703125 
L 18.3125 47.703125 
L 18.3125 18.015625 
Q 18.3125 11.328125 20.140625 9.421875 
Q 21.96875 7.515625 27.59375 7.515625 
L 36.8125 7.515625 
L 36.8125 0 
L 27.59375 0 
Q 17.1875 0 13.234375 3.875 
Q 9.28125 7.765625 9.28125 18.015625 
L 9.28125 47.703125 
L 2.6875 47.703125 
L 2.6875 54.6875 
L 9.28125 54.6875 
L 9.28125 70.21875 
z
" id="DejaVuSans-116"/>
     <path d="M 11.71875 12.40625 
L 22.015625 12.40625 
L 22.015625 0 
L 11.71875 0 
z
M 11.71875 51.703125 
L 22.015625 51.703125 
L 22.015625 39.3125 
L 11.71875 39.3125 
z
" id="DejaVuSans-58"/>
     <path d="M 44.28125 53.078125 
L 44.28125 44.578125 
Q 40.484375 46.53125 36.375 47.5 
Q 32.28125 48.484375 27.875 48.484375 
Q 21.1875 48.484375 17.84375 46.4375 
Q 14.5 44.390625 14.5 40.28125 
Q 14.5 37.15625 16.890625 35.375 
Q 19.28125 33.59375 26.515625 31.984375 
L 29.59375 31.296875 
Q 39.15625 29.25 43.1875 25.515625 
Q 47.21875 21.78125 47.21875 15.09375 
Q 47.21875 7.46875 41.1875 3.015625 
Q 35.15625 -1.421875 24.609375 -1.421875 
Q 20.21875 -1.421875 15.453125 -0.5625 
Q 10.6875 0.296875 5.421875 2 
L 5.421875 11.28125 
Q 10.40625 8.6875 15.234375 7.390625 
Q 20.0625 6.109375 24.8125 6.109375 
Q 31.15625 6.109375 34.5625 8.28125 
Q 37.984375 10.453125 37.984375 14.40625 
Q 37.984375 18.0625 35.515625 20.015625 
Q 33.0625 21.96875 24.703125 23.78125 
L 21.578125 24.515625 
Q 13.234375 26.265625 9.515625 29.90625 
Q 5.8125 33.546875 5.8125 39.890625 
Q 5.8125 47.609375 11.28125 51.796875 
Q 16.75 56 26.8125 56 
Q 31.78125 56 36.171875 55.265625 
Q 40.578125 54.546875 44.28125 53.078125 
z
" id="DejaVuSans-115"/>
     <path d="M 11.71875 12.40625 
L 22.015625 12.40625 
L 22.015625 4 
L 14.015625 -11.625 
L 7.71875 -11.625 
L 11.71875 4 
z
" id="DejaVuSans-44"/>
     <path d="M 9.8125 72.90625 
L 19.671875 72.90625 
L 19.671875 42.09375 
L 52.390625 72.90625 
L 65.09375 72.90625 
L 28.90625 38.921875 
L 67.671875 0 
L 54.6875 0 
L 19.671875 35.109375 
L 19.671875 0 
L 9.8125 0 
z
" id="DejaVuSans-75"/>
     <path d="M 54.890625 33.015625 
L 54.890625 0 
L 45.90625 0 
L 45.90625 32.71875 
Q 45.90625 40.484375 42.875 44.328125 
Q 39.84375 48.1875 33.796875 48.1875 
Q 26.515625 48.1875 22.3125 43.546875 
Q 18.109375 38.921875 18.109375 30.90625 
L 18.109375 0 
L 9.078125 0 
L 9.078125 54.6875 
L 18.109375 54.6875 
L 18.109375 46.1875 
Q 21.34375 51.125 25.703125 53.5625 
Q 30.078125 56 35.796875 56 
Q 45.21875 56 50.046875 50.171875 
Q 54.890625 44.34375 54.890625 33.015625 
z
" id="DejaVuSans-110"/>
     <path d="M 30.609375 48.390625 
Q 23.390625 48.390625 19.1875 42.75 
Q 14.984375 37.109375 14.984375 27.296875 
Q 14.984375 17.484375 19.15625 11.84375 
Q 23.34375 6.203125 30.609375 6.203125 
Q 37.796875 6.203125 41.984375 11.859375 
Q 46.1875 17.53125 46.1875 27.296875 
Q 46.1875 37.015625 41.984375 42.703125 
Q 37.796875 48.390625 30.609375 48.390625 
z
M 30.609375 56 
Q 42.328125 56 49.015625 48.375 
Q 55.71875 40.765625 55.71875 27.296875 
Q 55.71875 13.875 49.015625 6.21875 
Q 42.328125 -1.421875 30.609375 -1.421875 
Q 18.84375 -1.421875 12.171875 6.21875 
Q 5.515625 13.875 5.515625 27.296875 
Q 5.515625 40.765625 12.171875 48.375 
Q 18.84375 56 30.609375 56 
z
" id="DejaVuSans-111"/>
     <path d="M 4.203125 54.6875 
L 13.1875 54.6875 
L 24.421875 12.015625 
L 35.59375 54.6875 
L 46.1875 54.6875 
L 57.421875 12.015625 
L 68.609375 54.6875 
L 77.59375 54.6875 
L 63.28125 0 
L 52.6875 0 
L 40.921875 44.828125 
L 29.109375 0 
L 18.5 0 
z
" id="DejaVuSans-119"/>
     <path d="M 10.59375 45.40625 
L 73.1875 45.40625 
L 73.1875 37.203125 
L 10.59375 37.203125 
z
M 10.59375 25.484375 
L 73.1875 25.484375 
L 73.1875 17.1875 
L 10.59375 17.1875 
z
" id="DejaVuSans-61"/>
     <path d="M -0.296875 72.90625 
L 61.375 72.90625 
L 61.375 64.59375 
L 35.5 64.59375 
L 35.5 0 
L 25.59375 0 
L 25.59375 64.59375 
L -0.296875 64.59375 
z
" id="DejaVuSans-84"/>
     <path d="M 41.109375 46.296875 
Q 39.59375 47.171875 37.8125 47.578125 
Q 36.03125 48 33.890625 48 
Q 26.265625 48 22.1875 43.046875 
Q 18.109375 38.09375 18.109375 28.8125 
L 18.109375 0 
L 9.078125 0 
L 9.078125 54.6875 
L 18.109375 54.6875 
L 18.109375 46.1875 
Q 20.953125 51.171875 25.484375 53.578125 
Q 30.03125 56 36.53125 56 
Q 37.453125 56 38.578125 55.875 
Q 39.703125 55.765625 41.0625 55.515625 
z
" id="DejaVuSans-114"/>
     <path d="M 19.671875 64.796875 
L 19.671875 8.109375 
L 31.59375 8.109375 
Q 46.6875 8.109375 53.6875 14.9375 
Q 60.6875 21.78125 60.6875 36.53125 
Q 60.6875 51.171875 53.6875 57.984375 
Q 46.6875 64.796875 31.59375 64.796875 
z
M 9.8125 72.90625 
L 30.078125 72.90625 
Q 51.265625 72.90625 61.171875 64.09375 
Q 71.09375 55.28125 71.09375 36.53125 
Q 71.09375 17.671875 61.125 8.828125 
Q 51.171875 0 30.078125 0 
L 9.8125 0 
z
" id="DejaVuSans-68"/>
     <path d="M 45.40625 27.984375 
Q 45.40625 37.75 41.375 43.109375 
Q 37.359375 48.484375 30.078125 48.484375 
Q 22.859375 48.484375 18.828125 43.109375 
Q 14.796875 37.75 14.796875 27.984375 
Q 14.796875 18.265625 18.828125 12.890625 
Q 22.859375 7.515625 30.078125 7.515625 
Q 37.359375 7.515625 41.375 12.890625 
Q 45.40625 18.265625 45.40625 27.984375 
z
M 54.390625 6.78125 
Q 54.390625 -7.171875 48.1875 -13.984375 
Q 42 -20.796875 29.203125 -20.796875 
Q 24.46875 -20.796875 20.265625 -20.09375 
Q 16.0625 -19.390625 12.109375 -17.921875 
L 12.109375 -9.1875 
Q 16.0625 -11.328125 19.921875 -12.34375 
Q 23.78125 -13.375 27.78125 -13.375 
Q 36.625 -13.375 41.015625 -8.765625 
Q 45.40625 -4.15625 45.40625 5.171875 
L 45.40625 9.625 
Q 42.625 4.78125 38.28125 2.390625 
Q 33.9375 0 27.875 0 
Q 17.828125 0 11.671875 7.65625 
Q 5.515625 15.328125 5.515625 27.984375 
Q 5.515625 40.671875 11.671875 48.328125 
Q 17.828125 56 27.875 56 
Q 33.9375 56 38.28125 53.609375 
Q 42.625 51.21875 45.40625 46.390625 
L 45.40625 54.6875 
L 54.390625 54.6875 
z
" id="DejaVuSans-103"/>
     <path d="M 34.28125 27.484375 
Q 23.390625 27.484375 19.1875 25 
Q 14.984375 22.515625 14.984375 16.5 
Q 14.984375 11.71875 18.140625 8.90625 
Q 21.296875 6.109375 26.703125 6.109375 
Q 34.1875 6.109375 38.703125 11.40625 
Q 43.21875 16.703125 43.21875 25.484375 
L 43.21875 27.484375 
z
M 52.203125 31.203125 
L 52.203125 0 
L 43.21875 0 
L 43.21875 8.296875 
Q 40.140625 3.328125 35.546875 0.953125 
Q 30.953125 -1.421875 24.3125 -1.421875 
Q 15.921875 -1.421875 10.953125 3.296875 
Q 6 8.015625 6 15.921875 
Q 6 25.140625 12.171875 29.828125 
Q 18.359375 34.515625 30.609375 34.515625 
L 43.21875 34.515625 
L 43.21875 35.40625 
Q 43.21875 41.609375 39.140625 45 
Q 35.0625 48.390625 27.6875 48.390625 
Q 23 48.390625 18.546875 47.265625 
Q 14.109375 46.140625 10.015625 43.890625 
L 10.015625 52.203125 
Q 14.9375 54.109375 19.578125 55.046875 
Q 24.21875 56 28.609375 56 
Q 40.484375 56 46.34375 49.84375 
Q 52.203125 43.703125 52.203125 31.203125 
z
" id="DejaVuSans-97"/>
     <path d="M 9.421875 54.6875 
L 18.40625 54.6875 
L 18.40625 0 
L 9.421875 0 
z
M 9.421875 75.984375 
L 18.40625 75.984375 
L 18.40625 64.59375 
L 9.421875 64.59375 
z
" id="DejaVuSans-105"/>
     <path d="M 10.6875 12.40625 
L 21 12.40625 
L 21 0 
L 10.6875 0 
z
" id="DejaVuSans-46"/>
    </defs>
    <g transform="translate(51.733125 35.472)scale(0.12 -0.12)">
     <use xlink:href="#DejaVuSans-40"/>
     <use x="39.013672" xlink:href="#DejaVuSans-49"/>
     <use x="102.636719" xlink:href="#DejaVuSans-50"/>
     <use x="166.259766" xlink:href="#DejaVuSans-52"/>
     <use x="229.882812" xlink:href="#DejaVuSans-41"/>
     <use x="268.896484" xlink:href="#DejaVuSans-32"/>
     <use x="300.683594" xlink:href="#DejaVuSans-83"/>
     <use x="364.160156" xlink:href="#DejaVuSans-117"/>
     <use x="427.539062" xlink:href="#DejaVuSans-98"/>
     <use x="491.015625" xlink:href="#DejaVuSans-106"/>
     <use x="518.798828" xlink:href="#DejaVuSans-101"/>
     <use x="580.322266" xlink:href="#DejaVuSans-99"/>
     <use x="635.302734" xlink:href="#DejaVuSans-116"/>
     <use x="674.511719" xlink:href="#DejaVuSans-58"/>
     <use x="708.203125" xlink:href="#DejaVuSans-32"/>
     <use x="739.990234" xlink:href="#DejaVuSans-115"/>
     <use x="792.089844" xlink:href="#DejaVuSans-51"/>
     <use x="855.712891" xlink:href="#DejaVuSans-44"/>
     <use x="887.5" xlink:href="#DejaVuSans-32"/>
     <use x="919.287109" xlink:href="#DejaVuSans-75"/>
     <use x="984.863281" xlink:href="#DejaVuSans-110"/>
     <use x="1048.242188" xlink:href="#DejaVuSans-111"/>
     <use x="1109.423828" xlink:href="#DejaVuSans-119"/>
     <use x="1191.210938" xlink:href="#DejaVuSans-110"/>
     <use x="1254.589844" xlink:href="#DejaVuSans-32"/>
     <use x="1286.376953" xlink:href="#DejaVuSans-61"/>
     <use x="1370.166016" xlink:href="#DejaVuSans-32"/>
     <use x="1401.953125" xlink:href="#DejaVuSans-84"/>
     <use x="1462.818359" xlink:href="#DejaVuSans-114"/>
     <use x="1503.931641" xlink:href="#DejaVuSans-117"/>
     <use x="1567.310547" xlink:href="#DejaVuSans-101"/>
     <use x="1628.833984" xlink:href="#DejaVuSans-44"/>
     <use x="1660.621094" xlink:href="#DejaVuSans-32"/>
     <use x="1692.408203" xlink:href="#DejaVuSans-68"/>
     <use x="1769.410156" xlink:href="#DejaVuSans-101"/>
     <use x="1830.933594" xlink:href="#DejaVuSans-103"/>
     <use x="1894.410156" xlink:href="#DejaVuSans-114"/>
     <use x="1935.492188" xlink:href="#DejaVuSans-101"/>
     <use x="1997.015625" xlink:href="#DejaVuSans-101"/>
     <use x="2058.539062" xlink:href="#DejaVuSans-32"/>
     <use x="2090.326172" xlink:href="#DejaVuSans-61"/>
     <use x="2174.115234" xlink:href="#DejaVuSans-32"/>
     <use x="2205.902344" xlink:href="#DejaVuSans-50"/>
     <use x="2269.525391" xlink:href="#DejaVuSans-44"/>
     <use x="2301.3125" xlink:href="#DejaVuSans-32"/>
     <use x="2333.099609" xlink:href="#DejaVuSans-68"/>
     <use x="2410.101562" xlink:href="#DejaVuSans-117"/>
     <use x="2473.480469" xlink:href="#DejaVuSans-114"/>
     <use x="2514.59375" xlink:href="#DejaVuSans-97"/>
     <use x="2575.873047" xlink:href="#DejaVuSans-116"/>
     <use x="2615.082031" xlink:href="#DejaVuSans-105"/>
     <use x="2642.865234" xlink:href="#DejaVuSans-111"/>
     <use x="2704.046875" xlink:href="#DejaVuSans-110"/>
     <use x="2767.425781" xlink:href="#DejaVuSans-32"/>
     <use x="2799.212891" xlink:href="#DejaVuSans-61"/>
     <use x="2883.001953" xlink:href="#DejaVuSans-32"/>
     <use x="2914.789062" xlink:href="#DejaVuSans-48"/>
     <use x="2978.412109" xlink:href="#DejaVuSans-46"/>
     <use x="3010.199219" xlink:href="#DejaVuSans-49"/>
    </g>
   </g>
  </g>
 </g>
 <defs>
  <clipPath id="pa00037db68">
   <rect height="266.112" width="357.12" x="57.6" y="41.472"/>
  </clipPath>
 </defs>
</svg>
