<?xml version="1.0" encoding="utf-8" standalone="no"?>
<!DOCTYPE svg PUBLIC "-//W3C//DTD SVG 1.1//EN"
  "http://www.w3.org/Graphics/SVG/1.1/DTD/svg11.dtd">
<!-- Created with matplotlib (https://matplotlib.org/) -->
<svg height="345.6pt" version="1.1" viewBox="0 0 460.8 345.6" width="460.8pt" xmlns="http://www.w3.org/2000/svg" xmlns:xlink="http://www.w3.org/1999/xlink">
 <defs>
  <style type="text/css">
*{stroke-linecap:butt;stroke-linejoin:round;}
  </style>
 </defs>
 <g id="figure_1">
  <g id="patch_1">
   <path d="M 0 345.6 
L 460.8 345.6 
L 460.8 0 
L 0 0 
z
" style="fill:#ffffff;"/>
  </g>
  <g id="axes_1">
   <g id="patch_2">
    <path d="M 57.6 307.584 
L 414.72 307.584 
L 414.72 41.472 
L 57.6 41.472 
z
" style="fill:#ffffff;"/>
   </g>
   <g id="line2d_1">
    <path clip-path="url(#p41668ef4c1)" d="M 74.589993 293.60526 
L 74.839336 293.470562 
L 75.091758 293.60526 
L 75.593524 293.60526 
L 75.719735 293.874655 
L 75.719735 294.007839 
L 75.470391 294.007839 
L 75.217969 293.739958 
L 74.965547 293.739958 
L 75.091758 293.874655 
L 74.839336 293.739958 
L 75.091758 293.60526 
L 74.965547 293.739958 
L 74.337571 293.60526 
L 74.589993 293.739958 
L 74.589993 293.739958 
L 74.839336 293.60526 
L 74.463782 293.874655 
L 74.589993 293.874655 
L 74.463782 293.874655 
L 73.958938 293.60526 
L 73.958938 293.470562 
L 74.085149 293.470562 
L 74.085149 293.470562 
L 74.085149 293.60526 
L 74.589993 294.142537 
L 74.463782 294.142537 
L 74.21136 294.277235 
L 73.958938 294.277235 
L 73.832727 294.142537 
L 73.958938 294.007839 
L 74.085149 294.142537 
L 74.085149 294.411932 
L 74.463782 294.54663 
L 74.589993 294.142537 
L 74.463782 294.277235 
L 74.589993 294.54663 
L 74.463782 294.54663 
L 74.463782 294.277235 
L 74.337571 294.277235 
L 74.337571 294.54663 
L 74.589993 294.681328 
L 75.091758 294.54663 
L 74.965547 294.681328 
L 74.713126 294.681328 
L 74.589993 294.277235 
L 74.713126 294.277235 
L 74.337571 295.220118 
L 74.463782 295.488 
L 74.713126 295.488 
L 74.589993 295.220118 
L 74.21136 294.816025 
L 74.21136 294.950723 
L 74.21136 295.220118 
L 74.463782 295.354816 
L 74.839336 294.816025 
L 74.839336 294.681328 
L 74.589993 294.681328 
L 74.21136 294.411932 
L 74.463782 295.085421 
L 74.463782 294.950723 
L 74.337571 295.085421 
L 74.337571 294.950723 
L 74.085149 294.681328 
L 74.085149 294.950723 
L 74.337571 294.950723 
L 74.965547 294.681328 
L 74.713126 294.681328 
L 74.713126 294.681328 
L 74.839336 294.816025 
L 74.839336 295.085421 
L 74.713126 295.220118 
L 74.713126 295.488 
L 74.839336 295.488 
L 74.839336 295.354816 
L 75.091758 294.950723 
L 75.217969 294.54663 
L 75.091758 294.277235 
L 75.34418 294.681328 
L 75.593524 294.681328 
L 75.593524 294.950723 
L 76.098367 294.277235 
L 76.098367 293.874655 
L 76.098367 293.874655 
L 75.972157 293.739958 
L 76.098367 293.60526 
L 76.477 293.739958 
L 76.477 293.874655 
L 76.098367 293.739958 
L 75.845946 293.470562 
L 76.477 293.201167 
L 76.600133 293.201167 
L 76.726344 292.931772 
L 76.477 292.529192 
L 76.600133 292.662376 
L 76.852555 292.529192 
L 76.852555 292.394495 
L 76.600133 291.990402 
L 76.477 291.855704 
L 76.350789 291.316913 
L 76.477 291.183729 
L 76.600133 291.721006 
L 76.600133 291.586309 
L 76.852555 291.451611 
L 76.852555 291.183729 
L 76.600133 290.779636 
L 76.600133 290.510241 
L 76.600133 290.510241 
L 76.350789 290.644939 
L 76.098367 290.914334 
L 76.224578 291.316913 
L 76.477 291.451611 
L 76.726344 291.183729 
L 76.978766 290.644939 
L 76.224578 289.703568 
L 76.098367 289.299476 
L 76.350789 289.838266 
L 76.098367 289.568871 
L 75.972157 289.299476 
L 76.224578 289.164778 
L 76.600133 289.164778 
L 76.726344 289.03008 
L 75.972157 288.08871 
L 76.350789 287.819315 
L 76.477 287.684617 
L 76.477 287.684617 
L 76.224578 287.54992 
L 76.224578 287.280524 
L 76.477 286.743247 
L 76.477 286.743247 
L 76.350789 286.60855 
L 75.845946 286.877945 
L 76.224578 286.877945 
L 76.224578 286.743247 
L 75.972157 286.069759 
L 76.098367 286.204457 
L 76.098367 286.473852 
L 76.098367 286.204457 
L 76.224578 286.069759 
L 76.224578 286.204457 
L 76.224578 286.473852 
L 76.098367 286.473852 
L 75.845946 286.204457 
L 75.845946 285.667179 
L 75.845946 286.339154 
L 76.477 285.532482 
L 76.726344 285.397784 
L 76.600133 285.397784 
L 76.350789 285.128389 
L 76.350789 284.589598 
L 76.726344 284.052321 
L 77.480531 283.917624 
L 78.48714 284.052321 
L 79.746171 284.052321 
L 86.663146 281.361395 
L 90.563372 280.15063 
L 95.217785 278.938351 
L 100.626385 277.727586 
L 120.49999 272.749827 
L 128.426653 270.597691 
L 136.725791 268.174647 
L 145.28043 265.887814 
L 153.582647 263.466283 
L 169.808448 258.219129 
L 177.858243 255.393505 
L 185.658695 253.105159 
L 193.080514 251.222418 
L 200.499254 249.60756 
L 215.973946 246.647239 
L 230.186529 244.225708 
L 236.601738 242.745547 
L 248.804181 239.381133 
L 254.714547 238.170368 
L 260.751123 237.228998 
L 266.664568 236.15293 
L 271.946957 234.538072 
L 276.727581 232.788516 
L 281.129572 231.443053 
L 285.405352 230.366985 
L 293.332015 228.752127 
L 296.601186 227.945454 
L 299.368592 227.137268 
L 303.644372 226.330596 
L 308.049441 225.926503 
L 308.049441 226.330596 
L 307.169043 227.002571 
L 306.036223 228.078638 
L 305.531379 228.617429 
L 305.029614 228.886824 
L 304.401637 228.886824 
L 303.644372 228.752127 
L 302.890185 228.752127 
L 302.388419 228.886824 
L 302.135997 229.15622 
L 302.135997 229.424101 
L 301.883575 229.828194 
L 301.508021 230.09759 
L 301.129388 230.09759 
L 300.753834 229.828194 
L 300.24899 229.828194 
L 299.996568 229.693497 
L 299.996568 230.366985 
L 299.747224 230.501683 
L 298.614404 230.501683 
L 298.614404 230.501683 
L 298.361982 230.366985 
L 297.860217 230.366985 
L 297.734006 230.09759 
L 297.734006 229.828194 
L 297.355373 230.769565 
L 297.355373 230.501683 
L 297.229162 230.232287 
L 297.229162 230.366985 
L 296.348764 230.904262 
L 296.09942 231.03896 
L 296.09942 231.03896 
L 295.720788 230.769565 
L 295.468366 230.63638 
L 295.092811 231.03896 
L 294.461757 230.769565 
L 294.212413 230.904262 
L 294.086202 231.173657 
L 294.212413 230.904262 
L 293.707569 230.904262 
L 293.458226 231.03896 
L 293.581358 231.173657 
L 293.581358 231.443053 
L 293.581358 231.308355 
L 292.70096 230.904262 
L 292.577828 231.173657 
L 292.70096 231.443053 
L 292.451617 230.769565 
L 292.451617 230.769565 
L 292.199195 230.769565 
L 291.571218 230.63638 
L 291.694351 230.769565 
L 291.694351 230.769565 
L 291.192586 230.769565 
L 291.445007 230.63638 
L 291.318796 230.769565 
L 291.571218 231.03896 
L 291.820562 230.904262 
L 291.694351 230.501683 
L 291.066375 230.232287 
L 291.066375 230.232287 
L 291.066375 230.366985 
L 290.940164 230.232287 
L 290.69082 230.232287 
L 290.438398 230.63638 
L 290.312187 230.769565 
L 290.438398 231.03896 
L 290.312187 230.769565 
L 290.312187 230.366985 
L 290.185976 230.232287 
L 290.185976 230.366985 
L 289.933555 230.501683 
L 289.684211 230.09759 
L 289.684211 229.828194 
L 288.803813 230.366985 
L 289.053156 230.366985 
L 289.179367 230.09759 
L 289.053156 229.962892 
L 288.677602 229.962892 
L 288.551391 230.09759 
L 288.677602 229.962892 
L 288.677602 229.693497 
L 288.551391 229.15622 
L 288.298969 228.617429 
L 288.046547 228.348034 
L 288.172758 228.482731 
L 288.803813 228.752127 
L 289.810422 228.752127 
L 292.827171 228.078638 
L 297.229162 227.002571 
L 317.986244 224.042249 
L 322.009602 224.042249 
L 325.657406 224.176947 
L 328.803444 224.176947 
L 331.697061 224.311645 
L 334.71381 224.311645 
L 337.733638 224.176947 
L 340.627254 223.63967 
L 343.520871 223.235577 
L 346.411409 223.235577 
L 351.823088 224.176947 
L 354.211861 224.176947 
L 356.979266 223.63967 
L 359.746672 223.370275 
L 362.387867 222.966182 
L 364.650429 222.428905 
L 371.822904 221.755416 
L 373.709911 221.755416 
L 375.470708 221.620719 
L 379.118512 220.814046 
L 380.879308 220.948744 
L 383.394292 221.351323 
L 385.40751 221.081928 
L 387.670072 221.486021 
L 387.543861 221.890114 
L 387.042096 222.294207 
L 386.414119 222.294207 
L 386.161697 222.428905 
L 386.161697 222.294207 
L 385.656854 222.159509 
L 385.028877 222.159509 
L 384.400901 222.428905 
L 383.394292 222.562089 
L 383.14187 222.428905 
L 382.766315 222.562089 
L 382.889448 222.428905 
L 383.14187 222.024812 
L 383.015659 221.755416 
L 382.766315 222.159509 
L 382.00905 223.235577 
L 381.759706 223.370275 
L 381.633495 223.235577 
L 381.885917 223.370275 
L 382.135261 223.504972 
L 382.135261 223.235577 
L 381.885917 223.100879 
L 381.128652 223.370275 
L 380.753097 223.370275 
L 380.626886 223.235577 
L 381.005519 223.63967 
L 381.005519 223.63967 
L 380.626886 223.63967 
L 380.500675 223.774368 
L 380.500675 224.311645 
L 380.374464 224.042249 
L 380.374464 224.042249 
L 379.494066 224.58104 
L 379.746488 224.311645 
L 379.494066 224.311645 
L 379.494066 224.58104 
L 379.620277 224.58104 
L 379.494066 224.58104 
L 379.494066 224.446342 
L 379.367855 224.446342 
L 379.367855 224.311645 
L 379.494066 224.311645 
L 379.118512 224.58104 
L 378.86609 224.715738 
L 378.361246 224.311645 
L 379.241644 224.985133 
L 378.992301 224.985133 
L 378.613668 224.850435 
L 378.361246 224.58104 
L 378.487457 224.58104 
L 378.86609 224.58104 
L 378.361246 224.58104 
L 378.487457 224.715738 
L 378.613668 225.119831 
L 378.361246 225.253015 
L 378.361246 224.985133 
L 378.238113 224.985133 
L 377.985691 224.850435 
L 377.985691 224.446342 
L 377.85948 224.446342 
L 377.607059 224.58104 
L 377.480848 224.446342 
L 377.607059 224.311645 
L 377.607059 224.446342 
L 377.607059 224.58104 
L 377.480848 224.58104 
L 377.357715 224.715738 
L 376.979082 224.715738 
L 376.979082 224.715738 
L 377.607059 224.042249 
L 377.105293 224.58104 
L 376.72666 224.58104 
L 376.474239 224.715738 
L 376.474239 224.850435 
L 376.474239 224.715738 
L 376.72666 224.715738 
L 376.72666 224.985133 
L 376.72666 224.715738 
L 376.351106 224.58104 
L 376.351106 224.58104 
L 376.351106 224.176947 
L 376.224895 224.176947 
L 376.098684 224.446342 
L 376.098684 224.446342 
L 376.224895 224.715738 
L 376.224895 225.119831 
L 375.846262 225.387712 
L 375.59384 225.253015 
L 376.224895 224.715738 
L 375.344497 225.387712 
L 375.59384 225.387712 
L 375.59384 224.715738 
L 375.470708 224.446342 
L 375.344497 224.715738 
L 375.218286 224.985133 
L 374.839653 225.119831 
L 374.590309 224.985133 
L 374.713442 224.850435 
L 375.092075 224.985133 
L 374.965864 224.985133 
L 374.965864 224.850435 
L 374.965864 224.850435 
L 374.839653 224.985133 
L 374.839653 225.52241 
L 374.590309 225.387712 
L 374.337888 224.985133 
L 374.713442 224.715738 
L 374.590309 224.715738 
L 373.709911 224.985133 
L 373.833044 224.850435 
L 374.590309 224.58104 
L 374.211677 224.715738 
L 374.211677 224.446342 
L 374.211677 224.58104 
L 373.833044 224.985133 
L 373.833044 224.850435 
L 373.709911 224.850435 
L 373.457489 224.985133 
L 373.5837 225.119831 
L 373.833044 224.985133 
L 373.833044 224.850435 
L 373.709911 224.850435 
L 373.959255 224.850435 
L 373.959255 224.850435 
L 373.833044 225.253015 
L 373.709911 224.985133 
L 373.457489 224.715738 
L 373.457489 224.850435 
L 373.457489 224.985133 
L 374.211677 225.926503 
L 374.085466 226.061201 
L 373.457489 225.387712 
L 372.952646 225.387712 
L 373.205067 225.119831 
L 373.078856 225.387712 
L 373.331278 225.387712 
L 373.205067 225.253015 
L 372.826435 225.119831 
L 372.952646 224.985133 
L 373.457489 224.850435 
L 373.5837 225.119831 
L 373.331278 225.387712 
L 372.952646 225.52241 
L 372.826435 225.387712 
L 373.205067 225.119831 
L 373.5837 225.119831 
L 373.709911 224.985133 
L 373.5837 224.850435 
L 373.709911 224.850435 
L 373.833044 224.715738 
L 373.833044 224.446342 
L 373.959255 224.446342 
L 373.959255 224.850435 
L 374.590309 224.850435 
L 376.852871 223.504972 
L 377.607059 223.504972 
L 379.241644 223.907552 
L 379.99891 223.63967 
L 380.753097 223.235577 
L 381.759706 223.235577 
L 382.766315 223.774368 
L 383.015659 223.907552 
L 383.394292 223.907552 
L 383.520503 224.042249 
L 383.896057 224.985133 
L 384.148479 225.52241 
L 384.527112 225.657108 
L 384.527112 225.52241 
L 384.400901 225.657108 
L 384.527112 225.791805 
L 384.776455 225.52241 
L 385.028877 224.985133 
L 385.028877 224.985133 
L 385.281299 224.985133 
L 385.281299 224.985133 
L 385.533721 225.387712 
L 385.155088 225.657108 
L 385.155088 225.119831 
L 385.281299 224.985133 
L 385.533721 225.119831 
L 385.281299 224.850435 
L 384.902666 224.850435 
L 384.776455 225.119831 
L 384.653323 225.119831 
L 384.902666 225.119831 
L 385.028877 224.715738 
L 384.902666 224.311645 
L 384.776455 224.311645 
L 384.527112 224.715738 
L 384.776455 224.311645 
L 384.653323 224.042249 
L 384.27469 224.176947 
L 384.148479 224.042249 
L 383.646714 224.446342 
L 383.394292 224.042249 
L 383.394292 223.907552 
L 383.394292 224.042249 
L 383.268081 224.311645 
L 383.268081 224.311645 
L 382.889448 224.042249 
L 382.889448 223.63967 
L 382.766315 223.370275 
L 382.513894 223.907552 
L 382.513894 223.774368 
L 382.513894 223.370275 
L 382.261472 223.235577 
L 382.00905 223.235577 
L 382.261472 223.235577 
L 382.513894 223.100879 
L 382.640104 222.831484 
L 382.387683 222.428905 
L 382.513894 222.159509 
L 382.135261 222.966182 
L 381.885917 223.100879 
L 381.759706 223.504972 
L 381.885917 223.235577 
L 381.885917 222.831484 
L 381.885917 222.831484 
L 382.00905 222.831484 
L 382.261472 222.428905 
L 382.387683 222.562089 
L 382.261472 222.831484 
L 382.00905 222.428905 
L 381.885917 222.159509 
L 381.633495 222.294207 
L 381.633495 222.159509 
L 382.135261 222.159509 
L 382.387683 222.294207 
L 382.387683 222.159509 
L 382.640104 222.294207 
L 382.889448 222.562089 
L 382.889448 223.100879 
L 382.513894 223.235577 
L 382.135261 223.100879 
L 382.387683 222.831484 
L 382.261472 223.100879 
L 382.135261 223.370275 
L 382.135261 223.235577 
L 382.135261 222.966182 
L 382.261472 222.696786 
L 382.261472 222.159509 
L 381.885917 222.024812 
L 381.885917 222.024812 
L 381.885917 222.159509 
L 382.135261 222.159509 
L 382.387683 222.024812 
L 382.261472 222.024812 
L 382.135261 222.024812 
L 382.135261 222.024812 
L 382.261472 222.294207 
L 382.261472 222.562089 
L 382.640104 222.294207 
L 382.640104 222.294207 
L 382.261472 222.159509 
L 381.507284 222.831484 
L 381.381073 222.831484 
L 381.254862 222.562089 
L 381.381073 222.562089 
L 382.00905 222.831484 
L 382.135261 222.831484 
L 381.885917 222.966182 
L 381.759706 222.966182 
L 381.885917 222.966182 
L 382.135261 222.562089 
L 382.135261 222.428905 
L 381.507284 222.428905 
L 381.254862 222.294207 
L 381.254862 222.024812 
L 381.507284 221.890114 
L 381.633495 222.024812 
L 381.507284 221.755416 
L 381.254862 221.890114 
L 381.128652 222.159509 
L 380.879308 222.294207 
L 380.626886 222.294207 
L 380.626886 222.024812 
L 380.879308 222.024812 
L 381.507284 222.428905 
L 381.633495 222.428905 
L 381.507284 222.562089 
L 381.633495 222.294207 
L 381.633495 221.890114 
L 381.381073 221.755416 
L 381.128652 222.024812 
L 381.254862 222.159509 
L 381.254862 222.428905 
L 381.005519 222.562089 
L 380.626886 222.428905 
L 380.879308 223.100879 
L 380.753097 223.235577 
L 380.753097 223.100879 
L 380.753097 222.428905 
L 380.753097 222.562089 
L 380.626886 222.428905 
L 380.248253 222.428905 
L 379.872699 222.562089 
L 380.122042 222.562089 
L 379.99891 222.831484 
L 379.746488 223.100879 
L 379.99891 222.696786 
L 379.99891 222.696786 
L 379.872699 222.696786 
L 379.746488 222.831484 
L 379.746488 222.696786 
L 379.872699 222.966182 
L 380.374464 223.100879 
L 380.248253 222.831484 
L 380.374464 222.696786 
L 380.626886 222.831484 
L 380.626886 223.370275 
L 380.374464 223.774368 
L 380.122042 223.504972 
L 380.248253 222.831484 
L 380.626886 222.428905 
L 380.753097 222.696786 
L 380.753097 223.100879 
L 380.374464 223.235577 
L 380.500675 223.100879 
L 380.500675 223.100879 
L 380.248253 222.966182 
L 380.374464 223.100879 
L 380.500675 223.370275 
L 380.626886 223.370275 
L 380.879308 222.966182 
L 380.753097 222.831484 
L 380.374464 222.966182 
L 380.374464 222.831484 
L 380.500675 222.562089 
L 380.500675 222.562089 
L 380.500675 222.831484 
L 380.626886 223.100879 
L 380.753097 223.100879 
L 380.626886 222.831484 
L 380.626886 222.562089 
L 380.753097 222.696786 
L 380.374464 222.294207 
L 380.500675 222.294207 
L 380.248253 222.831484 
L 380.248253 223.100879 
L 380.248253 223.100879 
L 380.122042 222.428905 
L 379.99891 222.562089 
L 379.872699 222.562089 
L 379.99891 222.159509 
L 380.248253 221.755416 
L 380.374464 221.890114 
L 380.374464 222.159509 
L 380.122042 222.294207 
L 379.872699 222.159509 
L 379.872699 221.890114 
L 379.872699 222.024812 
L 380.122042 221.620719 
L 379.872699 221.620719 
L 379.746488 221.890114 
L 379.746488 221.755416 
L 379.494066 221.486021 
L 379.872699 221.216626 
L 380.122042 221.620719 
L 379.99891 221.351323 
L 379.620277 221.620719 
L 379.367855 221.755416 
L 379.367855 221.620719 
L 379.620277 221.620719 
L 379.872699 221.486021 
L 379.872699 221.351323 
L 379.99891 221.216626 
L 379.872699 221.081928 
L 379.241644 220.814046 
L 379.241644 220.679349 
L 379.367855 220.679349 
L 379.494066 220.814046 
L 379.494066 220.544651 
L 379.241644 220.409953 
L 378.992301 220.409953 
L 378.739879 220.140558 
L 378.739879 220.140558 
L 378.361246 220.140558 
L 368.676865 217.58433 
L 366.161882 217.045539 
L 363.394476 216.104169 
L 360.122227 214.758706 
L 356.853055 213.547941 
L 349.431237 211.663687 
L 345.783433 210.452922 
L 342.26184 208.972761 
L 331.066006 204.666977 
L 327.291992 202.918934 
L 323.644188 201.438774 
L 315.846814 198.882545 
L 308.172574 195.787526 
L 304.52477 194.711459 
L 296.601186 193.633877 
L 292.70096 192.692507 
L 289.053156 191.212347 
L 285.531563 190.001581 
L 276.727581 188.117328 
L 273.960175 187.310655 
L 271.445192 186.771865 
L 267.418755 186.369285 
L 262.764342 185.15852 
L 261.508389 185.023822 
L 259.36896 184.485032 
L 258.109929 184.485032 
L 257.355741 184.215636 
L 257.355741 184.080939 
L 257.481952 183.946241 
L 257.983718 183.813057 
L 259.116538 184.080939 
L 259.996936 183.813057 
L 260.123147 183.678359 
L 259.870725 183.408964 
L 259.621382 183.408964 
L 259.495171 183.274266 
L 259.747593 183.274266 
L 260.249358 184.485032 
L 260.123147 184.754427 
L 259.747593 184.754427 
L 259.747593 184.754427 
L 259.747593 184.889125 
L 258.614773 185.965192 
L 258.362351 185.965192 
L 257.983718 185.695797 
L 257.481952 186.234588 
L 257.229531 186.906562 
L 257.229531 187.310655 
L 257.355741 187.04126 
L 257.10332 187.445353 
L 256.853976 187.445353 
L 256.853976 187.04126 
L 256.980187 186.906562 
L 257.10332 187.04126 
L 256.222921 187.580051 
L 255.721156 187.580051 
L 255.973578 187.580051 
L 256.601554 187.310655 
L 255.721156 188.252025 
L 255.468734 188.252025 
L 255.468734 187.849446 
L 255.721156 187.580051 
L 255.847367 187.984144 
L 255.847367 188.386723 
L 255.721156 188.521421 
L 255.09318 188.521421 
L 255.468734 189.060211 
L 255.342523 189.194909 
L 254.840758 188.925514 
L 255.09318 188.521421 
L 254.840758 188.925514 
L 254.714547 188.656118 
L 254.335914 189.194909 
L 254.335914 189.462791 
L 254.462125 189.597488 
L 254.212781 189.462791 
L 254.462125 189.462791 
L 254.588336 189.194909 
L 254.588336 189.329607 
L 254.588336 189.597488 
L 253.960359 190.136279 
L 253.834149 190.136279 
L 254.08657 190.136279 
L 254.08657 190.270977 
L 253.960359 190.270977 
L 253.707938 190.001581 
L 253.332383 189.866884 
L 253.332383 190.001581 
L 253.581727 190.405674 
L 253.960359 190.405674 
L 254.08657 190.270977 
L 254.08657 190.270977 
L 253.581727 190.405674 
L 253.332383 190.136279 
L 253.581727 189.732186 
L 253.834149 189.866884 
L 254.08657 190.405674 
L 254.08657 190.67507 
L 253.707938 190.67507 
L 253.332383 190.405674 
L 253.332383 190.540372 
L 253.455516 190.942951 
L 253.707938 190.942951 
L 253.332383 190.405674 
L 253.206172 190.405674 
L 253.206172 190.270977 
L 253.332383 190.136279 
L 253.206172 190.270977 
L 253.332383 190.405674 
L 253.707938 190.270977 
L 254.212781 190.540372 
L 253.332383 190.540372 
L 253.206172 190.405674 
L 253.960359 190.405674 
L 253.960359 190.270977 
L 253.707938 190.405674 
L 253.581727 190.67507 
L 253.707938 190.67507 
L 253.834149 190.540372 
L 253.834149 190.67507 
L 253.707938 191.077649 
L 253.960359 191.212347 
L 254.335914 190.942951 
L 254.462125 190.67507 
L 253.834149 190.405674 
L 253.834149 190.270977 
L 254.212781 190.136279 
L 254.212781 190.270977 
L 253.960359 190.405674 
L 253.960359 190.405674 
L 254.08657 191.077649 
L 253.960359 191.077649 
L 253.960359 190.67507 
L 254.08657 191.077649 
L 253.707938 190.67507 
L 253.707938 190.405674 
L 253.834149 190.405674 
L 254.08657 190.808254 
L 253.707938 190.942951 
L 253.079961 190.942951 
L 252.073352 191.077649 
L 250.940532 191.077649 
L 249.807712 190.808254 
L 248.551759 190.67507 
L 246.917174 190.808254 
L 245.156377 190.808254 
L 239.369144 191.751137 
L 237.355926 192.15523 
L 235.342707 192.827205 
L 233.708122 193.903273 
L 230.565162 195.383433 
L 229.17992 195.787526 
L 227.797756 196.056922 
L 226.412514 196.594199 
L 223.645108 198.478452 
L 222.386077 199.150427 
L 221.256335 199.55452 
L 218.864484 200.093311 
L 217.608532 200.630588 
L 214.462493 201.573471 
L 212.701697 202.514841 
L 211.067111 203.590909 
L 204.39948 206.01244 
L 200.24991 208.570182 
L 199.997489 208.972761 
L 199.369512 209.646249 
L 199.618856 209.646249 
L 199.997489 209.780947 
L 200.751676 210.587619 
L 201.004098 210.452922 
L 201.25652 210.452922 
L 201.505863 210.587619 
L 201.758285 210.857015 
L 202.136918 210.857015 
L 202.512472 210.587619 
L 202.512472 210.857015 
L 202.136918 210.991712 
L 201.632074 210.991712 
L 201.884496 211.12641 
L 201.632074 211.12641 
L 201.505863 211.261108 
L 202.136918 212.606571 
L 202.136918 212.606571 
L 201.884496 212.874452 
L 201.25652 213.143848 
L 201.505863 213.00915 
L 201.382731 212.874452 
L 201.130309 213.00915 
L 200.877887 213.413243 
L 200.877887 213.817336 
L 201.004098 213.952034 
L 201.505863 213.413243 
L 201.25652 213.278545 
L 200.625465 213.547941 
L 200.24991 213.817336 
L 200.24991 213.817336 
L 200.123699 213.682638 
L 199.495723 213.682638 
L 199.369512 213.817336 
L 199.495723 213.547941 
L 199.495723 213.278545 
L 199.369512 213.278545 
L 199.618856 213.547941 
L 199.495723 213.817336 
L 199.11709 213.952034 
L 198.990879 213.682638 
L 198.990879 213.682638 
L 199.243301 213.682638 
L 199.495723 213.547941 
L 199.369512 213.413243 
L 199.11709 213.547941 
L 198.990879 213.817336 
L 199.11709 213.952034 
L 198.738457 213.682638 
L 198.489114 213.682638 
L 198.362903 213.952034 
L 198.362903 214.489311 
L 198.489114 214.758706 
L 198.990879 214.086731 
L 198.990879 213.952034 
L 198.990879 214.086731 
L 199.11709 214.219915 
L 198.990879 214.219915 
L 198.615325 214.893404 
L 198.489114 214.893404 
L 198.489114 215.028101 
L 198.615325 215.028101 
L 198.738457 214.893404 
L 198.990879 214.893404 
L 199.369512 215.162799 
L 199.369512 215.432194 
L 199.11709 215.565378 
L 198.864668 215.432194 
L 198.864668 215.028101 
L 198.990879 214.893404 
L 199.871278 214.893404 
L 199.745067 214.893404 
L 199.243301 215.162799 
L 199.11709 215.700076 
L 199.369512 214.758706 
L 199.243301 215.432194 
L 199.243301 215.700076 
L 199.11709 215.565378 
L 199.243301 215.297497 
L 199.495723 215.297497 
L 199.11709 215.297497 
L 198.990879 215.432194 
L 199.11709 215.565378 
L 199.369512 215.432194 
L 199.369512 215.565378 
L 199.745067 216.104169 
L 199.745067 215.969471 
L 199.997489 215.162799 
L 200.24991 215.028101 
L 200.24991 215.432194 
L 200.123699 215.565378 
L 200.123699 215.297497 
L 200.751676 214.758706 
L 201.758285 214.354613 
L 202.764894 213.817336 
L 205.784722 212.471873 
L 208.173495 211.12641 
L 214.714915 208.166089 
L 224.023741 204.666977 
L 229.807896 201.976051 
L 235.595129 198.747848 
L 248.299337 191.347044 
L 255.468734 186.906562 
L 263.142975 182.467594 
L 270.940348 178.296507 
L 278.614588 173.990723 
L 286.285751 169.550241 
L 293.83378 164.975061 
L 319.996384 148.56011 
L 325.909828 144.927814 
L 342.514262 133.625319 
L 347.922862 129.723628 
L 353.079041 125.821936 
L 357.607243 121.785547 
L 361.75989 117.749158 
L 370.563873 109.809565 
L 374.337888 105.907873 
L 377.480848 102.006182 
L 380.374464 98.10449 
L 388.301127 86.5326 
L 390.81611 83.035002 
L 392.703118 79.670588 
L 395.719867 73.482063 
L 396.978898 70.925835 
L 397.480664 68.772186 
L 397.606874 67.02263 
L 397.859296 65.274588 
L 398.237929 63.659729 
L 398.487273 62.044871 
L 398.487273 60.699408 
L 398.111718 59.892736 
L 396.978898 58.949852 
L 395.972289 58.412575 
L 393.959071 58.008482 
L 393.204883 58.14318 
L 391.191665 58.949852 
L 388.55047 59.758038 
L 388.55047 60.027433 
L 388.301127 60.160617 
L 387.796283 60.027433 
L 386.915885 59.62334 
L 385.656854 60.160617 
L 385.783065 60.027433 
L 385.783065 59.892736 
L 385.533721 59.758038 
L 385.155088 59.758038 
L 384.653323 59.353945 
L 384.653323 59.758038 
L 384.653323 59.488643 
L 384.527112 59.488643 
L 384.27469 59.219247 
L 383.896057 59.08455 
L 383.896057 58.949852 
L 383.896057 58.949852 
L 383.769846 58.949852 
L 383.394292 59.219247 
L 383.394292 59.488643 
L 383.769846 59.488643 
L 383.520503 59.353945 
L 383.394292 58.949852 
L 383.520503 58.949852 
L 383.268081 58.949852 
L 383.015659 59.08455 
L 382.766315 58.68197 
L 382.889448 58.68197 
L 382.889448 58.815154 
L 382.766315 59.08455 
L 382.387683 59.08455 
L 382.261472 58.949852 
L 382.261472 58.547273 
L 382.387683 58.412575 
L 382.261472 58.277877 
L 382.261472 58.277877 
L 382.00905 58.277877 
L 381.381073 57.739087 
L 381.381073 57.604389 
L 381.507284 57.739087 
L 381.381073 58.14318 
L 381.633495 57.334994 
L 381.507284 57.067112 
L 381.005519 56.932414 
L 380.879308 57.067112 
L 380.879308 57.469691 
L 381.005519 57.469691 
L 380.753097 57.067112 
L 380.879308 57.067112 
L 381.005519 57.067112 
L 381.005519 56.932414 
L 380.374464 57.334994 
L 380.248253 57.20181 
L 380.248253 56.797717 
L 380.626886 56.393624 
L 379.99891 55.989531 
L 379.872699 55.856347 
L 379.872699 56.528321 
L 379.746488 56.663019 
L 379.99891 56.258926 
L 379.99891 56.258926 
L 379.872699 56.258926 
L 379.620277 56.124228 
L 379.118512 56.663019 
L 379.118512 55.856347 
L 379.494066 55.048161 
L 378.86609 55.721649 
L 379.118512 55.586951 
L 379.367855 55.721649 
L 379.494066 55.721649 
L 379.494066 55.721649 
L 379.118512 55.586951 
L 378.739879 55.182858 
L 378.86609 55.048161 
L 378.739879 55.048161 
L 378.739879 54.644068 
L 378.487457 54.376186 
L 378.238113 54.510884 
L 378.487457 55.048161 
L 378.361246 54.778765 
L 378.111902 54.644068 
L 378.111902 54.644068 
L 377.985691 54.376186 
L 377.607059 54.106791 
L 377.73327 54.241488 
L 377.73327 54.510884 
L 377.73327 54.376186 
L 377.357715 54.376186 
L 377.105293 54.106791 
L 377.105293 53.702698 
L 376.979082 53.568 
L 376.474239 54.510884 
L 376.600449 54.510884 
L 376.852871 54.376186 
L 376.72666 54.376186 
L 376.474239 54.376186 
L 376.474239 54.241488 
L 376.600449 53.972093 
L 376.474239 54.376186 
L 376.474239 54.510884 
L 376.098684 55.048161 
L 376.098684 54.778765 
L 376.600449 53.972093 
L 376.600449 53.972093 
" style="fill:none;stroke:#1f77b4;stroke-linecap:square;stroke-width:1.5;"/>
   </g>
   <g id="matplotlib.axis_1">
    <g id="xtick_1">
     <g id="line2d_2">
      <defs>
       <path d="M 0 0 
L 0 3.5 
" id="m29172c4f83" style="stroke:#000000;stroke-width:0.8;"/>
      </defs>
      <g>
       <use style="stroke:#000000;stroke-width:0.8;" x="60.682163" xlink:href="#m29172c4f83" y="307.584"/>
      </g>
     </g>
     <g id="text_1">
      <!-- −800 -->
      <defs>
       <path d="M 10.59375 35.5 
L 73.1875 35.5 
L 73.1875 27.203125 
L 10.59375 27.203125 
z
" id="DejaVuSans-8722"/>
       <path d="M 31.78125 34.625 
Q 24.75 34.625 20.71875 30.859375 
Q 16.703125 27.09375 16.703125 20.515625 
Q 16.703125 13.921875 20.71875 10.15625 
Q 24.75 6.390625 31.78125 6.390625 
Q 38.8125 6.390625 42.859375 10.171875 
Q 46.921875 13.96875 46.921875 20.515625 
Q 46.921875 27.09375 42.890625 30.859375 
Q 38.875 34.625 31.78125 34.625 
z
M 21.921875 38.8125 
Q 15.578125 40.375 12.03125 44.71875 
Q 8.5 49.078125 8.5 55.328125 
Q 8.5 64.0625 14.71875 69.140625 
Q 20.953125 74.21875 31.78125 74.21875 
Q 42.671875 74.21875 48.875 69.140625 
Q 55.078125 64.0625 55.078125 55.328125 
Q 55.078125 49.078125 51.53125 44.71875 
Q 48 40.375 41.703125 38.8125 
Q 48.828125 37.15625 52.796875 32.3125 
Q 56.78125 27.484375 56.78125 20.515625 
Q 56.78125 9.90625 50.3125 4.234375 
Q 43.84375 -1.421875 31.78125 -1.421875 
Q 19.734375 -1.421875 13.25 4.234375 
Q 6.78125 9.90625 6.78125 20.515625 
Q 6.78125 27.484375 10.78125 32.3125 
Q 14.796875 37.15625 21.921875 38.8125 
z
M 18.3125 54.390625 
Q 18.3125 48.734375 21.84375 45.5625 
Q 25.390625 42.390625 31.78125 42.390625 
Q 38.140625 42.390625 41.71875 45.5625 
Q 45.3125 48.734375 45.3125 54.390625 
Q 45.3125 60.0625 41.71875 63.234375 
Q 38.140625 66.40625 31.78125 66.40625 
Q 25.390625 66.40625 21.84375 63.234375 
Q 18.3125 60.0625 18.3125 54.390625 
z
" id="DejaVuSans-56"/>
       <path d="M 31.78125 66.40625 
Q 24.171875 66.40625 20.328125 58.90625 
Q 16.5 51.421875 16.5 36.375 
Q 16.5 21.390625 20.328125 13.890625 
Q 24.171875 6.390625 31.78125 6.390625 
Q 39.453125 6.390625 43.28125 13.890625 
Q 47.125 21.390625 47.125 36.375 
Q 47.125 51.421875 43.28125 58.90625 
Q 39.453125 66.40625 31.78125 66.40625 
z
M 31.78125 74.21875 
Q 44.046875 74.21875 50.515625 64.515625 
Q 56.984375 54.828125 56.984375 36.375 
Q 56.984375 17.96875 50.515625 8.265625 
Q 44.046875 -1.421875 31.78125 -1.421875 
Q 19.53125 -1.421875 13.0625 8.265625 
Q 6.59375 17.96875 6.59375 36.375 
Q 6.59375 54.828125 13.0625 64.515625 
Q 19.53125 74.21875 31.78125 74.21875 
z
" id="DejaVuSans-48"/>
      </defs>
      <g transform="translate(46.94857 322.182437)scale(0.1 -0.1)">
       <use xlink:href="#DejaVuSans-8722"/>
       <use x="83.789062" xlink:href="#DejaVuSans-56"/>
       <use x="147.412109" xlink:href="#DejaVuSans-48"/>
       <use x="211.035156" xlink:href="#DejaVuSans-48"/>
      </g>
     </g>
    </g>
    <g id="xtick_2">
     <g id="line2d_3">
      <g>
       <use style="stroke:#000000;stroke-width:0.8;" x="122.248474" xlink:href="#m29172c4f83" y="307.584"/>
      </g>
     </g>
     <g id="text_2">
      <!-- −600 -->
      <defs>
       <path d="M 33.015625 40.375 
Q 26.375 40.375 22.484375 35.828125 
Q 18.609375 31.296875 18.609375 23.390625 
Q 18.609375 15.53125 22.484375 10.953125 
Q 26.375 6.390625 33.015625 6.390625 
Q 39.65625 6.390625 43.53125 10.953125 
Q 47.40625 15.53125 47.40625 23.390625 
Q 47.40625 31.296875 43.53125 35.828125 
Q 39.65625 40.375 33.015625 40.375 
z
M 52.59375 71.296875 
L 52.59375 62.3125 
Q 48.875 64.0625 45.09375 64.984375 
Q 41.3125 65.921875 37.59375 65.921875 
Q 27.828125 65.921875 22.671875 59.328125 
Q 17.53125 52.734375 16.796875 39.40625 
Q 19.671875 43.65625 24.015625 45.921875 
Q 28.375 48.1875 33.59375 48.1875 
Q 44.578125 48.1875 50.953125 41.515625 
Q 57.328125 34.859375 57.328125 23.390625 
Q 57.328125 12.15625 50.6875 5.359375 
Q 44.046875 -1.421875 33.015625 -1.421875 
Q 20.359375 -1.421875 13.671875 8.265625 
Q 6.984375 17.96875 6.984375 36.375 
Q 6.984375 53.65625 15.1875 63.9375 
Q 23.390625 74.21875 37.203125 74.21875 
Q 40.921875 74.21875 44.703125 73.484375 
Q 48.484375 72.75 52.59375 71.296875 
z
" id="DejaVuSans-54"/>
      </defs>
      <g transform="translate(108.51488 322.182437)scale(0.1 -0.1)">
       <use xlink:href="#DejaVuSans-8722"/>
       <use x="83.789062" xlink:href="#DejaVuSans-54"/>
       <use x="147.412109" xlink:href="#DejaVuSans-48"/>
       <use x="211.035156" xlink:href="#DejaVuSans-48"/>
      </g>
     </g>
    </g>
    <g id="xtick_3">
     <g id="line2d_4">
      <g>
       <use style="stroke:#000000;stroke-width:0.8;" x="183.814784" xlink:href="#m29172c4f83" y="307.584"/>
      </g>
     </g>
     <g id="text_3">
      <!-- −400 -->
      <defs>
       <path d="M 37.796875 64.3125 
L 12.890625 25.390625 
L 37.796875 25.390625 
z
M 35.203125 72.90625 
L 47.609375 72.90625 
L 47.609375 25.390625 
L 58.015625 25.390625 
L 58.015625 17.1875 
L 47.609375 17.1875 
L 47.609375 0 
L 37.796875 0 
L 37.796875 17.1875 
L 4.890625 17.1875 
L 4.890625 26.703125 
z
" id="DejaVuSans-52"/>
      </defs>
      <g transform="translate(170.08119 322.182437)scale(0.1 -0.1)">
       <use xlink:href="#DejaVuSans-8722"/>
       <use x="83.789062" xlink:href="#DejaVuSans-52"/>
       <use x="147.412109" xlink:href="#DejaVuSans-48"/>
       <use x="211.035156" xlink:href="#DejaVuSans-48"/>
      </g>
     </g>
    </g>
    <g id="xtick_4">
     <g id="line2d_5">
      <g>
       <use style="stroke:#000000;stroke-width:0.8;" x="245.381094" xlink:href="#m29172c4f83" y="307.584"/>
      </g>
     </g>
     <g id="text_4">
      <!-- −200 -->
      <defs>
       <path d="M 19.1875 8.296875 
L 53.609375 8.296875 
L 53.609375 0 
L 7.328125 0 
L 7.328125 8.296875 
Q 12.9375 14.109375 22.625 23.890625 
Q 32.328125 33.6875 34.8125 36.53125 
Q 39.546875 41.84375 41.421875 45.53125 
Q 43.3125 49.21875 43.3125 52.78125 
Q 43.3125 58.59375 39.234375 62.25 
Q 35.15625 65.921875 28.609375 65.921875 
Q 23.96875 65.921875 18.8125 64.3125 
Q 13.671875 62.703125 7.8125 59.421875 
L 7.8125 69.390625 
Q 13.765625 71.78125 18.9375 73 
Q 24.125 74.21875 28.421875 74.21875 
Q 39.75 74.21875 46.484375 68.546875 
Q 53.21875 62.890625 53.21875 53.421875 
Q 53.21875 48.921875 51.53125 44.890625 
Q 49.859375 40.875 45.40625 35.40625 
Q 44.1875 33.984375 37.640625 27.21875 
Q 31.109375 20.453125 19.1875 8.296875 
z
" id="DejaVuSans-50"/>
      </defs>
      <g transform="translate(231.6475 322.182437)scale(0.1 -0.1)">
       <use xlink:href="#DejaVuSans-8722"/>
       <use x="83.789062" xlink:href="#DejaVuSans-50"/>
       <use x="147.412109" xlink:href="#DejaVuSans-48"/>
       <use x="211.035156" xlink:href="#DejaVuSans-48"/>
      </g>
     </g>
    </g>
    <g id="xtick_5">
     <g id="line2d_6">
      <g>
       <use style="stroke:#000000;stroke-width:0.8;" x="306.947404" xlink:href="#m29172c4f83" y="307.584"/>
      </g>
     </g>
     <g id="text_5">
      <!-- 0 -->
      <g transform="translate(303.766154 322.182437)scale(0.1 -0.1)">
       <use xlink:href="#DejaVuSans-48"/>
      </g>
     </g>
    </g>
    <g id="xtick_6">
     <g id="line2d_7">
      <g>
       <use style="stroke:#000000;stroke-width:0.8;" x="368.513715" xlink:href="#m29172c4f83" y="307.584"/>
      </g>
     </g>
     <g id="text_6">
      <!-- 200 -->
      <g transform="translate(358.969965 322.182437)scale(0.1 -0.1)">
       <use xlink:href="#DejaVuSans-50"/>
       <use x="63.623047" xlink:href="#DejaVuSans-48"/>
       <use x="127.246094" xlink:href="#DejaVuSans-48"/>
      </g>
     </g>
    </g>
   </g>
   <g id="matplotlib.axis_2">
    <g id="ytick_1">
     <g id="line2d_8">
      <defs>
       <path d="M 0 0 
L -3.5 0 
" id="mc49d1273ea" style="stroke:#000000;stroke-width:0.8;"/>
      </defs>
      <g>
       <use style="stroke:#000000;stroke-width:0.8;" x="57.6" xlink:href="#mc49d1273ea" y="298.803984"/>
      </g>
     </g>
     <g id="text_7">
      <!-- −1000 -->
      <defs>
       <path d="M 12.40625 8.296875 
L 28.515625 8.296875 
L 28.515625 63.921875 
L 10.984375 60.40625 
L 10.984375 69.390625 
L 28.421875 72.90625 
L 38.28125 72.90625 
L 38.28125 8.296875 
L 54.390625 8.296875 
L 54.390625 0 
L 12.40625 0 
z
" id="DejaVuSans-49"/>
      </defs>
      <g transform="translate(16.770313 302.603202)scale(0.1 -0.1)">
       <use xlink:href="#DejaVuSans-8722"/>
       <use x="83.789062" xlink:href="#DejaVuSans-49"/>
       <use x="147.412109" xlink:href="#DejaVuSans-48"/>
       <use x="211.035156" xlink:href="#DejaVuSans-48"/>
       <use x="274.658203" xlink:href="#DejaVuSans-48"/>
      </g>
     </g>
    </g>
    <g id="ytick_2">
     <g id="line2d_9">
      <g>
       <use style="stroke:#000000;stroke-width:0.8;" x="57.6" xlink:href="#mc49d1273ea" y="268.53485"/>
      </g>
     </g>
     <g id="text_8">
      <!-- −800 -->
      <g transform="translate(23.132812 272.334068)scale(0.1 -0.1)">
       <use xlink:href="#DejaVuSans-8722"/>
       <use x="83.789062" xlink:href="#DejaVuSans-56"/>
       <use x="147.412109" xlink:href="#DejaVuSans-48"/>
       <use x="211.035156" xlink:href="#DejaVuSans-48"/>
      </g>
     </g>
    </g>
    <g id="ytick_3">
     <g id="line2d_10">
      <g>
       <use style="stroke:#000000;stroke-width:0.8;" x="57.6" xlink:href="#mc49d1273ea" y="238.265716"/>
      </g>
     </g>
     <g id="text_9">
      <!-- −600 -->
      <g transform="translate(23.132812 242.064934)scale(0.1 -0.1)">
       <use xlink:href="#DejaVuSans-8722"/>
       <use x="83.789062" xlink:href="#DejaVuSans-54"/>
       <use x="147.412109" xlink:href="#DejaVuSans-48"/>
       <use x="211.035156" xlink:href="#DejaVuSans-48"/>
      </g>
     </g>
    </g>
    <g id="ytick_4">
     <g id="line2d_11">
      <g>
       <use style="stroke:#000000;stroke-width:0.8;" x="57.6" xlink:href="#mc49d1273ea" y="207.996582"/>
      </g>
     </g>
     <g id="text_10">
      <!-- −400 -->
      <g transform="translate(23.132812 211.7958)scale(0.1 -0.1)">
       <use xlink:href="#DejaVuSans-8722"/>
       <use x="83.789062" xlink:href="#DejaVuSans-52"/>
       <use x="147.412109" xlink:href="#DejaVuSans-48"/>
       <use x="211.035156" xlink:href="#DejaVuSans-48"/>
      </g>
     </g>
    </g>
    <g id="ytick_5">
     <g id="line2d_12">
      <g>
       <use style="stroke:#000000;stroke-width:0.8;" x="57.6" xlink:href="#mc49d1273ea" y="177.727447"/>
      </g>
     </g>
     <g id="text_11">
      <!-- −200 -->
      <g transform="translate(23.132812 181.526666)scale(0.1 -0.1)">
       <use xlink:href="#DejaVuSans-8722"/>
       <use x="83.789062" xlink:href="#DejaVuSans-50"/>
       <use x="147.412109" xlink:href="#DejaVuSans-48"/>
       <use x="211.035156" xlink:href="#DejaVuSans-48"/>
      </g>
     </g>
    </g>
    <g id="ytick_6">
     <g id="line2d_13">
      <g>
       <use style="stroke:#000000;stroke-width:0.8;" x="57.6" xlink:href="#mc49d1273ea" y="147.458313"/>
      </g>
     </g>
     <g id="text_12">
      <!-- 0 -->
      <g transform="translate(44.2375 151.257532)scale(0.1 -0.1)">
       <use xlink:href="#DejaVuSans-48"/>
      </g>
     </g>
    </g>
    <g id="ytick_7">
     <g id="line2d_14">
      <g>
       <use style="stroke:#000000;stroke-width:0.8;" x="57.6" xlink:href="#mc49d1273ea" y="117.189179"/>
      </g>
     </g>
     <g id="text_13">
      <!-- 200 -->
      <g transform="translate(31.5125 120.988398)scale(0.1 -0.1)">
       <use xlink:href="#DejaVuSans-50"/>
       <use x="63.623047" xlink:href="#DejaVuSans-48"/>
       <use x="127.246094" xlink:href="#DejaVuSans-48"/>
      </g>
     </g>
    </g>
    <g id="ytick_8">
     <g id="line2d_15">
      <g>
       <use style="stroke:#000000;stroke-width:0.8;" x="57.6" xlink:href="#mc49d1273ea" y="86.920045"/>
      </g>
     </g>
     <g id="text_14">
      <!-- 400 -->
      <g transform="translate(31.5125 90.719264)scale(0.1 -0.1)">
       <use xlink:href="#DejaVuSans-52"/>
       <use x="63.623047" xlink:href="#DejaVuSans-48"/>
       <use x="127.246094" xlink:href="#DejaVuSans-48"/>
      </g>
     </g>
    </g>
    <g id="ytick_9">
     <g id="line2d_16">
      <g>
       <use style="stroke:#000000;stroke-width:0.8;" x="57.6" xlink:href="#mc49d1273ea" y="56.650911"/>
      </g>
     </g>
     <g id="text_15">
      <!-- 600 -->
      <g transform="translate(31.5125 60.45013)scale(0.1 -0.1)">
       <use xlink:href="#DejaVuSans-54"/>
       <use x="63.623047" xlink:href="#DejaVuSans-48"/>
       <use x="127.246094" xlink:href="#DejaVuSans-48"/>
      </g>
     </g>
    </g>
   </g>
   <g id="line2d_17">
    <path clip-path="url(#p41668ef4c1)" d="M 76.829211 291.295831 
L 294.139166 229.961099 
L 378.391761 223.35656 
L 261.020263 187.705557 
L 241.893553 193.902523 
L 202.099978 212.828128 
L 386.050049 60.827615 
" style="fill:none;stroke:#ff0000;stroke-linecap:square;stroke-width:0.5;"/>
   </g>
   <g id="patch_3">
    <path d="M 57.6 307.584 
L 57.6 41.472 
" style="fill:none;stroke:#000000;stroke-linecap:square;stroke-linejoin:miter;stroke-width:0.8;"/>
   </g>
   <g id="patch_4">
    <path d="M 414.72 307.584 
L 414.72 41.472 
" style="fill:none;stroke:#000000;stroke-linecap:square;stroke-linejoin:miter;stroke-width:0.8;"/>
   </g>
   <g id="patch_5">
    <path d="M 57.6 307.584 
L 414.72 307.584 
" style="fill:none;stroke:#000000;stroke-linecap:square;stroke-linejoin:miter;stroke-width:0.8;"/>
   </g>
   <g id="patch_6">
    <path d="M 57.6 41.472 
L 414.72 41.472 
" style="fill:none;stroke:#000000;stroke-linecap:square;stroke-linejoin:miter;stroke-width:0.8;"/>
   </g>
   <g id="PathCollection_1">
    <defs>
     <path d="M 0 2.738613 
C 0.726289 2.738613 1.422928 2.450055 1.936492 1.936492 
C 2.450055 1.422928 2.738613 0.726289 2.738613 0 
C 2.738613 -0.726289 2.450055 -1.422928 1.936492 -1.936492 
C 1.422928 -2.450055 0.726289 -2.738613 0 -2.738613 
C -0.726289 -2.738613 -1.422928 -2.450055 -1.936492 -1.936492 
C -2.450055 -1.422928 -2.738613 -0.726289 -2.738613 0 
C -2.738613 0.726289 -2.450055 1.422928 -1.936492 1.936492 
C -1.422928 2.450055 -0.726289 2.738613 0 2.738613 
z
" id="mb83e22e3cd" style="stroke:#ff0000;"/>
    </defs>
    <g clip-path="url(#p41668ef4c1)">
     <use style="fill:#ff0000;stroke:#ff0000;" x="76.829211" xlink:href="#mb83e22e3cd" y="291.295831"/>
     <use style="fill:#ff0000;stroke:#ff0000;" x="294.139166" xlink:href="#mb83e22e3cd" y="229.961099"/>
     <use style="fill:#ff0000;stroke:#ff0000;" x="378.391761" xlink:href="#mb83e22e3cd" y="223.35656"/>
     <use style="fill:#ff0000;stroke:#ff0000;" x="261.020263" xlink:href="#mb83e22e3cd" y="187.705557"/>
     <use style="fill:#ff0000;stroke:#ff0000;" x="241.893553" xlink:href="#mb83e22e3cd" y="193.902523"/>
     <use style="fill:#ff0000;stroke:#ff0000;" x="202.099978" xlink:href="#mb83e22e3cd" y="212.828128"/>
     <use style="fill:#ff0000;stroke:#ff0000;" x="386.050049" xlink:href="#mb83e22e3cd" y="60.827615"/>
    </g>
   </g>
   <g id="text_16">
    <!-- (130) Subject: s7, Known = False, Degree = 2, Duration = 0.1 -->
    <defs>
     <path d="M 31 75.875 
Q 24.46875 64.65625 21.28125 53.65625 
Q 18.109375 42.671875 18.109375 31.390625 
Q 18.109375 20.125 21.3125 9.0625 
Q 24.515625 -2 31 -13.1875 
L 23.1875 -13.1875 
Q 15.875 -1.703125 12.234375 9.375 
Q 8.59375 20.453125 8.59375 31.390625 
Q 8.59375 42.28125 12.203125 53.3125 
Q 15.828125 64.359375 23.1875 75.875 
z
" id="DejaVuSans-40"/>
     <path d="M 40.578125 39.3125 
Q 47.65625 37.796875 51.625 33 
Q 55.609375 28.21875 55.609375 21.1875 
Q 55.609375 10.40625 48.1875 4.484375 
Q 40.765625 -1.421875 27.09375 -1.421875 
Q 22.515625 -1.421875 17.65625 -0.515625 
Q 12.796875 0.390625 7.625 2.203125 
L 7.625 11.71875 
Q 11.71875 9.328125 16.59375 8.109375 
Q 21.484375 6.890625 26.8125 6.890625 
Q 36.078125 6.890625 40.9375 10.546875 
Q 45.796875 14.203125 45.796875 21.1875 
Q 45.796875 27.640625 41.28125 31.265625 
Q 36.765625 34.90625 28.71875 34.90625 
L 20.21875 34.90625 
L 20.21875 43.015625 
L 29.109375 43.015625 
Q 36.375 43.015625 40.234375 45.921875 
Q 44.09375 48.828125 44.09375 54.296875 
Q 44.09375 59.90625 40.109375 62.90625 
Q 36.140625 65.921875 28.71875 65.921875 
Q 24.65625 65.921875 20.015625 65.03125 
Q 15.375 64.15625 9.8125 62.3125 
L 9.8125 71.09375 
Q 15.4375 72.65625 20.34375 73.4375 
Q 25.25 74.21875 29.59375 74.21875 
Q 40.828125 74.21875 47.359375 69.109375 
Q 53.90625 64.015625 53.90625 55.328125 
Q 53.90625 49.265625 50.4375 45.09375 
Q 46.96875 40.921875 40.578125 39.3125 
z
" id="DejaVuSans-51"/>
     <path d="M 8.015625 75.875 
L 15.828125 75.875 
Q 23.140625 64.359375 26.78125 53.3125 
Q 30.421875 42.28125 30.421875 31.390625 
Q 30.421875 20.453125 26.78125 9.375 
Q 23.140625 -1.703125 15.828125 -13.1875 
L 8.015625 -13.1875 
Q 14.5 -2 17.703125 9.0625 
Q 20.90625 20.125 20.90625 31.390625 
Q 20.90625 42.671875 17.703125 53.65625 
Q 14.5 64.65625 8.015625 75.875 
z
" id="DejaVuSans-41"/>
     <path id="DejaVuSans-32"/>
     <path d="M 53.515625 70.515625 
L 53.515625 60.890625 
Q 47.90625 63.578125 42.921875 64.890625 
Q 37.9375 66.21875 33.296875 66.21875 
Q 25.25 66.21875 20.875 63.09375 
Q 16.5 59.96875 16.5 54.203125 
Q 16.5 49.359375 19.40625 46.890625 
Q 22.3125 44.4375 30.421875 42.921875 
L 36.375 41.703125 
Q 47.40625 39.59375 52.65625 34.296875 
Q 57.90625 29 57.90625 20.125 
Q 57.90625 9.515625 50.796875 4.046875 
Q 43.703125 -1.421875 29.984375 -1.421875 
Q 24.8125 -1.421875 18.96875 -0.25 
Q 13.140625 0.921875 6.890625 3.21875 
L 6.890625 13.375 
Q 12.890625 10.015625 18.65625 8.296875 
Q 24.421875 6.59375 29.984375 6.59375 
Q 38.421875 6.59375 43.015625 9.90625 
Q 47.609375 13.234375 47.609375 19.390625 
Q 47.609375 24.75 44.3125 27.78125 
Q 41.015625 30.8125 33.5 32.328125 
L 27.484375 33.5 
Q 16.453125 35.6875 11.515625 40.375 
Q 6.59375 45.0625 6.59375 53.421875 
Q 6.59375 63.09375 13.40625 68.65625 
Q 20.21875 74.21875 32.171875 74.21875 
Q 37.3125 74.21875 42.625 73.28125 
Q 47.953125 72.359375 53.515625 70.515625 
z
" id="DejaVuSans-83"/>
     <path d="M 8.5 21.578125 
L 8.5 54.6875 
L 17.484375 54.6875 
L 17.484375 21.921875 
Q 17.484375 14.15625 20.5 10.265625 
Q 23.53125 6.390625 29.59375 6.390625 
Q 36.859375 6.390625 41.078125 11.03125 
Q 45.3125 15.671875 45.3125 23.6875 
L 45.3125 54.6875 
L 54.296875 54.6875 
L 54.296875 0 
L 45.3125 0 
L 45.3125 8.40625 
Q 42.046875 3.421875 37.71875 1 
Q 33.40625 -1.421875 27.6875 -1.421875 
Q 18.265625 -1.421875 13.375 4.4375 
Q 8.5 10.296875 8.5 21.578125 
z
M 31.109375 56 
z
" id="DejaVuSans-117"/>
     <path d="M 48.6875 27.296875 
Q 48.6875 37.203125 44.609375 42.84375 
Q 40.53125 48.484375 33.40625 48.484375 
Q 26.265625 48.484375 22.1875 42.84375 
Q 18.109375 37.203125 18.109375 27.296875 
Q 18.109375 17.390625 22.1875 11.75 
Q 26.265625 6.109375 33.40625 6.109375 
Q 40.53125 6.109375 44.609375 11.75 
Q 48.6875 17.390625 48.6875 27.296875 
z
M 18.109375 46.390625 
Q 20.953125 51.265625 25.265625 53.625 
Q 29.59375 56 35.59375 56 
Q 45.5625 56 51.78125 48.09375 
Q 58.015625 40.1875 58.015625 27.296875 
Q 58.015625 14.40625 51.78125 6.484375 
Q 45.5625 -1.421875 35.59375 -1.421875 
Q 29.59375 -1.421875 25.265625 0.953125 
Q 20.953125 3.328125 18.109375 8.203125 
L 18.109375 0 
L 9.078125 0 
L 9.078125 75.984375 
L 18.109375 75.984375 
z
" id="DejaVuSans-98"/>
     <path d="M 9.421875 54.6875 
L 18.40625 54.6875 
L 18.40625 -0.984375 
Q 18.40625 -11.421875 14.421875 -16.109375 
Q 10.453125 -20.796875 1.609375 -20.796875 
L -1.8125 -20.796875 
L -1.8125 -13.1875 
L 0.59375 -13.1875 
Q 5.71875 -13.1875 7.5625 -10.8125 
Q 9.421875 -8.453125 9.421875 -0.984375 
z
M 9.421875 75.984375 
L 18.40625 75.984375 
L 18.40625 64.59375 
L 9.421875 64.59375 
z
" id="DejaVuSans-106"/>
     <path d="M 56.203125 29.59375 
L 56.203125 25.203125 
L 14.890625 25.203125 
Q 15.484375 15.921875 20.484375 11.0625 
Q 25.484375 6.203125 34.421875 6.203125 
Q 39.59375 6.203125 44.453125 7.46875 
Q 49.3125 8.734375 54.109375 11.28125 
L 54.109375 2.78125 
Q 49.265625 0.734375 44.1875 -0.34375 
Q 39.109375 -1.421875 33.890625 -1.421875 
Q 20.796875 -1.421875 13.15625 6.1875 
Q 5.515625 13.8125 5.515625 26.8125 
Q 5.515625 40.234375 12.765625 48.109375 
Q 20.015625 56 32.328125 56 
Q 43.359375 56 49.78125 48.890625 
Q 56.203125 41.796875 56.203125 29.59375 
z
M 47.21875 32.234375 
Q 47.125 39.59375 43.09375 43.984375 
Q 39.0625 48.390625 32.421875 48.390625 
Q 24.90625 48.390625 20.390625 44.140625 
Q 15.875 39.890625 15.1875 32.171875 
z
" id="DejaVuSans-101"/>
     <path d="M 48.78125 52.59375 
L 48.78125 44.1875 
Q 44.96875 46.296875 41.140625 47.34375 
Q 37.3125 48.390625 33.40625 48.390625 
Q 24.65625 48.390625 19.8125 42.84375 
Q 14.984375 37.3125 14.984375 27.296875 
Q 14.984375 17.28125 19.8125 11.734375 
Q 24.65625 6.203125 33.40625 6.203125 
Q 37.3125 6.203125 41.140625 7.25 
Q 44.96875 8.296875 48.78125 10.40625 
L 48.78125 2.09375 
Q 45.015625 0.34375 40.984375 -0.53125 
Q 36.96875 -1.421875 32.421875 -1.421875 
Q 20.0625 -1.421875 12.78125 6.34375 
Q 5.515625 14.109375 5.515625 27.296875 
Q 5.515625 40.671875 12.859375 48.328125 
Q 20.21875 56 33.015625 56 
Q 37.15625 56 41.109375 55.140625 
Q 45.0625 54.296875 48.78125 52.59375 
z
" id="DejaVuSans-99"/>
     <path d="M 18.3125 70.21875 
L 18.3125 54.6875 
L 36.8125 54.6875 
L 36.8125 47.703125 
L 18.3125 47.703125 
L 18.3125 18.015625 
Q 18.3125 11.328125 20.140625 9.421875 
Q 21.96875 7.515625 27.59375 7.515625 
L 36.8125 7.515625 
L 36.8125 0 
L 27.59375 0 
Q 17.1875 0 13.234375 3.875 
Q 9.28125 7.765625 9.28125 18.015625 
L 9.28125 47.703125 
L 2.6875 47.703125 
L 2.6875 54.6875 
L 9.28125 54.6875 
L 9.28125 70.21875 
z
" id="DejaVuSans-116"/>
     <path d="M 11.71875 12.40625 
L 22.015625 12.40625 
L 22.015625 0 
L 11.71875 0 
z
M 11.71875 51.703125 
L 22.015625 51.703125 
L 22.015625 39.3125 
L 11.71875 39.3125 
z
" id="DejaVuSans-58"/>
     <path d="M 44.28125 53.078125 
L 44.28125 44.578125 
Q 40.484375 46.53125 36.375 47.5 
Q 32.28125 48.484375 27.875 48.484375 
Q 21.1875 48.484375 17.84375 46.4375 
Q 14.5 44.390625 14.5 40.28125 
Q 14.5 37.15625 16.890625 35.375 
Q 19.28125 33.59375 26.515625 31.984375 
L 29.59375 31.296875 
Q 39.15625 29.25 43.1875 25.515625 
Q 47.21875 21.78125 47.21875 15.09375 
Q 47.21875 7.46875 41.1875 3.015625 
Q 35.15625 -1.421875 24.609375 -1.421875 
Q 20.21875 -1.421875 15.453125 -0.5625 
Q 10.6875 0.296875 5.421875 2 
L 5.421875 11.28125 
Q 10.40625 8.6875 15.234375 7.390625 
Q 20.0625 6.109375 24.8125 6.109375 
Q 31.15625 6.109375 34.5625 8.28125 
Q 37.984375 10.453125 37.984375 14.40625 
Q 37.984375 18.0625 35.515625 20.015625 
Q 33.0625 21.96875 24.703125 23.78125 
L 21.578125 24.515625 
Q 13.234375 26.265625 9.515625 29.90625 
Q 5.8125 33.546875 5.8125 39.890625 
Q 5.8125 47.609375 11.28125 51.796875 
Q 16.75 56 26.8125 56 
Q 31.78125 56 36.171875 55.265625 
Q 40.578125 54.546875 44.28125 53.078125 
z
" id="DejaVuSans-115"/>
     <path d="M 8.203125 72.90625 
L 55.078125 72.90625 
L 55.078125 68.703125 
L 28.609375 0 
L 18.3125 0 
L 43.21875 64.59375 
L 8.203125 64.59375 
z
" id="DejaVuSans-55"/>
     <path d="M 11.71875 12.40625 
L 22.015625 12.40625 
L 22.015625 4 
L 14.015625 -11.625 
L 7.71875 -11.625 
L 11.71875 4 
z
" id="DejaVuSans-44"/>
     <path d="M 9.8125 72.90625 
L 19.671875 72.90625 
L 19.671875 42.09375 
L 52.390625 72.90625 
L 65.09375 72.90625 
L 28.90625 38.921875 
L 67.671875 0 
L 54.6875 0 
L 19.671875 35.109375 
L 19.671875 0 
L 9.8125 0 
z
" id="DejaVuSans-75"/>
     <path d="M 54.890625 33.015625 
L 54.890625 0 
L 45.90625 0 
L 45.90625 32.71875 
Q 45.90625 40.484375 42.875 44.328125 
Q 39.84375 48.1875 33.796875 48.1875 
Q 26.515625 48.1875 22.3125 43.546875 
Q 18.109375 38.921875 18.109375 30.90625 
L 18.109375 0 
L 9.078125 0 
L 9.078125 54.6875 
L 18.109375 54.6875 
L 18.109375 46.1875 
Q 21.34375 51.125 25.703125 53.5625 
Q 30.078125 56 35.796875 56 
Q 45.21875 56 50.046875 50.171875 
Q 54.890625 44.34375 54.890625 33.015625 
z
" id="DejaVuSans-110"/>
     <path d="M 30.609375 48.390625 
Q 23.390625 48.390625 19.1875 42.75 
Q 14.984375 37.109375 14.984375 27.296875 
Q 14.984375 17.484375 19.15625 11.84375 
Q 23.34375 6.203125 30.609375 6.203125 
Q 37.796875 6.203125 41.984375 11.859375 
Q 46.1875 17.53125 46.1875 27.296875 
Q 46.1875 37.015625 41.984375 42.703125 
Q 37.796875 48.390625 30.609375 48.390625 
z
M 30.609375 56 
Q 42.328125 56 49.015625 48.375 
Q 55.71875 40.765625 55.71875 27.296875 
Q 55.71875 13.875 49.015625 6.21875 
Q 42.328125 -1.421875 30.609375 -1.421875 
Q 18.84375 -1.421875 12.171875 6.21875 
Q 5.515625 13.875 5.515625 27.296875 
Q 5.515625 40.765625 12.171875 48.375 
Q 18.84375 56 30.609375 56 
z
" id="DejaVuSans-111"/>
     <path d="M 4.203125 54.6875 
L 13.1875 54.6875 
L 24.421875 12.015625 
L 35.59375 54.6875 
L 46.1875 54.6875 
L 57.421875 12.015625 
L 68.609375 54.6875 
L 77.59375 54.6875 
L 63.28125 0 
L 52.6875 0 
L 40.921875 44.828125 
L 29.109375 0 
L 18.5 0 
z
" id="DejaVuSans-119"/>
     <path d="M 10.59375 45.40625 
L 73.1875 45.40625 
L 73.1875 37.203125 
L 10.59375 37.203125 
z
M 10.59375 25.484375 
L 73.1875 25.484375 
L 73.1875 17.1875 
L 10.59375 17.1875 
z
" id="DejaVuSans-61"/>
     <path d="M 9.8125 72.90625 
L 51.703125 72.90625 
L 51.703125 64.59375 
L 19.671875 64.59375 
L 19.671875 43.109375 
L 48.578125 43.109375 
L 48.578125 34.8125 
L 19.671875 34.8125 
L 19.671875 0 
L 9.8125 0 
z
" id="DejaVuSans-70"/>
     <path d="M 34.28125 27.484375 
Q 23.390625 27.484375 19.1875 25 
Q 14.984375 22.515625 14.984375 16.5 
Q 14.984375 11.71875 18.140625 8.90625 
Q 21.296875 6.109375 26.703125 6.109375 
Q 34.1875 6.109375 38.703125 11.40625 
Q 43.21875 16.703125 43.21875 25.484375 
L 43.21875 27.484375 
z
M 52.203125 31.203125 
L 52.203125 0 
L 43.21875 0 
L 43.21875 8.296875 
Q 40.140625 3.328125 35.546875 0.953125 
Q 30.953125 -1.421875 24.3125 -1.421875 
Q 15.921875 -1.421875 10.953125 3.296875 
Q 6 8.015625 6 15.921875 
Q 6 25.140625 12.171875 29.828125 
Q 18.359375 34.515625 30.609375 34.515625 
L 43.21875 34.515625 
L 43.21875 35.40625 
Q 43.21875 41.609375 39.140625 45 
Q 35.0625 48.390625 27.6875 48.390625 
Q 23 48.390625 18.546875 47.265625 
Q 14.109375 46.140625 10.015625 43.890625 
L 10.015625 52.203125 
Q 14.9375 54.109375 19.578125 55.046875 
Q 24.21875 56 28.609375 56 
Q 40.484375 56 46.34375 49.84375 
Q 52.203125 43.703125 52.203125 31.203125 
z
" id="DejaVuSans-97"/>
     <path d="M 9.421875 75.984375 
L 18.40625 75.984375 
L 18.40625 0 
L 9.421875 0 
z
" id="DejaVuSans-108"/>
     <path d="M 19.671875 64.796875 
L 19.671875 8.109375 
L 31.59375 8.109375 
Q 46.6875 8.109375 53.6875 14.9375 
Q 60.6875 21.78125 60.6875 36.53125 
Q 60.6875 51.171875 53.6875 57.984375 
Q 46.6875 64.796875 31.59375 64.796875 
z
M 9.8125 72.90625 
L 30.078125 72.90625 
Q 51.265625 72.90625 61.171875 64.09375 
Q 71.09375 55.28125 71.09375 36.53125 
Q 71.09375 17.671875 61.125 8.828125 
Q 51.171875 0 30.078125 0 
L 9.8125 0 
z
" id="DejaVuSans-68"/>
     <path d="M 45.40625 27.984375 
Q 45.40625 37.75 41.375 43.109375 
Q 37.359375 48.484375 30.078125 48.484375 
Q 22.859375 48.484375 18.828125 43.109375 
Q 14.796875 37.75 14.796875 27.984375 
Q 14.796875 18.265625 18.828125 12.890625 
Q 22.859375 7.515625 30.078125 7.515625 
Q 37.359375 7.515625 41.375 12.890625 
Q 45.40625 18.265625 45.40625 27.984375 
z
M 54.390625 6.78125 
Q 54.390625 -7.171875 48.1875 -13.984375 
Q 42 -20.796875 29.203125 -20.796875 
Q 24.46875 -20.796875 20.265625 -20.09375 
Q 16.0625 -19.390625 12.109375 -17.921875 
L 12.109375 -9.1875 
Q 16.0625 -11.328125 19.921875 -12.34375 
Q 23.78125 -13.375 27.78125 -13.375 
Q 36.625 -13.375 41.015625 -8.765625 
Q 45.40625 -4.15625 45.40625 5.171875 
L 45.40625 9.625 
Q 42.625 4.78125 38.28125 2.390625 
Q 33.9375 0 27.875 0 
Q 17.828125 0 11.671875 7.65625 
Q 5.515625 15.328125 5.515625 27.984375 
Q 5.515625 40.671875 11.671875 48.328125 
Q 17.828125 56 27.875 56 
Q 33.9375 56 38.28125 53.609375 
Q 42.625 51.21875 45.40625 46.390625 
L 45.40625 54.6875 
L 54.390625 54.6875 
z
" id="DejaVuSans-103"/>
     <path d="M 41.109375 46.296875 
Q 39.59375 47.171875 37.8125 47.578125 
Q 36.03125 48 33.890625 48 
Q 26.265625 48 22.1875 43.046875 
Q 18.109375 38.09375 18.109375 28.8125 
L 18.109375 0 
L 9.078125 0 
L 9.078125 54.6875 
L 18.109375 54.6875 
L 18.109375 46.1875 
Q 20.953125 51.171875 25.484375 53.578125 
Q 30.03125 56 36.53125 56 
Q 37.453125 56 38.578125 55.875 
Q 39.703125 55.765625 41.0625 55.515625 
z
" id="DejaVuSans-114"/>
     <path d="M 9.421875 54.6875 
L 18.40625 54.6875 
L 18.40625 0 
L 9.421875 0 
z
M 9.421875 75.984375 
L 18.40625 75.984375 
L 18.40625 64.59375 
L 9.421875 64.59375 
z
" id="DejaVuSans-105"/>
     <path d="M 10.6875 12.40625 
L 21 12.40625 
L 21 0 
L 10.6875 0 
z
" id="DejaVuSans-46"/>
    </defs>
    <g transform="translate(49.741875 35.472)scale(0.12 -0.12)">
     <use xlink:href="#DejaVuSans-40"/>
     <use x="39.013672" xlink:href="#DejaVuSans-49"/>
     <use x="102.636719" xlink:href="#DejaVuSans-51"/>
     <use x="166.259766" xlink:href="#DejaVuSans-48"/>
     <use x="229.882812" xlink:href="#DejaVuSans-41"/>
     <use x="268.896484" xlink:href="#DejaVuSans-32"/>
     <use x="300.683594" xlink:href="#DejaVuSans-83"/>
     <use x="364.160156" xlink:href="#DejaVuSans-117"/>
     <use x="427.539062" xlink:href="#DejaVuSans-98"/>
     <use x="491.015625" xlink:href="#DejaVuSans-106"/>
     <use x="518.798828" xlink:href="#DejaVuSans-101"/>
     <use x="580.322266" xlink:href="#DejaVuSans-99"/>
     <use x="635.302734" xlink:href="#DejaVuSans-116"/>
     <use x="674.511719" xlink:href="#DejaVuSans-58"/>
     <use x="708.203125" xlink:href="#DejaVuSans-32"/>
     <use x="739.990234" xlink:href="#DejaVuSans-115"/>
     <use x="792.089844" xlink:href="#DejaVuSans-55"/>
     <use x="855.712891" xlink:href="#DejaVuSans-44"/>
     <use x="887.5" xlink:href="#DejaVuSans-32"/>
     <use x="919.287109" xlink:href="#DejaVuSans-75"/>
     <use x="984.863281" xlink:href="#DejaVuSans-110"/>
     <use x="1048.242188" xlink:href="#DejaVuSans-111"/>
     <use x="1109.423828" xlink:href="#DejaVuSans-119"/>
     <use x="1191.210938" xlink:href="#DejaVuSans-110"/>
     <use x="1254.589844" xlink:href="#DejaVuSans-32"/>
     <use x="1286.376953" xlink:href="#DejaVuSans-61"/>
     <use x="1370.166016" xlink:href="#DejaVuSans-32"/>
     <use x="1401.953125" xlink:href="#DejaVuSans-70"/>
     <use x="1459.332031" xlink:href="#DejaVuSans-97"/>
     <use x="1520.611328" xlink:href="#DejaVuSans-108"/>
     <use x="1548.394531" xlink:href="#DejaVuSans-115"/>
     <use x="1600.494141" xlink:href="#DejaVuSans-101"/>
     <use x="1662.017578" xlink:href="#DejaVuSans-44"/>
     <use x="1693.804688" xlink:href="#DejaVuSans-32"/>
     <use x="1725.591797" xlink:href="#DejaVuSans-68"/>
     <use x="1802.59375" xlink:href="#DejaVuSans-101"/>
     <use x="1864.117188" xlink:href="#DejaVuSans-103"/>
     <use x="1927.59375" xlink:href="#DejaVuSans-114"/>
     <use x="1968.675781" xlink:href="#DejaVuSans-101"/>
     <use x="2030.199219" xlink:href="#DejaVuSans-101"/>
     <use x="2091.722656" xlink:href="#DejaVuSans-32"/>
     <use x="2123.509766" xlink:href="#DejaVuSans-61"/>
     <use x="2207.298828" xlink:href="#DejaVuSans-32"/>
     <use x="2239.085938" xlink:href="#DejaVuSans-50"/>
     <use x="2302.708984" xlink:href="#DejaVuSans-44"/>
     <use x="2334.496094" xlink:href="#DejaVuSans-32"/>
     <use x="2366.283203" xlink:href="#DejaVuSans-68"/>
     <use x="2443.285156" xlink:href="#DejaVuSans-117"/>
     <use x="2506.664062" xlink:href="#DejaVuSans-114"/>
     <use x="2547.777344" xlink:href="#DejaVuSans-97"/>
     <use x="2609.056641" xlink:href="#DejaVuSans-116"/>
     <use x="2648.265625" xlink:href="#DejaVuSans-105"/>
     <use x="2676.048828" xlink:href="#DejaVuSans-111"/>
     <use x="2737.230469" xlink:href="#DejaVuSans-110"/>
     <use x="2800.609375" xlink:href="#DejaVuSans-32"/>
     <use x="2832.396484" xlink:href="#DejaVuSans-61"/>
     <use x="2916.185547" xlink:href="#DejaVuSans-32"/>
     <use x="2947.972656" xlink:href="#DejaVuSans-48"/>
     <use x="3011.595703" xlink:href="#DejaVuSans-46"/>
     <use x="3043.382812" xlink:href="#DejaVuSans-49"/>
    </g>
   </g>
  </g>
 </g>
 <defs>
  <clipPath id="p41668ef4c1">
   <rect height="266.112" width="357.12" x="57.6" y="41.472"/>
  </clipPath>
 </defs>
</svg>
