<?xml version="1.0" encoding="utf-8" standalone="no"?>
<!DOCTYPE svg PUBLIC "-//W3C//DTD SVG 1.1//EN"
  "http://www.w3.org/Graphics/SVG/1.1/DTD/svg11.dtd">
<!-- Created with matplotlib (https://matplotlib.org/) -->
<svg height="345.6pt" version="1.1" viewBox="0 0 460.8 345.6" width="460.8pt" xmlns="http://www.w3.org/2000/svg" xmlns:xlink="http://www.w3.org/1999/xlink">
 <defs>
  <style type="text/css">
*{stroke-linecap:butt;stroke-linejoin:round;}
  </style>
 </defs>
 <g id="figure_1">
  <g id="patch_1">
   <path d="M 0 345.6 
L 460.8 345.6 
L 460.8 0 
L 0 0 
z
" style="fill:#ffffff;"/>
  </g>
  <g id="axes_1">
   <g id="patch_2">
    <path d="M 57.6 307.584 
L 414.72 307.584 
L 414.72 41.472 
L 57.6 41.472 
z
" style="fill:#ffffff;"/>
   </g>
   <g id="line2d_1">
    <path clip-path="url(#paac5fac115)" d="M 397.592198 67.505509 
L 397.294862 66.842769 
L 397.396018 66.675722 
L 397.396018 66.842769 
L 397.494108 66.842769 
L 397.396018 66.842769 
L 397.396018 67.175047 
L 397.196772 67.175047 
L 397.098681 66.842769 
L 397.196772 66.842769 
L 397.494108 66.842769 
L 397.494108 67.008 
L 397.592198 66.34526 
L 397.693354 66.178213 
L 397.693354 66.178213 
L 397.494108 66.178213 
L 397.396018 66.34526 
L 397.294862 66.178213 
L 397.294862 65.515474 
L 397.396018 65.515474 
L 397.791444 65.680705 
L 397.889535 65.515474 
L 397.592198 65.847751 
L 397.693354 65.515474 
L 397.791444 63.523623 
L 397.196772 63.523623 
L 397.396018 62.693836 
L 397.196772 63.026114 
L 396.997525 63.358392 
L 397.196772 63.358392 
L 397.592198 62.860883 
L 397.396018 62.528605 
L 397.396018 62.196327 
L 397.098681 62.031096 
L 397.196772 62.196327 
L 397.396018 62.196327 
L 397.693354 62.860883 
L 397.693354 62.693836 
L 397.791444 62.363374 
L 397.791444 62.363374 
L 397.791444 62.196327 
L 397.693354 62.196327 
L 397.592198 62.196327 
L 397.693354 62.196327 
L 397.99069 61.533588 
L 397.99069 61.20131 
L 397.791444 61.034263 
L 397.693354 61.20131 
L 397.791444 61.366541 
L 397.494108 60.869032 
L 397.294862 60.869032 
L 397.294862 60.869032 
L 397.396018 60.703801 
L 397.592198 60.869032 
L 397.592198 61.034263 
L 397.693354 59.874015 
L 397.791444 59.874015 
L 397.396018 61.20131 
L 397.396018 61.034263 
L 397.494108 60.371523 
L 397.592198 59.706968 
L 397.592198 60.206292 
L 397.592198 60.703801 
L 397.693354 60.536754 
L 397.99069 59.044228 
L 397.99069 59.541737 
L 397.889535 59.541737 
L 397.791444 59.874015 
L 397.99069 59.209459 
L 397.99069 59.209459 
L 398.189936 59.209459 
L 398.288027 59.044228 
L 398.189936 58.71195 
L 397.99069 58.877181 
L 397.693354 59.376506 
L 397.494108 59.376506 
L 397.494108 59.044228 
L 398.189936 58.546719 
L 398.088781 59.376506 
L 397.99069 59.706968 
L 397.889535 59.376506 
L 398.088781 58.546719 
L 398.189936 58.04921 
L 398.288027 57.716933 
L 398.189936 58.04921 
L 397.791444 58.214442 
L 397.791444 58.04921 
L 397.693354 58.214442 
L 397.592198 58.379673 
L 397.592198 58.379673 
L 397.693354 57.882164 
L 397.99069 57.384655 
L 398.189936 57.549886 
L 398.386117 58.214442 
L 398.288027 58.214442 
L 397.889535 57.882164 
L 397.693354 57.549886 
L 397.791444 57.219424 
L 397.791444 57.219424 
L 397.592198 57.052377 
L 397.889535 57.219424 
L 398.088781 57.384655 
L 398.189936 57.716933 
L 398.088781 57.882164 
L 397.99069 57.219424 
L 397.99069 56.887146 
L 398.088781 56.887146 
L 398.189936 56.887146 
L 398.189936 56.721915 
L 397.693354 56.222591 
L 397.791444 56.222591 
L 398.088781 56.554868 
L 397.99069 56.554868 
L 398.189936 56.554868 
L 398.487273 56.05736 
L 398.386117 55.892129 
L 397.889535 56.222591 
L 397.791444 56.05736 
L 397.99069 55.559851 
L 397.99069 55.392804 
L 398.088781 55.392804 
L 397.494108 55.392804 
L 397.592198 54.895295 
L 397.99069 53.900278 
L 397.791444 54.397787 
L 397.693354 55.062342 
L 397.592198 54.730064 
L 397.791444 53.900278 
L 397.693354 53.900278 
L 397.494108 53.900278 
L 396.899435 54.232556 
L 396.997525 54.065509 
L 397.294862 53.735047 
L 397.494108 53.735047 
L 397.791444 53.900278 
L 397.99069 54.232556 
L 397.99069 54.065509 
L 397.791444 53.900278 
L 397.494108 53.900278 
L 397.396018 54.065509 
L 397.494108 54.065509 
L 397.693354 54.065509 
L 397.889535 54.397787 
L 397.693354 54.895295 
L 397.396018 55.227573 
L 397.396018 55.062342 
L 397.693354 54.397787 
L 397.592198 54.730064 
L 397.693354 55.227573 
L 397.693354 54.730064 
L 397.791444 54.397787 
L 397.592198 54.730064 
L 397.592198 54.730064 
L 397.294862 55.062342 
L 396.997525 55.227573 
L 396.801345 55.062342 
L 396.899435 55.062342 
L 397.294862 55.062342 
L 397.098681 55.227573 
L 396.899435 55.062342 
L 395.80818 55.062342 
L 394.716925 54.895295 
L 393.429489 54.895295 
L 389.858387 54.564833 
L 387.37854 54.895295 
L 380.735984 55.227573 
L 376.867546 55.227573 
L 364.373287 53.735047 
L 359.812086 53.568 
L 355.152794 53.900278 
L 350.09501 54.564833 
L 344.841046 55.392804 
L 339.682106 55.725082 
L 334.725478 55.725082 
L 329.86694 55.892129 
L 325.106493 56.222591 
L 315.288262 57.219424 
L 305.37194 59.209459 
L 300.513402 59.874015 
L 295.85411 60.206292 
L 291.292909 60.703801 
L 286.532462 61.533588 
L 281.673924 62.528605 
L 276.71423 63.358392 
L 267.196401 65.348427 
L 262.435953 66.675722 
L 257.776662 67.672556 
L 253.21546 68.502342 
L 249.049685 69.662591 
L 236.852763 74.143801 
L 233.382817 75.30405 
L 230.109051 76.133836 
L 226.838351 77.13067 
L 223.665741 78.457965 
L 220.689312 79.950491 
L 215.732684 82.772129 
L 213.74942 84.099424 
L 212.161582 85.426719 
L 210.772991 86.919246 
L 209.782891 88.246541 
L 209.087063 89.740883 
L 208.59048 91.233409 
L 208.195053 92.892982 
L 208.394299 95.547573 
L 208.195053 96.212129 
L 208.887817 98.699673 
L 208.789726 99.861737 
L 207.897717 101.52131 
L 208.096963 102.18405 
L 207.995807 102.516327 
L 207.204954 103.843623 
L 207.204954 104.673409 
L 206.708372 105.668427 
L 206.708372 106.000705 
L 207.204954 106.332982 
L 206.509126 106.995722 
L 206.708372 107.495047 
L 206.607216 107.495047 
L 206.607216 108.655295 
L 206.411035 109.152804 
L 206.411035 108.987573 
L 206.607216 108.323018 
L 206.509126 108.822342 
L 206.806462 108.987573 
L 207.005708 109.319851 
L 206.309879 110.149637 
L 206.309879 109.982591 
L 206.607216 110.314868 
L 206.509126 110.149637 
L 206.607216 109.982591 
L 206.509126 109.650313 
L 206.309879 109.81736 
L 206.309879 110.314868 
L 206.509126 111.309886 
L 206.309879 111.144655 
L 206.309879 110.480099 
L 206.509126 110.149637 
L 206.607216 110.314868 
L 206.309879 111.309886 
L 206.309879 111.309886 
L 206.509126 110.812377 
L 206.509126 110.647146 
L 206.708372 110.647146 
L 206.806462 110.979424 
L 206.708372 111.309886 
L 206.411035 111.476933 
L 206.411035 111.476933 
L 206.309879 111.144655 
L 206.211789 111.144655 
L 206.113699 111.642164 
L 206.607216 112.637181 
L 206.708372 112.47195 
L 206.708372 111.807395 
L 206.806462 112.306719 
L 206.904552 113.136506 
L 206.708372 113.136506 
L 206.607216 112.969459 
L 206.904552 113.466968 
L 207.103798 113.301737 
L 206.904552 112.969459 
L 206.607216 112.969459 
L 206.411035 113.466968 
L 206.509126 113.136506 
L 206.411035 112.804228 
L 206.607216 113.799246 
L 206.509126 114.131523 
L 206.607216 114.463801 
L 206.509126 114.629032 
L 206.708372 114.296754 
L 207.005708 114.794263 
L 207.204954 115.62405 
L 206.411035 115.62405 
L 206.309879 115.458819 
L 206.411035 115.126541 
L 206.309879 115.458819 
L 206.509126 115.62405 
L 206.904552 115.62405 
L 207.204954 115.458819 
L 207.103798 115.62405 
L 206.411035 116.288605 
L 206.509126 116.453836 
L 206.708372 116.288605 
L 206.708372 116.121558 
L 206.607216 116.951345 
L 206.411035 116.620883 
L 205.914453 116.121558 
L 205.519026 116.288605 
L 205.22169 117.283623 
L 205.22169 118.445687 
L 205.41787 119.605936 
L 205.715207 120.602769 
L 205.41787 122.925082 
L 205.022444 125.91195 
L 204.823198 127.903801 
L 204.921288 148.312556 
L 205.31978 151.464655 
L 205.519026 154.451523 
L 205.617116 157.603623 
L 205.816362 160.423444 
L 207.401135 170.379067 
L 207.799627 173.365936 
L 208.293144 175.855295 
L 209.681735 180.004228 
L 211.070327 185.976149 
L 211.864246 188.465509 
L 212.658165 190.290313 
L 213.151682 192.116933 
L 214.144846 197.259067 
L 214.739519 199.913658 
L 215.236102 204.560099 
L 215.830774 213.353658 
L 216.03002 216.340526 
L 215.830774 218.000099 
L 215.631528 223.309281 
L 216.03002 228.620278 
L 215.533438 235.421985 
L 215.830774 239.403871 
L 215.533438 242.225509 
L 215.631528 243.220526 
L 216.128111 243.885082 
L 215.732684 244.880099 
L 215.533438 245.544655 
L 215.830774 246.042164 
L 216.03002 246.704904 
L 215.928865 247.866968 
L 215.435348 248.364477 
L 215.732684 249.194263 
L 216.03002 249.526541 
L 215.830774 249.526541 
L 215.732684 249.858819 
L 216.03002 250.853836 
L 216.327357 251.848854 
L 216.523537 252.181132 
L 216.624693 251.683623 
L 216.425447 252.843871 
L 216.425447 253.176149 
L 216.425447 253.176149 
L 216.128111 254.005936 
L 216.425447 254.670491 
L 216.92203 254.171167 
L 217.02012 254.005936 
L 216.92203 254.005936 
L 216.327357 254.338213 
L 216.327357 254.670491 
L 216.624693 254.835722 
L 217.02012 254.835722 
L 216.92203 254.835722 
L 216.624693 255.168 
L 216.523537 255.168 
L 216.722784 254.835722 
L 216.92203 254.835722 
L 217.317456 255.168 
L 217.814039 255.168 
L 217.715948 255.500278 
L 217.317456 255.83074 
L 217.418612 255.997787 
L 217.516702 255.83074 
L 217.516702 256.660526 
L 217.715948 257.158035 
L 217.715948 257.158035 
L 217.317456 257.987822 
L 217.715948 257.987822 
L 218.013285 257.822591 
L 217.814039 257.65736 
L 217.614793 257.65736 
L 217.418612 258.154868 
L 217.219366 258.320099 
L 217.317456 258.48533 
L 217.516702 258.48533 
L 217.814039 257.65736 
L 217.912129 257.987822 
L 218.209465 258.320099 
L 218.111375 258.320099 
L 217.912129 258.154868 
L 217.814039 258.320099 
L 217.814039 258.817608 
L 218.013285 259.149886 
L 218.310621 259.149886 
L 218.310621 258.817608 
L 218.013285 258.320099 
L 217.715948 258.154868 
L 217.02012 258.48533 
L 214.540273 258.48533 
L 212.955501 257.987822 
L 210.972237 257.822591 
L 206.211789 258.154868 
L 203.535762 257.987822 
L 200.559333 257.490313 
L 197.288632 256.827573 
L 193.61944 256.328249 
L 189.751002 256.163018 
L 173.290214 254.835722 
L 168.827103 254.835722 
L 164.265902 255.500278 
L 159.903947 255.83074 
L 155.640082 255.665509 
L 151.176971 255.665509 
L 142.55115 256.328249 
L 138.287285 256.495295 
L 133.922264 256.328249 
L 129.462219 255.997787 
L 125.198354 255.83074 
L 121.032579 255.83074 
L 117.265296 256.328249 
L 109.825756 258.320099 
L 102.787773 259.482164 
L 99.415917 260.477181 
L 95.942906 261.804477 
L 90.391605 263.629281 
L 85.333821 266.11864 
L 79.086692 269.27074 
L 77.6981 270.432804 
L 76.410664 271.760099 
L 75.218254 272.755117 
L 74.028908 273.252626 
L 73.930818 273.584904 
L 74.028908 277.733836 
L 74.920917 279.393409 
L 75.319409 280.553658 
L 75.51559 280.720705 
L 75.022073 281.383444 
L 74.724736 281.550491 
L 74.623581 281.218213 
L 74.623581 283.540526 
L 74.326244 284.038035 
L 74.822827 284.038035 
L 74.920917 284.205082 
L 74.623581 284.702591 
L 74.52549 285.532377 
L 74.52549 285.532377 
L 74.623581 285.532377 
L 75.120163 285.36533 
L 75.218254 285.36533 
L 74.920917 286.362164 
L 75.022073 287.19195 
L 74.920917 287.024904 
L 75.022073 287.522412 
L 75.120163 287.689459 
L 74.920917 287.689459 
L 74.920917 287.522412 
L 75.218254 287.522412 
L 75.319409 287.357181 
L 75.218254 287.689459 
L 75.120163 288.352199 
L 75.319409 289.349032 
L 75.218254 289.679494 
L 75.4175 289.846541 
L 75.218254 289.679494 
L 74.920917 289.846541 
L 74.920917 290.011772 
L 75.120163 290.177003 
L 75.4175 290.177003 
L 75.4175 290.177003 
L 75.319409 290.841558 
L 75.120163 291.00679 
L 74.920917 290.841558 
L 74.724736 290.841558 
L 74.724736 290.841558 
L 75.022073 291.173836 
L 75.218254 291.671345 
L 75.218254 292.003623 
L 75.120163 291.173836 
L 75.319409 291.339067 
L 75.4175 291.506114 
L 75.319409 291.506114 
L 74.822827 292.003623 
L 74.920917 291.836576 
L 75.120163 291.339067 
L 75.120163 290.841558 
L 74.920917 290.676327 
L 74.822827 291.339067 
L 75.022073 291.671345 
L 74.920917 292.003623 
L 74.920917 291.836576 
L 74.822827 291.506114 
L 74.920917 291.173836 
L 74.920917 290.676327 
L 74.724736 290.34405 
L 74.623581 290.509281 
L 74.920917 290.177003 
L 75.022073 290.509281 
L 75.022073 290.509281 
L 74.822827 290.509281 
L 74.920917 289.846541 
L 74.920917 289.846541 
L 75.022073 289.846541 
L 75.120163 289.514263 
L 75.218254 289.679494 
L 75.319409 289.679494 
L 74.920917 288.849708 
L 74.920917 288.684477 
L 74.822827 289.349032 
L 74.724736 289.181985 
L 74.724736 288.352199 
L 74.822827 288.352199 
L 74.920917 288.519246 
L 75.120163 288.352199 
L 75.319409 288.019921 
L 75.218254 288.186968 
L 75.120163 287.85469 
L 74.920917 287.689459 
L 75.218254 287.85469 
L 75.4175 287.689459 
L 75.4175 287.689459 
L 75.4175 287.522412 
L 74.920917 287.522412 
L 75.022073 287.522412 
L 75.120163 287.19195 
L 74.920917 286.527395 
L 74.822827 286.859673 
L 74.920917 287.024904 
L 75.319409 286.692626 
L 75.616746 286.195117 
L 75.616746 286.362164 
L 75.51559 286.859673 
L 75.914082 287.689459 
L 75.714836 287.85469 
L 75.4175 287.522412 
L 75.218254 286.859673 
L 75.319409 286.859673 
L 75.319409 286.859673 
L 75.319409 286.692626 
L 75.4175 287.522412 
L 75.4175 287.024904 
L 75.616746 287.024904 
L 75.51559 286.692626 
L 75.616746 286.692626 
L 75.815992 286.692626 
L 76.113328 287.024904 
L 76.113328 287.19195 
L 76.012172 287.19195 
L 75.914082 286.859673 
L 76.012172 286.859673 
L 76.012172 286.859673 
L 76.211418 287.19195 
L 76.508755 287.024904 
L 76.606845 286.527395 
L 76.410664 286.195117 
L 76.211418 286.195117 
L 76.113328 286.362164 
L 76.211418 286.029886 
L 76.309509 286.195117 
L 76.309509 286.362164 
L 76.410664 286.195117 
L 76.508755 285.864655 
L 76.508755 285.864655 
L 76.708001 286.029886 
L 76.806091 285.697608 
L 76.708001 285.532377 
L 76.904181 286.029886 
L 76.904181 286.195117 
L 76.708001 286.195117 
L 76.904181 285.697608 
L 76.806091 285.36533 
L 77.005337 286.029886 
L 76.806091 286.362164 
L 76.806091 285.864655 
L 76.708001 286.029886 
L 76.606845 286.029886 
L 76.708001 285.697608 
L 76.806091 285.36533 
L 76.708001 285.200099 
L 76.410664 285.200099 
L 76.806091 285.200099 
L 76.708001 285.034868 
L 76.806091 285.200099 
L 76.904181 285.864655 
L 77.400764 285.532377 
L 77.302674 285.36533 
L 77.005337 285.200099 
L 76.904181 285.36533 
L 76.904181 285.200099 
L 77.103427 284.867822 
L 77.400764 284.038035 
L 77.60001 284.370313 
L 77.60001 284.205082 
L 77.6981 284.205082 
L 77.498854 284.038035 
L 77.6981 284.038035 
L 77.995437 284.205082 
L 77.897346 283.872804 
L 77.897346 283.375295 
L 78.194683 283.043018 
L 78.393929 283.043018 
L 78.492019 283.208249 
L 79.779455 282.71074 
L 82.755884 280.885936 
L 87.019749 278.563623 
L 89.30035 277.56679 
L 91.976377 276.074263 
L 95.152052 274.581737 
L 98.621999 273.419673 
L 109.926912 270.267573 
L 114.288867 269.105509 
L 123.015843 266.450918 
L 127.478954 265.621132 
L 132.337492 265.454085 
L 136.996784 265.786363 
L 141.459895 265.288854 
L 146.119187 264.459067 
L 150.977724 263.961558 
L 155.738172 264.12679 
L 164.563238 265.454085 
L 168.928259 265.786363 
L 177.554079 266.11864 
L 186.08181 266.783196 
L 190.048338 267.280705 
L 194.014867 267.943444 
L 197.981395 268.440953 
L 213.648264 269.768249 
L 220.094639 270.432804 
L 223.36534 270.598035 
L 226.341769 270.598035 
L 228.919706 270.930313 
L 234.372916 272.922164 
L 236.852763 273.252626 
L 237.545526 273.917181 
L 237.944018 275.244477 
L 237.052009 276.90405 
L 237.052009 276.90405 
L 237.052009 277.069281 
L 237.646682 278.728854 
L 237.842863 278.894085 
L 237.842863 279.226363 
L 237.842863 279.226363 
L 237.545526 279.55864 
L 237.744772 279.55864 
L 237.944018 279.723871 
L 237.842863 280.885936 
L 237.944018 280.885936 
L 238.143264 280.885936 
L 238.241355 281.051167 
L 237.944018 281.051167 
L 237.447436 281.550491 
L 237.447436 281.383444 
L 237.646682 280.885936 
L 238.042109 280.553658 
L 238.143264 280.720705 
L 238.143264 282.048 
L 238.143264 281.880953 
L 238.636781 281.715722 
L 238.440601 281.880953 
L 238.143264 281.715722 
L 238.143264 281.715722 
L 238.737937 281.715722 
L 238.836027 281.383444 
L 238.440601 282.213231 
L 238.440601 282.213231 
L 238.241355 282.213231 
L 238.143264 282.545509 
L 238.241355 282.545509 
L 238.538691 282.378462 
L 238.934118 281.218213 
L 239.231454 282.213231 
L 239.4307 281.880953 
L 239.33261 281.715722 
L 239.133364 281.880953 
L 239.035273 282.213231 
L 239.035273 282.213231 
L 239.528791 282.048 
L 239.4307 282.545509 
L 239.231454 282.048 
L 239.826127 282.048 
L 239.826127 282.048 
L 239.4307 281.383444 
L 239.528791 281.218213 
L 240.025373 281.051167 
L 240.126529 281.051167 
L 240.025373 281.051167 
L 239.728037 281.218213 
L 239.728037 281.383444 
L 240.025373 281.550491 
L 240.322709 281.550491 
L 240.126529 281.383444 
L 239.927283 280.885936 
L 239.927283 280.553658 
L 240.025373 280.720705 
L 240.126529 281.051167 
L 240.025373 281.051167 
L 239.826127 280.885936 
L 239.629946 281.051167 
L 239.927283 281.715722 
L 239.927283 280.720705 
L 240.322709 281.383444 
L 240.322709 281.218213 
L 240.126529 281.383444 
L 240.126529 281.715722 
L 240.322709 281.550491 
L 240.521955 281.051167 
L 240.322709 280.553658 
L 240.521955 280.553658 
L 240.819292 280.388427 
L 240.819292 279.890918 
L 240.917382 280.388427 
L 241.018538 280.388427 
L 241.116628 280.223196 
L 241.315874 280.388427 
L 241.214718 280.553658 
L 241.214718 280.388427 
L 241.214718 280.056149 
L 240.917382 280.056149 
L 240.721201 280.223196 
L 240.917382 280.388427 
L 241.214718 281.051167 
L 241.116628 281.051167 
L 241.116628 280.223196 
L 241.018538 280.553658 
L 241.613211 281.218213 
L 241.613211 279.723871 
L 241.512055 280.223196 
L 241.413965 280.223196 
L 241.613211 280.553658 
L 241.512055 280.223196 
L 241.711301 280.056149 
L 242.109793 279.226363 
L 242.008637 279.393409 
L 241.910547 279.393409 
L 242.109793 278.563623 
L 241.711301 277.733836 
L 241.613211 276.571772 
L 241.315874 274.912199 
L 240.819292 273.087395 
L 239.035273 268.110491 
L 236.457336 260.809459 
L 232.588898 253.176149 
L 230.80488 248.696754 
L 228.72046 244.050313 
L 226.341769 239.403871 
L 221.283985 231.440099 
L 218.905294 227.125936 
L 214.83761 218.497608 
L 212.854345 214.515722 
L 210.6749 210.533836 
L 204.427771 197.758392 
L 202.14717 192.944904 
L 200.163906 187.968 
L 198.376822 183.156327 
L 196.592804 178.842164 
L 195.008032 174.693231 
L 189.849092 162.580526 
L 185.686383 150.800099 
L 184.297791 147.150491 
L 181.520608 141.011523 
L 180.331263 137.692377 
L 179.240007 134.208 
L 177.851416 130.723623 
L 176.364734 127.571523 
L 174.182224 121.597787 
L 173.192124 118.445687 
L 172.496296 115.291772 
L 170.911523 106.332982 
L 170.810368 103.678392 
L 171.40504 101.686541 
L 172.597451 101.189032 
L 172.793632 101.354263 
L 173.192124 102.18405 
L 173.192124 102.18405 
L 173.290214 102.018819 
L 173.388305 102.18405 
L 173.587551 101.853588 
L 173.48946 102.351096 
L 173.685641 101.686541 
L 173.685641 101.686541 
L 173.786797 101.686541 
L 173.786797 101.52131 
L 173.587551 101.354263 
L 173.587551 101.189032 
L 173.982978 101.189032 
L 174.283379 100.856754 
L 174.182224 100.194015 
L 173.982978 99.861737 
L 173.982978 100.026968 
L 173.982978 100.359246 
L 173.884887 100.194015 
L 173.786797 100.026968 
L 173.685641 100.359246 
L 173.786797 99.861737 
L 173.786797 99.696506 
L 173.685641 99.861737 
L 173.587551 99.861737 
L 173.982978 99.364228 
L 174.182224 99.861737 
L 174.182224 100.026968 
L 174.38147 99.861737 
L 174.38147 99.861737 
L 174.283379 100.194015 
L 174.084133 100.194015 
L 174.182224 100.194015 
L 173.884887 100.524477 
L 173.982978 101.023801 
L 174.084133 101.023801 
L 173.982978 101.023801 
L 173.786797 100.856754 
L 173.786797 100.691523 
L 174.084133 100.691523 
L 174.580716 100.856754 
L 174.084133 100.359246 
L 174.084133 100.524477 
L 174.084133 101.686541 
L 174.182224 101.686541 
L 174.678806 101.354263 
L 174.47956 101.52131 
L 174.182224 101.354263 
L 174.283379 101.686541 
L 174.182224 101.686541 
L 173.982978 101.52131 
L 173.48946 101.686541 
L 174.084133 102.018819 
L 174.084133 102.018819 
L 174.084133 101.853588 
L 174.182224 101.853588 
L 174.38147 102.018819 
L 174.38147 102.18405 
L 173.982978 102.351096 
L 173.587551 102.681558 
L 173.884887 102.516327 
L 174.084133 102.516327 
L 174.084133 102.848605 
L 174.283379 102.848605 
L 174.283379 102.681558 
L 174.084133 102.848605 
L 173.884887 103.180883 
L 174.084133 103.511345 
L 174.182224 103.346114 
L 173.982978 103.678392 
L 173.982978 103.678392 
L 173.786797 103.678392 
L 173.48946 103.843623 
L 173.192124 104.175901 
L 173.192124 103.843623 
L 173.48946 103.678392 
L 173.982978 104.175901 
L 174.182224 104.508178 
L 174.084133 104.341132 
L 174.283379 104.008854 
L 174.38147 104.175901 
L 174.283379 104.341132 
L 173.982978 104.341132 
L 173.982978 104.508178 
L 174.182224 104.508178 
L 174.084133 104.673409 
L 173.884887 104.673409 
L 173.685641 104.508178 
L 173.786797 104.673409 
L 174.084133 105.005687 
L 174.182224 104.83864 
L 174.182224 105.005687 
L 174.084133 105.503196 
L 173.982978 105.503196 
L 173.982978 105.337965 
L 173.982978 105.337965 
L 174.182224 105.337965 
L 173.982978 105.668427 
L 173.48946 105.835474 
L 173.685641 105.835474 
L 173.786797 106.000705 
L 173.884887 106.830491 
L 173.982978 106.498213 
L 174.084133 106.332982 
L 173.982978 106.332982 
L 173.388305 106.995722 
L 173.587551 107.162769 
L 174.182224 107.162769 
L 174.283379 108.157787 
L 174.38147 107.825509 
L 174.182224 107.495047 
L 173.884887 107.495047 
L 173.786797 107.825509 
L 173.884887 108.323018 
L 174.084133 108.655295 
L 174.283379 108.323018 
L 174.580716 108.323018 
L 174.38147 108.987573 
L 173.982978 108.655295 
L 173.982978 108.655295 
L 173.982978 109.982591 
L 174.084133 109.319851 
L 174.182224 109.650313 
L 174.084133 109.485082 
L 174.182224 109.152804 
L 173.884887 109.81736 
L 174.084133 109.650313 
L 173.884887 109.650313 
L 173.685641 110.149637 
L 173.685641 110.480099 
L 173.982978 110.480099 
L 174.182224 110.314868 
L 174.084133 110.149637 
L 174.182224 110.314868 
L 174.580716 110.647146 
L 174.580716 110.480099 
L 174.878052 110.149637 
L 175.273479 110.149637 
L 175.868152 110.314868 
L 177.354833 109.982591 
L 178.446089 109.982591 
L 181.916035 111.144655 
L 182.709954 111.807395 
L 185.487137 114.463801 
L 187.074974 115.791096 
L 189.551756 118.27864 
L 193.518284 123.090313 
L 195.106122 124.916933 
L 196.89014 126.57469 
L 200.856669 129.728605 
L 205.120534 132.548427 
L 206.904552 134.208 
L 208.59048 136.199851 
L 210.475654 138.687395 
L 214.83761 143.666114 
L 217.02012 146.485936 
L 219.003384 149.639851 
L 222.672576 156.276327 
L 226.541015 163.245082 
L 230.308297 169.551096 
L 231.794979 172.868427 
L 233.085481 176.352804 
L 234.372916 179.504904 
L 235.859598 182.82405 
L 237.24819 186.475474 
L 238.538691 190.290313 
L 240.917382 197.923623 
L 243.596475 205.555117 
L 244.68773 208.874263 
L 248.056521 220.986968 
L 249.347022 227.125936 
L 251.03295 238.906363 
L 251.13104 241.063444 
L 250.536367 247.202412 
L 250.340187 249.029032 
L 250.536367 252.843871 
L 250.536367 254.835722 
L 250.735613 256.495295 
L 251.13104 258.154868 
L 251.232196 259.812626 
L 250.239031 266.616149 
L 249.644358 269.437787 
L 249.644358 273.917181 
L 248.850439 278.563623 
L 248.752349 282.048 
L 248.455013 283.707573 
L 247.95843 285.532377 
L 248.056521 286.859673 
L 248.255767 287.357181 
L 248.056521 288.849708 
L 248.157676 289.846541 
L 248.157676 290.011772 
L 248.157676 289.846541 
L 247.95843 289.679494 
L 248.056521 291.671345 
L 248.157676 292.168854 
L 248.056521 292.334085 
L 248.056521 292.334085 
L 248.056521 292.833409 
L 247.86034 293.163871 
L 247.563004 293.163871 
L 247.461848 292.99864 
L 247.563004 292.666363 
L 247.759184 292.666363 
L 247.86034 293.163871 
L 248.157676 293.828427 
L 248.157676 293.828427 
L 247.95843 293.828427 
L 247.759184 293.66138 
L 247.86034 293.993658 
L 248.553103 294.491167 
L 248.553103 294.325936 
L 248.255767 294.325936 
L 247.563004 294.990491 
L 247.661094 294.990491 
L 248.157676 294.658213 
L 248.255767 294.658213 
L 247.95843 294.990491 
L 248.056521 294.990491 
L 248.455013 294.990491 
L 248.553103 295.155722 
L 248.255767 295.488 
L 248.255767 295.488 
L 248.356922 295.155722 
L 248.455013 294.990491 
L 248.157676 294.325936 
L 247.95843 293.993658 
L 248.056521 293.828427 
L 248.255767 293.993658 
L 248.455013 294.325936 
L 248.356922 294.491167 
L 248.255767 294.325936 
L 248.157676 294.658213 
L 248.255767 294.823444 
L 248.157676 294.823444 
L 248.056521 294.823444 
L 248.553103 294.823444 
L 248.654259 294.491167 
L 248.553103 293.66138 
L 248.455013 293.66138 
L 248.157676 293.828427 
L 248.157676 293.828427 
L 248.553103 293.330918 
L 248.752349 293.163871 
L 248.654259 293.496149 
L 248.752349 294.160705 
L 249.147776 294.160705 
L 248.553103 294.160705 
L 248.356922 293.330918 
L 248.455013 293.496149 
L 248.951595 293.828427 
L 248.654259 293.496149 
L 248.356922 293.330918 
L 248.356922 292.99864 
L 248.056521 292.334085 
L 248.255767 292.666363 
L 248.157676 293.66138 
L 248.056521 293.496149 
L 248.157676 291.339067 
L 248.752349 291.00679 
L 248.752349 291.00679 
L 248.255767 290.509281 
L 248.356922 290.011772 
L 248.553103 289.846541 
L 248.654259 290.011772 
L 248.654259 289.846541 
L 248.850439 289.679494 
L 248.850439 289.514263 
L 248.553103 289.349032 
L 248.157676 289.679494 
L 248.850439 288.352199 
L 248.850439 288.352199 
L 248.553103 287.689459 
L 248.752349 288.186968 
L 248.951595 287.357181 
L 248.951595 287.024904 
L 248.356922 287.024904 
L 248.157676 287.19195 
L 248.157676 287.357181 
L 248.455013 287.357181 
L 248.553103 286.692626 
L 248.255767 286.029886 
L 248.553103 286.362164 
L 248.553103 286.029886 
L 248.356922 285.697608 
L 247.95843 285.532377 
L 248.455013 284.867822 
L 248.752349 284.535544 
L 248.654259 284.535544 
L 248.553103 285.034868 
L 248.356922 285.36533 
L 248.157676 285.36533 
L 248.056521 285.034868 
L 248.157676 285.034868 
L 248.356922 285.034868 
L 248.553103 284.867822 
L 248.455013 284.535544 
L 248.356922 284.702591 
L 248.553103 285.034868 
L 248.850439 285.034868 
L 248.850439 284.867822 
L 248.553103 284.370313 
L 248.654259 284.205082 
L 248.654259 283.707573 
L 249.049685 283.707573 
L 249.147776 283.872804 
L 249.049685 283.872804 
L 248.850439 284.038035 
L 248.752349 283.872804 
L 248.951595 283.540526 
L 249.347022 283.208249 
L 249.546268 283.208249 
L 249.445112 283.872804 
L 249.049685 284.370313 
L 248.951595 284.038035 
L 249.147776 284.370313 
L 249.248931 284.535544 
L 249.248931 284.370313 
L 249.049685 283.872804 
L 249.049685 283.872804 
L 249.445112 283.872804 
L 249.843604 283.540526 
L 249.843604 283.872804 
L 249.742449 283.043018 
L 249.644358 283.375295 
L 249.644358 284.038035 
L 249.546268 283.375295 
L 249.347022 282.877787 
L 249.147776 282.71074 
L 249.445112 282.378462 
L 249.742449 282.71074 
L 249.941695 282.71074 
L 250.039785 282.877787 
L 249.644358 283.208249 
L 249.445112 283.208249 
L 249.445112 283.375295 
L 249.546268 283.375295 
L 249.843604 283.043018 
L 249.941695 283.208249 
L 249.941695 283.208249 
L 249.941695 282.545509 
L 250.340187 282.213231 
L 250.039785 282.378462 
L 249.941695 282.877787 
L 250.039785 282.877787 
L 250.140941 282.213231 
L 250.239031 282.048 
L 250.140941 282.71074 
L 250.039785 283.043018 
L 250.140941 282.71074 
L 250.340187 281.550491 
L 250.438277 281.715722 
L 250.637523 281.550491 
L 250.536367 282.048 
L 250.637523 281.550491 
L 250.239031 281.550491 
L 250.140941 281.383444 
L 250.340187 281.218213 
L 250.536367 281.218213 
L 250.438277 281.383444 
L 250.140941 281.383444 
L 250.140941 281.218213 
L 250.438277 280.720705 
L 250.637523 280.885936 
L 250.833704 280.885936 
L 251.03295 281.383444 
L 250.735613 281.715722 
L 250.536367 280.720705 
L 250.934859 280.223196 
L 250.833704 280.885936 
L 250.735613 280.885936 
L 250.735613 280.885936 
L 250.536367 281.051167 
L 250.340187 281.051167 
L 250.340187 280.885936 
L 250.735613 281.218213 
L 250.833704 280.885936 
L 250.833704 280.885936 
" style="fill:none;stroke:#1f77b4;stroke-linecap:square;stroke-width:1.5;"/>
   </g>
   <g id="matplotlib.axis_1">
    <g id="xtick_1">
     <g id="line2d_2">
      <defs>
       <path d="M 0 0 
L 0 3.5 
" id="md7f28bd909" style="stroke:#000000;stroke-width:0.8;"/>
      </defs>
      <g>
       <use style="stroke:#000000;stroke-width:0.8;" x="69.121325" xlink:href="#md7f28bd909" y="307.584"/>
      </g>
     </g>
     <g id="text_1">
      <!-- −400 -->
      <defs>
       <path d="M 10.59375 35.5 
L 73.1875 35.5 
L 73.1875 27.203125 
L 10.59375 27.203125 
z
" id="DejaVuSans-8722"/>
       <path d="M 37.796875 64.3125 
L 12.890625 25.390625 
L 37.796875 25.390625 
z
M 35.203125 72.90625 
L 47.609375 72.90625 
L 47.609375 25.390625 
L 58.015625 25.390625 
L 58.015625 17.1875 
L 47.609375 17.1875 
L 47.609375 0 
L 37.796875 0 
L 37.796875 17.1875 
L 4.890625 17.1875 
L 4.890625 26.703125 
z
" id="DejaVuSans-52"/>
       <path d="M 31.78125 66.40625 
Q 24.171875 66.40625 20.328125 58.90625 
Q 16.5 51.421875 16.5 36.375 
Q 16.5 21.390625 20.328125 13.890625 
Q 24.171875 6.390625 31.78125 6.390625 
Q 39.453125 6.390625 43.28125 13.890625 
Q 47.125 21.390625 47.125 36.375 
Q 47.125 51.421875 43.28125 58.90625 
Q 39.453125 66.40625 31.78125 66.40625 
z
M 31.78125 74.21875 
Q 44.046875 74.21875 50.515625 64.515625 
Q 56.984375 54.828125 56.984375 36.375 
Q 56.984375 17.96875 50.515625 8.265625 
Q 44.046875 -1.421875 31.78125 -1.421875 
Q 19.53125 -1.421875 13.0625 8.265625 
Q 6.59375 17.96875 6.59375 36.375 
Q 6.59375 54.828125 13.0625 64.515625 
Q 19.53125 74.21875 31.78125 74.21875 
z
" id="DejaVuSans-48"/>
      </defs>
      <g transform="translate(55.387731 322.182437)scale(0.1 -0.1)">
       <use xlink:href="#DejaVuSans-8722"/>
       <use x="83.789062" xlink:href="#DejaVuSans-52"/>
       <use x="147.412109" xlink:href="#DejaVuSans-48"/>
       <use x="211.035156" xlink:href="#DejaVuSans-48"/>
      </g>
     </g>
    </g>
    <g id="xtick_2">
     <g id="line2d_3">
      <g>
       <use style="stroke:#000000;stroke-width:0.8;" x="130.427796" xlink:href="#md7f28bd909" y="307.584"/>
      </g>
     </g>
     <g id="text_2">
      <!-- −200 -->
      <defs>
       <path d="M 19.1875 8.296875 
L 53.609375 8.296875 
L 53.609375 0 
L 7.328125 0 
L 7.328125 8.296875 
Q 12.9375 14.109375 22.625 23.890625 
Q 32.328125 33.6875 34.8125 36.53125 
Q 39.546875 41.84375 41.421875 45.53125 
Q 43.3125 49.21875 43.3125 52.78125 
Q 43.3125 58.59375 39.234375 62.25 
Q 35.15625 65.921875 28.609375 65.921875 
Q 23.96875 65.921875 18.8125 64.3125 
Q 13.671875 62.703125 7.8125 59.421875 
L 7.8125 69.390625 
Q 13.765625 71.78125 18.9375 73 
Q 24.125 74.21875 28.421875 74.21875 
Q 39.75 74.21875 46.484375 68.546875 
Q 53.21875 62.890625 53.21875 53.421875 
Q 53.21875 48.921875 51.53125 44.890625 
Q 49.859375 40.875 45.40625 35.40625 
Q 44.1875 33.984375 37.640625 27.21875 
Q 31.109375 20.453125 19.1875 8.296875 
z
" id="DejaVuSans-50"/>
      </defs>
      <g transform="translate(116.694202 322.182437)scale(0.1 -0.1)">
       <use xlink:href="#DejaVuSans-8722"/>
       <use x="83.789062" xlink:href="#DejaVuSans-50"/>
       <use x="147.412109" xlink:href="#DejaVuSans-48"/>
       <use x="211.035156" xlink:href="#DejaVuSans-48"/>
      </g>
     </g>
    </g>
    <g id="xtick_3">
     <g id="line2d_4">
      <g>
       <use style="stroke:#000000;stroke-width:0.8;" x="191.734266" xlink:href="#md7f28bd909" y="307.584"/>
      </g>
     </g>
     <g id="text_3">
      <!-- 0 -->
      <g transform="translate(188.553016 322.182437)scale(0.1 -0.1)">
       <use xlink:href="#DejaVuSans-48"/>
      </g>
     </g>
    </g>
    <g id="xtick_4">
     <g id="line2d_5">
      <g>
       <use style="stroke:#000000;stroke-width:0.8;" x="253.040737" xlink:href="#md7f28bd909" y="307.584"/>
      </g>
     </g>
     <g id="text_4">
      <!-- 200 -->
      <g transform="translate(243.496987 322.182437)scale(0.1 -0.1)">
       <use xlink:href="#DejaVuSans-50"/>
       <use x="63.623047" xlink:href="#DejaVuSans-48"/>
       <use x="127.246094" xlink:href="#DejaVuSans-48"/>
      </g>
     </g>
    </g>
    <g id="xtick_5">
     <g id="line2d_6">
      <g>
       <use style="stroke:#000000;stroke-width:0.8;" x="314.347207" xlink:href="#md7f28bd909" y="307.584"/>
      </g>
     </g>
     <g id="text_5">
      <!-- 400 -->
      <g transform="translate(304.803457 322.182437)scale(0.1 -0.1)">
       <use xlink:href="#DejaVuSans-52"/>
       <use x="63.623047" xlink:href="#DejaVuSans-48"/>
       <use x="127.246094" xlink:href="#DejaVuSans-48"/>
      </g>
     </g>
    </g>
    <g id="xtick_6">
     <g id="line2d_7">
      <g>
       <use style="stroke:#000000;stroke-width:0.8;" x="375.653678" xlink:href="#md7f28bd909" y="307.584"/>
      </g>
     </g>
     <g id="text_6">
      <!-- 600 -->
      <defs>
       <path d="M 33.015625 40.375 
Q 26.375 40.375 22.484375 35.828125 
Q 18.609375 31.296875 18.609375 23.390625 
Q 18.609375 15.53125 22.484375 10.953125 
Q 26.375 6.390625 33.015625 6.390625 
Q 39.65625 6.390625 43.53125 10.953125 
Q 47.40625 15.53125 47.40625 23.390625 
Q 47.40625 31.296875 43.53125 35.828125 
Q 39.65625 40.375 33.015625 40.375 
z
M 52.59375 71.296875 
L 52.59375 62.3125 
Q 48.875 64.0625 45.09375 64.984375 
Q 41.3125 65.921875 37.59375 65.921875 
Q 27.828125 65.921875 22.671875 59.328125 
Q 17.53125 52.734375 16.796875 39.40625 
Q 19.671875 43.65625 24.015625 45.921875 
Q 28.375 48.1875 33.59375 48.1875 
Q 44.578125 48.1875 50.953125 41.515625 
Q 57.328125 34.859375 57.328125 23.390625 
Q 57.328125 12.15625 50.6875 5.359375 
Q 44.046875 -1.421875 33.015625 -1.421875 
Q 20.359375 -1.421875 13.671875 8.265625 
Q 6.984375 17.96875 6.984375 36.375 
Q 6.984375 53.65625 15.1875 63.9375 
Q 23.390625 74.21875 37.203125 74.21875 
Q 40.921875 74.21875 44.703125 73.484375 
Q 48.484375 72.75 52.59375 71.296875 
z
" id="DejaVuSans-54"/>
      </defs>
      <g transform="translate(366.109928 322.182437)scale(0.1 -0.1)">
       <use xlink:href="#DejaVuSans-54"/>
       <use x="63.623047" xlink:href="#DejaVuSans-48"/>
       <use x="127.246094" xlink:href="#DejaVuSans-48"/>
      </g>
     </g>
    </g>
   </g>
   <g id="matplotlib.axis_2">
    <g id="ytick_1">
     <g id="line2d_8">
      <defs>
       <path d="M 0 0 
L -3.5 0 
" id="m20173fa4df" style="stroke:#000000;stroke-width:0.8;"/>
      </defs>
      <g>
       <use style="stroke:#000000;stroke-width:0.8;" x="57.6" xlink:href="#m20173fa4df" y="304.851696"/>
      </g>
     </g>
     <g id="text_7">
      <!-- −800 -->
      <defs>
       <path d="M 31.78125 34.625 
Q 24.75 34.625 20.71875 30.859375 
Q 16.703125 27.09375 16.703125 20.515625 
Q 16.703125 13.921875 20.71875 10.15625 
Q 24.75 6.390625 31.78125 6.390625 
Q 38.8125 6.390625 42.859375 10.171875 
Q 46.921875 13.96875 46.921875 20.515625 
Q 46.921875 27.09375 42.890625 30.859375 
Q 38.875 34.625 31.78125 34.625 
z
M 21.921875 38.8125 
Q 15.578125 40.375 12.03125 44.71875 
Q 8.5 49.078125 8.5 55.328125 
Q 8.5 64.0625 14.71875 69.140625 
Q 20.953125 74.21875 31.78125 74.21875 
Q 42.671875 74.21875 48.875 69.140625 
Q 55.078125 64.0625 55.078125 55.328125 
Q 55.078125 49.078125 51.53125 44.71875 
Q 48 40.375 41.703125 38.8125 
Q 48.828125 37.15625 52.796875 32.3125 
Q 56.78125 27.484375 56.78125 20.515625 
Q 56.78125 9.90625 50.3125 4.234375 
Q 43.84375 -1.421875 31.78125 -1.421875 
Q 19.734375 -1.421875 13.25 4.234375 
Q 6.78125 9.90625 6.78125 20.515625 
Q 6.78125 27.484375 10.78125 32.3125 
Q 14.796875 37.15625 21.921875 38.8125 
z
M 18.3125 54.390625 
Q 18.3125 48.734375 21.84375 45.5625 
Q 25.390625 42.390625 31.78125 42.390625 
Q 38.140625 42.390625 41.71875 45.5625 
Q 45.3125 48.734375 45.3125 54.390625 
Q 45.3125 60.0625 41.71875 63.234375 
Q 38.140625 66.40625 31.78125 66.40625 
Q 25.390625 66.40625 21.84375 63.234375 
Q 18.3125 60.0625 18.3125 54.390625 
z
" id="DejaVuSans-56"/>
      </defs>
      <g transform="translate(23.132812 308.650915)scale(0.1 -0.1)">
       <use xlink:href="#DejaVuSans-8722"/>
       <use x="83.789062" xlink:href="#DejaVuSans-56"/>
       <use x="147.412109" xlink:href="#DejaVuSans-48"/>
       <use x="211.035156" xlink:href="#DejaVuSans-48"/>
      </g>
     </g>
    </g>
    <g id="ytick_2">
     <g id="line2d_9">
      <g>
       <use style="stroke:#000000;stroke-width:0.8;" x="57.6" xlink:href="#m20173fa4df" y="268.537187"/>
      </g>
     </g>
     <g id="text_8">
      <!-- −600 -->
      <g transform="translate(23.132812 272.336405)scale(0.1 -0.1)">
       <use xlink:href="#DejaVuSans-8722"/>
       <use x="83.789062" xlink:href="#DejaVuSans-54"/>
       <use x="147.412109" xlink:href="#DejaVuSans-48"/>
       <use x="211.035156" xlink:href="#DejaVuSans-48"/>
      </g>
     </g>
    </g>
    <g id="ytick_3">
     <g id="line2d_10">
      <g>
       <use style="stroke:#000000;stroke-width:0.8;" x="57.6" xlink:href="#m20173fa4df" y="232.222677"/>
      </g>
     </g>
     <g id="text_9">
      <!-- −400 -->
      <g transform="translate(23.132812 236.021896)scale(0.1 -0.1)">
       <use xlink:href="#DejaVuSans-8722"/>
       <use x="83.789062" xlink:href="#DejaVuSans-52"/>
       <use x="147.412109" xlink:href="#DejaVuSans-48"/>
       <use x="211.035156" xlink:href="#DejaVuSans-48"/>
      </g>
     </g>
    </g>
    <g id="ytick_4">
     <g id="line2d_11">
      <g>
       <use style="stroke:#000000;stroke-width:0.8;" x="57.6" xlink:href="#m20173fa4df" y="195.908168"/>
      </g>
     </g>
     <g id="text_10">
      <!-- −200 -->
      <g transform="translate(23.132812 199.707386)scale(0.1 -0.1)">
       <use xlink:href="#DejaVuSans-8722"/>
       <use x="83.789062" xlink:href="#DejaVuSans-50"/>
       <use x="147.412109" xlink:href="#DejaVuSans-48"/>
       <use x="211.035156" xlink:href="#DejaVuSans-48"/>
      </g>
     </g>
    </g>
    <g id="ytick_5">
     <g id="line2d_12">
      <g>
       <use style="stroke:#000000;stroke-width:0.8;" x="57.6" xlink:href="#m20173fa4df" y="159.593658"/>
      </g>
     </g>
     <g id="text_11">
      <!-- 0 -->
      <g transform="translate(44.2375 163.392877)scale(0.1 -0.1)">
       <use xlink:href="#DejaVuSans-48"/>
      </g>
     </g>
    </g>
    <g id="ytick_6">
     <g id="line2d_13">
      <g>
       <use style="stroke:#000000;stroke-width:0.8;" x="57.6" xlink:href="#m20173fa4df" y="123.279148"/>
      </g>
     </g>
     <g id="text_12">
      <!-- 200 -->
      <g transform="translate(31.5125 127.078367)scale(0.1 -0.1)">
       <use xlink:href="#DejaVuSans-50"/>
       <use x="63.623047" xlink:href="#DejaVuSans-48"/>
       <use x="127.246094" xlink:href="#DejaVuSans-48"/>
      </g>
     </g>
    </g>
    <g id="ytick_7">
     <g id="line2d_14">
      <g>
       <use style="stroke:#000000;stroke-width:0.8;" x="57.6" xlink:href="#m20173fa4df" y="86.964639"/>
      </g>
     </g>
     <g id="text_13">
      <!-- 400 -->
      <g transform="translate(31.5125 90.763857)scale(0.1 -0.1)">
       <use xlink:href="#DejaVuSans-52"/>
       <use x="63.623047" xlink:href="#DejaVuSans-48"/>
       <use x="127.246094" xlink:href="#DejaVuSans-48"/>
      </g>
     </g>
    </g>
    <g id="ytick_8">
     <g id="line2d_15">
      <g>
       <use style="stroke:#000000;stroke-width:0.8;" x="57.6" xlink:href="#m20173fa4df" y="50.650129"/>
      </g>
     </g>
     <g id="text_14">
      <!-- 600 -->
      <g transform="translate(31.5125 54.449348)scale(0.1 -0.1)">
       <use xlink:href="#DejaVuSans-54"/>
       <use x="63.623047" xlink:href="#DejaVuSans-48"/>
       <use x="127.246094" xlink:href="#DejaVuSans-48"/>
      </g>
     </g>
    </g>
   </g>
   <g id="line2d_16">
    <path clip-path="url(#paac5fac115)" d="M 395.323482 58.83731 
L 207.907117 106.506068 
L 216.517658 246.971979 
L 77.172565 285.297516 
L 236.881353 279.067207 
L 174.532156 105.924815 
L 249.021701 285.623957 
" style="fill:none;stroke:#ff0000;stroke-linecap:square;stroke-width:0.5;"/>
   </g>
   <g id="patch_3">
    <path d="M 57.6 307.584 
L 57.6 41.472 
" style="fill:none;stroke:#000000;stroke-linecap:square;stroke-linejoin:miter;stroke-width:0.8;"/>
   </g>
   <g id="patch_4">
    <path d="M 414.72 307.584 
L 414.72 41.472 
" style="fill:none;stroke:#000000;stroke-linecap:square;stroke-linejoin:miter;stroke-width:0.8;"/>
   </g>
   <g id="patch_5">
    <path d="M 57.6 307.584 
L 414.72 307.584 
" style="fill:none;stroke:#000000;stroke-linecap:square;stroke-linejoin:miter;stroke-width:0.8;"/>
   </g>
   <g id="patch_6">
    <path d="M 57.6 41.472 
L 414.72 41.472 
" style="fill:none;stroke:#000000;stroke-linecap:square;stroke-linejoin:miter;stroke-width:0.8;"/>
   </g>
   <g id="PathCollection_1">
    <defs>
     <path d="M 0 2.738613 
C 0.726289 2.738613 1.422928 2.450055 1.936492 1.936492 
C 2.450055 1.422928 2.738613 0.726289 2.738613 0 
C 2.738613 -0.726289 2.450055 -1.422928 1.936492 -1.936492 
C 1.422928 -2.450055 0.726289 -2.738613 0 -2.738613 
C -0.726289 -2.738613 -1.422928 -2.450055 -1.936492 -1.936492 
C -2.450055 -1.422928 -2.738613 -0.726289 -2.738613 0 
C -2.738613 0.726289 -2.450055 1.422928 -1.936492 1.936492 
C -1.422928 2.450055 -0.726289 2.738613 0 2.738613 
z
" id="m007a950bb4" style="stroke:#ff0000;"/>
    </defs>
    <g clip-path="url(#paac5fac115)">
     <use style="fill:#ff0000;stroke:#ff0000;" x="395.323482" xlink:href="#m007a950bb4" y="58.83731"/>
     <use style="fill:#ff0000;stroke:#ff0000;" x="207.907117" xlink:href="#m007a950bb4" y="106.506068"/>
     <use style="fill:#ff0000;stroke:#ff0000;" x="216.517658" xlink:href="#m007a950bb4" y="246.971979"/>
     <use style="fill:#ff0000;stroke:#ff0000;" x="77.172565" xlink:href="#m007a950bb4" y="285.297516"/>
     <use style="fill:#ff0000;stroke:#ff0000;" x="236.881353" xlink:href="#m007a950bb4" y="279.067207"/>
     <use style="fill:#ff0000;stroke:#ff0000;" x="174.532156" xlink:href="#m007a950bb4" y="105.924815"/>
     <use style="fill:#ff0000;stroke:#ff0000;" x="249.021701" xlink:href="#m007a950bb4" y="285.623957"/>
    </g>
   </g>
   <g id="text_15">
    <!-- (137) Subject: s27, Known = True, Degree = 2, Duration = 0.1 -->
    <defs>
     <path d="M 31 75.875 
Q 24.46875 64.65625 21.28125 53.65625 
Q 18.109375 42.671875 18.109375 31.390625 
Q 18.109375 20.125 21.3125 9.0625 
Q 24.515625 -2 31 -13.1875 
L 23.1875 -13.1875 
Q 15.875 -1.703125 12.234375 9.375 
Q 8.59375 20.453125 8.59375 31.390625 
Q 8.59375 42.28125 12.203125 53.3125 
Q 15.828125 64.359375 23.1875 75.875 
z
" id="DejaVuSans-40"/>
     <path d="M 12.40625 8.296875 
L 28.515625 8.296875 
L 28.515625 63.921875 
L 10.984375 60.40625 
L 10.984375 69.390625 
L 28.421875 72.90625 
L 38.28125 72.90625 
L 38.28125 8.296875 
L 54.390625 8.296875 
L 54.390625 0 
L 12.40625 0 
z
" id="DejaVuSans-49"/>
     <path d="M 40.578125 39.3125 
Q 47.65625 37.796875 51.625 33 
Q 55.609375 28.21875 55.609375 21.1875 
Q 55.609375 10.40625 48.1875 4.484375 
Q 40.765625 -1.421875 27.09375 -1.421875 
Q 22.515625 -1.421875 17.65625 -0.515625 
Q 12.796875 0.390625 7.625 2.203125 
L 7.625 11.71875 
Q 11.71875 9.328125 16.59375 8.109375 
Q 21.484375 6.890625 26.8125 6.890625 
Q 36.078125 6.890625 40.9375 10.546875 
Q 45.796875 14.203125 45.796875 21.1875 
Q 45.796875 27.640625 41.28125 31.265625 
Q 36.765625 34.90625 28.71875 34.90625 
L 20.21875 34.90625 
L 20.21875 43.015625 
L 29.109375 43.015625 
Q 36.375 43.015625 40.234375 45.921875 
Q 44.09375 48.828125 44.09375 54.296875 
Q 44.09375 59.90625 40.109375 62.90625 
Q 36.140625 65.921875 28.71875 65.921875 
Q 24.65625 65.921875 20.015625 65.03125 
Q 15.375 64.15625 9.8125 62.3125 
L 9.8125 71.09375 
Q 15.4375 72.65625 20.34375 73.4375 
Q 25.25 74.21875 29.59375 74.21875 
Q 40.828125 74.21875 47.359375 69.109375 
Q 53.90625 64.015625 53.90625 55.328125 
Q 53.90625 49.265625 50.4375 45.09375 
Q 46.96875 40.921875 40.578125 39.3125 
z
" id="DejaVuSans-51"/>
     <path d="M 8.203125 72.90625 
L 55.078125 72.90625 
L 55.078125 68.703125 
L 28.609375 0 
L 18.3125 0 
L 43.21875 64.59375 
L 8.203125 64.59375 
z
" id="DejaVuSans-55"/>
     <path d="M 8.015625 75.875 
L 15.828125 75.875 
Q 23.140625 64.359375 26.78125 53.3125 
Q 30.421875 42.28125 30.421875 31.390625 
Q 30.421875 20.453125 26.78125 9.375 
Q 23.140625 -1.703125 15.828125 -13.1875 
L 8.015625 -13.1875 
Q 14.5 -2 17.703125 9.0625 
Q 20.90625 20.125 20.90625 31.390625 
Q 20.90625 42.671875 17.703125 53.65625 
Q 14.5 64.65625 8.015625 75.875 
z
" id="DejaVuSans-41"/>
     <path id="DejaVuSans-32"/>
     <path d="M 53.515625 70.515625 
L 53.515625 60.890625 
Q 47.90625 63.578125 42.921875 64.890625 
Q 37.9375 66.21875 33.296875 66.21875 
Q 25.25 66.21875 20.875 63.09375 
Q 16.5 59.96875 16.5 54.203125 
Q 16.5 49.359375 19.40625 46.890625 
Q 22.3125 44.4375 30.421875 42.921875 
L 36.375 41.703125 
Q 47.40625 39.59375 52.65625 34.296875 
Q 57.90625 29 57.90625 20.125 
Q 57.90625 9.515625 50.796875 4.046875 
Q 43.703125 -1.421875 29.984375 -1.421875 
Q 24.8125 -1.421875 18.96875 -0.25 
Q 13.140625 0.921875 6.890625 3.21875 
L 6.890625 13.375 
Q 12.890625 10.015625 18.65625 8.296875 
Q 24.421875 6.59375 29.984375 6.59375 
Q 38.421875 6.59375 43.015625 9.90625 
Q 47.609375 13.234375 47.609375 19.390625 
Q 47.609375 24.75 44.3125 27.78125 
Q 41.015625 30.8125 33.5 32.328125 
L 27.484375 33.5 
Q 16.453125 35.6875 11.515625 40.375 
Q 6.59375 45.0625 6.59375 53.421875 
Q 6.59375 63.09375 13.40625 68.65625 
Q 20.21875 74.21875 32.171875 74.21875 
Q 37.3125 74.21875 42.625 73.28125 
Q 47.953125 72.359375 53.515625 70.515625 
z
" id="DejaVuSans-83"/>
     <path d="M 8.5 21.578125 
L 8.5 54.6875 
L 17.484375 54.6875 
L 17.484375 21.921875 
Q 17.484375 14.15625 20.5 10.265625 
Q 23.53125 6.390625 29.59375 6.390625 
Q 36.859375 6.390625 41.078125 11.03125 
Q 45.3125 15.671875 45.3125 23.6875 
L 45.3125 54.6875 
L 54.296875 54.6875 
L 54.296875 0 
L 45.3125 0 
L 45.3125 8.40625 
Q 42.046875 3.421875 37.71875 1 
Q 33.40625 -1.421875 27.6875 -1.421875 
Q 18.265625 -1.421875 13.375 4.4375 
Q 8.5 10.296875 8.5 21.578125 
z
M 31.109375 56 
z
" id="DejaVuSans-117"/>
     <path d="M 48.6875 27.296875 
Q 48.6875 37.203125 44.609375 42.84375 
Q 40.53125 48.484375 33.40625 48.484375 
Q 26.265625 48.484375 22.1875 42.84375 
Q 18.109375 37.203125 18.109375 27.296875 
Q 18.109375 17.390625 22.1875 11.75 
Q 26.265625 6.109375 33.40625 6.109375 
Q 40.53125 6.109375 44.609375 11.75 
Q 48.6875 17.390625 48.6875 27.296875 
z
M 18.109375 46.390625 
Q 20.953125 51.265625 25.265625 53.625 
Q 29.59375 56 35.59375 56 
Q 45.5625 56 51.78125 48.09375 
Q 58.015625 40.1875 58.015625 27.296875 
Q 58.015625 14.40625 51.78125 6.484375 
Q 45.5625 -1.421875 35.59375 -1.421875 
Q 29.59375 -1.421875 25.265625 0.953125 
Q 20.953125 3.328125 18.109375 8.203125 
L 18.109375 0 
L 9.078125 0 
L 9.078125 75.984375 
L 18.109375 75.984375 
z
" id="DejaVuSans-98"/>
     <path d="M 9.421875 54.6875 
L 18.40625 54.6875 
L 18.40625 -0.984375 
Q 18.40625 -11.421875 14.421875 -16.109375 
Q 10.453125 -20.796875 1.609375 -20.796875 
L -1.8125 -20.796875 
L -1.8125 -13.1875 
L 0.59375 -13.1875 
Q 5.71875 -13.1875 7.5625 -10.8125 
Q 9.421875 -8.453125 9.421875 -0.984375 
z
M 9.421875 75.984375 
L 18.40625 75.984375 
L 18.40625 64.59375 
L 9.421875 64.59375 
z
" id="DejaVuSans-106"/>
     <path d="M 56.203125 29.59375 
L 56.203125 25.203125 
L 14.890625 25.203125 
Q 15.484375 15.921875 20.484375 11.0625 
Q 25.484375 6.203125 34.421875 6.203125 
Q 39.59375 6.203125 44.453125 7.46875 
Q 49.3125 8.734375 54.109375 11.28125 
L 54.109375 2.78125 
Q 49.265625 0.734375 44.1875 -0.34375 
Q 39.109375 -1.421875 33.890625 -1.421875 
Q 20.796875 -1.421875 13.15625 6.1875 
Q 5.515625 13.8125 5.515625 26.8125 
Q 5.515625 40.234375 12.765625 48.109375 
Q 20.015625 56 32.328125 56 
Q 43.359375 56 49.78125 48.890625 
Q 56.203125 41.796875 56.203125 29.59375 
z
M 47.21875 32.234375 
Q 47.125 39.59375 43.09375 43.984375 
Q 39.0625 48.390625 32.421875 48.390625 
Q 24.90625 48.390625 20.390625 44.140625 
Q 15.875 39.890625 15.1875 32.171875 
z
" id="DejaVuSans-101"/>
     <path d="M 48.78125 52.59375 
L 48.78125 44.1875 
Q 44.96875 46.296875 41.140625 47.34375 
Q 37.3125 48.390625 33.40625 48.390625 
Q 24.65625 48.390625 19.8125 42.84375 
Q 14.984375 37.3125 14.984375 27.296875 
Q 14.984375 17.28125 19.8125 11.734375 
Q 24.65625 6.203125 33.40625 6.203125 
Q 37.3125 6.203125 41.140625 7.25 
Q 44.96875 8.296875 48.78125 10.40625 
L 48.78125 2.09375 
Q 45.015625 0.34375 40.984375 -0.53125 
Q 36.96875 -1.421875 32.421875 -1.421875 
Q 20.0625 -1.421875 12.78125 6.34375 
Q 5.515625 14.109375 5.515625 27.296875 
Q 5.515625 40.671875 12.859375 48.328125 
Q 20.21875 56 33.015625 56 
Q 37.15625 56 41.109375 55.140625 
Q 45.0625 54.296875 48.78125 52.59375 
z
" id="DejaVuSans-99"/>
     <path d="M 18.3125 70.21875 
L 18.3125 54.6875 
L 36.8125 54.6875 
L 36.8125 47.703125 
L 18.3125 47.703125 
L 18.3125 18.015625 
Q 18.3125 11.328125 20.140625 9.421875 
Q 21.96875 7.515625 27.59375 7.515625 
L 36.8125 7.515625 
L 36.8125 0 
L 27.59375 0 
Q 17.1875 0 13.234375 3.875 
Q 9.28125 7.765625 9.28125 18.015625 
L 9.28125 47.703125 
L 2.6875 47.703125 
L 2.6875 54.6875 
L 9.28125 54.6875 
L 9.28125 70.21875 
z
" id="DejaVuSans-116"/>
     <path d="M 11.71875 12.40625 
L 22.015625 12.40625 
L 22.015625 0 
L 11.71875 0 
z
M 11.71875 51.703125 
L 22.015625 51.703125 
L 22.015625 39.3125 
L 11.71875 39.3125 
z
" id="DejaVuSans-58"/>
     <path d="M 44.28125 53.078125 
L 44.28125 44.578125 
Q 40.484375 46.53125 36.375 47.5 
Q 32.28125 48.484375 27.875 48.484375 
Q 21.1875 48.484375 17.84375 46.4375 
Q 14.5 44.390625 14.5 40.28125 
Q 14.5 37.15625 16.890625 35.375 
Q 19.28125 33.59375 26.515625 31.984375 
L 29.59375 31.296875 
Q 39.15625 29.25 43.1875 25.515625 
Q 47.21875 21.78125 47.21875 15.09375 
Q 47.21875 7.46875 41.1875 3.015625 
Q 35.15625 -1.421875 24.609375 -1.421875 
Q 20.21875 -1.421875 15.453125 -0.5625 
Q 10.6875 0.296875 5.421875 2 
L 5.421875 11.28125 
Q 10.40625 8.6875 15.234375 7.390625 
Q 20.0625 6.109375 24.8125 6.109375 
Q 31.15625 6.109375 34.5625 8.28125 
Q 37.984375 10.453125 37.984375 14.40625 
Q 37.984375 18.0625 35.515625 20.015625 
Q 33.0625 21.96875 24.703125 23.78125 
L 21.578125 24.515625 
Q 13.234375 26.265625 9.515625 29.90625 
Q 5.8125 33.546875 5.8125 39.890625 
Q 5.8125 47.609375 11.28125 51.796875 
Q 16.75 56 26.8125 56 
Q 31.78125 56 36.171875 55.265625 
Q 40.578125 54.546875 44.28125 53.078125 
z
" id="DejaVuSans-115"/>
     <path d="M 11.71875 12.40625 
L 22.015625 12.40625 
L 22.015625 4 
L 14.015625 -11.625 
L 7.71875 -11.625 
L 11.71875 4 
z
" id="DejaVuSans-44"/>
     <path d="M 9.8125 72.90625 
L 19.671875 72.90625 
L 19.671875 42.09375 
L 52.390625 72.90625 
L 65.09375 72.90625 
L 28.90625 38.921875 
L 67.671875 0 
L 54.6875 0 
L 19.671875 35.109375 
L 19.671875 0 
L 9.8125 0 
z
" id="DejaVuSans-75"/>
     <path d="M 54.890625 33.015625 
L 54.890625 0 
L 45.90625 0 
L 45.90625 32.71875 
Q 45.90625 40.484375 42.875 44.328125 
Q 39.84375 48.1875 33.796875 48.1875 
Q 26.515625 48.1875 22.3125 43.546875 
Q 18.109375 38.921875 18.109375 30.90625 
L 18.109375 0 
L 9.078125 0 
L 9.078125 54.6875 
L 18.109375 54.6875 
L 18.109375 46.1875 
Q 21.34375 51.125 25.703125 53.5625 
Q 30.078125 56 35.796875 56 
Q 45.21875 56 50.046875 50.171875 
Q 54.890625 44.34375 54.890625 33.015625 
z
" id="DejaVuSans-110"/>
     <path d="M 30.609375 48.390625 
Q 23.390625 48.390625 19.1875 42.75 
Q 14.984375 37.109375 14.984375 27.296875 
Q 14.984375 17.484375 19.15625 11.84375 
Q 23.34375 6.203125 30.609375 6.203125 
Q 37.796875 6.203125 41.984375 11.859375 
Q 46.1875 17.53125 46.1875 27.296875 
Q 46.1875 37.015625 41.984375 42.703125 
Q 37.796875 48.390625 30.609375 48.390625 
z
M 30.609375 56 
Q 42.328125 56 49.015625 48.375 
Q 55.71875 40.765625 55.71875 27.296875 
Q 55.71875 13.875 49.015625 6.21875 
Q 42.328125 -1.421875 30.609375 -1.421875 
Q 18.84375 -1.421875 12.171875 6.21875 
Q 5.515625 13.875 5.515625 27.296875 
Q 5.515625 40.765625 12.171875 48.375 
Q 18.84375 56 30.609375 56 
z
" id="DejaVuSans-111"/>
     <path d="M 4.203125 54.6875 
L 13.1875 54.6875 
L 24.421875 12.015625 
L 35.59375 54.6875 
L 46.1875 54.6875 
L 57.421875 12.015625 
L 68.609375 54.6875 
L 77.59375 54.6875 
L 63.28125 0 
L 52.6875 0 
L 40.921875 44.828125 
L 29.109375 0 
L 18.5 0 
z
" id="DejaVuSans-119"/>
     <path d="M 10.59375 45.40625 
L 73.1875 45.40625 
L 73.1875 37.203125 
L 10.59375 37.203125 
z
M 10.59375 25.484375 
L 73.1875 25.484375 
L 73.1875 17.1875 
L 10.59375 17.1875 
z
" id="DejaVuSans-61"/>
     <path d="M -0.296875 72.90625 
L 61.375 72.90625 
L 61.375 64.59375 
L 35.5 64.59375 
L 35.5 0 
L 25.59375 0 
L 25.59375 64.59375 
L -0.296875 64.59375 
z
" id="DejaVuSans-84"/>
     <path d="M 41.109375 46.296875 
Q 39.59375 47.171875 37.8125 47.578125 
Q 36.03125 48 33.890625 48 
Q 26.265625 48 22.1875 43.046875 
Q 18.109375 38.09375 18.109375 28.8125 
L 18.109375 0 
L 9.078125 0 
L 9.078125 54.6875 
L 18.109375 54.6875 
L 18.109375 46.1875 
Q 20.953125 51.171875 25.484375 53.578125 
Q 30.03125 56 36.53125 56 
Q 37.453125 56 38.578125 55.875 
Q 39.703125 55.765625 41.0625 55.515625 
z
" id="DejaVuSans-114"/>
     <path d="M 19.671875 64.796875 
L 19.671875 8.109375 
L 31.59375 8.109375 
Q 46.6875 8.109375 53.6875 14.9375 
Q 60.6875 21.78125 60.6875 36.53125 
Q 60.6875 51.171875 53.6875 57.984375 
Q 46.6875 64.796875 31.59375 64.796875 
z
M 9.8125 72.90625 
L 30.078125 72.90625 
Q 51.265625 72.90625 61.171875 64.09375 
Q 71.09375 55.28125 71.09375 36.53125 
Q 71.09375 17.671875 61.125 8.828125 
Q 51.171875 0 30.078125 0 
L 9.8125 0 
z
" id="DejaVuSans-68"/>
     <path d="M 45.40625 27.984375 
Q 45.40625 37.75 41.375 43.109375 
Q 37.359375 48.484375 30.078125 48.484375 
Q 22.859375 48.484375 18.828125 43.109375 
Q 14.796875 37.75 14.796875 27.984375 
Q 14.796875 18.265625 18.828125 12.890625 
Q 22.859375 7.515625 30.078125 7.515625 
Q 37.359375 7.515625 41.375 12.890625 
Q 45.40625 18.265625 45.40625 27.984375 
z
M 54.390625 6.78125 
Q 54.390625 -7.171875 48.1875 -13.984375 
Q 42 -20.796875 29.203125 -20.796875 
Q 24.46875 -20.796875 20.265625 -20.09375 
Q 16.0625 -19.390625 12.109375 -17.921875 
L 12.109375 -9.1875 
Q 16.0625 -11.328125 19.921875 -12.34375 
Q 23.78125 -13.375 27.78125 -13.375 
Q 36.625 -13.375 41.015625 -8.765625 
Q 45.40625 -4.15625 45.40625 5.171875 
L 45.40625 9.625 
Q 42.625 4.78125 38.28125 2.390625 
Q 33.9375 0 27.875 0 
Q 17.828125 0 11.671875 7.65625 
Q 5.515625 15.328125 5.515625 27.984375 
Q 5.515625 40.671875 11.671875 48.328125 
Q 17.828125 56 27.875 56 
Q 33.9375 56 38.28125 53.609375 
Q 42.625 51.21875 45.40625 46.390625 
L 45.40625 54.6875 
L 54.390625 54.6875 
z
" id="DejaVuSans-103"/>
     <path d="M 34.28125 27.484375 
Q 23.390625 27.484375 19.1875 25 
Q 14.984375 22.515625 14.984375 16.5 
Q 14.984375 11.71875 18.140625 8.90625 
Q 21.296875 6.109375 26.703125 6.109375 
Q 34.1875 6.109375 38.703125 11.40625 
Q 43.21875 16.703125 43.21875 25.484375 
L 43.21875 27.484375 
z
M 52.203125 31.203125 
L 52.203125 0 
L 43.21875 0 
L 43.21875 8.296875 
Q 40.140625 3.328125 35.546875 0.953125 
Q 30.953125 -1.421875 24.3125 -1.421875 
Q 15.921875 -1.421875 10.953125 3.296875 
Q 6 8.015625 6 15.921875 
Q 6 25.140625 12.171875 29.828125 
Q 18.359375 34.515625 30.609375 34.515625 
L 43.21875 34.515625 
L 43.21875 35.40625 
Q 43.21875 41.609375 39.140625 45 
Q 35.0625 48.390625 27.6875 48.390625 
Q 23 48.390625 18.546875 47.265625 
Q 14.109375 46.140625 10.015625 43.890625 
L 10.015625 52.203125 
Q 14.9375 54.109375 19.578125 55.046875 
Q 24.21875 56 28.609375 56 
Q 40.484375 56 46.34375 49.84375 
Q 52.203125 43.703125 52.203125 31.203125 
z
" id="DejaVuSans-97"/>
     <path d="M 9.421875 54.6875 
L 18.40625 54.6875 
L 18.40625 0 
L 9.421875 0 
z
M 9.421875 75.984375 
L 18.40625 75.984375 
L 18.40625 64.59375 
L 9.421875 64.59375 
z
" id="DejaVuSans-105"/>
     <path d="M 10.6875 12.40625 
L 21 12.40625 
L 21 0 
L 10.6875 0 
z
" id="DejaVuSans-46"/>
    </defs>
    <g transform="translate(47.915625 35.472)scale(0.12 -0.12)">
     <use xlink:href="#DejaVuSans-40"/>
     <use x="39.013672" xlink:href="#DejaVuSans-49"/>
     <use x="102.636719" xlink:href="#DejaVuSans-51"/>
     <use x="166.259766" xlink:href="#DejaVuSans-55"/>
     <use x="229.882812" xlink:href="#DejaVuSans-41"/>
     <use x="268.896484" xlink:href="#DejaVuSans-32"/>
     <use x="300.683594" xlink:href="#DejaVuSans-83"/>
     <use x="364.160156" xlink:href="#DejaVuSans-117"/>
     <use x="427.539062" xlink:href="#DejaVuSans-98"/>
     <use x="491.015625" xlink:href="#DejaVuSans-106"/>
     <use x="518.798828" xlink:href="#DejaVuSans-101"/>
     <use x="580.322266" xlink:href="#DejaVuSans-99"/>
     <use x="635.302734" xlink:href="#DejaVuSans-116"/>
     <use x="674.511719" xlink:href="#DejaVuSans-58"/>
     <use x="708.203125" xlink:href="#DejaVuSans-32"/>
     <use x="739.990234" xlink:href="#DejaVuSans-115"/>
     <use x="792.089844" xlink:href="#DejaVuSans-50"/>
     <use x="855.712891" xlink:href="#DejaVuSans-55"/>
     <use x="919.335938" xlink:href="#DejaVuSans-44"/>
     <use x="951.123047" xlink:href="#DejaVuSans-32"/>
     <use x="982.910156" xlink:href="#DejaVuSans-75"/>
     <use x="1048.486328" xlink:href="#DejaVuSans-110"/>
     <use x="1111.865234" xlink:href="#DejaVuSans-111"/>
     <use x="1173.046875" xlink:href="#DejaVuSans-119"/>
     <use x="1254.833984" xlink:href="#DejaVuSans-110"/>
     <use x="1318.212891" xlink:href="#DejaVuSans-32"/>
     <use x="1350" xlink:href="#DejaVuSans-61"/>
     <use x="1433.789062" xlink:href="#DejaVuSans-32"/>
     <use x="1465.576172" xlink:href="#DejaVuSans-84"/>
     <use x="1526.441406" xlink:href="#DejaVuSans-114"/>
     <use x="1567.554688" xlink:href="#DejaVuSans-117"/>
     <use x="1630.933594" xlink:href="#DejaVuSans-101"/>
     <use x="1692.457031" xlink:href="#DejaVuSans-44"/>
     <use x="1724.244141" xlink:href="#DejaVuSans-32"/>
     <use x="1756.03125" xlink:href="#DejaVuSans-68"/>
     <use x="1833.033203" xlink:href="#DejaVuSans-101"/>
     <use x="1894.556641" xlink:href="#DejaVuSans-103"/>
     <use x="1958.033203" xlink:href="#DejaVuSans-114"/>
     <use x="1999.115234" xlink:href="#DejaVuSans-101"/>
     <use x="2060.638672" xlink:href="#DejaVuSans-101"/>
     <use x="2122.162109" xlink:href="#DejaVuSans-32"/>
     <use x="2153.949219" xlink:href="#DejaVuSans-61"/>
     <use x="2237.738281" xlink:href="#DejaVuSans-32"/>
     <use x="2269.525391" xlink:href="#DejaVuSans-50"/>
     <use x="2333.148438" xlink:href="#DejaVuSans-44"/>
     <use x="2364.935547" xlink:href="#DejaVuSans-32"/>
     <use x="2396.722656" xlink:href="#DejaVuSans-68"/>
     <use x="2473.724609" xlink:href="#DejaVuSans-117"/>
     <use x="2537.103516" xlink:href="#DejaVuSans-114"/>
     <use x="2578.216797" xlink:href="#DejaVuSans-97"/>
     <use x="2639.496094" xlink:href="#DejaVuSans-116"/>
     <use x="2678.705078" xlink:href="#DejaVuSans-105"/>
     <use x="2706.488281" xlink:href="#DejaVuSans-111"/>
     <use x="2767.669922" xlink:href="#DejaVuSans-110"/>
     <use x="2831.048828" xlink:href="#DejaVuSans-32"/>
     <use x="2862.835938" xlink:href="#DejaVuSans-61"/>
     <use x="2946.625" xlink:href="#DejaVuSans-32"/>
     <use x="2978.412109" xlink:href="#DejaVuSans-48"/>
     <use x="3042.035156" xlink:href="#DejaVuSans-46"/>
     <use x="3073.822266" xlink:href="#DejaVuSans-49"/>
    </g>
   </g>
  </g>
 </g>
 <defs>
  <clipPath id="paac5fac115">
   <rect height="266.112" width="357.12" x="57.6" y="41.472"/>
  </clipPath>
 </defs>
</svg>
