<?xml version="1.0" encoding="utf-8" standalone="no"?>
<!DOCTYPE svg PUBLIC "-//W3C//DTD SVG 1.1//EN"
  "http://www.w3.org/Graphics/SVG/1.1/DTD/svg11.dtd">
<!-- Created with matplotlib (https://matplotlib.org/) -->
<svg height="345.6pt" version="1.1" viewBox="0 0 460.8 345.6" width="460.8pt" xmlns="http://www.w3.org/2000/svg" xmlns:xlink="http://www.w3.org/1999/xlink">
 <defs>
  <style type="text/css">
*{stroke-linecap:butt;stroke-linejoin:round;}
  </style>
 </defs>
 <g id="figure_1">
  <g id="patch_1">
   <path d="M 0 345.6 
L 460.8 345.6 
L 460.8 0 
L 0 0 
z
" style="fill:#ffffff;"/>
  </g>
  <g id="axes_1">
   <g id="patch_2">
    <path d="M 57.6 307.584 
L 414.72 307.584 
L 414.72 41.472 
L 57.6 41.472 
z
" style="fill:#ffffff;"/>
   </g>
   <g id="line2d_1">
    <path clip-path="url(#pb45a036416)" d="M 398.078488 62.852251 
L 398.385869 62.852251 
L 398.385869 63.030043 
L 398.179892 63.030043 
L 398.078488 62.852251 
L 397.973915 63.030043 
L 398.078488 63.745118 
L 398.078488 63.745118 
L 397.872511 63.565372 
L 397.872511 63.745118 
L 397.973915 63.030043 
L 398.078488 62.852251 
L 398.078488 63.387581 
L 397.973915 63.030043 
L 397.872511 62.852251 
L 397.973915 63.207835 
L 397.872511 63.565372 
L 397.56513 63.387581 
L 397.56513 63.030043 
L 397.872511 62.852251 
L 397.872511 63.030043 
L 397.56513 63.565372 
L 397.666534 63.565372 
L 398.078488 63.565372 
L 397.973915 63.565372 
L 397.872511 63.745118 
L 397.872511 64.100702 
L 397.973915 63.207835 
L 397.771107 63.565372 
L 397.56513 63.92291 
L 397.56513 63.565372 
L 398.281296 63.030043 
L 398.487273 63.030043 
L 397.973915 63.92291 
L 397.666534 63.92291 
L 397.463726 63.745118 
L 397.666534 63.745118 
L 397.872511 63.745118 
L 397.359153 63.387581 
L 397.463726 63.565372 
L 397.771107 63.387581 
L 397.872511 63.030043 
L 397.872511 63.030043 
L 397.666534 63.030043 
L 397.666534 63.030043 
L 397.56513 64.637985 
L 397.771107 63.207835 
L 397.872511 63.030043 
L 397.666534 63.207835 
L 397.359153 63.565372 
L 397.156345 63.745118 
L 397.051772 63.745118 
L 397.156345 63.745118 
L 397.359153 63.387581 
L 397.359153 63.387581 
L 397.771107 63.92291 
L 397.771107 63.92291 
L 397.56513 64.280447 
L 397.257749 64.458239 
L 397.051772 64.280447 
L 397.156345 63.387581 
L 397.156345 63.565372 
L 396.950368 63.92291 
L 396.744391 63.92291 
L 396.950368 63.387581 
L 396.744391 63.207835 
L 396.845795 63.565372 
L 396.744391 63.565372 
L 396.642987 63.387581 
L 396.642987 63.565372 
L 396.538414 63.565372 
L 396.744391 62.672506 
L 396.744391 63.207835 
L 397.051772 62.852251 
L 397.257749 62.316922 
L 397.051772 61.959384 
L 396.642987 61.601847 
L 396.43701 61.779639 
L 396.335606 62.672506 
L 396.845795 62.672506 
L 396.744391 62.672506 
L 396.538414 62.137176 
L 396.43701 62.137176 
L 396.538414 62.316922 
L 397.156345 61.066518 
L 397.051772 60.70898 
L 396.744391 60.351443 
L 396.744391 60.173651 
L 396.845795 60.351443 
L 397.051772 60.531188 
L 396.950368 58.567663 
L 396.744391 58.567663 
L 396.642987 58.923247 
L 396.744391 57.495051 
L 396.538414 57.495051 
L 396.43701 57.852588 
L 396.538414 58.03038 
L 396.950368 58.03038 
L 397.156345 57.674796 
L 396.950368 57.495051 
L 396.642987 57.317259 
L 396.43701 56.959721 
L 396.538414 56.959721 
L 396.744391 56.959721 
L 396.950368 56.424392 
L 396.744391 56.424392 
L 396.642987 56.2466 
L 396.845795 56.066855 
L 397.156345 56.066855 
L 397.156345 56.066855 
L 397.051772 55.353734 
L 396.950368 55.353734 
L 396.744391 55.709317 
L 397.156345 54.996196 
L 397.359153 55.173988 
L 397.463726 55.531525 
L 397.257749 55.889063 
L 396.642987 55.173988 
L 396.744391 54.996196 
L 397.051772 54.818404 
L 397.257749 54.460867 
L 396.950368 54.281121 
L 396.538414 54.460867 
L 396.335606 54.996196 
L 396.538414 55.353734 
L 396.950368 54.818404 
L 397.257749 53.745792 
L 397.051772 53.925537 
L 396.950368 54.818404 
L 396.744391 54.818404 
L 396.642987 54.996196 
L 396.744391 55.173988 
L 397.051772 55.173988 
L 396.538414 54.638659 
L 396.538414 54.638659 
L 396.43701 53.925537 
L 396.845795 53.568 
L 396.744391 53.925537 
L 396.538414 54.460867 
L 396.43701 54.460867 
L 396.744391 53.745792 
L 396.950368 53.925537 
L 396.950368 54.460867 
L 396.845795 54.460867 
L 396.642987 54.638659 
L 396.744391 54.818404 
L 396.845795 54.460867 
L 396.538414 53.925537 
L 396.538414 54.103329 
L 396.43701 54.818404 
L 396.538414 54.638659 
L 396.642987 53.925537 
L 396.642987 53.745792 
L 396.744391 53.925537 
L 396.845795 54.818404 
L 396.744391 54.996196 
L 396.538414 54.103329 
L 396.538414 54.103329 
L 396.43701 54.281121 
L 396.43701 54.281121 
L 396.538414 54.818404 
L 396.538414 54.103329 
L 396.642987 54.281121 
L 396.538414 54.638659 
L 396.335606 54.638659 
L 396.335606 54.638659 
L 396.028225 54.996196 
L 395.413463 54.818404 
L 394.488151 54.281121 
L 393.258627 53.925537 
L 391.823126 53.745792 
L 390.184817 54.103329 
L 388.134554 54.996196 
L 385.570933 55.353734 
L 379.112763 54.996196 
L 375.319618 55.709317 
L 371.425069 56.959721 
L 367.53052 58.387917 
L 363.531398 59.280784 
L 359.532276 59.638322 
L 350.615059 59.280784 
L 336.263218 59.816114 
L 331.956715 60.173651 
L 327.653381 60.888726 
L 322.938093 61.959384 
L 314.017706 63.387581 
L 309.91718 64.458239 
L 305.816654 65.351106 
L 297.102244 66.779302 
L 292.79891 67.672169 
L 288.593812 68.922573 
L 284.185905 69.81544 
L 279.882571 71.06389 
L 275.474664 73.029369 
L 271.168161 75.170686 
L 258.971156 80.348141 
L 254.87063 82.311667 
L 251.077485 83.919608 
L 247.794529 85.883134 
L 244.514742 88.026405 
L 241.028978 90.167722 
L 231.80438 95.345177 
L 227.497877 98.201569 
L 225.244806 99.987302 
L 221.039707 103.558769 
L 218.273278 105.700087 
L 217.246562 107.308028 
L 216.324419 109.093762 
L 212.838655 121.412197 
L 212.531274 122.840393 
L 211.710535 129.09046 
L 211.403154 130.338911 
L 210.994369 135.338574 
L 210.481011 136.588978 
L 209.457464 141.944225 
L 209.150083 143.014883 
L 209.558868 143.372421 
L 209.558868 143.90775 
L 208.842702 145.693484 
L 208.738129 145.515692 
L 208.842702 145.158154 
L 208.944106 145.335946 
L 209.251487 146.943888 
L 209.251487 147.301425 
L 209.04551 147.301425 
L 208.738129 147.12168 
L 208.430748 147.657009 
L 208.535321 148.549876 
L 208.842702 148.729621 
L 209.150083 148.372084 
L 209.04551 148.192338 
L 208.944106 148.549876 
L 209.150083 149.264951 
L 208.944106 149.622488 
L 209.251487 149.264951 
L 209.251487 149.442742 
L 209.04551 149.622488 
L 209.150083 149.264951 
L 209.251487 149.264951 
L 209.251487 149.442742 
L 209.150083 149.442742 
L 208.842702 149.622488 
L 208.329344 150.693147 
L 208.636725 150.870939 
L 208.636725 150.870939 
L 208.842702 150.870939 
L 209.251487 150.335609 
L 209.150083 149.978072 
L 208.842702 150.335609 
L 208.738129 151.228476 
L 208.842702 151.763805 
L 208.738129 151.763805 
L 208.329344 151.406268 
L 208.329344 151.228476 
L 208.636725 151.228476 
L 208.842702 151.586013 
L 208.944106 152.121343 
L 208.842702 152.299135 
L 208.535321 151.943551 
L 208.329344 151.943551 
L 208.430748 152.47888 
L 208.842702 152.121343 
L 208.738129 151.586013 
L 208.738129 152.47888 
L 208.738129 152.299135 
L 208.636725 151.763805 
L 208.944106 150.870939 
L 208.842702 150.870939 
L 208.738129 150.513401 
L 208.842702 150.513401 
L 208.944106 151.050684 
L 209.150083 150.870939 
L 209.251487 150.513401 
L 209.150083 150.335609 
L 208.944106 150.870939 
L 209.251487 151.050684 
L 209.558868 150.870939 
L 209.558868 150.513401 
L 209.352891 150.335609 
L 208.842702 150.335609 
L 209.04551 150.157817 
L 209.04551 150.157817 
L 208.535321 150.870939 
L 208.22794 151.050684 
L 207.201224 149.978072 
L 205.252365 150.513401 
L 204.637603 150.870939 
L 203.921437 151.050684 
L 202.999294 151.763805 
L 202.077151 153.01421 
L 200.64165 155.69281 
L 199.820911 156.583723 
L 199.000172 157.298798 
L 198.078029 158.369456 
L 196.335147 161.225848 
L 194.284884 163.726657 
L 192.234621 167.118378 
L 189.978381 170.154516 
L 187.110548 176.402629 
L 186.289809 177.473288 
L 185.46907 179.08123 
L 184.134973 182.295159 
L 183.520211 183.365818 
L 182.804045 184.258685 
L 182.496664 185.329343 
L 182.392091 186.757539 
L 181.061163 193.720728 
L 180.959759 195.684253 
L 181.061163 197.469987 
L 180.959759 198.898183 
L 180.753782 199.968841 
L 180.855186 201.397037 
L 181.162567 202.825233 
L 181.162567 204.075638 
L 180.753782 206.218908 
L 180.652378 208.360226 
L 180.753782 208.895555 
L 180.547805 209.432838 
L 180.446401 211.038826 
L 180.753782 213.182097 
L 180.652378 216.573818 
L 180.547805 216.75161 
L 180.446401 217.824223 
L 180.446401 219.072673 
L 180.753782 219.072673 
L 180.959759 219.43021 
L 181.061163 221.215944 
L 181.061163 221.215944 
L 181.162567 221.215944 
L 180.652378 222.108811 
L 180.855186 222.286603 
L 180.959759 223.537007 
L 181.061163 223.537007 
L 181.26714 223.357261 
L 180.959759 224.787411 
L 181.162567 225.142995 
L 181.574521 225.500532 
L 181.368544 225.678324 
L 181.368544 225.678324 
L 181.368544 225.500532 
L 181.574521 225.32274 
L 181.777329 225.678324 
L 181.675925 225.678324 
L 181.881902 226.393399 
L 181.26714 226.750936 
L 181.26714 226.571191 
L 181.574521 226.393399 
L 181.983306 227.643803 
L 181.881902 227.999387 
L 181.469948 227.643803 
L 181.469948 227.821595 
L 181.574521 228.356924 
L 181.469948 227.999387 
L 181.368544 227.999387 
L 181.26714 228.356924 
L 181.368544 228.53667 
L 181.26714 230.32045 
L 181.162567 230.32045 
L 181.675925 230.32045 
L 181.469948 230.32045 
L 181.881902 229.78512 
L 181.675925 229.964866 
L 181.777329 230.677987 
L 182.290687 230.32045 
L 181.881902 231.393062 
L 181.881902 231.213316 
L 181.675925 230.857733 
L 180.959759 230.500195 
L 179.933043 230.500195 
L 178.804923 230.677987 
L 175.832518 231.393062 
L 173.68085 231.570854 
L 168.350801 231.213316 
L 165.581203 231.213316 
L 162.507393 231.035524 
L 159.227606 231.035524 
L 152.357482 231.393062 
L 148.564337 231.748646 
L 138.417595 233.356587 
L 131.854852 234.427246 
L 118.425155 237.463384 
L 111.456796 238.534042 
L 105.10003 239.962238 
L 102.333601 240.677313 
L 96.182812 242.998376 
L 88.79933 246.747635 
L 84.290019 249.781819 
L 80.601447 252.638211 
L 78.037826 254.246153 
L 76.703729 254.959274 
L 75.474205 255.85214 
L 74.653466 256.922799 
L 74.346085 257.995411 
L 74.244681 259.243862 
L 73.832727 261.74467 
L 73.9373 262.637537 
L 74.859443 264.9586 
L 75.06542 265.671721 
L 74.960847 266.922125 
L 74.859443 267.279663 
L 75.06542 268.885651 
L 74.758039 269.956309 
L 74.038704 272.457118 
L 74.038704 272.992447 
L 74.758039 273.705568 
L 74.653466 274.063105 
L 74.346085 274.240897 
L 74.346085 274.420643 
L 74.653466 274.598435 
L 74.859443 274.955972 
L 74.960847 275.669093 
L 74.859443 275.848839 
L 74.960847 276.026631 
L 74.960847 277.812364 
L 74.653466 277.812364 
L 74.758039 279.062769 
L 74.960847 279.955635 
L 75.06542 279.955635 
L 74.960847 279.77589 
L 75.06542 279.77589 
L 75.166824 279.598098 
L 75.06542 279.418352 
L 74.960847 279.77589 
L 74.859443 281.026294 
L 74.653466 281.739415 
L 74.653466 281.739415 
L 74.859443 281.561623 
L 74.859443 281.561623 
L 74.859443 281.739415 
L 75.166824 283.169565 
L 75.06542 283.525149 
L 74.859443 283.347357 
L 75.166824 283.525149 
L 74.552062 284.060478 
L 74.552062 285.488674 
L 74.552062 285.13309 
L 74.346085 285.668419 
L 74.450658 286.025957 
L 74.653466 285.668419 
L 74.346085 286.381541 
L 74.758039 287.274407 
L 75.06542 288.167274 
L 74.960847 288.524812 
L 74.552062 289.060141 
L 74.758039 289.060141 
L 74.960847 288.882349 
L 74.859443 289.060141 
L 74.758039 289.417678 
L 74.244681 289.59547 
L 74.859443 289.417678 
L 74.758039 289.775216 
L 74.653466 289.775216 
L 74.758039 289.775216 
L 74.653466 290.310545 
L 74.450658 290.668083 
L 74.552062 291.023666 
L 74.859443 291.381204 
L 74.859443 291.203412 
L 74.653466 290.845874 
L 74.653466 291.023666 
L 74.758039 291.558996 
L 74.450658 291.558996 
L 74.346085 292.27407 
L 74.346085 292.27407 
L 74.552062 292.451862 
L 74.859443 292.451862 
L 74.859443 292.631608 
L 74.758039 292.631608 
L 74.346085 292.27407 
L 74.346085 292.451862 
L 74.960847 292.989145 
L 74.859443 293.524475 
L 74.758039 293.880058 
L 74.859443 293.166937 
L 74.653466 293.344729 
L 74.450658 293.702266 
L 74.450658 294.417341 
L 74.653466 294.772925 
L 74.859443 293.702266 
L 74.859443 294.059804 
L 74.960847 294.595133 
L 74.758039 293.702266 
L 74.758039 294.059804 
L 74.653466 294.772925 
L 74.758039 295.310208 
L 74.960847 295.488 
L 75.06542 293.702266 
L 75.06542 293.702266 
L 75.166824 293.880058 
L 75.166824 293.880058 
L 75.06542 294.595133 
L 74.758039 294.952671 
L 74.859443 293.880058 
L 75.474205 291.916533 
L 75.372801 290.845874 
L 75.88299 288.167274 
L 76.190371 280.848502 
L 77.115683 273.348031 
L 77.831849 265.493929 
L 78.753992 256.745007 
L 80.088089 247.460756 
L 80.601447 242.998376 
L 81.317613 238.534042 
L 82.34116 233.714125 
L 83.573853 229.071999 
L 90.440808 198.362853 
L 93.207237 188.185735 
L 94.642738 183.54361 
L 98.743264 168.368782 
L 103.563125 155.513064 
L 104.792649 151.050684 
L 106.126746 146.764142 
L 107.765055 143.014883 
L 109.099152 139.623162 
L 110.122699 136.409232 
L 111.044842 132.839719 
L 111.659604 129.981373 
L 112.993701 125.341201 
L 114.223225 122.305064 
L 114.530606 120.699076 
L 115.043964 118.913342 
L 115.864702 116.592279 
L 115.966107 115.699413 
L 116.273488 114.628754 
L 116.682273 115.521621 
L 116.786845 116.592279 
L 116.786845 116.412534 
L 117.094226 115.877205 
L 117.300203 116.234742 
L 117.300203 116.05695 
L 117.503012 115.877205 
L 117.607584 114.806546 
L 117.503012 114.806546 
L 117.401607 114.984338 
L 117.401607 115.341875 
L 117.607584 115.164083 
L 117.810393 114.628754 
L 117.708988 114.271217 
L 117.708988 114.271217 
L 117.607584 114.628754 
L 117.708988 114.628754 
L 117.914965 114.449009 
L 118.016369 114.091471 
L 118.117774 114.271217 
L 118.117774 114.628754 
L 117.914965 114.984338 
L 117.607584 115.164083 
L 117.300203 114.984338 
L 117.195631 114.449009 
L 117.401607 114.449009 
L 117.708988 114.806546 
L 118.016369 115.877205 
L 118.222346 115.699413 
L 118.222346 115.521621 
L 118.222346 115.521621 
L 118.016369 115.341875 
L 117.914965 115.521621 
L 117.914965 115.341875 
L 117.914965 115.164083 
L 117.810393 116.592279 
L 118.016369 116.592279 
L 118.117774 116.592279 
L 118.117774 116.412534 
L 117.914965 116.234742 
L 118.016369 116.412534 
L 118.222346 116.770071 
L 118.425155 116.770071 
L 118.425155 116.592279 
L 118.32375 117.127609 
L 118.222346 117.305401 
L 117.914965 117.305401 
L 117.607584 117.485146 
L 117.708988 117.485146 
L 118.425155 118.198267 
L 118.425155 117.84073 
L 118.529727 119.091134 
L 118.631131 118.913342 
L 118.425155 119.448672 
L 118.529727 119.091134 
L 118.529727 118.020476 
L 118.631131 119.091134 
L 118.732536 119.091134 
L 118.732536 118.913342 
L 118.631131 118.913342 
L 118.529727 119.626463 
L 118.631131 119.806209 
L 118.631131 119.626463 
L 118.938512 119.448672 
L 118.837108 119.448672 
L 118.837108 119.626463 
L 119.245893 119.984001 
L 119.245893 120.161793 
L 118.837108 120.161793 
L 118.938512 120.161793 
L 119.043085 120.341538 
L 119.043085 120.341538 
L 119.144489 120.161793 
L 119.043085 119.984001 
L 119.553274 120.699076 
L 119.350466 120.699076 
L 119.043085 120.699076 
L 119.043085 120.876868 
L 119.245893 121.05466 
L 119.553274 122.127272 
L 119.144489 122.482856 
L 119.245893 122.482856 
L 119.553274 122.482856 
L 119.553274 122.662601 
L 119.245893 123.020139 
L 119.245893 122.840393 
L 119.45187 122.840393 
L 119.350466 123.555468 
L 119.245893 123.375722 
L 119.245893 122.662601 
L 119.245893 123.19793 
L 118.938512 124.090797 
L 118.837108 123.911052 
L 118.837108 123.911052 
L 119.043085 123.911052 
L 119.45187 123.555468 
L 119.45187 124.448335 
L 119.45187 123.911052 
L 119.245893 123.911052 
L 118.938512 124.626127 
L 119.043085 124.268589 
L 119.245893 124.448335 
L 119.245893 124.983664 
L 119.043085 125.161456 
L 118.631131 124.448335 
L 118.425155 124.448335 
L 118.32375 124.803918 
L 118.529727 125.161456 
L 118.938512 125.341201 
L 118.732536 125.341201 
L 118.529727 125.341201 
L 118.425155 124.803918 
L 118.631131 124.803918 
L 118.938512 124.983664 
L 118.732536 124.448335 
L 118.837108 124.268589 
L 118.938512 124.448335 
L 118.837108 124.983664 
L 118.732536 124.983664 
L 118.631131 124.803918 
L 118.732536 124.090797 
L 118.732536 124.803918 
L 118.938512 124.090797 
L 119.245893 123.73326 
L 119.144489 123.19793 
L 118.732536 123.375722 
L 118.425155 123.375722 
L 118.529727 123.73326 
L 118.631131 123.555468 
L 118.117774 122.482856 
L 118.117774 122.305064 
L 118.425155 122.127272 
L 119.965228 121.769734 
L 120.782798 121.412197 
L 121.70811 120.699076 
L 122.731657 120.161793 
L 127.754326 118.913342 
L 130.010566 118.913342 
L 132.469614 119.448672 
L 135.033235 120.161793 
L 137.904237 120.699076 
L 140.978047 121.05466 
L 144.055026 121.769734 
L 146.926028 122.840393 
L 149.692457 124.090797 
L 152.563459 125.518993 
L 155.637269 127.304727 
L 161.379273 130.161119 
L 164.044298 131.767107 
L 166.810727 133.732586 
L 169.681729 135.160782 
L 172.860112 136.231441 
L 176.038494 137.481845 
L 179.318281 138.910041 
L 182.496664 140.873566 
L 189.262215 145.515692 
L 192.643406 148.192338 
L 195.926362 151.228476 
L 199.206149 154.084868 
L 202.485936 156.763468 
L 212.223893 166.403303 
L 215.608253 169.261649 
L 218.786636 172.295833 
L 221.654469 175.687555 
L 227.190496 183.00828 
L 232.520546 188.721065 
L 235.084166 191.221873 
L 237.647787 193.89852 
L 240.106835 196.754912 
L 242.464479 199.968841 
L 246.257624 205.503834 
L 249.23003 209.788422 
L 250.770104 212.28923 
L 251.999628 215.145622 
L 255.073438 225.32274 
L 256.100154 229.607328 
L 256.302962 231.748646 
L 257.123701 237.463384 
L 257.022297 239.426909 
L 256.714916 242.461093 
L 256.714916 243.889289 
L 257.022297 246.567889 
L 256.714916 249.068698 
L 256.610343 250.317148 
L 256.920893 253.531078 
L 256.81632 254.601736 
L 256.920893 255.85214 
L 257.228274 256.922799 
L 257.329678 257.815666 
L 257.022297 260.316474 
L 257.123701 261.922462 
L 256.920893 262.457791 
L 256.81632 263.350658 
L 257.022297 264.421317 
L 257.329678 264.9586 
L 257.228274 265.314184 
L 256.508939 266.20705 
L 256.508939 266.74238 
L 256.81632 267.635246 
L 257.022297 268.707859 
L 256.920893 269.243188 
L 256.508939 270.136055 
L 256.610343 270.849176 
L 256.714916 271.564251 
L 256.920893 272.457118 
L 256.920893 272.457118 
L 256.508939 272.634909 
L 256.100154 273.348031 
L 255.995581 273.885314 
L 256.302962 274.240897 
L 256.714916 275.31351 
L 257.022297 276.026631 
L 257.022297 276.384168 
L 257.123701 275.491301 
L 257.228274 275.491301 
L 257.228274 275.848839 
L 257.022297 276.026631 
L 256.714916 275.669093 
L 256.714916 275.31351 
L 257.329678 276.741706 
L 257.329678 276.741706 
L 257.329678 276.026631 
L 257.637059 275.669093 
L 257.738463 275.848839 
L 257.431082 275.848839 
L 257.94444 275.133764 
L 257.738463 274.955972 
L 257.431082 275.133764 
L 257.228274 274.955972 
L 257.228274 275.133764 
L 257.535655 275.31351 
L 257.738463 274.955972 
L 257.94444 274.955972 
L 258.353225 275.31351 
L 258.353225 275.133764 
L 258.353225 274.420643 
L 258.251821 274.598435 
L 257.843036 275.133764 
L 258.150417 274.063105 
L 258.150417 273.885314 
L 257.94444 274.063105 
L 257.843036 274.420643 
L 258.251821 274.240897 
L 258.559202 273.885314 
L 258.559202 273.705568 
L 258.660606 273.705568 
L 258.866583 273.705568 
L 258.971156 273.170239 
L 259.173964 272.992447 
L 259.173964 272.812701 
L 259.07256 272.812701 
L 258.866583 272.812701 
L 258.866583 273.170239 
L 259.173964 273.170239 
L 258.971156 272.992447 
L 258.866583 271.384505 
L 259.07256 271.384505 
L 258.971156 271.564251 
L 258.559202 271.742043 
L 258.251821 271.742043 
L 258.559202 271.742043 
L 258.866583 271.564251 
L 258.971156 270.849176 
L 258.971156 271.206713 
L 258.765179 271.206713 
L 258.660606 271.028921 
L 258.866583 270.849176 
L 258.971156 271.028921 
L 258.971156 271.564251 
L 259.173964 271.564251 
L 259.585918 271.028921 
L 259.585918 270.671384 
L 259.278537 270.491638 
L 258.971156 270.671384 
L 259.07256 270.849176 
L 259.585918 270.849176 
L 259.585918 270.671384 
L 259.687322 271.564251 
L 259.481345 271.384505 
L 259.278537 271.206713 
L 258.765179 271.206713 
L 258.765179 271.028921 
L 259.585918 270.313847 
L 259.481345 271.206713 
L 259.07256 271.206713 
L 258.866583 270.849176 
L 258.971156 270.313847 
L 258.971156 270.849176 
L 259.173964 270.671384 
L 259.07256 271.028921 
L 258.765179 270.671384 
L 258.866583 270.671384 
L 259.07256 270.491638 
L 259.278537 270.491638 
L 258.765179 271.384505 
L 258.971156 271.206713 
L 258.765179 271.028921 
L 258.559202 271.028921 
L 258.660606 271.206713 
L 259.07256 271.206713 
L 259.07256 271.028921 
L 258.660606 270.849176 
L 258.251821 270.849176 
L 258.251821 271.206713 
L 258.559202 271.206713 
L 258.765179 271.028921 
L 258.660606 271.206713 
L 258.559202 271.384505 
L 258.559202 271.206713 
L 258.765179 270.671384 
L 258.866583 270.849176 
L 258.765179 270.671384 
L 258.866583 269.778517 
L 258.866583 269.778517 
L 258.353225 270.136055 
L 258.251821 270.313847 
L 258.457798 270.491638 
L 258.660606 270.491638 
L 259.173964 270.136055 
L 258.765179 269.778517 
L 258.866583 269.956309 
L 258.765179 269.956309 
L 259.07256 269.243188 
L 259.278537 269.243188 
L 259.173964 269.598772 
L 258.971156 269.778517 
L 258.660606 269.598772 
L 258.660606 269.42098 
L 258.765179 269.778517 
L 258.866583 270.671384 
L 258.765179 270.671384 
L 258.765179 270.491638 
L 258.660606 270.491638 
L 258.457798 270.491638 
L 258.353225 270.313847 
L 259.07256 269.778517 
L 259.585918 269.42098 
L 259.07256 268.707859 
L 258.866583 269.243188 
L 258.971156 269.243188 
L 259.173964 268.885651 
L 259.173964 269.063442 
L 259.278537 269.063442 
L 259.278537 269.063442 
L 259.173964 269.42098 
L 259.278537 269.243188 
L 259.585918 268.707859 
L 259.585918 268.350321 
L 259.379941 268.350321 
L 258.660606 268.707859 
L 258.660606 268.707859 
L 259.481345 268.707859 
L 259.687322 268.885651 
L 259.687322 269.063442 
L 259.893299 269.243188 
L 260.302084 268.885651 
L 260.096107 268.885651 
L 259.994703 268.528113 
L 260.20068 268.170576 
L 260.302084 268.170576 
L 260.20068 268.350321 
L 260.403488 268.707859 
L 260.302084 268.528113 
L 260.815442 268.170576 
L 260.609465 268.350321 
L 260.403488 269.063442 
L 260.20068 269.063442 
L 260.815442 268.707859 
L 261.01825 268.170576 
L 261.01825 268.170576 
L 261.122823 268.350321 
L 261.224227 269.063442 
L 261.430204 268.707859 
L 261.3288 268.528113 
L 261.531608 268.885651 
L 261.430204 268.885651 
L 261.430204 269.243188 
L 261.531608 269.243188 
L 261.636181 268.350321 
L 261.430204 268.350321 
L 261.430204 268.528113 
L 261.531608 268.350321 
L 261.838989 268.350321 
L 261.943562 268.707859 
L 261.838989 268.885651 
L 262.14637 268.528113 
L 262.044966 268.707859 
L 261.943562 269.598772 
L 261.838989 269.598772 
L 261.636181 269.42098 
L 261.636181 269.243188 
L 261.838989 269.42098 
L 262.14637 269.42098 
L 262.352347 269.063442 
L 262.453751 269.243188 
L 262.250943 269.243188 
L 262.250943 269.243188 
" style="fill:none;stroke:#1f77b4;stroke-linecap:square;stroke-width:1.5;"/>
   </g>
   <g id="matplotlib.axis_1">
    <g id="xtick_1">
     <g id="line2d_2">
      <defs>
       <path d="M 0 0 
L 0 3.5 
" id="mf1efadb36b" style="stroke:#000000;stroke-width:0.8;"/>
      </defs>
      <g>
       <use style="stroke:#000000;stroke-width:0.8;" x="61.052649" xlink:href="#mf1efadb36b" y="307.584"/>
      </g>
     </g>
     <g id="text_1">
      <!-- −400 -->
      <defs>
       <path d="M 10.59375 35.5 
L 73.1875 35.5 
L 73.1875 27.203125 
L 10.59375 27.203125 
z
" id="DejaVuSans-8722"/>
       <path d="M 37.796875 64.3125 
L 12.890625 25.390625 
L 37.796875 25.390625 
z
M 35.203125 72.90625 
L 47.609375 72.90625 
L 47.609375 25.390625 
L 58.015625 25.390625 
L 58.015625 17.1875 
L 47.609375 17.1875 
L 47.609375 0 
L 37.796875 0 
L 37.796875 17.1875 
L 4.890625 17.1875 
L 4.890625 26.703125 
z
" id="DejaVuSans-52"/>
       <path d="M 31.78125 66.40625 
Q 24.171875 66.40625 20.328125 58.90625 
Q 16.5 51.421875 16.5 36.375 
Q 16.5 21.390625 20.328125 13.890625 
Q 24.171875 6.390625 31.78125 6.390625 
Q 39.453125 6.390625 43.28125 13.890625 
Q 47.125 21.390625 47.125 36.375 
Q 47.125 51.421875 43.28125 58.90625 
Q 39.453125 66.40625 31.78125 66.40625 
z
M 31.78125 74.21875 
Q 44.046875 74.21875 50.515625 64.515625 
Q 56.984375 54.828125 56.984375 36.375 
Q 56.984375 17.96875 50.515625 8.265625 
Q 44.046875 -1.421875 31.78125 -1.421875 
Q 19.53125 -1.421875 13.0625 8.265625 
Q 6.59375 17.96875 6.59375 36.375 
Q 6.59375 54.828125 13.0625 64.515625 
Q 19.53125 74.21875 31.78125 74.21875 
z
" id="DejaVuSans-48"/>
      </defs>
      <g transform="translate(47.319055 322.182437)scale(0.1 -0.1)">
       <use xlink:href="#DejaVuSans-8722"/>
       <use x="83.789062" xlink:href="#DejaVuSans-52"/>
       <use x="147.412109" xlink:href="#DejaVuSans-48"/>
       <use x="211.035156" xlink:href="#DejaVuSans-48"/>
      </g>
     </g>
    </g>
    <g id="xtick_2">
     <g id="line2d_3">
      <g>
       <use style="stroke:#000000;stroke-width:0.8;" x="124.430175" xlink:href="#mf1efadb36b" y="307.584"/>
      </g>
     </g>
     <g id="text_2">
      <!-- −200 -->
      <defs>
       <path d="M 19.1875 8.296875 
L 53.609375 8.296875 
L 53.609375 0 
L 7.328125 0 
L 7.328125 8.296875 
Q 12.9375 14.109375 22.625 23.890625 
Q 32.328125 33.6875 34.8125 36.53125 
Q 39.546875 41.84375 41.421875 45.53125 
Q 43.3125 49.21875 43.3125 52.78125 
Q 43.3125 58.59375 39.234375 62.25 
Q 35.15625 65.921875 28.609375 65.921875 
Q 23.96875 65.921875 18.8125 64.3125 
Q 13.671875 62.703125 7.8125 59.421875 
L 7.8125 69.390625 
Q 13.765625 71.78125 18.9375 73 
Q 24.125 74.21875 28.421875 74.21875 
Q 39.75 74.21875 46.484375 68.546875 
Q 53.21875 62.890625 53.21875 53.421875 
Q 53.21875 48.921875 51.53125 44.890625 
Q 49.859375 40.875 45.40625 35.40625 
Q 44.1875 33.984375 37.640625 27.21875 
Q 31.109375 20.453125 19.1875 8.296875 
z
" id="DejaVuSans-50"/>
      </defs>
      <g transform="translate(110.696581 322.182437)scale(0.1 -0.1)">
       <use xlink:href="#DejaVuSans-8722"/>
       <use x="83.789062" xlink:href="#DejaVuSans-50"/>
       <use x="147.412109" xlink:href="#DejaVuSans-48"/>
       <use x="211.035156" xlink:href="#DejaVuSans-48"/>
      </g>
     </g>
    </g>
    <g id="xtick_3">
     <g id="line2d_4">
      <g>
       <use style="stroke:#000000;stroke-width:0.8;" x="187.807701" xlink:href="#mf1efadb36b" y="307.584"/>
      </g>
     </g>
     <g id="text_3">
      <!-- 0 -->
      <g transform="translate(184.626451 322.182437)scale(0.1 -0.1)">
       <use xlink:href="#DejaVuSans-48"/>
      </g>
     </g>
    </g>
    <g id="xtick_4">
     <g id="line2d_5">
      <g>
       <use style="stroke:#000000;stroke-width:0.8;" x="251.185227" xlink:href="#mf1efadb36b" y="307.584"/>
      </g>
     </g>
     <g id="text_4">
      <!-- 200 -->
      <g transform="translate(241.641477 322.182437)scale(0.1 -0.1)">
       <use xlink:href="#DejaVuSans-50"/>
       <use x="63.623047" xlink:href="#DejaVuSans-48"/>
       <use x="127.246094" xlink:href="#DejaVuSans-48"/>
      </g>
     </g>
    </g>
    <g id="xtick_5">
     <g id="line2d_6">
      <g>
       <use style="stroke:#000000;stroke-width:0.8;" x="314.562753" xlink:href="#mf1efadb36b" y="307.584"/>
      </g>
     </g>
     <g id="text_5">
      <!-- 400 -->
      <g transform="translate(305.019003 322.182437)scale(0.1 -0.1)">
       <use xlink:href="#DejaVuSans-52"/>
       <use x="63.623047" xlink:href="#DejaVuSans-48"/>
       <use x="127.246094" xlink:href="#DejaVuSans-48"/>
      </g>
     </g>
    </g>
    <g id="xtick_6">
     <g id="line2d_7">
      <g>
       <use style="stroke:#000000;stroke-width:0.8;" x="377.940279" xlink:href="#mf1efadb36b" y="307.584"/>
      </g>
     </g>
     <g id="text_6">
      <!-- 600 -->
      <defs>
       <path d="M 33.015625 40.375 
Q 26.375 40.375 22.484375 35.828125 
Q 18.609375 31.296875 18.609375 23.390625 
Q 18.609375 15.53125 22.484375 10.953125 
Q 26.375 6.390625 33.015625 6.390625 
Q 39.65625 6.390625 43.53125 10.953125 
Q 47.40625 15.53125 47.40625 23.390625 
Q 47.40625 31.296875 43.53125 35.828125 
Q 39.65625 40.375 33.015625 40.375 
z
M 52.59375 71.296875 
L 52.59375 62.3125 
Q 48.875 64.0625 45.09375 64.984375 
Q 41.3125 65.921875 37.59375 65.921875 
Q 27.828125 65.921875 22.671875 59.328125 
Q 17.53125 52.734375 16.796875 39.40625 
Q 19.671875 43.65625 24.015625 45.921875 
Q 28.375 48.1875 33.59375 48.1875 
Q 44.578125 48.1875 50.953125 41.515625 
Q 57.328125 34.859375 57.328125 23.390625 
Q 57.328125 12.15625 50.6875 5.359375 
Q 44.046875 -1.421875 33.015625 -1.421875 
Q 20.359375 -1.421875 13.671875 8.265625 
Q 6.984375 17.96875 6.984375 36.375 
Q 6.984375 53.65625 15.1875 63.9375 
Q 23.390625 74.21875 37.203125 74.21875 
Q 40.921875 74.21875 44.703125 73.484375 
Q 48.484375 72.75 52.59375 71.296875 
z
" id="DejaVuSans-54"/>
      </defs>
      <g transform="translate(368.396529 322.182437)scale(0.1 -0.1)">
       <use xlink:href="#DejaVuSans-54"/>
       <use x="63.623047" xlink:href="#DejaVuSans-48"/>
       <use x="127.246094" xlink:href="#DejaVuSans-48"/>
      </g>
     </g>
    </g>
   </g>
   <g id="matplotlib.axis_2">
    <g id="ytick_1">
     <g id="line2d_8">
      <defs>
       <path d="M 0 0 
L -3.5 0 
" id="m33ad62ebad" style="stroke:#000000;stroke-width:0.8;"/>
      </defs>
      <g>
       <use style="stroke:#000000;stroke-width:0.8;" x="57.6" xlink:href="#m33ad62ebad" y="280.082629"/>
      </g>
     </g>
     <g id="text_7">
      <!-- −400 -->
      <g transform="translate(23.132812 283.881848)scale(0.1 -0.1)">
       <use xlink:href="#DejaVuSans-8722"/>
       <use x="83.789062" xlink:href="#DejaVuSans-52"/>
       <use x="147.412109" xlink:href="#DejaVuSans-48"/>
       <use x="211.035156" xlink:href="#DejaVuSans-48"/>
      </g>
     </g>
    </g>
    <g id="ytick_2">
     <g id="line2d_9">
      <g>
       <use style="stroke:#000000;stroke-width:0.8;" x="57.6" xlink:href="#m33ad62ebad" y="241.007498"/>
      </g>
     </g>
     <g id="text_8">
      <!-- −200 -->
      <g transform="translate(23.132812 244.806717)scale(0.1 -0.1)">
       <use xlink:href="#DejaVuSans-8722"/>
       <use x="83.789062" xlink:href="#DejaVuSans-50"/>
       <use x="147.412109" xlink:href="#DejaVuSans-48"/>
       <use x="211.035156" xlink:href="#DejaVuSans-48"/>
      </g>
     </g>
    </g>
    <g id="ytick_3">
     <g id="line2d_10">
      <g>
       <use style="stroke:#000000;stroke-width:0.8;" x="57.6" xlink:href="#m33ad62ebad" y="201.932367"/>
      </g>
     </g>
     <g id="text_9">
      <!-- 0 -->
      <g transform="translate(44.2375 205.731585)scale(0.1 -0.1)">
       <use xlink:href="#DejaVuSans-48"/>
      </g>
     </g>
    </g>
    <g id="ytick_4">
     <g id="line2d_11">
      <g>
       <use style="stroke:#000000;stroke-width:0.8;" x="57.6" xlink:href="#m33ad62ebad" y="162.857235"/>
      </g>
     </g>
     <g id="text_10">
      <!-- 200 -->
      <g transform="translate(31.5125 166.656454)scale(0.1 -0.1)">
       <use xlink:href="#DejaVuSans-50"/>
       <use x="63.623047" xlink:href="#DejaVuSans-48"/>
       <use x="127.246094" xlink:href="#DejaVuSans-48"/>
      </g>
     </g>
    </g>
    <g id="ytick_5">
     <g id="line2d_12">
      <g>
       <use style="stroke:#000000;stroke-width:0.8;" x="57.6" xlink:href="#m33ad62ebad" y="123.782104"/>
      </g>
     </g>
     <g id="text_11">
      <!-- 400 -->
      <g transform="translate(31.5125 127.581322)scale(0.1 -0.1)">
       <use xlink:href="#DejaVuSans-52"/>
       <use x="63.623047" xlink:href="#DejaVuSans-48"/>
       <use x="127.246094" xlink:href="#DejaVuSans-48"/>
      </g>
     </g>
    </g>
    <g id="ytick_6">
     <g id="line2d_13">
      <g>
       <use style="stroke:#000000;stroke-width:0.8;" x="57.6" xlink:href="#m33ad62ebad" y="84.706972"/>
      </g>
     </g>
     <g id="text_12">
      <!-- 600 -->
      <g transform="translate(31.5125 88.506191)scale(0.1 -0.1)">
       <use xlink:href="#DejaVuSans-54"/>
       <use x="63.623047" xlink:href="#DejaVuSans-48"/>
       <use x="127.246094" xlink:href="#DejaVuSans-48"/>
      </g>
     </g>
    </g>
    <g id="ytick_7">
     <g id="line2d_14">
      <g>
       <use style="stroke:#000000;stroke-width:0.8;" x="57.6" xlink:href="#m33ad62ebad" y="45.631841"/>
      </g>
     </g>
     <g id="text_13">
      <!-- 800 -->
      <defs>
       <path d="M 31.78125 34.625 
Q 24.75 34.625 20.71875 30.859375 
Q 16.703125 27.09375 16.703125 20.515625 
Q 16.703125 13.921875 20.71875 10.15625 
Q 24.75 6.390625 31.78125 6.390625 
Q 38.8125 6.390625 42.859375 10.171875 
Q 46.921875 13.96875 46.921875 20.515625 
Q 46.921875 27.09375 42.890625 30.859375 
Q 38.875 34.625 31.78125 34.625 
z
M 21.921875 38.8125 
Q 15.578125 40.375 12.03125 44.71875 
Q 8.5 49.078125 8.5 55.328125 
Q 8.5 64.0625 14.71875 69.140625 
Q 20.953125 74.21875 31.78125 74.21875 
Q 42.671875 74.21875 48.875 69.140625 
Q 55.078125 64.0625 55.078125 55.328125 
Q 55.078125 49.078125 51.53125 44.71875 
Q 48 40.375 41.703125 38.8125 
Q 48.828125 37.15625 52.796875 32.3125 
Q 56.78125 27.484375 56.78125 20.515625 
Q 56.78125 9.90625 50.3125 4.234375 
Q 43.84375 -1.421875 31.78125 -1.421875 
Q 19.734375 -1.421875 13.25 4.234375 
Q 6.78125 9.90625 6.78125 20.515625 
Q 6.78125 27.484375 10.78125 32.3125 
Q 14.796875 37.15625 21.921875 38.8125 
z
M 18.3125 54.390625 
Q 18.3125 48.734375 21.84375 45.5625 
Q 25.390625 42.390625 31.78125 42.390625 
Q 38.140625 42.390625 41.71875 45.5625 
Q 45.3125 48.734375 45.3125 54.390625 
Q 45.3125 60.0625 41.71875 63.234375 
Q 38.140625 66.40625 31.78125 66.40625 
Q 25.390625 66.40625 21.84375 63.234375 
Q 18.3125 60.0625 18.3125 54.390625 
z
" id="DejaVuSans-56"/>
      </defs>
      <g transform="translate(31.5125 49.43106)scale(0.1 -0.1)">
       <use xlink:href="#DejaVuSans-56"/>
       <use x="63.623047" xlink:href="#DejaVuSans-48"/>
       <use x="127.246094" xlink:href="#DejaVuSans-48"/>
      </g>
     </g>
    </g>
   </g>
   <g id="line2d_15">
    <path clip-path="url(#pb45a036416)" d="M 394.332982 59.714072 
L 209.842642 143.996967 
L 181.47913 217.000856 
L 75.818721 273.953961 
L 75.316531 288.34125 
L 117.989998 120.775521 
L 257.20823 266.879034 
L 259.647777 269.972603 
" style="fill:none;stroke:#ff0000;stroke-linecap:square;stroke-width:0.5;"/>
   </g>
   <g id="patch_3">
    <path d="M 57.6 307.584 
L 57.6 41.472 
" style="fill:none;stroke:#000000;stroke-linecap:square;stroke-linejoin:miter;stroke-width:0.8;"/>
   </g>
   <g id="patch_4">
    <path d="M 414.72 307.584 
L 414.72 41.472 
" style="fill:none;stroke:#000000;stroke-linecap:square;stroke-linejoin:miter;stroke-width:0.8;"/>
   </g>
   <g id="patch_5">
    <path d="M 57.6 307.584 
L 414.72 307.584 
" style="fill:none;stroke:#000000;stroke-linecap:square;stroke-linejoin:miter;stroke-width:0.8;"/>
   </g>
   <g id="patch_6">
    <path d="M 57.6 41.472 
L 414.72 41.472 
" style="fill:none;stroke:#000000;stroke-linecap:square;stroke-linejoin:miter;stroke-width:0.8;"/>
   </g>
   <g id="PathCollection_1">
    <defs>
     <path d="M 0 2.738613 
C 0.726289 2.738613 1.422928 2.450055 1.936492 1.936492 
C 2.450055 1.422928 2.738613 0.726289 2.738613 0 
C 2.738613 -0.726289 2.450055 -1.422928 1.936492 -1.936492 
C 1.422928 -2.450055 0.726289 -2.738613 0 -2.738613 
C -0.726289 -2.738613 -1.422928 -2.450055 -1.936492 -1.936492 
C -2.450055 -1.422928 -2.738613 -0.726289 -2.738613 0 
C -2.738613 0.726289 -2.450055 1.422928 -1.936492 1.936492 
C -1.422928 2.450055 -0.726289 2.738613 0 2.738613 
z
" id="m986751d358" style="stroke:#ff0000;"/>
    </defs>
    <g clip-path="url(#pb45a036416)">
     <use style="fill:#ff0000;stroke:#ff0000;" x="394.332982" xlink:href="#m986751d358" y="59.714072"/>
     <use style="fill:#ff0000;stroke:#ff0000;" x="209.842642" xlink:href="#m986751d358" y="143.996967"/>
     <use style="fill:#ff0000;stroke:#ff0000;" x="181.47913" xlink:href="#m986751d358" y="217.000856"/>
     <use style="fill:#ff0000;stroke:#ff0000;" x="75.818721" xlink:href="#m986751d358" y="273.953961"/>
     <use style="fill:#ff0000;stroke:#ff0000;" x="75.316531" xlink:href="#m986751d358" y="288.34125"/>
     <use style="fill:#ff0000;stroke:#ff0000;" x="117.989998" xlink:href="#m986751d358" y="120.775521"/>
     <use style="fill:#ff0000;stroke:#ff0000;" x="257.20823" xlink:href="#m986751d358" y="266.879034"/>
     <use style="fill:#ff0000;stroke:#ff0000;" x="259.647777" xlink:href="#m986751d358" y="269.972603"/>
    </g>
   </g>
   <g id="text_14">
    <!-- (141) Subject: s27, Known = True, Degree = 2, Duration = 0.1 -->
    <defs>
     <path d="M 31 75.875 
Q 24.46875 64.65625 21.28125 53.65625 
Q 18.109375 42.671875 18.109375 31.390625 
Q 18.109375 20.125 21.3125 9.0625 
Q 24.515625 -2 31 -13.1875 
L 23.1875 -13.1875 
Q 15.875 -1.703125 12.234375 9.375 
Q 8.59375 20.453125 8.59375 31.390625 
Q 8.59375 42.28125 12.203125 53.3125 
Q 15.828125 64.359375 23.1875 75.875 
z
" id="DejaVuSans-40"/>
     <path d="M 12.40625 8.296875 
L 28.515625 8.296875 
L 28.515625 63.921875 
L 10.984375 60.40625 
L 10.984375 69.390625 
L 28.421875 72.90625 
L 38.28125 72.90625 
L 38.28125 8.296875 
L 54.390625 8.296875 
L 54.390625 0 
L 12.40625 0 
z
" id="DejaVuSans-49"/>
     <path d="M 8.015625 75.875 
L 15.828125 75.875 
Q 23.140625 64.359375 26.78125 53.3125 
Q 30.421875 42.28125 30.421875 31.390625 
Q 30.421875 20.453125 26.78125 9.375 
Q 23.140625 -1.703125 15.828125 -13.1875 
L 8.015625 -13.1875 
Q 14.5 -2 17.703125 9.0625 
Q 20.90625 20.125 20.90625 31.390625 
Q 20.90625 42.671875 17.703125 53.65625 
Q 14.5 64.65625 8.015625 75.875 
z
" id="DejaVuSans-41"/>
     <path id="DejaVuSans-32"/>
     <path d="M 53.515625 70.515625 
L 53.515625 60.890625 
Q 47.90625 63.578125 42.921875 64.890625 
Q 37.9375 66.21875 33.296875 66.21875 
Q 25.25 66.21875 20.875 63.09375 
Q 16.5 59.96875 16.5 54.203125 
Q 16.5 49.359375 19.40625 46.890625 
Q 22.3125 44.4375 30.421875 42.921875 
L 36.375 41.703125 
Q 47.40625 39.59375 52.65625 34.296875 
Q 57.90625 29 57.90625 20.125 
Q 57.90625 9.515625 50.796875 4.046875 
Q 43.703125 -1.421875 29.984375 -1.421875 
Q 24.8125 -1.421875 18.96875 -0.25 
Q 13.140625 0.921875 6.890625 3.21875 
L 6.890625 13.375 
Q 12.890625 10.015625 18.65625 8.296875 
Q 24.421875 6.59375 29.984375 6.59375 
Q 38.421875 6.59375 43.015625 9.90625 
Q 47.609375 13.234375 47.609375 19.390625 
Q 47.609375 24.75 44.3125 27.78125 
Q 41.015625 30.8125 33.5 32.328125 
L 27.484375 33.5 
Q 16.453125 35.6875 11.515625 40.375 
Q 6.59375 45.0625 6.59375 53.421875 
Q 6.59375 63.09375 13.40625 68.65625 
Q 20.21875 74.21875 32.171875 74.21875 
Q 37.3125 74.21875 42.625 73.28125 
Q 47.953125 72.359375 53.515625 70.515625 
z
" id="DejaVuSans-83"/>
     <path d="M 8.5 21.578125 
L 8.5 54.6875 
L 17.484375 54.6875 
L 17.484375 21.921875 
Q 17.484375 14.15625 20.5 10.265625 
Q 23.53125 6.390625 29.59375 6.390625 
Q 36.859375 6.390625 41.078125 11.03125 
Q 45.3125 15.671875 45.3125 23.6875 
L 45.3125 54.6875 
L 54.296875 54.6875 
L 54.296875 0 
L 45.3125 0 
L 45.3125 8.40625 
Q 42.046875 3.421875 37.71875 1 
Q 33.40625 -1.421875 27.6875 -1.421875 
Q 18.265625 -1.421875 13.375 4.4375 
Q 8.5 10.296875 8.5 21.578125 
z
M 31.109375 56 
z
" id="DejaVuSans-117"/>
     <path d="M 48.6875 27.296875 
Q 48.6875 37.203125 44.609375 42.84375 
Q 40.53125 48.484375 33.40625 48.484375 
Q 26.265625 48.484375 22.1875 42.84375 
Q 18.109375 37.203125 18.109375 27.296875 
Q 18.109375 17.390625 22.1875 11.75 
Q 26.265625 6.109375 33.40625 6.109375 
Q 40.53125 6.109375 44.609375 11.75 
Q 48.6875 17.390625 48.6875 27.296875 
z
M 18.109375 46.390625 
Q 20.953125 51.265625 25.265625 53.625 
Q 29.59375 56 35.59375 56 
Q 45.5625 56 51.78125 48.09375 
Q 58.015625 40.1875 58.015625 27.296875 
Q 58.015625 14.40625 51.78125 6.484375 
Q 45.5625 -1.421875 35.59375 -1.421875 
Q 29.59375 -1.421875 25.265625 0.953125 
Q 20.953125 3.328125 18.109375 8.203125 
L 18.109375 0 
L 9.078125 0 
L 9.078125 75.984375 
L 18.109375 75.984375 
z
" id="DejaVuSans-98"/>
     <path d="M 9.421875 54.6875 
L 18.40625 54.6875 
L 18.40625 -0.984375 
Q 18.40625 -11.421875 14.421875 -16.109375 
Q 10.453125 -20.796875 1.609375 -20.796875 
L -1.8125 -20.796875 
L -1.8125 -13.1875 
L 0.59375 -13.1875 
Q 5.71875 -13.1875 7.5625 -10.8125 
Q 9.421875 -8.453125 9.421875 -0.984375 
z
M 9.421875 75.984375 
L 18.40625 75.984375 
L 18.40625 64.59375 
L 9.421875 64.59375 
z
" id="DejaVuSans-106"/>
     <path d="M 56.203125 29.59375 
L 56.203125 25.203125 
L 14.890625 25.203125 
Q 15.484375 15.921875 20.484375 11.0625 
Q 25.484375 6.203125 34.421875 6.203125 
Q 39.59375 6.203125 44.453125 7.46875 
Q 49.3125 8.734375 54.109375 11.28125 
L 54.109375 2.78125 
Q 49.265625 0.734375 44.1875 -0.34375 
Q 39.109375 -1.421875 33.890625 -1.421875 
Q 20.796875 -1.421875 13.15625 6.1875 
Q 5.515625 13.8125 5.515625 26.8125 
Q 5.515625 40.234375 12.765625 48.109375 
Q 20.015625 56 32.328125 56 
Q 43.359375 56 49.78125 48.890625 
Q 56.203125 41.796875 56.203125 29.59375 
z
M 47.21875 32.234375 
Q 47.125 39.59375 43.09375 43.984375 
Q 39.0625 48.390625 32.421875 48.390625 
Q 24.90625 48.390625 20.390625 44.140625 
Q 15.875 39.890625 15.1875 32.171875 
z
" id="DejaVuSans-101"/>
     <path d="M 48.78125 52.59375 
L 48.78125 44.1875 
Q 44.96875 46.296875 41.140625 47.34375 
Q 37.3125 48.390625 33.40625 48.390625 
Q 24.65625 48.390625 19.8125 42.84375 
Q 14.984375 37.3125 14.984375 27.296875 
Q 14.984375 17.28125 19.8125 11.734375 
Q 24.65625 6.203125 33.40625 6.203125 
Q 37.3125 6.203125 41.140625 7.25 
Q 44.96875 8.296875 48.78125 10.40625 
L 48.78125 2.09375 
Q 45.015625 0.34375 40.984375 -0.53125 
Q 36.96875 -1.421875 32.421875 -1.421875 
Q 20.0625 -1.421875 12.78125 6.34375 
Q 5.515625 14.109375 5.515625 27.296875 
Q 5.515625 40.671875 12.859375 48.328125 
Q 20.21875 56 33.015625 56 
Q 37.15625 56 41.109375 55.140625 
Q 45.0625 54.296875 48.78125 52.59375 
z
" id="DejaVuSans-99"/>
     <path d="M 18.3125 70.21875 
L 18.3125 54.6875 
L 36.8125 54.6875 
L 36.8125 47.703125 
L 18.3125 47.703125 
L 18.3125 18.015625 
Q 18.3125 11.328125 20.140625 9.421875 
Q 21.96875 7.515625 27.59375 7.515625 
L 36.8125 7.515625 
L 36.8125 0 
L 27.59375 0 
Q 17.1875 0 13.234375 3.875 
Q 9.28125 7.765625 9.28125 18.015625 
L 9.28125 47.703125 
L 2.6875 47.703125 
L 2.6875 54.6875 
L 9.28125 54.6875 
L 9.28125 70.21875 
z
" id="DejaVuSans-116"/>
     <path d="M 11.71875 12.40625 
L 22.015625 12.40625 
L 22.015625 0 
L 11.71875 0 
z
M 11.71875 51.703125 
L 22.015625 51.703125 
L 22.015625 39.3125 
L 11.71875 39.3125 
z
" id="DejaVuSans-58"/>
     <path d="M 44.28125 53.078125 
L 44.28125 44.578125 
Q 40.484375 46.53125 36.375 47.5 
Q 32.28125 48.484375 27.875 48.484375 
Q 21.1875 48.484375 17.84375 46.4375 
Q 14.5 44.390625 14.5 40.28125 
Q 14.5 37.15625 16.890625 35.375 
Q 19.28125 33.59375 26.515625 31.984375 
L 29.59375 31.296875 
Q 39.15625 29.25 43.1875 25.515625 
Q 47.21875 21.78125 47.21875 15.09375 
Q 47.21875 7.46875 41.1875 3.015625 
Q 35.15625 -1.421875 24.609375 -1.421875 
Q 20.21875 -1.421875 15.453125 -0.5625 
Q 10.6875 0.296875 5.421875 2 
L 5.421875 11.28125 
Q 10.40625 8.6875 15.234375 7.390625 
Q 20.0625 6.109375 24.8125 6.109375 
Q 31.15625 6.109375 34.5625 8.28125 
Q 37.984375 10.453125 37.984375 14.40625 
Q 37.984375 18.0625 35.515625 20.015625 
Q 33.0625 21.96875 24.703125 23.78125 
L 21.578125 24.515625 
Q 13.234375 26.265625 9.515625 29.90625 
Q 5.8125 33.546875 5.8125 39.890625 
Q 5.8125 47.609375 11.28125 51.796875 
Q 16.75 56 26.8125 56 
Q 31.78125 56 36.171875 55.265625 
Q 40.578125 54.546875 44.28125 53.078125 
z
" id="DejaVuSans-115"/>
     <path d="M 8.203125 72.90625 
L 55.078125 72.90625 
L 55.078125 68.703125 
L 28.609375 0 
L 18.3125 0 
L 43.21875 64.59375 
L 8.203125 64.59375 
z
" id="DejaVuSans-55"/>
     <path d="M 11.71875 12.40625 
L 22.015625 12.40625 
L 22.015625 4 
L 14.015625 -11.625 
L 7.71875 -11.625 
L 11.71875 4 
z
" id="DejaVuSans-44"/>
     <path d="M 9.8125 72.90625 
L 19.671875 72.90625 
L 19.671875 42.09375 
L 52.390625 72.90625 
L 65.09375 72.90625 
L 28.90625 38.921875 
L 67.671875 0 
L 54.6875 0 
L 19.671875 35.109375 
L 19.671875 0 
L 9.8125 0 
z
" id="DejaVuSans-75"/>
     <path d="M 54.890625 33.015625 
L 54.890625 0 
L 45.90625 0 
L 45.90625 32.71875 
Q 45.90625 40.484375 42.875 44.328125 
Q 39.84375 48.1875 33.796875 48.1875 
Q 26.515625 48.1875 22.3125 43.546875 
Q 18.109375 38.921875 18.109375 30.90625 
L 18.109375 0 
L 9.078125 0 
L 9.078125 54.6875 
L 18.109375 54.6875 
L 18.109375 46.1875 
Q 21.34375 51.125 25.703125 53.5625 
Q 30.078125 56 35.796875 56 
Q 45.21875 56 50.046875 50.171875 
Q 54.890625 44.34375 54.890625 33.015625 
z
" id="DejaVuSans-110"/>
     <path d="M 30.609375 48.390625 
Q 23.390625 48.390625 19.1875 42.75 
Q 14.984375 37.109375 14.984375 27.296875 
Q 14.984375 17.484375 19.15625 11.84375 
Q 23.34375 6.203125 30.609375 6.203125 
Q 37.796875 6.203125 41.984375 11.859375 
Q 46.1875 17.53125 46.1875 27.296875 
Q 46.1875 37.015625 41.984375 42.703125 
Q 37.796875 48.390625 30.609375 48.390625 
z
M 30.609375 56 
Q 42.328125 56 49.015625 48.375 
Q 55.71875 40.765625 55.71875 27.296875 
Q 55.71875 13.875 49.015625 6.21875 
Q 42.328125 -1.421875 30.609375 -1.421875 
Q 18.84375 -1.421875 12.171875 6.21875 
Q 5.515625 13.875 5.515625 27.296875 
Q 5.515625 40.765625 12.171875 48.375 
Q 18.84375 56 30.609375 56 
z
" id="DejaVuSans-111"/>
     <path d="M 4.203125 54.6875 
L 13.1875 54.6875 
L 24.421875 12.015625 
L 35.59375 54.6875 
L 46.1875 54.6875 
L 57.421875 12.015625 
L 68.609375 54.6875 
L 77.59375 54.6875 
L 63.28125 0 
L 52.6875 0 
L 40.921875 44.828125 
L 29.109375 0 
L 18.5 0 
z
" id="DejaVuSans-119"/>
     <path d="M 10.59375 45.40625 
L 73.1875 45.40625 
L 73.1875 37.203125 
L 10.59375 37.203125 
z
M 10.59375 25.484375 
L 73.1875 25.484375 
L 73.1875 17.1875 
L 10.59375 17.1875 
z
" id="DejaVuSans-61"/>
     <path d="M -0.296875 72.90625 
L 61.375 72.90625 
L 61.375 64.59375 
L 35.5 64.59375 
L 35.5 0 
L 25.59375 0 
L 25.59375 64.59375 
L -0.296875 64.59375 
z
" id="DejaVuSans-84"/>
     <path d="M 41.109375 46.296875 
Q 39.59375 47.171875 37.8125 47.578125 
Q 36.03125 48 33.890625 48 
Q 26.265625 48 22.1875 43.046875 
Q 18.109375 38.09375 18.109375 28.8125 
L 18.109375 0 
L 9.078125 0 
L 9.078125 54.6875 
L 18.109375 54.6875 
L 18.109375 46.1875 
Q 20.953125 51.171875 25.484375 53.578125 
Q 30.03125 56 36.53125 56 
Q 37.453125 56 38.578125 55.875 
Q 39.703125 55.765625 41.0625 55.515625 
z
" id="DejaVuSans-114"/>
     <path d="M 19.671875 64.796875 
L 19.671875 8.109375 
L 31.59375 8.109375 
Q 46.6875 8.109375 53.6875 14.9375 
Q 60.6875 21.78125 60.6875 36.53125 
Q 60.6875 51.171875 53.6875 57.984375 
Q 46.6875 64.796875 31.59375 64.796875 
z
M 9.8125 72.90625 
L 30.078125 72.90625 
Q 51.265625 72.90625 61.171875 64.09375 
Q 71.09375 55.28125 71.09375 36.53125 
Q 71.09375 17.671875 61.125 8.828125 
Q 51.171875 0 30.078125 0 
L 9.8125 0 
z
" id="DejaVuSans-68"/>
     <path d="M 45.40625 27.984375 
Q 45.40625 37.75 41.375 43.109375 
Q 37.359375 48.484375 30.078125 48.484375 
Q 22.859375 48.484375 18.828125 43.109375 
Q 14.796875 37.75 14.796875 27.984375 
Q 14.796875 18.265625 18.828125 12.890625 
Q 22.859375 7.515625 30.078125 7.515625 
Q 37.359375 7.515625 41.375 12.890625 
Q 45.40625 18.265625 45.40625 27.984375 
z
M 54.390625 6.78125 
Q 54.390625 -7.171875 48.1875 -13.984375 
Q 42 -20.796875 29.203125 -20.796875 
Q 24.46875 -20.796875 20.265625 -20.09375 
Q 16.0625 -19.390625 12.109375 -17.921875 
L 12.109375 -9.1875 
Q 16.0625 -11.328125 19.921875 -12.34375 
Q 23.78125 -13.375 27.78125 -13.375 
Q 36.625 -13.375 41.015625 -8.765625 
Q 45.40625 -4.15625 45.40625 5.171875 
L 45.40625 9.625 
Q 42.625 4.78125 38.28125 2.390625 
Q 33.9375 0 27.875 0 
Q 17.828125 0 11.671875 7.65625 
Q 5.515625 15.328125 5.515625 27.984375 
Q 5.515625 40.671875 11.671875 48.328125 
Q 17.828125 56 27.875 56 
Q 33.9375 56 38.28125 53.609375 
Q 42.625 51.21875 45.40625 46.390625 
L 45.40625 54.6875 
L 54.390625 54.6875 
z
" id="DejaVuSans-103"/>
     <path d="M 34.28125 27.484375 
Q 23.390625 27.484375 19.1875 25 
Q 14.984375 22.515625 14.984375 16.5 
Q 14.984375 11.71875 18.140625 8.90625 
Q 21.296875 6.109375 26.703125 6.109375 
Q 34.1875 6.109375 38.703125 11.40625 
Q 43.21875 16.703125 43.21875 25.484375 
L 43.21875 27.484375 
z
M 52.203125 31.203125 
L 52.203125 0 
L 43.21875 0 
L 43.21875 8.296875 
Q 40.140625 3.328125 35.546875 0.953125 
Q 30.953125 -1.421875 24.3125 -1.421875 
Q 15.921875 -1.421875 10.953125 3.296875 
Q 6 8.015625 6 15.921875 
Q 6 25.140625 12.171875 29.828125 
Q 18.359375 34.515625 30.609375 34.515625 
L 43.21875 34.515625 
L 43.21875 35.40625 
Q 43.21875 41.609375 39.140625 45 
Q 35.0625 48.390625 27.6875 48.390625 
Q 23 48.390625 18.546875 47.265625 
Q 14.109375 46.140625 10.015625 43.890625 
L 10.015625 52.203125 
Q 14.9375 54.109375 19.578125 55.046875 
Q 24.21875 56 28.609375 56 
Q 40.484375 56 46.34375 49.84375 
Q 52.203125 43.703125 52.203125 31.203125 
z
" id="DejaVuSans-97"/>
     <path d="M 9.421875 54.6875 
L 18.40625 54.6875 
L 18.40625 0 
L 9.421875 0 
z
M 9.421875 75.984375 
L 18.40625 75.984375 
L 18.40625 64.59375 
L 9.421875 64.59375 
z
" id="DejaVuSans-105"/>
     <path d="M 10.6875 12.40625 
L 21 12.40625 
L 21 0 
L 10.6875 0 
z
" id="DejaVuSans-46"/>
    </defs>
    <g transform="translate(47.915625 35.472)scale(0.12 -0.12)">
     <use xlink:href="#DejaVuSans-40"/>
     <use x="39.013672" xlink:href="#DejaVuSans-49"/>
     <use x="102.636719" xlink:href="#DejaVuSans-52"/>
     <use x="166.259766" xlink:href="#DejaVuSans-49"/>
     <use x="229.882812" xlink:href="#DejaVuSans-41"/>
     <use x="268.896484" xlink:href="#DejaVuSans-32"/>
     <use x="300.683594" xlink:href="#DejaVuSans-83"/>
     <use x="364.160156" xlink:href="#DejaVuSans-117"/>
     <use x="427.539062" xlink:href="#DejaVuSans-98"/>
     <use x="491.015625" xlink:href="#DejaVuSans-106"/>
     <use x="518.798828" xlink:href="#DejaVuSans-101"/>
     <use x="580.322266" xlink:href="#DejaVuSans-99"/>
     <use x="635.302734" xlink:href="#DejaVuSans-116"/>
     <use x="674.511719" xlink:href="#DejaVuSans-58"/>
     <use x="708.203125" xlink:href="#DejaVuSans-32"/>
     <use x="739.990234" xlink:href="#DejaVuSans-115"/>
     <use x="792.089844" xlink:href="#DejaVuSans-50"/>
     <use x="855.712891" xlink:href="#DejaVuSans-55"/>
     <use x="919.335938" xlink:href="#DejaVuSans-44"/>
     <use x="951.123047" xlink:href="#DejaVuSans-32"/>
     <use x="982.910156" xlink:href="#DejaVuSans-75"/>
     <use x="1048.486328" xlink:href="#DejaVuSans-110"/>
     <use x="1111.865234" xlink:href="#DejaVuSans-111"/>
     <use x="1173.046875" xlink:href="#DejaVuSans-119"/>
     <use x="1254.833984" xlink:href="#DejaVuSans-110"/>
     <use x="1318.212891" xlink:href="#DejaVuSans-32"/>
     <use x="1350" xlink:href="#DejaVuSans-61"/>
     <use x="1433.789062" xlink:href="#DejaVuSans-32"/>
     <use x="1465.576172" xlink:href="#DejaVuSans-84"/>
     <use x="1526.441406" xlink:href="#DejaVuSans-114"/>
     <use x="1567.554688" xlink:href="#DejaVuSans-117"/>
     <use x="1630.933594" xlink:href="#DejaVuSans-101"/>
     <use x="1692.457031" xlink:href="#DejaVuSans-44"/>
     <use x="1724.244141" xlink:href="#DejaVuSans-32"/>
     <use x="1756.03125" xlink:href="#DejaVuSans-68"/>
     <use x="1833.033203" xlink:href="#DejaVuSans-101"/>
     <use x="1894.556641" xlink:href="#DejaVuSans-103"/>
     <use x="1958.033203" xlink:href="#DejaVuSans-114"/>
     <use x="1999.115234" xlink:href="#DejaVuSans-101"/>
     <use x="2060.638672" xlink:href="#DejaVuSans-101"/>
     <use x="2122.162109" xlink:href="#DejaVuSans-32"/>
     <use x="2153.949219" xlink:href="#DejaVuSans-61"/>
     <use x="2237.738281" xlink:href="#DejaVuSans-32"/>
     <use x="2269.525391" xlink:href="#DejaVuSans-50"/>
     <use x="2333.148438" xlink:href="#DejaVuSans-44"/>
     <use x="2364.935547" xlink:href="#DejaVuSans-32"/>
     <use x="2396.722656" xlink:href="#DejaVuSans-68"/>
     <use x="2473.724609" xlink:href="#DejaVuSans-117"/>
     <use x="2537.103516" xlink:href="#DejaVuSans-114"/>
     <use x="2578.216797" xlink:href="#DejaVuSans-97"/>
     <use x="2639.496094" xlink:href="#DejaVuSans-116"/>
     <use x="2678.705078" xlink:href="#DejaVuSans-105"/>
     <use x="2706.488281" xlink:href="#DejaVuSans-111"/>
     <use x="2767.669922" xlink:href="#DejaVuSans-110"/>
     <use x="2831.048828" xlink:href="#DejaVuSans-32"/>
     <use x="2862.835938" xlink:href="#DejaVuSans-61"/>
     <use x="2946.625" xlink:href="#DejaVuSans-32"/>
     <use x="2978.412109" xlink:href="#DejaVuSans-48"/>
     <use x="3042.035156" xlink:href="#DejaVuSans-46"/>
     <use x="3073.822266" xlink:href="#DejaVuSans-49"/>
    </g>
   </g>
  </g>
 </g>
 <defs>
  <clipPath id="pb45a036416">
   <rect height="266.112" width="357.12" x="57.6" y="41.472"/>
  </clipPath>
 </defs>
</svg>
