<?xml version="1.0" encoding="utf-8" standalone="no"?>
<!DOCTYPE svg PUBLIC "-//W3C//DTD SVG 1.1//EN"
  "http://www.w3.org/Graphics/SVG/1.1/DTD/svg11.dtd">
<!-- Created with matplotlib (https://matplotlib.org/) -->
<svg height="345.6pt" version="1.1" viewBox="0 0 460.8 345.6" width="460.8pt" xmlns="http://www.w3.org/2000/svg" xmlns:xlink="http://www.w3.org/1999/xlink">
 <defs>
  <style type="text/css">
*{stroke-linecap:butt;stroke-linejoin:round;}
  </style>
 </defs>
 <g id="figure_1">
  <g id="patch_1">
   <path d="M 0 345.6 
L 460.8 345.6 
L 460.8 0 
L 0 0 
z
" style="fill:#ffffff;"/>
  </g>
  <g id="axes_1">
   <g id="patch_2">
    <path d="M 57.6 307.584 
L 414.72 307.584 
L 414.72 41.472 
L 57.6 41.472 
z
" style="fill:#ffffff;"/>
   </g>
   <g id="line2d_1">
    <path clip-path="url(#pa06b28beaf)" d="M 298.304284 149.181658 
L 298.157 149.181658 
L 297.857521 149.362264 
L 298.004806 149.721555 
L 298.304284 150.082767 
L 298.755957 149.902161 
L 299.055436 149.362264 
L 298.903242 148.820446 
L 298.157 148.820446 
L 297.705327 148.639839 
L 297.705327 148.278627 
L 298.304284 147.558124 
L 298.456478 147.73873 
L 298.456478 147.73873 
L 298.456478 147.196912 
L 298.304284 147.016305 
L 298.456478 147.016305 
L 299.354915 147.377518 
L 299.354915 146.293881 
L 299.502199 146.115196 
L 299.354915 146.474487 
L 299.055436 146.655093 
L 298.903242 146.293881 
L 298.903242 145.212165 
L 299.055436 145.212165 
L 298.903242 145.392772 
L 298.755957 145.212165 
L 298.903242 145.212165 
L 300.101157 144.670347 
L 300.101157 143.949844 
L 300.101157 143.949844 
L 300.253351 144.13045 
L 300.101157 144.311056 
L 299.801678 144.311056 
L 299.801678 143.588632 
L 299.953872 143.408025 
L 299.953872 143.408025 
L 299.953872 143.046813 
L 300.253351 142.506916 
L 300.552829 142.506916 
L 300.700114 142.687522 
L 300.999593 142.506916 
L 301.151787 142.145704 
L 301.451265 141.965098 
L 301.299071 141.784492 
L 300.999593 141.784492 
L 300.999593 141.784492 
L 300.999593 141.965098 
L 300.700114 141.965098 
L 300.999593 141.603885 
L 300.999593 141.063988 
L 300.999593 141.242673 
L 301.299071 141.603885 
L 301.151787 141.603885 
L 300.999593 141.423279 
L 301.299071 140.702776 
L 301.299071 140.160958 
L 301.299071 140.702776 
L 301.151787 140.883382 
L 301.151787 140.52217 
L 301.451265 140.160958 
L 301.750744 140.160958 
L 301.750744 140.341564 
L 301.59855 140.702776 
L 301.451265 140.702776 
L 301.451265 140.52217 
L 301.59855 140.341564 
L 301.898029 139.438533 
L 302.197507 139.079242 
L 302.197507 139.079242 
L 302.197507 139.259848 
L 302.050223 139.438533 
L 302.050223 139.619139 
L 302.050223 139.619139 
L 302.197507 139.438533 
L 302.496986 139.438533 
L 302.796465 139.079242 
L 302.796465 139.438533 
L 302.948659 139.438533 
L 302.948659 139.259848 
L 302.948659 139.259848 
L 302.796465 139.079242 
L 302.796465 139.079242 
L 303.095944 139.079242 
L 303.395422 138.898636 
L 304.146574 139.438533 
L 304.293858 139.259848 
L 304.146574 138.898636 
L 303.547616 138.176211 
L 303.248138 139.619139 
L 303.248138 139.619139 
L 303.547616 139.259848 
L 303.99438 139.079242 
L 304.293858 138.71803 
L 304.293858 138.176211 
L 304.293858 138.176211 
L 303.99438 138.176211 
L 303.847095 138.356818 
L 303.694901 138.356818 
L 304.745531 138.356818 
L 304.892816 138.71803 
L 304.593337 139.079242 
L 304.593337 138.71803 
L 304.593337 139.438533 
L 304.892816 139.438533 
L 305.192294 138.71803 
L 305.344488 137.814999 
L 305.192294 137.636314 
L 304.745531 137.995605 
L 304.745531 138.356818 
L 305.192294 138.356818 
L 305.643967 138.176211 
L 305.643967 137.995605 
L 305.192294 138.356818 
L 304.745531 138.356818 
L 304.446052 137.995605 
L 304.745531 137.814999 
L 305.344488 138.356818 
L 305.344488 138.176211 
L 305.192294 137.814999 
L 305.491773 136.91389 
L 305.344488 136.733284 
L 305.04501 137.455708 
L 305.344488 136.552678 
L 305.04501 136.552678 
L 304.745531 136.733284 
L 304.745531 136.733284 
L 305.04501 136.733284 
L 305.344488 136.91389 
L 305.192294 136.733284 
L 305.192294 136.191465 
L 305.04501 136.010859 
L 304.892816 136.010859 
L 305.04501 136.191465 
L 305.643967 136.552678 
L 305.491773 136.372071 
L 305.643967 136.191465 
L 305.791252 136.191465 
L 305.943446 136.010859 
L 306.09073 136.010859 
L 305.943446 136.010859 
L 305.943446 135.832174 
L 305.791252 135.651568 
L 305.791252 135.651568 
L 305.791252 135.470962 
L 305.643967 135.651568 
L 305.791252 135.832174 
L 305.791252 136.010859 
L 305.491773 136.010859 
L 305.643967 135.832174 
L 305.791252 135.832174 
L 305.643967 136.010859 
L 305.344488 136.010859 
L 305.192294 135.651568 
L 305.344488 135.10975 
L 305.643967 134.567931 
L 305.943446 134.387325 
L 305.791252 134.748538 
L 305.491773 134.929144 
L 305.491773 135.10975 
L 305.643967 135.470962 
L 306.09073 134.20864 
L 306.242925 133.847428 
L 305.943446 134.567931 
L 306.242925 134.567931 
L 306.242925 134.387325 
L 306.242925 134.748538 
L 306.09073 135.10975 
L 306.09073 135.10975 
L 306.09073 134.748538 
L 305.791252 134.567931 
L 305.791252 135.10975 
L 305.491773 135.10975 
L 305.943446 135.10975 
L 306.242925 135.290356 
L 305.943446 136.010859 
L 305.791252 135.651568 
L 305.943446 135.290356 
L 306.09073 135.470962 
L 306.09073 135.832174 
L 306.390209 135.10975 
L 306.542403 135.10975 
L 306.390209 135.290356 
L 306.390209 135.470962 
L 306.542403 135.651568 
L 307.141361 135.470962 
L 307.141361 135.290356 
L 306.242925 135.290356 
L 306.390209 135.290356 
L 306.242925 135.470962 
L 306.242925 135.470962 
L 306.689688 135.470962 
L 306.542403 135.651568 
L 306.390209 135.651568 
L 306.542403 135.651568 
L 307.141361 135.470962 
L 306.841882 135.832174 
L 306.542403 136.552678 
L 306.841882 136.010859 
L 307.141361 136.372071 
L 307.288645 136.372071 
L 307.288645 136.191465 
L 307.288645 136.191465 
L 306.989167 135.832174 
L 306.689688 135.651568 
L 306.390209 136.010859 
L 306.242925 136.010859 
L 306.09073 136.191465 
L 306.542403 136.010859 
L 307.288645 136.010859 
L 307.288645 136.010859 
L 307.141361 135.832174 
L 307.440839 135.470962 
L 307.440839 135.470962 
L 306.390209 135.470962 
L 306.542403 135.470962 
L 306.841882 135.651568 
L 307.288645 135.651568 
L 307.141361 135.651568 
L 307.141361 135.470962 
L 306.989167 135.470962 
L 306.841882 135.651568 
L 306.841882 136.372071 
L 307.141361 136.372071 
L 307.440839 136.191465 
L 307.440839 136.010859 
L 307.141361 136.372071 
L 306.841882 136.372071 
L 306.542403 135.832174 
L 306.689688 135.651568 
L 307.588124 135.832174 
L 307.288645 135.651568 
L 306.841882 135.651568 
L 306.542403 135.832174 
L 306.542403 136.191465 
L 306.689688 136.372071 
L 306.841882 136.372071 
L 306.841882 136.010859 
L 306.841882 136.010859 
L 307.288645 136.010859 
L 307.440839 136.191465 
L 307.288645 136.191465 
L 306.689688 135.470962 
L 306.542403 135.470962 
L 306.841882 135.832174 
L 306.989167 135.832174 
L 306.989167 135.651568 
L 307.141361 135.290356 
L 307.440839 135.290356 
L 307.440839 135.470962 
L 306.542403 135.470962 
L 306.689688 135.290356 
L 306.989167 135.470962 
L 307.141361 135.832174 
L 306.989167 135.832174 
L 306.542403 134.567931 
L 306.242925 134.567931 
L 305.791252 136.010859 
L 304.293858 137.275102 
L 304.293858 138.898636 
L 304.446052 139.980351 
L 304.293858 140.883382 
L 304.293858 141.784492 
L 304.446052 143.046813 
L 305.04501 144.311056 
L 307.141361 147.377518 
L 307.440839 148.098021 
L 308.039797 148.639839 
L 308.938233 149.181658 
L 309.53719 149.721555 
L 309.983954 150.624586 
L 310.735105 151.345089 
L 311.785735 152.789938 
L 312.531977 154.413472 
L 313.430413 155.675793 
L 314.481043 156.757509 
L 315.826243 158.381043 
L 317.176352 159.823971 
L 318.521551 160.907607 
L 320.018945 161.628111 
L 322.866447 164.154675 
L 324.36384 165.055784 
L 325.861234 165.416997 
L 327.206433 165.597603 
L 328.104869 166.320027 
L 328.856021 167.221137 
L 329.454978 168.124167 
L 330.053936 169.386489 
L 333.64768 174.618303 
L 334.546116 176.603049 
L 335.292358 177.504159 
L 336.490273 178.226583 
L 337.688188 179.127692 
L 339.337775 182.013548 
L 339.637254 182.916579 
L 339.637254 183.998294 
L 339.337775 184.720719 
L 339.038297 185.081931 
L 338.586624 186.344253 
L 338.139861 187.425968 
L 338.439339 187.78718 
L 338.439339 188.68829 
L 338.287145 189.230108 
L 338.586624 189.59132 
L 338.586624 189.952533 
L 338.439339 190.673036 
L 337.688188 192.29657 
L 337.688188 192.657782 
L 337.987666 192.657782 
L 338.139861 192.477176 
L 338.287145 192.657782 
L 338.287145 193.560813 
L 337.987666 194.281316 
L 337.688188 194.642528 
L 338.738818 195.724244 
L 338.439339 195.724244 
L 337.540903 195.184347 
L 337.540903 195.364953 
L 337.688188 195.724244 
L 337.688188 196.266062 
L 337.540903 196.446668 
L 337.388709 196.446668 
L 337.241424 196.807881 
L 337.540903 196.988487 
L 338.439339 196.266062 
L 338.586624 196.446668 
L 338.287145 196.807881 
L 337.688188 196.627274 
L 337.540903 196.266062 
L 337.840382 196.266062 
L 338.139861 196.807881 
L 338.139861 197.347778 
L 337.987666 197.528384 
L 337.840382 197.528384 
L 337.840382 197.528384 
L 337.987666 197.347778 
L 337.840382 196.988487 
L 337.840382 196.988487 
L 337.688188 197.167171 
L 337.688188 197.889596 
L 337.540903 198.070202 
L 337.540903 198.070202 
L 337.840382 198.070202 
L 337.987666 197.889596 
L 337.987666 198.250808 
L 337.840382 198.971312 
L 338.139861 198.790705 
L 337.987666 198.431414 
L 337.840382 198.431414 
L 338.287145 198.250808 
L 337.840382 198.790705 
L 337.987666 198.790705 
L 338.139861 198.971312 
L 337.987666 198.971312 
L 337.688188 198.790705 
L 337.540903 198.971312 
L 337.388709 199.51313 
L 337.688188 199.332524 
L 337.840382 198.431414 
L 337.840382 198.790705 
L 337.987666 198.971312 
L 337.987666 198.971312 
L 337.840382 198.971312 
L 337.840382 198.790705 
L 338.139861 198.790705 
L 338.139861 198.971312 
L 337.987666 199.151918 
L 337.840382 199.51313 
L 337.688188 199.51313 
L 337.540903 199.332524 
L 337.688188 198.971312 
L 337.987666 198.971312 
L 337.987666 199.151918 
L 337.840382 199.332524 
L 337.840382 199.332524 
L 337.688188 199.332524 
L 337.388709 199.151918 
L 337.540903 198.250808 
L 337.540903 198.790705 
L 337.987666 199.693736 
L 338.139861 199.693736 
L 337.987666 199.874342 
L 337.540903 199.693736 
L 337.241424 199.332524 
L 336.941946 199.693736 
L 336.342988 199.693736 
L 334.393922 199.332524 
L 330.652893 198.971312 
L 327.957585 199.151918 
L 324.962798 198.971312 
L 316.876873 197.528384 
L 311.785735 196.988487 
L 306.09073 196.266062 
L 300.400635 195.724244 
L 294.71054 195.90485 
L 288.87316 196.446668 
L 283.030871 196.807881 
L 277.041297 196.988487 
L 270.60005 196.807881 
L 257.722466 196.085456 
L 252.032371 196.085456 
L 246.342276 196.266062 
L 240.499986 196.627274 
L 228.373554 197.70899 
L 222.084501 198.070202 
L 202.313998 198.612021 
L 189.588608 198.250808 
L 176.858309 199.332524 
L 164.579682 200.054948 
L 153.49897 201.136664 
L 148.407832 201.859088 
L 143.763458 202.760198 
L 139.423471 203.482622 
L 135.378054 203.843835 
L 132.083789 204.383732 
L 129.236286 205.106156 
L 125.343063 205.826659 
L 124.145148 206.549084 
L 123.246712 207.269587 
L 122.947234 207.992012 
L 123.246712 208.895042 
L 123.546191 208.895042 
L 124.145148 208.714436 
L 124.744106 209.073727 
L 125.942021 210.33797 
L 126.241499 211.058473 
L 126.094215 211.419686 
L 125.794736 211.780898 
L 125.195779 212.14211 
L 124.8963 212.501401 
L 124.444627 213.585038 
L 124.444627 213.404432 
L 124.744106 213.404432 
L 125.195779 213.94625 
L 125.495257 214.84736 
L 123.997864 215.929075 
L 123.698385 216.290287 
L 123.84567 216.290287 
L 123.84567 216.109681 
L 123.698385 216.109681 
L 123.398906 216.290287 
L 123.398906 217.193318 
L 123.099428 217.913821 
L 122.947234 218.094427 
L 122.799949 218.636246 
L 122.947234 218.636246 
L 122.947234 218.816852 
L 122.50047 219.717961 
L 122.348276 219.717961 
L 122.647755 219.356749 
L 123.099428 219.356749 
L 123.099428 219.356749 
L 122.947234 219.537355 
L 122.647755 219.537355 
L 122.348276 219.717961 
L 122.200992 220.079174 
L 122.348276 220.620992 
L 122.348276 221.160889 
L 122.200992 221.341495 
L 122.348276 221.160889 
L 122.348276 221.883314 
L 121.901513 222.784423 
L 121.150361 223.145635 
L 121.150361 223.687454 
L 121.44984 224.048666 
L 121.901513 223.86806 
L 122.048797 223.687454 
L 121.602034 224.407957 
L 121.602034 224.588563 
L 121.749319 224.588563 
L 121.749319 224.769169 
L 121.302555 225.6722 
L 121.302555 226.031491 
L 121.302555 226.031491 
L 120.703598 225.6722 
L 120.703598 225.6722 
L 120.703598 226.392703 
L 120.850883 227.115128 
L 120.850883 226.753915 
L 121.003077 226.753915 
L 120.850883 226.934521 
L 120.551404 228.196843 
L 120.251925 227.835631 
L 119.952447 228.738661 
L 120.104641 228.919268 
L 120.251925 228.738661 
L 120.404119 228.919268 
L 120.404119 229.28048 
L 120.104641 229.820377 
L 119.952447 229.820377 
L 120.104641 229.459165 
L 120.104641 229.099874 
L 120.104641 229.639771 
L 119.952447 229.820377 
L 119.952447 230.000983 
L 119.952447 230.000983 
L 119.805162 230.000983 
L 120.251925 230.362195 
L 119.206205 231.082699 
L 119.206205 231.263305 
L 119.054011 231.624517 
L 119.054011 231.985729 
L 118.906726 232.527548 
L 118.607247 232.708154 
L 118.607247 232.346941 
L 118.754532 231.985729 
L 118.754532 232.708154 
L 118.607247 232.708154 
L 118.906726 232.886839 
L 119.353489 232.886839 
L 119.353489 232.527548 
L 119.054011 232.708154 
L 118.754532 233.428657 
L 119.054011 233.428657 
L 119.206205 233.248051 
L 119.054011 233.428657 
L 119.206205 233.609263 
L 119.206205 233.970475 
L 119.054011 234.151082 
L 119.054011 234.510372 
L 118.906726 234.510372 
L 118.754532 234.331688 
L 118.754532 233.970475 
L 118.754532 234.871585 
L 118.906726 235.594009 
L 119.054011 235.413403 
L 118.906726 234.690979 
L 119.054011 234.871585 
L 119.054011 234.871585 
L 118.607247 234.871585 
L 118.307769 234.690979 
L 118.307769 234.331688 
L 118.607247 234.151082 
L 118.607247 234.151082 
L 118.155574 233.609263 
L 118.155574 233.067445 
L 120.251925 228.196843 
L 121.150361 226.573309 
L 121.901513 224.949775 
L 126.393693 213.404432 
L 129.687959 206.549084 
L 131.931594 202.398985 
L 137.474405 193.560813 
L 140.321907 189.230108 
L 147.209918 180.390014 
L 150.504183 175.519412 
L 153.945733 170.648811 
L 157.539478 165.778209 
L 164.128009 157.479933 
L 170.269777 147.917415 
L 173.716237 143.408025 
L 180.00529 134.20864 
L 183.000077 129.516724 
L 188.091214 120.497945 
L 190.933807 115.986634 
L 194.228073 111.477245 
L 197.974011 106.787249 
L 205.460979 96.684833 
L 216.094927 84.958884 
L 219.236999 80.989391 
L 222.084501 77.019899 
L 226.576682 70.164551 
L 229.718753 64.573446 
L 231.368341 62.227488 
L 234.363128 58.619208 
L 237.205721 54.830322 
L 238.55583 53.929212 
L 238.55583 54.109818 
L 238.55583 54.471031 
L 237.956872 56.094565 
L 237.956872 56.453856 
L 238.104157 56.453856 
L 238.403635 56.273249 
L 238.403635 56.094565 
L 238.403635 56.453856 
L 238.403635 56.273249 
L 238.55583 55.913958 
L 239.002593 55.733352 
L 240.200508 55.37214 
L 240.352702 55.191534 
L 240.053223 55.191534 
L 239.753744 55.37214 
L 239.60155 55.191534 
L 239.753744 54.830322 
L 240.053223 54.471031 
L 239.901029 54.290425 
L 239.901029 54.109818 
L 240.499986 53.748606 
L 240.499986 53.748606 
L 240.65218 53.929212 
L 240.951659 53.929212 
L 241.098944 53.748606 
L 240.951659 53.568 
L 240.951659 53.748606 
L 241.403332 54.109818 
L 241.850095 54.109818 
L 241.098944 54.109818 
L 241.098944 54.290425 
L 241.251138 54.290425 
L 241.251138 54.290425 
L 241.251138 54.649715 
L 240.951659 55.010928 
L 241.850095 55.010928 
L 241.550617 55.37214 
L 241.850095 55.37214 
L 241.550617 55.37214 
L 241.550617 55.552746 
L 241.702811 55.552746 
L 242.002289 55.010928 
L 241.550617 56.634462 
L 241.702811 56.634462 
L 242.301768 56.273249 
L 242.149574 56.634462 
L 242.149574 57.537492 
L 242.149574 57.356886 
L 242.002289 56.815068 
L 242.149574 56.453856 
L 242.301768 56.453856 
L 242.002289 56.815068 
L 242.301768 56.995674 
L 243.347489 56.634462 
L 243.200204 56.815068 
L 242.900725 57.17628 
L 242.601247 57.718098 
L 242.149574 57.898705 
L 242.149574 57.898705 
L 242.449053 57.537492 
L 242.601247 57.17628 
L 242.449053 57.17628 
L 242.301768 57.718098 
L 242.449053 57.718098 
L 242.449053 57.898705 
L 242.601247 57.898705 
L 242.748531 57.718098 
L 242.601247 57.356886 
L 242.601247 57.356886 
L 242.149574 57.898705 
L 242.149574 57.718098 
L 242.900725 57.356886 
L 242.748531 57.537492 
L 242.301768 58.077389 
L 242.301768 58.619208 
L 242.601247 58.438602 
L 242.601247 57.898705 
L 242.748531 57.718098 
L 242.900725 57.898705 
L 242.900725 57.898705 
L 242.748531 57.898705 
L 242.601247 57.537492 
L 242.301768 57.356886 
L 242.301768 57.537492 
L 242.601247 57.898705 
L 242.748531 57.898705 
L 242.748531 57.718098 
L 242.601247 57.537492 
L 242.748531 57.537492 
L 242.601247 57.718098 
L 242.601247 57.898705 
L 242.449053 58.077389 
L 242.002289 58.077389 
L 242.002289 57.718098 
L 241.850095 57.537492 
L 241.850095 57.356886 
L 242.002289 57.537492 
L 242.002289 58.257996 
L 241.850095 58.799814 
L 242.002289 58.799814 
L 242.149574 58.077389 
L 242.449053 57.898705 
L 242.449053 58.077389 
L 242.301768 58.077389 
L 242.301768 58.257996 
L 242.601247 58.257996 
L 242.900725 57.898705 
L 242.748531 57.718098 
L 242.449053 57.898705 
L 242.449053 59.161026 
L 242.301768 59.161026 
L 242.301768 58.619208 
L 242.449053 58.619208 
L 242.301768 58.438602 
L 242.601247 58.799814 
L 242.449053 59.341632 
L 242.449053 59.161026 
L 242.449053 58.077389 
L 242.449053 58.438602 
L 242.149574 59.341632 
L 242.449053 59.341632 
L 242.601247 58.98042 
L 242.449053 59.161026 
L 242.301768 59.341632 
L 242.301768 59.341632 
L 242.301768 59.700923 
L 242.900725 60.965166 
L 242.900725 60.965166 
L 242.748531 61.145772 
L 242.149574 61.145772 
L 242.002289 61.505063 
L 242.002289 61.866276 
L 241.550617 62.408094 
L 241.702811 62.5887 
L 242.149574 62.769306 
L 242.449053 62.769306 
L 242.149574 62.227488 
L 242.002289 62.5887 
L 242.002289 63.309203 
L 242.149574 63.309203 
L 242.002289 63.309203 
L 241.702811 63.48981 
L 241.403332 63.309203 
L 241.550617 63.309203 
L 242.449053 62.949912 
L 241.403332 63.309203 
L 241.403332 63.48981 
L 241.702811 64.031628 
L 242.002289 64.212234 
L 241.850095 64.031628 
L 241.702811 63.851022 
L 241.702811 64.031628 
L 242.002289 64.39284 
L 242.301768 64.39284 
L 242.301768 64.031628 
L 242.149574 63.851022 
L 242.301768 64.031628 
L 242.748531 64.031628 
L 243.499683 64.212234 
L 244.545404 64.212234 
L 246.042797 64.031628 
L 247.839669 63.670416 
L 249.788735 63.851022 
L 252.032371 64.752131 
L 256.524551 66.736877 
L 258.620902 67.459302 
L 261.468405 68.179805 
L 264.76267 69.624654 
L 268.356415 71.428794 
L 278.53869 78.282221 
L 285.726179 82.432319 
L 289.319923 85.498781 
L 292.913668 88.745849 
L 300.999593 94.880693 
L 304.593337 97.766549 
L 308.187081 100.471798 
L 311.93302 103.540181 
L 315.678958 106.787249 
L 319.419987 109.673105 
L 323.612689 112.55896 
L 336.642467 122.48077 
L 340.982453 125.549153 
L 354.910668 136.733284 
L 358.803891 139.619139 
L 362.549829 142.687522 
L 366.290858 145.93459 
L 370.036797 149.362264 
L 373.331062 152.968623 
L 376.325849 156.037006 
L 379.620115 158.742255 
L 382.767096 160.907607 
L 385.609689 163.251644 
L 390.401348 167.943561 
L 392.19822 170.287598 
L 393.847808 172.633557 
L 396.390922 176.96234 
L 397.142073 178.947086 
L 397.588837 181.112439 
L 398.487273 188.148393 
L 398.339988 190.673036 
L 397.741031 192.657782 
L 396.842595 194.461922 
L 396.091443 196.266062 
L 395.64468 198.612021 
L 395.492486 201.136664 
L 394.893528 205.286762 
L 394.294571 208.172618 
L 393.847808 209.615546 
L 393.24885 213.04322 
L 392.797177 214.305541 
L 392.497699 216.6515 
L 392.797177 218.094427 
L 392.649893 219.356749 
L 392.19822 221.160889 
L 392.050935 223.326241 
L 392.050935 224.229272 
L 391.751457 225.310987 
L 391.751457 227.295734 
L 391.599263 228.558055 
L 390.700827 230.000983 
L 390.553542 230.904014 
L 390.853021 233.067445 
L 390.700827 233.609263 
L 390.553542 235.774615 
L 390.254063 236.675725 
L 390.401348 237.036937 
L 390.401348 237.578755 
L 390.254063 238.118653 
L 389.954585 238.660471 
L 390.553542 240.645217 
L 390.553542 240.645217 
L 389.355627 241.907539 
L 389.056149 242.088145 
L 389.502912 241.907539 
L 390.101869 241.907539 
L 390.553542 242.088145 
L 390.553542 243.892285 
L 390.553542 243.892285 
L 390.401348 243.892285 
L 390.254063 244.253497 
L 390.401348 244.434103 
L 390.700827 244.434103 
L 390.254063 245.696425 
L 390.401348 245.696425 
L 390.700827 245.515819 
L 391.152499 245.515819 
L 390.553542 246.238243 
L 390.700827 246.057637 
L 390.853021 245.696425 
L 390.700827 245.696425 
L 390.401348 246.057637 
L 390.101869 246.597534 
L 390.254063 246.958747 
L 390.401348 246.958747 
L 391.000305 246.416928 
L 391.451978 246.416928 
L 391.751457 246.77814 
L 391.451978 246.958747 
L 390.700827 246.958747 
L 391.152499 246.958747 
L 391.299784 247.139353 
L 391.152499 247.139353 
L 391.152499 247.319959 
L 391.299784 247.500565 
L 391.299784 247.681171 
L 391.000305 247.319959 
L 391.299784 247.500565 
L 391.599263 247.500565 
L 391.451978 247.861777 
L 390.853021 248.58228 
L 390.553542 248.762887 
L 390.553542 248.943493 
L 391.000305 248.943493 
L 391.299784 248.401674 
L 391.152499 248.221068 
L 390.254063 249.124099 
L 390.401348 248.943493 
L 391.000305 249.304705 
L 391.451978 249.124099 
L 391.451978 248.943493 
L 391.152499 248.943493 
L 391.000305 249.124099 
L 391.299784 249.485311 
L 391.451978 250.025208 
L 391.299784 250.38642 
L 390.254063 250.928239 
L 390.101869 250.567027 
L 390.553542 250.205814 
L 390.853021 250.205814 
L 390.853021 250.205814 
L 390.700827 250.567027 
L 391.000305 250.928239 
L 391.152499 250.747633 
L 391.000305 250.38642 
L 390.553542 250.205814 
L 390.401348 250.38642 
L 390.700827 250.38642 
L 391.152499 250.205814 
L 390.553542 249.844602 
L 390.700827 249.665917 
L 391.000305 249.844602 
L 390.700827 250.567027 
L 390.553542 250.567027 
L 390.401348 250.38642 
L 390.254063 250.567027 
L 390.401348 250.747633 
L 390.700827 250.747633 
L 391.299784 250.567027 
L 390.553542 250.567027 
L 390.553542 250.567027 
L 390.553542 250.747633 
L 390.254063 251.289451 
L 389.802391 251.289451 
L 389.954585 251.108845 
L 389.954585 250.747633 
L 389.802391 250.747633 
L 389.655106 250.567027 
L 389.655106 250.567027 
L 389.655106 250.928239 
L 389.355627 251.648742 
L 389.502912 252.190561 
L 390.254063 251.468136 
L 390.101869 251.468136 
L 389.802391 252.371167 
L 389.802391 252.009954 
L 389.954585 251.468136 
L 389.802391 250.928239 
L 389.655106 250.928239 
L 389.355627 251.648742 
L 389.056149 252.912985 
L 389.056149 252.912985 
L 389.655106 252.912985 
L 390.101869 252.732379 
L 389.802391 252.732379 
L 389.203433 252.912985 
L 388.903954 252.371167 
L 388.75667 251.829348 
L 388.903954 251.829348 
L 388.903954 252.371167 
L 388.005518 252.371167 
L 387.70604 252.732379 
L 388.005518 252.912985 
L 388.304997 252.732379 
L 388.304997 252.732379 
L 388.304997 253.272276 
L 388.457191 253.814094 
L 388.457191 253.814094 
L 388.005518 253.814094 
L 387.70604 253.633488 
L 387.70604 253.633488 
L 388.005518 253.452882 
L 388.604476 253.452882 
L 388.457191 253.452882 
L 388.157712 253.633488 
L 387.70604 254.536519 
L 387.558755 254.175307 
L 387.558755 253.633488 
L 387.858234 253.452882 
L 388.157712 253.814094 
L 388.157712 253.994701 
L 388.304997 253.633488 
L 388.604476 253.452882 
L 388.457191 253.814094 
L 388.304997 253.814094 
L 388.157712 253.633488 
L 388.157712 253.633488 
L 388.157712 253.994701 
L 388.304997 254.175307 
L 388.304997 253.814094 
L 388.304997 253.814094 
L 387.858234 254.355913 
L 387.558755 254.536519 
L 388.157712 254.536519 
L 388.157712 255.257022 
L 388.157712 255.257022 
L 387.858234 255.437628 
L 387.858234 255.798841 
L 388.304997 255.798841 
L 388.304997 255.798841 
L 388.157712 255.979447 
L 387.558755 255.437628 
L 387.70604 255.618234 
L 387.858234 256.160053 
L 387.70604 255.618234 
L 387.70604 254.355913 
L 387.558755 254.355913 
L 387.858234 254.717125 
L 388.005518 255.257022 
L 388.457191 255.437628 
L 388.457191 255.798841 
L 388.005518 255.979447 
L 387.406561 255.979447 
L 387.259276 256.160053 
L 387.558755 256.160053 
L 387.858234 255.979447 
L 387.70604 255.979447 
L 387.558755 256.519344 
L 387.406561 255.979447 
L 387.107082 256.340659 
L 387.107082 256.160053 
L 387.259276 255.979447 
L 387.406561 255.979447 
L 387.70604 255.618234 
L 388.005518 255.618234 
L 387.70604 255.798841 
L 386.807604 255.618234 
L 386.959798 256.340659 
L 386.959798 257.241768 
L 387.107082 257.422374 
L 387.406561 257.422374 
L 387.406561 257.061162 
L 387.259276 256.69995 
L 386.807604 256.340659 
L 386.36084 256.340659 
L 386.208646 256.519344 
L 385.909167 256.519344 
L 386.208646 256.880556 
L 386.508125 257.061162 
L 386.508125 256.69995 
L 386.208646 256.160053 
L 383.665532 256.160053 
L 382.315423 256.340659 
L 378.122721 255.076416 
L 375.275219 254.355913 
L 371.980953 254.175307 
L 358.504412 252.190561 
L 352.514838 252.009954 
L 339.784539 251.289451 
L 333.348201 251.108845 
L 305.192294 249.665917 
L 298.004806 249.665917 
L 290.670032 250.025208 
L 282.731392 250.747633 
L 274.493273 251.648742 
L 266.706827 252.190561 
L 251.585608 252.190561 
L 235.261564 251.829348 
L 227.023445 252.009954 
L 210.404832 253.09167 
L 201.71504 253.452882 
L 193.182352 253.633488 
L 184.796949 253.633488 
L 176.411545 253.814094 
L 168.021232 254.355913 
L 159.788023 255.076416 
L 144.215131 256.160053 
L 136.875448 256.340659 
L 116.358702 257.964193 
L 109.622886 258.684696 
L 103.333834 259.587727 
L 97.938308 260.127624 
L 88.806662 260.488836 
L 84.761245 261.391867 
L 82.065937 262.654188 
L 76.076363 264.998226 
L 74.878448 265.901256 
L 74.431685 266.443075 
L 74.431685 266.443075 
L 74.878448 266.262469 
L 75.629599 266.623681 
L 76.528036 267.886002 
L 77.873235 268.967718 
L 78.172714 269.32893 
L 78.025429 269.870749 
L 77.72595 270.051355 
L 77.426472 270.410646 
L 77.274278 270.952464 
L 77.274278 271.853573 
L 77.126993 272.93721 
L 76.67532 273.298423 
L 76.076363 273.477107 
L 75.629599 273.477107 
L 75.330121 273.83832 
L 75.177927 274.560744 
L 75.477405 274.560744 
L 75.629599 274.74135 
L 75.177927 276.364884 
L 74.279491 276.54549 
L 74.431685 276.184278 
L 74.578969 276.184278 
L 74.578969 276.54549 
L 74.431685 276.904781 
L 75.477405 277.4466 
L 75.477405 277.627206 
L 74.731163 277.627206 
L 74.431685 277.4466 
L 74.578969 277.265994 
L 74.878448 277.085387 
L 74.878448 277.627206 
L 75.030642 277.807812 
L 74.731163 278.169024 
L 74.878448 278.34963 
L 75.177927 279.070134 
L 75.177927 278.889527 
L 75.030642 278.889527 
L 74.878448 279.070134 
L 74.731163 279.070134 
L 74.878448 279.070134 
L 75.030642 279.25074 
L 75.030642 279.431346 
L 74.878448 279.792558 
L 74.431685 279.792558 
L 74.132206 279.431346 
L 74.279491 279.431346 
L 74.431685 280.15377 
L 74.132206 280.513061 
L 73.832727 280.332455 
L 73.980012 280.15377 
L 74.431685 280.332455 
L 74.431685 280.693667 
L 74.279491 281.05488 
L 74.279491 282.136595 
L 74.279491 282.136595 
L 74.731163 281.596698 
L 75.030642 281.416092 
L 75.177927 281.596698 
L 75.030642 282.136595 
L 75.030642 282.497807 
L 75.177927 282.136595 
L 75.177927 281.777304 
L 75.030642 282.136595 
L 74.731163 282.136595 
L 74.431685 281.955989 
L 74.431685 281.955989 
L 74.431685 282.317201 
L 74.878448 283.220232 
L 74.878448 283.039626 
L 74.878448 283.220232 
L 75.629599 283.760129 
L 75.776884 283.581444 
L 75.330121 283.220232 
L 74.878448 283.400838 
L 74.431685 284.301948 
L 74.431685 284.301948 
L 74.731163 284.301948 
L 75.177927 284.482554 
L 75.629599 284.482554 
L 75.477405 284.843766 
L 75.177927 284.843766 
L 75.177927 284.66316 
L 75.177927 284.66316 
L 75.030642 284.843766 
L 75.030642 285.024372 
L 75.177927 284.843766 
L 75.629599 284.843766 
L 75.929078 285.204978 
L 76.528036 285.204978 
L 76.67532 285.383663 
L 76.528036 285.744875 
L 76.228557 285.925481 
L 75.929078 285.564269 
L 75.929078 285.383663 
L 75.929078 285.925481 
L 76.076363 285.925481 
L 76.528036 285.564269 
L 77.126993 286.286694 
L 77.126993 286.286694 
L 76.827514 286.106088 
L 76.528036 286.106088 
L 76.528036 287.009118 
L 76.827514 287.009118 
L 77.274278 287.187803 
L 77.426472 287.009118 
L 77.426472 286.4673 
L 77.274278 286.647906 
L 76.974799 287.549015 
L 77.126993 287.187803 
L 77.274278 287.368409 
L 77.573756 288.090834 
L 77.72595 287.910228 
L 77.573756 287.368409 
L 77.873235 287.549015 
L 78.172714 288.090834 
L 78.172714 288.090834 
L 78.624386 287.729621 
L 78.624386 287.729621 
L 78.472192 287.729621 
L 78.472192 287.910228 
L 78.624386 288.27144 
L 78.172714 288.632652 
L 78.025429 288.991943 
L 78.172714 289.353155 
L 78.324908 289.353155 
L 78.172714 289.172549 
L 78.172714 288.991943 
L 78.324908 288.991943 
L 78.324908 288.991943 
L 78.324908 289.172549 
L 78.324908 289.172549 
L 78.472192 289.172549 
L 78.472192 289.172549 
L 78.324908 289.353155 
L 78.324908 289.533761 
L 78.172714 289.533761 
L 78.172714 289.533761 
L 78.472192 290.256186 
L 78.324908 290.256186 
L 78.172714 290.07558 
L 77.72595 290.07558 
L 77.873235 290.434871 
L 78.025429 290.434871 
L 78.324908 290.07558 
L 78.172714 289.714368 
L 78.025429 289.714368 
L 78.025429 290.434871 
L 78.771671 290.07558 
L 78.923865 290.615477 
L 78.771671 290.976689 
L 78.025429 290.976689 
L 78.025429 290.976689 
L 78.172714 290.796083 
L 78.172714 290.796083 
L 78.172714 290.976689 
L 77.873235 291.337902 
L 77.573756 290.976689 
L 77.72595 291.157295 
L 77.573756 291.157295 
L 77.573756 290.796083 
L 77.873235 291.157295 
L 78.324908 292.239011 
L 78.324908 291.699114 
L 78.025429 290.976689 
L 78.025429 290.976689 
L 78.025429 291.518508 
L 78.472192 292.419617 
L 78.472192 291.699114 
L 78.624386 291.518508 
L 78.923865 291.87972 
L 78.923865 292.600223 
L 78.771671 292.780829 
L 78.472192 292.600223 
L 78.472192 292.419617 
L 78.771671 292.961435 
L 78.923865 292.600223 
L 78.624386 292.600223 
L 79.07115 292.600223 
L 79.07115 292.419617 
L 79.07115 292.780829 
L 78.923865 293.322648 
L 78.624386 293.862545 
L 78.624386 293.68386 
L 78.472192 292.780829 
L 78.472192 292.961435 
L 78.324908 293.862545 
L 78.472192 293.862545 
L 78.472192 294.223757 
L 78.624386 294.584969 
L 78.923865 294.765575 
L 79.223344 294.765575 
L 79.670107 294.946182 
L 79.522823 294.765575 
L 79.07115 294.765575 
L 78.771671 294.946182 
L 78.923865 294.765575 
L 79.07115 294.946182 
L 79.07115 295.126788 
L 78.923865 295.307394 
L 78.771671 295.307394 
L 79.07115 295.307394 
L 79.370628 295.488 
L 79.370628 295.488 
L 79.223344 294.584969 
L 79.370628 294.584969 
L 79.522823 294.765575 
L 79.522823 295.126788 
L 79.522823 294.946182 
L 79.370628 294.584969 
L 79.07115 294.584969 
L 78.771671 294.946182 
L 78.923865 295.126788 
L 79.223344 295.307394 
L 79.223344 295.126788 
L 79.07115 294.404363 
L 79.07115 293.68386 
L 79.223344 293.503254 
L 79.223344 293.68386 
L 79.223344 293.68386 
L 79.370628 293.142042 
L 79.670107 292.961435 
L 79.670107 292.961435 
L 79.370628 292.961435 
L 79.07115 293.142042 
L 79.223344 293.322648 
L 79.522823 293.322648 
L 79.969586 293.142042 
L 80.269065 293.142042 
L 80.269065 293.142042 
L 79.670107 292.060326 
L 79.822301 291.87972 
L 80.12178 292.239011 
L 80.568543 292.239011 
L 80.720737 292.060326 
L 80.421259 292.419617 
L 80.720737 292.600223 
L 81.167501 292.419617 
L 81.466979 291.87972 
L 81.466979 291.518508 
L 81.167501 291.337902 
L 80.720737 291.337902 
L 80.720737 291.518508 
L 81.020216 291.157295 
L 81.020216 291.157295 
L 80.868022 291.157295 
L 80.868022 290.615477 
L 81.020216 290.07558 
L 80.868022 290.796083 
L 81.020216 290.796083 
L 81.319695 290.256186 
L 81.319695 288.632652 
L 81.619173 287.729621 
L 82.817088 286.286694 
L 85.212918 282.678414 
L 91.202492 274.018926 
L 98.836744 260.850048 
L 106.176427 247.139353 
L 111.866522 238.479865 
L 114.262351 234.331688 
L 116.510896 230.181589 
L 119.054011 226.031491 
L 121.749319 222.244526 
L 124.596821 218.45564 
L 128.038371 214.666753 
L 131.484831 210.518576 
L 141.966586 197.347778 
L 150.204704 188.328999 
L 154.245212 183.637082 
L 167.574469 168.844671 
L 171.767171 163.793463 
L 176.112067 158.742255 
L 184.644755 149.001052 
L 188.690172 144.13045 
L 197.075575 134.929144 
L 200.816604 130.419754 
L 204.562543 126.08905 
L 212.800662 117.429562 
L 216.394406 113.642597 
L 219.389193 110.034317 
L 222.084501 106.064824 
L 224.77981 102.456544 
L 227.475118 99.209477 
L 230.469905 95.781803 
L 235.708327 88.745849 
L 238.256351 85.859993 
L 240.053223 83.154744 
L 241.251138 80.266967 
L 242.900725 75.576971 
L 243.200204 73.411619 
L 243.200204 71.607479 
L 243.347489 70.525764 
L 243.646967 70.164551 
L 244.09864 69.263442 
L 243.946446 69.082836 
L 243.799162 69.444048 
L 243.646967 70.164551 
L 243.799162 70.70637 
L 244.09864 71.067582 
L 244.245925 71.607479 
L 243.946446 71.968691 
L 243.799162 71.788085 
L 244.09864 71.248188 
L 244.545404 71.067582 
L 244.398119 71.248188 
L 243.946446 71.428794 
L 243.799162 71.607479 
L 244.09864 71.788085 
L 244.398119 72.149297 
L 244.545404 72.149297 
L 244.545404 71.968691 
L 244.398119 71.968691 
L 244.398119 71.788085 
L 244.697598 71.428794 
L 244.697598 71.428794 
L 244.697598 71.067582 
L 244.545404 70.886976 
L 244.545404 70.70637 
L 244.997076 71.067582 
L 244.844882 71.067582 
L 244.545404 70.525764 
L 244.697598 70.164551 
L 244.697598 70.164551 
L 245.144361 70.70637 
L 245.596034 70.70637 
L 245.895512 71.067582 
L 245.743318 71.428794 
L 245.596034 71.248188 
L 245.596034 70.886976 
L 245.44384 70.70637 
L 245.44384 71.428794 
L 245.596034 71.248188 
L 245.596034 71.067582 
L 245.296555 71.067582 
L 245.296555 70.70637 
L 245.296555 71.248188 
L 245.44384 71.607479 
L 245.44384 72.149297 
L 245.596034 72.149297 
L 245.44384 72.329904 
L 245.296555 72.691116 
L 245.144361 72.691116 
L 245.144361 72.51051 
L 245.296555 72.149297 
L 245.596034 72.149297 
L 245.596034 72.329904 
L 245.144361 72.329904 
L 244.697598 72.149297 
L 244.697598 71.788085 
L 244.844882 71.607479 
L 244.398119 72.329904 
L 244.398119 72.329904 
L 244.697598 72.149297 
L 244.997076 72.329904 
L 245.296555 72.149297 
L 245.144361 71.968691 
L 244.844882 72.149297 
L 244.697598 72.51051 
L 244.844882 72.51051 
L 244.545404 72.51051 
L 244.545404 72.51051 
L 244.844882 72.871722 
L 245.296555 73.231013 
L 245.296555 73.052328 
L 244.697598 73.052328 
L 244.697598 73.052328 
L 244.398119 73.231013 
L 244.398119 73.411619 
L 244.245925 73.231013 
L 244.09864 72.871722 
L 244.09864 72.51051 
L 244.844882 72.871722 
L 244.697598 72.871722 
L 244.398119 73.052328 
L 244.398119 73.231013 
L 244.245925 73.231013 
L 244.245925 73.411619 
L 244.697598 73.411619 
L 244.545404 73.592225 
L 244.844882 73.953437 
L 244.844882 73.772831 
L 244.545404 73.411619 
L 244.545404 73.052328 
L 244.545404 73.231013 
L 244.398119 73.231013 
L 244.545404 72.871722 
L 244.844882 72.691116 
L 244.844882 72.871722 
L 244.545404 73.411619 
L 244.245925 73.592225 
L 244.245925 73.231013 
L 243.946446 72.691116 
L 243.946446 72.691116 
L 244.245925 72.149297 
L 244.398119 72.149297 
L 244.545404 72.691116 
L 244.245925 73.411619 
L 244.398119 73.052328 
L 243.799162 73.772831 
L 243.946446 73.772831 
L 244.545404 74.134044 
L 244.09864 74.134044 
L 243.646967 74.31465 
L 243.347489 74.31465 
L 243.347489 74.134044 
L 243.646967 74.134044 
L 243.646967 74.675862 
L 243.347489 74.856468 
L 243.200204 74.495256 
L 243.347489 73.953437 
L 243.04801 73.953437 
L 242.900725 74.134044 
L 243.646967 74.675862 
L 243.646967 74.856468 
L 243.200204 74.675862 
L 242.900725 74.31465 
L 242.900725 73.953437 
L 243.499683 74.495256 
L 243.200204 74.495256 
L 242.748531 74.134044 
L 242.900725 73.772831 
L 243.347489 73.772831 
L 243.347489 73.953437 
L 243.04801 74.134044 
L 242.748531 74.134044 
L 242.748531 73.592225 
L 243.646967 73.953437 
L 243.499683 74.134044 
L 243.04801 74.134044 
L 242.900725 74.31465 
L 242.900725 74.495256 
L 243.04801 74.675862 
L 242.900725 74.675862 
L 242.449053 74.31465 
L 242.601247 73.953437 
L 242.900725 74.134044 
L 242.900725 74.31465 
L 242.748531 74.495256 
L 242.301768 74.495256 
L 242.449053 74.495256 
L 242.601247 74.856468 
L 242.601247 75.215759 
L 242.449053 75.576971 
L 242.301768 75.576971 
L 242.301768 75.396365 
L 242.601247 75.035153 
L 242.601247 75.035153 
L 242.449053 75.576971 
L 242.449053 76.11879 
L 242.748531 75.757577 
L 242.601247 75.576971 
L 242.601247 75.396365 
L 242.748531 75.396365 
L 242.900725 75.576971 
L 242.601247 75.757577 
L 242.301768 75.576971 
L 242.900725 74.675862 
L 242.900725 74.675862 
L 242.601247 75.576971 
L 242.449053 75.396365 
L 242.301768 75.396365 
L 242.149574 75.757577 
L 242.002289 75.576971 
L 242.002289 75.215759 
L 242.149574 75.215759 
L 242.301768 75.757577 
L 242.601247 76.11879 
L 242.748531 75.938184 
L 242.748531 75.576971 
L 242.449053 75.576971 
L 241.702811 75.938184 
L 241.550617 75.938184 
L 241.550617 75.757577 
L 242.449053 75.757577 
L 242.601247 75.576971 
L 242.449053 75.576971 
L 242.002289 75.757577 
L 241.702811 76.11879 
L 241.702811 76.480002 
L 241.850095 76.658687 
L 241.702811 76.480002 
L 241.403332 76.299396 
L 241.403332 76.11879 
L 242.301768 76.480002 
L 242.601247 76.839293 
L 242.449053 76.839293 
L 241.850095 76.480002 
L 241.850095 75.396365 
L 242.002289 75.396365 
L 242.002289 75.938184 
L 242.002289 75.938184 
L 242.149574 76.480002 
L 242.002289 76.658687 
L 242.002289 76.480002 
L 242.149574 76.11879 
L 242.149574 75.396365 
L 242.449053 76.11879 
L 242.449053 77.019899 
L 242.149574 77.381111 
L 241.850095 77.019899 
L 241.850095 76.299396 
L 242.002289 76.658687 
L 242.301768 76.839293 
L 242.601247 76.658687 
L 242.449053 76.658687 
L 242.149574 76.658687 
L 242.149574 77.019899 
L 242.301768 77.200505 
L 242.449053 77.200505 
L 242.449053 77.200505 
L 242.449053 76.839293 
L 242.601247 75.938184 
L 242.301768 76.658687 
L 242.002289 76.658687 
L 241.702811 76.299396 
L 241.251138 75.576971 
L 241.403332 75.757577 
L 241.702811 75.938184 
L 242.002289 76.480002 
L 242.149574 76.658687 
L 242.301768 76.480002 
L 242.149574 76.11879 
L 241.850095 76.11879 
L 241.403332 75.757577 
L 241.251138 75.576971 
L 241.403332 75.396365 
L 241.850095 74.495256 
L 241.850095 74.495256 
L 241.251138 74.856468 
L 240.951659 74.675862 
L 240.951659 74.856468 
L 241.403332 74.856468 
L 242.149574 74.675862 
L 242.149574 74.495256 
L 241.850095 74.134044 
L 241.850095 74.495256 
L 242.149574 74.856468 
L 242.301768 74.675862 
L 242.149574 74.134044 
L 242.449053 73.231013 
L 242.601247 73.231013 
L 241.850095 72.691116 
L 242.002289 71.968691 
L 242.301768 71.788085 
L 242.601247 71.788085 
L 242.748531 71.968691 
L 242.748531 70.886976 
L 242.601247 70.345157 
L 242.301768 69.803339 
L 242.149574 69.803339 
L 242.601247 69.803339 
L 242.900725 69.263442 
L 242.900725 68.541017 
L 242.748531 68.721623 
L 242.900725 68.90223 
L 242.748531 69.082836 
L 242.748531 69.444048 
L 242.601247 69.263442 
L 242.748531 68.90223 
L 243.347489 68.179805 
L 243.347489 68.179805 
L 243.200204 68.179805 
L 243.04801 67.459302 
L 243.200204 67.459302 
L 243.499683 67.820514 
L 243.799162 68.00112 
L 244.09864 67.639908 
L 244.09864 67.09809 
L 243.946446 66.736877 
L 243.499683 67.09809 
L 243.799162 66.917483 
L 243.946446 67.09809 
L 244.09864 66.736877 
L 243.946446 66.19698 
L 243.799162 66.19698 
L 243.646967 66.377586 
L 243.646967 66.377586 
L 243.646967 66.736877 
L 243.799162 67.09809 
L 243.799162 67.09809 
L 244.245925 67.278696 
L 244.398119 67.278696 
L 244.245925 67.09809 
L 244.245925 66.917483 
L 244.09864 66.917483 
L 243.799162 67.09809 
L 244.245925 66.917483 
L 244.398119 66.917483 
L 244.245925 66.736877 
L 244.09864 66.377586 
L 243.946446 66.377586 
L 243.946446 66.556271 
L 244.09864 66.556271 
L 244.09864 66.016374 
L 244.09864 66.016374 
L 244.245925 66.377586 
L 244.245925 66.736877 
L 244.398119 66.736877 
L 244.245925 66.556271 
L 244.245925 66.377586 
L 244.398119 66.556271 
L 244.398119 67.09809 
L 244.245925 67.459302 
L 243.946446 67.459302 
L 244.245925 66.917483 
L 244.245925 66.917483 
L 244.398119 66.736877 
L 244.697598 66.556271 
L 244.997076 66.556271 
L 244.997076 66.917483 
L 244.697598 66.736877 
L 244.245925 66.736877 
L 244.398119 66.917483 
L 244.844882 66.917483 
L 245.144361 66.736877 
L 245.144361 66.556271 
L 244.997076 66.556271 
L 245.296555 66.19698 
L 245.296555 66.377586 
L 245.144361 66.377586 
L 245.44384 66.377586 
L 245.144361 66.377586 
L 244.844882 66.19698 
L 245.144361 66.377586 
L 245.44384 66.19698 
L 245.743318 65.835768 
L 245.895512 65.835768 
L 246.042797 66.19698 
L 246.194991 66.19698 
L 246.194991 66.016374 
L 246.042797 65.474556 
L 246.49447 64.39284 
L 247.240712 64.031628 
L 248.291342 64.031628 
L 249.93602 63.851022 
L 251.732892 63.851022 
L 253.981437 64.031628 
L 258.920381 64.031628 
L 265.361628 65.29395 
L 268.955372 66.377586 
L 272.396922 67.639908 
L 279.289842 70.525764 
L 282.883586 72.51051 
L 286.624615 74.856468 
L 290.370554 76.839293 
L 294.411061 78.824039 
L 298.603763 80.628179 
L 302.496986 82.793531 
L 306.242925 85.137569 
L 313.882086 90.188776 
L 317.323636 92.895947 
L 320.470617 95.781803 
L 323.465404 98.848264 
L 330.500699 104.621897 
L 333.794965 107.688358 
L 336.789752 110.75482 
L 339.936733 113.642597 
L 346.078501 119.053096 
L 351.469117 124.28491 
L 353.864947 126.630868 
L 358.357127 130.780967 
L 360.154 132.944397 
L 362.098156 135.10975 
L 366.590337 139.438533 
L 368.387209 141.603885 
L 370.184081 143.227419 
L 371.980953 145.031559 
L 375.427413 149.001052 
L 376.325849 151.166404 
L 377.970527 157.841146 
L 377.970527 162.711747 
L 378.122721 164.154675 
L 378.122721 167.762955 
L 377.671049 169.386489 
L 376.325849 171.911132 
L 375.874176 173.715272 
L 375.275219 175.1582 
L 374.97574 176.241837 
L 374.828456 177.323552 
L 374.828456 178.226583 
L 374.229498 181.832942 
L 373.630541 182.916579 
L 373.331062 183.998294 
L 373.331062 185.081931 
L 373.93002 186.163646 
L 373.777825 186.705465 
L 373.331062 187.425968 
L 373.031583 188.868896 
L 372.879389 190.673036 
L 373.331062 190.853642 
L 373.630541 191.39546 
L 373.478347 192.29657 
L 372.879389 193.380207 
L 372.732105 193.920104 
L 372.732105 194.461922 
L 372.879389 195.003741 
L 372.732105 195.543638 
L 372.732105 197.347778 
L 373.031583 197.347778 
L 372.879389 197.167171 
L 372.732105 197.70899 
L 372.732105 198.431414 
L 372.432626 198.790705 
L 372.432626 198.790705 
L 372.579911 198.431414 
L 372.579911 198.070202 
L 372.579911 198.250808 
L 372.432626 198.790705 
L 372.432626 199.332524 
L 372.133147 199.874342 
L 372.280432 200.235554 
L 372.579911 199.874342 
L 373.178868 199.874342 
L 373.031583 199.874342 
L 372.732105 200.594845 
L 373.331062 200.594845 
L 373.331062 201.31727 
L 373.331062 201.136664 
L 373.031583 201.136664 
L 372.732105 201.31727 
L 372.732105 202.039695 
L 372.879389 202.398985 
L 372.732105 202.398985 
L 372.732105 202.579592 
L 372.879389 203.12141 
L 373.178868 203.482622 
L 373.478347 203.302016 
L 373.331062 203.12141 
L 373.331062 202.940804 
L 373.630541 203.482622 
L 373.478347 203.843835 
L 373.031583 203.843835 
L 372.879389 203.482622 
L 373.031583 203.12141 
L 373.331062 203.12141 
L 373.777825 203.302016 
L 373.630541 203.302016 
L 373.331062 202.940804 
L 373.331062 202.760198 
L 373.630541 202.760198 
L 373.630541 203.12141 
L 373.478347 203.12141 
L 373.630541 203.12141 
L 373.93002 203.302016 
L 373.777825 203.482622 
L 373.777825 203.663228 
L 374.376783 203.843835 
L 374.828456 203.843835 
L 374.676262 204.022519 
L 373.93002 203.663228 
L 373.93002 203.482622 
L 373.777825 203.482622 
L 373.478347 203.302016 
L 373.331062 203.482622 
L 373.630541 203.843835 
L 373.630541 204.203125 
L 373.777825 204.744944 
L 373.777825 204.564338 
L 373.478347 204.383732 
L 373.178868 204.564338 
L 373.178868 204.744944 
L 373.331062 204.564338 
L 373.777825 204.203125 
L 373.93002 204.022519 
L 374.229498 204.022519 
L 373.93002 204.383732 
L 373.777825 204.203125 
L 373.331062 204.022519 
L 373.031583 204.203125 
L 373.031583 204.744944 
L 373.331062 205.286762 
L 373.478347 205.286762 
L 373.777825 204.564338 
L 373.777825 204.203125 
L 373.777825 204.383732 
L 373.630541 204.564338 
L 373.777825 204.92555 
L 374.077304 205.106156 
L 373.331062 204.744944 
L 373.031583 204.92555 
L 372.732105 204.92555 
L 373.031583 205.467368 
L 372.879389 205.106156 
L 372.732105 204.744944 
L 372.732105 204.383732 
L 372.879389 204.203125 
L 373.031583 204.383732 
L 373.331062 205.106156 
L 373.178868 204.564338 
L 372.879389 204.744944 
L 372.579911 205.106156 
L 372.579911 205.467368 
L 373.031583 205.286762 
L 373.031583 204.92555 
L 372.432626 204.564338 
L 372.133147 204.564338 
L 372.133147 204.744944 
L 372.280432 205.106156 
L 372.432626 205.106156 
L 372.280432 204.92555 
L 372.133147 204.92555 
L 372.280432 204.92555 
L 372.579911 205.106156 
L 372.579911 205.286762 
L 372.579911 205.286762 
L 372.432626 205.467368 
L 372.280432 205.467368 
L 372.133147 205.286762 
L 372.579911 205.467368 
L 372.732105 206.007266 
L 372.732105 205.826659 
L 372.732105 205.106156 
L 372.133147 205.106156 
L 371.980953 205.286762 
L 371.980953 205.467368 
L 372.280432 205.467368 
L 372.280432 205.286762 
L 372.133147 205.467368 
L 372.133147 205.646053 
L 372.280432 205.646053 
L 371.681475 205.646053 
L 371.381996 206.187872 
L 371.833669 206.187872 
L 372.133147 206.007266 
L 372.432626 205.646053 
L 372.432626 205.286762 
L 371.833669 205.286762 
L 371.681475 205.467368 
L 371.681475 205.646053 
L 371.53419 205.646053 
L 371.833669 206.187872 
L 371.980953 206.007266 
L 371.833669 204.92555 
L 371.833669 205.286762 
L 372.133147 205.646053 
L 372.133147 206.007266 
L 371.980953 206.007266 
L 372.133147 206.007266 
L 372.133147 205.646053 
L 371.833669 205.467368 
L 371.833669 205.646053 
L 372.280432 205.826659 
L 372.579911 205.826659 
L 372.579911 205.826659 
L 372.579911 206.187872 
L 372.432626 206.910296 
L 372.579911 207.269587 
L 372.732105 207.090902 
L 372.579911 206.368478 
L 372.280432 205.826659 
L 372.280432 205.826659 
L 371.681475 206.72969 
L 370.935233 206.72969 
L 371.234711 206.187872 
L 371.980953 206.007266 
L 372.579911 206.187872 
L 372.732105 206.368478 
L 372.280432 206.187872 
L 372.133147 206.368478 
L 371.980953 206.368478 
L 371.681475 206.187872 
L 371.681475 206.007266 
L 371.681475 206.007266 
L 371.53419 206.007266 
L 371.53419 206.187872 
L 371.53419 206.187872 
L 371.681475 206.187872 
L 371.381996 206.007266 
L 371.53419 206.187872 
L 371.234711 206.549084 
L 371.082517 206.549084 
L 371.082517 206.910296 
L 371.381996 207.269587 
L 371.53419 207.630799 
L 371.381996 207.630799 
L 371.234711 207.269587 
L 371.381996 207.090902 
L 371.381996 207.450193 
L 371.082517 207.992012 
L 371.381996 207.811406 
L 371.381996 207.811406 
L 371.381996 208.353224 
L 371.381996 208.353224 
L 371.234711 207.992012 
L 371.234711 207.630799 
L 371.381996 207.630799 
L 371.381996 208.714436 
L 371.234711 208.895042 
L 370.935233 208.895042 
L 371.082517 209.254333 
L 370.935233 209.434939 
L 370.935233 209.254333 
L 370.783039 208.714436 
L 370.783039 208.895042 
L 370.935233 208.895042 
L 370.783039 208.895042 
L 370.635754 208.714436 
L 370.935233 209.073727 
L 371.234711 209.254333 
L 371.53419 209.615546 
L 371.53419 209.796152 
L 371.381996 209.615546 
L 370.184081 209.254333 
L 369.737318 208.714436 
L 369.737318 208.714436 
L 369.737318 209.073727 
L 369.884602 209.073727 
L 370.036797 208.895042 
L 370.036797 208.895042 
L 370.336275 208.895042 
L 370.48356 208.714436 
L 370.635754 209.073727 
L 370.48356 209.434939 
L 370.336275 209.434939 
L 370.48356 209.073727 
L 370.336275 209.254333 
L 369.884602 209.434939 
L 369.884602 208.895042 
L 370.036797 209.073727 
L 370.036797 209.254333 
L 369.884602 209.796152 
L 369.585124 210.157364 
L 369.737318 210.157364 
L 370.036797 209.976758 
L 369.884602 209.615546 
L 369.437839 209.434939 
L 368.838882 209.796152 
L 368.686688 209.615546 
L 368.838882 209.615546 
L 369.13836 210.157364 
L 369.285645 210.697261 
L 369.285645 210.33797 
L 368.986166 210.157364 
L 368.539403 210.33797 
L 368.239924 210.877867 
L 368.539403 211.058473 
L 368.986166 210.877867 
L 368.986166 211.058473 
L 368.838882 211.239079 
L 368.686688 211.239079 
L 368.387209 211.419686 
L 368.387209 211.419686 
L 368.08773 211.058473 
L 368.239924 211.058473 
L 368.686688 211.239079 
L 368.686688 211.058473 
L 368.239924 210.877867 
L 368.239924 210.877867 
L 368.387209 211.239079 
L 368.387209 212.501401 
L 368.387209 212.322716 
L 367.940446 211.961504 
L 367.788252 211.600292 
L 367.940446 211.780898 
L 368.08773 211.961504 
L 368.08773 212.501401 
L 367.940446 212.501401 
L 367.788252 212.322716 
L 367.940446 212.322716 
L 367.940446 212.322716 
L 367.940446 212.501401 
L 368.387209 212.501401 
L 368.838882 212.322716 
L 368.686688 212.14211 
L 368.539403 212.14211 
L 368.686688 212.682007 
L 368.686688 212.862613 
L 368.686688 212.682007 
L 368.387209 212.682007 
L 368.08773 212.501401 
L 368.239924 212.14211 
L 368.539403 211.961504 
L 368.686688 212.501401 
L 368.686688 213.04322 
L 368.838882 212.862613 
L 369.13836 212.14211 
L 368.986166 212.322716 
L 368.239924 212.862613 
L 368.387209 212.862613 
L 368.239924 213.765644 
L 368.539403 213.585038 
L 368.387209 213.404432 
L 368.239924 213.404432 
L 368.686688 213.404432 
L 368.686688 213.223826 
L 368.387209 213.04322 
L 367.940446 213.223826 
L 367.940446 214.486147 
L 368.08773 214.666753 
L 367.940446 214.666753 
L 367.341488 213.765644 
L 367.341488 213.94625 
L 367.488773 213.94625 
L 367.488773 213.765644 
L 367.488773 213.765644 
L 367.341488 213.765644 
L 366.889815 213.94625 
L 365.544616 213.94625 
L 365.092943 214.305541 
L 364.194507 215.929075 
L 363.747744 217.012712 
L 363.148786 217.913821 
L 362.697114 218.816852 
L 362.549829 220.079174 
L 362.996592 224.048666 
L 363.296071 224.769169 
L 363.895028 225.310987 
L 364.493986 226.031491 
L 365.092943 226.934521 
L 365.544616 227.835631 
L 365.691901 229.099874 
L 366.143573 234.331688 
L 366.143573 237.759362 
L 366.590337 239.021683 
L 368.838882 242.088145 
L 371.082517 245.877031 
L 370.935233 246.958747 
L 370.48356 248.58228 
L 370.184081 250.205814 
L 370.184081 251.289451 
L 370.48356 253.452882 
L 370.635754 253.994701 
L 370.336275 254.89581 
L 370.036797 256.160053 
L 369.737318 256.69995 
L 369.285645 256.69995 
L 369.13836 256.880556 
L 369.13836 257.422374 
L 368.838882 258.865302 
L 368.539403 259.226515 
L 368.239924 259.226515 
L 368.08773 259.407121 
L 368.08773 259.768333 
L 368.539403 260.669442 
L 368.838882 261.030655 
L 368.387209 262.473582 
L 368.08773 261.931764 
L 368.686688 261.931764 
L 368.986166 262.292976 
L 368.838882 262.654188 
L 368.387209 262.654188 
L 368.387209 262.654188 
L 368.686688 262.473582 
L 368.838882 262.11237 
L 369.13836 262.292976 
L 369.13836 262.834795 
L 368.838882 263.015401 
L 368.686688 262.654188 
L 368.387209 262.292976 
L 368.239924 261.931764 
L 368.239924 261.931764 
L 368.239924 262.292976 
L 368.239924 262.292976 
L 368.539403 261.931764 
L 368.387209 261.751158 
L 368.387209 261.391867 
L 368.986166 261.391867 
L 369.437839 261.211261 
L 369.585124 261.211261 
L 369.585124 261.030655 
L 369.437839 261.030655 
L 369.285645 261.211261 
L 369.285645 261.030655 
L 369.585124 260.669442 
L 370.635754 259.947018 
L 370.184081 260.30823 
L 370.635754 260.30823 
L 370.635754 259.947018 
L 370.48356 259.768333 
L 370.184081 259.768333 
L 370.184081 259.587727 
L 370.336275 259.407121 
L 371.381996 259.407121 
L 370.783039 259.407121 
L 371.082517 259.226515 
L 371.082517 259.587727 
L 371.082517 259.407121 
L 371.53419 258.865302 
L 370.935233 258.865302 
L 370.783039 258.684696 
L 371.980953 259.045908 
L 371.980953 259.045908 
L 371.980953 258.323484 
L 372.133147 258.144799 
L 372.280432 258.323484 
L 372.280432 258.323484 
L 372.133147 258.323484 
L 372.133147 258.323484 
L 372.432626 258.50409 
L 372.432626 259.045908 
L 372.732105 258.144799 
L 372.579911 257.964193 
L 372.732105 257.964193 
L 372.879389 257.783587 
L 373.031583 257.783587 
L 373.178868 257.602981 
L 373.331062 257.602981 
L 373.178868 257.964193 
L 372.879389 258.144799 
L 372.879389 258.323484 
L 373.178868 258.144799 
L 373.777825 258.144799 
L 373.777825 258.323484 
L 373.93002 258.144799 
L 374.077304 257.602981 
L 373.93002 257.422374 
L 373.93002 257.783587 
L 373.630541 258.144799 
L 373.331062 257.964193 
L 373.331062 257.783587 
L 373.93002 257.422374 
L 373.93002 257.422374 
L 373.93002 257.061162 
L 373.777825 257.241768 
L 373.777825 257.602981 
L 373.93002 257.602981 
L 374.229498 257.422374 
L 374.376783 257.061162 
L 374.376783 257.241768 
L 374.376783 257.602981 
L 373.93002 257.602981 
L 373.630541 257.783587 
L 373.630541 257.602981 
L 374.676262 257.241768 
L 374.528977 257.241768 
L 374.528977 256.519344 
L 374.528977 256.880556 
L 374.376783 257.061162 
L 374.229498 257.061162 
L 374.077304 256.69995 
L 374.229498 256.340659 
L 374.676262 256.340659 
L 375.427413 256.160053 
L 375.574698 256.519344 
L 375.427413 256.880556 
L 374.97574 257.061162 
L 374.528977 256.69995 
L 374.528977 256.340659 
L 374.676262 255.979447 
L 374.528977 256.340659 
L 374.676262 256.340659 
L 374.828456 255.979447 
L 374.97574 255.979447 
L 374.97574 255.076416 
L 374.97574 255.076416 
L 374.676262 255.437628 
L 374.676262 255.979447 
L 374.828456 256.160053 
L 374.676262 255.979447 
L 374.676262 255.437628 
L 374.97574 254.717125 
L 374.676262 255.257022 
L 374.376783 255.618234 
L 374.528977 255.979447 
L 374.97574 255.979447 
L 375.275219 255.618234 
L 375.275219 254.717125 
L 375.127934 254.355913 
L 374.528977 253.633488 
L 374.528977 253.272276 
L 374.528977 253.452882 
L 374.229498 254.717125 
L 374.229498 254.536519 
L 374.97574 253.994701 
L 374.828456 253.633488 
L 374.528977 253.272276 
L 374.528977 253.633488 
L 374.676262 254.175307 
L 374.528977 254.355913 
L 373.93002 253.814094 
L 374.229498 254.175307 
L 374.528977 254.536519 
L 374.676262 254.355913 
L 374.229498 253.814094 
L 373.777825 253.452882 
L 373.777825 253.633488 
L 374.229498 253.814094 
L 374.376783 253.994701 
L 374.077304 253.452882 
L 373.93002 252.912985 
L 374.077304 253.272276 
L 374.229498 253.452882 
L 374.229498 253.633488 
L 373.93002 253.452882 
L 374.676262 253.994701 
L 375.427413 254.536519 
L 375.127934 253.633488 
L 374.828456 253.994701 
L 375.127934 254.355913 
L 374.97574 254.175307 
L 374.528977 252.912985 
L 374.528977 252.912985 
" style="fill:none;stroke:#1f77b4;stroke-linecap:square;stroke-width:1.5;"/>
   </g>
   <g id="matplotlib.axis_1">
    <g id="xtick_1">
     <g id="line2d_2">
      <defs>
       <path d="M 0 0 
L 0 3.5 
" id="me6606edad1" style="stroke:#000000;stroke-width:0.8;"/>
      </defs>
      <g>
       <use style="stroke:#000000;stroke-width:0.8;" x="83.622244" xlink:href="#me6606edad1" y="307.584"/>
      </g>
     </g>
     <g id="text_1">
      <!-- 600 -->
      <defs>
       <path d="M 10.59375 35.5 
L 73.1875 35.5 
L 73.1875 27.203125 
L 10.59375 27.203125 
z
" id="DejaVuSans-8722"/>
       <path d="M 33.015625 40.375 
Q 26.375 40.375 22.484375 35.828125 
Q 18.609375 31.296875 18.609375 23.390625 
Q 18.609375 15.53125 22.484375 10.953125 
Q 26.375 6.390625 33.015625 6.390625 
Q 39.65625 6.390625 43.53125 10.953125 
Q 47.40625 15.53125 47.40625 23.390625 
Q 47.40625 31.296875 43.53125 35.828125 
Q 39.65625 40.375 33.015625 40.375 
z
M 52.59375 71.296875 
L 52.59375 62.3125 
Q 48.875 64.0625 45.09375 64.984375 
Q 41.3125 65.921875 37.59375 65.921875 
Q 27.828125 65.921875 22.671875 59.328125 
Q 17.53125 52.734375 16.796875 39.40625 
Q 19.671875 43.65625 24.015625 45.921875 
Q 28.375 48.1875 33.59375 48.1875 
Q 44.578125 48.1875 50.953125 41.515625 
Q 57.328125 34.859375 57.328125 23.390625 
Q 57.328125 12.15625 50.6875 5.359375 
Q 44.046875 -1.421875 33.015625 -1.421875 
Q 20.359375 -1.421875 13.671875 8.265625 
Q 6.984375 17.96875 6.984375 36.375 
Q 6.984375 53.65625 15.1875 63.9375 
Q 23.390625 74.21875 37.203125 74.21875 
Q 40.921875 74.21875 44.703125 73.484375 
Q 48.484375 72.75 52.59375 71.296875 
z
" id="DejaVuSans-54"/>
       <path d="M 31.78125 66.40625 
Q 24.171875 66.40625 20.328125 58.90625 
Q 16.5 51.421875 16.5 36.375 
Q 16.5 21.390625 20.328125 13.890625 
Q 24.171875 6.390625 31.78125 6.390625 
Q 39.453125 6.390625 43.28125 13.890625 
Q 47.125 21.390625 47.125 36.375 
Q 47.125 51.421875 43.28125 58.90625 
Q 39.453125 66.40625 31.78125 66.40625 
z
M 31.78125 74.21875 
Q 44.046875 74.21875 50.515625 64.515625 
Q 56.984375 54.828125 56.984375 36.375 
Q 56.984375 17.96875 50.515625 8.265625 
Q 44.046875 -1.421875 31.78125 -1.421875 
Q 19.53125 -1.421875 13.0625 8.265625 
Q 6.59375 17.96875 6.59375 36.375 
Q 6.59375 54.828125 13.0625 64.515625 
Q 19.53125 74.21875 31.78125 74.21875 
z
" id="DejaVuSans-48"/>
      </defs>
      <g transform="translate(69.88865 322.182437)scale(0.1 -0.1)">
       <use xlink:href="#DejaVuSans-8722"/>
       <use x="83.789062" xlink:href="#DejaVuSans-54"/>
       <use x="147.412109" xlink:href="#DejaVuSans-48"/>
       <use x="211.035156" xlink:href="#DejaVuSans-48"/>
      </g>
     </g>
    </g>
    <g id="xtick_2">
     <g id="line2d_3">
      <g>
       <use style="stroke:#000000;stroke-width:0.8;" x="132.717112" xlink:href="#me6606edad1" y="307.584"/>
      </g>
     </g>
     <g id="text_2">
      <!-- 500 -->
      <defs>
       <path d="M 10.796875 72.90625 
L 49.515625 72.90625 
L 49.515625 64.59375 
L 19.828125 64.59375 
L 19.828125 46.734375 
Q 21.96875 47.46875 24.109375 47.828125 
Q 26.265625 48.1875 28.421875 48.1875 
Q 40.625 48.1875 47.75 41.5 
Q 54.890625 34.8125 54.890625 23.390625 
Q 54.890625 11.625 47.5625 5.09375 
Q 40.234375 -1.421875 26.90625 -1.421875 
Q 22.3125 -1.421875 17.546875 -0.640625 
Q 12.796875 0.140625 7.71875 1.703125 
L 7.71875 11.625 
Q 12.109375 9.234375 16.796875 8.0625 
Q 21.484375 6.890625 26.703125 6.890625 
Q 35.15625 6.890625 40.078125 11.328125 
Q 45.015625 15.765625 45.015625 23.390625 
Q 45.015625 31 40.078125 35.4375 
Q 35.15625 39.890625 26.703125 39.890625 
Q 22.75 39.890625 18.8125 39.015625 
Q 14.890625 38.140625 10.796875 36.28125 
z
" id="DejaVuSans-53"/>
      </defs>
      <g transform="translate(118.983519 322.182437)scale(0.1 -0.1)">
       <use xlink:href="#DejaVuSans-8722"/>
       <use x="83.789062" xlink:href="#DejaVuSans-53"/>
       <use x="147.412109" xlink:href="#DejaVuSans-48"/>
       <use x="211.035156" xlink:href="#DejaVuSans-48"/>
      </g>
     </g>
    </g>
    <g id="xtick_3">
     <g id="line2d_4">
      <g>
       <use style="stroke:#000000;stroke-width:0.8;" x="181.811981" xlink:href="#me6606edad1" y="307.584"/>
      </g>
     </g>
     <g id="text_3">
      <!-- 400 -->
      <defs>
       <path d="M 37.796875 64.3125 
L 12.890625 25.390625 
L 37.796875 25.390625 
z
M 35.203125 72.90625 
L 47.609375 72.90625 
L 47.609375 25.390625 
L 58.015625 25.390625 
L 58.015625 17.1875 
L 47.609375 17.1875 
L 47.609375 0 
L 37.796875 0 
L 37.796875 17.1875 
L 4.890625 17.1875 
L 4.890625 26.703125 
z
" id="DejaVuSans-52"/>
      </defs>
      <g transform="translate(168.078387 322.182437)scale(0.1 -0.1)">
       <use xlink:href="#DejaVuSans-8722"/>
       <use x="83.789062" xlink:href="#DejaVuSans-52"/>
       <use x="147.412109" xlink:href="#DejaVuSans-48"/>
       <use x="211.035156" xlink:href="#DejaVuSans-48"/>
      </g>
     </g>
    </g>
    <g id="xtick_4">
     <g id="line2d_5">
      <g>
       <use style="stroke:#000000;stroke-width:0.8;" x="230.906849" xlink:href="#me6606edad1" y="307.584"/>
      </g>
     </g>
     <g id="text_4">
      <!-- 300 -->
      <defs>
       <path d="M 40.578125 39.3125 
Q 47.65625 37.796875 51.625 33 
Q 55.609375 28.21875 55.609375 21.1875 
Q 55.609375 10.40625 48.1875 4.484375 
Q 40.765625 -1.421875 27.09375 -1.421875 
Q 22.515625 -1.421875 17.65625 -0.515625 
Q 12.796875 0.390625 7.625 2.203125 
L 7.625 11.71875 
Q 11.71875 9.328125 16.59375 8.109375 
Q 21.484375 6.890625 26.8125 6.890625 
Q 36.078125 6.890625 40.9375 10.546875 
Q 45.796875 14.203125 45.796875 21.1875 
Q 45.796875 27.640625 41.28125 31.265625 
Q 36.765625 34.90625 28.71875 34.90625 
L 20.21875 34.90625 
L 20.21875 43.015625 
L 29.109375 43.015625 
Q 36.375 43.015625 40.234375 45.921875 
Q 44.09375 48.828125 44.09375 54.296875 
Q 44.09375 59.90625 40.109375 62.90625 
Q 36.140625 65.921875 28.71875 65.921875 
Q 24.65625 65.921875 20.015625 65.03125 
Q 15.375 64.15625 9.8125 62.3125 
L 9.8125 71.09375 
Q 15.4375 72.65625 20.34375 73.4375 
Q 25.25 74.21875 29.59375 74.21875 
Q 40.828125 74.21875 47.359375 69.109375 
Q 53.90625 64.015625 53.90625 55.328125 
Q 53.90625 49.265625 50.4375 45.09375 
Q 46.96875 40.921875 40.578125 39.3125 
z
" id="DejaVuSans-51"/>
      </defs>
      <g transform="translate(217.173255 322.182437)scale(0.1 -0.1)">
       <use xlink:href="#DejaVuSans-8722"/>
       <use x="83.789062" xlink:href="#DejaVuSans-51"/>
       <use x="147.412109" xlink:href="#DejaVuSans-48"/>
       <use x="211.035156" xlink:href="#DejaVuSans-48"/>
      </g>
     </g>
    </g>
    <g id="xtick_5">
     <g id="line2d_6">
      <g>
       <use style="stroke:#000000;stroke-width:0.8;" x="280.001717" xlink:href="#me6606edad1" y="307.584"/>
      </g>
     </g>
     <g id="text_5">
      <!-- 200 -->
      <defs>
       <path d="M 19.1875 8.296875 
L 53.609375 8.296875 
L 53.609375 0 
L 7.328125 0 
L 7.328125 8.296875 
Q 12.9375 14.109375 22.625 23.890625 
Q 32.328125 33.6875 34.8125 36.53125 
Q 39.546875 41.84375 41.421875 45.53125 
Q 43.3125 49.21875 43.3125 52.78125 
Q 43.3125 58.59375 39.234375 62.25 
Q 35.15625 65.921875 28.609375 65.921875 
Q 23.96875 65.921875 18.8125 64.3125 
Q 13.671875 62.703125 7.8125 59.421875 
L 7.8125 69.390625 
Q 13.765625 71.78125 18.9375 73 
Q 24.125 74.21875 28.421875 74.21875 
Q 39.75 74.21875 46.484375 68.546875 
Q 53.21875 62.890625 53.21875 53.421875 
Q 53.21875 48.921875 51.53125 44.890625 
Q 49.859375 40.875 45.40625 35.40625 
Q 44.1875 33.984375 37.640625 27.21875 
Q 31.109375 20.453125 19.1875 8.296875 
z
" id="DejaVuSans-50"/>
      </defs>
      <g transform="translate(266.268124 322.182437)scale(0.1 -0.1)">
       <use xlink:href="#DejaVuSans-8722"/>
       <use x="83.789062" xlink:href="#DejaVuSans-50"/>
       <use x="147.412109" xlink:href="#DejaVuSans-48"/>
       <use x="211.035156" xlink:href="#DejaVuSans-48"/>
      </g>
     </g>
    </g>
    <g id="xtick_6">
     <g id="line2d_7">
      <g>
       <use style="stroke:#000000;stroke-width:0.8;" x="329.096586" xlink:href="#me6606edad1" y="307.584"/>
      </g>
     </g>
     <g id="text_6">
      <!-- 100 -->
      <defs>
       <path d="M 12.40625 8.296875 
L 28.515625 8.296875 
L 28.515625 63.921875 
L 10.984375 60.40625 
L 10.984375 69.390625 
L 28.421875 72.90625 
L 38.28125 72.90625 
L 38.28125 8.296875 
L 54.390625 8.296875 
L 54.390625 0 
L 12.40625 0 
z
" id="DejaVuSans-49"/>
      </defs>
      <g transform="translate(315.362992 322.182437)scale(0.1 -0.1)">
       <use xlink:href="#DejaVuSans-8722"/>
       <use x="83.789062" xlink:href="#DejaVuSans-49"/>
       <use x="147.412109" xlink:href="#DejaVuSans-48"/>
       <use x="211.035156" xlink:href="#DejaVuSans-48"/>
      </g>
     </g>
    </g>
    <g id="xtick_7">
     <g id="line2d_8">
      <g>
       <use style="stroke:#000000;stroke-width:0.8;" x="378.191454" xlink:href="#me6606edad1" y="307.584"/>
      </g>
     </g>
     <g id="text_7">
      <!-- 0 -->
      <g transform="translate(375.010204 322.182437)scale(0.1 -0.1)">
       <use xlink:href="#DejaVuSans-48"/>
      </g>
     </g>
    </g>
   </g>
   <g id="matplotlib.axis_2">
    <g id="ytick_1">
     <g id="line2d_9">
      <defs>
       <path d="M 0 0 
L -3.5 0 
" id="m98b6a347c9" style="stroke:#000000;stroke-width:0.8;"/>
      </defs>
      <g>
       <use style="stroke:#000000;stroke-width:0.8;" x="57.6" xlink:href="#m98b6a347c9" y="283.135693"/>
      </g>
     </g>
     <g id="text_8">
      <!-- 1000 -->
      <g transform="translate(16.770313 286.934912)scale(0.1 -0.1)">
       <use xlink:href="#DejaVuSans-8722"/>
       <use x="83.789062" xlink:href="#DejaVuSans-49"/>
       <use x="147.412109" xlink:href="#DejaVuSans-48"/>
       <use x="211.035156" xlink:href="#DejaVuSans-48"/>
       <use x="274.658203" xlink:href="#DejaVuSans-48"/>
      </g>
     </g>
    </g>
    <g id="ytick_2">
     <g id="line2d_10">
      <g>
       <use style="stroke:#000000;stroke-width:0.8;" x="57.6" xlink:href="#m98b6a347c9" y="244.708855"/>
      </g>
     </g>
     <g id="text_9">
      <!-- 800 -->
      <defs>
       <path d="M 31.78125 34.625 
Q 24.75 34.625 20.71875 30.859375 
Q 16.703125 27.09375 16.703125 20.515625 
Q 16.703125 13.921875 20.71875 10.15625 
Q 24.75 6.390625 31.78125 6.390625 
Q 38.8125 6.390625 42.859375 10.171875 
Q 46.921875 13.96875 46.921875 20.515625 
Q 46.921875 27.09375 42.890625 30.859375 
Q 38.875 34.625 31.78125 34.625 
z
M 21.921875 38.8125 
Q 15.578125 40.375 12.03125 44.71875 
Q 8.5 49.078125 8.5 55.328125 
Q 8.5 64.0625 14.71875 69.140625 
Q 20.953125 74.21875 31.78125 74.21875 
Q 42.671875 74.21875 48.875 69.140625 
Q 55.078125 64.0625 55.078125 55.328125 
Q 55.078125 49.078125 51.53125 44.71875 
Q 48 40.375 41.703125 38.8125 
Q 48.828125 37.15625 52.796875 32.3125 
Q 56.78125 27.484375 56.78125 20.515625 
Q 56.78125 9.90625 50.3125 4.234375 
Q 43.84375 -1.421875 31.78125 -1.421875 
Q 19.734375 -1.421875 13.25 4.234375 
Q 6.78125 9.90625 6.78125 20.515625 
Q 6.78125 27.484375 10.78125 32.3125 
Q 14.796875 37.15625 21.921875 38.8125 
z
M 18.3125 54.390625 
Q 18.3125 48.734375 21.84375 45.5625 
Q 25.390625 42.390625 31.78125 42.390625 
Q 38.140625 42.390625 41.71875 45.5625 
Q 45.3125 48.734375 45.3125 54.390625 
Q 45.3125 60.0625 41.71875 63.234375 
Q 38.140625 66.40625 31.78125 66.40625 
Q 25.390625 66.40625 21.84375 63.234375 
Q 18.3125 60.0625 18.3125 54.390625 
z
" id="DejaVuSans-56"/>
      </defs>
      <g transform="translate(23.132812 248.508074)scale(0.1 -0.1)">
       <use xlink:href="#DejaVuSans-8722"/>
       <use x="83.789062" xlink:href="#DejaVuSans-56"/>
       <use x="147.412109" xlink:href="#DejaVuSans-48"/>
       <use x="211.035156" xlink:href="#DejaVuSans-48"/>
      </g>
     </g>
    </g>
    <g id="ytick_3">
     <g id="line2d_11">
      <g>
       <use style="stroke:#000000;stroke-width:0.8;" x="57.6" xlink:href="#m98b6a347c9" y="206.282017"/>
      </g>
     </g>
     <g id="text_10">
      <!-- 600 -->
      <g transform="translate(23.132812 210.081236)scale(0.1 -0.1)">
       <use xlink:href="#DejaVuSans-8722"/>
       <use x="83.789062" xlink:href="#DejaVuSans-54"/>
       <use x="147.412109" xlink:href="#DejaVuSans-48"/>
       <use x="211.035156" xlink:href="#DejaVuSans-48"/>
      </g>
     </g>
    </g>
    <g id="ytick_4">
     <g id="line2d_12">
      <g>
       <use style="stroke:#000000;stroke-width:0.8;" x="57.6" xlink:href="#m98b6a347c9" y="167.85518"/>
      </g>
     </g>
     <g id="text_11">
      <!-- 400 -->
      <g transform="translate(23.132812 171.654398)scale(0.1 -0.1)">
       <use xlink:href="#DejaVuSans-8722"/>
       <use x="83.789062" xlink:href="#DejaVuSans-52"/>
       <use x="147.412109" xlink:href="#DejaVuSans-48"/>
       <use x="211.035156" xlink:href="#DejaVuSans-48"/>
      </g>
     </g>
    </g>
    <g id="ytick_5">
     <g id="line2d_13">
      <g>
       <use style="stroke:#000000;stroke-width:0.8;" x="57.6" xlink:href="#m98b6a347c9" y="129.428342"/>
      </g>
     </g>
     <g id="text_12">
      <!-- 200 -->
      <g transform="translate(23.132812 133.227561)scale(0.1 -0.1)">
       <use xlink:href="#DejaVuSans-8722"/>
       <use x="83.789062" xlink:href="#DejaVuSans-50"/>
       <use x="147.412109" xlink:href="#DejaVuSans-48"/>
       <use x="211.035156" xlink:href="#DejaVuSans-48"/>
      </g>
     </g>
    </g>
    <g id="ytick_6">
     <g id="line2d_14">
      <g>
       <use style="stroke:#000000;stroke-width:0.8;" x="57.6" xlink:href="#m98b6a347c9" y="91.001504"/>
      </g>
     </g>
     <g id="text_13">
      <!-- 0 -->
      <g transform="translate(44.2375 94.800723)scale(0.1 -0.1)">
       <use xlink:href="#DejaVuSans-48"/>
      </g>
     </g>
    </g>
    <g id="ytick_7">
     <g id="line2d_15">
      <g>
       <use style="stroke:#000000;stroke-width:0.8;" x="57.6" xlink:href="#m98b6a347c9" y="52.574666"/>
      </g>
     </g>
     <g id="text_14">
      <!-- 200 -->
      <g transform="translate(31.5125 56.373885)scale(0.1 -0.1)">
       <use xlink:href="#DejaVuSans-50"/>
       <use x="63.623047" xlink:href="#DejaVuSans-48"/>
       <use x="127.246094" xlink:href="#DejaVuSans-48"/>
      </g>
     </g>
    </g>
   </g>
   <g id="line2d_16">
    <path clip-path="url(#pa06b28beaf)" d="M 305.801289 140.834941 
L 330.326738 196.061553 
L 127.592113 216.33446 
L 240.626998 59.08915 
L 391.288467 237.685146 
L 381.285761 253.400866 
L 79.440462 275.126497 
L 79.263928 289.329784 
L 242.931513 73.965757 
L 373.759544 195.747388 
L 370.048987 212.671413 
L 372.554892 257.68309 
" style="fill:none;stroke:#ff0000;stroke-linecap:square;stroke-width:0.5;"/>
   </g>
   <g id="patch_3">
    <path d="M 57.6 307.584 
L 57.6 41.472 
" style="fill:none;stroke:#000000;stroke-linecap:square;stroke-linejoin:miter;stroke-width:0.8;"/>
   </g>
   <g id="patch_4">
    <path d="M 414.72 307.584 
L 414.72 41.472 
" style="fill:none;stroke:#000000;stroke-linecap:square;stroke-linejoin:miter;stroke-width:0.8;"/>
   </g>
   <g id="patch_5">
    <path d="M 57.6 307.584 
L 414.72 307.584 
" style="fill:none;stroke:#000000;stroke-linecap:square;stroke-linejoin:miter;stroke-width:0.8;"/>
   </g>
   <g id="patch_6">
    <path d="M 57.6 41.472 
L 414.72 41.472 
" style="fill:none;stroke:#000000;stroke-linecap:square;stroke-linejoin:miter;stroke-width:0.8;"/>
   </g>
   <g id="PathCollection_1">
    <defs>
     <path d="M 0 2.738613 
C 0.726289 2.738613 1.422928 2.450055 1.936492 1.936492 
C 2.450055 1.422928 2.738613 0.726289 2.738613 0 
C 2.738613 -0.726289 2.450055 -1.422928 1.936492 -1.936492 
C 1.422928 -2.450055 0.726289 -2.738613 0 -2.738613 
C -0.726289 -2.738613 -1.422928 -2.450055 -1.936492 -1.936492 
C -2.450055 -1.422928 -2.738613 -0.726289 -2.738613 0 
C -2.738613 0.726289 -2.450055 1.422928 -1.936492 1.936492 
C -1.422928 2.450055 -0.726289 2.738613 0 2.738613 
z
" id="mec91a5d627" style="stroke:#ff0000;"/>
    </defs>
    <g clip-path="url(#pa06b28beaf)">
     <use style="fill:#ff0000;stroke:#ff0000;" x="305.801289" xlink:href="#mec91a5d627" y="140.834941"/>
     <use style="fill:#ff0000;stroke:#ff0000;" x="330.326738" xlink:href="#mec91a5d627" y="196.061553"/>
     <use style="fill:#ff0000;stroke:#ff0000;" x="127.592113" xlink:href="#mec91a5d627" y="216.33446"/>
     <use style="fill:#ff0000;stroke:#ff0000;" x="240.626998" xlink:href="#mec91a5d627" y="59.08915"/>
     <use style="fill:#ff0000;stroke:#ff0000;" x="391.288467" xlink:href="#mec91a5d627" y="237.685146"/>
     <use style="fill:#ff0000;stroke:#ff0000;" x="381.285761" xlink:href="#mec91a5d627" y="253.400866"/>
     <use style="fill:#ff0000;stroke:#ff0000;" x="79.440462" xlink:href="#mec91a5d627" y="275.126497"/>
     <use style="fill:#ff0000;stroke:#ff0000;" x="79.263928" xlink:href="#mec91a5d627" y="289.329784"/>
     <use style="fill:#ff0000;stroke:#ff0000;" x="242.931513" xlink:href="#mec91a5d627" y="73.965757"/>
     <use style="fill:#ff0000;stroke:#ff0000;" x="373.759544" xlink:href="#mec91a5d627" y="195.747388"/>
     <use style="fill:#ff0000;stroke:#ff0000;" x="370.048987" xlink:href="#mec91a5d627" y="212.671413"/>
     <use style="fill:#ff0000;stroke:#ff0000;" x="372.554892" xlink:href="#mec91a5d627" y="257.68309"/>
    </g>
   </g>
   <g id="text_15">
    <!-- (144) Subject: s27, Known = False, Degree = 2, Duration = 0.1 -->
    <defs>
     <path d="M 31 75.875 
Q 24.46875 64.65625 21.28125 53.65625 
Q 18.109375 42.671875 18.109375 31.390625 
Q 18.109375 20.125 21.3125 9.0625 
Q 24.515625 -2 31 -13.1875 
L 23.1875 -13.1875 
Q 15.875 -1.703125 12.234375 9.375 
Q 8.59375 20.453125 8.59375 31.390625 
Q 8.59375 42.28125 12.203125 53.3125 
Q 15.828125 64.359375 23.1875 75.875 
z
" id="DejaVuSans-40"/>
     <path d="M 8.015625 75.875 
L 15.828125 75.875 
Q 23.140625 64.359375 26.78125 53.3125 
Q 30.421875 42.28125 30.421875 31.390625 
Q 30.421875 20.453125 26.78125 9.375 
Q 23.140625 -1.703125 15.828125 -13.1875 
L 8.015625 -13.1875 
Q 14.5 -2 17.703125 9.0625 
Q 20.90625 20.125 20.90625 31.390625 
Q 20.90625 42.671875 17.703125 53.65625 
Q 14.5 64.65625 8.015625 75.875 
z
" id="DejaVuSans-41"/>
     <path id="DejaVuSans-32"/>
     <path d="M 53.515625 70.515625 
L 53.515625 60.890625 
Q 47.90625 63.578125 42.921875 64.890625 
Q 37.9375 66.21875 33.296875 66.21875 
Q 25.25 66.21875 20.875 63.09375 
Q 16.5 59.96875 16.5 54.203125 
Q 16.5 49.359375 19.40625 46.890625 
Q 22.3125 44.4375 30.421875 42.921875 
L 36.375 41.703125 
Q 47.40625 39.59375 52.65625 34.296875 
Q 57.90625 29 57.90625 20.125 
Q 57.90625 9.515625 50.796875 4.046875 
Q 43.703125 -1.421875 29.984375 -1.421875 
Q 24.8125 -1.421875 18.96875 -0.25 
Q 13.140625 0.921875 6.890625 3.21875 
L 6.890625 13.375 
Q 12.890625 10.015625 18.65625 8.296875 
Q 24.421875 6.59375 29.984375 6.59375 
Q 38.421875 6.59375 43.015625 9.90625 
Q 47.609375 13.234375 47.609375 19.390625 
Q 47.609375 24.75 44.3125 27.78125 
Q 41.015625 30.8125 33.5 32.328125 
L 27.484375 33.5 
Q 16.453125 35.6875 11.515625 40.375 
Q 6.59375 45.0625 6.59375 53.421875 
Q 6.59375 63.09375 13.40625 68.65625 
Q 20.21875 74.21875 32.171875 74.21875 
Q 37.3125 74.21875 42.625 73.28125 
Q 47.953125 72.359375 53.515625 70.515625 
z
" id="DejaVuSans-83"/>
     <path d="M 8.5 21.578125 
L 8.5 54.6875 
L 17.484375 54.6875 
L 17.484375 21.921875 
Q 17.484375 14.15625 20.5 10.265625 
Q 23.53125 6.390625 29.59375 6.390625 
Q 36.859375 6.390625 41.078125 11.03125 
Q 45.3125 15.671875 45.3125 23.6875 
L 45.3125 54.6875 
L 54.296875 54.6875 
L 54.296875 0 
L 45.3125 0 
L 45.3125 8.40625 
Q 42.046875 3.421875 37.71875 1 
Q 33.40625 -1.421875 27.6875 -1.421875 
Q 18.265625 -1.421875 13.375 4.4375 
Q 8.5 10.296875 8.5 21.578125 
z
M 31.109375 56 
z
" id="DejaVuSans-117"/>
     <path d="M 48.6875 27.296875 
Q 48.6875 37.203125 44.609375 42.84375 
Q 40.53125 48.484375 33.40625 48.484375 
Q 26.265625 48.484375 22.1875 42.84375 
Q 18.109375 37.203125 18.109375 27.296875 
Q 18.109375 17.390625 22.1875 11.75 
Q 26.265625 6.109375 33.40625 6.109375 
Q 40.53125 6.109375 44.609375 11.75 
Q 48.6875 17.390625 48.6875 27.296875 
z
M 18.109375 46.390625 
Q 20.953125 51.265625 25.265625 53.625 
Q 29.59375 56 35.59375 56 
Q 45.5625 56 51.78125 48.09375 
Q 58.015625 40.1875 58.015625 27.296875 
Q 58.015625 14.40625 51.78125 6.484375 
Q 45.5625 -1.421875 35.59375 -1.421875 
Q 29.59375 -1.421875 25.265625 0.953125 
Q 20.953125 3.328125 18.109375 8.203125 
L 18.109375 0 
L 9.078125 0 
L 9.078125 75.984375 
L 18.109375 75.984375 
z
" id="DejaVuSans-98"/>
     <path d="M 9.421875 54.6875 
L 18.40625 54.6875 
L 18.40625 -0.984375 
Q 18.40625 -11.421875 14.421875 -16.109375 
Q 10.453125 -20.796875 1.609375 -20.796875 
L -1.8125 -20.796875 
L -1.8125 -13.1875 
L 0.59375 -13.1875 
Q 5.71875 -13.1875 7.5625 -10.8125 
Q 9.421875 -8.453125 9.421875 -0.984375 
z
M 9.421875 75.984375 
L 18.40625 75.984375 
L 18.40625 64.59375 
L 9.421875 64.59375 
z
" id="DejaVuSans-106"/>
     <path d="M 56.203125 29.59375 
L 56.203125 25.203125 
L 14.890625 25.203125 
Q 15.484375 15.921875 20.484375 11.0625 
Q 25.484375 6.203125 34.421875 6.203125 
Q 39.59375 6.203125 44.453125 7.46875 
Q 49.3125 8.734375 54.109375 11.28125 
L 54.109375 2.78125 
Q 49.265625 0.734375 44.1875 -0.34375 
Q 39.109375 -1.421875 33.890625 -1.421875 
Q 20.796875 -1.421875 13.15625 6.1875 
Q 5.515625 13.8125 5.515625 26.8125 
Q 5.515625 40.234375 12.765625 48.109375 
Q 20.015625 56 32.328125 56 
Q 43.359375 56 49.78125 48.890625 
Q 56.203125 41.796875 56.203125 29.59375 
z
M 47.21875 32.234375 
Q 47.125 39.59375 43.09375 43.984375 
Q 39.0625 48.390625 32.421875 48.390625 
Q 24.90625 48.390625 20.390625 44.140625 
Q 15.875 39.890625 15.1875 32.171875 
z
" id="DejaVuSans-101"/>
     <path d="M 48.78125 52.59375 
L 48.78125 44.1875 
Q 44.96875 46.296875 41.140625 47.34375 
Q 37.3125 48.390625 33.40625 48.390625 
Q 24.65625 48.390625 19.8125 42.84375 
Q 14.984375 37.3125 14.984375 27.296875 
Q 14.984375 17.28125 19.8125 11.734375 
Q 24.65625 6.203125 33.40625 6.203125 
Q 37.3125 6.203125 41.140625 7.25 
Q 44.96875 8.296875 48.78125 10.40625 
L 48.78125 2.09375 
Q 45.015625 0.34375 40.984375 -0.53125 
Q 36.96875 -1.421875 32.421875 -1.421875 
Q 20.0625 -1.421875 12.78125 6.34375 
Q 5.515625 14.109375 5.515625 27.296875 
Q 5.515625 40.671875 12.859375 48.328125 
Q 20.21875 56 33.015625 56 
Q 37.15625 56 41.109375 55.140625 
Q 45.0625 54.296875 48.78125 52.59375 
z
" id="DejaVuSans-99"/>
     <path d="M 18.3125 70.21875 
L 18.3125 54.6875 
L 36.8125 54.6875 
L 36.8125 47.703125 
L 18.3125 47.703125 
L 18.3125 18.015625 
Q 18.3125 11.328125 20.140625 9.421875 
Q 21.96875 7.515625 27.59375 7.515625 
L 36.8125 7.515625 
L 36.8125 0 
L 27.59375 0 
Q 17.1875 0 13.234375 3.875 
Q 9.28125 7.765625 9.28125 18.015625 
L 9.28125 47.703125 
L 2.6875 47.703125 
L 2.6875 54.6875 
L 9.28125 54.6875 
L 9.28125 70.21875 
z
" id="DejaVuSans-116"/>
     <path d="M 11.71875 12.40625 
L 22.015625 12.40625 
L 22.015625 0 
L 11.71875 0 
z
M 11.71875 51.703125 
L 22.015625 51.703125 
L 22.015625 39.3125 
L 11.71875 39.3125 
z
" id="DejaVuSans-58"/>
     <path d="M 44.28125 53.078125 
L 44.28125 44.578125 
Q 40.484375 46.53125 36.375 47.5 
Q 32.28125 48.484375 27.875 48.484375 
Q 21.1875 48.484375 17.84375 46.4375 
Q 14.5 44.390625 14.5 40.28125 
Q 14.5 37.15625 16.890625 35.375 
Q 19.28125 33.59375 26.515625 31.984375 
L 29.59375 31.296875 
Q 39.15625 29.25 43.1875 25.515625 
Q 47.21875 21.78125 47.21875 15.09375 
Q 47.21875 7.46875 41.1875 3.015625 
Q 35.15625 -1.421875 24.609375 -1.421875 
Q 20.21875 -1.421875 15.453125 -0.5625 
Q 10.6875 0.296875 5.421875 2 
L 5.421875 11.28125 
Q 10.40625 8.6875 15.234375 7.390625 
Q 20.0625 6.109375 24.8125 6.109375 
Q 31.15625 6.109375 34.5625 8.28125 
Q 37.984375 10.453125 37.984375 14.40625 
Q 37.984375 18.0625 35.515625 20.015625 
Q 33.0625 21.96875 24.703125 23.78125 
L 21.578125 24.515625 
Q 13.234375 26.265625 9.515625 29.90625 
Q 5.8125 33.546875 5.8125 39.890625 
Q 5.8125 47.609375 11.28125 51.796875 
Q 16.75 56 26.8125 56 
Q 31.78125 56 36.171875 55.265625 
Q 40.578125 54.546875 44.28125 53.078125 
z
" id="DejaVuSans-115"/>
     <path d="M 8.203125 72.90625 
L 55.078125 72.90625 
L 55.078125 68.703125 
L 28.609375 0 
L 18.3125 0 
L 43.21875 64.59375 
L 8.203125 64.59375 
z
" id="DejaVuSans-55"/>
     <path d="M 11.71875 12.40625 
L 22.015625 12.40625 
L 22.015625 4 
L 14.015625 -11.625 
L 7.71875 -11.625 
L 11.71875 4 
z
" id="DejaVuSans-44"/>
     <path d="M 9.8125 72.90625 
L 19.671875 72.90625 
L 19.671875 42.09375 
L 52.390625 72.90625 
L 65.09375 72.90625 
L 28.90625 38.921875 
L 67.671875 0 
L 54.6875 0 
L 19.671875 35.109375 
L 19.671875 0 
L 9.8125 0 
z
" id="DejaVuSans-75"/>
     <path d="M 54.890625 33.015625 
L 54.890625 0 
L 45.90625 0 
L 45.90625 32.71875 
Q 45.90625 40.484375 42.875 44.328125 
Q 39.84375 48.1875 33.796875 48.1875 
Q 26.515625 48.1875 22.3125 43.546875 
Q 18.109375 38.921875 18.109375 30.90625 
L 18.109375 0 
L 9.078125 0 
L 9.078125 54.6875 
L 18.109375 54.6875 
L 18.109375 46.1875 
Q 21.34375 51.125 25.703125 53.5625 
Q 30.078125 56 35.796875 56 
Q 45.21875 56 50.046875 50.171875 
Q 54.890625 44.34375 54.890625 33.015625 
z
" id="DejaVuSans-110"/>
     <path d="M 30.609375 48.390625 
Q 23.390625 48.390625 19.1875 42.75 
Q 14.984375 37.109375 14.984375 27.296875 
Q 14.984375 17.484375 19.15625 11.84375 
Q 23.34375 6.203125 30.609375 6.203125 
Q 37.796875 6.203125 41.984375 11.859375 
Q 46.1875 17.53125 46.1875 27.296875 
Q 46.1875 37.015625 41.984375 42.703125 
Q 37.796875 48.390625 30.609375 48.390625 
z
M 30.609375 56 
Q 42.328125 56 49.015625 48.375 
Q 55.71875 40.765625 55.71875 27.296875 
Q 55.71875 13.875 49.015625 6.21875 
Q 42.328125 -1.421875 30.609375 -1.421875 
Q 18.84375 -1.421875 12.171875 6.21875 
Q 5.515625 13.875 5.515625 27.296875 
Q 5.515625 40.765625 12.171875 48.375 
Q 18.84375 56 30.609375 56 
z
" id="DejaVuSans-111"/>
     <path d="M 4.203125 54.6875 
L 13.1875 54.6875 
L 24.421875 12.015625 
L 35.59375 54.6875 
L 46.1875 54.6875 
L 57.421875 12.015625 
L 68.609375 54.6875 
L 77.59375 54.6875 
L 63.28125 0 
L 52.6875 0 
L 40.921875 44.828125 
L 29.109375 0 
L 18.5 0 
z
" id="DejaVuSans-119"/>
     <path d="M 10.59375 45.40625 
L 73.1875 45.40625 
L 73.1875 37.203125 
L 10.59375 37.203125 
z
M 10.59375 25.484375 
L 73.1875 25.484375 
L 73.1875 17.1875 
L 10.59375 17.1875 
z
" id="DejaVuSans-61"/>
     <path d="M 9.8125 72.90625 
L 51.703125 72.90625 
L 51.703125 64.59375 
L 19.671875 64.59375 
L 19.671875 43.109375 
L 48.578125 43.109375 
L 48.578125 34.8125 
L 19.671875 34.8125 
L 19.671875 0 
L 9.8125 0 
z
" id="DejaVuSans-70"/>
     <path d="M 34.28125 27.484375 
Q 23.390625 27.484375 19.1875 25 
Q 14.984375 22.515625 14.984375 16.5 
Q 14.984375 11.71875 18.140625 8.90625 
Q 21.296875 6.109375 26.703125 6.109375 
Q 34.1875 6.109375 38.703125 11.40625 
Q 43.21875 16.703125 43.21875 25.484375 
L 43.21875 27.484375 
z
M 52.203125 31.203125 
L 52.203125 0 
L 43.21875 0 
L 43.21875 8.296875 
Q 40.140625 3.328125 35.546875 0.953125 
Q 30.953125 -1.421875 24.3125 -1.421875 
Q 15.921875 -1.421875 10.953125 3.296875 
Q 6 8.015625 6 15.921875 
Q 6 25.140625 12.171875 29.828125 
Q 18.359375 34.515625 30.609375 34.515625 
L 43.21875 34.515625 
L 43.21875 35.40625 
Q 43.21875 41.609375 39.140625 45 
Q 35.0625 48.390625 27.6875 48.390625 
Q 23 48.390625 18.546875 47.265625 
Q 14.109375 46.140625 10.015625 43.890625 
L 10.015625 52.203125 
Q 14.9375 54.109375 19.578125 55.046875 
Q 24.21875 56 28.609375 56 
Q 40.484375 56 46.34375 49.84375 
Q 52.203125 43.703125 52.203125 31.203125 
z
" id="DejaVuSans-97"/>
     <path d="M 9.421875 75.984375 
L 18.40625 75.984375 
L 18.40625 0 
L 9.421875 0 
z
" id="DejaVuSans-108"/>
     <path d="M 19.671875 64.796875 
L 19.671875 8.109375 
L 31.59375 8.109375 
Q 46.6875 8.109375 53.6875 14.9375 
Q 60.6875 21.78125 60.6875 36.53125 
Q 60.6875 51.171875 53.6875 57.984375 
Q 46.6875 64.796875 31.59375 64.796875 
z
M 9.8125 72.90625 
L 30.078125 72.90625 
Q 51.265625 72.90625 61.171875 64.09375 
Q 71.09375 55.28125 71.09375 36.53125 
Q 71.09375 17.671875 61.125 8.828125 
Q 51.171875 0 30.078125 0 
L 9.8125 0 
z
" id="DejaVuSans-68"/>
     <path d="M 45.40625 27.984375 
Q 45.40625 37.75 41.375 43.109375 
Q 37.359375 48.484375 30.078125 48.484375 
Q 22.859375 48.484375 18.828125 43.109375 
Q 14.796875 37.75 14.796875 27.984375 
Q 14.796875 18.265625 18.828125 12.890625 
Q 22.859375 7.515625 30.078125 7.515625 
Q 37.359375 7.515625 41.375 12.890625 
Q 45.40625 18.265625 45.40625 27.984375 
z
M 54.390625 6.78125 
Q 54.390625 -7.171875 48.1875 -13.984375 
Q 42 -20.796875 29.203125 -20.796875 
Q 24.46875 -20.796875 20.265625 -20.09375 
Q 16.0625 -19.390625 12.109375 -17.921875 
L 12.109375 -9.1875 
Q 16.0625 -11.328125 19.921875 -12.34375 
Q 23.78125 -13.375 27.78125 -13.375 
Q 36.625 -13.375 41.015625 -8.765625 
Q 45.40625 -4.15625 45.40625 5.171875 
L 45.40625 9.625 
Q 42.625 4.78125 38.28125 2.390625 
Q 33.9375 0 27.875 0 
Q 17.828125 0 11.671875 7.65625 
Q 5.515625 15.328125 5.515625 27.984375 
Q 5.515625 40.671875 11.671875 48.328125 
Q 17.828125 56 27.875 56 
Q 33.9375 56 38.28125 53.609375 
Q 42.625 51.21875 45.40625 46.390625 
L 45.40625 54.6875 
L 54.390625 54.6875 
z
" id="DejaVuSans-103"/>
     <path d="M 41.109375 46.296875 
Q 39.59375 47.171875 37.8125 47.578125 
Q 36.03125 48 33.890625 48 
Q 26.265625 48 22.1875 43.046875 
Q 18.109375 38.09375 18.109375 28.8125 
L 18.109375 0 
L 9.078125 0 
L 9.078125 54.6875 
L 18.109375 54.6875 
L 18.109375 46.1875 
Q 20.953125 51.171875 25.484375 53.578125 
Q 30.03125 56 36.53125 56 
Q 37.453125 56 38.578125 55.875 
Q 39.703125 55.765625 41.0625 55.515625 
z
" id="DejaVuSans-114"/>
     <path d="M 9.421875 54.6875 
L 18.40625 54.6875 
L 18.40625 0 
L 9.421875 0 
z
M 9.421875 75.984375 
L 18.40625 75.984375 
L 18.40625 64.59375 
L 9.421875 64.59375 
z
" id="DejaVuSans-105"/>
     <path d="M 10.6875 12.40625 
L 21 12.40625 
L 21 0 
L 10.6875 0 
z
" id="DejaVuSans-46"/>
    </defs>
    <g transform="translate(45.924375 35.472)scale(0.12 -0.12)">
     <use xlink:href="#DejaVuSans-40"/>
     <use x="39.013672" xlink:href="#DejaVuSans-49"/>
     <use x="102.636719" xlink:href="#DejaVuSans-52"/>
     <use x="166.259766" xlink:href="#DejaVuSans-52"/>
     <use x="229.882812" xlink:href="#DejaVuSans-41"/>
     <use x="268.896484" xlink:href="#DejaVuSans-32"/>
     <use x="300.683594" xlink:href="#DejaVuSans-83"/>
     <use x="364.160156" xlink:href="#DejaVuSans-117"/>
     <use x="427.539062" xlink:href="#DejaVuSans-98"/>
     <use x="491.015625" xlink:href="#DejaVuSans-106"/>
     <use x="518.798828" xlink:href="#DejaVuSans-101"/>
     <use x="580.322266" xlink:href="#DejaVuSans-99"/>
     <use x="635.302734" xlink:href="#DejaVuSans-116"/>
     <use x="674.511719" xlink:href="#DejaVuSans-58"/>
     <use x="708.203125" xlink:href="#DejaVuSans-32"/>
     <use x="739.990234" xlink:href="#DejaVuSans-115"/>
     <use x="792.089844" xlink:href="#DejaVuSans-50"/>
     <use x="855.712891" xlink:href="#DejaVuSans-55"/>
     <use x="919.335938" xlink:href="#DejaVuSans-44"/>
     <use x="951.123047" xlink:href="#DejaVuSans-32"/>
     <use x="982.910156" xlink:href="#DejaVuSans-75"/>
     <use x="1048.486328" xlink:href="#DejaVuSans-110"/>
     <use x="1111.865234" xlink:href="#DejaVuSans-111"/>
     <use x="1173.046875" xlink:href="#DejaVuSans-119"/>
     <use x="1254.833984" xlink:href="#DejaVuSans-110"/>
     <use x="1318.212891" xlink:href="#DejaVuSans-32"/>
     <use x="1350" xlink:href="#DejaVuSans-61"/>
     <use x="1433.789062" xlink:href="#DejaVuSans-32"/>
     <use x="1465.576172" xlink:href="#DejaVuSans-70"/>
     <use x="1522.955078" xlink:href="#DejaVuSans-97"/>
     <use x="1584.234375" xlink:href="#DejaVuSans-108"/>
     <use x="1612.017578" xlink:href="#DejaVuSans-115"/>
     <use x="1664.117188" xlink:href="#DejaVuSans-101"/>
     <use x="1725.640625" xlink:href="#DejaVuSans-44"/>
     <use x="1757.427734" xlink:href="#DejaVuSans-32"/>
     <use x="1789.214844" xlink:href="#DejaVuSans-68"/>
     <use x="1866.216797" xlink:href="#DejaVuSans-101"/>
     <use x="1927.740234" xlink:href="#DejaVuSans-103"/>
     <use x="1991.216797" xlink:href="#DejaVuSans-114"/>
     <use x="2032.298828" xlink:href="#DejaVuSans-101"/>
     <use x="2093.822266" xlink:href="#DejaVuSans-101"/>
     <use x="2155.345703" xlink:href="#DejaVuSans-32"/>
     <use x="2187.132812" xlink:href="#DejaVuSans-61"/>
     <use x="2270.921875" xlink:href="#DejaVuSans-32"/>
     <use x="2302.708984" xlink:href="#DejaVuSans-50"/>
     <use x="2366.332031" xlink:href="#DejaVuSans-44"/>
     <use x="2398.119141" xlink:href="#DejaVuSans-32"/>
     <use x="2429.90625" xlink:href="#DejaVuSans-68"/>
     <use x="2506.908203" xlink:href="#DejaVuSans-117"/>
     <use x="2570.287109" xlink:href="#DejaVuSans-114"/>
     <use x="2611.400391" xlink:href="#DejaVuSans-97"/>
     <use x="2672.679688" xlink:href="#DejaVuSans-116"/>
     <use x="2711.888672" xlink:href="#DejaVuSans-105"/>
     <use x="2739.671875" xlink:href="#DejaVuSans-111"/>
     <use x="2800.853516" xlink:href="#DejaVuSans-110"/>
     <use x="2864.232422" xlink:href="#DejaVuSans-32"/>
     <use x="2896.019531" xlink:href="#DejaVuSans-61"/>
     <use x="2979.808594" xlink:href="#DejaVuSans-32"/>
     <use x="3011.595703" xlink:href="#DejaVuSans-48"/>
     <use x="3075.21875" xlink:href="#DejaVuSans-46"/>
     <use x="3107.005859" xlink:href="#DejaVuSans-49"/>
    </g>
   </g>
  </g>
 </g>
 <defs>
  <clipPath id="pa06b28beaf">
   <rect height="266.112" width="357.12" x="57.6" y="41.472"/>
  </clipPath>
 </defs>
</svg>
