<?xml version="1.0" encoding="utf-8" standalone="no"?>
<!DOCTYPE svg PUBLIC "-//W3C//DTD SVG 1.1//EN"
  "http://www.w3.org/Graphics/SVG/1.1/DTD/svg11.dtd">
<!-- Created with matplotlib (https://matplotlib.org/) -->
<svg height="345.6pt" version="1.1" viewBox="0 0 460.8 345.6" width="460.8pt" xmlns="http://www.w3.org/2000/svg" xmlns:xlink="http://www.w3.org/1999/xlink">
 <defs>
  <style type="text/css">
*{stroke-linecap:butt;stroke-linejoin:round;}
  </style>
 </defs>
 <g id="figure_1">
  <g id="patch_1">
   <path d="M 0 345.6 
L 460.8 345.6 
L 460.8 0 
L 0 0 
z
" style="fill:#ffffff;"/>
  </g>
  <g id="axes_1">
   <g id="patch_2">
    <path d="M 57.6 307.584 
L 414.72 307.584 
L 414.72 41.472 
L 57.6 41.472 
z
" style="fill:#ffffff;"/>
   </g>
   <g id="line2d_1">
    <path clip-path="url(#p4fff2e23fe)" d="M 398.045286 291.57519 
L 398.338935 290.652826 
L 398.045286 290.884451 
L 397.754664 291.343565 
L 397.606326 291.343565 
L 397.754664 290.884451 
L 398.045286 290.652826 
L 398.487273 291.11194 
L 398.487273 291.343565 
L 398.045286 291.57519 
L 397.606326 291.57519 
L 397.461015 291.343565 
L 397.461015 291.11194 
L 397.312677 291.343565 
L 397.312677 291.57519 
L 398.193624 291.802679 
L 398.045286 292.034304 
L 397.754664 292.034304 
L 397.461015 291.802679 
L 397.606326 290.884451 
L 397.899975 290.884451 
L 398.045286 291.343565 
L 397.754664 291.802679 
L 398.045286 291.802679 
L 398.045286 292.034304 
L 397.754664 290.884451 
L 397.606326 290.652826 
L 397.606326 290.884451 
L 397.754664 291.11194 
L 397.754664 291.57519 
L 397.899975 292.26593 
L 398.193624 292.26593 
L 398.338935 291.343565 
L 398.193624 292.034304 
L 398.193624 291.343565 
L 397.899975 290.652826 
L 397.312677 290.421201 
L 397.022056 290.652826 
L 397.312677 291.57519 
L 397.606326 290.652826 
L 397.312677 291.802679 
L 397.461015 292.034304 
L 397.754664 291.802679 
L 397.899975 291.11194 
L 397.754664 291.11194 
L 397.606326 291.343565 
L 397.606326 292.034304 
L 397.312677 292.034304 
L 397.022056 291.802679 
L 397.022056 291.343565 
L 397.022056 291.343565 
L 397.167367 291.57519 
L 398.193624 292.034304 
L 398.487273 292.26593 
L 397.606326 292.26593 
L 397.606326 292.493418 
L 397.606326 292.493418 
L 397.461015 292.034304 
L 397.754664 292.725044 
L 397.606326 292.956669 
L 397.312677 292.956669 
L 397.167367 292.26593 
L 397.167367 292.493418 
L 397.461015 292.725044 
L 397.754664 292.493418 
L 397.754664 292.493418 
L 397.606326 293.184158 
L 397.899975 293.415783 
L 398.338935 293.184158 
L 398.338935 292.956669 
L 397.899975 292.493418 
L 397.461015 292.493418 
L 396.873718 293.184158 
L 397.022056 293.643272 
L 397.167367 293.415783 
L 397.461015 293.643272 
L 397.461015 293.874897 
L 397.606326 294.334011 
L 397.606326 294.334011 
L 396.728407 293.643272 
L 396.289447 293.874897 
L 396.289447 294.106522 
L 396.728407 293.415783 
L 397.167367 293.643272 
L 397.606326 294.334011 
L 397.461015 294.565636 
L 397.167367 294.565636 
L 396.580069 294.334011 
L 396.434758 294.334011 
L 396.434758 294.334011 
L 396.728407 294.106522 
L 397.022056 295.256375 
L 397.022056 295.256375 
L 396.873718 295.02475 
L 396.873718 294.797261 
L 396.873718 294.797261 
L 396.728407 294.565636 
L 396.434758 294.565636 
L 396.141109 295.02475 
L 396.434758 295.488 
L 396.873718 295.488 
L 396.728407 295.256375 
L 396.289447 294.797261 
L 396.141109 294.334011 
L 396.141109 294.565636 
L 396.728407 295.02475 
L 397.167367 294.797261 
L 397.312677 295.02475 
L 396.873718 295.256375 
L 396.728407 294.797261 
L 396.434758 294.797261 
L 396.289447 294.565636 
L 395.995798 294.334011 
L 395.995798 294.106522 
L 396.141109 294.106522 
L 396.141109 294.334011 
L 395.995798 294.797261 
L 396.141109 294.565636 
L 396.873718 293.643272 
L 396.434758 292.493418 
L 396.580069 292.725044 
L 396.728407 292.725044 
L 396.728407 292.26593 
L 396.873718 291.802679 
L 397.022056 291.802679 
L 397.022056 292.493418 
L 396.728407 292.725044 
L 396.289447 292.493418 
L 396.289447 292.493418 
L 396.434758 292.26593 
L 396.434758 292.034304 
L 396.728407 291.57519 
L 396.728407 291.57519 
L 396.580069 292.034304 
L 396.728407 292.034304 
L 397.167367 290.884451 
L 397.022056 291.11194 
L 396.580069 291.343565 
L 396.289447 291.802679 
L 396.289447 292.26593 
L 396.580069 292.26593 
L 396.728407 292.034304 
L 396.580069 291.802679 
L 396.289447 292.26593 
L 395.995798 292.26593 
L 395.995798 291.802679 
L 395.84746 291.343565 
L 395.556839 291.343565 
L 395.556839 291.343565 
L 396.141109 292.034304 
L 395.995798 291.802679 
L 395.70215 291.802679 
L 395.556839 292.034304 
L 395.556839 292.034304 
L 395.556839 291.802679 
L 395.84746 291.343565 
L 395.84746 291.343565 
L 395.556839 291.57519 
L 395.408501 291.343565 
L 394.969541 291.343565 
L 394.236933 291.57519 
L 392.920054 291.802679 
L 391.161188 291.802679 
L 388.963362 291.57519 
L 386.326577 291.11194 
L 382.957184 290.652826 
L 378.855182 290.652826 
L 374.020571 290.421201 
L 368.453352 289.502973 
L 357.612563 287.199131 
L 351.751695 285.817652 
L 345.745516 284.899424 
L 339.590999 284.436174 
L 333.145861 283.517946 
L 326.697695 281.904843 
L 320.107246 279.832625 
L 313.365431 277.073805 
L 306.626644 273.851735 
L 300.036195 270.398039 
L 293.881678 266.48523 
L 288.02081 262.57242 
L 277.180021 255.896654 
L 266.778191 248.071035 
L 262.530878 244.385714 
L 258.867836 240.70453 
L 255.498442 237.023345 
L 251.690089 233.106399 
L 243.631396 225.28078 
L 237.186257 218.836639 
L 234.694783 215.846194 
L 226.929738 208.711314 
L 224.731913 205.948357 
L 221.801479 201.344809 
L 221.068871 199.731705 
L 220.775222 198.813477 
L 220.775222 198.350227 
L 220.336262 198.122738 
L 220.629911 198.122738 
L 222.388777 198.581852 
L 223.705656 199.040966 
L 224.438264 200.194955 
L 224.731913 201.113184 
L 224.731913 200.881558 
L 225.170873 201.344809 
L 225.464521 202.263037 
L 225.464521 202.953776 
L 225.319211 202.953776 
L 224.877224 202.726287 
L 224.292953 202.726287 
L 223.853994 202.953776 
L 224.144615 202.953776 
L 224.144615 203.417026 
L 223.999304 204.107765 
L 223.853994 204.107765 
L 223.412007 201.113184 
L 223.560345 201.113184 
L 223.999304 201.572298 
L 224.292953 202.263037 
L 224.438264 202.953776 
L 224.731913 202.953776 
L 224.731913 202.263037 
L 225.025562 200.65407 
L 224.877224 200.422444 
L 224.877224 200.422444 
L 225.903481 200.881558 
L 226.051819 200.65407 
L 225.75817 200.422444 
L 225.319211 200.881558 
L 225.319211 200.65407 
L 225.464521 199.731705 
L 225.75817 199.040966 
L 225.903481 199.040966 
L 226.490779 199.272591 
L 226.784428 199.040966 
L 226.63609 199.272591 
L 226.490779 199.731705 
L 226.490779 198.122738 
L 226.784428 198.122738 
L 226.929738 197.891113 
L 226.929738 197.431999 
L 227.223387 197.200374 
L 227.662347 197.200374 
L 228.101307 197.659488 
L 228.101307 196.74126 
L 227.807658 194.669043 
L 227.955996 194.900668 
L 228.833915 194.900668 
L 228.688604 194.669043 
L 228.688604 193.978303 
L 228.979226 193.287564 
L 228.688604 191.906086 
L 229.566524 191.906086 
L 229.421213 191.446972 
L 228.833915 190.983722 
L 228.688604 191.215347 
L 228.688604 191.215347 
L 228.979226 190.297119 
L 228.979226 190.524608 
L 229.127564 191.215347 
L 229.272875 191.215347 
L 229.272875 189.14313 
L 229.421213 189.14313 
L 229.421213 188.915641 
L 229.272875 187.761651 
L 229.421213 186.611798 
L 229.711834 186.611798 
L 229.860172 187.302537 
L 230.299132 187.993277 
L 230.299132 187.993277 
L 229.711834 185.921059 
L 230.444443 185.461945 
L 230.153821 185.69357 
L 230.299132 185.23032 
L 230.153821 184.771206 
L 230.005483 185.002831 
L 230.299132 184.771206 
L 230.738092 184.080467 
L 231.031741 183.389728 
L 231.031741 183.389728 
L 230.005483 183.848842 
L 229.566524 183.848842 
L 229.127564 183.389728 
L 228.246617 182.930614 
L 226.929738 182.698989 
L 222.679398 181.090022 
L 219.751992 179.708543 
L 216.23426 178.327065 
L 207.736607 175.795734 
L 197.483115 172.110413 
L 191.767558 170.269821 
L 185.909717 167.506864 
L 179.900511 164.516419 
L 168.327114 158.299767 
L 159.096852 152.546365 
L 154.849539 149.783409 
L 151.041186 146.792963 
L 148.256063 143.798382 
L 145.619278 140.576311 
L 140.200397 134.822909 
L 137.560584 131.600839 
L 135.511097 128.147143 
L 133.313271 125.156698 
L 127.600742 119.171671 
L 124.376659 116.408715 
L 120.713616 114.104872 
L 116.611614 111.805166 
L 112.215963 109.04221 
L 107.675001 106.510878 
L 103.13404 104.207036 
L 99.177348 102.366443 
L 95.514306 101.448215 
L 91.560642 100.984965 
L 87.897599 100.294226 
L 84.673517 99.375998 
L 81.891421 98.222009 
L 79.106297 97.303781 
L 76.908472 96.153928 
L 75.297944 94.999938 
L 74.271687 93.850085 
L 73.832727 93.159346 
L 73.978038 92.468607 
L 74.420025 92.468607 
L 76.324202 91.777868 
L 77.641081 91.087129 
L 78.522027 91.087129 
L 79.254636 91.318754 
L 80.132555 90.85964 
L 81.304123 90.39639 
L 82.33038 90.39639 
L 83.062989 90.628015 
L 83.356638 90.39639 
L 83.647259 90.628015 
L 83.501948 91.318754 
L 83.647259 90.39639 
L 83.647259 90.168901 
L 83.795597 90.39639 
L 83.940908 90.85964 
L 83.940908 91.318754 
L 83.356638 92.468607 
L 83.062989 92.468607 
L 83.356638 91.550379 
L 83.2083 92.009493 
L 82.914651 92.241118 
L 83.356638 92.009493 
L 83.647259 92.468607 
L 83.795597 93.159346 
L 84.234557 93.159346 
L 84.234557 93.159346 
L 84.089246 93.390971 
L 83.940908 94.08171 
L 84.089246 93.61846 
L 84.089246 92.468607 
L 85.112476 93.61846 
L 85.112476 94.08171 
L 84.821855 94.540824 
L 84.528206 94.08171 
L 84.234557 93.390971 
L 84.528206 92.931857 
L 84.967165 92.931857 
L 85.554463 93.159346 
L 85.699774 93.850085 
L 85.699774 94.540824 
L 85.845085 95.231563 
L 85.993423 95.231563 
L 85.699774 94.309199 
L 85.406125 94.309199 
L 85.112476 94.540824 
L 85.112476 95.231563 
L 85.699774 96.381417 
L 85.845085 96.613042 
L 85.406125 95.922303 
L 85.260814 95.231563 
L 85.260814 94.309199 
L 85.406125 94.08171 
L 84.821855 95.463188 
L 85.406125 95.463188 
L 85.845085 95.690677 
L 86.138734 95.690677 
L 86.138734 95.231563 
L 86.284044 94.772449 
L 86.138734 94.772449 
L 85.699774 94.999938 
L 85.554463 95.231563 
L 86.726031 96.613042 
L 86.432382 96.613042 
L 86.284044 96.381417 
L 86.432382 95.922303 
L 86.577693 95.922303 
L 85.845085 95.922303 
L 85.993423 96.153928 
L 86.284044 96.381417 
L 86.432382 96.844667 
L 86.138734 96.844667 
L 85.993423 96.613042 
L 86.284044 96.153928 
L 86.871342 95.463188 
L 86.726031 96.153928 
L 86.726031 96.844667 
L 87.016653 96.381417 
L 87.016653 96.381417 
L 87.164991 96.613042 
L 87.164991 97.072156 
L 87.016653 97.072156 
L 86.871342 96.844667 
L 86.726031 95.922303 
L 87.016653 95.231563 
L 87.016653 95.463188 
L 87.016653 95.922303 
L 87.310302 96.153928 
L 87.897599 96.381417 
L 87.897599 96.381417 
L 87.164991 95.690677 
L 87.016653 95.922303 
L 87.164991 96.844667 
L 87.016653 95.690677 
L 87.310302 95.231563 
L 87.603951 95.231563 
L 87.749261 95.463188 
L 87.749261 95.922303 
L 87.749261 95.922303 
L 87.897599 95.690677 
L 87.749261 95.231563 
L 87.164991 94.772449 
L 87.164991 94.772449 
L 87.45864 95.231563 
L 87.749261 95.231563 
L 87.749261 94.772449 
L 87.603951 94.309199 
L 87.603951 94.309199 
L 87.603951 94.772449 
L 87.164991 94.772449 
L 87.016653 94.540824 
L 87.310302 94.08171 
L 88.04291 93.61846 
L 88.48187 93.850085 
L 88.630208 94.309199 
L 88.775519 94.309199 
L 88.923857 94.08171 
L 88.775519 94.309199 
L 88.775519 94.772449 
L 88.775519 94.772449 
L 88.630208 94.540824 
L 88.191248 94.08171 
L 88.04291 93.159346 
L 88.775519 93.61846 
L 88.923857 93.850085 
L 88.923857 93.390971 
L 88.775519 92.700232 
L 88.775519 93.159346 
L 88.630208 93.61846 
L 88.48187 93.61846 
L 88.48187 93.61846 
L 88.775519 93.390971 
L 88.775519 93.159346 
L 88.48187 92.700232 
L 88.48187 92.700232 
L 88.923857 92.241118 
L 88.630208 92.241118 
L 88.48187 92.700232 
L 88.630208 92.931857 
L 89.508127 92.931857 
L 89.656465 93.159346 
L 89.069168 92.700232 
L 88.923857 92.241118 
L 89.069168 92.009493 
L 89.508127 92.009493 
L 89.508127 92.241118 
L 89.508127 92.009493 
L 89.656465 91.777868 
L 89.656465 92.241118 
L 89.947087 92.468607 
L 90.240736 91.087129 
L 90.534385 91.087129 
L 90.973344 91.318754 
L 91.266993 91.318754 
L 91.266993 91.087129 
L 90.679695 90.85964 
L 90.389074 91.087129 
L 90.389074 91.087129 
L 90.679695 90.168901 
L 90.534385 90.628015 
L 90.679695 90.85964 
L 91.121682 90.85964 
L 91.121682 90.628015 
L 90.828033 89.937276 
L 90.389074 89.246536 
L 89.947087 89.014911 
L 90.095425 89.246536 
L 90.534385 89.478162 
L 91.412304 89.478162 
L 91.266993 89.478162 
L 90.973344 89.937276 
L 90.679695 89.937276 
L 90.240736 89.246536 
L 91.121682 88.555797 
L 91.412304 87.865058 
L 91.560642 87.865058 
L 91.412304 89.014911 
L 91.121682 89.937276 
L 90.828033 89.937276 
L 91.121682 88.096683 
L 91.121682 87.865058 
L 91.412304 87.637569 
L 91.705953 88.096683 
L 91.705953 89.014911 
L 91.560642 89.014911 
L 91.560642 88.787422 
L 91.705953 88.328308 
L 91.705953 87.637569 
L 91.560642 87.405944 
L 91.266993 87.637569 
L 91.266993 87.865058 
L 91.999602 88.328308 
L 91.851263 88.555797 
L 91.705953 88.555797 
L 91.560642 88.787422 
L 91.560642 88.787422 
L 91.999602 87.405944 
L 92.29325 87.405944 
L 92.29325 88.096683 
L 91.999602 88.555797 
L 91.705953 88.555797 
L 91.412304 87.174319 
L 91.412304 87.405944 
L 91.412304 87.865058 
L 91.560642 87.865058 
L 91.999602 87.637569 
L 91.851263 87.637569 
L 91.412304 87.174319 
L 91.412304 87.637569 
L 91.266993 87.865058 
L 91.266993 88.096683 
L 91.999602 88.096683 
L 92.438561 88.328308 
L 92.29325 88.096683 
L 92.144912 87.637569 
L 92.144912 86.48358 
L 91.999602 86.48358 
L 91.851263 86.94683 
L 91.851263 87.637569 
L 91.999602 87.637569 
L 92.29325 87.174319 
L 92.438561 86.715205 
L 92.29325 87.174319 
L 92.29325 87.637569 
L 92.144912 87.637569 
L 92.29325 87.174319 
L 92.583872 86.715205 
L 92.583872 86.715205 
L 92.73221 87.174319 
L 93.025859 87.174319 
L 93.025859 87.174319 
L 92.438561 86.715205 
L 92.29325 86.024466 
L 92.438561 85.565352 
L 92.73221 85.792841 
L 92.73221 86.48358 
L 92.583872 86.715205 
L 92.583872 86.715205 
L 93.464818 86.715205 
L 93.31648 86.94683 
L 93.17117 87.405944 
L 93.17117 87.174319 
L 93.025859 86.256091 
L 93.025859 86.256091 
L 93.17117 86.48358 
L 93.31648 86.024466 
L 93.31648 85.565352 
L 93.17117 85.565352 
L 93.17117 85.792841 
L 93.31648 85.792841 
L 93.464818 85.333727 
L 94.049089 84.642988 
L 93.758467 85.102102 
L 93.610129 85.565352 
L 93.464818 85.565352 
L 93.31648 85.333727 
L 93.17117 85.333727 
L 93.31648 85.102102 
L 93.464818 84.411363 
L 93.758467 84.642988 
L 93.903778 85.102102 
L 94.049089 84.874613 
L 94.049089 84.642988 
L 93.31648 84.642988 
L 93.31648 84.874613 
L 93.610129 84.642988 
L 93.758467 84.183874 
L 94.197427 84.411363 
L 94.342738 85.102102 
L 94.049089 84.183874 
L 93.610129 83.72476 
L 94.049089 84.183874 
L 94.491076 83.952249 
L 94.197427 83.493135 
L 93.758467 83.26151 
L 93.758467 84.642988 
L 93.610129 85.102102 
L 93.17117 84.642988 
L 93.17117 83.493135 
L 93.758467 82.343282 
L 94.049089 82.343282 
L 94.049089 82.802396 
L 94.491076 83.034021 
L 95.662644 83.72476 
L 103.572999 83.72476 
L 106.648744 83.26151 
L 110.166476 83.26151 
L 117.489533 82.802396 
L 121.152576 82.802396 
L 125.402916 83.034021 
L 130.089189 83.493135 
L 134.484839 84.183874 
L 138.586842 84.642988 
L 142.688844 84.874613 
L 146.939184 85.333727 
L 150.602226 86.256091 
L 157.047365 86.715205 
L 160.123109 87.405944 
L 165.838667 89.246536 
L 168.914411 89.70565 
L 171.990156 89.70565 
L 175.065901 89.478162 
L 177.996335 89.70565 
L 181.365728 90.168901 
L 184.735122 90.85964 
L 188.104516 91.318754 
L 195.136952 92.700232 
L 198.361035 92.931857 
L 201.146158 92.931857 
L 203.782943 93.61846 
L 206.565039 94.08171 
L 211.838609 94.540824 
L 214.330083 95.463188 
L 215.7953 96.153928 
L 216.527909 97.072156 
L 217.405828 97.072156 
L 217.554166 97.303781 
L 217.260517 97.535406 
L 216.382598 97.762895 
L 215.356341 98.453634 
L 214.330083 98.912748 
L 213.452164 99.144373 
L 212.719556 98.912748 
L 211.986947 99.144373 
L 211.399649 99.144373 
L 210.96069 99.375998 
L 210.228081 99.603487 
L 209.789122 99.603487 
L 209.495473 100.066737 
L 209.495473 100.525851 
L 209.201824 100.984965 
L 208.469215 101.448215 
L 208.030256 101.21659 
L 208.469215 100.525851 
L 208.323905 100.525851 
L 208.175566 101.21659 
L 208.175566 102.598069 
L 208.175566 102.598069 
L 208.030256 102.366443 
L 207.736607 102.598069 
L 207.297647 102.366443 
L 207.003998 101.448215 
L 207.003998 101.675704 
L 206.565039 103.516297 
L 206.419728 103.516297 
L 206.419728 103.516297 
L 206.713377 103.979547 
L 206.858688 104.438661 
L 206.419728 104.438661 
L 205.83243 103.516297 
L 205.393471 103.057183 
L 205.687119 103.057183 
L 206.27139 104.207036 
L 206.419728 104.207036 
L 206.419728 103.979547 
L 206.126079 103.516297 
L 205.687119 103.516297 
L 205.099822 103.747922 
L 204.806173 103.516297 
L 204.806173 103.057183 
L 205.099822 102.598069 
L 205.538781 102.825557 
L 205.83243 103.288808 
L 205.393471 102.598069 
L 204.660862 102.598069 
L 204.660862 102.598069 
L 204.660862 102.138955 
L 204.515551 101.675704 
L 204.073564 101.21659 
L 204.221902 101.21659 
L 204.806173 101.675704 
L 204.221902 100.757476 
L 203.782943 100.525851 
L 203.782943 100.525851 
L 204.073564 100.066737 
L 204.660862 99.603487 
L 204.660862 99.603487 
L 204.367213 99.144373 
L 203.782943 98.685259 
L 204.221902 99.144373 
L 204.660862 98.685259 
L 204.660862 97.535406 
L 204.515551 97.072156 
L 204.515551 96.613042 
L 204.660862 96.844667 
L 204.954511 97.072156 
L 204.954511 96.153928 
L 205.393471 94.999938 
L 204.954511 94.999938 
L 204.367213 94.772449 
L 204.073564 94.309199 
L 203.928254 93.850085 
L 204.367213 93.61846 
L 204.954511 93.850085 
L 205.538781 94.309199 
L 205.83243 94.309199 
L 205.687119 94.08171 
L 205.393471 93.159346 
L 205.099822 92.931857 
L 204.806173 91.777868 
L 204.954511 91.318754 
L 205.24816 91.318754 
L 205.538781 92.009493 
L 205.687119 92.009493 
L 205.538781 91.550379 
L 205.24816 91.318754 
L 205.099822 90.628015 
L 205.393471 90.628015 
L 205.538781 90.39639 
L 205.538781 89.937276 
L 205.83243 89.478162 
L 205.980768 89.014911 
L 205.83243 88.787422 
L 205.24816 88.787422 
L 204.954511 88.328308 
L 204.660862 88.096683 
L 204.954511 87.865058 
L 205.83243 87.865058 
L 205.687119 87.637569 
L 205.393471 87.405944 
L 205.393471 87.405944 
L 205.393471 87.865058 
L 205.24816 87.637569 
L 205.538781 86.715205 
L 205.687119 85.792841 
L 205.83243 85.792841 
L 206.126079 86.94683 
L 205.83243 87.174319 
L 205.687119 86.94683 
L 205.687119 86.48358 
L 205.538781 86.024466 
L 205.687119 86.715205 
L 205.393471 87.637569 
L 205.393471 87.405944 
L 205.687119 85.565352 
L 205.83243 85.565352 
L 206.419728 85.333727 
L 206.27139 85.333727 
L 205.980768 84.874613 
L 206.27139 84.642988 
L 206.858688 85.565352 
L 206.565039 85.792841 
L 206.27139 86.48358 
L 205.980768 86.48358 
L 205.538781 85.792841 
L 205.538781 85.333727 
L 205.538781 85.565352 
L 205.83243 85.792841 
L 205.980768 85.565352 
L 205.538781 84.642988 
L 205.687119 84.411363 
L 205.980768 84.411363 
L 206.126079 84.183874 
L 205.980768 84.183874 
L 205.980768 84.411363 
L 206.419728 84.642988 
L 206.27139 85.102102 
L 205.980768 85.102102 
L 205.980768 84.642988 
L 206.126079 83.952249 
L 205.83243 83.952249 
L 205.83243 84.183874 
L 206.126079 84.183874 
L 206.126079 83.952249 
L 205.83243 83.72476 
L 206.126079 83.72476 
L 206.27139 83.26151 
L 205.687119 83.26151 
L 205.393471 83.493135 
L 205.538781 83.72476 
L 205.83243 83.493135 
L 205.83243 83.26151 
L 205.538781 83.493135 
L 205.83243 84.642988 
L 205.538781 83.72476 
L 205.83243 83.72476 
L 205.83243 83.952249 
L 205.687119 83.952249 
L 205.24816 83.72476 
L 205.538781 83.952249 
L 205.687119 84.183874 
L 205.687119 84.411363 
L 205.83243 84.411363 
L 206.27139 84.183874 
L 207.297647 83.952249 
L 208.323905 84.183874 
L 209.056513 84.183874 
L 210.08277 83.952249 
L 213.158515 83.034021 
L 214.917381 83.26151 
L 216.67322 84.183874 
L 218.577396 84.411363 
L 220.4846 83.72476 
L 222.534087 83.26151 
L 227.807658 83.26151 
L 229.566524 82.57077 
L 231.325389 82.343282 
L 232.496958 82.57077 
L 233.813836 83.034021 
L 236.892608 83.034021 
L 237.915839 83.26151 
L 238.796785 83.034021 
L 240.407313 81.880031 
L 240.994611 81.880031 
L 241.727219 83.034021 
L 242.020868 83.034021 
L 242.020868 83.72476 
L 241.87253 83.952249 
L 241.578881 83.952249 
L 240.407313 84.411363 
L 239.968353 84.183874 
L 239.674704 84.183874 
L 239.674704 84.411363 
L 239.823042 84.874613 
L 239.529394 85.333727 
L 239.090434 85.333727 
L 239.090434 85.565352 
L 238.796785 85.565352 
L 238.503136 86.256091 
L 238.648447 85.792841 
L 239.090434 85.565352 
L 239.235745 86.256091 
L 238.796785 87.637569 
L 238.357825 88.555797 
L 238.064177 88.787422 
L 237.770528 88.555797 
L 237.476879 87.865058 
L 237.625217 87.174319 
L 237.915839 87.174319 
L 238.064177 87.637569 
L 238.064177 88.328308 
L 238.503136 88.787422 
L 238.357825 88.787422 
L 238.064177 88.555797 
L 237.625217 88.555797 
L 237.037919 87.865058 
L 237.186257 88.555797 
L 237.476879 89.246536 
L 237.625217 89.246536 
L 237.625217 89.014911 
L 237.331568 89.014911 
L 237.331568 88.555797 
L 237.037919 88.555797 
L 236.892608 88.787422 
L 236.74427 88.787422 
L 236.892608 88.096683 
L 237.186257 88.328308 
L 237.186257 89.246536 
L 237.037919 89.478162 
L 237.037919 89.478162 
L 237.186257 89.478162 
L 237.186257 89.478162 
L 237.037919 89.014911 
L 236.59896 88.328308 
L 236.305311 88.555797 
L 236.305311 89.014911 
L 236.305311 88.328308 
L 236.305311 88.555797 
L 236.453649 89.014911 
L 236.59896 89.014911 
L 236.74427 88.328308 
L 236.453649 87.637569 
L 236.011662 87.865058 
L 235.72104 88.328308 
L 236.305311 88.328308 
L 236.305311 88.555797 
L 236.453649 88.787422 
L 236.453649 88.787422 
L 236.16 88.555797 
L 235.866351 88.787422 
L 236.011662 88.787422 
L 236.305311 88.787422 
L 236.16 88.787422 
L 236.453649 89.014911 
L 236.453649 89.246536 
L 236.011662 88.787422 
L 235.279053 87.174319 
L 235.427392 87.405944 
L 235.279053 87.865058 
L 234.988432 88.328308 
L 234.840094 89.014911 
L 234.988432 89.70565 
L 234.694783 89.70565 
L 234.694783 89.70565 
L 234.694783 89.246536 
L 234.401134 89.014911 
L 234.401134 89.014911 
L 234.840094 88.787422 
L 235.279053 88.096683 
L 235.427392 87.637569 
L 235.72104 87.637569 
L 236.011662 87.865058 
L 235.72104 88.096683 
L 234.988432 88.096683 
L 234.988432 88.096683 
L 234.988432 87.637569 
L 235.279053 87.405944 
L 235.427392 87.637569 
L 235.427392 87.865058 
L 235.133743 88.328308 
L 235.133743 87.174319 
L 234.840094 87.405944 
L 234.694783 87.174319 
L 234.255823 86.94683 
L 234.401134 87.174319 
L 234.840094 87.405944 
L 234.988432 86.94683 
L 234.840094 86.256091 
L 234.694783 86.256091 
L 234.546445 86.94683 
L 234.255823 87.405944 
L 234.255823 87.637569 
L 234.401134 87.865058 
L 234.840094 87.405944 
L 234.401134 87.405944 
L 233.962175 87.865058 
L 233.962175 88.096683 
L 234.255823 87.637569 
L 234.255823 87.174319 
L 234.107485 86.94683 
L 234.107485 86.94683 
L 234.255823 86.715205 
L 234.546445 86.48358 
L 234.401134 86.715205 
L 234.255823 86.94683 
L 234.401134 87.174319 
L 234.546445 87.174319 
L 234.401134 87.174319 
L 234.255823 86.715205 
L 234.401134 86.48358 
L 234.401134 86.94683 
L 234.694783 88.096683 
L 234.988432 88.328308 
L 234.988432 88.096683 
L 234.694783 87.405944 
L 233.962175 86.715205 
L 234.107485 86.48358 
L 234.401134 86.715205 
L 234.694783 87.174319 
L 234.694783 87.405944 
L 234.546445 87.174319 
L 234.546445 86.715205 
L 234.107485 85.333727 
L 234.255823 85.565352 
L 234.255823 86.256091 
L 233.962175 86.48358 
L 234.107485 86.256091 
L 234.107485 85.792841 
L 233.962175 85.792841 
L 233.668526 86.715205 
L 233.813836 86.715205 
L 233.813836 86.715205 
L 233.813836 87.405944 
L 233.668526 87.174319 
L 233.962175 87.174319 
L 234.401134 86.94683 
L 234.694783 86.94683 
L 234.546445 86.94683 
L 234.107485 86.715205 
L 233.229566 86.48358 
L 233.374877 86.715205 
L 233.523215 86.48358 
L 233.374877 85.792841 
L 232.790606 85.565352 
L 230.299132 86.024466 
L 225.903481 85.565352 
L 223.266696 85.333727 
L 220.629911 85.333727 
L 217.554166 85.102102 
L 210.52173 83.72476 
L 206.713377 83.26151 
L 202.608347 83.034021 
L 184.735122 80.271064 
L 180.63312 80.039439 
L 176.973105 79.121211 
L 173.455373 77.967222 
L 169.792331 76.585744 
L 166.422937 75.43589 
L 163.198854 74.517662 
L 157.341014 73.136184 
L 154.41058 71.982195 
L 151.334835 70.373228 
L 147.817103 68.760124 
L 144.302399 67.610271 
L 141.223627 66.919532 
L 138.441531 65.997168 
L 135.804746 64.847315 
L 133.019623 63.238348 
L 129.798567 62.547608 
L 126.280835 62.084358 
L 122.766131 61.393619 
L 119.396737 60.934505 
L 116.756925 60.707016 
L 114.852748 60.016277 
L 113.09691 59.553027 
L 111.483355 59.553027 
L 110.018138 59.784652 
L 108.994908 59.325538 
L 108.262299 58.634799 
L 108.113961 58.862288 
L 108.113961 60.016277 
L 108.262299 60.934505 
L 108.994908 61.16613 
L 111.777004 61.16613 
L 112.654923 61.393619 
L 114.12014 62.084358 
L 114.413789 61.625244 
L 114.852748 61.625244 
L 114.852748 62.315983 
L 115.585357 63.006722 
L 115.879006 63.465837 
L 115.733695 63.697462 
L 115.001086 63.006722 
L 114.413789 62.315983 
L 114.562127 62.547608 
L 114.562127 63.006722 
L 114.413789 64.156576 
L 114.562127 64.156576 
L 114.562127 64.388201 
L 114.707437 64.619826 
L 114.707437 64.619826 
L 114.268478 64.619826 
L 114.562127 64.619826 
L 115.585357 63.697462 
L 115.733695 64.388201 
L 115.440046 65.310565 
L 115.146397 65.538054 
L 114.852748 65.07894 
L 115.146397 65.07894 
L 115.294735 65.310565 
L 115.294735 65.538054 
L 115.585357 65.769679 
L 115.733695 65.538054 
L 115.585357 65.07894 
L 115.440046 65.07894 
L 115.733695 64.619826 
L 115.733695 64.388201 
L 115.733695 65.310565 
L 115.585357 66.919532 
L 116.027344 66.687907 
L 116.466303 66.687907 
L 116.466303 66.460418 
L 116.172654 65.538054 
L 115.585357 65.538054 
L 115.733695 65.538054 
L 116.317965 65.310565 
L 116.756925 65.769679 
L 117.344223 67.151157 
L 117.050574 67.151157 
L 116.756925 66.919532 
L 116.905263 66.460418 
L 116.905263 66.687907 
L 116.756925 67.378646 
L 117.198912 68.760124 
L 117.050574 68.532635 
L 116.905263 66.687907 
L 117.050574 67.841896 
L 117.344223 67.610271 
L 117.489533 66.919532 
L 117.198912 66.919532 
L 117.050574 67.378646 
L 117.198912 67.610271 
L 117.344223 67.378646 
L 117.198912 67.151157 
L 117.344223 67.378646 
L 117.344223 68.069385 
L 117.489533 68.069385 
L 117.489533 67.610271 
L 117.198912 67.378646 
L 116.905263 66.919532 
L 116.905263 67.610271 
L 116.611614 67.610271 
L 116.317965 67.151157 
L 116.905263 68.069385 
L 117.050574 68.760124 
L 116.905263 68.760124 
L 117.050574 68.760124 
L 117.050574 68.30101 
L 117.198912 68.069385 
L 117.198912 68.532635 
L 116.905263 69.682489 
L 117.344223 69.682489 
L 117.344223 69.450863 
L 116.905263 68.30101 
L 116.905263 68.30101 
L 116.756925 68.532635 
L 116.756925 68.532635 
L 117.050574 68.991749 
L 117.489533 70.373228 
L 117.489533 69.914114 
L 117.198912 68.30101 
L 116.466303 68.991749 
L 116.611614 68.991749 
L 117.198912 69.223375 
L 117.783182 69.914114 
L 117.783182 70.141603 
L 117.93152 70.373228 
L 117.93152 70.373228 
L 117.637871 70.832342 
L 117.198912 71.291456 
L 116.905263 71.063967 
L 116.905263 70.600717 
L 117.198912 70.141603 
L 116.905263 69.450863 
L 116.756925 69.450863 
L 116.756925 69.914114 
L 116.905263 70.600717 
L 116.756925 70.600717 
L 117.050574 70.141603 
L 117.344223 69.450863 
L 117.637871 69.450863 
L 117.489533 70.600717 
L 117.489533 71.523081 
L 117.783182 71.982195 
L 117.783182 72.21382 
L 117.783182 72.21382 
L 117.637871 71.523081 
L 117.344223 70.832342 
L 116.905263 70.600717 
L 116.905263 70.832342 
L 117.050574 71.523081 
L 117.050574 71.291456 
L 117.344223 70.832342 
L 117.489533 70.832342 
L 117.489533 71.063967 
L 116.905263 70.600717 
L 116.611614 70.832342 
L 116.317965 71.291456 
L 116.466303 71.523081 
L 116.905263 71.291456 
L 117.198912 71.754706 
L 117.489533 71.754706 
L 117.344223 71.523081 
L 117.198912 70.832342 
L 117.344223 70.600717 
L 117.198912 70.600717 
L 117.198912 71.063967 
L 117.93152 70.373228 
L 117.93152 70.141603 
L 117.783182 70.141603 
L 117.93152 70.141603 
L 118.222142 69.682489 
L 118.37048 69.223375 
L 118.222142 69.450863 
L 117.93152 69.914114 
L 117.93152 69.450863 
L 118.222142 68.991749 
L 118.664129 68.760124 
L 118.80944 68.532635 
L 118.515791 67.378646 
L 119.248399 67.378646 
L 119.687359 66.919532 
L 119.835697 66.228793 
L 119.542048 65.769679 
L 119.248399 65.997168 
L 119.248399 66.228793 
L 119.248399 65.997168 
L 119.103088 65.769679 
L 119.248399 65.538054 
L 119.687359 65.538054 
L 120.274657 65.310565 
L 120.568305 64.847315 
L 120.419967 64.619826 
L 120.274657 64.847315 
L 120.129346 64.847315 
L 120.274657 64.619826 
L 119.981008 63.929087 
L 119.687359 62.547608 
L 119.687359 61.856869 
L 120.419967 62.547608 
L 120.861954 61.393619 
L 121.007265 61.393619 
L 121.007265 62.084358 
L 121.152576 62.315983 
L 121.152576 62.315983 
L 121.007265 61.856869 
L 121.007265 61.393619 
L 121.152576 60.934505 
L 121.007265 60.934505 
L 120.861954 60.707016 
L 121.446225 60.707016 
L 121.446225 60.707016 
L 121.152576 60.016277 
L 121.007265 58.403174 
L 121.739874 59.325538 
L 121.885184 59.553027 
L 121.885184 59.093913 
L 122.178833 58.634799 
L 122.178833 58.403174 
L 122.178833 58.634799 
L 122.033522 58.634799 
L 121.739874 58.171549 
L 121.739874 57.94406 
L 122.178833 57.712435 
L 122.472482 57.712435 
L 122.324144 57.48081 
L 122.178833 57.48081 
L 122.178833 57.48081 
L 122.178833 57.712435 
L 122.324144 57.94406 
L 122.472482 57.94406 
L 122.472482 57.253321 
L 122.324144 56.562582 
L 122.324144 56.562582 
L 122.766131 56.562582 
L 122.911442 56.79007 
L 122.324144 56.79007 
L 122.324144 56.79007 
L 122.472482 56.330956 
L 122.911442 55.640217 
L 122.617793 55.640217 
L 122.472482 55.871842 
L 122.472482 56.103468 
L 122.472482 55.412728 
L 122.911442 54.721989 
L 123.498739 54.03125 
L 123.64405 53.568 
L 123.350401 53.568 
L 123.205091 54.03125 
L 123.498739 54.490364 
L 123.64405 55.181103 
L 123.498739 56.103468 
L 123.498739 55.640217 
L 123.056752 55.181103 
L 123.056752 54.949478 
L 123.205091 54.721989 
L 123.205091 54.490364 
L 123.056752 54.721989 
L 123.056752 55.181103 
L 124.08301 55.181103 
L 123.937699 54.721989 
L 123.205091 54.490364 
L 122.617793 54.949478 
L 122.617793 55.181103 
L 122.911442 54.949478 
L 122.766131 54.490364 
L 123.056752 53.799625 
L 123.498739 54.258739 
L 123.937699 55.640217 
L 123.789361 55.181103 
L 123.498739 55.181103 
L 123.205091 54.949478 
L 123.498739 54.03125 
L 123.789361 53.568 
L 123.350401 54.721989 
L 123.056752 54.490364 
L 123.056752 53.799625 
L 123.350401 53.799625 
L 123.789361 54.258739 
L 123.498739 53.799625 
L 123.350401 53.568 
L 123.64405 53.568 
L 124.08301 53.799625 
L 123.937699 53.799625 
L 123.498739 53.799625 
L 123.056752 54.03125 
L 123.056752 53.799625 
L 123.205091 53.799625 
L 123.64405 54.03125 
L 122.911442 53.568 
L 123.056752 53.799625 
L 123.350401 54.258739 
L 123.350401 54.490364 
L 123.498739 55.181103 
L 123.937699 55.412728 
L 124.231348 54.949478 
L 124.231348 54.258739 
L 123.937699 54.258739 
L 123.937699 54.949478 
L 124.08301 55.412728 
L 123.937699 54.949478 
L 123.350401 54.490364 
L 123.056752 54.490364 
L 123.205091 54.490364 
L 123.789361 54.258739 
L 123.64405 54.258739 
L 123.498739 54.03125 
L 123.498739 53.799625 
L 123.498739 54.490364 
L 123.498739 54.258739 
L 123.350401 54.258739 
L 123.056752 54.949478 
L 123.205091 55.181103 
L 123.498739 54.949478 
L 123.498739 54.490364 
L 123.350401 54.490364 
L 123.350401 55.181103 
L 123.64405 55.181103 
L 124.08301 54.949478 
L 124.08301 54.721989 
L 123.789361 54.490364 
L 124.08301 54.721989 
L 124.08301 55.640217 
L 124.231348 56.103468 
L 124.231348 55.871842 
L 124.08301 54.721989 
L 124.376659 55.181103 
L 124.376659 55.871842 
L 124.08301 55.871842 
L 123.937699 55.412728 
L 124.08301 55.640217 
L 124.376659 55.871842 
L 124.08301 56.330956 
L 124.08301 56.103468 
L 124.521969 55.412728 
L 124.670308 54.949478 
L 124.376659 55.871842 
L 124.376659 56.330956 
L 124.231348 56.562582 
L 123.937699 56.79007 
L 123.64405 57.253321 
L 123.64405 57.253321 
L 123.64405 56.330956 
L 123.789361 55.412728 
L 123.937699 55.640217 
L 123.937699 57.253321 
L 123.498739 57.48081 
L 123.937699 57.253321 
L 124.231348 56.79007 
L 123.937699 56.562582 
L 123.64405 57.021696 
L 123.64405 57.712435 
L 123.937699 57.712435 
L 124.08301 57.253321 
L 123.937699 56.79007 
L 123.64405 56.79007 
L 123.789361 57.253321 
L 124.08301 57.253321 
L 123.937699 56.79007 
L 123.64405 56.562582 
L 123.64405 56.79007 
L 123.937699 57.253321 
L 124.08301 57.94406 
L 123.789361 58.403174 
L 123.789361 58.171549 
L 123.64405 57.712435 
L 123.789361 57.253321 
L 123.937699 57.48081 
L 123.937699 57.94406 
L 123.64405 58.403174 
L 123.64405 58.403174 
L 123.937699 58.403174 
L 124.376659 57.94406 
L 124.231348 57.94406 
L 124.376659 57.712435 
L 124.376659 57.712435 
L 124.376659 57.94406 
L 124.08301 57.94406 
L 124.08301 57.712435 
L 124.231348 57.712435 
L 124.521969 58.403174 
L 124.815618 59.553027 
L 124.670308 59.553027 
L 124.231348 59.325538 
L 123.937699 58.634799 
L 124.231348 57.94406 
L 124.963956 57.48081 
L 124.670308 58.403174 
L 124.376659 58.403174 
L 124.376659 57.94406 
L 124.231348 58.171549 
L 124.521969 58.634799 
L 124.963956 57.94406 
L 125.254578 57.94406 
L 125.402916 58.403174 
L 125.109267 59.325538 
L 124.963956 59.093913 
L 124.963956 58.862288 
L 124.815618 58.403174 
L 124.231348 58.403174 
L 124.231348 57.94406 
L 124.670308 57.48081 
L 124.815618 57.712435 
L 124.815618 58.634799 
L 124.376659 57.48081 
L 124.231348 57.253321 
L 124.670308 57.94406 
L 124.670308 58.634799 
L 124.815618 58.634799 
L 125.548227 57.94406 
L 125.254578 57.94406 
L 124.670308 58.171549 
L 124.521969 58.403174 
L 124.815618 58.634799 
L 125.254578 58.634799 
L 125.402916 59.093913 
L 125.254578 59.325538 
L 125.254578 59.093913 
L 125.402916 58.171549 
L 125.109267 57.253321 
L 124.670308 57.021696 
L 124.521969 57.712435 
L 124.521969 57.712435 
L 124.963956 57.48081 
L 125.402916 57.94406 
L 125.402916 58.634799 
L 125.109267 58.634799 
L 124.963956 57.94406 
L 124.963956 57.94406 
" style="fill:none;stroke:#1f77b4;stroke-linecap:square;stroke-width:1.5;"/>
   </g>
   <g id="matplotlib.axis_1">
    <g id="xtick_1">
     <g id="line2d_2">
      <defs>
       <path d="M 0 0 
L 0 3.5 
" id="m744c6d3be3" style="stroke:#000000;stroke-width:0.8;"/>
      </defs>
      <g>
       <use style="stroke:#000000;stroke-width:0.8;" x="66.064655" xlink:href="#m744c6d3be3" y="307.584"/>
      </g>
     </g>
     <g id="text_1">
      <!-- −400 -->
      <defs>
       <path d="M 10.59375 35.5 
L 73.1875 35.5 
L 73.1875 27.203125 
L 10.59375 27.203125 
z
" id="DejaVuSans-8722"/>
       <path d="M 37.796875 64.3125 
L 12.890625 25.390625 
L 37.796875 25.390625 
z
M 35.203125 72.90625 
L 47.609375 72.90625 
L 47.609375 25.390625 
L 58.015625 25.390625 
L 58.015625 17.1875 
L 47.609375 17.1875 
L 47.609375 0 
L 37.796875 0 
L 37.796875 17.1875 
L 4.890625 17.1875 
L 4.890625 26.703125 
z
" id="DejaVuSans-52"/>
       <path d="M 31.78125 66.40625 
Q 24.171875 66.40625 20.328125 58.90625 
Q 16.5 51.421875 16.5 36.375 
Q 16.5 21.390625 20.328125 13.890625 
Q 24.171875 6.390625 31.78125 6.390625 
Q 39.453125 6.390625 43.28125 13.890625 
Q 47.125 21.390625 47.125 36.375 
Q 47.125 51.421875 43.28125 58.90625 
Q 39.453125 66.40625 31.78125 66.40625 
z
M 31.78125 74.21875 
Q 44.046875 74.21875 50.515625 64.515625 
Q 56.984375 54.828125 56.984375 36.375 
Q 56.984375 17.96875 50.515625 8.265625 
Q 44.046875 -1.421875 31.78125 -1.421875 
Q 19.53125 -1.421875 13.0625 8.265625 
Q 6.59375 17.96875 6.59375 36.375 
Q 6.59375 54.828125 13.0625 64.515625 
Q 19.53125 74.21875 31.78125 74.21875 
z
" id="DejaVuSans-48"/>
      </defs>
      <g transform="translate(52.331062 322.182437)scale(0.1 -0.1)">
       <use xlink:href="#DejaVuSans-8722"/>
       <use x="83.789062" xlink:href="#DejaVuSans-52"/>
       <use x="147.412109" xlink:href="#DejaVuSans-48"/>
       <use x="211.035156" xlink:href="#DejaVuSans-48"/>
      </g>
     </g>
    </g>
    <g id="xtick_2">
     <g id="line2d_3">
      <g>
       <use style="stroke:#000000;stroke-width:0.8;" x="126.610812" xlink:href="#m744c6d3be3" y="307.584"/>
      </g>
     </g>
     <g id="text_2">
      <!-- −200 -->
      <defs>
       <path d="M 19.1875 8.296875 
L 53.609375 8.296875 
L 53.609375 0 
L 7.328125 0 
L 7.328125 8.296875 
Q 12.9375 14.109375 22.625 23.890625 
Q 32.328125 33.6875 34.8125 36.53125 
Q 39.546875 41.84375 41.421875 45.53125 
Q 43.3125 49.21875 43.3125 52.78125 
Q 43.3125 58.59375 39.234375 62.25 
Q 35.15625 65.921875 28.609375 65.921875 
Q 23.96875 65.921875 18.8125 64.3125 
Q 13.671875 62.703125 7.8125 59.421875 
L 7.8125 69.390625 
Q 13.765625 71.78125 18.9375 73 
Q 24.125 74.21875 28.421875 74.21875 
Q 39.75 74.21875 46.484375 68.546875 
Q 53.21875 62.890625 53.21875 53.421875 
Q 53.21875 48.921875 51.53125 44.890625 
Q 49.859375 40.875 45.40625 35.40625 
Q 44.1875 33.984375 37.640625 27.21875 
Q 31.109375 20.453125 19.1875 8.296875 
z
" id="DejaVuSans-50"/>
      </defs>
      <g transform="translate(112.877218 322.182437)scale(0.1 -0.1)">
       <use xlink:href="#DejaVuSans-8722"/>
       <use x="83.789062" xlink:href="#DejaVuSans-50"/>
       <use x="147.412109" xlink:href="#DejaVuSans-48"/>
       <use x="211.035156" xlink:href="#DejaVuSans-48"/>
      </g>
     </g>
    </g>
    <g id="xtick_3">
     <g id="line2d_4">
      <g>
       <use style="stroke:#000000;stroke-width:0.8;" x="187.156968" xlink:href="#m744c6d3be3" y="307.584"/>
      </g>
     </g>
     <g id="text_3">
      <!-- 0 -->
      <g transform="translate(183.975718 322.182437)scale(0.1 -0.1)">
       <use xlink:href="#DejaVuSans-48"/>
      </g>
     </g>
    </g>
    <g id="xtick_4">
     <g id="line2d_5">
      <g>
       <use style="stroke:#000000;stroke-width:0.8;" x="247.703125" xlink:href="#m744c6d3be3" y="307.584"/>
      </g>
     </g>
     <g id="text_4">
      <!-- 200 -->
      <g transform="translate(238.159375 322.182437)scale(0.1 -0.1)">
       <use xlink:href="#DejaVuSans-50"/>
       <use x="63.623047" xlink:href="#DejaVuSans-48"/>
       <use x="127.246094" xlink:href="#DejaVuSans-48"/>
      </g>
     </g>
    </g>
    <g id="xtick_5">
     <g id="line2d_6">
      <g>
       <use style="stroke:#000000;stroke-width:0.8;" x="308.249281" xlink:href="#m744c6d3be3" y="307.584"/>
      </g>
     </g>
     <g id="text_5">
      <!-- 400 -->
      <g transform="translate(298.705531 322.182437)scale(0.1 -0.1)">
       <use xlink:href="#DejaVuSans-52"/>
       <use x="63.623047" xlink:href="#DejaVuSans-48"/>
       <use x="127.246094" xlink:href="#DejaVuSans-48"/>
      </g>
     </g>
    </g>
    <g id="xtick_6">
     <g id="line2d_7">
      <g>
       <use style="stroke:#000000;stroke-width:0.8;" x="368.795438" xlink:href="#m744c6d3be3" y="307.584"/>
      </g>
     </g>
     <g id="text_6">
      <!-- 600 -->
      <defs>
       <path d="M 33.015625 40.375 
Q 26.375 40.375 22.484375 35.828125 
Q 18.609375 31.296875 18.609375 23.390625 
Q 18.609375 15.53125 22.484375 10.953125 
Q 26.375 6.390625 33.015625 6.390625 
Q 39.65625 6.390625 43.53125 10.953125 
Q 47.40625 15.53125 47.40625 23.390625 
Q 47.40625 31.296875 43.53125 35.828125 
Q 39.65625 40.375 33.015625 40.375 
z
M 52.59375 71.296875 
L 52.59375 62.3125 
Q 48.875 64.0625 45.09375 64.984375 
Q 41.3125 65.921875 37.59375 65.921875 
Q 27.828125 65.921875 22.671875 59.328125 
Q 17.53125 52.734375 16.796875 39.40625 
Q 19.671875 43.65625 24.015625 45.921875 
Q 28.375 48.1875 33.59375 48.1875 
Q 44.578125 48.1875 50.953125 41.515625 
Q 57.328125 34.859375 57.328125 23.390625 
Q 57.328125 12.15625 50.6875 5.359375 
Q 44.046875 -1.421875 33.015625 -1.421875 
Q 20.359375 -1.421875 13.671875 8.265625 
Q 6.984375 17.96875 6.984375 36.375 
Q 6.984375 53.65625 15.1875 63.9375 
Q 23.390625 74.21875 37.203125 74.21875 
Q 40.921875 74.21875 44.703125 73.484375 
Q 48.484375 72.75 52.59375 71.296875 
z
" id="DejaVuSans-54"/>
      </defs>
      <g transform="translate(359.251688 322.182437)scale(0.1 -0.1)">
       <use xlink:href="#DejaVuSans-54"/>
       <use x="63.623047" xlink:href="#DejaVuSans-48"/>
       <use x="127.246094" xlink:href="#DejaVuSans-48"/>
      </g>
     </g>
    </g>
   </g>
   <g id="matplotlib.axis_2">
    <g id="ytick_1">
     <g id="line2d_8">
      <defs>
       <path d="M 0 0 
L -3.5 0 
" id="mf51d03f124" style="stroke:#000000;stroke-width:0.8;"/>
      </defs>
      <g>
       <use style="stroke:#000000;stroke-width:0.8;" x="57.6" xlink:href="#mf51d03f124" y="288.047044"/>
      </g>
     </g>
     <g id="text_7">
      <!-- −700 -->
      <defs>
       <path d="M 8.203125 72.90625 
L 55.078125 72.90625 
L 55.078125 68.703125 
L 28.609375 0 
L 18.3125 0 
L 43.21875 64.59375 
L 8.203125 64.59375 
z
" id="DejaVuSans-55"/>
      </defs>
      <g transform="translate(23.132812 291.846263)scale(0.1 -0.1)">
       <use xlink:href="#DejaVuSans-8722"/>
       <use x="83.789062" xlink:href="#DejaVuSans-55"/>
       <use x="147.412109" xlink:href="#DejaVuSans-48"/>
       <use x="211.035156" xlink:href="#DejaVuSans-48"/>
      </g>
     </g>
    </g>
    <g id="ytick_2">
     <g id="line2d_9">
      <g>
       <use style="stroke:#000000;stroke-width:0.8;" x="57.6" xlink:href="#mf51d03f124" y="246.68542"/>
      </g>
     </g>
     <g id="text_8">
      <!-- −600 -->
      <g transform="translate(23.132812 250.484639)scale(0.1 -0.1)">
       <use xlink:href="#DejaVuSans-8722"/>
       <use x="83.789062" xlink:href="#DejaVuSans-54"/>
       <use x="147.412109" xlink:href="#DejaVuSans-48"/>
       <use x="211.035156" xlink:href="#DejaVuSans-48"/>
      </g>
     </g>
    </g>
    <g id="ytick_3">
     <g id="line2d_10">
      <g>
       <use style="stroke:#000000;stroke-width:0.8;" x="57.6" xlink:href="#mf51d03f124" y="205.323797"/>
      </g>
     </g>
     <g id="text_9">
      <!-- −500 -->
      <defs>
       <path d="M 10.796875 72.90625 
L 49.515625 72.90625 
L 49.515625 64.59375 
L 19.828125 64.59375 
L 19.828125 46.734375 
Q 21.96875 47.46875 24.109375 47.828125 
Q 26.265625 48.1875 28.421875 48.1875 
Q 40.625 48.1875 47.75 41.5 
Q 54.890625 34.8125 54.890625 23.390625 
Q 54.890625 11.625 47.5625 5.09375 
Q 40.234375 -1.421875 26.90625 -1.421875 
Q 22.3125 -1.421875 17.546875 -0.640625 
Q 12.796875 0.140625 7.71875 1.703125 
L 7.71875 11.625 
Q 12.109375 9.234375 16.796875 8.0625 
Q 21.484375 6.890625 26.703125 6.890625 
Q 35.15625 6.890625 40.078125 11.328125 
Q 45.015625 15.765625 45.015625 23.390625 
Q 45.015625 31 40.078125 35.4375 
Q 35.15625 39.890625 26.703125 39.890625 
Q 22.75 39.890625 18.8125 39.015625 
Q 14.890625 38.140625 10.796875 36.28125 
z
" id="DejaVuSans-53"/>
      </defs>
      <g transform="translate(23.132812 209.123016)scale(0.1 -0.1)">
       <use xlink:href="#DejaVuSans-8722"/>
       <use x="83.789062" xlink:href="#DejaVuSans-53"/>
       <use x="147.412109" xlink:href="#DejaVuSans-48"/>
       <use x="211.035156" xlink:href="#DejaVuSans-48"/>
      </g>
     </g>
    </g>
    <g id="ytick_4">
     <g id="line2d_11">
      <g>
       <use style="stroke:#000000;stroke-width:0.8;" x="57.6" xlink:href="#mf51d03f124" y="163.962173"/>
      </g>
     </g>
     <g id="text_10">
      <!-- −400 -->
      <g transform="translate(23.132812 167.761392)scale(0.1 -0.1)">
       <use xlink:href="#DejaVuSans-8722"/>
       <use x="83.789062" xlink:href="#DejaVuSans-52"/>
       <use x="147.412109" xlink:href="#DejaVuSans-48"/>
       <use x="211.035156" xlink:href="#DejaVuSans-48"/>
      </g>
     </g>
    </g>
    <g id="ytick_5">
     <g id="line2d_12">
      <g>
       <use style="stroke:#000000;stroke-width:0.8;" x="57.6" xlink:href="#mf51d03f124" y="122.60055"/>
      </g>
     </g>
     <g id="text_11">
      <!-- −300 -->
      <defs>
       <path d="M 40.578125 39.3125 
Q 47.65625 37.796875 51.625 33 
Q 55.609375 28.21875 55.609375 21.1875 
Q 55.609375 10.40625 48.1875 4.484375 
Q 40.765625 -1.421875 27.09375 -1.421875 
Q 22.515625 -1.421875 17.65625 -0.515625 
Q 12.796875 0.390625 7.625 2.203125 
L 7.625 11.71875 
Q 11.71875 9.328125 16.59375 8.109375 
Q 21.484375 6.890625 26.8125 6.890625 
Q 36.078125 6.890625 40.9375 10.546875 
Q 45.796875 14.203125 45.796875 21.1875 
Q 45.796875 27.640625 41.28125 31.265625 
Q 36.765625 34.90625 28.71875 34.90625 
L 20.21875 34.90625 
L 20.21875 43.015625 
L 29.109375 43.015625 
Q 36.375 43.015625 40.234375 45.921875 
Q 44.09375 48.828125 44.09375 54.296875 
Q 44.09375 59.90625 40.109375 62.90625 
Q 36.140625 65.921875 28.71875 65.921875 
Q 24.65625 65.921875 20.015625 65.03125 
Q 15.375 64.15625 9.8125 62.3125 
L 9.8125 71.09375 
Q 15.4375 72.65625 20.34375 73.4375 
Q 25.25 74.21875 29.59375 74.21875 
Q 40.828125 74.21875 47.359375 69.109375 
Q 53.90625 64.015625 53.90625 55.328125 
Q 53.90625 49.265625 50.4375 45.09375 
Q 46.96875 40.921875 40.578125 39.3125 
z
" id="DejaVuSans-51"/>
      </defs>
      <g transform="translate(23.132812 126.399768)scale(0.1 -0.1)">
       <use xlink:href="#DejaVuSans-8722"/>
       <use x="83.789062" xlink:href="#DejaVuSans-51"/>
       <use x="147.412109" xlink:href="#DejaVuSans-48"/>
       <use x="211.035156" xlink:href="#DejaVuSans-48"/>
      </g>
     </g>
    </g>
    <g id="ytick_6">
     <g id="line2d_13">
      <g>
       <use style="stroke:#000000;stroke-width:0.8;" x="57.6" xlink:href="#mf51d03f124" y="81.238926"/>
      </g>
     </g>
     <g id="text_12">
      <!-- −200 -->
      <g transform="translate(23.132812 85.038145)scale(0.1 -0.1)">
       <use xlink:href="#DejaVuSans-8722"/>
       <use x="83.789062" xlink:href="#DejaVuSans-50"/>
       <use x="147.412109" xlink:href="#DejaVuSans-48"/>
       <use x="211.035156" xlink:href="#DejaVuSans-48"/>
      </g>
     </g>
    </g>
   </g>
   <g id="line2d_14">
    <path clip-path="url(#p4fff2e23fe)" d="M 393.733358 292.072042 
L 228.355823 199.079195 
L 88.968238 92.912027 
L 204.258528 92.405013 
L 232.046564 86.486012 
L 120.824355 61.443214 
" style="fill:none;stroke:#ff0000;stroke-linecap:square;stroke-width:0.5;"/>
   </g>
   <g id="patch_3">
    <path d="M 57.6 307.584 
L 57.6 41.472 
" style="fill:none;stroke:#000000;stroke-linecap:square;stroke-linejoin:miter;stroke-width:0.8;"/>
   </g>
   <g id="patch_4">
    <path d="M 414.72 307.584 
L 414.72 41.472 
" style="fill:none;stroke:#000000;stroke-linecap:square;stroke-linejoin:miter;stroke-width:0.8;"/>
   </g>
   <g id="patch_5">
    <path d="M 57.6 307.584 
L 414.72 307.584 
" style="fill:none;stroke:#000000;stroke-linecap:square;stroke-linejoin:miter;stroke-width:0.8;"/>
   </g>
   <g id="patch_6">
    <path d="M 57.6 41.472 
L 414.72 41.472 
" style="fill:none;stroke:#000000;stroke-linecap:square;stroke-linejoin:miter;stroke-width:0.8;"/>
   </g>
   <g id="PathCollection_1">
    <defs>
     <path d="M 0 2.738613 
C 0.726289 2.738613 1.422928 2.450055 1.936492 1.936492 
C 2.450055 1.422928 2.738613 0.726289 2.738613 0 
C 2.738613 -0.726289 2.450055 -1.422928 1.936492 -1.936492 
C 1.422928 -2.450055 0.726289 -2.738613 0 -2.738613 
C -0.726289 -2.738613 -1.422928 -2.450055 -1.936492 -1.936492 
C -2.450055 -1.422928 -2.738613 -0.726289 -2.738613 0 
C -2.738613 0.726289 -2.450055 1.422928 -1.936492 1.936492 
C -1.422928 2.450055 -0.726289 2.738613 0 2.738613 
z
" id="m79d027bd5b" style="stroke:#ff0000;"/>
    </defs>
    <g clip-path="url(#p4fff2e23fe)">
     <use style="fill:#ff0000;stroke:#ff0000;" x="393.733358" xlink:href="#m79d027bd5b" y="292.072042"/>
     <use style="fill:#ff0000;stroke:#ff0000;" x="228.355823" xlink:href="#m79d027bd5b" y="199.079195"/>
     <use style="fill:#ff0000;stroke:#ff0000;" x="88.968238" xlink:href="#m79d027bd5b" y="92.912027"/>
     <use style="fill:#ff0000;stroke:#ff0000;" x="204.258528" xlink:href="#m79d027bd5b" y="92.405013"/>
     <use style="fill:#ff0000;stroke:#ff0000;" x="232.046564" xlink:href="#m79d027bd5b" y="86.486012"/>
     <use style="fill:#ff0000;stroke:#ff0000;" x="120.824355" xlink:href="#m79d027bd5b" y="61.443214"/>
    </g>
   </g>
   <g id="text_13">
    <!-- (145) Subject: s7, Known = False, Degree = 2, Duration = 0.1 -->
    <defs>
     <path d="M 31 75.875 
Q 24.46875 64.65625 21.28125 53.65625 
Q 18.109375 42.671875 18.109375 31.390625 
Q 18.109375 20.125 21.3125 9.0625 
Q 24.515625 -2 31 -13.1875 
L 23.1875 -13.1875 
Q 15.875 -1.703125 12.234375 9.375 
Q 8.59375 20.453125 8.59375 31.390625 
Q 8.59375 42.28125 12.203125 53.3125 
Q 15.828125 64.359375 23.1875 75.875 
z
" id="DejaVuSans-40"/>
     <path d="M 12.40625 8.296875 
L 28.515625 8.296875 
L 28.515625 63.921875 
L 10.984375 60.40625 
L 10.984375 69.390625 
L 28.421875 72.90625 
L 38.28125 72.90625 
L 38.28125 8.296875 
L 54.390625 8.296875 
L 54.390625 0 
L 12.40625 0 
z
" id="DejaVuSans-49"/>
     <path d="M 8.015625 75.875 
L 15.828125 75.875 
Q 23.140625 64.359375 26.78125 53.3125 
Q 30.421875 42.28125 30.421875 31.390625 
Q 30.421875 20.453125 26.78125 9.375 
Q 23.140625 -1.703125 15.828125 -13.1875 
L 8.015625 -13.1875 
Q 14.5 -2 17.703125 9.0625 
Q 20.90625 20.125 20.90625 31.390625 
Q 20.90625 42.671875 17.703125 53.65625 
Q 14.5 64.65625 8.015625 75.875 
z
" id="DejaVuSans-41"/>
     <path id="DejaVuSans-32"/>
     <path d="M 53.515625 70.515625 
L 53.515625 60.890625 
Q 47.90625 63.578125 42.921875 64.890625 
Q 37.9375 66.21875 33.296875 66.21875 
Q 25.25 66.21875 20.875 63.09375 
Q 16.5 59.96875 16.5 54.203125 
Q 16.5 49.359375 19.40625 46.890625 
Q 22.3125 44.4375 30.421875 42.921875 
L 36.375 41.703125 
Q 47.40625 39.59375 52.65625 34.296875 
Q 57.90625 29 57.90625 20.125 
Q 57.90625 9.515625 50.796875 4.046875 
Q 43.703125 -1.421875 29.984375 -1.421875 
Q 24.8125 -1.421875 18.96875 -0.25 
Q 13.140625 0.921875 6.890625 3.21875 
L 6.890625 13.375 
Q 12.890625 10.015625 18.65625 8.296875 
Q 24.421875 6.59375 29.984375 6.59375 
Q 38.421875 6.59375 43.015625 9.90625 
Q 47.609375 13.234375 47.609375 19.390625 
Q 47.609375 24.75 44.3125 27.78125 
Q 41.015625 30.8125 33.5 32.328125 
L 27.484375 33.5 
Q 16.453125 35.6875 11.515625 40.375 
Q 6.59375 45.0625 6.59375 53.421875 
Q 6.59375 63.09375 13.40625 68.65625 
Q 20.21875 74.21875 32.171875 74.21875 
Q 37.3125 74.21875 42.625 73.28125 
Q 47.953125 72.359375 53.515625 70.515625 
z
" id="DejaVuSans-83"/>
     <path d="M 8.5 21.578125 
L 8.5 54.6875 
L 17.484375 54.6875 
L 17.484375 21.921875 
Q 17.484375 14.15625 20.5 10.265625 
Q 23.53125 6.390625 29.59375 6.390625 
Q 36.859375 6.390625 41.078125 11.03125 
Q 45.3125 15.671875 45.3125 23.6875 
L 45.3125 54.6875 
L 54.296875 54.6875 
L 54.296875 0 
L 45.3125 0 
L 45.3125 8.40625 
Q 42.046875 3.421875 37.71875 1 
Q 33.40625 -1.421875 27.6875 -1.421875 
Q 18.265625 -1.421875 13.375 4.4375 
Q 8.5 10.296875 8.5 21.578125 
z
M 31.109375 56 
z
" id="DejaVuSans-117"/>
     <path d="M 48.6875 27.296875 
Q 48.6875 37.203125 44.609375 42.84375 
Q 40.53125 48.484375 33.40625 48.484375 
Q 26.265625 48.484375 22.1875 42.84375 
Q 18.109375 37.203125 18.109375 27.296875 
Q 18.109375 17.390625 22.1875 11.75 
Q 26.265625 6.109375 33.40625 6.109375 
Q 40.53125 6.109375 44.609375 11.75 
Q 48.6875 17.390625 48.6875 27.296875 
z
M 18.109375 46.390625 
Q 20.953125 51.265625 25.265625 53.625 
Q 29.59375 56 35.59375 56 
Q 45.5625 56 51.78125 48.09375 
Q 58.015625 40.1875 58.015625 27.296875 
Q 58.015625 14.40625 51.78125 6.484375 
Q 45.5625 -1.421875 35.59375 -1.421875 
Q 29.59375 -1.421875 25.265625 0.953125 
Q 20.953125 3.328125 18.109375 8.203125 
L 18.109375 0 
L 9.078125 0 
L 9.078125 75.984375 
L 18.109375 75.984375 
z
" id="DejaVuSans-98"/>
     <path d="M 9.421875 54.6875 
L 18.40625 54.6875 
L 18.40625 -0.984375 
Q 18.40625 -11.421875 14.421875 -16.109375 
Q 10.453125 -20.796875 1.609375 -20.796875 
L -1.8125 -20.796875 
L -1.8125 -13.1875 
L 0.59375 -13.1875 
Q 5.71875 -13.1875 7.5625 -10.8125 
Q 9.421875 -8.453125 9.421875 -0.984375 
z
M 9.421875 75.984375 
L 18.40625 75.984375 
L 18.40625 64.59375 
L 9.421875 64.59375 
z
" id="DejaVuSans-106"/>
     <path d="M 56.203125 29.59375 
L 56.203125 25.203125 
L 14.890625 25.203125 
Q 15.484375 15.921875 20.484375 11.0625 
Q 25.484375 6.203125 34.421875 6.203125 
Q 39.59375 6.203125 44.453125 7.46875 
Q 49.3125 8.734375 54.109375 11.28125 
L 54.109375 2.78125 
Q 49.265625 0.734375 44.1875 -0.34375 
Q 39.109375 -1.421875 33.890625 -1.421875 
Q 20.796875 -1.421875 13.15625 6.1875 
Q 5.515625 13.8125 5.515625 26.8125 
Q 5.515625 40.234375 12.765625 48.109375 
Q 20.015625 56 32.328125 56 
Q 43.359375 56 49.78125 48.890625 
Q 56.203125 41.796875 56.203125 29.59375 
z
M 47.21875 32.234375 
Q 47.125 39.59375 43.09375 43.984375 
Q 39.0625 48.390625 32.421875 48.390625 
Q 24.90625 48.390625 20.390625 44.140625 
Q 15.875 39.890625 15.1875 32.171875 
z
" id="DejaVuSans-101"/>
     <path d="M 48.78125 52.59375 
L 48.78125 44.1875 
Q 44.96875 46.296875 41.140625 47.34375 
Q 37.3125 48.390625 33.40625 48.390625 
Q 24.65625 48.390625 19.8125 42.84375 
Q 14.984375 37.3125 14.984375 27.296875 
Q 14.984375 17.28125 19.8125 11.734375 
Q 24.65625 6.203125 33.40625 6.203125 
Q 37.3125 6.203125 41.140625 7.25 
Q 44.96875 8.296875 48.78125 10.40625 
L 48.78125 2.09375 
Q 45.015625 0.34375 40.984375 -0.53125 
Q 36.96875 -1.421875 32.421875 -1.421875 
Q 20.0625 -1.421875 12.78125 6.34375 
Q 5.515625 14.109375 5.515625 27.296875 
Q 5.515625 40.671875 12.859375 48.328125 
Q 20.21875 56 33.015625 56 
Q 37.15625 56 41.109375 55.140625 
Q 45.0625 54.296875 48.78125 52.59375 
z
" id="DejaVuSans-99"/>
     <path d="M 18.3125 70.21875 
L 18.3125 54.6875 
L 36.8125 54.6875 
L 36.8125 47.703125 
L 18.3125 47.703125 
L 18.3125 18.015625 
Q 18.3125 11.328125 20.140625 9.421875 
Q 21.96875 7.515625 27.59375 7.515625 
L 36.8125 7.515625 
L 36.8125 0 
L 27.59375 0 
Q 17.1875 0 13.234375 3.875 
Q 9.28125 7.765625 9.28125 18.015625 
L 9.28125 47.703125 
L 2.6875 47.703125 
L 2.6875 54.6875 
L 9.28125 54.6875 
L 9.28125 70.21875 
z
" id="DejaVuSans-116"/>
     <path d="M 11.71875 12.40625 
L 22.015625 12.40625 
L 22.015625 0 
L 11.71875 0 
z
M 11.71875 51.703125 
L 22.015625 51.703125 
L 22.015625 39.3125 
L 11.71875 39.3125 
z
" id="DejaVuSans-58"/>
     <path d="M 44.28125 53.078125 
L 44.28125 44.578125 
Q 40.484375 46.53125 36.375 47.5 
Q 32.28125 48.484375 27.875 48.484375 
Q 21.1875 48.484375 17.84375 46.4375 
Q 14.5 44.390625 14.5 40.28125 
Q 14.5 37.15625 16.890625 35.375 
Q 19.28125 33.59375 26.515625 31.984375 
L 29.59375 31.296875 
Q 39.15625 29.25 43.1875 25.515625 
Q 47.21875 21.78125 47.21875 15.09375 
Q 47.21875 7.46875 41.1875 3.015625 
Q 35.15625 -1.421875 24.609375 -1.421875 
Q 20.21875 -1.421875 15.453125 -0.5625 
Q 10.6875 0.296875 5.421875 2 
L 5.421875 11.28125 
Q 10.40625 8.6875 15.234375 7.390625 
Q 20.0625 6.109375 24.8125 6.109375 
Q 31.15625 6.109375 34.5625 8.28125 
Q 37.984375 10.453125 37.984375 14.40625 
Q 37.984375 18.0625 35.515625 20.015625 
Q 33.0625 21.96875 24.703125 23.78125 
L 21.578125 24.515625 
Q 13.234375 26.265625 9.515625 29.90625 
Q 5.8125 33.546875 5.8125 39.890625 
Q 5.8125 47.609375 11.28125 51.796875 
Q 16.75 56 26.8125 56 
Q 31.78125 56 36.171875 55.265625 
Q 40.578125 54.546875 44.28125 53.078125 
z
" id="DejaVuSans-115"/>
     <path d="M 11.71875 12.40625 
L 22.015625 12.40625 
L 22.015625 4 
L 14.015625 -11.625 
L 7.71875 -11.625 
L 11.71875 4 
z
" id="DejaVuSans-44"/>
     <path d="M 9.8125 72.90625 
L 19.671875 72.90625 
L 19.671875 42.09375 
L 52.390625 72.90625 
L 65.09375 72.90625 
L 28.90625 38.921875 
L 67.671875 0 
L 54.6875 0 
L 19.671875 35.109375 
L 19.671875 0 
L 9.8125 0 
z
" id="DejaVuSans-75"/>
     <path d="M 54.890625 33.015625 
L 54.890625 0 
L 45.90625 0 
L 45.90625 32.71875 
Q 45.90625 40.484375 42.875 44.328125 
Q 39.84375 48.1875 33.796875 48.1875 
Q 26.515625 48.1875 22.3125 43.546875 
Q 18.109375 38.921875 18.109375 30.90625 
L 18.109375 0 
L 9.078125 0 
L 9.078125 54.6875 
L 18.109375 54.6875 
L 18.109375 46.1875 
Q 21.34375 51.125 25.703125 53.5625 
Q 30.078125 56 35.796875 56 
Q 45.21875 56 50.046875 50.171875 
Q 54.890625 44.34375 54.890625 33.015625 
z
" id="DejaVuSans-110"/>
     <path d="M 30.609375 48.390625 
Q 23.390625 48.390625 19.1875 42.75 
Q 14.984375 37.109375 14.984375 27.296875 
Q 14.984375 17.484375 19.15625 11.84375 
Q 23.34375 6.203125 30.609375 6.203125 
Q 37.796875 6.203125 41.984375 11.859375 
Q 46.1875 17.53125 46.1875 27.296875 
Q 46.1875 37.015625 41.984375 42.703125 
Q 37.796875 48.390625 30.609375 48.390625 
z
M 30.609375 56 
Q 42.328125 56 49.015625 48.375 
Q 55.71875 40.765625 55.71875 27.296875 
Q 55.71875 13.875 49.015625 6.21875 
Q 42.328125 -1.421875 30.609375 -1.421875 
Q 18.84375 -1.421875 12.171875 6.21875 
Q 5.515625 13.875 5.515625 27.296875 
Q 5.515625 40.765625 12.171875 48.375 
Q 18.84375 56 30.609375 56 
z
" id="DejaVuSans-111"/>
     <path d="M 4.203125 54.6875 
L 13.1875 54.6875 
L 24.421875 12.015625 
L 35.59375 54.6875 
L 46.1875 54.6875 
L 57.421875 12.015625 
L 68.609375 54.6875 
L 77.59375 54.6875 
L 63.28125 0 
L 52.6875 0 
L 40.921875 44.828125 
L 29.109375 0 
L 18.5 0 
z
" id="DejaVuSans-119"/>
     <path d="M 10.59375 45.40625 
L 73.1875 45.40625 
L 73.1875 37.203125 
L 10.59375 37.203125 
z
M 10.59375 25.484375 
L 73.1875 25.484375 
L 73.1875 17.1875 
L 10.59375 17.1875 
z
" id="DejaVuSans-61"/>
     <path d="M 9.8125 72.90625 
L 51.703125 72.90625 
L 51.703125 64.59375 
L 19.671875 64.59375 
L 19.671875 43.109375 
L 48.578125 43.109375 
L 48.578125 34.8125 
L 19.671875 34.8125 
L 19.671875 0 
L 9.8125 0 
z
" id="DejaVuSans-70"/>
     <path d="M 34.28125 27.484375 
Q 23.390625 27.484375 19.1875 25 
Q 14.984375 22.515625 14.984375 16.5 
Q 14.984375 11.71875 18.140625 8.90625 
Q 21.296875 6.109375 26.703125 6.109375 
Q 34.1875 6.109375 38.703125 11.40625 
Q 43.21875 16.703125 43.21875 25.484375 
L 43.21875 27.484375 
z
M 52.203125 31.203125 
L 52.203125 0 
L 43.21875 0 
L 43.21875 8.296875 
Q 40.140625 3.328125 35.546875 0.953125 
Q 30.953125 -1.421875 24.3125 -1.421875 
Q 15.921875 -1.421875 10.953125 3.296875 
Q 6 8.015625 6 15.921875 
Q 6 25.140625 12.171875 29.828125 
Q 18.359375 34.515625 30.609375 34.515625 
L 43.21875 34.515625 
L 43.21875 35.40625 
Q 43.21875 41.609375 39.140625 45 
Q 35.0625 48.390625 27.6875 48.390625 
Q 23 48.390625 18.546875 47.265625 
Q 14.109375 46.140625 10.015625 43.890625 
L 10.015625 52.203125 
Q 14.9375 54.109375 19.578125 55.046875 
Q 24.21875 56 28.609375 56 
Q 40.484375 56 46.34375 49.84375 
Q 52.203125 43.703125 52.203125 31.203125 
z
" id="DejaVuSans-97"/>
     <path d="M 9.421875 75.984375 
L 18.40625 75.984375 
L 18.40625 0 
L 9.421875 0 
z
" id="DejaVuSans-108"/>
     <path d="M 19.671875 64.796875 
L 19.671875 8.109375 
L 31.59375 8.109375 
Q 46.6875 8.109375 53.6875 14.9375 
Q 60.6875 21.78125 60.6875 36.53125 
Q 60.6875 51.171875 53.6875 57.984375 
Q 46.6875 64.796875 31.59375 64.796875 
z
M 9.8125 72.90625 
L 30.078125 72.90625 
Q 51.265625 72.90625 61.171875 64.09375 
Q 71.09375 55.28125 71.09375 36.53125 
Q 71.09375 17.671875 61.125 8.828125 
Q 51.171875 0 30.078125 0 
L 9.8125 0 
z
" id="DejaVuSans-68"/>
     <path d="M 45.40625 27.984375 
Q 45.40625 37.75 41.375 43.109375 
Q 37.359375 48.484375 30.078125 48.484375 
Q 22.859375 48.484375 18.828125 43.109375 
Q 14.796875 37.75 14.796875 27.984375 
Q 14.796875 18.265625 18.828125 12.890625 
Q 22.859375 7.515625 30.078125 7.515625 
Q 37.359375 7.515625 41.375 12.890625 
Q 45.40625 18.265625 45.40625 27.984375 
z
M 54.390625 6.78125 
Q 54.390625 -7.171875 48.1875 -13.984375 
Q 42 -20.796875 29.203125 -20.796875 
Q 24.46875 -20.796875 20.265625 -20.09375 
Q 16.0625 -19.390625 12.109375 -17.921875 
L 12.109375 -9.1875 
Q 16.0625 -11.328125 19.921875 -12.34375 
Q 23.78125 -13.375 27.78125 -13.375 
Q 36.625 -13.375 41.015625 -8.765625 
Q 45.40625 -4.15625 45.40625 5.171875 
L 45.40625 9.625 
Q 42.625 4.78125 38.28125 2.390625 
Q 33.9375 0 27.875 0 
Q 17.828125 0 11.671875 7.65625 
Q 5.515625 15.328125 5.515625 27.984375 
Q 5.515625 40.671875 11.671875 48.328125 
Q 17.828125 56 27.875 56 
Q 33.9375 56 38.28125 53.609375 
Q 42.625 51.21875 45.40625 46.390625 
L 45.40625 54.6875 
L 54.390625 54.6875 
z
" id="DejaVuSans-103"/>
     <path d="M 41.109375 46.296875 
Q 39.59375 47.171875 37.8125 47.578125 
Q 36.03125 48 33.890625 48 
Q 26.265625 48 22.1875 43.046875 
Q 18.109375 38.09375 18.109375 28.8125 
L 18.109375 0 
L 9.078125 0 
L 9.078125 54.6875 
L 18.109375 54.6875 
L 18.109375 46.1875 
Q 20.953125 51.171875 25.484375 53.578125 
Q 30.03125 56 36.53125 56 
Q 37.453125 56 38.578125 55.875 
Q 39.703125 55.765625 41.0625 55.515625 
z
" id="DejaVuSans-114"/>
     <path d="M 9.421875 54.6875 
L 18.40625 54.6875 
L 18.40625 0 
L 9.421875 0 
z
M 9.421875 75.984375 
L 18.40625 75.984375 
L 18.40625 64.59375 
L 9.421875 64.59375 
z
" id="DejaVuSans-105"/>
     <path d="M 10.6875 12.40625 
L 21 12.40625 
L 21 0 
L 10.6875 0 
z
" id="DejaVuSans-46"/>
    </defs>
    <g transform="translate(49.741875 35.472)scale(0.12 -0.12)">
     <use xlink:href="#DejaVuSans-40"/>
     <use x="39.013672" xlink:href="#DejaVuSans-49"/>
     <use x="102.636719" xlink:href="#DejaVuSans-52"/>
     <use x="166.259766" xlink:href="#DejaVuSans-53"/>
     <use x="229.882812" xlink:href="#DejaVuSans-41"/>
     <use x="268.896484" xlink:href="#DejaVuSans-32"/>
     <use x="300.683594" xlink:href="#DejaVuSans-83"/>
     <use x="364.160156" xlink:href="#DejaVuSans-117"/>
     <use x="427.539062" xlink:href="#DejaVuSans-98"/>
     <use x="491.015625" xlink:href="#DejaVuSans-106"/>
     <use x="518.798828" xlink:href="#DejaVuSans-101"/>
     <use x="580.322266" xlink:href="#DejaVuSans-99"/>
     <use x="635.302734" xlink:href="#DejaVuSans-116"/>
     <use x="674.511719" xlink:href="#DejaVuSans-58"/>
     <use x="708.203125" xlink:href="#DejaVuSans-32"/>
     <use x="739.990234" xlink:href="#DejaVuSans-115"/>
     <use x="792.089844" xlink:href="#DejaVuSans-55"/>
     <use x="855.712891" xlink:href="#DejaVuSans-44"/>
     <use x="887.5" xlink:href="#DejaVuSans-32"/>
     <use x="919.287109" xlink:href="#DejaVuSans-75"/>
     <use x="984.863281" xlink:href="#DejaVuSans-110"/>
     <use x="1048.242188" xlink:href="#DejaVuSans-111"/>
     <use x="1109.423828" xlink:href="#DejaVuSans-119"/>
     <use x="1191.210938" xlink:href="#DejaVuSans-110"/>
     <use x="1254.589844" xlink:href="#DejaVuSans-32"/>
     <use x="1286.376953" xlink:href="#DejaVuSans-61"/>
     <use x="1370.166016" xlink:href="#DejaVuSans-32"/>
     <use x="1401.953125" xlink:href="#DejaVuSans-70"/>
     <use x="1459.332031" xlink:href="#DejaVuSans-97"/>
     <use x="1520.611328" xlink:href="#DejaVuSans-108"/>
     <use x="1548.394531" xlink:href="#DejaVuSans-115"/>
     <use x="1600.494141" xlink:href="#DejaVuSans-101"/>
     <use x="1662.017578" xlink:href="#DejaVuSans-44"/>
     <use x="1693.804688" xlink:href="#DejaVuSans-32"/>
     <use x="1725.591797" xlink:href="#DejaVuSans-68"/>
     <use x="1802.59375" xlink:href="#DejaVuSans-101"/>
     <use x="1864.117188" xlink:href="#DejaVuSans-103"/>
     <use x="1927.59375" xlink:href="#DejaVuSans-114"/>
     <use x="1968.675781" xlink:href="#DejaVuSans-101"/>
     <use x="2030.199219" xlink:href="#DejaVuSans-101"/>
     <use x="2091.722656" xlink:href="#DejaVuSans-32"/>
     <use x="2123.509766" xlink:href="#DejaVuSans-61"/>
     <use x="2207.298828" xlink:href="#DejaVuSans-32"/>
     <use x="2239.085938" xlink:href="#DejaVuSans-50"/>
     <use x="2302.708984" xlink:href="#DejaVuSans-44"/>
     <use x="2334.496094" xlink:href="#DejaVuSans-32"/>
     <use x="2366.283203" xlink:href="#DejaVuSans-68"/>
     <use x="2443.285156" xlink:href="#DejaVuSans-117"/>
     <use x="2506.664062" xlink:href="#DejaVuSans-114"/>
     <use x="2547.777344" xlink:href="#DejaVuSans-97"/>
     <use x="2609.056641" xlink:href="#DejaVuSans-116"/>
     <use x="2648.265625" xlink:href="#DejaVuSans-105"/>
     <use x="2676.048828" xlink:href="#DejaVuSans-111"/>
     <use x="2737.230469" xlink:href="#DejaVuSans-110"/>
     <use x="2800.609375" xlink:href="#DejaVuSans-32"/>
     <use x="2832.396484" xlink:href="#DejaVuSans-61"/>
     <use x="2916.185547" xlink:href="#DejaVuSans-32"/>
     <use x="2947.972656" xlink:href="#DejaVuSans-48"/>
     <use x="3011.595703" xlink:href="#DejaVuSans-46"/>
     <use x="3043.382812" xlink:href="#DejaVuSans-49"/>
    </g>
   </g>
  </g>
 </g>
 <defs>
  <clipPath id="p4fff2e23fe">
   <rect height="266.112" width="357.12" x="57.6" y="41.472"/>
  </clipPath>
 </defs>
</svg>
