<?xml version="1.0" encoding="utf-8" standalone="no"?>
<!DOCTYPE svg PUBLIC "-//W3C//DTD SVG 1.1//EN"
  "http://www.w3.org/Graphics/SVG/1.1/DTD/svg11.dtd">
<!-- Created with matplotlib (https://matplotlib.org/) -->
<svg height="345.6pt" version="1.1" viewBox="0 0 460.8 345.6" width="460.8pt" xmlns="http://www.w3.org/2000/svg" xmlns:xlink="http://www.w3.org/1999/xlink">
 <defs>
  <style type="text/css">
*{stroke-linecap:butt;stroke-linejoin:round;}
  </style>
 </defs>
 <g id="figure_1">
  <g id="patch_1">
   <path d="M 0 345.6 
L 460.8 345.6 
L 460.8 0 
L 0 0 
z
" style="fill:#ffffff;"/>
  </g>
  <g id="axes_1">
   <g id="patch_2">
    <path d="M 57.6 307.584 
L 414.72 307.584 
L 414.72 41.472 
L 57.6 41.472 
z
" style="fill:#ffffff;"/>
   </g>
   <g id="line2d_1">
    <path clip-path="url(#p03c194e9c2)" d="M 77.436195 71.488165 
L 77.993836 70.891568 
L 77.993836 69.101778 
L 77.436195 67.904132 
L 76.881816 67.904132 
L 77.159006 67.307535 
L 77.716646 67.904132 
L 77.716646 69.101778 
L 77.436195 69.698375 
L 76.604626 67.904132 
L 76.881816 67.904132 
L 76.881816 69.101778 
L 76.327436 70.294971 
L 76.327436 70.294971 
L 76.327436 69.101778 
L 76.327436 69.101778 
L 76.604626 69.101778 
L 76.881816 69.698375 
L 76.881816 69.101778 
L 76.604626 68.505181 
L 76.327436 68.505181 
L 76.327436 68.505181 
L 76.327436 69.101778 
L 76.327436 69.101778 
L 75.218677 69.101778 
L 75.495866 67.904132 
L 75.218677 66.114342 
L 74.941487 66.114342 
L 74.941487 66.710938 
L 76.327436 66.710938 
L 76.050246 66.114342 
L 74.664297 66.114342 
L 75.218677 66.114342 
L 75.495866 65.517745 
L 75.495866 63.126905 
L 75.495866 63.126905 
L 74.941487 64.320099 
L 75.218677 64.921148 
L 75.218677 64.921148 
L 74.941487 64.921148 
L 75.218677 63.723502 
L 75.218677 63.126905 
L 74.664297 64.320099 
L 74.109917 64.320099 
L 74.109917 63.126905 
L 75.773056 61.337115 
L 74.664297 63.723502 
L 74.387107 63.723502 
L 74.387107 62.530309 
L 74.387107 62.530309 
L 74.109917 63.126905 
L 74.387107 63.723502 
L 74.941487 63.723502 
L 75.495866 64.320099 
L 75.773056 64.921148 
L 75.495866 64.320099 
L 74.664297 63.723502 
L 74.664297 63.126905 
L 75.495866 63.126905 
L 76.050246 62.530309 
L 76.050246 62.530309 
L 76.050246 61.933712 
L 75.773056 61.933712 
L 75.495866 61.337115 
L 75.218677 61.337115 
L 75.218677 60.736066 
L 75.495866 61.337115 
L 75.218677 61.933712 
L 74.941487 63.126905 
L 74.387107 63.723502 
L 74.387107 63.723502 
L 74.664297 63.723502 
L 74.941487 64.320099 
L 74.109917 62.530309 
L 73.832727 62.530309 
L 74.387107 62.530309 
L 75.218677 61.933712 
L 75.495866 60.736066 
L 75.218677 60.139469 
L 74.941487 60.139469 
L 74.941487 60.139469 
L 74.941487 59.542872 
L 75.495866 58.946276 
L 75.218677 60.139469 
L 74.387107 61.337115 
L 75.218677 60.139469 
L 75.773056 60.736066 
L 75.495866 61.337115 
L 74.664297 61.337115 
L 74.941487 60.736066 
L 75.218677 59.542872 
L 74.941487 58.349679 
L 74.664297 57.753082 
L 74.387107 57.753082 
L 74.109917 58.946276 
L 74.109917 60.139469 
L 74.664297 61.337115 
L 74.941487 61.337115 
L 75.495866 60.139469 
L 75.495866 59.542872 
L 75.495866 59.542872 
L 74.664297 59.542872 
L 73.832727 58.946276 
L 73.832727 58.946276 
L 74.387107 59.542872 
L 74.664297 60.139469 
L 74.664297 60.139469 
L 74.664297 59.542872 
L 74.941487 58.349679 
L 75.218677 58.946276 
L 75.218677 60.139469 
L 75.218677 58.349679 
L 75.773056 57.152033 
L 76.327436 57.152033 
L 75.773056 58.349679 
L 74.664297 60.139469 
L 74.109917 60.139469 
L 74.941487 59.542872 
L 75.495866 58.946276 
L 75.773056 59.542872 
L 75.773056 57.152033 
L 75.495866 57.152033 
L 75.218677 57.753082 
L 75.218677 58.349679 
L 75.495866 59.542872 
L 75.495866 56.555436 
L 75.773056 57.152033 
L 75.773056 58.349679 
L 74.941487 58.349679 
L 74.941487 57.753082 
L 75.773056 57.152033 
L 76.050246 56.555436 
L 75.773056 57.152033 
L 74.941487 57.753082 
L 74.387107 57.753082 
L 75.218677 55.958839 
L 75.773056 56.555436 
L 75.773056 57.753082 
L 75.218677 57.152033 
L 74.941487 57.152033 
L 74.941487 57.753082 
L 74.664297 57.753082 
L 74.664297 56.555436 
L 74.941487 56.555436 
L 74.941487 57.753082 
L 74.664297 58.946276 
L 74.941487 58.946276 
L 75.218677 58.349679 
L 75.218677 58.946276 
L 75.218677 58.946276 
L 74.941487 57.753082 
L 75.218677 55.958839 
L 75.773056 55.958839 
L 76.050246 56.555436 
L 75.495866 57.152033 
L 74.941487 55.362243 
L 75.218677 54.169049 
L 76.050246 54.765646 
L 76.050246 55.958839 
L 75.773056 56.555436 
L 75.218677 55.958839 
L 74.941487 53.568 
L 75.495866 54.169049 
L 76.050246 55.362243 
L 76.050246 55.958839 
L 74.664297 55.958839 
L 75.773056 54.765646 
L 75.773056 56.555436 
L 75.218677 57.152033 
L 74.941487 57.753082 
L 75.218677 58.946276 
L 75.495866 58.349679 
L 75.218677 57.753082 
L 75.218677 58.349679 
L 75.218677 57.753082 
L 75.495866 57.152033 
L 75.773056 57.152033 
L 75.773056 57.152033 
L 75.773056 57.753082 
L 75.773056 57.753082 
L 75.495866 58.349679 
L 74.664297 56.555436 
L 74.664297 55.958839 
L 74.664297 57.753082 
L 75.218677 58.349679 
L 75.495866 58.946276 
L 75.218677 60.139469 
L 74.941487 60.139469 
L 74.664297 58.946276 
L 74.664297 58.349679 
L 74.941487 58.946276 
L 74.941487 59.542872 
L 75.218677 60.139469 
L 75.773056 58.946276 
L 75.495866 59.542872 
L 75.773056 59.542872 
L 75.773056 58.946276 
L 75.495866 58.349679 
L 75.773056 57.152033 
L 75.773056 56.555436 
L 75.773056 59.542872 
L 75.218677 58.349679 
L 75.495866 58.349679 
L 75.773056 59.542872 
L 75.495866 59.542872 
L 75.495866 57.152033 
L 74.941487 57.152033 
L 74.664297 58.349679 
L 74.941487 60.139469 
L 75.218677 59.542872 
L 75.218677 57.753082 
L 74.941487 56.555436 
L 74.941487 55.958839 
L 75.218677 55.362243 
L 75.218677 54.765646 
L 75.495866 55.362243 
L 75.773056 56.555436 
L 75.773056 57.152033 
L 76.050246 57.753082 
L 76.050246 57.753082 
L 75.495866 57.152033 
L 75.218677 57.152033 
L 74.941487 57.753082 
L 75.218677 57.152033 
L 75.773056 56.555436 
L 77.436195 56.555436 
L 78.548216 57.753082 
L 79.934165 58.349679 
L 81.874494 57.753082 
L 87.695481 57.753082 
L 91.298949 57.152033 
L 94.905679 55.958839 
L 99.063527 56.555436 
L 103.221374 57.753082 
L 107.933602 58.946276 
L 112.92628 58.946276 
L 117.915698 57.753082 
L 122.905115 57.753082 
L 127.620604 58.946276 
L 132.332832 60.736066 
L 137.599439 61.933712 
L 148.135915 61.933712 
L 153.679712 62.530309 
L 164.770567 66.114342 
L 170.037175 66.114342 
L 174.749402 64.921148 
L 179.464891 64.921148 
L 184.177118 66.710938 
L 188.889346 69.101778 
L 193.327645 71.488165 
L 198.317062 73.879004 
L 203.860859 75.673247 
L 209.407918 76.86644 
L 224.37617 78.656231 
L 229.091659 78.656231 
L 233.526696 79.853877 
L 238.238924 82.240264 
L 242.677223 82.836861 
L 247.11226 82.240264 
L 251.824488 82.240264 
L 256.259526 83.43791 
L 264.855672 83.43791 
L 268.73633 84.034506 
L 275.392148 87.618539 
L 277.886857 89.40833 
L 283.153464 90.605976 
L 287.588502 92.395766 
L 288.697261 94.190009 
L 289.251641 96.576396 
L 290.086472 98.967235 
L 290.640851 101.358075 
L 290.363662 104.942108 
L 289.251641 108.521688 
L 287.865692 110.912528 
L 285.370983 116.290803 
L 284.539413 119.273787 
L 283.153464 122.85782 
L 281.767515 127.042902 
L 280.381566 130.025886 
L 278.995616 131.820129 
L 277.332477 133.013322 
L 276.223718 133.609919 
L 275.392148 134.210968 
L 274.560579 135.404162 
L 273.729009 137.790549 
L 273.448558 138.988195 
L 273.729009 139.584792 
L 272.062609 143.168824 
L 271.785419 144.958615 
L 271.785419 146.752857 
L 272.062609 148.542648 
L 272.062609 154.51752 
L 271.785419 155.710714 
L 270.953849 155.710714 
L 269.84509 156.311763 
L 269.84509 158.101553 
L 270.39947 161.088989 
L 270.676659 163.475377 
L 270.39947 164.673022 
L 268.73633 164.673022 
L 267.904761 166.462813 
L 267.627571 168.853652 
L 267.627571 170.643443 
L 267.350381 171.841088 
L 267.350381 173.630879 
L 266.796001 174.227475 
L 266.241622 174.227475 
L 265.964432 179.009154 
L 266.241622 180.202348 
L 265.964432 181.99659 
L 265.132862 183.189784 
L 264.301293 184.979574 
L 264.301293 184.979574 
L 264.301293 184.382978 
L 263.746913 184.382978 
L 263.469723 184.979574 
L 263.469723 184.979574 
L 263.469723 186.17722 
L 264.024103 190.35785 
L 263.746913 190.35785 
L 263.192533 191.551044 
L 263.192533 193.345286 
L 262.915343 193.345286 
L 262.638154 193.941883 
L 262.083774 196.32827 
L 261.252204 199.315706 
L 261.252204 200.513352 
L 260.697825 200.513352 
L 260.143445 202.303143 
L 260.420635 204.693982 
L 260.975014 205.887176 
L 261.529394 205.290579 
L 261.806584 205.887176 
L 260.697825 208.278015 
L 259.866255 209.471208 
L 259.866255 209.471208 
L 259.866255 210.664402 
L 260.143445 211.265451 
L 260.697825 211.862048 
L 260.697825 213.055241 
L 259.866255 215.446081 
L 259.311875 216.042678 
L 259.311875 216.042678 
L 259.034685 216.042678 
L 259.034685 217.832468 
L 259.034685 216.639274 
L 258.757496 215.446081 
L 258.480306 216.639274 
L 258.480306 219.626711 
L 257.925926 219.626711 
L 257.091095 219.030114 
L 257.091095 219.626711 
L 257.925926 220.819904 
L 259.034685 223.210744 
L 258.757496 223.210744 
L 258.480306 222.614147 
L 257.648736 224.403937 
L 256.813906 224.403937 
L 256.536716 225.000534 
L 256.536716 226.19818 
L 256.536716 226.19818 
L 256.259526 226.794777 
L 255.982336 227.98797 
L 256.259526 228.584567 
L 256.259526 229.782213 
L 255.982336 230.37881 
L 255.982336 231.572003 
L 256.259526 232.1686 
L 256.259526 232.765197 
L 255.982336 231.572003 
L 255.982336 232.765197 
L 255.705146 232.765197 
L 255.150766 233.366246 
L 254.596387 233.366246 
L 254.596387 233.366246 
L 254.873577 233.962843 
L 254.596387 234.559439 
L 254.319197 233.962843 
L 254.596387 233.962843 
L 254.596387 233.962843 
L 254.596387 234.559439 
L 254.319197 235.156036 
L 254.042007 235.156036 
L 254.596387 235.156036 
L 254.319197 235.752633 
L 253.764817 235.752633 
L 252.933247 235.156036 
L 252.656058 235.156036 
L 252.656058 235.156036 
L 253.210437 235.752633 
L 254.319197 236.34923 
L 260.143445 236.34923 
L 262.915343 234.559439 
L 266.241622 232.1686 
L 270.12228 229.782213 
L 274.560579 226.19818 
L 279.549996 222.614147 
L 285.093793 219.626711 
L 291.195231 216.639274 
L 303.114395 211.862048 
L 308.107074 208.874612 
L 313.096491 207.080369 
L 318.640288 205.887176 
L 325.018916 204.097385 
L 331.117093 201.706546 
L 336.3837 199.912303 
L 341.376379 197.525916 
L 351.355214 190.35785 
L 356.625082 188.563607 
L 361.891689 187.967011 
L 366.881107 186.17722 
L 371.316144 183.189784 
L 375.200064 180.202348 
L 379.357911 179.009154 
L 383.792949 178.412557 
L 391.003147 176.021718 
L 394.329425 173.630879 
L 396.546944 171.841088 
L 398.487273 171.841088 
L 398.210083 171.841088 
L 397.932893 171.244492 
L 397.932893 171.244492 
L 396.824134 171.841088 
L 394.606615 173.630879 
L 392.666286 175.425121 
L 391.003147 176.618315 
L 389.340007 176.618315 
L 388.231248 177.214912 
L 387.119227 179.009154 
L 386.010468 180.202348 
L 384.901709 179.605751 
L 384.624519 177.811508 
L 384.624519 177.811508 
L 384.070139 180.202348 
L 383.515759 183.189784 
L 384.070139 183.786381 
L 384.070139 183.189784 
L 383.515759 181.99659 
L 382.96138 182.593187 
L 382.68419 184.382978 
L 382.96138 184.979574 
L 383.238569 184.382978 
L 382.407 186.17722 
L 383.238569 185.580623 
L 384.070139 184.382978 
L 383.792949 183.786381 
L 382.96138 184.382978 
L 382.68419 184.979574 
L 382.407 186.773817 
L 381.85262 187.370414 
L 380.743861 187.370414 
L 380.466671 187.967011 
L 380.743861 188.563607 
L 381.29824 187.370414 
L 381.29824 187.370414 
L 381.021051 188.563607 
L 381.021051 189.164656 
L 380.743861 187.967011 
L 380.466671 187.370414 
L 380.189481 187.370414 
L 379.912291 188.563607 
L 379.912291 188.563607 
L 380.189481 188.563607 
L 380.466671 187.967011 
L 380.189481 188.563607 
L 379.912291 188.563607 
L 379.912291 188.563607 
L 380.189481 189.164656 
L 379.635101 189.164656 
L 379.912291 188.563607 
L 379.912291 188.563607 
L 380.189481 188.563607 
L 379.357911 188.563607 
L 378.803532 189.761253 
L 378.803532 190.35785 
L 379.080722 190.954447 
L 379.357911 189.761253 
L 379.080722 190.35785 
L 379.080722 191.551044 
L 379.080722 190.954447 
L 379.357911 190.954447 
L 378.526342 192.744237 
L 378.526342 193.345286 
L 379.357911 195.135077 
L 378.803532 195.135077 
L 378.526342 194.53848 
L 378.803532 193.345286 
L 378.526342 192.744237 
L 377.971962 192.744237 
L 378.249152 192.744237 
L 378.526342 193.345286 
L 378.526342 193.345286 
L 377.971962 195.731673 
L 377.971962 195.731673 
L 377.694772 194.53848 
L 377.140393 195.135077 
L 377.417582 195.731673 
L 377.971962 195.731673 
L 378.249152 195.135077 
L 378.249152 193.345286 
L 378.249152 193.941883 
L 378.526342 194.53848 
L 378.526342 195.135077 
L 378.249152 194.53848 
L 377.971962 192.744237 
L 378.249152 192.14764 
L 378.249152 192.14764 
L 377.694772 194.53848 
L 377.417582 194.53848 
L 377.417582 193.345286 
L 377.417582 193.345286 
L 377.694772 193.345286 
L 376.586013 193.345286 
L 377.417582 193.345286 
L 377.971962 193.941883 
L 377.971962 195.135077 
L 377.417582 195.731673 
L 376.863203 195.135077 
L 376.586013 195.135077 
L 376.586013 195.135077 
L 376.586013 194.53848 
L 376.031633 193.941883 
L 375.477253 193.941883 
L 375.200064 194.53848 
L 375.477253 195.135077 
L 376.308823 196.32827 
L 376.586013 197.525916 
L 376.308823 196.929319 
L 376.308823 193.941883 
L 376.308823 195.135077 
L 376.031633 194.53848 
L 376.031633 193.941883 
L 376.308823 193.941883 
L 375.477253 193.941883 
L 375.754443 193.345286 
L 376.308823 192.744237 
L 376.308823 193.345286 
L 375.754443 193.345286 
L 375.754443 192.744237 
L 376.031633 193.345286 
L 376.031633 194.53848 
L 376.308823 195.731673 
L 376.586013 195.731673 
L 376.586013 195.135077 
L 376.031633 193.345286 
L 375.477253 193.345286 
L 375.477253 194.53848 
L 376.031633 196.929319 
L 376.031633 196.929319 
L 375.477253 195.731673 
L 374.922874 195.135077 
L 374.922874 195.135077 
L 375.477253 194.53848 
L 376.031633 194.53848 
L 375.754443 196.32827 
L 375.477253 196.929319 
L 374.922874 196.32827 
L 375.200064 195.135077 
L 375.754443 194.53848 
L 375.754443 195.731673 
L 375.754443 195.135077 
L 375.477253 196.32827 
L 375.200064 196.929319 
L 375.200064 195.731673 
L 375.477253 195.135077 
L 375.477253 197.525916 
L 375.477253 197.525916 
L 375.754443 196.32827 
L 375.477253 195.731673 
L 374.922874 195.731673 
L 375.200064 196.32827 
L 374.922874 196.32827 
L 374.368494 196.929319 
L 374.368494 198.122513 
L 375.200064 198.122513 
L 375.754443 197.525916 
L 375.754443 196.929319 
L 376.031633 196.32827 
L 376.031633 196.929319 
L 375.477253 198.122513 
L 374.922874 198.71911 
L 374.922874 197.525916 
L 375.200064 196.32827 
L 375.477253 196.32827 
L 375.477253 196.32827 
L 375.754443 196.929319 
L 375.754443 196.929319 
L 375.200064 197.525916 
L 374.645684 196.929319 
L 374.645684 196.929319 
L 375.200064 198.122513 
L 375.477253 197.525916 
L 376.031633 196.929319 
L 376.586013 196.929319 
L 376.586013 196.929319 
L 376.031633 197.525916 
L 374.922874 197.525916 
L 374.368494 196.929319 
L 374.368494 196.929319 
L 374.368494 196.32827 
L 374.091304 196.929319 
L 374.645684 198.122513 
L 375.200064 198.71911 
L 375.200064 198.71911 
L 374.922874 198.71911 
L 374.368494 197.525916 
L 374.645684 198.71911 
L 374.645684 199.315706 
L 374.091304 198.122513 
L 374.091304 198.122513 
L 374.645684 198.122513 
L 375.200064 198.71911 
L 375.200064 198.71911 
L 374.368494 198.122513 
L 373.814114 196.929319 
L 373.814114 196.32827 
L 374.091304 196.32827 
L 374.091304 197.525916 
L 373.814114 198.122513 
L 373.259735 194.53848 
L 373.536924 195.135077 
L 373.814114 196.929319 
L 374.091304 196.929319 
L 373.814114 196.929319 
L 373.814114 196.32827 
L 374.368494 196.929319 
L 374.368494 197.525916 
L 374.091304 197.525916 
L 374.368494 196.32827 
L 374.922874 195.731673 
L 375.200064 195.135077 
L 374.645684 193.941883 
L 374.645684 195.135077 
L 374.368494 196.32827 
L 373.814114 196.32827 
L 373.814114 196.929319 
L 374.091304 197.525916 
L 374.368494 196.32827 
L 374.368494 195.135077 
L 374.091304 195.135077 
L 373.536924 196.929319 
L 373.536924 198.122513 
L 374.645684 198.71911 
L 375.200064 199.315706 
L 373.536924 197.525916 
L 372.705355 196.929319 
L 372.428165 196.32827 
L 373.814114 196.32827 
L 374.091304 195.731673 
L 374.091304 195.731673 
L 374.091304 197.525916 
L 373.814114 198.71911 
L 373.259735 199.315706 
L 373.536924 198.71911 
L 374.368494 197.525916 
L 374.368494 196.929319 
L 374.368494 197.525916 
L 373.536924 197.525916 
L 372.705355 198.122513 
L 372.428165 198.71911 
L 372.428165 199.315706 
L 372.705355 198.122513 
L 372.705355 196.929319 
L 372.705355 198.122513 
L 371.873785 196.929319 
L 370.761765 196.32827 
L 369.098626 197.525916 
L 367.158297 199.315706 
L 364.663588 200.513352 
L 361.33731 201.109949 
L 358.011031 202.303143 
L 350.523644 207.681418 
L 345.811416 210.664402 
L 340.544809 213.651838 
L 335.552131 216.639274 
L 325.296106 223.210744 
L 312.819301 227.98797 
L 306.998314 230.37881 
L 301.174066 233.366246 
L 295.353079 236.950279 
L 284.816603 245.311538 
L 279.549996 248.298974 
L 274.006199 250.685362 
L 268.73633 253.672798 
L 264.024103 257.256831 
L 259.589065 260.840864 
L 254.873577 265.61809 
L 250.161349 269.202123 
L 244.894742 271.592963 
L 239.624873 273.382753 
L 234.635456 275.773593 
L 230.477608 279.357625 
L 226.87414 282.941658 
L 223.82179 285.332498 
L 221.327082 286.525691 
L 218.832373 286.525691 
L 215.783284 287.122288 
L 213.288576 288.319934 
L 211.071057 288.319934 
L 208.853538 288.916531 
L 207.187138 290.706321 
L 205.801188 293.097161 
L 204.692429 294.290354 
L 203.58367 294.290354 
L 202.47491 293.693757 
L 201.92053 294.290354 
L 201.643341 295.488 
L 203.58367 295.488 
L 204.138049 293.693757 
L 204.969619 291.903967 
L 206.078378 292.500564 
L 206.909948 293.693757 
L 207.187138 294.886951 
L 207.187138 294.886951 
L 207.187138 294.290354 
L 206.632758 294.290354 
L 206.909948 293.693757 
L 207.464328 293.693757 
L 207.464328 294.886951 
L 207.464328 294.290354 
L 206.355568 293.097161 
L 206.355568 293.097161 
L 206.355568 292.500564 
L 205.801188 292.500564 
L 205.246809 291.302918 
L 205.246809 292.500564 
L 204.969619 293.097161 
L 204.415239 292.500564 
L 203.860859 290.706321 
L 203.860859 290.706321 
L 203.58367 291.903967 
L 203.30648 291.903967 
L 202.47491 290.109724 
L 202.19772 290.706321 
L 202.19772 293.693757 
L 202.47491 294.290354 
L 202.7521 293.097161 
L 202.47491 291.302918 
L 201.643341 290.109724 
L 200.534581 289.513128 
L 200.257391 290.109724 
L 200.534581 291.302918 
L 199.980201 293.693757 
L 199.980201 294.290354 
L 200.534581 288.916531 
L 199.980201 288.319934 
L 199.148632 288.916531 
L 199.148632 289.513128 
L 199.703011 290.109724 
L 199.703011 290.706321 
L 199.425822 290.706321 
L 199.148632 290.109724 
L 199.148632 288.916531 
L 199.425822 288.916531 
L 199.703011 289.513128 
L 199.703011 289.513128 
L 199.980201 288.319934 
L 200.257391 286.525691 
L 200.257391 286.525691 
L 199.425822 287.718885 
L 198.594252 287.718885 
L 198.039872 287.122288 
L 197.762682 287.122288 
L 197.485493 287.718885 
L 196.931113 288.319934 
L 196.653923 288.916531 
L 197.208303 288.916531 
L 197.485493 288.319934 
L 197.208303 287.122288 
L 196.653923 286.525691 
L 196.376733 285.332498 
L 196.376733 284.134852 
L 196.653923 283.538255 
L 196.653923 282.345062 
L 196.099543 282.941658 
L 195.545164 284.134852 
L 195.267974 285.332498 
L 195.822353 284.134852 
L 196.099543 282.941658 
L 196.099543 280.550819 
L 196.099543 280.550819 
L 195.822353 281.151868 
L 196.099543 281.748465 
L 196.376733 281.748465 
L 196.099543 281.151868 
L 195.545164 280.550819 
L 195.267974 281.151868 
L 195.545164 281.151868 
L 195.822353 280.550819 
L 195.822353 279.954222 
L 195.822353 280.550819 
L 195.545164 281.748465 
L 195.267974 281.748465 
L 195.267974 281.151868 
L 195.267974 282.345062 
L 194.990784 282.941658 
L 194.713594 281.748465 
L 195.267974 279.954222 
L 195.822353 278.761029 
L 195.545164 279.357625 
L 194.713594 279.357625 
L 194.436404 278.164432 
L 194.436404 277.567835 
L 194.436404 278.761029 
L 194.159214 278.164432 
L 193.882024 278.164432 
L 193.882024 279.954222 
L 193.882024 279.954222 
L 193.604835 279.357625 
L 193.604835 278.761029 
L 193.882024 278.164432 
L 193.882024 276.370189 
L 193.604835 275.176996 
L 193.882024 275.176996 
L 194.159214 274.580399 
L 193.882024 274.580399 
L 193.604835 275.176996 
L 193.604835 274.580399 
L 193.882024 273.382753 
L 194.436404 272.786156 
L 194.713594 272.786156 
L 193.050455 274.580399 
L 192.218885 275.176996 
L 192.218885 275.176996 
L 193.327645 274.580399 
L 193.882024 273.382753 
L 194.159214 272.18956 
L 194.159214 271.592963 
L 194.159214 271.592963 
L 193.604835 271.592963 
L 193.327645 272.786156 
L 193.050455 272.18956 
L 193.050455 271.592963 
L 192.773265 271.592963 
L 193.327645 272.18956 
L 193.882024 272.18956 
L 192.773265 272.18956 
L 192.773265 272.786156 
L 193.050455 272.786156 
L 193.604835 272.18956 
L 193.327645 270.996366 
L 192.773265 269.803172 
L 192.496075 268.605527 
L 193.050455 268.00893 
L 193.327645 269.202123 
L 193.050455 270.399769 
L 192.496075 270.996366 
L 192.496075 270.399769 
L 193.327645 269.803172 
L 193.604835 270.996366 
L 193.327645 272.18956 
L 192.773265 272.18956 
L 192.496075 270.399769 
L 192.496075 269.202123 
L 192.496075 269.202123 
L 193.050455 269.803172 
L 193.882024 270.399769 
L 193.882024 270.399769 
L 193.327645 269.202123 
L 192.496075 268.605527 
L 192.218885 268.605527 
L 193.050455 272.18956 
L 192.773265 272.786156 
L 192.496075 272.18956 
L 192.496075 272.18956 
L 194.159214 272.18956 
L 192.773265 272.18956 
L 192.773265 270.996366 
L 192.496075 270.399769 
L 192.496075 269.803172 
L 191.938434 269.803172 
L 191.106865 270.399769 
L 190.829675 271.592963 
L 191.106865 271.592963 
L 191.661245 270.996366 
L 191.938434 269.803172 
L 191.661245 269.202123 
L 191.106865 268.605527 
L 190.829675 268.605527 
L 190.829675 269.803172 
L 191.384055 269.803172 
L 191.661245 269.202123 
L 191.661245 268.605527 
L 191.106865 269.803172 
L 191.661245 268.605527 
L 192.218885 268.00893 
L 192.218885 268.00893 
L 191.938434 267.412333 
L 191.938434 266.815736 
L 191.661245 267.412333 
L 191.661245 269.202123 
L 191.384055 269.803172 
L 191.106865 269.803172 
L 191.384055 269.202123 
L 191.384055 269.202123 
L 191.384055 270.996366 
L 191.106865 272.786156 
L 191.384055 273.382753 
L 191.661245 272.786156 
L 191.938434 271.592963 
L 191.938434 269.803172 
L 191.661245 269.202123 
L 191.661245 269.803172 
L 191.661245 269.803172 
L 191.384055 269.202123 
L 191.938434 269.202123 
L 190.829675 269.202123 
L 190.552485 269.803172 
L 191.106865 270.399769 
L 191.384055 270.399769 
L 191.106865 270.399769 
L 190.829675 270.996366 
L 190.552485 270.399769 
L 190.275295 270.399769 
L 190.275295 269.202123 
L 190.552485 269.202123 
L 191.106865 269.803172 
L 191.106865 269.803172 
L 190.275295 269.803172 
L 190.552485 269.803172 
L 190.552485 272.18956 
L 190.829675 272.18956 
L 189.720916 269.803172 
L 189.998105 270.399769 
L 190.829675 270.996366 
L 191.106865 270.399769 
L 191.106865 269.803172 
L 190.275295 269.202123 
L 189.443726 269.202123 
L 189.720916 269.202123 
L 189.998105 266.815736 
L 189.720916 268.00893 
L 189.720916 270.399769 
L 189.443726 272.18956 
L 189.720916 272.18956 
L 189.998105 270.996366 
L 190.275295 270.399769 
L 189.720916 271.592963 
L 189.720916 271.592963 
L 189.720916 266.219139 
L 189.443726 265.021494 
L 189.166536 266.219139 
L 189.166536 268.00893 
L 189.166536 266.815736 
L 188.889346 268.00893 
L 188.334966 268.605527 
L 188.334966 269.202123 
L 188.889346 269.202123 
L 188.057776 265.61809 
L 188.057776 265.61809 
L 188.057776 266.815736 
L 187.780587 266.815736 
L 187.780587 265.61809 
L 188.057776 265.021494 
L 188.057776 265.61809 
L 187.780587 266.219139 
L 187.503397 266.219139 
L 186.949017 265.021494 
L 186.949017 263.231703 
L 187.780587 265.021494 
L 187.780587 265.021494 
L 187.226207 264.424897 
L 187.226207 263.231703 
L 187.780587 262.635106 
L 188.612156 262.635106 
L 188.612156 263.231703 
L 189.443726 263.8283 
L 191.106865 263.231703 
L 193.604835 261.437461 
L 195.545164 259.64767 
L 197.485493 258.450024 
L 203.58367 255.46704 
L 207.464328 253.076201 
L 211.902626 249.492168 
L 216.614854 245.908135 
L 221.881461 242.324102 
L 226.87414 238.740069 
L 231.586367 235.156036 
L 236.298595 230.37881 
L 240.733633 226.19818 
L 244.617552 222.013098 
L 252.933247 214.849484 
L 256.813906 211.862048 
L 260.143445 210.664402 
L 262.915343 209.471208 
L 266.241622 206.483772 
L 269.5679 201.706546 
L 272.616989 198.71911 
L 277.609667 195.135077 
L 280.104376 192.744237 
L 283.430654 189.761253 
L 289.251641 187.370414 
L 291.749611 186.773817 
L 294.521509 185.580623 
L 297.847788 183.786381 
L 300.896876 180.202348 
L 303.668775 177.214912 
L 306.721124 176.021718 
L 309.215833 175.425121 
L 311.433352 173.630879 
L 313.373681 171.841088 
L 318.085908 171.841088 
L 318.917478 171.244492 
L 319.471858 170.643443 
L 319.194668 170.643443 
L 318.640288 171.244492 
L 317.808719 170.643443 
L 317.531529 170.046846 
L 316.699959 171.244492 
L 315.5912 172.437685 
L 314.48244 173.034282 
L 312.819301 174.227475 
L 311.710542 175.425121 
L 310.878972 176.618315 
L 310.324592 177.214912 
L 309.770213 178.412557 
L 310.047403 179.009154 
L 310.047403 179.009154 
L 310.047403 177.811508 
L 310.324592 176.618315 
L 310.324592 176.618315 
L 310.047403 176.618315 
L 309.770213 176.021718 
L 309.493023 176.618315 
L 309.493023 177.214912 
L 309.770213 176.618315 
L 309.770213 176.618315 
L 308.661453 176.618315 
L 307.829884 176.021718 
L 307.829884 174.828525 
L 307.829884 176.021718 
L 307.552694 178.412557 
L 307.552694 178.412557 
L 308.107074 177.811508 
L 307.829884 176.618315 
L 307.275504 176.618315 
L 307.275504 177.214912 
L 306.998314 177.811508 
L 306.721124 176.618315 
L 306.443934 176.021718 
L 306.443934 177.214912 
L 306.163484 179.605751 
L 306.443934 178.412557 
L 306.443934 177.214912 
L 306.163484 176.021718 
L 305.886294 176.021718 
L 305.886294 176.618315 
L 305.886294 176.021718 
L 306.163484 175.425121 
L 306.721124 175.425121 
L 306.721124 176.618315 
L 306.721124 176.021718 
L 306.443934 176.021718 
L 306.443934 176.618315 
L 306.163484 177.214912 
L 306.163484 179.009154 
L 306.163484 176.021718 
L 305.609104 174.828525 
L 305.054724 176.021718 
L 304.777534 177.214912 
L 304.500344 176.618315 
L 304.500344 176.021718 
L 304.777534 175.425121 
L 305.054724 176.021718 
L 303.945965 176.021718 
L 304.500344 174.828525 
L 304.500344 174.828525 
L 303.945965 175.425121 
L 303.945965 175.425121 
L 304.223154 176.021718 
L 304.500344 176.021718 
L 304.500344 176.618315 
L 304.777534 176.021718 
L 304.500344 174.828525 
L 303.668775 174.828525 
L 303.668775 176.021718 
L 303.945965 176.021718 
L 303.945965 175.425121 
L 303.668775 176.021718 
L 303.668775 176.618315 
L 303.668775 176.618315 
L 303.114395 175.425121 
L 303.391585 175.425121 
L 303.668775 176.021718 
L 303.668775 176.618315 
L 303.391585 177.214912 
L 303.391585 176.021718 
L 302.837205 176.021718 
L 302.837205 176.021718 
L 303.114395 176.618315 
L 303.114395 176.021718 
L 302.837205 174.828525 
L 302.837205 173.630879 
L 303.945965 173.034282 
L 305.331914 173.034282 
L 307.275504 172.437685 
L 309.770213 170.046846 
L 313.096491 167.660459 
L 316.977149 165.866216 
L 325.850486 164.673022 
L 330.008333 162.87878 
L 334.166181 160.492393 
L 338.324029 158.69815 
L 343.039518 156.90836 
L 347.197366 155.114117 
L 351.355214 152.72773 
L 354.958682 150.33689 
L 358.842601 148.542648 
L 362.446069 147.349454 
L 365.495157 144.958615 
L 368.267056 142.572228 
L 370.761765 140.777985 
L 372.982545 139.584792 
L 374.922874 138.391598 
L 376.308823 137.193952 
L 377.417582 136.597355 
L 377.971962 137.193952 
L 378.803532 136.597355 
L 379.635101 135.404162 
L 380.466671 133.609919 
L 379.912291 133.013322 
L 379.357911 133.609919 
L 379.080722 134.807565 
L 377.694772 134.807565 
L 376.863203 134.210968 
L 376.863203 133.609919 
L 376.586013 133.013322 
L 376.031633 133.609919 
L 373.814114 133.609919 
L 373.259735 134.210968 
L 373.259735 136.000759 
L 373.259735 136.000759 
L 372.705355 136.597355 
L 372.428165 137.193952 
L 372.428165 137.790549 
L 372.982545 136.597355 
L 372.982545 136.597355 
L 372.428165 137.193952 
L 372.428165 137.790549 
L 372.428165 137.193952 
L 371.316144 134.807565 
L 371.593334 135.404162 
L 371.316144 136.000759 
L 370.761765 136.597355 
L 370.761765 136.597355 
L 370.484575 137.193952 
L 370.484575 137.193952 
L 370.484575 136.597355 
L 370.484575 137.193952 
L 370.207385 137.790549 
L 369.930195 138.988195 
L 369.653005 139.584792 
L 369.653005 140.181388 
L 370.207385 138.988195 
L 369.930195 138.391598 
L 369.930195 137.790549 
L 370.207385 136.000759 
L 370.761765 134.807565 
L 370.207385 136.000759 
L 368.821436 137.193952 
L 367.989866 137.193952 
L 367.989866 136.000759 
L 368.544246 135.404162 
L 368.821436 134.807565 
L 368.821436 134.807565 
L 368.821436 134.210968 
L 368.821436 134.210968 
L 368.544246 134.807565 
L 368.544246 136.000759 
L 368.821436 136.597355 
L 368.544246 136.597355 
L 368.267056 135.404162 
L 368.267056 134.210968 
L 368.267056 134.210968 
L 367.989866 133.609919 
L 367.712676 133.609919 
L 367.712676 134.807565 
L 368.544246 136.597355 
L 368.544246 136.597355 
L 368.267056 136.597355 
L 367.435486 137.193952 
L 366.881107 137.193952 
L 366.881107 136.597355 
L 367.158297 136.000759 
L 367.712676 135.404162 
L 367.989866 135.404162 
L 367.712676 135.404162 
L 367.435486 134.210968 
L 367.158297 133.609919 
L 367.158297 133.609919 
L 367.158297 134.807565 
L 367.435486 134.807565 
L 367.712676 133.609919 
L 367.712676 133.609919 
" style="fill:none;stroke:#1f77b4;stroke-linecap:square;stroke-width:1.5;"/>
   </g>
   <g id="matplotlib.axis_1">
    <g id="xtick_1">
     <g id="line2d_2">
      <defs>
       <path d="M 0 0 
L 0 3.5 
" id="mfce3bb0823" style="stroke:#000000;stroke-width:0.8;"/>
      </defs>
      <g>
       <use style="stroke:#000000;stroke-width:0.8;" x="102.826786" xlink:href="#mfce3bb0823" y="307.584"/>
      </g>
     </g>
     <g id="text_1">
      <!-- −600 -->
      <defs>
       <path d="M 10.59375 35.5 
L 73.1875 35.5 
L 73.1875 27.203125 
L 10.59375 27.203125 
z
" id="DejaVuSans-8722"/>
       <path d="M 33.015625 40.375 
Q 26.375 40.375 22.484375 35.828125 
Q 18.609375 31.296875 18.609375 23.390625 
Q 18.609375 15.53125 22.484375 10.953125 
Q 26.375 6.390625 33.015625 6.390625 
Q 39.65625 6.390625 43.53125 10.953125 
Q 47.40625 15.53125 47.40625 23.390625 
Q 47.40625 31.296875 43.53125 35.828125 
Q 39.65625 40.375 33.015625 40.375 
z
M 52.59375 71.296875 
L 52.59375 62.3125 
Q 48.875 64.0625 45.09375 64.984375 
Q 41.3125 65.921875 37.59375 65.921875 
Q 27.828125 65.921875 22.671875 59.328125 
Q 17.53125 52.734375 16.796875 39.40625 
Q 19.671875 43.65625 24.015625 45.921875 
Q 28.375 48.1875 33.59375 48.1875 
Q 44.578125 48.1875 50.953125 41.515625 
Q 57.328125 34.859375 57.328125 23.390625 
Q 57.328125 12.15625 50.6875 5.359375 
Q 44.046875 -1.421875 33.015625 -1.421875 
Q 20.359375 -1.421875 13.671875 8.265625 
Q 6.984375 17.96875 6.984375 36.375 
Q 6.984375 53.65625 15.1875 63.9375 
Q 23.390625 74.21875 37.203125 74.21875 
Q 40.921875 74.21875 44.703125 73.484375 
Q 48.484375 72.75 52.59375 71.296875 
z
" id="DejaVuSans-54"/>
       <path d="M 31.78125 66.40625 
Q 24.171875 66.40625 20.328125 58.90625 
Q 16.5 51.421875 16.5 36.375 
Q 16.5 21.390625 20.328125 13.890625 
Q 24.171875 6.390625 31.78125 6.390625 
Q 39.453125 6.390625 43.28125 13.890625 
Q 47.125 21.390625 47.125 36.375 
Q 47.125 51.421875 43.28125 58.90625 
Q 39.453125 66.40625 31.78125 66.40625 
z
M 31.78125 74.21875 
Q 44.046875 74.21875 50.515625 64.515625 
Q 56.984375 54.828125 56.984375 36.375 
Q 56.984375 17.96875 50.515625 8.265625 
Q 44.046875 -1.421875 31.78125 -1.421875 
Q 19.53125 -1.421875 13.0625 8.265625 
Q 6.59375 17.96875 6.59375 36.375 
Q 6.59375 54.828125 13.0625 64.515625 
Q 19.53125 74.21875 31.78125 74.21875 
z
" id="DejaVuSans-48"/>
      </defs>
      <g transform="translate(89.093193 322.182437)scale(0.1 -0.1)">
       <use xlink:href="#DejaVuSans-8722"/>
       <use x="83.789062" xlink:href="#DejaVuSans-54"/>
       <use x="147.412109" xlink:href="#DejaVuSans-48"/>
       <use x="211.035156" xlink:href="#DejaVuSans-48"/>
      </g>
     </g>
    </g>
    <g id="xtick_2">
     <g id="line2d_3">
      <g>
       <use style="stroke:#000000;stroke-width:0.8;" x="168.04793" xlink:href="#mfce3bb0823" y="307.584"/>
      </g>
     </g>
     <g id="text_2">
      <!-- −400 -->
      <defs>
       <path d="M 37.796875 64.3125 
L 12.890625 25.390625 
L 37.796875 25.390625 
z
M 35.203125 72.90625 
L 47.609375 72.90625 
L 47.609375 25.390625 
L 58.015625 25.390625 
L 58.015625 17.1875 
L 47.609375 17.1875 
L 47.609375 0 
L 37.796875 0 
L 37.796875 17.1875 
L 4.890625 17.1875 
L 4.890625 26.703125 
z
" id="DejaVuSans-52"/>
      </defs>
      <g transform="translate(154.314336 322.182437)scale(0.1 -0.1)">
       <use xlink:href="#DejaVuSans-8722"/>
       <use x="83.789062" xlink:href="#DejaVuSans-52"/>
       <use x="147.412109" xlink:href="#DejaVuSans-48"/>
       <use x="211.035156" xlink:href="#DejaVuSans-48"/>
      </g>
     </g>
    </g>
    <g id="xtick_3">
     <g id="line2d_4">
      <g>
       <use style="stroke:#000000;stroke-width:0.8;" x="233.269073" xlink:href="#mfce3bb0823" y="307.584"/>
      </g>
     </g>
     <g id="text_3">
      <!-- −200 -->
      <defs>
       <path d="M 19.1875 8.296875 
L 53.609375 8.296875 
L 53.609375 0 
L 7.328125 0 
L 7.328125 8.296875 
Q 12.9375 14.109375 22.625 23.890625 
Q 32.328125 33.6875 34.8125 36.53125 
Q 39.546875 41.84375 41.421875 45.53125 
Q 43.3125 49.21875 43.3125 52.78125 
Q 43.3125 58.59375 39.234375 62.25 
Q 35.15625 65.921875 28.609375 65.921875 
Q 23.96875 65.921875 18.8125 64.3125 
Q 13.671875 62.703125 7.8125 59.421875 
L 7.8125 69.390625 
Q 13.765625 71.78125 18.9375 73 
Q 24.125 74.21875 28.421875 74.21875 
Q 39.75 74.21875 46.484375 68.546875 
Q 53.21875 62.890625 53.21875 53.421875 
Q 53.21875 48.921875 51.53125 44.890625 
Q 49.859375 40.875 45.40625 35.40625 
Q 44.1875 33.984375 37.640625 27.21875 
Q 31.109375 20.453125 19.1875 8.296875 
z
" id="DejaVuSans-50"/>
      </defs>
      <g transform="translate(219.535479 322.182437)scale(0.1 -0.1)">
       <use xlink:href="#DejaVuSans-8722"/>
       <use x="83.789062" xlink:href="#DejaVuSans-50"/>
       <use x="147.412109" xlink:href="#DejaVuSans-48"/>
       <use x="211.035156" xlink:href="#DejaVuSans-48"/>
      </g>
     </g>
    </g>
    <g id="xtick_4">
     <g id="line2d_5">
      <g>
       <use style="stroke:#000000;stroke-width:0.8;" x="298.490216" xlink:href="#mfce3bb0823" y="307.584"/>
      </g>
     </g>
     <g id="text_4">
      <!-- 0 -->
      <g transform="translate(295.308966 322.182437)scale(0.1 -0.1)">
       <use xlink:href="#DejaVuSans-48"/>
      </g>
     </g>
    </g>
    <g id="xtick_5">
     <g id="line2d_6">
      <g>
       <use style="stroke:#000000;stroke-width:0.8;" x="363.711359" xlink:href="#mfce3bb0823" y="307.584"/>
      </g>
     </g>
     <g id="text_5">
      <!-- 200 -->
      <g transform="translate(354.167609 322.182437)scale(0.1 -0.1)">
       <use xlink:href="#DejaVuSans-50"/>
       <use x="63.623047" xlink:href="#DejaVuSans-48"/>
       <use x="127.246094" xlink:href="#DejaVuSans-48"/>
      </g>
     </g>
    </g>
   </g>
   <g id="matplotlib.axis_2">
    <g id="ytick_1">
     <g id="line2d_7">
      <defs>
       <path d="M 0 0 
L -3.5 0 
" id="m5c756a5e08" style="stroke:#000000;stroke-width:0.8;"/>
      </defs>
      <g>
       <use style="stroke:#000000;stroke-width:0.8;" x="57.6" xlink:href="#m5c756a5e08" y="275.786949"/>
      </g>
     </g>
     <g id="text_6">
      <!-- −400 -->
      <g transform="translate(23.132812 279.586168)scale(0.1 -0.1)">
       <use xlink:href="#DejaVuSans-8722"/>
       <use x="83.789062" xlink:href="#DejaVuSans-52"/>
       <use x="147.412109" xlink:href="#DejaVuSans-48"/>
       <use x="211.035156" xlink:href="#DejaVuSans-48"/>
      </g>
     </g>
    </g>
    <g id="ytick_2">
     <g id="line2d_8">
      <g>
       <use style="stroke:#000000;stroke-width:0.8;" x="57.6" xlink:href="#m5c756a5e08" y="231.2648"/>
      </g>
     </g>
     <g id="text_7">
      <!-- −300 -->
      <defs>
       <path d="M 40.578125 39.3125 
Q 47.65625 37.796875 51.625 33 
Q 55.609375 28.21875 55.609375 21.1875 
Q 55.609375 10.40625 48.1875 4.484375 
Q 40.765625 -1.421875 27.09375 -1.421875 
Q 22.515625 -1.421875 17.65625 -0.515625 
Q 12.796875 0.390625 7.625 2.203125 
L 7.625 11.71875 
Q 11.71875 9.328125 16.59375 8.109375 
Q 21.484375 6.890625 26.8125 6.890625 
Q 36.078125 6.890625 40.9375 10.546875 
Q 45.796875 14.203125 45.796875 21.1875 
Q 45.796875 27.640625 41.28125 31.265625 
Q 36.765625 34.90625 28.71875 34.90625 
L 20.21875 34.90625 
L 20.21875 43.015625 
L 29.109375 43.015625 
Q 36.375 43.015625 40.234375 45.921875 
Q 44.09375 48.828125 44.09375 54.296875 
Q 44.09375 59.90625 40.109375 62.90625 
Q 36.140625 65.921875 28.71875 65.921875 
Q 24.65625 65.921875 20.015625 65.03125 
Q 15.375 64.15625 9.8125 62.3125 
L 9.8125 71.09375 
Q 15.4375 72.65625 20.34375 73.4375 
Q 25.25 74.21875 29.59375 74.21875 
Q 40.828125 74.21875 47.359375 69.109375 
Q 53.90625 64.015625 53.90625 55.328125 
Q 53.90625 49.265625 50.4375 45.09375 
Q 46.96875 40.921875 40.578125 39.3125 
z
" id="DejaVuSans-51"/>
      </defs>
      <g transform="translate(23.132812 235.064019)scale(0.1 -0.1)">
       <use xlink:href="#DejaVuSans-8722"/>
       <use x="83.789062" xlink:href="#DejaVuSans-51"/>
       <use x="147.412109" xlink:href="#DejaVuSans-48"/>
       <use x="211.035156" xlink:href="#DejaVuSans-48"/>
      </g>
     </g>
    </g>
    <g id="ytick_3">
     <g id="line2d_9">
      <g>
       <use style="stroke:#000000;stroke-width:0.8;" x="57.6" xlink:href="#m5c756a5e08" y="186.742652"/>
      </g>
     </g>
     <g id="text_8">
      <!-- −200 -->
      <g transform="translate(23.132812 190.54187)scale(0.1 -0.1)">
       <use xlink:href="#DejaVuSans-8722"/>
       <use x="83.789062" xlink:href="#DejaVuSans-50"/>
       <use x="147.412109" xlink:href="#DejaVuSans-48"/>
       <use x="211.035156" xlink:href="#DejaVuSans-48"/>
      </g>
     </g>
    </g>
    <g id="ytick_4">
     <g id="line2d_10">
      <g>
       <use style="stroke:#000000;stroke-width:0.8;" x="57.6" xlink:href="#m5c756a5e08" y="142.220503"/>
      </g>
     </g>
     <g id="text_9">
      <!-- −100 -->
      <defs>
       <path d="M 12.40625 8.296875 
L 28.515625 8.296875 
L 28.515625 63.921875 
L 10.984375 60.40625 
L 10.984375 69.390625 
L 28.421875 72.90625 
L 38.28125 72.90625 
L 38.28125 8.296875 
L 54.390625 8.296875 
L 54.390625 0 
L 12.40625 0 
z
" id="DejaVuSans-49"/>
      </defs>
      <g transform="translate(23.132812 146.019721)scale(0.1 -0.1)">
       <use xlink:href="#DejaVuSans-8722"/>
       <use x="83.789062" xlink:href="#DejaVuSans-49"/>
       <use x="147.412109" xlink:href="#DejaVuSans-48"/>
       <use x="211.035156" xlink:href="#DejaVuSans-48"/>
      </g>
     </g>
    </g>
    <g id="ytick_5">
     <g id="line2d_11">
      <g>
       <use style="stroke:#000000;stroke-width:0.8;" x="57.6" xlink:href="#m5c756a5e08" y="97.698354"/>
      </g>
     </g>
     <g id="text_10">
      <!-- 0 -->
      <g transform="translate(44.2375 101.497573)scale(0.1 -0.1)">
       <use xlink:href="#DejaVuSans-48"/>
      </g>
     </g>
    </g>
    <g id="ytick_6">
     <g id="line2d_12">
      <g>
       <use style="stroke:#000000;stroke-width:0.8;" x="57.6" xlink:href="#m5c756a5e08" y="53.176205"/>
      </g>
     </g>
     <g id="text_11">
      <!-- 100 -->
      <g transform="translate(31.5125 56.975424)scale(0.1 -0.1)">
       <use xlink:href="#DejaVuSans-49"/>
       <use x="63.623047" xlink:href="#DejaVuSans-48"/>
       <use x="127.246094" xlink:href="#DejaVuSans-48"/>
      </g>
     </g>
    </g>
   </g>
   <g id="line2d_13">
    <path clip-path="url(#p03c194e9c2)" d="M 78.630516 60.649699 
L 264.360815 188.32506 
L 376.343735 193.024248 
L 202.497798 285.478926 
L 193.508852 267.162504 
L 304.757066 177.572005 
L 369.630956 137.370611 
" style="fill:none;stroke:#ff0000;stroke-linecap:square;stroke-width:0.5;"/>
   </g>
   <g id="patch_3">
    <path d="M 57.6 307.584 
L 57.6 41.472 
" style="fill:none;stroke:#000000;stroke-linecap:square;stroke-linejoin:miter;stroke-width:0.8;"/>
   </g>
   <g id="patch_4">
    <path d="M 414.72 307.584 
L 414.72 41.472 
" style="fill:none;stroke:#000000;stroke-linecap:square;stroke-linejoin:miter;stroke-width:0.8;"/>
   </g>
   <g id="patch_5">
    <path d="M 57.6 307.584 
L 414.72 307.584 
" style="fill:none;stroke:#000000;stroke-linecap:square;stroke-linejoin:miter;stroke-width:0.8;"/>
   </g>
   <g id="patch_6">
    <path d="M 57.6 41.472 
L 414.72 41.472 
" style="fill:none;stroke:#000000;stroke-linecap:square;stroke-linejoin:miter;stroke-width:0.8;"/>
   </g>
   <g id="PathCollection_1">
    <defs>
     <path d="M 0 2.738613 
C 0.726289 2.738613 1.422928 2.450055 1.936492 1.936492 
C 2.450055 1.422928 2.738613 0.726289 2.738613 0 
C 2.738613 -0.726289 2.450055 -1.422928 1.936492 -1.936492 
C 1.422928 -2.450055 0.726289 -2.738613 0 -2.738613 
C -0.726289 -2.738613 -1.422928 -2.450055 -1.936492 -1.936492 
C -2.450055 -1.422928 -2.738613 -0.726289 -2.738613 0 
C -2.738613 0.726289 -2.450055 1.422928 -1.936492 1.936492 
C -1.422928 2.450055 -0.726289 2.738613 0 2.738613 
z
" id="m185e3692ab" style="stroke:#ff0000;"/>
    </defs>
    <g clip-path="url(#p03c194e9c2)">
     <use style="fill:#ff0000;stroke:#ff0000;" x="78.630516" xlink:href="#m185e3692ab" y="60.649699"/>
     <use style="fill:#ff0000;stroke:#ff0000;" x="264.360815" xlink:href="#m185e3692ab" y="188.32506"/>
     <use style="fill:#ff0000;stroke:#ff0000;" x="376.343735" xlink:href="#m185e3692ab" y="193.024248"/>
     <use style="fill:#ff0000;stroke:#ff0000;" x="202.497798" xlink:href="#m185e3692ab" y="285.478926"/>
     <use style="fill:#ff0000;stroke:#ff0000;" x="193.508852" xlink:href="#m185e3692ab" y="267.162504"/>
     <use style="fill:#ff0000;stroke:#ff0000;" x="304.757066" xlink:href="#m185e3692ab" y="177.572005"/>
     <use style="fill:#ff0000;stroke:#ff0000;" x="369.630956" xlink:href="#m185e3692ab" y="137.370611"/>
    </g>
   </g>
   <g id="text_12">
    <!-- (22) Subject: s3, Known = False, Degree = 2, Duration = 0.1 -->
    <defs>
     <path d="M 31 75.875 
Q 24.46875 64.65625 21.28125 53.65625 
Q 18.109375 42.671875 18.109375 31.390625 
Q 18.109375 20.125 21.3125 9.0625 
Q 24.515625 -2 31 -13.1875 
L 23.1875 -13.1875 
Q 15.875 -1.703125 12.234375 9.375 
Q 8.59375 20.453125 8.59375 31.390625 
Q 8.59375 42.28125 12.203125 53.3125 
Q 15.828125 64.359375 23.1875 75.875 
z
" id="DejaVuSans-40"/>
     <path d="M 8.015625 75.875 
L 15.828125 75.875 
Q 23.140625 64.359375 26.78125 53.3125 
Q 30.421875 42.28125 30.421875 31.390625 
Q 30.421875 20.453125 26.78125 9.375 
Q 23.140625 -1.703125 15.828125 -13.1875 
L 8.015625 -13.1875 
Q 14.5 -2 17.703125 9.0625 
Q 20.90625 20.125 20.90625 31.390625 
Q 20.90625 42.671875 17.703125 53.65625 
Q 14.5 64.65625 8.015625 75.875 
z
" id="DejaVuSans-41"/>
     <path id="DejaVuSans-32"/>
     <path d="M 53.515625 70.515625 
L 53.515625 60.890625 
Q 47.90625 63.578125 42.921875 64.890625 
Q 37.9375 66.21875 33.296875 66.21875 
Q 25.25 66.21875 20.875 63.09375 
Q 16.5 59.96875 16.5 54.203125 
Q 16.5 49.359375 19.40625 46.890625 
Q 22.3125 44.4375 30.421875 42.921875 
L 36.375 41.703125 
Q 47.40625 39.59375 52.65625 34.296875 
Q 57.90625 29 57.90625 20.125 
Q 57.90625 9.515625 50.796875 4.046875 
Q 43.703125 -1.421875 29.984375 -1.421875 
Q 24.8125 -1.421875 18.96875 -0.25 
Q 13.140625 0.921875 6.890625 3.21875 
L 6.890625 13.375 
Q 12.890625 10.015625 18.65625 8.296875 
Q 24.421875 6.59375 29.984375 6.59375 
Q 38.421875 6.59375 43.015625 9.90625 
Q 47.609375 13.234375 47.609375 19.390625 
Q 47.609375 24.75 44.3125 27.78125 
Q 41.015625 30.8125 33.5 32.328125 
L 27.484375 33.5 
Q 16.453125 35.6875 11.515625 40.375 
Q 6.59375 45.0625 6.59375 53.421875 
Q 6.59375 63.09375 13.40625 68.65625 
Q 20.21875 74.21875 32.171875 74.21875 
Q 37.3125 74.21875 42.625 73.28125 
Q 47.953125 72.359375 53.515625 70.515625 
z
" id="DejaVuSans-83"/>
     <path d="M 8.5 21.578125 
L 8.5 54.6875 
L 17.484375 54.6875 
L 17.484375 21.921875 
Q 17.484375 14.15625 20.5 10.265625 
Q 23.53125 6.390625 29.59375 6.390625 
Q 36.859375 6.390625 41.078125 11.03125 
Q 45.3125 15.671875 45.3125 23.6875 
L 45.3125 54.6875 
L 54.296875 54.6875 
L 54.296875 0 
L 45.3125 0 
L 45.3125 8.40625 
Q 42.046875 3.421875 37.71875 1 
Q 33.40625 -1.421875 27.6875 -1.421875 
Q 18.265625 -1.421875 13.375 4.4375 
Q 8.5 10.296875 8.5 21.578125 
z
M 31.109375 56 
z
" id="DejaVuSans-117"/>
     <path d="M 48.6875 27.296875 
Q 48.6875 37.203125 44.609375 42.84375 
Q 40.53125 48.484375 33.40625 48.484375 
Q 26.265625 48.484375 22.1875 42.84375 
Q 18.109375 37.203125 18.109375 27.296875 
Q 18.109375 17.390625 22.1875 11.75 
Q 26.265625 6.109375 33.40625 6.109375 
Q 40.53125 6.109375 44.609375 11.75 
Q 48.6875 17.390625 48.6875 27.296875 
z
M 18.109375 46.390625 
Q 20.953125 51.265625 25.265625 53.625 
Q 29.59375 56 35.59375 56 
Q 45.5625 56 51.78125 48.09375 
Q 58.015625 40.1875 58.015625 27.296875 
Q 58.015625 14.40625 51.78125 6.484375 
Q 45.5625 -1.421875 35.59375 -1.421875 
Q 29.59375 -1.421875 25.265625 0.953125 
Q 20.953125 3.328125 18.109375 8.203125 
L 18.109375 0 
L 9.078125 0 
L 9.078125 75.984375 
L 18.109375 75.984375 
z
" id="DejaVuSans-98"/>
     <path d="M 9.421875 54.6875 
L 18.40625 54.6875 
L 18.40625 -0.984375 
Q 18.40625 -11.421875 14.421875 -16.109375 
Q 10.453125 -20.796875 1.609375 -20.796875 
L -1.8125 -20.796875 
L -1.8125 -13.1875 
L 0.59375 -13.1875 
Q 5.71875 -13.1875 7.5625 -10.8125 
Q 9.421875 -8.453125 9.421875 -0.984375 
z
M 9.421875 75.984375 
L 18.40625 75.984375 
L 18.40625 64.59375 
L 9.421875 64.59375 
z
" id="DejaVuSans-106"/>
     <path d="M 56.203125 29.59375 
L 56.203125 25.203125 
L 14.890625 25.203125 
Q 15.484375 15.921875 20.484375 11.0625 
Q 25.484375 6.203125 34.421875 6.203125 
Q 39.59375 6.203125 44.453125 7.46875 
Q 49.3125 8.734375 54.109375 11.28125 
L 54.109375 2.78125 
Q 49.265625 0.734375 44.1875 -0.34375 
Q 39.109375 -1.421875 33.890625 -1.421875 
Q 20.796875 -1.421875 13.15625 6.1875 
Q 5.515625 13.8125 5.515625 26.8125 
Q 5.515625 40.234375 12.765625 48.109375 
Q 20.015625 56 32.328125 56 
Q 43.359375 56 49.78125 48.890625 
Q 56.203125 41.796875 56.203125 29.59375 
z
M 47.21875 32.234375 
Q 47.125 39.59375 43.09375 43.984375 
Q 39.0625 48.390625 32.421875 48.390625 
Q 24.90625 48.390625 20.390625 44.140625 
Q 15.875 39.890625 15.1875 32.171875 
z
" id="DejaVuSans-101"/>
     <path d="M 48.78125 52.59375 
L 48.78125 44.1875 
Q 44.96875 46.296875 41.140625 47.34375 
Q 37.3125 48.390625 33.40625 48.390625 
Q 24.65625 48.390625 19.8125 42.84375 
Q 14.984375 37.3125 14.984375 27.296875 
Q 14.984375 17.28125 19.8125 11.734375 
Q 24.65625 6.203125 33.40625 6.203125 
Q 37.3125 6.203125 41.140625 7.25 
Q 44.96875 8.296875 48.78125 10.40625 
L 48.78125 2.09375 
Q 45.015625 0.34375 40.984375 -0.53125 
Q 36.96875 -1.421875 32.421875 -1.421875 
Q 20.0625 -1.421875 12.78125 6.34375 
Q 5.515625 14.109375 5.515625 27.296875 
Q 5.515625 40.671875 12.859375 48.328125 
Q 20.21875 56 33.015625 56 
Q 37.15625 56 41.109375 55.140625 
Q 45.0625 54.296875 48.78125 52.59375 
z
" id="DejaVuSans-99"/>
     <path d="M 18.3125 70.21875 
L 18.3125 54.6875 
L 36.8125 54.6875 
L 36.8125 47.703125 
L 18.3125 47.703125 
L 18.3125 18.015625 
Q 18.3125 11.328125 20.140625 9.421875 
Q 21.96875 7.515625 27.59375 7.515625 
L 36.8125 7.515625 
L 36.8125 0 
L 27.59375 0 
Q 17.1875 0 13.234375 3.875 
Q 9.28125 7.765625 9.28125 18.015625 
L 9.28125 47.703125 
L 2.6875 47.703125 
L 2.6875 54.6875 
L 9.28125 54.6875 
L 9.28125 70.21875 
z
" id="DejaVuSans-116"/>
     <path d="M 11.71875 12.40625 
L 22.015625 12.40625 
L 22.015625 0 
L 11.71875 0 
z
M 11.71875 51.703125 
L 22.015625 51.703125 
L 22.015625 39.3125 
L 11.71875 39.3125 
z
" id="DejaVuSans-58"/>
     <path d="M 44.28125 53.078125 
L 44.28125 44.578125 
Q 40.484375 46.53125 36.375 47.5 
Q 32.28125 48.484375 27.875 48.484375 
Q 21.1875 48.484375 17.84375 46.4375 
Q 14.5 44.390625 14.5 40.28125 
Q 14.5 37.15625 16.890625 35.375 
Q 19.28125 33.59375 26.515625 31.984375 
L 29.59375 31.296875 
Q 39.15625 29.25 43.1875 25.515625 
Q 47.21875 21.78125 47.21875 15.09375 
Q 47.21875 7.46875 41.1875 3.015625 
Q 35.15625 -1.421875 24.609375 -1.421875 
Q 20.21875 -1.421875 15.453125 -0.5625 
Q 10.6875 0.296875 5.421875 2 
L 5.421875 11.28125 
Q 10.40625 8.6875 15.234375 7.390625 
Q 20.0625 6.109375 24.8125 6.109375 
Q 31.15625 6.109375 34.5625 8.28125 
Q 37.984375 10.453125 37.984375 14.40625 
Q 37.984375 18.0625 35.515625 20.015625 
Q 33.0625 21.96875 24.703125 23.78125 
L 21.578125 24.515625 
Q 13.234375 26.265625 9.515625 29.90625 
Q 5.8125 33.546875 5.8125 39.890625 
Q 5.8125 47.609375 11.28125 51.796875 
Q 16.75 56 26.8125 56 
Q 31.78125 56 36.171875 55.265625 
Q 40.578125 54.546875 44.28125 53.078125 
z
" id="DejaVuSans-115"/>
     <path d="M 11.71875 12.40625 
L 22.015625 12.40625 
L 22.015625 4 
L 14.015625 -11.625 
L 7.71875 -11.625 
L 11.71875 4 
z
" id="DejaVuSans-44"/>
     <path d="M 9.8125 72.90625 
L 19.671875 72.90625 
L 19.671875 42.09375 
L 52.390625 72.90625 
L 65.09375 72.90625 
L 28.90625 38.921875 
L 67.671875 0 
L 54.6875 0 
L 19.671875 35.109375 
L 19.671875 0 
L 9.8125 0 
z
" id="DejaVuSans-75"/>
     <path d="M 54.890625 33.015625 
L 54.890625 0 
L 45.90625 0 
L 45.90625 32.71875 
Q 45.90625 40.484375 42.875 44.328125 
Q 39.84375 48.1875 33.796875 48.1875 
Q 26.515625 48.1875 22.3125 43.546875 
Q 18.109375 38.921875 18.109375 30.90625 
L 18.109375 0 
L 9.078125 0 
L 9.078125 54.6875 
L 18.109375 54.6875 
L 18.109375 46.1875 
Q 21.34375 51.125 25.703125 53.5625 
Q 30.078125 56 35.796875 56 
Q 45.21875 56 50.046875 50.171875 
Q 54.890625 44.34375 54.890625 33.015625 
z
" id="DejaVuSans-110"/>
     <path d="M 30.609375 48.390625 
Q 23.390625 48.390625 19.1875 42.75 
Q 14.984375 37.109375 14.984375 27.296875 
Q 14.984375 17.484375 19.15625 11.84375 
Q 23.34375 6.203125 30.609375 6.203125 
Q 37.796875 6.203125 41.984375 11.859375 
Q 46.1875 17.53125 46.1875 27.296875 
Q 46.1875 37.015625 41.984375 42.703125 
Q 37.796875 48.390625 30.609375 48.390625 
z
M 30.609375 56 
Q 42.328125 56 49.015625 48.375 
Q 55.71875 40.765625 55.71875 27.296875 
Q 55.71875 13.875 49.015625 6.21875 
Q 42.328125 -1.421875 30.609375 -1.421875 
Q 18.84375 -1.421875 12.171875 6.21875 
Q 5.515625 13.875 5.515625 27.296875 
Q 5.515625 40.765625 12.171875 48.375 
Q 18.84375 56 30.609375 56 
z
" id="DejaVuSans-111"/>
     <path d="M 4.203125 54.6875 
L 13.1875 54.6875 
L 24.421875 12.015625 
L 35.59375 54.6875 
L 46.1875 54.6875 
L 57.421875 12.015625 
L 68.609375 54.6875 
L 77.59375 54.6875 
L 63.28125 0 
L 52.6875 0 
L 40.921875 44.828125 
L 29.109375 0 
L 18.5 0 
z
" id="DejaVuSans-119"/>
     <path d="M 10.59375 45.40625 
L 73.1875 45.40625 
L 73.1875 37.203125 
L 10.59375 37.203125 
z
M 10.59375 25.484375 
L 73.1875 25.484375 
L 73.1875 17.1875 
L 10.59375 17.1875 
z
" id="DejaVuSans-61"/>
     <path d="M 9.8125 72.90625 
L 51.703125 72.90625 
L 51.703125 64.59375 
L 19.671875 64.59375 
L 19.671875 43.109375 
L 48.578125 43.109375 
L 48.578125 34.8125 
L 19.671875 34.8125 
L 19.671875 0 
L 9.8125 0 
z
" id="DejaVuSans-70"/>
     <path d="M 34.28125 27.484375 
Q 23.390625 27.484375 19.1875 25 
Q 14.984375 22.515625 14.984375 16.5 
Q 14.984375 11.71875 18.140625 8.90625 
Q 21.296875 6.109375 26.703125 6.109375 
Q 34.1875 6.109375 38.703125 11.40625 
Q 43.21875 16.703125 43.21875 25.484375 
L 43.21875 27.484375 
z
M 52.203125 31.203125 
L 52.203125 0 
L 43.21875 0 
L 43.21875 8.296875 
Q 40.140625 3.328125 35.546875 0.953125 
Q 30.953125 -1.421875 24.3125 -1.421875 
Q 15.921875 -1.421875 10.953125 3.296875 
Q 6 8.015625 6 15.921875 
Q 6 25.140625 12.171875 29.828125 
Q 18.359375 34.515625 30.609375 34.515625 
L 43.21875 34.515625 
L 43.21875 35.40625 
Q 43.21875 41.609375 39.140625 45 
Q 35.0625 48.390625 27.6875 48.390625 
Q 23 48.390625 18.546875 47.265625 
Q 14.109375 46.140625 10.015625 43.890625 
L 10.015625 52.203125 
Q 14.9375 54.109375 19.578125 55.046875 
Q 24.21875 56 28.609375 56 
Q 40.484375 56 46.34375 49.84375 
Q 52.203125 43.703125 52.203125 31.203125 
z
" id="DejaVuSans-97"/>
     <path d="M 9.421875 75.984375 
L 18.40625 75.984375 
L 18.40625 0 
L 9.421875 0 
z
" id="DejaVuSans-108"/>
     <path d="M 19.671875 64.796875 
L 19.671875 8.109375 
L 31.59375 8.109375 
Q 46.6875 8.109375 53.6875 14.9375 
Q 60.6875 21.78125 60.6875 36.53125 
Q 60.6875 51.171875 53.6875 57.984375 
Q 46.6875 64.796875 31.59375 64.796875 
z
M 9.8125 72.90625 
L 30.078125 72.90625 
Q 51.265625 72.90625 61.171875 64.09375 
Q 71.09375 55.28125 71.09375 36.53125 
Q 71.09375 17.671875 61.125 8.828125 
Q 51.171875 0 30.078125 0 
L 9.8125 0 
z
" id="DejaVuSans-68"/>
     <path d="M 45.40625 27.984375 
Q 45.40625 37.75 41.375 43.109375 
Q 37.359375 48.484375 30.078125 48.484375 
Q 22.859375 48.484375 18.828125 43.109375 
Q 14.796875 37.75 14.796875 27.984375 
Q 14.796875 18.265625 18.828125 12.890625 
Q 22.859375 7.515625 30.078125 7.515625 
Q 37.359375 7.515625 41.375 12.890625 
Q 45.40625 18.265625 45.40625 27.984375 
z
M 54.390625 6.78125 
Q 54.390625 -7.171875 48.1875 -13.984375 
Q 42 -20.796875 29.203125 -20.796875 
Q 24.46875 -20.796875 20.265625 -20.09375 
Q 16.0625 -19.390625 12.109375 -17.921875 
L 12.109375 -9.1875 
Q 16.0625 -11.328125 19.921875 -12.34375 
Q 23.78125 -13.375 27.78125 -13.375 
Q 36.625 -13.375 41.015625 -8.765625 
Q 45.40625 -4.15625 45.40625 5.171875 
L 45.40625 9.625 
Q 42.625 4.78125 38.28125 2.390625 
Q 33.9375 0 27.875 0 
Q 17.828125 0 11.671875 7.65625 
Q 5.515625 15.328125 5.515625 27.984375 
Q 5.515625 40.671875 11.671875 48.328125 
Q 17.828125 56 27.875 56 
Q 33.9375 56 38.28125 53.609375 
Q 42.625 51.21875 45.40625 46.390625 
L 45.40625 54.6875 
L 54.390625 54.6875 
z
" id="DejaVuSans-103"/>
     <path d="M 41.109375 46.296875 
Q 39.59375 47.171875 37.8125 47.578125 
Q 36.03125 48 33.890625 48 
Q 26.265625 48 22.1875 43.046875 
Q 18.109375 38.09375 18.109375 28.8125 
L 18.109375 0 
L 9.078125 0 
L 9.078125 54.6875 
L 18.109375 54.6875 
L 18.109375 46.1875 
Q 20.953125 51.171875 25.484375 53.578125 
Q 30.03125 56 36.53125 56 
Q 37.453125 56 38.578125 55.875 
Q 39.703125 55.765625 41.0625 55.515625 
z
" id="DejaVuSans-114"/>
     <path d="M 9.421875 54.6875 
L 18.40625 54.6875 
L 18.40625 0 
L 9.421875 0 
z
M 9.421875 75.984375 
L 18.40625 75.984375 
L 18.40625 64.59375 
L 9.421875 64.59375 
z
" id="DejaVuSans-105"/>
     <path d="M 10.6875 12.40625 
L 21 12.40625 
L 21 0 
L 10.6875 0 
z
" id="DejaVuSans-46"/>
    </defs>
    <g transform="translate(53.559375 35.472)scale(0.12 -0.12)">
     <use xlink:href="#DejaVuSans-40"/>
     <use x="39.013672" xlink:href="#DejaVuSans-50"/>
     <use x="102.636719" xlink:href="#DejaVuSans-50"/>
     <use x="166.259766" xlink:href="#DejaVuSans-41"/>
     <use x="205.273438" xlink:href="#DejaVuSans-32"/>
     <use x="237.060547" xlink:href="#DejaVuSans-83"/>
     <use x="300.537109" xlink:href="#DejaVuSans-117"/>
     <use x="363.916016" xlink:href="#DejaVuSans-98"/>
     <use x="427.392578" xlink:href="#DejaVuSans-106"/>
     <use x="455.175781" xlink:href="#DejaVuSans-101"/>
     <use x="516.699219" xlink:href="#DejaVuSans-99"/>
     <use x="571.679688" xlink:href="#DejaVuSans-116"/>
     <use x="610.888672" xlink:href="#DejaVuSans-58"/>
     <use x="644.580078" xlink:href="#DejaVuSans-32"/>
     <use x="676.367188" xlink:href="#DejaVuSans-115"/>
     <use x="728.466797" xlink:href="#DejaVuSans-51"/>
     <use x="792.089844" xlink:href="#DejaVuSans-44"/>
     <use x="823.876953" xlink:href="#DejaVuSans-32"/>
     <use x="855.664062" xlink:href="#DejaVuSans-75"/>
     <use x="921.240234" xlink:href="#DejaVuSans-110"/>
     <use x="984.619141" xlink:href="#DejaVuSans-111"/>
     <use x="1045.800781" xlink:href="#DejaVuSans-119"/>
     <use x="1127.587891" xlink:href="#DejaVuSans-110"/>
     <use x="1190.966797" xlink:href="#DejaVuSans-32"/>
     <use x="1222.753906" xlink:href="#DejaVuSans-61"/>
     <use x="1306.542969" xlink:href="#DejaVuSans-32"/>
     <use x="1338.330078" xlink:href="#DejaVuSans-70"/>
     <use x="1395.708984" xlink:href="#DejaVuSans-97"/>
     <use x="1456.988281" xlink:href="#DejaVuSans-108"/>
     <use x="1484.771484" xlink:href="#DejaVuSans-115"/>
     <use x="1536.871094" xlink:href="#DejaVuSans-101"/>
     <use x="1598.394531" xlink:href="#DejaVuSans-44"/>
     <use x="1630.181641" xlink:href="#DejaVuSans-32"/>
     <use x="1661.96875" xlink:href="#DejaVuSans-68"/>
     <use x="1738.970703" xlink:href="#DejaVuSans-101"/>
     <use x="1800.494141" xlink:href="#DejaVuSans-103"/>
     <use x="1863.970703" xlink:href="#DejaVuSans-114"/>
     <use x="1905.052734" xlink:href="#DejaVuSans-101"/>
     <use x="1966.576172" xlink:href="#DejaVuSans-101"/>
     <use x="2028.099609" xlink:href="#DejaVuSans-32"/>
     <use x="2059.886719" xlink:href="#DejaVuSans-61"/>
     <use x="2143.675781" xlink:href="#DejaVuSans-32"/>
     <use x="2175.462891" xlink:href="#DejaVuSans-50"/>
     <use x="2239.085938" xlink:href="#DejaVuSans-44"/>
     <use x="2270.873047" xlink:href="#DejaVuSans-32"/>
     <use x="2302.660156" xlink:href="#DejaVuSans-68"/>
     <use x="2379.662109" xlink:href="#DejaVuSans-117"/>
     <use x="2443.041016" xlink:href="#DejaVuSans-114"/>
     <use x="2484.154297" xlink:href="#DejaVuSans-97"/>
     <use x="2545.433594" xlink:href="#DejaVuSans-116"/>
     <use x="2584.642578" xlink:href="#DejaVuSans-105"/>
     <use x="2612.425781" xlink:href="#DejaVuSans-111"/>
     <use x="2673.607422" xlink:href="#DejaVuSans-110"/>
     <use x="2736.986328" xlink:href="#DejaVuSans-32"/>
     <use x="2768.773438" xlink:href="#DejaVuSans-61"/>
     <use x="2852.5625" xlink:href="#DejaVuSans-32"/>
     <use x="2884.349609" xlink:href="#DejaVuSans-48"/>
     <use x="2947.972656" xlink:href="#DejaVuSans-46"/>
     <use x="2979.759766" xlink:href="#DejaVuSans-49"/>
    </g>
   </g>
  </g>
 </g>
 <defs>
  <clipPath id="p03c194e9c2">
   <rect height="266.112" width="357.12" x="57.6" y="41.472"/>
  </clipPath>
 </defs>
</svg>
