<?xml version="1.0" encoding="utf-8" standalone="no"?>
<!DOCTYPE svg PUBLIC "-//W3C//DTD SVG 1.1//EN"
  "http://www.w3.org/Graphics/SVG/1.1/DTD/svg11.dtd">
<!-- Created with matplotlib (https://matplotlib.org/) -->
<svg height="345.6pt" version="1.1" viewBox="0 0 460.8 345.6" width="460.8pt" xmlns="http://www.w3.org/2000/svg" xmlns:xlink="http://www.w3.org/1999/xlink">
 <defs>
  <style type="text/css">
*{stroke-linecap:butt;stroke-linejoin:round;}
  </style>
 </defs>
 <g id="figure_1">
  <g id="patch_1">
   <path d="M 0 345.6 
L 460.8 345.6 
L 460.8 0 
L 0 0 
z
" style="fill:#ffffff;"/>
  </g>
  <g id="axes_1">
   <g id="patch_2">
    <path d="M 57.6 307.584 
L 414.72 307.584 
L 414.72 41.472 
L 57.6 41.472 
z
" style="fill:#ffffff;"/>
   </g>
   <g id="line2d_1">
    <path clip-path="url(#p17bb7622f7)" d="M 396.72924 53.568 
L 396.72924 53.75776 
L 397.10669 54.90833 
L 397.232507 54.90833 
L 397.10669 54.526408 
L 397.10669 55.292654 
L 397.232507 55.292654 
L 397.358323 54.71857 
L 397.609957 54.334246 
L 397.609957 53.949922 
L 397.609957 53.949922 
L 397.358323 53.949922 
L 397.358323 53.75776 
L 397.232507 53.75776 
L 397.10669 53.568 
L 397.48414 54.142084 
L 397.232507 54.71857 
L 397.358323 54.90833 
L 397.358323 55.292654 
L 396.980873 55.484816 
L 396.855057 55.292654 
L 396.980873 54.71857 
L 397.232507 54.526408 
L 397.48414 54.526408 
L 397.735773 54.71857 
L 397.735773 54.71857 
L 397.48414 54.334246 
L 397.609957 54.142084 
L 397.735773 54.526408 
L 397.735773 54.90833 
L 397.48414 54.90833 
L 397.358323 54.71857 
L 397.232507 54.90833 
L 396.980873 54.90833 
L 396.855057 54.71857 
L 396.980873 54.71857 
L 397.232507 54.90833 
L 397.10669 54.90833 
L 396.855057 54.90833 
L 396.477607 54.71857 
L 396.603424 54.71857 
L 396.855057 54.71857 
L 396.72924 54.71857 
L 396.980873 53.75776 
L 397.10669 54.142084 
L 397.10669 54.71857 
L 397.232507 54.71857 
L 397.10669 54.71857 
L 396.855057 55.100492 
L 396.980873 55.292654 
L 397.48414 55.292654 
L 397.48414 55.100492 
L 397.358323 55.100492 
L 397.358323 54.90833 
L 397.48414 54.90833 
L 397.48414 54.526408 
L 397.48414 54.526408 
L 397.358323 54.526408 
L 397.358323 54.90833 
L 397.48414 55.292654 
L 397.48414 55.676978 
L 397.984006 55.292654 
L 397.984006 54.90833 
L 397.609957 54.71857 
L 397.48414 55.100492 
L 397.48414 55.484816 
L 397.609957 55.484816 
L 397.609957 55.484816 
L 397.48414 55.100492 
L 397.48414 54.71857 
L 397.48414 54.71857 
L 397.358323 54.71857 
L 397.232507 54.142084 
L 397.48414 54.526408 
L 397.609957 55.100492 
L 397.358323 55.676978 
L 397.609957 55.484816 
L 397.48414 55.292654 
L 397.232507 55.484816 
L 397.86159 56.443225 
L 397.735773 56.825147 
L 397.232507 56.825147 
L 397.358323 56.825147 
L 397.48414 56.635387 
L 397.48414 56.635387 
L 397.232507 56.635387 
L 397.232507 56.635387 
L 397.10669 56.251063 
L 397.10669 55.676978 
L 397.232507 55.292654 
L 397.48414 55.484816 
L 397.735773 56.0589 
L 397.735773 56.635387 
L 397.609957 56.635387 
L 397.609957 56.443225 
L 397.609957 56.443225 
L 397.232507 56.635387 
L 397.48414 56.443225 
L 397.735773 56.825147 
L 397.984006 56.825147 
L 397.984006 56.251063 
L 397.86159 56.0589 
L 397.86159 56.443225 
L 397.735773 56.443225 
L 397.609957 56.0589 
L 397.48414 56.0589 
L 397.609957 56.443225 
L 397.86159 56.443225 
L 397.86159 56.0589 
L 397.86159 56.443225 
L 398.109823 56.825147 
L 398.109823 56.443225 
L 397.984006 56.251063 
L 397.735773 56.443225 
L 397.86159 56.251063 
L 398.109823 55.866738 
L 397.984006 56.251063 
L 398.235639 56.443225 
L 398.235639 56.251063 
L 397.984006 56.0589 
L 397.735773 56.0589 
L 397.984006 56.635387 
L 397.984006 56.443225 
L 398.235639 56.443225 
L 398.487273 56.0589 
L 398.109823 56.443225 
L 397.735773 56.0589 
L 397.735773 56.0589 
L 397.984006 56.0589 
L 398.361456 56.251063 
L 398.487273 56.443225 
L 398.487273 56.443225 
L 398.235639 56.443225 
L 397.609957 56.0589 
L 397.735773 56.0589 
L 398.361456 55.676978 
L 398.361456 55.484816 
L 398.361456 55.676978 
L 398.109823 56.635387 
L 398.109823 55.292654 
L 398.109823 55.676978 
L 397.86159 55.866738 
L 397.86159 55.100492 
L 397.984006 54.71857 
L 397.984006 54.90833 
L 398.109823 55.100492 
L 398.361456 55.100492 
L 398.487273 54.90833 
L 397.735773 54.334246 
L 397.735773 54.334246 
L 397.86159 54.71857 
L 397.735773 54.90833 
L 397.735773 54.71857 
L 397.735773 54.526408 
L 397.735773 54.90833 
L 397.86159 54.90833 
L 397.86159 54.71857 
L 397.609957 54.526408 
L 397.735773 54.71857 
L 397.735773 55.100492 
L 397.609957 55.100492 
L 397.609957 55.676978 
L 397.735773 56.0589 
L 397.735773 56.251063 
L 397.232507 56.251063 
L 397.358323 56.251063 
L 397.609957 56.0589 
L 397.609957 55.866738 
L 397.358323 55.866738 
L 397.10669 55.484816 
L 397.609957 56.251063 
L 397.609957 56.635387 
L 397.609957 56.635387 
L 397.48414 56.635387 
L 397.735773 56.443225 
L 398.361456 56.443225 
L 398.109823 56.635387 
L 398.109823 56.635387 
L 397.735773 56.443225 
L 397.10669 56.443225 
L 396.225974 56.251063 
L 395.21944 55.866738 
L 393.838858 56.0589 
L 392.329058 56.443225 
L 390.445209 56.443225 
L 387.80646 56.0589 
L 384.78686 56.251063 
L 381.393212 57.017309 
L 373.351148 58.167879 
L 369.328416 58.934125 
L 365.179867 59.892533 
L 360.657269 61.427427 
L 356.13127 63.536406 
L 351.731088 66.027306 
L 342.682491 70.245263 
L 333.130627 75.421628 
L 328.227179 77.720367 
L 323.327131 79.829345 
L 318.423682 82.512407 
L 313.272 85.579794 
L 307.991102 88.265259 
L 302.713604 90.756159 
L 297.436106 93.0573 
L 292.281024 95.740362 
L 281.97426 100.340241 
L 258.218718 110.885133 
L 249.295938 115.677174 
L 245.273205 117.59399 
L 241.37629 119.702969 
L 237.731008 121.427623 
L 234.085726 123.344439 
L 230.56626 125.64558 
L 224.156412 131.588191 
L 217.620748 136.380232 
L 216.114348 138.104886 
L 212.972333 142.704765 
L 211.839983 144.431821 
L 210.333584 147.688968 
L 209.578684 149.797946 
L 208.823784 151.332841 
L 207.565618 153.249657 
L 207.313984 154.015903 
L 207.313984 154.974311 
L 207.188168 156.317044 
L 206.688301 157.849536 
L 206.436668 159.192268 
L 206.688301 160.72476 
L 206.185035 161.683169 
L 206.059218 162.259655 
L 206.185035 162.259655 
L 206.310852 162.449415 
L 206.310852 163.025901 
L 205.807585 164.942717 
L 205.304318 164.942717 
L 204.926868 165.324639 
L 204.926868 166.475209 
L 204.801052 167.051696 
L 204.423602 167.433618 
L 204.297785 168.392026 
L 204.297785 169.350434 
L 203.672102 171.459412 
L 203.794519 172.035899 
L 203.672102 172.609983 
L 203.294653 173.186469 
L 202.917203 174.718961 
L 202.917203 175.293045 
L 203.168836 175.485207 
L 203.168836 175.677369 
L 202.539753 176.827939 
L 202.288119 177.402024 
L 202.036486 178.360432 
L 202.036486 178.936918 
L 201.784853 179.511002 
L 201.910669 179.895326 
L 201.281586 180.853734 
L 200.904136 181.045896 
L 200.652503 181.427818 
L 200.77832 181.427818 
L 201.029953 181.61998 
L 200.77832 182.578389 
L 200.40427 183.344635 
L 200.40427 183.536797 
L 200.526686 183.728959 
L 200.526686 184.110881 
L 200.40427 184.495205 
L 200.02682 184.495205 
L 200.02682 184.687367 
L 200.152637 185.071691 
L 199.775187 186.412021 
L 199.64937 186.796345 
L 199.775187 186.988507 
L 199.775187 187.370429 
L 199.901004 187.754754 
L 199.523554 188.521 
L 199.901004 188.328838 
L 199.775187 188.136676 
L 199.397737 188.136676 
L 199.020287 188.328838 
L 198.89447 188.905324 
L 199.020287 189.863732 
L 198.89447 190.245654 
L 198.89447 190.629978 
L 198.89447 190.629978 
L 198.642837 190.437816 
L 198.013754 190.245654 
L 197.384671 190.245654 
L 196.507355 190.629978 
L 195.375005 190.82214 
L 193.739389 190.629978 
L 191.729723 190.629978 
L 186.703858 191.780548 
L 183.436026 192.16247 
L 179.91656 192.738956 
L 176.397095 193.505203 
L 168.603264 195.614181 
L 164.328898 197.146673 
L 152.389919 203.089284 
L 140.447539 209.990304 
L 136.428207 211.71736 
L 128.88601 215.358831 
L 125.366544 216.699161 
L 122.224529 217.467809 
L 119.20833 218.041893 
L 115.940497 219.192463 
L 112.798482 219.95871 
L 109.782283 220.535196 
L 107.014317 221.493604 
L 104.501384 222.833934 
L 99.978786 224.560991 
L 95.075337 226.093483 
L 93.691354 226.477807 
L 91.681688 227.436215 
L 90.800972 227.625975 
L 90.297705 228.010299 
L 89.797839 228.968707 
L 89.546206 229.542791 
L 90.046072 230.5012 
L 90.800972 232.994502 
L 91.807505 233.568586 
L 92.059138 233.95291 
L 92.184955 234.526994 
L 91.807505 236.635973 
L 91.178422 237.404621 
L 91.178422 237.978705 
L 90.800972 239.321437 
L 90.423522 240.279846 
L 90.297705 240.279846 
L 89.672023 240.661768 
L 89.420389 241.620176 
L 89.546206 242.196662 
L 89.420389 242.196662 
L 89.420389 242.578584 
L 89.294573 243.15507 
L 89.546206 244.113478 
L 89.672023 244.113478 
L 89.672023 244.113478 
L 89.546206 244.4954 
L 89.546206 244.687562 
L 89.420389 245.071886 
L 89.420389 245.453808 
L 89.420389 245.264048 
L 89.168756 245.264048 
L 88.791306 246.030295 
L 88.665489 246.604379 
L 88.791306 246.796541 
L 89.042939 246.412217 
L 88.917123 245.838133 
L 88.288039 245.838133 
L 88.162223 246.030295 
L 88.288039 246.412217 
L 88.791306 247.370625 
L 88.791306 247.947111 
L 88.917123 248.139273 
L 88.665489 247.562787 
L 88.413856 246.988703 
L 88.162223 246.988703 
L 88.162223 247.180865 
L 88.288039 247.370625 
L 88.539673 247.180865 
L 88.791306 247.180865 
L 88.162223 248.139273 
L 88.288039 248.713357 
L 88.288039 249.479603 
L 88.036406 249.671765 
L 87.910589 249.287441 
L 88.288039 248.905519 
L 88.413856 249.287441 
L 88.413856 249.671765 
L 88.413856 249.671765 
L 88.288039 249.671765 
L 87.53314 250.056089 
L 87.53314 250.245849 
L 87.910589 250.245849 
L 87.910589 250.245849 
L 87.784773 250.822336 
L 87.910589 251.39642 
L 88.036406 251.20666 
L 87.910589 250.822336 
L 87.658956 250.630173 
L 87.281506 250.630173 
L 87.784773 251.39642 
L 87.784773 251.39642 
L 87.784773 251.972906 
L 87.53314 251.972906 
L 87.53314 252.165068 
L 87.53314 252.165068 
L 87.281506 252.54699 
L 87.407323 252.54699 
L 87.53314 253.123476 
L 87.407323 253.69756 
L 87.029873 254.271644 
L 86.904056 254.081884 
L 87.407323 253.123476 
L 87.15569 253.123476 
L 86.77824 253.889722 
L 86.652423 254.463806 
L 86.77824 254.271644 
L 86.904056 254.271644 
L 86.40419 255.230052 
L 86.40419 255.422214 
L 86.652423 255.422214 
L 86.652423 255.422214 
L 86.152557 255.9987 
L 86.02674 255.614376 
L 86.02674 255.230052 
L 86.152557 254.655968 
L 86.278374 254.655968 
L 86.530007 255.230052 
L 86.530007 256.188461 
L 86.278374 256.764947 
L 86.152557 256.764947 
L 86.152557 256.572785 
L 86.152557 256.572785 
L 86.278374 256.764947 
L 86.40419 257.723355 
L 86.152557 257.915517 
L 85.900924 257.915517 
L 85.900924 258.489601 
L 86.02674 258.681763 
L 86.278374 258.681763 
L 86.40419 258.297439 
L 86.152557 258.107679 
L 86.278374 258.489601 
L 86.152557 258.873925 
L 85.64929 259.255847 
L 85.775107 259.066087 
L 86.278374 258.489601 
L 86.652423 258.681763 
L 86.530007 259.448009 
L 86.152557 260.024495 
L 85.775107 260.024495 
L 85.775107 261.172663 
L 85.900924 261.172663 
L 85.900924 260.982903 
L 85.900924 260.982903 
L 85.775107 260.982903 
L 85.64929 261.172663 
L 85.775107 261.74915 
L 85.64929 261.941312 
L 85.775107 262.515396 
L 86.02674 263.08948 
L 86.152557 263.08948 
L 85.900924 262.323234 
L 86.02674 262.323234 
L 86.278374 262.515396 
L 86.278374 262.89972 
L 86.152557 263.281642 
L 86.02674 263.08948 
L 86.152557 262.515396 
L 86.278374 262.707558 
L 86.02674 263.281642 
L 85.900924 263.281642 
L 85.775107 263.473804 
L 85.64929 264.432212 
L 86.02674 264.05029 
L 85.775107 264.05029 
L 85.64929 264.624374 
L 85.64929 264.624374 
L 85.900924 264.432212 
L 86.02674 264.624374 
L 85.775107 265.008698 
L 86.02674 264.816536 
L 86.152557 265.008698 
L 86.02674 265.39062 
L 85.397657 265.774944 
L 85.523474 265.582782 
L 85.775107 265.582782 
L 85.775107 265.582782 
L 85.146024 266.733353 
L 85.146024 266.54119 
L 85.397657 266.733353 
L 85.397657 266.925515 
L 85.146024 267.115275 
L 84.894391 267.691761 
L 85.27184 268.265845 
L 85.146024 267.883923 
L 85.020207 267.499599 
L 85.146024 267.691761 
L 85.397657 268.073683 
L 85.397657 268.458007 
L 85.27184 268.265845 
L 85.020207 268.265845 
L 85.020207 268.458007 
L 85.397657 268.842331 
L 85.146024 268.650169 
L 85.020207 268.650169 
L 85.020207 268.650169 
L 84.768574 268.842331 
L 84.642757 269.416415 
L 84.768574 269.992901 
L 85.146024 269.992901 
L 85.146024 269.992901 
L 85.146024 270.182661 
L 85.27184 269.992901 
L 85.020207 270.566985 
L 85.020207 270.951309 
L 84.516941 271.717555 
L 84.265307 272.29164 
L 84.265307 272.675964 
L 84.391124 272.483802 
L 84.642757 272.483802 
L 84.516941 272.675964 
L 84.139491 272.483802 
L 83.762041 272.483802 
L 83.636224 272.868126 
L 83.887857 273.250048 
L 84.139491 273.250048 
L 84.139491 273.44221 
L 84.013674 273.826534 
L 83.887857 273.826534 
L 84.013674 273.634372 
L 83.887857 273.44221 
L 83.636224 273.634372 
L 83.510407 274.208456 
L 83.510407 275.359026 
L 83.636224 275.551188 
L 83.887857 274.974702 
L 83.636224 274.784942 
L 83.258774 274.974702 
L 83.136358 275.359026 
L 83.258774 275.551188 
L 83.258774 275.93311 
L 83.136358 275.74335 
L 83.258774 275.359026 
L 83.258774 275.551188 
L 83.136358 276.125272 
L 82.884725 276.509596 
L 82.633091 276.509596 
L 82.758908 276.509596 
L 82.884725 276.701758 
L 82.884725 276.701758 
L 82.884725 277.08368 
L 82.758908 277.08368 
L 82.633091 276.89392 
L 82.758908 276.701758 
L 83.010541 276.89392 
L 82.884725 277.08368 
L 82.381458 277.08368 
L 82.758908 277.852329 
L 82.507275 278.618575 
L 82.255641 279.576983 
L 82.255641 279.576983 
L 82.255641 279.192659 
L 82.381458 278.810737 
L 82.255641 279.192659 
L 81.374925 279.576983 
L 81.249108 279.576983 
L 81.249108 280.151067 
L 81.374925 280.343229 
L 81.249108 280.151067 
L 81.123292 280.727553 
L 81.123292 281.301637 
L 80.997475 281.875721 
L 80.871658 281.875721 
L 80.745842 281.685961 
L 80.997475 282.260045 
L 80.871658 282.067883 
L 80.871658 282.452208 
L 80.620025 282.64437 
L 80.494208 283.026292 
L 80.242575 283.026292 
L 80.116759 282.83413 
L 80.116759 282.83413 
L 79.990942 283.218454 
L 79.365259 284.176862 
L 79.239442 284.753348 
L 79.239442 284.753348 
L 79.113626 284.753348 
L 79.113626 284.753348 
L 79.365259 284.369024 
L 78.987809 285.13527 
L 78.987809 285.13527 
L 78.987809 285.519594 
L 78.107093 286.670164 
L 77.981276 286.670164 
L 78.107093 286.670164 
L 78.107093 287.052086 
L 78.107093 287.052086 
L 78.484543 287.43641 
L 78.232909 287.43641 
L 77.981276 287.244248 
L 77.981276 287.244248 
L 77.981276 287.43641 
L 77.855459 287.628573 
L 77.729643 287.244248 
L 77.603826 287.43641 
L 76.974743 288.586981 
L 76.974743 288.586981 
L 77.10056 288.776741 
L 77.226376 288.586981 
L 76.974743 288.394819 
L 76.72311 288.394819 
L 76.72311 288.586981 
L 76.474877 288.776741 
L 76.097427 289.353227 
L 76.097427 289.737551 
L 76.474877 289.737551 
L 76.597293 290.119473 
L 76.597293 290.503797 
L 77.352193 291.077881 
L 77.352193 291.462205 
L 77.10056 290.695959 
L 77.10056 290.885719 
L 76.597293 291.654367 
L 76.597293 292.420613 
L 76.597293 292.420613 
L 76.474877 292.420613 
L 75.97161 293.379022 
L 76.223243 292.994698 
L 76.223243 293.379022 
L 76.097427 293.379022 
L 76.34906 293.760944 
L 76.34906 294.145268 
L 76.097427 294.33743 
L 76.223243 294.719352 
L 76.097427 294.529592 
L 75.845794 294.145268 
L 75.97161 294.145268 
L 76.097427 294.145268 
L 76.097427 294.145268 
L 75.97161 293.760944 
L 76.097427 293.379022 
L 75.97161 293.379022 
L 75.719977 293.953106 
L 75.845794 293.760944 
L 76.097427 294.529592 
L 75.468344 295.103676 
L 75.59416 295.488 
L 75.845794 295.488 
L 76.097427 294.719352 
L 75.468344 295.295838 
L 75.090894 294.33743 
L 74.965077 294.145268 
L 75.21671 294.719352 
L 74.713444 294.719352 
L 74.713444 294.529592 
L 75.342527 294.529592 
L 75.21671 294.145268 
L 74.713444 293.760944 
L 74.46181 293.379022 
L 74.46181 292.802535 
L 74.46181 292.994698 
L 74.713444 292.802535 
L 74.965077 292.802535 
L 74.965077 292.802535 
L 74.83926 293.18686 
L 74.713444 293.18686 
L 74.587627 293.379022 
L 74.713444 293.571184 
L 74.965077 293.379022 
L 75.090894 292.420613 
L 75.090894 292.228451 
L 74.713444 292.228451 
L 74.46181 292.420613 
L 74.084361 292.802535 
L 74.084361 292.802535 
L 74.335994 292.994698 
L 74.46181 292.802535 
L 74.335994 292.612775 
L 74.084361 292.612775 
L 73.832727 292.802535 
L 73.832727 292.612775 
L 73.958544 292.036289 
L 74.210177 291.844127 
L 74.210177 291.654367 
L 73.958544 291.077881 
L 73.832727 290.503797 
L 73.958544 290.695959 
L 74.46181 290.695959 
L 74.587627 290.311635 
L 74.335994 289.545389 
L 74.587627 289.545389 
L 74.587627 288.968903 
L 74.335994 288.968903 
L 74.335994 287.818333 
L 74.46181 287.43641 
L 74.713444 287.43641 
L 74.965077 287.628573 
L 75.090894 287.244248 
L 74.965077 286.670164 
L 74.587627 286.093678 
L 74.46181 285.519594 
L 75.342527 285.519594 
L 75.090894 284.561186 
L 75.090894 283.9847 
L 75.468344 283.026292 
L 76.097427 282.067883 
L 76.597293 281.875721 
L 76.72311 282.452208 
L 76.974743 282.452208 
L 78.736176 279.769145 
L 79.113626 278.810737 
L 79.868526 277.468005 
L 81.500742 274.016294 
L 82.255641 272.868126 
L 83.258774 271.717555 
L 86.652423 266.156866 
L 87.658956 264.05029 
L 88.413856 261.74915 
L 88.791306 259.640171 
L 89.546206 257.915517 
L 90.675155 255.9987 
L 94.697887 249.671765 
L 95.830237 247.180865 
L 96.83337 244.687562 
L 98.091536 242.0045 
L 99.475519 239.703359 
L 101.233552 237.404621 
L 103.120802 234.526994 
L 106.762683 228.394623 
L 108.649933 225.901321 
L 110.282149 223.026096 
L 111.540315 219.576788 
L 112.798482 216.509401 
L 114.430698 213.249852 
L 117.195263 206.922917 
L 118.705063 204.047693 
L 120.085646 200.790546 
L 123.479295 191.204062 
L 124.234194 188.136676 
L 124.863278 184.687367 
L 125.743994 181.235656 
L 128.634376 171.07749 
L 129.892543 167.817942 
L 130.895676 164.750555 
L 132.908742 157.465212 
L 133.534425 155.166473 
L 134.289324 151.140679 
L 135.170041 147.499208 
L 135.924941 144.431821 
L 136.679841 142.896927 
L 137.682973 141.938519 
L 138.815323 141.364435 
L 139.821856 140.406027 
L 140.321722 140.980111 
L 140.195906 140.980111 
L 139.821856 142.896927 
L 139.444406 143.663173 
L 138.94114 144.047497 
L 138.18624 144.813743 
L 137.43134 145.772152 
L 136.428207 148.265454 
L 135.421674 151.140679 
L 135.170041 152.483411 
L 135.044224 154.015903 
L 133.911875 158.615782 
L 133.286192 161.875331 
L 132.908742 163.599985 
L 132.405475 167.051696 
L 132.028025 168.584188 
L 131.398942 172.802145 
L 130.392409 175.677369 
L 129.892543 177.020101 
L 129.64091 178.552594 
L 129.64091 179.895326 
L 129.766726 180.661572 
L 129.515093 182.386226 
L 129.64091 183.536797 
L 130.01836 184.495205 
L 130.518226 185.453613 
L 131.021492 185.837937 
L 132.028025 186.219859 
L 132.657109 186.604183 
L 133.660241 186.604183 
L 134.666774 186.988507 
L 135.673308 187.754754 
L 136.679841 188.905324 
L 136.928074 189.095084 
L 137.179707 189.479408 
L 137.557157 191.0119 
L 137.43134 191.204062 
L 137.05389 191.396224 
L 136.554024 191.780548 
L 134.918408 194.271449 
L 134.037691 195.037695 
L 132.028025 195.614181 
L 131.147309 196.380427 
L 130.518226 197.146673 
L 129.389276 198.297244 
L 128.760193 199.447814 
L 128.50856 200.21406 
L 128.50856 200.790546 
L 128.256927 202.897122 
L 128.256927 204.432017 
L 128.634376 205.390425 
L 129.64091 206.733157 
L 130.01836 207.881325 
L 131.273126 210.182466 
L 131.650575 211.140874 
L 132.279659 213.442014 
L 132.657109 214.400423 
L 133.034559 216.125077 
L 132.531292 218.041893 
L 132.279659 218.426217 
L 132.279659 219.766548 
L 132.153842 220.535196 
L 131.902209 221.301442 
L 131.398942 222.25985 
L 130.895676 223.984504 
L 131.021492 224.368828 
L 131.021492 224.942913 
L 130.769859 226.093483 
L 130.769859 227.051891 
L 130.644042 227.818137 
L 130.266592 229.160869 
L 130.266592 229.734953 
L 129.892543 230.693362 
L 130.266592 231.077686 
L 130.266592 232.036094 
L 130.140776 232.80234 
L 129.26346 234.337234 
L 129.515093 235.103481 
L 129.64091 235.485403 
L 129.64091 235.485403 
L 129.389276 235.869727 
L 129.011826 236.828135 
L 128.13111 238.363029 
L 128.005293 238.937113 
L 128.005293 239.703359 
L 127.502027 241.046092 
L 126.750527 242.0045 
L 126.750527 243.34483 
L 126.498894 243.536992 
L 126.373077 243.921316 
L 126.373077 244.4954 
L 126.373077 244.4954 
L 126.99876 245.071886 
L 126.99876 245.645971 
L 126.121444 246.030295 
L 125.869811 246.604379 
L 125.618177 247.562787 
L 125.869811 247.947111 
L 124.863278 250.438011 
L 124.863278 250.822336 
L 125.240728 250.245849 
L 125.240728 250.438011 
L 125.240728 250.630173 
L 124.989094 251.014498 
L 124.989094 251.972906 
L 124.863278 251.972906 
L 124.989094 251.780744 
L 125.240728 251.780744 
L 125.366544 251.972906 
L 125.114911 252.354828 
L 124.485828 252.354828 
L 124.485828 252.354828 
L 124.611644 252.54699 
L 124.611644 252.931314 
L 124.737461 252.931314 
L 124.737461 252.931314 
L 124.737461 253.123476 
L 124.108378 253.889722 
L 123.982561 253.889722 
L 123.982561 254.84813 
L 123.856744 254.84813 
L 123.730928 253.889722 
L 123.982561 253.69756 
L 124.485828 254.655968 
L 125.114911 254.84813 
L 126.99876 254.84813 
L 134.163508 254.081884 
L 141.831522 252.931314 
L 146.609154 252.54699 
L 156.790101 251.014498 
L 162.696682 250.630173 
L 169.232347 250.438011 
L 176.019645 249.671765 
L 182.681126 248.521195 
L 189.21679 247.562787 
L 202.162303 246.412217 
L 208.446334 245.645971 
L 230.692077 244.30564 
L 235.218075 244.687562 
L 239.366624 244.879724 
L 243.26354 244.687562 
L 247.034639 243.921316 
L 250.176654 243.536992 
L 252.94122 243.34483 
L 260.357601 241.620176 
L 260.983284 241.620176 
L 261.360734 241.238254 
L 261.48655 240.85393 
L 261.360734 240.279846 
L 260.983284 239.703359 
L 259.225251 237.978705 
L 258.344535 237.594381 
L 257.215585 237.594381 
L 256.460685 237.212459 
L 255.454152 236.828135 
L 255.328336 236.635973 
L 255.328336 236.828135 
L 254.950886 237.404621 
L 254.950886 237.786543 
L 255.328336 238.552789 
L 255.831602 238.552789 
L 256.586502 238.937113 
L 257.089769 239.321437 
L 257.341402 239.321437 
L 257.715451 239.129275 
L 257.215585 239.321437 
L 257.089769 239.129275 
L 257.089769 238.744951 
L 257.463818 238.170867 
L 257.215585 238.363029 
L 256.586502 238.363029 
L 256.838135 238.363029 
L 256.838135 238.170867 
L 256.586502 238.170867 
L 257.089769 237.786543 
L 257.089769 237.404621 
L 256.838135 237.404621 
L 256.460685 237.594381 
L 256.334869 237.594381 
L 256.963952 237.978705 
L 257.463818 238.170867 
L 257.589635 238.552789 
L 257.589635 239.129275 
L 257.589635 239.129275 
L 257.341402 238.937113 
L 257.341402 238.744951 
L 257.341402 238.744951 
L 257.089769 238.744951 
L 256.963952 238.552789 
L 257.215585 238.363029 
L 257.589635 237.786543 
L 257.341402 237.594381 
L 257.215585 237.978705 
L 257.215585 238.363029 
L 257.463818 238.937113 
L 257.841268 238.552789 
L 257.841268 237.978705 
L 257.715451 238.170867 
L 257.215585 238.363029 
L 257.215585 238.170867 
L 257.463818 238.363029 
L 257.715451 238.744951 
L 257.715451 238.552789 
L 257.589635 238.170867 
L 257.589635 238.363029 
L 257.341402 238.552789 
L 257.215585 238.170867 
L 257.215585 238.363029 
L 257.715451 238.363029 
L 257.715451 238.363029 
L 257.715451 238.552789 
L 257.463818 238.170867 
L 257.463818 237.786543 
L 257.715451 238.170867 
L 257.715451 238.552789 
L 257.841268 238.744951 
L 257.841268 238.552789 
L 257.841268 238.170867 
L 257.715451 237.404621 
L 257.589635 237.404621 
L 257.589635 237.594381 
L 257.715451 237.594381 
L 257.589635 237.404621 
L 257.715451 237.212459 
L 257.967085 237.212459 
L 258.218718 237.786543 
L 258.092901 238.170867 
L 257.967085 238.170867 
L 257.967085 237.978705 
L 258.092901 238.363029 
L 257.967085 238.744951 
L 257.715451 238.552789 
L 257.463818 238.552789 
L 257.589635 238.552789 
L 257.589635 237.786543 
L 257.715451 237.786543 
L 257.841268 237.978705 
L 257.841268 238.363029 
L 257.967085 238.552789 
L 258.218718 238.552789 
L 258.344535 238.170867 
L 258.092901 237.594381 
L 257.589635 237.594381 
L 257.463818 237.786543 
L 257.589635 238.170867 
L 257.967085 238.363029 
L 258.344535 238.170867 
L 258.218718 238.170867 
L 257.841268 237.978705 
L 257.589635 237.978705 
L 257.589635 237.404621 
L 257.715451 237.404621 
L 257.841268 237.594381 
L 257.715451 237.978705 
L 257.715451 237.978705 
L 257.967085 237.786543 
L 258.092901 237.404621 
L 257.967085 237.212459 
L 257.967085 237.404621 
L 257.967085 237.978705 
L 257.841268 237.978705 
L 257.715451 238.170867 
L 257.967085 238.363029 
L 258.218718 238.170867 
L 258.344535 237.594381 
L 258.218718 236.828135 
L 257.967085 236.635973 
L 258.092901 236.635973 
L 258.470351 236.254051 
L 258.470351 236.254051 
L 258.470351 236.635973 
L 258.596168 236.828135 
L 258.218718 237.212459 
L 258.218718 236.828135 
L 258.344535 236.443811 
L 258.344535 236.635973 
L 258.218718 237.404621 
L 258.470351 237.212459 
L 258.470351 237.212459 
L 258.092901 236.828135 
L 258.344535 237.020297 
L 258.596168 237.020297 
L 258.470351 237.020297 
L 258.344535 237.212459 
L 258.218718 237.020297 
L 258.344535 236.635973 
L 258.721985 236.254051 
L 258.721985 236.443811 
L 258.973618 237.020297 
L 258.470351 237.594381 
L 258.218718 237.594381 
L 258.344535 237.212459 
L 258.596168 237.020297 
L 258.847801 237.212459 
L 258.721985 237.212459 
L 259.099434 237.594381 
L 259.351068 237.404621 
L 259.476884 237.020297 
L 259.351068 237.020297 
L 259.225251 237.404621 
L 259.225251 237.978705 
L 259.728518 238.170867 
L 259.476884 237.212459 
L 259.476884 236.443811 
L 259.602701 236.443811 
L 259.728518 236.635973 
L 259.476884 237.212459 
L 259.099434 237.404621 
L 258.847801 237.404621 
L 258.847801 237.404621 
L 259.099434 238.552789 
L 259.225251 238.363029 
L 259.351068 237.404621 
L 259.099434 237.404621 
L 258.973618 237.594381 
L 259.099434 237.978705 
L 259.351068 237.020297 
L 259.476884 237.404621 
L 259.728518 237.404621 
L 259.728518 237.212459 
L 259.602701 236.254051 
L 259.602701 236.443811 
L 259.476884 237.212459 
L 259.225251 237.786543 
L 259.099434 237.594381 
L 259.099434 237.020297 
L 259.225251 237.212459 
L 259.225251 237.594381 
L 259.351068 237.594381 
L 259.351068 236.635973 
L 259.351068 237.404621 
L 259.099434 237.786543 
L 259.476884 237.212459 
L 259.728518 237.212459 
L 259.854334 237.786543 
L 259.728518 238.170867 
L 259.854334 238.363029 
L 259.854334 237.978705 
L 259.728518 237.404621 
L 259.854334 237.978705 
L 260.105968 237.978705 
L 259.728518 237.404621 
L 259.854334 237.786543 
L 259.602701 237.978705 
L 259.602701 237.786543 
L 259.602701 237.786543 
L 259.854334 237.786543 
L 259.980151 237.594381 
L 259.980151 237.212459 
L 259.854334 237.020297 
L 259.602701 237.212459 
L 259.602701 236.828135 
L 259.602701 237.020297 
L 259.854334 237.212459 
L 259.854334 237.212459 
L 259.980151 237.212459 
L 259.980151 237.594381 
L 260.357601 237.212459 
L 260.231784 237.020297 
L 259.728518 237.404621 
L 260.231784 236.443811 
L 260.231784 236.635973 
L 260.357601 236.828135 
L 260.105968 237.020297 
L 259.854334 236.635973 
L 259.854334 236.635973 
L 260.105968 237.594381 
L 259.980151 237.404621 
L 260.231784 237.404621 
L 260.357601 237.594381 
L 260.231784 237.404621 
L 260.357601 236.828135 
L 260.357601 236.254051 
L 260.231784 236.061889 
L 259.980151 236.061889 
L 259.351068 236.635973 
L 259.476884 236.828135 
L 259.980151 237.020297 
L 260.357601 236.443811 
L 259.854334 237.212459 
L 260.105968 236.635973 
L 259.854334 236.828135 
L 259.728518 236.443811 
L 259.728518 236.254051 
L 259.728518 236.443811 
L 259.476884 237.020297 
L 259.728518 236.635973 
L 259.980151 236.635973 
L 259.980151 236.443811 
L 259.854334 236.254051 
L 259.854334 237.020297 
L 259.854334 236.828135 
L 259.980151 236.254051 
L 260.105968 236.254051 
L 260.105968 236.254051 
L 260.105968 236.061889 
L 260.105968 236.254051 
L 260.231784 236.254051 
L 260.483418 236.061889 
L 260.357601 236.061889 
L 260.105968 235.869727 
L 259.854334 235.869727 
L 260.105968 236.443811 
L 260.231784 236.635973 
L 260.231784 236.254051 
L 260.357601 235.869727 
L 260.357601 235.485403 
L 260.483418 235.677565 
L 260.483418 236.061889 
L 260.231784 235.869727 
L 259.854334 235.103481 
L 260.483418 235.485403 
L 260.609234 234.911318 
L 260.357601 233.95291 
L 260.231784 233.95291 
L 260.357601 233.95291 
L 260.609234 233.760748 
L 260.357601 233.186664 
L 260.357601 233.186664 
L 260.357601 232.994502 
L 260.357601 232.994502 
L 260.483418 232.994502 
L 260.73165 232.80234 
L 260.483418 232.80234 
L 260.357601 232.420418 
L 260.483418 232.036094 
L 261.360734 232.036094 
L 260.609234 231.077686 
L 260.609234 231.269848 
L 260.73165 231.077686 
L 260.857467 229.927116 
L 260.857467 230.693362 
L 260.983284 230.693362 
L 260.983284 229.542791 
L 261.234917 229.353031 
L 262.99635 226.667567 
L 262.99635 225.901321 
L 262.870533 225.519399 
L 262.493083 225.135075 
L 262.367267 224.750751 
L 262.367267 224.750751 
L 262.493083 224.750751 
L 262.6189 224.368828 
L 262.6189 223.60018 
L 262.744717 223.026096 
L 263.625433 220.917118 
L 263.625433 214.974507 
L 263.499616 212.865528 
L 263.247983 210.948712 
L 262.744717 209.224058 
L 262.115633 207.499403 
L 261.612367 205.774749 
L 260.857467 204.047693 
L 259.854334 202.130876 
L 257.967085 199.447814 
L 255.705786 196.380427 
L 254.321802 194.271449 
L 253.570303 191.97271 
L 252.060503 184.110881 
L 250.928154 178.936918 
L 248.792671 166.285449 
L 246.531372 155.548395 
L 242.382823 145.390229 
L 239.995707 140.213864 
L 238.737541 138.297048 
L 237.231142 136.572394 
L 235.972975 134.845337 
L 232.327693 129.479212 
L 231.069527 128.13648 
L 229.437311 126.027502 
L 228.053328 124.876932 
L 227.298428 124.876932 
L 227.298428 124.687172 
L 227.424244 124.495009 
L 227.675878 124.687172 
L 228.053328 126.027502 
L 227.927511 126.98591 
L 227.176012 130.053297 
L 226.672745 130.819543 
L 225.414579 131.970113 
L 224.785495 132.736359 
L 221.895113 134.845337 
L 220.13708 135.995908 
L 217.243298 140.598189 
L 213.975465 146.73056 
L 213.098149 147.499208 
L 212.594883 148.647376 
L 212.217433 150.374432 
L 211.336716 152.291249 
L 209.956134 153.823741 
L 208.697967 154.974311 
L 206.814118 158.041698 
L 205.304318 161.875331 
L 204.675235 163.025901 
L 203.794519 163.984309 
L 200.77832 169.160674 
L 200.77832 169.734758 
L 200.152637 171.459412 
L 199.901004 172.035899 
L 200.278454 172.228061 
L 200.526686 172.609983 
L 200.40427 172.994307 
L 200.152637 173.376229 
L 200.152637 173.760553 
L 200.40427 174.334637 
L 200.526686 174.911123 
L 200.652503 174.911123 
L 200.652503 175.103285 
L 200.526686 175.677369 
L 200.526686 176.827939 
L 200.40427 177.786348 
L 200.652503 179.703164 
L 200.652503 180.277248 
L 201.281586 184.303043 
L 201.281586 188.328838 
L 201.15577 188.713162 
L 201.15577 189.095084 
L 201.407403 190.629978 
L 201.281586 191.588386 
L 201.029953 192.354632 
L 200.77832 192.546794 
L 200.904136 192.931119 
L 201.15577 193.313041 
L 201.281586 193.889527 
L 201.281586 194.655773 
L 200.904136 195.806343 
L 200.77832 197.912919 
L 200.77832 200.021898 
L 200.652503 201.172468 
L 200.77832 201.36463 
L 201.029953 201.36463 
L 200.904136 201.748954 
L 200.652503 202.130876 
L 200.652503 202.897122 
L 201.029953 204.624179 
L 201.029953 205.198263 
L 201.910669 208.073487 
L 201.910669 208.839734 
L 201.784853 209.990304 
L 201.281586 212.099282 
L 201.281586 213.249852 
L 201.407403 214.208261 
L 201.281586 214.974507 
L 201.029953 215.166669 
L 200.904136 215.550993 
L 200.77832 216.317239 
L 201.659036 221.10928 
L 201.910669 221.493604 
L 202.036486 222.452012 
L 201.910669 223.218258 
L 201.029953 225.327237 
L 201.15577 225.519399 
L 201.407403 226.285645 
L 201.53322 227.436215 
L 201.281586 227.436215 
L 201.281586 227.436215 
L 201.281586 228.010299 
L 201.029953 229.160869 
L 201.15577 229.542791 
L 201.281586 229.542791 
L 201.281586 229.542791 
L 201.407403 229.734953 
L 201.15577 230.5012 
L 201.15577 231.269848 
L 201.281586 231.843932 
L 201.281586 232.610178 
L 201.53322 233.186664 
L 201.407403 234.911318 
L 200.77832 234.526994 
L 200.904136 234.719156 
L 200.904136 235.103481 
L 200.77832 236.061889 
L 200.77832 236.254051 
L 200.904136 236.635973 
L 200.77832 237.020297 
L 200.40427 237.404621 
L 200.40427 237.786543 
L 200.652503 238.363029 
L 200.526686 238.937113 
L 200.652503 238.937113 
L 200.77832 239.321437 
L 200.77832 239.895521 
L 200.652503 240.279846 
L 200.526686 240.279846 
L 200.40427 240.087683 
L 200.40427 240.279846 
L 200.278454 240.279846 
L 200.152637 240.087683 
L 200.40427 240.661768 
L 199.901004 240.661768 
L 200.152637 241.238254 
L 199.901004 241.812338 
L 199.775187 241.620176 
L 199.523554 241.620176 
L 199.775187 241.620176 
L 200.526686 242.962908 
L 200.526686 242.962908 
L 200.02682 242.962908 
L 200.152637 242.770746 
L 200.278454 242.962908 
L 200.278454 243.729154 
L 200.40427 244.113478 
L 200.652503 244.113478 
L 200.904136 244.687562 
L 200.77832 245.453808 
L 200.652503 245.453808 
L 200.526686 245.264048 
L 200.526686 244.879724 
L 200.526686 245.071886 
L 200.652503 245.453808 
L 200.526686 245.645971 
L 200.152637 245.453808 
L 199.901004 245.453808 
L 199.775187 246.030295 
L 199.901004 246.604379 
L 200.152637 246.796541 
L 200.02682 246.604379 
L 199.901004 246.412217 
L 199.64937 246.604379 
L 199.397737 246.988703 
L 199.523554 247.370625 
L 199.901004 247.370625 
L 200.278454 246.604379 
L 200.278454 246.988703 
L 200.40427 247.562787 
L 200.40427 248.521195 
L 200.278454 249.287441 
L 200.02682 249.097681 
L 200.02682 248.329033 
L 200.152637 248.139273 
L 200.152637 248.139273 
L 200.526686 248.713357 
L 200.40427 249.287441 
L 200.02682 249.287441 
L 200.02682 248.713357 
L 200.152637 248.521195 
L 200.40427 248.713357 
L 200.77832 248.713357 
L 200.77832 248.713357 
L 200.652503 248.905519 
L 200.40427 248.905519 
L 199.901004 249.097681 
L 199.64937 248.905519 
L 199.64937 248.713357 
L 199.901004 248.521195 
L 200.02682 249.479603 
L 199.775187 249.671765 
L 199.901004 249.671765 
L 200.278454 249.671765 
L 200.278454 250.056089 
L 200.152637 250.245849 
L 200.02682 250.056089 
L 200.278454 249.479603 
L 200.278454 249.671765 
L 200.526686 249.671765 
L 200.652503 250.056089 
L 200.526686 250.056089 
L 200.40427 249.671765 
L 200.652503 250.245849 
L 200.652503 250.245849 
L 200.904136 249.863927 
L 200.904136 250.245849 
L 200.652503 250.822336 
L 201.15577 250.822336 
L 200.904136 251.39642 
L 200.904136 251.588582 
L 200.526686 250.630173 
L 200.40427 250.630173 
L 201.029953 251.39642 
L 201.15577 251.588582 
L 201.15577 251.588582 
L 200.904136 251.588582 
L 200.652503 251.780744 
L 200.278454 252.165068 
L 200.77832 252.54699 
L 200.77832 252.54699 
L 200.904136 252.165068 
L 201.281586 251.972906 
L 201.029953 252.54699 
L 200.904136 252.165068 
L 200.904136 251.780744 
L 200.77832 251.972906 
L 200.904136 252.54699 
L 201.15577 252.931314 
L 201.407403 252.931314 
L 201.281586 252.931314 
L 201.15577 252.739152 
L 201.029953 252.931314 
L 201.15577 253.123476 
L 201.53322 252.739152 
L 201.407403 252.354828 
L 201.407403 252.354828 
" style="fill:none;stroke:#1f77b4;stroke-linecap:square;stroke-width:1.5;"/>
   </g>
   <g id="matplotlib.axis_1">
    <g id="xtick_1">
     <g id="line2d_2">
      <defs>
       <path d="M 0 0 
L 0 3.5 
" id="m8df28f1ca6" style="stroke:#000000;stroke-width:0.8;"/>
      </defs>
      <g>
       <use style="stroke:#000000;stroke-width:0.8;" x="124.88368" xlink:href="#m8df28f1ca6" y="307.584"/>
      </g>
     </g>
     <g id="text_1">
      <!-- −200 -->
      <defs>
       <path d="M 10.59375 35.5 
L 73.1875 35.5 
L 73.1875 27.203125 
L 10.59375 27.203125 
z
" id="DejaVuSans-8722"/>
       <path d="M 19.1875 8.296875 
L 53.609375 8.296875 
L 53.609375 0 
L 7.328125 0 
L 7.328125 8.296875 
Q 12.9375 14.109375 22.625 23.890625 
Q 32.328125 33.6875 34.8125 36.53125 
Q 39.546875 41.84375 41.421875 45.53125 
Q 43.3125 49.21875 43.3125 52.78125 
Q 43.3125 58.59375 39.234375 62.25 
Q 35.15625 65.921875 28.609375 65.921875 
Q 23.96875 65.921875 18.8125 64.3125 
Q 13.671875 62.703125 7.8125 59.421875 
L 7.8125 69.390625 
Q 13.765625 71.78125 18.9375 73 
Q 24.125 74.21875 28.421875 74.21875 
Q 39.75 74.21875 46.484375 68.546875 
Q 53.21875 62.890625 53.21875 53.421875 
Q 53.21875 48.921875 51.53125 44.890625 
Q 49.859375 40.875 45.40625 35.40625 
Q 44.1875 33.984375 37.640625 27.21875 
Q 31.109375 20.453125 19.1875 8.296875 
z
" id="DejaVuSans-50"/>
       <path d="M 31.78125 66.40625 
Q 24.171875 66.40625 20.328125 58.90625 
Q 16.5 51.421875 16.5 36.375 
Q 16.5 21.390625 20.328125 13.890625 
Q 24.171875 6.390625 31.78125 6.390625 
Q 39.453125 6.390625 43.28125 13.890625 
Q 47.125 21.390625 47.125 36.375 
Q 47.125 51.421875 43.28125 58.90625 
Q 39.453125 66.40625 31.78125 66.40625 
z
M 31.78125 74.21875 
Q 44.046875 74.21875 50.515625 64.515625 
Q 56.984375 54.828125 56.984375 36.375 
Q 56.984375 17.96875 50.515625 8.265625 
Q 44.046875 -1.421875 31.78125 -1.421875 
Q 19.53125 -1.421875 13.0625 8.265625 
Q 6.59375 17.96875 6.59375 36.375 
Q 6.59375 54.828125 13.0625 64.515625 
Q 19.53125 74.21875 31.78125 74.21875 
z
" id="DejaVuSans-48"/>
      </defs>
      <g transform="translate(111.150087 322.182437)scale(0.1 -0.1)">
       <use xlink:href="#DejaVuSans-8722"/>
       <use x="83.789062" xlink:href="#DejaVuSans-50"/>
       <use x="147.412109" xlink:href="#DejaVuSans-48"/>
       <use x="211.035156" xlink:href="#DejaVuSans-48"/>
      </g>
     </g>
    </g>
    <g id="xtick_2">
     <g id="line2d_3">
      <g>
       <use style="stroke:#000000;stroke-width:0.8;" x="192.892677" xlink:href="#m8df28f1ca6" y="307.584"/>
      </g>
     </g>
     <g id="text_2">
      <!-- 0 -->
      <g transform="translate(189.711427 322.182437)scale(0.1 -0.1)">
       <use xlink:href="#DejaVuSans-48"/>
      </g>
     </g>
    </g>
    <g id="xtick_3">
     <g id="line2d_4">
      <g>
       <use style="stroke:#000000;stroke-width:0.8;" x="260.901673" xlink:href="#m8df28f1ca6" y="307.584"/>
      </g>
     </g>
     <g id="text_3">
      <!-- 200 -->
      <g transform="translate(251.357923 322.182437)scale(0.1 -0.1)">
       <use xlink:href="#DejaVuSans-50"/>
       <use x="63.623047" xlink:href="#DejaVuSans-48"/>
       <use x="127.246094" xlink:href="#DejaVuSans-48"/>
      </g>
     </g>
    </g>
    <g id="xtick_4">
     <g id="line2d_5">
      <g>
       <use style="stroke:#000000;stroke-width:0.8;" x="328.910669" xlink:href="#m8df28f1ca6" y="307.584"/>
      </g>
     </g>
     <g id="text_4">
      <!-- 400 -->
      <defs>
       <path d="M 37.796875 64.3125 
L 12.890625 25.390625 
L 37.796875 25.390625 
z
M 35.203125 72.90625 
L 47.609375 72.90625 
L 47.609375 25.390625 
L 58.015625 25.390625 
L 58.015625 17.1875 
L 47.609375 17.1875 
L 47.609375 0 
L 37.796875 0 
L 37.796875 17.1875 
L 4.890625 17.1875 
L 4.890625 26.703125 
z
" id="DejaVuSans-52"/>
      </defs>
      <g transform="translate(319.366919 322.182437)scale(0.1 -0.1)">
       <use xlink:href="#DejaVuSans-52"/>
       <use x="63.623047" xlink:href="#DejaVuSans-48"/>
       <use x="127.246094" xlink:href="#DejaVuSans-48"/>
      </g>
     </g>
    </g>
    <g id="xtick_5">
     <g id="line2d_6">
      <g>
       <use style="stroke:#000000;stroke-width:0.8;" x="396.919665" xlink:href="#m8df28f1ca6" y="307.584"/>
      </g>
     </g>
     <g id="text_5">
      <!-- 600 -->
      <defs>
       <path d="M 33.015625 40.375 
Q 26.375 40.375 22.484375 35.828125 
Q 18.609375 31.296875 18.609375 23.390625 
Q 18.609375 15.53125 22.484375 10.953125 
Q 26.375 6.390625 33.015625 6.390625 
Q 39.65625 6.390625 43.53125 10.953125 
Q 47.40625 15.53125 47.40625 23.390625 
Q 47.40625 31.296875 43.53125 35.828125 
Q 39.65625 40.375 33.015625 40.375 
z
M 52.59375 71.296875 
L 52.59375 62.3125 
Q 48.875 64.0625 45.09375 64.984375 
Q 41.3125 65.921875 37.59375 65.921875 
Q 27.828125 65.921875 22.671875 59.328125 
Q 17.53125 52.734375 16.796875 39.40625 
Q 19.671875 43.65625 24.015625 45.921875 
Q 28.375 48.1875 33.59375 48.1875 
Q 44.578125 48.1875 50.953125 41.515625 
Q 57.328125 34.859375 57.328125 23.390625 
Q 57.328125 12.15625 50.6875 5.359375 
Q 44.046875 -1.421875 33.015625 -1.421875 
Q 20.359375 -1.421875 13.671875 8.265625 
Q 6.984375 17.96875 6.984375 36.375 
Q 6.984375 53.65625 15.1875 63.9375 
Q 23.390625 74.21875 37.203125 74.21875 
Q 40.921875 74.21875 44.703125 73.484375 
Q 48.484375 72.75 52.59375 71.296875 
z
" id="DejaVuSans-54"/>
      </defs>
      <g transform="translate(387.375915 322.182437)scale(0.1 -0.1)">
       <use xlink:href="#DejaVuSans-54"/>
       <use x="63.623047" xlink:href="#DejaVuSans-48"/>
       <use x="127.246094" xlink:href="#DejaVuSans-48"/>
      </g>
     </g>
    </g>
   </g>
   <g id="matplotlib.axis_2">
    <g id="ytick_1">
     <g id="line2d_7">
      <defs>
       <path d="M 0 0 
L -3.5 0 
" id="m8cec3c0d65" style="stroke:#000000;stroke-width:0.8;"/>
      </defs>
      <g>
       <use style="stroke:#000000;stroke-width:0.8;" x="57.6" xlink:href="#m8cec3c0d65" y="294.003548"/>
      </g>
     </g>
     <g id="text_6">
      <!-- −600 -->
      <g transform="translate(23.132812 297.802767)scale(0.1 -0.1)">
       <use xlink:href="#DejaVuSans-8722"/>
       <use x="83.789062" xlink:href="#DejaVuSans-54"/>
       <use x="147.412109" xlink:href="#DejaVuSans-48"/>
       <use x="211.035156" xlink:href="#DejaVuSans-48"/>
      </g>
     </g>
    </g>
    <g id="ytick_2">
     <g id="line2d_8">
      <g>
       <use style="stroke:#000000;stroke-width:0.8;" x="57.6" xlink:href="#m8cec3c0d65" y="245.963038"/>
      </g>
     </g>
     <g id="text_7">
      <!-- −400 -->
      <g transform="translate(23.132812 249.762257)scale(0.1 -0.1)">
       <use xlink:href="#DejaVuSans-8722"/>
       <use x="83.789062" xlink:href="#DejaVuSans-52"/>
       <use x="147.412109" xlink:href="#DejaVuSans-48"/>
       <use x="211.035156" xlink:href="#DejaVuSans-48"/>
      </g>
     </g>
    </g>
    <g id="ytick_3">
     <g id="line2d_9">
      <g>
       <use style="stroke:#000000;stroke-width:0.8;" x="57.6" xlink:href="#m8cec3c0d65" y="197.922528"/>
      </g>
     </g>
     <g id="text_8">
      <!-- −200 -->
      <g transform="translate(23.132812 201.721746)scale(0.1 -0.1)">
       <use xlink:href="#DejaVuSans-8722"/>
       <use x="83.789062" xlink:href="#DejaVuSans-50"/>
       <use x="147.412109" xlink:href="#DejaVuSans-48"/>
       <use x="211.035156" xlink:href="#DejaVuSans-48"/>
      </g>
     </g>
    </g>
    <g id="ytick_4">
     <g id="line2d_10">
      <g>
       <use style="stroke:#000000;stroke-width:0.8;" x="57.6" xlink:href="#m8cec3c0d65" y="149.882017"/>
      </g>
     </g>
     <g id="text_9">
      <!-- 0 -->
      <g transform="translate(44.2375 153.681236)scale(0.1 -0.1)">
       <use xlink:href="#DejaVuSans-48"/>
      </g>
     </g>
    </g>
    <g id="ytick_5">
     <g id="line2d_11">
      <g>
       <use style="stroke:#000000;stroke-width:0.8;" x="57.6" xlink:href="#m8cec3c0d65" y="101.841507"/>
      </g>
     </g>
     <g id="text_10">
      <!-- 200 -->
      <g transform="translate(31.5125 105.640726)scale(0.1 -0.1)">
       <use xlink:href="#DejaVuSans-50"/>
       <use x="63.623047" xlink:href="#DejaVuSans-48"/>
       <use x="127.246094" xlink:href="#DejaVuSans-48"/>
      </g>
     </g>
    </g>
    <g id="ytick_6">
     <g id="line2d_12">
      <g>
       <use style="stroke:#000000;stroke-width:0.8;" x="57.6" xlink:href="#m8cec3c0d65" y="53.800996"/>
      </g>
     </g>
     <g id="text_11">
      <!-- 400 -->
      <g transform="translate(31.5125 57.600215)scale(0.1 -0.1)">
       <use xlink:href="#DejaVuSans-52"/>
       <use x="63.623047" xlink:href="#DejaVuSans-48"/>
       <use x="127.246094" xlink:href="#DejaVuSans-48"/>
      </g>
     </g>
    </g>
   </g>
   <g id="line2d_13">
    <path clip-path="url(#p17bb7622f7)" d="M 395.011106 56.079803 
L 203.440996 173.553149 
L 92.810909 239.09654 
L 81.523518 275.77506 
L 131.161472 210.65914 
L 254.131492 238.908087 
L 259.691966 232.005767 
L 201.231389 197.769942 
L 200.557238 245.668956 
" style="fill:none;stroke:#ff0000;stroke-linecap:square;stroke-width:0.5;"/>
   </g>
   <g id="patch_3">
    <path d="M 57.6 307.584 
L 57.6 41.472 
" style="fill:none;stroke:#000000;stroke-linecap:square;stroke-linejoin:miter;stroke-width:0.8;"/>
   </g>
   <g id="patch_4">
    <path d="M 414.72 307.584 
L 414.72 41.472 
" style="fill:none;stroke:#000000;stroke-linecap:square;stroke-linejoin:miter;stroke-width:0.8;"/>
   </g>
   <g id="patch_5">
    <path d="M 57.6 307.584 
L 414.72 307.584 
" style="fill:none;stroke:#000000;stroke-linecap:square;stroke-linejoin:miter;stroke-width:0.8;"/>
   </g>
   <g id="patch_6">
    <path d="M 57.6 41.472 
L 414.72 41.472 
" style="fill:none;stroke:#000000;stroke-linecap:square;stroke-linejoin:miter;stroke-width:0.8;"/>
   </g>
   <g id="PathCollection_1">
    <defs>
     <path d="M 0 2.738613 
C 0.726289 2.738613 1.422928 2.450055 1.936492 1.936492 
C 2.450055 1.422928 2.738613 0.726289 2.738613 0 
C 2.738613 -0.726289 2.450055 -1.422928 1.936492 -1.936492 
C 1.422928 -2.450055 0.726289 -2.738613 0 -2.738613 
C -0.726289 -2.738613 -1.422928 -2.450055 -1.936492 -1.936492 
C -2.450055 -1.422928 -2.738613 -0.726289 -2.738613 0 
C -2.738613 0.726289 -2.450055 1.422928 -1.936492 1.936492 
C -1.422928 2.450055 -0.726289 2.738613 0 2.738613 
z
" id="md0e44b1fd8" style="stroke:#ff0000;"/>
    </defs>
    <g clip-path="url(#p17bb7622f7)">
     <use style="fill:#ff0000;stroke:#ff0000;" x="395.011106" xlink:href="#md0e44b1fd8" y="56.079803"/>
     <use style="fill:#ff0000;stroke:#ff0000;" x="203.440996" xlink:href="#md0e44b1fd8" y="173.553149"/>
     <use style="fill:#ff0000;stroke:#ff0000;" x="92.810909" xlink:href="#md0e44b1fd8" y="239.09654"/>
     <use style="fill:#ff0000;stroke:#ff0000;" x="81.523518" xlink:href="#md0e44b1fd8" y="275.77506"/>
     <use style="fill:#ff0000;stroke:#ff0000;" x="131.161472" xlink:href="#md0e44b1fd8" y="210.65914"/>
     <use style="fill:#ff0000;stroke:#ff0000;" x="254.131492" xlink:href="#md0e44b1fd8" y="238.908087"/>
     <use style="fill:#ff0000;stroke:#ff0000;" x="259.691966" xlink:href="#md0e44b1fd8" y="232.005767"/>
     <use style="fill:#ff0000;stroke:#ff0000;" x="201.231389" xlink:href="#md0e44b1fd8" y="197.769942"/>
     <use style="fill:#ff0000;stroke:#ff0000;" x="200.557238" xlink:href="#md0e44b1fd8" y="245.668956"/>
    </g>
   </g>
   <g id="text_12">
    <!-- (31) Subject: s17, Known = False, Degree = 2, Duration = 0.1 -->
    <defs>
     <path d="M 31 75.875 
Q 24.46875 64.65625 21.28125 53.65625 
Q 18.109375 42.671875 18.109375 31.390625 
Q 18.109375 20.125 21.3125 9.0625 
Q 24.515625 -2 31 -13.1875 
L 23.1875 -13.1875 
Q 15.875 -1.703125 12.234375 9.375 
Q 8.59375 20.453125 8.59375 31.390625 
Q 8.59375 42.28125 12.203125 53.3125 
Q 15.828125 64.359375 23.1875 75.875 
z
" id="DejaVuSans-40"/>
     <path d="M 40.578125 39.3125 
Q 47.65625 37.796875 51.625 33 
Q 55.609375 28.21875 55.609375 21.1875 
Q 55.609375 10.40625 48.1875 4.484375 
Q 40.765625 -1.421875 27.09375 -1.421875 
Q 22.515625 -1.421875 17.65625 -0.515625 
Q 12.796875 0.390625 7.625 2.203125 
L 7.625 11.71875 
Q 11.71875 9.328125 16.59375 8.109375 
Q 21.484375 6.890625 26.8125 6.890625 
Q 36.078125 6.890625 40.9375 10.546875 
Q 45.796875 14.203125 45.796875 21.1875 
Q 45.796875 27.640625 41.28125 31.265625 
Q 36.765625 34.90625 28.71875 34.90625 
L 20.21875 34.90625 
L 20.21875 43.015625 
L 29.109375 43.015625 
Q 36.375 43.015625 40.234375 45.921875 
Q 44.09375 48.828125 44.09375 54.296875 
Q 44.09375 59.90625 40.109375 62.90625 
Q 36.140625 65.921875 28.71875 65.921875 
Q 24.65625 65.921875 20.015625 65.03125 
Q 15.375 64.15625 9.8125 62.3125 
L 9.8125 71.09375 
Q 15.4375 72.65625 20.34375 73.4375 
Q 25.25 74.21875 29.59375 74.21875 
Q 40.828125 74.21875 47.359375 69.109375 
Q 53.90625 64.015625 53.90625 55.328125 
Q 53.90625 49.265625 50.4375 45.09375 
Q 46.96875 40.921875 40.578125 39.3125 
z
" id="DejaVuSans-51"/>
     <path d="M 12.40625 8.296875 
L 28.515625 8.296875 
L 28.515625 63.921875 
L 10.984375 60.40625 
L 10.984375 69.390625 
L 28.421875 72.90625 
L 38.28125 72.90625 
L 38.28125 8.296875 
L 54.390625 8.296875 
L 54.390625 0 
L 12.40625 0 
z
" id="DejaVuSans-49"/>
     <path d="M 8.015625 75.875 
L 15.828125 75.875 
Q 23.140625 64.359375 26.78125 53.3125 
Q 30.421875 42.28125 30.421875 31.390625 
Q 30.421875 20.453125 26.78125 9.375 
Q 23.140625 -1.703125 15.828125 -13.1875 
L 8.015625 -13.1875 
Q 14.5 -2 17.703125 9.0625 
Q 20.90625 20.125 20.90625 31.390625 
Q 20.90625 42.671875 17.703125 53.65625 
Q 14.5 64.65625 8.015625 75.875 
z
" id="DejaVuSans-41"/>
     <path id="DejaVuSans-32"/>
     <path d="M 53.515625 70.515625 
L 53.515625 60.890625 
Q 47.90625 63.578125 42.921875 64.890625 
Q 37.9375 66.21875 33.296875 66.21875 
Q 25.25 66.21875 20.875 63.09375 
Q 16.5 59.96875 16.5 54.203125 
Q 16.5 49.359375 19.40625 46.890625 
Q 22.3125 44.4375 30.421875 42.921875 
L 36.375 41.703125 
Q 47.40625 39.59375 52.65625 34.296875 
Q 57.90625 29 57.90625 20.125 
Q 57.90625 9.515625 50.796875 4.046875 
Q 43.703125 -1.421875 29.984375 -1.421875 
Q 24.8125 -1.421875 18.96875 -0.25 
Q 13.140625 0.921875 6.890625 3.21875 
L 6.890625 13.375 
Q 12.890625 10.015625 18.65625 8.296875 
Q 24.421875 6.59375 29.984375 6.59375 
Q 38.421875 6.59375 43.015625 9.90625 
Q 47.609375 13.234375 47.609375 19.390625 
Q 47.609375 24.75 44.3125 27.78125 
Q 41.015625 30.8125 33.5 32.328125 
L 27.484375 33.5 
Q 16.453125 35.6875 11.515625 40.375 
Q 6.59375 45.0625 6.59375 53.421875 
Q 6.59375 63.09375 13.40625 68.65625 
Q 20.21875 74.21875 32.171875 74.21875 
Q 37.3125 74.21875 42.625 73.28125 
Q 47.953125 72.359375 53.515625 70.515625 
z
" id="DejaVuSans-83"/>
     <path d="M 8.5 21.578125 
L 8.5 54.6875 
L 17.484375 54.6875 
L 17.484375 21.921875 
Q 17.484375 14.15625 20.5 10.265625 
Q 23.53125 6.390625 29.59375 6.390625 
Q 36.859375 6.390625 41.078125 11.03125 
Q 45.3125 15.671875 45.3125 23.6875 
L 45.3125 54.6875 
L 54.296875 54.6875 
L 54.296875 0 
L 45.3125 0 
L 45.3125 8.40625 
Q 42.046875 3.421875 37.71875 1 
Q 33.40625 -1.421875 27.6875 -1.421875 
Q 18.265625 -1.421875 13.375 4.4375 
Q 8.5 10.296875 8.5 21.578125 
z
M 31.109375 56 
z
" id="DejaVuSans-117"/>
     <path d="M 48.6875 27.296875 
Q 48.6875 37.203125 44.609375 42.84375 
Q 40.53125 48.484375 33.40625 48.484375 
Q 26.265625 48.484375 22.1875 42.84375 
Q 18.109375 37.203125 18.109375 27.296875 
Q 18.109375 17.390625 22.1875 11.75 
Q 26.265625 6.109375 33.40625 6.109375 
Q 40.53125 6.109375 44.609375 11.75 
Q 48.6875 17.390625 48.6875 27.296875 
z
M 18.109375 46.390625 
Q 20.953125 51.265625 25.265625 53.625 
Q 29.59375 56 35.59375 56 
Q 45.5625 56 51.78125 48.09375 
Q 58.015625 40.1875 58.015625 27.296875 
Q 58.015625 14.40625 51.78125 6.484375 
Q 45.5625 -1.421875 35.59375 -1.421875 
Q 29.59375 -1.421875 25.265625 0.953125 
Q 20.953125 3.328125 18.109375 8.203125 
L 18.109375 0 
L 9.078125 0 
L 9.078125 75.984375 
L 18.109375 75.984375 
z
" id="DejaVuSans-98"/>
     <path d="M 9.421875 54.6875 
L 18.40625 54.6875 
L 18.40625 -0.984375 
Q 18.40625 -11.421875 14.421875 -16.109375 
Q 10.453125 -20.796875 1.609375 -20.796875 
L -1.8125 -20.796875 
L -1.8125 -13.1875 
L 0.59375 -13.1875 
Q 5.71875 -13.1875 7.5625 -10.8125 
Q 9.421875 -8.453125 9.421875 -0.984375 
z
M 9.421875 75.984375 
L 18.40625 75.984375 
L 18.40625 64.59375 
L 9.421875 64.59375 
z
" id="DejaVuSans-106"/>
     <path d="M 56.203125 29.59375 
L 56.203125 25.203125 
L 14.890625 25.203125 
Q 15.484375 15.921875 20.484375 11.0625 
Q 25.484375 6.203125 34.421875 6.203125 
Q 39.59375 6.203125 44.453125 7.46875 
Q 49.3125 8.734375 54.109375 11.28125 
L 54.109375 2.78125 
Q 49.265625 0.734375 44.1875 -0.34375 
Q 39.109375 -1.421875 33.890625 -1.421875 
Q 20.796875 -1.421875 13.15625 6.1875 
Q 5.515625 13.8125 5.515625 26.8125 
Q 5.515625 40.234375 12.765625 48.109375 
Q 20.015625 56 32.328125 56 
Q 43.359375 56 49.78125 48.890625 
Q 56.203125 41.796875 56.203125 29.59375 
z
M 47.21875 32.234375 
Q 47.125 39.59375 43.09375 43.984375 
Q 39.0625 48.390625 32.421875 48.390625 
Q 24.90625 48.390625 20.390625 44.140625 
Q 15.875 39.890625 15.1875 32.171875 
z
" id="DejaVuSans-101"/>
     <path d="M 48.78125 52.59375 
L 48.78125 44.1875 
Q 44.96875 46.296875 41.140625 47.34375 
Q 37.3125 48.390625 33.40625 48.390625 
Q 24.65625 48.390625 19.8125 42.84375 
Q 14.984375 37.3125 14.984375 27.296875 
Q 14.984375 17.28125 19.8125 11.734375 
Q 24.65625 6.203125 33.40625 6.203125 
Q 37.3125 6.203125 41.140625 7.25 
Q 44.96875 8.296875 48.78125 10.40625 
L 48.78125 2.09375 
Q 45.015625 0.34375 40.984375 -0.53125 
Q 36.96875 -1.421875 32.421875 -1.421875 
Q 20.0625 -1.421875 12.78125 6.34375 
Q 5.515625 14.109375 5.515625 27.296875 
Q 5.515625 40.671875 12.859375 48.328125 
Q 20.21875 56 33.015625 56 
Q 37.15625 56 41.109375 55.140625 
Q 45.0625 54.296875 48.78125 52.59375 
z
" id="DejaVuSans-99"/>
     <path d="M 18.3125 70.21875 
L 18.3125 54.6875 
L 36.8125 54.6875 
L 36.8125 47.703125 
L 18.3125 47.703125 
L 18.3125 18.015625 
Q 18.3125 11.328125 20.140625 9.421875 
Q 21.96875 7.515625 27.59375 7.515625 
L 36.8125 7.515625 
L 36.8125 0 
L 27.59375 0 
Q 17.1875 0 13.234375 3.875 
Q 9.28125 7.765625 9.28125 18.015625 
L 9.28125 47.703125 
L 2.6875 47.703125 
L 2.6875 54.6875 
L 9.28125 54.6875 
L 9.28125 70.21875 
z
" id="DejaVuSans-116"/>
     <path d="M 11.71875 12.40625 
L 22.015625 12.40625 
L 22.015625 0 
L 11.71875 0 
z
M 11.71875 51.703125 
L 22.015625 51.703125 
L 22.015625 39.3125 
L 11.71875 39.3125 
z
" id="DejaVuSans-58"/>
     <path d="M 44.28125 53.078125 
L 44.28125 44.578125 
Q 40.484375 46.53125 36.375 47.5 
Q 32.28125 48.484375 27.875 48.484375 
Q 21.1875 48.484375 17.84375 46.4375 
Q 14.5 44.390625 14.5 40.28125 
Q 14.5 37.15625 16.890625 35.375 
Q 19.28125 33.59375 26.515625 31.984375 
L 29.59375 31.296875 
Q 39.15625 29.25 43.1875 25.515625 
Q 47.21875 21.78125 47.21875 15.09375 
Q 47.21875 7.46875 41.1875 3.015625 
Q 35.15625 -1.421875 24.609375 -1.421875 
Q 20.21875 -1.421875 15.453125 -0.5625 
Q 10.6875 0.296875 5.421875 2 
L 5.421875 11.28125 
Q 10.40625 8.6875 15.234375 7.390625 
Q 20.0625 6.109375 24.8125 6.109375 
Q 31.15625 6.109375 34.5625 8.28125 
Q 37.984375 10.453125 37.984375 14.40625 
Q 37.984375 18.0625 35.515625 20.015625 
Q 33.0625 21.96875 24.703125 23.78125 
L 21.578125 24.515625 
Q 13.234375 26.265625 9.515625 29.90625 
Q 5.8125 33.546875 5.8125 39.890625 
Q 5.8125 47.609375 11.28125 51.796875 
Q 16.75 56 26.8125 56 
Q 31.78125 56 36.171875 55.265625 
Q 40.578125 54.546875 44.28125 53.078125 
z
" id="DejaVuSans-115"/>
     <path d="M 8.203125 72.90625 
L 55.078125 72.90625 
L 55.078125 68.703125 
L 28.609375 0 
L 18.3125 0 
L 43.21875 64.59375 
L 8.203125 64.59375 
z
" id="DejaVuSans-55"/>
     <path d="M 11.71875 12.40625 
L 22.015625 12.40625 
L 22.015625 4 
L 14.015625 -11.625 
L 7.71875 -11.625 
L 11.71875 4 
z
" id="DejaVuSans-44"/>
     <path d="M 9.8125 72.90625 
L 19.671875 72.90625 
L 19.671875 42.09375 
L 52.390625 72.90625 
L 65.09375 72.90625 
L 28.90625 38.921875 
L 67.671875 0 
L 54.6875 0 
L 19.671875 35.109375 
L 19.671875 0 
L 9.8125 0 
z
" id="DejaVuSans-75"/>
     <path d="M 54.890625 33.015625 
L 54.890625 0 
L 45.90625 0 
L 45.90625 32.71875 
Q 45.90625 40.484375 42.875 44.328125 
Q 39.84375 48.1875 33.796875 48.1875 
Q 26.515625 48.1875 22.3125 43.546875 
Q 18.109375 38.921875 18.109375 30.90625 
L 18.109375 0 
L 9.078125 0 
L 9.078125 54.6875 
L 18.109375 54.6875 
L 18.109375 46.1875 
Q 21.34375 51.125 25.703125 53.5625 
Q 30.078125 56 35.796875 56 
Q 45.21875 56 50.046875 50.171875 
Q 54.890625 44.34375 54.890625 33.015625 
z
" id="DejaVuSans-110"/>
     <path d="M 30.609375 48.390625 
Q 23.390625 48.390625 19.1875 42.75 
Q 14.984375 37.109375 14.984375 27.296875 
Q 14.984375 17.484375 19.15625 11.84375 
Q 23.34375 6.203125 30.609375 6.203125 
Q 37.796875 6.203125 41.984375 11.859375 
Q 46.1875 17.53125 46.1875 27.296875 
Q 46.1875 37.015625 41.984375 42.703125 
Q 37.796875 48.390625 30.609375 48.390625 
z
M 30.609375 56 
Q 42.328125 56 49.015625 48.375 
Q 55.71875 40.765625 55.71875 27.296875 
Q 55.71875 13.875 49.015625 6.21875 
Q 42.328125 -1.421875 30.609375 -1.421875 
Q 18.84375 -1.421875 12.171875 6.21875 
Q 5.515625 13.875 5.515625 27.296875 
Q 5.515625 40.765625 12.171875 48.375 
Q 18.84375 56 30.609375 56 
z
" id="DejaVuSans-111"/>
     <path d="M 4.203125 54.6875 
L 13.1875 54.6875 
L 24.421875 12.015625 
L 35.59375 54.6875 
L 46.1875 54.6875 
L 57.421875 12.015625 
L 68.609375 54.6875 
L 77.59375 54.6875 
L 63.28125 0 
L 52.6875 0 
L 40.921875 44.828125 
L 29.109375 0 
L 18.5 0 
z
" id="DejaVuSans-119"/>
     <path d="M 10.59375 45.40625 
L 73.1875 45.40625 
L 73.1875 37.203125 
L 10.59375 37.203125 
z
M 10.59375 25.484375 
L 73.1875 25.484375 
L 73.1875 17.1875 
L 10.59375 17.1875 
z
" id="DejaVuSans-61"/>
     <path d="M 9.8125 72.90625 
L 51.703125 72.90625 
L 51.703125 64.59375 
L 19.671875 64.59375 
L 19.671875 43.109375 
L 48.578125 43.109375 
L 48.578125 34.8125 
L 19.671875 34.8125 
L 19.671875 0 
L 9.8125 0 
z
" id="DejaVuSans-70"/>
     <path d="M 34.28125 27.484375 
Q 23.390625 27.484375 19.1875 25 
Q 14.984375 22.515625 14.984375 16.5 
Q 14.984375 11.71875 18.140625 8.90625 
Q 21.296875 6.109375 26.703125 6.109375 
Q 34.1875 6.109375 38.703125 11.40625 
Q 43.21875 16.703125 43.21875 25.484375 
L 43.21875 27.484375 
z
M 52.203125 31.203125 
L 52.203125 0 
L 43.21875 0 
L 43.21875 8.296875 
Q 40.140625 3.328125 35.546875 0.953125 
Q 30.953125 -1.421875 24.3125 -1.421875 
Q 15.921875 -1.421875 10.953125 3.296875 
Q 6 8.015625 6 15.921875 
Q 6 25.140625 12.171875 29.828125 
Q 18.359375 34.515625 30.609375 34.515625 
L 43.21875 34.515625 
L 43.21875 35.40625 
Q 43.21875 41.609375 39.140625 45 
Q 35.0625 48.390625 27.6875 48.390625 
Q 23 48.390625 18.546875 47.265625 
Q 14.109375 46.140625 10.015625 43.890625 
L 10.015625 52.203125 
Q 14.9375 54.109375 19.578125 55.046875 
Q 24.21875 56 28.609375 56 
Q 40.484375 56 46.34375 49.84375 
Q 52.203125 43.703125 52.203125 31.203125 
z
" id="DejaVuSans-97"/>
     <path d="M 9.421875 75.984375 
L 18.40625 75.984375 
L 18.40625 0 
L 9.421875 0 
z
" id="DejaVuSans-108"/>
     <path d="M 19.671875 64.796875 
L 19.671875 8.109375 
L 31.59375 8.109375 
Q 46.6875 8.109375 53.6875 14.9375 
Q 60.6875 21.78125 60.6875 36.53125 
Q 60.6875 51.171875 53.6875 57.984375 
Q 46.6875 64.796875 31.59375 64.796875 
z
M 9.8125 72.90625 
L 30.078125 72.90625 
Q 51.265625 72.90625 61.171875 64.09375 
Q 71.09375 55.28125 71.09375 36.53125 
Q 71.09375 17.671875 61.125 8.828125 
Q 51.171875 0 30.078125 0 
L 9.8125 0 
z
" id="DejaVuSans-68"/>
     <path d="M 45.40625 27.984375 
Q 45.40625 37.75 41.375 43.109375 
Q 37.359375 48.484375 30.078125 48.484375 
Q 22.859375 48.484375 18.828125 43.109375 
Q 14.796875 37.75 14.796875 27.984375 
Q 14.796875 18.265625 18.828125 12.890625 
Q 22.859375 7.515625 30.078125 7.515625 
Q 37.359375 7.515625 41.375 12.890625 
Q 45.40625 18.265625 45.40625 27.984375 
z
M 54.390625 6.78125 
Q 54.390625 -7.171875 48.1875 -13.984375 
Q 42 -20.796875 29.203125 -20.796875 
Q 24.46875 -20.796875 20.265625 -20.09375 
Q 16.0625 -19.390625 12.109375 -17.921875 
L 12.109375 -9.1875 
Q 16.0625 -11.328125 19.921875 -12.34375 
Q 23.78125 -13.375 27.78125 -13.375 
Q 36.625 -13.375 41.015625 -8.765625 
Q 45.40625 -4.15625 45.40625 5.171875 
L 45.40625 9.625 
Q 42.625 4.78125 38.28125 2.390625 
Q 33.9375 0 27.875 0 
Q 17.828125 0 11.671875 7.65625 
Q 5.515625 15.328125 5.515625 27.984375 
Q 5.515625 40.671875 11.671875 48.328125 
Q 17.828125 56 27.875 56 
Q 33.9375 56 38.28125 53.609375 
Q 42.625 51.21875 45.40625 46.390625 
L 45.40625 54.6875 
L 54.390625 54.6875 
z
" id="DejaVuSans-103"/>
     <path d="M 41.109375 46.296875 
Q 39.59375 47.171875 37.8125 47.578125 
Q 36.03125 48 33.890625 48 
Q 26.265625 48 22.1875 43.046875 
Q 18.109375 38.09375 18.109375 28.8125 
L 18.109375 0 
L 9.078125 0 
L 9.078125 54.6875 
L 18.109375 54.6875 
L 18.109375 46.1875 
Q 20.953125 51.171875 25.484375 53.578125 
Q 30.03125 56 36.53125 56 
Q 37.453125 56 38.578125 55.875 
Q 39.703125 55.765625 41.0625 55.515625 
z
" id="DejaVuSans-114"/>
     <path d="M 9.421875 54.6875 
L 18.40625 54.6875 
L 18.40625 0 
L 9.421875 0 
z
M 9.421875 75.984375 
L 18.40625 75.984375 
L 18.40625 64.59375 
L 9.421875 64.59375 
z
" id="DejaVuSans-105"/>
     <path d="M 10.6875 12.40625 
L 21 12.40625 
L 21 0 
L 10.6875 0 
z
" id="DejaVuSans-46"/>
    </defs>
    <g transform="translate(49.741875 35.472)scale(0.12 -0.12)">
     <use xlink:href="#DejaVuSans-40"/>
     <use x="39.013672" xlink:href="#DejaVuSans-51"/>
     <use x="102.636719" xlink:href="#DejaVuSans-49"/>
     <use x="166.259766" xlink:href="#DejaVuSans-41"/>
     <use x="205.273438" xlink:href="#DejaVuSans-32"/>
     <use x="237.060547" xlink:href="#DejaVuSans-83"/>
     <use x="300.537109" xlink:href="#DejaVuSans-117"/>
     <use x="363.916016" xlink:href="#DejaVuSans-98"/>
     <use x="427.392578" xlink:href="#DejaVuSans-106"/>
     <use x="455.175781" xlink:href="#DejaVuSans-101"/>
     <use x="516.699219" xlink:href="#DejaVuSans-99"/>
     <use x="571.679688" xlink:href="#DejaVuSans-116"/>
     <use x="610.888672" xlink:href="#DejaVuSans-58"/>
     <use x="644.580078" xlink:href="#DejaVuSans-32"/>
     <use x="676.367188" xlink:href="#DejaVuSans-115"/>
     <use x="728.466797" xlink:href="#DejaVuSans-49"/>
     <use x="792.089844" xlink:href="#DejaVuSans-55"/>
     <use x="855.712891" xlink:href="#DejaVuSans-44"/>
     <use x="887.5" xlink:href="#DejaVuSans-32"/>
     <use x="919.287109" xlink:href="#DejaVuSans-75"/>
     <use x="984.863281" xlink:href="#DejaVuSans-110"/>
     <use x="1048.242188" xlink:href="#DejaVuSans-111"/>
     <use x="1109.423828" xlink:href="#DejaVuSans-119"/>
     <use x="1191.210938" xlink:href="#DejaVuSans-110"/>
     <use x="1254.589844" xlink:href="#DejaVuSans-32"/>
     <use x="1286.376953" xlink:href="#DejaVuSans-61"/>
     <use x="1370.166016" xlink:href="#DejaVuSans-32"/>
     <use x="1401.953125" xlink:href="#DejaVuSans-70"/>
     <use x="1459.332031" xlink:href="#DejaVuSans-97"/>
     <use x="1520.611328" xlink:href="#DejaVuSans-108"/>
     <use x="1548.394531" xlink:href="#DejaVuSans-115"/>
     <use x="1600.494141" xlink:href="#DejaVuSans-101"/>
     <use x="1662.017578" xlink:href="#DejaVuSans-44"/>
     <use x="1693.804688" xlink:href="#DejaVuSans-32"/>
     <use x="1725.591797" xlink:href="#DejaVuSans-68"/>
     <use x="1802.59375" xlink:href="#DejaVuSans-101"/>
     <use x="1864.117188" xlink:href="#DejaVuSans-103"/>
     <use x="1927.59375" xlink:href="#DejaVuSans-114"/>
     <use x="1968.675781" xlink:href="#DejaVuSans-101"/>
     <use x="2030.199219" xlink:href="#DejaVuSans-101"/>
     <use x="2091.722656" xlink:href="#DejaVuSans-32"/>
     <use x="2123.509766" xlink:href="#DejaVuSans-61"/>
     <use x="2207.298828" xlink:href="#DejaVuSans-32"/>
     <use x="2239.085938" xlink:href="#DejaVuSans-50"/>
     <use x="2302.708984" xlink:href="#DejaVuSans-44"/>
     <use x="2334.496094" xlink:href="#DejaVuSans-32"/>
     <use x="2366.283203" xlink:href="#DejaVuSans-68"/>
     <use x="2443.285156" xlink:href="#DejaVuSans-117"/>
     <use x="2506.664062" xlink:href="#DejaVuSans-114"/>
     <use x="2547.777344" xlink:href="#DejaVuSans-97"/>
     <use x="2609.056641" xlink:href="#DejaVuSans-116"/>
     <use x="2648.265625" xlink:href="#DejaVuSans-105"/>
     <use x="2676.048828" xlink:href="#DejaVuSans-111"/>
     <use x="2737.230469" xlink:href="#DejaVuSans-110"/>
     <use x="2800.609375" xlink:href="#DejaVuSans-32"/>
     <use x="2832.396484" xlink:href="#DejaVuSans-61"/>
     <use x="2916.185547" xlink:href="#DejaVuSans-32"/>
     <use x="2947.972656" xlink:href="#DejaVuSans-48"/>
     <use x="3011.595703" xlink:href="#DejaVuSans-46"/>
     <use x="3043.382812" xlink:href="#DejaVuSans-49"/>
    </g>
   </g>
  </g>
 </g>
 <defs>
  <clipPath id="p17bb7622f7">
   <rect height="266.112" width="357.12" x="57.6" y="41.472"/>
  </clipPath>
 </defs>
</svg>
