<?xml version="1.0" encoding="utf-8" standalone="no"?>
<!DOCTYPE svg PUBLIC "-//W3C//DTD SVG 1.1//EN"
  "http://www.w3.org/Graphics/SVG/1.1/DTD/svg11.dtd">
<!-- Created with matplotlib (https://matplotlib.org/) -->
<svg height="345.6pt" version="1.1" viewBox="0 0 460.8 345.6" width="460.8pt" xmlns="http://www.w3.org/2000/svg" xmlns:xlink="http://www.w3.org/1999/xlink">
 <defs>
  <style type="text/css">
*{stroke-linecap:butt;stroke-linejoin:round;}
  </style>
 </defs>
 <g id="figure_1">
  <g id="patch_1">
   <path d="M 0 345.6 
L 460.8 345.6 
L 460.8 0 
L 0 0 
z
" style="fill:#ffffff;"/>
  </g>
  <g id="axes_1">
   <g id="patch_2">
    <path d="M 57.6 307.584 
L 414.72 307.584 
L 414.72 41.472 
L 57.6 41.472 
z
" style="fill:#ffffff;"/>
   </g>
   <g id="line2d_1">
    <path clip-path="url(#p8538f0a400)" d="M 73.832727 295.488 
L 74.168755 295.160881 
L 74.619101 294.835549 
L 74.619101 294.998215 
L 74.729955 294.835549 
L 74.84081 294.835549 
L 74.619101 294.671095 
L 74.168755 294.508429 
L 74.283073 294.508429 
L 74.504782 294.508429 
L 74.619101 294.345763 
L 74.393928 293.691525 
L 74.393928 293.85419 
L 74.504782 293.691525 
L 74.504782 293.364405 
L 74.729955 293.201739 
L 74.729955 293.201739 
L 74.619101 292.87462 
L 74.504782 293.037286 
L 74.729955 293.85419 
L 74.619101 293.528859 
L 74.393928 293.691525 
L 74.0579 294.18131 
L 74.729955 293.201739 
L 74.619101 293.528859 
L 74.619101 293.691525 
L 74.619101 293.364405 
L 74.729955 293.364405 
L 74.955128 293.528859 
L 75.065983 292.711954 
L 75.065983 292.711954 
L 74.393928 293.528859 
L 74.393928 293.201739 
L 74.729955 293.037286 
L 74.955128 293.201739 
L 74.955128 293.364405 
L 74.729955 293.364405 
L 74.619101 293.201739 
L 74.619101 292.87462 
L 74.619101 292.87462 
L 74.393928 293.85419 
L 74.729955 292.87462 
L 74.729955 293.201739 
L 74.84081 293.201739 
L 75.291156 292.5475 
L 75.176837 292.222168 
L 74.84081 292.222168 
L 74.504782 292.5475 
L 74.504782 293.364405 
L 74.283073 293.364405 
L 74.393928 292.5475 
L 74.619101 292.711954 
L 74.955128 293.364405 
L 75.065983 293.364405 
L 74.955128 292.87462 
L 74.619101 292.222168 
L 74.0579 292.5475 
L 74.729955 292.5475 
L 74.955128 292.384834 
L 74.955128 292.384834 
L 74.619101 292.384834 
L 74.84081 291.895049 
L 74.84081 291.730596 
L 75.065983 291.56793 
L 75.065983 291.730596 
L 74.955128 291.730596 
L 74.84081 291.730596 
L 74.729955 291.24081 
L 74.619101 290.915478 
L 74.283073 291.078144 
L 74.0579 291.56793 
L 74.168755 291.730596 
L 74.504782 291.730596 
L 74.84081 290.915478 
L 74.729955 290.915478 
L 74.84081 291.405264 
L 75.176837 291.405264 
L 75.291156 291.078144 
L 74.955128 290.751025 
L 75.176837 290.423905 
L 75.40201 290.423905 
L 75.065983 290.751025 
L 75.627184 290.26124 
L 75.963211 290.098574 
L 75.963211 290.098574 
L 75.627184 289.771454 
L 75.852357 289.93412 
L 75.738038 290.26124 
L 75.40201 290.423905 
L 75.065983 290.423905 
L 74.955128 290.26124 
L 75.176837 290.26124 
L 75.176837 290.26124 
L 75.065983 289.93412 
L 75.176837 289.444335 
L 75.516329 289.281669 
L 75.627184 289.281669 
L 75.738038 289.607001 
L 75.516329 290.098574 
L 75.516329 290.26124 
L 75.291156 290.588359 
L 75.291156 290.423905 
L 75.291156 289.93412 
L 75.176837 289.444335 
L 75.627184 289.771454 
L 75.516329 289.607001 
L 75.627184 289.281669 
L 75.738038 289.444335 
L 75.852357 290.26124 
L 75.738038 289.607001 
L 75.738038 289.281669 
L 75.738038 290.098574 
L 75.627184 289.771454 
L 75.40201 290.751025 
L 75.627184 290.26124 
L 75.627184 290.751025 
L 75.738038 289.771454 
L 75.963211 289.771454 
L 76.074065 289.93412 
L 75.963211 290.588359 
L 76.074065 290.423905 
L 76.410093 290.098574 
L 76.299239 290.098574 
L 75.852357 290.423905 
L 75.963211 290.26124 
L 76.299239 290.588359 
L 76.299239 290.915478 
L 76.299239 290.423905 
L 76.074065 290.098574 
L 75.852357 290.26124 
L 75.852357 291.405264 
L 75.852357 291.24081 
L 76.188384 290.588359 
L 76.188384 290.751025 
L 76.188384 290.915478 
L 76.524412 291.078144 
L 76.971294 291.078144 
L 76.860439 291.078144 
L 76.524412 290.915478 
L 76.188384 290.26124 
L 76.410093 291.56793 
L 76.299239 291.24081 
L 76.410093 291.405264 
L 76.524412 291.405264 
L 76.410093 291.24081 
L 76.410093 291.24081 
L 76.635266 290.915478 
L 76.635266 290.915478 
L 76.74612 291.078144 
L 76.860439 290.915478 
L 76.74612 290.751025 
L 76.74612 290.915478 
L 76.299239 291.405264 
L 76.410093 291.405264 
L 76.74612 291.405264 
L 77.082148 291.078144 
L 77.418176 290.588359 
L 79.212632 289.281669 
L 82.351198 287.647859 
L 84.256509 286.830955 
L 98.598302 279.480599 
L 102.072896 277.357004 
L 105.883517 274.579171 
L 110.255339 272.29291 
L 114.84887 270.821766 
L 119.556719 270.169315 
L 124.600596 269.842196 
L 134.574031 269.842196 
L 139.278417 270.006649 
L 144.097121 269.842196 
L 149.251852 269.35241 
L 154.295729 269.025291 
L 159.339606 268.208386 
L 164.15831 266.73903 
L 174.131745 262.981626 
L 179.847677 261.022484 
L 185.338436 258.734436 
L 190.382313 256.448175 
L 195.537044 254.32458 
L 200.691776 252.528105 
L 205.846507 250.40451 
L 216.045116 245.340415 
L 220.974674 243.379486 
L 225.904232 241.583011 
L 230.612082 239.622082 
L 239.46658 235.37668 
L 251.45618 229.49568 
L 254.81992 227.861871 
L 258.069341 226.555181 
L 264.232155 224.594252 
L 269.386886 222.797776 
L 271.739079 222.307991 
L 273.980417 221.980872 
L 275.885727 221.491086 
L 277.344156 221.001301 
L 280.032376 221.001301 
L 280.032376 221.32842 
L 280.257549 221.653752 
L 280.482722 221.491086 
L 280.257549 221.32842 
L 279.810667 221.491086 
L 279.135148 221.491086 
L 279.135148 221.491086 
L 279.360321 221.163967 
L 280.032376 221.163967 
L 280.257549 221.001301 
L 280.368404 220.511516 
L 280.257549 219.857277 
L 280.593577 219.530157 
L 280.368404 219.367491 
L 280.146695 218.877706 
L 280.257549 218.550587 
L 280.81875 217.898135 
L 280.593577 217.733682 
L 280.368404 217.733682 
L 280.257549 217.406562 
L 280.368404 216.754111 
L 280.146695 215.937206 
L 280.482722 217.081231 
L 280.704431 217.406562 
L 280.81875 217.243896 
L 280.593577 216.754111 
L 280.482722 216.754111 
L 280.704431 216.916777 
L 280.929604 216.916777 
L 281.040459 216.591445 
L 280.929604 216.099872 
L 280.704431 216.099872 
L 280.929604 216.754111 
L 280.929604 216.426992 
L 280.81875 215.77454 
L 280.593577 215.610087 
L 280.482722 215.282968 
L 280.257549 215.120302 
L 280.704431 215.447421 
L 280.704431 215.447421 
L 280.704431 214.957636 
L 280.929604 215.120302 
L 281.154778 215.77454 
L 281.265632 215.447421 
L 281.154778 215.282968 
L 281.040459 215.447421 
L 281.040459 215.282968 
L 280.929604 214.630516 
L 280.81875 214.957636 
L 280.593577 214.957636 
L 280.704431 214.793182 
L 281.040459 215.120302 
L 281.040459 214.957636 
L 281.154778 214.630516 
L 281.040459 214.46785 
L 280.929604 215.120302 
L 281.040459 215.120302 
L 281.040459 214.957636 
L 280.704431 214.303397 
L 280.593577 213.976277 
L 280.593577 213.976277 
L 280.929604 213.976277 
L 280.929604 213.813611 
L 280.704431 213.813611 
L 280.482722 214.140731 
L 280.704431 213.976277 
L 281.376486 213.650946 
L 280.929604 213.813611 
L 280.929604 213.650946 
L 281.040459 213.650946 
L 281.154778 213.976277 
L 281.154778 213.976277 
L 281.376486 213.650946 
L 281.154778 212.996707 
L 281.376486 212.834041 
L 281.265632 212.996707 
L 281.154778 213.323826 
L 281.490805 212.506921 
L 281.826833 212.179802 
L 282.498888 211.852683 
L 283.50697 211.852683 
L 284.85108 211.362897 
L 288.21482 209.566422 
L 292.697496 208.097066 
L 294.938834 207.115707 
L 297.5162 206.298803 
L 300.429593 205.646351 
L 303.679014 205.319232 
L 313.316422 205.319232 
L 316.454988 204.992113 
L 319.815263 205.156566 
L 323.064684 205.646351 
L 326.20325 206.463256 
L 338.754051 208.586851 
L 341.55659 209.239302 
L 344.24481 209.729088 
L 346.936494 210.056207 
L 352.538108 210.383326 
L 355.229792 211.037565 
L 360.495378 212.669587 
L 365.314082 213.323826 
L 367.780593 213.813611 
L 370.132786 214.140731 
L 379.208993 216.916777 
L 381.339477 218.060801 
L 381.675504 218.550587 
L 381.900677 219.204825 
L 381.900677 220.02173 
L 381.786359 221.818206 
L 381.900677 221.980872 
L 381.900677 221.980872 
L 381.786359 222.470657 
L 381.228622 223.124896 
L 381.228622 224.26892 
L 381.450331 224.594252 
L 381.339477 224.594252 
L 381.56465 225.248491 
L 381.339477 226.065395 
L 381.339477 226.065395 
L 381.450331 226.390727 
L 381.450331 226.717847 
L 381.786359 226.228061 
L 381.56465 226.555181 
L 381.450331 227.044966 
L 381.56465 227.044966 
L 381.786359 226.8823 
L 381.900677 227.044966 
L 382.011532 227.861871 
L 381.675504 227.861871 
L 381.450331 228.024537 
L 381.339477 228.678776 
L 381.450331 228.678776 
L 381.56465 228.514322 
L 381.56465 228.18899 
L 381.56465 228.18899 
L 381.450331 228.18899 
L 381.339477 228.514322 
L 381.339477 229.331227 
L 381.786359 229.331227 
L 382.12585 229.168561 
L 382.12585 229.005895 
L 381.900677 229.005895 
L 381.900677 229.005895 
L 381.675504 229.168561 
L 381.675504 229.168561 
L 381.900677 229.331227 
L 381.786359 229.331227 
L 381.675504 229.49568 
L 381.786359 229.331227 
L 382.011532 229.49568 
L 382.347559 229.49568 
L 382.236705 229.658346 
L 382.011532 229.658346 
L 381.900677 229.331227 
L 381.900677 229.331227 
L 381.786359 229.8228 
L 381.900677 229.985466 
L 382.347559 229.985466 
L 382.347559 230.148132 
L 382.12585 230.148132 
L 381.786359 230.312585 
L 381.786359 230.148132 
L 382.347559 229.49568 
L 382.461878 229.658346 
L 382.236705 230.148132 
L 381.900677 230.312585 
L 381.56465 230.148132 
L 381.786359 229.985466 
L 382.12585 229.985466 
L 382.461878 230.148132 
L 382.461878 230.475251 
L 382.12585 230.475251 
L 381.900677 230.80237 
L 381.900677 231.12949 
L 382.12585 231.292156 
L 382.236705 231.12949 
L 382.12585 231.12949 
L 381.900677 231.292156 
L 382.011532 231.292156 
L 382.236705 230.80237 
L 382.12585 230.637917 
L 381.900677 230.80237 
L 382.011532 230.637917 
L 382.12585 230.80237 
L 382.011532 230.80237 
L 382.011532 230.965036 
L 381.900677 230.965036 
L 381.675504 231.292156 
L 382.011532 230.637917 
L 382.12585 230.965036 
L 382.12585 231.619275 
L 382.12585 231.454822 
L 381.900677 231.292156 
L 382.011532 230.80237 
L 382.12585 231.12949 
L 381.900677 231.454822 
L 382.236705 230.965036 
L 382.347559 231.12949 
L 382.12585 230.965036 
L 381.900677 230.80237 
L 382.011532 230.80237 
L 382.236705 230.80237 
L 381.900677 230.80237 
L 382.011532 230.80237 
L 382.347559 231.12949 
L 382.236705 231.292156 
L 382.011532 231.292156 
L 382.011532 231.12949 
L 382.347559 230.965036 
L 382.236705 230.80237 
L 382.236705 230.312585 
L 381.675504 230.148132 
L 381.900677 230.965036 
L 381.786359 231.12949 
L 381.675504 230.965036 
L 381.786359 230.312585 
L 381.786359 230.312585 
L 382.011532 230.475251 
L 382.011532 229.985466 
L 382.12585 229.985466 
L 382.347559 230.312585 
L 382.011532 230.637917 
L 381.900677 230.637917 
L 382.011532 230.637917 
L 382.461878 230.312585 
L 382.461878 230.312585 
L 382.236705 230.312585 
L 381.900677 229.658346 
L 382.236705 230.475251 
L 382.236705 230.475251 
L 382.12585 230.475251 
L 382.011532 230.312585 
L 382.011532 229.985466 
L 382.572732 229.8228 
L 381.786359 229.985466 
L 381.786359 229.658346 
L 382.236705 228.678776 
L 382.797905 228.351656 
L 382.90876 228.024537 
L 382.90876 224.758705 
L 382.12585 221.653752 
L 381.339477 220.02173 
L 379.995367 218.223467 
L 374.16858 211.200231 
L 372.26327 208.422398 
L 368.116621 200.582257 
L 366.100456 196.335067 
L 363.969972 192.252331 
L 359.151268 183.593498 
L 357.020784 179.510762 
L 354.779446 175.590691 
L 352.763281 171.506167 
L 350.85797 167.096312 
L 348.95266 162.194883 
L 346.936494 157.947693 
L 343.015019 150.760004 
L 336.84874 140.633602 
L 335.057748 137.365983 
L 331.021954 131.322318 
L 329.230962 127.892033 
L 325.531195 121.358583 
L 320.937664 111.067728 
L 319.032354 107.962775 
L 316.90187 104.859609 
L 315.110878 101.919109 
L 313.541595 98.815944 
L 310.964229 92.11804 
L 309.841828 89.667325 
L 308.050836 84.605018 
L 306.592407 79.868043 
L 306.031206 75.4564 
L 305.809498 73.332805 
L 305.920352 68.59583 
L 306.145525 68.59583 
L 306.592407 68.922949 
L 307.153608 68.59583 
L 307.489635 68.760284 
L 307.489635 69.739854 
L 307.60049 69.575401 
L 307.825663 69.412735 
L 307.825663 69.250069 
L 308.050836 69.085615 
L 308.386863 68.433164 
L 308.608572 68.268711 
L 308.050836 68.922949 
L 307.936517 68.922949 
L 308.16169 67.943379 
L 308.272545 67.616259 
L 308.16169 67.616259 
L 307.936517 67.126474 
L 308.272545 66.962021 
L 308.386863 67.126474 
L 308.272545 66.799355 
L 308.050836 65.819784 
L 308.16169 65.65533 
L 308.050836 65.98245 
L 307.936517 65.819784 
L 308.050836 65.328211 
L 308.272545 65.165545 
L 308.497718 65.165545 
L 308.272545 65.328211 
L 308.272545 65.492665 
L 307.936517 65.002879 
L 308.608572 65.002879 
L 308.722891 65.328211 
L 308.497718 65.98245 
L 308.272545 65.98245 
L 308.16169 65.819784 
L 308.272545 65.98245 
L 308.386863 65.328211 
L 308.272545 65.328211 
L 308.833745 65.65533 
L 308.833745 65.65533 
L 308.608572 65.819784 
L 308.722891 66.145116 
L 308.9446 66.309569 
L 309.058918 66.145116 
L 308.9446 65.98245 
L 308.9446 66.309569 
L 309.058918 66.472235 
L 309.280627 66.145116 
L 308.9446 66.636689 
L 309.058918 66.799355 
L 309.169773 66.636689 
L 309.169773 66.636689 
L 309.841828 67.451806 
L 309.841828 67.451806 
L 309.730973 67.126474 
L 309.394946 67.126474 
L 309.394946 67.28914 
L 309.730973 67.28914 
L 309.280627 67.451806 
L 309.5058 67.28914 
L 309.280627 67.126474 
L 308.9446 67.28914 
L 309.5058 66.962021 
L 309.5058 66.962021 
L 309.169773 66.636689 
L 308.9446 66.636689 
L 308.608572 66.962021 
L 308.497718 66.799355 
L 308.833745 66.472235 
L 309.058918 66.472235 
L 308.9446 66.799355 
L 308.722891 66.309569 
L 308.9446 65.98245 
L 308.9446 66.145116 
L 308.9446 66.962021 
L 309.058918 66.799355 
L 309.169773 66.309569 
L 308.9446 66.145116 
L 309.169773 66.309569 
L 309.169773 65.492665 
L 309.058918 65.492665 
L 308.833745 65.819784 
L 308.833745 65.819784 
L 308.722891 65.98245 
L 308.722891 65.98245 
L 308.608572 65.328211 
L 309.058918 65.328211 
L 309.169773 65.165545 
L 308.833745 64.838426 
L 308.722891 64.838426 
L 308.833745 65.165545 
L 308.833745 65.165545 
L 308.9446 64.838426 
L 308.833745 64.513094 
L 308.608572 64.513094 
L 308.497718 64.34864 
L 308.608572 64.185974 
L 308.497718 64.185974 
L 308.497718 64.021521 
L 308.386863 64.67576 
L 308.272545 64.34864 
L 308.272545 64.185974 
L 308.386863 64.185974 
L 308.386863 63.858855 
L 308.16169 64.021521 
L 308.272545 64.513094 
L 308.272545 63.36907 
L 308.272545 63.696189 
L 308.386863 63.696189 
L 308.386863 63.531736 
L 308.272545 63.531736 
L 308.16169 63.206404 
L 308.608572 62.552165 
L 308.497718 62.879284 
L 308.16169 64.021521 
L 308.386863 63.696189 
L 308.497718 63.04195 
L 308.16169 62.714831 
L 308.050836 62.714831 
L 308.050836 63.206404 
L 307.825663 63.531736 
L 308.050836 62.714831 
L 307.936517 62.714831 
L 307.825663 62.714831 
L 308.050836 62.879284 
L 308.497718 62.714831 
L 308.497718 62.552165 
L 308.050836 62.225045 
L 307.375317 62.225045 
L 307.153608 62.06238 
L 307.039289 61.73526 
L 306.592407 61.572594 
L 306.145525 61.73526 
L 305.47347 61.73526 
L 304.797951 62.06238 
L 304.125896 62.714831 
L 303.904187 63.206404 
L 303.568159 63.36907 
L 303.117813 63.858855 
L 302.334904 65.492665 
L 301.884558 66.799355 
L 301.437676 67.451806 
L 300.990794 67.778925 
L 299.979247 67.778925 
L 299.532365 67.616259 
L 299.307192 67.126474 
L 298.971164 66.799355 
L 298.073936 65.328211 
L 297.737909 64.67576 
L 297.065854 62.552165 
L 296.618972 60.755689 
L 295.946917 58.467641 
L 296.17209 57.652524 
L 296.954999 56.671166 
L 297.180172 56.671166 
L 297.065854 56.5085 
L 297.065854 55.854261 
L 296.844145 55.854261 
L 296.508117 55.528929 
L 296.508117 54.220451 
L 296.282944 53.568 
L 295.721744 55.20181 
L 295.049689 55.528929 
L 294.824516 56.18138 
L 294.602807 57.325404 
L 294.266779 58.467641 
L 293.59126 59.938785 
L 292.472323 63.531736 
L 292.025441 65.165545 
L 290.792185 68.760284 
L 290.230985 70.882091 
L 289.333757 73.170139 
L 287.317591 80.030709 
L 285.637454 84.440565 
L 284.179025 89.17754 
L 280.929604 97.67192 
L 279.810667 99.795514 
L 278.688266 102.573348 
L 277.680184 105.83918 
L 276.672101 108.617013 
L 274.430763 113.516654 
L 271.739079 119.397654 
L 270.730996 122.011034 
L 269.276032 126.42089 
L 268.489658 128.381819 
L 266.698666 131.974769 
L 262.552017 138.672674 
L 260.982734 142.430078 
L 258.85225 146.350148 
L 257.618994 148.311077 
L 254.81992 151.576909 
L 253.136318 153.210718 
L 251.681354 155.007194 
L 249.665188 158.437479 
L 248.542787 160.235742 
L 247.309532 161.705098 
L 246.301449 163.176241 
L 244.060111 167.586097 
L 242.605146 170.199477 
L 240.921545 172.650192 
L 240.24949 173.956882 
L 238.794525 178.039618 
L 238.458498 179.183642 
L 237.782978 182.941047 
L 237.561269 183.757951 
L 237.672124 186.044212 
L 237.897297 186.861117 
L 237.897297 188.330473 
L 237.561269 189.637163 
L 237.225242 190.945641 
L 237.225242 191.598092 
L 236.102841 194.701258 
L 235.766813 197.151972 
L 235.655959 197.314638 
L 235.655959 197.806211 
L 235.094758 199.602686 
L 235.094758 201.726281 
L 235.319931 202.0534 
L 235.319931 202.378732 
L 235.54164 204.339661 
L 235.205613 205.319232 
L 235.094758 205.646351 
L 234.758731 206.298803 
L 234.533558 206.790376 
L 234.647876 207.280161 
L 234.983904 207.932612 
L 234.869585 208.586851 
L 234.422703 209.076636 
L 234.19753 209.239302 
L 234.086676 209.566422 
L 234.086676 211.200231 
L 234.533558 211.200231 
L 234.086676 212.017136 
L 234.086676 212.179802 
L 234.533558 212.017136 
L 234.758731 212.179802 
L 234.422703 212.996707 
L 233.750648 213.323826 
L 233.639794 213.813611 
L 233.639794 214.140731 
L 233.414621 214.957636 
L 233.525475 215.120302 
L 233.750648 214.630516 
L 233.750648 214.630516 
L 233.861502 215.120302 
L 233.639794 215.77454 
L 233.639794 216.591445 
L 233.750648 216.591445 
L 233.861502 216.099872 
L 233.525475 216.426992 
L 233.189447 217.406562 
L 233.189447 217.733682 
L 233.414621 217.898135 
L 233.525475 217.571016 
L 233.525475 217.243896 
L 233.189447 217.243896 
L 232.85342 217.571016 
L 232.742565 217.898135 
L 233.078593 218.060801 
L 233.525475 218.060801 
L 233.414621 218.060801 
L 233.303766 218.550587 
L 233.639794 219.367491 
L 233.414621 219.367491 
L 233.189447 219.204825 
L 233.189447 219.204825 
L 233.078593 219.204825 
L 233.078593 218.877706 
L 233.303766 218.877706 
L 233.414621 219.694611 
L 233.750648 219.694611 
L 233.639794 220.511516 
L 233.639794 220.511516 
L 233.525475 220.347062 
L 233.189447 220.184396 
L 233.078593 220.347062 
L 233.303766 220.674181 
L 233.303766 220.674181 
L 233.861502 220.674181 
L 233.750648 220.674181 
L 233.414621 221.32842 
L 233.414621 221.491086 
L 233.303766 221.163967 
L 233.414621 221.491086 
L 232.85342 221.980872 
L 232.85342 221.818206 
L 233.414621 221.491086 
L 233.639794 221.491086 
L 233.414621 221.491086 
L 233.525475 221.32842 
L 234.086676 221.491086 
L 235.094758 221.491086 
L 236.438868 221.163967 
L 239.688289 219.040372 
L 241.482745 218.223467 
L 246.526622 217.081231 
L 249.440015 216.099872 
L 252.689436 214.793182 
L 256.16403 213.813611 
L 259.749478 213.16116 
L 263.445781 212.834041 
L 267.370721 212.344255 
L 276.000046 212.017136 
L 280.593577 212.017136 
L 285.076253 212.179802 
L 289.333757 212.179802 
L 303.006959 211.690017 
L 307.825663 211.362897 
L 312.755221 211.527351 
L 317.573925 211.852683 
L 327.100478 212.179802 
L 332.030037 212.506921 
L 336.963059 212.669587 
L 341.445735 213.16116 
L 350.185915 214.46785 
L 354.779446 214.630516 
L 371.591214 216.426992 
L 378.651257 217.081231 
L 384.814071 218.387921 
L 389.968802 218.71504 
L 392.099286 219.040372 
L 393.668569 219.694611 
L 395.795588 220.184396 
L 397.028844 222.145325 
L 398.151245 224.26892 
L 398.036927 224.758705 
L 397.700899 225.248491 
L 397.364872 225.411157 
L 397.254017 225.738276 
L 397.700899 226.228061 
L 397.926072 226.717847 
L 397.811753 227.044966 
L 397.139698 227.044966 
L 397.028844 227.372086 
L 397.475726 228.351656 
L 397.700899 228.841442 
L 397.700899 228.841442 
L 397.475726 229.168561 
L 397.590045 229.331227 
L 397.811753 229.168561 
L 397.811753 229.168561 
L 397.700899 229.658346 
L 397.811753 229.8228 
L 398.036927 229.331227 
L 397.926072 229.658346 
L 397.926072 230.312585 
L 397.700899 231.454822 
L 397.475726 231.292156 
L 397.475726 230.965036 
L 397.700899 230.965036 
L 398.2621 231.944607 
L 398.2621 231.944607 
L 397.364872 232.271727 
L 397.475726 232.109061 
L 397.811753 232.109061 
L 398.036927 232.43618 
L 398.036927 232.761512 
L 398.372954 232.925965 
L 398.487273 232.761512 
L 397.700899 233.74287 
L 397.811753 234.068202 
L 397.811753 234.068202 
L 397.254017 233.74287 
L 397.028844 233.905536 
L 397.364872 234.232655 
L 397.475726 234.232655 
L 397.364872 234.395321 
L 397.139698 234.395321 
L 397.254017 234.395321 
L 397.926072 234.722441 
L 397.926072 234.559775 
L 397.811753 234.559775 
L 397.254017 234.722441 
L 397.590045 234.232655 
L 397.700899 234.395321 
L 397.475726 235.04956 
L 397.364872 234.885107 
L 397.364872 234.885107 
L 397.700899 234.885107 
L 397.590045 234.885107 
L 397.475726 235.04956 
L 397.811753 234.559775 
L 397.700899 234.885107 
L 397.590045 235.37668 
L 397.590045 235.212226 
L 397.475726 235.212226 
L 397.364872 235.37668 
L 397.475726 235.702012 
L 397.926072 235.702012 
L 397.811753 235.539346 
L 397.139698 235.212226 
L 397.139698 235.539346 
L 397.364872 236.191797 
L 397.139698 235.702012 
L 397.254017 235.702012 
L 397.590045 236.029131 
L 397.926072 235.702012 
L 397.926072 235.702012 
L 397.926072 235.539346 
L 397.926072 235.702012 
L 397.811753 236.029131 
L 397.811753 236.029131 
" style="fill:none;stroke:#1f77b4;stroke-linecap:square;stroke-width:1.5;"/>
   </g>
   <g id="matplotlib.axis_1">
    <g id="xtick_1">
     <g id="line2d_2">
      <defs>
       <path d="M 0 0 
L 0 3.5 
" id="ma6b9dbf27f" style="stroke:#000000;stroke-width:0.8;"/>
      </defs>
      <g>
       <use style="stroke:#000000;stroke-width:0.8;" x="111.880049" xlink:href="#ma6b9dbf27f" y="307.584"/>
      </g>
     </g>
     <g id="text_1">
      <!-- −600 -->
      <defs>
       <path d="M 10.59375 35.5 
L 73.1875 35.5 
L 73.1875 27.203125 
L 10.59375 27.203125 
z
" id="DejaVuSans-8722"/>
       <path d="M 33.015625 40.375 
Q 26.375 40.375 22.484375 35.828125 
Q 18.609375 31.296875 18.609375 23.390625 
Q 18.609375 15.53125 22.484375 10.953125 
Q 26.375 6.390625 33.015625 6.390625 
Q 39.65625 6.390625 43.53125 10.953125 
Q 47.40625 15.53125 47.40625 23.390625 
Q 47.40625 31.296875 43.53125 35.828125 
Q 39.65625 40.375 33.015625 40.375 
z
M 52.59375 71.296875 
L 52.59375 62.3125 
Q 48.875 64.0625 45.09375 64.984375 
Q 41.3125 65.921875 37.59375 65.921875 
Q 27.828125 65.921875 22.671875 59.328125 
Q 17.53125 52.734375 16.796875 39.40625 
Q 19.671875 43.65625 24.015625 45.921875 
Q 28.375 48.1875 33.59375 48.1875 
Q 44.578125 48.1875 50.953125 41.515625 
Q 57.328125 34.859375 57.328125 23.390625 
Q 57.328125 12.15625 50.6875 5.359375 
Q 44.046875 -1.421875 33.015625 -1.421875 
Q 20.359375 -1.421875 13.671875 8.265625 
Q 6.984375 17.96875 6.984375 36.375 
Q 6.984375 53.65625 15.1875 63.9375 
Q 23.390625 74.21875 37.203125 74.21875 
Q 40.921875 74.21875 44.703125 73.484375 
Q 48.484375 72.75 52.59375 71.296875 
z
" id="DejaVuSans-54"/>
       <path d="M 31.78125 66.40625 
Q 24.171875 66.40625 20.328125 58.90625 
Q 16.5 51.421875 16.5 36.375 
Q 16.5 21.390625 20.328125 13.890625 
Q 24.171875 6.390625 31.78125 6.390625 
Q 39.453125 6.390625 43.28125 13.890625 
Q 47.125 21.390625 47.125 36.375 
Q 47.125 51.421875 43.28125 58.90625 
Q 39.453125 66.40625 31.78125 66.40625 
z
M 31.78125 74.21875 
Q 44.046875 74.21875 50.515625 64.515625 
Q 56.984375 54.828125 56.984375 36.375 
Q 56.984375 17.96875 50.515625 8.265625 
Q 44.046875 -1.421875 31.78125 -1.421875 
Q 19.53125 -1.421875 13.0625 8.265625 
Q 6.59375 17.96875 6.59375 36.375 
Q 6.59375 54.828125 13.0625 64.515625 
Q 19.53125 74.21875 31.78125 74.21875 
z
" id="DejaVuSans-48"/>
      </defs>
      <g transform="translate(98.146455 322.182437)scale(0.1 -0.1)">
       <use xlink:href="#DejaVuSans-8722"/>
       <use x="83.789062" xlink:href="#DejaVuSans-54"/>
       <use x="147.412109" xlink:href="#DejaVuSans-48"/>
       <use x="211.035156" xlink:href="#DejaVuSans-48"/>
      </g>
     </g>
    </g>
    <g id="xtick_2">
     <g id="line2d_3">
      <g>
       <use style="stroke:#000000;stroke-width:0.8;" x="181.164074" xlink:href="#ma6b9dbf27f" y="307.584"/>
      </g>
     </g>
     <g id="text_2">
      <!-- −400 -->
      <defs>
       <path d="M 37.796875 64.3125 
L 12.890625 25.390625 
L 37.796875 25.390625 
z
M 35.203125 72.90625 
L 47.609375 72.90625 
L 47.609375 25.390625 
L 58.015625 25.390625 
L 58.015625 17.1875 
L 47.609375 17.1875 
L 47.609375 0 
L 37.796875 0 
L 37.796875 17.1875 
L 4.890625 17.1875 
L 4.890625 26.703125 
z
" id="DejaVuSans-52"/>
      </defs>
      <g transform="translate(167.43048 322.182437)scale(0.1 -0.1)">
       <use xlink:href="#DejaVuSans-8722"/>
       <use x="83.789062" xlink:href="#DejaVuSans-52"/>
       <use x="147.412109" xlink:href="#DejaVuSans-48"/>
       <use x="211.035156" xlink:href="#DejaVuSans-48"/>
      </g>
     </g>
    </g>
    <g id="xtick_3">
     <g id="line2d_4">
      <g>
       <use style="stroke:#000000;stroke-width:0.8;" x="250.448098" xlink:href="#ma6b9dbf27f" y="307.584"/>
      </g>
     </g>
     <g id="text_3">
      <!-- −200 -->
      <defs>
       <path d="M 19.1875 8.296875 
L 53.609375 8.296875 
L 53.609375 0 
L 7.328125 0 
L 7.328125 8.296875 
Q 12.9375 14.109375 22.625 23.890625 
Q 32.328125 33.6875 34.8125 36.53125 
Q 39.546875 41.84375 41.421875 45.53125 
Q 43.3125 49.21875 43.3125 52.78125 
Q 43.3125 58.59375 39.234375 62.25 
Q 35.15625 65.921875 28.609375 65.921875 
Q 23.96875 65.921875 18.8125 64.3125 
Q 13.671875 62.703125 7.8125 59.421875 
L 7.8125 69.390625 
Q 13.765625 71.78125 18.9375 73 
Q 24.125 74.21875 28.421875 74.21875 
Q 39.75 74.21875 46.484375 68.546875 
Q 53.21875 62.890625 53.21875 53.421875 
Q 53.21875 48.921875 51.53125 44.890625 
Q 49.859375 40.875 45.40625 35.40625 
Q 44.1875 33.984375 37.640625 27.21875 
Q 31.109375 20.453125 19.1875 8.296875 
z
" id="DejaVuSans-50"/>
      </defs>
      <g transform="translate(236.714504 322.182437)scale(0.1 -0.1)">
       <use xlink:href="#DejaVuSans-8722"/>
       <use x="83.789062" xlink:href="#DejaVuSans-50"/>
       <use x="147.412109" xlink:href="#DejaVuSans-48"/>
       <use x="211.035156" xlink:href="#DejaVuSans-48"/>
      </g>
     </g>
    </g>
    <g id="xtick_4">
     <g id="line2d_5">
      <g>
       <use style="stroke:#000000;stroke-width:0.8;" x="319.732122" xlink:href="#ma6b9dbf27f" y="307.584"/>
      </g>
     </g>
     <g id="text_4">
      <!-- 0 -->
      <g transform="translate(316.550872 322.182437)scale(0.1 -0.1)">
       <use xlink:href="#DejaVuSans-48"/>
      </g>
     </g>
    </g>
    <g id="xtick_5">
     <g id="line2d_6">
      <g>
       <use style="stroke:#000000;stroke-width:0.8;" x="389.016147" xlink:href="#ma6b9dbf27f" y="307.584"/>
      </g>
     </g>
     <g id="text_5">
      <!-- 200 -->
      <g transform="translate(379.472397 322.182437)scale(0.1 -0.1)">
       <use xlink:href="#DejaVuSans-50"/>
       <use x="63.623047" xlink:href="#DejaVuSans-48"/>
       <use x="127.246094" xlink:href="#DejaVuSans-48"/>
      </g>
     </g>
    </g>
   </g>
   <g id="matplotlib.axis_2">
    <g id="ytick_1">
     <g id="line2d_7">
      <defs>
       <path d="M 0 0 
L -3.5 0 
" id="m98d0ebfc56" style="stroke:#000000;stroke-width:0.8;"/>
      </defs>
      <g>
       <use style="stroke:#000000;stroke-width:0.8;" x="57.6" xlink:href="#m98d0ebfc56" y="296.907305"/>
      </g>
     </g>
     <g id="text_6">
      <!-- −800 -->
      <defs>
       <path d="M 31.78125 34.625 
Q 24.75 34.625 20.71875 30.859375 
Q 16.703125 27.09375 16.703125 20.515625 
Q 16.703125 13.921875 20.71875 10.15625 
Q 24.75 6.390625 31.78125 6.390625 
Q 38.8125 6.390625 42.859375 10.171875 
Q 46.921875 13.96875 46.921875 20.515625 
Q 46.921875 27.09375 42.890625 30.859375 
Q 38.875 34.625 31.78125 34.625 
z
M 21.921875 38.8125 
Q 15.578125 40.375 12.03125 44.71875 
Q 8.5 49.078125 8.5 55.328125 
Q 8.5 64.0625 14.71875 69.140625 
Q 20.953125 74.21875 31.78125 74.21875 
Q 42.671875 74.21875 48.875 69.140625 
Q 55.078125 64.0625 55.078125 55.328125 
Q 55.078125 49.078125 51.53125 44.71875 
Q 48 40.375 41.703125 38.8125 
Q 48.828125 37.15625 52.796875 32.3125 
Q 56.78125 27.484375 56.78125 20.515625 
Q 56.78125 9.90625 50.3125 4.234375 
Q 43.84375 -1.421875 31.78125 -1.421875 
Q 19.734375 -1.421875 13.25 4.234375 
Q 6.78125 9.90625 6.78125 20.515625 
Q 6.78125 27.484375 10.78125 32.3125 
Q 14.796875 37.15625 21.921875 38.8125 
z
M 18.3125 54.390625 
Q 18.3125 48.734375 21.84375 45.5625 
Q 25.390625 42.390625 31.78125 42.390625 
Q 38.140625 42.390625 41.71875 45.5625 
Q 45.3125 48.734375 45.3125 54.390625 
Q 45.3125 60.0625 41.71875 63.234375 
Q 38.140625 66.40625 31.78125 66.40625 
Q 25.390625 66.40625 21.84375 63.234375 
Q 18.3125 60.0625 18.3125 54.390625 
z
" id="DejaVuSans-56"/>
      </defs>
      <g transform="translate(23.132812 300.706524)scale(0.1 -0.1)">
       <use xlink:href="#DejaVuSans-8722"/>
       <use x="83.789062" xlink:href="#DejaVuSans-56"/>
       <use x="147.412109" xlink:href="#DejaVuSans-48"/>
       <use x="211.035156" xlink:href="#DejaVuSans-48"/>
      </g>
     </g>
    </g>
    <g id="ytick_2">
     <g id="line2d_8">
      <g>
       <use style="stroke:#000000;stroke-width:0.8;" x="57.6" xlink:href="#m98d0ebfc56" y="261.156549"/>
      </g>
     </g>
     <g id="text_7">
      <!-- −600 -->
      <g transform="translate(23.132812 264.955768)scale(0.1 -0.1)">
       <use xlink:href="#DejaVuSans-8722"/>
       <use x="83.789062" xlink:href="#DejaVuSans-54"/>
       <use x="147.412109" xlink:href="#DejaVuSans-48"/>
       <use x="211.035156" xlink:href="#DejaVuSans-48"/>
      </g>
     </g>
    </g>
    <g id="ytick_3">
     <g id="line2d_9">
      <g>
       <use style="stroke:#000000;stroke-width:0.8;" x="57.6" xlink:href="#m98d0ebfc56" y="225.405794"/>
      </g>
     </g>
     <g id="text_8">
      <!-- −400 -->
      <g transform="translate(23.132812 229.205013)scale(0.1 -0.1)">
       <use xlink:href="#DejaVuSans-8722"/>
       <use x="83.789062" xlink:href="#DejaVuSans-52"/>
       <use x="147.412109" xlink:href="#DejaVuSans-48"/>
       <use x="211.035156" xlink:href="#DejaVuSans-48"/>
      </g>
     </g>
    </g>
    <g id="ytick_4">
     <g id="line2d_10">
      <g>
       <use style="stroke:#000000;stroke-width:0.8;" x="57.6" xlink:href="#m98d0ebfc56" y="189.655038"/>
      </g>
     </g>
     <g id="text_9">
      <!-- −200 -->
      <g transform="translate(23.132812 193.454257)scale(0.1 -0.1)">
       <use xlink:href="#DejaVuSans-8722"/>
       <use x="83.789062" xlink:href="#DejaVuSans-50"/>
       <use x="147.412109" xlink:href="#DejaVuSans-48"/>
       <use x="211.035156" xlink:href="#DejaVuSans-48"/>
      </g>
     </g>
    </g>
    <g id="ytick_5">
     <g id="line2d_11">
      <g>
       <use style="stroke:#000000;stroke-width:0.8;" x="57.6" xlink:href="#m98d0ebfc56" y="153.904283"/>
      </g>
     </g>
     <g id="text_10">
      <!-- 0 -->
      <g transform="translate(44.2375 157.703502)scale(0.1 -0.1)">
       <use xlink:href="#DejaVuSans-48"/>
      </g>
     </g>
    </g>
    <g id="ytick_6">
     <g id="line2d_12">
      <g>
       <use style="stroke:#000000;stroke-width:0.8;" x="57.6" xlink:href="#m98d0ebfc56" y="118.153527"/>
      </g>
     </g>
     <g id="text_11">
      <!-- 200 -->
      <g transform="translate(31.5125 121.952746)scale(0.1 -0.1)">
       <use xlink:href="#DejaVuSans-50"/>
       <use x="63.623047" xlink:href="#DejaVuSans-48"/>
       <use x="127.246094" xlink:href="#DejaVuSans-48"/>
      </g>
     </g>
    </g>
    <g id="ytick_7">
     <g id="line2d_13">
      <g>
       <use style="stroke:#000000;stroke-width:0.8;" x="57.6" xlink:href="#m98d0ebfc56" y="82.402772"/>
      </g>
     </g>
     <g id="text_12">
      <!-- 400 -->
      <g transform="translate(31.5125 86.201991)scale(0.1 -0.1)">
       <use xlink:href="#DejaVuSans-52"/>
       <use x="63.623047" xlink:href="#DejaVuSans-48"/>
       <use x="127.246094" xlink:href="#DejaVuSans-48"/>
      </g>
     </g>
    </g>
    <g id="ytick_8">
     <g id="line2d_14">
      <g>
       <use style="stroke:#000000;stroke-width:0.8;" x="57.6" xlink:href="#m98d0ebfc56" y="46.652016"/>
      </g>
     </g>
     <g id="text_13">
      <!-- 600 -->
      <g transform="translate(31.5125 50.451235)scale(0.1 -0.1)">
       <use xlink:href="#DejaVuSans-54"/>
       <use x="63.623047" xlink:href="#DejaVuSans-48"/>
       <use x="127.246094" xlink:href="#DejaVuSans-48"/>
      </g>
     </g>
    </g>
   </g>
   <g id="line2d_15">
    <path clip-path="url(#p8538f0a400)" d="M 77.235396 290.746364 
L 278.329393 217.338986 
L 375.399011 223.111914 
L 381.144036 228.035699 
L 308.818832 68.513957 
L 300.879138 64.481243 
L 235.762071 200.907554 
L 393.355028 229.169909 
" style="fill:none;stroke:#ff0000;stroke-linecap:square;stroke-width:0.5;"/>
   </g>
   <g id="patch_3">
    <path d="M 57.6 307.584 
L 57.6 41.472 
" style="fill:none;stroke:#000000;stroke-linecap:square;stroke-linejoin:miter;stroke-width:0.8;"/>
   </g>
   <g id="patch_4">
    <path d="M 414.72 307.584 
L 414.72 41.472 
" style="fill:none;stroke:#000000;stroke-linecap:square;stroke-linejoin:miter;stroke-width:0.8;"/>
   </g>
   <g id="patch_5">
    <path d="M 57.6 307.584 
L 414.72 307.584 
" style="fill:none;stroke:#000000;stroke-linecap:square;stroke-linejoin:miter;stroke-width:0.8;"/>
   </g>
   <g id="patch_6">
    <path d="M 57.6 41.472 
L 414.72 41.472 
" style="fill:none;stroke:#000000;stroke-linecap:square;stroke-linejoin:miter;stroke-width:0.8;"/>
   </g>
   <g id="PathCollection_1">
    <defs>
     <path d="M 0 2.738613 
C 0.726289 2.738613 1.422928 2.450055 1.936492 1.936492 
C 2.450055 1.422928 2.738613 0.726289 2.738613 0 
C 2.738613 -0.726289 2.450055 -1.422928 1.936492 -1.936492 
C 1.422928 -2.450055 0.726289 -2.738613 0 -2.738613 
C -0.726289 -2.738613 -1.422928 -2.450055 -1.936492 -1.936492 
C -2.450055 -1.422928 -2.738613 -0.726289 -2.738613 0 
C -2.738613 0.726289 -2.450055 1.422928 -1.936492 1.936492 
C -1.422928 2.450055 -0.726289 2.738613 0 2.738613 
z
" id="md58eb464d8" style="stroke:#ff0000;"/>
    </defs>
    <g clip-path="url(#p8538f0a400)">
     <use style="fill:#ff0000;stroke:#ff0000;" x="77.235396" xlink:href="#md58eb464d8" y="290.746364"/>
     <use style="fill:#ff0000;stroke:#ff0000;" x="278.329393" xlink:href="#md58eb464d8" y="217.338986"/>
     <use style="fill:#ff0000;stroke:#ff0000;" x="375.399011" xlink:href="#md58eb464d8" y="223.111914"/>
     <use style="fill:#ff0000;stroke:#ff0000;" x="381.144036" xlink:href="#md58eb464d8" y="228.035699"/>
     <use style="fill:#ff0000;stroke:#ff0000;" x="308.818832" xlink:href="#md58eb464d8" y="68.513957"/>
     <use style="fill:#ff0000;stroke:#ff0000;" x="300.879138" xlink:href="#md58eb464d8" y="64.481243"/>
     <use style="fill:#ff0000;stroke:#ff0000;" x="235.762071" xlink:href="#md58eb464d8" y="200.907554"/>
     <use style="fill:#ff0000;stroke:#ff0000;" x="393.355028" xlink:href="#md58eb464d8" y="229.169909"/>
    </g>
   </g>
   <g id="text_14">
    <!-- (36) Subject: s27, Known = False, Degree = 2, Duration = 0.1 -->
    <defs>
     <path d="M 31 75.875 
Q 24.46875 64.65625 21.28125 53.65625 
Q 18.109375 42.671875 18.109375 31.390625 
Q 18.109375 20.125 21.3125 9.0625 
Q 24.515625 -2 31 -13.1875 
L 23.1875 -13.1875 
Q 15.875 -1.703125 12.234375 9.375 
Q 8.59375 20.453125 8.59375 31.390625 
Q 8.59375 42.28125 12.203125 53.3125 
Q 15.828125 64.359375 23.1875 75.875 
z
" id="DejaVuSans-40"/>
     <path d="M 40.578125 39.3125 
Q 47.65625 37.796875 51.625 33 
Q 55.609375 28.21875 55.609375 21.1875 
Q 55.609375 10.40625 48.1875 4.484375 
Q 40.765625 -1.421875 27.09375 -1.421875 
Q 22.515625 -1.421875 17.65625 -0.515625 
Q 12.796875 0.390625 7.625 2.203125 
L 7.625 11.71875 
Q 11.71875 9.328125 16.59375 8.109375 
Q 21.484375 6.890625 26.8125 6.890625 
Q 36.078125 6.890625 40.9375 10.546875 
Q 45.796875 14.203125 45.796875 21.1875 
Q 45.796875 27.640625 41.28125 31.265625 
Q 36.765625 34.90625 28.71875 34.90625 
L 20.21875 34.90625 
L 20.21875 43.015625 
L 29.109375 43.015625 
Q 36.375 43.015625 40.234375 45.921875 
Q 44.09375 48.828125 44.09375 54.296875 
Q 44.09375 59.90625 40.109375 62.90625 
Q 36.140625 65.921875 28.71875 65.921875 
Q 24.65625 65.921875 20.015625 65.03125 
Q 15.375 64.15625 9.8125 62.3125 
L 9.8125 71.09375 
Q 15.4375 72.65625 20.34375 73.4375 
Q 25.25 74.21875 29.59375 74.21875 
Q 40.828125 74.21875 47.359375 69.109375 
Q 53.90625 64.015625 53.90625 55.328125 
Q 53.90625 49.265625 50.4375 45.09375 
Q 46.96875 40.921875 40.578125 39.3125 
z
" id="DejaVuSans-51"/>
     <path d="M 8.015625 75.875 
L 15.828125 75.875 
Q 23.140625 64.359375 26.78125 53.3125 
Q 30.421875 42.28125 30.421875 31.390625 
Q 30.421875 20.453125 26.78125 9.375 
Q 23.140625 -1.703125 15.828125 -13.1875 
L 8.015625 -13.1875 
Q 14.5 -2 17.703125 9.0625 
Q 20.90625 20.125 20.90625 31.390625 
Q 20.90625 42.671875 17.703125 53.65625 
Q 14.5 64.65625 8.015625 75.875 
z
" id="DejaVuSans-41"/>
     <path id="DejaVuSans-32"/>
     <path d="M 53.515625 70.515625 
L 53.515625 60.890625 
Q 47.90625 63.578125 42.921875 64.890625 
Q 37.9375 66.21875 33.296875 66.21875 
Q 25.25 66.21875 20.875 63.09375 
Q 16.5 59.96875 16.5 54.203125 
Q 16.5 49.359375 19.40625 46.890625 
Q 22.3125 44.4375 30.421875 42.921875 
L 36.375 41.703125 
Q 47.40625 39.59375 52.65625 34.296875 
Q 57.90625 29 57.90625 20.125 
Q 57.90625 9.515625 50.796875 4.046875 
Q 43.703125 -1.421875 29.984375 -1.421875 
Q 24.8125 -1.421875 18.96875 -0.25 
Q 13.140625 0.921875 6.890625 3.21875 
L 6.890625 13.375 
Q 12.890625 10.015625 18.65625 8.296875 
Q 24.421875 6.59375 29.984375 6.59375 
Q 38.421875 6.59375 43.015625 9.90625 
Q 47.609375 13.234375 47.609375 19.390625 
Q 47.609375 24.75 44.3125 27.78125 
Q 41.015625 30.8125 33.5 32.328125 
L 27.484375 33.5 
Q 16.453125 35.6875 11.515625 40.375 
Q 6.59375 45.0625 6.59375 53.421875 
Q 6.59375 63.09375 13.40625 68.65625 
Q 20.21875 74.21875 32.171875 74.21875 
Q 37.3125 74.21875 42.625 73.28125 
Q 47.953125 72.359375 53.515625 70.515625 
z
" id="DejaVuSans-83"/>
     <path d="M 8.5 21.578125 
L 8.5 54.6875 
L 17.484375 54.6875 
L 17.484375 21.921875 
Q 17.484375 14.15625 20.5 10.265625 
Q 23.53125 6.390625 29.59375 6.390625 
Q 36.859375 6.390625 41.078125 11.03125 
Q 45.3125 15.671875 45.3125 23.6875 
L 45.3125 54.6875 
L 54.296875 54.6875 
L 54.296875 0 
L 45.3125 0 
L 45.3125 8.40625 
Q 42.046875 3.421875 37.71875 1 
Q 33.40625 -1.421875 27.6875 -1.421875 
Q 18.265625 -1.421875 13.375 4.4375 
Q 8.5 10.296875 8.5 21.578125 
z
M 31.109375 56 
z
" id="DejaVuSans-117"/>
     <path d="M 48.6875 27.296875 
Q 48.6875 37.203125 44.609375 42.84375 
Q 40.53125 48.484375 33.40625 48.484375 
Q 26.265625 48.484375 22.1875 42.84375 
Q 18.109375 37.203125 18.109375 27.296875 
Q 18.109375 17.390625 22.1875 11.75 
Q 26.265625 6.109375 33.40625 6.109375 
Q 40.53125 6.109375 44.609375 11.75 
Q 48.6875 17.390625 48.6875 27.296875 
z
M 18.109375 46.390625 
Q 20.953125 51.265625 25.265625 53.625 
Q 29.59375 56 35.59375 56 
Q 45.5625 56 51.78125 48.09375 
Q 58.015625 40.1875 58.015625 27.296875 
Q 58.015625 14.40625 51.78125 6.484375 
Q 45.5625 -1.421875 35.59375 -1.421875 
Q 29.59375 -1.421875 25.265625 0.953125 
Q 20.953125 3.328125 18.109375 8.203125 
L 18.109375 0 
L 9.078125 0 
L 9.078125 75.984375 
L 18.109375 75.984375 
z
" id="DejaVuSans-98"/>
     <path d="M 9.421875 54.6875 
L 18.40625 54.6875 
L 18.40625 -0.984375 
Q 18.40625 -11.421875 14.421875 -16.109375 
Q 10.453125 -20.796875 1.609375 -20.796875 
L -1.8125 -20.796875 
L -1.8125 -13.1875 
L 0.59375 -13.1875 
Q 5.71875 -13.1875 7.5625 -10.8125 
Q 9.421875 -8.453125 9.421875 -0.984375 
z
M 9.421875 75.984375 
L 18.40625 75.984375 
L 18.40625 64.59375 
L 9.421875 64.59375 
z
" id="DejaVuSans-106"/>
     <path d="M 56.203125 29.59375 
L 56.203125 25.203125 
L 14.890625 25.203125 
Q 15.484375 15.921875 20.484375 11.0625 
Q 25.484375 6.203125 34.421875 6.203125 
Q 39.59375 6.203125 44.453125 7.46875 
Q 49.3125 8.734375 54.109375 11.28125 
L 54.109375 2.78125 
Q 49.265625 0.734375 44.1875 -0.34375 
Q 39.109375 -1.421875 33.890625 -1.421875 
Q 20.796875 -1.421875 13.15625 6.1875 
Q 5.515625 13.8125 5.515625 26.8125 
Q 5.515625 40.234375 12.765625 48.109375 
Q 20.015625 56 32.328125 56 
Q 43.359375 56 49.78125 48.890625 
Q 56.203125 41.796875 56.203125 29.59375 
z
M 47.21875 32.234375 
Q 47.125 39.59375 43.09375 43.984375 
Q 39.0625 48.390625 32.421875 48.390625 
Q 24.90625 48.390625 20.390625 44.140625 
Q 15.875 39.890625 15.1875 32.171875 
z
" id="DejaVuSans-101"/>
     <path d="M 48.78125 52.59375 
L 48.78125 44.1875 
Q 44.96875 46.296875 41.140625 47.34375 
Q 37.3125 48.390625 33.40625 48.390625 
Q 24.65625 48.390625 19.8125 42.84375 
Q 14.984375 37.3125 14.984375 27.296875 
Q 14.984375 17.28125 19.8125 11.734375 
Q 24.65625 6.203125 33.40625 6.203125 
Q 37.3125 6.203125 41.140625 7.25 
Q 44.96875 8.296875 48.78125 10.40625 
L 48.78125 2.09375 
Q 45.015625 0.34375 40.984375 -0.53125 
Q 36.96875 -1.421875 32.421875 -1.421875 
Q 20.0625 -1.421875 12.78125 6.34375 
Q 5.515625 14.109375 5.515625 27.296875 
Q 5.515625 40.671875 12.859375 48.328125 
Q 20.21875 56 33.015625 56 
Q 37.15625 56 41.109375 55.140625 
Q 45.0625 54.296875 48.78125 52.59375 
z
" id="DejaVuSans-99"/>
     <path d="M 18.3125 70.21875 
L 18.3125 54.6875 
L 36.8125 54.6875 
L 36.8125 47.703125 
L 18.3125 47.703125 
L 18.3125 18.015625 
Q 18.3125 11.328125 20.140625 9.421875 
Q 21.96875 7.515625 27.59375 7.515625 
L 36.8125 7.515625 
L 36.8125 0 
L 27.59375 0 
Q 17.1875 0 13.234375 3.875 
Q 9.28125 7.765625 9.28125 18.015625 
L 9.28125 47.703125 
L 2.6875 47.703125 
L 2.6875 54.6875 
L 9.28125 54.6875 
L 9.28125 70.21875 
z
" id="DejaVuSans-116"/>
     <path d="M 11.71875 12.40625 
L 22.015625 12.40625 
L 22.015625 0 
L 11.71875 0 
z
M 11.71875 51.703125 
L 22.015625 51.703125 
L 22.015625 39.3125 
L 11.71875 39.3125 
z
" id="DejaVuSans-58"/>
     <path d="M 44.28125 53.078125 
L 44.28125 44.578125 
Q 40.484375 46.53125 36.375 47.5 
Q 32.28125 48.484375 27.875 48.484375 
Q 21.1875 48.484375 17.84375 46.4375 
Q 14.5 44.390625 14.5 40.28125 
Q 14.5 37.15625 16.890625 35.375 
Q 19.28125 33.59375 26.515625 31.984375 
L 29.59375 31.296875 
Q 39.15625 29.25 43.1875 25.515625 
Q 47.21875 21.78125 47.21875 15.09375 
Q 47.21875 7.46875 41.1875 3.015625 
Q 35.15625 -1.421875 24.609375 -1.421875 
Q 20.21875 -1.421875 15.453125 -0.5625 
Q 10.6875 0.296875 5.421875 2 
L 5.421875 11.28125 
Q 10.40625 8.6875 15.234375 7.390625 
Q 20.0625 6.109375 24.8125 6.109375 
Q 31.15625 6.109375 34.5625 8.28125 
Q 37.984375 10.453125 37.984375 14.40625 
Q 37.984375 18.0625 35.515625 20.015625 
Q 33.0625 21.96875 24.703125 23.78125 
L 21.578125 24.515625 
Q 13.234375 26.265625 9.515625 29.90625 
Q 5.8125 33.546875 5.8125 39.890625 
Q 5.8125 47.609375 11.28125 51.796875 
Q 16.75 56 26.8125 56 
Q 31.78125 56 36.171875 55.265625 
Q 40.578125 54.546875 44.28125 53.078125 
z
" id="DejaVuSans-115"/>
     <path d="M 8.203125 72.90625 
L 55.078125 72.90625 
L 55.078125 68.703125 
L 28.609375 0 
L 18.3125 0 
L 43.21875 64.59375 
L 8.203125 64.59375 
z
" id="DejaVuSans-55"/>
     <path d="M 11.71875 12.40625 
L 22.015625 12.40625 
L 22.015625 4 
L 14.015625 -11.625 
L 7.71875 -11.625 
L 11.71875 4 
z
" id="DejaVuSans-44"/>
     <path d="M 9.8125 72.90625 
L 19.671875 72.90625 
L 19.671875 42.09375 
L 52.390625 72.90625 
L 65.09375 72.90625 
L 28.90625 38.921875 
L 67.671875 0 
L 54.6875 0 
L 19.671875 35.109375 
L 19.671875 0 
L 9.8125 0 
z
" id="DejaVuSans-75"/>
     <path d="M 54.890625 33.015625 
L 54.890625 0 
L 45.90625 0 
L 45.90625 32.71875 
Q 45.90625 40.484375 42.875 44.328125 
Q 39.84375 48.1875 33.796875 48.1875 
Q 26.515625 48.1875 22.3125 43.546875 
Q 18.109375 38.921875 18.109375 30.90625 
L 18.109375 0 
L 9.078125 0 
L 9.078125 54.6875 
L 18.109375 54.6875 
L 18.109375 46.1875 
Q 21.34375 51.125 25.703125 53.5625 
Q 30.078125 56 35.796875 56 
Q 45.21875 56 50.046875 50.171875 
Q 54.890625 44.34375 54.890625 33.015625 
z
" id="DejaVuSans-110"/>
     <path d="M 30.609375 48.390625 
Q 23.390625 48.390625 19.1875 42.75 
Q 14.984375 37.109375 14.984375 27.296875 
Q 14.984375 17.484375 19.15625 11.84375 
Q 23.34375 6.203125 30.609375 6.203125 
Q 37.796875 6.203125 41.984375 11.859375 
Q 46.1875 17.53125 46.1875 27.296875 
Q 46.1875 37.015625 41.984375 42.703125 
Q 37.796875 48.390625 30.609375 48.390625 
z
M 30.609375 56 
Q 42.328125 56 49.015625 48.375 
Q 55.71875 40.765625 55.71875 27.296875 
Q 55.71875 13.875 49.015625 6.21875 
Q 42.328125 -1.421875 30.609375 -1.421875 
Q 18.84375 -1.421875 12.171875 6.21875 
Q 5.515625 13.875 5.515625 27.296875 
Q 5.515625 40.765625 12.171875 48.375 
Q 18.84375 56 30.609375 56 
z
" id="DejaVuSans-111"/>
     <path d="M 4.203125 54.6875 
L 13.1875 54.6875 
L 24.421875 12.015625 
L 35.59375 54.6875 
L 46.1875 54.6875 
L 57.421875 12.015625 
L 68.609375 54.6875 
L 77.59375 54.6875 
L 63.28125 0 
L 52.6875 0 
L 40.921875 44.828125 
L 29.109375 0 
L 18.5 0 
z
" id="DejaVuSans-119"/>
     <path d="M 10.59375 45.40625 
L 73.1875 45.40625 
L 73.1875 37.203125 
L 10.59375 37.203125 
z
M 10.59375 25.484375 
L 73.1875 25.484375 
L 73.1875 17.1875 
L 10.59375 17.1875 
z
" id="DejaVuSans-61"/>
     <path d="M 9.8125 72.90625 
L 51.703125 72.90625 
L 51.703125 64.59375 
L 19.671875 64.59375 
L 19.671875 43.109375 
L 48.578125 43.109375 
L 48.578125 34.8125 
L 19.671875 34.8125 
L 19.671875 0 
L 9.8125 0 
z
" id="DejaVuSans-70"/>
     <path d="M 34.28125 27.484375 
Q 23.390625 27.484375 19.1875 25 
Q 14.984375 22.515625 14.984375 16.5 
Q 14.984375 11.71875 18.140625 8.90625 
Q 21.296875 6.109375 26.703125 6.109375 
Q 34.1875 6.109375 38.703125 11.40625 
Q 43.21875 16.703125 43.21875 25.484375 
L 43.21875 27.484375 
z
M 52.203125 31.203125 
L 52.203125 0 
L 43.21875 0 
L 43.21875 8.296875 
Q 40.140625 3.328125 35.546875 0.953125 
Q 30.953125 -1.421875 24.3125 -1.421875 
Q 15.921875 -1.421875 10.953125 3.296875 
Q 6 8.015625 6 15.921875 
Q 6 25.140625 12.171875 29.828125 
Q 18.359375 34.515625 30.609375 34.515625 
L 43.21875 34.515625 
L 43.21875 35.40625 
Q 43.21875 41.609375 39.140625 45 
Q 35.0625 48.390625 27.6875 48.390625 
Q 23 48.390625 18.546875 47.265625 
Q 14.109375 46.140625 10.015625 43.890625 
L 10.015625 52.203125 
Q 14.9375 54.109375 19.578125 55.046875 
Q 24.21875 56 28.609375 56 
Q 40.484375 56 46.34375 49.84375 
Q 52.203125 43.703125 52.203125 31.203125 
z
" id="DejaVuSans-97"/>
     <path d="M 9.421875 75.984375 
L 18.40625 75.984375 
L 18.40625 0 
L 9.421875 0 
z
" id="DejaVuSans-108"/>
     <path d="M 19.671875 64.796875 
L 19.671875 8.109375 
L 31.59375 8.109375 
Q 46.6875 8.109375 53.6875 14.9375 
Q 60.6875 21.78125 60.6875 36.53125 
Q 60.6875 51.171875 53.6875 57.984375 
Q 46.6875 64.796875 31.59375 64.796875 
z
M 9.8125 72.90625 
L 30.078125 72.90625 
Q 51.265625 72.90625 61.171875 64.09375 
Q 71.09375 55.28125 71.09375 36.53125 
Q 71.09375 17.671875 61.125 8.828125 
Q 51.171875 0 30.078125 0 
L 9.8125 0 
z
" id="DejaVuSans-68"/>
     <path d="M 45.40625 27.984375 
Q 45.40625 37.75 41.375 43.109375 
Q 37.359375 48.484375 30.078125 48.484375 
Q 22.859375 48.484375 18.828125 43.109375 
Q 14.796875 37.75 14.796875 27.984375 
Q 14.796875 18.265625 18.828125 12.890625 
Q 22.859375 7.515625 30.078125 7.515625 
Q 37.359375 7.515625 41.375 12.890625 
Q 45.40625 18.265625 45.40625 27.984375 
z
M 54.390625 6.78125 
Q 54.390625 -7.171875 48.1875 -13.984375 
Q 42 -20.796875 29.203125 -20.796875 
Q 24.46875 -20.796875 20.265625 -20.09375 
Q 16.0625 -19.390625 12.109375 -17.921875 
L 12.109375 -9.1875 
Q 16.0625 -11.328125 19.921875 -12.34375 
Q 23.78125 -13.375 27.78125 -13.375 
Q 36.625 -13.375 41.015625 -8.765625 
Q 45.40625 -4.15625 45.40625 5.171875 
L 45.40625 9.625 
Q 42.625 4.78125 38.28125 2.390625 
Q 33.9375 0 27.875 0 
Q 17.828125 0 11.671875 7.65625 
Q 5.515625 15.328125 5.515625 27.984375 
Q 5.515625 40.671875 11.671875 48.328125 
Q 17.828125 56 27.875 56 
Q 33.9375 56 38.28125 53.609375 
Q 42.625 51.21875 45.40625 46.390625 
L 45.40625 54.6875 
L 54.390625 54.6875 
z
" id="DejaVuSans-103"/>
     <path d="M 41.109375 46.296875 
Q 39.59375 47.171875 37.8125 47.578125 
Q 36.03125 48 33.890625 48 
Q 26.265625 48 22.1875 43.046875 
Q 18.109375 38.09375 18.109375 28.8125 
L 18.109375 0 
L 9.078125 0 
L 9.078125 54.6875 
L 18.109375 54.6875 
L 18.109375 46.1875 
Q 20.953125 51.171875 25.484375 53.578125 
Q 30.03125 56 36.53125 56 
Q 37.453125 56 38.578125 55.875 
Q 39.703125 55.765625 41.0625 55.515625 
z
" id="DejaVuSans-114"/>
     <path d="M 9.421875 54.6875 
L 18.40625 54.6875 
L 18.40625 0 
L 9.421875 0 
z
M 9.421875 75.984375 
L 18.40625 75.984375 
L 18.40625 64.59375 
L 9.421875 64.59375 
z
" id="DejaVuSans-105"/>
     <path d="M 10.6875 12.40625 
L 21 12.40625 
L 21 0 
L 10.6875 0 
z
" id="DejaVuSans-46"/>
     <path d="M 12.40625 8.296875 
L 28.515625 8.296875 
L 28.515625 63.921875 
L 10.984375 60.40625 
L 10.984375 69.390625 
L 28.421875 72.90625 
L 38.28125 72.90625 
L 38.28125 8.296875 
L 54.390625 8.296875 
L 54.390625 0 
L 12.40625 0 
z
" id="DejaVuSans-49"/>
    </defs>
    <g transform="translate(49.741875 35.472)scale(0.12 -0.12)">
     <use xlink:href="#DejaVuSans-40"/>
     <use x="39.013672" xlink:href="#DejaVuSans-51"/>
     <use x="102.636719" xlink:href="#DejaVuSans-54"/>
     <use x="166.259766" xlink:href="#DejaVuSans-41"/>
     <use x="205.273438" xlink:href="#DejaVuSans-32"/>
     <use x="237.060547" xlink:href="#DejaVuSans-83"/>
     <use x="300.537109" xlink:href="#DejaVuSans-117"/>
     <use x="363.916016" xlink:href="#DejaVuSans-98"/>
     <use x="427.392578" xlink:href="#DejaVuSans-106"/>
     <use x="455.175781" xlink:href="#DejaVuSans-101"/>
     <use x="516.699219" xlink:href="#DejaVuSans-99"/>
     <use x="571.679688" xlink:href="#DejaVuSans-116"/>
     <use x="610.888672" xlink:href="#DejaVuSans-58"/>
     <use x="644.580078" xlink:href="#DejaVuSans-32"/>
     <use x="676.367188" xlink:href="#DejaVuSans-115"/>
     <use x="728.466797" xlink:href="#DejaVuSans-50"/>
     <use x="792.089844" xlink:href="#DejaVuSans-55"/>
     <use x="855.712891" xlink:href="#DejaVuSans-44"/>
     <use x="887.5" xlink:href="#DejaVuSans-32"/>
     <use x="919.287109" xlink:href="#DejaVuSans-75"/>
     <use x="984.863281" xlink:href="#DejaVuSans-110"/>
     <use x="1048.242188" xlink:href="#DejaVuSans-111"/>
     <use x="1109.423828" xlink:href="#DejaVuSans-119"/>
     <use x="1191.210938" xlink:href="#DejaVuSans-110"/>
     <use x="1254.589844" xlink:href="#DejaVuSans-32"/>
     <use x="1286.376953" xlink:href="#DejaVuSans-61"/>
     <use x="1370.166016" xlink:href="#DejaVuSans-32"/>
     <use x="1401.953125" xlink:href="#DejaVuSans-70"/>
     <use x="1459.332031" xlink:href="#DejaVuSans-97"/>
     <use x="1520.611328" xlink:href="#DejaVuSans-108"/>
     <use x="1548.394531" xlink:href="#DejaVuSans-115"/>
     <use x="1600.494141" xlink:href="#DejaVuSans-101"/>
     <use x="1662.017578" xlink:href="#DejaVuSans-44"/>
     <use x="1693.804688" xlink:href="#DejaVuSans-32"/>
     <use x="1725.591797" xlink:href="#DejaVuSans-68"/>
     <use x="1802.59375" xlink:href="#DejaVuSans-101"/>
     <use x="1864.117188" xlink:href="#DejaVuSans-103"/>
     <use x="1927.59375" xlink:href="#DejaVuSans-114"/>
     <use x="1968.675781" xlink:href="#DejaVuSans-101"/>
     <use x="2030.199219" xlink:href="#DejaVuSans-101"/>
     <use x="2091.722656" xlink:href="#DejaVuSans-32"/>
     <use x="2123.509766" xlink:href="#DejaVuSans-61"/>
     <use x="2207.298828" xlink:href="#DejaVuSans-32"/>
     <use x="2239.085938" xlink:href="#DejaVuSans-50"/>
     <use x="2302.708984" xlink:href="#DejaVuSans-44"/>
     <use x="2334.496094" xlink:href="#DejaVuSans-32"/>
     <use x="2366.283203" xlink:href="#DejaVuSans-68"/>
     <use x="2443.285156" xlink:href="#DejaVuSans-117"/>
     <use x="2506.664062" xlink:href="#DejaVuSans-114"/>
     <use x="2547.777344" xlink:href="#DejaVuSans-97"/>
     <use x="2609.056641" xlink:href="#DejaVuSans-116"/>
     <use x="2648.265625" xlink:href="#DejaVuSans-105"/>
     <use x="2676.048828" xlink:href="#DejaVuSans-111"/>
     <use x="2737.230469" xlink:href="#DejaVuSans-110"/>
     <use x="2800.609375" xlink:href="#DejaVuSans-32"/>
     <use x="2832.396484" xlink:href="#DejaVuSans-61"/>
     <use x="2916.185547" xlink:href="#DejaVuSans-32"/>
     <use x="2947.972656" xlink:href="#DejaVuSans-48"/>
     <use x="3011.595703" xlink:href="#DejaVuSans-46"/>
     <use x="3043.382812" xlink:href="#DejaVuSans-49"/>
    </g>
   </g>
  </g>
 </g>
 <defs>
  <clipPath id="p8538f0a400">
   <rect height="266.112" width="357.12" x="57.6" y="41.472"/>
  </clipPath>
 </defs>
</svg>
