<?xml version="1.0" encoding="utf-8" standalone="no"?>
<!DOCTYPE svg PUBLIC "-//W3C//DTD SVG 1.1//EN"
  "http://www.w3.org/Graphics/SVG/1.1/DTD/svg11.dtd">
<!-- Created with matplotlib (https://matplotlib.org/) -->
<svg height="345.6pt" version="1.1" viewBox="0 0 460.8 345.6" width="460.8pt" xmlns="http://www.w3.org/2000/svg" xmlns:xlink="http://www.w3.org/1999/xlink">
 <defs>
  <style type="text/css">
*{stroke-linecap:butt;stroke-linejoin:round;}
  </style>
 </defs>
 <g id="figure_1">
  <g id="patch_1">
   <path d="M 0 345.6 
L 460.8 345.6 
L 460.8 0 
L 0 0 
z
" style="fill:#ffffff;"/>
  </g>
  <g id="axes_1">
   <g id="patch_2">
    <path d="M 57.6 307.584 
L 414.72 307.584 
L 414.72 41.472 
L 57.6 41.472 
z
" style="fill:#ffffff;"/>
   </g>
   <g id="line2d_1">
    <path clip-path="url(#p266b03734c)" d="M 77.226492 206.059716 
L 77.226492 204.179808 
L 77.510084 204.179808 
L 77.510084 204.179808 
L 77.510084 206.059716 
L 77.226492 207.945391 
L 76.942899 207.005437 
L 77.226492 206.059716 
L 77.226492 205.119762 
L 77.510084 206.059716 
L 78.074154 207.005437 
L 78.357746 207.005437 
L 78.357746 206.059716 
L 78.357746 208.885346 
L 78.357746 208.885346 
L 77.510084 207.945391 
L 76.659306 207.945391 
L 76.095237 208.885346 
L 76.37883 210.771021 
L 78.638223 210.771021 
L 77.510084 210.771021 
L 76.659306 209.8253 
L 76.37883 207.945391 
L 76.37883 207.945391 
L 76.659306 207.945391 
L 76.659306 207.945391 
L 76.37883 209.8253 
L 76.942899 208.885346 
L 77.226492 208.885346 
L 77.790561 209.8253 
L 77.790561 211.710975 
L 77.790561 210.771021 
L 77.510084 208.885346 
L 76.659306 208.885346 
L 76.37883 210.771021 
L 76.942899 210.771021 
L 76.942899 216.416513 
L 78.074154 212.650929 
L 77.510084 213.590883 
L 76.942899 213.590883 
L 76.37883 211.710975 
L 76.659306 212.650929 
L 76.659306 209.8253 
L 76.37883 209.8253 
L 76.37883 211.710975 
L 76.659306 213.590883 
L 76.942899 213.590883 
L 77.226492 210.771021 
L 76.942899 208.885346 
L 76.659306 210.771021 
L 76.942899 212.650929 
L 77.510084 214.536604 
L 77.226492 215.476558 
L 77.510084 214.536604 
L 77.510084 212.650929 
L 77.510084 213.590883 
L 77.226492 213.590883 
L 76.659306 214.536604 
L 76.37883 212.650929 
L 76.095237 209.8253 
L 76.095237 207.945391 
L 76.095237 209.8253 
L 76.659306 210.771021 
L 76.37883 211.710975 
L 75.811644 212.650929 
L 75.811644 213.590883 
L 76.095237 214.536604 
L 76.942899 214.536604 
L 77.790561 213.590883 
L 78.357746 211.710975 
L 78.357746 211.710975 
L 78.357746 210.771021 
L 77.790561 210.771021 
L 76.942899 212.650929 
L 76.095237 213.590883 
L 76.095237 214.536604 
L 76.659306 215.476558 
L 77.226492 214.536604 
L 76.942899 212.650929 
L 76.37883 209.8253 
L 76.37883 212.650929 
L 76.095237 213.590883 
L 76.095237 212.650929 
L 76.659306 211.710975 
L 76.659306 210.771021 
L 75.528051 209.8253 
L 74.963982 209.8253 
L 75.247575 208.885346 
L 75.811644 207.945391 
L 75.247575 209.8253 
L 76.942899 209.8253 
L 76.942899 209.8253 
L 76.659306 208.885346 
L 76.095237 209.8253 
L 76.095237 210.771021 
L 76.37883 210.771021 
L 76.095237 210.771021 
L 75.528051 211.710975 
L 75.247575 212.650929 
L 75.247575 215.476558 
L 74.680389 215.476558 
L 74.680389 215.476558 
L 75.247575 214.536604 
L 76.37883 214.536604 
L 75.811644 212.650929 
L 76.942899 212.650929 
L 76.659306 215.476558 
L 76.095237 217.356467 
L 75.528051 217.356467 
L 75.811644 215.476558 
L 76.37883 212.650929 
L 76.37883 210.771021 
L 75.811644 209.8253 
L 75.528051 209.8253 
L 75.528051 210.771021 
L 74.963982 216.416513 
L 75.247575 215.476558 
L 75.811644 212.650929 
L 75.528051 212.650929 
L 75.247575 213.590883 
L 75.247575 214.536604 
L 75.528051 214.536604 
L 74.680389 214.536604 
L 74.963982 214.536604 
L 75.811644 213.590883 
L 76.37883 212.650929 
L 76.659306 212.650929 
L 76.942899 214.536604 
L 77.510084 215.476558 
L 76.942899 214.536604 
L 76.659306 212.650929 
L 76.659306 212.650929 
L 76.659306 214.536604 
L 76.095237 216.416513 
L 75.811644 215.476558 
L 75.811644 211.710975 
L 75.247575 211.710975 
L 75.247575 212.650929 
L 75.811644 214.536604 
L 76.095237 214.536604 
L 75.528051 214.536604 
L 75.528051 214.536604 
L 74.963982 216.416513 
L 74.963982 217.356467 
L 74.963982 216.416513 
L 74.680389 212.650929 
L 75.247575 212.650929 
L 76.095237 214.536604 
L 76.095237 216.416513 
L 74.396796 216.416513 
L 74.396796 214.536604 
L 74.680389 213.590883 
L 74.11632 213.590883 
L 73.832727 212.650929 
L 74.11632 211.710975 
L 74.396796 211.710975 
L 75.247575 209.8253 
L 75.811644 208.885346 
L 75.811644 210.771021 
L 75.247575 212.650929 
L 74.963982 212.650929 
L 75.247575 211.710975 
L 76.095237 211.710975 
L 76.095237 213.590883 
L 75.811644 214.536604 
L 75.811644 214.536604 
L 75.528051 214.536604 
L 74.963982 213.590883 
L 73.832727 213.590883 
L 74.11632 213.590883 
L 74.680389 212.650929 
L 74.963982 212.650929 
L 74.680389 213.590883 
L 74.396796 213.590883 
L 74.11632 214.536604 
L 74.396796 215.476558 
L 74.396796 210.771021 
L 74.11632 210.771021 
L 74.11632 211.710975 
L 74.963982 212.650929 
L 75.528051 215.476558 
L 75.528051 216.416513 
L 75.528051 214.536604 
L 75.811644 213.590883 
L 75.528051 213.590883 
L 75.247575 214.536604 
L 74.963982 214.536604 
L 74.680389 215.476558 
L 73.832727 215.476558 
L 73.832727 216.416513 
L 74.11632 217.356467 
L 74.396796 217.356467 
L 75.247575 216.416513 
L 76.37883 212.650929 
L 76.659306 210.771021 
L 77.510084 209.8253 
L 80.05307 207.945391 
L 85.709344 204.179808 
L 89.103109 201.354178 
L 99.848471 190.057428 
L 106.919593 181.586307 
L 113.423529 172.175231 
L 126.434517 149.58173 
L 133.786115 140.170654 
L 149.623682 121.342737 
L 157.822942 111.931661 
L 165.458133 103.46054 
L 172.812848 94.043698 
L 180.164446 85.572577 
L 187.799636 79.927085 
L 194.587165 76.161501 
L 201.091101 73.335872 
L 207.314561 69.570288 
L 212.687242 67.69038 
L 218.059923 64.864751 
L 223.99979 62.979076 
L 229.939657 62.039121 
L 234.46156 61.099167 
L 237.855324 59.219259 
L 241.249088 56.393629 
L 244.642853 55.453675 
L 248.036617 56.393629 
L 252.278044 56.393629 
L 256.238994 54.507954 
L 259.632758 53.568 
L 262.74293 54.507954 
L 264.721846 57.333584 
L 266.136694 58.273538 
L 267.267949 58.273538 
L 268.682796 57.333584 
L 270.094528 60.159213 
L 270.945306 64.864751 
L 271.509375 68.630334 
L 271.509375 71.455963 
L 270.945306 75.221547 
L 269.530458 78.04141 
L 268.399204 79.927085 
L 267.832018 81.806993 
L 267.551542 86.512531 
L 266.984356 92.163789 
L 265.569508 97.809281 
L 262.459337 106.280403 
L 261.895268 111.931661 
L 261.047606 117.577153 
L 260.196827 121.342737 
L 259.349165 123.228412 
L 257.934318 129.813858 
L 257.086656 131.699533 
L 254.824146 137.345025 
L 254.540553 137.345025 
L 255.107739 135.465117 
L 255.955401 135.465117 
L 255.391332 137.345025 
L 255.391332 138.284979 
L 255.955401 138.284979 
L 255.955401 137.345025 
L 254.824146 141.110609 
L 254.260077 142.050563 
L 253.976484 142.996284 
L 252.845229 143.936238 
L 251.713974 145.816146 
L 251.713974 151.467405 
L 251.997567 152.407359 
L 252.561636 151.467405 
L 252.845229 151.467405 
L 251.997567 154.287268 
L 251.146789 158.052851 
L 249.735058 158.052851 
L 249.167872 157.112897 
L 249.451465 158.998572 
L 249.451465 160.878481 
L 250.015534 161.818435 
L 250.866312 161.818435 
L 250.866312 160.878481 
L 250.299127 159.938526 
L 249.451465 160.878481 
L 248.603803 160.878481 
L 247.756141 161.818435 
L 247.188955 163.70411 
L 247.188955 165.584018 
L 247.472548 166.523973 
L 246.905362 171.235277 
L 247.188955 171.235277 
L 247.472548 172.175231 
L 247.188955 172.175231 
L 246.905362 173.115185 
L 246.0577 174.05514 
L 244.926446 175.00086 
L 244.362376 175.940815 
L 245.493631 175.940815 
L 245.774108 176.880769 
L 244.362376 176.880769 
L 244.362376 176.880769 
L 244.362376 177.820723 
L 244.642853 177.820723 
L 244.362376 177.820723 
L 243.511598 178.766444 
L 242.663936 180.646352 
L 242.099867 182.532027 
L 242.099867 184.411936 
L 242.947529 185.35189 
L 243.511598 184.411936 
L 243.511598 184.411936 
L 242.947529 187.237565 
L 242.380343 188.177519 
L 242.663936 187.237565 
L 242.663936 186.291844 
L 242.099867 187.237565 
L 241.532681 189.117474 
L 241.249088 191.003149 
L 241.249088 192.883057 
L 241.532681 194.768732 
L 241.816274 195.708686 
L 242.380343 193.823011 
L 242.099867 191.943103 
L 240.968612 192.883057 
L 240.401426 196.648641 
L 240.401426 199.47427 
L 240.685019 200.414224 
L 240.968612 199.47427 
L 240.968612 199.47427 
L 240.685019 199.47427 
L 240.968612 197.588595 
L 240.968612 196.648641 
L 240.685019 197.588595 
L 240.401426 200.414224 
L 240.685019 202.294133 
L 240.401426 203.239854 
L 240.117834 203.239854 
L 240.117834 202.294133 
L 240.685019 201.354178 
L 240.968612 199.47427 
L 240.401426 198.534316 
L 240.117834 199.47427 
L 240.117834 202.294133 
L 239.837357 204.179808 
L 239.553764 204.179808 
L 239.270172 205.119762 
L 238.986579 205.119762 
L 239.270172 203.239854 
L 239.270172 202.294133 
L 239.553764 202.294133 
L 239.837357 204.179808 
L 239.553764 206.059716 
L 238.706102 208.885346 
L 239.270172 205.119762 
L 238.986579 207.005437 
L 238.42251 209.8253 
L 238.138917 209.8253 
L 237.855324 207.945391 
L 237.574848 205.119762 
L 237.574848 206.059716 
L 237.291255 208.885346 
L 237.007662 209.8253 
L 237.574848 208.885346 
L 237.855324 207.945391 
L 237.291255 209.8253 
L 237.574848 210.771021 
L 237.855324 210.771021 
L 238.138917 209.8253 
L 238.42251 209.8253 
L 237.855324 208.885346 
L 236.16 207.005437 
L 234.46156 207.005437 
L 233.330305 204.179808 
L 232.19905 199.47427 
L 231.351388 196.648641 
L 230.220133 195.708686 
L 229.088878 193.823011 
L 225.978707 193.823011 
L 224.563859 195.708686 
L 221.170095 195.708686 
L 218.907585 196.648641 
L 216.645076 199.47427 
L 214.10209 203.239854 
L 211.83958 206.059716 
L 210.14114 206.059716 
L 208.445816 205.119762 
L 206.747375 206.059716 
L 205.335644 210.771021 
L 204.484866 215.476558 
L 203.353611 217.356467 
L 202.505949 218.302188 
L 202.505949 219.242142 
L 201.374694 223.007725 
L 200.810625 223.94768 
L 200.243439 223.007725 
L 199.395777 223.007725 
L 199.67937 224.887634 
L 200.243439 226.773309 
L 199.959846 228.653217 
L 199.67937 229.593172 
L 199.959846 230.538892 
L 200.810625 231.478847 
L 201.091101 232.418801 
L 200.527032 235.24443 
L 199.67937 238.064293 
L 199.67937 239.949968 
L 200.243439 239.949968 
L 200.527032 239.010014 
L 199.67937 240.889922 
L 198.548115 242.775597 
L 197.98093 244.655506 
L 197.41686 244.655506 
L 197.133268 245.59546 
L 197.41686 246.541181 
L 197.133268 247.481135 
L 196.285606 249.361043 
L 195.71842 249.361043 
L 194.870758 252.186673 
L 195.154351 250.306764 
L 195.71842 250.306764 
L 195.71842 255.952256 
L 195.71842 252.186673 
L 196.002013 252.186673 
L 196.002013 254.066581 
L 195.437944 256.892211 
L 194.306689 260.657794 
L 194.870758 258.777886 
L 195.71842 257.832165 
L 195.71842 255.952256 
L 195.437944 255.012302 
L 194.870758 255.012302 
L 194.587165 255.952256 
L 194.587165 259.71784 
L 194.306689 258.777886 
L 193.739503 257.832165 
L 193.739503 258.777886 
L 194.306689 258.777886 
L 195.154351 257.832165 
L 194.870758 256.892211 
L 193.739503 257.832165 
L 192.891841 258.777886 
L 192.324656 258.777886 
L 192.324656 258.777886 
L 192.891841 260.657794 
L 192.608248 260.657794 
L 191.760586 261.597748 
L 191.476994 263.483423 
L 191.193401 266.309053 
L 190.629332 266.309053 
L 191.193401 267.249007 
L 191.760586 266.309053 
L 191.760586 264.423378 
L 191.476994 264.423378 
L 190.912924 266.309053 
L 190.629332 266.309053 
L 190.345739 264.423378 
L 190.912924 264.423378 
L 191.760586 267.249007 
L 191.760586 265.363332 
L 191.193401 265.363332 
L 190.062146 267.249007 
L 190.345739 265.363332 
L 190.629332 262.543469 
L 191.476994 262.543469 
L 192.044179 263.483423 
L 191.760586 265.363332 
L 191.193401 267.249007 
L 190.912924 269.128915 
L 191.193401 268.188961 
L 191.193401 265.363332 
L 191.193401 265.363332 
L 190.912924 265.363332 
L 190.912924 263.483423 
L 190.629332 261.597748 
L 190.345739 262.543469 
L 189.78167 263.483423 
L 190.062146 264.423378 
L 190.912924 264.423378 
L 190.912924 266.309053 
L 190.912924 266.309053 
L 190.629332 266.309053 
L 190.629332 266.309053 
L 190.345739 264.423378 
L 190.345739 264.423378 
L 190.345739 266.309053 
L 190.062146 267.249007 
L 189.78167 267.249007 
L 190.062146 266.309053 
L 190.629332 266.309053 
L 190.345739 266.309053 
L 189.214484 265.363332 
L 188.650415 264.423378 
L 188.650415 264.423378 
L 188.930891 265.363332 
L 188.650415 267.249007 
L 188.650415 265.363332 
L 188.366822 264.423378 
L 188.366822 265.363332 
L 188.083229 266.309053 
L 188.366822 266.309053 
L 188.930891 265.363332 
L 189.214484 264.423378 
L 189.214484 265.363332 
L 189.78167 265.363332 
L 189.498077 264.423378 
L 188.366822 263.483423 
L 187.51916 262.543469 
L 187.51916 262.543469 
L 187.799636 263.483423 
L 187.799636 264.423378 
L 188.930891 264.423378 
L 188.930891 267.249007 
L 189.498077 265.363332 
L 189.78167 265.363332 
L 190.062146 266.309053 
L 190.629332 265.363332 
L 191.476994 262.543469 
L 192.044179 261.597748 
L 193.45591 261.597748 
L 196.285606 260.657794 
L 199.395777 257.832165 
L 201.94188 254.066581 
L 205.052051 250.306764 
L 209.293478 243.715551 
L 226.826369 219.242142 
L 233.330305 210.771021 
L 240.685019 202.294133 
L 249.167872 193.823011 
L 258.501503 187.237565 
L 268.399204 178.766444 
L 278.013311 168.409648 
L 286.779757 157.112897 
L 294.982133 145.816146 
L 303.464986 135.465117 
L 312.515024 124.168366 
L 321.28147 113.81157 
L 328.919777 105.340449 
L 336.271375 98.749236 
L 342.775311 93.103744 
L 348.715178 89.33816 
L 354.371452 85.572577 
L 359.744133 83.692668 
L 364.833222 82.746947 
L 373.319191 78.981364 
L 378.408279 75.221547 
L 383.500484 74.275826 
L 387.458318 74.275826 
L 393.114592 76.161501 
L 395.377101 75.221547 
L 396.791949 73.335872 
L 397.639611 74.275826 
L 398.20368 76.161501 
L 398.487273 79.927085 
L 398.20368 83.692668 
L 396.791949 85.572577 
L 395.377101 86.512531 
L 394.529439 87.458252 
L 394.245846 89.33816 
L 393.398184 91.223835 
L 390.284896 99.694957 
L 389.437234 104.400494 
L 389.437234 104.400494 
L 389.153642 103.46054 
L 389.153642 102.514819 
L 388.30598 105.340449 
L 387.74191 105.340449 
L 387.74191 105.340449 
L 388.022387 104.400494 
L 388.30598 102.514819 
L 389.153642 101.574865 
L 389.437234 100.634911 
L 389.720827 101.574865 
L 390.00442 103.46054 
L 390.00442 110.045986 
L 389.437234 109.106032 
L 388.873165 109.106032 
L 388.30598 110.045986 
L 388.30598 111.931661 
L 388.022387 112.871616 
L 386.327063 112.871616 
L 387.174725 112.871616 
L 387.174725 113.81157 
L 386.891132 115.697245 
L 386.610656 116.637199 
L 386.04347 115.697245 
L 385.195808 115.697245 
L 384.912215 116.637199 
L 384.912215 116.637199 
L 385.479401 117.577153 
L 385.195808 118.517108 
L 385.479401 117.577153 
L 385.479401 118.517108 
L 385.195808 119.462828 
L 384.912215 119.462828 
L 385.479401 119.462828 
L 386.04347 120.402783 
L 385.759877 120.402783 
L 385.195808 121.342737 
L 385.479401 122.282691 
L 385.759877 124.168366 
L 385.759877 123.228412 
L 386.04347 122.282691 
L 385.759877 122.282691 
L 384.912215 123.228412 
L 384.064553 123.228412 
L 384.064553 124.168366 
L 384.628622 124.168366 
L 384.628622 126.993995 
L 384.348146 126.993995 
L 384.628622 126.993995 
L 385.195808 127.93395 
L 385.759877 126.993995 
L 385.195808 126.048275 
L 384.348146 126.993995 
L 383.500484 129.813858 
L 383.78096 132.639487 
L 384.064553 132.639487 
L 384.064553 133.579442 
L 383.500484 134.519396 
L 383.500484 134.519396 
L 383.78096 135.465117 
L 383.216891 134.519396 
L 382.649706 134.519396 
L 382.649706 133.579442 
L 382.933298 133.579442 
L 382.933298 136.405071 
L 381.802044 136.405071 
L 381.237974 135.465117 
L 381.518451 135.465117 
L 382.085636 136.405071 
L 382.649706 136.405071 
L 382.085636 136.405071 
L 382.085636 137.345025 
L 382.085636 137.345025 
L 382.369229 137.345025 
L 382.369229 137.345025 
L 381.802044 138.284979 
L 380.954382 136.405071 
L 380.670789 135.465117 
L 380.954382 137.345025 
L 381.237974 140.170654 
L 381.237974 140.170654 
L 381.518451 138.284979 
L 382.085636 136.405071 
L 382.369229 137.345025 
L 382.085636 138.284979 
L 381.802044 141.110609 
L 380.954382 142.050563 
L 380.387196 142.050563 
L 379.823127 141.110609 
L 380.10672 140.170654 
L 380.670789 140.170654 
L 380.954382 141.110609 
L 381.518451 142.050563 
L 381.802044 142.996284 
L 382.085636 142.050563 
L 382.085636 142.996284 
L 381.802044 142.996284 
L 381.237974 142.050563 
L 380.670789 142.996284 
L 380.10672 142.996284 
L 380.10672 141.110609 
L 379.539534 139.2307 
L 379.255941 139.2307 
L 379.539534 141.110609 
L 380.10672 142.050563 
L 379.823127 143.936238 
L 378.975465 145.816146 
L 378.691872 142.996284 
L 379.539534 143.936238 
L 379.823127 146.761867 
L 379.255941 149.58173 
L 378.691872 151.467405 
L 378.408279 150.521684 
L 378.408279 148.641776 
L 378.691872 145.816146 
L 378.408279 143.936238 
L 378.124686 143.936238 
L 378.124686 145.816146 
L 378.691872 146.761867 
L 378.975465 147.701822 
L 378.975465 149.58173 
L 378.691872 151.467405 
L 378.408279 152.407359 
L 378.975465 153.347314 
L 379.255941 154.287268 
L 379.255941 154.287268 
L 379.255941 153.347314 
L 378.975465 151.467405 
L 377.560617 151.467405 
L 378.124686 150.521684 
L 378.691872 150.521684 
L 378.408279 152.407359 
L 377.84421 151.467405 
L 377.560617 150.521684 
L 377.277024 152.407359 
L 377.277024 152.407359 
L 377.560617 151.467405 
L 377.560617 150.521684 
L 377.84421 149.58173 
L 377.84421 149.58173 
L 377.560617 148.641776 
L 377.560617 149.58173 
L 377.277024 151.467405 
L 377.277024 152.407359 
L 376.993432 153.347314 
L 376.993432 154.287268 
L 377.277024 153.347314 
L 377.277024 150.521684 
L 377.277024 152.407359 
L 377.560617 154.287268 
L 377.560617 155.232989 
L 376.993432 154.287268 
L 376.14577 152.407359 
L 376.429362 151.467405 
L 377.277024 152.407359 
L 377.560617 154.287268 
L 376.993432 153.347314 
L 376.712955 151.467405 
L 377.277024 150.521684 
L 377.84421 150.521684 
L 377.277024 153.347314 
L 376.429362 154.287268 
L 376.14577 154.287268 
L 376.14577 155.232989 
L 376.712955 153.347314 
L 376.712955 158.052851 
L 376.429362 158.052851 
L 376.429362 157.112897 
L 376.14577 157.112897 
L 376.14577 154.287268 
L 375.862177 154.287268 
L 376.14577 158.052851 
L 376.14577 157.112897 
L 376.14577 154.287268 
L 376.712955 152.407359 
L 376.712955 154.287268 
L 375.5817 158.998572 
L 374.730922 160.878481 
L 374.730922 161.818435 
L 375.298108 160.878481 
L 375.298108 159.938526 
L 376.14577 157.112897 
L 375.5817 157.112897 
L 376.429362 157.112897 
L 376.14577 158.052851 
L 375.862177 158.052851 
L 375.298108 157.112897 
L 375.014515 157.112897 
L 375.014515 157.112897 
L 375.014515 158.052851 
L 374.730922 159.938526 
L 374.730922 160.878481 
L 375.014515 161.818435 
L 374.730922 162.764156 
L 374.166853 163.70411 
L 373.599667 161.818435 
L 373.88326 158.998572 
L 374.166853 158.052851 
L 374.166853 158.998572 
L 374.166853 158.998572 
L 375.014515 158.998572 
L 375.298108 160.878481 
L 375.014515 161.818435 
L 374.166853 161.818435 
L 374.450446 163.70411 
L 374.166853 164.644064 
L 373.035598 166.523973 
L 373.035598 166.523973 
L 372.752005 165.584018 
L 373.035598 164.644064 
L 374.166853 164.644064 
L 373.599667 165.584018 
L 373.319191 166.523973 
L 373.319191 166.523973 
L 373.319191 164.644064 
L 372.752005 164.644064 
L 373.035598 165.584018 
L 373.599667 165.584018 
L 373.599667 166.523973 
L 373.599667 166.523973 
L 373.035598 166.523973 
L 372.187936 169.349602 
L 372.187936 169.349602 
L 371.904343 168.409648 
L 371.904343 168.409648 
L 371.62075 170.289556 
L 371.62075 169.349602 
L 372.468412 165.584018 
L 373.035598 164.644064 
L 373.319191 164.644064 
L 372.752005 166.523973 
L 372.752005 168.409648 
L 373.035598 168.409648 
L 373.035598 167.469693 
L 372.468412 166.523973 
L 372.468412 166.523973 
L 372.752005 169.349602 
L 372.468412 173.115185 
L 372.752005 175.940815 
L 373.319191 176.880769 
L 373.035598 175.00086 
L 372.468412 174.05514 
L 373.599667 170.289556 
L 372.752005 169.349602 
L 371.904343 167.469693 
L 372.468412 167.469693 
L 372.752005 168.409648 
L 371.904343 168.409648 
L 371.056681 170.289556 
L 370.773088 174.05514 
L 371.056681 175.940815 
L 371.62075 174.05514 
L 371.62075 170.289556 
L 370.773088 167.469693 
L 370.205903 168.409648 
L 370.489496 169.349602 
L 371.337158 169.349602 
L 371.62075 170.289556 
L 371.62075 174.05514 
L 371.337158 175.00086 
L 371.056681 175.00086 
L 371.056681 174.05514 
L 371.337158 174.05514 
L 370.205903 174.05514 
L 370.205903 174.05514 
L 370.773088 173.115185 
L 371.056681 171.235277 
L 370.489496 173.115185 
L 370.773088 174.05514 
L 372.752005 174.05514 
L 372.468412 175.00086 
L 371.904343 175.940815 
L 371.337158 175.940815 
L 371.056681 175.00086 
L 370.773088 173.115185 
L 370.773088 171.235277 
L 370.489496 171.235277 
L 369.641834 175.940815 
L 369.925426 175.940815 
L 369.641834 175.00086 
L 369.358241 175.940815 
L 369.358241 177.820723 
L 369.641834 177.820723 
L 370.205903 176.880769 
L 370.489496 176.880769 
L 370.489496 177.820723 
L 371.056681 177.820723 
L 371.62075 176.880769 
L 371.337158 176.880769 
L 371.056681 177.820723 
L 371.337158 176.880769 
L 371.337158 178.766444 
L 370.489496 181.586307 
L 369.925426 182.532027 
L 368.794172 181.586307 
L 366.812138 182.532027 
L 364.552745 183.471982 
L 362.006643 183.471982 
L 359.176948 184.411936 
L 355.502707 184.411936 
L 352.108942 183.471982 
L 345.321414 179.706398 
L 340.512802 178.766444 
L 334.856528 179.706398 
L 329.483846 181.586307 
L 324.394758 181.586307 
L 313.646279 179.706398 
L 307.425936 179.706398 
L 300.922 181.586307 
L 294.69854 184.411936 
L 288.478197 190.057428 
L 281.974261 193.823011 
L 260.196827 202.294133 
L 253.692891 205.119762 
L 246.905362 208.885346 
L 239.837357 210.771021 
L 233.049828 210.771021 
L 226.545892 211.710975 
L 220.322433 215.476558 
L 214.666159 221.12205 
L 209.009885 225.827588 
L 203.920796 230.538892 
L 199.67937 233.358755 
L 196.002013 233.358755 
L 193.175434 234.304476 
L 190.629332 236.184384 
L 188.650415 239.949968 
L 187.235567 243.715551 
L 186.387905 246.541181 
L 184.973058 248.421089 
L 183.55821 251.246719 
L 183.841803 253.126627 
L 185.25665 255.012302 
L 186.387905 254.066581 
L 186.951974 253.126627 
L 187.51916 253.126627 
L 187.799636 254.066581 
L 188.083229 253.126627 
L 188.650415 253.126627 
L 189.78167 255.012302 
L 191.476994 256.892211 
L 192.608248 257.832165 
L 193.175434 256.892211 
L 192.044179 253.126627 
L 191.193401 252.186673 
L 190.912924 253.126627 
L 190.912924 255.012302 
L 190.345739 256.892211 
L 190.062146 256.892211 
L 189.78167 257.832165 
L 189.214484 257.832165 
L 188.650415 258.777886 
L 188.930891 259.71784 
L 188.366822 263.483423 
L 187.235567 268.188961 
L 187.799636 267.249007 
L 188.366822 268.188961 
L 188.083229 269.128915 
L 187.51916 270.074636 
L 186.951974 269.128915 
L 187.235567 270.074636 
L 188.083229 271.954545 
L 188.930891 271.954545 
L 189.498077 271.01459 
L 189.498077 271.01459 
L 189.498077 270.074636 
L 188.930891 270.074636 
L 188.366822 271.01459 
L 188.366822 271.954545 
L 188.083229 271.954545 
L 188.366822 271.01459 
L 188.650415 271.954545 
L 188.650415 272.894499 
L 188.083229 271.954545 
L 187.235567 271.954545 
L 186.387905 272.894499 
L 186.104312 274.780174 
L 186.668382 276.660082 
L 187.51916 275.720128 
L 187.51916 274.780174 
L 186.387905 272.894499 
L 186.668382 272.894499 
L 186.387905 274.780174 
L 186.104312 277.600037 
L 185.537127 279.485712 
L 185.537127 279.485712 
L 184.973058 279.485712 
L 184.973058 279.485712 
L 185.537127 280.425666 
L 185.537127 284.191249 
L 185.82072 284.191249 
L 186.104312 285.131204 
L 185.82072 287.016879 
L 184.973058 288.896787 
L 184.973058 287.016879 
L 185.25665 284.191249 
L 185.537127 283.251295 
L 185.25665 283.251295 
L 185.537127 284.191249 
L 185.82072 286.076924 
L 186.387905 288.896787 
L 186.387905 289.836741 
L 185.82072 289.836741 
L 185.25665 290.782462 
L 184.973058 289.836741 
L 185.25665 288.896787 
L 185.537127 289.836741 
L 184.689465 289.836741 
L 184.405872 288.896787 
L 183.841803 287.956833 
L 183.55821 289.836741 
L 183.274617 292.662371 
L 183.841803 291.722416 
L 184.125396 290.782462 
L 184.405872 291.722416 
L 184.405872 291.722416 
L 184.405872 287.956833 
L 184.405872 287.956833 
L 185.25665 289.836741 
L 185.82072 292.662371 
L 185.25665 293.602325 
L 184.973058 295.488 
L 185.25665 294.548046 
L 185.537127 292.662371 
L 185.537127 291.722416 
L 184.689465 288.896787 
L 184.689465 287.016879 
L 184.405872 285.131204 
L 184.405872 285.131204 
" style="fill:none;stroke:#1f77b4;stroke-linecap:square;stroke-width:1.5;"/>
   </g>
   <g id="matplotlib.axis_1">
    <g id="xtick_1">
     <g id="line2d_2">
      <defs>
       <path d="M 0 0 
L 0 3.5 
" id="mb0d8ee05d1" style="stroke:#000000;stroke-width:0.8;"/>
      </defs>
      <g>
       <use style="stroke:#000000;stroke-width:0.8;" x="116.128568" xlink:href="#mb0d8ee05d1" y="307.584"/>
      </g>
     </g>
     <g id="text_1">
      <!-- −600 -->
      <defs>
       <path d="M 10.59375 35.5 
L 73.1875 35.5 
L 73.1875 27.203125 
L 10.59375 27.203125 
z
" id="DejaVuSans-8722"/>
       <path d="M 33.015625 40.375 
Q 26.375 40.375 22.484375 35.828125 
Q 18.609375 31.296875 18.609375 23.390625 
Q 18.609375 15.53125 22.484375 10.953125 
Q 26.375 6.390625 33.015625 6.390625 
Q 39.65625 6.390625 43.53125 10.953125 
Q 47.40625 15.53125 47.40625 23.390625 
Q 47.40625 31.296875 43.53125 35.828125 
Q 39.65625 40.375 33.015625 40.375 
z
M 52.59375 71.296875 
L 52.59375 62.3125 
Q 48.875 64.0625 45.09375 64.984375 
Q 41.3125 65.921875 37.59375 65.921875 
Q 27.828125 65.921875 22.671875 59.328125 
Q 17.53125 52.734375 16.796875 39.40625 
Q 19.671875 43.65625 24.015625 45.921875 
Q 28.375 48.1875 33.59375 48.1875 
Q 44.578125 48.1875 50.953125 41.515625 
Q 57.328125 34.859375 57.328125 23.390625 
Q 57.328125 12.15625 50.6875 5.359375 
Q 44.046875 -1.421875 33.015625 -1.421875 
Q 20.359375 -1.421875 13.671875 8.265625 
Q 6.984375 17.96875 6.984375 36.375 
Q 6.984375 53.65625 15.1875 63.9375 
Q 23.390625 74.21875 37.203125 74.21875 
Q 40.921875 74.21875 44.703125 73.484375 
Q 48.484375 72.75 52.59375 71.296875 
z
" id="DejaVuSans-54"/>
       <path d="M 31.78125 66.40625 
Q 24.171875 66.40625 20.328125 58.90625 
Q 16.5 51.421875 16.5 36.375 
Q 16.5 21.390625 20.328125 13.890625 
Q 24.171875 6.390625 31.78125 6.390625 
Q 39.453125 6.390625 43.28125 13.890625 
Q 47.125 21.390625 47.125 36.375 
Q 47.125 51.421875 43.28125 58.90625 
Q 39.453125 66.40625 31.78125 66.40625 
z
M 31.78125 74.21875 
Q 44.046875 74.21875 50.515625 64.515625 
Q 56.984375 54.828125 56.984375 36.375 
Q 56.984375 17.96875 50.515625 8.265625 
Q 44.046875 -1.421875 31.78125 -1.421875 
Q 19.53125 -1.421875 13.0625 8.265625 
Q 6.59375 17.96875 6.59375 36.375 
Q 6.59375 54.828125 13.0625 64.515625 
Q 19.53125 74.21875 31.78125 74.21875 
z
" id="DejaVuSans-48"/>
      </defs>
      <g transform="translate(102.394974 322.182437)scale(0.1 -0.1)">
       <use xlink:href="#DejaVuSans-8722"/>
       <use x="83.789062" xlink:href="#DejaVuSans-54"/>
       <use x="147.412109" xlink:href="#DejaVuSans-48"/>
       <use x="211.035156" xlink:href="#DejaVuSans-48"/>
      </g>
     </g>
    </g>
    <g id="xtick_2">
     <g id="line2d_3">
      <g>
       <use style="stroke:#000000;stroke-width:0.8;" x="178.456656" xlink:href="#mb0d8ee05d1" y="307.584"/>
      </g>
     </g>
     <g id="text_2">
      <!-- −400 -->
      <defs>
       <path d="M 37.796875 64.3125 
L 12.890625 25.390625 
L 37.796875 25.390625 
z
M 35.203125 72.90625 
L 47.609375 72.90625 
L 47.609375 25.390625 
L 58.015625 25.390625 
L 58.015625 17.1875 
L 47.609375 17.1875 
L 47.609375 0 
L 37.796875 0 
L 37.796875 17.1875 
L 4.890625 17.1875 
L 4.890625 26.703125 
z
" id="DejaVuSans-52"/>
      </defs>
      <g transform="translate(164.723062 322.182437)scale(0.1 -0.1)">
       <use xlink:href="#DejaVuSans-8722"/>
       <use x="83.789062" xlink:href="#DejaVuSans-52"/>
       <use x="147.412109" xlink:href="#DejaVuSans-48"/>
       <use x="211.035156" xlink:href="#DejaVuSans-48"/>
      </g>
     </g>
    </g>
    <g id="xtick_3">
     <g id="line2d_4">
      <g>
       <use style="stroke:#000000;stroke-width:0.8;" x="240.784744" xlink:href="#mb0d8ee05d1" y="307.584"/>
      </g>
     </g>
     <g id="text_3">
      <!-- −200 -->
      <defs>
       <path d="M 19.1875 8.296875 
L 53.609375 8.296875 
L 53.609375 0 
L 7.328125 0 
L 7.328125 8.296875 
Q 12.9375 14.109375 22.625 23.890625 
Q 32.328125 33.6875 34.8125 36.53125 
Q 39.546875 41.84375 41.421875 45.53125 
Q 43.3125 49.21875 43.3125 52.78125 
Q 43.3125 58.59375 39.234375 62.25 
Q 35.15625 65.921875 28.609375 65.921875 
Q 23.96875 65.921875 18.8125 64.3125 
Q 13.671875 62.703125 7.8125 59.421875 
L 7.8125 69.390625 
Q 13.765625 71.78125 18.9375 73 
Q 24.125 74.21875 28.421875 74.21875 
Q 39.75 74.21875 46.484375 68.546875 
Q 53.21875 62.890625 53.21875 53.421875 
Q 53.21875 48.921875 51.53125 44.890625 
Q 49.859375 40.875 45.40625 35.40625 
Q 44.1875 33.984375 37.640625 27.21875 
Q 31.109375 20.453125 19.1875 8.296875 
z
" id="DejaVuSans-50"/>
      </defs>
      <g transform="translate(227.05115 322.182437)scale(0.1 -0.1)">
       <use xlink:href="#DejaVuSans-8722"/>
       <use x="83.789062" xlink:href="#DejaVuSans-50"/>
       <use x="147.412109" xlink:href="#DejaVuSans-48"/>
       <use x="211.035156" xlink:href="#DejaVuSans-48"/>
      </g>
     </g>
    </g>
    <g id="xtick_4">
     <g id="line2d_5">
      <g>
       <use style="stroke:#000000;stroke-width:0.8;" x="303.112832" xlink:href="#mb0d8ee05d1" y="307.584"/>
      </g>
     </g>
     <g id="text_4">
      <!-- 0 -->
      <g transform="translate(299.931582 322.182437)scale(0.1 -0.1)">
       <use xlink:href="#DejaVuSans-48"/>
      </g>
     </g>
    </g>
    <g id="xtick_5">
     <g id="line2d_6">
      <g>
       <use style="stroke:#000000;stroke-width:0.8;" x="365.44092" xlink:href="#mb0d8ee05d1" y="307.584"/>
      </g>
     </g>
     <g id="text_5">
      <!-- 200 -->
      <g transform="translate(355.89717 322.182437)scale(0.1 -0.1)">
       <use xlink:href="#DejaVuSans-50"/>
       <use x="63.623047" xlink:href="#DejaVuSans-48"/>
       <use x="127.246094" xlink:href="#DejaVuSans-48"/>
      </g>
     </g>
    </g>
   </g>
   <g id="matplotlib.axis_2">
    <g id="ytick_1">
     <g id="line2d_7">
      <defs>
       <path d="M 0 0 
L -3.5 0 
" id="m093d9ab50f" style="stroke:#000000;stroke-width:0.8;"/>
      </defs>
      <g>
       <use style="stroke:#000000;stroke-width:0.8;" x="57.6" xlink:href="#m093d9ab50f" y="291.855048"/>
      </g>
     </g>
     <g id="text_6">
      <!-- −500 -->
      <defs>
       <path d="M 10.796875 72.90625 
L 49.515625 72.90625 
L 49.515625 64.59375 
L 19.828125 64.59375 
L 19.828125 46.734375 
Q 21.96875 47.46875 24.109375 47.828125 
Q 26.265625 48.1875 28.421875 48.1875 
Q 40.625 48.1875 47.75 41.5 
Q 54.890625 34.8125 54.890625 23.390625 
Q 54.890625 11.625 47.5625 5.09375 
Q 40.234375 -1.421875 26.90625 -1.421875 
Q 22.3125 -1.421875 17.546875 -0.640625 
Q 12.796875 0.140625 7.71875 1.703125 
L 7.71875 11.625 
Q 12.109375 9.234375 16.796875 8.0625 
Q 21.484375 6.890625 26.703125 6.890625 
Q 35.15625 6.890625 40.078125 11.328125 
Q 45.015625 15.765625 45.015625 23.390625 
Q 45.015625 31 40.078125 35.4375 
Q 35.15625 39.890625 26.703125 39.890625 
Q 22.75 39.890625 18.8125 39.015625 
Q 14.890625 38.140625 10.796875 36.28125 
z
" id="DejaVuSans-53"/>
      </defs>
      <g transform="translate(23.132812 295.654267)scale(0.1 -0.1)">
       <use xlink:href="#DejaVuSans-8722"/>
       <use x="83.789062" xlink:href="#DejaVuSans-53"/>
       <use x="147.412109" xlink:href="#DejaVuSans-48"/>
       <use x="211.035156" xlink:href="#DejaVuSans-48"/>
      </g>
     </g>
    </g>
    <g id="ytick_2">
     <g id="line2d_8">
      <g>
       <use style="stroke:#000000;stroke-width:0.8;" x="57.6" xlink:href="#m093d9ab50f" y="234.189144"/>
      </g>
     </g>
     <g id="text_7">
      <!-- −400 -->
      <g transform="translate(23.132812 237.988363)scale(0.1 -0.1)">
       <use xlink:href="#DejaVuSans-8722"/>
       <use x="83.789062" xlink:href="#DejaVuSans-52"/>
       <use x="147.412109" xlink:href="#DejaVuSans-48"/>
       <use x="211.035156" xlink:href="#DejaVuSans-48"/>
      </g>
     </g>
    </g>
    <g id="ytick_3">
     <g id="line2d_9">
      <g>
       <use style="stroke:#000000;stroke-width:0.8;" x="57.6" xlink:href="#m093d9ab50f" y="176.52324"/>
      </g>
     </g>
     <g id="text_8">
      <!-- −300 -->
      <defs>
       <path d="M 40.578125 39.3125 
Q 47.65625 37.796875 51.625 33 
Q 55.609375 28.21875 55.609375 21.1875 
Q 55.609375 10.40625 48.1875 4.484375 
Q 40.765625 -1.421875 27.09375 -1.421875 
Q 22.515625 -1.421875 17.65625 -0.515625 
Q 12.796875 0.390625 7.625 2.203125 
L 7.625 11.71875 
Q 11.71875 9.328125 16.59375 8.109375 
Q 21.484375 6.890625 26.8125 6.890625 
Q 36.078125 6.890625 40.9375 10.546875 
Q 45.796875 14.203125 45.796875 21.1875 
Q 45.796875 27.640625 41.28125 31.265625 
Q 36.765625 34.90625 28.71875 34.90625 
L 20.21875 34.90625 
L 20.21875 43.015625 
L 29.109375 43.015625 
Q 36.375 43.015625 40.234375 45.921875 
Q 44.09375 48.828125 44.09375 54.296875 
Q 44.09375 59.90625 40.109375 62.90625 
Q 36.140625 65.921875 28.71875 65.921875 
Q 24.65625 65.921875 20.015625 65.03125 
Q 15.375 64.15625 9.8125 62.3125 
L 9.8125 71.09375 
Q 15.4375 72.65625 20.34375 73.4375 
Q 25.25 74.21875 29.59375 74.21875 
Q 40.828125 74.21875 47.359375 69.109375 
Q 53.90625 64.015625 53.90625 55.328125 
Q 53.90625 49.265625 50.4375 45.09375 
Q 46.96875 40.921875 40.578125 39.3125 
z
" id="DejaVuSans-51"/>
      </defs>
      <g transform="translate(23.132812 180.322459)scale(0.1 -0.1)">
       <use xlink:href="#DejaVuSans-8722"/>
       <use x="83.789062" xlink:href="#DejaVuSans-51"/>
       <use x="147.412109" xlink:href="#DejaVuSans-48"/>
       <use x="211.035156" xlink:href="#DejaVuSans-48"/>
      </g>
     </g>
    </g>
    <g id="ytick_4">
     <g id="line2d_10">
      <g>
       <use style="stroke:#000000;stroke-width:0.8;" x="57.6" xlink:href="#m093d9ab50f" y="118.857336"/>
      </g>
     </g>
     <g id="text_9">
      <!-- −200 -->
      <g transform="translate(23.132812 122.656555)scale(0.1 -0.1)">
       <use xlink:href="#DejaVuSans-8722"/>
       <use x="83.789062" xlink:href="#DejaVuSans-50"/>
       <use x="147.412109" xlink:href="#DejaVuSans-48"/>
       <use x="211.035156" xlink:href="#DejaVuSans-48"/>
      </g>
     </g>
    </g>
    <g id="ytick_5">
     <g id="line2d_11">
      <g>
       <use style="stroke:#000000;stroke-width:0.8;" x="57.6" xlink:href="#m093d9ab50f" y="61.191432"/>
      </g>
     </g>
     <g id="text_10">
      <!-- −100 -->
      <defs>
       <path d="M 12.40625 8.296875 
L 28.515625 8.296875 
L 28.515625 63.921875 
L 10.984375 60.40625 
L 10.984375 69.390625 
L 28.421875 72.90625 
L 38.28125 72.90625 
L 38.28125 8.296875 
L 54.390625 8.296875 
L 54.390625 0 
L 12.40625 0 
z
" id="DejaVuSans-49"/>
      </defs>
      <g transform="translate(23.132812 64.990651)scale(0.1 -0.1)">
       <use xlink:href="#DejaVuSans-8722"/>
       <use x="83.789062" xlink:href="#DejaVuSans-49"/>
       <use x="147.412109" xlink:href="#DejaVuSans-48"/>
       <use x="211.035156" xlink:href="#DejaVuSans-48"/>
      </g>
     </g>
    </g>
   </g>
   <g id="line2d_12">
    <path clip-path="url(#p266b03734c)" d="M 77.532318 210.620132 
L 249.296972 161.323256 
L 205.294554 241.256012 
L 384.094964 119.201939 
L 371.437282 164.297941 
L 188.841913 269.268357 
" style="fill:none;stroke:#ff0000;stroke-linecap:square;stroke-width:0.5;"/>
   </g>
   <g id="patch_3">
    <path d="M 57.6 307.584 
L 57.6 41.472 
" style="fill:none;stroke:#000000;stroke-linecap:square;stroke-linejoin:miter;stroke-width:0.8;"/>
   </g>
   <g id="patch_4">
    <path d="M 414.72 307.584 
L 414.72 41.472 
" style="fill:none;stroke:#000000;stroke-linecap:square;stroke-linejoin:miter;stroke-width:0.8;"/>
   </g>
   <g id="patch_5">
    <path d="M 57.6 307.584 
L 414.72 307.584 
" style="fill:none;stroke:#000000;stroke-linecap:square;stroke-linejoin:miter;stroke-width:0.8;"/>
   </g>
   <g id="patch_6">
    <path d="M 57.6 41.472 
L 414.72 41.472 
" style="fill:none;stroke:#000000;stroke-linecap:square;stroke-linejoin:miter;stroke-width:0.8;"/>
   </g>
   <g id="PathCollection_1">
    <defs>
     <path d="M 0 2.738613 
C 0.726289 2.738613 1.422928 2.450055 1.936492 1.936492 
C 2.450055 1.422928 2.738613 0.726289 2.738613 0 
C 2.738613 -0.726289 2.450055 -1.422928 1.936492 -1.936492 
C 1.422928 -2.450055 0.726289 -2.738613 0 -2.738613 
C -0.726289 -2.738613 -1.422928 -2.450055 -1.936492 -1.936492 
C -2.450055 -1.422928 -2.738613 -0.726289 -2.738613 0 
C -2.738613 0.726289 -2.450055 1.422928 -1.936492 1.936492 
C -1.422928 2.450055 -0.726289 2.738613 0 2.738613 
z
" id="m1f5a0bc012" style="stroke:#ff0000;"/>
    </defs>
    <g clip-path="url(#p266b03734c)">
     <use style="fill:#ff0000;stroke:#ff0000;" x="77.532318" xlink:href="#m1f5a0bc012" y="210.620132"/>
     <use style="fill:#ff0000;stroke:#ff0000;" x="249.296972" xlink:href="#m1f5a0bc012" y="161.323256"/>
     <use style="fill:#ff0000;stroke:#ff0000;" x="205.294554" xlink:href="#m1f5a0bc012" y="241.256012"/>
     <use style="fill:#ff0000;stroke:#ff0000;" x="384.094964" xlink:href="#m1f5a0bc012" y="119.201939"/>
     <use style="fill:#ff0000;stroke:#ff0000;" x="371.437282" xlink:href="#m1f5a0bc012" y="164.297941"/>
     <use style="fill:#ff0000;stroke:#ff0000;" x="188.841913" xlink:href="#m1f5a0bc012" y="269.268357"/>
    </g>
   </g>
   <g id="text_11">
    <!-- (37) Subject: s13, Known = False, Degree = 2, Duration = 0.1 -->
    <defs>
     <path d="M 31 75.875 
Q 24.46875 64.65625 21.28125 53.65625 
Q 18.109375 42.671875 18.109375 31.390625 
Q 18.109375 20.125 21.3125 9.0625 
Q 24.515625 -2 31 -13.1875 
L 23.1875 -13.1875 
Q 15.875 -1.703125 12.234375 9.375 
Q 8.59375 20.453125 8.59375 31.390625 
Q 8.59375 42.28125 12.203125 53.3125 
Q 15.828125 64.359375 23.1875 75.875 
z
" id="DejaVuSans-40"/>
     <path d="M 8.203125 72.90625 
L 55.078125 72.90625 
L 55.078125 68.703125 
L 28.609375 0 
L 18.3125 0 
L 43.21875 64.59375 
L 8.203125 64.59375 
z
" id="DejaVuSans-55"/>
     <path d="M 8.015625 75.875 
L 15.828125 75.875 
Q 23.140625 64.359375 26.78125 53.3125 
Q 30.421875 42.28125 30.421875 31.390625 
Q 30.421875 20.453125 26.78125 9.375 
Q 23.140625 -1.703125 15.828125 -13.1875 
L 8.015625 -13.1875 
Q 14.5 -2 17.703125 9.0625 
Q 20.90625 20.125 20.90625 31.390625 
Q 20.90625 42.671875 17.703125 53.65625 
Q 14.5 64.65625 8.015625 75.875 
z
" id="DejaVuSans-41"/>
     <path id="DejaVuSans-32"/>
     <path d="M 53.515625 70.515625 
L 53.515625 60.890625 
Q 47.90625 63.578125 42.921875 64.890625 
Q 37.9375 66.21875 33.296875 66.21875 
Q 25.25 66.21875 20.875 63.09375 
Q 16.5 59.96875 16.5 54.203125 
Q 16.5 49.359375 19.40625 46.890625 
Q 22.3125 44.4375 30.421875 42.921875 
L 36.375 41.703125 
Q 47.40625 39.59375 52.65625 34.296875 
Q 57.90625 29 57.90625 20.125 
Q 57.90625 9.515625 50.796875 4.046875 
Q 43.703125 -1.421875 29.984375 -1.421875 
Q 24.8125 -1.421875 18.96875 -0.25 
Q 13.140625 0.921875 6.890625 3.21875 
L 6.890625 13.375 
Q 12.890625 10.015625 18.65625 8.296875 
Q 24.421875 6.59375 29.984375 6.59375 
Q 38.421875 6.59375 43.015625 9.90625 
Q 47.609375 13.234375 47.609375 19.390625 
Q 47.609375 24.75 44.3125 27.78125 
Q 41.015625 30.8125 33.5 32.328125 
L 27.484375 33.5 
Q 16.453125 35.6875 11.515625 40.375 
Q 6.59375 45.0625 6.59375 53.421875 
Q 6.59375 63.09375 13.40625 68.65625 
Q 20.21875 74.21875 32.171875 74.21875 
Q 37.3125 74.21875 42.625 73.28125 
Q 47.953125 72.359375 53.515625 70.515625 
z
" id="DejaVuSans-83"/>
     <path d="M 8.5 21.578125 
L 8.5 54.6875 
L 17.484375 54.6875 
L 17.484375 21.921875 
Q 17.484375 14.15625 20.5 10.265625 
Q 23.53125 6.390625 29.59375 6.390625 
Q 36.859375 6.390625 41.078125 11.03125 
Q 45.3125 15.671875 45.3125 23.6875 
L 45.3125 54.6875 
L 54.296875 54.6875 
L 54.296875 0 
L 45.3125 0 
L 45.3125 8.40625 
Q 42.046875 3.421875 37.71875 1 
Q 33.40625 -1.421875 27.6875 -1.421875 
Q 18.265625 -1.421875 13.375 4.4375 
Q 8.5 10.296875 8.5 21.578125 
z
M 31.109375 56 
z
" id="DejaVuSans-117"/>
     <path d="M 48.6875 27.296875 
Q 48.6875 37.203125 44.609375 42.84375 
Q 40.53125 48.484375 33.40625 48.484375 
Q 26.265625 48.484375 22.1875 42.84375 
Q 18.109375 37.203125 18.109375 27.296875 
Q 18.109375 17.390625 22.1875 11.75 
Q 26.265625 6.109375 33.40625 6.109375 
Q 40.53125 6.109375 44.609375 11.75 
Q 48.6875 17.390625 48.6875 27.296875 
z
M 18.109375 46.390625 
Q 20.953125 51.265625 25.265625 53.625 
Q 29.59375 56 35.59375 56 
Q 45.5625 56 51.78125 48.09375 
Q 58.015625 40.1875 58.015625 27.296875 
Q 58.015625 14.40625 51.78125 6.484375 
Q 45.5625 -1.421875 35.59375 -1.421875 
Q 29.59375 -1.421875 25.265625 0.953125 
Q 20.953125 3.328125 18.109375 8.203125 
L 18.109375 0 
L 9.078125 0 
L 9.078125 75.984375 
L 18.109375 75.984375 
z
" id="DejaVuSans-98"/>
     <path d="M 9.421875 54.6875 
L 18.40625 54.6875 
L 18.40625 -0.984375 
Q 18.40625 -11.421875 14.421875 -16.109375 
Q 10.453125 -20.796875 1.609375 -20.796875 
L -1.8125 -20.796875 
L -1.8125 -13.1875 
L 0.59375 -13.1875 
Q 5.71875 -13.1875 7.5625 -10.8125 
Q 9.421875 -8.453125 9.421875 -0.984375 
z
M 9.421875 75.984375 
L 18.40625 75.984375 
L 18.40625 64.59375 
L 9.421875 64.59375 
z
" id="DejaVuSans-106"/>
     <path d="M 56.203125 29.59375 
L 56.203125 25.203125 
L 14.890625 25.203125 
Q 15.484375 15.921875 20.484375 11.0625 
Q 25.484375 6.203125 34.421875 6.203125 
Q 39.59375 6.203125 44.453125 7.46875 
Q 49.3125 8.734375 54.109375 11.28125 
L 54.109375 2.78125 
Q 49.265625 0.734375 44.1875 -0.34375 
Q 39.109375 -1.421875 33.890625 -1.421875 
Q 20.796875 -1.421875 13.15625 6.1875 
Q 5.515625 13.8125 5.515625 26.8125 
Q 5.515625 40.234375 12.765625 48.109375 
Q 20.015625 56 32.328125 56 
Q 43.359375 56 49.78125 48.890625 
Q 56.203125 41.796875 56.203125 29.59375 
z
M 47.21875 32.234375 
Q 47.125 39.59375 43.09375 43.984375 
Q 39.0625 48.390625 32.421875 48.390625 
Q 24.90625 48.390625 20.390625 44.140625 
Q 15.875 39.890625 15.1875 32.171875 
z
" id="DejaVuSans-101"/>
     <path d="M 48.78125 52.59375 
L 48.78125 44.1875 
Q 44.96875 46.296875 41.140625 47.34375 
Q 37.3125 48.390625 33.40625 48.390625 
Q 24.65625 48.390625 19.8125 42.84375 
Q 14.984375 37.3125 14.984375 27.296875 
Q 14.984375 17.28125 19.8125 11.734375 
Q 24.65625 6.203125 33.40625 6.203125 
Q 37.3125 6.203125 41.140625 7.25 
Q 44.96875 8.296875 48.78125 10.40625 
L 48.78125 2.09375 
Q 45.015625 0.34375 40.984375 -0.53125 
Q 36.96875 -1.421875 32.421875 -1.421875 
Q 20.0625 -1.421875 12.78125 6.34375 
Q 5.515625 14.109375 5.515625 27.296875 
Q 5.515625 40.671875 12.859375 48.328125 
Q 20.21875 56 33.015625 56 
Q 37.15625 56 41.109375 55.140625 
Q 45.0625 54.296875 48.78125 52.59375 
z
" id="DejaVuSans-99"/>
     <path d="M 18.3125 70.21875 
L 18.3125 54.6875 
L 36.8125 54.6875 
L 36.8125 47.703125 
L 18.3125 47.703125 
L 18.3125 18.015625 
Q 18.3125 11.328125 20.140625 9.421875 
Q 21.96875 7.515625 27.59375 7.515625 
L 36.8125 7.515625 
L 36.8125 0 
L 27.59375 0 
Q 17.1875 0 13.234375 3.875 
Q 9.28125 7.765625 9.28125 18.015625 
L 9.28125 47.703125 
L 2.6875 47.703125 
L 2.6875 54.6875 
L 9.28125 54.6875 
L 9.28125 70.21875 
z
" id="DejaVuSans-116"/>
     <path d="M 11.71875 12.40625 
L 22.015625 12.40625 
L 22.015625 0 
L 11.71875 0 
z
M 11.71875 51.703125 
L 22.015625 51.703125 
L 22.015625 39.3125 
L 11.71875 39.3125 
z
" id="DejaVuSans-58"/>
     <path d="M 44.28125 53.078125 
L 44.28125 44.578125 
Q 40.484375 46.53125 36.375 47.5 
Q 32.28125 48.484375 27.875 48.484375 
Q 21.1875 48.484375 17.84375 46.4375 
Q 14.5 44.390625 14.5 40.28125 
Q 14.5 37.15625 16.890625 35.375 
Q 19.28125 33.59375 26.515625 31.984375 
L 29.59375 31.296875 
Q 39.15625 29.25 43.1875 25.515625 
Q 47.21875 21.78125 47.21875 15.09375 
Q 47.21875 7.46875 41.1875 3.015625 
Q 35.15625 -1.421875 24.609375 -1.421875 
Q 20.21875 -1.421875 15.453125 -0.5625 
Q 10.6875 0.296875 5.421875 2 
L 5.421875 11.28125 
Q 10.40625 8.6875 15.234375 7.390625 
Q 20.0625 6.109375 24.8125 6.109375 
Q 31.15625 6.109375 34.5625 8.28125 
Q 37.984375 10.453125 37.984375 14.40625 
Q 37.984375 18.0625 35.515625 20.015625 
Q 33.0625 21.96875 24.703125 23.78125 
L 21.578125 24.515625 
Q 13.234375 26.265625 9.515625 29.90625 
Q 5.8125 33.546875 5.8125 39.890625 
Q 5.8125 47.609375 11.28125 51.796875 
Q 16.75 56 26.8125 56 
Q 31.78125 56 36.171875 55.265625 
Q 40.578125 54.546875 44.28125 53.078125 
z
" id="DejaVuSans-115"/>
     <path d="M 11.71875 12.40625 
L 22.015625 12.40625 
L 22.015625 4 
L 14.015625 -11.625 
L 7.71875 -11.625 
L 11.71875 4 
z
" id="DejaVuSans-44"/>
     <path d="M 9.8125 72.90625 
L 19.671875 72.90625 
L 19.671875 42.09375 
L 52.390625 72.90625 
L 65.09375 72.90625 
L 28.90625 38.921875 
L 67.671875 0 
L 54.6875 0 
L 19.671875 35.109375 
L 19.671875 0 
L 9.8125 0 
z
" id="DejaVuSans-75"/>
     <path d="M 54.890625 33.015625 
L 54.890625 0 
L 45.90625 0 
L 45.90625 32.71875 
Q 45.90625 40.484375 42.875 44.328125 
Q 39.84375 48.1875 33.796875 48.1875 
Q 26.515625 48.1875 22.3125 43.546875 
Q 18.109375 38.921875 18.109375 30.90625 
L 18.109375 0 
L 9.078125 0 
L 9.078125 54.6875 
L 18.109375 54.6875 
L 18.109375 46.1875 
Q 21.34375 51.125 25.703125 53.5625 
Q 30.078125 56 35.796875 56 
Q 45.21875 56 50.046875 50.171875 
Q 54.890625 44.34375 54.890625 33.015625 
z
" id="DejaVuSans-110"/>
     <path d="M 30.609375 48.390625 
Q 23.390625 48.390625 19.1875 42.75 
Q 14.984375 37.109375 14.984375 27.296875 
Q 14.984375 17.484375 19.15625 11.84375 
Q 23.34375 6.203125 30.609375 6.203125 
Q 37.796875 6.203125 41.984375 11.859375 
Q 46.1875 17.53125 46.1875 27.296875 
Q 46.1875 37.015625 41.984375 42.703125 
Q 37.796875 48.390625 30.609375 48.390625 
z
M 30.609375 56 
Q 42.328125 56 49.015625 48.375 
Q 55.71875 40.765625 55.71875 27.296875 
Q 55.71875 13.875 49.015625 6.21875 
Q 42.328125 -1.421875 30.609375 -1.421875 
Q 18.84375 -1.421875 12.171875 6.21875 
Q 5.515625 13.875 5.515625 27.296875 
Q 5.515625 40.765625 12.171875 48.375 
Q 18.84375 56 30.609375 56 
z
" id="DejaVuSans-111"/>
     <path d="M 4.203125 54.6875 
L 13.1875 54.6875 
L 24.421875 12.015625 
L 35.59375 54.6875 
L 46.1875 54.6875 
L 57.421875 12.015625 
L 68.609375 54.6875 
L 77.59375 54.6875 
L 63.28125 0 
L 52.6875 0 
L 40.921875 44.828125 
L 29.109375 0 
L 18.5 0 
z
" id="DejaVuSans-119"/>
     <path d="M 10.59375 45.40625 
L 73.1875 45.40625 
L 73.1875 37.203125 
L 10.59375 37.203125 
z
M 10.59375 25.484375 
L 73.1875 25.484375 
L 73.1875 17.1875 
L 10.59375 17.1875 
z
" id="DejaVuSans-61"/>
     <path d="M 9.8125 72.90625 
L 51.703125 72.90625 
L 51.703125 64.59375 
L 19.671875 64.59375 
L 19.671875 43.109375 
L 48.578125 43.109375 
L 48.578125 34.8125 
L 19.671875 34.8125 
L 19.671875 0 
L 9.8125 0 
z
" id="DejaVuSans-70"/>
     <path d="M 34.28125 27.484375 
Q 23.390625 27.484375 19.1875 25 
Q 14.984375 22.515625 14.984375 16.5 
Q 14.984375 11.71875 18.140625 8.90625 
Q 21.296875 6.109375 26.703125 6.109375 
Q 34.1875 6.109375 38.703125 11.40625 
Q 43.21875 16.703125 43.21875 25.484375 
L 43.21875 27.484375 
z
M 52.203125 31.203125 
L 52.203125 0 
L 43.21875 0 
L 43.21875 8.296875 
Q 40.140625 3.328125 35.546875 0.953125 
Q 30.953125 -1.421875 24.3125 -1.421875 
Q 15.921875 -1.421875 10.953125 3.296875 
Q 6 8.015625 6 15.921875 
Q 6 25.140625 12.171875 29.828125 
Q 18.359375 34.515625 30.609375 34.515625 
L 43.21875 34.515625 
L 43.21875 35.40625 
Q 43.21875 41.609375 39.140625 45 
Q 35.0625 48.390625 27.6875 48.390625 
Q 23 48.390625 18.546875 47.265625 
Q 14.109375 46.140625 10.015625 43.890625 
L 10.015625 52.203125 
Q 14.9375 54.109375 19.578125 55.046875 
Q 24.21875 56 28.609375 56 
Q 40.484375 56 46.34375 49.84375 
Q 52.203125 43.703125 52.203125 31.203125 
z
" id="DejaVuSans-97"/>
     <path d="M 9.421875 75.984375 
L 18.40625 75.984375 
L 18.40625 0 
L 9.421875 0 
z
" id="DejaVuSans-108"/>
     <path d="M 19.671875 64.796875 
L 19.671875 8.109375 
L 31.59375 8.109375 
Q 46.6875 8.109375 53.6875 14.9375 
Q 60.6875 21.78125 60.6875 36.53125 
Q 60.6875 51.171875 53.6875 57.984375 
Q 46.6875 64.796875 31.59375 64.796875 
z
M 9.8125 72.90625 
L 30.078125 72.90625 
Q 51.265625 72.90625 61.171875 64.09375 
Q 71.09375 55.28125 71.09375 36.53125 
Q 71.09375 17.671875 61.125 8.828125 
Q 51.171875 0 30.078125 0 
L 9.8125 0 
z
" id="DejaVuSans-68"/>
     <path d="M 45.40625 27.984375 
Q 45.40625 37.75 41.375 43.109375 
Q 37.359375 48.484375 30.078125 48.484375 
Q 22.859375 48.484375 18.828125 43.109375 
Q 14.796875 37.75 14.796875 27.984375 
Q 14.796875 18.265625 18.828125 12.890625 
Q 22.859375 7.515625 30.078125 7.515625 
Q 37.359375 7.515625 41.375 12.890625 
Q 45.40625 18.265625 45.40625 27.984375 
z
M 54.390625 6.78125 
Q 54.390625 -7.171875 48.1875 -13.984375 
Q 42 -20.796875 29.203125 -20.796875 
Q 24.46875 -20.796875 20.265625 -20.09375 
Q 16.0625 -19.390625 12.109375 -17.921875 
L 12.109375 -9.1875 
Q 16.0625 -11.328125 19.921875 -12.34375 
Q 23.78125 -13.375 27.78125 -13.375 
Q 36.625 -13.375 41.015625 -8.765625 
Q 45.40625 -4.15625 45.40625 5.171875 
L 45.40625 9.625 
Q 42.625 4.78125 38.28125 2.390625 
Q 33.9375 0 27.875 0 
Q 17.828125 0 11.671875 7.65625 
Q 5.515625 15.328125 5.515625 27.984375 
Q 5.515625 40.671875 11.671875 48.328125 
Q 17.828125 56 27.875 56 
Q 33.9375 56 38.28125 53.609375 
Q 42.625 51.21875 45.40625 46.390625 
L 45.40625 54.6875 
L 54.390625 54.6875 
z
" id="DejaVuSans-103"/>
     <path d="M 41.109375 46.296875 
Q 39.59375 47.171875 37.8125 47.578125 
Q 36.03125 48 33.890625 48 
Q 26.265625 48 22.1875 43.046875 
Q 18.109375 38.09375 18.109375 28.8125 
L 18.109375 0 
L 9.078125 0 
L 9.078125 54.6875 
L 18.109375 54.6875 
L 18.109375 46.1875 
Q 20.953125 51.171875 25.484375 53.578125 
Q 30.03125 56 36.53125 56 
Q 37.453125 56 38.578125 55.875 
Q 39.703125 55.765625 41.0625 55.515625 
z
" id="DejaVuSans-114"/>
     <path d="M 9.421875 54.6875 
L 18.40625 54.6875 
L 18.40625 0 
L 9.421875 0 
z
M 9.421875 75.984375 
L 18.40625 75.984375 
L 18.40625 64.59375 
L 9.421875 64.59375 
z
" id="DejaVuSans-105"/>
     <path d="M 10.6875 12.40625 
L 21 12.40625 
L 21 0 
L 10.6875 0 
z
" id="DejaVuSans-46"/>
    </defs>
    <g transform="translate(49.741875 35.472)scale(0.12 -0.12)">
     <use xlink:href="#DejaVuSans-40"/>
     <use x="39.013672" xlink:href="#DejaVuSans-51"/>
     <use x="102.636719" xlink:href="#DejaVuSans-55"/>
     <use x="166.259766" xlink:href="#DejaVuSans-41"/>
     <use x="205.273438" xlink:href="#DejaVuSans-32"/>
     <use x="237.060547" xlink:href="#DejaVuSans-83"/>
     <use x="300.537109" xlink:href="#DejaVuSans-117"/>
     <use x="363.916016" xlink:href="#DejaVuSans-98"/>
     <use x="427.392578" xlink:href="#DejaVuSans-106"/>
     <use x="455.175781" xlink:href="#DejaVuSans-101"/>
     <use x="516.699219" xlink:href="#DejaVuSans-99"/>
     <use x="571.679688" xlink:href="#DejaVuSans-116"/>
     <use x="610.888672" xlink:href="#DejaVuSans-58"/>
     <use x="644.580078" xlink:href="#DejaVuSans-32"/>
     <use x="676.367188" xlink:href="#DejaVuSans-115"/>
     <use x="728.466797" xlink:href="#DejaVuSans-49"/>
     <use x="792.089844" xlink:href="#DejaVuSans-51"/>
     <use x="855.712891" xlink:href="#DejaVuSans-44"/>
     <use x="887.5" xlink:href="#DejaVuSans-32"/>
     <use x="919.287109" xlink:href="#DejaVuSans-75"/>
     <use x="984.863281" xlink:href="#DejaVuSans-110"/>
     <use x="1048.242188" xlink:href="#DejaVuSans-111"/>
     <use x="1109.423828" xlink:href="#DejaVuSans-119"/>
     <use x="1191.210938" xlink:href="#DejaVuSans-110"/>
     <use x="1254.589844" xlink:href="#DejaVuSans-32"/>
     <use x="1286.376953" xlink:href="#DejaVuSans-61"/>
     <use x="1370.166016" xlink:href="#DejaVuSans-32"/>
     <use x="1401.953125" xlink:href="#DejaVuSans-70"/>
     <use x="1459.332031" xlink:href="#DejaVuSans-97"/>
     <use x="1520.611328" xlink:href="#DejaVuSans-108"/>
     <use x="1548.394531" xlink:href="#DejaVuSans-115"/>
     <use x="1600.494141" xlink:href="#DejaVuSans-101"/>
     <use x="1662.017578" xlink:href="#DejaVuSans-44"/>
     <use x="1693.804688" xlink:href="#DejaVuSans-32"/>
     <use x="1725.591797" xlink:href="#DejaVuSans-68"/>
     <use x="1802.59375" xlink:href="#DejaVuSans-101"/>
     <use x="1864.117188" xlink:href="#DejaVuSans-103"/>
     <use x="1927.59375" xlink:href="#DejaVuSans-114"/>
     <use x="1968.675781" xlink:href="#DejaVuSans-101"/>
     <use x="2030.199219" xlink:href="#DejaVuSans-101"/>
     <use x="2091.722656" xlink:href="#DejaVuSans-32"/>
     <use x="2123.509766" xlink:href="#DejaVuSans-61"/>
     <use x="2207.298828" xlink:href="#DejaVuSans-32"/>
     <use x="2239.085938" xlink:href="#DejaVuSans-50"/>
     <use x="2302.708984" xlink:href="#DejaVuSans-44"/>
     <use x="2334.496094" xlink:href="#DejaVuSans-32"/>
     <use x="2366.283203" xlink:href="#DejaVuSans-68"/>
     <use x="2443.285156" xlink:href="#DejaVuSans-117"/>
     <use x="2506.664062" xlink:href="#DejaVuSans-114"/>
     <use x="2547.777344" xlink:href="#DejaVuSans-97"/>
     <use x="2609.056641" xlink:href="#DejaVuSans-116"/>
     <use x="2648.265625" xlink:href="#DejaVuSans-105"/>
     <use x="2676.048828" xlink:href="#DejaVuSans-111"/>
     <use x="2737.230469" xlink:href="#DejaVuSans-110"/>
     <use x="2800.609375" xlink:href="#DejaVuSans-32"/>
     <use x="2832.396484" xlink:href="#DejaVuSans-61"/>
     <use x="2916.185547" xlink:href="#DejaVuSans-32"/>
     <use x="2947.972656" xlink:href="#DejaVuSans-48"/>
     <use x="3011.595703" xlink:href="#DejaVuSans-46"/>
     <use x="3043.382812" xlink:href="#DejaVuSans-49"/>
    </g>
   </g>
  </g>
 </g>
 <defs>
  <clipPath id="p266b03734c">
   <rect height="266.112" width="357.12" x="57.6" y="41.472"/>
  </clipPath>
 </defs>
</svg>
