<?xml version="1.0" encoding="utf-8" standalone="no"?>
<!DOCTYPE svg PUBLIC "-//W3C//DTD SVG 1.1//EN"
  "http://www.w3.org/Graphics/SVG/1.1/DTD/svg11.dtd">
<!-- Created with matplotlib (https://matplotlib.org/) -->
<svg height="345.6pt" version="1.1" viewBox="0 0 460.8 345.6" width="460.8pt" xmlns="http://www.w3.org/2000/svg" xmlns:xlink="http://www.w3.org/1999/xlink">
 <defs>
  <style type="text/css">
*{stroke-linecap:butt;stroke-linejoin:round;}
  </style>
 </defs>
 <g id="figure_1">
  <g id="patch_1">
   <path d="M 0 345.6 
L 460.8 345.6 
L 460.8 0 
L 0 0 
z
" style="fill:#ffffff;"/>
  </g>
  <g id="axes_1">
   <g id="patch_2">
    <path d="M 57.6 307.584 
L 414.72 307.584 
L 414.72 41.472 
L 57.6 41.472 
z
" style="fill:#ffffff;"/>
   </g>
   <g id="line2d_1">
    <path clip-path="url(#p5d6f95b971)" d="M 395.924908 65.319239 
L 395.627635 65.319239 
L 395.43053 65.632962 
L 395.627635 66.101876 
L 395.627635 66.258738 
L 395.627635 65.945015 
L 396.021845 65.632962 
L 396.021845 65.788154 
L 395.82474 66.101876 
L 395.43053 66.415599 
L 395.233425 66.258738 
L 395.627635 65.319239 
L 396.021845 64.534933 
L 396.21895 64.534933 
L 396.021845 64.691794 
L 395.82474 64.378072 
L 395.82474 64.534933 
L 395.627635 65.162378 
L 395.727803 65.4761 
L 396.021845 64.848656 
L 395.924908 64.691794 
L 395.727803 64.691794 
L 395.530698 64.848656 
L 395.627635 64.378072 
L 395.924908 63.595435 
L 396.021845 63.595435 
L 396.21895 63.438574 
L 396.61316 62.028492 
L 396.416055 61.87163 
L 396.122013 62.028492 
L 396.122013 62.96799 
L 396.122013 61.557908 
L 396.21895 61.714769 
L 396.416055 61.87163 
L 396.516223 61.088993 
L 396.713328 60.932132 
L 396.61316 60.304687 
L 396.713328 60.461549 
L 397.00737 60.304687 
L 397.107538 59.835773 
L 396.810265 59.678911 
L 396.713328 59.678911 
L 396.713328 59.678911 
L 396.713328 60.147826 
L 396.810265 59.678911 
L 397.00737 59.051467 
L 397.00737 58.580883 
L 397.107538 58.737744 
L 397.204475 58.894605 
L 397.107538 58.894605 
L 397.00737 59.051467 
L 397.107538 59.051467 
L 397.40158 59.051467 
L 397.79579 58.894605 
L 397.79579 58.894605 
L 397.598685 58.580883 
L 397.79579 58.268829 
L 397.501748 58.111968 
L 397.598685 58.111968 
L 397.79579 58.111968 
L 397.895958 57.798246 
L 397.79579 57.484523 
L 397.501748 57.798246 
L 397.501748 57.641385 
L 397.895958 56.388164 
L 397.79579 56.074442 
L 397.598685 56.074442 
L 397.698853 57.170801 
L 397.698853 57.170801 
L 397.79579 56.701886 
L 397.698853 56.231303 
L 397.698853 56.231303 
L 397.598685 56.388164 
L 397.698853 56.545025 
L 397.992895 56.545025 
L 398.19 56.231303 
L 398.19 55.91758 
L 398.290168 55.91758 
L 398.487273 56.545025 
L 398.290168 56.545025 
L 398.093063 56.388164 
L 397.992895 55.91758 
L 397.79579 55.760719 
L 397.40158 55.760719 
L 395.727803 54.978082 
L 394.445005 54.821221 
L 393.362543 54.978082 
L 389.320275 54.350637 
L 387.449393 53.881722 
L 385.57528 53.724861 
L 383.407125 53.881722 
L 381.142033 54.193776 
L 378.973878 54.350637 
L 374.043022 53.724861 
L 371.38372 53.568 
L 368.918292 53.568 
L 366.355927 54.036915 
L 363.696625 54.350637 
L 360.639882 54.350637 
L 357.289098 54.036915 
L 353.938313 54.350637 
L 350.48736 54.821221 
L 346.93947 55.134943 
L 343.39158 55.603858 
L 339.746753 56.388164 
L 335.90159 57.01394 
L 323.778017 59.835773 
L 315.79688 61.088993 
L 311.854781 61.87163 
L 303.770245 63.752296 
L 299.828145 64.534933 
L 295.886045 65.005517 
L 291.847008 65.319239 
L 287.80474 65.945015 
L 280.511855 68.139403 
L 273.021865 69.392624 
L 269.176702 70.488983 
L 265.431707 71.742204 
L 251.634358 75.503535 
L 248.183405 76.756756 
L 244.735683 77.853115 
L 237.933945 79.420059 
L 234.780265 80.516418 
L 231.82369 81.928169 
L 229.161157 83.338251 
L 219.503012 87.725358 
L 217.926172 88.978579 
L 214.475219 92.112465 
L 214.181177 93.051963 
L 214.378282 93.522547 
L 214.575387 93.679408 
L 215.463976 95.08949 
L 215.758017 95.08949 
L 216.546437 94.775768 
L 216.743542 95.244682 
L 216.646605 95.244682 
L 216.349332 95.08949 
L 216.349332 95.244682 
L 215.758017 96.028988 
L 215.661081 95.872127 
L 215.955122 96.18585 
L 216.055291 96.028988 
L 216.055291 96.028988 
L 216.152227 96.18585 
L 215.955122 96.028988 
L 215.858186 96.028988 
L 215.758017 96.968487 
L 215.560912 97.752793 
L 215.661081 97.752793 
L 215.758017 97.909654 
L 215.661081 98.378569 
L 215.463976 98.378569 
L 215.166702 99.006013 
L 215.066534 100.259234 
L 215.166702 99.788651 
L 214.772492 101.04354 
L 214.869429 101.04354 
L 215.066534 101.198733 
L 215.166702 101.512455 
L 214.869429 101.826177 
L 214.772492 102.1399 
L 215.066534 103.236259 
L 214.869429 103.39312 
L 214.869429 103.39312 
L 215.066534 103.706843 
L 215.166702 104.175758 
L 214.969597 104.48948 
L 214.575387 104.48948 
L 214.575387 104.646341 
L 214.278114 105.273786 
L 214.278114 105.430647 
L 214.575387 105.430647 
L 214.772492 105.58584 
L 214.772492 105.742701 
L 214.672324 105.742701 
L 214.475219 106.213284 
L 214.575387 106.99759 
L 214.378282 106.99759 
L 214.278114 106.840729 
L 214.575387 106.840729 
L 214.672324 106.99759 
L 214.575387 108.250811 
L 214.575387 108.250811 
L 214.475219 107.937089 
L 214.278114 108.250811 
L 214.181177 108.876587 
L 214.475219 109.033448 
L 214.772492 108.876587 
L 214.772492 108.876587 
L 214.869429 108.562865 
L 214.772492 108.562865 
L 214.575387 108.719726 
L 214.575387 109.660893 
L 214.575387 109.033448 
L 214.772492 108.876587 
L 214.869429 109.190309 
L 214.475219 109.972947 
L 214.672324 110.757253 
L 214.869429 110.757253 
L 215.166702 110.44353 
L 215.263639 109.972947 
L 215.263639 109.972947 
L 214.672324 110.914114 
L 215.066534 110.44353 
L 215.066534 110.600391 
L 214.869429 110.757253 
L 214.672324 110.757253 
L 214.278114 110.600391 
L 213.686799 110.600391 
L 212.898379 110.914114 
L 212.109959 111.53989 
L 210.239078 113.420555 
L 209.253553 114.361722 
L 208.167859 115.771804 
L 207.182334 117.338747 
L 206.19681 119.374605 
L 203.931718 123.291129 
L 201.269185 129.872624 
L 199.989618 133.632286 
L 199.201198 135.512952 
L 198.609883 137.236756 
L 198.018568 138.489977 
L 197.427253 140.05692 
L 196.34156 145.071472 
L 195.55314 148.048497 
L 195.061993 151.025522 
L 194.567615 156.979572 
L 193.879363 168.417089 
L 193.58209 175.310637 
L 193.288048 180.011467 
L 193.682258 184.398574 
L 193.682258 186.279239 
L 192.893838 193.48651 
L 192.696733 199.283699 
L 192.596565 202.8865 
L 192.202355 204.453443 
L 191.707977 205.708333 
L 191.61104 206.961554 
L 191.707977 209.938579 
L 191.313767 212.131298 
L 190.42841 215.578906 
L 190.131137 217.771626 
L 189.837095 218.555931 
L 189.24578 222.786177 
L 189.342717 224.196259 
L 189.539822 224.35312 
L 189.539822 225.135758 
L 189.342717 226.233786 
L 188.948507 227.173284 
L 188.85157 228.112783 
L 188.751402 228.740227 
L 188.357192 229.836587 
L 188.45736 230.620893 
L 188.357192 232.030975 
L 188.654465 232.343029 
L 188.554297 232.656751 
L 188.751402 233.754779 
L 188.554297 234.380555 
L 188.751402 234.066833 
L 189.145612 236.261221 
L 188.554297 236.418082 
L 188.85157 236.418082 
L 189.145612 238.297079 
L 189.048675 238.45394 
L 189.145612 238.45394 
L 189.145612 238.610801 
L 189.145612 238.45394 
L 189.342717 238.45394 
L 189.342717 238.610801 
L 189.24578 238.610801 
L 189.048675 239.081385 
L 189.145612 239.551968 
L 189.24578 240.020883 
L 189.24578 239.864022 
L 189.145612 241.744687 
L 189.048675 241.744687 
L 188.948507 241.587826 
L 188.85157 241.901549 
L 188.948507 242.05841 
L 189.048675 241.587826 
L 188.948507 242.215271 
L 189.048675 242.997908 
L 189.342717 243.31163 
L 189.539822 243.31163 
L 189.24578 242.997908 
L 188.85157 243.31163 
L 188.948507 243.625353 
L 189.442885 243.625353 
L 189.442885 243.625353 
L 189.342717 243.939075 
L 189.63999 243.625353 
L 189.539822 243.939075 
L 189.145612 244.40799 
L 188.948507 245.035435 
L 189.342717 245.974933 
L 189.24578 245.661211 
L 189.342717 245.661211 
L 188.85157 245.661211 
L 188.948507 247.228154 
L 189.145612 247.541876 
L 188.751402 246.9161 
L 188.948507 247.228154 
L 189.145612 247.855599 
L 189.048675 248.01246 
L 189.048675 248.01246 
L 188.948507 247.855599 
L 188.948507 247.855599 
L 188.948507 247.541876 
L 188.85157 248.01246 
L 188.751402 248.483043 
L 188.85157 248.326182 
L 189.048675 248.326182 
L 189.24578 248.638236 
L 189.048675 248.951958 
L 189.145612 248.638236 
L 188.948507 248.795097 
L 188.654465 249.893125 
L 188.160087 249.893125 
L 187.471835 249.422542 
L 186.48631 248.951958 
L 181.36158 248.483043 
L 179.587635 248.01246 
L 177.222375 247.698738 
L 165.984159 247.698738 
L 160.268114 247.071293 
L 157.31154 247.228154 
L 154.354965 247.541876 
L 148.441815 247.541876 
L 145.288135 248.326182 
L 142.134455 248.951958 
L 138.880607 249.265681 
L 135.62999 249.422542 
L 132.279205 249.736264 
L 128.731315 250.36204 
L 125.083257 251.303207 
L 121.338262 252.085845 
L 117.690204 252.713289 
L 114.045377 253.182204 
L 107.146703 254.435425 
L 86.74472 260.234283 
L 84.476397 260.703197 
L 82.505347 261.330642 
L 79.351667 262.897585 
L 78.0721 263.837084 
L 77.083344 264.933443 
L 76.000882 265.717749 
L 75.803777 266.657248 
L 75.703609 267.441554 
L 75.803777 267.910468 
L 76.097819 268.381052 
L 76.395092 269.165358 
L 76.492029 269.165358 
L 76.492029 269.165358 
L 76.986407 270.104856 
L 77.083344 270.730632 
L 76.886239 271.985522 
L 76.789302 271.985522 
L 76.886239 271.985522 
L 76.789302 272.297575 
L 76.886239 272.611298 
L 76.789302 273.707657 
L 76.097819 275.588323 
L 76.197987 275.588323 
L 76.294924 276.215768 
L 76.492029 276.841544 
L 76.395092 277.468988 
L 76.197987 277.62585 
L 76.000882 277.62585 
L 76.097819 278.722209 
L 75.900714 278.565348 
L 75.703609 278.565348 
L 75.409567 278.87907 
L 75.506504 279.192793 
L 75.803777 279.349654 
L 75.900714 279.818569 
L 75.803777 280.446013 
L 75.212462 281.385512 
L 75.309399 282.169818 
L 75.409567 282.638733 
L 75.606672 282.952455 
L 75.409567 282.638733 
L 75.212462 282.795594 
L 75.015357 283.423038 
L 75.112294 284.205676 
L 75.212462 284.205676 
L 75.112294 284.205676 
L 75.015357 284.676259 
L 74.818252 284.989982 
L 74.818252 285.303704 
L 75.015357 285.303704 
L 75.015357 285.458896 
L 74.718084 285.615758 
L 74.520979 285.92948 
L 74.718084 286.086341 
L 75.112294 285.92948 
L 75.309399 286.243202 
L 74.818252 287.02584 
L 74.915189 286.868978 
L 75.212462 286.868978 
L 75.112294 287.653284 
L 74.718084 288.280729 
L 75.212462 287.653284 
L 75.309399 288.123868 
L 75.506504 288.280729 
L 75.112294 289.220227 
L 75.015357 289.063366 
L 75.015357 290.159726 
L 75.212462 290.473448 
L 75.409567 290.473448 
L 75.606672 290.316587 
L 75.506504 290.473448 
L 74.915189 291.412947 
L 75.015357 291.412947 
L 75.212462 291.412947 
L 75.309399 291.569808 
L 75.212462 291.569808 
L 75.015357 291.726669 
L 74.818252 292.040391 
L 74.818252 292.510975 
L 75.112294 292.510975 
L 75.015357 292.040391 
L 74.818252 291.726669 
L 74.621147 292.040391 
L 74.621147 292.667836 
L 74.915189 293.136751 
L 74.818252 293.136751 
L 74.323874 293.136751 
L 74.323874 292.97989 
L 74.424042 292.97989 
L 74.520979 292.667836 
L 74.029832 292.97989 
L 73.929664 292.510975 
L 73.832727 292.823029 
L 74.323874 292.823029 
L 74.323874 292.823029 
L 74.424042 292.354114 
L 74.718084 292.354114 
L 74.818252 292.510975 
L 74.718084 292.823029 
L 74.818252 292.197253 
L 74.718084 291.569808 
L 74.818252 291.726669 
L 74.621147 291.88353 
L 74.520979 291.412947 
L 74.621147 291.100893 
L 74.915189 291.257754 
L 75.112294 291.569808 
L 75.309399 291.569808 
L 75.506504 291.257754 
L 75.409567 291.257754 
L 75.212462 291.412947 
L 75.015357 291.412947 
L 75.015357 291.569808 
L 75.112294 291.569808 
L 75.309399 291.569808 
L 75.606672 290.944032 
L 75.606672 291.100893 
L 75.803777 290.787171 
L 75.606672 290.630309 
L 75.112294 290.630309 
L 75.409567 290.787171 
L 75.703609 291.412947 
L 75.900714 291.257754 
L 75.900714 290.944032 
L 76.000882 291.726669 
L 76.097819 291.569808 
L 76.197987 290.787171 
L 76.395092 290.944032 
L 76.492029 291.257754 
L 76.492029 291.726669 
L 76.492029 290.316587 
L 76.592197 290.630309 
L 76.689134 290.159726 
L 76.986407 290.159726 
L 77.67789 290.473448 
L 77.577722 290.002865 
L 77.380617 290.002865 
L 76.986407 290.630309 
L 77.480785 289.846003 
L 77.774827 290.316587 
L 77.874995 290.159726 
L 77.774827 289.846003 
L 77.874995 290.316587 
L 77.774827 290.316587 
L 77.67789 289.846003 
L 77.874995 289.846003 
L 78.366142 290.473448 
L 78.169037 290.473448 
L 77.971932 290.316587 
L 77.971932 289.063366 
L 78.0721 289.063366 
L 78.269205 288.906505 
L 78.46631 289.063366 
L 78.563247 289.53395 
L 78.760352 288.749644 
L 78.760352 288.749644 
L 78.957457 289.063366 
L 78.86052 289.220227 
L 78.46631 288.906505 
L 78.366142 289.063366 
L 78.760352 288.592783 
L 78.563247 288.749644 
L 78.46631 288.280729 
L 78.563247 287.967007 
L 78.760352 288.592783 
L 78.663415 288.749644 
L 78.46631 288.749644 
L 78.46631 288.749644 
L 78.86052 288.280729 
L 79.25473 287.967007 
L 79.057625 287.496423 
L 79.25473 286.868978 
L 79.25473 286.868978 
L 79.351667 287.182701 
L 79.25473 287.182701 
L 79.057625 287.339562 
L 78.86052 287.02584 
L 78.760352 286.400064 
L 78.86052 286.243202 
L 79.25473 286.556925 
L 79.451835 287.02584 
L 79.351667 287.339562 
L 79.154562 287.02584 
L 79.25473 285.303704 
L 79.846045 285.146843 
L 80.634465 282.952455 
L 82.308242 279.504846 
L 85.461922 273.552465 
L 86.547615 271.044355 
L 87.53314 268.381052 
L 88.71577 265.87461 
L 95.81155 255.219731 
L 99.75365 250.518901 
L 101.824868 247.855599 
L 106.06101 241.901549 
L 117.098889 225.920064 
L 120.843884 219.181707 
L 122.323787 216.04949 
L 125.183425 208.997411 
L 126.95737 205.551472 
L 129.025357 202.103863 
L 130.996407 198.344201 
L 133.856045 190.666346 
L 136.318242 183.459075 
L 137.697977 180.168328 
L 138.980775 176.720719 
L 141.54314 167.475922 
L 142.72577 164.500565 
L 143.711295 161.366679 
L 145.682345 152.747657 
L 146.470765 149.144856 
L 147.45629 146.324692 
L 147.653395 145.383525 
L 147.556458 144.757749 
L 147.8505 144.130304 
L 149.03313 143.190806 
L 149.133298 143.347667 
L 149.230235 144.287166 
L 149.330403 144.444027 
L 149.230235 144.444027 
L 148.936193 144.130304 
L 149.03313 143.973443 
L 149.330403 143.973443 
L 149.624445 144.444027 
L 149.921718 143.347667 
L 150.513033 142.251308 
L 151.301453 141.153279 
L 151.498558 140.996418 
L 151.498558 140.996418 
L 151.104348 140.370642 
L 151.201285 140.213781 
L 151.301453 140.684365 
L 151.201285 140.841226 
L 151.104348 141.310141 
L 151.201285 141.310141 
L 151.498558 140.996418 
L 151.595495 140.370642 
L 151.39839 140.05692 
L 151.498558 140.213781 
L 151.695663 139.900059 
L 151.301453 140.841226 
L 151.498558 140.527503 
L 151.595495 140.213781 
L 151.695663 139.586336 
L 151.892768 140.370642 
L 151.989705 140.213781 
L 152.286978 139.900059 
L 152.286978 139.586336 
L 152.18681 139.586336 
L 152.089873 139.743197 
L 152.286978 140.213781 
L 151.989705 140.213781 
L 151.892768 140.05692 
L 151.989705 140.213781 
L 152.18681 140.213781 
L 152.089873 140.527503 
L 151.989705 140.527503 
L 151.892768 140.370642 
L 151.989705 140.370642 
L 152.286978 140.370642 
L 152.58102 140.527503 
L 152.383915 140.527503 
L 152.089873 140.684365 
L 152.089873 140.841226 
L 152.18681 140.841226 
L 152.286978 140.996418 
L 152.286978 140.996418 
L 152.089873 141.467002 
L 151.989705 141.310141 
L 151.989705 140.684365 
L 152.089873 141.310141 
L 152.484083 141.310141 
L 152.383915 141.310141 
L 152.383915 140.841226 
L 152.286978 141.937585 
L 152.18681 142.094446 
L 152.18681 141.937585 
L 152.18681 141.780724 
L 152.383915 141.780724 
L 152.484083 141.623863 
L 152.286978 141.310141 
L 152.484083 141.310141 
L 152.484083 141.153279 
L 152.286978 140.996418 
L 152.286978 140.684365 
L 152.484083 140.370642 
L 152.383915 140.684365 
L 152.484083 140.684365 
L 152.484083 140.527503 
L 152.089873 140.527503 
L 152.286978 140.370642 
L 152.383915 141.467002 
L 152.878293 141.153279 
L 152.58102 140.841226 
L 152.681188 140.527503 
L 152.383915 140.527503 
L 152.383915 140.684365 
L 152.58102 140.684365 
L 152.681188 140.841226 
L 152.681188 140.841226 
L 152.97523 140.841226 
L 153.075398 140.684365 
L 152.878293 140.996418 
L 152.97523 140.996418 
L 153.075398 141.153279 
L 152.681188 141.153279 
L 152.58102 141.467002 
L 152.681188 141.780724 
L 152.878293 141.937585 
L 152.97523 141.623863 
L 152.878293 140.841226 
L 152.878293 141.153279 
L 152.778125 141.310141 
L 153.172335 140.841226 
L 153.172335 141.310141 
L 153.272503 141.310141 
L 153.36944 141.310141 
L 153.469608 141.467002 
L 153.272503 141.153279 
L 153.172335 141.937585 
L 152.681188 142.4065 
L 152.878293 142.094446 
L 153.36944 141.937585 
L 153.863818 142.4065 
L 153.76365 141.937585 
L 153.666713 141.937585 
L 153.666713 141.937585 
L 153.863818 141.623863 
L 154.060923 141.623863 
L 153.666713 142.094446 
L 153.36944 141.937585 
L 153.469608 141.937585 
L 153.469608 142.4065 
L 153.469608 141.780724 
L 153.36944 142.094446 
L 153.272503 142.094446 
L 153.075398 142.251308 
L 153.36944 142.877084 
L 153.272503 142.720222 
L 153.469608 142.563361 
L 153.666713 142.563361 
L 153.863818 142.720222 
L 153.76365 142.563361 
L 153.666713 142.251308 
L 153.76365 142.4065 
L 153.863818 142.094446 
L 153.76365 143.190806 
L 153.863818 142.563361 
L 153.960755 142.251308 
L 153.863818 142.251308 
L 153.76365 142.251308 
L 153.76365 142.563361 
L 153.76365 142.563361 
L 154.258028 142.563361 
L 154.15786 142.877084 
L 153.76365 143.033945 
L 153.566545 142.877084 
L 153.469608 142.4065 
L 153.666713 142.094446 
L 153.863818 142.251308 
L 154.060923 142.251308 
L 153.960755 142.251308 
L 153.666713 142.877084 
L 153.76365 142.563361 
L 153.566545 141.937585 
L 153.469608 141.780724 
L 153.666713 141.937585 
L 153.863818 141.937585 
L 153.863818 141.937585 
L 154.060923 142.4065 
L 153.960755 142.563361 
L 153.76365 142.251308 
L 153.863818 141.937585 
L 153.666713 141.780724 
L 153.666713 142.720222 
L 153.76365 141.310141 
L 153.566545 141.780724 
L 153.469608 142.251308 
L 153.566545 142.4065 
L 153.36944 142.720222 
L 153.566545 143.190806 
L 153.272503 142.563361 
L 153.566545 142.094446 
L 153.36944 141.623863 
L 153.272503 141.780724 
L 153.36944 142.4065 
L 153.666713 142.251308 
L 153.76365 141.937585 
L 153.666713 142.094446 
L 153.36944 142.563361 
L 152.778125 141.780724 
L 152.778125 141.937585 
L 152.681188 142.251308 
L 152.778125 142.094446 
L 152.878293 142.251308 
L 152.878293 143.033945 
L 153.075398 143.190806 
L 153.172335 143.033945 
L 152.878293 142.251308 
L 152.681188 142.563361 
L 152.778125 142.563361 
L 152.97523 142.4065 
L 153.075398 142.563361 
L 152.97523 142.720222 
L 152.58102 142.720222 
L 152.97523 142.720222 
L 153.075398 142.877084 
L 152.97523 143.818251 
L 152.878293 143.818251 
L 152.286978 143.504528 
L 152.484083 143.347667 
L 152.681188 143.504528 
L 152.58102 143.504528 
L 152.484083 143.66139 
L 152.878293 143.033945 
L 152.878293 143.190806 
L 153.075398 143.818251 
L 152.58102 144.287166 
L 152.18681 144.287166 
L 151.989705 144.444027 
L 152.286978 144.287166 
L 152.484083 144.287166 
L 152.484083 144.287166 
L 152.089873 145.071472 
L 152.18681 145.071472 
L 152.383915 144.91461 
L 152.383915 144.757749 
L 152.681188 144.91461 
L 152.681188 144.91461 
L 152.878293 144.91461 
L 152.878293 145.071472 
L 152.878293 145.071472 
L 153.960755 145.071472 
L 154.849343 144.91461 
L 155.637763 144.600888 
L 156.52312 144.600888 
L 159.185653 145.697248 
L 160.662324 146.638415 
L 162.142228 147.734774 
L 163.816004 149.144856 
L 165.493012 150.711799 
L 167.069852 152.435604 
L 168.646692 154.785184 
L 170.223532 157.448487 
L 171.997477 159.642875 
L 178.304837 166.222701 
L 182.54421 169.984032 
L 186.88052 174.840054 
L 194.076468 182.204186 
L 196.34156 185.181211 
L 199.004093 188.315097 
L 201.960668 191.448983 
L 204.720138 194.739731 
L 207.182334 198.344201 
L 212.109959 204.924027 
L 217.23792 211.034938 
L 222.559755 216.04949 
L 226.69896 221.062373 
L 228.569842 222.943038 
L 230.343787 224.509982 
L 232.020795 226.702701 
L 233.497467 229.05395 
L 234.97737 230.620893 
L 236.357105 232.343029 
L 243.750158 243.31163 
L 244.538578 245.192296 
L 244.83262 247.071293 
L 244.932788 249.265681 
L 244.635515 254.906008 
L 244.241305 256.629813 
L 243.553053 258.510478 
L 243.355948 260.389475 
L 243.64999 263.3665 
L 243.452885 264.464528 
L 242.46736 267.598415 
L 241.976213 269.165358 
L 242.07315 271.828661 
L 242.173318 272.611298 
L 242.07315 273.552465 
L 241.481835 276.372629 
L 241.67894 276.841544 
L 241.67894 278.408487 
L 241.976213 280.289152 
L 241.876045 282.012957 
L 241.779108 284.048815 
L 241.876045 284.362537 
L 241.67894 284.362537 
L 241.481835 284.83312 
L 241.582003 286.400064 
L 241.481835 286.400064 
L 241.582003 286.713786 
L 241.187793 289.690811 
L 241.481835 290.316587 
L 241.876045 290.630309 
L 242.07315 291.412947 
L 242.173318 291.257754 
L 242.07315 291.726669 
L 241.976213 291.569808 
L 241.779108 291.569808 
L 241.582003 291.726669 
L 242.173318 292.510975 
L 242.664465 293.136751 
L 242.664465 293.293612 
L 242.567528 292.510975 
L 242.46736 292.667836 
L 242.764633 293.293612 
L 243.058675 293.607334 
L 243.158843 293.450473 
L 243.355948 293.607334 
L 243.452885 293.607334 
L 243.355948 293.607334 
L 243.058675 293.921057 
L 243.058675 294.233111 
L 243.452885 294.546833 
L 243.452885 294.389972 
L 243.553053 294.389972 
L 243.947263 294.389972 
L 243.847095 294.389972 
L 243.847095 294.546833 
L 243.750158 294.233111 
L 243.64999 294.077918 
L 243.553053 294.233111 
L 243.64999 294.546833 
L 244.0442 294.546833 
L 244.635515 294.077918 
L 244.43841 294.233111 
L 244.241305 293.607334 
L 244.0442 294.546833 
L 244.341473 295.174278 
L 244.635515 294.389972 
L 244.83262 294.546833 
L 244.735683 295.488 
L 244.635515 295.488 
L 244.735683 294.860555 
L 244.635515 294.546833 
L 244.538578 294.703694 
L 244.635515 294.703694 
L 244.932788 294.389972 
L 245.029725 294.233111 
L 245.326998 295.017416 
L 245.423935 294.860555 
L 245.524103 293.764196 
L 245.423935 294.077918 
L 245.22683 294.233111 
L 245.326998 294.233111 
L 245.524103 294.389972 
L 245.721208 294.233111 
L 246.312523 293.921057 
L 246.509628 293.607334 
L 246.509628 293.293612 
L 246.212355 293.293612 
L 246.01525 293.607334 
L 245.818145 293.293612 
L 245.818145 293.293612 
L 246.212355 292.97989 
L 246.606565 292.354114 
L 246.509628 292.354114 
L 246.312523 292.197253 
L 246.115418 292.197253 
L 246.115418 292.040391 
L 246.312523 292.040391 
L 247.000775 291.726669 
L 247.100943 291.88353 
L 246.606565 291.88353 
L 246.509628 291.726669 
L 246.509628 291.88353 
L 246.212355 291.88353 
L 246.40946 292.040391 
L 246.80367 292.197253 
L 247.000775 292.040391 
L 246.606565 290.944032 
L 246.706733 291.100893 
L 246.903838 291.100893 
L 247.100943 291.412947 
L 247.19788 291.257754 
L 247.298048 290.787171 
L 247.692258 290.787171 
L 247.789195 290.630309 
L 247.692258 290.630309 
L 247.495153 290.316587 
L 247.495153 290.473448 
L 247.394985 290.787171 
L 247.495153 290.159726 
L 247.495153 290.316587 
L 247.692258 290.316587 
L 247.59209 290.316587 
L 247.298048 290.159726 
L 247.298048 290.002865 
L 247.394985 290.002865 
L 247.59209 290.002865 
L 247.59209 289.846003 
L 247.394985 289.53395 
L 247.394985 289.220227 
L 247.59209 288.906505 
L 247.889363 288.906505 
L 247.9863 289.063366 
L 247.889363 289.377089 
L 247.9863 289.377089 
L 248.38051 289.377089 
L 248.38051 289.220227 
L 248.480678 289.377089 
L 248.577615 289.690811 
L 248.480678 289.846003 
L 248.086468 290.002865 
L 248.086468 290.159726 
L 248.283573 290.159726 
L 248.38051 289.690811 
L 248.577615 289.220227 
L 248.677783 289.377089 
L 248.677783 289.53395 
L 248.874888 289.063366 
L 248.874888 289.063366 
" style="fill:none;stroke:#1f77b4;stroke-linecap:square;stroke-width:1.5;"/>
   </g>
   <g id="matplotlib.axis_1">
    <g id="xtick_1">
     <g id="line2d_2">
      <defs>
       <path d="M 0 0 
L 0 3.5 
" id="ma32bd2b688" style="stroke:#000000;stroke-width:0.8;"/>
      </defs>
      <g>
       <use style="stroke:#000000;stroke-width:0.8;" x="57.35992" xlink:href="#ma32bd2b688" y="307.584"/>
      </g>
     </g>
     <g id="text_1">
      <!-- −400 -->
      <defs>
       <path d="M 10.59375 35.5 
L 73.1875 35.5 
L 73.1875 27.203125 
L 10.59375 27.203125 
z
" id="DejaVuSans-8722"/>
       <path d="M 37.796875 64.3125 
L 12.890625 25.390625 
L 37.796875 25.390625 
z
M 35.203125 72.90625 
L 47.609375 72.90625 
L 47.609375 25.390625 
L 58.015625 25.390625 
L 58.015625 17.1875 
L 47.609375 17.1875 
L 47.609375 0 
L 37.796875 0 
L 37.796875 17.1875 
L 4.890625 17.1875 
L 4.890625 26.703125 
z
" id="DejaVuSans-52"/>
       <path d="M 31.78125 66.40625 
Q 24.171875 66.40625 20.328125 58.90625 
Q 16.5 51.421875 16.5 36.375 
Q 16.5 21.390625 20.328125 13.890625 
Q 24.171875 6.390625 31.78125 6.390625 
Q 39.453125 6.390625 43.28125 13.890625 
Q 47.125 21.390625 47.125 36.375 
Q 47.125 51.421875 43.28125 58.90625 
Q 39.453125 66.40625 31.78125 66.40625 
z
M 31.78125 74.21875 
Q 44.046875 74.21875 50.515625 64.515625 
Q 56.984375 54.828125 56.984375 36.375 
Q 56.984375 17.96875 50.515625 8.265625 
Q 44.046875 -1.421875 31.78125 -1.421875 
Q 19.53125 -1.421875 13.0625 8.265625 
Q 6.59375 17.96875 6.59375 36.375 
Q 6.59375 54.828125 13.0625 64.515625 
Q 19.53125 74.21875 31.78125 74.21875 
z
" id="DejaVuSans-48"/>
      </defs>
      <g transform="translate(43.626326 322.182437)scale(0.1 -0.1)">
       <use xlink:href="#DejaVuSans-8722"/>
       <use x="83.789062" xlink:href="#DejaVuSans-52"/>
       <use x="147.412109" xlink:href="#DejaVuSans-48"/>
       <use x="211.035156" xlink:href="#DejaVuSans-48"/>
      </g>
     </g>
    </g>
    <g id="xtick_2">
     <g id="line2d_3">
      <g>
       <use style="stroke:#000000;stroke-width:0.8;" x="121.984508" xlink:href="#ma32bd2b688" y="307.584"/>
      </g>
     </g>
     <g id="text_2">
      <!-- −200 -->
      <defs>
       <path d="M 19.1875 8.296875 
L 53.609375 8.296875 
L 53.609375 0 
L 7.328125 0 
L 7.328125 8.296875 
Q 12.9375 14.109375 22.625 23.890625 
Q 32.328125 33.6875 34.8125 36.53125 
Q 39.546875 41.84375 41.421875 45.53125 
Q 43.3125 49.21875 43.3125 52.78125 
Q 43.3125 58.59375 39.234375 62.25 
Q 35.15625 65.921875 28.609375 65.921875 
Q 23.96875 65.921875 18.8125 64.3125 
Q 13.671875 62.703125 7.8125 59.421875 
L 7.8125 69.390625 
Q 13.765625 71.78125 18.9375 73 
Q 24.125 74.21875 28.421875 74.21875 
Q 39.75 74.21875 46.484375 68.546875 
Q 53.21875 62.890625 53.21875 53.421875 
Q 53.21875 48.921875 51.53125 44.890625 
Q 49.859375 40.875 45.40625 35.40625 
Q 44.1875 33.984375 37.640625 27.21875 
Q 31.109375 20.453125 19.1875 8.296875 
z
" id="DejaVuSans-50"/>
      </defs>
      <g transform="translate(108.250914 322.182437)scale(0.1 -0.1)">
       <use xlink:href="#DejaVuSans-8722"/>
       <use x="83.789062" xlink:href="#DejaVuSans-50"/>
       <use x="147.412109" xlink:href="#DejaVuSans-48"/>
       <use x="211.035156" xlink:href="#DejaVuSans-48"/>
      </g>
     </g>
    </g>
    <g id="xtick_3">
     <g id="line2d_4">
      <g>
       <use style="stroke:#000000;stroke-width:0.8;" x="186.609097" xlink:href="#ma32bd2b688" y="307.584"/>
      </g>
     </g>
     <g id="text_3">
      <!-- 0 -->
      <g transform="translate(183.427847 322.182437)scale(0.1 -0.1)">
       <use xlink:href="#DejaVuSans-48"/>
      </g>
     </g>
    </g>
    <g id="xtick_4">
     <g id="line2d_5">
      <g>
       <use style="stroke:#000000;stroke-width:0.8;" x="251.233685" xlink:href="#ma32bd2b688" y="307.584"/>
      </g>
     </g>
     <g id="text_4">
      <!-- 200 -->
      <g transform="translate(241.689935 322.182437)scale(0.1 -0.1)">
       <use xlink:href="#DejaVuSans-50"/>
       <use x="63.623047" xlink:href="#DejaVuSans-48"/>
       <use x="127.246094" xlink:href="#DejaVuSans-48"/>
      </g>
     </g>
    </g>
    <g id="xtick_5">
     <g id="line2d_6">
      <g>
       <use style="stroke:#000000;stroke-width:0.8;" x="315.858274" xlink:href="#ma32bd2b688" y="307.584"/>
      </g>
     </g>
     <g id="text_5">
      <!-- 400 -->
      <g transform="translate(306.314524 322.182437)scale(0.1 -0.1)">
       <use xlink:href="#DejaVuSans-52"/>
       <use x="63.623047" xlink:href="#DejaVuSans-48"/>
       <use x="127.246094" xlink:href="#DejaVuSans-48"/>
      </g>
     </g>
    </g>
    <g id="xtick_6">
     <g id="line2d_7">
      <g>
       <use style="stroke:#000000;stroke-width:0.8;" x="380.482862" xlink:href="#ma32bd2b688" y="307.584"/>
      </g>
     </g>
     <g id="text_6">
      <!-- 600 -->
      <defs>
       <path d="M 33.015625 40.375 
Q 26.375 40.375 22.484375 35.828125 
Q 18.609375 31.296875 18.609375 23.390625 
Q 18.609375 15.53125 22.484375 10.953125 
Q 26.375 6.390625 33.015625 6.390625 
Q 39.65625 6.390625 43.53125 10.953125 
Q 47.40625 15.53125 47.40625 23.390625 
Q 47.40625 31.296875 43.53125 35.828125 
Q 39.65625 40.375 33.015625 40.375 
z
M 52.59375 71.296875 
L 52.59375 62.3125 
Q 48.875 64.0625 45.09375 64.984375 
Q 41.3125 65.921875 37.59375 65.921875 
Q 27.828125 65.921875 22.671875 59.328125 
Q 17.53125 52.734375 16.796875 39.40625 
Q 19.671875 43.65625 24.015625 45.921875 
Q 28.375 48.1875 33.59375 48.1875 
Q 44.578125 48.1875 50.953125 41.515625 
Q 57.328125 34.859375 57.328125 23.390625 
Q 57.328125 12.15625 50.6875 5.359375 
Q 44.046875 -1.421875 33.015625 -1.421875 
Q 20.359375 -1.421875 13.671875 8.265625 
Q 6.984375 17.96875 6.984375 36.375 
Q 6.984375 53.65625 15.1875 63.9375 
Q 23.390625 74.21875 37.203125 74.21875 
Q 40.921875 74.21875 44.703125 73.484375 
Q 48.484375 72.75 52.59375 71.296875 
z
" id="DejaVuSans-54"/>
      </defs>
      <g transform="translate(370.939112 322.182437)scale(0.1 -0.1)">
       <use xlink:href="#DejaVuSans-54"/>
       <use x="63.623047" xlink:href="#DejaVuSans-48"/>
       <use x="127.246094" xlink:href="#DejaVuSans-48"/>
      </g>
     </g>
    </g>
   </g>
   <g id="matplotlib.axis_2">
    <g id="ytick_1">
     <g id="line2d_8">
      <defs>
       <path d="M 0 0 
L -3.5 0 
" id="m4a4b5c99ff" style="stroke:#000000;stroke-width:0.8;"/>
      </defs>
      <g>
       <use style="stroke:#000000;stroke-width:0.8;" x="57.6" xlink:href="#m4a4b5c99ff" y="291.728338"/>
      </g>
     </g>
     <g id="text_7">
      <!-- −600 -->
      <g transform="translate(23.132812 295.527556)scale(0.1 -0.1)">
       <use xlink:href="#DejaVuSans-8722"/>
       <use x="83.789062" xlink:href="#DejaVuSans-54"/>
       <use x="147.412109" xlink:href="#DejaVuSans-48"/>
       <use x="211.035156" xlink:href="#DejaVuSans-48"/>
      </g>
     </g>
    </g>
    <g id="ytick_2">
     <g id="line2d_9">
      <g>
       <use style="stroke:#000000;stroke-width:0.8;" x="57.6" xlink:href="#m4a4b5c99ff" y="258.353617"/>
      </g>
     </g>
     <g id="text_8">
      <!-- −400 -->
      <g transform="translate(23.132812 262.152836)scale(0.1 -0.1)">
       <use xlink:href="#DejaVuSans-8722"/>
       <use x="83.789062" xlink:href="#DejaVuSans-52"/>
       <use x="147.412109" xlink:href="#DejaVuSans-48"/>
       <use x="211.035156" xlink:href="#DejaVuSans-48"/>
      </g>
     </g>
    </g>
    <g id="ytick_3">
     <g id="line2d_10">
      <g>
       <use style="stroke:#000000;stroke-width:0.8;" x="57.6" xlink:href="#m4a4b5c99ff" y="224.978896"/>
      </g>
     </g>
     <g id="text_9">
      <!-- −200 -->
      <g transform="translate(23.132812 228.778115)scale(0.1 -0.1)">
       <use xlink:href="#DejaVuSans-8722"/>
       <use x="83.789062" xlink:href="#DejaVuSans-50"/>
       <use x="147.412109" xlink:href="#DejaVuSans-48"/>
       <use x="211.035156" xlink:href="#DejaVuSans-48"/>
      </g>
     </g>
    </g>
    <g id="ytick_4">
     <g id="line2d_11">
      <g>
       <use style="stroke:#000000;stroke-width:0.8;" x="57.6" xlink:href="#m4a4b5c99ff" y="191.604176"/>
      </g>
     </g>
     <g id="text_10">
      <!-- 0 -->
      <g transform="translate(44.2375 195.403395)scale(0.1 -0.1)">
       <use xlink:href="#DejaVuSans-48"/>
      </g>
     </g>
    </g>
    <g id="ytick_5">
     <g id="line2d_12">
      <g>
       <use style="stroke:#000000;stroke-width:0.8;" x="57.6" xlink:href="#m4a4b5c99ff" y="158.229455"/>
      </g>
     </g>
     <g id="text_11">
      <!-- 200 -->
      <g transform="translate(31.5125 162.028674)scale(0.1 -0.1)">
       <use xlink:href="#DejaVuSans-50"/>
       <use x="63.623047" xlink:href="#DejaVuSans-48"/>
       <use x="127.246094" xlink:href="#DejaVuSans-48"/>
      </g>
     </g>
    </g>
    <g id="ytick_6">
     <g id="line2d_13">
      <g>
       <use style="stroke:#000000;stroke-width:0.8;" x="57.6" xlink:href="#m4a4b5c99ff" y="124.854735"/>
      </g>
     </g>
     <g id="text_12">
      <!-- 400 -->
      <g transform="translate(31.5125 128.653953)scale(0.1 -0.1)">
       <use xlink:href="#DejaVuSans-52"/>
       <use x="63.623047" xlink:href="#DejaVuSans-48"/>
       <use x="127.246094" xlink:href="#DejaVuSans-48"/>
      </g>
     </g>
    </g>
    <g id="ytick_7">
     <g id="line2d_14">
      <g>
       <use style="stroke:#000000;stroke-width:0.8;" x="57.6" xlink:href="#m4a4b5c99ff" y="91.480014"/>
      </g>
     </g>
     <g id="text_13">
      <!-- 600 -->
      <g transform="translate(31.5125 95.279233)scale(0.1 -0.1)">
       <use xlink:href="#DejaVuSans-54"/>
       <use x="63.623047" xlink:href="#DejaVuSans-48"/>
       <use x="127.246094" xlink:href="#DejaVuSans-48"/>
      </g>
     </g>
    </g>
    <g id="ytick_8">
     <g id="line2d_15">
      <g>
       <use style="stroke:#000000;stroke-width:0.8;" x="57.6" xlink:href="#m4a4b5c99ff" y="58.105293"/>
      </g>
     </g>
     <g id="text_14">
      <!-- 800 -->
      <defs>
       <path d="M 31.78125 34.625 
Q 24.75 34.625 20.71875 30.859375 
Q 16.703125 27.09375 16.703125 20.515625 
Q 16.703125 13.921875 20.71875 10.15625 
Q 24.75 6.390625 31.78125 6.390625 
Q 38.8125 6.390625 42.859375 10.171875 
Q 46.921875 13.96875 46.921875 20.515625 
Q 46.921875 27.09375 42.890625 30.859375 
Q 38.875 34.625 31.78125 34.625 
z
M 21.921875 38.8125 
Q 15.578125 40.375 12.03125 44.71875 
Q 8.5 49.078125 8.5 55.328125 
Q 8.5 64.0625 14.71875 69.140625 
Q 20.953125 74.21875 31.78125 74.21875 
Q 42.671875 74.21875 48.875 69.140625 
Q 55.078125 64.0625 55.078125 55.328125 
Q 55.078125 49.078125 51.53125 44.71875 
Q 48 40.375 41.703125 38.8125 
Q 48.828125 37.15625 52.796875 32.3125 
Q 56.78125 27.484375 56.78125 20.515625 
Q 56.78125 9.90625 50.3125 4.234375 
Q 43.84375 -1.421875 31.78125 -1.421875 
Q 19.734375 -1.421875 13.25 4.234375 
Q 6.78125 9.90625 6.78125 20.515625 
Q 6.78125 27.484375 10.78125 32.3125 
Q 14.796875 37.15625 21.921875 38.8125 
z
M 18.3125 54.390625 
Q 18.3125 48.734375 21.84375 45.5625 
Q 25.390625 42.390625 31.78125 42.390625 
Q 38.140625 42.390625 41.71875 45.5625 
Q 45.3125 48.734375 45.3125 54.390625 
Q 45.3125 60.0625 41.71875 63.234375 
Q 38.140625 66.40625 31.78125 66.40625 
Q 25.390625 66.40625 21.84375 63.234375 
Q 18.3125 60.0625 18.3125 54.390625 
z
" id="DejaVuSans-56"/>
      </defs>
      <g transform="translate(31.5125 61.904512)scale(0.1 -0.1)">
       <use xlink:href="#DejaVuSans-56"/>
       <use x="63.623047" xlink:href="#DejaVuSans-48"/>
       <use x="127.246094" xlink:href="#DejaVuSans-48"/>
      </g>
     </g>
    </g>
   </g>
   <g id="line2d_16">
    <path clip-path="url(#p5d6f95b971)" d="M 390.620888 59.697012 
L 217.507386 97.443643 
L 189.44628 232.338503 
L 77.101305 278.286068 
L 77.691024 288.559732 
L 152.401711 142.774516 
L 243.437398 287.738163 
" style="fill:none;stroke:#ff0000;stroke-linecap:square;stroke-width:0.5;"/>
   </g>
   <g id="patch_3">
    <path d="M 57.6 307.584 
L 57.6 41.472 
" style="fill:none;stroke:#000000;stroke-linecap:square;stroke-linejoin:miter;stroke-width:0.8;"/>
   </g>
   <g id="patch_4">
    <path d="M 414.72 307.584 
L 414.72 41.472 
" style="fill:none;stroke:#000000;stroke-linecap:square;stroke-linejoin:miter;stroke-width:0.8;"/>
   </g>
   <g id="patch_5">
    <path d="M 57.6 307.584 
L 414.72 307.584 
" style="fill:none;stroke:#000000;stroke-linecap:square;stroke-linejoin:miter;stroke-width:0.8;"/>
   </g>
   <g id="patch_6">
    <path d="M 57.6 41.472 
L 414.72 41.472 
" style="fill:none;stroke:#000000;stroke-linecap:square;stroke-linejoin:miter;stroke-width:0.8;"/>
   </g>
   <g id="PathCollection_1">
    <defs>
     <path d="M 0 2.738613 
C 0.726289 2.738613 1.422928 2.450055 1.936492 1.936492 
C 2.450055 1.422928 2.738613 0.726289 2.738613 0 
C 2.738613 -0.726289 2.450055 -1.422928 1.936492 -1.936492 
C 1.422928 -2.450055 0.726289 -2.738613 0 -2.738613 
C -0.726289 -2.738613 -1.422928 -2.450055 -1.936492 -1.936492 
C -2.450055 -1.422928 -2.738613 -0.726289 -2.738613 0 
C -2.738613 0.726289 -2.450055 1.422928 -1.936492 1.936492 
C -1.422928 2.450055 -0.726289 2.738613 0 2.738613 
z
" id="mdc050173bd" style="stroke:#ff0000;"/>
    </defs>
    <g clip-path="url(#p5d6f95b971)">
     <use style="fill:#ff0000;stroke:#ff0000;" x="390.620888" xlink:href="#mdc050173bd" y="59.697012"/>
     <use style="fill:#ff0000;stroke:#ff0000;" x="217.507386" xlink:href="#mdc050173bd" y="97.443643"/>
     <use style="fill:#ff0000;stroke:#ff0000;" x="189.44628" xlink:href="#mdc050173bd" y="232.338503"/>
     <use style="fill:#ff0000;stroke:#ff0000;" x="77.101305" xlink:href="#mdc050173bd" y="278.286068"/>
     <use style="fill:#ff0000;stroke:#ff0000;" x="77.691024" xlink:href="#mdc050173bd" y="288.559732"/>
     <use style="fill:#ff0000;stroke:#ff0000;" x="152.401711" xlink:href="#mdc050173bd" y="142.774516"/>
     <use style="fill:#ff0000;stroke:#ff0000;" x="243.437398" xlink:href="#mdc050173bd" y="287.738163"/>
    </g>
   </g>
   <g id="text_15">
    <!-- (38) Subject: s27, Known = True, Degree = 2, Duration = 0.1 -->
    <defs>
     <path d="M 31 75.875 
Q 24.46875 64.65625 21.28125 53.65625 
Q 18.109375 42.671875 18.109375 31.390625 
Q 18.109375 20.125 21.3125 9.0625 
Q 24.515625 -2 31 -13.1875 
L 23.1875 -13.1875 
Q 15.875 -1.703125 12.234375 9.375 
Q 8.59375 20.453125 8.59375 31.390625 
Q 8.59375 42.28125 12.203125 53.3125 
Q 15.828125 64.359375 23.1875 75.875 
z
" id="DejaVuSans-40"/>
     <path d="M 40.578125 39.3125 
Q 47.65625 37.796875 51.625 33 
Q 55.609375 28.21875 55.609375 21.1875 
Q 55.609375 10.40625 48.1875 4.484375 
Q 40.765625 -1.421875 27.09375 -1.421875 
Q 22.515625 -1.421875 17.65625 -0.515625 
Q 12.796875 0.390625 7.625 2.203125 
L 7.625 11.71875 
Q 11.71875 9.328125 16.59375 8.109375 
Q 21.484375 6.890625 26.8125 6.890625 
Q 36.078125 6.890625 40.9375 10.546875 
Q 45.796875 14.203125 45.796875 21.1875 
Q 45.796875 27.640625 41.28125 31.265625 
Q 36.765625 34.90625 28.71875 34.90625 
L 20.21875 34.90625 
L 20.21875 43.015625 
L 29.109375 43.015625 
Q 36.375 43.015625 40.234375 45.921875 
Q 44.09375 48.828125 44.09375 54.296875 
Q 44.09375 59.90625 40.109375 62.90625 
Q 36.140625 65.921875 28.71875 65.921875 
Q 24.65625 65.921875 20.015625 65.03125 
Q 15.375 64.15625 9.8125 62.3125 
L 9.8125 71.09375 
Q 15.4375 72.65625 20.34375 73.4375 
Q 25.25 74.21875 29.59375 74.21875 
Q 40.828125 74.21875 47.359375 69.109375 
Q 53.90625 64.015625 53.90625 55.328125 
Q 53.90625 49.265625 50.4375 45.09375 
Q 46.96875 40.921875 40.578125 39.3125 
z
" id="DejaVuSans-51"/>
     <path d="M 8.015625 75.875 
L 15.828125 75.875 
Q 23.140625 64.359375 26.78125 53.3125 
Q 30.421875 42.28125 30.421875 31.390625 
Q 30.421875 20.453125 26.78125 9.375 
Q 23.140625 -1.703125 15.828125 -13.1875 
L 8.015625 -13.1875 
Q 14.5 -2 17.703125 9.0625 
Q 20.90625 20.125 20.90625 31.390625 
Q 20.90625 42.671875 17.703125 53.65625 
Q 14.5 64.65625 8.015625 75.875 
z
" id="DejaVuSans-41"/>
     <path id="DejaVuSans-32"/>
     <path d="M 53.515625 70.515625 
L 53.515625 60.890625 
Q 47.90625 63.578125 42.921875 64.890625 
Q 37.9375 66.21875 33.296875 66.21875 
Q 25.25 66.21875 20.875 63.09375 
Q 16.5 59.96875 16.5 54.203125 
Q 16.5 49.359375 19.40625 46.890625 
Q 22.3125 44.4375 30.421875 42.921875 
L 36.375 41.703125 
Q 47.40625 39.59375 52.65625 34.296875 
Q 57.90625 29 57.90625 20.125 
Q 57.90625 9.515625 50.796875 4.046875 
Q 43.703125 -1.421875 29.984375 -1.421875 
Q 24.8125 -1.421875 18.96875 -0.25 
Q 13.140625 0.921875 6.890625 3.21875 
L 6.890625 13.375 
Q 12.890625 10.015625 18.65625 8.296875 
Q 24.421875 6.59375 29.984375 6.59375 
Q 38.421875 6.59375 43.015625 9.90625 
Q 47.609375 13.234375 47.609375 19.390625 
Q 47.609375 24.75 44.3125 27.78125 
Q 41.015625 30.8125 33.5 32.328125 
L 27.484375 33.5 
Q 16.453125 35.6875 11.515625 40.375 
Q 6.59375 45.0625 6.59375 53.421875 
Q 6.59375 63.09375 13.40625 68.65625 
Q 20.21875 74.21875 32.171875 74.21875 
Q 37.3125 74.21875 42.625 73.28125 
Q 47.953125 72.359375 53.515625 70.515625 
z
" id="DejaVuSans-83"/>
     <path d="M 8.5 21.578125 
L 8.5 54.6875 
L 17.484375 54.6875 
L 17.484375 21.921875 
Q 17.484375 14.15625 20.5 10.265625 
Q 23.53125 6.390625 29.59375 6.390625 
Q 36.859375 6.390625 41.078125 11.03125 
Q 45.3125 15.671875 45.3125 23.6875 
L 45.3125 54.6875 
L 54.296875 54.6875 
L 54.296875 0 
L 45.3125 0 
L 45.3125 8.40625 
Q 42.046875 3.421875 37.71875 1 
Q 33.40625 -1.421875 27.6875 -1.421875 
Q 18.265625 -1.421875 13.375 4.4375 
Q 8.5 10.296875 8.5 21.578125 
z
M 31.109375 56 
z
" id="DejaVuSans-117"/>
     <path d="M 48.6875 27.296875 
Q 48.6875 37.203125 44.609375 42.84375 
Q 40.53125 48.484375 33.40625 48.484375 
Q 26.265625 48.484375 22.1875 42.84375 
Q 18.109375 37.203125 18.109375 27.296875 
Q 18.109375 17.390625 22.1875 11.75 
Q 26.265625 6.109375 33.40625 6.109375 
Q 40.53125 6.109375 44.609375 11.75 
Q 48.6875 17.390625 48.6875 27.296875 
z
M 18.109375 46.390625 
Q 20.953125 51.265625 25.265625 53.625 
Q 29.59375 56 35.59375 56 
Q 45.5625 56 51.78125 48.09375 
Q 58.015625 40.1875 58.015625 27.296875 
Q 58.015625 14.40625 51.78125 6.484375 
Q 45.5625 -1.421875 35.59375 -1.421875 
Q 29.59375 -1.421875 25.265625 0.953125 
Q 20.953125 3.328125 18.109375 8.203125 
L 18.109375 0 
L 9.078125 0 
L 9.078125 75.984375 
L 18.109375 75.984375 
z
" id="DejaVuSans-98"/>
     <path d="M 9.421875 54.6875 
L 18.40625 54.6875 
L 18.40625 -0.984375 
Q 18.40625 -11.421875 14.421875 -16.109375 
Q 10.453125 -20.796875 1.609375 -20.796875 
L -1.8125 -20.796875 
L -1.8125 -13.1875 
L 0.59375 -13.1875 
Q 5.71875 -13.1875 7.5625 -10.8125 
Q 9.421875 -8.453125 9.421875 -0.984375 
z
M 9.421875 75.984375 
L 18.40625 75.984375 
L 18.40625 64.59375 
L 9.421875 64.59375 
z
" id="DejaVuSans-106"/>
     <path d="M 56.203125 29.59375 
L 56.203125 25.203125 
L 14.890625 25.203125 
Q 15.484375 15.921875 20.484375 11.0625 
Q 25.484375 6.203125 34.421875 6.203125 
Q 39.59375 6.203125 44.453125 7.46875 
Q 49.3125 8.734375 54.109375 11.28125 
L 54.109375 2.78125 
Q 49.265625 0.734375 44.1875 -0.34375 
Q 39.109375 -1.421875 33.890625 -1.421875 
Q 20.796875 -1.421875 13.15625 6.1875 
Q 5.515625 13.8125 5.515625 26.8125 
Q 5.515625 40.234375 12.765625 48.109375 
Q 20.015625 56 32.328125 56 
Q 43.359375 56 49.78125 48.890625 
Q 56.203125 41.796875 56.203125 29.59375 
z
M 47.21875 32.234375 
Q 47.125 39.59375 43.09375 43.984375 
Q 39.0625 48.390625 32.421875 48.390625 
Q 24.90625 48.390625 20.390625 44.140625 
Q 15.875 39.890625 15.1875 32.171875 
z
" id="DejaVuSans-101"/>
     <path d="M 48.78125 52.59375 
L 48.78125 44.1875 
Q 44.96875 46.296875 41.140625 47.34375 
Q 37.3125 48.390625 33.40625 48.390625 
Q 24.65625 48.390625 19.8125 42.84375 
Q 14.984375 37.3125 14.984375 27.296875 
Q 14.984375 17.28125 19.8125 11.734375 
Q 24.65625 6.203125 33.40625 6.203125 
Q 37.3125 6.203125 41.140625 7.25 
Q 44.96875 8.296875 48.78125 10.40625 
L 48.78125 2.09375 
Q 45.015625 0.34375 40.984375 -0.53125 
Q 36.96875 -1.421875 32.421875 -1.421875 
Q 20.0625 -1.421875 12.78125 6.34375 
Q 5.515625 14.109375 5.515625 27.296875 
Q 5.515625 40.671875 12.859375 48.328125 
Q 20.21875 56 33.015625 56 
Q 37.15625 56 41.109375 55.140625 
Q 45.0625 54.296875 48.78125 52.59375 
z
" id="DejaVuSans-99"/>
     <path d="M 18.3125 70.21875 
L 18.3125 54.6875 
L 36.8125 54.6875 
L 36.8125 47.703125 
L 18.3125 47.703125 
L 18.3125 18.015625 
Q 18.3125 11.328125 20.140625 9.421875 
Q 21.96875 7.515625 27.59375 7.515625 
L 36.8125 7.515625 
L 36.8125 0 
L 27.59375 0 
Q 17.1875 0 13.234375 3.875 
Q 9.28125 7.765625 9.28125 18.015625 
L 9.28125 47.703125 
L 2.6875 47.703125 
L 2.6875 54.6875 
L 9.28125 54.6875 
L 9.28125 70.21875 
z
" id="DejaVuSans-116"/>
     <path d="M 11.71875 12.40625 
L 22.015625 12.40625 
L 22.015625 0 
L 11.71875 0 
z
M 11.71875 51.703125 
L 22.015625 51.703125 
L 22.015625 39.3125 
L 11.71875 39.3125 
z
" id="DejaVuSans-58"/>
     <path d="M 44.28125 53.078125 
L 44.28125 44.578125 
Q 40.484375 46.53125 36.375 47.5 
Q 32.28125 48.484375 27.875 48.484375 
Q 21.1875 48.484375 17.84375 46.4375 
Q 14.5 44.390625 14.5 40.28125 
Q 14.5 37.15625 16.890625 35.375 
Q 19.28125 33.59375 26.515625 31.984375 
L 29.59375 31.296875 
Q 39.15625 29.25 43.1875 25.515625 
Q 47.21875 21.78125 47.21875 15.09375 
Q 47.21875 7.46875 41.1875 3.015625 
Q 35.15625 -1.421875 24.609375 -1.421875 
Q 20.21875 -1.421875 15.453125 -0.5625 
Q 10.6875 0.296875 5.421875 2 
L 5.421875 11.28125 
Q 10.40625 8.6875 15.234375 7.390625 
Q 20.0625 6.109375 24.8125 6.109375 
Q 31.15625 6.109375 34.5625 8.28125 
Q 37.984375 10.453125 37.984375 14.40625 
Q 37.984375 18.0625 35.515625 20.015625 
Q 33.0625 21.96875 24.703125 23.78125 
L 21.578125 24.515625 
Q 13.234375 26.265625 9.515625 29.90625 
Q 5.8125 33.546875 5.8125 39.890625 
Q 5.8125 47.609375 11.28125 51.796875 
Q 16.75 56 26.8125 56 
Q 31.78125 56 36.171875 55.265625 
Q 40.578125 54.546875 44.28125 53.078125 
z
" id="DejaVuSans-115"/>
     <path d="M 8.203125 72.90625 
L 55.078125 72.90625 
L 55.078125 68.703125 
L 28.609375 0 
L 18.3125 0 
L 43.21875 64.59375 
L 8.203125 64.59375 
z
" id="DejaVuSans-55"/>
     <path d="M 11.71875 12.40625 
L 22.015625 12.40625 
L 22.015625 4 
L 14.015625 -11.625 
L 7.71875 -11.625 
L 11.71875 4 
z
" id="DejaVuSans-44"/>
     <path d="M 9.8125 72.90625 
L 19.671875 72.90625 
L 19.671875 42.09375 
L 52.390625 72.90625 
L 65.09375 72.90625 
L 28.90625 38.921875 
L 67.671875 0 
L 54.6875 0 
L 19.671875 35.109375 
L 19.671875 0 
L 9.8125 0 
z
" id="DejaVuSans-75"/>
     <path d="M 54.890625 33.015625 
L 54.890625 0 
L 45.90625 0 
L 45.90625 32.71875 
Q 45.90625 40.484375 42.875 44.328125 
Q 39.84375 48.1875 33.796875 48.1875 
Q 26.515625 48.1875 22.3125 43.546875 
Q 18.109375 38.921875 18.109375 30.90625 
L 18.109375 0 
L 9.078125 0 
L 9.078125 54.6875 
L 18.109375 54.6875 
L 18.109375 46.1875 
Q 21.34375 51.125 25.703125 53.5625 
Q 30.078125 56 35.796875 56 
Q 45.21875 56 50.046875 50.171875 
Q 54.890625 44.34375 54.890625 33.015625 
z
" id="DejaVuSans-110"/>
     <path d="M 30.609375 48.390625 
Q 23.390625 48.390625 19.1875 42.75 
Q 14.984375 37.109375 14.984375 27.296875 
Q 14.984375 17.484375 19.15625 11.84375 
Q 23.34375 6.203125 30.609375 6.203125 
Q 37.796875 6.203125 41.984375 11.859375 
Q 46.1875 17.53125 46.1875 27.296875 
Q 46.1875 37.015625 41.984375 42.703125 
Q 37.796875 48.390625 30.609375 48.390625 
z
M 30.609375 56 
Q 42.328125 56 49.015625 48.375 
Q 55.71875 40.765625 55.71875 27.296875 
Q 55.71875 13.875 49.015625 6.21875 
Q 42.328125 -1.421875 30.609375 -1.421875 
Q 18.84375 -1.421875 12.171875 6.21875 
Q 5.515625 13.875 5.515625 27.296875 
Q 5.515625 40.765625 12.171875 48.375 
Q 18.84375 56 30.609375 56 
z
" id="DejaVuSans-111"/>
     <path d="M 4.203125 54.6875 
L 13.1875 54.6875 
L 24.421875 12.015625 
L 35.59375 54.6875 
L 46.1875 54.6875 
L 57.421875 12.015625 
L 68.609375 54.6875 
L 77.59375 54.6875 
L 63.28125 0 
L 52.6875 0 
L 40.921875 44.828125 
L 29.109375 0 
L 18.5 0 
z
" id="DejaVuSans-119"/>
     <path d="M 10.59375 45.40625 
L 73.1875 45.40625 
L 73.1875 37.203125 
L 10.59375 37.203125 
z
M 10.59375 25.484375 
L 73.1875 25.484375 
L 73.1875 17.1875 
L 10.59375 17.1875 
z
" id="DejaVuSans-61"/>
     <path d="M -0.296875 72.90625 
L 61.375 72.90625 
L 61.375 64.59375 
L 35.5 64.59375 
L 35.5 0 
L 25.59375 0 
L 25.59375 64.59375 
L -0.296875 64.59375 
z
" id="DejaVuSans-84"/>
     <path d="M 41.109375 46.296875 
Q 39.59375 47.171875 37.8125 47.578125 
Q 36.03125 48 33.890625 48 
Q 26.265625 48 22.1875 43.046875 
Q 18.109375 38.09375 18.109375 28.8125 
L 18.109375 0 
L 9.078125 0 
L 9.078125 54.6875 
L 18.109375 54.6875 
L 18.109375 46.1875 
Q 20.953125 51.171875 25.484375 53.578125 
Q 30.03125 56 36.53125 56 
Q 37.453125 56 38.578125 55.875 
Q 39.703125 55.765625 41.0625 55.515625 
z
" id="DejaVuSans-114"/>
     <path d="M 19.671875 64.796875 
L 19.671875 8.109375 
L 31.59375 8.109375 
Q 46.6875 8.109375 53.6875 14.9375 
Q 60.6875 21.78125 60.6875 36.53125 
Q 60.6875 51.171875 53.6875 57.984375 
Q 46.6875 64.796875 31.59375 64.796875 
z
M 9.8125 72.90625 
L 30.078125 72.90625 
Q 51.265625 72.90625 61.171875 64.09375 
Q 71.09375 55.28125 71.09375 36.53125 
Q 71.09375 17.671875 61.125 8.828125 
Q 51.171875 0 30.078125 0 
L 9.8125 0 
z
" id="DejaVuSans-68"/>
     <path d="M 45.40625 27.984375 
Q 45.40625 37.75 41.375 43.109375 
Q 37.359375 48.484375 30.078125 48.484375 
Q 22.859375 48.484375 18.828125 43.109375 
Q 14.796875 37.75 14.796875 27.984375 
Q 14.796875 18.265625 18.828125 12.890625 
Q 22.859375 7.515625 30.078125 7.515625 
Q 37.359375 7.515625 41.375 12.890625 
Q 45.40625 18.265625 45.40625 27.984375 
z
M 54.390625 6.78125 
Q 54.390625 -7.171875 48.1875 -13.984375 
Q 42 -20.796875 29.203125 -20.796875 
Q 24.46875 -20.796875 20.265625 -20.09375 
Q 16.0625 -19.390625 12.109375 -17.921875 
L 12.109375 -9.1875 
Q 16.0625 -11.328125 19.921875 -12.34375 
Q 23.78125 -13.375 27.78125 -13.375 
Q 36.625 -13.375 41.015625 -8.765625 
Q 45.40625 -4.15625 45.40625 5.171875 
L 45.40625 9.625 
Q 42.625 4.78125 38.28125 2.390625 
Q 33.9375 0 27.875 0 
Q 17.828125 0 11.671875 7.65625 
Q 5.515625 15.328125 5.515625 27.984375 
Q 5.515625 40.671875 11.671875 48.328125 
Q 17.828125 56 27.875 56 
Q 33.9375 56 38.28125 53.609375 
Q 42.625 51.21875 45.40625 46.390625 
L 45.40625 54.6875 
L 54.390625 54.6875 
z
" id="DejaVuSans-103"/>
     <path d="M 34.28125 27.484375 
Q 23.390625 27.484375 19.1875 25 
Q 14.984375 22.515625 14.984375 16.5 
Q 14.984375 11.71875 18.140625 8.90625 
Q 21.296875 6.109375 26.703125 6.109375 
Q 34.1875 6.109375 38.703125 11.40625 
Q 43.21875 16.703125 43.21875 25.484375 
L 43.21875 27.484375 
z
M 52.203125 31.203125 
L 52.203125 0 
L 43.21875 0 
L 43.21875 8.296875 
Q 40.140625 3.328125 35.546875 0.953125 
Q 30.953125 -1.421875 24.3125 -1.421875 
Q 15.921875 -1.421875 10.953125 3.296875 
Q 6 8.015625 6 15.921875 
Q 6 25.140625 12.171875 29.828125 
Q 18.359375 34.515625 30.609375 34.515625 
L 43.21875 34.515625 
L 43.21875 35.40625 
Q 43.21875 41.609375 39.140625 45 
Q 35.0625 48.390625 27.6875 48.390625 
Q 23 48.390625 18.546875 47.265625 
Q 14.109375 46.140625 10.015625 43.890625 
L 10.015625 52.203125 
Q 14.9375 54.109375 19.578125 55.046875 
Q 24.21875 56 28.609375 56 
Q 40.484375 56 46.34375 49.84375 
Q 52.203125 43.703125 52.203125 31.203125 
z
" id="DejaVuSans-97"/>
     <path d="M 9.421875 54.6875 
L 18.40625 54.6875 
L 18.40625 0 
L 9.421875 0 
z
M 9.421875 75.984375 
L 18.40625 75.984375 
L 18.40625 64.59375 
L 9.421875 64.59375 
z
" id="DejaVuSans-105"/>
     <path d="M 10.6875 12.40625 
L 21 12.40625 
L 21 0 
L 10.6875 0 
z
" id="DejaVuSans-46"/>
     <path d="M 12.40625 8.296875 
L 28.515625 8.296875 
L 28.515625 63.921875 
L 10.984375 60.40625 
L 10.984375 69.390625 
L 28.421875 72.90625 
L 38.28125 72.90625 
L 38.28125 8.296875 
L 54.390625 8.296875 
L 54.390625 0 
L 12.40625 0 
z
" id="DejaVuSans-49"/>
    </defs>
    <g transform="translate(51.733125 35.472)scale(0.12 -0.12)">
     <use xlink:href="#DejaVuSans-40"/>
     <use x="39.013672" xlink:href="#DejaVuSans-51"/>
     <use x="102.636719" xlink:href="#DejaVuSans-56"/>
     <use x="166.259766" xlink:href="#DejaVuSans-41"/>
     <use x="205.273438" xlink:href="#DejaVuSans-32"/>
     <use x="237.060547" xlink:href="#DejaVuSans-83"/>
     <use x="300.537109" xlink:href="#DejaVuSans-117"/>
     <use x="363.916016" xlink:href="#DejaVuSans-98"/>
     <use x="427.392578" xlink:href="#DejaVuSans-106"/>
     <use x="455.175781" xlink:href="#DejaVuSans-101"/>
     <use x="516.699219" xlink:href="#DejaVuSans-99"/>
     <use x="571.679688" xlink:href="#DejaVuSans-116"/>
     <use x="610.888672" xlink:href="#DejaVuSans-58"/>
     <use x="644.580078" xlink:href="#DejaVuSans-32"/>
     <use x="676.367188" xlink:href="#DejaVuSans-115"/>
     <use x="728.466797" xlink:href="#DejaVuSans-50"/>
     <use x="792.089844" xlink:href="#DejaVuSans-55"/>
     <use x="855.712891" xlink:href="#DejaVuSans-44"/>
     <use x="887.5" xlink:href="#DejaVuSans-32"/>
     <use x="919.287109" xlink:href="#DejaVuSans-75"/>
     <use x="984.863281" xlink:href="#DejaVuSans-110"/>
     <use x="1048.242188" xlink:href="#DejaVuSans-111"/>
     <use x="1109.423828" xlink:href="#DejaVuSans-119"/>
     <use x="1191.210938" xlink:href="#DejaVuSans-110"/>
     <use x="1254.589844" xlink:href="#DejaVuSans-32"/>
     <use x="1286.376953" xlink:href="#DejaVuSans-61"/>
     <use x="1370.166016" xlink:href="#DejaVuSans-32"/>
     <use x="1401.953125" xlink:href="#DejaVuSans-84"/>
     <use x="1462.818359" xlink:href="#DejaVuSans-114"/>
     <use x="1503.931641" xlink:href="#DejaVuSans-117"/>
     <use x="1567.310547" xlink:href="#DejaVuSans-101"/>
     <use x="1628.833984" xlink:href="#DejaVuSans-44"/>
     <use x="1660.621094" xlink:href="#DejaVuSans-32"/>
     <use x="1692.408203" xlink:href="#DejaVuSans-68"/>
     <use x="1769.410156" xlink:href="#DejaVuSans-101"/>
     <use x="1830.933594" xlink:href="#DejaVuSans-103"/>
     <use x="1894.410156" xlink:href="#DejaVuSans-114"/>
     <use x="1935.492188" xlink:href="#DejaVuSans-101"/>
     <use x="1997.015625" xlink:href="#DejaVuSans-101"/>
     <use x="2058.539062" xlink:href="#DejaVuSans-32"/>
     <use x="2090.326172" xlink:href="#DejaVuSans-61"/>
     <use x="2174.115234" xlink:href="#DejaVuSans-32"/>
     <use x="2205.902344" xlink:href="#DejaVuSans-50"/>
     <use x="2269.525391" xlink:href="#DejaVuSans-44"/>
     <use x="2301.3125" xlink:href="#DejaVuSans-32"/>
     <use x="2333.099609" xlink:href="#DejaVuSans-68"/>
     <use x="2410.101562" xlink:href="#DejaVuSans-117"/>
     <use x="2473.480469" xlink:href="#DejaVuSans-114"/>
     <use x="2514.59375" xlink:href="#DejaVuSans-97"/>
     <use x="2575.873047" xlink:href="#DejaVuSans-116"/>
     <use x="2615.082031" xlink:href="#DejaVuSans-105"/>
     <use x="2642.865234" xlink:href="#DejaVuSans-111"/>
     <use x="2704.046875" xlink:href="#DejaVuSans-110"/>
     <use x="2767.425781" xlink:href="#DejaVuSans-32"/>
     <use x="2799.212891" xlink:href="#DejaVuSans-61"/>
     <use x="2883.001953" xlink:href="#DejaVuSans-32"/>
     <use x="2914.789062" xlink:href="#DejaVuSans-48"/>
     <use x="2978.412109" xlink:href="#DejaVuSans-46"/>
     <use x="3010.199219" xlink:href="#DejaVuSans-49"/>
    </g>
   </g>
  </g>
 </g>
 <defs>
  <clipPath id="p5d6f95b971">
   <rect height="266.112" width="357.12" x="57.6" y="41.472"/>
  </clipPath>
 </defs>
</svg>
