<?xml version="1.0" encoding="utf-8" standalone="no"?>
<!DOCTYPE svg PUBLIC "-//W3C//DTD SVG 1.1//EN"
  "http://www.w3.org/Graphics/SVG/1.1/DTD/svg11.dtd">
<!-- Created with matplotlib (https://matplotlib.org/) -->
<svg height="345.6pt" version="1.1" viewBox="0 0 460.8 345.6" width="460.8pt" xmlns="http://www.w3.org/2000/svg" xmlns:xlink="http://www.w3.org/1999/xlink">
 <defs>
  <style type="text/css">
*{stroke-linecap:butt;stroke-linejoin:round;}
  </style>
 </defs>
 <g id="figure_1">
  <g id="patch_1">
   <path d="M 0 345.6 
L 460.8 345.6 
L 460.8 0 
L 0 0 
z
" style="fill:#ffffff;"/>
  </g>
  <g id="axes_1">
   <g id="patch_2">
    <path d="M 57.6 307.584 
L 414.72 307.584 
L 414.72 41.472 
L 57.6 41.472 
z
" style="fill:#ffffff;"/>
   </g>
   <g id="line2d_1">
    <path clip-path="url(#p3634272043)" d="M 74.672384 53.568 
L 74.505096 53.744619 
L 74.672384 53.744619 
L 74.505096 53.744619 
L 74.505096 53.923418 
L 74.672384 54.100037 
L 74.672384 54.455456 
L 74.505096 54.632075 
L 74.839672 54.276656 
L 74.839672 54.100037 
L 74.167303 53.923418 
L 74.167303 54.100037 
L 74.505096 54.455456 
L 75.00696 54.632075 
L 75.00696 55.51953 
L 74.839672 55.51953 
L 74.672384 55.340731 
L 74.839672 55.51953 
L 74.839672 55.872768 
L 74.839672 55.872768 
L 74.672384 55.872768 
L 74.839672 55.696149 
L 74.672384 55.51953 
L 74.505096 55.696149 
L 74.505096 55.872768 
L 74.839672 55.872768 
L 75.177465 56.051568 
L 75.177465 55.696149 
L 74.672384 55.51953 
L 74.505096 55.696149 
L 74.505096 56.051568 
L 74.334591 56.404806 
L 74.505096 56.583605 
L 74.839672 56.583605 
L 75.177465 56.228187 
L 74.839672 55.696149 
L 74.505096 55.51953 
L 74.167303 55.872768 
L 74.167303 56.404806 
L 74.334591 56.583605 
L 74.839672 56.404806 
L 75.177465 56.583605 
L 74.505096 56.939024 
L 73.832727 56.939024 
L 73.832727 56.583605 
L 74.505096 56.051568 
L 74.334591 56.583605 
L 74.167303 57.471061 
L 74.334591 57.824299 
L 74.334591 58.356336 
L 74.839672 58.711755 
L 75.177465 58.356336 
L 74.334591 58.003098 
L 74.505096 58.003098 
L 74.505096 58.179717 
L 74.672384 58.711755 
L 75.00696 58.888374 
L 74.672384 58.711755 
L 74.334591 59.067173 
L 74.334591 59.420411 
L 74.334591 59.067173 
L 74.505096 58.535136 
L 74.334591 58.356336 
L 74.505096 58.888374 
L 75.177465 59.243792 
L 75.344753 59.59921 
L 75.177465 60.307867 
L 74.839672 60.839904 
L 75.177465 60.484486 
L 75.344753 60.307867 
L 74.505096 60.307867 
L 75.177465 60.307867 
L 75.177465 60.839904 
L 75.00696 61.016523 
L 75.00696 60.663285 
L 75.512041 60.663285 
L 75.679329 60.839904 
L 75.846617 60.839904 
L 76.351699 61.195322 
L 76.518987 61.016523 
L 76.351699 60.484486 
L 76.351699 60.484486 
L 76.351699 61.016523 
L 76.184411 61.54856 
L 75.846617 61.371941 
L 75.846617 61.016523 
L 76.184411 61.195322 
L 76.184411 61.72736 
L 76.017123 61.72736 
L 76.017123 61.54856 
L 76.351699 61.195322 
L 76.518987 60.663285 
L 76.351699 60.839904 
L 76.351699 61.195322 
L 76.017123 61.903979 
L 76.017123 61.72736 
L 76.017123 61.903979 
L 75.679329 62.259397 
L 75.512041 62.259397 
L 75.512041 62.080598 
L 75.679329 62.259397 
L 75.679329 62.436016 
L 75.679329 62.436016 
L 76.351699 62.791434 
L 76.184411 62.968053 
L 75.846617 62.791434 
L 75.846617 62.791434 
L 76.017123 63.144672 
L 75.846617 63.323472 
L 75.679329 63.144672 
L 76.017123 64.208747 
L 76.689492 64.208747 
L 77.529149 64.564165 
L 81.392858 65.275002 
L 83.577254 65.62824 
L 86.099442 66.515696 
L 89.45807 67.935189 
L 93.659573 69.352502 
L 103.069523 71.127413 
L 108.110683 72.544726 
L 113.322348 74.143018 
L 118.698084 76.092368 
L 124.411612 77.86728 
L 130.630222 79.640011 
L 136.511039 82.123578 
L 141.889992 84.960384 
L 147.09844 87.975989 
L 152.474175 90.636176 
L 157.853128 93.119744 
L 162.389207 95.424512 
L 175.161002 103.583872 
L 187.093141 112.451888 
L 191.124139 115.644112 
L 194.653272 118.836336 
L 201.878827 125.222965 
L 210.44912 134.799637 
L 218.514332 143.312235 
L 223.220916 147.923952 
L 225.405311 149.698863 
L 227.756995 151.294976 
L 233.470524 154.663819 
L 239.521845 158.920117 
L 247.081977 162.644379 
L 251.116191 165.304566 
L 255.65227 168.143552 
L 264.727644 174.351381 
L 268.256778 177.543605 
L 271.448118 180.735829 
L 273.803018 184.106853 
L 275.482333 186.943659 
L 277.666728 191.378757 
L 278.171809 193.683525 
L 278.001304 196.167093 
L 276.659783 200.77881 
L 275.987414 202.196123 
L 274.977251 203.438997 
L 273.465225 204.679691 
L 271.618623 205.920384 
L 270.273885 207.163258 
L 269.431011 208.227333 
L 268.761859 210.000064 
L 267.751696 211.596176 
L 267.41712 212.483632 
L 267.41712 213.547707 
L 267.584408 214.435162 
L 268.591354 216.386693 
L 270.441173 217.450767 
L 272.625568 219.755536 
L 273.297937 221.175029 
L 273.970306 222.239104 
L 274.47217 224.188454 
L 275.482333 225.963365 
L 275.144539 227.204059 
L 275.144539 227.914895 
L 275.315045 228.268133 
L 275.649621 228.268133 
L 275.315045 228.623552 
L 274.977251 229.511008 
L 274.47217 230.219664 
L 273.632513 230.92832 
L 273.803018 230.751701 
L 274.137594 230.751701 
L 274.137594 230.751701 
L 273.970306 231.10712 
L 273.297937 231.815776 
L 273.297937 232.171194 
L 273.465225 232.524432 
L 274.137594 232.171194 
L 274.137594 231.992395 
L 273.970306 231.815776 
L 274.137594 231.639157 
L 274.137594 231.815776 
L 273.970306 232.524432 
L 273.632513 233.411888 
L 273.803018 233.590687 
L 274.304882 233.590687 
L 274.304882 233.590687 
L 274.137594 233.05647 
L 273.803018 232.879851 
L 273.130649 232.879851 
L 272.792856 232.703232 
L 273.465225 233.05647 
L 273.970306 233.05647 
L 274.304882 233.411888 
L 274.137594 233.943925 
L 273.803018 234.299344 
L 273.465225 233.411888 
L 273.130649 233.411888 
L 272.792856 233.767306 
L 272.792856 234.122725 
L 273.130649 234.122725 
L 273.130649 234.299344 
L 272.792856 234.654762 
L 272.792856 234.654762 
L 273.130649 234.122725 
L 272.960144 233.590687 
L 272.287775 233.411888 
L 271.785911 233.767306 
L 271.953199 234.122725 
L 272.287775 234.299344 
L 272.120487 234.299344 
L 271.953199 234.475963 
L 271.953199 234.654762 
L 272.120487 234.654762 
L 272.120487 234.122725 
L 271.785911 233.411888 
L 271.113542 232.703232 
L 271.785911 233.411888 
L 272.120487 233.943925 
L 271.618623 233.943925 
L 270.946254 233.05647 
L 270.441173 233.235269 
L 270.273885 232.703232 
L 270.273885 232.524432 
L 270.10338 232.703232 
L 269.936092 232.703232 
L 269.936092 233.05647 
L 270.10338 233.411888 
L 269.936092 233.235269 
L 269.601516 233.235269 
L 269.431011 233.411888 
L 269.768804 233.411888 
L 269.601516 233.411888 
L 269.601516 233.235269 
L 269.768804 233.05647 
L 269.768804 232.703232 
L 268.929147 232.347813 
L 268.591354 232.524432 
L 268.256778 232.524432 
L 268.08949 232.347813 
L 268.256778 231.815776 
L 268.591354 231.283739 
L 269.096435 231.460358 
L 269.601516 232.171194 
L 269.768804 232.879851 
L 269.936092 232.879851 
L 269.601516 232.524432 
L 269.096435 232.171194 
L 268.424066 232.171194 
L 268.424066 231.815776 
L 268.591354 231.815776 
L 268.929147 232.171194 
L 269.096435 232.524432 
L 269.096435 232.524432 
L 268.761859 232.524432 
L 268.424066 232.171194 
L 268.256778 231.815776 
L 268.424066 231.815776 
L 268.591354 231.992395 
L 268.761859 232.879851 
L 268.929147 232.879851 
L 267.918984 232.524432 
L 268.591354 231.815776 
L 268.761859 231.283739 
L 267.751696 231.283739 
L 267.751696 230.92832 
L 267.751696 231.460358 
L 267.918984 231.639157 
L 267.751696 231.815776 
L 267.41712 231.815776 
L 267.246615 231.639157 
L 267.584408 231.10712 
L 267.079327 231.815776 
L 267.079327 231.639157 
L 267.246615 231.460358 
L 267.246615 231.10712 
L 266.912039 230.751701 
L 266.574246 230.92832 
L 266.574246 231.10712 
L 266.744751 230.751701 
L 266.744751 230.396283 
L 266.912039 230.751701 
L 267.246615 230.92832 
L 267.246615 230.751701 
L 266.574246 230.751701 
L 266.574246 230.575082 
L 266.406958 230.575082 
L 266.406958 230.575082 
L 266.744751 230.92832 
L 266.744751 231.283739 
L 266.406958 231.639157 
L 266.072382 231.639157 
L 265.734589 231.815776 
L 265.905094 231.639157 
L 265.905094 231.992395 
L 265.905094 230.751701 
L 265.06222 230.751701 
L 264.560356 231.283739 
L 264.560356 231.10712 
L 265.06222 230.751701 
L 265.06222 230.575082 
L 264.894932 230.575082 
L 264.727644 230.751701 
L 264.389851 231.283739 
L 264.727644 231.283739 
L 264.727644 231.10712 
L 263.550194 231.460358 
L 263.717482 231.460358 
L 264.055275 231.460358 
L 264.055275 231.460358 
L 263.887987 231.283739 
L 263.887987 231.10712 
L 263.717482 231.10712 
L 263.887987 231.283739 
L 263.717482 231.639157 
L 262.877825 231.992395 
L 262.205456 231.992395 
L 262.038168 231.815776 
L 262.375961 232.171194 
L 262.543249 232.171194 
L 262.543249 231.283739 
L 263.04833 230.751701 
L 263.215618 230.751701 
L 263.550194 231.283739 
L 263.382906 231.639157 
L 262.877825 231.639157 
L 262.205456 231.283739 
L 262.205456 231.283739 
L 262.205456 231.460358 
L 262.038168 231.639157 
L 261.703592 231.639157 
L 261.703592 231.639157 
L 262.205456 232.171194 
L 262.375961 232.524432 
L 262.205456 232.703232 
L 262.205456 232.524432 
L 262.543249 232.524432 
L 262.543249 232.524432 
L 262.205456 232.171194 
L 261.533087 232.171194 
L 261.365799 232.524432 
L 261.365799 233.05647 
L 261.031223 233.411888 
L 261.031223 233.411888 
L 261.031223 233.235269 
L 261.198511 232.879851 
L 261.703592 232.347813 
L 262.038168 232.347813 
L 262.375961 232.703232 
L 263.215618 232.703232 
L 266.406958 232.171194 
L 268.929147 231.639157 
L 271.618623 231.460358 
L 274.642675 231.639157 
L 278.673673 232.347813 
L 283.212969 232.524432 
L 293.295288 232.171194 
L 297.831367 232.171194 
L 301.865581 231.815776 
L 305.729291 231.283739 
L 313.122134 229.511008 
L 319.508032 228.268133 
L 321.862932 227.914895 
L 324.214615 227.382858 
L 325.559354 227.382858 
L 325.726642 227.02744 
L 325.392066 226.139984 
L 325.392066 225.786746 
L 325.22156 225.963365 
L 324.381903 225.963365 
L 323.204453 225.786746 
L 322.03022 225.963365 
L 318.333799 227.914895 
L 316.651267 227.914895 
L 315.978898 228.091514 
L 315.644322 228.623552 
L 315.81161 229.155589 
L 316.651267 229.332208 
L 316.98906 229.687626 
L 317.490924 230.92832 
L 317.661429 231.283739 
L 317.996005 231.283739 
L 318.501087 230.92832 
L 319.845825 230.575082 
L 319.845825 230.575082 
L 320.180401 230.751701 
L 320.85277 230.575082 
L 321.357851 230.043045 
L 321.190563 229.687626 
L 320.347689 229.687626 
L 319.845825 229.332208 
L 319.678537 228.97897 
L 319.508032 228.97897 
L 319.340744 229.155589 
L 319.006168 229.155589 
L 318.835663 228.97897 
L 318.668375 229.332208 
L 318.668375 230.043045 
L 318.835663 230.219664 
L 318.668375 230.043045 
L 318.163293 230.043045 
L 318.835663 230.751701 
L 318.668375 230.92832 
L 318.333799 230.92832 
L 318.163293 230.751701 
L 318.163293 230.396283 
L 318.333799 230.396283 
L 318.333799 230.043045 
L 318.501087 229.687626 
L 318.501087 229.332208 
L 318.163293 229.332208 
L 318.668375 230.219664 
L 318.835663 230.396283 
L 318.501087 230.219664 
L 318.163293 230.396283 
L 318.501087 230.751701 
L 319.006168 230.751701 
L 319.006168 230.396283 
L 318.501087 230.219664 
L 317.996005 230.219664 
L 317.996005 230.396283 
L 318.333799 230.219664 
L 318.333799 230.396283 
L 318.163293 230.751701 
L 318.163293 231.10712 
L 318.163293 230.751701 
L 317.996005 229.687626 
L 317.996005 230.396283 
L 317.323636 231.460358 
L 317.323636 231.639157 
L 317.661429 231.815776 
L 317.996005 230.396283 
L 317.828717 230.219664 
L 317.490924 230.751701 
L 317.828717 231.639157 
L 316.98906 232.524432 
L 317.156348 232.524432 
L 317.323636 232.171194 
L 317.156348 231.815776 
L 316.821772 231.460358 
L 316.821772 231.283739 
L 316.98906 231.460358 
L 317.156348 231.815776 
L 316.98906 231.992395 
L 316.651267 231.992395 
L 316.149403 231.639157 
L 316.316691 231.639157 
L 316.483979 231.815776 
L 316.316691 231.639157 
L 316.316691 231.815776 
L 316.821772 232.703232 
L 316.483979 232.879851 
L 315.978898 232.879851 
L 315.644322 232.703232 
L 315.978898 232.347813 
L 315.81161 231.992395 
L 315.139241 231.639157 
L 314.637377 231.992395 
L 314.466872 232.171194 
L 314.466872 232.703232 
L 314.637377 233.05647 
L 314.971953 232.879851 
L 314.804665 232.347813 
L 314.466872 232.171194 
L 314.466872 232.347813 
L 314.804665 232.171194 
L 315.139241 231.815776 
L 315.644322 231.460358 
L 314.804665 231.992395 
L 314.637377 231.992395 
L 315.477034 231.992395 
L 315.81161 231.815776 
L 315.81161 231.460358 
L 314.804665 231.460358 
L 314.971953 231.460358 
L 315.139241 231.283739 
L 315.139241 230.92832 
L 314.971953 230.92832 
L 314.637377 231.460358 
L 314.466872 231.992395 
L 314.637377 231.460358 
L 314.971953 231.10712 
L 315.139241 231.10712 
L 315.306529 231.460358 
L 315.139241 231.283739 
L 314.971953 231.283739 
L 314.804665 230.92832 
L 314.804665 230.575082 
L 314.971953 230.575082 
L 314.466872 230.92832 
L 314.971953 231.10712 
L 315.644322 230.92832 
L 315.978898 230.396283 
L 315.644322 230.575082 
L 315.139241 230.575082 
L 314.804665 230.219664 
L 314.804665 230.219664 
L 315.306529 230.219664 
L 314.971953 230.219664 
L 314.804665 230.043045 
L 313.794503 230.043045 
L 313.459927 230.219664 
L 313.627215 230.396283 
L 314.299584 230.043045 
L 314.637377 229.511008 
L 314.466872 229.864245 
L 314.466872 230.219664 
L 314.804665 230.043045 
L 314.804665 229.864245 
L 314.466872 229.511008 
L 314.637377 229.687626 
L 314.804665 230.043045 
L 314.637377 230.219664 
L 314.466872 230.043045 
L 314.466872 230.043045 
L 314.804665 230.751701 
L 315.139241 230.92832 
L 315.306529 230.219664 
L 315.139241 229.864245 
L 314.971953 229.864245 
L 314.971953 230.043045 
L 314.132296 230.575082 
L 313.965008 230.92832 
L 314.132296 230.751701 
L 314.299584 230.575082 
L 314.132296 230.396283 
L 314.299584 230.219664 
L 314.466872 229.864245 
L 314.132296 229.864245 
L 313.627215 230.043045 
L 313.627215 230.396283 
L 314.466872 230.396283 
L 314.466872 230.396283 
L 314.466872 230.219664 
L 314.299584 229.864245 
L 313.965008 229.687626 
L 313.627215 229.687626 
L 313.794503 230.043045 
L 314.132296 230.219664 
L 314.466872 230.219664 
L 314.299584 230.396283 
L 314.299584 230.575082 
L 314.466872 230.396283 
L 314.637377 230.396283 
L 313.794503 230.396283 
L 314.132296 229.864245 
L 314.637377 229.511008 
L 314.637377 229.687626 
L 314.299584 230.219664 
L 313.794503 230.219664 
L 313.627215 229.864245 
L 313.459927 230.043045 
L 313.122134 230.219664 
L 313.122134 230.575082 
L 312.954846 230.92832 
L 313.122134 231.283739 
L 313.459927 231.639157 
L 313.794503 231.815776 
L 313.965008 231.639157 
L 313.794503 231.10712 
L 313.292639 230.575082 
L 312.449765 230.396283 
L 311.947901 230.575082 
L 311.947901 230.751701 
L 312.115189 230.92832 
L 312.115189 230.92832 
L 312.282477 230.92832 
L 312.62027 230.751701 
L 312.954846 230.751701 
L 313.122134 230.575082 
L 313.122134 230.396283 
L 312.787558 230.396283 
L 312.449765 230.575082 
L 312.282477 230.396283 
L 312.282477 230.396283 
L 312.282477 231.283739 
L 311.780613 230.751701 
L 311.610108 230.751701 
L 311.780613 230.751701 
L 311.610108 230.92832 
L 311.610108 231.10712 
L 311.947901 231.10712 
L 312.282477 230.751701 
L 312.62027 230.751701 
L 312.787558 231.460358 
L 312.62027 231.992395 
L 312.115189 231.815776 
L 311.108244 231.10712 
L 310.77045 230.575082 
L 310.77045 230.043045 
L 310.435874 229.155589 
L 309.593 228.268133 
L 308.080974 227.559477 
L 306.568948 226.672021 
L 305.056922 225.075909 
L 303.377607 223.124379 
L 301.193212 221.175029 
L 296.99171 218.159424 
L 295.312395 216.386693 
L 293.462576 214.7884 
L 291.783262 213.903125 
L 290.605812 213.015669 
L 289.766155 212.128213 
L 288.421416 209.823445 
L 287.414471 208.935989 
L 285.899228 208.582751 
L 284.387202 208.050714 
L 283.547545 207.516496 
L 283.547545 208.582751 
L 283.380257 209.114789 
L 283.042464 209.468027 
L 282.875176 209.823445 
L 282.875176 211.064139 
L 283.042464 211.419557 
L 282.707888 211.951594 
L 282.707888 212.660251 
L 282.875176 213.547707 
L 282.875176 213.903125 
L 283.042464 214.7884 
L 282.707888 216.031274 
L 282.035518 215.852475 
L 282.035518 216.739931 
L 281.86823 216.91873 
L 281.530437 216.739931 
L 281.530437 216.91873 
L 281.700942 217.804005 
L 281.363149 217.804005 
L 281.195861 217.095349 
L 281.195861 215.852475 
L 281.195861 217.095349 
L 281.700942 217.450767 
L 282.202806 217.271968 
L 282.202806 217.271968 
L 281.700942 217.095349 
L 281.86823 216.739931 
L 282.373312 216.207893 
L 282.5406 216.207893 
L 282.5406 216.739931 
L 283.042464 218.159424 
L 283.380257 218.86808 
L 283.380257 218.86808 
L 283.380257 218.514842 
L 283.547545 218.336043 
L 283.380257 218.336043 
L 282.707888 218.159424 
L 282.707888 218.336043 
L 283.042464 218.514842 
L 282.875176 219.046879 
L 282.875176 219.755536 
L 283.042464 219.932155 
L 283.714833 219.932155 
L 283.547545 219.755536 
L 283.042464 219.400117 
L 282.373312 219.400117 
L 282.373312 219.755536 
L 282.875176 219.932155 
L 282.707888 220.287573 
L 283.042464 220.81961 
L 283.380257 220.81961 
L 283.042464 220.464192 
L 282.707888 219.755536 
L 283.212969 219.755536 
L 284.052626 220.464192 
L 283.885338 220.81961 
L 284.219914 221.175029 
L 284.219914 220.996229 
L 283.885338 220.464192 
L 283.885338 220.81961 
L 284.052626 221.351648 
L 284.387202 221.528267 
L 284.387202 221.528267 
L 284.387202 221.175029 
L 284.557707 221.351648 
L 285.059571 221.351648 
L 285.564652 221.175029 
L 285.899228 220.81961 
L 285.899228 220.996229 
L 286.237021 221.351648 
L 286.237021 221.707066 
L 284.557707 220.81961 
L 283.885338 220.81961 
L 283.714833 221.175029 
L 284.052626 221.528267 
L 284.387202 221.351648 
L 284.557707 220.996229 
L 284.557707 221.175029 
L 284.892283 221.351648 
L 285.226859 221.351648 
L 285.226859 220.996229 
L 284.892283 220.642992 
L 284.219914 220.110954 
L 284.387202 220.287573 
L 284.724995 220.996229 
L 285.73194 219.932155 
L 285.397364 219.578917 
L 284.892283 219.400117 
L 284.724995 219.932155 
L 285.397364 220.110954 
L 285.73194 220.464192 
L 286.404309 220.81961 
L 287.749047 220.81961 
L 289.766155 220.642992 
L 294.640026 221.528267 
L 298.671024 222.771141 
L 303.882689 224.720491 
L 314.804665 229.155589 
L 327.07138 234.299344 
L 343.874173 241.926666 
L 347.403307 244.054815 
L 352.444466 247.779077 
L 354.294286 249.019771 
L 356.645969 250.083845 
L 358.997652 250.794682 
L 361.854417 251.14792 
L 362.526786 251.858757 
L 362.864579 252.390794 
L 365.888631 255.050981 
L 366.561 255.759637 
L 371.434872 259.30728 
L 372.609105 259.483899 
L 374.121131 259.30728 
L 375.970951 259.483899 
L 377.988058 260.371354 
L 380.339741 261.080011 
L 382.691425 261.967466 
L 387.063432 264.983072 
L 389.582404 266.400384 
L 391.934087 267.466639 
L 393.278825 268.530714 
L 394.288987 269.771408 
L 395.46322 270.835482 
L 396.640671 271.544139 
L 397.647616 272.608213 
L 398.319985 274.027707 
L 398.487273 274.915162 
L 398.152697 274.915162 
L 396.807959 275.4472 
L 395.968301 276.334655 
L 395.295932 277.219931 
L 394.623563 278.816043 
L 393.951194 279.526879 
L 392.773744 280.412155 
L 392.606456 280.767573 
L 392.606456 281.29961 
L 392.27188 282.895723 
L 391.934087 283.072341 
L 391.934087 283.072341 
L 392.439168 284.315216 
L 392.773744 285.37929 
L 393.111537 285.734709 
L 393.446113 285.911328 
L 393.446113 286.975402 
L 393.446113 286.975402 
L 393.616618 287.152021 
L 394.288987 287.684059 
L 395.128644 288.571514 
L 394.961356 288.394895 
L 394.623563 288.748133 
L 394.118482 288.748133 
L 393.111537 287.684059 
L 392.944249 288.039477 
L 393.278825 288.748133 
L 393.951194 289.45897 
L 393.951194 289.812208 
L 393.783906 289.812208 
L 393.616618 289.635589 
L 393.446113 288.926933 
L 393.446113 289.280171 
L 392.944249 291.055082 
L 392.606456 290.699664 
L 392.944249 290.699664 
L 393.446113 291.055082 
L 393.783906 290.876283 
L 393.783906 290.523045 
L 393.616618 290.344245 
L 393.783906 290.167626 
L 394.118482 289.991008 
L 394.456275 290.344245 
L 394.456275 290.699664 
L 394.288987 291.055082 
L 393.783906 290.699664 
L 393.616618 290.167626 
L 393.278825 290.344245 
L 393.278825 290.876283 
L 393.951194 291.58712 
L 394.456275 291.940358 
L 394.118482 292.119157 
L 393.783906 291.940358 
L 393.783906 291.231701 
L 392.944249 291.58712 
L 392.944249 291.58712 
L 392.944249 291.940358 
L 392.773744 292.119157 
L 392.944249 292.474575 
L 393.278825 292.119157 
L 393.616618 291.40832 
L 392.773744 291.40832 
L 393.278825 291.940358 
L 393.278825 291.940358 
L 393.278825 291.58712 
L 393.446113 291.58712 
L 393.446113 291.940358 
L 393.111537 292.119157 
L 392.606456 291.940358 
L 392.27188 291.940358 
L 392.606456 291.940358 
L 393.278825 291.763739 
L 393.278825 291.58712 
L 392.944249 291.940358 
L 392.606456 292.827813 
L 392.27188 292.827813 
L 392.104592 293.006613 
L 392.27188 293.006613 
L 392.27188 292.119157 
L 392.27188 292.295776 
L 392.606456 292.474575 
L 393.278825 292.474575 
L 393.446113 292.295776 
L 393.111537 292.295776 
L 392.944249 292.474575 
L 392.944249 292.474575 
L 392.606456 292.295776 
L 392.439168 291.763739 
L 392.104592 292.119157 
L 392.104592 292.474575 
L 392.439168 292.474575 
L 393.111537 292.295776 
L 393.446113 292.474575 
L 393.111537 292.827813 
L 392.606456 292.827813 
L 391.934087 292.474575 
L 391.934087 292.651194 
L 392.27188 292.827813 
L 392.606456 292.651194 
L 392.104592 292.474575 
L 391.766799 292.474575 
L 391.599511 292.651194 
L 392.104592 292.295776 
L 391.934087 291.763739 
L 392.104592 291.58712 
L 391.934087 291.763739 
L 391.934087 292.119157 
L 392.104592 292.651194 
L 392.27188 292.651194 
L 392.104592 292.651194 
L 391.432223 293.006613 
L 390.759854 293.006613 
L 390.422061 292.827813 
L 390.927142 292.651194 
L 391.261718 292.827813 
L 391.599511 292.827813 
L 391.432223 292.651194 
L 391.09443 292.474575 
L 390.759854 292.827813 
L 390.927142 293.006613 
L 390.927142 293.183232 
L 390.589349 292.295776 
L 390.422061 292.474575 
L 391.261718 292.474575 
L 391.432223 292.119157 
L 390.927142 291.58712 
L 390.589349 291.58712 
L 390.589349 291.763739 
L 390.927142 292.474575 
L 390.759854 293.006613 
L 389.920197 293.53865 
L 389.920197 293.183232 
L 390.254773 292.651194 
L 390.759854 292.651194 
L 390.927142 293.359851 
L 390.759854 293.53865 
L 390.589349 293.359851 
L 390.589349 293.359851 
L 390.589349 293.006613 
L 389.749692 292.474575 
L 389.582404 292.295776 
L 390.422061 292.827813 
L 390.759854 293.183232 
L 390.759854 293.183232 
L 390.422061 293.183232 
L 390.254773 293.006613 
L 390.087485 293.006613 
L 390.087485 293.006613 
L 389.749692 293.359851 
L 389.920197 293.006613 
L 390.087485 292.295776 
L 389.920197 291.940358 
L 389.582404 292.295776 
L 389.920197 293.53865 
L 389.749692 293.715269 
L 389.749692 293.891888 
L 389.920197 293.715269 
L 390.087485 292.827813 
L 390.087485 292.827813 
L 389.415116 293.183232 
L 389.247828 293.53865 
L 389.247828 293.53865 
L 388.910034 293.183232 
L 388.237665 293.183232 
L 388.070377 293.53865 
L 388.237665 293.715269 
L 388.910034 293.891888 
L 388.910034 293.891888 
L 388.910034 293.715269 
L 389.247828 293.359851 
L 389.582404 292.295776 
L 389.582404 292.474575 
L 389.582404 293.183232 
L 389.920197 293.715269 
L 389.920197 293.715269 
L 389.920197 293.53865 
L 389.749692 293.359851 
L 389.920197 293.359851 
L 389.749692 293.183232 
L 388.910034 292.827813 
L 389.582404 293.183232 
L 389.582404 293.53865 
L 389.749692 293.715269 
L 389.920197 293.359851 
L 389.582404 293.006613 
L 388.910034 292.827813 
L 388.237665 293.183232 
L 387.903089 293.53865 
L 388.070377 293.891888 
L 387.903089 293.53865 
L 388.070377 293.53865 
L 388.575458 293.359851 
L 388.237665 293.53865 
L 388.070377 293.715269 
L 388.070377 294.070687 
L 387.903089 294.602725 
L 387.732584 294.602725 
L 387.565296 294.247306 
L 387.23072 293.891888 
L 386.725639 293.891888 
L 387.398008 293.53865 
L 386.558351 294.070687 
L 386.725639 294.070687 
L 387.063432 293.715269 
L 387.398008 293.715269 
L 387.565296 294.070687 
L 387.23072 294.602725 
L 387.063432 294.602725 
L 386.558351 294.423925 
L 386.05327 294.070687 
L 386.05327 294.247306 
L 385.885982 294.423925 
L 385.885982 294.779344 
L 386.220558 295.311381 
L 386.725639 295.488 
L 386.892927 295.134762 
L 386.892927 294.602725 
L 386.05327 293.891888 
L 387.063432 293.359851 
L 387.063432 293.715269 
L 386.892927 294.247306 
L 386.558351 294.423925 
L 386.391063 293.891888 
L 386.558351 293.53865 
L 386.725639 293.53865 
L 386.558351 293.53865 
L 386.05327 293.183232 
L 386.220558 293.006613 
L 386.558351 293.891888 
L 386.391063 294.247306 
L 386.05327 294.423925 
L 385.548189 294.247306 
L 385.548189 293.53865 
L 385.885982 293.183232 
L 386.220558 293.183232 
L 386.05327 293.359851 
L 386.05327 293.715269 
L 386.391063 294.070687 
L 386.391063 294.247306 
L 386.05327 294.247306 
L 386.05327 294.070687 
L 385.885982 294.070687 
L 385.548189 294.247306 
L 385.213613 294.602725 
L 385.213613 294.423925 
L 385.548189 293.891888 
L 385.885982 293.715269 
L 386.05327 294.247306 
L 386.05327 294.247306 
" style="fill:none;stroke:#1f77b4;stroke-linecap:square;stroke-width:1.5;"/>
   </g>
   <g id="matplotlib.axis_1">
    <g id="xtick_1">
     <g id="line2d_2">
      <defs>
       <path d="M 0 0 
L 0 3.5 
" id="m529e79e2f5" style="stroke:#000000;stroke-width:0.8;"/>
      </defs>
      <g>
       <use style="stroke:#000000;stroke-width:0.8;" x="117.662185" xlink:href="#m529e79e2f5" y="307.584"/>
      </g>
     </g>
     <g id="text_1">
      <!-- −600 -->
      <defs>
       <path d="M 10.59375 35.5 
L 73.1875 35.5 
L 73.1875 27.203125 
L 10.59375 27.203125 
z
" id="DejaVuSans-8722"/>
       <path d="M 33.015625 40.375 
Q 26.375 40.375 22.484375 35.828125 
Q 18.609375 31.296875 18.609375 23.390625 
Q 18.609375 15.53125 22.484375 10.953125 
Q 26.375 6.390625 33.015625 6.390625 
Q 39.65625 6.390625 43.53125 10.953125 
Q 47.40625 15.53125 47.40625 23.390625 
Q 47.40625 31.296875 43.53125 35.828125 
Q 39.65625 40.375 33.015625 40.375 
z
M 52.59375 71.296875 
L 52.59375 62.3125 
Q 48.875 64.0625 45.09375 64.984375 
Q 41.3125 65.921875 37.59375 65.921875 
Q 27.828125 65.921875 22.671875 59.328125 
Q 17.53125 52.734375 16.796875 39.40625 
Q 19.671875 43.65625 24.015625 45.921875 
Q 28.375 48.1875 33.59375 48.1875 
Q 44.578125 48.1875 50.953125 41.515625 
Q 57.328125 34.859375 57.328125 23.390625 
Q 57.328125 12.15625 50.6875 5.359375 
Q 44.046875 -1.421875 33.015625 -1.421875 
Q 20.359375 -1.421875 13.671875 8.265625 
Q 6.984375 17.96875 6.984375 36.375 
Q 6.984375 53.65625 15.1875 63.9375 
Q 23.390625 74.21875 37.203125 74.21875 
Q 40.921875 74.21875 44.703125 73.484375 
Q 48.484375 72.75 52.59375 71.296875 
z
" id="DejaVuSans-54"/>
       <path d="M 31.78125 66.40625 
Q 24.171875 66.40625 20.328125 58.90625 
Q 16.5 51.421875 16.5 36.375 
Q 16.5 21.390625 20.328125 13.890625 
Q 24.171875 6.390625 31.78125 6.390625 
Q 39.453125 6.390625 43.28125 13.890625 
Q 47.125 21.390625 47.125 36.375 
Q 47.125 51.421875 43.28125 58.90625 
Q 39.453125 66.40625 31.78125 66.40625 
z
M 31.78125 74.21875 
Q 44.046875 74.21875 50.515625 64.515625 
Q 56.984375 54.828125 56.984375 36.375 
Q 56.984375 17.96875 50.515625 8.265625 
Q 44.046875 -1.421875 31.78125 -1.421875 
Q 19.53125 -1.421875 13.0625 8.265625 
Q 6.59375 17.96875 6.59375 36.375 
Q 6.59375 54.828125 13.0625 64.515625 
Q 19.53125 74.21875 31.78125 74.21875 
z
" id="DejaVuSans-48"/>
      </defs>
      <g transform="translate(103.928591 322.182437)scale(0.1 -0.1)">
       <use xlink:href="#DejaVuSans-8722"/>
       <use x="83.789062" xlink:href="#DejaVuSans-54"/>
       <use x="147.412109" xlink:href="#DejaVuSans-48"/>
       <use x="211.035156" xlink:href="#DejaVuSans-48"/>
      </g>
     </g>
    </g>
    <g id="xtick_2">
     <g id="line2d_3">
      <g>
       <use style="stroke:#000000;stroke-width:0.8;" x="182.003725" xlink:href="#m529e79e2f5" y="307.584"/>
      </g>
     </g>
     <g id="text_2">
      <!-- −400 -->
      <defs>
       <path d="M 37.796875 64.3125 
L 12.890625 25.390625 
L 37.796875 25.390625 
z
M 35.203125 72.90625 
L 47.609375 72.90625 
L 47.609375 25.390625 
L 58.015625 25.390625 
L 58.015625 17.1875 
L 47.609375 17.1875 
L 47.609375 0 
L 37.796875 0 
L 37.796875 17.1875 
L 4.890625 17.1875 
L 4.890625 26.703125 
z
" id="DejaVuSans-52"/>
      </defs>
      <g transform="translate(168.270132 322.182437)scale(0.1 -0.1)">
       <use xlink:href="#DejaVuSans-8722"/>
       <use x="83.789062" xlink:href="#DejaVuSans-52"/>
       <use x="147.412109" xlink:href="#DejaVuSans-48"/>
       <use x="211.035156" xlink:href="#DejaVuSans-48"/>
      </g>
     </g>
    </g>
    <g id="xtick_3">
     <g id="line2d_4">
      <g>
       <use style="stroke:#000000;stroke-width:0.8;" x="246.345266" xlink:href="#m529e79e2f5" y="307.584"/>
      </g>
     </g>
     <g id="text_3">
      <!-- −200 -->
      <defs>
       <path d="M 19.1875 8.296875 
L 53.609375 8.296875 
L 53.609375 0 
L 7.328125 0 
L 7.328125 8.296875 
Q 12.9375 14.109375 22.625 23.890625 
Q 32.328125 33.6875 34.8125 36.53125 
Q 39.546875 41.84375 41.421875 45.53125 
Q 43.3125 49.21875 43.3125 52.78125 
Q 43.3125 58.59375 39.234375 62.25 
Q 35.15625 65.921875 28.609375 65.921875 
Q 23.96875 65.921875 18.8125 64.3125 
Q 13.671875 62.703125 7.8125 59.421875 
L 7.8125 69.390625 
Q 13.765625 71.78125 18.9375 73 
Q 24.125 74.21875 28.421875 74.21875 
Q 39.75 74.21875 46.484375 68.546875 
Q 53.21875 62.890625 53.21875 53.421875 
Q 53.21875 48.921875 51.53125 44.890625 
Q 49.859375 40.875 45.40625 35.40625 
Q 44.1875 33.984375 37.640625 27.21875 
Q 31.109375 20.453125 19.1875 8.296875 
z
" id="DejaVuSans-50"/>
      </defs>
      <g transform="translate(232.611672 322.182437)scale(0.1 -0.1)">
       <use xlink:href="#DejaVuSans-8722"/>
       <use x="83.789062" xlink:href="#DejaVuSans-50"/>
       <use x="147.412109" xlink:href="#DejaVuSans-48"/>
       <use x="211.035156" xlink:href="#DejaVuSans-48"/>
      </g>
     </g>
    </g>
    <g id="xtick_4">
     <g id="line2d_5">
      <g>
       <use style="stroke:#000000;stroke-width:0.8;" x="310.686806" xlink:href="#m529e79e2f5" y="307.584"/>
      </g>
     </g>
     <g id="text_4">
      <!-- 0 -->
      <g transform="translate(307.505556 322.182437)scale(0.1 -0.1)">
       <use xlink:href="#DejaVuSans-48"/>
      </g>
     </g>
    </g>
    <g id="xtick_5">
     <g id="line2d_6">
      <g>
       <use style="stroke:#000000;stroke-width:0.8;" x="375.028347" xlink:href="#m529e79e2f5" y="307.584"/>
      </g>
     </g>
     <g id="text_5">
      <!-- 200 -->
      <g transform="translate(365.484597 322.182437)scale(0.1 -0.1)">
       <use xlink:href="#DejaVuSans-50"/>
       <use x="63.623047" xlink:href="#DejaVuSans-48"/>
       <use x="127.246094" xlink:href="#DejaVuSans-48"/>
      </g>
     </g>
    </g>
   </g>
   <g id="matplotlib.axis_2">
    <g id="ytick_1">
     <g id="line2d_7">
      <defs>
       <path d="M 0 0 
L -3.5 0 
" id="m15dde7732c" style="stroke:#000000;stroke-width:0.8;"/>
      </defs>
      <g>
       <use style="stroke:#000000;stroke-width:0.8;" x="57.6" xlink:href="#m15dde7732c" y="289.437165"/>
      </g>
     </g>
     <g id="text_6">
      <!-- −200 -->
      <g transform="translate(23.132812 293.236384)scale(0.1 -0.1)">
       <use xlink:href="#DejaVuSans-8722"/>
       <use x="83.789062" xlink:href="#DejaVuSans-50"/>
       <use x="147.412109" xlink:href="#DejaVuSans-48"/>
       <use x="211.035156" xlink:href="#DejaVuSans-48"/>
      </g>
     </g>
    </g>
    <g id="ytick_2">
     <g id="line2d_8">
      <g>
       <use style="stroke:#000000;stroke-width:0.8;" x="57.6" xlink:href="#m15dde7732c" y="245.827546"/>
      </g>
     </g>
     <g id="text_7">
      <!-- 0 -->
      <g transform="translate(44.2375 249.626765)scale(0.1 -0.1)">
       <use xlink:href="#DejaVuSans-48"/>
      </g>
     </g>
    </g>
    <g id="ytick_3">
     <g id="line2d_9">
      <g>
       <use style="stroke:#000000;stroke-width:0.8;" x="57.6" xlink:href="#m15dde7732c" y="202.217928"/>
      </g>
     </g>
     <g id="text_8">
      <!-- 200 -->
      <g transform="translate(31.5125 206.017146)scale(0.1 -0.1)">
       <use xlink:href="#DejaVuSans-50"/>
       <use x="63.623047" xlink:href="#DejaVuSans-48"/>
       <use x="127.246094" xlink:href="#DejaVuSans-48"/>
      </g>
     </g>
    </g>
    <g id="ytick_4">
     <g id="line2d_10">
      <g>
       <use style="stroke:#000000;stroke-width:0.8;" x="57.6" xlink:href="#m15dde7732c" y="158.608309"/>
      </g>
     </g>
     <g id="text_9">
      <!-- 400 -->
      <g transform="translate(31.5125 162.407527)scale(0.1 -0.1)">
       <use xlink:href="#DejaVuSans-52"/>
       <use x="63.623047" xlink:href="#DejaVuSans-48"/>
       <use x="127.246094" xlink:href="#DejaVuSans-48"/>
      </g>
     </g>
    </g>
    <g id="ytick_5">
     <g id="line2d_11">
      <g>
       <use style="stroke:#000000;stroke-width:0.8;" x="57.6" xlink:href="#m15dde7732c" y="114.99869"/>
      </g>
     </g>
     <g id="text_10">
      <!-- 600 -->
      <g transform="translate(31.5125 118.797908)scale(0.1 -0.1)">
       <use xlink:href="#DejaVuSans-54"/>
       <use x="63.623047" xlink:href="#DejaVuSans-48"/>
       <use x="127.246094" xlink:href="#DejaVuSans-48"/>
      </g>
     </g>
    </g>
    <g id="ytick_6">
     <g id="line2d_12">
      <g>
       <use style="stroke:#000000;stroke-width:0.8;" x="57.6" xlink:href="#m15dde7732c" y="71.389071"/>
      </g>
     </g>
     <g id="text_11">
      <!-- 800 -->
      <defs>
       <path d="M 31.78125 34.625 
Q 24.75 34.625 20.71875 30.859375 
Q 16.703125 27.09375 16.703125 20.515625 
Q 16.703125 13.921875 20.71875 10.15625 
Q 24.75 6.390625 31.78125 6.390625 
Q 38.8125 6.390625 42.859375 10.171875 
Q 46.921875 13.96875 46.921875 20.515625 
Q 46.921875 27.09375 42.890625 30.859375 
Q 38.875 34.625 31.78125 34.625 
z
M 21.921875 38.8125 
Q 15.578125 40.375 12.03125 44.71875 
Q 8.5 49.078125 8.5 55.328125 
Q 8.5 64.0625 14.71875 69.140625 
Q 20.953125 74.21875 31.78125 74.21875 
Q 42.671875 74.21875 48.875 69.140625 
Q 55.078125 64.0625 55.078125 55.328125 
Q 55.078125 49.078125 51.53125 44.71875 
Q 48 40.375 41.703125 38.8125 
Q 48.828125 37.15625 52.796875 32.3125 
Q 56.78125 27.484375 56.78125 20.515625 
Q 56.78125 9.90625 50.3125 4.234375 
Q 43.84375 -1.421875 31.78125 -1.421875 
Q 19.734375 -1.421875 13.25 4.234375 
Q 6.78125 9.90625 6.78125 20.515625 
Q 6.78125 27.484375 10.78125 32.3125 
Q 14.796875 37.15625 21.921875 38.8125 
z
M 18.3125 54.390625 
Q 18.3125 48.734375 21.84375 45.5625 
Q 25.390625 42.390625 31.78125 42.390625 
Q 38.140625 42.390625 41.71875 45.5625 
Q 45.3125 48.734375 45.3125 54.390625 
Q 45.3125 60.0625 41.71875 63.234375 
Q 38.140625 66.40625 31.78125 66.40625 
Q 25.390625 66.40625 21.84375 63.234375 
Q 18.3125 60.0625 18.3125 54.390625 
z
" id="DejaVuSans-56"/>
      </defs>
      <g transform="translate(31.5125 75.18829)scale(0.1 -0.1)">
       <use xlink:href="#DejaVuSans-56"/>
       <use x="63.623047" xlink:href="#DejaVuSans-48"/>
       <use x="127.246094" xlink:href="#DejaVuSans-48"/>
      </g>
     </g>
    </g>
   </g>
   <g id="line2d_13">
    <path clip-path="url(#p3634272043)" d="M 78.154628 60.049316 
L 270.243897 228.077308 
L 306.293097 230.212249 
L 286.202767 219.230997 
L 389.465835 280.376147 
L 389.678793 293.085461 
" style="fill:none;stroke:#ff0000;stroke-linecap:square;stroke-width:0.5;"/>
   </g>
   <g id="patch_3">
    <path d="M 57.6 307.584 
L 57.6 41.472 
" style="fill:none;stroke:#000000;stroke-linecap:square;stroke-linejoin:miter;stroke-width:0.8;"/>
   </g>
   <g id="patch_4">
    <path d="M 414.72 307.584 
L 414.72 41.472 
" style="fill:none;stroke:#000000;stroke-linecap:square;stroke-linejoin:miter;stroke-width:0.8;"/>
   </g>
   <g id="patch_5">
    <path d="M 57.6 307.584 
L 414.72 307.584 
" style="fill:none;stroke:#000000;stroke-linecap:square;stroke-linejoin:miter;stroke-width:0.8;"/>
   </g>
   <g id="patch_6">
    <path d="M 57.6 41.472 
L 414.72 41.472 
" style="fill:none;stroke:#000000;stroke-linecap:square;stroke-linejoin:miter;stroke-width:0.8;"/>
   </g>
   <g id="PathCollection_1">
    <defs>
     <path d="M 0 2.738613 
C 0.726289 2.738613 1.422928 2.450055 1.936492 1.936492 
C 2.450055 1.422928 2.738613 0.726289 2.738613 0 
C 2.738613 -0.726289 2.450055 -1.422928 1.936492 -1.936492 
C 1.422928 -2.450055 0.726289 -2.738613 0 -2.738613 
C -0.726289 -2.738613 -1.422928 -2.450055 -1.936492 -1.936492 
C -2.450055 -1.422928 -2.738613 -0.726289 -2.738613 0 
C -2.738613 0.726289 -2.450055 1.422928 -1.936492 1.936492 
C -1.422928 2.450055 -0.726289 2.738613 0 2.738613 
z
" id="m747c09c067" style="stroke:#ff0000;"/>
    </defs>
    <g clip-path="url(#p3634272043)">
     <use style="fill:#ff0000;stroke:#ff0000;" x="78.154628" xlink:href="#m747c09c067" y="60.049316"/>
     <use style="fill:#ff0000;stroke:#ff0000;" x="270.243897" xlink:href="#m747c09c067" y="228.077308"/>
     <use style="fill:#ff0000;stroke:#ff0000;" x="306.293097" xlink:href="#m747c09c067" y="230.212249"/>
     <use style="fill:#ff0000;stroke:#ff0000;" x="286.202767" xlink:href="#m747c09c067" y="219.230997"/>
     <use style="fill:#ff0000;stroke:#ff0000;" x="389.465835" xlink:href="#m747c09c067" y="280.376147"/>
     <use style="fill:#ff0000;stroke:#ff0000;" x="389.678793" xlink:href="#m747c09c067" y="293.085461"/>
    </g>
   </g>
   <g id="text_12">
    <!-- (43) Subject: s23, Known = True, Degree = 2, Duration = 0.1 -->
    <defs>
     <path d="M 31 75.875 
Q 24.46875 64.65625 21.28125 53.65625 
Q 18.109375 42.671875 18.109375 31.390625 
Q 18.109375 20.125 21.3125 9.0625 
Q 24.515625 -2 31 -13.1875 
L 23.1875 -13.1875 
Q 15.875 -1.703125 12.234375 9.375 
Q 8.59375 20.453125 8.59375 31.390625 
Q 8.59375 42.28125 12.203125 53.3125 
Q 15.828125 64.359375 23.1875 75.875 
z
" id="DejaVuSans-40"/>
     <path d="M 40.578125 39.3125 
Q 47.65625 37.796875 51.625 33 
Q 55.609375 28.21875 55.609375 21.1875 
Q 55.609375 10.40625 48.1875 4.484375 
Q 40.765625 -1.421875 27.09375 -1.421875 
Q 22.515625 -1.421875 17.65625 -0.515625 
Q 12.796875 0.390625 7.625 2.203125 
L 7.625 11.71875 
Q 11.71875 9.328125 16.59375 8.109375 
Q 21.484375 6.890625 26.8125 6.890625 
Q 36.078125 6.890625 40.9375 10.546875 
Q 45.796875 14.203125 45.796875 21.1875 
Q 45.796875 27.640625 41.28125 31.265625 
Q 36.765625 34.90625 28.71875 34.90625 
L 20.21875 34.90625 
L 20.21875 43.015625 
L 29.109375 43.015625 
Q 36.375 43.015625 40.234375 45.921875 
Q 44.09375 48.828125 44.09375 54.296875 
Q 44.09375 59.90625 40.109375 62.90625 
Q 36.140625 65.921875 28.71875 65.921875 
Q 24.65625 65.921875 20.015625 65.03125 
Q 15.375 64.15625 9.8125 62.3125 
L 9.8125 71.09375 
Q 15.4375 72.65625 20.34375 73.4375 
Q 25.25 74.21875 29.59375 74.21875 
Q 40.828125 74.21875 47.359375 69.109375 
Q 53.90625 64.015625 53.90625 55.328125 
Q 53.90625 49.265625 50.4375 45.09375 
Q 46.96875 40.921875 40.578125 39.3125 
z
" id="DejaVuSans-51"/>
     <path d="M 8.015625 75.875 
L 15.828125 75.875 
Q 23.140625 64.359375 26.78125 53.3125 
Q 30.421875 42.28125 30.421875 31.390625 
Q 30.421875 20.453125 26.78125 9.375 
Q 23.140625 -1.703125 15.828125 -13.1875 
L 8.015625 -13.1875 
Q 14.5 -2 17.703125 9.0625 
Q 20.90625 20.125 20.90625 31.390625 
Q 20.90625 42.671875 17.703125 53.65625 
Q 14.5 64.65625 8.015625 75.875 
z
" id="DejaVuSans-41"/>
     <path id="DejaVuSans-32"/>
     <path d="M 53.515625 70.515625 
L 53.515625 60.890625 
Q 47.90625 63.578125 42.921875 64.890625 
Q 37.9375 66.21875 33.296875 66.21875 
Q 25.25 66.21875 20.875 63.09375 
Q 16.5 59.96875 16.5 54.203125 
Q 16.5 49.359375 19.40625 46.890625 
Q 22.3125 44.4375 30.421875 42.921875 
L 36.375 41.703125 
Q 47.40625 39.59375 52.65625 34.296875 
Q 57.90625 29 57.90625 20.125 
Q 57.90625 9.515625 50.796875 4.046875 
Q 43.703125 -1.421875 29.984375 -1.421875 
Q 24.8125 -1.421875 18.96875 -0.25 
Q 13.140625 0.921875 6.890625 3.21875 
L 6.890625 13.375 
Q 12.890625 10.015625 18.65625 8.296875 
Q 24.421875 6.59375 29.984375 6.59375 
Q 38.421875 6.59375 43.015625 9.90625 
Q 47.609375 13.234375 47.609375 19.390625 
Q 47.609375 24.75 44.3125 27.78125 
Q 41.015625 30.8125 33.5 32.328125 
L 27.484375 33.5 
Q 16.453125 35.6875 11.515625 40.375 
Q 6.59375 45.0625 6.59375 53.421875 
Q 6.59375 63.09375 13.40625 68.65625 
Q 20.21875 74.21875 32.171875 74.21875 
Q 37.3125 74.21875 42.625 73.28125 
Q 47.953125 72.359375 53.515625 70.515625 
z
" id="DejaVuSans-83"/>
     <path d="M 8.5 21.578125 
L 8.5 54.6875 
L 17.484375 54.6875 
L 17.484375 21.921875 
Q 17.484375 14.15625 20.5 10.265625 
Q 23.53125 6.390625 29.59375 6.390625 
Q 36.859375 6.390625 41.078125 11.03125 
Q 45.3125 15.671875 45.3125 23.6875 
L 45.3125 54.6875 
L 54.296875 54.6875 
L 54.296875 0 
L 45.3125 0 
L 45.3125 8.40625 
Q 42.046875 3.421875 37.71875 1 
Q 33.40625 -1.421875 27.6875 -1.421875 
Q 18.265625 -1.421875 13.375 4.4375 
Q 8.5 10.296875 8.5 21.578125 
z
M 31.109375 56 
z
" id="DejaVuSans-117"/>
     <path d="M 48.6875 27.296875 
Q 48.6875 37.203125 44.609375 42.84375 
Q 40.53125 48.484375 33.40625 48.484375 
Q 26.265625 48.484375 22.1875 42.84375 
Q 18.109375 37.203125 18.109375 27.296875 
Q 18.109375 17.390625 22.1875 11.75 
Q 26.265625 6.109375 33.40625 6.109375 
Q 40.53125 6.109375 44.609375 11.75 
Q 48.6875 17.390625 48.6875 27.296875 
z
M 18.109375 46.390625 
Q 20.953125 51.265625 25.265625 53.625 
Q 29.59375 56 35.59375 56 
Q 45.5625 56 51.78125 48.09375 
Q 58.015625 40.1875 58.015625 27.296875 
Q 58.015625 14.40625 51.78125 6.484375 
Q 45.5625 -1.421875 35.59375 -1.421875 
Q 29.59375 -1.421875 25.265625 0.953125 
Q 20.953125 3.328125 18.109375 8.203125 
L 18.109375 0 
L 9.078125 0 
L 9.078125 75.984375 
L 18.109375 75.984375 
z
" id="DejaVuSans-98"/>
     <path d="M 9.421875 54.6875 
L 18.40625 54.6875 
L 18.40625 -0.984375 
Q 18.40625 -11.421875 14.421875 -16.109375 
Q 10.453125 -20.796875 1.609375 -20.796875 
L -1.8125 -20.796875 
L -1.8125 -13.1875 
L 0.59375 -13.1875 
Q 5.71875 -13.1875 7.5625 -10.8125 
Q 9.421875 -8.453125 9.421875 -0.984375 
z
M 9.421875 75.984375 
L 18.40625 75.984375 
L 18.40625 64.59375 
L 9.421875 64.59375 
z
" id="DejaVuSans-106"/>
     <path d="M 56.203125 29.59375 
L 56.203125 25.203125 
L 14.890625 25.203125 
Q 15.484375 15.921875 20.484375 11.0625 
Q 25.484375 6.203125 34.421875 6.203125 
Q 39.59375 6.203125 44.453125 7.46875 
Q 49.3125 8.734375 54.109375 11.28125 
L 54.109375 2.78125 
Q 49.265625 0.734375 44.1875 -0.34375 
Q 39.109375 -1.421875 33.890625 -1.421875 
Q 20.796875 -1.421875 13.15625 6.1875 
Q 5.515625 13.8125 5.515625 26.8125 
Q 5.515625 40.234375 12.765625 48.109375 
Q 20.015625 56 32.328125 56 
Q 43.359375 56 49.78125 48.890625 
Q 56.203125 41.796875 56.203125 29.59375 
z
M 47.21875 32.234375 
Q 47.125 39.59375 43.09375 43.984375 
Q 39.0625 48.390625 32.421875 48.390625 
Q 24.90625 48.390625 20.390625 44.140625 
Q 15.875 39.890625 15.1875 32.171875 
z
" id="DejaVuSans-101"/>
     <path d="M 48.78125 52.59375 
L 48.78125 44.1875 
Q 44.96875 46.296875 41.140625 47.34375 
Q 37.3125 48.390625 33.40625 48.390625 
Q 24.65625 48.390625 19.8125 42.84375 
Q 14.984375 37.3125 14.984375 27.296875 
Q 14.984375 17.28125 19.8125 11.734375 
Q 24.65625 6.203125 33.40625 6.203125 
Q 37.3125 6.203125 41.140625 7.25 
Q 44.96875 8.296875 48.78125 10.40625 
L 48.78125 2.09375 
Q 45.015625 0.34375 40.984375 -0.53125 
Q 36.96875 -1.421875 32.421875 -1.421875 
Q 20.0625 -1.421875 12.78125 6.34375 
Q 5.515625 14.109375 5.515625 27.296875 
Q 5.515625 40.671875 12.859375 48.328125 
Q 20.21875 56 33.015625 56 
Q 37.15625 56 41.109375 55.140625 
Q 45.0625 54.296875 48.78125 52.59375 
z
" id="DejaVuSans-99"/>
     <path d="M 18.3125 70.21875 
L 18.3125 54.6875 
L 36.8125 54.6875 
L 36.8125 47.703125 
L 18.3125 47.703125 
L 18.3125 18.015625 
Q 18.3125 11.328125 20.140625 9.421875 
Q 21.96875 7.515625 27.59375 7.515625 
L 36.8125 7.515625 
L 36.8125 0 
L 27.59375 0 
Q 17.1875 0 13.234375 3.875 
Q 9.28125 7.765625 9.28125 18.015625 
L 9.28125 47.703125 
L 2.6875 47.703125 
L 2.6875 54.6875 
L 9.28125 54.6875 
L 9.28125 70.21875 
z
" id="DejaVuSans-116"/>
     <path d="M 11.71875 12.40625 
L 22.015625 12.40625 
L 22.015625 0 
L 11.71875 0 
z
M 11.71875 51.703125 
L 22.015625 51.703125 
L 22.015625 39.3125 
L 11.71875 39.3125 
z
" id="DejaVuSans-58"/>
     <path d="M 44.28125 53.078125 
L 44.28125 44.578125 
Q 40.484375 46.53125 36.375 47.5 
Q 32.28125 48.484375 27.875 48.484375 
Q 21.1875 48.484375 17.84375 46.4375 
Q 14.5 44.390625 14.5 40.28125 
Q 14.5 37.15625 16.890625 35.375 
Q 19.28125 33.59375 26.515625 31.984375 
L 29.59375 31.296875 
Q 39.15625 29.25 43.1875 25.515625 
Q 47.21875 21.78125 47.21875 15.09375 
Q 47.21875 7.46875 41.1875 3.015625 
Q 35.15625 -1.421875 24.609375 -1.421875 
Q 20.21875 -1.421875 15.453125 -0.5625 
Q 10.6875 0.296875 5.421875 2 
L 5.421875 11.28125 
Q 10.40625 8.6875 15.234375 7.390625 
Q 20.0625 6.109375 24.8125 6.109375 
Q 31.15625 6.109375 34.5625 8.28125 
Q 37.984375 10.453125 37.984375 14.40625 
Q 37.984375 18.0625 35.515625 20.015625 
Q 33.0625 21.96875 24.703125 23.78125 
L 21.578125 24.515625 
Q 13.234375 26.265625 9.515625 29.90625 
Q 5.8125 33.546875 5.8125 39.890625 
Q 5.8125 47.609375 11.28125 51.796875 
Q 16.75 56 26.8125 56 
Q 31.78125 56 36.171875 55.265625 
Q 40.578125 54.546875 44.28125 53.078125 
z
" id="DejaVuSans-115"/>
     <path d="M 11.71875 12.40625 
L 22.015625 12.40625 
L 22.015625 4 
L 14.015625 -11.625 
L 7.71875 -11.625 
L 11.71875 4 
z
" id="DejaVuSans-44"/>
     <path d="M 9.8125 72.90625 
L 19.671875 72.90625 
L 19.671875 42.09375 
L 52.390625 72.90625 
L 65.09375 72.90625 
L 28.90625 38.921875 
L 67.671875 0 
L 54.6875 0 
L 19.671875 35.109375 
L 19.671875 0 
L 9.8125 0 
z
" id="DejaVuSans-75"/>
     <path d="M 54.890625 33.015625 
L 54.890625 0 
L 45.90625 0 
L 45.90625 32.71875 
Q 45.90625 40.484375 42.875 44.328125 
Q 39.84375 48.1875 33.796875 48.1875 
Q 26.515625 48.1875 22.3125 43.546875 
Q 18.109375 38.921875 18.109375 30.90625 
L 18.109375 0 
L 9.078125 0 
L 9.078125 54.6875 
L 18.109375 54.6875 
L 18.109375 46.1875 
Q 21.34375 51.125 25.703125 53.5625 
Q 30.078125 56 35.796875 56 
Q 45.21875 56 50.046875 50.171875 
Q 54.890625 44.34375 54.890625 33.015625 
z
" id="DejaVuSans-110"/>
     <path d="M 30.609375 48.390625 
Q 23.390625 48.390625 19.1875 42.75 
Q 14.984375 37.109375 14.984375 27.296875 
Q 14.984375 17.484375 19.15625 11.84375 
Q 23.34375 6.203125 30.609375 6.203125 
Q 37.796875 6.203125 41.984375 11.859375 
Q 46.1875 17.53125 46.1875 27.296875 
Q 46.1875 37.015625 41.984375 42.703125 
Q 37.796875 48.390625 30.609375 48.390625 
z
M 30.609375 56 
Q 42.328125 56 49.015625 48.375 
Q 55.71875 40.765625 55.71875 27.296875 
Q 55.71875 13.875 49.015625 6.21875 
Q 42.328125 -1.421875 30.609375 -1.421875 
Q 18.84375 -1.421875 12.171875 6.21875 
Q 5.515625 13.875 5.515625 27.296875 
Q 5.515625 40.765625 12.171875 48.375 
Q 18.84375 56 30.609375 56 
z
" id="DejaVuSans-111"/>
     <path d="M 4.203125 54.6875 
L 13.1875 54.6875 
L 24.421875 12.015625 
L 35.59375 54.6875 
L 46.1875 54.6875 
L 57.421875 12.015625 
L 68.609375 54.6875 
L 77.59375 54.6875 
L 63.28125 0 
L 52.6875 0 
L 40.921875 44.828125 
L 29.109375 0 
L 18.5 0 
z
" id="DejaVuSans-119"/>
     <path d="M 10.59375 45.40625 
L 73.1875 45.40625 
L 73.1875 37.203125 
L 10.59375 37.203125 
z
M 10.59375 25.484375 
L 73.1875 25.484375 
L 73.1875 17.1875 
L 10.59375 17.1875 
z
" id="DejaVuSans-61"/>
     <path d="M -0.296875 72.90625 
L 61.375 72.90625 
L 61.375 64.59375 
L 35.5 64.59375 
L 35.5 0 
L 25.59375 0 
L 25.59375 64.59375 
L -0.296875 64.59375 
z
" id="DejaVuSans-84"/>
     <path d="M 41.109375 46.296875 
Q 39.59375 47.171875 37.8125 47.578125 
Q 36.03125 48 33.890625 48 
Q 26.265625 48 22.1875 43.046875 
Q 18.109375 38.09375 18.109375 28.8125 
L 18.109375 0 
L 9.078125 0 
L 9.078125 54.6875 
L 18.109375 54.6875 
L 18.109375 46.1875 
Q 20.953125 51.171875 25.484375 53.578125 
Q 30.03125 56 36.53125 56 
Q 37.453125 56 38.578125 55.875 
Q 39.703125 55.765625 41.0625 55.515625 
z
" id="DejaVuSans-114"/>
     <path d="M 19.671875 64.796875 
L 19.671875 8.109375 
L 31.59375 8.109375 
Q 46.6875 8.109375 53.6875 14.9375 
Q 60.6875 21.78125 60.6875 36.53125 
Q 60.6875 51.171875 53.6875 57.984375 
Q 46.6875 64.796875 31.59375 64.796875 
z
M 9.8125 72.90625 
L 30.078125 72.90625 
Q 51.265625 72.90625 61.171875 64.09375 
Q 71.09375 55.28125 71.09375 36.53125 
Q 71.09375 17.671875 61.125 8.828125 
Q 51.171875 0 30.078125 0 
L 9.8125 0 
z
" id="DejaVuSans-68"/>
     <path d="M 45.40625 27.984375 
Q 45.40625 37.75 41.375 43.109375 
Q 37.359375 48.484375 30.078125 48.484375 
Q 22.859375 48.484375 18.828125 43.109375 
Q 14.796875 37.75 14.796875 27.984375 
Q 14.796875 18.265625 18.828125 12.890625 
Q 22.859375 7.515625 30.078125 7.515625 
Q 37.359375 7.515625 41.375 12.890625 
Q 45.40625 18.265625 45.40625 27.984375 
z
M 54.390625 6.78125 
Q 54.390625 -7.171875 48.1875 -13.984375 
Q 42 -20.796875 29.203125 -20.796875 
Q 24.46875 -20.796875 20.265625 -20.09375 
Q 16.0625 -19.390625 12.109375 -17.921875 
L 12.109375 -9.1875 
Q 16.0625 -11.328125 19.921875 -12.34375 
Q 23.78125 -13.375 27.78125 -13.375 
Q 36.625 -13.375 41.015625 -8.765625 
Q 45.40625 -4.15625 45.40625 5.171875 
L 45.40625 9.625 
Q 42.625 4.78125 38.28125 2.390625 
Q 33.9375 0 27.875 0 
Q 17.828125 0 11.671875 7.65625 
Q 5.515625 15.328125 5.515625 27.984375 
Q 5.515625 40.671875 11.671875 48.328125 
Q 17.828125 56 27.875 56 
Q 33.9375 56 38.28125 53.609375 
Q 42.625 51.21875 45.40625 46.390625 
L 45.40625 54.6875 
L 54.390625 54.6875 
z
" id="DejaVuSans-103"/>
     <path d="M 34.28125 27.484375 
Q 23.390625 27.484375 19.1875 25 
Q 14.984375 22.515625 14.984375 16.5 
Q 14.984375 11.71875 18.140625 8.90625 
Q 21.296875 6.109375 26.703125 6.109375 
Q 34.1875 6.109375 38.703125 11.40625 
Q 43.21875 16.703125 43.21875 25.484375 
L 43.21875 27.484375 
z
M 52.203125 31.203125 
L 52.203125 0 
L 43.21875 0 
L 43.21875 8.296875 
Q 40.140625 3.328125 35.546875 0.953125 
Q 30.953125 -1.421875 24.3125 -1.421875 
Q 15.921875 -1.421875 10.953125 3.296875 
Q 6 8.015625 6 15.921875 
Q 6 25.140625 12.171875 29.828125 
Q 18.359375 34.515625 30.609375 34.515625 
L 43.21875 34.515625 
L 43.21875 35.40625 
Q 43.21875 41.609375 39.140625 45 
Q 35.0625 48.390625 27.6875 48.390625 
Q 23 48.390625 18.546875 47.265625 
Q 14.109375 46.140625 10.015625 43.890625 
L 10.015625 52.203125 
Q 14.9375 54.109375 19.578125 55.046875 
Q 24.21875 56 28.609375 56 
Q 40.484375 56 46.34375 49.84375 
Q 52.203125 43.703125 52.203125 31.203125 
z
" id="DejaVuSans-97"/>
     <path d="M 9.421875 54.6875 
L 18.40625 54.6875 
L 18.40625 0 
L 9.421875 0 
z
M 9.421875 75.984375 
L 18.40625 75.984375 
L 18.40625 64.59375 
L 9.421875 64.59375 
z
" id="DejaVuSans-105"/>
     <path d="M 10.6875 12.40625 
L 21 12.40625 
L 21 0 
L 10.6875 0 
z
" id="DejaVuSans-46"/>
     <path d="M 12.40625 8.296875 
L 28.515625 8.296875 
L 28.515625 63.921875 
L 10.984375 60.40625 
L 10.984375 69.390625 
L 28.421875 72.90625 
L 38.28125 72.90625 
L 38.28125 8.296875 
L 54.390625 8.296875 
L 54.390625 0 
L 12.40625 0 
z
" id="DejaVuSans-49"/>
    </defs>
    <g transform="translate(51.733125 35.472)scale(0.12 -0.12)">
     <use xlink:href="#DejaVuSans-40"/>
     <use x="39.013672" xlink:href="#DejaVuSans-52"/>
     <use x="102.636719" xlink:href="#DejaVuSans-51"/>
     <use x="166.259766" xlink:href="#DejaVuSans-41"/>
     <use x="205.273438" xlink:href="#DejaVuSans-32"/>
     <use x="237.060547" xlink:href="#DejaVuSans-83"/>
     <use x="300.537109" xlink:href="#DejaVuSans-117"/>
     <use x="363.916016" xlink:href="#DejaVuSans-98"/>
     <use x="427.392578" xlink:href="#DejaVuSans-106"/>
     <use x="455.175781" xlink:href="#DejaVuSans-101"/>
     <use x="516.699219" xlink:href="#DejaVuSans-99"/>
     <use x="571.679688" xlink:href="#DejaVuSans-116"/>
     <use x="610.888672" xlink:href="#DejaVuSans-58"/>
     <use x="644.580078" xlink:href="#DejaVuSans-32"/>
     <use x="676.367188" xlink:href="#DejaVuSans-115"/>
     <use x="728.466797" xlink:href="#DejaVuSans-50"/>
     <use x="792.089844" xlink:href="#DejaVuSans-51"/>
     <use x="855.712891" xlink:href="#DejaVuSans-44"/>
     <use x="887.5" xlink:href="#DejaVuSans-32"/>
     <use x="919.287109" xlink:href="#DejaVuSans-75"/>
     <use x="984.863281" xlink:href="#DejaVuSans-110"/>
     <use x="1048.242188" xlink:href="#DejaVuSans-111"/>
     <use x="1109.423828" xlink:href="#DejaVuSans-119"/>
     <use x="1191.210938" xlink:href="#DejaVuSans-110"/>
     <use x="1254.589844" xlink:href="#DejaVuSans-32"/>
     <use x="1286.376953" xlink:href="#DejaVuSans-61"/>
     <use x="1370.166016" xlink:href="#DejaVuSans-32"/>
     <use x="1401.953125" xlink:href="#DejaVuSans-84"/>
     <use x="1462.818359" xlink:href="#DejaVuSans-114"/>
     <use x="1503.931641" xlink:href="#DejaVuSans-117"/>
     <use x="1567.310547" xlink:href="#DejaVuSans-101"/>
     <use x="1628.833984" xlink:href="#DejaVuSans-44"/>
     <use x="1660.621094" xlink:href="#DejaVuSans-32"/>
     <use x="1692.408203" xlink:href="#DejaVuSans-68"/>
     <use x="1769.410156" xlink:href="#DejaVuSans-101"/>
     <use x="1830.933594" xlink:href="#DejaVuSans-103"/>
     <use x="1894.410156" xlink:href="#DejaVuSans-114"/>
     <use x="1935.492188" xlink:href="#DejaVuSans-101"/>
     <use x="1997.015625" xlink:href="#DejaVuSans-101"/>
     <use x="2058.539062" xlink:href="#DejaVuSans-32"/>
     <use x="2090.326172" xlink:href="#DejaVuSans-61"/>
     <use x="2174.115234" xlink:href="#DejaVuSans-32"/>
     <use x="2205.902344" xlink:href="#DejaVuSans-50"/>
     <use x="2269.525391" xlink:href="#DejaVuSans-44"/>
     <use x="2301.3125" xlink:href="#DejaVuSans-32"/>
     <use x="2333.099609" xlink:href="#DejaVuSans-68"/>
     <use x="2410.101562" xlink:href="#DejaVuSans-117"/>
     <use x="2473.480469" xlink:href="#DejaVuSans-114"/>
     <use x="2514.59375" xlink:href="#DejaVuSans-97"/>
     <use x="2575.873047" xlink:href="#DejaVuSans-116"/>
     <use x="2615.082031" xlink:href="#DejaVuSans-105"/>
     <use x="2642.865234" xlink:href="#DejaVuSans-111"/>
     <use x="2704.046875" xlink:href="#DejaVuSans-110"/>
     <use x="2767.425781" xlink:href="#DejaVuSans-32"/>
     <use x="2799.212891" xlink:href="#DejaVuSans-61"/>
     <use x="2883.001953" xlink:href="#DejaVuSans-32"/>
     <use x="2914.789062" xlink:href="#DejaVuSans-48"/>
     <use x="2978.412109" xlink:href="#DejaVuSans-46"/>
     <use x="3010.199219" xlink:href="#DejaVuSans-49"/>
    </g>
   </g>
  </g>
 </g>
 <defs>
  <clipPath id="p3634272043">
   <rect height="266.112" width="357.12" x="57.6" y="41.472"/>
  </clipPath>
 </defs>
</svg>
