<?xml version="1.0" encoding="utf-8" standalone="no"?>
<!DOCTYPE svg PUBLIC "-//W3C//DTD SVG 1.1//EN"
  "http://www.w3.org/Graphics/SVG/1.1/DTD/svg11.dtd">
<!-- Created with matplotlib (https://matplotlib.org/) -->
<svg height="345.6pt" version="1.1" viewBox="0 0 460.8 345.6" width="460.8pt" xmlns="http://www.w3.org/2000/svg" xmlns:xlink="http://www.w3.org/1999/xlink">
 <defs>
  <style type="text/css">
*{stroke-linecap:butt;stroke-linejoin:round;}
  </style>
 </defs>
 <g id="figure_1">
  <g id="patch_1">
   <path d="M 0 345.6 
L 460.8 345.6 
L 460.8 0 
L 0 0 
z
" style="fill:#ffffff;"/>
  </g>
  <g id="axes_1">
   <g id="patch_2">
    <path d="M 57.6 307.584 
L 414.72 307.584 
L 414.72 41.472 
L 57.6 41.472 
z
" style="fill:#ffffff;"/>
   </g>
   <g id="line2d_1">
    <path clip-path="url(#pfdc67339f3)" d="M 74.561388 286.74691 
L 74.197058 285.286004 
L 74.439945 286.74691 
L 74.318501 286.259942 
L 73.954171 285.772973 
L 74.197058 285.772973 
L 74.561388 284.799035 
L 74.561388 284.318154 
L 74.075614 286.74691 
L 73.954171 286.259942 
L 73.832727 285.286004 
L 73.954171 285.286004 
L 74.075614 285.772973 
L 74.075614 286.259942 
L 74.197058 286.259942 
L 74.318501 286.74691 
L 74.318501 287.227792 
L 74.197058 287.227792 
L 74.439945 285.772973 
L 74.682832 285.772973 
L 74.682832 286.74691 
L 74.925719 287.227792 
L 75.168606 287.227792 
L 75.290049 286.74691 
L 75.532936 287.714761 
L 75.532936 288.20173 
L 75.290049 288.688698 
L 74.925719 288.20173 
L 74.925719 286.74691 
L 75.047162 286.74691 
L 75.290049 287.227792 
L 75.411493 287.714761 
L 75.047162 289.175667 
L 74.925719 290.143518 
L 75.047162 289.656549 
L 75.290049 289.175667 
L 75.411493 289.656549 
L 75.168606 290.630486 
L 74.682832 289.656549 
L 74.439945 288.20173 
L 74.439945 288.20173 
L 74.561388 287.714761 
L 74.682832 287.714761 
L 74.682832 288.20173 
L 74.804275 289.175667 
L 75.047162 289.656549 
L 75.290049 289.175667 
L 75.411493 288.20173 
L 75.290049 289.175667 
L 75.411493 289.656549 
L 75.411493 290.143518 
L 75.65438 291.117455 
L 75.65438 291.604424 
L 75.893984 292.572274 
L 75.893984 293.546212 
L 75.532936 292.085306 
L 75.65438 292.085306 
L 75.65438 292.085306 
L 75.775823 292.572274 
L 75.893984 292.572274 
L 75.775823 292.085306 
L 74.804275 290.630486 
L 75.290049 290.630486 
L 75.532936 291.117455 
L 75.775823 292.085306 
L 75.893984 292.085306 
L 75.775823 291.117455 
L 75.532936 290.630486 
L 75.532936 291.604424 
L 75.65438 292.572274 
L 75.775823 291.604424 
L 75.65438 290.630486 
L 75.893984 292.085306 
L 75.775823 292.572274 
L 75.411493 292.085306 
L 75.290049 290.630486 
L 75.532936 289.656549 
L 75.893984 290.630486 
L 76.258315 293.059243 
L 76.258315 295.001031 
L 75.893984 295.001031 
L 75.893984 295.488 
L 75.775823 295.001031 
L 75.775823 293.546212 
L 75.893984 292.572274 
L 76.015428 292.572274 
L 75.893984 292.572274 
L 75.775823 293.059243 
L 75.893984 293.546212 
L 76.015428 293.059243 
L 76.136871 293.546212 
L 75.893984 294.514062 
L 75.775823 294.514062 
L 76.015428 293.059243 
L 76.136871 293.059243 
L 75.893984 294.033181 
L 76.015428 295.001031 
L 76.379758 294.033181 
L 76.258315 294.033181 
L 76.015428 294.514062 
L 75.893984 295.001031 
L 75.893984 292.572274 
L 76.015428 292.572274 
L 75.893984 292.085306 
L 75.775823 292.085306 
L 75.775823 291.604424 
L 75.893984 291.117455 
L 76.136871 291.604424 
L 76.379758 292.572274 
L 76.379758 292.572274 
L 76.015428 292.085306 
L 75.775823 292.085306 
L 75.775823 291.604424 
L 75.893984 291.604424 
L 75.893984 291.604424 
L 76.015428 292.572274 
L 75.893984 292.085306 
L 75.532936 291.604424 
L 75.411493 292.085306 
L 75.411493 292.572274 
L 75.65438 293.059243 
L 75.65438 293.059243 
L 76.501202 290.630486 
L 76.258315 291.117455 
L 76.015428 292.572274 
L 76.015428 295.001031 
L 75.893984 295.001031 
L 76.015428 294.514062 
L 76.136871 292.572274 
L 75.775823 292.085306 
L 75.893984 292.572274 
L 75.893984 294.033181 
L 76.015428 294.033181 
L 76.136871 293.546212 
L 75.775823 293.546212 
L 75.532936 293.059243 
L 75.532936 293.059243 
L 75.893984 293.059243 
L 76.136871 294.033181 
L 76.379758 294.514062 
L 76.379758 294.033181 
L 76.379758 294.033181 
L 75.893984 294.033181 
L 75.893984 291.604424 
L 75.65438 292.085306 
L 75.411493 293.546212 
L 75.65438 294.033181 
L 75.893984 295.488 
L 76.136871 295.488 
L 76.136871 294.033181 
L 75.893984 291.604424 
L 75.775823 292.085306 
L 75.65438 293.059243 
L 75.775823 293.546212 
L 76.015428 293.059243 
L 76.258315 291.117455 
L 76.501202 291.117455 
L 76.986976 290.630486 
L 78.444298 288.20173 
L 79.776894 286.74691 
L 81.719989 287.227792 
L 83.781246 288.20173 
L 86.449721 288.20173 
L 89.482526 286.74691 
L 92.636774 284.318154 
L 95.912466 280.915459 
L 99.795375 276.057946 
L 104.285502 270.226495 
L 109.136677 264.401131 
L 119.813857 251.28341 
L 125.758024 243.51017 
L 131.70219 236.2239 
L 137.042421 229.418512 
L 142.257927 223.593148 
L 147.837762 218.735634 
L 153.903372 213.878121 
L 159.729377 208.533638 
L 165.5521 204.163093 
L 171.25338 200.760399 
L 176.711772 197.844674 
L 187.146065 192.98716 
L 192.000522 191.532341 
L 196.365923 189.584466 
L 200.613163 186.674827 
L 204.496072 184.726952 
L 208.136095 183.272133 
L 211.290343 181.817314 
L 214.323148 180.843376 
L 217.23451 180.356408 
L 220.024428 180.356408 
L 222.692902 179.38247 
L 225.48282 177.927651 
L 227.908407 176.472832 
L 232.641421 175.498894 
L 234.824122 174.524956 
L 236.767217 174.044075 
L 238.221257 174.524956 
L 240.528683 176.472832 
L 241.375505 175.985863 
L 241.011175 176.472832 
L 240.768288 176.472832 
L 240.528683 175.498894 
L 240.042909 175.011925 
L 239.314248 174.044075 
L 238.464144 172.583168 
L 237.61404 171.615318 
L 235.674226 171.615318 
L 235.188452 171.128349 
L 234.581235 169.667443 
L 234.702678 169.667443 
L 235.067009 168.212624 
L 235.674226 166.757804 
L 236.16 166.757804 
L 236.16 166.270836 
L 236.038557 166.757804 
L 236.038557 167.238686 
L 236.038557 166.270836 
L 236.402887 166.757804 
L 236.645774 165.783867 
L 236.767217 164.809929 
L 236.52433 164.809929 
L 236.402887 166.270836 
L 236.767217 167.725655 
L 236.767217 167.238686 
L 236.038557 163.35511 
L 235.917113 164.329048 
L 235.917113 164.329048 
L 235.79567 162.868141 
L 235.431339 160.926353 
L 235.674226 161.894204 
L 235.79567 161.413322 
L 236.16 160.439385 
L 236.16 160.439385 
L 236.281443 160.926353 
L 236.52433 160.926353 
L 236.52433 161.413322 
L 236.16 159.952416 
L 236.16 158.984565 
L 236.038557 158.010628 
L 236.038557 157.03669 
L 235.917113 156.555809 
L 235.674226 156.06884 
L 235.552783 156.555809 
L 235.552783 157.03669 
L 235.674226 156.555809 
L 235.79567 155.581871 
L 235.674226 155.581871 
L 235.431339 157.523659 
L 236.16 156.555809 
L 236.16 156.555809 
L 235.431339 156.555809 
L 235.309896 157.03669 
L 235.431339 157.523659 
L 235.431339 157.03669 
L 235.552783 157.03669 
L 235.552783 157.03669 
L 235.431339 156.555809 
L 235.309896 154.607934 
L 235.309896 152.666146 
L 235.917113 152.666146 
L 235.917113 153.153114 
L 235.674226 153.153114 
L 235.674226 153.640083 
L 235.79567 153.640083 
L 235.674226 153.640083 
L 235.431339 152.666146 
L 235.309896 150.237389 
L 235.431339 149.75042 
L 235.79567 151.211326 
L 235.79567 150.724358 
L 235.674226 150.237389 
L 235.431339 150.237389 
L 235.067009 151.698295 
L 235.067009 152.179177 
L 235.188452 151.698295 
L 235.431339 151.698295 
L 235.552783 151.211326 
L 235.431339 150.724358 
L 235.067009 150.724358 
L 234.824122 151.211326 
L 234.945565 151.698295 
L 235.188452 151.698295 
L 235.067009 151.211326 
L 234.702678 150.237389 
L 234.824122 149.269538 
L 234.945565 149.269538 
L 234.824122 149.75042 
L 234.338348 149.75042 
L 234.216904 150.237389 
L 234.098743 150.237389 
L 234.216904 149.75042 
L 234.459791 149.75042 
L 234.459791 149.75042 
L 234.581235 149.269538 
L 234.702678 149.75042 
L 234.945565 149.75042 
L 234.945565 149.75042 
L 234.581235 151.211326 
L 234.459791 150.724358 
L 234.338348 149.75042 
L 234.338348 147.321663 
L 234.216904 147.808632 
L 233.977299 150.237389 
L 233.977299 151.211326 
L 234.338348 150.724358 
L 234.581235 149.75042 
L 234.459791 150.237389 
L 234.216904 150.237389 
L 234.216904 150.237389 
L 234.216904 150.724358 
L 234.216904 150.724358 
L 234.098743 150.237389 
L 234.098743 149.75042 
L 234.216904 149.75042 
L 234.098743 150.237389 
L 234.098743 150.237389 
L 234.216904 150.724358 
L 234.581235 150.724358 
L 234.459791 151.211326 
L 233.977299 149.269538 
L 233.734413 148.78257 
L 233.612969 149.75042 
L 233.734413 151.698295 
L 233.370082 151.698295 
L 233.370082 152.666146 
L 233.612969 153.640083 
L 233.977299 154.127052 
L 234.459791 153.640083 
L 235.188452 153.153114 
L 235.917113 152.179177 
L 237.010104 151.211326 
L 238.464144 150.724358 
L 240.528683 150.724358 
L 243.440045 149.75042 
L 246.958624 149.269538 
L 251.081138 150.237389 
L 255.692708 150.724358 
L 260.665326 150.724358 
L 265.884114 151.698295 
L 271.585393 153.153114 
L 277.772447 155.581871 
L 290.146553 158.497597 
L 302.277773 162.381173 
L 314.533718 167.238686 
L 320.477885 169.186561 
L 331.759 174.044075 
L 342.07185 180.843376 
L 347.169194 184.246071 
L 352.020369 188.616615 
L 356.631939 192.98716 
L 361.361671 196.389854 
L 366.094684 198.818611 
L 370.581529 200.760399 
L 374.707325 202.702187 
L 378.347347 205.130944 
L 381.744483 207.559701 
L 390.721454 214.365089 
L 394.968694 216.793846 
L 396.058403 217.274728 
L 396.908507 218.248665 
L 397.880055 219.703484 
L 398.487273 221.164391 
L 398.365829 221.65136 
L 398.122942 222.132241 
L 397.151394 221.164391 
L 396.30129 220.677422 
L 393.997146 222.61921 
L 393.025598 222.61921 
L 392.178776 221.65136 
L 391.571558 221.65136 
L 390.842898 224.080116 
L 390.721454 223.106179 
L 390.478567 222.132241 
L 390.357124 222.132241 
L 390.600011 223.106179 
L 390.842898 223.593148 
L 390.842898 223.593148 
L 391.207228 226.021904 
L 391.450115 226.508873 
L 391.814445 226.021904 
L 391.814445 226.508873 
L 391.693002 226.989755 
L 391.693002 227.476724 
L 391.571558 228.93763 
L 391.693002 229.418512 
L 391.935889 228.93763 
L 392.057332 229.418512 
L 392.057332 229.90548 
L 391.814445 229.90548 
L 391.814445 229.418512 
L 390.964341 230.392449 
L 390.842898 229.90548 
L 390.721454 229.90548 
L 390.721454 230.392449 
L 390.721454 230.392449 
L 390.600011 230.392449 
L 390.478567 230.879418 
L 390.721454 233.795143 
L 390.478567 233.795143 
L 390.114237 232.821206 
L 390.23568 231.853355 
L 390.842898 231.853355 
L 390.721454 232.334237 
L 390.721454 232.821206 
L 391.085785 232.821206 
L 391.328672 232.334237 
L 391.207228 231.853355 
L 390.964341 231.853355 
L 390.964341 231.853355 
L 391.085785 232.334237 
L 390.964341 232.821206 
L 390.357124 232.821206 
L 390.23568 233.308175 
L 390.114237 232.821206 
L 390.23568 232.334237 
L 390.357124 232.334237 
L 390.478567 233.308175 
L 390.357124 234.762994 
L 390.357124 236.2239 
L 390.478567 236.2239 
L 390.478567 234.282112 
L 390.357124 233.795143 
L 390.114237 234.282112 
L 389.749906 235.736931 
L 389.749906 237.191751 
L 389.628463 237.678719 
L 389.749906 237.191751 
L 390.600011 237.191751 
L 389.628463 237.191751 
L 390.114237 237.191751 
L 389.992793 237.678719 
L 389.992793 238.652657 
L 389.87135 238.165688 
L 389.87135 236.2239 
L 389.87135 236.2239 
L 390.114237 238.165688 
L 390.114237 240.107476 
L 389.992793 240.594445 
L 389.992793 241.081414 
L 389.87135 241.081414 
L 389.749906 241.568382 
L 389.507019 241.081414 
L 389.749906 239.139626 
L 389.992793 239.139626 
L 390.478567 239.620507 
L 390.357124 240.107476 
L 389.992793 240.594445 
L 389.749906 240.594445 
L 389.385576 241.081414 
L 389.385576 240.594445 
L 389.507019 238.652657 
L 389.507019 239.620507 
L 389.507019 240.594445 
L 389.267414 242.049264 
L 389.507019 242.536233 
L 389.628463 242.049264 
L 389.267414 240.594445 
L 389.145971 240.594445 
L 389.024528 241.081414 
L 388.903084 242.536233 
L 389.024528 243.51017 
L 389.145971 243.023202 
L 389.145971 242.049264 
L 389.024528 241.568382 
L 389.145971 242.049264 
L 389.145971 243.997139 
L 389.024528 243.997139 
L 389.145971 243.51017 
L 389.145971 243.023202 
L 389.024528 242.049264 
L 388.781641 242.049264 
L 388.295867 243.023202 
L 388.41731 243.023202 
L 388.660197 243.997139 
L 388.538754 244.478021 
L 388.41731 243.997139 
L 388.41731 243.023202 
L 388.41731 243.023202 
L 388.174423 243.023202 
L 388.174423 243.51017 
L 388.41731 244.478021 
L 388.538754 243.997139 
L 388.660197 243.997139 
L 388.781641 244.478021 
L 388.660197 244.478021 
L 388.295867 243.997139 
L 388.660197 244.478021 
L 388.660197 244.96499 
L 388.781641 245.451958 
L 388.781641 244.96499 
L 388.903084 243.997139 
L 388.781641 243.997139 
L 388.05298 245.451958 
L 388.295867 244.478021 
L 388.660197 243.51017 
L 388.781641 243.997139 
L 388.781641 244.478021 
L 388.660197 244.478021 
L 388.660197 244.96499 
L 388.538754 244.96499 
L 388.295867 244.478021 
L 387.931536 244.96499 
L 388.174423 246.425896 
L 388.295867 246.912865 
L 388.41731 246.425896 
L 388.781641 245.938927 
L 388.781641 246.912865 
L 388.660197 246.912865 
L 388.538754 246.425896 
L 388.41731 244.96499 
L 388.41731 244.96499 
L 388.41731 248.854653 
L 388.538754 248.367684 
L 388.538754 247.393746 
L 388.174423 245.938927 
L 388.174423 245.938927 
L 388.174423 244.96499 
L 388.174423 247.393746 
L 388.295867 246.912865 
L 388.41731 245.451958 
L 388.538754 245.451958 
L 388.781641 245.938927 
L 388.781641 246.425896 
L 388.781641 245.938927 
L 388.538754 245.938927 
L 388.538754 247.393746 
L 388.295867 247.393746 
L 388.174423 246.425896 
L 388.295867 247.393746 
L 388.174423 247.393746 
L 388.295867 246.912865 
L 388.538754 246.425896 
L 388.781641 246.425896 
L 388.903084 246.912865 
L 389.024528 247.880715 
L 388.903084 247.393746 
L 388.781641 248.367684 
L 388.660197 247.880715 
L 388.41731 247.393746 
L 388.41731 246.912865 
L 388.41731 246.912865 
L 388.174423 246.425896 
L 387.688649 246.425896 
L 387.081432 245.938927 
L 386.109884 244.96499 
L 385.020175 243.51017 
L 383.441409 242.049264 
L 381.258709 241.081414 
L 378.468791 240.107476 
L 375.435986 238.652657 
L 372.038851 236.710869 
L 367.913054 233.308175 
L 359.057527 224.560998 
L 343.043398 211.449364 
L 331.273226 199.786462 
L 325.69339 193.961098 
L 319.870667 188.616615 
L 313.683614 182.298196 
L 307.253674 175.011925 
L 300.945177 168.212624 
L 294.879567 162.868141 
L 288.813957 158.010628 
L 283.109396 152.179177 
L 272.556941 140.035393 
L 267.21671 134.690911 
L 257.389634 125.462852 
L 253.26712 121.579276 
L 249.262768 118.176582 
L 245.744189 115.747825 
L 242.711384 114.293006 
L 240.042909 111.858162 
L 237.61404 108.948524 
L 235.552783 107.000649 
L 233.855856 106.519767 
L 232.762865 106.032798 
L 232.034204 104.571892 
L 231.669873 102.143135 
L 231.669873 99.714378 
L 231.791317 98.746528 
L 232.884308 97.77259 
L 234.702678 97.77259 
L 235.552783 96.798653 
L 236.16 96.317771 
L 237.131548 99.233497 
L 237.61404 100.201347 
L 237.492596 100.201347 
L 237.131548 100.688316 
L 236.888661 102.630104 
L 236.52433 104.09101 
L 235.674226 106.519767 
L 235.067009 107.487618 
L 234.459791 108.461555 
L 234.098743 108.461555 
L 233.734413 108.948524 
L 233.491526 108.948524 
L 233.612969 108.948524 
L 233.734413 109.429406 
L 233.855856 109.429406 
L 233.855856 108.948524 
L 233.977299 108.461555 
L 233.855856 108.461555 
L 233.734413 108.948524 
L 233.612969 108.948524 
L 233.734413 107.487618 
L 233.977299 106.519767 
L 234.338348 106.519767 
L 234.702678 107.000649 
L 234.702678 107.487618 
L 234.702678 107.487618 
L 234.459791 108.461555 
L 234.459791 109.916374 
L 234.702678 109.916374 
L 234.702678 110.403343 
L 234.459791 110.890312 
L 234.216904 110.403343 
L 234.216904 109.429406 
L 234.338348 108.948524 
L 234.338348 108.461555 
L 234.338348 108.948524 
L 234.581235 108.948524 
L 234.216904 109.429406 
L 234.098743 110.403343 
L 234.216904 111.377281 
L 234.459791 111.858162 
L 234.702678 111.858162 
L 234.824122 110.403343 
L 234.702678 110.403343 
L 234.702678 110.403343 
L 234.459791 109.916374 
L 234.216904 110.403343 
L 233.977299 112.345131 
L 234.098743 112.345131 
L 234.338348 109.916374 
L 234.824122 111.858162 
L 234.702678 112.345131 
L 234.702678 113.319069 
L 234.702678 113.319069 
L 234.581235 112.345131 
L 234.338348 111.858162 
L 234.338348 112.345131 
L 234.702678 112.8321 
L 234.581235 112.345131 
L 234.338348 112.8321 
L 234.338348 113.806037 
L 234.581235 113.806037 
L 234.581235 113.319069 
L 234.338348 112.345131 
L 234.098743 111.858162 
L 233.977299 112.345131 
L 234.098743 112.8321 
L 234.098743 112.8321 
L 234.098743 112.345131 
L 234.216904 112.8321 
L 234.338348 112.8321 
L 234.459791 113.319069 
L 234.338348 113.319069 
L 234.098743 112.345131 
L 234.459791 113.806037 
L 234.459791 113.319069 
L 234.216904 113.319069 
L 233.855856 114.293006 
L 233.855856 113.806037 
L 233.734413 113.319069 
L 233.612969 113.319069 
L 233.612969 114.293006 
L 233.370082 114.293006 
L 233.491526 113.806037 
L 233.855856 113.806037 
L 233.977299 114.293006 
L 233.855856 114.293006 
L 233.491526 112.8321 
L 233.612969 112.8321 
L 233.977299 114.293006 
L 234.098743 113.806037 
L 234.216904 113.806037 
L 234.216904 113.319069 
L 234.098743 113.319069 
L 234.098743 112.8321 
L 234.098743 112.8321 
L 233.977299 113.319069 
L 233.734413 113.806037 
L 233.855856 114.293006 
L 234.098743 114.293006 
L 233.977299 112.8321 
L 234.459791 112.8321 
L 234.459791 112.8321 
L 234.459791 113.319069 
L 234.216904 114.773888 
L 233.734413 113.806037 
L 233.855856 113.319069 
L 233.734413 113.806037 
L 233.370082 113.806037 
L 233.734413 115.260857 
L 233.491526 114.293006 
L 233.370082 115.260857 
L 233.612969 113.806037 
L 233.855856 113.319069 
L 233.855856 113.319069 
L 233.855856 116.721763 
L 233.491526 115.260857 
L 233.370082 113.806037 
L 233.612969 112.8321 
L 233.855856 112.8321 
L 233.977299 113.806037 
L 233.977299 114.773888 
L 234.216904 115.260857 
L 234.216904 114.293006 
L 234.098743 113.806037 
L 233.977299 112.345131 
L 233.977299 110.890312 
L 234.098743 110.403343 
L 234.459791 110.890312 
L 234.581235 113.319069 
L 234.459791 113.806037 
L 234.216904 112.345131 
L 233.977299 113.319069 
L 233.734413 116.234794 
L 233.734413 115.260857 
L 233.977299 114.773888 
L 234.216904 113.806037 
L 234.098743 113.319069 
L 233.977299 113.319069 
L 233.977299 114.293006 
L 233.734413 114.773888 
L 233.491526 114.773888 
L 233.491526 114.293006 
L 233.734413 112.345131 
L 233.734413 113.319069 
L 233.855856 115.260857 
L 233.734413 114.773888 
L 233.734413 113.806037 
L 233.855856 112.8321 
L 234.098743 112.8321 
L 234.098743 112.345131 
L 233.977299 111.858162 
L 233.977299 112.345131 
L 234.098743 113.319069 
L 234.216904 112.8321 
L 234.216904 112.345131 
L 234.098743 112.345131 
L 234.216904 112.8321 
L 234.581235 113.319069 
L 234.581235 113.319069 
L 234.338348 113.806037 
L 234.098743 113.319069 
L 234.098743 111.377281 
L 233.977299 110.890312 
L 233.855856 110.890312 
L 233.855856 112.8321 
L 233.855856 112.345131 
L 233.612969 108.948524 
L 233.734413 108.461555 
L 233.734413 108.948524 
L 233.370082 109.916374 
L 233.248639 109.916374 
L 233.491526 108.948524 
L 233.491526 107.974586 
L 233.491526 110.890312 
L 233.612969 111.377281 
L 233.734413 109.916374 
L 233.491526 107.000649 
L 233.491526 107.487618 
L 233.491526 107.974586 
L 233.127195 107.000649 
L 233.248639 106.519767 
L 233.248639 106.519767 
L 233.248639 106.032798 
L 233.370082 105.54583 
L 233.491526 104.571892 
L 233.370082 104.09101 
L 233.248639 104.571892 
L 233.855856 104.571892 
L 233.855856 105.058861 
L 233.612969 106.519767 
L 233.248639 104.09101 
L 233.127195 104.09101 
L 233.127195 104.571892 
L 233.248639 104.571892 
L 232.884308 102.143135 
L 232.884308 102.630104 
L 233.127195 103.604042 
L 233.370082 105.058861 
L 233.370082 106.032798 
L 233.248639 105.54583 
L 233.370082 105.058861 
L 233.491526 104.09101 
L 233.005752 100.688316 
L 233.127195 100.688316 
L 233.370082 101.662254 
L 233.370082 102.143135 
L 233.248639 101.662254 
L 233.005752 101.662254 
L 233.005752 101.175285 
L 233.127195 101.662254 
L 233.370082 104.09101 
L 233.491526 103.117073 
L 233.370082 101.662254 
L 233.370082 102.143135 
L 233.248639 102.143135 
L 233.248639 102.143135 
L 233.127195 101.175285 
L 233.127195 100.201347 
L 233.005752 100.201347 
L 232.641421 100.688316 
L 232.641421 100.201347 
L 232.519978 100.201347 
L 232.519978 100.201347 
L 232.519978 101.175285 
L 232.641421 101.662254 
L 232.641421 101.662254 
L 233.127195 102.630104 
L 233.248639 102.143135 
L 232.884308 102.143135 
L 232.519978 101.662254 
L 232.519978 101.662254 
L 232.398534 102.630104 
L 231.91276 101.662254 
L 232.034204 102.143135 
L 232.155647 102.630104 
L 232.155647 102.143135 
L 232.034204 101.662254 
L 231.91276 102.630104 
L 232.034204 103.604042 
L 232.155647 103.117073 
L 232.155647 102.630104 
L 232.034204 102.630104 
L 232.277091 102.630104 
L 232.398534 102.143135 
L 232.398534 101.175285 
L 232.519978 100.688316 
L 232.519978 101.175285 
L 232.398534 102.143135 
L 232.277091 102.143135 
L 232.155647 102.630104 
L 232.034204 103.604042 
L 231.791317 104.09101 
L 231.669873 103.604042 
L 231.791317 103.117073 
L 232.034204 103.604042 
L 231.91276 103.117073 
L 232.034204 101.662254 
L 231.669873 105.54583 
L 231.791317 104.09101 
L 232.155647 102.143135 
L 232.277091 102.143135 
L 232.034204 103.604042 
L 231.91276 105.058861 
L 232.034204 105.058861 
L 232.398534 104.09101 
L 232.519978 103.117073 
L 232.034204 102.143135 
L 232.155647 102.630104 
L 232.277091 103.117073 
L 232.155647 103.604042 
L 232.034204 103.604042 
L 232.034204 104.571892 
L 232.155647 105.54583 
L 232.034204 106.519767 
L 231.91276 106.519767 
L 231.791317 106.032798 
L 231.791317 105.54583 
L 232.641421 105.54583 
L 232.884308 105.058861 
L 232.641421 104.571892 
L 232.277091 104.09101 
L 232.155647 103.604042 
L 232.277091 104.09101 
L 232.155647 104.09101 
L 231.669873 103.604042 
L 231.54843 104.571892 
L 231.791317 105.058861 
L 232.155647 105.058861 
L 232.155647 104.09101 
L 231.791317 103.117073 
L 231.54843 103.604042 
L 231.426986 105.058861 
L 231.54843 105.54583 
L 231.91276 105.54583 
L 232.277091 105.058861 
L 232.398534 104.09101 
L 232.277091 104.571892 
L 232.155647 104.571892 
L 232.155647 104.09101 
L 232.277091 104.09101 
L 232.034204 105.058861 
L 232.034204 104.571892 
L 232.155647 104.09101 
L 232.155647 105.058861 
L 232.034204 105.54583 
L 231.791317 105.058861 
L 231.54843 105.058861 
L 231.54843 104.571892 
L 231.91276 104.09101 
L 231.91276 103.604042 
L 231.91276 104.09101 
L 231.669873 105.54583 
L 231.791317 105.54583 
L 232.034204 105.54583 
L 232.034204 106.032798 
L 232.034204 106.032798 
L 231.91276 106.519767 
L 232.034204 106.032798 
L 232.034204 106.519767 
L 232.155647 107.000649 
L 232.398534 106.519767 
L 232.398534 106.032798 
L 232.155647 104.571892 
L 232.155647 103.604042 
L 232.398534 103.117073 
L 232.641421 103.117073 
L 232.519978 102.630104 
L 232.398534 102.630104 
L 232.762865 105.058861 
L 233.005752 104.571892 
L 233.248639 103.117073 
L 233.127195 102.630104 
L 232.277091 105.058861 
L 232.277091 106.032798 
L 232.519978 107.000649 
L 232.641421 107.000649 
L 232.762865 107.487618 
L 232.762865 105.54583 
L 232.277091 105.058861 
L 232.034204 104.571892 
L 232.034204 105.058861 
L 232.277091 105.058861 
L 232.641421 106.032798 
L 232.641421 105.54583 
L 232.519978 104.09101 
L 232.519978 104.571892 
L 232.398534 105.058861 
L 232.034204 105.058861 
L 231.91276 105.54583 
L 232.034204 106.032798 
L 231.791317 105.058861 
L 231.791317 105.058861 
L 231.669873 105.058861 
L 231.54843 106.032798 
L 231.669873 107.487618 
L 231.91276 107.974586 
L 232.155647 107.974586 
L 232.277091 107.487618 
L 232.519978 107.487618 
L 232.398534 107.487618 
L 232.155647 107.000649 
L 232.277091 107.487618 
L 232.155647 108.461555 
L 232.155647 107.974586 
L 232.155647 107.000649 
L 232.034204 105.54583 
L 232.155647 106.032798 
L 231.791317 105.54583 
L 231.791317 104.571892 
L 232.155647 102.630104 
L 232.277091 103.117073 
L 232.155647 104.571892 
L 232.155647 107.000649 
L 232.155647 104.571892 
L 232.277091 104.09101 
L 232.398534 104.09101 
L 232.277091 104.09101 
L 232.277091 103.604042 
L 232.398534 104.09101 
L 232.641421 106.032798 
L 232.641421 107.000649 
L 232.398534 107.000649 
L 232.034204 105.54583 
L 231.91276 106.519767 
L 231.91276 107.487618 
L 232.034204 107.487618 
L 232.034204 107.000649 
L 231.91276 106.032798 
L 231.91276 106.032798 
L 231.791317 106.032798 
L 231.91276 107.000649 
L 232.155647 106.519767 
L 232.155647 105.54583 
L 232.034204 105.058861 
L 232.034204 106.032798 
L 232.155647 106.032798 
L 232.155647 105.058861 
L 232.034204 104.571892 
L 231.791317 104.571892 
L 231.669873 104.09101 
L 231.54843 103.117073 
L 231.426986 103.604042 
L 231.426986 105.54583 
L 231.305543 107.000649 
L 231.426986 107.000649 
L 231.669873 106.519767 
L 231.791317 107.000649 
L 231.791317 106.519767 
L 232.034204 104.571892 
L 232.277091 104.571892 
L 232.884308 103.604042 
L 233.855856 102.630104 
L 235.067009 101.662254 
L 236.767217 101.175285 
L 238.949918 100.201347 
L 241.618392 99.233497 
L 244.651197 97.285622 
L 248.169776 94.856865 
L 256.421369 88.544532 
L 261.515431 85.628807 
L 266.85238 82.713081 
L 277.408116 75.91378 
L 282.745065 73.485023 
L 288.20674 71.543235 
L 294.029463 69.59536 
L 299.973629 67.166603 
L 306.160682 65.711784 
L 311.983405 65.224815 
L 317.323636 64.250877 
L 332.730548 59.880333 
L 337.220675 58.425514 
L 341.221745 55.996757 
L 351.656038 54.53585 
L 355.053174 54.53585 
L 358.085979 55.509788 
L 363.304766 54.53585 
L 367.548724 54.53585 
L 370.824416 53.568 
L 371.917407 54.53585 
L 372.281738 55.022819 
L 372.281738 55.509788 
L 372.038851 55.022819 
L 370.702972 55.022819 
L 368.884602 55.996757 
L 366.941506 57.938545 
L 366.094684 58.425514 
L 365.24458 58.425514 
L 364.758806 57.938545 
L 364.273032 55.996757 
L 364.394475 55.022819 
L 364.758806 54.53585 
L 365.123136 54.53585 
L 365.730354 55.509788 
L 366.094684 56.483726 
L 366.337571 57.451576 
L 366.580458 57.938545 
L 366.580458 57.451576 
L 366.580458 57.451576 
L 366.941506 55.996757 
L 366.820063 55.509788 
L 366.580458 55.996757 
L 366.820063 58.912482 
L 366.580458 58.912482 
L 366.094684 58.425514 
L 365.851797 57.938545 
L 365.851797 57.938545 
L 365.851797 58.425514 
L 365.730354 57.938545 
L 365.730354 56.964607 
L 365.730354 56.964607 
L 365.851797 56.964607 
L 365.851797 56.964607 
L 365.730354 57.451576 
L 365.487467 59.393364 
L 365.60891 59.393364 
L 365.60891 57.938545 
L 365.366023 57.451576 
L 365.123136 57.938545 
L 365.123136 58.425514 
L 365.123136 58.425514 
L 365.001693 57.938545 
L 365.001693 58.912482 
L 364.880249 59.880333 
L 364.637362 59.880333 
L 364.637362 59.393364 
L 364.880249 58.912482 
L 365.487467 58.425514 
L 365.123136 58.912482 
L 364.637362 60.367302 
L 365.123136 60.367302 
L 365.001693 60.367302 
L 365.001693 59.880333 
L 364.880249 59.880333 
L 364.758806 60.85427 
L 364.880249 61.341239 
L 364.880249 61.341239 
L 364.880249 60.85427 
L 365.001693 61.341239 
L 364.880249 61.341239 
L 364.637362 60.85427 
L 364.394475 59.393364 
L 364.394475 58.425514 
L 364.273032 58.425514 
L 364.273032 58.425514 
L 364.394475 57.938545 
L 364.758806 58.425514 
L 364.880249 60.367302 
L 364.758806 62.30909 
L 364.515919 62.796058 
L 364.515919 60.367302 
L 364.515919 60.85427 
L 364.637362 62.30909 
L 364.515919 62.796058 
L 364.515919 62.30909 
L 364.394475 61.822121 
L 364.394475 60.85427 
L 364.515919 59.880333 
L 364.880249 59.880333 
L 364.758806 59.393364 
L 364.637362 59.393364 
L 364.758806 60.367302 
L 364.758806 61.341239 
L 364.637362 62.30909 
L 363.787258 62.30909 
L 363.665815 61.822121 
L 363.787258 61.822121 
L 364.030145 60.85427 
L 364.151588 59.880333 
L 364.394475 59.880333 
L 364.394475 61.822121 
L 364.273032 63.283027 
L 363.908702 63.283027 
L 363.908702 61.341239 
L 363.787258 61.822121 
L 363.544371 62.30909 
L 363.544371 62.796058 
L 364.515919 62.796058 
L 364.394475 61.822121 
L 364.030145 61.341239 
L 363.787258 61.341239 
L 363.665815 61.822121 
L 363.787258 61.341239 
L 363.908702 61.822121 
L 364.030145 62.796058 
L 364.030145 62.796058 
L 363.665815 61.822121 
L 363.544371 62.30909 
L 363.544371 62.796058 
L 363.544371 62.796058 
" style="fill:none;stroke:#1f77b4;stroke-linecap:square;stroke-width:1.5;"/>
   </g>
   <g id="matplotlib.axis_1">
    <g id="xtick_1">
     <g id="line2d_2">
      <defs>
       <path d="M 0 0 
L 0 3.5 
" id="m9c5eb05095" style="stroke:#000000;stroke-width:0.8;"/>
      </defs>
      <g>
       <use style="stroke:#000000;stroke-width:0.8;" x="114.158529" xlink:href="#m9c5eb05095" y="307.584"/>
      </g>
     </g>
     <g id="text_1">
      <!-- −600 -->
      <defs>
       <path d="M 10.59375 35.5 
L 73.1875 35.5 
L 73.1875 27.203125 
L 10.59375 27.203125 
z
" id="DejaVuSans-8722"/>
       <path d="M 33.015625 40.375 
Q 26.375 40.375 22.484375 35.828125 
Q 18.609375 31.296875 18.609375 23.390625 
Q 18.609375 15.53125 22.484375 10.953125 
Q 26.375 6.390625 33.015625 6.390625 
Q 39.65625 6.390625 43.53125 10.953125 
Q 47.40625 15.53125 47.40625 23.390625 
Q 47.40625 31.296875 43.53125 35.828125 
Q 39.65625 40.375 33.015625 40.375 
z
M 52.59375 71.296875 
L 52.59375 62.3125 
Q 48.875 64.0625 45.09375 64.984375 
Q 41.3125 65.921875 37.59375 65.921875 
Q 27.828125 65.921875 22.671875 59.328125 
Q 17.53125 52.734375 16.796875 39.40625 
Q 19.671875 43.65625 24.015625 45.921875 
Q 28.375 48.1875 33.59375 48.1875 
Q 44.578125 48.1875 50.953125 41.515625 
Q 57.328125 34.859375 57.328125 23.390625 
Q 57.328125 12.15625 50.6875 5.359375 
Q 44.046875 -1.421875 33.015625 -1.421875 
Q 20.359375 -1.421875 13.671875 8.265625 
Q 6.984375 17.96875 6.984375 36.375 
Q 6.984375 53.65625 15.1875 63.9375 
Q 23.390625 74.21875 37.203125 74.21875 
Q 40.921875 74.21875 44.703125 73.484375 
Q 48.484375 72.75 52.59375 71.296875 
z
" id="DejaVuSans-54"/>
       <path d="M 31.78125 66.40625 
Q 24.171875 66.40625 20.328125 58.90625 
Q 16.5 51.421875 16.5 36.375 
Q 16.5 21.390625 20.328125 13.890625 
Q 24.171875 6.390625 31.78125 6.390625 
Q 39.453125 6.390625 43.28125 13.890625 
Q 47.125 21.390625 47.125 36.375 
Q 47.125 51.421875 43.28125 58.90625 
Q 39.453125 66.40625 31.78125 66.40625 
z
M 31.78125 74.21875 
Q 44.046875 74.21875 50.515625 64.515625 
Q 56.984375 54.828125 56.984375 36.375 
Q 56.984375 17.96875 50.515625 8.265625 
Q 44.046875 -1.421875 31.78125 -1.421875 
Q 19.53125 -1.421875 13.0625 8.265625 
Q 6.59375 17.96875 6.59375 36.375 
Q 6.59375 54.828125 13.0625 64.515625 
Q 19.53125 74.21875 31.78125 74.21875 
z
" id="DejaVuSans-48"/>
      </defs>
      <g transform="translate(100.424936 322.182437)scale(0.1 -0.1)">
       <use xlink:href="#DejaVuSans-8722"/>
       <use x="83.789062" xlink:href="#DejaVuSans-54"/>
       <use x="147.412109" xlink:href="#DejaVuSans-48"/>
       <use x="211.035156" xlink:href="#DejaVuSans-48"/>
      </g>
     </g>
    </g>
    <g id="xtick_2">
     <g id="line2d_3">
      <g>
       <use style="stroke:#000000;stroke-width:0.8;" x="179.803658" xlink:href="#m9c5eb05095" y="307.584"/>
      </g>
     </g>
     <g id="text_2">
      <!-- −400 -->
      <defs>
       <path d="M 37.796875 64.3125 
L 12.890625 25.390625 
L 37.796875 25.390625 
z
M 35.203125 72.90625 
L 47.609375 72.90625 
L 47.609375 25.390625 
L 58.015625 25.390625 
L 58.015625 17.1875 
L 47.609375 17.1875 
L 47.609375 0 
L 37.796875 0 
L 37.796875 17.1875 
L 4.890625 17.1875 
L 4.890625 26.703125 
z
" id="DejaVuSans-52"/>
      </defs>
      <g transform="translate(166.070064 322.182437)scale(0.1 -0.1)">
       <use xlink:href="#DejaVuSans-8722"/>
       <use x="83.789062" xlink:href="#DejaVuSans-52"/>
       <use x="147.412109" xlink:href="#DejaVuSans-48"/>
       <use x="211.035156" xlink:href="#DejaVuSans-48"/>
      </g>
     </g>
    </g>
    <g id="xtick_3">
     <g id="line2d_4">
      <g>
       <use style="stroke:#000000;stroke-width:0.8;" x="245.448786" xlink:href="#m9c5eb05095" y="307.584"/>
      </g>
     </g>
     <g id="text_3">
      <!-- −200 -->
      <defs>
       <path d="M 19.1875 8.296875 
L 53.609375 8.296875 
L 53.609375 0 
L 7.328125 0 
L 7.328125 8.296875 
Q 12.9375 14.109375 22.625 23.890625 
Q 32.328125 33.6875 34.8125 36.53125 
Q 39.546875 41.84375 41.421875 45.53125 
Q 43.3125 49.21875 43.3125 52.78125 
Q 43.3125 58.59375 39.234375 62.25 
Q 35.15625 65.921875 28.609375 65.921875 
Q 23.96875 65.921875 18.8125 64.3125 
Q 13.671875 62.703125 7.8125 59.421875 
L 7.8125 69.390625 
Q 13.765625 71.78125 18.9375 73 
Q 24.125 74.21875 28.421875 74.21875 
Q 39.75 74.21875 46.484375 68.546875 
Q 53.21875 62.890625 53.21875 53.421875 
Q 53.21875 48.921875 51.53125 44.890625 
Q 49.859375 40.875 45.40625 35.40625 
Q 44.1875 33.984375 37.640625 27.21875 
Q 31.109375 20.453125 19.1875 8.296875 
z
" id="DejaVuSans-50"/>
      </defs>
      <g transform="translate(231.715192 322.182437)scale(0.1 -0.1)">
       <use xlink:href="#DejaVuSans-8722"/>
       <use x="83.789062" xlink:href="#DejaVuSans-50"/>
       <use x="147.412109" xlink:href="#DejaVuSans-48"/>
       <use x="211.035156" xlink:href="#DejaVuSans-48"/>
      </g>
     </g>
    </g>
    <g id="xtick_4">
     <g id="line2d_5">
      <g>
       <use style="stroke:#000000;stroke-width:0.8;" x="311.093914" xlink:href="#m9c5eb05095" y="307.584"/>
      </g>
     </g>
     <g id="text_4">
      <!-- 0 -->
      <g transform="translate(307.912664 322.182437)scale(0.1 -0.1)">
       <use xlink:href="#DejaVuSans-48"/>
      </g>
     </g>
    </g>
    <g id="xtick_5">
     <g id="line2d_6">
      <g>
       <use style="stroke:#000000;stroke-width:0.8;" x="376.739042" xlink:href="#m9c5eb05095" y="307.584"/>
      </g>
     </g>
     <g id="text_5">
      <!-- 200 -->
      <g transform="translate(367.195292 322.182437)scale(0.1 -0.1)">
       <use xlink:href="#DejaVuSans-50"/>
       <use x="63.623047" xlink:href="#DejaVuSans-48"/>
       <use x="127.246094" xlink:href="#DejaVuSans-48"/>
      </g>
     </g>
    </g>
   </g>
   <g id="matplotlib.axis_2">
    <g id="ytick_1">
     <g id="line2d_7">
      <defs>
       <path d="M 0 0 
L -3.5 0 
" id="m210f70d098" style="stroke:#000000;stroke-width:0.8;"/>
      </defs>
      <g>
       <use style="stroke:#000000;stroke-width:0.8;" x="57.6" xlink:href="#m210f70d098" y="278.474528"/>
      </g>
     </g>
     <g id="text_6">
      <!-- −650 -->
      <defs>
       <path d="M 10.796875 72.90625 
L 49.515625 72.90625 
L 49.515625 64.59375 
L 19.828125 64.59375 
L 19.828125 46.734375 
Q 21.96875 47.46875 24.109375 47.828125 
Q 26.265625 48.1875 28.421875 48.1875 
Q 40.625 48.1875 47.75 41.5 
Q 54.890625 34.8125 54.890625 23.390625 
Q 54.890625 11.625 47.5625 5.09375 
Q 40.234375 -1.421875 26.90625 -1.421875 
Q 22.3125 -1.421875 17.546875 -0.640625 
Q 12.796875 0.140625 7.71875 1.703125 
L 7.71875 11.625 
Q 12.109375 9.234375 16.796875 8.0625 
Q 21.484375 6.890625 26.703125 6.890625 
Q 35.15625 6.890625 40.078125 11.328125 
Q 45.015625 15.765625 45.015625 23.390625 
Q 45.015625 31 40.078125 35.4375 
Q 35.15625 39.890625 26.703125 39.890625 
Q 22.75 39.890625 18.8125 39.015625 
Q 14.890625 38.140625 10.796875 36.28125 
z
" id="DejaVuSans-53"/>
      </defs>
      <g transform="translate(23.132812 282.273747)scale(0.1 -0.1)">
       <use xlink:href="#DejaVuSans-8722"/>
       <use x="83.789062" xlink:href="#DejaVuSans-54"/>
       <use x="147.412109" xlink:href="#DejaVuSans-53"/>
       <use x="211.035156" xlink:href="#DejaVuSans-48"/>
      </g>
     </g>
    </g>
    <g id="ytick_2">
     <g id="line2d_8">
      <g>
       <use style="stroke:#000000;stroke-width:0.8;" x="57.6" xlink:href="#m210f70d098" y="248.03898"/>
      </g>
     </g>
     <g id="text_7">
      <!-- −600 -->
      <g transform="translate(23.132812 251.838199)scale(0.1 -0.1)">
       <use xlink:href="#DejaVuSans-8722"/>
       <use x="83.789062" xlink:href="#DejaVuSans-54"/>
       <use x="147.412109" xlink:href="#DejaVuSans-48"/>
       <use x="211.035156" xlink:href="#DejaVuSans-48"/>
      </g>
     </g>
    </g>
    <g id="ytick_3">
     <g id="line2d_9">
      <g>
       <use style="stroke:#000000;stroke-width:0.8;" x="57.6" xlink:href="#m210f70d098" y="217.603432"/>
      </g>
     </g>
     <g id="text_8">
      <!-- −550 -->
      <g transform="translate(23.132812 221.40265)scale(0.1 -0.1)">
       <use xlink:href="#DejaVuSans-8722"/>
       <use x="83.789062" xlink:href="#DejaVuSans-53"/>
       <use x="147.412109" xlink:href="#DejaVuSans-53"/>
       <use x="211.035156" xlink:href="#DejaVuSans-48"/>
      </g>
     </g>
    </g>
    <g id="ytick_4">
     <g id="line2d_10">
      <g>
       <use style="stroke:#000000;stroke-width:0.8;" x="57.6" xlink:href="#m210f70d098" y="187.167883"/>
      </g>
     </g>
     <g id="text_9">
      <!-- −500 -->
      <g transform="translate(23.132812 190.967102)scale(0.1 -0.1)">
       <use xlink:href="#DejaVuSans-8722"/>
       <use x="83.789062" xlink:href="#DejaVuSans-53"/>
       <use x="147.412109" xlink:href="#DejaVuSans-48"/>
       <use x="211.035156" xlink:href="#DejaVuSans-48"/>
      </g>
     </g>
    </g>
    <g id="ytick_5">
     <g id="line2d_11">
      <g>
       <use style="stroke:#000000;stroke-width:0.8;" x="57.6" xlink:href="#m210f70d098" y="156.732335"/>
      </g>
     </g>
     <g id="text_10">
      <!-- −450 -->
      <g transform="translate(23.132812 160.531554)scale(0.1 -0.1)">
       <use xlink:href="#DejaVuSans-8722"/>
       <use x="83.789062" xlink:href="#DejaVuSans-52"/>
       <use x="147.412109" xlink:href="#DejaVuSans-53"/>
       <use x="211.035156" xlink:href="#DejaVuSans-48"/>
      </g>
     </g>
    </g>
    <g id="ytick_6">
     <g id="line2d_12">
      <g>
       <use style="stroke:#000000;stroke-width:0.8;" x="57.6" xlink:href="#m210f70d098" y="126.296786"/>
      </g>
     </g>
     <g id="text_11">
      <!-- −400 -->
      <g transform="translate(23.132812 130.096005)scale(0.1 -0.1)">
       <use xlink:href="#DejaVuSans-8722"/>
       <use x="83.789062" xlink:href="#DejaVuSans-52"/>
       <use x="147.412109" xlink:href="#DejaVuSans-48"/>
       <use x="211.035156" xlink:href="#DejaVuSans-48"/>
      </g>
     </g>
    </g>
    <g id="ytick_7">
     <g id="line2d_13">
      <g>
       <use style="stroke:#000000;stroke-width:0.8;" x="57.6" xlink:href="#m210f70d098" y="95.861238"/>
      </g>
     </g>
     <g id="text_12">
      <!-- −350 -->
      <defs>
       <path d="M 40.578125 39.3125 
Q 47.65625 37.796875 51.625 33 
Q 55.609375 28.21875 55.609375 21.1875 
Q 55.609375 10.40625 48.1875 4.484375 
Q 40.765625 -1.421875 27.09375 -1.421875 
Q 22.515625 -1.421875 17.65625 -0.515625 
Q 12.796875 0.390625 7.625 2.203125 
L 7.625 11.71875 
Q 11.71875 9.328125 16.59375 8.109375 
Q 21.484375 6.890625 26.8125 6.890625 
Q 36.078125 6.890625 40.9375 10.546875 
Q 45.796875 14.203125 45.796875 21.1875 
Q 45.796875 27.640625 41.28125 31.265625 
Q 36.765625 34.90625 28.71875 34.90625 
L 20.21875 34.90625 
L 20.21875 43.015625 
L 29.109375 43.015625 
Q 36.375 43.015625 40.234375 45.921875 
Q 44.09375 48.828125 44.09375 54.296875 
Q 44.09375 59.90625 40.109375 62.90625 
Q 36.140625 65.921875 28.71875 65.921875 
Q 24.65625 65.921875 20.015625 65.03125 
Q 15.375 64.15625 9.8125 62.3125 
L 9.8125 71.09375 
Q 15.4375 72.65625 20.34375 73.4375 
Q 25.25 74.21875 29.59375 74.21875 
Q 40.828125 74.21875 47.359375 69.109375 
Q 53.90625 64.015625 53.90625 55.328125 
Q 53.90625 49.265625 50.4375 45.09375 
Q 46.96875 40.921875 40.578125 39.3125 
z
" id="DejaVuSans-51"/>
      </defs>
      <g transform="translate(23.132812 99.660457)scale(0.1 -0.1)">
       <use xlink:href="#DejaVuSans-8722"/>
       <use x="83.789062" xlink:href="#DejaVuSans-51"/>
       <use x="147.412109" xlink:href="#DejaVuSans-53"/>
       <use x="211.035156" xlink:href="#DejaVuSans-48"/>
      </g>
     </g>
    </g>
    <g id="ytick_8">
     <g id="line2d_14">
      <g>
       <use style="stroke:#000000;stroke-width:0.8;" x="57.6" xlink:href="#m210f70d098" y="65.42569"/>
      </g>
     </g>
     <g id="text_13">
      <!-- −300 -->
      <g transform="translate(23.132812 69.224908)scale(0.1 -0.1)">
       <use xlink:href="#DejaVuSans-8722"/>
       <use x="83.789062" xlink:href="#DejaVuSans-51"/>
       <use x="147.412109" xlink:href="#DejaVuSans-48"/>
       <use x="211.035156" xlink:href="#DejaVuSans-48"/>
      </g>
     </g>
    </g>
   </g>
   <g id="line2d_15">
    <path clip-path="url(#pfdc67339f3)" d="M 78.007441 289.043219 
L 233.164584 159.512997 
L 387.012865 235.289598 
L 234.069075 107.930102 
L 360.998645 59.549436 
" style="fill:none;stroke:#ff0000;stroke-linecap:square;stroke-width:0.5;"/>
   </g>
   <g id="patch_3">
    <path d="M 57.6 307.584 
L 57.6 41.472 
" style="fill:none;stroke:#000000;stroke-linecap:square;stroke-linejoin:miter;stroke-width:0.8;"/>
   </g>
   <g id="patch_4">
    <path d="M 414.72 307.584 
L 414.72 41.472 
" style="fill:none;stroke:#000000;stroke-linecap:square;stroke-linejoin:miter;stroke-width:0.8;"/>
   </g>
   <g id="patch_5">
    <path d="M 57.6 307.584 
L 414.72 307.584 
" style="fill:none;stroke:#000000;stroke-linecap:square;stroke-linejoin:miter;stroke-width:0.8;"/>
   </g>
   <g id="patch_6">
    <path d="M 57.6 41.472 
L 414.72 41.472 
" style="fill:none;stroke:#000000;stroke-linecap:square;stroke-linejoin:miter;stroke-width:0.8;"/>
   </g>
   <g id="PathCollection_1">
    <defs>
     <path d="M 0 2.738613 
C 0.726289 2.738613 1.422928 2.450055 1.936492 1.936492 
C 2.450055 1.422928 2.738613 0.726289 2.738613 0 
C 2.738613 -0.726289 2.450055 -1.422928 1.936492 -1.936492 
C 1.422928 -2.450055 0.726289 -2.738613 0 -2.738613 
C -0.726289 -2.738613 -1.422928 -2.450055 -1.936492 -1.936492 
C -2.450055 -1.422928 -2.738613 -0.726289 -2.738613 0 
C -2.738613 0.726289 -2.450055 1.422928 -1.936492 1.936492 
C -1.422928 2.450055 -0.726289 2.738613 0 2.738613 
z
" id="m09e33c1c5c" style="stroke:#ff0000;"/>
    </defs>
    <g clip-path="url(#pfdc67339f3)">
     <use style="fill:#ff0000;stroke:#ff0000;" x="78.007441" xlink:href="#m09e33c1c5c" y="289.043219"/>
     <use style="fill:#ff0000;stroke:#ff0000;" x="233.164584" xlink:href="#m09e33c1c5c" y="159.512997"/>
     <use style="fill:#ff0000;stroke:#ff0000;" x="387.012865" xlink:href="#m09e33c1c5c" y="235.289598"/>
     <use style="fill:#ff0000;stroke:#ff0000;" x="234.069075" xlink:href="#m09e33c1c5c" y="107.930102"/>
     <use style="fill:#ff0000;stroke:#ff0000;" x="360.998645" xlink:href="#m09e33c1c5c" y="59.549436"/>
    </g>
   </g>
   <g id="text_14">
    <!-- (5) Subject: s17, Known = True, Degree = 2, Duration = 0.1 -->
    <defs>
     <path d="M 31 75.875 
Q 24.46875 64.65625 21.28125 53.65625 
Q 18.109375 42.671875 18.109375 31.390625 
Q 18.109375 20.125 21.3125 9.0625 
Q 24.515625 -2 31 -13.1875 
L 23.1875 -13.1875 
Q 15.875 -1.703125 12.234375 9.375 
Q 8.59375 20.453125 8.59375 31.390625 
Q 8.59375 42.28125 12.203125 53.3125 
Q 15.828125 64.359375 23.1875 75.875 
z
" id="DejaVuSans-40"/>
     <path d="M 8.015625 75.875 
L 15.828125 75.875 
Q 23.140625 64.359375 26.78125 53.3125 
Q 30.421875 42.28125 30.421875 31.390625 
Q 30.421875 20.453125 26.78125 9.375 
Q 23.140625 -1.703125 15.828125 -13.1875 
L 8.015625 -13.1875 
Q 14.5 -2 17.703125 9.0625 
Q 20.90625 20.125 20.90625 31.390625 
Q 20.90625 42.671875 17.703125 53.65625 
Q 14.5 64.65625 8.015625 75.875 
z
" id="DejaVuSans-41"/>
     <path id="DejaVuSans-32"/>
     <path d="M 53.515625 70.515625 
L 53.515625 60.890625 
Q 47.90625 63.578125 42.921875 64.890625 
Q 37.9375 66.21875 33.296875 66.21875 
Q 25.25 66.21875 20.875 63.09375 
Q 16.5 59.96875 16.5 54.203125 
Q 16.5 49.359375 19.40625 46.890625 
Q 22.3125 44.4375 30.421875 42.921875 
L 36.375 41.703125 
Q 47.40625 39.59375 52.65625 34.296875 
Q 57.90625 29 57.90625 20.125 
Q 57.90625 9.515625 50.796875 4.046875 
Q 43.703125 -1.421875 29.984375 -1.421875 
Q 24.8125 -1.421875 18.96875 -0.25 
Q 13.140625 0.921875 6.890625 3.21875 
L 6.890625 13.375 
Q 12.890625 10.015625 18.65625 8.296875 
Q 24.421875 6.59375 29.984375 6.59375 
Q 38.421875 6.59375 43.015625 9.90625 
Q 47.609375 13.234375 47.609375 19.390625 
Q 47.609375 24.75 44.3125 27.78125 
Q 41.015625 30.8125 33.5 32.328125 
L 27.484375 33.5 
Q 16.453125 35.6875 11.515625 40.375 
Q 6.59375 45.0625 6.59375 53.421875 
Q 6.59375 63.09375 13.40625 68.65625 
Q 20.21875 74.21875 32.171875 74.21875 
Q 37.3125 74.21875 42.625 73.28125 
Q 47.953125 72.359375 53.515625 70.515625 
z
" id="DejaVuSans-83"/>
     <path d="M 8.5 21.578125 
L 8.5 54.6875 
L 17.484375 54.6875 
L 17.484375 21.921875 
Q 17.484375 14.15625 20.5 10.265625 
Q 23.53125 6.390625 29.59375 6.390625 
Q 36.859375 6.390625 41.078125 11.03125 
Q 45.3125 15.671875 45.3125 23.6875 
L 45.3125 54.6875 
L 54.296875 54.6875 
L 54.296875 0 
L 45.3125 0 
L 45.3125 8.40625 
Q 42.046875 3.421875 37.71875 1 
Q 33.40625 -1.421875 27.6875 -1.421875 
Q 18.265625 -1.421875 13.375 4.4375 
Q 8.5 10.296875 8.5 21.578125 
z
M 31.109375 56 
z
" id="DejaVuSans-117"/>
     <path d="M 48.6875 27.296875 
Q 48.6875 37.203125 44.609375 42.84375 
Q 40.53125 48.484375 33.40625 48.484375 
Q 26.265625 48.484375 22.1875 42.84375 
Q 18.109375 37.203125 18.109375 27.296875 
Q 18.109375 17.390625 22.1875 11.75 
Q 26.265625 6.109375 33.40625 6.109375 
Q 40.53125 6.109375 44.609375 11.75 
Q 48.6875 17.390625 48.6875 27.296875 
z
M 18.109375 46.390625 
Q 20.953125 51.265625 25.265625 53.625 
Q 29.59375 56 35.59375 56 
Q 45.5625 56 51.78125 48.09375 
Q 58.015625 40.1875 58.015625 27.296875 
Q 58.015625 14.40625 51.78125 6.484375 
Q 45.5625 -1.421875 35.59375 -1.421875 
Q 29.59375 -1.421875 25.265625 0.953125 
Q 20.953125 3.328125 18.109375 8.203125 
L 18.109375 0 
L 9.078125 0 
L 9.078125 75.984375 
L 18.109375 75.984375 
z
" id="DejaVuSans-98"/>
     <path d="M 9.421875 54.6875 
L 18.40625 54.6875 
L 18.40625 -0.984375 
Q 18.40625 -11.421875 14.421875 -16.109375 
Q 10.453125 -20.796875 1.609375 -20.796875 
L -1.8125 -20.796875 
L -1.8125 -13.1875 
L 0.59375 -13.1875 
Q 5.71875 -13.1875 7.5625 -10.8125 
Q 9.421875 -8.453125 9.421875 -0.984375 
z
M 9.421875 75.984375 
L 18.40625 75.984375 
L 18.40625 64.59375 
L 9.421875 64.59375 
z
" id="DejaVuSans-106"/>
     <path d="M 56.203125 29.59375 
L 56.203125 25.203125 
L 14.890625 25.203125 
Q 15.484375 15.921875 20.484375 11.0625 
Q 25.484375 6.203125 34.421875 6.203125 
Q 39.59375 6.203125 44.453125 7.46875 
Q 49.3125 8.734375 54.109375 11.28125 
L 54.109375 2.78125 
Q 49.265625 0.734375 44.1875 -0.34375 
Q 39.109375 -1.421875 33.890625 -1.421875 
Q 20.796875 -1.421875 13.15625 6.1875 
Q 5.515625 13.8125 5.515625 26.8125 
Q 5.515625 40.234375 12.765625 48.109375 
Q 20.015625 56 32.328125 56 
Q 43.359375 56 49.78125 48.890625 
Q 56.203125 41.796875 56.203125 29.59375 
z
M 47.21875 32.234375 
Q 47.125 39.59375 43.09375 43.984375 
Q 39.0625 48.390625 32.421875 48.390625 
Q 24.90625 48.390625 20.390625 44.140625 
Q 15.875 39.890625 15.1875 32.171875 
z
" id="DejaVuSans-101"/>
     <path d="M 48.78125 52.59375 
L 48.78125 44.1875 
Q 44.96875 46.296875 41.140625 47.34375 
Q 37.3125 48.390625 33.40625 48.390625 
Q 24.65625 48.390625 19.8125 42.84375 
Q 14.984375 37.3125 14.984375 27.296875 
Q 14.984375 17.28125 19.8125 11.734375 
Q 24.65625 6.203125 33.40625 6.203125 
Q 37.3125 6.203125 41.140625 7.25 
Q 44.96875 8.296875 48.78125 10.40625 
L 48.78125 2.09375 
Q 45.015625 0.34375 40.984375 -0.53125 
Q 36.96875 -1.421875 32.421875 -1.421875 
Q 20.0625 -1.421875 12.78125 6.34375 
Q 5.515625 14.109375 5.515625 27.296875 
Q 5.515625 40.671875 12.859375 48.328125 
Q 20.21875 56 33.015625 56 
Q 37.15625 56 41.109375 55.140625 
Q 45.0625 54.296875 48.78125 52.59375 
z
" id="DejaVuSans-99"/>
     <path d="M 18.3125 70.21875 
L 18.3125 54.6875 
L 36.8125 54.6875 
L 36.8125 47.703125 
L 18.3125 47.703125 
L 18.3125 18.015625 
Q 18.3125 11.328125 20.140625 9.421875 
Q 21.96875 7.515625 27.59375 7.515625 
L 36.8125 7.515625 
L 36.8125 0 
L 27.59375 0 
Q 17.1875 0 13.234375 3.875 
Q 9.28125 7.765625 9.28125 18.015625 
L 9.28125 47.703125 
L 2.6875 47.703125 
L 2.6875 54.6875 
L 9.28125 54.6875 
L 9.28125 70.21875 
z
" id="DejaVuSans-116"/>
     <path d="M 11.71875 12.40625 
L 22.015625 12.40625 
L 22.015625 0 
L 11.71875 0 
z
M 11.71875 51.703125 
L 22.015625 51.703125 
L 22.015625 39.3125 
L 11.71875 39.3125 
z
" id="DejaVuSans-58"/>
     <path d="M 44.28125 53.078125 
L 44.28125 44.578125 
Q 40.484375 46.53125 36.375 47.5 
Q 32.28125 48.484375 27.875 48.484375 
Q 21.1875 48.484375 17.84375 46.4375 
Q 14.5 44.390625 14.5 40.28125 
Q 14.5 37.15625 16.890625 35.375 
Q 19.28125 33.59375 26.515625 31.984375 
L 29.59375 31.296875 
Q 39.15625 29.25 43.1875 25.515625 
Q 47.21875 21.78125 47.21875 15.09375 
Q 47.21875 7.46875 41.1875 3.015625 
Q 35.15625 -1.421875 24.609375 -1.421875 
Q 20.21875 -1.421875 15.453125 -0.5625 
Q 10.6875 0.296875 5.421875 2 
L 5.421875 11.28125 
Q 10.40625 8.6875 15.234375 7.390625 
Q 20.0625 6.109375 24.8125 6.109375 
Q 31.15625 6.109375 34.5625 8.28125 
Q 37.984375 10.453125 37.984375 14.40625 
Q 37.984375 18.0625 35.515625 20.015625 
Q 33.0625 21.96875 24.703125 23.78125 
L 21.578125 24.515625 
Q 13.234375 26.265625 9.515625 29.90625 
Q 5.8125 33.546875 5.8125 39.890625 
Q 5.8125 47.609375 11.28125 51.796875 
Q 16.75 56 26.8125 56 
Q 31.78125 56 36.171875 55.265625 
Q 40.578125 54.546875 44.28125 53.078125 
z
" id="DejaVuSans-115"/>
     <path d="M 12.40625 8.296875 
L 28.515625 8.296875 
L 28.515625 63.921875 
L 10.984375 60.40625 
L 10.984375 69.390625 
L 28.421875 72.90625 
L 38.28125 72.90625 
L 38.28125 8.296875 
L 54.390625 8.296875 
L 54.390625 0 
L 12.40625 0 
z
" id="DejaVuSans-49"/>
     <path d="M 8.203125 72.90625 
L 55.078125 72.90625 
L 55.078125 68.703125 
L 28.609375 0 
L 18.3125 0 
L 43.21875 64.59375 
L 8.203125 64.59375 
z
" id="DejaVuSans-55"/>
     <path d="M 11.71875 12.40625 
L 22.015625 12.40625 
L 22.015625 4 
L 14.015625 -11.625 
L 7.71875 -11.625 
L 11.71875 4 
z
" id="DejaVuSans-44"/>
     <path d="M 9.8125 72.90625 
L 19.671875 72.90625 
L 19.671875 42.09375 
L 52.390625 72.90625 
L 65.09375 72.90625 
L 28.90625 38.921875 
L 67.671875 0 
L 54.6875 0 
L 19.671875 35.109375 
L 19.671875 0 
L 9.8125 0 
z
" id="DejaVuSans-75"/>
     <path d="M 54.890625 33.015625 
L 54.890625 0 
L 45.90625 0 
L 45.90625 32.71875 
Q 45.90625 40.484375 42.875 44.328125 
Q 39.84375 48.1875 33.796875 48.1875 
Q 26.515625 48.1875 22.3125 43.546875 
Q 18.109375 38.921875 18.109375 30.90625 
L 18.109375 0 
L 9.078125 0 
L 9.078125 54.6875 
L 18.109375 54.6875 
L 18.109375 46.1875 
Q 21.34375 51.125 25.703125 53.5625 
Q 30.078125 56 35.796875 56 
Q 45.21875 56 50.046875 50.171875 
Q 54.890625 44.34375 54.890625 33.015625 
z
" id="DejaVuSans-110"/>
     <path d="M 30.609375 48.390625 
Q 23.390625 48.390625 19.1875 42.75 
Q 14.984375 37.109375 14.984375 27.296875 
Q 14.984375 17.484375 19.15625 11.84375 
Q 23.34375 6.203125 30.609375 6.203125 
Q 37.796875 6.203125 41.984375 11.859375 
Q 46.1875 17.53125 46.1875 27.296875 
Q 46.1875 37.015625 41.984375 42.703125 
Q 37.796875 48.390625 30.609375 48.390625 
z
M 30.609375 56 
Q 42.328125 56 49.015625 48.375 
Q 55.71875 40.765625 55.71875 27.296875 
Q 55.71875 13.875 49.015625 6.21875 
Q 42.328125 -1.421875 30.609375 -1.421875 
Q 18.84375 -1.421875 12.171875 6.21875 
Q 5.515625 13.875 5.515625 27.296875 
Q 5.515625 40.765625 12.171875 48.375 
Q 18.84375 56 30.609375 56 
z
" id="DejaVuSans-111"/>
     <path d="M 4.203125 54.6875 
L 13.1875 54.6875 
L 24.421875 12.015625 
L 35.59375 54.6875 
L 46.1875 54.6875 
L 57.421875 12.015625 
L 68.609375 54.6875 
L 77.59375 54.6875 
L 63.28125 0 
L 52.6875 0 
L 40.921875 44.828125 
L 29.109375 0 
L 18.5 0 
z
" id="DejaVuSans-119"/>
     <path d="M 10.59375 45.40625 
L 73.1875 45.40625 
L 73.1875 37.203125 
L 10.59375 37.203125 
z
M 10.59375 25.484375 
L 73.1875 25.484375 
L 73.1875 17.1875 
L 10.59375 17.1875 
z
" id="DejaVuSans-61"/>
     <path d="M -0.296875 72.90625 
L 61.375 72.90625 
L 61.375 64.59375 
L 35.5 64.59375 
L 35.5 0 
L 25.59375 0 
L 25.59375 64.59375 
L -0.296875 64.59375 
z
" id="DejaVuSans-84"/>
     <path d="M 41.109375 46.296875 
Q 39.59375 47.171875 37.8125 47.578125 
Q 36.03125 48 33.890625 48 
Q 26.265625 48 22.1875 43.046875 
Q 18.109375 38.09375 18.109375 28.8125 
L 18.109375 0 
L 9.078125 0 
L 9.078125 54.6875 
L 18.109375 54.6875 
L 18.109375 46.1875 
Q 20.953125 51.171875 25.484375 53.578125 
Q 30.03125 56 36.53125 56 
Q 37.453125 56 38.578125 55.875 
Q 39.703125 55.765625 41.0625 55.515625 
z
" id="DejaVuSans-114"/>
     <path d="M 19.671875 64.796875 
L 19.671875 8.109375 
L 31.59375 8.109375 
Q 46.6875 8.109375 53.6875 14.9375 
Q 60.6875 21.78125 60.6875 36.53125 
Q 60.6875 51.171875 53.6875 57.984375 
Q 46.6875 64.796875 31.59375 64.796875 
z
M 9.8125 72.90625 
L 30.078125 72.90625 
Q 51.265625 72.90625 61.171875 64.09375 
Q 71.09375 55.28125 71.09375 36.53125 
Q 71.09375 17.671875 61.125 8.828125 
Q 51.171875 0 30.078125 0 
L 9.8125 0 
z
" id="DejaVuSans-68"/>
     <path d="M 45.40625 27.984375 
Q 45.40625 37.75 41.375 43.109375 
Q 37.359375 48.484375 30.078125 48.484375 
Q 22.859375 48.484375 18.828125 43.109375 
Q 14.796875 37.75 14.796875 27.984375 
Q 14.796875 18.265625 18.828125 12.890625 
Q 22.859375 7.515625 30.078125 7.515625 
Q 37.359375 7.515625 41.375 12.890625 
Q 45.40625 18.265625 45.40625 27.984375 
z
M 54.390625 6.78125 
Q 54.390625 -7.171875 48.1875 -13.984375 
Q 42 -20.796875 29.203125 -20.796875 
Q 24.46875 -20.796875 20.265625 -20.09375 
Q 16.0625 -19.390625 12.109375 -17.921875 
L 12.109375 -9.1875 
Q 16.0625 -11.328125 19.921875 -12.34375 
Q 23.78125 -13.375 27.78125 -13.375 
Q 36.625 -13.375 41.015625 -8.765625 
Q 45.40625 -4.15625 45.40625 5.171875 
L 45.40625 9.625 
Q 42.625 4.78125 38.28125 2.390625 
Q 33.9375 0 27.875 0 
Q 17.828125 0 11.671875 7.65625 
Q 5.515625 15.328125 5.515625 27.984375 
Q 5.515625 40.671875 11.671875 48.328125 
Q 17.828125 56 27.875 56 
Q 33.9375 56 38.28125 53.609375 
Q 42.625 51.21875 45.40625 46.390625 
L 45.40625 54.6875 
L 54.390625 54.6875 
z
" id="DejaVuSans-103"/>
     <path d="M 34.28125 27.484375 
Q 23.390625 27.484375 19.1875 25 
Q 14.984375 22.515625 14.984375 16.5 
Q 14.984375 11.71875 18.140625 8.90625 
Q 21.296875 6.109375 26.703125 6.109375 
Q 34.1875 6.109375 38.703125 11.40625 
Q 43.21875 16.703125 43.21875 25.484375 
L 43.21875 27.484375 
z
M 52.203125 31.203125 
L 52.203125 0 
L 43.21875 0 
L 43.21875 8.296875 
Q 40.140625 3.328125 35.546875 0.953125 
Q 30.953125 -1.421875 24.3125 -1.421875 
Q 15.921875 -1.421875 10.953125 3.296875 
Q 6 8.015625 6 15.921875 
Q 6 25.140625 12.171875 29.828125 
Q 18.359375 34.515625 30.609375 34.515625 
L 43.21875 34.515625 
L 43.21875 35.40625 
Q 43.21875 41.609375 39.140625 45 
Q 35.0625 48.390625 27.6875 48.390625 
Q 23 48.390625 18.546875 47.265625 
Q 14.109375 46.140625 10.015625 43.890625 
L 10.015625 52.203125 
Q 14.9375 54.109375 19.578125 55.046875 
Q 24.21875 56 28.609375 56 
Q 40.484375 56 46.34375 49.84375 
Q 52.203125 43.703125 52.203125 31.203125 
z
" id="DejaVuSans-97"/>
     <path d="M 9.421875 54.6875 
L 18.40625 54.6875 
L 18.40625 0 
L 9.421875 0 
z
M 9.421875 75.984375 
L 18.40625 75.984375 
L 18.40625 64.59375 
L 9.421875 64.59375 
z
" id="DejaVuSans-105"/>
     <path d="M 10.6875 12.40625 
L 21 12.40625 
L 21 0 
L 10.6875 0 
z
" id="DejaVuSans-46"/>
    </defs>
    <g transform="translate(55.550625 35.472)scale(0.12 -0.12)">
     <use xlink:href="#DejaVuSans-40"/>
     <use x="39.013672" xlink:href="#DejaVuSans-53"/>
     <use x="102.636719" xlink:href="#DejaVuSans-41"/>
     <use x="141.650391" xlink:href="#DejaVuSans-32"/>
     <use x="173.4375" xlink:href="#DejaVuSans-83"/>
     <use x="236.914062" xlink:href="#DejaVuSans-117"/>
     <use x="300.292969" xlink:href="#DejaVuSans-98"/>
     <use x="363.769531" xlink:href="#DejaVuSans-106"/>
     <use x="391.552734" xlink:href="#DejaVuSans-101"/>
     <use x="453.076172" xlink:href="#DejaVuSans-99"/>
     <use x="508.056641" xlink:href="#DejaVuSans-116"/>
     <use x="547.265625" xlink:href="#DejaVuSans-58"/>
     <use x="580.957031" xlink:href="#DejaVuSans-32"/>
     <use x="612.744141" xlink:href="#DejaVuSans-115"/>
     <use x="664.84375" xlink:href="#DejaVuSans-49"/>
     <use x="728.466797" xlink:href="#DejaVuSans-55"/>
     <use x="792.089844" xlink:href="#DejaVuSans-44"/>
     <use x="823.876953" xlink:href="#DejaVuSans-32"/>
     <use x="855.664062" xlink:href="#DejaVuSans-75"/>
     <use x="921.240234" xlink:href="#DejaVuSans-110"/>
     <use x="984.619141" xlink:href="#DejaVuSans-111"/>
     <use x="1045.800781" xlink:href="#DejaVuSans-119"/>
     <use x="1127.587891" xlink:href="#DejaVuSans-110"/>
     <use x="1190.966797" xlink:href="#DejaVuSans-32"/>
     <use x="1222.753906" xlink:href="#DejaVuSans-61"/>
     <use x="1306.542969" xlink:href="#DejaVuSans-32"/>
     <use x="1338.330078" xlink:href="#DejaVuSans-84"/>
     <use x="1399.195312" xlink:href="#DejaVuSans-114"/>
     <use x="1440.308594" xlink:href="#DejaVuSans-117"/>
     <use x="1503.6875" xlink:href="#DejaVuSans-101"/>
     <use x="1565.210938" xlink:href="#DejaVuSans-44"/>
     <use x="1596.998047" xlink:href="#DejaVuSans-32"/>
     <use x="1628.785156" xlink:href="#DejaVuSans-68"/>
     <use x="1705.787109" xlink:href="#DejaVuSans-101"/>
     <use x="1767.310547" xlink:href="#DejaVuSans-103"/>
     <use x="1830.787109" xlink:href="#DejaVuSans-114"/>
     <use x="1871.869141" xlink:href="#DejaVuSans-101"/>
     <use x="1933.392578" xlink:href="#DejaVuSans-101"/>
     <use x="1994.916016" xlink:href="#DejaVuSans-32"/>
     <use x="2026.703125" xlink:href="#DejaVuSans-61"/>
     <use x="2110.492188" xlink:href="#DejaVuSans-32"/>
     <use x="2142.279297" xlink:href="#DejaVuSans-50"/>
     <use x="2205.902344" xlink:href="#DejaVuSans-44"/>
     <use x="2237.689453" xlink:href="#DejaVuSans-32"/>
     <use x="2269.476562" xlink:href="#DejaVuSans-68"/>
     <use x="2346.478516" xlink:href="#DejaVuSans-117"/>
     <use x="2409.857422" xlink:href="#DejaVuSans-114"/>
     <use x="2450.970703" xlink:href="#DejaVuSans-97"/>
     <use x="2512.25" xlink:href="#DejaVuSans-116"/>
     <use x="2551.458984" xlink:href="#DejaVuSans-105"/>
     <use x="2579.242188" xlink:href="#DejaVuSans-111"/>
     <use x="2640.423828" xlink:href="#DejaVuSans-110"/>
     <use x="2703.802734" xlink:href="#DejaVuSans-32"/>
     <use x="2735.589844" xlink:href="#DejaVuSans-61"/>
     <use x="2819.378906" xlink:href="#DejaVuSans-32"/>
     <use x="2851.166016" xlink:href="#DejaVuSans-48"/>
     <use x="2914.789062" xlink:href="#DejaVuSans-46"/>
     <use x="2946.576172" xlink:href="#DejaVuSans-49"/>
    </g>
   </g>
  </g>
 </g>
 <defs>
  <clipPath id="pfdc67339f3">
   <rect height="266.112" width="357.12" x="57.6" y="41.472"/>
  </clipPath>
 </defs>
</svg>
