<?xml version="1.0" encoding="utf-8" standalone="no"?>
<!DOCTYPE svg PUBLIC "-//W3C//DTD SVG 1.1//EN"
  "http://www.w3.org/Graphics/SVG/1.1/DTD/svg11.dtd">
<!-- Created with matplotlib (https://matplotlib.org/) -->
<svg height="345.6pt" version="1.1" viewBox="0 0 460.8 345.6" width="460.8pt" xmlns="http://www.w3.org/2000/svg" xmlns:xlink="http://www.w3.org/1999/xlink">
 <defs>
  <style type="text/css">
*{stroke-linecap:butt;stroke-linejoin:round;}
  </style>
 </defs>
 <g id="figure_1">
  <g id="patch_1">
   <path d="M 0 345.6 
L 460.8 345.6 
L 460.8 0 
L 0 0 
z
" style="fill:#ffffff;"/>
  </g>
  <g id="axes_1">
   <g id="patch_2">
    <path d="M 57.6 307.584 
L 414.72 307.584 
L 414.72 41.472 
L 57.6 41.472 
z
" style="fill:#ffffff;"/>
   </g>
   <g id="line2d_1">
    <path clip-path="url(#pe119842542)" d="M 394.854277 54.264486 
L 395.293578 54.264486 
L 395.404077 54.089874 
L 395.183079 54.089874 
L 394.633278 54.439098 
L 394.633278 54.61371 
L 394.854277 54.61371 
L 395.293578 54.264486 
L 395.293578 53.915262 
L 395.404077 54.089874 
L 395.514576 54.439098 
L 395.404077 54.264486 
L 395.293578 54.788322 
L 395.183079 54.962934 
L 395.07258 54.788322 
L 395.183079 54.61371 
L 395.514576 54.788322 
L 395.404077 55.312158 
L 395.293578 55.137546 
L 395.404077 54.962934 
L 395.73288 54.962934 
L 395.843379 55.312158 
L 395.73288 55.48677 
L 395.73288 55.312158 
L 395.404077 55.312158 
L 395.183079 55.137546 
L 395.183079 55.48677 
L 395.625076 56.357868 
L 395.625076 56.357868 
L 395.404077 56.357868 
L 395.293578 56.53248 
L 395.843379 55.48677 
L 395.73288 55.65942 
L 395.404077 55.834032 
L 395.625076 55.65942 
L 395.404077 56.183256 
L 395.07258 56.183256 
L 395.07258 56.008644 
L 395.183079 56.008644 
L 395.625076 56.881704 
L 395.514576 56.881704 
L 395.73288 56.707092 
L 395.73288 56.707092 
L 395.404077 56.183256 
L 395.625076 56.357868 
L 395.183079 56.357868 
L 395.293578 56.357868 
L 395.514576 56.53248 
L 395.404077 57.056316 
L 395.514576 56.881704 
L 395.73288 56.881704 
L 395.73288 57.056316 
L 395.73288 56.707092 
L 395.625076 56.881704 
L 395.514576 56.881704 
L 395.625076 56.881704 
L 395.514576 56.53248 
L 395.625076 57.056316 
L 395.514576 56.881704 
L 395.293578 56.707092 
L 395.07258 56.707092 
L 395.07258 57.056316 
L 395.07258 56.53248 
L 394.962081 57.056316 
L 394.743778 57.056316 
L 394.743778 56.707092 
L 395.183079 56.008644 
L 395.183079 56.707092 
L 394.854277 57.056316 
L 394.854277 57.056316 
L 394.962081 56.53248 
L 395.293578 56.357868 
L 395.404077 56.707092 
L 395.183079 57.40554 
L 395.293578 57.056316 
L 395.514576 57.57819 
L 395.404077 56.881704 
L 395.293578 56.707092 
L 395.514576 57.056316 
L 395.404077 57.57819 
L 395.625076 58.102026 
L 395.514576 57.927414 
L 395.293578 58.102026 
L 395.07258 58.45125 
L 394.854277 58.276638 
L 394.854277 57.927414 
L 395.07258 57.57819 
L 395.404077 57.57819 
L 395.514576 57.752802 
L 395.293578 57.752802 
L 395.183079 57.57819 
L 395.07258 57.752802 
L 395.07258 57.752802 
L 394.962081 57.40554 
L 394.743778 57.40554 
L 395.07258 57.752802 
L 395.183079 57.752802 
L 394.854277 57.927414 
L 394.633278 57.752802 
L 395.183079 58.276638 
L 394.522779 58.276638 
L 394.854277 58.102026 
L 395.73288 57.230928 
L 395.73288 57.40554 
L 395.514576 58.45125 
L 394.854277 57.40554 
L 394.962081 57.230928 
L 395.73288 57.230928 
L 396.064377 56.881704 
L 396.064377 57.056316 
L 396.395874 57.056316 
L 396.395874 58.276638 
L 396.503678 57.927414 
L 396.614178 57.57819 
L 396.614178 57.752802 
L 396.945675 57.40554 
L 396.945675 56.707092 
L 397.716474 56.008644 
L 397.937472 56.008644 
L 397.605975 56.357868 
L 397.384976 56.357868 
L 397.495476 56.53248 
L 397.826973 56.357868 
L 398.376774 54.788322 
L 398.487273 55.137546 
L 398.376774 54.962934 
L 398.155775 54.61371 
L 398.266274 54.089874 
L 398.266274 54.264486 
L 397.937472 54.61371 
L 397.605975 53.915262 
L 397.495476 54.089874 
L 397.166673 54.089874 
L 395.514576 53.568 
L 392.870683 53.915262 
L 390.997587 54.439098 
L 388.685191 54.61371 
L 383.400098 54.61371 
L 380.427402 54.788322 
L 377.233707 55.137546 
L 366.000527 57.40554 
L 358.289843 59.671572 
L 349.590058 62.463402 
L 345.404566 63.509112 
L 341.550572 64.032947 
L 337.917576 64.382171 
L 334.174081 64.904045 
L 321.617606 67.870487 
L 317.32431 69.090809 
L 313.249318 70.660355 
L 308.842828 72.229901 
L 304.218035 73.624835 
L 299.703741 75.196343 
L 295.518249 77.113151 
L 291.332757 78.857309 
L 283.074968 81.998363 
L 278.999976 83.917132 
L 275.035482 86.008552 
L 271.289292 87.75271 
L 267.985099 88.974994 
L 264.901903 90.54454 
L 261.929207 91.764862 
L 258.735512 92.812534 
L 255.652317 94.38208 
L 252.897924 96.126238 
L 245.960734 99.963778 
L 244.198138 101.1841 
L 242.656541 102.579034 
L 241.335941 103.452094 
L 238.581548 105.892737 
L 237.70025 107.115021 
L 236.269152 109.730277 
L 236.048153 110.777949 
L 236.158652 112.869369 
L 236.600649 114.788139 
L 236.818952 115.137363 
L 237.371448 115.137363 
L 237.810749 114.962751 
L 238.692047 116.357685 
L 239.023545 117.579969 
L 238.913046 119.846001 
L 238.692047 120.893673 
L 238.802546 121.242897 
L 238.471049 123.161667 
L 238.802546 124.207377 
L 238.363245 124.905824 
L 238.142247 125.776922 
L 238.252746 125.776922 
L 238.363245 126.47537 
L 238.363245 126.824594 
L 238.471049 126.649982 
L 239.241848 127.346468 
L 239.134044 127.695692 
L 238.802546 128.044916 
L 238.692047 128.568752 
L 238.802546 128.916014 
L 239.023545 129.090626 
L 239.134044 128.916014 
L 239.241848 129.265238 
L 238.913046 129.789074 
L 239.023545 129.789074 
L 239.134044 130.487522 
L 239.241848 130.660172 
L 239.134044 131.009396 
L 239.134044 131.009396 
L 239.241848 131.184008 
L 239.573345 130.834784 
L 239.462846 130.834784 
L 239.241848 131.707844 
L 239.241848 132.057068 
L 239.352347 132.057068 
L 239.462846 131.707844 
L 239.462846 131.882456 
L 239.683844 131.882456 
L 239.573345 132.057068 
L 239.352347 132.057068 
L 239.352347 132.23168 
L 239.352347 132.23168 
L 239.683844 132.578942 
L 240.012647 132.928166 
L 240.123146 132.578942 
L 240.344144 132.40433 
L 240.454643 132.753554 
L 240.233645 132.928166 
L 240.123146 132.578942 
L 240.344144 132.40433 
L 240.344144 132.40433 
L 240.233645 132.753554 
L 240.344144 133.452002 
L 240.565142 133.801226 
L 240.565142 133.801226 
L 240.233645 134.148488 
L 239.683844 133.452002 
L 239.462846 133.452002 
L 239.134044 133.801226 
L 238.363245 134.148488 
L 235.82985 134.497712 
L 231.975856 135.545384 
L 229.992262 135.894608 
L 227.679865 136.416482 
L 224.925472 137.638766 
L 218.759081 139.904798 
L 215.344388 141.474344 
L 207.857398 145.661107 
L 203.671907 147.754489 
L 191.118127 154.905733 
L 183.959939 159.788983 
L 177.020054 164.672233 
L 173.497557 166.940226 
L 167.438971 170.603154 
L 164.797772 171.823476 
L 156.426788 176.184852 
L 153.67509 178.103622 
L 143.873009 185.778701 
L 138.69572 190.487339 
L 134.181426 193.626431 
L 132.090028 195.545201 
L 130.327432 197.638583 
L 127.573039 201.650735 
L 124.710841 204.964438 
L 123.390242 207.05782 
L 122.508944 209.323852 
L 121.406648 215.080162 
L 121.296149 216.475096 
L 122.287946 220.836472 
L 122.619443 221.360308 
L 122.837746 222.231406 
L 122.837746 222.929854 
L 122.619443 223.279078 
L 122.837746 223.62634 
L 123.058745 224.674011 
L 122.948245 225.894333 
L 122.508944 227.289267 
L 122.508944 228.162327 
L 121.848644 231.301419 
L 121.848644 231.999867 
L 120.967346 234.964347 
L 120.856847 236.708505 
L 120.196547 238.452663 
L 119.754551 238.976499 
L 119.644052 239.325723 
L 119.644052 241.069881 
L 118.762754 243.685137 
L 118.544451 244.383585 
L 118.65495 244.730847 
L 118.323452 245.778518 
L 118.323452 246.302354 
L 118.762754 247.522676 
L 117.991955 248.91761 
L 117.773652 249.616058 
L 117.881456 249.965282 
L 117.773652 249.441446 
L 117.552654 249.441446 
L 117.442154 249.616058 
L 117.331655 251.010992 
L 117.002853 251.70944 
L 116.781855 251.70944 
L 116.671356 252.231314 
L 116.450357 253.453598 
L 116.560856 253.278986 
L 115.900557 253.626248 
L 115.790058 253.975472 
L 116.121555 255.023144 
L 116.011056 254.67392 
L 115.790058 255.372368 
L 115.900557 255.545018 
L 116.121555 255.372368 
L 116.232054 255.545018 
L 116.232054 255.894242 
L 115.900557 256.59269 
L 116.011056 256.59269 
L 115.900557 257.116526 
L 115.679558 257.289176 
L 115.461255 257.289176 
L 115.461255 257.463788 
L 115.679558 257.813012 
L 116.011056 257.813012 
L 116.339858 257.6384 
L 116.450357 257.813012 
L 116.450357 258.336848 
L 116.232054 258.51146 
L 116.011056 257.987624 
L 116.450357 258.336848 
L 116.232054 259.033334 
L 116.339858 258.686072 
L 116.671356 259.382558 
L 116.781855 259.731782 
L 116.781855 260.255618 
L 116.560856 260.255618 
L 116.011056 260.604842 
L 116.011056 260.43023 
L 116.339858 260.081006 
L 116.450357 259.906394 
L 116.339858 260.255618 
L 116.450357 260.777492 
L 116.671356 260.604842 
L 116.892354 259.906394 
L 116.892354 259.906394 
L 117.110657 260.081006 
L 117.442154 260.604842 
L 117.331655 260.604842 
L 117.221156 260.604842 
L 117.002853 260.255618 
L 117.002853 260.255618 
L 117.110657 260.777492 
L 117.221156 260.777492 
L 117.221156 260.952104 
L 117.110657 260.952104 
L 116.892354 261.301328 
L 116.781855 260.777492 
L 116.892354 260.952104 
L 117.002853 261.126716 
L 116.781855 260.952104 
L 116.671356 260.952104 
L 116.671356 260.952104 
L 116.781855 261.126716 
L 117.331655 260.604842 
L 117.221156 259.731782 
L 117.442154 260.777492 
L 117.552654 261.126716 
L 117.552654 261.126716 
L 117.331655 261.126716 
L 117.002853 261.301328 
L 117.552654 260.604842 
L 117.221156 260.777492 
L 117.221156 260.43023 
L 117.002853 260.255618 
L 116.232054 260.777492 
L 115.679558 261.126716 
L 114.90876 261.126716 
L 113.698659 260.952104 
L 112.267561 261.301328 
L 107.861071 262.696262 
L 106.208974 263.045486 
L 103.015279 264.44042 
L 97.619688 267.406861 
L 96.517391 268.452571 
L 94.204995 271.069789 
L 92.113596 272.813947 
L 91.232298 273.163171 
L 90.351 273.685045 
L 89.359203 274.034269 
L 88.367406 274.732717 
L 85.726207 275.953039 
L 83.963611 276.998749 
L 82.422014 278.046421 
L 81.209218 278.570257 
L 79.888619 278.917519 
L 78.786323 279.441355 
L 74.821829 282.058573 
L 73.943226 283.975381 
L 73.832727 284.673829 
L 74.821829 286.068762 
L 75.374325 286.76721 
L 75.813626 288.68598 
L 75.813626 289.382466 
L 75.813626 289.382466 
L 76.034625 289.557078 
L 76.255623 290.080914 
L 76.145124 290.779362 
L 75.813626 291.999684 
L 76.034625 292.174296 
L 76.584425 293.918454 
L 76.473926 293.394618 
L 76.363427 293.743842 
L 76.584425 294.789552 
L 76.473926 294.44229 
L 76.694924 294.267678 
L 76.584425 294.44229 
L 76.473926 294.789552 
L 76.694924 295.138776 
L 76.915923 294.964164 
L 76.915923 294.964164 
L 76.694924 295.313388 
L 77.026422 294.964164 
L 77.355224 294.616902 
L 77.355224 294.44229 
L 77.244725 294.44229 
L 77.026422 294.616902 
L 76.805424 295.138776 
L 76.805424 295.488 
L 77.026422 295.488 
L 77.136921 295.138776 
L 77.465723 294.789552 
L 77.797221 294.616902 
L 77.576222 294.616902 
L 77.465723 295.313388 
L 77.465723 295.138776 
L 77.686722 295.488 
L 78.126023 294.964164 
L 78.126023 295.138776 
L 78.126023 294.964164 
L 78.568019 294.093066 
L 78.678519 294.44229 
L 79.007321 294.267678 
L 79.11782 294.267678 
L 79.228319 294.616902 
L 79.449317 294.44229 
L 79.77812 293.394618 
L 79.888619 292.52352 
L 80.330615 292.870782 
L 80.659418 292.52352 
L 80.769917 291.999684 
L 80.548919 291.999684 
L 80.220116 292.174296 
L 80.220116 291.825072 
L 80.548919 290.779362 
L 80.548919 290.60475 
L 80.659418 290.779362 
L 80.769917 291.126624 
L 80.659418 291.126624 
L 80.220116 290.255526 
L 80.330615 289.906302 
L 81.209218 289.557078 
L 81.101414 289.382466 
L 80.990915 289.209816 
L 80.990915 288.511368 
L 80.990915 288.68598 
L 80.769917 289.035204 
L 80.659418 288.511368 
L 80.769917 287.81292 
L 80.990915 287.638308 
L 81.319717 287.638308 
L 81.430217 287.465658 
L 81.430217 286.76721 
L 81.209218 286.941822 
L 80.880416 287.465658 
L 80.659418 287.465658 
L 81.101414 286.592598 
L 80.990915 286.592598 
L 80.990915 286.592598 
L 80.880416 286.76721 
L 80.880416 286.76721 
L 80.769917 286.068762 
L 80.330615 285.7215 
L 80.220116 284.848441 
L 80.330615 284.848441 
L 80.548919 284.848441 
L 80.769917 285.023053 
L 80.220116 285.023053 
L 80.109617 285.546888 
L 79.888619 285.023053 
L 79.888619 285.023053 
L 79.77812 284.499217 
L 79.667621 284.673829 
L 79.557122 285.023053 
L 79.77812 285.197664 
L 79.667621 285.023053 
L 79.557122 284.673829 
L 79.77812 284.324605 
L 80.109617 284.499217 
L 80.109617 284.673829 
L 79.338818 284.324605 
L 79.449317 284.324605 
L 79.999118 284.324605 
L 79.999118 284.149993 
L 79.77812 283.975381 
L 79.77812 283.628119 
L 79.888619 283.628119 
L 79.999118 283.628119 
L 80.109617 283.975381 
L 79.888619 284.324605 
L 79.888619 284.324605 
L 79.77812 283.104283 
L 79.999118 283.104283 
L 80.330615 283.453507 
L 80.659418 283.453507 
L 80.769917 282.929671 
L 80.769917 283.628119 
L 80.880416 283.975381 
L 80.659418 284.324605 
L 80.330615 284.324605 
L 80.109617 283.628119 
L 80.109617 283.628119 
L 80.330615 282.929671 
L 79.999118 284.149993 
L 79.999118 284.149993 
L 80.220116 283.975381 
L 80.220116 282.755059 
L 80.109617 283.278895 
L 79.999118 283.802731 
L 79.888619 283.628119 
L 79.667621 283.453507 
L 79.667621 283.104283 
L 79.888619 282.929671 
L 80.220116 282.929671 
L 80.438419 282.755059 
L 82.201015 282.755059 
L 83.52431 282.580447 
L 85.065908 281.883961 
L 86.936308 281.185513 
L 89.248704 281.010901 
L 92.003097 280.661677 
L 95.196792 279.965191 
L 98.940287 278.917519 
L 103.236278 278.395645 
L 107.97157 277.347973 
L 112.706862 276.127651 
L 122.398445 273.335821 
L 127.462539 272.115499 
L 132.41883 271.069789 
L 141.889414 270.022117 
L 146.516903 269.325631 
L 150.920697 268.452571 
L 155.327187 267.756085 
L 159.620483 267.232249 
L 173.276559 266.184577 
L 177.901352 265.662703 
L 182.418341 264.964256 
L 191.33643 263.220098 
L 205.103005 261.126716 
L 209.067499 260.255618 
L 212.921493 259.207946 
L 216.778182 258.336848 
L 220.411178 257.813012 
L 228.561163 258.336848 
L 230.431563 258.51146 
L 232.08366 258.162236 
L 233.517454 257.6384 
L 234.727554 257.813012 
L 235.277354 258.336848 
L 235.608852 258.860684 
L 236.158652 259.033334 
L 236.269152 259.382558 
L 234.948552 259.731782 
L 234.506556 260.081006 
L 234.288252 260.43023 
L 233.185956 260.952104 
L 232.08366 262.174388 
L 231.754858 261.825164 
L 231.312861 262.349 
L 230.87356 262.696262 
L 230.431563 262.696262 
L 230.542062 262.870874 
L 230.542062 263.39471 
L 230.102761 264.615032 
L 229.771263 265.138868 
L 229.771263 265.138868 
L 229.771263 265.662703 
L 229.442461 266.533801 
L 229.660764 266.011927 
L 229.660764 265.488091 
L 229.442461 265.488091 
L 229.331962 265.662703 
L 229.221463 266.533801 
L 228.889965 266.883025 
L 228.671662 266.883025 
L 228.561163 266.708413 
L 228.561163 266.883025 
L 228.340165 267.057637 
L 228.229666 267.057637 
L 228.011363 266.883025 
L 227.790364 266.883025 
L 227.679865 267.057637 
L 227.900863 267.581473 
L 227.900863 267.581473 
L 226.909066 267.581473 
L 226.688068 267.928735 
L 226.359266 267.928735 
L 226.138267 268.452571 
L 226.248767 268.452571 
L 226.248767 268.452571 
L 226.138267 268.103347 
L 226.027768 268.103347 
L 226.138267 269.151019 
L 226.138267 267.928735 
L 226.027768 268.452571 
L 225.696271 269.151019 
L 225.477968 269.325631 
L 225.477968 268.627183 
L 225.256969 268.452571 
L 224.707169 269.151019 
L 224.707169 268.976407 
L 224.817668 268.452571 
L 225.035971 268.976407 
L 225.035971 268.976407 
L 224.707169 270.196729 
L 224.59667 270.196729 
L 224.707169 269.151019 
L 224.265172 268.627183 
L 223.715372 268.627183 
L 223.604873 268.976407 
L 223.825871 269.500243 
L 223.494373 268.976407 
L 223.494373 269.325631 
L 223.715372 269.674855 
L 224.044174 269.674855 
L 224.265172 269.500243 
L 224.265172 269.325631 
L 223.825871 269.500243 
L 223.604873 269.325631 
L 223.494373 268.801795 
L 223.494373 268.976407 
L 223.383874 269.325631 
L 223.165571 269.325631 
L 223.165571 269.325631 
L 223.273375 268.277959 
L 223.055072 268.627183 
L 222.502576 268.627183 
L 222.502576 268.627183 
L 222.502576 268.801795 
L 222.394772 268.627183 
L 222.284273 268.277959 
L 222.284273 268.277959 
L 222.284273 268.801795 
L 222.063275 269.151019 
L 221.731778 268.627183 
L 221.952776 268.627183 
L 222.173774 268.452571 
L 221.952776 268.801795 
L 222.063275 268.627183 
L 221.842277 269.151019 
L 221.731778 268.452571 
L 221.952776 268.277959 
L 222.063275 268.452571 
L 221.952776 268.801795 
L 221.623973 268.627183 
L 221.402975 268.627183 
L 221.292476 268.976407 
L 221.181977 268.801795 
L 221.292476 267.232249 
L 221.292476 267.928735 
L 221.402975 268.452571 
L 221.623973 268.452571 
L 221.731778 268.103347 
L 221.402975 267.928735 
L 221.292476 268.103347 
L 221.292476 268.627183 
L 221.292476 268.277959 
L 221.513474 268.452571 
L 221.513474 268.452571 
L 221.181977 268.976407 
L 221.181977 268.627183 
L 221.071478 269.500243 
L 220.960979 269.674855 
L 220.960979 269.500243 
L 221.181977 268.801795 
L 220.960979 268.452571 
L 220.85048 268.627183 
L 221.181977 269.325631 
L 220.960979 269.325631 
L 220.742675 269.325631 
L 220.85048 269.500243 
L 221.071478 269.500243 
L 220.960979 269.151019 
L 221.402975 269.151019 
L 221.292476 269.151019 
L 221.181977 269.500243 
L 221.292476 268.976407 
L 221.181977 269.500243 
" style="fill:none;stroke:#1f77b4;stroke-linecap:square;stroke-width:1.5;"/>
   </g>
   <g id="matplotlib.axis_1">
    <g id="xtick_1">
     <g id="line2d_2">
      <defs>
       <path d="M 0 0 
L 0 3.5 
" id="m4a6a2e1bd8" style="stroke:#000000;stroke-width:0.8;"/>
      </defs>
      <g>
       <use style="stroke:#000000;stroke-width:0.8;" x="84.497241" xlink:href="#m4a6a2e1bd8" y="307.584"/>
      </g>
     </g>
     <g id="text_1">
      <!-- −400 -->
      <defs>
       <path d="M 10.59375 35.5 
L 73.1875 35.5 
L 73.1875 27.203125 
L 10.59375 27.203125 
z
" id="DejaVuSans-8722"/>
       <path d="M 37.796875 64.3125 
L 12.890625 25.390625 
L 37.796875 25.390625 
z
M 35.203125 72.90625 
L 47.609375 72.90625 
L 47.609375 25.390625 
L 58.015625 25.390625 
L 58.015625 17.1875 
L 47.609375 17.1875 
L 47.609375 0 
L 37.796875 0 
L 37.796875 17.1875 
L 4.890625 17.1875 
L 4.890625 26.703125 
z
" id="DejaVuSans-52"/>
       <path d="M 31.78125 66.40625 
Q 24.171875 66.40625 20.328125 58.90625 
Q 16.5 51.421875 16.5 36.375 
Q 16.5 21.390625 20.328125 13.890625 
Q 24.171875 6.390625 31.78125 6.390625 
Q 39.453125 6.390625 43.28125 13.890625 
Q 47.125 21.390625 47.125 36.375 
Q 47.125 51.421875 43.28125 58.90625 
Q 39.453125 66.40625 31.78125 66.40625 
z
M 31.78125 74.21875 
Q 44.046875 74.21875 50.515625 64.515625 
Q 56.984375 54.828125 56.984375 36.375 
Q 56.984375 17.96875 50.515625 8.265625 
Q 44.046875 -1.421875 31.78125 -1.421875 
Q 19.53125 -1.421875 13.0625 8.265625 
Q 6.59375 17.96875 6.59375 36.375 
Q 6.59375 54.828125 13.0625 64.515625 
Q 19.53125 74.21875 31.78125 74.21875 
z
" id="DejaVuSans-48"/>
      </defs>
      <g transform="translate(70.763648 322.182437)scale(0.1 -0.1)">
       <use xlink:href="#DejaVuSans-8722"/>
       <use x="83.789062" xlink:href="#DejaVuSans-52"/>
       <use x="147.412109" xlink:href="#DejaVuSans-48"/>
       <use x="211.035156" xlink:href="#DejaVuSans-48"/>
      </g>
     </g>
    </g>
    <g id="xtick_2">
     <g id="line2d_3">
      <g>
       <use style="stroke:#000000;stroke-width:0.8;" x="138.399259" xlink:href="#m4a6a2e1bd8" y="307.584"/>
      </g>
     </g>
     <g id="text_2">
      <!-- −200 -->
      <defs>
       <path d="M 19.1875 8.296875 
L 53.609375 8.296875 
L 53.609375 0 
L 7.328125 0 
L 7.328125 8.296875 
Q 12.9375 14.109375 22.625 23.890625 
Q 32.328125 33.6875 34.8125 36.53125 
Q 39.546875 41.84375 41.421875 45.53125 
Q 43.3125 49.21875 43.3125 52.78125 
Q 43.3125 58.59375 39.234375 62.25 
Q 35.15625 65.921875 28.609375 65.921875 
Q 23.96875 65.921875 18.8125 64.3125 
Q 13.671875 62.703125 7.8125 59.421875 
L 7.8125 69.390625 
Q 13.765625 71.78125 18.9375 73 
Q 24.125 74.21875 28.421875 74.21875 
Q 39.75 74.21875 46.484375 68.546875 
Q 53.21875 62.890625 53.21875 53.421875 
Q 53.21875 48.921875 51.53125 44.890625 
Q 49.859375 40.875 45.40625 35.40625 
Q 44.1875 33.984375 37.640625 27.21875 
Q 31.109375 20.453125 19.1875 8.296875 
z
" id="DejaVuSans-50"/>
      </defs>
      <g transform="translate(124.665665 322.182437)scale(0.1 -0.1)">
       <use xlink:href="#DejaVuSans-8722"/>
       <use x="83.789062" xlink:href="#DejaVuSans-50"/>
       <use x="147.412109" xlink:href="#DejaVuSans-48"/>
       <use x="211.035156" xlink:href="#DejaVuSans-48"/>
      </g>
     </g>
    </g>
    <g id="xtick_3">
     <g id="line2d_4">
      <g>
       <use style="stroke:#000000;stroke-width:0.8;" x="192.301276" xlink:href="#m4a6a2e1bd8" y="307.584"/>
      </g>
     </g>
     <g id="text_3">
      <!-- 0 -->
      <g transform="translate(189.120026 322.182437)scale(0.1 -0.1)">
       <use xlink:href="#DejaVuSans-48"/>
      </g>
     </g>
    </g>
    <g id="xtick_4">
     <g id="line2d_5">
      <g>
       <use style="stroke:#000000;stroke-width:0.8;" x="246.203293" xlink:href="#m4a6a2e1bd8" y="307.584"/>
      </g>
     </g>
     <g id="text_4">
      <!-- 200 -->
      <g transform="translate(236.659543 322.182437)scale(0.1 -0.1)">
       <use xlink:href="#DejaVuSans-50"/>
       <use x="63.623047" xlink:href="#DejaVuSans-48"/>
       <use x="127.246094" xlink:href="#DejaVuSans-48"/>
      </g>
     </g>
    </g>
    <g id="xtick_5">
     <g id="line2d_6">
      <g>
       <use style="stroke:#000000;stroke-width:0.8;" x="300.105311" xlink:href="#m4a6a2e1bd8" y="307.584"/>
      </g>
     </g>
     <g id="text_5">
      <!-- 400 -->
      <g transform="translate(290.561561 322.182437)scale(0.1 -0.1)">
       <use xlink:href="#DejaVuSans-52"/>
       <use x="63.623047" xlink:href="#DejaVuSans-48"/>
       <use x="127.246094" xlink:href="#DejaVuSans-48"/>
      </g>
     </g>
    </g>
    <g id="xtick_6">
     <g id="line2d_7">
      <g>
       <use style="stroke:#000000;stroke-width:0.8;" x="354.007328" xlink:href="#m4a6a2e1bd8" y="307.584"/>
      </g>
     </g>
     <g id="text_6">
      <!-- 600 -->
      <defs>
       <path d="M 33.015625 40.375 
Q 26.375 40.375 22.484375 35.828125 
Q 18.609375 31.296875 18.609375 23.390625 
Q 18.609375 15.53125 22.484375 10.953125 
Q 26.375 6.390625 33.015625 6.390625 
Q 39.65625 6.390625 43.53125 10.953125 
Q 47.40625 15.53125 47.40625 23.390625 
Q 47.40625 31.296875 43.53125 35.828125 
Q 39.65625 40.375 33.015625 40.375 
z
M 52.59375 71.296875 
L 52.59375 62.3125 
Q 48.875 64.0625 45.09375 64.984375 
Q 41.3125 65.921875 37.59375 65.921875 
Q 27.828125 65.921875 22.671875 59.328125 
Q 17.53125 52.734375 16.796875 39.40625 
Q 19.671875 43.65625 24.015625 45.921875 
Q 28.375 48.1875 33.59375 48.1875 
Q 44.578125 48.1875 50.953125 41.515625 
Q 57.328125 34.859375 57.328125 23.390625 
Q 57.328125 12.15625 50.6875 5.359375 
Q 44.046875 -1.421875 33.015625 -1.421875 
Q 20.359375 -1.421875 13.671875 8.265625 
Q 6.984375 17.96875 6.984375 36.375 
Q 6.984375 53.65625 15.1875 63.9375 
Q 23.390625 74.21875 37.203125 74.21875 
Q 40.921875 74.21875 44.703125 73.484375 
Q 48.484375 72.75 52.59375 71.296875 
z
" id="DejaVuSans-54"/>
      </defs>
      <g transform="translate(344.463578 322.182437)scale(0.1 -0.1)">
       <use xlink:href="#DejaVuSans-54"/>
       <use x="63.623047" xlink:href="#DejaVuSans-48"/>
       <use x="127.246094" xlink:href="#DejaVuSans-48"/>
      </g>
     </g>
    </g>
    <g id="xtick_7">
     <g id="line2d_8">
      <g>
       <use style="stroke:#000000;stroke-width:0.8;" x="407.909345" xlink:href="#m4a6a2e1bd8" y="307.584"/>
      </g>
     </g>
     <g id="text_7">
      <!-- 800 -->
      <defs>
       <path d="M 31.78125 34.625 
Q 24.75 34.625 20.71875 30.859375 
Q 16.703125 27.09375 16.703125 20.515625 
Q 16.703125 13.921875 20.71875 10.15625 
Q 24.75 6.390625 31.78125 6.390625 
Q 38.8125 6.390625 42.859375 10.171875 
Q 46.921875 13.96875 46.921875 20.515625 
Q 46.921875 27.09375 42.890625 30.859375 
Q 38.875 34.625 31.78125 34.625 
z
M 21.921875 38.8125 
Q 15.578125 40.375 12.03125 44.71875 
Q 8.5 49.078125 8.5 55.328125 
Q 8.5 64.0625 14.71875 69.140625 
Q 20.953125 74.21875 31.78125 74.21875 
Q 42.671875 74.21875 48.875 69.140625 
Q 55.078125 64.0625 55.078125 55.328125 
Q 55.078125 49.078125 51.53125 44.71875 
Q 48 40.375 41.703125 38.8125 
Q 48.828125 37.15625 52.796875 32.3125 
Q 56.78125 27.484375 56.78125 20.515625 
Q 56.78125 9.90625 50.3125 4.234375 
Q 43.84375 -1.421875 31.78125 -1.421875 
Q 19.734375 -1.421875 13.25 4.234375 
Q 6.78125 9.90625 6.78125 20.515625 
Q 6.78125 27.484375 10.78125 32.3125 
Q 14.796875 37.15625 21.921875 38.8125 
z
M 18.3125 54.390625 
Q 18.3125 48.734375 21.84375 45.5625 
Q 25.390625 42.390625 31.78125 42.390625 
Q 38.140625 42.390625 41.71875 45.5625 
Q 45.3125 48.734375 45.3125 54.390625 
Q 45.3125 60.0625 41.71875 63.234375 
Q 38.140625 66.40625 31.78125 66.40625 
Q 25.390625 66.40625 21.84375 63.234375 
Q 18.3125 60.0625 18.3125 54.390625 
z
" id="DejaVuSans-56"/>
      </defs>
      <g transform="translate(398.365595 322.182437)scale(0.1 -0.1)">
       <use xlink:href="#DejaVuSans-56"/>
       <use x="63.623047" xlink:href="#DejaVuSans-48"/>
       <use x="127.246094" xlink:href="#DejaVuSans-48"/>
      </g>
     </g>
    </g>
   </g>
   <g id="matplotlib.axis_2">
    <g id="ytick_1">
     <g id="line2d_9">
      <defs>
       <path d="M 0 0 
L -3.5 0 
" id="m42a43306f8" style="stroke:#000000;stroke-width:0.8;"/>
      </defs>
      <g>
       <use style="stroke:#000000;stroke-width:0.8;" x="57.6" xlink:href="#m42a43306f8" y="273.237725"/>
      </g>
     </g>
     <g id="text_8">
      <!-- −400 -->
      <g transform="translate(23.132812 277.036943)scale(0.1 -0.1)">
       <use xlink:href="#DejaVuSans-8722"/>
       <use x="83.789062" xlink:href="#DejaVuSans-52"/>
       <use x="147.412109" xlink:href="#DejaVuSans-48"/>
       <use x="211.035156" xlink:href="#DejaVuSans-48"/>
      </g>
     </g>
    </g>
    <g id="ytick_2">
     <g id="line2d_10">
      <g>
       <use style="stroke:#000000;stroke-width:0.8;" x="57.6" xlink:href="#m42a43306f8" y="233.999076"/>
      </g>
     </g>
     <g id="text_9">
      <!-- −200 -->
      <g transform="translate(23.132812 237.798295)scale(0.1 -0.1)">
       <use xlink:href="#DejaVuSans-8722"/>
       <use x="83.789062" xlink:href="#DejaVuSans-50"/>
       <use x="147.412109" xlink:href="#DejaVuSans-48"/>
       <use x="211.035156" xlink:href="#DejaVuSans-48"/>
      </g>
     </g>
    </g>
    <g id="ytick_3">
     <g id="line2d_11">
      <g>
       <use style="stroke:#000000;stroke-width:0.8;" x="57.6" xlink:href="#m42a43306f8" y="194.760428"/>
      </g>
     </g>
     <g id="text_10">
      <!-- 0 -->
      <g transform="translate(44.2375 198.559647)scale(0.1 -0.1)">
       <use xlink:href="#DejaVuSans-48"/>
      </g>
     </g>
    </g>
    <g id="ytick_4">
     <g id="line2d_12">
      <g>
       <use style="stroke:#000000;stroke-width:0.8;" x="57.6" xlink:href="#m42a43306f8" y="155.52178"/>
      </g>
     </g>
     <g id="text_11">
      <!-- 200 -->
      <g transform="translate(31.5125 159.320999)scale(0.1 -0.1)">
       <use xlink:href="#DejaVuSans-50"/>
       <use x="63.623047" xlink:href="#DejaVuSans-48"/>
       <use x="127.246094" xlink:href="#DejaVuSans-48"/>
      </g>
     </g>
    </g>
    <g id="ytick_5">
     <g id="line2d_13">
      <g>
       <use style="stroke:#000000;stroke-width:0.8;" x="57.6" xlink:href="#m42a43306f8" y="116.283132"/>
      </g>
     </g>
     <g id="text_12">
      <!-- 400 -->
      <g transform="translate(31.5125 120.08235)scale(0.1 -0.1)">
       <use xlink:href="#DejaVuSans-52"/>
       <use x="63.623047" xlink:href="#DejaVuSans-48"/>
       <use x="127.246094" xlink:href="#DejaVuSans-48"/>
      </g>
     </g>
    </g>
    <g id="ytick_6">
     <g id="line2d_14">
      <g>
       <use style="stroke:#000000;stroke-width:0.8;" x="57.6" xlink:href="#m42a43306f8" y="77.044483"/>
      </g>
     </g>
     <g id="text_13">
      <!-- 600 -->
      <g transform="translate(31.5125 80.843702)scale(0.1 -0.1)">
       <use xlink:href="#DejaVuSans-54"/>
       <use x="63.623047" xlink:href="#DejaVuSans-48"/>
       <use x="127.246094" xlink:href="#DejaVuSans-48"/>
      </g>
     </g>
    </g>
   </g>
   <g id="line2d_15">
    <path clip-path="url(#pe119842542)" d="M 392.950705 56.581896 
L 239.914692 123.222718 
L 118.539475 243.4355 
L 106.745021 265.478033 
L 80.819226 287.928845 
L 223.587414 267.088473 
" style="fill:none;stroke:#ff0000;stroke-linecap:square;stroke-width:0.5;"/>
   </g>
   <g id="patch_3">
    <path d="M 57.6 307.584 
L 57.6 41.472 
" style="fill:none;stroke:#000000;stroke-linecap:square;stroke-linejoin:miter;stroke-width:0.8;"/>
   </g>
   <g id="patch_4">
    <path d="M 414.72 307.584 
L 414.72 41.472 
" style="fill:none;stroke:#000000;stroke-linecap:square;stroke-linejoin:miter;stroke-width:0.8;"/>
   </g>
   <g id="patch_5">
    <path d="M 57.6 307.584 
L 414.72 307.584 
" style="fill:none;stroke:#000000;stroke-linecap:square;stroke-linejoin:miter;stroke-width:0.8;"/>
   </g>
   <g id="patch_6">
    <path d="M 57.6 41.472 
L 414.72 41.472 
" style="fill:none;stroke:#000000;stroke-linecap:square;stroke-linejoin:miter;stroke-width:0.8;"/>
   </g>
   <g id="PathCollection_1">
    <defs>
     <path d="M 0 2.738613 
C 0.726289 2.738613 1.422928 2.450055 1.936492 1.936492 
C 2.450055 1.422928 2.738613 0.726289 2.738613 0 
C 2.738613 -0.726289 2.450055 -1.422928 1.936492 -1.936492 
C 1.422928 -2.450055 0.726289 -2.738613 0 -2.738613 
C -0.726289 -2.738613 -1.422928 -2.450055 -1.936492 -1.936492 
C -2.450055 -1.422928 -2.738613 -0.726289 -2.738613 0 
C -2.738613 0.726289 -2.450055 1.422928 -1.936492 1.936492 
C -1.422928 2.450055 -0.726289 2.738613 0 2.738613 
z
" id="me9d0d74189" style="stroke:#ff0000;"/>
    </defs>
    <g clip-path="url(#pe119842542)">
     <use style="fill:#ff0000;stroke:#ff0000;" x="392.950705" xlink:href="#me9d0d74189" y="56.581896"/>
     <use style="fill:#ff0000;stroke:#ff0000;" x="239.914692" xlink:href="#me9d0d74189" y="123.222718"/>
     <use style="fill:#ff0000;stroke:#ff0000;" x="118.539475" xlink:href="#me9d0d74189" y="243.4355"/>
     <use style="fill:#ff0000;stroke:#ff0000;" x="106.745021" xlink:href="#me9d0d74189" y="265.478033"/>
     <use style="fill:#ff0000;stroke:#ff0000;" x="80.819226" xlink:href="#me9d0d74189" y="287.928845"/>
     <use style="fill:#ff0000;stroke:#ff0000;" x="223.587414" xlink:href="#me9d0d74189" y="267.088473"/>
    </g>
   </g>
   <g id="text_14">
    <!-- (53) Subject: s7, Known = False, Degree = 2, Duration = 0.1 -->
    <defs>
     <path d="M 31 75.875 
Q 24.46875 64.65625 21.28125 53.65625 
Q 18.109375 42.671875 18.109375 31.390625 
Q 18.109375 20.125 21.3125 9.0625 
Q 24.515625 -2 31 -13.1875 
L 23.1875 -13.1875 
Q 15.875 -1.703125 12.234375 9.375 
Q 8.59375 20.453125 8.59375 31.390625 
Q 8.59375 42.28125 12.203125 53.3125 
Q 15.828125 64.359375 23.1875 75.875 
z
" id="DejaVuSans-40"/>
     <path d="M 10.796875 72.90625 
L 49.515625 72.90625 
L 49.515625 64.59375 
L 19.828125 64.59375 
L 19.828125 46.734375 
Q 21.96875 47.46875 24.109375 47.828125 
Q 26.265625 48.1875 28.421875 48.1875 
Q 40.625 48.1875 47.75 41.5 
Q 54.890625 34.8125 54.890625 23.390625 
Q 54.890625 11.625 47.5625 5.09375 
Q 40.234375 -1.421875 26.90625 -1.421875 
Q 22.3125 -1.421875 17.546875 -0.640625 
Q 12.796875 0.140625 7.71875 1.703125 
L 7.71875 11.625 
Q 12.109375 9.234375 16.796875 8.0625 
Q 21.484375 6.890625 26.703125 6.890625 
Q 35.15625 6.890625 40.078125 11.328125 
Q 45.015625 15.765625 45.015625 23.390625 
Q 45.015625 31 40.078125 35.4375 
Q 35.15625 39.890625 26.703125 39.890625 
Q 22.75 39.890625 18.8125 39.015625 
Q 14.890625 38.140625 10.796875 36.28125 
z
" id="DejaVuSans-53"/>
     <path d="M 40.578125 39.3125 
Q 47.65625 37.796875 51.625 33 
Q 55.609375 28.21875 55.609375 21.1875 
Q 55.609375 10.40625 48.1875 4.484375 
Q 40.765625 -1.421875 27.09375 -1.421875 
Q 22.515625 -1.421875 17.65625 -0.515625 
Q 12.796875 0.390625 7.625 2.203125 
L 7.625 11.71875 
Q 11.71875 9.328125 16.59375 8.109375 
Q 21.484375 6.890625 26.8125 6.890625 
Q 36.078125 6.890625 40.9375 10.546875 
Q 45.796875 14.203125 45.796875 21.1875 
Q 45.796875 27.640625 41.28125 31.265625 
Q 36.765625 34.90625 28.71875 34.90625 
L 20.21875 34.90625 
L 20.21875 43.015625 
L 29.109375 43.015625 
Q 36.375 43.015625 40.234375 45.921875 
Q 44.09375 48.828125 44.09375 54.296875 
Q 44.09375 59.90625 40.109375 62.90625 
Q 36.140625 65.921875 28.71875 65.921875 
Q 24.65625 65.921875 20.015625 65.03125 
Q 15.375 64.15625 9.8125 62.3125 
L 9.8125 71.09375 
Q 15.4375 72.65625 20.34375 73.4375 
Q 25.25 74.21875 29.59375 74.21875 
Q 40.828125 74.21875 47.359375 69.109375 
Q 53.90625 64.015625 53.90625 55.328125 
Q 53.90625 49.265625 50.4375 45.09375 
Q 46.96875 40.921875 40.578125 39.3125 
z
" id="DejaVuSans-51"/>
     <path d="M 8.015625 75.875 
L 15.828125 75.875 
Q 23.140625 64.359375 26.78125 53.3125 
Q 30.421875 42.28125 30.421875 31.390625 
Q 30.421875 20.453125 26.78125 9.375 
Q 23.140625 -1.703125 15.828125 -13.1875 
L 8.015625 -13.1875 
Q 14.5 -2 17.703125 9.0625 
Q 20.90625 20.125 20.90625 31.390625 
Q 20.90625 42.671875 17.703125 53.65625 
Q 14.5 64.65625 8.015625 75.875 
z
" id="DejaVuSans-41"/>
     <path id="DejaVuSans-32"/>
     <path d="M 53.515625 70.515625 
L 53.515625 60.890625 
Q 47.90625 63.578125 42.921875 64.890625 
Q 37.9375 66.21875 33.296875 66.21875 
Q 25.25 66.21875 20.875 63.09375 
Q 16.5 59.96875 16.5 54.203125 
Q 16.5 49.359375 19.40625 46.890625 
Q 22.3125 44.4375 30.421875 42.921875 
L 36.375 41.703125 
Q 47.40625 39.59375 52.65625 34.296875 
Q 57.90625 29 57.90625 20.125 
Q 57.90625 9.515625 50.796875 4.046875 
Q 43.703125 -1.421875 29.984375 -1.421875 
Q 24.8125 -1.421875 18.96875 -0.25 
Q 13.140625 0.921875 6.890625 3.21875 
L 6.890625 13.375 
Q 12.890625 10.015625 18.65625 8.296875 
Q 24.421875 6.59375 29.984375 6.59375 
Q 38.421875 6.59375 43.015625 9.90625 
Q 47.609375 13.234375 47.609375 19.390625 
Q 47.609375 24.75 44.3125 27.78125 
Q 41.015625 30.8125 33.5 32.328125 
L 27.484375 33.5 
Q 16.453125 35.6875 11.515625 40.375 
Q 6.59375 45.0625 6.59375 53.421875 
Q 6.59375 63.09375 13.40625 68.65625 
Q 20.21875 74.21875 32.171875 74.21875 
Q 37.3125 74.21875 42.625 73.28125 
Q 47.953125 72.359375 53.515625 70.515625 
z
" id="DejaVuSans-83"/>
     <path d="M 8.5 21.578125 
L 8.5 54.6875 
L 17.484375 54.6875 
L 17.484375 21.921875 
Q 17.484375 14.15625 20.5 10.265625 
Q 23.53125 6.390625 29.59375 6.390625 
Q 36.859375 6.390625 41.078125 11.03125 
Q 45.3125 15.671875 45.3125 23.6875 
L 45.3125 54.6875 
L 54.296875 54.6875 
L 54.296875 0 
L 45.3125 0 
L 45.3125 8.40625 
Q 42.046875 3.421875 37.71875 1 
Q 33.40625 -1.421875 27.6875 -1.421875 
Q 18.265625 -1.421875 13.375 4.4375 
Q 8.5 10.296875 8.5 21.578125 
z
M 31.109375 56 
z
" id="DejaVuSans-117"/>
     <path d="M 48.6875 27.296875 
Q 48.6875 37.203125 44.609375 42.84375 
Q 40.53125 48.484375 33.40625 48.484375 
Q 26.265625 48.484375 22.1875 42.84375 
Q 18.109375 37.203125 18.109375 27.296875 
Q 18.109375 17.390625 22.1875 11.75 
Q 26.265625 6.109375 33.40625 6.109375 
Q 40.53125 6.109375 44.609375 11.75 
Q 48.6875 17.390625 48.6875 27.296875 
z
M 18.109375 46.390625 
Q 20.953125 51.265625 25.265625 53.625 
Q 29.59375 56 35.59375 56 
Q 45.5625 56 51.78125 48.09375 
Q 58.015625 40.1875 58.015625 27.296875 
Q 58.015625 14.40625 51.78125 6.484375 
Q 45.5625 -1.421875 35.59375 -1.421875 
Q 29.59375 -1.421875 25.265625 0.953125 
Q 20.953125 3.328125 18.109375 8.203125 
L 18.109375 0 
L 9.078125 0 
L 9.078125 75.984375 
L 18.109375 75.984375 
z
" id="DejaVuSans-98"/>
     <path d="M 9.421875 54.6875 
L 18.40625 54.6875 
L 18.40625 -0.984375 
Q 18.40625 -11.421875 14.421875 -16.109375 
Q 10.453125 -20.796875 1.609375 -20.796875 
L -1.8125 -20.796875 
L -1.8125 -13.1875 
L 0.59375 -13.1875 
Q 5.71875 -13.1875 7.5625 -10.8125 
Q 9.421875 -8.453125 9.421875 -0.984375 
z
M 9.421875 75.984375 
L 18.40625 75.984375 
L 18.40625 64.59375 
L 9.421875 64.59375 
z
" id="DejaVuSans-106"/>
     <path d="M 56.203125 29.59375 
L 56.203125 25.203125 
L 14.890625 25.203125 
Q 15.484375 15.921875 20.484375 11.0625 
Q 25.484375 6.203125 34.421875 6.203125 
Q 39.59375 6.203125 44.453125 7.46875 
Q 49.3125 8.734375 54.109375 11.28125 
L 54.109375 2.78125 
Q 49.265625 0.734375 44.1875 -0.34375 
Q 39.109375 -1.421875 33.890625 -1.421875 
Q 20.796875 -1.421875 13.15625 6.1875 
Q 5.515625 13.8125 5.515625 26.8125 
Q 5.515625 40.234375 12.765625 48.109375 
Q 20.015625 56 32.328125 56 
Q 43.359375 56 49.78125 48.890625 
Q 56.203125 41.796875 56.203125 29.59375 
z
M 47.21875 32.234375 
Q 47.125 39.59375 43.09375 43.984375 
Q 39.0625 48.390625 32.421875 48.390625 
Q 24.90625 48.390625 20.390625 44.140625 
Q 15.875 39.890625 15.1875 32.171875 
z
" id="DejaVuSans-101"/>
     <path d="M 48.78125 52.59375 
L 48.78125 44.1875 
Q 44.96875 46.296875 41.140625 47.34375 
Q 37.3125 48.390625 33.40625 48.390625 
Q 24.65625 48.390625 19.8125 42.84375 
Q 14.984375 37.3125 14.984375 27.296875 
Q 14.984375 17.28125 19.8125 11.734375 
Q 24.65625 6.203125 33.40625 6.203125 
Q 37.3125 6.203125 41.140625 7.25 
Q 44.96875 8.296875 48.78125 10.40625 
L 48.78125 2.09375 
Q 45.015625 0.34375 40.984375 -0.53125 
Q 36.96875 -1.421875 32.421875 -1.421875 
Q 20.0625 -1.421875 12.78125 6.34375 
Q 5.515625 14.109375 5.515625 27.296875 
Q 5.515625 40.671875 12.859375 48.328125 
Q 20.21875 56 33.015625 56 
Q 37.15625 56 41.109375 55.140625 
Q 45.0625 54.296875 48.78125 52.59375 
z
" id="DejaVuSans-99"/>
     <path d="M 18.3125 70.21875 
L 18.3125 54.6875 
L 36.8125 54.6875 
L 36.8125 47.703125 
L 18.3125 47.703125 
L 18.3125 18.015625 
Q 18.3125 11.328125 20.140625 9.421875 
Q 21.96875 7.515625 27.59375 7.515625 
L 36.8125 7.515625 
L 36.8125 0 
L 27.59375 0 
Q 17.1875 0 13.234375 3.875 
Q 9.28125 7.765625 9.28125 18.015625 
L 9.28125 47.703125 
L 2.6875 47.703125 
L 2.6875 54.6875 
L 9.28125 54.6875 
L 9.28125 70.21875 
z
" id="DejaVuSans-116"/>
     <path d="M 11.71875 12.40625 
L 22.015625 12.40625 
L 22.015625 0 
L 11.71875 0 
z
M 11.71875 51.703125 
L 22.015625 51.703125 
L 22.015625 39.3125 
L 11.71875 39.3125 
z
" id="DejaVuSans-58"/>
     <path d="M 44.28125 53.078125 
L 44.28125 44.578125 
Q 40.484375 46.53125 36.375 47.5 
Q 32.28125 48.484375 27.875 48.484375 
Q 21.1875 48.484375 17.84375 46.4375 
Q 14.5 44.390625 14.5 40.28125 
Q 14.5 37.15625 16.890625 35.375 
Q 19.28125 33.59375 26.515625 31.984375 
L 29.59375 31.296875 
Q 39.15625 29.25 43.1875 25.515625 
Q 47.21875 21.78125 47.21875 15.09375 
Q 47.21875 7.46875 41.1875 3.015625 
Q 35.15625 -1.421875 24.609375 -1.421875 
Q 20.21875 -1.421875 15.453125 -0.5625 
Q 10.6875 0.296875 5.421875 2 
L 5.421875 11.28125 
Q 10.40625 8.6875 15.234375 7.390625 
Q 20.0625 6.109375 24.8125 6.109375 
Q 31.15625 6.109375 34.5625 8.28125 
Q 37.984375 10.453125 37.984375 14.40625 
Q 37.984375 18.0625 35.515625 20.015625 
Q 33.0625 21.96875 24.703125 23.78125 
L 21.578125 24.515625 
Q 13.234375 26.265625 9.515625 29.90625 
Q 5.8125 33.546875 5.8125 39.890625 
Q 5.8125 47.609375 11.28125 51.796875 
Q 16.75 56 26.8125 56 
Q 31.78125 56 36.171875 55.265625 
Q 40.578125 54.546875 44.28125 53.078125 
z
" id="DejaVuSans-115"/>
     <path d="M 8.203125 72.90625 
L 55.078125 72.90625 
L 55.078125 68.703125 
L 28.609375 0 
L 18.3125 0 
L 43.21875 64.59375 
L 8.203125 64.59375 
z
" id="DejaVuSans-55"/>
     <path d="M 11.71875 12.40625 
L 22.015625 12.40625 
L 22.015625 4 
L 14.015625 -11.625 
L 7.71875 -11.625 
L 11.71875 4 
z
" id="DejaVuSans-44"/>
     <path d="M 9.8125 72.90625 
L 19.671875 72.90625 
L 19.671875 42.09375 
L 52.390625 72.90625 
L 65.09375 72.90625 
L 28.90625 38.921875 
L 67.671875 0 
L 54.6875 0 
L 19.671875 35.109375 
L 19.671875 0 
L 9.8125 0 
z
" id="DejaVuSans-75"/>
     <path d="M 54.890625 33.015625 
L 54.890625 0 
L 45.90625 0 
L 45.90625 32.71875 
Q 45.90625 40.484375 42.875 44.328125 
Q 39.84375 48.1875 33.796875 48.1875 
Q 26.515625 48.1875 22.3125 43.546875 
Q 18.109375 38.921875 18.109375 30.90625 
L 18.109375 0 
L 9.078125 0 
L 9.078125 54.6875 
L 18.109375 54.6875 
L 18.109375 46.1875 
Q 21.34375 51.125 25.703125 53.5625 
Q 30.078125 56 35.796875 56 
Q 45.21875 56 50.046875 50.171875 
Q 54.890625 44.34375 54.890625 33.015625 
z
" id="DejaVuSans-110"/>
     <path d="M 30.609375 48.390625 
Q 23.390625 48.390625 19.1875 42.75 
Q 14.984375 37.109375 14.984375 27.296875 
Q 14.984375 17.484375 19.15625 11.84375 
Q 23.34375 6.203125 30.609375 6.203125 
Q 37.796875 6.203125 41.984375 11.859375 
Q 46.1875 17.53125 46.1875 27.296875 
Q 46.1875 37.015625 41.984375 42.703125 
Q 37.796875 48.390625 30.609375 48.390625 
z
M 30.609375 56 
Q 42.328125 56 49.015625 48.375 
Q 55.71875 40.765625 55.71875 27.296875 
Q 55.71875 13.875 49.015625 6.21875 
Q 42.328125 -1.421875 30.609375 -1.421875 
Q 18.84375 -1.421875 12.171875 6.21875 
Q 5.515625 13.875 5.515625 27.296875 
Q 5.515625 40.765625 12.171875 48.375 
Q 18.84375 56 30.609375 56 
z
" id="DejaVuSans-111"/>
     <path d="M 4.203125 54.6875 
L 13.1875 54.6875 
L 24.421875 12.015625 
L 35.59375 54.6875 
L 46.1875 54.6875 
L 57.421875 12.015625 
L 68.609375 54.6875 
L 77.59375 54.6875 
L 63.28125 0 
L 52.6875 0 
L 40.921875 44.828125 
L 29.109375 0 
L 18.5 0 
z
" id="DejaVuSans-119"/>
     <path d="M 10.59375 45.40625 
L 73.1875 45.40625 
L 73.1875 37.203125 
L 10.59375 37.203125 
z
M 10.59375 25.484375 
L 73.1875 25.484375 
L 73.1875 17.1875 
L 10.59375 17.1875 
z
" id="DejaVuSans-61"/>
     <path d="M 9.8125 72.90625 
L 51.703125 72.90625 
L 51.703125 64.59375 
L 19.671875 64.59375 
L 19.671875 43.109375 
L 48.578125 43.109375 
L 48.578125 34.8125 
L 19.671875 34.8125 
L 19.671875 0 
L 9.8125 0 
z
" id="DejaVuSans-70"/>
     <path d="M 34.28125 27.484375 
Q 23.390625 27.484375 19.1875 25 
Q 14.984375 22.515625 14.984375 16.5 
Q 14.984375 11.71875 18.140625 8.90625 
Q 21.296875 6.109375 26.703125 6.109375 
Q 34.1875 6.109375 38.703125 11.40625 
Q 43.21875 16.703125 43.21875 25.484375 
L 43.21875 27.484375 
z
M 52.203125 31.203125 
L 52.203125 0 
L 43.21875 0 
L 43.21875 8.296875 
Q 40.140625 3.328125 35.546875 0.953125 
Q 30.953125 -1.421875 24.3125 -1.421875 
Q 15.921875 -1.421875 10.953125 3.296875 
Q 6 8.015625 6 15.921875 
Q 6 25.140625 12.171875 29.828125 
Q 18.359375 34.515625 30.609375 34.515625 
L 43.21875 34.515625 
L 43.21875 35.40625 
Q 43.21875 41.609375 39.140625 45 
Q 35.0625 48.390625 27.6875 48.390625 
Q 23 48.390625 18.546875 47.265625 
Q 14.109375 46.140625 10.015625 43.890625 
L 10.015625 52.203125 
Q 14.9375 54.109375 19.578125 55.046875 
Q 24.21875 56 28.609375 56 
Q 40.484375 56 46.34375 49.84375 
Q 52.203125 43.703125 52.203125 31.203125 
z
" id="DejaVuSans-97"/>
     <path d="M 9.421875 75.984375 
L 18.40625 75.984375 
L 18.40625 0 
L 9.421875 0 
z
" id="DejaVuSans-108"/>
     <path d="M 19.671875 64.796875 
L 19.671875 8.109375 
L 31.59375 8.109375 
Q 46.6875 8.109375 53.6875 14.9375 
Q 60.6875 21.78125 60.6875 36.53125 
Q 60.6875 51.171875 53.6875 57.984375 
Q 46.6875 64.796875 31.59375 64.796875 
z
M 9.8125 72.90625 
L 30.078125 72.90625 
Q 51.265625 72.90625 61.171875 64.09375 
Q 71.09375 55.28125 71.09375 36.53125 
Q 71.09375 17.671875 61.125 8.828125 
Q 51.171875 0 30.078125 0 
L 9.8125 0 
z
" id="DejaVuSans-68"/>
     <path d="M 45.40625 27.984375 
Q 45.40625 37.75 41.375 43.109375 
Q 37.359375 48.484375 30.078125 48.484375 
Q 22.859375 48.484375 18.828125 43.109375 
Q 14.796875 37.75 14.796875 27.984375 
Q 14.796875 18.265625 18.828125 12.890625 
Q 22.859375 7.515625 30.078125 7.515625 
Q 37.359375 7.515625 41.375 12.890625 
Q 45.40625 18.265625 45.40625 27.984375 
z
M 54.390625 6.78125 
Q 54.390625 -7.171875 48.1875 -13.984375 
Q 42 -20.796875 29.203125 -20.796875 
Q 24.46875 -20.796875 20.265625 -20.09375 
Q 16.0625 -19.390625 12.109375 -17.921875 
L 12.109375 -9.1875 
Q 16.0625 -11.328125 19.921875 -12.34375 
Q 23.78125 -13.375 27.78125 -13.375 
Q 36.625 -13.375 41.015625 -8.765625 
Q 45.40625 -4.15625 45.40625 5.171875 
L 45.40625 9.625 
Q 42.625 4.78125 38.28125 2.390625 
Q 33.9375 0 27.875 0 
Q 17.828125 0 11.671875 7.65625 
Q 5.515625 15.328125 5.515625 27.984375 
Q 5.515625 40.671875 11.671875 48.328125 
Q 17.828125 56 27.875 56 
Q 33.9375 56 38.28125 53.609375 
Q 42.625 51.21875 45.40625 46.390625 
L 45.40625 54.6875 
L 54.390625 54.6875 
z
" id="DejaVuSans-103"/>
     <path d="M 41.109375 46.296875 
Q 39.59375 47.171875 37.8125 47.578125 
Q 36.03125 48 33.890625 48 
Q 26.265625 48 22.1875 43.046875 
Q 18.109375 38.09375 18.109375 28.8125 
L 18.109375 0 
L 9.078125 0 
L 9.078125 54.6875 
L 18.109375 54.6875 
L 18.109375 46.1875 
Q 20.953125 51.171875 25.484375 53.578125 
Q 30.03125 56 36.53125 56 
Q 37.453125 56 38.578125 55.875 
Q 39.703125 55.765625 41.0625 55.515625 
z
" id="DejaVuSans-114"/>
     <path d="M 9.421875 54.6875 
L 18.40625 54.6875 
L 18.40625 0 
L 9.421875 0 
z
M 9.421875 75.984375 
L 18.40625 75.984375 
L 18.40625 64.59375 
L 9.421875 64.59375 
z
" id="DejaVuSans-105"/>
     <path d="M 10.6875 12.40625 
L 21 12.40625 
L 21 0 
L 10.6875 0 
z
" id="DejaVuSans-46"/>
     <path d="M 12.40625 8.296875 
L 28.515625 8.296875 
L 28.515625 63.921875 
L 10.984375 60.40625 
L 10.984375 69.390625 
L 28.421875 72.90625 
L 38.28125 72.90625 
L 38.28125 8.296875 
L 54.390625 8.296875 
L 54.390625 0 
L 12.40625 0 
z
" id="DejaVuSans-49"/>
    </defs>
    <g transform="translate(53.559375 35.472)scale(0.12 -0.12)">
     <use xlink:href="#DejaVuSans-40"/>
     <use x="39.013672" xlink:href="#DejaVuSans-53"/>
     <use x="102.636719" xlink:href="#DejaVuSans-51"/>
     <use x="166.259766" xlink:href="#DejaVuSans-41"/>
     <use x="205.273438" xlink:href="#DejaVuSans-32"/>
     <use x="237.060547" xlink:href="#DejaVuSans-83"/>
     <use x="300.537109" xlink:href="#DejaVuSans-117"/>
     <use x="363.916016" xlink:href="#DejaVuSans-98"/>
     <use x="427.392578" xlink:href="#DejaVuSans-106"/>
     <use x="455.175781" xlink:href="#DejaVuSans-101"/>
     <use x="516.699219" xlink:href="#DejaVuSans-99"/>
     <use x="571.679688" xlink:href="#DejaVuSans-116"/>
     <use x="610.888672" xlink:href="#DejaVuSans-58"/>
     <use x="644.580078" xlink:href="#DejaVuSans-32"/>
     <use x="676.367188" xlink:href="#DejaVuSans-115"/>
     <use x="728.466797" xlink:href="#DejaVuSans-55"/>
     <use x="792.089844" xlink:href="#DejaVuSans-44"/>
     <use x="823.876953" xlink:href="#DejaVuSans-32"/>
     <use x="855.664062" xlink:href="#DejaVuSans-75"/>
     <use x="921.240234" xlink:href="#DejaVuSans-110"/>
     <use x="984.619141" xlink:href="#DejaVuSans-111"/>
     <use x="1045.800781" xlink:href="#DejaVuSans-119"/>
     <use x="1127.587891" xlink:href="#DejaVuSans-110"/>
     <use x="1190.966797" xlink:href="#DejaVuSans-32"/>
     <use x="1222.753906" xlink:href="#DejaVuSans-61"/>
     <use x="1306.542969" xlink:href="#DejaVuSans-32"/>
     <use x="1338.330078" xlink:href="#DejaVuSans-70"/>
     <use x="1395.708984" xlink:href="#DejaVuSans-97"/>
     <use x="1456.988281" xlink:href="#DejaVuSans-108"/>
     <use x="1484.771484" xlink:href="#DejaVuSans-115"/>
     <use x="1536.871094" xlink:href="#DejaVuSans-101"/>
     <use x="1598.394531" xlink:href="#DejaVuSans-44"/>
     <use x="1630.181641" xlink:href="#DejaVuSans-32"/>
     <use x="1661.96875" xlink:href="#DejaVuSans-68"/>
     <use x="1738.970703" xlink:href="#DejaVuSans-101"/>
     <use x="1800.494141" xlink:href="#DejaVuSans-103"/>
     <use x="1863.970703" xlink:href="#DejaVuSans-114"/>
     <use x="1905.052734" xlink:href="#DejaVuSans-101"/>
     <use x="1966.576172" xlink:href="#DejaVuSans-101"/>
     <use x="2028.099609" xlink:href="#DejaVuSans-32"/>
     <use x="2059.886719" xlink:href="#DejaVuSans-61"/>
     <use x="2143.675781" xlink:href="#DejaVuSans-32"/>
     <use x="2175.462891" xlink:href="#DejaVuSans-50"/>
     <use x="2239.085938" xlink:href="#DejaVuSans-44"/>
     <use x="2270.873047" xlink:href="#DejaVuSans-32"/>
     <use x="2302.660156" xlink:href="#DejaVuSans-68"/>
     <use x="2379.662109" xlink:href="#DejaVuSans-117"/>
     <use x="2443.041016" xlink:href="#DejaVuSans-114"/>
     <use x="2484.154297" xlink:href="#DejaVuSans-97"/>
     <use x="2545.433594" xlink:href="#DejaVuSans-116"/>
     <use x="2584.642578" xlink:href="#DejaVuSans-105"/>
     <use x="2612.425781" xlink:href="#DejaVuSans-111"/>
     <use x="2673.607422" xlink:href="#DejaVuSans-110"/>
     <use x="2736.986328" xlink:href="#DejaVuSans-32"/>
     <use x="2768.773438" xlink:href="#DejaVuSans-61"/>
     <use x="2852.5625" xlink:href="#DejaVuSans-32"/>
     <use x="2884.349609" xlink:href="#DejaVuSans-48"/>
     <use x="2947.972656" xlink:href="#DejaVuSans-46"/>
     <use x="2979.759766" xlink:href="#DejaVuSans-49"/>
    </g>
   </g>
  </g>
 </g>
 <defs>
  <clipPath id="pe119842542">
   <rect height="266.112" width="357.12" x="57.6" y="41.472"/>
  </clipPath>
 </defs>
</svg>
