<?xml version="1.0" encoding="utf-8" standalone="no"?>
<!DOCTYPE svg PUBLIC "-//W3C//DTD SVG 1.1//EN"
  "http://www.w3.org/Graphics/SVG/1.1/DTD/svg11.dtd">
<!-- Created with matplotlib (https://matplotlib.org/) -->
<svg height="345.6pt" version="1.1" viewBox="0 0 460.8 345.6" width="460.8pt" xmlns="http://www.w3.org/2000/svg" xmlns:xlink="http://www.w3.org/1999/xlink">
 <defs>
  <style type="text/css">
*{stroke-linecap:butt;stroke-linejoin:round;}
  </style>
 </defs>
 <g id="figure_1">
  <g id="patch_1">
   <path d="M 0 345.6 
L 460.8 345.6 
L 460.8 0 
L 0 0 
z
" style="fill:#ffffff;"/>
  </g>
  <g id="axes_1">
   <g id="patch_2">
    <path d="M 57.6 307.584 
L 414.72 307.584 
L 414.72 41.472 
L 57.6 41.472 
z
" style="fill:#ffffff;"/>
   </g>
   <g id="line2d_1">
    <path clip-path="url(#p24923693b4)" d="M 396.396516 54.129406 
L 396.396516 54.409065 
L 396.396516 53.849746 
L 397.18055 53.568 
L 397.441894 53.849746 
L 397.18055 54.129406 
L 397.441894 54.409065 
L 397.441894 54.688725 
L 397.18055 54.688725 
L 397.18055 54.409065 
L 397.441894 54.409065 
L 397.441894 54.968384 
L 397.18055 55.248043 
L 396.919205 54.688725 
L 396.657861 53.849746 
L 396.919205 53.849746 
L 396.919205 54.409065 
L 396.396516 54.688725 
L 396.396516 54.688725 
L 396.657861 54.688725 
L 396.919205 54.968384 
L 396.919205 55.809449 
L 396.919205 54.688725 
L 396.919205 54.688725 
L 397.18055 54.968384 
L 397.441894 54.688725 
L 397.18055 54.688725 
L 396.919205 54.968384 
L 396.919205 54.968384 
L 397.18055 55.248043 
L 397.441894 55.248043 
L 397.18055 54.688725 
L 396.919205 53.849746 
L 396.657861 54.129406 
L 396.919205 54.409065 
L 396.919205 54.129406 
L 396.657861 54.409065 
L 396.657861 54.968384 
L 396.657861 54.409065 
L 396.919205 54.409065 
L 396.657861 54.409065 
L 396.396516 54.688725 
L 397.18055 54.688725 
L 396.919205 54.688725 
L 396.396516 54.968384 
L 396.396516 55.248043 
L 396.919205 54.968384 
L 397.18055 54.688725 
L 396.657861 54.129406 
L 396.135171 53.849746 
L 395.873827 54.409065 
L 396.135171 54.968384 
L 396.657861 54.409065 
L 396.657861 54.129406 
L 396.135171 54.409065 
L 396.135171 54.968384 
L 396.396516 55.248043 
L 396.657861 55.248043 
L 396.396516 55.248043 
L 396.135171 54.968384 
L 396.396516 54.688725 
L 396.919205 54.688725 
L 396.919205 55.809449 
L 396.919205 55.52979 
L 396.657861 55.248043 
L 396.919205 54.968384 
L 397.18055 54.968384 
L 397.441894 55.248043 
L 397.703239 55.248043 
L 397.703239 55.248043 
L 397.703239 55.52979 
L 397.441894 55.52979 
L 396.657861 55.248043 
L 396.396516 54.968384 
L 396.657861 54.688725 
L 397.18055 54.688725 
L 397.441894 55.52979 
L 396.919205 55.809449 
L 396.657861 55.52979 
L 396.657861 54.968384 
L 396.919205 54.409065 
L 397.18055 54.129406 
L 397.441894 54.409065 
L 397.18055 54.968384 
L 396.657861 55.52979 
L 396.657861 55.809449 
L 396.919205 55.809449 
L 397.18055 55.52979 
L 396.919205 55.248043 
L 396.657861 55.248043 
L 397.18055 55.248043 
L 397.18055 54.968384 
L 397.18055 55.52979 
L 397.441894 56.368768 
L 397.18055 56.648428 
L 396.657861 56.368768 
L 396.657861 55.52979 
L 396.919205 55.52979 
L 397.18055 55.809449 
L 396.919205 56.368768 
L 396.919205 56.368768 
L 397.18055 56.089109 
L 397.703239 56.368768 
L 397.964584 56.648428 
L 397.703239 56.648428 
L 396.396516 56.089109 
L 396.396516 56.089109 
L 396.396516 55.809449 
L 397.441894 55.809449 
L 397.703239 56.089109 
L 397.703239 56.089109 
L 397.18055 56.089109 
L 397.18055 55.809449 
L 397.441894 55.52979 
L 397.703239 54.968384 
L 397.703239 55.248043 
L 397.441894 55.809449 
L 397.18055 55.809449 
L 397.18055 56.089109 
L 397.703239 55.52979 
L 397.441894 55.809449 
L 397.18055 55.809449 
L 396.657861 55.52979 
L 396.396516 55.52979 
L 395.873827 55.809449 
L 395.612482 56.089109 
L 397.18055 56.089109 
L 397.964584 55.809449 
L 398.487273 55.809449 
L 398.487273 55.248043 
L 397.703239 55.248043 
L 397.441894 56.089109 
L 397.703239 56.648428 
L 398.225928 56.368768 
L 397.964584 56.089109 
L 397.703239 56.368768 
L 397.441894 56.928087 
L 397.703239 57.209833 
L 397.964584 56.928087 
L 397.703239 56.368768 
L 397.441894 56.089109 
L 397.441894 56.368768 
L 397.964584 56.648428 
L 398.487273 56.648428 
L 398.225928 56.928087 
L 397.964584 56.928087 
L 397.964584 56.928087 
L 397.964584 56.368768 
L 397.703239 56.089109 
L 397.703239 57.489493 
L 397.441894 57.769152 
L 397.18055 57.209833 
L 397.18055 57.209833 
L 397.18055 56.928087 
L 395.873827 56.089109 
L 396.135171 56.648428 
L 396.657861 56.928087 
L 396.657861 56.928087 
L 396.657861 57.209833 
L 396.919205 57.209833 
L 396.919205 57.209833 
L 397.18055 56.928087 
L 397.18055 56.648428 
L 397.441894 56.368768 
L 397.441894 56.368768 
L 397.703239 56.648428 
L 397.703239 56.089109 
L 397.18055 55.809449 
L 396.919205 55.809449 
L 396.657861 56.368768 
L 396.919205 56.368768 
L 396.657861 56.368768 
L 395.612482 55.809449 
L 395.873827 55.52979 
L 396.396516 55.809449 
L 397.441894 56.089109 
L 397.703239 56.648428 
L 397.441894 56.648428 
L 397.703239 56.368768 
L 397.441894 56.089109 
L 396.919205 56.089109 
L 396.657861 56.368768 
L 396.657861 57.209833 
L 396.919205 57.209833 
L 397.18055 56.928087 
L 397.18055 56.089109 
L 397.18055 56.368768 
L 397.441894 56.368768 
L 397.441894 56.648428 
L 397.18055 56.648428 
L 397.703239 56.648428 
L 397.964584 56.928087 
L 397.964584 58.328471 
L 397.441894 58.60813 
L 397.18055 58.048812 
L 397.964584 56.648428 
L 397.18055 55.809449 
L 397.441894 56.368768 
L 397.703239 57.209833 
L 397.703239 57.769152 
L 397.964584 57.769152 
L 396.919205 57.209833 
L 396.396516 57.209833 
L 396.396516 57.489493 
L 396.919205 57.489493 
L 396.919205 57.489493 
L 397.18055 57.209833 
L 397.18055 57.209833 
L 397.18055 58.048812 
L 395.873827 58.048812 
L 394.567104 58.328471 
L 387.772145 63.088942 
L 384.632935 64.768986 
L 380.712766 66.449029 
L 377.053942 68.408732 
L 369.21053 73.728522 
L 365.029016 76.24963 
L 360.586158 78.488993 
L 347.25451 86.048145 
L 343.334341 88.569254 
L 339.414172 90.808616 
L 335.752273 92.768319 
L 332.616138 94.728022 
L 329.218658 96.408065 
L 321.897935 100.609217 
L 317.716422 103.407899 
L 313.796253 105.649348 
L 310.660118 107.049732 
L 308.043598 108.729775 
L 304.907462 111.528457 
L 301.509983 114.329225 
L 297.589814 116.288928 
L 293.669645 118.52829 
L 289.485057 121.329058 
L 275.892064 130.008935 
L 271.971895 132.527957 
L 267.529037 135.049065 
L 262.037726 137.849833 
L 256.288145 140.648515 
L 246.092632 147.089029 
L 240.86574 149.889797 
L 231.192916 155.768906 
L 226.488713 158.569674 
L 221.78451 160.809036 
L 213.941098 165.569507 
L 210.804963 167.249551 
L 207.930173 168.368188 
L 205.055382 170.048232 
L 202.703281 172.289681 
L 200.873869 174.529044 
L 197.21197 177.329812 
L 195.382558 180.969558 
L 194.598524 182.649601 
L 193.553146 184.329645 
L 192.507767 185.727942 
L 191.985078 187.128326 
L 191.985078 187.969391 
L 191.201044 190.488413 
L 190.678355 192.727775 
L 190.417011 194.407819 
L 189.894321 195.528543 
L 189.110288 196.928928 
L 188.064909 198.049652 
L 187.803565 198.88863 
L 188.064909 199.729696 
L 188.064909 200.848333 
L 187.54222 201.689399 
L 187.019531 202.248717 
L 186.758186 203.089783 
L 186.235497 203.928761 
L 185.712808 204.48808 
L 185.451463 205.049486 
L 184.9257 205.888464 
L 184.40301 208.127826 
L 183.880321 208.689232 
L 183.357632 208.689232 
L 182.834943 208.968891 
L 182.050909 209.52821 
L 181.789565 210.089616 
L 182.312254 211.769659 
L 181.789565 212.888297 
L 179.960152 214.848 
L 179.698808 215.968725 
L 179.698808 216.80979 
L 179.176119 217.369109 
L 178.653429 218.208087 
L 177.608051 220.449536 
L 177.346707 221.288515 
L 177.346707 221.288515 
L 177.085362 221.288515 
L 176.039984 222.409239 
L 175.778639 223.248217 
L 176.039984 224.089283 
L 176.301328 224.368942 
L 176.301328 224.928261 
L 176.039984 225.489667 
L 175.778639 225.769326 
L 175.517294 225.769326 
L 175.25595 226.328645 
L 173.949227 228.288348 
L 173.949227 228.288348 
L 173.687882 228.568007 
L 173.426538 229.409072 
L 173.426538 231.089116 
L 173.165193 231.368775 
L 173.165193 231.648435 
L 173.426538 231.648435 
L 173.165193 232.4895 
L 173.165193 233.048819 
L 173.687882 233.608138 
L 173.687882 233.608138 
L 172.903849 233.608138 
L 172.642504 233.887797 
L 172.381159 234.449203 
L 172.119815 234.728862 
L 171.85847 235.288181 
L 171.85847 235.567841 
L 172.119815 235.567841 
L 172.119815 235.567841 
L 171.597126 236.129246 
L 171.074436 236.968225 
L 171.074436 237.52963 
L 171.335781 237.247884 
L 171.597126 237.52963 
L 171.597126 238.368609 
L 171.074436 238.927928 
L 170.551747 238.648268 
L 170.813092 238.368609 
L 171.85847 238.927928 
L 171.85847 238.927928 
L 171.597126 239.489333 
L 171.597126 240.328312 
L 171.335781 240.889717 
L 171.074436 241.169377 
L 170.813092 241.728696 
L 170.290403 241.169377 
L 170.029058 240.607971 
L 169.503294 240.607971 
L 169.24195 241.449036 
L 169.503294 242.288014 
L 169.764639 242.569761 
L 169.764639 241.449036 
L 169.764639 241.728696 
L 169.503294 241.449036 
L 169.503294 241.169377 
L 169.24195 240.889717 
L 169.24195 241.449036 
L 168.980605 241.728696 
L 168.980605 242.288014 
L 169.24195 242.569761 
L 169.24195 242.288014 
L 168.457916 242.008355 
L 168.196571 241.728696 
L 167.673882 241.728696 
L 167.673882 241.728696 
L 168.196571 241.449036 
L 168.71926 241.449036 
L 168.196571 241.449036 
L 167.935227 241.728696 
L 168.71926 241.728696 
L 168.980605 241.449036 
L 168.196571 241.449036 
L 167.673882 240.889717 
L 167.673882 240.889717 
L 167.673882 240.607971 
L 167.151193 240.607971 
L 167.412538 240.607971 
L 167.673882 240.889717 
L 167.412538 240.889717 
L 167.412538 240.607971 
L 167.935227 240.328312 
L 168.196571 240.048652 
L 167.935227 240.048652 
L 167.673882 240.607971 
L 167.412538 240.889717 
L 166.889848 240.607971 
L 166.628504 240.048652 
L 167.673882 238.927928 
L 167.673882 239.209674 
L 167.412538 238.927928 
L 166.628504 238.648268 
L 166.105815 238.648268 
L 165.583125 239.209674 
L 164.537747 240.048652 
L 163.492369 240.328312 
L 159.833544 240.328312 
L 157.220099 240.607971 
L 154.606653 241.728696 
L 152.512821 242.84942 
L 149.899376 243.968058 
L 147.024585 244.809123 
L 140.229626 247.048486 
L 136.829071 247.889551 
L 132.908903 248.728529 
L 129.511423 249.287848 
L 126.113943 250.408572 
L 122.974734 252.368275 
L 115.91843 255.169044 
L 112.259606 256.287681 
L 109.123471 257.967725 
L 106.245605 259.929515 
L 102.848126 261.889217 
L 99.189302 263.84892 
L 93.439721 265.808623 
L 91.084545 266.088283 
L 88.732443 266.649688 
L 86.903031 268.329732 
L 85.334964 270.007688 
L 84.028241 271.128413 
L 80.892106 271.687732 
L 78.801349 273.929181 
L 76.968862 274.4885 
L 75.13945 274.4885 
L 75.13945 275.047819 
L 75.400795 275.609225 
L 75.662139 276.448203 
L 75.923484 276.448203 
L 75.923484 276.168543 
L 76.446173 275.609225 
L 75.923484 276.168543 
L 76.968862 277.289268 
L 77.230207 277.848587 
L 76.968862 277.848587 
L 76.968862 277.568928 
L 77.230207 277.848587 
L 77.230207 278.128246 
L 76.968862 278.407906 
L 76.446173 278.407906 
L 76.446173 278.407906 
L 76.184829 278.689652 
L 76.184829 279.80829 
L 75.923484 280.649355 
L 75.662139 280.929015 
L 76.707518 280.929015 
L 76.446173 280.649355 
L 75.923484 281.208674 
L 75.923484 281.208674 
L 75.923484 280.369696 
L 75.923484 280.649355 
L 75.400795 281.208674 
L 75.400795 282.888717 
L 75.662139 282.888717 
L 75.662139 281.488333 
L 75.400795 281.488333 
L 74.878106 281.767993 
L 74.616761 281.767993 
L 74.878106 282.047652 
L 75.400795 283.727696 
L 75.400795 284.289101 
L 75.13945 284.84842 
L 75.400795 284.568761 
L 75.400795 283.727696 
L 75.13945 282.888717 
L 75.400795 283.168377 
L 75.662139 283.727696 
L 75.923484 284.009442 
L 75.923484 284.568761 
L 76.184829 285.12808 
L 75.923484 285.12808 
L 75.400795 284.84842 
L 75.13945 284.84842 
L 75.13945 284.84842 
L 75.13945 285.407739 
L 75.662139 285.969145 
L 75.923484 285.689486 
L 75.923484 285.689486 
L 75.662139 285.689486 
L 74.878106 286.248804 
L 74.878106 286.248804 
L 75.13945 286.528464 
L 75.13945 286.528464 
L 74.878106 286.528464 
L 74.878106 286.808123 
L 74.355416 286.808123 
L 73.832727 286.528464 
L 73.832727 286.808123 
L 74.355416 286.808123 
L 74.355416 287.087783 
L 73.832727 287.087783 
L 74.094072 286.528464 
L 75.400795 286.248804 
L 75.400795 286.528464 
L 75.662139 286.808123 
L 75.923484 287.369529 
L 75.662139 287.649188 
L 75.923484 287.369529 
L 75.923484 287.087783 
L 75.923484 287.369529 
L 75.13945 289.049573 
L 75.13945 289.608891 
L 74.878106 289.888551 
L 74.616761 289.329232 
L 74.616761 288.767826 
L 75.13945 288.208507 
L 74.878106 288.488167 
L 74.355416 288.767826 
L 74.094072 289.049573 
L 74.355416 289.049573 
L 74.878106 290.16821 
L 75.13945 289.888551 
L 75.662139 289.608891 
L 75.400795 289.329232 
L 74.616761 289.329232 
L 74.616761 289.329232 
L 75.13945 289.608891 
L 75.662139 289.608891 
L 75.400795 289.608891 
L 74.878106 289.329232 
L 74.616761 289.608891 
L 74.616761 291.288935 
L 74.878106 291.009275 
L 74.878106 290.729616 
L 74.355416 290.729616 
L 74.878106 291.288935 
L 75.923484 291.848254 
L 75.662139 292.409659 
L 75.13945 292.689319 
L 75.400795 292.968978 
L 75.400795 293.248638 
L 75.400795 293.248638 
L 74.878106 292.689319 
L 75.400795 292.409659 
L 75.923484 292.409659 
L 76.184829 292.689319 
L 75.662139 292.968978 
L 75.400795 293.248638 
L 75.13945 293.807957 
L 75.400795 293.248638 
L 75.923484 292.409659 
L 76.968862 292.968978 
L 76.184829 292.968978 
L 76.184829 293.248638 
L 76.446173 293.528297 
L 75.400795 294.089703 
L 74.878106 294.089703 
L 74.878106 294.089703 
L 75.13945 294.649022 
L 75.662139 295.208341 
L 75.400795 295.488 
L 75.13945 295.488 
L 75.13945 294.928681 
L 75.662139 294.369362 
L 75.662139 294.369362 
L 75.13945 295.488 
L 75.13945 294.928681 
L 75.400795 294.649022 
L 75.400795 294.369362 
L 75.13945 294.649022 
L 74.616761 294.649022 
L 74.878106 294.369362 
L 75.662139 294.369362 
L 76.184829 294.649022 
L 75.13945 294.089703 
L 74.878106 293.807957 
L 75.923484 294.369362 
L 79.846727 294.369362 
L 84.55093 291.568594 
L 87.164376 290.44787 
L 90.8232 289.888551 
L 95.007788 289.049573 
L 99.711991 287.087783 
L 104.677538 285.407739 
L 109.907504 284.009442 
L 122.1907 280.369696 
L 129.772768 278.969312 
L 136.567727 277.289268 
L 143.104416 275.329565 
L 155.913376 270.289435 
L 162.708335 268.047986 
L 169.503294 266.367942 
L 176.039984 264.969645 
L 181.789565 263.007855 
L 193.81449 258.52913 
L 199.302727 256.849087 
L 210.282274 254.048319 
L 215.247821 252.929681 
L 221.000477 251.808957 
L 226.750058 250.967891 
L 231.45426 249.849254 
L 243.217841 245.927761 
L 246.092632 245.088783 
L 251.061253 244.529464 
L 253.413355 243.688399 
L 255.242767 242.84942 
L 258.117557 242.288014 
L 258.117557 241.449036 
L 257.333524 241.449036 
L 256.810834 241.728696 
L 256.288145 242.288014 
L 255.765456 242.288014 
L 254.720078 242.008355 
L 253.674699 242.008355 
L 253.413355 242.288014 
L 253.15201 243.12908 
L 252.629321 243.968058 
L 251.583943 244.809123 
L 248.970497 246.209507 
L 248.970497 246.489167 
L 249.231841 246.209507 
L 249.231841 246.489167 
L 249.493186 246.489167 
L 249.754531 246.209507 
L 249.754531 245.648101 
L 248.970497 245.648101 
L 248.186463 245.927761 
L 248.709152 246.209507 
L 249.493186 246.209507 
L 249.493186 246.489167 
L 248.447808 246.489167 
L 247.141085 247.889551 
L 247.141085 247.889551 
L 247.663774 247.889551 
L 248.186463 247.607804 
L 248.447808 247.328145 
L 248.447808 247.607804 
L 247.925118 249.008188 
L 247.402429 248.728529 
L 247.141085 248.16921 
L 247.402429 247.889551 
L 247.141085 248.16921 
L 247.141085 249.008188 
L 247.402429 249.287848 
L 247.141085 249.569594 
L 246.615321 249.849254 
L 246.353976 249.849254 
L 246.615321 249.569594 
L 246.876665 249.569594 
L 246.615321 249.849254 
L 246.353976 250.408572 
L 246.615321 250.408572 
L 246.615321 250.128913 
L 246.353976 249.849254 
L 246.092632 249.849254 
L 245.831287 250.128913 
L 246.353976 250.408572 
L 246.876665 250.408572 
L 246.615321 250.688232 
L 246.092632 250.408572 
L 245.569942 250.408572 
L 245.831287 250.128913 
L 246.092632 250.408572 
L 246.092632 251.249638 
L 245.831287 251.529297 
L 245.831287 251.249638 
L 246.092632 250.688232 
L 246.353976 249.849254 
L 246.353976 249.849254 
L 245.831287 250.408572 
L 245.831287 249.287848 
L 245.569942 249.287848 
L 245.047253 250.128913 
L 245.569942 251.529297 
L 245.831287 251.529297 
L 245.831287 250.688232 
L 245.308598 250.128913 
L 245.047253 250.128913 
L 245.047253 250.688232 
L 245.569942 250.967891 
L 245.831287 251.249638 
L 245.831287 250.967891 
L 245.569942 250.408572 
L 245.308598 250.128913 
L 245.308598 250.128913 
L 245.047253 250.688232 
L 245.308598 250.128913 
L 245.308598 249.008188 
L 245.308598 249.287848 
L 244.785909 250.967891 
L 244.524564 250.688232 
L 244.524564 250.128913 
L 244.524564 250.408572 
L 244.26322 250.128913 
L 244.26322 249.849254 
L 244.524564 249.849254 
L 245.047253 250.128913 
L 245.308598 250.688232 
L 245.308598 251.249638 
L 245.047253 251.249638 
L 244.785909 250.128913 
L 244.785909 250.408572 
L 244.26322 250.688232 
L 244.001875 251.249638 
L 243.74053 250.967891 
L 244.001875 250.128913 
L 243.74053 249.849254 
L 243.479186 250.128913 
L 243.479186 250.408572 
L 244.001875 250.408572 
L 244.26322 250.128913 
L 244.26322 249.849254 
L 244.524564 250.128913 
L 244.524564 250.128913 
L 244.001875 250.408572 
L 243.74053 250.688232 
L 243.479186 250.688232 
L 243.479186 250.967891 
L 244.524564 250.408572 
L 244.26322 250.408572 
L 243.217841 251.529297 
L 243.479186 251.529297 
L 243.74053 250.967891 
L 243.479186 250.967891 
L 243.479186 252.368275 
L 243.217841 252.368275 
L 242.956497 251.808957 
L 243.479186 251.249638 
L 244.001875 251.529297 
L 244.001875 251.529297 
L 243.74053 251.249638 
L 243.74053 250.967891 
L 243.74053 251.808957 
L 243.479186 252.647935 
L 243.217841 252.647935 
L 244.001875 252.647935 
L 244.785909 251.808957 
L 244.785909 251.529297 
L 244.26322 251.529297 
L 243.74053 252.088616 
L 243.479186 253.489 
L 243.479186 253.209341 
L 243.217841 252.929681 
L 243.217841 252.647935 
L 243.217841 252.647935 
L 243.479186 252.647935 
L 243.479186 252.647935 
L 243.217841 252.368275 
L 242.695152 252.368275 
L 242.433807 252.647935 
L 242.433807 252.647935 
L 242.433807 252.368275 
L 242.433807 252.368275 
L 243.74053 252.368275 
L 244.26322 251.808957 
L 244.524564 251.808957 
L 244.26322 252.368275 
L 243.217841 252.929681 
L 242.172463 252.929681 
L 241.911118 252.647935 
L 241.911118 252.368275 
L 242.695152 252.368275 
L 242.433807 252.368275 
L 242.433807 253.489 
L 242.433807 253.209341 
L 242.172463 252.647935 
L 241.649774 252.088616 
L 241.649774 251.808957 
L 241.911118 251.529297 
L 242.433807 251.249638 
L 242.956497 251.249638 
L 243.217841 251.529297 
L 242.956497 251.808957 
L 242.695152 252.368275 
L 242.695152 252.929681 
L 242.433807 252.368275 
L 242.433807 252.088616 
L 242.695152 251.529297 
L 242.695152 251.529297 
L 242.956497 251.529297 
L 242.956497 252.368275 
L 242.433807 252.929681 
L 241.388429 253.489 
L 241.388429 252.368275 
L 241.649774 252.368275 
L 241.649774 252.368275 
L 241.649774 252.088616 
L 242.433807 252.088616 
L 242.433807 252.368275 
L 241.911118 252.088616 
L 241.388429 251.529297 
L 241.649774 251.249638 
L 241.911118 251.808957 
L 241.911118 251.808957 
L 241.911118 250.967891 
L 241.911118 251.529297 
L 241.649774 252.088616 
L 241.649774 252.368275 
L 241.911118 252.368275 
L 242.172463 252.647935 
L 242.172463 252.368275 
L 241.911118 251.808957 
L 241.388429 251.249638 
L 240.86574 251.249638 
L 241.911118 251.249638 
L 241.911118 251.249638 
L 241.649774 251.529297 
L 241.127084 252.647935 
L 241.127084 252.929681 
L 241.127084 252.088616 
L 241.388429 251.808957 
L 242.172463 251.808957 
L 241.911118 251.808957 
L 241.127084 251.529297 
L 240.343051 250.967891 
L 239.559017 250.967891 
L 239.036328 251.249638 
L 238.513639 251.249638 
L 235.377504 252.088616 
L 232.764058 252.368275 
L 231.192916 251.529297 
L 229.624848 250.408572 
L 226.750058 249.849254 
L 223.091233 250.128913 
L 219.171064 249.849254 
L 216.031855 249.287848 
L 208.975551 249.287848 
L 205.578071 248.728529 
L 202.964625 248.16921 
L 197.473314 247.607804 
L 190.9397 247.048486 
L 188.587598 246.209507 
L 186.758186 245.368442 
L 182.050909 244.809123 
L 176.562673 244.247717 
L 173.687882 242.288014 
L 171.85847 241.449036 
L 168.196571 240.328312 
L 166.889848 239.489333 
L 166.105815 238.088949 
L 165.583125 236.688565 
L 165.321781 235.567841 
L 164.799092 235.008522 
L 164.015058 234.728862 
L 163.231024 233.887797 
L 162.185646 232.4895 
L 161.924301 230.809457 
L 161.401612 229.409072 
L 160.617578 229.129413 
L 160.094889 229.129413 
L 159.833544 228.849754 
L 160.094889 228.008688 
L 159.833544 227.44937 
L 159.310855 227.44937 
L 159.049511 227.729029 
L 159.049511 227.729029 
L 159.049511 228.008688 
L 159.310855 228.568007 
L 159.310855 229.409072 
L 160.094889 228.568007 
L 160.356234 228.568007 
L 160.356234 228.849754 
L 159.310855 229.409072 
L 158.788166 229.968391 
L 159.310855 229.968391 
L 159.310855 229.968391 
L 159.310855 229.688732 
L 159.049511 229.409072 
L 159.049511 229.688732 
L 158.788166 229.968391 
L 158.004132 230.248051 
L 157.481443 229.968391 
L 157.481443 229.129413 
L 157.220099 228.568007 
L 156.958754 228.288348 
L 156.17472 228.288348 
L 156.697409 228.288348 
L 157.742788 228.849754 
L 157.481443 228.849754 
L 157.220099 228.288348 
L 156.697409 228.008688 
L 156.697409 228.008688 
L 156.958754 228.008688 
L 156.958754 228.288348 
L 156.697409 228.568007 
L 156.17472 228.849754 
L 155.913376 228.568007 
L 155.913376 228.008688 
L 156.17472 227.729029 
L 157.220099 227.16971 
L 156.958754 227.16971 
L 156.436065 227.44937 
L 155.913376 227.44937 
L 155.652031 228.008688 
L 155.390686 228.008688 
L 155.390686 228.008688 
L 155.390686 227.729029 
L 155.390686 228.288348 
L 155.652031 227.729029 
L 155.390686 227.44937 
L 155.129342 227.44937 
L 155.129342 227.44937 
L 155.129342 226.887964 
L 155.129342 226.887964 
L 155.390686 227.16971 
L 155.390686 227.44937 
L 155.390686 227.44937 
L 155.652031 227.16971 
L 155.652031 226.887964 
L 155.390686 226.608304 
L 154.867997 226.887964 
L 154.867997 227.44937 
L 155.129342 227.44937 
L 154.867997 227.44937 
L 154.867997 227.16971 
L 154.606653 226.887964 
L 154.342234 226.887964 
L 154.342234 226.887964 
L 154.080889 227.16971 
L 153.5582 226.887964 
L 153.296855 226.328645 
L 153.5582 226.328645 
L 153.819544 226.887964 
L 153.819544 228.008688 
L 154.342234 227.729029 
L 154.867997 227.16971 
L 155.129342 227.16971 
L 155.129342 227.16971 
L 154.867997 226.608304 
L 155.129342 226.328645 
L 155.652031 226.608304 
L 155.652031 227.44937 
L 155.390686 227.729029 
L 155.913376 227.729029 
L 155.913376 228.008688 
L 155.390686 227.729029 
L 155.129342 226.887964 
L 154.606653 226.887964 
L 154.342234 227.44937 
L 154.867997 228.008688 
L 155.129342 227.729029 
L 155.390686 227.16971 
L 155.390686 226.608304 
L 155.129342 226.887964 
L 155.390686 228.008688 
L 155.129342 227.16971 
L 154.867997 226.887964 
L 155.129342 227.16971 
L 155.652031 227.16971 
L 155.652031 227.16971 
L 155.129342 227.44937 
L 154.867997 228.008688 
L 154.606653 228.008688 
L 154.867997 227.44937 
L 155.129342 226.608304 
L 154.867997 227.44937 
L 154.342234 227.16971 
L 154.342234 227.16971 
L 154.606653 227.44937 
L 154.606653 227.729029 
L 154.342234 228.008688 
L 154.342234 227.729029 
L 154.606653 227.44937 
L 155.129342 227.16971 
L 155.913376 228.008688 
L 154.867997 225.769326 
L 155.129342 226.048986 
L 154.606653 227.16971 
L 154.342234 227.44937 
L 154.080889 226.887964 
L 154.080889 226.608304 
L 154.606653 226.608304 
L 154.867997 226.887964 
L 154.867997 226.887964 
L 154.867997 226.608304 
L 155.129342 226.328645 
L 155.129342 226.048986 
L 155.129342 226.328645 
L 154.867997 226.328645 
L 154.867997 226.608304 
L 155.129342 226.328645 
L 155.652031 226.048986 
L 155.652031 226.048986 
L 155.129342 226.048986 
L 155.129342 226.328645 
L 155.390686 226.048986 
L 155.652031 226.048986 
L 155.390686 226.048986 
L 154.606653 226.608304 
L 154.342234 226.608304 
L 155.129342 226.328645 
L 155.913376 225.769326 
L 155.390686 225.489667 
L 154.867997 225.489667 
L 154.867997 225.20792 
L 155.129342 224.928261 
L 155.652031 224.648601 
L 155.652031 224.928261 
L 155.129342 225.20792 
L 154.606653 224.928261 
L 154.342234 224.368942 
L 154.080889 223.248217 
L 153.296855 222.12958 
L 152.774166 220.729196 
L 151.990132 219.328812 
L 151.206098 217.648768 
L 150.422065 212.328978 
L 151.206098 204.767739 
L 151.206098 200.009355 
L 151.990132 192.727775 
L 153.5582 187.407986 
L 154.080889 184.888964 
L 154.606653 180.687812 
L 154.606653 179.289515 
L 155.129342 176.488746 
L 155.652031 175.368022 
L 156.436065 173.969725 
L 157.220099 172.289681 
L 157.742788 170.889297 
L 158.004132 167.249551 
L 157.742788 167.249551 
L 158.004132 166.967804 
L 157.742788 166.688145 
L 157.742788 166.128826 
L 157.481443 165.849167 
L 157.481443 166.408486 
L 157.220099 167.52921 
L 156.958754 168.088529 
L 156.436065 168.368188 
L 155.913376 167.80887 
L 155.652031 168.088529 
L 154.606653 170.327891 
L 154.606653 170.327891 
L 154.606653 170.609638 
L 154.080889 170.327891 
L 153.035511 170.327891 
L 153.296855 170.327891 
L 153.035511 169.768572 
L 152.774166 169.488913 
L 153.035511 169.209254 
L 153.035511 169.209254 
L 152.512821 169.488913 
L 151.990132 169.488913 
L 151.728788 169.209254 
L 151.728788 168.647848 
L 151.728788 168.647848 
L 151.467443 168.929594 
L 151.206098 168.929594 
L 150.683409 168.647848 
L 149.899376 168.088529 
L 149.376686 167.52921 
L 149.376686 167.80887 
L 149.899376 168.647848 
L 149.899376 169.209254 
L 149.376686 168.929594 
L 149.376686 168.647848 
L 149.899376 168.368188 
L 150.16072 168.368188 
L 150.16072 168.368188 
L 150.16072 168.088529 
L 150.16072 168.088529 
L 150.422065 168.647848 
L 150.422065 168.647848 
L 149.899376 168.088529 
L 149.376686 168.088529 
L 149.376686 168.647848 
L 149.115342 168.647848 
L 149.376686 168.368188 
L 149.376686 168.368188 
L 149.115342 168.088529 
L 148.853997 168.088529 
L 148.331308 167.80887 
L 148.069963 167.249551 
L 148.331308 166.967804 
L 148.853997 167.249551 
L 148.592653 167.80887 
L 148.069963 168.088529 
L 148.069963 168.088529 
L 148.331308 167.80887 
L 148.331308 167.52921 
L 148.069963 167.80887 
L 148.069963 167.80887 
" style="fill:none;stroke:#1f77b4;stroke-linecap:square;stroke-width:1.5;"/>
   </g>
   <g id="matplotlib.axis_1">
    <g id="xtick_1">
     <g id="line2d_2">
      <defs>
       <path d="M 0 0 
L 0 3.5 
" id="md4ac6969a5" style="stroke:#000000;stroke-width:0.8;"/>
      </defs>
      <g>
       <use style="stroke:#000000;stroke-width:0.8;" x="61.989205" xlink:href="#md4ac6969a5" y="307.584"/>
      </g>
     </g>
     <g id="text_1">
      <!-- −400 -->
      <defs>
       <path d="M 10.59375 35.5 
L 73.1875 35.5 
L 73.1875 27.203125 
L 10.59375 27.203125 
z
" id="DejaVuSans-8722"/>
       <path d="M 37.796875 64.3125 
L 12.890625 25.390625 
L 37.796875 25.390625 
z
M 35.203125 72.90625 
L 47.609375 72.90625 
L 47.609375 25.390625 
L 58.015625 25.390625 
L 58.015625 17.1875 
L 47.609375 17.1875 
L 47.609375 0 
L 37.796875 0 
L 37.796875 17.1875 
L 4.890625 17.1875 
L 4.890625 26.703125 
z
" id="DejaVuSans-52"/>
       <path d="M 31.78125 66.40625 
Q 24.171875 66.40625 20.328125 58.90625 
Q 16.5 51.421875 16.5 36.375 
Q 16.5 21.390625 20.328125 13.890625 
Q 24.171875 6.390625 31.78125 6.390625 
Q 39.453125 6.390625 43.28125 13.890625 
Q 47.125 21.390625 47.125 36.375 
Q 47.125 51.421875 43.28125 58.90625 
Q 39.453125 66.40625 31.78125 66.40625 
z
M 31.78125 74.21875 
Q 44.046875 74.21875 50.515625 64.515625 
Q 56.984375 54.828125 56.984375 36.375 
Q 56.984375 17.96875 50.515625 8.265625 
Q 44.046875 -1.421875 31.78125 -1.421875 
Q 19.53125 -1.421875 13.0625 8.265625 
Q 6.59375 17.96875 6.59375 36.375 
Q 6.59375 54.828125 13.0625 64.515625 
Q 19.53125 74.21875 31.78125 74.21875 
z
" id="DejaVuSans-48"/>
      </defs>
      <g transform="translate(48.255612 322.182437)scale(0.1 -0.1)">
       <use xlink:href="#DejaVuSans-8722"/>
       <use x="83.789062" xlink:href="#DejaVuSans-52"/>
       <use x="147.412109" xlink:href="#DejaVuSans-48"/>
       <use x="211.035156" xlink:href="#DejaVuSans-48"/>
      </g>
     </g>
    </g>
    <g id="xtick_2">
     <g id="line2d_3">
      <g>
       <use style="stroke:#000000;stroke-width:0.8;" x="123.48205" xlink:href="#md4ac6969a5" y="307.584"/>
      </g>
     </g>
     <g id="text_2">
      <!-- −200 -->
      <defs>
       <path d="M 19.1875 8.296875 
L 53.609375 8.296875 
L 53.609375 0 
L 7.328125 0 
L 7.328125 8.296875 
Q 12.9375 14.109375 22.625 23.890625 
Q 32.328125 33.6875 34.8125 36.53125 
Q 39.546875 41.84375 41.421875 45.53125 
Q 43.3125 49.21875 43.3125 52.78125 
Q 43.3125 58.59375 39.234375 62.25 
Q 35.15625 65.921875 28.609375 65.921875 
Q 23.96875 65.921875 18.8125 64.3125 
Q 13.671875 62.703125 7.8125 59.421875 
L 7.8125 69.390625 
Q 13.765625 71.78125 18.9375 73 
Q 24.125 74.21875 28.421875 74.21875 
Q 39.75 74.21875 46.484375 68.546875 
Q 53.21875 62.890625 53.21875 53.421875 
Q 53.21875 48.921875 51.53125 44.890625 
Q 49.859375 40.875 45.40625 35.40625 
Q 44.1875 33.984375 37.640625 27.21875 
Q 31.109375 20.453125 19.1875 8.296875 
z
" id="DejaVuSans-50"/>
      </defs>
      <g transform="translate(109.748456 322.182437)scale(0.1 -0.1)">
       <use xlink:href="#DejaVuSans-8722"/>
       <use x="83.789062" xlink:href="#DejaVuSans-50"/>
       <use x="147.412109" xlink:href="#DejaVuSans-48"/>
       <use x="211.035156" xlink:href="#DejaVuSans-48"/>
      </g>
     </g>
    </g>
    <g id="xtick_3">
     <g id="line2d_4">
      <g>
       <use style="stroke:#000000;stroke-width:0.8;" x="184.974894" xlink:href="#md4ac6969a5" y="307.584"/>
      </g>
     </g>
     <g id="text_3">
      <!-- 0 -->
      <g transform="translate(181.793644 322.182437)scale(0.1 -0.1)">
       <use xlink:href="#DejaVuSans-48"/>
      </g>
     </g>
    </g>
    <g id="xtick_4">
     <g id="line2d_5">
      <g>
       <use style="stroke:#000000;stroke-width:0.8;" x="246.467738" xlink:href="#md4ac6969a5" y="307.584"/>
      </g>
     </g>
     <g id="text_4">
      <!-- 200 -->
      <g transform="translate(236.923988 322.182437)scale(0.1 -0.1)">
       <use xlink:href="#DejaVuSans-50"/>
       <use x="63.623047" xlink:href="#DejaVuSans-48"/>
       <use x="127.246094" xlink:href="#DejaVuSans-48"/>
      </g>
     </g>
    </g>
    <g id="xtick_5">
     <g id="line2d_6">
      <g>
       <use style="stroke:#000000;stroke-width:0.8;" x="307.960582" xlink:href="#md4ac6969a5" y="307.584"/>
      </g>
     </g>
     <g id="text_5">
      <!-- 400 -->
      <g transform="translate(298.416832 322.182437)scale(0.1 -0.1)">
       <use xlink:href="#DejaVuSans-52"/>
       <use x="63.623047" xlink:href="#DejaVuSans-48"/>
       <use x="127.246094" xlink:href="#DejaVuSans-48"/>
      </g>
     </g>
    </g>
    <g id="xtick_6">
     <g id="line2d_7">
      <g>
       <use style="stroke:#000000;stroke-width:0.8;" x="369.453426" xlink:href="#md4ac6969a5" y="307.584"/>
      </g>
     </g>
     <g id="text_6">
      <!-- 600 -->
      <defs>
       <path d="M 33.015625 40.375 
Q 26.375 40.375 22.484375 35.828125 
Q 18.609375 31.296875 18.609375 23.390625 
Q 18.609375 15.53125 22.484375 10.953125 
Q 26.375 6.390625 33.015625 6.390625 
Q 39.65625 6.390625 43.53125 10.953125 
Q 47.40625 15.53125 47.40625 23.390625 
Q 47.40625 31.296875 43.53125 35.828125 
Q 39.65625 40.375 33.015625 40.375 
z
M 52.59375 71.296875 
L 52.59375 62.3125 
Q 48.875 64.0625 45.09375 64.984375 
Q 41.3125 65.921875 37.59375 65.921875 
Q 27.828125 65.921875 22.671875 59.328125 
Q 17.53125 52.734375 16.796875 39.40625 
Q 19.671875 43.65625 24.015625 45.921875 
Q 28.375 48.1875 33.59375 48.1875 
Q 44.578125 48.1875 50.953125 41.515625 
Q 57.328125 34.859375 57.328125 23.390625 
Q 57.328125 12.15625 50.6875 5.359375 
Q 44.046875 -1.421875 33.015625 -1.421875 
Q 20.359375 -1.421875 13.671875 8.265625 
Q 6.984375 17.96875 6.984375 36.375 
Q 6.984375 53.65625 15.1875 63.9375 
Q 23.390625 74.21875 37.203125 74.21875 
Q 40.921875 74.21875 44.703125 73.484375 
Q 48.484375 72.75 52.59375 71.296875 
z
" id="DejaVuSans-54"/>
      </defs>
      <g transform="translate(359.909676 322.182437)scale(0.1 -0.1)">
       <use xlink:href="#DejaVuSans-54"/>
       <use x="63.623047" xlink:href="#DejaVuSans-48"/>
       <use x="127.246094" xlink:href="#DejaVuSans-48"/>
      </g>
     </g>
    </g>
   </g>
   <g id="matplotlib.axis_2">
    <g id="ytick_1">
     <g id="line2d_8">
      <defs>
       <path d="M 0 0 
L -3.5 0 
" id="me6a9f05b2b" style="stroke:#000000;stroke-width:0.8;"/>
      </defs>
      <g>
       <use style="stroke:#000000;stroke-width:0.8;" x="57.6" xlink:href="#me6a9f05b2b" y="305.033986"/>
      </g>
     </g>
     <g id="text_7">
      <!-- −600 -->
      <g transform="translate(23.132812 308.833205)scale(0.1 -0.1)">
       <use xlink:href="#DejaVuSans-8722"/>
       <use x="83.789062" xlink:href="#DejaVuSans-54"/>
       <use x="147.412109" xlink:href="#DejaVuSans-48"/>
       <use x="211.035156" xlink:href="#DejaVuSans-48"/>
      </g>
     </g>
    </g>
    <g id="ytick_2">
     <g id="line2d_9">
      <g>
       <use style="stroke:#000000;stroke-width:0.8;" x="57.6" xlink:href="#me6a9f05b2b" y="263.293776"/>
      </g>
     </g>
     <g id="text_8">
      <!-- −400 -->
      <g transform="translate(23.132812 267.092994)scale(0.1 -0.1)">
       <use xlink:href="#DejaVuSans-8722"/>
       <use x="83.789062" xlink:href="#DejaVuSans-52"/>
       <use x="147.412109" xlink:href="#DejaVuSans-48"/>
       <use x="211.035156" xlink:href="#DejaVuSans-48"/>
      </g>
     </g>
    </g>
    <g id="ytick_3">
     <g id="line2d_10">
      <g>
       <use style="stroke:#000000;stroke-width:0.8;" x="57.6" xlink:href="#me6a9f05b2b" y="221.553565"/>
      </g>
     </g>
     <g id="text_9">
      <!-- −200 -->
      <g transform="translate(23.132812 225.352784)scale(0.1 -0.1)">
       <use xlink:href="#DejaVuSans-8722"/>
       <use x="83.789062" xlink:href="#DejaVuSans-50"/>
       <use x="147.412109" xlink:href="#DejaVuSans-48"/>
       <use x="211.035156" xlink:href="#DejaVuSans-48"/>
      </g>
     </g>
    </g>
    <g id="ytick_4">
     <g id="line2d_11">
      <g>
       <use style="stroke:#000000;stroke-width:0.8;" x="57.6" xlink:href="#me6a9f05b2b" y="179.813354"/>
      </g>
     </g>
     <g id="text_10">
      <!-- 0 -->
      <g transform="translate(44.2375 183.612573)scale(0.1 -0.1)">
       <use xlink:href="#DejaVuSans-48"/>
      </g>
     </g>
    </g>
    <g id="ytick_5">
     <g id="line2d_12">
      <g>
       <use style="stroke:#000000;stroke-width:0.8;" x="57.6" xlink:href="#me6a9f05b2b" y="138.073144"/>
      </g>
     </g>
     <g id="text_11">
      <!-- 200 -->
      <g transform="translate(31.5125 141.872362)scale(0.1 -0.1)">
       <use xlink:href="#DejaVuSans-50"/>
       <use x="63.623047" xlink:href="#DejaVuSans-48"/>
       <use x="127.246094" xlink:href="#DejaVuSans-48"/>
      </g>
     </g>
    </g>
    <g id="ytick_6">
     <g id="line2d_13">
      <g>
       <use style="stroke:#000000;stroke-width:0.8;" x="57.6" xlink:href="#me6a9f05b2b" y="96.332933"/>
      </g>
     </g>
     <g id="text_12">
      <!-- 400 -->
      <g transform="translate(31.5125 100.132152)scale(0.1 -0.1)">
       <use xlink:href="#DejaVuSans-52"/>
       <use x="63.623047" xlink:href="#DejaVuSans-48"/>
       <use x="127.246094" xlink:href="#DejaVuSans-48"/>
      </g>
     </g>
    </g>
    <g id="ytick_7">
     <g id="line2d_14">
      <g>
       <use style="stroke:#000000;stroke-width:0.8;" x="57.6" xlink:href="#me6a9f05b2b" y="54.592722"/>
      </g>
     </g>
     <g id="text_13">
      <!-- 600 -->
      <g transform="translate(31.5125 58.391941)scale(0.1 -0.1)">
       <use xlink:href="#DejaVuSans-54"/>
       <use x="63.623047" xlink:href="#DejaVuSans-48"/>
       <use x="127.246094" xlink:href="#DejaVuSans-48"/>
      </g>
     </g>
    </g>
   </g>
   <g id="line2d_15">
    <path clip-path="url(#p24923693b4)" d="M 395.622248 56.757296 
L 174.555712 228.977992 
L 77.608302 281.75892 
L 241.869969 250.291771 
L 156.933736 227.58091 
" style="fill:none;stroke:#ff0000;stroke-linecap:square;stroke-width:0.5;"/>
   </g>
   <g id="patch_3">
    <path d="M 57.6 307.584 
L 57.6 41.472 
" style="fill:none;stroke:#000000;stroke-linecap:square;stroke-linejoin:miter;stroke-width:0.8;"/>
   </g>
   <g id="patch_4">
    <path d="M 414.72 307.584 
L 414.72 41.472 
" style="fill:none;stroke:#000000;stroke-linecap:square;stroke-linejoin:miter;stroke-width:0.8;"/>
   </g>
   <g id="patch_5">
    <path d="M 57.6 307.584 
L 414.72 307.584 
" style="fill:none;stroke:#000000;stroke-linecap:square;stroke-linejoin:miter;stroke-width:0.8;"/>
   </g>
   <g id="patch_6">
    <path d="M 57.6 41.472 
L 414.72 41.472 
" style="fill:none;stroke:#000000;stroke-linecap:square;stroke-linejoin:miter;stroke-width:0.8;"/>
   </g>
   <g id="PathCollection_1">
    <defs>
     <path d="M 0 2.738613 
C 0.726289 2.738613 1.422928 2.450055 1.936492 1.936492 
C 2.450055 1.422928 2.738613 0.726289 2.738613 0 
C 2.738613 -0.726289 2.450055 -1.422928 1.936492 -1.936492 
C 1.422928 -2.450055 0.726289 -2.738613 0 -2.738613 
C -0.726289 -2.738613 -1.422928 -2.450055 -1.936492 -1.936492 
C -2.450055 -1.422928 -2.738613 -0.726289 -2.738613 0 
C -2.738613 0.726289 -2.450055 1.422928 -1.936492 1.936492 
C -1.422928 2.450055 -0.726289 2.738613 0 2.738613 
z
" id="m47b6c89a2f" style="stroke:#ff0000;"/>
    </defs>
    <g clip-path="url(#p24923693b4)">
     <use style="fill:#ff0000;stroke:#ff0000;" x="395.622248" xlink:href="#m47b6c89a2f" y="56.757296"/>
     <use style="fill:#ff0000;stroke:#ff0000;" x="174.555712" xlink:href="#m47b6c89a2f" y="228.977992"/>
     <use style="fill:#ff0000;stroke:#ff0000;" x="77.608302" xlink:href="#m47b6c89a2f" y="281.75892"/>
     <use style="fill:#ff0000;stroke:#ff0000;" x="241.869969" xlink:href="#m47b6c89a2f" y="250.291771"/>
     <use style="fill:#ff0000;stroke:#ff0000;" x="156.933736" xlink:href="#m47b6c89a2f" y="227.58091"/>
    </g>
   </g>
   <g id="text_14">
    <!-- (54) Subject: s3, Known = False, Degree = 2, Duration = 0.1 -->
    <defs>
     <path d="M 31 75.875 
Q 24.46875 64.65625 21.28125 53.65625 
Q 18.109375 42.671875 18.109375 31.390625 
Q 18.109375 20.125 21.3125 9.0625 
Q 24.515625 -2 31 -13.1875 
L 23.1875 -13.1875 
Q 15.875 -1.703125 12.234375 9.375 
Q 8.59375 20.453125 8.59375 31.390625 
Q 8.59375 42.28125 12.203125 53.3125 
Q 15.828125 64.359375 23.1875 75.875 
z
" id="DejaVuSans-40"/>
     <path d="M 10.796875 72.90625 
L 49.515625 72.90625 
L 49.515625 64.59375 
L 19.828125 64.59375 
L 19.828125 46.734375 
Q 21.96875 47.46875 24.109375 47.828125 
Q 26.265625 48.1875 28.421875 48.1875 
Q 40.625 48.1875 47.75 41.5 
Q 54.890625 34.8125 54.890625 23.390625 
Q 54.890625 11.625 47.5625 5.09375 
Q 40.234375 -1.421875 26.90625 -1.421875 
Q 22.3125 -1.421875 17.546875 -0.640625 
Q 12.796875 0.140625 7.71875 1.703125 
L 7.71875 11.625 
Q 12.109375 9.234375 16.796875 8.0625 
Q 21.484375 6.890625 26.703125 6.890625 
Q 35.15625 6.890625 40.078125 11.328125 
Q 45.015625 15.765625 45.015625 23.390625 
Q 45.015625 31 40.078125 35.4375 
Q 35.15625 39.890625 26.703125 39.890625 
Q 22.75 39.890625 18.8125 39.015625 
Q 14.890625 38.140625 10.796875 36.28125 
z
" id="DejaVuSans-53"/>
     <path d="M 8.015625 75.875 
L 15.828125 75.875 
Q 23.140625 64.359375 26.78125 53.3125 
Q 30.421875 42.28125 30.421875 31.390625 
Q 30.421875 20.453125 26.78125 9.375 
Q 23.140625 -1.703125 15.828125 -13.1875 
L 8.015625 -13.1875 
Q 14.5 -2 17.703125 9.0625 
Q 20.90625 20.125 20.90625 31.390625 
Q 20.90625 42.671875 17.703125 53.65625 
Q 14.5 64.65625 8.015625 75.875 
z
" id="DejaVuSans-41"/>
     <path id="DejaVuSans-32"/>
     <path d="M 53.515625 70.515625 
L 53.515625 60.890625 
Q 47.90625 63.578125 42.921875 64.890625 
Q 37.9375 66.21875 33.296875 66.21875 
Q 25.25 66.21875 20.875 63.09375 
Q 16.5 59.96875 16.5 54.203125 
Q 16.5 49.359375 19.40625 46.890625 
Q 22.3125 44.4375 30.421875 42.921875 
L 36.375 41.703125 
Q 47.40625 39.59375 52.65625 34.296875 
Q 57.90625 29 57.90625 20.125 
Q 57.90625 9.515625 50.796875 4.046875 
Q 43.703125 -1.421875 29.984375 -1.421875 
Q 24.8125 -1.421875 18.96875 -0.25 
Q 13.140625 0.921875 6.890625 3.21875 
L 6.890625 13.375 
Q 12.890625 10.015625 18.65625 8.296875 
Q 24.421875 6.59375 29.984375 6.59375 
Q 38.421875 6.59375 43.015625 9.90625 
Q 47.609375 13.234375 47.609375 19.390625 
Q 47.609375 24.75 44.3125 27.78125 
Q 41.015625 30.8125 33.5 32.328125 
L 27.484375 33.5 
Q 16.453125 35.6875 11.515625 40.375 
Q 6.59375 45.0625 6.59375 53.421875 
Q 6.59375 63.09375 13.40625 68.65625 
Q 20.21875 74.21875 32.171875 74.21875 
Q 37.3125 74.21875 42.625 73.28125 
Q 47.953125 72.359375 53.515625 70.515625 
z
" id="DejaVuSans-83"/>
     <path d="M 8.5 21.578125 
L 8.5 54.6875 
L 17.484375 54.6875 
L 17.484375 21.921875 
Q 17.484375 14.15625 20.5 10.265625 
Q 23.53125 6.390625 29.59375 6.390625 
Q 36.859375 6.390625 41.078125 11.03125 
Q 45.3125 15.671875 45.3125 23.6875 
L 45.3125 54.6875 
L 54.296875 54.6875 
L 54.296875 0 
L 45.3125 0 
L 45.3125 8.40625 
Q 42.046875 3.421875 37.71875 1 
Q 33.40625 -1.421875 27.6875 -1.421875 
Q 18.265625 -1.421875 13.375 4.4375 
Q 8.5 10.296875 8.5 21.578125 
z
M 31.109375 56 
z
" id="DejaVuSans-117"/>
     <path d="M 48.6875 27.296875 
Q 48.6875 37.203125 44.609375 42.84375 
Q 40.53125 48.484375 33.40625 48.484375 
Q 26.265625 48.484375 22.1875 42.84375 
Q 18.109375 37.203125 18.109375 27.296875 
Q 18.109375 17.390625 22.1875 11.75 
Q 26.265625 6.109375 33.40625 6.109375 
Q 40.53125 6.109375 44.609375 11.75 
Q 48.6875 17.390625 48.6875 27.296875 
z
M 18.109375 46.390625 
Q 20.953125 51.265625 25.265625 53.625 
Q 29.59375 56 35.59375 56 
Q 45.5625 56 51.78125 48.09375 
Q 58.015625 40.1875 58.015625 27.296875 
Q 58.015625 14.40625 51.78125 6.484375 
Q 45.5625 -1.421875 35.59375 -1.421875 
Q 29.59375 -1.421875 25.265625 0.953125 
Q 20.953125 3.328125 18.109375 8.203125 
L 18.109375 0 
L 9.078125 0 
L 9.078125 75.984375 
L 18.109375 75.984375 
z
" id="DejaVuSans-98"/>
     <path d="M 9.421875 54.6875 
L 18.40625 54.6875 
L 18.40625 -0.984375 
Q 18.40625 -11.421875 14.421875 -16.109375 
Q 10.453125 -20.796875 1.609375 -20.796875 
L -1.8125 -20.796875 
L -1.8125 -13.1875 
L 0.59375 -13.1875 
Q 5.71875 -13.1875 7.5625 -10.8125 
Q 9.421875 -8.453125 9.421875 -0.984375 
z
M 9.421875 75.984375 
L 18.40625 75.984375 
L 18.40625 64.59375 
L 9.421875 64.59375 
z
" id="DejaVuSans-106"/>
     <path d="M 56.203125 29.59375 
L 56.203125 25.203125 
L 14.890625 25.203125 
Q 15.484375 15.921875 20.484375 11.0625 
Q 25.484375 6.203125 34.421875 6.203125 
Q 39.59375 6.203125 44.453125 7.46875 
Q 49.3125 8.734375 54.109375 11.28125 
L 54.109375 2.78125 
Q 49.265625 0.734375 44.1875 -0.34375 
Q 39.109375 -1.421875 33.890625 -1.421875 
Q 20.796875 -1.421875 13.15625 6.1875 
Q 5.515625 13.8125 5.515625 26.8125 
Q 5.515625 40.234375 12.765625 48.109375 
Q 20.015625 56 32.328125 56 
Q 43.359375 56 49.78125 48.890625 
Q 56.203125 41.796875 56.203125 29.59375 
z
M 47.21875 32.234375 
Q 47.125 39.59375 43.09375 43.984375 
Q 39.0625 48.390625 32.421875 48.390625 
Q 24.90625 48.390625 20.390625 44.140625 
Q 15.875 39.890625 15.1875 32.171875 
z
" id="DejaVuSans-101"/>
     <path d="M 48.78125 52.59375 
L 48.78125 44.1875 
Q 44.96875 46.296875 41.140625 47.34375 
Q 37.3125 48.390625 33.40625 48.390625 
Q 24.65625 48.390625 19.8125 42.84375 
Q 14.984375 37.3125 14.984375 27.296875 
Q 14.984375 17.28125 19.8125 11.734375 
Q 24.65625 6.203125 33.40625 6.203125 
Q 37.3125 6.203125 41.140625 7.25 
Q 44.96875 8.296875 48.78125 10.40625 
L 48.78125 2.09375 
Q 45.015625 0.34375 40.984375 -0.53125 
Q 36.96875 -1.421875 32.421875 -1.421875 
Q 20.0625 -1.421875 12.78125 6.34375 
Q 5.515625 14.109375 5.515625 27.296875 
Q 5.515625 40.671875 12.859375 48.328125 
Q 20.21875 56 33.015625 56 
Q 37.15625 56 41.109375 55.140625 
Q 45.0625 54.296875 48.78125 52.59375 
z
" id="DejaVuSans-99"/>
     <path d="M 18.3125 70.21875 
L 18.3125 54.6875 
L 36.8125 54.6875 
L 36.8125 47.703125 
L 18.3125 47.703125 
L 18.3125 18.015625 
Q 18.3125 11.328125 20.140625 9.421875 
Q 21.96875 7.515625 27.59375 7.515625 
L 36.8125 7.515625 
L 36.8125 0 
L 27.59375 0 
Q 17.1875 0 13.234375 3.875 
Q 9.28125 7.765625 9.28125 18.015625 
L 9.28125 47.703125 
L 2.6875 47.703125 
L 2.6875 54.6875 
L 9.28125 54.6875 
L 9.28125 70.21875 
z
" id="DejaVuSans-116"/>
     <path d="M 11.71875 12.40625 
L 22.015625 12.40625 
L 22.015625 0 
L 11.71875 0 
z
M 11.71875 51.703125 
L 22.015625 51.703125 
L 22.015625 39.3125 
L 11.71875 39.3125 
z
" id="DejaVuSans-58"/>
     <path d="M 44.28125 53.078125 
L 44.28125 44.578125 
Q 40.484375 46.53125 36.375 47.5 
Q 32.28125 48.484375 27.875 48.484375 
Q 21.1875 48.484375 17.84375 46.4375 
Q 14.5 44.390625 14.5 40.28125 
Q 14.5 37.15625 16.890625 35.375 
Q 19.28125 33.59375 26.515625 31.984375 
L 29.59375 31.296875 
Q 39.15625 29.25 43.1875 25.515625 
Q 47.21875 21.78125 47.21875 15.09375 
Q 47.21875 7.46875 41.1875 3.015625 
Q 35.15625 -1.421875 24.609375 -1.421875 
Q 20.21875 -1.421875 15.453125 -0.5625 
Q 10.6875 0.296875 5.421875 2 
L 5.421875 11.28125 
Q 10.40625 8.6875 15.234375 7.390625 
Q 20.0625 6.109375 24.8125 6.109375 
Q 31.15625 6.109375 34.5625 8.28125 
Q 37.984375 10.453125 37.984375 14.40625 
Q 37.984375 18.0625 35.515625 20.015625 
Q 33.0625 21.96875 24.703125 23.78125 
L 21.578125 24.515625 
Q 13.234375 26.265625 9.515625 29.90625 
Q 5.8125 33.546875 5.8125 39.890625 
Q 5.8125 47.609375 11.28125 51.796875 
Q 16.75 56 26.8125 56 
Q 31.78125 56 36.171875 55.265625 
Q 40.578125 54.546875 44.28125 53.078125 
z
" id="DejaVuSans-115"/>
     <path d="M 40.578125 39.3125 
Q 47.65625 37.796875 51.625 33 
Q 55.609375 28.21875 55.609375 21.1875 
Q 55.609375 10.40625 48.1875 4.484375 
Q 40.765625 -1.421875 27.09375 -1.421875 
Q 22.515625 -1.421875 17.65625 -0.515625 
Q 12.796875 0.390625 7.625 2.203125 
L 7.625 11.71875 
Q 11.71875 9.328125 16.59375 8.109375 
Q 21.484375 6.890625 26.8125 6.890625 
Q 36.078125 6.890625 40.9375 10.546875 
Q 45.796875 14.203125 45.796875 21.1875 
Q 45.796875 27.640625 41.28125 31.265625 
Q 36.765625 34.90625 28.71875 34.90625 
L 20.21875 34.90625 
L 20.21875 43.015625 
L 29.109375 43.015625 
Q 36.375 43.015625 40.234375 45.921875 
Q 44.09375 48.828125 44.09375 54.296875 
Q 44.09375 59.90625 40.109375 62.90625 
Q 36.140625 65.921875 28.71875 65.921875 
Q 24.65625 65.921875 20.015625 65.03125 
Q 15.375 64.15625 9.8125 62.3125 
L 9.8125 71.09375 
Q 15.4375 72.65625 20.34375 73.4375 
Q 25.25 74.21875 29.59375 74.21875 
Q 40.828125 74.21875 47.359375 69.109375 
Q 53.90625 64.015625 53.90625 55.328125 
Q 53.90625 49.265625 50.4375 45.09375 
Q 46.96875 40.921875 40.578125 39.3125 
z
" id="DejaVuSans-51"/>
     <path d="M 11.71875 12.40625 
L 22.015625 12.40625 
L 22.015625 4 
L 14.015625 -11.625 
L 7.71875 -11.625 
L 11.71875 4 
z
" id="DejaVuSans-44"/>
     <path d="M 9.8125 72.90625 
L 19.671875 72.90625 
L 19.671875 42.09375 
L 52.390625 72.90625 
L 65.09375 72.90625 
L 28.90625 38.921875 
L 67.671875 0 
L 54.6875 0 
L 19.671875 35.109375 
L 19.671875 0 
L 9.8125 0 
z
" id="DejaVuSans-75"/>
     <path d="M 54.890625 33.015625 
L 54.890625 0 
L 45.90625 0 
L 45.90625 32.71875 
Q 45.90625 40.484375 42.875 44.328125 
Q 39.84375 48.1875 33.796875 48.1875 
Q 26.515625 48.1875 22.3125 43.546875 
Q 18.109375 38.921875 18.109375 30.90625 
L 18.109375 0 
L 9.078125 0 
L 9.078125 54.6875 
L 18.109375 54.6875 
L 18.109375 46.1875 
Q 21.34375 51.125 25.703125 53.5625 
Q 30.078125 56 35.796875 56 
Q 45.21875 56 50.046875 50.171875 
Q 54.890625 44.34375 54.890625 33.015625 
z
" id="DejaVuSans-110"/>
     <path d="M 30.609375 48.390625 
Q 23.390625 48.390625 19.1875 42.75 
Q 14.984375 37.109375 14.984375 27.296875 
Q 14.984375 17.484375 19.15625 11.84375 
Q 23.34375 6.203125 30.609375 6.203125 
Q 37.796875 6.203125 41.984375 11.859375 
Q 46.1875 17.53125 46.1875 27.296875 
Q 46.1875 37.015625 41.984375 42.703125 
Q 37.796875 48.390625 30.609375 48.390625 
z
M 30.609375 56 
Q 42.328125 56 49.015625 48.375 
Q 55.71875 40.765625 55.71875 27.296875 
Q 55.71875 13.875 49.015625 6.21875 
Q 42.328125 -1.421875 30.609375 -1.421875 
Q 18.84375 -1.421875 12.171875 6.21875 
Q 5.515625 13.875 5.515625 27.296875 
Q 5.515625 40.765625 12.171875 48.375 
Q 18.84375 56 30.609375 56 
z
" id="DejaVuSans-111"/>
     <path d="M 4.203125 54.6875 
L 13.1875 54.6875 
L 24.421875 12.015625 
L 35.59375 54.6875 
L 46.1875 54.6875 
L 57.421875 12.015625 
L 68.609375 54.6875 
L 77.59375 54.6875 
L 63.28125 0 
L 52.6875 0 
L 40.921875 44.828125 
L 29.109375 0 
L 18.5 0 
z
" id="DejaVuSans-119"/>
     <path d="M 10.59375 45.40625 
L 73.1875 45.40625 
L 73.1875 37.203125 
L 10.59375 37.203125 
z
M 10.59375 25.484375 
L 73.1875 25.484375 
L 73.1875 17.1875 
L 10.59375 17.1875 
z
" id="DejaVuSans-61"/>
     <path d="M 9.8125 72.90625 
L 51.703125 72.90625 
L 51.703125 64.59375 
L 19.671875 64.59375 
L 19.671875 43.109375 
L 48.578125 43.109375 
L 48.578125 34.8125 
L 19.671875 34.8125 
L 19.671875 0 
L 9.8125 0 
z
" id="DejaVuSans-70"/>
     <path d="M 34.28125 27.484375 
Q 23.390625 27.484375 19.1875 25 
Q 14.984375 22.515625 14.984375 16.5 
Q 14.984375 11.71875 18.140625 8.90625 
Q 21.296875 6.109375 26.703125 6.109375 
Q 34.1875 6.109375 38.703125 11.40625 
Q 43.21875 16.703125 43.21875 25.484375 
L 43.21875 27.484375 
z
M 52.203125 31.203125 
L 52.203125 0 
L 43.21875 0 
L 43.21875 8.296875 
Q 40.140625 3.328125 35.546875 0.953125 
Q 30.953125 -1.421875 24.3125 -1.421875 
Q 15.921875 -1.421875 10.953125 3.296875 
Q 6 8.015625 6 15.921875 
Q 6 25.140625 12.171875 29.828125 
Q 18.359375 34.515625 30.609375 34.515625 
L 43.21875 34.515625 
L 43.21875 35.40625 
Q 43.21875 41.609375 39.140625 45 
Q 35.0625 48.390625 27.6875 48.390625 
Q 23 48.390625 18.546875 47.265625 
Q 14.109375 46.140625 10.015625 43.890625 
L 10.015625 52.203125 
Q 14.9375 54.109375 19.578125 55.046875 
Q 24.21875 56 28.609375 56 
Q 40.484375 56 46.34375 49.84375 
Q 52.203125 43.703125 52.203125 31.203125 
z
" id="DejaVuSans-97"/>
     <path d="M 9.421875 75.984375 
L 18.40625 75.984375 
L 18.40625 0 
L 9.421875 0 
z
" id="DejaVuSans-108"/>
     <path d="M 19.671875 64.796875 
L 19.671875 8.109375 
L 31.59375 8.109375 
Q 46.6875 8.109375 53.6875 14.9375 
Q 60.6875 21.78125 60.6875 36.53125 
Q 60.6875 51.171875 53.6875 57.984375 
Q 46.6875 64.796875 31.59375 64.796875 
z
M 9.8125 72.90625 
L 30.078125 72.90625 
Q 51.265625 72.90625 61.171875 64.09375 
Q 71.09375 55.28125 71.09375 36.53125 
Q 71.09375 17.671875 61.125 8.828125 
Q 51.171875 0 30.078125 0 
L 9.8125 0 
z
" id="DejaVuSans-68"/>
     <path d="M 45.40625 27.984375 
Q 45.40625 37.75 41.375 43.109375 
Q 37.359375 48.484375 30.078125 48.484375 
Q 22.859375 48.484375 18.828125 43.109375 
Q 14.796875 37.75 14.796875 27.984375 
Q 14.796875 18.265625 18.828125 12.890625 
Q 22.859375 7.515625 30.078125 7.515625 
Q 37.359375 7.515625 41.375 12.890625 
Q 45.40625 18.265625 45.40625 27.984375 
z
M 54.390625 6.78125 
Q 54.390625 -7.171875 48.1875 -13.984375 
Q 42 -20.796875 29.203125 -20.796875 
Q 24.46875 -20.796875 20.265625 -20.09375 
Q 16.0625 -19.390625 12.109375 -17.921875 
L 12.109375 -9.1875 
Q 16.0625 -11.328125 19.921875 -12.34375 
Q 23.78125 -13.375 27.78125 -13.375 
Q 36.625 -13.375 41.015625 -8.765625 
Q 45.40625 -4.15625 45.40625 5.171875 
L 45.40625 9.625 
Q 42.625 4.78125 38.28125 2.390625 
Q 33.9375 0 27.875 0 
Q 17.828125 0 11.671875 7.65625 
Q 5.515625 15.328125 5.515625 27.984375 
Q 5.515625 40.671875 11.671875 48.328125 
Q 17.828125 56 27.875 56 
Q 33.9375 56 38.28125 53.609375 
Q 42.625 51.21875 45.40625 46.390625 
L 45.40625 54.6875 
L 54.390625 54.6875 
z
" id="DejaVuSans-103"/>
     <path d="M 41.109375 46.296875 
Q 39.59375 47.171875 37.8125 47.578125 
Q 36.03125 48 33.890625 48 
Q 26.265625 48 22.1875 43.046875 
Q 18.109375 38.09375 18.109375 28.8125 
L 18.109375 0 
L 9.078125 0 
L 9.078125 54.6875 
L 18.109375 54.6875 
L 18.109375 46.1875 
Q 20.953125 51.171875 25.484375 53.578125 
Q 30.03125 56 36.53125 56 
Q 37.453125 56 38.578125 55.875 
Q 39.703125 55.765625 41.0625 55.515625 
z
" id="DejaVuSans-114"/>
     <path d="M 9.421875 54.6875 
L 18.40625 54.6875 
L 18.40625 0 
L 9.421875 0 
z
M 9.421875 75.984375 
L 18.40625 75.984375 
L 18.40625 64.59375 
L 9.421875 64.59375 
z
" id="DejaVuSans-105"/>
     <path d="M 10.6875 12.40625 
L 21 12.40625 
L 21 0 
L 10.6875 0 
z
" id="DejaVuSans-46"/>
     <path d="M 12.40625 8.296875 
L 28.515625 8.296875 
L 28.515625 63.921875 
L 10.984375 60.40625 
L 10.984375 69.390625 
L 28.421875 72.90625 
L 38.28125 72.90625 
L 38.28125 8.296875 
L 54.390625 8.296875 
L 54.390625 0 
L 12.40625 0 
z
" id="DejaVuSans-49"/>
    </defs>
    <g transform="translate(53.559375 35.472)scale(0.12 -0.12)">
     <use xlink:href="#DejaVuSans-40"/>
     <use x="39.013672" xlink:href="#DejaVuSans-53"/>
     <use x="102.636719" xlink:href="#DejaVuSans-52"/>
     <use x="166.259766" xlink:href="#DejaVuSans-41"/>
     <use x="205.273438" xlink:href="#DejaVuSans-32"/>
     <use x="237.060547" xlink:href="#DejaVuSans-83"/>
     <use x="300.537109" xlink:href="#DejaVuSans-117"/>
     <use x="363.916016" xlink:href="#DejaVuSans-98"/>
     <use x="427.392578" xlink:href="#DejaVuSans-106"/>
     <use x="455.175781" xlink:href="#DejaVuSans-101"/>
     <use x="516.699219" xlink:href="#DejaVuSans-99"/>
     <use x="571.679688" xlink:href="#DejaVuSans-116"/>
     <use x="610.888672" xlink:href="#DejaVuSans-58"/>
     <use x="644.580078" xlink:href="#DejaVuSans-32"/>
     <use x="676.367188" xlink:href="#DejaVuSans-115"/>
     <use x="728.466797" xlink:href="#DejaVuSans-51"/>
     <use x="792.089844" xlink:href="#DejaVuSans-44"/>
     <use x="823.876953" xlink:href="#DejaVuSans-32"/>
     <use x="855.664062" xlink:href="#DejaVuSans-75"/>
     <use x="921.240234" xlink:href="#DejaVuSans-110"/>
     <use x="984.619141" xlink:href="#DejaVuSans-111"/>
     <use x="1045.800781" xlink:href="#DejaVuSans-119"/>
     <use x="1127.587891" xlink:href="#DejaVuSans-110"/>
     <use x="1190.966797" xlink:href="#DejaVuSans-32"/>
     <use x="1222.753906" xlink:href="#DejaVuSans-61"/>
     <use x="1306.542969" xlink:href="#DejaVuSans-32"/>
     <use x="1338.330078" xlink:href="#DejaVuSans-70"/>
     <use x="1395.708984" xlink:href="#DejaVuSans-97"/>
     <use x="1456.988281" xlink:href="#DejaVuSans-108"/>
     <use x="1484.771484" xlink:href="#DejaVuSans-115"/>
     <use x="1536.871094" xlink:href="#DejaVuSans-101"/>
     <use x="1598.394531" xlink:href="#DejaVuSans-44"/>
     <use x="1630.181641" xlink:href="#DejaVuSans-32"/>
     <use x="1661.96875" xlink:href="#DejaVuSans-68"/>
     <use x="1738.970703" xlink:href="#DejaVuSans-101"/>
     <use x="1800.494141" xlink:href="#DejaVuSans-103"/>
     <use x="1863.970703" xlink:href="#DejaVuSans-114"/>
     <use x="1905.052734" xlink:href="#DejaVuSans-101"/>
     <use x="1966.576172" xlink:href="#DejaVuSans-101"/>
     <use x="2028.099609" xlink:href="#DejaVuSans-32"/>
     <use x="2059.886719" xlink:href="#DejaVuSans-61"/>
     <use x="2143.675781" xlink:href="#DejaVuSans-32"/>
     <use x="2175.462891" xlink:href="#DejaVuSans-50"/>
     <use x="2239.085938" xlink:href="#DejaVuSans-44"/>
     <use x="2270.873047" xlink:href="#DejaVuSans-32"/>
     <use x="2302.660156" xlink:href="#DejaVuSans-68"/>
     <use x="2379.662109" xlink:href="#DejaVuSans-117"/>
     <use x="2443.041016" xlink:href="#DejaVuSans-114"/>
     <use x="2484.154297" xlink:href="#DejaVuSans-97"/>
     <use x="2545.433594" xlink:href="#DejaVuSans-116"/>
     <use x="2584.642578" xlink:href="#DejaVuSans-105"/>
     <use x="2612.425781" xlink:href="#DejaVuSans-111"/>
     <use x="2673.607422" xlink:href="#DejaVuSans-110"/>
     <use x="2736.986328" xlink:href="#DejaVuSans-32"/>
     <use x="2768.773438" xlink:href="#DejaVuSans-61"/>
     <use x="2852.5625" xlink:href="#DejaVuSans-32"/>
     <use x="2884.349609" xlink:href="#DejaVuSans-48"/>
     <use x="2947.972656" xlink:href="#DejaVuSans-46"/>
     <use x="2979.759766" xlink:href="#DejaVuSans-49"/>
    </g>
   </g>
  </g>
 </g>
 <defs>
  <clipPath id="p24923693b4">
   <rect height="266.112" width="357.12" x="57.6" y="41.472"/>
  </clipPath>
 </defs>
</svg>
