<?xml version="1.0" encoding="utf-8" standalone="no"?>
<!DOCTYPE svg PUBLIC "-//W3C//DTD SVG 1.1//EN"
  "http://www.w3.org/Graphics/SVG/1.1/DTD/svg11.dtd">
<!-- Created with matplotlib (https://matplotlib.org/) -->
<svg height="345.6pt" version="1.1" viewBox="0 0 460.8 345.6" width="460.8pt" xmlns="http://www.w3.org/2000/svg" xmlns:xlink="http://www.w3.org/1999/xlink">
 <defs>
  <style type="text/css">
*{stroke-linecap:butt;stroke-linejoin:round;}
  </style>
 </defs>
 <g id="figure_1">
  <g id="patch_1">
   <path d="M 0 345.6 
L 460.8 345.6 
L 460.8 0 
L 0 0 
z
" style="fill:#ffffff;"/>
  </g>
  <g id="axes_1">
   <g id="patch_2">
    <path d="M 57.6 307.584 
L 414.72 307.584 
L 414.72 41.472 
L 57.6 41.472 
z
" style="fill:#ffffff;"/>
   </g>
   <g id="line2d_1">
    <path clip-path="url(#pe8602af6cc)" d="M 397.810306 54.079187 
L 397.695152 54.079187 
L 397.695152 54.079187 
L 397.92197 54.590373 
L 397.810306 54.4206 
L 397.583487 54.24896 
L 397.583487 53.907547 
L 397.583487 53.907547 
L 397.695152 53.907547 
L 397.695152 53.737774 
L 397.92197 53.568 
L 398.037125 53.907547 
L 398.037125 54.079187 
L 397.92197 54.079187 
L 397.92197 54.079187 
L 397.92197 54.24896 
L 398.148789 54.24896 
L 398.487273 54.079187 
L 398.037125 54.24896 
L 398.148789 54.079187 
L 398.148789 53.737774 
L 398.148789 54.4206 
L 397.92197 54.760147 
L 397.810306 54.590373 
L 397.583487 54.590373 
L 397.583487 54.590373 
L 397.810306 54.760147 
L 397.810306 54.4206 
L 397.92197 54.24896 
L 398.260454 54.760147 
L 398.260454 55.10156 
L 398.260454 54.931786 
L 398.037125 54.590373 
L 397.810306 54.760147 
L 397.695152 54.590373 
L 397.92197 54.24896 
L 397.810306 54.24896 
L 397.695152 54.24896 
L 397.92197 54.24896 
L 398.148789 54.760147 
L 397.92197 54.760147 
L 397.810306 54.590373 
L 398.037125 54.24896 
L 397.92197 55.10156 
L 397.92197 55.271334 
L 397.695152 55.10156 
L 397.356668 55.10156 
L 397.356668 54.931786 
L 397.695152 54.931786 
L 397.92197 55.442973 
L 397.92197 55.10156 
L 398.037125 54.760147 
L 398.037125 54.760147 
L 397.810306 54.760147 
L 397.92197 54.760147 
L 398.037125 54.931786 
L 398.037125 55.271334 
L 397.92197 55.442973 
L 398.148789 55.271334 
L 398.487273 55.10156 
L 398.487273 54.931786 
L 398.260454 54.590373 
L 397.92197 54.4206 
L 398.148789 54.590373 
L 398.148789 54.931786 
L 398.148789 54.931786 
L 398.037125 54.760147 
L 397.810306 54.931786 
L 397.810306 55.271334 
L 398.260454 54.931786 
L 398.148789 55.10156 
L 397.92197 55.442973 
L 398.037125 55.10156 
L 397.695152 55.271334 
L 397.92197 55.10156 
L 398.037125 55.271334 
L 397.810306 55.442973 
L 397.583487 55.271334 
L 397.583487 54.760147 
L 397.810306 54.760147 
L 397.92197 54.931786 
L 398.260454 54.931786 
L 398.260454 54.931786 
L 397.695152 55.784386 
L 398.148789 55.271334 
L 398.148789 55.612746 
L 398.260454 56.295572 
L 398.487273 56.636985 
L 398.487273 56.295572 
L 398.260454 56.123933 
L 398.037125 56.123933 
L 398.037125 56.295572 
L 398.148789 56.295572 
L 398.148789 56.123933 
L 398.037125 55.784386 
L 397.810306 55.784386 
L 397.695152 56.636985 
L 397.92197 56.636985 
L 398.375608 56.295572 
L 398.037125 56.295572 
L 398.037125 56.123933 
L 398.148789 56.123933 
L 398.260454 56.295572 
L 398.375608 56.123933 
L 398.487273 55.442973 
L 398.375608 55.784386 
L 397.810306 56.465346 
L 397.810306 56.636985 
L 398.260454 56.636985 
L 398.148789 56.465346 
L 397.92197 56.806759 
L 398.260454 57.317946 
L 398.037125 57.829132 
L 398.037125 57.829132 
L 398.037125 56.295572 
L 397.92197 56.465346 
L 397.92197 56.976533 
L 397.810306 57.148172 
L 398.037125 56.806759 
L 398.037125 56.976533 
L 397.92197 57.317946 
L 397.695152 57.487719 
L 397.810306 57.829132 
L 398.037125 58.000772 
L 398.037125 58.170545 
L 398.037125 58.170545 
L 397.92197 58.170545 
L 397.810306 57.829132 
L 397.92197 57.487719 
L 398.260454 57.148172 
L 398.487273 57.659359 
L 398.487273 58.000772 
L 398.260454 58.170545 
L 397.92197 58.170545 
L 397.583487 58.511958 
L 397.583487 58.340319 
L 397.810306 59.023145 
L 398.037125 59.192918 
L 398.037125 58.853371 
L 398.037125 58.853371 
L 397.695152 58.853371 
L 397.471822 59.192918 
L 397.471822 59.875744 
L 397.92197 59.023145 
L 397.810306 59.534331 
L 398.375608 59.534331 
L 398.260454 59.534331 
L 398.037125 59.192918 
L 398.148789 58.853371 
L 397.92197 59.364558 
L 397.583487 59.704105 
L 398.037125 60.045518 
L 397.92197 60.217157 
L 397.695152 60.045518 
L 397.695152 60.217157 
L 397.810306 60.217157 
L 397.810306 60.045518 
L 397.695152 60.045518 
L 398.148789 59.364558 
L 397.92197 59.534331 
L 397.245003 60.217157 
L 397.245003 60.045518 
L 397.583487 59.875744 
L 398.148789 59.364558 
L 398.037125 59.704105 
L 397.471822 60.386931 
L 397.695152 59.534331 
L 397.356668 60.556705 
L 397.356668 59.875744 
L 397.356668 59.875744 
L 397.471822 59.875744 
L 398.037125 60.556705 
L 398.037125 60.728344 
L 398.037125 60.728344 
L 397.92197 60.898118 
L 398.260454 60.556705 
L 398.375608 60.556705 
L 398.260454 60.728344 
L 398.148789 60.556705 
L 398.148789 60.556705 
L 397.92197 60.556705 
L 397.695152 60.728344 
L 397.471822 61.067891 
L 397.583487 61.409304 
L 397.695152 61.239531 
L 397.695152 60.728344 
L 397.583487 60.556705 
L 397.583487 60.556705 
L 397.695152 61.409304 
L 397.810306 61.239531 
L 397.810306 60.898118 
L 397.810306 60.898118 
L 397.92197 61.409304 
L 397.92197 62.09213 
L 397.583487 62.261904 
L 397.245003 62.09213 
L 397.018184 61.409304 
L 396.90652 61.750717 
L 396.456372 62.261904 
L 395.66425 62.433543 
L 394.537135 62.433543 
L 392.052596 62.77309 
L 390.471843 62.77309 
L 388.102459 62.94473 
L 385.052618 62.94473 
L 381.667783 62.77309 
L 377.940974 63.284277 
L 373.879172 63.967103 
L 369.587062 64.819703 
L 365.525259 66.013715 
L 361.009819 67.205862 
L 341.367307 71.46886 
L 336.1749 72.14982 
L 331.320977 73.174059 
L 326.355389 74.537845 
L 321.501465 76.071405 
L 316.647542 77.776604 
L 307.501508 80.504177 
L 303.101222 82.209376 
L 298.809111 83.742936 
L 289.666567 86.470508 
L 271.719962 93.802491 
L 266.977703 96.188651 
L 262.573928 98.746449 
L 258.285307 100.962835 
L 249.59291 105.225833 
L 245.527619 107.611993 
L 241.8043 109.486965 
L 238.077492 110.850752 
L 223.292392 118.182735 
L 220.015732 120.057708 
L 213.584545 123.46624 
L 204.776995 129.945624 
L 202.069127 132.16201 
L 199.811407 134.719808 
L 196.311417 138.980941 
L 193.149912 143.585352 
L 190.442043 147.505071 
L 189.649922 149.381909 
L 189.088109 151.426656 
L 188.749626 153.301629 
L 188.634472 154.837054 
L 188.634472 160.803386 
L 188.522807 162.338811 
L 188.522807 164.042145 
L 188.749626 167.622317 
L 189.088109 170.351755 
L 189.088109 174.1017 
L 188.634472 176.829273 
L 188.184323 179.387071 
L 188.411142 181.262044 
L 188.295988 182.456057 
L 188.295988 183.989617 
L 188.072659 185.353403 
L 188.295988 185.864589 
L 188.295988 186.717189 
L 187.84584 188.933575 
L 188.411142 191.149961 
L 188.522807 191.149961 
L 188.522807 191.491373 
L 188.411142 191.832786 
L 188.522807 192.174199 
L 188.522807 192.685386 
L 188.86129 193.707759 
L 188.634472 193.707759 
L 188.634472 194.049172 
L 188.972955 194.38872 
L 188.972955 194.38872 
L 188.86129 194.38872 
L 189.311439 194.38872 
L 189.311439 194.38872 
L 188.86129 194.560359 
L 188.86129 194.38872 
L 189.088109 194.560359 
L 189.426593 195.412958 
L 189.649922 195.582732 
L 189.649922 195.754371 
L 189.426593 196.093919 
L 189.426593 196.605105 
L 189.426593 196.265558 
L 189.088109 195.582732 
L 189.088109 195.924145 
L 188.972955 195.924145 
L 188.972955 196.265558 
L 189.426593 196.776745 
L 189.538258 196.776745 
L 189.538258 196.435332 
L 189.876741 196.776745 
L 190.442043 196.946518 
L 190.10356 196.946518 
L 189.991895 196.946518 
L 190.442043 196.946518 
L 190.10356 197.629344 
L 189.991895 197.457705 
L 189.991895 198.821491 
L 190.330379 198.310304 
L 190.442043 197.799118 
L 190.330379 197.457705 
L 190.553708 198.140531 
L 190.10356 198.651717 
L 190.330379 198.651717 
L 190.553708 198.821491 
L 190.668862 199.162904 
L 190.442043 199.504317 
L 190.215225 198.99313 
L 190.215225 199.162904 
L 190.780527 199.162904 
L 190.553708 199.162904 
L 190.780527 198.821491 
L 190.668862 198.99313 
L 190.780527 198.99313 
L 191.007346 198.821491 
L 191.345829 199.504317 
L 191.11901 199.334543 
L 191.11901 199.162904 
L 191.345829 199.162904 
L 191.345829 199.334543 
L 190.892192 200.015504 
L 191.11901 200.356917 
L 191.569159 199.674091 
L 191.007346 200.69833 
L 190.892192 200.52669 
L 190.553708 200.356917 
L 190.10356 200.52669 
L 189.538258 200.868103 
L 189.199774 200.868103 
L 188.072659 200.356917 
L 187.168873 200.356917 
L 186.265087 200.52669 
L 185.361301 201.209516 
L 184.345851 202.231889 
L 183.442065 203.425902 
L 182.314949 206.323248 
L 181.637982 207.175848 
L 180.845861 207.858673 
L 180.05723 208.711273 
L 178.476477 211.267206 
L 178.022839 212.461219 
L 177.684355 213.825005 
L 177.122543 214.847378 
L 176.445576 215.699978 
L 176.107092 216.89399 
L 176.107092 218.599189 
L 175.991938 222.179361 
L 176.218757 223.712921 
L 178.588141 228.828519 
L 179.380263 229.850892 
L 180.168894 230.533718 
L 182.426614 233.942251 
L 183.103581 235.306037 
L 184.007367 238.546661 
L 185.022818 239.569035 
L 185.249636 240.591408 
L 185.361301 241.78542 
L 186.153422 243.49062 
L 186.153422 245.707005 
L 186.265087 246.729379 
L 187.392202 249.287177 
L 188.522807 250.990511 
L 188.634472 251.673337 
L 188.522807 252.354297 
L 188.295988 252.867349 
L 188.972955 253.719949 
L 189.088109 254.400909 
L 188.86129 254.742322 
L 189.311439 255.253509 
L 189.311439 255.936335 
L 188.972955 256.958708 
L 189.088109 256.787069 
L 189.311439 256.787069 
L 189.538258 257.128482 
L 189.426593 258.150855 
L 189.649922 258.492268 
L 189.876741 258.322494 
L 189.649922 257.811307 
L 189.765076 257.981081 
L 189.538258 257.981081 
L 189.426593 258.322494 
L 189.649922 258.833681 
L 189.538258 258.833681 
L 189.426593 259.003454 
L 189.538258 259.175094 
L 189.765076 258.833681 
L 189.538258 258.663907 
L 189.991895 258.663907 
L 190.330379 258.492268 
L 190.215225 258.663907 
L 190.10356 258.833681 
L 190.215225 258.663907 
L 190.553708 258.663907 
L 190.442043 258.492268 
L 189.991895 258.322494 
L 189.765076 259.003454 
L 189.649922 258.833681 
L 189.765076 258.492268 
L 189.765076 258.492268 
L 189.876741 259.003454 
L 189.765076 258.663907 
L 189.426593 258.150855 
L 189.426593 258.150855 
L 189.765076 258.322494 
L 189.876741 258.663907 
L 189.765076 258.492268 
L 190.215225 258.150855 
L 190.215225 257.981081 
L 189.876741 258.663907 
L 189.876741 258.492268 
L 189.876741 257.811307 
L 190.215225 258.322494 
L 190.10356 258.150855 
L 189.765076 258.492268 
L 189.649922 258.322494 
L 189.876741 257.981081 
L 190.215225 257.981081 
L 190.330379 258.492268 
L 190.330379 259.003454 
L 190.10356 259.344867 
L 189.991895 259.175094 
L 190.10356 258.833681 
L 189.991895 258.833681 
L 189.991895 259.175094 
L 190.215225 259.344867 
L 190.330379 259.175094 
L 190.215225 258.833681 
L 190.330379 259.003454 
L 190.10356 259.003454 
L 189.765076 258.663907 
L 189.649922 258.492268 
L 189.538258 258.663907 
L 189.876741 259.516507 
L 189.991895 259.516507 
L 189.765076 259.516507 
L 189.765076 259.344867 
L 189.991895 259.003454 
L 190.10356 258.833681 
L 189.876741 259.175094 
L 189.991895 259.175094 
L 190.215225 259.175094 
L 190.215225 259.175094 
L 189.876741 259.68628 
L 189.649922 259.68628 
L 189.876741 259.68628 
L 189.991895 260.197467 
L 190.10356 259.856054 
L 189.991895 259.68628 
L 188.522807 260.708654 
L 187.507356 260.708654 
L 184.234186 261.050066 
L 182.426614 261.391479 
L 180.05723 261.391479 
L 170.799531 261.902666 
L 167.414696 261.902666 
L 160.303052 261.21984 
L 156.576244 261.21984 
L 148.337486 261.902666 
L 144.499013 261.902666 
L 140.999023 262.413853 
L 137.610699 263.266452 
L 134.114199 263.777639 
L 127.225885 264.119052 
L 111.083362 265.652612 
L 108.03701 265.652612 
L 99.571433 266.676851 
L 96.636746 267.52945 
L 90.763882 269.91561 
L 88.282833 271.109622 
L 85.798294 272.131995 
L 83.652239 273.154369 
L 79.702101 275.712167 
L 78.121348 276.564767 
L 76.767414 277.58714 
L 75.863628 278.609513 
L 74.959842 279.122566 
L 74.171211 279.803526 
L 73.832727 280.314713 
L 73.832727 280.997538 
L 73.944392 281.508725 
L 74.736513 282.702738 
L 74.736513 283.213924 
L 74.848178 283.894885 
L 75.074997 284.236297 
L 75.301816 284.236297 
L 75.525145 284.406071 
L 75.863628 285.088897 
L 75.978783 285.600084 
L 75.301816 286.11127 
L 75.074997 286.452683 
L 75.186661 286.794096 
L 75.41348 286.96387 
L 75.41348 286.794096 
L 75.301816 286.794096 
L 75.301816 286.96387 
L 75.301816 286.96387 
L 75.41348 286.96387 
L 75.525145 287.305283 
L 75.41348 287.816469 
L 75.074997 287.816469 
L 74.959842 287.305283 
L 75.074997 287.646696 
L 75.525145 287.986243 
L 75.301816 289.180256 
L 75.41348 289.350029 
L 75.301816 289.350029 
L 75.186661 289.350029 
L 75.074997 289.691442 
L 75.074997 289.691442 
L 75.301816 289.521669 
L 75.525145 289.691442 
L 75.301816 289.863082 
L 74.959842 289.863082 
L 74.736513 290.032855 
L 75.186661 290.544042 
L 75.525145 290.544042 
L 75.525145 290.544042 
L 74.848178 290.202629 
L 75.186661 290.374268 
L 75.41348 290.885455 
L 75.301816 291.396641 
L 74.959842 291.566415 
L 74.736513 291.226868 
L 74.848178 290.885455 
L 75.186661 291.396641 
L 75.074997 291.396641 
L 75.301816 291.907828 
L 75.186661 292.249241 
L 74.509694 291.566415 
L 74.621359 291.738054 
L 74.736513 292.249241 
L 75.074997 292.930201 
L 75.186661 293.271614 
L 75.186661 293.271614 
L 75.41348 292.930201 
L 75.074997 293.271614 
L 75.301816 293.271614 
L 75.525145 293.271614 
L 75.525145 293.271614 
L 75.640299 292.930201 
L 75.301816 293.443254 
L 75.301816 293.443254 
L 75.301816 292.930201 
L 75.074997 293.101841 
L 75.074997 293.443254 
L 75.301816 294.465627 
L 75.41348 294.465627 
L 75.525145 294.124214 
L 75.186661 293.95444 
L 75.186661 293.95444 
L 75.301816 294.295853 
L 75.186661 294.295853 
L 74.959842 294.124214 
L 74.848178 294.124214 
L 74.959842 293.95444 
L 74.509694 294.6354 
L 74.621359 294.6354 
L 74.736513 294.6354 
L 74.848178 294.976813 
L 74.736513 295.146587 
L 75.074997 294.80704 
L 74.848178 294.976813 
L 74.959842 295.488 
L 75.186661 295.488 
L 75.525145 294.80704 
L 75.525145 294.465627 
L 75.41348 294.295853 
L 75.41348 294.6354 
L 75.525145 294.80704 
L 75.41348 294.6354 
L 75.41348 295.146587 
L 75.186661 294.976813 
L 75.074997 293.95444 
L 75.074997 294.124214 
L 74.959842 294.295853 
L 74.959842 294.6354 
L 74.736513 294.80704 
L 75.186661 294.295853 
L 75.41348 294.295853 
L 75.41348 294.6354 
L 75.41348 294.465627 
L 75.301816 294.295853 
L 74.959842 294.6354 
L 74.959842 294.976813 
L 75.41348 294.80704 
L 75.640299 294.465627 
L 75.525145 294.295853 
L 75.301816 294.295853 
L 75.074997 294.465627 
L 74.848178 294.465627 
L 74.848178 294.295853 
L 75.301816 293.613027 
L 75.301816 294.465627 
L 75.41348 293.782801 
L 75.301816 293.613027 
L 75.301816 293.613027 
L 75.186661 293.782801 
L 75.301816 293.782801 
L 75.640299 293.443254 
L 75.640299 294.465627 
L 75.640299 293.95444 
L 75.978783 293.443254 
L 75.978783 293.613027 
L 76.202112 294.295853 
L 75.863628 293.443254 
L 75.41348 293.443254 
L 75.41348 293.613027 
L 75.863628 293.95444 
L 75.978783 293.782801 
L 75.978783 293.443254 
L 75.863628 293.271614 
L 75.863628 292.930201 
L 75.978783 292.930201 
L 75.978783 293.271614 
L 75.863628 293.613027 
L 75.978783 293.613027 
L 76.317266 293.95444 
L 76.090447 294.124214 
L 75.863628 294.124214 
L 75.863628 294.124214 
L 75.978783 293.95444 
L 76.540595 294.124214 
L 76.65575 293.613027 
L 76.540595 293.271614 
L 76.317266 293.271614 
L 76.202112 293.443254 
L 76.317266 293.613027 
L 76.317266 294.124214 
L 76.428931 293.782801 
L 76.428931 293.101841 
L 76.540595 292.590654 
L 76.428931 292.590654 
L 76.317266 292.760428 
L 76.090447 293.613027 
L 75.863628 293.271614 
L 75.863628 292.760428 
L 76.202112 292.760428 
L 76.202112 292.760428 
L 76.767414 292.079467 
L 77.332717 292.079467 
L 79.136799 291.738054 
L 80.605887 291.055228 
L 84.105876 288.669069 
L 85.909959 287.475056 
L 88.167679 286.28291 
L 90.763882 285.088897 
L 97.086894 282.702738 
L 100.586883 281.508725 
L 104.198537 280.486352 
L 108.263829 279.633752 
L 112.55245 278.609513 
L 116.841071 277.417366 
L 121.129692 276.393128 
L 125.533467 275.540528 
L 134.452682 274.176742 
L 138.852968 273.665555 
L 143.483562 273.326008 
L 148.44915 272.643182 
L 153.303074 272.473408 
L 162.333953 272.812956 
L 171.703317 272.131995 
L 180.622532 272.473408 
L 185.022818 272.473408 
L 189.538258 272.131995 
L 198.457473 272.131995 
L 202.634429 271.960356 
L 222.388606 270.257023 
L 226.111925 270.426796 
L 229.50025 270.257023 
L 232.77342 269.91561 
L 235.934926 269.74397 
L 243.269899 270.257023 
L 245.07747 270.085383 
L 247.900493 270.085383 
L 248.238976 270.426796 
L 248.350641 270.59657 
L 248.238976 270.59657 
L 248.012157 270.937983 
L 248.012157 270.768209 
L 248.465795 270.426796 
L 248.689124 270.937983 
L 248.915943 271.790582 
L 249.027608 271.790582 
L 249.027608 270.937983 
L 248.915943 270.768209 
L 249.027608 271.109622 
L 249.142762 271.449169 
L 248.915943 270.768209 
L 248.915943 271.109622 
L 249.142762 272.473408 
L 249.027608 272.131995 
L 248.915943 271.790582 
L 249.027608 271.790582 
L 249.481246 272.473408 
L 249.142762 272.131995 
L 249.142762 272.473408 
L 249.254427 272.643182 
L 249.704575 271.960356 
L 249.59291 272.131995 
L 249.819729 272.812956 
L 249.481246 271.790582 
L 249.704575 272.131995 
L 249.931394 272.301769 
L 249.819729 272.131995 
L 249.931394 271.620809 
L 249.819729 271.449169 
L 250.158213 271.790582 
L 250.269877 271.790582 
L 250.269877 271.109622 
L 250.043058 272.131995 
L 250.158213 272.131995 
L 250.381542 271.960356 
L 250.608361 272.131995 
L 250.608361 271.960356 
L 250.83518 271.960356 
L 250.723515 271.960356 
L 250.608361 271.790582 
L 250.608361 271.790582 
L 250.608361 272.643182 
L 250.496696 272.984595 
L 250.381542 272.812956 
L 250.608361 272.643182 
L 251.623811 272.301769 
L 251.623811 272.301769 
L 251.173663 272.643182 
L 250.608361 272.812956 
L 250.608361 272.812956 
L 250.723515 272.643182 
L 250.608361 272.812956 
L 250.83518 272.812956 
L 251.285328 273.154369 
L 251.738966 272.812956 
L 251.738966 272.643182 
L 251.400482 272.984595 
L 251.285328 272.812956 
L 251.285328 272.301769 
L 251.623811 271.960356 
L 251.285328 272.643182 
L 251.285328 272.473408 
L 251.400482 272.301769 
L 251.512147 272.643182 
L 251.512147 272.812956 
L 251.85063 272.473408 
L 251.962295 272.131995 
L 251.738966 272.473408 
L 251.512147 272.812956 
L 251.512147 273.154369 
L 251.512147 272.984595 
L 251.400482 272.643182 
L 251.512147 272.812956 
L 251.623811 272.812956 
L 251.85063 273.326008 
L 251.623811 272.643182 
L 251.85063 272.473408 
L 251.85063 272.473408 
L 251.962295 272.643182 
L 251.738966 272.473408 
L 251.623811 272.643182 
L 251.85063 272.643182 
L 252.077449 272.473408 
L 252.077449 272.301769 
L 252.300778 272.131995 
L 252.300778 272.131995 
L 251.512147 272.473408 
L 251.962295 272.301769 
L 251.962295 272.473408 
L 251.85063 272.473408 
L 252.077449 272.473408 
L 252.415933 271.620809 
L 252.300778 271.449169 
L 252.300778 271.620809 
L 252.189114 271.620809 
L 252.077449 271.279396 
L 252.077449 271.279396 
L 251.962295 271.449169 
L 252.189114 271.279396 
L 252.415933 270.426796 
L 252.415933 269.74397 
L 251.962295 269.574197 
L 250.043058 268.21041 
L 246.658223 265.652612 
L 242.708086 262.07244 
L 237.400525 258.322494 
L 234.692657 255.594922 
L 231.984788 252.69571 
L 229.161766 249.968138 
L 226.565563 246.899152 
L 221.596485 240.080221 
L 215.842265 233.089651 
L 213.130908 229.168066 
L 210.196221 225.41812 
L 207.488352 221.668175 
L 205.003814 217.74659 
L 198.569137 206.664661 
L 193.942033 200.015504 
L 191.457494 196.946518 
L 189.088109 194.218946 
L 184.684334 188.422388 
L 180.395713 181.773231 
L 178.022839 178.023285 
L 172.718767 170.351755 
L 171.253169 167.793956 
L 166.622575 160.292199 
L 165.26864 157.906039 
L 163.799552 155.689654 
L 161.203349 152.790442 
L 160.414717 150.915469 
L 159.849415 148.868857 
L 158.833964 146.312924 
L 158.607145 144.949138 
L 158.722299 144.777499 
L 158.722299 144.436086 
L 158.607145 144.096538 
L 158.833964 143.924899 
L 159.060783 143.924899 
L 159.284112 145.118911 
L 159.510931 145.460324 
L 159.510931 145.460324 
L 159.284112 145.971511 
L 159.510931 145.971511 
L 159.73775 145.801737 
L 159.73775 145.630098 
L 159.626085 145.288685 
L 159.849415 144.949138 
L 159.626085 145.118911 
L 158.945629 145.118911 
L 159.284112 144.777499 
L 159.399266 144.777499 
L 159.73775 144.266312 
L 159.73775 143.924899 
L 159.849415 143.585352 
L 159.626085 143.585352 
L 159.399266 143.755125 
L 159.172448 143.755125 
L 159.060783 143.585352 
L 159.172448 143.413712 
L 159.399266 143.413712 
L 159.172448 143.413712 
L 159.172448 143.072299 
L 159.284112 142.732752 
L 159.510931 143.243939 
L 159.399266 143.243939 
L 159.399266 142.732752 
L 159.172448 142.732752 
L 159.172448 142.902526 
L 159.399266 143.243939 
L 159.399266 143.243939 
L 159.399266 143.072299 
L 159.284112 142.902526 
L 159.172448 143.243939 
L 159.172448 143.924899 
L 159.399266 144.266312 
L 159.060783 143.924899 
L 158.833964 144.266312 
L 158.945629 144.096538 
L 159.399266 144.096538 
L 159.399266 143.755125 
L 159.284112 143.413712 
L 158.945629 143.413712 
L 158.722299 144.096538 
L 158.833964 144.436086 
L 159.172448 144.096538 
L 159.399266 143.585352 
L 159.399266 143.755125 
L 159.399266 144.266312 
L 159.284112 144.607725 
L 159.284112 144.436086 
L 159.060783 144.436086 
L 159.060783 144.777499 
L 158.945629 144.777499 
L 158.945629 144.607725 
L 158.833964 144.436086 
L 158.495481 145.460324 
L 159.399266 144.777499 
L 159.399266 144.607725 
L 159.284112 144.607725 
L 159.284112 144.777499 
L 159.284112 144.777499 
L 159.172448 144.607725 
L 159.399266 144.777499 
L 159.73775 144.777499 
L 159.510931 144.949138 
L 159.060783 145.118911 
L 158.722299 145.118911 
L 158.833964 144.949138 
L 159.060783 144.949138 
L 158.945629 145.288685 
L 158.722299 145.288685 
L 159.172448 145.288685 
L 159.172448 145.288685 
L 159.172448 145.460324 
L 159.284112 146.482698 
L 159.172448 146.482698 
L 159.172448 146.824111 
L 159.284112 146.993884 
L 159.284112 146.993884 
L 158.945629 146.993884 
L 158.945629 147.165524 
L 158.722299 147.335297 
L 158.607145 147.165524 
L 158.607145 146.824111 
L 158.945629 146.993884 
L 159.060783 147.67671 
L 158.833964 148.016258 
L 158.945629 148.016258 
L 159.060783 148.187897 
L 158.833964 147.846484 
L 158.833964 147.846484 
L 158.722299 148.187897 
L 158.722299 148.016258 
L 159.060783 148.016258 
L 159.060783 148.35767 
L 158.722299 148.187897 
L 158.495481 147.67671 
L 158.722299 147.165524 
L 158.945629 147.505071 
L 159.060783 148.868857 
L 158.945629 148.868857 
L 158.833964 148.52931 
L 158.945629 149.21027 
L 158.607145 149.21027 
L 158.607145 149.21027 
L 158.607145 149.381909 
L 159.060783 149.381909 
L 159.284112 149.551683 
L 159.284112 149.551683 
L 158.495481 149.893096 
L 158.268662 150.06287 
L 158.722299 149.721457 
L 158.722299 149.381909 
L 158.495481 148.52931 
L 158.607145 149.040496 
L 158.156997 149.551683 
L 158.156997 150.06287 
L 158.495481 150.06287 
L 158.383816 149.893096 
L 158.383816 149.551683 
L 158.607145 149.21027 
L 158.607145 149.21027 
L 158.607145 149.381909 
L 158.495481 149.381909 
L 158.383816 149.040496 
L 158.607145 148.52931 
L 158.607145 148.187897 
L 158.383816 148.35767 
L 158.383816 148.699083 
L 158.607145 148.868857 
L 158.495481 148.868857 
L 158.268662 148.868857 
L 158.268662 148.187897 
L 158.156997 148.016258 
L 158.045332 148.187897 
L 158.383816 147.846484 
L 158.495481 147.846484 
L 158.045332 148.35767 
L 158.045332 147.67671 
L 158.156997 147.335297 
L 158.045332 146.824111 
L 158.268662 146.824111 
L 158.383816 146.993884 
L 158.383816 146.824111 
L 158.268662 146.482698 
L 158.045332 146.312924 
L 158.045332 146.312924 
L 158.045332 145.971511 
L 158.268662 145.118911 
L 158.607145 144.949138 
L 158.833964 144.949138 
L 159.284112 144.777499 
L 161.430168 143.585352 
L 164.364855 143.243939 
L 167.753179 142.2197 
L 169.445597 142.2197 
L 171.253169 142.561113 
L 173.622553 142.732752 
L 176.218757 143.072299 
L 178.81496 143.755125 
L 186.376752 147.505071 
L 188.634472 148.868857 
L 193.265066 152.449029 
L 195.972934 154.154228 
L 198.680802 155.518014 
L 201.39216 156.370614 
L 203.876698 157.7344 
L 206.246083 159.439599 
L 214.034693 164.213784 
L 217.081045 165.918983 
L 219.904067 167.96373 
L 228.146316 175.465486 
L 233.677206 180.239671 
L 238.415975 183.648204 
L 240.673695 185.864589 
L 244.627322 190.127587 
L 248.123822 194.901772 
L 249.931394 196.946518 
L 251.400482 198.821491 
L 252.639262 200.69833 
L 254.785317 205.470648 
L 255.800768 207.347487 
L 256.816218 208.711273 
L 257.60834 210.244833 
L 258.173642 211.950032 
L 259.412422 218.088003 
L 260.316208 223.371508 
L 260.431362 224.73716 
L 260.769845 225.929307 
L 261.108329 229.850892 
L 261.108329 232.067278 
L 261.219994 233.942251 
L 261.219994 234.79485 
L 261.108329 235.477676 
L 261.558477 238.375022 
L 261.558477 239.057848 
L 261.446812 239.397395 
L 261.446812 240.761182 
L 261.896961 242.466381 
L 261.896961 242.977567 
L 261.446812 243.660393 
L 262.008625 245.707005 
L 262.008625 246.218192 
L 262.462263 246.218192 
L 262.462263 246.387966 
L 262.123779 246.899152 
L 262.008625 247.751752 
L 262.123779 248.093165 
L 262.462263 248.434578 
L 262.573928 249.115538 
L 262.800746 249.456951 
L 262.689082 249.798364 
L 262.462263 249.798364 
L 262.462263 249.626725 
L 262.462263 251.331924 
L 262.573928 251.331924 
L 262.800746 251.84311 
L 262.462263 251.331924 
L 262.123779 251.331924 
L 262.008625 251.673337 
L 262.123779 252.184523 
L 262.462263 252.525936 
L 263.027565 252.69571 
L 263.13923 252.69571 
L 262.912411 252.525936 
L 262.689082 252.69571 
L 263.027565 252.867349 
L 263.366049 253.206897 
L 263.477713 253.54831 
L 263.366049 253.889723 
L 262.800746 254.231135 
L 262.912411 254.231135 
L 263.13923 254.400909 
L 263.704532 254.059496 
L 264.043016 254.059496 
L 264.154681 254.400909 
L 264.043016 254.400909 
L 263.816197 254.400909 
L 264.043016 255.083735 
L 263.927862 255.253509 
L 264.043016 255.253509 
L 264.154681 255.253509 
L 264.154681 255.253509 
L 264.043016 254.912096 
L 264.043016 254.912096 
" style="fill:none;stroke:#1f77b4;stroke-linecap:square;stroke-width:1.5;"/>
   </g>
   <g id="matplotlib.axis_1">
    <g id="xtick_1">
     <g id="line2d_2">
      <defs>
       <path d="M 0 0 
L 0 3.5 
" id="m931d9cb758" style="stroke:#000000;stroke-width:0.8;"/>
      </defs>
      <g>
       <use style="stroke:#000000;stroke-width:0.8;" x="101.91988" xlink:href="#m931d9cb758" y="307.584"/>
      </g>
     </g>
     <g id="text_1">
      <!-- −200 -->
      <defs>
       <path d="M 10.59375 35.5 
L 73.1875 35.5 
L 73.1875 27.203125 
L 10.59375 27.203125 
z
" id="DejaVuSans-8722"/>
       <path d="M 19.1875 8.296875 
L 53.609375 8.296875 
L 53.609375 0 
L 7.328125 0 
L 7.328125 8.296875 
Q 12.9375 14.109375 22.625 23.890625 
Q 32.328125 33.6875 34.8125 36.53125 
Q 39.546875 41.84375 41.421875 45.53125 
Q 43.3125 49.21875 43.3125 52.78125 
Q 43.3125 58.59375 39.234375 62.25 
Q 35.15625 65.921875 28.609375 65.921875 
Q 23.96875 65.921875 18.8125 64.3125 
Q 13.671875 62.703125 7.8125 59.421875 
L 7.8125 69.390625 
Q 13.765625 71.78125 18.9375 73 
Q 24.125 74.21875 28.421875 74.21875 
Q 39.75 74.21875 46.484375 68.546875 
Q 53.21875 62.890625 53.21875 53.421875 
Q 53.21875 48.921875 51.53125 44.890625 
Q 49.859375 40.875 45.40625 35.40625 
Q 44.1875 33.984375 37.640625 27.21875 
Q 31.109375 20.453125 19.1875 8.296875 
z
" id="DejaVuSans-50"/>
       <path d="M 31.78125 66.40625 
Q 24.171875 66.40625 20.328125 58.90625 
Q 16.5 51.421875 16.5 36.375 
Q 16.5 21.390625 20.328125 13.890625 
Q 24.171875 6.390625 31.78125 6.390625 
Q 39.453125 6.390625 43.28125 13.890625 
Q 47.125 21.390625 47.125 36.375 
Q 47.125 51.421875 43.28125 58.90625 
Q 39.453125 66.40625 31.78125 66.40625 
z
M 31.78125 74.21875 
Q 44.046875 74.21875 50.515625 64.515625 
Q 56.984375 54.828125 56.984375 36.375 
Q 56.984375 17.96875 50.515625 8.265625 
Q 44.046875 -1.421875 31.78125 -1.421875 
Q 19.53125 -1.421875 13.0625 8.265625 
Q 6.59375 17.96875 6.59375 36.375 
Q 6.59375 54.828125 13.0625 64.515625 
Q 19.53125 74.21875 31.78125 74.21875 
z
" id="DejaVuSans-48"/>
      </defs>
      <g transform="translate(88.186286 322.182437)scale(0.1 -0.1)">
       <use xlink:href="#DejaVuSans-8722"/>
       <use x="83.789062" xlink:href="#DejaVuSans-50"/>
       <use x="147.412109" xlink:href="#DejaVuSans-48"/>
       <use x="211.035156" xlink:href="#DejaVuSans-48"/>
      </g>
     </g>
    </g>
    <g id="xtick_2">
     <g id="line2d_3">
      <g>
       <use style="stroke:#000000;stroke-width:0.8;" x="171.710296" xlink:href="#m931d9cb758" y="307.584"/>
      </g>
     </g>
     <g id="text_2">
      <!-- 0 -->
      <g transform="translate(168.529046 322.182437)scale(0.1 -0.1)">
       <use xlink:href="#DejaVuSans-48"/>
      </g>
     </g>
    </g>
    <g id="xtick_3">
     <g id="line2d_4">
      <g>
       <use style="stroke:#000000;stroke-width:0.8;" x="241.500712" xlink:href="#m931d9cb758" y="307.584"/>
      </g>
     </g>
     <g id="text_3">
      <!-- 200 -->
      <g transform="translate(231.956962 322.182437)scale(0.1 -0.1)">
       <use xlink:href="#DejaVuSans-50"/>
       <use x="63.623047" xlink:href="#DejaVuSans-48"/>
       <use x="127.246094" xlink:href="#DejaVuSans-48"/>
      </g>
     </g>
    </g>
    <g id="xtick_4">
     <g id="line2d_5">
      <g>
       <use style="stroke:#000000;stroke-width:0.8;" x="311.291127" xlink:href="#m931d9cb758" y="307.584"/>
      </g>
     </g>
     <g id="text_4">
      <!-- 400 -->
      <defs>
       <path d="M 37.796875 64.3125 
L 12.890625 25.390625 
L 37.796875 25.390625 
z
M 35.203125 72.90625 
L 47.609375 72.90625 
L 47.609375 25.390625 
L 58.015625 25.390625 
L 58.015625 17.1875 
L 47.609375 17.1875 
L 47.609375 0 
L 37.796875 0 
L 37.796875 17.1875 
L 4.890625 17.1875 
L 4.890625 26.703125 
z
" id="DejaVuSans-52"/>
      </defs>
      <g transform="translate(301.747377 322.182437)scale(0.1 -0.1)">
       <use xlink:href="#DejaVuSans-52"/>
       <use x="63.623047" xlink:href="#DejaVuSans-48"/>
       <use x="127.246094" xlink:href="#DejaVuSans-48"/>
      </g>
     </g>
    </g>
    <g id="xtick_5">
     <g id="line2d_6">
      <g>
       <use style="stroke:#000000;stroke-width:0.8;" x="381.081543" xlink:href="#m931d9cb758" y="307.584"/>
      </g>
     </g>
     <g id="text_5">
      <!-- 600 -->
      <defs>
       <path d="M 33.015625 40.375 
Q 26.375 40.375 22.484375 35.828125 
Q 18.609375 31.296875 18.609375 23.390625 
Q 18.609375 15.53125 22.484375 10.953125 
Q 26.375 6.390625 33.015625 6.390625 
Q 39.65625 6.390625 43.53125 10.953125 
Q 47.40625 15.53125 47.40625 23.390625 
Q 47.40625 31.296875 43.53125 35.828125 
Q 39.65625 40.375 33.015625 40.375 
z
M 52.59375 71.296875 
L 52.59375 62.3125 
Q 48.875 64.0625 45.09375 64.984375 
Q 41.3125 65.921875 37.59375 65.921875 
Q 27.828125 65.921875 22.671875 59.328125 
Q 17.53125 52.734375 16.796875 39.40625 
Q 19.671875 43.65625 24.015625 45.921875 
Q 28.375 48.1875 33.59375 48.1875 
Q 44.578125 48.1875 50.953125 41.515625 
Q 57.328125 34.859375 57.328125 23.390625 
Q 57.328125 12.15625 50.6875 5.359375 
Q 44.046875 -1.421875 33.015625 -1.421875 
Q 20.359375 -1.421875 13.671875 8.265625 
Q 6.984375 17.96875 6.984375 36.375 
Q 6.984375 53.65625 15.1875 63.9375 
Q 23.390625 74.21875 37.203125 74.21875 
Q 40.921875 74.21875 44.703125 73.484375 
Q 48.484375 72.75 52.59375 71.296875 
z
" id="DejaVuSans-54"/>
      </defs>
      <g transform="translate(371.537793 322.182437)scale(0.1 -0.1)">
       <use xlink:href="#DejaVuSans-54"/>
       <use x="63.623047" xlink:href="#DejaVuSans-48"/>
       <use x="127.246094" xlink:href="#DejaVuSans-48"/>
      </g>
     </g>
    </g>
   </g>
   <g id="matplotlib.axis_2">
    <g id="ytick_1">
     <g id="line2d_7">
      <defs>
       <path d="M 0 0 
L -3.5 0 
" id="m608294c6d4" style="stroke:#000000;stroke-width:0.8;"/>
      </defs>
      <g>
       <use style="stroke:#000000;stroke-width:0.8;" x="57.6" xlink:href="#m608294c6d4" y="277.583409"/>
      </g>
     </g>
     <g id="text_6">
      <!-- −400 -->
      <g transform="translate(23.132812 281.382628)scale(0.1 -0.1)">
       <use xlink:href="#DejaVuSans-8722"/>
       <use x="83.789062" xlink:href="#DejaVuSans-52"/>
       <use x="147.412109" xlink:href="#DejaVuSans-48"/>
       <use x="211.035156" xlink:href="#DejaVuSans-48"/>
      </g>
     </g>
    </g>
    <g id="ytick_2">
     <g id="line2d_8">
      <g>
       <use style="stroke:#000000;stroke-width:0.8;" x="57.6" xlink:href="#m608294c6d4" y="240.270517"/>
      </g>
     </g>
     <g id="text_7">
      <!-- −200 -->
      <g transform="translate(23.132812 244.069736)scale(0.1 -0.1)">
       <use xlink:href="#DejaVuSans-8722"/>
       <use x="83.789062" xlink:href="#DejaVuSans-50"/>
       <use x="147.412109" xlink:href="#DejaVuSans-48"/>
       <use x="211.035156" xlink:href="#DejaVuSans-48"/>
      </g>
     </g>
    </g>
    <g id="ytick_3">
     <g id="line2d_9">
      <g>
       <use style="stroke:#000000;stroke-width:0.8;" x="57.6" xlink:href="#m608294c6d4" y="202.957625"/>
      </g>
     </g>
     <g id="text_8">
      <!-- 0 -->
      <g transform="translate(44.2375 206.756844)scale(0.1 -0.1)">
       <use xlink:href="#DejaVuSans-48"/>
      </g>
     </g>
    </g>
    <g id="ytick_4">
     <g id="line2d_10">
      <g>
       <use style="stroke:#000000;stroke-width:0.8;" x="57.6" xlink:href="#m608294c6d4" y="165.644733"/>
      </g>
     </g>
     <g id="text_9">
      <!-- 200 -->
      <g transform="translate(31.5125 169.443952)scale(0.1 -0.1)">
       <use xlink:href="#DejaVuSans-50"/>
       <use x="63.623047" xlink:href="#DejaVuSans-48"/>
       <use x="127.246094" xlink:href="#DejaVuSans-48"/>
      </g>
     </g>
    </g>
    <g id="ytick_5">
     <g id="line2d_11">
      <g>
       <use style="stroke:#000000;stroke-width:0.8;" x="57.6" xlink:href="#m608294c6d4" y="128.331841"/>
      </g>
     </g>
     <g id="text_10">
      <!-- 400 -->
      <g transform="translate(31.5125 132.13106)scale(0.1 -0.1)">
       <use xlink:href="#DejaVuSans-52"/>
       <use x="63.623047" xlink:href="#DejaVuSans-48"/>
       <use x="127.246094" xlink:href="#DejaVuSans-48"/>
      </g>
     </g>
    </g>
    <g id="ytick_6">
     <g id="line2d_12">
      <g>
       <use style="stroke:#000000;stroke-width:0.8;" x="57.6" xlink:href="#m608294c6d4" y="91.01895"/>
      </g>
     </g>
     <g id="text_11">
      <!-- 600 -->
      <g transform="translate(31.5125 94.818168)scale(0.1 -0.1)">
       <use xlink:href="#DejaVuSans-54"/>
       <use x="63.623047" xlink:href="#DejaVuSans-48"/>
       <use x="127.246094" xlink:href="#DejaVuSans-48"/>
      </g>
     </g>
    </g>
    <g id="ytick_7">
     <g id="line2d_13">
      <g>
       <use style="stroke:#000000;stroke-width:0.8;" x="57.6" xlink:href="#m608294c6d4" y="53.706058"/>
      </g>
     </g>
     <g id="text_12">
      <!-- 800 -->
      <defs>
       <path d="M 31.78125 34.625 
Q 24.75 34.625 20.71875 30.859375 
Q 16.703125 27.09375 16.703125 20.515625 
Q 16.703125 13.921875 20.71875 10.15625 
Q 24.75 6.390625 31.78125 6.390625 
Q 38.8125 6.390625 42.859375 10.171875 
Q 46.921875 13.96875 46.921875 20.515625 
Q 46.921875 27.09375 42.890625 30.859375 
Q 38.875 34.625 31.78125 34.625 
z
M 21.921875 38.8125 
Q 15.578125 40.375 12.03125 44.71875 
Q 8.5 49.078125 8.5 55.328125 
Q 8.5 64.0625 14.71875 69.140625 
Q 20.953125 74.21875 31.78125 74.21875 
Q 42.671875 74.21875 48.875 69.140625 
Q 55.078125 64.0625 55.078125 55.328125 
Q 55.078125 49.078125 51.53125 44.71875 
Q 48 40.375 41.703125 38.8125 
Q 48.828125 37.15625 52.796875 32.3125 
Q 56.78125 27.484375 56.78125 20.515625 
Q 56.78125 9.90625 50.3125 4.234375 
Q 43.84375 -1.421875 31.78125 -1.421875 
Q 19.734375 -1.421875 13.25 4.234375 
Q 6.78125 9.90625 6.78125 20.515625 
Q 6.78125 27.484375 10.78125 32.3125 
Q 14.796875 37.15625 21.921875 38.8125 
z
M 18.3125 54.390625 
Q 18.3125 48.734375 21.84375 45.5625 
Q 25.390625 42.390625 31.78125 42.390625 
Q 38.140625 42.390625 41.71875 45.5625 
Q 45.3125 48.734375 45.3125 54.390625 
Q 45.3125 60.0625 41.71875 63.234375 
Q 38.140625 66.40625 31.78125 66.40625 
Q 25.390625 66.40625 21.84375 63.234375 
Q 18.3125 60.0625 18.3125 54.390625 
z
" id="DejaVuSans-56"/>
      </defs>
      <g transform="translate(31.5125 57.505276)scale(0.1 -0.1)">
       <use xlink:href="#DejaVuSans-56"/>
       <use x="63.623047" xlink:href="#DejaVuSans-48"/>
       <use x="127.246094" xlink:href="#DejaVuSans-48"/>
      </g>
     </g>
    </g>
   </g>
   <g id="line2d_14">
    <path clip-path="url(#pe8602af6cc)" d="M 395.727118 57.704834 
L 189.101351 186.970334 
L 187.296437 250.094866 
L 79.616168 284.59954 
L 79.274788 292.453386 
L 244.589416 271.875521 
L 160.396538 147.278605 
" style="fill:none;stroke:#ff0000;stroke-linecap:square;stroke-width:0.5;"/>
   </g>
   <g id="patch_3">
    <path d="M 57.6 307.584 
L 57.6 41.472 
" style="fill:none;stroke:#000000;stroke-linecap:square;stroke-linejoin:miter;stroke-width:0.8;"/>
   </g>
   <g id="patch_4">
    <path d="M 414.72 307.584 
L 414.72 41.472 
" style="fill:none;stroke:#000000;stroke-linecap:square;stroke-linejoin:miter;stroke-width:0.8;"/>
   </g>
   <g id="patch_5">
    <path d="M 57.6 307.584 
L 414.72 307.584 
" style="fill:none;stroke:#000000;stroke-linecap:square;stroke-linejoin:miter;stroke-width:0.8;"/>
   </g>
   <g id="patch_6">
    <path d="M 57.6 41.472 
L 414.72 41.472 
" style="fill:none;stroke:#000000;stroke-linecap:square;stroke-linejoin:miter;stroke-width:0.8;"/>
   </g>
   <g id="PathCollection_1">
    <defs>
     <path d="M 0 2.738613 
C 0.726289 2.738613 1.422928 2.450055 1.936492 1.936492 
C 2.450055 1.422928 2.738613 0.726289 2.738613 0 
C 2.738613 -0.726289 2.450055 -1.422928 1.936492 -1.936492 
C 1.422928 -2.450055 0.726289 -2.738613 0 -2.738613 
C -0.726289 -2.738613 -1.422928 -2.450055 -1.936492 -1.936492 
C -2.450055 -1.422928 -2.738613 -0.726289 -2.738613 0 
C -2.738613 0.726289 -2.450055 1.422928 -1.936492 1.936492 
C -1.422928 2.450055 -0.726289 2.738613 0 2.738613 
z
" id="m066bc3bc42" style="stroke:#ff0000;"/>
    </defs>
    <g clip-path="url(#pe8602af6cc)">
     <use style="fill:#ff0000;stroke:#ff0000;" x="395.727118" xlink:href="#m066bc3bc42" y="57.704834"/>
     <use style="fill:#ff0000;stroke:#ff0000;" x="189.101351" xlink:href="#m066bc3bc42" y="186.970334"/>
     <use style="fill:#ff0000;stroke:#ff0000;" x="187.296437" xlink:href="#m066bc3bc42" y="250.094866"/>
     <use style="fill:#ff0000;stroke:#ff0000;" x="79.616168" xlink:href="#m066bc3bc42" y="284.59954"/>
     <use style="fill:#ff0000;stroke:#ff0000;" x="79.274788" xlink:href="#m066bc3bc42" y="292.453386"/>
     <use style="fill:#ff0000;stroke:#ff0000;" x="244.589416" xlink:href="#m066bc3bc42" y="271.875521"/>
     <use style="fill:#ff0000;stroke:#ff0000;" x="160.396538" xlink:href="#m066bc3bc42" y="147.278605"/>
    </g>
   </g>
   <g id="text_13">
    <!-- (55) Subject: s27, Known = False, Degree = 2, Duration = 0.1 -->
    <defs>
     <path d="M 31 75.875 
Q 24.46875 64.65625 21.28125 53.65625 
Q 18.109375 42.671875 18.109375 31.390625 
Q 18.109375 20.125 21.3125 9.0625 
Q 24.515625 -2 31 -13.1875 
L 23.1875 -13.1875 
Q 15.875 -1.703125 12.234375 9.375 
Q 8.59375 20.453125 8.59375 31.390625 
Q 8.59375 42.28125 12.203125 53.3125 
Q 15.828125 64.359375 23.1875 75.875 
z
" id="DejaVuSans-40"/>
     <path d="M 10.796875 72.90625 
L 49.515625 72.90625 
L 49.515625 64.59375 
L 19.828125 64.59375 
L 19.828125 46.734375 
Q 21.96875 47.46875 24.109375 47.828125 
Q 26.265625 48.1875 28.421875 48.1875 
Q 40.625 48.1875 47.75 41.5 
Q 54.890625 34.8125 54.890625 23.390625 
Q 54.890625 11.625 47.5625 5.09375 
Q 40.234375 -1.421875 26.90625 -1.421875 
Q 22.3125 -1.421875 17.546875 -0.640625 
Q 12.796875 0.140625 7.71875 1.703125 
L 7.71875 11.625 
Q 12.109375 9.234375 16.796875 8.0625 
Q 21.484375 6.890625 26.703125 6.890625 
Q 35.15625 6.890625 40.078125 11.328125 
Q 45.015625 15.765625 45.015625 23.390625 
Q 45.015625 31 40.078125 35.4375 
Q 35.15625 39.890625 26.703125 39.890625 
Q 22.75 39.890625 18.8125 39.015625 
Q 14.890625 38.140625 10.796875 36.28125 
z
" id="DejaVuSans-53"/>
     <path d="M 8.015625 75.875 
L 15.828125 75.875 
Q 23.140625 64.359375 26.78125 53.3125 
Q 30.421875 42.28125 30.421875 31.390625 
Q 30.421875 20.453125 26.78125 9.375 
Q 23.140625 -1.703125 15.828125 -13.1875 
L 8.015625 -13.1875 
Q 14.5 -2 17.703125 9.0625 
Q 20.90625 20.125 20.90625 31.390625 
Q 20.90625 42.671875 17.703125 53.65625 
Q 14.5 64.65625 8.015625 75.875 
z
" id="DejaVuSans-41"/>
     <path id="DejaVuSans-32"/>
     <path d="M 53.515625 70.515625 
L 53.515625 60.890625 
Q 47.90625 63.578125 42.921875 64.890625 
Q 37.9375 66.21875 33.296875 66.21875 
Q 25.25 66.21875 20.875 63.09375 
Q 16.5 59.96875 16.5 54.203125 
Q 16.5 49.359375 19.40625 46.890625 
Q 22.3125 44.4375 30.421875 42.921875 
L 36.375 41.703125 
Q 47.40625 39.59375 52.65625 34.296875 
Q 57.90625 29 57.90625 20.125 
Q 57.90625 9.515625 50.796875 4.046875 
Q 43.703125 -1.421875 29.984375 -1.421875 
Q 24.8125 -1.421875 18.96875 -0.25 
Q 13.140625 0.921875 6.890625 3.21875 
L 6.890625 13.375 
Q 12.890625 10.015625 18.65625 8.296875 
Q 24.421875 6.59375 29.984375 6.59375 
Q 38.421875 6.59375 43.015625 9.90625 
Q 47.609375 13.234375 47.609375 19.390625 
Q 47.609375 24.75 44.3125 27.78125 
Q 41.015625 30.8125 33.5 32.328125 
L 27.484375 33.5 
Q 16.453125 35.6875 11.515625 40.375 
Q 6.59375 45.0625 6.59375 53.421875 
Q 6.59375 63.09375 13.40625 68.65625 
Q 20.21875 74.21875 32.171875 74.21875 
Q 37.3125 74.21875 42.625 73.28125 
Q 47.953125 72.359375 53.515625 70.515625 
z
" id="DejaVuSans-83"/>
     <path d="M 8.5 21.578125 
L 8.5 54.6875 
L 17.484375 54.6875 
L 17.484375 21.921875 
Q 17.484375 14.15625 20.5 10.265625 
Q 23.53125 6.390625 29.59375 6.390625 
Q 36.859375 6.390625 41.078125 11.03125 
Q 45.3125 15.671875 45.3125 23.6875 
L 45.3125 54.6875 
L 54.296875 54.6875 
L 54.296875 0 
L 45.3125 0 
L 45.3125 8.40625 
Q 42.046875 3.421875 37.71875 1 
Q 33.40625 -1.421875 27.6875 -1.421875 
Q 18.265625 -1.421875 13.375 4.4375 
Q 8.5 10.296875 8.5 21.578125 
z
M 31.109375 56 
z
" id="DejaVuSans-117"/>
     <path d="M 48.6875 27.296875 
Q 48.6875 37.203125 44.609375 42.84375 
Q 40.53125 48.484375 33.40625 48.484375 
Q 26.265625 48.484375 22.1875 42.84375 
Q 18.109375 37.203125 18.109375 27.296875 
Q 18.109375 17.390625 22.1875 11.75 
Q 26.265625 6.109375 33.40625 6.109375 
Q 40.53125 6.109375 44.609375 11.75 
Q 48.6875 17.390625 48.6875 27.296875 
z
M 18.109375 46.390625 
Q 20.953125 51.265625 25.265625 53.625 
Q 29.59375 56 35.59375 56 
Q 45.5625 56 51.78125 48.09375 
Q 58.015625 40.1875 58.015625 27.296875 
Q 58.015625 14.40625 51.78125 6.484375 
Q 45.5625 -1.421875 35.59375 -1.421875 
Q 29.59375 -1.421875 25.265625 0.953125 
Q 20.953125 3.328125 18.109375 8.203125 
L 18.109375 0 
L 9.078125 0 
L 9.078125 75.984375 
L 18.109375 75.984375 
z
" id="DejaVuSans-98"/>
     <path d="M 9.421875 54.6875 
L 18.40625 54.6875 
L 18.40625 -0.984375 
Q 18.40625 -11.421875 14.421875 -16.109375 
Q 10.453125 -20.796875 1.609375 -20.796875 
L -1.8125 -20.796875 
L -1.8125 -13.1875 
L 0.59375 -13.1875 
Q 5.71875 -13.1875 7.5625 -10.8125 
Q 9.421875 -8.453125 9.421875 -0.984375 
z
M 9.421875 75.984375 
L 18.40625 75.984375 
L 18.40625 64.59375 
L 9.421875 64.59375 
z
" id="DejaVuSans-106"/>
     <path d="M 56.203125 29.59375 
L 56.203125 25.203125 
L 14.890625 25.203125 
Q 15.484375 15.921875 20.484375 11.0625 
Q 25.484375 6.203125 34.421875 6.203125 
Q 39.59375 6.203125 44.453125 7.46875 
Q 49.3125 8.734375 54.109375 11.28125 
L 54.109375 2.78125 
Q 49.265625 0.734375 44.1875 -0.34375 
Q 39.109375 -1.421875 33.890625 -1.421875 
Q 20.796875 -1.421875 13.15625 6.1875 
Q 5.515625 13.8125 5.515625 26.8125 
Q 5.515625 40.234375 12.765625 48.109375 
Q 20.015625 56 32.328125 56 
Q 43.359375 56 49.78125 48.890625 
Q 56.203125 41.796875 56.203125 29.59375 
z
M 47.21875 32.234375 
Q 47.125 39.59375 43.09375 43.984375 
Q 39.0625 48.390625 32.421875 48.390625 
Q 24.90625 48.390625 20.390625 44.140625 
Q 15.875 39.890625 15.1875 32.171875 
z
" id="DejaVuSans-101"/>
     <path d="M 48.78125 52.59375 
L 48.78125 44.1875 
Q 44.96875 46.296875 41.140625 47.34375 
Q 37.3125 48.390625 33.40625 48.390625 
Q 24.65625 48.390625 19.8125 42.84375 
Q 14.984375 37.3125 14.984375 27.296875 
Q 14.984375 17.28125 19.8125 11.734375 
Q 24.65625 6.203125 33.40625 6.203125 
Q 37.3125 6.203125 41.140625 7.25 
Q 44.96875 8.296875 48.78125 10.40625 
L 48.78125 2.09375 
Q 45.015625 0.34375 40.984375 -0.53125 
Q 36.96875 -1.421875 32.421875 -1.421875 
Q 20.0625 -1.421875 12.78125 6.34375 
Q 5.515625 14.109375 5.515625 27.296875 
Q 5.515625 40.671875 12.859375 48.328125 
Q 20.21875 56 33.015625 56 
Q 37.15625 56 41.109375 55.140625 
Q 45.0625 54.296875 48.78125 52.59375 
z
" id="DejaVuSans-99"/>
     <path d="M 18.3125 70.21875 
L 18.3125 54.6875 
L 36.8125 54.6875 
L 36.8125 47.703125 
L 18.3125 47.703125 
L 18.3125 18.015625 
Q 18.3125 11.328125 20.140625 9.421875 
Q 21.96875 7.515625 27.59375 7.515625 
L 36.8125 7.515625 
L 36.8125 0 
L 27.59375 0 
Q 17.1875 0 13.234375 3.875 
Q 9.28125 7.765625 9.28125 18.015625 
L 9.28125 47.703125 
L 2.6875 47.703125 
L 2.6875 54.6875 
L 9.28125 54.6875 
L 9.28125 70.21875 
z
" id="DejaVuSans-116"/>
     <path d="M 11.71875 12.40625 
L 22.015625 12.40625 
L 22.015625 0 
L 11.71875 0 
z
M 11.71875 51.703125 
L 22.015625 51.703125 
L 22.015625 39.3125 
L 11.71875 39.3125 
z
" id="DejaVuSans-58"/>
     <path d="M 44.28125 53.078125 
L 44.28125 44.578125 
Q 40.484375 46.53125 36.375 47.5 
Q 32.28125 48.484375 27.875 48.484375 
Q 21.1875 48.484375 17.84375 46.4375 
Q 14.5 44.390625 14.5 40.28125 
Q 14.5 37.15625 16.890625 35.375 
Q 19.28125 33.59375 26.515625 31.984375 
L 29.59375 31.296875 
Q 39.15625 29.25 43.1875 25.515625 
Q 47.21875 21.78125 47.21875 15.09375 
Q 47.21875 7.46875 41.1875 3.015625 
Q 35.15625 -1.421875 24.609375 -1.421875 
Q 20.21875 -1.421875 15.453125 -0.5625 
Q 10.6875 0.296875 5.421875 2 
L 5.421875 11.28125 
Q 10.40625 8.6875 15.234375 7.390625 
Q 20.0625 6.109375 24.8125 6.109375 
Q 31.15625 6.109375 34.5625 8.28125 
Q 37.984375 10.453125 37.984375 14.40625 
Q 37.984375 18.0625 35.515625 20.015625 
Q 33.0625 21.96875 24.703125 23.78125 
L 21.578125 24.515625 
Q 13.234375 26.265625 9.515625 29.90625 
Q 5.8125 33.546875 5.8125 39.890625 
Q 5.8125 47.609375 11.28125 51.796875 
Q 16.75 56 26.8125 56 
Q 31.78125 56 36.171875 55.265625 
Q 40.578125 54.546875 44.28125 53.078125 
z
" id="DejaVuSans-115"/>
     <path d="M 8.203125 72.90625 
L 55.078125 72.90625 
L 55.078125 68.703125 
L 28.609375 0 
L 18.3125 0 
L 43.21875 64.59375 
L 8.203125 64.59375 
z
" id="DejaVuSans-55"/>
     <path d="M 11.71875 12.40625 
L 22.015625 12.40625 
L 22.015625 4 
L 14.015625 -11.625 
L 7.71875 -11.625 
L 11.71875 4 
z
" id="DejaVuSans-44"/>
     <path d="M 9.8125 72.90625 
L 19.671875 72.90625 
L 19.671875 42.09375 
L 52.390625 72.90625 
L 65.09375 72.90625 
L 28.90625 38.921875 
L 67.671875 0 
L 54.6875 0 
L 19.671875 35.109375 
L 19.671875 0 
L 9.8125 0 
z
" id="DejaVuSans-75"/>
     <path d="M 54.890625 33.015625 
L 54.890625 0 
L 45.90625 0 
L 45.90625 32.71875 
Q 45.90625 40.484375 42.875 44.328125 
Q 39.84375 48.1875 33.796875 48.1875 
Q 26.515625 48.1875 22.3125 43.546875 
Q 18.109375 38.921875 18.109375 30.90625 
L 18.109375 0 
L 9.078125 0 
L 9.078125 54.6875 
L 18.109375 54.6875 
L 18.109375 46.1875 
Q 21.34375 51.125 25.703125 53.5625 
Q 30.078125 56 35.796875 56 
Q 45.21875 56 50.046875 50.171875 
Q 54.890625 44.34375 54.890625 33.015625 
z
" id="DejaVuSans-110"/>
     <path d="M 30.609375 48.390625 
Q 23.390625 48.390625 19.1875 42.75 
Q 14.984375 37.109375 14.984375 27.296875 
Q 14.984375 17.484375 19.15625 11.84375 
Q 23.34375 6.203125 30.609375 6.203125 
Q 37.796875 6.203125 41.984375 11.859375 
Q 46.1875 17.53125 46.1875 27.296875 
Q 46.1875 37.015625 41.984375 42.703125 
Q 37.796875 48.390625 30.609375 48.390625 
z
M 30.609375 56 
Q 42.328125 56 49.015625 48.375 
Q 55.71875 40.765625 55.71875 27.296875 
Q 55.71875 13.875 49.015625 6.21875 
Q 42.328125 -1.421875 30.609375 -1.421875 
Q 18.84375 -1.421875 12.171875 6.21875 
Q 5.515625 13.875 5.515625 27.296875 
Q 5.515625 40.765625 12.171875 48.375 
Q 18.84375 56 30.609375 56 
z
" id="DejaVuSans-111"/>
     <path d="M 4.203125 54.6875 
L 13.1875 54.6875 
L 24.421875 12.015625 
L 35.59375 54.6875 
L 46.1875 54.6875 
L 57.421875 12.015625 
L 68.609375 54.6875 
L 77.59375 54.6875 
L 63.28125 0 
L 52.6875 0 
L 40.921875 44.828125 
L 29.109375 0 
L 18.5 0 
z
" id="DejaVuSans-119"/>
     <path d="M 10.59375 45.40625 
L 73.1875 45.40625 
L 73.1875 37.203125 
L 10.59375 37.203125 
z
M 10.59375 25.484375 
L 73.1875 25.484375 
L 73.1875 17.1875 
L 10.59375 17.1875 
z
" id="DejaVuSans-61"/>
     <path d="M 9.8125 72.90625 
L 51.703125 72.90625 
L 51.703125 64.59375 
L 19.671875 64.59375 
L 19.671875 43.109375 
L 48.578125 43.109375 
L 48.578125 34.8125 
L 19.671875 34.8125 
L 19.671875 0 
L 9.8125 0 
z
" id="DejaVuSans-70"/>
     <path d="M 34.28125 27.484375 
Q 23.390625 27.484375 19.1875 25 
Q 14.984375 22.515625 14.984375 16.5 
Q 14.984375 11.71875 18.140625 8.90625 
Q 21.296875 6.109375 26.703125 6.109375 
Q 34.1875 6.109375 38.703125 11.40625 
Q 43.21875 16.703125 43.21875 25.484375 
L 43.21875 27.484375 
z
M 52.203125 31.203125 
L 52.203125 0 
L 43.21875 0 
L 43.21875 8.296875 
Q 40.140625 3.328125 35.546875 0.953125 
Q 30.953125 -1.421875 24.3125 -1.421875 
Q 15.921875 -1.421875 10.953125 3.296875 
Q 6 8.015625 6 15.921875 
Q 6 25.140625 12.171875 29.828125 
Q 18.359375 34.515625 30.609375 34.515625 
L 43.21875 34.515625 
L 43.21875 35.40625 
Q 43.21875 41.609375 39.140625 45 
Q 35.0625 48.390625 27.6875 48.390625 
Q 23 48.390625 18.546875 47.265625 
Q 14.109375 46.140625 10.015625 43.890625 
L 10.015625 52.203125 
Q 14.9375 54.109375 19.578125 55.046875 
Q 24.21875 56 28.609375 56 
Q 40.484375 56 46.34375 49.84375 
Q 52.203125 43.703125 52.203125 31.203125 
z
" id="DejaVuSans-97"/>
     <path d="M 9.421875 75.984375 
L 18.40625 75.984375 
L 18.40625 0 
L 9.421875 0 
z
" id="DejaVuSans-108"/>
     <path d="M 19.671875 64.796875 
L 19.671875 8.109375 
L 31.59375 8.109375 
Q 46.6875 8.109375 53.6875 14.9375 
Q 60.6875 21.78125 60.6875 36.53125 
Q 60.6875 51.171875 53.6875 57.984375 
Q 46.6875 64.796875 31.59375 64.796875 
z
M 9.8125 72.90625 
L 30.078125 72.90625 
Q 51.265625 72.90625 61.171875 64.09375 
Q 71.09375 55.28125 71.09375 36.53125 
Q 71.09375 17.671875 61.125 8.828125 
Q 51.171875 0 30.078125 0 
L 9.8125 0 
z
" id="DejaVuSans-68"/>
     <path d="M 45.40625 27.984375 
Q 45.40625 37.75 41.375 43.109375 
Q 37.359375 48.484375 30.078125 48.484375 
Q 22.859375 48.484375 18.828125 43.109375 
Q 14.796875 37.75 14.796875 27.984375 
Q 14.796875 18.265625 18.828125 12.890625 
Q 22.859375 7.515625 30.078125 7.515625 
Q 37.359375 7.515625 41.375 12.890625 
Q 45.40625 18.265625 45.40625 27.984375 
z
M 54.390625 6.78125 
Q 54.390625 -7.171875 48.1875 -13.984375 
Q 42 -20.796875 29.203125 -20.796875 
Q 24.46875 -20.796875 20.265625 -20.09375 
Q 16.0625 -19.390625 12.109375 -17.921875 
L 12.109375 -9.1875 
Q 16.0625 -11.328125 19.921875 -12.34375 
Q 23.78125 -13.375 27.78125 -13.375 
Q 36.625 -13.375 41.015625 -8.765625 
Q 45.40625 -4.15625 45.40625 5.171875 
L 45.40625 9.625 
Q 42.625 4.78125 38.28125 2.390625 
Q 33.9375 0 27.875 0 
Q 17.828125 0 11.671875 7.65625 
Q 5.515625 15.328125 5.515625 27.984375 
Q 5.515625 40.671875 11.671875 48.328125 
Q 17.828125 56 27.875 56 
Q 33.9375 56 38.28125 53.609375 
Q 42.625 51.21875 45.40625 46.390625 
L 45.40625 54.6875 
L 54.390625 54.6875 
z
" id="DejaVuSans-103"/>
     <path d="M 41.109375 46.296875 
Q 39.59375 47.171875 37.8125 47.578125 
Q 36.03125 48 33.890625 48 
Q 26.265625 48 22.1875 43.046875 
Q 18.109375 38.09375 18.109375 28.8125 
L 18.109375 0 
L 9.078125 0 
L 9.078125 54.6875 
L 18.109375 54.6875 
L 18.109375 46.1875 
Q 20.953125 51.171875 25.484375 53.578125 
Q 30.03125 56 36.53125 56 
Q 37.453125 56 38.578125 55.875 
Q 39.703125 55.765625 41.0625 55.515625 
z
" id="DejaVuSans-114"/>
     <path d="M 9.421875 54.6875 
L 18.40625 54.6875 
L 18.40625 0 
L 9.421875 0 
z
M 9.421875 75.984375 
L 18.40625 75.984375 
L 18.40625 64.59375 
L 9.421875 64.59375 
z
" id="DejaVuSans-105"/>
     <path d="M 10.6875 12.40625 
L 21 12.40625 
L 21 0 
L 10.6875 0 
z
" id="DejaVuSans-46"/>
     <path d="M 12.40625 8.296875 
L 28.515625 8.296875 
L 28.515625 63.921875 
L 10.984375 60.40625 
L 10.984375 69.390625 
L 28.421875 72.90625 
L 38.28125 72.90625 
L 38.28125 8.296875 
L 54.390625 8.296875 
L 54.390625 0 
L 12.40625 0 
z
" id="DejaVuSans-49"/>
    </defs>
    <g transform="translate(49.741875 35.472)scale(0.12 -0.12)">
     <use xlink:href="#DejaVuSans-40"/>
     <use x="39.013672" xlink:href="#DejaVuSans-53"/>
     <use x="102.636719" xlink:href="#DejaVuSans-53"/>
     <use x="166.259766" xlink:href="#DejaVuSans-41"/>
     <use x="205.273438" xlink:href="#DejaVuSans-32"/>
     <use x="237.060547" xlink:href="#DejaVuSans-83"/>
     <use x="300.537109" xlink:href="#DejaVuSans-117"/>
     <use x="363.916016" xlink:href="#DejaVuSans-98"/>
     <use x="427.392578" xlink:href="#DejaVuSans-106"/>
     <use x="455.175781" xlink:href="#DejaVuSans-101"/>
     <use x="516.699219" xlink:href="#DejaVuSans-99"/>
     <use x="571.679688" xlink:href="#DejaVuSans-116"/>
     <use x="610.888672" xlink:href="#DejaVuSans-58"/>
     <use x="644.580078" xlink:href="#DejaVuSans-32"/>
     <use x="676.367188" xlink:href="#DejaVuSans-115"/>
     <use x="728.466797" xlink:href="#DejaVuSans-50"/>
     <use x="792.089844" xlink:href="#DejaVuSans-55"/>
     <use x="855.712891" xlink:href="#DejaVuSans-44"/>
     <use x="887.5" xlink:href="#DejaVuSans-32"/>
     <use x="919.287109" xlink:href="#DejaVuSans-75"/>
     <use x="984.863281" xlink:href="#DejaVuSans-110"/>
     <use x="1048.242188" xlink:href="#DejaVuSans-111"/>
     <use x="1109.423828" xlink:href="#DejaVuSans-119"/>
     <use x="1191.210938" xlink:href="#DejaVuSans-110"/>
     <use x="1254.589844" xlink:href="#DejaVuSans-32"/>
     <use x="1286.376953" xlink:href="#DejaVuSans-61"/>
     <use x="1370.166016" xlink:href="#DejaVuSans-32"/>
     <use x="1401.953125" xlink:href="#DejaVuSans-70"/>
     <use x="1459.332031" xlink:href="#DejaVuSans-97"/>
     <use x="1520.611328" xlink:href="#DejaVuSans-108"/>
     <use x="1548.394531" xlink:href="#DejaVuSans-115"/>
     <use x="1600.494141" xlink:href="#DejaVuSans-101"/>
     <use x="1662.017578" xlink:href="#DejaVuSans-44"/>
     <use x="1693.804688" xlink:href="#DejaVuSans-32"/>
     <use x="1725.591797" xlink:href="#DejaVuSans-68"/>
     <use x="1802.59375" xlink:href="#DejaVuSans-101"/>
     <use x="1864.117188" xlink:href="#DejaVuSans-103"/>
     <use x="1927.59375" xlink:href="#DejaVuSans-114"/>
     <use x="1968.675781" xlink:href="#DejaVuSans-101"/>
     <use x="2030.199219" xlink:href="#DejaVuSans-101"/>
     <use x="2091.722656" xlink:href="#DejaVuSans-32"/>
     <use x="2123.509766" xlink:href="#DejaVuSans-61"/>
     <use x="2207.298828" xlink:href="#DejaVuSans-32"/>
     <use x="2239.085938" xlink:href="#DejaVuSans-50"/>
     <use x="2302.708984" xlink:href="#DejaVuSans-44"/>
     <use x="2334.496094" xlink:href="#DejaVuSans-32"/>
     <use x="2366.283203" xlink:href="#DejaVuSans-68"/>
     <use x="2443.285156" xlink:href="#DejaVuSans-117"/>
     <use x="2506.664062" xlink:href="#DejaVuSans-114"/>
     <use x="2547.777344" xlink:href="#DejaVuSans-97"/>
     <use x="2609.056641" xlink:href="#DejaVuSans-116"/>
     <use x="2648.265625" xlink:href="#DejaVuSans-105"/>
     <use x="2676.048828" xlink:href="#DejaVuSans-111"/>
     <use x="2737.230469" xlink:href="#DejaVuSans-110"/>
     <use x="2800.609375" xlink:href="#DejaVuSans-32"/>
     <use x="2832.396484" xlink:href="#DejaVuSans-61"/>
     <use x="2916.185547" xlink:href="#DejaVuSans-32"/>
     <use x="2947.972656" xlink:href="#DejaVuSans-48"/>
     <use x="3011.595703" xlink:href="#DejaVuSans-46"/>
     <use x="3043.382812" xlink:href="#DejaVuSans-49"/>
    </g>
   </g>
  </g>
 </g>
 <defs>
  <clipPath id="pe8602af6cc">
   <rect height="266.112" width="357.12" x="57.6" y="41.472"/>
  </clipPath>
 </defs>
</svg>
