<?xml version="1.0" encoding="utf-8" standalone="no"?>
<!DOCTYPE svg PUBLIC "-//W3C//DTD SVG 1.1//EN"
  "http://www.w3.org/Graphics/SVG/1.1/DTD/svg11.dtd">
<!-- Created with matplotlib (https://matplotlib.org/) -->
<svg height="345.6pt" version="1.1" viewBox="0 0 460.8 345.6" width="460.8pt" xmlns="http://www.w3.org/2000/svg" xmlns:xlink="http://www.w3.org/1999/xlink">
 <defs>
  <style type="text/css">
*{stroke-linecap:butt;stroke-linejoin:round;}
  </style>
 </defs>
 <g id="figure_1">
  <g id="patch_1">
   <path d="M 0 345.6 
L 460.8 345.6 
L 460.8 0 
L 0 0 
z
" style="fill:#ffffff;"/>
  </g>
  <g id="axes_1">
   <g id="patch_2">
    <path d="M 57.6 307.584 
L 414.72 307.584 
L 414.72 41.472 
L 57.6 41.472 
z
" style="fill:#ffffff;"/>
   </g>
   <g id="line2d_1">
    <path clip-path="url(#p896f4243ab)" d="M 74.334716 293.835396 
L 74.836705 293.835396 
L 74.965121 293.42168 
L 74.836705 293.007963 
L 74.587656 292.388519 
L 74.587656 292.182792 
L 74.587656 293.007963 
L 74.712181 293.42168 
L 74.965121 293.629668 
L 74.836705 293.629668 
L 74.210192 293.629668 
L 73.832727 293.835396 
L 74.210192 293.629668 
L 74.965121 293.42168 
L 75.46711 293.007963 
L 75.342586 292.802236 
L 74.836705 292.802236 
L 74.836705 293.215952 
L 75.089645 293.215952 
L 75.089645 293.007963 
L 74.965121 293.215952 
L 74.965121 293.835396 
L 74.965121 293.42168 
L 75.218061 292.802236 
L 75.72005 292.596508 
L 75.46711 293.007963 
L 75.46711 292.802236 
L 75.46711 292.596508 
L 75.46711 292.596508 
L 75.72005 292.596508 
L 75.844574 292.802236 
L 75.595526 293.007963 
L 75.342586 292.802236 
L 75.342586 292.596508 
L 75.342586 292.802236 
L 75.72005 293.629668 
L 75.46711 293.835396 
L 75.089645 294.45484 
L 75.72005 293.42168 
L 76.097515 293.42168 
L 75.97299 293.835396 
L 75.72005 293.835396 
L 75.97299 293.215952 
L 75.97299 293.42168 
L 76.097515 294.041124 
L 76.097515 293.835396 
L 76.350455 293.835396 
L 76.350455 293.835396 
L 75.97299 293.42168 
L 76.097515 293.215952 
L 76.222039 293.629668 
L 76.097515 293.629668 
L 76.097515 293.629668 
L 76.097515 293.835396 
L 75.844574 293.835396 
L 75.72005 294.041124 
L 75.844574 294.041124 
L 76.474979 294.041124 
L 76.599504 293.835396 
L 76.599504 294.041124 
L 76.599504 294.249112 
L 76.222039 294.249112 
L 76.222039 294.041124 
L 76.474979 294.249112 
L 76.474979 294.249112 
L 76.599504 293.629668 
L 76.852444 293.215952 
L 77.105384 293.42168 
L 76.976968 294.041124 
L 76.727919 294.45484 
L 76.350455 294.041124 
L 76.350455 293.42168 
L 76.474979 293.215952 
L 76.599504 293.42168 
L 76.097515 294.041124 
L 75.97299 293.629668 
L 76.852444 293.629668 
L 76.599504 293.629668 
L 76.727919 293.835396 
L 76.727919 293.42168 
L 76.852444 293.215952 
L 76.727919 293.007963 
L 76.599504 293.215952 
L 76.852444 293.215952 
L 76.976968 293.42168 
L 76.976968 293.42168 
L 76.599504 293.42168 
L 76.350455 293.629668 
L 76.222039 294.249112 
L 76.474979 294.249112 
L 76.727919 294.041124 
L 76.852444 293.629668 
L 77.229908 293.215952 
L 77.354433 293.42168 
L 77.105384 293.215952 
L 76.976968 293.42168 
L 77.105384 293.835396 
L 77.354433 294.041124 
L 77.482848 293.629668 
L 77.482848 293.629668 
L 77.354433 293.42168 
L 77.354433 293.42168 
L 77.354433 292.596508 
L 77.354433 292.802236 
L 77.860313 293.215952 
L 77.735789 293.42168 
L 77.229908 293.835396 
L 76.852444 293.835396 
L 76.852444 293.835396 
L 77.229908 294.45484 
L 77.229908 293.629668 
L 77.354433 293.42168 
L 77.607373 293.629668 
L 77.607373 293.629668 
L 77.860313 293.007963 
L 77.482848 293.007963 
L 77.354433 293.215952 
L 77.482848 293.215952 
L 77.735789 293.42168 
L 78.113253 293.007963 
L 77.860313 293.42168 
L 77.984837 293.42168 
L 78.113253 293.007963 
L 77.735789 294.249112 
L 77.735789 294.249112 
L 77.984837 294.041124 
L 77.984837 294.249112 
L 77.735789 294.868556 
L 77.607373 294.662828 
L 77.984837 294.249112 
L 78.113253 294.249112 
L 78.362302 294.041124 
L 78.615242 294.041124 
L 78.739767 293.835396 
L 78.615242 293.629668 
L 78.615242 293.629668 
L 78.739767 293.215952 
L 78.868182 293.215952 
L 78.868182 293.42168 
L 78.237778 294.45484 
L 78.362302 294.662828 
L 78.868182 294.662828 
L 78.615242 294.45484 
L 78.615242 293.835396 
L 78.739767 293.835396 
L 78.615242 294.041124 
L 78.739767 293.835396 
L 78.868182 294.249112 
L 78.868182 294.662828 
L 78.490718 294.662828 
L 78.490718 294.868556 
L 78.362302 294.868556 
L 78.237778 294.662828 
L 78.490718 294.45484 
L 78.992707 294.45484 
L 79.245647 294.868556 
L 79.117231 295.074284 
L 78.739767 294.662828 
L 78.992707 294.041124 
L 78.362302 293.629668 
L 78.113253 293.629668 
L 78.113253 294.041124 
L 78.362302 294.249112 
L 78.615242 294.041124 
L 78.615242 294.249112 
L 78.868182 294.662828 
L 79.117231 294.249112 
L 78.739767 294.868556 
L 78.615242 294.868556 
L 78.615242 294.662828 
L 78.868182 294.45484 
L 79.117231 294.662828 
L 79.245647 295.488 
L 79.494696 295.074284 
L 79.494696 294.45484 
L 79.370171 294.249112 
L 79.370171 293.215952 
L 79.494696 292.802236 
L 83.020293 289.083311 
L 85.28508 285.778103 
L 87.047878 284.125499 
L 94.729477 279.78713 
L 98.002133 277.928798 
L 101.652255 276.276194 
L 105.804365 274.621329 
L 110.213307 273.59043 
L 123.556873 271.110393 
L 127.961924 269.663516 
L 132.366974 267.805185 
L 136.772024 265.738864 
L 141.430015 263.880532 
L 146.46547 262.01994 
L 151.629341 259.747891 
L 156.664796 257.267855 
L 161.700251 254.376363 
L 166.482766 251.276882 
L 171.012341 248.179662 
L 175.421282 244.872193 
L 180.079273 241.155529 
L 185.239252 237.436605 
L 190.527648 233.923408 
L 195.563103 230.204483 
L 205.505597 223.18035 
L 210.416528 220.083131 
L 215.323567 217.603094 
L 220.234498 214.917329 
L 229.927943 208.306913 
L 239.115509 202.521668 
L 243.648975 199.630176 
L 248.182441 196.944411 
L 252.334551 194.878091 
L 256.362137 192.606043 
L 260.518138 190.126006 
L 264.4212 188.267674 
L 268.195845 186.61507 
L 271.721442 184.754477 
L 275.118623 183.101873 
L 280.909007 180.829825 
L 286.325819 179.177221 
L 290.100464 177.730344 
L 293.497645 175.252569 
L 294.882979 175.04458 
L 296.015373 175.04458 
L 296.521253 174.838852 
L 297.151658 174.219408 
L 297.023242 174.219408 
L 297.276182 174.425136 
L 297.653647 174.425136 
L 297.529122 174.425136 
L 297.906587 174.01142 
L 298.284051 173.597704 
L 298.284051 173.391976 
L 297.653647 172.97826 
L 297.276182 172.97826 
L 296.521253 173.186248 
L 296.645777 173.186248 
L 297.023242 172.772532 
L 297.276182 171.533644 
L 297.778171 171.533644 
L 298.031111 171.325656 
L 298.031111 170.9142 
L 297.906587 170.706212 
L 297.906587 170.706212 
L 297.529122 171.119928 
L 297.400707 171.119928 
L 297.400707 170.500484 
L 297.529122 170.500484 
L 297.276182 170.500484 
L 297.151658 170.086768 
L 297.276182 169.88104 
L 297.151658 169.467324 
L 296.898718 169.259335 
L 296.774193 169.467324 
L 297.276182 168.639891 
L 297.400707 168.639891 
L 297.400707 168.020447 
L 297.400707 168.434163 
L 297.778171 169.053607 
L 297.653647 168.84788 
L 297.400707 168.84788 
L 297.529122 168.84788 
L 297.276182 167.814719 
L 297.151658 167.606731 
L 297.276182 167.606731 
L 297.778171 168.228436 
L 297.529122 168.228436 
L 297.400707 168.228436 
L 297.276182 167.814719 
L 297.276182 167.401003 
L 297.151658 167.195275 
L 297.276182 167.195275 
L 297.653647 166.987287 
L 297.906587 166.573571 
L 297.778171 166.367843 
L 297.276182 166.987287 
L 297.023242 167.195275 
L 297.276182 167.195275 
L 297.906587 166.781559 
L 298.031111 166.987287 
L 297.778171 167.401003 
L 297.653647 166.987287 
L 298.031111 166.162115 
L 298.408576 165.748399 
L 298.284051 165.542671 
L 298.031111 165.542671 
L 298.031111 165.954127 
L 297.906587 166.573571 
L 297.653647 166.573571 
L 297.400707 166.162115 
L 297.400707 166.162115 
L 297.778171 166.162115 
L 297.653647 165.954127 
L 297.400707 165.748399 
L 297.400707 165.954127 
L 297.778171 166.987287 
L 297.778171 166.987287 
L 297.906587 166.573571 
L 297.653647 166.367843 
L 297.653647 168.020447 
L 297.276182 167.195275 
L 297.400707 166.573571 
L 297.906587 166.162115 
L 297.653647 165.748399 
L 297.778171 165.748399 
L 298.031111 165.748399 
L 298.284051 165.542671 
L 298.661516 165.542671 
L 299.416445 165.334683 
L 300.424314 164.920967 
L 303.191091 163.268362 
L 304.829365 163.062635 
L 306.841212 162.648918 
L 314.647335 160.171143 
L 317.165062 160.171143 
L 322.577982 160.996314 
L 325.34865 161.204303 
L 328.119317 161.823747 
L 330.637045 162.856907 
L 333.403821 163.682079 
L 336.427429 164.095795 
L 346.116983 166.162115 
L 349.393531 167.195275 
L 361.223349 171.945099 
L 364.246956 172.772532 
L 367.142149 174.219408 
L 372.555068 177.938333 
L 375.19732 178.969232 
L 377.590523 180.210381 
L 379.855311 182.068713 
L 381.995574 183.515589 
L 384.135837 184.754477 
L 386.400624 185.787638 
L 388.540887 186.61507 
L 390.179161 187.64597 
L 391.311555 188.67913 
L 393.198877 191.572883 
L 395.214616 193.225487 
L 395.845021 194.464375 
L 396.222485 195.703263 
L 396.34701 196.530695 
L 396.34701 199.010732 
L 396.471534 201.488508 
L 396.471534 203.760556 
L 396.34701 203.968544 
L 395.716605 204.587988 
L 395.463665 205.41316 
L 395.592081 206.44632 
L 395.592081 208.306913 
L 395.33914 208.512641 
L 395.33914 208.718368 
L 395.716605 209.545801 
L 395.845021 209.340073 
L 396.09407 209.545801 
L 395.716605 209.959517 
L 395.463665 210.165245 
L 395.33914 210.578961 
L 395.33914 210.992677 
L 395.592081 211.198405 
L 395.592081 211.404133 
L 395.33914 211.198405 
L 395.33914 212.025837 
L 395.33914 212.025837 
L 395.592081 211.404133 
L 395.463665 212.025837 
L 395.716605 212.231565 
L 395.716605 212.437293 
L 395.463665 213.058998 
L 395.845021 213.058998 
L 395.716605 213.058998 
L 395.592081 212.851009 
L 395.592081 212.851009 
L 395.969545 212.437293 
L 395.969545 213.058998 
L 395.969545 213.058998 
L 395.716605 213.264725 
L 395.463665 213.264725 
L 395.33914 212.851009 
L 395.33914 212.645281 
L 395.592081 212.645281 
L 395.845021 212.851009 
L 395.716605 213.264725 
L 395.592081 213.264725 
L 395.969545 213.058998 
L 395.716605 214.089897 
L 395.716605 214.089897 
L 396.222485 214.089897 
L 396.222485 214.297886 
L 395.463665 214.917329 
L 395.463665 214.917329 
L 396.09407 213.884169 
L 395.969545 214.297886 
L 396.222485 216.156217 
L 396.222485 215.331046 
L 396.34701 214.297886 
L 396.222485 214.297886 
L 395.845021 214.917329 
L 395.845021 215.331046 
L 396.09407 215.331046 
L 396.471534 215.123057 
L 395.969545 215.95049 
L 395.463665 216.156217 
L 395.33914 215.95049 
L 395.463665 215.536773 
L 395.716605 215.331046 
L 396.222485 215.536773 
L 395.716605 215.95049 
L 395.845021 215.742501 
L 395.845021 215.536773 
L 396.09407 215.331046 
L 396.471534 215.536773 
L 396.59995 215.536773 
L 396.59995 215.742501 
L 396.471534 215.95049 
L 395.969545 214.917329 
L 396.222485 215.536773 
L 396.09407 215.536773 
L 396.09407 215.331046 
L 396.34701 215.536773 
L 396.848999 215.742501 
L 397.101939 215.536773 
L 397.101939 215.123057 
L 396.848999 215.123057 
L 396.848999 215.123057 
L 396.59995 215.536773 
L 396.34701 215.742501 
L 396.724474 215.331046 
L 396.724474 215.331046 
L 396.471534 214.917329 
L 395.969545 216.569934 
L 396.222485 215.742501 
L 396.59995 215.742501 
L 396.471534 215.95049 
L 395.969545 215.95049 
L 395.845021 215.742501 
L 396.09407 215.95049 
L 396.848999 215.95049 
L 396.59995 216.569934 
L 396.848999 215.95049 
L 396.724474 215.95049 
L 396.59995 216.364206 
L 396.59995 217.189378 
L 396.848999 217.189378 
L 396.977414 217.397366 
L 396.848999 217.808822 
L 396.724474 217.603094 
L 396.977414 216.775661 
L 397.732344 216.775661 
L 397.101939 217.603094 
L 397.101939 218.01681 
L 396.977414 218.01681 
L 396.977414 218.01681 
L 396.977414 217.603094 
L 396.848999 217.603094 
L 396.724474 218.01681 
L 396.724474 218.428266 
L 396.848999 218.428266 
L 396.977414 218.222538 
L 396.977414 217.808822 
L 397.101939 217.189378 
L 397.354879 216.98365 
L 397.479403 217.397366 
L 397.101939 218.428266 
L 397.354879 217.808822 
L 397.603928 217.397366 
L 397.603928 217.397366 
L 397.101939 217.603094 
L 396.977414 217.397366 
L 397.101939 217.397366 
L 397.226463 217.189378 
L 396.977414 217.397366 
L 396.848999 217.603094 
L 397.226463 218.222538 
L 397.101939 218.222538 
L 396.977414 218.222538 
L 397.732344 218.222538 
L 397.354879 217.808822 
L 397.101939 217.808822 
L 396.848999 218.01681 
L 396.59995 218.01681 
L 396.59995 218.222538 
L 397.101939 218.636254 
L 396.977414 218.636254 
L 396.59995 219.255698 
L 396.848999 218.636254 
L 396.848999 218.428266 
L 397.101939 218.428266 
L 397.354879 218.636254 
L 397.101939 218.841982 
L 396.59995 218.636254 
L 396.34701 218.841982 
L 396.471534 219.04997 
L 396.977414 218.428266 
L 397.101939 219.04997 
L 396.848999 219.875142 
L 397.101939 219.875142 
L 397.354879 219.669414 
L 397.354879 219.461426 
L 397.603928 219.04997 
L 396.848999 220.288858 
L 396.724474 220.083131 
L 396.848999 219.875142 
L 396.471534 219.255698 
L 396.471534 219.875142 
L 396.724474 220.083131 
L 396.977414 220.083131 
L 397.354879 219.669414 
L 397.354879 219.669414 
L 396.724474 218.841982 
L 396.59995 219.04997 
L 397.101939 219.669414 
L 397.101939 219.669414 
L 397.226463 219.255698 
L 397.226463 218.841982 
L 397.354879 218.841982 
L 397.354879 219.255698 
L 397.226463 219.04997 
L 397.479403 218.428266 
L 397.479403 218.428266 
L 397.732344 217.808822 
L 397.101939 218.222538 
L 397.226463 218.01681 
L 397.354879 217.603094 
L 397.226463 218.222538 
L 397.101939 218.01681 
L 397.101939 217.808822 
L 397.226463 217.603094 
L 397.226463 217.808822 
L 397.479403 218.428266 
L 397.354879 218.222538 
L 397.479403 217.808822 
L 397.732344 217.808822 
L 397.856868 218.01681 
L 397.856868 217.603094 
L 397.479403 216.775661 
L 397.479403 216.98365 
L 397.354879 217.397366 
L 397.479403 217.397366 
L 397.603928 216.98365 
L 397.603928 216.364206 
L 397.226463 215.95049 
L 397.354879 215.536773 
L 397.603928 215.536773 
L 397.856868 216.775661 
L 398.109808 216.98365 
L 398.109808 216.775661 
L 398.109808 216.775661 
L 398.234333 216.98365 
L 398.234333 216.775661 
L 398.487273 216.775661 
L 398.487273 216.775661 
L 397.981392 216.156217 
L 397.981392 215.95049 
L 397.981392 215.95049 
L 397.354879 215.95049 
L 397.479403 216.569934 
L 397.354879 216.775661 
L 397.354879 216.156217 
L 398.487273 213.884169 
L 398.362748 213.678442 
L 398.362748 212.851009 
L 398.487273 211.817849 
L 398.487273 210.373233 
L 397.479403 205.41316 
L 396.59995 202.521668 
L 395.463665 199.835903 
L 394.459687 196.530695 
L 393.576342 193.225487 
L 392.319424 189.920278 
L 388.540887 182.482429 
L 386.400624 178.969232 
L 384.260361 175.04458 
L 382.248514 170.706212 
L 380.108251 166.367843 
L 377.843463 162.235202 
L 375.952249 158.104822 
L 374.442391 153.766454 
L 371.547199 144.881728 
L 367.897078 136.824435 
L 366.387219 132.694055 
L 364.877361 127.94197 
L 358.958561 113.893704 
L 357.195763 109.141619 
L 355.685905 104.389535 
L 352.790712 96.953946 
L 349.64258 86.416616 
L 348.763127 82.90568 
L 348.385662 79.186756 
L 347.755257 76.087275 
L 345.867935 70.510019 
L 345.49047 68.23571 
L 345.49047 65.963662 
L 345.113005 57.700641 
L 345.113005 56.461753 
L 345.23753 55.63432 
L 345.23753 54.809149 
L 344.482601 53.568 
L 344.358076 53.775988 
L 344.482601 54.187444 
L 344.358076 54.60116 
L 344.607125 54.60116 
L 344.860065 54.809149 
L 344.358076 55.63432 
L 344.735541 55.842309 
L 345.113005 56.667481 
L 344.735541 56.048037 
L 344.482601 56.048037 
L 344.105136 56.461753 
L 344.105136 56.253764 
L 344.358076 56.461753 
L 344.358076 56.667481 
L 344.105136 57.081197 
L 343.852196 57.081197 
L 343.852196 56.873208 
L 344.105136 56.461753 
L 343.727672 57.081197 
L 343.852196 57.081197 
L 344.105136 57.286925 
L 344.358076 57.286925 
L 344.105136 57.286925 
L 343.350207 58.320085 
L 343.350207 58.733801 
L 343.474731 58.733801 
L 343.350207 58.733801 
L 343.097267 59.353245 
L 343.097267 59.766961 
L 343.097267 59.766961 
L 342.972742 59.353245 
L 342.844327 59.558973 
L 342.719802 60.180677 
L 342.342338 60.800121 
L 341.964873 61.005849 
L 341.840349 61.211577 
L 342.089398 61.625293 
L 341.964873 62.039009 
L 341.711933 62.039009 
L 341.462884 61.833282 
L 341.462884 61.833282 
L 341.587409 62.244737 
L 341.334468 62.658453 
L 341.334468 63.07217 
L 341.209944 63.691614 
L 341.209944 63.691614 
L 341.462884 63.691614 
L 341.462884 64.10533 
L 340.957004 64.311057 
L 340.579539 64.311057 
L 340.326599 64.519046 
L 340.07755 65.13849 
L 340.704064 65.757934 
L 340.579539 65.963662 
L 340.326599 65.963662 
L 339.82461 65.757934 
L 339.82461 65.757934 
L 339.194205 66.996822 
L 339.194205 67.20481 
L 339.069681 67.616266 
L 338.945157 67.616266 
L 338.692217 67.824254 
L 338.692217 68.029982 
L 338.816741 68.23571 
L 338.945157 67.824254 
L 338.692217 67.616266 
L 338.314752 67.824254 
L 338.314752 68.443698 
L 338.692217 69.26887 
L 337.937287 69.26887 
L 337.684347 69.476859 
L 338.061812 70.30203 
L 337.937287 70.30203 
L 336.929418 70.921474 
L 337.053942 71.33519 
L 337.182358 71.33519 
L 337.306883 70.921474 
L 337.053942 71.748907 
L 336.676478 71.748907 
L 336.676478 71.543179 
L 337.053942 71.129463 
L 336.929418 71.129463 
L 336.551954 70.921474 
L 336.427429 71.129463 
L 336.174489 72.576339 
L 335.921549 72.576339 
L 335.921549 72.576339 
L 335.921549 72.782067 
L 336.049965 72.782067 
L 336.049965 72.782067 
L 336.299013 73.607239 
L 336.299013 73.401511 
L 336.299013 73.195783 
L 336.427429 73.195783 
L 336.551954 73.401511 
L 336.427429 73.401511 
L 335.668609 73.815227 
L 335.41956 73.815227 
L 335.544084 72.368351 
L 335.291144 72.782067 
L 335.042095 73.607239 
L 335.042095 74.020955 
L 334.91368 74.020955 
L 334.789155 73.607239 
L 335.042095 73.401511 
L 335.41956 73.401511 
L 335.544084 73.607239 
L 335.291144 73.607239 
L 334.664631 74.640399 
L 334.536215 74.640399 
L 334.664631 74.228943 
L 334.536215 74.020955 
L 333.781286 73.815227 
L 333.909702 73.607239 
L 334.15875 73.607239 
L 334.411691 74.020955 
L 334.411691 73.815227 
L 334.664631 73.607239 
L 334.789155 73.401511 
L 334.664631 73.195783 
L 334.411691 73.401511 
L 334.411691 73.607239 
L 334.536215 74.020955 
L 334.664631 74.020955 
L 334.536215 74.020955 
L 334.536215 74.228943 
L 334.789155 74.020955 
L 334.789155 72.987795 
L 334.287166 72.368351 
L 334.034226 73.195783 
L 334.411691 73.195783 
L 335.042095 72.576339 
L 335.16662 72.576339 
L 335.16662 72.576339 
L 335.16662 72.782067 
L 335.41956 72.782067 
L 335.797024 72.162623 
L 335.797024 71.748907 
L 335.668609 71.129463 
L 335.544084 71.129463 
L 335.544084 71.33519 
L 335.41956 71.543179 
L 335.544084 71.543179 
L 335.544084 71.748907 
L 335.41956 71.954634 
L 335.668609 72.162623 
L 335.921549 72.162623 
L 336.049965 71.748907 
L 336.551954 71.129463 
L 337.053942 71.129463 
L 337.053942 71.129463 
L 337.559823 70.510019 
L 337.559823 70.510019 
L 337.053942 69.682586 
L 337.053942 69.476859 
L 337.559823 68.857415 
L 337.306883 69.063142 
L 336.804894 69.26887 
L 336.174489 68.857415 
L 335.544084 68.23571 
L 334.536215 67.824254 
L 333.154772 67.410538 
L 327.737961 66.791094 
L 324.971185 66.791094 
L 322.075993 67.20481 
L 312.635488 69.063142 
L 309.234415 69.476859 
L 301.934173 71.129463 
L 290.602453 75.467831 
L 286.450343 76.706719 
L 282.045293 77.739879 
L 277.764767 79.186756 
L 263.537855 85.591445 
L 259.132805 87.863493 
L 250.069764 91.788145 
L 245.411773 93.854466 
L 236.597781 98.192834 
L 232.321146 100.051166 
L 228.040621 102.117486 
L 224.013035 104.803251 
L 219.981558 107.697004 
L 215.829447 110.17478 
L 211.673446 112.035372 
L 207.64586 114.099432 
L 200.092677 119.059505 
L 190.274707 126.289366 
L 187.379515 128.769402 
L 184.986312 131.041451 
L 182.974465 133.107771 
L 179.071404 136.618707 
L 176.176211 139.718188 
L 174.915402 141.370792 
L 173.658484 143.437112 
L 172.52609 146.122877 
L 170.510352 152.525305 
L 170.008363 154.591625 
L 169.755423 156.452218 
L 169.377958 158.104822 
L 168.875969 159.757426 
L 168.623029 162.029474 
L 168.623029 164.301523 
L 169.502482 168.639891 
L 170.132887 175.664024 
L 170.385827 176.905173 
L 170.385827 179.382949 
L 170.132887 182.896145 
L 170.634876 187.440242 
L 170.132887 189.300834 
L 170.385827 190.126006 
L 170.510352 190.953439 
L 170.132887 192.606043 
L 170.257412 193.225487 
L 170.132887 193.639203 
L 169.755423 194.258647 
L 170.008363 195.911251 
L 170.257412 196.736423 
L 170.510352 198.802743 
L 170.385827 199.835903 
L 170.634876 199.835903 
L 170.887816 199.630176 
L 171.012341 200.041631 
L 171.012341 201.488508 
L 170.763292 201.902224 
L 170.763292 202.31594 
L 171.140756 202.727396 
L 171.265281 202.935384 
L 171.265281 203.3491 
L 171.140756 205.207432 
L 171.140756 205.41316 
L 171.265281 205.41316 
L 171.265281 205.41316 
L 170.887816 206.034865 
L 170.887816 206.654309 
L 171.265281 207.687469 
L 170.887816 208.926357 
L 170.008363 210.165245 
L 170.132887 210.373233 
L 170.510352 210.373233 
L 170.634876 210.992677 
L 170.634876 211.612121 
L 170.763292 212.231565 
L 171.140756 212.231565 
L 171.012341 212.025837 
L 170.634876 212.231565 
L 170.257412 213.058998 
L 169.879947 213.470453 
L 170.008363 213.264725 
L 170.008363 213.058998 
L 169.755423 213.264725 
L 169.630898 213.884169 
L 169.879947 214.503613 
L 169.879947 214.917329 
L 169.377958 215.742501 
L 169.502482 215.95049 
L 170.132887 216.364206 
L 170.132887 216.364206 
L 170.132887 215.95049 
L 169.755423 216.156217 
L 169.502482 216.569934 
L 169.253434 218.222538 
L 169.377958 218.222538 
L 169.125018 219.04997 
L 169.377958 219.255698 
L 168.494613 219.669414 
L 168.494613 219.461426 
L 168.747553 219.255698 
L 169.000493 219.255698 
L 168.747553 219.461426 
L 168.623029 219.875142 
L 168.370089 220.288858 
L 168.370089 220.702574 
L 168.875969 221.735735 
L 168.875969 222.560906 
L 168.875969 222.560906 
L 168.747553 222.560906 
L 168.623029 222.14719 
L 168.623029 222.560906 
L 168.370089 222.560906 
L 168.245564 222.766634 
L 168.494613 222.974623 
L 168.747553 223.388339 
L 169.125018 223.594067 
L 169.253434 223.799794 
L 169.000493 224.007783 
L 168.494613 224.007783 
L 168.117149 224.627227 
L 168.245564 225.246671 
L 168.494613 225.452399 
L 168.494613 225.246671 
L 168.245564 225.040943 
L 167.8681 225.246671 
L 167.8681 225.866115 
L 168.117149 225.866115 
L 168.494613 225.660387 
L 168.623029 225.866115 
L 168.245564 226.279831 
L 168.370089 226.279831 
L 168.370089 226.899275 
L 168.245564 226.899275 
L 168.370089 226.485559 
L 168.245564 226.485559 
L 167.490635 227.518719 
L 167.490635 227.312991 
L 167.362219 227.107263 
L 167.490635 227.107263 
L 167.739684 227.312991 
L 167.992624 227.312991 
L 167.992624 227.312991 
L 167.992624 227.726707 
L 167.237695 229.171323 
L 167.113171 229.585039 
L 166.86023 228.346151 
L 166.358242 229.171323 
L 166.482766 228.759868 
L 166.482766 228.551879 
L 166.482766 228.965595 
L 166.60729 229.171323 
L 166.984755 229.171323 
L 167.362219 228.759868 
L 167.362219 228.551879 
L 166.735706 228.551879 
L 166.735706 228.346151 
L 166.86023 228.346151 
L 166.735706 227.932435 
L 166.86023 227.726707 
L 166.60729 227.107263 
L 166.984755 227.726707 
L 166.984755 227.726707 
L 166.86023 227.107263 
L 166.482766 226.693547 
L 166.358242 226.693547 
L 166.229826 226.899275 
L 166.60729 227.518719 
L 166.735706 226.899275 
L 166.735706 226.899275 
" style="fill:none;stroke:#1f77b4;stroke-linecap:square;stroke-width:1.5;"/>
   </g>
   <g id="matplotlib.axis_1">
    <g id="xtick_1">
     <g id="line2d_2">
      <defs>
       <path d="M 0 0 
L 0 3.5 
" id="me02358dfb0" style="stroke:#000000;stroke-width:0.8;"/>
      </defs>
      <g>
       <use style="stroke:#000000;stroke-width:0.8;" x="83.973682" xlink:href="#me02358dfb0" y="307.584"/>
      </g>
     </g>
     <g id="text_1">
      <!-- −600 -->
      <defs>
       <path d="M 10.59375 35.5 
L 73.1875 35.5 
L 73.1875 27.203125 
L 10.59375 27.203125 
z
" id="DejaVuSans-8722"/>
       <path d="M 33.015625 40.375 
Q 26.375 40.375 22.484375 35.828125 
Q 18.609375 31.296875 18.609375 23.390625 
Q 18.609375 15.53125 22.484375 10.953125 
Q 26.375 6.390625 33.015625 6.390625 
Q 39.65625 6.390625 43.53125 10.953125 
Q 47.40625 15.53125 47.40625 23.390625 
Q 47.40625 31.296875 43.53125 35.828125 
Q 39.65625 40.375 33.015625 40.375 
z
M 52.59375 71.296875 
L 52.59375 62.3125 
Q 48.875 64.0625 45.09375 64.984375 
Q 41.3125 65.921875 37.59375 65.921875 
Q 27.828125 65.921875 22.671875 59.328125 
Q 17.53125 52.734375 16.796875 39.40625 
Q 19.671875 43.65625 24.015625 45.921875 
Q 28.375 48.1875 33.59375 48.1875 
Q 44.578125 48.1875 50.953125 41.515625 
Q 57.328125 34.859375 57.328125 23.390625 
Q 57.328125 12.15625 50.6875 5.359375 
Q 44.046875 -1.421875 33.015625 -1.421875 
Q 20.359375 -1.421875 13.671875 8.265625 
Q 6.984375 17.96875 6.984375 36.375 
Q 6.984375 53.65625 15.1875 63.9375 
Q 23.390625 74.21875 37.203125 74.21875 
Q 40.921875 74.21875 44.703125 73.484375 
Q 48.484375 72.75 52.59375 71.296875 
z
" id="DejaVuSans-54"/>
       <path d="M 31.78125 66.40625 
Q 24.171875 66.40625 20.328125 58.90625 
Q 16.5 51.421875 16.5 36.375 
Q 16.5 21.390625 20.328125 13.890625 
Q 24.171875 6.390625 31.78125 6.390625 
Q 39.453125 6.390625 43.28125 13.890625 
Q 47.125 21.390625 47.125 36.375 
Q 47.125 51.421875 43.28125 58.90625 
Q 39.453125 66.40625 31.78125 66.40625 
z
M 31.78125 74.21875 
Q 44.046875 74.21875 50.515625 64.515625 
Q 56.984375 54.828125 56.984375 36.375 
Q 56.984375 17.96875 50.515625 8.265625 
Q 44.046875 -1.421875 31.78125 -1.421875 
Q 19.53125 -1.421875 13.0625 8.265625 
Q 6.59375 17.96875 6.59375 36.375 
Q 6.59375 54.828125 13.0625 64.515625 
Q 19.53125 74.21875 31.78125 74.21875 
z
" id="DejaVuSans-48"/>
      </defs>
      <g transform="translate(70.240089 322.182437)scale(0.1 -0.1)">
       <use xlink:href="#DejaVuSans-8722"/>
       <use x="83.789062" xlink:href="#DejaVuSans-54"/>
       <use x="147.412109" xlink:href="#DejaVuSans-48"/>
       <use x="211.035156" xlink:href="#DejaVuSans-48"/>
      </g>
     </g>
    </g>
    <g id="xtick_2">
     <g id="line2d_3">
      <g>
       <use style="stroke:#000000;stroke-width:0.8;" x="161.801427" xlink:href="#me02358dfb0" y="307.584"/>
      </g>
     </g>
     <g id="text_2">
      <!-- −400 -->
      <defs>
       <path d="M 37.796875 64.3125 
L 12.890625 25.390625 
L 37.796875 25.390625 
z
M 35.203125 72.90625 
L 47.609375 72.90625 
L 47.609375 25.390625 
L 58.015625 25.390625 
L 58.015625 17.1875 
L 47.609375 17.1875 
L 47.609375 0 
L 37.796875 0 
L 37.796875 17.1875 
L 4.890625 17.1875 
L 4.890625 26.703125 
z
" id="DejaVuSans-52"/>
      </defs>
      <g transform="translate(148.067833 322.182437)scale(0.1 -0.1)">
       <use xlink:href="#DejaVuSans-8722"/>
       <use x="83.789062" xlink:href="#DejaVuSans-52"/>
       <use x="147.412109" xlink:href="#DejaVuSans-48"/>
       <use x="211.035156" xlink:href="#DejaVuSans-48"/>
      </g>
     </g>
    </g>
    <g id="xtick_3">
     <g id="line2d_4">
      <g>
       <use style="stroke:#000000;stroke-width:0.8;" x="239.629172" xlink:href="#me02358dfb0" y="307.584"/>
      </g>
     </g>
     <g id="text_3">
      <!-- −200 -->
      <defs>
       <path d="M 19.1875 8.296875 
L 53.609375 8.296875 
L 53.609375 0 
L 7.328125 0 
L 7.328125 8.296875 
Q 12.9375 14.109375 22.625 23.890625 
Q 32.328125 33.6875 34.8125 36.53125 
Q 39.546875 41.84375 41.421875 45.53125 
Q 43.3125 49.21875 43.3125 52.78125 
Q 43.3125 58.59375 39.234375 62.25 
Q 35.15625 65.921875 28.609375 65.921875 
Q 23.96875 65.921875 18.8125 64.3125 
Q 13.671875 62.703125 7.8125 59.421875 
L 7.8125 69.390625 
Q 13.765625 71.78125 18.9375 73 
Q 24.125 74.21875 28.421875 74.21875 
Q 39.75 74.21875 46.484375 68.546875 
Q 53.21875 62.890625 53.21875 53.421875 
Q 53.21875 48.921875 51.53125 44.890625 
Q 49.859375 40.875 45.40625 35.40625 
Q 44.1875 33.984375 37.640625 27.21875 
Q 31.109375 20.453125 19.1875 8.296875 
z
" id="DejaVuSans-50"/>
      </defs>
      <g transform="translate(225.895578 322.182437)scale(0.1 -0.1)">
       <use xlink:href="#DejaVuSans-8722"/>
       <use x="83.789062" xlink:href="#DejaVuSans-50"/>
       <use x="147.412109" xlink:href="#DejaVuSans-48"/>
       <use x="211.035156" xlink:href="#DejaVuSans-48"/>
      </g>
     </g>
    </g>
    <g id="xtick_4">
     <g id="line2d_5">
      <g>
       <use style="stroke:#000000;stroke-width:0.8;" x="317.456916" xlink:href="#me02358dfb0" y="307.584"/>
      </g>
     </g>
     <g id="text_4">
      <!-- 0 -->
      <g transform="translate(314.275666 322.182437)scale(0.1 -0.1)">
       <use xlink:href="#DejaVuSans-48"/>
      </g>
     </g>
    </g>
    <g id="xtick_5">
     <g id="line2d_6">
      <g>
       <use style="stroke:#000000;stroke-width:0.8;" x="395.284661" xlink:href="#me02358dfb0" y="307.584"/>
      </g>
     </g>
     <g id="text_5">
      <!-- 200 -->
      <g transform="translate(385.740911 322.182437)scale(0.1 -0.1)">
       <use xlink:href="#DejaVuSans-50"/>
       <use x="63.623047" xlink:href="#DejaVuSans-48"/>
       <use x="127.246094" xlink:href="#DejaVuSans-48"/>
      </g>
     </g>
    </g>
   </g>
   <g id="matplotlib.axis_2">
    <g id="ytick_1">
     <g id="line2d_7">
      <defs>
       <path d="M 0 0 
L -3.5 0 
" id="me3069e62cc" style="stroke:#000000;stroke-width:0.8;"/>
      </defs>
      <g>
       <use style="stroke:#000000;stroke-width:0.8;" x="57.6" xlink:href="#me3069e62cc" y="287.057684"/>
      </g>
     </g>
     <g id="text_6">
      <!-- −800 -->
      <defs>
       <path d="M 31.78125 34.625 
Q 24.75 34.625 20.71875 30.859375 
Q 16.703125 27.09375 16.703125 20.515625 
Q 16.703125 13.921875 20.71875 10.15625 
Q 24.75 6.390625 31.78125 6.390625 
Q 38.8125 6.390625 42.859375 10.171875 
Q 46.921875 13.96875 46.921875 20.515625 
Q 46.921875 27.09375 42.890625 30.859375 
Q 38.875 34.625 31.78125 34.625 
z
M 21.921875 38.8125 
Q 15.578125 40.375 12.03125 44.71875 
Q 8.5 49.078125 8.5 55.328125 
Q 8.5 64.0625 14.71875 69.140625 
Q 20.953125 74.21875 31.78125 74.21875 
Q 42.671875 74.21875 48.875 69.140625 
Q 55.078125 64.0625 55.078125 55.328125 
Q 55.078125 49.078125 51.53125 44.71875 
Q 48 40.375 41.703125 38.8125 
Q 48.828125 37.15625 52.796875 32.3125 
Q 56.78125 27.484375 56.78125 20.515625 
Q 56.78125 9.90625 50.3125 4.234375 
Q 43.84375 -1.421875 31.78125 -1.421875 
Q 19.734375 -1.421875 13.25 4.234375 
Q 6.78125 9.90625 6.78125 20.515625 
Q 6.78125 27.484375 10.78125 32.3125 
Q 14.796875 37.15625 21.921875 38.8125 
z
M 18.3125 54.390625 
Q 18.3125 48.734375 21.84375 45.5625 
Q 25.390625 42.390625 31.78125 42.390625 
Q 38.140625 42.390625 41.71875 45.5625 
Q 45.3125 48.734375 45.3125 54.390625 
Q 45.3125 60.0625 41.71875 63.234375 
Q 38.140625 66.40625 31.78125 66.40625 
Q 25.390625 66.40625 21.84375 63.234375 
Q 18.3125 60.0625 18.3125 54.390625 
z
" id="DejaVuSans-56"/>
      </defs>
      <g transform="translate(23.132812 290.856903)scale(0.1 -0.1)">
       <use xlink:href="#DejaVuSans-8722"/>
       <use x="83.789062" xlink:href="#DejaVuSans-56"/>
       <use x="147.412109" xlink:href="#DejaVuSans-48"/>
       <use x="211.035156" xlink:href="#DejaVuSans-48"/>
      </g>
     </g>
    </g>
    <g id="ytick_2">
     <g id="line2d_8">
      <g>
       <use style="stroke:#000000;stroke-width:0.8;" x="57.6" xlink:href="#me3069e62cc" y="241.842796"/>
      </g>
     </g>
     <g id="text_7">
      <!-- −600 -->
      <g transform="translate(23.132812 245.642014)scale(0.1 -0.1)">
       <use xlink:href="#DejaVuSans-8722"/>
       <use x="83.789062" xlink:href="#DejaVuSans-54"/>
       <use x="147.412109" xlink:href="#DejaVuSans-48"/>
       <use x="211.035156" xlink:href="#DejaVuSans-48"/>
      </g>
     </g>
    </g>
    <g id="ytick_3">
     <g id="line2d_9">
      <g>
       <use style="stroke:#000000;stroke-width:0.8;" x="57.6" xlink:href="#me3069e62cc" y="196.627907"/>
      </g>
     </g>
     <g id="text_8">
      <!-- −400 -->
      <g transform="translate(23.132812 200.427126)scale(0.1 -0.1)">
       <use xlink:href="#DejaVuSans-8722"/>
       <use x="83.789062" xlink:href="#DejaVuSans-52"/>
       <use x="147.412109" xlink:href="#DejaVuSans-48"/>
       <use x="211.035156" xlink:href="#DejaVuSans-48"/>
      </g>
     </g>
    </g>
    <g id="ytick_4">
     <g id="line2d_10">
      <g>
       <use style="stroke:#000000;stroke-width:0.8;" x="57.6" xlink:href="#me3069e62cc" y="151.413019"/>
      </g>
     </g>
     <g id="text_9">
      <!-- −200 -->
      <g transform="translate(23.132812 155.212237)scale(0.1 -0.1)">
       <use xlink:href="#DejaVuSans-8722"/>
       <use x="83.789062" xlink:href="#DejaVuSans-50"/>
       <use x="147.412109" xlink:href="#DejaVuSans-48"/>
       <use x="211.035156" xlink:href="#DejaVuSans-48"/>
      </g>
     </g>
    </g>
    <g id="ytick_5">
     <g id="line2d_11">
      <g>
       <use style="stroke:#000000;stroke-width:0.8;" x="57.6" xlink:href="#me3069e62cc" y="106.19813"/>
      </g>
     </g>
     <g id="text_10">
      <!-- 0 -->
      <g transform="translate(44.2375 109.997349)scale(0.1 -0.1)">
       <use xlink:href="#DejaVuSans-48"/>
      </g>
     </g>
    </g>
    <g id="ytick_6">
     <g id="line2d_12">
      <g>
       <use style="stroke:#000000;stroke-width:0.8;" x="57.6" xlink:href="#me3069e62cc" y="60.983242"/>
      </g>
     </g>
     <g id="text_11">
      <!-- 200 -->
      <g transform="translate(31.5125 64.78246)scale(0.1 -0.1)">
       <use xlink:href="#DejaVuSans-50"/>
       <use x="63.623047" xlink:href="#DejaVuSans-48"/>
       <use x="127.246094" xlink:href="#DejaVuSans-48"/>
      </g>
     </g>
    </g>
   </g>
   <g id="line2d_13">
    <path clip-path="url(#p896f4243ab)" d="M 79.241342 292.474291 
L 294.584788 170.755302 
L 394.370336 209.659441 
L 396.631871 215.328243 
L 339.298668 68.175949 
L 170.303584 197.682805 
" style="fill:none;stroke:#ff0000;stroke-linecap:square;stroke-width:0.5;"/>
   </g>
   <g id="patch_3">
    <path d="M 57.6 307.584 
L 57.6 41.472 
" style="fill:none;stroke:#000000;stroke-linecap:square;stroke-linejoin:miter;stroke-width:0.8;"/>
   </g>
   <g id="patch_4">
    <path d="M 414.72 307.584 
L 414.72 41.472 
" style="fill:none;stroke:#000000;stroke-linecap:square;stroke-linejoin:miter;stroke-width:0.8;"/>
   </g>
   <g id="patch_5">
    <path d="M 57.6 307.584 
L 414.72 307.584 
" style="fill:none;stroke:#000000;stroke-linecap:square;stroke-linejoin:miter;stroke-width:0.8;"/>
   </g>
   <g id="patch_6">
    <path d="M 57.6 41.472 
L 414.72 41.472 
" style="fill:none;stroke:#000000;stroke-linecap:square;stroke-linejoin:miter;stroke-width:0.8;"/>
   </g>
   <g id="PathCollection_1">
    <defs>
     <path d="M 0 2.738613 
C 0.726289 2.738613 1.422928 2.450055 1.936492 1.936492 
C 2.450055 1.422928 2.738613 0.726289 2.738613 0 
C 2.738613 -0.726289 2.450055 -1.422928 1.936492 -1.936492 
C 1.422928 -2.450055 0.726289 -2.738613 0 -2.738613 
C -0.726289 -2.738613 -1.422928 -2.450055 -1.936492 -1.936492 
C -2.450055 -1.422928 -2.738613 -0.726289 -2.738613 0 
C -2.738613 0.726289 -2.450055 1.422928 -1.936492 1.936492 
C -1.422928 2.450055 -0.726289 2.738613 0 2.738613 
z
" id="m41d558bbce" style="stroke:#ff0000;"/>
    </defs>
    <g clip-path="url(#p896f4243ab)">
     <use style="fill:#ff0000;stroke:#ff0000;" x="79.241342" xlink:href="#m41d558bbce" y="292.474291"/>
     <use style="fill:#ff0000;stroke:#ff0000;" x="294.584788" xlink:href="#m41d558bbce" y="170.755302"/>
     <use style="fill:#ff0000;stroke:#ff0000;" x="394.370336" xlink:href="#m41d558bbce" y="209.659441"/>
     <use style="fill:#ff0000;stroke:#ff0000;" x="396.631871" xlink:href="#m41d558bbce" y="215.328243"/>
     <use style="fill:#ff0000;stroke:#ff0000;" x="339.298668" xlink:href="#m41d558bbce" y="68.175949"/>
     <use style="fill:#ff0000;stroke:#ff0000;" x="170.303584" xlink:href="#m41d558bbce" y="197.682805"/>
    </g>
   </g>
   <g id="text_12">
    <!-- (61) Subject: s27, Known = False, Degree = 2, Duration = 0.1 -->
    <defs>
     <path d="M 31 75.875 
Q 24.46875 64.65625 21.28125 53.65625 
Q 18.109375 42.671875 18.109375 31.390625 
Q 18.109375 20.125 21.3125 9.0625 
Q 24.515625 -2 31 -13.1875 
L 23.1875 -13.1875 
Q 15.875 -1.703125 12.234375 9.375 
Q 8.59375 20.453125 8.59375 31.390625 
Q 8.59375 42.28125 12.203125 53.3125 
Q 15.828125 64.359375 23.1875 75.875 
z
" id="DejaVuSans-40"/>
     <path d="M 12.40625 8.296875 
L 28.515625 8.296875 
L 28.515625 63.921875 
L 10.984375 60.40625 
L 10.984375 69.390625 
L 28.421875 72.90625 
L 38.28125 72.90625 
L 38.28125 8.296875 
L 54.390625 8.296875 
L 54.390625 0 
L 12.40625 0 
z
" id="DejaVuSans-49"/>
     <path d="M 8.015625 75.875 
L 15.828125 75.875 
Q 23.140625 64.359375 26.78125 53.3125 
Q 30.421875 42.28125 30.421875 31.390625 
Q 30.421875 20.453125 26.78125 9.375 
Q 23.140625 -1.703125 15.828125 -13.1875 
L 8.015625 -13.1875 
Q 14.5 -2 17.703125 9.0625 
Q 20.90625 20.125 20.90625 31.390625 
Q 20.90625 42.671875 17.703125 53.65625 
Q 14.5 64.65625 8.015625 75.875 
z
" id="DejaVuSans-41"/>
     <path id="DejaVuSans-32"/>
     <path d="M 53.515625 70.515625 
L 53.515625 60.890625 
Q 47.90625 63.578125 42.921875 64.890625 
Q 37.9375 66.21875 33.296875 66.21875 
Q 25.25 66.21875 20.875 63.09375 
Q 16.5 59.96875 16.5 54.203125 
Q 16.5 49.359375 19.40625 46.890625 
Q 22.3125 44.4375 30.421875 42.921875 
L 36.375 41.703125 
Q 47.40625 39.59375 52.65625 34.296875 
Q 57.90625 29 57.90625 20.125 
Q 57.90625 9.515625 50.796875 4.046875 
Q 43.703125 -1.421875 29.984375 -1.421875 
Q 24.8125 -1.421875 18.96875 -0.25 
Q 13.140625 0.921875 6.890625 3.21875 
L 6.890625 13.375 
Q 12.890625 10.015625 18.65625 8.296875 
Q 24.421875 6.59375 29.984375 6.59375 
Q 38.421875 6.59375 43.015625 9.90625 
Q 47.609375 13.234375 47.609375 19.390625 
Q 47.609375 24.75 44.3125 27.78125 
Q 41.015625 30.8125 33.5 32.328125 
L 27.484375 33.5 
Q 16.453125 35.6875 11.515625 40.375 
Q 6.59375 45.0625 6.59375 53.421875 
Q 6.59375 63.09375 13.40625 68.65625 
Q 20.21875 74.21875 32.171875 74.21875 
Q 37.3125 74.21875 42.625 73.28125 
Q 47.953125 72.359375 53.515625 70.515625 
z
" id="DejaVuSans-83"/>
     <path d="M 8.5 21.578125 
L 8.5 54.6875 
L 17.484375 54.6875 
L 17.484375 21.921875 
Q 17.484375 14.15625 20.5 10.265625 
Q 23.53125 6.390625 29.59375 6.390625 
Q 36.859375 6.390625 41.078125 11.03125 
Q 45.3125 15.671875 45.3125 23.6875 
L 45.3125 54.6875 
L 54.296875 54.6875 
L 54.296875 0 
L 45.3125 0 
L 45.3125 8.40625 
Q 42.046875 3.421875 37.71875 1 
Q 33.40625 -1.421875 27.6875 -1.421875 
Q 18.265625 -1.421875 13.375 4.4375 
Q 8.5 10.296875 8.5 21.578125 
z
M 31.109375 56 
z
" id="DejaVuSans-117"/>
     <path d="M 48.6875 27.296875 
Q 48.6875 37.203125 44.609375 42.84375 
Q 40.53125 48.484375 33.40625 48.484375 
Q 26.265625 48.484375 22.1875 42.84375 
Q 18.109375 37.203125 18.109375 27.296875 
Q 18.109375 17.390625 22.1875 11.75 
Q 26.265625 6.109375 33.40625 6.109375 
Q 40.53125 6.109375 44.609375 11.75 
Q 48.6875 17.390625 48.6875 27.296875 
z
M 18.109375 46.390625 
Q 20.953125 51.265625 25.265625 53.625 
Q 29.59375 56 35.59375 56 
Q 45.5625 56 51.78125 48.09375 
Q 58.015625 40.1875 58.015625 27.296875 
Q 58.015625 14.40625 51.78125 6.484375 
Q 45.5625 -1.421875 35.59375 -1.421875 
Q 29.59375 -1.421875 25.265625 0.953125 
Q 20.953125 3.328125 18.109375 8.203125 
L 18.109375 0 
L 9.078125 0 
L 9.078125 75.984375 
L 18.109375 75.984375 
z
" id="DejaVuSans-98"/>
     <path d="M 9.421875 54.6875 
L 18.40625 54.6875 
L 18.40625 -0.984375 
Q 18.40625 -11.421875 14.421875 -16.109375 
Q 10.453125 -20.796875 1.609375 -20.796875 
L -1.8125 -20.796875 
L -1.8125 -13.1875 
L 0.59375 -13.1875 
Q 5.71875 -13.1875 7.5625 -10.8125 
Q 9.421875 -8.453125 9.421875 -0.984375 
z
M 9.421875 75.984375 
L 18.40625 75.984375 
L 18.40625 64.59375 
L 9.421875 64.59375 
z
" id="DejaVuSans-106"/>
     <path d="M 56.203125 29.59375 
L 56.203125 25.203125 
L 14.890625 25.203125 
Q 15.484375 15.921875 20.484375 11.0625 
Q 25.484375 6.203125 34.421875 6.203125 
Q 39.59375 6.203125 44.453125 7.46875 
Q 49.3125 8.734375 54.109375 11.28125 
L 54.109375 2.78125 
Q 49.265625 0.734375 44.1875 -0.34375 
Q 39.109375 -1.421875 33.890625 -1.421875 
Q 20.796875 -1.421875 13.15625 6.1875 
Q 5.515625 13.8125 5.515625 26.8125 
Q 5.515625 40.234375 12.765625 48.109375 
Q 20.015625 56 32.328125 56 
Q 43.359375 56 49.78125 48.890625 
Q 56.203125 41.796875 56.203125 29.59375 
z
M 47.21875 32.234375 
Q 47.125 39.59375 43.09375 43.984375 
Q 39.0625 48.390625 32.421875 48.390625 
Q 24.90625 48.390625 20.390625 44.140625 
Q 15.875 39.890625 15.1875 32.171875 
z
" id="DejaVuSans-101"/>
     <path d="M 48.78125 52.59375 
L 48.78125 44.1875 
Q 44.96875 46.296875 41.140625 47.34375 
Q 37.3125 48.390625 33.40625 48.390625 
Q 24.65625 48.390625 19.8125 42.84375 
Q 14.984375 37.3125 14.984375 27.296875 
Q 14.984375 17.28125 19.8125 11.734375 
Q 24.65625 6.203125 33.40625 6.203125 
Q 37.3125 6.203125 41.140625 7.25 
Q 44.96875 8.296875 48.78125 10.40625 
L 48.78125 2.09375 
Q 45.015625 0.34375 40.984375 -0.53125 
Q 36.96875 -1.421875 32.421875 -1.421875 
Q 20.0625 -1.421875 12.78125 6.34375 
Q 5.515625 14.109375 5.515625 27.296875 
Q 5.515625 40.671875 12.859375 48.328125 
Q 20.21875 56 33.015625 56 
Q 37.15625 56 41.109375 55.140625 
Q 45.0625 54.296875 48.78125 52.59375 
z
" id="DejaVuSans-99"/>
     <path d="M 18.3125 70.21875 
L 18.3125 54.6875 
L 36.8125 54.6875 
L 36.8125 47.703125 
L 18.3125 47.703125 
L 18.3125 18.015625 
Q 18.3125 11.328125 20.140625 9.421875 
Q 21.96875 7.515625 27.59375 7.515625 
L 36.8125 7.515625 
L 36.8125 0 
L 27.59375 0 
Q 17.1875 0 13.234375 3.875 
Q 9.28125 7.765625 9.28125 18.015625 
L 9.28125 47.703125 
L 2.6875 47.703125 
L 2.6875 54.6875 
L 9.28125 54.6875 
L 9.28125 70.21875 
z
" id="DejaVuSans-116"/>
     <path d="M 11.71875 12.40625 
L 22.015625 12.40625 
L 22.015625 0 
L 11.71875 0 
z
M 11.71875 51.703125 
L 22.015625 51.703125 
L 22.015625 39.3125 
L 11.71875 39.3125 
z
" id="DejaVuSans-58"/>
     <path d="M 44.28125 53.078125 
L 44.28125 44.578125 
Q 40.484375 46.53125 36.375 47.5 
Q 32.28125 48.484375 27.875 48.484375 
Q 21.1875 48.484375 17.84375 46.4375 
Q 14.5 44.390625 14.5 40.28125 
Q 14.5 37.15625 16.890625 35.375 
Q 19.28125 33.59375 26.515625 31.984375 
L 29.59375 31.296875 
Q 39.15625 29.25 43.1875 25.515625 
Q 47.21875 21.78125 47.21875 15.09375 
Q 47.21875 7.46875 41.1875 3.015625 
Q 35.15625 -1.421875 24.609375 -1.421875 
Q 20.21875 -1.421875 15.453125 -0.5625 
Q 10.6875 0.296875 5.421875 2 
L 5.421875 11.28125 
Q 10.40625 8.6875 15.234375 7.390625 
Q 20.0625 6.109375 24.8125 6.109375 
Q 31.15625 6.109375 34.5625 8.28125 
Q 37.984375 10.453125 37.984375 14.40625 
Q 37.984375 18.0625 35.515625 20.015625 
Q 33.0625 21.96875 24.703125 23.78125 
L 21.578125 24.515625 
Q 13.234375 26.265625 9.515625 29.90625 
Q 5.8125 33.546875 5.8125 39.890625 
Q 5.8125 47.609375 11.28125 51.796875 
Q 16.75 56 26.8125 56 
Q 31.78125 56 36.171875 55.265625 
Q 40.578125 54.546875 44.28125 53.078125 
z
" id="DejaVuSans-115"/>
     <path d="M 8.203125 72.90625 
L 55.078125 72.90625 
L 55.078125 68.703125 
L 28.609375 0 
L 18.3125 0 
L 43.21875 64.59375 
L 8.203125 64.59375 
z
" id="DejaVuSans-55"/>
     <path d="M 11.71875 12.40625 
L 22.015625 12.40625 
L 22.015625 4 
L 14.015625 -11.625 
L 7.71875 -11.625 
L 11.71875 4 
z
" id="DejaVuSans-44"/>
     <path d="M 9.8125 72.90625 
L 19.671875 72.90625 
L 19.671875 42.09375 
L 52.390625 72.90625 
L 65.09375 72.90625 
L 28.90625 38.921875 
L 67.671875 0 
L 54.6875 0 
L 19.671875 35.109375 
L 19.671875 0 
L 9.8125 0 
z
" id="DejaVuSans-75"/>
     <path d="M 54.890625 33.015625 
L 54.890625 0 
L 45.90625 0 
L 45.90625 32.71875 
Q 45.90625 40.484375 42.875 44.328125 
Q 39.84375 48.1875 33.796875 48.1875 
Q 26.515625 48.1875 22.3125 43.546875 
Q 18.109375 38.921875 18.109375 30.90625 
L 18.109375 0 
L 9.078125 0 
L 9.078125 54.6875 
L 18.109375 54.6875 
L 18.109375 46.1875 
Q 21.34375 51.125 25.703125 53.5625 
Q 30.078125 56 35.796875 56 
Q 45.21875 56 50.046875 50.171875 
Q 54.890625 44.34375 54.890625 33.015625 
z
" id="DejaVuSans-110"/>
     <path d="M 30.609375 48.390625 
Q 23.390625 48.390625 19.1875 42.75 
Q 14.984375 37.109375 14.984375 27.296875 
Q 14.984375 17.484375 19.15625 11.84375 
Q 23.34375 6.203125 30.609375 6.203125 
Q 37.796875 6.203125 41.984375 11.859375 
Q 46.1875 17.53125 46.1875 27.296875 
Q 46.1875 37.015625 41.984375 42.703125 
Q 37.796875 48.390625 30.609375 48.390625 
z
M 30.609375 56 
Q 42.328125 56 49.015625 48.375 
Q 55.71875 40.765625 55.71875 27.296875 
Q 55.71875 13.875 49.015625 6.21875 
Q 42.328125 -1.421875 30.609375 -1.421875 
Q 18.84375 -1.421875 12.171875 6.21875 
Q 5.515625 13.875 5.515625 27.296875 
Q 5.515625 40.765625 12.171875 48.375 
Q 18.84375 56 30.609375 56 
z
" id="DejaVuSans-111"/>
     <path d="M 4.203125 54.6875 
L 13.1875 54.6875 
L 24.421875 12.015625 
L 35.59375 54.6875 
L 46.1875 54.6875 
L 57.421875 12.015625 
L 68.609375 54.6875 
L 77.59375 54.6875 
L 63.28125 0 
L 52.6875 0 
L 40.921875 44.828125 
L 29.109375 0 
L 18.5 0 
z
" id="DejaVuSans-119"/>
     <path d="M 10.59375 45.40625 
L 73.1875 45.40625 
L 73.1875 37.203125 
L 10.59375 37.203125 
z
M 10.59375 25.484375 
L 73.1875 25.484375 
L 73.1875 17.1875 
L 10.59375 17.1875 
z
" id="DejaVuSans-61"/>
     <path d="M 9.8125 72.90625 
L 51.703125 72.90625 
L 51.703125 64.59375 
L 19.671875 64.59375 
L 19.671875 43.109375 
L 48.578125 43.109375 
L 48.578125 34.8125 
L 19.671875 34.8125 
L 19.671875 0 
L 9.8125 0 
z
" id="DejaVuSans-70"/>
     <path d="M 34.28125 27.484375 
Q 23.390625 27.484375 19.1875 25 
Q 14.984375 22.515625 14.984375 16.5 
Q 14.984375 11.71875 18.140625 8.90625 
Q 21.296875 6.109375 26.703125 6.109375 
Q 34.1875 6.109375 38.703125 11.40625 
Q 43.21875 16.703125 43.21875 25.484375 
L 43.21875 27.484375 
z
M 52.203125 31.203125 
L 52.203125 0 
L 43.21875 0 
L 43.21875 8.296875 
Q 40.140625 3.328125 35.546875 0.953125 
Q 30.953125 -1.421875 24.3125 -1.421875 
Q 15.921875 -1.421875 10.953125 3.296875 
Q 6 8.015625 6 15.921875 
Q 6 25.140625 12.171875 29.828125 
Q 18.359375 34.515625 30.609375 34.515625 
L 43.21875 34.515625 
L 43.21875 35.40625 
Q 43.21875 41.609375 39.140625 45 
Q 35.0625 48.390625 27.6875 48.390625 
Q 23 48.390625 18.546875 47.265625 
Q 14.109375 46.140625 10.015625 43.890625 
L 10.015625 52.203125 
Q 14.9375 54.109375 19.578125 55.046875 
Q 24.21875 56 28.609375 56 
Q 40.484375 56 46.34375 49.84375 
Q 52.203125 43.703125 52.203125 31.203125 
z
" id="DejaVuSans-97"/>
     <path d="M 9.421875 75.984375 
L 18.40625 75.984375 
L 18.40625 0 
L 9.421875 0 
z
" id="DejaVuSans-108"/>
     <path d="M 19.671875 64.796875 
L 19.671875 8.109375 
L 31.59375 8.109375 
Q 46.6875 8.109375 53.6875 14.9375 
Q 60.6875 21.78125 60.6875 36.53125 
Q 60.6875 51.171875 53.6875 57.984375 
Q 46.6875 64.796875 31.59375 64.796875 
z
M 9.8125 72.90625 
L 30.078125 72.90625 
Q 51.265625 72.90625 61.171875 64.09375 
Q 71.09375 55.28125 71.09375 36.53125 
Q 71.09375 17.671875 61.125 8.828125 
Q 51.171875 0 30.078125 0 
L 9.8125 0 
z
" id="DejaVuSans-68"/>
     <path d="M 45.40625 27.984375 
Q 45.40625 37.75 41.375 43.109375 
Q 37.359375 48.484375 30.078125 48.484375 
Q 22.859375 48.484375 18.828125 43.109375 
Q 14.796875 37.75 14.796875 27.984375 
Q 14.796875 18.265625 18.828125 12.890625 
Q 22.859375 7.515625 30.078125 7.515625 
Q 37.359375 7.515625 41.375 12.890625 
Q 45.40625 18.265625 45.40625 27.984375 
z
M 54.390625 6.78125 
Q 54.390625 -7.171875 48.1875 -13.984375 
Q 42 -20.796875 29.203125 -20.796875 
Q 24.46875 -20.796875 20.265625 -20.09375 
Q 16.0625 -19.390625 12.109375 -17.921875 
L 12.109375 -9.1875 
Q 16.0625 -11.328125 19.921875 -12.34375 
Q 23.78125 -13.375 27.78125 -13.375 
Q 36.625 -13.375 41.015625 -8.765625 
Q 45.40625 -4.15625 45.40625 5.171875 
L 45.40625 9.625 
Q 42.625 4.78125 38.28125 2.390625 
Q 33.9375 0 27.875 0 
Q 17.828125 0 11.671875 7.65625 
Q 5.515625 15.328125 5.515625 27.984375 
Q 5.515625 40.671875 11.671875 48.328125 
Q 17.828125 56 27.875 56 
Q 33.9375 56 38.28125 53.609375 
Q 42.625 51.21875 45.40625 46.390625 
L 45.40625 54.6875 
L 54.390625 54.6875 
z
" id="DejaVuSans-103"/>
     <path d="M 41.109375 46.296875 
Q 39.59375 47.171875 37.8125 47.578125 
Q 36.03125 48 33.890625 48 
Q 26.265625 48 22.1875 43.046875 
Q 18.109375 38.09375 18.109375 28.8125 
L 18.109375 0 
L 9.078125 0 
L 9.078125 54.6875 
L 18.109375 54.6875 
L 18.109375 46.1875 
Q 20.953125 51.171875 25.484375 53.578125 
Q 30.03125 56 36.53125 56 
Q 37.453125 56 38.578125 55.875 
Q 39.703125 55.765625 41.0625 55.515625 
z
" id="DejaVuSans-114"/>
     <path d="M 9.421875 54.6875 
L 18.40625 54.6875 
L 18.40625 0 
L 9.421875 0 
z
M 9.421875 75.984375 
L 18.40625 75.984375 
L 18.40625 64.59375 
L 9.421875 64.59375 
z
" id="DejaVuSans-105"/>
     <path d="M 10.6875 12.40625 
L 21 12.40625 
L 21 0 
L 10.6875 0 
z
" id="DejaVuSans-46"/>
    </defs>
    <g transform="translate(49.741875 35.472)scale(0.12 -0.12)">
     <use xlink:href="#DejaVuSans-40"/>
     <use x="39.013672" xlink:href="#DejaVuSans-54"/>
     <use x="102.636719" xlink:href="#DejaVuSans-49"/>
     <use x="166.259766" xlink:href="#DejaVuSans-41"/>
     <use x="205.273438" xlink:href="#DejaVuSans-32"/>
     <use x="237.060547" xlink:href="#DejaVuSans-83"/>
     <use x="300.537109" xlink:href="#DejaVuSans-117"/>
     <use x="363.916016" xlink:href="#DejaVuSans-98"/>
     <use x="427.392578" xlink:href="#DejaVuSans-106"/>
     <use x="455.175781" xlink:href="#DejaVuSans-101"/>
     <use x="516.699219" xlink:href="#DejaVuSans-99"/>
     <use x="571.679688" xlink:href="#DejaVuSans-116"/>
     <use x="610.888672" xlink:href="#DejaVuSans-58"/>
     <use x="644.580078" xlink:href="#DejaVuSans-32"/>
     <use x="676.367188" xlink:href="#DejaVuSans-115"/>
     <use x="728.466797" xlink:href="#DejaVuSans-50"/>
     <use x="792.089844" xlink:href="#DejaVuSans-55"/>
     <use x="855.712891" xlink:href="#DejaVuSans-44"/>
     <use x="887.5" xlink:href="#DejaVuSans-32"/>
     <use x="919.287109" xlink:href="#DejaVuSans-75"/>
     <use x="984.863281" xlink:href="#DejaVuSans-110"/>
     <use x="1048.242188" xlink:href="#DejaVuSans-111"/>
     <use x="1109.423828" xlink:href="#DejaVuSans-119"/>
     <use x="1191.210938" xlink:href="#DejaVuSans-110"/>
     <use x="1254.589844" xlink:href="#DejaVuSans-32"/>
     <use x="1286.376953" xlink:href="#DejaVuSans-61"/>
     <use x="1370.166016" xlink:href="#DejaVuSans-32"/>
     <use x="1401.953125" xlink:href="#DejaVuSans-70"/>
     <use x="1459.332031" xlink:href="#DejaVuSans-97"/>
     <use x="1520.611328" xlink:href="#DejaVuSans-108"/>
     <use x="1548.394531" xlink:href="#DejaVuSans-115"/>
     <use x="1600.494141" xlink:href="#DejaVuSans-101"/>
     <use x="1662.017578" xlink:href="#DejaVuSans-44"/>
     <use x="1693.804688" xlink:href="#DejaVuSans-32"/>
     <use x="1725.591797" xlink:href="#DejaVuSans-68"/>
     <use x="1802.59375" xlink:href="#DejaVuSans-101"/>
     <use x="1864.117188" xlink:href="#DejaVuSans-103"/>
     <use x="1927.59375" xlink:href="#DejaVuSans-114"/>
     <use x="1968.675781" xlink:href="#DejaVuSans-101"/>
     <use x="2030.199219" xlink:href="#DejaVuSans-101"/>
     <use x="2091.722656" xlink:href="#DejaVuSans-32"/>
     <use x="2123.509766" xlink:href="#DejaVuSans-61"/>
     <use x="2207.298828" xlink:href="#DejaVuSans-32"/>
     <use x="2239.085938" xlink:href="#DejaVuSans-50"/>
     <use x="2302.708984" xlink:href="#DejaVuSans-44"/>
     <use x="2334.496094" xlink:href="#DejaVuSans-32"/>
     <use x="2366.283203" xlink:href="#DejaVuSans-68"/>
     <use x="2443.285156" xlink:href="#DejaVuSans-117"/>
     <use x="2506.664062" xlink:href="#DejaVuSans-114"/>
     <use x="2547.777344" xlink:href="#DejaVuSans-97"/>
     <use x="2609.056641" xlink:href="#DejaVuSans-116"/>
     <use x="2648.265625" xlink:href="#DejaVuSans-105"/>
     <use x="2676.048828" xlink:href="#DejaVuSans-111"/>
     <use x="2737.230469" xlink:href="#DejaVuSans-110"/>
     <use x="2800.609375" xlink:href="#DejaVuSans-32"/>
     <use x="2832.396484" xlink:href="#DejaVuSans-61"/>
     <use x="2916.185547" xlink:href="#DejaVuSans-32"/>
     <use x="2947.972656" xlink:href="#DejaVuSans-48"/>
     <use x="3011.595703" xlink:href="#DejaVuSans-46"/>
     <use x="3043.382812" xlink:href="#DejaVuSans-49"/>
    </g>
   </g>
  </g>
 </g>
 <defs>
  <clipPath id="p896f4243ab">
   <rect height="266.112" width="357.12" x="57.6" y="41.472"/>
  </clipPath>
 </defs>
</svg>
