<?xml version="1.0" encoding="utf-8" standalone="no"?>
<!DOCTYPE svg PUBLIC "-//W3C//DTD SVG 1.1//EN"
  "http://www.w3.org/Graphics/SVG/1.1/DTD/svg11.dtd">
<!-- Created with matplotlib (https://matplotlib.org/) -->
<svg height="345.6pt" version="1.1" viewBox="0 0 460.8 345.6" width="460.8pt" xmlns="http://www.w3.org/2000/svg" xmlns:xlink="http://www.w3.org/1999/xlink">
 <defs>
  <style type="text/css">
*{stroke-linecap:butt;stroke-linejoin:round;}
  </style>
 </defs>
 <g id="figure_1">
  <g id="patch_1">
   <path d="M 0 345.6 
L 460.8 345.6 
L 460.8 0 
L 0 0 
z
" style="fill:#ffffff;"/>
  </g>
  <g id="axes_1">
   <g id="patch_2">
    <path d="M 57.6 307.584 
L 414.72 307.584 
L 414.72 41.472 
L 57.6 41.472 
z
" style="fill:#ffffff;"/>
   </g>
   <g id="line2d_1">
    <path clip-path="url(#p4976c982aa)" d="M 74.79796 54.774063 
L 74.700428 55.135684 
L 74.606259 54.895266 
L 74.606259 54.895266 
L 74.79796 55.014481 
L 74.993025 54.652861 
L 74.993025 54.652861 
L 75.087194 54.652861 
L 74.993025 54.774063 
L 74.79796 54.652861 
L 74.79796 54.412443 
L 74.993025 54.412443 
L 75.184726 54.533645 
L 74.79796 54.895266 
L 74.700428 54.895266 
L 75.087194 55.014481 
L 75.184726 54.533645 
L 74.895492 54.774063 
L 74.79796 55.256886 
L 74.895492 55.497304 
L 75.087194 54.895266 
L 74.993025 55.014481 
L 74.700428 55.376101 
L 74.895492 55.497304 
L 75.087194 55.135684 
L 74.895492 55.376101 
L 74.606259 55.497304 
L 74.508727 55.376101 
L 74.700428 55.256886 
L 75.184726 55.376101 
L 75.282258 55.256886 
L 74.895492 54.895266 
L 74.606259 55.135684 
L 74.79796 54.533645 
L 74.700428 54.533645 
L 74.79796 55.256886 
L 74.895492 55.376101 
L 74.79796 55.135684 
L 74.700428 54.774063 
L 75.087194 54.412443 
L 74.895492 54.412443 
L 74.700428 54.412443 
L 74.700428 54.412443 
L 74.606259 54.533645 
L 74.508727 55.014481 
L 74.79796 54.050823 
L 74.895492 54.050823 
L 74.700428 54.533645 
L 74.79796 54.652861 
L 74.700428 54.652861 
L 74.606259 54.652861 
L 74.79796 54.652861 
L 74.79796 54.652861 
L 74.411194 53.810405 
L 74.411194 53.568 
L 74.606259 53.689202 
L 74.700428 54.050823 
L 74.508727 54.412443 
L 74.313662 54.412443 
L 74.121961 54.774063 
L 74.121961 55.014481 
L 74.606259 54.895266 
L 74.79796 55.014481 
L 74.606259 55.135684 
L 74.313662 54.774063 
L 74.219493 55.014481 
L 74.313662 55.376101 
L 74.606259 55.376101 
L 74.79796 55.014481 
L 74.700428 54.895266 
L 74.606259 55.014481 
L 74.700428 55.256886 
L 74.606259 55.256886 
L 74.313662 54.895266 
L 74.411194 54.895266 
L 74.606259 55.014481 
L 74.606259 55.256886 
L 74.219493 55.497304 
L 74.508727 55.618506 
L 74.79796 55.256886 
L 74.700428 55.256886 
L 74.606259 55.980127 
L 74.606259 55.618506 
L 74.411194 55.497304 
L 74.79796 55.737722 
L 74.79796 56.460962 
L 74.895492 56.341747 
L 75.087194 55.376101 
L 74.895492 55.980127 
L 74.508727 56.460962 
L 75.087194 57.184203 
L 74.79796 56.943785 
L 74.700428 58.028646 
L 74.895492 57.545823 
L 75.087194 57.667026 
L 75.087194 57.907443 
L 74.993025 57.788228 
L 74.895492 57.545823 
L 74.993025 57.426608 
L 75.184726 57.426608 
L 75.184726 57.426608 
L 75.087194 57.305405 
L 75.087194 58.028646 
L 75.184726 58.028646 
L 75.282258 57.788228 
L 75.37979 57.907443 
L 75.282258 58.630684 
L 75.087194 58.873089 
L 75.087194 58.873089 
L 75.282258 58.873089 
L 75.473959 59.113507 
L 75.282258 59.234709 
L 75.087194 59.113507 
L 74.895492 58.630684 
L 74.895492 58.630684 
L 74.700428 58.992304 
L 74.700428 58.992304 
L 74.895492 59.113507 
L 74.895492 58.630684 
L 74.895492 59.353925 
L 74.79796 59.113507 
L 74.606259 58.873089 
L 74.993025 59.475127 
L 75.087194 59.715545 
L 74.993025 59.596329 
L 74.606259 59.836747 
L 74.411194 59.596329 
L 74.508727 59.353925 
L 74.508727 59.353925 
L 74.313662 59.596329 
L 74.411194 59.596329 
L 74.606259 59.353925 
L 74.508727 59.234709 
L 74.700428 58.751886 
L 74.606259 59.234709 
L 74.411194 59.836747 
L 74.411194 59.596329 
L 74.024429 60.077165 
L 74.313662 60.438786 
L 74.024429 60.559988 
L 73.832727 60.800406 
L 73.832727 60.800406 
L 73.832727 60.077165 
L 74.024429 60.077165 
L 74.313662 60.198368 
L 74.411194 60.077165 
L 74.411194 60.077165 
L 74.606259 60.077165 
L 76.250854 60.438786 
L 77.892086 60.921608 
L 85.341531 63.814571 
L 88.724891 65.261052 
L 92.495016 66.707533 
L 96.460206 68.515634 
L 100.812162 71.046976 
L 105.937649 73.457116 
L 111.547434 75.505635 
L 117.059687 78.036977 
L 128.568491 84.426927 
L 134.854275 87.439105 
L 141.432656 89.970447 
L 148.296908 92.020953 
L 155.06699 94.30989 
L 168.509623 99.612992 
L 175.279706 102.627157 
L 181.760555 105.760537 
L 188.046339 108.534284 
L 194.234591 111.065626 
L 212.224244 117.936412 
L 234.370788 127.217337 
L 244.910996 131.677983 
L 249.649717 133.96692 
L 253.809972 136.377059 
L 265.510477 143.730668 
L 269.186433 146.021592 
L 276.050685 150.722656 
L 279.144811 153.253998 
L 281.949703 155.904555 
L 284.754596 158.074277 
L 287.461956 159.882378 
L 289.785914 161.69048 
L 291.911444 163.498581 
L 293.845273 165.306683 
L 297.036931 169.16529 
L 298.583994 170.490569 
L 303.033482 173.623949 
L 306.514374 177.240152 
L 307.869736 178.203811 
L 308.643267 179.048254 
L 309.030033 179.771494 
L 309.221734 180.735153 
L 309.6085 181.700798 
L 310.382032 182.785659 
L 310.092798 183.026077 
L 309.514331 183.147279 
L 309.127565 183.5089 
L 308.834969 184.110938 
L 308.448203 184.472558 
L 307.967268 184.59376 
L 306.90114 185.557419 
L 306.90114 185.678621 
L 306.803608 185.436216 
L 306.322673 185.678621 
L 306.030076 186.280659 
L 306.127608 186.64228 
L 306.90114 186.882698 
L 306.90114 186.882698 
L 306.803608 187.36552 
L 306.803608 187.967558 
L 307.48297 188.933204 
L 307.674671 189.173622 
L 307.674671 189.656444 
L 307.385438 190.620103 
L 307.48297 190.860521 
L 307.869736 191.102926 
L 307.967268 191.464546 
L 307.869736 192.066584 
L 307.580502 192.549407 
L 307.48297 193.753483 
L 307.287906 194.476724 
L 307.385438 194.838344 
L 307.772204 195.442369 
L 307.869736 196.767648 
L 308.545735 197.731306 
L 308.932501 198.696952 
L 308.643267 199.058572 
L 308.448203 199.539408 
L 308.448203 200.02223 
L 308.932501 200.866673 
L 309.127565 200.985889 
L 309.416799 201.347509 
L 309.514331 201.709129 
L 309.6085 202.915193 
L 309.901097 203.276813 
L 309.706032 203.517231 
L 309.706032 203.759636 
L 309.995266 204.361674 
L 310.092798 205.567737 
L 310.287863 205.686953 
L 310.382032 205.567737 
L 310.577096 205.808155 
L 310.674628 206.531396 
L 310.577096 207.254636 
L 310.674628 207.735472 
L 310.963862 207.977877 
L 311.061394 209.062738 
L 311.350628 209.543573 
L 312.026627 210.147599 
L 313.284457 210.388016 
L 314.347222 210.870839 
L 317.152114 212.557738 
L 321.312369 214.125422 
L 323.730495 215.329498 
L 326.148622 216.775979 
L 328.660918 218.464865 
L 334.079002 222.804309 
L 339.685424 228.469031 
L 342.490316 231.483196 
L 345.392741 234.376158 
L 357.190779 245.103564 
L 363.476563 250.045046 
L 366.957455 252.33597 
L 370.344178 254.263287 
L 373.438304 256.192591 
L 381.560385 261.857313 
L 383.786811 263.665415 
L 387.752 267.281617 
L 389.201531 269.210921 
L 391.424594 272.586706 
L 393.361786 274.635226 
L 394.037785 275.841289 
L 395.198082 278.372631 
L 395.584848 278.853467 
L 395.10055 280.42115 
L 394.908849 280.782771 
L 394.327018 281.263606 
L 393.84272 281.867631 
L 393.361786 282.229252 
L 392.877488 282.229252 
L 392.490722 282.348467 
L 392.295657 282.590872 
L 392.490722 282.83129 
L 392.39319 283.314113 
L 392.295657 283.433328 
L 392.201488 284.277771 
L 392.103956 285.001012 
L 392.295657 285.724252 
L 392.588254 286.207075 
L 393.361786 288.134392 
L 393.069189 288.617214 
L 392.490722 289.219253 
L 392.39319 288.978835 
L 392.295657 289.100037 
L 392.295657 289.823278 
L 392.201488 289.702075 
L 392.103956 289.702075 
L 392.103956 290.063696 
L 392.103956 290.063696 
L 392.295657 290.063696 
L 392.490722 290.425316 
L 392.39319 290.546518 
L 392.006424 290.546518 
L 391.908892 290.304114 
L 392.201488 290.425316 
L 392.201488 290.546518 
L 392.006424 290.546518 
L 391.908892 290.425316 
L 391.908892 290.546518 
L 391.814723 290.786936 
L 392.103956 291.027354 
L 392.006424 291.027354 
L 391.814723 291.148557 
L 391.619658 290.786936 
L 391.330425 290.786936 
L 391.13536 291.027354 
L 391.037828 291.510177 
L 390.748594 291.269759 
L 390.556893 291.388974 
L 389.783361 290.546518 
L 389.588297 290.425316 
L 389.103999 290.908139 
L 389.201531 290.425316 
L 388.912298 290.184898 
L 388.623064 290.184898 
L 388.041234 290.425316 
L 388.138766 290.063696 
L 387.943702 290.665734 
L 387.752 290.546518 
L 387.849533 290.425316 
L 387.752 290.184898 
L 387.462767 289.823278 
L 386.880937 289.702075 
L 386.591703 290.063696 
L 386.783404 290.304114 
L 386.880937 290.063696 
L 386.685872 289.823278 
L 386.204937 289.702075 
L 386.107405 289.823278 
L 385.912341 289.823278 
L 385.818172 289.942493 
L 385.912341 290.304114 
L 386.009873 289.942493 
L 385.333874 289.942493 
L 385.236341 290.063696 
L 385.04464 290.063696 
L 384.947108 289.823278 
L 384.947108 289.461657 
L 385.04464 289.461657 
L 385.138809 289.580873 
L 385.04464 289.580873 
L 384.076044 289.219253 
L 383.786811 288.978835 
L 383.591746 288.978835 
L 383.689278 288.978835 
L 383.689278 289.100037 
L 383.302513 289.219253 
L 383.302513 288.738417 
L 383.110811 288.617214 
L 382.720682 288.617214 
L 382.239747 288.496012 
L 381.947151 288.255594 
L 382.044683 288.255594 
L 382.142215 288.255594 
L 382.333917 288.617214 
L 382.239747 288.738417 
L 381.657917 287.893974 
L 381.368684 287.772772 
L 381.173619 287.893974 
L 381.271151 288.015176 
L 381.271151 288.015176 
L 380.692684 288.015176 
L 380.49762 288.134392 
L 380.595152 287.653556 
L 381.07945 287.411151 
L 381.07945 287.170733 
L 380.595152 286.687911 
L 380.49762 286.687911 
L 380.305919 287.049531 
L 380.305919 287.049531 
L 380.208386 286.930315 
L 379.919153 287.291936 
L 379.919153 287.291936 
L 380.208386 287.411151 
L 380.305919 287.049531 
L 380.400088 286.809113 
L 380.208386 286.687911 
L 380.305919 286.687911 
L 380.208386 286.447493 
L 379.821621 286.32629 
L 379.821621 286.32629 
L 379.821621 286.447493 
L 379.532387 286.447493 
L 378.563791 286.085872 
L 377.692727 285.724252 
L 375.274601 285.483834 
L 373.727537 285.483834 
L 371.988773 285.362632 
L 369.762348 285.001012 
L 367.344221 284.879809 
L 361.640267 285.362632 
L 354.870184 285.96467 
L 351.096696 286.447493 
L 346.842272 286.687911 
L 342.490316 286.809113 
L 328.855982 286.447493 
L 323.922197 286.568695 
L 318.991774 286.447493 
L 314.057988 286.085872 
L 309.319267 285.96467 
L 304.77561 286.085872 
L 300.423654 285.845455 
L 291.427146 284.879809 
L 287.07519 284.639391 
L 282.820767 284.518189 
L 262.705584 282.710087 
L 260.189925 282.590872 
L 252.841376 281.746429 
L 252.259545 281.867631 
L 252.259545 281.746429 
L 252.45461 281.625227 
L 252.938908 281.506011 
L 254.001673 281.867631 
L 254.290906 281.746429 
L 254.970269 281.023188 
L 255.357035 281.144391 
L 255.646268 281.506011 
L 255.646268 281.867631 
L 255.357035 282.229252 
L 255.064438 282.229252 
L 254.872737 281.986847 
L 254.677672 281.986847 
L 254.485971 282.229252 
L 254.196737 282.229252 
L 253.904141 282.46967 
L 253.419843 283.19291 
L 253.325674 283.071708 
L 253.130609 283.071708 
L 252.646311 283.794948 
L 252.45461 283.55453 
L 252.552142 283.433328 
L 252.743843 283.433328 
L 253.130609 283.675733 
L 253.033077 284.037353 
L 253.228141 283.916151 
L 253.419843 283.55453 
L 253.325674 283.55453 
L 253.130609 283.55453 
L 253.130609 283.916151 
L 253.033077 283.916151 
L 252.743843 284.398973 
L 252.743843 284.398973 
L 252.743843 284.037353 
L 252.45461 283.55453 
L 252.357078 283.55453 
L 252.357078 283.55453 
L 252.259545 283.794948 
L 252.259545 284.156569 
L 252.165376 284.037353 
L 251.970312 283.794948 
L 252.259545 284.037353 
L 252.165376 284.277771 
L 251.87278 284.398973 
L 251.486014 284.156569 
L 251.87278 284.037353 
L 251.87278 284.156569 
L 251.87278 283.794948 
L 251.87278 283.794948 
L 251.583546 283.794948 
L 251.391845 283.675733 
L 251.099248 283.916151 
L 250.810015 283.916151 
L 250.712482 283.794948 
L 251.005079 283.916151 
L 251.005079 284.156569 
L 250.712482 284.037353 
L 250.325717 283.19291 
L 250.520781 283.071708 
L 250.520781 283.19291 
L 250.423249 283.19291 
L 250.231547 283.19291 
L 249.938951 283.314113 
L 250.036483 283.19291 
L 250.231547 282.952492 
L 250.134015 282.952492 
L 249.938951 282.952492 
L 249.747249 282.710087 
L 249.938951 282.710087 
L 249.747249 282.710087 
L 249.552185 282.348467 
L 249.649717 282.108049 
L 249.649717 282.229252 
L 249.747249 282.348467 
L 249.938951 282.108049 
L 249.938951 281.867631 
L 249.747249 281.986847 
L 249.552185 282.46967 
L 249.552185 281.986847 
L 249.262951 281.986847 
L 249.165419 282.108049 
L 249.552185 282.348467 
L 249.458016 282.229252 
L 249.067887 281.506011 
L 248.973718 281.625227 
L 249.067887 281.625227 
L 249.360484 281.506011 
L 249.552185 281.263606 
L 249.458016 281.263606 
L 249.165419 281.506011 
L 249.165419 281.746429 
L 249.360484 281.867631 
L 249.747249 281.506011 
L 248.778653 281.867631 
L 248.778653 281.625227 
L 249.165419 281.144391 
L 249.067887 280.901986 
L 249.165419 280.661568 
L 249.067887 280.540366 
L 248.876186 280.782771 
L 248.778653 281.263606 
L 248.876186 281.263606 
L 248.973718 280.540366 
L 248.973718 280.42115 
L 249.067887 280.540366 
L 249.165419 280.661568 
L 249.165419 280.661568 
L 249.067887 280.782771 
L 249.067887 280.782771 
L 248.973718 280.661568 
L 249.165419 280.782771 
L 249.360484 280.782771 
L 249.552185 280.661568 
L 249.552185 280.782771 
L 249.165419 281.263606 
L 249.360484 281.023188 
L 249.067887 280.782771 
L 248.876186 280.540366 
L 248.586952 280.42115 
L 248.586952 280.178745 
L 248.876186 279.69791 
L 249.067887 279.817125 
L 249.067887 280.05953 
L 248.876186 280.42115 
L 248.586952 280.299948 
L 248.48942 279.938328 
L 248.681121 279.938328 
L 249.067887 280.178745 
L 248.778653 280.05953 
L 248.681121 280.05953 
L 248.586952 279.938328 
L 248.586952 279.336289 
L 248.48942 279.336289 
L 248.391888 279.455505 
L 248.200186 278.734251 
L 248.973718 279.215087 
L 249.458016 279.336289 
L 251.294313 278.853467 
L 257.482565 278.251428 
L 264.736945 277.28777 
L 268.799667 277.045365 
L 273.343324 277.045365 
L 289.977615 277.528188 
L 295.974166 277.768606 
L 302.259951 277.889808 
L 308.354034 278.251428 
L 314.444754 279.095871 
L 332.434407 282.108049 
L 337.751595 282.83129 
L 343.072147 283.433328 
L 348.100102 284.277771 
L 357.385843 287.049531 
L 361.640267 288.015176 
L 376.821664 290.665734 
L 383.302513 291.871797 
L 386.396639 292.233417 
L 389.201531 292.71624 
L 391.424594 293.318278 
L 393.361786 293.679899 
L 396.455912 293.801101 
L 397.616209 293.801101 
L 398.487273 293.679899 
L 397.518677 293.439481 
L 396.069146 293.439481 
L 395.10055 293.318278 
L 393.166721 292.473835 
L 390.170127 292.112215 
L 389.975063 292.233417 
L 390.846127 293.318278 
L 391.037828 293.318278 
L 391.424594 293.558696 
L 392.490722 293.197076 
L 392.682423 293.318278 
L 392.779955 293.558696 
L 392.682423 293.558696 
L 392.588254 293.558696 
L 392.588254 293.439481 
L 392.490722 294.162721 
L 392.295657 294.162721 
L 392.006424 293.439481 
L 391.814723 293.439481 
L 391.522126 293.679899 
L 391.424594 294.041519 
L 391.522126 294.281937 
L 391.522126 294.162721 
L 391.619658 294.041519 
L 391.330425 294.524342 
L 391.522126 294.764759 
L 391.424594 294.643557 
L 391.522126 294.041519 
L 391.619658 293.920316 
L 391.619658 294.041519 
L 391.619658 294.524342 
L 391.522126 294.403139 
L 391.424594 294.281937 
L 391.330425 294.403139 
L 391.71719 294.041519 
L 391.71719 294.162721 
L 391.522126 294.162721 
L 391.424594 294.041519 
L 391.424594 294.162721 
L 391.232892 294.643557 
L 391.330425 294.764759 
L 391.814723 294.885962 
L 391.522126 294.403139 
L 391.424594 294.403139 
L 391.232892 294.524342 
L 391.330425 294.524342 
L 391.522126 295.488 
L 391.522126 295.247582 
L 390.846127 294.281937 
L 390.651062 294.162721 
L 390.846127 294.162721 
L 391.232892 294.281937 
L 391.522126 294.524342 
L 391.232892 295.005177 
L 391.13536 295.005177 
L 391.232892 294.162721 
L 391.424594 294.403139 
L 391.13536 294.764759 
L 390.943659 294.764759 
L 390.943659 294.041519 
L 391.232892 294.281937 
L 391.037828 294.281937 
L 390.748594 294.041519 
L 390.651062 293.801101 
L 390.748594 293.920316 
L 391.037828 294.162721 
L 391.232892 294.162721 
L 390.943659 294.643557 
L 390.651062 294.524342 
L 390.556893 293.920316 
L 390.459361 294.041519 
L 390.748594 294.281937 
L 390.748594 294.281937 
L 390.748594 294.162721 
L 390.748594 294.281937 
L 390.459361 294.281937 
L 390.361829 294.162721 
L 390.556893 294.041519 
L 390.651062 294.041519 
L 390.361829 294.041519 
L 390.170127 294.162721 
L 390.264296 294.403139 
L 390.459361 294.403139 
L 390.459361 294.403139 
L 390.361829 294.162721 
L 390.943659 293.679899 
L 390.651062 294.403139 
L 390.748594 294.403139 
L 391.13536 294.041519 
L 390.556893 294.041519 
L 390.651062 294.162721 
L 390.846127 293.801101 
L 390.846127 293.801101 
L 390.459361 293.920316 
L 390.556893 293.679899 
L 390.748594 293.801101 
L 390.846127 294.643557 
L 390.846127 294.162721 
L 390.943659 294.041519 
L 390.748594 294.162721 
L 390.846127 294.041519 
L 390.556893 293.920316 
L 390.943659 293.558696 
L 390.651062 293.318278 
L 390.846127 293.558696 
L 390.943659 293.920316 
L 390.846127 293.920316 
L 390.748594 293.679899 
L 390.846127 293.558696 
L 390.846127 293.801101 
L 390.748594 293.801101 
L 390.651062 293.801101 
L 390.361829 293.920316 
L 390.556893 293.801101 
L 390.943659 293.920316 
L 391.232892 294.162721 
L 391.13536 294.041519 
L 390.556893 294.041519 
L 390.459361 293.920316 
L 390.556893 293.801101 
L 390.651062 294.281937 
L 390.651062 294.041519 
L 390.748594 293.558696 
L 391.232892 293.558696 
L 391.232892 293.679899 
L 390.943659 293.679899 
L 390.361829 293.439481 
L 390.556893 293.439481 
L 390.651062 293.197076 
L 391.13536 293.07786 
L 391.13536 293.197076 
L 391.037828 293.07786 
L 390.846127 293.07786 
L 390.943659 293.07786 
L 390.846127 293.318278 
L 390.651062 293.439481 
L 390.556893 292.956658 
L 390.651062 292.956658 
L 390.651062 293.439481 
L 390.556893 293.318278 
L 390.459361 293.197076 
L 390.170127 292.112215 
L 390.459361 292.71624 
L 390.556893 292.35462 
L 390.651062 292.473835 
L 390.556893 292.835456 
L 390.361829 292.595038 
L 390.264296 292.112215 
L 389.975063 291.269759 
L 389.877531 291.148557 
L 389.490765 290.908139 
L 388.717233 290.786936 
L 386.204937 289.942493 
L 381.173619 288.496012 
L 374.309368 285.60305 
L 369.957412 283.916151 
L 360.093203 279.455505 
L 354.483418 277.406986 
L 348.389335 275.720086 
L 342.201083 273.671567 
L 335.915298 271.380643 
L 323.632963 266.558377 
L 317.444711 264.388655 
L 311.253095 262.580554 
L 304.869779 261.014857 
L 298.681527 259.687591 
L 292.493274 258.24111 
L 281.082003 255.10773 
L 275.761451 253.661249 
L 270.440899 252.33597 
L 260.771755 250.647084 
L 256.4198 249.683426 
L 244.426698 246.428843 
L 237.656615 244.137919 
L 227.600705 241.125741 
L 226.440408 241.004539 
L 225.569344 240.642918 
L 224.893345 240.162083 
L 224.600748 239.67926 
L 224.698281 239.31764 
L 226.440408 238.473197 
L 228.085003 238.715601 
L 228.471769 238.715601 
L 228.761003 238.956019 
L 228.858535 239.438842 
L 228.565938 239.077222 
L 228.374237 239.077222 
L 227.600705 240.523703 
L 227.018875 241.004539 
L 225.666877 241.608564 
L 225.569344 241.608564 
L 225.761046 241.246943 
L 225.761046 241.004539 
L 225.761046 241.125741 
L 225.95611 240.642918 
L 225.95611 240.281298 
L 225.858578 240.281298 
L 225.761046 240.4025 
L 225.95611 240.642918 
L 226.440408 241.125741 
L 226.534577 241.125741 
L 226.534577 240.885323 
L 226.921343 240.281298 
L 226.534577 240.764121 
L 226.440408 240.764121 
L 226.342876 240.281298 
L 225.95611 240.523703 
L 225.95611 240.523703 
L 225.858578 240.162083 
L 225.761046 240.281298 
L 226.053642 240.523703 
L 226.245344 240.523703 
L 226.147811 240.523703 
L 225.858578 241.246943 
L 225.666877 241.125741 
L 225.569344 240.523703 
L 225.569344 240.642918 
L 225.471812 241.004539 
L 225.666877 241.004539 
L 226.053642 240.885323 
L 226.245344 240.642918 
L 226.053642 240.642918 
L 225.858578 240.764121 
L 225.761046 241.125741 
L 225.761046 240.885323 
L 225.471812 240.523703 
L 225.085046 241.125741 
L 225.085046 241.004539 
L 225.569344 240.764121 
L 225.761046 239.919678 
L 225.666877 240.04088 
L 225.666877 239.919678 
L 225.666877 240.523703 
L 225.569344 240.04088 
L 225.37428 240.04088 
L 225.280111 240.281298 
L 225.280111 240.764121 
L 225.471812 240.764121 
L 225.666877 240.642918 
L 225.471812 240.642918 
L 225.280111 240.642918 
L 225.182579 240.4025 
L 225.280111 240.4025 
L 225.471812 240.523703 
L 225.569344 240.764121 
L 225.37428 240.764121 
L 224.987514 240.4025 
L 225.085046 240.642918 
L 225.182579 240.642918 
L 225.280111 240.764121 
L 225.280111 240.764121 
L 225.085046 240.885323 
L 224.987514 240.764121 
L 225.085046 240.04088 
L 225.085046 240.162083 
L 225.182579 240.764121 
L 225.085046 240.4025 
L 224.893345 239.919678 
L 224.987514 240.4025 
L 224.987514 240.523703 
L 224.893345 240.4025 
L 224.795813 240.162083 
L 225.085046 240.764121 
L 225.182579 240.642918 
L 225.085046 240.523703 
L 224.893345 240.523703 
L 224.698281 240.764121 
L 224.893345 240.885323 
L 225.280111 240.642918 
L 225.37428 240.764121 
L 225.182579 241.004539 
L 224.893345 241.125741 
L 224.409047 241.125741 
L 225.085046 240.642918 
L 224.893345 240.4025 
L 224.987514 240.642918 
L 224.987514 240.885323 
L 224.987514 240.764121 
L 224.698281 240.4025 
L 224.795813 240.885323 
L 224.987514 241.246943 
L 224.987514 240.885323 
L 224.795813 240.4025 
L 224.987514 240.523703 
L 224.987514 240.523703 
L 224.987514 240.281298 
L 225.280111 240.4025 
L 225.182579 240.281298 
L 225.085046 240.162083 
L 224.987514 240.281298 
L 225.085046 240.642918 
L 225.182579 240.642918 
L 225.085046 240.4025 
L 224.698281 239.919678 
L 224.795813 240.162083 
L 224.698281 240.642918 
L 224.409047 240.885323 
L 224.506579 240.764121 
L 224.987514 240.764121 
L 224.987514 240.642918 
L 224.600748 240.642918 
L 224.795813 240.4025 
L 225.280111 240.4025 
L 225.471812 240.764121 
L 225.37428 240.885323 
L 225.280111 240.642918 
L 224.987514 239.800462 
L 225.085046 240.281298 
L 225.085046 240.162083 
L 225.182579 240.04088 
L 225.182579 240.162083 
L 224.893345 240.885323 
L 224.698281 241.004539 
L 224.506579 240.764121 
L 224.600748 240.281298 
L 224.795813 240.642918 
L 224.698281 240.642918 
L 224.213983 240.642918 
L 224.795813 240.642918 
L 225.182579 240.764121 
L 225.085046 240.764121 
L 224.987514 240.885323 
L 225.085046 240.885323 
L 225.280111 240.764121 
L 225.37428 240.04088 
L 225.280111 240.281298 
L 224.893345 240.281298 
L 225.280111 240.4025 
L 225.182579 240.523703 
L 224.987514 241.246943 
L 224.987514 241.366159 
L 224.987514 240.523703 
L 225.280111 240.523703 
L 225.569344 240.281298 
L 225.471812 240.162083 
L 224.987514 240.4025 
L 224.795813 240.642918 
L 225.085046 241.125741 
L 225.471812 241.487361 
L 225.761046 241.366159 
L 225.280111 240.4025 
L 225.280111 241.004539 
L 225.182579 240.885323 
L 224.893345 240.642918 
L 224.795813 240.885323 
L 224.795813 241.004539 
L 224.893345 240.885323 
L 225.085046 241.246943 
L 225.182579 241.125741 
L 225.085046 240.281298 
L 225.085046 240.281298 
L 224.795813 240.523703 
L 224.600748 240.523703 
L 224.311515 240.642918 
L 225.182579 240.162083 
L 224.987514 240.162083 
L 224.795813 240.162083 
L 224.698281 240.281298 
L 224.698281 240.162083 
L 224.698281 240.04088 
L 224.795813 240.642918 
L 225.085046 240.281298 
L 225.085046 240.4025 
L 224.987514 240.162083 
L 224.987514 240.162083 
" style="fill:none;stroke:#1f77b4;stroke-linecap:square;stroke-width:1.5;"/>
   </g>
   <g id="matplotlib.axis_1">
    <g id="xtick_1">
     <g id="line2d_2">
      <defs>
       <path d="M 0 0 
L 0 3.5 
" id="me8c2e30040" style="stroke:#000000;stroke-width:0.8;"/>
      </defs>
      <g>
       <use style="stroke:#000000;stroke-width:0.8;" x="103.354726" xlink:href="#me8c2e30040" y="307.584"/>
      </g>
     </g>
     <g id="text_1">
      <!-- −600 -->
      <defs>
       <path d="M 10.59375 35.5 
L 73.1875 35.5 
L 73.1875 27.203125 
L 10.59375 27.203125 
z
" id="DejaVuSans-8722"/>
       <path d="M 33.015625 40.375 
Q 26.375 40.375 22.484375 35.828125 
Q 18.609375 31.296875 18.609375 23.390625 
Q 18.609375 15.53125 22.484375 10.953125 
Q 26.375 6.390625 33.015625 6.390625 
Q 39.65625 6.390625 43.53125 10.953125 
Q 47.40625 15.53125 47.40625 23.390625 
Q 47.40625 31.296875 43.53125 35.828125 
Q 39.65625 40.375 33.015625 40.375 
z
M 52.59375 71.296875 
L 52.59375 62.3125 
Q 48.875 64.0625 45.09375 64.984375 
Q 41.3125 65.921875 37.59375 65.921875 
Q 27.828125 65.921875 22.671875 59.328125 
Q 17.53125 52.734375 16.796875 39.40625 
Q 19.671875 43.65625 24.015625 45.921875 
Q 28.375 48.1875 33.59375 48.1875 
Q 44.578125 48.1875 50.953125 41.515625 
Q 57.328125 34.859375 57.328125 23.390625 
Q 57.328125 12.15625 50.6875 5.359375 
Q 44.046875 -1.421875 33.015625 -1.421875 
Q 20.359375 -1.421875 13.671875 8.265625 
Q 6.984375 17.96875 6.984375 36.375 
Q 6.984375 53.65625 15.1875 63.9375 
Q 23.390625 74.21875 37.203125 74.21875 
Q 40.921875 74.21875 44.703125 73.484375 
Q 48.484375 72.75 52.59375 71.296875 
z
" id="DejaVuSans-54"/>
       <path d="M 31.78125 66.40625 
Q 24.171875 66.40625 20.328125 58.90625 
Q 16.5 51.421875 16.5 36.375 
Q 16.5 21.390625 20.328125 13.890625 
Q 24.171875 6.390625 31.78125 6.390625 
Q 39.453125 6.390625 43.28125 13.890625 
Q 47.125 21.390625 47.125 36.375 
Q 47.125 51.421875 43.28125 58.90625 
Q 39.453125 66.40625 31.78125 66.40625 
z
M 31.78125 74.21875 
Q 44.046875 74.21875 50.515625 64.515625 
Q 56.984375 54.828125 56.984375 36.375 
Q 56.984375 17.96875 50.515625 8.265625 
Q 44.046875 -1.421875 31.78125 -1.421875 
Q 19.53125 -1.421875 13.0625 8.265625 
Q 6.59375 17.96875 6.59375 36.375 
Q 6.59375 54.828125 13.0625 64.515625 
Q 19.53125 74.21875 31.78125 74.21875 
z
" id="DejaVuSans-48"/>
      </defs>
      <g transform="translate(89.621132 322.182437)scale(0.1 -0.1)">
       <use xlink:href="#DejaVuSans-8722"/>
       <use x="83.789062" xlink:href="#DejaVuSans-54"/>
       <use x="147.412109" xlink:href="#DejaVuSans-48"/>
       <use x="211.035156" xlink:href="#DejaVuSans-48"/>
      </g>
     </g>
    </g>
    <g id="xtick_2">
     <g id="line2d_3">
      <g>
       <use style="stroke:#000000;stroke-width:0.8;" x="170.618337" xlink:href="#me8c2e30040" y="307.584"/>
      </g>
     </g>
     <g id="text_2">
      <!-- −400 -->
      <defs>
       <path d="M 37.796875 64.3125 
L 12.890625 25.390625 
L 37.796875 25.390625 
z
M 35.203125 72.90625 
L 47.609375 72.90625 
L 47.609375 25.390625 
L 58.015625 25.390625 
L 58.015625 17.1875 
L 47.609375 17.1875 
L 47.609375 0 
L 37.796875 0 
L 37.796875 17.1875 
L 4.890625 17.1875 
L 4.890625 26.703125 
z
" id="DejaVuSans-52"/>
      </defs>
      <g transform="translate(156.884744 322.182437)scale(0.1 -0.1)">
       <use xlink:href="#DejaVuSans-8722"/>
       <use x="83.789062" xlink:href="#DejaVuSans-52"/>
       <use x="147.412109" xlink:href="#DejaVuSans-48"/>
       <use x="211.035156" xlink:href="#DejaVuSans-48"/>
      </g>
     </g>
    </g>
    <g id="xtick_3">
     <g id="line2d_4">
      <g>
       <use style="stroke:#000000;stroke-width:0.8;" x="237.881948" xlink:href="#me8c2e30040" y="307.584"/>
      </g>
     </g>
     <g id="text_3">
      <!-- −200 -->
      <defs>
       <path d="M 19.1875 8.296875 
L 53.609375 8.296875 
L 53.609375 0 
L 7.328125 0 
L 7.328125 8.296875 
Q 12.9375 14.109375 22.625 23.890625 
Q 32.328125 33.6875 34.8125 36.53125 
Q 39.546875 41.84375 41.421875 45.53125 
Q 43.3125 49.21875 43.3125 52.78125 
Q 43.3125 58.59375 39.234375 62.25 
Q 35.15625 65.921875 28.609375 65.921875 
Q 23.96875 65.921875 18.8125 64.3125 
Q 13.671875 62.703125 7.8125 59.421875 
L 7.8125 69.390625 
Q 13.765625 71.78125 18.9375 73 
Q 24.125 74.21875 28.421875 74.21875 
Q 39.75 74.21875 46.484375 68.546875 
Q 53.21875 62.890625 53.21875 53.421875 
Q 53.21875 48.921875 51.53125 44.890625 
Q 49.859375 40.875 45.40625 35.40625 
Q 44.1875 33.984375 37.640625 27.21875 
Q 31.109375 20.453125 19.1875 8.296875 
z
" id="DejaVuSans-50"/>
      </defs>
      <g transform="translate(224.148355 322.182437)scale(0.1 -0.1)">
       <use xlink:href="#DejaVuSans-8722"/>
       <use x="83.789062" xlink:href="#DejaVuSans-50"/>
       <use x="147.412109" xlink:href="#DejaVuSans-48"/>
       <use x="211.035156" xlink:href="#DejaVuSans-48"/>
      </g>
     </g>
    </g>
    <g id="xtick_4">
     <g id="line2d_5">
      <g>
       <use style="stroke:#000000;stroke-width:0.8;" x="305.14556" xlink:href="#me8c2e30040" y="307.584"/>
      </g>
     </g>
     <g id="text_4">
      <!-- 0 -->
      <g transform="translate(301.96431 322.182437)scale(0.1 -0.1)">
       <use xlink:href="#DejaVuSans-48"/>
      </g>
     </g>
    </g>
    <g id="xtick_5">
     <g id="line2d_6">
      <g>
       <use style="stroke:#000000;stroke-width:0.8;" x="372.409171" xlink:href="#me8c2e30040" y="307.584"/>
      </g>
     </g>
     <g id="text_5">
      <!-- 200 -->
      <g transform="translate(362.865421 322.182437)scale(0.1 -0.1)">
       <use xlink:href="#DejaVuSans-50"/>
       <use x="63.623047" xlink:href="#DejaVuSans-48"/>
       <use x="127.246094" xlink:href="#DejaVuSans-48"/>
      </g>
     </g>
    </g>
   </g>
   <g id="matplotlib.axis_2">
    <g id="ytick_1">
     <g id="line2d_7">
      <defs>
       <path d="M 0 0 
L -3.5 0 
" id="maa7c8406ba" style="stroke:#000000;stroke-width:0.8;"/>
      </defs>
      <g>
       <use style="stroke:#000000;stroke-width:0.8;" x="57.6" xlink:href="#maa7c8406ba" y="304.329815"/>
      </g>
     </g>
     <g id="text_6">
      <!-- −400 -->
      <g transform="translate(23.132812 308.129034)scale(0.1 -0.1)">
       <use xlink:href="#DejaVuSans-8722"/>
       <use x="83.789062" xlink:href="#DejaVuSans-52"/>
       <use x="147.412109" xlink:href="#DejaVuSans-48"/>
       <use x="211.035156" xlink:href="#DejaVuSans-48"/>
      </g>
     </g>
    </g>
    <g id="ytick_2">
     <g id="line2d_8">
      <g>
       <use style="stroke:#000000;stroke-width:0.8;" x="57.6" xlink:href="#maa7c8406ba" y="264.591321"/>
      </g>
     </g>
     <g id="text_7">
      <!-- −200 -->
      <g transform="translate(23.132812 268.39054)scale(0.1 -0.1)">
       <use xlink:href="#DejaVuSans-8722"/>
       <use x="83.789062" xlink:href="#DejaVuSans-50"/>
       <use x="147.412109" xlink:href="#DejaVuSans-48"/>
       <use x="211.035156" xlink:href="#DejaVuSans-48"/>
      </g>
     </g>
    </g>
    <g id="ytick_3">
     <g id="line2d_9">
      <g>
       <use style="stroke:#000000;stroke-width:0.8;" x="57.6" xlink:href="#maa7c8406ba" y="224.852828"/>
      </g>
     </g>
     <g id="text_8">
      <!-- 0 -->
      <g transform="translate(44.2375 228.652047)scale(0.1 -0.1)">
       <use xlink:href="#DejaVuSans-48"/>
      </g>
     </g>
    </g>
    <g id="ytick_4">
     <g id="line2d_10">
      <g>
       <use style="stroke:#000000;stroke-width:0.8;" x="57.6" xlink:href="#maa7c8406ba" y="185.114335"/>
      </g>
     </g>
     <g id="text_9">
      <!-- 200 -->
      <g transform="translate(31.5125 188.913553)scale(0.1 -0.1)">
       <use xlink:href="#DejaVuSans-50"/>
       <use x="63.623047" xlink:href="#DejaVuSans-48"/>
       <use x="127.246094" xlink:href="#DejaVuSans-48"/>
      </g>
     </g>
    </g>
    <g id="ytick_5">
     <g id="line2d_11">
      <g>
       <use style="stroke:#000000;stroke-width:0.8;" x="57.6" xlink:href="#maa7c8406ba" y="145.375841"/>
      </g>
     </g>
     <g id="text_10">
      <!-- 400 -->
      <g transform="translate(31.5125 149.17506)scale(0.1 -0.1)">
       <use xlink:href="#DejaVuSans-52"/>
       <use x="63.623047" xlink:href="#DejaVuSans-48"/>
       <use x="127.246094" xlink:href="#DejaVuSans-48"/>
      </g>
     </g>
    </g>
    <g id="ytick_6">
     <g id="line2d_12">
      <g>
       <use style="stroke:#000000;stroke-width:0.8;" x="57.6" xlink:href="#maa7c8406ba" y="105.637348"/>
      </g>
     </g>
     <g id="text_11">
      <!-- 600 -->
      <g transform="translate(31.5125 109.436567)scale(0.1 -0.1)">
       <use xlink:href="#DejaVuSans-54"/>
       <use x="63.623047" xlink:href="#DejaVuSans-48"/>
       <use x="127.246094" xlink:href="#DejaVuSans-48"/>
      </g>
     </g>
    </g>
    <g id="ytick_7">
     <g id="line2d_13">
      <g>
       <use style="stroke:#000000;stroke-width:0.8;" x="57.6" xlink:href="#maa7c8406ba" y="65.898854"/>
      </g>
     </g>
     <g id="text_12">
      <!-- 800 -->
      <defs>
       <path d="M 31.78125 34.625 
Q 24.75 34.625 20.71875 30.859375 
Q 16.703125 27.09375 16.703125 20.515625 
Q 16.703125 13.921875 20.71875 10.15625 
Q 24.75 6.390625 31.78125 6.390625 
Q 38.8125 6.390625 42.859375 10.171875 
Q 46.921875 13.96875 46.921875 20.515625 
Q 46.921875 27.09375 42.890625 30.859375 
Q 38.875 34.625 31.78125 34.625 
z
M 21.921875 38.8125 
Q 15.578125 40.375 12.03125 44.71875 
Q 8.5 49.078125 8.5 55.328125 
Q 8.5 64.0625 14.71875 69.140625 
Q 20.953125 74.21875 31.78125 74.21875 
Q 42.671875 74.21875 48.875 69.140625 
Q 55.078125 64.0625 55.078125 55.328125 
Q 55.078125 49.078125 51.53125 44.71875 
Q 48 40.375 41.703125 38.8125 
Q 48.828125 37.15625 52.796875 32.3125 
Q 56.78125 27.484375 56.78125 20.515625 
Q 56.78125 9.90625 50.3125 4.234375 
Q 43.84375 -1.421875 31.78125 -1.421875 
Q 19.734375 -1.421875 13.25 4.234375 
Q 6.78125 9.90625 6.78125 20.515625 
Q 6.78125 27.484375 10.78125 32.3125 
Q 14.796875 37.15625 21.921875 38.8125 
z
M 18.3125 54.390625 
Q 18.3125 48.734375 21.84375 45.5625 
Q 25.390625 42.390625 31.78125 42.390625 
Q 38.140625 42.390625 41.71875 45.5625 
Q 45.3125 48.734375 45.3125 54.390625 
Q 45.3125 60.0625 41.71875 63.234375 
Q 38.140625 66.40625 31.78125 66.40625 
Q 25.390625 66.40625 21.84375 63.234375 
Q 18.3125 60.0625 18.3125 54.390625 
z
" id="DejaVuSans-56"/>
      </defs>
      <g transform="translate(31.5125 69.698073)scale(0.1 -0.1)">
       <use xlink:href="#DejaVuSans-56"/>
       <use x="63.623047" xlink:href="#DejaVuSans-48"/>
       <use x="127.246094" xlink:href="#DejaVuSans-48"/>
      </g>
     </g>
    </g>
   </g>
   <g id="line2d_14">
    <path clip-path="url(#p4976c982aa)" d="M 76.262366 57.357741 
L 307.105397 190.770541 
L 386.192477 286.450731 
L 258.483671 283.402663 
L 258.032736 280.361523 
L 389.200395 293.041513 
L 226.755579 240.884649 
" style="fill:none;stroke:#ff0000;stroke-linecap:square;stroke-width:0.5;"/>
   </g>
   <g id="patch_3">
    <path d="M 57.6 307.584 
L 57.6 41.472 
" style="fill:none;stroke:#000000;stroke-linecap:square;stroke-linejoin:miter;stroke-width:0.8;"/>
   </g>
   <g id="patch_4">
    <path d="M 414.72 307.584 
L 414.72 41.472 
" style="fill:none;stroke:#000000;stroke-linecap:square;stroke-linejoin:miter;stroke-width:0.8;"/>
   </g>
   <g id="patch_5">
    <path d="M 57.6 307.584 
L 414.72 307.584 
" style="fill:none;stroke:#000000;stroke-linecap:square;stroke-linejoin:miter;stroke-width:0.8;"/>
   </g>
   <g id="patch_6">
    <path d="M 57.6 41.472 
L 414.72 41.472 
" style="fill:none;stroke:#000000;stroke-linecap:square;stroke-linejoin:miter;stroke-width:0.8;"/>
   </g>
   <g id="PathCollection_1">
    <defs>
     <path d="M 0 2.738613 
C 0.726289 2.738613 1.422928 2.450055 1.936492 1.936492 
C 2.450055 1.422928 2.738613 0.726289 2.738613 0 
C 2.738613 -0.726289 2.450055 -1.422928 1.936492 -1.936492 
C 1.422928 -2.450055 0.726289 -2.738613 0 -2.738613 
C -0.726289 -2.738613 -1.422928 -2.450055 -1.936492 -1.936492 
C -2.450055 -1.422928 -2.738613 -0.726289 -2.738613 0 
C -2.738613 0.726289 -2.450055 1.422928 -1.936492 1.936492 
C -1.422928 2.450055 -0.726289 2.738613 0 2.738613 
z
" id="mc660f46fc0" style="stroke:#ff0000;"/>
    </defs>
    <g clip-path="url(#p4976c982aa)">
     <use style="fill:#ff0000;stroke:#ff0000;" x="76.262366" xlink:href="#mc660f46fc0" y="57.357741"/>
     <use style="fill:#ff0000;stroke:#ff0000;" x="307.105397" xlink:href="#mc660f46fc0" y="190.770541"/>
     <use style="fill:#ff0000;stroke:#ff0000;" x="386.192477" xlink:href="#mc660f46fc0" y="286.450731"/>
     <use style="fill:#ff0000;stroke:#ff0000;" x="258.483671" xlink:href="#mc660f46fc0" y="283.402663"/>
     <use style="fill:#ff0000;stroke:#ff0000;" x="258.032736" xlink:href="#mc660f46fc0" y="280.361523"/>
     <use style="fill:#ff0000;stroke:#ff0000;" x="389.200395" xlink:href="#mc660f46fc0" y="293.041513"/>
     <use style="fill:#ff0000;stroke:#ff0000;" x="226.755579" xlink:href="#mc660f46fc0" y="240.884649"/>
    </g>
   </g>
   <g id="text_13">
    <!-- (63) Subject: s17, Known = True, Degree = 2, Duration = 0.1 -->
    <defs>
     <path d="M 31 75.875 
Q 24.46875 64.65625 21.28125 53.65625 
Q 18.109375 42.671875 18.109375 31.390625 
Q 18.109375 20.125 21.3125 9.0625 
Q 24.515625 -2 31 -13.1875 
L 23.1875 -13.1875 
Q 15.875 -1.703125 12.234375 9.375 
Q 8.59375 20.453125 8.59375 31.390625 
Q 8.59375 42.28125 12.203125 53.3125 
Q 15.828125 64.359375 23.1875 75.875 
z
" id="DejaVuSans-40"/>
     <path d="M 40.578125 39.3125 
Q 47.65625 37.796875 51.625 33 
Q 55.609375 28.21875 55.609375 21.1875 
Q 55.609375 10.40625 48.1875 4.484375 
Q 40.765625 -1.421875 27.09375 -1.421875 
Q 22.515625 -1.421875 17.65625 -0.515625 
Q 12.796875 0.390625 7.625 2.203125 
L 7.625 11.71875 
Q 11.71875 9.328125 16.59375 8.109375 
Q 21.484375 6.890625 26.8125 6.890625 
Q 36.078125 6.890625 40.9375 10.546875 
Q 45.796875 14.203125 45.796875 21.1875 
Q 45.796875 27.640625 41.28125 31.265625 
Q 36.765625 34.90625 28.71875 34.90625 
L 20.21875 34.90625 
L 20.21875 43.015625 
L 29.109375 43.015625 
Q 36.375 43.015625 40.234375 45.921875 
Q 44.09375 48.828125 44.09375 54.296875 
Q 44.09375 59.90625 40.109375 62.90625 
Q 36.140625 65.921875 28.71875 65.921875 
Q 24.65625 65.921875 20.015625 65.03125 
Q 15.375 64.15625 9.8125 62.3125 
L 9.8125 71.09375 
Q 15.4375 72.65625 20.34375 73.4375 
Q 25.25 74.21875 29.59375 74.21875 
Q 40.828125 74.21875 47.359375 69.109375 
Q 53.90625 64.015625 53.90625 55.328125 
Q 53.90625 49.265625 50.4375 45.09375 
Q 46.96875 40.921875 40.578125 39.3125 
z
" id="DejaVuSans-51"/>
     <path d="M 8.015625 75.875 
L 15.828125 75.875 
Q 23.140625 64.359375 26.78125 53.3125 
Q 30.421875 42.28125 30.421875 31.390625 
Q 30.421875 20.453125 26.78125 9.375 
Q 23.140625 -1.703125 15.828125 -13.1875 
L 8.015625 -13.1875 
Q 14.5 -2 17.703125 9.0625 
Q 20.90625 20.125 20.90625 31.390625 
Q 20.90625 42.671875 17.703125 53.65625 
Q 14.5 64.65625 8.015625 75.875 
z
" id="DejaVuSans-41"/>
     <path id="DejaVuSans-32"/>
     <path d="M 53.515625 70.515625 
L 53.515625 60.890625 
Q 47.90625 63.578125 42.921875 64.890625 
Q 37.9375 66.21875 33.296875 66.21875 
Q 25.25 66.21875 20.875 63.09375 
Q 16.5 59.96875 16.5 54.203125 
Q 16.5 49.359375 19.40625 46.890625 
Q 22.3125 44.4375 30.421875 42.921875 
L 36.375 41.703125 
Q 47.40625 39.59375 52.65625 34.296875 
Q 57.90625 29 57.90625 20.125 
Q 57.90625 9.515625 50.796875 4.046875 
Q 43.703125 -1.421875 29.984375 -1.421875 
Q 24.8125 -1.421875 18.96875 -0.25 
Q 13.140625 0.921875 6.890625 3.21875 
L 6.890625 13.375 
Q 12.890625 10.015625 18.65625 8.296875 
Q 24.421875 6.59375 29.984375 6.59375 
Q 38.421875 6.59375 43.015625 9.90625 
Q 47.609375 13.234375 47.609375 19.390625 
Q 47.609375 24.75 44.3125 27.78125 
Q 41.015625 30.8125 33.5 32.328125 
L 27.484375 33.5 
Q 16.453125 35.6875 11.515625 40.375 
Q 6.59375 45.0625 6.59375 53.421875 
Q 6.59375 63.09375 13.40625 68.65625 
Q 20.21875 74.21875 32.171875 74.21875 
Q 37.3125 74.21875 42.625 73.28125 
Q 47.953125 72.359375 53.515625 70.515625 
z
" id="DejaVuSans-83"/>
     <path d="M 8.5 21.578125 
L 8.5 54.6875 
L 17.484375 54.6875 
L 17.484375 21.921875 
Q 17.484375 14.15625 20.5 10.265625 
Q 23.53125 6.390625 29.59375 6.390625 
Q 36.859375 6.390625 41.078125 11.03125 
Q 45.3125 15.671875 45.3125 23.6875 
L 45.3125 54.6875 
L 54.296875 54.6875 
L 54.296875 0 
L 45.3125 0 
L 45.3125 8.40625 
Q 42.046875 3.421875 37.71875 1 
Q 33.40625 -1.421875 27.6875 -1.421875 
Q 18.265625 -1.421875 13.375 4.4375 
Q 8.5 10.296875 8.5 21.578125 
z
M 31.109375 56 
z
" id="DejaVuSans-117"/>
     <path d="M 48.6875 27.296875 
Q 48.6875 37.203125 44.609375 42.84375 
Q 40.53125 48.484375 33.40625 48.484375 
Q 26.265625 48.484375 22.1875 42.84375 
Q 18.109375 37.203125 18.109375 27.296875 
Q 18.109375 17.390625 22.1875 11.75 
Q 26.265625 6.109375 33.40625 6.109375 
Q 40.53125 6.109375 44.609375 11.75 
Q 48.6875 17.390625 48.6875 27.296875 
z
M 18.109375 46.390625 
Q 20.953125 51.265625 25.265625 53.625 
Q 29.59375 56 35.59375 56 
Q 45.5625 56 51.78125 48.09375 
Q 58.015625 40.1875 58.015625 27.296875 
Q 58.015625 14.40625 51.78125 6.484375 
Q 45.5625 -1.421875 35.59375 -1.421875 
Q 29.59375 -1.421875 25.265625 0.953125 
Q 20.953125 3.328125 18.109375 8.203125 
L 18.109375 0 
L 9.078125 0 
L 9.078125 75.984375 
L 18.109375 75.984375 
z
" id="DejaVuSans-98"/>
     <path d="M 9.421875 54.6875 
L 18.40625 54.6875 
L 18.40625 -0.984375 
Q 18.40625 -11.421875 14.421875 -16.109375 
Q 10.453125 -20.796875 1.609375 -20.796875 
L -1.8125 -20.796875 
L -1.8125 -13.1875 
L 0.59375 -13.1875 
Q 5.71875 -13.1875 7.5625 -10.8125 
Q 9.421875 -8.453125 9.421875 -0.984375 
z
M 9.421875 75.984375 
L 18.40625 75.984375 
L 18.40625 64.59375 
L 9.421875 64.59375 
z
" id="DejaVuSans-106"/>
     <path d="M 56.203125 29.59375 
L 56.203125 25.203125 
L 14.890625 25.203125 
Q 15.484375 15.921875 20.484375 11.0625 
Q 25.484375 6.203125 34.421875 6.203125 
Q 39.59375 6.203125 44.453125 7.46875 
Q 49.3125 8.734375 54.109375 11.28125 
L 54.109375 2.78125 
Q 49.265625 0.734375 44.1875 -0.34375 
Q 39.109375 -1.421875 33.890625 -1.421875 
Q 20.796875 -1.421875 13.15625 6.1875 
Q 5.515625 13.8125 5.515625 26.8125 
Q 5.515625 40.234375 12.765625 48.109375 
Q 20.015625 56 32.328125 56 
Q 43.359375 56 49.78125 48.890625 
Q 56.203125 41.796875 56.203125 29.59375 
z
M 47.21875 32.234375 
Q 47.125 39.59375 43.09375 43.984375 
Q 39.0625 48.390625 32.421875 48.390625 
Q 24.90625 48.390625 20.390625 44.140625 
Q 15.875 39.890625 15.1875 32.171875 
z
" id="DejaVuSans-101"/>
     <path d="M 48.78125 52.59375 
L 48.78125 44.1875 
Q 44.96875 46.296875 41.140625 47.34375 
Q 37.3125 48.390625 33.40625 48.390625 
Q 24.65625 48.390625 19.8125 42.84375 
Q 14.984375 37.3125 14.984375 27.296875 
Q 14.984375 17.28125 19.8125 11.734375 
Q 24.65625 6.203125 33.40625 6.203125 
Q 37.3125 6.203125 41.140625 7.25 
Q 44.96875 8.296875 48.78125 10.40625 
L 48.78125 2.09375 
Q 45.015625 0.34375 40.984375 -0.53125 
Q 36.96875 -1.421875 32.421875 -1.421875 
Q 20.0625 -1.421875 12.78125 6.34375 
Q 5.515625 14.109375 5.515625 27.296875 
Q 5.515625 40.671875 12.859375 48.328125 
Q 20.21875 56 33.015625 56 
Q 37.15625 56 41.109375 55.140625 
Q 45.0625 54.296875 48.78125 52.59375 
z
" id="DejaVuSans-99"/>
     <path d="M 18.3125 70.21875 
L 18.3125 54.6875 
L 36.8125 54.6875 
L 36.8125 47.703125 
L 18.3125 47.703125 
L 18.3125 18.015625 
Q 18.3125 11.328125 20.140625 9.421875 
Q 21.96875 7.515625 27.59375 7.515625 
L 36.8125 7.515625 
L 36.8125 0 
L 27.59375 0 
Q 17.1875 0 13.234375 3.875 
Q 9.28125 7.765625 9.28125 18.015625 
L 9.28125 47.703125 
L 2.6875 47.703125 
L 2.6875 54.6875 
L 9.28125 54.6875 
L 9.28125 70.21875 
z
" id="DejaVuSans-116"/>
     <path d="M 11.71875 12.40625 
L 22.015625 12.40625 
L 22.015625 0 
L 11.71875 0 
z
M 11.71875 51.703125 
L 22.015625 51.703125 
L 22.015625 39.3125 
L 11.71875 39.3125 
z
" id="DejaVuSans-58"/>
     <path d="M 44.28125 53.078125 
L 44.28125 44.578125 
Q 40.484375 46.53125 36.375 47.5 
Q 32.28125 48.484375 27.875 48.484375 
Q 21.1875 48.484375 17.84375 46.4375 
Q 14.5 44.390625 14.5 40.28125 
Q 14.5 37.15625 16.890625 35.375 
Q 19.28125 33.59375 26.515625 31.984375 
L 29.59375 31.296875 
Q 39.15625 29.25 43.1875 25.515625 
Q 47.21875 21.78125 47.21875 15.09375 
Q 47.21875 7.46875 41.1875 3.015625 
Q 35.15625 -1.421875 24.609375 -1.421875 
Q 20.21875 -1.421875 15.453125 -0.5625 
Q 10.6875 0.296875 5.421875 2 
L 5.421875 11.28125 
Q 10.40625 8.6875 15.234375 7.390625 
Q 20.0625 6.109375 24.8125 6.109375 
Q 31.15625 6.109375 34.5625 8.28125 
Q 37.984375 10.453125 37.984375 14.40625 
Q 37.984375 18.0625 35.515625 20.015625 
Q 33.0625 21.96875 24.703125 23.78125 
L 21.578125 24.515625 
Q 13.234375 26.265625 9.515625 29.90625 
Q 5.8125 33.546875 5.8125 39.890625 
Q 5.8125 47.609375 11.28125 51.796875 
Q 16.75 56 26.8125 56 
Q 31.78125 56 36.171875 55.265625 
Q 40.578125 54.546875 44.28125 53.078125 
z
" id="DejaVuSans-115"/>
     <path d="M 12.40625 8.296875 
L 28.515625 8.296875 
L 28.515625 63.921875 
L 10.984375 60.40625 
L 10.984375 69.390625 
L 28.421875 72.90625 
L 38.28125 72.90625 
L 38.28125 8.296875 
L 54.390625 8.296875 
L 54.390625 0 
L 12.40625 0 
z
" id="DejaVuSans-49"/>
     <path d="M 8.203125 72.90625 
L 55.078125 72.90625 
L 55.078125 68.703125 
L 28.609375 0 
L 18.3125 0 
L 43.21875 64.59375 
L 8.203125 64.59375 
z
" id="DejaVuSans-55"/>
     <path d="M 11.71875 12.40625 
L 22.015625 12.40625 
L 22.015625 4 
L 14.015625 -11.625 
L 7.71875 -11.625 
L 11.71875 4 
z
" id="DejaVuSans-44"/>
     <path d="M 9.8125 72.90625 
L 19.671875 72.90625 
L 19.671875 42.09375 
L 52.390625 72.90625 
L 65.09375 72.90625 
L 28.90625 38.921875 
L 67.671875 0 
L 54.6875 0 
L 19.671875 35.109375 
L 19.671875 0 
L 9.8125 0 
z
" id="DejaVuSans-75"/>
     <path d="M 54.890625 33.015625 
L 54.890625 0 
L 45.90625 0 
L 45.90625 32.71875 
Q 45.90625 40.484375 42.875 44.328125 
Q 39.84375 48.1875 33.796875 48.1875 
Q 26.515625 48.1875 22.3125 43.546875 
Q 18.109375 38.921875 18.109375 30.90625 
L 18.109375 0 
L 9.078125 0 
L 9.078125 54.6875 
L 18.109375 54.6875 
L 18.109375 46.1875 
Q 21.34375 51.125 25.703125 53.5625 
Q 30.078125 56 35.796875 56 
Q 45.21875 56 50.046875 50.171875 
Q 54.890625 44.34375 54.890625 33.015625 
z
" id="DejaVuSans-110"/>
     <path d="M 30.609375 48.390625 
Q 23.390625 48.390625 19.1875 42.75 
Q 14.984375 37.109375 14.984375 27.296875 
Q 14.984375 17.484375 19.15625 11.84375 
Q 23.34375 6.203125 30.609375 6.203125 
Q 37.796875 6.203125 41.984375 11.859375 
Q 46.1875 17.53125 46.1875 27.296875 
Q 46.1875 37.015625 41.984375 42.703125 
Q 37.796875 48.390625 30.609375 48.390625 
z
M 30.609375 56 
Q 42.328125 56 49.015625 48.375 
Q 55.71875 40.765625 55.71875 27.296875 
Q 55.71875 13.875 49.015625 6.21875 
Q 42.328125 -1.421875 30.609375 -1.421875 
Q 18.84375 -1.421875 12.171875 6.21875 
Q 5.515625 13.875 5.515625 27.296875 
Q 5.515625 40.765625 12.171875 48.375 
Q 18.84375 56 30.609375 56 
z
" id="DejaVuSans-111"/>
     <path d="M 4.203125 54.6875 
L 13.1875 54.6875 
L 24.421875 12.015625 
L 35.59375 54.6875 
L 46.1875 54.6875 
L 57.421875 12.015625 
L 68.609375 54.6875 
L 77.59375 54.6875 
L 63.28125 0 
L 52.6875 0 
L 40.921875 44.828125 
L 29.109375 0 
L 18.5 0 
z
" id="DejaVuSans-119"/>
     <path d="M 10.59375 45.40625 
L 73.1875 45.40625 
L 73.1875 37.203125 
L 10.59375 37.203125 
z
M 10.59375 25.484375 
L 73.1875 25.484375 
L 73.1875 17.1875 
L 10.59375 17.1875 
z
" id="DejaVuSans-61"/>
     <path d="M -0.296875 72.90625 
L 61.375 72.90625 
L 61.375 64.59375 
L 35.5 64.59375 
L 35.5 0 
L 25.59375 0 
L 25.59375 64.59375 
L -0.296875 64.59375 
z
" id="DejaVuSans-84"/>
     <path d="M 41.109375 46.296875 
Q 39.59375 47.171875 37.8125 47.578125 
Q 36.03125 48 33.890625 48 
Q 26.265625 48 22.1875 43.046875 
Q 18.109375 38.09375 18.109375 28.8125 
L 18.109375 0 
L 9.078125 0 
L 9.078125 54.6875 
L 18.109375 54.6875 
L 18.109375 46.1875 
Q 20.953125 51.171875 25.484375 53.578125 
Q 30.03125 56 36.53125 56 
Q 37.453125 56 38.578125 55.875 
Q 39.703125 55.765625 41.0625 55.515625 
z
" id="DejaVuSans-114"/>
     <path d="M 19.671875 64.796875 
L 19.671875 8.109375 
L 31.59375 8.109375 
Q 46.6875 8.109375 53.6875 14.9375 
Q 60.6875 21.78125 60.6875 36.53125 
Q 60.6875 51.171875 53.6875 57.984375 
Q 46.6875 64.796875 31.59375 64.796875 
z
M 9.8125 72.90625 
L 30.078125 72.90625 
Q 51.265625 72.90625 61.171875 64.09375 
Q 71.09375 55.28125 71.09375 36.53125 
Q 71.09375 17.671875 61.125 8.828125 
Q 51.171875 0 30.078125 0 
L 9.8125 0 
z
" id="DejaVuSans-68"/>
     <path d="M 45.40625 27.984375 
Q 45.40625 37.75 41.375 43.109375 
Q 37.359375 48.484375 30.078125 48.484375 
Q 22.859375 48.484375 18.828125 43.109375 
Q 14.796875 37.75 14.796875 27.984375 
Q 14.796875 18.265625 18.828125 12.890625 
Q 22.859375 7.515625 30.078125 7.515625 
Q 37.359375 7.515625 41.375 12.890625 
Q 45.40625 18.265625 45.40625 27.984375 
z
M 54.390625 6.78125 
Q 54.390625 -7.171875 48.1875 -13.984375 
Q 42 -20.796875 29.203125 -20.796875 
Q 24.46875 -20.796875 20.265625 -20.09375 
Q 16.0625 -19.390625 12.109375 -17.921875 
L 12.109375 -9.1875 
Q 16.0625 -11.328125 19.921875 -12.34375 
Q 23.78125 -13.375 27.78125 -13.375 
Q 36.625 -13.375 41.015625 -8.765625 
Q 45.40625 -4.15625 45.40625 5.171875 
L 45.40625 9.625 
Q 42.625 4.78125 38.28125 2.390625 
Q 33.9375 0 27.875 0 
Q 17.828125 0 11.671875 7.65625 
Q 5.515625 15.328125 5.515625 27.984375 
Q 5.515625 40.671875 11.671875 48.328125 
Q 17.828125 56 27.875 56 
Q 33.9375 56 38.28125 53.609375 
Q 42.625 51.21875 45.40625 46.390625 
L 45.40625 54.6875 
L 54.390625 54.6875 
z
" id="DejaVuSans-103"/>
     <path d="M 34.28125 27.484375 
Q 23.390625 27.484375 19.1875 25 
Q 14.984375 22.515625 14.984375 16.5 
Q 14.984375 11.71875 18.140625 8.90625 
Q 21.296875 6.109375 26.703125 6.109375 
Q 34.1875 6.109375 38.703125 11.40625 
Q 43.21875 16.703125 43.21875 25.484375 
L 43.21875 27.484375 
z
M 52.203125 31.203125 
L 52.203125 0 
L 43.21875 0 
L 43.21875 8.296875 
Q 40.140625 3.328125 35.546875 0.953125 
Q 30.953125 -1.421875 24.3125 -1.421875 
Q 15.921875 -1.421875 10.953125 3.296875 
Q 6 8.015625 6 15.921875 
Q 6 25.140625 12.171875 29.828125 
Q 18.359375 34.515625 30.609375 34.515625 
L 43.21875 34.515625 
L 43.21875 35.40625 
Q 43.21875 41.609375 39.140625 45 
Q 35.0625 48.390625 27.6875 48.390625 
Q 23 48.390625 18.546875 47.265625 
Q 14.109375 46.140625 10.015625 43.890625 
L 10.015625 52.203125 
Q 14.9375 54.109375 19.578125 55.046875 
Q 24.21875 56 28.609375 56 
Q 40.484375 56 46.34375 49.84375 
Q 52.203125 43.703125 52.203125 31.203125 
z
" id="DejaVuSans-97"/>
     <path d="M 9.421875 54.6875 
L 18.40625 54.6875 
L 18.40625 0 
L 9.421875 0 
z
M 9.421875 75.984375 
L 18.40625 75.984375 
L 18.40625 64.59375 
L 9.421875 64.59375 
z
" id="DejaVuSans-105"/>
     <path d="M 10.6875 12.40625 
L 21 12.40625 
L 21 0 
L 10.6875 0 
z
" id="DejaVuSans-46"/>
    </defs>
    <g transform="translate(51.733125 35.472)scale(0.12 -0.12)">
     <use xlink:href="#DejaVuSans-40"/>
     <use x="39.013672" xlink:href="#DejaVuSans-54"/>
     <use x="102.636719" xlink:href="#DejaVuSans-51"/>
     <use x="166.259766" xlink:href="#DejaVuSans-41"/>
     <use x="205.273438" xlink:href="#DejaVuSans-32"/>
     <use x="237.060547" xlink:href="#DejaVuSans-83"/>
     <use x="300.537109" xlink:href="#DejaVuSans-117"/>
     <use x="363.916016" xlink:href="#DejaVuSans-98"/>
     <use x="427.392578" xlink:href="#DejaVuSans-106"/>
     <use x="455.175781" xlink:href="#DejaVuSans-101"/>
     <use x="516.699219" xlink:href="#DejaVuSans-99"/>
     <use x="571.679688" xlink:href="#DejaVuSans-116"/>
     <use x="610.888672" xlink:href="#DejaVuSans-58"/>
     <use x="644.580078" xlink:href="#DejaVuSans-32"/>
     <use x="676.367188" xlink:href="#DejaVuSans-115"/>
     <use x="728.466797" xlink:href="#DejaVuSans-49"/>
     <use x="792.089844" xlink:href="#DejaVuSans-55"/>
     <use x="855.712891" xlink:href="#DejaVuSans-44"/>
     <use x="887.5" xlink:href="#DejaVuSans-32"/>
     <use x="919.287109" xlink:href="#DejaVuSans-75"/>
     <use x="984.863281" xlink:href="#DejaVuSans-110"/>
     <use x="1048.242188" xlink:href="#DejaVuSans-111"/>
     <use x="1109.423828" xlink:href="#DejaVuSans-119"/>
     <use x="1191.210938" xlink:href="#DejaVuSans-110"/>
     <use x="1254.589844" xlink:href="#DejaVuSans-32"/>
     <use x="1286.376953" xlink:href="#DejaVuSans-61"/>
     <use x="1370.166016" xlink:href="#DejaVuSans-32"/>
     <use x="1401.953125" xlink:href="#DejaVuSans-84"/>
     <use x="1462.818359" xlink:href="#DejaVuSans-114"/>
     <use x="1503.931641" xlink:href="#DejaVuSans-117"/>
     <use x="1567.310547" xlink:href="#DejaVuSans-101"/>
     <use x="1628.833984" xlink:href="#DejaVuSans-44"/>
     <use x="1660.621094" xlink:href="#DejaVuSans-32"/>
     <use x="1692.408203" xlink:href="#DejaVuSans-68"/>
     <use x="1769.410156" xlink:href="#DejaVuSans-101"/>
     <use x="1830.933594" xlink:href="#DejaVuSans-103"/>
     <use x="1894.410156" xlink:href="#DejaVuSans-114"/>
     <use x="1935.492188" xlink:href="#DejaVuSans-101"/>
     <use x="1997.015625" xlink:href="#DejaVuSans-101"/>
     <use x="2058.539062" xlink:href="#DejaVuSans-32"/>
     <use x="2090.326172" xlink:href="#DejaVuSans-61"/>
     <use x="2174.115234" xlink:href="#DejaVuSans-32"/>
     <use x="2205.902344" xlink:href="#DejaVuSans-50"/>
     <use x="2269.525391" xlink:href="#DejaVuSans-44"/>
     <use x="2301.3125" xlink:href="#DejaVuSans-32"/>
     <use x="2333.099609" xlink:href="#DejaVuSans-68"/>
     <use x="2410.101562" xlink:href="#DejaVuSans-117"/>
     <use x="2473.480469" xlink:href="#DejaVuSans-114"/>
     <use x="2514.59375" xlink:href="#DejaVuSans-97"/>
     <use x="2575.873047" xlink:href="#DejaVuSans-116"/>
     <use x="2615.082031" xlink:href="#DejaVuSans-105"/>
     <use x="2642.865234" xlink:href="#DejaVuSans-111"/>
     <use x="2704.046875" xlink:href="#DejaVuSans-110"/>
     <use x="2767.425781" xlink:href="#DejaVuSans-32"/>
     <use x="2799.212891" xlink:href="#DejaVuSans-61"/>
     <use x="2883.001953" xlink:href="#DejaVuSans-32"/>
     <use x="2914.789062" xlink:href="#DejaVuSans-48"/>
     <use x="2978.412109" xlink:href="#DejaVuSans-46"/>
     <use x="3010.199219" xlink:href="#DejaVuSans-49"/>
    </g>
   </g>
  </g>
 </g>
 <defs>
  <clipPath id="p4976c982aa">
   <rect height="266.112" width="357.12" x="57.6" y="41.472"/>
  </clipPath>
 </defs>
</svg>
