<?xml version="1.0" encoding="utf-8" standalone="no"?>
<!DOCTYPE svg PUBLIC "-//W3C//DTD SVG 1.1//EN"
  "http://www.w3.org/Graphics/SVG/1.1/DTD/svg11.dtd">
<!-- Created with matplotlib (https://matplotlib.org/) -->
<svg height="345.6pt" version="1.1" viewBox="0 0 460.8 345.6" width="460.8pt" xmlns="http://www.w3.org/2000/svg" xmlns:xlink="http://www.w3.org/1999/xlink">
 <defs>
  <style type="text/css">
*{stroke-linecap:butt;stroke-linejoin:round;}
  </style>
 </defs>
 <g id="figure_1">
  <g id="patch_1">
   <path d="M 0 345.6 
L 460.8 345.6 
L 460.8 0 
L 0 0 
z
" style="fill:#ffffff;"/>
  </g>
  <g id="axes_1">
   <g id="patch_2">
    <path d="M 57.6 307.584 
L 414.72 307.584 
L 414.72 41.472 
L 57.6 41.472 
z
" style="fill:#ffffff;"/>
   </g>
   <g id="line2d_1">
    <path clip-path="url(#p62d17398d4)" d="M 394.784921 292.878854 
L 394.914135 293.353825 
L 394.784921 293.828796 
L 394.914135 293.709521 
L 394.658345 293.945942 
L 394.529132 293.828796 
L 395.040711 293.709521 
L 395.2965 293.709521 
L 395.2965 293.828796 
L 395.2965 293.828796 
L 394.914135 293.590246 
L 394.784921 293.709521 
L 395.040711 294.301637 
L 394.914135 294.420913 
L 394.529132 294.065217 
L 394.529132 294.184492 
L 394.658345 294.420913 
L 394.658345 294.657333 
L 394.658345 294.657333 
L 394.914135 294.540188 
L 395.040711 294.540188 
L 395.040711 294.657333 
L 394.658345 294.895884 
L 394.146767 294.895884 
L 394.020191 294.657333 
L 394.529132 294.540188 
L 394.914135 294.895884 
L 394.784921 294.895884 
L 394.402556 294.776608 
L 394.020191 294.420913 
L 394.146767 294.657333 
L 394.27598 295.013029 
L 394.658345 295.013029 
L 394.914135 295.132304 
L 394.658345 294.540188 
L 394.784921 294.420913 
L 394.914135 294.540188 
L 395.040711 295.013029 
L 394.914135 295.368725 
L 394.658345 295.488 
L 394.529132 295.368725 
L 395.040711 295.368725 
L 394.784921 294.657333 
L 395.040711 294.776608 
L 395.167287 295.132304 
L 395.167287 295.488 
L 395.167287 295.24945 
L 395.552289 294.420913 
L 395.552289 294.540188 
L 395.805441 294.657333 
L 395.805441 294.065217 
L 395.552289 293.945942 
L 395.552289 293.709521 
L 395.678865 293.590246 
L 395.678865 293.590246 
L 395.423076 293.353825 
L 395.805441 293.23455 
L 396.31702 293.23455 
L 396.443596 293.117405 
L 396.31702 292.878854 
L 395.805441 292.761709 
L 395.934654 292.878854 
L 397.33754 291.458201 
L 396.955174 291.813897 
L 396.828598 291.813897 
L 397.464116 291.931042 
L 397.593329 291.931042 
L 396.955174 291.458201 
L 397.08175 291.102505 
L 397.849118 290.508259 
L 397.849118 290.154693 
L 397.593329 290.154693 
L 397.33754 290.391114 
L 397.08175 290.271838 
L 397.33754 289.324026 
L 397.719905 289.204751 
L 397.33754 289.324026 
L 397.33754 288.849055 
L 396.828598 288.849055 
L 396.828598 288.612635 
L 397.08175 288.376214 
L 397.719905 288.256939 
L 397.975694 287.784098 
L 397.849118 288.137664 
L 397.849118 288.376214 
L 397.719905 288.376214 
L 397.593329 287.901243 
L 397.719905 287.664822 
L 397.975694 287.428402 
L 398.10227 287.072706 
L 397.975694 287.072706 
L 398.10227 287.189851 
L 398.35806 287.189851 
L 398.487273 287.309127 
L 398.231483 286.953431 
L 397.975694 286.597735 
L 397.975694 286.597735 
L 398.487273 286.361314 
L 398.231483 286.597735 
L 397.849118 287.189851 
L 397.849118 287.545547 
L 398.10227 287.309127 
L 398.231483 286.71701 
L 397.975694 286.47846 
L 397.593329 286.47846 
L 397.593329 286.71701 
L 397.849118 286.71701 
L 398.231483 286.47846 
L 398.10227 286.361314 
L 397.849118 286.361314 
L 397.464116 286.122764 
L 397.464116 285.530648 
L 397.33754 285.174952 
L 397.464116 285.413502 
L 397.975694 285.530648 
L 398.231483 285.530648 
L 398.231483 285.530648 
L 398.10227 285.294227 
L 397.975694 284.819256 
L 397.719905 284.46356 
L 397.593329 284.582835 
L 397.593329 285.057806 
L 397.719905 285.294227 
L 398.10227 285.057806 
L 398.10227 284.819256 
L 397.975694 284.938531 
L 398.10227 284.819256 
L 397.975694 284.702111 
L 397.33754 284.702111 
L 397.08175 284.582835 
L 396.828598 284.938531 
L 396.828598 284.819256 
L 397.210964 284.46356 
L 396.443596 285.057806 
L 395.552289 284.819256 
L 395.040711 284.938531 
L 392.870458 284.938531 
L 388.659165 285.294227 
L 385.597605 285.057806 
L 376.281076 283.396473 
L 370.537685 282.21224 
L 364.667717 281.145153 
L 358.671174 279.841645 
L 352.416205 278.182441 
L 328.424757 271.307076 
L 322.937155 269.172901 
L 317.705342 266.921581 
L 300.860171 260.401911 
L 296.010724 258.031316 
L 285.802888 253.765096 
L 280.697651 251.630921 
L 271.763487 247.601122 
L 261.044073 242.267815 
L 257.982513 241.081452 
L 255.047529 239.777945 
L 249.559927 236.340262 
L 247.389675 235.39245 
L 245.601787 235.156029 
L 243.943112 234.800333 
L 242.796016 233.852521 
L 241.902073 232.785434 
L 241.646283 232.785434 
L 241.646283 233.021854 
L 241.775497 233.37755 
L 242.028649 233.613971 
L 242.922593 233.733246 
L 243.178382 233.733246 
L 243.560747 234.088942 
L 245.348635 235.036754 
L 245.601787 235.39245 
L 245.601787 235.867421 
L 245.731 236.103841 
L 245.601787 236.340262 
L 245.601787 237.170929 
L 245.857576 237.526624 
L 245.475211 237.64377 
L 244.71048 237.64377 
L 244.325478 237.763045 
L 244.71048 239.185828 
L 244.581267 239.185828 
L 244.072326 238.710857 
L 244.198902 238.593712 
L 244.454691 238.710857 
L 244.837056 238.710857 
L 244.454691 238.474437 
L 244.198902 238.830132 
L 243.943112 238.710857 
L 244.198902 238.949408 
L 244.963632 239.305103 
L 245.219422 239.305103 
L 245.219422 239.066553 
L 244.963632 239.066553 
L 244.581267 239.185828 
L 244.072326 239.066553 
L 244.198902 239.422249 
L 244.581267 239.777945 
L 244.71048 239.660799 
L 244.454691 239.422249 
L 244.837056 239.660799 
L 244.71048 239.777945 
L 244.581267 239.89722 
L 244.71048 240.014365 
L 244.963632 239.89722 
L 245.092845 239.541524 
L 245.092845 239.660799 
L 245.348635 239.89722 
L 244.837056 240.13364 
L 245.219422 239.89722 
L 245.601787 240.370061 
L 245.986789 240.370061 
L 245.986789 240.252916 
L 245.601787 240.252916 
L 245.986789 240.252916 
L 244.963632 240.014365 
L 245.092845 240.13364 
L 245.348635 239.89722 
L 245.219422 239.541524 
L 244.963632 239.541524 
L 244.837056 239.660799 
L 244.963632 239.660799 
L 245.219422 239.777945 
L 244.837056 240.014365 
L 244.963632 240.13364 
L 245.219422 240.13364 
L 245.348635 239.89722 
L 245.348635 240.014365 
L 245.475211 240.13364 
L 246.113365 239.422249 
L 246.369155 239.066553 
L 246.239942 239.066553 
L 245.986789 238.949408 
L 245.857576 239.185828 
L 245.857576 239.541524 
L 245.857576 239.305103 
L 245.601787 239.185828 
L 245.475211 239.305103 
L 245.601787 239.541524 
L 245.731 239.422249 
L 245.475211 239.066553 
L 245.731 238.949408 
L 245.731 239.066553 
L 245.601787 239.422249 
L 245.601787 239.660799 
L 245.601787 239.185828 
L 246.369155 239.185828 
L 246.369155 239.066553 
L 246.369155 239.066553 
L 246.239942 239.305103 
L 246.369155 239.305103 
L 246.239942 239.066553 
L 245.986789 238.238016 
L 245.857576 238.238016 
L 245.857576 238.355161 
L 246.239942 238.355161 
L 246.239942 238.474437 
L 245.986789 238.118741 
L 246.369155 238.118741 
L 246.624944 238.238016 
L 246.75152 238.118741 
L 246.878096 238.238016 
L 246.75152 238.355161 
L 246.495731 238.238016 
L 246.369155 237.999466 
L 247.516251 237.64377 
L 247.389675 237.64377 
L 247.007309 237.64377 
L 246.878096 237.407349 
L 246.878096 237.170929 
L 247.007309 237.170929 
L 247.389675 237.64377 
L 247.389675 237.407349 
L 247.389675 237.290204 
L 247.263098 237.170929 
L 247.007309 237.170929 
L 247.133885 237.526624 
L 247.389675 237.64377 
L 248.283618 237.407349 
L 248.154405 237.407349 
L 247.263098 237.407349 
L 247.389675 237.051653 
L 247.389675 236.578812 
L 247.133885 236.223116 
L 247.263098 236.223116 
L 247.389675 236.223116 
L 247.389675 236.223116 
L 247.516251 235.984566 
L 248.027829 235.62887 
L 247.898616 235.62887 
L 247.389675 235.867421 
L 247.389675 235.984566 
L 248.027829 236.103841 
L 248.154405 236.103841 
L 248.154405 236.103841 
L 248.154405 236.223116 
L 248.027829 236.223116 
L 247.645464 235.748145 
L 247.516251 235.156029 
L 247.263098 234.800333 
L 245.601787 235.156029 
L 242.796016 234.800333 
L 240.625763 234.325362 
L 230.41529 232.549013 
L 226.203998 231.599071 
L 216.890105 229.228476 
L 211.784869 228.280664 
L 206.679632 227.569272 
L 201.065454 226.62146 
L 195.322063 225.437227 
L 189.578672 224.131589 
L 183.964494 222.710936 
L 178.350316 221.168878 
L 173.245079 219.273253 
L 168.651421 217.375499 
L 159.590681 214.532063 
L 155.250175 212.753584 
L 147.594957 209.196626 
L 143.892606 207.537422 
L 140.192892 205.641798 
L 136.237388 203.863319 
L 128.579533 201.019882 
L 125.006395 199.477824 
L 121.433257 198.174316 
L 114.031191 195.328749 
L 106.120184 192.958154 
L 102.291257 191.654646 
L 94.633402 189.876167 
L 91.060264 189.284051 
L 87.742915 188.572659 
L 81.872947 186.913455 
L 79.320329 186.440614 
L 76.129556 185.965643 
L 75.235613 185.729223 
L 74.341669 185.134976 
L 73.832727 184.54286 
L 73.832727 184.187164 
L 75.109036 183.714323 
L 76.767711 183.475773 
L 77.788231 183.475773 
L 78.937964 183.358627 
L 80.596638 183.475773 
L 82.1261 182.647236 
L 82.893467 182.527961 
L 83.275833 182.647236 
L 83.402409 182.883656 
L 83.658198 182.883656 
L 83.658198 183.002932 
L 83.402409 183.358627 
L 82.511102 183.831469 
L 82.637678 184.070019 
L 82.893467 184.30644 
L 82.637678 184.425715 
L 82.381889 184.30644 
L 81.999524 184.662135 
L 82.255313 184.54286 
L 83.149257 184.54286 
L 83.149257 184.781411 
L 83.020043 184.898556 
L 83.020043 184.662135 
L 83.531622 184.187164 
L 83.149257 184.54286 
L 83.149257 184.781411 
L 83.787411 184.187164 
L 83.913987 184.30644 
L 83.531622 184.898556 
L 83.913987 184.30644 
L 83.658198 184.425715 
L 83.531622 184.662135 
L 83.787411 184.898556 
L 84.040563 184.898556 
L 84.169777 185.134976 
L 84.169777 185.373527 
L 84.040563 185.254252 
L 84.040563 185.017831 
L 84.169777 184.898556 
L 83.913987 184.781411 
L 83.275833 184.781411 
L 83.149257 184.662135 
L 83.149257 184.781411 
L 83.275833 185.017831 
L 84.169777 185.254252 
L 84.169777 185.254252 
L 84.169777 185.134976 
L 83.913987 185.017831 
L 83.658198 185.373527 
L 83.658198 185.729223 
L 83.913987 185.729223 
L 84.425566 185.609947 
L 84.552142 185.846368 
L 84.425566 185.846368 
L 84.296353 185.609947 
L 84.040563 185.490672 
L 84.169777 185.373527 
L 84.169777 185.609947 
L 84.296353 185.965643 
L 84.807931 185.609947 
L 84.552142 186.084919 
L 84.552142 185.729223 
L 84.552142 185.729223 
L 84.678718 185.490672 
L 84.678718 185.490672 
L 84.678718 185.729223 
L 84.934507 186.55776 
L 85.190296 186.55776 
L 85.316873 186.440614 
L 84.678718 185.729223 
L 84.425566 185.846368 
L 84.296353 186.084919 
L 84.425566 186.321339 
L 85.446086 186.55776 
L 85.446086 186.677035 
L 85.190296 186.440614 
L 85.06372 185.965643 
L 85.06372 186.084919 
L 84.934507 186.321339 
L 84.934507 186.55776 
L 85.06372 186.55776 
L 85.699238 185.965643 
L 85.828451 186.084919 
L 85.828451 186.55776 
L 85.699238 186.79631 
L 86.466606 186.55776 
L 86.722395 186.677035 
L 86.848971 186.677035 
L 86.848971 186.677035 
L 86.337392 186.55776 
L 85.955027 186.677035 
L 85.955027 186.79631 
L 86.722395 187.032731 
L 86.722395 187.152006 
L 86.337392 187.152006 
L 86.593182 187.152006 
L 86.848971 186.913455 
L 86.848971 186.55776 
L 86.722395 186.440614 
L 86.593182 186.55776 
L 86.722395 186.913455 
L 86.593182 187.388426 
L 87.10476 186.79631 
L 86.975547 186.440614 
L 86.593182 186.321339 
L 86.210816 186.677035 
L 86.722395 187.032731 
L 87.10476 187.861268 
L 87.10476 187.861268 
L 87.10476 187.505572 
L 86.975547 187.032731 
L 87.10476 186.79631 
L 87.231336 187.032731 
L 87.613702 187.152006 
L 87.613702 187.505572 
L 87.487125 187.861268 
L 87.231336 187.980543 
L 87.487125 187.861268 
L 87.487125 187.388426 
L 87.360549 186.677035 
L 87.487125 186.677035 
L 88.12528 186.440614 
L 88.12528 186.55776 
L 87.998704 187.032731 
L 87.613702 187.388426 
L 87.231336 187.388426 
L 87.231336 187.269151 
L 87.360549 187.032731 
L 87.360549 186.202064 
L 87.487125 186.202064 
L 88.251856 186.677035 
L 88.381069 186.55776 
L 88.381069 186.321339 
L 88.12528 185.965643 
L 88.251856 186.084919 
L 88.636859 186.084919 
L 89.528165 185.846368 
L 89.275013 185.729223 
L 89.1458 185.729223 
L 89.528165 185.017831 
L 89.528165 184.781411 
L 89.401589 184.781411 
L 89.401589 184.898556 
L 89.657378 184.898556 
L 90.039744 184.781411 
L 90.422109 184.781411 
L 90.677898 184.662135 
L 90.548685 184.30644 
L 90.804474 184.070019 
L 90.804474 182.883656 
L 91.316053 182.410815 
L 91.060264 182.410815 
L 91.316053 181.580148 
L 91.316053 181.343728 
L 91.316053 181.343728 
L 91.824994 180.988032 
L 92.336573 180.988032 
L 92.592362 180.868757 
L 92.463149 180.868757 
L 92.209997 180.513061 
L 91.824994 180.157365 
L 93.101304 180.157365 
L 93.486306 180.04022 
L 93.230517 179.445974 
L 93.230517 179.209553 
L 93.486306 179.090278 
L 93.357093 179.090278 
L 93.357093 178.853857 
L 93.739458 177.78677 
L 94.121823 178.02319 
L 94.506826 178.02319 
L 94.506826 177.906045 
L 94.377613 177.194654 
L 94.759978 177.431074 
L 94.759978 177.075378 
L 94.251037 176.246841 
L 94.633402 176.483262 
L 95.653922 176.127566 
L 95.783135 175.77187 
L 95.398133 175.416175 
L 95.527346 175.416175 
L 95.909711 175.060479 
L 95.909711 174.824058 
L 96.1655 174.704783 
L 96.674442 175.060479 
L 96.674442 174.704783 
L 96.547866 173.993391 
L 96.1655 173.637696 
L 95.909711 173.993391 
L 96.1655 174.112667 
L 96.674442 174.112667 
L 96.930231 174.231942 
L 96.674442 174.587638 
L 96.421289 174.587638 
L 96.292076 174.349087 
L 96.292076 173.756971 
L 96.803655 173.282 
L 96.803655 173.52055 
L 96.674442 173.756971 
L 96.930231 173.756971 
L 97.441809 173.52055 
L 97.18602 173.164854 
L 97.312596 173.282 
L 97.441809 173.164854 
L 97.312596 172.928434 
L 97.312596 172.689883 
L 97.312596 172.809159 
L 97.18602 172.928434 
L 97.312596 172.689883 
L 97.312596 172.572738 
L 97.18602 172.334188 
L 95.653922 171.978492 
L 95.14498 172.453463 
L 94.377613 172.453463 
L 93.101304 172.334188 
L 90.933688 172.453463 
L 87.360549 172.453463 
L 86.593182 172.572738 
L 85.828451 173.045579 
L 85.446086 173.045579 
L 85.190296 172.928434 
L 85.190296 172.928434 
L 84.296353 173.401275 
L 84.425566 173.164854 
L 84.678718 173.282 
L 84.807931 173.52055 
L 84.678718 173.756971 
L 84.425566 173.876246 
L 84.296353 174.112667 
L 84.040563 174.231942 
L 83.787411 174.704783 
L 84.040563 174.704783 
L 84.678718 174.587638 
L 84.678718 174.587638 
L 84.552142 174.824058 
L 84.552142 175.060479 
L 84.425566 174.943333 
L 84.552142 174.704783 
L 84.807931 174.704783 
L 85.316873 175.299029 
L 85.572662 175.652595 
L 85.572662 175.416175 
L 85.446086 175.060479 
L 85.06372 175.179754 
L 84.678718 175.53545 
L 84.934507 175.416175 
L 85.446086 175.53545 
L 85.699238 175.891146 
L 85.699238 176.127566 
L 85.955027 176.127566 
L 85.699238 175.77187 
L 85.699238 175.652595 
L 85.572662 175.53545 
L 85.572662 175.77187 
L 85.699238 175.891146 
L 85.699238 175.299029 
L 85.828451 175.179754 
L 85.955027 175.416175 
L 85.699238 175.891146 
L 85.828451 175.652595 
L 86.08424 175.652595 
L 86.466606 176.127566 
L 86.593182 176.127566 
L 86.593182 176.008291 
L 86.593182 176.127566 
L 86.210816 176.127566 
L 86.337392 176.127566 
L 86.466606 176.363987 
L 86.210816 176.483262 
L 85.828451 176.363987 
L 85.828451 176.127566 
L 86.08424 176.483262 
L 86.337392 177.075378 
L 86.593182 177.194654 
L 86.722395 177.075378 
L 86.848971 176.602537 
L 86.848971 176.719682 
L 86.337392 177.075378 
L 86.337392 176.602537 
L 86.337392 176.719682 
L 86.210816 177.194654 
L 86.337392 177.431074 
L 86.848971 177.550349 
L 86.593182 177.431074 
L 86.337392 177.194654 
L 86.593182 177.075378 
L 87.10476 177.075378 
L 87.10476 177.313929 
L 86.722395 177.669625 
L 86.337392 177.78677 
L 86.337392 177.550349 
L 86.466606 177.194654 
L 86.466606 177.431074 
L 86.593182 177.669625 
L 86.848971 177.669625 
L 86.848971 177.550349 
L 86.593182 177.550349 
L 86.593182 177.78677 
L 86.848971 177.906045 
L 87.231336 177.906045 
L 87.10476 177.669625 
L 86.722395 177.431074 
L 86.722395 177.075378 
L 87.10476 177.194654 
L 87.742915 177.550349 
L 87.10476 178.261741 
L 87.10476 178.734582 
L 87.360549 178.498161 
L 87.231336 178.02319 
L 86.722395 177.550349 
L 86.848971 177.431074 
L 87.613702 177.669625 
L 87.360549 177.550349 
L 87.742915 177.313929 
L 87.869491 177.313929 
L 87.998704 177.550349 
L 87.869491 177.669625 
L 87.742915 177.431074 
L 87.998704 177.431074 
L 88.12528 177.550349 
L 87.613702 177.194654 
L 87.487125 177.431074 
L 87.487125 177.431074 
L 87.869491 177.550349 
L 87.869491 177.313929 
L 87.487125 177.194654 
L 87.869491 177.075378 
L 87.487125 176.838958 
L 87.487125 176.602537 
L 88.12528 176.958233 
L 88.12528 177.075378 
L 88.12528 177.075378 
L 88.381069 176.719682 
L 88.251856 176.602537 
L 87.998704 176.602537 
L 88.12528 176.483262 
L 88.636859 176.483262 
L 90.039744 177.075378 
L 91.060264 177.194654 
L 92.209997 177.194654 
L 93.486306 176.958233 
L 95.015767 176.958233 
L 99.865215 176.719682 
L 103.055987 176.838958 
L 109.946475 177.313929 
L 117.860119 177.550349 
L 121.942198 177.906045 
L 129.473477 178.734582 
L 140.063679 179.445974 
L 143.510241 179.920945 
L 146.574437 180.632336 
L 149.891786 181.224453 
L 152.953346 181.935844 
L 155.63254 182.410815 
L 158.696737 182.764381 
L 162.014086 183.002932 
L 171.586405 184.070019 
L 174.777178 184.54286 
L 184.858438 185.490672 
L 187.919997 185.609947 
L 199.15099 187.032731 
L 201.830185 187.624847 
L 205.659112 188.216963 
L 208.849885 189.522601 
L 209.48804 189.759022 
L 209.48804 189.639747 
L 209.23225 189.639747 
L 207.700152 190.706834 
L 206.935421 190.826109 
L 206.553056 190.587559 
L 206.041478 190.470413 
L 205.020958 190.826109 
L 203.362283 190.826109 
L 203.488859 190.706834 
L 203.618072 190.826109 
L 202.979918 191.29895 
L 202.724129 191.29895 
L 202.597552 191.418226 
L 202.468339 191.773921 
L 202.21255 192.010342 
L 201.959398 192.010342 
L 201.830185 191.773921 
L 201.830185 191.893197 
L 201.830185 192.246762 
L 202.085974 192.485313 
L 202.085974 192.485313 
L 201.703609 192.485313 
L 201.321243 192.246762 
L 200.936241 192.246762 
L 200.553876 192.485313 
L 200.298086 192.841009 
L 200.809665 192.602458 
L 200.809665 192.366038 
L 200.553876 192.366038 
L 199.789145 192.602458 
L 199.533356 192.841009 
L 199.533356 193.196705 
L 199.789145 193.196705 
L 199.915721 192.958154 
L 199.533356 192.721734 
L 199.40678 192.721734 
L 198.639412 193.077429 
L 198.512836 193.196705 
L 198.512836 193.077429 
L 198.38626 193.077429 
L 198.13047 193.196705 
L 198.38626 193.077429 
L 198.512836 193.31385 
L 198.257047 194.025241 
L 198.001257 194.025241 
L 197.748105 193.908096 
L 197.618892 193.669546 
L 197.618892 193.31385 
L 197.492316 193.077429 
L 197.748105 193.669546 
L 197.748105 193.908096 
L 197.618892 194.025241 
L 197.492316 193.669546 
L 197.492316 193.669546 
L 197.236527 193.5524 
L 196.854161 193.5524 
L 196.854161 193.669546 
L 196.980737 193.908096 
L 197.109951 193.908096 
L 196.724948 193.669546 
L 197.109951 193.788821 
L 197.109951 194.144517 
L 196.724948 194.617358 
L 196.471796 194.736633 
L 196.342583 194.617358 
L 196.854161 194.263792 
L 197.109951 194.263792 
L 196.854161 194.144517 
L 196.342583 194.144517 
L 195.448639 194.617358 
L 195.577852 194.736633 
L 196.342583 194.973054 
L 196.342583 195.092329 
L 196.086794 195.092329 
L 195.960218 195.211604 
L 195.960218 195.211604 
L 195.577852 194.617358 
L 195.833641 194.736633 
L 195.960218 194.973054 
L 195.960218 194.855908 
L 195.066274 195.5673 
L 195.066274 195.5673 
L 194.939698 195.5673 
L 194.813122 195.448025 
L 194.939698 195.5673 
L 194.939698 195.80372 
L 194.939698 195.684445 
L 195.195487 195.684445 
L 195.195487 195.684445 
L 195.066274 195.80372 
L 194.045754 196.395837 
L 194.045754 196.515112 
L 194.301543 196.515112 
L 195.322063 196.159416 
L 195.066274 196.040141 
L 194.683908 196.040141 
L 194.683908 195.684445 
L 194.301543 196.159416 
L 194.045754 196.751533 
L 194.174967 196.395837 
L 194.557332 195.922996 
L 193.919178 196.278691 
L 193.919178 196.159416 
L 193.789965 196.040141 
L 193.789965 196.278691 
L 194.557332 196.634387 
L 194.428119 196.515112 
L 194.301543 196.159416 
L 194.045754 196.040141 
L 194.045754 196.159416 
L 194.045754 196.278691 
L 193.789965 196.278691 
L 193.789965 196.395837 
L 193.663388 196.634387 
L 193.536812 196.634387 
L 193.663388 196.515112 
L 193.407599 196.515112 
L 193.025234 196.634387 
L 193.025234 196.751533 
L 193.407599 196.634387 
L 193.663388 196.395837 
L 193.281023 196.634387 
L 192.898658 196.870808 
L 192.513655 196.634387 
L 192.513655 196.395837 
L 193.15181 196.395837 
L 193.789965 196.159416 
L 193.663388 196.278691 
L 193.536812 196.395837 
L 193.15181 196.395837 
L 193.281023 196.278691 
L 193.281023 196.278691 
L 193.025234 196.159416 
L 192.898658 196.278691 
L 192.898658 196.634387 
L 193.15181 196.987953 
L 193.407599 197.107228 
L 193.536812 196.870808 
L 193.536812 196.515112 
L 193.407599 196.159416 
L 193.407599 196.159416 
L 193.281023 196.395837 
L 193.281023 196.634387 
L 193.663388 196.987953 
L 193.025234 196.395837 
L 192.642869 196.395837 
L 192.642869 196.751533 
L 192.769445 197.107228 
L 193.025234 196.987953 
L 193.025234 196.634387 
L 193.15181 196.751533 
L 193.025234 196.987953 
L 192.769445 197.226504 
L 192.769445 197.107228 
L 192.769445 196.987953 
L 192.898658 196.987953 
L 192.898658 196.987953 
L 192.898658 196.751533 
L 193.15181 196.751533 
L 193.281023 196.987953 
L 192.898658 197.582199 
L 193.15181 197.226504 
L 193.663388 196.987953 
L 197.618892 197.582199 
L 199.40678 197.582199 
L 201.574396 197.462924 
L 206.170691 196.987953 
L 208.720672 197.107228 
L 211.911445 197.582199 
L 215.484583 197.937895 
L 219.057721 198.055041 
L 229.779773 197.699345 
L 236.796836 197.937895 
L 249.559927 197.937895 
L 252.877276 198.293591 
L 255.938836 198.410736 
L 258.620668 198.293591 
L 266.275885 198.649287 
L 269.210869 198.649287 
L 270.487178 198.885707 
L 275.465839 199.241403 
L 277.380302 198.885707 
L 278.145033 198.885707 
L 279.292129 199.714244 
L 279.547918 200.189215 
L 279.547918 200.189215 
L 279.677131 200.06994 
L 279.547918 199.952795 
L 278.145033 199.952795 
L 278.018457 199.714244 
L 277.506878 199.477824 
L 276.868724 199.714244 
L 276.486359 200.06994 
L 276.486359 200.06994 
L 276.230569 199.714244 
L 276.230569 198.766432 
L 276.103993 198.766432 
L 276.103993 198.885707 
L 275.97478 198.766432 
L 275.848204 198.885707 
L 276.103993 198.649287 
L 275.336626 198.293591 
L 275.718991 197.81862 
L 275.080836 198.055041 
L 275.336626 197.582199 
L 275.210049 197.81862 
L 274.827684 197.81862 
L 274.698471 197.699345 
L 274.95426 197.582199 
L 275.080836 197.226504 
L 274.571895 197.226504 
L 273.93374 196.987953 
L 274.060316 196.870808 
L 274.571895 196.870808 
L 274.571895 196.870808 
L 274.442682 196.751533 
L 274.316106 196.278691 
L 273.93374 195.684445 
L 273.93374 195.922996 
L 273.551375 195.80372 
L 273.677951 195.80372 
L 273.677951 196.040141 
L 273.422162 195.922996 
L 273.039796 194.855908 
L 273.422162 194.617358 
L 273.93374 194.736633 
L 273.551375 194.736633 
L 273.16901 194.855908 
L 273.039796 195.092329 
L 272.91322 194.973054 
L 273.16901 194.025241 
L 273.295586 194.144517 
L 273.551375 194.617358 
L 273.677951 194.617358 
L 273.551375 194.500212 
L 273.039796 194.500212 
L 272.784007 194.617358 
L 272.784007 194.500212 
L 272.784007 193.908096 
L 272.657431 193.669546 
L 272.784007 193.5524 
L 273.039796 193.5524 
L 273.039796 193.669546 
L 272.657431 194.380937 
L 272.657431 194.380937 
L 272.657431 193.908096 
L 272.275066 193.31385 
L 272.401642 193.433125 
L 272.145853 193.433125 
L 272.145853 193.433125 
L 272.401642 194.025241 
L 272.530855 193.788821 
L 272.530855 193.31385 
L 272.401642 193.077429 
L 272.530855 193.196705 
L 272.275066 193.433125 
L 272.275066 193.788821 
L 272.019277 193.669546 
L 271.763487 193.31385 
L 271.381122 193.196705 
L 271.381122 193.31385 
L 271.507698 193.669546 
L 272.019277 194.263792 
L 272.145853 194.263792 
L 272.275066 194.025241 
L 272.019277 193.788821 
L 271.507698 193.669546 
L 271.125333 193.433125 
L 271.125333 193.196705 
L 271.254546 193.433125 
L 271.636911 193.669546 
L 271.125333 194.144517 
L 271.254546 194.144517 
L 271.254546 193.788821 
L 271.125333 193.669546 
L 270.742967 193.5524 
L 271.125333 193.196705 
L 271.254546 193.31385 
L 271.125333 193.5524 
L 270.869544 193.669546 
L 270.998757 193.669546 
L 271.125333 193.908096 
L 270.998757 194.263792 
L 270.616391 194.380937 
L 270.360602 194.144517 
L 270.487178 193.788821 
L 270.742967 193.669546 
L 270.487178 193.788821 
L 270.360602 193.669546 
L 270.616391 193.5524 
L 270.104813 193.788821 
L 270.616391 193.669546 
L 270.742967 193.669546 
L 270.616391 193.788821 
L 270.231389 193.908096 
L 269.978237 193.788821 
L 270.104813 193.5524 
L 269.849024 193.669546 
L 269.595871 194.025241 
L 269.849024 194.025241 
L 269.722448 193.908096 
L 269.849024 193.908096 
L 269.978237 193.908096 
L 270.104813 193.788821 
L 269.978237 193.669546 
L 269.978237 193.788821 
L 269.722448 194.144517 
L 269.722448 194.144517 
L 269.722448 193.788821 
L 269.722448 194.263792 
L 270.360602 193.788821 
L 270.231389 193.788821 
L 269.978237 193.788821 
L 269.849024 193.908096 
L 269.978237 194.144517 
L 270.616391 194.500212 
L 270.487178 194.500212 
L 269.978237 194.500212 
L 269.595871 194.617358 
L 270.231389 194.500212 
L 269.722448 194.500212 
L 269.722448 194.263792 
L 269.340082 194.144517 
L 269.084293 194.736633 
L 268.957717 194.736633 
L 269.084293 194.736633 
L 269.466658 194.855908 
L 269.466658 194.973054 
L 268.957717 195.211604 
L 268.957717 195.211604 
L 268.957717 194.973054 
L 269.210869 194.617358 
L 268.828504 194.973054 
L 268.446138 195.092329 
L 268.446138 194.973054 
L 268.828504 195.211604 
L 268.828504 195.328749 
L 268.572714 195.448025 
L 268.446138 195.80372 
L 268.446138 195.684445 
L 268.063773 195.211604 
L 268.319562 194.855908 
L 268.319562 195.684445 
L 268.319562 195.684445 
L 268.190349 195.448025 
L 268.446138 195.328749 
L 268.446138 195.328749 
L 268.446138 195.448025 
L 268.446138 194.973054 
L 268.446138 194.973054 
L 268.319562 194.973054 
L 268.319562 194.855908 
L 268.319562 194.973054 
L 268.572714 194.973054 
L 268.701928 194.736633 
L 268.572714 194.855908 
L 267.681408 194.855908 
L 267.552195 194.973054 
L 267.681408 194.973054 
L 268.063773 194.973054 
L 268.319562 194.855908 
L 268.190349 194.617358 
L 267.807984 194.500212 
L 267.425618 194.617358 
L 267.681408 194.380937 
L 268.319562 194.380937 
L 268.063773 194.263792 
L 267.807984 194.263792 
L 267.807984 194.380937 
L 267.807984 194.380937 
L 267.552195 194.263792 
L 267.93456 194.380937 
L 268.063773 194.380937 
L 268.319562 194.500212 
L 268.319562 194.263792 
L 267.93456 193.908096 
L 267.552195 193.788821 
L 267.425618 193.908096 
L 267.807984 193.669546 
L 268.063773 193.788821 
L 267.807984 194.025241 
L 268.063773 193.908096 
L 268.446138 193.669546 
L 268.446138 193.433125 
L 268.190349 193.433125 
L 267.93456 193.196705 
L 268.190349 193.196705 
L 268.319562 193.433125 
L 268.063773 193.5524 
L 268.190349 193.433125 
L 268.190349 193.31385 
L 268.063773 193.31385 
L 268.063773 193.433125 
L 268.572714 193.669546 
L 268.319562 193.433125 
L 268.063773 193.077429 
L 268.063773 192.721734 
L 268.319562 192.841009 
L 268.446138 192.841009 
L 268.572714 192.958154 
L 268.572714 193.196705 
L 268.446138 193.31385 
L 267.807984 193.433125 
L 267.681408 193.196705 
L 267.807984 192.958154 
L 267.681408 193.077429 
L 267.681408 192.841009 
L 267.807984 192.366038 
L 268.063773 192.246762 
L 268.446138 192.485313 
L 268.446138 192.841009 
L 268.063773 193.077429 
L 267.807984 192.841009 
L 267.93456 192.841009 
L 267.93456 192.958154 
L 267.552195 192.958154 
L 267.552195 192.602458 
L 267.93456 192.602458 
L 268.063773 192.841009 
L 268.063773 192.958154 
L 268.190349 192.958154 
L 267.807984 192.602458 
L 267.296405 192.841009 
L 267.552195 192.485313 
L 267.681408 192.602458 
L 267.296405 192.721734 
L 266.787464 192.721734 
L 266.658251 192.602458 
L 267.296405 192.366038 
L 267.296405 192.246762 
L 267.296405 192.366038 
L 266.91404 192.129617 
L 267.296405 192.246762 
L 267.552195 192.246762 
L 267.296405 192.366038 
L 267.296405 192.602458 
L 268.063773 192.958154 
L 267.807984 192.958154 
L 267.296405 192.958154 
L 266.787464 192.721734 
L 266.658251 192.485313 
L 266.787464 192.485313 
L 266.91404 192.721734 
L 266.91404 192.721734 
L 267.296405 192.366038 
L 267.296405 192.602458 
L 267.043253 192.841009 
L 266.658251 192.721734 
L 266.531675 192.129617 
L 266.658251 191.893197 
L 266.531675 192.129617 
L 266.275885 192.129617 
L 266.149309 192.246762 
L 266.531675 192.485313 
L 266.405099 192.602458 
L 266.405099 192.602458 
L 266.405099 192.958154 
L 266.531675 192.958154 
L 266.405099 192.958154 
L 266.275885 193.196705 
L 266.405099 193.31385 
L 266.275885 193.077429 
L 266.275885 192.958154 
L 266.149309 192.841009 
L 266.020096 192.246762 
L 266.149309 192.246762 
L 265.89352 192.841009 
L 266.275885 193.433125 
L 266.405099 193.5524 
L 265.766944 192.958154 
L 265.766944 192.721734 
L 266.787464 192.485313 
L 266.405099 192.485313 
L 266.405099 192.246762 
L 266.405099 192.246762 
L 266.275885 192.246762 
L 266.275885 192.958154 
L 266.149309 192.958154 
L 266.275885 192.721734 
L 266.531675 192.485313 
L 266.531675 192.246762 
L 265.766944 192.129617 
L 265.766944 192.485313 
L 265.637731 192.602458 
L 265.89352 192.602458 
L 266.405099 192.485313 
L 266.275885 192.602458 
L 265.89352 192.958154 
L 265.637731 192.841009 
L 265.637731 192.485313 
L 265.766944 192.246762 
L 265.766944 192.366038 
L 266.020096 192.366038 
L 266.020096 192.366038 
L 266.020096 192.485313 
L 266.149309 192.841009 
L 265.637731 192.841009 
L 265.381942 192.958154 
L 265.381942 192.485313 
L 265.766944 192.602458 
L 265.89352 192.841009 
L 265.89352 193.196705 
L 265.511155 193.433125 
L 265.128789 193.31385 
L 264.999576 192.841009 
L 265.255366 192.602458 
L 265.637731 192.721734 
L 265.637731 192.485313 
L 265.637731 192.841009 
L 265.766944 193.077429 
L 265.511155 192.602458 
L 265.637731 192.366038 
L 265.89352 192.366038 
L 265.89352 193.077429 
L 265.637731 193.31385 
L 265.637731 193.31385 
L 265.637731 192.721734 
L 265.766944 192.485313 
L 265.89352 192.602458 
L 265.766944 192.602458 
L 265.637731 192.721734 
L 265.637731 192.958154 
L 265.381942 193.433125 
L 265.511155 193.196705 
L 265.128789 193.31385 
L 264.873 193.196705 
L 265.128789 192.841009 
L 265.511155 192.602458 
L 265.637731 192.721734 
L 265.766944 193.077429 
L 266.020096 193.077429 
L 266.020096 192.958154 
L 265.255366 193.196705 
L 264.999576 193.077429 
L 264.746424 192.485313 
L 264.746424 192.485313 
L 265.766944 193.077429 
L 265.637731 193.31385 
L 264.873 193.31385 
L 264.873 193.196705 
L 265.128789 193.077429 
L 264.873 193.077429 
L 264.617211 192.721734 
L 263.214326 192.721734 
L 262.193806 192.485313 
L 259.129609 190.943255 
L 257.470935 190.231863 
L 253.515431 188.928355 
L 248.027829 186.677035 
L 234.373431 180.513061 
L 230.67108 178.617437 
L 227.227155 176.483262 
L 218.675356 169.727172 
L 216.378527 167.356576 
L 214.593276 164.630285 
L 213.061178 161.548298 
L 211.911445 158.349166 
L 211.020138 155.147904 
L 210.381983 151.946642 
L 210.126194 148.628234 
L 210.25277 145.190551 
L 210.635136 141.635723 
L 210.635136 134.760358 
L 212.296447 124.68586 
L 212.549599 121.603873 
L 212.296447 118.758307 
L 212.296447 116.032016 
L 212.549599 110.817984 
L 212.423023 108.328113 
L 212.549599 106.076793 
L 212.423023 104.179039 
L 212.167234 102.875531 
L 211.784869 101.572023 
L 211.529079 100.268515 
L 211.529079 99.437848 
L 211.658293 99.082153 
L 211.911445 98.965007 
L 212.167234 99.082153 
L 212.296447 99.437848 
L 212.296447 99.912819 
L 212.040658 101.216327 
L 212.040658 102.519835 
L 211.402503 103.231227 
L 211.27329 103.823343 
L 211.27329 104.41759 
L 211.402503 105.009706 
L 211.146714 105.840373 
L 210.381983 107.261026 
L 210.126194 107.855272 
L 209.48804 108.328113 
L 209.48804 108.328113 
L 209.743829 108.328113 
L 209.870405 108.447389 
L 209.870405 108.683809 
L 209.743829 108.92023 
L 209.358827 109.039505 
L 208.976461 108.803084 
L 208.976461 108.803084 
L 208.976461 109.275926 
L 208.720672 109.15878 
L 208.720672 109.15878 
L 208.720672 109.395201 
L 208.720672 109.395201 
L 208.46752 109.395201 
L 208.720672 109.631621 
L 208.720672 109.514476 
L 208.720672 109.395201 
L 208.594096 109.514476 
L 208.21173 109.631621 
L 207.829365 109.631621 
L 207.829365 109.514476 
L 208.085154 109.275926 
L 207.955941 109.514476 
L 207.955941 109.631621 
L 207.447 109.987317 
L 206.808845 109.631621 
L 206.935421 109.514476 
L 207.447 109.275926 
L 206.679632 109.275926 
L 206.679632 108.92023 
L 206.935421 108.803084 
L 207.191211 108.92023 
L 207.447 108.683809 
L 207.573576 108.803084 
L 207.317787 108.447389 
L 206.935421 107.855272 
L 206.935421 107.972418 
L 207.061997 108.091693 
L 207.829365 107.499576 
L 207.955941 107.261026 
L 207.829365 107.380301 
L 207.700152 107.261026 
L 207.700152 106.90533 
L 207.447 106.432489 
L 207.191211 106.549634 
L 207.317787 106.313214 
L 207.829365 105.721097 
L 207.955941 105.365402 
L 207.700152 104.65401 
L 207.447 104.65401 
L 207.447 104.534735 
L 207.700152 104.534735 
L 207.829365 104.65401 
L 207.955941 104.41759 
L 207.829365 104.179039 
L 207.317787 103.586923 
L 207.317787 103.350502 
L 207.829365 102.519835 
L 208.085154 102.758386 
L 207.317787 102.046994 
L 207.700152 101.099182 
L 207.700152 101.335603 
L 207.829365 101.452748 
L 208.085154 101.216327 
L 208.085154 100.979907 
L 207.447 100.743486 
L 207.447 100.268515 
L 207.573576 100.268515 
L 207.573576 100.268515 
L 207.573576 100.032095 
L 207.829365 100.032095 
L 207.955941 100.14924 
L 207.829365 100.268515 
L 207.191211 99.912819 
L 207.061997 99.676399 
L 207.700152 99.082153 
L 208.085154 98.965007 
L 208.338307 99.201428 
L 208.21173 99.320703 
L 207.955941 99.320703 
L 207.700152 99.082153 
L 207.573576 98.609311 
L 207.829365 98.017195 
L 208.085154 98.017195 
L 208.338307 98.13434 
L 208.338307 98.490036 
L 208.21173 98.490036 
L 207.700152 97.661499 
L 207.573576 97.542224 
L 207.573576 98.017195 
L 207.700152 98.017195 
L 207.829365 97.89792 
L 207.829365 97.661499 
L 207.700152 97.422949 
L 207.829365 97.422949 
L 207.829365 97.422949 
L 207.700152 97.186528 
L 207.829365 97.067253 
L 207.700152 97.305804 
L 207.700152 97.422949 
L 207.700152 97.305804 
L 207.573576 97.067253 
L 207.573576 97.186528 
L 207.829365 97.067253 
L 208.085154 97.186528 
L 207.955941 97.422949 
L 207.700152 97.305804 
L 207.829365 97.067253 
L 208.085154 96.950108 
L 208.21173 97.305804 
L 208.085154 97.067253 
L 207.700152 96.711557 
L 207.700152 96.830832 
L 207.700152 97.067253 
L 207.573576 97.422949 
L 207.317787 97.422949 
L 207.061997 97.067253 
L 207.447 96.594412 
L 207.573576 96.475137 
L 207.573576 96.594412 
L 207.573576 97.305804 
L 207.700152 97.186528 
L 207.573576 96.830832 
L 207.573576 96.475137 
L 207.447 96.238716 
L 207.317787 96.238716 
L 207.317787 96.357991 
L 207.191211 96.357991 
L 207.317787 96.119441 
L 207.447 96.119441 
L 207.573576 96.357991 
L 207.573576 96.475137 
L 207.447 96.711557 
L 207.573576 96.711557 
L 208.085154 96.119441 
L 207.955941 96.475137 
L 207.829365 96.711557 
L 207.573576 96.830832 
L 207.955941 96.002296 
L 207.955941 95.763745 
L 208.21173 95.763745 
L 208.46752 96.002296 
L 208.338307 96.238716 
L 208.085154 96.238716 
L 208.085154 96.119441 
L 207.829365 96.002296 
L 207.573576 96.002296 
L 207.447 96.119441 
L 207.573576 96.119441 
L 207.955941 96.119441 
L 208.21173 96.002296 
L 208.085154 96.119441 
L 207.829365 95.88302 
L 207.829365 95.527325 
L 208.085154 95.171629 
L 207.955941 95.408049 
L 208.594096 95.88302 
L 208.720672 95.763745 
L 208.46752 95.763745 
L 208.085154 95.88302 
L 207.955941 96.119441 
L 208.338307 95.6466 
L 208.338307 96.002296 
L 208.46752 96.119441 
L 208.720672 95.88302 
L 208.46752 95.6466 
L 207.447 95.290904 
L 207.573576 95.6466 
L 207.829365 95.6466 
L 208.594096 95.052354 
L 208.720672 95.408049 
L 208.338307 95.88302 
L 208.21173 95.763745 
L 208.46752 95.763745 
L 208.46752 95.6466 
L 208.338307 95.527325 
L 208.338307 94.815933 
L 208.46752 94.460237 
L 208.085154 94.696658 
L 207.829365 95.052354 
L 207.955941 95.527325 
L 208.46752 95.6466 
L 208.594096 95.408049 
L 208.21173 95.171629 
L 207.700152 95.527325 
L 207.700152 95.408049 
L 208.720672 95.763745 
L 208.46752 95.6466 
L 208.338307 95.527325 
L 208.46752 95.171629 
L 208.720672 95.171629 
L 208.720672 95.171629 
L 208.849885 94.935208 
L 209.105674 94.815933 
L 209.23225 95.052354 
L 209.105674 95.290904 
L 208.849885 95.290904 
L 208.594096 95.171629 
L 208.594096 95.290904 
L 208.720672 95.527325 
L 208.849885 95.527325 
L 208.720672 95.290904 
L 208.338307 95.052354 
L 208.338307 94.815933 
L 208.849885 94.815933 
L 208.720672 94.696658 
L 208.849885 94.696658 
L 209.870405 95.171629 
L 209.870405 95.171629 
L 209.23225 95.171629 
L 208.46752 94.935208 
L 208.720672 94.815933 
L 208.849885 94.935208 
L 209.105674 94.935208 
L 209.48804 95.171629 
L 209.743829 95.171629 
L 210.635136 94.104541 
L 211.146714 94.104541 
L 212.296447 93.748846 
L 215.869585 92.326062 
L 217.781412 91.733946 
L 219.5693 91.022554 
L 221.227974 90.074742 
L 225.695056 87.823422 
L 227.865309 86.164218 
L 230.288714 84.030044 
L 232.841333 82.015144 
L 237.946569 79.169578 
L 240.114185 77.629649 
L 246.878096 72.177067 
L 249.048349 70.635009 
L 254.535951 66.132368 
L 258.235665 62.102569 
L 259.003033 60.916207 
L 259.385398 57.83422 
L 259.258822 56.886407 
L 258.87382 55.81932 
L 258.491454 54.040841 
L 257.982513 53.685145 
L 257.215145 53.568 
L 255.81226 53.804421 
L 255.174106 54.160116 
L 254.535951 54.160116 
L 253.897796 54.279392 
L 253.642007 54.635087 
L 253.515431 55.107929 
L 253.259642 55.5829 
L 252.748063 56.055741 
L 252.365698 56.649987 
L 252.494911 56.530712 
L 252.621487 56.649987 
L 252.365698 56.767132 
L 252.112546 56.649987 
L 252.112546 56.767132 
L 251.856757 57.83422 
L 252.239122 57.953495 
L 252.494911 57.83422 
L 252.748063 57.478524 
L 252.748063 57.122828 
L 252.112546 56.886407 
L 251.856757 57.005683 
L 252.112546 56.886407 
L 251.600967 56.294291 
L 251.345178 55.938595 
L 251.727543 56.411436 
L 251.089389 56.411436 
L 250.962813 56.294291 
L 251.089389 56.530712 
L 250.707024 56.649987 
L 250.068869 56.294291 
L 250.198082 56.294291 
L 250.580447 56.294291 
L 250.580447 56.294291 
L 250.324658 56.411436 
L 250.324658 56.175016 
L 249.81308 55.81932 
L 249.686504 56.055741 
L 249.942293 56.175016 
L 250.068869 56.055741 
L 249.942293 55.938595 
L 249.559927 56.055741 
L 249.559927 56.294291 
L 249.559927 55.463624 
L 249.430714 55.702175 
L 249.686504 56.294291 
L 249.559927 56.175016 
L 249.174925 56.175016 
L 248.921773 55.938595 
L 248.921773 55.938595 
L 249.048349 55.81932 
L 249.304138 55.938595 
L 249.048349 56.411436 
L 249.048349 56.411436 
L 249.174925 56.411436 
L 249.048349 56.294291 
L 249.048349 56.055741 
L 248.79256 56.294291 
L 248.921773 56.294291 
L 248.921773 56.411436 
L 248.921773 56.175016 
L 248.79256 56.175016 
L 248.410194 56.294291 
L 248.79256 56.294291 
L 248.79256 56.411436 
L 248.536771 56.294291 
L 248.410194 56.294291 
L 248.536771 56.530712 
L 248.410194 56.294291 
L 248.410194 56.055741 
L 248.283618 55.938595 
L 248.154405 56.055741 
L 248.154405 56.411436 
L 247.898616 56.767132 
L 247.77204 56.530712 
L 248.665984 56.175016 
L 248.410194 56.175016 
L 248.283618 56.055741 
L 248.154405 56.175016 
L 248.154405 56.530712 
L 248.410194 56.767132 
L 248.665984 56.530712 
L 248.665984 56.767132 
L 248.79256 57.122828 
L 248.536771 57.361379 
L 248.154405 57.242103 
L 247.898616 56.175016 
L 248.283618 56.886407 
L 248.154405 56.767132 
L 247.898616 56.767132 
L 247.898616 57.005683 
L 248.027829 57.361379 
L 248.410194 57.242103 
L 248.665984 57.005683 
L 248.536771 56.767132 
L 248.154405 56.411436 
L 247.898616 56.649987 
L 248.027829 57.242103 
L 248.283618 57.717074 
L 248.410194 57.717074 
L 247.645464 57.242103 
L 247.645464 57.122828 
L 247.898616 57.122828 
L 247.898616 57.122828 
L 247.898616 57.005683 
L 248.027829 57.122828 
L 247.898616 57.361379 
L 248.027829 57.122828 
L 248.283618 57.005683 
L 248.283618 57.361379 
L 248.154405 57.717074 
L 247.645464 57.361379 
L 247.645464 57.361379 
L 247.77204 57.361379 
L 247.898616 57.478524 
L 247.516251 57.597799 
L 247.389675 57.83422 
L 248.410194 57.597799 
L 248.283618 57.597799 
L 247.898616 57.361379 
L 247.389675 56.530712 
L 247.645464 57.005683 
L 247.77204 57.83422 
L 247.645464 57.83422 
L 247.645464 57.83422 
L 247.389675 57.597799 
L 247.263098 57.122828 
L 247.898616 57.597799 
L 248.154405 57.597799 
L 248.154405 57.717074 
L 247.77204 58.07277 
L 247.77204 57.953495 
L 247.263098 57.953495 
L 247.133885 57.717074 
L 247.389675 58.189915 
L 247.389675 57.953495 
L 246.878096 58.07277 
L 246.75152 58.07277 
L 246.878096 58.07277 
L 247.389675 57.83422 
L 246.75152 58.189915 
L 246.369155 58.07277 
L 246.113365 58.189915 
L 246.369155 58.426336 
L 246.75152 58.309191 
L 247.263098 57.717074 
L 247.133885 57.83422 
L 246.495731 57.953495 
L 246.495731 57.83422 
L 246.495731 58.782032 
L 246.878096 59.257003 
L 247.007309 59.020582 
L 246.878096 58.664886 
L 246.75152 58.664886 
L 246.75152 58.782032 
L 246.624944 58.782032 
L 246.369155 58.901307 
L 246.113365 59.376278 
L 246.239942 59.376278 
L 246.495731 59.020582 
L 246.624944 59.137728 
L 246.113365 58.664886 
L 246.113365 58.782032 
L 246.369155 59.137728 
L 246.369155 59.020582 
L 247.898616 59.376278 
L 250.707024 59.731974 
L 253.897796 60.32409 
L 258.747244 61.152627 
L 261.555651 61.746873 
L 264.361422 62.458265 
L 272.145853 65.538122 
L 274.698471 66.84376 
L 276.868724 68.383688 
L 278.653975 70.042892 
L 280.441862 71.940646 
L 286.185253 78.813882 
L 287.843928 80.828781 
L 289.246813 82.962956 
L 290.396546 85.214276 
L 291.417066 87.584872 
L 292.31101 90.074742 
L 293.458106 92.564613 
L 295.11678 95.052354 
L 299.074921 100.14924 
L 301.242537 102.639111 
L 303.286214 105.246126 
L 305.583043 107.972418 
L 310.814855 113.425 
L 313.111684 116.270566 
L 315.152724 119.233278 
L 324.725043 131.561226 
L 326.766083 134.287517 
L 329.956855 139.620824 
L 331.488954 142.347115 
L 332.765263 144.954131 
L 334.806303 149.814597 
L 335.826823 151.946642 
L 336.591553 154.200092 
L 337.997076 160.836907 
L 338.123652 162.851806 
L 337.867862 164.630285 
L 336.464977 167.592997 
L 335.700247 168.423664 
L 335.062092 169.727172 
L 334.294724 172.928434 
L 333.529994 174.231942 
L 332.63605 175.299029 
L 331.359741 176.483262 
L 330.721586 177.431074 
L 330.339221 178.853857 
L 330.083432 181.580148 
L 329.701066 182.883656 
L 327.277661 188.455514 
L 326.766083 190.706834 
L 324.725043 194.025241 
L 323.957675 195.448025 
L 323.57531 195.922996 
L 321.278481 201.256303 
L 321.278481 201.611999 
L 320.257961 202.32339 
L 319.746382 202.796231 
L 319.49323 203.390478 
L 319.49323 203.626898 
L 319.237441 204.57471 
L 318.981652 204.811131 
L 318.343497 204.811131 
L 318.343497 204.930406 
L 318.470073 205.166827 
L 318.216921 205.405377 
L 317.834556 205.522522 
L 317.578766 205.761073 
L 317.578766 206.116769 
L 317.961132 206.708885 
L 317.961132 206.708885 
L 317.578766 206.58961 
L 316.811399 206.58961 
L 316.046668 206.233914 
L 316.173244 206.233914 
L 316.558246 206.116769 
L 316.558246 205.997493 
L 316.173244 205.997493 
L 315.790879 205.286102 
L 315.920092 205.286102 
L 316.046668 205.522522 
L 316.046668 205.641798 
L 316.302457 205.405377 
L 316.429033 204.811131 
L 316.302457 204.455435 
L 316.046668 204.33829 
L 315.664303 204.57471 
L 315.408513 204.219014 
L 315.026148 204.101869 
L 314.896935 203.863319 
L 315.281937 203.034782 
L 315.026148 202.559811 
L 314.643783 202.440535 
L 314.25878 202.440535 
L 314.132204 202.204115 
L 314.387993 201.967694 
L 314.25878 201.967694 
L 313.23826 201.137027 
L 313.23826 200.781332 
L 313.49405 200.664186 
L 313.876415 200.781332 
L 313.876415 200.781332 
L 314.132204 200.544911 
L 313.749839 200.664186 
L 312.985108 200.664186 
L 313.111684 200.544911 
L 312.985108 200.189215 
L 312.855895 199.477824 
L 312.600106 199.122128 
L 312.346954 199.004983 
L 312.600106 199.122128 
L 312.600106 198.530012 
L 311.961951 198.530012 
L 311.579586 198.410736 
L 311.579586 198.055041 
L 311.323797 198.055041 
L 311.323797 197.81862 
L 311.45301 197.462924 
L 311.45301 197.343649 
L 311.197221 197.107228 
L 311.197221 196.870808 
L 311.197221 196.870808 
L 311.323797 196.987953 
L 310.814855 196.987953 
L 310.559066 196.870808 
L 310.559066 196.870808 
L 310.559066 196.634387 
L 309.538546 195.5673 
L 309.282757 194.973054 
L 309.282757 194.025241 
L 309.156181 193.433125 
L 308.900392 193.433125 
L 308.644602 193.31385 
L 308.644602 192.958154 
L 308.900392 192.602458 
L 308.900392 192.602458 
" style="fill:none;stroke:#1f77b4;stroke-linecap:square;stroke-width:1.5;"/>
   </g>
   <g id="matplotlib.axis_1">
    <g id="xtick_1">
     <g id="line2d_2">
      <defs>
       <path d="M 0 0 
L 0 3.5 
" id="m1af8996a04" style="stroke:#000000;stroke-width:0.8;"/>
      </defs>
      <g>
       <use style="stroke:#000000;stroke-width:0.8;" x="100.498095" xlink:href="#m1af8996a04" y="307.584"/>
      </g>
     </g>
     <g id="text_1">
      <!-- −400 -->
      <defs>
       <path d="M 10.59375 35.5 
L 73.1875 35.5 
L 73.1875 27.203125 
L 10.59375 27.203125 
z
" id="DejaVuSans-8722"/>
       <path d="M 37.796875 64.3125 
L 12.890625 25.390625 
L 37.796875 25.390625 
z
M 35.203125 72.90625 
L 47.609375 72.90625 
L 47.609375 25.390625 
L 58.015625 25.390625 
L 58.015625 17.1875 
L 47.609375 17.1875 
L 47.609375 0 
L 37.796875 0 
L 37.796875 17.1875 
L 4.890625 17.1875 
L 4.890625 26.703125 
z
" id="DejaVuSans-52"/>
       <path d="M 31.78125 66.40625 
Q 24.171875 66.40625 20.328125 58.90625 
Q 16.5 51.421875 16.5 36.375 
Q 16.5 21.390625 20.328125 13.890625 
Q 24.171875 6.390625 31.78125 6.390625 
Q 39.453125 6.390625 43.28125 13.890625 
Q 47.125 21.390625 47.125 36.375 
Q 47.125 51.421875 43.28125 58.90625 
Q 39.453125 66.40625 31.78125 66.40625 
z
M 31.78125 74.21875 
Q 44.046875 74.21875 50.515625 64.515625 
Q 56.984375 54.828125 56.984375 36.375 
Q 56.984375 17.96875 50.515625 8.265625 
Q 44.046875 -1.421875 31.78125 -1.421875 
Q 19.53125 -1.421875 13.0625 8.265625 
Q 6.59375 17.96875 6.59375 36.375 
Q 6.59375 54.828125 13.0625 64.515625 
Q 19.53125 74.21875 31.78125 74.21875 
z
" id="DejaVuSans-48"/>
      </defs>
      <g transform="translate(86.764501 322.182437)scale(0.1 -0.1)">
       <use xlink:href="#DejaVuSans-8722"/>
       <use x="83.789062" xlink:href="#DejaVuSans-52"/>
       <use x="147.412109" xlink:href="#DejaVuSans-48"/>
       <use x="211.035156" xlink:href="#DejaVuSans-48"/>
      </g>
     </g>
    </g>
    <g id="xtick_2">
     <g id="line2d_3">
      <g>
       <use style="stroke:#000000;stroke-width:0.8;" x="153.238142" xlink:href="#m1af8996a04" y="307.584"/>
      </g>
     </g>
     <g id="text_2">
      <!-- −200 -->
      <defs>
       <path d="M 19.1875 8.296875 
L 53.609375 8.296875 
L 53.609375 0 
L 7.328125 0 
L 7.328125 8.296875 
Q 12.9375 14.109375 22.625 23.890625 
Q 32.328125 33.6875 34.8125 36.53125 
Q 39.546875 41.84375 41.421875 45.53125 
Q 43.3125 49.21875 43.3125 52.78125 
Q 43.3125 58.59375 39.234375 62.25 
Q 35.15625 65.921875 28.609375 65.921875 
Q 23.96875 65.921875 18.8125 64.3125 
Q 13.671875 62.703125 7.8125 59.421875 
L 7.8125 69.390625 
Q 13.765625 71.78125 18.9375 73 
Q 24.125 74.21875 28.421875 74.21875 
Q 39.75 74.21875 46.484375 68.546875 
Q 53.21875 62.890625 53.21875 53.421875 
Q 53.21875 48.921875 51.53125 44.890625 
Q 49.859375 40.875 45.40625 35.40625 
Q 44.1875 33.984375 37.640625 27.21875 
Q 31.109375 20.453125 19.1875 8.296875 
z
" id="DejaVuSans-50"/>
      </defs>
      <g transform="translate(139.504549 322.182437)scale(0.1 -0.1)">
       <use xlink:href="#DejaVuSans-8722"/>
       <use x="83.789062" xlink:href="#DejaVuSans-50"/>
       <use x="147.412109" xlink:href="#DejaVuSans-48"/>
       <use x="211.035156" xlink:href="#DejaVuSans-48"/>
      </g>
     </g>
    </g>
    <g id="xtick_3">
     <g id="line2d_4">
      <g>
       <use style="stroke:#000000;stroke-width:0.8;" x="205.978189" xlink:href="#m1af8996a04" y="307.584"/>
      </g>
     </g>
     <g id="text_3">
      <!-- 0 -->
      <g transform="translate(202.796939 322.182437)scale(0.1 -0.1)">
       <use xlink:href="#DejaVuSans-48"/>
      </g>
     </g>
    </g>
    <g id="xtick_4">
     <g id="line2d_5">
      <g>
       <use style="stroke:#000000;stroke-width:0.8;" x="258.718237" xlink:href="#m1af8996a04" y="307.584"/>
      </g>
     </g>
     <g id="text_4">
      <!-- 200 -->
      <g transform="translate(249.174487 322.182437)scale(0.1 -0.1)">
       <use xlink:href="#DejaVuSans-50"/>
       <use x="63.623047" xlink:href="#DejaVuSans-48"/>
       <use x="127.246094" xlink:href="#DejaVuSans-48"/>
      </g>
     </g>
    </g>
    <g id="xtick_5">
     <g id="line2d_6">
      <g>
       <use style="stroke:#000000;stroke-width:0.8;" x="311.458284" xlink:href="#m1af8996a04" y="307.584"/>
      </g>
     </g>
     <g id="text_5">
      <!-- 400 -->
      <g transform="translate(301.914534 322.182437)scale(0.1 -0.1)">
       <use xlink:href="#DejaVuSans-52"/>
       <use x="63.623047" xlink:href="#DejaVuSans-48"/>
       <use x="127.246094" xlink:href="#DejaVuSans-48"/>
      </g>
     </g>
    </g>
    <g id="xtick_6">
     <g id="line2d_7">
      <g>
       <use style="stroke:#000000;stroke-width:0.8;" x="364.198331" xlink:href="#m1af8996a04" y="307.584"/>
      </g>
     </g>
     <g id="text_6">
      <!-- 600 -->
      <defs>
       <path d="M 33.015625 40.375 
Q 26.375 40.375 22.484375 35.828125 
Q 18.609375 31.296875 18.609375 23.390625 
Q 18.609375 15.53125 22.484375 10.953125 
Q 26.375 6.390625 33.015625 6.390625 
Q 39.65625 6.390625 43.53125 10.953125 
Q 47.40625 15.53125 47.40625 23.390625 
Q 47.40625 31.296875 43.53125 35.828125 
Q 39.65625 40.375 33.015625 40.375 
z
M 52.59375 71.296875 
L 52.59375 62.3125 
Q 48.875 64.0625 45.09375 64.984375 
Q 41.3125 65.921875 37.59375 65.921875 
Q 27.828125 65.921875 22.671875 59.328125 
Q 17.53125 52.734375 16.796875 39.40625 
Q 19.671875 43.65625 24.015625 45.921875 
Q 28.375 48.1875 33.59375 48.1875 
Q 44.578125 48.1875 50.953125 41.515625 
Q 57.328125 34.859375 57.328125 23.390625 
Q 57.328125 12.15625 50.6875 5.359375 
Q 44.046875 -1.421875 33.015625 -1.421875 
Q 20.359375 -1.421875 13.671875 8.265625 
Q 6.984375 17.96875 6.984375 36.375 
Q 6.984375 53.65625 15.1875 63.9375 
Q 23.390625 74.21875 37.203125 74.21875 
Q 40.921875 74.21875 44.703125 73.484375 
Q 48.484375 72.75 52.59375 71.296875 
z
" id="DejaVuSans-54"/>
      </defs>
      <g transform="translate(354.654581 322.182437)scale(0.1 -0.1)">
       <use xlink:href="#DejaVuSans-54"/>
       <use x="63.623047" xlink:href="#DejaVuSans-48"/>
       <use x="127.246094" xlink:href="#DejaVuSans-48"/>
      </g>
     </g>
    </g>
   </g>
   <g id="matplotlib.axis_2">
    <g id="ytick_1">
     <g id="line2d_8">
      <defs>
       <path d="M 0 0 
L -3.5 0 
" id="mcc945bbfbd" style="stroke:#000000;stroke-width:0.8;"/>
      </defs>
      <g>
       <use style="stroke:#000000;stroke-width:0.8;" x="57.6" xlink:href="#mcc945bbfbd" y="280.804366"/>
      </g>
     </g>
     <g id="text_7">
      <!-- −800 -->
      <defs>
       <path d="M 31.78125 34.625 
Q 24.75 34.625 20.71875 30.859375 
Q 16.703125 27.09375 16.703125 20.515625 
Q 16.703125 13.921875 20.71875 10.15625 
Q 24.75 6.390625 31.78125 6.390625 
Q 38.8125 6.390625 42.859375 10.171875 
Q 46.921875 13.96875 46.921875 20.515625 
Q 46.921875 27.09375 42.890625 30.859375 
Q 38.875 34.625 31.78125 34.625 
z
M 21.921875 38.8125 
Q 15.578125 40.375 12.03125 44.71875 
Q 8.5 49.078125 8.5 55.328125 
Q 8.5 64.0625 14.71875 69.140625 
Q 20.953125 74.21875 31.78125 74.21875 
Q 42.671875 74.21875 48.875 69.140625 
Q 55.078125 64.0625 55.078125 55.328125 
Q 55.078125 49.078125 51.53125 44.71875 
Q 48 40.375 41.703125 38.8125 
Q 48.828125 37.15625 52.796875 32.3125 
Q 56.78125 27.484375 56.78125 20.515625 
Q 56.78125 9.90625 50.3125 4.234375 
Q 43.84375 -1.421875 31.78125 -1.421875 
Q 19.734375 -1.421875 13.25 4.234375 
Q 6.78125 9.90625 6.78125 20.515625 
Q 6.78125 27.484375 10.78125 32.3125 
Q 14.796875 37.15625 21.921875 38.8125 
z
M 18.3125 54.390625 
Q 18.3125 48.734375 21.84375 45.5625 
Q 25.390625 42.390625 31.78125 42.390625 
Q 38.140625 42.390625 41.71875 45.5625 
Q 45.3125 48.734375 45.3125 54.390625 
Q 45.3125 60.0625 41.71875 63.234375 
Q 38.140625 66.40625 31.78125 66.40625 
Q 25.390625 66.40625 21.84375 63.234375 
Q 18.3125 60.0625 18.3125 54.390625 
z
" id="DejaVuSans-56"/>
      </defs>
      <g transform="translate(23.132812 284.603585)scale(0.1 -0.1)">
       <use xlink:href="#DejaVuSans-8722"/>
       <use x="83.789062" xlink:href="#DejaVuSans-56"/>
       <use x="147.412109" xlink:href="#DejaVuSans-48"/>
       <use x="211.035156" xlink:href="#DejaVuSans-48"/>
      </g>
     </g>
    </g>
    <g id="ytick_2">
     <g id="line2d_9">
      <g>
       <use style="stroke:#000000;stroke-width:0.8;" x="57.6" xlink:href="#mcc945bbfbd" y="238.206067"/>
      </g>
     </g>
     <g id="text_8">
      <!-- −600 -->
      <g transform="translate(23.132812 242.005286)scale(0.1 -0.1)">
       <use xlink:href="#DejaVuSans-8722"/>
       <use x="83.789062" xlink:href="#DejaVuSans-54"/>
       <use x="147.412109" xlink:href="#DejaVuSans-48"/>
       <use x="211.035156" xlink:href="#DejaVuSans-48"/>
      </g>
     </g>
    </g>
    <g id="ytick_3">
     <g id="line2d_10">
      <g>
       <use style="stroke:#000000;stroke-width:0.8;" x="57.6" xlink:href="#mcc945bbfbd" y="195.607768"/>
      </g>
     </g>
     <g id="text_9">
      <!-- −400 -->
      <g transform="translate(23.132812 199.406987)scale(0.1 -0.1)">
       <use xlink:href="#DejaVuSans-8722"/>
       <use x="83.789062" xlink:href="#DejaVuSans-52"/>
       <use x="147.412109" xlink:href="#DejaVuSans-48"/>
       <use x="211.035156" xlink:href="#DejaVuSans-48"/>
      </g>
     </g>
    </g>
    <g id="ytick_4">
     <g id="line2d_11">
      <g>
       <use style="stroke:#000000;stroke-width:0.8;" x="57.6" xlink:href="#mcc945bbfbd" y="153.009469"/>
      </g>
     </g>
     <g id="text_10">
      <!-- −200 -->
      <g transform="translate(23.132812 156.808688)scale(0.1 -0.1)">
       <use xlink:href="#DejaVuSans-8722"/>
       <use x="83.789062" xlink:href="#DejaVuSans-50"/>
       <use x="147.412109" xlink:href="#DejaVuSans-48"/>
       <use x="211.035156" xlink:href="#DejaVuSans-48"/>
      </g>
     </g>
    </g>
    <g id="ytick_5">
     <g id="line2d_12">
      <g>
       <use style="stroke:#000000;stroke-width:0.8;" x="57.6" xlink:href="#mcc945bbfbd" y="110.41117"/>
      </g>
     </g>
     <g id="text_11">
      <!-- 0 -->
      <g transform="translate(44.2375 114.210389)scale(0.1 -0.1)">
       <use xlink:href="#DejaVuSans-48"/>
      </g>
     </g>
    </g>
    <g id="ytick_6">
     <g id="line2d_13">
      <g>
       <use style="stroke:#000000;stroke-width:0.8;" x="57.6" xlink:href="#mcc945bbfbd" y="67.812871"/>
      </g>
     </g>
     <g id="text_12">
      <!-- 200 -->
      <g transform="translate(31.5125 71.61209)scale(0.1 -0.1)">
       <use xlink:href="#DejaVuSans-50"/>
       <use x="63.623047" xlink:href="#DejaVuSans-48"/>
       <use x="127.246094" xlink:href="#DejaVuSans-48"/>
      </g>
     </g>
    </g>
   </g>
   <g id="line2d_14">
    <path clip-path="url(#p62d17398d4)" d="M 394.578447 290.111627 
L 246.810648 238.37821 
L 86.724338 185.637332 
L 91.833283 176.012597 
L 196.428192 194.280871 
L 268.319769 194.110531 
L 208.72694 107.396991 
L 210.777664 94.507148 
L 251.018844 58.001284 
L 319.772984 197.158738 
" style="fill:none;stroke:#ff0000;stroke-linecap:square;stroke-width:0.5;"/>
   </g>
   <g id="patch_3">
    <path d="M 57.6 307.584 
L 57.6 41.472 
" style="fill:none;stroke:#000000;stroke-linecap:square;stroke-linejoin:miter;stroke-width:0.8;"/>
   </g>
   <g id="patch_4">
    <path d="M 414.72 307.584 
L 414.72 41.472 
" style="fill:none;stroke:#000000;stroke-linecap:square;stroke-linejoin:miter;stroke-width:0.8;"/>
   </g>
   <g id="patch_5">
    <path d="M 57.6 307.584 
L 414.72 307.584 
" style="fill:none;stroke:#000000;stroke-linecap:square;stroke-linejoin:miter;stroke-width:0.8;"/>
   </g>
   <g id="patch_6">
    <path d="M 57.6 41.472 
L 414.72 41.472 
" style="fill:none;stroke:#000000;stroke-linecap:square;stroke-linejoin:miter;stroke-width:0.8;"/>
   </g>
   <g id="PathCollection_1">
    <defs>
     <path d="M 0 2.738613 
C 0.726289 2.738613 1.422928 2.450055 1.936492 1.936492 
C 2.450055 1.422928 2.738613 0.726289 2.738613 0 
C 2.738613 -0.726289 2.450055 -1.422928 1.936492 -1.936492 
C 1.422928 -2.450055 0.726289 -2.738613 0 -2.738613 
C -0.726289 -2.738613 -1.422928 -2.450055 -1.936492 -1.936492 
C -2.450055 -1.422928 -2.738613 -0.726289 -2.738613 0 
C -2.738613 0.726289 -2.450055 1.422928 -1.936492 1.936492 
C -1.422928 2.450055 -0.726289 2.738613 0 2.738613 
z
" id="m96f7b5861e" style="stroke:#ff0000;"/>
    </defs>
    <g clip-path="url(#p62d17398d4)">
     <use style="fill:#ff0000;stroke:#ff0000;" x="394.578447" xlink:href="#m96f7b5861e" y="290.111627"/>
     <use style="fill:#ff0000;stroke:#ff0000;" x="246.810648" xlink:href="#m96f7b5861e" y="238.37821"/>
     <use style="fill:#ff0000;stroke:#ff0000;" x="86.724338" xlink:href="#m96f7b5861e" y="185.637332"/>
     <use style="fill:#ff0000;stroke:#ff0000;" x="91.833283" xlink:href="#m96f7b5861e" y="176.012597"/>
     <use style="fill:#ff0000;stroke:#ff0000;" x="196.428192" xlink:href="#m96f7b5861e" y="194.280871"/>
     <use style="fill:#ff0000;stroke:#ff0000;" x="268.319769" xlink:href="#m96f7b5861e" y="194.110531"/>
     <use style="fill:#ff0000;stroke:#ff0000;" x="208.72694" xlink:href="#m96f7b5861e" y="107.396991"/>
     <use style="fill:#ff0000;stroke:#ff0000;" x="210.777664" xlink:href="#m96f7b5861e" y="94.507148"/>
     <use style="fill:#ff0000;stroke:#ff0000;" x="251.018844" xlink:href="#m96f7b5861e" y="58.001284"/>
     <use style="fill:#ff0000;stroke:#ff0000;" x="319.772984" xlink:href="#m96f7b5861e" y="197.158738"/>
    </g>
   </g>
   <g id="text_13">
    <!-- (65) Subject: s7, Known = True, Degree = 2, Duration = 0.1 -->
    <defs>
     <path d="M 31 75.875 
Q 24.46875 64.65625 21.28125 53.65625 
Q 18.109375 42.671875 18.109375 31.390625 
Q 18.109375 20.125 21.3125 9.0625 
Q 24.515625 -2 31 -13.1875 
L 23.1875 -13.1875 
Q 15.875 -1.703125 12.234375 9.375 
Q 8.59375 20.453125 8.59375 31.390625 
Q 8.59375 42.28125 12.203125 53.3125 
Q 15.828125 64.359375 23.1875 75.875 
z
" id="DejaVuSans-40"/>
     <path d="M 10.796875 72.90625 
L 49.515625 72.90625 
L 49.515625 64.59375 
L 19.828125 64.59375 
L 19.828125 46.734375 
Q 21.96875 47.46875 24.109375 47.828125 
Q 26.265625 48.1875 28.421875 48.1875 
Q 40.625 48.1875 47.75 41.5 
Q 54.890625 34.8125 54.890625 23.390625 
Q 54.890625 11.625 47.5625 5.09375 
Q 40.234375 -1.421875 26.90625 -1.421875 
Q 22.3125 -1.421875 17.546875 -0.640625 
Q 12.796875 0.140625 7.71875 1.703125 
L 7.71875 11.625 
Q 12.109375 9.234375 16.796875 8.0625 
Q 21.484375 6.890625 26.703125 6.890625 
Q 35.15625 6.890625 40.078125 11.328125 
Q 45.015625 15.765625 45.015625 23.390625 
Q 45.015625 31 40.078125 35.4375 
Q 35.15625 39.890625 26.703125 39.890625 
Q 22.75 39.890625 18.8125 39.015625 
Q 14.890625 38.140625 10.796875 36.28125 
z
" id="DejaVuSans-53"/>
     <path d="M 8.015625 75.875 
L 15.828125 75.875 
Q 23.140625 64.359375 26.78125 53.3125 
Q 30.421875 42.28125 30.421875 31.390625 
Q 30.421875 20.453125 26.78125 9.375 
Q 23.140625 -1.703125 15.828125 -13.1875 
L 8.015625 -13.1875 
Q 14.5 -2 17.703125 9.0625 
Q 20.90625 20.125 20.90625 31.390625 
Q 20.90625 42.671875 17.703125 53.65625 
Q 14.5 64.65625 8.015625 75.875 
z
" id="DejaVuSans-41"/>
     <path id="DejaVuSans-32"/>
     <path d="M 53.515625 70.515625 
L 53.515625 60.890625 
Q 47.90625 63.578125 42.921875 64.890625 
Q 37.9375 66.21875 33.296875 66.21875 
Q 25.25 66.21875 20.875 63.09375 
Q 16.5 59.96875 16.5 54.203125 
Q 16.5 49.359375 19.40625 46.890625 
Q 22.3125 44.4375 30.421875 42.921875 
L 36.375 41.703125 
Q 47.40625 39.59375 52.65625 34.296875 
Q 57.90625 29 57.90625 20.125 
Q 57.90625 9.515625 50.796875 4.046875 
Q 43.703125 -1.421875 29.984375 -1.421875 
Q 24.8125 -1.421875 18.96875 -0.25 
Q 13.140625 0.921875 6.890625 3.21875 
L 6.890625 13.375 
Q 12.890625 10.015625 18.65625 8.296875 
Q 24.421875 6.59375 29.984375 6.59375 
Q 38.421875 6.59375 43.015625 9.90625 
Q 47.609375 13.234375 47.609375 19.390625 
Q 47.609375 24.75 44.3125 27.78125 
Q 41.015625 30.8125 33.5 32.328125 
L 27.484375 33.5 
Q 16.453125 35.6875 11.515625 40.375 
Q 6.59375 45.0625 6.59375 53.421875 
Q 6.59375 63.09375 13.40625 68.65625 
Q 20.21875 74.21875 32.171875 74.21875 
Q 37.3125 74.21875 42.625 73.28125 
Q 47.953125 72.359375 53.515625 70.515625 
z
" id="DejaVuSans-83"/>
     <path d="M 8.5 21.578125 
L 8.5 54.6875 
L 17.484375 54.6875 
L 17.484375 21.921875 
Q 17.484375 14.15625 20.5 10.265625 
Q 23.53125 6.390625 29.59375 6.390625 
Q 36.859375 6.390625 41.078125 11.03125 
Q 45.3125 15.671875 45.3125 23.6875 
L 45.3125 54.6875 
L 54.296875 54.6875 
L 54.296875 0 
L 45.3125 0 
L 45.3125 8.40625 
Q 42.046875 3.421875 37.71875 1 
Q 33.40625 -1.421875 27.6875 -1.421875 
Q 18.265625 -1.421875 13.375 4.4375 
Q 8.5 10.296875 8.5 21.578125 
z
M 31.109375 56 
z
" id="DejaVuSans-117"/>
     <path d="M 48.6875 27.296875 
Q 48.6875 37.203125 44.609375 42.84375 
Q 40.53125 48.484375 33.40625 48.484375 
Q 26.265625 48.484375 22.1875 42.84375 
Q 18.109375 37.203125 18.109375 27.296875 
Q 18.109375 17.390625 22.1875 11.75 
Q 26.265625 6.109375 33.40625 6.109375 
Q 40.53125 6.109375 44.609375 11.75 
Q 48.6875 17.390625 48.6875 27.296875 
z
M 18.109375 46.390625 
Q 20.953125 51.265625 25.265625 53.625 
Q 29.59375 56 35.59375 56 
Q 45.5625 56 51.78125 48.09375 
Q 58.015625 40.1875 58.015625 27.296875 
Q 58.015625 14.40625 51.78125 6.484375 
Q 45.5625 -1.421875 35.59375 -1.421875 
Q 29.59375 -1.421875 25.265625 0.953125 
Q 20.953125 3.328125 18.109375 8.203125 
L 18.109375 0 
L 9.078125 0 
L 9.078125 75.984375 
L 18.109375 75.984375 
z
" id="DejaVuSans-98"/>
     <path d="M 9.421875 54.6875 
L 18.40625 54.6875 
L 18.40625 -0.984375 
Q 18.40625 -11.421875 14.421875 -16.109375 
Q 10.453125 -20.796875 1.609375 -20.796875 
L -1.8125 -20.796875 
L -1.8125 -13.1875 
L 0.59375 -13.1875 
Q 5.71875 -13.1875 7.5625 -10.8125 
Q 9.421875 -8.453125 9.421875 -0.984375 
z
M 9.421875 75.984375 
L 18.40625 75.984375 
L 18.40625 64.59375 
L 9.421875 64.59375 
z
" id="DejaVuSans-106"/>
     <path d="M 56.203125 29.59375 
L 56.203125 25.203125 
L 14.890625 25.203125 
Q 15.484375 15.921875 20.484375 11.0625 
Q 25.484375 6.203125 34.421875 6.203125 
Q 39.59375 6.203125 44.453125 7.46875 
Q 49.3125 8.734375 54.109375 11.28125 
L 54.109375 2.78125 
Q 49.265625 0.734375 44.1875 -0.34375 
Q 39.109375 -1.421875 33.890625 -1.421875 
Q 20.796875 -1.421875 13.15625 6.1875 
Q 5.515625 13.8125 5.515625 26.8125 
Q 5.515625 40.234375 12.765625 48.109375 
Q 20.015625 56 32.328125 56 
Q 43.359375 56 49.78125 48.890625 
Q 56.203125 41.796875 56.203125 29.59375 
z
M 47.21875 32.234375 
Q 47.125 39.59375 43.09375 43.984375 
Q 39.0625 48.390625 32.421875 48.390625 
Q 24.90625 48.390625 20.390625 44.140625 
Q 15.875 39.890625 15.1875 32.171875 
z
" id="DejaVuSans-101"/>
     <path d="M 48.78125 52.59375 
L 48.78125 44.1875 
Q 44.96875 46.296875 41.140625 47.34375 
Q 37.3125 48.390625 33.40625 48.390625 
Q 24.65625 48.390625 19.8125 42.84375 
Q 14.984375 37.3125 14.984375 27.296875 
Q 14.984375 17.28125 19.8125 11.734375 
Q 24.65625 6.203125 33.40625 6.203125 
Q 37.3125 6.203125 41.140625 7.25 
Q 44.96875 8.296875 48.78125 10.40625 
L 48.78125 2.09375 
Q 45.015625 0.34375 40.984375 -0.53125 
Q 36.96875 -1.421875 32.421875 -1.421875 
Q 20.0625 -1.421875 12.78125 6.34375 
Q 5.515625 14.109375 5.515625 27.296875 
Q 5.515625 40.671875 12.859375 48.328125 
Q 20.21875 56 33.015625 56 
Q 37.15625 56 41.109375 55.140625 
Q 45.0625 54.296875 48.78125 52.59375 
z
" id="DejaVuSans-99"/>
     <path d="M 18.3125 70.21875 
L 18.3125 54.6875 
L 36.8125 54.6875 
L 36.8125 47.703125 
L 18.3125 47.703125 
L 18.3125 18.015625 
Q 18.3125 11.328125 20.140625 9.421875 
Q 21.96875 7.515625 27.59375 7.515625 
L 36.8125 7.515625 
L 36.8125 0 
L 27.59375 0 
Q 17.1875 0 13.234375 3.875 
Q 9.28125 7.765625 9.28125 18.015625 
L 9.28125 47.703125 
L 2.6875 47.703125 
L 2.6875 54.6875 
L 9.28125 54.6875 
L 9.28125 70.21875 
z
" id="DejaVuSans-116"/>
     <path d="M 11.71875 12.40625 
L 22.015625 12.40625 
L 22.015625 0 
L 11.71875 0 
z
M 11.71875 51.703125 
L 22.015625 51.703125 
L 22.015625 39.3125 
L 11.71875 39.3125 
z
" id="DejaVuSans-58"/>
     <path d="M 44.28125 53.078125 
L 44.28125 44.578125 
Q 40.484375 46.53125 36.375 47.5 
Q 32.28125 48.484375 27.875 48.484375 
Q 21.1875 48.484375 17.84375 46.4375 
Q 14.5 44.390625 14.5 40.28125 
Q 14.5 37.15625 16.890625 35.375 
Q 19.28125 33.59375 26.515625 31.984375 
L 29.59375 31.296875 
Q 39.15625 29.25 43.1875 25.515625 
Q 47.21875 21.78125 47.21875 15.09375 
Q 47.21875 7.46875 41.1875 3.015625 
Q 35.15625 -1.421875 24.609375 -1.421875 
Q 20.21875 -1.421875 15.453125 -0.5625 
Q 10.6875 0.296875 5.421875 2 
L 5.421875 11.28125 
Q 10.40625 8.6875 15.234375 7.390625 
Q 20.0625 6.109375 24.8125 6.109375 
Q 31.15625 6.109375 34.5625 8.28125 
Q 37.984375 10.453125 37.984375 14.40625 
Q 37.984375 18.0625 35.515625 20.015625 
Q 33.0625 21.96875 24.703125 23.78125 
L 21.578125 24.515625 
Q 13.234375 26.265625 9.515625 29.90625 
Q 5.8125 33.546875 5.8125 39.890625 
Q 5.8125 47.609375 11.28125 51.796875 
Q 16.75 56 26.8125 56 
Q 31.78125 56 36.171875 55.265625 
Q 40.578125 54.546875 44.28125 53.078125 
z
" id="DejaVuSans-115"/>
     <path d="M 8.203125 72.90625 
L 55.078125 72.90625 
L 55.078125 68.703125 
L 28.609375 0 
L 18.3125 0 
L 43.21875 64.59375 
L 8.203125 64.59375 
z
" id="DejaVuSans-55"/>
     <path d="M 11.71875 12.40625 
L 22.015625 12.40625 
L 22.015625 4 
L 14.015625 -11.625 
L 7.71875 -11.625 
L 11.71875 4 
z
" id="DejaVuSans-44"/>
     <path d="M 9.8125 72.90625 
L 19.671875 72.90625 
L 19.671875 42.09375 
L 52.390625 72.90625 
L 65.09375 72.90625 
L 28.90625 38.921875 
L 67.671875 0 
L 54.6875 0 
L 19.671875 35.109375 
L 19.671875 0 
L 9.8125 0 
z
" id="DejaVuSans-75"/>
     <path d="M 54.890625 33.015625 
L 54.890625 0 
L 45.90625 0 
L 45.90625 32.71875 
Q 45.90625 40.484375 42.875 44.328125 
Q 39.84375 48.1875 33.796875 48.1875 
Q 26.515625 48.1875 22.3125 43.546875 
Q 18.109375 38.921875 18.109375 30.90625 
L 18.109375 0 
L 9.078125 0 
L 9.078125 54.6875 
L 18.109375 54.6875 
L 18.109375 46.1875 
Q 21.34375 51.125 25.703125 53.5625 
Q 30.078125 56 35.796875 56 
Q 45.21875 56 50.046875 50.171875 
Q 54.890625 44.34375 54.890625 33.015625 
z
" id="DejaVuSans-110"/>
     <path d="M 30.609375 48.390625 
Q 23.390625 48.390625 19.1875 42.75 
Q 14.984375 37.109375 14.984375 27.296875 
Q 14.984375 17.484375 19.15625 11.84375 
Q 23.34375 6.203125 30.609375 6.203125 
Q 37.796875 6.203125 41.984375 11.859375 
Q 46.1875 17.53125 46.1875 27.296875 
Q 46.1875 37.015625 41.984375 42.703125 
Q 37.796875 48.390625 30.609375 48.390625 
z
M 30.609375 56 
Q 42.328125 56 49.015625 48.375 
Q 55.71875 40.765625 55.71875 27.296875 
Q 55.71875 13.875 49.015625 6.21875 
Q 42.328125 -1.421875 30.609375 -1.421875 
Q 18.84375 -1.421875 12.171875 6.21875 
Q 5.515625 13.875 5.515625 27.296875 
Q 5.515625 40.765625 12.171875 48.375 
Q 18.84375 56 30.609375 56 
z
" id="DejaVuSans-111"/>
     <path d="M 4.203125 54.6875 
L 13.1875 54.6875 
L 24.421875 12.015625 
L 35.59375 54.6875 
L 46.1875 54.6875 
L 57.421875 12.015625 
L 68.609375 54.6875 
L 77.59375 54.6875 
L 63.28125 0 
L 52.6875 0 
L 40.921875 44.828125 
L 29.109375 0 
L 18.5 0 
z
" id="DejaVuSans-119"/>
     <path d="M 10.59375 45.40625 
L 73.1875 45.40625 
L 73.1875 37.203125 
L 10.59375 37.203125 
z
M 10.59375 25.484375 
L 73.1875 25.484375 
L 73.1875 17.1875 
L 10.59375 17.1875 
z
" id="DejaVuSans-61"/>
     <path d="M -0.296875 72.90625 
L 61.375 72.90625 
L 61.375 64.59375 
L 35.5 64.59375 
L 35.5 0 
L 25.59375 0 
L 25.59375 64.59375 
L -0.296875 64.59375 
z
" id="DejaVuSans-84"/>
     <path d="M 41.109375 46.296875 
Q 39.59375 47.171875 37.8125 47.578125 
Q 36.03125 48 33.890625 48 
Q 26.265625 48 22.1875 43.046875 
Q 18.109375 38.09375 18.109375 28.8125 
L 18.109375 0 
L 9.078125 0 
L 9.078125 54.6875 
L 18.109375 54.6875 
L 18.109375 46.1875 
Q 20.953125 51.171875 25.484375 53.578125 
Q 30.03125 56 36.53125 56 
Q 37.453125 56 38.578125 55.875 
Q 39.703125 55.765625 41.0625 55.515625 
z
" id="DejaVuSans-114"/>
     <path d="M 19.671875 64.796875 
L 19.671875 8.109375 
L 31.59375 8.109375 
Q 46.6875 8.109375 53.6875 14.9375 
Q 60.6875 21.78125 60.6875 36.53125 
Q 60.6875 51.171875 53.6875 57.984375 
Q 46.6875 64.796875 31.59375 64.796875 
z
M 9.8125 72.90625 
L 30.078125 72.90625 
Q 51.265625 72.90625 61.171875 64.09375 
Q 71.09375 55.28125 71.09375 36.53125 
Q 71.09375 17.671875 61.125 8.828125 
Q 51.171875 0 30.078125 0 
L 9.8125 0 
z
" id="DejaVuSans-68"/>
     <path d="M 45.40625 27.984375 
Q 45.40625 37.75 41.375 43.109375 
Q 37.359375 48.484375 30.078125 48.484375 
Q 22.859375 48.484375 18.828125 43.109375 
Q 14.796875 37.75 14.796875 27.984375 
Q 14.796875 18.265625 18.828125 12.890625 
Q 22.859375 7.515625 30.078125 7.515625 
Q 37.359375 7.515625 41.375 12.890625 
Q 45.40625 18.265625 45.40625 27.984375 
z
M 54.390625 6.78125 
Q 54.390625 -7.171875 48.1875 -13.984375 
Q 42 -20.796875 29.203125 -20.796875 
Q 24.46875 -20.796875 20.265625 -20.09375 
Q 16.0625 -19.390625 12.109375 -17.921875 
L 12.109375 -9.1875 
Q 16.0625 -11.328125 19.921875 -12.34375 
Q 23.78125 -13.375 27.78125 -13.375 
Q 36.625 -13.375 41.015625 -8.765625 
Q 45.40625 -4.15625 45.40625 5.171875 
L 45.40625 9.625 
Q 42.625 4.78125 38.28125 2.390625 
Q 33.9375 0 27.875 0 
Q 17.828125 0 11.671875 7.65625 
Q 5.515625 15.328125 5.515625 27.984375 
Q 5.515625 40.671875 11.671875 48.328125 
Q 17.828125 56 27.875 56 
Q 33.9375 56 38.28125 53.609375 
Q 42.625 51.21875 45.40625 46.390625 
L 45.40625 54.6875 
L 54.390625 54.6875 
z
" id="DejaVuSans-103"/>
     <path d="M 34.28125 27.484375 
Q 23.390625 27.484375 19.1875 25 
Q 14.984375 22.515625 14.984375 16.5 
Q 14.984375 11.71875 18.140625 8.90625 
Q 21.296875 6.109375 26.703125 6.109375 
Q 34.1875 6.109375 38.703125 11.40625 
Q 43.21875 16.703125 43.21875 25.484375 
L 43.21875 27.484375 
z
M 52.203125 31.203125 
L 52.203125 0 
L 43.21875 0 
L 43.21875 8.296875 
Q 40.140625 3.328125 35.546875 0.953125 
Q 30.953125 -1.421875 24.3125 -1.421875 
Q 15.921875 -1.421875 10.953125 3.296875 
Q 6 8.015625 6 15.921875 
Q 6 25.140625 12.171875 29.828125 
Q 18.359375 34.515625 30.609375 34.515625 
L 43.21875 34.515625 
L 43.21875 35.40625 
Q 43.21875 41.609375 39.140625 45 
Q 35.0625 48.390625 27.6875 48.390625 
Q 23 48.390625 18.546875 47.265625 
Q 14.109375 46.140625 10.015625 43.890625 
L 10.015625 52.203125 
Q 14.9375 54.109375 19.578125 55.046875 
Q 24.21875 56 28.609375 56 
Q 40.484375 56 46.34375 49.84375 
Q 52.203125 43.703125 52.203125 31.203125 
z
" id="DejaVuSans-97"/>
     <path d="M 9.421875 54.6875 
L 18.40625 54.6875 
L 18.40625 0 
L 9.421875 0 
z
M 9.421875 75.984375 
L 18.40625 75.984375 
L 18.40625 64.59375 
L 9.421875 64.59375 
z
" id="DejaVuSans-105"/>
     <path d="M 10.6875 12.40625 
L 21 12.40625 
L 21 0 
L 10.6875 0 
z
" id="DejaVuSans-46"/>
     <path d="M 12.40625 8.296875 
L 28.515625 8.296875 
L 28.515625 63.921875 
L 10.984375 60.40625 
L 10.984375 69.390625 
L 28.421875 72.90625 
L 38.28125 72.90625 
L 38.28125 8.296875 
L 54.390625 8.296875 
L 54.390625 0 
L 12.40625 0 
z
" id="DejaVuSans-49"/>
    </defs>
    <g transform="translate(55.550625 35.472)scale(0.12 -0.12)">
     <use xlink:href="#DejaVuSans-40"/>
     <use x="39.013672" xlink:href="#DejaVuSans-54"/>
     <use x="102.636719" xlink:href="#DejaVuSans-53"/>
     <use x="166.259766" xlink:href="#DejaVuSans-41"/>
     <use x="205.273438" xlink:href="#DejaVuSans-32"/>
     <use x="237.060547" xlink:href="#DejaVuSans-83"/>
     <use x="300.537109" xlink:href="#DejaVuSans-117"/>
     <use x="363.916016" xlink:href="#DejaVuSans-98"/>
     <use x="427.392578" xlink:href="#DejaVuSans-106"/>
     <use x="455.175781" xlink:href="#DejaVuSans-101"/>
     <use x="516.699219" xlink:href="#DejaVuSans-99"/>
     <use x="571.679688" xlink:href="#DejaVuSans-116"/>
     <use x="610.888672" xlink:href="#DejaVuSans-58"/>
     <use x="644.580078" xlink:href="#DejaVuSans-32"/>
     <use x="676.367188" xlink:href="#DejaVuSans-115"/>
     <use x="728.466797" xlink:href="#DejaVuSans-55"/>
     <use x="792.089844" xlink:href="#DejaVuSans-44"/>
     <use x="823.876953" xlink:href="#DejaVuSans-32"/>
     <use x="855.664062" xlink:href="#DejaVuSans-75"/>
     <use x="921.240234" xlink:href="#DejaVuSans-110"/>
     <use x="984.619141" xlink:href="#DejaVuSans-111"/>
     <use x="1045.800781" xlink:href="#DejaVuSans-119"/>
     <use x="1127.587891" xlink:href="#DejaVuSans-110"/>
     <use x="1190.966797" xlink:href="#DejaVuSans-32"/>
     <use x="1222.753906" xlink:href="#DejaVuSans-61"/>
     <use x="1306.542969" xlink:href="#DejaVuSans-32"/>
     <use x="1338.330078" xlink:href="#DejaVuSans-84"/>
     <use x="1399.195312" xlink:href="#DejaVuSans-114"/>
     <use x="1440.308594" xlink:href="#DejaVuSans-117"/>
     <use x="1503.6875" xlink:href="#DejaVuSans-101"/>
     <use x="1565.210938" xlink:href="#DejaVuSans-44"/>
     <use x="1596.998047" xlink:href="#DejaVuSans-32"/>
     <use x="1628.785156" xlink:href="#DejaVuSans-68"/>
     <use x="1705.787109" xlink:href="#DejaVuSans-101"/>
     <use x="1767.310547" xlink:href="#DejaVuSans-103"/>
     <use x="1830.787109" xlink:href="#DejaVuSans-114"/>
     <use x="1871.869141" xlink:href="#DejaVuSans-101"/>
     <use x="1933.392578" xlink:href="#DejaVuSans-101"/>
     <use x="1994.916016" xlink:href="#DejaVuSans-32"/>
     <use x="2026.703125" xlink:href="#DejaVuSans-61"/>
     <use x="2110.492188" xlink:href="#DejaVuSans-32"/>
     <use x="2142.279297" xlink:href="#DejaVuSans-50"/>
     <use x="2205.902344" xlink:href="#DejaVuSans-44"/>
     <use x="2237.689453" xlink:href="#DejaVuSans-32"/>
     <use x="2269.476562" xlink:href="#DejaVuSans-68"/>
     <use x="2346.478516" xlink:href="#DejaVuSans-117"/>
     <use x="2409.857422" xlink:href="#DejaVuSans-114"/>
     <use x="2450.970703" xlink:href="#DejaVuSans-97"/>
     <use x="2512.25" xlink:href="#DejaVuSans-116"/>
     <use x="2551.458984" xlink:href="#DejaVuSans-105"/>
     <use x="2579.242188" xlink:href="#DejaVuSans-111"/>
     <use x="2640.423828" xlink:href="#DejaVuSans-110"/>
     <use x="2703.802734" xlink:href="#DejaVuSans-32"/>
     <use x="2735.589844" xlink:href="#DejaVuSans-61"/>
     <use x="2819.378906" xlink:href="#DejaVuSans-32"/>
     <use x="2851.166016" xlink:href="#DejaVuSans-48"/>
     <use x="2914.789062" xlink:href="#DejaVuSans-46"/>
     <use x="2946.576172" xlink:href="#DejaVuSans-49"/>
    </g>
   </g>
  </g>
 </g>
 <defs>
  <clipPath id="p62d17398d4">
   <rect height="266.112" width="357.12" x="57.6" y="41.472"/>
  </clipPath>
 </defs>
</svg>
