<?xml version="1.0" encoding="utf-8" standalone="no"?>
<!DOCTYPE svg PUBLIC "-//W3C//DTD SVG 1.1//EN"
  "http://www.w3.org/Graphics/SVG/1.1/DTD/svg11.dtd">
<!-- Created with matplotlib (https://matplotlib.org/) -->
<svg height="345.6pt" version="1.1" viewBox="0 0 460.8 345.6" width="460.8pt" xmlns="http://www.w3.org/2000/svg" xmlns:xlink="http://www.w3.org/1999/xlink">
 <defs>
  <style type="text/css">
*{stroke-linecap:butt;stroke-linejoin:round;}
  </style>
 </defs>
 <g id="figure_1">
  <g id="patch_1">
   <path d="M 0 345.6 
L 460.8 345.6 
L 460.8 0 
L 0 0 
z
" style="fill:#ffffff;"/>
  </g>
  <g id="axes_1">
   <g id="patch_2">
    <path d="M 57.6 307.584 
L 414.72 307.584 
L 414.72 41.472 
L 57.6 41.472 
z
" style="fill:#ffffff;"/>
   </g>
   <g id="line2d_1">
    <path clip-path="url(#p9f92cdc956)" d="M 73.832727 62.481251 
L 73.832727 62.349377 
L 74.184662 62.349377 
L 74.710751 62.087985 
L 74.710751 62.087985 
L 74.536597 62.349377 
L 74.358816 62.217504 
L 74.710751 61.824237 
L 74.710751 61.694719 
L 74.888532 61.562845 
L 75.41462 61.824237 
L 75.41462 61.824237 
L 76.114862 61.562845 
L 76.292644 61.301452 
L 76.114862 60.776312 
L 75.588774 60.646793 
L 75.588774 60.51492 
L 76.114862 60.253527 
L 76.292644 60.253527 
L 76.114862 60.253527 
L 76.292644 59.98978 
L 76.292644 59.728387 
L 76.114862 59.596513 
L 76.292644 59.596513 
L 76.466797 59.466994 
L 76.466797 59.203247 
L 76.292644 58.941854 
L 76.292644 58.416714 
L 76.644579 58.287196 
L 76.644579 58.680462 
L 76.466797 58.941854 
L 76.292644 58.680462 
L 76.466797 58.287196 
L 77.170667 58.025803 
L 77.34482 57.368789 
L 77.518974 57.500663 
L 77.518974 57.632537 
L 77.696755 57.632537 
L 77.696755 57.368789 
L 76.992885 56.582257 
L 76.992885 56.320864 
L 77.34482 56.18899 
L 78.222844 56.452738 
L 78.396997 56.320864 
L 78.222844 56.320864 
L 77.696755 56.320864 
L 77.170667 56.059472 
L 77.34482 55.927598 
L 78.222844 55.534331 
L 78.748932 55.141065 
L 78.926714 55.272939 
L 79.100867 55.927598 
L 78.926714 55.927598 
L 77.518974 54.879673 
L 78.926714 55.141065 
L 79.100867 54.879673 
L 78.926714 55.011546 
L 78.748932 55.011546 
L 79.100867 54.61828 
L 78.926714 54.61828 
L 78.926714 54.354533 
L 78.926714 54.486406 
L 78.396997 54.61828 
L 78.748932 54.354533 
L 78.748932 54.09314 
L 78.574779 53.961266 
L 78.222844 54.09314 
L 78.04869 54.486406 
L 79.100867 54.486406 
L 79.452802 54.354533 
L 79.452802 53.699874 
L 79.27502 53.568 
L 79.27502 53.699874 
L 78.748932 53.961266 
L 78.574779 54.225014 
L 78.748932 54.747799 
L 78.396997 54.354533 
L 78.748932 54.354533 
L 79.100867 54.747799 
L 79.452802 54.61828 
L 79.804737 54.354533 
L 79.452802 54.747799 
L 79.27502 55.011546 
L 79.100867 55.011546 
L 79.100867 54.747799 
L 79.452802 54.61828 
L 79.27502 54.879673 
L 78.926714 55.011546 
L 78.748932 54.61828 
L 79.100867 54.61828 
L 79.452802 54.486406 
L 79.804737 54.61828 
L 79.626955 54.61828 
L 79.100867 54.61828 
L 78.926714 54.486406 
L 79.100867 54.486406 
L 79.100867 54.354533 
L 79.100867 54.354533 
L 79.27502 54.354533 
L 79.452802 54.61828 
L 79.452802 55.011546 
L 79.452802 55.011546 
L 79.27502 54.61828 
L 79.27502 54.747799 
L 79.27502 55.011546 
L 79.27502 54.747799 
L 79.626955 54.61828 
L 79.804737 54.61828 
L 79.804737 54.486406 
L 79.100867 54.486406 
L 78.574779 54.61828 
L 78.748932 54.747799 
L 79.27502 54.747799 
L 79.804737 54.879673 
L 79.804737 54.747799 
L 79.452802 54.747799 
L 79.452802 54.879673 
L 79.452802 54.879673 
L 79.27502 54.61828 
L 79.27502 54.61828 
L 79.27502 54.879673 
L 79.452802 55.011546 
L 79.804737 55.011546 
L 80.153044 54.879673 
L 80.153044 54.879673 
L 79.626955 54.879673 
L 78.926714 54.486406 
L 79.100867 54.354533 
L 79.27502 54.354533 
L 79.27502 55.272939 
L 79.452802 55.666205 
L 79.452802 55.666205 
L 79.626955 55.404813 
L 79.27502 54.879673 
L 78.748932 54.354533 
L 79.27502 54.09314 
L 79.626955 54.225014 
L 79.804737 54.486406 
L 79.626955 54.486406 
L 79.100867 54.747799 
L 79.100867 54.61828 
L 79.100867 54.486406 
L 79.452802 54.61828 
L 79.97889 54.61828 
L 79.804737 54.747799 
L 79.804737 55.141065 
L 79.452802 55.141065 
L 79.27502 55.011546 
L 79.97889 55.534331 
L 80.330825 55.404813 
L 80.153044 55.534331 
L 79.626955 55.534331 
L 79.626955 55.404813 
L 79.804737 55.534331 
L 79.804737 55.534331 
L 78.574779 55.272939 
L 78.926714 55.666205 
L 78.926714 55.534331 
L 78.926714 55.534331 
L 78.222844 55.534331 
L 77.870909 55.404813 
L 78.04869 55.272939 
L 78.926714 55.534331 
L 78.574779 56.059472 
L 78.574779 56.452738 
L 78.396997 56.582257 
L 78.396997 56.452738 
L 78.222844 56.059472 
L 78.04869 56.059472 
L 78.04869 56.452738 
L 78.396997 56.975523 
L 78.396997 56.846004 
L 78.396997 56.582257 
L 78.574779 56.320864 
L 78.748932 56.320864 
L 78.222844 56.582257 
L 77.696755 56.582257 
L 77.870909 56.582257 
L 78.574779 56.975523 
L 77.696755 57.107397 
L 78.396997 56.452738 
L 78.574779 56.452738 
L 78.574779 56.320864 
L 78.574779 56.452738 
L 79.626955 56.452738 
L 79.27502 56.452738 
L 78.748932 56.975523 
L 78.574779 57.23927 
L 77.870909 56.846004 
L 78.222844 57.107397 
L 78.222844 57.500663 
L 78.04869 57.762056 
L 78.222844 57.762056 
L 78.748932 57.107397 
L 78.748932 56.975523 
L 78.396997 57.107397 
L 78.574779 57.500663 
L 78.574779 57.500663 
L 78.222844 57.500663 
L 77.870909 57.368789 
L 77.870909 57.107397 
L 78.396997 56.975523 
L 78.04869 57.107397 
L 78.396997 57.500663 
L 79.100867 57.632537 
L 81.90909 57.107397 
L 84.720941 57.107397 
L 86.825295 57.23927 
L 92.445369 58.416714 
L 95.431374 58.680462 
L 102.103625 58.680462 
L 108.95003 59.596513 
L 112.814058 60.121653 
L 116.326151 60.908186 
L 122.294532 63.004036 
L 125.45469 64.183835 
L 128.614848 65.23176 
L 134.586858 67.852751 
L 139.851369 70.473741 
L 148.631602 76.895521 
L 151.091518 78.336712 
L 153.547807 80.041651 
L 156.35603 81.744235 
L 158.815946 83.055908 
L 161.624169 84.365225 
L 164.258239 85.413151 
L 180.7629 91.180271 
L 185.504951 92.489589 
L 189.717286 93.933135 
L 193.40716 95.767593 
L 200.427718 99.697901 
L 203.939811 101.532359 
L 206.925816 103.49869 
L 209.385733 105.333148 
L 217.636249 112.409587 
L 219.74423 114.375918 
L 221.500277 116.34225 
L 223.078542 118.4381 
L 224.482653 120.665824 
L 225.538458 122.893548 
L 225.890393 124.991753 
L 225.712612 126.826211 
L 225.360677 128.660669 
L 225.538458 130.756519 
L 225.890393 132.854724 
L 225.890393 134.689182 
L 225.538458 136.52364 
L 224.482653 140.063037 
L 223.60463 141.240481 
L 222.3783 142.290761 
L 220.796407 143.993345 
L 220.270319 144.911751 
L 218.514272 147.139475 
L 217.462095 148.1874 
L 217.11016 148.842059 
L 216.406291 149.367199 
L 216.057984 149.889984 
L 215.528267 150.283251 
L 214.650244 151.463049 
L 214.301937 151.988189 
L 213.423914 153.952166 
L 212.720044 154.870572 
L 212.016174 155.525231 
L 211.138151 156.050371 
L 210.263756 156.70503 
L 209.385733 157.884829 
L 208.856016 158.671362 
L 207.977993 159.587413 
L 207.629686 160.637693 
L 207.629686 162.078885 
L 206.925816 162.865417 
L 206.047793 163.520076 
L 205.343923 164.306609 
L 205.16977 164.829394 
L 204.4659 165.093141 
L 204.117593 165.093141 
L 203.23957 166.795725 
L 202.5357 167.714132 
L 202.009612 168.36879 
L 201.657677 168.762057 
L 200.957435 168.89393 
L 199.90163 169.809982 
L 200.079412 170.335122 
L 200.6055 170.464641 
L 200.253565 171.121654 
L 200.079412 171.776313 
L 199.90163 171.905832 
L 199.375542 171.776313 
L 198.497518 172.16958 
L 198.323365 172.16958 
L 197.26756 173.085631 
L 197.26756 173.349379 
L 197.093407 173.872164 
L 196.215384 174.26543 
L 195.689295 174.658696 
L 195.511514 175.183836 
L 195.511514 175.183836 
L 195.163207 174.79057 
L 194.985425 174.79057 
L 194.63349 175.051963 
L 194.459337 175.706621 
L 194.811272 175.706621 
L 194.811272 175.838495 
L 194.63349 176.231761 
L 194.811272 176.493154 
L 194.459337 176.756902 
L 193.581314 176.88642 
L 192.529137 176.756902 
L 192.877444 177.018294 
L 193.40716 177.150168 
L 193.581314 176.88642 
L 193.40716 176.493154 
L 193.055225 176.625028 
L 192.703291 176.88642 
L 192.703291 177.279687 
L 192.529137 177.41156 
L 191.299179 177.41156 
L 190.947244 177.804827 
L 191.299179 178.198093 
L 190.947244 178.720878 
L 190.421156 178.720878 
L 190.247002 178.591359 
L 190.595309 178.459486 
L 191.473332 178.327612 
L 191.473332 178.852752 
L 191.299179 179.246018 
L 191.125026 179.246018 
L 191.125026 179.507411 
L 190.773091 179.771158 
L 190.247002 179.771158 
L 190.069221 179.639284 
L 190.069221 179.246018 
L 190.247002 178.852752 
L 189.717286 178.984626 
L 189.895067 179.114144 
L 190.247002 179.114144 
L 190.069221 179.114144 
L 189.543132 179.377892 
L 189.543132 179.507411 
L 189.717286 179.507411 
L 189.543132 179.114144 
L 188.839263 179.639284 
L 189.017044 179.507411 
L 188.839263 180.032551 
L 187.435151 181.080476 
L 186.909063 181.998882 
L 186.557128 183.176326 
L 186.031039 184.226606 
L 184.978863 185.142658 
L 183.748905 186.061064 
L 182.696728 187.370382 
L 181.992858 189.075321 
L 181.46677 191.039297 
L 179.53657 194.710568 
L 177.428588 197.331558 
L 176.724718 199.952548 
L 175.672542 201.39374 
L 174.26843 202.966805 
L 173.038472 204.144249 
L 169.878314 206.503847 
L 168.474202 207.945038 
L 167.596179 209.38623 
L 167.070091 210.697902 
L 166.014286 212.139094 
L 164.436021 213.712159 
L 162.679974 215.285224 
L 161.275863 216.855935 
L 160.397839 218.299481 
L 159.167881 219.740672 
L 157.937923 220.920471 
L 157.411835 221.968396 
L 157.411835 223.934728 
L 156.885746 225.112172 
L 155.481635 226.685237 
L 154.951918 227.603643 
L 154.251677 228.390176 
L 153.373653 230.09276 
L 153.373653 230.6179 
L 153.021718 231.404433 
L 151.617607 233.500283 
L 150.035714 234.286816 
L 149.687407 235.073348 
L 149.509625 236.121273 
L 148.457449 238.480871 
L 147.93136 239.267404 
L 146.875555 241.75652 
L 146.349467 242.411179 
L 145.119509 242.936319 
L 145.471444 243.984244 
L 145.119509 244.509384 
L 144.241486 245.295917 
L 144.241486 245.689183 
L 144.067332 245.818702 
L 143.363462 245.55731 
L 142.837374 245.55731 
L 142.137132 246.080095 
L 141.433262 246.998501 
L 141.081328 247.65316 
L 141.259109 248.046426 
L 142.311286 248.310174 
L 142.311286 248.571566 
L 141.785197 249.094351 
L 141.433262 249.619491 
L 141.433262 249.880884 
L 141.785197 250.27415 
L 141.607416 250.667417 
L 141.259109 251.060683 
L 140.555239 251.322075 
L 139.503063 252.501874 
L 138.973346 253.158888 
L 138.625039 253.158888 
L 138.447258 253.027014 
L 138.095323 253.158888 
L 137.921169 253.552154 
L 138.095323 253.681673 
L 137.921169 253.681673 
L 137.747016 253.681673 
L 137.747016 254.206813 
L 138.095323 254.729598 
L 137.747016 255.254738 
L 137.395081 255.386612 
L 137.569234 256.564056 
L 137.220928 256.434537 
L 136.691211 255.648005 
L 137.043146 256.302664 
L 137.395081 257.22107 
L 137.395081 256.827804 
L 137.747016 256.69593 
L 137.220928 256.957322 
L 136.868993 257.875729 
L 137.043146 258.400869 
L 137.043146 258.400869 
L 136.517058 258.268995 
L 136.165123 257.875729 
L 136.342904 257.614336 
L 136.517058 257.743855 
L 136.165123 257.350589 
L 136.165123 257.22107 
L 136.517058 258.137121 
L 136.868993 258.400869 
L 136.691211 258.400869 
L 136.165123 258.268995 
L 135.990969 258.400869 
L 136.165123 258.400869 
L 136.517058 258.268995 
L 136.517058 258.007602 
L 136.517058 258.530388 
L 136.691211 258.923654 
L 137.043146 258.400869 
L 135.813188 258.400869 
L 136.165123 258.400869 
L 137.220928 258.662261 
L 137.220928 258.530388 
L 137.043146 258.662261 
L 137.220928 258.923654 
L 137.220928 259.31692 
L 137.395081 259.448794 
L 137.569234 259.055528 
L 137.395081 258.400869 
L 136.868993 258.007602 
L 136.691211 258.530388 
L 136.691211 258.923654 
L 136.691211 258.794135 
L 137.395081 259.31692 
L 137.220928 259.448794 
L 136.342904 259.055528 
L 136.691211 258.794135 
L 136.691211 258.923654 
L 136.868993 259.185046 
L 137.395081 259.185046 
L 137.569234 258.923654 
L 137.395081 258.530388 
L 137.043146 258.400869 
L 137.220928 258.268995 
L 136.868993 258.530388 
L 136.691211 258.400869 
L 136.868993 258.268995 
L 137.220928 258.268995 
L 137.569234 258.662261 
L 137.220928 258.662261 
L 136.517058 258.400869 
L 136.691211 258.400869 
L 136.691211 258.400869 
L 136.691211 258.530388 
L 136.517058 258.794135 
L 136.868993 258.400869 
L 137.395081 258.530388 
L 137.395081 258.662261 
L 136.517058 257.875729 
L 136.868993 258.268995 
L 137.395081 258.400869 
L 137.747016 258.137121 
L 137.747016 257.875729 
L 137.569234 257.22107 
L 138.447258 256.564056 
L 138.447258 256.302664 
L 138.625039 256.302664 
L 138.625039 256.434537 
L 138.799193 256.564056 
L 139.151128 256.302664 
L 139.151128 256.041271 
L 139.325281 255.909397 
L 139.325281 255.516131 
L 139.151128 255.254738 
L 138.799193 255.122865 
L 138.447258 255.254738 
L 138.973346 254.993346 
L 139.151128 254.336332 
L 138.799193 254.074939 
L 139.151128 254.206813 
L 139.503063 254.206813 
L 139.503063 253.681673 
L 139.151128 253.288407 
L 139.325281 253.420281 
L 139.677216 253.420281 
L 139.503063 253.420281 
L 139.151128 253.288407 
L 139.151128 253.158888 
L 140.029151 252.895141 
L 140.203304 252.633748 
L 140.029151 252.501874 
L 139.677216 252.633748 
L 139.851369 252.765622 
L 140.029151 252.501874 
L 139.677216 252.108608 
L 139.503063 251.585823 
L 139.503063 251.322075 
L 139.677216 251.192557 
L 140.203304 251.192557 
L 140.381086 251.453949 
L 140.203304 251.715342 
L 139.851369 251.585823 
L 139.851369 251.192557 
L 140.029151 250.931164 
L 139.503063 250.144631 
L 140.029151 250.931164 
L 140.381086 250.667417 
L 140.555239 250.27415 
L 139.677216 250.931164 
L 138.799193 250.79929 
L 138.447258 250.406024 
L 139.503063 250.667417 
L 140.029151 250.667417 
L 140.029151 250.537898 
L 139.851369 250.406024 
L 139.503063 249.880884 
L 139.503063 249.358099 
L 139.677216 249.226225 
L 140.729393 250.27415 
L 140.907174 250.27415 
L 141.259109 250.012758 
L 140.907174 249.094351 
L 140.029151 249.094351 
L 139.851369 248.701085 
L 140.029151 248.439692 
L 140.203304 248.701085 
L 140.203304 249.226225 
L 139.851369 250.144631 
L 139.851369 249.751365 
L 139.851369 249.226225 
L 140.203304 249.094351 
L 140.555239 249.094351 
L 140.381086 249.226225 
L 139.851369 249.226225 
L 139.851369 249.358099 
L 139.851369 249.226225 
L 139.677216 249.094351 
L 139.503063 249.358099 
L 140.029151 249.751365 
L 140.555239 249.751365 
L 140.555239 249.487618 
L 140.029151 249.226225 
L 140.029151 249.094351 
L 140.381086 249.487618 
L 140.203304 249.880884 
L 140.381086 250.144631 
L 141.081328 249.880884 
L 141.081328 250.012758 
L 140.907174 250.406024 
L 140.907174 250.144631 
L 140.555239 249.751365 
L 140.729393 249.880884 
L 140.555239 250.27415 
L 140.203304 250.27415 
L 139.677216 250.012758 
L 139.151128 250.406024 
L 139.325281 250.27415 
L 139.851369 250.406024 
L 140.029151 250.406024 
L 140.029151 250.144631 
L 140.203304 250.144631 
L 140.203304 250.144631 
L 140.203304 250.27415 
L 140.381086 250.27415 
L 140.381086 250.27415 
L 140.203304 250.667417 
L 140.729393 250.931164 
L 140.029151 250.012758 
L 139.325281 251.453949 
L 140.029151 251.585823 
L 140.555239 251.453949 
L 140.729393 251.192557 
L 140.381086 251.060683 
L 139.677216 251.192557 
L 139.677216 251.192557 
L 139.677216 251.060683 
L 139.325281 250.79929 
L 139.503063 250.537898 
L 139.677216 250.667417 
L 139.677216 251.453949 
L 139.851369 251.322075 
L 139.677216 250.79929 
L 139.325281 250.537898 
L 138.973346 250.667417 
L 139.325281 251.060683 
L 139.325281 251.060683 
L 139.503063 251.060683 
L 139.677216 251.322075 
L 139.503063 251.585823 
L 139.503063 251.453949 
L 139.503063 250.79929 
L 139.677216 250.667417 
L 139.151128 251.060683 
L 139.503063 250.931164 
L 140.029151 250.667417 
L 140.029151 250.537898 
L 138.973346 250.79929 
L 138.799193 250.667417 
L 138.799193 250.931164 
L 138.973346 250.931164 
L 139.151128 250.667417 
L 139.151128 250.931164 
L 139.503063 251.453949 
L 139.151128 251.585823 
L 138.273104 251.322075 
L 138.799193 251.322075 
L 139.325281 251.453949 
L 138.973346 251.453949 
L 139.151128 251.585823 
L 138.273104 251.060683 
L 138.273104 251.192557 
L 139.151128 251.453949 
L 138.799193 251.715342 
L 138.799193 252.108608 
L 138.973346 252.240482 
L 139.151128 251.979089 
L 138.799193 251.847215 
L 138.447258 252.108608 
L 139.677216 252.501874 
L 139.325281 252.108608 
L 139.325281 251.847215 
L 139.677216 251.847215 
L 139.677216 252.240482 
L 139.503063 252.240482 
L 139.325281 251.979089 
L 139.151128 252.240482 
L 139.851369 251.585823 
L 140.029151 251.847215 
L 139.851369 252.108608 
L 139.851369 251.979089 
L 139.503063 252.108608 
L 139.151128 252.108608 
L 138.799193 252.240482 
L 138.625039 252.108608 
L 139.151128 252.633748 
L 139.151128 252.372355 
L 139.151128 252.108608 
L 139.151128 252.108608 
L 138.973346 252.108608 
L 138.973346 252.108608 
L 139.325281 251.715342 
L 139.503063 251.453949 
L 139.677216 251.715342 
L 139.677216 252.240482 
L 139.325281 252.372355 
L 138.447258 252.372355 
L 138.095323 252.240482 
L 138.095323 252.108608 
L 139.151128 252.108608 
L 138.625039 252.108608 
L 138.625039 252.240482 
L 138.447258 252.108608 
L 138.447258 251.715342 
L 138.447258 252.108608 
L 138.625039 251.847215 
L 138.973346 251.979089 
L 139.151128 252.372355 
L 139.151128 252.372355 
L 140.203304 251.585823 
L 141.259109 251.322075 
L 148.631602 251.847215 
L 152.317848 251.847215 
L 166.366221 252.765622 
L 172.686537 253.027014 
L 179.358788 253.158888 
L 186.031039 253.158888 
L 192.877444 253.027014 
L 200.427718 253.027014 
L 208.507709 253.288407 
L 216.232137 253.813547 
L 223.956565 254.468206 
L 231.858774 255.254738 
L 246.959323 257.22107 
L 261.533784 258.268995 
L 268.206035 259.055528 
L 274.878286 259.971579 
L 282.076626 260.758112 
L 302.793621 263.642849 
L 309.291719 264.165635 
L 323.16231 264.952167 
L 329.660408 265.477307 
L 335.802942 266.131966 
L 341.949105 266.657106 
L 348.269421 267.050372 
L 360.7359 268.098298 
L 372.150203 268.621083 
L 377.066408 269.014349 
L 385.668859 270.194148 
L 392.518891 270.719288 
L 397.783403 271.899087 
L 398.487273 272.292353 
L 398.487273 272.553746 
L 398.135338 273.076531 
L 397.435096 273.469797 
L 394.097156 273.994937 
L 392.518891 274.913343 
L 387.950994 275.697521 
L 386.898817 275.697521 
L 386.020794 275.961269 
L 386.020794 275.961269 
L 385.84664 276.222661 
L 384.968617 276.747801 
L 384.442529 276.747801 
L 384.090594 276.87732 
L 383.738659 277.270586 
L 382.860635 277.141068 
L 381.630677 277.141068 
L 381.278742 277.40246 
L 381.982612 277.925245 
L 381.808459 278.188993 
L 381.278742 278.318512 
L 380.930436 278.188993 
L 378.996607 278.188993 
L 378.296366 278.582259 
L 377.770277 279.105044 
L 377.418343 278.843652 
L 377.066408 278.843652 
L 376.714473 279.105044 
L 376.014231 279.368792 
L 376.014231 279.49831 
L 376.362538 279.368792 
L 376.362538 279.368792 
L 376.014231 279.762058 
L 373.728468 281.464642 
L 373.028226 281.332768 
L 372.502138 281.071376 
L 372.676291 280.939502 
L 373.028226 280.939502 
L 372.854073 281.332768 
L 371.798268 282.512567 
L 371.798268 282.644441 
L 371.798268 282.251175 
L 370.56831 281.464642 
L 370.56831 281.464642 
L 369.164198 282.644441 
L 369.34198 282.512567 
L 369.690286 282.383048 
L 369.690286 282.512567 
L 369.34198 282.776315 
L 368.112022 283.037707 
L 367.585933 282.905833 
L 367.233998 283.167226 
L 366.70791 284.085632 
L 366.70791 284.085632 
L 366.00404 283.037707 
L 365.652105 283.2991 
L 365.652105 284.085632 
L 365.477952 284.085632 
L 365.303798 283.82424 
L 364.774082 283.82424 
L 363.896059 283.953759 
L 363.547752 284.217506 
L 363.721905 284.610772 
L 364.247993 284.872165 
L 364.774082 285.004039 
L 364.774082 285.265431 
L 364.774082 285.265431 
L 364.247993 285.004039 
L 363.195817 284.610772 
L 362.317794 284.478899 
L 362.140012 284.740291 
L 362.317794 285.004039 
L 362.669729 285.133557 
L 362.669729 285.265431 
L 362.317794 285.526824 
L 362.140012 285.92009 
L 361.613924 285.658697 
L 361.965859 285.658697 
L 361.965859 285.526824 
L 361.43977 285.526824 
L 361.087835 285.658697 
L 361.087835 286.181483 
L 360.561747 286.44523 
L 360.035659 286.313356 
L 360.035659 286.051964 
L 359.683724 285.92009 
L 359.50957 285.658697 
L 359.857877 285.397305 
L 360.209812 285.397305 
L 360.387594 285.788216 
L 358.805701 286.838496 
L 357.927677 286.838496 
L 357.927677 286.838496 
L 358.101831 286.968015 
L 358.453766 286.574749 
L 358.631547 286.706623 
L 358.279612 286.838496 
L 357.575742 286.838496 
L 357.049654 287.099889 
L 357.223807 287.099889 
L 357.575742 286.968015 
L 357.401589 287.099889 
L 357.753524 287.754548 
L 357.575742 287.886422 
L 356.697719 287.361281 
L 356.171631 287.493155 
L 356.171631 288.147814 
L 355.997477 288.279688 
L 355.819696 288.018295 
L 355.997477 287.754548 
L 355.997477 287.886422 
L 355.997477 288.018295 
L 355.645542 288.147814 
L 354.941672 287.886422 
L 355.119454 287.754548 
L 355.293607 288.018295 
L 355.119454 288.279688 
L 354.767519 288.147814 
L 354.241431 287.886422 
L 355.119454 288.409207 
L 354.941672 288.409207 
L 354.593366 288.672954 
L 354.593366 289.06622 
L 354.241431 289.589006 
L 353.889496 289.589006 
L 353.537561 288.409207 
L 353.185626 288.54108 
L 353.011473 288.934347 
L 353.889496 288.934347 
L 353.889496 289.195739 
L 353.715342 289.327613 
L 353.363408 289.06622 
L 352.485384 288.934347 
L 351.607361 288.934347 
L 351.429579 289.06622 
L 352.133449 289.589006 
L 351.959296 289.589006 
L 351.255426 289.589006 
L 351.255426 289.720879 
L 351.081273 289.852753 
L 351.607361 289.459487 
L 351.781514 289.720879 
L 351.429579 289.852753 
L 350.729338 289.459487 
L 350.025468 289.852753 
L 350.203249 289.852753 
L 350.377403 289.982272 
L 350.729338 289.982272 
L 350.551556 289.852753 
L 349.147445 289.852753 
L 348.799138 289.982272 
L 348.973291 289.720879 
L 349.325226 289.459487 
L 349.851314 289.459487 
L 349.851314 289.720879 
L 349.49938 289.589006 
L 349.147445 289.589006 
L 348.973291 289.852753 
L 349.325226 290.375538 
L 348.799138 290.375538 
L 348.447203 290.246019 
L 348.799138 290.375538 
L 348.447203 290.507412 
L 348.095268 290.375538 
L 348.095268 290.114146 
L 348.269421 290.114146 
L 348.269421 290.768804 
L 348.269421 290.639286 
L 348.447203 290.375538 
L 348.799138 290.246019 
L 348.799138 290.507412 
L 348.621356 290.900678 
L 347.921115 291.030197 
L 346.86531 290.900678 
L 347.391398 291.423463 
L 347.217245 291.555337 
L 346.691156 291.555337 
L 346.513375 291.687211 
L 346.513375 291.687211 
L 346.513375 291.293944 
L 345.813133 290.768804 
L 345.813133 290.900678 
L 346.165068 291.555337 
L 346.165068 291.948603 
L 346.691156 291.162071 
L 346.513375 291.030197 
L 346.165068 291.293944 
L 345.813133 292.209996 
L 345.813133 292.209996 
L 345.461198 291.948603 
L 345.287045 292.34187 
L 344.93511 292.34187 
L 344.583175 292.209996 
L 344.583175 292.080477 
L 345.109263 292.080477 
L 345.461198 291.948603 
L 345.287045 292.080477 
L 345.109263 292.209996 
L 345.461198 292.473743 
L 345.287045 292.473743 
L 344.93511 292.473743 
L 344.93511 292.473743 
L 346.691156 292.209996 
L 351.255426 292.603262 
L 354.767519 292.603262 
L 356.697719 292.735136 
L 358.453766 292.603262 
L 360.387594 292.86701 
L 364.425775 294.044454 
L 365.477952 294.044454 
L 366.530128 293.914935 
L 368.463956 294.176327 
L 368.812263 294.308201 
L 368.990045 293.914935 
L 369.516133 294.830986 
L 369.516133 294.830986 
L 368.990045 294.830986 
L 368.812263 295.094734 
L 369.164198 295.224253 
L 369.516133 295.094734 
L 369.516133 294.569594 
L 368.812263 294.569594 
L 368.463956 295.094734 
L 368.63811 295.488 
L 369.164198 295.488 
L 369.868068 294.701467 
L 369.868068 294.830986 
L 369.516133 294.96286 
L 369.34198 294.830986 
L 369.164198 294.43772 
L 368.812263 294.176327 
L 368.112022 294.43772 
L 368.286175 294.701467 
L 368.63811 294.701467 
L 368.63811 294.569594 
L 368.112022 294.569594 
L 368.112022 293.914935 
L 368.286175 293.651187 
L 368.812263 293.521669 
L 369.34198 293.521669 
L 369.516133 293.783061 
L 369.164198 293.914935 
L 368.463956 294.044454 
L 368.286175 293.783061 
L 368.63811 293.389795 
L 368.812263 292.996528 
L 368.63811 292.735136 
L 368.286175 292.735136 
L 368.112022 292.86701 
L 368.112022 293.260276 
L 368.286175 293.389795 
L 368.463956 293.128402 
L 368.463956 292.735136 
L 367.93424 292.34187 
L 367.585933 292.34187 
L 367.585933 292.473743 
L 367.760087 292.473743 
L 368.990045 292.080477 
L 368.990045 292.209996 
L 368.63811 292.603262 
L 368.63811 292.080477 
L 368.112022 290.507412 
L 368.112022 290.507412 
L 368.463956 290.639286 
L 368.63811 290.507412 
L 368.286175 290.114146 
L 368.286175 290.114146 
L 368.463956 290.114146 
L 368.463956 290.246019 
L 368.812263 290.114146 
L 369.164198 290.114146 
L 369.164198 290.375538 
L 368.812263 290.639286 
L 368.812263 290.375538 
L 368.463956 289.852753 
L 367.93424 289.589006 
L 367.408152 289.589006 
L 367.408152 289.852753 
L 367.760087 289.852753 
L 368.63811 289.589006 
L 367.93424 289.720879 
L 366.70791 289.327613 
L 366.70791 289.459487 
L 367.233998 289.459487 
L 367.585933 289.720879 
L 367.059845 289.327613 
L 366.70791 288.802473 
L 366.355975 288.672954 
L 366.181822 289.06622 
L 366.882063 289.459487 
L 367.059845 289.459487 
L 367.059845 289.327613 
L 366.882063 289.327613 
L 367.059845 289.459487 
L 367.233998 289.327613 
L 366.530128 288.934347 
L 366.70791 288.934347 
L 367.059845 288.934347 
L 366.882063 288.934347 
L 366.70791 288.802473 
L 366.530128 288.934347 
L 366.70791 289.06622 
L 366.882063 288.934347 
L 366.70791 288.934347 
L 366.530128 288.934347 
L 366.00404 288.672954 
L 365.829887 288.934347 
L 365.829887 289.195739 
L 366.181822 289.327613 
L 366.882063 288.672954 
L 366.530128 288.672954 
L 365.477952 289.195739 
L 365.477952 288.802473 
L 365.652105 288.802473 
L 365.652105 289.06622 
L 365.477952 289.459487 
L 365.126017 289.852753 
L 365.126017 289.720879 
L 365.126017 289.327613 
L 364.774082 288.934347 
L 364.07384 288.802473 
L 364.07384 288.934347 
L 364.425775 289.06622 
L 364.774082 289.06622 
L 365.126017 289.327613 
L 364.951863 289.589006 
L 364.599928 289.852753 
L 364.247993 289.852753 
L 364.599928 289.06622 
L 365.126017 289.06622 
L 365.303798 289.327613 
L 365.126017 289.195739 
L 364.599928 289.195739 
L 364.425775 289.327613 
L 364.425775 289.720879 
L 364.599928 289.852753 
L 364.599928 289.589006 
L 364.247993 289.327613 
L 363.896059 289.327613 
L 363.721905 289.720879 
L 364.247993 289.720879 
L 364.247993 289.852753 
L 364.07384 289.982272 
L 363.721905 289.982272 
L 363.721905 289.852753 
L 363.721905 289.852753 
L 363.547752 289.852753 
L 363.721905 290.114146 
L 363.896059 290.507412 
L 363.721905 290.507412 
L 363.547752 290.375538 
L 363.018035 290.375538 
L 362.491947 290.246019 
L 362.491947 290.375538 
L 363.547752 291.030197 
L 363.721905 291.030197 
L 363.547752 290.639286 
L 363.018035 290.375538 
L 362.491947 290.246019 
L 362.491947 290.507412 
L 362.669729 290.768804 
L 362.491947 290.768804 
L 362.317794 290.639286 
L 362.669729 290.768804 
L 363.195817 290.639286 
L 363.195817 290.375538 
L 362.843882 290.114146 
L 362.669729 290.246019 
L 363.018035 290.375538 
L 363.018035 290.375538 
L 362.843882 290.507412 
L 362.843882 290.507412 
L 363.195817 290.507412 
L 363.195817 290.900678 
L 362.843882 291.293944 
L 362.843882 291.293944 
L 362.491947 291.293944 
L 361.791705 291.162071 
L 360.209812 291.030197 
L 357.927677 290.639286 
L 353.715342 289.589006 
L 351.081273 289.459487 
L 347.391398 289.720879 
L 342.652975 289.720879 
L 337.0329 289.327613 
L 331.238672 288.802473 
L 318.420258 288.018295 
L 310.521677 287.231763 
L 302.619468 286.181483 
L 287.344765 283.82424 
L 261.707937 280.939502 
L 228.520835 275.568002 
L 213.423914 272.160479 
L 206.047793 270.45554 
L 198.849453 269.146223 
L 184.452774 266.26384 
L 177.076653 264.558901 
L 154.603611 259.055528 
L 146.875555 257.22107 
L 139.503063 255.648005 
L 126.15856 253.420281 
L 120.012397 251.979089 
L 113.692081 250.667417 
L 102.103625 248.701085 
L 97.009639 247.391767 
L 88.933276 244.770777 
L 86.125053 244.116118 
L 84.017072 243.459104 
L 80.153044 241.624647 
L 79.97889 241.495128 
L 81.208848 241.495128 
L 83.139048 240.576721 
L 84.369006 240.576721 
L 85.947271 240.838114 
L 87.529165 240.969988 
L 88.933276 240.969988 
L 90.163234 241.101861 
L 91.041258 241.363254 
L 91.393193 241.624647 
L 91.741499 242.28166 
L 92.093434 242.543053 
L 92.093434 242.411179 
L 92.093434 242.28166 
L 91.741499 242.674927 
L 91.741499 243.459104 
L 91.919281 243.722852 
L 91.741499 243.722852 
L 91.567346 243.852371 
L 91.041258 243.984244 
L 89.985453 243.984244 
L 89.459365 244.509384 
L 89.459365 245.164043 
L 90.163234 245.425436 
L 90.337388 245.295917 
L 89.459365 244.902651 
L 89.111058 244.509384 
L 90.163234 245.425436 
L 88.933276 245.818702 
L 88.933276 245.55731 
L 89.285211 245.425436 
L 89.459365 245.818702 
L 89.111058 246.737108 
L 88.933276 246.737108 
L 88.933276 246.473361 
L 88.933276 246.605235 
L 89.285211 246.473361 
L 89.459365 246.605235 
L 89.459365 246.343842 
L 89.285211 246.343842 
L 89.111058 246.473361 
L 89.285211 246.473361 
L 89.637146 246.343842 
L 89.111058 246.473361 
L 88.581341 246.473361 
L 88.407188 246.605235 
L 88.759123 246.737108 
L 88.933276 246.605235 
L 88.933276 246.343842 
L 88.933276 246.737108 
L 89.111058 247.130375 
L 89.459365 247.130375 
L 88.581341 246.866627 
L 88.407188 246.866627 
L 89.459365 246.866627 
L 89.637146 246.998501 
L 89.637146 247.523641 
L 89.637146 247.523641 
L 89.459365 247.523641 
L 89.285211 247.785034 
L 89.111058 247.785034 
L 89.111058 247.523641 
L 89.459365 247.391767 
L 89.811299 247.65316 
L 89.811299 248.046426 
L 89.285211 248.046426 
L 89.285211 248.046426 
L 89.285211 248.1783 
L 89.285211 247.916907 
L 89.285211 247.916907 
L 89.637146 248.046426 
L 89.985453 248.046426 
L 90.163234 248.1783 
L 90.163234 248.1783 
L 89.985453 248.439692 
L 89.985453 248.701085 
L 89.285211 248.310174 
L 88.933276 248.310174 
L 89.459365 248.439692 
L 89.811299 248.1783 
L 89.811299 248.310174 
L 89.985453 249.094351 
L 89.985453 248.964833 
L 89.637146 248.701085 
L 88.933276 248.439692 
L 89.811299 248.439692 
L 91.041258 248.832959 
L 91.041258 248.701085 
L 90.337388 248.310174 
L 90.337388 248.310174 
L 90.163234 248.310174 
L 89.811299 248.439692 
L 89.459365 248.964833 
L 89.811299 248.571566 
L 90.163234 248.439692 
L 90.163234 248.571566 
L 90.163234 248.571566 
L 90.337388 248.832959 
L 90.515169 248.832959 
L 89.459365 248.571566 
L 89.637146 248.701085 
L 89.985453 248.571566 
L 90.515169 248.571566 
L 90.689323 248.701085 
L 90.689323 249.226225 
L 90.689323 249.226225 
L 90.163234 249.094351 
L 89.637146 249.094351 
L 89.459365 249.226225 
L 90.163234 249.358099 
L 90.863476 249.358099 
L 91.041258 248.964833 
L 90.863476 248.964833 
L 90.515169 249.094351 
L 90.337388 249.094351 
L 90.337388 248.964833 
L 90.689323 248.832959 
L 91.041258 248.964833 
L 91.041258 249.094351 
L 90.689323 249.358099 
L 90.689323 249.094351 
L 90.689323 249.094351 
" style="fill:none;stroke:#1f77b4;stroke-linecap:square;stroke-width:1.5;"/>
   </g>
   <g id="matplotlib.axis_1">
    <g id="xtick_1">
     <g id="line2d_2">
      <defs>
       <path d="M 0 0 
L 0 3.5 
" id="m6e4058ac7e" style="stroke:#000000;stroke-width:0.8;"/>
      </defs>
      <g>
       <use style="stroke:#000000;stroke-width:0.8;" x="86.33186" xlink:href="#m6e4058ac7e" y="307.584"/>
      </g>
     </g>
     <g id="text_1">
      <!-- −600 -->
      <defs>
       <path d="M 10.59375 35.5 
L 73.1875 35.5 
L 73.1875 27.203125 
L 10.59375 27.203125 
z
" id="DejaVuSans-8722"/>
       <path d="M 33.015625 40.375 
Q 26.375 40.375 22.484375 35.828125 
Q 18.609375 31.296875 18.609375 23.390625 
Q 18.609375 15.53125 22.484375 10.953125 
Q 26.375 6.390625 33.015625 6.390625 
Q 39.65625 6.390625 43.53125 10.953125 
Q 47.40625 15.53125 47.40625 23.390625 
Q 47.40625 31.296875 43.53125 35.828125 
Q 39.65625 40.375 33.015625 40.375 
z
M 52.59375 71.296875 
L 52.59375 62.3125 
Q 48.875 64.0625 45.09375 64.984375 
Q 41.3125 65.921875 37.59375 65.921875 
Q 27.828125 65.921875 22.671875 59.328125 
Q 17.53125 52.734375 16.796875 39.40625 
Q 19.671875 43.65625 24.015625 45.921875 
Q 28.375 48.1875 33.59375 48.1875 
Q 44.578125 48.1875 50.953125 41.515625 
Q 57.328125 34.859375 57.328125 23.390625 
Q 57.328125 12.15625 50.6875 5.359375 
Q 44.046875 -1.421875 33.015625 -1.421875 
Q 20.359375 -1.421875 13.671875 8.265625 
Q 6.984375 17.96875 6.984375 36.375 
Q 6.984375 53.65625 15.1875 63.9375 
Q 23.390625 74.21875 37.203125 74.21875 
Q 40.921875 74.21875 44.703125 73.484375 
Q 48.484375 72.75 52.59375 71.296875 
z
" id="DejaVuSans-54"/>
       <path d="M 31.78125 66.40625 
Q 24.171875 66.40625 20.328125 58.90625 
Q 16.5 51.421875 16.5 36.375 
Q 16.5 21.390625 20.328125 13.890625 
Q 24.171875 6.390625 31.78125 6.390625 
Q 39.453125 6.390625 43.28125 13.890625 
Q 47.125 21.390625 47.125 36.375 
Q 47.125 51.421875 43.28125 58.90625 
Q 39.453125 66.40625 31.78125 66.40625 
z
M 31.78125 74.21875 
Q 44.046875 74.21875 50.515625 64.515625 
Q 56.984375 54.828125 56.984375 36.375 
Q 56.984375 17.96875 50.515625 8.265625 
Q 44.046875 -1.421875 31.78125 -1.421875 
Q 19.53125 -1.421875 13.0625 8.265625 
Q 6.59375 17.96875 6.59375 36.375 
Q 6.59375 54.828125 13.0625 64.515625 
Q 19.53125 74.21875 31.78125 74.21875 
z
" id="DejaVuSans-48"/>
      </defs>
      <g transform="translate(72.598266 322.182437)scale(0.1 -0.1)">
       <use xlink:href="#DejaVuSans-8722"/>
       <use x="83.789062" xlink:href="#DejaVuSans-54"/>
       <use x="147.412109" xlink:href="#DejaVuSans-48"/>
       <use x="211.035156" xlink:href="#DejaVuSans-48"/>
      </g>
     </g>
    </g>
    <g id="xtick_2">
     <g id="line2d_3">
      <g>
       <use style="stroke:#000000;stroke-width:0.8;" x="158.895767" xlink:href="#m6e4058ac7e" y="307.584"/>
      </g>
     </g>
     <g id="text_2">
      <!-- −400 -->
      <defs>
       <path d="M 37.796875 64.3125 
L 12.890625 25.390625 
L 37.796875 25.390625 
z
M 35.203125 72.90625 
L 47.609375 72.90625 
L 47.609375 25.390625 
L 58.015625 25.390625 
L 58.015625 17.1875 
L 47.609375 17.1875 
L 47.609375 0 
L 37.796875 0 
L 37.796875 17.1875 
L 4.890625 17.1875 
L 4.890625 26.703125 
z
" id="DejaVuSans-52"/>
      </defs>
      <g transform="translate(145.162173 322.182437)scale(0.1 -0.1)">
       <use xlink:href="#DejaVuSans-8722"/>
       <use x="83.789062" xlink:href="#DejaVuSans-52"/>
       <use x="147.412109" xlink:href="#DejaVuSans-48"/>
       <use x="211.035156" xlink:href="#DejaVuSans-48"/>
      </g>
     </g>
    </g>
    <g id="xtick_3">
     <g id="line2d_4">
      <g>
       <use style="stroke:#000000;stroke-width:0.8;" x="231.459673" xlink:href="#m6e4058ac7e" y="307.584"/>
      </g>
     </g>
     <g id="text_3">
      <!-- −200 -->
      <defs>
       <path d="M 19.1875 8.296875 
L 53.609375 8.296875 
L 53.609375 0 
L 7.328125 0 
L 7.328125 8.296875 
Q 12.9375 14.109375 22.625 23.890625 
Q 32.328125 33.6875 34.8125 36.53125 
Q 39.546875 41.84375 41.421875 45.53125 
Q 43.3125 49.21875 43.3125 52.78125 
Q 43.3125 58.59375 39.234375 62.25 
Q 35.15625 65.921875 28.609375 65.921875 
Q 23.96875 65.921875 18.8125 64.3125 
Q 13.671875 62.703125 7.8125 59.421875 
L 7.8125 69.390625 
Q 13.765625 71.78125 18.9375 73 
Q 24.125 74.21875 28.421875 74.21875 
Q 39.75 74.21875 46.484375 68.546875 
Q 53.21875 62.890625 53.21875 53.421875 
Q 53.21875 48.921875 51.53125 44.890625 
Q 49.859375 40.875 45.40625 35.40625 
Q 44.1875 33.984375 37.640625 27.21875 
Q 31.109375 20.453125 19.1875 8.296875 
z
" id="DejaVuSans-50"/>
      </defs>
      <g transform="translate(217.726079 322.182437)scale(0.1 -0.1)">
       <use xlink:href="#DejaVuSans-8722"/>
       <use x="83.789062" xlink:href="#DejaVuSans-50"/>
       <use x="147.412109" xlink:href="#DejaVuSans-48"/>
       <use x="211.035156" xlink:href="#DejaVuSans-48"/>
      </g>
     </g>
    </g>
    <g id="xtick_4">
     <g id="line2d_5">
      <g>
       <use style="stroke:#000000;stroke-width:0.8;" x="304.023579" xlink:href="#m6e4058ac7e" y="307.584"/>
      </g>
     </g>
     <g id="text_4">
      <!-- 0 -->
      <g transform="translate(300.842329 322.182437)scale(0.1 -0.1)">
       <use xlink:href="#DejaVuSans-48"/>
      </g>
     </g>
    </g>
    <g id="xtick_5">
     <g id="line2d_6">
      <g>
       <use style="stroke:#000000;stroke-width:0.8;" x="376.587486" xlink:href="#m6e4058ac7e" y="307.584"/>
      </g>
     </g>
     <g id="text_5">
      <!-- 200 -->
      <g transform="translate(367.043736 322.182437)scale(0.1 -0.1)">
       <use xlink:href="#DejaVuSans-50"/>
       <use x="63.623047" xlink:href="#DejaVuSans-48"/>
       <use x="127.246094" xlink:href="#DejaVuSans-48"/>
      </g>
     </g>
    </g>
   </g>
   <g id="matplotlib.axis_2">
    <g id="ytick_1">
     <g id="line2d_7">
      <defs>
       <path d="M 0 0 
L -3.5 0 
" id="m1653d08b72" style="stroke:#000000;stroke-width:0.8;"/>
      </defs>
      <g>
       <use style="stroke:#000000;stroke-width:0.8;" x="57.6" xlink:href="#m1653d08b72" y="285.503275"/>
      </g>
     </g>
     <g id="text_6">
      <!-- −200 -->
      <g transform="translate(23.132812 289.302494)scale(0.1 -0.1)">
       <use xlink:href="#DejaVuSans-8722"/>
       <use x="83.789062" xlink:href="#DejaVuSans-50"/>
       <use x="147.412109" xlink:href="#DejaVuSans-48"/>
       <use x="211.035156" xlink:href="#DejaVuSans-48"/>
      </g>
     </g>
    </g>
    <g id="ytick_2">
     <g id="line2d_8">
      <g>
       <use style="stroke:#000000;stroke-width:0.8;" x="57.6" xlink:href="#m1653d08b72" y="238.405515"/>
      </g>
     </g>
     <g id="text_7">
      <!-- 0 -->
      <g transform="translate(44.2375 242.204733)scale(0.1 -0.1)">
       <use xlink:href="#DejaVuSans-48"/>
      </g>
     </g>
    </g>
    <g id="ytick_3">
     <g id="line2d_9">
      <g>
       <use style="stroke:#000000;stroke-width:0.8;" x="57.6" xlink:href="#m1653d08b72" y="191.307755"/>
      </g>
     </g>
     <g id="text_8">
      <!-- 200 -->
      <g transform="translate(31.5125 195.106973)scale(0.1 -0.1)">
       <use xlink:href="#DejaVuSans-50"/>
       <use x="63.623047" xlink:href="#DejaVuSans-48"/>
       <use x="127.246094" xlink:href="#DejaVuSans-48"/>
      </g>
     </g>
    </g>
    <g id="ytick_4">
     <g id="line2d_10">
      <g>
       <use style="stroke:#000000;stroke-width:0.8;" x="57.6" xlink:href="#m1653d08b72" y="144.209994"/>
      </g>
     </g>
     <g id="text_9">
      <!-- 400 -->
      <g transform="translate(31.5125 148.009213)scale(0.1 -0.1)">
       <use xlink:href="#DejaVuSans-52"/>
       <use x="63.623047" xlink:href="#DejaVuSans-48"/>
       <use x="127.246094" xlink:href="#DejaVuSans-48"/>
      </g>
     </g>
    </g>
    <g id="ytick_5">
     <g id="line2d_11">
      <g>
       <use style="stroke:#000000;stroke-width:0.8;" x="57.6" xlink:href="#m1653d08b72" y="97.112234"/>
      </g>
     </g>
     <g id="text_10">
      <!-- 600 -->
      <g transform="translate(31.5125 100.911453)scale(0.1 -0.1)">
       <use xlink:href="#DejaVuSans-54"/>
       <use x="63.623047" xlink:href="#DejaVuSans-48"/>
       <use x="127.246094" xlink:href="#DejaVuSans-48"/>
      </g>
     </g>
    </g>
    <g id="ytick_6">
     <g id="line2d_12">
      <g>
       <use style="stroke:#000000;stroke-width:0.8;" x="57.6" xlink:href="#m1653d08b72" y="50.014474"/>
      </g>
     </g>
     <g id="text_11">
      <!-- 800 -->
      <defs>
       <path d="M 31.78125 34.625 
Q 24.75 34.625 20.71875 30.859375 
Q 16.703125 27.09375 16.703125 20.515625 
Q 16.703125 13.921875 20.71875 10.15625 
Q 24.75 6.390625 31.78125 6.390625 
Q 38.8125 6.390625 42.859375 10.171875 
Q 46.921875 13.96875 46.921875 20.515625 
Q 46.921875 27.09375 42.890625 30.859375 
Q 38.875 34.625 31.78125 34.625 
z
M 21.921875 38.8125 
Q 15.578125 40.375 12.03125 44.71875 
Q 8.5 49.078125 8.5 55.328125 
Q 8.5 64.0625 14.71875 69.140625 
Q 20.953125 74.21875 31.78125 74.21875 
Q 42.671875 74.21875 48.875 69.140625 
Q 55.078125 64.0625 55.078125 55.328125 
Q 55.078125 49.078125 51.53125 44.71875 
Q 48 40.375 41.703125 38.8125 
Q 48.828125 37.15625 52.796875 32.3125 
Q 56.78125 27.484375 56.78125 20.515625 
Q 56.78125 9.90625 50.3125 4.234375 
Q 43.84375 -1.421875 31.78125 -1.421875 
Q 19.734375 -1.421875 13.25 4.234375 
Q 6.78125 9.90625 6.78125 20.515625 
Q 6.78125 27.484375 10.78125 32.3125 
Q 14.796875 37.15625 21.921875 38.8125 
z
M 18.3125 54.390625 
Q 18.3125 48.734375 21.84375 45.5625 
Q 25.390625 42.390625 31.78125 42.390625 
Q 38.140625 42.390625 41.71875 45.5625 
Q 45.3125 48.734375 45.3125 54.390625 
Q 45.3125 60.0625 41.71875 63.234375 
Q 38.140625 66.40625 31.78125 66.40625 
Q 25.390625 66.40625 21.84375 63.234375 
Q 18.3125 60.0625 18.3125 54.390625 
z
" id="DejaVuSans-56"/>
      </defs>
      <g transform="translate(31.5125 53.813693)scale(0.1 -0.1)">
       <use xlink:href="#DejaVuSans-56"/>
       <use x="63.623047" xlink:href="#DejaVuSans-48"/>
       <use x="127.246094" xlink:href="#DejaVuSans-48"/>
      </g>
     </g>
    </g>
   </g>
   <g id="line2d_13">
    <path clip-path="url(#p9f92cdc956)" d="M 81.796011 56.955386 
L 203.931083 164.57691 
L 143.704241 245.94043 
L 141.143309 252.728057 
L 369.940816 280.995341 
L 358.030124 290.593486 
L 91.298085 246.926373 
" style="fill:none;stroke:#ff0000;stroke-linecap:square;stroke-width:0.5;"/>
   </g>
   <g id="patch_3">
    <path d="M 57.6 307.584 
L 57.6 41.472 
" style="fill:none;stroke:#000000;stroke-linecap:square;stroke-linejoin:miter;stroke-width:0.8;"/>
   </g>
   <g id="patch_4">
    <path d="M 414.72 307.584 
L 414.72 41.472 
" style="fill:none;stroke:#000000;stroke-linecap:square;stroke-linejoin:miter;stroke-width:0.8;"/>
   </g>
   <g id="patch_5">
    <path d="M 57.6 307.584 
L 414.72 307.584 
" style="fill:none;stroke:#000000;stroke-linecap:square;stroke-linejoin:miter;stroke-width:0.8;"/>
   </g>
   <g id="patch_6">
    <path d="M 57.6 41.472 
L 414.72 41.472 
" style="fill:none;stroke:#000000;stroke-linecap:square;stroke-linejoin:miter;stroke-width:0.8;"/>
   </g>
   <g id="PathCollection_1">
    <defs>
     <path d="M 0 2.738613 
C 0.726289 2.738613 1.422928 2.450055 1.936492 1.936492 
C 2.450055 1.422928 2.738613 0.726289 2.738613 0 
C 2.738613 -0.726289 2.450055 -1.422928 1.936492 -1.936492 
C 1.422928 -2.450055 0.726289 -2.738613 0 -2.738613 
C -0.726289 -2.738613 -1.422928 -2.450055 -1.936492 -1.936492 
C -2.450055 -1.422928 -2.738613 -0.726289 -2.738613 0 
C -2.738613 0.726289 -2.450055 1.422928 -1.936492 1.936492 
C -1.422928 2.450055 -0.726289 2.738613 0 2.738613 
z
" id="m32f527d86d" style="stroke:#ff0000;"/>
    </defs>
    <g clip-path="url(#p9f92cdc956)">
     <use style="fill:#ff0000;stroke:#ff0000;" x="81.796011" xlink:href="#m32f527d86d" y="56.955386"/>
     <use style="fill:#ff0000;stroke:#ff0000;" x="203.931083" xlink:href="#m32f527d86d" y="164.57691"/>
     <use style="fill:#ff0000;stroke:#ff0000;" x="143.704241" xlink:href="#m32f527d86d" y="245.94043"/>
     <use style="fill:#ff0000;stroke:#ff0000;" x="141.143309" xlink:href="#m32f527d86d" y="252.728057"/>
     <use style="fill:#ff0000;stroke:#ff0000;" x="369.940816" xlink:href="#m32f527d86d" y="280.995341"/>
     <use style="fill:#ff0000;stroke:#ff0000;" x="358.030124" xlink:href="#m32f527d86d" y="290.593486"/>
     <use style="fill:#ff0000;stroke:#ff0000;" x="91.298085" xlink:href="#m32f527d86d" y="246.926373"/>
    </g>
   </g>
   <g id="text_12">
    <!-- (67) Subject: s7, Known = False, Degree = 2, Duration = 0.1 -->
    <defs>
     <path d="M 31 75.875 
Q 24.46875 64.65625 21.28125 53.65625 
Q 18.109375 42.671875 18.109375 31.390625 
Q 18.109375 20.125 21.3125 9.0625 
Q 24.515625 -2 31 -13.1875 
L 23.1875 -13.1875 
Q 15.875 -1.703125 12.234375 9.375 
Q 8.59375 20.453125 8.59375 31.390625 
Q 8.59375 42.28125 12.203125 53.3125 
Q 15.828125 64.359375 23.1875 75.875 
z
" id="DejaVuSans-40"/>
     <path d="M 8.203125 72.90625 
L 55.078125 72.90625 
L 55.078125 68.703125 
L 28.609375 0 
L 18.3125 0 
L 43.21875 64.59375 
L 8.203125 64.59375 
z
" id="DejaVuSans-55"/>
     <path d="M 8.015625 75.875 
L 15.828125 75.875 
Q 23.140625 64.359375 26.78125 53.3125 
Q 30.421875 42.28125 30.421875 31.390625 
Q 30.421875 20.453125 26.78125 9.375 
Q 23.140625 -1.703125 15.828125 -13.1875 
L 8.015625 -13.1875 
Q 14.5 -2 17.703125 9.0625 
Q 20.90625 20.125 20.90625 31.390625 
Q 20.90625 42.671875 17.703125 53.65625 
Q 14.5 64.65625 8.015625 75.875 
z
" id="DejaVuSans-41"/>
     <path id="DejaVuSans-32"/>
     <path d="M 53.515625 70.515625 
L 53.515625 60.890625 
Q 47.90625 63.578125 42.921875 64.890625 
Q 37.9375 66.21875 33.296875 66.21875 
Q 25.25 66.21875 20.875 63.09375 
Q 16.5 59.96875 16.5 54.203125 
Q 16.5 49.359375 19.40625 46.890625 
Q 22.3125 44.4375 30.421875 42.921875 
L 36.375 41.703125 
Q 47.40625 39.59375 52.65625 34.296875 
Q 57.90625 29 57.90625 20.125 
Q 57.90625 9.515625 50.796875 4.046875 
Q 43.703125 -1.421875 29.984375 -1.421875 
Q 24.8125 -1.421875 18.96875 -0.25 
Q 13.140625 0.921875 6.890625 3.21875 
L 6.890625 13.375 
Q 12.890625 10.015625 18.65625 8.296875 
Q 24.421875 6.59375 29.984375 6.59375 
Q 38.421875 6.59375 43.015625 9.90625 
Q 47.609375 13.234375 47.609375 19.390625 
Q 47.609375 24.75 44.3125 27.78125 
Q 41.015625 30.8125 33.5 32.328125 
L 27.484375 33.5 
Q 16.453125 35.6875 11.515625 40.375 
Q 6.59375 45.0625 6.59375 53.421875 
Q 6.59375 63.09375 13.40625 68.65625 
Q 20.21875 74.21875 32.171875 74.21875 
Q 37.3125 74.21875 42.625 73.28125 
Q 47.953125 72.359375 53.515625 70.515625 
z
" id="DejaVuSans-83"/>
     <path d="M 8.5 21.578125 
L 8.5 54.6875 
L 17.484375 54.6875 
L 17.484375 21.921875 
Q 17.484375 14.15625 20.5 10.265625 
Q 23.53125 6.390625 29.59375 6.390625 
Q 36.859375 6.390625 41.078125 11.03125 
Q 45.3125 15.671875 45.3125 23.6875 
L 45.3125 54.6875 
L 54.296875 54.6875 
L 54.296875 0 
L 45.3125 0 
L 45.3125 8.40625 
Q 42.046875 3.421875 37.71875 1 
Q 33.40625 -1.421875 27.6875 -1.421875 
Q 18.265625 -1.421875 13.375 4.4375 
Q 8.5 10.296875 8.5 21.578125 
z
M 31.109375 56 
z
" id="DejaVuSans-117"/>
     <path d="M 48.6875 27.296875 
Q 48.6875 37.203125 44.609375 42.84375 
Q 40.53125 48.484375 33.40625 48.484375 
Q 26.265625 48.484375 22.1875 42.84375 
Q 18.109375 37.203125 18.109375 27.296875 
Q 18.109375 17.390625 22.1875 11.75 
Q 26.265625 6.109375 33.40625 6.109375 
Q 40.53125 6.109375 44.609375 11.75 
Q 48.6875 17.390625 48.6875 27.296875 
z
M 18.109375 46.390625 
Q 20.953125 51.265625 25.265625 53.625 
Q 29.59375 56 35.59375 56 
Q 45.5625 56 51.78125 48.09375 
Q 58.015625 40.1875 58.015625 27.296875 
Q 58.015625 14.40625 51.78125 6.484375 
Q 45.5625 -1.421875 35.59375 -1.421875 
Q 29.59375 -1.421875 25.265625 0.953125 
Q 20.953125 3.328125 18.109375 8.203125 
L 18.109375 0 
L 9.078125 0 
L 9.078125 75.984375 
L 18.109375 75.984375 
z
" id="DejaVuSans-98"/>
     <path d="M 9.421875 54.6875 
L 18.40625 54.6875 
L 18.40625 -0.984375 
Q 18.40625 -11.421875 14.421875 -16.109375 
Q 10.453125 -20.796875 1.609375 -20.796875 
L -1.8125 -20.796875 
L -1.8125 -13.1875 
L 0.59375 -13.1875 
Q 5.71875 -13.1875 7.5625 -10.8125 
Q 9.421875 -8.453125 9.421875 -0.984375 
z
M 9.421875 75.984375 
L 18.40625 75.984375 
L 18.40625 64.59375 
L 9.421875 64.59375 
z
" id="DejaVuSans-106"/>
     <path d="M 56.203125 29.59375 
L 56.203125 25.203125 
L 14.890625 25.203125 
Q 15.484375 15.921875 20.484375 11.0625 
Q 25.484375 6.203125 34.421875 6.203125 
Q 39.59375 6.203125 44.453125 7.46875 
Q 49.3125 8.734375 54.109375 11.28125 
L 54.109375 2.78125 
Q 49.265625 0.734375 44.1875 -0.34375 
Q 39.109375 -1.421875 33.890625 -1.421875 
Q 20.796875 -1.421875 13.15625 6.1875 
Q 5.515625 13.8125 5.515625 26.8125 
Q 5.515625 40.234375 12.765625 48.109375 
Q 20.015625 56 32.328125 56 
Q 43.359375 56 49.78125 48.890625 
Q 56.203125 41.796875 56.203125 29.59375 
z
M 47.21875 32.234375 
Q 47.125 39.59375 43.09375 43.984375 
Q 39.0625 48.390625 32.421875 48.390625 
Q 24.90625 48.390625 20.390625 44.140625 
Q 15.875 39.890625 15.1875 32.171875 
z
" id="DejaVuSans-101"/>
     <path d="M 48.78125 52.59375 
L 48.78125 44.1875 
Q 44.96875 46.296875 41.140625 47.34375 
Q 37.3125 48.390625 33.40625 48.390625 
Q 24.65625 48.390625 19.8125 42.84375 
Q 14.984375 37.3125 14.984375 27.296875 
Q 14.984375 17.28125 19.8125 11.734375 
Q 24.65625 6.203125 33.40625 6.203125 
Q 37.3125 6.203125 41.140625 7.25 
Q 44.96875 8.296875 48.78125 10.40625 
L 48.78125 2.09375 
Q 45.015625 0.34375 40.984375 -0.53125 
Q 36.96875 -1.421875 32.421875 -1.421875 
Q 20.0625 -1.421875 12.78125 6.34375 
Q 5.515625 14.109375 5.515625 27.296875 
Q 5.515625 40.671875 12.859375 48.328125 
Q 20.21875 56 33.015625 56 
Q 37.15625 56 41.109375 55.140625 
Q 45.0625 54.296875 48.78125 52.59375 
z
" id="DejaVuSans-99"/>
     <path d="M 18.3125 70.21875 
L 18.3125 54.6875 
L 36.8125 54.6875 
L 36.8125 47.703125 
L 18.3125 47.703125 
L 18.3125 18.015625 
Q 18.3125 11.328125 20.140625 9.421875 
Q 21.96875 7.515625 27.59375 7.515625 
L 36.8125 7.515625 
L 36.8125 0 
L 27.59375 0 
Q 17.1875 0 13.234375 3.875 
Q 9.28125 7.765625 9.28125 18.015625 
L 9.28125 47.703125 
L 2.6875 47.703125 
L 2.6875 54.6875 
L 9.28125 54.6875 
L 9.28125 70.21875 
z
" id="DejaVuSans-116"/>
     <path d="M 11.71875 12.40625 
L 22.015625 12.40625 
L 22.015625 0 
L 11.71875 0 
z
M 11.71875 51.703125 
L 22.015625 51.703125 
L 22.015625 39.3125 
L 11.71875 39.3125 
z
" id="DejaVuSans-58"/>
     <path d="M 44.28125 53.078125 
L 44.28125 44.578125 
Q 40.484375 46.53125 36.375 47.5 
Q 32.28125 48.484375 27.875 48.484375 
Q 21.1875 48.484375 17.84375 46.4375 
Q 14.5 44.390625 14.5 40.28125 
Q 14.5 37.15625 16.890625 35.375 
Q 19.28125 33.59375 26.515625 31.984375 
L 29.59375 31.296875 
Q 39.15625 29.25 43.1875 25.515625 
Q 47.21875 21.78125 47.21875 15.09375 
Q 47.21875 7.46875 41.1875 3.015625 
Q 35.15625 -1.421875 24.609375 -1.421875 
Q 20.21875 -1.421875 15.453125 -0.5625 
Q 10.6875 0.296875 5.421875 2 
L 5.421875 11.28125 
Q 10.40625 8.6875 15.234375 7.390625 
Q 20.0625 6.109375 24.8125 6.109375 
Q 31.15625 6.109375 34.5625 8.28125 
Q 37.984375 10.453125 37.984375 14.40625 
Q 37.984375 18.0625 35.515625 20.015625 
Q 33.0625 21.96875 24.703125 23.78125 
L 21.578125 24.515625 
Q 13.234375 26.265625 9.515625 29.90625 
Q 5.8125 33.546875 5.8125 39.890625 
Q 5.8125 47.609375 11.28125 51.796875 
Q 16.75 56 26.8125 56 
Q 31.78125 56 36.171875 55.265625 
Q 40.578125 54.546875 44.28125 53.078125 
z
" id="DejaVuSans-115"/>
     <path d="M 11.71875 12.40625 
L 22.015625 12.40625 
L 22.015625 4 
L 14.015625 -11.625 
L 7.71875 -11.625 
L 11.71875 4 
z
" id="DejaVuSans-44"/>
     <path d="M 9.8125 72.90625 
L 19.671875 72.90625 
L 19.671875 42.09375 
L 52.390625 72.90625 
L 65.09375 72.90625 
L 28.90625 38.921875 
L 67.671875 0 
L 54.6875 0 
L 19.671875 35.109375 
L 19.671875 0 
L 9.8125 0 
z
" id="DejaVuSans-75"/>
     <path d="M 54.890625 33.015625 
L 54.890625 0 
L 45.90625 0 
L 45.90625 32.71875 
Q 45.90625 40.484375 42.875 44.328125 
Q 39.84375 48.1875 33.796875 48.1875 
Q 26.515625 48.1875 22.3125 43.546875 
Q 18.109375 38.921875 18.109375 30.90625 
L 18.109375 0 
L 9.078125 0 
L 9.078125 54.6875 
L 18.109375 54.6875 
L 18.109375 46.1875 
Q 21.34375 51.125 25.703125 53.5625 
Q 30.078125 56 35.796875 56 
Q 45.21875 56 50.046875 50.171875 
Q 54.890625 44.34375 54.890625 33.015625 
z
" id="DejaVuSans-110"/>
     <path d="M 30.609375 48.390625 
Q 23.390625 48.390625 19.1875 42.75 
Q 14.984375 37.109375 14.984375 27.296875 
Q 14.984375 17.484375 19.15625 11.84375 
Q 23.34375 6.203125 30.609375 6.203125 
Q 37.796875 6.203125 41.984375 11.859375 
Q 46.1875 17.53125 46.1875 27.296875 
Q 46.1875 37.015625 41.984375 42.703125 
Q 37.796875 48.390625 30.609375 48.390625 
z
M 30.609375 56 
Q 42.328125 56 49.015625 48.375 
Q 55.71875 40.765625 55.71875 27.296875 
Q 55.71875 13.875 49.015625 6.21875 
Q 42.328125 -1.421875 30.609375 -1.421875 
Q 18.84375 -1.421875 12.171875 6.21875 
Q 5.515625 13.875 5.515625 27.296875 
Q 5.515625 40.765625 12.171875 48.375 
Q 18.84375 56 30.609375 56 
z
" id="DejaVuSans-111"/>
     <path d="M 4.203125 54.6875 
L 13.1875 54.6875 
L 24.421875 12.015625 
L 35.59375 54.6875 
L 46.1875 54.6875 
L 57.421875 12.015625 
L 68.609375 54.6875 
L 77.59375 54.6875 
L 63.28125 0 
L 52.6875 0 
L 40.921875 44.828125 
L 29.109375 0 
L 18.5 0 
z
" id="DejaVuSans-119"/>
     <path d="M 10.59375 45.40625 
L 73.1875 45.40625 
L 73.1875 37.203125 
L 10.59375 37.203125 
z
M 10.59375 25.484375 
L 73.1875 25.484375 
L 73.1875 17.1875 
L 10.59375 17.1875 
z
" id="DejaVuSans-61"/>
     <path d="M 9.8125 72.90625 
L 51.703125 72.90625 
L 51.703125 64.59375 
L 19.671875 64.59375 
L 19.671875 43.109375 
L 48.578125 43.109375 
L 48.578125 34.8125 
L 19.671875 34.8125 
L 19.671875 0 
L 9.8125 0 
z
" id="DejaVuSans-70"/>
     <path d="M 34.28125 27.484375 
Q 23.390625 27.484375 19.1875 25 
Q 14.984375 22.515625 14.984375 16.5 
Q 14.984375 11.71875 18.140625 8.90625 
Q 21.296875 6.109375 26.703125 6.109375 
Q 34.1875 6.109375 38.703125 11.40625 
Q 43.21875 16.703125 43.21875 25.484375 
L 43.21875 27.484375 
z
M 52.203125 31.203125 
L 52.203125 0 
L 43.21875 0 
L 43.21875 8.296875 
Q 40.140625 3.328125 35.546875 0.953125 
Q 30.953125 -1.421875 24.3125 -1.421875 
Q 15.921875 -1.421875 10.953125 3.296875 
Q 6 8.015625 6 15.921875 
Q 6 25.140625 12.171875 29.828125 
Q 18.359375 34.515625 30.609375 34.515625 
L 43.21875 34.515625 
L 43.21875 35.40625 
Q 43.21875 41.609375 39.140625 45 
Q 35.0625 48.390625 27.6875 48.390625 
Q 23 48.390625 18.546875 47.265625 
Q 14.109375 46.140625 10.015625 43.890625 
L 10.015625 52.203125 
Q 14.9375 54.109375 19.578125 55.046875 
Q 24.21875 56 28.609375 56 
Q 40.484375 56 46.34375 49.84375 
Q 52.203125 43.703125 52.203125 31.203125 
z
" id="DejaVuSans-97"/>
     <path d="M 9.421875 75.984375 
L 18.40625 75.984375 
L 18.40625 0 
L 9.421875 0 
z
" id="DejaVuSans-108"/>
     <path d="M 19.671875 64.796875 
L 19.671875 8.109375 
L 31.59375 8.109375 
Q 46.6875 8.109375 53.6875 14.9375 
Q 60.6875 21.78125 60.6875 36.53125 
Q 60.6875 51.171875 53.6875 57.984375 
Q 46.6875 64.796875 31.59375 64.796875 
z
M 9.8125 72.90625 
L 30.078125 72.90625 
Q 51.265625 72.90625 61.171875 64.09375 
Q 71.09375 55.28125 71.09375 36.53125 
Q 71.09375 17.671875 61.125 8.828125 
Q 51.171875 0 30.078125 0 
L 9.8125 0 
z
" id="DejaVuSans-68"/>
     <path d="M 45.40625 27.984375 
Q 45.40625 37.75 41.375 43.109375 
Q 37.359375 48.484375 30.078125 48.484375 
Q 22.859375 48.484375 18.828125 43.109375 
Q 14.796875 37.75 14.796875 27.984375 
Q 14.796875 18.265625 18.828125 12.890625 
Q 22.859375 7.515625 30.078125 7.515625 
Q 37.359375 7.515625 41.375 12.890625 
Q 45.40625 18.265625 45.40625 27.984375 
z
M 54.390625 6.78125 
Q 54.390625 -7.171875 48.1875 -13.984375 
Q 42 -20.796875 29.203125 -20.796875 
Q 24.46875 -20.796875 20.265625 -20.09375 
Q 16.0625 -19.390625 12.109375 -17.921875 
L 12.109375 -9.1875 
Q 16.0625 -11.328125 19.921875 -12.34375 
Q 23.78125 -13.375 27.78125 -13.375 
Q 36.625 -13.375 41.015625 -8.765625 
Q 45.40625 -4.15625 45.40625 5.171875 
L 45.40625 9.625 
Q 42.625 4.78125 38.28125 2.390625 
Q 33.9375 0 27.875 0 
Q 17.828125 0 11.671875 7.65625 
Q 5.515625 15.328125 5.515625 27.984375 
Q 5.515625 40.671875 11.671875 48.328125 
Q 17.828125 56 27.875 56 
Q 33.9375 56 38.28125 53.609375 
Q 42.625 51.21875 45.40625 46.390625 
L 45.40625 54.6875 
L 54.390625 54.6875 
z
" id="DejaVuSans-103"/>
     <path d="M 41.109375 46.296875 
Q 39.59375 47.171875 37.8125 47.578125 
Q 36.03125 48 33.890625 48 
Q 26.265625 48 22.1875 43.046875 
Q 18.109375 38.09375 18.109375 28.8125 
L 18.109375 0 
L 9.078125 0 
L 9.078125 54.6875 
L 18.109375 54.6875 
L 18.109375 46.1875 
Q 20.953125 51.171875 25.484375 53.578125 
Q 30.03125 56 36.53125 56 
Q 37.453125 56 38.578125 55.875 
Q 39.703125 55.765625 41.0625 55.515625 
z
" id="DejaVuSans-114"/>
     <path d="M 9.421875 54.6875 
L 18.40625 54.6875 
L 18.40625 0 
L 9.421875 0 
z
M 9.421875 75.984375 
L 18.40625 75.984375 
L 18.40625 64.59375 
L 9.421875 64.59375 
z
" id="DejaVuSans-105"/>
     <path d="M 10.6875 12.40625 
L 21 12.40625 
L 21 0 
L 10.6875 0 
z
" id="DejaVuSans-46"/>
     <path d="M 12.40625 8.296875 
L 28.515625 8.296875 
L 28.515625 63.921875 
L 10.984375 60.40625 
L 10.984375 69.390625 
L 28.421875 72.90625 
L 38.28125 72.90625 
L 38.28125 8.296875 
L 54.390625 8.296875 
L 54.390625 0 
L 12.40625 0 
z
" id="DejaVuSans-49"/>
    </defs>
    <g transform="translate(53.559375 35.472)scale(0.12 -0.12)">
     <use xlink:href="#DejaVuSans-40"/>
     <use x="39.013672" xlink:href="#DejaVuSans-54"/>
     <use x="102.636719" xlink:href="#DejaVuSans-55"/>
     <use x="166.259766" xlink:href="#DejaVuSans-41"/>
     <use x="205.273438" xlink:href="#DejaVuSans-32"/>
     <use x="237.060547" xlink:href="#DejaVuSans-83"/>
     <use x="300.537109" xlink:href="#DejaVuSans-117"/>
     <use x="363.916016" xlink:href="#DejaVuSans-98"/>
     <use x="427.392578" xlink:href="#DejaVuSans-106"/>
     <use x="455.175781" xlink:href="#DejaVuSans-101"/>
     <use x="516.699219" xlink:href="#DejaVuSans-99"/>
     <use x="571.679688" xlink:href="#DejaVuSans-116"/>
     <use x="610.888672" xlink:href="#DejaVuSans-58"/>
     <use x="644.580078" xlink:href="#DejaVuSans-32"/>
     <use x="676.367188" xlink:href="#DejaVuSans-115"/>
     <use x="728.466797" xlink:href="#DejaVuSans-55"/>
     <use x="792.089844" xlink:href="#DejaVuSans-44"/>
     <use x="823.876953" xlink:href="#DejaVuSans-32"/>
     <use x="855.664062" xlink:href="#DejaVuSans-75"/>
     <use x="921.240234" xlink:href="#DejaVuSans-110"/>
     <use x="984.619141" xlink:href="#DejaVuSans-111"/>
     <use x="1045.800781" xlink:href="#DejaVuSans-119"/>
     <use x="1127.587891" xlink:href="#DejaVuSans-110"/>
     <use x="1190.966797" xlink:href="#DejaVuSans-32"/>
     <use x="1222.753906" xlink:href="#DejaVuSans-61"/>
     <use x="1306.542969" xlink:href="#DejaVuSans-32"/>
     <use x="1338.330078" xlink:href="#DejaVuSans-70"/>
     <use x="1395.708984" xlink:href="#DejaVuSans-97"/>
     <use x="1456.988281" xlink:href="#DejaVuSans-108"/>
     <use x="1484.771484" xlink:href="#DejaVuSans-115"/>
     <use x="1536.871094" xlink:href="#DejaVuSans-101"/>
     <use x="1598.394531" xlink:href="#DejaVuSans-44"/>
     <use x="1630.181641" xlink:href="#DejaVuSans-32"/>
     <use x="1661.96875" xlink:href="#DejaVuSans-68"/>
     <use x="1738.970703" xlink:href="#DejaVuSans-101"/>
     <use x="1800.494141" xlink:href="#DejaVuSans-103"/>
     <use x="1863.970703" xlink:href="#DejaVuSans-114"/>
     <use x="1905.052734" xlink:href="#DejaVuSans-101"/>
     <use x="1966.576172" xlink:href="#DejaVuSans-101"/>
     <use x="2028.099609" xlink:href="#DejaVuSans-32"/>
     <use x="2059.886719" xlink:href="#DejaVuSans-61"/>
     <use x="2143.675781" xlink:href="#DejaVuSans-32"/>
     <use x="2175.462891" xlink:href="#DejaVuSans-50"/>
     <use x="2239.085938" xlink:href="#DejaVuSans-44"/>
     <use x="2270.873047" xlink:href="#DejaVuSans-32"/>
     <use x="2302.660156" xlink:href="#DejaVuSans-68"/>
     <use x="2379.662109" xlink:href="#DejaVuSans-117"/>
     <use x="2443.041016" xlink:href="#DejaVuSans-114"/>
     <use x="2484.154297" xlink:href="#DejaVuSans-97"/>
     <use x="2545.433594" xlink:href="#DejaVuSans-116"/>
     <use x="2584.642578" xlink:href="#DejaVuSans-105"/>
     <use x="2612.425781" xlink:href="#DejaVuSans-111"/>
     <use x="2673.607422" xlink:href="#DejaVuSans-110"/>
     <use x="2736.986328" xlink:href="#DejaVuSans-32"/>
     <use x="2768.773438" xlink:href="#DejaVuSans-61"/>
     <use x="2852.5625" xlink:href="#DejaVuSans-32"/>
     <use x="2884.349609" xlink:href="#DejaVuSans-48"/>
     <use x="2947.972656" xlink:href="#DejaVuSans-46"/>
     <use x="2979.759766" xlink:href="#DejaVuSans-49"/>
    </g>
   </g>
  </g>
 </g>
 <defs>
  <clipPath id="p9f92cdc956">
   <rect height="266.112" width="357.12" x="57.6" y="41.472"/>
  </clipPath>
 </defs>
</svg>
