<?xml version="1.0" encoding="utf-8" standalone="no"?>
<!DOCTYPE svg PUBLIC "-//W3C//DTD SVG 1.1//EN"
  "http://www.w3.org/Graphics/SVG/1.1/DTD/svg11.dtd">
<!-- Created with matplotlib (https://matplotlib.org/) -->
<svg height="345.6pt" version="1.1" viewBox="0 0 460.8 345.6" width="460.8pt" xmlns="http://www.w3.org/2000/svg" xmlns:xlink="http://www.w3.org/1999/xlink">
 <defs>
  <style type="text/css">
*{stroke-linecap:butt;stroke-linejoin:round;}
  </style>
 </defs>
 <g id="figure_1">
  <g id="patch_1">
   <path d="M 0 345.6 
L 460.8 345.6 
L 460.8 0 
L 0 0 
z
" style="fill:#ffffff;"/>
  </g>
  <g id="axes_1">
   <g id="patch_2">
    <path d="M 57.6 307.584 
L 414.72 307.584 
L 414.72 41.472 
L 57.6 41.472 
z
" style="fill:#ffffff;"/>
   </g>
   <g id="line2d_1">
    <path clip-path="url(#p6a2efadb21)" d="M 397.793695 294.276939 
L 397.881146 294.57908 
L 397.706244 294.731399 
L 397.534358 294.731399 
L 397.706244 294.731399 
L 398.140484 294.57908 
L 397.881146 294.731399 
L 397.965582 294.881221 
L 397.881146 295.03354 
L 397.706244 295.03354 
L 397.706244 294.881221 
L 397.793695 295.335681 
L 397.881146 295.488 
L 397.881146 295.335681 
L 398.053033 295.03354 
L 398.053033 294.731399 
L 397.881146 294.57908 
L 397.706244 294.57908 
L 397.706244 295.335681 
L 397.793695 294.881221 
L 397.965582 294.57908 
L 397.793695 294.731399 
L 397.706244 294.426761 
L 397.793695 294.426761 
L 398.140484 294.426761 
L 398.227935 294.57908 
L 398.053033 294.731399 
L 397.793695 294.731399 
L 397.965582 294.731399 
L 397.965582 294.57908 
L 397.881146 295.335681 
L 398.053033 295.335681 
L 398.227935 295.335681 
L 398.140484 295.03354 
L 397.965582 294.881221 
L 397.965582 295.185859 
L 397.706244 295.335681 
L 397.793695 295.03354 
L 397.965582 295.03354 
L 398.140484 294.731399 
L 398.053033 294.12462 
L 397.881146 293.972301 
L 397.706244 294.426761 
L 397.618793 295.185859 
L 397.793695 295.03354 
L 397.965582 294.731399 
L 397.881146 294.731399 
L 397.793695 294.731399 
L 397.706244 294.881221 
L 397.618793 294.731399 
L 397.793695 294.426761 
L 397.534358 294.881221 
L 397.534358 295.185859 
L 397.446907 294.276939 
L 397.706244 294.426761 
L 397.881146 294.731399 
L 397.793695 294.881221 
L 397.534358 295.03354 
L 397.446907 295.335681 
L 397.534358 294.881221 
L 397.706244 294.881221 
L 397.618793 293.972301 
L 397.534358 293.972301 
L 397.446907 294.12462 
L 397.534358 294.731399 
L 397.793695 295.03354 
L 398.053033 295.03354 
L 397.965582 294.731399 
L 397.793695 294.731399 
L 397.793695 294.881221 
L 397.793695 294.57908 
L 397.618793 294.57908 
L 397.446907 294.426761 
L 397.359456 294.12462 
L 397.446907 294.12462 
L 397.881146 294.881221 
L 397.793695 294.731399 
L 397.881146 293.822479 
L 397.793695 293.822479 
L 397.793695 295.185859 
L 397.965582 295.335681 
L 397.965582 295.335681 
L 397.965582 295.488 
L 398.053033 294.276939 
L 397.881146 294.276939 
L 397.618793 293.822479 
L 397.618793 293.972301 
L 397.706244 294.426761 
L 397.618793 294.426761 
L 397.618793 294.426761 
L 397.965582 293.822479 
L 397.881146 293.67016 
L 397.793695 294.12462 
L 397.965582 293.972301 
L 397.965582 293.972301 
L 397.793695 293.972301 
L 397.793695 294.276939 
L 398.053033 294.731399 
L 397.793695 293.822479 
L 397.618793 293.972301 
L 397.534358 294.276939 
L 397.618793 293.822479 
L 397.706244 293.972301 
L 397.793695 294.12462 
L 397.881146 293.822479 
L 397.881146 293.822479 
L 397.793695 293.822479 
L 397.881146 293.67016 
L 397.881146 293.368019 
L 398.053033 292.913559 
L 398.487273 292.4591 
L 398.053033 292.761241 
L 398.140484 292.761241 
L 398.227935 293.063381 
L 398.227935 293.063381 
L 398.053033 292.913559 
L 398.140484 292.913559 
L 398.227935 292.913559 
L 398.053033 292.154462 
L 397.881146 292.154462 
L 397.706244 292.00464 
L 397.706244 292.00464 
L 397.706244 292.761241 
L 397.706244 292.608922 
L 397.446907 291.852321 
L 397.534358 292.00464 
L 397.706244 291.852321 
L 398.227935 291.852321 
L 398.140484 292.761241 
L 398.053033 292.913559 
L 397.965582 291.852321 
L 398.140484 292.00464 
L 398.227935 291.852321 
L 398.053033 291.397861 
L 397.881146 291.397861 
L 396.925216 291.700002 
L 395.538061 290.943401 
L 394.410244 290.1868 
L 392.938653 289.73234 
L 388.342949 289.125561 
L 384.959497 288.216641 
L 380.969919 286.700943 
L 376.636568 284.733281 
L 372.212751 282.460981 
L 347.584721 268.522546 
L 340.04282 263.523487 
L 332.410453 257.615508 
L 324.781101 251.255566 
L 317.323636 244.893127 
L 309.866171 238.83283 
L 302.408706 232.924851 
L 295.123128 227.623651 
L 280.989226 218.079992 
L 266.942775 208.686156 
L 260.438225 204.144054 
L 254.28348 200.203737 
L 248.297605 196.568057 
L 237.025464 189.296699 
L 231.564296 185.511197 
L 226.187563 182.02534 
L 220.81083 178.694299 
L 215.434097 175.058619 
L 206.070802 168.089402 
L 201.993773 165.514961 
L 197.91976 163.090343 
L 187.859871 156.273444 
L 185.43235 154.455604 
L 183.610956 152.942403 
L 182.57059 151.881164 
L 182.13635 150.972244 
L 181.964463 150.215643 
L 182.13635 150.063324 
L 182.57059 149.911005 
L 183.264167 150.063324 
L 184.129631 150.517784 
L 185.173013 150.517784 
L 186.038477 150.215643 
L 186.819505 150.063324 
L 187.425632 150.063324 
L 188.031758 150.365465 
L 188.465998 150.365465 
L 188.900237 149.911005 
L 189.07514 149.456545 
L 188.900237 149.608864 
L 188.378547 150.819925 
L 188.119209 151.124563 
L 187.77242 151.124563 
L 187.253745 151.274385 
L 186.732054 151.579023 
L 186.297814 152.033483 
L 185.86659 152.183305 
L 184.651322 151.728845 
L 184.47642 151.579023 
L 184.563871 150.517784 
L 184.651322 150.517784 
L 184.738773 150.670103 
L 184.738773 150.670103 
L 184.826224 150.215643 
L 184.998111 150.063324 
L 185.173013 148.547625 
L 185.779139 149.002085 
L 185.691688 149.306723 
L 185.344899 149.306723 
L 185.085562 149.002085 
L 185.085562 148.699944 
L 184.910659 149.154404 
L 184.651322 148.699944 
L 184.826224 148.397803 
L 185.085562 147.488884 
L 185.257448 147.488884 
L 185.344899 147.638705 
L 184.910659 148.397803 
L 184.910659 148.245484 
L 185.085562 147.791024 
L 185.257448 147.638705 
L 184.910659 147.034424 
L 185.085562 147.488884 
L 184.998111 147.943343 
L 184.826224 147.943343 
L 184.738773 148.397803 
L 184.826224 147.488884 
L 184.738773 148.093165 
L 184.651322 147.943343 
L 184.738773 148.093165 
L 184.47642 148.093165 
L 184.563871 147.638705 
L 184.651322 147.638705 
L 184.826224 147.791024 
L 184.826224 147.791024 
L 184.47642 147.184246 
L 184.826224 147.638705 
L 185.173013 147.638705 
L 185.344899 147.488884 
L 184.910659 147.791024 
L 184.826224 147.791024 
L 184.738773 147.638705 
L 184.738773 147.034424 
L 184.738773 147.488884 
L 184.563871 147.791024 
L 184.47642 146.882105 
L 184.045195 146.275326 
L 182.483138 146.275326 
L 179.708829 145.973185 
L 177.368759 145.671044 
L 174.591434 145.064265 
L 171.470335 144.609805 
L 168.089899 144.307664 
L 164.534561 144.307664 
L 156.555405 144.911946 
L 152.047152 145.064265 
L 147.623334 145.671044 
L 143.46187 146.579964 
L 139.212954 147.336565 
L 134.876587 147.791024 
L 130.627672 148.397803 
L 126.553658 149.306723 
L 122.738982 150.670103 
L 119.008742 151.426704 
L 115.281517 152.033483 
L 111.638728 152.487943 
L 108.08339 153.092224 
L 99.585559 153.851322 
L 96.8987 153.851322 
L 94.208826 153.699003 
L 89.441235 152.790084 
L 87.357487 152.335624 
L 81.896319 151.579023 
L 80.421713 151.426704 
L 79.122009 151.124563 
L 77.906741 150.972244 
L 75.47922 149.911005 
L 74.873093 149.761183 
L 74.263951 149.761183 
L 73.832727 149.608864 
L 73.832727 149.761183 
L 74.179516 150.215643 
L 74.438854 150.063324 
L 75.04498 150.670103 
L 76.172797 151.728845 
L 76.778924 151.579023 
L 76.866375 151.728845 
L 76.953826 152.637765 
L 76.691472 152.790084 
L 76.432135 152.790084 
L 76.172797 153.244543 
L 76.172797 153.092224 
L 76.432135 153.396862 
L 76.260248 153.244543 
L 76.085346 153.396862 
L 75.997895 153.396862 
L 75.826008 153.546684 
L 75.738557 153.396862 
L 75.91346 152.942403 
L 76.432135 152.942403 
L 76.519586 153.092224 
L 76.519586 152.942403 
L 76.519586 152.790084 
L 76.432135 152.942403 
L 76.344684 152.790084 
L 76.260248 153.092224 
L 76.344684 153.546684 
L 76.607037 154.001144 
L 76.778924 153.851322 
L 76.866375 153.396862 
L 76.691472 153.092224 
L 76.432135 153.092224 
L 75.997895 153.546684 
L 76.172797 153.546684 
L 76.344684 153.546684 
L 76.344684 153.546684 
L 76.260248 152.942403 
L 76.432135 152.942403 
L 76.519586 153.396862 
L 76.344684 154.153463 
L 76.432135 154.001144 
L 76.172797 153.092224 
L 76.432135 152.790084 
L 76.607037 152.790084 
L 76.607037 152.790084 
L 76.519586 153.092224 
L 76.172797 153.092224 
L 76.085346 153.546684 
L 75.997895 153.851322 
L 76.085346 154.001144 
L 76.260248 153.851322 
L 76.344684 153.546684 
L 76.260248 153.244543 
L 76.260248 153.546684 
L 76.260248 153.851322 
L 76.172797 153.546684 
L 75.997895 154.455604 
L 76.085346 154.153463 
L 76.172797 154.001144 
L 76.172797 153.699003 
L 75.997895 153.699003 
L 75.91346 153.851322 
L 75.826008 153.244543 
L 75.997895 153.546684 
L 76.260248 153.546684 
L 76.344684 153.851322 
L 76.344684 153.851322 
L 76.172797 153.699003 
L 75.91346 154.001144 
L 75.91346 153.851322 
L 75.826008 153.546684 
L 75.826008 153.546684 
L 75.91346 153.396862 
L 76.172797 153.546684 
L 76.260248 154.001144 
L 76.260248 153.546684 
L 76.260248 153.244543 
L 76.172797 153.851322 
L 75.997895 153.699003 
L 75.91346 153.244543 
L 76.172797 154.305782 
L 75.91346 153.851322 
L 75.826008 153.546684 
L 76.085346 153.244543 
L 76.172797 153.396862 
L 76.172797 153.851322 
L 75.997895 153.851322 
L 75.997895 153.546684 
L 76.085346 153.546684 
L 76.172797 153.546684 
L 76.432135 153.092224 
L 76.432135 153.244543 
L 76.260248 154.305782 
L 76.085346 154.153463 
L 76.172797 153.851322 
L 76.085346 153.851322 
L 76.260248 153.851322 
L 76.260248 155.062383 
L 76.519586 155.364524 
L 76.344684 155.062383 
L 76.519586 155.062383 
L 76.432135 155.364524 
L 76.260248 155.364524 
L 76.260248 155.364524 
L 76.344684 155.516843 
L 76.344684 156.425763 
L 76.432135 155.818984 
L 76.519586 155.516843 
L 76.953826 155.516843 
L 76.691472 156.123622 
L 76.519586 156.273444 
L 76.607037 156.727904 
L 76.866375 156.123622 
L 76.778924 155.516843 
L 76.691472 155.669162 
L 76.691472 155.516843 
L 76.607037 155.062383 
L 76.607037 155.062383 
L 76.866375 155.669162 
L 77.213163 155.971303 
L 77.041277 155.818984 
L 77.041277 155.971303 
L 76.953826 155.818984 
L 76.778924 155.516843 
L 76.866375 155.516843 
L 77.041277 155.669162 
L 77.213163 155.516843 
L 77.041277 155.818984 
L 76.691472 155.971303 
L 78.340981 155.062383 
L 80.943404 154.305782 
L 83.108571 153.851322 
L 89.52567 153.244543 
L 98.37029 151.274385 
L 108.342727 149.608864 
L 119.702319 146.125504 
L 125.685179 145.064265 
L 138.34749 144.155345 
L 150.659997 142.944284 
L 156.642856 142.639646 
L 162.538264 143.094106 
L 168.436688 143.853204 
L 174.244645 144.457486 
L 179.880715 144.911946 
L 185.43235 145.216584 
L 195.923463 146.125504 
L 205.46166 147.943343 
L 209.972929 149.002085 
L 214.393731 150.215643 
L 218.555196 150.972244 
L 222.544774 151.124563 
L 226.275014 151.124563 
L 229.742901 151.728845 
L 232.863999 152.487943 
L 235.813211 152.942403 
L 238.412619 153.092224 
L 240.755704 152.487943 
L 242.748986 151.728845 
L 244.395478 150.972244 
L 245.870084 150.517784 
L 247.172803 150.517784 
L 248.125718 150.819925 
L 248.472507 150.670103 
L 248.385056 150.365465 
L 247.257239 149.002085 
L 246.391775 148.547625 
L 243.789352 147.791024 
L 243.008323 147.791024 
L 242.23031 148.093165 
L 241.621168 148.547625 
L 241.621168 148.547625 
L 242.577099 149.456545 
L 243.270676 150.215643 
L 243.876803 150.365465 
L 243.964254 149.761183 
L 244.311043 149.761183 
L 244.829718 149.911005 
L 244.57038 150.517784 
L 244.482929 150.819925 
L 244.311043 150.670103 
L 243.964254 150.063324 
L 243.789352 150.215643 
L 243.530014 150.819925 
L 243.442563 150.972244 
L 243.530014 151.124563 
L 243.442563 150.819925 
L 243.442563 150.063324 
L 243.442563 150.517784 
L 243.270676 150.972244 
L 243.442563 150.215643 
L 243.442563 150.215643 
L 243.270676 150.215643 
L 243.008323 150.670103 
L 243.095774 150.972244 
L 243.617465 150.670103 
L 243.876803 150.972244 
L 244.048689 151.426704 
L 244.048689 151.274385 
L 243.789352 150.215643 
L 243.530014 150.365465 
L 243.442563 151.124563 
L 243.530014 151.881164 
L 243.701901 151.881164 
L 244.13614 151.124563 
L 244.13614 150.819925 
L 243.876803 150.819925 
L 243.964254 150.819925 
L 243.876803 150.215643 
L 243.964254 150.365465 
L 243.789352 150.819925 
L 243.876803 150.819925 
L 243.876803 150.972244 
L 243.617465 151.124563 
L 243.789352 150.972244 
L 244.13614 150.517784 
L 243.876803 150.972244 
L 244.311043 151.274385 
L 244.311043 151.579023 
L 244.223591 151.124563 
L 244.13614 151.274385 
L 244.311043 151.579023 
L 244.311043 151.579023 
L 244.048689 151.426704 
L 243.789352 151.426704 
L 243.617465 151.124563 
L 243.701901 150.972244 
L 244.048689 150.972244 
L 244.223591 150.819925 
L 244.048689 150.670103 
L 243.876803 150.670103 
L 243.876803 150.819925 
L 244.223591 151.124563 
L 244.13614 151.274385 
L 243.876803 151.426704 
L 243.789352 150.819925 
L 244.223591 150.063324 
L 244.223591 151.124563 
L 244.223591 151.124563 
L 244.395478 150.365465 
L 244.13614 150.365465 
L 244.223591 150.215643 
L 244.657831 150.517784 
L 244.482929 150.365465 
L 244.223591 150.819925 
L 244.223591 150.670103 
L 244.048689 150.517784 
L 244.395478 150.819925 
L 244.57038 150.819925 
L 244.57038 150.670103 
L 244.223591 150.063324 
L 244.048689 150.215643 
L 243.701901 150.819925 
L 243.876803 150.819925 
L 244.223591 150.517784 
L 244.311043 150.670103 
L 244.395478 150.670103 
L 244.223591 150.365465 
L 244.311043 150.215643 
L 244.223591 150.215643 
L 244.048689 150.365465 
L 244.048689 150.819925 
L 244.13614 150.670103 
L 244.395478 150.517784 
L 244.57038 150.215643 
L 244.311043 150.670103 
L 244.482929 150.365465 
L 244.395478 150.215643 
L 244.395478 150.215643 
L 244.13614 150.365465 
L 243.964254 150.819925 
L 244.048689 150.819925 
L 244.395478 150.819925 
L 244.829718 150.365465 
L 244.311043 150.365465 
L 244.223591 150.215643 
L 244.311043 150.063324 
L 244.482929 150.063324 
L 244.57038 150.517784 
L 244.57038 151.426704 
L 244.482929 151.426704 
L 244.395478 151.274385 
L 244.311043 150.517784 
L 244.223591 150.670103 
L 244.57038 150.063324 
L 244.657831 150.517784 
L 244.829718 150.365465 
L 244.57038 150.670103 
L 244.829718 149.911005 
L 244.745282 149.911005 
L 244.57038 150.365465 
L 244.657831 150.215643 
L 244.657831 150.517784 
L 244.657831 150.517784 
L 244.223591 150.063324 
L 244.311043 149.911005 
L 244.223591 149.911005 
L 243.964254 150.215643 
L 244.223591 150.215643 
L 244.395478 149.608864 
L 244.395478 149.154404 
L 244.223591 149.306723 
L 243.876803 149.911005 
L 244.311043 150.365465 
L 244.311043 150.215643 
L 244.482929 149.911005 
L 244.395478 149.002085 
L 244.223591 149.154404 
L 244.395478 149.456545 
L 244.657831 149.306723 
L 244.657831 149.154404 
L 244.311043 148.852263 
L 244.311043 148.852263 
L 244.395478 148.852263 
L 244.57038 148.397803 
L 244.395478 148.245484 
L 243.270676 147.488884 
L 241.361831 144.911946 
L 239.974676 143.246425 
L 235.985098 139.003967 
L 233.557577 136.581846 
L 230.955154 133.400626 
L 228.008957 130.067088 
L 224.54107 126.431408 
L 221.157619 122.64341 
L 212.053661 109.768711 
L 203.640265 97.043833 
L 196.879393 84.621096 
L 192.889815 77.199916 
L 186.560168 66.140559 
L 182.917378 58.567059 
L 181.964463 56.142441 
L 181.70211 55.8403 
L 181.70211 55.687981 
L 181.70211 55.992619 
L 182.048899 56.901538 
L 182.311252 56.901538 
L 182.658041 57.05136 
L 183.004829 57.355998 
L 183.176716 58.112599 
L 183.176716 59.021519 
L 183.004829 59.475979 
L 182.483138 59.475979 
L 182.57059 59.77812 
L 182.395687 59.173838 
L 182.13635 59.173838 
L 181.442772 60.082758 
L 181.270886 59.930439 
L 181.183435 58.567059 
L 181.183435 58.112599 
L 181.442772 57.810458 
L 181.355321 57.810458 
L 181.095984 57.355998 
L 181.183435 57.05136 
L 181.617674 57.05136 
L 181.617674 57.203679 
L 181.530223 57.203679 
L 181.442772 56.901538 
L 181.183435 57.203679 
L 181.095984 57.05136 
L 181.270886 57.355998 
L 181.183435 57.355998 
L 181.008533 57.355998 
L 180.836646 57.50582 
L 180.661744 57.355998 
L 180.924097 57.50582 
L 181.270886 57.810458 
L 181.183435 57.810458 
L 180.924097 57.203679 
L 181.008533 57.50582 
L 180.749195 57.810458 
L 180.924097 57.810458 
L 181.008533 57.203679 
L 181.095984 57.203679 
L 181.183435 57.05136 
L 180.924097 57.355998 
L 180.836646 57.355998 
L 180.836646 57.50582 
L 181.095984 57.50582 
L 181.270886 57.203679 
L 181.270886 56.901538 
L 180.749195 57.355998 
L 180.749195 57.203679 
L 180.661744 57.96028 
L 180.836646 57.203679 
L 181.008533 57.355998 
L 181.095984 57.355998 
L 181.008533 56.5969 
L 180.836646 56.447078 
L 180.574293 56.749219 
L 180.924097 57.658139 
L 181.008533 55.992619 
L 181.095984 56.294759 
L 181.008533 56.447078 
L 180.924097 56.901538 
L 180.836646 56.5969 
L 180.924097 56.294759 
L 181.095984 56.294759 
L 181.183435 56.749219 
L 181.095984 57.203679 
L 180.924097 57.203679 
L 180.574293 56.447078 
L 180.749195 56.447078 
L 181.008533 56.901538 
L 180.924097 57.810458 
L 180.924097 57.810458 
L 180.749195 57.50582 
L 180.749195 57.203679 
L 180.924097 57.05136 
L 181.095984 57.203679 
L 181.183435 57.05136 
L 180.749195 56.294759 
L 180.924097 56.749219 
L 181.183435 56.749219 
L 181.442772 56.5969 
L 181.270886 56.749219 
L 181.270886 56.901538 
L 181.095984 57.05136 
L 181.008533 56.901538 
L 180.836646 56.294759 
L 180.836646 56.749219 
L 180.836646 56.5969 
L 180.661744 56.749219 
L 180.749195 57.05136 
L 180.836646 57.203679 
L 180.749195 56.901538 
L 180.836646 56.5969 
L 180.749195 56.142441 
L 180.661744 55.8403 
L 180.749195 55.8403 
L 181.008533 56.447078 
L 180.924097 56.5969 
L 180.836646 56.447078 
L 180.924097 56.749219 
L 180.836646 56.901538 
L 180.661744 56.749219 
L 180.749195 55.687981 
L 181.008533 55.538159 
L 180.836646 55.687981 
L 180.749195 55.8403 
L 180.836646 55.992619 
L 180.749195 56.142441 
L 180.836646 56.142441 
L 180.924097 56.142441 
L 181.095984 56.294759 
L 181.095984 55.992619 
L 180.836646 55.538159 
L 180.836646 55.538159 
L 180.924097 55.992619 
L 180.924097 55.8403 
L 181.183435 55.233521 
L 181.008533 55.233521 
L 180.661744 55.233521 
L 180.661744 55.538159 
L 180.924097 55.992619 
L 180.924097 55.8403 
L 181.270886 55.38584 
L 181.095984 55.687981 
L 181.095984 55.8403 
L 181.183435 55.687981 
L 180.924097 55.8403 
L 180.661744 55.8403 
L 180.924097 55.38584 
L 181.008533 55.538159 
L 180.924097 55.8403 
L 180.749195 55.538159 
L 180.924097 55.538159 
L 181.183435 55.687981 
L 181.095984 55.8403 
L 180.661744 55.538159 
L 180.924097 56.142441 
L 180.924097 56.142441 
L 180.836646 54.93138 
L 180.749195 54.779061 
L 180.574293 54.93138 
L 180.574293 55.538159 
L 180.402406 55.687981 
L 180.143069 55.38584 
L 180.143069 55.083699 
L 180.402406 55.083699 
L 180.924097 55.233521 
L 180.749195 55.233521 
L 180.402406 55.538159 
L 180.489857 55.38584 
L 180.574293 55.233521 
L 180.836646 55.687981 
L 180.836646 55.687981 
L 180.661744 55.687981 
L 180.574293 55.538159 
L 180.574293 54.93138 
L 180.661744 54.93138 
L 180.836646 55.233521 
L 180.924097 55.8403 
L 180.749195 55.38584 
L 180.574293 55.083699 
L 180.402406 55.083699 
L 180.055618 55.38584 
L 180.143069 55.233521 
L 180.402406 55.233521 
L 180.836646 54.93138 
L 180.749195 54.93138 
L 180.574293 54.93138 
L 180.402406 54.629239 
L 180.489857 54.47692 
L 180.574293 55.083699 
L 180.402406 55.233521 
L 180.661744 55.083699 
L 180.749195 55.538159 
L 180.574293 55.8403 
L 180.314955 55.538159 
L 180.489857 55.083699 
L 180.836646 54.779061 
L 180.836646 54.779061 
L 180.661744 54.629239 
L 180.574293 54.174779 
L 180.749195 54.02246 
L 181.008533 54.93138 
L 181.183435 54.93138 
L 181.270886 54.47692 
L 181.095984 54.324601 
L 180.836646 54.324601 
L 180.489857 54.47692 
L 180.574293 53.870141 
L 180.836646 54.47692 
L 180.836646 54.324601 
L 180.924097 54.174779 
L 180.924097 54.324601 
L 181.355321 54.324601 
L 181.270886 54.629239 
L 181.095984 54.629239 
L 181.008533 54.174779 
L 180.836646 54.02246 
L 180.661744 54.47692 
L 180.924097 54.47692 
L 180.924097 54.779061 
L 180.574293 54.93138 
L 180.314955 54.629239 
L 180.227504 54.324601 
L 179.708829 54.02246 
L 178.668463 53.720319 
L 177.540645 53.568 
L 175.978588 53.568 
L 171.904575 53.870141 
L 169.564505 53.720319 
L 166.962082 54.324601 
L 164.187772 55.687981 
L 161.23856 57.50582 
L 158.030011 58.8692 
L 154.649575 59.930439 
L 151.441025 61.293819 
L 145.370715 64.929498 
L 142.334052 66.595019 
L 139.387856 67.808576 
L 136.438644 69.171956 
L 133.576883 70.837477 
L 130.715123 72.957457 
L 127.765911 74.622978 
L 124.907166 76.593137 
L 120.049108 80.985417 
L 112.938432 86.136795 
L 108.51763 89.772474 
L 106.261995 91.135854 
L 104.268714 92.801375 
L 102.447319 94.469392 
L 100.713376 95.832772 
L 96.8987 97.952753 
L 93.949488 99.922911 
L 92.821671 100.225052 
L 91.693854 100.072733 
L 90.740939 100.225052 
L 90.219248 100.679512 
L 89.700573 101.588432 
L 88.919544 102.649671 
L 89.441235 102.951812 
L 89.700573 102.951812 
L 90.566037 104.315192 
L 90.912825 104.617332 
L 91.175178 104.617332 
L 91.347065 104.92197 
L 91.000276 105.224111 
L 90.740939 105.678571 
L 90.566037 105.678571 
L 90.219248 105.980712 
L 89.700573 106.889632 
L 89.613121 107.344092 
L 88.832093 108.707472 
L 88.744642 109.161932 
L 88.572755 109.46657 
L 88.485304 109.161932 
L 88.572755 109.314251 
L 88.397853 109.616392 
L 88.138516 109.768711 
L 88.138516 109.92103 
L 88.572755 109.92103 
L 88.572755 109.92103 
L 88.485304 110.525311 
L 88.397853 110.525311 
L 88.397853 110.525311 
L 88.225967 111.13209 
L 88.051064 111.13209 
L 87.532389 111.888691 
L 87.357487 111.888691 
L 87.357487 111.58655 
L 87.273052 111.58655 
L 87.098149 112.193329 
L 87.1856 112.647789 
L 87.1856 113.102249 
L 87.357487 113.40439 
L 87.444938 114.31331 
L 87.357487 114.31331 
L 86.926263 113.706531 
L 86.751361 113.85885 
L 86.926263 114.920089 
L 86.926263 115.676689 
L 86.66391 115.97883 
L 86.751361 115.52437 
L 86.66391 115.676689 
L 86.492023 115.829008 
L 86.404572 115.676689 
L 86.579474 115.829008 
L 86.926263 116.283468 
L 87.010698 116.737928 
L 86.66391 118.098811 
L 86.926263 118.857909 
L 86.579474 119.007731 
L 86.492023 118.403449 
L 86.317121 118.403449 
L 86.579474 119.312369 
L 86.838812 119.312369 
L 86.838812 119.16005 
L 86.751361 119.16005 
L 86.66391 119.462191 
L 86.838812 120.371111 
L 86.66391 120.52343 
L 86.492023 120.52343 
L 86.579474 121.28003 
L 86.66391 121.73449 
L 86.579474 121.73449 
L 86.492023 121.886809 
L 86.579474 122.795729 
L 86.404572 121.886809 
L 86.317121 121.130208 
L 86.317121 121.73449 
L 86.404572 122.341269 
L 86.492023 122.64341 
L 86.492023 122.64341 
L 86.404572 122.64341 
L 86.232685 122.795729 
L 86.317121 122.795729 
L 86.579474 122.64341 
L 86.66391 122.948048 
L 86.317121 123.704649 
L 86.145234 123.09787 
L 86.057783 123.250189 
L 86.232685 122.795729 
L 86.492023 122.948048 
L 86.579474 123.402508 
L 86.404572 123.55233 
L 86.317121 123.55233 
L 86.492023 123.55233 
L 86.404572 124.765888 
L 86.404572 124.311428 
L 86.317121 124.311428 
L 86.579474 124.613569 
L 86.492023 124.613569 
L 86.232685 124.91571 
L 86.057783 125.522489 
L 86.492023 124.311428 
L 86.492023 124.613569 
L 86.317121 124.91571 
L 86.057783 124.765888 
L 85.885897 124.46125 
L 86.145234 125.068029 
L 86.232685 124.91571 
L 86.492023 124.765888 
L 86.66391 124.91571 
L 86.66391 124.765888 
L 86.404572 124.613569 
L 86.145234 124.311428 
L 85.710995 124.91571 
L 86.145234 125.522489 
L 86.317121 125.674808 
L 86.232685 124.91571 
L 86.317121 126.733549 
L 86.404572 125.976949 
L 86.66391 126.279089 
L 86.66391 126.279089 
L 86.492023 126.431408 
L 86.492023 127.038187 
L 86.492023 127.038187 
L 86.66391 127.188009 
L 86.66391 126.279089 
L 86.404572 126.431408 
L 86.057783 127.642469 
L 86.057783 127.642469 
L 86.232685 127.642469 
L 86.404572 127.794788 
L 86.579474 127.794788 
L 86.751361 127.492647 
L 86.66391 127.492647 
L 86.232685 127.794788 
L 86.057783 128.096929 
L 86.145234 128.096929 
L 86.232685 128.401567 
L 86.057783 128.703708 
L 85.970332 128.551389 
L 86.145234 128.551389 
L 86.751361 128.856027 
L 86.838812 129.310487 
L 86.751361 129.460309 
L 86.66391 129.005849 
L 86.492023 128.856027 
L 86.404572 129.460309 
L 86.317121 129.460309 
L 86.404572 129.310487 
L 86.579474 129.460309 
L 86.317121 129.914769 
L 86.66391 129.310487 
L 86.838812 129.612628 
L 86.751361 130.067088 
L 86.579474 130.067088 
L 86.404572 129.914769 
L 86.404572 129.612628 
L 86.492023 129.612628 
L 86.579474 129.914769 
L 86.579474 130.673867 
L 86.751361 130.673867 
L 86.926263 130.369229 
L 86.751361 130.219407 
L 86.579474 129.764947 
L 86.751361 129.914769 
L 86.66391 129.914769 
L 86.232685 130.369229 
L 86.145234 129.914769 
L 86.579474 130.219407 
L 86.66391 130.369229 
L 86.317121 130.976008 
L 86.317121 130.976008 
L 86.404572 130.521548 
L 86.579474 130.219407 
L 86.492023 130.369229 
L 86.317121 131.278149 
L 86.317121 130.823689 
L 86.232685 130.369229 
L 86.057783 130.369229 
L 85.885897 129.914769 
L 85.970332 129.764947 
L 86.404572 130.369229 
L 86.057783 130.369229 
L 86.317121 129.764947 
L 86.232685 130.067088 
L 86.317121 130.219407 
L 86.492023 130.067088 
L 86.492023 129.764947 
L 86.317121 129.764947 
L 86.232685 130.067088 
L 86.232685 130.976008 
L 86.057783 130.823689 
L 85.798446 130.823689 
L 85.970332 130.673867 
L 86.492023 131.582786 
L 86.492023 131.278149 
L 86.492023 131.278149 
" style="fill:none;stroke:#1f77b4;stroke-linecap:square;stroke-width:1.5;"/>
   </g>
   <g id="matplotlib.axis_1">
    <g id="xtick_1">
     <g id="line2d_2">
      <defs>
       <path d="M 0 0 
L 0 3.5 
" id="m4a863fcac4" style="stroke:#000000;stroke-width:0.8;"/>
      </defs>
      <g>
       <use style="stroke:#000000;stroke-width:0.8;" x="72.982341" xlink:href="#m4a863fcac4" y="307.584"/>
      </g>
     </g>
     <g id="text_1">
      <!-- −400 -->
      <defs>
       <path d="M 10.59375 35.5 
L 73.1875 35.5 
L 73.1875 27.203125 
L 10.59375 27.203125 
z
" id="DejaVuSans-8722"/>
       <path d="M 37.796875 64.3125 
L 12.890625 25.390625 
L 37.796875 25.390625 
z
M 35.203125 72.90625 
L 47.609375 72.90625 
L 47.609375 25.390625 
L 58.015625 25.390625 
L 58.015625 17.1875 
L 47.609375 17.1875 
L 47.609375 0 
L 37.796875 0 
L 37.796875 17.1875 
L 4.890625 17.1875 
L 4.890625 26.703125 
z
" id="DejaVuSans-52"/>
       <path d="M 31.78125 66.40625 
Q 24.171875 66.40625 20.328125 58.90625 
Q 16.5 51.421875 16.5 36.375 
Q 16.5 21.390625 20.328125 13.890625 
Q 24.171875 6.390625 31.78125 6.390625 
Q 39.453125 6.390625 43.28125 13.890625 
Q 47.125 21.390625 47.125 36.375 
Q 47.125 51.421875 43.28125 58.90625 
Q 39.453125 66.40625 31.78125 66.40625 
z
M 31.78125 74.21875 
Q 44.046875 74.21875 50.515625 64.515625 
Q 56.984375 54.828125 56.984375 36.375 
Q 56.984375 17.96875 50.515625 8.265625 
Q 44.046875 -1.421875 31.78125 -1.421875 
Q 19.53125 -1.421875 13.0625 8.265625 
Q 6.59375 17.96875 6.59375 36.375 
Q 6.59375 54.828125 13.0625 64.515625 
Q 19.53125 74.21875 31.78125 74.21875 
z
" id="DejaVuSans-48"/>
      </defs>
      <g transform="translate(59.248747 322.182437)scale(0.1 -0.1)">
       <use xlink:href="#DejaVuSans-8722"/>
       <use x="83.789062" xlink:href="#DejaVuSans-52"/>
       <use x="147.412109" xlink:href="#DejaVuSans-48"/>
       <use x="211.035156" xlink:href="#DejaVuSans-48"/>
      </g>
     </g>
    </g>
    <g id="xtick_2">
     <g id="line2d_3">
      <g>
       <use style="stroke:#000000;stroke-width:0.8;" x="133.293421" xlink:href="#m4a863fcac4" y="307.584"/>
      </g>
     </g>
     <g id="text_2">
      <!-- −200 -->
      <defs>
       <path d="M 19.1875 8.296875 
L 53.609375 8.296875 
L 53.609375 0 
L 7.328125 0 
L 7.328125 8.296875 
Q 12.9375 14.109375 22.625 23.890625 
Q 32.328125 33.6875 34.8125 36.53125 
Q 39.546875 41.84375 41.421875 45.53125 
Q 43.3125 49.21875 43.3125 52.78125 
Q 43.3125 58.59375 39.234375 62.25 
Q 35.15625 65.921875 28.609375 65.921875 
Q 23.96875 65.921875 18.8125 64.3125 
Q 13.671875 62.703125 7.8125 59.421875 
L 7.8125 69.390625 
Q 13.765625 71.78125 18.9375 73 
Q 24.125 74.21875 28.421875 74.21875 
Q 39.75 74.21875 46.484375 68.546875 
Q 53.21875 62.890625 53.21875 53.421875 
Q 53.21875 48.921875 51.53125 44.890625 
Q 49.859375 40.875 45.40625 35.40625 
Q 44.1875 33.984375 37.640625 27.21875 
Q 31.109375 20.453125 19.1875 8.296875 
z
" id="DejaVuSans-50"/>
      </defs>
      <g transform="translate(119.559828 322.182437)scale(0.1 -0.1)">
       <use xlink:href="#DejaVuSans-8722"/>
       <use x="83.789062" xlink:href="#DejaVuSans-50"/>
       <use x="147.412109" xlink:href="#DejaVuSans-48"/>
       <use x="211.035156" xlink:href="#DejaVuSans-48"/>
      </g>
     </g>
    </g>
    <g id="xtick_3">
     <g id="line2d_4">
      <g>
       <use style="stroke:#000000;stroke-width:0.8;" x="193.604502" xlink:href="#m4a863fcac4" y="307.584"/>
      </g>
     </g>
     <g id="text_3">
      <!-- 0 -->
      <g transform="translate(190.423252 322.182437)scale(0.1 -0.1)">
       <use xlink:href="#DejaVuSans-48"/>
      </g>
     </g>
    </g>
    <g id="xtick_4">
     <g id="line2d_5">
      <g>
       <use style="stroke:#000000;stroke-width:0.8;" x="253.915582" xlink:href="#m4a863fcac4" y="307.584"/>
      </g>
     </g>
     <g id="text_4">
      <!-- 200 -->
      <g transform="translate(244.371832 322.182437)scale(0.1 -0.1)">
       <use xlink:href="#DejaVuSans-50"/>
       <use x="63.623047" xlink:href="#DejaVuSans-48"/>
       <use x="127.246094" xlink:href="#DejaVuSans-48"/>
      </g>
     </g>
    </g>
    <g id="xtick_5">
     <g id="line2d_6">
      <g>
       <use style="stroke:#000000;stroke-width:0.8;" x="314.226662" xlink:href="#m4a863fcac4" y="307.584"/>
      </g>
     </g>
     <g id="text_5">
      <!-- 400 -->
      <g transform="translate(304.682912 322.182437)scale(0.1 -0.1)">
       <use xlink:href="#DejaVuSans-52"/>
       <use x="63.623047" xlink:href="#DejaVuSans-48"/>
       <use x="127.246094" xlink:href="#DejaVuSans-48"/>
      </g>
     </g>
    </g>
    <g id="xtick_6">
     <g id="line2d_7">
      <g>
       <use style="stroke:#000000;stroke-width:0.8;" x="374.537743" xlink:href="#m4a863fcac4" y="307.584"/>
      </g>
     </g>
     <g id="text_6">
      <!-- 600 -->
      <defs>
       <path d="M 33.015625 40.375 
Q 26.375 40.375 22.484375 35.828125 
Q 18.609375 31.296875 18.609375 23.390625 
Q 18.609375 15.53125 22.484375 10.953125 
Q 26.375 6.390625 33.015625 6.390625 
Q 39.65625 6.390625 43.53125 10.953125 
Q 47.40625 15.53125 47.40625 23.390625 
Q 47.40625 31.296875 43.53125 35.828125 
Q 39.65625 40.375 33.015625 40.375 
z
M 52.59375 71.296875 
L 52.59375 62.3125 
Q 48.875 64.0625 45.09375 64.984375 
Q 41.3125 65.921875 37.59375 65.921875 
Q 27.828125 65.921875 22.671875 59.328125 
Q 17.53125 52.734375 16.796875 39.40625 
Q 19.671875 43.65625 24.015625 45.921875 
Q 28.375 48.1875 33.59375 48.1875 
Q 44.578125 48.1875 50.953125 41.515625 
Q 57.328125 34.859375 57.328125 23.390625 
Q 57.328125 12.15625 50.6875 5.359375 
Q 44.046875 -1.421875 33.015625 -1.421875 
Q 20.359375 -1.421875 13.671875 8.265625 
Q 6.984375 17.96875 6.984375 36.375 
Q 6.984375 53.65625 15.1875 63.9375 
Q 23.390625 74.21875 37.203125 74.21875 
Q 40.921875 74.21875 44.703125 73.484375 
Q 48.484375 72.75 52.59375 71.296875 
z
" id="DejaVuSans-54"/>
      </defs>
      <g transform="translate(364.993993 322.182437)scale(0.1 -0.1)">
       <use xlink:href="#DejaVuSans-54"/>
       <use x="63.623047" xlink:href="#DejaVuSans-48"/>
       <use x="127.246094" xlink:href="#DejaVuSans-48"/>
      </g>
     </g>
    </g>
   </g>
   <g id="matplotlib.axis_2">
    <g id="ytick_1">
     <g id="line2d_8">
      <defs>
       <path d="M 0 0 
L -3.5 0 
" id="m01f9ad6ce9" style="stroke:#000000;stroke-width:0.8;"/>
      </defs>
      <g>
       <use style="stroke:#000000;stroke-width:0.8;" x="57.6" xlink:href="#m01f9ad6ce9" y="290.434006"/>
      </g>
     </g>
     <g id="text_7">
      <!-- −800 -->
      <defs>
       <path d="M 31.78125 34.625 
Q 24.75 34.625 20.71875 30.859375 
Q 16.703125 27.09375 16.703125 20.515625 
Q 16.703125 13.921875 20.71875 10.15625 
Q 24.75 6.390625 31.78125 6.390625 
Q 38.8125 6.390625 42.859375 10.171875 
Q 46.921875 13.96875 46.921875 20.515625 
Q 46.921875 27.09375 42.890625 30.859375 
Q 38.875 34.625 31.78125 34.625 
z
M 21.921875 38.8125 
Q 15.578125 40.375 12.03125 44.71875 
Q 8.5 49.078125 8.5 55.328125 
Q 8.5 64.0625 14.71875 69.140625 
Q 20.953125 74.21875 31.78125 74.21875 
Q 42.671875 74.21875 48.875 69.140625 
Q 55.078125 64.0625 55.078125 55.328125 
Q 55.078125 49.078125 51.53125 44.71875 
Q 48 40.375 41.703125 38.8125 
Q 48.828125 37.15625 52.796875 32.3125 
Q 56.78125 27.484375 56.78125 20.515625 
Q 56.78125 9.90625 50.3125 4.234375 
Q 43.84375 -1.421875 31.78125 -1.421875 
Q 19.734375 -1.421875 13.25 4.234375 
Q 6.78125 9.90625 6.78125 20.515625 
Q 6.78125 27.484375 10.78125 32.3125 
Q 14.796875 37.15625 21.921875 38.8125 
z
M 18.3125 54.390625 
Q 18.3125 48.734375 21.84375 45.5625 
Q 25.390625 42.390625 31.78125 42.390625 
Q 38.140625 42.390625 41.71875 45.5625 
Q 45.3125 48.734375 45.3125 54.390625 
Q 45.3125 60.0625 41.71875 63.234375 
Q 38.140625 66.40625 31.78125 66.40625 
Q 25.390625 66.40625 21.84375 63.234375 
Q 18.3125 60.0625 18.3125 54.390625 
z
" id="DejaVuSans-56"/>
      </defs>
      <g transform="translate(23.132812 294.233225)scale(0.1 -0.1)">
       <use xlink:href="#DejaVuSans-8722"/>
       <use x="83.789062" xlink:href="#DejaVuSans-56"/>
       <use x="147.412109" xlink:href="#DejaVuSans-48"/>
       <use x="211.035156" xlink:href="#DejaVuSans-48"/>
      </g>
     </g>
    </g>
    <g id="ytick_2">
     <g id="line2d_9">
      <g>
       <use style="stroke:#000000;stroke-width:0.8;" x="57.6" xlink:href="#m01f9ad6ce9" y="240.493356"/>
      </g>
     </g>
     <g id="text_8">
      <!-- −600 -->
      <g transform="translate(23.132812 244.292575)scale(0.1 -0.1)">
       <use xlink:href="#DejaVuSans-8722"/>
       <use x="83.789062" xlink:href="#DejaVuSans-54"/>
       <use x="147.412109" xlink:href="#DejaVuSans-48"/>
       <use x="211.035156" xlink:href="#DejaVuSans-48"/>
      </g>
     </g>
    </g>
    <g id="ytick_3">
     <g id="line2d_10">
      <g>
       <use style="stroke:#000000;stroke-width:0.8;" x="57.6" xlink:href="#m01f9ad6ce9" y="190.552706"/>
      </g>
     </g>
     <g id="text_9">
      <!-- −400 -->
      <g transform="translate(23.132812 194.351925)scale(0.1 -0.1)">
       <use xlink:href="#DejaVuSans-8722"/>
       <use x="83.789062" xlink:href="#DejaVuSans-52"/>
       <use x="147.412109" xlink:href="#DejaVuSans-48"/>
       <use x="211.035156" xlink:href="#DejaVuSans-48"/>
      </g>
     </g>
    </g>
    <g id="ytick_4">
     <g id="line2d_11">
      <g>
       <use style="stroke:#000000;stroke-width:0.8;" x="57.6" xlink:href="#m01f9ad6ce9" y="140.612056"/>
      </g>
     </g>
     <g id="text_10">
      <!-- −200 -->
      <g transform="translate(23.132812 144.411275)scale(0.1 -0.1)">
       <use xlink:href="#DejaVuSans-8722"/>
       <use x="83.789062" xlink:href="#DejaVuSans-50"/>
       <use x="147.412109" xlink:href="#DejaVuSans-48"/>
       <use x="211.035156" xlink:href="#DejaVuSans-48"/>
      </g>
     </g>
    </g>
    <g id="ytick_5">
     <g id="line2d_12">
      <g>
       <use style="stroke:#000000;stroke-width:0.8;" x="57.6" xlink:href="#m01f9ad6ce9" y="90.671406"/>
      </g>
     </g>
     <g id="text_11">
      <!-- 0 -->
      <g transform="translate(44.2375 94.470625)scale(0.1 -0.1)">
       <use xlink:href="#DejaVuSans-48"/>
      </g>
     </g>
    </g>
   </g>
   <g id="line2d_13">
    <path clip-path="url(#p6a2efadb21)" d="M 396.110657 293.322468 
L 186.392671 150.182557 
L 80.077925 153.219467 
L 241.826007 150.147079 
L 181.540918 57.268428 
L 91.449418 106.684536 
L 86.393429 126.119269 
" style="fill:none;stroke:#ff0000;stroke-linecap:square;stroke-width:0.5;"/>
   </g>
   <g id="patch_3">
    <path d="M 57.6 307.584 
L 57.6 41.472 
" style="fill:none;stroke:#000000;stroke-linecap:square;stroke-linejoin:miter;stroke-width:0.8;"/>
   </g>
   <g id="patch_4">
    <path d="M 414.72 307.584 
L 414.72 41.472 
" style="fill:none;stroke:#000000;stroke-linecap:square;stroke-linejoin:miter;stroke-width:0.8;"/>
   </g>
   <g id="patch_5">
    <path d="M 57.6 307.584 
L 414.72 307.584 
" style="fill:none;stroke:#000000;stroke-linecap:square;stroke-linejoin:miter;stroke-width:0.8;"/>
   </g>
   <g id="patch_6">
    <path d="M 57.6 41.472 
L 414.72 41.472 
" style="fill:none;stroke:#000000;stroke-linecap:square;stroke-linejoin:miter;stroke-width:0.8;"/>
   </g>
   <g id="PathCollection_1">
    <defs>
     <path d="M 0 2.738613 
C 0.726289 2.738613 1.422928 2.450055 1.936492 1.936492 
C 2.450055 1.422928 2.738613 0.726289 2.738613 0 
C 2.738613 -0.726289 2.450055 -1.422928 1.936492 -1.936492 
C 1.422928 -2.450055 0.726289 -2.738613 0 -2.738613 
C -0.726289 -2.738613 -1.422928 -2.450055 -1.936492 -1.936492 
C -2.450055 -1.422928 -2.738613 -0.726289 -2.738613 0 
C -2.738613 0.726289 -2.450055 1.422928 -1.936492 1.936492 
C -1.422928 2.450055 -0.726289 2.738613 0 2.738613 
z
" id="m0c0e673df9" style="stroke:#ff0000;"/>
    </defs>
    <g clip-path="url(#p6a2efadb21)">
     <use style="fill:#ff0000;stroke:#ff0000;" x="396.110657" xlink:href="#m0c0e673df9" y="293.322468"/>
     <use style="fill:#ff0000;stroke:#ff0000;" x="186.392671" xlink:href="#m0c0e673df9" y="150.182557"/>
     <use style="fill:#ff0000;stroke:#ff0000;" x="80.077925" xlink:href="#m0c0e673df9" y="153.219467"/>
     <use style="fill:#ff0000;stroke:#ff0000;" x="241.826007" xlink:href="#m0c0e673df9" y="150.147079"/>
     <use style="fill:#ff0000;stroke:#ff0000;" x="181.540918" xlink:href="#m0c0e673df9" y="57.268428"/>
     <use style="fill:#ff0000;stroke:#ff0000;" x="91.449418" xlink:href="#m0c0e673df9" y="106.684536"/>
     <use style="fill:#ff0000;stroke:#ff0000;" x="86.393429" xlink:href="#m0c0e673df9" y="126.119269"/>
    </g>
   </g>
   <g id="text_12">
    <!-- (68) Subject: s17, Known = False, Degree = 2, Duration = 0.1 -->
    <defs>
     <path d="M 31 75.875 
Q 24.46875 64.65625 21.28125 53.65625 
Q 18.109375 42.671875 18.109375 31.390625 
Q 18.109375 20.125 21.3125 9.0625 
Q 24.515625 -2 31 -13.1875 
L 23.1875 -13.1875 
Q 15.875 -1.703125 12.234375 9.375 
Q 8.59375 20.453125 8.59375 31.390625 
Q 8.59375 42.28125 12.203125 53.3125 
Q 15.828125 64.359375 23.1875 75.875 
z
" id="DejaVuSans-40"/>
     <path d="M 8.015625 75.875 
L 15.828125 75.875 
Q 23.140625 64.359375 26.78125 53.3125 
Q 30.421875 42.28125 30.421875 31.390625 
Q 30.421875 20.453125 26.78125 9.375 
Q 23.140625 -1.703125 15.828125 -13.1875 
L 8.015625 -13.1875 
Q 14.5 -2 17.703125 9.0625 
Q 20.90625 20.125 20.90625 31.390625 
Q 20.90625 42.671875 17.703125 53.65625 
Q 14.5 64.65625 8.015625 75.875 
z
" id="DejaVuSans-41"/>
     <path id="DejaVuSans-32"/>
     <path d="M 53.515625 70.515625 
L 53.515625 60.890625 
Q 47.90625 63.578125 42.921875 64.890625 
Q 37.9375 66.21875 33.296875 66.21875 
Q 25.25 66.21875 20.875 63.09375 
Q 16.5 59.96875 16.5 54.203125 
Q 16.5 49.359375 19.40625 46.890625 
Q 22.3125 44.4375 30.421875 42.921875 
L 36.375 41.703125 
Q 47.40625 39.59375 52.65625 34.296875 
Q 57.90625 29 57.90625 20.125 
Q 57.90625 9.515625 50.796875 4.046875 
Q 43.703125 -1.421875 29.984375 -1.421875 
Q 24.8125 -1.421875 18.96875 -0.25 
Q 13.140625 0.921875 6.890625 3.21875 
L 6.890625 13.375 
Q 12.890625 10.015625 18.65625 8.296875 
Q 24.421875 6.59375 29.984375 6.59375 
Q 38.421875 6.59375 43.015625 9.90625 
Q 47.609375 13.234375 47.609375 19.390625 
Q 47.609375 24.75 44.3125 27.78125 
Q 41.015625 30.8125 33.5 32.328125 
L 27.484375 33.5 
Q 16.453125 35.6875 11.515625 40.375 
Q 6.59375 45.0625 6.59375 53.421875 
Q 6.59375 63.09375 13.40625 68.65625 
Q 20.21875 74.21875 32.171875 74.21875 
Q 37.3125 74.21875 42.625 73.28125 
Q 47.953125 72.359375 53.515625 70.515625 
z
" id="DejaVuSans-83"/>
     <path d="M 8.5 21.578125 
L 8.5 54.6875 
L 17.484375 54.6875 
L 17.484375 21.921875 
Q 17.484375 14.15625 20.5 10.265625 
Q 23.53125 6.390625 29.59375 6.390625 
Q 36.859375 6.390625 41.078125 11.03125 
Q 45.3125 15.671875 45.3125 23.6875 
L 45.3125 54.6875 
L 54.296875 54.6875 
L 54.296875 0 
L 45.3125 0 
L 45.3125 8.40625 
Q 42.046875 3.421875 37.71875 1 
Q 33.40625 -1.421875 27.6875 -1.421875 
Q 18.265625 -1.421875 13.375 4.4375 
Q 8.5 10.296875 8.5 21.578125 
z
M 31.109375 56 
z
" id="DejaVuSans-117"/>
     <path d="M 48.6875 27.296875 
Q 48.6875 37.203125 44.609375 42.84375 
Q 40.53125 48.484375 33.40625 48.484375 
Q 26.265625 48.484375 22.1875 42.84375 
Q 18.109375 37.203125 18.109375 27.296875 
Q 18.109375 17.390625 22.1875 11.75 
Q 26.265625 6.109375 33.40625 6.109375 
Q 40.53125 6.109375 44.609375 11.75 
Q 48.6875 17.390625 48.6875 27.296875 
z
M 18.109375 46.390625 
Q 20.953125 51.265625 25.265625 53.625 
Q 29.59375 56 35.59375 56 
Q 45.5625 56 51.78125 48.09375 
Q 58.015625 40.1875 58.015625 27.296875 
Q 58.015625 14.40625 51.78125 6.484375 
Q 45.5625 -1.421875 35.59375 -1.421875 
Q 29.59375 -1.421875 25.265625 0.953125 
Q 20.953125 3.328125 18.109375 8.203125 
L 18.109375 0 
L 9.078125 0 
L 9.078125 75.984375 
L 18.109375 75.984375 
z
" id="DejaVuSans-98"/>
     <path d="M 9.421875 54.6875 
L 18.40625 54.6875 
L 18.40625 -0.984375 
Q 18.40625 -11.421875 14.421875 -16.109375 
Q 10.453125 -20.796875 1.609375 -20.796875 
L -1.8125 -20.796875 
L -1.8125 -13.1875 
L 0.59375 -13.1875 
Q 5.71875 -13.1875 7.5625 -10.8125 
Q 9.421875 -8.453125 9.421875 -0.984375 
z
M 9.421875 75.984375 
L 18.40625 75.984375 
L 18.40625 64.59375 
L 9.421875 64.59375 
z
" id="DejaVuSans-106"/>
     <path d="M 56.203125 29.59375 
L 56.203125 25.203125 
L 14.890625 25.203125 
Q 15.484375 15.921875 20.484375 11.0625 
Q 25.484375 6.203125 34.421875 6.203125 
Q 39.59375 6.203125 44.453125 7.46875 
Q 49.3125 8.734375 54.109375 11.28125 
L 54.109375 2.78125 
Q 49.265625 0.734375 44.1875 -0.34375 
Q 39.109375 -1.421875 33.890625 -1.421875 
Q 20.796875 -1.421875 13.15625 6.1875 
Q 5.515625 13.8125 5.515625 26.8125 
Q 5.515625 40.234375 12.765625 48.109375 
Q 20.015625 56 32.328125 56 
Q 43.359375 56 49.78125 48.890625 
Q 56.203125 41.796875 56.203125 29.59375 
z
M 47.21875 32.234375 
Q 47.125 39.59375 43.09375 43.984375 
Q 39.0625 48.390625 32.421875 48.390625 
Q 24.90625 48.390625 20.390625 44.140625 
Q 15.875 39.890625 15.1875 32.171875 
z
" id="DejaVuSans-101"/>
     <path d="M 48.78125 52.59375 
L 48.78125 44.1875 
Q 44.96875 46.296875 41.140625 47.34375 
Q 37.3125 48.390625 33.40625 48.390625 
Q 24.65625 48.390625 19.8125 42.84375 
Q 14.984375 37.3125 14.984375 27.296875 
Q 14.984375 17.28125 19.8125 11.734375 
Q 24.65625 6.203125 33.40625 6.203125 
Q 37.3125 6.203125 41.140625 7.25 
Q 44.96875 8.296875 48.78125 10.40625 
L 48.78125 2.09375 
Q 45.015625 0.34375 40.984375 -0.53125 
Q 36.96875 -1.421875 32.421875 -1.421875 
Q 20.0625 -1.421875 12.78125 6.34375 
Q 5.515625 14.109375 5.515625 27.296875 
Q 5.515625 40.671875 12.859375 48.328125 
Q 20.21875 56 33.015625 56 
Q 37.15625 56 41.109375 55.140625 
Q 45.0625 54.296875 48.78125 52.59375 
z
" id="DejaVuSans-99"/>
     <path d="M 18.3125 70.21875 
L 18.3125 54.6875 
L 36.8125 54.6875 
L 36.8125 47.703125 
L 18.3125 47.703125 
L 18.3125 18.015625 
Q 18.3125 11.328125 20.140625 9.421875 
Q 21.96875 7.515625 27.59375 7.515625 
L 36.8125 7.515625 
L 36.8125 0 
L 27.59375 0 
Q 17.1875 0 13.234375 3.875 
Q 9.28125 7.765625 9.28125 18.015625 
L 9.28125 47.703125 
L 2.6875 47.703125 
L 2.6875 54.6875 
L 9.28125 54.6875 
L 9.28125 70.21875 
z
" id="DejaVuSans-116"/>
     <path d="M 11.71875 12.40625 
L 22.015625 12.40625 
L 22.015625 0 
L 11.71875 0 
z
M 11.71875 51.703125 
L 22.015625 51.703125 
L 22.015625 39.3125 
L 11.71875 39.3125 
z
" id="DejaVuSans-58"/>
     <path d="M 44.28125 53.078125 
L 44.28125 44.578125 
Q 40.484375 46.53125 36.375 47.5 
Q 32.28125 48.484375 27.875 48.484375 
Q 21.1875 48.484375 17.84375 46.4375 
Q 14.5 44.390625 14.5 40.28125 
Q 14.5 37.15625 16.890625 35.375 
Q 19.28125 33.59375 26.515625 31.984375 
L 29.59375 31.296875 
Q 39.15625 29.25 43.1875 25.515625 
Q 47.21875 21.78125 47.21875 15.09375 
Q 47.21875 7.46875 41.1875 3.015625 
Q 35.15625 -1.421875 24.609375 -1.421875 
Q 20.21875 -1.421875 15.453125 -0.5625 
Q 10.6875 0.296875 5.421875 2 
L 5.421875 11.28125 
Q 10.40625 8.6875 15.234375 7.390625 
Q 20.0625 6.109375 24.8125 6.109375 
Q 31.15625 6.109375 34.5625 8.28125 
Q 37.984375 10.453125 37.984375 14.40625 
Q 37.984375 18.0625 35.515625 20.015625 
Q 33.0625 21.96875 24.703125 23.78125 
L 21.578125 24.515625 
Q 13.234375 26.265625 9.515625 29.90625 
Q 5.8125 33.546875 5.8125 39.890625 
Q 5.8125 47.609375 11.28125 51.796875 
Q 16.75 56 26.8125 56 
Q 31.78125 56 36.171875 55.265625 
Q 40.578125 54.546875 44.28125 53.078125 
z
" id="DejaVuSans-115"/>
     <path d="M 12.40625 8.296875 
L 28.515625 8.296875 
L 28.515625 63.921875 
L 10.984375 60.40625 
L 10.984375 69.390625 
L 28.421875 72.90625 
L 38.28125 72.90625 
L 38.28125 8.296875 
L 54.390625 8.296875 
L 54.390625 0 
L 12.40625 0 
z
" id="DejaVuSans-49"/>
     <path d="M 8.203125 72.90625 
L 55.078125 72.90625 
L 55.078125 68.703125 
L 28.609375 0 
L 18.3125 0 
L 43.21875 64.59375 
L 8.203125 64.59375 
z
" id="DejaVuSans-55"/>
     <path d="M 11.71875 12.40625 
L 22.015625 12.40625 
L 22.015625 4 
L 14.015625 -11.625 
L 7.71875 -11.625 
L 11.71875 4 
z
" id="DejaVuSans-44"/>
     <path d="M 9.8125 72.90625 
L 19.671875 72.90625 
L 19.671875 42.09375 
L 52.390625 72.90625 
L 65.09375 72.90625 
L 28.90625 38.921875 
L 67.671875 0 
L 54.6875 0 
L 19.671875 35.109375 
L 19.671875 0 
L 9.8125 0 
z
" id="DejaVuSans-75"/>
     <path d="M 54.890625 33.015625 
L 54.890625 0 
L 45.90625 0 
L 45.90625 32.71875 
Q 45.90625 40.484375 42.875 44.328125 
Q 39.84375 48.1875 33.796875 48.1875 
Q 26.515625 48.1875 22.3125 43.546875 
Q 18.109375 38.921875 18.109375 30.90625 
L 18.109375 0 
L 9.078125 0 
L 9.078125 54.6875 
L 18.109375 54.6875 
L 18.109375 46.1875 
Q 21.34375 51.125 25.703125 53.5625 
Q 30.078125 56 35.796875 56 
Q 45.21875 56 50.046875 50.171875 
Q 54.890625 44.34375 54.890625 33.015625 
z
" id="DejaVuSans-110"/>
     <path d="M 30.609375 48.390625 
Q 23.390625 48.390625 19.1875 42.75 
Q 14.984375 37.109375 14.984375 27.296875 
Q 14.984375 17.484375 19.15625 11.84375 
Q 23.34375 6.203125 30.609375 6.203125 
Q 37.796875 6.203125 41.984375 11.859375 
Q 46.1875 17.53125 46.1875 27.296875 
Q 46.1875 37.015625 41.984375 42.703125 
Q 37.796875 48.390625 30.609375 48.390625 
z
M 30.609375 56 
Q 42.328125 56 49.015625 48.375 
Q 55.71875 40.765625 55.71875 27.296875 
Q 55.71875 13.875 49.015625 6.21875 
Q 42.328125 -1.421875 30.609375 -1.421875 
Q 18.84375 -1.421875 12.171875 6.21875 
Q 5.515625 13.875 5.515625 27.296875 
Q 5.515625 40.765625 12.171875 48.375 
Q 18.84375 56 30.609375 56 
z
" id="DejaVuSans-111"/>
     <path d="M 4.203125 54.6875 
L 13.1875 54.6875 
L 24.421875 12.015625 
L 35.59375 54.6875 
L 46.1875 54.6875 
L 57.421875 12.015625 
L 68.609375 54.6875 
L 77.59375 54.6875 
L 63.28125 0 
L 52.6875 0 
L 40.921875 44.828125 
L 29.109375 0 
L 18.5 0 
z
" id="DejaVuSans-119"/>
     <path d="M 10.59375 45.40625 
L 73.1875 45.40625 
L 73.1875 37.203125 
L 10.59375 37.203125 
z
M 10.59375 25.484375 
L 73.1875 25.484375 
L 73.1875 17.1875 
L 10.59375 17.1875 
z
" id="DejaVuSans-61"/>
     <path d="M 9.8125 72.90625 
L 51.703125 72.90625 
L 51.703125 64.59375 
L 19.671875 64.59375 
L 19.671875 43.109375 
L 48.578125 43.109375 
L 48.578125 34.8125 
L 19.671875 34.8125 
L 19.671875 0 
L 9.8125 0 
z
" id="DejaVuSans-70"/>
     <path d="M 34.28125 27.484375 
Q 23.390625 27.484375 19.1875 25 
Q 14.984375 22.515625 14.984375 16.5 
Q 14.984375 11.71875 18.140625 8.90625 
Q 21.296875 6.109375 26.703125 6.109375 
Q 34.1875 6.109375 38.703125 11.40625 
Q 43.21875 16.703125 43.21875 25.484375 
L 43.21875 27.484375 
z
M 52.203125 31.203125 
L 52.203125 0 
L 43.21875 0 
L 43.21875 8.296875 
Q 40.140625 3.328125 35.546875 0.953125 
Q 30.953125 -1.421875 24.3125 -1.421875 
Q 15.921875 -1.421875 10.953125 3.296875 
Q 6 8.015625 6 15.921875 
Q 6 25.140625 12.171875 29.828125 
Q 18.359375 34.515625 30.609375 34.515625 
L 43.21875 34.515625 
L 43.21875 35.40625 
Q 43.21875 41.609375 39.140625 45 
Q 35.0625 48.390625 27.6875 48.390625 
Q 23 48.390625 18.546875 47.265625 
Q 14.109375 46.140625 10.015625 43.890625 
L 10.015625 52.203125 
Q 14.9375 54.109375 19.578125 55.046875 
Q 24.21875 56 28.609375 56 
Q 40.484375 56 46.34375 49.84375 
Q 52.203125 43.703125 52.203125 31.203125 
z
" id="DejaVuSans-97"/>
     <path d="M 9.421875 75.984375 
L 18.40625 75.984375 
L 18.40625 0 
L 9.421875 0 
z
" id="DejaVuSans-108"/>
     <path d="M 19.671875 64.796875 
L 19.671875 8.109375 
L 31.59375 8.109375 
Q 46.6875 8.109375 53.6875 14.9375 
Q 60.6875 21.78125 60.6875 36.53125 
Q 60.6875 51.171875 53.6875 57.984375 
Q 46.6875 64.796875 31.59375 64.796875 
z
M 9.8125 72.90625 
L 30.078125 72.90625 
Q 51.265625 72.90625 61.171875 64.09375 
Q 71.09375 55.28125 71.09375 36.53125 
Q 71.09375 17.671875 61.125 8.828125 
Q 51.171875 0 30.078125 0 
L 9.8125 0 
z
" id="DejaVuSans-68"/>
     <path d="M 45.40625 27.984375 
Q 45.40625 37.75 41.375 43.109375 
Q 37.359375 48.484375 30.078125 48.484375 
Q 22.859375 48.484375 18.828125 43.109375 
Q 14.796875 37.75 14.796875 27.984375 
Q 14.796875 18.265625 18.828125 12.890625 
Q 22.859375 7.515625 30.078125 7.515625 
Q 37.359375 7.515625 41.375 12.890625 
Q 45.40625 18.265625 45.40625 27.984375 
z
M 54.390625 6.78125 
Q 54.390625 -7.171875 48.1875 -13.984375 
Q 42 -20.796875 29.203125 -20.796875 
Q 24.46875 -20.796875 20.265625 -20.09375 
Q 16.0625 -19.390625 12.109375 -17.921875 
L 12.109375 -9.1875 
Q 16.0625 -11.328125 19.921875 -12.34375 
Q 23.78125 -13.375 27.78125 -13.375 
Q 36.625 -13.375 41.015625 -8.765625 
Q 45.40625 -4.15625 45.40625 5.171875 
L 45.40625 9.625 
Q 42.625 4.78125 38.28125 2.390625 
Q 33.9375 0 27.875 0 
Q 17.828125 0 11.671875 7.65625 
Q 5.515625 15.328125 5.515625 27.984375 
Q 5.515625 40.671875 11.671875 48.328125 
Q 17.828125 56 27.875 56 
Q 33.9375 56 38.28125 53.609375 
Q 42.625 51.21875 45.40625 46.390625 
L 45.40625 54.6875 
L 54.390625 54.6875 
z
" id="DejaVuSans-103"/>
     <path d="M 41.109375 46.296875 
Q 39.59375 47.171875 37.8125 47.578125 
Q 36.03125 48 33.890625 48 
Q 26.265625 48 22.1875 43.046875 
Q 18.109375 38.09375 18.109375 28.8125 
L 18.109375 0 
L 9.078125 0 
L 9.078125 54.6875 
L 18.109375 54.6875 
L 18.109375 46.1875 
Q 20.953125 51.171875 25.484375 53.578125 
Q 30.03125 56 36.53125 56 
Q 37.453125 56 38.578125 55.875 
Q 39.703125 55.765625 41.0625 55.515625 
z
" id="DejaVuSans-114"/>
     <path d="M 9.421875 54.6875 
L 18.40625 54.6875 
L 18.40625 0 
L 9.421875 0 
z
M 9.421875 75.984375 
L 18.40625 75.984375 
L 18.40625 64.59375 
L 9.421875 64.59375 
z
" id="DejaVuSans-105"/>
     <path d="M 10.6875 12.40625 
L 21 12.40625 
L 21 0 
L 10.6875 0 
z
" id="DejaVuSans-46"/>
    </defs>
    <g transform="translate(49.741875 35.472)scale(0.12 -0.12)">
     <use xlink:href="#DejaVuSans-40"/>
     <use x="39.013672" xlink:href="#DejaVuSans-54"/>
     <use x="102.636719" xlink:href="#DejaVuSans-56"/>
     <use x="166.259766" xlink:href="#DejaVuSans-41"/>
     <use x="205.273438" xlink:href="#DejaVuSans-32"/>
     <use x="237.060547" xlink:href="#DejaVuSans-83"/>
     <use x="300.537109" xlink:href="#DejaVuSans-117"/>
     <use x="363.916016" xlink:href="#DejaVuSans-98"/>
     <use x="427.392578" xlink:href="#DejaVuSans-106"/>
     <use x="455.175781" xlink:href="#DejaVuSans-101"/>
     <use x="516.699219" xlink:href="#DejaVuSans-99"/>
     <use x="571.679688" xlink:href="#DejaVuSans-116"/>
     <use x="610.888672" xlink:href="#DejaVuSans-58"/>
     <use x="644.580078" xlink:href="#DejaVuSans-32"/>
     <use x="676.367188" xlink:href="#DejaVuSans-115"/>
     <use x="728.466797" xlink:href="#DejaVuSans-49"/>
     <use x="792.089844" xlink:href="#DejaVuSans-55"/>
     <use x="855.712891" xlink:href="#DejaVuSans-44"/>
     <use x="887.5" xlink:href="#DejaVuSans-32"/>
     <use x="919.287109" xlink:href="#DejaVuSans-75"/>
     <use x="984.863281" xlink:href="#DejaVuSans-110"/>
     <use x="1048.242188" xlink:href="#DejaVuSans-111"/>
     <use x="1109.423828" xlink:href="#DejaVuSans-119"/>
     <use x="1191.210938" xlink:href="#DejaVuSans-110"/>
     <use x="1254.589844" xlink:href="#DejaVuSans-32"/>
     <use x="1286.376953" xlink:href="#DejaVuSans-61"/>
     <use x="1370.166016" xlink:href="#DejaVuSans-32"/>
     <use x="1401.953125" xlink:href="#DejaVuSans-70"/>
     <use x="1459.332031" xlink:href="#DejaVuSans-97"/>
     <use x="1520.611328" xlink:href="#DejaVuSans-108"/>
     <use x="1548.394531" xlink:href="#DejaVuSans-115"/>
     <use x="1600.494141" xlink:href="#DejaVuSans-101"/>
     <use x="1662.017578" xlink:href="#DejaVuSans-44"/>
     <use x="1693.804688" xlink:href="#DejaVuSans-32"/>
     <use x="1725.591797" xlink:href="#DejaVuSans-68"/>
     <use x="1802.59375" xlink:href="#DejaVuSans-101"/>
     <use x="1864.117188" xlink:href="#DejaVuSans-103"/>
     <use x="1927.59375" xlink:href="#DejaVuSans-114"/>
     <use x="1968.675781" xlink:href="#DejaVuSans-101"/>
     <use x="2030.199219" xlink:href="#DejaVuSans-101"/>
     <use x="2091.722656" xlink:href="#DejaVuSans-32"/>
     <use x="2123.509766" xlink:href="#DejaVuSans-61"/>
     <use x="2207.298828" xlink:href="#DejaVuSans-32"/>
     <use x="2239.085938" xlink:href="#DejaVuSans-50"/>
     <use x="2302.708984" xlink:href="#DejaVuSans-44"/>
     <use x="2334.496094" xlink:href="#DejaVuSans-32"/>
     <use x="2366.283203" xlink:href="#DejaVuSans-68"/>
     <use x="2443.285156" xlink:href="#DejaVuSans-117"/>
     <use x="2506.664062" xlink:href="#DejaVuSans-114"/>
     <use x="2547.777344" xlink:href="#DejaVuSans-97"/>
     <use x="2609.056641" xlink:href="#DejaVuSans-116"/>
     <use x="2648.265625" xlink:href="#DejaVuSans-105"/>
     <use x="2676.048828" xlink:href="#DejaVuSans-111"/>
     <use x="2737.230469" xlink:href="#DejaVuSans-110"/>
     <use x="2800.609375" xlink:href="#DejaVuSans-32"/>
     <use x="2832.396484" xlink:href="#DejaVuSans-61"/>
     <use x="2916.185547" xlink:href="#DejaVuSans-32"/>
     <use x="2947.972656" xlink:href="#DejaVuSans-48"/>
     <use x="3011.595703" xlink:href="#DejaVuSans-46"/>
     <use x="3043.382812" xlink:href="#DejaVuSans-49"/>
    </g>
   </g>
  </g>
 </g>
 <defs>
  <clipPath id="p6a2efadb21">
   <rect height="266.112" width="357.12" x="57.6" y="41.472"/>
  </clipPath>
 </defs>
</svg>
