<?xml version="1.0" encoding="utf-8" standalone="no"?>
<!DOCTYPE svg PUBLIC "-//W3C//DTD SVG 1.1//EN"
  "http://www.w3.org/Graphics/SVG/1.1/DTD/svg11.dtd">
<!-- Created with matplotlib (https://matplotlib.org/) -->
<svg height="345.6pt" version="1.1" viewBox="0 0 460.8 345.6" width="460.8pt" xmlns="http://www.w3.org/2000/svg" xmlns:xlink="http://www.w3.org/1999/xlink">
 <defs>
  <style type="text/css">
*{stroke-linecap:butt;stroke-linejoin:round;}
  </style>
 </defs>
 <g id="figure_1">
  <g id="patch_1">
   <path d="M 0 345.6 
L 460.8 345.6 
L 460.8 0 
L 0 0 
z
" style="fill:#ffffff;"/>
  </g>
  <g id="axes_1">
   <g id="patch_2">
    <path d="M 57.6 307.584 
L 414.72 307.584 
L 414.72 41.472 
L 57.6 41.472 
z
" style="fill:#ffffff;"/>
   </g>
   <g id="line2d_1">
    <path clip-path="url(#pc31f2e9e59)" d="M 395.543043 239.364737 
L 395.811593 236.458431 
L 396.211144 233.552126 
L 396.345419 233.552126 
L 396.345419 232.583357 
L 396.61397 234.520894 
L 396.748245 236.458431 
L 396.748245 235.489663 
L 396.748245 234.520894 
L 397.016795 232.583357 
L 397.147796 232.583357 
L 397.016795 231.625474 
L 397.016795 230.656706 
L 397.282071 229.687937 
L 397.282071 228.719169 
L 397.416346 228.719169 
L 397.550621 229.687937 
L 397.416346 229.687937 
L 397.550621 228.719169 
L 397.684896 228.719169 
L 397.953447 229.687937 
L 398.087722 230.656706 
L 398.352998 229.687937 
L 398.352998 224.844094 
L 398.487273 223.875326 
L 398.352998 222.906557 
L 398.352998 220.011137 
L 398.352998 220.979906 
L 397.953447 218.0736 
L 397.953447 215.167294 
L 398.087722 215.167294 
L 397.684896 215.167294 
L 397.819172 214.198526 
L 397.953447 212.271874 
L 397.953447 209.365569 
L 398.087722 207.428031 
L 398.352998 209.365569 
L 398.218722 210.334337 
L 397.819172 210.334337 
L 397.416346 209.365569 
L 397.416346 208.3968 
L 397.684896 203.552957 
L 397.684896 203.552957 
L 397.416346 206.459263 
L 397.282071 209.365569 
L 397.550621 203.552957 
L 397.282071 202.584189 
L 396.748245 201.626306 
L 396.748245 201.626306 
L 397.016795 202.584189 
L 397.416346 201.626306 
L 397.416346 198.72 
L 397.147796 196.782463 
L 396.88252 197.751231 
L 396.61397 199.688769 
L 396.479695 202.584189 
L 397.016795 191.949506 
L 396.88252 192.907389 
L 396.61397 194.844926 
L 396.61397 195.813694 
L 396.345419 193.876157 
L 396.345419 188.074431 
L 396.211144 188.074431 
L 396.345419 188.074431 
L 396.479695 190.011969 
L 396.479695 190.011969 
L 396.211144 190.011969 
L 395.811593 189.0432 
L 395.408768 189.0432 
L 395.543043 189.0432 
L 395.543043 190.011969 
L 395.408768 190.980737 
L 395.408768 191.949506 
L 395.274493 190.011969 
L 395.009217 184.199357 
L 394.874942 183.230589 
L 395.009217 181.303937 
L 395.408768 181.303937 
L 395.811593 182.272706 
L 395.811593 182.272706 
L 395.677318 181.303937 
L 395.543043 181.303937 
L 395.274493 182.272706 
L 395.143492 184.199357 
L 395.274493 186.136894 
L 395.408768 186.136894 
L 395.408768 186.136894 
L 395.143492 187.105663 
L 395.408768 186.136894 
L 395.677318 186.136894 
L 395.677318 186.136894 
L 395.677318 188.074431 
L 395.677318 183.230589 
L 395.677318 183.230589 
L 395.811593 184.199357 
L 395.945869 184.199357 
L 395.945869 184.199357 
L 396.080144 185.168126 
L 396.345419 184.199357 
L 396.345419 182.272706 
L 396.211144 182.272706 
L 396.211144 182.272706 
L 396.345419 180.335169 
L 396.211144 179.3664 
L 395.677318 180.335169 
L 395.408768 182.272706 
L 395.811593 183.230589 
L 396.080144 183.230589 
L 396.080144 185.168126 
L 395.945869 186.136894 
L 396.211144 189.0432 
L 396.345419 190.011969 
L 396.61397 190.980737 
L 396.748245 190.980737 
L 396.479695 189.0432 
L 395.811593 186.136894 
L 395.811593 185.168126 
L 396.080144 185.168126 
L 395.945869 185.168126 
L 395.811593 183.230589 
L 395.811593 183.230589 
L 396.345419 185.168126 
L 396.479695 185.168126 
L 396.479695 188.074431 
L 396.479695 188.074431 
L 396.211144 187.105663 
L 396.211144 185.168126 
L 396.345419 184.199357 
L 396.345419 187.105663 
L 396.211144 188.074431 
L 396.080144 187.105663 
L 396.211144 185.168126 
L 396.080144 185.168126 
L 396.080144 187.105663 
L 396.211144 189.0432 
L 395.945869 184.199357 
L 396.080144 188.074431 
L 395.945869 190.011969 
L 395.677318 186.136894 
L 395.945869 189.0432 
L 395.945869 186.136894 
L 395.677318 185.168126 
L 395.543043 186.136894 
L 395.543043 189.0432 
L 395.945869 191.949506 
L 395.677318 192.907389 
L 395.543043 192.907389 
L 395.543043 191.949506 
L 395.677318 191.949506 
L 395.543043 192.907389 
L 395.543043 192.907389 
L 395.811593 192.907389 
L 395.811593 191.949506 
L 395.677318 190.980737 
L 395.009217 191.949506 
L 393.93829 194.844926 
L 392.464538 199.688769 
L 390.591235 206.459263 
L 381.090445 228.719169 
L 376.941013 241.302274 
L 372.526306 253.874494 
L 367.708773 264.520063 
L 362.891241 273.228094 
L 357.939433 281.936126 
L 352.584799 288.717506 
L 346.830615 294.519231 
L 340.942155 295.488 
L 334.922696 294.519231 
L 323.011502 284.842431 
L 311.771684 280.978243 
L 305.883224 278.071937 
L 299.323389 275.165631 
L 287.012644 273.228094 
L 281.52701 271.301443 
L 276.172377 270.332674 
L 270.955293 272.259326 
L 265.86921 271.301443 
L 260.917402 268.395137 
L 255.965594 261.624643 
L 251.013786 255.812031 
L 246.061978 249.041537 
L 240.844895 244.197694 
L 235.893087 238.395969 
L 231.20983 235.489663 
L 226.791847 231.625474 
L 222.511416 228.719169 
L 218.630534 227.7504 
L 215.149204 228.719169 
L 212.070699 227.7504 
L 209.126469 225.812863 
L 204.308936 225.812863 
L 202.972734 223.875326 
L 202.036083 221.948674 
L 201.099431 219.042369 
L 200.16278 218.0736 
L 199.894229 220.011137 
L 200.29378 222.906557 
L 200.696606 222.906557 
L 201.364707 220.979906 
L 202.167083 220.011137 
L 202.704184 219.042369 
L 203.50656 219.042369 
L 204.443212 220.979906 
L 204.980313 223.875326 
L 205.379863 226.781631 
L 205.782689 226.781631 
L 205.916964 225.812863 
L 205.648414 225.812863 
L 205.648414 227.7504 
L 205.782689 230.656706 
L 205.514138 234.520894 
L 205.648414 234.520894 
L 206.047964 235.489663 
L 206.316515 236.458431 
L 206.047964 235.489663 
L 205.648414 234.520894 
L 205.514138 235.489663 
L 205.514138 235.489663 
L 205.648414 236.458431 
L 205.379863 237.4272 
L 204.846037 237.4272 
L 204.711762 238.395969 
L 204.846037 237.4272 
L 204.980313 235.489663 
L 205.245588 235.489663 
L 205.245588 237.4272 
L 205.111313 236.458431 
L 204.980313 232.583357 
L 204.443212 232.583357 
L 204.043661 234.520894 
L 203.909386 238.395969 
L 204.308936 238.395969 
L 204.711762 237.4272 
L 204.846037 237.4272 
L 204.577487 238.395969 
L 204.308936 240.333506 
L 204.308936 241.302274 
L 204.846037 239.364737 
L 204.980313 237.4272 
L 204.980313 237.4272 
L 204.174661 240.333506 
L 204.043661 240.333506 
L 204.308936 239.364737 
L 204.443212 239.364737 
L 204.711762 243.228926 
L 204.308936 243.228926 
L 204.174661 242.260157 
L 203.909386 237.4272 
L 204.043661 239.364737 
L 204.308936 241.302274 
L 204.174661 240.333506 
L 204.174661 239.364737 
L 204.308936 240.333506 
L 204.174661 239.364737 
L 204.043661 239.364737 
L 204.174661 239.364737 
L 203.909386 238.395969 
L 203.775111 238.395969 
L 203.640835 237.4272 
L 203.640835 236.458431 
L 203.640835 236.458431 
L 203.909386 234.520894 
L 204.174661 233.552126 
L 204.174661 232.583357 
L 204.174661 232.583357 
L 204.443212 233.552126 
L 204.443212 233.552126 
L 204.174661 229.687937 
L 203.909386 228.719169 
L 203.775111 229.687937 
L 203.775111 230.656706 
L 204.043661 231.625474 
L 204.174661 231.625474 
L 204.043661 231.625474 
L 203.909386 230.656706 
L 204.443212 226.781631 
L 204.577487 224.844094 
L 204.308936 224.844094 
L 204.043661 225.812863 
L 204.174661 228.719169 
L 204.577487 229.687937 
L 204.846037 230.656706 
L 204.980313 230.656706 
L 205.111313 231.625474 
L 205.111313 232.583357 
L 205.245588 232.583357 
L 205.245588 231.625474 
L 204.980313 229.687937 
L 204.846037 227.7504 
L 204.980313 228.719169 
L 205.111313 229.687937 
L 205.111313 229.687937 
L 205.111313 228.719169 
L 205.379863 224.844094 
L 205.514138 225.812863 
L 205.648414 227.7504 
L 205.514138 228.719169 
L 205.111313 227.7504 
L 204.443212 226.781631 
L 203.775111 227.7504 
L 202.704184 229.687937 
L 201.099431 231.625474 
L 198.957578 230.656706 
L 196.547174 228.719169 
L 193.468669 228.719169 
L 185.706907 230.656706 
L 181.56075 231.625474 
L 161.619243 231.625474 
L 156.40216 230.656706 
L 151.450352 226.781631 
L 142.617663 222.906557 
L 138.602506 220.011137 
L 134.990175 217.104831 
L 132.045946 214.198526 
L 128.967441 212.271874 
L 125.754661 209.365569 
L 118.92955 201.626306 
L 115.98532 199.688769 
L 112.91009 196.782463 
L 109.96586 196.782463 
L 104.208401 202.584189 
L 101.398446 201.626306 
L 98.857042 197.751231 
L 96.446639 196.782463 
L 93.905234 198.72 
L 88.953427 204.521726 
L 86.811573 204.521726 
L 85.072545 203.552957 
L 83.602068 203.552957 
L 82.396866 204.521726 
L 81.460215 205.490494 
L 80.792113 205.490494 
L 79.986462 209.365569 
L 79.721187 209.365569 
L 79.855462 208.3968 
L 80.389288 207.428031 
L 81.057389 208.3968 
L 81.728765 206.459263 
L 82.531141 202.584189 
L 82.930692 201.626306 
L 83.333518 199.688769 
L 83.867343 197.751231 
L 84.404444 198.72 
L 84.803995 201.626306 
L 85.206821 202.584189 
L 85.341096 201.626306 
L 85.206821 200.657537 
L 84.93827 199.688769 
L 85.072545 200.657537 
L 85.475371 200.657537 
L 85.743921 198.72 
L 85.874922 198.72 
L 85.743921 198.72 
L 85.609646 200.657537 
L 85.743921 200.657537 
L 85.743921 199.688769 
L 85.609646 200.657537 
L 85.609646 202.584189 
L 85.743921 204.521726 
L 85.475371 204.521726 
L 85.475371 204.521726 
L 85.874922 205.490494 
L 86.277747 205.490494 
L 86.412022 206.459263 
L 86.009197 206.459263 
L 86.143472 203.552957 
L 86.143472 204.521726 
L 86.143472 207.428031 
L 86.009197 207.428031 
L 86.143472 206.459263 
L 86.277747 204.521726 
L 86.277747 205.490494 
L 86.412022 204.521726 
L 86.546298 205.490494 
L 86.546298 207.428031 
L 86.277747 208.3968 
L 86.143472 208.3968 
L 86.412022 208.3968 
L 86.412022 209.365569 
L 86.143472 211.303106 
L 86.143472 211.303106 
L 86.546298 211.303106 
L 86.412022 211.303106 
L 86.546298 210.334337 
L 86.546298 208.3968 
L 86.412022 207.428031 
L 86.143472 208.3968 
L 85.874922 208.3968 
L 86.009197 207.428031 
L 86.412022 208.3968 
L 86.546298 208.3968 
L 86.277747 209.365569 
L 86.143472 210.334337 
L 86.143472 212.271874 
L 86.546298 213.229757 
L 86.680573 214.198526 
L 86.546298 215.167294 
L 86.412022 214.198526 
L 86.412022 213.229757 
L 86.680573 212.271874 
L 86.945848 212.271874 
L 86.945848 213.229757 
L 86.680573 215.167294 
L 86.546298 214.198526 
L 86.277747 209.365569 
L 86.277747 209.365569 
L 86.546298 210.334337 
L 87.080124 208.3968 
L 87.080124 205.490494 
L 87.080124 206.459263 
L 87.348674 208.3968 
L 87.482949 210.334337 
L 87.617224 209.365569 
L 87.617224 210.334337 
L 87.748225 212.271874 
L 87.748225 214.198526 
L 88.016775 216.136063 
L 87.8825 218.0736 
L 87.748225 217.104831 
L 87.748225 215.167294 
L 88.016775 213.229757 
L 88.419601 211.303106 
L 88.553876 211.303106 
L 88.419601 213.229757 
L 88.15105 215.167294 
L 88.15105 217.104831 
L 88.684876 217.104831 
L 88.819151 216.136063 
L 88.684876 214.198526 
L 88.684876 211.303106 
L 88.684876 213.229757 
L 88.953427 217.104831 
L 88.953427 215.167294 
L 88.819151 210.334337 
L 88.419601 215.167294 
L 88.419601 214.198526 
L 88.285325 213.229757 
L 88.285325 214.198526 
L 88.684876 216.136063 
L 88.819151 215.167294 
L 88.684876 212.271874 
L 88.419601 212.271874 
L 88.419601 216.136063 
L 88.419601 216.136063 
L 88.684876 215.167294 
L 88.819151 213.229757 
L 88.684876 211.303106 
L 88.553876 212.271874 
L 88.684876 213.229757 
L 89.087702 214.198526 
L 89.356252 213.229757 
L 89.490527 212.271874 
L 89.356252 212.271874 
L 89.356252 213.229757 
L 89.490527 214.198526 
L 89.755803 213.229757 
L 89.755803 212.271874 
L 89.624803 211.303106 
L 89.624803 211.303106 
L 89.624803 209.365569 
L 89.755803 206.459263 
L 90.024353 203.552957 
L 90.292904 203.552957 
L 90.82673 207.428031 
L 90.82673 206.459263 
L 90.561454 205.490494 
L 90.427179 205.490494 
L 90.82673 206.459263 
L 91.36383 207.428031 
L 91.498106 206.459263 
L 91.498106 200.657537 
L 91.763381 199.688769 
L 91.897656 199.688769 
L 91.897656 198.72 
L 92.031931 198.72 
L 92.300482 197.751231 
L 92.565757 195.813694 
L 92.700033 193.876157 
L 92.700033 194.844926 
L 92.968583 194.844926 
L 92.968583 191.949506 
L 92.700033 184.199357 
L 92.834308 182.272706 
L 92.565757 179.3664 
L 92.565757 179.3664 
L 92.834308 180.335169 
L 92.834308 182.272706 
L 92.434757 179.3664 
L 92.700033 174.522557 
L 92.434757 171.627137 
L 92.166207 171.627137 
L 92.300482 171.627137 
L 92.300482 170.658369 
L 92.565757 165.814526 
L 92.565757 164.845757 
L 92.434757 163.876989 
L 92.434757 162.919106 
L 92.700033 161.950337 
L 92.834308 160.981569 
L 92.700033 160.981569 
L 92.700033 161.950337 
L 92.700033 160.0128 
L 92.834308 157.106494 
L 92.834308 158.075263 
L 92.968583 160.0128 
L 93.102858 160.0128 
L 93.237133 157.106494 
L 93.237133 152.273537 
L 93.102858 150.336 
L 92.834308 151.304769 
L 92.834308 152.273537 
L 93.102858 150.336 
L 93.636684 150.336 
L 93.102858 150.336 
L 92.700033 149.367231 
L 92.565757 147.429694 
L 92.565757 138.721663 
L 92.565757 138.721663 
L 92.834308 138.721663 
L 92.968583 139.690431 
L 92.968583 140.6592 
L 92.834308 139.690431 
L 92.834308 137.752894 
L 93.371409 132.919937 
L 93.102858 133.87782 
L 92.968583 134.846589 
L 93.102858 135.815357 
L 93.102858 135.815357 
L 93.102858 134.846589 
L 93.237133 131.951169 
L 93.505684 128.076094 
L 93.371409 127.107326 
L 93.237133 128.076094 
L 93.371409 129.044863 
L 93.371409 130.013631 
L 93.371409 130.013631 
L 93.237133 129.044863 
L 93.371409 128.076094 
L 93.636684 128.076094 
L 93.770959 129.044863 
L 93.770959 130.013631 
L 94.03951 130.9824 
L 94.173785 131.951169 
L 93.905234 132.919937 
L 93.770959 131.951169 
L 93.770959 129.044863 
L 94.03951 126.138557 
L 94.30806 125.169789 
L 94.573336 127.107326 
L 94.841886 125.169789 
L 95.110436 121.3056 
L 94.707611 122.274369 
L 94.573336 123.243137 
L 94.707611 124.20102 
L 94.841886 124.20102 
L 94.573336 126.138557 
L 94.573336 126.138557 
L 94.841886 126.138557 
L 95.378987 122.274369 
L 95.244712 121.3056 
L 95.244712 122.274369 
L 95.110436 124.20102 
L 94.976161 124.20102 
L 94.841886 125.169789 
L 94.841886 126.138557 
L 94.976161 126.138557 
L 95.110436 124.20102 
L 95.378987 122.274369 
L 95.644262 121.3056 
L 95.509987 120.336831 
L 95.378987 120.336831 
L 95.378987 121.3056 
L 95.509987 122.274369 
L 95.378987 125.169789 
L 95.110436 125.169789 
L 95.378987 122.274369 
L 95.778537 119.368063 
L 95.644262 119.368063 
L 95.378987 121.3056 
L 95.509987 124.20102 
L 95.778537 122.274369 
L 95.778537 120.336831 
L 95.509987 120.336831 
L 95.378987 121.3056 
L 96.181363 121.3056 
L 96.181363 120.336831 
L 95.778537 119.368063 
L 95.378987 119.368063 
L 95.778537 119.368063 
L 96.047088 120.336831 
L 95.912813 121.3056 
L 95.378987 119.368063 
L 95.378987 119.368063 
L 95.509987 120.336831 
L 95.778537 120.336831 
L 96.047088 119.368063 
L 96.181363 116.461757 
L 95.778537 116.461757 
L 95.509987 117.430526 
L 95.644262 117.430526 
L 96.047088 118.399294 
L 96.047088 118.399294 
L 95.912813 118.399294 
L 95.778537 117.430526 
L 96.047088 115.492989 
L 96.181363 112.597569 
L 95.644262 109.691263 
L 96.047088 115.492989 
L 95.912813 112.597569 
L 95.644262 111.6288 
L 95.778537 110.660031 
L 95.912813 110.660031 
L 96.047088 109.691263 
L 96.047088 110.660031 
L 95.778537 112.597569 
L 95.509987 113.555452 
L 95.509987 116.461757 
L 95.778537 116.461757 
L 96.446639 114.52422 
L 97.25229 108.722494 
L 98.323217 104.84742 
L 101.398446 104.84742 
L 103.5403 102.920769 
L 109.69731 92.2752 
L 113.578191 87.431357 
L 117.459072 84.525052 
L 121.608504 81.629631 
L 126.157486 75.81702 
L 130.706468 71.952831 
L 134.990175 68.077757 
L 138.736781 65.171452 
L 142.617663 64.202683 
L 146.632819 65.171452 
L 153.723205 70.984063 
L 156.935985 72.9216 
L 159.74594 72.9216 
L 164.966298 70.984063 
L 167.776253 71.952831 
L 170.989033 72.9216 
L 174.467089 70.984063 
L 178.079419 70.015294 
L 181.695025 70.984063 
L 185.307356 70.984063 
L 188.785412 69.046526 
L 192.401017 66.14022 
L 195.879073 64.202683 
L 202.704184 64.202683 
L 205.916964 63.2448 
L 211.805423 57.432189 
L 217.156782 55.494652 
L 223.847618 55.494652 
L 225.586646 56.46342 
L 227.459949 56.46342 
L 227.862774 57.432189 
L 228.2656 60.338494 
L 228.3966 60.338494 
L 228.131325 60.338494 
L 227.862774 61.307263 
L 227.459949 63.2448 
L 226.926123 63.2448 
L 226.523297 64.202683 
L 225.989471 65.171452 
L 225.45237 64.202683 
L 224.784269 61.307263 
L 224.649994 59.369726 
L 224.649994 59.369726 
L 224.649994 61.307263 
L 224.515719 62.276031 
L 224.515719 62.276031 
L 224.515719 61.307263 
L 224.384719 60.338494 
L 224.384719 60.338494 
L 224.116168 59.369726 
L 223.713343 59.369726 
L 223.713343 60.338494 
L 223.579067 63.2448 
L 223.179517 66.14022 
L 223.045241 66.14022 
L 223.448067 63.2448 
L 223.448067 62.276031 
L 223.045241 62.276031 
L 222.776691 63.2448 
L 223.045241 63.2448 
L 223.045241 62.276031 
L 222.776691 62.276031 
L 222.642416 63.2448 
L 222.776691 64.202683 
L 222.910966 63.2448 
L 222.910966 62.276031 
L 222.37714 58.400957 
L 222.511416 56.46342 
L 222.37714 55.494652 
L 222.10859 56.46342 
L 221.705764 61.307263 
L 221.705764 59.369726 
L 221.84004 57.432189 
L 221.705764 58.400957 
L 221.571489 59.369726 
L 220.769113 61.307263 
L 220.769113 62.276031 
L 221.037663 62.276031 
L 221.171938 61.307263 
L 221.171938 61.307263 
L 220.903388 59.369726 
L 220.369562 58.400957 
L 220.101012 56.46342 
L 220.101012 54.525883 
L 220.235287 53.568 
L 220.235287 53.568 
L 220.235287 56.46342 
L 219.832461 59.369726 
L 220.101012 55.494652 
L 220.101012 55.494652 
L 219.832461 55.494652 
L 219.567186 54.525883 
L 219.567186 53.568 
L 219.567186 55.494652 
L 219.298635 58.400957 
L 219.298635 58.400957 
L 219.432911 59.369726 
L 219.432911 59.369726 
L 219.298635 59.369726 
L 219.432911 57.432189 
L 219.432911 55.494652 
L 219.298635 53.568 
L 219.432911 54.525883 
L 219.567186 55.494652 
L 219.567186 55.494652 
L 219.298635 55.494652 
L 219.16436 56.46342 
L 219.16436 60.338494 
L 219.030085 58.400957 
L 218.761535 57.432189 
L 218.761535 58.400957 
L 219.030085 56.46342 
L 218.89581 55.494652 
L 218.761535 56.46342 
L 218.761535 60.338494 
L 218.630534 61.307263 
L 218.361984 59.369726 
L 218.630534 59.369726 
L 218.761535 61.307263 
L 218.496259 65.171452 
L 218.361984 64.202683 
L 218.227709 61.307263 
L 218.361984 59.369726 
L 218.496259 60.338494 
L 218.496259 61.307263 
L 218.496259 58.400957 
L 218.761535 57.432189 
L 218.89581 57.432189 
L 218.761535 56.46342 
L 218.361984 56.46342 
L 218.227709 58.400957 
L 218.361984 60.338494 
L 218.227709 60.338494 
L 218.227709 58.400957 
L 218.227709 64.202683 
L 217.959158 62.276031 
L 217.824883 59.369726 
L 217.959158 58.400957 
L 217.824883 58.400957 
L 217.690608 59.369726 
L 217.425332 64.202683 
L 217.291057 64.202683 
L 217.291057 61.307263 
L 217.425332 63.2448 
L 217.291057 62.276031 
L 217.022507 61.307263 
L 216.888232 60.338494 
L 216.753956 60.338494 
L 217.022507 60.338494 
L 217.022507 61.307263 
L 216.888232 61.307263 
L 216.753956 60.338494 
L 216.753956 59.369726 
L 217.022507 58.400957 
L 216.888232 60.338494 
L 216.888232 67.108989 
L 216.753956 68.077757 
L 216.488681 66.14022 
L 216.488681 66.14022 
L 216.488681 65.171452 
L 216.354406 63.2448 
L 216.085855 62.276031 
L 215.95158 64.202683 
L 215.95158 66.14022 
L 216.220131 65.171452 
L 216.488681 62.276031 
L 216.622956 62.276031 
L 216.622956 64.202683 
L 216.354406 65.171452 
L 215.686305 62.276031 
L 215.686305 63.2448 
L 215.817305 62.276031 
L 215.817305 59.369726 
L 215.686305 59.369726 
L 215.283479 64.202683 
L 215.417754 64.202683 
L 215.417754 63.2448 
L 215.417754 64.202683 
L 215.552029 65.171452 
L 215.817305 65.171452 
L 215.95158 64.202683 
L 215.95158 63.2448 
L 215.817305 62.276031 
L 215.552029 62.276031 
L 215.552029 62.276031 
L 215.817305 64.202683 
L 215.95158 64.202683 
L 215.95158 63.2448 
L 215.817305 62.276031 
L 215.686305 63.2448 
L 215.817305 63.2448 
L 215.95158 64.202683 
L 216.085855 66.14022 
L 215.817305 67.108989 
L 215.552029 66.14022 
L 215.417754 64.202683 
L 215.283479 65.171452 
L 215.149204 67.108989 
L 215.149204 67.108989 
L 215.417754 67.108989 
L 215.552029 66.14022 
L 215.417754 64.202683 
L 215.283479 65.171452 
L 215.283479 67.108989 
L 215.417754 70.015294 
L 215.014929 70.015294 
L 214.749653 70.984063 
L 215.014929 71.952831 
L 215.283479 70.984063 
L 215.417754 68.077757 
L 215.417754 63.2448 
L 215.014929 63.2448 
L 215.283479 63.2448 
L 215.417754 65.171452 
L 215.149204 66.14022 
L 214.880653 65.171452 
L 214.615378 66.14022 
L 214.481103 69.046526 
L 214.346828 69.046526 
L 214.346828 67.108989 
L 214.481103 66.14022 
L 214.481103 66.14022 
L 214.346828 66.14022 
L 214.615378 66.14022 
L 214.615378 65.171452 
L 214.615378 66.14022 
L 214.880653 67.108989 
L 215.014929 69.046526 
L 214.615378 71.952831 
L 214.749653 71.952831 
L 214.749653 70.984063 
L 214.481103 66.14022 
L 214.212552 64.202683 
L 212.339249 64.202683 
L 211.268323 67.108989 
L 210.063121 69.046526 
L 208.458368 69.046526 
L 206.316515 70.984063 
L 203.640835 73.890369 
L 200.696606 75.81702 
L 197.34955 76.785789 
L 193.737219 80.660863 
L 189.722063 85.49382 
L 185.841182 88.400126 
L 181.695025 93.243969 
L 172.862336 102.920769 
L 168.712904 106.784957 
L 164.697748 106.784957 
L 160.951142 107.753726 
L 157.338811 109.691263 
L 153.723205 112.597569 
L 150.110875 116.461757 
L 146.498544 118.399294 
L 143.017213 117.430526 
L 139.673433 114.52422 
L 136.460653 112.597569 
L 133.116872 111.6288 
L 129.635542 113.555452 
L 126.157486 113.555452 
L 122.41088 114.52422 
L 118.261448 117.430526 
L 114.246292 119.368063 
L 110.365411 119.368063 
L 106.887355 118.399294 
L 103.5403 119.368063 
L 100.19652 122.274369 
L 96.983739 126.138557 
L 93.770959 127.107326 
L 90.561454 125.169789 
L 87.482949 122.274369 
L 84.672995 122.274369 
L 79.855462 124.20102 
L 77.847884 125.169789 
L 76.239856 128.076094 
L 75.037929 128.076094 
L 74.232278 126.138557 
L 73.832727 123.243137 
L 74.232278 114.52422 
L 74.635104 112.597569 
L 75.303205 111.6288 
L 76.642682 113.555452 
L 77.445058 112.597569 
L 79.049811 112.597569 
L 80.120737 110.660031 
L 80.523563 110.660031 
L 81.191664 113.555452 
L 81.59449 108.722494 
L 81.59449 109.691263 
L 81.59449 109.691263 
L 81.86304 108.722494 
L 81.99404 107.753726 
L 81.99404 108.722494 
L 81.728765 109.691263 
L 81.59449 109.691263 
L 81.460215 108.722494 
L 81.59449 107.753726 
L 81.86304 108.722494 
L 82.128316 112.597569 
L 82.128316 115.492989 
L 81.86304 116.461757 
L 81.59449 114.52422 
L 82.799692 114.52422 
L 82.531141 114.52422 
L 82.262591 115.492989 
L 82.665416 115.492989 
L 83.333518 110.660031 
L 83.467793 108.722494 
L 83.333518 107.753726 
L 83.333518 107.753726 
L 83.867343 109.691263 
L 84.270169 107.753726 
L 84.538719 105.816189 
L 84.672995 107.753726 
L 84.672995 107.753726 
L 84.672995 104.84742 
L 84.93827 100.983231 
L 84.93827 102.920769 
L 84.672995 102.920769 
L 84.672995 100.983231 
L 84.93827 99.045694 
L 85.206821 98.076926 
L 84.803995 102.920769 
L 85.206821 97.108157 
L 85.206821 94.201852 
L 84.93827 93.243969 
L 84.803995 93.243969 
L 84.803995 92.2752 
L 84.803995 93.243969 
L 84.93827 93.243969 
L 84.93827 92.2752 
L 84.672995 90.337663 
L 84.672995 90.337663 
L 84.672995 89.368894 
L 84.93827 86.462589 
L 84.93827 84.525052 
L 84.270169 84.525052 
L 84.135894 85.49382 
L 84.538719 88.400126 
L 84.93827 88.400126 
L 85.072545 87.431357 
L 84.270169 80.660863 
L 84.135894 81.629631 
L 84.270169 83.567169 
L 84.672995 84.525052 
L 84.803995 83.567169 
L 84.538719 80.660863 
L 83.867343 80.660863 
L 83.467793 81.629631 
L 83.602068 82.5984 
L 83.736343 82.5984 
L 83.867343 81.629631 
L 83.867343 79.692094 
L 83.736343 78.723326 
L 83.736343 78.723326 
L 83.867343 78.723326 
L 83.867343 77.754557 
L 84.001619 76.785789 
L 83.867343 75.81702 
L 83.467793 74.848252 
L 83.199242 75.81702 
L 83.064967 77.754557 
L 83.199242 78.723326 
L 83.199242 76.785789 
L 82.930692 73.890369 
L 82.930692 71.952831 
L 83.064967 70.984063 
L 83.736343 70.984063 
L 83.736343 71.952831 
L 83.602068 72.9216 
L 83.602068 71.952831 
L 83.736343 70.984063 
L 83.867343 71.952831 
L 83.867343 73.890369 
L 83.602068 75.81702 
L 83.602068 74.848252 
L 83.467793 72.9216 
L 83.467793 72.9216 
L 83.467793 74.848252 
L 83.602068 74.848252 
L 83.736343 71.952831 
L 83.736343 71.952831 
L 83.602068 71.952831 
L 83.602068 72.9216 
L 83.602068 70.015294 
L 83.602068 70.984063 
L 83.867343 71.952831 
L 84.001619 71.952831 
L 84.270169 75.81702 
L 84.404444 75.81702 
L 84.135894 73.890369 
L 84.135894 71.952831 
L 84.404444 70.984063 
L 84.672995 71.952831 
L 84.672995 72.9216 
L 84.538719 73.890369 
L 84.404444 73.890369 
L 84.404444 72.9216 
L 84.538719 71.952831 
L 84.93827 70.984063 
L 85.072545 70.015294 
L 84.93827 70.984063 
L 84.672995 71.952831 
L 84.538719 70.984063 
L 84.404444 68.077757 
L 84.538719 68.077757 
L 84.538719 70.984063 
L 84.270169 72.9216 
L 84.270169 74.848252 
L 84.538719 75.81702 
L 84.803995 75.81702 
L 85.072545 76.785789 
L 84.93827 76.785789 
L 84.93827 76.785789 
L 84.93827 75.81702 
L 85.072545 73.890369 
L 84.93827 71.952831 
L 84.672995 71.952831 
L 84.404444 73.890369 
L 84.404444 73.890369 
L 84.803995 69.046526 
L 84.93827 69.046526 
L 84.93827 70.984063 
L 84.803995 72.9216 
L 84.93827 71.952831 
L 85.072545 72.9216 
L 85.072545 73.890369 
L 85.072545 73.890369 
L 85.206821 72.9216 
L 85.475371 71.952831 
L 85.609646 72.9216 
L 85.874922 75.81702 
L 85.874922 75.81702 
L 85.072545 75.81702 
L 84.803995 74.848252 
L 84.803995 72.9216 
L 84.803995 72.9216 
L 85.072545 73.890369 
L 85.743921 73.890369 
L 85.743921 76.785789 
L 85.475371 78.723326 
L 85.475371 75.81702 
L 85.341096 75.81702 
L 85.206821 76.785789 
L 85.206821 76.785789 
L 85.609646 76.785789 
L 85.206821 79.692094 
L 84.803995 79.692094 
L 84.803995 78.723326 
L 84.93827 78.723326 
L 85.206821 81.629631 
L 85.341096 82.5984 
L 85.475371 81.629631 
L 85.341096 80.660863 
L 85.072545 80.660863 
L 85.072545 80.660863 
L 85.206821 81.629631 
L 84.93827 80.660863 
L 84.803995 78.723326 
L 84.672995 78.723326 
L 84.672995 81.629631 
L 84.404444 83.567169 
L 84.404444 84.525052 
L 84.538719 82.5984 
L 84.672995 82.5984 
L 84.672995 83.567169 
L 84.803995 83.567169 
L 85.072545 82.5984 
L 85.341096 78.723326 
L 85.206821 77.754557 
L 84.93827 77.754557 
L 84.404444 80.660863 
L 84.270169 80.660863 
L 84.538719 78.723326 
L 85.072545 77.754557 
L 85.206821 78.723326 
L 85.072545 78.723326 
L 85.072545 81.629631 
L 84.803995 85.49382 
L 84.672995 86.462589 
L 84.672995 85.49382 
L 84.803995 82.5984 
L 84.672995 83.567169 
L 84.803995 85.49382 
L 84.93827 85.49382 
L 84.803995 84.525052 
L 84.803995 82.5984 
L 84.672995 82.5984 
L 84.672995 82.5984 
" style="fill:none;stroke:#1f77b4;stroke-linecap:square;stroke-width:1.5;"/>
   </g>
   <g id="matplotlib.axis_1">
    <g id="xtick_1">
     <g id="line2d_2">
      <defs>
       <path d="M 0 0 
L 0 3.5 
" id="mf22fd9333b" style="stroke:#000000;stroke-width:0.8;"/>
      </defs>
      <g>
       <use style="stroke:#000000;stroke-width:0.8;" x="107.941907" xlink:href="#mf22fd9333b" y="307.584"/>
      </g>
     </g>
     <g id="text_1">
      <!-- −400 -->
      <defs>
       <path d="M 10.59375 35.5 
L 73.1875 35.5 
L 73.1875 27.203125 
L 10.59375 27.203125 
z
" id="DejaVuSans-8722"/>
       <path d="M 37.796875 64.3125 
L 12.890625 25.390625 
L 37.796875 25.390625 
z
M 35.203125 72.90625 
L 47.609375 72.90625 
L 47.609375 25.390625 
L 58.015625 25.390625 
L 58.015625 17.1875 
L 47.609375 17.1875 
L 47.609375 0 
L 37.796875 0 
L 37.796875 17.1875 
L 4.890625 17.1875 
L 4.890625 26.703125 
z
" id="DejaVuSans-52"/>
       <path d="M 31.78125 66.40625 
Q 24.171875 66.40625 20.328125 58.90625 
Q 16.5 51.421875 16.5 36.375 
Q 16.5 21.390625 20.328125 13.890625 
Q 24.171875 6.390625 31.78125 6.390625 
Q 39.453125 6.390625 43.28125 13.890625 
Q 47.125 21.390625 47.125 36.375 
Q 47.125 51.421875 43.28125 58.90625 
Q 39.453125 66.40625 31.78125 66.40625 
z
M 31.78125 74.21875 
Q 44.046875 74.21875 50.515625 64.515625 
Q 56.984375 54.828125 56.984375 36.375 
Q 56.984375 17.96875 50.515625 8.265625 
Q 44.046875 -1.421875 31.78125 -1.421875 
Q 19.53125 -1.421875 13.0625 8.265625 
Q 6.59375 17.96875 6.59375 36.375 
Q 6.59375 54.828125 13.0625 64.515625 
Q 19.53125 74.21875 31.78125 74.21875 
z
" id="DejaVuSans-48"/>
      </defs>
      <g transform="translate(94.208313 322.182437)scale(0.1 -0.1)">
       <use xlink:href="#DejaVuSans-8722"/>
       <use x="83.789062" xlink:href="#DejaVuSans-52"/>
       <use x="147.412109" xlink:href="#DejaVuSans-48"/>
       <use x="211.035156" xlink:href="#DejaVuSans-48"/>
      </g>
     </g>
    </g>
    <g id="xtick_2">
     <g id="line2d_3">
      <g>
       <use style="stroke:#000000;stroke-width:0.8;" x="173.442012" xlink:href="#mf22fd9333b" y="307.584"/>
      </g>
     </g>
     <g id="text_2">
      <!-- −200 -->
      <defs>
       <path d="M 19.1875 8.296875 
L 53.609375 8.296875 
L 53.609375 0 
L 7.328125 0 
L 7.328125 8.296875 
Q 12.9375 14.109375 22.625 23.890625 
Q 32.328125 33.6875 34.8125 36.53125 
Q 39.546875 41.84375 41.421875 45.53125 
Q 43.3125 49.21875 43.3125 52.78125 
Q 43.3125 58.59375 39.234375 62.25 
Q 35.15625 65.921875 28.609375 65.921875 
Q 23.96875 65.921875 18.8125 64.3125 
Q 13.671875 62.703125 7.8125 59.421875 
L 7.8125 69.390625 
Q 13.765625 71.78125 18.9375 73 
Q 24.125 74.21875 28.421875 74.21875 
Q 39.75 74.21875 46.484375 68.546875 
Q 53.21875 62.890625 53.21875 53.421875 
Q 53.21875 48.921875 51.53125 44.890625 
Q 49.859375 40.875 45.40625 35.40625 
Q 44.1875 33.984375 37.640625 27.21875 
Q 31.109375 20.453125 19.1875 8.296875 
z
" id="DejaVuSans-50"/>
      </defs>
      <g transform="translate(159.708418 322.182437)scale(0.1 -0.1)">
       <use xlink:href="#DejaVuSans-8722"/>
       <use x="83.789062" xlink:href="#DejaVuSans-50"/>
       <use x="147.412109" xlink:href="#DejaVuSans-48"/>
       <use x="211.035156" xlink:href="#DejaVuSans-48"/>
      </g>
     </g>
    </g>
    <g id="xtick_3">
     <g id="line2d_4">
      <g>
       <use style="stroke:#000000;stroke-width:0.8;" x="238.942117" xlink:href="#mf22fd9333b" y="307.584"/>
      </g>
     </g>
     <g id="text_3">
      <!-- 0 -->
      <g transform="translate(235.760867 322.182437)scale(0.1 -0.1)">
       <use xlink:href="#DejaVuSans-48"/>
      </g>
     </g>
    </g>
    <g id="xtick_4">
     <g id="line2d_5">
      <g>
       <use style="stroke:#000000;stroke-width:0.8;" x="304.442222" xlink:href="#mf22fd9333b" y="307.584"/>
      </g>
     </g>
     <g id="text_4">
      <!-- 200 -->
      <g transform="translate(294.898472 322.182437)scale(0.1 -0.1)">
       <use xlink:href="#DejaVuSans-50"/>
       <use x="63.623047" xlink:href="#DejaVuSans-48"/>
       <use x="127.246094" xlink:href="#DejaVuSans-48"/>
      </g>
     </g>
    </g>
    <g id="xtick_5">
     <g id="line2d_6">
      <g>
       <use style="stroke:#000000;stroke-width:0.8;" x="369.942327" xlink:href="#mf22fd9333b" y="307.584"/>
      </g>
     </g>
     <g id="text_5">
      <!-- 400 -->
      <g transform="translate(360.398577 322.182437)scale(0.1 -0.1)">
       <use xlink:href="#DejaVuSans-52"/>
       <use x="63.623047" xlink:href="#DejaVuSans-48"/>
       <use x="127.246094" xlink:href="#DejaVuSans-48"/>
      </g>
     </g>
    </g>
   </g>
   <g id="matplotlib.axis_2">
    <g id="ytick_1">
     <g id="line2d_7">
      <defs>
       <path d="M 0 0 
L -3.5 0 
" id="mbc6adba847" style="stroke:#000000;stroke-width:0.8;"/>
      </defs>
      <g>
       <use style="stroke:#000000;stroke-width:0.8;" x="57.6" xlink:href="#mbc6adba847" y="298.938557"/>
      </g>
     </g>
     <g id="text_6">
      <!-- −750 -->
      <defs>
       <path d="M 8.203125 72.90625 
L 55.078125 72.90625 
L 55.078125 68.703125 
L 28.609375 0 
L 18.3125 0 
L 43.21875 64.59375 
L 8.203125 64.59375 
z
" id="DejaVuSans-55"/>
       <path d="M 10.796875 72.90625 
L 49.515625 72.90625 
L 49.515625 64.59375 
L 19.828125 64.59375 
L 19.828125 46.734375 
Q 21.96875 47.46875 24.109375 47.828125 
Q 26.265625 48.1875 28.421875 48.1875 
Q 40.625 48.1875 47.75 41.5 
Q 54.890625 34.8125 54.890625 23.390625 
Q 54.890625 11.625 47.5625 5.09375 
Q 40.234375 -1.421875 26.90625 -1.421875 
Q 22.3125 -1.421875 17.546875 -0.640625 
Q 12.796875 0.140625 7.71875 1.703125 
L 7.71875 11.625 
Q 12.109375 9.234375 16.796875 8.0625 
Q 21.484375 6.890625 26.703125 6.890625 
Q 35.15625 6.890625 40.078125 11.328125 
Q 45.015625 15.765625 45.015625 23.390625 
Q 45.015625 31 40.078125 35.4375 
Q 35.15625 39.890625 26.703125 39.890625 
Q 22.75 39.890625 18.8125 39.015625 
Q 14.890625 38.140625 10.796875 36.28125 
z
" id="DejaVuSans-53"/>
      </defs>
      <g transform="translate(23.132812 302.737776)scale(0.1 -0.1)">
       <use xlink:href="#DejaVuSans-8722"/>
       <use x="83.789062" xlink:href="#DejaVuSans-55"/>
       <use x="147.412109" xlink:href="#DejaVuSans-53"/>
       <use x="211.035156" xlink:href="#DejaVuSans-48"/>
      </g>
     </g>
    </g>
    <g id="ytick_2">
     <g id="line2d_8">
      <g>
       <use style="stroke:#000000;stroke-width:0.8;" x="57.6" xlink:href="#mbc6adba847" y="244.513361"/>
      </g>
     </g>
     <g id="text_7">
      <!-- −700 -->
      <g transform="translate(23.132812 248.312579)scale(0.1 -0.1)">
       <use xlink:href="#DejaVuSans-8722"/>
       <use x="83.789062" xlink:href="#DejaVuSans-55"/>
       <use x="147.412109" xlink:href="#DejaVuSans-48"/>
       <use x="211.035156" xlink:href="#DejaVuSans-48"/>
      </g>
     </g>
    </g>
    <g id="ytick_3">
     <g id="line2d_9">
      <g>
       <use style="stroke:#000000;stroke-width:0.8;" x="57.6" xlink:href="#mbc6adba847" y="190.088164"/>
      </g>
     </g>
     <g id="text_8">
      <!-- −650 -->
      <defs>
       <path d="M 33.015625 40.375 
Q 26.375 40.375 22.484375 35.828125 
Q 18.609375 31.296875 18.609375 23.390625 
Q 18.609375 15.53125 22.484375 10.953125 
Q 26.375 6.390625 33.015625 6.390625 
Q 39.65625 6.390625 43.53125 10.953125 
Q 47.40625 15.53125 47.40625 23.390625 
Q 47.40625 31.296875 43.53125 35.828125 
Q 39.65625 40.375 33.015625 40.375 
z
M 52.59375 71.296875 
L 52.59375 62.3125 
Q 48.875 64.0625 45.09375 64.984375 
Q 41.3125 65.921875 37.59375 65.921875 
Q 27.828125 65.921875 22.671875 59.328125 
Q 17.53125 52.734375 16.796875 39.40625 
Q 19.671875 43.65625 24.015625 45.921875 
Q 28.375 48.1875 33.59375 48.1875 
Q 44.578125 48.1875 50.953125 41.515625 
Q 57.328125 34.859375 57.328125 23.390625 
Q 57.328125 12.15625 50.6875 5.359375 
Q 44.046875 -1.421875 33.015625 -1.421875 
Q 20.359375 -1.421875 13.671875 8.265625 
Q 6.984375 17.96875 6.984375 36.375 
Q 6.984375 53.65625 15.1875 63.9375 
Q 23.390625 74.21875 37.203125 74.21875 
Q 40.921875 74.21875 44.703125 73.484375 
Q 48.484375 72.75 52.59375 71.296875 
z
" id="DejaVuSans-54"/>
      </defs>
      <g transform="translate(23.132812 193.887383)scale(0.1 -0.1)">
       <use xlink:href="#DejaVuSans-8722"/>
       <use x="83.789062" xlink:href="#DejaVuSans-54"/>
       <use x="147.412109" xlink:href="#DejaVuSans-53"/>
       <use x="211.035156" xlink:href="#DejaVuSans-48"/>
      </g>
     </g>
    </g>
    <g id="ytick_4">
     <g id="line2d_10">
      <g>
       <use style="stroke:#000000;stroke-width:0.8;" x="57.6" xlink:href="#mbc6adba847" y="135.662967"/>
      </g>
     </g>
     <g id="text_9">
      <!-- −600 -->
      <g transform="translate(23.132812 139.462186)scale(0.1 -0.1)">
       <use xlink:href="#DejaVuSans-8722"/>
       <use x="83.789062" xlink:href="#DejaVuSans-54"/>
       <use x="147.412109" xlink:href="#DejaVuSans-48"/>
       <use x="211.035156" xlink:href="#DejaVuSans-48"/>
      </g>
     </g>
    </g>
    <g id="ytick_5">
     <g id="line2d_11">
      <g>
       <use style="stroke:#000000;stroke-width:0.8;" x="57.6" xlink:href="#mbc6adba847" y="81.23777"/>
      </g>
     </g>
     <g id="text_10">
      <!-- −550 -->
      <g transform="translate(23.132812 85.036989)scale(0.1 -0.1)">
       <use xlink:href="#DejaVuSans-8722"/>
       <use x="83.789062" xlink:href="#DejaVuSans-53"/>
       <use x="147.412109" xlink:href="#DejaVuSans-53"/>
       <use x="211.035156" xlink:href="#DejaVuSans-48"/>
      </g>
     </g>
    </g>
   </g>
   <g id="line2d_12">
    <path clip-path="url(#pc31f2e9e59)" d="M 393.934952 203.313907 
L 208.416686 234.272871 
L 91.205459 208.040992 
L 97.517325 129.313171 
L 214.305111 64.337883 
L 85.380138 88.824486 
" style="fill:none;stroke:#ff0000;stroke-linecap:square;stroke-width:0.5;"/>
   </g>
   <g id="patch_3">
    <path d="M 57.6 307.584 
L 57.6 41.472 
" style="fill:none;stroke:#000000;stroke-linecap:square;stroke-linejoin:miter;stroke-width:0.8;"/>
   </g>
   <g id="patch_4">
    <path d="M 414.72 307.584 
L 414.72 41.472 
" style="fill:none;stroke:#000000;stroke-linecap:square;stroke-linejoin:miter;stroke-width:0.8;"/>
   </g>
   <g id="patch_5">
    <path d="M 57.6 307.584 
L 414.72 307.584 
" style="fill:none;stroke:#000000;stroke-linecap:square;stroke-linejoin:miter;stroke-width:0.8;"/>
   </g>
   <g id="patch_6">
    <path d="M 57.6 41.472 
L 414.72 41.472 
" style="fill:none;stroke:#000000;stroke-linecap:square;stroke-linejoin:miter;stroke-width:0.8;"/>
   </g>
   <g id="PathCollection_1">
    <defs>
     <path d="M 0 2.738613 
C 0.726289 2.738613 1.422928 2.450055 1.936492 1.936492 
C 2.450055 1.422928 2.738613 0.726289 2.738613 0 
C 2.738613 -0.726289 2.450055 -1.422928 1.936492 -1.936492 
C 1.422928 -2.450055 0.726289 -2.738613 0 -2.738613 
C -0.726289 -2.738613 -1.422928 -2.450055 -1.936492 -1.936492 
C -2.450055 -1.422928 -2.738613 -0.726289 -2.738613 0 
C -2.738613 0.726289 -2.450055 1.422928 -1.936492 1.936492 
C -1.422928 2.450055 -0.726289 2.738613 0 2.738613 
z
" id="m046df7a0be" style="stroke:#ff0000;"/>
    </defs>
    <g clip-path="url(#pc31f2e9e59)">
     <use style="fill:#ff0000;stroke:#ff0000;" x="393.934952" xlink:href="#m046df7a0be" y="203.313907"/>
     <use style="fill:#ff0000;stroke:#ff0000;" x="208.416686" xlink:href="#m046df7a0be" y="234.272871"/>
     <use style="fill:#ff0000;stroke:#ff0000;" x="91.205459" xlink:href="#m046df7a0be" y="208.040992"/>
     <use style="fill:#ff0000;stroke:#ff0000;" x="97.517325" xlink:href="#m046df7a0be" y="129.313171"/>
     <use style="fill:#ff0000;stroke:#ff0000;" x="214.305111" xlink:href="#m046df7a0be" y="64.337883"/>
     <use style="fill:#ff0000;stroke:#ff0000;" x="85.380138" xlink:href="#m046df7a0be" y="88.824486"/>
    </g>
   </g>
   <g id="text_11">
    <!-- (69) Subject: s7, Known = False, Degree = 2, Duration = 0.1 -->
    <defs>
     <path d="M 31 75.875 
Q 24.46875 64.65625 21.28125 53.65625 
Q 18.109375 42.671875 18.109375 31.390625 
Q 18.109375 20.125 21.3125 9.0625 
Q 24.515625 -2 31 -13.1875 
L 23.1875 -13.1875 
Q 15.875 -1.703125 12.234375 9.375 
Q 8.59375 20.453125 8.59375 31.390625 
Q 8.59375 42.28125 12.203125 53.3125 
Q 15.828125 64.359375 23.1875 75.875 
z
" id="DejaVuSans-40"/>
     <path d="M 10.984375 1.515625 
L 10.984375 10.5 
Q 14.703125 8.734375 18.5 7.8125 
Q 22.3125 6.890625 25.984375 6.890625 
Q 35.75 6.890625 40.890625 13.453125 
Q 46.046875 20.015625 46.78125 33.40625 
Q 43.953125 29.203125 39.59375 26.953125 
Q 35.25 24.703125 29.984375 24.703125 
Q 19.046875 24.703125 12.671875 31.3125 
Q 6.296875 37.9375 6.296875 49.421875 
Q 6.296875 60.640625 12.9375 67.421875 
Q 19.578125 74.21875 30.609375 74.21875 
Q 43.265625 74.21875 49.921875 64.515625 
Q 56.59375 54.828125 56.59375 36.375 
Q 56.59375 19.140625 48.40625 8.859375 
Q 40.234375 -1.421875 26.421875 -1.421875 
Q 22.703125 -1.421875 18.890625 -0.6875 
Q 15.09375 0.046875 10.984375 1.515625 
z
M 30.609375 32.421875 
Q 37.25 32.421875 41.125 36.953125 
Q 45.015625 41.5 45.015625 49.421875 
Q 45.015625 57.28125 41.125 61.84375 
Q 37.25 66.40625 30.609375 66.40625 
Q 23.96875 66.40625 20.09375 61.84375 
Q 16.21875 57.28125 16.21875 49.421875 
Q 16.21875 41.5 20.09375 36.953125 
Q 23.96875 32.421875 30.609375 32.421875 
z
" id="DejaVuSans-57"/>
     <path d="M 8.015625 75.875 
L 15.828125 75.875 
Q 23.140625 64.359375 26.78125 53.3125 
Q 30.421875 42.28125 30.421875 31.390625 
Q 30.421875 20.453125 26.78125 9.375 
Q 23.140625 -1.703125 15.828125 -13.1875 
L 8.015625 -13.1875 
Q 14.5 -2 17.703125 9.0625 
Q 20.90625 20.125 20.90625 31.390625 
Q 20.90625 42.671875 17.703125 53.65625 
Q 14.5 64.65625 8.015625 75.875 
z
" id="DejaVuSans-41"/>
     <path id="DejaVuSans-32"/>
     <path d="M 53.515625 70.515625 
L 53.515625 60.890625 
Q 47.90625 63.578125 42.921875 64.890625 
Q 37.9375 66.21875 33.296875 66.21875 
Q 25.25 66.21875 20.875 63.09375 
Q 16.5 59.96875 16.5 54.203125 
Q 16.5 49.359375 19.40625 46.890625 
Q 22.3125 44.4375 30.421875 42.921875 
L 36.375 41.703125 
Q 47.40625 39.59375 52.65625 34.296875 
Q 57.90625 29 57.90625 20.125 
Q 57.90625 9.515625 50.796875 4.046875 
Q 43.703125 -1.421875 29.984375 -1.421875 
Q 24.8125 -1.421875 18.96875 -0.25 
Q 13.140625 0.921875 6.890625 3.21875 
L 6.890625 13.375 
Q 12.890625 10.015625 18.65625 8.296875 
Q 24.421875 6.59375 29.984375 6.59375 
Q 38.421875 6.59375 43.015625 9.90625 
Q 47.609375 13.234375 47.609375 19.390625 
Q 47.609375 24.75 44.3125 27.78125 
Q 41.015625 30.8125 33.5 32.328125 
L 27.484375 33.5 
Q 16.453125 35.6875 11.515625 40.375 
Q 6.59375 45.0625 6.59375 53.421875 
Q 6.59375 63.09375 13.40625 68.65625 
Q 20.21875 74.21875 32.171875 74.21875 
Q 37.3125 74.21875 42.625 73.28125 
Q 47.953125 72.359375 53.515625 70.515625 
z
" id="DejaVuSans-83"/>
     <path d="M 8.5 21.578125 
L 8.5 54.6875 
L 17.484375 54.6875 
L 17.484375 21.921875 
Q 17.484375 14.15625 20.5 10.265625 
Q 23.53125 6.390625 29.59375 6.390625 
Q 36.859375 6.390625 41.078125 11.03125 
Q 45.3125 15.671875 45.3125 23.6875 
L 45.3125 54.6875 
L 54.296875 54.6875 
L 54.296875 0 
L 45.3125 0 
L 45.3125 8.40625 
Q 42.046875 3.421875 37.71875 1 
Q 33.40625 -1.421875 27.6875 -1.421875 
Q 18.265625 -1.421875 13.375 4.4375 
Q 8.5 10.296875 8.5 21.578125 
z
M 31.109375 56 
z
" id="DejaVuSans-117"/>
     <path d="M 48.6875 27.296875 
Q 48.6875 37.203125 44.609375 42.84375 
Q 40.53125 48.484375 33.40625 48.484375 
Q 26.265625 48.484375 22.1875 42.84375 
Q 18.109375 37.203125 18.109375 27.296875 
Q 18.109375 17.390625 22.1875 11.75 
Q 26.265625 6.109375 33.40625 6.109375 
Q 40.53125 6.109375 44.609375 11.75 
Q 48.6875 17.390625 48.6875 27.296875 
z
M 18.109375 46.390625 
Q 20.953125 51.265625 25.265625 53.625 
Q 29.59375 56 35.59375 56 
Q 45.5625 56 51.78125 48.09375 
Q 58.015625 40.1875 58.015625 27.296875 
Q 58.015625 14.40625 51.78125 6.484375 
Q 45.5625 -1.421875 35.59375 -1.421875 
Q 29.59375 -1.421875 25.265625 0.953125 
Q 20.953125 3.328125 18.109375 8.203125 
L 18.109375 0 
L 9.078125 0 
L 9.078125 75.984375 
L 18.109375 75.984375 
z
" id="DejaVuSans-98"/>
     <path d="M 9.421875 54.6875 
L 18.40625 54.6875 
L 18.40625 -0.984375 
Q 18.40625 -11.421875 14.421875 -16.109375 
Q 10.453125 -20.796875 1.609375 -20.796875 
L -1.8125 -20.796875 
L -1.8125 -13.1875 
L 0.59375 -13.1875 
Q 5.71875 -13.1875 7.5625 -10.8125 
Q 9.421875 -8.453125 9.421875 -0.984375 
z
M 9.421875 75.984375 
L 18.40625 75.984375 
L 18.40625 64.59375 
L 9.421875 64.59375 
z
" id="DejaVuSans-106"/>
     <path d="M 56.203125 29.59375 
L 56.203125 25.203125 
L 14.890625 25.203125 
Q 15.484375 15.921875 20.484375 11.0625 
Q 25.484375 6.203125 34.421875 6.203125 
Q 39.59375 6.203125 44.453125 7.46875 
Q 49.3125 8.734375 54.109375 11.28125 
L 54.109375 2.78125 
Q 49.265625 0.734375 44.1875 -0.34375 
Q 39.109375 -1.421875 33.890625 -1.421875 
Q 20.796875 -1.421875 13.15625 6.1875 
Q 5.515625 13.8125 5.515625 26.8125 
Q 5.515625 40.234375 12.765625 48.109375 
Q 20.015625 56 32.328125 56 
Q 43.359375 56 49.78125 48.890625 
Q 56.203125 41.796875 56.203125 29.59375 
z
M 47.21875 32.234375 
Q 47.125 39.59375 43.09375 43.984375 
Q 39.0625 48.390625 32.421875 48.390625 
Q 24.90625 48.390625 20.390625 44.140625 
Q 15.875 39.890625 15.1875 32.171875 
z
" id="DejaVuSans-101"/>
     <path d="M 48.78125 52.59375 
L 48.78125 44.1875 
Q 44.96875 46.296875 41.140625 47.34375 
Q 37.3125 48.390625 33.40625 48.390625 
Q 24.65625 48.390625 19.8125 42.84375 
Q 14.984375 37.3125 14.984375 27.296875 
Q 14.984375 17.28125 19.8125 11.734375 
Q 24.65625 6.203125 33.40625 6.203125 
Q 37.3125 6.203125 41.140625 7.25 
Q 44.96875 8.296875 48.78125 10.40625 
L 48.78125 2.09375 
Q 45.015625 0.34375 40.984375 -0.53125 
Q 36.96875 -1.421875 32.421875 -1.421875 
Q 20.0625 -1.421875 12.78125 6.34375 
Q 5.515625 14.109375 5.515625 27.296875 
Q 5.515625 40.671875 12.859375 48.328125 
Q 20.21875 56 33.015625 56 
Q 37.15625 56 41.109375 55.140625 
Q 45.0625 54.296875 48.78125 52.59375 
z
" id="DejaVuSans-99"/>
     <path d="M 18.3125 70.21875 
L 18.3125 54.6875 
L 36.8125 54.6875 
L 36.8125 47.703125 
L 18.3125 47.703125 
L 18.3125 18.015625 
Q 18.3125 11.328125 20.140625 9.421875 
Q 21.96875 7.515625 27.59375 7.515625 
L 36.8125 7.515625 
L 36.8125 0 
L 27.59375 0 
Q 17.1875 0 13.234375 3.875 
Q 9.28125 7.765625 9.28125 18.015625 
L 9.28125 47.703125 
L 2.6875 47.703125 
L 2.6875 54.6875 
L 9.28125 54.6875 
L 9.28125 70.21875 
z
" id="DejaVuSans-116"/>
     <path d="M 11.71875 12.40625 
L 22.015625 12.40625 
L 22.015625 0 
L 11.71875 0 
z
M 11.71875 51.703125 
L 22.015625 51.703125 
L 22.015625 39.3125 
L 11.71875 39.3125 
z
" id="DejaVuSans-58"/>
     <path d="M 44.28125 53.078125 
L 44.28125 44.578125 
Q 40.484375 46.53125 36.375 47.5 
Q 32.28125 48.484375 27.875 48.484375 
Q 21.1875 48.484375 17.84375 46.4375 
Q 14.5 44.390625 14.5 40.28125 
Q 14.5 37.15625 16.890625 35.375 
Q 19.28125 33.59375 26.515625 31.984375 
L 29.59375 31.296875 
Q 39.15625 29.25 43.1875 25.515625 
Q 47.21875 21.78125 47.21875 15.09375 
Q 47.21875 7.46875 41.1875 3.015625 
Q 35.15625 -1.421875 24.609375 -1.421875 
Q 20.21875 -1.421875 15.453125 -0.5625 
Q 10.6875 0.296875 5.421875 2 
L 5.421875 11.28125 
Q 10.40625 8.6875 15.234375 7.390625 
Q 20.0625 6.109375 24.8125 6.109375 
Q 31.15625 6.109375 34.5625 8.28125 
Q 37.984375 10.453125 37.984375 14.40625 
Q 37.984375 18.0625 35.515625 20.015625 
Q 33.0625 21.96875 24.703125 23.78125 
L 21.578125 24.515625 
Q 13.234375 26.265625 9.515625 29.90625 
Q 5.8125 33.546875 5.8125 39.890625 
Q 5.8125 47.609375 11.28125 51.796875 
Q 16.75 56 26.8125 56 
Q 31.78125 56 36.171875 55.265625 
Q 40.578125 54.546875 44.28125 53.078125 
z
" id="DejaVuSans-115"/>
     <path d="M 11.71875 12.40625 
L 22.015625 12.40625 
L 22.015625 4 
L 14.015625 -11.625 
L 7.71875 -11.625 
L 11.71875 4 
z
" id="DejaVuSans-44"/>
     <path d="M 9.8125 72.90625 
L 19.671875 72.90625 
L 19.671875 42.09375 
L 52.390625 72.90625 
L 65.09375 72.90625 
L 28.90625 38.921875 
L 67.671875 0 
L 54.6875 0 
L 19.671875 35.109375 
L 19.671875 0 
L 9.8125 0 
z
" id="DejaVuSans-75"/>
     <path d="M 54.890625 33.015625 
L 54.890625 0 
L 45.90625 0 
L 45.90625 32.71875 
Q 45.90625 40.484375 42.875 44.328125 
Q 39.84375 48.1875 33.796875 48.1875 
Q 26.515625 48.1875 22.3125 43.546875 
Q 18.109375 38.921875 18.109375 30.90625 
L 18.109375 0 
L 9.078125 0 
L 9.078125 54.6875 
L 18.109375 54.6875 
L 18.109375 46.1875 
Q 21.34375 51.125 25.703125 53.5625 
Q 30.078125 56 35.796875 56 
Q 45.21875 56 50.046875 50.171875 
Q 54.890625 44.34375 54.890625 33.015625 
z
" id="DejaVuSans-110"/>
     <path d="M 30.609375 48.390625 
Q 23.390625 48.390625 19.1875 42.75 
Q 14.984375 37.109375 14.984375 27.296875 
Q 14.984375 17.484375 19.15625 11.84375 
Q 23.34375 6.203125 30.609375 6.203125 
Q 37.796875 6.203125 41.984375 11.859375 
Q 46.1875 17.53125 46.1875 27.296875 
Q 46.1875 37.015625 41.984375 42.703125 
Q 37.796875 48.390625 30.609375 48.390625 
z
M 30.609375 56 
Q 42.328125 56 49.015625 48.375 
Q 55.71875 40.765625 55.71875 27.296875 
Q 55.71875 13.875 49.015625 6.21875 
Q 42.328125 -1.421875 30.609375 -1.421875 
Q 18.84375 -1.421875 12.171875 6.21875 
Q 5.515625 13.875 5.515625 27.296875 
Q 5.515625 40.765625 12.171875 48.375 
Q 18.84375 56 30.609375 56 
z
" id="DejaVuSans-111"/>
     <path d="M 4.203125 54.6875 
L 13.1875 54.6875 
L 24.421875 12.015625 
L 35.59375 54.6875 
L 46.1875 54.6875 
L 57.421875 12.015625 
L 68.609375 54.6875 
L 77.59375 54.6875 
L 63.28125 0 
L 52.6875 0 
L 40.921875 44.828125 
L 29.109375 0 
L 18.5 0 
z
" id="DejaVuSans-119"/>
     <path d="M 10.59375 45.40625 
L 73.1875 45.40625 
L 73.1875 37.203125 
L 10.59375 37.203125 
z
M 10.59375 25.484375 
L 73.1875 25.484375 
L 73.1875 17.1875 
L 10.59375 17.1875 
z
" id="DejaVuSans-61"/>
     <path d="M 9.8125 72.90625 
L 51.703125 72.90625 
L 51.703125 64.59375 
L 19.671875 64.59375 
L 19.671875 43.109375 
L 48.578125 43.109375 
L 48.578125 34.8125 
L 19.671875 34.8125 
L 19.671875 0 
L 9.8125 0 
z
" id="DejaVuSans-70"/>
     <path d="M 34.28125 27.484375 
Q 23.390625 27.484375 19.1875 25 
Q 14.984375 22.515625 14.984375 16.5 
Q 14.984375 11.71875 18.140625 8.90625 
Q 21.296875 6.109375 26.703125 6.109375 
Q 34.1875 6.109375 38.703125 11.40625 
Q 43.21875 16.703125 43.21875 25.484375 
L 43.21875 27.484375 
z
M 52.203125 31.203125 
L 52.203125 0 
L 43.21875 0 
L 43.21875 8.296875 
Q 40.140625 3.328125 35.546875 0.953125 
Q 30.953125 -1.421875 24.3125 -1.421875 
Q 15.921875 -1.421875 10.953125 3.296875 
Q 6 8.015625 6 15.921875 
Q 6 25.140625 12.171875 29.828125 
Q 18.359375 34.515625 30.609375 34.515625 
L 43.21875 34.515625 
L 43.21875 35.40625 
Q 43.21875 41.609375 39.140625 45 
Q 35.0625 48.390625 27.6875 48.390625 
Q 23 48.390625 18.546875 47.265625 
Q 14.109375 46.140625 10.015625 43.890625 
L 10.015625 52.203125 
Q 14.9375 54.109375 19.578125 55.046875 
Q 24.21875 56 28.609375 56 
Q 40.484375 56 46.34375 49.84375 
Q 52.203125 43.703125 52.203125 31.203125 
z
" id="DejaVuSans-97"/>
     <path d="M 9.421875 75.984375 
L 18.40625 75.984375 
L 18.40625 0 
L 9.421875 0 
z
" id="DejaVuSans-108"/>
     <path d="M 19.671875 64.796875 
L 19.671875 8.109375 
L 31.59375 8.109375 
Q 46.6875 8.109375 53.6875 14.9375 
Q 60.6875 21.78125 60.6875 36.53125 
Q 60.6875 51.171875 53.6875 57.984375 
Q 46.6875 64.796875 31.59375 64.796875 
z
M 9.8125 72.90625 
L 30.078125 72.90625 
Q 51.265625 72.90625 61.171875 64.09375 
Q 71.09375 55.28125 71.09375 36.53125 
Q 71.09375 17.671875 61.125 8.828125 
Q 51.171875 0 30.078125 0 
L 9.8125 0 
z
" id="DejaVuSans-68"/>
     <path d="M 45.40625 27.984375 
Q 45.40625 37.75 41.375 43.109375 
Q 37.359375 48.484375 30.078125 48.484375 
Q 22.859375 48.484375 18.828125 43.109375 
Q 14.796875 37.75 14.796875 27.984375 
Q 14.796875 18.265625 18.828125 12.890625 
Q 22.859375 7.515625 30.078125 7.515625 
Q 37.359375 7.515625 41.375 12.890625 
Q 45.40625 18.265625 45.40625 27.984375 
z
M 54.390625 6.78125 
Q 54.390625 -7.171875 48.1875 -13.984375 
Q 42 -20.796875 29.203125 -20.796875 
Q 24.46875 -20.796875 20.265625 -20.09375 
Q 16.0625 -19.390625 12.109375 -17.921875 
L 12.109375 -9.1875 
Q 16.0625 -11.328125 19.921875 -12.34375 
Q 23.78125 -13.375 27.78125 -13.375 
Q 36.625 -13.375 41.015625 -8.765625 
Q 45.40625 -4.15625 45.40625 5.171875 
L 45.40625 9.625 
Q 42.625 4.78125 38.28125 2.390625 
Q 33.9375 0 27.875 0 
Q 17.828125 0 11.671875 7.65625 
Q 5.515625 15.328125 5.515625 27.984375 
Q 5.515625 40.671875 11.671875 48.328125 
Q 17.828125 56 27.875 56 
Q 33.9375 56 38.28125 53.609375 
Q 42.625 51.21875 45.40625 46.390625 
L 45.40625 54.6875 
L 54.390625 54.6875 
z
" id="DejaVuSans-103"/>
     <path d="M 41.109375 46.296875 
Q 39.59375 47.171875 37.8125 47.578125 
Q 36.03125 48 33.890625 48 
Q 26.265625 48 22.1875 43.046875 
Q 18.109375 38.09375 18.109375 28.8125 
L 18.109375 0 
L 9.078125 0 
L 9.078125 54.6875 
L 18.109375 54.6875 
L 18.109375 46.1875 
Q 20.953125 51.171875 25.484375 53.578125 
Q 30.03125 56 36.53125 56 
Q 37.453125 56 38.578125 55.875 
Q 39.703125 55.765625 41.0625 55.515625 
z
" id="DejaVuSans-114"/>
     <path d="M 9.421875 54.6875 
L 18.40625 54.6875 
L 18.40625 0 
L 9.421875 0 
z
M 9.421875 75.984375 
L 18.40625 75.984375 
L 18.40625 64.59375 
L 9.421875 64.59375 
z
" id="DejaVuSans-105"/>
     <path d="M 10.6875 12.40625 
L 21 12.40625 
L 21 0 
L 10.6875 0 
z
" id="DejaVuSans-46"/>
     <path d="M 12.40625 8.296875 
L 28.515625 8.296875 
L 28.515625 63.921875 
L 10.984375 60.40625 
L 10.984375 69.390625 
L 28.421875 72.90625 
L 38.28125 72.90625 
L 38.28125 8.296875 
L 54.390625 8.296875 
L 54.390625 0 
L 12.40625 0 
z
" id="DejaVuSans-49"/>
    </defs>
    <g transform="translate(53.559375 35.472)scale(0.12 -0.12)">
     <use xlink:href="#DejaVuSans-40"/>
     <use x="39.013672" xlink:href="#DejaVuSans-54"/>
     <use x="102.636719" xlink:href="#DejaVuSans-57"/>
     <use x="166.259766" xlink:href="#DejaVuSans-41"/>
     <use x="205.273438" xlink:href="#DejaVuSans-32"/>
     <use x="237.060547" xlink:href="#DejaVuSans-83"/>
     <use x="300.537109" xlink:href="#DejaVuSans-117"/>
     <use x="363.916016" xlink:href="#DejaVuSans-98"/>
     <use x="427.392578" xlink:href="#DejaVuSans-106"/>
     <use x="455.175781" xlink:href="#DejaVuSans-101"/>
     <use x="516.699219" xlink:href="#DejaVuSans-99"/>
     <use x="571.679688" xlink:href="#DejaVuSans-116"/>
     <use x="610.888672" xlink:href="#DejaVuSans-58"/>
     <use x="644.580078" xlink:href="#DejaVuSans-32"/>
     <use x="676.367188" xlink:href="#DejaVuSans-115"/>
     <use x="728.466797" xlink:href="#DejaVuSans-55"/>
     <use x="792.089844" xlink:href="#DejaVuSans-44"/>
     <use x="823.876953" xlink:href="#DejaVuSans-32"/>
     <use x="855.664062" xlink:href="#DejaVuSans-75"/>
     <use x="921.240234" xlink:href="#DejaVuSans-110"/>
     <use x="984.619141" xlink:href="#DejaVuSans-111"/>
     <use x="1045.800781" xlink:href="#DejaVuSans-119"/>
     <use x="1127.587891" xlink:href="#DejaVuSans-110"/>
     <use x="1190.966797" xlink:href="#DejaVuSans-32"/>
     <use x="1222.753906" xlink:href="#DejaVuSans-61"/>
     <use x="1306.542969" xlink:href="#DejaVuSans-32"/>
     <use x="1338.330078" xlink:href="#DejaVuSans-70"/>
     <use x="1395.708984" xlink:href="#DejaVuSans-97"/>
     <use x="1456.988281" xlink:href="#DejaVuSans-108"/>
     <use x="1484.771484" xlink:href="#DejaVuSans-115"/>
     <use x="1536.871094" xlink:href="#DejaVuSans-101"/>
     <use x="1598.394531" xlink:href="#DejaVuSans-44"/>
     <use x="1630.181641" xlink:href="#DejaVuSans-32"/>
     <use x="1661.96875" xlink:href="#DejaVuSans-68"/>
     <use x="1738.970703" xlink:href="#DejaVuSans-101"/>
     <use x="1800.494141" xlink:href="#DejaVuSans-103"/>
     <use x="1863.970703" xlink:href="#DejaVuSans-114"/>
     <use x="1905.052734" xlink:href="#DejaVuSans-101"/>
     <use x="1966.576172" xlink:href="#DejaVuSans-101"/>
     <use x="2028.099609" xlink:href="#DejaVuSans-32"/>
     <use x="2059.886719" xlink:href="#DejaVuSans-61"/>
     <use x="2143.675781" xlink:href="#DejaVuSans-32"/>
     <use x="2175.462891" xlink:href="#DejaVuSans-50"/>
     <use x="2239.085938" xlink:href="#DejaVuSans-44"/>
     <use x="2270.873047" xlink:href="#DejaVuSans-32"/>
     <use x="2302.660156" xlink:href="#DejaVuSans-68"/>
     <use x="2379.662109" xlink:href="#DejaVuSans-117"/>
     <use x="2443.041016" xlink:href="#DejaVuSans-114"/>
     <use x="2484.154297" xlink:href="#DejaVuSans-97"/>
     <use x="2545.433594" xlink:href="#DejaVuSans-116"/>
     <use x="2584.642578" xlink:href="#DejaVuSans-105"/>
     <use x="2612.425781" xlink:href="#DejaVuSans-111"/>
     <use x="2673.607422" xlink:href="#DejaVuSans-110"/>
     <use x="2736.986328" xlink:href="#DejaVuSans-32"/>
     <use x="2768.773438" xlink:href="#DejaVuSans-61"/>
     <use x="2852.5625" xlink:href="#DejaVuSans-32"/>
     <use x="2884.349609" xlink:href="#DejaVuSans-48"/>
     <use x="2947.972656" xlink:href="#DejaVuSans-46"/>
     <use x="2979.759766" xlink:href="#DejaVuSans-49"/>
    </g>
   </g>
  </g>
 </g>
 <defs>
  <clipPath id="pc31f2e9e59">
   <rect height="266.112" width="357.12" x="57.6" y="41.472"/>
  </clipPath>
 </defs>
</svg>
