<?xml version="1.0" encoding="utf-8" standalone="no"?>
<!DOCTYPE svg PUBLIC "-//W3C//DTD SVG 1.1//EN"
  "http://www.w3.org/Graphics/SVG/1.1/DTD/svg11.dtd">
<!-- Created with matplotlib (https://matplotlib.org/) -->
<svg height="345.6pt" version="1.1" viewBox="0 0 460.8 345.6" width="460.8pt" xmlns="http://www.w3.org/2000/svg" xmlns:xlink="http://www.w3.org/1999/xlink">
 <defs>
  <style type="text/css">
*{stroke-linecap:butt;stroke-linejoin:round;}
  </style>
 </defs>
 <g id="figure_1">
  <g id="patch_1">
   <path d="M 0 345.6 
L 460.8 345.6 
L 460.8 0 
L 0 0 
z
" style="fill:#ffffff;"/>
  </g>
  <g id="axes_1">
   <g id="patch_2">
    <path d="M 57.6 307.584 
L 414.72 307.584 
L 414.72 41.472 
L 57.6 41.472 
z
" style="fill:#ffffff;"/>
   </g>
   <g id="line2d_1">
    <path clip-path="url(#pd2af5b48b2)" d="M 397.896063 62.990321 
L 397.422119 62.287668 
L 397.659091 62.520475 
L 397.659091 62.050629 
L 398.2503 61.106703 
L 397.776356 59.223086 
L 397.659091 59.223086 
L 397.659091 59.692932 
L 398.133036 59.929972 
L 398.133036 59.929972 
L 398.133036 59.692932 
L 398.133036 59.692932 
L 397.896063 59.692932 
L 397.659091 59.223086 
L 397.541826 58.5162 
L 397.422119 58.75324 
L 397.541826 59.692932 
L 397.896063 60.399818 
L 398.2503 60.167011 
L 398.367565 59.460125 
L 398.013328 58.986046 
L 397.422119 58.986046 
L 397.304854 58.75324 
L 397.422119 58.5162 
L 397.896063 58.046354 
L 398.2503 58.046354 
L 398.367565 58.279161 
L 398.133036 58.5162 
L 397.896063 58.5162 
L 397.659091 57.809314 
L 398.013328 58.279161 
L 398.133036 58.75324 
L 397.896063 58.75324 
L 397.776356 58.279161 
L 398.013328 57.339468 
L 397.896063 57.339468 
L 397.304854 57.809314 
L 396.950617 57.809314 
L 396.950617 57.809314 
L 397.304854 58.046354 
L 397.422119 58.5162 
L 397.776356 58.75324 
L 398.013328 58.75324 
L 398.013328 58.046354 
L 397.659091 57.576508 
L 397.304854 57.576508 
L 397.185146 58.046354 
L 397.659091 58.75324 
L 397.776356 58.75324 
L 397.776356 58.5162 
L 397.776356 58.5162 
L 397.541826 58.5162 
L 397.185146 57.809314 
L 397.304854 57.809314 
L 397.659091 57.809314 
L 397.776356 57.576508 
L 397.304854 58.75324 
L 397.659091 58.75324 
L 397.422119 58.75324 
L 397.304854 58.046354 
L 397.422119 57.809314 
L 397.659091 59.460125 
L 397.659091 58.986046 
L 397.422119 58.986046 
L 396.830909 59.460125 
L 396.830909 58.75324 
L 396.950617 58.279161 
L 397.304854 58.986046 
L 397.659091 59.223086 
L 397.541826 59.460125 
L 397.185146 59.692932 
L 396.830909 60.167011 
L 397.185146 59.692932 
L 396.950617 59.692932 
L 396.950617 59.929972 
L 397.304854 60.167011 
L 397.659091 60.167011 
L 397.776356 60.399818 
L 397.541826 59.929972 
L 397.541826 60.167011 
L 397.659091 61.106703 
L 397.541826 61.580783 
L 397.659091 61.580783 
L 397.776356 60.873897 
L 397.659091 60.873897 
L 397.541826 60.399818 
L 397.304854 60.399818 
L 397.304854 61.106703 
L 397.422119 61.813589 
L 397.659091 61.813589 
L 397.896063 61.580783 
L 397.896063 61.106703 
L 397.659091 60.636857 
L 397.422119 60.636857 
L 397.422119 61.580783 
L 397.541826 61.580783 
L 397.422119 61.106703 
L 397.067882 62.050629 
L 397.185146 62.287668 
L 397.422119 62.287668 
L 397.422119 61.580783 
L 397.541826 61.343743 
L 397.541826 61.343743 
L 397.304854 61.106703 
L 397.067882 61.106703 
L 397.185146 61.580783 
L 397.422119 62.050629 
L 397.659091 62.050629 
L 397.659091 61.813589 
L 397.422119 62.520475 
L 397.422119 62.050629 
L 397.304854 62.050629 
L 397.185146 62.287668 
L 397.541826 63.4644 
L 397.659091 63.697207 
L 397.541826 63.934246 
L 397.067882 62.287668 
L 396.950617 62.757514 
L 397.185146 64.641132 
L 397.422119 65.110978 
L 397.541826 64.878172 
L 397.541826 64.171286 
L 397.776356 64.171286 
L 398.2503 65.348018 
L 398.133036 65.348018 
L 398.133036 65.348018 
L 398.133036 65.110978 
L 397.541826 66.52475 
L 397.896063 66.52475 
L 397.896063 66.054904 
L 398.013328 65.817864 
L 398.013328 66.291943 
L 397.896063 66.761789 
L 398.013328 65.817864 
L 398.367565 65.817864 
L 398.2503 65.817864 
L 398.013328 65.585057 
L 397.659091 65.817864 
L 397.422119 66.52475 
L 397.422119 66.998829 
L 397.659091 66.998829 
L 397.896063 66.761789 
L 398.133036 65.817864 
L 398.2503 66.054904 
L 398.133036 66.52475 
L 397.776356 66.761789 
L 397.776356 66.761789 
L 398.487273 68.175561 
L 398.2503 68.408367 
L 398.013328 68.175561 
L 397.896063 67.468675 
L 397.896063 67.701482 
L 397.541826 67.938521 
L 397.659091 67.938521 
L 398.013328 67.468675 
L 398.367565 66.761789 
L 398.367565 66.761789 
L 398.133036 67.938521 
L 398.133036 67.701482 
L 397.659091 66.761789 
L 397.541826 67.701482 
L 397.659091 68.175561 
L 397.896063 66.998829 
L 398.013328 66.998829 
L 398.013328 67.701482 
L 397.776356 68.408367 
L 398.2503 66.998829 
L 398.013328 67.701482 
L 397.185146 68.175561 
L 396.476672 68.408367 
L 391.629733 67.231636 
L 389.501868 66.52475 
L 387.019766 66.054904 
L 383.944012 66.054904 
L 380.633728 65.585057 
L 377.086472 64.404093 
L 373.304687 62.520475 
L 369.048957 60.873897 
L 364.790784 59.692932 
L 356.162059 58.279161 
L 351.903886 57.809314 
L 347.648156 57.809314 
L 339.373668 56.869622 
L 334.880966 56.869622 
L 330.388263 56.632582 
L 326.132533 56.162736 
L 322.111333 55.925697 
L 317.855603 56.162736 
L 313.717137 56.632582 
L 309.578672 56.632582 
L 305.44265 55.925697 
L 287.826077 54.981771 
L 278.6037 54.042079 
L 269.618295 53.568 
L 254.129588 53.568 
L 250.465067 54.042079 
L 246.917811 54.748965 
L 243.727235 55.688657 
L 240.771189 57.102429 
L 233.676676 60.873897 
L 228.238528 63.4644 
L 227.056109 64.171286 
L 225.402189 65.817864 
L 225.045509 66.52475 
L 224.810979 67.701482 
L 224.691272 69.115253 
L 224.691272 71.709989 
L 225.165216 72.179836 
L 225.636718 71.942796 
L 226.110663 72.179836 
L 226.4649 72.649682 
L 226.819137 72.886721 
L 227.056109 72.649682 
L 227.410346 72.886721 
L 227.767026 73.356568 
L 228.358235 75.007379 
L 228.712472 75.477225 
L 228.592765 75.477225 
L 228.4755 75.714264 
L 228.592765 75.714264 
L 228.712472 75.947071 
L 228.947002 77.123803 
L 228.712472 78.304768 
L 228.592765 78.304768 
L 228.592765 78.537574 
L 229.303682 80.188385 
L 229.303682 80.658231 
L 228.947002 80.658231 
L 228.829737 80.188385 
L 228.712472 80.188385 
L 228.712472 80.658231 
L 228.829737 80.895271 
L 229.066709 80.895271 
L 228.947002 80.895271 
L 228.712472 81.365117 
L 228.712472 82.072003 
L 228.947002 83.015928 
L 229.420946 83.955621 
L 229.775183 83.955621 
L 229.775183 83.722814 
L 229.420946 83.485774 
L 229.303682 83.015928 
L 229.303682 82.778889 
L 229.303682 82.778889 
L 229.420946 83.015928 
L 229.538211 83.722814 
L 229.775183 84.19266 
L 230.12942 84.4297 
L 230.249128 84.662506 
L 230.12942 85.843471 
L 230.12942 85.369392 
L 230.603365 86.546124 
L 230.603365 86.076278 
L 230.840337 86.313317 
L 230.603365 86.313317 
L 230.249128 85.606432 
L 230.366393 86.076278 
L 230.366393 86.546124 
L 230.249128 87.25301 
L 230.4861 87.25301 
L 230.366393 87.020203 
L 230.249128 86.546124 
L 230.12942 86.783164 
L 230.249128 87.490049 
L 230.12942 87.490049 
L 229.894891 87.727089 
L 229.894891 87.959895 
L 230.249128 88.433974 
L 230.249128 88.666781 
L 230.249128 88.666781 
L 229.894891 89.14086 
L 230.12942 88.903821 
L 230.249128 88.903821 
L 229.894891 89.610706 
L 230.72063 89.610706 
L 230.840337 90.787438 
L 230.603365 90.787438 
L 230.603365 91.96417 
L 231.07731 92.438249 
L 230.72063 94.084827 
L 230.840337 93.145135 
L 230.366393 92.438249 
L 230.012156 92.438249 
L 229.538211 92.20121 
L 228.712472 92.438249 
L 227.530054 92.908096 
L 226.347635 92.908096 
L 225.045509 92.438249 
L 223.391588 91.96417 
L 221.61796 92.20121 
L 219.96404 93.145135 
L 216.771021 94.558907 
L 213.460737 97.382217 
L 209.322272 100.446799 
L 207.077142 102.330417 
L 204.82957 103.744188 
L 202.701705 105.390766 
L 200.454132 107.278617 
L 198.091738 108.925195 
L 195.963873 111.045852 
L 190.760253 116.933745 
L 187.923914 119.054402 
L 185.085132 120.938019 
L 182.485766 122.82587 
L 179.766691 124.472448 
L 174.445807 127.299991 
L 171.843997 128.950802 
L 169.124923 131.541305 
L 166.288584 133.894769 
L 160.847992 137.429198 
L 152.927742 142.377398 
L 150.562904 143.786937 
L 148.435039 145.674787 
L 144.416282 150.385948 
L 142.522946 152.269565 
L 140.98629 154.390222 
L 139.449635 156.27384 
L 137.912979 157.920418 
L 136.376323 159.33419 
L 134.365723 161.691886 
L 133.657249 163.338465 
L 133.303012 165.933201 
L 133.303012 168.049625 
L 133.537541 172.0539 
L 133.774514 172.997825 
L 134.248458 173.467671 
L 134.485431 174.174557 
L 134.71996 175.588329 
L 135.07664 177.0021 
L 135.548142 178.415872 
L 135.665406 179.359797 
L 135.665406 180.299489 
L 135.902379 182.183107 
L 135.902379 184.070957 
L 135.430877 188.782118 
L 135.07664 190.428696 
L 134.956932 191.842467 
L 135.430877 194.67001 
L 135.430877 197.260514 
L 135.193905 199.381171 
L 134.956932 200.088057 
L 134.602695 200.325096 
L 134.365723 201.027749 
L 134.485431 201.971674 
L 134.71996 202.9156 
L 134.602695 203.855292 
L 134.602695 204.799217 
L 134.71996 205.975949 
L 134.71996 207.389721 
L 134.365723 208.333646 
L 134.71996 209.980224 
L 134.956932 211.393995 
L 134.839668 212.337921 
L 134.602695 212.807767 
L 134.602695 213.514653 
L 134.602695 213.514653 
L 134.365723 213.514653 
L 134.011486 213.984499 
L 133.894221 214.458578 
L 134.128751 215.161231 
L 134.839668 216.105156 
L 134.602695 217.988774 
L 134.602695 218.695659 
L 134.71996 218.932699 
L 134.485431 218.225813 
L 134.602695 217.988774 
L 134.839668 218.462853 
L 134.956932 219.639585 
L 134.71996 221.286163 
L 134.839668 221.053356 
L 134.602695 221.286163 
L 134.602695 221.523202 
L 134.956932 222.230088 
L 135.311169 222.699934 
L 135.311169 222.467128 
L 135.665406 222.467128 
L 135.902379 221.993049 
L 135.785114 221.993049 
L 135.665406 221.993049 
L 136.022086 221.993049 
L 136.022086 221.993049 
L 135.785114 222.467128 
L 135.902379 222.699934 
L 136.139351 222.467128 
L 136.256616 221.760242 
L 136.256616 221.053356 
L 136.376323 220.579277 
L 136.493588 220.579277 
L 136.847825 220.109431 
L 136.847825 219.872391 
L 136.493588 219.872391 
L 136.256616 219.639585 
L 136.376323 218.695659 
L 136.73056 217.281888 
L 137.204505 216.812042 
L 137.084797 217.049081 
L 137.204505 217.518928 
L 137.084797 216.812042 
L 136.967533 215.868117 
L 137.204505 214.691385 
L 137.558742 214.221538 
L 137.912979 213.984499 
L 138.149951 214.221538 
L 137.912979 214.691385 
L 137.795714 214.458578 
L 137.795714 213.751692 
L 137.912979 212.100881 
L 137.558742 211.631035 
L 136.967533 211.156956 
L 136.022086 211.156956 
L 134.956932 210.924149 
L 133.657249 210.217264 
L 132.000886 209.510378 
L 129.992728 208.803492 
L 127.745156 207.389721 
L 125.380318 205.73891 
L 122.661244 204.562178 
L 119.705197 204.092332 
L 114.267048 204.092332 
L 112.021919 203.385446 
L 109.774346 202.441521 
L 107.055272 202.441521 
L 103.744988 202.9156 
L 100.551969 203.148406 
L 97.832895 202.67856 
L 95.587765 201.971674 
L 93.4599 201.501828 
L 91.4493 201.264789 
L 87.665071 200.325096 
L 85.893886 199.61821 
L 84.237523 199.381171 
L 82.818132 199.381171 
L 78.679667 198.204439 
L 77.73422 197.9674 
L 76.788774 197.497553 
L 75.726063 197.260514 
L 74.897881 197.497553 
L 74.306672 197.497553 
L 73.952435 197.73036 
L 73.832727 197.9674 
L 74.0697 198.437246 
L 74.186964 197.9674 
L 74.0697 197.497553 
L 74.306672 198.437246 
L 74.660909 199.144131 
L 76.317272 199.851017 
L 76.551802 199.851017 
L 78.0909 201.501828 
L 78.208165 201.971674 
L 78.208165 202.441521 
L 78.32543 202.9156 
L 78.0909 202.9156 
L 77.73422 202.67856 
L 77.73422 203.855292 
L 77.971193 203.622485 
L 77.971193 202.9156 
L 77.853928 202.9156 
L 77.73422 203.622485 
L 77.971193 204.092332 
L 78.32543 204.329371 
L 78.562402 203.855292 
L 78.799374 203.855292 
L 79.036347 203.622485 
L 79.036347 202.67856 
L 78.799374 202.67856 
L 78.562402 203.622485 
L 78.562402 204.562178 
L 78.916639 205.036257 
L 79.153611 204.799217 
L 79.153611 204.092332 
L 79.153611 205.269063 
L 79.270876 205.269063 
L 79.744821 204.799217 
L 79.981793 204.329371 
L 80.099058 204.562178 
L 79.981793 205.036257 
L 80.099058 205.506103 
L 80.099058 205.506103 
L 79.862085 205.73891 
L 79.507848 205.73891 
L 79.507848 206.682835 
L 79.627556 206.919874 
L 79.981793 206.919874 
L 80.218765 207.152681 
L 79.981793 207.152681 
L 79.627556 206.919874 
L 79.153611 206.919874 
L 79.744821 208.333646 
L 79.627556 208.803492 
L 79.507848 208.333646 
L 79.390584 208.333646 
L 79.270876 208.566453 
L 79.507848 208.803492 
L 79.981793 208.566453 
L 80.218765 208.096606 
L 79.981793 208.803492 
L 79.744821 209.747417 
L 80.099058 209.980224 
L 79.270876 211.863842 
L 79.507848 210.924149 
L 79.507848 210.45007 
L 79.507848 210.924149 
L 79.390584 211.631035 
L 79.390584 211.863842 
L 79.862085 212.570727 
L 79.744821 212.570727 
L 79.744821 212.100881 
L 80.099058 212.100881 
L 80.33603 212.570727 
L 80.218765 213.751692 
L 79.862085 214.458578 
L 79.862085 214.458578 
L 80.099058 214.458578 
L 79.862085 214.458578 
L 79.862085 214.221538 
L 80.099058 214.221538 
L 80.33603 214.691385 
L 80.218765 215.39827 
L 79.744821 216.105156 
L 79.862085 216.575002 
L 79.981793 216.575002 
L 79.981793 215.868117 
L 80.453295 214.458578 
L 80.690267 214.221538 
L 80.573002 214.928424 
L 80.573002 216.105156 
L 80.690267 216.575002 
L 80.690267 215.63531 
L 80.573002 215.63531 
L 80.453295 216.105156 
L 80.453295 216.342196 
L 80.453295 216.342196 
L 80.573002 216.342196 
L 80.809975 215.63531 
L 81.044504 215.39827 
L 81.281476 216.105156 
L 81.281476 217.281888 
L 80.927239 218.225813 
L 80.690267 218.225813 
L 80.573002 217.518928 
L 80.809975 217.755967 
L 80.690267 217.281888 
L 80.690267 216.575002 
L 80.573002 217.049081 
L 80.573002 217.988774 
L 80.690267 218.462853 
L 80.809975 218.462853 
L 81.044504 217.988774 
L 81.281476 218.225813 
L 81.635713 218.695659 
L 81.281476 217.988774 
L 81.281476 217.518928 
L 81.164212 217.755967 
L 81.281476 217.755967 
L 81.518449 217.755967 
L 81.755421 217.988774 
L 81.992393 218.695659 
L 82.109658 218.695659 
L 81.992393 218.462853 
L 81.518449 219.169738 
L 81.755421 218.225813 
L 82.34663 216.812042 
L 81.992393 217.755967 
L 81.635713 217.988774 
L 82.226923 218.932699 
L 82.463895 219.169738 
L 82.463895 217.988774 
L 82.226923 217.988774 
L 82.226923 218.932699 
L 81.992393 218.932699 
L 82.226923 218.225813 
L 82.226923 218.695659 
L 82.463895 219.169738 
L 83.292077 219.169738 
L 83.529049 219.402545 
L 83.529049 219.402545 
L 83.529049 219.169738 
L 83.292077 218.462853 
L 83.292077 218.462853 
L 83.292077 217.518928 
L 83.409341 217.755967 
L 83.409341 218.695659 
L 83.292077 220.816317 
L 83.529049 220.579277 
L 83.292077 219.639585 
L 82.58116 217.755967 
L 82.93784 217.755967 
L 83.292077 218.695659 
L 83.172369 218.695659 
L 83.292077 218.462853 
L 83.529049 217.755967 
L 83.409341 217.518928 
L 83.292077 217.755967 
L 83.529049 217.281888 
L 84.000551 217.988774 
L 83.883286 217.755967 
L 83.763578 217.281888 
L 84.000551 217.281888 
L 84.120258 217.518928 
L 83.883286 217.518928 
L 83.763578 217.281888 
L 84.000551 217.281888 
L 84.474495 217.518928 
L 84.120258 217.988774 
L 84.000551 217.988774 
L 84.000551 217.518928 
L 84.120258 217.281888 
L 84.59176 217.049081 
L 84.59176 217.518928 
L 84.711468 217.988774 
L 85.182969 217.518928 
L 85.065705 217.049081 
L 84.828732 217.049081 
L 84.711468 217.518928 
L 84.945997 217.049081 
L 85.182969 216.812042 
L 85.182969 216.575002 
L 84.945997 216.575002 
L 84.474495 217.518928 
L 84.828732 217.049081 
L 84.828732 217.518928 
L 84.828732 216.812042 
L 85.182969 216.575002 
L 85.419942 216.105156 
L 85.302677 216.575002 
L 85.302677 217.281888 
L 85.537206 217.755967 
L 85.656914 217.518928 
L 85.537206 216.812042 
L 85.302677 216.342196 
L 85.302677 215.39827 
L 85.302677 215.63531 
L 85.419942 216.105156 
L 85.656914 216.342196 
L 85.893886 215.63531 
L 85.774179 215.63531 
L 85.537206 216.105156 
L 85.302677 216.105156 
L 85.419942 215.63531 
L 85.419942 215.161231 
L 85.302677 214.928424 
L 85.537206 216.575002 
L 85.419942 216.812042 
L 85.656914 216.342196 
L 85.656914 215.63531 
L 85.893886 215.868117 
L 86.248123 215.868117 
L 86.60236 215.63531 
L 87.073862 215.63531 
L 87.665071 215.868117 
L 88.256281 216.342196 
L 89.20417 216.812042 
L 92.277481 217.281888 
L 95.350793 217.281888 
L 97.124421 217.518928 
L 101.380151 218.462853 
L 103.627723 218.695659 
L 105.992561 219.639585 
L 114.149784 223.64386 
L 116.157941 223.880899 
L 118.288249 223.880899 
L 120.533379 224.350745 
L 123.015481 225.764517 
L 125.617291 227.411095 
L 128.2191 228.59206 
L 130.583938 229.531752 
L 134.602695 231.41537 
L 141.460235 233.536027 
L 143.705365 234.479952 
L 148.789276 236.36357 
L 151.036849 237.307495 
L 153.045006 238.014381 
L 155.055607 238.954073 
L 158.248626 241.544577 
L 159.548309 242.018656 
L 160.493755 241.781616 
L 161.204672 242.018656 
L 162.267383 243.665234 
L 162.504356 244.372119 
L 162.504356 245.079005 
L 162.030411 247.199662 
L 161.795882 247.669509 
L 161.321937 248.139355 
L 160.256783 248.376394 
L 159.311337 249.08328 
L 158.9571 250.260012 
L 158.839835 251.203937 
L 158.602863 251.440977 
L 158.36589 251.440977 
L 157.894389 252.147862 
L 157.420444 252.147862 
L 156.946499 251.910823 
L 157.657416 253.557401 
L 157.657416 254.738366 
L 157.303179 254.264287 
L 156.946499 253.794441 
L 156.71197 254.03148 
L 156.592262 254.501326 
L 156.946499 255.208212 
L 157.066207 255.915098 
L 156.946499 256.384944 
L 156.71197 256.621984 
L 156.71197 256.859023 
L 156.71197 256.621984 
L 156.474998 255.678058 
L 156.474998 255.678058 
L 156.238025 255.445252 
L 156.120761 255.445252 
L 156.592262 256.384944 
L 156.474998 256.859023 
L 156.120761 257.09183 
L 155.764081 256.859023 
L 155.646816 256.152137 
L 155.646816 255.915098 
L 155.883788 255.915098 
L 155.883788 255.915098 
L 155.883788 256.621984 
L 155.646816 258.742641 
L 155.646816 258.505601 
L 155.529551 257.561676 
L 155.175314 257.09183 
L 154.818634 257.09183 
L 154.818634 256.859023 
L 155.055607 256.859023 
L 155.175314 257.328869 
L 154.938342 258.505601 
L 155.529551 257.09183 
L 155.292579 256.859023 
L 154.818634 258.035755 
L 154.818634 258.742641 
L 154.938342 258.742641 
L 155.055607 258.505601 
L 154.70137 258.975447 
L 154.464397 259.212487 
L 153.992896 259.449526 
L 153.636216 259.212487 
L 153.755923 259.212487 
L 153.873188 258.975447 
L 153.873188 258.505601 
L 153.873188 258.742641 
L 153.755923 259.449526 
L 153.518951 259.682333 
L 153.518951 259.449526 
L 153.755923 259.212487 
L 153.992896 259.449526 
L 153.992896 259.682333 
L 153.873188 260.156412 
L 154.11016 260.156412 
L 154.227425 260.626258 
L 154.227425 261.096105 
L 154.347133 261.096105 
L 154.11016 260.389219 
L 153.401686 259.212487 
L 153.518951 259.682333 
L 153.518951 260.863298 
L 153.518951 260.863298 
L 153.401686 261.096105 
L 153.281979 261.80299 
L 153.518951 262.04003 
L 153.401686 261.80299 
L 153.401686 260.863298 
L 153.636216 262.04003 
L 153.755923 262.979722 
L 153.518951 263.686608 
L 153.401686 263.216762 
L 153.401686 262.509876 
L 153.164714 262.509876 
L 153.045006 262.04003 
L 153.281979 261.80299 
L 153.873188 262.04003 
L 153.992896 262.509876 
L 153.873188 262.979722 
L 153.518951 263.453801 
L 153.518951 263.686608 
L 153.518951 263.686608 
L 153.636216 263.453801 
L 153.518951 263.453801 
L 153.045006 263.216762 
L 152.927742 262.746916 
L 153.281979 263.216762 
L 153.401686 263.686608 
L 153.281979 263.216762 
L 153.045006 263.216762 
L 153.045006 263.453801 
L 153.281979 264.160687 
L 153.518951 264.630533 
L 153.401686 265.100379 
L 153.164714 265.337419 
L 153.401686 264.393494 
L 153.755923 264.393494 
L 154.11016 264.867573 
L 153.992896 265.100379 
L 153.636216 264.867573 
L 153.636216 264.867573 
L 153.755923 265.100379 
L 153.518951 264.867573 
L 153.281979 265.574458 
L 153.873188 266.044305 
L 153.873188 266.281344 
L 153.636216 266.281344 
L 153.281979 265.807265 
L 153.164714 266.514151 
L 152.927742 264.160687 
L 153.045006 264.393494 
L 153.164714 265.337419 
L 153.164714 266.281344 
L 152.927742 266.514151 
L 152.927742 266.044305 
L 153.281979 265.100379 
L 152.927742 265.337419 
L 152.810477 265.807265 
L 153.873188 265.807265 
L 153.992896 265.574458 
L 153.992896 265.100379 
L 153.873188 264.630533 
L 153.518951 263.686608 
L 153.755923 263.453801 
L 154.227425 264.160687 
L 153.755923 264.393494 
L 153.873188 264.393494 
L 154.227425 264.393494 
L 154.227425 263.923647 
L 153.992896 262.746916 
L 154.11016 262.509876 
L 154.347133 262.509876 
L 154.938342 261.80299 
L 155.055607 261.333144 
L 154.818634 261.570184 
L 154.347133 261.570184 
L 154.347133 260.863298 
L 153.873188 260.626258 
L 153.518951 260.626258 
L 153.636216 259.919373 
L 154.227425 259.449526 
L 155.055607 259.449526 
L 155.175314 258.975447 
L 154.938342 257.798715 
L 155.175314 257.328869 
L 155.055607 257.09183 
L 155.292579 257.328869 
L 155.529551 256.859023 
L 155.646816 256.152137 
L 155.409844 256.152137 
L 154.70137 255.678058 
L 154.818634 254.738366 
L 155.292579 254.264287 
L 155.764081 254.738366 
L 156.001053 255.208212 
L 155.764081 254.501326 
L 155.883788 254.264287 
L 156.120761 254.264287 
L 156.120761 254.03148 
L 155.646816 252.617709 
L 155.646816 251.910823 
L 155.646816 251.910823 
L 155.409844 252.380669 
L 155.292579 253.087555 
L 155.529551 253.324594 
L 155.764081 252.850515 
L 155.883788 252.147862 
L 155.764081 251.440977 
L 155.409844 251.440977 
L 155.646816 250.734091 
L 155.764081 250.260012 
L 155.764081 250.497051 
L 155.409844 250.027205 
L 155.409844 250.260012 
L 155.409844 248.846241 
L 155.529551 249.32032 
L 155.529551 249.790166 
L 155.409844 249.790166 
L 155.409844 249.790166 
L 155.409844 248.376394 
L 155.646816 247.906548 
L 155.646816 248.139355 
L 156.120761 247.906548 
L 156.592262 248.139355 
L 156.592262 247.906548 
L 156.35529 247.669509 
L 156.238025 247.906548 
L 156.35529 247.906548 
L 156.474998 247.906548 
L 156.474998 247.436702 
L 156.001053 246.729816 
L 155.764081 246.962623 
L 155.764081 247.199662 
L 156.238025 246.492777 
L 156.001053 246.492777 
L 155.883788 246.492777 
L 155.646816 246.729816 
L 155.175314 247.436702 
L 155.175314 247.199662 
L 155.292579 247.199662 
L 155.529551 247.436702 
L 155.646816 247.199662 
L 156.001053 247.199662 
L 156.238025 247.436702 
L 156.238025 247.199662 
L 155.883788 246.962623 
L 155.646816 246.962623 
L 155.529551 246.492777 
L 155.764081 245.548851 
L 156.120761 245.316045 
L 156.35529 246.492777 
L 156.35529 247.199662 
L 156.238025 247.436702 
L 156.35529 247.436702 
L 156.120761 247.199662 
L 155.409844 246.729816 
L 155.292579 247.199662 
L 155.529551 246.962623 
L 155.764081 246.492777 
L 156.120761 246.729816 
L 155.883788 247.669509 
L 155.646816 247.906548 
L 155.646816 247.436702 
L 155.883788 246.255737 
L 156.001053 246.492777 
L 155.883788 246.729816 
L 155.883788 247.199662 
L 156.120761 247.669509 
L 156.238025 248.376394 
L 156.001053 248.376394 
L 155.646816 247.669509 
L 155.055607 247.199662 
L 155.055607 247.436702 
L 155.175314 247.906548 
L 155.409844 248.376394 
L 155.646816 248.376394 
L 155.409844 247.906548 
L 155.055607 247.669509 
L 154.938342 247.906548 
L 155.055607 247.436702 
L 154.938342 246.962623 
L 154.818634 246.962623 
L 155.764081 246.962623 
L 156.120761 247.199662 
L 156.001053 247.669509 
L 155.764081 247.199662 
L 155.764081 246.492777 
L 155.764081 246.729816 
L 155.883788 247.436702 
L 156.238025 247.436702 
L 157.303179 247.199662 
L 158.720127 247.436702 
L 160.256783 248.139355 
L 162.030411 248.613434 
L 164.041011 248.846241 
L 166.051612 248.613434 
L 168.179477 248.613434 
L 170.661579 248.846241 
L 173.263388 249.553126 
L 175.865198 250.027205 
L 178.3473 250.734091 
L 180.712138 250.734091 
L 183.19424 250.966898 
L 185.676342 251.673783 
L 192.533881 254.264287 
L 196.672347 255.208212 
L 201.282314 256.621984 
L 203.647151 257.09183 
L 206.129253 258.035755 
L 208.613798 259.212487 
L 211.213165 259.919373 
L 213.814974 259.919373 
L 219.372831 260.389219 
L 228.121263 261.80299 
L 231.311839 261.80299 
L 234.267886 262.04003 
L 236.869696 262.979722 
L 239.234533 264.160687 
L 241.479663 264.867573 
L 245.8551 265.807265 
L 247.745993 265.807265 
L 249.165384 266.044305 
L 250.347803 266.514151 
L 253.066877 268.634808 
L 254.012323 270.048579 
L 254.36656 270.755465 
L 254.129588 271.225311 
L 253.538379 271.462351 
L 252.949612 271.932197 
L 252.592932 272.876122 
L 252.121431 272.639083 
L 251.410514 272.639083 
L 250.465067 273.345969 
L 249.519621 273.345969 
L 249.756593 273.345969 
L 249.873858 273.583008 
L 249.636886 274.289894 
L 249.873858 275.229586 
L 249.873858 274.99678 
L 249.165384 274.052854 
L 249.165384 274.289894 
L 249.402356 274.99678 
L 249.402356 276.173512 
L 249.282649 276.173512 
L 249.048119 275.936472 
L 248.691439 277.350243 
L 248.337202 277.82009 
L 248.337202 277.350243 
L 248.337202 277.82009 
L 248.45691 278.057129 
L 248.337202 277.587283 
L 248.219938 277.113204 
L 247.865701 276.880397 
L 247.509021 276.880397 
L 247.037519 278.057129 
L 247.037519 278.294169 
L 247.037519 278.057129 
L 246.683282 277.587283 
L 246.683282 277.82009 
L 246.44631 278.057129 
L 246.326602 278.526975 
L 246.44631 278.526975 
L 246.44631 278.294169 
L 246.800547 278.764015 
L 246.800547 278.526975 
L 246.44631 277.587283 
L 246.092073 278.057129 
L 245.8551 278.057129 
L 245.735393 278.294169 
L 245.735393 278.057129 
L 245.618128 277.587283 
L 245.500863 277.587283 
L 245.500863 278.294169 
L 245.500863 277.82009 
L 245.263891 277.587283 
L 244.909654 277.82009 
L 244.789946 278.294169 
L 244.909654 278.526975 
L 245.263891 278.526975 
L 245.618128 278.057129 
L 245.735393 277.350243 
L 245.500863 277.113204 
L 245.146626 277.113204 
L 245.026919 277.350243 
L 244.672682 277.587283 
L 244.318445 277.350243 
L 244.081472 276.880397 
L 244.081472 276.173512 
L 244.318445 276.173512 
L 244.555417 276.410551 
L 244.435709 277.113204 
L 243.964208 278.057129 
L 243.727235 277.82009 
L 243.8445 277.350243 
L 244.198737 277.350243 
L 244.318445 277.587283 
L 244.081472 277.350243 
L 244.081472 277.350243 
L 243.964208 277.587283 
L 243.964208 277.587283 
L 244.081472 278.057129 
L 244.318445 278.057129 
L 244.435709 277.350243 
L 244.198737 276.880397 
L 244.081472 277.350243 
L 244.081472 278.057129 
L 243.964208 278.057129 
L 243.964208 277.350243 
L 243.964208 278.057129 
L 243.8445 278.764015 
L 243.8445 278.764015 
L 243.727235 278.057129 
L 243.490263 277.587283 
L 243.253291 277.82009 
L 243.253291 278.526975 
L 243.136026 278.057129 
L 243.253291 277.587283 
L 243.372998 277.82009 
L 243.253291 278.294169 
L 242.899054 278.057129 
L 242.662081 277.587283 
L 242.19058 277.587283 
L 242.19058 277.350243 
L 242.425109 277.113204 
L 242.544817 277.587283 
L 242.544817 278.294169 
L 241.953607 279.233861 
L 241.716635 279.470901 
L 241.716635 278.526975 
L 241.8339 277.350243 
L 242.307844 279.001054 
L 241.953607 278.057129 
L 242.070872 277.587283 
L 241.953607 277.587283 
L 241.362398 278.294169 
L 241.362398 278.294169 
L 242.070872 276.880397 
L 241.716635 277.113204 
L 241.362398 277.113204 
L 241.125426 277.82009 
L 241.24269 278.057129 
L 241.008161 279.233861 
L 241.125426 278.764015 
L 241.362398 278.057129 
L 241.008161 277.113204 
L 240.653924 276.643358 
L 240.653924 277.113204 
L 241.125426 278.294169 
L 240.888453 277.587283 
L 240.771189 277.587283 
L 240.653924 276.880397 
L 240.653924 277.113204 
L 240.416952 277.113204 
L 240.416952 277.350243 
L 240.653924 277.587283 
L 241.125426 278.764015 
L 241.59937 278.764015 
L 242.19058 278.526975 
L 243.136026 278.526975 
L 244.555417 278.764015 
L 246.092073 278.526975 
L 247.745993 278.764015 
L 249.282649 279.70794 
L 250.70204 280.414826 
L 254.129588 280.884672 
L 256.96837 280.414826 
L 258.150789 280.884672 
L 259.333207 281.824364 
L 261.461072 282.298444 
L 262.052282 282.53125 
L 262.760756 283.712215 
L 263.2347 284.182061 
L 263.2347 283.945022 
L 263.2347 284.182061 
L 263.351965 284.888947 
L 263.351965 285.595833 
L 263.471673 285.832872 
L 263.706202 285.358793 
L 263.943174 285.832872 
L 264.180147 285.832872 
L 264.180147 285.125986 
L 264.180147 285.358793 
L 264.062882 286.065679 
L 263.706202 286.535525 
L 263.471673 286.302718 
L 263.2347 286.302718 
L 262.997728 286.535525 
L 262.760756 286.302718 
L 262.880463 286.535525 
L 262.880463 286.772565 
L 262.523783 288.186336 
L 262.052282 287.242411 
L 261.578337 286.535525 
L 261.578337 286.065679 
L 262.052282 286.302718 
L 262.643491 287.242411 
L 262.052282 287.71649 
L 261.815309 287.47945 
L 261.815309 288.656182 
L 261.698045 289.130261 
L 261.461072 289.130261 
L 261.2241 288.893222 
L 261.343808 288.893222 
L 261.578337 288.893222 
L 261.461072 288.893222 
L 261.343808 288.656182 
L 260.987128 288.656182 
L 261.343808 289.363068 
L 261.106835 288.656182 
L 260.752598 288.893222 
L 260.752598 288.656182 
L 260.987128 288.656182 
L 261.106835 289.130261 
L 261.343808 289.600108 
L 261.2241 289.837147 
L 261.106835 289.600108 
L 261.106835 289.837147 
L 261.106835 290.069954 
L 260.869863 290.069954 
L 260.515626 290.306993 
L 260.278654 290.306993 
L 260.161389 290.069954 
L 260.278654 290.306993 
L 260.161389 291.013879 
L 259.804709 290.069954 
L 259.687444 289.363068 
L 260.515626 290.069954 
L 260.515626 289.837147 
L 260.161389 289.600108 
L 259.924417 289.837147 
L 259.804709 290.306993 
L 259.450472 290.544033 
L 258.97897 291.246686 
L 259.2135 291.246686 
L 259.57018 291.013879 
L 259.57018 290.776839 
L 259.687444 290.776839 
L 259.57018 290.776839 
L 258.97897 290.306993 
L 258.387761 290.306993 
L 258.268053 290.069954 
L 258.387761 289.600108 
L 258.62229 289.363068 
L 258.62229 290.069954 
L 258.859263 291.013879 
L 258.859263 291.013879 
L 258.62229 291.246686 
L 257.796552 290.776839 
L 257.676844 290.306993 
L 257.676844 289.837147 
L 257.796552 289.600108 
L 258.031081 289.837147 
L 258.150789 290.544033 
L 258.387761 291.246686 
L 258.505026 292.190611 
L 258.268053 292.42765 
L 257.676844 291.953571 
L 257.439872 291.483725 
L 257.559579 291.013879 
L 258.505026 291.013879 
L 258.505026 291.246686 
L 258.150789 291.953571 
L 257.676844 292.42765 
L 257.439872 292.897497 
L 257.439872 291.720765 
L 257.322607 291.720765 
L 257.085635 292.897497 
L 256.851105 292.897497 
L 257.085635 292.42765 
L 256.851105 292.190611 
L 256.851105 291.953571 
L 257.322607 291.483725 
L 257.559579 291.720765 
L 257.676844 292.42765 
L 257.676844 293.134536 
L 257.559579 293.367343 
L 257.085635 292.897497 
L 256.851105 292.190611 
L 256.96837 292.190611 
L 257.085635 292.660457 
L 257.085635 293.367343 
L 257.085635 293.367343 
L 257.205342 293.604382 
L 257.085635 293.367343 
L 256.851105 293.367343 
L 256.851105 293.841422 
L 257.085635 293.841422 
L 256.731398 293.367343 
L 256.614133 293.367343 
L 256.614133 293.841422 
L 256.731398 294.074229 
L 256.851105 293.604382 
L 257.322607 293.367343 
L 257.676844 294.074229 
L 257.439872 294.548308 
L 256.96837 294.311268 
L 256.731398 293.841422 
L 256.851105 293.604382 
L 256.731398 293.841422 
L 256.851105 294.548308 
L 256.851105 295.255193 
L 256.614133 295.488 
L 256.494425 295.255193 
L 256.731398 294.074229 
L 256.494425 293.841422 
L 256.494425 294.074229 
L 256.731398 294.311268 
L 256.614133 294.781114 
L 256.731398 294.781114 
L 256.851105 294.311268 
L 256.731398 294.311268 
L 256.377161 294.074229 
L 256.140188 293.367343 
L 256.140188 292.897497 
L 256.377161 293.367343 
L 256.731398 293.134536 
L 256.96837 293.134536 
L 256.614133 293.604382 
L 256.140188 292.660457 
L 256.259896 292.660457 
L 256.614133 292.897497 
L 256.851105 291.953571 
L 256.851105 293.134536 
L 256.731398 293.134536 
L 256.731398 293.134536 
L 256.731398 292.897497 
L 256.494425 291.013879 
L 256.614133 290.776839 
L 257.322607 291.953571 
L 257.322607 291.483725 
L 257.085635 290.544033 
L 256.851105 290.776839 
L 256.731398 290.306993 
L 256.731398 289.600108 
L 256.96837 289.363068 
L 257.205342 289.600108 
L 257.439872 289.363068 
L 257.559579 288.656182 
L 257.439872 288.656182 
L 257.322607 288.186336 
L 257.439872 287.71649 
L 257.322607 286.772565 
L 256.96837 285.832872 
L 256.96837 285.595833 
L 257.205342 285.358793 
L 257.559579 285.358793 
L 257.796552 285.595833 
L 257.676844 285.358793 
L 257.439872 284.419101 
L 257.205342 284.419101 
L 257.085635 283.238136 
L 257.676844 283.945022 
L 257.796552 284.182061 
L 257.796552 283.712215 
L 257.559579 282.53125 
L 256.96837 280.884672 
L 257.205342 281.121712 
L 257.559579 281.354518 
L 257.913816 281.121712 
L 257.913816 280.647633 
L 257.913816 280.647633 
L 258.031081 280.414826 
L 257.796552 279.940747 
L 257.205342 279.233861 
L 257.676844 279.70794 
L 257.559579 279.233861 
L 257.559579 278.526975 
L 257.796552 278.526975 
L 257.913816 279.001054 
L 257.676844 278.764015 
L 257.439872 278.294169 
L 257.559579 277.82009 
L 257.559579 277.587283 
L 257.676844 277.587283 
L 257.676844 277.587283 
L 257.559579 277.113204 
L 257.322607 276.643358 
L 257.559579 276.880397 
L 256.96837 277.82009 
L 257.205342 277.350243 
L 257.205342 276.643358 
L 257.559579 275.703665 
L 257.676844 276.173512 
L 257.913816 276.880397 
L 257.559579 276.880397 
L 257.439872 276.410551 
L 257.559579 275.936472 
L 257.676844 275.936472 
L 257.559579 275.936472 
L 257.322607 275.703665 
L 257.322607 275.466626 
L 257.439872 275.466626 
L 257.796552 275.229586 
L 257.796552 274.75974 
L 257.439872 274.75974 
L 257.205342 275.229586 
L 257.322607 275.229586 
L 257.676844 275.229586 
L 257.676844 274.99678 
L 257.439872 274.75974 
L 257.439872 274.052854 
L 257.322607 274.052854 
L 257.322607 274.052854 
L 257.322607 273.815815 
L 257.559579 273.583008 
L 257.559579 274.289894 
L 257.205342 274.99678 
L 257.322607 275.229586 
L 257.085635 274.75974 
L 257.322607 274.289894 
L 257.322607 274.522701 
L 257.322607 274.99678 
L 257.559579 275.466626 
L 257.085635 274.522701 
L 257.085635 273.345969 
L 257.439872 272.639083 
L 257.559579 272.876122 
L 257.439872 274.052854 
L 257.085635 275.229586 
L 257.085635 275.229586 
L 256.96837 274.75974 
L 257.085635 274.99678 
L 257.322607 274.289894 
L 257.322607 274.522701 
L 257.322607 275.229586 
L 256.96837 275.703665 
L 256.731398 275.229586 
L 256.731398 274.522701 
L 257.085635 273.815815 
L 257.439872 273.815815 
L 257.439872 274.289894 
L 257.205342 275.466626 
L 256.96837 275.703665 
L 256.731398 275.703665 
L 256.377161 274.052854 
L 256.140188 274.052854 
L 255.668687 274.289894 
L 254.840505 274.289894 
L 252.358403 272.876122 
L 250.70204 272.169237 
L 242.899054 271.462351 
L 240.297244 270.755465 
L 234.622123 268.871848 
L 228.238528 266.514151 
L 224.456742 265.574458 
L 213.814974 262.04003 
L 210.150454 261.333144 
L 206.485933 260.863298 
L 203.292914 260.156412 
L 200.219603 258.975447 
L 197.026584 257.328869 
L 185.796049 253.557401 
L 182.129086 250.966898 
L 178.93851 247.906548 
L 175.508518 245.785891 
L 171.726733 244.609159 
L 168.059769 242.958348 
L 164.869193 240.837691 
L 161.676174 238.484227 
L 158.248626 236.36357 
L 155.055607 234.242913 
L 152.219268 233.066181 
L 149.734723 231.652409 
L 147.726565 229.768792 
L 145.952937 227.648134 
L 144.416282 225.997323 
L 141.697207 223.40682 
L 141.223263 222.230088 
L 141.105998 220.816317 
L 141.223263 220.816317 
L 141.460235 221.523202 
L 142.051444 221.523202 
L 142.642654 220.816317 
L 143.351128 220.34647 
L 144.059602 220.34647 
L 145.5987 221.286163 
L 146.070202 222.467128 
L 146.070202 223.174013 
L 146.307174 223.64386 
L 146.424439 224.583552 
L 146.424439 225.997323 
L 146.424439 225.997323 
L 146.661411 225.997323 
L 146.781119 226.234363 
L 146.18991 226.704209 
L 146.424439 226.704209 
L 146.781119 227.648134 
L 146.781119 227.648134 
L 146.781119 226.941249 
L 146.661411 226.471402 
L 146.661411 226.941249 
L 146.898384 228.35502 
L 146.898384 229.061906 
L 146.898384 228.59206 
L 146.781119 228.35502 
L 147.015648 228.824866 
L 147.606858 228.824866 
L 147.489593 228.824866 
L 147.372328 229.061906 
L 147.606858 230.475677 
L 147.726565 230.475677 
L 147.84383 230.001598 
L 147.726565 229.768792 
L 147.84383 229.294713 
L 147.84383 228.824866 
L 147.726565 228.824866 
L 147.489593 229.294713 
L 147.489593 229.768792 
L 147.606858 230.238638 
L 147.606858 230.708484 
L 147.606858 230.708484 
L 147.84383 230.475677 
L 147.961095 231.652409 
L 147.84383 232.122255 
L 147.726565 232.122255 
L 147.726565 231.652409 
L 147.726565 231.652409 
" style="fill:none;stroke:#1f77b4;stroke-linecap:square;stroke-width:1.5;"/>
   </g>
   <g id="matplotlib.axis_1">
    <g id="xtick_1">
     <g id="line2d_2">
      <defs>
       <path d="M 0 0 
L 0 3.5 
" id="m71c532368d" style="stroke:#000000;stroke-width:0.8;"/>
      </defs>
      <g>
       <use style="stroke:#000000;stroke-width:0.8;" x="86.389818" xlink:href="#m71c532368d" y="307.584"/>
      </g>
     </g>
     <g id="text_1">
      <!-- −400 -->
      <defs>
       <path d="M 10.59375 35.5 
L 73.1875 35.5 
L 73.1875 27.203125 
L 10.59375 27.203125 
z
" id="DejaVuSans-8722"/>
       <path d="M 37.796875 64.3125 
L 12.890625 25.390625 
L 37.796875 25.390625 
z
M 35.203125 72.90625 
L 47.609375 72.90625 
L 47.609375 25.390625 
L 58.015625 25.390625 
L 58.015625 17.1875 
L 47.609375 17.1875 
L 47.609375 0 
L 37.796875 0 
L 37.796875 17.1875 
L 4.890625 17.1875 
L 4.890625 26.703125 
z
" id="DejaVuSans-52"/>
       <path d="M 31.78125 66.40625 
Q 24.171875 66.40625 20.328125 58.90625 
Q 16.5 51.421875 16.5 36.375 
Q 16.5 21.390625 20.328125 13.890625 
Q 24.171875 6.390625 31.78125 6.390625 
Q 39.453125 6.390625 43.28125 13.890625 
Q 47.125 21.390625 47.125 36.375 
Q 47.125 51.421875 43.28125 58.90625 
Q 39.453125 66.40625 31.78125 66.40625 
z
M 31.78125 74.21875 
Q 44.046875 74.21875 50.515625 64.515625 
Q 56.984375 54.828125 56.984375 36.375 
Q 56.984375 17.96875 50.515625 8.265625 
Q 44.046875 -1.421875 31.78125 -1.421875 
Q 19.53125 -1.421875 13.0625 8.265625 
Q 6.59375 17.96875 6.59375 36.375 
Q 6.59375 54.828125 13.0625 64.515625 
Q 19.53125 74.21875 31.78125 74.21875 
z
" id="DejaVuSans-48"/>
      </defs>
      <g transform="translate(72.656224 322.182437)scale(0.1 -0.1)">
       <use xlink:href="#DejaVuSans-8722"/>
       <use x="83.789062" xlink:href="#DejaVuSans-52"/>
       <use x="147.412109" xlink:href="#DejaVuSans-48"/>
       <use x="211.035156" xlink:href="#DejaVuSans-48"/>
      </g>
     </g>
    </g>
    <g id="xtick_2">
     <g id="line2d_3">
      <g>
       <use style="stroke:#000000;stroke-width:0.8;" x="135.250094" xlink:href="#m71c532368d" y="307.584"/>
      </g>
     </g>
     <g id="text_2">
      <!-- −200 -->
      <defs>
       <path d="M 19.1875 8.296875 
L 53.609375 8.296875 
L 53.609375 0 
L 7.328125 0 
L 7.328125 8.296875 
Q 12.9375 14.109375 22.625 23.890625 
Q 32.328125 33.6875 34.8125 36.53125 
Q 39.546875 41.84375 41.421875 45.53125 
Q 43.3125 49.21875 43.3125 52.78125 
Q 43.3125 58.59375 39.234375 62.25 
Q 35.15625 65.921875 28.609375 65.921875 
Q 23.96875 65.921875 18.8125 64.3125 
Q 13.671875 62.703125 7.8125 59.421875 
L 7.8125 69.390625 
Q 13.765625 71.78125 18.9375 73 
Q 24.125 74.21875 28.421875 74.21875 
Q 39.75 74.21875 46.484375 68.546875 
Q 53.21875 62.890625 53.21875 53.421875 
Q 53.21875 48.921875 51.53125 44.890625 
Q 49.859375 40.875 45.40625 35.40625 
Q 44.1875 33.984375 37.640625 27.21875 
Q 31.109375 20.453125 19.1875 8.296875 
z
" id="DejaVuSans-50"/>
      </defs>
      <g transform="translate(121.5165 322.182437)scale(0.1 -0.1)">
       <use xlink:href="#DejaVuSans-8722"/>
       <use x="83.789062" xlink:href="#DejaVuSans-50"/>
       <use x="147.412109" xlink:href="#DejaVuSans-48"/>
       <use x="211.035156" xlink:href="#DejaVuSans-48"/>
      </g>
     </g>
    </g>
    <g id="xtick_3">
     <g id="line2d_4">
      <g>
       <use style="stroke:#000000;stroke-width:0.8;" x="184.11037" xlink:href="#m71c532368d" y="307.584"/>
      </g>
     </g>
     <g id="text_3">
      <!-- 0 -->
      <g transform="translate(180.92912 322.182437)scale(0.1 -0.1)">
       <use xlink:href="#DejaVuSans-48"/>
      </g>
     </g>
    </g>
    <g id="xtick_4">
     <g id="line2d_5">
      <g>
       <use style="stroke:#000000;stroke-width:0.8;" x="232.970645" xlink:href="#m71c532368d" y="307.584"/>
      </g>
     </g>
     <g id="text_4">
      <!-- 200 -->
      <g transform="translate(223.426895 322.182437)scale(0.1 -0.1)">
       <use xlink:href="#DejaVuSans-50"/>
       <use x="63.623047" xlink:href="#DejaVuSans-48"/>
       <use x="127.246094" xlink:href="#DejaVuSans-48"/>
      </g>
     </g>
    </g>
    <g id="xtick_5">
     <g id="line2d_6">
      <g>
       <use style="stroke:#000000;stroke-width:0.8;" x="281.830921" xlink:href="#m71c532368d" y="307.584"/>
      </g>
     </g>
     <g id="text_5">
      <!-- 400 -->
      <g transform="translate(272.287171 322.182437)scale(0.1 -0.1)">
       <use xlink:href="#DejaVuSans-52"/>
       <use x="63.623047" xlink:href="#DejaVuSans-48"/>
       <use x="127.246094" xlink:href="#DejaVuSans-48"/>
      </g>
     </g>
    </g>
    <g id="xtick_6">
     <g id="line2d_7">
      <g>
       <use style="stroke:#000000;stroke-width:0.8;" x="330.691197" xlink:href="#m71c532368d" y="307.584"/>
      </g>
     </g>
     <g id="text_6">
      <!-- 600 -->
      <defs>
       <path d="M 33.015625 40.375 
Q 26.375 40.375 22.484375 35.828125 
Q 18.609375 31.296875 18.609375 23.390625 
Q 18.609375 15.53125 22.484375 10.953125 
Q 26.375 6.390625 33.015625 6.390625 
Q 39.65625 6.390625 43.53125 10.953125 
Q 47.40625 15.53125 47.40625 23.390625 
Q 47.40625 31.296875 43.53125 35.828125 
Q 39.65625 40.375 33.015625 40.375 
z
M 52.59375 71.296875 
L 52.59375 62.3125 
Q 48.875 64.0625 45.09375 64.984375 
Q 41.3125 65.921875 37.59375 65.921875 
Q 27.828125 65.921875 22.671875 59.328125 
Q 17.53125 52.734375 16.796875 39.40625 
Q 19.671875 43.65625 24.015625 45.921875 
Q 28.375 48.1875 33.59375 48.1875 
Q 44.578125 48.1875 50.953125 41.515625 
Q 57.328125 34.859375 57.328125 23.390625 
Q 57.328125 12.15625 50.6875 5.359375 
Q 44.046875 -1.421875 33.015625 -1.421875 
Q 20.359375 -1.421875 13.671875 8.265625 
Q 6.984375 17.96875 6.984375 36.375 
Q 6.984375 53.65625 15.1875 63.9375 
Q 23.390625 74.21875 37.203125 74.21875 
Q 40.921875 74.21875 44.703125 73.484375 
Q 48.484375 72.75 52.59375 71.296875 
z
" id="DejaVuSans-54"/>
      </defs>
      <g transform="translate(321.147447 322.182437)scale(0.1 -0.1)">
       <use xlink:href="#DejaVuSans-54"/>
       <use x="63.623047" xlink:href="#DejaVuSans-48"/>
       <use x="127.246094" xlink:href="#DejaVuSans-48"/>
      </g>
     </g>
    </g>
    <g id="xtick_7">
     <g id="line2d_8">
      <g>
       <use style="stroke:#000000;stroke-width:0.8;" x="379.551473" xlink:href="#m71c532368d" y="307.584"/>
      </g>
     </g>
     <g id="text_7">
      <!-- 800 -->
      <defs>
       <path d="M 31.78125 34.625 
Q 24.75 34.625 20.71875 30.859375 
Q 16.703125 27.09375 16.703125 20.515625 
Q 16.703125 13.921875 20.71875 10.15625 
Q 24.75 6.390625 31.78125 6.390625 
Q 38.8125 6.390625 42.859375 10.171875 
Q 46.921875 13.96875 46.921875 20.515625 
Q 46.921875 27.09375 42.890625 30.859375 
Q 38.875 34.625 31.78125 34.625 
z
M 21.921875 38.8125 
Q 15.578125 40.375 12.03125 44.71875 
Q 8.5 49.078125 8.5 55.328125 
Q 8.5 64.0625 14.71875 69.140625 
Q 20.953125 74.21875 31.78125 74.21875 
Q 42.671875 74.21875 48.875 69.140625 
Q 55.078125 64.0625 55.078125 55.328125 
Q 55.078125 49.078125 51.53125 44.71875 
Q 48 40.375 41.703125 38.8125 
Q 48.828125 37.15625 52.796875 32.3125 
Q 56.78125 27.484375 56.78125 20.515625 
Q 56.78125 9.90625 50.3125 4.234375 
Q 43.84375 -1.421875 31.78125 -1.421875 
Q 19.734375 -1.421875 13.25 4.234375 
Q 6.78125 9.90625 6.78125 20.515625 
Q 6.78125 27.484375 10.78125 32.3125 
Q 14.796875 37.15625 21.921875 38.8125 
z
M 18.3125 54.390625 
Q 18.3125 48.734375 21.84375 45.5625 
Q 25.390625 42.390625 31.78125 42.390625 
Q 38.140625 42.390625 41.71875 45.5625 
Q 45.3125 48.734375 45.3125 54.390625 
Q 45.3125 60.0625 41.71875 63.234375 
Q 38.140625 66.40625 31.78125 66.40625 
Q 25.390625 66.40625 21.84375 63.234375 
Q 18.3125 60.0625 18.3125 54.390625 
z
" id="DejaVuSans-56"/>
      </defs>
      <g transform="translate(370.007723 322.182437)scale(0.1 -0.1)">
       <use xlink:href="#DejaVuSans-56"/>
       <use x="63.623047" xlink:href="#DejaVuSans-48"/>
       <use x="127.246094" xlink:href="#DejaVuSans-48"/>
      </g>
     </g>
    </g>
   </g>
   <g id="matplotlib.axis_2">
    <g id="ytick_1">
     <g id="line2d_9">
      <defs>
       <path d="M 0 0 
L -3.5 0 
" id="m75b2a6ba58" style="stroke:#000000;stroke-width:0.8;"/>
      </defs>
      <g>
       <use style="stroke:#000000;stroke-width:0.8;" x="57.6" xlink:href="#m75b2a6ba58" y="305.99393"/>
      </g>
     </g>
     <g id="text_8">
      <!-- −400 -->
      <g transform="translate(23.132812 309.793149)scale(0.1 -0.1)">
       <use xlink:href="#DejaVuSans-8722"/>
       <use x="83.789062" xlink:href="#DejaVuSans-52"/>
       <use x="147.412109" xlink:href="#DejaVuSans-48"/>
       <use x="211.035156" xlink:href="#DejaVuSans-48"/>
      </g>
     </g>
    </g>
    <g id="ytick_2">
     <g id="line2d_10">
      <g>
       <use style="stroke:#000000;stroke-width:0.8;" x="57.6" xlink:href="#m75b2a6ba58" y="263.665444"/>
      </g>
     </g>
     <g id="text_9">
      <!-- −300 -->
      <defs>
       <path d="M 40.578125 39.3125 
Q 47.65625 37.796875 51.625 33 
Q 55.609375 28.21875 55.609375 21.1875 
Q 55.609375 10.40625 48.1875 4.484375 
Q 40.765625 -1.421875 27.09375 -1.421875 
Q 22.515625 -1.421875 17.65625 -0.515625 
Q 12.796875 0.390625 7.625 2.203125 
L 7.625 11.71875 
Q 11.71875 9.328125 16.59375 8.109375 
Q 21.484375 6.890625 26.8125 6.890625 
Q 36.078125 6.890625 40.9375 10.546875 
Q 45.796875 14.203125 45.796875 21.1875 
Q 45.796875 27.640625 41.28125 31.265625 
Q 36.765625 34.90625 28.71875 34.90625 
L 20.21875 34.90625 
L 20.21875 43.015625 
L 29.109375 43.015625 
Q 36.375 43.015625 40.234375 45.921875 
Q 44.09375 48.828125 44.09375 54.296875 
Q 44.09375 59.90625 40.109375 62.90625 
Q 36.140625 65.921875 28.71875 65.921875 
Q 24.65625 65.921875 20.015625 65.03125 
Q 15.375 64.15625 9.8125 62.3125 
L 9.8125 71.09375 
Q 15.4375 72.65625 20.34375 73.4375 
Q 25.25 74.21875 29.59375 74.21875 
Q 40.828125 74.21875 47.359375 69.109375 
Q 53.90625 64.015625 53.90625 55.328125 
Q 53.90625 49.265625 50.4375 45.09375 
Q 46.96875 40.921875 40.578125 39.3125 
z
" id="DejaVuSans-51"/>
      </defs>
      <g transform="translate(23.132812 267.464662)scale(0.1 -0.1)">
       <use xlink:href="#DejaVuSans-8722"/>
       <use x="83.789062" xlink:href="#DejaVuSans-51"/>
       <use x="147.412109" xlink:href="#DejaVuSans-48"/>
       <use x="211.035156" xlink:href="#DejaVuSans-48"/>
      </g>
     </g>
    </g>
    <g id="ytick_3">
     <g id="line2d_11">
      <g>
       <use style="stroke:#000000;stroke-width:0.8;" x="57.6" xlink:href="#m75b2a6ba58" y="221.336957"/>
      </g>
     </g>
     <g id="text_10">
      <!-- −200 -->
      <g transform="translate(23.132812 225.136176)scale(0.1 -0.1)">
       <use xlink:href="#DejaVuSans-8722"/>
       <use x="83.789062" xlink:href="#DejaVuSans-50"/>
       <use x="147.412109" xlink:href="#DejaVuSans-48"/>
       <use x="211.035156" xlink:href="#DejaVuSans-48"/>
      </g>
     </g>
    </g>
    <g id="ytick_4">
     <g id="line2d_12">
      <g>
       <use style="stroke:#000000;stroke-width:0.8;" x="57.6" xlink:href="#m75b2a6ba58" y="179.00847"/>
      </g>
     </g>
     <g id="text_11">
      <!-- −100 -->
      <defs>
       <path d="M 12.40625 8.296875 
L 28.515625 8.296875 
L 28.515625 63.921875 
L 10.984375 60.40625 
L 10.984375 69.390625 
L 28.421875 72.90625 
L 38.28125 72.90625 
L 38.28125 8.296875 
L 54.390625 8.296875 
L 54.390625 0 
L 12.40625 0 
z
" id="DejaVuSans-49"/>
      </defs>
      <g transform="translate(23.132812 182.807689)scale(0.1 -0.1)">
       <use xlink:href="#DejaVuSans-8722"/>
       <use x="83.789062" xlink:href="#DejaVuSans-49"/>
       <use x="147.412109" xlink:href="#DejaVuSans-48"/>
       <use x="211.035156" xlink:href="#DejaVuSans-48"/>
      </g>
     </g>
    </g>
    <g id="ytick_5">
     <g id="line2d_13">
      <g>
       <use style="stroke:#000000;stroke-width:0.8;" x="57.6" xlink:href="#m75b2a6ba58" y="136.679984"/>
      </g>
     </g>
     <g id="text_12">
      <!-- 0 -->
      <g transform="translate(44.2375 140.479202)scale(0.1 -0.1)">
       <use xlink:href="#DejaVuSans-48"/>
      </g>
     </g>
    </g>
    <g id="ytick_6">
     <g id="line2d_14">
      <g>
       <use style="stroke:#000000;stroke-width:0.8;" x="57.6" xlink:href="#m75b2a6ba58" y="94.351497"/>
      </g>
     </g>
     <g id="text_13">
      <!-- 100 -->
      <g transform="translate(31.5125 98.150716)scale(0.1 -0.1)">
       <use xlink:href="#DejaVuSans-49"/>
       <use x="63.623047" xlink:href="#DejaVuSans-48"/>
       <use x="127.246094" xlink:href="#DejaVuSans-48"/>
      </g>
     </g>
    </g>
    <g id="ytick_7">
     <g id="line2d_15">
      <g>
       <use style="stroke:#000000;stroke-width:0.8;" x="57.6" xlink:href="#m75b2a6ba58" y="52.02301"/>
      </g>
     </g>
     <g id="text_14">
      <!-- 200 -->
      <g transform="translate(31.5125 55.822229)scale(0.1 -0.1)">
       <use xlink:href="#DejaVuSans-50"/>
       <use x="63.623047" xlink:href="#DejaVuSans-48"/>
       <use x="127.246094" xlink:href="#DejaVuSans-48"/>
      </g>
     </g>
    </g>
   </g>
   <g id="line2d_16">
    <path clip-path="url(#pd2af5b48b2)" d="M 395.157937 62.082303 
L 232.010875 77.822295 
L 136.261897 202.506027 
L 84.388709 212.958739 
L 155.879504 254.864657 
L 242.947836 275.257148 
L 257.312273 284.686171 
" style="fill:none;stroke:#ff0000;stroke-linecap:square;stroke-width:0.5;"/>
   </g>
   <g id="patch_3">
    <path d="M 57.6 307.584 
L 57.6 41.472 
" style="fill:none;stroke:#000000;stroke-linecap:square;stroke-linejoin:miter;stroke-width:0.8;"/>
   </g>
   <g id="patch_4">
    <path d="M 414.72 307.584 
L 414.72 41.472 
" style="fill:none;stroke:#000000;stroke-linecap:square;stroke-linejoin:miter;stroke-width:0.8;"/>
   </g>
   <g id="patch_5">
    <path d="M 57.6 307.584 
L 414.72 307.584 
" style="fill:none;stroke:#000000;stroke-linecap:square;stroke-linejoin:miter;stroke-width:0.8;"/>
   </g>
   <g id="patch_6">
    <path d="M 57.6 41.472 
L 414.72 41.472 
" style="fill:none;stroke:#000000;stroke-linecap:square;stroke-linejoin:miter;stroke-width:0.8;"/>
   </g>
   <g id="PathCollection_1">
    <defs>
     <path d="M 0 2.738613 
C 0.726289 2.738613 1.422928 2.450055 1.936492 1.936492 
C 2.450055 1.422928 2.738613 0.726289 2.738613 0 
C 2.738613 -0.726289 2.450055 -1.422928 1.936492 -1.936492 
C 1.422928 -2.450055 0.726289 -2.738613 0 -2.738613 
C -0.726289 -2.738613 -1.422928 -2.450055 -1.936492 -1.936492 
C -2.450055 -1.422928 -2.738613 -0.726289 -2.738613 0 
C -2.738613 0.726289 -2.450055 1.422928 -1.936492 1.936492 
C -1.422928 2.450055 -0.726289 2.738613 0 2.738613 
z
" id="m44b6b8c2c9" style="stroke:#ff0000;"/>
    </defs>
    <g clip-path="url(#pd2af5b48b2)">
     <use style="fill:#ff0000;stroke:#ff0000;" x="395.157937" xlink:href="#m44b6b8c2c9" y="62.082303"/>
     <use style="fill:#ff0000;stroke:#ff0000;" x="232.010875" xlink:href="#m44b6b8c2c9" y="77.822295"/>
     <use style="fill:#ff0000;stroke:#ff0000;" x="136.261897" xlink:href="#m44b6b8c2c9" y="202.506027"/>
     <use style="fill:#ff0000;stroke:#ff0000;" x="84.388709" xlink:href="#m44b6b8c2c9" y="212.958739"/>
     <use style="fill:#ff0000;stroke:#ff0000;" x="155.879504" xlink:href="#m44b6b8c2c9" y="254.864657"/>
     <use style="fill:#ff0000;stroke:#ff0000;" x="242.947836" xlink:href="#m44b6b8c2c9" y="275.257148"/>
     <use style="fill:#ff0000;stroke:#ff0000;" x="257.312273" xlink:href="#m44b6b8c2c9" y="284.686171"/>
    </g>
   </g>
   <g id="text_15">
    <!-- (71) Subject: s7, Known = False, Degree = 2, Duration = 0.1 -->
    <defs>
     <path d="M 31 75.875 
Q 24.46875 64.65625 21.28125 53.65625 
Q 18.109375 42.671875 18.109375 31.390625 
Q 18.109375 20.125 21.3125 9.0625 
Q 24.515625 -2 31 -13.1875 
L 23.1875 -13.1875 
Q 15.875 -1.703125 12.234375 9.375 
Q 8.59375 20.453125 8.59375 31.390625 
Q 8.59375 42.28125 12.203125 53.3125 
Q 15.828125 64.359375 23.1875 75.875 
z
" id="DejaVuSans-40"/>
     <path d="M 8.203125 72.90625 
L 55.078125 72.90625 
L 55.078125 68.703125 
L 28.609375 0 
L 18.3125 0 
L 43.21875 64.59375 
L 8.203125 64.59375 
z
" id="DejaVuSans-55"/>
     <path d="M 8.015625 75.875 
L 15.828125 75.875 
Q 23.140625 64.359375 26.78125 53.3125 
Q 30.421875 42.28125 30.421875 31.390625 
Q 30.421875 20.453125 26.78125 9.375 
Q 23.140625 -1.703125 15.828125 -13.1875 
L 8.015625 -13.1875 
Q 14.5 -2 17.703125 9.0625 
Q 20.90625 20.125 20.90625 31.390625 
Q 20.90625 42.671875 17.703125 53.65625 
Q 14.5 64.65625 8.015625 75.875 
z
" id="DejaVuSans-41"/>
     <path id="DejaVuSans-32"/>
     <path d="M 53.515625 70.515625 
L 53.515625 60.890625 
Q 47.90625 63.578125 42.921875 64.890625 
Q 37.9375 66.21875 33.296875 66.21875 
Q 25.25 66.21875 20.875 63.09375 
Q 16.5 59.96875 16.5 54.203125 
Q 16.5 49.359375 19.40625 46.890625 
Q 22.3125 44.4375 30.421875 42.921875 
L 36.375 41.703125 
Q 47.40625 39.59375 52.65625 34.296875 
Q 57.90625 29 57.90625 20.125 
Q 57.90625 9.515625 50.796875 4.046875 
Q 43.703125 -1.421875 29.984375 -1.421875 
Q 24.8125 -1.421875 18.96875 -0.25 
Q 13.140625 0.921875 6.890625 3.21875 
L 6.890625 13.375 
Q 12.890625 10.015625 18.65625 8.296875 
Q 24.421875 6.59375 29.984375 6.59375 
Q 38.421875 6.59375 43.015625 9.90625 
Q 47.609375 13.234375 47.609375 19.390625 
Q 47.609375 24.75 44.3125 27.78125 
Q 41.015625 30.8125 33.5 32.328125 
L 27.484375 33.5 
Q 16.453125 35.6875 11.515625 40.375 
Q 6.59375 45.0625 6.59375 53.421875 
Q 6.59375 63.09375 13.40625 68.65625 
Q 20.21875 74.21875 32.171875 74.21875 
Q 37.3125 74.21875 42.625 73.28125 
Q 47.953125 72.359375 53.515625 70.515625 
z
" id="DejaVuSans-83"/>
     <path d="M 8.5 21.578125 
L 8.5 54.6875 
L 17.484375 54.6875 
L 17.484375 21.921875 
Q 17.484375 14.15625 20.5 10.265625 
Q 23.53125 6.390625 29.59375 6.390625 
Q 36.859375 6.390625 41.078125 11.03125 
Q 45.3125 15.671875 45.3125 23.6875 
L 45.3125 54.6875 
L 54.296875 54.6875 
L 54.296875 0 
L 45.3125 0 
L 45.3125 8.40625 
Q 42.046875 3.421875 37.71875 1 
Q 33.40625 -1.421875 27.6875 -1.421875 
Q 18.265625 -1.421875 13.375 4.4375 
Q 8.5 10.296875 8.5 21.578125 
z
M 31.109375 56 
z
" id="DejaVuSans-117"/>
     <path d="M 48.6875 27.296875 
Q 48.6875 37.203125 44.609375 42.84375 
Q 40.53125 48.484375 33.40625 48.484375 
Q 26.265625 48.484375 22.1875 42.84375 
Q 18.109375 37.203125 18.109375 27.296875 
Q 18.109375 17.390625 22.1875 11.75 
Q 26.265625 6.109375 33.40625 6.109375 
Q 40.53125 6.109375 44.609375 11.75 
Q 48.6875 17.390625 48.6875 27.296875 
z
M 18.109375 46.390625 
Q 20.953125 51.265625 25.265625 53.625 
Q 29.59375 56 35.59375 56 
Q 45.5625 56 51.78125 48.09375 
Q 58.015625 40.1875 58.015625 27.296875 
Q 58.015625 14.40625 51.78125 6.484375 
Q 45.5625 -1.421875 35.59375 -1.421875 
Q 29.59375 -1.421875 25.265625 0.953125 
Q 20.953125 3.328125 18.109375 8.203125 
L 18.109375 0 
L 9.078125 0 
L 9.078125 75.984375 
L 18.109375 75.984375 
z
" id="DejaVuSans-98"/>
     <path d="M 9.421875 54.6875 
L 18.40625 54.6875 
L 18.40625 -0.984375 
Q 18.40625 -11.421875 14.421875 -16.109375 
Q 10.453125 -20.796875 1.609375 -20.796875 
L -1.8125 -20.796875 
L -1.8125 -13.1875 
L 0.59375 -13.1875 
Q 5.71875 -13.1875 7.5625 -10.8125 
Q 9.421875 -8.453125 9.421875 -0.984375 
z
M 9.421875 75.984375 
L 18.40625 75.984375 
L 18.40625 64.59375 
L 9.421875 64.59375 
z
" id="DejaVuSans-106"/>
     <path d="M 56.203125 29.59375 
L 56.203125 25.203125 
L 14.890625 25.203125 
Q 15.484375 15.921875 20.484375 11.0625 
Q 25.484375 6.203125 34.421875 6.203125 
Q 39.59375 6.203125 44.453125 7.46875 
Q 49.3125 8.734375 54.109375 11.28125 
L 54.109375 2.78125 
Q 49.265625 0.734375 44.1875 -0.34375 
Q 39.109375 -1.421875 33.890625 -1.421875 
Q 20.796875 -1.421875 13.15625 6.1875 
Q 5.515625 13.8125 5.515625 26.8125 
Q 5.515625 40.234375 12.765625 48.109375 
Q 20.015625 56 32.328125 56 
Q 43.359375 56 49.78125 48.890625 
Q 56.203125 41.796875 56.203125 29.59375 
z
M 47.21875 32.234375 
Q 47.125 39.59375 43.09375 43.984375 
Q 39.0625 48.390625 32.421875 48.390625 
Q 24.90625 48.390625 20.390625 44.140625 
Q 15.875 39.890625 15.1875 32.171875 
z
" id="DejaVuSans-101"/>
     <path d="M 48.78125 52.59375 
L 48.78125 44.1875 
Q 44.96875 46.296875 41.140625 47.34375 
Q 37.3125 48.390625 33.40625 48.390625 
Q 24.65625 48.390625 19.8125 42.84375 
Q 14.984375 37.3125 14.984375 27.296875 
Q 14.984375 17.28125 19.8125 11.734375 
Q 24.65625 6.203125 33.40625 6.203125 
Q 37.3125 6.203125 41.140625 7.25 
Q 44.96875 8.296875 48.78125 10.40625 
L 48.78125 2.09375 
Q 45.015625 0.34375 40.984375 -0.53125 
Q 36.96875 -1.421875 32.421875 -1.421875 
Q 20.0625 -1.421875 12.78125 6.34375 
Q 5.515625 14.109375 5.515625 27.296875 
Q 5.515625 40.671875 12.859375 48.328125 
Q 20.21875 56 33.015625 56 
Q 37.15625 56 41.109375 55.140625 
Q 45.0625 54.296875 48.78125 52.59375 
z
" id="DejaVuSans-99"/>
     <path d="M 18.3125 70.21875 
L 18.3125 54.6875 
L 36.8125 54.6875 
L 36.8125 47.703125 
L 18.3125 47.703125 
L 18.3125 18.015625 
Q 18.3125 11.328125 20.140625 9.421875 
Q 21.96875 7.515625 27.59375 7.515625 
L 36.8125 7.515625 
L 36.8125 0 
L 27.59375 0 
Q 17.1875 0 13.234375 3.875 
Q 9.28125 7.765625 9.28125 18.015625 
L 9.28125 47.703125 
L 2.6875 47.703125 
L 2.6875 54.6875 
L 9.28125 54.6875 
L 9.28125 70.21875 
z
" id="DejaVuSans-116"/>
     <path d="M 11.71875 12.40625 
L 22.015625 12.40625 
L 22.015625 0 
L 11.71875 0 
z
M 11.71875 51.703125 
L 22.015625 51.703125 
L 22.015625 39.3125 
L 11.71875 39.3125 
z
" id="DejaVuSans-58"/>
     <path d="M 44.28125 53.078125 
L 44.28125 44.578125 
Q 40.484375 46.53125 36.375 47.5 
Q 32.28125 48.484375 27.875 48.484375 
Q 21.1875 48.484375 17.84375 46.4375 
Q 14.5 44.390625 14.5 40.28125 
Q 14.5 37.15625 16.890625 35.375 
Q 19.28125 33.59375 26.515625 31.984375 
L 29.59375 31.296875 
Q 39.15625 29.25 43.1875 25.515625 
Q 47.21875 21.78125 47.21875 15.09375 
Q 47.21875 7.46875 41.1875 3.015625 
Q 35.15625 -1.421875 24.609375 -1.421875 
Q 20.21875 -1.421875 15.453125 -0.5625 
Q 10.6875 0.296875 5.421875 2 
L 5.421875 11.28125 
Q 10.40625 8.6875 15.234375 7.390625 
Q 20.0625 6.109375 24.8125 6.109375 
Q 31.15625 6.109375 34.5625 8.28125 
Q 37.984375 10.453125 37.984375 14.40625 
Q 37.984375 18.0625 35.515625 20.015625 
Q 33.0625 21.96875 24.703125 23.78125 
L 21.578125 24.515625 
Q 13.234375 26.265625 9.515625 29.90625 
Q 5.8125 33.546875 5.8125 39.890625 
Q 5.8125 47.609375 11.28125 51.796875 
Q 16.75 56 26.8125 56 
Q 31.78125 56 36.171875 55.265625 
Q 40.578125 54.546875 44.28125 53.078125 
z
" id="DejaVuSans-115"/>
     <path d="M 11.71875 12.40625 
L 22.015625 12.40625 
L 22.015625 4 
L 14.015625 -11.625 
L 7.71875 -11.625 
L 11.71875 4 
z
" id="DejaVuSans-44"/>
     <path d="M 9.8125 72.90625 
L 19.671875 72.90625 
L 19.671875 42.09375 
L 52.390625 72.90625 
L 65.09375 72.90625 
L 28.90625 38.921875 
L 67.671875 0 
L 54.6875 0 
L 19.671875 35.109375 
L 19.671875 0 
L 9.8125 0 
z
" id="DejaVuSans-75"/>
     <path d="M 54.890625 33.015625 
L 54.890625 0 
L 45.90625 0 
L 45.90625 32.71875 
Q 45.90625 40.484375 42.875 44.328125 
Q 39.84375 48.1875 33.796875 48.1875 
Q 26.515625 48.1875 22.3125 43.546875 
Q 18.109375 38.921875 18.109375 30.90625 
L 18.109375 0 
L 9.078125 0 
L 9.078125 54.6875 
L 18.109375 54.6875 
L 18.109375 46.1875 
Q 21.34375 51.125 25.703125 53.5625 
Q 30.078125 56 35.796875 56 
Q 45.21875 56 50.046875 50.171875 
Q 54.890625 44.34375 54.890625 33.015625 
z
" id="DejaVuSans-110"/>
     <path d="M 30.609375 48.390625 
Q 23.390625 48.390625 19.1875 42.75 
Q 14.984375 37.109375 14.984375 27.296875 
Q 14.984375 17.484375 19.15625 11.84375 
Q 23.34375 6.203125 30.609375 6.203125 
Q 37.796875 6.203125 41.984375 11.859375 
Q 46.1875 17.53125 46.1875 27.296875 
Q 46.1875 37.015625 41.984375 42.703125 
Q 37.796875 48.390625 30.609375 48.390625 
z
M 30.609375 56 
Q 42.328125 56 49.015625 48.375 
Q 55.71875 40.765625 55.71875 27.296875 
Q 55.71875 13.875 49.015625 6.21875 
Q 42.328125 -1.421875 30.609375 -1.421875 
Q 18.84375 -1.421875 12.171875 6.21875 
Q 5.515625 13.875 5.515625 27.296875 
Q 5.515625 40.765625 12.171875 48.375 
Q 18.84375 56 30.609375 56 
z
" id="DejaVuSans-111"/>
     <path d="M 4.203125 54.6875 
L 13.1875 54.6875 
L 24.421875 12.015625 
L 35.59375 54.6875 
L 46.1875 54.6875 
L 57.421875 12.015625 
L 68.609375 54.6875 
L 77.59375 54.6875 
L 63.28125 0 
L 52.6875 0 
L 40.921875 44.828125 
L 29.109375 0 
L 18.5 0 
z
" id="DejaVuSans-119"/>
     <path d="M 10.59375 45.40625 
L 73.1875 45.40625 
L 73.1875 37.203125 
L 10.59375 37.203125 
z
M 10.59375 25.484375 
L 73.1875 25.484375 
L 73.1875 17.1875 
L 10.59375 17.1875 
z
" id="DejaVuSans-61"/>
     <path d="M 9.8125 72.90625 
L 51.703125 72.90625 
L 51.703125 64.59375 
L 19.671875 64.59375 
L 19.671875 43.109375 
L 48.578125 43.109375 
L 48.578125 34.8125 
L 19.671875 34.8125 
L 19.671875 0 
L 9.8125 0 
z
" id="DejaVuSans-70"/>
     <path d="M 34.28125 27.484375 
Q 23.390625 27.484375 19.1875 25 
Q 14.984375 22.515625 14.984375 16.5 
Q 14.984375 11.71875 18.140625 8.90625 
Q 21.296875 6.109375 26.703125 6.109375 
Q 34.1875 6.109375 38.703125 11.40625 
Q 43.21875 16.703125 43.21875 25.484375 
L 43.21875 27.484375 
z
M 52.203125 31.203125 
L 52.203125 0 
L 43.21875 0 
L 43.21875 8.296875 
Q 40.140625 3.328125 35.546875 0.953125 
Q 30.953125 -1.421875 24.3125 -1.421875 
Q 15.921875 -1.421875 10.953125 3.296875 
Q 6 8.015625 6 15.921875 
Q 6 25.140625 12.171875 29.828125 
Q 18.359375 34.515625 30.609375 34.515625 
L 43.21875 34.515625 
L 43.21875 35.40625 
Q 43.21875 41.609375 39.140625 45 
Q 35.0625 48.390625 27.6875 48.390625 
Q 23 48.390625 18.546875 47.265625 
Q 14.109375 46.140625 10.015625 43.890625 
L 10.015625 52.203125 
Q 14.9375 54.109375 19.578125 55.046875 
Q 24.21875 56 28.609375 56 
Q 40.484375 56 46.34375 49.84375 
Q 52.203125 43.703125 52.203125 31.203125 
z
" id="DejaVuSans-97"/>
     <path d="M 9.421875 75.984375 
L 18.40625 75.984375 
L 18.40625 0 
L 9.421875 0 
z
" id="DejaVuSans-108"/>
     <path d="M 19.671875 64.796875 
L 19.671875 8.109375 
L 31.59375 8.109375 
Q 46.6875 8.109375 53.6875 14.9375 
Q 60.6875 21.78125 60.6875 36.53125 
Q 60.6875 51.171875 53.6875 57.984375 
Q 46.6875 64.796875 31.59375 64.796875 
z
M 9.8125 72.90625 
L 30.078125 72.90625 
Q 51.265625 72.90625 61.171875 64.09375 
Q 71.09375 55.28125 71.09375 36.53125 
Q 71.09375 17.671875 61.125 8.828125 
Q 51.171875 0 30.078125 0 
L 9.8125 0 
z
" id="DejaVuSans-68"/>
     <path d="M 45.40625 27.984375 
Q 45.40625 37.75 41.375 43.109375 
Q 37.359375 48.484375 30.078125 48.484375 
Q 22.859375 48.484375 18.828125 43.109375 
Q 14.796875 37.75 14.796875 27.984375 
Q 14.796875 18.265625 18.828125 12.890625 
Q 22.859375 7.515625 30.078125 7.515625 
Q 37.359375 7.515625 41.375 12.890625 
Q 45.40625 18.265625 45.40625 27.984375 
z
M 54.390625 6.78125 
Q 54.390625 -7.171875 48.1875 -13.984375 
Q 42 -20.796875 29.203125 -20.796875 
Q 24.46875 -20.796875 20.265625 -20.09375 
Q 16.0625 -19.390625 12.109375 -17.921875 
L 12.109375 -9.1875 
Q 16.0625 -11.328125 19.921875 -12.34375 
Q 23.78125 -13.375 27.78125 -13.375 
Q 36.625 -13.375 41.015625 -8.765625 
Q 45.40625 -4.15625 45.40625 5.171875 
L 45.40625 9.625 
Q 42.625 4.78125 38.28125 2.390625 
Q 33.9375 0 27.875 0 
Q 17.828125 0 11.671875 7.65625 
Q 5.515625 15.328125 5.515625 27.984375 
Q 5.515625 40.671875 11.671875 48.328125 
Q 17.828125 56 27.875 56 
Q 33.9375 56 38.28125 53.609375 
Q 42.625 51.21875 45.40625 46.390625 
L 45.40625 54.6875 
L 54.390625 54.6875 
z
" id="DejaVuSans-103"/>
     <path d="M 41.109375 46.296875 
Q 39.59375 47.171875 37.8125 47.578125 
Q 36.03125 48 33.890625 48 
Q 26.265625 48 22.1875 43.046875 
Q 18.109375 38.09375 18.109375 28.8125 
L 18.109375 0 
L 9.078125 0 
L 9.078125 54.6875 
L 18.109375 54.6875 
L 18.109375 46.1875 
Q 20.953125 51.171875 25.484375 53.578125 
Q 30.03125 56 36.53125 56 
Q 37.453125 56 38.578125 55.875 
Q 39.703125 55.765625 41.0625 55.515625 
z
" id="DejaVuSans-114"/>
     <path d="M 9.421875 54.6875 
L 18.40625 54.6875 
L 18.40625 0 
L 9.421875 0 
z
M 9.421875 75.984375 
L 18.40625 75.984375 
L 18.40625 64.59375 
L 9.421875 64.59375 
z
" id="DejaVuSans-105"/>
     <path d="M 10.6875 12.40625 
L 21 12.40625 
L 21 0 
L 10.6875 0 
z
" id="DejaVuSans-46"/>
    </defs>
    <g transform="translate(53.559375 35.472)scale(0.12 -0.12)">
     <use xlink:href="#DejaVuSans-40"/>
     <use x="39.013672" xlink:href="#DejaVuSans-55"/>
     <use x="102.636719" xlink:href="#DejaVuSans-49"/>
     <use x="166.259766" xlink:href="#DejaVuSans-41"/>
     <use x="205.273438" xlink:href="#DejaVuSans-32"/>
     <use x="237.060547" xlink:href="#DejaVuSans-83"/>
     <use x="300.537109" xlink:href="#DejaVuSans-117"/>
     <use x="363.916016" xlink:href="#DejaVuSans-98"/>
     <use x="427.392578" xlink:href="#DejaVuSans-106"/>
     <use x="455.175781" xlink:href="#DejaVuSans-101"/>
     <use x="516.699219" xlink:href="#DejaVuSans-99"/>
     <use x="571.679688" xlink:href="#DejaVuSans-116"/>
     <use x="610.888672" xlink:href="#DejaVuSans-58"/>
     <use x="644.580078" xlink:href="#DejaVuSans-32"/>
     <use x="676.367188" xlink:href="#DejaVuSans-115"/>
     <use x="728.466797" xlink:href="#DejaVuSans-55"/>
     <use x="792.089844" xlink:href="#DejaVuSans-44"/>
     <use x="823.876953" xlink:href="#DejaVuSans-32"/>
     <use x="855.664062" xlink:href="#DejaVuSans-75"/>
     <use x="921.240234" xlink:href="#DejaVuSans-110"/>
     <use x="984.619141" xlink:href="#DejaVuSans-111"/>
     <use x="1045.800781" xlink:href="#DejaVuSans-119"/>
     <use x="1127.587891" xlink:href="#DejaVuSans-110"/>
     <use x="1190.966797" xlink:href="#DejaVuSans-32"/>
     <use x="1222.753906" xlink:href="#DejaVuSans-61"/>
     <use x="1306.542969" xlink:href="#DejaVuSans-32"/>
     <use x="1338.330078" xlink:href="#DejaVuSans-70"/>
     <use x="1395.708984" xlink:href="#DejaVuSans-97"/>
     <use x="1456.988281" xlink:href="#DejaVuSans-108"/>
     <use x="1484.771484" xlink:href="#DejaVuSans-115"/>
     <use x="1536.871094" xlink:href="#DejaVuSans-101"/>
     <use x="1598.394531" xlink:href="#DejaVuSans-44"/>
     <use x="1630.181641" xlink:href="#DejaVuSans-32"/>
     <use x="1661.96875" xlink:href="#DejaVuSans-68"/>
     <use x="1738.970703" xlink:href="#DejaVuSans-101"/>
     <use x="1800.494141" xlink:href="#DejaVuSans-103"/>
     <use x="1863.970703" xlink:href="#DejaVuSans-114"/>
     <use x="1905.052734" xlink:href="#DejaVuSans-101"/>
     <use x="1966.576172" xlink:href="#DejaVuSans-101"/>
     <use x="2028.099609" xlink:href="#DejaVuSans-32"/>
     <use x="2059.886719" xlink:href="#DejaVuSans-61"/>
     <use x="2143.675781" xlink:href="#DejaVuSans-32"/>
     <use x="2175.462891" xlink:href="#DejaVuSans-50"/>
     <use x="2239.085938" xlink:href="#DejaVuSans-44"/>
     <use x="2270.873047" xlink:href="#DejaVuSans-32"/>
     <use x="2302.660156" xlink:href="#DejaVuSans-68"/>
     <use x="2379.662109" xlink:href="#DejaVuSans-117"/>
     <use x="2443.041016" xlink:href="#DejaVuSans-114"/>
     <use x="2484.154297" xlink:href="#DejaVuSans-97"/>
     <use x="2545.433594" xlink:href="#DejaVuSans-116"/>
     <use x="2584.642578" xlink:href="#DejaVuSans-105"/>
     <use x="2612.425781" xlink:href="#DejaVuSans-111"/>
     <use x="2673.607422" xlink:href="#DejaVuSans-110"/>
     <use x="2736.986328" xlink:href="#DejaVuSans-32"/>
     <use x="2768.773438" xlink:href="#DejaVuSans-61"/>
     <use x="2852.5625" xlink:href="#DejaVuSans-32"/>
     <use x="2884.349609" xlink:href="#DejaVuSans-48"/>
     <use x="2947.972656" xlink:href="#DejaVuSans-46"/>
     <use x="2979.759766" xlink:href="#DejaVuSans-49"/>
    </g>
   </g>
  </g>
 </g>
 <defs>
  <clipPath id="pd2af5b48b2">
   <rect height="266.112" width="357.12" x="57.6" y="41.472"/>
  </clipPath>
 </defs>
</svg>
