<?xml version="1.0" encoding="utf-8" standalone="no"?>
<!DOCTYPE svg PUBLIC "-//W3C//DTD SVG 1.1//EN"
  "http://www.w3.org/Graphics/SVG/1.1/DTD/svg11.dtd">
<!-- Created with matplotlib (https://matplotlib.org/) -->
<svg height="345.6pt" version="1.1" viewBox="0 0 460.8 345.6" width="460.8pt" xmlns="http://www.w3.org/2000/svg" xmlns:xlink="http://www.w3.org/1999/xlink">
 <defs>
  <style type="text/css">
*{stroke-linecap:butt;stroke-linejoin:round;}
  </style>
 </defs>
 <g id="figure_1">
  <g id="patch_1">
   <path d="M 0 345.6 
L 460.8 345.6 
L 460.8 0 
L 0 0 
z
" style="fill:#ffffff;"/>
  </g>
  <g id="axes_1">
   <g id="patch_2">
    <path d="M 57.6 307.584 
L 414.72 307.584 
L 414.72 41.472 
L 57.6 41.472 
z
" style="fill:#ffffff;"/>
   </g>
   <g id="line2d_1">
    <path clip-path="url(#pa20c1f7a83)" d="M 396.727355 57.910607 
L 396.978294 57.910607 
L 396.727355 57.910607 
L 396.727355 57.655396 
L 396.727355 57.655396 
L 396.978294 57.910607 
L 397.229233 57.910607 
L 397.734456 56.889763 
L 397.734456 57.144974 
L 397.734456 57.910607 
L 397.483518 58.423039 
L 397.229233 58.423039 
L 397.229233 58.165818 
L 397.229233 58.423039 
L 396.978294 58.423039 
L 396.978294 58.67825 
L 397.229233 58.165818 
L 398.487273 56.889763 
L 397.985395 57.400185 
L 396.727355 57.910607 
L 395.974539 58.423039 
L 396.225478 58.933461 
L 396.727355 58.67825 
L 397.483518 58.165818 
L 398.236334 57.400185 
L 397.734456 57.400185 
L 397.229233 57.655396 
L 396.978294 57.910607 
L 396.727355 58.423039 
L 396.727355 58.423039 
L 396.476417 58.165818 
L 396.476417 57.910607 
L 396.225478 58.165818 
L 396.225478 58.423039 
L 396.727355 58.67825 
L 396.978294 58.67825 
L 396.978294 58.423039 
L 396.727355 57.910607 
L 396.727355 57.910607 
L 396.727355 58.165818 
L 396.476417 58.165818 
L 396.476417 57.655396 
L 396.727355 57.400185 
L 397.229233 57.655396 
L 397.985395 57.655396 
L 397.985395 57.910607 
L 397.229233 57.655396 
L 396.727355 56.889763 
L 396.727355 56.634552 
L 397.483518 56.634552 
L 397.483518 57.144974 
L 396.978294 57.400185 
L 396.727355 57.655396 
L 396.727355 57.910607 
L 397.229233 57.910607 
L 397.985395 57.655396 
L 398.487273 57.144974 
L 398.236334 56.889763 
L 396.978294 56.379341 
L 396.476417 56.634552 
L 395.974539 57.144974 
L 395.974539 57.400185 
L 396.476417 56.379341 
L 396.727355 56.379341 
L 397.229233 56.634552 
L 397.483518 56.634552 
L 397.734456 56.379341 
L 397.734456 54.846065 
L 397.734456 54.846065 
L 397.483518 55.101276 
L 396.727355 55.101276 
L 397.229233 55.101276 
L 397.483518 55.356487 
L 396.727355 55.611698 
L 396.225478 56.12212 
L 396.727355 55.611698 
L 397.483518 55.356487 
L 397.985395 54.846065 
L 397.483518 54.590854 
L 396.727355 55.101276 
L 395.974539 55.101276 
L 395.7236 54.846065 
L 394.970784 54.846065 
L 395.472662 54.846065 
L 395.7236 54.590854 
L 395.7236 54.335643 
L 395.974539 53.823211 
L 396.476417 53.823211 
L 396.727355 54.080432 
L 396.727355 54.335643 
L 396.476417 54.846065 
L 395.974539 54.590854 
L 395.7236 54.335643 
L 395.472662 54.335643 
L 395.974539 54.335643 
L 396.225478 54.590854 
L 395.974539 54.590854 
L 396.225478 54.846065 
L 396.476417 54.590854 
L 396.225478 54.335643 
L 395.7236 54.080432 
L 395.472662 53.568 
L 395.974539 53.568 
L 396.225478 53.823211 
L 396.225478 54.335643 
L 395.974539 54.335643 
L 395.7236 54.080432 
L 395.7236 54.080432 
L 395.7236 54.846065 
L 395.974539 54.846065 
L 396.225478 55.101276 
L 396.225478 56.379341 
L 395.7236 56.889763 
L 395.472662 56.634552 
L 395.472662 56.379341 
L 395.7236 56.12212 
L 395.7236 56.12212 
L 394.719845 56.12212 
L 394.468907 56.379341 
L 394.719845 56.889763 
L 394.719845 56.889763 
L 394.970784 56.889763 
L 394.970784 56.889763 
L 394.970784 56.379341 
L 395.221723 56.379341 
L 395.472662 56.889763 
L 395.472662 57.400185 
L 394.970784 56.889763 
L 394.719845 57.400185 
L 394.719845 57.910607 
L 395.221723 58.423039 
L 395.472662 58.423039 
L 395.221723 57.910607 
L 395.221723 56.889763 
L 393.71609 57.400185 
L 393.967029 57.655396 
L 394.217968 57.655396 
L 394.468907 57.144974 
L 393.967029 57.144974 
L 393.465151 57.655396 
L 393.214213 58.165818 
L 392.963274 57.910607 
L 393.214213 57.655396 
L 393.71609 57.400185 
L 393.967029 57.655396 
L 393.967029 57.910607 
L 393.214213 57.910607 
L 393.214213 58.165818 
L 393.465151 58.423039 
L 394.217968 58.933461 
L 393.465151 58.423039 
L 392.963274 58.67825 
L 393.214213 58.933461 
L 393.465151 58.67825 
L 393.465151 58.423039 
L 393.214213 58.423039 
L 393.214213 58.165818 
L 392.963274 57.655396 
L 392.712335 57.655396 
L 392.712335 57.655396 
L 393.214213 57.910607 
L 393.71609 57.910607 
L 393.465151 58.165818 
L 393.214213 58.165818 
L 392.963274 57.910607 
L 392.963274 57.910607 
L 392.963274 58.165818 
L 392.963274 58.165818 
L 392.712335 57.910607 
L 392.963274 57.655396 
L 392.461396 57.910607 
L 392.461396 57.910607 
L 392.712335 57.910607 
L 393.214213 58.165818 
L 392.963274 58.423039 
L 392.210458 58.423039 
L 391.959519 58.165818 
L 391.959519 57.910607 
L 392.461396 58.423039 
L 392.712335 58.423039 
L 391.959519 58.423039 
L 392.210458 58.423039 
L 392.712335 58.67825 
L 392.461396 58.67825 
L 392.210458 58.165818 
L 391.959519 57.910607 
L 391.454295 58.423039 
L 391.203357 58.423039 
L 391.203357 57.655396 
L 391.454295 57.400185 
L 391.959519 57.655396 
L 391.959519 57.910607 
L 390.952418 58.933461 
L 390.952418 58.933461 
L 390.952418 58.67825 
L 391.454295 58.423039 
L 391.705234 58.423039 
L 392.461396 59.188672 
L 392.712335 58.933461 
L 392.963274 59.188672 
L 393.465151 59.443883 
L 393.465151 59.188672 
L 392.712335 58.67825 
L 391.959519 58.423039 
L 391.454295 57.910607 
L 391.454295 57.400185 
L 391.959519 57.655396 
L 392.461396 58.165818 
L 392.210458 58.423039 
L 391.705234 58.423039 
L 391.959519 58.67825 
L 391.959519 58.67825 
L 391.203357 58.67825 
L 391.203357 58.67825 
L 391.203357 58.423039 
L 391.454295 57.910607 
L 391.959519 57.655396 
L 391.959519 58.423039 
L 392.210458 58.67825 
L 392.712335 58.67825 
L 392.963274 58.933461 
L 392.712335 59.188672 
L 391.959519 59.188672 
L 391.705234 58.933461 
L 391.454295 58.423039 
L 391.705234 57.910607 
L 392.461396 57.655396 
L 392.963274 58.165818 
L 392.210458 58.423039 
L 391.454295 58.423039 
L 390.952418 57.910607 
L 391.203357 57.655396 
L 391.705234 57.910607 
L 392.210458 58.423039 
L 392.210458 58.165818 
L 391.959519 57.655396 
L 391.705234 57.400185 
L 391.705234 57.144974 
L 390.199602 58.67825 
L 388.44303 59.699094 
L 386.937398 59.954305 
L 384.675603 60.209516 
L 382.166215 60.977159 
L 379.653481 61.998003 
L 376.642216 63.531279 
L 372.874789 65.064555 
L 359.066465 69.407163 
L 345.756672 73.494559 
L 340.988835 75.538257 
L 336.468592 77.837166 
L 331.948348 79.880864 
L 327.177165 81.669351 
L 322.405983 83.96826 
L 318.140024 86.777592 
L 314.372596 89.844144 
L 309.852353 92.908686 
L 304.579293 95.207595 
L 298.804355 97.251293 
L 293.280356 99.807423 
L 289.011051 102.361543 
L 281.228603 108.237427 
L 268.925912 116.66743 
L 265.158484 119.476761 
L 261.143464 122.030882 
L 253.35767 125.607856 
L 246.0771 130.460885 
L 241.556857 132.504583 
L 236.785674 134.803492 
L 232.014491 137.359622 
L 223.228289 142.723074 
L 219.209922 145.021983 
L 214.940617 147.065681 
L 204.143559 153.196775 
L 202.136048 155.495685 
L 199.877599 159.32787 
L 199.375722 160.605935 
L 198.622906 161.626779 
L 198.117682 162.904844 
L 197.615805 165.714175 
L 197.113927 169.801571 
L 197.364866 171.079636 
L 196.862988 174.65661 
L 196.61205 174.911821 
L 196.110172 175.677455 
L 196.110172 178.231575 
L 195.859233 179.50964 
L 195.357356 180.275273 
L 194.855478 180.787705 
L 194.604539 181.808549 
L 193.600784 184.61989 
L 192.847968 185.640734 
L 191.840867 186.661578 
L 191.088051 187.684432 
L 190.586173 188.705276 
L 189.331479 191.006195 
L 189.331479 191.516617 
L 189.080541 192.792673 
L 188.578663 194.070738 
L 187.825847 195.093591 
L 187.069685 195.859225 
L 186.567807 196.880069 
L 186.065929 198.923767 
L 185.564052 199.436199 
L 184.811236 202.24553 
L 184.058419 202.24553 
L 183.556542 202.500741 
L 183.556542 203.011163 
L 183.80748 203.011163 
L 183.80748 203.011163 
L 183.305603 203.778806 
L 182.301848 204.544439 
L 181.294747 205.567293 
L 182.050909 205.822504 
L 182.301848 206.077715 
L 182.050909 206.843348 
L 181.294747 207.610991 
L 181.043808 208.121413 
L 181.043808 208.887046 
L 180.541931 209.654689 
L 179.538176 209.9099 
L 179.036298 210.165111 
L 179.036298 210.675533 
L 179.538176 211.698387 
L 179.789114 212.46402 
L 179.789114 213.229654 
L 179.287237 214.507719 
L 178.785359 214.507719 
L 178.53442 214.76293 
L 178.53442 215.528563 
L 178.283482 216.296206 
L 178.283482 217.061839 
L 178.53442 217.829482 
L 178.785359 218.084693 
L 178.032543 218.850326 
L 178.032543 220.638813 
L 177.781604 220.894024 
L 177.279727 221.149235 
L 177.028788 221.659657 
L 176.777849 221.659657 
L 177.279727 221.149235 
L 177.530665 221.404446 
L 177.279727 221.916878 
L 177.028788 222.937722 
L 177.028788 223.448144 
L 177.279727 223.448144 
L 177.028788 224.215787 
L 176.52691 224.726209 
L 176.275971 224.726209 
L 176.52691 224.470998 
L 177.028788 224.726209 
L 176.777849 225.236631 
L 176.275971 225.747053 
L 175.774094 226.002264 
L 176.275971 226.002264 
L 177.028788 227.280329 
L 176.52691 226.769907 
L 176.52691 226.769907 
L 176.52691 227.53554 
L 176.777849 227.790751 
L 176.777849 227.280329 
L 176.52691 227.025118 
L 176.025033 227.53554 
L 176.025033 227.280329 
L 176.52691 227.025118 
L 176.777849 227.025118 
L 176.777849 226.769907 
L 176.275971 227.025118 
L 175.774094 227.025118 
L 175.519809 226.769907 
L 175.519809 226.514696 
L 175.774094 226.514696 
L 175.519809 226.769907 
L 175.268871 226.769907 
L 176.275971 226.769907 
L 176.52691 227.025118 
L 175.774094 227.025118 
L 175.519809 226.769907 
L 175.774094 226.259485 
L 176.025033 226.259485 
L 176.025033 226.514696 
L 176.275971 226.769907 
L 176.025033 227.025118 
L 175.519809 227.280329 
L 174.516054 227.53554 
L 171.504789 227.53554 
L 169.744872 228.558394 
L 166.984545 229.579239 
L 163.969934 230.089661 
L 157.44218 230.602092 
L 154.179976 231.367726 
L 151.165365 232.64579 
L 147.652222 233.921846 
L 132.585858 238.264453 
L 128.818431 239.542518 
L 125.305288 240.565372 
L 122.039738 241.331005 
L 119.028473 242.351849 
L 115.762923 243.885125 
L 113.504474 245.16319 
L 109.235169 246.694457 
L 103.962109 248.738155 
L 102.205538 249.505797 
L 100.696559 251.039073 
L 98.939988 252.57034 
L 96.932478 253.848405 
L 95.423499 255.12647 
L 94.168805 256.402525 
L 90.401378 258.701434 
L 88.895745 259.469077 
L 87.89199 260.23471 
L 86.637296 260.745132 
L 85.88448 261.255554 
L 85.131664 261.255554 
L 84.124563 261.512775 
L 83.873624 262.023197 
L 84.124563 263.044041 
L 85.131664 264.066895 
L 85.633541 264.322106 
L 85.88448 264.066895 
L 85.88448 263.811684 
L 85.382602 264.066895 
L 85.131664 264.577317 
L 84.62644 265.342951 
L 84.375502 265.08774 
L 84.124563 265.08774 
L 84.124563 265.600171 
L 84.62644 266.365804 
L 84.62644 267.131438 
L 83.371746 268.919925 
L 83.120808 269.687567 
L 83.371746 269.687567 
L 83.622685 269.942778 
L 82.869869 271.986477 
L 82.117053 273.007321 
L 81.364236 273.262532 
L 81.113298 272.75211 
L 81.615175 272.75211 
L 82.367991 273.262532 
L 82.61893 274.030175 
L 82.367991 275.051019 
L 81.866114 275.30623 
L 81.615175 274.795808 
L 81.364236 274.540597 
L 80.61142 276.073873 
L 80.61142 277.094717 
L 80.862359 277.094717 
L 81.113298 277.605139 
L 80.61142 278.627993 
L 80.360481 278.883204 
L 79.858604 278.883204 
L 79.102441 278.627993 
L 79.102441 278.372782 
L 79.607665 278.372782 
L 79.858604 278.883204 
L 80.360481 279.393626 
L 80.360481 279.904048 
L 80.109542 280.41648 
L 79.356726 281.182113 
L 79.858604 281.182113 
L 80.109542 280.926902 
L 80.109542 281.437324 
L 79.607665 281.692535 
L 78.851503 281.692535 
L 78.600564 282.204967 
L 79.102441 283.225811 
L 79.607665 283.736234 
L 79.858604 283.481022 
L 79.607665 283.481022 
L 79.607665 283.991445 
L 80.109542 284.248665 
L 79.607665 283.736234 
L 79.102441 285.014298 
L 79.102441 285.014298 
L 79.356726 285.014298 
L 79.356726 285.014298 
L 79.102441 285.269509 
L 79.102441 285.269509 
L 80.360481 285.269509 
L 80.360481 285.269509 
L 80.360481 285.779932 
L 80.109542 286.292363 
L 79.356726 286.292363 
L 79.102441 286.802785 
L 79.102441 287.057997 
L 79.356726 286.802785 
L 79.858604 286.547574 
L 80.109542 286.802785 
L 80.109542 288.336061 
L 79.607665 287.82363 
L 79.356726 287.82363 
L 79.607665 288.336061 
L 79.858604 287.82363 
L 79.607665 287.313208 
L 79.356726 287.568419 
L 79.356726 288.336061 
L 79.102441 288.336061 
L 79.102441 288.336061 
L 79.356726 288.591272 
L 80.109542 288.846484 
L 80.360481 289.101695 
L 79.858604 289.101695 
L 79.356726 288.846484 
L 79.102441 288.846484 
L 79.356726 288.846484 
L 79.607665 289.356906 
L 79.607665 289.867328 
L 79.858604 290.122539 
L 80.862359 290.122539 
L 80.61142 290.37976 
L 80.109542 290.37976 
L 79.607665 290.122539 
L 79.102441 290.122539 
L 79.102441 290.890182 
L 79.356726 291.400604 
L 79.356726 291.145393 
L 79.607665 290.37976 
L 79.607665 290.37976 
L 80.109542 290.890182 
L 80.862359 290.890182 
L 80.862359 291.655815 
L 79.607665 292.93388 
L 80.109542 292.93388 
L 80.360481 292.678669 
L 79.858604 293.189091 
L 79.858604 293.954724 
L 79.858604 293.189091 
L 80.109542 292.423458 
L 80.61142 292.423458 
L 81.113298 293.189091 
L 80.862359 293.699513 
L 80.862359 294.209935 
L 81.364236 293.699513 
L 81.364236 293.444302 
L 80.862359 293.954724 
L 80.862359 294.722367 
L 80.61142 295.232789 
L 80.360481 295.488 
L 80.61142 294.977578 
L 80.61142 294.722367 
L 80.109542 294.467156 
L 80.109542 294.722367 
L 80.360481 294.977578 
L 80.862359 294.977578 
L 81.364236 294.467156 
L 81.113298 294.467156 
L 81.113298 294.722367 
L 81.364236 294.977578 
L 82.117053 295.488 
L 83.371746 295.488 
L 85.382602 294.977578 
L 87.89199 294.209935 
L 94.419744 294.209935 
L 103.209293 292.423458 
L 108.482353 292.423458 
L 114.508229 292.678669 
L 121.035983 292.166237 
L 133.840552 289.612117 
L 140.870184 288.591272 
L 148.1541 287.82363 
L 167.9883 286.292363 
L 182.301848 284.248665 
L 189.080541 283.481022 
L 195.608294 283.225811 
L 202.136048 282.715389 
L 208.161925 281.947746 
L 219.209922 281.437324 
L 225.235799 281.437324 
L 231.010736 280.926902 
L 241.054979 280.926902 
L 246.0771 281.182113 
L 251.601099 280.926902 
L 256.874159 279.904048 
L 260.638241 278.117571 
L 263.903791 276.839506 
L 266.918402 276.329084 
L 269.678728 276.329084 
L 271.686238 276.839506 
L 273.195217 277.349928 
L 273.948033 277.094717 
L 274.198972 276.329084 
L 273.948033 275.561441 
L 272.944278 275.818662 
L 271.184361 277.094717 
L 270.431545 277.349928 
L 268.925912 277.605139 
L 267.671218 277.605139 
L 266.918402 278.117571 
L 266.16224 279.138415 
L 265.660362 279.393626 
L 265.158484 279.138415 
L 264.405668 279.904048 
L 263.401913 281.692535 
L 262.649097 282.460178 
L 262.398158 282.460178 
L 262.649097 282.204967 
L 262.649097 282.715389 
L 263.150974 282.715389 
L 263.903791 282.460178 
L 264.405668 282.9706 
L 264.405668 283.481022 
L 264.154729 283.991445 
L 264.154729 284.503876 
L 264.405668 284.759087 
L 264.405668 285.269509 
L 264.154729 285.524721 
L 263.652852 285.524721 
L 263.150974 286.292363 
L 263.150974 286.802785 
L 263.401913 286.802785 
L 263.652852 287.057997 
L 263.903791 287.568419 
L 263.903791 290.37976 
L 263.652852 291.400604 
L 263.150974 291.911026 
L 262.900036 291.655815 
L 262.900036 291.400604 
L 263.150974 291.145393 
L 263.150974 290.634971 
L 262.649097 288.336061 
L 262.147219 287.313208 
L 261.645342 287.057997 
L 261.143464 286.547574 
L 260.88918 286.035143 
L 261.143464 285.779932 
L 261.645342 285.524721 
L 262.398158 285.269509 
L 263.150974 284.503876 
L 262.900036 283.991445 
L 262.900036 284.503876 
L 263.150974 285.524721 
L 263.150974 286.292363 
L 262.900036 287.057997 
L 262.900036 287.057997 
L 263.401913 287.057997 
L 263.903791 287.568419 
L 263.903791 288.591272 
L 263.401913 289.101695 
L 262.900036 289.101695 
L 262.398158 288.846484 
L 262.147219 288.336061 
L 262.398158 288.336061 
L 262.900036 288.591272 
L 263.401913 288.591272 
L 263.401913 288.336061 
L 262.900036 287.568419 
L 262.649097 287.568419 
L 262.900036 288.591272 
L 264.154729 289.867328 
L 263.652852 289.612117 
L 262.900036 289.101695 
L 262.649097 288.336061 
L 262.649097 287.568419 
L 262.649097 287.82363 
L 262.398158 288.078841 
L 262.398158 286.035143 
L 262.398158 286.547574 
L 262.649097 286.547574 
L 263.401913 286.292363 
L 263.903791 286.547574 
L 263.903791 287.313208 
L 263.401913 287.82363 
L 263.150974 287.82363 
L 263.401913 287.82363 
L 263.401913 287.568419 
L 262.649097 287.313208 
L 261.89628 287.313208 
L 261.89628 287.568419 
L 262.398158 287.82363 
L 262.900036 287.82363 
L 262.900036 288.336061 
L 262.900036 288.336061 
L 263.150974 288.078841 
L 263.150974 288.078841 
L 263.150974 288.846484 
L 263.401913 289.101695 
L 263.652852 289.101695 
L 263.652852 289.101695 
L 263.903791 288.846484 
L 262.900036 288.846484 
L 262.649097 289.101695 
L 262.649097 289.867328 
L 262.398158 289.867328 
L 262.398158 288.336061 
L 263.150974 288.078841 
L 263.652852 288.591272 
L 263.652852 288.846484 
L 263.401913 288.591272 
L 263.150974 288.078841 
L 262.649097 288.078841 
L 262.649097 288.591272 
L 262.900036 289.101695 
L 263.401913 289.356906 
L 263.652852 289.356906 
L 263.652852 288.846484 
L 263.652852 288.846484 
L 263.401913 289.101695 
L 262.900036 289.356906 
L 263.150974 289.356906 
L 263.150974 289.867328 
L 262.900036 290.122539 
L 262.900036 289.867328 
L 263.401913 289.356906 
L 263.652852 288.846484 
L 263.652852 288.846484 
L 263.401913 288.846484 
L 263.401913 289.356906 
L 263.652852 289.612117 
L 263.652852 289.867328 
L 263.652852 289.356906 
L 263.401913 289.101695 
L 263.401913 289.101695 
L 263.150974 289.101695 
L 263.150974 289.356906 
L 263.401913 289.101695 
L 263.652852 289.101695 
L 263.401913 288.846484 
L 262.900036 288.846484 
L 263.150974 288.591272 
L 263.401913 288.078841 
L 264.405668 288.078841 
L 264.405668 288.078841 
L 264.154729 287.568419 
L 263.652852 286.802785 
L 263.652852 286.547574 
L 263.903791 286.802785 
L 264.405668 287.057997 
L 264.656607 287.057997 
L 264.405668 286.802785 
L 264.405668 286.802785 
L 264.154729 287.057997 
L 263.903791 287.057997 
L 263.903791 287.057997 
L 263.652852 287.313208 
L 263.401913 287.313208 
L 263.150974 287.568419 
L 263.150974 287.82363 
L 263.150974 287.568419 
L 263.652852 286.802785 
L 264.405668 286.035143 
L 264.405668 285.524721 
L 263.652852 285.269509 
L 262.398158 285.524721 
L 261.394403 286.035143 
L 260.387302 286.035143 
L 259.132608 285.779932 
L 255.114242 284.503876 
L 252.353915 283.736234 
L 249.844528 283.225811 
L 246.829917 282.460178 
L 243.313428 281.692535 
L 238.79653 281.692535 
L 234.025348 281.437324 
L 229.003226 280.41648 
L 223.730166 279.904048 
L 211.929352 279.904048 
L 206.907231 279.648837 
L 196.361111 278.117571 
L 190.837112 278.117571 
L 180.290992 278.627993 
L 175.519809 278.117571 
L 170.250095 277.349928 
L 164.726096 277.349928 
L 159.202097 277.605139 
L 153.929037 277.605139 
L 143.633856 277.094717 
L 123.79631 277.094717 
L 113.504474 276.073873 
L 109.486108 276.073873 
L 105.969619 275.818662 
L 98.689049 275.818662 
L 90.401378 276.329084 
L 84.375502 276.329084 
L 80.61142 277.349928 
L 79.102441 277.86236 
L 77.596809 278.117571 
L 74.585544 278.883204 
L 74.083666 278.627993 
L 73.832727 278.627993 
L 73.832727 278.883204 
L 74.334605 279.138415 
L 76.091176 278.627993 
L 77.596809 278.627993 
L 78.098686 279.138415 
L 78.600564 279.393626 
L 78.600564 279.393626 
L 78.098686 279.393626 
L 77.847748 279.648837 
L 79.356726 281.182113 
L 80.360481 281.182113 
L 80.109542 280.926902 
L 79.356726 280.926902 
L 78.851503 281.182113 
L 78.349625 281.182113 
L 78.349625 280.41648 
L 78.349625 280.926902 
L 78.098686 280.926902 
L 78.600564 280.926902 
L 78.600564 280.926902 
L 78.600564 280.41648 
L 79.102441 280.671691 
L 79.102441 281.182113 
L 78.600564 282.204967 
L 78.600564 283.481022 
L 78.098686 283.481022 
L 78.098686 283.481022 
L 78.349625 282.9706 
L 78.349625 282.460178 
L 78.349625 282.715389 
L 78.600564 282.9706 
L 78.600564 282.9706 
L 78.349625 282.9706 
L 77.847748 283.225811 
L 77.34587 283.736234 
L 77.094931 283.736234 
L 77.094931 283.736234 
L 76.593054 283.481022 
L 76.593054 283.481022 
L 76.593054 283.991445 
L 76.843993 284.503876 
L 76.843993 284.503876 
L 78.098686 283.225811 
L 78.349625 283.481022 
L 78.349625 284.248665 
L 78.098686 284.503876 
L 78.098686 285.524721 
L 77.847748 285.524721 
L 77.596809 285.014298 
L 77.094931 284.759087 
L 77.094931 284.759087 
L 77.34587 285.014298 
L 78.098686 285.014298 
L 78.098686 285.014298 
L 78.098686 285.524721 
L 78.098686 285.524721 
L 77.847748 285.779932 
L 77.596809 285.779932 
L 77.596809 285.779932 
L 77.596809 286.035143 
L 77.596809 286.035143 
L 77.847748 285.779932 
L 78.098686 285.269509 
L 78.098686 285.269509 
L 78.098686 285.524721 
L 77.847748 285.779932 
L 77.34587 286.035143 
L 77.34587 285.524721 
L 77.34587 285.524721 
L 77.596809 286.035143 
L 77.596809 286.292363 
L 77.596809 286.035143 
L 77.34587 286.035143 
L 77.094931 286.547574 
L 77.094931 286.547574 
L 77.34587 286.292363 
L 77.34587 286.035143 
L 77.34587 286.035143 
L 77.094931 286.035143 
L 77.34587 286.035143 
L 77.847748 285.014298 
L 77.596809 285.269509 
L 78.098686 287.057997 
L 78.098686 287.057997 
L 77.596809 286.802785 
L 77.34587 286.802785 
L 77.596809 286.547574 
L 77.34587 285.779932 
L 76.593054 285.269509 
L 76.593054 285.269509 
L 78.098686 285.779932 
L 78.098686 285.269509 
L 78.098686 286.035143 
L 78.349625 286.547574 
L 78.098686 286.802785 
L 77.847748 286.547574 
L 77.847748 286.292363 
L 78.349625 286.547574 
L 78.349625 287.313208 
L 78.098686 287.568419 
L 77.847748 287.057997 
L 77.596809 286.035143 
L 78.600564 286.547574 
L 78.851503 286.547574 
L 78.349625 286.547574 
L 78.098686 286.802785 
L 77.34587 286.802785 
L 77.34587 286.802785 
L 77.847748 287.057997 
L 78.349625 287.057997 
L 78.349625 286.802785 
L 78.349625 286.802785 
L 78.098686 287.057997 
L 77.847748 287.057997 
L 77.847748 287.057997 
L 77.596809 287.568419 
L 77.596809 288.078841 
L 77.847748 288.336061 
L 78.098686 288.078841 
L 78.098686 287.568419 
L 78.600564 287.057997 
L 79.102441 286.802785 
L 79.356726 286.802785 
L 79.356726 287.057997 
L 78.851503 288.078841 
L 79.102441 288.078841 
L 79.858604 287.057997 
L 79.858604 287.313208 
L 79.607665 287.82363 
L 78.851503 287.82363 
L 79.102441 287.568419 
L 79.356726 287.057997 
L 79.102441 286.802785 
L 79.356726 287.313208 
L 79.858604 287.568419 
L 78.851503 287.568419 
L 78.600564 287.82363 
L 78.600564 287.82363 
L 78.851503 287.82363 
L 79.356726 287.568419 
L 79.858604 287.82363 
L 79.858604 287.82363 
L 79.102441 287.568419 
L 78.600564 287.057997 
L 78.349625 286.292363 
L 78.600564 286.035143 
L 79.356726 286.292363 
L 79.858604 286.802785 
L 79.607665 287.057997 
L 79.102441 287.057997 
L 78.851503 286.802785 
L 78.851503 287.057997 
L 78.851503 287.057997 
L 79.102441 287.057997 
L 79.102441 286.547574 
L 78.851503 286.547574 
L 78.851503 286.802785 
L 78.851503 286.547574 
L 78.600564 286.292363 
L 79.356726 287.057997 
L 79.102441 287.057997 
L 79.102441 287.057997 
L 79.102441 286.802785 
L 78.851503 286.292363 
L 78.851503 286.035143 
L 78.851503 286.292363 
L 79.102441 286.547574 
L 79.356726 286.547574 
L 79.356726 286.035143 
L 78.851503 286.035143 
L 78.600564 286.292363 
L 78.098686 287.057997 
L 78.349625 287.82363 
L 78.600564 288.078841 
L 78.851503 287.82363 
L 78.349625 287.313208 
L 78.851503 287.568419 
L 79.356726 287.313208 
L 79.607665 287.313208 
L 79.102441 286.802785 
L 79.607665 286.802785 
L 79.356726 286.547574 
L 78.851503 286.547574 
L 78.349625 287.057997 
L 78.098686 287.568419 
L 78.098686 287.568419 
L 78.349625 287.82363 
L 78.349625 287.82363 
L 78.349625 287.568419 
L 78.851503 287.568419 
L 78.851503 287.057997 
L 78.600564 286.292363 
L 78.098686 285.779932 
L 77.847748 286.035143 
L 77.847748 286.802785 
L 78.098686 286.802785 
L 78.098686 287.057997 
L 78.600564 289.101695 
L 79.102441 289.101695 
L 79.356726 288.591272 
L 79.356726 287.568419 
L 79.102441 287.313208 
L 78.600564 287.057997 
L 78.349625 287.313208 
L 77.34587 287.82363 
L 76.593054 287.568419 
L 78.098686 288.078841 
L 78.349625 288.591272 
L 78.349625 288.591272 
L 78.600564 288.591272 
L 78.349625 288.591272 
L 77.34587 288.846484 
L 77.34587 288.336061 
L 77.34587 288.591272 
L 77.847748 289.101695 
L 77.34587 288.591272 
L 77.596809 288.336061 
L 78.098686 288.336061 
L 78.098686 288.591272 
L 77.847748 288.846484 
L 77.847748 289.356906 
L 77.596809 289.867328 
L 77.094931 289.612117 
L 77.094931 288.846484 
L 77.596809 288.846484 
L 77.847748 289.101695 
L 77.847748 289.356906 
L 77.847748 289.356906 
" style="fill:none;stroke:#1f77b4;stroke-linecap:square;stroke-width:1.5;"/>
   </g>
   <g id="matplotlib.axis_1">
    <g id="xtick_1">
     <g id="line2d_2">
      <defs>
       <path d="M 0 0 
L 0 3.5 
" id="m613e916509" style="stroke:#000000;stroke-width:0.8;"/>
      </defs>
      <g>
       <use style="stroke:#000000;stroke-width:0.8;" x="115.348038" xlink:href="#m613e916509" y="307.584"/>
      </g>
     </g>
     <g id="text_1">
      <!-- −200 -->
      <defs>
       <path d="M 10.59375 35.5 
L 73.1875 35.5 
L 73.1875 27.203125 
L 10.59375 27.203125 
z
" id="DejaVuSans-8722"/>
       <path d="M 19.1875 8.296875 
L 53.609375 8.296875 
L 53.609375 0 
L 7.328125 0 
L 7.328125 8.296875 
Q 12.9375 14.109375 22.625 23.890625 
Q 32.328125 33.6875 34.8125 36.53125 
Q 39.546875 41.84375 41.421875 45.53125 
Q 43.3125 49.21875 43.3125 52.78125 
Q 43.3125 58.59375 39.234375 62.25 
Q 35.15625 65.921875 28.609375 65.921875 
Q 23.96875 65.921875 18.8125 64.3125 
Q 13.671875 62.703125 7.8125 59.421875 
L 7.8125 69.390625 
Q 13.765625 71.78125 18.9375 73 
Q 24.125 74.21875 28.421875 74.21875 
Q 39.75 74.21875 46.484375 68.546875 
Q 53.21875 62.890625 53.21875 53.421875 
Q 53.21875 48.921875 51.53125 44.890625 
Q 49.859375 40.875 45.40625 35.40625 
Q 44.1875 33.984375 37.640625 27.21875 
Q 31.109375 20.453125 19.1875 8.296875 
z
" id="DejaVuSans-50"/>
       <path d="M 31.78125 66.40625 
Q 24.171875 66.40625 20.328125 58.90625 
Q 16.5 51.421875 16.5 36.375 
Q 16.5 21.390625 20.328125 13.890625 
Q 24.171875 6.390625 31.78125 6.390625 
Q 39.453125 6.390625 43.28125 13.890625 
Q 47.125 21.390625 47.125 36.375 
Q 47.125 51.421875 43.28125 58.90625 
Q 39.453125 66.40625 31.78125 66.40625 
z
M 31.78125 74.21875 
Q 44.046875 74.21875 50.515625 64.515625 
Q 56.984375 54.828125 56.984375 36.375 
Q 56.984375 17.96875 50.515625 8.265625 
Q 44.046875 -1.421875 31.78125 -1.421875 
Q 19.53125 -1.421875 13.0625 8.265625 
Q 6.59375 17.96875 6.59375 36.375 
Q 6.59375 54.828125 13.0625 64.515625 
Q 19.53125 74.21875 31.78125 74.21875 
z
" id="DejaVuSans-48"/>
      </defs>
      <g transform="translate(101.614444 322.182437)scale(0.1 -0.1)">
       <use xlink:href="#DejaVuSans-8722"/>
       <use x="83.789062" xlink:href="#DejaVuSans-50"/>
       <use x="147.412109" xlink:href="#DejaVuSans-48"/>
       <use x="211.035156" xlink:href="#DejaVuSans-48"/>
      </g>
     </g>
    </g>
    <g id="xtick_2">
     <g id="line2d_3">
      <g>
       <use style="stroke:#000000;stroke-width:0.8;" x="182.265044" xlink:href="#m613e916509" y="307.584"/>
      </g>
     </g>
     <g id="text_2">
      <!-- 0 -->
      <g transform="translate(179.083794 322.182437)scale(0.1 -0.1)">
       <use xlink:href="#DejaVuSans-48"/>
      </g>
     </g>
    </g>
    <g id="xtick_3">
     <g id="line2d_4">
      <g>
       <use style="stroke:#000000;stroke-width:0.8;" x="249.182049" xlink:href="#m613e916509" y="307.584"/>
      </g>
     </g>
     <g id="text_3">
      <!-- 200 -->
      <g transform="translate(239.638299 322.182437)scale(0.1 -0.1)">
       <use xlink:href="#DejaVuSans-50"/>
       <use x="63.623047" xlink:href="#DejaVuSans-48"/>
       <use x="127.246094" xlink:href="#DejaVuSans-48"/>
      </g>
     </g>
    </g>
    <g id="xtick_4">
     <g id="line2d_5">
      <g>
       <use style="stroke:#000000;stroke-width:0.8;" x="316.099055" xlink:href="#m613e916509" y="307.584"/>
      </g>
     </g>
     <g id="text_4">
      <!-- 400 -->
      <defs>
       <path d="M 37.796875 64.3125 
L 12.890625 25.390625 
L 37.796875 25.390625 
z
M 35.203125 72.90625 
L 47.609375 72.90625 
L 47.609375 25.390625 
L 58.015625 25.390625 
L 58.015625 17.1875 
L 47.609375 17.1875 
L 47.609375 0 
L 37.796875 0 
L 37.796875 17.1875 
L 4.890625 17.1875 
L 4.890625 26.703125 
z
" id="DejaVuSans-52"/>
      </defs>
      <g transform="translate(306.555305 322.182437)scale(0.1 -0.1)">
       <use xlink:href="#DejaVuSans-52"/>
       <use x="63.623047" xlink:href="#DejaVuSans-48"/>
       <use x="127.246094" xlink:href="#DejaVuSans-48"/>
      </g>
     </g>
    </g>
    <g id="xtick_5">
     <g id="line2d_6">
      <g>
       <use style="stroke:#000000;stroke-width:0.8;" x="383.016061" xlink:href="#m613e916509" y="307.584"/>
      </g>
     </g>
     <g id="text_5">
      <!-- 600 -->
      <defs>
       <path d="M 33.015625 40.375 
Q 26.375 40.375 22.484375 35.828125 
Q 18.609375 31.296875 18.609375 23.390625 
Q 18.609375 15.53125 22.484375 10.953125 
Q 26.375 6.390625 33.015625 6.390625 
Q 39.65625 6.390625 43.53125 10.953125 
Q 47.40625 15.53125 47.40625 23.390625 
Q 47.40625 31.296875 43.53125 35.828125 
Q 39.65625 40.375 33.015625 40.375 
z
M 52.59375 71.296875 
L 52.59375 62.3125 
Q 48.875 64.0625 45.09375 64.984375 
Q 41.3125 65.921875 37.59375 65.921875 
Q 27.828125 65.921875 22.671875 59.328125 
Q 17.53125 52.734375 16.796875 39.40625 
Q 19.671875 43.65625 24.015625 45.921875 
Q 28.375 48.1875 33.59375 48.1875 
Q 44.578125 48.1875 50.953125 41.515625 
Q 57.328125 34.859375 57.328125 23.390625 
Q 57.328125 12.15625 50.6875 5.359375 
Q 44.046875 -1.421875 33.015625 -1.421875 
Q 20.359375 -1.421875 13.671875 8.265625 
Q 6.984375 17.96875 6.984375 36.375 
Q 6.984375 53.65625 15.1875 63.9375 
Q 23.390625 74.21875 37.203125 74.21875 
Q 40.921875 74.21875 44.703125 73.484375 
Q 48.484375 72.75 52.59375 71.296875 
z
" id="DejaVuSans-54"/>
      </defs>
      <g transform="translate(373.472311 322.182437)scale(0.1 -0.1)">
       <use xlink:href="#DejaVuSans-54"/>
       <use x="63.623047" xlink:href="#DejaVuSans-48"/>
       <use x="127.246094" xlink:href="#DejaVuSans-48"/>
      </g>
     </g>
    </g>
   </g>
   <g id="matplotlib.axis_2">
    <g id="ytick_1">
     <g id="line2d_7">
      <defs>
       <path d="M 0 0 
L -3.5 0 
" id="m925bb700d0" style="stroke:#000000;stroke-width:0.8;"/>
      </defs>
      <g>
       <use style="stroke:#000000;stroke-width:0.8;" x="57.6" xlink:href="#m925bb700d0" y="284.670668"/>
      </g>
     </g>
     <g id="text_6">
      <!-- −400 -->
      <g transform="translate(23.132812 288.469887)scale(0.1 -0.1)">
       <use xlink:href="#DejaVuSans-8722"/>
       <use x="83.789062" xlink:href="#DejaVuSans-52"/>
       <use x="147.412109" xlink:href="#DejaVuSans-48"/>
       <use x="211.035156" xlink:href="#DejaVuSans-48"/>
      </g>
     </g>
    </g>
    <g id="ytick_2">
     <g id="line2d_8">
      <g>
       <use style="stroke:#000000;stroke-width:0.8;" x="57.6" xlink:href="#m925bb700d0" y="244.479948"/>
      </g>
     </g>
     <g id="text_7">
      <!-- −200 -->
      <g transform="translate(23.132812 248.279167)scale(0.1 -0.1)">
       <use xlink:href="#DejaVuSans-8722"/>
       <use x="83.789062" xlink:href="#DejaVuSans-50"/>
       <use x="147.412109" xlink:href="#DejaVuSans-48"/>
       <use x="211.035156" xlink:href="#DejaVuSans-48"/>
      </g>
     </g>
    </g>
    <g id="ytick_3">
     <g id="line2d_9">
      <g>
       <use style="stroke:#000000;stroke-width:0.8;" x="57.6" xlink:href="#m925bb700d0" y="204.289228"/>
      </g>
     </g>
     <g id="text_8">
      <!-- 0 -->
      <g transform="translate(44.2375 208.088447)scale(0.1 -0.1)">
       <use xlink:href="#DejaVuSans-48"/>
      </g>
     </g>
    </g>
    <g id="ytick_4">
     <g id="line2d_10">
      <g>
       <use style="stroke:#000000;stroke-width:0.8;" x="57.6" xlink:href="#m925bb700d0" y="164.098508"/>
      </g>
     </g>
     <g id="text_9">
      <!-- 200 -->
      <g transform="translate(31.5125 167.897727)scale(0.1 -0.1)">
       <use xlink:href="#DejaVuSans-50"/>
       <use x="63.623047" xlink:href="#DejaVuSans-48"/>
       <use x="127.246094" xlink:href="#DejaVuSans-48"/>
      </g>
     </g>
    </g>
    <g id="ytick_5">
     <g id="line2d_11">
      <g>
       <use style="stroke:#000000;stroke-width:0.8;" x="57.6" xlink:href="#m925bb700d0" y="123.907788"/>
      </g>
     </g>
     <g id="text_10">
      <!-- 400 -->
      <g transform="translate(31.5125 127.707007)scale(0.1 -0.1)">
       <use xlink:href="#DejaVuSans-52"/>
       <use x="63.623047" xlink:href="#DejaVuSans-48"/>
       <use x="127.246094" xlink:href="#DejaVuSans-48"/>
      </g>
     </g>
    </g>
    <g id="ytick_6">
     <g id="line2d_12">
      <g>
       <use style="stroke:#000000;stroke-width:0.8;" x="57.6" xlink:href="#m925bb700d0" y="83.717068"/>
      </g>
     </g>
     <g id="text_11">
      <!-- 600 -->
      <g transform="translate(31.5125 87.516287)scale(0.1 -0.1)">
       <use xlink:href="#DejaVuSans-54"/>
       <use x="63.623047" xlink:href="#DejaVuSans-48"/>
       <use x="127.246094" xlink:href="#DejaVuSans-48"/>
      </g>
     </g>
    </g>
    <g id="ytick_7">
     <g id="line2d_13">
      <g>
       <use style="stroke:#000000;stroke-width:0.8;" x="57.6" xlink:href="#m925bb700d0" y="43.526349"/>
      </g>
     </g>
     <g id="text_12">
      <!-- 800 -->
      <defs>
       <path d="M 31.78125 34.625 
Q 24.75 34.625 20.71875 30.859375 
Q 16.703125 27.09375 16.703125 20.515625 
Q 16.703125 13.921875 20.71875 10.15625 
Q 24.75 6.390625 31.78125 6.390625 
Q 38.8125 6.390625 42.859375 10.171875 
Q 46.921875 13.96875 46.921875 20.515625 
Q 46.921875 27.09375 42.890625 30.859375 
Q 38.875 34.625 31.78125 34.625 
z
M 21.921875 38.8125 
Q 15.578125 40.375 12.03125 44.71875 
Q 8.5 49.078125 8.5 55.328125 
Q 8.5 64.0625 14.71875 69.140625 
Q 20.953125 74.21875 31.78125 74.21875 
Q 42.671875 74.21875 48.875 69.140625 
Q 55.078125 64.0625 55.078125 55.328125 
Q 55.078125 49.078125 51.53125 44.71875 
Q 48 40.375 41.703125 38.8125 
Q 48.828125 37.15625 52.796875 32.3125 
Q 56.78125 27.484375 56.78125 20.515625 
Q 56.78125 9.90625 50.3125 4.234375 
Q 43.84375 -1.421875 31.78125 -1.421875 
Q 19.734375 -1.421875 13.25 4.234375 
Q 6.78125 9.90625 6.78125 20.515625 
Q 6.78125 27.484375 10.78125 32.3125 
Q 14.796875 37.15625 21.921875 38.8125 
z
M 18.3125 54.390625 
Q 18.3125 48.734375 21.84375 45.5625 
Q 25.390625 42.390625 31.78125 42.390625 
Q 38.140625 42.390625 41.71875 45.5625 
Q 45.3125 48.734375 45.3125 54.390625 
Q 45.3125 60.0625 41.71875 63.234375 
Q 38.140625 66.40625 31.78125 66.40625 
Q 25.390625 66.40625 21.84375 63.234375 
Q 18.3125 60.0625 18.3125 54.390625 
z
" id="DejaVuSans-56"/>
      </defs>
      <g transform="translate(31.5125 47.325567)scale(0.1 -0.1)">
       <use xlink:href="#DejaVuSans-56"/>
       <use x="63.623047" xlink:href="#DejaVuSans-48"/>
       <use x="127.246094" xlink:href="#DejaVuSans-48"/>
      </g>
     </g>
    </g>
   </g>
   <g id="line2d_14">
    <path clip-path="url(#pa20c1f7a83)" d="M 393.054156 57.835962 
L 180.294479 214.159047 
L 83.593354 273.771621 
L 259.50606 285.931023 
L 84.146725 281.649511 
L 78.359573 287.215842 
" style="fill:none;stroke:#ff0000;stroke-linecap:square;stroke-width:0.5;"/>
   </g>
   <g id="patch_3">
    <path d="M 57.6 307.584 
L 57.6 41.472 
" style="fill:none;stroke:#000000;stroke-linecap:square;stroke-linejoin:miter;stroke-width:0.8;"/>
   </g>
   <g id="patch_4">
    <path d="M 414.72 307.584 
L 414.72 41.472 
" style="fill:none;stroke:#000000;stroke-linecap:square;stroke-linejoin:miter;stroke-width:0.8;"/>
   </g>
   <g id="patch_5">
    <path d="M 57.6 307.584 
L 414.72 307.584 
" style="fill:none;stroke:#000000;stroke-linecap:square;stroke-linejoin:miter;stroke-width:0.8;"/>
   </g>
   <g id="patch_6">
    <path d="M 57.6 41.472 
L 414.72 41.472 
" style="fill:none;stroke:#000000;stroke-linecap:square;stroke-linejoin:miter;stroke-width:0.8;"/>
   </g>
   <g id="PathCollection_1">
    <defs>
     <path d="M 0 2.738613 
C 0.726289 2.738613 1.422928 2.450055 1.936492 1.936492 
C 2.450055 1.422928 2.738613 0.726289 2.738613 0 
C 2.738613 -0.726289 2.450055 -1.422928 1.936492 -1.936492 
C 1.422928 -2.450055 0.726289 -2.738613 0 -2.738613 
C -0.726289 -2.738613 -1.422928 -2.450055 -1.936492 -1.936492 
C -2.450055 -1.422928 -2.738613 -0.726289 -2.738613 0 
C -2.738613 0.726289 -2.450055 1.422928 -1.936492 1.936492 
C -1.422928 2.450055 -0.726289 2.738613 0 2.738613 
z
" id="mf875d9bcf3" style="stroke:#ff0000;"/>
    </defs>
    <g clip-path="url(#pa20c1f7a83)">
     <use style="fill:#ff0000;stroke:#ff0000;" x="393.054156" xlink:href="#mf875d9bcf3" y="57.835962"/>
     <use style="fill:#ff0000;stroke:#ff0000;" x="180.294479" xlink:href="#mf875d9bcf3" y="214.159047"/>
     <use style="fill:#ff0000;stroke:#ff0000;" x="83.593354" xlink:href="#mf875d9bcf3" y="273.771621"/>
     <use style="fill:#ff0000;stroke:#ff0000;" x="259.50606" xlink:href="#mf875d9bcf3" y="285.931023"/>
     <use style="fill:#ff0000;stroke:#ff0000;" x="84.146725" xlink:href="#mf875d9bcf3" y="281.649511"/>
     <use style="fill:#ff0000;stroke:#ff0000;" x="78.359573" xlink:href="#mf875d9bcf3" y="287.215842"/>
    </g>
   </g>
   <g id="text_13">
    <!-- (79) Subject: s3, Known = False, Degree = 2, Duration = 0.1 -->
    <defs>
     <path d="M 31 75.875 
Q 24.46875 64.65625 21.28125 53.65625 
Q 18.109375 42.671875 18.109375 31.390625 
Q 18.109375 20.125 21.3125 9.0625 
Q 24.515625 -2 31 -13.1875 
L 23.1875 -13.1875 
Q 15.875 -1.703125 12.234375 9.375 
Q 8.59375 20.453125 8.59375 31.390625 
Q 8.59375 42.28125 12.203125 53.3125 
Q 15.828125 64.359375 23.1875 75.875 
z
" id="DejaVuSans-40"/>
     <path d="M 8.203125 72.90625 
L 55.078125 72.90625 
L 55.078125 68.703125 
L 28.609375 0 
L 18.3125 0 
L 43.21875 64.59375 
L 8.203125 64.59375 
z
" id="DejaVuSans-55"/>
     <path d="M 10.984375 1.515625 
L 10.984375 10.5 
Q 14.703125 8.734375 18.5 7.8125 
Q 22.3125 6.890625 25.984375 6.890625 
Q 35.75 6.890625 40.890625 13.453125 
Q 46.046875 20.015625 46.78125 33.40625 
Q 43.953125 29.203125 39.59375 26.953125 
Q 35.25 24.703125 29.984375 24.703125 
Q 19.046875 24.703125 12.671875 31.3125 
Q 6.296875 37.9375 6.296875 49.421875 
Q 6.296875 60.640625 12.9375 67.421875 
Q 19.578125 74.21875 30.609375 74.21875 
Q 43.265625 74.21875 49.921875 64.515625 
Q 56.59375 54.828125 56.59375 36.375 
Q 56.59375 19.140625 48.40625 8.859375 
Q 40.234375 -1.421875 26.421875 -1.421875 
Q 22.703125 -1.421875 18.890625 -0.6875 
Q 15.09375 0.046875 10.984375 1.515625 
z
M 30.609375 32.421875 
Q 37.25 32.421875 41.125 36.953125 
Q 45.015625 41.5 45.015625 49.421875 
Q 45.015625 57.28125 41.125 61.84375 
Q 37.25 66.40625 30.609375 66.40625 
Q 23.96875 66.40625 20.09375 61.84375 
Q 16.21875 57.28125 16.21875 49.421875 
Q 16.21875 41.5 20.09375 36.953125 
Q 23.96875 32.421875 30.609375 32.421875 
z
" id="DejaVuSans-57"/>
     <path d="M 8.015625 75.875 
L 15.828125 75.875 
Q 23.140625 64.359375 26.78125 53.3125 
Q 30.421875 42.28125 30.421875 31.390625 
Q 30.421875 20.453125 26.78125 9.375 
Q 23.140625 -1.703125 15.828125 -13.1875 
L 8.015625 -13.1875 
Q 14.5 -2 17.703125 9.0625 
Q 20.90625 20.125 20.90625 31.390625 
Q 20.90625 42.671875 17.703125 53.65625 
Q 14.5 64.65625 8.015625 75.875 
z
" id="DejaVuSans-41"/>
     <path id="DejaVuSans-32"/>
     <path d="M 53.515625 70.515625 
L 53.515625 60.890625 
Q 47.90625 63.578125 42.921875 64.890625 
Q 37.9375 66.21875 33.296875 66.21875 
Q 25.25 66.21875 20.875 63.09375 
Q 16.5 59.96875 16.5 54.203125 
Q 16.5 49.359375 19.40625 46.890625 
Q 22.3125 44.4375 30.421875 42.921875 
L 36.375 41.703125 
Q 47.40625 39.59375 52.65625 34.296875 
Q 57.90625 29 57.90625 20.125 
Q 57.90625 9.515625 50.796875 4.046875 
Q 43.703125 -1.421875 29.984375 -1.421875 
Q 24.8125 -1.421875 18.96875 -0.25 
Q 13.140625 0.921875 6.890625 3.21875 
L 6.890625 13.375 
Q 12.890625 10.015625 18.65625 8.296875 
Q 24.421875 6.59375 29.984375 6.59375 
Q 38.421875 6.59375 43.015625 9.90625 
Q 47.609375 13.234375 47.609375 19.390625 
Q 47.609375 24.75 44.3125 27.78125 
Q 41.015625 30.8125 33.5 32.328125 
L 27.484375 33.5 
Q 16.453125 35.6875 11.515625 40.375 
Q 6.59375 45.0625 6.59375 53.421875 
Q 6.59375 63.09375 13.40625 68.65625 
Q 20.21875 74.21875 32.171875 74.21875 
Q 37.3125 74.21875 42.625 73.28125 
Q 47.953125 72.359375 53.515625 70.515625 
z
" id="DejaVuSans-83"/>
     <path d="M 8.5 21.578125 
L 8.5 54.6875 
L 17.484375 54.6875 
L 17.484375 21.921875 
Q 17.484375 14.15625 20.5 10.265625 
Q 23.53125 6.390625 29.59375 6.390625 
Q 36.859375 6.390625 41.078125 11.03125 
Q 45.3125 15.671875 45.3125 23.6875 
L 45.3125 54.6875 
L 54.296875 54.6875 
L 54.296875 0 
L 45.3125 0 
L 45.3125 8.40625 
Q 42.046875 3.421875 37.71875 1 
Q 33.40625 -1.421875 27.6875 -1.421875 
Q 18.265625 -1.421875 13.375 4.4375 
Q 8.5 10.296875 8.5 21.578125 
z
M 31.109375 56 
z
" id="DejaVuSans-117"/>
     <path d="M 48.6875 27.296875 
Q 48.6875 37.203125 44.609375 42.84375 
Q 40.53125 48.484375 33.40625 48.484375 
Q 26.265625 48.484375 22.1875 42.84375 
Q 18.109375 37.203125 18.109375 27.296875 
Q 18.109375 17.390625 22.1875 11.75 
Q 26.265625 6.109375 33.40625 6.109375 
Q 40.53125 6.109375 44.609375 11.75 
Q 48.6875 17.390625 48.6875 27.296875 
z
M 18.109375 46.390625 
Q 20.953125 51.265625 25.265625 53.625 
Q 29.59375 56 35.59375 56 
Q 45.5625 56 51.78125 48.09375 
Q 58.015625 40.1875 58.015625 27.296875 
Q 58.015625 14.40625 51.78125 6.484375 
Q 45.5625 -1.421875 35.59375 -1.421875 
Q 29.59375 -1.421875 25.265625 0.953125 
Q 20.953125 3.328125 18.109375 8.203125 
L 18.109375 0 
L 9.078125 0 
L 9.078125 75.984375 
L 18.109375 75.984375 
z
" id="DejaVuSans-98"/>
     <path d="M 9.421875 54.6875 
L 18.40625 54.6875 
L 18.40625 -0.984375 
Q 18.40625 -11.421875 14.421875 -16.109375 
Q 10.453125 -20.796875 1.609375 -20.796875 
L -1.8125 -20.796875 
L -1.8125 -13.1875 
L 0.59375 -13.1875 
Q 5.71875 -13.1875 7.5625 -10.8125 
Q 9.421875 -8.453125 9.421875 -0.984375 
z
M 9.421875 75.984375 
L 18.40625 75.984375 
L 18.40625 64.59375 
L 9.421875 64.59375 
z
" id="DejaVuSans-106"/>
     <path d="M 56.203125 29.59375 
L 56.203125 25.203125 
L 14.890625 25.203125 
Q 15.484375 15.921875 20.484375 11.0625 
Q 25.484375 6.203125 34.421875 6.203125 
Q 39.59375 6.203125 44.453125 7.46875 
Q 49.3125 8.734375 54.109375 11.28125 
L 54.109375 2.78125 
Q 49.265625 0.734375 44.1875 -0.34375 
Q 39.109375 -1.421875 33.890625 -1.421875 
Q 20.796875 -1.421875 13.15625 6.1875 
Q 5.515625 13.8125 5.515625 26.8125 
Q 5.515625 40.234375 12.765625 48.109375 
Q 20.015625 56 32.328125 56 
Q 43.359375 56 49.78125 48.890625 
Q 56.203125 41.796875 56.203125 29.59375 
z
M 47.21875 32.234375 
Q 47.125 39.59375 43.09375 43.984375 
Q 39.0625 48.390625 32.421875 48.390625 
Q 24.90625 48.390625 20.390625 44.140625 
Q 15.875 39.890625 15.1875 32.171875 
z
" id="DejaVuSans-101"/>
     <path d="M 48.78125 52.59375 
L 48.78125 44.1875 
Q 44.96875 46.296875 41.140625 47.34375 
Q 37.3125 48.390625 33.40625 48.390625 
Q 24.65625 48.390625 19.8125 42.84375 
Q 14.984375 37.3125 14.984375 27.296875 
Q 14.984375 17.28125 19.8125 11.734375 
Q 24.65625 6.203125 33.40625 6.203125 
Q 37.3125 6.203125 41.140625 7.25 
Q 44.96875 8.296875 48.78125 10.40625 
L 48.78125 2.09375 
Q 45.015625 0.34375 40.984375 -0.53125 
Q 36.96875 -1.421875 32.421875 -1.421875 
Q 20.0625 -1.421875 12.78125 6.34375 
Q 5.515625 14.109375 5.515625 27.296875 
Q 5.515625 40.671875 12.859375 48.328125 
Q 20.21875 56 33.015625 56 
Q 37.15625 56 41.109375 55.140625 
Q 45.0625 54.296875 48.78125 52.59375 
z
" id="DejaVuSans-99"/>
     <path d="M 18.3125 70.21875 
L 18.3125 54.6875 
L 36.8125 54.6875 
L 36.8125 47.703125 
L 18.3125 47.703125 
L 18.3125 18.015625 
Q 18.3125 11.328125 20.140625 9.421875 
Q 21.96875 7.515625 27.59375 7.515625 
L 36.8125 7.515625 
L 36.8125 0 
L 27.59375 0 
Q 17.1875 0 13.234375 3.875 
Q 9.28125 7.765625 9.28125 18.015625 
L 9.28125 47.703125 
L 2.6875 47.703125 
L 2.6875 54.6875 
L 9.28125 54.6875 
L 9.28125 70.21875 
z
" id="DejaVuSans-116"/>
     <path d="M 11.71875 12.40625 
L 22.015625 12.40625 
L 22.015625 0 
L 11.71875 0 
z
M 11.71875 51.703125 
L 22.015625 51.703125 
L 22.015625 39.3125 
L 11.71875 39.3125 
z
" id="DejaVuSans-58"/>
     <path d="M 44.28125 53.078125 
L 44.28125 44.578125 
Q 40.484375 46.53125 36.375 47.5 
Q 32.28125 48.484375 27.875 48.484375 
Q 21.1875 48.484375 17.84375 46.4375 
Q 14.5 44.390625 14.5 40.28125 
Q 14.5 37.15625 16.890625 35.375 
Q 19.28125 33.59375 26.515625 31.984375 
L 29.59375 31.296875 
Q 39.15625 29.25 43.1875 25.515625 
Q 47.21875 21.78125 47.21875 15.09375 
Q 47.21875 7.46875 41.1875 3.015625 
Q 35.15625 -1.421875 24.609375 -1.421875 
Q 20.21875 -1.421875 15.453125 -0.5625 
Q 10.6875 0.296875 5.421875 2 
L 5.421875 11.28125 
Q 10.40625 8.6875 15.234375 7.390625 
Q 20.0625 6.109375 24.8125 6.109375 
Q 31.15625 6.109375 34.5625 8.28125 
Q 37.984375 10.453125 37.984375 14.40625 
Q 37.984375 18.0625 35.515625 20.015625 
Q 33.0625 21.96875 24.703125 23.78125 
L 21.578125 24.515625 
Q 13.234375 26.265625 9.515625 29.90625 
Q 5.8125 33.546875 5.8125 39.890625 
Q 5.8125 47.609375 11.28125 51.796875 
Q 16.75 56 26.8125 56 
Q 31.78125 56 36.171875 55.265625 
Q 40.578125 54.546875 44.28125 53.078125 
z
" id="DejaVuSans-115"/>
     <path d="M 40.578125 39.3125 
Q 47.65625 37.796875 51.625 33 
Q 55.609375 28.21875 55.609375 21.1875 
Q 55.609375 10.40625 48.1875 4.484375 
Q 40.765625 -1.421875 27.09375 -1.421875 
Q 22.515625 -1.421875 17.65625 -0.515625 
Q 12.796875 0.390625 7.625 2.203125 
L 7.625 11.71875 
Q 11.71875 9.328125 16.59375 8.109375 
Q 21.484375 6.890625 26.8125 6.890625 
Q 36.078125 6.890625 40.9375 10.546875 
Q 45.796875 14.203125 45.796875 21.1875 
Q 45.796875 27.640625 41.28125 31.265625 
Q 36.765625 34.90625 28.71875 34.90625 
L 20.21875 34.90625 
L 20.21875 43.015625 
L 29.109375 43.015625 
Q 36.375 43.015625 40.234375 45.921875 
Q 44.09375 48.828125 44.09375 54.296875 
Q 44.09375 59.90625 40.109375 62.90625 
Q 36.140625 65.921875 28.71875 65.921875 
Q 24.65625 65.921875 20.015625 65.03125 
Q 15.375 64.15625 9.8125 62.3125 
L 9.8125 71.09375 
Q 15.4375 72.65625 20.34375 73.4375 
Q 25.25 74.21875 29.59375 74.21875 
Q 40.828125 74.21875 47.359375 69.109375 
Q 53.90625 64.015625 53.90625 55.328125 
Q 53.90625 49.265625 50.4375 45.09375 
Q 46.96875 40.921875 40.578125 39.3125 
z
" id="DejaVuSans-51"/>
     <path d="M 11.71875 12.40625 
L 22.015625 12.40625 
L 22.015625 4 
L 14.015625 -11.625 
L 7.71875 -11.625 
L 11.71875 4 
z
" id="DejaVuSans-44"/>
     <path d="M 9.8125 72.90625 
L 19.671875 72.90625 
L 19.671875 42.09375 
L 52.390625 72.90625 
L 65.09375 72.90625 
L 28.90625 38.921875 
L 67.671875 0 
L 54.6875 0 
L 19.671875 35.109375 
L 19.671875 0 
L 9.8125 0 
z
" id="DejaVuSans-75"/>
     <path d="M 54.890625 33.015625 
L 54.890625 0 
L 45.90625 0 
L 45.90625 32.71875 
Q 45.90625 40.484375 42.875 44.328125 
Q 39.84375 48.1875 33.796875 48.1875 
Q 26.515625 48.1875 22.3125 43.546875 
Q 18.109375 38.921875 18.109375 30.90625 
L 18.109375 0 
L 9.078125 0 
L 9.078125 54.6875 
L 18.109375 54.6875 
L 18.109375 46.1875 
Q 21.34375 51.125 25.703125 53.5625 
Q 30.078125 56 35.796875 56 
Q 45.21875 56 50.046875 50.171875 
Q 54.890625 44.34375 54.890625 33.015625 
z
" id="DejaVuSans-110"/>
     <path d="M 30.609375 48.390625 
Q 23.390625 48.390625 19.1875 42.75 
Q 14.984375 37.109375 14.984375 27.296875 
Q 14.984375 17.484375 19.15625 11.84375 
Q 23.34375 6.203125 30.609375 6.203125 
Q 37.796875 6.203125 41.984375 11.859375 
Q 46.1875 17.53125 46.1875 27.296875 
Q 46.1875 37.015625 41.984375 42.703125 
Q 37.796875 48.390625 30.609375 48.390625 
z
M 30.609375 56 
Q 42.328125 56 49.015625 48.375 
Q 55.71875 40.765625 55.71875 27.296875 
Q 55.71875 13.875 49.015625 6.21875 
Q 42.328125 -1.421875 30.609375 -1.421875 
Q 18.84375 -1.421875 12.171875 6.21875 
Q 5.515625 13.875 5.515625 27.296875 
Q 5.515625 40.765625 12.171875 48.375 
Q 18.84375 56 30.609375 56 
z
" id="DejaVuSans-111"/>
     <path d="M 4.203125 54.6875 
L 13.1875 54.6875 
L 24.421875 12.015625 
L 35.59375 54.6875 
L 46.1875 54.6875 
L 57.421875 12.015625 
L 68.609375 54.6875 
L 77.59375 54.6875 
L 63.28125 0 
L 52.6875 0 
L 40.921875 44.828125 
L 29.109375 0 
L 18.5 0 
z
" id="DejaVuSans-119"/>
     <path d="M 10.59375 45.40625 
L 73.1875 45.40625 
L 73.1875 37.203125 
L 10.59375 37.203125 
z
M 10.59375 25.484375 
L 73.1875 25.484375 
L 73.1875 17.1875 
L 10.59375 17.1875 
z
" id="DejaVuSans-61"/>
     <path d="M 9.8125 72.90625 
L 51.703125 72.90625 
L 51.703125 64.59375 
L 19.671875 64.59375 
L 19.671875 43.109375 
L 48.578125 43.109375 
L 48.578125 34.8125 
L 19.671875 34.8125 
L 19.671875 0 
L 9.8125 0 
z
" id="DejaVuSans-70"/>
     <path d="M 34.28125 27.484375 
Q 23.390625 27.484375 19.1875 25 
Q 14.984375 22.515625 14.984375 16.5 
Q 14.984375 11.71875 18.140625 8.90625 
Q 21.296875 6.109375 26.703125 6.109375 
Q 34.1875 6.109375 38.703125 11.40625 
Q 43.21875 16.703125 43.21875 25.484375 
L 43.21875 27.484375 
z
M 52.203125 31.203125 
L 52.203125 0 
L 43.21875 0 
L 43.21875 8.296875 
Q 40.140625 3.328125 35.546875 0.953125 
Q 30.953125 -1.421875 24.3125 -1.421875 
Q 15.921875 -1.421875 10.953125 3.296875 
Q 6 8.015625 6 15.921875 
Q 6 25.140625 12.171875 29.828125 
Q 18.359375 34.515625 30.609375 34.515625 
L 43.21875 34.515625 
L 43.21875 35.40625 
Q 43.21875 41.609375 39.140625 45 
Q 35.0625 48.390625 27.6875 48.390625 
Q 23 48.390625 18.546875 47.265625 
Q 14.109375 46.140625 10.015625 43.890625 
L 10.015625 52.203125 
Q 14.9375 54.109375 19.578125 55.046875 
Q 24.21875 56 28.609375 56 
Q 40.484375 56 46.34375 49.84375 
Q 52.203125 43.703125 52.203125 31.203125 
z
" id="DejaVuSans-97"/>
     <path d="M 9.421875 75.984375 
L 18.40625 75.984375 
L 18.40625 0 
L 9.421875 0 
z
" id="DejaVuSans-108"/>
     <path d="M 19.671875 64.796875 
L 19.671875 8.109375 
L 31.59375 8.109375 
Q 46.6875 8.109375 53.6875 14.9375 
Q 60.6875 21.78125 60.6875 36.53125 
Q 60.6875 51.171875 53.6875 57.984375 
Q 46.6875 64.796875 31.59375 64.796875 
z
M 9.8125 72.90625 
L 30.078125 72.90625 
Q 51.265625 72.90625 61.171875 64.09375 
Q 71.09375 55.28125 71.09375 36.53125 
Q 71.09375 17.671875 61.125 8.828125 
Q 51.171875 0 30.078125 0 
L 9.8125 0 
z
" id="DejaVuSans-68"/>
     <path d="M 45.40625 27.984375 
Q 45.40625 37.75 41.375 43.109375 
Q 37.359375 48.484375 30.078125 48.484375 
Q 22.859375 48.484375 18.828125 43.109375 
Q 14.796875 37.75 14.796875 27.984375 
Q 14.796875 18.265625 18.828125 12.890625 
Q 22.859375 7.515625 30.078125 7.515625 
Q 37.359375 7.515625 41.375 12.890625 
Q 45.40625 18.265625 45.40625 27.984375 
z
M 54.390625 6.78125 
Q 54.390625 -7.171875 48.1875 -13.984375 
Q 42 -20.796875 29.203125 -20.796875 
Q 24.46875 -20.796875 20.265625 -20.09375 
Q 16.0625 -19.390625 12.109375 -17.921875 
L 12.109375 -9.1875 
Q 16.0625 -11.328125 19.921875 -12.34375 
Q 23.78125 -13.375 27.78125 -13.375 
Q 36.625 -13.375 41.015625 -8.765625 
Q 45.40625 -4.15625 45.40625 5.171875 
L 45.40625 9.625 
Q 42.625 4.78125 38.28125 2.390625 
Q 33.9375 0 27.875 0 
Q 17.828125 0 11.671875 7.65625 
Q 5.515625 15.328125 5.515625 27.984375 
Q 5.515625 40.671875 11.671875 48.328125 
Q 17.828125 56 27.875 56 
Q 33.9375 56 38.28125 53.609375 
Q 42.625 51.21875 45.40625 46.390625 
L 45.40625 54.6875 
L 54.390625 54.6875 
z
" id="DejaVuSans-103"/>
     <path d="M 41.109375 46.296875 
Q 39.59375 47.171875 37.8125 47.578125 
Q 36.03125 48 33.890625 48 
Q 26.265625 48 22.1875 43.046875 
Q 18.109375 38.09375 18.109375 28.8125 
L 18.109375 0 
L 9.078125 0 
L 9.078125 54.6875 
L 18.109375 54.6875 
L 18.109375 46.1875 
Q 20.953125 51.171875 25.484375 53.578125 
Q 30.03125 56 36.53125 56 
Q 37.453125 56 38.578125 55.875 
Q 39.703125 55.765625 41.0625 55.515625 
z
" id="DejaVuSans-114"/>
     <path d="M 9.421875 54.6875 
L 18.40625 54.6875 
L 18.40625 0 
L 9.421875 0 
z
M 9.421875 75.984375 
L 18.40625 75.984375 
L 18.40625 64.59375 
L 9.421875 64.59375 
z
" id="DejaVuSans-105"/>
     <path d="M 10.6875 12.40625 
L 21 12.40625 
L 21 0 
L 10.6875 0 
z
" id="DejaVuSans-46"/>
     <path d="M 12.40625 8.296875 
L 28.515625 8.296875 
L 28.515625 63.921875 
L 10.984375 60.40625 
L 10.984375 69.390625 
L 28.421875 72.90625 
L 38.28125 72.90625 
L 38.28125 8.296875 
L 54.390625 8.296875 
L 54.390625 0 
L 12.40625 0 
z
" id="DejaVuSans-49"/>
    </defs>
    <g transform="translate(53.559375 35.472)scale(0.12 -0.12)">
     <use xlink:href="#DejaVuSans-40"/>
     <use x="39.013672" xlink:href="#DejaVuSans-55"/>
     <use x="102.636719" xlink:href="#DejaVuSans-57"/>
     <use x="166.259766" xlink:href="#DejaVuSans-41"/>
     <use x="205.273438" xlink:href="#DejaVuSans-32"/>
     <use x="237.060547" xlink:href="#DejaVuSans-83"/>
     <use x="300.537109" xlink:href="#DejaVuSans-117"/>
     <use x="363.916016" xlink:href="#DejaVuSans-98"/>
     <use x="427.392578" xlink:href="#DejaVuSans-106"/>
     <use x="455.175781" xlink:href="#DejaVuSans-101"/>
     <use x="516.699219" xlink:href="#DejaVuSans-99"/>
     <use x="571.679688" xlink:href="#DejaVuSans-116"/>
     <use x="610.888672" xlink:href="#DejaVuSans-58"/>
     <use x="644.580078" xlink:href="#DejaVuSans-32"/>
     <use x="676.367188" xlink:href="#DejaVuSans-115"/>
     <use x="728.466797" xlink:href="#DejaVuSans-51"/>
     <use x="792.089844" xlink:href="#DejaVuSans-44"/>
     <use x="823.876953" xlink:href="#DejaVuSans-32"/>
     <use x="855.664062" xlink:href="#DejaVuSans-75"/>
     <use x="921.240234" xlink:href="#DejaVuSans-110"/>
     <use x="984.619141" xlink:href="#DejaVuSans-111"/>
     <use x="1045.800781" xlink:href="#DejaVuSans-119"/>
     <use x="1127.587891" xlink:href="#DejaVuSans-110"/>
     <use x="1190.966797" xlink:href="#DejaVuSans-32"/>
     <use x="1222.753906" xlink:href="#DejaVuSans-61"/>
     <use x="1306.542969" xlink:href="#DejaVuSans-32"/>
     <use x="1338.330078" xlink:href="#DejaVuSans-70"/>
     <use x="1395.708984" xlink:href="#DejaVuSans-97"/>
     <use x="1456.988281" xlink:href="#DejaVuSans-108"/>
     <use x="1484.771484" xlink:href="#DejaVuSans-115"/>
     <use x="1536.871094" xlink:href="#DejaVuSans-101"/>
     <use x="1598.394531" xlink:href="#DejaVuSans-44"/>
     <use x="1630.181641" xlink:href="#DejaVuSans-32"/>
     <use x="1661.96875" xlink:href="#DejaVuSans-68"/>
     <use x="1738.970703" xlink:href="#DejaVuSans-101"/>
     <use x="1800.494141" xlink:href="#DejaVuSans-103"/>
     <use x="1863.970703" xlink:href="#DejaVuSans-114"/>
     <use x="1905.052734" xlink:href="#DejaVuSans-101"/>
     <use x="1966.576172" xlink:href="#DejaVuSans-101"/>
     <use x="2028.099609" xlink:href="#DejaVuSans-32"/>
     <use x="2059.886719" xlink:href="#DejaVuSans-61"/>
     <use x="2143.675781" xlink:href="#DejaVuSans-32"/>
     <use x="2175.462891" xlink:href="#DejaVuSans-50"/>
     <use x="2239.085938" xlink:href="#DejaVuSans-44"/>
     <use x="2270.873047" xlink:href="#DejaVuSans-32"/>
     <use x="2302.660156" xlink:href="#DejaVuSans-68"/>
     <use x="2379.662109" xlink:href="#DejaVuSans-117"/>
     <use x="2443.041016" xlink:href="#DejaVuSans-114"/>
     <use x="2484.154297" xlink:href="#DejaVuSans-97"/>
     <use x="2545.433594" xlink:href="#DejaVuSans-116"/>
     <use x="2584.642578" xlink:href="#DejaVuSans-105"/>
     <use x="2612.425781" xlink:href="#DejaVuSans-111"/>
     <use x="2673.607422" xlink:href="#DejaVuSans-110"/>
     <use x="2736.986328" xlink:href="#DejaVuSans-32"/>
     <use x="2768.773438" xlink:href="#DejaVuSans-61"/>
     <use x="2852.5625" xlink:href="#DejaVuSans-32"/>
     <use x="2884.349609" xlink:href="#DejaVuSans-48"/>
     <use x="2947.972656" xlink:href="#DejaVuSans-46"/>
     <use x="2979.759766" xlink:href="#DejaVuSans-49"/>
    </g>
   </g>
  </g>
 </g>
 <defs>
  <clipPath id="pa20c1f7a83">
   <rect height="266.112" width="357.12" x="57.6" y="41.472"/>
  </clipPath>
 </defs>
</svg>
