<?xml version="1.0" encoding="utf-8" standalone="no"?>
<!DOCTYPE svg PUBLIC "-//W3C//DTD SVG 1.1//EN"
  "http://www.w3.org/Graphics/SVG/1.1/DTD/svg11.dtd">
<!-- Created with matplotlib (https://matplotlib.org/) -->
<svg height="345.6pt" version="1.1" viewBox="0 0 460.8 345.6" width="460.8pt" xmlns="http://www.w3.org/2000/svg" xmlns:xlink="http://www.w3.org/1999/xlink">
 <defs>
  <style type="text/css">
*{stroke-linecap:butt;stroke-linejoin:round;}
  </style>
 </defs>
 <g id="figure_1">
  <g id="patch_1">
   <path d="M 0 345.6 
L 460.8 345.6 
L 460.8 0 
L 0 0 
z
" style="fill:#ffffff;"/>
  </g>
  <g id="axes_1">
   <g id="patch_2">
    <path d="M 57.6 307.584 
L 414.72 307.584 
L 414.72 41.472 
L 57.6 41.472 
z
" style="fill:#ffffff;"/>
   </g>
   <g id="line2d_1">
    <path clip-path="url(#p2e7a951796)" d="M 398.01436 174.959922 
L 398.487273 174.959922 
L 397.897351 174.27009 
L 397.777904 174.27009 
L 397.070972 175.304839 
L 397.070972 175.304839 
L 398.01436 174.615006 
L 398.01436 174.27009 
L 397.660894 174.096078 
L 397.543885 174.440994 
L 397.660894 174.959922 
L 397.777904 174.615006 
L 398.250816 175.652862 
L 398.367826 175.478851 
L 398.367826 175.133934 
L 398.250816 174.959922 
L 397.897351 175.304839 
L 397.897351 175.304839 
L 397.660894 174.78591 
L 397.777904 174.78591 
L 398.487273 175.304839 
L 398.250816 175.304839 
L 398.01436 175.133934 
L 398.01436 174.959922 
L 398.01436 174.959922 
L 397.424438 174.959922 
L 397.660894 174.78591 
L 398.01436 174.959922 
L 398.250816 175.304839 
L 398.250816 175.304839 
L 398.01436 175.478851 
L 397.777904 175.478851 
L 397.543885 174.959922 
L 397.777904 175.652862 
L 397.897351 175.997779 
L 397.897351 175.823767 
L 398.01436 175.823767 
L 398.01436 176.171791 
L 397.777904 176.516707 
L 398.01436 175.997779 
L 397.424438 175.997779 
L 397.660894 175.823767 
L 397.897351 175.823767 
L 398.133807 176.342695 
L 397.777904 176.690719 
L 397.777904 176.516707 
L 397.543885 176.342695 
L 397.424438 176.342695 
L 397.424438 175.997779 
L 397.543885 175.823767 
L 397.777904 175.997779 
L 397.777904 176.861623 
L 397.307429 177.380552 
L 397.187982 177.209647 
L 397.424438 176.516707 
L 398.133807 176.171791 
L 398.133807 176.516707 
L 397.777904 177.209647 
L 398.01436 177.035635 
L 398.250816 177.035635 
L 398.133807 177.035635 
L 397.897351 176.861623 
L 397.897351 176.690719 
L 397.660894 176.690719 
L 397.543885 177.209647 
L 397.543885 177.728575 
L 397.897351 178.244396 
L 397.777904 177.89948 
L 398.01436 177.554564 
L 398.367826 177.728575 
L 398.487273 178.073492 
L 398.367826 178.073492 
L 398.133807 177.89948 
L 397.897351 177.89948 
L 397.660894 177.728575 
L 397.424438 177.554564 
L 397.187982 177.554564 
L 397.187982 177.554564 
L 397.187982 178.073492 
L 397.424438 178.59242 
L 397.777904 178.763325 
L 397.660894 178.937336 
L 397.424438 178.763325 
L 397.424438 178.418408 
L 397.307429 178.59242 
L 397.070972 178.59242 
L 396.834516 178.418408 
L 396.953963 178.244396 
L 397.187982 178.418408 
L 397.187982 178.763325 
L 396.834516 179.282253 
L 396.953963 179.282253 
L 397.187982 179.111348 
L 396.834516 178.244396 
L 397.187982 178.937336 
L 397.424438 179.456265 
L 397.307429 179.282253 
L 397.070972 179.282253 
L 397.187982 179.282253 
L 397.424438 179.111348 
L 397.424438 178.937336 
L 397.660894 179.111348 
L 397.543885 179.111348 
L 397.424438 179.282253 
L 397.660894 179.801181 
L 397.543885 179.630277 
L 397.424438 179.975193 
L 397.070972 180.149205 
L 396.717507 179.801181 
L 396.834516 179.975193 
L 396.953963 180.839038 
L 396.953963 180.668133 
L 396.717507 180.494121 
L 396.59806 180.494121 
L 396.59806 180.494121 
L 396.953963 180.839038 
L 397.307429 181.187061 
L 397.307429 180.494121 
L 397.070972 180.149205 
L 396.834516 181.187061 
L 396.953963 181.357966 
L 397.070972 181.187061 
L 396.834516 181.357966 
L 396.48105 181.531978 
L 396.48105 181.531978 
L 396.59806 181.187061 
L 397.070972 181.013049 
L 397.187982 180.839038 
L 397.187982 180.839038 
L 397.070972 180.668133 
L 397.187982 180.839038 
L 397.070972 181.187061 
L 396.59806 181.357966 
L 396.364041 180.839038 
L 396.364041 180.494121 
L 396.59806 180.149205 
L 396.953963 180.320109 
L 397.187982 180.668133 
L 396.834516 180.320109 
L 396.59806 180.320109 
L 396.717507 180.494121 
L 396.953963 180.320109 
L 396.953963 180.149205 
L 396.953963 181.531978 
L 396.834516 181.531978 
L 396.834516 181.357966 
L 396.834516 181.531978 
L 396.717507 181.702882 
L 396.59806 181.531978 
L 396.717507 181.531978 
L 396.953963 181.531978 
L 397.543885 181.876894 
L 397.424438 182.050906 
L 397.187982 181.876894 
L 396.834516 181.357966 
L 396.59806 181.531978 
L 396.59806 181.876894 
L 396.834516 182.395822 
L 397.187982 182.569834 
L 397.307429 182.914751 
L 397.307429 183.433679 
L 396.834516 182.569834 
L 397.070972 182.050906 
L 397.543885 182.914751 
L 397.543885 183.259667 
L 397.660894 183.088762 
L 397.424438 182.914751 
L 396.717507 182.914751 
L 396.48105 183.088762 
L 396.717507 183.259667 
L 397.307429 183.259667 
L 397.777904 183.433679 
L 397.187982 183.088762 
L 396.953963 182.740739 
L 396.953963 182.740739 
L 397.660894 182.395822 
L 397.660894 182.395822 
L 397.660894 182.22181 
L 398.01436 181.876894 
L 398.01436 181.357966 
L 398.133807 181.187061 
L 397.777904 181.187061 
L 397.187982 181.357966 
L 396.48105 181.357966 
L 393.177975 181.876894 
L 385.981902 180.494121 
L 383.032292 179.801181 
L 376.426141 177.728575 
L 368.876602 176.516707 
L 360.147219 174.27009 
L 355.544852 173.751161 
L 350.708467 173.577149 
L 345.872082 173.577149 
L 335.60939 172.884209 
L 322.041184 171.501436 
L 317.441255 171.327425 
L 312.721879 171.501436 
L 307.768485 171.327425 
L 303.049109 170.292675 
L 298.212724 168.906795 
L 293.256891 168.042951 
L 288.18405 167.698034 
L 283.584121 167.179106 
L 279.101201 167.005094 
L 274.618282 167.005094 
L 270.135362 166.83419 
L 265.415986 166.83419 
L 256.213691 167.868939 
L 251.730771 168.042951 
L 247.013833 167.698034 
L 242.17501 167.524022 
L 237.458072 167.868939 
L 229.199164 168.906795 
L 218.34655 169.425723 
L 215.279931 169.944652 
L 212.564339 170.118664 
L 210.324098 170.118664 
L 208.790789 170.637592 
L 207.964411 171.846353 
L 207.374489 173.232233 
L 206.54811 174.27009 
L 206.077635 175.304839 
L 206.077635 176.171791 
L 206.54811 177.554564 
L 207.610945 179.282253 
L 208.200867 179.630277 
L 209.49772 179.975193 
L 211.740399 181.876894 
L 211.976855 182.395822 
L 211.503942 183.088762 
L 211.386933 184.471535 
L 211.740399 185.161368 
L 211.857408 185.854308 
L 211.740399 186.373236 
L 211.740399 186.892165 
L 211.976855 187.066177 
L 212.210874 186.718153 
L 212.330321 186.892165 
L 212.093864 188.448949 
L 211.976855 188.619854 
L 211.857408 188.448949 
L 212.210874 188.793866 
L 212.44733 188.448949 
L 212.920243 189.312794 
L 213.154261 189.831722 
L 213.037252 190.005734 
L 212.920243 190.524662 
L 213.273708 191.388507 
L 213.273708 191.214495 
L 212.800796 191.043591 
L 213.273708 191.214495 
L 213.037252 191.562519 
L 212.920243 192.07834 
L 213.037252 192.426364 
L 213.390718 193.116196 
L 213.154261 193.290208 
L 213.037252 192.945292 
L 213.037252 192.597268 
L 212.920243 192.945292 
L 212.683786 193.290208 
L 212.800796 193.290208 
L 213.037252 193.635125 
L 213.273708 193.46422 
L 213.273708 193.116196 
L 212.920243 193.116196 
L 212.683786 193.635125 
L 212.683786 194.328065 
L 212.683786 194.328065 
L 213.390718 194.328065 
L 213.510165 194.672981 
L 213.390718 194.846993 
L 213.154261 194.846993 
L 213.037252 194.672981 
L 213.273708 194.846993 
L 213.510165 195.021005 
L 213.510165 195.884849 
L 213.390718 195.710838 
L 213.154261 195.710838 
L 213.037252 196.055754 
L 213.154261 196.229766 
L 213.037252 196.229766 
L 213.037252 196.922706 
L 213.154261 197.612539 
L 213.510165 197.786551 
L 213.627174 197.612539 
L 213.390718 197.612539 
L 213.390718 197.786551 
L 213.510165 197.786551 
L 213.390718 197.441634 
L 213.627174 197.960562 
L 213.627174 198.479491 
L 213.510165 198.824407 
L 213.390718 198.479491 
L 213.390718 198.131467 
L 213.273708 198.131467 
L 213.390718 198.131467 
L 213.390718 197.960562 
L 212.920243 197.960562 
L 212.800796 198.131467 
L 213.037252 198.131467 
L 213.390718 198.305479 
L 213.390718 198.479491 
L 213.273708 198.650395 
L 213.510165 198.998419 
L 213.510165 198.824407 
L 213.744183 198.998419 
L 213.744183 199.343335 
L 213.510165 199.169324 
L 212.564339 199.169324 
L 212.210874 198.998419 
L 211.503942 198.998419 
L 210.560555 198.824407 
L 208.671342 197.612539 
L 207.727954 197.786551 
L 206.314092 198.479491 
L 202.538103 200.90012 
L 198.055184 204.703522 
L 196.521874 205.741379 
L 195.34203 206.95014 
L 193.455255 210.237721 
L 192.50943 211.794506 
L 191.095567 213.522195 
L 189.325801 214.904968 
L 187.556035 215.77192 
L 182.129728 219.056394 
L 179.887049 219.749334 
L 177.763818 220.613179 
L 175.523577 221.82194 
L 173.163889 222.859796 
L 170.687191 224.071665 
L 167.9716 225.109521 
L 164.904981 225.799354 
L 161.838362 225.973366 
L 153.108979 227.011222 
L 150.395825 227.875067 
L 147.91669 229.25784 
L 145.55944 230.814625 
L 143.199752 232.197398 
L 140.957074 233.235254 
L 138.716833 234.447122 
L 136.593601 235.829895 
L 135.060291 237.38668 
L 132.581156 239.288381 
L 131.991234 240.50025 
L 131.637769 241.883022 
L 131.401312 243.439807 
L 131.047847 244.82258 
L 131.047847 245.686425 
L 131.401312 246.898293 
L 131.637769 247.588126 
L 132.581156 248.799994 
L 133.171078 249.489827 
L 133.643991 251.046612 
L 133.997457 252.948313 
L 133.997457 253.641253 
L 133.290525 256.406799 
L 133.290525 258.311607 
L 133.171078 259.175452 
L 132.934622 259.865285 
L 132.581156 261.422069 
L 132.3447 262.633938 
L 132.3447 262.804842 
L 132.110681 263.152866 
L 131.754778 264.190723 
L 131.520759 265.228579 
L 131.637769 265.399484 
L 131.874225 265.054567 
L 131.991234 265.399484 
L 131.991234 266.092424 
L 131.754778 266.782256 
L 131.284303 267.301185 
L 131.284303 267.649208 
L 131.401312 267.649208 
L 131.637769 267.820113 
L 131.637769 267.994125 
L 131.520759 267.994125 
L 131.284303 268.339041 
L 131.401312 268.857969 
L 131.754778 269.202886 
L 131.754778 269.202886 
L 131.401312 269.031981 
L 131.164856 269.202886 
L 131.164856 269.895826 
L 131.284303 270.588766 
L 131.284303 271.278599 
L 131.047847 271.626623 
L 130.577372 271.971539 
L 130.694381 272.316455 
L 130.930838 272.316455 
L 130.930838 272.145551 
L 131.047847 272.316455 
L 131.047847 273.009395 
L 131.284303 273.354312 
L 131.284303 273.87324 
L 130.930838 275.085108 
L 130.930838 275.085108 
L 130.81139 274.56618 
L 130.221469 273.87324 
L 130.694381 274.218156 
L 130.930838 274.737085 
L 130.81139 275.430025 
L 130.457925 275.774941 
L 130.104459 275.604037 
L 130.221469 275.256013 
L 130.577372 275.430025 
L 130.81139 275.774941 
L 130.694381 276.293869 
L 130.340916 276.293869 
L 130.221469 275.774941 
L 130.221469 275.774941 
L 129.868003 276.467881 
L 130.104459 276.467881 
L 130.577372 276.119858 
L 130.457925 276.467881 
L 130.221469 278.195571 
L 130.340916 277.331726 
L 130.457925 277.676642 
L 130.340916 277.157714 
L 130.457925 276.638786 
L 131.164856 276.98681 
L 130.577372 276.812798 
L 130.930838 276.467881 
L 130.930838 276.119858 
L 130.577372 275.430025 
L 130.81139 275.774941 
L 131.164856 275.948953 
L 131.164856 275.604037 
L 131.047847 275.256013 
L 130.694381 274.737085 
L 131.164856 275.256013 
L 131.401312 275.256013 
L 131.754778 274.911097 
L 132.110681 274.911097 
L 132.227691 274.737085 
L 132.110681 274.218156 
L 131.637769 273.87324 
L 132.227691 274.56618 
L 131.991234 274.218156 
L 132.464147 273.87324 
L 132.3447 273.87324 
L 132.110681 273.699228 
L 131.874225 273.354312 
L 131.754778 273.1803 
L 131.874225 273.1803 
L 131.991234 273.1803 
L 132.110681 273.354312 
L 131.637769 272.661372 
L 132.464147 271.452611 
L 133.054069 271.797527 
L 133.171078 272.145551 
L 133.054069 272.316455 
L 132.817613 272.316455 
L 132.581156 272.145551 
L 132.581156 271.971539 
L 132.3447 271.971539 
L 132.3447 271.626623 
L 132.227691 271.452611 
L 132.227691 271.797527 
L 132.3447 271.971539 
L 132.581156 271.626623 
L 132.464147 271.452611 
L 132.110681 271.278599 
L 132.110681 270.933682 
L 132.227691 270.933682 
L 132.110681 271.278599 
L 132.110681 271.971539 
L 131.874225 271.971539 
L 131.520759 271.626623 
L 131.754778 270.759671 
L 131.874225 270.759671 
L 131.991234 271.107694 
L 131.991234 271.107694 
L 132.110681 270.759671 
L 132.581156 270.759671 
L 132.464147 271.278599 
L 132.227691 271.626623 
L 132.227691 271.452611 
L 132.227691 271.278599 
L 132.3447 271.278599 
L 132.227691 271.626623 
L 132.227691 271.797527 
L 132.3447 271.971539 
L 132.464147 271.797527 
L 132.464147 271.452611 
L 132.3447 271.452611 
L 132.3447 271.797527 
L 131.874225 272.661372 
L 132.227691 272.490467 
L 132.581156 272.145551 
L 132.3447 272.490467 
L 132.3447 272.661372 
L 132.227691 272.490467 
L 132.110681 271.971539 
L 131.754778 271.626623 
L 131.754778 271.971539 
L 132.110681 272.661372 
L 132.110681 272.490467 
L 132.3447 272.145551 
L 132.581156 271.452611 
L 133.054069 271.626623 
L 133.997457 272.145551 
L 134.940844 272.490467 
L 136.120688 272.490467 
L 137.773445 272.661372 
L 140.840064 273.354312 
L 142.490383 273.528324 
L 146.619837 274.218156 
L 158.18182 276.98681 
L 160.185605 277.331726 
L 165.141437 278.714499 
L 166.911203 278.888511 
L 168.561522 279.578343 
L 170.09727 280.790212 
L 171.394123 281.135128 
L 172.45452 280.790212 
L 173.044442 280.790212 
L 173.400345 281.828068 
L 173.280898 281.654056 
L 173.163889 281.654056 
L 171.511132 283.210841 
L 170.09727 283.210841 
L 169.151444 283.036829 
L 169.034435 283.036829 
L 168.917426 283.384853 
L 168.680969 283.729769 
L 168.561522 284.248698 
L 168.561522 284.767626 
L 168.680969 285.112542 
L 168.797979 284.941638 
L 168.797979 284.42271 
L 168.327504 283.903781 
L 167.737582 284.074686 
L 167.618135 284.42271 
L 167.618135 285.286554 
L 167.854591 285.112542 
L 168.208057 285.112542 
L 168.208057 285.460566 
L 167.854591 285.805482 
L 167.618135 285.631471 
L 167.384116 285.286554 
L 167.14766 285.460566 
L 167.14766 285.460566 
L 167.264669 284.767626 
L 167.501125 284.42271 
L 167.501125 284.593614 
L 167.501125 285.286554 
L 167.264669 286.324411 
L 167.028213 285.979494 
L 167.028213 285.631471 
L 167.264669 285.112542 
L 167.14766 284.941638 
L 167.264669 285.112542 
L 167.14766 285.460566 
L 166.794194 285.631471 
L 166.557738 285.979494 
L 166.557738 285.286554 
L 166.204272 285.286554 
L 165.967816 285.460566 
L 165.967816 285.460566 
L 165.848369 285.979494 
L 165.848369 286.495315 
L 166.084825 286.669327 
L 166.204272 286.324411 
L 166.204272 285.631471 
L 166.204272 285.631471 
L 165.731359 285.631471 
L 165.848369 285.805482 
L 165.848369 286.150399 
L 166.084825 286.843339 
L 165.967816 286.495315 
L 165.731359 286.324411 
L 165.377894 286.843339 
L 165.494903 287.188255 
L 165.731359 287.362267 
L 165.61435 287.362267 
L 165.024428 287.881195 
L 164.668525 288.400124 
L 164.787972 288.74504 
L 164.904981 288.400124 
L 164.904981 288.74504 
L 165.258447 289.263968 
L 165.024428 289.089956 
L 165.024428 289.263968 
L 164.904981 289.263968 
L 164.668525 288.919052 
L 164.434506 289.43798 
L 164.434506 289.608885 
L 164.551515 289.43798 
L 164.434506 289.263968 
L 164.078603 289.263968 
L 164.315059 288.919052 
L 164.551515 288.919052 
L 164.787972 289.43798 
L 164.668525 289.953801 
L 164.904981 289.608885 
L 164.904981 289.089956 
L 164.668525 288.919052 
L 164.434506 288.919052 
L 164.315059 289.089956 
L 164.434506 289.43798 
L 165.258447 290.127813 
L 165.258447 290.127813 
L 164.551515 289.782897 
L 164.551515 288.74504 
L 164.787972 288.74504 
L 164.787972 289.43798 
L 164.904981 290.127813 
L 164.668525 289.953801 
L 163.725137 290.472729 
L 163.961593 289.608885 
L 163.961593 289.263968 
L 163.844584 289.43798 
L 163.961593 290.127813 
L 164.315059 291.165669 
L 164.434506 290.991658 
L 164.19805 290.646741 
L 163.961593 290.646741 
L 163.961593 290.301825 
L 163.844584 289.782897 
L 163.844584 289.782897 
L 163.844584 290.820753 
L 163.725137 291.510586 
L 163.725137 291.339681 
L 163.608128 291.339681 
L 163.725137 290.646741 
L 163.961593 290.301825 
L 164.19805 290.472729 
L 164.19805 291.165669 
L 163.961593 291.684598 
L 164.078603 291.684598 
L 164.315059 291.684598 
L 164.19805 291.684598 
L 163.725137 291.339681 
L 163.725137 290.991658 
L 164.19805 293.241382 
L 163.844584 291.339681 
L 164.078603 290.991658 
L 163.961593 291.339681 
L 163.961593 291.510586 
L 164.078603 291.684598 
L 164.315059 291.339681 
L 164.19805 290.991658 
L 163.961593 290.991658 
L 164.19805 291.510586 
L 164.904981 291.684598 
L 165.848369 291.684598 
L 168.327504 292.377538 
L 170.09727 292.548442 
L 172.220501 292.203526 
L 174.933655 292.203526 
L 181.656815 292.896466 
L 185.432803 293.067371 
L 193.808721 294.105227 
L 198.29164 293.931215 
L 202.421094 293.586299 
L 206.431101 293.586299 
L 218.227103 293.067371 
L 221.413169 292.722454 
L 224.599235 292.203526 
L 227.782864 292.029514 
L 231.08594 292.029514 
L 237.811538 292.722454 
L 241.114613 292.896466 
L 244.181233 292.722454 
L 249.726987 292.029514 
L 252.320693 291.510586 
L 254.916838 290.820753 
L 257.629991 290.991658 
L 260.106689 291.510586 
L 262.349367 291.85861 
L 264.355589 292.029514 
L 265.888899 292.029514 
L 268.365596 291.684598 
L 269.54544 291.339681 
L 270.371819 290.820753 
L 270.961741 290.301825 
L 271.315206 290.301825 
L 271.551663 290.820753 
L 271.551663 291.510586 
L 270.842294 292.548442 
L 270.605837 292.548442 
L 270.135362 292.203526 
L 269.54544 292.203526 
L 268.838509 292.377538 
L 268.248587 292.377538 
L 267.422209 292.722454 
L 266.949296 292.029514 
L 266.71284 292.029514 
L 266.59583 292.203526 
L 266.59583 291.85861 
L 266.005908 291.339681 
L 266.122918 290.991658 
L 266.359374 290.991658 
L 266.949296 291.339681 
L 267.068743 291.684598 
L 267.068743 292.029514 
L 266.478821 291.510586 
L 266.122918 291.165669 
L 266.122918 291.339681 
L 266.59583 291.684598 
L 266.478821 291.510586 
L 266.005908 290.991658 
L 265.769452 290.301825 
L 265.888899 290.472729 
L 266.005908 290.472729 
L 266.005908 290.646741 
L 265.888899 290.820753 
L 265.769452 290.472729 
L 265.769452 289.953801 
L 265.532996 289.782897 
L 264.709055 289.782897 
L 264.709055 289.43798 
L 265.062521 289.089956 
L 264.945511 289.089956 
L 264.709055 289.953801 
L 264.826064 289.953801 
L 264.826064 289.608885 
L 264.589608 289.43798 
L 264.236142 289.43798 
L 263.999686 289.608885 
L 264.119133 289.608885 
L 264.472599 289.608885 
L 263.999686 289.089956 
L 263.882677 289.263968 
L 263.64622 289.263968 
L 263.64622 288.400124 
L 263.529211 288.226112 
L 263.175745 288.919052 
L 263.409764 288.571028 
L 263.292755 288.226112 
L 263.056298 288.400124 
L 262.819842 289.089956 
L 262.585824 288.571028 
L 262.702833 288.919052 
L 262.585824 288.919052 
L 262.349367 289.089956 
L 262.112911 288.919052 
L 261.995902 288.571028 
L 262.349367 288.0521 
L 262.585824 288.0521 
L 262.466376 288.0521 
L 262.466376 288.400124 
L 262.349367 288.571028 
L 261.876455 288.226112 
L 261.759445 287.881195 
L 261.759445 287.881195 
L 261.759445 288.400124 
L 261.639998 288.74504 
L 261.639998 288.571028 
L 261.639998 288.400124 
L 261.40598 288.226112 
L 261.052514 288.226112 
L 260.816058 288.0521 
L 261.052514 287.533172 
L 261.052514 287.881195 
L 260.816058 289.263968 
L 260.696611 289.263968 
L 260.106689 288.571028 
L 260.226136 288.226112 
L 260.579601 288.0521 
L 260.696611 288.226112 
L 260.106689 288.919052 
L 259.753223 288.919052 
L 259.636214 288.400124 
L 259.753223 288.400124 
L 259.87267 288.226112 
L 259.87267 288.919052 
L 259.989679 289.43798 
L 259.753223 289.43798 
L 259.516767 289.263968 
L 259.282748 288.919052 
L 258.926845 288.919052 
L 258.926845 289.089956 
L 259.399757 289.089956 
L 259.753223 288.919052 
L 259.87267 289.089956 
L 259.636214 289.43798 
L 259.282748 289.43798 
L 259.282748 289.089956 
L 259.399757 288.919052 
L 259.282748 288.919052 
L 259.282748 288.74504 
L 259.399757 288.74504 
L 259.163301 289.782897 
L 259.399757 289.608885 
L 259.163301 289.263968 
L 259.163301 288.919052 
L 259.163301 289.089956 
L 258.926845 289.953801 
L 258.573379 290.127813 
L 258.45637 289.782897 
L 258.45637 289.953801 
L 258.45637 291.339681 
L 258.219913 291.339681 
L 257.983457 291.165669 
L 257.983457 290.301825 
L 257.866448 290.472729 
L 257.866448 290.991658 
L 257.747001 291.510586 
L 257.629991 291.510586 
L 257.512982 291.339681 
L 257.747001 290.820753 
L 257.747001 290.991658 
L 257.629991 291.684598 
L 257.393535 291.85861 
L 256.803613 291.510586 
L 256.686604 292.029514 
L 256.92306 292.548442 
L 257.276526 292.722454 
L 256.569594 292.377538 
L 256.450147 292.377538 
L 256.686604 292.722454 
L 256.686604 293.067371 
L 256.569594 293.586299 
L 256.803613 293.412287 
L 256.803613 293.412287 
L 256.569594 293.241382 
L 255.979672 293.067371 
L 256.333138 293.586299 
L 256.213691 293.586299 
L 256.096682 293.586299 
L 256.096682 293.760311 
L 256.213691 293.760311 
L 256.333138 293.931215 
L 255.743216 294.279239 
L 255.623769 293.760311 
L 255.979672 294.798167 
L 255.623769 294.105227 
L 255.50676 294.279239 
L 255.50676 294.624155 
L 255.623769 294.798167 
L 255.623769 295.143084 
L 255.743216 295.143084 
L 255.860225 294.969072 
L 255.743216 294.969072 
L 255.153294 295.488 
L 255.38975 295.488 
L 255.38975 295.317095 
L 255.033847 294.969072 
L 254.916838 294.624155 
L 255.153294 294.450143 
L 255.270303 294.624155 
L 255.50676 295.488 
L 255.623769 294.969072 
L 255.623769 294.279239 
L 255.50676 294.105227 
L 255.38975 294.450143 
L 255.38975 294.798167 
L 255.623769 294.969072 
L 255.623769 295.143084 
L 254.799828 294.624155 
L 254.680381 294.798167 
L 254.680381 295.143084 
L 254.326916 294.624155 
L 254.443925 294.450143 
L 254.680381 294.450143 
L 254.680381 294.624155 
L 254.680381 294.624155 
L 254.916838 295.143084 
L 254.799828 294.798167 
L 254.326916 294.450143 
L 254.209906 294.105227 
L 254.563372 293.931215 
L 254.563372 294.450143 
L 255.033847 294.798167 
L 254.916838 294.624155 
L 254.680381 293.412287 
L 254.443925 293.586299 
L 254.443925 293.931215 
L 254.680381 294.105227 
L 254.563372 294.105227 
L 254.443925 294.105227 
L 254.443925 294.105227 
L 254.090459 292.722454 
L 254.326916 292.896466 
L 254.563372 293.241382 
L 254.916838 293.067371 
L 254.443925 293.241382 
L 253.97345 293.241382 
L 253.854003 292.029514 
L 253.854003 291.85861 
L 253.97345 292.203526 
L 254.326916 292.548442 
L 254.680381 292.377538 
L 255.033847 292.377538 
L 255.033847 292.377538 
L 254.916838 292.548442 
L 254.563372 292.377538 
L 254.326916 291.85861 
L 254.326916 291.339681 
L 254.443925 291.165669 
L 254.799828 291.510586 
L 254.916838 291.85861 
L 254.799828 292.203526 
L 254.563372 292.548442 
L 254.209906 292.722454 
L 254.090459 292.548442 
L 254.090459 292.203526 
L 254.680381 292.203526 
L 254.799828 292.029514 
L 254.680381 292.203526 
L 254.326916 292.203526 
L 254.326916 291.684598 
L 254.209906 291.339681 
L 253.854003 291.165669 
L 253.736994 291.339681 
L 253.97345 291.510586 
L 254.326916 291.510586 
L 254.326916 291.510586 
L 254.326916 291.684598 
L 254.326916 291.510586 
L 254.090459 291.510586 
L 253.736994 291.165669 
L 253.619984 291.165669 
L 253.736994 290.991658 
L 253.619984 290.820753 
L 253.500537 290.991658 
L 253.619984 291.339681 
L 253.854003 290.991658 
L 253.383528 291.684598 
L 253.383528 291.339681 
L 253.619984 290.472729 
L 254.090459 289.43798 
L 254.090459 289.608885 
L 254.209906 290.127813 
L 254.680381 290.646741 
L 254.326916 290.646741 
L 253.383528 290.127813 
L 253.383528 290.127813 
L 253.383528 289.953801 
L 253.619984 289.608885 
L 254.090459 289.43798 
L 254.090459 289.782897 
L 253.500537 290.646741 
L 253.619984 290.820753 
L 253.619984 290.646741 
L 253.736994 290.646741 
L 253.736994 290.820753 
L 253.854003 291.165669 
L 253.854003 290.991658 
L 253.854003 290.301825 
L 253.619984 289.43798 
L 253.500537 289.43798 
L 253.500537 289.43798 
L 253.500537 289.608885 
L 253.854003 290.301825 
L 253.736994 290.301825 
L 253.500537 290.127813 
L 253.383528 289.782897 
L 253.030062 289.43798 
L 253.030062 289.43798 
L 252.910615 289.608885 
L 252.910615 289.953801 
L 253.264081 289.953801 
L 253.147072 290.301825 
L 253.147072 290.127813 
L 252.910615 289.782897 
L 252.910615 289.953801 
L 253.030062 290.301825 
L 253.030062 290.301825 
L 253.030062 289.608885 
L 253.030062 289.953801 
L 253.383528 290.301825 
L 253.264081 290.127813 
L 252.910615 290.127813 
L 252.55715 289.953801 
L 252.55715 289.782897 
L 252.676597 289.608885 
L 252.910615 289.608885 
L 253.030062 289.263968 
L 253.030062 289.263968 
L 253.030062 289.608885 
L 253.030062 289.608885 
L 253.147072 289.263968 
L 253.030062 289.263968 
L 252.910615 289.608885 
L 252.676597 289.782897 
L 252.676597 290.301825 
L 252.910615 290.472729 
L 252.676597 289.782897 
L 252.676597 290.127813 
L 252.910615 289.608885 
L 253.147072 289.782897 
L 253.147072 289.953801 
L 252.676597 289.953801 
L 252.676597 289.608885 
L 252.793606 289.263968 
L 252.55715 289.263968 
L 252.44014 289.43798 
L 252.676597 290.472729 
L 252.910615 290.646741 
L 253.030062 290.472729 
L 252.793606 290.301825 
L 252.320693 290.301825 
L 252.320693 290.472729 
L 251.967228 290.472729 
L 251.850218 290.301825 
L 252.44014 289.608885 
L 252.203684 290.127813 
L 252.55715 289.953801 
L 252.676597 289.263968 
L 252.55715 288.919052 
L 252.55715 289.089956 
L 252.55715 289.608885 
L 252.44014 289.782897 
L 252.203684 289.43798 
L 252.320693 289.089956 
L 251.613762 289.608885 
L 251.377306 289.43798 
L 251.140849 289.43798 
L 249.961005 289.089956 
L 248.193677 288.0521 
L 244.654145 287.362267 
L 242.17501 286.843339 
L 239.581304 286.150399 
L 234.508462 285.805482 
L 225.06971 284.593614 
L 218.110094 283.210841 
L 214.453552 282.865925 
L 210.560555 282.691913 
L 199.70794 281.135128 
L 192.39242 278.714499 
L 188.382413 277.676642 
L 184.489416 277.157714 
L 180.830437 276.812798 
L 177.410352 276.119858 
L 173.87082 275.085108 
L 170.214279 274.218156 
L 163.961593 272.316455 
L 158.771742 271.971539 
L 156.058589 271.452611 
L 150.985747 269.721814 
L 148.979525 268.857969 
L 146.739284 268.168137 
L 144.260149 267.820113 
L 141.900461 267.649208 
L 140.130695 267.13028 
L 138.716833 266.263328 
L 137.300532 265.573495 
L 133.524544 265.054567 
L 132.464147 265.228579 
L 130.457925 265.228579 
L 130.340916 265.573495 
L 130.577372 265.7444 
L 130.930838 265.573495 
L 130.81139 265.228579 
L 131.164856 265.918412 
L 131.874225 266.092424 
L 132.3447 265.7444 
L 132.581156 265.228579 
L 132.934622 265.054567 
L 133.761 264.880555 
L 135.060291 265.228579 
L 134.940844 265.399484 
L 134.704388 265.399484 
L 134.350922 266.092424 
L 134.350922 265.918412 
L 134.350922 265.573495 
L 135.060291 265.228579 
L 135.177301 265.399484 
L 134.823835 266.956268 
L 134.114466 266.611352 
L 134.114466 266.611352 
L 134.114466 266.263328 
L 133.761 266.092424 
L 133.643991 266.611352 
L 133.880447 267.13028 
L 134.350922 267.301185 
L 134.823835 267.13028 
L 134.704388 267.475197 
L 134.704388 267.301185 
L 134.704388 266.956268 
L 134.823835 266.956268 
L 134.823835 266.956268 
L 134.940844 267.475197 
L 134.940844 268.339041 
L 135.177301 267.994125 
L 135.060291 267.820113 
L 134.587379 267.820113 
L 134.823835 267.994125 
L 134.823835 268.513053 
L 135.060291 268.687065 
L 135.29431 268.513053 
L 135.177301 268.513053 
L 135.060291 268.168137 
L 134.823835 268.339041 
L 134.823835 268.687065 
L 135.060291 269.202886 
L 135.177301 269.202886 
L 135.177301 269.55091 
L 135.177301 269.376898 
L 135.060291 269.031981 
L 134.704388 268.857969 
L 134.704388 269.202886 
L 135.060291 269.721814 
L 135.177301 270.240742 
L 135.177301 271.107694 
L 135.29431 271.278599 
L 135.530766 270.240742 
L 135.413757 271.107694 
L 135.647776 270.933682 
L 135.060291 270.240742 
L 135.177301 270.240742 
L 135.177301 270.759671 
L 135.413757 270.759671 
L 135.29431 270.759671 
L 135.647776 270.414754 
L 135.530766 270.069838 
L 135.647776 269.721814 
L 135.767223 269.721814 
L 136.003679 269.895826 
L 135.647776 270.588766 
L 136.120688 270.588766 
L 136.120688 270.240742 
L 136.003679 269.55091 
L 136.003679 268.857969 
L 136.120688 268.857969 
L 136.120688 269.202886 
L 136.71061 270.069838 
L 136.71061 269.895826 
L 136.71061 269.376898 
L 136.82762 268.857969 
L 136.71061 268.339041 
L 136.71061 268.687065 
L 136.71061 269.202886 
L 136.947067 269.376898 
L 137.300532 269.376898 
L 137.653998 269.031981 
L 137.890454 268.168137 
L 137.300532 267.475197 
L 137.300532 267.13028 
L 137.064076 267.13028 
L 134.823835 266.263328 
L 133.407535 265.918412 
L 131.754778 265.228579 
L 129.868003 264.016711 
L 127.627762 263.152866 
L 124.914608 262.633938 
L 119.015388 262.285914 
L 116.302235 261.940998 
L 110.403015 260.903141 
L 107.336396 261.077153 
L 104.03332 261.422069 
L 101.08371 261.251165 
L 98.487566 260.558225 
L 96.127878 259.69438 
L 93.887637 259.69438 
L 90.111649 260.732237 
L 88.224874 260.732237 
L 86.218651 260.213308 
L 84.568332 259.520368 
L 83.152032 259.346356 
L 81.501713 259.346356 
L 80.085413 259.175452 
L 78.07919 258.482512 
L 75.83895 258.137595 
L 74.893124 257.792679 
L 74.303202 257.444655 
L 74.303202 256.925727 
L 74.422649 256.580811 
L 74.303202 256.754823 
L 73.832727 256.925727 
L 74.776115 258.311607 
L 74.659106 259.00144 
L 75.129581 259.00144 
L 75.602493 258.482512 
L 75.719503 257.963584 
L 76.072968 257.792679 
L 76.545881 257.792679 
L 77.135803 259.69438 
L 77.018794 259.346356 
L 76.782337 259.175452 
L 76.782337 259.520368 
L 77.018794 259.69438 
L 77.252812 259.69438 
L 77.252812 259.865285 
L 77.489269 260.039297 
L 77.842734 259.69438 
L 77.489269 259.865285 
L 76.782337 259.865285 
L 76.899347 259.69438 
L 77.372259 260.039297 
L 77.489269 259.69438 
L 77.842734 259.346356 
L 78.198638 259.520368 
L 78.198638 259.69438 
L 77.962181 259.520368 
L 77.725725 259.00144 
L 77.725725 259.346356 
L 77.725725 259.520368 
L 78.315647 259.865285 
L 78.786122 259.69438 
L 78.432656 259.69438 
L 78.07919 259.69438 
L 78.07919 259.520368 
L 78.198638 259.175452 
L 78.198638 258.827428 
L 78.07919 259.175452 
L 78.315647 259.520368 
L 79.022578 259.520368 
L 79.022578 259.520368 
L 78.198638 258.827428 
L 78.432656 259.00144 
L 78.905569 259.346356 
L 78.905569 259.00144 
L 78.786122 258.827428 
L 78.198638 259.175452 
L 78.07919 259.520368 
L 78.07919 259.865285 
L 78.198638 260.384213 
L 78.432656 260.558225 
L 78.905569 259.520368 
L 78.669112 260.213308 
L 78.905569 260.039297 
L 79.142025 260.039297 
L 79.142025 260.213308 
L 78.905569 260.732237 
L 78.786122 260.558225 
L 79.022578 260.732237 
L 79.376044 260.732237 
L 79.6125 260.558225 
L 79.6125 260.213308 
L 79.376044 259.865285 
L 78.905569 259.69438 
L 79.142025 259.865285 
L 79.376044 260.384213 
L 79.495491 261.251165 
L 79.6125 261.077153 
L 79.731947 261.251165 
L 79.731947 261.596081 
L 79.6125 261.596081 
L 79.495491 260.558225 
L 79.6125 260.732237 
L 79.6125 261.077153 
L 79.731947 261.251165 
L 79.6125 261.596081 
L 79.376044 261.770093 
L 79.376044 261.770093 
L 79.6125 261.422069 
L 79.495491 261.251165 
L 79.259034 261.251165 
L 79.142025 261.940998 
L 79.259034 261.596081 
L 79.495491 261.422069 
L 79.731947 261.770093 
L 79.6125 261.770093 
L 79.376044 262.11501 
L 79.495491 262.11501 
L 79.731947 262.804842 
L 79.731947 262.11501 
L 79.731947 262.633938 
L 79.6125 263.497782 
L 79.6125 263.323771 
L 79.965966 262.11501 
L 79.731947 263.152866 
L 79.731947 263.671794 
L 79.731947 263.152866 
L 79.495491 262.459926 
L 79.495491 262.11501 
L 79.376044 262.459926 
L 79.848956 263.323771 
L 79.6125 262.978854 
L 79.259034 263.323771 
L 79.259034 263.323771 
L 79.376044 263.671794 
L 79.142025 263.671794 
L 78.905569 264.190723 
L 79.259034 263.671794 
L 79.259034 264.190723 
L 79.142025 264.535639 
L 79.022578 264.535639 
L 79.022578 264.361627 
L 79.142025 264.361627 
L 79.142025 264.535639 
L 79.022578 265.054567 
L 79.022578 264.880555 
L 79.259034 264.535639 
L 79.6125 265.228579 
L 79.6125 265.573495 
L 79.495491 265.399484 
L 79.259034 265.399484 
L 79.142025 265.573495 
L 79.142025 265.399484 
L 79.142025 264.880555 
L 79.259034 264.361627 
L 79.259034 264.361627 
L 79.495491 264.709651 
L 79.6125 265.228579 
L 79.848956 265.573495 
L 79.848956 265.399484 
L 79.848956 265.054567 
L 79.6125 264.709651 
L 79.142025 265.054567 
L 79.848956 265.054567 
L 79.848956 265.054567 
L 79.731947 265.228579 
L 79.848956 265.228579 
L 80.202422 265.573495 
L 79.965966 265.228579 
L 79.731947 264.880555 
L 79.848956 264.709651 
L 79.848956 266.263328 
L 79.965966 266.263328 
L 79.965966 265.918412 
L 79.848956 265.918412 
L 79.848956 266.092424 
L 79.848956 266.092424 
L 80.202422 266.092424 
L 80.675335 266.611352 
L 80.321869 265.7444 
L 79.965966 265.573495 
L 79.965966 265.573495 
L 79.731947 266.263328 
L 80.321869 266.611352 
L 80.321869 266.43734 
L 80.085413 265.918412 
L 79.495491 265.7444 
L 79.731947 265.918412 
L 80.202422 265.918412 
L 80.555888 265.054567 
L 80.792344 265.054567 
L 80.675335 265.399484 
L 80.321869 265.7444 
L 80.321869 265.918412 
L 80.202422 265.7444 
L 80.438878 265.573495 
L 80.675335 265.918412 
L 80.675335 265.7444 
L 80.321869 264.880555 
L 80.438878 264.709651 
L 81.0288 265.7444 
L 80.675335 265.573495 
L 80.792344 265.573495 
L 81.0288 264.880555 
L 81.0288 264.880555 
L 81.382266 264.535639 
L 81.501713 264.709651 
L 81.382266 265.228579 
L 81.0288 265.399484 
L 80.675335 264.880555 
L 80.675335 265.054567 
L 80.675335 265.399484 
L 80.675335 265.399484 
L 80.555888 265.399484 
L 80.555888 265.399484 
L 80.675335 265.228579 
L 80.792344 265.399484 
L 81.14581 265.399484 
L 81.382266 264.880555 
L 81.618722 264.880555 
L 81.14581 264.016711 
L 81.14581 263.842699 
L 81.382266 263.842699 
L 81.855179 264.535639 
L 81.618722 264.535639 
L 81.0288 265.054567 
L 81.265257 265.399484 
L 81.14581 265.228579 
L 81.972188 264.880555 
L 82.208644 264.535639 
L 81.972188 264.361627 
L 81.735732 264.361627 
L 81.382266 264.190723 
L 81.382266 264.016711 
L 81.501713 264.190723 
L 81.382266 264.535639 
L 81.855179 265.054567 
L 81.855179 264.535639 
L 81.618722 263.671794 
L 81.265257 263.497782 
L 81.265257 264.190723 
L 81.735732 264.361627 
L 82.208644 264.361627 
L 82.325654 264.535639 
L 82.208644 264.535639 
L 81.618722 264.190723 
L 81.382266 264.709651 
L 81.501713 265.054567 
L 81.501713 264.880555 
L 81.618722 264.361627 
L 81.972188 263.671794 
L 81.855179 263.671794 
L 81.618722 263.671794 
L 81.0288 264.190723 
L 80.911791 264.361627 
L 81.0288 264.361627 
L 81.0288 264.709651 
L 81.0288 264.709651 
L 81.265257 263.671794 
L 81.382266 263.671794 
L 81.735732 264.190723 
L 81.382266 264.361627 
L 80.911791 264.361627 
L 80.792344 264.535639 
L 81.382266 264.880555 
L 81.618722 264.535639 
L 81.618722 264.880555 
L 81.735732 265.399484 
L 81.618722 265.054567 
L 81.382266 264.709651 
L 81.855179 264.190723 
L 81.735732 264.361627 
L 81.618722 265.054567 
L 81.618722 265.399484 
L 81.618722 265.228579 
L 81.14581 265.054567 
L 81.265257 265.228579 
L 81.618722 265.399484 
L 81.972188 265.228579 
L 82.208644 264.709651 
L 81.972188 265.399484 
L 81.501713 264.535639 
L 81.735732 265.228579 
L 81.735732 265.399484 
L 81.855179 265.228579 
L 81.618722 265.399484 
L 81.618722 264.880555 
L 82.091635 264.361627 
L 81.382266 265.228579 
L 81.735732 264.535639 
L 81.735732 264.361627 
L 81.501713 264.361627 
L 81.735732 264.361627 
L 82.091635 264.190723 
L 82.091635 263.842699 
L 81.855179 264.016711 
L 81.618722 264.361627 
L 81.618722 264.190723 
L 81.735732 264.190723 
L 81.855179 264.361627 
L 81.618722 264.709651 
L 81.618722 264.016711 
L 81.735732 263.497782 
L 82.56211 263.152866 
L 83.152032 262.978854 
L 84.09542 262.459926 
L 85.275264 261.940998 
L 86.808573 261.077153 
L 88.578339 259.865285 
L 90.701571 257.963584 
L 95.420947 253.122325 
L 98.841032 250.356779 
L 102.970486 247.417221 
L 107.336396 244.474556 
L 111.936325 240.671154 
L 116.77271 235.829895 
L 122.318464 230.814625 
L 139.77723 216.116837 
L 145.203537 210.927554 
L 150.512835 205.567367 
L 155.822133 199.688252 
L 161.011983 193.635125 
L 165.848369 187.585105 
L 170.567744 181.013049 
L 196.285418 140.375063 
L 200.414872 133.97702 
L 204.307869 127.404965 
L 207.964411 121.006921 
L 211.503942 114.263961 
L 214.807018 107.691906 
L 217.520172 101.812791 
L 219.643403 95.933675 
L 221.413169 90.228572 
L 222.593013 84.865277 
L 223.419391 80.024019 
L 224.009313 75.527676 
L 224.362779 71.031334 
L 224.479788 67.227932 
L 224.126323 64.114362 
L 223.536401 61.522828 
L 222.946479 59.447115 
L 221.766635 56.507558 
L 221.059704 55.295689 
L 219.996869 54.431845 
L 218.936472 53.738905 
L 217.993084 53.568 
L 217.283715 54.257833 
L 215.869853 56.159534 
L 214.807018 57.026486 
L 212.920243 58.064342 
L 210.91402 59.966044 
L 210.560555 61.348816 
L 210.207089 62.041757 
L 209.617167 62.386673 
L 209.027245 63.250518 
L 207.138032 64.807302 
L 206.904014 64.807302 
L 206.077635 64.288374 
L 205.72417 63.595434 
L 204.897791 63.595434 
L 204.544326 63.424529 
L 204.424879 63.076506 
L 204.424879 63.250518 
L 204.071413 63.250518 
L 203.600938 63.595434 
L 203.128025 64.114362 
L 203.245035 63.769446 
L 203.128025 63.943458 
L 202.301647 64.63329 
L 201.948181 64.981314 
L 201.475269 64.288374 
L 201.358259 64.462386 
L 201.121803 65.326231 
L 201.004794 64.807302 
L 200.531881 64.63329 
L 200.061406 64.807302 
L 199.941959 64.981314 
L 200.061406 64.981314 
L 200.178415 65.152219 
L 199.471484 66.019171 
L 199.352037 66.019171 
L 199.235028 65.845159 
L 198.998571 65.845159 
L 198.645106 66.019171 
L 198.29164 65.671147 
L 197.938174 66.364087 
L 197.938174 66.534992 
L 197.701718 66.534992 
L 197.465262 66.709003 
L 196.992349 66.709003 
L 196.992349 66.709003 
L 196.758331 67.572848 
L 196.521874 67.572848 
L 195.931952 66.534992 
L 195.931952 66.709003 
L 195.931952 66.534992 
L 196.048962 66.364087 
L 195.578487 67.05392 
L 194.869118 67.05392 
L 194.515652 66.709003 
L 194.635099 66.709003 
L 194.869118 67.227932 
L 194.869118 67.401944 
L 194.635099 67.572848 
L 194.162186 67.227932 
L 193.808721 68.091776 
L 193.572264 68.610705 
L 193.808721 68.091776 
L 193.808721 67.572848 
L 193.689274 67.401944 
L 193.689274 67.74686 
L 193.572264 67.920872 
L 193.099352 67.05392 
L 193.218799 66.883015 
L 193.335808 67.227932 
L 193.218799 67.05392 
L 192.982342 66.883015 
L 192.745886 66.883015 
L 192.745886 66.190075 
L 192.50943 66.534992 
L 192.745886 66.534992 
L 193.099352 66.190075 
L 193.099352 66.019171 
L 192.745886 66.019171 
L 192.745886 66.019171 
L 192.628877 66.190075 
L 192.628877 66.534992 
L 192.865333 66.364087 
L 193.218799 65.671147 
L 193.218799 65.671147 
L 193.218799 64.807302 
L 193.099352 64.807302 
L 193.099352 64.981314 
L 192.865333 64.462386 
L 192.865333 64.114362 
L 192.982342 63.943458 
L 193.099352 64.114362 
L 193.099352 64.462386 
L 192.982342 64.462386 
L 192.275411 63.250518 
L 192.982342 62.731589 
L 192.865333 62.212661 
L 192.865333 61.522828 
L 192.745886 61.348816 
L 192.982342 60.655876 
L 192.982342 60.829888 
L 193.099352 61.0039 
L 193.335808 60.655876 
L 193.335808 59.447115 
L 193.335808 59.447115 
L 193.218799 59.447115 
L 193.218799 59.447115 
" style="fill:none;stroke:#1f77b4;stroke-linecap:square;stroke-width:1.5;"/>
   </g>
   <g id="matplotlib.axis_1">
    <g id="xtick_1">
     <g id="line2d_2">
      <defs>
       <path d="M 0 0 
L 0 3.5 
" id="m897e7c7906" style="stroke:#000000;stroke-width:0.8;"/>
      </defs>
      <g>
       <use style="stroke:#000000;stroke-width:0.8;" x="104.735376" xlink:href="#m897e7c7906" y="307.584"/>
      </g>
     </g>
     <g id="text_1">
      <!-- −400 -->
      <defs>
       <path d="M 10.59375 35.5 
L 73.1875 35.5 
L 73.1875 27.203125 
L 10.59375 27.203125 
z
" id="DejaVuSans-8722"/>
       <path d="M 37.796875 64.3125 
L 12.890625 25.390625 
L 37.796875 25.390625 
z
M 35.203125 72.90625 
L 47.609375 72.90625 
L 47.609375 25.390625 
L 58.015625 25.390625 
L 58.015625 17.1875 
L 47.609375 17.1875 
L 47.609375 0 
L 37.796875 0 
L 37.796875 17.1875 
L 4.890625 17.1875 
L 4.890625 26.703125 
z
" id="DejaVuSans-52"/>
       <path d="M 31.78125 66.40625 
Q 24.171875 66.40625 20.328125 58.90625 
Q 16.5 51.421875 16.5 36.375 
Q 16.5 21.390625 20.328125 13.890625 
Q 24.171875 6.390625 31.78125 6.390625 
Q 39.453125 6.390625 43.28125 13.890625 
Q 47.125 21.390625 47.125 36.375 
Q 47.125 51.421875 43.28125 58.90625 
Q 39.453125 66.40625 31.78125 66.40625 
z
M 31.78125 74.21875 
Q 44.046875 74.21875 50.515625 64.515625 
Q 56.984375 54.828125 56.984375 36.375 
Q 56.984375 17.96875 50.515625 8.265625 
Q 44.046875 -1.421875 31.78125 -1.421875 
Q 19.53125 -1.421875 13.0625 8.265625 
Q 6.59375 17.96875 6.59375 36.375 
Q 6.59375 54.828125 13.0625 64.515625 
Q 19.53125 74.21875 31.78125 74.21875 
z
" id="DejaVuSans-48"/>
      </defs>
      <g transform="translate(91.001782 322.182437)scale(0.1 -0.1)">
       <use xlink:href="#DejaVuSans-8722"/>
       <use x="83.789062" xlink:href="#DejaVuSans-52"/>
       <use x="147.412109" xlink:href="#DejaVuSans-48"/>
       <use x="211.035156" xlink:href="#DejaVuSans-48"/>
      </g>
     </g>
    </g>
    <g id="xtick_2">
     <g id="line2d_3">
      <g>
       <use style="stroke:#000000;stroke-width:0.8;" x="153.489259" xlink:href="#m897e7c7906" y="307.584"/>
      </g>
     </g>
     <g id="text_2">
      <!-- −200 -->
      <defs>
       <path d="M 19.1875 8.296875 
L 53.609375 8.296875 
L 53.609375 0 
L 7.328125 0 
L 7.328125 8.296875 
Q 12.9375 14.109375 22.625 23.890625 
Q 32.328125 33.6875 34.8125 36.53125 
Q 39.546875 41.84375 41.421875 45.53125 
Q 43.3125 49.21875 43.3125 52.78125 
Q 43.3125 58.59375 39.234375 62.25 
Q 35.15625 65.921875 28.609375 65.921875 
Q 23.96875 65.921875 18.8125 64.3125 
Q 13.671875 62.703125 7.8125 59.421875 
L 7.8125 69.390625 
Q 13.765625 71.78125 18.9375 73 
Q 24.125 74.21875 28.421875 74.21875 
Q 39.75 74.21875 46.484375 68.546875 
Q 53.21875 62.890625 53.21875 53.421875 
Q 53.21875 48.921875 51.53125 44.890625 
Q 49.859375 40.875 45.40625 35.40625 
Q 44.1875 33.984375 37.640625 27.21875 
Q 31.109375 20.453125 19.1875 8.296875 
z
" id="DejaVuSans-50"/>
      </defs>
      <g transform="translate(139.755665 322.182437)scale(0.1 -0.1)">
       <use xlink:href="#DejaVuSans-8722"/>
       <use x="83.789062" xlink:href="#DejaVuSans-50"/>
       <use x="147.412109" xlink:href="#DejaVuSans-48"/>
       <use x="211.035156" xlink:href="#DejaVuSans-48"/>
      </g>
     </g>
    </g>
    <g id="xtick_3">
     <g id="line2d_4">
      <g>
       <use style="stroke:#000000;stroke-width:0.8;" x="202.243142" xlink:href="#m897e7c7906" y="307.584"/>
      </g>
     </g>
     <g id="text_3">
      <!-- 0 -->
      <g transform="translate(199.061892 322.182437)scale(0.1 -0.1)">
       <use xlink:href="#DejaVuSans-48"/>
      </g>
     </g>
    </g>
    <g id="xtick_4">
     <g id="line2d_5">
      <g>
       <use style="stroke:#000000;stroke-width:0.8;" x="250.997025" xlink:href="#m897e7c7906" y="307.584"/>
      </g>
     </g>
     <g id="text_4">
      <!-- 200 -->
      <g transform="translate(241.453275 322.182437)scale(0.1 -0.1)">
       <use xlink:href="#DejaVuSans-50"/>
       <use x="63.623047" xlink:href="#DejaVuSans-48"/>
       <use x="127.246094" xlink:href="#DejaVuSans-48"/>
      </g>
     </g>
    </g>
    <g id="xtick_5">
     <g id="line2d_6">
      <g>
       <use style="stroke:#000000;stroke-width:0.8;" x="299.750909" xlink:href="#m897e7c7906" y="307.584"/>
      </g>
     </g>
     <g id="text_5">
      <!-- 400 -->
      <g transform="translate(290.207159 322.182437)scale(0.1 -0.1)">
       <use xlink:href="#DejaVuSans-52"/>
       <use x="63.623047" xlink:href="#DejaVuSans-48"/>
       <use x="127.246094" xlink:href="#DejaVuSans-48"/>
      </g>
     </g>
    </g>
    <g id="xtick_6">
     <g id="line2d_7">
      <g>
       <use style="stroke:#000000;stroke-width:0.8;" x="348.504792" xlink:href="#m897e7c7906" y="307.584"/>
      </g>
     </g>
     <g id="text_6">
      <!-- 600 -->
      <defs>
       <path d="M 33.015625 40.375 
Q 26.375 40.375 22.484375 35.828125 
Q 18.609375 31.296875 18.609375 23.390625 
Q 18.609375 15.53125 22.484375 10.953125 
Q 26.375 6.390625 33.015625 6.390625 
Q 39.65625 6.390625 43.53125 10.953125 
Q 47.40625 15.53125 47.40625 23.390625 
Q 47.40625 31.296875 43.53125 35.828125 
Q 39.65625 40.375 33.015625 40.375 
z
M 52.59375 71.296875 
L 52.59375 62.3125 
Q 48.875 64.0625 45.09375 64.984375 
Q 41.3125 65.921875 37.59375 65.921875 
Q 27.828125 65.921875 22.671875 59.328125 
Q 17.53125 52.734375 16.796875 39.40625 
Q 19.671875 43.65625 24.015625 45.921875 
Q 28.375 48.1875 33.59375 48.1875 
Q 44.578125 48.1875 50.953125 41.515625 
Q 57.328125 34.859375 57.328125 23.390625 
Q 57.328125 12.15625 50.6875 5.359375 
Q 44.046875 -1.421875 33.015625 -1.421875 
Q 20.359375 -1.421875 13.671875 8.265625 
Q 6.984375 17.96875 6.984375 36.375 
Q 6.984375 53.65625 15.1875 63.9375 
Q 23.390625 74.21875 37.203125 74.21875 
Q 40.921875 74.21875 44.703125 73.484375 
Q 48.484375 72.75 52.59375 71.296875 
z
" id="DejaVuSans-54"/>
      </defs>
      <g transform="translate(338.961042 322.182437)scale(0.1 -0.1)">
       <use xlink:href="#DejaVuSans-54"/>
       <use x="63.623047" xlink:href="#DejaVuSans-48"/>
       <use x="127.246094" xlink:href="#DejaVuSans-48"/>
      </g>
     </g>
    </g>
    <g id="xtick_7">
     <g id="line2d_8">
      <g>
       <use style="stroke:#000000;stroke-width:0.8;" x="397.258675" xlink:href="#m897e7c7906" y="307.584"/>
      </g>
     </g>
     <g id="text_7">
      <!-- 800 -->
      <defs>
       <path d="M 31.78125 34.625 
Q 24.75 34.625 20.71875 30.859375 
Q 16.703125 27.09375 16.703125 20.515625 
Q 16.703125 13.921875 20.71875 10.15625 
Q 24.75 6.390625 31.78125 6.390625 
Q 38.8125 6.390625 42.859375 10.171875 
Q 46.921875 13.96875 46.921875 20.515625 
Q 46.921875 27.09375 42.890625 30.859375 
Q 38.875 34.625 31.78125 34.625 
z
M 21.921875 38.8125 
Q 15.578125 40.375 12.03125 44.71875 
Q 8.5 49.078125 8.5 55.328125 
Q 8.5 64.0625 14.71875 69.140625 
Q 20.953125 74.21875 31.78125 74.21875 
Q 42.671875 74.21875 48.875 69.140625 
Q 55.078125 64.0625 55.078125 55.328125 
Q 55.078125 49.078125 51.53125 44.71875 
Q 48 40.375 41.703125 38.8125 
Q 48.828125 37.15625 52.796875 32.3125 
Q 56.78125 27.484375 56.78125 20.515625 
Q 56.78125 9.90625 50.3125 4.234375 
Q 43.84375 -1.421875 31.78125 -1.421875 
Q 19.734375 -1.421875 13.25 4.234375 
Q 6.78125 9.90625 6.78125 20.515625 
Q 6.78125 27.484375 10.78125 32.3125 
Q 14.796875 37.15625 21.921875 38.8125 
z
M 18.3125 54.390625 
Q 18.3125 48.734375 21.84375 45.5625 
Q 25.390625 42.390625 31.78125 42.390625 
Q 38.140625 42.390625 41.71875 45.5625 
Q 45.3125 48.734375 45.3125 54.390625 
Q 45.3125 60.0625 41.71875 63.234375 
Q 38.140625 66.40625 31.78125 66.40625 
Q 25.390625 66.40625 21.84375 63.234375 
Q 18.3125 60.0625 18.3125 54.390625 
z
" id="DejaVuSans-56"/>
      </defs>
      <g transform="translate(387.714925 322.182437)scale(0.1 -0.1)">
       <use xlink:href="#DejaVuSans-56"/>
       <use x="63.623047" xlink:href="#DejaVuSans-48"/>
       <use x="127.246094" xlink:href="#DejaVuSans-48"/>
      </g>
     </g>
    </g>
   </g>
   <g id="matplotlib.axis_2">
    <g id="ytick_1">
     <g id="line2d_9">
      <defs>
       <path d="M 0 0 
L -3.5 0 
" id="m72e4db8d16" style="stroke:#000000;stroke-width:0.8;"/>
      </defs>
      <g>
       <use style="stroke:#000000;stroke-width:0.8;" x="57.6" xlink:href="#m72e4db8d16" y="284.195873"/>
      </g>
     </g>
     <g id="text_8">
      <!-- −100 -->
      <defs>
       <path d="M 12.40625 8.296875 
L 28.515625 8.296875 
L 28.515625 63.921875 
L 10.984375 60.40625 
L 10.984375 69.390625 
L 28.421875 72.90625 
L 38.28125 72.90625 
L 38.28125 8.296875 
L 54.390625 8.296875 
L 54.390625 0 
L 12.40625 0 
z
" id="DejaVuSans-49"/>
      </defs>
      <g transform="translate(23.132812 287.995091)scale(0.1 -0.1)">
       <use xlink:href="#DejaVuSans-8722"/>
       <use x="83.789062" xlink:href="#DejaVuSans-49"/>
       <use x="147.412109" xlink:href="#DejaVuSans-48"/>
       <use x="211.035156" xlink:href="#DejaVuSans-48"/>
      </g>
     </g>
    </g>
    <g id="ytick_2">
     <g id="line2d_10">
      <g>
       <use style="stroke:#000000;stroke-width:0.8;" x="57.6" xlink:href="#m72e4db8d16" y="253.122325"/>
      </g>
     </g>
     <g id="text_9">
      <!-- 0 -->
      <g transform="translate(44.2375 256.921544)scale(0.1 -0.1)">
       <use xlink:href="#DejaVuSans-48"/>
      </g>
     </g>
    </g>
    <g id="ytick_3">
     <g id="line2d_11">
      <g>
       <use style="stroke:#000000;stroke-width:0.8;" x="57.6" xlink:href="#m72e4db8d16" y="222.048777"/>
      </g>
     </g>
     <g id="text_10">
      <!-- 100 -->
      <g transform="translate(31.5125 225.847996)scale(0.1 -0.1)">
       <use xlink:href="#DejaVuSans-49"/>
       <use x="63.623047" xlink:href="#DejaVuSans-48"/>
       <use x="127.246094" xlink:href="#DejaVuSans-48"/>
      </g>
     </g>
    </g>
    <g id="ytick_4">
     <g id="line2d_12">
      <g>
       <use style="stroke:#000000;stroke-width:0.8;" x="57.6" xlink:href="#m72e4db8d16" y="190.975229"/>
      </g>
     </g>
     <g id="text_11">
      <!-- 200 -->
      <g transform="translate(31.5125 194.774448)scale(0.1 -0.1)">
       <use xlink:href="#DejaVuSans-50"/>
       <use x="63.623047" xlink:href="#DejaVuSans-48"/>
       <use x="127.246094" xlink:href="#DejaVuSans-48"/>
      </g>
     </g>
    </g>
    <g id="ytick_5">
     <g id="line2d_13">
      <g>
       <use style="stroke:#000000;stroke-width:0.8;" x="57.6" xlink:href="#m72e4db8d16" y="159.901681"/>
      </g>
     </g>
     <g id="text_12">
      <!-- 300 -->
      <defs>
       <path d="M 40.578125 39.3125 
Q 47.65625 37.796875 51.625 33 
Q 55.609375 28.21875 55.609375 21.1875 
Q 55.609375 10.40625 48.1875 4.484375 
Q 40.765625 -1.421875 27.09375 -1.421875 
Q 22.515625 -1.421875 17.65625 -0.515625 
Q 12.796875 0.390625 7.625 2.203125 
L 7.625 11.71875 
Q 11.71875 9.328125 16.59375 8.109375 
Q 21.484375 6.890625 26.8125 6.890625 
Q 36.078125 6.890625 40.9375 10.546875 
Q 45.796875 14.203125 45.796875 21.1875 
Q 45.796875 27.640625 41.28125 31.265625 
Q 36.765625 34.90625 28.71875 34.90625 
L 20.21875 34.90625 
L 20.21875 43.015625 
L 29.109375 43.015625 
Q 36.375 43.015625 40.234375 45.921875 
Q 44.09375 48.828125 44.09375 54.296875 
Q 44.09375 59.90625 40.109375 62.90625 
Q 36.140625 65.921875 28.71875 65.921875 
Q 24.65625 65.921875 20.015625 65.03125 
Q 15.375 64.15625 9.8125 62.3125 
L 9.8125 71.09375 
Q 15.4375 72.65625 20.34375 73.4375 
Q 25.25 74.21875 29.59375 74.21875 
Q 40.828125 74.21875 47.359375 69.109375 
Q 53.90625 64.015625 53.90625 55.328125 
Q 53.90625 49.265625 50.4375 45.09375 
Q 46.96875 40.921875 40.578125 39.3125 
z
" id="DejaVuSans-51"/>
      </defs>
      <g transform="translate(31.5125 163.7009)scale(0.1 -0.1)">
       <use xlink:href="#DejaVuSans-51"/>
       <use x="63.623047" xlink:href="#DejaVuSans-48"/>
       <use x="127.246094" xlink:href="#DejaVuSans-48"/>
      </g>
     </g>
    </g>
    <g id="ytick_6">
     <g id="line2d_14">
      <g>
       <use style="stroke:#000000;stroke-width:0.8;" x="57.6" xlink:href="#m72e4db8d16" y="128.828133"/>
      </g>
     </g>
     <g id="text_13">
      <!-- 400 -->
      <g transform="translate(31.5125 132.627352)scale(0.1 -0.1)">
       <use xlink:href="#DejaVuSans-52"/>
       <use x="63.623047" xlink:href="#DejaVuSans-48"/>
       <use x="127.246094" xlink:href="#DejaVuSans-48"/>
      </g>
     </g>
    </g>
    <g id="ytick_7">
     <g id="line2d_15">
      <g>
       <use style="stroke:#000000;stroke-width:0.8;" x="57.6" xlink:href="#m72e4db8d16" y="97.754585"/>
      </g>
     </g>
     <g id="text_14">
      <!-- 500 -->
      <defs>
       <path d="M 10.796875 72.90625 
L 49.515625 72.90625 
L 49.515625 64.59375 
L 19.828125 64.59375 
L 19.828125 46.734375 
Q 21.96875 47.46875 24.109375 47.828125 
Q 26.265625 48.1875 28.421875 48.1875 
Q 40.625 48.1875 47.75 41.5 
Q 54.890625 34.8125 54.890625 23.390625 
Q 54.890625 11.625 47.5625 5.09375 
Q 40.234375 -1.421875 26.90625 -1.421875 
Q 22.3125 -1.421875 17.546875 -0.640625 
Q 12.796875 0.140625 7.71875 1.703125 
L 7.71875 11.625 
Q 12.109375 9.234375 16.796875 8.0625 
Q 21.484375 6.890625 26.703125 6.890625 
Q 35.15625 6.890625 40.078125 11.328125 
Q 45.015625 15.765625 45.015625 23.390625 
Q 45.015625 31 40.078125 35.4375 
Q 35.15625 39.890625 26.703125 39.890625 
Q 22.75 39.890625 18.8125 39.015625 
Q 14.890625 38.140625 10.796875 36.28125 
z
" id="DejaVuSans-53"/>
      </defs>
      <g transform="translate(31.5125 101.553804)scale(0.1 -0.1)">
       <use xlink:href="#DejaVuSans-53"/>
       <use x="63.623047" xlink:href="#DejaVuSans-48"/>
       <use x="127.246094" xlink:href="#DejaVuSans-48"/>
      </g>
     </g>
    </g>
    <g id="ytick_8">
     <g id="line2d_16">
      <g>
       <use style="stroke:#000000;stroke-width:0.8;" x="57.6" xlink:href="#m72e4db8d16" y="66.681037"/>
      </g>
     </g>
     <g id="text_15">
      <!-- 600 -->
      <g transform="translate(31.5125 70.480256)scale(0.1 -0.1)">
       <use xlink:href="#DejaVuSans-54"/>
       <use x="63.623047" xlink:href="#DejaVuSans-48"/>
       <use x="127.246094" xlink:href="#DejaVuSans-48"/>
      </g>
     </g>
    </g>
   </g>
   <g id="line2d_17">
    <path clip-path="url(#p2e7a951796)" d="M 395.277132 178.705111 
L 214.143801 187.383205 
L 133.80182 260.232592 
L 152.655568 281.850355 
L 259.626357 290.515778 
L 251.372476 290.990104 
L 137.141433 268.345863 
L 81.055313 262.597351 
L 201.165992 65.833068 
" style="fill:none;stroke:#ff0000;stroke-linecap:square;stroke-width:0.5;"/>
   </g>
   <g id="patch_3">
    <path d="M 57.6 307.584 
L 57.6 41.472 
" style="fill:none;stroke:#000000;stroke-linecap:square;stroke-linejoin:miter;stroke-width:0.8;"/>
   </g>
   <g id="patch_4">
    <path d="M 414.72 307.584 
L 414.72 41.472 
" style="fill:none;stroke:#000000;stroke-linecap:square;stroke-linejoin:miter;stroke-width:0.8;"/>
   </g>
   <g id="patch_5">
    <path d="M 57.6 307.584 
L 414.72 307.584 
" style="fill:none;stroke:#000000;stroke-linecap:square;stroke-linejoin:miter;stroke-width:0.8;"/>
   </g>
   <g id="patch_6">
    <path d="M 57.6 41.472 
L 414.72 41.472 
" style="fill:none;stroke:#000000;stroke-linecap:square;stroke-linejoin:miter;stroke-width:0.8;"/>
   </g>
   <g id="PathCollection_1">
    <defs>
     <path d="M 0 2.738613 
C 0.726289 2.738613 1.422928 2.450055 1.936492 1.936492 
C 2.450055 1.422928 2.738613 0.726289 2.738613 0 
C 2.738613 -0.726289 2.450055 -1.422928 1.936492 -1.936492 
C 1.422928 -2.450055 0.726289 -2.738613 0 -2.738613 
C -0.726289 -2.738613 -1.422928 -2.450055 -1.936492 -1.936492 
C -2.450055 -1.422928 -2.738613 -0.726289 -2.738613 0 
C -2.738613 0.726289 -2.450055 1.422928 -1.936492 1.936492 
C -1.422928 2.450055 -0.726289 2.738613 0 2.738613 
z
" id="m09de2d84b0" style="stroke:#ff0000;"/>
    </defs>
    <g clip-path="url(#p2e7a951796)">
     <use style="fill:#ff0000;stroke:#ff0000;" x="395.277132" xlink:href="#m09de2d84b0" y="178.705111"/>
     <use style="fill:#ff0000;stroke:#ff0000;" x="214.143801" xlink:href="#m09de2d84b0" y="187.383205"/>
     <use style="fill:#ff0000;stroke:#ff0000;" x="133.80182" xlink:href="#m09de2d84b0" y="260.232592"/>
     <use style="fill:#ff0000;stroke:#ff0000;" x="152.655568" xlink:href="#m09de2d84b0" y="281.850355"/>
     <use style="fill:#ff0000;stroke:#ff0000;" x="259.626357" xlink:href="#m09de2d84b0" y="290.515778"/>
     <use style="fill:#ff0000;stroke:#ff0000;" x="251.372476" xlink:href="#m09de2d84b0" y="290.990104"/>
     <use style="fill:#ff0000;stroke:#ff0000;" x="137.141433" xlink:href="#m09de2d84b0" y="268.345863"/>
     <use style="fill:#ff0000;stroke:#ff0000;" x="81.055313" xlink:href="#m09de2d84b0" y="262.597351"/>
     <use style="fill:#ff0000;stroke:#ff0000;" x="201.165992" xlink:href="#m09de2d84b0" y="65.833068"/>
    </g>
   </g>
   <g id="text_16">
    <!-- (8) Subject: s7, Known = False, Degree = 2, Duration = 0.1 -->
    <defs>
     <path d="M 31 75.875 
Q 24.46875 64.65625 21.28125 53.65625 
Q 18.109375 42.671875 18.109375 31.390625 
Q 18.109375 20.125 21.3125 9.0625 
Q 24.515625 -2 31 -13.1875 
L 23.1875 -13.1875 
Q 15.875 -1.703125 12.234375 9.375 
Q 8.59375 20.453125 8.59375 31.390625 
Q 8.59375 42.28125 12.203125 53.3125 
Q 15.828125 64.359375 23.1875 75.875 
z
" id="DejaVuSans-40"/>
     <path d="M 8.015625 75.875 
L 15.828125 75.875 
Q 23.140625 64.359375 26.78125 53.3125 
Q 30.421875 42.28125 30.421875 31.390625 
Q 30.421875 20.453125 26.78125 9.375 
Q 23.140625 -1.703125 15.828125 -13.1875 
L 8.015625 -13.1875 
Q 14.5 -2 17.703125 9.0625 
Q 20.90625 20.125 20.90625 31.390625 
Q 20.90625 42.671875 17.703125 53.65625 
Q 14.5 64.65625 8.015625 75.875 
z
" id="DejaVuSans-41"/>
     <path id="DejaVuSans-32"/>
     <path d="M 53.515625 70.515625 
L 53.515625 60.890625 
Q 47.90625 63.578125 42.921875 64.890625 
Q 37.9375 66.21875 33.296875 66.21875 
Q 25.25 66.21875 20.875 63.09375 
Q 16.5 59.96875 16.5 54.203125 
Q 16.5 49.359375 19.40625 46.890625 
Q 22.3125 44.4375 30.421875 42.921875 
L 36.375 41.703125 
Q 47.40625 39.59375 52.65625 34.296875 
Q 57.90625 29 57.90625 20.125 
Q 57.90625 9.515625 50.796875 4.046875 
Q 43.703125 -1.421875 29.984375 -1.421875 
Q 24.8125 -1.421875 18.96875 -0.25 
Q 13.140625 0.921875 6.890625 3.21875 
L 6.890625 13.375 
Q 12.890625 10.015625 18.65625 8.296875 
Q 24.421875 6.59375 29.984375 6.59375 
Q 38.421875 6.59375 43.015625 9.90625 
Q 47.609375 13.234375 47.609375 19.390625 
Q 47.609375 24.75 44.3125 27.78125 
Q 41.015625 30.8125 33.5 32.328125 
L 27.484375 33.5 
Q 16.453125 35.6875 11.515625 40.375 
Q 6.59375 45.0625 6.59375 53.421875 
Q 6.59375 63.09375 13.40625 68.65625 
Q 20.21875 74.21875 32.171875 74.21875 
Q 37.3125 74.21875 42.625 73.28125 
Q 47.953125 72.359375 53.515625 70.515625 
z
" id="DejaVuSans-83"/>
     <path d="M 8.5 21.578125 
L 8.5 54.6875 
L 17.484375 54.6875 
L 17.484375 21.921875 
Q 17.484375 14.15625 20.5 10.265625 
Q 23.53125 6.390625 29.59375 6.390625 
Q 36.859375 6.390625 41.078125 11.03125 
Q 45.3125 15.671875 45.3125 23.6875 
L 45.3125 54.6875 
L 54.296875 54.6875 
L 54.296875 0 
L 45.3125 0 
L 45.3125 8.40625 
Q 42.046875 3.421875 37.71875 1 
Q 33.40625 -1.421875 27.6875 -1.421875 
Q 18.265625 -1.421875 13.375 4.4375 
Q 8.5 10.296875 8.5 21.578125 
z
M 31.109375 56 
z
" id="DejaVuSans-117"/>
     <path d="M 48.6875 27.296875 
Q 48.6875 37.203125 44.609375 42.84375 
Q 40.53125 48.484375 33.40625 48.484375 
Q 26.265625 48.484375 22.1875 42.84375 
Q 18.109375 37.203125 18.109375 27.296875 
Q 18.109375 17.390625 22.1875 11.75 
Q 26.265625 6.109375 33.40625 6.109375 
Q 40.53125 6.109375 44.609375 11.75 
Q 48.6875 17.390625 48.6875 27.296875 
z
M 18.109375 46.390625 
Q 20.953125 51.265625 25.265625 53.625 
Q 29.59375 56 35.59375 56 
Q 45.5625 56 51.78125 48.09375 
Q 58.015625 40.1875 58.015625 27.296875 
Q 58.015625 14.40625 51.78125 6.484375 
Q 45.5625 -1.421875 35.59375 -1.421875 
Q 29.59375 -1.421875 25.265625 0.953125 
Q 20.953125 3.328125 18.109375 8.203125 
L 18.109375 0 
L 9.078125 0 
L 9.078125 75.984375 
L 18.109375 75.984375 
z
" id="DejaVuSans-98"/>
     <path d="M 9.421875 54.6875 
L 18.40625 54.6875 
L 18.40625 -0.984375 
Q 18.40625 -11.421875 14.421875 -16.109375 
Q 10.453125 -20.796875 1.609375 -20.796875 
L -1.8125 -20.796875 
L -1.8125 -13.1875 
L 0.59375 -13.1875 
Q 5.71875 -13.1875 7.5625 -10.8125 
Q 9.421875 -8.453125 9.421875 -0.984375 
z
M 9.421875 75.984375 
L 18.40625 75.984375 
L 18.40625 64.59375 
L 9.421875 64.59375 
z
" id="DejaVuSans-106"/>
     <path d="M 56.203125 29.59375 
L 56.203125 25.203125 
L 14.890625 25.203125 
Q 15.484375 15.921875 20.484375 11.0625 
Q 25.484375 6.203125 34.421875 6.203125 
Q 39.59375 6.203125 44.453125 7.46875 
Q 49.3125 8.734375 54.109375 11.28125 
L 54.109375 2.78125 
Q 49.265625 0.734375 44.1875 -0.34375 
Q 39.109375 -1.421875 33.890625 -1.421875 
Q 20.796875 -1.421875 13.15625 6.1875 
Q 5.515625 13.8125 5.515625 26.8125 
Q 5.515625 40.234375 12.765625 48.109375 
Q 20.015625 56 32.328125 56 
Q 43.359375 56 49.78125 48.890625 
Q 56.203125 41.796875 56.203125 29.59375 
z
M 47.21875 32.234375 
Q 47.125 39.59375 43.09375 43.984375 
Q 39.0625 48.390625 32.421875 48.390625 
Q 24.90625 48.390625 20.390625 44.140625 
Q 15.875 39.890625 15.1875 32.171875 
z
" id="DejaVuSans-101"/>
     <path d="M 48.78125 52.59375 
L 48.78125 44.1875 
Q 44.96875 46.296875 41.140625 47.34375 
Q 37.3125 48.390625 33.40625 48.390625 
Q 24.65625 48.390625 19.8125 42.84375 
Q 14.984375 37.3125 14.984375 27.296875 
Q 14.984375 17.28125 19.8125 11.734375 
Q 24.65625 6.203125 33.40625 6.203125 
Q 37.3125 6.203125 41.140625 7.25 
Q 44.96875 8.296875 48.78125 10.40625 
L 48.78125 2.09375 
Q 45.015625 0.34375 40.984375 -0.53125 
Q 36.96875 -1.421875 32.421875 -1.421875 
Q 20.0625 -1.421875 12.78125 6.34375 
Q 5.515625 14.109375 5.515625 27.296875 
Q 5.515625 40.671875 12.859375 48.328125 
Q 20.21875 56 33.015625 56 
Q 37.15625 56 41.109375 55.140625 
Q 45.0625 54.296875 48.78125 52.59375 
z
" id="DejaVuSans-99"/>
     <path d="M 18.3125 70.21875 
L 18.3125 54.6875 
L 36.8125 54.6875 
L 36.8125 47.703125 
L 18.3125 47.703125 
L 18.3125 18.015625 
Q 18.3125 11.328125 20.140625 9.421875 
Q 21.96875 7.515625 27.59375 7.515625 
L 36.8125 7.515625 
L 36.8125 0 
L 27.59375 0 
Q 17.1875 0 13.234375 3.875 
Q 9.28125 7.765625 9.28125 18.015625 
L 9.28125 47.703125 
L 2.6875 47.703125 
L 2.6875 54.6875 
L 9.28125 54.6875 
L 9.28125 70.21875 
z
" id="DejaVuSans-116"/>
     <path d="M 11.71875 12.40625 
L 22.015625 12.40625 
L 22.015625 0 
L 11.71875 0 
z
M 11.71875 51.703125 
L 22.015625 51.703125 
L 22.015625 39.3125 
L 11.71875 39.3125 
z
" id="DejaVuSans-58"/>
     <path d="M 44.28125 53.078125 
L 44.28125 44.578125 
Q 40.484375 46.53125 36.375 47.5 
Q 32.28125 48.484375 27.875 48.484375 
Q 21.1875 48.484375 17.84375 46.4375 
Q 14.5 44.390625 14.5 40.28125 
Q 14.5 37.15625 16.890625 35.375 
Q 19.28125 33.59375 26.515625 31.984375 
L 29.59375 31.296875 
Q 39.15625 29.25 43.1875 25.515625 
Q 47.21875 21.78125 47.21875 15.09375 
Q 47.21875 7.46875 41.1875 3.015625 
Q 35.15625 -1.421875 24.609375 -1.421875 
Q 20.21875 -1.421875 15.453125 -0.5625 
Q 10.6875 0.296875 5.421875 2 
L 5.421875 11.28125 
Q 10.40625 8.6875 15.234375 7.390625 
Q 20.0625 6.109375 24.8125 6.109375 
Q 31.15625 6.109375 34.5625 8.28125 
Q 37.984375 10.453125 37.984375 14.40625 
Q 37.984375 18.0625 35.515625 20.015625 
Q 33.0625 21.96875 24.703125 23.78125 
L 21.578125 24.515625 
Q 13.234375 26.265625 9.515625 29.90625 
Q 5.8125 33.546875 5.8125 39.890625 
Q 5.8125 47.609375 11.28125 51.796875 
Q 16.75 56 26.8125 56 
Q 31.78125 56 36.171875 55.265625 
Q 40.578125 54.546875 44.28125 53.078125 
z
" id="DejaVuSans-115"/>
     <path d="M 8.203125 72.90625 
L 55.078125 72.90625 
L 55.078125 68.703125 
L 28.609375 0 
L 18.3125 0 
L 43.21875 64.59375 
L 8.203125 64.59375 
z
" id="DejaVuSans-55"/>
     <path d="M 11.71875 12.40625 
L 22.015625 12.40625 
L 22.015625 4 
L 14.015625 -11.625 
L 7.71875 -11.625 
L 11.71875 4 
z
" id="DejaVuSans-44"/>
     <path d="M 9.8125 72.90625 
L 19.671875 72.90625 
L 19.671875 42.09375 
L 52.390625 72.90625 
L 65.09375 72.90625 
L 28.90625 38.921875 
L 67.671875 0 
L 54.6875 0 
L 19.671875 35.109375 
L 19.671875 0 
L 9.8125 0 
z
" id="DejaVuSans-75"/>
     <path d="M 54.890625 33.015625 
L 54.890625 0 
L 45.90625 0 
L 45.90625 32.71875 
Q 45.90625 40.484375 42.875 44.328125 
Q 39.84375 48.1875 33.796875 48.1875 
Q 26.515625 48.1875 22.3125 43.546875 
Q 18.109375 38.921875 18.109375 30.90625 
L 18.109375 0 
L 9.078125 0 
L 9.078125 54.6875 
L 18.109375 54.6875 
L 18.109375 46.1875 
Q 21.34375 51.125 25.703125 53.5625 
Q 30.078125 56 35.796875 56 
Q 45.21875 56 50.046875 50.171875 
Q 54.890625 44.34375 54.890625 33.015625 
z
" id="DejaVuSans-110"/>
     <path d="M 30.609375 48.390625 
Q 23.390625 48.390625 19.1875 42.75 
Q 14.984375 37.109375 14.984375 27.296875 
Q 14.984375 17.484375 19.15625 11.84375 
Q 23.34375 6.203125 30.609375 6.203125 
Q 37.796875 6.203125 41.984375 11.859375 
Q 46.1875 17.53125 46.1875 27.296875 
Q 46.1875 37.015625 41.984375 42.703125 
Q 37.796875 48.390625 30.609375 48.390625 
z
M 30.609375 56 
Q 42.328125 56 49.015625 48.375 
Q 55.71875 40.765625 55.71875 27.296875 
Q 55.71875 13.875 49.015625 6.21875 
Q 42.328125 -1.421875 30.609375 -1.421875 
Q 18.84375 -1.421875 12.171875 6.21875 
Q 5.515625 13.875 5.515625 27.296875 
Q 5.515625 40.765625 12.171875 48.375 
Q 18.84375 56 30.609375 56 
z
" id="DejaVuSans-111"/>
     <path d="M 4.203125 54.6875 
L 13.1875 54.6875 
L 24.421875 12.015625 
L 35.59375 54.6875 
L 46.1875 54.6875 
L 57.421875 12.015625 
L 68.609375 54.6875 
L 77.59375 54.6875 
L 63.28125 0 
L 52.6875 0 
L 40.921875 44.828125 
L 29.109375 0 
L 18.5 0 
z
" id="DejaVuSans-119"/>
     <path d="M 10.59375 45.40625 
L 73.1875 45.40625 
L 73.1875 37.203125 
L 10.59375 37.203125 
z
M 10.59375 25.484375 
L 73.1875 25.484375 
L 73.1875 17.1875 
L 10.59375 17.1875 
z
" id="DejaVuSans-61"/>
     <path d="M 9.8125 72.90625 
L 51.703125 72.90625 
L 51.703125 64.59375 
L 19.671875 64.59375 
L 19.671875 43.109375 
L 48.578125 43.109375 
L 48.578125 34.8125 
L 19.671875 34.8125 
L 19.671875 0 
L 9.8125 0 
z
" id="DejaVuSans-70"/>
     <path d="M 34.28125 27.484375 
Q 23.390625 27.484375 19.1875 25 
Q 14.984375 22.515625 14.984375 16.5 
Q 14.984375 11.71875 18.140625 8.90625 
Q 21.296875 6.109375 26.703125 6.109375 
Q 34.1875 6.109375 38.703125 11.40625 
Q 43.21875 16.703125 43.21875 25.484375 
L 43.21875 27.484375 
z
M 52.203125 31.203125 
L 52.203125 0 
L 43.21875 0 
L 43.21875 8.296875 
Q 40.140625 3.328125 35.546875 0.953125 
Q 30.953125 -1.421875 24.3125 -1.421875 
Q 15.921875 -1.421875 10.953125 3.296875 
Q 6 8.015625 6 15.921875 
Q 6 25.140625 12.171875 29.828125 
Q 18.359375 34.515625 30.609375 34.515625 
L 43.21875 34.515625 
L 43.21875 35.40625 
Q 43.21875 41.609375 39.140625 45 
Q 35.0625 48.390625 27.6875 48.390625 
Q 23 48.390625 18.546875 47.265625 
Q 14.109375 46.140625 10.015625 43.890625 
L 10.015625 52.203125 
Q 14.9375 54.109375 19.578125 55.046875 
Q 24.21875 56 28.609375 56 
Q 40.484375 56 46.34375 49.84375 
Q 52.203125 43.703125 52.203125 31.203125 
z
" id="DejaVuSans-97"/>
     <path d="M 9.421875 75.984375 
L 18.40625 75.984375 
L 18.40625 0 
L 9.421875 0 
z
" id="DejaVuSans-108"/>
     <path d="M 19.671875 64.796875 
L 19.671875 8.109375 
L 31.59375 8.109375 
Q 46.6875 8.109375 53.6875 14.9375 
Q 60.6875 21.78125 60.6875 36.53125 
Q 60.6875 51.171875 53.6875 57.984375 
Q 46.6875 64.796875 31.59375 64.796875 
z
M 9.8125 72.90625 
L 30.078125 72.90625 
Q 51.265625 72.90625 61.171875 64.09375 
Q 71.09375 55.28125 71.09375 36.53125 
Q 71.09375 17.671875 61.125 8.828125 
Q 51.171875 0 30.078125 0 
L 9.8125 0 
z
" id="DejaVuSans-68"/>
     <path d="M 45.40625 27.984375 
Q 45.40625 37.75 41.375 43.109375 
Q 37.359375 48.484375 30.078125 48.484375 
Q 22.859375 48.484375 18.828125 43.109375 
Q 14.796875 37.75 14.796875 27.984375 
Q 14.796875 18.265625 18.828125 12.890625 
Q 22.859375 7.515625 30.078125 7.515625 
Q 37.359375 7.515625 41.375 12.890625 
Q 45.40625 18.265625 45.40625 27.984375 
z
M 54.390625 6.78125 
Q 54.390625 -7.171875 48.1875 -13.984375 
Q 42 -20.796875 29.203125 -20.796875 
Q 24.46875 -20.796875 20.265625 -20.09375 
Q 16.0625 -19.390625 12.109375 -17.921875 
L 12.109375 -9.1875 
Q 16.0625 -11.328125 19.921875 -12.34375 
Q 23.78125 -13.375 27.78125 -13.375 
Q 36.625 -13.375 41.015625 -8.765625 
Q 45.40625 -4.15625 45.40625 5.171875 
L 45.40625 9.625 
Q 42.625 4.78125 38.28125 2.390625 
Q 33.9375 0 27.875 0 
Q 17.828125 0 11.671875 7.65625 
Q 5.515625 15.328125 5.515625 27.984375 
Q 5.515625 40.671875 11.671875 48.328125 
Q 17.828125 56 27.875 56 
Q 33.9375 56 38.28125 53.609375 
Q 42.625 51.21875 45.40625 46.390625 
L 45.40625 54.6875 
L 54.390625 54.6875 
z
" id="DejaVuSans-103"/>
     <path d="M 41.109375 46.296875 
Q 39.59375 47.171875 37.8125 47.578125 
Q 36.03125 48 33.890625 48 
Q 26.265625 48 22.1875 43.046875 
Q 18.109375 38.09375 18.109375 28.8125 
L 18.109375 0 
L 9.078125 0 
L 9.078125 54.6875 
L 18.109375 54.6875 
L 18.109375 46.1875 
Q 20.953125 51.171875 25.484375 53.578125 
Q 30.03125 56 36.53125 56 
Q 37.453125 56 38.578125 55.875 
Q 39.703125 55.765625 41.0625 55.515625 
z
" id="DejaVuSans-114"/>
     <path d="M 9.421875 54.6875 
L 18.40625 54.6875 
L 18.40625 0 
L 9.421875 0 
z
M 9.421875 75.984375 
L 18.40625 75.984375 
L 18.40625 64.59375 
L 9.421875 64.59375 
z
" id="DejaVuSans-105"/>
     <path d="M 10.6875 12.40625 
L 21 12.40625 
L 21 0 
L 10.6875 0 
z
" id="DejaVuSans-46"/>
    </defs>
    <g transform="translate(57.376875 35.472)scale(0.12 -0.12)">
     <use xlink:href="#DejaVuSans-40"/>
     <use x="39.013672" xlink:href="#DejaVuSans-56"/>
     <use x="102.636719" xlink:href="#DejaVuSans-41"/>
     <use x="141.650391" xlink:href="#DejaVuSans-32"/>
     <use x="173.4375" xlink:href="#DejaVuSans-83"/>
     <use x="236.914062" xlink:href="#DejaVuSans-117"/>
     <use x="300.292969" xlink:href="#DejaVuSans-98"/>
     <use x="363.769531" xlink:href="#DejaVuSans-106"/>
     <use x="391.552734" xlink:href="#DejaVuSans-101"/>
     <use x="453.076172" xlink:href="#DejaVuSans-99"/>
     <use x="508.056641" xlink:href="#DejaVuSans-116"/>
     <use x="547.265625" xlink:href="#DejaVuSans-58"/>
     <use x="580.957031" xlink:href="#DejaVuSans-32"/>
     <use x="612.744141" xlink:href="#DejaVuSans-115"/>
     <use x="664.84375" xlink:href="#DejaVuSans-55"/>
     <use x="728.466797" xlink:href="#DejaVuSans-44"/>
     <use x="760.253906" xlink:href="#DejaVuSans-32"/>
     <use x="792.041016" xlink:href="#DejaVuSans-75"/>
     <use x="857.617188" xlink:href="#DejaVuSans-110"/>
     <use x="920.996094" xlink:href="#DejaVuSans-111"/>
     <use x="982.177734" xlink:href="#DejaVuSans-119"/>
     <use x="1063.964844" xlink:href="#DejaVuSans-110"/>
     <use x="1127.34375" xlink:href="#DejaVuSans-32"/>
     <use x="1159.130859" xlink:href="#DejaVuSans-61"/>
     <use x="1242.919922" xlink:href="#DejaVuSans-32"/>
     <use x="1274.707031" xlink:href="#DejaVuSans-70"/>
     <use x="1332.085938" xlink:href="#DejaVuSans-97"/>
     <use x="1393.365234" xlink:href="#DejaVuSans-108"/>
     <use x="1421.148438" xlink:href="#DejaVuSans-115"/>
     <use x="1473.248047" xlink:href="#DejaVuSans-101"/>
     <use x="1534.771484" xlink:href="#DejaVuSans-44"/>
     <use x="1566.558594" xlink:href="#DejaVuSans-32"/>
     <use x="1598.345703" xlink:href="#DejaVuSans-68"/>
     <use x="1675.347656" xlink:href="#DejaVuSans-101"/>
     <use x="1736.871094" xlink:href="#DejaVuSans-103"/>
     <use x="1800.347656" xlink:href="#DejaVuSans-114"/>
     <use x="1841.429688" xlink:href="#DejaVuSans-101"/>
     <use x="1902.953125" xlink:href="#DejaVuSans-101"/>
     <use x="1964.476562" xlink:href="#DejaVuSans-32"/>
     <use x="1996.263672" xlink:href="#DejaVuSans-61"/>
     <use x="2080.052734" xlink:href="#DejaVuSans-32"/>
     <use x="2111.839844" xlink:href="#DejaVuSans-50"/>
     <use x="2175.462891" xlink:href="#DejaVuSans-44"/>
     <use x="2207.25" xlink:href="#DejaVuSans-32"/>
     <use x="2239.037109" xlink:href="#DejaVuSans-68"/>
     <use x="2316.039062" xlink:href="#DejaVuSans-117"/>
     <use x="2379.417969" xlink:href="#DejaVuSans-114"/>
     <use x="2420.53125" xlink:href="#DejaVuSans-97"/>
     <use x="2481.810547" xlink:href="#DejaVuSans-116"/>
     <use x="2521.019531" xlink:href="#DejaVuSans-105"/>
     <use x="2548.802734" xlink:href="#DejaVuSans-111"/>
     <use x="2609.984375" xlink:href="#DejaVuSans-110"/>
     <use x="2673.363281" xlink:href="#DejaVuSans-32"/>
     <use x="2705.150391" xlink:href="#DejaVuSans-61"/>
     <use x="2788.939453" xlink:href="#DejaVuSans-32"/>
     <use x="2820.726562" xlink:href="#DejaVuSans-48"/>
     <use x="2884.349609" xlink:href="#DejaVuSans-46"/>
     <use x="2916.136719" xlink:href="#DejaVuSans-49"/>
    </g>
   </g>
  </g>
 </g>
 <defs>
  <clipPath id="p2e7a951796">
   <rect height="266.112" width="357.12" x="57.6" y="41.472"/>
  </clipPath>
 </defs>
</svg>
