<?xml version="1.0" encoding="utf-8" standalone="no"?>
<!DOCTYPE svg PUBLIC "-//W3C//DTD SVG 1.1//EN"
  "http://www.w3.org/Graphics/SVG/1.1/DTD/svg11.dtd">
<!-- Created with matplotlib (https://matplotlib.org/) -->
<svg height="345.6pt" version="1.1" viewBox="0 0 460.8 345.6" width="460.8pt" xmlns="http://www.w3.org/2000/svg" xmlns:xlink="http://www.w3.org/1999/xlink">
 <defs>
  <style type="text/css">
*{stroke-linecap:butt;stroke-linejoin:round;}
  </style>
 </defs>
 <g id="figure_1">
  <g id="patch_1">
   <path d="M 0 345.6 
L 460.8 345.6 
L 460.8 0 
L 0 0 
z
" style="fill:#ffffff;"/>
  </g>
  <g id="axes_1">
   <g id="patch_2">
    <path d="M 57.6 307.584 
L 414.72 307.584 
L 414.72 41.472 
L 57.6 41.472 
z
" style="fill:#ffffff;"/>
   </g>
   <g id="line2d_1">
    <path clip-path="url(#p58a91a409d)" d="M 75.470045 294.295964 
L 75.742931 294.593973 
L 75.742931 294.593973 
L 75.742931 293.697599 
L 76.288703 293.101581 
L 76.838114 293.101581 
L 76.838114 293.101581 
L 75.742931 293.697599 
L 76.015817 293.697599 
L 75.742931 293.39959 
L 75.197158 293.101581 
L 75.197158 292.803572 
L 75.470045 292.803572 
L 75.470045 293.39959 
L 75.742931 293.39959 
L 76.015817 292.803572 
L 76.561589 292.505563 
L 76.561589 291.909545 
L 75.742931 292.803572 
L 75.197158 293.101581 
L 74.651386 293.697599 
L 74.3785 293.697599 
L 74.3785 293.39959 
L 74.651386 293.101581 
L 75.197158 292.803572 
L 75.470045 293.101581 
L 75.742931 293.101581 
L 76.015817 293.39959 
L 76.015817 293.697599 
L 76.015817 293.39959 
L 75.742931 293.101581 
L 76.015817 293.101581 
L 76.561589 293.39959 
L 76.288703 293.697599 
L 75.470045 293.995608 
L 75.470045 294.593973 
L 75.742931 294.891982 
L 76.288703 294.891982 
L 76.288703 294.295964 
L 76.015817 293.697599 
L 76.015817 293.101581 
L 76.288703 293.101581 
L 76.288703 293.697599 
L 75.742931 294.295964 
L 75.742931 294.891982 
L 76.288703 295.189991 
L 76.015817 294.593973 
L 75.742931 294.593973 
L 75.742931 293.697599 
L 76.015817 293.697599 
L 76.561589 294.891982 
L 76.838114 294.593973 
L 76.288703 293.995608 
L 76.288703 293.697599 
L 76.561589 293.39959 
L 76.561589 293.697599 
L 76.288703 293.995608 
L 76.015817 293.995608 
L 76.015817 294.891982 
L 75.742931 294.891982 
L 75.197158 294.295964 
L 75.197158 293.995608 
L 75.197158 294.891982 
L 75.470045 295.488 
L 76.288703 295.488 
L 76.288703 295.189991 
L 76.561589 295.189991 
L 76.838114 295.488 
L 76.561589 295.189991 
L 76.561589 294.593973 
L 77.111 293.995608 
L 77.111 293.697599 
L 76.838114 293.101581 
L 76.561589 293.101581 
L 76.561589 293.995608 
L 76.288703 294.891982 
L 76.288703 294.891982 
L 77.111 294.891982 
L 77.383887 294.295964 
L 77.383887 293.995608 
L 76.561589 293.101581 
L 76.838114 292.803572 
L 77.111 293.101581 
L 76.838114 293.39959 
L 76.838114 294.295964 
L 77.111 294.593973 
L 77.111 292.207554 
L 76.838114 291.609189 
L 76.288703 292.207554 
L 76.288703 293.101581 
L 76.838114 293.39959 
L 76.838114 293.101581 
L 76.561589 292.505563 
L 76.288703 292.207554 
L 76.288703 292.207554 
L 76.561589 292.207554 
L 76.288703 291.909545 
L 76.288703 291.31118 
L 76.561589 290.715162 
L 76.561589 291.31118 
L 76.561589 291.013171 
L 76.015817 290.417153 
L 76.561589 290.715162 
L 76.838114 290.715162 
L 76.288703 289.523126 
L 76.288703 289.821135 
L 76.838114 291.013171 
L 76.561589 291.609189 
L 75.742931 291.013171 
L 75.470045 289.523126 
L 75.742931 288.328743 
L 76.015817 288.030734 
L 75.742931 287.732725 
L 75.742931 288.030734 
L 75.470045 288.030734 
L 75.742931 287.434716 
L 76.015817 287.136707 
L 76.288703 287.732725 
L 76.838114 288.328743 
L 77.656773 289.821135 
L 77.111 289.523126 
L 76.561589 288.924761 
L 76.288703 287.732725 
L 76.015817 288.030734 
L 75.742931 288.030734 
L 75.470045 287.732725 
L 75.197158 288.030734 
L 75.470045 289.22277 
L 76.015817 289.821135 
L 76.015817 290.119144 
L 75.470045 289.523126 
L 75.197158 288.626752 
L 75.742931 287.434716 
L 76.015817 287.136707 
L 76.288703 287.434716 
L 76.288703 288.328743 
L 76.015817 288.626752 
L 76.015817 288.030734 
L 76.288703 287.732725 
L 75.197158 287.732725 
L 74.651386 288.030734 
L 74.651386 288.328743 
L 74.3785 288.030734 
L 74.3785 287.732725 
L 74.924272 287.434716 
L 74.924272 287.732725 
L 74.651386 288.030734 
L 74.105613 288.030734 
L 74.105613 287.434716 
L 74.651386 287.136707 
L 75.470045 287.434716 
L 75.742931 287.732725 
L 75.470045 288.030734 
L 74.924272 288.328743 
L 74.105613 287.732725 
L 73.832727 286.836351 
L 74.3785 286.538342 
L 74.924272 286.836351 
L 75.197158 287.434716 
L 75.197158 287.434716 
L 75.197158 286.836351 
L 75.470045 286.240333 
L 75.742931 285.942324 
L 75.742931 285.644315 
L 75.197158 286.538342 
L 74.924272 287.434716 
L 74.924272 288.030734 
L 75.197158 287.732725 
L 74.924272 286.836351 
L 74.651386 286.538342 
L 75.197158 287.136707 
L 75.197158 287.732725 
L 75.470045 288.328743 
L 75.742931 288.626752 
L 76.015817 288.328743 
L 76.015817 287.732725 
L 75.470045 286.538342 
L 75.470045 286.538342 
L 75.742931 286.538342 
L 75.742931 286.538342 
L 75.470045 286.240333 
L 75.197158 286.538342 
L 74.924272 286.538342 
L 74.3785 285.942324 
L 74.3785 286.240333 
L 74.924272 286.836351 
L 74.924272 286.836351 
L 74.3785 286.538342 
L 74.3785 286.538342 
L 75.197158 286.240333 
L 76.015817 285.644315 
L 76.288703 285.048297 
L 76.015817 285.346306 
L 74.924272 286.240333 
L 75.470045 285.048297 
L 75.470045 284.750288 
L 74.651386 284.750288 
L 74.651386 285.346306 
L 74.924272 285.942324 
L 74.924272 285.942324 
L 74.924272 285.346306 
L 74.651386 284.452279 
L 74.3785 284.151923 
L 74.651386 284.452279 
L 75.197158 285.346306 
L 75.197158 285.346306 
L 75.197158 283.853914 
L 75.742931 283.257896 
L 76.015817 283.257896 
L 76.561589 283.555905 
L 76.561589 283.555905 
L 75.470045 283.853914 
L 73.832727 283.853914 
L 74.105613 283.555905 
L 74.3785 282.661878 
L 74.924272 282.363869 
L 75.197158 282.06586 
L 75.197158 282.06586 
L 75.470045 282.363869 
L 75.742931 282.363869 
L 75.742931 282.959887 
L 75.470045 282.959887 
L 74.924272 282.661878 
L 74.651386 281.467495 
L 74.3785 280.871477 
L 74.651386 280.275459 
L 74.924272 280.275459 
L 74.924272 280.275459 
L 74.924272 280.573468 
L 74.3785 280.573468 
L 74.3785 279.97745 
L 74.651386 279.679441 
L 74.924272 279.679441 
L 76.561589 280.573468 
L 76.015817 279.97745 
L 75.470045 279.679441 
L 74.924272 279.97745 
L 74.924272 280.275459 
L 74.924272 280.275459 
L 74.651386 280.275459 
L 74.651386 278.485058 
L 74.924272 278.187049 
L 75.197158 278.485058 
L 75.742931 278.783067 
L 76.561589 277.88904 
L 77.383887 277.591031 
L 78.475431 276.694657 
L 80.385635 275.80063 
L 82.568725 275.204612 
L 85.574111 274.906603 
L 88.848746 274.010229 
L 96.496837 271.027792 
L 100.317244 269.237391 
L 104.959948 266.254954 
L 110.694197 262.974508 
L 116.974218 260.29008 
L 123.527126 257.903661 
L 130.352919 255.216886 
L 137.451599 252.234449 
L 151.106825 247.461611 
L 157.659733 244.777183 
L 164.212641 241.794746 
L 171.038434 238.812309 
L 178.410001 236.127881 
L 185.235794 234.039471 
L 191.515816 231.951061 
L 197.795837 230.16066 
L 203.802972 228.968623 
L 210.082994 228.07225 
L 215.544356 226.880214 
L 220.459947 224.791804 
L 225.648423 222.405385 
L 230.833261 220.316975 
L 241.210214 216.738519 
L 245.580032 214.650109 
L 249.676964 212.5617 
L 253.497371 210.771299 
L 260.868937 207.788862 
L 264.14721 205.998461 
L 269.881459 203.910051 
L 272.883207 201.821641 
L 274.247638 201.523632 
L 275.342822 201.523632 
L 275.888594 201.225623 
L 275.069935 201.225623 
L 272.610321 202.11965 
L 269.881459 202.11965 
L 268.517028 202.420005 
L 267.967617 202.420005 
L 266.876072 202.11965 
L 266.057413 202.11965 
L 265.784527 202.718014 
L 265.784527 203.612042 
L 265.511641 204.506069 
L 264.692982 205.402443 
L 264.14721 205.104433 
L 264.692982 203.612042 
L 264.965869 203.910051 
L 265.238755 203.910051 
L 265.238755 205.104433 
L 265.511641 205.700452 
L 265.511641 205.998461 
L 265.238755 206.29647 
L 264.692982 205.998461 
L 264.420096 205.402443 
L 264.14721 205.402443 
L 264.420096 205.700452 
L 264.420096 205.700452 
L 264.420096 205.104433 
L 264.14721 204.806424 
L 263.874324 205.104433 
L 262.782779 205.104433 
L 262.237006 204.806424 
L 262.237006 204.506069 
L 262.237006 204.506069 
L 262.509893 204.506069 
L 262.782779 203.910051 
L 262.782779 203.314033 
L 262.509893 203.314033 
L 262.237006 203.612042 
L 262.782779 203.612042 
L 262.782779 204.806424 
L 262.509893 205.402443 
L 261.960482 204.806424 
L 261.141823 203.612042 
L 261.414709 203.612042 
L 261.960482 204.806424 
L 261.960482 204.806424 
L 262.509893 203.612042 
L 261.960482 203.910051 
L 261.414709 203.910051 
L 261.414709 203.612042 
L 261.414709 203.612042 
L 261.960482 204.20806 
L 261.687595 204.20806 
L 261.687595 203.910051 
L 261.960482 203.910051 
L 261.687595 203.612042 
L 261.141823 203.910051 
L 261.414709 203.612042 
L 261.687595 203.612042 
L 261.414709 203.612042 
L 261.141823 203.314033 
L 261.687595 202.718014 
L 265.238755 202.11965 
L 269.608573 202.11965 
L 272.064549 201.523632 
L 274.797049 200.629605 
L 277.798797 199.435222 
L 298.003293 193.172338 
L 303.464655 191.977956 
L 309.198904 190.48791 
L 315.478926 189.293528 
L 321.213175 187.503127 
L 332.681672 184.52069 
L 338.143035 183.626662 
L 343.604398 182.134271 
L 348.792874 180.045861 
L 353.43194 177.659442 
L 357.801758 176.169396 
L 362.171576 175.871387 
L 369.816028 174.677005 
L 373.91296 173.782977 
L 377.46048 172.886604 
L 380.192981 171.992576 
L 382.103185 171.694567 
L 383.467616 171.992576 
L 385.104933 171.992576 
L 386.200116 171.694567 
L 387.837434 170.500185 
L 390.020523 170.500185 
L 388.928978 170.80054 
L 388.383206 171.098549 
L 388.383206 171.396558 
L 387.564547 171.396558 
L 386.200116 171.694567 
L 386.200116 171.396558 
L 384.55916 173.186959 
L 383.194729 173.782977 
L 382.921843 174.378995 
L 382.921843 176.467405 
L 382.921843 176.467405 
L 382.376071 176.169396 
L 381.830298 175.573378 
L 381.557412 175.573378 
L 381.557412 176.765414 
L 381.01164 177.957451 
L 381.01164 179.151833 
L 381.284526 179.151833 
L 381.557412 178.555815 
L 381.830298 177.659442 
L 381.557412 177.957451 
L 379.920095 179.151833 
L 379.647209 179.747852 
L 380.192981 180.34387 
L 381.01164 180.34387 
L 381.01164 179.747852 
L 379.920095 179.747852 
L 379.920095 179.151833 
L 380.192981 178.853824 
L 379.647209 179.151833 
L 379.370684 179.449843 
L 379.920095 180.644225 
L 379.097798 180.644225 
L 379.097798 179.747852 
L 379.097798 180.34387 
L 378.824912 180.045861 
L 378.824912 180.942234 
L 378.552025 181.240243 
L 378.824912 180.942234 
L 379.097798 180.942234 
L 379.097798 181.240243 
L 379.370684 181.538252 
L 379.097798 181.538252 
L 378.824912 181.836262 
L 378.279139 181.836262 
L 377.733367 182.134271 
L 377.46048 182.43228 
L 377.733367 182.43228 
L 377.733367 181.538252 
L 378.006253 181.538252 
L 379.097798 182.730289 
L 378.824912 182.730289 
L 377.733367 181.836262 
L 378.279139 182.43228 
L 378.552025 183.328653 
L 378.006253 183.328653 
L 378.006253 182.730289 
L 378.552025 182.43228 
L 378.552025 182.730289 
L 378.006253 183.030644 
L 377.187594 183.924671 
L 377.46048 183.626662 
L 376.914708 182.134271 
L 376.641822 182.134271 
L 376.368936 182.43228 
L 376.641822 182.730289 
L 377.46048 184.222681 
L 377.733367 183.924671 
L 377.733367 183.924671 
L 377.187594 183.924671 
L 376.641822 183.626662 
L 376.641822 183.328653 
L 377.187594 183.626662 
L 376.641822 184.52069 
L 375.550277 185.116708 
L 375.277391 185.417063 
L 375.550277 184.52069 
L 376.368936 183.924671 
L 376.641822 183.924671 
L 376.641822 184.222681 
L 375.823163 184.222681 
L 376.096049 183.924671 
L 375.823163 184.222681 
L 375.550277 183.924671 
L 375.823163 183.626662 
L 375.550277 183.328653 
L 375.004505 183.328653 
L 375.550277 183.328653 
L 376.914708 184.222681 
L 376.368936 183.328653 
L 375.277391 182.134271 
L 375.277391 181.538252 
L 375.550277 181.836262 
L 375.823163 182.43228 
L 375.823163 182.134271 
L 376.096049 181.836262 
L 376.096049 181.538252 
L 376.368936 180.942234 
L 376.096049 181.240243 
L 375.550277 181.538252 
L 375.277391 181.836262 
L 375.004505 181.836262 
L 374.458732 182.43228 
L 373.91296 182.730289 
L 373.91296 182.730289 
L 374.185846 182.730289 
L 375.004505 182.43228 
L 375.004505 182.43228 
L 374.185846 182.43228 
L 375.277391 182.43228 
L 375.550277 182.730289 
L 375.277391 183.030644 
L 375.004505 182.730289 
L 375.277391 182.134271 
L 375.004505 181.836262 
L 374.458732 182.134271 
L 374.458732 182.134271 
L 375.004505 182.134271 
L 375.277391 182.43228 
L 374.185846 183.030644 
L 374.185846 182.43228 
L 374.458732 181.836262 
L 374.731618 182.134271 
L 374.731618 182.43228 
L 374.458732 182.43228 
L 374.185846 182.134271 
L 374.185846 181.836262 
L 374.185846 182.134271 
L 373.91296 182.730289 
L 374.458732 183.030644 
L 375.004505 182.730289 
L 375.550277 182.730289 
L 374.731618 182.730289 
L 374.731618 182.43228 
L 374.731618 182.43228 
L 373.640074 182.43228 
L 373.367187 183.030644 
L 373.640074 183.328653 
L 373.91296 183.328653 
L 374.185846 183.030644 
L 374.185846 183.030644 
L 373.91296 183.030644 
L 373.91296 182.43228 
L 374.731618 182.730289 
L 375.277391 183.328653 
L 375.277391 182.730289 
L 375.004505 182.43228 
L 374.731618 182.43228 
L 374.185846 183.030644 
L 374.185846 182.730289 
L 374.185846 183.030644 
L 374.458732 183.328653 
L 374.458732 183.328653 
L 374.731618 182.730289 
L 374.458732 182.43228 
L 374.458732 182.43228 
L 374.731618 183.030644 
L 375.277391 183.626662 
L 375.004505 183.626662 
L 374.458732 183.328653 
L 373.640074 182.730289 
L 372.817776 182.730289 
L 373.090663 183.328653 
L 373.91296 183.924671 
L 373.91296 184.222681 
L 373.640074 183.626662 
L 373.91296 182.730289 
L 374.185846 182.730289 
L 374.458732 183.626662 
L 374.185846 184.222681 
L 373.91296 183.924671 
L 373.91296 183.328653 
L 374.185846 183.030644 
L 373.91296 182.730289 
L 373.640074 183.328653 
L 373.367187 183.626662 
L 373.640074 183.328653 
L 373.640074 183.030644 
L 373.367187 182.730289 
L 372.817776 182.730289 
L 372.817776 182.730289 
L 373.090663 182.43228 
L 373.090663 182.43228 
L 372.54489 182.43228 
L 371.726232 181.836262 
L 370.634687 180.644225 
L 369.270256 180.045861 
L 367.360052 179.747852 
L 365.173324 178.853824 
L 360.257734 177.659442 
L 354.250599 176.467405 
L 350.703078 175.573378 
L 346.879032 174.975014 
L 341.144783 174.975014 
L 338.415921 174.378995 
L 335.410534 173.484968 
L 328.857627 172.886604 
L 326.401651 172.886604 
L 324.218561 173.484968 
L 320.12163 172.886604 
L 317.665654 172.886604 
L 314.660267 173.484968 
L 311.931405 174.677005 
L 309.47179 175.273023 
L 306.742928 175.573378 
L 303.737541 175.573378 
L 298.276179 176.169396 
L 295.820203 176.765414 
L 293.909999 177.063424 
L 291.723271 177.063424 
L 288.17575 176.467405 
L 285.170364 177.063424 
L 284.351705 177.659442 
L 282.987274 178.257806 
L 282.441502 178.853824 
L 282.168615 178.555815 
L 282.168615 178.555815 
L 282.168615 178.853824 
L 282.441502 179.449843 
L 282.441502 179.747852 
L 282.714388 180.045861 
L 284.624591 180.644225 
L 285.170364 181.240243 
L 284.897477 181.836262 
L 284.897477 181.836262 
L 284.624591 181.836262 
L 284.624591 182.134271 
L 284.078819 182.730289 
L 283.533046 182.730289 
L 283.533046 181.538252 
L 284.078819 181.836262 
L 284.351705 182.134271 
L 284.351705 181.836262 
L 284.078819 181.836262 
L 282.987274 182.43228 
L 282.441502 181.836262 
L 282.714388 181.836262 
L 283.533046 182.134271 
L 283.533046 182.43228 
L 282.714388 182.43228 
L 282.441502 182.134271 
L 282.714388 181.240243 
L 282.987274 181.538252 
L 282.987274 182.730289 
L 282.714388 182.134271 
L 282.714388 182.134271 
L 282.168615 182.134271 
L 281.895729 181.538252 
L 281.622843 181.240243 
L 281.622843 181.836262 
L 282.168615 182.134271 
L 282.987274 181.836262 
L 283.26016 181.240243 
L 282.714388 181.538252 
L 281.895729 182.43228 
L 281.895729 183.328653 
L 282.987274 182.43228 
L 283.805933 182.134271 
L 283.805933 182.43228 
L 283.26016 182.730289 
L 282.168615 182.43228 
L 281.622843 182.134271 
L 281.349957 182.134271 
L 281.895729 182.134271 
L 282.441502 182.730289 
L 282.441502 183.030644 
L 282.714388 183.030644 
L 282.441502 183.030644 
L 281.895729 182.43228 
L 281.622843 182.43228 
L 281.895729 182.730289 
L 281.622843 183.030644 
L 281.07707 182.730289 
L 280.52766 182.730289 
L 281.07707 182.730289 
L 281.622843 182.43228 
L 281.622843 182.43228 
L 281.622843 183.030644 
L 281.622843 183.030644 
L 281.07707 182.43228 
L 281.07707 182.43228 
L 281.07707 182.730289 
L 281.622843 182.730289 
L 281.622843 183.030644 
L 281.07707 183.328653 
L 280.804184 183.626662 
L 280.52766 183.626662 
L 280.52766 183.328653 
L 281.07707 183.030644 
L 281.07707 183.626662 
L 281.349957 183.328653 
L 281.349957 182.730289 
L 281.07707 182.730289 
L 280.804184 183.030644 
L 280.804184 183.328653 
L 280.52766 183.030644 
L 280.52766 183.030644 
L 280.52766 183.626662 
L 280.804184 184.222681 
L 281.07707 183.328653 
L 280.804184 182.43228 
L 281.07707 182.43228 
L 281.349957 183.030644 
L 281.07707 183.030644 
L 280.254773 182.134271 
L 280.52766 181.836262 
L 281.895729 183.328653 
L 281.895729 183.626662 
L 281.622843 182.730289 
L 281.349957 182.43228 
L 280.804184 182.43228 
L 280.52766 183.030644 
L 280.52766 182.43228 
L 280.52766 182.730289 
L 281.07707 182.730289 
L 281.07707 182.730289 
L 280.52766 182.134271 
L 280.804184 182.134271 
L 281.349957 182.43228 
L 282.441502 182.730289 
L 282.168615 182.730289 
L 281.07707 183.924671 
L 280.804184 183.626662 
L 280.804184 182.730289 
L 281.07707 182.43228 
L 281.349957 182.43228 
L 281.622843 182.730289 
L 281.622843 183.030644 
L 281.622843 182.730289 
L 281.895729 182.134271 
L 281.895729 181.538252 
L 281.622843 181.836262 
L 281.622843 182.134271 
L 281.349957 182.134271 
L 281.07707 181.836262 
L 281.895729 181.836262 
L 281.895729 181.538252 
L 281.622843 181.538252 
L 281.895729 181.538252 
L 281.895729 180.942234 
L 281.07707 179.747852 
L 281.622843 180.644225 
L 281.622843 180.045861 
L 281.07707 179.151833 
L 280.804184 178.257806 
L 280.804184 176.169396 
L 279.981887 174.080986 
L 279.436115 171.694567 
L 279.436115 166.921729 
L 278.34457 160.6565 
L 278.071684 157.078044 
L 277.253025 153.199233 
L 276.707253 149.02476 
L 276.16148 139.777093 
L 276.16148 127.546989 
L 276.434366 123.966187 
L 276.434366 120.089723 
L 276.16148 116.508921 
L 276.16148 112.332101 
L 276.707253 104.874835 
L 277.253025 101.892398 
L 278.071684 98.313943 
L 279.163229 94.733141 
L 279.709001 91.750704 
L 280.254773 86.977866 
L 280.254773 83.397064 
L 280.52766 79.222591 
L 281.622843 75.641789 
L 282.714388 72.957361 
L 282.987274 70.570942 
L 282.987274 65.798104 
L 283.26016 63.709694 
L 283.533046 62.517658 
L 284.078819 61.621284 
L 284.351705 60.131239 
L 284.351705 58.042829 
L 284.078819 56.848446 
L 284.078819 56.550437 
L 283.533046 55.954419 
L 282.987274 55.060392 
L 282.987274 54.164018 
L 282.441502 53.568 
L 281.895729 53.866009 
L 281.622843 55.060392 
L 281.07707 55.65641 
L 279.436115 56.252428 
L 279.436115 57.148802 
L 279.709001 57.74482 
L 279.436115 57.148802 
L 278.890342 56.848446 
L 278.617456 56.848446 
L 278.071684 57.446811 
L 276.707253 57.446811 
L 277.253025 57.446811 
L 277.798797 57.148802 
L 277.253025 56.848446 
L 276.16148 56.848446 
L 275.888594 57.148802 
L 275.342822 57.446811 
L 275.342822 57.74482 
L 275.615708 57.74482 
L 275.342822 57.74482 
L 275.342822 58.042829 
L 275.342822 55.954419 
L 275.615708 56.252428 
L 275.342822 57.446811 
L 274.797049 58.638847 
L 274.797049 58.936856 
L 275.069935 58.638847 
L 274.797049 58.042829 
L 274.247638 57.74482 
L 274.247638 57.74482 
L 274.247638 58.042829 
L 274.797049 60.131239 
L 273.701866 60.727257 
L 273.42898 59.83323 
L 273.974752 59.234865 
L 273.974752 59.234865 
L 273.42898 59.535221 
L 273.42898 59.535221 
L 273.701866 59.535221 
L 273.974752 60.131239 
L 273.974752 60.429248 
L 273.42898 60.727257 
L 273.42898 61.323275 
L 273.42898 61.323275 
L 273.701866 61.025266 
L 273.974752 61.323275 
L 274.247638 61.323275 
L 273.42898 62.219649 
L 272.883207 61.92164 
L 272.883207 61.621284 
L 273.156093 61.323275 
L 272.610321 61.323275 
L 272.610321 61.025266 
L 272.337435 61.323275 
L 272.337435 61.92164 
L 272.064549 62.815667 
L 272.064549 62.815667 
L 272.337435 62.517658 
L 272.337435 63.709694 
L 272.064549 63.709694 
L 272.064549 63.411685 
L 271.24589 64.308059 
L 270.973004 64.904077 
L 271.518776 65.202086 
L 271.518776 65.202086 
L 271.518776 64.904077 
L 271.24589 64.308059 
L 271.24589 64.007703 
L 271.791662 64.308059 
L 272.064549 64.606068 
L 272.337435 65.202086 
L 271.518776 65.202086 
L 271.791662 65.202086 
L 270.973004 65.500095 
L 270.973004 65.202086 
L 271.518776 65.202086 
L 272.064549 65.500095 
L 271.791662 65.500095 
L 271.791662 65.798104 
L 271.24589 65.798104 
L 270.700117 65.500095 
L 270.973004 65.202086 
L 271.518776 64.904077 
L 271.518776 64.904077 
L 271.24589 64.904077 
L 270.427231 65.798104 
L 270.427231 66.694478 
L 270.700117 66.992487 
L 270.427231 66.394122 
L 270.427231 66.096113 
L 270.427231 67.886514 
L 270.154345 68.482532 
L 269.608573 68.482532 
L 269.608573 68.482532 
L 270.154345 66.694478 
L 270.154345 66.992487 
L 270.154345 67.886514 
L 270.427231 67.886514 
L 270.427231 67.588505 
L 270.154345 66.992487 
L 269.881459 67.290496 
L 269.608573 67.886514 
L 269.335686 69.07855 
L 269.335686 68.482532 
L 269.335686 67.886514 
L 269.0628 68.184523 
L 268.517028 69.07855 
L 268.789914 69.07855 
L 269.335686 68.780541 
L 269.881459 68.780541 
L 269.881459 68.780541 
L 269.881459 69.07855 
L 269.0628 70.570942 
L 269.0628 70.570942 
L 269.0628 68.780541 
L 269.0628 68.780541 
L 268.244142 70.272933 
L 268.517028 70.272933 
L 268.517028 69.676915 
L 268.244142 69.07855 
L 267.694731 69.378906 
L 267.694731 70.272933 
L 267.967617 70.272933 
L 268.244142 69.974924 
L 268.244142 69.974924 
L 267.967617 69.974924 
L 267.694731 70.570942 
L 267.967617 71.16696 
L 267.967617 69.974924 
L 268.244142 69.974924 
L 268.517028 70.868951 
L 267.967617 72.361343 
L 268.244142 72.361343 
L 269.335686 71.765325 
L 268.789914 70.570942 
L 268.789914 70.868951 
L 268.517028 71.464969 
L 268.244142 71.16696 
L 268.789914 70.272933 
L 269.0628 70.272933 
L 269.335686 70.570942 
L 269.0628 70.868951 
L 268.517028 70.868951 
L 268.517028 70.570942 
L 267.967617 70.272933 
L 267.694731 70.868951 
L 267.967617 71.464969 
L 268.244142 71.464969 
L 267.967617 71.16696 
L 267.421844 71.464969 
L 267.148958 72.063334 
L 266.876072 72.361343 
L 266.876072 72.063334 
L 268.244142 72.063334 
L 268.244142 71.765325 
L 267.694731 71.16696 
L 267.148958 70.868951 
L 266.876072 70.868951 
L 266.876072 70.570942 
L 267.148958 70.570942 
L 267.148958 70.868951 
L 266.3303 70.868951 
L 267.148958 70.868951 
L 267.694731 71.464969 
L 267.694731 71.765325 
L 267.148958 71.765325 
L 266.3303 71.464969 
L 266.3303 71.16696 
L 266.876072 71.765325 
L 266.603186 71.464969 
L 266.3303 71.464969 
L 266.3303 72.659352 
L 266.876072 72.361343 
L 267.694731 72.063334 
L 267.694731 72.063334 
L 267.421844 72.361343 
L 267.148958 72.957361 
L 266.603186 72.957361 
L 266.3303 72.659352 
L 266.3303 72.063334 
L 266.603186 71.464969 
L 266.603186 71.16696 
L 267.148958 70.868951 
L 267.421844 71.16696 
L 267.421844 71.464969 
L 268.244142 71.765325 
L 272.064549 71.16696 
L 275.615708 71.16696 
L 279.709001 69.974924 
L 282.168615 69.378906 
L 284.624591 68.482532 
L 287.357092 67.886514 
L 291.996157 67.886514 
L 295.547317 67.290496 
L 299.917135 68.482532 
L 301.827338 68.780541 
L 303.737541 68.780541 
L 309.198904 69.378906 
L 311.931405 69.974924 
L 314.114495 70.570942 
L 319.848743 71.765325 
L 323.123378 72.659352 
L 326.401651 73.851388 
L 329.676286 74.747762 
L 336.778604 75.939798 
L 340.053239 76.836172 
L 342.785739 78.028208 
L 345.241715 79.5206 
L 348.243463 80.712636 
L 351.794623 81.907019 
L 358.074644 83.69742 
L 361.080031 84.293438 
L 368.997369 85.485474 
L 372.54489 85.783483 
L 376.096049 85.783483 
L 379.920095 86.381848 
L 383.194729 87.275875 
L 385.92723 88.169902 
L 388.11032 88.470258 
L 390.839182 89.960303 
L 393.02591 91.750704 
L 395.209 94.137123 
L 397.392089 97.11956 
L 397.937862 98.909961 
L 398.214387 100.700362 
L 398.214387 103.38479 
L 398.487273 104.278817 
L 397.937862 106.367227 
L 397.664976 107.559263 
L 397.664976 108.455637 
L 397.392089 109.647673 
L 396.846317 111.140065 
L 396.573431 112.332101 
L 395.754772 112.63011 
L 394.663227 112.63011 
L 393.298796 113.228475 
L 392.207251 114.420511 
L 391.112068 115.016529 
L 390.566296 116.210912 
L 389.474751 117.402948 
L 388.383206 118.89534 
L 387.018775 120.089723 
L 385.92723 120.387732 
L 385.654344 120.089723 
L 385.92723 119.789367 
L 385.92723 119.193349 
L 385.377819 119.491358 
L 384.286274 121.281759 
L 383.740502 121.877777 
L 383.467616 122.774151 
L 383.740502 123.07216 
L 384.013388 122.476142 
L 383.740502 122.175786 
L 383.194729 122.774151 
L 382.921843 123.966187 
L 382.648957 124.264196 
L 382.921843 124.264196 
L 382.921843 125.756588 
L 382.103185 126.650615 
L 381.830298 127.24898 
L 381.284526 127.844998 
L 380.738754 128.143007 
L 380.465867 128.441016 
L 380.465867 128.143007 
L 380.738754 127.844998 
L 380.738754 127.546989 
L 380.192981 127.844998 
L 379.647209 129.335043 
L 379.647209 129.335043 
L 380.192981 129.037034 
L 380.465867 128.739025 
L 378.824912 128.739025 
L 378.552025 129.037034 
L 378.824912 129.335043 
L 379.370684 129.037034 
L 379.097798 128.739025 
L 378.824912 129.635399 
L 378.824912 131.721462 
L 378.552025 131.423453 
L 378.006253 131.125444 
L 377.733367 131.125444 
L 376.641822 130.529426 
L 376.641822 130.827435 
L 377.187594 132.617836 
L 377.187594 133.213854 
L 376.096049 133.213854 
L 376.914708 133.213854 
L 377.187594 132.915845 
L 376.641822 133.511863 
L 376.368936 133.511863 
L 376.641822 133.809872 
L 376.914708 133.511863 
L 376.368936 133.809872 
L 375.823163 134.405891 
L 375.823163 134.706246 
L 375.823163 134.706246 
L 375.550277 134.706246 
L 375.277391 134.405891 
L 375.277391 134.405891 
L 375.277391 135.302264 
L 375.277391 135.004255 
L 375.004505 134.706246 
L 375.277391 135.302264 
L 375.277391 136.196291 
L 375.004505 136.4943 
L 373.91296 134.706246 
L 373.91296 134.706246 
L 374.185846 135.600273 
L 374.731618 136.196291 
L 374.458732 135.898282 
L 373.91296 135.600273 
L 373.640074 135.302264 
L 372.54489 135.898282 
L 372.54489 136.196291 
L 373.367187 136.196291 
L 373.640074 135.898282 
L 373.090663 135.898282 
L 372.272004 136.196291 
L 372.817776 136.4943 
L 373.367187 136.4943 
L 373.367187 136.4943 
L 372.54489 136.79231 
L 372.54489 137.092665 
L 373.367187 137.390674 
L 373.640074 137.688683 
L 373.090663 137.092665 
L 372.54489 137.390674 
L 371.999118 137.986692 
L 371.726232 137.688683 
L 371.726232 137.390674 
L 370.907573 137.390674 
L 370.907573 137.390674 
L 371.453345 137.986692 
L 371.180459 138.58271 
L 370.907573 138.58271 
L 370.907573 138.284701 
L 371.180459 137.986692 
L 371.726232 137.986692 
L 371.180459 139.178729 
L 370.907573 139.178729 
L 370.907573 138.880719 
L 370.634687 138.58271 
L 370.634687 138.880719 
L 370.907573 139.178729 
L 370.907573 139.178729 
L 370.907573 138.58271 
L 370.3618 139.178729 
L 370.088914 139.178729 
L 370.3618 138.880719 
L 370.634687 138.880719 
L 370.088914 139.479084 
L 369.543142 139.479084 
L 369.543142 139.178729 
L 369.816028 139.178729 
L 370.3618 139.479084 
L 370.634687 139.479084 
L 370.088914 139.178729 
L 369.816028 139.178729 
L 370.3618 137.986692 
L 370.3618 137.986692 
L 369.816028 138.58271 
L 369.270256 138.880719 
L 369.270256 139.479084 
L 368.997369 139.479084 
L 368.724483 138.880719 
L 368.178711 138.284701 
L 368.451597 138.58271 
L 369.270256 138.58271 
L 369.543142 138.284701 
L 369.270256 138.284701 
L 368.724483 138.880719 
L 368.724483 138.880719 
L 368.997369 138.880719 
L 368.724483 138.880719 
L 368.997369 138.58271 
L 369.543142 138.58271 
L 369.543142 138.284701 
L 368.724483 137.986692 
L 367.905825 138.284701 
L 367.632938 138.58271 
L 368.451597 138.880719 
L 368.997369 138.880719 
L 369.270256 139.178729 
L 369.543142 138.880719 
L 369.543142 138.284701 
L 369.543142 138.58271 
L 369.270256 139.178729 
L 369.270256 139.178729 
L 368.997369 138.880719 
L 368.724483 138.880719 
L 368.724483 139.178729 
L 368.997369 139.178729 
L 368.451597 138.58271 
L 368.451597 139.479084 
L 368.178711 140.075102 
L 367.905825 140.075102 
L 367.632938 139.777093 
L 367.360052 139.178729 
L 367.360052 138.58271 
L 367.360052 138.880719 
L 367.632938 138.880719 
L 367.632938 138.58271 
L 367.632938 138.58271 
L 367.905825 138.880719 
L 368.178711 139.479084 
L 367.905825 139.777093 
L 367.360052 139.479084 
L 367.083527 139.479084 
L 367.360052 139.178729 
L 367.360052 138.880719 
L 366.537755 138.880719 
L 365.44621 139.479084 
L 364.627552 139.178729 
L 363.536007 138.58271 
L 362.171576 138.58271 
L 360.257734 139.479084 
L 356.983099 141.267138 
L 354.523485 142.163512 
L 351.521736 142.75953 
L 348.51635 143.057539 
L 346.060374 143.057539 
L 343.331512 144.251922 
L 337.597263 146.039976 
L 335.137648 147.234359 
L 330.225696 150.216796 
L 327.493196 151.411179 
L 324.764334 153.199233 
L 322.304719 154.989634 
L 319.575857 156.482026 
L 316.843357 157.674062 
L 311.381994 158.868445 
L 308.380246 159.762472 
L 305.92427 160.954509 
L 303.737541 161.552873 
L 301.281566 162.4469 
L 298.821951 163.641283 
L 293.091341 165.429338 
L 290.904613 166.62372 
L 288.994409 167.815757 
L 287.084206 168.414121 
L 285.170364 168.71213 
L 283.26016 168.71213 
L 281.349957 169.010139 
L 279.709001 169.010139 
L 278.34457 169.606157 
L 276.16148 171.396558 
L 275.069935 171.694567 
L 274.524163 171.098549 
L 274.247638 170.500185 
L 273.974752 170.500185 
L 273.974752 171.694567 
L 274.797049 172.886604 
L 275.615708 173.484968 
L 276.707253 173.782977 
L 276.434366 173.782977 
L 275.888594 173.782977 
L 274.797049 174.677005 
L 275.069935 175.273023 
L 275.342822 175.273023 
L 275.342822 174.975014 
L 274.797049 174.975014 
L 274.797049 174.975014 
L 274.247638 175.573378 
L 273.974752 175.573378 
L 273.974752 175.273023 
L 273.974752 175.273023 
L 274.247638 175.871387 
L 274.247638 176.169396 
L 273.42898 176.169396 
L 273.42898 176.467405 
L 273.701866 176.467405 
L 272.883207 176.467405 
L 272.337435 176.169396 
L 272.337435 176.169396 
L 272.337435 176.467405 
L 272.337435 176.169396 
L 272.883207 175.871387 
L 273.42898 175.871387 
L 273.42898 176.169396 
L 272.610321 176.169396 
L 272.064549 176.467405 
L 272.610321 177.063424 
L 272.610321 177.063424 
L 272.337435 177.063424 
L 272.337435 177.361433 
L 272.883207 177.361433 
L 272.610321 177.063424 
L 272.337435 176.467405 
L 272.064549 176.169396 
L 272.337435 176.467405 
L 272.883207 176.169396 
L 272.883207 175.573378 
L 272.610321 175.871387 
L 272.610321 176.169396 
L 272.064549 176.169396 
L 271.791662 176.467405 
L 271.24589 176.467405 
L 271.24589 175.871387 
L 271.518776 175.871387 
L 271.518776 176.169396 
L 271.791662 176.765414 
L 271.518776 176.765414 
L 270.973004 177.957451 
L 270.973004 177.957451 
L 271.518776 177.063424 
L 272.064549 176.765414 
L 272.610321 176.765414 
L 272.610321 177.063424 
L 272.064549 176.765414 
L 271.24589 177.063424 
L 270.973004 177.659442 
L 271.791662 179.151833 
L 272.064549 178.853824 
L 272.064549 178.257806 
L 272.337435 177.957451 
L 272.883207 176.765414 
L 273.42898 177.063424 
L 273.42898 177.361433 
L 273.156093 177.659442 
L 273.156093 177.659442 
L 272.883207 177.063424 
L 272.337435 176.765414 
L 271.791662 177.063424 
L 271.518776 177.659442 
L 271.791662 177.659442 
L 271.518776 177.361433 
L 270.973004 177.361433 
L 271.518776 177.361433 
L 271.518776 176.467405 
L 271.791662 176.169396 
L 271.791662 177.659442 
L 271.24589 178.257806 
L 271.24589 177.957451 
L 271.791662 177.659442 
L 272.883207 178.257806 
L 272.610321 178.555815 
L 272.064549 178.555815 
L 272.064549 177.659442 
L 272.064549 177.957451 
L 271.791662 178.257806 
L 271.518776 177.957451 
L 271.791662 177.361433 
L 271.518776 177.957451 
L 271.518776 178.257806 
L 272.064549 177.957451 
L 272.337435 177.659442 
L 272.064549 177.361433 
L 272.064549 177.063424 
L 271.791662 177.063424 
L 272.337435 177.063424 
L 272.610321 177.361433 
L 271.518776 177.957451 
L 272.337435 177.957451 
L 270.700117 177.957451 
L 270.973004 177.957451 
L 271.518776 177.361433 
L 271.791662 177.361433 
L 271.791662 175.871387 
L 272.064549 175.871387 
L 272.337435 176.169396 
L 272.337435 176.467405 
L 271.791662 176.765414 
L 271.518776 177.063424 
L 271.518776 177.659442 
L 271.518776 177.659442 
L 270.973004 177.659442 
L 271.24589 177.659442 
L 271.791662 177.957451 
L 272.064549 178.257806 
L 271.791662 178.257806 
L 271.791662 178.555815 
L 272.064549 178.555815 
L 272.064549 177.659442 
L 272.064549 177.659442 
L 271.791662 177.659442 
L 271.518776 177.957451 
L 271.24589 178.555815 
L 271.24589 178.555815 
L 271.24589 178.257806 
L 270.973004 177.659442 
L 270.973004 177.957451 
L 271.791662 178.257806 
L 272.064549 178.853824 
L 272.064549 179.151833 
L 271.518776 178.853824 
L 271.24589 178.555815 
L 271.518776 177.957451 
L 271.518776 177.659442 
L 271.791662 177.659442 
L 271.518776 177.361433 
L 272.064549 177.063424 
L 272.610321 177.063424 
L 272.337435 177.063424 
L 272.064549 177.361433 
L 272.064549 178.257806 
L 271.518776 178.257806 
L 271.24589 177.957451 
L 271.24589 176.765414 
L 271.791662 177.063424 
L 272.337435 176.765414 
L 271.791662 176.169396 
L 271.24589 175.871387 
L 270.973004 176.169396 
L 270.973004 176.765414 
L 271.791662 177.659442 
L 272.064549 177.659442 
L 272.064549 177.361433 
L 271.518776 177.063424 
L 271.518776 177.361433 
L 271.791662 177.957451 
L 272.064549 178.257806 
L 272.064549 178.555815 
L 271.791662 178.257806 
L 271.24589 177.957451 
L 271.518776 177.361433 
L 272.337435 176.765414 
L 273.156093 177.063424 
L 273.42898 177.957451 
L 272.883207 178.257806 
L 272.064549 178.257806 
L 271.24589 178.555815 
L 271.24589 178.853824 
L 271.791662 179.151833 
L 271.791662 178.555815 
L 271.518776 178.257806 
L 271.24589 178.257806 
L 270.973004 178.555815 
L 270.973004 178.257806 
L 271.24589 177.659442 
L 271.518776 177.361433 
L 271.518776 177.659442 
L 271.791662 177.957451 
L 272.064549 177.659442 
L 272.064549 177.063424 
L 271.791662 177.361433 
L 271.518776 178.257806 
L 271.24589 178.555815 
L 271.791662 178.257806 
L 272.064549 178.257806 
L 272.064549 178.555815 
L 271.791662 178.555815 
L 271.24589 178.257806 
L 271.24589 177.957451 
L 271.518776 177.659442 
L 272.064549 177.957451 
L 272.064549 177.957451 
L 271.791662 177.957451 
L 271.791662 177.361433 
L 272.064549 177.063424 
L 272.337435 177.659442 
L 272.337435 178.257806 
L 272.064549 178.555815 
L 271.791662 178.257806 
L 271.791662 178.257806 
L 272.064549 178.257806 
L 272.337435 178.555815 
L 272.610321 178.555815 
L 272.610321 177.659442 
L 272.337435 177.957451 
L 271.791662 178.257806 
L 271.518776 177.957451 
L 271.791662 177.957451 
L 272.337435 178.257806 
L 272.337435 178.853824 
L 271.791662 180.045861 
L 271.791662 180.045861 
L 272.064549 180.045861 
L 273.701866 179.449843 
L 274.524163 178.853824 
L 276.16148 178.555815 
L 282.441502 177.957451 
L 290.631726 177.361433 
L 299.371362 174.975014 
L 304.283314 174.677005 
L 309.198904 174.677005 
L 323.396264 171.992576 
L 337.597263 171.098549 
L 350.703078 169.308148 
L 354.523485 168.71213 
L 358.34753 167.815757 
L 362.171576 167.517748 
L 369.543142 167.517748 
L 380.738754 166.62372 
L 382.921843 166.325711 
L 387.018775 164.53531 
L 390.839182 163.939292 
L 392.753024 163.340928 
L 396.027658 162.74491 
L 395.481886 163.340928 
L 395.209 163.340928 
L 395.209 163.042919 
L 394.936113 162.74491 
L 394.936113 162.74491 
L 394.936113 163.042919 
L 394.663227 163.939292 
L 393.02591 163.939292 
L 391.934365 165.131329 
L 390.839182 166.027702 
L 390.566296 165.429338 
L 390.293409 165.131329 
L 390.293409 164.833319 
L 390.020523 164.833319 
L 390.020523 165.131329 
L 390.293409 165.429338 
L 390.839182 165.131329 
L 391.384954 165.429338 
L 391.384954 166.027702 
L 390.839182 167.517748 
L 391.112068 167.815757 
L 390.839182 167.815757 
L 390.566296 167.219738 
L 390.566296 166.325711 
L 390.293409 166.027702 
L 390.020523 166.027702 
L 389.747637 166.325711 
L 390.020523 166.027702 
L 390.293409 166.027702 
L 390.020523 166.027702 
L 389.474751 166.325711 
L 388.928978 166.325711 
L 388.928978 166.325711 
L 389.474751 166.027702 
L 389.474751 165.727347 
L 388.928978 166.027702 
L 388.928978 166.027702 
L 388.383206 165.429338 
L 388.11032 164.237301 
L 388.11032 164.237301 
L 388.11032 163.939292 
L 388.11032 165.131329 
L 388.11032 165.131329 
L 388.383206 164.53531 
L 389.201865 163.340928 
L 389.201865 164.833319 
L 388.656092 164.833319 
L 388.11032 164.53531 
L 388.11032 164.237301 
L 388.656092 163.939292 
L 388.656092 163.042919 
L 388.656092 163.340928 
L 388.928978 163.641283 
L 388.928978 164.53531 
L 388.928978 164.237301 
L 388.383206 164.237301 
L 388.383206 165.131329 
L 388.383206 164.833319 
L 388.11032 164.237301 
L 388.11032 164.237301 
L 387.837434 164.237301 
L 387.291661 163.939292 
L 387.837434 163.340928 
L 387.837434 163.042919 
L 387.837434 163.042919 
L 387.291661 163.042919 
L 387.291661 163.340928 
L 387.291661 163.042919 
L 387.018775 163.042919 
L 387.018775 162.148891 
L 387.291661 162.148891 
L 387.018775 162.4469 
L 386.473002 162.74491 
L 386.473002 162.4469 
L 387.018775 162.148891 
L 387.291661 161.850882 
L 387.291661 162.148891 
L 386.745889 162.4469 
L 386.473002 162.4469 
L 386.745889 162.148891 
L 387.018775 161.254864 
L 387.291661 160.954509 
L 386.745889 161.552873 
L 386.200116 161.850882 
L 386.200116 162.4469 
L 387.018775 163.042919 
L 387.291661 163.641283 
L 387.018775 163.340928 
L 387.018775 163.042919 
L 387.018775 163.042919 
L 387.291661 163.042919 
L 387.291661 162.74491 
L 386.745889 162.148891 
L 386.200116 161.850882 
L 386.200116 161.850882 
L 386.745889 161.552873 
L 387.291661 161.850882 
L 387.291661 162.4469 
L 387.018775 161.850882 
L 387.564547 161.254864 
L 387.837434 161.254864 
L 387.291661 162.148891 
L 386.473002 162.148891 
L 387.018775 162.148891 
L 387.018775 161.850882 
L 387.291661 161.552873 
L 388.11032 160.954509 
L 388.11032 160.6565 
L 387.837434 160.954509 
L 387.291661 160.954509 
L 387.018775 160.358491 
L 386.745889 160.060481 
L 386.473002 160.358491 
L 386.473002 160.6565 
L 386.200116 160.954509 
L 386.200116 161.254864 
L 386.473002 161.254864 
L 386.473002 160.954509 
L 385.654344 160.060481 
L 385.654344 160.060481 
L 386.745889 160.358491 
L 387.291661 160.954509 
L 387.291661 160.6565 
L 386.745889 160.358491 
L 386.473002 160.060481 
L 386.745889 160.060481 
L 386.745889 160.358491 
L 386.473002 160.954509 
L 386.473002 161.552873 
L 387.291661 161.850882 
L 387.837434 161.850882 
L 387.564547 161.552873 
L 387.018775 161.552873 
L 386.473002 161.850882 
L 386.200116 161.850882 
L 385.92723 161.254864 
L 385.92723 160.954509 
L 386.473002 160.6565 
L 387.018775 160.6565 
L 388.11032 160.060481 
L 388.11032 159.762472 
L 387.564547 160.060481 
L 387.291661 160.060481 
L 387.291661 160.060481 
L 387.291661 159.762472 
L 387.018775 159.762472 
L 386.473002 159.464463 
L 386.200116 159.762472 
L 386.473002 160.358491 
L 387.018775 160.358491 
L 387.018775 160.060481 
L 386.473002 160.358491 
L 385.92723 160.954509 
L 385.92723 161.552873 
L 386.473002 161.552873 
L 386.745889 160.954509 
L 386.745889 160.358491 
L 386.473002 160.358491 
L 386.200116 160.6565 
L 386.473002 160.6565 
L 387.018775 160.060481 
L 387.018775 159.464463 
L 387.291661 159.166454 
L 387.291661 158.868445 
L 387.291661 159.166454 
L 387.018775 159.464463 
L 387.018775 159.464463 
L 386.473002 158.868445 
L 385.654344 158.56809 
L 385.377819 158.868445 
L 385.654344 159.464463 
L 386.473002 159.762472 
L 387.018775 159.762472 
L 387.018775 160.060481 
L 386.473002 159.762472 
L 386.200116 159.762472 
L 387.291661 159.762472 
L 387.291661 159.166454 
L 386.473002 158.56809 
L 385.92723 158.56809 
L 385.92723 158.270081 
L 385.92723 158.868445 
L 385.654344 159.166454 
L 385.654344 158.868445 
L 385.654344 159.166454 
L 385.92723 159.464463 
L 386.745889 159.464463 
L 387.018775 159.166454 
L 386.473002 158.868445 
L 385.92723 158.868445 
L 385.654344 159.464463 
L 385.654344 159.762472 
L 385.92723 159.464463 
L 386.745889 157.972072 
L 386.473002 158.270081 
L 385.92723 160.060481 
L 385.92723 159.464463 
L 385.654344 158.270081 
L 385.377819 157.972072 
L 386.745889 157.972072 
L 385.654344 157.972072 
L 385.654344 158.868445 
L 385.377819 158.868445 
L 385.377819 158.270081 
L 385.377819 158.56809 
L 385.654344 158.56809 
L 385.92723 159.166454 
L 385.654344 159.464463 
L 385.104933 159.464463 
L 384.832047 159.166454 
L 385.104933 159.464463 
L 385.104933 160.358491 
L 385.377819 160.358491 
L 385.92723 160.060481 
L 385.92723 159.762472 
L 385.654344 159.464463 
L 385.654344 159.762472 
L 385.92723 160.060481 
L 385.92723 160.954509 
L 385.654344 161.552873 
L 385.654344 160.060481 
L 385.377819 159.762472 
L 384.832047 160.060481 
L 383.740502 160.358491 
L 384.013388 160.6565 
L 384.55916 160.6565 
L 384.286274 160.6565 
L 384.013388 160.358491 
L 383.740502 160.358491 
L 383.740502 160.6565 
L 384.013388 160.954509 
L 384.832047 160.954509 
L 384.55916 161.552873 
L 384.013388 161.850882 
L 384.55916 161.850882 
L 384.55916 161.552873 
L 384.286274 161.552873 
L 384.013388 161.254864 
L 384.55916 160.954509 
L 385.104933 161.254864 
L 384.286274 161.254864 
L 384.286274 160.358491 
L 384.013388 159.762472 
L 384.013388 159.762472 
L 383.740502 160.060481 
L 384.013388 160.6565 
L 384.013388 160.6565 
L 384.013388 160.358491 
L 384.286274 160.060481 
L 384.286274 160.060481 
L 384.013388 159.762472 
L 384.013388 159.762472 
L 384.013388 160.060481 
L 384.286274 160.358491 
L 384.286274 160.060481 
L 383.740502 160.6565 
L 383.740502 161.254864 
L 384.013388 161.850882 
L 384.286274 161.850882 
L 384.832047 160.358491 
L 385.104933 159.762472 
L 385.104933 160.060481 
L 384.832047 160.358491 
L 384.55916 160.954509 
L 384.286274 160.6565 
L 384.286274 160.6565 
L 384.832047 160.060481 
L 384.832047 160.358491 
L 384.55916 160.954509 
L 384.013388 160.358491 
L 383.740502 160.358491 
L 384.013388 160.358491 
L 384.013388 160.6565 
L 383.467616 160.6565 
L 383.194729 160.954509 
L 383.194729 161.254864 
L 383.194729 160.954509 
L 383.467616 160.6565 
L 383.740502 160.954509 
L 383.740502 161.850882 
L 384.013388 162.148891 
L 384.013388 161.850882 
L 384.286274 161.552873 
L 384.286274 161.552873 
" style="fill:none;stroke:#1f77b4;stroke-linecap:square;stroke-width:1.5;"/>
   </g>
   <g id="matplotlib.axis_1">
    <g id="xtick_1">
     <g id="line2d_2">
      <defs>
       <path d="M 0 0 
L 0 3.5 
" id="m32ec070435" style="stroke:#000000;stroke-width:0.8;"/>
      </defs>
      <g>
       <use style="stroke:#000000;stroke-width:0.8;" x="97.78486" xlink:href="#m32ec070435" y="307.584"/>
      </g>
     </g>
     <g id="text_1">
      <!-- −600 -->
      <defs>
       <path d="M 10.59375 35.5 
L 73.1875 35.5 
L 73.1875 27.203125 
L 10.59375 27.203125 
z
" id="DejaVuSans-8722"/>
       <path d="M 33.015625 40.375 
Q 26.375 40.375 22.484375 35.828125 
Q 18.609375 31.296875 18.609375 23.390625 
Q 18.609375 15.53125 22.484375 10.953125 
Q 26.375 6.390625 33.015625 6.390625 
Q 39.65625 6.390625 43.53125 10.953125 
Q 47.40625 15.53125 47.40625 23.390625 
Q 47.40625 31.296875 43.53125 35.828125 
Q 39.65625 40.375 33.015625 40.375 
z
M 52.59375 71.296875 
L 52.59375 62.3125 
Q 48.875 64.0625 45.09375 64.984375 
Q 41.3125 65.921875 37.59375 65.921875 
Q 27.828125 65.921875 22.671875 59.328125 
Q 17.53125 52.734375 16.796875 39.40625 
Q 19.671875 43.65625 24.015625 45.921875 
Q 28.375 48.1875 33.59375 48.1875 
Q 44.578125 48.1875 50.953125 41.515625 
Q 57.328125 34.859375 57.328125 23.390625 
Q 57.328125 12.15625 50.6875 5.359375 
Q 44.046875 -1.421875 33.015625 -1.421875 
Q 20.359375 -1.421875 13.671875 8.265625 
Q 6.984375 17.96875 6.984375 36.375 
Q 6.984375 53.65625 15.1875 63.9375 
Q 23.390625 74.21875 37.203125 74.21875 
Q 40.921875 74.21875 44.703125 73.484375 
Q 48.484375 72.75 52.59375 71.296875 
z
" id="DejaVuSans-54"/>
       <path d="M 31.78125 66.40625 
Q 24.171875 66.40625 20.328125 58.90625 
Q 16.5 51.421875 16.5 36.375 
Q 16.5 21.390625 20.328125 13.890625 
Q 24.171875 6.390625 31.78125 6.390625 
Q 39.453125 6.390625 43.28125 13.890625 
Q 47.125 21.390625 47.125 36.375 
Q 47.125 51.421875 43.28125 58.90625 
Q 39.453125 66.40625 31.78125 66.40625 
z
M 31.78125 74.21875 
Q 44.046875 74.21875 50.515625 64.515625 
Q 56.984375 54.828125 56.984375 36.375 
Q 56.984375 17.96875 50.515625 8.265625 
Q 44.046875 -1.421875 31.78125 -1.421875 
Q 19.53125 -1.421875 13.0625 8.265625 
Q 6.59375 17.96875 6.59375 36.375 
Q 6.59375 54.828125 13.0625 64.515625 
Q 19.53125 74.21875 31.78125 74.21875 
z
" id="DejaVuSans-48"/>
      </defs>
      <g transform="translate(84.051266 322.182437)scale(0.1 -0.1)">
       <use xlink:href="#DejaVuSans-8722"/>
       <use x="83.789062" xlink:href="#DejaVuSans-54"/>
       <use x="147.412109" xlink:href="#DejaVuSans-48"/>
       <use x="211.035156" xlink:href="#DejaVuSans-48"/>
      </g>
     </g>
    </g>
    <g id="xtick_2">
     <g id="line2d_3">
      <g>
       <use style="stroke:#000000;stroke-width:0.8;" x="170.554516" xlink:href="#m32ec070435" y="307.584"/>
      </g>
     </g>
     <g id="text_2">
      <!-- −400 -->
      <defs>
       <path d="M 37.796875 64.3125 
L 12.890625 25.390625 
L 37.796875 25.390625 
z
M 35.203125 72.90625 
L 47.609375 72.90625 
L 47.609375 25.390625 
L 58.015625 25.390625 
L 58.015625 17.1875 
L 47.609375 17.1875 
L 47.609375 0 
L 37.796875 0 
L 37.796875 17.1875 
L 4.890625 17.1875 
L 4.890625 26.703125 
z
" id="DejaVuSans-52"/>
      </defs>
      <g transform="translate(156.820922 322.182437)scale(0.1 -0.1)">
       <use xlink:href="#DejaVuSans-8722"/>
       <use x="83.789062" xlink:href="#DejaVuSans-52"/>
       <use x="147.412109" xlink:href="#DejaVuSans-48"/>
       <use x="211.035156" xlink:href="#DejaVuSans-48"/>
      </g>
     </g>
    </g>
    <g id="xtick_3">
     <g id="line2d_4">
      <g>
       <use style="stroke:#000000;stroke-width:0.8;" x="243.324173" xlink:href="#m32ec070435" y="307.584"/>
      </g>
     </g>
     <g id="text_3">
      <!-- −200 -->
      <defs>
       <path d="M 19.1875 8.296875 
L 53.609375 8.296875 
L 53.609375 0 
L 7.328125 0 
L 7.328125 8.296875 
Q 12.9375 14.109375 22.625 23.890625 
Q 32.328125 33.6875 34.8125 36.53125 
Q 39.546875 41.84375 41.421875 45.53125 
Q 43.3125 49.21875 43.3125 52.78125 
Q 43.3125 58.59375 39.234375 62.25 
Q 35.15625 65.921875 28.609375 65.921875 
Q 23.96875 65.921875 18.8125 64.3125 
Q 13.671875 62.703125 7.8125 59.421875 
L 7.8125 69.390625 
Q 13.765625 71.78125 18.9375 73 
Q 24.125 74.21875 28.421875 74.21875 
Q 39.75 74.21875 46.484375 68.546875 
Q 53.21875 62.890625 53.21875 53.421875 
Q 53.21875 48.921875 51.53125 44.890625 
Q 49.859375 40.875 45.40625 35.40625 
Q 44.1875 33.984375 37.640625 27.21875 
Q 31.109375 20.453125 19.1875 8.296875 
z
" id="DejaVuSans-50"/>
      </defs>
      <g transform="translate(229.590579 322.182437)scale(0.1 -0.1)">
       <use xlink:href="#DejaVuSans-8722"/>
       <use x="83.789062" xlink:href="#DejaVuSans-50"/>
       <use x="147.412109" xlink:href="#DejaVuSans-48"/>
       <use x="211.035156" xlink:href="#DejaVuSans-48"/>
      </g>
     </g>
    </g>
    <g id="xtick_4">
     <g id="line2d_5">
      <g>
       <use style="stroke:#000000;stroke-width:0.8;" x="316.093829" xlink:href="#m32ec070435" y="307.584"/>
      </g>
     </g>
     <g id="text_4">
      <!-- 0 -->
      <g transform="translate(312.912579 322.182437)scale(0.1 -0.1)">
       <use xlink:href="#DejaVuSans-48"/>
      </g>
     </g>
    </g>
    <g id="xtick_5">
     <g id="line2d_6">
      <g>
       <use style="stroke:#000000;stroke-width:0.8;" x="388.863486" xlink:href="#m32ec070435" y="307.584"/>
      </g>
     </g>
     <g id="text_5">
      <!-- 200 -->
      <g transform="translate(379.319736 322.182437)scale(0.1 -0.1)">
       <use xlink:href="#DejaVuSans-50"/>
       <use x="63.623047" xlink:href="#DejaVuSans-48"/>
       <use x="127.246094" xlink:href="#DejaVuSans-48"/>
      </g>
     </g>
    </g>
   </g>
   <g id="matplotlib.axis_2">
    <g id="ytick_1">
     <g id="line2d_7">
      <defs>
       <path d="M 0 0 
L -3.5 0 
" id="m9586b6ecf9" style="stroke:#000000;stroke-width:0.8;"/>
      </defs>
      <g>
       <use style="stroke:#000000;stroke-width:0.8;" x="57.6" xlink:href="#m9586b6ecf9" y="274.005536"/>
      </g>
     </g>
     <g id="text_6">
      <!-- −600 -->
      <g transform="translate(23.132812 277.804755)scale(0.1 -0.1)">
       <use xlink:href="#DejaVuSans-8722"/>
       <use x="83.789062" xlink:href="#DejaVuSans-54"/>
       <use x="147.412109" xlink:href="#DejaVuSans-48"/>
       <use x="211.035156" xlink:href="#DejaVuSans-48"/>
      </g>
     </g>
    </g>
    <g id="ytick_2">
     <g id="line2d_8">
      <g>
       <use style="stroke:#000000;stroke-width:0.8;" x="57.6" xlink:href="#m9586b6ecf9" y="227.074975"/>
      </g>
     </g>
     <g id="text_7">
      <!-- −400 -->
      <g transform="translate(23.132812 230.874194)scale(0.1 -0.1)">
       <use xlink:href="#DejaVuSans-8722"/>
       <use x="83.789062" xlink:href="#DejaVuSans-52"/>
       <use x="147.412109" xlink:href="#DejaVuSans-48"/>
       <use x="211.035156" xlink:href="#DejaVuSans-48"/>
      </g>
     </g>
    </g>
    <g id="ytick_3">
     <g id="line2d_9">
      <g>
       <use style="stroke:#000000;stroke-width:0.8;" x="57.6" xlink:href="#m9586b6ecf9" y="180.144415"/>
      </g>
     </g>
     <g id="text_8">
      <!-- −200 -->
      <g transform="translate(23.132812 183.943634)scale(0.1 -0.1)">
       <use xlink:href="#DejaVuSans-8722"/>
       <use x="83.789062" xlink:href="#DejaVuSans-50"/>
       <use x="147.412109" xlink:href="#DejaVuSans-48"/>
       <use x="211.035156" xlink:href="#DejaVuSans-48"/>
      </g>
     </g>
    </g>
    <g id="ytick_4">
     <g id="line2d_10">
      <g>
       <use style="stroke:#000000;stroke-width:0.8;" x="57.6" xlink:href="#m9586b6ecf9" y="133.213854"/>
      </g>
     </g>
     <g id="text_9">
      <!-- 0 -->
      <g transform="translate(44.2375 137.013073)scale(0.1 -0.1)">
       <use xlink:href="#DejaVuSans-48"/>
      </g>
     </g>
    </g>
    <g id="ytick_5">
     <g id="line2d_11">
      <g>
       <use style="stroke:#000000;stroke-width:0.8;" x="57.6" xlink:href="#m9586b6ecf9" y="86.283294"/>
      </g>
     </g>
     <g id="text_10">
      <!-- 200 -->
      <g transform="translate(31.5125 90.082513)scale(0.1 -0.1)">
       <use xlink:href="#DejaVuSans-50"/>
       <use x="63.623047" xlink:href="#DejaVuSans-48"/>
       <use x="127.246094" xlink:href="#DejaVuSans-48"/>
      </g>
     </g>
    </g>
   </g>
   <g id="line2d_12">
    <path clip-path="url(#p58a91a409d)" d="M 76.920262 287.95985 
L 262.229908 205.270324 
L 372.012644 180.508964 
L 282.094489 179.270923 
L 275.745923 64.050061 
L 277.960047 70.750817 
L 383.401783 119.873974 
L 364.080305 140.115423 
L 276.161333 176.498259 
L 386.739529 161.71705 
" style="fill:none;stroke:#ff0000;stroke-linecap:square;stroke-width:0.5;"/>
   </g>
   <g id="patch_3">
    <path d="M 57.6 307.584 
L 57.6 41.472 
" style="fill:none;stroke:#000000;stroke-linecap:square;stroke-linejoin:miter;stroke-width:0.8;"/>
   </g>
   <g id="patch_4">
    <path d="M 414.72 307.584 
L 414.72 41.472 
" style="fill:none;stroke:#000000;stroke-linecap:square;stroke-linejoin:miter;stroke-width:0.8;"/>
   </g>
   <g id="patch_5">
    <path d="M 57.6 307.584 
L 414.72 307.584 
" style="fill:none;stroke:#000000;stroke-linecap:square;stroke-linejoin:miter;stroke-width:0.8;"/>
   </g>
   <g id="patch_6">
    <path d="M 57.6 41.472 
L 414.72 41.472 
" style="fill:none;stroke:#000000;stroke-linecap:square;stroke-linejoin:miter;stroke-width:0.8;"/>
   </g>
   <g id="PathCollection_1">
    <defs>
     <path d="M 0 2.738613 
C 0.726289 2.738613 1.422928 2.450055 1.936492 1.936492 
C 2.450055 1.422928 2.738613 0.726289 2.738613 0 
C 2.738613 -0.726289 2.450055 -1.422928 1.936492 -1.936492 
C 1.422928 -2.450055 0.726289 -2.738613 0 -2.738613 
C -0.726289 -2.738613 -1.422928 -2.450055 -1.936492 -1.936492 
C -2.450055 -1.422928 -2.738613 -0.726289 -2.738613 0 
C -2.738613 0.726289 -2.450055 1.422928 -1.936492 1.936492 
C -1.422928 2.450055 -0.726289 2.738613 0 2.738613 
z
" id="m471c2d1a3c" style="stroke:#ff0000;"/>
    </defs>
    <g clip-path="url(#p58a91a409d)">
     <use style="fill:#ff0000;stroke:#ff0000;" x="76.920262" xlink:href="#m471c2d1a3c" y="287.95985"/>
     <use style="fill:#ff0000;stroke:#ff0000;" x="262.229908" xlink:href="#m471c2d1a3c" y="205.270324"/>
     <use style="fill:#ff0000;stroke:#ff0000;" x="372.012644" xlink:href="#m471c2d1a3c" y="180.508964"/>
     <use style="fill:#ff0000;stroke:#ff0000;" x="282.094489" xlink:href="#m471c2d1a3c" y="179.270923"/>
     <use style="fill:#ff0000;stroke:#ff0000;" x="275.745923" xlink:href="#m471c2d1a3c" y="64.050061"/>
     <use style="fill:#ff0000;stroke:#ff0000;" x="277.960047" xlink:href="#m471c2d1a3c" y="70.750817"/>
     <use style="fill:#ff0000;stroke:#ff0000;" x="383.401783" xlink:href="#m471c2d1a3c" y="119.873974"/>
     <use style="fill:#ff0000;stroke:#ff0000;" x="364.080305" xlink:href="#m471c2d1a3c" y="140.115423"/>
     <use style="fill:#ff0000;stroke:#ff0000;" x="276.161333" xlink:href="#m471c2d1a3c" y="176.498259"/>
     <use style="fill:#ff0000;stroke:#ff0000;" x="386.739529" xlink:href="#m471c2d1a3c" y="161.71705"/>
    </g>
   </g>
   <g id="text_11">
    <!-- (86) Subject: s3, Known = False, Degree = 2, Duration = 0.1 -->
    <defs>
     <path d="M 31 75.875 
Q 24.46875 64.65625 21.28125 53.65625 
Q 18.109375 42.671875 18.109375 31.390625 
Q 18.109375 20.125 21.3125 9.0625 
Q 24.515625 -2 31 -13.1875 
L 23.1875 -13.1875 
Q 15.875 -1.703125 12.234375 9.375 
Q 8.59375 20.453125 8.59375 31.390625 
Q 8.59375 42.28125 12.203125 53.3125 
Q 15.828125 64.359375 23.1875 75.875 
z
" id="DejaVuSans-40"/>
     <path d="M 31.78125 34.625 
Q 24.75 34.625 20.71875 30.859375 
Q 16.703125 27.09375 16.703125 20.515625 
Q 16.703125 13.921875 20.71875 10.15625 
Q 24.75 6.390625 31.78125 6.390625 
Q 38.8125 6.390625 42.859375 10.171875 
Q 46.921875 13.96875 46.921875 20.515625 
Q 46.921875 27.09375 42.890625 30.859375 
Q 38.875 34.625 31.78125 34.625 
z
M 21.921875 38.8125 
Q 15.578125 40.375 12.03125 44.71875 
Q 8.5 49.078125 8.5 55.328125 
Q 8.5 64.0625 14.71875 69.140625 
Q 20.953125 74.21875 31.78125 74.21875 
Q 42.671875 74.21875 48.875 69.140625 
Q 55.078125 64.0625 55.078125 55.328125 
Q 55.078125 49.078125 51.53125 44.71875 
Q 48 40.375 41.703125 38.8125 
Q 48.828125 37.15625 52.796875 32.3125 
Q 56.78125 27.484375 56.78125 20.515625 
Q 56.78125 9.90625 50.3125 4.234375 
Q 43.84375 -1.421875 31.78125 -1.421875 
Q 19.734375 -1.421875 13.25 4.234375 
Q 6.78125 9.90625 6.78125 20.515625 
Q 6.78125 27.484375 10.78125 32.3125 
Q 14.796875 37.15625 21.921875 38.8125 
z
M 18.3125 54.390625 
Q 18.3125 48.734375 21.84375 45.5625 
Q 25.390625 42.390625 31.78125 42.390625 
Q 38.140625 42.390625 41.71875 45.5625 
Q 45.3125 48.734375 45.3125 54.390625 
Q 45.3125 60.0625 41.71875 63.234375 
Q 38.140625 66.40625 31.78125 66.40625 
Q 25.390625 66.40625 21.84375 63.234375 
Q 18.3125 60.0625 18.3125 54.390625 
z
" id="DejaVuSans-56"/>
     <path d="M 8.015625 75.875 
L 15.828125 75.875 
Q 23.140625 64.359375 26.78125 53.3125 
Q 30.421875 42.28125 30.421875 31.390625 
Q 30.421875 20.453125 26.78125 9.375 
Q 23.140625 -1.703125 15.828125 -13.1875 
L 8.015625 -13.1875 
Q 14.5 -2 17.703125 9.0625 
Q 20.90625 20.125 20.90625 31.390625 
Q 20.90625 42.671875 17.703125 53.65625 
Q 14.5 64.65625 8.015625 75.875 
z
" id="DejaVuSans-41"/>
     <path id="DejaVuSans-32"/>
     <path d="M 53.515625 70.515625 
L 53.515625 60.890625 
Q 47.90625 63.578125 42.921875 64.890625 
Q 37.9375 66.21875 33.296875 66.21875 
Q 25.25 66.21875 20.875 63.09375 
Q 16.5 59.96875 16.5 54.203125 
Q 16.5 49.359375 19.40625 46.890625 
Q 22.3125 44.4375 30.421875 42.921875 
L 36.375 41.703125 
Q 47.40625 39.59375 52.65625 34.296875 
Q 57.90625 29 57.90625 20.125 
Q 57.90625 9.515625 50.796875 4.046875 
Q 43.703125 -1.421875 29.984375 -1.421875 
Q 24.8125 -1.421875 18.96875 -0.25 
Q 13.140625 0.921875 6.890625 3.21875 
L 6.890625 13.375 
Q 12.890625 10.015625 18.65625 8.296875 
Q 24.421875 6.59375 29.984375 6.59375 
Q 38.421875 6.59375 43.015625 9.90625 
Q 47.609375 13.234375 47.609375 19.390625 
Q 47.609375 24.75 44.3125 27.78125 
Q 41.015625 30.8125 33.5 32.328125 
L 27.484375 33.5 
Q 16.453125 35.6875 11.515625 40.375 
Q 6.59375 45.0625 6.59375 53.421875 
Q 6.59375 63.09375 13.40625 68.65625 
Q 20.21875 74.21875 32.171875 74.21875 
Q 37.3125 74.21875 42.625 73.28125 
Q 47.953125 72.359375 53.515625 70.515625 
z
" id="DejaVuSans-83"/>
     <path d="M 8.5 21.578125 
L 8.5 54.6875 
L 17.484375 54.6875 
L 17.484375 21.921875 
Q 17.484375 14.15625 20.5 10.265625 
Q 23.53125 6.390625 29.59375 6.390625 
Q 36.859375 6.390625 41.078125 11.03125 
Q 45.3125 15.671875 45.3125 23.6875 
L 45.3125 54.6875 
L 54.296875 54.6875 
L 54.296875 0 
L 45.3125 0 
L 45.3125 8.40625 
Q 42.046875 3.421875 37.71875 1 
Q 33.40625 -1.421875 27.6875 -1.421875 
Q 18.265625 -1.421875 13.375 4.4375 
Q 8.5 10.296875 8.5 21.578125 
z
M 31.109375 56 
z
" id="DejaVuSans-117"/>
     <path d="M 48.6875 27.296875 
Q 48.6875 37.203125 44.609375 42.84375 
Q 40.53125 48.484375 33.40625 48.484375 
Q 26.265625 48.484375 22.1875 42.84375 
Q 18.109375 37.203125 18.109375 27.296875 
Q 18.109375 17.390625 22.1875 11.75 
Q 26.265625 6.109375 33.40625 6.109375 
Q 40.53125 6.109375 44.609375 11.75 
Q 48.6875 17.390625 48.6875 27.296875 
z
M 18.109375 46.390625 
Q 20.953125 51.265625 25.265625 53.625 
Q 29.59375 56 35.59375 56 
Q 45.5625 56 51.78125 48.09375 
Q 58.015625 40.1875 58.015625 27.296875 
Q 58.015625 14.40625 51.78125 6.484375 
Q 45.5625 -1.421875 35.59375 -1.421875 
Q 29.59375 -1.421875 25.265625 0.953125 
Q 20.953125 3.328125 18.109375 8.203125 
L 18.109375 0 
L 9.078125 0 
L 9.078125 75.984375 
L 18.109375 75.984375 
z
" id="DejaVuSans-98"/>
     <path d="M 9.421875 54.6875 
L 18.40625 54.6875 
L 18.40625 -0.984375 
Q 18.40625 -11.421875 14.421875 -16.109375 
Q 10.453125 -20.796875 1.609375 -20.796875 
L -1.8125 -20.796875 
L -1.8125 -13.1875 
L 0.59375 -13.1875 
Q 5.71875 -13.1875 7.5625 -10.8125 
Q 9.421875 -8.453125 9.421875 -0.984375 
z
M 9.421875 75.984375 
L 18.40625 75.984375 
L 18.40625 64.59375 
L 9.421875 64.59375 
z
" id="DejaVuSans-106"/>
     <path d="M 56.203125 29.59375 
L 56.203125 25.203125 
L 14.890625 25.203125 
Q 15.484375 15.921875 20.484375 11.0625 
Q 25.484375 6.203125 34.421875 6.203125 
Q 39.59375 6.203125 44.453125 7.46875 
Q 49.3125 8.734375 54.109375 11.28125 
L 54.109375 2.78125 
Q 49.265625 0.734375 44.1875 -0.34375 
Q 39.109375 -1.421875 33.890625 -1.421875 
Q 20.796875 -1.421875 13.15625 6.1875 
Q 5.515625 13.8125 5.515625 26.8125 
Q 5.515625 40.234375 12.765625 48.109375 
Q 20.015625 56 32.328125 56 
Q 43.359375 56 49.78125 48.890625 
Q 56.203125 41.796875 56.203125 29.59375 
z
M 47.21875 32.234375 
Q 47.125 39.59375 43.09375 43.984375 
Q 39.0625 48.390625 32.421875 48.390625 
Q 24.90625 48.390625 20.390625 44.140625 
Q 15.875 39.890625 15.1875 32.171875 
z
" id="DejaVuSans-101"/>
     <path d="M 48.78125 52.59375 
L 48.78125 44.1875 
Q 44.96875 46.296875 41.140625 47.34375 
Q 37.3125 48.390625 33.40625 48.390625 
Q 24.65625 48.390625 19.8125 42.84375 
Q 14.984375 37.3125 14.984375 27.296875 
Q 14.984375 17.28125 19.8125 11.734375 
Q 24.65625 6.203125 33.40625 6.203125 
Q 37.3125 6.203125 41.140625 7.25 
Q 44.96875 8.296875 48.78125 10.40625 
L 48.78125 2.09375 
Q 45.015625 0.34375 40.984375 -0.53125 
Q 36.96875 -1.421875 32.421875 -1.421875 
Q 20.0625 -1.421875 12.78125 6.34375 
Q 5.515625 14.109375 5.515625 27.296875 
Q 5.515625 40.671875 12.859375 48.328125 
Q 20.21875 56 33.015625 56 
Q 37.15625 56 41.109375 55.140625 
Q 45.0625 54.296875 48.78125 52.59375 
z
" id="DejaVuSans-99"/>
     <path d="M 18.3125 70.21875 
L 18.3125 54.6875 
L 36.8125 54.6875 
L 36.8125 47.703125 
L 18.3125 47.703125 
L 18.3125 18.015625 
Q 18.3125 11.328125 20.140625 9.421875 
Q 21.96875 7.515625 27.59375 7.515625 
L 36.8125 7.515625 
L 36.8125 0 
L 27.59375 0 
Q 17.1875 0 13.234375 3.875 
Q 9.28125 7.765625 9.28125 18.015625 
L 9.28125 47.703125 
L 2.6875 47.703125 
L 2.6875 54.6875 
L 9.28125 54.6875 
L 9.28125 70.21875 
z
" id="DejaVuSans-116"/>
     <path d="M 11.71875 12.40625 
L 22.015625 12.40625 
L 22.015625 0 
L 11.71875 0 
z
M 11.71875 51.703125 
L 22.015625 51.703125 
L 22.015625 39.3125 
L 11.71875 39.3125 
z
" id="DejaVuSans-58"/>
     <path d="M 44.28125 53.078125 
L 44.28125 44.578125 
Q 40.484375 46.53125 36.375 47.5 
Q 32.28125 48.484375 27.875 48.484375 
Q 21.1875 48.484375 17.84375 46.4375 
Q 14.5 44.390625 14.5 40.28125 
Q 14.5 37.15625 16.890625 35.375 
Q 19.28125 33.59375 26.515625 31.984375 
L 29.59375 31.296875 
Q 39.15625 29.25 43.1875 25.515625 
Q 47.21875 21.78125 47.21875 15.09375 
Q 47.21875 7.46875 41.1875 3.015625 
Q 35.15625 -1.421875 24.609375 -1.421875 
Q 20.21875 -1.421875 15.453125 -0.5625 
Q 10.6875 0.296875 5.421875 2 
L 5.421875 11.28125 
Q 10.40625 8.6875 15.234375 7.390625 
Q 20.0625 6.109375 24.8125 6.109375 
Q 31.15625 6.109375 34.5625 8.28125 
Q 37.984375 10.453125 37.984375 14.40625 
Q 37.984375 18.0625 35.515625 20.015625 
Q 33.0625 21.96875 24.703125 23.78125 
L 21.578125 24.515625 
Q 13.234375 26.265625 9.515625 29.90625 
Q 5.8125 33.546875 5.8125 39.890625 
Q 5.8125 47.609375 11.28125 51.796875 
Q 16.75 56 26.8125 56 
Q 31.78125 56 36.171875 55.265625 
Q 40.578125 54.546875 44.28125 53.078125 
z
" id="DejaVuSans-115"/>
     <path d="M 40.578125 39.3125 
Q 47.65625 37.796875 51.625 33 
Q 55.609375 28.21875 55.609375 21.1875 
Q 55.609375 10.40625 48.1875 4.484375 
Q 40.765625 -1.421875 27.09375 -1.421875 
Q 22.515625 -1.421875 17.65625 -0.515625 
Q 12.796875 0.390625 7.625 2.203125 
L 7.625 11.71875 
Q 11.71875 9.328125 16.59375 8.109375 
Q 21.484375 6.890625 26.8125 6.890625 
Q 36.078125 6.890625 40.9375 10.546875 
Q 45.796875 14.203125 45.796875 21.1875 
Q 45.796875 27.640625 41.28125 31.265625 
Q 36.765625 34.90625 28.71875 34.90625 
L 20.21875 34.90625 
L 20.21875 43.015625 
L 29.109375 43.015625 
Q 36.375 43.015625 40.234375 45.921875 
Q 44.09375 48.828125 44.09375 54.296875 
Q 44.09375 59.90625 40.109375 62.90625 
Q 36.140625 65.921875 28.71875 65.921875 
Q 24.65625 65.921875 20.015625 65.03125 
Q 15.375 64.15625 9.8125 62.3125 
L 9.8125 71.09375 
Q 15.4375 72.65625 20.34375 73.4375 
Q 25.25 74.21875 29.59375 74.21875 
Q 40.828125 74.21875 47.359375 69.109375 
Q 53.90625 64.015625 53.90625 55.328125 
Q 53.90625 49.265625 50.4375 45.09375 
Q 46.96875 40.921875 40.578125 39.3125 
z
" id="DejaVuSans-51"/>
     <path d="M 11.71875 12.40625 
L 22.015625 12.40625 
L 22.015625 4 
L 14.015625 -11.625 
L 7.71875 -11.625 
L 11.71875 4 
z
" id="DejaVuSans-44"/>
     <path d="M 9.8125 72.90625 
L 19.671875 72.90625 
L 19.671875 42.09375 
L 52.390625 72.90625 
L 65.09375 72.90625 
L 28.90625 38.921875 
L 67.671875 0 
L 54.6875 0 
L 19.671875 35.109375 
L 19.671875 0 
L 9.8125 0 
z
" id="DejaVuSans-75"/>
     <path d="M 54.890625 33.015625 
L 54.890625 0 
L 45.90625 0 
L 45.90625 32.71875 
Q 45.90625 40.484375 42.875 44.328125 
Q 39.84375 48.1875 33.796875 48.1875 
Q 26.515625 48.1875 22.3125 43.546875 
Q 18.109375 38.921875 18.109375 30.90625 
L 18.109375 0 
L 9.078125 0 
L 9.078125 54.6875 
L 18.109375 54.6875 
L 18.109375 46.1875 
Q 21.34375 51.125 25.703125 53.5625 
Q 30.078125 56 35.796875 56 
Q 45.21875 56 50.046875 50.171875 
Q 54.890625 44.34375 54.890625 33.015625 
z
" id="DejaVuSans-110"/>
     <path d="M 30.609375 48.390625 
Q 23.390625 48.390625 19.1875 42.75 
Q 14.984375 37.109375 14.984375 27.296875 
Q 14.984375 17.484375 19.15625 11.84375 
Q 23.34375 6.203125 30.609375 6.203125 
Q 37.796875 6.203125 41.984375 11.859375 
Q 46.1875 17.53125 46.1875 27.296875 
Q 46.1875 37.015625 41.984375 42.703125 
Q 37.796875 48.390625 30.609375 48.390625 
z
M 30.609375 56 
Q 42.328125 56 49.015625 48.375 
Q 55.71875 40.765625 55.71875 27.296875 
Q 55.71875 13.875 49.015625 6.21875 
Q 42.328125 -1.421875 30.609375 -1.421875 
Q 18.84375 -1.421875 12.171875 6.21875 
Q 5.515625 13.875 5.515625 27.296875 
Q 5.515625 40.765625 12.171875 48.375 
Q 18.84375 56 30.609375 56 
z
" id="DejaVuSans-111"/>
     <path d="M 4.203125 54.6875 
L 13.1875 54.6875 
L 24.421875 12.015625 
L 35.59375 54.6875 
L 46.1875 54.6875 
L 57.421875 12.015625 
L 68.609375 54.6875 
L 77.59375 54.6875 
L 63.28125 0 
L 52.6875 0 
L 40.921875 44.828125 
L 29.109375 0 
L 18.5 0 
z
" id="DejaVuSans-119"/>
     <path d="M 10.59375 45.40625 
L 73.1875 45.40625 
L 73.1875 37.203125 
L 10.59375 37.203125 
z
M 10.59375 25.484375 
L 73.1875 25.484375 
L 73.1875 17.1875 
L 10.59375 17.1875 
z
" id="DejaVuSans-61"/>
     <path d="M 9.8125 72.90625 
L 51.703125 72.90625 
L 51.703125 64.59375 
L 19.671875 64.59375 
L 19.671875 43.109375 
L 48.578125 43.109375 
L 48.578125 34.8125 
L 19.671875 34.8125 
L 19.671875 0 
L 9.8125 0 
z
" id="DejaVuSans-70"/>
     <path d="M 34.28125 27.484375 
Q 23.390625 27.484375 19.1875 25 
Q 14.984375 22.515625 14.984375 16.5 
Q 14.984375 11.71875 18.140625 8.90625 
Q 21.296875 6.109375 26.703125 6.109375 
Q 34.1875 6.109375 38.703125 11.40625 
Q 43.21875 16.703125 43.21875 25.484375 
L 43.21875 27.484375 
z
M 52.203125 31.203125 
L 52.203125 0 
L 43.21875 0 
L 43.21875 8.296875 
Q 40.140625 3.328125 35.546875 0.953125 
Q 30.953125 -1.421875 24.3125 -1.421875 
Q 15.921875 -1.421875 10.953125 3.296875 
Q 6 8.015625 6 15.921875 
Q 6 25.140625 12.171875 29.828125 
Q 18.359375 34.515625 30.609375 34.515625 
L 43.21875 34.515625 
L 43.21875 35.40625 
Q 43.21875 41.609375 39.140625 45 
Q 35.0625 48.390625 27.6875 48.390625 
Q 23 48.390625 18.546875 47.265625 
Q 14.109375 46.140625 10.015625 43.890625 
L 10.015625 52.203125 
Q 14.9375 54.109375 19.578125 55.046875 
Q 24.21875 56 28.609375 56 
Q 40.484375 56 46.34375 49.84375 
Q 52.203125 43.703125 52.203125 31.203125 
z
" id="DejaVuSans-97"/>
     <path d="M 9.421875 75.984375 
L 18.40625 75.984375 
L 18.40625 0 
L 9.421875 0 
z
" id="DejaVuSans-108"/>
     <path d="M 19.671875 64.796875 
L 19.671875 8.109375 
L 31.59375 8.109375 
Q 46.6875 8.109375 53.6875 14.9375 
Q 60.6875 21.78125 60.6875 36.53125 
Q 60.6875 51.171875 53.6875 57.984375 
Q 46.6875 64.796875 31.59375 64.796875 
z
M 9.8125 72.90625 
L 30.078125 72.90625 
Q 51.265625 72.90625 61.171875 64.09375 
Q 71.09375 55.28125 71.09375 36.53125 
Q 71.09375 17.671875 61.125 8.828125 
Q 51.171875 0 30.078125 0 
L 9.8125 0 
z
" id="DejaVuSans-68"/>
     <path d="M 45.40625 27.984375 
Q 45.40625 37.75 41.375 43.109375 
Q 37.359375 48.484375 30.078125 48.484375 
Q 22.859375 48.484375 18.828125 43.109375 
Q 14.796875 37.75 14.796875 27.984375 
Q 14.796875 18.265625 18.828125 12.890625 
Q 22.859375 7.515625 30.078125 7.515625 
Q 37.359375 7.515625 41.375 12.890625 
Q 45.40625 18.265625 45.40625 27.984375 
z
M 54.390625 6.78125 
Q 54.390625 -7.171875 48.1875 -13.984375 
Q 42 -20.796875 29.203125 -20.796875 
Q 24.46875 -20.796875 20.265625 -20.09375 
Q 16.0625 -19.390625 12.109375 -17.921875 
L 12.109375 -9.1875 
Q 16.0625 -11.328125 19.921875 -12.34375 
Q 23.78125 -13.375 27.78125 -13.375 
Q 36.625 -13.375 41.015625 -8.765625 
Q 45.40625 -4.15625 45.40625 5.171875 
L 45.40625 9.625 
Q 42.625 4.78125 38.28125 2.390625 
Q 33.9375 0 27.875 0 
Q 17.828125 0 11.671875 7.65625 
Q 5.515625 15.328125 5.515625 27.984375 
Q 5.515625 40.671875 11.671875 48.328125 
Q 17.828125 56 27.875 56 
Q 33.9375 56 38.28125 53.609375 
Q 42.625 51.21875 45.40625 46.390625 
L 45.40625 54.6875 
L 54.390625 54.6875 
z
" id="DejaVuSans-103"/>
     <path d="M 41.109375 46.296875 
Q 39.59375 47.171875 37.8125 47.578125 
Q 36.03125 48 33.890625 48 
Q 26.265625 48 22.1875 43.046875 
Q 18.109375 38.09375 18.109375 28.8125 
L 18.109375 0 
L 9.078125 0 
L 9.078125 54.6875 
L 18.109375 54.6875 
L 18.109375 46.1875 
Q 20.953125 51.171875 25.484375 53.578125 
Q 30.03125 56 36.53125 56 
Q 37.453125 56 38.578125 55.875 
Q 39.703125 55.765625 41.0625 55.515625 
z
" id="DejaVuSans-114"/>
     <path d="M 9.421875 54.6875 
L 18.40625 54.6875 
L 18.40625 0 
L 9.421875 0 
z
M 9.421875 75.984375 
L 18.40625 75.984375 
L 18.40625 64.59375 
L 9.421875 64.59375 
z
" id="DejaVuSans-105"/>
     <path d="M 10.6875 12.40625 
L 21 12.40625 
L 21 0 
L 10.6875 0 
z
" id="DejaVuSans-46"/>
     <path d="M 12.40625 8.296875 
L 28.515625 8.296875 
L 28.515625 63.921875 
L 10.984375 60.40625 
L 10.984375 69.390625 
L 28.421875 72.90625 
L 38.28125 72.90625 
L 38.28125 8.296875 
L 54.390625 8.296875 
L 54.390625 0 
L 12.40625 0 
z
" id="DejaVuSans-49"/>
    </defs>
    <g transform="translate(53.559375 35.472)scale(0.12 -0.12)">
     <use xlink:href="#DejaVuSans-40"/>
     <use x="39.013672" xlink:href="#DejaVuSans-56"/>
     <use x="102.636719" xlink:href="#DejaVuSans-54"/>
     <use x="166.259766" xlink:href="#DejaVuSans-41"/>
     <use x="205.273438" xlink:href="#DejaVuSans-32"/>
     <use x="237.060547" xlink:href="#DejaVuSans-83"/>
     <use x="300.537109" xlink:href="#DejaVuSans-117"/>
     <use x="363.916016" xlink:href="#DejaVuSans-98"/>
     <use x="427.392578" xlink:href="#DejaVuSans-106"/>
     <use x="455.175781" xlink:href="#DejaVuSans-101"/>
     <use x="516.699219" xlink:href="#DejaVuSans-99"/>
     <use x="571.679688" xlink:href="#DejaVuSans-116"/>
     <use x="610.888672" xlink:href="#DejaVuSans-58"/>
     <use x="644.580078" xlink:href="#DejaVuSans-32"/>
     <use x="676.367188" xlink:href="#DejaVuSans-115"/>
     <use x="728.466797" xlink:href="#DejaVuSans-51"/>
     <use x="792.089844" xlink:href="#DejaVuSans-44"/>
     <use x="823.876953" xlink:href="#DejaVuSans-32"/>
     <use x="855.664062" xlink:href="#DejaVuSans-75"/>
     <use x="921.240234" xlink:href="#DejaVuSans-110"/>
     <use x="984.619141" xlink:href="#DejaVuSans-111"/>
     <use x="1045.800781" xlink:href="#DejaVuSans-119"/>
     <use x="1127.587891" xlink:href="#DejaVuSans-110"/>
     <use x="1190.966797" xlink:href="#DejaVuSans-32"/>
     <use x="1222.753906" xlink:href="#DejaVuSans-61"/>
     <use x="1306.542969" xlink:href="#DejaVuSans-32"/>
     <use x="1338.330078" xlink:href="#DejaVuSans-70"/>
     <use x="1395.708984" xlink:href="#DejaVuSans-97"/>
     <use x="1456.988281" xlink:href="#DejaVuSans-108"/>
     <use x="1484.771484" xlink:href="#DejaVuSans-115"/>
     <use x="1536.871094" xlink:href="#DejaVuSans-101"/>
     <use x="1598.394531" xlink:href="#DejaVuSans-44"/>
     <use x="1630.181641" xlink:href="#DejaVuSans-32"/>
     <use x="1661.96875" xlink:href="#DejaVuSans-68"/>
     <use x="1738.970703" xlink:href="#DejaVuSans-101"/>
     <use x="1800.494141" xlink:href="#DejaVuSans-103"/>
     <use x="1863.970703" xlink:href="#DejaVuSans-114"/>
     <use x="1905.052734" xlink:href="#DejaVuSans-101"/>
     <use x="1966.576172" xlink:href="#DejaVuSans-101"/>
     <use x="2028.099609" xlink:href="#DejaVuSans-32"/>
     <use x="2059.886719" xlink:href="#DejaVuSans-61"/>
     <use x="2143.675781" xlink:href="#DejaVuSans-32"/>
     <use x="2175.462891" xlink:href="#DejaVuSans-50"/>
     <use x="2239.085938" xlink:href="#DejaVuSans-44"/>
     <use x="2270.873047" xlink:href="#DejaVuSans-32"/>
     <use x="2302.660156" xlink:href="#DejaVuSans-68"/>
     <use x="2379.662109" xlink:href="#DejaVuSans-117"/>
     <use x="2443.041016" xlink:href="#DejaVuSans-114"/>
     <use x="2484.154297" xlink:href="#DejaVuSans-97"/>
     <use x="2545.433594" xlink:href="#DejaVuSans-116"/>
     <use x="2584.642578" xlink:href="#DejaVuSans-105"/>
     <use x="2612.425781" xlink:href="#DejaVuSans-111"/>
     <use x="2673.607422" xlink:href="#DejaVuSans-110"/>
     <use x="2736.986328" xlink:href="#DejaVuSans-32"/>
     <use x="2768.773438" xlink:href="#DejaVuSans-61"/>
     <use x="2852.5625" xlink:href="#DejaVuSans-32"/>
     <use x="2884.349609" xlink:href="#DejaVuSans-48"/>
     <use x="2947.972656" xlink:href="#DejaVuSans-46"/>
     <use x="2979.759766" xlink:href="#DejaVuSans-49"/>
    </g>
   </g>
  </g>
 </g>
 <defs>
  <clipPath id="p58a91a409d">
   <rect height="266.112" width="357.12" x="57.6" y="41.472"/>
  </clipPath>
 </defs>
</svg>
