<?xml version="1.0" encoding="utf-8" standalone="no"?>
<!DOCTYPE svg PUBLIC "-//W3C//DTD SVG 1.1//EN"
  "http://www.w3.org/Graphics/SVG/1.1/DTD/svg11.dtd">
<!-- Created with matplotlib (https://matplotlib.org/) -->
<svg height="345.6pt" version="1.1" viewBox="0 0 460.8 345.6" width="460.8pt" xmlns="http://www.w3.org/2000/svg" xmlns:xlink="http://www.w3.org/1999/xlink">
 <defs>
  <style type="text/css">
*{stroke-linecap:butt;stroke-linejoin:round;}
  </style>
 </defs>
 <g id="figure_1">
  <g id="patch_1">
   <path d="M 0 345.6 
L 460.8 345.6 
L 460.8 0 
L 0 0 
z
" style="fill:#ffffff;"/>
  </g>
  <g id="axes_1">
   <g id="patch_2">
    <path d="M 57.6 307.584 
L 414.72 307.584 
L 414.72 41.472 
L 57.6 41.472 
z
" style="fill:#ffffff;"/>
   </g>
   <g id="line2d_1">
    <path clip-path="url(#p9a4515b91f)" d="M 74.069938 53.945896 
L 74.186719 53.945896 
L 73.832727 54.705841 
L 73.953158 54.136921 
L 73.953158 53.756948 
L 73.953158 53.756948 
L 74.540711 53.756948 
L 74.540711 53.945896 
L 74.30715 53.945896 
L 73.953158 53.756948 
L 74.186719 53.756948 
L 74.540711 53.568 
L 74.30715 53.945896 
L 74.186719 54.514817 
L 74.423931 55.274762 
L 74.661142 55.085814 
L 74.777923 54.705841 
L 74.777923 54.136921 
L 74.661142 54.136921 
L 74.423931 55.274762 
L 74.423931 55.274762 
L 74.423931 54.136921 
L 74.540711 53.945896 
L 74.540711 54.325869 
L 74.423931 54.894789 
L 74.777923 54.705841 
L 74.894704 54.325869 
L 74.777923 54.514817 
L 74.540711 54.705841 
L 74.423931 54.514817 
L 74.661142 54.136921 
L 74.894704 54.325869 
L 75.015134 55.085814 
L 74.540711 54.705841 
L 74.540711 54.514817 
L 75.015134 54.894789 
L 74.894704 55.085814 
L 74.540711 54.705841 
L 74.540711 54.894789 
L 74.777923 55.274762 
L 74.894704 55.085814 
L 74.894704 55.274762 
L 75.015134 55.654734 
L 75.015134 55.654734 
L 74.777923 55.654734 
L 75.369126 55.274762 
L 75.485907 55.46371 
L 75.252345 55.843683 
L 74.894704 55.843683 
L 74.894704 55.654734 
L 75.131915 55.654734 
L 75.485907 55.843683 
L 75.606337 55.843683 
L 75.606337 56.412603 
L 75.485907 56.412603 
L 74.894704 56.034707 
L 75.252345 55.46371 
L 75.015134 56.034707 
L 74.894704 55.654734 
L 74.894704 55.085814 
L 74.777923 54.705841 
L 74.777923 54.894789 
L 74.777923 55.085814 
L 74.894704 55.274762 
L 75.485907 55.274762 
L 75.485907 55.274762 
L 75.015134 55.843683 
L 75.369126 55.843683 
L 75.606337 55.654734 
L 75.369126 55.654734 
L 75.131915 56.034707 
L 75.131915 56.412603 
L 75.252345 56.412603 
L 75.369126 56.223655 
L 75.252345 56.223655 
L 75.723118 56.603628 
L 75.606337 56.603628 
L 75.131915 56.603628 
L 74.661142 56.981524 
L 74.661142 56.981524 
L 75.131915 56.981524 
L 75.485907 56.792576 
L 75.131915 56.034707 
L 75.485907 56.034707 
L 75.960329 56.603628 
L 75.839899 56.981524 
L 75.485907 56.981524 
L 75.485907 56.603628 
L 75.723118 56.412603 
L 75.960329 56.603628 
L 75.960329 56.981524 
L 76.193891 57.361496 
L 75.723118 57.361496 
L 75.960329 57.172548 
L 76.193891 57.172548 
L 76.07711 57.552521 
L 75.723118 57.741469 
L 75.606337 57.741469 
L 75.606337 57.741469 
L 75.485907 57.552521 
L 75.839899 58.310389 
L 75.960329 58.87931 
L 75.839899 58.690362 
L 76.193891 57.361496 
L 76.193891 57.552521 
L 76.314321 57.552521 
L 76.314321 58.690362 
L 76.547883 58.87931 
L 76.547883 58.121441 
L 76.314321 57.361496 
L 76.314321 58.310389 
L 76.547883 58.310389 
L 76.668313 57.930417 
L 76.785094 57.930417 
L 76.785094 58.121441 
L 76.431102 58.310389 
L 76.314321 58.121441 
L 76.431102 58.121441 
L 76.547883 58.121441 
L 76.431102 58.121441 
L 76.314321 58.310389 
L 75.960329 57.741469 
L 76.314321 58.121441 
L 76.547883 58.310389 
L 76.547883 58.87931 
L 76.668313 58.87931 
L 76.668313 57.930417 
L 76.431102 57.741469 
L 76.547883 57.741469 
L 76.901875 57.930417 
L 76.901875 58.121441 
L 76.668313 57.930417 
L 77.255867 58.499338 
L 77.255867 58.310389 
L 76.785094 57.361496 
L 76.901875 57.361496 
L 77.139086 57.552521 
L 77.376298 57.552521 
L 77.376298 57.930417 
L 77.255867 58.121441 
L 77.022306 58.121441 
L 76.785094 58.690362 
L 76.785094 58.87931 
L 76.785094 58.499338 
L 76.785094 58.690362 
L 77.022306 58.87931 
L 77.376298 58.499338 
L 77.255867 58.690362 
L 76.901875 59.639255 
L 77.022306 59.448231 
L 77.139086 59.448231 
L 77.139086 59.828203 
L 77.376298 60.019228 
L 77.493079 59.448231 
L 76.785094 60.588148 
L 77.255867 60.588148 
L 77.493079 60.019228 
L 77.255867 60.588148 
L 77.255867 60.966044 
L 77.376298 61.346017 
L 77.139086 60.588148 
L 76.901875 60.588148 
L 76.901875 60.777096 
L 77.493079 61.537041 
L 77.613509 61.157069 
L 77.493079 61.157069 
L 77.376298 61.537041 
L 77.493079 62.485935 
L 77.376298 62.485935 
L 77.255867 62.29491 
L 77.376298 62.105962 
L 77.967501 62.105962 
L 77.613509 61.72599 
L 78.201063 62.674883 
L 77.967501 62.674883 
L 78.201063 62.29491 
L 78.909047 61.72599 
L 79.974673 61.72599 
L 81.270211 62.105962 
L 85.638546 62.105962 
L 88.12014 62.29491 
L 94.491998 63.432751 
L 105.589833 64.761617 
L 109.724606 65.521562 
L 118.578058 66.279431 
L 123.063175 66.848352 
L 127.548291 67.608297 
L 132.037057 68.177217 
L 136.638954 68.366165 
L 141.481712 68.937162 
L 146.437601 69.695031 
L 151.159929 70.832872 
L 164.264935 73.679552 
L 168.750051 74.817393 
L 173.472379 76.146259 
L 182.563042 79.181886 
L 186.814597 80.319728 
L 190.945721 81.268621 
L 194.960064 82.597486 
L 198.974408 84.304248 
L 202.988751 85.824138 
L 207.119875 87.150928 
L 215.382124 90.566528 
L 227.308373 96.068862 
L 231.319067 97.586676 
L 235.33341 98.726594 
L 239.114192 99.484463 
L 242.654113 100.813328 
L 246.314464 102.52009 
L 249.854385 104.417876 
L 256.704315 107.833477 
L 263.196603 111.438025 
L 265.794978 113.146863 
L 270.513656 116.560387 
L 274.411218 119.975987 
L 275.827187 121.304853 
L 276.889163 122.633718 
L 277.834358 124.34048 
L 278.308781 126.427215 
L 278.896335 137.242935 
L 278.896335 138.760749 
L 278.308781 143.505215 
L 278.542342 146.16087 
L 278.542342 146.920815 
L 278.779554 149.196498 
L 278.542342 150.336415 
L 278.542342 153.181018 
L 278.425562 153.749939 
L 278.542342 155.078805 
L 278.542342 155.267753 
L 279.133546 156.216646 
L 278.425562 158.114432 
L 278.542342 158.494405 
L 278.425562 158.874377 
L 278.071569 158.874377 
L 278.071569 159.25435 
L 277.951139 159.25435 
L 278.071569 158.874377 
L 278.308781 158.683353 
L 278.425562 158.874377 
L 278.308781 159.063325 
L 277.597147 159.25435 
L 277.717577 159.063325 
L 278.071569 159.063325 
L 277.597147 158.114432 
L 277.951139 157.73446 
L 278.18835 157.73446 
L 278.425562 158.114432 
L 278.425562 158.494405 
L 278.425562 158.494405 
L 277.717577 157.356564 
L 277.834358 157.73446 
L 277.951139 157.165539 
L 278.071569 157.356564 
L 278.308781 157.356564 
L 278.308781 156.976591 
L 278.18835 156.40767 
L 278.18835 156.40767 
L 278.425562 156.216646 
L 278.425562 156.40767 
L 278.425562 156.216646 
L 278.18835 155.647725 
L 278.18835 155.647725 
L 278.071569 155.647725 
L 278.425562 154.509884 
L 279.133546 154.509884 
L 281.377929 152.803122 
L 282.556686 152.043177 
L 284.093084 151.474257 
L 285.863045 151.663205 
L 287.753436 151.663205 
L 289.756958 151.474257 
L 291.647349 151.663205 
L 296.132465 152.42315 
L 298.847621 153.181018 
L 301.329215 155.078805 
L 305.460339 160.012219 
L 308.292276 161.910005 
L 311.481854 163.807791 
L 317.382939 167.792312 
L 320.098095 169.499074 
L 325.882399 172.725726 
L 329.188758 174.052515 
L 332.024344 175.761353 
L 334.61907 177.848088 
L 341.939772 185.437157 
L 344.892139 187.903864 
L 348.43206 190.561595 
L 351.621639 193.21725 
L 356.460747 198.150664 
L 359.175903 200.426347 
L 364.489434 205.359761 
L 368.620558 209.724254 
L 370.507299 211.62204 
L 372.160479 213.708775 
L 373.459667 215.986533 
L 376.649245 222.437761 
L 378.065213 226.802254 
L 378.773197 228.509016 
L 378.889978 230.215778 
L 378.656417 231.924616 
L 378.302424 233.44243 
L 378.302424 234.580271 
L 378.419205 236.28911 
L 378.419205 237.995871 
L 377.828002 241.411472 
L 377.944783 242.549313 
L 377.944783 242.549313 
L 378.065213 247.862699 
L 378.302424 248.622644 
L 377.47401 252.036168 
L 377.590791 252.607165 
L 377.944783 253.365034 
L 378.181994 254.502875 
L 377.828002 255.831741 
L 378.302424 256.969582 
L 378.656417 258.67842 
L 378.302424 259.816261 
L 377.711221 261.334075 
L 378.181994 262.09402 
L 379.12719 263.042913 
L 378.656417 263.800782 
L 378.656417 263.800782 
L 379.010409 264.560727 
L 378.889978 264.938623 
L 379.010409 265.318596 
L 379.481182 265.50962 
L 379.12719 265.50962 
L 378.535986 266.267489 
L 378.656417 266.078541 
L 378.419205 265.887517 
L 378.419205 265.887517 
L 378.535986 266.458514 
L 378.419205 266.458514 
L 378.419205 266.647462 
L 378.656417 267.596355 
L 379.010409 267.596355 
L 379.12719 267.40533 
L 379.12719 267.596355 
L 379.010409 268.165275 
L 379.010409 267.976327 
L 379.010409 267.596355 
L 379.010409 267.596355 
L 379.24397 268.165275 
L 379.364401 268.354224 
L 379.364401 268.354224 
L 379.481182 267.785303 
L 379.12719 268.545248 
L 379.364401 268.734196 
L 379.597962 269.114169 
L 379.364401 268.923144 
L 379.12719 268.734196 
L 379.24397 268.545248 
L 379.481182 268.545248 
L 379.481182 268.923144 
L 379.364401 268.923144 
L 379.718393 268.545248 
L 379.951955 268.545248 
L 379.835174 269.114169 
L 379.597962 269.303117 
L 380.189166 268.734196 
L 380.072385 268.923144 
L 379.835174 268.923144 
L 379.597962 269.303117 
L 379.24397 269.303117 
L 379.364401 269.114169 
L 379.597962 269.114169 
L 379.597962 269.303117 
L 379.718393 269.494141 
L 380.072385 268.923144 
L 379.835174 268.923144 
L 379.835174 269.303117 
L 379.951955 269.114169 
L 380.189166 268.354224 
L 380.189166 267.785303 
L 380.305947 267.40533 
L 380.189166 267.40533 
L 380.072385 267.596355 
L 380.305947 268.734196 
L 380.189166 267.785303 
L 380.305947 267.027434 
L 380.189166 267.976327 
L 380.305947 268.165275 
L 380.663588 267.976327 
L 380.780369 267.785303 
L 380.663588 267.976327 
L 380.305947 267.216382 
L 380.305947 267.027434 
L 380.663588 267.40533 
L 380.780369 267.216382 
L 380.663588 266.83641 
L 380.780369 266.647462 
L 380.89715 266.83641 
L 380.780369 267.027434 
L 380.426377 266.83641 
L 380.426377 266.647462 
L 380.89715 267.027434 
L 381.371572 267.027434 
L 380.663588 266.458514 
L 380.89715 266.647462 
L 381.134361 267.40533 
L 381.371572 267.40533 
L 382.196337 267.027434 
L 382.787541 266.83641 
L 384.086728 265.50962 
L 385.028274 264.938623 
L 385.97347 264.560727 
L 387.035446 264.560727 
L 388.217853 263.991807 
L 394.239368 262.282968 
L 395.301344 262.09402 
L 398.0165 260.954103 
L 398.0165 261.145127 
L 398.0165 260.765155 
L 398.133281 260.385182 
L 398.133281 260.385182 
L 398.133281 261.145127 
L 397.899719 261.5251 
L 397.308516 261.714048 
L 397.308516 261.5251 
L 397.542077 261.145127 
L 397.662508 261.334075 
L 397.188085 262.282968 
L 397.188085 262.471917 
L 397.308516 262.471917 
L 397.542077 263.231862 
L 396.954523 263.800782 
L 396.954523 263.800782 
L 397.071304 263.42081 
L 396.954523 263.42081 
L 396.954523 263.611834 
L 396.834093 263.991807 
L 397.071304 264.180755 
L 397.308516 264.180755 
L 397.542077 263.991807 
L 397.779289 263.800782 
L 397.779289 264.560727 
L 397.899719 264.749675 
L 397.542077 264.560727 
L 397.071304 264.749675 
L 396.954523 265.129648 
L 397.071304 265.50962 
L 397.188085 265.50962 
L 397.425296 264.938623 
L 397.542077 265.129648 
L 397.542077 265.698569 
L 397.662508 265.698569 
L 397.542077 265.698569 
L 397.071304 265.50962 
L 396.480101 264.938623 
L 396.480101 265.129648 
L 396.600531 265.50962 
L 396.954523 265.887517 
L 396.954523 266.267489 
L 396.717312 265.887517 
L 396.717312 265.50962 
L 396.834093 265.50962 
L 396.834093 265.698569 
L 396.600531 265.698569 
L 396.480101 266.078541 
L 396.600531 266.458514 
L 396.717312 266.458514 
L 396.834093 266.078541 
L 396.834093 266.267489 
L 396.600531 266.267489 
L 396.36332 266.458514 
L 396.36332 266.458514 
L 396.480101 266.078541 
L 396.600531 266.267489 
L 396.600531 267.40533 
L 396.600531 267.216382 
L 396.834093 266.647462 
L 397.071304 266.458514 
L 397.071304 266.83641 
L 396.834093 267.027434 
L 396.480101 267.027434 
L 396.126109 266.83641 
L 396.480101 267.027434 
L 396.717312 267.027434 
L 396.834093 266.83641 
L 396.480101 266.83641 
L 396.480101 266.83641 
L 396.480101 267.216382 
L 396.246539 267.976327 
L 396.36332 267.40533 
L 396.600531 267.216382 
L 396.834093 267.596355 
L 396.834093 268.165275 
L 396.717312 268.165275 
L 396.717312 267.976327 
L 396.954523 267.596355 
L 396.717312 267.216382 
L 396.600531 267.40533 
L 396.600531 267.785303 
L 396.480101 267.785303 
L 396.246539 267.40533 
L 396.246539 268.354224 
L 396.480101 268.354224 
L 396.954523 267.976327 
L 396.834093 267.976327 
L 396.36332 267.40533 
L 396.480101 267.596355 
L 396.246539 267.976327 
L 395.892547 267.976327 
L 395.772117 267.785303 
L 396.009328 267.596355 
L 396.480101 267.596355 
L 396.717312 267.40533 
L 396.480101 267.596355 
L 396.246539 267.976327 
L 396.246539 268.354224 
L 396.480101 268.354224 
L 396.717312 268.734196 
L 396.717312 269.303117 
L 396.480101 269.494141 
L 396.126109 269.114169 
L 395.892547 269.303117 
L 395.892547 269.494141 
L 396.36332 269.494141 
L 396.480101 269.872037 
L 396.36332 269.683089 
L 396.246539 269.683089 
L 396.246539 269.114169 
L 396.717312 269.114169 
L 396.954523 269.494141 
L 396.600531 268.734196 
L 395.538555 268.734196 
L 394.239368 268.165275 
L 391.757773 267.785303 
L 389.750602 267.596355 
L 381.01758 266.267489 
L 377.711221 265.887517 
L 370.153307 264.749675 
L 366.022183 264.369703 
L 361.653848 263.611834 
L 357.405943 262.662941 
L 352.800396 262.282968 
L 347.961287 262.09402 
L 343.001749 261.334075 
L 333.440313 259.436289 
L 328.480774 259.058393 
L 323.404454 258.867368 
L 318.211354 258.298448 
L 313.251815 257.540579 
L 308.292276 256.969582 
L 292.946536 256.969582 
L 282.556686 257.349555 
L 277.243155 257.918475 
L 262.134626 258.487396 
L 257.412299 259.436289 
L 253.043963 259.816261 
L 249.02962 259.436289 
L 244.661284 258.867368 
L 239.938957 259.436289 
L 235.33341 260.576207 
L 223.648022 264.749675 
L 215.856546 266.647462 
L 212.666968 268.354224 
L 211.842203 268.923144 
L 211.36778 269.494141 
L 210.426234 271.769824 
L 210.897007 272.718717 
L 211.013788 273.098689 
L 211.013788 273.856558 
L 211.842203 275.185424 
L 211.488211 275.374372 
L 211.36778 275.185424 
L 211.488211 275.185424 
L 211.604992 275.185424 
L 211.604992 275.185424 
L 211.36778 275.565396 
L 211.013788 275.754344 
L 210.897007 276.323265 
L 211.013788 277.08321 
L 211.250999 277.272158 
L 211.604992 276.894262 
L 211.36778 277.272158 
L 211.604992 277.841079 
L 211.604992 278.221051 
L 211.36778 278.412076 
L 210.897007 278.412076 
L 210.780226 278.789972 
L 210.780226 279.549917 
L 211.013788 280.118838 
L 211.250999 280.118838 
L 211.36778 279.738865 
L 211.134219 279.549917 
L 211.013788 279.92989 
L 211.134219 280.307786 
L 211.250999 280.307786 
L 211.36778 280.118838 
L 211.36778 280.118838 
L 211.134219 280.118838 
L 210.897007 280.307786 
L 210.897007 281.067731 
L 210.780226 281.447703 
L 210.897007 281.447703 
L 211.013788 281.067731 
L 210.897007 280.878783 
L 211.013788 280.878783 
L 211.488211 281.447703 
L 211.721772 282.016624 
L 211.250999 282.396597 
L 210.897007 282.396597 
L 210.897007 282.205572 
L 210.897007 282.205572 
L 210.780226 282.205572 
L 210.780226 282.016624 
L 211.134219 282.396597 
L 211.36778 282.774493 
L 210.897007 282.205572 
L 211.013788 282.205572 
L 211.250999 282.205572 
L 211.250999 282.396597 
L 210.780226 283.154465 
L 211.013788 283.34549 
L 211.013788 283.154465 
L 211.250999 283.154465 
L 211.604992 283.34549 
L 211.842203 283.34549 
L 211.721772 283.34549 
L 211.250999 283.534438 
L 211.134219 283.34549 
L 211.250999 283.154465 
L 211.36778 283.34549 
L 211.36778 284.103358 
L 211.488211 284.292307 
L 211.250999 284.483331 
L 211.134219 284.103358 
L 211.013788 284.103358 
L 210.897007 284.483331 
L 210.780226 284.483331 
L 210.897007 284.483331 
L 211.013788 284.292307 
L 210.897007 284.292307 
L 210.897007 284.103358 
L 211.134219 284.103358 
L 211.134219 284.672279 
L 211.013788 285.2412 
L 211.134219 285.2412 
L 211.134219 285.432224 
L 211.250999 285.432224 
L 211.250999 285.052252 
L 211.134219 284.863303 
L 211.013788 285.052252 
L 211.250999 286.001145 
L 211.250999 286.001145 
L 210.780226 285.432224 
L 210.897007 285.432224 
L 211.36778 285.812197 
L 211.488211 285.621172 
L 211.013788 286.190093 
L 211.013788 285.812197 
L 211.250999 285.621172 
L 211.488211 285.812197 
L 211.604992 286.190093 
L 211.488211 286.001145 
L 211.134219 286.190093 
L 210.659796 286.570065 
L 210.659796 286.190093 
L 210.897007 285.812197 
L 211.250999 285.812197 
L 211.842203 286.190093 
L 211.842203 286.381117 
L 211.721772 286.759013 
L 211.488211 286.759013 
L 211.488211 286.759013 
L 211.488211 286.570065 
L 211.604992 286.570065 
L 211.604992 286.950038 
L 211.488211 287.33001 
L 211.958984 286.570065 
L 211.842203 286.570065 
L 211.604992 286.570065 
L 211.36778 287.138986 
L 211.250999 287.138986 
L 211.250999 286.759013 
L 211.604992 286.381117 
L 211.958984 287.138986 
L 211.958984 287.138986 
L 211.604992 286.950038 
L 212.079414 286.570065 
L 212.196195 286.759013 
L 211.721772 287.33001 
L 211.842203 287.33001 
L 212.079414 287.33001 
L 212.196195 287.518959 
L 212.079414 287.33001 
L 212.196195 286.950038 
L 212.433406 286.570065 
L 212.433406 286.570065 
L 212.196195 286.570065 
L 212.079414 286.381117 
L 212.196195 286.190093 
L 212.196195 286.381117 
L 212.196195 286.570065 
L 211.842203 287.518959 
L 212.433406 287.518959 
L 211.958984 287.518959 
L 212.079414 287.138986 
L 212.312976 287.33001 
L 212.312976 287.707907 
L 212.312976 287.138986 
L 212.666968 286.759013 
L 212.666968 286.570065 
L 212.666968 286.570065 
L 212.550187 286.759013 
L 212.312976 286.570065 
L 212.196195 286.759013 
L 212.196195 287.138986 
L 212.312976 286.950038 
L 212.312976 286.570065 
L 212.550187 286.190093 
L 212.787398 286.190093 
L 212.666968 286.190093 
L 213.02096 285.432224 
L 213.14139 285.052252 
L 212.433406 285.052252 
L 212.312976 285.432224 
L 212.787398 285.812197 
L 212.666968 285.812197 
L 212.666968 285.432224 
L 213.14139 283.91441 
L 213.374952 283.91441 
L 213.374952 283.91441 
L 213.258171 283.34549 
L 213.728944 281.256679 
L 213.495382 279.549917 
L 213.374952 277.841079 
L 213.495382 275.945369 
L 213.849374 273.287637 
L 215.148562 267.027434 
L 215.619335 263.611834 
L 215.619335 260.196234 
L 215.265343 256.780634 
L 215.148562 253.365034 
L 215.619335 245.964913 
L 215.619335 238.186896 
L 215.736116 233.44243 
L 216.210538 223.955575 
L 216.090108 219.591082 
L 215.736116 215.226588 
L 215.502554 210.673147 
L 215.382124 205.930757 
L 215.382124 201.186292 
L 215.502554 196.252878 
L 216.210538 187.145995 
L 216.210538 182.401529 
L 216.327319 177.65914 
L 217.980499 166.274498 
L 218.09728 162.289977 
L 218.571702 156.027698 
L 218.805264 153.749939 
L 219.042475 148.438629 
L 219.396467 146.16087 
L 219.870889 144.643056 
L 220.104451 141.418481 
L 220.104451 140.089615 
L 220.341662 139.32967 
L 220.224882 138.571801 
L 219.98767 138.002881 
L 220.224882 137.811856 
L 220.695655 139.32967 
L 221.049647 139.520694 
L 221.403639 139.32967 
L 221.166428 138.951774 
L 221.286858 138.951774 
L 221.52042 138.951774 
L 221.757631 139.140722 
L 221.757631 139.32967 
L 221.52042 139.32967 
L 221.286858 138.760749 
L 221.52042 138.380777 
L 221.757631 138.380777 
L 222.111623 138.191829 
L 222.232053 137.811856 
L 221.994842 137.622908 
L 222.111623 137.622908 
L 222.702826 137.242935 
L 222.940037 137.242935 
L 223.173599 137.43396 
L 223.056818 137.242935 
L 222.940037 137.053987 
L 222.819607 137.242935 
L 223.056818 137.242935 
L 223.173599 136.862963 
L 222.940037 136.294042 
L 222.819607 136.485067 
L 222.819607 137.242935 
L 223.056818 137.43396 
L 223.527591 137.43396 
L 223.29403 137.811856 
L 223.173599 137.622908 
L 223.173599 137.242935 
L 223.056818 136.862963 
L 222.819607 136.862963 
L 223.527591 136.862963 
L 223.881583 137.242935 
L 223.881583 137.43396 
L 223.764803 137.43396 
L 223.648022 137.622908 
L 223.764803 138.002881 
L 223.881583 138.002881 
L 223.527591 137.811856 
L 224.118795 137.053987 
L 223.648022 137.43396 
L 223.29403 137.811856 
L 223.41081 138.380777 
L 224.002014 138.571801 
L 224.002014 137.811856 
L 224.002014 138.002881 
L 224.118795 138.191829 
L 224.118795 138.571801 
L 224.002014 138.571801 
L 223.764803 138.380777 
L 224.002014 138.002881 
L 224.239225 138.760749 
L 224.356006 138.571801 
L 224.002014 139.140722 
L 223.764803 138.951774 
L 224.002014 138.571801 
L 224.002014 138.951774 
L 223.881583 139.900667 
L 224.118795 140.089615 
L 224.356006 140.089615 
L 224.118795 140.089615 
L 224.002014 139.900667 
L 224.118795 139.900667 
L 224.118795 139.709642 
L 224.118795 140.469587 
L 224.356006 141.038508 
L 224.239225 141.418481 
L 223.764803 141.796377 
L 224.356006 141.418481 
L 224.947209 142.176349 
L 224.826779 142.556322 
L 224.356006 142.936294 
L 224.356006 143.314191 
L 224.239225 143.885188 
L 224.593217 144.643056 
L 224.593217 144.832004 
L 224.356006 145.211977 
L 224.593217 145.780898 
L 224.709998 146.16087 
L 224.709998 146.540843 
L 224.593217 146.16087 
L 224.593217 146.540843 
L 224.239225 148.627577 
L 224.356006 148.247605 
L 224.593217 148.247605 
L 224.593217 148.438629 
L 224.709998 148.816525 
L 224.472787 149.765418 
L 224.593217 149.387522 
L 224.826779 148.816525 
L 225.417982 148.438629 
L 227.071162 149.196498 
L 228.133138 149.196498 
L 230.848294 147.869708 
L 232.738685 147.678684 
L 237.340582 147.678684 
L 239.938957 147.489736 
L 242.891324 147.109763 
L 245.840042 146.920815 
L 249.02962 146.920815 
L 252.45276 147.298711 
L 256.229892 148.058656 
L 260.361016 148.627577 
L 264.849782 149.387522 
L 273.112031 151.663205 
L 277.126374 153.181018 
L 285.625834 156.596619 
L 290.11095 158.114432 
L 294.008513 159.823271 
L 297.668864 161.910005 
L 301.562777 163.996739 
L 313.605807 169.310126 
L 317.736931 171.776833 
L 321.868056 175.001408 
L 325.648837 178.22806 
L 329.54275 181.072664 
L 333.911086 183.730395 
L 338.16264 186.766023 
L 346.308108 194.166143 
L 354.216364 199.857426 
L 357.993496 203.084078 
L 361.537067 206.308654 
L 364.843426 209.155333 
L 368.383347 211.433092 
L 371.689706 213.708775 
L 374.521643 216.175481 
L 381.842345 224.144523 
L 384.203509 226.991202 
L 386.564673 230.02683 
L 388.455064 232.682485 
L 391.524212 237.806923 
L 394.239368 243.498206 
L 395.064133 246.155937 
L 395.655336 248.622644 
L 396.246539 253.365034 
L 396.480101 255.451768 
L 396.480101 258.67842 
L 396.717312 262.851889 
L 396.600531 263.800782 
L 396.600531 265.129648 
L 396.717312 266.647462 
L 396.717312 268.545248 
L 396.834093 269.872037 
L 397.071304 271.011955 
L 397.071304 273.478662 
L 396.954523 275.185424 
L 397.071304 276.514289 
L 397.662508 279.92989 
L 397.662508 281.8256 
L 397.425296 284.292307 
L 397.542077 284.863303 
L 397.542077 285.432224 
L 397.425296 285.812197 
L 397.662508 287.138986 
L 397.662508 287.898931 
L 397.188085 289.416745 
L 397.188085 289.985665 
L 397.425296 290.934559 
L 396.954523 291.883452 
L 396.954523 292.452372 
L 397.188085 292.832345 
L 396.600531 293.401266 
L 396.480101 293.781238 
L 396.600531 293.781238 
L 396.834093 294.159134 
L 396.834093 293.781238 
L 396.954523 293.781238 
L 397.071304 294.159134 
L 396.954523 294.728055 
L 396.717312 294.919079 
L 396.834093 294.728055 
L 396.954523 294.539107 
L 397.188085 294.539107 
L 397.188085 294.539107 
L 397.188085 293.970186 
L 397.308516 293.781238 
L 397.188085 294.159134 
L 397.188085 294.539107 
L 397.188085 294.539107 
L 397.425296 294.728055 
L 397.425296 295.299052 
L 397.308516 295.488 
L 397.071304 295.488 
L 396.717312 294.919079 
L 396.717312 295.108027 
L 396.717312 295.299052 
L 396.717312 294.728055 
L 396.954523 294.539107 
L 397.188085 294.919079 
L 397.542077 294.919079 
L 397.542077 294.728055 
L 397.188085 294.539107 
L 397.071304 294.728055 
L 397.071304 294.350159 
L 397.308516 293.210241 
L 397.308516 293.210241 
L 397.425296 293.401266 
L 397.188085 293.401266 
L 396.954523 293.021293 
L 396.954523 292.641321 
L 397.071304 292.832345 
L 396.717312 292.452372 
L 396.834093 292.0724 
L 397.188085 291.503479 
L 397.071304 291.503479 
L 397.071304 291.314531 
L 397.071304 291.692427 
L 396.954523 291.503479 
L 396.834093 290.934559 
L 396.834093 289.796717 
L 396.954523 289.605693 
L 397.188085 289.796717 
L 397.188085 289.985665 
L 397.188085 289.796717 
L 397.308516 289.605693 
L 397.425296 289.796717 
L 397.542077 289.605693 
L 397.662508 288.847824 
L 397.899719 288.276827 
L 397.779289 287.898931 
L 397.188085 287.707907 
L 397.308516 287.707907 
L 397.425296 288.087879 
L 397.662508 288.087879 
L 397.662508 287.898931 
L 397.542077 287.707907 
L 397.542077 286.759013 
L 397.662508 286.759013 
L 397.779289 286.950038 
L 397.542077 287.138986 
L 397.542077 286.950038 
L 397.779289 285.812197 
L 397.662508 285.621172 
L 397.308516 285.621172 
L 396.954523 285.812197 
L 397.071304 285.621172 
L 397.425296 285.621172 
L 397.662508 286.190093 
L 397.662508 286.570065 
L 397.662508 286.190093 
L 397.899719 285.812197 
L 398.253711 286.001145 
L 398.133281 285.812197 
L 398.0165 285.432224 
L 398.133281 285.052252 
L 398.487273 284.483331 
L 398.133281 284.672279 
L 397.779289 285.052252 
L 397.779289 285.432224 
L 397.779289 285.2412 
L 397.308516 284.672279 
L 397.188085 284.672279 
L 397.188085 284.863303 
L 397.071304 284.863303 
L 397.071304 284.483331 
L 397.188085 284.292307 
L 397.425296 284.292307 
L 397.662508 286.001145 
L 397.425296 286.001145 
L 397.188085 285.432224 
L 397.071304 284.863303 
L 397.425296 284.672279 
L 397.542077 284.863303 
L 397.542077 285.432224 
L 397.188085 285.812197 
L 397.188085 285.432224 
L 397.425296 285.2412 
L 397.542077 285.621172 
L 397.308516 285.812197 
L 397.071304 285.432224 
L 396.954523 284.863303 
L 396.834093 284.863303 
L 396.954523 285.052252 
L 397.188085 285.052252 
L 397.188085 284.672279 
L 397.071304 285.052252 
L 397.308516 284.672279 
L 397.425296 284.672279 
L 397.425296 284.863303 
L 396.600531 284.863303 
L 396.246539 284.672279 
L 396.246539 284.672279 
L 396.36332 284.863303 
L 396.954523 284.483331 
L 396.954523 284.483331 
L 397.071304 283.91441 
L 396.954523 283.154465 
L 396.480101 284.292307 
L 396.36332 284.292307 
L 396.36332 284.483331 
L 396.36332 284.483331 
L 396.246539 284.103358 
L 396.126109 284.103358 
L 396.36332 284.672279 
L 396.36332 284.672279 
L 396.480101 284.292307 
L 396.600531 284.292307 
L 396.36332 284.672279 
L 396.36332 284.483331 
L 396.36332 284.103358 
L 396.126109 283.34549 
L 395.655336 283.34549 
L 395.655336 283.154465 
L 396.126109 283.91441 
L 395.538555 284.292307 
L 395.180914 284.672279 
L 395.301344 284.292307 
L 395.655336 283.723386 
L 395.655336 283.34549 
L 395.655336 283.534438 
L 395.892547 283.91441 
L 395.772117 283.723386 
L 395.418125 283.534438 
L 394.947352 282.965517 
L 394.59336 282.965517 
L 394.472929 283.534438 
L 394.947352 284.103358 
L 394.947352 283.91441 
L 394.826921 283.34549 
L 394.826921 282.774493 
L 395.064133 282.965517 
L 394.826921 282.774493 
L 394.59336 282.774493 
L 394.59336 282.965517 
L 394.59336 282.965517 
L 394.710141 283.154465 
L 394.59336 283.154465 
L 394.472929 283.154465 
L 394.710141 282.774493 
L 394.59336 282.396597 
L 394.59336 282.774493 
L 394.356148 282.585545 
L 394.002156 282.205572 
L 393.764945 282.585545 
L 393.885375 282.396597 
L 394.239368 282.396597 
L 394.472929 282.585545 
L 394.118937 282.205572 
L 394.118937 282.016624 
L 394.239368 281.8256 
L 394.002156 281.8256 
L 393.648164 281.636651 
L 393.410953 281.636651 
L 393.648164 281.636651 
L 394.002156 281.8256 
L 394.118937 282.205572 
L 394.356148 282.396597 
L 394.710141 282.396597 
L 394.710141 282.396597 
L 394.356148 282.205572 
L 394.118937 282.205572 
L 394.118937 282.205572 
L 394.118937 281.447703 
L 394.239368 281.256679 
L 394.356148 281.636651 
L 394.239368 281.447703 
L 394.118937 281.447703 
L 394.118937 282.016624 
L 394.002156 282.016624 
L 394.472929 282.016624 
L 394.59336 281.8256 
L 394.472929 282.016624 
L 394.239368 281.8256 
L 394.239368 281.636651 
L 394.59336 281.256679 
L 394.710141 281.447703 
L 394.356148 282.396597 
L 394.356148 282.585545 
L 394.59336 282.396597 
L 394.472929 282.016624 
L 394.118937 281.636651 
L 394.356148 281.636651 
L 394.59336 281.8256 
L 394.826921 282.396597 
L 394.59336 281.636651 
L 394.710141 281.8256 
L 394.826921 281.8256 
L 394.826921 281.8256 
L 394.826921 282.205572 
L 395.064133 282.774493 
L 395.180914 282.774493 
L 394.826921 283.154465 
L 394.947352 282.965517 
L 394.947352 282.774493 
L 394.239368 282.774493 
L 394.472929 282.585545 
L 394.710141 282.585545 
L 394.710141 282.585545 
L 394.59336 282.396597 
L 394.710141 282.016624 
L 394.947352 282.205572 
L 395.180914 282.774493 
L 394.947352 282.774493 
L 394.826921 282.965517 
L 394.826921 282.965517 
L 394.947352 283.34549 
L 395.418125 283.723386 
L 395.418125 283.723386 
L 395.180914 283.723386 
L 394.947352 283.34549 
L 394.947352 282.965517 
L 395.301344 282.585545 
L 395.538555 282.396597 
L 394.826921 282.965517 
L 394.947352 283.34549 
L 395.180914 283.154465 
L 395.301344 282.585545 
L 395.301344 282.585545 
L 395.418125 282.585545 
L 395.301344 282.585545 
L 395.064133 282.205572 
L 395.064133 282.205572 
" style="fill:none;stroke:#1f77b4;stroke-linecap:square;stroke-width:1.5;"/>
   </g>
   <g id="matplotlib.axis_1">
    <g id="xtick_1">
     <g id="line2d_2">
      <defs>
       <path d="M 0 0 
L 0 3.5 
" id="m7ca34b7362" style="stroke:#000000;stroke-width:0.8;"/>
      </defs>
      <g>
       <use style="stroke:#000000;stroke-width:0.8;" x="92.605257" xlink:href="#m7ca34b7362" y="307.584"/>
      </g>
     </g>
     <g id="text_1">
      <!-- −600 -->
      <defs>
       <path d="M 10.59375 35.5 
L 73.1875 35.5 
L 73.1875 27.203125 
L 10.59375 27.203125 
z
" id="DejaVuSans-8722"/>
       <path d="M 33.015625 40.375 
Q 26.375 40.375 22.484375 35.828125 
Q 18.609375 31.296875 18.609375 23.390625 
Q 18.609375 15.53125 22.484375 10.953125 
Q 26.375 6.390625 33.015625 6.390625 
Q 39.65625 6.390625 43.53125 10.953125 
Q 47.40625 15.53125 47.40625 23.390625 
Q 47.40625 31.296875 43.53125 35.828125 
Q 39.65625 40.375 33.015625 40.375 
z
M 52.59375 71.296875 
L 52.59375 62.3125 
Q 48.875 64.0625 45.09375 64.984375 
Q 41.3125 65.921875 37.59375 65.921875 
Q 27.828125 65.921875 22.671875 59.328125 
Q 17.53125 52.734375 16.796875 39.40625 
Q 19.671875 43.65625 24.015625 45.921875 
Q 28.375 48.1875 33.59375 48.1875 
Q 44.578125 48.1875 50.953125 41.515625 
Q 57.328125 34.859375 57.328125 23.390625 
Q 57.328125 12.15625 50.6875 5.359375 
Q 44.046875 -1.421875 33.015625 -1.421875 
Q 20.359375 -1.421875 13.671875 8.265625 
Q 6.984375 17.96875 6.984375 36.375 
Q 6.984375 53.65625 15.1875 63.9375 
Q 23.390625 74.21875 37.203125 74.21875 
Q 40.921875 74.21875 44.703125 73.484375 
Q 48.484375 72.75 52.59375 71.296875 
z
" id="DejaVuSans-54"/>
       <path d="M 31.78125 66.40625 
Q 24.171875 66.40625 20.328125 58.90625 
Q 16.5 51.421875 16.5 36.375 
Q 16.5 21.390625 20.328125 13.890625 
Q 24.171875 6.390625 31.78125 6.390625 
Q 39.453125 6.390625 43.28125 13.890625 
Q 47.125 21.390625 47.125 36.375 
Q 47.125 51.421875 43.28125 58.90625 
Q 39.453125 66.40625 31.78125 66.40625 
z
M 31.78125 74.21875 
Q 44.046875 74.21875 50.515625 64.515625 
Q 56.984375 54.828125 56.984375 36.375 
Q 56.984375 17.96875 50.515625 8.265625 
Q 44.046875 -1.421875 31.78125 -1.421875 
Q 19.53125 -1.421875 13.0625 8.265625 
Q 6.59375 17.96875 6.59375 36.375 
Q 6.59375 54.828125 13.0625 64.515625 
Q 19.53125 74.21875 31.78125 74.21875 
z
" id="DejaVuSans-48"/>
      </defs>
      <g transform="translate(78.871663 322.182437)scale(0.1 -0.1)">
       <use xlink:href="#DejaVuSans-8722"/>
       <use x="83.789062" xlink:href="#DejaVuSans-54"/>
       <use x="147.412109" xlink:href="#DejaVuSans-48"/>
       <use x="211.035156" xlink:href="#DejaVuSans-48"/>
      </g>
     </g>
    </g>
    <g id="xtick_2">
     <g id="line2d_3">
      <g>
       <use style="stroke:#000000;stroke-width:0.8;" x="165.593318" xlink:href="#m7ca34b7362" y="307.584"/>
      </g>
     </g>
     <g id="text_2">
      <!-- −400 -->
      <defs>
       <path d="M 37.796875 64.3125 
L 12.890625 25.390625 
L 37.796875 25.390625 
z
M 35.203125 72.90625 
L 47.609375 72.90625 
L 47.609375 25.390625 
L 58.015625 25.390625 
L 58.015625 17.1875 
L 47.609375 17.1875 
L 47.609375 0 
L 37.796875 0 
L 37.796875 17.1875 
L 4.890625 17.1875 
L 4.890625 26.703125 
z
" id="DejaVuSans-52"/>
      </defs>
      <g transform="translate(151.859724 322.182437)scale(0.1 -0.1)">
       <use xlink:href="#DejaVuSans-8722"/>
       <use x="83.789062" xlink:href="#DejaVuSans-52"/>
       <use x="147.412109" xlink:href="#DejaVuSans-48"/>
       <use x="211.035156" xlink:href="#DejaVuSans-48"/>
      </g>
     </g>
    </g>
    <g id="xtick_3">
     <g id="line2d_4">
      <g>
       <use style="stroke:#000000;stroke-width:0.8;" x="238.581379" xlink:href="#m7ca34b7362" y="307.584"/>
      </g>
     </g>
     <g id="text_3">
      <!-- −200 -->
      <defs>
       <path d="M 19.1875 8.296875 
L 53.609375 8.296875 
L 53.609375 0 
L 7.328125 0 
L 7.328125 8.296875 
Q 12.9375 14.109375 22.625 23.890625 
Q 32.328125 33.6875 34.8125 36.53125 
Q 39.546875 41.84375 41.421875 45.53125 
Q 43.3125 49.21875 43.3125 52.78125 
Q 43.3125 58.59375 39.234375 62.25 
Q 35.15625 65.921875 28.609375 65.921875 
Q 23.96875 65.921875 18.8125 64.3125 
Q 13.671875 62.703125 7.8125 59.421875 
L 7.8125 69.390625 
Q 13.765625 71.78125 18.9375 73 
Q 24.125 74.21875 28.421875 74.21875 
Q 39.75 74.21875 46.484375 68.546875 
Q 53.21875 62.890625 53.21875 53.421875 
Q 53.21875 48.921875 51.53125 44.890625 
Q 49.859375 40.875 45.40625 35.40625 
Q 44.1875 33.984375 37.640625 27.21875 
Q 31.109375 20.453125 19.1875 8.296875 
z
" id="DejaVuSans-50"/>
      </defs>
      <g transform="translate(224.847785 322.182437)scale(0.1 -0.1)">
       <use xlink:href="#DejaVuSans-8722"/>
       <use x="83.789062" xlink:href="#DejaVuSans-50"/>
       <use x="147.412109" xlink:href="#DejaVuSans-48"/>
       <use x="211.035156" xlink:href="#DejaVuSans-48"/>
      </g>
     </g>
    </g>
    <g id="xtick_4">
     <g id="line2d_5">
      <g>
       <use style="stroke:#000000;stroke-width:0.8;" x="311.56944" xlink:href="#m7ca34b7362" y="307.584"/>
      </g>
     </g>
     <g id="text_4">
      <!-- 0 -->
      <g transform="translate(308.38819 322.182437)scale(0.1 -0.1)">
       <use xlink:href="#DejaVuSans-48"/>
      </g>
     </g>
    </g>
    <g id="xtick_5">
     <g id="line2d_6">
      <g>
       <use style="stroke:#000000;stroke-width:0.8;" x="384.557501" xlink:href="#m7ca34b7362" y="307.584"/>
      </g>
     </g>
     <g id="text_5">
      <!-- 200 -->
      <g transform="translate(375.013751 322.182437)scale(0.1 -0.1)">
       <use xlink:href="#DejaVuSans-50"/>
       <use x="63.623047" xlink:href="#DejaVuSans-48"/>
       <use x="127.246094" xlink:href="#DejaVuSans-48"/>
      </g>
     </g>
    </g>
   </g>
   <g id="matplotlib.axis_2">
    <g id="ytick_1">
     <g id="line2d_7">
      <defs>
       <path d="M 0 0 
L -3.5 0 
" id="m5ac8cd5d68" style="stroke:#000000;stroke-width:0.8;"/>
      </defs>
      <g>
       <use style="stroke:#000000;stroke-width:0.8;" x="57.6" xlink:href="#m5ac8cd5d68" y="268.518255"/>
      </g>
     </g>
     <g id="text_6">
      <!-- −200 -->
      <g transform="translate(23.132812 272.317474)scale(0.1 -0.1)">
       <use xlink:href="#DejaVuSans-8722"/>
       <use x="83.789062" xlink:href="#DejaVuSans-50"/>
       <use x="147.412109" xlink:href="#DejaVuSans-48"/>
       <use x="211.035156" xlink:href="#DejaVuSans-48"/>
      </g>
     </g>
    </g>
    <g id="ytick_2">
     <g id="line2d_8">
      <g>
       <use style="stroke:#000000;stroke-width:0.8;" x="57.6" xlink:href="#m5ac8cd5d68" y="226.991202"/>
      </g>
     </g>
     <g id="text_7">
      <!-- 0 -->
      <g transform="translate(44.2375 230.790421)scale(0.1 -0.1)">
       <use xlink:href="#DejaVuSans-48"/>
      </g>
     </g>
    </g>
    <g id="ytick_3">
     <g id="line2d_9">
      <g>
       <use style="stroke:#000000;stroke-width:0.8;" x="57.6" xlink:href="#m5ac8cd5d68" y="185.464149"/>
      </g>
     </g>
     <g id="text_8">
      <!-- 200 -->
      <g transform="translate(31.5125 189.263368)scale(0.1 -0.1)">
       <use xlink:href="#DejaVuSans-50"/>
       <use x="63.623047" xlink:href="#DejaVuSans-48"/>
       <use x="127.246094" xlink:href="#DejaVuSans-48"/>
      </g>
     </g>
    </g>
    <g id="ytick_4">
     <g id="line2d_10">
      <g>
       <use style="stroke:#000000;stroke-width:0.8;" x="57.6" xlink:href="#m5ac8cd5d68" y="143.937096"/>
      </g>
     </g>
     <g id="text_9">
      <!-- 400 -->
      <g transform="translate(31.5125 147.736315)scale(0.1 -0.1)">
       <use xlink:href="#DejaVuSans-52"/>
       <use x="63.623047" xlink:href="#DejaVuSans-48"/>
       <use x="127.246094" xlink:href="#DejaVuSans-48"/>
      </g>
     </g>
    </g>
    <g id="ytick_5">
     <g id="line2d_11">
      <g>
       <use style="stroke:#000000;stroke-width:0.8;" x="57.6" xlink:href="#m5ac8cd5d68" y="102.410043"/>
      </g>
     </g>
     <g id="text_10">
      <!-- 600 -->
      <g transform="translate(31.5125 106.209262)scale(0.1 -0.1)">
       <use xlink:href="#DejaVuSans-54"/>
       <use x="63.623047" xlink:href="#DejaVuSans-48"/>
       <use x="127.246094" xlink:href="#DejaVuSans-48"/>
      </g>
     </g>
    </g>
    <g id="ytick_6">
     <g id="line2d_12">
      <g>
       <use style="stroke:#000000;stroke-width:0.8;" x="57.6" xlink:href="#m5ac8cd5d68" y="60.88299"/>
      </g>
     </g>
     <g id="text_11">
      <!-- 800 -->
      <defs>
       <path d="M 31.78125 34.625 
Q 24.75 34.625 20.71875 30.859375 
Q 16.703125 27.09375 16.703125 20.515625 
Q 16.703125 13.921875 20.71875 10.15625 
Q 24.75 6.390625 31.78125 6.390625 
Q 38.8125 6.390625 42.859375 10.171875 
Q 46.921875 13.96875 46.921875 20.515625 
Q 46.921875 27.09375 42.890625 30.859375 
Q 38.875 34.625 31.78125 34.625 
z
M 21.921875 38.8125 
Q 15.578125 40.375 12.03125 44.71875 
Q 8.5 49.078125 8.5 55.328125 
Q 8.5 64.0625 14.71875 69.140625 
Q 20.953125 74.21875 31.78125 74.21875 
Q 42.671875 74.21875 48.875 69.140625 
Q 55.078125 64.0625 55.078125 55.328125 
Q 55.078125 49.078125 51.53125 44.71875 
Q 48 40.375 41.703125 38.8125 
Q 48.828125 37.15625 52.796875 32.3125 
Q 56.78125 27.484375 56.78125 20.515625 
Q 56.78125 9.90625 50.3125 4.234375 
Q 43.84375 -1.421875 31.78125 -1.421875 
Q 19.734375 -1.421875 13.25 4.234375 
Q 6.78125 9.90625 6.78125 20.515625 
Q 6.78125 27.484375 10.78125 32.3125 
Q 14.796875 37.15625 21.921875 38.8125 
z
M 18.3125 54.390625 
Q 18.3125 48.734375 21.84375 45.5625 
Q 25.390625 42.390625 31.78125 42.390625 
Q 38.140625 42.390625 41.71875 45.5625 
Q 45.3125 48.734375 45.3125 54.390625 
Q 45.3125 60.0625 41.71875 63.234375 
Q 38.140625 66.40625 31.78125 66.40625 
Q 25.390625 66.40625 21.84375 63.234375 
Q 18.3125 60.0625 18.3125 54.390625 
z
" id="DejaVuSans-56"/>
      </defs>
      <g transform="translate(31.5125 64.682209)scale(0.1 -0.1)">
       <use xlink:href="#DejaVuSans-56"/>
       <use x="63.623047" xlink:href="#DejaVuSans-48"/>
       <use x="127.246094" xlink:href="#DejaVuSans-48"/>
      </g>
     </g>
    </g>
   </g>
   <g id="line2d_13">
    <path clip-path="url(#p9a4515b91f)" d="M 78.851569 58.000032 
L 277.911669 149.582014 
L 378.862457 260.288671 
L 389.791641 265.84256 
L 216.139601 275.995162 
L 212.189733 282.181925 
L 223.138716 142.788201 
L 396.150523 284.339008 
" style="fill:none;stroke:#ff0000;stroke-linecap:square;stroke-width:0.5;"/>
   </g>
   <g id="patch_3">
    <path d="M 57.6 307.584 
L 57.6 41.472 
" style="fill:none;stroke:#000000;stroke-linecap:square;stroke-linejoin:miter;stroke-width:0.8;"/>
   </g>
   <g id="patch_4">
    <path d="M 414.72 307.584 
L 414.72 41.472 
" style="fill:none;stroke:#000000;stroke-linecap:square;stroke-linejoin:miter;stroke-width:0.8;"/>
   </g>
   <g id="patch_5">
    <path d="M 57.6 307.584 
L 414.72 307.584 
" style="fill:none;stroke:#000000;stroke-linecap:square;stroke-linejoin:miter;stroke-width:0.8;"/>
   </g>
   <g id="patch_6">
    <path d="M 57.6 41.472 
L 414.72 41.472 
" style="fill:none;stroke:#000000;stroke-linecap:square;stroke-linejoin:miter;stroke-width:0.8;"/>
   </g>
   <g id="PathCollection_1">
    <defs>
     <path d="M 0 2.738613 
C 0.726289 2.738613 1.422928 2.450055 1.936492 1.936492 
C 2.450055 1.422928 2.738613 0.726289 2.738613 0 
C 2.738613 -0.726289 2.450055 -1.422928 1.936492 -1.936492 
C 1.422928 -2.450055 0.726289 -2.738613 0 -2.738613 
C -0.726289 -2.738613 -1.422928 -2.450055 -1.936492 -1.936492 
C -2.450055 -1.422928 -2.738613 -0.726289 -2.738613 0 
C -2.738613 0.726289 -2.450055 1.422928 -1.936492 1.936492 
C -1.422928 2.450055 -0.726289 2.738613 0 2.738613 
z
" id="m90e3dd18d6" style="stroke:#ff0000;"/>
    </defs>
    <g clip-path="url(#p9a4515b91f)">
     <use style="fill:#ff0000;stroke:#ff0000;" x="78.851569" xlink:href="#m90e3dd18d6" y="58.000032"/>
     <use style="fill:#ff0000;stroke:#ff0000;" x="277.911669" xlink:href="#m90e3dd18d6" y="149.582014"/>
     <use style="fill:#ff0000;stroke:#ff0000;" x="378.862457" xlink:href="#m90e3dd18d6" y="260.288671"/>
     <use style="fill:#ff0000;stroke:#ff0000;" x="389.791641" xlink:href="#m90e3dd18d6" y="265.84256"/>
     <use style="fill:#ff0000;stroke:#ff0000;" x="216.139601" xlink:href="#m90e3dd18d6" y="275.995162"/>
     <use style="fill:#ff0000;stroke:#ff0000;" x="212.189733" xlink:href="#m90e3dd18d6" y="282.181925"/>
     <use style="fill:#ff0000;stroke:#ff0000;" x="223.138716" xlink:href="#m90e3dd18d6" y="142.788201"/>
     <use style="fill:#ff0000;stroke:#ff0000;" x="396.150523" xlink:href="#m90e3dd18d6" y="284.339008"/>
    </g>
   </g>
   <g id="text_12">
    <!-- (92) Subject: s27, Known = False, Degree = 2, Duration = 0.1 -->
    <defs>
     <path d="M 31 75.875 
Q 24.46875 64.65625 21.28125 53.65625 
Q 18.109375 42.671875 18.109375 31.390625 
Q 18.109375 20.125 21.3125 9.0625 
Q 24.515625 -2 31 -13.1875 
L 23.1875 -13.1875 
Q 15.875 -1.703125 12.234375 9.375 
Q 8.59375 20.453125 8.59375 31.390625 
Q 8.59375 42.28125 12.203125 53.3125 
Q 15.828125 64.359375 23.1875 75.875 
z
" id="DejaVuSans-40"/>
     <path d="M 10.984375 1.515625 
L 10.984375 10.5 
Q 14.703125 8.734375 18.5 7.8125 
Q 22.3125 6.890625 25.984375 6.890625 
Q 35.75 6.890625 40.890625 13.453125 
Q 46.046875 20.015625 46.78125 33.40625 
Q 43.953125 29.203125 39.59375 26.953125 
Q 35.25 24.703125 29.984375 24.703125 
Q 19.046875 24.703125 12.671875 31.3125 
Q 6.296875 37.9375 6.296875 49.421875 
Q 6.296875 60.640625 12.9375 67.421875 
Q 19.578125 74.21875 30.609375 74.21875 
Q 43.265625 74.21875 49.921875 64.515625 
Q 56.59375 54.828125 56.59375 36.375 
Q 56.59375 19.140625 48.40625 8.859375 
Q 40.234375 -1.421875 26.421875 -1.421875 
Q 22.703125 -1.421875 18.890625 -0.6875 
Q 15.09375 0.046875 10.984375 1.515625 
z
M 30.609375 32.421875 
Q 37.25 32.421875 41.125 36.953125 
Q 45.015625 41.5 45.015625 49.421875 
Q 45.015625 57.28125 41.125 61.84375 
Q 37.25 66.40625 30.609375 66.40625 
Q 23.96875 66.40625 20.09375 61.84375 
Q 16.21875 57.28125 16.21875 49.421875 
Q 16.21875 41.5 20.09375 36.953125 
Q 23.96875 32.421875 30.609375 32.421875 
z
" id="DejaVuSans-57"/>
     <path d="M 8.015625 75.875 
L 15.828125 75.875 
Q 23.140625 64.359375 26.78125 53.3125 
Q 30.421875 42.28125 30.421875 31.390625 
Q 30.421875 20.453125 26.78125 9.375 
Q 23.140625 -1.703125 15.828125 -13.1875 
L 8.015625 -13.1875 
Q 14.5 -2 17.703125 9.0625 
Q 20.90625 20.125 20.90625 31.390625 
Q 20.90625 42.671875 17.703125 53.65625 
Q 14.5 64.65625 8.015625 75.875 
z
" id="DejaVuSans-41"/>
     <path id="DejaVuSans-32"/>
     <path d="M 53.515625 70.515625 
L 53.515625 60.890625 
Q 47.90625 63.578125 42.921875 64.890625 
Q 37.9375 66.21875 33.296875 66.21875 
Q 25.25 66.21875 20.875 63.09375 
Q 16.5 59.96875 16.5 54.203125 
Q 16.5 49.359375 19.40625 46.890625 
Q 22.3125 44.4375 30.421875 42.921875 
L 36.375 41.703125 
Q 47.40625 39.59375 52.65625 34.296875 
Q 57.90625 29 57.90625 20.125 
Q 57.90625 9.515625 50.796875 4.046875 
Q 43.703125 -1.421875 29.984375 -1.421875 
Q 24.8125 -1.421875 18.96875 -0.25 
Q 13.140625 0.921875 6.890625 3.21875 
L 6.890625 13.375 
Q 12.890625 10.015625 18.65625 8.296875 
Q 24.421875 6.59375 29.984375 6.59375 
Q 38.421875 6.59375 43.015625 9.90625 
Q 47.609375 13.234375 47.609375 19.390625 
Q 47.609375 24.75 44.3125 27.78125 
Q 41.015625 30.8125 33.5 32.328125 
L 27.484375 33.5 
Q 16.453125 35.6875 11.515625 40.375 
Q 6.59375 45.0625 6.59375 53.421875 
Q 6.59375 63.09375 13.40625 68.65625 
Q 20.21875 74.21875 32.171875 74.21875 
Q 37.3125 74.21875 42.625 73.28125 
Q 47.953125 72.359375 53.515625 70.515625 
z
" id="DejaVuSans-83"/>
     <path d="M 8.5 21.578125 
L 8.5 54.6875 
L 17.484375 54.6875 
L 17.484375 21.921875 
Q 17.484375 14.15625 20.5 10.265625 
Q 23.53125 6.390625 29.59375 6.390625 
Q 36.859375 6.390625 41.078125 11.03125 
Q 45.3125 15.671875 45.3125 23.6875 
L 45.3125 54.6875 
L 54.296875 54.6875 
L 54.296875 0 
L 45.3125 0 
L 45.3125 8.40625 
Q 42.046875 3.421875 37.71875 1 
Q 33.40625 -1.421875 27.6875 -1.421875 
Q 18.265625 -1.421875 13.375 4.4375 
Q 8.5 10.296875 8.5 21.578125 
z
M 31.109375 56 
z
" id="DejaVuSans-117"/>
     <path d="M 48.6875 27.296875 
Q 48.6875 37.203125 44.609375 42.84375 
Q 40.53125 48.484375 33.40625 48.484375 
Q 26.265625 48.484375 22.1875 42.84375 
Q 18.109375 37.203125 18.109375 27.296875 
Q 18.109375 17.390625 22.1875 11.75 
Q 26.265625 6.109375 33.40625 6.109375 
Q 40.53125 6.109375 44.609375 11.75 
Q 48.6875 17.390625 48.6875 27.296875 
z
M 18.109375 46.390625 
Q 20.953125 51.265625 25.265625 53.625 
Q 29.59375 56 35.59375 56 
Q 45.5625 56 51.78125 48.09375 
Q 58.015625 40.1875 58.015625 27.296875 
Q 58.015625 14.40625 51.78125 6.484375 
Q 45.5625 -1.421875 35.59375 -1.421875 
Q 29.59375 -1.421875 25.265625 0.953125 
Q 20.953125 3.328125 18.109375 8.203125 
L 18.109375 0 
L 9.078125 0 
L 9.078125 75.984375 
L 18.109375 75.984375 
z
" id="DejaVuSans-98"/>
     <path d="M 9.421875 54.6875 
L 18.40625 54.6875 
L 18.40625 -0.984375 
Q 18.40625 -11.421875 14.421875 -16.109375 
Q 10.453125 -20.796875 1.609375 -20.796875 
L -1.8125 -20.796875 
L -1.8125 -13.1875 
L 0.59375 -13.1875 
Q 5.71875 -13.1875 7.5625 -10.8125 
Q 9.421875 -8.453125 9.421875 -0.984375 
z
M 9.421875 75.984375 
L 18.40625 75.984375 
L 18.40625 64.59375 
L 9.421875 64.59375 
z
" id="DejaVuSans-106"/>
     <path d="M 56.203125 29.59375 
L 56.203125 25.203125 
L 14.890625 25.203125 
Q 15.484375 15.921875 20.484375 11.0625 
Q 25.484375 6.203125 34.421875 6.203125 
Q 39.59375 6.203125 44.453125 7.46875 
Q 49.3125 8.734375 54.109375 11.28125 
L 54.109375 2.78125 
Q 49.265625 0.734375 44.1875 -0.34375 
Q 39.109375 -1.421875 33.890625 -1.421875 
Q 20.796875 -1.421875 13.15625 6.1875 
Q 5.515625 13.8125 5.515625 26.8125 
Q 5.515625 40.234375 12.765625 48.109375 
Q 20.015625 56 32.328125 56 
Q 43.359375 56 49.78125 48.890625 
Q 56.203125 41.796875 56.203125 29.59375 
z
M 47.21875 32.234375 
Q 47.125 39.59375 43.09375 43.984375 
Q 39.0625 48.390625 32.421875 48.390625 
Q 24.90625 48.390625 20.390625 44.140625 
Q 15.875 39.890625 15.1875 32.171875 
z
" id="DejaVuSans-101"/>
     <path d="M 48.78125 52.59375 
L 48.78125 44.1875 
Q 44.96875 46.296875 41.140625 47.34375 
Q 37.3125 48.390625 33.40625 48.390625 
Q 24.65625 48.390625 19.8125 42.84375 
Q 14.984375 37.3125 14.984375 27.296875 
Q 14.984375 17.28125 19.8125 11.734375 
Q 24.65625 6.203125 33.40625 6.203125 
Q 37.3125 6.203125 41.140625 7.25 
Q 44.96875 8.296875 48.78125 10.40625 
L 48.78125 2.09375 
Q 45.015625 0.34375 40.984375 -0.53125 
Q 36.96875 -1.421875 32.421875 -1.421875 
Q 20.0625 -1.421875 12.78125 6.34375 
Q 5.515625 14.109375 5.515625 27.296875 
Q 5.515625 40.671875 12.859375 48.328125 
Q 20.21875 56 33.015625 56 
Q 37.15625 56 41.109375 55.140625 
Q 45.0625 54.296875 48.78125 52.59375 
z
" id="DejaVuSans-99"/>
     <path d="M 18.3125 70.21875 
L 18.3125 54.6875 
L 36.8125 54.6875 
L 36.8125 47.703125 
L 18.3125 47.703125 
L 18.3125 18.015625 
Q 18.3125 11.328125 20.140625 9.421875 
Q 21.96875 7.515625 27.59375 7.515625 
L 36.8125 7.515625 
L 36.8125 0 
L 27.59375 0 
Q 17.1875 0 13.234375 3.875 
Q 9.28125 7.765625 9.28125 18.015625 
L 9.28125 47.703125 
L 2.6875 47.703125 
L 2.6875 54.6875 
L 9.28125 54.6875 
L 9.28125 70.21875 
z
" id="DejaVuSans-116"/>
     <path d="M 11.71875 12.40625 
L 22.015625 12.40625 
L 22.015625 0 
L 11.71875 0 
z
M 11.71875 51.703125 
L 22.015625 51.703125 
L 22.015625 39.3125 
L 11.71875 39.3125 
z
" id="DejaVuSans-58"/>
     <path d="M 44.28125 53.078125 
L 44.28125 44.578125 
Q 40.484375 46.53125 36.375 47.5 
Q 32.28125 48.484375 27.875 48.484375 
Q 21.1875 48.484375 17.84375 46.4375 
Q 14.5 44.390625 14.5 40.28125 
Q 14.5 37.15625 16.890625 35.375 
Q 19.28125 33.59375 26.515625 31.984375 
L 29.59375 31.296875 
Q 39.15625 29.25 43.1875 25.515625 
Q 47.21875 21.78125 47.21875 15.09375 
Q 47.21875 7.46875 41.1875 3.015625 
Q 35.15625 -1.421875 24.609375 -1.421875 
Q 20.21875 -1.421875 15.453125 -0.5625 
Q 10.6875 0.296875 5.421875 2 
L 5.421875 11.28125 
Q 10.40625 8.6875 15.234375 7.390625 
Q 20.0625 6.109375 24.8125 6.109375 
Q 31.15625 6.109375 34.5625 8.28125 
Q 37.984375 10.453125 37.984375 14.40625 
Q 37.984375 18.0625 35.515625 20.015625 
Q 33.0625 21.96875 24.703125 23.78125 
L 21.578125 24.515625 
Q 13.234375 26.265625 9.515625 29.90625 
Q 5.8125 33.546875 5.8125 39.890625 
Q 5.8125 47.609375 11.28125 51.796875 
Q 16.75 56 26.8125 56 
Q 31.78125 56 36.171875 55.265625 
Q 40.578125 54.546875 44.28125 53.078125 
z
" id="DejaVuSans-115"/>
     <path d="M 8.203125 72.90625 
L 55.078125 72.90625 
L 55.078125 68.703125 
L 28.609375 0 
L 18.3125 0 
L 43.21875 64.59375 
L 8.203125 64.59375 
z
" id="DejaVuSans-55"/>
     <path d="M 11.71875 12.40625 
L 22.015625 12.40625 
L 22.015625 4 
L 14.015625 -11.625 
L 7.71875 -11.625 
L 11.71875 4 
z
" id="DejaVuSans-44"/>
     <path d="M 9.8125 72.90625 
L 19.671875 72.90625 
L 19.671875 42.09375 
L 52.390625 72.90625 
L 65.09375 72.90625 
L 28.90625 38.921875 
L 67.671875 0 
L 54.6875 0 
L 19.671875 35.109375 
L 19.671875 0 
L 9.8125 0 
z
" id="DejaVuSans-75"/>
     <path d="M 54.890625 33.015625 
L 54.890625 0 
L 45.90625 0 
L 45.90625 32.71875 
Q 45.90625 40.484375 42.875 44.328125 
Q 39.84375 48.1875 33.796875 48.1875 
Q 26.515625 48.1875 22.3125 43.546875 
Q 18.109375 38.921875 18.109375 30.90625 
L 18.109375 0 
L 9.078125 0 
L 9.078125 54.6875 
L 18.109375 54.6875 
L 18.109375 46.1875 
Q 21.34375 51.125 25.703125 53.5625 
Q 30.078125 56 35.796875 56 
Q 45.21875 56 50.046875 50.171875 
Q 54.890625 44.34375 54.890625 33.015625 
z
" id="DejaVuSans-110"/>
     <path d="M 30.609375 48.390625 
Q 23.390625 48.390625 19.1875 42.75 
Q 14.984375 37.109375 14.984375 27.296875 
Q 14.984375 17.484375 19.15625 11.84375 
Q 23.34375 6.203125 30.609375 6.203125 
Q 37.796875 6.203125 41.984375 11.859375 
Q 46.1875 17.53125 46.1875 27.296875 
Q 46.1875 37.015625 41.984375 42.703125 
Q 37.796875 48.390625 30.609375 48.390625 
z
M 30.609375 56 
Q 42.328125 56 49.015625 48.375 
Q 55.71875 40.765625 55.71875 27.296875 
Q 55.71875 13.875 49.015625 6.21875 
Q 42.328125 -1.421875 30.609375 -1.421875 
Q 18.84375 -1.421875 12.171875 6.21875 
Q 5.515625 13.875 5.515625 27.296875 
Q 5.515625 40.765625 12.171875 48.375 
Q 18.84375 56 30.609375 56 
z
" id="DejaVuSans-111"/>
     <path d="M 4.203125 54.6875 
L 13.1875 54.6875 
L 24.421875 12.015625 
L 35.59375 54.6875 
L 46.1875 54.6875 
L 57.421875 12.015625 
L 68.609375 54.6875 
L 77.59375 54.6875 
L 63.28125 0 
L 52.6875 0 
L 40.921875 44.828125 
L 29.109375 0 
L 18.5 0 
z
" id="DejaVuSans-119"/>
     <path d="M 10.59375 45.40625 
L 73.1875 45.40625 
L 73.1875 37.203125 
L 10.59375 37.203125 
z
M 10.59375 25.484375 
L 73.1875 25.484375 
L 73.1875 17.1875 
L 10.59375 17.1875 
z
" id="DejaVuSans-61"/>
     <path d="M 9.8125 72.90625 
L 51.703125 72.90625 
L 51.703125 64.59375 
L 19.671875 64.59375 
L 19.671875 43.109375 
L 48.578125 43.109375 
L 48.578125 34.8125 
L 19.671875 34.8125 
L 19.671875 0 
L 9.8125 0 
z
" id="DejaVuSans-70"/>
     <path d="M 34.28125 27.484375 
Q 23.390625 27.484375 19.1875 25 
Q 14.984375 22.515625 14.984375 16.5 
Q 14.984375 11.71875 18.140625 8.90625 
Q 21.296875 6.109375 26.703125 6.109375 
Q 34.1875 6.109375 38.703125 11.40625 
Q 43.21875 16.703125 43.21875 25.484375 
L 43.21875 27.484375 
z
M 52.203125 31.203125 
L 52.203125 0 
L 43.21875 0 
L 43.21875 8.296875 
Q 40.140625 3.328125 35.546875 0.953125 
Q 30.953125 -1.421875 24.3125 -1.421875 
Q 15.921875 -1.421875 10.953125 3.296875 
Q 6 8.015625 6 15.921875 
Q 6 25.140625 12.171875 29.828125 
Q 18.359375 34.515625 30.609375 34.515625 
L 43.21875 34.515625 
L 43.21875 35.40625 
Q 43.21875 41.609375 39.140625 45 
Q 35.0625 48.390625 27.6875 48.390625 
Q 23 48.390625 18.546875 47.265625 
Q 14.109375 46.140625 10.015625 43.890625 
L 10.015625 52.203125 
Q 14.9375 54.109375 19.578125 55.046875 
Q 24.21875 56 28.609375 56 
Q 40.484375 56 46.34375 49.84375 
Q 52.203125 43.703125 52.203125 31.203125 
z
" id="DejaVuSans-97"/>
     <path d="M 9.421875 75.984375 
L 18.40625 75.984375 
L 18.40625 0 
L 9.421875 0 
z
" id="DejaVuSans-108"/>
     <path d="M 19.671875 64.796875 
L 19.671875 8.109375 
L 31.59375 8.109375 
Q 46.6875 8.109375 53.6875 14.9375 
Q 60.6875 21.78125 60.6875 36.53125 
Q 60.6875 51.171875 53.6875 57.984375 
Q 46.6875 64.796875 31.59375 64.796875 
z
M 9.8125 72.90625 
L 30.078125 72.90625 
Q 51.265625 72.90625 61.171875 64.09375 
Q 71.09375 55.28125 71.09375 36.53125 
Q 71.09375 17.671875 61.125 8.828125 
Q 51.171875 0 30.078125 0 
L 9.8125 0 
z
" id="DejaVuSans-68"/>
     <path d="M 45.40625 27.984375 
Q 45.40625 37.75 41.375 43.109375 
Q 37.359375 48.484375 30.078125 48.484375 
Q 22.859375 48.484375 18.828125 43.109375 
Q 14.796875 37.75 14.796875 27.984375 
Q 14.796875 18.265625 18.828125 12.890625 
Q 22.859375 7.515625 30.078125 7.515625 
Q 37.359375 7.515625 41.375 12.890625 
Q 45.40625 18.265625 45.40625 27.984375 
z
M 54.390625 6.78125 
Q 54.390625 -7.171875 48.1875 -13.984375 
Q 42 -20.796875 29.203125 -20.796875 
Q 24.46875 -20.796875 20.265625 -20.09375 
Q 16.0625 -19.390625 12.109375 -17.921875 
L 12.109375 -9.1875 
Q 16.0625 -11.328125 19.921875 -12.34375 
Q 23.78125 -13.375 27.78125 -13.375 
Q 36.625 -13.375 41.015625 -8.765625 
Q 45.40625 -4.15625 45.40625 5.171875 
L 45.40625 9.625 
Q 42.625 4.78125 38.28125 2.390625 
Q 33.9375 0 27.875 0 
Q 17.828125 0 11.671875 7.65625 
Q 5.515625 15.328125 5.515625 27.984375 
Q 5.515625 40.671875 11.671875 48.328125 
Q 17.828125 56 27.875 56 
Q 33.9375 56 38.28125 53.609375 
Q 42.625 51.21875 45.40625 46.390625 
L 45.40625 54.6875 
L 54.390625 54.6875 
z
" id="DejaVuSans-103"/>
     <path d="M 41.109375 46.296875 
Q 39.59375 47.171875 37.8125 47.578125 
Q 36.03125 48 33.890625 48 
Q 26.265625 48 22.1875 43.046875 
Q 18.109375 38.09375 18.109375 28.8125 
L 18.109375 0 
L 9.078125 0 
L 9.078125 54.6875 
L 18.109375 54.6875 
L 18.109375 46.1875 
Q 20.953125 51.171875 25.484375 53.578125 
Q 30.03125 56 36.53125 56 
Q 37.453125 56 38.578125 55.875 
Q 39.703125 55.765625 41.0625 55.515625 
z
" id="DejaVuSans-114"/>
     <path d="M 9.421875 54.6875 
L 18.40625 54.6875 
L 18.40625 0 
L 9.421875 0 
z
M 9.421875 75.984375 
L 18.40625 75.984375 
L 18.40625 64.59375 
L 9.421875 64.59375 
z
" id="DejaVuSans-105"/>
     <path d="M 10.6875 12.40625 
L 21 12.40625 
L 21 0 
L 10.6875 0 
z
" id="DejaVuSans-46"/>
     <path d="M 12.40625 8.296875 
L 28.515625 8.296875 
L 28.515625 63.921875 
L 10.984375 60.40625 
L 10.984375 69.390625 
L 28.421875 72.90625 
L 38.28125 72.90625 
L 38.28125 8.296875 
L 54.390625 8.296875 
L 54.390625 0 
L 12.40625 0 
z
" id="DejaVuSans-49"/>
    </defs>
    <g transform="translate(49.741875 35.472)scale(0.12 -0.12)">
     <use xlink:href="#DejaVuSans-40"/>
     <use x="39.013672" xlink:href="#DejaVuSans-57"/>
     <use x="102.636719" xlink:href="#DejaVuSans-50"/>
     <use x="166.259766" xlink:href="#DejaVuSans-41"/>
     <use x="205.273438" xlink:href="#DejaVuSans-32"/>
     <use x="237.060547" xlink:href="#DejaVuSans-83"/>
     <use x="300.537109" xlink:href="#DejaVuSans-117"/>
     <use x="363.916016" xlink:href="#DejaVuSans-98"/>
     <use x="427.392578" xlink:href="#DejaVuSans-106"/>
     <use x="455.175781" xlink:href="#DejaVuSans-101"/>
     <use x="516.699219" xlink:href="#DejaVuSans-99"/>
     <use x="571.679688" xlink:href="#DejaVuSans-116"/>
     <use x="610.888672" xlink:href="#DejaVuSans-58"/>
     <use x="644.580078" xlink:href="#DejaVuSans-32"/>
     <use x="676.367188" xlink:href="#DejaVuSans-115"/>
     <use x="728.466797" xlink:href="#DejaVuSans-50"/>
     <use x="792.089844" xlink:href="#DejaVuSans-55"/>
     <use x="855.712891" xlink:href="#DejaVuSans-44"/>
     <use x="887.5" xlink:href="#DejaVuSans-32"/>
     <use x="919.287109" xlink:href="#DejaVuSans-75"/>
     <use x="984.863281" xlink:href="#DejaVuSans-110"/>
     <use x="1048.242188" xlink:href="#DejaVuSans-111"/>
     <use x="1109.423828" xlink:href="#DejaVuSans-119"/>
     <use x="1191.210938" xlink:href="#DejaVuSans-110"/>
     <use x="1254.589844" xlink:href="#DejaVuSans-32"/>
     <use x="1286.376953" xlink:href="#DejaVuSans-61"/>
     <use x="1370.166016" xlink:href="#DejaVuSans-32"/>
     <use x="1401.953125" xlink:href="#DejaVuSans-70"/>
     <use x="1459.332031" xlink:href="#DejaVuSans-97"/>
     <use x="1520.611328" xlink:href="#DejaVuSans-108"/>
     <use x="1548.394531" xlink:href="#DejaVuSans-115"/>
     <use x="1600.494141" xlink:href="#DejaVuSans-101"/>
     <use x="1662.017578" xlink:href="#DejaVuSans-44"/>
     <use x="1693.804688" xlink:href="#DejaVuSans-32"/>
     <use x="1725.591797" xlink:href="#DejaVuSans-68"/>
     <use x="1802.59375" xlink:href="#DejaVuSans-101"/>
     <use x="1864.117188" xlink:href="#DejaVuSans-103"/>
     <use x="1927.59375" xlink:href="#DejaVuSans-114"/>
     <use x="1968.675781" xlink:href="#DejaVuSans-101"/>
     <use x="2030.199219" xlink:href="#DejaVuSans-101"/>
     <use x="2091.722656" xlink:href="#DejaVuSans-32"/>
     <use x="2123.509766" xlink:href="#DejaVuSans-61"/>
     <use x="2207.298828" xlink:href="#DejaVuSans-32"/>
     <use x="2239.085938" xlink:href="#DejaVuSans-50"/>
     <use x="2302.708984" xlink:href="#DejaVuSans-44"/>
     <use x="2334.496094" xlink:href="#DejaVuSans-32"/>
     <use x="2366.283203" xlink:href="#DejaVuSans-68"/>
     <use x="2443.285156" xlink:href="#DejaVuSans-117"/>
     <use x="2506.664062" xlink:href="#DejaVuSans-114"/>
     <use x="2547.777344" xlink:href="#DejaVuSans-97"/>
     <use x="2609.056641" xlink:href="#DejaVuSans-116"/>
     <use x="2648.265625" xlink:href="#DejaVuSans-105"/>
     <use x="2676.048828" xlink:href="#DejaVuSans-111"/>
     <use x="2737.230469" xlink:href="#DejaVuSans-110"/>
     <use x="2800.609375" xlink:href="#DejaVuSans-32"/>
     <use x="2832.396484" xlink:href="#DejaVuSans-61"/>
     <use x="2916.185547" xlink:href="#DejaVuSans-32"/>
     <use x="2947.972656" xlink:href="#DejaVuSans-48"/>
     <use x="3011.595703" xlink:href="#DejaVuSans-46"/>
     <use x="3043.382812" xlink:href="#DejaVuSans-49"/>
    </g>
   </g>
  </g>
 </g>
 <defs>
  <clipPath id="p9a4515b91f">
   <rect height="266.112" width="357.12" x="57.6" y="41.472"/>
  </clipPath>
 </defs>
</svg>
