<?xml version="1.0" encoding="utf-8" standalone="no"?>
<!DOCTYPE svg PUBLIC "-//W3C//DTD SVG 1.1//EN"
  "http://www.w3.org/Graphics/SVG/1.1/DTD/svg11.dtd">
<!-- Created with matplotlib (https://matplotlib.org/) -->
<svg height="345.6pt" version="1.1" viewBox="0 0 460.8 345.6" width="460.8pt" xmlns="http://www.w3.org/2000/svg" xmlns:xlink="http://www.w3.org/1999/xlink">
 <defs>
  <style type="text/css">
*{stroke-linecap:butt;stroke-linejoin:round;}
  </style>
 </defs>
 <g id="figure_1">
  <g id="patch_1">
   <path d="M 0 345.6 
L 460.8 345.6 
L 460.8 0 
L 0 0 
z
" style="fill:#ffffff;"/>
  </g>
  <g id="axes_1">
   <g id="patch_2">
    <path d="M 57.6 307.584 
L 414.72 307.584 
L 414.72 41.472 
L 57.6 41.472 
z
" style="fill:#ffffff;"/>
   </g>
   <g id="line2d_1">
    <path clip-path="url(#p241c4c03d5)" d="M 74.237552 294.652674 
L 74.439964 293.821306 
L 74.841812 293.544184 
L 75.044225 293.821306 
L 74.841812 294.098429 
L 74.642377 293.544184 
L 74.642377 292.158571 
L 74.439964 291.881449 
L 74.03514 293.544184 
L 74.03514 293.544184 
L 74.642377 293.544184 
L 74.841812 293.267061 
L 74.841812 293.267061 
L 74.841812 294.098429 
L 74.841812 293.821306 
L 74.439964 293.267061 
L 74.237552 293.544184 
L 74.642377 294.098429 
L 74.642377 294.098429 
L 75.044225 293.821306 
L 75.246637 293.267061 
L 75.044225 293.544184 
L 75.044225 292.989939 
L 75.246637 292.712816 
L 74.841812 292.989939 
L 74.439964 293.821306 
L 74.439964 294.375551 
L 74.439964 294.375551 
L 74.841812 294.375551 
L 74.841812 294.375551 
L 74.642377 294.098429 
L 74.642377 293.544184 
L 74.439964 293.267061 
L 74.841812 292.712816 
L 75.044225 292.989939 
L 74.841812 293.267061 
L 75.044225 293.544184 
L 75.044225 293.544184 
L 74.841812 293.821306 
L 74.841812 292.712816 
L 74.642377 292.158571 
L 74.237552 292.435694 
L 74.237552 292.712816 
L 74.237552 292.712816 
L 74.03514 293.267061 
L 74.841812 294.375551 
L 75.044225 294.098429 
L 75.044225 293.267061 
L 74.841812 292.989939 
L 74.841812 293.267061 
L 75.246637 293.544184 
L 75.44905 293.544184 
L 75.044225 293.544184 
L 74.841812 294.098429 
L 75.044225 294.375551 
L 75.044225 294.098429 
L 75.246637 293.821306 
L 75.44905 293.267061 
L 74.841812 293.267061 
L 74.237552 291.881449 
L 73.832727 291.323245 
L 75.44905 292.158571 
L 75.44905 292.712816 
L 75.044225 292.989939 
L 74.841812 293.267061 
L 74.841812 292.989939 
L 74.642377 292.712816 
L 74.642377 292.435694 
L 75.044225 292.435694 
L 75.246637 292.158571 
L 74.642377 292.989939 
L 74.237552 293.821306 
L 74.237552 293.821306 
L 74.237552 293.267061 
L 74.642377 292.712816 
L 75.246637 292.158571 
L 75.44905 292.158571 
L 75.044225 292.712816 
L 74.642377 293.544184 
L 74.237552 294.098429 
L 74.03514 294.098429 
L 74.237552 293.821306 
L 74.642377 293.544184 
L 75.246637 293.544184 
L 75.651462 292.989939 
L 75.651462 292.712816 
L 75.246637 293.821306 
L 75.246637 293.544184 
L 75.246637 292.989939 
L 75.44905 292.989939 
L 75.246637 292.989939 
L 75.246637 293.544184 
L 75.651462 294.375551 
L 75.651462 294.375551 
L 75.246637 294.375551 
L 75.246637 293.821306 
L 75.44905 293.267061 
L 75.44905 293.267061 
L 75.850898 292.712816 
L 76.05331 292.712816 
L 76.05331 293.821306 
L 76.05331 293.544184 
L 75.44905 293.544184 
L 74.841812 293.821306 
L 74.841812 294.375551 
L 74.841812 293.267061 
L 75.246637 293.267061 
L 75.246637 293.821306 
L 75.44905 294.652674 
L 75.246637 294.929796 
L 74.642377 294.929796 
L 74.642377 294.375551 
L 75.044225 294.098429 
L 75.044225 293.544184 
L 75.246637 294.098429 
L 75.044225 294.929796 
L 75.044225 293.544184 
L 74.841812 293.267061 
L 74.841812 293.821306 
L 75.246637 293.821306 
L 75.44905 293.544184 
L 75.246637 293.267061 
L 74.841812 293.267061 
L 74.642377 293.821306 
L 74.841812 294.652674 
L 74.841812 295.210878 
L 74.642377 295.210878 
L 74.439964 295.488 
L 75.246637 294.929796 
L 75.651462 293.821306 
L 75.246637 293.267061 
L 74.841812 292.989939 
L 74.642377 292.435694 
L 75.044225 293.267061 
L 75.044225 293.267061 
L 75.246637 293.267061 
L 75.44905 293.544184 
L 75.651462 294.375551 
L 75.651462 294.375551 
L 75.651462 293.544184 
L 75.44905 293.544184 
L 76.05331 294.375551 
L 76.05331 294.098429 
L 75.44905 294.098429 
L 75.044225 293.821306 
L 74.841812 293.544184 
L 75.246637 294.098429 
L 75.850898 294.652674 
L 76.05331 295.210878 
L 75.651462 295.210878 
L 74.642377 294.652674 
L 74.439964 294.929796 
L 74.841812 294.929796 
L 75.44905 293.544184 
L 75.651462 293.544184 
L 75.44905 293.821306 
L 75.044225 293.821306 
L 75.246637 293.821306 
L 75.651462 293.544184 
L 76.255722 293.544184 
L 76.458135 294.098429 
L 76.05331 294.098429 
L 76.255722 294.098429 
L 76.458135 293.821306 
L 76.05331 293.544184 
L 75.246637 293.544184 
L 75.850898 294.098429 
L 76.458135 294.375551 
L 76.660547 294.652674 
L 76.862959 294.375551 
L 76.862959 293.821306 
L 76.458135 293.267061 
L 76.05331 292.989939 
L 76.05331 295.210878 
L 75.850898 294.652674 
L 76.05331 294.929796 
L 76.255722 294.929796 
L 75.850898 293.267061 
L 75.850898 293.267061 
L 77.062395 294.375551 
L 77.46722 294.929796 
L 77.669632 294.929796 
L 77.46722 295.210878 
L 77.062395 295.488 
L 76.862959 295.488 
L 76.660547 295.210878 
L 76.660547 294.929796 
L 76.458135 294.375551 
L 76.458135 293.821306 
L 77.062395 293.821306 
L 78.074457 295.488 
L 77.872045 295.210878 
L 77.46722 294.098429 
L 77.872045 292.989939 
L 79.083542 291.881449 
L 80.497452 290.769 
L 82.91747 289.383388 
L 86.150115 287.716694 
L 95.639683 282.447408 
L 101.089933 279.11798 
L 106.945008 274.680061 
L 120.271481 263.583286 
L 128.347139 256.924429 
L 137.22947 249.988449 
L 155.19952 235.285122 
L 164.081851 227.240653 
L 172.967158 220.027551 
L 181.444664 213.922939 
L 202.846795 195.335939 
L 208.300022 189.508449 
L 213.143035 184.793408 
L 217.786613 180.632612 
L 222.230755 177.026061 
L 229.901588 171.198571 
L 232.729408 168.70051 
L 234.747578 166.760653 
L 236.161488 165.648204 
L 236.765749 164.262592 
L 236.765749 163.431224 
L 236.765749 164.539714 
L 236.363901 166.483531 
L 235.756664 167.59202 
L 234.747578 167.869143 
L 233.738493 168.423388 
L 232.729408 169.535837 
L 231.720323 170.367204 
L 230.910674 171.198571 
L 229.901588 171.752816 
L 229.094916 172.029939 
L 228.487678 172.584184 
L 228.288243 173.41951 
L 228.487678 174.250878 
L 228.892503 174.805122 
L 229.094916 174.528 
L 228.892503 173.973755 
L 228.487678 173.41951 
L 227.276181 173.973755 
L 226.469508 174.528 
L 225.662835 174.528 
L 225.460423 175.082245 
L 225.460423 176.471816 
L 225.662835 177.026061 
L 225.662835 177.026061 
L 225.460423 177.580306 
L 225.055598 177.857429 
L 222.835016 177.303184 
L 222.835016 177.303184 
L 222.433168 177.857429 
L 221.421106 178.411673 
L 220.816845 178.965918 
L 220.412021 179.797286 
L 220.209608 179.797286 
L 220.614433 179.520163 
L 220.816845 179.243041 
L 220.816845 179.243041 
L 220.412021 179.520163 
L 220.010172 180.078367 
L 220.010172 180.632612 
L 219.80776 180.909735 
L 219.605348 180.909735 
L 219.200523 180.35549 
L 218.998111 180.35549 
L 218.798675 180.909735 
L 218.798675 181.46398 
L 218.998111 182.018225 
L 219.200523 182.018225 
L 219.200523 182.018225 
L 219.200523 182.295347 
L 218.998111 182.018225 
L 218.596263 181.741102 
L 217.989026 181.46398 
L 217.587177 181.46398 
L 217.989026 181.741102 
L 217.989026 182.018225 
L 217.786613 182.849592 
L 217.786613 183.962041 
L 217.786613 183.403837 
L 217.587177 183.126714 
L 217.182353 183.403837 
L 216.575116 183.403837 
L 216.173268 183.126714 
L 215.768443 182.295347 
L 215.366595 182.572469 
L 214.759358 183.403837 
L 214.96177 183.684918 
L 215.164182 183.684918 
L 215.970855 182.572469 
L 216.173268 182.572469 
L 216.37568 182.849592 
L 216.37568 184.793408 
L 215.970855 185.624776 
L 215.366595 185.901898 
L 214.556945 185.901898 
L 213.952685 185.347653 
L 213.952685 184.793408 
L 213.952685 184.793408 
L 213.54786 185.070531 
L 213.345448 185.347653 
L 213.54786 185.624776 
L 213.750273 185.347653 
L 213.54786 185.624776 
L 213.345448 186.17902 
L 213.54786 186.456143 
L 213.143035 185.901898 
L 212.336363 185.070531 
L 211.931538 185.070531 
L 212.336363 185.347653 
L 212.9436 185.347653 
L 212.9436 185.347653 
L 212.9436 186.17902 
L 213.345448 187.010388 
L 212.741187 186.733265 
L 211.732102 186.733265 
L 210.922453 187.010388 
L 210.520605 187.291469 
L 210.72004 187.568592 
L 211.124865 187.845714 
L 211.327277 187.568592 
L 211.327277 186.456143 
L 210.922453 186.733265 
L 210.922453 187.568592 
L 211.124865 188.122837 
L 211.327277 188.122837 
L 211.124865 188.399959 
L 210.72004 188.677082 
L 210.318192 188.677082 
L 210.318192 188.954204 
L 210.520605 188.954204 
L 210.520605 188.677082 
L 209.710955 188.399959 
L 209.106695 187.845714 
L 208.70187 187.291469 
L 209.710955 188.677082 
L 209.106695 188.677082 
L 208.70187 188.399959 
L 208.499458 188.677082 
L 208.499458 188.399959 
L 208.300022 188.122837 
L 208.499458 188.399959 
L 208.904282 188.677082 
L 209.913368 188.677082 
L 211.732102 188.122837 
L 213.750273 187.010388 
L 215.970855 185.347653 
L 218.596263 183.126714 
L 221.82593 180.909735 
L 226.064683 177.857429 
L 230.508825 174.250878 
L 235.756664 170.644327 
L 248.475899 160.933163 
L 255.34006 154.828551 
L 262.207197 149.282143 
L 269.87803 144.289979 
L 278.1561 138.739612 
L 286.636583 132.635 
L 304.404221 118.485918 
L 313.691376 111.272816 
L 322.168882 105.172163 
L 330.649365 99.898918 
L 338.725023 94.629633 
L 345.994008 89.63351 
L 352.051496 84.918469 
L 357.501746 81.034796 
L 375.674209 69.383775 
L 389.40253 59.949735 
L 395.460017 56.897429 
L 397.076339 55.511816 
L 398.487273 53.568 
L 398.487273 54.403326 
L 398.085425 55.234694 
L 397.6806 55.511816 
L 397.076339 55.788939 
L 396.26669 56.897429 
L 394.855757 58.287 
L 392.83461 59.949735 
L 387.98862 62.724918 
L 386.979535 63.556286 
L 386.172862 64.664776 
L 385.163777 66.331469 
L 384.354127 66.608592 
L 384.55654 66.885714 
L 384.961364 66.608592 
L 385.163777 66.054347 
L 385.565625 65.777224 
L 386.172862 65.500102 
L 386.172862 64.945857 
L 385.163777 64.110531 
L 385.163777 64.110531 
L 385.366189 64.664776 
L 385.163777 65.222979 
L 384.758952 65.500102 
L 384.154692 65.500102 
L 382.740782 66.054347 
L 382.133545 65.500102 
L 382.335957 65.500102 
L 382.740782 66.054347 
L 382.538369 66.885714 
L 381.124459 68.271327 
L 380.922047 68.271327 
L 381.124459 67.994204 
L 381.124459 67.994204 
L 380.722611 67.717082 
L 380.520199 67.439959 
L 380.722611 67.994204 
L 380.722611 68.552408 
L 380.520199 68.82953 
L 380.520199 68.271327 
L 380.520199 68.271327 
L 379.710549 69.383775 
L 379.308701 69.106653 
L 378.701464 68.271327 
L 378.299616 68.82953 
L 378.097204 69.660898 
L 378.097204 70.215143 
L 378.097204 69.660898 
L 377.894792 69.383775 
L 377.489967 69.383775 
L 377.088119 69.93802 
L 376.480882 70.492265 
L 376.079034 71.04651 
L 375.876621 71.04651 
L 376.278469 70.769388 
L 377.088119 69.93802 
L 377.088119 70.492265 
L 377.287554 71.04651 
L 377.287554 70.769388 
L 376.885706 70.769388 
L 375.066972 71.323633 
L 374.665124 71.877878 
L 374.462711 72.436081 
L 374.867536 72.436081 
L 375.269384 72.713204 
L 375.269384 73.544571 
L 375.471797 74.653061 
L 375.471797 74.653061 
L 374.867536 74.098816 
L 373.855474 73.544571 
L 373.048801 73.267449 
L 373.048801 72.990326 
L 373.251214 73.267449 
L 373.251214 74.098816 
L 373.453626 73.821694 
L 373.048801 74.375939 
L 372.039716 75.207306 
L 372.039716 75.484429 
L 371.837304 75.484429 
L 371.634892 75.207306 
L 371.634892 74.653061 
L 372.242129 74.375939 
L 372.444541 74.653061 
L 372.444541 75.207306 
L 372.039716 76.042632 
L 371.432479 76.319755 
L 370.828219 76.319755 
L 370.625806 76.042632 
L 369.414309 76.596877 
L 369.414309 76.596877 
L 369.819134 76.874 
L 370.223958 77.428245 
L 369.819134 76.042632 
L 369.414309 76.042632 
L 369.211897 77.151122 
L 369.414309 76.874 
L 369.616721 77.151122 
L 369.616721 77.428245 
L 369.012461 77.98249 
L 368.405224 78.259612 
L 368.202811 78.536735 
L 368.202811 79.09098 
L 368.607636 79.649183 
L 368.607636 79.372061 
L 369.012461 78.259612 
L 369.012461 77.705367 
L 368.607636 77.705367 
L 368.607636 77.428245 
L 368.810048 77.151122 
L 369.211897 76.874 
L 369.211897 77.151122 
L 368.405224 77.705367 
L 367.800963 78.259612 
L 367.800963 78.813857 
L 368.000399 79.372061 
L 368.000399 80.480551 
L 368.000399 80.203428 
L 367.800963 80.203428 
L 367.800963 79.372061 
L 368.202811 77.98249 
L 367.800963 77.98249 
L 367.598551 77.705367 
L 367.800963 77.98249 
L 367.800963 79.926306 
L 368.202811 79.926306 
L 368.202811 79.09098 
L 368.202811 79.372061 
L 368.405224 80.203428 
L 368.000399 79.372061 
L 367.193726 78.813857 
L 366.991314 78.813857 
L 368.000399 79.372061 
L 368.000399 79.372061 
L 366.991314 79.372061 
L 366.991314 79.926306 
L 366.788902 79.926306 
L 367.396139 79.926306 
L 367.800963 81.034796 
L 368.202811 81.589041 
L 368.202811 81.589041 
L 367.598551 81.589041 
L 366.991314 79.926306 
L 366.589466 80.203428 
L 366.387053 80.203428 
L 366.788902 80.203428 
L 366.788902 80.203428 
L 366.788902 79.926306 
L 366.589466 79.649183 
L 365.779816 79.649183 
L 365.982229 79.926306 
L 366.589466 80.203428 
L 366.788902 79.926306 
L 366.788902 81.311918 
L 366.387053 82.143286 
L 365.982229 81.866163 
L 366.184641 81.034796 
L 366.184641 80.480551 
L 365.982229 80.480551 
L 365.577404 80.757673 
L 365.175556 81.311918 
L 364.973144 81.866163 
L 365.175556 81.866163 
L 365.175556 81.866163 
L 365.377968 81.589041 
L 365.577404 81.034796 
L 365.377968 81.034796 
L 365.377968 81.311918 
L 365.377968 81.311918 
L 365.175556 80.757673 
L 364.770731 80.480551 
L 364.568319 80.480551 
L 364.770731 81.034796 
L 364.568319 81.866163 
L 364.365906 82.143286 
L 363.964058 81.034796 
L 363.761646 81.034796 
L 363.761646 81.311918 
L 364.166471 84.087102 
L 364.365906 83.532857 
L 364.166471 82.978612 
L 363.356821 82.978612 
L 362.752561 83.255735 
L 362.752561 83.532857 
L 362.954973 83.532857 
L 362.954973 84.087102 
L 363.157386 84.087102 
L 362.347736 84.087102 
L 361.945888 83.809979 
L 361.743476 82.978612 
L 361.743476 82.978612 
L 361.743476 84.087102 
L 361.743476 84.087102 
L 361.136239 84.087102 
L 361.136239 84.087102 
L 361.338651 83.809979 
L 361.338651 84.364224 
L 360.933826 84.641347 
L 360.531978 84.364224 
L 360.531978 83.809979 
L 360.329566 83.532857 
L 360.329566 84.641347 
L 360.531978 84.641347 
L 360.329566 84.641347 
L 359.924741 85.472714 
L 359.924741 86.304082 
L 359.722329 86.304082 
L 359.722329 86.585163 
L 360.127153 86.585163 
L 360.531978 85.472714 
L 360.531978 85.472714 
L 360.531978 84.918469 
L 360.933826 83.532857 
L 360.933826 84.364224 
L 360.734391 84.918469 
L 360.734391 85.472714 
L 361.136239 86.026959 
L 361.338651 86.026959 
L 361.136239 85.749837 
L 360.933826 85.749837 
L 360.734391 86.304082 
L 360.933826 86.026959 
L 361.338651 85.472714 
L 361.136239 84.641347 
L 360.329566 84.087102 
L 360.531978 83.532857 
L 361.136239 83.255735 
L 361.136239 84.087102 
L 360.933826 84.364224 
L 361.136239 84.087102 
L 360.933826 83.809979 
L 360.734391 84.087102 
L 360.734391 84.641347 
L 360.933826 85.195592 
L 360.933826 85.195592 
L 361.338651 84.918469 
L 361.338651 84.364224 
L 360.933826 83.809979 
L 360.933826 83.809979 
L 361.338651 83.809979 
L 361.541063 84.364224 
L 361.136239 84.364224 
L 360.531978 84.087102 
L 360.933826 83.809979 
L 361.541063 84.087102 
L 361.743476 84.918469 
L 361.743476 85.472714 
L 361.945888 85.472714 
L 361.945888 84.918469 
L 361.743476 84.641347 
L 361.743476 84.641347 
L 361.743476 84.364224 
L 361.541063 84.087102 
L 361.541063 84.087102 
L 361.541063 84.641347 
L 361.743476 84.641347 
L 362.145324 84.364224 
L 361.743476 84.641347 
L 361.338651 84.364224 
L 361.136239 83.532857 
L 360.329566 83.532857 
L 361.338651 83.532857 
L 361.338651 83.532857 
L 361.338651 82.697531 
L 360.933826 82.697531 
L 360.531978 83.532857 
L 359.924741 84.087102 
L 359.924741 84.364224 
L 360.329566 84.087102 
L 360.933826 84.087102 
L 360.933826 84.364224 
L 359.722329 84.918469 
L 359.722329 84.641347 
L 359.924741 84.087102 
L 360.329566 83.809979 
L 360.329566 83.255735 
L 360.531978 82.697531 
L 360.329566 82.697531 
L 360.127153 83.255735 
L 360.127153 83.255735 
L 360.329566 83.532857 
L 359.924741 84.087102 
L 359.320481 84.641347 
L 359.320481 84.641347 
L 360.329566 84.641347 
L 360.734391 84.918469 
L 360.531978 85.472714 
L 359.924741 85.472714 
L 359.722329 85.195592 
L 359.522893 84.641347 
L 359.118068 84.087102 
L 358.713244 84.087102 
L 358.713244 84.087102 
L 359.320481 83.255735 
L 359.924741 83.255735 
L 359.924741 83.809979 
L 359.522893 84.641347 
L 359.320481 85.472714 
L 359.320481 86.862286 
L 358.915656 86.585163 
L 358.713244 85.749837 
L 359.118068 85.749837 
L 359.118068 85.749837 
L 359.118068 87.41653 
L 359.320481 87.41653 
L 359.118068 86.862286 
L 358.713244 86.304082 
L 358.108983 86.026959 
L 358.108983 86.026959 
L 358.311396 85.749837 
L 358.713244 86.026959 
L 358.311396 87.693653 
L 358.713244 86.304082 
L 358.510831 85.749837 
L 357.906571 85.472714 
L 357.704158 85.195592 
L 357.704158 85.472714 
L 357.501746 86.585163 
L 357.099898 87.41653 
L 357.099898 87.693653 
L 357.099898 87.693653 
L 357.30231 87.139408 
L 357.099898 86.862286 
L 356.492661 87.139408 
L 355.8884 87.693653 
L 355.8884 87.139408 
L 355.8884 87.693653 
L 356.290249 88.247898 
L 357.099898 87.693653 
L 357.30231 87.693653 
L 357.30231 86.862286 
L 356.897486 85.749837 
L 356.492661 85.472714 
L 356.290249 86.304082 
L 356.492661 87.139408 
L 356.897486 87.693653 
L 357.30231 87.970775 
L 357.099898 88.247898 
L 356.090813 88.247898 
L 355.8884 87.970775 
L 355.8884 86.862286 
L 356.290249 86.026959 
L 356.290249 86.304082 
L 356.090813 87.139408 
L 356.090813 88.247898 
L 356.290249 88.247898 
L 356.492661 87.41653 
L 355.483576 87.41653 
L 355.685988 86.862286 
L 356.090813 86.862286 
L 356.492661 87.139408 
L 356.897486 87.970775 
L 356.897486 88.52502 
L 356.492661 88.802143 
L 355.8884 87.41653 
L 355.483576 87.41653 
L 355.685988 87.41653 
L 356.090813 87.139408 
L 356.897486 87.139408 
L 356.090813 87.41653 
L 355.685988 87.693653 
L 355.8884 87.970775 
L 356.492661 88.247898 
L 356.695073 87.970775 
L 356.090813 87.970775 
L 355.281163 88.247898 
L 355.078751 88.52502 
L 355.483576 88.802143 
L 356.090813 88.52502 
L 356.290249 88.247898 
L 356.290249 88.247898 
L 355.8884 88.52502 
L 355.281163 88.52502 
L 355.078751 87.693653 
L 354.676903 87.970775 
L 353.667818 88.52502 
L 351.244823 91.023081 
L 349.628501 92.408694 
L 345.791596 95.461 
L 343.169165 97.681939 
L 333.879033 104.617918 
L 330.045104 107.666265 
L 326.2082 110.995694 
L 317.930129 117.654551 
L 312.682291 120.98398 
L 307.026652 123.482041 
L 301.373989 125.69902 
L 295.923738 128.197082 
L 290.875336 130.695143 
L 286.029346 134.024571 
L 276.340342 142.346163 
L 272.098613 146.229837 
L 264.022955 154.274306 
L 259.379377 158.15798 
L 254.128562 161.764531 
L 249.484984 164.816837 
L 245.651056 167.59202 
L 241.814151 170.644327 
L 237.977246 174.528 
L 234.545166 178.688796 
L 230.910674 182.572469 
L 226.874333 185.901898 
L 222.835016 188.677082 
L 218.998111 191.452265 
L 216.173268 194.504571 
L 213.952685 196.721551 
L 212.336363 198.111122 
L 208.300022 202.826163 
L 207.692785 202.549041 
L 207.28796 201.994796 
L 207.088525 201.994796 
L 206.6837 202.271918 
L 206.6837 201.994796 
L 207.692785 200.882347 
L 208.904282 200.05098 
L 209.913368 198.94249 
L 209.51152 198.111122 
L 209.106695 198.111122 
L 208.70187 198.388245 
L 207.28796 198.94249 
L 206.278875 200.328102 
L 205.674615 201.717673 
L 205.877027 202.271918 
L 205.674615 202.549041 
L 205.067378 203.103286 
L 204.058292 203.657531 
L 203.656444 204.211776 
L 203.25162 204.488898 
L 202.644382 204.488898 
L 202.644382 204.211776 
L 203.656444 204.766021 
L 203.656444 203.934653 
L 203.25162 203.103286 
L 202.644382 203.380408 
L 202.444947 204.211776 
L 202.644382 204.766021 
L 201.83771 204.766021 
L 201.635297 204.488898 
L 201.233449 204.488898 
L 200.828625 204.766021 
L 200.626212 204.766021 
L 200.626212 204.211776 
L 200.4238 203.934653 
L 200.221387 203.934653 
L 199.819539 203.380408 
L 200.021952 203.657531 
L 200.221387 204.488898 
L 200.221387 205.601347 
L 199.617127 206.155592 
L 199.414715 205.878469 
L 199.00989 204.766021 
L 198.608042 204.211776 
L 198.40563 205.043143 
L 199.00989 207.264082 
L 199.00989 207.264082 
L 198.810454 206.986959 
L 198.40563 206.709837 
L 198.40563 206.432714 
L 198.608042 206.155592 
L 198.40563 206.432714 
L 197.598957 206.709837 
L 196.99172 206.709837 
L 196.789307 206.432714 
L 196.789307 206.432714 
L 196.99172 206.432714 
L 197.396544 206.986959 
L 197.194132 207.264082 
L 196.789307 207.541204 
L 196.387459 207.264082 
L 196.387459 206.709837 
L 196.589872 206.432714 
L 196.589872 206.709837 
L 196.789307 207.264082 
L 196.589872 207.264082 
L 196.589872 207.541204 
L 196.589872 207.541204 
L 196.387459 206.986959 
L 196.185047 207.264082 
L 196.185047 207.541204 
L 196.99172 208.372572 
L 196.789307 208.649694 
L 196.185047 208.649694 
L 195.780222 209.207898 
L 195.57781 208.930775 
L 195.57781 207.818327 
L 195.780222 207.818327 
L 195.982634 208.372572 
L 195.982634 207.818327 
L 195.780222 207.264082 
L 195.57781 207.541204 
L 195.57781 208.095449 
L 195.780222 208.930775 
L 196.387459 209.48502 
L 196.589872 209.48502 
L 196.185047 208.930775 
L 195.780222 208.095449 
L 195.378374 207.541204 
L 194.366312 208.930775 
L 194.166877 208.930775 
L 194.166877 208.930775 
L 194.568725 209.48502 
L 194.568725 209.48502 
L 194.568725 208.930775 
L 194.366312 208.930775 
L 194.366312 209.207898 
L 194.568725 209.207898 
L 194.366312 209.207898 
L 194.166877 210.039265 
L 193.559639 211.702 
L 193.154815 211.424878 
L 192.955379 210.870633 
L 192.550554 210.59351 
L 192.550554 210.59351 
L 192.752967 210.316388 
L 193.357227 209.207898 
L 193.154815 209.762143 
L 192.550554 210.59351 
L 191.943317 210.59351 
L 191.943317 209.762143 
L 192.550554 209.207898 
L 192.955379 209.48502 
L 192.752967 210.039265 
L 191.943317 210.870633 
L 191.743881 210.870633 
L 192.348142 210.316388 
L 192.955379 210.039265 
L 191.743881 210.59351 
L 191.743881 210.870633 
L 192.14573 211.147755 
L 192.348142 210.870633 
L 192.348142 210.316388 
L 192.14573 210.039265 
L 191.743881 211.979123 
L 191.339057 212.814449 
L 191.541469 212.814449 
L 191.541469 212.256245 
L 191.339057 211.979123 
L 190.127559 211.979123 
L 189.722734 211.424878 
L 189.925147 210.59351 
L 190.532384 210.316388 
L 190.934232 210.316388 
L 189.722734 210.316388 
L 188.916062 210.59351 
L 188.916062 211.147755 
L 189.320886 211.147755 
L 189.320886 211.424878 
L 189.118474 211.979123 
L 189.320886 212.256245 
L 189.523299 211.979123 
L 189.523299 211.702 
L 189.118474 212.256245 
L 189.320886 211.702 
L 189.523299 210.316388 
L 189.320886 210.59351 
L 189.925147 210.59351 
L 188.916062 211.979123 
L 188.916062 211.979123 
L 188.916062 211.702 
L 189.118474 211.979123 
L 188.916062 212.814449 
L 189.722734 212.814449 
L 189.925147 212.537326 
L 189.523299 211.979123 
L 189.118474 211.979123 
L 188.511237 212.814449 
L 187.704564 213.368694 
L 186.695479 213.368694 
L 185.483982 214.200061 
L 184.272484 215.585674 
L 182.858574 216.975245 
L 178.417409 220.858918 
L 177.205911 222.798776 
L 175.390153 224.742592 
L 173.169571 226.128204 
L 171.148424 226.963531 
L 169.936926 228.07202 
L 166.707258 229.734755 
L 166.504846 230.570082 
L 166.707258 231.678571 
L 166.504846 232.232816 
L 165.900585 232.509939 
L 165.090936 232.509939 
L 164.8915 232.787061 
L 164.8915 232.509939 
L 165.293348 230.289 
L 165.293348 229.457633 
L 165.698173 228.626265 
L 166.102998 228.903388 
L 166.302434 229.734755 
L 166.302434 230.847204 
L 166.504846 231.401449 
L 166.504846 231.401449 
L 166.707258 230.847204 
L 166.302434 230.011878 
L 165.900585 230.289 
L 165.900585 230.289 
L 165.698173 230.011878 
L 165.698173 230.011878 
L 166.102998 230.847204 
L 165.900585 231.401449 
L 164.8915 231.955694 
L 164.486676 232.232816 
L 164.284263 231.678571 
L 164.284263 230.570082 
L 165.495761 229.734755 
L 165.495761 230.289 
L 165.293348 231.678571 
L 165.495761 232.232816 
L 166.102998 231.678571 
L 166.302434 230.570082 
L 165.495761 230.011878 
L 164.689088 230.011878 
L 164.689088 230.011878 
L 165.495761 230.570082 
L 165.495761 231.124327 
L 165.293348 231.955694 
L 165.090936 231.955694 
L 165.293348 230.847204 
L 165.495761 230.570082 
L 165.495761 230.847204 
L 165.090936 231.401449 
L 164.689088 231.678571 
L 164.8915 231.401449 
L 165.090936 231.401449 
L 165.090936 231.955694 
L 165.090936 231.678571 
L 164.081851 230.289 
L 163.879439 230.289 
L 164.081851 230.011878 
L 164.689088 230.289 
L 165.090936 230.289 
L 165.495761 230.011878 
L 165.698173 229.457633 
L 165.293348 229.18051 
L 164.689088 229.457633 
L 164.081851 230.289 
L 164.284263 231.401449 
L 164.486676 231.401449 
L 164.081851 230.570082 
L 164.689088 231.678571 
L 166.102998 232.787061 
L 164.486676 232.232816 
L 164.486676 231.678571 
L 164.8915 231.401449 
L 165.090936 231.401449 
L 165.293348 231.678571 
L 165.090936 231.955694 
L 165.293348 231.678571 
L 165.495761 231.955694 
L 165.698173 231.955694 
L 165.698173 231.678571 
L 165.698173 233.341306 
L 165.293348 232.787061 
L 165.495761 231.678571 
L 166.102998 231.124327 
L 166.302434 231.401449 
L 166.504846 231.401449 
L 166.102998 231.955694 
L 165.900585 231.955694 
L 166.302434 230.289 
L 166.302434 230.289 
L 166.909671 231.401449 
L 167.918756 231.401449 
L 167.918756 231.678571 
L 167.513931 231.678571 
L 167.112083 230.011878 
L 167.311519 229.734755 
L 167.918756 229.734755 
L 168.323581 230.011878 
L 168.523016 230.570082 
L 168.323581 230.570082 
L 168.323581 230.011878 
L 168.523016 229.734755 
L 168.523016 229.734755 
L 168.523016 229.457633 
L 169.332666 228.349143 
L 169.130253 227.794898 
L 169.332666 228.349143 
L 169.535078 228.07202 
L 169.734514 228.07202 
L 169.535078 228.07202 
L 169.130253 227.794898 
L 169.936926 227.240653 
L 170.139338 226.682449 
L 169.734514 226.963531 
L 169.936926 226.963531 
L 170.341751 226.405327 
L 170.544163 225.573959 
L 170.139338 225.296837 
L 169.734514 225.296837 
L 169.535078 225.573959 
L 169.734514 225.851082 
L 169.936926 225.573959 
L 170.544163 224.188347 
L 170.341751 224.188347 
L 169.936926 224.188347 
L 169.535078 223.911224 
L 169.535078 223.35698 
L 169.936926 223.35698 
L 170.544163 223.634102 
L 170.746576 224.188347 
L 170.746576 224.742592 
L 170.544163 224.742592 
L 170.139338 224.188347 
L 169.936926 223.634102 
L 169.734514 223.634102 
L 170.139338 223.634102 
L 170.746576 223.35698 
L 170.746576 223.075898 
L 170.544163 223.075898 
L 170.544163 225.019714 
L 170.341751 224.742592 
L 170.139338 223.911224 
L 169.936926 223.634102 
L 170.139338 223.911224 
L 170.341751 223.634102 
L 170.544163 223.075898 
L 171.148424 222.244531 
L 171.148424 222.244531 
L 170.544163 222.798776 
L 169.734514 223.35698 
L 169.734514 223.911224 
L 170.341751 223.634102 
L 170.746576 223.075898 
L 170.746576 223.075898 
L 170.746576 223.35698 
L 170.946011 223.35698 
L 171.148424 223.075898 
L 170.946011 223.075898 
L 170.746576 222.798776 
L 170.946011 222.798776 
L 171.148424 223.075898 
L 171.148424 221.413163 
L 170.946011 221.413163 
L 170.746576 222.521653 
L 171.148424 222.521653 
L 171.553248 221.967408 
L 171.553248 221.413163 
L 171.148424 221.136041 
L 170.746576 222.244531 
L 170.746576 222.798776 
L 171.553248 222.798776 
L 171.755661 223.075898 
L 171.755661 223.35698 
L 171.553248 223.35698 
L 171.148424 222.798776 
L 171.553248 223.075898 
L 171.755661 222.798776 
L 171.553248 222.521653 
L 171.553248 222.798776 
L 171.958073 223.075898 
L 172.359921 223.075898 
L 172.359921 222.798776 
L 172.157509 222.244531 
L 172.157509 221.136041 
L 172.764746 221.136041 
L 172.967158 221.967408 
L 172.967158 222.798776 
L 172.967158 222.798776 
L 172.764746 222.521653 
L 172.359921 222.798776 
L 172.157509 222.798776 
L 172.157509 222.521653 
L 172.359921 222.244531 
L 172.562334 222.244531 
L 172.764746 222.521653 
L 172.764746 221.690286 
L 173.169571 221.690286 
L 173.169571 222.244531 
L 173.773831 222.244531 
L 173.773831 221.967408 
L 173.169571 221.136041 
L 172.967158 221.136041 
L 172.764746 221.967408 
L 172.967158 222.798776 
L 173.169571 222.521653 
L 172.562334 221.136041 
L 172.967158 221.413163 
L 173.976243 221.413163 
L 173.976243 222.521653 
L 173.369006 221.690286 
L 173.169571 220.858918 
L 173.369006 219.750428 
L 173.976243 219.469347 
L 174.580504 219.750428 
L 174.985329 222.521653 
L 174.782916 222.521653 
L 173.976243 221.690286 
L 173.169571 220.027551 
L 173.369006 220.304673 
L 173.169571 220.581796 
L 173.169571 219.750428 
L 173.169571 219.750428 
L 173.571419 219.750428 
L 173.773831 220.027551 
L 173.571419 220.027551 
L 173.169571 219.750428 
L 172.562334 220.027551 
L 172.359921 220.304673 
L 172.764746 220.581796 
L 173.773831 219.750428 
L 173.976243 220.027551 
L 173.976243 220.581796 
L 173.976243 219.750428 
L 173.571419 218.63798 
L 173.169571 218.360857 
L 173.169571 219.750428 
L 173.369006 220.304673 
L 173.369006 220.304673 
L 173.976243 219.192225 
L 173.773831 219.469347 
L 173.571419 220.304673 
L 173.369006 220.304673 
L 173.369006 220.027551 
L 173.773831 219.750428 
L 173.773831 220.027551 
L 173.571419 220.581796 
L 173.773831 220.304673 
L 173.369006 219.750428 
L 173.369006 219.750428 
L 173.571419 219.750428 
L 173.369006 220.304673 
L 173.369006 220.858918 
L 173.773831 221.413163 
L 173.773831 221.690286 
L 173.571419 221.690286 
L 173.571419 220.304673 
L 173.369006 220.027551 
L 172.967158 219.750428 
L 172.967158 219.750428 
L 173.571419 220.027551 
L 173.773831 220.304673 
L 173.571419 221.136041 
L 173.169571 221.690286 
L 172.562334 220.304673 
L 172.157509 220.304673 
L 171.755661 220.027551 
L 171.755661 219.750428 
L 172.157509 219.469347 
L 172.157509 219.750428 
L 172.359921 220.304673 
L 173.169571 221.413163 
L 172.967158 221.413163 
L 172.764746 221.136041 
L 172.359921 220.858918 
L 172.157509 220.581796 
L 172.359921 219.750428 
L 172.764746 218.915102 
L 172.967158 218.915102 
L 172.967158 220.027551 
L 172.562334 221.136041 
L 172.157509 221.136041 
L 172.359921 221.690286 
L 172.359921 221.413163 
L 172.359921 220.858918 
L 172.157509 220.858918 
L 172.157509 221.136041 
L 172.562334 221.136041 
L 173.169571 221.967408 
L 173.369006 221.967408 
L 173.169571 221.690286 
L 173.169571 221.136041 
L 173.369006 220.858918 
L 173.369006 221.136041 
L 173.369006 220.858918 
L 173.571419 221.136041 
L 173.773831 221.136041 
L 173.369006 220.304673 
L 173.369006 220.581796 
L 173.571419 220.858918 
L 173.976243 219.469347 
L 173.976243 219.750428 
L 174.378091 220.027551 
L 174.378091 220.581796 
L 174.580504 220.858918 
L 174.178656 220.581796 
L 173.773831 220.027551 
L 173.773831 219.750428 
L 174.378091 219.469347 
L 174.580504 220.027551 
L 174.580504 220.858918 
L 174.178656 220.581796 
L 173.571419 219.750428 
L 172.967158 219.469347 
L 173.773831 219.750428 
L 173.976243 219.469347 
L 174.378091 219.469347 
L 173.571419 219.469347 
L 173.169571 219.192225 
L 173.169571 219.192225 
L 173.773831 219.469347 
L 173.976243 219.192225 
L 173.976243 218.915102 
L 173.571419 219.750428 
L 173.571419 220.027551 
L 173.773831 219.469347 
L 173.773831 218.915102 
L 173.773831 219.192225 
L 173.571419 219.469347 
L 173.369006 219.192225 
L 173.169571 218.360857 
L 172.764746 218.360857 
L 172.764746 218.915102 
L 173.169571 219.750428 
L 173.571419 220.027551 
L 173.773831 220.027551 
L 173.571419 219.750428 
L 173.571419 218.083735 
L 173.571419 218.083735 
L 173.773831 218.360857 
L 173.773831 220.027551 
L 173.169571 220.027551 
L 171.958073 218.360857 
L 172.359921 219.192225 
L 172.967158 219.750428 
L 173.169571 219.750428 
L 172.562334 219.750428 
L 172.359921 219.192225 
L 173.169571 218.360857 
L 173.976243 218.360857 
L 174.178656 219.192225 
L 173.571419 219.469347 
L 172.967158 219.469347 
L 174.378091 219.469347 
L 177.205911 218.083735 
L 179.224082 216.698122 
L 181.849489 214.754306 
L 185.079157 211.979123 
L 189.118474 208.095449 
L 194.366312 203.657531 
L 200.221387 199.219612 
L 206.481287 194.781694 
L 212.9436 189.508449 
L 220.010172 184.239163 
L 227.681006 178.965918 
L 235.554251 173.142388 
L 243.430473 166.483531 
L 250.898894 159.270428 
L 257.763055 152.888694 
L 264.630192 146.229837 
L 278.962773 133.747449 
L 293.095918 122.927796 
L 300.567316 116.823184 
L 314.902874 106.557775 
L 321.767034 101.842735 
L 334.891095 92.131571 
L 341.552843 87.693653 
L 347.812743 84.641347 
L 353.667818 82.420408 
L 359.118068 80.757673 
L 363.964058 79.09098 
L 368.405224 76.596877 
L 376.480882 70.769388 
L 380.115374 68.82953 
L 383.14263 67.439959 
L 384.961364 66.054347 
L 385.970449 64.945857 
L 386.577687 64.945857 
L 386.777122 65.222979 
L 386.375274 65.777224 
L 385.565625 66.608592 
L 384.154692 67.717082 
L 382.133545 68.82953 
L 377.894792 69.93802 
L 376.278469 70.769388 
L 375.269384 71.877878 
L 374.462711 73.267449 
L 371.233044 76.319755 
L 371.030631 76.874 
L 371.432479 75.484429 
L 371.030631 75.484429 
L 371.233044 74.930184 
L 371.432479 74.930184 
L 371.030631 76.596877 
L 370.828219 76.874 
L 370.423394 76.874 
L 370.423394 76.596877 
L 370.223958 76.319755 
L 370.223958 76.319755 
L 370.223958 76.874 
L 370.021546 77.98249 
L 369.616721 78.536735 
L 369.211897 78.536735 
L 368.607636 78.259612 
L 368.202811 78.536735 
L 367.598551 78.813857 
L 367.598551 78.259612 
L 367.396139 77.428245 
L 367.396139 77.428245 
L 367.193726 78.536735 
L 367.396139 79.926306 
L 366.788902 79.926306 
L 366.788902 80.480551 
L 366.788902 80.480551 
L 365.577404 80.480551 
L 365.577404 80.480551 
L 364.770731 82.143286 
L 364.568319 82.143286 
L 364.568319 81.866163 
L 364.770731 81.311918 
L 364.770731 81.311918 
L 364.770731 82.143286 
L 364.166471 83.809979 
L 364.166471 83.809979 
L 363.964058 83.809979 
L 363.761646 84.087102 
L 363.559234 84.641347 
L 363.761646 84.918469 
L 363.761646 84.641347 
L 363.356821 84.364224 
L 363.761646 84.641347 
L 363.559234 84.641347 
L 362.752561 84.918469 
L 362.145324 85.472714 
L 362.145324 86.026959 
L 362.347736 85.472714 
L 362.347736 84.364224 
L 361.945888 84.087102 
L 361.743476 85.195592 
L 361.743476 85.195592 
L 361.743476 86.585163 
L 360.127153 86.585163 
L 360.127153 86.304082 
L 360.127153 86.304082 
L 359.722329 86.585163 
L 359.522893 87.139408 
L 359.924741 86.304082 
L 360.329566 86.304082 
L 360.329566 86.585163 
L 360.329566 86.585163 
L 360.127153 86.585163 
L 360.127153 86.585163 
L 360.531978 87.693653 
L 359.924741 88.247898 
L 359.118068 88.802143 
L 358.713244 88.802143 
L 359.118068 88.247898 
L 358.713244 87.970775 
L 357.906571 87.693653 
L 357.704158 88.247898 
L 358.108983 88.52502 
L 358.713244 88.247898 
L 358.713244 88.247898 
L 358.311396 87.970775 
L 357.30231 87.970775 
L 357.30231 88.52502 
L 357.099898 88.802143 
L 356.897486 88.52502 
L 357.30231 89.079265 
L 357.099898 89.63351 
L 356.695073 89.079265 
L 356.090813 89.910633 
L 356.090813 90.191714 
L 356.897486 91.300204 
L 357.099898 91.300204 
L 357.30231 90.745959 
L 356.695073 89.910633 
L 356.695073 89.079265 
L 356.897486 88.52502 
L 355.685988 91.854449 
L 355.078751 91.023081 
L 355.078751 90.745959 
L 355.281163 90.745959 
L 355.281163 90.745959 
L 355.483576 90.468837 
L 355.8884 90.745959 
L 356.090813 91.023081 
L 355.685988 91.577326 
L 355.281163 91.854449 
L 355.078751 91.577326 
L 355.078751 91.023081 
L 355.483576 90.468837 
L 355.483576 91.854449 
L 355.685988 92.408694 
L 355.078751 93.517184 
L 355.078751 93.517184 
L 355.078751 91.577326 
L 354.879315 91.023081 
L 355.078751 91.300204 
L 355.078751 92.131571 
L 354.474491 94.075388 
L 354.272078 93.798265 
L 353.867254 91.854449 
L 353.667818 92.408694 
L 353.867254 92.685816 
L 354.272078 92.685816 
L 354.676903 92.962939 
L 354.676903 92.962939 
L 353.867254 92.962939 
L 353.867254 92.962939 
L 353.465405 94.629633 
L 353.465405 94.629633 
L 354.069666 93.798265 
L 354.069666 93.240061 
L 353.667818 93.517184 
L 353.262993 94.629633 
L 353.465405 94.906755 
L 353.667818 94.629633 
L 354.069666 94.35251 
L 353.867254 94.629633 
L 353.465405 94.629633 
L 352.858168 93.517184 
L 353.262993 94.075388 
L 353.667818 94.35251 
L 353.667818 94.075388 
L 353.262993 93.798265 
L 352.858168 93.798265 
L 352.253908 94.629633 
L 352.253908 95.183877 
L 352.858168 94.906755 
L 353.060581 94.35251 
L 352.858168 94.629633 
L 352.253908 94.906755 
L 352.253908 95.461 
L 352.45632 95.461 
L 351.646671 94.35251 
L 351.849083 94.075388 
L 352.051496 94.35251 
L 352.051496 94.906755 
L 351.849083 95.461 
L 351.04241 96.56949 
L 350.839998 96.56949 
L 351.04241 96.292367 
L 351.447235 96.292367 
L 351.447235 96.292367 
L 351.447235 95.461 
L 350.839998 96.292367 
L 350.435173 96.56949 
L 350.235738 96.846612 
L 349.830913 97.123735 
L 349.223676 96.56949 
L 349.223676 96.015245 
L 349.830913 96.015245 
L 350.435173 96.292367 
L 350.637586 97.123735 
L 350.033325 97.959061 
L 349.628501 97.404816 
L 349.426088 96.846612 
L 349.02424 96.56949 
L 349.02424 96.56949 
L 349.223676 97.404816 
L 349.02424 96.846612 
L 349.02424 97.404816 
L 349.223676 97.123735 
L 349.223676 97.404816 
L 348.619415 97.681939 
L 348.417003 97.959061 
L 348.821828 97.959061 
L 349.02424 98.236184 
L 349.02424 98.790428 
L 348.619415 99.067551 
L 348.214591 99.067551 
L 348.214591 98.236184 
L 348.012178 97.959061 
L 347.812743 98.236184 
L 347.812743 97.959061 
L 349.223676 97.404816 
L 348.821828 97.681939 
L 348.417003 98.236184 
L 348.012178 99.067551 
L 347.61033 99.067551 
L 347.003093 98.790428 
L 347.003093 98.236184 
L 347.003093 101.011367 
L 347.003093 99.898918 
L 346.800681 98.236184 
L 346.601245 98.513306 
L 347.003093 99.067551 
L 347.61033 99.621796 
L 347.61033 100.176041 
L 346.800681 101.011367 
L 347.003093 100.730286 
L 347.205505 100.176041 
L 346.800681 99.621796 
L 346.800681 99.344673 
L 346.800681 99.344673 
L 346.398833 100.730286 
L 346.398833 100.176041 
L 346.601245 99.067551 
L 347.003093 98.790428 
L 347.003093 99.344673 
L 347.003093 99.344673 
L 346.800681 99.621796 
L 346.800681 99.898918 
L 347.003093 99.621796 
L 347.407918 99.344673 
L 347.812743 99.621796 
L 347.812743 99.898918 
L 347.61033 99.898918 
L 347.205505 100.176041 
L 346.398833 100.453163 
L 346.800681 100.453163 
L 347.003093 100.453163 
L 347.003093 100.176041 
L 346.601245 99.898918 
L 346.19642 100.176041 
L 346.19642 101.011367 
L 345.994008 101.842735 
L 345.994008 101.842735 
L 346.398833 102.674102 
L 346.398833 102.39698 
L 345.994008 101.565612 
L 345.59216 101.011367 
L 345.791596 101.28849 
L 345.994008 101.842735 
L 345.994008 102.39698 
L 345.994008 101.28849 
L 345.994008 101.28849 
L 346.19642 101.842735 
L 346.19642 102.951224 
L 345.59216 101.565612 
L 345.389748 101.842735 
L 345.389748 102.674102 
L 345.59216 103.228347 
L 345.994008 103.505469 
L 345.994008 103.782592 
L 345.59216 104.059714 
L 345.187335 103.505469 
L 344.380662 103.505469 
L 344.380662 103.782592 
L 344.580098 103.782592 
L 344.984923 103.505469 
L 344.984923 102.951224 
L 344.580098 102.39698 
L 344.78251 102.119857 
L 344.78251 102.119857 
L 344.984923 102.39698 
L 345.389748 102.39698 
L 344.984923 102.39698 
L 344.580098 102.674102 
L 343.975838 103.505469 
L 343.368601 103.782592 
L 343.169165 103.228347 
L 343.169165 102.674102 
L 343.368601 102.674102 
L 343.571013 102.951224 
L 343.773425 103.505469 
L 343.773425 103.505469 
L 343.368601 103.228347 
L 342.76434 102.951224 
L 342.561928 104.059714 
L 342.157103 105.172163 
L 341.35043 106.280653 
L 341.148018 106.834898 
L 341.148018 107.389143 
L 340.945606 107.11202 
L 340.341345 107.11202 
L 339.734108 107.389143 
L 339.33226 107.943388 
L 338.927435 108.224469 
L 338.725023 107.666265 
L 338.725023 107.11202 
L 338.525587 107.11202 
L 338.525587 107.389143 
L 338.927435 107.389143 
L 339.33226 107.11202 
L 339.129848 106.834898 
L 338.927435 106.834898 
L 339.129848 107.11202 
L 339.534672 106.280653 
L 339.534672 105.726408 
L 339.33226 105.449286 
L 339.33226 105.726408 
L 339.734108 106.280653 
L 339.93652 106.834898 
L 340.138933 106.834898 
L 339.534672 107.666265 
L 339.129848 106.280653 
L 338.525587 106.003531 
L 337.91835 106.280653 
L 338.120762 106.280653 
L 338.525587 106.557775 
L 338.725023 106.834898 
L 338.927435 107.666265 
L 339.129848 107.943388 
L 339.33226 107.666265 
L 339.33226 107.666265 
L 338.927435 107.389143 
L 338.323175 106.834898 
L 338.323175 106.003531 
L 338.525587 106.003531 
L 338.525587 106.280653 
L 338.927435 107.11202 
L 339.33226 107.389143 
L 339.33226 107.11202 
L 339.93652 106.280653 
L 339.734108 106.280653 
L 339.129848 106.557775 
L 338.927435 106.280653 
L 342.157103 106.280653 
L 341.552843 105.726408 
L 340.543757 104.059714 
L 340.74617 104.059714 
L 340.945606 104.059714 
L 341.148018 103.782592 
L 341.148018 103.228347 
L 340.74617 103.228347 
L 340.74617 103.505469 
L 341.148018 104.336837 
L 340.945606 104.059714 
L 341.148018 103.505469 
L 341.148018 102.951224 
L 341.35043 102.39698 
L 341.148018 102.39698 
L 340.945606 102.951224 
L 341.148018 103.228347 
L 341.957667 103.228347 
L 342.157103 102.674102 
L 341.755255 102.674102 
L 341.148018 102.39698 
L 340.341345 101.28849 
L 340.543757 101.28849 
L 340.74617 101.565612 
L 340.945606 101.565612 
L 340.945606 101.842735 
L 341.148018 101.842735 
L 341.35043 101.565612 
L 341.148018 101.28849 
L 340.543757 101.28849 
L 340.543757 101.28849 
L 341.148018 100.176041 
L 341.148018 101.011367 
L 341.35043 102.119857 
L 341.755255 102.119857 
L 341.957667 101.565612 
L 341.755255 101.28849 
L 340.945606 100.730286 
L 340.543757 100.176041 
L 340.543757 99.898918 
L 340.74617 99.898918 
L 341.148018 100.453163 
L 340.74617 101.842735 
L 340.74617 101.565612 
L 340.74617 101.011367 
L 340.543757 100.176041 
L 340.543757 99.621796 
L 340.543757 99.621796 
L 340.945606 99.898918 
L 341.552843 100.453163 
L 341.755255 101.28849 
L 341.755255 101.842735 
L 341.35043 101.842735 
L 340.945606 101.565612 
L 341.35043 100.176041 
L 340.74617 100.176041 
L 340.341345 100.453163 
L 341.148018 99.898918 
L 341.552843 100.176041 
L 341.755255 101.28849 
L 341.552843 102.119857 
L 341.552843 101.011367 
L 341.35043 101.011367 
L 340.945606 101.28849 
L 340.543757 101.842735 
L 340.138933 101.842735 
L 340.138933 102.119857 
L 340.341345 102.39698 
L 340.74617 102.674102 
L 341.148018 102.674102 
L 341.148018 102.119857 
L 341.35043 100.176041 
L 341.148018 100.453163 
L 341.35043 100.453163 
L 341.552843 100.730286 
L 341.35043 100.730286 
L 341.148018 101.011367 
L 341.148018 100.730286 
L 341.552843 100.453163 
L 341.755255 100.176041 
L 341.755255 100.453163 
L 341.552843 100.453163 
L 341.552843 99.898918 
L 341.957667 100.176041 
L 342.561928 100.730286 
L 342.561928 100.730286 
L 342.561928 100.176041 
L 342.157103 100.453163 
L 341.957667 101.011367 
L 342.157103 101.28849 
L 342.359515 101.011367 
L 342.359515 100.176041 
L 341.957667 99.621796 
L 341.552843 100.176041 
L 341.552843 101.842735 
L 342.157103 102.39698 
L 342.359515 102.119857 
L 342.359515 101.011367 
L 342.359515 101.011367 
L 342.157103 101.011367 
L 341.957667 100.730286 
L 341.957667 101.011367 
L 342.157103 101.011367 
L 342.359515 101.28849 
L 342.561928 101.28849 
L 342.359515 101.565612 
L 342.157103 101.565612 
L 342.157103 102.119857 
L 341.35043 102.119857 
L 341.755255 102.119857 
L 342.157103 101.842735 
L 342.359515 101.565612 
L 342.157103 101.28849 
L 342.561928 100.176041 
L 342.157103 101.011367 
L 342.359515 101.565612 
L 342.359515 102.119857 
L 342.157103 102.39698 
L 342.157103 101.842735 
L 342.359515 101.28849 
L 342.359515 101.28849 
L 342.157103 101.011367 
L 341.552843 99.621796 
L 341.148018 100.176041 
L 340.945606 101.011367 
L 341.552843 101.011367 
L 342.157103 100.730286 
L 342.561928 101.011367 
L 342.76434 101.28849 
L 342.76434 101.011367 
L 342.157103 100.453163 
L 341.552843 100.730286 
L 341.148018 101.565612 
L 341.35043 101.565612 
L 342.157103 100.730286 
L 341.35043 101.28849 
L 340.945606 101.28849 
L 340.945606 101.28849 
L 340.945606 100.453163 
L 341.35043 100.176041 
L 341.552843 99.898918 
L 341.552843 100.176041 
L 341.35043 100.730286 
L 341.148018 100.730286 
L 341.148018 100.176041 
L 340.945606 100.453163 
L 339.93652 100.730286 
L 339.534672 100.453163 
L 340.138933 99.898918 
L 340.74617 100.176041 
L 340.945606 101.011367 
L 340.74617 101.28849 
L 340.341345 101.011367 
L 340.341345 100.453163 
L 340.74617 100.453163 
L 340.945606 100.730286 
L 340.138933 101.28849 
L 340.341345 101.28849 
L 341.148018 102.39698 
L 341.148018 102.39698 
L 340.543757 102.39698 
L 339.93652 101.842735 
L 339.534672 101.842735 
L 339.534672 102.39698 
L 339.33226 102.119857 
L 339.33226 101.28849 
L 339.129848 100.730286 
L 339.734108 102.119857 
L 339.534672 102.119857 
L 339.33226 102.39698 
L 339.33226 102.119857 
L 339.33226 102.119857 
L 338.927435 101.842735 
L 338.525587 101.842735 
L 338.525587 102.39698 
L 339.129848 102.951224 
L 338.725023 102.951224 
L 339.93652 103.505469 
L 339.534672 103.782592 
L 338.525587 103.782592 
L 338.120762 103.505469 
L 338.323175 102.951224 
L 339.129848 102.39698 
L 339.534672 102.39698 
L 339.534672 102.951224 
L 338.525587 103.782592 
L 338.725023 103.782592 
L 338.927435 104.059714 
L 338.725023 104.059714 
L 338.725023 103.782592 
L 339.734108 103.782592 
L 339.734108 103.782592 
L 339.534672 103.505469 
L 339.33226 102.951224 
L 338.927435 102.39698 
L 338.725023 102.39698 
L 338.525587 102.674102 
L 338.525587 103.505469 
L 338.927435 104.336837 
L 339.33226 104.336837 
L 338.725023 104.336837 
L 338.725023 104.059714 
L 338.725023 104.059714 
L 338.927435 103.782592 
L 339.33226 102.119857 
L 339.734108 102.39698 
L 340.138933 103.228347 
L 339.93652 103.782592 
L 339.534672 104.059714 
L 338.525587 103.505469 
L 339.129848 102.119857 
L 339.33226 102.39698 
L 339.33226 102.674102 
L 339.534672 103.228347 
L 339.33226 103.782592 
L 338.927435 103.505469 
L 338.323175 103.228347 
L 338.323175 103.228347 
L 338.725023 103.228347 
L 338.525587 103.228347 
L 337.91835 103.782592 
L 337.91835 104.336837 
L 338.525587 104.336837 
L 339.129848 103.505469 
L 339.33226 103.505469 
L 338.927435 103.505469 
L 338.323175 103.228347 
L 338.323175 103.228347 
L 338.525587 102.674102 
L 338.725023 102.951224 
L 338.725023 103.228347 
L 338.725023 102.951224 
L 338.927435 102.951224 
L 338.927435 103.505469 
L 338.525587 103.505469 
L 338.525587 103.505469 
L 338.525587 102.39698 
L 338.725023 101.565612 
L 339.129848 101.28849 
L 339.129848 101.565612 
L 338.725023 102.674102 
L 338.927435 102.951224 
L 338.927435 102.674102 
L 338.725023 102.119857 
L 338.323175 101.842735 
L 337.91835 101.842735 
L 337.91835 101.842735 
L 338.120762 102.119857 
L 337.91835 101.28849 
L 337.91835 100.453163 
L 337.715938 100.453163 
L 337.715938 101.842735 
L 337.715938 101.28849 
L 337.513525 100.453163 
L 337.31409 99.067551 
L 337.513525 99.067551 
L 337.91835 99.898918 
L 338.525587 100.730286 
L 338.927435 101.011367 
L 338.725023 100.730286 
L 338.725023 100.453163 
L 338.525587 100.730286 
L 338.525587 100.730286 
L 338.323175 101.28849 
L 338.323175 102.674102 
L 338.120762 102.674102 
L 337.715938 103.505469 
L 337.715938 102.39698 
L 337.715938 102.951224 
L 337.513525 102.951224 
L 337.513525 102.119857 
L 337.715938 101.842735 
L 337.91835 102.119857 
L 337.91835 102.951224 
L 337.715938 103.782592 
L 337.91835 104.336837 
L 338.323175 104.336837 
L 338.525587 104.059714 
L 338.120762 103.782592 
L 337.715938 103.782592 
L 337.31409 103.505469 
L 337.31409 103.228347 
L 337.513525 102.39698 
L 337.513525 102.119857 
L 337.91835 102.119857 
L 338.120762 102.39698 
L 337.715938 102.674102 
L 337.31409 102.39698 
L 337.513525 101.842735 
L 337.715938 101.842735 
L 337.111677 103.505469 
L 337.111677 102.951224 
L 337.31409 102.39698 
L 337.513525 102.674102 
L 337.91835 103.782592 
L 337.715938 103.782592 
L 337.91835 103.782592 
L 338.323175 103.228347 
L 338.323175 103.228347 
L 337.91835 103.228347 
L 336.909265 103.782592 
L 336.909265 103.782592 
L 337.111677 104.059714 
L 337.31409 104.059714 
L 337.111677 104.059714 
L 336.909265 104.895041 
L 337.111677 104.336837 
L 337.513525 104.336837 
L 337.31409 104.059714 
L 336.50444 105.172163 
L 336.50444 105.449286 
L 336.706853 105.726408 
L 336.909265 105.449286 
L 337.111677 105.449286 
L 337.111677 105.172163 
L 336.706853 105.172163 
L 336.706853 104.895041 
L 337.31409 105.726408 
L 337.513525 105.726408 
L 337.513525 105.449286 
L 337.111677 105.172163 
L 336.909265 104.895041 
L 336.909265 104.617918 
L 336.706853 104.059714 
L 335.697767 105.449286 
L 335.292943 105.726408 
L 335.495355 105.726408 
L 335.90018 105.172163 
L 336.102592 105.172163 
L 335.697767 105.449286 
L 335.495355 105.449286 
L 335.697767 105.449286 
L 335.90018 105.726408 
L 335.697767 105.449286 
L 335.292943 104.617918 
L 335.495355 104.336837 
L 336.50444 105.172163 
L 336.302028 104.895041 
L 335.90018 104.895041 
L 335.495355 105.172163 
L 335.495355 105.449286 
L 335.495355 105.449286 
L 334.891095 105.449286 
L 334.283857 104.895041 
L 334.081445 104.895041 
L 334.48627 104.617918 
L 335.292943 104.617918 
L 335.697767 105.172163 
L 335.697767 104.895041 
L 335.292943 104.059714 
L 335.292943 104.059714 
L 335.292943 104.895041 
L 334.891095 105.726408 
L 334.688682 105.449286 
L 335.09053 104.895041 
L 335.495355 105.172163 
L 335.495355 105.449286 
L 335.292943 105.449286 
L 335.495355 105.172163 
L 335.495355 104.895041 
L 335.292943 104.895041 
L 334.688682 105.172163 
L 333.879033 105.172163 
L 333.274772 104.895041 
L 332.4681 105.449286 
L 330.851777 108.778714 
L 327.622109 110.164327 
L 323.38038 113.770878 
L 320.757949 114.602245 
L 317.123456 115.991816 
L 313.286552 118.208796 
L 306.017566 123.204918 
L 291.482573 131.249388 
L 286.43417 134.024571 
L 281.385768 137.076877 
L 276.74219 140.402347 
L 272.301025 144.289979 
L 268.062272 148.450775 
L 255.140624 159.547551 
L 250.898894 163.431224 
L 239.998393 172.865265 
L 228.08583 182.295347 
L 224.853186 185.070531 
L 222.028343 187.845714 
L 219.200523 190.89802 
L 216.173268 193.669245 
L 213.143035 196.998674 
L 210.318192 200.328102 
L 207.895197 201.994796 
L 205.877027 202.271918 
L 204.260705 202.826163 
L 202.040122 205.324224 
L 201.635297 205.601347 
L 201.432885 205.324224 
L 201.432885 205.324224 
L 201.635297 205.043143 
L 202.444947 204.488898 
L 202.242534 204.211776 
L 202.242534 203.380408 
L 202.444947 203.380408 
L 201.635297 203.380408 
L 201.031037 203.934653 
L 200.626212 204.766021 
L 200.021952 204.766021 
L 200.021952 205.043143 
L 199.819539 205.324224 
L 198.608042 206.432714 
L 198.203217 206.986959 
L 198.203217 207.541204 
L 197.598957 208.930775 
L 197.194132 209.207898 
L 196.99172 209.207898 
L 196.99172 209.207898 
L 196.99172 208.930775 
L 196.589872 208.930775 
L 195.982634 208.372572 
L 195.780222 207.818327 
L 196.185047 207.541204 
L 196.789307 207.541204 
L 196.589872 207.264082 
L 196.589872 206.432714 
L 196.99172 206.155592 
L 197.194132 206.155592 
L 196.789307 206.709837 
L 195.982634 207.541204 
L 195.780222 207.818327 
L 194.568725 207.818327 
L 194.366312 208.095449 
L 194.568725 208.372572 
L 194.973549 208.372572 
L 194.973549 208.649694 
L 194.366312 209.48502 
L 194.366312 209.762143 
L 194.166877 210.039265 
L 193.559639 209.762143 
L 193.154815 209.207898 
L 193.154815 210.039265 
L 193.154815 209.48502 
L 193.357227 208.930775 
L 193.154815 209.762143 
L 193.357227 210.870633 
L 193.154815 210.59351 
L 192.752967 210.316388 
L 192.14573 210.316388 
L 191.541469 210.039265 
L 191.541469 210.316388 
L 191.743881 210.59351 
L 191.743881 209.762143 
L 191.743881 209.762143 
L 192.14573 210.59351 
L 191.943317 210.316388 
L 191.743881 210.316388 
L 191.339057 210.59351 
L 191.339057 211.424878 
L 191.339057 210.870633 
L 190.934232 210.59351 
L 190.532384 211.702 
L 190.734796 211.424878 
L 191.136644 211.147755 
L 191.136644 211.147755 
L 190.329972 210.870633 
L 189.722734 210.316388 
L 189.523299 210.316388 
L 189.722734 210.870633 
L 190.127559 211.424878 
L 190.127559 211.979123 
L 189.722734 211.979123 
L 189.118474 212.256245 
L 188.311801 212.256245 
L 188.109389 211.979123 
L 188.511237 211.424878 
L 188.916062 211.424878 
L 188.511237 211.424878 
L 189.118474 212.814449 
L 188.713649 212.814449 
L 187.100304 211.147755 
L 187.502152 211.424878 
L 187.100304 211.979123 
L 187.100304 212.256245 
L 187.502152 212.256245 
L 187.299739 213.368694 
L 186.897891 214.477184 
L 186.695479 214.477184 
L 186.290654 212.814449 
L 185.888806 212.537326 
L 185.686394 212.537326 
L 185.686394 212.814449 
L 185.888806 213.091571 
L 186.290654 212.537326 
L 186.088242 212.256245 
L 185.483982 211.979123 
L 185.079157 211.979123 
L 185.483982 212.256245 
L 186.493067 211.979123 
L 186.290654 212.537326 
L 185.483982 212.814449 
L 185.281569 213.368694 
L 185.079157 213.368694 
L 185.281569 213.645816 
L 185.483982 213.645816 
L 185.281569 213.645816 
L 185.079157 213.091571 
L 185.079157 213.368694 
L 184.879721 213.922939 
L 184.070072 214.754306 
L 184.272484 214.477184 
L 184.677309 213.922939 
L 184.879721 213.922939 
L 183.867659 213.922939 
L 183.465811 214.477184 
L 183.465811 214.200061 
L 183.867659 213.922939 
L 184.474896 214.200061 
L 184.272484 214.477184 
L 184.070072 213.645816 
L 183.668224 213.091571 
L 183.668224 213.091571 
L 184.070072 213.922939 
L 184.474896 215.585674 
L 184.272484 215.585674 
L 183.867659 215.585674 
L 183.668224 215.031429 
L 182.656162 215.031429 
L 183.060986 214.477184 
L 183.668224 213.922939 
L 183.263399 215.862796 
L 183.263399 216.421 
L 183.263399 215.862796 
L 182.656162 214.754306 
L 182.858574 214.754306 
L 182.858574 215.031429 
L 182.456726 215.031429 
L 182.051901 215.585674 
L 182.051901 216.421 
L 181.849489 216.143877 
L 181.849489 215.862796 
L 181.245229 215.031429 
L 181.647077 215.585674 
L 182.254314 215.862796 
L 182.456726 215.031429 
L 182.656162 214.754306 
L 182.656162 215.031429 
L 182.858574 215.585674 
L 182.858574 215.585674 
L 182.254314 215.862796 
L 181.245229 216.143877 
L 181.042816 215.862796 
L 181.849489 215.031429 
L 182.456726 215.031429 
L 182.656162 216.143877 
L 182.051901 217.252367 
L 181.444664 217.52949 
L 181.042816 217.252367 
L 181.042816 216.698122 
L 181.647077 215.585674 
L 181.444664 215.862796 
L 181.042816 216.143877 
L 180.840404 215.862796 
L 180.840404 215.585674 
L 180.637991 214.754306 
L 180.840404 214.754306 
L 181.042816 215.308551 
L 180.840404 216.143877 
L 180.435579 216.143877 
L 180.435579 215.585674 
L 180.637991 215.308551 
L 181.042816 215.308551 
L 182.051901 216.698122 
L 181.042816 217.252367 
L 180.637991 216.698122 
L 180.033731 216.421 
L 180.033731 216.975245 
L 180.435579 217.252367 
L 181.042816 217.252367 
L 181.245229 216.975245 
L 181.444664 217.252367 
L 181.647077 217.806612 
L 181.647077 217.806612 
L 181.444664 217.806612 
L 180.840404 217.252367 
L 180.840404 216.421 
L 181.042816 216.143877 
L 181.245229 216.698122 
L 181.042816 216.975245 
L 181.042816 216.975245 
L 181.245229 217.252367 
L 181.647077 217.252367 
L 181.647077 216.698122 
L 181.245229 216.143877 
L 180.637991 215.862796 
L 180.435579 216.421 
L 180.840404 216.421 
L 181.042816 216.143877 
L 181.444664 216.143877 
L 181.245229 216.975245 
L 180.840404 217.52949 
L 180.233167 217.52949 
L 181.042816 215.585674 
L 180.840404 216.143877 
L 180.840404 216.421 
L 180.637991 215.862796 
L 180.637991 215.031429 
L 180.840404 215.031429 
L 181.444664 215.308551 
L 181.849489 215.308551 
L 181.849489 213.922939 
L 181.849489 214.200061 
L 181.444664 215.031429 
L 181.444664 215.585674 
L 182.051901 215.585674 
L 182.456726 215.031429 
L 182.456726 213.645816 
L 182.456726 213.922939 
L 182.051901 213.368694 
L 182.051901 213.091571 
L 184.474896 213.091571 
L 183.060986 212.537326 
L 183.060986 211.979123 
L 184.070072 211.979123 
L 184.474896 211.147755 
L 184.474896 210.59351 
L 184.474896 210.59351 
L 183.867659 210.59351 
L 184.070072 210.59351 
L 184.677309 210.316388 
L 185.079157 210.316388 
L 184.879721 210.59351 
L 183.668224 210.59351 
L 183.465811 210.870633 
L 183.668224 211.147755 
L 184.272484 210.870633 
L 184.272484 210.039265 
L 184.070072 210.316388 
L 183.867659 210.316388 
L 183.867659 210.316388 
" style="fill:none;stroke:#1f77b4;stroke-linecap:square;stroke-width:1.5;"/>
   </g>
   <g id="matplotlib.axis_1">
    <g id="xtick_1">
     <g id="line2d_2">
      <defs>
       <path d="M 0 0 
L 0 3.5 
" id="m98d8984551" style="stroke:#000000;stroke-width:0.8;"/>
      </defs>
      <g>
       <use style="stroke:#000000;stroke-width:0.8;" x="114.800394" xlink:href="#m98d8984551" y="307.584"/>
      </g>
     </g>
     <g id="text_1">
      <!-- 600 -->
      <defs>
       <path d="M 10.59375 35.5 
L 73.1875 35.5 
L 73.1875 27.203125 
L 10.59375 27.203125 
z
" id="DejaVuSans-8722"/>
       <path d="M 33.015625 40.375 
Q 26.375 40.375 22.484375 35.828125 
Q 18.609375 31.296875 18.609375 23.390625 
Q 18.609375 15.53125 22.484375 10.953125 
Q 26.375 6.390625 33.015625 6.390625 
Q 39.65625 6.390625 43.53125 10.953125 
Q 47.40625 15.53125 47.40625 23.390625 
Q 47.40625 31.296875 43.53125 35.828125 
Q 39.65625 40.375 33.015625 40.375 
z
M 52.59375 71.296875 
L 52.59375 62.3125 
Q 48.875 64.0625 45.09375 64.984375 
Q 41.3125 65.921875 37.59375 65.921875 
Q 27.828125 65.921875 22.671875 59.328125 
Q 17.53125 52.734375 16.796875 39.40625 
Q 19.671875 43.65625 24.015625 45.921875 
Q 28.375 48.1875 33.59375 48.1875 
Q 44.578125 48.1875 50.953125 41.515625 
Q 57.328125 34.859375 57.328125 23.390625 
Q 57.328125 12.15625 50.6875 5.359375 
Q 44.046875 -1.421875 33.015625 -1.421875 
Q 20.359375 -1.421875 13.671875 8.265625 
Q 6.984375 17.96875 6.984375 36.375 
Q 6.984375 53.65625 15.1875 63.9375 
Q 23.390625 74.21875 37.203125 74.21875 
Q 40.921875 74.21875 44.703125 73.484375 
Q 48.484375 72.75 52.59375 71.296875 
z
" id="DejaVuSans-54"/>
       <path d="M 31.78125 66.40625 
Q 24.171875 66.40625 20.328125 58.90625 
Q 16.5 51.421875 16.5 36.375 
Q 16.5 21.390625 20.328125 13.890625 
Q 24.171875 6.390625 31.78125 6.390625 
Q 39.453125 6.390625 43.28125 13.890625 
Q 47.125 21.390625 47.125 36.375 
Q 47.125 51.421875 43.28125 58.90625 
Q 39.453125 66.40625 31.78125 66.40625 
z
M 31.78125 74.21875 
Q 44.046875 74.21875 50.515625 64.515625 
Q 56.984375 54.828125 56.984375 36.375 
Q 56.984375 17.96875 50.515625 8.265625 
Q 44.046875 -1.421875 31.78125 -1.421875 
Q 19.53125 -1.421875 13.0625 8.265625 
Q 6.59375 17.96875 6.59375 36.375 
Q 6.59375 54.828125 13.0625 64.515625 
Q 19.53125 74.21875 31.78125 74.21875 
z
" id="DejaVuSans-48"/>
      </defs>
      <g transform="translate(101.0668 322.182437)scale(0.1 -0.1)">
       <use xlink:href="#DejaVuSans-8722"/>
       <use x="83.789062" xlink:href="#DejaVuSans-54"/>
       <use x="147.412109" xlink:href="#DejaVuSans-48"/>
       <use x="211.035156" xlink:href="#DejaVuSans-48"/>
      </g>
     </g>
    </g>
    <g id="xtick_2">
     <g id="line2d_3">
      <g>
       <use style="stroke:#000000;stroke-width:0.8;" x="174.333442" xlink:href="#m98d8984551" y="307.584"/>
      </g>
     </g>
     <g id="text_2">
      <!-- 400 -->
      <defs>
       <path d="M 37.796875 64.3125 
L 12.890625 25.390625 
L 37.796875 25.390625 
z
M 35.203125 72.90625 
L 47.609375 72.90625 
L 47.609375 25.390625 
L 58.015625 25.390625 
L 58.015625 17.1875 
L 47.609375 17.1875 
L 47.609375 0 
L 37.796875 0 
L 37.796875 17.1875 
L 4.890625 17.1875 
L 4.890625 26.703125 
z
" id="DejaVuSans-52"/>
      </defs>
      <g transform="translate(160.599848 322.182437)scale(0.1 -0.1)">
       <use xlink:href="#DejaVuSans-8722"/>
       <use x="83.789062" xlink:href="#DejaVuSans-52"/>
       <use x="147.412109" xlink:href="#DejaVuSans-48"/>
       <use x="211.035156" xlink:href="#DejaVuSans-48"/>
      </g>
     </g>
    </g>
    <g id="xtick_3">
     <g id="line2d_4">
      <g>
       <use style="stroke:#000000;stroke-width:0.8;" x="233.866489" xlink:href="#m98d8984551" y="307.584"/>
      </g>
     </g>
     <g id="text_3">
      <!-- 200 -->
      <defs>
       <path d="M 19.1875 8.296875 
L 53.609375 8.296875 
L 53.609375 0 
L 7.328125 0 
L 7.328125 8.296875 
Q 12.9375 14.109375 22.625 23.890625 
Q 32.328125 33.6875 34.8125 36.53125 
Q 39.546875 41.84375 41.421875 45.53125 
Q 43.3125 49.21875 43.3125 52.78125 
Q 43.3125 58.59375 39.234375 62.25 
Q 35.15625 65.921875 28.609375 65.921875 
Q 23.96875 65.921875 18.8125 64.3125 
Q 13.671875 62.703125 7.8125 59.421875 
L 7.8125 69.390625 
Q 13.765625 71.78125 18.9375 73 
Q 24.125 74.21875 28.421875 74.21875 
Q 39.75 74.21875 46.484375 68.546875 
Q 53.21875 62.890625 53.21875 53.421875 
Q 53.21875 48.921875 51.53125 44.890625 
Q 49.859375 40.875 45.40625 35.40625 
Q 44.1875 33.984375 37.640625 27.21875 
Q 31.109375 20.453125 19.1875 8.296875 
z
" id="DejaVuSans-50"/>
      </defs>
      <g transform="translate(220.132896 322.182437)scale(0.1 -0.1)">
       <use xlink:href="#DejaVuSans-8722"/>
       <use x="83.789062" xlink:href="#DejaVuSans-50"/>
       <use x="147.412109" xlink:href="#DejaVuSans-48"/>
       <use x="211.035156" xlink:href="#DejaVuSans-48"/>
      </g>
     </g>
    </g>
    <g id="xtick_4">
     <g id="line2d_5">
      <g>
       <use style="stroke:#000000;stroke-width:0.8;" x="293.399537" xlink:href="#m98d8984551" y="307.584"/>
      </g>
     </g>
     <g id="text_4">
      <!-- 0 -->
      <g transform="translate(290.218287 322.182437)scale(0.1 -0.1)">
       <use xlink:href="#DejaVuSans-48"/>
      </g>
     </g>
    </g>
    <g id="xtick_5">
     <g id="line2d_6">
      <g>
       <use style="stroke:#000000;stroke-width:0.8;" x="352.932585" xlink:href="#m98d8984551" y="307.584"/>
      </g>
     </g>
     <g id="text_5">
      <!-- 200 -->
      <g transform="translate(343.388835 322.182437)scale(0.1 -0.1)">
       <use xlink:href="#DejaVuSans-50"/>
       <use x="63.623047" xlink:href="#DejaVuSans-48"/>
       <use x="127.246094" xlink:href="#DejaVuSans-48"/>
      </g>
     </g>
    </g>
    <g id="xtick_6">
     <g id="line2d_7">
      <g>
       <use style="stroke:#000000;stroke-width:0.8;" x="412.465632" xlink:href="#m98d8984551" y="307.584"/>
      </g>
     </g>
     <g id="text_6">
      <!-- 400 -->
      <g transform="translate(402.921882 322.182437)scale(0.1 -0.1)">
       <use xlink:href="#DejaVuSans-52"/>
       <use x="63.623047" xlink:href="#DejaVuSans-48"/>
       <use x="127.246094" xlink:href="#DejaVuSans-48"/>
      </g>
     </g>
    </g>
   </g>
   <g id="matplotlib.axis_2">
    <g id="ytick_1">
     <g id="line2d_8">
      <defs>
       <path d="M 0 0 
L -3.5 0 
" id="mbf63ec68d8" style="stroke:#000000;stroke-width:0.8;"/>
      </defs>
      <g>
       <use style="stroke:#000000;stroke-width:0.8;" x="57.6" xlink:href="#mbf63ec68d8" y="275.456004"/>
      </g>
     </g>
     <g id="text_7">
      <!-- 400 -->
      <g transform="translate(23.132812 279.255223)scale(0.1 -0.1)">
       <use xlink:href="#DejaVuSans-8722"/>
       <use x="83.789062" xlink:href="#DejaVuSans-52"/>
       <use x="147.412109" xlink:href="#DejaVuSans-48"/>
       <use x="211.035156" xlink:href="#DejaVuSans-48"/>
      </g>
     </g>
    </g>
    <g id="ytick_2">
     <g id="line2d_9">
      <g>
       <use style="stroke:#000000;stroke-width:0.8;" x="57.6" xlink:href="#mbf63ec68d8" y="235.86708"/>
      </g>
     </g>
     <g id="text_8">
      <!-- 300 -->
      <defs>
       <path d="M 40.578125 39.3125 
Q 47.65625 37.796875 51.625 33 
Q 55.609375 28.21875 55.609375 21.1875 
Q 55.609375 10.40625 48.1875 4.484375 
Q 40.765625 -1.421875 27.09375 -1.421875 
Q 22.515625 -1.421875 17.65625 -0.515625 
Q 12.796875 0.390625 7.625 2.203125 
L 7.625 11.71875 
Q 11.71875 9.328125 16.59375 8.109375 
Q 21.484375 6.890625 26.8125 6.890625 
Q 36.078125 6.890625 40.9375 10.546875 
Q 45.796875 14.203125 45.796875 21.1875 
Q 45.796875 27.640625 41.28125 31.265625 
Q 36.765625 34.90625 28.71875 34.90625 
L 20.21875 34.90625 
L 20.21875 43.015625 
L 29.109375 43.015625 
Q 36.375 43.015625 40.234375 45.921875 
Q 44.09375 48.828125 44.09375 54.296875 
Q 44.09375 59.90625 40.109375 62.90625 
Q 36.140625 65.921875 28.71875 65.921875 
Q 24.65625 65.921875 20.015625 65.03125 
Q 15.375 64.15625 9.8125 62.3125 
L 9.8125 71.09375 
Q 15.4375 72.65625 20.34375 73.4375 
Q 25.25 74.21875 29.59375 74.21875 
Q 40.828125 74.21875 47.359375 69.109375 
Q 53.90625 64.015625 53.90625 55.328125 
Q 53.90625 49.265625 50.4375 45.09375 
Q 46.96875 40.921875 40.578125 39.3125 
z
" id="DejaVuSans-51"/>
      </defs>
      <g transform="translate(23.132812 239.666298)scale(0.1 -0.1)">
       <use xlink:href="#DejaVuSans-8722"/>
       <use x="83.789062" xlink:href="#DejaVuSans-51"/>
       <use x="147.412109" xlink:href="#DejaVuSans-48"/>
       <use x="211.035156" xlink:href="#DejaVuSans-48"/>
      </g>
     </g>
    </g>
    <g id="ytick_3">
     <g id="line2d_10">
      <g>
       <use style="stroke:#000000;stroke-width:0.8;" x="57.6" xlink:href="#mbf63ec68d8" y="196.278155"/>
      </g>
     </g>
     <g id="text_9">
      <!-- 200 -->
      <g transform="translate(23.132812 200.077374)scale(0.1 -0.1)">
       <use xlink:href="#DejaVuSans-8722"/>
       <use x="83.789062" xlink:href="#DejaVuSans-50"/>
       <use x="147.412109" xlink:href="#DejaVuSans-48"/>
       <use x="211.035156" xlink:href="#DejaVuSans-48"/>
      </g>
     </g>
    </g>
    <g id="ytick_4">
     <g id="line2d_11">
      <g>
       <use style="stroke:#000000;stroke-width:0.8;" x="57.6" xlink:href="#mbf63ec68d8" y="156.689231"/>
      </g>
     </g>
     <g id="text_10">
      <!-- 100 -->
      <defs>
       <path d="M 12.40625 8.296875 
L 28.515625 8.296875 
L 28.515625 63.921875 
L 10.984375 60.40625 
L 10.984375 69.390625 
L 28.421875 72.90625 
L 38.28125 72.90625 
L 38.28125 8.296875 
L 54.390625 8.296875 
L 54.390625 0 
L 12.40625 0 
z
" id="DejaVuSans-49"/>
      </defs>
      <g transform="translate(23.132812 160.488449)scale(0.1 -0.1)">
       <use xlink:href="#DejaVuSans-8722"/>
       <use x="83.789062" xlink:href="#DejaVuSans-49"/>
       <use x="147.412109" xlink:href="#DejaVuSans-48"/>
       <use x="211.035156" xlink:href="#DejaVuSans-48"/>
      </g>
     </g>
    </g>
    <g id="ytick_5">
     <g id="line2d_12">
      <g>
       <use style="stroke:#000000;stroke-width:0.8;" x="57.6" xlink:href="#mbf63ec68d8" y="117.100306"/>
      </g>
     </g>
     <g id="text_11">
      <!-- 0 -->
      <g transform="translate(44.2375 120.899525)scale(0.1 -0.1)">
       <use xlink:href="#DejaVuSans-48"/>
      </g>
     </g>
    </g>
    <g id="ytick_6">
     <g id="line2d_13">
      <g>
       <use style="stroke:#000000;stroke-width:0.8;" x="57.6" xlink:href="#mbf63ec68d8" y="77.511382"/>
      </g>
     </g>
     <g id="text_12">
      <!-- 100 -->
      <g transform="translate(31.5125 81.3106)scale(0.1 -0.1)">
       <use xlink:href="#DejaVuSans-49"/>
       <use x="63.623047" xlink:href="#DejaVuSans-48"/>
       <use x="127.246094" xlink:href="#DejaVuSans-48"/>
      </g>
     </g>
    </g>
   </g>
   <g id="line2d_14">
    <path clip-path="url(#p241c4c03d5)" d="M 76.789113 292.743805 
L 219.791459 180.500804 
L 366.003397 80.11526 
L 202.624684 203.476324 
L 174.082645 221.836029 
L 346.401803 97.982323 
L 199.639789 205.207325 
L 183.473079 214.284946 
" style="fill:none;stroke:#ff0000;stroke-linecap:square;stroke-width:0.5;"/>
   </g>
   <g id="patch_3">
    <path d="M 57.6 307.584 
L 57.6 41.472 
" style="fill:none;stroke:#000000;stroke-linecap:square;stroke-linejoin:miter;stroke-width:0.8;"/>
   </g>
   <g id="patch_4">
    <path d="M 414.72 307.584 
L 414.72 41.472 
" style="fill:none;stroke:#000000;stroke-linecap:square;stroke-linejoin:miter;stroke-width:0.8;"/>
   </g>
   <g id="patch_5">
    <path d="M 57.6 307.584 
L 414.72 307.584 
" style="fill:none;stroke:#000000;stroke-linecap:square;stroke-linejoin:miter;stroke-width:0.8;"/>
   </g>
   <g id="patch_6">
    <path d="M 57.6 41.472 
L 414.72 41.472 
" style="fill:none;stroke:#000000;stroke-linecap:square;stroke-linejoin:miter;stroke-width:0.8;"/>
   </g>
   <g id="PathCollection_1">
    <defs>
     <path d="M 0 2.738613 
C 0.726289 2.738613 1.422928 2.450055 1.936492 1.936492 
C 2.450055 1.422928 2.738613 0.726289 2.738613 0 
C 2.738613 -0.726289 2.450055 -1.422928 1.936492 -1.936492 
C 1.422928 -2.450055 0.726289 -2.738613 0 -2.738613 
C -0.726289 -2.738613 -1.422928 -2.450055 -1.936492 -1.936492 
C -2.450055 -1.422928 -2.738613 -0.726289 -2.738613 0 
C -2.738613 0.726289 -2.450055 1.422928 -1.936492 1.936492 
C -1.422928 2.450055 -0.726289 2.738613 0 2.738613 
z
" id="m383e990955" style="stroke:#ff0000;"/>
    </defs>
    <g clip-path="url(#p241c4c03d5)">
     <use style="fill:#ff0000;stroke:#ff0000;" x="76.789113" xlink:href="#m383e990955" y="292.743805"/>
     <use style="fill:#ff0000;stroke:#ff0000;" x="219.791459" xlink:href="#m383e990955" y="180.500804"/>
     <use style="fill:#ff0000;stroke:#ff0000;" x="366.003397" xlink:href="#m383e990955" y="80.11526"/>
     <use style="fill:#ff0000;stroke:#ff0000;" x="202.624684" xlink:href="#m383e990955" y="203.476324"/>
     <use style="fill:#ff0000;stroke:#ff0000;" x="174.082645" xlink:href="#m383e990955" y="221.836029"/>
     <use style="fill:#ff0000;stroke:#ff0000;" x="346.401803" xlink:href="#m383e990955" y="97.982323"/>
     <use style="fill:#ff0000;stroke:#ff0000;" x="199.639789" xlink:href="#m383e990955" y="205.207325"/>
     <use style="fill:#ff0000;stroke:#ff0000;" x="183.473079" xlink:href="#m383e990955" y="214.284946"/>
    </g>
   </g>
   <g id="text_13">
    <!-- (93) Subject: s13, Known = False, Degree = 2, Duration = 0.1 -->
    <defs>
     <path d="M 31 75.875 
Q 24.46875 64.65625 21.28125 53.65625 
Q 18.109375 42.671875 18.109375 31.390625 
Q 18.109375 20.125 21.3125 9.0625 
Q 24.515625 -2 31 -13.1875 
L 23.1875 -13.1875 
Q 15.875 -1.703125 12.234375 9.375 
Q 8.59375 20.453125 8.59375 31.390625 
Q 8.59375 42.28125 12.203125 53.3125 
Q 15.828125 64.359375 23.1875 75.875 
z
" id="DejaVuSans-40"/>
     <path d="M 10.984375 1.515625 
L 10.984375 10.5 
Q 14.703125 8.734375 18.5 7.8125 
Q 22.3125 6.890625 25.984375 6.890625 
Q 35.75 6.890625 40.890625 13.453125 
Q 46.046875 20.015625 46.78125 33.40625 
Q 43.953125 29.203125 39.59375 26.953125 
Q 35.25 24.703125 29.984375 24.703125 
Q 19.046875 24.703125 12.671875 31.3125 
Q 6.296875 37.9375 6.296875 49.421875 
Q 6.296875 60.640625 12.9375 67.421875 
Q 19.578125 74.21875 30.609375 74.21875 
Q 43.265625 74.21875 49.921875 64.515625 
Q 56.59375 54.828125 56.59375 36.375 
Q 56.59375 19.140625 48.40625 8.859375 
Q 40.234375 -1.421875 26.421875 -1.421875 
Q 22.703125 -1.421875 18.890625 -0.6875 
Q 15.09375 0.046875 10.984375 1.515625 
z
M 30.609375 32.421875 
Q 37.25 32.421875 41.125 36.953125 
Q 45.015625 41.5 45.015625 49.421875 
Q 45.015625 57.28125 41.125 61.84375 
Q 37.25 66.40625 30.609375 66.40625 
Q 23.96875 66.40625 20.09375 61.84375 
Q 16.21875 57.28125 16.21875 49.421875 
Q 16.21875 41.5 20.09375 36.953125 
Q 23.96875 32.421875 30.609375 32.421875 
z
" id="DejaVuSans-57"/>
     <path d="M 8.015625 75.875 
L 15.828125 75.875 
Q 23.140625 64.359375 26.78125 53.3125 
Q 30.421875 42.28125 30.421875 31.390625 
Q 30.421875 20.453125 26.78125 9.375 
Q 23.140625 -1.703125 15.828125 -13.1875 
L 8.015625 -13.1875 
Q 14.5 -2 17.703125 9.0625 
Q 20.90625 20.125 20.90625 31.390625 
Q 20.90625 42.671875 17.703125 53.65625 
Q 14.5 64.65625 8.015625 75.875 
z
" id="DejaVuSans-41"/>
     <path id="DejaVuSans-32"/>
     <path d="M 53.515625 70.515625 
L 53.515625 60.890625 
Q 47.90625 63.578125 42.921875 64.890625 
Q 37.9375 66.21875 33.296875 66.21875 
Q 25.25 66.21875 20.875 63.09375 
Q 16.5 59.96875 16.5 54.203125 
Q 16.5 49.359375 19.40625 46.890625 
Q 22.3125 44.4375 30.421875 42.921875 
L 36.375 41.703125 
Q 47.40625 39.59375 52.65625 34.296875 
Q 57.90625 29 57.90625 20.125 
Q 57.90625 9.515625 50.796875 4.046875 
Q 43.703125 -1.421875 29.984375 -1.421875 
Q 24.8125 -1.421875 18.96875 -0.25 
Q 13.140625 0.921875 6.890625 3.21875 
L 6.890625 13.375 
Q 12.890625 10.015625 18.65625 8.296875 
Q 24.421875 6.59375 29.984375 6.59375 
Q 38.421875 6.59375 43.015625 9.90625 
Q 47.609375 13.234375 47.609375 19.390625 
Q 47.609375 24.75 44.3125 27.78125 
Q 41.015625 30.8125 33.5 32.328125 
L 27.484375 33.5 
Q 16.453125 35.6875 11.515625 40.375 
Q 6.59375 45.0625 6.59375 53.421875 
Q 6.59375 63.09375 13.40625 68.65625 
Q 20.21875 74.21875 32.171875 74.21875 
Q 37.3125 74.21875 42.625 73.28125 
Q 47.953125 72.359375 53.515625 70.515625 
z
" id="DejaVuSans-83"/>
     <path d="M 8.5 21.578125 
L 8.5 54.6875 
L 17.484375 54.6875 
L 17.484375 21.921875 
Q 17.484375 14.15625 20.5 10.265625 
Q 23.53125 6.390625 29.59375 6.390625 
Q 36.859375 6.390625 41.078125 11.03125 
Q 45.3125 15.671875 45.3125 23.6875 
L 45.3125 54.6875 
L 54.296875 54.6875 
L 54.296875 0 
L 45.3125 0 
L 45.3125 8.40625 
Q 42.046875 3.421875 37.71875 1 
Q 33.40625 -1.421875 27.6875 -1.421875 
Q 18.265625 -1.421875 13.375 4.4375 
Q 8.5 10.296875 8.5 21.578125 
z
M 31.109375 56 
z
" id="DejaVuSans-117"/>
     <path d="M 48.6875 27.296875 
Q 48.6875 37.203125 44.609375 42.84375 
Q 40.53125 48.484375 33.40625 48.484375 
Q 26.265625 48.484375 22.1875 42.84375 
Q 18.109375 37.203125 18.109375 27.296875 
Q 18.109375 17.390625 22.1875 11.75 
Q 26.265625 6.109375 33.40625 6.109375 
Q 40.53125 6.109375 44.609375 11.75 
Q 48.6875 17.390625 48.6875 27.296875 
z
M 18.109375 46.390625 
Q 20.953125 51.265625 25.265625 53.625 
Q 29.59375 56 35.59375 56 
Q 45.5625 56 51.78125 48.09375 
Q 58.015625 40.1875 58.015625 27.296875 
Q 58.015625 14.40625 51.78125 6.484375 
Q 45.5625 -1.421875 35.59375 -1.421875 
Q 29.59375 -1.421875 25.265625 0.953125 
Q 20.953125 3.328125 18.109375 8.203125 
L 18.109375 0 
L 9.078125 0 
L 9.078125 75.984375 
L 18.109375 75.984375 
z
" id="DejaVuSans-98"/>
     <path d="M 9.421875 54.6875 
L 18.40625 54.6875 
L 18.40625 -0.984375 
Q 18.40625 -11.421875 14.421875 -16.109375 
Q 10.453125 -20.796875 1.609375 -20.796875 
L -1.8125 -20.796875 
L -1.8125 -13.1875 
L 0.59375 -13.1875 
Q 5.71875 -13.1875 7.5625 -10.8125 
Q 9.421875 -8.453125 9.421875 -0.984375 
z
M 9.421875 75.984375 
L 18.40625 75.984375 
L 18.40625 64.59375 
L 9.421875 64.59375 
z
" id="DejaVuSans-106"/>
     <path d="M 56.203125 29.59375 
L 56.203125 25.203125 
L 14.890625 25.203125 
Q 15.484375 15.921875 20.484375 11.0625 
Q 25.484375 6.203125 34.421875 6.203125 
Q 39.59375 6.203125 44.453125 7.46875 
Q 49.3125 8.734375 54.109375 11.28125 
L 54.109375 2.78125 
Q 49.265625 0.734375 44.1875 -0.34375 
Q 39.109375 -1.421875 33.890625 -1.421875 
Q 20.796875 -1.421875 13.15625 6.1875 
Q 5.515625 13.8125 5.515625 26.8125 
Q 5.515625 40.234375 12.765625 48.109375 
Q 20.015625 56 32.328125 56 
Q 43.359375 56 49.78125 48.890625 
Q 56.203125 41.796875 56.203125 29.59375 
z
M 47.21875 32.234375 
Q 47.125 39.59375 43.09375 43.984375 
Q 39.0625 48.390625 32.421875 48.390625 
Q 24.90625 48.390625 20.390625 44.140625 
Q 15.875 39.890625 15.1875 32.171875 
z
" id="DejaVuSans-101"/>
     <path d="M 48.78125 52.59375 
L 48.78125 44.1875 
Q 44.96875 46.296875 41.140625 47.34375 
Q 37.3125 48.390625 33.40625 48.390625 
Q 24.65625 48.390625 19.8125 42.84375 
Q 14.984375 37.3125 14.984375 27.296875 
Q 14.984375 17.28125 19.8125 11.734375 
Q 24.65625 6.203125 33.40625 6.203125 
Q 37.3125 6.203125 41.140625 7.25 
Q 44.96875 8.296875 48.78125 10.40625 
L 48.78125 2.09375 
Q 45.015625 0.34375 40.984375 -0.53125 
Q 36.96875 -1.421875 32.421875 -1.421875 
Q 20.0625 -1.421875 12.78125 6.34375 
Q 5.515625 14.109375 5.515625 27.296875 
Q 5.515625 40.671875 12.859375 48.328125 
Q 20.21875 56 33.015625 56 
Q 37.15625 56 41.109375 55.140625 
Q 45.0625 54.296875 48.78125 52.59375 
z
" id="DejaVuSans-99"/>
     <path d="M 18.3125 70.21875 
L 18.3125 54.6875 
L 36.8125 54.6875 
L 36.8125 47.703125 
L 18.3125 47.703125 
L 18.3125 18.015625 
Q 18.3125 11.328125 20.140625 9.421875 
Q 21.96875 7.515625 27.59375 7.515625 
L 36.8125 7.515625 
L 36.8125 0 
L 27.59375 0 
Q 17.1875 0 13.234375 3.875 
Q 9.28125 7.765625 9.28125 18.015625 
L 9.28125 47.703125 
L 2.6875 47.703125 
L 2.6875 54.6875 
L 9.28125 54.6875 
L 9.28125 70.21875 
z
" id="DejaVuSans-116"/>
     <path d="M 11.71875 12.40625 
L 22.015625 12.40625 
L 22.015625 0 
L 11.71875 0 
z
M 11.71875 51.703125 
L 22.015625 51.703125 
L 22.015625 39.3125 
L 11.71875 39.3125 
z
" id="DejaVuSans-58"/>
     <path d="M 44.28125 53.078125 
L 44.28125 44.578125 
Q 40.484375 46.53125 36.375 47.5 
Q 32.28125 48.484375 27.875 48.484375 
Q 21.1875 48.484375 17.84375 46.4375 
Q 14.5 44.390625 14.5 40.28125 
Q 14.5 37.15625 16.890625 35.375 
Q 19.28125 33.59375 26.515625 31.984375 
L 29.59375 31.296875 
Q 39.15625 29.25 43.1875 25.515625 
Q 47.21875 21.78125 47.21875 15.09375 
Q 47.21875 7.46875 41.1875 3.015625 
Q 35.15625 -1.421875 24.609375 -1.421875 
Q 20.21875 -1.421875 15.453125 -0.5625 
Q 10.6875 0.296875 5.421875 2 
L 5.421875 11.28125 
Q 10.40625 8.6875 15.234375 7.390625 
Q 20.0625 6.109375 24.8125 6.109375 
Q 31.15625 6.109375 34.5625 8.28125 
Q 37.984375 10.453125 37.984375 14.40625 
Q 37.984375 18.0625 35.515625 20.015625 
Q 33.0625 21.96875 24.703125 23.78125 
L 21.578125 24.515625 
Q 13.234375 26.265625 9.515625 29.90625 
Q 5.8125 33.546875 5.8125 39.890625 
Q 5.8125 47.609375 11.28125 51.796875 
Q 16.75 56 26.8125 56 
Q 31.78125 56 36.171875 55.265625 
Q 40.578125 54.546875 44.28125 53.078125 
z
" id="DejaVuSans-115"/>
     <path d="M 11.71875 12.40625 
L 22.015625 12.40625 
L 22.015625 4 
L 14.015625 -11.625 
L 7.71875 -11.625 
L 11.71875 4 
z
" id="DejaVuSans-44"/>
     <path d="M 9.8125 72.90625 
L 19.671875 72.90625 
L 19.671875 42.09375 
L 52.390625 72.90625 
L 65.09375 72.90625 
L 28.90625 38.921875 
L 67.671875 0 
L 54.6875 0 
L 19.671875 35.109375 
L 19.671875 0 
L 9.8125 0 
z
" id="DejaVuSans-75"/>
     <path d="M 54.890625 33.015625 
L 54.890625 0 
L 45.90625 0 
L 45.90625 32.71875 
Q 45.90625 40.484375 42.875 44.328125 
Q 39.84375 48.1875 33.796875 48.1875 
Q 26.515625 48.1875 22.3125 43.546875 
Q 18.109375 38.921875 18.109375 30.90625 
L 18.109375 0 
L 9.078125 0 
L 9.078125 54.6875 
L 18.109375 54.6875 
L 18.109375 46.1875 
Q 21.34375 51.125 25.703125 53.5625 
Q 30.078125 56 35.796875 56 
Q 45.21875 56 50.046875 50.171875 
Q 54.890625 44.34375 54.890625 33.015625 
z
" id="DejaVuSans-110"/>
     <path d="M 30.609375 48.390625 
Q 23.390625 48.390625 19.1875 42.75 
Q 14.984375 37.109375 14.984375 27.296875 
Q 14.984375 17.484375 19.15625 11.84375 
Q 23.34375 6.203125 30.609375 6.203125 
Q 37.796875 6.203125 41.984375 11.859375 
Q 46.1875 17.53125 46.1875 27.296875 
Q 46.1875 37.015625 41.984375 42.703125 
Q 37.796875 48.390625 30.609375 48.390625 
z
M 30.609375 56 
Q 42.328125 56 49.015625 48.375 
Q 55.71875 40.765625 55.71875 27.296875 
Q 55.71875 13.875 49.015625 6.21875 
Q 42.328125 -1.421875 30.609375 -1.421875 
Q 18.84375 -1.421875 12.171875 6.21875 
Q 5.515625 13.875 5.515625 27.296875 
Q 5.515625 40.765625 12.171875 48.375 
Q 18.84375 56 30.609375 56 
z
" id="DejaVuSans-111"/>
     <path d="M 4.203125 54.6875 
L 13.1875 54.6875 
L 24.421875 12.015625 
L 35.59375 54.6875 
L 46.1875 54.6875 
L 57.421875 12.015625 
L 68.609375 54.6875 
L 77.59375 54.6875 
L 63.28125 0 
L 52.6875 0 
L 40.921875 44.828125 
L 29.109375 0 
L 18.5 0 
z
" id="DejaVuSans-119"/>
     <path d="M 10.59375 45.40625 
L 73.1875 45.40625 
L 73.1875 37.203125 
L 10.59375 37.203125 
z
M 10.59375 25.484375 
L 73.1875 25.484375 
L 73.1875 17.1875 
L 10.59375 17.1875 
z
" id="DejaVuSans-61"/>
     <path d="M 9.8125 72.90625 
L 51.703125 72.90625 
L 51.703125 64.59375 
L 19.671875 64.59375 
L 19.671875 43.109375 
L 48.578125 43.109375 
L 48.578125 34.8125 
L 19.671875 34.8125 
L 19.671875 0 
L 9.8125 0 
z
" id="DejaVuSans-70"/>
     <path d="M 34.28125 27.484375 
Q 23.390625 27.484375 19.1875 25 
Q 14.984375 22.515625 14.984375 16.5 
Q 14.984375 11.71875 18.140625 8.90625 
Q 21.296875 6.109375 26.703125 6.109375 
Q 34.1875 6.109375 38.703125 11.40625 
Q 43.21875 16.703125 43.21875 25.484375 
L 43.21875 27.484375 
z
M 52.203125 31.203125 
L 52.203125 0 
L 43.21875 0 
L 43.21875 8.296875 
Q 40.140625 3.328125 35.546875 0.953125 
Q 30.953125 -1.421875 24.3125 -1.421875 
Q 15.921875 -1.421875 10.953125 3.296875 
Q 6 8.015625 6 15.921875 
Q 6 25.140625 12.171875 29.828125 
Q 18.359375 34.515625 30.609375 34.515625 
L 43.21875 34.515625 
L 43.21875 35.40625 
Q 43.21875 41.609375 39.140625 45 
Q 35.0625 48.390625 27.6875 48.390625 
Q 23 48.390625 18.546875 47.265625 
Q 14.109375 46.140625 10.015625 43.890625 
L 10.015625 52.203125 
Q 14.9375 54.109375 19.578125 55.046875 
Q 24.21875 56 28.609375 56 
Q 40.484375 56 46.34375 49.84375 
Q 52.203125 43.703125 52.203125 31.203125 
z
" id="DejaVuSans-97"/>
     <path d="M 9.421875 75.984375 
L 18.40625 75.984375 
L 18.40625 0 
L 9.421875 0 
z
" id="DejaVuSans-108"/>
     <path d="M 19.671875 64.796875 
L 19.671875 8.109375 
L 31.59375 8.109375 
Q 46.6875 8.109375 53.6875 14.9375 
Q 60.6875 21.78125 60.6875 36.53125 
Q 60.6875 51.171875 53.6875 57.984375 
Q 46.6875 64.796875 31.59375 64.796875 
z
M 9.8125 72.90625 
L 30.078125 72.90625 
Q 51.265625 72.90625 61.171875 64.09375 
Q 71.09375 55.28125 71.09375 36.53125 
Q 71.09375 17.671875 61.125 8.828125 
Q 51.171875 0 30.078125 0 
L 9.8125 0 
z
" id="DejaVuSans-68"/>
     <path d="M 45.40625 27.984375 
Q 45.40625 37.75 41.375 43.109375 
Q 37.359375 48.484375 30.078125 48.484375 
Q 22.859375 48.484375 18.828125 43.109375 
Q 14.796875 37.75 14.796875 27.984375 
Q 14.796875 18.265625 18.828125 12.890625 
Q 22.859375 7.515625 30.078125 7.515625 
Q 37.359375 7.515625 41.375 12.890625 
Q 45.40625 18.265625 45.40625 27.984375 
z
M 54.390625 6.78125 
Q 54.390625 -7.171875 48.1875 -13.984375 
Q 42 -20.796875 29.203125 -20.796875 
Q 24.46875 -20.796875 20.265625 -20.09375 
Q 16.0625 -19.390625 12.109375 -17.921875 
L 12.109375 -9.1875 
Q 16.0625 -11.328125 19.921875 -12.34375 
Q 23.78125 -13.375 27.78125 -13.375 
Q 36.625 -13.375 41.015625 -8.765625 
Q 45.40625 -4.15625 45.40625 5.171875 
L 45.40625 9.625 
Q 42.625 4.78125 38.28125 2.390625 
Q 33.9375 0 27.875 0 
Q 17.828125 0 11.671875 7.65625 
Q 5.515625 15.328125 5.515625 27.984375 
Q 5.515625 40.671875 11.671875 48.328125 
Q 17.828125 56 27.875 56 
Q 33.9375 56 38.28125 53.609375 
Q 42.625 51.21875 45.40625 46.390625 
L 45.40625 54.6875 
L 54.390625 54.6875 
z
" id="DejaVuSans-103"/>
     <path d="M 41.109375 46.296875 
Q 39.59375 47.171875 37.8125 47.578125 
Q 36.03125 48 33.890625 48 
Q 26.265625 48 22.1875 43.046875 
Q 18.109375 38.09375 18.109375 28.8125 
L 18.109375 0 
L 9.078125 0 
L 9.078125 54.6875 
L 18.109375 54.6875 
L 18.109375 46.1875 
Q 20.953125 51.171875 25.484375 53.578125 
Q 30.03125 56 36.53125 56 
Q 37.453125 56 38.578125 55.875 
Q 39.703125 55.765625 41.0625 55.515625 
z
" id="DejaVuSans-114"/>
     <path d="M 9.421875 54.6875 
L 18.40625 54.6875 
L 18.40625 0 
L 9.421875 0 
z
M 9.421875 75.984375 
L 18.40625 75.984375 
L 18.40625 64.59375 
L 9.421875 64.59375 
z
" id="DejaVuSans-105"/>
     <path d="M 10.6875 12.40625 
L 21 12.40625 
L 21 0 
L 10.6875 0 
z
" id="DejaVuSans-46"/>
    </defs>
    <g transform="translate(49.741875 35.472)scale(0.12 -0.12)">
     <use xlink:href="#DejaVuSans-40"/>
     <use x="39.013672" xlink:href="#DejaVuSans-57"/>
     <use x="102.636719" xlink:href="#DejaVuSans-51"/>
     <use x="166.259766" xlink:href="#DejaVuSans-41"/>
     <use x="205.273438" xlink:href="#DejaVuSans-32"/>
     <use x="237.060547" xlink:href="#DejaVuSans-83"/>
     <use x="300.537109" xlink:href="#DejaVuSans-117"/>
     <use x="363.916016" xlink:href="#DejaVuSans-98"/>
     <use x="427.392578" xlink:href="#DejaVuSans-106"/>
     <use x="455.175781" xlink:href="#DejaVuSans-101"/>
     <use x="516.699219" xlink:href="#DejaVuSans-99"/>
     <use x="571.679688" xlink:href="#DejaVuSans-116"/>
     <use x="610.888672" xlink:href="#DejaVuSans-58"/>
     <use x="644.580078" xlink:href="#DejaVuSans-32"/>
     <use x="676.367188" xlink:href="#DejaVuSans-115"/>
     <use x="728.466797" xlink:href="#DejaVuSans-49"/>
     <use x="792.089844" xlink:href="#DejaVuSans-51"/>
     <use x="855.712891" xlink:href="#DejaVuSans-44"/>
     <use x="887.5" xlink:href="#DejaVuSans-32"/>
     <use x="919.287109" xlink:href="#DejaVuSans-75"/>
     <use x="984.863281" xlink:href="#DejaVuSans-110"/>
     <use x="1048.242188" xlink:href="#DejaVuSans-111"/>
     <use x="1109.423828" xlink:href="#DejaVuSans-119"/>
     <use x="1191.210938" xlink:href="#DejaVuSans-110"/>
     <use x="1254.589844" xlink:href="#DejaVuSans-32"/>
     <use x="1286.376953" xlink:href="#DejaVuSans-61"/>
     <use x="1370.166016" xlink:href="#DejaVuSans-32"/>
     <use x="1401.953125" xlink:href="#DejaVuSans-70"/>
     <use x="1459.332031" xlink:href="#DejaVuSans-97"/>
     <use x="1520.611328" xlink:href="#DejaVuSans-108"/>
     <use x="1548.394531" xlink:href="#DejaVuSans-115"/>
     <use x="1600.494141" xlink:href="#DejaVuSans-101"/>
     <use x="1662.017578" xlink:href="#DejaVuSans-44"/>
     <use x="1693.804688" xlink:href="#DejaVuSans-32"/>
     <use x="1725.591797" xlink:href="#DejaVuSans-68"/>
     <use x="1802.59375" xlink:href="#DejaVuSans-101"/>
     <use x="1864.117188" xlink:href="#DejaVuSans-103"/>
     <use x="1927.59375" xlink:href="#DejaVuSans-114"/>
     <use x="1968.675781" xlink:href="#DejaVuSans-101"/>
     <use x="2030.199219" xlink:href="#DejaVuSans-101"/>
     <use x="2091.722656" xlink:href="#DejaVuSans-32"/>
     <use x="2123.509766" xlink:href="#DejaVuSans-61"/>
     <use x="2207.298828" xlink:href="#DejaVuSans-32"/>
     <use x="2239.085938" xlink:href="#DejaVuSans-50"/>
     <use x="2302.708984" xlink:href="#DejaVuSans-44"/>
     <use x="2334.496094" xlink:href="#DejaVuSans-32"/>
     <use x="2366.283203" xlink:href="#DejaVuSans-68"/>
     <use x="2443.285156" xlink:href="#DejaVuSans-117"/>
     <use x="2506.664062" xlink:href="#DejaVuSans-114"/>
     <use x="2547.777344" xlink:href="#DejaVuSans-97"/>
     <use x="2609.056641" xlink:href="#DejaVuSans-116"/>
     <use x="2648.265625" xlink:href="#DejaVuSans-105"/>
     <use x="2676.048828" xlink:href="#DejaVuSans-111"/>
     <use x="2737.230469" xlink:href="#DejaVuSans-110"/>
     <use x="2800.609375" xlink:href="#DejaVuSans-32"/>
     <use x="2832.396484" xlink:href="#DejaVuSans-61"/>
     <use x="2916.185547" xlink:href="#DejaVuSans-32"/>
     <use x="2947.972656" xlink:href="#DejaVuSans-48"/>
     <use x="3011.595703" xlink:href="#DejaVuSans-46"/>
     <use x="3043.382812" xlink:href="#DejaVuSans-49"/>
    </g>
   </g>
  </g>
 </g>
 <defs>
  <clipPath id="p241c4c03d5">
   <rect height="266.112" width="357.12" x="57.6" y="41.472"/>
  </clipPath>
 </defs>
</svg>
