<?xml version="1.0" encoding="utf-8" standalone="no"?>
<!DOCTYPE svg PUBLIC "-//W3C//DTD SVG 1.1//EN"
  "http://www.w3.org/Graphics/SVG/1.1/DTD/svg11.dtd">
<!-- Created with matplotlib (https://matplotlib.org/) -->
<svg height="345.6pt" version="1.1" viewBox="0 0 460.8 345.6" width="460.8pt" xmlns="http://www.w3.org/2000/svg" xmlns:xlink="http://www.w3.org/1999/xlink">
 <defs>
  <style type="text/css">
*{stroke-linecap:butt;stroke-linejoin:round;}
  </style>
 </defs>
 <g id="figure_1">
  <g id="patch_1">
   <path d="M 0 345.6 
L 460.8 345.6 
L 460.8 0 
L 0 0 
z
" style="fill:#ffffff;"/>
  </g>
  <g id="axes_1">
   <g id="patch_2">
    <path d="M 57.6 307.584 
L 414.72 307.584 
L 414.72 41.472 
L 57.6 41.472 
z
" style="fill:#ffffff;"/>
   </g>
   <g id="line2d_1">
    <path clip-path="url(#p1e55503dbf)" d="M 397.43867 61.544583 
L 397.566635 61.060052 
L 397.698155 61.060052 
L 397.566635 61.060052 
L 397.43867 61.302317 
L 397.30715 61.302317 
L 397.30715 61.302317 
L 397.43867 61.060052 
L 397.43867 60.817787 
L 397.566635 60.817787 
L 397.566635 61.060052 
L 397.43867 61.544583 
L 397.175631 61.302317 
L 397.175631 61.060052 
L 397.30715 61.302317 
L 397.566635 61.302317 
L 397.698155 61.060052 
L 397.829674 61.060052 
L 397.829674 61.302317 
L 397.43867 60.817787 
L 397.698155 61.302317 
L 397.566635 61.544583 
L 397.566635 61.786848 
L 397.43867 61.544583 
L 397.30715 61.544583 
L 397.30715 61.302317 
L 397.43867 61.060052 
L 397.30715 61.060052 
L 397.044111 60.817787 
L 397.044111 60.336285 
L 397.30715 59.851754 
L 397.698155 59.609489 
L 397.961194 59.851754 
L 397.961194 60.336285 
L 397.829674 60.57855 
L 397.698155 60.09402 
L 397.566635 60.09402 
L 397.566635 60.336285 
L 397.698155 60.57855 
L 398.092714 60.57855 
L 398.092714 60.817787 
L 397.829674 60.57855 
L 397.698155 60.09402 
L 397.829674 60.336285 
L 397.961194 60.09402 
L 397.961194 59.851754 
L 397.961194 59.851754 
L 398.092714 60.09402 
L 398.487273 60.336285 
L 398.487273 59.851754 
L 398.487273 59.851754 
L 398.355753 60.336285 
L 398.355753 61.060052 
L 398.224233 61.060052 
L 398.224233 60.817787 
L 398.487273 60.09402 
L 398.355753 60.09402 
L 398.224233 60.336285 
L 398.224233 60.336285 
L 397.961194 60.336285 
L 397.829674 59.851754 
L 397.698155 59.851754 
L 397.698155 59.609489 
L 398.224233 59.609489 
L 398.355753 59.370252 
L 398.092714 58.643457 
L 397.829674 58.401191 
L 397.566635 58.643457 
L 397.43867 59.127987 
L 397.566635 59.609489 
L 397.829674 59.851754 
L 397.829674 60.09402 
L 398.224233 60.09402 
L 398.092714 60.336285 
L 397.829674 60.336285 
L 397.566635 59.851754 
L 397.829674 59.851754 
L 397.961194 60.09402 
L 397.829674 59.609489 
L 398.092714 58.643457 
L 398.224233 58.401191 
L 397.961194 58.643457 
L 397.698155 59.127987 
L 397.43867 58.885722 
L 397.43867 58.158926 
L 397.698155 57.919689 
L 397.961194 58.643457 
L 397.961194 59.370252 
L 397.43867 57.677424 
L 397.829674 57.677424 
L 397.43867 57.919689 
L 397.30715 57.677424 
L 397.30715 57.192893 
L 397.566635 56.950628 
L 397.698155 57.192893 
L 397.566635 56.950628 
L 397.30715 56.711391 
L 397.175631 56.950628 
L 397.30715 57.919689 
L 397.698155 58.158926 
L 398.092714 57.919689 
L 398.224233 57.435159 
L 397.43867 57.435159 
L 397.43867 57.677424 
L 397.829674 57.919689 
L 397.961194 57.677424 
L 397.698155 57.192893 
L 397.30715 57.192893 
L 397.175631 56.950628 
L 397.175631 56.226861 
L 397.30715 55.984596 
L 397.698155 56.469126 
L 397.698155 56.469126 
L 397.566635 56.469126 
L 397.566635 56.469126 
L 397.566635 56.711391 
L 397.566635 56.469126 
L 397.30715 54.776298 
L 397.175631 55.018563 
L 396.649552 55.018563 
L 396.518032 55.260828 
L 396.649552 55.260828 
L 396.912591 54.776298 
L 397.044111 54.776298 
L 397.175631 55.018563 
L 397.175631 55.018563 
L 397.044111 55.260828 
L 397.044111 54.534033 
L 396.912591 54.294796 
L 396.912591 54.534033 
L 397.044111 54.534033 
L 397.044111 54.776298 
L 396.912591 55.260828 
L 396.386512 55.260828 
L 396.781072 54.776298 
L 396.781072 54.534033 
L 396.518032 54.05253 
L 396.518032 53.810265 
L 396.386512 53.810265 
L 396.123473 54.05253 
L 396.123473 54.294796 
L 395.860434 55.260828 
L 395.860434 55.018563 
L 395.860434 54.534033 
L 395.991953 54.294796 
L 396.123473 54.776298 
L 396.254993 54.776298 
L 396.123473 54.05253 
L 396.123473 54.294796 
L 396.386512 54.776298 
L 396.123473 54.294796 
L 395.728914 54.05253 
L 395.597394 53.810265 
L 395.597394 53.568 
L 395.597394 53.568 
L 395.465875 53.810265 
L 395.202835 54.05253 
L 395.202835 54.294796 
L 395.465875 54.534033 
L 395.465875 54.776298 
L 395.334355 54.534033 
L 395.334355 54.294796 
L 395.334355 54.534033 
L 395.202835 54.294796 
L 395.334355 54.294796 
L 395.334355 54.294796 
L 395.334355 54.776298 
L 395.202835 55.018563 
L 395.334355 55.503094 
L 395.202835 55.74233 
L 395.071316 55.74233 
L 395.071316 55.503094 
L 395.202835 55.018563 
L 395.465875 54.776298 
L 395.597394 55.503094 
L 395.465875 56.469126 
L 395.202835 56.469126 
L 394.939796 55.984596 
L 395.071316 56.226861 
L 395.465875 56.469126 
L 395.597394 56.226861 
L 395.597394 55.984596 
L 395.728914 55.984596 
L 395.860434 56.226861 
L 395.334355 56.226861 
L 395.334355 56.711391 
L 394.939796 57.192893 
L 394.282198 57.435159 
L 393.496634 57.435159 
L 392.707516 57.919689 
L 390.212197 57.919689 
L 388.107882 58.158926 
L 382.985724 57.677424 
L 379.701286 57.435159 
L 375.627731 57.677424 
L 366.691502 59.127987 
L 361.963903 60.57855 
L 356.83819 62.26835 
L 341.727646 68.070602 
L 336.737007 69.518137 
L 331.742814 71.45323 
L 326.357616 73.869826 
L 321.100384 76.044157 
L 316.372785 77.736985 
L 312.03619 79.66905 
L 307.831115 82.085646 
L 303.231481 84.263004 
L 298.240842 85.471302 
L 293.115129 86.437335 
L 287.861451 87.645633 
L 277.7451 91.028261 
L 272.750907 92.478824 
L 268.023308 93.444857 
L 258.824039 95.861452 
L 253.833401 96.827485 
L 249.233767 98.035783 
L 245.160211 99.486346 
L 241.349695 100.213141 
L 237.670699 100.694643 
L 233.991703 101.663704 
L 230.312706 103.838035 
L 224.006871 108.428961 
L 221.380032 109.637259 
L 216.911918 112.29612 
L 215.337236 114.228185 
L 213.759 116.405543 
L 212.575323 118.822139 
L 210.474563 124.136833 
L 210.211523 125.587396 
L 210.211523 127.037959 
L 210.606082 128.246257 
L 211.132161 129.454554 
L 211.263681 130.662852 
L 211.52672 130.420587 
L 213.101401 130.420587 
L 213.232921 129.939085 
L 213.232921 128.730787 
L 212.706842 128.730787 
L 212.706842 129.454554 
L 212.575323 129.454554 
L 212.312283 129.69682 
L 211.789759 129.69682 
L 211.789759 129.939085 
L 211.52672 131.147383 
L 211.52672 132.35568 
L 211.132161 133.321713 
L 210.869122 132.840211 
L 210.869122 132.840211 
L 210.737602 133.079448 
L 210.869122 132.840211 
L 211.000641 132.840211 
L 210.869122 133.079448 
L 210.737602 133.806243 
L 210.869122 134.287746 
L 211.000641 134.287746 
L 211.000641 134.048509 
L 210.869122 134.048509 
L 210.606082 134.287746 
L 210.343043 134.048509 
L 210.343043 132.840211 
L 210.211523 132.597946 
L 210.211523 133.079448 
L 209.948484 134.048509 
L 209.816964 134.048509 
L 210.080004 134.048509 
L 210.080004 133.563978 
L 209.948484 133.563978 
L 209.553925 134.048509 
L 209.553925 134.287746 
L 209.948484 134.287746 
L 210.080004 134.048509 
L 209.553925 134.048509 
L 208.896326 134.772276 
L 209.159366 134.530011 
L 209.553925 133.806243 
L 209.685444 133.321713 
L 209.685444 133.321713 
L 209.422405 133.563978 
L 208.633287 133.563978 
L 208.764807 133.321713 
L 208.764807 134.530011 
L 208.764807 134.530011 
L 208.633287 134.287746 
L 208.505322 134.287746 
L 208.242283 134.772276 
L 208.242283 135.014541 
L 208.242283 134.287746 
L 208.505322 134.530011 
L 208.764807 135.256807 
L 208.505322 135.256807 
L 208.505322 135.738309 
L 208.633287 135.980574 
L 208.505322 135.738309 
L 208.373802 135.014541 
L 208.505322 134.530011 
L 208.764807 134.772276 
L 208.764807 135.256807 
L 208.373802 136.465104 
L 208.633287 136.704341 
L 209.027846 136.704341 
L 209.027846 136.465104 
L 208.896326 136.704341 
L 208.764807 137.431137 
L 208.505322 136.222839 
L 208.633287 137.188872 
L 207.979243 137.188872 
L 206.927086 136.946607 
L 205.611889 136.946607 
L 204.037208 137.188872 
L 197.205293 138.8817 
L 194.315415 140.089998 
L 184.195509 144.680924 
L 180.388548 147.58205 
L 172.899035 154.831837 
L 169.220039 158.941261 
L 165.804082 163.047657 
L 162.651164 167.15708 
L 159.626212 170.781974 
L 156.341774 174.406867 
L 153.057337 178.274026 
L 149.904419 182.38345 
L 147.014541 186.489846 
L 143.861623 190.117767 
L 141.103265 193.015865 
L 133.350713 200.507917 
L 126.781838 207.757704 
L 121.130047 215.01052 
L 120.212964 216.942585 
L 119.029287 221.052009 
L 117.845609 223.71087 
L 116.928526 225.158404 
L 116.928526 225.8852 
L 119.949924 231.202922 
L 119.949924 231.684424 
L 119.818405 232.168954 
L 119.818405 233.377252 
L 119.555365 235.309317 
L 119.292326 235.551583 
L 119.029287 235.551583 
L 118.897767 236.036113 
L 118.897767 236.75988 
L 118.240168 239.903272 
L 117.977129 240.869304 
L 117.71409 241.11157 
L 117.71409 243.043635 
L 117.58257 245.217965 
L 117.71409 245.217965 
L 117.58257 245.217965 
L 117.454605 245.46023 
L 117.454605 247.153059 
L 117.58257 247.392296 
L 117.58257 247.392296 
L 117.58257 247.634561 
L 117.454605 248.119091 
L 116.928526 248.842859 
L 117.060046 248.842859 
L 117.454605 248.603622 
L 117.58257 248.603622 
L 117.977129 249.81192 
L 117.845609 249.81192 
L 117.71409 249.569654 
L 117.845609 249.81192 
L 117.845609 250.293422 
L 117.71409 250.535687 
L 117.845609 250.777952 
L 117.845609 251.020217 
L 117.58257 251.259454 
L 117.060046 251.259454 
L 117.060046 251.259454 
L 117.323085 251.020217 
L 117.454605 251.259454 
L 117.454605 251.98625 
L 117.191566 253.194548 
L 117.060046 253.436813 
L 116.928526 254.16058 
L 117.191566 254.16058 
L 117.58257 253.67605 
L 117.060046 253.67605 
L 116.797007 253.918315 
L 116.665487 254.402846 
L 116.665487 254.884348 
L 116.797007 255.611143 
L 116.797007 256.334911 
L 117.191566 257.061707 
L 117.191566 257.543209 
L 116.928526 258.51227 
L 116.928526 258.993772 
L 117.060046 259.478302 
L 117.060046 259.478302 
L 116.928526 259.720567 
L 116.797007 260.20207 
L 116.928526 260.20207 
L 116.928526 259.959804 
L 116.665487 260.444335 
L 116.797007 261.410367 
L 116.797007 261.894898 
L 116.665487 261.894898 
L 116.533967 261.410367 
L 116.797007 262.3764 
L 117.060046 262.3764 
L 117.454605 262.137163 
L 117.58257 262.618665 
L 117.323085 263.584698 
L 117.060046 263.345461 
L 116.797007 262.86093 
L 116.665487 263.103196 
L 116.665487 263.826963 
L 116.797007 264.311493 
L 116.928526 264.311493 
L 117.060046 264.069228 
L 117.060046 263.826963 
L 116.665487 264.553759 
L 116.797007 264.311493 
L 116.797007 264.553759 
L 116.928526 266.243559 
L 116.928526 266.728089 
L 116.665487 267.936387 
L 116.533967 267.936387 
L 116.533967 267.694122 
L 116.665487 267.936387 
L 116.928526 268.660154 
L 116.797007 269.38695 
L 116.533967 269.629215 
L 116.665487 269.629215 
L 117.191566 269.629215 
L 117.060046 269.868452 
L 116.665487 270.352983 
L 116.139408 270.595248 
L 116.270928 270.595248 
L 116.402448 271.803546 
L 116.402448 271.56128 
L 116.270928 271.319015 
L 116.402448 271.803546 
L 116.533967 271.803546 
L 116.533967 271.319015 
L 116.402448 270.837513 
L 116.270928 270.837513 
L 116.402448 271.07675 
L 116.402448 271.07675 
L 116.139408 271.07675 
L 116.007889 270.837513 
L 116.139408 270.837513 
L 116.270928 271.07675 
L 116.533967 273.011843 
L 116.797007 273.735611 
L 116.797007 273.496374 
L 116.402448 271.803546 
L 115.876369 272.769578 
L 115.876369 273.254109 
L 116.270928 273.254109 
L 116.928526 272.288076 
L 116.928526 272.527313 
L 117.191566 273.254109 
L 117.191566 273.977876 
L 116.928526 274.220141 
L 116.665487 274.220141 
L 116.797007 273.977876 
L 116.797007 273.977876 
L 116.533967 273.977876 
L 116.665487 274.220141 
L 116.665487 274.462407 
L 116.533967 274.220141 
L 116.402448 273.735611 
L 116.533967 273.735611 
L 116.797007 274.220141 
L 116.797007 274.704672 
L 116.928526 274.943909 
L 116.797007 274.704672 
L 116.665487 273.735611 
L 116.797007 274.943909 
L 116.797007 274.704672 
L 117.191566 274.704672 
L 117.060046 274.704672 
L 116.665487 275.186174 
L 116.665487 275.428439 
L 116.928526 275.428439 
L 117.060046 275.670704 
L 117.060046 275.670704 
L 116.928526 275.91297 
L 116.797007 275.91297 
L 116.928526 276.152206 
L 117.060046 276.152206 
L 117.191566 276.394472 
L 116.928526 276.394472 
L 117.191566 275.91297 
L 117.454605 276.152206 
L 117.454605 276.636737 
L 117.323085 276.879002 
L 117.454605 276.636737 
L 117.191566 276.636737 
L 117.060046 276.879002 
L 117.323085 277.360504 
L 117.323085 277.121267 
L 117.191566 276.879002 
L 117.060046 278.0873 
L 117.060046 277.121267 
L 116.402448 277.60277 
L 116.533967 277.60277 
L 118.503208 277.60277 
L 121.524606 278.0873 
L 123.628921 278.0873 
L 126.518799 277.360504 
L 129.934756 276.879002 
L 138.604391 276.394472 
L 143.861623 276.636737 
L 149.378341 277.360504 
L 155.161652 277.845035 
L 161.335968 277.845035 
L 167.641803 278.0873 
L 174.079158 278.811067 
L 180.520067 279.295598 
L 193.526297 279.7771 
L 200.095172 280.988426 
L 206.664046 282.920491 
L 213.232921 284.128789 
L 219.275717 284.852556 
L 224.26991 285.821617 
L 228.738025 287.511417 
L 233.071065 289.446511 
L 237.14462 290.170278 
L 240.823617 290.654809 
L 244.108054 291.378576 
L 248.970727 293.552906 
L 251.203007 293.795172 
L 253.044283 293.795172 
L 255.934161 294.279702 
L 258.034921 293.31367 
L 258.69252 293.071404 
L 258.561 293.071404 
L 256.986319 292.105372 
L 256.32872 291.863107 
L 255.539602 292.105372 
L 254.618964 292.586874 
L 253.964921 292.586874 
L 253.438842 292.344609 
L 252.649724 292.586874 
L 252.518204 292.105372 
L 252.386684 292.105372 
L 253.044283 293.071404 
L 253.175803 293.071404 
L 253.175803 293.071404 
L 253.438842 293.552906 
L 253.833401 293.795172 
L 254.092886 294.279702 
L 254.092886 294.521967 
L 254.224405 294.279702 
L 254.750484 293.071404 
L 254.882004 293.31367 
L 255.013523 294.037437 
L 255.013523 294.761204 
L 254.882004 294.761204 
L 254.355925 295.245735 
L 254.224405 294.761204 
L 253.833401 294.521967 
L 253.570362 294.761204 
L 253.701881 295.00347 
L 253.570362 294.761204 
L 253.438842 294.279702 
L 253.438842 293.071404 
L 253.438842 293.31367 
L 253.701881 293.552906 
L 253.701881 295.488 
L 253.964921 295.245735 
L 254.224405 294.279702 
L 254.224405 294.279702 
L 253.964921 294.279702 
L 253.964921 294.279702 
L 253.964921 294.037437 
L 253.833401 293.552906 
L 253.570362 293.31367 
L 253.438842 293.795172 
L 253.438842 294.521967 
L 253.307322 294.521967 
L 253.307322 294.037437 
L 253.438842 294.037437 
L 253.438842 294.037437 
L 253.175803 293.552906 
L 253.175803 293.31367 
L 253.438842 292.829139 
L 253.438842 292.344609 
L 253.307322 292.105372 
L 253.175803 292.105372 
L 253.044283 292.344609 
L 253.175803 292.586874 
L 253.701881 292.586874 
L 253.701881 292.829139 
L 253.570362 292.829139 
L 253.701881 292.586874 
L 253.964921 292.344609 
L 253.964921 291.863107 
L 253.570362 291.136311 
L 253.175803 291.136311 
L 253.307322 291.620841 
L 253.570362 291.863107 
L 253.701881 291.620841 
L 253.833401 291.620841 
L 253.701881 291.863107 
L 253.570362 291.863107 
L 253.570362 291.378576 
L 253.833401 290.654809 
L 253.701881 290.654809 
L 253.701881 290.412543 
L 253.570362 290.654809 
L 253.570362 291.136311 
L 253.438842 291.378576 
L 253.307322 290.654809 
L 253.438842 290.412543 
L 253.307322 290.897074 
L 253.307322 290.897074 
L 253.438842 290.897074 
L 253.570362 291.378576 
L 253.438842 291.378576 
L 253.438842 290.654809 
L 253.570362 289.688776 
L 253.438842 290.412543 
L 253.307322 290.412543 
L 253.175803 289.928013 
L 253.175803 289.446511 
L 253.175803 289.928013 
L 253.044283 290.412543 
L 252.649724 290.654809 
L 252.518204 290.412543 
L 252.386684 289.446511 
L 252.649724 289.446511 
L 252.912763 289.688776 
L 252.912763 289.688776 
L 252.649724 289.688776 
L 252.518204 289.204246 
L 252.649724 289.446511 
L 253.044283 289.446511 
L 253.044283 289.688776 
L 252.781244 290.412543 
L 252.386684 290.654809 
L 252.386684 289.928013 
L 252.649724 289.204246 
L 252.518204 289.688776 
L 252.649724 289.688776 
L 252.781244 289.446511 
L 252.649724 289.204246 
L 252.649724 288.719715 
L 252.518204 288.719715 
L 252.518204 288.719715 
L 252.518204 289.928013 
L 252.518204 289.688776 
L 252.649724 289.204246 
L 252.649724 289.446511 
L 252.649724 290.170278 
L 252.649724 289.204246 
L 252.518204 288.96198 
L 251.597566 290.170278 
L 251.597566 290.897074 
L 252.518204 291.378576 
L 252.386684 291.378576 
L 252.123645 291.136311 
L 252.386684 290.654809 
L 252.255165 290.412543 
L 251.992125 290.412543 
L 251.466047 290.170278 
L 251.597566 290.170278 
L 251.860606 290.170278 
L 251.860606 290.654809 
L 251.729086 290.897074 
L 251.597566 290.897074 
L 251.597566 291.378576 
L 251.597566 291.378576 
L 251.729086 290.897074 
L 252.123645 290.654809 
L 252.123645 290.654809 
L 251.860606 290.412543 
L 251.860606 290.412543 
L 251.992125 290.897074 
L 251.729086 292.105372 
L 251.992125 291.620841 
L 252.255165 290.897074 
L 252.255165 291.136311 
L 252.386684 291.620841 
L 252.255165 291.620841 
L 252.255165 291.378576 
L 252.255165 291.378576 
L 252.649724 291.378576 
L 252.649724 291.620841 
L 251.334527 291.136311 
L 251.466047 291.378576 
L 251.992125 291.863107 
L 252.123645 291.620841 
L 251.992125 291.378576 
L 252.386684 291.378576 
L 252.386684 291.863107 
L 252.123645 292.105372 
L 252.123645 292.344609 
L 252.123645 291.378576 
L 252.255165 290.412543 
L 252.255165 290.654809 
L 252.518204 291.863107 
L 252.386684 291.863107 
L 252.255165 291.620841 
L 252.255165 291.863107 
L 252.255165 291.620841 
L 251.729086 290.412543 
L 252.386684 291.863107 
L 252.386684 291.863107 
L 251.597566 291.378576 
L 250.939968 291.136311 
L 250.022885 291.378576 
L 248.444649 292.105372 
L 246.475408 292.105372 
L 243.976534 290.897074 
L 241.086656 290.170278 
L 229.001064 289.204246 
L 219.016232 288.238213 
L 201.278849 287.511417 
L 195.232498 286.78765 
L 189.189702 286.30312 
L 183.015387 286.060854 
L 176.578032 286.060854 
L 170.137122 286.30312 
L 163.962806 286.78765 
L 152.794298 286.78765 
L 141.892383 286.30312 
L 130.592354 285.337087 
L 125.466642 285.094822 
L 120.344483 285.094822 
L 115.35029 285.337087 
L 110.491171 285.821617 
L 105.760018 285.821617 
L 96.692269 284.852556 
L 92.622268 284.852556 
L 88.811752 284.61332 
L 85.395795 284.61332 
L 82.374397 284.371054 
L 79.875523 283.644259 
L 77.643243 282.678226 
L 74.621845 282.678226 
L 73.964247 282.196724 
L 73.832727 281.712193 
L 73.964247 281.712193 
L 74.358806 282.196724 
L 75.147924 282.678226 
L 75.801968 282.920491 
L 76.459566 282.435961 
L 77.248684 281.712193 
L 78.169322 281.954459 
L 78.95844 282.435961 
L 79.612484 282.678226 
L 80.401602 282.196724 
L 80.796161 282.196724 
L 80.796161 282.678226 
L 80.533122 282.920491 
L 80.270082 282.920491 
L 80.007043 283.162757 
L 79.612484 283.886524 
L 78.82692 286.30312 
L 78.432361 286.30312 
L 77.774763 286.060854 
L 76.591086 286.060854 
L 76.328047 286.30312 
L 76.328047 286.30312 
L 76.459566 286.545385 
L 76.459566 286.78765 
L 76.328047 286.545385 
L 76.459566 286.30312 
L 76.854125 286.30312 
L 77.511724 287.269152 
L 77.511724 287.511417 
L 77.380204 287.995948 
L 77.643243 286.78765 
L 77.511724 286.78765 
L 77.643243 287.029915 
L 77.774763 287.511417 
L 77.774763 287.511417 
L 77.511724 287.511417 
L 77.380204 287.753683 
L 77.248684 288.238213 
L 77.511724 288.719715 
L 77.774763 288.47745 
L 77.906283 287.995948 
L 77.774763 287.753683 
L 77.511724 287.995948 
L 77.380204 288.47745 
L 77.380204 288.47745 
L 77.117165 287.995948 
L 76.854125 287.995948 
L 76.985645 287.995948 
L 77.117165 288.238213 
L 76.854125 288.47745 
L 76.459566 289.204246 
L 76.591086 288.96198 
L 76.854125 288.96198 
L 76.459566 288.238213 
L 76.328047 288.238213 
L 76.459566 288.719715 
L 76.854125 288.719715 
L 76.854125 288.719715 
L 76.459566 289.204246 
L 76.459566 289.446511 
L 76.591086 289.446511 
L 76.591086 288.96198 
L 76.722606 288.96198 
L 76.459566 289.928013 
L 75.801968 289.928013 
L 75.801968 289.688776 
L 76.196527 289.688776 
L 76.196527 289.688776 
L 75.933488 289.928013 
L 76.065007 289.688776 
L 76.065007 288.47745 
L 76.065007 288.719715 
L 75.933488 289.204246 
L 75.933488 289.688776 
L 75.933488 289.688776 
L 76.065007 289.688776 
L 75.410963 290.654809 
L 75.542483 290.654809 
L 75.670448 290.654809 
L 75.801968 290.412543 
L 75.801968 289.928013 
L 75.670448 289.688776 
L 75.542483 289.688776 
L 75.410963 290.170278 
L 75.410963 290.897074 
L 75.279444 291.136311 
L 75.279444 291.136311 
L 75.410963 291.378576 
L 75.410963 291.378576 
L 75.410963 291.863107 
L 75.670448 291.863107 
L 75.147924 291.863107 
L 75.016404 291.620841 
L 75.016404 291.136311 
L 76.065007 291.136311 
L 75.801968 291.136311 
L 75.410963 291.378576 
L 75.279444 291.620841 
L 75.279444 292.105372 
L 75.016404 292.105372 
L 75.016404 291.620841 
L 75.279444 291.378576 
L 75.542483 291.620841 
L 74.884885 291.620841 
L 75.147924 291.863107 
L 75.410963 291.863107 
L 75.410963 292.586874 
L 75.279444 292.344609 
L 75.147924 291.863107 
L 75.016404 291.863107 
L 75.016404 291.863107 
L 74.884885 292.105372 
L 74.884885 292.344609 
L 74.753365 292.105372 
L 75.016404 291.620841 
L 75.016404 292.586874 
L 75.147924 292.829139 
L 75.147924 292.829139 
L 75.147924 292.344609 
L 75.016404 292.105372 
L 74.753365 292.105372 
L 74.753365 291.863107 
L 74.753365 291.863107 
L 74.621845 291.620841 
L 74.490326 291.620841 
L 74.490326 292.586874 
L 74.621845 293.31367 
L 74.621845 292.829139 
L 74.884885 292.829139 
L 75.016404 292.344609 
L 75.016404 292.344609 
L 74.753365 292.829139 
L 74.621845 293.795172 
L 74.753365 293.552906 
L 74.884885 292.829139 
L 74.884885 292.105372 
L 74.884885 292.105372 
L 74.753365 292.344609 
L 74.621845 293.071404 
L 74.621845 293.795172 
L 74.884885 293.31367 
L 75.147924 292.344609 
L 75.016404 292.105372 
L 74.753365 292.586874 
L 74.490326 293.31367 
L 74.490326 294.521967 
L 74.490326 292.829139 
L 74.358806 292.829139 
L 74.227286 293.31367 
L 74.490326 293.795172 
L 74.490326 293.31367 
L 74.753365 293.071404 
L 75.147924 293.071404 
L 75.933488 293.552906 
L 77.117165 293.795172 
L 78.695401 293.552906 
L 81.0592 293.071404 
L 84.080598 293.071404 
L 87.496555 292.829139 
L 91.70163 292.344609 
L 102.081021 289.928013 
L 108.123817 288.96198 
L 121.919165 287.511417 
L 129.145638 287.029915 
L 136.372111 286.78765 
L 150.956577 287.269152 
L 158.577609 287.269152 
L 166.46168 286.78765 
L 188.795143 286.060854 
L 195.758577 286.545385 
L 202.458971 287.511417 
L 208.764807 288.238213 
L 215.337236 288.719715 
L 233.071065 289.446511 
L 238.065258 289.928013 
L 247.129452 291.378576 
L 250.939968 291.378576 
L 254.487445 290.897074 
L 257.903402 290.654809 
L 260.665315 290.170278 
L 262.897595 289.446511 
L 264.866835 288.96198 
L 267.760268 289.446511 
L 268.545832 289.204246 
L 269.20343 288.47745 
L 269.071911 288.238213 
L 268.677351 286.545385 
L 267.891788 285.579352 
L 266.708111 285.579352 
L 264.603796 286.545385 
L 264.081272 286.30312 
L 263.292154 286.060854 
L 263.029115 285.579352 
L 263.160634 285.579352 
L 263.029115 285.821617 
L 262.503036 286.30312 
L 262.634556 286.545385 
L 262.897595 287.269152 
L 263.423674 287.511417 
L 263.555193 287.269152 
L 263.555193 286.78765 
L 263.686713 286.78765 
L 263.949752 287.029915 
L 264.212792 287.753683 
L 264.475831 287.753683 
L 264.866835 287.269152 
L 264.603796 287.511417 
L 264.212792 287.511417 
L 264.212792 287.995948 
L 264.081272 288.47745 
L 263.160634 287.511417 
L 262.897595 287.753683 
L 263.029115 288.238213 
L 263.029115 287.995948 
L 263.160634 287.995948 
L 263.160634 288.96198 
L 262.766075 289.446511 
L 263.292154 288.719715 
L 263.423674 287.995948 
L 263.292154 288.238213 
L 262.897595 288.238213 
L 262.766075 288.47745 
L 263.029115 288.96198 
L 262.897595 288.47745 
L 262.766075 288.47745 
L 263.029115 288.47745 
L 263.029115 288.47745 
L 263.160634 288.96198 
L 263.292154 288.719715 
L 262.897595 288.238213 
L 262.503036 288.238213 
L 262.371516 287.995948 
L 262.503036 287.753683 
L 263.029115 288.238213 
L 263.160634 288.719715 
L 263.029115 289.204246 
L 262.897595 289.204246 
L 263.029115 289.204246 
L 263.029115 289.688776 
L 262.897595 290.412543 
L 262.897595 290.170278 
L 262.897595 289.688776 
L 263.029115 288.96198 
L 263.160634 288.96198 
L 263.160634 288.96198 
L 263.029115 289.446511 
L 262.371516 289.928013 
L 262.371516 290.170278 
L 262.766075 290.412543 
L 262.766075 290.170278 
L 262.503036 290.654809 
L 262.371516 290.412543 
L 262.371516 289.688776 
L 262.634556 289.446511 
L 262.766075 290.170278 
L 262.371516 290.654809 
L 261.976957 290.412543 
L 261.713918 289.688776 
L 261.845437 289.688776 
L 261.976957 290.170278 
L 262.108477 290.170278 
L 261.845437 289.204246 
L 262.371516 289.204246 
L 262.371516 288.96198 
L 262.239996 289.204246 
L 262.108477 289.204246 
L 261.976957 289.446511 
L 262.108477 289.446511 
L 261.845437 289.928013 
L 261.845437 289.928013 
L 261.976957 289.928013 
L 261.845437 290.170278 
L 261.845437 290.170278 
L 261.845437 290.412543 
L 261.976957 290.654809 
L 261.450878 290.654809 
L 261.582398 290.170278 
L 261.713918 290.170278 
L 261.845437 290.412543 
L 261.845437 290.897074 
L 261.713918 290.897074 
L 261.582398 290.412543 
L 261.582398 289.928013 
L 261.713918 289.688776 
L 261.845437 289.688776 
L 261.976957 289.928013 
L 262.108477 289.928013 
L 261.976957 290.170278 
L 261.319359 290.654809 
L 260.928354 290.897074 
L 260.665315 290.897074 
L 260.928354 291.136311 
L 261.713918 291.378576 
L 261.319359 291.378576 
L 261.319359 291.620841 
L 261.450878 291.863107 
L 261.187839 291.136311 
L 260.928354 290.897074 
L 260.665315 291.378576 
L 260.533795 291.378576 
L 260.665315 291.620841 
L 261.059874 291.378576 
L 261.450878 291.378576 
L 261.450878 291.620841 
L 261.450878 291.620841 
L 261.319359 291.620841 
L 260.928354 291.863107 
L 261.187839 291.620841 
L 261.187839 291.378576 
L 260.928354 291.136311 
L 260.665315 291.136311 
L 261.187839 291.136311 
L 261.450878 291.378576 
L 261.450878 291.620841 
L 261.187839 291.378576 
L 261.187839 291.378576 
L 261.187839 291.620841 
L 261.450878 292.105372 
L 261.450878 292.344609 
L 261.319359 292.586874 
L 261.319359 292.344609 
L 261.059874 291.378576 
L 261.059874 291.863107 
L 261.582398 292.829139 
L 261.450878 292.829139 
L 261.187839 292.344609 
L 260.796835 291.863107 
L 260.796835 292.105372 
L 261.059874 292.586874 
L 260.796835 292.586874 
L 260.796835 292.344609 
L 260.928354 292.344609 
L 260.928354 292.344609 
L 261.187839 292.586874 
L 261.450878 293.071404 
L 261.582398 293.795172 
L 261.187839 293.31367 
L 261.187839 292.344609 
L 261.319359 292.105372 
L 261.187839 292.344609 
L 261.187839 292.829139 
L 261.450878 293.31367 
L 261.582398 293.071404 
L 261.319359 292.586874 
L 261.187839 292.586874 
L 260.928354 292.829139 
L 260.796835 293.31367 
L 260.796835 293.31367 
" style="fill:none;stroke:#1f77b4;stroke-linecap:square;stroke-width:1.5;"/>
   </g>
   <g id="matplotlib.axis_1">
    <g id="xtick_1">
     <g id="line2d_2">
      <defs>
       <path d="M 0 0 
L 0 3.5 
" id="mafa3c7859f" style="stroke:#000000;stroke-width:0.8;"/>
      </defs>
      <g>
       <use style="stroke:#000000;stroke-width:0.8;" x="109.307494" xlink:href="#mafa3c7859f" y="307.584"/>
      </g>
     </g>
     <g id="text_1">
      <!-- −200 -->
      <defs>
       <path d="M 10.59375 35.5 
L 73.1875 35.5 
L 73.1875 27.203125 
L 10.59375 27.203125 
z
" id="DejaVuSans-8722"/>
       <path d="M 19.1875 8.296875 
L 53.609375 8.296875 
L 53.609375 0 
L 7.328125 0 
L 7.328125 8.296875 
Q 12.9375 14.109375 22.625 23.890625 
Q 32.328125 33.6875 34.8125 36.53125 
Q 39.546875 41.84375 41.421875 45.53125 
Q 43.3125 49.21875 43.3125 52.78125 
Q 43.3125 58.59375 39.234375 62.25 
Q 35.15625 65.921875 28.609375 65.921875 
Q 23.96875 65.921875 18.8125 64.3125 
Q 13.671875 62.703125 7.8125 59.421875 
L 7.8125 69.390625 
Q 13.765625 71.78125 18.9375 73 
Q 24.125 74.21875 28.421875 74.21875 
Q 39.75 74.21875 46.484375 68.546875 
Q 53.21875 62.890625 53.21875 53.421875 
Q 53.21875 48.921875 51.53125 44.890625 
Q 49.859375 40.875 45.40625 35.40625 
Q 44.1875 33.984375 37.640625 27.21875 
Q 31.109375 20.453125 19.1875 8.296875 
z
" id="DejaVuSans-50"/>
       <path d="M 31.78125 66.40625 
Q 24.171875 66.40625 20.328125 58.90625 
Q 16.5 51.421875 16.5 36.375 
Q 16.5 21.390625 20.328125 13.890625 
Q 24.171875 6.390625 31.78125 6.390625 
Q 39.453125 6.390625 43.28125 13.890625 
Q 47.125 21.390625 47.125 36.375 
Q 47.125 51.421875 43.28125 58.90625 
Q 39.453125 66.40625 31.78125 66.40625 
z
M 31.78125 74.21875 
Q 44.046875 74.21875 50.515625 64.515625 
Q 56.984375 54.828125 56.984375 36.375 
Q 56.984375 17.96875 50.515625 8.265625 
Q 44.046875 -1.421875 31.78125 -1.421875 
Q 19.53125 -1.421875 13.0625 8.265625 
Q 6.59375 17.96875 6.59375 36.375 
Q 6.59375 54.828125 13.0625 64.515625 
Q 19.53125 74.21875 31.78125 74.21875 
z
" id="DejaVuSans-48"/>
      </defs>
      <g transform="translate(95.5739 322.182437)scale(0.1 -0.1)">
       <use xlink:href="#DejaVuSans-8722"/>
       <use x="83.789062" xlink:href="#DejaVuSans-50"/>
       <use x="147.412109" xlink:href="#DejaVuSans-48"/>
       <use x="211.035156" xlink:href="#DejaVuSans-48"/>
      </g>
     </g>
    </g>
    <g id="xtick_2">
     <g id="line2d_3">
      <g>
       <use style="stroke:#000000;stroke-width:0.8;" x="180.399212" xlink:href="#mafa3c7859f" y="307.584"/>
      </g>
     </g>
     <g id="text_2">
      <!-- 0 -->
      <g transform="translate(177.217962 322.182437)scale(0.1 -0.1)">
       <use xlink:href="#DejaVuSans-48"/>
      </g>
     </g>
    </g>
    <g id="xtick_3">
     <g id="line2d_4">
      <g>
       <use style="stroke:#000000;stroke-width:0.8;" x="251.490929" xlink:href="#mafa3c7859f" y="307.584"/>
      </g>
     </g>
     <g id="text_3">
      <!-- 200 -->
      <g transform="translate(241.947179 322.182437)scale(0.1 -0.1)">
       <use xlink:href="#DejaVuSans-50"/>
       <use x="63.623047" xlink:href="#DejaVuSans-48"/>
       <use x="127.246094" xlink:href="#DejaVuSans-48"/>
      </g>
     </g>
    </g>
    <g id="xtick_4">
     <g id="line2d_5">
      <g>
       <use style="stroke:#000000;stroke-width:0.8;" x="322.582646" xlink:href="#mafa3c7859f" y="307.584"/>
      </g>
     </g>
     <g id="text_4">
      <!-- 400 -->
      <defs>
       <path d="M 37.796875 64.3125 
L 12.890625 25.390625 
L 37.796875 25.390625 
z
M 35.203125 72.90625 
L 47.609375 72.90625 
L 47.609375 25.390625 
L 58.015625 25.390625 
L 58.015625 17.1875 
L 47.609375 17.1875 
L 47.609375 0 
L 37.796875 0 
L 37.796875 17.1875 
L 4.890625 17.1875 
L 4.890625 26.703125 
z
" id="DejaVuSans-52"/>
      </defs>
      <g transform="translate(313.038896 322.182437)scale(0.1 -0.1)">
       <use xlink:href="#DejaVuSans-52"/>
       <use x="63.623047" xlink:href="#DejaVuSans-48"/>
       <use x="127.246094" xlink:href="#DejaVuSans-48"/>
      </g>
     </g>
    </g>
    <g id="xtick_5">
     <g id="line2d_6">
      <g>
       <use style="stroke:#000000;stroke-width:0.8;" x="393.674363" xlink:href="#mafa3c7859f" y="307.584"/>
      </g>
     </g>
     <g id="text_5">
      <!-- 600 -->
      <defs>
       <path d="M 33.015625 40.375 
Q 26.375 40.375 22.484375 35.828125 
Q 18.609375 31.296875 18.609375 23.390625 
Q 18.609375 15.53125 22.484375 10.953125 
Q 26.375 6.390625 33.015625 6.390625 
Q 39.65625 6.390625 43.53125 10.953125 
Q 47.40625 15.53125 47.40625 23.390625 
Q 47.40625 31.296875 43.53125 35.828125 
Q 39.65625 40.375 33.015625 40.375 
z
M 52.59375 71.296875 
L 52.59375 62.3125 
Q 48.875 64.0625 45.09375 64.984375 
Q 41.3125 65.921875 37.59375 65.921875 
Q 27.828125 65.921875 22.671875 59.328125 
Q 17.53125 52.734375 16.796875 39.40625 
Q 19.671875 43.65625 24.015625 45.921875 
Q 28.375 48.1875 33.59375 48.1875 
Q 44.578125 48.1875 50.953125 41.515625 
Q 57.328125 34.859375 57.328125 23.390625 
Q 57.328125 12.15625 50.6875 5.359375 
Q 44.046875 -1.421875 33.015625 -1.421875 
Q 20.359375 -1.421875 13.671875 8.265625 
Q 6.984375 17.96875 6.984375 36.375 
Q 6.984375 53.65625 15.1875 63.9375 
Q 23.390625 74.21875 37.203125 74.21875 
Q 40.921875 74.21875 44.703125 73.484375 
Q 48.484375 72.75 52.59375 71.296875 
z
" id="DejaVuSans-54"/>
      </defs>
      <g transform="translate(384.130613 322.182437)scale(0.1 -0.1)">
       <use xlink:href="#DejaVuSans-54"/>
       <use x="63.623047" xlink:href="#DejaVuSans-48"/>
       <use x="127.246094" xlink:href="#DejaVuSans-48"/>
      </g>
     </g>
    </g>
   </g>
   <g id="matplotlib.axis_2">
    <g id="ytick_1">
     <g id="line2d_7">
      <defs>
       <path d="M 0 0 
L -3.5 0 
" id="mc874594850" style="stroke:#000000;stroke-width:0.8;"/>
      </defs>
      <g>
       <use style="stroke:#000000;stroke-width:0.8;" x="57.6" xlink:href="#mc874594850" y="306.087104"/>
      </g>
     </g>
     <g id="text_6">
      <!-- −200 -->
      <g transform="translate(23.132812 309.886322)scale(0.1 -0.1)">
       <use xlink:href="#DejaVuSans-8722"/>
       <use x="83.789062" xlink:href="#DejaVuSans-50"/>
       <use x="147.412109" xlink:href="#DejaVuSans-48"/>
       <use x="211.035156" xlink:href="#DejaVuSans-48"/>
      </g>
     </g>
    </g>
    <g id="ytick_2">
     <g id="line2d_8">
      <g>
       <use style="stroke:#000000;stroke-width:0.8;" x="57.6" xlink:href="#mc874594850" y="275.80395"/>
      </g>
     </g>
     <g id="text_7">
      <!-- −100 -->
      <defs>
       <path d="M 12.40625 8.296875 
L 28.515625 8.296875 
L 28.515625 63.921875 
L 10.984375 60.40625 
L 10.984375 69.390625 
L 28.421875 72.90625 
L 38.28125 72.90625 
L 38.28125 8.296875 
L 54.390625 8.296875 
L 54.390625 0 
L 12.40625 0 
z
" id="DejaVuSans-49"/>
      </defs>
      <g transform="translate(23.132812 279.603169)scale(0.1 -0.1)">
       <use xlink:href="#DejaVuSans-8722"/>
       <use x="83.789062" xlink:href="#DejaVuSans-49"/>
       <use x="147.412109" xlink:href="#DejaVuSans-48"/>
       <use x="211.035156" xlink:href="#DejaVuSans-48"/>
      </g>
     </g>
    </g>
    <g id="ytick_3">
     <g id="line2d_9">
      <g>
       <use style="stroke:#000000;stroke-width:0.8;" x="57.6" xlink:href="#mc874594850" y="245.520797"/>
      </g>
     </g>
     <g id="text_8">
      <!-- 0 -->
      <g transform="translate(44.2375 249.320015)scale(0.1 -0.1)">
       <use xlink:href="#DejaVuSans-48"/>
      </g>
     </g>
    </g>
    <g id="ytick_4">
     <g id="line2d_10">
      <g>
       <use style="stroke:#000000;stroke-width:0.8;" x="57.6" xlink:href="#mc874594850" y="215.237643"/>
      </g>
     </g>
     <g id="text_9">
      <!-- 100 -->
      <g transform="translate(31.5125 219.036862)scale(0.1 -0.1)">
       <use xlink:href="#DejaVuSans-49"/>
       <use x="63.623047" xlink:href="#DejaVuSans-48"/>
       <use x="127.246094" xlink:href="#DejaVuSans-48"/>
      </g>
     </g>
    </g>
    <g id="ytick_5">
     <g id="line2d_11">
      <g>
       <use style="stroke:#000000;stroke-width:0.8;" x="57.6" xlink:href="#mc874594850" y="184.95449"/>
      </g>
     </g>
     <g id="text_10">
      <!-- 200 -->
      <g transform="translate(31.5125 188.753708)scale(0.1 -0.1)">
       <use xlink:href="#DejaVuSans-50"/>
       <use x="63.623047" xlink:href="#DejaVuSans-48"/>
       <use x="127.246094" xlink:href="#DejaVuSans-48"/>
      </g>
     </g>
    </g>
    <g id="ytick_6">
     <g id="line2d_12">
      <g>
       <use style="stroke:#000000;stroke-width:0.8;" x="57.6" xlink:href="#mc874594850" y="154.671336"/>
      </g>
     </g>
     <g id="text_11">
      <!-- 300 -->
      <defs>
       <path d="M 40.578125 39.3125 
Q 47.65625 37.796875 51.625 33 
Q 55.609375 28.21875 55.609375 21.1875 
Q 55.609375 10.40625 48.1875 4.484375 
Q 40.765625 -1.421875 27.09375 -1.421875 
Q 22.515625 -1.421875 17.65625 -0.515625 
Q 12.796875 0.390625 7.625 2.203125 
L 7.625 11.71875 
Q 11.71875 9.328125 16.59375 8.109375 
Q 21.484375 6.890625 26.8125 6.890625 
Q 36.078125 6.890625 40.9375 10.546875 
Q 45.796875 14.203125 45.796875 21.1875 
Q 45.796875 27.640625 41.28125 31.265625 
Q 36.765625 34.90625 28.71875 34.90625 
L 20.21875 34.90625 
L 20.21875 43.015625 
L 29.109375 43.015625 
Q 36.375 43.015625 40.234375 45.921875 
Q 44.09375 48.828125 44.09375 54.296875 
Q 44.09375 59.90625 40.109375 62.90625 
Q 36.140625 65.921875 28.71875 65.921875 
Q 24.65625 65.921875 20.015625 65.03125 
Q 15.375 64.15625 9.8125 62.3125 
L 9.8125 71.09375 
Q 15.4375 72.65625 20.34375 73.4375 
Q 25.25 74.21875 29.59375 74.21875 
Q 40.828125 74.21875 47.359375 69.109375 
Q 53.90625 64.015625 53.90625 55.328125 
Q 53.90625 49.265625 50.4375 45.09375 
Q 46.96875 40.921875 40.578125 39.3125 
z
" id="DejaVuSans-51"/>
      </defs>
      <g transform="translate(31.5125 158.470555)scale(0.1 -0.1)">
       <use xlink:href="#DejaVuSans-51"/>
       <use x="63.623047" xlink:href="#DejaVuSans-48"/>
       <use x="127.246094" xlink:href="#DejaVuSans-48"/>
      </g>
     </g>
    </g>
    <g id="ytick_7">
     <g id="line2d_13">
      <g>
       <use style="stroke:#000000;stroke-width:0.8;" x="57.6" xlink:href="#mc874594850" y="124.388183"/>
      </g>
     </g>
     <g id="text_12">
      <!-- 400 -->
      <g transform="translate(31.5125 128.187402)scale(0.1 -0.1)">
       <use xlink:href="#DejaVuSans-52"/>
       <use x="63.623047" xlink:href="#DejaVuSans-48"/>
       <use x="127.246094" xlink:href="#DejaVuSans-48"/>
      </g>
     </g>
    </g>
    <g id="ytick_8">
     <g id="line2d_14">
      <g>
       <use style="stroke:#000000;stroke-width:0.8;" x="57.6" xlink:href="#mc874594850" y="94.105029"/>
      </g>
     </g>
     <g id="text_13">
      <!-- 500 -->
      <defs>
       <path d="M 10.796875 72.90625 
L 49.515625 72.90625 
L 49.515625 64.59375 
L 19.828125 64.59375 
L 19.828125 46.734375 
Q 21.96875 47.46875 24.109375 47.828125 
Q 26.265625 48.1875 28.421875 48.1875 
Q 40.625 48.1875 47.75 41.5 
Q 54.890625 34.8125 54.890625 23.390625 
Q 54.890625 11.625 47.5625 5.09375 
Q 40.234375 -1.421875 26.90625 -1.421875 
Q 22.3125 -1.421875 17.546875 -0.640625 
Q 12.796875 0.140625 7.71875 1.703125 
L 7.71875 11.625 
Q 12.109375 9.234375 16.796875 8.0625 
Q 21.484375 6.890625 26.703125 6.890625 
Q 35.15625 6.890625 40.078125 11.328125 
Q 45.015625 15.765625 45.015625 23.390625 
Q 45.015625 31 40.078125 35.4375 
Q 35.15625 39.890625 26.703125 39.890625 
Q 22.75 39.890625 18.8125 39.015625 
Q 14.890625 38.140625 10.796875 36.28125 
z
" id="DejaVuSans-53"/>
      </defs>
      <g transform="translate(31.5125 97.904248)scale(0.1 -0.1)">
       <use xlink:href="#DejaVuSans-53"/>
       <use x="63.623047" xlink:href="#DejaVuSans-48"/>
       <use x="127.246094" xlink:href="#DejaVuSans-48"/>
      </g>
     </g>
    </g>
    <g id="ytick_9">
     <g id="line2d_15">
      <g>
       <use style="stroke:#000000;stroke-width:0.8;" x="57.6" xlink:href="#mc874594850" y="63.821876"/>
      </g>
     </g>
     <g id="text_14">
      <!-- 600 -->
      <g transform="translate(31.5125 67.621095)scale(0.1 -0.1)">
       <use xlink:href="#DejaVuSans-54"/>
       <use x="63.623047" xlink:href="#DejaVuSans-48"/>
       <use x="127.246094" xlink:href="#DejaVuSans-48"/>
      </g>
     </g>
    </g>
   </g>
   <g id="line2d_16">
    <path clip-path="url(#p1e55503dbf)" d="M 395.767162 57.866681 
L 210.868534 131.26891 
L 117.658401 247.345342 
L 118.312876 272.595842 
L 251.554576 291.554266 
L 77.547189 288.356044 
L 261.844543 289.02767 
" style="fill:none;stroke:#ff0000;stroke-linecap:square;stroke-width:0.5;"/>
   </g>
   <g id="patch_3">
    <path d="M 57.6 307.584 
L 57.6 41.472 
" style="fill:none;stroke:#000000;stroke-linecap:square;stroke-linejoin:miter;stroke-width:0.8;"/>
   </g>
   <g id="patch_4">
    <path d="M 414.72 307.584 
L 414.72 41.472 
" style="fill:none;stroke:#000000;stroke-linecap:square;stroke-linejoin:miter;stroke-width:0.8;"/>
   </g>
   <g id="patch_5">
    <path d="M 57.6 307.584 
L 414.72 307.584 
" style="fill:none;stroke:#000000;stroke-linecap:square;stroke-linejoin:miter;stroke-width:0.8;"/>
   </g>
   <g id="patch_6">
    <path d="M 57.6 41.472 
L 414.72 41.472 
" style="fill:none;stroke:#000000;stroke-linecap:square;stroke-linejoin:miter;stroke-width:0.8;"/>
   </g>
   <g id="PathCollection_1">
    <defs>
     <path d="M 0 2.738613 
C 0.726289 2.738613 1.422928 2.450055 1.936492 1.936492 
C 2.450055 1.422928 2.738613 0.726289 2.738613 0 
C 2.738613 -0.726289 2.450055 -1.422928 1.936492 -1.936492 
C 1.422928 -2.450055 0.726289 -2.738613 0 -2.738613 
C -0.726289 -2.738613 -1.422928 -2.450055 -1.936492 -1.936492 
C -2.450055 -1.422928 -2.738613 -0.726289 -2.738613 0 
C -2.738613 0.726289 -2.450055 1.422928 -1.936492 1.936492 
C -1.422928 2.450055 -0.726289 2.738613 0 2.738613 
z
" id="m123002317d" style="stroke:#ff0000;"/>
    </defs>
    <g clip-path="url(#p1e55503dbf)">
     <use style="fill:#ff0000;stroke:#ff0000;" x="395.767162" xlink:href="#m123002317d" y="57.866681"/>
     <use style="fill:#ff0000;stroke:#ff0000;" x="210.868534" xlink:href="#m123002317d" y="131.26891"/>
     <use style="fill:#ff0000;stroke:#ff0000;" x="117.658401" xlink:href="#m123002317d" y="247.345342"/>
     <use style="fill:#ff0000;stroke:#ff0000;" x="118.312876" xlink:href="#m123002317d" y="272.595842"/>
     <use style="fill:#ff0000;stroke:#ff0000;" x="251.554576" xlink:href="#m123002317d" y="291.554266"/>
     <use style="fill:#ff0000;stroke:#ff0000;" x="77.547189" xlink:href="#m123002317d" y="288.356044"/>
     <use style="fill:#ff0000;stroke:#ff0000;" x="261.844543" xlink:href="#m123002317d" y="289.02767"/>
    </g>
   </g>
   <g id="text_15">
    <!-- (1) Subject: s17, Known = False, Degree = 1, Duration = 0.1 -->
    <defs>
     <path d="M 31 75.875 
Q 24.46875 64.65625 21.28125 53.65625 
Q 18.109375 42.671875 18.109375 31.390625 
Q 18.109375 20.125 21.3125 9.0625 
Q 24.515625 -2 31 -13.1875 
L 23.1875 -13.1875 
Q 15.875 -1.703125 12.234375 9.375 
Q 8.59375 20.453125 8.59375 31.390625 
Q 8.59375 42.28125 12.203125 53.3125 
Q 15.828125 64.359375 23.1875 75.875 
z
" id="DejaVuSans-40"/>
     <path d="M 8.015625 75.875 
L 15.828125 75.875 
Q 23.140625 64.359375 26.78125 53.3125 
Q 30.421875 42.28125 30.421875 31.390625 
Q 30.421875 20.453125 26.78125 9.375 
Q 23.140625 -1.703125 15.828125 -13.1875 
L 8.015625 -13.1875 
Q 14.5 -2 17.703125 9.0625 
Q 20.90625 20.125 20.90625 31.390625 
Q 20.90625 42.671875 17.703125 53.65625 
Q 14.5 64.65625 8.015625 75.875 
z
" id="DejaVuSans-41"/>
     <path id="DejaVuSans-32"/>
     <path d="M 53.515625 70.515625 
L 53.515625 60.890625 
Q 47.90625 63.578125 42.921875 64.890625 
Q 37.9375 66.21875 33.296875 66.21875 
Q 25.25 66.21875 20.875 63.09375 
Q 16.5 59.96875 16.5 54.203125 
Q 16.5 49.359375 19.40625 46.890625 
Q 22.3125 44.4375 30.421875 42.921875 
L 36.375 41.703125 
Q 47.40625 39.59375 52.65625 34.296875 
Q 57.90625 29 57.90625 20.125 
Q 57.90625 9.515625 50.796875 4.046875 
Q 43.703125 -1.421875 29.984375 -1.421875 
Q 24.8125 -1.421875 18.96875 -0.25 
Q 13.140625 0.921875 6.890625 3.21875 
L 6.890625 13.375 
Q 12.890625 10.015625 18.65625 8.296875 
Q 24.421875 6.59375 29.984375 6.59375 
Q 38.421875 6.59375 43.015625 9.90625 
Q 47.609375 13.234375 47.609375 19.390625 
Q 47.609375 24.75 44.3125 27.78125 
Q 41.015625 30.8125 33.5 32.328125 
L 27.484375 33.5 
Q 16.453125 35.6875 11.515625 40.375 
Q 6.59375 45.0625 6.59375 53.421875 
Q 6.59375 63.09375 13.40625 68.65625 
Q 20.21875 74.21875 32.171875 74.21875 
Q 37.3125 74.21875 42.625 73.28125 
Q 47.953125 72.359375 53.515625 70.515625 
z
" id="DejaVuSans-83"/>
     <path d="M 8.5 21.578125 
L 8.5 54.6875 
L 17.484375 54.6875 
L 17.484375 21.921875 
Q 17.484375 14.15625 20.5 10.265625 
Q 23.53125 6.390625 29.59375 6.390625 
Q 36.859375 6.390625 41.078125 11.03125 
Q 45.3125 15.671875 45.3125 23.6875 
L 45.3125 54.6875 
L 54.296875 54.6875 
L 54.296875 0 
L 45.3125 0 
L 45.3125 8.40625 
Q 42.046875 3.421875 37.71875 1 
Q 33.40625 -1.421875 27.6875 -1.421875 
Q 18.265625 -1.421875 13.375 4.4375 
Q 8.5 10.296875 8.5 21.578125 
z
M 31.109375 56 
z
" id="DejaVuSans-117"/>
     <path d="M 48.6875 27.296875 
Q 48.6875 37.203125 44.609375 42.84375 
Q 40.53125 48.484375 33.40625 48.484375 
Q 26.265625 48.484375 22.1875 42.84375 
Q 18.109375 37.203125 18.109375 27.296875 
Q 18.109375 17.390625 22.1875 11.75 
Q 26.265625 6.109375 33.40625 6.109375 
Q 40.53125 6.109375 44.609375 11.75 
Q 48.6875 17.390625 48.6875 27.296875 
z
M 18.109375 46.390625 
Q 20.953125 51.265625 25.265625 53.625 
Q 29.59375 56 35.59375 56 
Q 45.5625 56 51.78125 48.09375 
Q 58.015625 40.1875 58.015625 27.296875 
Q 58.015625 14.40625 51.78125 6.484375 
Q 45.5625 -1.421875 35.59375 -1.421875 
Q 29.59375 -1.421875 25.265625 0.953125 
Q 20.953125 3.328125 18.109375 8.203125 
L 18.109375 0 
L 9.078125 0 
L 9.078125 75.984375 
L 18.109375 75.984375 
z
" id="DejaVuSans-98"/>
     <path d="M 9.421875 54.6875 
L 18.40625 54.6875 
L 18.40625 -0.984375 
Q 18.40625 -11.421875 14.421875 -16.109375 
Q 10.453125 -20.796875 1.609375 -20.796875 
L -1.8125 -20.796875 
L -1.8125 -13.1875 
L 0.59375 -13.1875 
Q 5.71875 -13.1875 7.5625 -10.8125 
Q 9.421875 -8.453125 9.421875 -0.984375 
z
M 9.421875 75.984375 
L 18.40625 75.984375 
L 18.40625 64.59375 
L 9.421875 64.59375 
z
" id="DejaVuSans-106"/>
     <path d="M 56.203125 29.59375 
L 56.203125 25.203125 
L 14.890625 25.203125 
Q 15.484375 15.921875 20.484375 11.0625 
Q 25.484375 6.203125 34.421875 6.203125 
Q 39.59375 6.203125 44.453125 7.46875 
Q 49.3125 8.734375 54.109375 11.28125 
L 54.109375 2.78125 
Q 49.265625 0.734375 44.1875 -0.34375 
Q 39.109375 -1.421875 33.890625 -1.421875 
Q 20.796875 -1.421875 13.15625 6.1875 
Q 5.515625 13.8125 5.515625 26.8125 
Q 5.515625 40.234375 12.765625 48.109375 
Q 20.015625 56 32.328125 56 
Q 43.359375 56 49.78125 48.890625 
Q 56.203125 41.796875 56.203125 29.59375 
z
M 47.21875 32.234375 
Q 47.125 39.59375 43.09375 43.984375 
Q 39.0625 48.390625 32.421875 48.390625 
Q 24.90625 48.390625 20.390625 44.140625 
Q 15.875 39.890625 15.1875 32.171875 
z
" id="DejaVuSans-101"/>
     <path d="M 48.78125 52.59375 
L 48.78125 44.1875 
Q 44.96875 46.296875 41.140625 47.34375 
Q 37.3125 48.390625 33.40625 48.390625 
Q 24.65625 48.390625 19.8125 42.84375 
Q 14.984375 37.3125 14.984375 27.296875 
Q 14.984375 17.28125 19.8125 11.734375 
Q 24.65625 6.203125 33.40625 6.203125 
Q 37.3125 6.203125 41.140625 7.25 
Q 44.96875 8.296875 48.78125 10.40625 
L 48.78125 2.09375 
Q 45.015625 0.34375 40.984375 -0.53125 
Q 36.96875 -1.421875 32.421875 -1.421875 
Q 20.0625 -1.421875 12.78125 6.34375 
Q 5.515625 14.109375 5.515625 27.296875 
Q 5.515625 40.671875 12.859375 48.328125 
Q 20.21875 56 33.015625 56 
Q 37.15625 56 41.109375 55.140625 
Q 45.0625 54.296875 48.78125 52.59375 
z
" id="DejaVuSans-99"/>
     <path d="M 18.3125 70.21875 
L 18.3125 54.6875 
L 36.8125 54.6875 
L 36.8125 47.703125 
L 18.3125 47.703125 
L 18.3125 18.015625 
Q 18.3125 11.328125 20.140625 9.421875 
Q 21.96875 7.515625 27.59375 7.515625 
L 36.8125 7.515625 
L 36.8125 0 
L 27.59375 0 
Q 17.1875 0 13.234375 3.875 
Q 9.28125 7.765625 9.28125 18.015625 
L 9.28125 47.703125 
L 2.6875 47.703125 
L 2.6875 54.6875 
L 9.28125 54.6875 
L 9.28125 70.21875 
z
" id="DejaVuSans-116"/>
     <path d="M 11.71875 12.40625 
L 22.015625 12.40625 
L 22.015625 0 
L 11.71875 0 
z
M 11.71875 51.703125 
L 22.015625 51.703125 
L 22.015625 39.3125 
L 11.71875 39.3125 
z
" id="DejaVuSans-58"/>
     <path d="M 44.28125 53.078125 
L 44.28125 44.578125 
Q 40.484375 46.53125 36.375 47.5 
Q 32.28125 48.484375 27.875 48.484375 
Q 21.1875 48.484375 17.84375 46.4375 
Q 14.5 44.390625 14.5 40.28125 
Q 14.5 37.15625 16.890625 35.375 
Q 19.28125 33.59375 26.515625 31.984375 
L 29.59375 31.296875 
Q 39.15625 29.25 43.1875 25.515625 
Q 47.21875 21.78125 47.21875 15.09375 
Q 47.21875 7.46875 41.1875 3.015625 
Q 35.15625 -1.421875 24.609375 -1.421875 
Q 20.21875 -1.421875 15.453125 -0.5625 
Q 10.6875 0.296875 5.421875 2 
L 5.421875 11.28125 
Q 10.40625 8.6875 15.234375 7.390625 
Q 20.0625 6.109375 24.8125 6.109375 
Q 31.15625 6.109375 34.5625 8.28125 
Q 37.984375 10.453125 37.984375 14.40625 
Q 37.984375 18.0625 35.515625 20.015625 
Q 33.0625 21.96875 24.703125 23.78125 
L 21.578125 24.515625 
Q 13.234375 26.265625 9.515625 29.90625 
Q 5.8125 33.546875 5.8125 39.890625 
Q 5.8125 47.609375 11.28125 51.796875 
Q 16.75 56 26.8125 56 
Q 31.78125 56 36.171875 55.265625 
Q 40.578125 54.546875 44.28125 53.078125 
z
" id="DejaVuSans-115"/>
     <path d="M 8.203125 72.90625 
L 55.078125 72.90625 
L 55.078125 68.703125 
L 28.609375 0 
L 18.3125 0 
L 43.21875 64.59375 
L 8.203125 64.59375 
z
" id="DejaVuSans-55"/>
     <path d="M 11.71875 12.40625 
L 22.015625 12.40625 
L 22.015625 4 
L 14.015625 -11.625 
L 7.71875 -11.625 
L 11.71875 4 
z
" id="DejaVuSans-44"/>
     <path d="M 9.8125 72.90625 
L 19.671875 72.90625 
L 19.671875 42.09375 
L 52.390625 72.90625 
L 65.09375 72.90625 
L 28.90625 38.921875 
L 67.671875 0 
L 54.6875 0 
L 19.671875 35.109375 
L 19.671875 0 
L 9.8125 0 
z
" id="DejaVuSans-75"/>
     <path d="M 54.890625 33.015625 
L 54.890625 0 
L 45.90625 0 
L 45.90625 32.71875 
Q 45.90625 40.484375 42.875 44.328125 
Q 39.84375 48.1875 33.796875 48.1875 
Q 26.515625 48.1875 22.3125 43.546875 
Q 18.109375 38.921875 18.109375 30.90625 
L 18.109375 0 
L 9.078125 0 
L 9.078125 54.6875 
L 18.109375 54.6875 
L 18.109375 46.1875 
Q 21.34375 51.125 25.703125 53.5625 
Q 30.078125 56 35.796875 56 
Q 45.21875 56 50.046875 50.171875 
Q 54.890625 44.34375 54.890625 33.015625 
z
" id="DejaVuSans-110"/>
     <path d="M 30.609375 48.390625 
Q 23.390625 48.390625 19.1875 42.75 
Q 14.984375 37.109375 14.984375 27.296875 
Q 14.984375 17.484375 19.15625 11.84375 
Q 23.34375 6.203125 30.609375 6.203125 
Q 37.796875 6.203125 41.984375 11.859375 
Q 46.1875 17.53125 46.1875 27.296875 
Q 46.1875 37.015625 41.984375 42.703125 
Q 37.796875 48.390625 30.609375 48.390625 
z
M 30.609375 56 
Q 42.328125 56 49.015625 48.375 
Q 55.71875 40.765625 55.71875 27.296875 
Q 55.71875 13.875 49.015625 6.21875 
Q 42.328125 -1.421875 30.609375 -1.421875 
Q 18.84375 -1.421875 12.171875 6.21875 
Q 5.515625 13.875 5.515625 27.296875 
Q 5.515625 40.765625 12.171875 48.375 
Q 18.84375 56 30.609375 56 
z
" id="DejaVuSans-111"/>
     <path d="M 4.203125 54.6875 
L 13.1875 54.6875 
L 24.421875 12.015625 
L 35.59375 54.6875 
L 46.1875 54.6875 
L 57.421875 12.015625 
L 68.609375 54.6875 
L 77.59375 54.6875 
L 63.28125 0 
L 52.6875 0 
L 40.921875 44.828125 
L 29.109375 0 
L 18.5 0 
z
" id="DejaVuSans-119"/>
     <path d="M 10.59375 45.40625 
L 73.1875 45.40625 
L 73.1875 37.203125 
L 10.59375 37.203125 
z
M 10.59375 25.484375 
L 73.1875 25.484375 
L 73.1875 17.1875 
L 10.59375 17.1875 
z
" id="DejaVuSans-61"/>
     <path d="M 9.8125 72.90625 
L 51.703125 72.90625 
L 51.703125 64.59375 
L 19.671875 64.59375 
L 19.671875 43.109375 
L 48.578125 43.109375 
L 48.578125 34.8125 
L 19.671875 34.8125 
L 19.671875 0 
L 9.8125 0 
z
" id="DejaVuSans-70"/>
     <path d="M 34.28125 27.484375 
Q 23.390625 27.484375 19.1875 25 
Q 14.984375 22.515625 14.984375 16.5 
Q 14.984375 11.71875 18.140625 8.90625 
Q 21.296875 6.109375 26.703125 6.109375 
Q 34.1875 6.109375 38.703125 11.40625 
Q 43.21875 16.703125 43.21875 25.484375 
L 43.21875 27.484375 
z
M 52.203125 31.203125 
L 52.203125 0 
L 43.21875 0 
L 43.21875 8.296875 
Q 40.140625 3.328125 35.546875 0.953125 
Q 30.953125 -1.421875 24.3125 -1.421875 
Q 15.921875 -1.421875 10.953125 3.296875 
Q 6 8.015625 6 15.921875 
Q 6 25.140625 12.171875 29.828125 
Q 18.359375 34.515625 30.609375 34.515625 
L 43.21875 34.515625 
L 43.21875 35.40625 
Q 43.21875 41.609375 39.140625 45 
Q 35.0625 48.390625 27.6875 48.390625 
Q 23 48.390625 18.546875 47.265625 
Q 14.109375 46.140625 10.015625 43.890625 
L 10.015625 52.203125 
Q 14.9375 54.109375 19.578125 55.046875 
Q 24.21875 56 28.609375 56 
Q 40.484375 56 46.34375 49.84375 
Q 52.203125 43.703125 52.203125 31.203125 
z
" id="DejaVuSans-97"/>
     <path d="M 9.421875 75.984375 
L 18.40625 75.984375 
L 18.40625 0 
L 9.421875 0 
z
" id="DejaVuSans-108"/>
     <path d="M 19.671875 64.796875 
L 19.671875 8.109375 
L 31.59375 8.109375 
Q 46.6875 8.109375 53.6875 14.9375 
Q 60.6875 21.78125 60.6875 36.53125 
Q 60.6875 51.171875 53.6875 57.984375 
Q 46.6875 64.796875 31.59375 64.796875 
z
M 9.8125 72.90625 
L 30.078125 72.90625 
Q 51.265625 72.90625 61.171875 64.09375 
Q 71.09375 55.28125 71.09375 36.53125 
Q 71.09375 17.671875 61.125 8.828125 
Q 51.171875 0 30.078125 0 
L 9.8125 0 
z
" id="DejaVuSans-68"/>
     <path d="M 45.40625 27.984375 
Q 45.40625 37.75 41.375 43.109375 
Q 37.359375 48.484375 30.078125 48.484375 
Q 22.859375 48.484375 18.828125 43.109375 
Q 14.796875 37.75 14.796875 27.984375 
Q 14.796875 18.265625 18.828125 12.890625 
Q 22.859375 7.515625 30.078125 7.515625 
Q 37.359375 7.515625 41.375 12.890625 
Q 45.40625 18.265625 45.40625 27.984375 
z
M 54.390625 6.78125 
Q 54.390625 -7.171875 48.1875 -13.984375 
Q 42 -20.796875 29.203125 -20.796875 
Q 24.46875 -20.796875 20.265625 -20.09375 
Q 16.0625 -19.390625 12.109375 -17.921875 
L 12.109375 -9.1875 
Q 16.0625 -11.328125 19.921875 -12.34375 
Q 23.78125 -13.375 27.78125 -13.375 
Q 36.625 -13.375 41.015625 -8.765625 
Q 45.40625 -4.15625 45.40625 5.171875 
L 45.40625 9.625 
Q 42.625 4.78125 38.28125 2.390625 
Q 33.9375 0 27.875 0 
Q 17.828125 0 11.671875 7.65625 
Q 5.515625 15.328125 5.515625 27.984375 
Q 5.515625 40.671875 11.671875 48.328125 
Q 17.828125 56 27.875 56 
Q 33.9375 56 38.28125 53.609375 
Q 42.625 51.21875 45.40625 46.390625 
L 45.40625 54.6875 
L 54.390625 54.6875 
z
" id="DejaVuSans-103"/>
     <path d="M 41.109375 46.296875 
Q 39.59375 47.171875 37.8125 47.578125 
Q 36.03125 48 33.890625 48 
Q 26.265625 48 22.1875 43.046875 
Q 18.109375 38.09375 18.109375 28.8125 
L 18.109375 0 
L 9.078125 0 
L 9.078125 54.6875 
L 18.109375 54.6875 
L 18.109375 46.1875 
Q 20.953125 51.171875 25.484375 53.578125 
Q 30.03125 56 36.53125 56 
Q 37.453125 56 38.578125 55.875 
Q 39.703125 55.765625 41.0625 55.515625 
z
" id="DejaVuSans-114"/>
     <path d="M 9.421875 54.6875 
L 18.40625 54.6875 
L 18.40625 0 
L 9.421875 0 
z
M 9.421875 75.984375 
L 18.40625 75.984375 
L 18.40625 64.59375 
L 9.421875 64.59375 
z
" id="DejaVuSans-105"/>
     <path d="M 10.6875 12.40625 
L 21 12.40625 
L 21 0 
L 10.6875 0 
z
" id="DejaVuSans-46"/>
    </defs>
    <g transform="translate(53.559375 35.472)scale(0.12 -0.12)">
     <use xlink:href="#DejaVuSans-40"/>
     <use x="39.013672" xlink:href="#DejaVuSans-49"/>
     <use x="102.636719" xlink:href="#DejaVuSans-41"/>
     <use x="141.650391" xlink:href="#DejaVuSans-32"/>
     <use x="173.4375" xlink:href="#DejaVuSans-83"/>
     <use x="236.914062" xlink:href="#DejaVuSans-117"/>
     <use x="300.292969" xlink:href="#DejaVuSans-98"/>
     <use x="363.769531" xlink:href="#DejaVuSans-106"/>
     <use x="391.552734" xlink:href="#DejaVuSans-101"/>
     <use x="453.076172" xlink:href="#DejaVuSans-99"/>
     <use x="508.056641" xlink:href="#DejaVuSans-116"/>
     <use x="547.265625" xlink:href="#DejaVuSans-58"/>
     <use x="580.957031" xlink:href="#DejaVuSans-32"/>
     <use x="612.744141" xlink:href="#DejaVuSans-115"/>
     <use x="664.84375" xlink:href="#DejaVuSans-49"/>
     <use x="728.466797" xlink:href="#DejaVuSans-55"/>
     <use x="792.089844" xlink:href="#DejaVuSans-44"/>
     <use x="823.876953" xlink:href="#DejaVuSans-32"/>
     <use x="855.664062" xlink:href="#DejaVuSans-75"/>
     <use x="921.240234" xlink:href="#DejaVuSans-110"/>
     <use x="984.619141" xlink:href="#DejaVuSans-111"/>
     <use x="1045.800781" xlink:href="#DejaVuSans-119"/>
     <use x="1127.587891" xlink:href="#DejaVuSans-110"/>
     <use x="1190.966797" xlink:href="#DejaVuSans-32"/>
     <use x="1222.753906" xlink:href="#DejaVuSans-61"/>
     <use x="1306.542969" xlink:href="#DejaVuSans-32"/>
     <use x="1338.330078" xlink:href="#DejaVuSans-70"/>
     <use x="1395.708984" xlink:href="#DejaVuSans-97"/>
     <use x="1456.988281" xlink:href="#DejaVuSans-108"/>
     <use x="1484.771484" xlink:href="#DejaVuSans-115"/>
     <use x="1536.871094" xlink:href="#DejaVuSans-101"/>
     <use x="1598.394531" xlink:href="#DejaVuSans-44"/>
     <use x="1630.181641" xlink:href="#DejaVuSans-32"/>
     <use x="1661.96875" xlink:href="#DejaVuSans-68"/>
     <use x="1738.970703" xlink:href="#DejaVuSans-101"/>
     <use x="1800.494141" xlink:href="#DejaVuSans-103"/>
     <use x="1863.970703" xlink:href="#DejaVuSans-114"/>
     <use x="1905.052734" xlink:href="#DejaVuSans-101"/>
     <use x="1966.576172" xlink:href="#DejaVuSans-101"/>
     <use x="2028.099609" xlink:href="#DejaVuSans-32"/>
     <use x="2059.886719" xlink:href="#DejaVuSans-61"/>
     <use x="2143.675781" xlink:href="#DejaVuSans-32"/>
     <use x="2175.462891" xlink:href="#DejaVuSans-49"/>
     <use x="2239.085938" xlink:href="#DejaVuSans-44"/>
     <use x="2270.873047" xlink:href="#DejaVuSans-32"/>
     <use x="2302.660156" xlink:href="#DejaVuSans-68"/>
     <use x="2379.662109" xlink:href="#DejaVuSans-117"/>
     <use x="2443.041016" xlink:href="#DejaVuSans-114"/>
     <use x="2484.154297" xlink:href="#DejaVuSans-97"/>
     <use x="2545.433594" xlink:href="#DejaVuSans-116"/>
     <use x="2584.642578" xlink:href="#DejaVuSans-105"/>
     <use x="2612.425781" xlink:href="#DejaVuSans-111"/>
     <use x="2673.607422" xlink:href="#DejaVuSans-110"/>
     <use x="2736.986328" xlink:href="#DejaVuSans-32"/>
     <use x="2768.773438" xlink:href="#DejaVuSans-61"/>
     <use x="2852.5625" xlink:href="#DejaVuSans-32"/>
     <use x="2884.349609" xlink:href="#DejaVuSans-48"/>
     <use x="2947.972656" xlink:href="#DejaVuSans-46"/>
     <use x="2979.759766" xlink:href="#DejaVuSans-49"/>
    </g>
   </g>
  </g>
 </g>
 <defs>
  <clipPath id="p1e55503dbf">
   <rect height="266.112" width="357.12" x="57.6" y="41.472"/>
  </clipPath>
 </defs>
</svg>
