<?xml version="1.0" encoding="utf-8" standalone="no"?>
<!DOCTYPE svg PUBLIC "-//W3C//DTD SVG 1.1//EN"
  "http://www.w3.org/Graphics/SVG/1.1/DTD/svg11.dtd">
<!-- Created with matplotlib (https://matplotlib.org/) -->
<svg height="345.6pt" version="1.1" viewBox="0 0 460.8 345.6" width="460.8pt" xmlns="http://www.w3.org/2000/svg" xmlns:xlink="http://www.w3.org/1999/xlink">
 <defs>
  <style type="text/css">
*{stroke-linecap:butt;stroke-linejoin:round;}
  </style>
 </defs>
 <g id="figure_1">
  <g id="patch_1">
   <path d="M 0 345.6 
L 460.8 345.6 
L 460.8 0 
L 0 0 
z
" style="fill:#ffffff;"/>
  </g>
  <g id="axes_1">
   <g id="patch_2">
    <path d="M 57.6 307.584 
L 414.72 307.584 
L 414.72 41.472 
L 57.6 41.472 
z
" style="fill:#ffffff;"/>
   </g>
   <g id="line2d_1">
    <path clip-path="url(#pe242f3acc8)" d="M 395.698862 265.632527 
L 395.79745 267.678493 
L 396.099786 271.603258 
L 396.398835 272.284641 
L 397.000221 274.161624 
L 396.901633 275.015624 
L 396.799759 275.015624 
L 396.901633 275.015624 
L 397.000221 275.697007 
L 396.901633 275.697007 
L 396.500709 275.867807 
L 396.198373 276.551007 
L 396.599297 276.551007 
L 396.701171 277.403189 
L 396.599297 277.744789 
L 396.799759 277.744789 
L 397.102095 277.915589 
L 397.102095 278.086389 
L 396.701171 278.257189 
L 396.599297 278.596972 
L 396.701171 278.767772 
L 396.599297 278.257189 
L 396.500709 278.427989 
L 396.701171 278.257189 
L 396.901633 278.086389 
L 396.799759 278.938572 
L 396.901633 278.938572 
L 397.302557 278.938572 
L 397.302557 279.109372 
L 397.102095 279.450972 
L 396.701171 279.621772 
L 396.701171 280.473955 
L 397.601606 279.963372 
L 397.200683 279.621772 
L 397.302557 280.132355 
L 397.102095 280.132355 
L 397.000221 280.815555 
L 397.000221 280.303155 
L 397.102095 279.621772 
L 397.302557 279.109372 
L 397.401144 279.280172 
L 397.503018 280.303155 
L 397.401144 280.303155 
L 397.200683 280.473955 
L 397.401144 280.303155 
L 397.503018 279.621772 
L 397.302557 280.815555 
L 397.70348 280.473955 
L 397.302557 279.963372 
L 397.401144 280.132355 
L 397.200683 279.963372 
L 397.102095 280.303155 
L 397.401144 280.132355 
L 397.601606 279.792572 
L 397.903942 280.986355 
L 397.70348 281.327955 
L 398.00253 280.986355 
L 398.202992 280.815555 
L 397.601606 281.327955 
L 397.503018 281.157155 
L 397.70348 280.303155 
L 397.503018 280.644755 
L 397.503018 279.963372 
L 397.70348 280.132355 
L 398.00253 280.473955 
L 397.802068 280.473955 
L 397.503018 280.644755 
L 397.503018 281.157155 
L 397.601606 280.644755 
L 397.802068 280.644755 
L 398.00253 280.815555 
L 398.202992 280.815555 
L 398.403454 280.644755 
L 398.304866 280.644755 
L 398.304866 280.303155 
L 398.104404 280.303155 
L 397.70348 280.815555 
L 398.202992 280.644755 
L 398.202992 280.644755 
L 398.202992 281.838538 
L 398.104404 280.986355 
L 397.802068 280.986355 
L 397.70348 281.669555 
L 397.903942 281.498755 
L 397.903942 281.498755 
L 397.401144 282.863338 
L 397.302557 282.692538 
L 397.601606 281.669555 
L 397.601606 281.669555 
L 397.903942 282.350938 
L 397.903942 282.350938 
L 398.00253 281.498755 
L 397.903942 281.669555 
L 397.70348 281.669555 
L 397.802068 281.327955 
L 397.903942 281.157155 
L 397.903942 281.157155 
L 398.104404 281.498755 
L 398.104404 282.009338 
L 397.903942 281.838538 
L 397.70348 281.498755 
L 397.302557 281.498755 
L 397.503018 281.498755 
L 397.601606 281.327955 
L 397.601606 281.327955 
L 397.503018 281.157155 
L 397.601606 281.498755 
L 397.503018 281.669555 
L 397.302557 281.669555 
L 397.302557 281.669555 
L 397.401144 281.838538 
L 397.102095 282.521738 
L 397.200683 282.692538 
L 397.200683 282.521738 
L 397.102095 281.838538 
L 396.901633 281.498755 
L 396.901633 281.669555 
L 396.799759 282.521738 
L 395.79745 283.373921 
L 393.694243 284.227921 
L 387.47664 288.321669 
L 384.269251 289.857052 
L 380.762811 291.392435 
L 372.744338 294.123417 
L 368.534639 294.9756 
L 364.121192 295.488 
L 359.21152 295.3172 
L 353.999512 294.465017 
L 348.386581 292.588034 
L 342.471313 290.027852 
L 336.457458 287.127886 
L 330.341729 283.886321 
L 324.327874 280.986355 
L 318.314018 278.427989 
L 312.398751 276.038607 
L 306.585357 273.309441 
L 300.972426 270.920058 
L 289.243765 266.48471 
L 283.430371 264.436927 
L 272.40497 261.024562 
L 266.890626 258.807796 
L 261.277695 256.760013 
L 255.967099 255.22463 
L 245.240747 252.666265 
L 239.627816 251.299865 
L 234.313934 249.764482 
L 224.290842 247.376917 
L 215.670983 244.818551 
L 205.145093 242.429168 
L 196.824283 241.064585 
L 190.71184 239.187603 
L 189.308607 238.675203 
L 188.306298 237.99382 
L 187.303989 237.65222 
L 186.30168 237.48142 
L 184.796573 238.16462 
L 184.395649 238.33542 
L 184.297061 238.16462 
L 184.997034 238.16462 
L 185.197496 238.504403 
L 185.197496 238.846003 
L 185.900756 239.529203 
L 186.30168 239.358403 
L 186.400267 239.187603 
L 186.199805 239.358403 
L 186.101218 239.187603 
L 186.199805 239.016803 
L 186.101218 237.31062 
L 185.798882 237.48142 
L 185.798882 236.79822 
L 185.900756 236.96902 
L 185.999344 236.96902 
L 186.502141 236.629237 
L 186.702603 236.629237 
L 186.600729 236.458437 
L 186.101218 236.287637 
L 186.199805 236.116837 
L 186.400267 235.946037 
L 186.903065 234.581454 
L 187.001653 234.581454 
L 186.903065 234.581454 
L 187.001653 234.752254 
L 187.303989 234.581454 
L 187.504451 234.239854 
L 187.303989 233.727454 
L 187.202115 233.898254 
L 187.303989 233.898254 
L 187.402577 233.898254 
L 187.303989 233.727454 
L 187.402577 233.387671 
L 187.603038 233.216871 
L 187.905374 233.216871 
L 187.905374 232.192072 
L 188.003962 232.192072 
L 188.204424 231.681489 
L 188.204424 231.852289 
L 188.404886 232.192072 
L 188.404886 231.169089 
L 188.204424 230.827489 
L 188.003962 230.998289 
L 187.905374 230.998289 
L 187.905374 231.339889 
L 188.105836 231.339889 
L 188.404886 231.169089 
L 188.50676 231.169089 
L 188.805809 230.827489 
L 188.50676 230.316906 
L 188.50676 230.485889 
L 188.404886 230.485889 
L 188.204424 230.146106 
L 188.404886 229.292106 
L 188.306298 228.779706 
L 188.404886 228.950506 
L 188.907683 228.269123 
L 188.907683 228.269123 
L 188.805809 228.950506 
L 188.805809 229.292106 
L 188.605348 229.462906 
L 188.707222 228.269123 
L 189.006271 227.244323 
L 189.206733 227.244323 
L 189.407195 227.927523 
L 189.308607 227.756723 
L 189.206733 227.585923 
L 189.308607 227.585923 
L 189.206733 226.73374 
L 189.206733 228.269123 
L 189.407195 227.927523 
L 189.709531 227.585923 
L 189.909993 227.585923 
L 190.00858 227.927523 
L 189.709531 227.07534 
L 189.607657 227.07534 
L 189.607657 227.07534 
L 189.709531 227.244323 
L 190.00858 227.244323 
L 190.209042 227.07534 
L 190.110455 227.244323 
L 190.209042 227.244323 
L 190.310916 226.56294 
L 190.209042 226.73374 
L 190.310916 226.90454 
L 190.609966 226.90454 
L 190.810428 227.07534 
L 190.71184 227.585923 
L 190.511378 227.927523 
L 190.209042 227.756723 
L 190.110455 227.244323 
L 190.409504 227.244323 
L 190.810428 227.07534 
L 191.01089 226.73374 
L 190.71184 226.73374 
L 190.609966 226.56294 
L 190.609966 226.22134 
L 191.112764 226.05054 
L 190.912302 226.56294 
L 191.112764 226.22134 
L 191.112764 225.708941 
L 190.810428 225.708941 
L 190.71184 225.539958 
L 191.313226 225.027558 
L 191.211352 224.856758 
L 190.912302 224.856758 
L 190.209042 224.515158 
L 187.905374 222.979775 
L 186.199805 222.298392 
L 184.195187 221.273592 
L 179.384103 218.373627 
L 176.577637 217.179844 
L 162.643896 211.719695 
L 155.627731 208.64893 
L 151.717082 206.942747 
L 147.80972 205.407364 
L 131.973234 199.947216 
L 128.263047 198.753433 
L 124.454272 197.73045 
L 113.829794 195.682668 
L 110.221481 194.830485 
L 106.711756 194.488885 
L 97.188175 193.976485 
L 94.181247 194.147285 
L 91.374782 194.147285 
L 89.071114 193.976485 
L 83.55677 193.124302 
L 82.153537 192.953502 
L 81.151228 192.953502 
L 80.247506 193.805685 
L 80.247506 193.805685 
L 80.247506 194.147285 
L 80.549842 194.147285 
L 81.151228 194.318085 
L 81.650739 195.001285 
L 81.851201 195.511868 
L 82.153537 194.830485 
L 82.051663 195.170268 
L 81.953075 196.024268 
L 82.051663 196.195068 
L 82.554461 195.170268 
L 81.953075 196.536668 
L 82.051663 196.365868 
L 82.252125 196.536668 
L 82.252125 196.87645 
L 81.953075 197.21805 
L 81.752613 197.04725 
L 82.051663 196.70565 
L 82.554461 196.70565 
L 82.955384 197.04725 
L 83.053972 197.21805 
L 82.85351 197.04725 
L 82.653048 196.87645 
L 82.653048 197.04725 
L 83.254434 197.73045 
L 83.254434 197.90125 
L 83.55677 197.73045 
L 83.655358 197.38885 
L 83.55677 197.38885 
L 83.254434 197.73045 
L 83.55677 197.73045 
L 83.454896 197.73045 
L 83.454896 197.90125 
L 84.260029 199.095033 
L 84.158155 198.753433 
L 84.059567 198.582633 
L 84.260029 198.924233 
L 84.158155 199.265833 
L 84.059567 200.118016 
L 84.158155 200.118016 
L 84.158155 199.947216 
L 84.260029 200.118016 
L 84.559079 200.630416 
L 84.660953 199.947216 
L 84.660953 200.118016 
L 84.759541 200.288816 
L 84.660953 200.288816 
L 84.460491 200.288816 
L 84.559079 199.947216 
L 84.759541 199.778233 
L 84.861415 200.459616 
L 85.061877 200.972016 
L 84.960003 200.801216 
L 85.061877 200.459616 
L 85.262339 200.630416 
L 85.360926 200.972016 
L 85.360926 201.482599 
L 85.160464 201.653399 
L 84.861415 201.482599 
L 84.660953 200.972016 
L 84.861415 201.313616 
L 85.262339 201.313616 
L 85.262339 201.142816 
L 85.262339 201.142816 
L 85.061877 201.142816 
L 84.759541 200.801216 
L 84.960003 200.630416 
L 85.863724 201.482599 
L 85.663262 201.653399 
L 85.561388 201.482599 
L 85.561388 201.142816 
L 85.76185 200.972016 
L 85.663262 201.313616 
L 85.4628 201.482599 
L 85.4628 201.653399 
L 85.360926 200.801216 
L 85.262339 200.630416 
L 85.160464 200.972016 
L 85.561388 201.313616 
L 85.561388 200.972016 
L 85.262339 201.313616 
L 85.4628 201.313616 
L 85.863724 201.482599 
L 85.76185 201.142816 
L 85.863724 200.972016 
L 86.064186 200.972016 
L 85.76185 201.824199 
L 85.4628 201.482599 
L 85.360926 201.482599 
L 85.360926 201.482599 
L 85.4628 201.824199 
L 85.76185 203.019799 
L 86.162774 202.165799 
L 86.264648 201.824199 
L 85.962312 201.824199 
L 85.863724 201.994999 
L 86.162774 202.507399 
L 86.162774 201.313616 
L 86.162774 201.994999 
L 85.962312 201.482599 
L 85.76185 201.482599 
L 85.76185 202.165799 
L 86.064186 202.678199 
L 86.363236 202.336599 
L 86.363236 202.507399 
L 86.264648 202.848999 
L 86.46511 202.848999 
L 86.563697 203.019799 
L 86.264648 203.530382 
L 86.46511 203.019799 
L 86.563697 202.678199 
L 86.563697 203.019799 
L 86.665571 203.019799 
L 86.665571 203.359582 
L 86.563697 203.188782 
L 86.363236 203.188782 
L 86.363236 203.188782 
L 86.563697 203.359582 
L 86.665571 203.019799 
L 86.866033 203.530382 
L 86.665571 203.871981 
L 86.563697 203.871981 
L 86.563697 203.701182 
L 86.964621 203.359582 
L 86.866033 203.188782 
L 86.563697 203.359582 
L 86.563697 203.530382 
L 87.165083 203.530382 
L 87.365545 203.701182 
L 87.266957 204.213581 
L 87.365545 204.384381 
L 87.766468 203.188782 
L 87.766468 202.678199 
L 87.868342 203.188782 
L 87.96693 203.188782 
L 88.167392 202.848999 
L 87.868342 201.824199 
L 87.868342 200.288816 
L 87.667881 198.924233 
L 87.165083 197.73045 
L 86.46511 196.70565 
L 85.962312 195.341068 
L 85.4628 193.124302 
L 84.559079 190.734919 
L 83.454896 188.518154 
L 82.353999 185.787171 
L 80.750304 179.98724 
L 78.545224 173.674909 
L 77.641502 170.262543 
L 74.434113 154.225515 
L 74.033189 151.49635 
L 73.832727 145.523801 
L 74.033189 138.700887 
L 74.634575 130.340774 
L 75.636884 124.028442 
L 78.1443 112.426763 
L 80.750304 103.556066 
L 81.752613 100.654284 
L 83.053972 97.754318 
L 90.073423 84.277473 
L 91.476656 81.88809 
L 92.978476 79.840307 
L 94.582171 78.134125 
L 96.386328 76.598742 
L 97.990022 75.063359 
L 99.495129 73.017393 
L 102.199721 68.580228 
L 103.402492 66.874045 
L 104.506675 65.509462 
L 108.818248 59.026331 
L 109.219172 58.515748 
L 109.820557 58.003348 
L 110.520531 57.661748 
L 111.121916 57.149348 
L 112.025638 54.932583 
L 112.124225 54.420183 
L 112.426561 54.249383 
L 112.627023 54.590983 
L 112.627023 54.590983 
L 113.027947 54.249383 
L 113.228409 54.249383 
L 113.126535 54.078583 
L 113.326996 53.907783 
L 113.527458 54.078583 
L 113.42887 54.249383 
L 113.42887 54.761783 
L 113.629332 55.103383 
L 113.829794 54.932583 
L 114.128844 53.907783 
L 114.230718 54.078583 
L 114.030256 54.249383 
L 113.42887 53.907783 
L 113.928382 54.249383 
L 114.43118 53.568 
L 113.928382 54.420183 
L 114.128844 54.590983 
L 114.128844 54.590983 
L 113.928382 54.761783 
L 113.928382 55.103383 
L 114.128844 55.103383 
L 114.329306 54.932583 
L 114.43118 55.103383 
L 114.230718 55.103383 
L 114.030256 55.613966 
L 113.928382 56.126366 
L 113.629332 56.467966 
L 113.829794 56.467966 
L 114.43118 56.297166 
L 114.43118 56.297166 
L 114.128844 56.980366 
L 114.128844 57.320148 
L 114.329306 57.490948 
L 114.529767 57.490948 
L 114.43118 57.490948 
L 114.43118 57.320148 
L 114.329306 57.490948 
L 114.030256 59.026331 
L 114.030256 58.855531 
L 114.329306 59.197131 
L 114.43118 59.709531 
L 114.128844 60.221931 
L 114.730229 60.903314 
L 114.529767 61.074114 
L 114.329306 60.903314 
L 114.230718 61.074114 
L 114.128844 61.757314 
L 113.72792 62.438697 
L 113.928382 62.267897 
L 114.329306 61.926297 
L 114.43118 62.267897 
L 114.529767 62.267897 
L 114.43118 61.926297 
L 114.230718 62.951097 
L 114.230718 63.121897 
L 114.329306 62.438697 
L 114.529767 62.609497 
L 114.730229 63.121897 
L 114.730229 63.46168 
L 114.329306 63.46168 
L 114.43118 63.80328 
L 114.631642 63.80328 
L 114.631642 64.14488 
L 114.230718 64.828079 
L 113.629332 64.998879 
L 113.928382 65.509462 
L 114.030256 66.021862 
L 114.128844 66.021862 
L 113.928382 66.192662 
L 113.928382 66.192662 
L 114.030256 66.363462 
L 113.72792 66.021862 
L 113.928382 66.021862 
L 114.030256 66.021862 
L 113.829794 65.851062 
L 113.629332 66.021862 
L 114.030256 66.534262 
L 114.128844 66.534262 
L 114.030256 66.703245 
L 114.030256 67.386445 
L 114.128844 66.534262 
L 114.230718 66.703245 
L 114.128844 67.386445 
L 113.928382 67.386445 
L 114.030256 67.215645 
L 114.730229 67.557245 
L 114.730229 67.557245 
L 114.230718 66.703245 
L 114.930691 67.898845 
L 115.032565 68.921828 
L 115.032565 72.675793 
L 114.730229 75.404959 
L 114.529767 78.304925 
L 114.730229 84.106673 
L 114.832103 92.125187 
L 115.131153 104.237449 
L 114.930691 111.914363 
L 115.131153 115.839129 
L 115.834413 124.028442 
L 115.834413 127.440808 
L 115.633951 130.511574 
L 115.633951 133.582339 
L 116.333924 141.942453 
L 116.93531 145.865401 
L 117.737157 149.277767 
L 118.739466 152.690132 
L 121.34547 160.367046 
L 122.548241 164.462612 
L 123.55055 168.89796 
L 124.753321 172.991709 
L 126.357016 176.745674 
L 128.562096 180.32884 
L 130.668589 184.080988 
L 133.977852 190.905719 
L 139.087986 200.288816 
L 140.892143 203.871981 
L 144.201406 209.671913 
L 145.903689 212.232095 
L 147.80972 214.790461 
L 149.413414 217.521444 
L 150.616185 220.421409 
L 152.821266 228.610723 
L 154.125911 233.216871 
L 154.42496 235.093854 
L 154.727296 239.700003 
L 154.224499 246.693717 
L 154.326373 248.570699 
L 153.925449 253.689248 
L 153.823575 254.883031 
L 153.925449 255.73703 
L 153.925449 256.760013 
L 153.422651 259.659979 
L 153.521239 260.513979 
L 153.422651 263.243144 
L 153.222189 263.926344 
L 153.222189 264.778527 
L 153.422651 265.461727 
L 153.320777 268.703293 
L 153.120315 268.874093 
L 153.222189 268.703293 
L 153.422651 268.874093 
L 153.721701 269.384676 
L 153.823575 269.897075 
L 153.721701 270.238675 
L 153.623113 271.090858 
L 153.422651 271.774058 
L 153.623113 272.113841 
L 153.623113 273.138641 
L 153.721701 273.138641 
L 153.823575 273.309441 
L 154.326373 272.284641 
L 154.825884 272.284641 
L 154.825884 272.455441 
L 154.224499 273.309441 
L 154.024037 273.480241 
L 154.224499 273.480241 
L 154.825884 273.138641 
L 154.625422 272.797041 
L 154.42496 272.797041 
L 154.927758 272.797041 
L 155.026346 272.455441 
L 155.026346 271.944858 
L 155.026346 271.944858 
L 155.328682 272.455441 
L 155.226808 272.284641 
L 155.42727 271.944858 
L 155.627731 271.944858 
L 155.627731 272.284641 
L 155.42727 272.455441 
L 155.328682 271.432458 
L 155.529144 271.261658 
L 155.729605 271.432458 
L 155.627731 271.432458 
L 156.229117 270.920058 
L 156.130529 271.432458 
L 156.028655 271.432458 
L 156.130529 270.920058 
L 156.330991 270.238675 
L 156.229117 270.578458 
L 156.330991 270.578458 
L 156.330991 270.749258 
L 156.429579 270.067875 
L 156.429579 270.238675 
L 156.830502 270.749258 
L 156.932377 270.749258 
L 157.030964 270.409475 
L 157.030964 269.555476 
L 157.132838 269.555476 
L 157.231426 269.555476 
L 157.431888 269.897075 
L 157.734224 269.384676 
L 157.63235 269.213876 
L 157.832812 269.384676 
L 157.934686 269.213876 
L 157.832812 268.532493 
L 157.832812 269.043076 
L 158.033274 269.043076 
L 158.434197 268.703293 
L 158.434197 268.532493 
L 158.335609 268.532493 
L 158.135148 269.213876 
L 158.335609 268.874093 
L 158.135148 268.020093 
L 158.135148 268.020093 
L 158.434197 267.678493 
L 158.536071 267.849293 
L 158.335609 268.361693 
L 158.434197 268.190893 
L 158.634659 268.532493 
L 158.634659 268.361693 
L 158.835121 267.507693 
L 158.835121 267.678493 
L 158.736533 268.532493 
L 158.835121 268.532493 
L 159.137457 268.190893 
L 159.035583 268.020093 
L 159.137457 267.849293 
L 159.436506 268.020093 
L 159.636968 268.361693 
L 159.436506 268.703293 
L 159.436506 268.532493 
L 159.337919 267.678493 
L 159.035583 267.678493 
L 158.835121 267.849293 
L 158.736533 268.361693 
L 158.835121 268.190893 
L 159.236045 267.678493 
L 159.53838 268.020093 
L 159.337919 267.678493 
L 159.337919 267.507693 
L 159.53838 267.507693 
L 159.738842 267.678493 
L 159.939304 268.361693 
L 159.53838 267.336893 
L 159.636968 267.507693 
L 159.436506 267.507693 
L 159.236045 267.678493 
L 159.337919 267.849293 
L 159.53838 267.507693 
L 159.939304 266.48471 
L 160.037892 266.31391 
L 159.738842 266.48471 
L 159.53838 266.82631 
L 159.337919 266.65551 
L 159.53838 266.48471 
L 159.738842 266.65551 
L 159.83743 266.31391 
L 159.83743 266.14311 
L 159.436506 265.632527 
L 159.337919 265.632527 
L 160.139766 265.632527 
L 160.839739 265.290927 
L 161.240663 264.778527 
L 161.943923 263.926344 
L 165.151312 261.024562 
L 166.252209 260.343179 
L 168.960087 259.489179 
L 170.764244 258.807796 
L 172.666988 258.295396 
L 174.471145 257.953796 
L 176.275301 257.443213 
L 178.283206 257.272413 
L 182.693366 256.589213 
L 184.596111 256.418413 
L 186.600729 256.418413 
L 193.518306 256.930813 
L 198.32939 257.953796 
L 200.734932 258.295396 
L 204.645581 257.953796 
L 206.6502 257.953796 
L 208.654818 258.295396 
L 210.458975 258.466196 
L 212.161257 258.295396 
L 213.965414 258.295396 
L 217.675601 258.636996 
L 220.682529 259.318379 
L 223.088071 260.343179 
L 223.991792 261.024562 
L 224.793639 261.366162 
L 226.29546 261.707762 
L 226.798258 262.390962 
L 227.097308 263.072344 
L 227.097308 263.584744 
L 227.097308 263.584744 
L 227.399643 264.266127 
L 227.399643 264.436927 
L 226.094998 266.65551 
L 226.094998 266.99711 
L 226.29546 267.507693 
L 226.696384 267.678493 
L 226.99872 267.507693 
L 226.99872 267.678493 
L 226.597796 268.190893 
L 226.397334 268.703293 
L 226.397334 269.213876 
L 226.196872 268.874093 
L 226.397334 268.703293 
L 226.798258 269.043076 
L 226.397334 270.578458 
L 226.397334 270.409475 
L 226.495922 270.409475 
L 226.597796 270.749258 
L 226.597796 271.261658 
L 226.397334 271.261658 
L 225.894536 270.920058 
L 226.094998 270.920058 
L 226.29546 270.920058 
L 226.29546 270.920058 
L 226.29546 271.944858 
L 226.196872 271.944858 
L 226.094998 271.603258 
L 226.397334 271.603258 
L 226.696384 271.432458 
L 226.798258 271.603258 
L 226.196872 271.944858 
L 226.29546 272.113841 
L 226.696384 272.284641 
L 226.798258 272.626241 
L 226.696384 272.967841 
L 226.696384 272.626241 
L 226.696384 272.455441 
L 226.798258 273.138641 
L 226.798258 272.967841 
L 226.896846 272.455441 
L 227.097308 272.284641 
L 227.199182 272.797041 
L 226.798258 273.309441 
L 226.696384 273.138641 
L 226.99872 272.797041 
L 226.896846 273.651041 
L 226.495922 274.161624 
L 226.495922 273.990824 
L 226.798258 273.990824 
L 226.29546 273.990824 
L 226.597796 274.674024 
L 226.99872 273.480241 
L 226.798258 273.651041 
L 226.896846 273.480241 
L 226.99872 273.820024 
L 226.495922 273.309441 
L 226.696384 273.309441 
L 226.896846 273.651041 
L 226.99872 274.332424 
L 227.199182 273.990824 
L 227.199182 273.651041 
L 226.29546 274.161624 
L 226.094998 274.503224 
L 226.29546 274.674024 
L 226.696384 274.332424 
L 226.696384 274.503224 
L 227.097308 275.697007 
L 227.297769 275.697007 
L 227.199182 275.526207 
L 226.99872 275.697007 
L 226.99872 276.209407 
L 226.896846 276.038607 
L 226.798258 275.867807 
L 227.097308 275.526207 
L 227.199182 275.526207 
L 227.097308 275.867807 
L 227.199182 275.867807 
L 226.798258 275.867807 
L 226.696384 275.697007 
L 226.798258 275.697007 
L 226.896846 275.355407 
L 227.199182 275.526207 
L 226.99872 275.355407 
L 226.597796 275.015624 
L 226.597796 275.355407 
L 226.99872 275.867807 
L 227.097308 275.186424 
L 227.199182 274.503224 
L 226.798258 275.697007 
L 227.199182 275.697007 
L 227.297769 275.867807 
L 226.99872 276.038607 
L 226.99872 276.038607 
L 227.097308 275.697007 
L 227.097308 275.867807 
L 227.297769 276.038607 
L 226.99872 275.526207 
L 227.097308 276.038607 
L 226.99872 276.892607 
L 226.798258 277.06159 
L 226.798258 276.892607 
L 227.199182 276.380207 
L 227.399643 276.551007 
L 227.498231 276.551007 
L 227.199182 276.038607 
L 227.199182 276.380207 
L 227.097308 276.209407 
L 226.896846 276.038607 
L 226.798258 276.380207 
L 227.199182 276.721807 
L 227.399643 277.06159 
L 227.297769 277.06159 
L 227.399643 278.257189 
L 227.297769 278.257189 
L 227.399643 277.06159 
L 227.498231 277.06159 
L 227.698693 277.403189 
L 227.600105 277.06159 
L 227.498231 276.892607 
L 226.798258 277.232389 
L 226.597796 277.573989 
L 226.696384 278.257189 
L 226.597796 278.427989 
L 226.495922 278.086389 
L 226.597796 277.744789 
L 227.199182 277.403189 
L 227.199182 277.06159 
L 226.99872 277.06159 
L 226.896846 277.232389 
L 226.99872 277.232389 
L 227.498231 276.892607 
L 227.097308 276.209407 
L 227.097308 276.380207 
L 227.199182 277.232389 
L 226.99872 277.232389 
L 226.798258 277.744789 
L 226.99872 277.744789 
L 227.199182 277.573989 
L 227.097308 277.232389 
L 226.896846 277.06159 
L 226.798258 277.573989 
L 226.896846 277.915589 
L 227.097308 277.915589 
L 226.798258 277.573989 
L 226.798258 278.086389 
L 226.896846 277.915589 
" style="fill:none;stroke:#1f77b4;stroke-linecap:square;stroke-width:1.5;"/>
   </g>
   <g id="matplotlib.axis_1">
    <g id="xtick_1">
     <g id="line2d_2">
      <defs>
       <path d="M 0 0 
L 0 3.5 
" id="m5d1e180df5" style="stroke:#000000;stroke-width:0.8;"/>
      </defs>
      <g>
       <use style="stroke:#000000;stroke-width:0.8;" x="107.523462" xlink:href="#m5d1e180df5" y="307.584"/>
      </g>
     </g>
     <g id="text_1">
      <!-- −200 -->
      <defs>
       <path d="M 10.59375 35.5 
L 73.1875 35.5 
L 73.1875 27.203125 
L 10.59375 27.203125 
z
" id="DejaVuSans-8722"/>
       <path d="M 19.1875 8.296875 
L 53.609375 8.296875 
L 53.609375 0 
L 7.328125 0 
L 7.328125 8.296875 
Q 12.9375 14.109375 22.625 23.890625 
Q 32.328125 33.6875 34.8125 36.53125 
Q 39.546875 41.84375 41.421875 45.53125 
Q 43.3125 49.21875 43.3125 52.78125 
Q 43.3125 58.59375 39.234375 62.25 
Q 35.15625 65.921875 28.609375 65.921875 
Q 23.96875 65.921875 18.8125 64.3125 
Q 13.671875 62.703125 7.8125 59.421875 
L 7.8125 69.390625 
Q 13.765625 71.78125 18.9375 73 
Q 24.125 74.21875 28.421875 74.21875 
Q 39.75 74.21875 46.484375 68.546875 
Q 53.21875 62.890625 53.21875 53.421875 
Q 53.21875 48.921875 51.53125 44.890625 
Q 49.859375 40.875 45.40625 35.40625 
Q 44.1875 33.984375 37.640625 27.21875 
Q 31.109375 20.453125 19.1875 8.296875 
z
" id="DejaVuSans-50"/>
       <path d="M 31.78125 66.40625 
Q 24.171875 66.40625 20.328125 58.90625 
Q 16.5 51.421875 16.5 36.375 
Q 16.5 21.390625 20.328125 13.890625 
Q 24.171875 6.390625 31.78125 6.390625 
Q 39.453125 6.390625 43.28125 13.890625 
Q 47.125 21.390625 47.125 36.375 
Q 47.125 51.421875 43.28125 58.90625 
Q 39.453125 66.40625 31.78125 66.40625 
z
M 31.78125 74.21875 
Q 44.046875 74.21875 50.515625 64.515625 
Q 56.984375 54.828125 56.984375 36.375 
Q 56.984375 17.96875 50.515625 8.265625 
Q 44.046875 -1.421875 31.78125 -1.421875 
Q 19.53125 -1.421875 13.0625 8.265625 
Q 6.59375 17.96875 6.59375 36.375 
Q 6.59375 54.828125 13.0625 64.515625 
Q 19.53125 74.21875 31.78125 74.21875 
z
" id="DejaVuSans-48"/>
      </defs>
      <g transform="translate(93.789868 322.182437)scale(0.1 -0.1)">
       <use xlink:href="#DejaVuSans-8722"/>
       <use x="83.789062" xlink:href="#DejaVuSans-50"/>
       <use x="147.412109" xlink:href="#DejaVuSans-48"/>
       <use x="211.035156" xlink:href="#DejaVuSans-48"/>
      </g>
     </g>
    </g>
    <g id="xtick_2">
     <g id="line2d_3">
      <g>
       <use style="stroke:#000000;stroke-width:0.8;" x="173.248656" xlink:href="#m5d1e180df5" y="307.584"/>
      </g>
     </g>
     <g id="text_2">
      <!-- 0 -->
      <g transform="translate(170.067406 322.182437)scale(0.1 -0.1)">
       <use xlink:href="#DejaVuSans-48"/>
      </g>
     </g>
    </g>
    <g id="xtick_3">
     <g id="line2d_4">
      <g>
       <use style="stroke:#000000;stroke-width:0.8;" x="238.97385" xlink:href="#m5d1e180df5" y="307.584"/>
      </g>
     </g>
     <g id="text_3">
      <!-- 200 -->
      <g transform="translate(229.4301 322.182437)scale(0.1 -0.1)">
       <use xlink:href="#DejaVuSans-50"/>
       <use x="63.623047" xlink:href="#DejaVuSans-48"/>
       <use x="127.246094" xlink:href="#DejaVuSans-48"/>
      </g>
     </g>
    </g>
    <g id="xtick_4">
     <g id="line2d_5">
      <g>
       <use style="stroke:#000000;stroke-width:0.8;" x="304.699044" xlink:href="#m5d1e180df5" y="307.584"/>
      </g>
     </g>
     <g id="text_4">
      <!-- 400 -->
      <defs>
       <path d="M 37.796875 64.3125 
L 12.890625 25.390625 
L 37.796875 25.390625 
z
M 35.203125 72.90625 
L 47.609375 72.90625 
L 47.609375 25.390625 
L 58.015625 25.390625 
L 58.015625 17.1875 
L 47.609375 17.1875 
L 47.609375 0 
L 37.796875 0 
L 37.796875 17.1875 
L 4.890625 17.1875 
L 4.890625 26.703125 
z
" id="DejaVuSans-52"/>
      </defs>
      <g transform="translate(295.155294 322.182437)scale(0.1 -0.1)">
       <use xlink:href="#DejaVuSans-52"/>
       <use x="63.623047" xlink:href="#DejaVuSans-48"/>
       <use x="127.246094" xlink:href="#DejaVuSans-48"/>
      </g>
     </g>
    </g>
    <g id="xtick_5">
     <g id="line2d_6">
      <g>
       <use style="stroke:#000000;stroke-width:0.8;" x="370.424238" xlink:href="#m5d1e180df5" y="307.584"/>
      </g>
     </g>
     <g id="text_5">
      <!-- 600 -->
      <defs>
       <path d="M 33.015625 40.375 
Q 26.375 40.375 22.484375 35.828125 
Q 18.609375 31.296875 18.609375 23.390625 
Q 18.609375 15.53125 22.484375 10.953125 
Q 26.375 6.390625 33.015625 6.390625 
Q 39.65625 6.390625 43.53125 10.953125 
Q 47.40625 15.53125 47.40625 23.390625 
Q 47.40625 31.296875 43.53125 35.828125 
Q 39.65625 40.375 33.015625 40.375 
z
M 52.59375 71.296875 
L 52.59375 62.3125 
Q 48.875 64.0625 45.09375 64.984375 
Q 41.3125 65.921875 37.59375 65.921875 
Q 27.828125 65.921875 22.671875 59.328125 
Q 17.53125 52.734375 16.796875 39.40625 
Q 19.671875 43.65625 24.015625 45.921875 
Q 28.375 48.1875 33.59375 48.1875 
Q 44.578125 48.1875 50.953125 41.515625 
Q 57.328125 34.859375 57.328125 23.390625 
Q 57.328125 12.15625 50.6875 5.359375 
Q 44.046875 -1.421875 33.015625 -1.421875 
Q 20.359375 -1.421875 13.671875 8.265625 
Q 6.984375 17.96875 6.984375 36.375 
Q 6.984375 53.65625 15.1875 63.9375 
Q 23.390625 74.21875 37.203125 74.21875 
Q 40.921875 74.21875 44.703125 73.484375 
Q 48.484375 72.75 52.59375 71.296875 
z
" id="DejaVuSans-54"/>
      </defs>
      <g transform="translate(360.880488 322.182437)scale(0.1 -0.1)">
       <use xlink:href="#DejaVuSans-54"/>
       <use x="63.623047" xlink:href="#DejaVuSans-48"/>
       <use x="127.246094" xlink:href="#DejaVuSans-48"/>
      </g>
     </g>
    </g>
   </g>
   <g id="matplotlib.axis_2">
    <g id="ytick_1">
     <g id="line2d_7">
      <defs>
       <path d="M 0 0 
L -3.5 0 
" id="mb3d7b5ee19" style="stroke:#000000;stroke-width:0.8;"/>
      </defs>
      <g>
       <use style="stroke:#000000;stroke-width:0.8;" x="57.6" xlink:href="#mb3d7b5ee19" y="307.520313"/>
      </g>
     </g>
     <g id="text_6">
      <!-- −800 -->
      <defs>
       <path d="M 31.78125 34.625 
Q 24.75 34.625 20.71875 30.859375 
Q 16.703125 27.09375 16.703125 20.515625 
Q 16.703125 13.921875 20.71875 10.15625 
Q 24.75 6.390625 31.78125 6.390625 
Q 38.8125 6.390625 42.859375 10.171875 
Q 46.921875 13.96875 46.921875 20.515625 
Q 46.921875 27.09375 42.890625 30.859375 
Q 38.875 34.625 31.78125 34.625 
z
M 21.921875 38.8125 
Q 15.578125 40.375 12.03125 44.71875 
Q 8.5 49.078125 8.5 55.328125 
Q 8.5 64.0625 14.71875 69.140625 
Q 20.953125 74.21875 31.78125 74.21875 
Q 42.671875 74.21875 48.875 69.140625 
Q 55.078125 64.0625 55.078125 55.328125 
Q 55.078125 49.078125 51.53125 44.71875 
Q 48 40.375 41.703125 38.8125 
Q 48.828125 37.15625 52.796875 32.3125 
Q 56.78125 27.484375 56.78125 20.515625 
Q 56.78125 9.90625 50.3125 4.234375 
Q 43.84375 -1.421875 31.78125 -1.421875 
Q 19.734375 -1.421875 13.25 4.234375 
Q 6.78125 9.90625 6.78125 20.515625 
Q 6.78125 27.484375 10.78125 32.3125 
Q 14.796875 37.15625 21.921875 38.8125 
z
M 18.3125 54.390625 
Q 18.3125 48.734375 21.84375 45.5625 
Q 25.390625 42.390625 31.78125 42.390625 
Q 38.140625 42.390625 41.71875 45.5625 
Q 45.3125 48.734375 45.3125 54.390625 
Q 45.3125 60.0625 41.71875 63.234375 
Q 38.140625 66.40625 31.78125 66.40625 
Q 25.390625 66.40625 21.84375 63.234375 
Q 18.3125 60.0625 18.3125 54.390625 
z
" id="DejaVuSans-56"/>
      </defs>
      <g transform="translate(23.132812 311.319532)scale(0.1 -0.1)">
       <use xlink:href="#DejaVuSans-8722"/>
       <use x="83.789062" xlink:href="#DejaVuSans-56"/>
       <use x="147.412109" xlink:href="#DejaVuSans-48"/>
       <use x="211.035156" xlink:href="#DejaVuSans-48"/>
      </g>
     </g>
    </g>
    <g id="ytick_2">
     <g id="line2d_8">
      <g>
       <use style="stroke:#000000;stroke-width:0.8;" x="57.6" xlink:href="#mb3d7b5ee19" y="271.179892"/>
      </g>
     </g>
     <g id="text_7">
      <!-- −600 -->
      <g transform="translate(23.132812 274.979111)scale(0.1 -0.1)">
       <use xlink:href="#DejaVuSans-8722"/>
       <use x="83.789062" xlink:href="#DejaVuSans-54"/>
       <use x="147.412109" xlink:href="#DejaVuSans-48"/>
       <use x="211.035156" xlink:href="#DejaVuSans-48"/>
      </g>
     </g>
    </g>
    <g id="ytick_3">
     <g id="line2d_9">
      <g>
       <use style="stroke:#000000;stroke-width:0.8;" x="57.6" xlink:href="#mb3d7b5ee19" y="234.839471"/>
      </g>
     </g>
     <g id="text_8">
      <!-- −400 -->
      <g transform="translate(23.132812 238.63869)scale(0.1 -0.1)">
       <use xlink:href="#DejaVuSans-8722"/>
       <use x="83.789062" xlink:href="#DejaVuSans-52"/>
       <use x="147.412109" xlink:href="#DejaVuSans-48"/>
       <use x="211.035156" xlink:href="#DejaVuSans-48"/>
      </g>
     </g>
    </g>
    <g id="ytick_4">
     <g id="line2d_10">
      <g>
       <use style="stroke:#000000;stroke-width:0.8;" x="57.6" xlink:href="#mb3d7b5ee19" y="198.49905"/>
      </g>
     </g>
     <g id="text_9">
      <!-- −200 -->
      <g transform="translate(23.132812 202.298269)scale(0.1 -0.1)">
       <use xlink:href="#DejaVuSans-8722"/>
       <use x="83.789062" xlink:href="#DejaVuSans-50"/>
       <use x="147.412109" xlink:href="#DejaVuSans-48"/>
       <use x="211.035156" xlink:href="#DejaVuSans-48"/>
      </g>
     </g>
    </g>
    <g id="ytick_5">
     <g id="line2d_11">
      <g>
       <use style="stroke:#000000;stroke-width:0.8;" x="57.6" xlink:href="#mb3d7b5ee19" y="162.158629"/>
      </g>
     </g>
     <g id="text_10">
      <!-- 0 -->
      <g transform="translate(44.2375 165.957848)scale(0.1 -0.1)">
       <use xlink:href="#DejaVuSans-48"/>
      </g>
     </g>
    </g>
    <g id="ytick_6">
     <g id="line2d_12">
      <g>
       <use style="stroke:#000000;stroke-width:0.8;" x="57.6" xlink:href="#mb3d7b5ee19" y="125.818208"/>
      </g>
     </g>
     <g id="text_11">
      <!-- 200 -->
      <g transform="translate(31.5125 129.617427)scale(0.1 -0.1)">
       <use xlink:href="#DejaVuSans-50"/>
       <use x="63.623047" xlink:href="#DejaVuSans-48"/>
       <use x="127.246094" xlink:href="#DejaVuSans-48"/>
      </g>
     </g>
    </g>
    <g id="ytick_7">
     <g id="line2d_13">
      <g>
       <use style="stroke:#000000;stroke-width:0.8;" x="57.6" xlink:href="#mb3d7b5ee19" y="89.477787"/>
      </g>
     </g>
     <g id="text_12">
      <!-- 400 -->
      <g transform="translate(31.5125 93.277006)scale(0.1 -0.1)">
       <use xlink:href="#DejaVuSans-52"/>
       <use x="63.623047" xlink:href="#DejaVuSans-48"/>
       <use x="127.246094" xlink:href="#DejaVuSans-48"/>
      </g>
     </g>
    </g>
    <g id="ytick_8">
     <g id="line2d_14">
      <g>
       <use style="stroke:#000000;stroke-width:0.8;" x="57.6" xlink:href="#mb3d7b5ee19" y="53.137366"/>
      </g>
     </g>
     <g id="text_13">
      <!-- 600 -->
      <g transform="translate(31.5125 56.936585)scale(0.1 -0.1)">
       <use xlink:href="#DejaVuSans-54"/>
       <use x="63.623047" xlink:href="#DejaVuSans-48"/>
       <use x="127.246094" xlink:href="#DejaVuSans-48"/>
      </g>
     </g>
    </g>
   </g>
   <g id="line2d_15">
    <path clip-path="url(#pe242f3acc8)" d="M 397.173078 279.924555 
L 188.062641 234.745248 
L 85.092243 198.836878 
L 113.512651 60.732754 
L 155.521197 268.937554 
L 161.649308 266.121923 
L 225.380795 268.853848 
L 227.030228 276.146174 
" style="fill:none;stroke:#ff0000;stroke-linecap:square;stroke-width:0.5;"/>
   </g>
   <g id="patch_3">
    <path d="M 57.6 307.584 
L 57.6 41.472 
" style="fill:none;stroke:#000000;stroke-linecap:square;stroke-linejoin:miter;stroke-width:0.8;"/>
   </g>
   <g id="patch_4">
    <path d="M 414.72 307.584 
L 414.72 41.472 
" style="fill:none;stroke:#000000;stroke-linecap:square;stroke-linejoin:miter;stroke-width:0.8;"/>
   </g>
   <g id="patch_5">
    <path d="M 57.6 307.584 
L 414.72 307.584 
" style="fill:none;stroke:#000000;stroke-linecap:square;stroke-linejoin:miter;stroke-width:0.8;"/>
   </g>
   <g id="patch_6">
    <path d="M 57.6 41.472 
L 414.72 41.472 
" style="fill:none;stroke:#000000;stroke-linecap:square;stroke-linejoin:miter;stroke-width:0.8;"/>
   </g>
   <g id="PathCollection_1">
    <defs>
     <path d="M 0 2.738613 
C 0.726289 2.738613 1.422928 2.450055 1.936492 1.936492 
C 2.450055 1.422928 2.738613 0.726289 2.738613 0 
C 2.738613 -0.726289 2.450055 -1.422928 1.936492 -1.936492 
C 1.422928 -2.450055 0.726289 -2.738613 0 -2.738613 
C -0.726289 -2.738613 -1.422928 -2.450055 -1.936492 -1.936492 
C -2.450055 -1.422928 -2.738613 -0.726289 -2.738613 0 
C -2.738613 0.726289 -2.450055 1.422928 -1.936492 1.936492 
C -1.422928 2.450055 -0.726289 2.738613 0 2.738613 
z
" id="mad73308953" style="stroke:#ff0000;"/>
    </defs>
    <g clip-path="url(#pe242f3acc8)">
     <use style="fill:#ff0000;stroke:#ff0000;" x="397.173078" xlink:href="#mad73308953" y="279.924555"/>
     <use style="fill:#ff0000;stroke:#ff0000;" x="188.062641" xlink:href="#mad73308953" y="234.745248"/>
     <use style="fill:#ff0000;stroke:#ff0000;" x="85.092243" xlink:href="#mad73308953" y="198.836878"/>
     <use style="fill:#ff0000;stroke:#ff0000;" x="113.512651" xlink:href="#mad73308953" y="60.732754"/>
     <use style="fill:#ff0000;stroke:#ff0000;" x="155.521197" xlink:href="#mad73308953" y="268.937554"/>
     <use style="fill:#ff0000;stroke:#ff0000;" x="161.649308" xlink:href="#mad73308953" y="266.121923"/>
     <use style="fill:#ff0000;stroke:#ff0000;" x="225.380795" xlink:href="#mad73308953" y="268.853848"/>
     <use style="fill:#ff0000;stroke:#ff0000;" x="227.030228" xlink:href="#mad73308953" y="276.146174"/>
    </g>
   </g>
   <g id="text_14">
    <!-- (100) Subject: s27, Known = True, Degree = 1, Duration = 0.1 -->
    <defs>
     <path d="M 31 75.875 
Q 24.46875 64.65625 21.28125 53.65625 
Q 18.109375 42.671875 18.109375 31.390625 
Q 18.109375 20.125 21.3125 9.0625 
Q 24.515625 -2 31 -13.1875 
L 23.1875 -13.1875 
Q 15.875 -1.703125 12.234375 9.375 
Q 8.59375 20.453125 8.59375 31.390625 
Q 8.59375 42.28125 12.203125 53.3125 
Q 15.828125 64.359375 23.1875 75.875 
z
" id="DejaVuSans-40"/>
     <path d="M 12.40625 8.296875 
L 28.515625 8.296875 
L 28.515625 63.921875 
L 10.984375 60.40625 
L 10.984375 69.390625 
L 28.421875 72.90625 
L 38.28125 72.90625 
L 38.28125 8.296875 
L 54.390625 8.296875 
L 54.390625 0 
L 12.40625 0 
z
" id="DejaVuSans-49"/>
     <path d="M 8.015625 75.875 
L 15.828125 75.875 
Q 23.140625 64.359375 26.78125 53.3125 
Q 30.421875 42.28125 30.421875 31.390625 
Q 30.421875 20.453125 26.78125 9.375 
Q 23.140625 -1.703125 15.828125 -13.1875 
L 8.015625 -13.1875 
Q 14.5 -2 17.703125 9.0625 
Q 20.90625 20.125 20.90625 31.390625 
Q 20.90625 42.671875 17.703125 53.65625 
Q 14.5 64.65625 8.015625 75.875 
z
" id="DejaVuSans-41"/>
     <path id="DejaVuSans-32"/>
     <path d="M 53.515625 70.515625 
L 53.515625 60.890625 
Q 47.90625 63.578125 42.921875 64.890625 
Q 37.9375 66.21875 33.296875 66.21875 
Q 25.25 66.21875 20.875 63.09375 
Q 16.5 59.96875 16.5 54.203125 
Q 16.5 49.359375 19.40625 46.890625 
Q 22.3125 44.4375 30.421875 42.921875 
L 36.375 41.703125 
Q 47.40625 39.59375 52.65625 34.296875 
Q 57.90625 29 57.90625 20.125 
Q 57.90625 9.515625 50.796875 4.046875 
Q 43.703125 -1.421875 29.984375 -1.421875 
Q 24.8125 -1.421875 18.96875 -0.25 
Q 13.140625 0.921875 6.890625 3.21875 
L 6.890625 13.375 
Q 12.890625 10.015625 18.65625 8.296875 
Q 24.421875 6.59375 29.984375 6.59375 
Q 38.421875 6.59375 43.015625 9.90625 
Q 47.609375 13.234375 47.609375 19.390625 
Q 47.609375 24.75 44.3125 27.78125 
Q 41.015625 30.8125 33.5 32.328125 
L 27.484375 33.5 
Q 16.453125 35.6875 11.515625 40.375 
Q 6.59375 45.0625 6.59375 53.421875 
Q 6.59375 63.09375 13.40625 68.65625 
Q 20.21875 74.21875 32.171875 74.21875 
Q 37.3125 74.21875 42.625 73.28125 
Q 47.953125 72.359375 53.515625 70.515625 
z
" id="DejaVuSans-83"/>
     <path d="M 8.5 21.578125 
L 8.5 54.6875 
L 17.484375 54.6875 
L 17.484375 21.921875 
Q 17.484375 14.15625 20.5 10.265625 
Q 23.53125 6.390625 29.59375 6.390625 
Q 36.859375 6.390625 41.078125 11.03125 
Q 45.3125 15.671875 45.3125 23.6875 
L 45.3125 54.6875 
L 54.296875 54.6875 
L 54.296875 0 
L 45.3125 0 
L 45.3125 8.40625 
Q 42.046875 3.421875 37.71875 1 
Q 33.40625 -1.421875 27.6875 -1.421875 
Q 18.265625 -1.421875 13.375 4.4375 
Q 8.5 10.296875 8.5 21.578125 
z
M 31.109375 56 
z
" id="DejaVuSans-117"/>
     <path d="M 48.6875 27.296875 
Q 48.6875 37.203125 44.609375 42.84375 
Q 40.53125 48.484375 33.40625 48.484375 
Q 26.265625 48.484375 22.1875 42.84375 
Q 18.109375 37.203125 18.109375 27.296875 
Q 18.109375 17.390625 22.1875 11.75 
Q 26.265625 6.109375 33.40625 6.109375 
Q 40.53125 6.109375 44.609375 11.75 
Q 48.6875 17.390625 48.6875 27.296875 
z
M 18.109375 46.390625 
Q 20.953125 51.265625 25.265625 53.625 
Q 29.59375 56 35.59375 56 
Q 45.5625 56 51.78125 48.09375 
Q 58.015625 40.1875 58.015625 27.296875 
Q 58.015625 14.40625 51.78125 6.484375 
Q 45.5625 -1.421875 35.59375 -1.421875 
Q 29.59375 -1.421875 25.265625 0.953125 
Q 20.953125 3.328125 18.109375 8.203125 
L 18.109375 0 
L 9.078125 0 
L 9.078125 75.984375 
L 18.109375 75.984375 
z
" id="DejaVuSans-98"/>
     <path d="M 9.421875 54.6875 
L 18.40625 54.6875 
L 18.40625 -0.984375 
Q 18.40625 -11.421875 14.421875 -16.109375 
Q 10.453125 -20.796875 1.609375 -20.796875 
L -1.8125 -20.796875 
L -1.8125 -13.1875 
L 0.59375 -13.1875 
Q 5.71875 -13.1875 7.5625 -10.8125 
Q 9.421875 -8.453125 9.421875 -0.984375 
z
M 9.421875 75.984375 
L 18.40625 75.984375 
L 18.40625 64.59375 
L 9.421875 64.59375 
z
" id="DejaVuSans-106"/>
     <path d="M 56.203125 29.59375 
L 56.203125 25.203125 
L 14.890625 25.203125 
Q 15.484375 15.921875 20.484375 11.0625 
Q 25.484375 6.203125 34.421875 6.203125 
Q 39.59375 6.203125 44.453125 7.46875 
Q 49.3125 8.734375 54.109375 11.28125 
L 54.109375 2.78125 
Q 49.265625 0.734375 44.1875 -0.34375 
Q 39.109375 -1.421875 33.890625 -1.421875 
Q 20.796875 -1.421875 13.15625 6.1875 
Q 5.515625 13.8125 5.515625 26.8125 
Q 5.515625 40.234375 12.765625 48.109375 
Q 20.015625 56 32.328125 56 
Q 43.359375 56 49.78125 48.890625 
Q 56.203125 41.796875 56.203125 29.59375 
z
M 47.21875 32.234375 
Q 47.125 39.59375 43.09375 43.984375 
Q 39.0625 48.390625 32.421875 48.390625 
Q 24.90625 48.390625 20.390625 44.140625 
Q 15.875 39.890625 15.1875 32.171875 
z
" id="DejaVuSans-101"/>
     <path d="M 48.78125 52.59375 
L 48.78125 44.1875 
Q 44.96875 46.296875 41.140625 47.34375 
Q 37.3125 48.390625 33.40625 48.390625 
Q 24.65625 48.390625 19.8125 42.84375 
Q 14.984375 37.3125 14.984375 27.296875 
Q 14.984375 17.28125 19.8125 11.734375 
Q 24.65625 6.203125 33.40625 6.203125 
Q 37.3125 6.203125 41.140625 7.25 
Q 44.96875 8.296875 48.78125 10.40625 
L 48.78125 2.09375 
Q 45.015625 0.34375 40.984375 -0.53125 
Q 36.96875 -1.421875 32.421875 -1.421875 
Q 20.0625 -1.421875 12.78125 6.34375 
Q 5.515625 14.109375 5.515625 27.296875 
Q 5.515625 40.671875 12.859375 48.328125 
Q 20.21875 56 33.015625 56 
Q 37.15625 56 41.109375 55.140625 
Q 45.0625 54.296875 48.78125 52.59375 
z
" id="DejaVuSans-99"/>
     <path d="M 18.3125 70.21875 
L 18.3125 54.6875 
L 36.8125 54.6875 
L 36.8125 47.703125 
L 18.3125 47.703125 
L 18.3125 18.015625 
Q 18.3125 11.328125 20.140625 9.421875 
Q 21.96875 7.515625 27.59375 7.515625 
L 36.8125 7.515625 
L 36.8125 0 
L 27.59375 0 
Q 17.1875 0 13.234375 3.875 
Q 9.28125 7.765625 9.28125 18.015625 
L 9.28125 47.703125 
L 2.6875 47.703125 
L 2.6875 54.6875 
L 9.28125 54.6875 
L 9.28125 70.21875 
z
" id="DejaVuSans-116"/>
     <path d="M 11.71875 12.40625 
L 22.015625 12.40625 
L 22.015625 0 
L 11.71875 0 
z
M 11.71875 51.703125 
L 22.015625 51.703125 
L 22.015625 39.3125 
L 11.71875 39.3125 
z
" id="DejaVuSans-58"/>
     <path d="M 44.28125 53.078125 
L 44.28125 44.578125 
Q 40.484375 46.53125 36.375 47.5 
Q 32.28125 48.484375 27.875 48.484375 
Q 21.1875 48.484375 17.84375 46.4375 
Q 14.5 44.390625 14.5 40.28125 
Q 14.5 37.15625 16.890625 35.375 
Q 19.28125 33.59375 26.515625 31.984375 
L 29.59375 31.296875 
Q 39.15625 29.25 43.1875 25.515625 
Q 47.21875 21.78125 47.21875 15.09375 
Q 47.21875 7.46875 41.1875 3.015625 
Q 35.15625 -1.421875 24.609375 -1.421875 
Q 20.21875 -1.421875 15.453125 -0.5625 
Q 10.6875 0.296875 5.421875 2 
L 5.421875 11.28125 
Q 10.40625 8.6875 15.234375 7.390625 
Q 20.0625 6.109375 24.8125 6.109375 
Q 31.15625 6.109375 34.5625 8.28125 
Q 37.984375 10.453125 37.984375 14.40625 
Q 37.984375 18.0625 35.515625 20.015625 
Q 33.0625 21.96875 24.703125 23.78125 
L 21.578125 24.515625 
Q 13.234375 26.265625 9.515625 29.90625 
Q 5.8125 33.546875 5.8125 39.890625 
Q 5.8125 47.609375 11.28125 51.796875 
Q 16.75 56 26.8125 56 
Q 31.78125 56 36.171875 55.265625 
Q 40.578125 54.546875 44.28125 53.078125 
z
" id="DejaVuSans-115"/>
     <path d="M 8.203125 72.90625 
L 55.078125 72.90625 
L 55.078125 68.703125 
L 28.609375 0 
L 18.3125 0 
L 43.21875 64.59375 
L 8.203125 64.59375 
z
" id="DejaVuSans-55"/>
     <path d="M 11.71875 12.40625 
L 22.015625 12.40625 
L 22.015625 4 
L 14.015625 -11.625 
L 7.71875 -11.625 
L 11.71875 4 
z
" id="DejaVuSans-44"/>
     <path d="M 9.8125 72.90625 
L 19.671875 72.90625 
L 19.671875 42.09375 
L 52.390625 72.90625 
L 65.09375 72.90625 
L 28.90625 38.921875 
L 67.671875 0 
L 54.6875 0 
L 19.671875 35.109375 
L 19.671875 0 
L 9.8125 0 
z
" id="DejaVuSans-75"/>
     <path d="M 54.890625 33.015625 
L 54.890625 0 
L 45.90625 0 
L 45.90625 32.71875 
Q 45.90625 40.484375 42.875 44.328125 
Q 39.84375 48.1875 33.796875 48.1875 
Q 26.515625 48.1875 22.3125 43.546875 
Q 18.109375 38.921875 18.109375 30.90625 
L 18.109375 0 
L 9.078125 0 
L 9.078125 54.6875 
L 18.109375 54.6875 
L 18.109375 46.1875 
Q 21.34375 51.125 25.703125 53.5625 
Q 30.078125 56 35.796875 56 
Q 45.21875 56 50.046875 50.171875 
Q 54.890625 44.34375 54.890625 33.015625 
z
" id="DejaVuSans-110"/>
     <path d="M 30.609375 48.390625 
Q 23.390625 48.390625 19.1875 42.75 
Q 14.984375 37.109375 14.984375 27.296875 
Q 14.984375 17.484375 19.15625 11.84375 
Q 23.34375 6.203125 30.609375 6.203125 
Q 37.796875 6.203125 41.984375 11.859375 
Q 46.1875 17.53125 46.1875 27.296875 
Q 46.1875 37.015625 41.984375 42.703125 
Q 37.796875 48.390625 30.609375 48.390625 
z
M 30.609375 56 
Q 42.328125 56 49.015625 48.375 
Q 55.71875 40.765625 55.71875 27.296875 
Q 55.71875 13.875 49.015625 6.21875 
Q 42.328125 -1.421875 30.609375 -1.421875 
Q 18.84375 -1.421875 12.171875 6.21875 
Q 5.515625 13.875 5.515625 27.296875 
Q 5.515625 40.765625 12.171875 48.375 
Q 18.84375 56 30.609375 56 
z
" id="DejaVuSans-111"/>
     <path d="M 4.203125 54.6875 
L 13.1875 54.6875 
L 24.421875 12.015625 
L 35.59375 54.6875 
L 46.1875 54.6875 
L 57.421875 12.015625 
L 68.609375 54.6875 
L 77.59375 54.6875 
L 63.28125 0 
L 52.6875 0 
L 40.921875 44.828125 
L 29.109375 0 
L 18.5 0 
z
" id="DejaVuSans-119"/>
     <path d="M 10.59375 45.40625 
L 73.1875 45.40625 
L 73.1875 37.203125 
L 10.59375 37.203125 
z
M 10.59375 25.484375 
L 73.1875 25.484375 
L 73.1875 17.1875 
L 10.59375 17.1875 
z
" id="DejaVuSans-61"/>
     <path d="M -0.296875 72.90625 
L 61.375 72.90625 
L 61.375 64.59375 
L 35.5 64.59375 
L 35.5 0 
L 25.59375 0 
L 25.59375 64.59375 
L -0.296875 64.59375 
z
" id="DejaVuSans-84"/>
     <path d="M 41.109375 46.296875 
Q 39.59375 47.171875 37.8125 47.578125 
Q 36.03125 48 33.890625 48 
Q 26.265625 48 22.1875 43.046875 
Q 18.109375 38.09375 18.109375 28.8125 
L 18.109375 0 
L 9.078125 0 
L 9.078125 54.6875 
L 18.109375 54.6875 
L 18.109375 46.1875 
Q 20.953125 51.171875 25.484375 53.578125 
Q 30.03125 56 36.53125 56 
Q 37.453125 56 38.578125 55.875 
Q 39.703125 55.765625 41.0625 55.515625 
z
" id="DejaVuSans-114"/>
     <path d="M 19.671875 64.796875 
L 19.671875 8.109375 
L 31.59375 8.109375 
Q 46.6875 8.109375 53.6875 14.9375 
Q 60.6875 21.78125 60.6875 36.53125 
Q 60.6875 51.171875 53.6875 57.984375 
Q 46.6875 64.796875 31.59375 64.796875 
z
M 9.8125 72.90625 
L 30.078125 72.90625 
Q 51.265625 72.90625 61.171875 64.09375 
Q 71.09375 55.28125 71.09375 36.53125 
Q 71.09375 17.671875 61.125 8.828125 
Q 51.171875 0 30.078125 0 
L 9.8125 0 
z
" id="DejaVuSans-68"/>
     <path d="M 45.40625 27.984375 
Q 45.40625 37.75 41.375 43.109375 
Q 37.359375 48.484375 30.078125 48.484375 
Q 22.859375 48.484375 18.828125 43.109375 
Q 14.796875 37.75 14.796875 27.984375 
Q 14.796875 18.265625 18.828125 12.890625 
Q 22.859375 7.515625 30.078125 7.515625 
Q 37.359375 7.515625 41.375 12.890625 
Q 45.40625 18.265625 45.40625 27.984375 
z
M 54.390625 6.78125 
Q 54.390625 -7.171875 48.1875 -13.984375 
Q 42 -20.796875 29.203125 -20.796875 
Q 24.46875 -20.796875 20.265625 -20.09375 
Q 16.0625 -19.390625 12.109375 -17.921875 
L 12.109375 -9.1875 
Q 16.0625 -11.328125 19.921875 -12.34375 
Q 23.78125 -13.375 27.78125 -13.375 
Q 36.625 -13.375 41.015625 -8.765625 
Q 45.40625 -4.15625 45.40625 5.171875 
L 45.40625 9.625 
Q 42.625 4.78125 38.28125 2.390625 
Q 33.9375 0 27.875 0 
Q 17.828125 0 11.671875 7.65625 
Q 5.515625 15.328125 5.515625 27.984375 
Q 5.515625 40.671875 11.671875 48.328125 
Q 17.828125 56 27.875 56 
Q 33.9375 56 38.28125 53.609375 
Q 42.625 51.21875 45.40625 46.390625 
L 45.40625 54.6875 
L 54.390625 54.6875 
z
" id="DejaVuSans-103"/>
     <path d="M 34.28125 27.484375 
Q 23.390625 27.484375 19.1875 25 
Q 14.984375 22.515625 14.984375 16.5 
Q 14.984375 11.71875 18.140625 8.90625 
Q 21.296875 6.109375 26.703125 6.109375 
Q 34.1875 6.109375 38.703125 11.40625 
Q 43.21875 16.703125 43.21875 25.484375 
L 43.21875 27.484375 
z
M 52.203125 31.203125 
L 52.203125 0 
L 43.21875 0 
L 43.21875 8.296875 
Q 40.140625 3.328125 35.546875 0.953125 
Q 30.953125 -1.421875 24.3125 -1.421875 
Q 15.921875 -1.421875 10.953125 3.296875 
Q 6 8.015625 6 15.921875 
Q 6 25.140625 12.171875 29.828125 
Q 18.359375 34.515625 30.609375 34.515625 
L 43.21875 34.515625 
L 43.21875 35.40625 
Q 43.21875 41.609375 39.140625 45 
Q 35.0625 48.390625 27.6875 48.390625 
Q 23 48.390625 18.546875 47.265625 
Q 14.109375 46.140625 10.015625 43.890625 
L 10.015625 52.203125 
Q 14.9375 54.109375 19.578125 55.046875 
Q 24.21875 56 28.609375 56 
Q 40.484375 56 46.34375 49.84375 
Q 52.203125 43.703125 52.203125 31.203125 
z
" id="DejaVuSans-97"/>
     <path d="M 9.421875 54.6875 
L 18.40625 54.6875 
L 18.40625 0 
L 9.421875 0 
z
M 9.421875 75.984375 
L 18.40625 75.984375 
L 18.40625 64.59375 
L 9.421875 64.59375 
z
" id="DejaVuSans-105"/>
     <path d="M 10.6875 12.40625 
L 21 12.40625 
L 21 0 
L 10.6875 0 
z
" id="DejaVuSans-46"/>
    </defs>
    <g transform="translate(47.915625 35.472)scale(0.12 -0.12)">
     <use xlink:href="#DejaVuSans-40"/>
     <use x="39.013672" xlink:href="#DejaVuSans-49"/>
     <use x="102.636719" xlink:href="#DejaVuSans-48"/>
     <use x="166.259766" xlink:href="#DejaVuSans-48"/>
     <use x="229.882812" xlink:href="#DejaVuSans-41"/>
     <use x="268.896484" xlink:href="#DejaVuSans-32"/>
     <use x="300.683594" xlink:href="#DejaVuSans-83"/>
     <use x="364.160156" xlink:href="#DejaVuSans-117"/>
     <use x="427.539062" xlink:href="#DejaVuSans-98"/>
     <use x="491.015625" xlink:href="#DejaVuSans-106"/>
     <use x="518.798828" xlink:href="#DejaVuSans-101"/>
     <use x="580.322266" xlink:href="#DejaVuSans-99"/>
     <use x="635.302734" xlink:href="#DejaVuSans-116"/>
     <use x="674.511719" xlink:href="#DejaVuSans-58"/>
     <use x="708.203125" xlink:href="#DejaVuSans-32"/>
     <use x="739.990234" xlink:href="#DejaVuSans-115"/>
     <use x="792.089844" xlink:href="#DejaVuSans-50"/>
     <use x="855.712891" xlink:href="#DejaVuSans-55"/>
     <use x="919.335938" xlink:href="#DejaVuSans-44"/>
     <use x="951.123047" xlink:href="#DejaVuSans-32"/>
     <use x="982.910156" xlink:href="#DejaVuSans-75"/>
     <use x="1048.486328" xlink:href="#DejaVuSans-110"/>
     <use x="1111.865234" xlink:href="#DejaVuSans-111"/>
     <use x="1173.046875" xlink:href="#DejaVuSans-119"/>
     <use x="1254.833984" xlink:href="#DejaVuSans-110"/>
     <use x="1318.212891" xlink:href="#DejaVuSans-32"/>
     <use x="1350" xlink:href="#DejaVuSans-61"/>
     <use x="1433.789062" xlink:href="#DejaVuSans-32"/>
     <use x="1465.576172" xlink:href="#DejaVuSans-84"/>
     <use x="1526.441406" xlink:href="#DejaVuSans-114"/>
     <use x="1567.554688" xlink:href="#DejaVuSans-117"/>
     <use x="1630.933594" xlink:href="#DejaVuSans-101"/>
     <use x="1692.457031" xlink:href="#DejaVuSans-44"/>
     <use x="1724.244141" xlink:href="#DejaVuSans-32"/>
     <use x="1756.03125" xlink:href="#DejaVuSans-68"/>
     <use x="1833.033203" xlink:href="#DejaVuSans-101"/>
     <use x="1894.556641" xlink:href="#DejaVuSans-103"/>
     <use x="1958.033203" xlink:href="#DejaVuSans-114"/>
     <use x="1999.115234" xlink:href="#DejaVuSans-101"/>
     <use x="2060.638672" xlink:href="#DejaVuSans-101"/>
     <use x="2122.162109" xlink:href="#DejaVuSans-32"/>
     <use x="2153.949219" xlink:href="#DejaVuSans-61"/>
     <use x="2237.738281" xlink:href="#DejaVuSans-32"/>
     <use x="2269.525391" xlink:href="#DejaVuSans-49"/>
     <use x="2333.148438" xlink:href="#DejaVuSans-44"/>
     <use x="2364.935547" xlink:href="#DejaVuSans-32"/>
     <use x="2396.722656" xlink:href="#DejaVuSans-68"/>
     <use x="2473.724609" xlink:href="#DejaVuSans-117"/>
     <use x="2537.103516" xlink:href="#DejaVuSans-114"/>
     <use x="2578.216797" xlink:href="#DejaVuSans-97"/>
     <use x="2639.496094" xlink:href="#DejaVuSans-116"/>
     <use x="2678.705078" xlink:href="#DejaVuSans-105"/>
     <use x="2706.488281" xlink:href="#DejaVuSans-111"/>
     <use x="2767.669922" xlink:href="#DejaVuSans-110"/>
     <use x="2831.048828" xlink:href="#DejaVuSans-32"/>
     <use x="2862.835938" xlink:href="#DejaVuSans-61"/>
     <use x="2946.625" xlink:href="#DejaVuSans-32"/>
     <use x="2978.412109" xlink:href="#DejaVuSans-48"/>
     <use x="3042.035156" xlink:href="#DejaVuSans-46"/>
     <use x="3073.822266" xlink:href="#DejaVuSans-49"/>
    </g>
   </g>
  </g>
 </g>
 <defs>
  <clipPath id="pe242f3acc8">
   <rect height="266.112" width="357.12" x="57.6" y="41.472"/>
  </clipPath>
 </defs>
</svg>
