<?xml version="1.0" encoding="utf-8" standalone="no"?>
<!DOCTYPE svg PUBLIC "-//W3C//DTD SVG 1.1//EN"
  "http://www.w3.org/Graphics/SVG/1.1/DTD/svg11.dtd">
<!-- Created with matplotlib (https://matplotlib.org/) -->
<svg height="345.6pt" version="1.1" viewBox="0 0 460.8 345.6" width="460.8pt" xmlns="http://www.w3.org/2000/svg" xmlns:xlink="http://www.w3.org/1999/xlink">
 <defs>
  <style type="text/css">
*{stroke-linecap:butt;stroke-linejoin:round;}
  </style>
 </defs>
 <g id="figure_1">
  <g id="patch_1">
   <path d="M 0 345.6 
L 460.8 345.6 
L 460.8 0 
L 0 0 
z
" style="fill:#ffffff;"/>
  </g>
  <g id="axes_1">
   <g id="patch_2">
    <path d="M 57.6 307.584 
L 414.72 307.584 
L 414.72 41.472 
L 57.6 41.472 
z
" style="fill:#ffffff;"/>
   </g>
   <g id="line2d_1">
    <path clip-path="url(#p97eae405c8)" d="M 76.216543 293.891658 
L 76.216543 294.530195 
L 77.011149 294.530195 
L 77.011149 294.210926 
L 77.276017 293.891658 
L 77.011149 293.572389 
L 74.892201 294.210926 
L 74.362464 294.849463 
L 74.892201 295.168732 
L 75.951675 295.488 
L 75.951675 295.488 
L 75.951675 293.572389 
L 76.74628 292.931339 
L 77.011149 293.572389 
L 76.481412 293.891658 
L 76.481412 293.572389 
L 76.481412 293.572389 
L 76.74628 293.253121 
L 76.74628 293.253121 
L 76.216543 293.572389 
L 76.216543 294.210926 
L 76.74628 294.210926 
L 77.011149 293.572389 
L 77.011149 293.572389 
L 77.276017 293.572389 
L 77.276017 293.572389 
L 76.74628 293.253121 
L 75.951675 293.572389 
L 75.686806 293.891658 
L 76.74628 293.891658 
L 76.74628 294.210926 
L 76.481412 294.210926 
L 75.951675 293.572389 
L 76.216543 293.253121 
L 76.74628 293.253121 
L 76.74628 293.253121 
L 76.216543 292.931339 
L 75.951675 292.61207 
L 76.216543 292.931339 
L 77.011149 292.61207 
L 77.276017 292.292802 
L 77.011149 291.654265 
L 76.74628 291.973533 
L 76.216543 291.973533 
L 75.686806 291.654265 
L 75.951675 291.654265 
L 76.481412 292.61207 
L 76.481412 292.931339 
L 76.216543 292.61207 
L 76.216543 292.292802 
L 76.481412 292.292802 
L 76.74628 292.61207 
L 77.276017 292.61207 
L 78.074154 293.572389 
L 77.809285 292.931339 
L 76.481412 291.973533 
L 76.216543 291.973533 
L 76.481412 291.654265 
L 75.951675 291.654265 
L 75.686806 291.334996 
L 75.421938 291.334996 
L 75.686806 291.654265 
L 76.74628 291.334996 
L 76.216543 291.334996 
L 75.686806 291.973533 
L 75.421938 293.253121 
L 75.951675 292.931339 
L 76.216543 291.654265 
L 76.216543 291.654265 
L 76.216543 291.334996 
L 76.216543 291.334996 
L 75.951675 291.334996 
L 75.951675 291.654265 
L 76.481412 291.973533 
L 76.74628 292.292802 
L 76.74628 291.973533 
L 76.481412 291.654265 
L 76.74628 291.334996 
L 77.011149 291.334996 
L 76.74628 291.015728 
L 76.481412 291.015728 
L 77.011149 291.015728 
L 77.276017 290.374677 
L 77.011149 289.416872 
L 75.951675 289.416872 
L 76.216543 289.416872 
L 76.74628 289.73614 
L 77.276017 289.416872 
L 77.276017 289.097603 
L 77.011149 289.097603 
L 76.74628 289.416872 
L 76.481412 289.416872 
L 76.216543 289.73614 
L 76.481412 289.73614 
L 77.276017 289.416872 
L 77.540885 289.73614 
L 77.011149 290.055409 
L 76.481412 289.73614 
L 76.481412 289.416872 
L 77.011149 289.097603 
L 77.276017 289.097603 
L 77.540885 289.416872 
L 77.011149 289.73614 
L 76.74628 290.055409 
L 76.74628 290.055409 
L 77.011149 290.055409 
L 77.011149 288.778335 
L 77.276017 288.778335 
L 77.276017 290.055409 
L 77.276017 289.73614 
L 76.74628 290.055409 
L 76.74628 290.055409 
L 76.74628 289.097603 
L 76.74628 289.416872 
L 76.216543 289.73614 
L 76.216543 290.055409 
L 76.481412 289.73614 
L 77.276017 289.416872 
L 77.809285 289.416872 
L 77.809285 290.055409 
L 78.074154 290.055409 
L 78.074154 290.055409 
L 77.540885 290.374677 
L 76.74628 290.374677 
L 75.951675 290.055409 
L 75.951675 290.374677 
L 76.481412 290.69646 
L 77.276017 290.69646 
L 77.276017 290.374677 
L 76.74628 289.73614 
L 75.951675 289.73614 
L 75.686806 290.055409 
L 76.216543 290.055409 
L 76.216543 290.055409 
L 76.216543 289.416872 
L 75.951675 289.416872 
L 76.216543 289.416872 
L 76.74628 288.778335 
L 76.481412 288.139798 
L 76.216543 288.139798 
L 75.951675 288.459067 
L 75.951675 288.459067 
L 75.686806 288.459067 
L 75.686806 288.139798 
L 75.951675 287.818016 
L 75.951675 287.498747 
L 75.686806 287.818016 
L 75.157069 287.818016 
L 75.157069 287.498747 
L 75.421938 287.179479 
L 75.421938 287.179479 
L 74.892201 287.179479 
L 74.892201 287.498747 
L 75.157069 288.139798 
L 75.421938 288.459067 
L 75.951675 288.459067 
L 76.216543 287.818016 
L 76.216543 287.498747 
L 75.686806 287.498747 
L 75.951675 287.498747 
L 76.216543 287.818016 
L 76.216543 287.498747 
L 75.951675 286.86021 
L 75.686806 286.540942 
L 75.157069 286.540942 
L 74.892201 286.86021 
L 74.892201 287.179479 
L 74.892201 286.86021 
L 75.951675 288.139798 
L 76.216543 287.498747 
L 75.951675 286.540942 
L 75.421938 285.902405 
L 74.892201 285.902405 
L 74.627333 286.540942 
L 74.362464 286.86021 
L 74.627333 287.179479 
L 74.892201 286.86021 
L 74.892201 285.902405 
L 74.627333 285.261354 
L 74.892201 284.942086 
L 75.686806 287.498747 
L 75.686806 287.179479 
L 74.892201 286.221674 
L 74.892201 286.540942 
L 74.627333 286.540942 
L 74.362464 286.221674 
L 74.892201 285.583137 
L 75.686806 285.261354 
L 76.216543 285.261354 
L 75.951675 285.261354 
L 75.686806 285.583137 
L 75.157069 285.902405 
L 74.362464 286.86021 
L 74.627333 286.540942 
L 74.892201 286.86021 
L 74.627333 286.86021 
L 74.892201 285.902405 
L 74.892201 285.261354 
L 74.892201 285.261354 
L 74.627333 285.583137 
L 74.627333 286.221674 
L 74.892201 286.540942 
L 75.157069 286.221674 
L 75.157069 285.261354 
L 75.421938 285.583137 
L 75.421938 285.902405 
L 75.157069 285.902405 
L 74.627333 286.221674 
L 74.362464 286.86021 
L 74.627333 286.540942 
L 74.627333 285.583137 
L 74.362464 284.942086 
L 74.362464 284.942086 
L 74.892201 285.261354 
L 75.421938 286.221674 
L 75.421938 287.179479 
L 75.421938 287.179479 
L 74.892201 287.179479 
L 74.892201 287.498747 
L 75.157069 287.818016 
L 74.892201 287.498747 
L 74.627333 287.818016 
L 74.892201 288.139798 
L 74.892201 287.498747 
L 75.157069 286.221674 
L 74.892201 285.583137 
L 74.627333 285.261354 
L 74.362464 285.583137 
L 74.362464 286.221674 
L 74.362464 286.221674 
L 75.157069 286.221674 
L 74.627333 285.902405 
L 74.362464 285.583137 
L 74.362464 285.902405 
L 74.627333 286.221674 
L 74.627333 286.221674 
L 74.362464 286.221674 
L 74.627333 285.902405 
L 75.157069 285.902405 
L 74.627333 285.902405 
L 74.362464 285.583137 
L 74.627333 284.942086 
L 74.892201 284.622818 
L 74.627333 284.942086 
L 74.627333 285.583137 
L 74.892201 285.902405 
L 74.627333 285.261354 
L 74.627333 284.622818 
L 75.157069 283.026475 
L 75.686806 283.345744 
L 75.686806 283.345744 
L 75.421938 283.026475 
L 75.157069 283.345744 
L 75.157069 283.665012 
L 75.157069 283.665012 
L 74.892201 283.345744 
L 74.892201 283.026475 
L 74.627333 282.704693 
L 74.627333 282.704693 
L 74.892201 282.066156 
L 74.892201 282.066156 
L 74.362464 282.704693 
L 73.832727 283.026475 
L 74.362464 282.704693 
L 74.362464 283.026475 
L 75.421938 282.385425 
L 76.74628 282.066156 
L 80.193101 282.066156 
L 81.782312 282.385425 
L 92.384113 279.509495 
L 97.155276 278.551689 
L 108.286814 274.71544 
L 114.117451 272.158779 
L 120.212957 269.282849 
L 126.043594 265.768382 
L 132.1391 261.612865 
L 139.29408 258.098398 
L 147.243664 254.583931 
L 155.458118 250.428414 
L 171.360819 243.396967 
L 179.045535 240.201768 
L 196.00771 233.489589 
L 212.969885 227.418461 
L 228.342849 222.943675 
L 235.762697 221.028065 
L 243.182545 218.471403 
L 256.697899 212.71703 
L 276.31229 205.368828 
L 281.609659 203.131435 
L 291.681723 199.936237 
L 297.247491 198.018112 
L 303.342997 195.780719 
L 308.908766 193.543326 
L 313.150193 191.625202 
L 316.858351 190.348128 
L 320.040304 189.387809 
L 323.748462 188.430003 
L 327.195283 187.15293 
L 330.112368 186.192611 
L 332.761052 185.554074 
L 334.350263 184.596268 
L 335.144868 184.274486 
L 335.943005 184.596268 
L 335.943005 185.234805 
L 335.144868 186.192611 
L 333.02592 186.831147 
L 330.112368 186.831147 
L 328.254757 187.472198 
L 325.341204 189.387809 
L 324.546599 189.387809 
L 322.953857 190.348128 
L 321.894383 191.305933 
L 320.570041 191.305933 
L 320.305172 191.625202 
L 320.040304 192.266253 
L 319.510567 193.224058 
L 319.510567 193.862595 
L 319.775435 193.543326 
L 319.510567 193.862595 
L 319.510567 194.822914 
L 320.040304 195.780719 
L 320.305172 195.780719 
L 320.305172 194.822914 
L 319.510567 193.543326 
L 318.715961 193.224058 
L 318.186225 194.501132 
L 317.921356 194.501132 
L 317.652956 194.822914 
L 316.858351 195.461451 
L 316.593482 195.461451 
L 316.593482 195.461451 
L 316.063745 195.780719 
L 316.063745 195.780719 
L 315.26914 195.780719 
L 315.26914 195.780719 
L 315.534009 195.461451 
L 315.004272 195.780719 
L 314.209666 195.780719 
L 314.739403 194.822914 
L 315.26914 194.822914 
L 315.534009 195.461451 
L 315.26914 196.419256 
L 315.004272 196.419256 
L 314.474535 196.099988 
L 314.474535 196.738525 
L 313.944798 197.379575 
L 313.415061 197.698844 
L 313.415061 197.057793 
L 313.944798 196.419256 
L 314.209666 196.419256 
L 313.944798 196.419256 
L 313.67993 196.738525 
L 313.944798 197.379575 
L 314.209666 197.057793 
L 314.209666 196.738525 
L 313.944798 197.057793 
L 313.944798 197.698844 
L 313.67993 197.379575 
L 313.150193 197.057793 
L 312.885324 196.738525 
L 312.885324 196.419256 
L 312.620456 196.419256 
L 312.355587 197.057793 
L 312.355587 197.698844 
L 312.885324 197.698844 
L 312.355587 197.698844 
L 311.292582 198.018112 
L 311.82585 196.738525 
L 312.090719 197.057793 
L 312.090719 198.018112 
L 311.82585 198.337381 
L 311.82585 198.975918 
L 311.82585 197.379575 
L 311.292582 197.379575 
L 310.497977 198.018112 
L 310.233108 198.656649 
L 310.762845 198.337381 
L 311.292582 197.698844 
L 311.55745 197.698844 
L 311.292582 197.698844 
L 311.027714 198.656649 
L 311.027714 199.614454 
L 311.027714 199.614454 
L 310.762845 198.975918 
L 310.762845 198.337381 
L 308.908766 198.337381 
L 309.173634 198.975918 
L 309.173634 198.975918 
L 308.643898 198.975918 
L 309.173634 198.656649 
L 309.703371 198.018112 
L 309.703371 198.018112 
L 309.173634 198.337381 
L 308.379029 199.295186 
L 308.114161 199.295186 
L 308.643898 198.656649 
L 309.703371 198.018112 
L 311.027714 197.698844 
L 311.82585 198.018112 
L 313.415061 197.698844 
L 315.798877 197.698844 
L 318.451093 197.057793 
L 324.016862 197.057793 
L 327.460152 196.738525 
L 331.43671 195.780719 
L 335.674605 194.181863 
L 339.916031 192.904789 
L 344.157458 192.266253 
L 348.928622 191.94447 
L 353.431385 190.986665 
L 357.93768 189.709591 
L 365.622397 187.791467 
L 369.069218 187.472198 
L 372.516039 187.791467 
L 375.429592 187.472198 
L 377.81694 186.831147 
L 382.584572 184.915537 
L 384.707051 184.596268 
L 386.825998 184.596268 
L 388.415209 185.234805 
L 389.739551 185.234805 
L 393.451241 184.596268 
L 395.570188 184.915537 
L 396.898062 185.234805 
L 397.692667 185.234805 
L 398.487273 184.915537 
L 398.487273 184.915537 
L 397.692667 185.554074 
L 397.162931 185.234805 
L 397.162931 184.915537 
L 397.692667 184.915537 
L 397.957536 185.873342 
L 397.692667 186.511879 
L 396.898062 186.511879 
L 395.838588 186.831147 
L 394.775583 187.791467 
L 394.245846 188.749272 
L 394.245846 189.06854 
L 395.040451 189.06854 
L 395.30532 188.110735 
L 394.510715 188.430003 
L 393.451241 189.387809 
L 392.921504 190.348128 
L 391.86203 189.709591 
L 391.332293 189.709591 
L 391.597162 190.348128 
L 392.126899 190.667396 
L 392.391767 190.667396 
L 392.126899 190.986665 
L 391.597162 191.305933 
L 391.332293 191.305933 
L 390.802556 191.94447 
L 390.802556 191.625202 
L 390.537688 191.305933 
L 390.802556 190.986665 
L 391.332293 190.667396 
L 391.597162 191.305933 
L 391.332293 191.94447 
L 390.802556 192.266253 
L 390.272819 192.266253 
L 390.007951 192.585521 
L 390.007951 192.585521 
L 390.007951 192.904789 
L 390.537688 192.904789 
L 390.802556 192.585521 
L 390.537688 192.266253 
L 390.007951 192.904789 
L 389.739551 193.543326 
L 389.474683 193.862595 
L 389.739551 193.862595 
L 389.474683 194.181863 
L 389.474683 194.501132 
L 389.474683 193.543326 
L 389.739551 193.862595 
L 389.474683 194.501132 
L 389.474683 194.822914 
L 389.209814 195.461451 
L 388.944946 195.780719 
L 388.944946 194.181863 
L 389.209814 193.543326 
L 388.944946 193.862595 
L 388.680077 194.501132 
L 388.944946 194.822914 
L 388.944946 195.780719 
L 389.739551 195.780719 
L 389.474683 195.461451 
L 388.944946 195.142182 
L 388.415209 195.461451 
L 388.415209 195.461451 
L 388.415209 195.142182 
L 388.944946 195.142182 
L 388.944946 195.461451 
L 388.415209 194.822914 
L 388.15034 194.181863 
L 388.680077 193.543326 
L 389.474683 193.543326 
L 389.739551 193.862595 
L 388.944946 194.181863 
L 387.885472 195.461451 
L 387.620603 196.419256 
L 388.15034 197.057793 
L 388.680077 196.738525 
L 389.209814 195.780719 
L 389.739551 195.461451 
L 389.209814 195.780719 
L 388.415209 195.780719 
L 387.885472 195.461451 
L 387.355735 196.099988 
L 387.355735 196.419256 
L 387.620603 196.738525 
L 387.885472 196.099988 
L 388.15034 196.099988 
L 388.680077 196.419256 
L 389.209814 196.419256 
L 388.944946 196.738525 
L 388.680077 196.738525 
L 388.415209 196.099988 
L 388.680077 195.780719 
L 388.944946 195.780719 
L 388.15034 195.780719 
L 387.885472 196.099988 
L 388.415209 196.419256 
L 388.944946 196.099988 
L 388.680077 196.419256 
L 387.885472 197.057793 
L 387.090867 197.057793 
L 386.825998 196.419256 
L 386.825998 196.419256 
L 388.680077 196.419256 
L 388.15034 196.419256 
L 387.355735 196.738525 
L 387.090867 197.057793 
L 387.090867 196.738525 
L 386.56113 196.419256 
L 386.56113 196.419256 
L 386.825998 196.738525 
L 387.355735 197.057793 
L 387.620603 196.419256 
L 387.620603 195.780719 
L 387.090867 195.461451 
L 386.825998 195.142182 
L 387.090867 195.142182 
L 386.825998 195.142182 
L 386.031393 196.099988 
L 386.56113 195.461451 
L 386.56113 195.142182 
L 386.296261 195.142182 
L 386.56113 195.461451 
L 386.296261 195.780719 
L 386.296261 197.057793 
L 386.56113 196.738525 
L 386.56113 196.099988 
L 386.031393 196.099988 
L 386.031393 196.099988 
L 386.031393 195.780719 
L 385.766524 195.780719 
L 385.236788 195.461451 
L 385.766524 195.780719 
L 386.296261 195.461451 
L 386.825998 194.501132 
L 386.56113 193.862595 
L 386.296261 193.862595 
L 386.031393 194.181863 
L 386.296261 194.822914 
L 385.766524 196.419256 
L 385.236788 196.099988 
L 384.707051 195.142182 
L 384.707051 195.142182 
L 384.707051 195.461451 
L 385.236788 195.461451 
L 385.236788 195.461451 
L 385.236788 195.142182 
L 385.501656 195.142182 
L 385.501656 195.461451 
L 384.707051 195.461451 
L 384.442182 194.822914 
L 384.707051 194.501132 
L 385.236788 195.142182 
L 385.766524 196.419256 
L 385.501656 196.099988 
L 385.236788 196.099988 
L 384.971919 195.461451 
L 384.707051 195.142182 
L 377.283671 195.142182 
L 374.370118 194.822914 
L 368.539481 193.543326 
L 365.09266 192.585521 
L 360.589896 191.94447 
L 355.288996 191.305933 
L 349.458359 190.986665 
L 343.362853 190.986665 
L 325.076336 192.904789 
L 318.98083 192.266253 
L 312.885324 191.94447 
L 306.52495 192.585521 
L 299.899707 193.862595 
L 293.535802 194.181863 
L 287.440296 193.862595 
L 281.609659 193.862595 
L 276.31229 194.501132 
L 271.276258 194.501132 
L 266.240226 195.142182 
L 260.939326 196.419256 
L 255.108688 197.379575 
L 250.072656 198.018112 
L 240.533861 198.018112 
L 234.968092 198.975918 
L 229.402323 200.574774 
L 224.366291 201.532579 
L 214.029359 201.532579 
L 209.258195 202.812167 
L 205.0203 204.08924 
L 197.332052 206.007365 
L 194.418499 206.96517 
L 191.236547 207.603707 
L 188.058125 208.564026 
L 182.757225 211.120688 
L 181.432883 211.439956 
L 180.373409 212.078493 
L 178.25093 212.078493 
L 177.191456 213.038812 
L 176.926588 213.996618 
L 176.661719 214.315886 
L 176.396851 213.996618 
L 176.661719 214.315886 
L 176.396851 214.635154 
L 176.131982 215.273691 
L 175.867114 215.273691 
L 176.661719 214.315886 
L 177.721193 213.358081 
L 178.780667 213.996618 
L 179.310404 215.273691 
L 179.575272 216.553279 
L 179.843672 216.872547 
L 179.843672 216.872547 
L 178.780667 218.152135 
L 178.25093 218.471403 
L 177.721193 218.152135 
L 177.721193 217.511084 
L 177.986061 217.830353 
L 177.986061 218.152135 
L 177.191456 218.152135 
L 176.926588 217.830353 
L 177.456325 217.830353 
L 178.25093 218.152135 
L 178.25093 217.830353 
L 178.25093 218.471403 
L 177.721193 219.429209 
L 177.191456 220.067746 
L 176.396851 219.10994 
L 177.986061 219.10994 
L 177.986061 218.471403 
L 177.191456 218.471403 
L 176.926588 218.152135 
L 177.191456 218.152135 
L 176.661719 218.152135 
L 176.396851 219.429209 
L 176.131982 219.10994 
L 176.661719 218.471403 
L 176.661719 218.152135 
L 176.396851 218.152135 
L 176.131982 218.471403 
L 175.602245 218.790672 
L 175.337377 219.10994 
L 175.337377 219.748477 
L 175.602245 219.748477 
L 175.867114 219.10994 
L 175.867114 217.830353 
L 176.131982 218.790672 
L 176.131982 220.067746 
L 176.131982 220.067746 
L 175.602245 220.067746 
L 175.602245 220.387014 
L 176.131982 220.067746 
L 176.396851 219.748477 
L 176.131982 219.748477 
L 175.867114 220.067746 
L 175.337377 220.067746 
L 174.80764 219.748477 
L 174.80764 218.152135 
L 175.337377 218.152135 
L 174.542772 218.152135 
L 174.277903 219.10994 
L 174.277903 220.067746 
L 174.542772 220.387014 
L 174.542772 219.10994 
L 174.80764 218.790672 
L 175.072509 218.790672 
L 175.072509 218.790672 
L 175.072509 218.471403 
L 174.542772 218.152135 
L 174.277903 218.152135 
L 174.277903 218.790672 
L 174.80764 220.708796 
L 174.80764 220.708796 
L 175.072509 220.067746 
L 174.80764 220.067746 
L 174.80764 220.387014 
L 174.80764 220.387014 
L 174.542772 220.387014 
L 175.072509 220.387014 
L 174.80764 220.387014 
L 174.80764 220.708796 
L 174.542772 220.387014 
L 174.277903 219.748477 
L 175.602245 219.748477 
L 175.602245 220.067746 
L 174.542772 221.347333 
L 175.337377 220.387014 
L 176.131982 220.067746 
L 176.131982 220.708796 
L 175.602245 221.028065 
L 174.542772 221.028065 
L 174.277903 221.666602 
L 174.80764 221.98587 
L 175.337377 221.347333 
L 175.072509 221.028065 
L 174.80764 221.028065 
L 175.072509 221.028065 
L 175.602245 221.666602 
L 175.602245 221.666602 
L 176.131982 221.028065 
L 175.602245 221.666602 
L 175.072509 221.666602 
L 175.867114 220.708796 
L 176.131982 220.067746 
L 175.602245 219.748477 
L 174.80764 219.748477 
L 175.072509 220.387014 
L 175.072509 220.708796 
L 175.072509 220.067746 
L 175.337377 219.429209 
L 175.602245 219.429209 
L 175.602245 219.748477 
L 175.867114 220.067746 
L 176.131982 221.028065 
L 176.131982 221.666602 
L 175.867114 221.666602 
L 175.072509 220.067746 
L 175.337377 220.067746 
L 175.602245 220.387014 
L 175.602245 221.028065 
L 175.072509 221.666602 
L 175.072509 221.666602 
L 175.072509 219.748477 
L 175.072509 221.028065 
L 175.337377 221.347333 
L 175.867114 221.028065 
L 175.602245 220.708796 
L 175.337377 220.708796 
L 174.80764 220.067746 
L 174.542772 220.067746 
L 174.80764 220.387014 
L 174.80764 220.387014 
L 175.072509 220.387014 
L 175.602245 220.067746 
L 175.867114 219.748477 
L 175.337377 219.748477 
L 174.80764 220.067746 
L 174.542772 220.067746 
L 174.80764 219.748477 
L 175.337377 220.067746 
L 175.602245 220.067746 
L 175.337377 219.748477 
L 174.80764 219.429209 
L 174.80764 219.748477 
L 174.542772 220.708796 
L 174.80764 221.347333 
L 175.337377 221.98587 
L 175.337377 221.347333 
L 175.602245 220.387014 
L 175.602245 220.387014 
L 175.337377 220.708796 
L 175.072509 220.708796 
L 174.80764 221.028065 
L 175.072509 220.708796 
L 175.072509 220.067746 
L 174.80764 219.748477 
L 174.542772 219.748477 
L 174.542772 221.028065 
L 174.80764 220.708796 
L 175.337377 220.387014 
L 176.131982 219.748477 
L 177.191456 219.429209 
L 179.045535 218.471403 
L 181.168014 217.511084 
L 183.022093 216.23401 
L 185.405909 214.315886 
L 192.299552 210.160368 
L 201.838347 204.727777 
L 206.609511 201.532579 
L 211.115806 198.018112 
L 220.389733 190.02886 
L 228.077981 182.039607 
L 232.051008 177.245553 
L 239.735724 167.338175 
L 247.159103 159.029654 
L 252.724872 151.040402 
L 255.903294 147.204153 
L 258.820378 144.328223 
L 261.204194 141.133025 
L 263.323142 136.977507 
L 265.445621 133.143772 
L 268.88891 126.431593 
L 270.746521 123.236395 
L 272.335732 119.721928 
L 272.6006 116.204947 
L 273.130337 113.009749 
L 274.719548 110.133819 
L 276.577158 107.577158 
L 277.371764 105.659033 
L 277.106895 103.42164 
L 276.577158 101.184247 
L 275.514153 92.237189 
L 275.782553 90.319065 
L 275.782553 86.48533 
L 276.842027 82.968349 
L 277.106895 80.73347 
L 276.577158 76.258684 
L 277.901501 71.145361 
L 278.960974 68.5887 
L 279.75558 66.989844 
L 280.020448 66.032039 
L 280.020448 64.433182 
L 280.550185 62.19579 
L 280.550185 60.599447 
L 280.020448 59.000591 
L 280.020448 57.404249 
L 281.079922 55.486125 
L 281.079922 54.847588 
L 280.020448 54.847588 
L 278.960974 53.568 
L 278.431237 53.568 
L 277.901501 54.525805 
L 277.106895 55.486125 
L 276.047421 56.124661 
L 275.249285 56.763198 
L 274.719548 58.042786 
L 274.719548 59.31986 
L 274.984416 59.96091 
L 274.719548 59.96091 
L 273.924942 60.280179 
L 273.924942 60.918716 
L 274.189811 61.237984 
L 273.924942 61.237984 
L 273.130337 60.918716 
L 272.335732 60.280179 
L 271.805995 59.639128 
L 271.541126 59.000591 
L 272.070863 59.000591 
L 272.865469 59.31986 
L 272.865469 59.96091 
L 272.6006 60.280179 
L 272.335732 59.96091 
L 272.070863 59.31986 
L 272.070863 59.31986 
L 272.070863 60.599447 
L 272.335732 60.918716 
L 271.805995 60.280179 
L 271.541126 60.599447 
L 271.541126 62.19579 
L 271.276258 61.876521 
L 271.011389 61.237984 
L 270.481653 60.599447 
L 270.216784 60.599447 
L 269.951916 60.918716 
L 269.951916 60.599447 
L 269.951916 60.599447 
L 269.418647 61.237984 
L 269.153779 61.237984 
L 268.88891 60.918716 
L 268.88891 60.280179 
L 269.153779 60.599447 
L 269.153779 60.918716 
L 269.418647 61.237984 
L 269.951916 61.237984 
L 270.216784 60.918716 
L 269.683516 60.918716 
L 269.153779 61.237984 
L 268.88891 61.237984 
L 268.624042 60.599447 
L 268.094305 59.96091 
L 267.829437 60.280179 
L 267.564568 61.237984 
L 267.829437 62.517572 
L 268.359173 63.156109 
L 268.88891 61.876521 
L 268.624042 62.19579 
L 268.094305 63.156109 
L 267.564568 63.156109 
L 267.034831 60.918716 
L 266.240226 61.237984 
L 266.240226 62.19579 
L 266.505094 62.83684 
L 266.505094 62.19579 
L 266.505094 62.517572 
L 266.769963 62.83684 
L 266.769963 62.19579 
L 265.975358 62.19579 
L 265.445621 62.83684 
L 265.710489 63.156109 
L 265.710489 63.156109 
" style="fill:none;stroke:#1f77b4;stroke-linecap:square;stroke-width:1.5;"/>
   </g>
   <g id="matplotlib.axis_1">
    <g id="xtick_1">
     <g id="line2d_2">
      <defs>
       <path d="M 0 0 
L 0 3.5 
" id="m161a2ca2ce" style="stroke:#000000;stroke-width:0.8;"/>
      </defs>
      <g>
       <use style="stroke:#000000;stroke-width:0.8;" x="95.357703" xlink:href="#m161a2ca2ce" y="307.584"/>
      </g>
     </g>
     <g id="text_1">
      <!-- −600 -->
      <defs>
       <path d="M 10.59375 35.5 
L 73.1875 35.5 
L 73.1875 27.203125 
L 10.59375 27.203125 
z
" id="DejaVuSans-8722"/>
       <path d="M 33.015625 40.375 
Q 26.375 40.375 22.484375 35.828125 
Q 18.609375 31.296875 18.609375 23.390625 
Q 18.609375 15.53125 22.484375 10.953125 
Q 26.375 6.390625 33.015625 6.390625 
Q 39.65625 6.390625 43.53125 10.953125 
Q 47.40625 15.53125 47.40625 23.390625 
Q 47.40625 31.296875 43.53125 35.828125 
Q 39.65625 40.375 33.015625 40.375 
z
M 52.59375 71.296875 
L 52.59375 62.3125 
Q 48.875 64.0625 45.09375 64.984375 
Q 41.3125 65.921875 37.59375 65.921875 
Q 27.828125 65.921875 22.671875 59.328125 
Q 17.53125 52.734375 16.796875 39.40625 
Q 19.671875 43.65625 24.015625 45.921875 
Q 28.375 48.1875 33.59375 48.1875 
Q 44.578125 48.1875 50.953125 41.515625 
Q 57.328125 34.859375 57.328125 23.390625 
Q 57.328125 12.15625 50.6875 5.359375 
Q 44.046875 -1.421875 33.015625 -1.421875 
Q 20.359375 -1.421875 13.671875 8.265625 
Q 6.984375 17.96875 6.984375 36.375 
Q 6.984375 53.65625 15.1875 63.9375 
Q 23.390625 74.21875 37.203125 74.21875 
Q 40.921875 74.21875 44.703125 73.484375 
Q 48.484375 72.75 52.59375 71.296875 
z
" id="DejaVuSans-54"/>
       <path d="M 31.78125 66.40625 
Q 24.171875 66.40625 20.328125 58.90625 
Q 16.5 51.421875 16.5 36.375 
Q 16.5 21.390625 20.328125 13.890625 
Q 24.171875 6.390625 31.78125 6.390625 
Q 39.453125 6.390625 43.28125 13.890625 
Q 47.125 21.390625 47.125 36.375 
Q 47.125 51.421875 43.28125 58.90625 
Q 39.453125 66.40625 31.78125 66.40625 
z
M 31.78125 74.21875 
Q 44.046875 74.21875 50.515625 64.515625 
Q 56.984375 54.828125 56.984375 36.375 
Q 56.984375 17.96875 50.515625 8.265625 
Q 44.046875 -1.421875 31.78125 -1.421875 
Q 19.53125 -1.421875 13.0625 8.265625 
Q 6.59375 17.96875 6.59375 36.375 
Q 6.59375 54.828125 13.0625 64.515625 
Q 19.53125 74.21875 31.78125 74.21875 
z
" id="DejaVuSans-48"/>
      </defs>
      <g transform="translate(81.624109 322.182437)scale(0.1 -0.1)">
       <use xlink:href="#DejaVuSans-8722"/>
       <use x="83.789062" xlink:href="#DejaVuSans-54"/>
       <use x="147.412109" xlink:href="#DejaVuSans-48"/>
       <use x="211.035156" xlink:href="#DejaVuSans-48"/>
      </g>
     </g>
    </g>
    <g id="xtick_2">
     <g id="line2d_3">
      <g>
       <use style="stroke:#000000;stroke-width:0.8;" x="165.989287" xlink:href="#m161a2ca2ce" y="307.584"/>
      </g>
     </g>
     <g id="text_2">
      <!-- −400 -->
      <defs>
       <path d="M 37.796875 64.3125 
L 12.890625 25.390625 
L 37.796875 25.390625 
z
M 35.203125 72.90625 
L 47.609375 72.90625 
L 47.609375 25.390625 
L 58.015625 25.390625 
L 58.015625 17.1875 
L 47.609375 17.1875 
L 47.609375 0 
L 37.796875 0 
L 37.796875 17.1875 
L 4.890625 17.1875 
L 4.890625 26.703125 
z
" id="DejaVuSans-52"/>
      </defs>
      <g transform="translate(152.255693 322.182437)scale(0.1 -0.1)">
       <use xlink:href="#DejaVuSans-8722"/>
       <use x="83.789062" xlink:href="#DejaVuSans-52"/>
       <use x="147.412109" xlink:href="#DejaVuSans-48"/>
       <use x="211.035156" xlink:href="#DejaVuSans-48"/>
      </g>
     </g>
    </g>
    <g id="xtick_3">
     <g id="line2d_4">
      <g>
       <use style="stroke:#000000;stroke-width:0.8;" x="236.620871" xlink:href="#m161a2ca2ce" y="307.584"/>
      </g>
     </g>
     <g id="text_3">
      <!-- −200 -->
      <defs>
       <path d="M 19.1875 8.296875 
L 53.609375 8.296875 
L 53.609375 0 
L 7.328125 0 
L 7.328125 8.296875 
Q 12.9375 14.109375 22.625 23.890625 
Q 32.328125 33.6875 34.8125 36.53125 
Q 39.546875 41.84375 41.421875 45.53125 
Q 43.3125 49.21875 43.3125 52.78125 
Q 43.3125 58.59375 39.234375 62.25 
Q 35.15625 65.921875 28.609375 65.921875 
Q 23.96875 65.921875 18.8125 64.3125 
Q 13.671875 62.703125 7.8125 59.421875 
L 7.8125 69.390625 
Q 13.765625 71.78125 18.9375 73 
Q 24.125 74.21875 28.421875 74.21875 
Q 39.75 74.21875 46.484375 68.546875 
Q 53.21875 62.890625 53.21875 53.421875 
Q 53.21875 48.921875 51.53125 44.890625 
Q 49.859375 40.875 45.40625 35.40625 
Q 44.1875 33.984375 37.640625 27.21875 
Q 31.109375 20.453125 19.1875 8.296875 
z
" id="DejaVuSans-50"/>
      </defs>
      <g transform="translate(222.887277 322.182437)scale(0.1 -0.1)">
       <use xlink:href="#DejaVuSans-8722"/>
       <use x="83.789062" xlink:href="#DejaVuSans-50"/>
       <use x="147.412109" xlink:href="#DejaVuSans-48"/>
       <use x="211.035156" xlink:href="#DejaVuSans-48"/>
      </g>
     </g>
    </g>
    <g id="xtick_4">
     <g id="line2d_5">
      <g>
       <use style="stroke:#000000;stroke-width:0.8;" x="307.252455" xlink:href="#m161a2ca2ce" y="307.584"/>
      </g>
     </g>
     <g id="text_4">
      <!-- 0 -->
      <g transform="translate(304.071205 322.182437)scale(0.1 -0.1)">
       <use xlink:href="#DejaVuSans-48"/>
      </g>
     </g>
    </g>
    <g id="xtick_5">
     <g id="line2d_6">
      <g>
       <use style="stroke:#000000;stroke-width:0.8;" x="377.88404" xlink:href="#m161a2ca2ce" y="307.584"/>
      </g>
     </g>
     <g id="text_5">
      <!-- 200 -->
      <g transform="translate(368.34029 322.182437)scale(0.1 -0.1)">
       <use xlink:href="#DejaVuSans-50"/>
       <use x="63.623047" xlink:href="#DejaVuSans-48"/>
       <use x="127.246094" xlink:href="#DejaVuSans-48"/>
      </g>
     </g>
    </g>
   </g>
   <g id="matplotlib.axis_2">
    <g id="ytick_1">
     <g id="line2d_7">
      <defs>
       <path d="M 0 0 
L -3.5 0 
" id="m495daff4f4" style="stroke:#000000;stroke-width:0.8;"/>
      </defs>
      <g>
       <use style="stroke:#000000;stroke-width:0.8;" x="57.6" xlink:href="#m495daff4f4" y="304.168582"/>
      </g>
     </g>
     <g id="text_6">
      <!-- −600 -->
      <g transform="translate(23.132812 307.967801)scale(0.1 -0.1)">
       <use xlink:href="#DejaVuSans-8722"/>
       <use x="83.789062" xlink:href="#DejaVuSans-54"/>
       <use x="147.412109" xlink:href="#DejaVuSans-48"/>
       <use x="211.035156" xlink:href="#DejaVuSans-48"/>
      </g>
     </g>
    </g>
    <g id="ytick_2">
     <g id="line2d_8">
      <g>
       <use style="stroke:#000000;stroke-width:0.8;" x="57.6" xlink:href="#m495daff4f4" y="253.890088"/>
      </g>
     </g>
     <g id="text_7">
      <!-- −400 -->
      <g transform="translate(23.132812 257.689307)scale(0.1 -0.1)">
       <use xlink:href="#DejaVuSans-8722"/>
       <use x="83.789062" xlink:href="#DejaVuSans-52"/>
       <use x="147.412109" xlink:href="#DejaVuSans-48"/>
       <use x="211.035156" xlink:href="#DejaVuSans-48"/>
      </g>
     </g>
    </g>
    <g id="ytick_3">
     <g id="line2d_9">
      <g>
       <use style="stroke:#000000;stroke-width:0.8;" x="57.6" xlink:href="#m495daff4f4" y="203.611595"/>
      </g>
     </g>
     <g id="text_8">
      <!-- −200 -->
      <g transform="translate(23.132812 207.410813)scale(0.1 -0.1)">
       <use xlink:href="#DejaVuSans-8722"/>
       <use x="83.789062" xlink:href="#DejaVuSans-50"/>
       <use x="147.412109" xlink:href="#DejaVuSans-48"/>
       <use x="211.035156" xlink:href="#DejaVuSans-48"/>
      </g>
     </g>
    </g>
    <g id="ytick_4">
     <g id="line2d_10">
      <g>
       <use style="stroke:#000000;stroke-width:0.8;" x="57.6" xlink:href="#m495daff4f4" y="153.333101"/>
      </g>
     </g>
     <g id="text_9">
      <!-- 0 -->
      <g transform="translate(44.2375 157.13232)scale(0.1 -0.1)">
       <use xlink:href="#DejaVuSans-48"/>
      </g>
     </g>
    </g>
    <g id="ytick_5">
     <g id="line2d_11">
      <g>
       <use style="stroke:#000000;stroke-width:0.8;" x="57.6" xlink:href="#m495daff4f4" y="103.054607"/>
      </g>
     </g>
     <g id="text_10">
      <!-- 200 -->
      <g transform="translate(31.5125 106.853826)scale(0.1 -0.1)">
       <use xlink:href="#DejaVuSans-50"/>
       <use x="63.623047" xlink:href="#DejaVuSans-48"/>
       <use x="127.246094" xlink:href="#DejaVuSans-48"/>
      </g>
     </g>
    </g>
    <g id="ytick_6">
     <g id="line2d_12">
      <g>
       <use style="stroke:#000000;stroke-width:0.8;" x="57.6" xlink:href="#m495daff4f4" y="52.776114"/>
      </g>
     </g>
     <g id="text_11">
      <!-- 400 -->
      <g transform="translate(31.5125 56.575332)scale(0.1 -0.1)">
       <use xlink:href="#DejaVuSans-52"/>
       <use x="63.623047" xlink:href="#DejaVuSans-48"/>
       <use x="127.246094" xlink:href="#DejaVuSans-48"/>
      </g>
     </g>
    </g>
   </g>
   <g id="line2d_13">
    <path clip-path="url(#p97eae405c8)" d="M 76.258977 288.624531 
L 317.402181 194.394701 
L 387.645636 193.416644 
L 177.756345 217.189442 
L 176.588873 219.731079 
L 272.255603 61.647778 
" style="fill:none;stroke:#ff0000;stroke-linecap:square;stroke-width:0.5;"/>
   </g>
   <g id="patch_3">
    <path d="M 57.6 307.584 
L 57.6 41.472 
" style="fill:none;stroke:#000000;stroke-linecap:square;stroke-linejoin:miter;stroke-width:0.8;"/>
   </g>
   <g id="patch_4">
    <path d="M 414.72 307.584 
L 414.72 41.472 
" style="fill:none;stroke:#000000;stroke-linecap:square;stroke-linejoin:miter;stroke-width:0.8;"/>
   </g>
   <g id="patch_5">
    <path d="M 57.6 307.584 
L 414.72 307.584 
" style="fill:none;stroke:#000000;stroke-linecap:square;stroke-linejoin:miter;stroke-width:0.8;"/>
   </g>
   <g id="patch_6">
    <path d="M 57.6 41.472 
L 414.72 41.472 
" style="fill:none;stroke:#000000;stroke-linecap:square;stroke-linejoin:miter;stroke-width:0.8;"/>
   </g>
   <g id="PathCollection_1">
    <defs>
     <path d="M 0 2.738613 
C 0.726289 2.738613 1.422928 2.450055 1.936492 1.936492 
C 2.450055 1.422928 2.738613 0.726289 2.738613 0 
C 2.738613 -0.726289 2.450055 -1.422928 1.936492 -1.936492 
C 1.422928 -2.450055 0.726289 -2.738613 0 -2.738613 
C -0.726289 -2.738613 -1.422928 -2.450055 -1.936492 -1.936492 
C -2.450055 -1.422928 -2.738613 -0.726289 -2.738613 0 
C -2.738613 0.726289 -2.450055 1.422928 -1.936492 1.936492 
C -1.422928 2.450055 -0.726289 2.738613 0 2.738613 
z
" id="m37d575a9ab" style="stroke:#ff0000;"/>
    </defs>
    <g clip-path="url(#p97eae405c8)">
     <use style="fill:#ff0000;stroke:#ff0000;" x="76.258977" xlink:href="#m37d575a9ab" y="288.624531"/>
     <use style="fill:#ff0000;stroke:#ff0000;" x="317.402181" xlink:href="#m37d575a9ab" y="194.394701"/>
     <use style="fill:#ff0000;stroke:#ff0000;" x="387.645636" xlink:href="#m37d575a9ab" y="193.416644"/>
     <use style="fill:#ff0000;stroke:#ff0000;" x="177.756345" xlink:href="#m37d575a9ab" y="217.189442"/>
     <use style="fill:#ff0000;stroke:#ff0000;" x="176.588873" xlink:href="#m37d575a9ab" y="219.731079"/>
     <use style="fill:#ff0000;stroke:#ff0000;" x="272.255603" xlink:href="#m37d575a9ab" y="61.647778"/>
    </g>
   </g>
   <g id="text_12">
    <!-- (114) Subject: s3, Known = False, Degree = 1, Duration = 0.1 -->
    <defs>
     <path d="M 31 75.875 
Q 24.46875 64.65625 21.28125 53.65625 
Q 18.109375 42.671875 18.109375 31.390625 
Q 18.109375 20.125 21.3125 9.0625 
Q 24.515625 -2 31 -13.1875 
L 23.1875 -13.1875 
Q 15.875 -1.703125 12.234375 9.375 
Q 8.59375 20.453125 8.59375 31.390625 
Q 8.59375 42.28125 12.203125 53.3125 
Q 15.828125 64.359375 23.1875 75.875 
z
" id="DejaVuSans-40"/>
     <path d="M 12.40625 8.296875 
L 28.515625 8.296875 
L 28.515625 63.921875 
L 10.984375 60.40625 
L 10.984375 69.390625 
L 28.421875 72.90625 
L 38.28125 72.90625 
L 38.28125 8.296875 
L 54.390625 8.296875 
L 54.390625 0 
L 12.40625 0 
z
" id="DejaVuSans-49"/>
     <path d="M 8.015625 75.875 
L 15.828125 75.875 
Q 23.140625 64.359375 26.78125 53.3125 
Q 30.421875 42.28125 30.421875 31.390625 
Q 30.421875 20.453125 26.78125 9.375 
Q 23.140625 -1.703125 15.828125 -13.1875 
L 8.015625 -13.1875 
Q 14.5 -2 17.703125 9.0625 
Q 20.90625 20.125 20.90625 31.390625 
Q 20.90625 42.671875 17.703125 53.65625 
Q 14.5 64.65625 8.015625 75.875 
z
" id="DejaVuSans-41"/>
     <path id="DejaVuSans-32"/>
     <path d="M 53.515625 70.515625 
L 53.515625 60.890625 
Q 47.90625 63.578125 42.921875 64.890625 
Q 37.9375 66.21875 33.296875 66.21875 
Q 25.25 66.21875 20.875 63.09375 
Q 16.5 59.96875 16.5 54.203125 
Q 16.5 49.359375 19.40625 46.890625 
Q 22.3125 44.4375 30.421875 42.921875 
L 36.375 41.703125 
Q 47.40625 39.59375 52.65625 34.296875 
Q 57.90625 29 57.90625 20.125 
Q 57.90625 9.515625 50.796875 4.046875 
Q 43.703125 -1.421875 29.984375 -1.421875 
Q 24.8125 -1.421875 18.96875 -0.25 
Q 13.140625 0.921875 6.890625 3.21875 
L 6.890625 13.375 
Q 12.890625 10.015625 18.65625 8.296875 
Q 24.421875 6.59375 29.984375 6.59375 
Q 38.421875 6.59375 43.015625 9.90625 
Q 47.609375 13.234375 47.609375 19.390625 
Q 47.609375 24.75 44.3125 27.78125 
Q 41.015625 30.8125 33.5 32.328125 
L 27.484375 33.5 
Q 16.453125 35.6875 11.515625 40.375 
Q 6.59375 45.0625 6.59375 53.421875 
Q 6.59375 63.09375 13.40625 68.65625 
Q 20.21875 74.21875 32.171875 74.21875 
Q 37.3125 74.21875 42.625 73.28125 
Q 47.953125 72.359375 53.515625 70.515625 
z
" id="DejaVuSans-83"/>
     <path d="M 8.5 21.578125 
L 8.5 54.6875 
L 17.484375 54.6875 
L 17.484375 21.921875 
Q 17.484375 14.15625 20.5 10.265625 
Q 23.53125 6.390625 29.59375 6.390625 
Q 36.859375 6.390625 41.078125 11.03125 
Q 45.3125 15.671875 45.3125 23.6875 
L 45.3125 54.6875 
L 54.296875 54.6875 
L 54.296875 0 
L 45.3125 0 
L 45.3125 8.40625 
Q 42.046875 3.421875 37.71875 1 
Q 33.40625 -1.421875 27.6875 -1.421875 
Q 18.265625 -1.421875 13.375 4.4375 
Q 8.5 10.296875 8.5 21.578125 
z
M 31.109375 56 
z
" id="DejaVuSans-117"/>
     <path d="M 48.6875 27.296875 
Q 48.6875 37.203125 44.609375 42.84375 
Q 40.53125 48.484375 33.40625 48.484375 
Q 26.265625 48.484375 22.1875 42.84375 
Q 18.109375 37.203125 18.109375 27.296875 
Q 18.109375 17.390625 22.1875 11.75 
Q 26.265625 6.109375 33.40625 6.109375 
Q 40.53125 6.109375 44.609375 11.75 
Q 48.6875 17.390625 48.6875 27.296875 
z
M 18.109375 46.390625 
Q 20.953125 51.265625 25.265625 53.625 
Q 29.59375 56 35.59375 56 
Q 45.5625 56 51.78125 48.09375 
Q 58.015625 40.1875 58.015625 27.296875 
Q 58.015625 14.40625 51.78125 6.484375 
Q 45.5625 -1.421875 35.59375 -1.421875 
Q 29.59375 -1.421875 25.265625 0.953125 
Q 20.953125 3.328125 18.109375 8.203125 
L 18.109375 0 
L 9.078125 0 
L 9.078125 75.984375 
L 18.109375 75.984375 
z
" id="DejaVuSans-98"/>
     <path d="M 9.421875 54.6875 
L 18.40625 54.6875 
L 18.40625 -0.984375 
Q 18.40625 -11.421875 14.421875 -16.109375 
Q 10.453125 -20.796875 1.609375 -20.796875 
L -1.8125 -20.796875 
L -1.8125 -13.1875 
L 0.59375 -13.1875 
Q 5.71875 -13.1875 7.5625 -10.8125 
Q 9.421875 -8.453125 9.421875 -0.984375 
z
M 9.421875 75.984375 
L 18.40625 75.984375 
L 18.40625 64.59375 
L 9.421875 64.59375 
z
" id="DejaVuSans-106"/>
     <path d="M 56.203125 29.59375 
L 56.203125 25.203125 
L 14.890625 25.203125 
Q 15.484375 15.921875 20.484375 11.0625 
Q 25.484375 6.203125 34.421875 6.203125 
Q 39.59375 6.203125 44.453125 7.46875 
Q 49.3125 8.734375 54.109375 11.28125 
L 54.109375 2.78125 
Q 49.265625 0.734375 44.1875 -0.34375 
Q 39.109375 -1.421875 33.890625 -1.421875 
Q 20.796875 -1.421875 13.15625 6.1875 
Q 5.515625 13.8125 5.515625 26.8125 
Q 5.515625 40.234375 12.765625 48.109375 
Q 20.015625 56 32.328125 56 
Q 43.359375 56 49.78125 48.890625 
Q 56.203125 41.796875 56.203125 29.59375 
z
M 47.21875 32.234375 
Q 47.125 39.59375 43.09375 43.984375 
Q 39.0625 48.390625 32.421875 48.390625 
Q 24.90625 48.390625 20.390625 44.140625 
Q 15.875 39.890625 15.1875 32.171875 
z
" id="DejaVuSans-101"/>
     <path d="M 48.78125 52.59375 
L 48.78125 44.1875 
Q 44.96875 46.296875 41.140625 47.34375 
Q 37.3125 48.390625 33.40625 48.390625 
Q 24.65625 48.390625 19.8125 42.84375 
Q 14.984375 37.3125 14.984375 27.296875 
Q 14.984375 17.28125 19.8125 11.734375 
Q 24.65625 6.203125 33.40625 6.203125 
Q 37.3125 6.203125 41.140625 7.25 
Q 44.96875 8.296875 48.78125 10.40625 
L 48.78125 2.09375 
Q 45.015625 0.34375 40.984375 -0.53125 
Q 36.96875 -1.421875 32.421875 -1.421875 
Q 20.0625 -1.421875 12.78125 6.34375 
Q 5.515625 14.109375 5.515625 27.296875 
Q 5.515625 40.671875 12.859375 48.328125 
Q 20.21875 56 33.015625 56 
Q 37.15625 56 41.109375 55.140625 
Q 45.0625 54.296875 48.78125 52.59375 
z
" id="DejaVuSans-99"/>
     <path d="M 18.3125 70.21875 
L 18.3125 54.6875 
L 36.8125 54.6875 
L 36.8125 47.703125 
L 18.3125 47.703125 
L 18.3125 18.015625 
Q 18.3125 11.328125 20.140625 9.421875 
Q 21.96875 7.515625 27.59375 7.515625 
L 36.8125 7.515625 
L 36.8125 0 
L 27.59375 0 
Q 17.1875 0 13.234375 3.875 
Q 9.28125 7.765625 9.28125 18.015625 
L 9.28125 47.703125 
L 2.6875 47.703125 
L 2.6875 54.6875 
L 9.28125 54.6875 
L 9.28125 70.21875 
z
" id="DejaVuSans-116"/>
     <path d="M 11.71875 12.40625 
L 22.015625 12.40625 
L 22.015625 0 
L 11.71875 0 
z
M 11.71875 51.703125 
L 22.015625 51.703125 
L 22.015625 39.3125 
L 11.71875 39.3125 
z
" id="DejaVuSans-58"/>
     <path d="M 44.28125 53.078125 
L 44.28125 44.578125 
Q 40.484375 46.53125 36.375 47.5 
Q 32.28125 48.484375 27.875 48.484375 
Q 21.1875 48.484375 17.84375 46.4375 
Q 14.5 44.390625 14.5 40.28125 
Q 14.5 37.15625 16.890625 35.375 
Q 19.28125 33.59375 26.515625 31.984375 
L 29.59375 31.296875 
Q 39.15625 29.25 43.1875 25.515625 
Q 47.21875 21.78125 47.21875 15.09375 
Q 47.21875 7.46875 41.1875 3.015625 
Q 35.15625 -1.421875 24.609375 -1.421875 
Q 20.21875 -1.421875 15.453125 -0.5625 
Q 10.6875 0.296875 5.421875 2 
L 5.421875 11.28125 
Q 10.40625 8.6875 15.234375 7.390625 
Q 20.0625 6.109375 24.8125 6.109375 
Q 31.15625 6.109375 34.5625 8.28125 
Q 37.984375 10.453125 37.984375 14.40625 
Q 37.984375 18.0625 35.515625 20.015625 
Q 33.0625 21.96875 24.703125 23.78125 
L 21.578125 24.515625 
Q 13.234375 26.265625 9.515625 29.90625 
Q 5.8125 33.546875 5.8125 39.890625 
Q 5.8125 47.609375 11.28125 51.796875 
Q 16.75 56 26.8125 56 
Q 31.78125 56 36.171875 55.265625 
Q 40.578125 54.546875 44.28125 53.078125 
z
" id="DejaVuSans-115"/>
     <path d="M 40.578125 39.3125 
Q 47.65625 37.796875 51.625 33 
Q 55.609375 28.21875 55.609375 21.1875 
Q 55.609375 10.40625 48.1875 4.484375 
Q 40.765625 -1.421875 27.09375 -1.421875 
Q 22.515625 -1.421875 17.65625 -0.515625 
Q 12.796875 0.390625 7.625 2.203125 
L 7.625 11.71875 
Q 11.71875 9.328125 16.59375 8.109375 
Q 21.484375 6.890625 26.8125 6.890625 
Q 36.078125 6.890625 40.9375 10.546875 
Q 45.796875 14.203125 45.796875 21.1875 
Q 45.796875 27.640625 41.28125 31.265625 
Q 36.765625 34.90625 28.71875 34.90625 
L 20.21875 34.90625 
L 20.21875 43.015625 
L 29.109375 43.015625 
Q 36.375 43.015625 40.234375 45.921875 
Q 44.09375 48.828125 44.09375 54.296875 
Q 44.09375 59.90625 40.109375 62.90625 
Q 36.140625 65.921875 28.71875 65.921875 
Q 24.65625 65.921875 20.015625 65.03125 
Q 15.375 64.15625 9.8125 62.3125 
L 9.8125 71.09375 
Q 15.4375 72.65625 20.34375 73.4375 
Q 25.25 74.21875 29.59375 74.21875 
Q 40.828125 74.21875 47.359375 69.109375 
Q 53.90625 64.015625 53.90625 55.328125 
Q 53.90625 49.265625 50.4375 45.09375 
Q 46.96875 40.921875 40.578125 39.3125 
z
" id="DejaVuSans-51"/>
     <path d="M 11.71875 12.40625 
L 22.015625 12.40625 
L 22.015625 4 
L 14.015625 -11.625 
L 7.71875 -11.625 
L 11.71875 4 
z
" id="DejaVuSans-44"/>
     <path d="M 9.8125 72.90625 
L 19.671875 72.90625 
L 19.671875 42.09375 
L 52.390625 72.90625 
L 65.09375 72.90625 
L 28.90625 38.921875 
L 67.671875 0 
L 54.6875 0 
L 19.671875 35.109375 
L 19.671875 0 
L 9.8125 0 
z
" id="DejaVuSans-75"/>
     <path d="M 54.890625 33.015625 
L 54.890625 0 
L 45.90625 0 
L 45.90625 32.71875 
Q 45.90625 40.484375 42.875 44.328125 
Q 39.84375 48.1875 33.796875 48.1875 
Q 26.515625 48.1875 22.3125 43.546875 
Q 18.109375 38.921875 18.109375 30.90625 
L 18.109375 0 
L 9.078125 0 
L 9.078125 54.6875 
L 18.109375 54.6875 
L 18.109375 46.1875 
Q 21.34375 51.125 25.703125 53.5625 
Q 30.078125 56 35.796875 56 
Q 45.21875 56 50.046875 50.171875 
Q 54.890625 44.34375 54.890625 33.015625 
z
" id="DejaVuSans-110"/>
     <path d="M 30.609375 48.390625 
Q 23.390625 48.390625 19.1875 42.75 
Q 14.984375 37.109375 14.984375 27.296875 
Q 14.984375 17.484375 19.15625 11.84375 
Q 23.34375 6.203125 30.609375 6.203125 
Q 37.796875 6.203125 41.984375 11.859375 
Q 46.1875 17.53125 46.1875 27.296875 
Q 46.1875 37.015625 41.984375 42.703125 
Q 37.796875 48.390625 30.609375 48.390625 
z
M 30.609375 56 
Q 42.328125 56 49.015625 48.375 
Q 55.71875 40.765625 55.71875 27.296875 
Q 55.71875 13.875 49.015625 6.21875 
Q 42.328125 -1.421875 30.609375 -1.421875 
Q 18.84375 -1.421875 12.171875 6.21875 
Q 5.515625 13.875 5.515625 27.296875 
Q 5.515625 40.765625 12.171875 48.375 
Q 18.84375 56 30.609375 56 
z
" id="DejaVuSans-111"/>
     <path d="M 4.203125 54.6875 
L 13.1875 54.6875 
L 24.421875 12.015625 
L 35.59375 54.6875 
L 46.1875 54.6875 
L 57.421875 12.015625 
L 68.609375 54.6875 
L 77.59375 54.6875 
L 63.28125 0 
L 52.6875 0 
L 40.921875 44.828125 
L 29.109375 0 
L 18.5 0 
z
" id="DejaVuSans-119"/>
     <path d="M 10.59375 45.40625 
L 73.1875 45.40625 
L 73.1875 37.203125 
L 10.59375 37.203125 
z
M 10.59375 25.484375 
L 73.1875 25.484375 
L 73.1875 17.1875 
L 10.59375 17.1875 
z
" id="DejaVuSans-61"/>
     <path d="M 9.8125 72.90625 
L 51.703125 72.90625 
L 51.703125 64.59375 
L 19.671875 64.59375 
L 19.671875 43.109375 
L 48.578125 43.109375 
L 48.578125 34.8125 
L 19.671875 34.8125 
L 19.671875 0 
L 9.8125 0 
z
" id="DejaVuSans-70"/>
     <path d="M 34.28125 27.484375 
Q 23.390625 27.484375 19.1875 25 
Q 14.984375 22.515625 14.984375 16.5 
Q 14.984375 11.71875 18.140625 8.90625 
Q 21.296875 6.109375 26.703125 6.109375 
Q 34.1875 6.109375 38.703125 11.40625 
Q 43.21875 16.703125 43.21875 25.484375 
L 43.21875 27.484375 
z
M 52.203125 31.203125 
L 52.203125 0 
L 43.21875 0 
L 43.21875 8.296875 
Q 40.140625 3.328125 35.546875 0.953125 
Q 30.953125 -1.421875 24.3125 -1.421875 
Q 15.921875 -1.421875 10.953125 3.296875 
Q 6 8.015625 6 15.921875 
Q 6 25.140625 12.171875 29.828125 
Q 18.359375 34.515625 30.609375 34.515625 
L 43.21875 34.515625 
L 43.21875 35.40625 
Q 43.21875 41.609375 39.140625 45 
Q 35.0625 48.390625 27.6875 48.390625 
Q 23 48.390625 18.546875 47.265625 
Q 14.109375 46.140625 10.015625 43.890625 
L 10.015625 52.203125 
Q 14.9375 54.109375 19.578125 55.046875 
Q 24.21875 56 28.609375 56 
Q 40.484375 56 46.34375 49.84375 
Q 52.203125 43.703125 52.203125 31.203125 
z
" id="DejaVuSans-97"/>
     <path d="M 9.421875 75.984375 
L 18.40625 75.984375 
L 18.40625 0 
L 9.421875 0 
z
" id="DejaVuSans-108"/>
     <path d="M 19.671875 64.796875 
L 19.671875 8.109375 
L 31.59375 8.109375 
Q 46.6875 8.109375 53.6875 14.9375 
Q 60.6875 21.78125 60.6875 36.53125 
Q 60.6875 51.171875 53.6875 57.984375 
Q 46.6875 64.796875 31.59375 64.796875 
z
M 9.8125 72.90625 
L 30.078125 72.90625 
Q 51.265625 72.90625 61.171875 64.09375 
Q 71.09375 55.28125 71.09375 36.53125 
Q 71.09375 17.671875 61.125 8.828125 
Q 51.171875 0 30.078125 0 
L 9.8125 0 
z
" id="DejaVuSans-68"/>
     <path d="M 45.40625 27.984375 
Q 45.40625 37.75 41.375 43.109375 
Q 37.359375 48.484375 30.078125 48.484375 
Q 22.859375 48.484375 18.828125 43.109375 
Q 14.796875 37.75 14.796875 27.984375 
Q 14.796875 18.265625 18.828125 12.890625 
Q 22.859375 7.515625 30.078125 7.515625 
Q 37.359375 7.515625 41.375 12.890625 
Q 45.40625 18.265625 45.40625 27.984375 
z
M 54.390625 6.78125 
Q 54.390625 -7.171875 48.1875 -13.984375 
Q 42 -20.796875 29.203125 -20.796875 
Q 24.46875 -20.796875 20.265625 -20.09375 
Q 16.0625 -19.390625 12.109375 -17.921875 
L 12.109375 -9.1875 
Q 16.0625 -11.328125 19.921875 -12.34375 
Q 23.78125 -13.375 27.78125 -13.375 
Q 36.625 -13.375 41.015625 -8.765625 
Q 45.40625 -4.15625 45.40625 5.171875 
L 45.40625 9.625 
Q 42.625 4.78125 38.28125 2.390625 
Q 33.9375 0 27.875 0 
Q 17.828125 0 11.671875 7.65625 
Q 5.515625 15.328125 5.515625 27.984375 
Q 5.515625 40.671875 11.671875 48.328125 
Q 17.828125 56 27.875 56 
Q 33.9375 56 38.28125 53.609375 
Q 42.625 51.21875 45.40625 46.390625 
L 45.40625 54.6875 
L 54.390625 54.6875 
z
" id="DejaVuSans-103"/>
     <path d="M 41.109375 46.296875 
Q 39.59375 47.171875 37.8125 47.578125 
Q 36.03125 48 33.890625 48 
Q 26.265625 48 22.1875 43.046875 
Q 18.109375 38.09375 18.109375 28.8125 
L 18.109375 0 
L 9.078125 0 
L 9.078125 54.6875 
L 18.109375 54.6875 
L 18.109375 46.1875 
Q 20.953125 51.171875 25.484375 53.578125 
Q 30.03125 56 36.53125 56 
Q 37.453125 56 38.578125 55.875 
Q 39.703125 55.765625 41.0625 55.515625 
z
" id="DejaVuSans-114"/>
     <path d="M 9.421875 54.6875 
L 18.40625 54.6875 
L 18.40625 0 
L 9.421875 0 
z
M 9.421875 75.984375 
L 18.40625 75.984375 
L 18.40625 64.59375 
L 9.421875 64.59375 
z
" id="DejaVuSans-105"/>
     <path d="M 10.6875 12.40625 
L 21 12.40625 
L 21 0 
L 10.6875 0 
z
" id="DejaVuSans-46"/>
    </defs>
    <g transform="translate(49.741875 35.472)scale(0.12 -0.12)">
     <use xlink:href="#DejaVuSans-40"/>
     <use x="39.013672" xlink:href="#DejaVuSans-49"/>
     <use x="102.636719" xlink:href="#DejaVuSans-49"/>
     <use x="166.259766" xlink:href="#DejaVuSans-52"/>
     <use x="229.882812" xlink:href="#DejaVuSans-41"/>
     <use x="268.896484" xlink:href="#DejaVuSans-32"/>
     <use x="300.683594" xlink:href="#DejaVuSans-83"/>
     <use x="364.160156" xlink:href="#DejaVuSans-117"/>
     <use x="427.539062" xlink:href="#DejaVuSans-98"/>
     <use x="491.015625" xlink:href="#DejaVuSans-106"/>
     <use x="518.798828" xlink:href="#DejaVuSans-101"/>
     <use x="580.322266" xlink:href="#DejaVuSans-99"/>
     <use x="635.302734" xlink:href="#DejaVuSans-116"/>
     <use x="674.511719" xlink:href="#DejaVuSans-58"/>
     <use x="708.203125" xlink:href="#DejaVuSans-32"/>
     <use x="739.990234" xlink:href="#DejaVuSans-115"/>
     <use x="792.089844" xlink:href="#DejaVuSans-51"/>
     <use x="855.712891" xlink:href="#DejaVuSans-44"/>
     <use x="887.5" xlink:href="#DejaVuSans-32"/>
     <use x="919.287109" xlink:href="#DejaVuSans-75"/>
     <use x="984.863281" xlink:href="#DejaVuSans-110"/>
     <use x="1048.242188" xlink:href="#DejaVuSans-111"/>
     <use x="1109.423828" xlink:href="#DejaVuSans-119"/>
     <use x="1191.210938" xlink:href="#DejaVuSans-110"/>
     <use x="1254.589844" xlink:href="#DejaVuSans-32"/>
     <use x="1286.376953" xlink:href="#DejaVuSans-61"/>
     <use x="1370.166016" xlink:href="#DejaVuSans-32"/>
     <use x="1401.953125" xlink:href="#DejaVuSans-70"/>
     <use x="1459.332031" xlink:href="#DejaVuSans-97"/>
     <use x="1520.611328" xlink:href="#DejaVuSans-108"/>
     <use x="1548.394531" xlink:href="#DejaVuSans-115"/>
     <use x="1600.494141" xlink:href="#DejaVuSans-101"/>
     <use x="1662.017578" xlink:href="#DejaVuSans-44"/>
     <use x="1693.804688" xlink:href="#DejaVuSans-32"/>
     <use x="1725.591797" xlink:href="#DejaVuSans-68"/>
     <use x="1802.59375" xlink:href="#DejaVuSans-101"/>
     <use x="1864.117188" xlink:href="#DejaVuSans-103"/>
     <use x="1927.59375" xlink:href="#DejaVuSans-114"/>
     <use x="1968.675781" xlink:href="#DejaVuSans-101"/>
     <use x="2030.199219" xlink:href="#DejaVuSans-101"/>
     <use x="2091.722656" xlink:href="#DejaVuSans-32"/>
     <use x="2123.509766" xlink:href="#DejaVuSans-61"/>
     <use x="2207.298828" xlink:href="#DejaVuSans-32"/>
     <use x="2239.085938" xlink:href="#DejaVuSans-49"/>
     <use x="2302.708984" xlink:href="#DejaVuSans-44"/>
     <use x="2334.496094" xlink:href="#DejaVuSans-32"/>
     <use x="2366.283203" xlink:href="#DejaVuSans-68"/>
     <use x="2443.285156" xlink:href="#DejaVuSans-117"/>
     <use x="2506.664062" xlink:href="#DejaVuSans-114"/>
     <use x="2547.777344" xlink:href="#DejaVuSans-97"/>
     <use x="2609.056641" xlink:href="#DejaVuSans-116"/>
     <use x="2648.265625" xlink:href="#DejaVuSans-105"/>
     <use x="2676.048828" xlink:href="#DejaVuSans-111"/>
     <use x="2737.230469" xlink:href="#DejaVuSans-110"/>
     <use x="2800.609375" xlink:href="#DejaVuSans-32"/>
     <use x="2832.396484" xlink:href="#DejaVuSans-61"/>
     <use x="2916.185547" xlink:href="#DejaVuSans-32"/>
     <use x="2947.972656" xlink:href="#DejaVuSans-48"/>
     <use x="3011.595703" xlink:href="#DejaVuSans-46"/>
     <use x="3043.382812" xlink:href="#DejaVuSans-49"/>
    </g>
   </g>
  </g>
 </g>
 <defs>
  <clipPath id="p97eae405c8">
   <rect height="266.112" width="357.12" x="57.6" y="41.472"/>
  </clipPath>
 </defs>
</svg>
