<?xml version="1.0" encoding="utf-8" standalone="no"?>
<!DOCTYPE svg PUBLIC "-//W3C//DTD SVG 1.1//EN"
  "http://www.w3.org/Graphics/SVG/1.1/DTD/svg11.dtd">
<!-- Created with matplotlib (https://matplotlib.org/) -->
<svg height="345.6pt" version="1.1" viewBox="0 0 460.8 345.6" width="460.8pt" xmlns="http://www.w3.org/2000/svg" xmlns:xlink="http://www.w3.org/1999/xlink">
 <defs>
  <style type="text/css">
*{stroke-linecap:butt;stroke-linejoin:round;}
  </style>
 </defs>
 <g id="figure_1">
  <g id="patch_1">
   <path d="M 0 345.6 
L 460.8 345.6 
L 460.8 0 
L 0 0 
z
" style="fill:#ffffff;"/>
  </g>
  <g id="axes_1">
   <g id="patch_2">
    <path d="M 57.6 307.584 
L 414.72 307.584 
L 414.72 41.472 
L 57.6 41.472 
z
" style="fill:#ffffff;"/>
   </g>
   <g id="line2d_1">
    <path clip-path="url(#pade9cac605)" d="M 75.490835 53.704918 
L 75.308291 53.97631 
L 75.67338 54.113228 
L 76.042271 54.113228 
L 76.228618 53.841837 
L 76.228618 53.568 
L 76.593706 53.97631 
L 75.67338 55.20124 
L 75.308291 55.20124 
L 74.9394 54.79293 
L 74.9394 54.521538 
L 75.121944 54.658457 
L 75.121944 54.929848 
L 74.753053 54.929848 
L 74.753053 54.79293 
L 75.67338 55.475077 
L 75.67338 55.20124 
L 75.121944 54.658457 
L 74.753053 54.250147 
L 74.753053 54.250147 
L 74.753053 54.929848 
L 75.121944 55.066767 
L 75.308291 55.066767 
L 74.753053 54.79293 
L 74.570509 54.929848 
L 74.570509 55.338158 
L 74.570509 55.20124 
L 74.387965 55.338158 
L 74.570509 55.338158 
L 75.121944 55.338158 
L 75.121944 55.338158 
L 74.201618 55.746468 
L 74.019074 56.154778 
L 74.019074 56.154778 
L 74.387965 55.883387 
L 75.121944 55.60955 
L 75.308291 55.338158 
L 74.9394 55.475077 
L 73.832727 56.01786 
L 74.9394 55.20124 
L 74.753053 55.475077 
L 74.753053 55.883387 
L 74.570509 56.01786 
L 74.570509 56.289252 
L 74.9394 56.42617 
L 75.121944 56.289252 
L 74.753053 55.60955 
L 74.9394 55.475077 
L 74.9394 55.746468 
L 74.570509 56.154778 
L 74.9394 56.154778 
L 75.121944 56.01786 
L 75.121944 55.60955 
L 75.308291 55.475077 
L 74.753053 55.746468 
L 74.570509 56.154778 
L 75.490835 56.563088 
L 75.490835 56.563088 
L 75.308291 56.289252 
L 75.308291 56.01786 
L 75.490835 55.338158 
L 75.308291 55.475077 
L 75.308291 55.746468 
L 75.490835 55.475077 
L 75.490835 55.475077 
L 75.490835 55.883387 
L 75.67338 56.289252 
L 75.490835 56.289252 
L 75.308291 56.154778 
L 75.859727 55.746468 
L 75.67338 55.475077 
L 76.042271 55.338158 
L 76.411162 55.338158 
L 76.042271 55.475077 
L 75.308291 56.01786 
L 75.121944 55.883387 
L 74.9394 55.475077 
L 75.67338 55.20124 
L 75.121944 55.475077 
L 75.121944 55.746468 
L 75.490835 55.746468 
L 75.67338 55.475077 
L 75.308291 55.338158 
L 75.308291 55.883387 
L 75.121944 56.01786 
L 74.9394 55.883387 
L 75.308291 55.475077 
L 75.490835 55.338158 
L 75.308291 55.475077 
L 74.9394 55.60955 
L 74.570509 55.60955 
L 74.387965 55.338158 
L 74.387965 55.338158 
L 74.570509 55.338158 
L 74.570509 55.066767 
L 74.753053 54.929848 
L 75.121944 55.066767 
L 74.9394 55.338158 
L 74.570509 55.475077 
L 74.753053 55.60955 
L 75.859727 55.883387 
L 75.859727 56.01786 
L 75.67338 56.01786 
L 75.67338 55.883387 
L 75.490835 55.746468 
L 75.490835 55.20124 
L 76.228618 54.521538 
L 76.228618 54.521538 
L 76.228618 55.338158 
L 76.228618 54.79293 
L 76.042271 54.79293 
L 76.042271 54.929848 
L 76.411162 55.20124 
L 76.411162 55.20124 
L 76.228618 55.475077 
L 76.228618 55.746468 
L 76.411162 55.746468 
L 76.228618 55.475077 
L 76.228618 55.20124 
L 76.780053 54.521538 
L 76.780053 54.79293 
L 77.148944 54.521538 
L 77.148944 54.250147 
L 76.962597 54.521538 
L 76.962597 54.79293 
L 76.593706 55.066767 
L 77.331488 55.475077 
L 77.331488 55.338158 
L 77.148944 55.20124 
L 77.331488 54.929848 
L 78.06927 54.250147 
L 77.700379 54.79293 
L 77.882923 55.066767 
L 78.06927 55.066767 
L 78.06927 55.066767 
L 78.251814 55.20124 
L 78.251814 55.066767 
L 78.251814 54.521538 
L 78.251814 54.521538 
L 77.882923 55.066767 
L 78.434358 55.066767 
L 79.354684 54.79293 
L 79.354684 55.066767 
L 79.17214 55.066767 
L 78.620705 54.521538 
L 78.620705 54.250147 
L 78.620705 54.250147 
L 77.882923 55.066767 
L 78.06927 55.20124 
L 78.251814 55.066767 
L 78.251814 54.79293 
L 78.06927 54.521538 
L 77.148944 55.20124 
L 77.882923 54.658457 
L 78.06927 54.79293 
L 78.434358 54.79293 
L 78.803249 54.658457 
L 77.882923 55.066767 
L 77.331488 55.338158 
L 77.148944 55.066767 
L 77.331488 54.79293 
L 77.700379 54.658457 
L 77.882923 54.929848 
L 77.700379 55.20124 
L 77.700379 55.20124 
L 77.331488 55.066767 
L 77.148944 55.338158 
L 77.148944 56.01786 
L 76.780053 56.01786 
L 76.780053 55.883387 
L 76.593706 55.883387 
L 76.593706 56.289252 
L 76.593706 55.883387 
L 76.780053 55.883387 
L 77.331488 56.42617 
L 77.331488 56.697562 
L 77.148944 56.697562 
L 76.962597 56.563088 
L 76.780053 56.289252 
L 76.593706 56.289252 
L 75.67338 56.697562 
L 76.228618 56.971398 
L 76.411162 56.83448 
L 76.228618 56.971398 
L 76.042271 56.971398 
L 75.859727 56.697562 
L 76.042271 56.971398 
L 76.593706 56.971398 
L 76.962597 56.697562 
L 76.593706 56.83448 
L 76.411162 56.697562 
L 76.780053 56.971398 
L 76.593706 57.105872 
L 76.780053 56.971398 
L 76.593706 56.697562 
L 77.148944 57.105872 
L 77.882923 57.379708 
L 79.354684 57.6511 
L 81.381683 58.196328 
L 83.773771 58.46772 
L 90.029706 57.922492 
L 94.448793 58.05941 
L 99.601859 58.46772 
L 112.668968 58.46772 
L 120.027774 58.604638 
L 127.57673 59.147422 
L 135.673318 59.555731 
L 154.076038 61.052053 
L 163.64819 62.140065 
L 172.851451 63.501913 
L 189.964953 66.494556 
L 198.430432 68.264715 
L 206.895911 69.89551 
L 214.627411 71.665668 
L 230.455499 75.066621 
L 238.552087 77.108171 
L 245.914696 79.284194 
L 253.277305 81.597136 
L 260.822458 83.775604 
L 268.367611 86.088546 
L 275.547676 88.672879 
L 282.355047 91.394131 
L 288.79733 94.115382 
L 295.239613 96.565242 
L 301.678092 98.878184 
L 307.937831 101.328044 
L 314.011223 104.183769 
L 320.084615 106.90502 
L 331.128528 112.21305 
L 335.912703 114.660465 
L 339.776551 117.381717 
L 343.457856 120.239886 
L 349.348703 125.68239 
L 351.003009 128.266723 
L 353.026205 133.709226 
L 353.763987 136.022168 
L 354.132878 138.063718 
L 354.132878 140.376659 
L 353.395096 142.826519 
L 352.109682 145.139461 
L 350.820465 147.181011 
L 348.24203 150.310572 
L 346.770269 151.669976 
L 344.378182 154.528146 
L 343.6404 155.616157 
L 343.457856 156.432777 
L 343.088965 157.249397 
L 342.168639 157.929099 
L 340.327986 159.83373 
L 338.856225 160.65035 
L 337.935899 161.330052 
L 337.753355 162.146672 
L 338.122246 163.234684 
L 338.122246 164.32514 
L 337.753355 165.276234 
L 336.833029 166.364245 
L 335.912703 167.180865 
L 335.174921 168.134403 
L 334.440942 170.175953 
L 334.072051 170.992573 
L 333.334268 172.080585 
L 332.231398 174.11969 
L 331.679963 174.93631 
L 331.311072 175.889848 
L 330.759637 176.840942 
L 330.021855 177.657562 
L 329.287876 178.065872 
L 328.36755 178.748018 
L 327.447224 179.83603 
L 326.709442 181.06096 
L 326.709442 182.012053 
L 326.340551 183.373901 
L 325.975462 183.782211 
L 325.23768 185.278533 
L 323.948463 186.503463 
L 322.294158 187.454556 
L 321.925267 187.862866 
L 321.925267 189.087796 
L 321.556376 189.496106 
L 321.373832 190.041335 
L 320.63605 191.129346 
L 319.346833 191.400738 
L 318.795398 191.809048 
L 317.323636 193.850598 
L 316.954745 193.850598 
L 317.141092 193.985071 
L 317.141092 194.258908 
L 316.772201 194.801691 
L 315.665528 195.210001 
L 314.380114 195.483838 
L 314.931549 195.755229 
L 315.30044 196.163539 
L 314.931549 196.434931 
L 314.011223 196.434931 
L 313.642332 196.843241 
L 312.908353 197.388469 
L 312.353115 197.388469 
L 312.539462 197.114633 
L 312.908353 197.114633 
L 312.539462 197.388469 
L 311.80168 197.251551 
L 311.80168 197.522943 
L 311.619136 197.796779 
L 310.881354 197.796779 
L 310.881354 197.796779 
L 310.881354 197.659861 
L 310.69881 197.522943 
L 310.881354 197.659861 
L 311.250245 197.659861 
L 311.432789 197.522943 
L 311.067701 197.388469 
L 309.409592 197.659861 
L 308.858157 197.522943 
L 308.489266 197.251551 
L 308.489266 196.843241 
L 308.67181 196.571849 
L 308.858157 196.571849 
L 307.755287 196.571849 
L 306.834961 196.298013 
L 306.834961 196.434931 
L 306.648614 196.571849 
L 305.914635 196.706323 
L 304.807962 197.114633 
L 303.518745 197.796779 
L 301.313004 199.835884 
L 298.365679 201.877434 
L 296.893918 204.735604 
L 295.791048 207.456856 
L 295.053266 208.681786 
L 294.319286 210.178107 
L 293.39896 212.625522 
L 293.39896 213.442142 
L 293.212613 214.667072 
L 292.847525 216.300312 
L 292.661178 217.66216 
L 293.581504 223.104664 
L 294.319286 225.552079 
L 294.319286 227.0484 
L 293.950395 229.90657 
L 294.319286 230.72319 
L 294.688177 231.811202 
L 295.053266 233.444442 
L 294.870721 235.212155 
L 294.319286 236.710922 
L 292.847525 239.158337 
L 292.292287 239.974957 
L 290.820526 241.471278 
L 290.086547 242.561735 
L 290.086547 243.104518 
L 288.428439 244.329448 
L 287.508113 244.60084 
L 287.325569 244.874676 
L 287.508113 245.41746 
L 287.508113 246.370998 
L 286.774133 248.138711 
L 286.405242 248.68394 
L 285.853807 249.226723 
L 284.195699 250.588571 
L 283.644264 251.131355 
L 283.275373 252.084893 
L 283.092829 252.630121 
L 282.723938 253.172904 
L 282.723938 253.581214 
L 282.355047 253.989524 
L 281.803612 253.718133 
L 281.252177 253.718133 
L 280.331851 254.397834 
L 280.514395 254.669226 
L 280.700742 254.534753 
L 281.06583 254.534753 
L 281.06583 254.669226 
L 279.042633 255.622764 
L 278.673742 255.622764 
L 279.225177 256.031074 
L 279.780416 256.031074 
L 279.96296 256.302466 
L 279.780416 256.573858 
L 279.225177 256.847694 
L 278.122307 256.982168 
L 278.304851 257.119086 
L 279.225177 257.664314 
L 279.411525 257.935706 
L 278.860089 258.344016 
L 278.122307 258.615408 
L 277.570872 258.615408 
L 277.570872 258.615408 
L 277.753416 258.480934 
L 277.570872 258.615408 
L 277.201981 259.160636 
L 277.384525 259.023718 
L 277.939763 259.023718 
L 278.122307 258.889244 
L 277.939763 258.752326 
L 277.384525 259.160636 
L 277.384525 259.432028 
L 277.570872 259.432028 
L 277.753416 259.295109 
L 277.570872 259.023718 
L 277.384525 259.023718 
L 277.384525 259.023718 
L 277.384525 259.295109 
L 277.019437 259.703419 
L 276.83309 259.703419 
L 277.201981 259.977256 
L 277.201981 260.248648 
L 276.650546 260.248648 
L 276.099111 260.111729 
L 276.099111 259.840338 
L 276.464199 259.977256 
L 276.83309 260.248648 
L 276.650546 260.520039 
L 275.73022 261.065268 
L 275.912764 261.202186 
L 276.281655 261.202186 
L 276.464199 261.065268 
L 276.464199 261.336659 
L 276.83309 261.744969 
L 277.201981 261.610496 
L 277.570872 261.202186 
L 277.570872 260.928349 
L 277.201981 260.793876 
L 276.281655 260.520039 
L 276.281655 260.520039 
L 276.099111 260.793876 
L 276.099111 261.744969 
L 276.281655 261.881888 
L 276.099111 261.881888 
L 275.73022 261.744969 
L 275.73022 261.610496 
L 276.099111 261.473578 
L 275.912764 261.473578 
L 274.992438 261.473578 
L 274.992438 261.610496 
L 275.178785 261.744969 
L 275.547676 261.744969 
L 275.178785 261.744969 
L 264.134872 259.703419 
L 241.130522 257.935706 
L 229.535173 256.573858 
L 223.461781 255.759683 
L 200.457431 253.718133 
L 195.669454 253.446741 
L 191.071626 253.309823 
L 186.283649 253.309823 
L 181.499474 253.038431 
L 176.528952 252.630121 
L 171.744778 251.813501 
L 163.096755 249.771951 
L 154.076038 248.410103 
L 142.115601 247.187618 
L 129.231035 244.466366 
L 126.470057 244.19253 
L 124.998296 244.329448 
L 124.260514 244.058056 
L 123.709079 243.512828 
L 123.709079 243.512828 
L 124.07797 243.512828 
L 124.815752 243.241436 
L 125.918622 243.104518 
L 126.656404 243.241436 
L 127.021492 243.512828 
L 127.759274 243.78422 
L 129.048491 244.058056 
L 131.254232 243.512828 
L 131.80947 243.78422 
L 131.80947 243.78422 
L 131.623123 243.78422 
L 130.702797 244.058056 
L 130.889144 244.19253 
L 131.254232 244.19253 
L 131.440579 244.329448 
L 130.889144 245.146068 
L 130.889144 245.41746 
L 129.78247 245.41746 
L 129.78247 245.82577 
L 130.337708 245.962688 
L 131.071688 245.688851 
L 131.071688 245.82577 
L 130.889144 246.097161 
L 130.889144 246.097161 
L 130.702797 246.097161 
L 130.151361 246.370998 
L 131.071688 246.505471 
L 132.360905 246.505471 
L 131.80947 246.64239 
L 131.440579 246.370998 
L 131.254232 245.962688 
L 131.440579 245.82577 
L 132.174558 246.097161 
L 132.174558 246.370998 
L 131.440579 246.505471 
L 131.623123 246.505471 
L 131.992014 246.779308 
L 132.174558 247.187618 
L 132.543449 247.187618 
L 132.729796 246.64239 
L 131.440579 246.913781 
L 131.440579 246.779308 
L 131.80947 246.913781 
L 131.992014 247.187618 
L 131.623123 248.004238 
L 131.80947 247.86732 
L 131.992014 247.730401 
L 131.992014 247.86732 
L 131.80947 248.138711 
L 131.440579 247.45901 
L 131.440579 247.322091 
L 132.729796 248.004238 
L 133.094884 248.27563 
L 132.174558 247.595928 
L 131.992014 247.730401 
L 131.254232 247.730401 
L 131.071688 247.86732 
L 131.992014 248.138711 
L 133.094884 248.138711 
L 133.281231 247.86732 
L 133.094884 247.730401 
L 132.729796 247.730401 
L 132.543449 247.595928 
L 133.094884 247.322091 
L 133.281231 247.595928 
L 133.094884 247.86732 
L 132.729796 247.86732 
L 132.729796 247.730401 
L 133.094884 247.730401 
L 133.094884 247.730401 
L 132.729796 247.187618 
L 132.91234 247.322091 
L 134.384101 247.595928 
L 134.570448 247.322091 
L 133.650122 247.322091 
L 132.729796 247.45901 
L 132.729796 247.322091 
L 132.729796 247.322091 
L 132.91234 247.322091 
L 133.094884 247.45901 
L 134.01521 247.45901 
L 134.01521 247.45901 
L 133.650122 247.730401 
L 133.832666 247.595928 
L 134.01521 247.730401 
L 134.384101 247.730401 
L 134.384101 247.595928 
L 133.832666 247.730401 
L 133.650122 247.595928 
L 134.752992 247.187618 
L 134.384101 246.64239 
L 134.752992 246.64239 
L 134.935536 247.0507 
L 134.752992 247.0507 
L 135.121883 246.913781 
L 134.384101 247.187618 
L 134.384101 247.45901 
L 134.935536 247.45901 
L 135.121883 247.322091 
L 134.752992 246.913781 
L 134.935536 246.913781 
L 133.463775 246.913781 
L 133.650122 246.779308 
L 133.650122 246.779308 
L 134.01521 246.913781 
L 134.570448 246.913781 
L 135.673318 246.23408 
L 136.042209 246.097161 
L 136.042209 245.82577 
L 135.304427 245.554378 
L 134.752992 245.962688 
L 134.570448 246.370998 
L 135.121883 246.505471 
L 135.673318 246.23408 
L 135.855862 245.962688 
L 135.490774 245.962688 
L 135.855862 246.370998 
L 135.673318 246.370998 
L 135.304427 245.962688 
L 134.935536 245.962688 
L 134.935536 246.370998 
L 135.121883 246.64239 
L 135.304427 246.505471 
L 136.4111 245.82577 
L 136.042209 245.688851 
L 135.304427 245.82577 
L 135.121883 246.370998 
L 134.935536 246.505471 
L 134.752992 246.370998 
L 134.752992 245.82577 
L 135.121883 245.962688 
L 135.490774 246.505471 
L 135.855862 246.505471 
L 136.042209 246.097161 
L 136.042209 245.82577 
L 135.490774 246.23408 
L 134.935536 245.82577 
L 135.121883 246.097161 
L 134.752992 246.370998 
L 134.384101 246.23408 
L 134.201557 245.962688 
L 134.570448 245.688851 
L 135.121883 245.688851 
L 135.490774 245.82577 
L 135.490774 245.962688 
L 135.673318 246.097161 
L 135.490774 246.23408 
L 135.121883 246.370998 
L 134.752992 246.23408 
L 134.752992 246.097161 
L 135.121883 245.82577 
L 135.304427 245.962688 
L 135.673318 246.097161 
L 135.304427 245.962688 
L 134.935536 245.554378 
L 134.935536 245.688851 
L 134.935536 246.370998 
L 134.752992 246.505471 
L 135.673318 245.82577 
L 135.855862 245.554378 
L 135.490774 245.688851 
L 134.935536 246.23408 
L 135.121883 246.23408 
L 135.304427 246.097161 
L 134.935536 245.554378 
L 134.570448 245.82577 
L 134.201557 246.370998 
L 134.570448 246.370998 
L 134.935536 246.505471 
L 135.121883 246.779308 
L 134.935536 247.0507 
L 134.935536 247.45901 
L 134.752992 247.45901 
L 134.384101 246.23408 
L 134.570448 246.23408 
L 134.935536 246.64239 
L 135.121883 247.187618 
L 135.121883 247.187618 
L 134.752992 246.779308 
L 134.201557 246.370998 
L 133.650122 246.505471 
L 133.094884 246.505471 
L 132.543449 246.370998 
L 130.520253 247.0507 
L 129.417382 246.779308 
L 127.759274 246.23408 
L 125.736078 246.097161 
L 123.895426 246.23408 
L 121.685882 246.779308 
L 119.84523 247.322091 
L 118.74236 248.547021 
L 118.004578 249.226723 
L 117.084252 250.180261 
L 117.270599 250.588571 
L 117.822034 251.131355 
L 118.187122 250.451653 
L 118.556013 250.31718 
L 118.373469 250.31718 
L 118.004578 250.996881 
L 118.373469 251.405191 
L 118.74236 251.405191 
L 118.74236 251.405191 
L 118.74236 251.539665 
L 118.924904 251.676583 
L 118.74236 251.676583 
L 118.373469 251.676583 
L 118.004578 251.813501 
L 118.373469 252.084893 
L 118.74236 252.084893 
L 118.74236 251.947975 
L 118.924904 252.084893 
L 119.107448 252.630121 
L 119.107448 253.172904 
L 118.74236 253.718133 
L 118.004578 254.126443 
L 118.004578 254.260916 
L 117.635687 254.126443 
L 117.270599 254.126443 
L 117.084252 253.989524 
L 117.453143 253.718133 
L 118.004578 253.852606 
L 118.187122 253.718133 
L 117.822034 253.581214 
L 117.453143 253.718133 
L 117.084252 253.989524 
L 117.084252 254.260916 
L 117.453143 254.397834 
L 117.822034 254.397834 
L 117.635687 254.397834 
L 117.270599 254.534753 
L 116.901708 254.534753 
L 116.163926 254.126443 
L 116.163926 254.260916 
L 116.715361 254.260916 
L 117.270599 253.989524 
L 117.270599 253.581214 
L 117.635687 253.718133 
L 117.822034 253.989524 
L 118.004578 253.989524 
L 118.004578 253.852606 
L 118.187122 253.852606 
L 118.556013 253.718133 
L 118.556013 253.852606 
L 118.373469 253.989524 
L 117.453143 254.260916 
L 117.453143 254.260916 
L 117.270599 254.397834 
L 117.084252 254.126443 
L 117.453143 254.260916 
L 117.453143 254.397834 
L 117.084252 254.397834 
L 117.635687 254.806144 
L 117.084252 254.397834 
L 116.715361 254.534753 
L 116.532817 254.397834 
L 117.453143 253.852606 
L 117.635687 253.989524 
L 117.453143 253.989524 
L 117.084252 253.989524 
L 116.901708 253.852606 
L 117.084252 253.718133 
L 117.084252 253.852606 
L 116.901708 254.126443 
L 116.350273 254.397834 
L 116.715361 254.397834 
L 117.453143 253.989524 
L 118.004578 253.852606 
L 118.004578 254.126443 
L 117.084252 255.077536 
L 117.084252 254.943063 
L 117.453143 254.943063 
L 117.453143 254.806144 
L 117.270599 254.806144 
L 116.901708 254.943063 
L 116.901708 255.077536 
L 117.270599 255.077536 
L 117.084252 254.943063 
L 116.901708 254.534753 
L 116.715361 254.669226 
L 116.715361 254.943063 
L 117.635687 255.485846 
L 117.084252 255.214454 
L 116.350273 255.485846 
L 115.981382 255.485846 
L 115.612491 255.214454 
L 115.795035 254.943063 
L 116.350273 254.943063 
L 116.715361 255.214454 
L 116.163926 255.759683 
L 116.163926 255.622764 
L 116.163926 255.759683 
L 115.795035 256.167993 
L 115.2436 256.302466 
L 115.061056 255.759683 
L 115.2436 255.351373 
L 115.612491 256.302466 
L 116.350273 256.573858 
L 115.429947 256.167993 
L 115.612491 255.894156 
L 115.981382 256.031074 
L 115.795035 256.167993 
L 115.795035 256.439384 
L 115.981382 256.439384 
L 116.350273 256.302466 
L 116.350273 256.573858 
L 116.532817 256.982168 
L 116.350273 257.119086 
L 116.350273 256.982168 
L 116.163926 256.710776 
L 116.163926 256.302466 
L 116.715361 256.031074 
L 117.270599 255.894156 
L 117.270599 256.031074 
L 117.084252 256.439384 
L 117.270599 256.847694 
L 116.901708 256.847694 
L 116.532817 256.710776 
L 116.163926 256.167993 
L 116.350273 255.759683 
L 116.901708 255.485846 
L 117.453143 255.485846 
L 117.635687 255.759683 
L 117.453143 255.894156 
L 117.084252 255.485846 
L 117.270599 255.622764 
L 117.270599 255.485846 
L 117.084252 255.351373 
L 117.453143 255.077536 
L 117.822034 254.943063 
L 117.822034 255.077536 
L 117.635687 255.214454 
L 117.635687 255.077536 
L 117.635687 254.260916 
L 117.453143 253.852606 
L 117.635687 253.581214 
L 118.004578 253.581214 
L 118.556013 253.852606 
L 119.293795 253.852606 
L 122.9751 253.581214 
L 127.57673 253.852606 
L 131.071688 253.852606 
L 140.274949 254.260916 
L 145.979449 254.534753 
L 152.052841 255.077536 
L 158.495124 255.351373 
L 165.302495 255.351373 
L 172.48256 255.485846 
L 195.855801 257.119086 
L 212.05278 257.935706 
L 227.694521 259.023718 
L 235.977456 259.160636 
L 243.8915 259.703419 
L 251.436653 260.656958 
L 259.16435 261.336659 
L 273.707024 262.153279 
L 295.604701 264.194829 
L 310.329918 264.740057 
L 317.50618 265.554232 
L 330.021855 267.595782 
L 336.281594 268.004092 
L 342.906421 268.549321 
L 349.531247 269.229022 
L 355.97353 269.774251 
L 373.824815 272.087192 
L 378.97788 272.495502 
L 390.204338 273.854906 
L 392.596425 273.991824 
L 395.726294 274.534607 
L 396.277729 274.808444 
L 396.464076 275.216754 
L 396.095185 275.625064 
L 395.174859 275.896456 
L 388.550032 276.576157 
L 386.340489 276.847549 
L 384.682381 276.576157 
L 383.762055 276.576157 
L 382.10775 277.255859 
L 381.921403 277.392777 
L 381.921403 277.392777 
L 381.369968 277.255859 
L 381.001076 277.529695 
L 380.267097 277.529695 
L 379.898206 277.664169 
L 378.97788 278.346315 
L 378.240098 278.072479 
L 378.240098 278.209397 
L 378.240098 278.346315 
L 378.426445 278.346315 
L 378.426445 278.209397 
L 378.240098 277.801087 
L 377.688663 277.529695 
L 376.403249 277.392777 
L 374.562597 277.664169 
L 373.824815 277.664169 
L 373.824815 277.664169 
L 374.007359 277.529695 
L 373.824815 277.664169 
L 373.455924 278.072479 
L 372.166706 278.480789 
L 371.801618 278.75218 
L 370.694945 277.938005 
L 370.881292 277.938005 
L 369.960966 278.480789 
L 369.409531 278.480789 
L 368.489205 278.346315 
L 368.671749 278.346315 
L 368.671749 278.480789 
L 368.302858 278.617707 
L 367.013641 278.889099 
L 366.831097 279.297409 
L 366.462206 279.434327 
L 366.093315 279.434327 
L 365.54188 279.5688 
L 365.54188 279.434327 
L 365.54188 279.434327 
L 366.093315 279.705719 
L 365.910771 279.434327 
L 365.359335 279.297409 
L 364.621553 279.434327 
L 363.887574 280.250947 
L 363.887574 280.114029 
L 363.701227 279.842637 
L 363.701227 279.97711 
L 363.701227 280.250947 
L 363.701227 280.250947 
L 363.518683 280.114029 
L 362.967248 280.250947 
L 362.780901 280.522339 
L 362.967248 280.38542 
L 363.336139 279.97711 
L 363.149792 279.842637 
L 362.780901 280.114029 
L 362.415813 280.79373 
L 362.229466 280.79373 
L 361.860575 280.522339 
L 361.30914 280.522339 
L 360.940249 280.930649 
L 360.757705 280.930649 
L 360.575161 280.659257 
L 360.20627 280.659257 
L 359.837379 281.20204 
L 359.099597 281.20204 
L 358.917053 281.338959 
L 359.285944 281.338959 
L 359.837379 281.20204 
L 360.019923 281.338959 
L 359.837379 281.61035 
L 359.468488 281.747269 
L 358.548162 281.747269 
L 358.548162 281.881742 
L 357.996727 282.290052 
L 357.627836 281.473432 
L 357.445291 281.473432 
L 357.627836 281.473432 
L 356.893856 281.067567 
L 356.524965 281.20204 
L 356.156074 281.747269 
L 356.156074 282.01866 
L 356.524965 282.290052 
L 356.707509 282.563889 
L 356.893856 282.563889 
L 356.893856 282.290052 
L 357.0764 282.01866 
L 356.893856 282.290052 
L 356.342421 282.563889 
L 355.053204 282.290052 
L 354.866857 282.42697 
L 355.235748 282.83528 
L 355.604639 282.972199 
L 354.866857 282.698362 
L 354.315422 282.698362 
L 354.132878 282.563889 
L 354.501769 282.42697 
L 354.684313 282.563889 
L 353.946531 282.83528 
L 353.946531 283.788819 
L 353.946531 283.788819 
L 353.763987 283.6519 
L 353.026205 283.6519 
L 353.395096 283.24359 
L 353.395096 283.24359 
L 353.026205 283.380509 
L 352.843661 283.788819 
L 353.026205 284.194684 
L 353.026205 284.46852 
L 353.395096 284.602994 
L 353.212552 284.602994 
L 353.395096 284.46852 
L 353.763987 283.6519 
L 352.843661 284.06021 
L 352.843661 284.331602 
L 353.026205 284.46852 
L 353.395096 284.602994 
L 353.212552 284.739912 
L 352.661117 284.87683 
L 352.47477 284.602994 
L 352.109682 284.46852 
L 352.109682 284.602994 
L 352.661117 284.602994 
L 353.395096 284.331602 
L 353.395096 284.331602 
L 353.026205 284.331602 
L 352.47477 284.46852 
L 351.923335 284.87683 
L 351.554444 285.011304 
L 351.189356 284.739912 
L 351.189356 284.46852 
L 351.3719 284.46852 
L 351.740791 284.87683 
L 351.3719 284.87683 
L 351.923335 285.148222 
L 351.554444 285.148222 
L 351.003009 284.87683 
L 350.820465 284.602994 
L 350.820465 284.739912 
L 350.820465 284.87683 
L 350.634118 284.739912 
L 350.634118 284.331602 
L 350.451574 283.788819 
L 349.900139 283.788819 
L 349.900139 284.194684 
L 350.820465 284.194684 
L 350.820465 284.06021 
L 350.26903 283.923292 
L 350.082683 284.06021 
L 350.26903 284.194684 
L 350.634118 284.06021 
L 350.634118 283.788819 
L 350.634118 283.788819 
L 350.451574 284.06021 
L 349.713791 284.46852 
L 349.713791 284.06021 
L 349.900139 283.788819 
L 349.713791 283.923292 
L 350.634118 283.514982 
L 351.3719 283.514982 
L 352.292226 283.380509 
L 355.422095 283.6519 
L 357.627836 283.6519 
L 360.388814 283.788819 
L 366.093315 284.602994 
L 368.854293 284.602994 
L 371.801618 284.194684 
L 375.114032 283.923292 
L 382.290294 284.194684 
L 385.789054 284.06021 
L 388.363685 284.331602 
L 390.386882 284.739912 
L 394.437077 285.28514 
L 395.726294 285.28514 
L 397.566947 285.148222 
L 397.749491 285.148222 
L 398.118382 285.419614 
L 398.487273 285.964842 
L 398.118382 286.373152 
L 397.566947 287.052854 
L 397.566947 287.052854 
L 397.566947 286.644544 
L 397.566947 286.644544 
L 397.198056 287.598082 
L 397.015512 287.598082 
L 396.464076 287.189772 
L 396.64662 287.189772 
L 396.64662 287.052854 
L 396.095185 287.052854 
L 395.174859 286.781462 
L 395.174859 286.915935 
L 394.988512 287.324245 
L 394.988512 287.598082 
L 394.623424 287.869474 
L 394.068186 288.006392 
L 393.516751 288.006392 
L 393.14786 288.140865 
L 393.516751 288.549175 
L 393.516751 288.823012 
L 393.334207 288.957485 
L 393.516751 289.094403 
L 393.703098 288.957485 
L 393.703098 288.686094 
L 393.334207 288.686094 
L 392.965316 288.549175 
L 392.596425 288.140865 
L 392.04499 288.549175 
L 391.862446 288.549175 
L 391.124664 289.094403 
L 391.124664 289.094403 
L 390.94212 289.365795 
L 390.573229 289.365795 
L 390.573229 289.231322 
L 390.755773 288.957485 
L 390.94212 288.957485 
L 390.94212 289.094403 
L 390.755773 289.231322 
L 389.835447 289.231322 
L 389.835447 288.823012 
L 389.652903 288.823012 
L 389.470359 288.957485 
L 389.652903 288.686094 
L 390.204338 288.686094 
L 390.94212 289.094403 
L 390.94212 289.637187 
L 390.573229 289.774105 
L 389.284012 289.365795 
L 388.915121 289.365795 
L 389.101468 289.094403 
L 389.101468 289.094403 
L 388.915121 289.094403 
L 388.915121 289.231322 
L 388.363685 289.231322 
L 388.363685 289.231322 
L 388.363685 289.365795 
L 387.443359 289.911023 
L 387.260815 289.911023 
L 387.994794 289.502713 
L 388.363685 289.502713 
L 388.550032 289.637187 
L 388.363685 289.637187 
L 387.074468 289.637187 
L 386.891924 289.774105 
L 387.074468 289.774105 
L 387.074468 289.911023 
L 386.154142 290.453807 
L 385.789054 289.911023 
L 385.789054 289.637187 
L 385.789054 289.637187 
L 385.602707 289.637187 
L 385.602707 289.911023 
L 386.523033 290.182415 
L 386.891924 290.045497 
L 386.891924 289.911023 
L 386.523033 289.637187 
L 385.789054 289.637187 
L 385.233816 289.774105 
L 385.420163 289.911023 
L 386.154142 289.637187 
L 385.789054 289.774105 
L 385.051272 290.453807 
L 385.233816 290.590725 
L 385.233816 290.319333 
L 384.682381 290.045497 
L 384.130946 290.319333 
L 384.31349 290.999035 
L 384.868728 291.135953 
L 385.051272 290.862117 
L 384.682381 290.590725 
L 384.499837 290.727643 
L 384.31349 290.727643 
L 383.762055 290.590725 
L 383.762055 290.590725 
L 384.130946 290.182415 
L 383.948402 290.045497 
L 383.028076 290.590725 
L 383.028076 290.590725 
L 383.028076 290.727643 
L 383.21062 291.135953 
L 383.028076 291.270427 
L 383.028076 291.135953 
L 383.028076 290.862117 
L 382.290294 290.590725 
L 382.476641 290.453807 
L 382.841729 290.590725 
L 382.841729 290.727643 
L 382.290294 291.135953 
L 382.290294 291.407345 
L 382.841729 291.135953 
L 382.841729 291.270427 
L 382.476641 291.135953 
L 382.10775 291.407345 
L 382.10775 291.678737 
L 382.476641 291.544263 
L 382.659185 291.135953 
L 382.659185 291.135953 
L 382.10775 291.678737 
L 381.738859 290.999035 
L 381.556315 290.862117 
L 381.369968 291.135953 
L 381.556315 291.407345 
L 382.10775 291.678737 
L 382.10775 291.678737 
L 381.921403 291.678737 
L 381.738859 291.815655 
L 381.738859 291.678737 
L 382.10775 291.270427 
L 382.10775 290.999035 
L 382.10775 291.815655 
L 381.187424 291.815655 
L 381.369968 291.952573 
L 381.187424 291.952573 
L 381.001076 292.223965 
L 381.187424 292.495357 
L 381.369968 292.358438 
L 381.001076 291.815655 
L 380.818532 291.815655 
L 381.001076 291.815655 
L 381.187424 291.952573 
L 380.449641 292.495357 
L 380.449641 292.766748 
L 380.449641 292.766748 
L 380.08075 292.632275 
L 379.898206 292.766748 
L 379.898206 292.632275 
L 379.715662 292.632275 
L 379.529315 293.040585 
L 379.715662 293.175058 
L 380.08075 292.903667 
L 379.898206 292.766748 
L 380.08075 292.766748 
L 380.267097 292.903667 
L 380.08075 293.040585 
L 379.715662 293.040585 
L 379.346771 292.632275 
L 379.160424 292.495357 
L 379.529315 292.903667 
L 379.529315 293.175058 
L 379.160424 293.175058 
L 378.608989 292.903667 
L 378.426445 293.040585 
L 378.240098 293.040585 
L 378.240098 292.903667 
L 378.426445 293.040585 
L 378.608989 293.583368 
L 378.426445 293.857205 
L 378.426445 293.720287 
L 378.97788 293.448895 
L 378.795336 293.311977 
L 378.240098 293.175058 
L 378.608989 293.720287 
L 378.608989 293.720287 
L 378.97788 293.583368 
L 379.160424 293.991678 
L 378.97788 294.265515 
L 378.240098 294.265515 
L 377.688663 294.399988 
L 377.87501 294.399988 
L 378.240098 294.536907 
L 378.426445 294.399988 
L 378.426445 294.399988 
L 378.057554 294.399988 
L 377.688663 294.536907 
L 377.688663 294.536907 
L 377.688663 294.399988 
L 377.87501 294.128597 
L 378.426445 294.399988 
L 378.97788 294.945217 
L 378.97788 295.353527 
L 378.426445 295.07969 
L 377.323575 294.399988 
L 377.323575 294.808298 
L 377.137228 294.945217 
L 377.506119 294.808298 
L 378.240098 295.07969 
L 378.240098 294.945217 
L 377.688663 294.945217 
L 377.137228 294.536907 
L 376.768337 295.353527 
L 376.954684 295.353527 
L 376.216902 295.353527 
L 376.585793 295.216608 
L 376.216902 295.216608 
L 375.482923 295.488 
L 374.193706 295.488 
L 369.774619 294.808298 
L 367.199988 294.265515 
L 364.070118 293.448895 
L 355.422095 292.632275 
L 350.26903 292.358438 
L 337.015573 291.135953 
L 329.47042 289.911023 
L 312.722006 286.915935 
L 293.39896 283.788819 
L 266.713306 279.16049 
L 258.06148 277.664169 
L 240.210196 273.717987 
L 208.554019 266.644689 
L 182.4198 259.023718 
L 177.266734 257.390478 
L 172.48256 256.031074 
L 167.698385 254.943063 
L 163.461843 253.718133 
L 159.966885 252.221811 
L 157.023363 250.451653 
L 151.501406 247.45901 
L 148.922972 245.41746 
L 148.371537 244.329448 
L 148.002646 243.37591 
L 148.557884 243.104518 
L 149.47821 242.153425 
L 149.843298 241.879588 
L 150.949971 242.016506 
L 153.155711 242.016506 
L 153.893493 242.696208 
L 154.81382 242.9676 
L 156.654472 242.9676 
L 157.023363 242.833126 
L 157.023363 242.696208 
L 157.023363 242.696208 
L 157.388451 242.833126 
L 157.943689 242.833126 
L 158.495124 242.696208 
L 158.495124 242.9676 
L 157.943689 243.104518 
L 157.388451 243.37591 
L 157.023363 243.37591 
L 157.574798 242.9676 
L 158.308777 242.9676 
L 157.943689 242.696208 
L 157.757342 242.833126 
L 157.757342 242.696208 
L 157.757342 242.561735 
L 158.308777 242.561735 
L 158.677668 242.287898 
L 158.495124 241.879588 
L 158.126233 241.745115 
L 157.943689 242.287898 
L 157.943689 242.153425 
L 157.943689 241.879588 
L 158.126233 241.879588 
L 158.308777 242.016506 
L 159.046559 242.287898 
L 159.229103 241.879588 
L 159.229103 241.336805 
L 159.41545 241.199886 
L 159.41545 241.608196 
L 159.229103 242.016506 
L 158.864015 242.287898 
L 158.495124 242.287898 
L 158.677668 242.287898 
L 158.677668 242.153425 
L 158.495124 241.879588 
L 157.757342 242.153425 
L 157.205907 242.153425 
L 157.574798 242.696208 
L 157.943689 242.016506 
L 158.126233 242.016506 
L 157.943689 242.287898 
L 157.388451 242.287898 
L 157.388451 242.424816 
L 157.943689 242.287898 
L 159.046559 242.287898 
L 159.046559 242.561735 
L 158.677668 243.104518 
L 157.943689 243.241436 
L 157.388451 242.561735 
L 157.023363 242.561735 
L 156.837016 242.287898 
L 158.126233 242.016506 
L 158.677668 242.287898 
L 158.864015 242.833126 
L 158.126233 242.153425 
L 158.126233 242.153425 
L 157.943689 242.016506 
L 157.757342 242.016506 
L 157.388451 242.287898 
L 157.574798 242.561735 
L 157.943689 242.696208 
L 157.757342 242.696208 
L 157.574798 242.696208 
L 158.126233 242.153425 
L 157.574798 242.424816 
L 156.654472 242.9676 
L 157.388451 242.696208 
L 158.126233 242.696208 
L 158.308777 242.9676 
L 157.757342 243.104518 
L 157.757342 243.104518 
L 157.757342 242.9676 
L 157.574798 242.696208 
L 157.943689 242.561735 
L 157.943689 242.561735 
L 158.126233 242.833126 
L 157.757342 243.649746 
L 157.388451 243.78422 
L 157.205907 243.649746 
L 157.205907 242.9676 
L 157.943689 243.512828 
L 157.388451 243.921138 
L 156.837016 243.921138 
L 156.837016 244.058056 
L 157.023363 244.19253 
L 156.837016 244.19253 
L 156.468125 244.329448 
L 156.468125 244.60084 
L 156.285581 244.60084 
L 156.285581 244.466366 
L 156.654472 244.329448 
L 156.654472 244.19253 
L 156.103037 244.058056 
L 156.103037 244.19253 
L 156.468125 244.058056 
L 156.837016 244.19253 
L 156.654472 244.19253 
L 156.468125 243.78422 
L 156.468125 243.921138 
L 156.285581 244.058056 
L 156.654472 244.60084 
L 157.023363 244.466366 
L 157.205907 244.19253 
L 157.023363 244.19253 
L 156.285581 244.874676 
L 156.285581 245.00915 
L 156.468125 244.874676 
L 156.285581 244.60084 
L 156.285581 244.737758 
L 156.837016 244.60084 
L 157.205907 244.19253 
L 157.205907 244.60084 
L 156.837016 245.00915 
L 156.285581 245.00915 
L 155.734146 244.874676 
L 155.734146 244.737758 
L 156.103037 244.60084 
L 156.654472 244.60084 
L 157.023363 244.874676 
L 156.654472 244.737758 
L 156.654472 245.00915 
L 156.285581 245.146068 
L 155.91669 245.00915 
L 155.551602 245.00915 
L 155.551602 245.41746 
L 156.468125 245.554378 
L 156.468125 245.00915 
L 156.837016 244.737758 
L 157.205907 244.874676 
L 157.023363 245.282986 
L 156.468125 245.554378 
L 156.285581 245.82577 
L 155.91669 245.554378 
L 155.365255 245.41746 
L 156.103037 245.962688 
L 156.468125 245.82577 
L 156.285581 245.41746 
L 156.103037 245.282986 
L 155.734146 245.282986 
L 155.365255 245.41746 
L 155.365255 245.146068 
L 155.551602 245.146068 
L 156.285581 245.82577 
L 156.103037 246.097161 
L 156.103037 246.23408 
L 156.103037 245.962688 
L 156.285581 245.554378 
L 156.654472 245.41746 
L 156.837016 245.688851 
L 156.654472 245.962688 
L 156.468125 245.962688 
L 156.285581 245.82577 
L 156.468125 245.962688 
L 156.654472 245.962688 
L 156.654472 245.688851 
L 156.285581 245.554378 
L 155.734146 245.554378 
L 156.103037 245.554378 
L 156.837016 245.82577 
L 156.837016 245.82577 
L 156.837016 245.41746 
L 155.551602 245.962688 
L 154.996364 245.962688 
L 155.365255 245.688851 
L 156.285581 245.688851 
L 157.023363 245.82577 
L 157.023363 245.962688 
L 156.654472 245.688851 
L 156.654472 245.41746 
L 156.468125 245.282986 
L 156.285581 245.00915 
L 156.654472 245.554378 
L 156.468125 245.962688 
L 156.103037 245.82577 
L 155.734146 245.554378 
L 155.91669 245.41746 
L 156.468125 245.41746 
L 156.654472 245.282986 
L 156.654472 245.282986 
L 156.468125 245.146068 
L 156.103037 244.737758 
L 156.103037 244.466366 
L 156.468125 244.60084 
L 157.388451 244.329448 
L 157.023363 244.60084 
L 156.285581 244.874676 
L 156.103037 244.737758 
L 156.468125 244.329448 
L 157.205907 244.058056 
L 157.023363 244.19253 
L 156.285581 244.058056 
L 155.734146 243.78422 
L 155.91669 243.78422 
L 156.468125 243.921138 
L 156.654472 243.78422 
L 156.468125 243.649746 
L 156.468125 244.19253 
L 156.837016 244.19253 
L 157.943689 243.78422 
L 157.757342 243.78422 
L 157.205907 243.78422 
L 156.837016 243.921138 
L 156.837016 244.19253 
L 156.837016 243.37591 
L 156.654472 242.833126 
L 156.468125 242.833126 
L 156.654472 243.241436 
L 156.654472 243.921138 
L 156.468125 243.921138 
L 156.468125 243.921138 
L 156.468125 243.649746 
L 156.654472 243.649746 
L 156.654472 243.37591 
L 156.654472 243.649746 
L 156.468125 244.058056 
L 156.285581 244.058056 
L 156.468125 244.19253 
L 157.023363 244.058056 
L 157.205907 243.78422 
L 157.205907 243.37591 
L 157.388451 243.37591 
L 157.574798 243.512828 
L 157.205907 243.921138 
L 157.205907 243.921138 
L 157.023363 243.921138 
L 157.205907 244.058056 
L 157.388451 243.649746 
L 157.023363 243.78422 
L 156.468125 243.512828 
L 156.837016 243.649746 
L 156.837016 243.512828 
L 156.468125 243.78422 
L 156.654472 243.649746 
L 156.654472 243.241436 
L 156.837016 242.833126 
L 156.468125 242.696208 
L 156.285581 242.9676 
L 156.468125 243.241436 
L 157.023363 243.241436 
L 157.023363 243.512828 
L 156.837016 243.649746 
L 156.468125 243.512828 
L 156.468125 243.241436 
L 156.468125 243.241436 
L 156.103037 243.512828 
L 156.468125 243.649746 
L 156.654472 243.921138 
L 156.654472 243.78422 
L 156.285581 243.649746 
L 156.285581 243.512828 
L 156.468125 243.512828 
L 156.837016 243.37591 
L 156.837016 243.241436 
L 156.468125 243.241436 
L 156.468125 243.104518 
L 156.837016 243.241436 
L 156.837016 243.512828 
L 157.023363 243.649746 
L 157.205907 243.241436 
L 156.837016 243.241436 
L 155.91669 243.649746 
L 156.103037 243.512828 
L 156.103037 243.241436 
L 155.734146 243.241436 
L 155.734146 243.37591 
L 156.468125 243.37591 
L 156.285581 243.37591 
L 156.103037 243.104518 
L 156.468125 243.512828 
L 156.654472 243.241436 
L 155.91669 243.78422 
L 155.365255 243.78422 
L 155.182711 243.921138 
L 155.551602 243.921138 
L 155.91669 244.19253 
L 155.734146 244.19253 
L 155.551602 244.19253 
L 155.365255 244.058056 
L 155.551602 244.329448 
L 155.551602 244.058056 
L 155.365255 243.649746 
L 155.365255 243.512828 
L 155.734146 243.241436 
L 155.551602 243.37591 
L 155.182711 244.058056 
L 155.365255 243.921138 
L 155.551602 243.921138 
L 154.631276 243.921138 
L 154.262385 243.78422 
L 154.631276 243.78422 
L 155.734146 244.19253 
L 155.365255 244.19253 
L 155.365255 244.329448 
L 155.365255 244.329448 
L 154.996364 244.329448 
L 154.81382 244.466366 
L 155.182711 244.874676 
L 155.182711 244.874676 
L 155.182711 244.737758 
L 154.81382 244.737758 
L 154.996364 244.60084 
L 155.551602 244.329448 
L 155.91669 244.466366 
L 155.365255 244.60084 
L 154.444929 244.60084 
L 154.81382 245.00915 
L 154.81382 245.00915 
L 154.444929 245.41746 
L 154.444929 245.41746 
L 154.81382 245.41746 
L 154.996364 245.282986 
L 154.262385 244.60084 
L 154.631276 244.737758 
L 155.182711 245.146068 
L 155.182711 245.41746 
L 154.996364 245.41746 
L 154.631276 244.737758 
L 154.631276 244.60084 
L 155.365255 245.146068 
L 154.81382 245.962688 
L 155.182711 245.82577 
L 155.365255 245.41746 
L 154.444929 244.874676 
L 154.631276 244.737758 
L 155.551602 244.874676 
L 155.551602 244.874676 
L 155.182711 245.00915 
L 154.996364 245.282986 
L 154.444929 245.41746 
L 154.262385 245.282986 
L 154.262385 245.00915 
L 154.444929 245.00915 
L 154.631276 245.146068 
L 154.631276 245.41746 
L 154.996364 245.82577 
L 154.996364 245.41746 
L 154.81382 245.00915 
L 154.81382 245.00915 
L 154.81382 245.41746 
L 154.81382 245.146068 
L 154.631276 245.00915 
L 154.444929 245.282986 
L 154.81382 245.688851 
L 154.81382 245.41746 
L 154.81382 245.41746 
" style="fill:none;stroke:#1f77b4;stroke-linecap:square;stroke-width:1.5;"/>
   </g>
   <g id="matplotlib.axis_1">
    <g id="xtick_1">
     <g id="line2d_2">
      <defs>
       <path d="M 0 0 
L 0 3.5 
" id="md03e7a1bd4" style="stroke:#000000;stroke-width:0.8;"/>
      </defs>
      <g>
       <use style="stroke:#000000;stroke-width:0.8;" x="79.761605" xlink:href="#md03e7a1bd4" y="307.584"/>
      </g>
     </g>
     <g id="text_1">
      <!-- −600 -->
      <defs>
       <path d="M 10.59375 35.5 
L 73.1875 35.5 
L 73.1875 27.203125 
L 10.59375 27.203125 
z
" id="DejaVuSans-8722"/>
       <path d="M 33.015625 40.375 
Q 26.375 40.375 22.484375 35.828125 
Q 18.609375 31.296875 18.609375 23.390625 
Q 18.609375 15.53125 22.484375 10.953125 
Q 26.375 6.390625 33.015625 6.390625 
Q 39.65625 6.390625 43.53125 10.953125 
Q 47.40625 15.53125 47.40625 23.390625 
Q 47.40625 31.296875 43.53125 35.828125 
Q 39.65625 40.375 33.015625 40.375 
z
M 52.59375 71.296875 
L 52.59375 62.3125 
Q 48.875 64.0625 45.09375 64.984375 
Q 41.3125 65.921875 37.59375 65.921875 
Q 27.828125 65.921875 22.671875 59.328125 
Q 17.53125 52.734375 16.796875 39.40625 
Q 19.671875 43.65625 24.015625 45.921875 
Q 28.375 48.1875 33.59375 48.1875 
Q 44.578125 48.1875 50.953125 41.515625 
Q 57.328125 34.859375 57.328125 23.390625 
Q 57.328125 12.15625 50.6875 5.359375 
Q 44.046875 -1.421875 33.015625 -1.421875 
Q 20.359375 -1.421875 13.671875 8.265625 
Q 6.984375 17.96875 6.984375 36.375 
Q 6.984375 53.65625 15.1875 63.9375 
Q 23.390625 74.21875 37.203125 74.21875 
Q 40.921875 74.21875 44.703125 73.484375 
Q 48.484375 72.75 52.59375 71.296875 
z
" id="DejaVuSans-54"/>
       <path d="M 31.78125 66.40625 
Q 24.171875 66.40625 20.328125 58.90625 
Q 16.5 51.421875 16.5 36.375 
Q 16.5 21.390625 20.328125 13.890625 
Q 24.171875 6.390625 31.78125 6.390625 
Q 39.453125 6.390625 43.28125 13.890625 
Q 47.125 21.390625 47.125 36.375 
Q 47.125 51.421875 43.28125 58.90625 
Q 39.453125 66.40625 31.78125 66.40625 
z
M 31.78125 74.21875 
Q 44.046875 74.21875 50.515625 64.515625 
Q 56.984375 54.828125 56.984375 36.375 
Q 56.984375 17.96875 50.515625 8.265625 
Q 44.046875 -1.421875 31.78125 -1.421875 
Q 19.53125 -1.421875 13.0625 8.265625 
Q 6.59375 17.96875 6.59375 36.375 
Q 6.59375 54.828125 13.0625 64.515625 
Q 19.53125 74.21875 31.78125 74.21875 
z
" id="DejaVuSans-48"/>
      </defs>
      <g transform="translate(66.028011 322.182437)scale(0.1 -0.1)">
       <use xlink:href="#DejaVuSans-8722"/>
       <use x="83.789062" xlink:href="#DejaVuSans-54"/>
       <use x="147.412109" xlink:href="#DejaVuSans-48"/>
       <use x="211.035156" xlink:href="#DejaVuSans-48"/>
      </g>
     </g>
    </g>
    <g id="xtick_2">
     <g id="line2d_3">
      <g>
       <use style="stroke:#000000;stroke-width:0.8;" x="155.821615" xlink:href="#md03e7a1bd4" y="307.584"/>
      </g>
     </g>
     <g id="text_2">
      <!-- −400 -->
      <defs>
       <path d="M 37.796875 64.3125 
L 12.890625 25.390625 
L 37.796875 25.390625 
z
M 35.203125 72.90625 
L 47.609375 72.90625 
L 47.609375 25.390625 
L 58.015625 25.390625 
L 58.015625 17.1875 
L 47.609375 17.1875 
L 47.609375 0 
L 37.796875 0 
L 37.796875 17.1875 
L 4.890625 17.1875 
L 4.890625 26.703125 
z
" id="DejaVuSans-52"/>
      </defs>
      <g transform="translate(142.088021 322.182437)scale(0.1 -0.1)">
       <use xlink:href="#DejaVuSans-8722"/>
       <use x="83.789062" xlink:href="#DejaVuSans-52"/>
       <use x="147.412109" xlink:href="#DejaVuSans-48"/>
       <use x="211.035156" xlink:href="#DejaVuSans-48"/>
      </g>
     </g>
    </g>
    <g id="xtick_3">
     <g id="line2d_4">
      <g>
       <use style="stroke:#000000;stroke-width:0.8;" x="231.881624" xlink:href="#md03e7a1bd4" y="307.584"/>
      </g>
     </g>
     <g id="text_3">
      <!-- −200 -->
      <defs>
       <path d="M 19.1875 8.296875 
L 53.609375 8.296875 
L 53.609375 0 
L 7.328125 0 
L 7.328125 8.296875 
Q 12.9375 14.109375 22.625 23.890625 
Q 32.328125 33.6875 34.8125 36.53125 
Q 39.546875 41.84375 41.421875 45.53125 
Q 43.3125 49.21875 43.3125 52.78125 
Q 43.3125 58.59375 39.234375 62.25 
Q 35.15625 65.921875 28.609375 65.921875 
Q 23.96875 65.921875 18.8125 64.3125 
Q 13.671875 62.703125 7.8125 59.421875 
L 7.8125 69.390625 
Q 13.765625 71.78125 18.9375 73 
Q 24.125 74.21875 28.421875 74.21875 
Q 39.75 74.21875 46.484375 68.546875 
Q 53.21875 62.890625 53.21875 53.421875 
Q 53.21875 48.921875 51.53125 44.890625 
Q 49.859375 40.875 45.40625 35.40625 
Q 44.1875 33.984375 37.640625 27.21875 
Q 31.109375 20.453125 19.1875 8.296875 
z
" id="DejaVuSans-50"/>
      </defs>
      <g transform="translate(218.148031 322.182437)scale(0.1 -0.1)">
       <use xlink:href="#DejaVuSans-8722"/>
       <use x="83.789062" xlink:href="#DejaVuSans-50"/>
       <use x="147.412109" xlink:href="#DejaVuSans-48"/>
       <use x="211.035156" xlink:href="#DejaVuSans-48"/>
      </g>
     </g>
    </g>
    <g id="xtick_4">
     <g id="line2d_5">
      <g>
       <use style="stroke:#000000;stroke-width:0.8;" x="307.941634" xlink:href="#md03e7a1bd4" y="307.584"/>
      </g>
     </g>
     <g id="text_4">
      <!-- 0 -->
      <g transform="translate(304.760384 322.182437)scale(0.1 -0.1)">
       <use xlink:href="#DejaVuSans-48"/>
      </g>
     </g>
    </g>
    <g id="xtick_5">
     <g id="line2d_6">
      <g>
       <use style="stroke:#000000;stroke-width:0.8;" x="384.001644" xlink:href="#md03e7a1bd4" y="307.584"/>
      </g>
     </g>
     <g id="text_5">
      <!-- 200 -->
      <g transform="translate(374.457894 322.182437)scale(0.1 -0.1)">
       <use xlink:href="#DejaVuSans-50"/>
       <use x="63.623047" xlink:href="#DejaVuSans-48"/>
       <use x="127.246094" xlink:href="#DejaVuSans-48"/>
      </g>
     </g>
    </g>
   </g>
   <g id="matplotlib.axis_2">
    <g id="ytick_1">
     <g id="line2d_7">
      <defs>
       <path d="M 0 0 
L -3.5 0 
" id="m1ec3a9d9ff" style="stroke:#000000;stroke-width:0.8;"/>
      </defs>
      <g>
       <use style="stroke:#000000;stroke-width:0.8;" x="57.6" xlink:href="#m1ec3a9d9ff" y="263.378209"/>
      </g>
     </g>
     <g id="text_6">
      <!-- 0 -->
      <g transform="translate(44.2375 267.177428)scale(0.1 -0.1)">
       <use xlink:href="#DejaVuSans-48"/>
      </g>
     </g>
    </g>
    <g id="ytick_2">
     <g id="line2d_8">
      <g>
       <use style="stroke:#000000;stroke-width:0.8;" x="57.6" xlink:href="#m1ec3a9d9ff" y="214.47881"/>
      </g>
     </g>
     <g id="text_7">
      <!-- 200 -->
      <g transform="translate(31.5125 218.278028)scale(0.1 -0.1)">
       <use xlink:href="#DejaVuSans-50"/>
       <use x="63.623047" xlink:href="#DejaVuSans-48"/>
       <use x="127.246094" xlink:href="#DejaVuSans-48"/>
      </g>
     </g>
    </g>
    <g id="ytick_3">
     <g id="line2d_9">
      <g>
       <use style="stroke:#000000;stroke-width:0.8;" x="57.6" xlink:href="#m1ec3a9d9ff" y="165.57941"/>
      </g>
     </g>
     <g id="text_8">
      <!-- 400 -->
      <g transform="translate(31.5125 169.378629)scale(0.1 -0.1)">
       <use xlink:href="#DejaVuSans-52"/>
       <use x="63.623047" xlink:href="#DejaVuSans-48"/>
       <use x="127.246094" xlink:href="#DejaVuSans-48"/>
      </g>
     </g>
    </g>
    <g id="ytick_4">
     <g id="line2d_10">
      <g>
       <use style="stroke:#000000;stroke-width:0.8;" x="57.6" xlink:href="#m1ec3a9d9ff" y="116.68001"/>
      </g>
     </g>
     <g id="text_9">
      <!-- 600 -->
      <g transform="translate(31.5125 120.479229)scale(0.1 -0.1)">
       <use xlink:href="#DejaVuSans-54"/>
       <use x="63.623047" xlink:href="#DejaVuSans-48"/>
       <use x="127.246094" xlink:href="#DejaVuSans-48"/>
      </g>
     </g>
    </g>
    <g id="ytick_5">
     <g id="line2d_11">
      <g>
       <use style="stroke:#000000;stroke-width:0.8;" x="57.6" xlink:href="#m1ec3a9d9ff" y="67.780611"/>
      </g>
     </g>
     <g id="text_10">
      <!-- 800 -->
      <defs>
       <path d="M 31.78125 34.625 
Q 24.75 34.625 20.71875 30.859375 
Q 16.703125 27.09375 16.703125 20.515625 
Q 16.703125 13.921875 20.71875 10.15625 
Q 24.75 6.390625 31.78125 6.390625 
Q 38.8125 6.390625 42.859375 10.171875 
Q 46.921875 13.96875 46.921875 20.515625 
Q 46.921875 27.09375 42.890625 30.859375 
Q 38.875 34.625 31.78125 34.625 
z
M 21.921875 38.8125 
Q 15.578125 40.375 12.03125 44.71875 
Q 8.5 49.078125 8.5 55.328125 
Q 8.5 64.0625 14.71875 69.140625 
Q 20.953125 74.21875 31.78125 74.21875 
Q 42.671875 74.21875 48.875 69.140625 
Q 55.078125 64.0625 55.078125 55.328125 
Q 55.078125 49.078125 51.53125 44.71875 
Q 48 40.375 41.703125 38.8125 
Q 48.828125 37.15625 52.796875 32.3125 
Q 56.78125 27.484375 56.78125 20.515625 
Q 56.78125 9.90625 50.3125 4.234375 
Q 43.84375 -1.421875 31.78125 -1.421875 
Q 19.734375 -1.421875 13.25 4.234375 
Q 6.78125 9.90625 6.78125 20.515625 
Q 6.78125 27.484375 10.78125 32.3125 
Q 14.796875 37.15625 21.921875 38.8125 
z
M 18.3125 54.390625 
Q 18.3125 48.734375 21.84375 45.5625 
Q 25.390625 42.390625 31.78125 42.390625 
Q 38.140625 42.390625 41.71875 45.5625 
Q 45.3125 48.734375 45.3125 54.390625 
Q 45.3125 60.0625 41.71875 63.234375 
Q 38.140625 66.40625 31.78125 66.40625 
Q 25.390625 66.40625 21.84375 63.234375 
Q 18.3125 60.0625 18.3125 54.390625 
z
" id="DejaVuSans-56"/>
      </defs>
      <g transform="translate(31.5125 71.579829)scale(0.1 -0.1)">
       <use xlink:href="#DejaVuSans-56"/>
       <use x="63.623047" xlink:href="#DejaVuSans-48"/>
       <use x="127.246094" xlink:href="#DejaVuSans-48"/>
      </g>
     </g>
    </g>
   </g>
   <g id="line2d_12">
    <path clip-path="url(#pade9cac605)" d="M 77.164156 55.540111 
L 280.608535 255.144027 
L 133.486175 246.474896 
L 118.701571 254.281207 
L 373.464108 277.97955 
L 360.50443 283.832719 
L 383.336964 291.360814 
L 156.482915 244.129099 
" style="fill:none;stroke:#ff0000;stroke-linecap:square;stroke-width:0.5;"/>
   </g>
   <g id="patch_3">
    <path d="M 57.6 307.584 
L 57.6 41.472 
" style="fill:none;stroke:#000000;stroke-linecap:square;stroke-linejoin:miter;stroke-width:0.8;"/>
   </g>
   <g id="patch_4">
    <path d="M 414.72 307.584 
L 414.72 41.472 
" style="fill:none;stroke:#000000;stroke-linecap:square;stroke-linejoin:miter;stroke-width:0.8;"/>
   </g>
   <g id="patch_5">
    <path d="M 57.6 307.584 
L 414.72 307.584 
" style="fill:none;stroke:#000000;stroke-linecap:square;stroke-linejoin:miter;stroke-width:0.8;"/>
   </g>
   <g id="patch_6">
    <path d="M 57.6 41.472 
L 414.72 41.472 
" style="fill:none;stroke:#000000;stroke-linecap:square;stroke-linejoin:miter;stroke-width:0.8;"/>
   </g>
   <g id="PathCollection_1">
    <defs>
     <path d="M 0 2.738613 
C 0.726289 2.738613 1.422928 2.450055 1.936492 1.936492 
C 2.450055 1.422928 2.738613 0.726289 2.738613 0 
C 2.738613 -0.726289 2.450055 -1.422928 1.936492 -1.936492 
C 1.422928 -2.450055 0.726289 -2.738613 0 -2.738613 
C -0.726289 -2.738613 -1.422928 -2.450055 -1.936492 -1.936492 
C -2.450055 -1.422928 -2.738613 -0.726289 -2.738613 0 
C -2.738613 0.726289 -2.450055 1.422928 -1.936492 1.936492 
C -1.422928 2.450055 -0.726289 2.738613 0 2.738613 
z
" id="m6ac9abd30c" style="stroke:#ff0000;"/>
    </defs>
    <g clip-path="url(#pade9cac605)">
     <use style="fill:#ff0000;stroke:#ff0000;" x="77.164156" xlink:href="#m6ac9abd30c" y="55.540111"/>
     <use style="fill:#ff0000;stroke:#ff0000;" x="280.608535" xlink:href="#m6ac9abd30c" y="255.144027"/>
     <use style="fill:#ff0000;stroke:#ff0000;" x="133.486175" xlink:href="#m6ac9abd30c" y="246.474896"/>
     <use style="fill:#ff0000;stroke:#ff0000;" x="118.701571" xlink:href="#m6ac9abd30c" y="254.281207"/>
     <use style="fill:#ff0000;stroke:#ff0000;" x="373.464108" xlink:href="#m6ac9abd30c" y="277.97955"/>
     <use style="fill:#ff0000;stroke:#ff0000;" x="360.50443" xlink:href="#m6ac9abd30c" y="283.832719"/>
     <use style="fill:#ff0000;stroke:#ff0000;" x="383.336964" xlink:href="#m6ac9abd30c" y="291.360814"/>
     <use style="fill:#ff0000;stroke:#ff0000;" x="156.482915" xlink:href="#m6ac9abd30c" y="244.129099"/>
    </g>
   </g>
   <g id="text_11">
    <!-- (123) Subject: s7, Known = False, Degree = 1, Duration = 0.1 -->
    <defs>
     <path d="M 31 75.875 
Q 24.46875 64.65625 21.28125 53.65625 
Q 18.109375 42.671875 18.109375 31.390625 
Q 18.109375 20.125 21.3125 9.0625 
Q 24.515625 -2 31 -13.1875 
L 23.1875 -13.1875 
Q 15.875 -1.703125 12.234375 9.375 
Q 8.59375 20.453125 8.59375 31.390625 
Q 8.59375 42.28125 12.203125 53.3125 
Q 15.828125 64.359375 23.1875 75.875 
z
" id="DejaVuSans-40"/>
     <path d="M 12.40625 8.296875 
L 28.515625 8.296875 
L 28.515625 63.921875 
L 10.984375 60.40625 
L 10.984375 69.390625 
L 28.421875 72.90625 
L 38.28125 72.90625 
L 38.28125 8.296875 
L 54.390625 8.296875 
L 54.390625 0 
L 12.40625 0 
z
" id="DejaVuSans-49"/>
     <path d="M 40.578125 39.3125 
Q 47.65625 37.796875 51.625 33 
Q 55.609375 28.21875 55.609375 21.1875 
Q 55.609375 10.40625 48.1875 4.484375 
Q 40.765625 -1.421875 27.09375 -1.421875 
Q 22.515625 -1.421875 17.65625 -0.515625 
Q 12.796875 0.390625 7.625 2.203125 
L 7.625 11.71875 
Q 11.71875 9.328125 16.59375 8.109375 
Q 21.484375 6.890625 26.8125 6.890625 
Q 36.078125 6.890625 40.9375 10.546875 
Q 45.796875 14.203125 45.796875 21.1875 
Q 45.796875 27.640625 41.28125 31.265625 
Q 36.765625 34.90625 28.71875 34.90625 
L 20.21875 34.90625 
L 20.21875 43.015625 
L 29.109375 43.015625 
Q 36.375 43.015625 40.234375 45.921875 
Q 44.09375 48.828125 44.09375 54.296875 
Q 44.09375 59.90625 40.109375 62.90625 
Q 36.140625 65.921875 28.71875 65.921875 
Q 24.65625 65.921875 20.015625 65.03125 
Q 15.375 64.15625 9.8125 62.3125 
L 9.8125 71.09375 
Q 15.4375 72.65625 20.34375 73.4375 
Q 25.25 74.21875 29.59375 74.21875 
Q 40.828125 74.21875 47.359375 69.109375 
Q 53.90625 64.015625 53.90625 55.328125 
Q 53.90625 49.265625 50.4375 45.09375 
Q 46.96875 40.921875 40.578125 39.3125 
z
" id="DejaVuSans-51"/>
     <path d="M 8.015625 75.875 
L 15.828125 75.875 
Q 23.140625 64.359375 26.78125 53.3125 
Q 30.421875 42.28125 30.421875 31.390625 
Q 30.421875 20.453125 26.78125 9.375 
Q 23.140625 -1.703125 15.828125 -13.1875 
L 8.015625 -13.1875 
Q 14.5 -2 17.703125 9.0625 
Q 20.90625 20.125 20.90625 31.390625 
Q 20.90625 42.671875 17.703125 53.65625 
Q 14.5 64.65625 8.015625 75.875 
z
" id="DejaVuSans-41"/>
     <path id="DejaVuSans-32"/>
     <path d="M 53.515625 70.515625 
L 53.515625 60.890625 
Q 47.90625 63.578125 42.921875 64.890625 
Q 37.9375 66.21875 33.296875 66.21875 
Q 25.25 66.21875 20.875 63.09375 
Q 16.5 59.96875 16.5 54.203125 
Q 16.5 49.359375 19.40625 46.890625 
Q 22.3125 44.4375 30.421875 42.921875 
L 36.375 41.703125 
Q 47.40625 39.59375 52.65625 34.296875 
Q 57.90625 29 57.90625 20.125 
Q 57.90625 9.515625 50.796875 4.046875 
Q 43.703125 -1.421875 29.984375 -1.421875 
Q 24.8125 -1.421875 18.96875 -0.25 
Q 13.140625 0.921875 6.890625 3.21875 
L 6.890625 13.375 
Q 12.890625 10.015625 18.65625 8.296875 
Q 24.421875 6.59375 29.984375 6.59375 
Q 38.421875 6.59375 43.015625 9.90625 
Q 47.609375 13.234375 47.609375 19.390625 
Q 47.609375 24.75 44.3125 27.78125 
Q 41.015625 30.8125 33.5 32.328125 
L 27.484375 33.5 
Q 16.453125 35.6875 11.515625 40.375 
Q 6.59375 45.0625 6.59375 53.421875 
Q 6.59375 63.09375 13.40625 68.65625 
Q 20.21875 74.21875 32.171875 74.21875 
Q 37.3125 74.21875 42.625 73.28125 
Q 47.953125 72.359375 53.515625 70.515625 
z
" id="DejaVuSans-83"/>
     <path d="M 8.5 21.578125 
L 8.5 54.6875 
L 17.484375 54.6875 
L 17.484375 21.921875 
Q 17.484375 14.15625 20.5 10.265625 
Q 23.53125 6.390625 29.59375 6.390625 
Q 36.859375 6.390625 41.078125 11.03125 
Q 45.3125 15.671875 45.3125 23.6875 
L 45.3125 54.6875 
L 54.296875 54.6875 
L 54.296875 0 
L 45.3125 0 
L 45.3125 8.40625 
Q 42.046875 3.421875 37.71875 1 
Q 33.40625 -1.421875 27.6875 -1.421875 
Q 18.265625 -1.421875 13.375 4.4375 
Q 8.5 10.296875 8.5 21.578125 
z
M 31.109375 56 
z
" id="DejaVuSans-117"/>
     <path d="M 48.6875 27.296875 
Q 48.6875 37.203125 44.609375 42.84375 
Q 40.53125 48.484375 33.40625 48.484375 
Q 26.265625 48.484375 22.1875 42.84375 
Q 18.109375 37.203125 18.109375 27.296875 
Q 18.109375 17.390625 22.1875 11.75 
Q 26.265625 6.109375 33.40625 6.109375 
Q 40.53125 6.109375 44.609375 11.75 
Q 48.6875 17.390625 48.6875 27.296875 
z
M 18.109375 46.390625 
Q 20.953125 51.265625 25.265625 53.625 
Q 29.59375 56 35.59375 56 
Q 45.5625 56 51.78125 48.09375 
Q 58.015625 40.1875 58.015625 27.296875 
Q 58.015625 14.40625 51.78125 6.484375 
Q 45.5625 -1.421875 35.59375 -1.421875 
Q 29.59375 -1.421875 25.265625 0.953125 
Q 20.953125 3.328125 18.109375 8.203125 
L 18.109375 0 
L 9.078125 0 
L 9.078125 75.984375 
L 18.109375 75.984375 
z
" id="DejaVuSans-98"/>
     <path d="M 9.421875 54.6875 
L 18.40625 54.6875 
L 18.40625 -0.984375 
Q 18.40625 -11.421875 14.421875 -16.109375 
Q 10.453125 -20.796875 1.609375 -20.796875 
L -1.8125 -20.796875 
L -1.8125 -13.1875 
L 0.59375 -13.1875 
Q 5.71875 -13.1875 7.5625 -10.8125 
Q 9.421875 -8.453125 9.421875 -0.984375 
z
M 9.421875 75.984375 
L 18.40625 75.984375 
L 18.40625 64.59375 
L 9.421875 64.59375 
z
" id="DejaVuSans-106"/>
     <path d="M 56.203125 29.59375 
L 56.203125 25.203125 
L 14.890625 25.203125 
Q 15.484375 15.921875 20.484375 11.0625 
Q 25.484375 6.203125 34.421875 6.203125 
Q 39.59375 6.203125 44.453125 7.46875 
Q 49.3125 8.734375 54.109375 11.28125 
L 54.109375 2.78125 
Q 49.265625 0.734375 44.1875 -0.34375 
Q 39.109375 -1.421875 33.890625 -1.421875 
Q 20.796875 -1.421875 13.15625 6.1875 
Q 5.515625 13.8125 5.515625 26.8125 
Q 5.515625 40.234375 12.765625 48.109375 
Q 20.015625 56 32.328125 56 
Q 43.359375 56 49.78125 48.890625 
Q 56.203125 41.796875 56.203125 29.59375 
z
M 47.21875 32.234375 
Q 47.125 39.59375 43.09375 43.984375 
Q 39.0625 48.390625 32.421875 48.390625 
Q 24.90625 48.390625 20.390625 44.140625 
Q 15.875 39.890625 15.1875 32.171875 
z
" id="DejaVuSans-101"/>
     <path d="M 48.78125 52.59375 
L 48.78125 44.1875 
Q 44.96875 46.296875 41.140625 47.34375 
Q 37.3125 48.390625 33.40625 48.390625 
Q 24.65625 48.390625 19.8125 42.84375 
Q 14.984375 37.3125 14.984375 27.296875 
Q 14.984375 17.28125 19.8125 11.734375 
Q 24.65625 6.203125 33.40625 6.203125 
Q 37.3125 6.203125 41.140625 7.25 
Q 44.96875 8.296875 48.78125 10.40625 
L 48.78125 2.09375 
Q 45.015625 0.34375 40.984375 -0.53125 
Q 36.96875 -1.421875 32.421875 -1.421875 
Q 20.0625 -1.421875 12.78125 6.34375 
Q 5.515625 14.109375 5.515625 27.296875 
Q 5.515625 40.671875 12.859375 48.328125 
Q 20.21875 56 33.015625 56 
Q 37.15625 56 41.109375 55.140625 
Q 45.0625 54.296875 48.78125 52.59375 
z
" id="DejaVuSans-99"/>
     <path d="M 18.3125 70.21875 
L 18.3125 54.6875 
L 36.8125 54.6875 
L 36.8125 47.703125 
L 18.3125 47.703125 
L 18.3125 18.015625 
Q 18.3125 11.328125 20.140625 9.421875 
Q 21.96875 7.515625 27.59375 7.515625 
L 36.8125 7.515625 
L 36.8125 0 
L 27.59375 0 
Q 17.1875 0 13.234375 3.875 
Q 9.28125 7.765625 9.28125 18.015625 
L 9.28125 47.703125 
L 2.6875 47.703125 
L 2.6875 54.6875 
L 9.28125 54.6875 
L 9.28125 70.21875 
z
" id="DejaVuSans-116"/>
     <path d="M 11.71875 12.40625 
L 22.015625 12.40625 
L 22.015625 0 
L 11.71875 0 
z
M 11.71875 51.703125 
L 22.015625 51.703125 
L 22.015625 39.3125 
L 11.71875 39.3125 
z
" id="DejaVuSans-58"/>
     <path d="M 44.28125 53.078125 
L 44.28125 44.578125 
Q 40.484375 46.53125 36.375 47.5 
Q 32.28125 48.484375 27.875 48.484375 
Q 21.1875 48.484375 17.84375 46.4375 
Q 14.5 44.390625 14.5 40.28125 
Q 14.5 37.15625 16.890625 35.375 
Q 19.28125 33.59375 26.515625 31.984375 
L 29.59375 31.296875 
Q 39.15625 29.25 43.1875 25.515625 
Q 47.21875 21.78125 47.21875 15.09375 
Q 47.21875 7.46875 41.1875 3.015625 
Q 35.15625 -1.421875 24.609375 -1.421875 
Q 20.21875 -1.421875 15.453125 -0.5625 
Q 10.6875 0.296875 5.421875 2 
L 5.421875 11.28125 
Q 10.40625 8.6875 15.234375 7.390625 
Q 20.0625 6.109375 24.8125 6.109375 
Q 31.15625 6.109375 34.5625 8.28125 
Q 37.984375 10.453125 37.984375 14.40625 
Q 37.984375 18.0625 35.515625 20.015625 
Q 33.0625 21.96875 24.703125 23.78125 
L 21.578125 24.515625 
Q 13.234375 26.265625 9.515625 29.90625 
Q 5.8125 33.546875 5.8125 39.890625 
Q 5.8125 47.609375 11.28125 51.796875 
Q 16.75 56 26.8125 56 
Q 31.78125 56 36.171875 55.265625 
Q 40.578125 54.546875 44.28125 53.078125 
z
" id="DejaVuSans-115"/>
     <path d="M 8.203125 72.90625 
L 55.078125 72.90625 
L 55.078125 68.703125 
L 28.609375 0 
L 18.3125 0 
L 43.21875 64.59375 
L 8.203125 64.59375 
z
" id="DejaVuSans-55"/>
     <path d="M 11.71875 12.40625 
L 22.015625 12.40625 
L 22.015625 4 
L 14.015625 -11.625 
L 7.71875 -11.625 
L 11.71875 4 
z
" id="DejaVuSans-44"/>
     <path d="M 9.8125 72.90625 
L 19.671875 72.90625 
L 19.671875 42.09375 
L 52.390625 72.90625 
L 65.09375 72.90625 
L 28.90625 38.921875 
L 67.671875 0 
L 54.6875 0 
L 19.671875 35.109375 
L 19.671875 0 
L 9.8125 0 
z
" id="DejaVuSans-75"/>
     <path d="M 54.890625 33.015625 
L 54.890625 0 
L 45.90625 0 
L 45.90625 32.71875 
Q 45.90625 40.484375 42.875 44.328125 
Q 39.84375 48.1875 33.796875 48.1875 
Q 26.515625 48.1875 22.3125 43.546875 
Q 18.109375 38.921875 18.109375 30.90625 
L 18.109375 0 
L 9.078125 0 
L 9.078125 54.6875 
L 18.109375 54.6875 
L 18.109375 46.1875 
Q 21.34375 51.125 25.703125 53.5625 
Q 30.078125 56 35.796875 56 
Q 45.21875 56 50.046875 50.171875 
Q 54.890625 44.34375 54.890625 33.015625 
z
" id="DejaVuSans-110"/>
     <path d="M 30.609375 48.390625 
Q 23.390625 48.390625 19.1875 42.75 
Q 14.984375 37.109375 14.984375 27.296875 
Q 14.984375 17.484375 19.15625 11.84375 
Q 23.34375 6.203125 30.609375 6.203125 
Q 37.796875 6.203125 41.984375 11.859375 
Q 46.1875 17.53125 46.1875 27.296875 
Q 46.1875 37.015625 41.984375 42.703125 
Q 37.796875 48.390625 30.609375 48.390625 
z
M 30.609375 56 
Q 42.328125 56 49.015625 48.375 
Q 55.71875 40.765625 55.71875 27.296875 
Q 55.71875 13.875 49.015625 6.21875 
Q 42.328125 -1.421875 30.609375 -1.421875 
Q 18.84375 -1.421875 12.171875 6.21875 
Q 5.515625 13.875 5.515625 27.296875 
Q 5.515625 40.765625 12.171875 48.375 
Q 18.84375 56 30.609375 56 
z
" id="DejaVuSans-111"/>
     <path d="M 4.203125 54.6875 
L 13.1875 54.6875 
L 24.421875 12.015625 
L 35.59375 54.6875 
L 46.1875 54.6875 
L 57.421875 12.015625 
L 68.609375 54.6875 
L 77.59375 54.6875 
L 63.28125 0 
L 52.6875 0 
L 40.921875 44.828125 
L 29.109375 0 
L 18.5 0 
z
" id="DejaVuSans-119"/>
     <path d="M 10.59375 45.40625 
L 73.1875 45.40625 
L 73.1875 37.203125 
L 10.59375 37.203125 
z
M 10.59375 25.484375 
L 73.1875 25.484375 
L 73.1875 17.1875 
L 10.59375 17.1875 
z
" id="DejaVuSans-61"/>
     <path d="M 9.8125 72.90625 
L 51.703125 72.90625 
L 51.703125 64.59375 
L 19.671875 64.59375 
L 19.671875 43.109375 
L 48.578125 43.109375 
L 48.578125 34.8125 
L 19.671875 34.8125 
L 19.671875 0 
L 9.8125 0 
z
" id="DejaVuSans-70"/>
     <path d="M 34.28125 27.484375 
Q 23.390625 27.484375 19.1875 25 
Q 14.984375 22.515625 14.984375 16.5 
Q 14.984375 11.71875 18.140625 8.90625 
Q 21.296875 6.109375 26.703125 6.109375 
Q 34.1875 6.109375 38.703125 11.40625 
Q 43.21875 16.703125 43.21875 25.484375 
L 43.21875 27.484375 
z
M 52.203125 31.203125 
L 52.203125 0 
L 43.21875 0 
L 43.21875 8.296875 
Q 40.140625 3.328125 35.546875 0.953125 
Q 30.953125 -1.421875 24.3125 -1.421875 
Q 15.921875 -1.421875 10.953125 3.296875 
Q 6 8.015625 6 15.921875 
Q 6 25.140625 12.171875 29.828125 
Q 18.359375 34.515625 30.609375 34.515625 
L 43.21875 34.515625 
L 43.21875 35.40625 
Q 43.21875 41.609375 39.140625 45 
Q 35.0625 48.390625 27.6875 48.390625 
Q 23 48.390625 18.546875 47.265625 
Q 14.109375 46.140625 10.015625 43.890625 
L 10.015625 52.203125 
Q 14.9375 54.109375 19.578125 55.046875 
Q 24.21875 56 28.609375 56 
Q 40.484375 56 46.34375 49.84375 
Q 52.203125 43.703125 52.203125 31.203125 
z
" id="DejaVuSans-97"/>
     <path d="M 9.421875 75.984375 
L 18.40625 75.984375 
L 18.40625 0 
L 9.421875 0 
z
" id="DejaVuSans-108"/>
     <path d="M 19.671875 64.796875 
L 19.671875 8.109375 
L 31.59375 8.109375 
Q 46.6875 8.109375 53.6875 14.9375 
Q 60.6875 21.78125 60.6875 36.53125 
Q 60.6875 51.171875 53.6875 57.984375 
Q 46.6875 64.796875 31.59375 64.796875 
z
M 9.8125 72.90625 
L 30.078125 72.90625 
Q 51.265625 72.90625 61.171875 64.09375 
Q 71.09375 55.28125 71.09375 36.53125 
Q 71.09375 17.671875 61.125 8.828125 
Q 51.171875 0 30.078125 0 
L 9.8125 0 
z
" id="DejaVuSans-68"/>
     <path d="M 45.40625 27.984375 
Q 45.40625 37.75 41.375 43.109375 
Q 37.359375 48.484375 30.078125 48.484375 
Q 22.859375 48.484375 18.828125 43.109375 
Q 14.796875 37.75 14.796875 27.984375 
Q 14.796875 18.265625 18.828125 12.890625 
Q 22.859375 7.515625 30.078125 7.515625 
Q 37.359375 7.515625 41.375 12.890625 
Q 45.40625 18.265625 45.40625 27.984375 
z
M 54.390625 6.78125 
Q 54.390625 -7.171875 48.1875 -13.984375 
Q 42 -20.796875 29.203125 -20.796875 
Q 24.46875 -20.796875 20.265625 -20.09375 
Q 16.0625 -19.390625 12.109375 -17.921875 
L 12.109375 -9.1875 
Q 16.0625 -11.328125 19.921875 -12.34375 
Q 23.78125 -13.375 27.78125 -13.375 
Q 36.625 -13.375 41.015625 -8.765625 
Q 45.40625 -4.15625 45.40625 5.171875 
L 45.40625 9.625 
Q 42.625 4.78125 38.28125 2.390625 
Q 33.9375 0 27.875 0 
Q 17.828125 0 11.671875 7.65625 
Q 5.515625 15.328125 5.515625 27.984375 
Q 5.515625 40.671875 11.671875 48.328125 
Q 17.828125 56 27.875 56 
Q 33.9375 56 38.28125 53.609375 
Q 42.625 51.21875 45.40625 46.390625 
L 45.40625 54.6875 
L 54.390625 54.6875 
z
" id="DejaVuSans-103"/>
     <path d="M 41.109375 46.296875 
Q 39.59375 47.171875 37.8125 47.578125 
Q 36.03125 48 33.890625 48 
Q 26.265625 48 22.1875 43.046875 
Q 18.109375 38.09375 18.109375 28.8125 
L 18.109375 0 
L 9.078125 0 
L 9.078125 54.6875 
L 18.109375 54.6875 
L 18.109375 46.1875 
Q 20.953125 51.171875 25.484375 53.578125 
Q 30.03125 56 36.53125 56 
Q 37.453125 56 38.578125 55.875 
Q 39.703125 55.765625 41.0625 55.515625 
z
" id="DejaVuSans-114"/>
     <path d="M 9.421875 54.6875 
L 18.40625 54.6875 
L 18.40625 0 
L 9.421875 0 
z
M 9.421875 75.984375 
L 18.40625 75.984375 
L 18.40625 64.59375 
L 9.421875 64.59375 
z
" id="DejaVuSans-105"/>
     <path d="M 10.6875 12.40625 
L 21 12.40625 
L 21 0 
L 10.6875 0 
z
" id="DejaVuSans-46"/>
    </defs>
    <g transform="translate(49.741875 35.472)scale(0.12 -0.12)">
     <use xlink:href="#DejaVuSans-40"/>
     <use x="39.013672" xlink:href="#DejaVuSans-49"/>
     <use x="102.636719" xlink:href="#DejaVuSans-50"/>
     <use x="166.259766" xlink:href="#DejaVuSans-51"/>
     <use x="229.882812" xlink:href="#DejaVuSans-41"/>
     <use x="268.896484" xlink:href="#DejaVuSans-32"/>
     <use x="300.683594" xlink:href="#DejaVuSans-83"/>
     <use x="364.160156" xlink:href="#DejaVuSans-117"/>
     <use x="427.539062" xlink:href="#DejaVuSans-98"/>
     <use x="491.015625" xlink:href="#DejaVuSans-106"/>
     <use x="518.798828" xlink:href="#DejaVuSans-101"/>
     <use x="580.322266" xlink:href="#DejaVuSans-99"/>
     <use x="635.302734" xlink:href="#DejaVuSans-116"/>
     <use x="674.511719" xlink:href="#DejaVuSans-58"/>
     <use x="708.203125" xlink:href="#DejaVuSans-32"/>
     <use x="739.990234" xlink:href="#DejaVuSans-115"/>
     <use x="792.089844" xlink:href="#DejaVuSans-55"/>
     <use x="855.712891" xlink:href="#DejaVuSans-44"/>
     <use x="887.5" xlink:href="#DejaVuSans-32"/>
     <use x="919.287109" xlink:href="#DejaVuSans-75"/>
     <use x="984.863281" xlink:href="#DejaVuSans-110"/>
     <use x="1048.242188" xlink:href="#DejaVuSans-111"/>
     <use x="1109.423828" xlink:href="#DejaVuSans-119"/>
     <use x="1191.210938" xlink:href="#DejaVuSans-110"/>
     <use x="1254.589844" xlink:href="#DejaVuSans-32"/>
     <use x="1286.376953" xlink:href="#DejaVuSans-61"/>
     <use x="1370.166016" xlink:href="#DejaVuSans-32"/>
     <use x="1401.953125" xlink:href="#DejaVuSans-70"/>
     <use x="1459.332031" xlink:href="#DejaVuSans-97"/>
     <use x="1520.611328" xlink:href="#DejaVuSans-108"/>
     <use x="1548.394531" xlink:href="#DejaVuSans-115"/>
     <use x="1600.494141" xlink:href="#DejaVuSans-101"/>
     <use x="1662.017578" xlink:href="#DejaVuSans-44"/>
     <use x="1693.804688" xlink:href="#DejaVuSans-32"/>
     <use x="1725.591797" xlink:href="#DejaVuSans-68"/>
     <use x="1802.59375" xlink:href="#DejaVuSans-101"/>
     <use x="1864.117188" xlink:href="#DejaVuSans-103"/>
     <use x="1927.59375" xlink:href="#DejaVuSans-114"/>
     <use x="1968.675781" xlink:href="#DejaVuSans-101"/>
     <use x="2030.199219" xlink:href="#DejaVuSans-101"/>
     <use x="2091.722656" xlink:href="#DejaVuSans-32"/>
     <use x="2123.509766" xlink:href="#DejaVuSans-61"/>
     <use x="2207.298828" xlink:href="#DejaVuSans-32"/>
     <use x="2239.085938" xlink:href="#DejaVuSans-49"/>
     <use x="2302.708984" xlink:href="#DejaVuSans-44"/>
     <use x="2334.496094" xlink:href="#DejaVuSans-32"/>
     <use x="2366.283203" xlink:href="#DejaVuSans-68"/>
     <use x="2443.285156" xlink:href="#DejaVuSans-117"/>
     <use x="2506.664062" xlink:href="#DejaVuSans-114"/>
     <use x="2547.777344" xlink:href="#DejaVuSans-97"/>
     <use x="2609.056641" xlink:href="#DejaVuSans-116"/>
     <use x="2648.265625" xlink:href="#DejaVuSans-105"/>
     <use x="2676.048828" xlink:href="#DejaVuSans-111"/>
     <use x="2737.230469" xlink:href="#DejaVuSans-110"/>
     <use x="2800.609375" xlink:href="#DejaVuSans-32"/>
     <use x="2832.396484" xlink:href="#DejaVuSans-61"/>
     <use x="2916.185547" xlink:href="#DejaVuSans-32"/>
     <use x="2947.972656" xlink:href="#DejaVuSans-48"/>
     <use x="3011.595703" xlink:href="#DejaVuSans-46"/>
     <use x="3043.382812" xlink:href="#DejaVuSans-49"/>
    </g>
   </g>
  </g>
 </g>
 <defs>
  <clipPath id="pade9cac605">
   <rect height="266.112" width="357.12" x="57.6" y="41.472"/>
  </clipPath>
 </defs>
</svg>
