<?xml version="1.0" encoding="utf-8" standalone="no"?>
<!DOCTYPE svg PUBLIC "-//W3C//DTD SVG 1.1//EN"
  "http://www.w3.org/Graphics/SVG/1.1/DTD/svg11.dtd">
<!-- Created with matplotlib (https://matplotlib.org/) -->
<svg height="345.6pt" version="1.1" viewBox="0 0 460.8 345.6" width="460.8pt" xmlns="http://www.w3.org/2000/svg" xmlns:xlink="http://www.w3.org/1999/xlink">
 <defs>
  <style type="text/css">
*{stroke-linecap:butt;stroke-linejoin:round;}
  </style>
 </defs>
 <g id="figure_1">
  <g id="patch_1">
   <path d="M 0 345.6 
L 460.8 345.6 
L 460.8 0 
L 0 0 
z
" style="fill:#ffffff;"/>
  </g>
  <g id="axes_1">
   <g id="patch_2">
    <path d="M 57.6 307.584 
L 414.72 307.584 
L 414.72 41.472 
L 57.6 41.472 
z
" style="fill:#ffffff;"/>
   </g>
   <g id="line2d_1">
    <path clip-path="url(#p5453ba3fab)" d="M 398.205023 274.226909 
L 397.922773 273.420048 
L 398.111909 273.690965 
L 398.487273 274.226909 
L 398.394159 274.226909 
L 398.205023 274.497826 
L 398.394159 275.304687 
L 398.111909 274.226909 
L 397.922773 274.497826 
L 397.640522 274.497826 
L 398.015886 274.497826 
L 397.922773 274.497826 
L 397.826749 274.765798 
L 398.015886 273.958937 
L 397.826749 273.420048 
L 397.922773 273.152076 
L 397.826749 273.690965 
L 397.733636 274.765798 
L 397.826749 275.036715 
L 398.015886 274.765798 
L 398.111909 275.304687 
L 398.111909 275.304687 
L 397.826749 274.765798 
L 397.922773 275.304687 
L 398.111909 275.57266 
L 398.205023 275.304687 
L 397.922773 275.036715 
L 397.544499 274.497826 
L 397.733636 274.497826 
L 397.733636 275.843577 
L 398.015886 275.57266 
L 398.111909 275.036715 
L 398.015886 275.036715 
L 397.826749 275.304687 
L 397.826749 275.304687 
L 397.544499 275.304687 
L 397.544499 275.304687 
L 397.733636 275.843577 
L 397.733636 275.843577 
L 397.358272 275.843577 
L 397.451386 275.843577 
L 397.640522 276.111549 
L 397.544499 276.111549 
L 397.826749 275.304687 
L 398.015886 275.57266 
L 398.015886 276.382466 
L 397.922773 276.382466 
L 397.640522 275.304687 
L 397.826749 275.304687 
L 397.826749 274.765798 
L 397.733636 275.57266 
L 397.640522 276.111549 
L 397.733636 276.382466 
L 397.826749 276.111549 
L 397.733636 276.111549 
L 397.076022 276.91841 
L 397.076022 276.650438 
L 397.262249 276.382466 
L 397.358272 276.650438 
L 397.451386 277.457299 
L 397.733636 277.996188 
L 397.733636 277.996188 
L 397.640522 277.996188 
L 397.640522 276.382466 
L 397.544499 276.650438 
L 397.451386 276.650438 
L 397.262249 276.91841 
L 396.979999 276.91841 
L 397.076022 276.91841 
L 397.169136 277.457299 
L 397.262249 278.535078 
L 397.262249 276.91841 
L 397.076022 277.996188 
L 396.979999 277.725271 
L 396.979999 277.725271 
L 396.979999 278.535078 
L 397.169136 279.071022 
L 397.076022 278.535078 
L 397.169136 277.996188 
L 397.076022 278.80305 
L 397.076022 279.341939 
L 397.262249 279.071022 
L 397.451386 278.535078 
L 397.262249 279.071022 
L 397.076022 279.071022 
L 396.979999 278.264161 
L 397.076022 278.535078 
L 397.169136 278.80305 
L 396.793772 280.1488 
L 396.979999 279.877883 
L 397.262249 278.80305 
L 396.979999 280.1488 
L 396.793772 280.955662 
L 396.697749 280.955662 
L 396.415499 281.223634 
L 396.415499 280.416772 
L 396.793772 279.071022 
L 396.604635 279.877883 
L 396.697749 279.877883 
L 396.511522 279.071022 
L 396.415499 279.071022 
L 396.511522 280.416772 
L 396.604635 280.687689 
L 396.886886 280.687689 
L 396.979999 280.416772 
L 396.793772 280.1488 
L 396.133249 279.877883 
L 396.229272 279.877883 
L 396.415499 280.1488 
L 396.604635 279.877883 
L 396.511522 277.996188 
L 396.415499 277.457299 
L 396.229272 278.264161 
L 396.133249 278.264161 
L 396.133249 276.650438 
L 396.040135 278.264161 
L 395.850999 278.264161 
L 395.850999 278.535078 
L 395.757885 278.535078 
L 395.661862 278.264161 
L 395.757885 277.725271 
L 395.944112 277.457299 
L 396.133249 277.457299 
L 396.229272 277.725271 
L 396.133249 278.535078 
L 395.944112 278.80305 
L 395.475635 278.80305 
L 395.475635 279.341939 
L 395.661862 279.877883 
L 395.757885 279.609911 
L 395.568748 279.341939 
L 395.661862 279.341939 
L 395.661862 279.877883 
L 395.661862 279.877883 
L 395.850999 279.877883 
L 395.944112 279.609911 
L 395.661862 279.341939 
L 395.661862 279.877883 
L 395.568748 279.877883 
L 395.475635 279.877883 
L 395.379612 280.955662 
L 395.568748 281.494551 
L 395.757885 281.494551 
L 395.661862 281.494551 
L 395.004248 282.03344 
L 394.721998 282.03344 
L 394.532861 281.762523 
L 395.097362 282.840301 
L 395.004248 282.03344 
L 394.815112 282.301412 
L 394.628885 282.840301 
L 394.628885 283.376246 
L 394.911135 282.840301 
L 394.532861 284.721996 
L 394.628885 284.721996 
L 392.178837 286.067747 
L 389.1672 289.02722 
L 387.098336 290.911859 
L 384.837425 292.796499 
L 382.201151 294.14225 
L 378.814149 294.681139 
L 374.673511 294.681139 
L 369.965463 294.14225 
L 364.978075 293.335388 
L 359.894663 292.796499 
L 355.093502 291.450749 
L 350.57459 289.02722 
L 346.244815 286.067747 
L 337.206992 280.687689 
L 332.219604 278.80305 
L 326.947056 277.725271 
L 321.395167 277.457299 
L 315.840368 278.535078 
L 310.381593 280.1488 
L 305.298182 281.494551 
L 300.686157 282.301412 
L 296.449495 282.03344 
L 288.636696 280.416772 
L 285.153671 279.609911 
L 281.670647 278.535078 
L 274.329234 275.843577 
L 270.470846 275.304687 
L 266.705572 275.304687 
L 263.033411 275.036715 
L 259.175023 274.226909 
L 255.409748 273.690965 
L 248.161449 272.074297 
L 244.678425 271.538353 
L 241.384537 270.728547 
L 238.276876 269.653713 
L 235.454375 268.307963 
L 233.007237 266.69424 
L 230.653213 265.34849 
L 228.488326 264.8096 
L 226.509665 264.541628 
L 224.912188 264.002739 
L 223.780278 263.195878 
L 223.029551 262.118099 
L 222.369027 261.850127 
L 221.804527 261.850127 
L 221.33314 262.118099 
L 221.240027 262.389016 
L 221.33314 263.734767 
L 221.522277 264.541628 
L 221.993664 264.270711 
L 222.462141 263.46385 
L 222.7473 263.734767 
L 222.840414 264.270711 
L 222.462141 265.077573 
L 222.369027 265.077573 
L 222.086777 265.34849 
L 221.993664 264.8096 
L 221.993664 264.8096 
L 221.804527 265.34849 
L 221.993664 265.077573 
L 222.462141 264.541628 
L 222.558164 264.541628 
L 222.558164 264.541628 
L 222.369027 265.077573 
L 222.558164 264.270711 
L 222.369027 264.541628 
L 222.462141 264.541628 
L 222.840414 264.270711 
L 223.029551 263.734767 
L 222.840414 263.734767 
L 222.558164 264.541628 
L 222.462141 265.34849 
L 222.558164 265.34849 
L 222.840414 264.270711 
L 222.7473 262.924961 
L 222.7473 262.924961 
L 222.651277 262.924961 
L 222.558164 263.195878 
L 222.651277 263.46385 
L 223.122664 262.924961 
L 223.498028 263.734767 
L 223.498028 262.924961 
L 223.404914 262.924961 
L 223.311801 263.46385 
L 223.404914 263.46385 
L 223.594051 263.195878 
L 223.594051 262.924961 
L 223.404914 262.924961 
L 223.215777 262.656989 
L 223.311801 262.656989 
L 223.404914 262.389016 
L 223.311801 262.389016 
L 223.029551 261.850127 
L 222.933527 262.118099 
L 222.933527 262.924961 
L 223.029551 262.118099 
L 223.122664 261.850127 
L 223.029551 262.118099 
L 222.933527 261.850127 
L 222.933527 260.772349 
L 222.933527 261.043266 
L 223.215777 261.850127 
L 223.122664 261.311238 
L 223.122664 261.043266 
L 223.404914 261.043266 
L 223.498028 259.697515 
L 223.311801 260.772349 
L 223.122664 260.772349 
L 223.122664 260.504377 
L 223.404914 260.236405 
L 223.404914 260.504377 
L 223.594051 259.965488 
L 223.876301 259.965488 
L 223.876301 259.697515 
L 223.876301 259.697515 
L 223.404914 259.697515 
L 223.498028 260.236405 
L 223.594051 260.236405 
L 223.498028 259.697515 
L 223.498028 259.426598 
L 223.498028 259.697515 
L 223.780278 259.158626 
L 223.687164 259.158626 
L 223.594051 259.426598 
L 223.876301 259.965488 
L 223.780278 259.697515 
L 224.062528 258.619737 
L 223.969414 258.890654 
L 223.876301 258.619737 
L 223.780278 257.812876 
L 223.780278 258.890654 
L 223.780278 258.890654 
L 223.594051 258.890654 
L 223.498028 259.158626 
L 223.876301 258.083793 
L 223.687164 256.738042 
L 223.311801 255.928236 
L 221.711413 256.467125 
L 220.48639 255.660264 
L 218.982026 254.314513 
L 217.192502 253.23968 
L 212.955841 252.161902 
L 210.319566 251.087068 
L 207.307929 250.00929 
L 204.014041 249.202428 
L 193.754104 245.165177 
L 190.081943 244.090343 
L 182.74053 241.398842 
L 179.350619 240.053092 
L 175.870505 239.246231 
L 172.198344 238.707341 
L 164.667794 238.168452 
L 157.512609 237.093619 
L 153.747334 236.286757 
L 150.078083 235.208979 
L 146.216785 234.67009 
L 134.827848 234.67009 
L 131.440847 234.941007 
L 128.240072 234.67009 
L 125.228434 234.131201 
L 122.120774 234.67009 
L 118.826886 235.747868 
L 116.001475 236.55473 
L 113.461224 236.822702 
L 111.014086 237.629563 
L 108.566949 238.707341 
L 106.495175 239.246231 
L 104.612538 239.514203 
L 103.01215 240.053092 
L 101.6009 240.859953 
L 100.375876 241.398842 
L 99.436013 241.937732 
L 98.210989 243.280537 
L 97.835625 243.012565 
L 97.646489 242.473676 
L 97.739602 242.473676 
L 98.024762 242.473676 
L 98.589262 244.897205 
L 98.589262 244.897205 
L 98.682376 244.090343 
L 98.775489 244.090343 
L 98.775489 244.090343 
L 98.682376 243.819426 
L 98.682376 243.280537 
L 98.964626 243.012565 
L 99.057739 243.280537 
L 98.964626 243.012565 
L 98.871512 242.205704 
L 98.871512 242.205704 
L 98.775489 242.473676 
L 98.210989 243.012565 
L 98.775489 242.473676 
L 98.964626 242.473676 
L 98.682376 241.937732 
L 98.871512 242.205704 
L 99.153762 242.205704 
L 98.964626 242.205704 
L 98.775489 241.937732 
L 98.775489 241.666815 
L 98.775489 242.205704 
L 98.964626 241.666815 
L 98.775489 240.859953 
L 98.589262 241.127926 
L 98.493239 241.127926 
L 98.400126 241.937732 
L 98.493239 242.205704 
L 98.871512 241.127926 
L 98.964626 241.398842 
L 98.871512 241.666815 
L 98.682376 241.398842 
L 98.682376 240.591981 
L 98.589262 241.937732 
L 98.775489 241.666815 
L 98.871512 241.398842 
L 98.775489 241.127926 
L 98.682376 241.398842 
L 98.210989 241.398842 
L 98.210989 241.398842 
L 98.400126 241.666815 
L 98.775489 241.666815 
L 99.057739 241.398842 
L 98.964626 240.053092 
L 98.682376 238.975314 
L 99.153762 239.78512 
L 99.057739 239.78512 
L 98.775489 239.78512 
L 98.775489 240.321064 
L 98.964626 240.591981 
L 99.057739 240.321064 
L 99.153762 238.439369 
L 99.246876 237.90048 
L 99.153762 238.439369 
L 99.246876 238.707341 
L 99.153762 238.707341 
L 98.964626 238.439369 
L 98.775489 238.975314 
L 98.964626 239.514203 
L 99.246876 238.975314 
L 99.436013 238.168452 
L 99.339989 238.168452 
L 99.153762 238.168452 
L 99.153762 238.168452 
L 99.436013 237.90048 
L 99.529126 238.975314 
L 99.622239 238.975314 
L 99.529126 237.90048 
L 99.436013 238.168452 
L 99.246876 237.90048 
L 99.246876 237.90048 
L 99.339989 238.439369 
L 99.622239 238.439369 
L 99.811376 237.361591 
L 99.622239 236.286757 
L 99.811376 236.286757 
L 99.907399 236.55473 
L 99.811376 237.361591 
L 99.718263 237.093619 
L 99.529126 237.093619 
L 100.189649 236.286757 
L 100.282763 236.286757 
L 100.189649 237.093619 
L 100.000513 236.01584 
L 99.811376 236.01584 
L 99.907399 236.55473 
L 100.093626 237.093619 
L 100.000513 235.747868 
L 100.189649 235.476951 
L 100.000513 235.747868 
L 100.000513 236.286757 
L 99.907399 235.208979 
L 99.811376 234.941007 
L 99.907399 234.67009 
L 100.000513 233.863229 
L 100.000513 233.863229 
L 100.093626 234.131201 
L 100.093626 234.67009 
L 100.282763 234.941007 
L 100.4719 234.67009 
L 100.565013 233.863229 
L 100.4719 233.32434 
L 100.4719 233.32434 
L 100.093626 234.402118 
L 100.565013 232.788395 
L 100.282763 232.788395 
L 100.282763 232.788395 
L 100.658126 231.978589 
L 100.658126 232.249506 
L 100.4719 232.517478 
L 100.282763 232.249506 
L 100.375876 231.710617 
L 100.282763 231.710617 
L 100.093626 231.710617 
L 100.000513 231.978589 
L 100.375876 232.517478 
L 100.4719 233.32434 
L 100.375876 233.32434 
L 100.565013 233.056367 
L 100.75415 233.056367 
L 100.658126 233.056367 
L 100.565013 232.788395 
L 100.658126 232.249506 
L 100.847263 232.249506 
L 101.0364 231.710617 
L 100.940376 231.171728 
L 100.658126 230.903755 
L 100.565013 230.635783 
L 100.940376 231.442645 
L 101.222627 231.442645 
L 101.222627 231.171728 
L 100.940376 231.171728 
L 100.375876 230.635783 
L 100.658126 230.364866 
L 100.940376 229.825977 
L 101.88315 224.44592 
L 103.669764 217.988084 
L 104.141151 215.296583 
L 105.930675 206.147247 
L 109.978199 188.384518 
L 113.650361 171.702513 
L 115.908361 162.821149 
L 119.862773 142.369864 
L 120.89575 137.525751 
L 121.649387 132.681638 
L 123.438911 123.532302 
L 125.603798 114.114993 
L 126.450548 109.809769 
L 127.768685 100.660433 
L 128.522322 96.355209 
L 130.026686 89.087568 
L 131.344823 82.090843 
L 132.38071 75.633007 
L 133.509711 69.982033 
L 134.827848 64.063087 
L 135.488371 60.832697 
L 136.239098 58.141196 
L 136.710485 57.605251 
L 136.617372 58.680085 
L 136.803599 58.951002 
L 137.371009 58.680085 
L 136.992735 60.025836 
L 137.274985 60.564725 
L 137.464122 60.564725 
L 137.557235 58.951002 
L 137.653259 57.873224 
L 137.371009 58.141196 
L 137.557235 57.873224 
L 138.121736 56.527473 
L 138.217759 56.527473 
L 138.028622 56.259501 
L 138.028622 55.988584 
L 138.217759 55.720612 
L 138.403986 55.720612 
L 138.121736 54.642834 
L 138.121736 54.106889 
L 138.217759 54.374861 
L 138.403986 55.45264 
L 138.686236 54.91375 
L 138.782259 53.835972 
L 138.500009 53.568 
L 138.121736 54.91375 
L 138.217759 54.91375 
L 138.403986 54.374861 
L 138.782259 54.374861 
L 138.971396 54.106889 
L 138.686236 54.642834 
L 138.593122 54.374861 
L 138.686236 54.106889 
L 139.157623 54.91375 
L 139.253646 55.181723 
L 138.971396 54.374861 
L 139.157623 53.835972 
L 138.971396 53.835972 
L 138.875372 53.835972 
L 139.253646 53.835972 
L 139.346759 54.106889 
L 139.346759 54.642834 
L 139.253646 54.374861 
L 139.157623 54.106889 
L 139.157623 54.106889 
L 139.253646 53.835972 
L 139.064509 54.642834 
L 139.157623 55.45264 
L 139.064509 54.91375 
L 138.971396 54.91375 
L 139.253646 54.91375 
L 139.629009 56.79839 
L 139.629009 56.527473 
L 139.722123 56.259501 
L 139.722123 56.259501 
L 139.346759 54.91375 
L 139.346759 56.527473 
L 139.439873 56.527473 
L 139.722123 55.988584 
L 139.911259 55.988584 
L 139.911259 55.720612 
L 140.004373 55.988584 
L 140.19351 55.988584 
L 140.100396 55.720612 
L 139.911259 55.720612 
L 139.818146 55.988584 
L 140.004373 56.259501 
L 140.004373 56.527473 
L 139.722123 57.066362 
L 139.818146 56.79839 
L 139.818146 56.259501 
L 139.911259 56.259501 
L 140.286623 56.79839 
L 140.100396 56.527473 
L 139.911259 57.066362 
L 139.911259 57.605251 
L 140.004373 57.605251 
L 140.19351 56.259501 
L 140.286623 56.259501 
L 140.47576 57.334335 
L 140.75801 56.79839 
L 141.418533 55.988584 
L 142.076147 55.720612 
L 142.640647 55.988584 
L 143.301171 55.988584 
L 144.147921 55.181723 
L 145.370035 54.374861 
L 146.970422 53.835972 
L 148.570809 54.106889 
L 152.146947 55.720612 
L 154.029584 56.259501 
L 155.912222 57.334335 
L 159.773519 60.293808 
L 161.656157 62.178447 
L 163.442771 64.331059 
L 165.139181 65.947727 
L 169.186706 68.636283 
L 171.162457 70.520922 
L 175.020845 75.633007 
L 179.068369 81.016009 
L 183.305031 87.741817 
L 192.907354 103.887878 
L 198.459242 112.230353 
L 201.19154 116.535577 
L 203.920927 120.572829 
L 206.650315 124.878052 
L 212.298227 134.566278 
L 217.567866 144.254503 
L 219.828776 148.291755 
L 226.416552 160.936509 
L 228.206076 164.97376 
L 229.617326 169.278984 
L 234.040214 185.425045 
L 235.076101 188.923408 
L 237.337012 195.113271 
L 239.030513 200.764245 
L 239.595013 203.994635 
L 240.0664 207.492998 
L 240.34865 210.720443 
L 240.91315 215.025667 
L 241.006263 217.449195 
L 241.006263 223.100169 
L 241.1954 225.252781 
L 241.570764 226.866504 
L 241.666787 228.751144 
L 240.91315 237.361591 
L 240.820037 247.856678 
L 240.724013 248.934456 
L 240.820037 249.741318 
L 241.1954 251.087068 
L 240.724013 254.314513 
L 240.91315 255.928236 
L 240.820037 257.006014 
L 240.537786 258.351765 
L 240.724013 258.351765 
L 240.441763 259.697515 
L 240.159513 260.236405 
L 239.877263 261.311238 
L 240.0664 261.311238 
L 240.159513 261.57921 
L 240.0664 261.850127 
L 240.724013 264.002739 
L 240.820037 264.8096 
L 240.91315 264.8096 
L 240.91315 264.8096 
L 240.820037 265.34849 
L 240.820037 265.077573 
L 240.537786 265.887379 
L 240.724013 265.34849 
L 241.384537 266.423323 
L 241.47765 266.69424 
L 241.384537 266.423323 
L 241.1954 267.233129 
L 241.384537 268.307963 
L 241.288513 267.769074 
L 241.102287 269.385741 
L 241.1954 269.385741 
L 241.666787 269.385741 
L 241.1954 269.385741 
L 241.102287 269.653713 
L 241.102287 269.653713 
L 241.288513 269.653713 
L 241.570764 269.385741 
L 241.666787 269.114824 
L 241.666787 269.385741 
L 241.853014 269.921685 
L 241.853014 269.653713 
L 242.138174 269.653713 
L 242.138174 269.921685 
L 242.04215 269.921685 
L 241.853014 270.192602 
L 241.7599 270.728547 
L 241.7599 270.728547 
L 241.949037 270.728547 
L 242.04215 271.267436 
L 241.853014 272.074297 
L 241.7599 271.806325 
L 242.04215 270.728547 
L 242.231287 270.728547 
L 242.606651 271.538353 
L 242.606651 271.538353 
L 242.513537 272.074297 
L 242.513537 272.074297 
L 242.702674 272.345214 
L 242.420424 272.074297 
L 242.138174 271.538353 
L 242.420424 271.267436 
L 243.171151 271.538353 
L 242.513537 270.999464 
L 242.795787 271.267436 
L 242.984924 270.728547 
L 242.795787 271.538353 
L 242.795787 271.538353 
L 242.795787 272.074297 
L 242.984924 272.074297 
L 243.078037 271.806325 
L 242.984924 271.538353 
L 242.795787 271.806325 
L 243.078037 271.267436 
L 243.078037 271.538353 
L 242.888901 272.613186 
L 243.171151 272.345214 
L 243.360287 272.074297 
L 243.360287 272.074297 
L 243.549424 272.345214 
L 243.267174 273.152076 
L 243.642538 272.345214 
L 243.831674 272.345214 
L 243.360287 273.420048 
L 243.078037 273.420048 
L 242.984924 273.690965 
L 243.078037 273.958937 
L 243.453401 273.690965 
L 243.831674 273.152076 
L 243.549424 273.690965 
L 243.735651 273.958937 
L 244.113924 273.958937 
L 243.831674 273.420048 
L 243.453401 273.420048 
L 243.360287 274.765798 
L 243.267174 274.765798 
L 243.360287 275.304687 
L 243.831674 276.111549 
L 243.924788 275.843577 
L 243.831674 275.304687 
L 243.924788 275.304687 
L 243.924788 276.111549 
L 244.207038 275.304687 
L 244.303061 274.226909 
L 244.017901 273.958937 
L 243.735651 274.226909 
L 243.360287 274.765798 
L 243.453401 275.304687 
L 243.735651 276.111549 
L 243.924788 276.111549 
L 244.113924 275.57266 
L 244.396174 275.304687 
L 244.207038 275.304687 
L 243.831674 275.57266 
L 243.831674 275.57266 
L 243.549424 275.57266 
L 243.831674 275.57266 
L 243.642538 276.382466 
L 243.549424 276.91841 
L 243.642538 276.111549 
L 243.642538 276.91841 
L 243.735651 277.457299 
L 243.924788 277.725271 
L 244.017901 277.457299 
L 243.831674 275.843577 
L 243.831674 276.382466 
L 243.735651 276.91841 
L 243.642538 278.80305 
L 243.360287 278.264161 
L 243.360287 278.535078 
L 243.453401 278.264161 
L 243.735651 277.725271 
L 243.549424 277.725271 
L 243.549424 278.535078 
L 243.735651 279.071022 
L 243.924788 279.071022 
L 243.549424 277.996188 
L 243.735651 278.535078 
L 243.642538 279.071022 
L 243.453401 279.071022 
L 243.453401 278.80305 
L 243.642538 278.535078 
L 243.831674 278.80305 
L 243.831674 279.071022 
L 243.735651 278.264161 
L 243.735651 278.535078 
L 243.549424 279.877883 
L 243.360287 279.609911 
L 243.360287 279.341939 
L 243.549424 279.341939 
L 243.642538 279.071022 
L 243.453401 279.071022 
L 243.831674 279.071022 
L 243.831674 278.80305 
L 243.735651 279.071022 
L 243.642538 279.877883 
L 243.453401 280.1488 
L 243.453401 280.1488 
L 243.642538 280.416772 
L 243.549424 280.687689 
L 243.267174 280.687689 
L 243.360287 280.1488 
L 243.267174 280.416772 
L 243.360287 280.955662 
L 243.642538 281.223634 
L 244.017901 281.223634 
L 244.017901 281.494551 
L 243.735651 281.494551 
L 243.360287 281.762523 
L 243.453401 282.569384 
L 243.360287 282.569384 
L 243.549424 282.03344 
L 243.642538 281.223634 
L 243.549424 280.955662 
L 243.453401 281.494551 
L 243.642538 281.762523 
L 243.549424 280.955662 
L 243.642538 282.840301 
L 243.642538 282.840301 
L 243.453401 282.569384 
L 243.267174 282.03344 
L 243.360287 282.301412 
L 243.453401 282.03344 
L 243.453401 282.301412 
L 243.453401 282.569384 
L 243.171151 282.03344 
L 242.702674 281.494551 
L 242.3244 281.494551 
L 241.949037 282.03344 
L 241.1954 282.301412 
L 239.970376 282.03344 
L 238.559126 281.494551 
L 237.054762 280.687689 
L 233.100351 281.223634 
L 230.370963 280.687689 
L 223.969414 279.071022 
L 220.579503 277.457299 
L 209.004339 273.420048 
L 204.953905 272.613186 
L 200.62413 272.884103 
L 196.483492 272.345214 
L 188.388442 269.653713 
L 184.151781 268.846852 
L 179.822006 267.769074 
L 175.681368 265.887379 
L 171.351593 264.541628 
L 166.925795 264.002739 
L 162.692044 263.195878 
L 154.500971 262.118099 
L 150.078083 262.118099 
L 145.466058 262.656989 
L 140.947146 262.924961 
L 136.710485 262.656989 
L 128.897686 261.57921 
L 124.850161 262.118099 
L 120.709523 263.195878 
L 112.51845 265.887379 
L 104.987901 269.114824 
L 98.210989 271.267436 
L 95.106238 272.884103 
L 92.0946 273.958937 
L 88.986939 274.765798 
L 83.339027 277.457299 
L 80.985003 278.264161 
L 78.916139 279.341939 
L 77.219729 280.955662 
L 75.243978 283.647163 
L 74.114977 284.721996 
L 73.832727 285.531802 
L 73.925841 286.606636 
L 74.208091 287.145525 
L 74.490341 287.145525 
L 75.243978 287.684414 
L 75.715365 288.220358 
L 76.279865 289.566109 
L 76.279865 289.298137 
L 76.183842 289.566109 
L 76.090728 289.837026 
L 76.183842 289.837026 
L 76.090728 294.14225 
L 75.997615 294.14225 
L 75.808478 293.335388 
L 76.183842 292.525582 
L 75.901591 293.871333 
L 75.901591 293.871333 
L 75.808478 294.681139 
L 75.715365 293.871333 
L 75.997615 293.871333 
L 76.372978 294.410222 
L 76.562115 294.410222 
L 76.562115 294.14225 
L 76.090728 294.681139 
L 76.183842 294.410222 
L 76.183842 294.14225 
L 76.090728 294.14225 
L 75.997615 294.14225 
L 76.090728 295.217083 
L 76.183842 295.488 
L 76.372978 294.410222 
L 76.090728 293.871333 
L 76.183842 294.14225 
L 75.901591 295.488 
L 76.279865 293.60336 
L 75.901591 293.60336 
L 75.901591 293.064471 
L 76.090728 292.796499 
L 76.372978 293.335388 
L 76.372978 293.871333 
L 76.090728 293.60336 
L 75.997615 292.525582 
L 75.997615 291.989638 
L 75.901591 291.989638 
L 75.715365 292.525582 
L 75.715365 293.064471 
L 75.433114 293.335388 
L 75.433114 291.989638 
L 75.526228 291.989638 
L 75.715365 291.989638 
L 75.715365 291.989638 
L 75.808478 292.525582 
L 75.808478 291.450749 
L 76.090728 290.37297 
L 75.997615 290.911859 
L 75.808478 291.718721 
L 75.715365 290.643887 
L 75.808478 290.643887 
L 75.901591 291.182776 
L 75.715365 291.450749 
L 75.619341 291.182776 
L 75.619341 290.643887 
L 75.433114 290.37297 
L 75.054841 291.182776 
L 75.243978 291.182776 
L 75.526228 290.911859 
L 75.526228 290.911859 
L 75.337091 290.911859 
L 75.715365 290.104998 
L 75.808478 291.182776 
L 75.526228 291.718721 
L 75.150864 291.450749 
L 75.243978 290.104998 
L 75.433114 290.104998 
L 75.337091 291.182776 
L 75.433114 290.643887 
L 75.715365 289.566109 
L 75.619341 289.298137 
L 75.433114 289.566109 
L 75.433114 289.837026 
L 75.808478 290.104998 
L 75.619341 290.104998 
L 75.526228 289.566109 
L 75.619341 289.298137 
L 75.901591 290.643887 
L 75.901591 290.643887 
L 75.997615 290.37297 
L 75.715365 289.837026 
L 75.808478 290.104998 
L 75.715365 290.104998 
L 75.715365 289.837026 
L 75.901591 289.566109 
L 75.997615 289.837026 
L 75.997615 290.911859 
L 75.901591 290.37297 
L 75.808478 290.911859 
L 75.901591 290.643887 
L 76.279865 290.643887 
L 76.090728 290.37297 
L 76.372978 290.911859 
L 76.469001 289.837026 
L 76.183842 289.566109 
L 76.183842 289.566109 
L 76.279865 290.643887 
L 76.183842 289.02722 
L 76.183842 289.566109 
L 76.090728 289.837026 
L 76.090728 288.759248 
L 76.279865 288.220358 
L 76.279865 289.298137 
L 76.372978 289.298137 
L 76.655228 289.02722 
L 76.562115 288.759248 
L 76.279865 288.491275 
L 76.183842 288.220358 
L 76.655228 289.298137 
L 76.844365 288.759248 
L 76.562115 286.874608 
L 76.655228 287.145525 
L 76.844365 286.874608 
L 76.844365 286.338664 
L 76.751252 288.220358 
L 76.655228 288.220358 
L 76.655228 287.952386 
L 76.844365 287.952386 
L 76.469001 288.759248 
L 76.937478 287.413497 
L 76.655228 287.684414 
L 76.469001 288.220358 
L 76.562115 288.491275 
L 76.655228 287.952386 
L 76.562115 287.413497 
L 76.655228 287.413497 
L 76.844365 287.952386 
L 76.751252 287.413497 
L 77.033502 287.684414 
L 76.937478 287.684414 
L 76.937478 287.952386 
L 76.937478 287.684414 
L 77.126615 287.413497 
L 77.126615 284.992913 
L 77.126615 286.606636 
L 77.315752 286.606636 
L 77.501979 286.874608 
L 77.501979 286.606636 
L 77.315752 286.338664 
L 76.937478 286.338664 
L 77.126615 286.338664 
L 77.408865 285.799774 
L 77.501979 284.992913 
L 77.691115 285.531802 
L 77.408865 284.992913 
L 77.501979 284.454024 
L 77.408865 284.992913 
L 77.219729 285.260885 
L 77.219729 285.531802 
L 77.315752 285.260885 
L 77.501979 284.454024 
L 77.315752 285.260885 
L 78.066479 284.454024 
L 77.880252 284.721996 
L 77.691115 285.531802 
L 77.973365 284.721996 
L 77.784229 284.721996 
L 77.598002 284.721996 
L 77.784229 284.454024 
L 77.973365 284.992913 
L 77.973365 285.531802 
L 78.066479 285.260885 
L 78.348729 286.067747 
L 78.255616 286.067747 
L 78.162502 286.067747 
L 78.066479 284.721996 
L 77.973365 284.454024 
L 78.162502 285.260885 
L 78.162502 285.260885 
L 78.066479 285.531802 
L 77.973365 286.338664 
L 78.162502 284.992913 
L 77.880252 285.260885 
L 77.691115 286.067747 
L 77.880252 286.338664 
L 78.066479 285.531802 
L 78.066479 285.799774 
L 78.162502 285.799774 
L 78.255616 286.067747 
L 78.633889 286.338664 
L 78.633889 286.338664 
L 78.348729 285.799774 
L 77.880252 286.338664 
L 77.880252 286.067747 
L 78.162502 286.067747 
L 78.348729 286.338664 
L 78.633889 285.260885 
L 78.633889 285.260885 
L 78.348729 285.260885 
L 78.633889 285.260885 
L 78.633889 285.531802 
L 78.066479 285.531802 
L 78.348729 285.531802 
L 78.537866 285.799774 
L 78.444752 283.915135 
L 78.255616 284.186052 
L 78.348729 285.531802 
L 78.444752 285.531802 
L 78.537866 285.260885 
L 78.444752 285.260885 
L 78.255616 285.260885 
L 78.255616 284.992913 
L 78.162502 285.799774 
L 78.255616 285.799774 
L 78.444752 286.067747 
L 78.633889 285.799774 
L 78.633889 285.260885 
L 78.444752 284.992913 
L 78.255616 284.992913 
L 78.444752 285.260885 
L 78.633889 284.454024 
L 78.348729 286.067747 
L 78.162502 286.067747 
L 77.880252 285.260885 
L 78.066479 285.260885 
L 78.348729 284.992913 
L 78.633889 284.454024 
L 78.633889 284.186052 
L 78.633889 285.531802 
L 78.537866 284.992913 
L 78.444752 284.992913 
L 78.162502 286.067747 
L 78.255616 286.067747 
L 77.973365 284.992913 
L 78.066479 284.992913 
L 78.916139 284.992913 
L 78.820116 284.992913 
L 78.633889 284.721996 
L 78.820116 284.992913 
L 78.727002 285.260885 
L 78.348729 284.721996 
L 78.348729 284.721996 
L 78.537866 284.721996 
L 78.537866 285.260885 
L 78.066479 286.067747 
L 78.162502 286.067747 
L 78.916139 284.992913 
L 78.916139 284.721996 
L 78.633889 285.260885 
L 78.633889 285.531802 
L 78.820116 285.260885 
L 78.916139 285.799774 
L 78.727002 286.067747 
L 78.727002 285.799774 
L 79.102366 285.531802 
L 78.916139 285.531802 
L 78.820116 285.531802 
L 78.820116 284.992913 
L 79.198389 286.067747 
L 79.291502 285.799774 
L 79.384616 286.067747 
L 79.291502 286.874608 
L 79.384616 287.145525 
L 79.480639 286.874608 
L 79.480639 286.338664 
L 79.384616 286.338664 
L 79.198389 286.606636 
L 79.198389 286.606636 
" style="fill:none;stroke:#1f77b4;stroke-linecap:square;stroke-width:1.5;"/>
   </g>
   <g id="matplotlib.axis_1">
    <g id="xtick_1">
     <g id="line2d_2">
      <defs>
       <path d="M 0 0 
L 0 3.5 
" id="m3812e59368" style="stroke:#000000;stroke-width:0.8;"/>
      </defs>
      <g>
       <use style="stroke:#000000;stroke-width:0.8;" x="76.026713" xlink:href="#m3812e59368" y="307.584"/>
      </g>
     </g>
     <g id="text_1">
      <!-- −400 -->
      <defs>
       <path d="M 10.59375 35.5 
L 73.1875 35.5 
L 73.1875 27.203125 
L 10.59375 27.203125 
z
" id="DejaVuSans-8722"/>
       <path d="M 37.796875 64.3125 
L 12.890625 25.390625 
L 37.796875 25.390625 
z
M 35.203125 72.90625 
L 47.609375 72.90625 
L 47.609375 25.390625 
L 58.015625 25.390625 
L 58.015625 17.1875 
L 47.609375 17.1875 
L 47.609375 0 
L 37.796875 0 
L 37.796875 17.1875 
L 4.890625 17.1875 
L 4.890625 26.703125 
z
" id="DejaVuSans-52"/>
       <path d="M 31.78125 66.40625 
Q 24.171875 66.40625 20.328125 58.90625 
Q 16.5 51.421875 16.5 36.375 
Q 16.5 21.390625 20.328125 13.890625 
Q 24.171875 6.390625 31.78125 6.390625 
Q 39.453125 6.390625 43.28125 13.890625 
Q 47.125 21.390625 47.125 36.375 
Q 47.125 51.421875 43.28125 58.90625 
Q 39.453125 66.40625 31.78125 66.40625 
z
M 31.78125 74.21875 
Q 44.046875 74.21875 50.515625 64.515625 
Q 56.984375 54.828125 56.984375 36.375 
Q 56.984375 17.96875 50.515625 8.265625 
Q 44.046875 -1.421875 31.78125 -1.421875 
Q 19.53125 -1.421875 13.0625 8.265625 
Q 6.59375 17.96875 6.59375 36.375 
Q 6.59375 54.828125 13.0625 64.515625 
Q 19.53125 74.21875 31.78125 74.21875 
z
" id="DejaVuSans-48"/>
      </defs>
      <g transform="translate(62.293119 322.182437)scale(0.1 -0.1)">
       <use xlink:href="#DejaVuSans-8722"/>
       <use x="83.789062" xlink:href="#DejaVuSans-52"/>
       <use x="147.412109" xlink:href="#DejaVuSans-48"/>
       <use x="211.035156" xlink:href="#DejaVuSans-48"/>
      </g>
     </g>
    </g>
    <g id="xtick_2">
     <g id="line2d_3">
      <g>
       <use style="stroke:#000000;stroke-width:0.8;" x="134.22261" xlink:href="#m3812e59368" y="307.584"/>
      </g>
     </g>
     <g id="text_2">
      <!-- −200 -->
      <defs>
       <path d="M 19.1875 8.296875 
L 53.609375 8.296875 
L 53.609375 0 
L 7.328125 0 
L 7.328125 8.296875 
Q 12.9375 14.109375 22.625 23.890625 
Q 32.328125 33.6875 34.8125 36.53125 
Q 39.546875 41.84375 41.421875 45.53125 
Q 43.3125 49.21875 43.3125 52.78125 
Q 43.3125 58.59375 39.234375 62.25 
Q 35.15625 65.921875 28.609375 65.921875 
Q 23.96875 65.921875 18.8125 64.3125 
Q 13.671875 62.703125 7.8125 59.421875 
L 7.8125 69.390625 
Q 13.765625 71.78125 18.9375 73 
Q 24.125 74.21875 28.421875 74.21875 
Q 39.75 74.21875 46.484375 68.546875 
Q 53.21875 62.890625 53.21875 53.421875 
Q 53.21875 48.921875 51.53125 44.890625 
Q 49.859375 40.875 45.40625 35.40625 
Q 44.1875 33.984375 37.640625 27.21875 
Q 31.109375 20.453125 19.1875 8.296875 
z
" id="DejaVuSans-50"/>
      </defs>
      <g transform="translate(120.489017 322.182437)scale(0.1 -0.1)">
       <use xlink:href="#DejaVuSans-8722"/>
       <use x="83.789062" xlink:href="#DejaVuSans-50"/>
       <use x="147.412109" xlink:href="#DejaVuSans-48"/>
       <use x="211.035156" xlink:href="#DejaVuSans-48"/>
      </g>
     </g>
    </g>
    <g id="xtick_3">
     <g id="line2d_4">
      <g>
       <use style="stroke:#000000;stroke-width:0.8;" x="192.418508" xlink:href="#m3812e59368" y="307.584"/>
      </g>
     </g>
     <g id="text_3">
      <!-- 0 -->
      <g transform="translate(189.237258 322.182437)scale(0.1 -0.1)">
       <use xlink:href="#DejaVuSans-48"/>
      </g>
     </g>
    </g>
    <g id="xtick_4">
     <g id="line2d_5">
      <g>
       <use style="stroke:#000000;stroke-width:0.8;" x="250.614406" xlink:href="#m3812e59368" y="307.584"/>
      </g>
     </g>
     <g id="text_4">
      <!-- 200 -->
      <g transform="translate(241.070656 322.182437)scale(0.1 -0.1)">
       <use xlink:href="#DejaVuSans-50"/>
       <use x="63.623047" xlink:href="#DejaVuSans-48"/>
       <use x="127.246094" xlink:href="#DejaVuSans-48"/>
      </g>
     </g>
    </g>
    <g id="xtick_5">
     <g id="line2d_6">
      <g>
       <use style="stroke:#000000;stroke-width:0.8;" x="308.810304" xlink:href="#m3812e59368" y="307.584"/>
      </g>
     </g>
     <g id="text_5">
      <!-- 400 -->
      <g transform="translate(299.266554 322.182437)scale(0.1 -0.1)">
       <use xlink:href="#DejaVuSans-52"/>
       <use x="63.623047" xlink:href="#DejaVuSans-48"/>
       <use x="127.246094" xlink:href="#DejaVuSans-48"/>
      </g>
     </g>
    </g>
    <g id="xtick_6">
     <g id="line2d_7">
      <g>
       <use style="stroke:#000000;stroke-width:0.8;" x="367.006202" xlink:href="#m3812e59368" y="307.584"/>
      </g>
     </g>
     <g id="text_6">
      <!-- 600 -->
      <defs>
       <path d="M 33.015625 40.375 
Q 26.375 40.375 22.484375 35.828125 
Q 18.609375 31.296875 18.609375 23.390625 
Q 18.609375 15.53125 22.484375 10.953125 
Q 26.375 6.390625 33.015625 6.390625 
Q 39.65625 6.390625 43.53125 10.953125 
Q 47.40625 15.53125 47.40625 23.390625 
Q 47.40625 31.296875 43.53125 35.828125 
Q 39.65625 40.375 33.015625 40.375 
z
M 52.59375 71.296875 
L 52.59375 62.3125 
Q 48.875 64.0625 45.09375 64.984375 
Q 41.3125 65.921875 37.59375 65.921875 
Q 27.828125 65.921875 22.671875 59.328125 
Q 17.53125 52.734375 16.796875 39.40625 
Q 19.671875 43.65625 24.015625 45.921875 
Q 28.375 48.1875 33.59375 48.1875 
Q 44.578125 48.1875 50.953125 41.515625 
Q 57.328125 34.859375 57.328125 23.390625 
Q 57.328125 12.15625 50.6875 5.359375 
Q 44.046875 -1.421875 33.015625 -1.421875 
Q 20.359375 -1.421875 13.671875 8.265625 
Q 6.984375 17.96875 6.984375 36.375 
Q 6.984375 53.65625 15.1875 63.9375 
Q 23.390625 74.21875 37.203125 74.21875 
Q 40.921875 74.21875 44.703125 73.484375 
Q 48.484375 72.75 52.59375 71.296875 
z
" id="DejaVuSans-54"/>
      </defs>
      <g transform="translate(357.462452 322.182437)scale(0.1 -0.1)">
       <use xlink:href="#DejaVuSans-54"/>
       <use x="63.623047" xlink:href="#DejaVuSans-48"/>
       <use x="127.246094" xlink:href="#DejaVuSans-48"/>
      </g>
     </g>
    </g>
   </g>
   <g id="matplotlib.axis_2">
    <g id="ytick_1">
     <g id="line2d_8">
      <defs>
       <path d="M 0 0 
L -3.5 0 
" id="mf955bf4cf5" style="stroke:#000000;stroke-width:0.8;"/>
      </defs>
      <g>
       <use style="stroke:#000000;stroke-width:0.8;" x="57.6" xlink:href="#mf955bf4cf5" y="284.003477"/>
      </g>
     </g>
     <g id="text_7">
      <!-- −600 -->
      <g transform="translate(23.132812 287.802696)scale(0.1 -0.1)">
       <use xlink:href="#DejaVuSans-8722"/>
       <use x="83.789062" xlink:href="#DejaVuSans-54"/>
       <use x="147.412109" xlink:href="#DejaVuSans-48"/>
       <use x="211.035156" xlink:href="#DejaVuSans-48"/>
      </g>
     </g>
    </g>
    <g id="ytick_2">
     <g id="line2d_9">
      <g>
       <use style="stroke:#000000;stroke-width:0.8;" x="57.6" xlink:href="#mf955bf4cf5" y="225.108489"/>
      </g>
     </g>
     <g id="text_8">
      <!-- −400 -->
      <g transform="translate(23.132812 228.907707)scale(0.1 -0.1)">
       <use xlink:href="#DejaVuSans-8722"/>
       <use x="83.789062" xlink:href="#DejaVuSans-52"/>
       <use x="147.412109" xlink:href="#DejaVuSans-48"/>
       <use x="211.035156" xlink:href="#DejaVuSans-48"/>
      </g>
     </g>
    </g>
    <g id="ytick_3">
     <g id="line2d_10">
      <g>
       <use style="stroke:#000000;stroke-width:0.8;" x="57.6" xlink:href="#mf955bf4cf5" y="166.2135"/>
      </g>
     </g>
     <g id="text_9">
      <!-- −200 -->
      <g transform="translate(23.132812 170.012719)scale(0.1 -0.1)">
       <use xlink:href="#DejaVuSans-8722"/>
       <use x="83.789062" xlink:href="#DejaVuSans-50"/>
       <use x="147.412109" xlink:href="#DejaVuSans-48"/>
       <use x="211.035156" xlink:href="#DejaVuSans-48"/>
      </g>
     </g>
    </g>
    <g id="ytick_4">
     <g id="line2d_11">
      <g>
       <use style="stroke:#000000;stroke-width:0.8;" x="57.6" xlink:href="#mf955bf4cf5" y="107.318511"/>
      </g>
     </g>
     <g id="text_10">
      <!-- 0 -->
      <g transform="translate(44.2375 111.11773)scale(0.1 -0.1)">
       <use xlink:href="#DejaVuSans-48"/>
      </g>
     </g>
    </g>
    <g id="ytick_5">
     <g id="line2d_12">
      <g>
       <use style="stroke:#000000;stroke-width:0.8;" x="57.6" xlink:href="#mf955bf4cf5" y="48.423523"/>
      </g>
     </g>
     <g id="text_11">
      <!-- 200 -->
      <g transform="translate(31.5125 52.222741)scale(0.1 -0.1)">
       <use xlink:href="#DejaVuSans-50"/>
       <use x="63.623047" xlink:href="#DejaVuSans-48"/>
       <use x="127.246094" xlink:href="#DejaVuSans-48"/>
      </g>
     </g>
    </g>
   </g>
   <g id="line2d_13">
    <path clip-path="url(#p5453ba3fab)" d="M 396.452221 278.256399 
L 223.960158 262.62502 
L 100.295411 239.548318 
L 137.707797 57.8783 
L 241.530696 264.337381 
L 242.320763 277.707791 
L 77.126816 288.119412 
" style="fill:none;stroke:#ff0000;stroke-linecap:square;stroke-width:0.5;"/>
   </g>
   <g id="patch_3">
    <path d="M 57.6 307.584 
L 57.6 41.472 
" style="fill:none;stroke:#000000;stroke-linecap:square;stroke-linejoin:miter;stroke-width:0.8;"/>
   </g>
   <g id="patch_4">
    <path d="M 414.72 307.584 
L 414.72 41.472 
" style="fill:none;stroke:#000000;stroke-linecap:square;stroke-linejoin:miter;stroke-width:0.8;"/>
   </g>
   <g id="patch_5">
    <path d="M 57.6 307.584 
L 414.72 307.584 
" style="fill:none;stroke:#000000;stroke-linecap:square;stroke-linejoin:miter;stroke-width:0.8;"/>
   </g>
   <g id="patch_6">
    <path d="M 57.6 41.472 
L 414.72 41.472 
" style="fill:none;stroke:#000000;stroke-linecap:square;stroke-linejoin:miter;stroke-width:0.8;"/>
   </g>
   <g id="PathCollection_1">
    <defs>
     <path d="M 0 2.738613 
C 0.726289 2.738613 1.422928 2.450055 1.936492 1.936492 
C 2.450055 1.422928 2.738613 0.726289 2.738613 0 
C 2.738613 -0.726289 2.450055 -1.422928 1.936492 -1.936492 
C 1.422928 -2.450055 0.726289 -2.738613 0 -2.738613 
C -0.726289 -2.738613 -1.422928 -2.450055 -1.936492 -1.936492 
C -2.450055 -1.422928 -2.738613 -0.726289 -2.738613 0 
C -2.738613 0.726289 -2.450055 1.422928 -1.936492 1.936492 
C -1.422928 2.450055 -0.726289 2.738613 0 2.738613 
z
" id="m94c8be0caa" style="stroke:#ff0000;"/>
    </defs>
    <g clip-path="url(#p5453ba3fab)">
     <use style="fill:#ff0000;stroke:#ff0000;" x="396.452221" xlink:href="#m94c8be0caa" y="278.256399"/>
     <use style="fill:#ff0000;stroke:#ff0000;" x="223.960158" xlink:href="#m94c8be0caa" y="262.62502"/>
     <use style="fill:#ff0000;stroke:#ff0000;" x="100.295411" xlink:href="#m94c8be0caa" y="239.548318"/>
     <use style="fill:#ff0000;stroke:#ff0000;" x="137.707797" xlink:href="#m94c8be0caa" y="57.8783"/>
     <use style="fill:#ff0000;stroke:#ff0000;" x="241.530696" xlink:href="#m94c8be0caa" y="264.337381"/>
     <use style="fill:#ff0000;stroke:#ff0000;" x="242.320763" xlink:href="#m94c8be0caa" y="277.707791"/>
     <use style="fill:#ff0000;stroke:#ff0000;" x="77.126816" xlink:href="#m94c8be0caa" y="288.119412"/>
    </g>
   </g>
   <g id="text_12">
    <!-- (126) Subject: s27, Known = False, Degree = 1, Duration = 0.1 -->
    <defs>
     <path d="M 31 75.875 
Q 24.46875 64.65625 21.28125 53.65625 
Q 18.109375 42.671875 18.109375 31.390625 
Q 18.109375 20.125 21.3125 9.0625 
Q 24.515625 -2 31 -13.1875 
L 23.1875 -13.1875 
Q 15.875 -1.703125 12.234375 9.375 
Q 8.59375 20.453125 8.59375 31.390625 
Q 8.59375 42.28125 12.203125 53.3125 
Q 15.828125 64.359375 23.1875 75.875 
z
" id="DejaVuSans-40"/>
     <path d="M 12.40625 8.296875 
L 28.515625 8.296875 
L 28.515625 63.921875 
L 10.984375 60.40625 
L 10.984375 69.390625 
L 28.421875 72.90625 
L 38.28125 72.90625 
L 38.28125 8.296875 
L 54.390625 8.296875 
L 54.390625 0 
L 12.40625 0 
z
" id="DejaVuSans-49"/>
     <path d="M 8.015625 75.875 
L 15.828125 75.875 
Q 23.140625 64.359375 26.78125 53.3125 
Q 30.421875 42.28125 30.421875 31.390625 
Q 30.421875 20.453125 26.78125 9.375 
Q 23.140625 -1.703125 15.828125 -13.1875 
L 8.015625 -13.1875 
Q 14.5 -2 17.703125 9.0625 
Q 20.90625 20.125 20.90625 31.390625 
Q 20.90625 42.671875 17.703125 53.65625 
Q 14.5 64.65625 8.015625 75.875 
z
" id="DejaVuSans-41"/>
     <path id="DejaVuSans-32"/>
     <path d="M 53.515625 70.515625 
L 53.515625 60.890625 
Q 47.90625 63.578125 42.921875 64.890625 
Q 37.9375 66.21875 33.296875 66.21875 
Q 25.25 66.21875 20.875 63.09375 
Q 16.5 59.96875 16.5 54.203125 
Q 16.5 49.359375 19.40625 46.890625 
Q 22.3125 44.4375 30.421875 42.921875 
L 36.375 41.703125 
Q 47.40625 39.59375 52.65625 34.296875 
Q 57.90625 29 57.90625 20.125 
Q 57.90625 9.515625 50.796875 4.046875 
Q 43.703125 -1.421875 29.984375 -1.421875 
Q 24.8125 -1.421875 18.96875 -0.25 
Q 13.140625 0.921875 6.890625 3.21875 
L 6.890625 13.375 
Q 12.890625 10.015625 18.65625 8.296875 
Q 24.421875 6.59375 29.984375 6.59375 
Q 38.421875 6.59375 43.015625 9.90625 
Q 47.609375 13.234375 47.609375 19.390625 
Q 47.609375 24.75 44.3125 27.78125 
Q 41.015625 30.8125 33.5 32.328125 
L 27.484375 33.5 
Q 16.453125 35.6875 11.515625 40.375 
Q 6.59375 45.0625 6.59375 53.421875 
Q 6.59375 63.09375 13.40625 68.65625 
Q 20.21875 74.21875 32.171875 74.21875 
Q 37.3125 74.21875 42.625 73.28125 
Q 47.953125 72.359375 53.515625 70.515625 
z
" id="DejaVuSans-83"/>
     <path d="M 8.5 21.578125 
L 8.5 54.6875 
L 17.484375 54.6875 
L 17.484375 21.921875 
Q 17.484375 14.15625 20.5 10.265625 
Q 23.53125 6.390625 29.59375 6.390625 
Q 36.859375 6.390625 41.078125 11.03125 
Q 45.3125 15.671875 45.3125 23.6875 
L 45.3125 54.6875 
L 54.296875 54.6875 
L 54.296875 0 
L 45.3125 0 
L 45.3125 8.40625 
Q 42.046875 3.421875 37.71875 1 
Q 33.40625 -1.421875 27.6875 -1.421875 
Q 18.265625 -1.421875 13.375 4.4375 
Q 8.5 10.296875 8.5 21.578125 
z
M 31.109375 56 
z
" id="DejaVuSans-117"/>
     <path d="M 48.6875 27.296875 
Q 48.6875 37.203125 44.609375 42.84375 
Q 40.53125 48.484375 33.40625 48.484375 
Q 26.265625 48.484375 22.1875 42.84375 
Q 18.109375 37.203125 18.109375 27.296875 
Q 18.109375 17.390625 22.1875 11.75 
Q 26.265625 6.109375 33.40625 6.109375 
Q 40.53125 6.109375 44.609375 11.75 
Q 48.6875 17.390625 48.6875 27.296875 
z
M 18.109375 46.390625 
Q 20.953125 51.265625 25.265625 53.625 
Q 29.59375 56 35.59375 56 
Q 45.5625 56 51.78125 48.09375 
Q 58.015625 40.1875 58.015625 27.296875 
Q 58.015625 14.40625 51.78125 6.484375 
Q 45.5625 -1.421875 35.59375 -1.421875 
Q 29.59375 -1.421875 25.265625 0.953125 
Q 20.953125 3.328125 18.109375 8.203125 
L 18.109375 0 
L 9.078125 0 
L 9.078125 75.984375 
L 18.109375 75.984375 
z
" id="DejaVuSans-98"/>
     <path d="M 9.421875 54.6875 
L 18.40625 54.6875 
L 18.40625 -0.984375 
Q 18.40625 -11.421875 14.421875 -16.109375 
Q 10.453125 -20.796875 1.609375 -20.796875 
L -1.8125 -20.796875 
L -1.8125 -13.1875 
L 0.59375 -13.1875 
Q 5.71875 -13.1875 7.5625 -10.8125 
Q 9.421875 -8.453125 9.421875 -0.984375 
z
M 9.421875 75.984375 
L 18.40625 75.984375 
L 18.40625 64.59375 
L 9.421875 64.59375 
z
" id="DejaVuSans-106"/>
     <path d="M 56.203125 29.59375 
L 56.203125 25.203125 
L 14.890625 25.203125 
Q 15.484375 15.921875 20.484375 11.0625 
Q 25.484375 6.203125 34.421875 6.203125 
Q 39.59375 6.203125 44.453125 7.46875 
Q 49.3125 8.734375 54.109375 11.28125 
L 54.109375 2.78125 
Q 49.265625 0.734375 44.1875 -0.34375 
Q 39.109375 -1.421875 33.890625 -1.421875 
Q 20.796875 -1.421875 13.15625 6.1875 
Q 5.515625 13.8125 5.515625 26.8125 
Q 5.515625 40.234375 12.765625 48.109375 
Q 20.015625 56 32.328125 56 
Q 43.359375 56 49.78125 48.890625 
Q 56.203125 41.796875 56.203125 29.59375 
z
M 47.21875 32.234375 
Q 47.125 39.59375 43.09375 43.984375 
Q 39.0625 48.390625 32.421875 48.390625 
Q 24.90625 48.390625 20.390625 44.140625 
Q 15.875 39.890625 15.1875 32.171875 
z
" id="DejaVuSans-101"/>
     <path d="M 48.78125 52.59375 
L 48.78125 44.1875 
Q 44.96875 46.296875 41.140625 47.34375 
Q 37.3125 48.390625 33.40625 48.390625 
Q 24.65625 48.390625 19.8125 42.84375 
Q 14.984375 37.3125 14.984375 27.296875 
Q 14.984375 17.28125 19.8125 11.734375 
Q 24.65625 6.203125 33.40625 6.203125 
Q 37.3125 6.203125 41.140625 7.25 
Q 44.96875 8.296875 48.78125 10.40625 
L 48.78125 2.09375 
Q 45.015625 0.34375 40.984375 -0.53125 
Q 36.96875 -1.421875 32.421875 -1.421875 
Q 20.0625 -1.421875 12.78125 6.34375 
Q 5.515625 14.109375 5.515625 27.296875 
Q 5.515625 40.671875 12.859375 48.328125 
Q 20.21875 56 33.015625 56 
Q 37.15625 56 41.109375 55.140625 
Q 45.0625 54.296875 48.78125 52.59375 
z
" id="DejaVuSans-99"/>
     <path d="M 18.3125 70.21875 
L 18.3125 54.6875 
L 36.8125 54.6875 
L 36.8125 47.703125 
L 18.3125 47.703125 
L 18.3125 18.015625 
Q 18.3125 11.328125 20.140625 9.421875 
Q 21.96875 7.515625 27.59375 7.515625 
L 36.8125 7.515625 
L 36.8125 0 
L 27.59375 0 
Q 17.1875 0 13.234375 3.875 
Q 9.28125 7.765625 9.28125 18.015625 
L 9.28125 47.703125 
L 2.6875 47.703125 
L 2.6875 54.6875 
L 9.28125 54.6875 
L 9.28125 70.21875 
z
" id="DejaVuSans-116"/>
     <path d="M 11.71875 12.40625 
L 22.015625 12.40625 
L 22.015625 0 
L 11.71875 0 
z
M 11.71875 51.703125 
L 22.015625 51.703125 
L 22.015625 39.3125 
L 11.71875 39.3125 
z
" id="DejaVuSans-58"/>
     <path d="M 44.28125 53.078125 
L 44.28125 44.578125 
Q 40.484375 46.53125 36.375 47.5 
Q 32.28125 48.484375 27.875 48.484375 
Q 21.1875 48.484375 17.84375 46.4375 
Q 14.5 44.390625 14.5 40.28125 
Q 14.5 37.15625 16.890625 35.375 
Q 19.28125 33.59375 26.515625 31.984375 
L 29.59375 31.296875 
Q 39.15625 29.25 43.1875 25.515625 
Q 47.21875 21.78125 47.21875 15.09375 
Q 47.21875 7.46875 41.1875 3.015625 
Q 35.15625 -1.421875 24.609375 -1.421875 
Q 20.21875 -1.421875 15.453125 -0.5625 
Q 10.6875 0.296875 5.421875 2 
L 5.421875 11.28125 
Q 10.40625 8.6875 15.234375 7.390625 
Q 20.0625 6.109375 24.8125 6.109375 
Q 31.15625 6.109375 34.5625 8.28125 
Q 37.984375 10.453125 37.984375 14.40625 
Q 37.984375 18.0625 35.515625 20.015625 
Q 33.0625 21.96875 24.703125 23.78125 
L 21.578125 24.515625 
Q 13.234375 26.265625 9.515625 29.90625 
Q 5.8125 33.546875 5.8125 39.890625 
Q 5.8125 47.609375 11.28125 51.796875 
Q 16.75 56 26.8125 56 
Q 31.78125 56 36.171875 55.265625 
Q 40.578125 54.546875 44.28125 53.078125 
z
" id="DejaVuSans-115"/>
     <path d="M 8.203125 72.90625 
L 55.078125 72.90625 
L 55.078125 68.703125 
L 28.609375 0 
L 18.3125 0 
L 43.21875 64.59375 
L 8.203125 64.59375 
z
" id="DejaVuSans-55"/>
     <path d="M 11.71875 12.40625 
L 22.015625 12.40625 
L 22.015625 4 
L 14.015625 -11.625 
L 7.71875 -11.625 
L 11.71875 4 
z
" id="DejaVuSans-44"/>
     <path d="M 9.8125 72.90625 
L 19.671875 72.90625 
L 19.671875 42.09375 
L 52.390625 72.90625 
L 65.09375 72.90625 
L 28.90625 38.921875 
L 67.671875 0 
L 54.6875 0 
L 19.671875 35.109375 
L 19.671875 0 
L 9.8125 0 
z
" id="DejaVuSans-75"/>
     <path d="M 54.890625 33.015625 
L 54.890625 0 
L 45.90625 0 
L 45.90625 32.71875 
Q 45.90625 40.484375 42.875 44.328125 
Q 39.84375 48.1875 33.796875 48.1875 
Q 26.515625 48.1875 22.3125 43.546875 
Q 18.109375 38.921875 18.109375 30.90625 
L 18.109375 0 
L 9.078125 0 
L 9.078125 54.6875 
L 18.109375 54.6875 
L 18.109375 46.1875 
Q 21.34375 51.125 25.703125 53.5625 
Q 30.078125 56 35.796875 56 
Q 45.21875 56 50.046875 50.171875 
Q 54.890625 44.34375 54.890625 33.015625 
z
" id="DejaVuSans-110"/>
     <path d="M 30.609375 48.390625 
Q 23.390625 48.390625 19.1875 42.75 
Q 14.984375 37.109375 14.984375 27.296875 
Q 14.984375 17.484375 19.15625 11.84375 
Q 23.34375 6.203125 30.609375 6.203125 
Q 37.796875 6.203125 41.984375 11.859375 
Q 46.1875 17.53125 46.1875 27.296875 
Q 46.1875 37.015625 41.984375 42.703125 
Q 37.796875 48.390625 30.609375 48.390625 
z
M 30.609375 56 
Q 42.328125 56 49.015625 48.375 
Q 55.71875 40.765625 55.71875 27.296875 
Q 55.71875 13.875 49.015625 6.21875 
Q 42.328125 -1.421875 30.609375 -1.421875 
Q 18.84375 -1.421875 12.171875 6.21875 
Q 5.515625 13.875 5.515625 27.296875 
Q 5.515625 40.765625 12.171875 48.375 
Q 18.84375 56 30.609375 56 
z
" id="DejaVuSans-111"/>
     <path d="M 4.203125 54.6875 
L 13.1875 54.6875 
L 24.421875 12.015625 
L 35.59375 54.6875 
L 46.1875 54.6875 
L 57.421875 12.015625 
L 68.609375 54.6875 
L 77.59375 54.6875 
L 63.28125 0 
L 52.6875 0 
L 40.921875 44.828125 
L 29.109375 0 
L 18.5 0 
z
" id="DejaVuSans-119"/>
     <path d="M 10.59375 45.40625 
L 73.1875 45.40625 
L 73.1875 37.203125 
L 10.59375 37.203125 
z
M 10.59375 25.484375 
L 73.1875 25.484375 
L 73.1875 17.1875 
L 10.59375 17.1875 
z
" id="DejaVuSans-61"/>
     <path d="M 9.8125 72.90625 
L 51.703125 72.90625 
L 51.703125 64.59375 
L 19.671875 64.59375 
L 19.671875 43.109375 
L 48.578125 43.109375 
L 48.578125 34.8125 
L 19.671875 34.8125 
L 19.671875 0 
L 9.8125 0 
z
" id="DejaVuSans-70"/>
     <path d="M 34.28125 27.484375 
Q 23.390625 27.484375 19.1875 25 
Q 14.984375 22.515625 14.984375 16.5 
Q 14.984375 11.71875 18.140625 8.90625 
Q 21.296875 6.109375 26.703125 6.109375 
Q 34.1875 6.109375 38.703125 11.40625 
Q 43.21875 16.703125 43.21875 25.484375 
L 43.21875 27.484375 
z
M 52.203125 31.203125 
L 52.203125 0 
L 43.21875 0 
L 43.21875 8.296875 
Q 40.140625 3.328125 35.546875 0.953125 
Q 30.953125 -1.421875 24.3125 -1.421875 
Q 15.921875 -1.421875 10.953125 3.296875 
Q 6 8.015625 6 15.921875 
Q 6 25.140625 12.171875 29.828125 
Q 18.359375 34.515625 30.609375 34.515625 
L 43.21875 34.515625 
L 43.21875 35.40625 
Q 43.21875 41.609375 39.140625 45 
Q 35.0625 48.390625 27.6875 48.390625 
Q 23 48.390625 18.546875 47.265625 
Q 14.109375 46.140625 10.015625 43.890625 
L 10.015625 52.203125 
Q 14.9375 54.109375 19.578125 55.046875 
Q 24.21875 56 28.609375 56 
Q 40.484375 56 46.34375 49.84375 
Q 52.203125 43.703125 52.203125 31.203125 
z
" id="DejaVuSans-97"/>
     <path d="M 9.421875 75.984375 
L 18.40625 75.984375 
L 18.40625 0 
L 9.421875 0 
z
" id="DejaVuSans-108"/>
     <path d="M 19.671875 64.796875 
L 19.671875 8.109375 
L 31.59375 8.109375 
Q 46.6875 8.109375 53.6875 14.9375 
Q 60.6875 21.78125 60.6875 36.53125 
Q 60.6875 51.171875 53.6875 57.984375 
Q 46.6875 64.796875 31.59375 64.796875 
z
M 9.8125 72.90625 
L 30.078125 72.90625 
Q 51.265625 72.90625 61.171875 64.09375 
Q 71.09375 55.28125 71.09375 36.53125 
Q 71.09375 17.671875 61.125 8.828125 
Q 51.171875 0 30.078125 0 
L 9.8125 0 
z
" id="DejaVuSans-68"/>
     <path d="M 45.40625 27.984375 
Q 45.40625 37.75 41.375 43.109375 
Q 37.359375 48.484375 30.078125 48.484375 
Q 22.859375 48.484375 18.828125 43.109375 
Q 14.796875 37.75 14.796875 27.984375 
Q 14.796875 18.265625 18.828125 12.890625 
Q 22.859375 7.515625 30.078125 7.515625 
Q 37.359375 7.515625 41.375 12.890625 
Q 45.40625 18.265625 45.40625 27.984375 
z
M 54.390625 6.78125 
Q 54.390625 -7.171875 48.1875 -13.984375 
Q 42 -20.796875 29.203125 -20.796875 
Q 24.46875 -20.796875 20.265625 -20.09375 
Q 16.0625 -19.390625 12.109375 -17.921875 
L 12.109375 -9.1875 
Q 16.0625 -11.328125 19.921875 -12.34375 
Q 23.78125 -13.375 27.78125 -13.375 
Q 36.625 -13.375 41.015625 -8.765625 
Q 45.40625 -4.15625 45.40625 5.171875 
L 45.40625 9.625 
Q 42.625 4.78125 38.28125 2.390625 
Q 33.9375 0 27.875 0 
Q 17.828125 0 11.671875 7.65625 
Q 5.515625 15.328125 5.515625 27.984375 
Q 5.515625 40.671875 11.671875 48.328125 
Q 17.828125 56 27.875 56 
Q 33.9375 56 38.28125 53.609375 
Q 42.625 51.21875 45.40625 46.390625 
L 45.40625 54.6875 
L 54.390625 54.6875 
z
" id="DejaVuSans-103"/>
     <path d="M 41.109375 46.296875 
Q 39.59375 47.171875 37.8125 47.578125 
Q 36.03125 48 33.890625 48 
Q 26.265625 48 22.1875 43.046875 
Q 18.109375 38.09375 18.109375 28.8125 
L 18.109375 0 
L 9.078125 0 
L 9.078125 54.6875 
L 18.109375 54.6875 
L 18.109375 46.1875 
Q 20.953125 51.171875 25.484375 53.578125 
Q 30.03125 56 36.53125 56 
Q 37.453125 56 38.578125 55.875 
Q 39.703125 55.765625 41.0625 55.515625 
z
" id="DejaVuSans-114"/>
     <path d="M 9.421875 54.6875 
L 18.40625 54.6875 
L 18.40625 0 
L 9.421875 0 
z
M 9.421875 75.984375 
L 18.40625 75.984375 
L 18.40625 64.59375 
L 9.421875 64.59375 
z
" id="DejaVuSans-105"/>
     <path d="M 10.6875 12.40625 
L 21 12.40625 
L 21 0 
L 10.6875 0 
z
" id="DejaVuSans-46"/>
    </defs>
    <g transform="translate(45.924375 35.472)scale(0.12 -0.12)">
     <use xlink:href="#DejaVuSans-40"/>
     <use x="39.013672" xlink:href="#DejaVuSans-49"/>
     <use x="102.636719" xlink:href="#DejaVuSans-50"/>
     <use x="166.259766" xlink:href="#DejaVuSans-54"/>
     <use x="229.882812" xlink:href="#DejaVuSans-41"/>
     <use x="268.896484" xlink:href="#DejaVuSans-32"/>
     <use x="300.683594" xlink:href="#DejaVuSans-83"/>
     <use x="364.160156" xlink:href="#DejaVuSans-117"/>
     <use x="427.539062" xlink:href="#DejaVuSans-98"/>
     <use x="491.015625" xlink:href="#DejaVuSans-106"/>
     <use x="518.798828" xlink:href="#DejaVuSans-101"/>
     <use x="580.322266" xlink:href="#DejaVuSans-99"/>
     <use x="635.302734" xlink:href="#DejaVuSans-116"/>
     <use x="674.511719" xlink:href="#DejaVuSans-58"/>
     <use x="708.203125" xlink:href="#DejaVuSans-32"/>
     <use x="739.990234" xlink:href="#DejaVuSans-115"/>
     <use x="792.089844" xlink:href="#DejaVuSans-50"/>
     <use x="855.712891" xlink:href="#DejaVuSans-55"/>
     <use x="919.335938" xlink:href="#DejaVuSans-44"/>
     <use x="951.123047" xlink:href="#DejaVuSans-32"/>
     <use x="982.910156" xlink:href="#DejaVuSans-75"/>
     <use x="1048.486328" xlink:href="#DejaVuSans-110"/>
     <use x="1111.865234" xlink:href="#DejaVuSans-111"/>
     <use x="1173.046875" xlink:href="#DejaVuSans-119"/>
     <use x="1254.833984" xlink:href="#DejaVuSans-110"/>
     <use x="1318.212891" xlink:href="#DejaVuSans-32"/>
     <use x="1350" xlink:href="#DejaVuSans-61"/>
     <use x="1433.789062" xlink:href="#DejaVuSans-32"/>
     <use x="1465.576172" xlink:href="#DejaVuSans-70"/>
     <use x="1522.955078" xlink:href="#DejaVuSans-97"/>
     <use x="1584.234375" xlink:href="#DejaVuSans-108"/>
     <use x="1612.017578" xlink:href="#DejaVuSans-115"/>
     <use x="1664.117188" xlink:href="#DejaVuSans-101"/>
     <use x="1725.640625" xlink:href="#DejaVuSans-44"/>
     <use x="1757.427734" xlink:href="#DejaVuSans-32"/>
     <use x="1789.214844" xlink:href="#DejaVuSans-68"/>
     <use x="1866.216797" xlink:href="#DejaVuSans-101"/>
     <use x="1927.740234" xlink:href="#DejaVuSans-103"/>
     <use x="1991.216797" xlink:href="#DejaVuSans-114"/>
     <use x="2032.298828" xlink:href="#DejaVuSans-101"/>
     <use x="2093.822266" xlink:href="#DejaVuSans-101"/>
     <use x="2155.345703" xlink:href="#DejaVuSans-32"/>
     <use x="2187.132812" xlink:href="#DejaVuSans-61"/>
     <use x="2270.921875" xlink:href="#DejaVuSans-32"/>
     <use x="2302.708984" xlink:href="#DejaVuSans-49"/>
     <use x="2366.332031" xlink:href="#DejaVuSans-44"/>
     <use x="2398.119141" xlink:href="#DejaVuSans-32"/>
     <use x="2429.90625" xlink:href="#DejaVuSans-68"/>
     <use x="2506.908203" xlink:href="#DejaVuSans-117"/>
     <use x="2570.287109" xlink:href="#DejaVuSans-114"/>
     <use x="2611.400391" xlink:href="#DejaVuSans-97"/>
     <use x="2672.679688" xlink:href="#DejaVuSans-116"/>
     <use x="2711.888672" xlink:href="#DejaVuSans-105"/>
     <use x="2739.671875" xlink:href="#DejaVuSans-111"/>
     <use x="2800.853516" xlink:href="#DejaVuSans-110"/>
     <use x="2864.232422" xlink:href="#DejaVuSans-32"/>
     <use x="2896.019531" xlink:href="#DejaVuSans-61"/>
     <use x="2979.808594" xlink:href="#DejaVuSans-32"/>
     <use x="3011.595703" xlink:href="#DejaVuSans-48"/>
     <use x="3075.21875" xlink:href="#DejaVuSans-46"/>
     <use x="3107.005859" xlink:href="#DejaVuSans-49"/>
    </g>
   </g>
  </g>
 </g>
 <defs>
  <clipPath id="p5453ba3fab">
   <rect height="266.112" width="357.12" x="57.6" y="41.472"/>
  </clipPath>
 </defs>
</svg>
