<?xml version="1.0" encoding="utf-8" standalone="no"?>
<!DOCTYPE svg PUBLIC "-//W3C//DTD SVG 1.1//EN"
  "http://www.w3.org/Graphics/SVG/1.1/DTD/svg11.dtd">
<!-- Created with matplotlib (https://matplotlib.org/) -->
<svg height="345.6pt" version="1.1" viewBox="0 0 460.8 345.6" width="460.8pt" xmlns="http://www.w3.org/2000/svg" xmlns:xlink="http://www.w3.org/1999/xlink">
 <defs>
  <style type="text/css">
*{stroke-linecap:butt;stroke-linejoin:round;}
  </style>
 </defs>
 <g id="figure_1">
  <g id="patch_1">
   <path d="M 0 345.6 
L 460.8 345.6 
L 460.8 0 
L 0 0 
z
" style="fill:#ffffff;"/>
  </g>
  <g id="axes_1">
   <g id="patch_2">
    <path d="M 57.6 307.584 
L 414.72 307.584 
L 414.72 41.472 
L 57.6 41.472 
z
" style="fill:#ffffff;"/>
   </g>
   <g id="line2d_1">
    <path clip-path="url(#pa1a552138e)" d="M 398.234085 56.81824 
L 398.234085 56.682633 
L 398.40196 56.547026 
L 398.487273 56.277255 
L 398.40196 56.277255 
L 398.234085 56.547026 
L 398.40196 57.225061 
L 398.234085 57.360668 
L 398.066211 57.089454 
L 398.066211 56.547026 
L 398.319399 56.81824 
L 398.151524 56.682633 
L 397.98365 56.682633 
L 398.066211 56.682633 
L 398.151524 56.953847 
L 398.066211 56.953847 
L 397.815776 57.089454 
L 397.815776 57.225061 
L 398.40196 56.953847 
L 398.40196 56.81824 
L 398.066211 56.953847 
L 397.98365 56.953847 
L 398.234085 56.953847 
L 397.98365 57.631882 
L 397.647902 57.901653 
L 397.898337 57.496275 
L 397.730463 57.766046 
L 397.562589 57.089454 
L 397.647902 57.089454 
L 397.730463 57.089454 
L 397.480027 57.360668 
L 397.394714 57.631882 
L 397.480027 57.901653 
L 397.647902 57.901653 
L 397.480027 57.901653 
L 397.312153 57.496275 
L 397.815776 57.901653 
L 397.898337 57.766046 
L 397.815776 57.496275 
L 397.562589 57.631882 
L 397.394714 58.03726 
L 397.312153 58.03726 
L 397.562589 58.03726 
L 397.730463 57.901653 
L 397.562589 58.172867 
L 397.562589 57.901653 
L 397.480027 57.496275 
L 397.394714 57.631882 
L 397.480027 58.03726 
L 397.480027 58.03726 
L 397.562589 58.308474 
L 397.562589 58.03726 
L 397.730463 58.03726 
L 397.815776 58.172867 
L 397.730463 58.172867 
L 397.480027 58.308474 
L 397.312153 58.579688 
L 397.312153 58.579688 
L 397.144279 58.308474 
L 397.394714 58.03726 
L 397.562589 58.308474 
L 397.480027 58.579688 
L 397.312153 58.715295 
L 397.22684 58.579688 
L 397.394714 58.308474 
L 397.312153 58.172867 
L 397.22684 58.444081 
L 397.480027 58.715295 
L 397.312153 58.850902 
L 397.058966 58.850902 
L 396.891092 58.579688 
L 397.22684 58.444081 
L 397.058966 58.579688 
L 397.22684 58.579688 
L 397.394714 58.579688 
L 397.144279 58.308474 
L 396.976405 58.579688 
L 396.808531 58.308474 
L 396.472782 58.308474 
L 396.555343 57.766046 
L 396.640656 57.766046 
L 396.808531 57.901653 
L 396.891092 58.172867 
L 396.723218 57.901653 
L 396.640656 57.901653 
L 396.808531 58.03726 
L 396.137034 58.308474 
L 396.304908 58.308474 
L 396.387469 57.496275 
L 396.304908 57.360668 
L 396.137034 57.901653 
L 396.304908 58.444081 
L 396.219595 58.308474 
L 396.387469 58.986509 
L 396.387469 58.715295 
L 396.387469 58.308474 
L 396.304908 58.444081 
L 396.219595 58.308474 
L 396.304908 57.901653 
L 396.472782 57.901653 
L 396.472782 58.579688 
L 395.96916 58.579688 
L 395.96916 58.579688 
L 396.137034 58.715295 
L 395.96916 58.444081 
L 395.883846 58.308474 
L 395.96916 58.308474 
L 395.96916 58.986509 
L 395.96916 58.444081 
L 396.137034 58.308474 
L 396.304908 58.444081 
L 396.137034 58.444081 
L 396.051721 58.579688 
L 396.137034 58.579688 
L 396.137034 58.715295 
L 395.96916 58.986509 
L 395.96916 59.256281 
L 395.883846 58.715295 
L 395.801285 58.715295 
L 395.883846 58.715295 
L 395.883846 58.986509 
L 395.801285 58.444081 
L 395.633411 58.172867 
L 395.883846 58.715295 
L 395.801285 58.579688 
L 395.548098 58.579688 
L 395.548098 58.850902 
L 395.548098 58.850902 
L 395.380224 59.120674 
L 395.548098 59.391888 
L 395.633411 59.256281 
L 395.380224 58.172867 
L 395.380224 58.444081 
L 395.297663 59.256281 
L 395.21235 59.391888 
L 395.380224 59.256281 
L 395.548098 59.527495 
L 395.465537 59.527495 
L 395.380224 59.527495 
L 395.21235 59.256281 
L 395.129789 59.391888 
L 395.297663 59.256281 
L 395.465537 59.120674 
L 395.465537 59.256281 
L 395.633411 59.391888 
L 395.465537 59.256281 
L 395.21235 59.663102 
L 395.548098 60.069923 
L 395.465537 60.339694 
L 395.297663 60.339694 
L 395.465537 59.798709 
L 395.633411 59.663102 
L 395.715972 59.934316 
L 395.633411 60.882122 
L 395.465537 60.882122 
L 395.380224 60.069923 
L 395.297663 60.069923 
L 395.380224 60.339694 
L 395.633411 60.475301 
L 395.465537 60.475301 
L 395.129789 60.746515 
L 395.21235 60.475301 
L 395.801285 59.798709 
L 395.96916 59.527495 
L 395.96916 59.798709 
L 395.715972 60.069923 
L 395.129789 60.069923 
L 394.708727 59.798709 
L 395.044475 59.934316 
L 395.044475 59.663102 
L 394.961914 59.663102 
L 394.876601 59.663102 
L 394.79404 59.527495 
L 394.79404 59.527495 
L 395.129789 58.850902 
L 394.708727 58.850902 
L 394.708727 58.986509 
L 394.79404 58.986509 
L 394.876601 58.986509 
L 394.876601 58.986509 
L 394.79404 58.850902 
L 394.961914 58.850902 
L 395.129789 58.715295 
L 395.044475 58.444081 
L 394.876601 58.172867 
L 394.876601 57.766046 
L 394.961914 57.901653 
L 395.380224 57.360668 
L 395.297663 57.631882 
L 394.961914 56.277255 
L 394.876601 56.547026 
L 395.297663 56.547026 
L 395.380224 56.412862 
L 395.297663 55.734827 
L 395.21235 55.734827 
L 395.044475 56.141648 
L 395.044475 56.006041 
L 395.129789 55.328006 
L 395.380224 55.192399 
L 395.380224 54.922627 
L 394.626166 54.922627 
L 394.03723 54.78702 
L 393.283172 54.380199 
L 392.190614 53.973378 
L 390.930181 53.703607 
L 389.251439 53.568 
L 385.475646 53.568 
L 383.207968 53.839214 
L 377.668119 55.59922 
L 374.646383 56.682633 
L 371.539334 58.172867 
L 368.349724 60.069923 
L 364.909679 61.829929 
L 361.466882 63.45577 
L 346.944387 70.905499 
L 342.915406 72.802554 
L 334.607009 77.407422 
L 330.575276 79.574249 
L 322.853062 83.366917 
L 319.077269 85.535186 
L 308.162693 93.256129 
L 304.386899 95.965384 
L 296.747247 100.705858 
L 293.30445 102.737078 
L 286.171172 106.258532 
L 282.477939 107.748766 
L 278.867268 109.374608 
L 269.045251 114.521903 
L 260.819415 119.397985 
L 257.211495 122.242846 
L 252.172517 127.254535 
L 251.333146 128.609162 
L 249.571843 133.620851 
L 249.571843 134.704264 
L 250.075465 136.194498 
L 250.579088 142.425207 
L 250.411214 143.915441 
L 250.746962 144.727641 
L 250.661649 144.727641 
L 250.746962 145.405676 
L 250.829523 145.541283 
L 250.829523 146.624696 
L 250.914836 146.624696 
L 251.082711 146.353482 
L 251.333146 146.89591 
L 251.333146 146.624696 
L 251.418459 147.030074 
L 251.418459 146.89591 
L 251.586333 146.489089 
L 251.50102 146.89591 
L 251.50102 147.030074 
L 251.668894 147.165681 
L 252.089956 147.165681 
L 252.004643 146.760303 
L 252.172517 146.760303 
L 252.25783 146.760303 
L 252.172517 146.760303 
L 252.172517 146.624696 
L 252.089956 146.760303 
L 251.668894 146.760303 
L 252.089956 146.760303 
L 252.25783 146.624696 
L 252.508265 146.624696 
L 252.761453 146.760303 
L 253.097201 146.489089 
L 253.097201 146.624696 
L 253.011888 147.030074 
L 252.67614 147.301288 
L 252.340391 147.301288 
L 252.425704 147.301288 
L 252.761453 146.89591 
L 252.761453 146.217875 
L 252.761453 146.624696 
L 253.011888 147.301288 
L 252.844014 147.301288 
L 252.929327 146.760303 
L 253.432949 146.217875 
L 253.515511 146.082268 
L 253.347636 145.675447 
L 253.347636 145.811054 
L 253.011888 146.353482 
L 253.265075 145.811054 
L 253.265075 145.675447 
L 253.011888 145.811054 
L 253.097201 145.946661 
L 253.347636 145.946661 
L 253.347636 146.082268 
L 253.179762 146.082268 
L 253.936572 145.675447 
L 253.768698 146.624696 
L 253.768698 146.624696 
L 253.683385 145.811054 
L 253.768698 145.811054 
L 253.600824 145.811054 
L 253.515511 145.541283 
L 253.683385 145.946661 
L 254.187007 145.270069 
L 254.354882 145.405676 
L 254.608069 146.082268 
L 254.608069 145.946661 
L 254.272321 145.675447 
L 254.354882 145.811054 
L 254.272321 145.811054 
L 254.522756 146.082268 
L 254.69063 146.217875 
L 254.69063 146.082268 
L 254.858504 145.946661 
L 254.858504 145.946661 
L 254.775943 146.217875 
L 254.775943 146.217875 
L 255.026378 146.217875 
L 255.111692 145.946661 
L 255.194253 145.811054 
L 254.943817 146.082268 
L 254.69063 146.353482 
L 254.272321 146.082268 
L 253.011888 145.811054 
L 252.25783 145.811054 
L 251.418459 145.675447 
L 250.325901 145.675447 
L 248.815033 145.811054 
L 243.946681 148.11493 
L 242.185378 148.791523 
L 238.910455 150.281757 
L 237.4849 151.093957 
L 236.056593 152.041763 
L 231.774425 155.157839 
L 228.249066 156.105645 
L 226.655637 157.054894 
L 224.137524 159.086114 
L 222.962405 160.305134 
L 220.862601 162.743175 
L 219.101298 164.64023 
L 218.429801 165.723643 
L 217.59043 167.754863 
L 217.086808 168.973884 
L 216.244685 169.92169 
L 215.490627 171.006546 
L 214.901691 172.089959 
L 213.308262 176.018234 
L 212.8872 177.372862 
L 212.804639 178.320668 
L 213.055075 180.758709 
L 212.8872 182.113336 
L 212.133142 185.227969 
L 212.133142 191.324514 
L 211.879955 191.729892 
L 211.62952 194.033768 
L 211.712081 194.845968 
L 211.879955 195.386953 
L 211.712081 197.148401 
L 211.712081 197.148401 
L 211.797394 197.826436 
L 211.965268 198.367422 
L 211.712081 199.586442 
L 212.215704 199.993263 
L 212.301017 199.993263 
L 211.879955 199.993263 
L 211.712081 200.264477 
L 211.965268 201.753269 
L 211.965268 201.619105 
L 211.544207 201.619105 
L 211.62952 201.619105 
L 211.965268 201.753269 
L 212.215704 202.16009 
L 212.301017 202.838125 
L 212.215704 202.838125 
L 212.133142 202.431304 
L 212.047829 202.566911 
L 211.965268 202.566911 
L 211.797394 202.431304 
L 211.712081 202.838125 
L 211.797394 203.37911 
L 212.047829 203.514717 
L 212.301017 203.37911 
L 212.133142 203.514717 
L 211.879955 203.785931 
L 212.215704 203.514717 
L 212.215704 203.921538 
L 212.047829 204.598131 
L 212.215704 204.192752 
L 212.551452 204.057145 
L 212.804639 204.326917 
L 212.383578 203.785931 
L 212.468891 203.921538 
L 212.636765 204.326917 
L 212.636765 205.411773 
L 212.804639 205.54738 
L 213.308262 205.54738 
L 213.140388 205.681544 
L 212.8872 205.681544 
L 212.719326 205.54738 
L 212.719326 205.276166 
L 212.804639 205.54738 
L 212.8872 205.54738 
L 213.140388 205.411773 
L 213.222949 205.54738 
L 212.804639 205.817151 
L 212.719326 205.54738 
L 213.055075 205.952758 
L 213.055075 206.223972 
L 212.719326 206.7664 
L 213.140388 206.223972 
L 213.308262 206.495186 
L 213.222949 206.900564 
L 213.055075 206.7664 
L 213.558697 207.036171 
L 213.726571 206.7664 
L 213.558697 206.359579 
L 213.64401 206.495186 
L 213.64401 207.036171 
L 213.64401 206.900564 
L 213.476136 206.900564 
L 212.972513 207.171778 
L 212.636765 206.7664 
L 212.047829 206.495186 
L 206.340106 205.54738 
L 202.228564 204.733738 
L 196.939151 203.921538 
L 194.085289 203.107896 
L 191.146115 202.566911 
L 171.923142 201.753269 
L 168.650971 202.024483 
L 165.629235 201.888876 
L 162.522186 201.347891 
L 159.164702 201.483498 
L 155.889779 201.888876 
L 152.953356 202.431304 
L 149.846307 202.838125 
L 146.406262 203.107896 
L 142.880904 203.650324 
L 139.52342 204.462524 
L 136.416371 205.411773 
L 133.477196 206.088365 
L 122.147063 207.714206 
L 119.711511 208.526406 
L 117.611708 209.474212 
L 113.835914 210.693232 
L 110.814178 211.506874 
L 109.72162 211.913695 
L 108.799688 212.04786 
L 108.042878 212.319074 
L 107.624568 212.725895 
L 107.539255 213.26688 
L 107.624568 213.673701 
L 108.378626 214.621507 
L 108.5465 214.892721 
L 109.217997 215.570756 
L 109.385871 216.247349 
L 109.30331 216.65417 
L 109.385871 216.65417 
L 109.889494 216.382956 
L 110.142681 216.65417 
L 110.057368 216.789777 
L 109.974807 217.737583 
L 109.974807 218.008797 
L 109.974807 218.008797 
L 110.142681 218.280011 
L 110.057368 218.68539 
L 109.889494 220.040017 
L 110.225243 220.040017 
L 110.225243 220.311231 
L 109.889494 220.582445 
L 110.142681 221.259037 
L 109.639059 221.937072 
L 109.471185 222.478058 
L 109.553746 223.425864 
L 110.057368 223.425864 
L 110.057368 223.425864 
L 109.72162 224.239506 
L 109.639059 224.375113 
L 109.72162 224.916098 
L 109.639059 224.916098 
L 109.385871 225.051705 
L 109.385871 225.187312 
L 109.806933 225.999512 
L 110.057368 225.72974 
L 109.974807 225.999512 
L 109.806933 226.406333 
L 109.974807 226.677547 
L 109.806933 227.219975 
L 109.889494 227.084368 
L 110.142681 227.219975 
L 110.142681 227.354139 
L 109.471185 228.167781 
L 109.385871 228.573159 
L 109.639059 230.063394 
L 109.553746 230.470215 
L 109.471185 231.418021 
L 109.135436 231.960449 
L 109.050123 232.231663 
L 109.72162 231.960449 
L 109.385871 231.960449 
L 109.553746 232.772648 
L 109.72162 233.179469 
L 109.639059 233.043862 
L 109.806933 232.772648 
L 109.974807 232.772648 
L 109.889494 233.043862 
L 109.471185 233.58629 
L 109.639059 234.39849 
L 109.639059 235.210689 
L 109.639059 235.210689 
L 109.30331 235.753117 
L 109.806933 236.158496 
L 109.553746 236.700924 
L 109.135436 237.919944 
L 109.30331 237.784337 
L 109.471185 237.64873 
L 109.135436 238.055551 
L 109.050123 238.462372 
L 109.135436 238.462372 
L 109.217997 238.597979 
L 109.135436 239.952606 
L 108.799688 239.952606 
L 108.882249 240.222378 
L 109.050123 240.357985 
L 109.135436 240.222378 
L 108.967562 240.493592 
L 109.385871 240.493592 
L 109.639059 240.900413 
L 109.217997 241.577005 
L 109.30331 241.577005 
L 109.30331 241.712612 
L 109.135436 241.848219 
L 109.050123 242.119433 
L 109.471185 242.25504 
L 109.639059 241.848219 
L 109.639059 242.119433 
L 109.385871 242.796025 
L 109.471185 242.390647 
L 109.553746 242.660418 
L 109.471185 242.931632 
L 109.385871 242.796025 
L 109.471185 243.067239 
L 109.30331 243.202846 
L 109.553746 243.067239 
L 109.639059 243.609667 
L 109.639059 243.609667 
L 109.553746 243.609667 
L 109.385871 243.745274 
L 109.385871 243.745274 
L 109.553746 243.338453 
L 109.806933 243.202846 
L 109.889494 243.47406 
L 110.057368 243.067239 
L 110.142681 242.796025 
L 110.057368 242.796025 
L 110.560991 240.357985 
L 110.142681 233.856062 
L 110.814178 228.167781 
L 110.896739 225.322919 
L 110.393117 215.840528 
L 112.157172 192.814748 
L 112.575481 189.020637 
L 113.918475 181.16553 
L 114.675285 177.508469 
L 116.436588 170.870939 
L 118.200643 163.014389 
L 119.964699 155.293446 
L 120.886631 151.500778 
L 121.979189 147.979323 
L 123.23687 144.592034 
L 124.411989 140.934973 
L 126.930102 134.43305 
L 128.190535 131.454024 
L 130.876522 123.461867 
L 132.973574 118.178964 
L 133.64507 115.46971 
L 134.316567 113.302883 
L 135.155938 111.677041 
L 136.080622 110.186807 
L 136.752119 108.698015 
L 137.674051 106.258532 
L 138.095113 106.394139 
L 138.513422 106.665353 
L 138.513422 107.072174 
L 138.262987 107.343388 
L 138.345548 107.613159 
L 138.934484 108.01998 
L 139.102358 108.291194 
L 139.270232 109.239001 
L 139.438107 108.967787 
L 139.691294 108.291194 
L 139.605981 107.748766 
L 139.859168 107.477552 
L 140.613226 105.717547 
L 140.613226 105.717547 
L 140.866413 105.58194 
L 141.370036 105.853154 
L 141.370036 105.717547 
L 141.53791 105.310726 
L 141.452597 105.175119 
L 141.202162 105.58194 
L 141.705784 104.76974 
L 141.452597 105.175119 
L 141.370036 105.58194 
L 141.452597 105.853154 
L 141.788346 105.446333 
L 142.041533 105.988761 
L 142.041533 105.853154 
L 142.124094 106.124368 
L 142.124094 106.124368 
L 142.377281 106.124368 
L 142.459842 106.80096 
L 142.627717 107.207781 
L 142.545155 107.207781 
L 142.459842 107.343388 
L 142.880904 108.01998 
L 143.131339 108.155587 
L 143.467088 107.884373 
L 143.384527 108.155587 
L 143.216652 108.291194 
L 143.384527 107.884373 
L 143.467088 108.562408 
L 143.634962 108.698015 
L 143.802836 108.562408 
L 143.888149 108.01998 
L 143.802836 108.698015 
L 143.97071 109.917036 
L 143.97071 109.917036 
L 143.97071 110.322414 
L 143.97071 109.781429 
L 144.056023 110.186807 
L 144.474333 111.000449 
L 144.391772 111.136056 
L 144.138584 110.729235 
L 144.056023 110.864842 
L 144.223898 110.593628 
L 144.138584 110.864842 
L 144.138584 111.000449 
L 144.306459 111.000449 
L 144.474333 111.27022 
L 144.391772 111.405827 
L 144.391772 111.27022 
L 144.72752 111.677041 
L 144.642207 111.677041 
L 144.642207 111.541434 
L 144.642207 111.541434 
L 144.810081 111.812648 
L 144.810081 112.083862 
L 144.977955 111.948255 
L 145.14583 112.083862 
L 145.14583 111.948255 
L 145.063269 112.760455 
L 144.895394 112.760455 
L 144.810081 112.896062 
L 144.895394 113.031669 
L 145.313704 112.760455 
L 145.399017 112.896062 
L 145.063269 113.43849 
L 145.231143 113.574097 
L 145.649452 113.574097 
L 145.063269 113.843868 
L 145.313704 113.979475 
L 145.481578 114.386296 
L 145.481578 114.793117 
L 145.649452 115.064331 
L 145.817327 114.928724 
L 145.817327 114.928724 
L 145.734765 114.793117 
L 145.817327 115.46971 
L 145.90264 115.605317 
L 145.90264 115.876531 
L 145.566891 116.147745 
L 145.734765 116.283352 
L 145.90264 116.283352 
L 145.90264 116.417516 
L 145.985201 116.417516 
L 146.238388 116.959944 
L 146.238388 116.959944 
L 146.153075 117.636536 
L 146.070514 117.636536 
L 145.90264 117.502372 
L 146.488823 117.90775 
L 146.574136 117.772143 
L 146.574136 117.90775 
L 146.488823 118.178964 
L 146.574136 118.314571 
L 146.488823 118.043357 
L 146.406262 118.178964 
L 146.406262 118.585785 
L 146.909885 119.262378 
L 147.16032 118.991164 
L 146.992446 119.262378 
L 146.909885 119.533592 
L 147.16032 120.07602 
L 147.663943 120.752612 
L 147.831817 120.888219 
L 147.831817 120.752612 
L 147.749256 120.617005 
L 147.663943 121.159433 
L 147.749256 121.023826 
L 148.085004 121.023826 
L 148.420753 120.617005 
L 148.588627 120.210184 
L 148.503314 120.617005 
L 148.671188 120.481398 
L 150.435243 120.481398 
L 151.021427 120.345791 
L 151.692924 120.345791 
L 152.617608 120.752612 
L 154.29635 121.836025 
L 156.393402 123.32626 
L 160.843444 125.628693 
L 170.665461 131.589631 
L 172.762513 133.078423 
L 175.030191 134.43305 
L 177.630865 135.787677 
L 180.402165 137.549126 
L 188.628001 144.727641 
L 197.274899 152.991012 
L 200.296635 156.105645 
L 203.318371 159.492935 
L 206.340106 162.607568 
L 209.361842 165.045609 
L 215.237439 169.380705 
L 234.209977 184.280163 
L 237.567461 186.582597 
L 240.757071 189.156244 
L 243.610932 191.729892 
L 246.382233 194.439147 
L 249.150781 196.74158 
L 254.354882 200.400084 
L 256.790434 202.295697 
L 259.140673 204.326917 
L 261.323037 205.952758 
L 265.352018 208.662013 
L 267.03076 210.152247 
L 271.312929 214.892721 
L 272.1523 216.789777 
L 272.991671 220.446838 
L 273.495293 222.206844 
L 274.081477 225.594133 
L 274.417225 228.97998 
L 274.334664 230.470215 
L 273.663167 233.315076 
L 273.159545 236.42971 
L 272.655922 238.326765 
L 272.488048 239.138964 
L 272.1523 240.086771 
L 271.899112 241.441398 
L 271.816551 242.796025 
L 271.899112 243.745274 
L 271.816551 244.693081 
L 270.556119 248.078928 
L 270.473558 251.33061 
L 270.22037 253.904258 
L 270.22037 254.852065 
L 269.884622 255.935478 
L 269.466312 256.747677 
L 269.380999 257.154498 
L 269.548873 257.831091 
L 269.466312 258.237912 
L 268.794815 259.99936 
L 268.877377 262.844222 
L 269.045251 263.113993 
L 268.96269 263.520814 
L 268.709502 263.792028 
L 268.459067 263.792028 
L 268.373754 264.063242 
L 268.626941 265.011048 
L 268.373754 264.875441 
L 268.291193 265.146655 
L 268.709502 265.958855 
L 268.038006 267.042268 
L 268.373754 267.042268 
L 268.291193 267.042268 
L 268.373754 267.177875 
L 268.291193 267.991517 
L 268.709502 268.125681 
L 268.373754 268.396895 
L 268.291193 268.125681 
L 268.709502 268.803716 
L 268.794815 268.668109 
L 268.459067 268.668109 
L 268.459067 268.532502 
L 268.373754 269.07493 
L 268.373754 268.532502 
L 268.20588 268.668109 
L 268.123319 268.939323 
L 268.20588 268.939323 
L 268.626941 268.803716 
L 268.373754 269.210537 
L 268.373754 269.480309 
L 268.541628 269.480309 
L 268.459067 269.480309 
L 268.291193 269.210537 
L 268.20588 268.532502 
L 268.123319 268.668109 
L 267.78757 268.803716 
L 267.702257 268.803716 
L 268.038006 269.07493 
L 267.702257 269.210537 
L 267.366509 268.803716 
L 267.78757 269.210537 
L 267.451822 268.803716 
L 267.619696 268.803716 
L 267.619696 269.07493 
L 267.451822 269.210537 
L 267.366509 269.07493 
L 267.534383 268.803716 
L 267.366509 268.803716 
L 267.283948 269.07493 
L 267.366509 269.210537 
L 267.283948 268.939323 
L 267.283948 268.668109 
L 267.116073 268.668109 
L 266.948199 268.939323 
L 267.116073 269.07493 
L 267.03076 269.07493 
L 266.862886 269.07493 
L 267.198634 268.939323 
L 266.695012 269.07493 
L 266.612451 268.939323 
L 266.695012 269.07493 
L 266.862886 268.939323 
L 267.198634 268.939323 
L 267.198634 269.07493 
L 267.198634 268.803716 
L 266.862886 268.803716 
L 266.695012 269.07493 
L 266.612451 269.480309 
L 266.444577 269.480309 
L 266.276702 269.210537 
L 266.359263 268.803716 
L 266.191389 269.210537 
L 266.108828 269.210537 
L 266.359263 268.803716 
L 266.444577 268.396895 
L 266.276702 267.85591 
L 266.191389 268.532502 
L 265.855641 268.532502 
L 266.191389 269.344702 
L 266.276702 269.07493 
L 266.276702 269.751523 
L 266.191389 269.751523 
L 266.023515 269.615916 
L 266.191389 269.344702 
L 265.940954 269.615916 
L 266.023515 269.344702 
L 266.108828 269.210537 
L 266.191389 269.344702 
L 265.687767 270.158344 
L 265.855641 269.88713 
L 265.437331 269.344702 
L 265.519892 269.615916 
L 265.605206 269.480309 
L 265.605206 269.07493 
L 265.687767 269.615916 
L 265.77308 269.615916 
L 265.687767 269.615916 
L 265.269457 269.210537 
L 265.269457 269.07493 
L 265.352018 269.615916 
L 265.437331 269.88713 
L 265.519892 269.615916 
L 265.352018 269.480309 
L 265.352018 269.480309 
L 265.519892 270.293951 
L 265.352018 270.429558 
L 265.101583 270.158344 
L 264.933709 270.158344 
L 264.765834 269.88713 
L 264.848396 269.88713 
L 265.01627 269.88713 
L 264.933709 270.158344 
L 265.01627 269.344702 
L 264.848396 269.344702 
L 264.848396 269.751523 
L 264.765834 269.615916 
L 264.680521 269.615916 
L 264.512647 270.022737 
L 264.59796 270.022737 
L 264.848396 270.429558 
L 264.933709 270.158344 
L 264.680521 269.751523 
L 264.512647 270.022737 
L 264.262212 270.699329 
L 264.176899 270.834936 
L 264.262212 270.563722 
L 264.344773 270.293951 
L 264.344773 270.293951 
L 264.344773 270.699329 
L 264.512647 270.834936 
L 264.680521 270.699329 
L 264.512647 270.699329 
L 264.344773 270.699329 
L 264.262212 270.834936 
L 264.430086 270.834936 
L 264.430086 271.10615 
L 264.344773 270.970543 
L 264.009025 270.970543 
L 263.590715 271.10615 
L 263.001779 270.834936 
L 261.072602 269.480309 
L 259.812169 268.668109 
L 258.133427 267.991517 
L 250.411214 266.094462 
L 247.304165 265.146655 
L 240.003013 263.656421 
L 235.888719 262.708615 
L 231.691864 261.894973 
L 227.409695 261.353987 
L 222.962405 261.21838 
L 218.344488 261.353987 
L 213.811885 261.353987 
L 209.193968 261.489594 
L 199.878325 262.844222 
L 194.756786 263.2496 
L 189.467372 263.520814 
L 179.730668 264.604227 
L 174.777003 265.282262 
L 149.260124 267.85591 
L 144.223898 268.261288 
L 139.270232 268.396895 
L 134.484442 268.396895 
L 129.533528 268.668109 
L 124.833051 269.07493 
L 115.765091 270.158344 
L 111.232488 270.563722 
L 107.035633 270.699329 
L 103.006652 270.970543 
L 94.94869 271.784185 
L 87.730099 272.325171 
L 84.708363 272.867599 
L 79.922572 274.222226 
L 78.158517 274.763211 
L 76.815523 275.305639 
L 75.725717 275.982232 
L 75.05422 276.660267 
L 74.718472 277.608073 
L 74.801033 277.74368 
L 75.222094 277.74368 
L 75.557843 278.014894 
L 76.061465 278.827093 
L 76.144026 279.233914 
L 76.061465 279.098307 
L 76.22934 278.9627 
L 76.22934 279.098307 
L 75.389969 280.046114 
L 74.886346 280.588542 
L 74.886346 280.588542 
L 74.968907 280.588542 
L 75.136781 280.724149 
L 75.222094 281.265134 
L 74.718472 281.671955 
L 74.801033 281.943169 
L 74.633159 282.21294 
L 74.633159 282.077333 
L 74.633159 282.348547 
L 74.465284 282.619761 
L 74.29741 282.619761 
L 74.214849 282.077333 
L 74.214849 282.619761 
L 74.214849 282.890975 
L 74.29741 282.755368 
L 74.382723 282.619761 
L 74.29741 282.755368 
L 74.046975 283.703175 
L 74.214849 283.567568 
L 74.382723 283.297796 
L 74.29741 283.567568 
L 74.382723 283.567568 
L 74.465284 283.838782 
L 74.29741 284.38121 
L 74.382723 284.38121 
L 74.465284 284.245603 
L 74.465284 284.38121 
L 74.968907 284.786588 
L 74.886346 284.786588 
L 74.633159 284.922195 
L 74.465284 284.516817 
L 74.633159 284.38121 
L 74.550597 284.516817 
L 74.550597 284.650981 
L 74.550597 284.38121 
L 74.633159 284.38121 
L 74.801033 284.38121 
L 74.886346 284.245603 
L 74.886346 283.974389 
L 74.801033 284.245603 
L 74.633159 284.245603 
L 74.382723 283.974389 
L 74.465284 283.703175 
L 74.718472 283.838782 
L 74.718472 284.245603 
L 74.633159 284.245603 
L 74.550597 283.974389 
L 74.550597 283.297796 
L 74.129536 283.297796 
L 74.129536 283.297796 
L 74.633159 282.755368 
L 74.550597 283.026582 
L 74.550597 283.162189 
L 74.718472 283.162189 
L 74.801033 283.431961 
L 74.801033 283.567568 
L 74.718472 283.431961 
L 74.550597 283.026582 
L 74.550597 283.297796 
L 74.465284 283.703175 
L 74.718472 283.703175 
L 75.05422 283.838782 
L 74.886346 283.567568 
L 74.801033 283.838782 
L 74.886346 283.974389 
L 74.633159 284.516817 
L 74.801033 284.516817 
L 74.886346 284.38121 
L 74.968907 284.516817 
L 74.968907 284.786588 
L 74.968907 284.786588 
L 74.801033 284.650981 
L 74.718472 284.38121 
L 74.801033 284.650981 
L 74.801033 285.193409 
L 74.886346 285.057802 
L 74.968907 284.38121 
L 74.968907 284.650981 
L 75.05422 284.922195 
L 75.304655 285.057802 
L 75.136781 285.057802 
L 75.136781 285.464623 
L 75.304655 285.464623 
L 75.557843 285.329016 
L 75.47253 285.60023 
L 75.222094 285.870002 
L 74.886346 285.735837 
L 74.718472 285.464623 
L 74.633159 285.057802 
L 74.801033 284.786588 
L 75.136781 284.922195 
L 75.304655 285.193409 
L 74.886346 285.193409 
L 75.136781 285.60023 
L 75.136781 285.464623 
L 75.304655 285.057802 
L 75.222094 285.464623 
L 75.136781 285.329016 
L 75.222094 285.329016 
L 75.304655 284.922195 
L 75.304655 284.922195 
L 74.886346 285.057802 
L 74.886346 284.922195 
L 75.05422 284.786588 
L 75.47253 284.922195 
L 75.557843 284.922195 
L 75.389969 284.922195 
L 74.968907 285.193409 
L 75.222094 284.922195 
L 75.725717 285.329016 
L 75.136781 284.786588 
L 75.304655 285.057802 
L 75.05422 285.057802 
L 75.222094 284.650981 
L 75.304655 284.650981 
L 75.304655 284.786588 
L 75.222094 284.650981 
L 74.886346 285.329016 
L 75.05422 285.329016 
L 74.968907 285.329016 
L 74.886346 285.057802 
L 74.801033 284.922195 
L 75.05422 285.329016 
L 75.47253 285.60023 
L 75.304655 285.464623 
L 75.304655 285.329016 
L 75.389969 285.464623 
L 75.725717 286.276822 
L 75.976152 286.412429 
L 76.061465 286.141215 
L 76.061465 286.005609 
L 76.061465 286.954857 
L 76.22934 287.360236 
L 76.061465 287.495843 
L 76.144026 286.548036 
L 75.976152 286.548036 
L 75.808278 286.548036 
L 75.808278 286.276822 
L 76.061465 286.276822 
L 76.22934 286.548036 
L 76.22934 286.548036 
L 75.640404 286.548036 
L 76.061465 286.954857 
L 75.976152 287.495843 
L 75.976152 287.495843 
L 75.725717 287.495843 
L 75.640404 287.767057 
L 75.725717 288.309485 
L 75.725717 288.173878 
L 75.893591 287.767057 
L 76.479775 287.495843 
L 76.479775 287.360236 
L 76.311901 287.360236 
L 75.976152 287.902664 
L 75.976152 287.902664 
L 75.808278 287.902664 
L 76.144026 287.902664 
L 76.144026 287.902664 
L 76.565088 288.309485 
L 76.479775 288.309485 
L 76.397214 288.443649 
L 76.647649 287.902664 
L 76.565088 287.902664 
L 76.479775 288.038271 
L 76.22934 287.767057 
L 75.976152 287.767057 
L 75.808278 288.038271 
L 75.808278 288.443649 
L 75.893591 288.309485 
L 76.144026 287.767057 
L 76.22934 287.63145 
L 76.061465 287.902664 
L 75.976152 287.767057 
L 76.144026 287.63145 
L 76.22934 287.902664 
L 76.22934 287.902664 
L 76.311901 288.038271 
L 76.22934 288.038271 
L 76.061465 288.038271 
L 75.808278 287.902664 
L 75.808278 287.902664 
L 75.976152 288.173878 
L 76.22934 288.173878 
L 76.061465 287.63145 
L 76.144026 288.173878 
L 75.976152 288.309485 
L 75.640404 288.173878 
L 75.557843 288.309485 
L 75.725717 288.443649 
L 75.893591 288.309485 
L 75.640404 288.443649 
L 75.557843 288.309485 
L 75.893591 287.767057 
L 75.893591 288.714863 
L 76.061465 288.986077 
L 76.311901 288.579256 
L 76.22934 288.443649 
L 75.976152 288.443649 
L 75.808278 288.579256 
L 75.976152 288.986077 
L 75.808278 289.121684 
L 75.136781 288.85047 
L 75.136781 288.714863 
L 75.222094 289.121684 
L 75.640404 289.528505 
L 75.725717 289.392898 
L 75.893591 289.392898 
L 76.22934 289.664112 
L 76.061465 289.664112 
L 75.725717 289.257291 
L 75.808278 289.392898 
L 75.893591 289.933884 
L 75.808278 290.747526 
L 75.893591 290.611919 
L 76.22934 290.205098 
L 76.061465 290.476312 
L 75.976152 290.883133 
L 76.144026 290.611919 
L 76.311901 290.611919 
L 76.311901 290.476312 
L 76.22934 290.611919 
L 75.976152 291.288511 
L 76.061465 291.288511 
L 76.22934 291.559725 
L 76.061465 291.424118 
L 76.061465 291.695332 
L 76.397214 292.102153 
L 76.22934 291.830939 
L 76.397214 291.695332 
L 76.144026 291.966546 
L 76.732962 291.966546 
L 76.815523 292.102153 
L 76.479775 292.371924 
L 76.397214 292.236317 
L 76.311901 291.830939 
L 76.397214 291.966546 
L 76.647649 292.236317 
L 77.068711 292.236317 
L 77.236585 292.371924 
L 76.815523 292.914352 
L 76.900836 292.914352 
L 77.236585 292.507531 
L 77.068711 293.049959 
L 77.236585 292.778745 
L 77.319146 293.321173 
L 77.48702 293.590945 
L 77.319146 293.321173 
L 77.572333 293.049959 
L 77.740207 293.185566 
L 77.654894 293.45678 
L 77.48702 293.45678 
L 77.654894 293.049959 
L 77.654894 293.049959 
L 77.822768 293.45678 
L 77.822768 293.590945 
L 77.740207 293.45678 
L 77.404459 293.862159 
L 77.48702 293.862159 
L 77.908082 294.404587 
L 77.990643 294.26898 
L 78.24383 293.862159 
L 78.158517 293.726552 
L 77.990643 293.726552 
L 77.990643 294.675801 
L 78.24383 295.081179 
L 78.158517 294.809965 
L 77.990643 294.404587 
L 78.158517 294.675801 
L 78.24383 294.675801 
L 78.158517 294.404587 
L 78.24383 295.488 
L 78.158517 295.352393 
L 78.075956 295.216786 
L 78.075956 294.945572 
L 78.494265 294.540194 
L 78.830014 294.809965 
L 78.915327 294.675801 
L 78.830014 294.675801 
L 78.66214 294.809965 
L 78.830014 295.216786 
L 78.747453 294.809965 
L 78.747453 295.081179 
L 78.66214 294.809965 
L 78.747453 294.945572 
L 78.830014 294.540194 
L 78.66214 294.809965 
L 78.579578 294.945572 
L 78.579578 294.675801 
L 78.747453 294.540194 
L 78.915327 294.675801 
L 78.915327 295.081179 
L 78.915327 295.081179 
" style="fill:none;stroke:#1f77b4;stroke-linecap:square;stroke-width:1.5;"/>
   </g>
   <g id="matplotlib.axis_1">
    <g id="xtick_1">
     <g id="line2d_2">
      <defs>
       <path d="M 0 0 
L 0 3.5 
" id="m8fe9885f00" style="stroke:#000000;stroke-width:0.8;"/>
      </defs>
      <g>
       <use style="stroke:#000000;stroke-width:0.8;" x="83.902016" xlink:href="#m8fe9885f00" y="307.584"/>
      </g>
     </g>
     <g id="text_1">
      <!-- −400 -->
      <defs>
       <path d="M 10.59375 35.5 
L 73.1875 35.5 
L 73.1875 27.203125 
L 10.59375 27.203125 
z
" id="DejaVuSans-8722"/>
       <path d="M 37.796875 64.3125 
L 12.890625 25.390625 
L 37.796875 25.390625 
z
M 35.203125 72.90625 
L 47.609375 72.90625 
L 47.609375 25.390625 
L 58.015625 25.390625 
L 58.015625 17.1875 
L 47.609375 17.1875 
L 47.609375 0 
L 37.796875 0 
L 37.796875 17.1875 
L 4.890625 17.1875 
L 4.890625 26.703125 
z
" id="DejaVuSans-52"/>
       <path d="M 31.78125 66.40625 
Q 24.171875 66.40625 20.328125 58.90625 
Q 16.5 51.421875 16.5 36.375 
Q 16.5 21.390625 20.328125 13.890625 
Q 24.171875 6.390625 31.78125 6.390625 
Q 39.453125 6.390625 43.28125 13.890625 
Q 47.125 21.390625 47.125 36.375 
Q 47.125 51.421875 43.28125 58.90625 
Q 39.453125 66.40625 31.78125 66.40625 
z
M 31.78125 74.21875 
Q 44.046875 74.21875 50.515625 64.515625 
Q 56.984375 54.828125 56.984375 36.375 
Q 56.984375 17.96875 50.515625 8.265625 
Q 44.046875 -1.421875 31.78125 -1.421875 
Q 19.53125 -1.421875 13.0625 8.265625 
Q 6.59375 17.96875 6.59375 36.375 
Q 6.59375 54.828125 13.0625 64.515625 
Q 19.53125 74.21875 31.78125 74.21875 
z
" id="DejaVuSans-48"/>
      </defs>
      <g transform="translate(70.168423 322.182437)scale(0.1 -0.1)">
       <use xlink:href="#DejaVuSans-8722"/>
       <use x="83.789062" xlink:href="#DejaVuSans-52"/>
       <use x="147.412109" xlink:href="#DejaVuSans-48"/>
       <use x="211.035156" xlink:href="#DejaVuSans-48"/>
      </g>
     </g>
    </g>
    <g id="xtick_2">
     <g id="line2d_3">
      <g>
       <use style="stroke:#000000;stroke-width:0.8;" x="138.94274" xlink:href="#m8fe9885f00" y="307.584"/>
      </g>
     </g>
     <g id="text_2">
      <!-- −200 -->
      <defs>
       <path d="M 19.1875 8.296875 
L 53.609375 8.296875 
L 53.609375 0 
L 7.328125 0 
L 7.328125 8.296875 
Q 12.9375 14.109375 22.625 23.890625 
Q 32.328125 33.6875 34.8125 36.53125 
Q 39.546875 41.84375 41.421875 45.53125 
Q 43.3125 49.21875 43.3125 52.78125 
Q 43.3125 58.59375 39.234375 62.25 
Q 35.15625 65.921875 28.609375 65.921875 
Q 23.96875 65.921875 18.8125 64.3125 
Q 13.671875 62.703125 7.8125 59.421875 
L 7.8125 69.390625 
Q 13.765625 71.78125 18.9375 73 
Q 24.125 74.21875 28.421875 74.21875 
Q 39.75 74.21875 46.484375 68.546875 
Q 53.21875 62.890625 53.21875 53.421875 
Q 53.21875 48.921875 51.53125 44.890625 
Q 49.859375 40.875 45.40625 35.40625 
Q 44.1875 33.984375 37.640625 27.21875 
Q 31.109375 20.453125 19.1875 8.296875 
z
" id="DejaVuSans-50"/>
      </defs>
      <g transform="translate(125.209146 322.182437)scale(0.1 -0.1)">
       <use xlink:href="#DejaVuSans-8722"/>
       <use x="83.789062" xlink:href="#DejaVuSans-50"/>
       <use x="147.412109" xlink:href="#DejaVuSans-48"/>
       <use x="211.035156" xlink:href="#DejaVuSans-48"/>
      </g>
     </g>
    </g>
    <g id="xtick_3">
     <g id="line2d_4">
      <g>
       <use style="stroke:#000000;stroke-width:0.8;" x="193.983464" xlink:href="#m8fe9885f00" y="307.584"/>
      </g>
     </g>
     <g id="text_3">
      <!-- 0 -->
      <g transform="translate(190.802214 322.182437)scale(0.1 -0.1)">
       <use xlink:href="#DejaVuSans-48"/>
      </g>
     </g>
    </g>
    <g id="xtick_4">
     <g id="line2d_5">
      <g>
       <use style="stroke:#000000;stroke-width:0.8;" x="249.024188" xlink:href="#m8fe9885f00" y="307.584"/>
      </g>
     </g>
     <g id="text_4">
      <!-- 200 -->
      <g transform="translate(239.480438 322.182437)scale(0.1 -0.1)">
       <use xlink:href="#DejaVuSans-50"/>
       <use x="63.623047" xlink:href="#DejaVuSans-48"/>
       <use x="127.246094" xlink:href="#DejaVuSans-48"/>
      </g>
     </g>
    </g>
    <g id="xtick_5">
     <g id="line2d_6">
      <g>
       <use style="stroke:#000000;stroke-width:0.8;" x="304.064911" xlink:href="#m8fe9885f00" y="307.584"/>
      </g>
     </g>
     <g id="text_5">
      <!-- 400 -->
      <g transform="translate(294.521161 322.182437)scale(0.1 -0.1)">
       <use xlink:href="#DejaVuSans-52"/>
       <use x="63.623047" xlink:href="#DejaVuSans-48"/>
       <use x="127.246094" xlink:href="#DejaVuSans-48"/>
      </g>
     </g>
    </g>
    <g id="xtick_6">
     <g id="line2d_7">
      <g>
       <use style="stroke:#000000;stroke-width:0.8;" x="359.105635" xlink:href="#m8fe9885f00" y="307.584"/>
      </g>
     </g>
     <g id="text_6">
      <!-- 600 -->
      <defs>
       <path d="M 33.015625 40.375 
Q 26.375 40.375 22.484375 35.828125 
Q 18.609375 31.296875 18.609375 23.390625 
Q 18.609375 15.53125 22.484375 10.953125 
Q 26.375 6.390625 33.015625 6.390625 
Q 39.65625 6.390625 43.53125 10.953125 
Q 47.40625 15.53125 47.40625 23.390625 
Q 47.40625 31.296875 43.53125 35.828125 
Q 39.65625 40.375 33.015625 40.375 
z
M 52.59375 71.296875 
L 52.59375 62.3125 
Q 48.875 64.0625 45.09375 64.984375 
Q 41.3125 65.921875 37.59375 65.921875 
Q 27.828125 65.921875 22.671875 59.328125 
Q 17.53125 52.734375 16.796875 39.40625 
Q 19.671875 43.65625 24.015625 45.921875 
Q 28.375 48.1875 33.59375 48.1875 
Q 44.578125 48.1875 50.953125 41.515625 
Q 57.328125 34.859375 57.328125 23.390625 
Q 57.328125 12.15625 50.6875 5.359375 
Q 44.046875 -1.421875 33.015625 -1.421875 
Q 20.359375 -1.421875 13.671875 8.265625 
Q 6.984375 17.96875 6.984375 36.375 
Q 6.984375 53.65625 15.1875 63.9375 
Q 23.390625 74.21875 37.203125 74.21875 
Q 40.921875 74.21875 44.703125 73.484375 
Q 48.484375 72.75 52.59375 71.296875 
z
" id="DejaVuSans-54"/>
      </defs>
      <g transform="translate(349.561885 322.182437)scale(0.1 -0.1)">
       <use xlink:href="#DejaVuSans-54"/>
       <use x="63.623047" xlink:href="#DejaVuSans-48"/>
       <use x="127.246094" xlink:href="#DejaVuSans-48"/>
      </g>
     </g>
    </g>
    <g id="xtick_7">
     <g id="line2d_8">
      <g>
       <use style="stroke:#000000;stroke-width:0.8;" x="414.146359" xlink:href="#m8fe9885f00" y="307.584"/>
      </g>
     </g>
     <g id="text_7">
      <!-- 800 -->
      <defs>
       <path d="M 31.78125 34.625 
Q 24.75 34.625 20.71875 30.859375 
Q 16.703125 27.09375 16.703125 20.515625 
Q 16.703125 13.921875 20.71875 10.15625 
Q 24.75 6.390625 31.78125 6.390625 
Q 38.8125 6.390625 42.859375 10.171875 
Q 46.921875 13.96875 46.921875 20.515625 
Q 46.921875 27.09375 42.890625 30.859375 
Q 38.875 34.625 31.78125 34.625 
z
M 21.921875 38.8125 
Q 15.578125 40.375 12.03125 44.71875 
Q 8.5 49.078125 8.5 55.328125 
Q 8.5 64.0625 14.71875 69.140625 
Q 20.953125 74.21875 31.78125 74.21875 
Q 42.671875 74.21875 48.875 69.140625 
Q 55.078125 64.0625 55.078125 55.328125 
Q 55.078125 49.078125 51.53125 44.71875 
Q 48 40.375 41.703125 38.8125 
Q 48.828125 37.15625 52.796875 32.3125 
Q 56.78125 27.484375 56.78125 20.515625 
Q 56.78125 9.90625 50.3125 4.234375 
Q 43.84375 -1.421875 31.78125 -1.421875 
Q 19.734375 -1.421875 13.25 4.234375 
Q 6.78125 9.90625 6.78125 20.515625 
Q 6.78125 27.484375 10.78125 32.3125 
Q 14.796875 37.15625 21.921875 38.8125 
z
M 18.3125 54.390625 
Q 18.3125 48.734375 21.84375 45.5625 
Q 25.390625 42.390625 31.78125 42.390625 
Q 38.140625 42.390625 41.71875 45.5625 
Q 45.3125 48.734375 45.3125 54.390625 
Q 45.3125 60.0625 41.71875 63.234375 
Q 38.140625 66.40625 31.78125 66.40625 
Q 25.390625 66.40625 21.84375 63.234375 
Q 18.3125 60.0625 18.3125 54.390625 
z
" id="DejaVuSans-56"/>
      </defs>
      <g transform="translate(404.602609 322.182437)scale(0.1 -0.1)">
       <use xlink:href="#DejaVuSans-56"/>
       <use x="63.623047" xlink:href="#DejaVuSans-48"/>
       <use x="127.246094" xlink:href="#DejaVuSans-48"/>
      </g>
     </g>
    </g>
   </g>
   <g id="matplotlib.axis_2">
    <g id="ytick_1">
     <g id="line2d_9">
      <defs>
       <path d="M 0 0 
L -3.5 0 
" id="m7236b1357e" style="stroke:#000000;stroke-width:0.8;"/>
      </defs>
      <g>
       <use style="stroke:#000000;stroke-width:0.8;" x="57.6" xlink:href="#m7236b1357e" y="284.451899"/>
      </g>
     </g>
     <g id="text_8">
      <!-- −750 -->
      <defs>
       <path d="M 8.203125 72.90625 
L 55.078125 72.90625 
L 55.078125 68.703125 
L 28.609375 0 
L 18.3125 0 
L 43.21875 64.59375 
L 8.203125 64.59375 
z
" id="DejaVuSans-55"/>
       <path d="M 10.796875 72.90625 
L 49.515625 72.90625 
L 49.515625 64.59375 
L 19.828125 64.59375 
L 19.828125 46.734375 
Q 21.96875 47.46875 24.109375 47.828125 
Q 26.265625 48.1875 28.421875 48.1875 
Q 40.625 48.1875 47.75 41.5 
Q 54.890625 34.8125 54.890625 23.390625 
Q 54.890625 11.625 47.5625 5.09375 
Q 40.234375 -1.421875 26.90625 -1.421875 
Q 22.3125 -1.421875 17.546875 -0.640625 
Q 12.796875 0.140625 7.71875 1.703125 
L 7.71875 11.625 
Q 12.109375 9.234375 16.796875 8.0625 
Q 21.484375 6.890625 26.703125 6.890625 
Q 35.15625 6.890625 40.078125 11.328125 
Q 45.015625 15.765625 45.015625 23.390625 
Q 45.015625 31 40.078125 35.4375 
Q 35.15625 39.890625 26.703125 39.890625 
Q 22.75 39.890625 18.8125 39.015625 
Q 14.890625 38.140625 10.796875 36.28125 
z
" id="DejaVuSans-53"/>
      </defs>
      <g transform="translate(23.132812 288.251117)scale(0.1 -0.1)">
       <use xlink:href="#DejaVuSans-8722"/>
       <use x="83.789062" xlink:href="#DejaVuSans-55"/>
       <use x="147.412109" xlink:href="#DejaVuSans-53"/>
       <use x="211.035156" xlink:href="#DejaVuSans-48"/>
      </g>
     </g>
    </g>
    <g id="ytick_2">
     <g id="line2d_10">
      <g>
       <use style="stroke:#000000;stroke-width:0.8;" x="57.6" xlink:href="#m7236b1357e" y="248.386207"/>
      </g>
     </g>
     <g id="text_9">
      <!-- −500 -->
      <g transform="translate(23.132812 252.185426)scale(0.1 -0.1)">
       <use xlink:href="#DejaVuSans-8722"/>
       <use x="83.789062" xlink:href="#DejaVuSans-53"/>
       <use x="147.412109" xlink:href="#DejaVuSans-48"/>
       <use x="211.035156" xlink:href="#DejaVuSans-48"/>
      </g>
     </g>
    </g>
    <g id="ytick_3">
     <g id="line2d_11">
      <g>
       <use style="stroke:#000000;stroke-width:0.8;" x="57.6" xlink:href="#m7236b1357e" y="212.320516"/>
      </g>
     </g>
     <g id="text_10">
      <!-- −250 -->
      <g transform="translate(23.132812 216.119735)scale(0.1 -0.1)">
       <use xlink:href="#DejaVuSans-8722"/>
       <use x="83.789062" xlink:href="#DejaVuSans-50"/>
       <use x="147.412109" xlink:href="#DejaVuSans-53"/>
       <use x="211.035156" xlink:href="#DejaVuSans-48"/>
      </g>
     </g>
    </g>
    <g id="ytick_4">
     <g id="line2d_12">
      <g>
       <use style="stroke:#000000;stroke-width:0.8;" x="57.6" xlink:href="#m7236b1357e" y="176.254825"/>
      </g>
     </g>
     <g id="text_11">
      <!-- 0 -->
      <g transform="translate(44.2375 180.054044)scale(0.1 -0.1)">
       <use xlink:href="#DejaVuSans-48"/>
      </g>
     </g>
    </g>
    <g id="ytick_5">
     <g id="line2d_13">
      <g>
       <use style="stroke:#000000;stroke-width:0.8;" x="57.6" xlink:href="#m7236b1357e" y="140.189134"/>
      </g>
     </g>
     <g id="text_12">
      <!-- 250 -->
      <g transform="translate(31.5125 143.988353)scale(0.1 -0.1)">
       <use xlink:href="#DejaVuSans-50"/>
       <use x="63.623047" xlink:href="#DejaVuSans-53"/>
       <use x="127.246094" xlink:href="#DejaVuSans-48"/>
      </g>
     </g>
    </g>
    <g id="ytick_6">
     <g id="line2d_14">
      <g>
       <use style="stroke:#000000;stroke-width:0.8;" x="57.6" xlink:href="#m7236b1357e" y="104.123443"/>
      </g>
     </g>
     <g id="text_13">
      <!-- 500 -->
      <g transform="translate(31.5125 107.922662)scale(0.1 -0.1)">
       <use xlink:href="#DejaVuSans-53"/>
       <use x="63.623047" xlink:href="#DejaVuSans-48"/>
       <use x="127.246094" xlink:href="#DejaVuSans-48"/>
      </g>
     </g>
    </g>
    <g id="ytick_7">
     <g id="line2d_15">
      <g>
       <use style="stroke:#000000;stroke-width:0.8;" x="57.6" xlink:href="#m7236b1357e" y="68.057752"/>
      </g>
     </g>
     <g id="text_14">
      <!-- 750 -->
      <g transform="translate(31.5125 71.856971)scale(0.1 -0.1)">
       <use xlink:href="#DejaVuSans-55"/>
       <use x="63.623047" xlink:href="#DejaVuSans-53"/>
       <use x="127.246094" xlink:href="#DejaVuSans-48"/>
      </g>
     </g>
    </g>
   </g>
   <g id="line2d_16">
    <path clip-path="url(#pa1a552138e)" d="M 395.803759 58.139635 
L 252.504778 145.194819 
L 212.457011 202.347788 
L 109.632673 224.716694 
L 109.54885 239.469964 
L 143.328568 110.8803 
L 268.12639 266.45027 
L 264.045164 269.476021 
L 75.146394 282.412897 
L 76.349127 289.20018 
" style="fill:none;stroke:#ff0000;stroke-linecap:square;stroke-width:0.5;"/>
   </g>
   <g id="patch_3">
    <path d="M 57.6 307.584 
L 57.6 41.472 
" style="fill:none;stroke:#000000;stroke-linecap:square;stroke-linejoin:miter;stroke-width:0.8;"/>
   </g>
   <g id="patch_4">
    <path d="M 414.72 307.584 
L 414.72 41.472 
" style="fill:none;stroke:#000000;stroke-linecap:square;stroke-linejoin:miter;stroke-width:0.8;"/>
   </g>
   <g id="patch_5">
    <path d="M 57.6 307.584 
L 414.72 307.584 
" style="fill:none;stroke:#000000;stroke-linecap:square;stroke-linejoin:miter;stroke-width:0.8;"/>
   </g>
   <g id="patch_6">
    <path d="M 57.6 41.472 
L 414.72 41.472 
" style="fill:none;stroke:#000000;stroke-linecap:square;stroke-linejoin:miter;stroke-width:0.8;"/>
   </g>
   <g id="PathCollection_1">
    <defs>
     <path d="M 0 2.738613 
C 0.726289 2.738613 1.422928 2.450055 1.936492 1.936492 
C 2.450055 1.422928 2.738613 0.726289 2.738613 0 
C 2.738613 -0.726289 2.450055 -1.422928 1.936492 -1.936492 
C 1.422928 -2.450055 0.726289 -2.738613 0 -2.738613 
C -0.726289 -2.738613 -1.422928 -2.450055 -1.936492 -1.936492 
C -2.450055 -1.422928 -2.738613 -0.726289 -2.738613 0 
C -2.738613 0.726289 -2.450055 1.422928 -1.936492 1.936492 
C -1.422928 2.450055 -0.726289 2.738613 0 2.738613 
z
" id="m9828ec8c18" style="stroke:#ff0000;"/>
    </defs>
    <g clip-path="url(#pa1a552138e)">
     <use style="fill:#ff0000;stroke:#ff0000;" x="395.803759" xlink:href="#m9828ec8c18" y="58.139635"/>
     <use style="fill:#ff0000;stroke:#ff0000;" x="252.504778" xlink:href="#m9828ec8c18" y="145.194819"/>
     <use style="fill:#ff0000;stroke:#ff0000;" x="212.457011" xlink:href="#m9828ec8c18" y="202.347788"/>
     <use style="fill:#ff0000;stroke:#ff0000;" x="109.632673" xlink:href="#m9828ec8c18" y="224.716694"/>
     <use style="fill:#ff0000;stroke:#ff0000;" x="109.54885" xlink:href="#m9828ec8c18" y="239.469964"/>
     <use style="fill:#ff0000;stroke:#ff0000;" x="143.328568" xlink:href="#m9828ec8c18" y="110.8803"/>
     <use style="fill:#ff0000;stroke:#ff0000;" x="268.12639" xlink:href="#m9828ec8c18" y="266.45027"/>
     <use style="fill:#ff0000;stroke:#ff0000;" x="264.045164" xlink:href="#m9828ec8c18" y="269.476021"/>
     <use style="fill:#ff0000;stroke:#ff0000;" x="75.146394" xlink:href="#m9828ec8c18" y="282.412897"/>
     <use style="fill:#ff0000;stroke:#ff0000;" x="76.349127" xlink:href="#m9828ec8c18" y="289.20018"/>
    </g>
   </g>
   <g id="text_15">
    <!-- (132) Subject: s27, Known = True, Degree = 1, Duration = 0.1 -->
    <defs>
     <path d="M 31 75.875 
Q 24.46875 64.65625 21.28125 53.65625 
Q 18.109375 42.671875 18.109375 31.390625 
Q 18.109375 20.125 21.3125 9.0625 
Q 24.515625 -2 31 -13.1875 
L 23.1875 -13.1875 
Q 15.875 -1.703125 12.234375 9.375 
Q 8.59375 20.453125 8.59375 31.390625 
Q 8.59375 42.28125 12.203125 53.3125 
Q 15.828125 64.359375 23.1875 75.875 
z
" id="DejaVuSans-40"/>
     <path d="M 12.40625 8.296875 
L 28.515625 8.296875 
L 28.515625 63.921875 
L 10.984375 60.40625 
L 10.984375 69.390625 
L 28.421875 72.90625 
L 38.28125 72.90625 
L 38.28125 8.296875 
L 54.390625 8.296875 
L 54.390625 0 
L 12.40625 0 
z
" id="DejaVuSans-49"/>
     <path d="M 40.578125 39.3125 
Q 47.65625 37.796875 51.625 33 
Q 55.609375 28.21875 55.609375 21.1875 
Q 55.609375 10.40625 48.1875 4.484375 
Q 40.765625 -1.421875 27.09375 -1.421875 
Q 22.515625 -1.421875 17.65625 -0.515625 
Q 12.796875 0.390625 7.625 2.203125 
L 7.625 11.71875 
Q 11.71875 9.328125 16.59375 8.109375 
Q 21.484375 6.890625 26.8125 6.890625 
Q 36.078125 6.890625 40.9375 10.546875 
Q 45.796875 14.203125 45.796875 21.1875 
Q 45.796875 27.640625 41.28125 31.265625 
Q 36.765625 34.90625 28.71875 34.90625 
L 20.21875 34.90625 
L 20.21875 43.015625 
L 29.109375 43.015625 
Q 36.375 43.015625 40.234375 45.921875 
Q 44.09375 48.828125 44.09375 54.296875 
Q 44.09375 59.90625 40.109375 62.90625 
Q 36.140625 65.921875 28.71875 65.921875 
Q 24.65625 65.921875 20.015625 65.03125 
Q 15.375 64.15625 9.8125 62.3125 
L 9.8125 71.09375 
Q 15.4375 72.65625 20.34375 73.4375 
Q 25.25 74.21875 29.59375 74.21875 
Q 40.828125 74.21875 47.359375 69.109375 
Q 53.90625 64.015625 53.90625 55.328125 
Q 53.90625 49.265625 50.4375 45.09375 
Q 46.96875 40.921875 40.578125 39.3125 
z
" id="DejaVuSans-51"/>
     <path d="M 8.015625 75.875 
L 15.828125 75.875 
Q 23.140625 64.359375 26.78125 53.3125 
Q 30.421875 42.28125 30.421875 31.390625 
Q 30.421875 20.453125 26.78125 9.375 
Q 23.140625 -1.703125 15.828125 -13.1875 
L 8.015625 -13.1875 
Q 14.5 -2 17.703125 9.0625 
Q 20.90625 20.125 20.90625 31.390625 
Q 20.90625 42.671875 17.703125 53.65625 
Q 14.5 64.65625 8.015625 75.875 
z
" id="DejaVuSans-41"/>
     <path id="DejaVuSans-32"/>
     <path d="M 53.515625 70.515625 
L 53.515625 60.890625 
Q 47.90625 63.578125 42.921875 64.890625 
Q 37.9375 66.21875 33.296875 66.21875 
Q 25.25 66.21875 20.875 63.09375 
Q 16.5 59.96875 16.5 54.203125 
Q 16.5 49.359375 19.40625 46.890625 
Q 22.3125 44.4375 30.421875 42.921875 
L 36.375 41.703125 
Q 47.40625 39.59375 52.65625 34.296875 
Q 57.90625 29 57.90625 20.125 
Q 57.90625 9.515625 50.796875 4.046875 
Q 43.703125 -1.421875 29.984375 -1.421875 
Q 24.8125 -1.421875 18.96875 -0.25 
Q 13.140625 0.921875 6.890625 3.21875 
L 6.890625 13.375 
Q 12.890625 10.015625 18.65625 8.296875 
Q 24.421875 6.59375 29.984375 6.59375 
Q 38.421875 6.59375 43.015625 9.90625 
Q 47.609375 13.234375 47.609375 19.390625 
Q 47.609375 24.75 44.3125 27.78125 
Q 41.015625 30.8125 33.5 32.328125 
L 27.484375 33.5 
Q 16.453125 35.6875 11.515625 40.375 
Q 6.59375 45.0625 6.59375 53.421875 
Q 6.59375 63.09375 13.40625 68.65625 
Q 20.21875 74.21875 32.171875 74.21875 
Q 37.3125 74.21875 42.625 73.28125 
Q 47.953125 72.359375 53.515625 70.515625 
z
" id="DejaVuSans-83"/>
     <path d="M 8.5 21.578125 
L 8.5 54.6875 
L 17.484375 54.6875 
L 17.484375 21.921875 
Q 17.484375 14.15625 20.5 10.265625 
Q 23.53125 6.390625 29.59375 6.390625 
Q 36.859375 6.390625 41.078125 11.03125 
Q 45.3125 15.671875 45.3125 23.6875 
L 45.3125 54.6875 
L 54.296875 54.6875 
L 54.296875 0 
L 45.3125 0 
L 45.3125 8.40625 
Q 42.046875 3.421875 37.71875 1 
Q 33.40625 -1.421875 27.6875 -1.421875 
Q 18.265625 -1.421875 13.375 4.4375 
Q 8.5 10.296875 8.5 21.578125 
z
M 31.109375 56 
z
" id="DejaVuSans-117"/>
     <path d="M 48.6875 27.296875 
Q 48.6875 37.203125 44.609375 42.84375 
Q 40.53125 48.484375 33.40625 48.484375 
Q 26.265625 48.484375 22.1875 42.84375 
Q 18.109375 37.203125 18.109375 27.296875 
Q 18.109375 17.390625 22.1875 11.75 
Q 26.265625 6.109375 33.40625 6.109375 
Q 40.53125 6.109375 44.609375 11.75 
Q 48.6875 17.390625 48.6875 27.296875 
z
M 18.109375 46.390625 
Q 20.953125 51.265625 25.265625 53.625 
Q 29.59375 56 35.59375 56 
Q 45.5625 56 51.78125 48.09375 
Q 58.015625 40.1875 58.015625 27.296875 
Q 58.015625 14.40625 51.78125 6.484375 
Q 45.5625 -1.421875 35.59375 -1.421875 
Q 29.59375 -1.421875 25.265625 0.953125 
Q 20.953125 3.328125 18.109375 8.203125 
L 18.109375 0 
L 9.078125 0 
L 9.078125 75.984375 
L 18.109375 75.984375 
z
" id="DejaVuSans-98"/>
     <path d="M 9.421875 54.6875 
L 18.40625 54.6875 
L 18.40625 -0.984375 
Q 18.40625 -11.421875 14.421875 -16.109375 
Q 10.453125 -20.796875 1.609375 -20.796875 
L -1.8125 -20.796875 
L -1.8125 -13.1875 
L 0.59375 -13.1875 
Q 5.71875 -13.1875 7.5625 -10.8125 
Q 9.421875 -8.453125 9.421875 -0.984375 
z
M 9.421875 75.984375 
L 18.40625 75.984375 
L 18.40625 64.59375 
L 9.421875 64.59375 
z
" id="DejaVuSans-106"/>
     <path d="M 56.203125 29.59375 
L 56.203125 25.203125 
L 14.890625 25.203125 
Q 15.484375 15.921875 20.484375 11.0625 
Q 25.484375 6.203125 34.421875 6.203125 
Q 39.59375 6.203125 44.453125 7.46875 
Q 49.3125 8.734375 54.109375 11.28125 
L 54.109375 2.78125 
Q 49.265625 0.734375 44.1875 -0.34375 
Q 39.109375 -1.421875 33.890625 -1.421875 
Q 20.796875 -1.421875 13.15625 6.1875 
Q 5.515625 13.8125 5.515625 26.8125 
Q 5.515625 40.234375 12.765625 48.109375 
Q 20.015625 56 32.328125 56 
Q 43.359375 56 49.78125 48.890625 
Q 56.203125 41.796875 56.203125 29.59375 
z
M 47.21875 32.234375 
Q 47.125 39.59375 43.09375 43.984375 
Q 39.0625 48.390625 32.421875 48.390625 
Q 24.90625 48.390625 20.390625 44.140625 
Q 15.875 39.890625 15.1875 32.171875 
z
" id="DejaVuSans-101"/>
     <path d="M 48.78125 52.59375 
L 48.78125 44.1875 
Q 44.96875 46.296875 41.140625 47.34375 
Q 37.3125 48.390625 33.40625 48.390625 
Q 24.65625 48.390625 19.8125 42.84375 
Q 14.984375 37.3125 14.984375 27.296875 
Q 14.984375 17.28125 19.8125 11.734375 
Q 24.65625 6.203125 33.40625 6.203125 
Q 37.3125 6.203125 41.140625 7.25 
Q 44.96875 8.296875 48.78125 10.40625 
L 48.78125 2.09375 
Q 45.015625 0.34375 40.984375 -0.53125 
Q 36.96875 -1.421875 32.421875 -1.421875 
Q 20.0625 -1.421875 12.78125 6.34375 
Q 5.515625 14.109375 5.515625 27.296875 
Q 5.515625 40.671875 12.859375 48.328125 
Q 20.21875 56 33.015625 56 
Q 37.15625 56 41.109375 55.140625 
Q 45.0625 54.296875 48.78125 52.59375 
z
" id="DejaVuSans-99"/>
     <path d="M 18.3125 70.21875 
L 18.3125 54.6875 
L 36.8125 54.6875 
L 36.8125 47.703125 
L 18.3125 47.703125 
L 18.3125 18.015625 
Q 18.3125 11.328125 20.140625 9.421875 
Q 21.96875 7.515625 27.59375 7.515625 
L 36.8125 7.515625 
L 36.8125 0 
L 27.59375 0 
Q 17.1875 0 13.234375 3.875 
Q 9.28125 7.765625 9.28125 18.015625 
L 9.28125 47.703125 
L 2.6875 47.703125 
L 2.6875 54.6875 
L 9.28125 54.6875 
L 9.28125 70.21875 
z
" id="DejaVuSans-116"/>
     <path d="M 11.71875 12.40625 
L 22.015625 12.40625 
L 22.015625 0 
L 11.71875 0 
z
M 11.71875 51.703125 
L 22.015625 51.703125 
L 22.015625 39.3125 
L 11.71875 39.3125 
z
" id="DejaVuSans-58"/>
     <path d="M 44.28125 53.078125 
L 44.28125 44.578125 
Q 40.484375 46.53125 36.375 47.5 
Q 32.28125 48.484375 27.875 48.484375 
Q 21.1875 48.484375 17.84375 46.4375 
Q 14.5 44.390625 14.5 40.28125 
Q 14.5 37.15625 16.890625 35.375 
Q 19.28125 33.59375 26.515625 31.984375 
L 29.59375 31.296875 
Q 39.15625 29.25 43.1875 25.515625 
Q 47.21875 21.78125 47.21875 15.09375 
Q 47.21875 7.46875 41.1875 3.015625 
Q 35.15625 -1.421875 24.609375 -1.421875 
Q 20.21875 -1.421875 15.453125 -0.5625 
Q 10.6875 0.296875 5.421875 2 
L 5.421875 11.28125 
Q 10.40625 8.6875 15.234375 7.390625 
Q 20.0625 6.109375 24.8125 6.109375 
Q 31.15625 6.109375 34.5625 8.28125 
Q 37.984375 10.453125 37.984375 14.40625 
Q 37.984375 18.0625 35.515625 20.015625 
Q 33.0625 21.96875 24.703125 23.78125 
L 21.578125 24.515625 
Q 13.234375 26.265625 9.515625 29.90625 
Q 5.8125 33.546875 5.8125 39.890625 
Q 5.8125 47.609375 11.28125 51.796875 
Q 16.75 56 26.8125 56 
Q 31.78125 56 36.171875 55.265625 
Q 40.578125 54.546875 44.28125 53.078125 
z
" id="DejaVuSans-115"/>
     <path d="M 11.71875 12.40625 
L 22.015625 12.40625 
L 22.015625 4 
L 14.015625 -11.625 
L 7.71875 -11.625 
L 11.71875 4 
z
" id="DejaVuSans-44"/>
     <path d="M 9.8125 72.90625 
L 19.671875 72.90625 
L 19.671875 42.09375 
L 52.390625 72.90625 
L 65.09375 72.90625 
L 28.90625 38.921875 
L 67.671875 0 
L 54.6875 0 
L 19.671875 35.109375 
L 19.671875 0 
L 9.8125 0 
z
" id="DejaVuSans-75"/>
     <path d="M 54.890625 33.015625 
L 54.890625 0 
L 45.90625 0 
L 45.90625 32.71875 
Q 45.90625 40.484375 42.875 44.328125 
Q 39.84375 48.1875 33.796875 48.1875 
Q 26.515625 48.1875 22.3125 43.546875 
Q 18.109375 38.921875 18.109375 30.90625 
L 18.109375 0 
L 9.078125 0 
L 9.078125 54.6875 
L 18.109375 54.6875 
L 18.109375 46.1875 
Q 21.34375 51.125 25.703125 53.5625 
Q 30.078125 56 35.796875 56 
Q 45.21875 56 50.046875 50.171875 
Q 54.890625 44.34375 54.890625 33.015625 
z
" id="DejaVuSans-110"/>
     <path d="M 30.609375 48.390625 
Q 23.390625 48.390625 19.1875 42.75 
Q 14.984375 37.109375 14.984375 27.296875 
Q 14.984375 17.484375 19.15625 11.84375 
Q 23.34375 6.203125 30.609375 6.203125 
Q 37.796875 6.203125 41.984375 11.859375 
Q 46.1875 17.53125 46.1875 27.296875 
Q 46.1875 37.015625 41.984375 42.703125 
Q 37.796875 48.390625 30.609375 48.390625 
z
M 30.609375 56 
Q 42.328125 56 49.015625 48.375 
Q 55.71875 40.765625 55.71875 27.296875 
Q 55.71875 13.875 49.015625 6.21875 
Q 42.328125 -1.421875 30.609375 -1.421875 
Q 18.84375 -1.421875 12.171875 6.21875 
Q 5.515625 13.875 5.515625 27.296875 
Q 5.515625 40.765625 12.171875 48.375 
Q 18.84375 56 30.609375 56 
z
" id="DejaVuSans-111"/>
     <path d="M 4.203125 54.6875 
L 13.1875 54.6875 
L 24.421875 12.015625 
L 35.59375 54.6875 
L 46.1875 54.6875 
L 57.421875 12.015625 
L 68.609375 54.6875 
L 77.59375 54.6875 
L 63.28125 0 
L 52.6875 0 
L 40.921875 44.828125 
L 29.109375 0 
L 18.5 0 
z
" id="DejaVuSans-119"/>
     <path d="M 10.59375 45.40625 
L 73.1875 45.40625 
L 73.1875 37.203125 
L 10.59375 37.203125 
z
M 10.59375 25.484375 
L 73.1875 25.484375 
L 73.1875 17.1875 
L 10.59375 17.1875 
z
" id="DejaVuSans-61"/>
     <path d="M -0.296875 72.90625 
L 61.375 72.90625 
L 61.375 64.59375 
L 35.5 64.59375 
L 35.5 0 
L 25.59375 0 
L 25.59375 64.59375 
L -0.296875 64.59375 
z
" id="DejaVuSans-84"/>
     <path d="M 41.109375 46.296875 
Q 39.59375 47.171875 37.8125 47.578125 
Q 36.03125 48 33.890625 48 
Q 26.265625 48 22.1875 43.046875 
Q 18.109375 38.09375 18.109375 28.8125 
L 18.109375 0 
L 9.078125 0 
L 9.078125 54.6875 
L 18.109375 54.6875 
L 18.109375 46.1875 
Q 20.953125 51.171875 25.484375 53.578125 
Q 30.03125 56 36.53125 56 
Q 37.453125 56 38.578125 55.875 
Q 39.703125 55.765625 41.0625 55.515625 
z
" id="DejaVuSans-114"/>
     <path d="M 19.671875 64.796875 
L 19.671875 8.109375 
L 31.59375 8.109375 
Q 46.6875 8.109375 53.6875 14.9375 
Q 60.6875 21.78125 60.6875 36.53125 
Q 60.6875 51.171875 53.6875 57.984375 
Q 46.6875 64.796875 31.59375 64.796875 
z
M 9.8125 72.90625 
L 30.078125 72.90625 
Q 51.265625 72.90625 61.171875 64.09375 
Q 71.09375 55.28125 71.09375 36.53125 
Q 71.09375 17.671875 61.125 8.828125 
Q 51.171875 0 30.078125 0 
L 9.8125 0 
z
" id="DejaVuSans-68"/>
     <path d="M 45.40625 27.984375 
Q 45.40625 37.75 41.375 43.109375 
Q 37.359375 48.484375 30.078125 48.484375 
Q 22.859375 48.484375 18.828125 43.109375 
Q 14.796875 37.75 14.796875 27.984375 
Q 14.796875 18.265625 18.828125 12.890625 
Q 22.859375 7.515625 30.078125 7.515625 
Q 37.359375 7.515625 41.375 12.890625 
Q 45.40625 18.265625 45.40625 27.984375 
z
M 54.390625 6.78125 
Q 54.390625 -7.171875 48.1875 -13.984375 
Q 42 -20.796875 29.203125 -20.796875 
Q 24.46875 -20.796875 20.265625 -20.09375 
Q 16.0625 -19.390625 12.109375 -17.921875 
L 12.109375 -9.1875 
Q 16.0625 -11.328125 19.921875 -12.34375 
Q 23.78125 -13.375 27.78125 -13.375 
Q 36.625 -13.375 41.015625 -8.765625 
Q 45.40625 -4.15625 45.40625 5.171875 
L 45.40625 9.625 
Q 42.625 4.78125 38.28125 2.390625 
Q 33.9375 0 27.875 0 
Q 17.828125 0 11.671875 7.65625 
Q 5.515625 15.328125 5.515625 27.984375 
Q 5.515625 40.671875 11.671875 48.328125 
Q 17.828125 56 27.875 56 
Q 33.9375 56 38.28125 53.609375 
Q 42.625 51.21875 45.40625 46.390625 
L 45.40625 54.6875 
L 54.390625 54.6875 
z
" id="DejaVuSans-103"/>
     <path d="M 34.28125 27.484375 
Q 23.390625 27.484375 19.1875 25 
Q 14.984375 22.515625 14.984375 16.5 
Q 14.984375 11.71875 18.140625 8.90625 
Q 21.296875 6.109375 26.703125 6.109375 
Q 34.1875 6.109375 38.703125 11.40625 
Q 43.21875 16.703125 43.21875 25.484375 
L 43.21875 27.484375 
z
M 52.203125 31.203125 
L 52.203125 0 
L 43.21875 0 
L 43.21875 8.296875 
Q 40.140625 3.328125 35.546875 0.953125 
Q 30.953125 -1.421875 24.3125 -1.421875 
Q 15.921875 -1.421875 10.953125 3.296875 
Q 6 8.015625 6 15.921875 
Q 6 25.140625 12.171875 29.828125 
Q 18.359375 34.515625 30.609375 34.515625 
L 43.21875 34.515625 
L 43.21875 35.40625 
Q 43.21875 41.609375 39.140625 45 
Q 35.0625 48.390625 27.6875 48.390625 
Q 23 48.390625 18.546875 47.265625 
Q 14.109375 46.140625 10.015625 43.890625 
L 10.015625 52.203125 
Q 14.9375 54.109375 19.578125 55.046875 
Q 24.21875 56 28.609375 56 
Q 40.484375 56 46.34375 49.84375 
Q 52.203125 43.703125 52.203125 31.203125 
z
" id="DejaVuSans-97"/>
     <path d="M 9.421875 54.6875 
L 18.40625 54.6875 
L 18.40625 0 
L 9.421875 0 
z
M 9.421875 75.984375 
L 18.40625 75.984375 
L 18.40625 64.59375 
L 9.421875 64.59375 
z
" id="DejaVuSans-105"/>
     <path d="M 10.6875 12.40625 
L 21 12.40625 
L 21 0 
L 10.6875 0 
z
" id="DejaVuSans-46"/>
    </defs>
    <g transform="translate(47.915625 35.472)scale(0.12 -0.12)">
     <use xlink:href="#DejaVuSans-40"/>
     <use x="39.013672" xlink:href="#DejaVuSans-49"/>
     <use x="102.636719" xlink:href="#DejaVuSans-51"/>
     <use x="166.259766" xlink:href="#DejaVuSans-50"/>
     <use x="229.882812" xlink:href="#DejaVuSans-41"/>
     <use x="268.896484" xlink:href="#DejaVuSans-32"/>
     <use x="300.683594" xlink:href="#DejaVuSans-83"/>
     <use x="364.160156" xlink:href="#DejaVuSans-117"/>
     <use x="427.539062" xlink:href="#DejaVuSans-98"/>
     <use x="491.015625" xlink:href="#DejaVuSans-106"/>
     <use x="518.798828" xlink:href="#DejaVuSans-101"/>
     <use x="580.322266" xlink:href="#DejaVuSans-99"/>
     <use x="635.302734" xlink:href="#DejaVuSans-116"/>
     <use x="674.511719" xlink:href="#DejaVuSans-58"/>
     <use x="708.203125" xlink:href="#DejaVuSans-32"/>
     <use x="739.990234" xlink:href="#DejaVuSans-115"/>
     <use x="792.089844" xlink:href="#DejaVuSans-50"/>
     <use x="855.712891" xlink:href="#DejaVuSans-55"/>
     <use x="919.335938" xlink:href="#DejaVuSans-44"/>
     <use x="951.123047" xlink:href="#DejaVuSans-32"/>
     <use x="982.910156" xlink:href="#DejaVuSans-75"/>
     <use x="1048.486328" xlink:href="#DejaVuSans-110"/>
     <use x="1111.865234" xlink:href="#DejaVuSans-111"/>
     <use x="1173.046875" xlink:href="#DejaVuSans-119"/>
     <use x="1254.833984" xlink:href="#DejaVuSans-110"/>
     <use x="1318.212891" xlink:href="#DejaVuSans-32"/>
     <use x="1350" xlink:href="#DejaVuSans-61"/>
     <use x="1433.789062" xlink:href="#DejaVuSans-32"/>
     <use x="1465.576172" xlink:href="#DejaVuSans-84"/>
     <use x="1526.441406" xlink:href="#DejaVuSans-114"/>
     <use x="1567.554688" xlink:href="#DejaVuSans-117"/>
     <use x="1630.933594" xlink:href="#DejaVuSans-101"/>
     <use x="1692.457031" xlink:href="#DejaVuSans-44"/>
     <use x="1724.244141" xlink:href="#DejaVuSans-32"/>
     <use x="1756.03125" xlink:href="#DejaVuSans-68"/>
     <use x="1833.033203" xlink:href="#DejaVuSans-101"/>
     <use x="1894.556641" xlink:href="#DejaVuSans-103"/>
     <use x="1958.033203" xlink:href="#DejaVuSans-114"/>
     <use x="1999.115234" xlink:href="#DejaVuSans-101"/>
     <use x="2060.638672" xlink:href="#DejaVuSans-101"/>
     <use x="2122.162109" xlink:href="#DejaVuSans-32"/>
     <use x="2153.949219" xlink:href="#DejaVuSans-61"/>
     <use x="2237.738281" xlink:href="#DejaVuSans-32"/>
     <use x="2269.525391" xlink:href="#DejaVuSans-49"/>
     <use x="2333.148438" xlink:href="#DejaVuSans-44"/>
     <use x="2364.935547" xlink:href="#DejaVuSans-32"/>
     <use x="2396.722656" xlink:href="#DejaVuSans-68"/>
     <use x="2473.724609" xlink:href="#DejaVuSans-117"/>
     <use x="2537.103516" xlink:href="#DejaVuSans-114"/>
     <use x="2578.216797" xlink:href="#DejaVuSans-97"/>
     <use x="2639.496094" xlink:href="#DejaVuSans-116"/>
     <use x="2678.705078" xlink:href="#DejaVuSans-105"/>
     <use x="2706.488281" xlink:href="#DejaVuSans-111"/>
     <use x="2767.669922" xlink:href="#DejaVuSans-110"/>
     <use x="2831.048828" xlink:href="#DejaVuSans-32"/>
     <use x="2862.835938" xlink:href="#DejaVuSans-61"/>
     <use x="2946.625" xlink:href="#DejaVuSans-32"/>
     <use x="2978.412109" xlink:href="#DejaVuSans-48"/>
     <use x="3042.035156" xlink:href="#DejaVuSans-46"/>
     <use x="3073.822266" xlink:href="#DejaVuSans-49"/>
    </g>
   </g>
  </g>
 </g>
 <defs>
  <clipPath id="pa1a552138e">
   <rect height="266.112" width="357.12" x="57.6" y="41.472"/>
  </clipPath>
 </defs>
</svg>
