<?xml version="1.0" encoding="utf-8" standalone="no"?>
<!DOCTYPE svg PUBLIC "-//W3C//DTD SVG 1.1//EN"
  "http://www.w3.org/Graphics/SVG/1.1/DTD/svg11.dtd">
<!-- Created with matplotlib (https://matplotlib.org/) -->
<svg height="345.6pt" version="1.1" viewBox="0 0 460.8 345.6" width="460.8pt" xmlns="http://www.w3.org/2000/svg" xmlns:xlink="http://www.w3.org/1999/xlink">
 <defs>
  <style type="text/css">
*{stroke-linecap:butt;stroke-linejoin:round;}
  </style>
 </defs>
 <g id="figure_1">
  <g id="patch_1">
   <path d="M 0 345.6 
L 460.8 345.6 
L 460.8 0 
L 0 0 
z
" style="fill:#ffffff;"/>
  </g>
  <g id="axes_1">
   <g id="patch_2">
    <path d="M 57.6 307.584 
L 414.72 307.584 
L 414.72 41.472 
L 57.6 41.472 
z
" style="fill:#ffffff;"/>
   </g>
   <g id="line2d_1">
    <path clip-path="url(#p10cd13cedb)" d="M 74.010017 55.332256 
L 74.010017 55.137031 
L 73.832727 55.137031 
L 74.899874 55.137031 
L 75.435151 54.941806 
L 75.96702 54.941806 
L 75.254453 54.941806 
L 74.541885 54.548946 
L 74.541885 54.156085 
L 74.541885 54.35131 
L 74.364596 54.548946 
L 74.010017 54.744171 
L 74.010017 55.137031 
L 74.187306 55.529891 
L 74.899874 55.920341 
L 75.612441 55.920341 
L 75.435151 55.529891 
L 74.541885 54.941806 
L 74.722584 55.137031 
L 74.899874 55.332256 
L 75.254453 55.332256 
L 75.435151 55.137031 
L 75.612441 55.137031 
L 75.612441 55.137031 
L 75.435151 54.941806 
L 75.254453 54.548946 
L 75.435151 54.35131 
L 75.96702 54.548946 
L 76.147719 54.941806 
L 75.96702 55.137031 
L 75.96702 55.529891 
L 76.856877 56.117977 
L 76.856877 55.920341 
L 76.147719 55.920341 
L 75.435151 55.725116 
L 75.612441 55.725116 
L 75.96702 56.117977 
L 76.325008 55.920341 
L 76.856877 55.332256 
L 76.679587 55.529891 
L 75.96702 55.529891 
L 75.612441 55.137031 
L 76.147719 54.744171 
L 76.679587 54.941806 
L 77.037576 55.332256 
L 77.214865 55.920341 
L 77.392155 55.920341 
L 77.214865 55.529891 
L 76.679587 54.744171 
L 76.325008 54.548946 
L 76.679587 54.744171 
L 77.037576 54.548946 
L 77.214865 54.156085 
L 77.037576 53.96086 
L 76.679587 54.156085 
L 76.502298 54.548946 
L 77.392155 54.548946 
L 77.392155 54.941806 
L 76.856877 55.137031 
L 76.679587 54.548946 
L 76.856877 53.763225 
L 77.214865 53.568 
L 77.214865 54.156085 
L 77.569444 54.35131 
L 78.817289 54.35131 
L 77.569444 54.744171 
L 77.214865 54.744171 
L 77.037576 54.548946 
L 77.392155 54.548946 
L 79.175278 54.941806 
L 79.352567 55.332256 
L 78.994579 55.332256 
L 78.994579 55.137031 
L 78.64 55.137031 
L 78.64 54.548946 
L 79.175278 53.568 
L 79.175278 53.763225 
L 79.352567 53.96086 
L 79.352567 54.744171 
L 79.175278 55.529891 
L 79.352567 55.332256 
L 79.352567 55.137031 
L 79.175278 54.548946 
L 78.994579 54.35131 
L 78.64 54.941806 
L 78.64 54.744171 
L 78.994579 54.548946 
L 79.175278 54.744171 
L 78.994579 54.941806 
L 78.64 55.137031 
L 78.817289 55.529891 
L 79.175278 55.529891 
L 79.352567 55.332256 
L 79.884436 54.941806 
L 80.242424 54.941806 
L 80.419713 55.725116 
L 80.065134 56.117977 
L 79.884436 55.725116 
L 79.884436 55.137031 
L 80.242424 55.137031 
L 79.884436 55.137031 
L 79.884436 55.529891 
L 80.242424 55.725116 
L 80.597003 55.529891 
L 80.597003 55.529891 
L 80.597003 55.725116 
L 80.065134 55.920341 
L 80.777702 55.529891 
L 80.777702 55.529891 
L 80.597003 56.117977 
L 80.777702 56.313202 
L 80.777702 55.920341 
L 80.954991 55.725116 
L 81.132281 55.920341 
L 81.132281 55.920341 
L 80.777702 55.920341 
L 80.419713 55.529891 
L 80.419713 55.332256 
L 80.777702 55.332256 
L 80.954991 55.529891 
L 80.419713 56.508427 
L 80.242424 56.313202 
L 80.419713 56.313202 
L 80.777702 57.096512 
L 80.954991 56.901287 
L 80.597003 56.508427 
L 80.242424 56.313202 
L 80.242424 56.313202 
L 81.132281 56.313202 
L 81.667559 56.117977 
L 82.202836 56.117977 
L 82.202836 56.313202 
L 81.490269 56.508427 
L 81.667559 56.706062 
L 81.667559 57.096512 
L 82.022138 57.096512 
L 83.092693 56.313202 
L 82.202836 56.901287 
L 81.667559 56.901287 
L 82.202836 56.901287 
L 82.557415 56.706062 
L 82.380126 56.706062 
L 82.380126 57.489372 
L 82.202836 57.489372 
L 81.844848 57.294147 
L 81.490269 57.294147 
L 80.954991 57.489372 
L 81.132281 57.096512 
L 81.132281 57.096512 
L 81.30957 57.489372 
L 81.844848 57.684598 
L 81.844848 57.489372 
L 81.844848 57.882233 
L 81.667559 58.272683 
L 81.30957 57.882233 
L 81.132281 57.489372 
L 81.30957 57.294147 
L 82.202836 57.294147 
L 82.022138 57.294147 
L 81.844848 56.901287 
L 82.022138 57.096512 
L 81.844848 57.489372 
L 81.30957 57.489372 
L 81.30957 57.294147 
L 81.490269 57.096512 
L 81.667559 57.489372 
L 81.30957 57.489372 
L 81.30957 57.294147 
L 81.667559 57.294147 
L 81.844848 57.489372 
L 81.667559 57.882233 
L 81.667559 58.470318 
L 82.022138 58.665543 
L 82.380126 58.272683 
L 82.557415 57.882233 
L 82.202836 58.860768 
L 82.380126 58.077458 
L 82.022138 57.684598 
L 81.844848 57.294147 
L 82.022138 57.096512 
L 82.380126 57.489372 
L 82.734705 58.272683 
L 82.557415 58.470318 
L 82.380126 58.272683 
L 82.557415 58.470318 
L 82.734705 58.860768 
L 81.844848 59.448854 
L 81.844848 60.036939 
L 82.380126 60.234574 
L 82.557415 60.429799 
L 82.380126 60.429799 
L 82.380126 60.234574 
L 82.202836 60.234574 
L 81.132281 60.036939 
L 81.844848 60.036939 
L 82.202836 60.429799 
L 82.202836 60.625024 
L 82.022138 60.625024 
L 82.202836 61.017885 
L 82.380126 61.017885 
L 82.734705 60.429799 
L 82.380126 60.036939 
L 81.667559 59.841714 
L 81.490269 60.036939 
L 81.844848 60.429799 
L 82.202836 61.21311 
L 82.202836 61.21311 
L 82.022138 61.017885 
L 81.667559 60.82266 
L 81.667559 60.429799 
L 82.202836 59.841714 
L 82.734705 60.234574 
L 83.269983 61.017885 
L 84.15984 61.801195 
L 85.407685 62.194055 
L 89.860378 62.586916 
L 92.529949 63.175001 
L 99.120344 64.939257 
L 103.392339 65.920203 
L 113.545571 67.879684 
L 126.010386 71.212971 
L 139.191177 75.134343 
L 144.711017 77.28905 
L 150.766134 79.446166 
L 157.711109 81.603282 
L 171.959046 85.131795 
L 178.014164 87.288911 
L 184.069282 89.836477 
L 190.656268 92.386454 
L 197.601242 94.738796 
L 204.368927 96.893502 
L 210.424045 99.050618 
L 226.274407 105.912417 
L 231.081679 109.048069 
L 235.534373 111.598046 
L 239.809777 113.755162 
L 243.372613 116.302729 
L 246.577462 119.047931 
L 249.069743 121.400272 
L 254.947571 126.497815 
L 256.372706 128.064436 
L 256.904574 129.438242 
L 257.085273 130.809638 
L 257.439852 132.378669 
L 257.617141 134.33815 
L 257.262563 135.907181 
L 256.014717 136.888127 
L 254.412293 137.671437 
L 251.920012 138.064297 
L 249.9596 138.847608 
L 248.179886 138.847608 
L 247.644608 139.045243 
L 247.467319 139.633328 
L 247.290029 139.828554 
L 246.932041 139.435693 
L 246.754751 139.045243 
L 246.754751 139.045243 
L 246.754751 139.828554 
L 247.11274 140.416639 
L 248.534465 141.199949 
L 249.247032 141.98567 
L 249.9596 142.573755 
L 250.672167 143.749926 
L 250.672167 143.749926 
L 250.672167 144.338011 
L 250.494877 145.316547 
L 250.849456 145.904632 
L 251.030155 146.492718 
L 250.494877 147.866524 
L 249.9596 149.826005 
L 249.605021 150.02364 
L 248.357175 150.02364 
L 248.002596 150.218865 
L 247.644608 150.611725 
L 247.644608 151.002175 
L 248.002596 151.395036 
L 247.825307 151.590261 
L 247.290029 151.590261 
L 246.932041 151.787896 
L 246.400172 151.395036 
L 246.400172 151.590261 
L 246.400172 151.983121 
L 246.932041 151.983121 
L 247.11274 152.178346 
L 247.290029 152.178346 
L 247.11274 151.787896 
L 246.932041 151.787896 
L 246.932041 151.787896 
L 247.11274 152.375981 
L 246.932041 153.552152 
L 246.932041 153.552152 
L 247.290029 153.159292 
L 247.290029 153.552152 
L 246.932041 153.942602 
L 246.577462 153.942602 
L 246.219473 154.140237 
L 246.400172 154.140237 
L 246.754751 154.530688 
L 246.754751 154.923548 
L 246.754751 154.728323 
L 246.577462 154.530688 
L 246.400172 154.530688 
L 246.400172 154.140237 
L 246.219473 153.942602 
L 245.864894 154.335462 
L 246.577462 155.904494 
L 246.400172 155.511633 
L 246.400172 154.923548 
L 246.219473 154.728323 
L 245.864894 154.530688 
L 245.329617 154.530688 
L 245.152327 154.923548 
L 247.11274 155.706858 
L 247.290029 156.099719 
L 246.932041 156.492579 
L 245.506906 156.099719 
L 245.152327 156.294944 
L 245.329617 156.687804 
L 245.329617 156.687804 
L 245.506906 156.492579 
L 245.506906 156.687804 
L 245.329617 157.080664 
L 244.975038 157.473525 
L 245.152327 157.473525 
L 245.152327 157.275889 
L 244.975038 156.885439 
L 244.617049 156.687804 
L 244.797748 156.885439 
L 245.329617 157.66875 
L 244.975038 158.06161 
L 244.975038 158.06161 
L 244.975038 157.473525 
L 244.617049 157.473525 
L 244.43976 157.66875 
L 244.26247 158.06161 
L 243.904482 158.256835 
L 243.191915 158.256835 
L 243.549903 157.66875 
L 244.085181 157.275889 
L 244.43976 157.275889 
L 244.085181 158.06161 
L 243.727192 158.45206 
L 243.549903 158.256835 
L 244.43976 158.256835 
L 244.43976 157.863975 
L 244.26247 157.66875 
L 244.085181 157.863975 
L 244.085181 158.649695 
L 243.727192 159.040145 
L 243.549903 159.040145 
L 243.727192 159.040145 
L 244.085181 158.84492 
L 244.26247 158.45206 
L 244.43976 158.649695 
L 244.43976 159.040145 
L 244.26247 159.237781 
L 243.727192 158.649695 
L 243.727192 159.237781 
L 243.727192 159.040145 
L 243.549903 158.649695 
L 243.191915 158.649695 
L 243.372613 159.040145 
L 244.26247 159.433006 
L 244.085181 159.628231 
L 243.727192 159.628231 
L 243.372613 159.433006 
L 243.191915 159.040145 
L 243.372613 159.040145 
L 244.085181 160.413951 
L 244.797748 160.804401 
L 245.152327 161.197262 
L 244.797748 161.197262 
L 244.085181 161.392487 
L 243.372613 161.197262 
L 242.837336 160.216316 
L 242.837336 160.216316 
L 244.085181 160.609176 
L 244.797748 160.413951 
L 244.797748 160.216316 
L 244.26247 160.609176 
L 243.549903 160.804401 
L 242.837336 160.804401 
L 242.660046 161.002037 
L 242.479347 161.392487 
L 242.479347 161.785347 
L 243.372613 161.785347 
L 243.549903 161.590122 
L 243.372613 161.392487 
L 243.727192 161.590122 
L 243.727192 161.392487 
L 242.479347 161.002037 
L 242.124768 161.392487 
L 242.124768 162.178207 
L 242.302058 162.373432 
L 242.302058 162.568658 
L 241.58949 162.568658 
L 241.770189 162.766293 
L 241.947479 162.766293 
L 241.947479 162.568658 
L 241.770189 162.568658 
L 241.770189 162.961518 
L 241.58949 163.354378 
L 241.234911 163.354378 
L 241.234911 163.942464 
L 241.412201 163.744828 
L 241.58949 163.354378 
L 241.58949 162.766293 
L 241.58949 162.961518 
L 241.234911 163.549603 
L 241.58949 163.942464 
L 241.770189 164.530549 
L 241.770189 164.530549 
L 241.58949 164.332914 
L 241.58949 164.137689 
L 241.234911 163.744828 
L 240.522344 163.354378 
L 240.164356 163.549603 
L 240.345055 164.137689 
L 240.699634 164.137689 
L 241.057622 164.332914 
L 241.057622 164.332914 
L 240.522344 164.332914 
L 239.097209 163.744828 
L 239.274499 163.744828 
L 239.451788 163.942464 
L 238.561932 163.942464 
L 238.561932 163.942464 
L 238.207353 164.332914 
L 238.384642 164.137689 
L 238.561932 163.744828 
L 238.91992 163.942464 
L 238.91992 164.920999 
L 238.74263 165.118634 
L 238.384642 165.118634 
L 238.207353 164.530549 
L 238.030063 164.332914 
L 238.030063 164.530549 
L 237.672075 164.920999 
L 238.030063 165.313859 
L 237.849364 165.509084 
L 237.317496 165.901945 
L 237.136797 165.509084 
L 237.317496 164.920999 
L 237.317496 164.530549 
L 237.494785 164.725774 
L 236.959507 165.118634 
L 236.24694 165.313859 
L 235.892361 165.118634 
L 236.069651 164.920999 
L 236.782218 164.920999 
L 236.959507 164.725774 
L 236.959507 164.725774 
L 236.782218 164.725774 
L 236.24694 164.920999 
L 235.002504 164.920999 
L 235.892361 164.920999 
L 236.427639 164.530549 
L 236.427639 164.332914 
L 236.069651 164.137689 
L 235.892361 164.332914 
L 236.069651 164.725774 
L 236.069651 164.725774 
L 235.715072 164.332914 
L 235.534373 163.744828 
L 235.534373 163.354378 
L 235.715072 163.744828 
L 235.715072 164.137689 
L 235.892361 164.530549 
L 236.24694 164.530549 
L 235.892361 164.530549 
L 235.179794 164.920999 
L 235.179794 164.332914 
L 235.357083 163.942464 
L 235.534373 164.332914 
L 235.534373 165.509084 
L 236.24694 165.509084 
L 236.069651 165.70672 
L 234.289937 165.118634 
L 234.644516 164.137689 
L 234.467226 164.137689 
L 234.109238 165.118634 
L 234.109238 165.70672 
L 234.467226 165.901945 
L 234.644516 165.70672 
L 234.467226 165.313859 
L 234.289937 165.509084 
L 234.289937 165.70672 
L 234.467226 165.70672 
L 234.821805 165.313859 
L 234.821805 164.920999 
L 234.467226 164.725774 
L 233.754659 165.509084 
L 233.57737 165.118634 
L 233.754659 164.725774 
L 233.931949 164.725774 
L 234.109238 164.920999 
L 233.931949 165.118634 
L 233.40008 166.09958 
L 233.57737 165.901945 
L 235.179794 165.118634 
L 236.24694 164.725774 
L 237.136797 165.509084 
L 238.91992 166.49003 
L 240.876923 167.078115 
L 243.191915 167.470976 
L 248.715164 169.040007 
L 253.699726 169.823317 
L 256.549995 170.411402 
L 259.400265 171.392348 
L 262.605113 173.156604 
L 265.632672 175.31131 
L 268.83752 177.861287 
L 272.042368 180.018403 
L 274.715348 182.370745 
L 282.55018 190.408715 
L 285.935727 194.918173 
L 289.317865 200.210941 
L 291.278277 202.365647 
L 293.415979 204.327539 
L 295.195693 206.484655 
L 296.975407 209.032221 
L 298.75853 211.384563 
L 301.250811 213.93454 
L 306.77065 218.834447 
L 309.262931 220.403479 
L 311.758622 221.774874 
L 318.526307 226.872417 
L 320.48331 228.441449 
L 321.908445 229.419984 
L 323.333579 230.596155 
L 324.223436 231.774736 
L 325.113293 234.127077 
L 325.290582 235.693698 
L 325.290582 239.810295 
L 325.471281 240.596016 
L 325.471281 241.379326 
L 325.290582 242.360272 
L 324.400726 243.929303 
L 324.223436 244.907839 
L 323.688158 245.888784 
L 323.333579 246.281645 
L 322.975591 246.47687 
L 322.975591 246.86973 
L 323.510869 247.848265 
L 323.868857 248.436351 
L 324.046147 249.024436 
L 324.046147 249.612521 
L 323.868857 249.810157 
L 324.046147 250.203017 
L 324.400726 250.398242 
L 324.581425 250.791102 
L 324.400726 251.379188 
L 323.868857 251.769638 
L 322.975591 251.967273 
L 322.443723 252.357723 
L 322.443723 253.533894 
L 323.15629 254.51484 
L 323.688158 254.51484 
L 323.868857 254.121979 
L 323.688158 254.121979 
L 323.510869 254.51484 
L 322.975591 255.29815 
L 322.621012 255.495785 
L 322.621012 255.495785 
L 322.443723 255.29815 
L 322.263024 255.495785 
L 322.443723 255.886235 
L 322.975591 256.474321 
L 322.798301 256.279096 
L 322.798301 256.083871 
L 322.443723 255.886235 
L 322.085734 256.279096 
L 321.553866 257.062406 
L 321.908445 256.867181 
L 322.263024 256.867181 
L 322.085734 256.671956 
L 321.195877 256.279096 
L 321.908445 257.260041 
L 321.731155 257.260041 
L 320.841298 257.650491 
L 321.018588 257.848127 
L 321.553866 258.238577 
L 321.373167 258.436212 
L 321.373167 258.631437 
L 321.195877 258.826662 
L 321.373167 259.219523 
L 321.373167 259.219523 
L 321.195877 259.219523 
L 320.841298 259.024297 
L 320.48331 259.219523 
L 320.48331 259.612383 
L 321.018588 260.200468 
L 321.553866 260.395693 
L 321.731155 260.200468 
L 320.660599 259.612383 
L 320.128731 259.024297 
L 319.948032 259.024297 
L 319.948032 260.395693 
L 320.128731 260.200468 
L 320.30602 260.200468 
L 320.128731 260.200468 
L 319.948032 260.005243 
L 319.770743 260.005243 
L 319.770743 259.807608 
L 319.593453 259.612383 
L 319.593453 259.417158 
L 319.948032 260.005243 
L 320.48331 260.593328 
L 320.48331 260.788554 
L 320.30602 260.593328 
L 319.416164 259.807608 
L 319.416164 260.005243 
L 320.128731 260.200468 
L 320.30602 260.395693 
L 320.128731 260.593328 
L 320.128731 260.788554 
L 320.128731 260.788554 
L 319.948032 260.983779 
L 319.770743 260.983779 
L 320.128731 260.005243 
L 318.880886 260.593328 
L 318.880886 260.593328 
L 319.416164 260.593328 
L 319.416164 260.395693 
L 319.416164 260.593328 
L 319.235465 261.376639 
L 318.880886 261.769499 
L 318.526307 261.571864 
L 318.345608 261.181414 
L 318.345608 260.788554 
L 318.345608 260.983779 
L 317.991029 261.376639 
L 317.991029 261.571864 
L 318.345608 261.571864 
L 318.703596 261.376639 
L 318.526307 261.181414 
L 318.345608 261.181414 
L 318.526307 261.181414 
L 318.526307 261.376639 
L 318.880886 261.571864 
L 319.416164 261.376639 
L 319.235465 261.571864 
L 318.703596 261.769499 
L 318.526307 261.964724 
L 318.703596 261.769499 
L 318.703596 261.571864 
L 318.345608 261.769499 
L 318.526307 261.964724 
L 319.416164 261.571864 
L 319.593453 261.769499 
L 319.593453 262.159949 
L 319.058175 262.748035 
L 318.703596 262.55281 
L 318.526307 261.964724 
L 318.168318 262.357585 
L 318.345608 262.55281 
L 318.880886 262.748035 
L 319.058175 263.140895 
L 318.703596 262.357585 
L 318.703596 261.769499 
L 318.526307 261.769499 
L 318.168318 262.159949 
L 317.633041 262.159949 
L 317.633041 261.769499 
L 317.991029 261.571864 
L 317.991029 261.769499 
L 317.813739 261.964724 
L 317.633041 261.769499 
L 317.633041 261.769499 
L 317.455751 261.964724 
L 317.455751 261.964724 
L 316.743184 261.181414 
L 316.920473 260.593328 
L 317.455751 260.200468 
L 317.455751 260.395693 
L 317.633041 260.593328 
L 317.101172 260.593328 
L 316.565894 260.788554 
L 316.565894 260.593328 
L 317.278462 260.005243 
L 317.101172 259.807608 
L 317.278462 259.807608 
L 317.813739 260.200468 
L 318.526307 260.200468 
L 319.058175 260.005243 
L 318.880886 259.807608 
L 318.703596 259.807608 
L 318.345608 259.417158 
L 318.168318 258.826662 
L 317.991029 259.219523 
L 317.991029 259.612383 
L 318.345608 259.807608 
L 319.770743 259.417158 
L 319.416164 258.631437 
L 319.058175 258.238577 
L 319.058175 258.238577 
L 319.058175 258.436212 
L 319.058175 258.238577 
L 318.703596 257.848127 
L 318.345608 257.848127 
L 318.345608 258.043352 
L 318.345608 258.043352 
L 318.526307 257.455266 
L 318.345608 257.260041 
L 318.168318 256.867181 
L 317.813739 256.867181 
L 318.345608 257.650491 
L 318.345608 257.260041 
L 317.991029 257.062406 
L 317.455751 257.260041 
L 316.920473 256.279096 
L 317.101172 256.867181 
L 317.278462 257.062406 
L 317.455751 256.671956 
L 317.455751 256.083871 
L 317.101172 255.886235 
L 316.920473 256.083871 
L 316.743184 256.083871 
L 316.743184 255.69101 
L 316.565894 255.495785 
L 316.743184 255.102925 
L 316.920473 255.102925 
L 316.920473 255.29815 
L 317.813739 256.279096 
L 317.813739 256.279096 
L 318.703596 255.69101 
L 318.526307 255.29815 
L 317.633041 254.710065 
L 316.920473 253.926754 
L 316.920473 253.533894 
L 317.278462 253.533894 
L 317.278462 253.533894 
L 316.920473 253.338669 
L 316.211315 252.750584 
L 315.498748 251.967273 
L 312.113201 248.829211 
L 309.62092 245.693559 
L 306.94794 242.555497 
L 300.360954 236.281783 
L 296.620828 231.5771 
L 287.002873 220.010618 
L 276.85305 206.484655 
L 271.5105 199.818081 
L 266.16795 192.956281 
L 252.274591 173.939915 
L 248.534465 167.666201 
L 244.975038 161.197262 
L 242.302058 155.118773 
L 240.345055 149.826005 
L 236.24694 136.102406 
L 235.534373 131.985809 
L 235.357083 128.652521 
L 235.357083 126.104955 
L 235.534373 123.752614 
L 236.24694 121.205047 
L 236.782218 118.65507 
L 237.136797 116.107504 
L 238.030063 113.557527 
L 239.097209 111.205186 
L 240.345055 108.852844 
L 241.58949 106.893363 
L 243.727192 104.736247 
L 244.617049 103.755301 
L 245.864894 102.776766 
L 246.577462 102.57913 
L 246.577462 102.776766 
L 246.219473 102.971991 
L 245.687605 102.776766 
L 245.152327 102.971991 
L 245.329617 103.952936 
L 245.687605 105.129107 
L 244.975038 106.893363 
L 244.797748 108.069534 
L 243.549903 111.009961 
L 242.837336 112.186131 
L 242.302058 112.578992 
L 241.947479 112.381356 
L 241.947479 112.186131 
L 241.58949 113.167077 
L 241.412201 114.538473 
L 241.58949 113.755162 
L 241.947479 113.167077 
L 242.302058 113.362302 
L 242.479347 113.755162 
L 242.660046 113.755162 
L 243.014625 112.969442 
L 243.904482 112.774217 
L 244.43976 112.969442 
L 244.617049 112.774217 
L 244.797748 112.186131 
L 245.152327 111.990906 
L 245.506906 111.990906 
L 245.687605 111.793271 
L 245.329617 111.793271 
L 244.797748 112.186131 
L 244.797748 112.381356 
L 245.506906 111.990906 
L 245.329617 111.990906 
L 245.687605 112.969442 
L 245.506906 113.167077 
L 245.506906 113.167077 
L 245.329617 112.774217 
L 245.152327 112.774217 
L 245.152327 112.969442 
L 245.506906 113.755162 
L 246.042184 114.538473 
L 246.400172 114.733698 
L 246.219473 114.343248 
L 245.687605 114.145613 
L 245.687605 113.950387 
L 245.506906 113.755162 
L 244.975038 113.950387 
L 244.797748 114.343248 
L 244.797748 114.733698 
L 244.617049 114.733698 
L 244.797748 114.538473 
L 245.329617 114.538473 
L 245.329617 114.733698 
L 245.506906 114.931333 
L 245.506906 114.538473 
L 245.506906 114.538473 
L 245.152327 114.931333 
L 244.975038 115.321783 
L 245.152327 114.931333 
L 245.506906 115.321783 
L 245.864894 116.107504 
L 245.687605 116.107504 
L 245.506906 115.519418 
L 245.152327 115.126558 
L 244.797748 115.126558 
L 245.687605 115.126558 
L 245.864894 115.321783 
L 245.687605 115.519418 
L 245.687605 115.714644 
L 245.506906 115.519418 
L 244.797748 115.519418 
L 245.152327 115.321783 
L 246.219473 115.321783 
L 246.400172 115.519418 
L 246.042184 115.519418 
L 245.329617 115.714644 
L 245.152327 115.909869 
L 244.975038 115.909869 
L 244.797748 116.107504 
L 244.975038 116.107504 
L 245.687605 115.909869 
L 246.042184 115.321783 
L 245.864894 114.931333 
L 246.042184 114.538473 
L 246.400172 114.343248 
L 245.864894 114.733698 
L 245.506906 115.321783 
L 245.864894 114.733698 
L 245.864894 115.321783 
L 245.687605 115.909869 
L 245.687605 116.302729 
L 245.864894 115.909869 
L 245.687605 116.107504 
L 245.329617 116.107504 
L 245.506906 116.302729 
L 246.219473 116.302729 
L 247.290029 116.107504 
L 248.002596 116.107504 
L 248.002596 116.695589 
L 247.467319 117.283675 
L 247.11274 117.4789 
L 247.290029 117.4789 
L 246.754751 117.4789 
L 246.219473 117.086039 
L 246.400172 116.890814 
L 246.577462 117.086039 
L 246.754751 117.4789 
L 246.754751 117.4789 
L 246.932041 117.283675 
L 247.290029 117.4789 
L 247.290029 117.674125 
L 246.932041 117.87176 
L 246.577462 117.674125 
L 246.577462 117.674125 
L 246.577462 117.4789 
L 246.577462 117.4789 
L 246.932041 117.87176 
L 247.290029 118.066985 
L 247.11274 118.066985 
L 246.577462 117.87176 
L 246.219473 117.87176 
L 246.042184 117.674125 
L 246.219473 117.283675 
L 246.577462 117.4789 
L 246.754751 117.87176 
L 246.577462 118.066985 
L 247.290029 118.066985 
L 247.644608 117.87176 
L 247.11274 117.4789 
L 247.290029 117.283675 
L 247.825307 117.674125 
L 248.179886 118.26221 
L 248.002596 118.65507 
L 248.002596 119.243156 
L 247.825307 119.636016 
L 248.002596 119.831241 
L 248.892453 118.850295 
L 248.892453 119.047931 
L 248.002596 119.047931 
L 248.179886 119.047931 
L 249.427731 118.65507 
L 249.605021 118.850295 
L 249.78231 119.243156 
L 250.317588 119.438381 
L 250.317588 119.636016 
L 249.78231 119.831241 
L 249.247032 119.636016 
L 249.247032 119.438381 
L 249.605021 119.831241 
L 249.9596 119.831241 
L 250.317588 118.850295 
L 249.9596 118.26221 
L 248.715164 118.850295 
L 248.715164 118.65507 
L 249.069743 118.459845 
L 249.605021 119.047931 
L 249.78231 120.028876 
L 249.78231 120.028876 
L 249.247032 119.831241 
L 249.427731 119.831241 
L 249.78231 119.636016 
L 249.9596 119.047931 
L 249.9596 119.047931 
L 250.140298 119.438381 
L 250.140298 119.831241 
L 249.605021 119.831241 
L 249.78231 120.224101 
L 250.317588 120.616962 
L 250.849456 120.028876 
L 251.207445 119.047931 
L 251.030155 118.459845 
L 250.672167 118.65507 
L 250.317588 119.047931 
L 249.78231 120.419326 
L 250.317588 120.616962 
L 251.207445 120.028876 
L 250.849456 119.831241 
L 249.9596 118.459845 
L 249.78231 118.65507 
L 249.78231 119.636016 
L 250.317588 119.438381 
L 250.672167 120.224101 
L 250.672167 120.028876 
L 250.317588 119.831241 
L 249.78231 120.028876 
L 250.317588 119.831241 
L 250.317588 119.636016 
L 250.140298 119.636016 
L 250.494877 119.636016 
L 250.672167 119.243156 
L 250.494877 119.047931 
L 250.494877 119.047931 
L 250.672167 119.047931 
L 250.849456 118.850295 
L 250.849456 118.850295 
L 251.030155 119.243156 
L 251.562024 119.831241 
L 251.207445 120.028876 
L 250.672167 120.028876 
L 249.9596 119.831241 
L 250.317588 121.007412 
L 250.140298 120.812187 
L 249.78231 120.224101 
L 250.140298 119.831241 
L 250.672167 119.636016 
L 250.672167 119.636016 
L 250.317588 120.028876 
L 250.140298 120.028876 
L 250.317588 120.224101 
L 250.140298 120.419326 
L 250.140298 120.419326 
L 250.494877 120.224101 
L 251.030155 120.419326 
L 251.030155 120.812187 
L 250.494877 120.812187 
L 250.140298 120.419326 
L 250.140298 119.831241 
L 250.317588 119.831241 
L 250.849456 121.007412 
L 250.849456 121.007412 
L 251.207445 120.616962 
L 251.207445 121.007412 
L 250.849456 121.007412 
L 250.672167 120.812187 
L 250.317588 120.812187 
L 250.317588 121.007412 
L 251.030155 121.793132 
L 251.384734 121.988357 
L 251.384734 121.988357 
L 251.207445 121.595497 
L 250.672167 121.007412 
L 250.494877 120.224101 
L 250.672167 120.028876 
L 250.672167 120.224101 
L 250.494877 120.616962 
L 250.849456 121.400272 
L 251.562024 121.400272 
L 251.920012 121.205047 
L 251.030155 120.812187 
L 250.849456 120.812187 
L 251.030155 120.616962 
L 251.562024 120.616962 
L 251.562024 120.812187 
L 251.207445 120.812187 
L 251.384734 120.812187 
L 252.097302 121.007412 
L 252.45529 121.400272 
L 251.384734 121.007412 
L 251.207445 121.205047 
L 251.030155 121.205047 
L 251.384734 120.812187 
L 251.384734 121.400272 
L 251.562024 121.793132 
L 251.384734 121.595497 
L 251.207445 121.400272 
L 251.030155 121.595497 
L 250.849456 121.595497 
L 250.849456 121.988357 
L 251.030155 122.381218 
L 251.384734 122.576443 
L 251.742723 122.381218 
L 251.920012 121.988357 
L 251.920012 121.400272 
L 251.742723 121.400272 
L 250.849456 122.183583 
L 251.030155 122.183583 
L 251.742723 121.793132 
L 251.742723 121.988357 
L 251.384734 121.988357 
L 251.384734 122.183583 
L 251.030155 122.183583 
L 250.672167 121.793132 
L 250.672167 121.595497 
L 251.384734 122.381218 
L 251.920012 122.576443 
L 252.45529 122.576443 
L 252.45529 122.771668 
L 251.742723 123.164528 
L 251.742723 123.359753 
L 251.562024 123.359753 
L 251.384734 123.164528 
L 251.562024 123.164528 
L 251.562024 123.359753 
L 252.274591 123.359753 
L 251.030155 124.145474 
L 251.030155 123.752614 
L 250.849456 123.359753 
L 251.030155 123.359753 
L 251.384734 123.557388 
L 251.742723 123.359753 
L 251.030155 123.752614 
L 250.849456 124.340699 
L 250.849456 124.733559 
L 250.672167 124.340699 
L 250.140298 123.752614 
L 249.78231 123.164528 
L 250.317588 123.359753 
L 250.849456 124.145474 
L 251.030155 124.733559 
L 251.030155 124.733559 
L 251.030155 124.340699 
L 250.494877 123.752614 
L 250.317588 123.752614 
L 250.494877 123.557388 
L 251.207445 124.340699 
L 251.562024 124.928784 
L 251.562024 124.928784 
L 250.849456 124.928784 
L 250.672167 124.535924 
L 250.672167 124.145474 
L 250.672167 124.535924 
L 251.207445 124.535924 
L 251.384734 125.124009 
L 251.384734 125.51687 
L 251.562024 125.321645 
L 251.742723 124.928784 
L 251.562024 124.928784 
L 251.384734 125.124009 
L 251.384734 124.928784 
L 251.030155 124.733559 
L 251.207445 124.928784 
L 251.920012 124.928784 
L 251.742723 124.928784 
L 251.562024 124.733559 
L 251.742723 124.733559 
L 251.920012 124.928784 
L 251.742723 125.124009 
L 251.207445 124.733559 
L 251.384734 124.535924 
L 251.742723 124.928784 
L 252.097302 125.712095 
L 251.920012 125.90973 
L 251.562024 126.104955 
L 251.742723 125.90973 
L 252.274591 125.51687 
L 252.632579 125.51687 
L 253.167857 125.712095 
L 253.877015 126.104955 
L 254.235004 126.497815 
L 254.235004 126.69304 
L 254.057714 126.30018 
L 254.057714 125.90973 
L 253.877015 126.104955 
L 254.057714 126.69304 
L 255.30215 127.476351 
L 255.837428 127.869211 
L 256.195416 128.652521 
L 256.372706 129.831102 
L 256.727285 130.809638 
L 257.439852 131.595358 
L 257.97513 132.771529 
L 258.152419 134.33815 
L 257.262563 142.180895 
L 257.617141 144.338011 
L 258.152419 151.002175 
L 259.222975 153.354517 
L 260.825399 155.706858 
L 262.069835 158.649695 
L 264.565525 165.313859 
L 267.235096 170.606628 
L 267.947663 172.763744 
L 268.482941 174.92086 
L 269.195508 179.430318 
L 269.372798 181.194574 
L 271.5105 190.21108 
L 272.577646 193.739592 
L 277.384919 204.720399 
L 278.990752 208.051276 
L 280.593176 210.796477 
L 281.660323 213.148819 
L 282.55018 215.698796 
L 283.262747 218.639222 
L 285.223159 223.14868 
L 285.755028 225.501022 
L 285.935727 227.460503 
L 285.935727 231.5771 
L 285.577738 234.517527 
L 286.290306 237.067504 
L 286.467595 238.634125 
L 286.467595 240.398381 
L 287.002873 241.967412 
L 286.467595 243.536443 
L 286.467595 244.319753 
L 286.825584 245.300699 
L 287.360862 246.281645 
L 287.71544 247.457815 
L 287.89273 248.633986 
L 287.89273 250.791102 
L 287.538151 252.555358 
L 287.002873 252.945809 
L 286.467595 253.731529 
L 287.002873 254.710065 
L 287.89273 255.886235 
L 288.250718 256.867181 
L 287.89273 257.455266 
L 287.71544 258.043352 
L 287.71544 258.436212 
L 287.360862 259.024297 
L 287.180163 259.612383 
L 287.002873 259.612383 
L 287.180163 259.417158 
L 287.71544 259.612383 
L 288.070019 261.376639 
L 288.250718 261.769499 
L 288.070019 261.181414 
L 288.250718 261.181414 
L 288.963286 261.964724 
L 288.963286 260.983779 
L 289.317865 261.181414 
L 289.317865 261.769499 
L 288.963286 262.357585 
L 288.782587 262.94567 
L 288.963286 263.33612 
L 289.675853 263.33612 
L 289.853143 263.140895 
L 289.317865 262.55281 
L 288.428008 262.357585 
L 288.428008 262.748035 
L 288.963286 263.72898 
L 289.317865 263.924205 
L 289.495154 263.33612 
L 289.140575 264.121841 
L 288.963286 263.924205 
L 288.963286 263.33612 
L 288.963286 263.33612 
L 289.317865 264.709926 
L 288.605297 264.709926 
L 288.428008 264.905151 
L 288.605297 265.100376 
L 288.605297 264.512291 
L 288.782587 264.709926 
L 288.428008 265.493236 
L 288.428008 265.298011 
L 288.605297 264.512291 
L 288.428008 264.317066 
L 288.070019 264.512291 
L 287.71544 265.298011 
L 287.360862 265.493236 
L 287.538151 265.493236 
L 287.89273 265.493236 
L 288.605297 265.100376 
L 287.89273 265.493236 
L 287.360862 265.100376 
L 287.89273 265.100376 
L 288.070019 265.493236 
L 287.89273 265.493236 
L 287.71544 265.298011 
L 287.89273 264.905151 
L 287.89273 264.905151 
L 287.002873 265.298011 
L 287.180163 265.493236 
L 286.467595 266.276547 
L 287.538151 266.276547 
L 287.538151 266.276547 
L 287.538151 266.081322 
L 287.71544 265.886097 
L 287.71544 265.886097 
L 286.290306 265.886097 
L 286.648294 265.886097 
L 286.467595 265.688461 
L 286.467595 265.688461 
L 286.467595 265.493236 
L 286.648294 265.493236 
L 286.467595 265.298011 
L 286.467595 264.905151 
L 286.648294 264.905151 
L 287.180163 265.493236 
L 287.360862 266.081322 
L 287.538151 266.276547 
L 287.538151 266.081322 
L 287.71544 265.886097 
L 287.180163 265.886097 
L 286.113016 265.493236 
L 286.648294 265.688461 
L 286.648294 265.100376 
L 286.648294 265.100376 
L 286.290306 265.493236 
L 285.755028 265.688461 
L 285.935727 265.886097 
L 285.755028 266.474182 
L 285.755028 266.864632 
L 285.935727 266.669407 
L 286.467595 266.276547 
L 286.467595 266.081322 
L 285.935727 266.081322 
L 285.223159 265.886097 
L 284.687882 265.886097 
L 284.152604 265.688461 
L 284.333303 265.493236 
L 284.152604 265.298011 
L 283.975314 265.298011 
L 285.223159 265.688461 
L 285.577738 266.081322 
L 285.400449 266.081322 
L 285.042461 264.905151 
L 284.865171 265.100376 
L 284.865171 265.688461 
L 284.687882 266.081322 
L 284.865171 265.688461 
L 285.042461 265.688461 
L 285.042461 266.276547 
L 284.865171 266.474182 
L 284.510592 265.886097 
L 284.687882 264.905151 
L 284.865171 264.709926 
L 284.865171 264.905151 
L 285.042461 265.298011 
L 285.042461 265.298011 
L 284.687882 265.688461 
L 284.510592 265.688461 
L 283.975314 265.493236 
L 283.798025 265.493236 
L 283.798025 265.298011 
L 283.798025 265.298011 
L 283.975314 265.688461 
L 284.333303 265.886097 
L 284.333303 266.081322 
L 283.798025 265.493236 
L 283.262747 265.298011 
L 283.620735 265.100376 
L 283.975314 265.100376 
L 284.152604 265.298011 
L 284.333303 265.688461 
L 284.152604 265.886097 
L 283.975314 265.298011 
L 284.333303 264.905151 
L 284.510592 265.298011 
L 284.152604 265.493236 
L 283.440036 265.298011 
L 283.262747 265.100376 
L 283.440036 265.493236 
L 283.975314 266.081322 
L 284.865171 266.081322 
L 285.577738 265.886097 
L 286.113016 265.886097 
L 286.825584 266.276547 
L 290.920289 266.864632 
L 298.045962 269.414609 
L 302.140667 270.395555 
L 306.416071 271.571725 
L 311.223344 272.747896 
L 316.211315 273.531206 
L 320.841298 274.119292 
L 330.455843 276.471633 
L 339.36123 277.647804 
L 352.184033 280.393006 
L 358.774429 281.176316 
L 360.908721 281.962037 
L 362.511145 282.940572 
L 364.294269 283.726293 
L 368.746962 284.902464 
L 370.703965 285.292914 
L 372.664378 285.490549 
L 377.294361 286.273859 
L 379.251364 286.861945 
L 381.034487 287.254805 
L 382.814201 287.45003 
L 387.979461 288.626201 
L 390.117164 288.823836 
L 391.896877 289.214286 
L 396.884849 290.978542 
L 397.774705 291.176177 
L 398.129284 291.371402 
L 398.487273 291.371402 
L 398.487273 291.176177 
L 398.487273 291.176177 
L 398.309983 291.959488 
L 397.774705 292.154713 
L 396.349571 291.371402 
L 395.637003 291.371402 
L 394.924436 292.547573 
L 394.569857 292.547573 
L 392.967433 292.154713 
L 392.786734 292.547573 
L 392.786734 292.940433 
L 392.967433 293.135659 
L 392.432155 293.723744 
L 392.432155 293.528519 
L 392.967433 292.940433 
L 393.85729 292.352348 
L 394.389158 292.154713 
L 394.389158 292.742798 
L 394.211869 293.528519 
L 394.924436 294.507054 
L 395.101725 294.70469 
L 394.747147 294.507054 
L 394.389158 294.507054 
L 394.389158 294.116604 
L 394.389158 294.116604 
L 394.569857 294.311829 
L 394.569857 294.507054 
L 394.747147 294.507054 
L 395.994992 294.116604 
L 394.924436 294.116604 
L 395.282424 293.918969 
L 395.637003 293.528519 
L 395.101725 294.116604 
L 394.924436 294.70469 
L 395.101725 294.899915 
L 395.459714 294.899915 
L 395.282424 294.899915 
L 394.747147 294.70469 
L 394.747147 294.507054 
L 394.924436 294.116604 
L 394.924436 294.116604 
L 394.924436 294.507054 
L 395.101725 294.507054 
L 395.637003 294.116604 
L 395.994992 294.116604 
L 395.459714 295.488 
L 394.924436 295.292775 
L 394.389158 294.70469 
L 394.034579 293.723744 
L 394.034579 293.330884 
L 394.389158 293.135659 
L 394.747147 293.330884 
L 395.101725 293.723744 
L 395.282424 294.116604 
L 395.282424 293.918969 
L 395.637003 292.940433 
L 394.924436 292.940433 
L 394.924436 292.742798 
L 395.282424 292.547573 
L 395.637003 292.940433 
L 395.637003 293.723744 
L 395.814293 293.528519 
L 395.994992 293.135659 
L 395.814293 292.547573 
L 395.459714 292.547573 
L 395.814293 292.547573 
L 396.349571 291.566628 
L 396.52686 292.154713 
L 396.884849 291.764263 
L 397.239428 291.176177 
L 397.239428 290.390457 
L 397.062138 290.195232 
L 396.884849 290.390457 
L 397.239428 290.783317 
L 397.597416 290.783317 
L 397.597416 290.588092 
L 397.774705 290.390457 
L 398.129284 290.195232 
L 397.774705 290.390457 
L 397.416717 290.195232 
L 397.239428 289.411921 
L 397.416717 289.214286 
L 397.597416 289.411921 
L 397.597416 289.411921 
L 397.774705 289.802371 
L 397.597416 290.195232 
L 397.416717 290.000007 
L 397.597416 289.411921 
L 397.416717 288.823836 
L 396.172281 288.823836 
L 396.70415 287.84289 
L 396.884849 288.038115 
L 396.884849 289.019061 
L 396.52686 289.019061 
L 395.637003 288.038115 
L 395.282424 287.254805 
L 395.282424 286.861945 
L 394.924436 287.05958 
L 394.924436 287.254805 
L 395.101725 286.861945 
L 395.637003 286.66672 
L 395.814293 286.861945 
L 395.637003 287.45003 
L 395.282424 288.038115 
L 394.747147 287.84289 
L 394.747147 287.45003 
L 394.924436 287.05958 
L 395.459714 286.861945 
L 395.994992 287.05958 
L 395.814293 287.45003 
L 395.282424 287.84289 
L 394.924436 287.647665 
L 395.282424 286.861945 
L 395.101725 286.66672 
L 395.282424 286.861945 
L 394.747147 285.490549 
L 394.747147 286.273859 
L 394.924436 287.254805 
L 394.389158 287.05958 
L 394.034579 286.66672 
L 393.499301 286.273859 
L 393.499301 285.880999 
L 394.211869 285.490549 
L 394.211869 285.490549 
L 394.569857 285.880999 
L 394.569857 285.880999 
" style="fill:none;stroke:#1f77b4;stroke-linecap:square;stroke-width:1.5;"/>
   </g>
   <g id="matplotlib.axis_1">
    <g id="xtick_1">
     <g id="line2d_2">
      <defs>
       <path d="M 0 0 
L 0 3.5 
" id="m500146d672" style="stroke:#000000;stroke-width:0.8;"/>
      </defs>
      <g>
       <use style="stroke:#000000;stroke-width:0.8;" x="88.503432" xlink:href="#m500146d672" y="307.584"/>
      </g>
     </g>
     <g id="text_1">
      <!-- −600 -->
      <defs>
       <path d="M 10.59375 35.5 
L 73.1875 35.5 
L 73.1875 27.203125 
L 10.59375 27.203125 
z
" id="DejaVuSans-8722"/>
       <path d="M 33.015625 40.375 
Q 26.375 40.375 22.484375 35.828125 
Q 18.609375 31.296875 18.609375 23.390625 
Q 18.609375 15.53125 22.484375 10.953125 
Q 26.375 6.390625 33.015625 6.390625 
Q 39.65625 6.390625 43.53125 10.953125 
Q 47.40625 15.53125 47.40625 23.390625 
Q 47.40625 31.296875 43.53125 35.828125 
Q 39.65625 40.375 33.015625 40.375 
z
M 52.59375 71.296875 
L 52.59375 62.3125 
Q 48.875 64.0625 45.09375 64.984375 
Q 41.3125 65.921875 37.59375 65.921875 
Q 27.828125 65.921875 22.671875 59.328125 
Q 17.53125 52.734375 16.796875 39.40625 
Q 19.671875 43.65625 24.015625 45.921875 
Q 28.375 48.1875 33.59375 48.1875 
Q 44.578125 48.1875 50.953125 41.515625 
Q 57.328125 34.859375 57.328125 23.390625 
Q 57.328125 12.15625 50.6875 5.359375 
Q 44.046875 -1.421875 33.015625 -1.421875 
Q 20.359375 -1.421875 13.671875 8.265625 
Q 6.984375 17.96875 6.984375 36.375 
Q 6.984375 53.65625 15.1875 63.9375 
Q 23.390625 74.21875 37.203125 74.21875 
Q 40.921875 74.21875 44.703125 73.484375 
Q 48.484375 72.75 52.59375 71.296875 
z
" id="DejaVuSans-54"/>
       <path d="M 31.78125 66.40625 
Q 24.171875 66.40625 20.328125 58.90625 
Q 16.5 51.421875 16.5 36.375 
Q 16.5 21.390625 20.328125 13.890625 
Q 24.171875 6.390625 31.78125 6.390625 
Q 39.453125 6.390625 43.28125 13.890625 
Q 47.125 21.390625 47.125 36.375 
Q 47.125 51.421875 43.28125 58.90625 
Q 39.453125 66.40625 31.78125 66.40625 
z
M 31.78125 74.21875 
Q 44.046875 74.21875 50.515625 64.515625 
Q 56.984375 54.828125 56.984375 36.375 
Q 56.984375 17.96875 50.515625 8.265625 
Q 44.046875 -1.421875 31.78125 -1.421875 
Q 19.53125 -1.421875 13.0625 8.265625 
Q 6.59375 17.96875 6.59375 36.375 
Q 6.59375 54.828125 13.0625 64.515625 
Q 19.53125 74.21875 31.78125 74.21875 
z
" id="DejaVuSans-48"/>
      </defs>
      <g transform="translate(74.769838 322.182437)scale(0.1 -0.1)">
       <use xlink:href="#DejaVuSans-8722"/>
       <use x="83.789062" xlink:href="#DejaVuSans-54"/>
       <use x="147.412109" xlink:href="#DejaVuSans-48"/>
       <use x="211.035156" xlink:href="#DejaVuSans-48"/>
      </g>
     </g>
    </g>
    <g id="xtick_2">
     <g id="line2d_3">
      <g>
       <use style="stroke:#000000;stroke-width:0.8;" x="156.691694" xlink:href="#m500146d672" y="307.584"/>
      </g>
     </g>
     <g id="text_2">
      <!-- −400 -->
      <defs>
       <path d="M 37.796875 64.3125 
L 12.890625 25.390625 
L 37.796875 25.390625 
z
M 35.203125 72.90625 
L 47.609375 72.90625 
L 47.609375 25.390625 
L 58.015625 25.390625 
L 58.015625 17.1875 
L 47.609375 17.1875 
L 47.609375 0 
L 37.796875 0 
L 37.796875 17.1875 
L 4.890625 17.1875 
L 4.890625 26.703125 
z
" id="DejaVuSans-52"/>
      </defs>
      <g transform="translate(142.958101 322.182437)scale(0.1 -0.1)">
       <use xlink:href="#DejaVuSans-8722"/>
       <use x="83.789062" xlink:href="#DejaVuSans-52"/>
       <use x="147.412109" xlink:href="#DejaVuSans-48"/>
       <use x="211.035156" xlink:href="#DejaVuSans-48"/>
      </g>
     </g>
    </g>
    <g id="xtick_3">
     <g id="line2d_4">
      <g>
       <use style="stroke:#000000;stroke-width:0.8;" x="224.879957" xlink:href="#m500146d672" y="307.584"/>
      </g>
     </g>
     <g id="text_3">
      <!-- −200 -->
      <defs>
       <path d="M 19.1875 8.296875 
L 53.609375 8.296875 
L 53.609375 0 
L 7.328125 0 
L 7.328125 8.296875 
Q 12.9375 14.109375 22.625 23.890625 
Q 32.328125 33.6875 34.8125 36.53125 
Q 39.546875 41.84375 41.421875 45.53125 
Q 43.3125 49.21875 43.3125 52.78125 
Q 43.3125 58.59375 39.234375 62.25 
Q 35.15625 65.921875 28.609375 65.921875 
Q 23.96875 65.921875 18.8125 64.3125 
Q 13.671875 62.703125 7.8125 59.421875 
L 7.8125 69.390625 
Q 13.765625 71.78125 18.9375 73 
Q 24.125 74.21875 28.421875 74.21875 
Q 39.75 74.21875 46.484375 68.546875 
Q 53.21875 62.890625 53.21875 53.421875 
Q 53.21875 48.921875 51.53125 44.890625 
Q 49.859375 40.875 45.40625 35.40625 
Q 44.1875 33.984375 37.640625 27.21875 
Q 31.109375 20.453125 19.1875 8.296875 
z
" id="DejaVuSans-50"/>
      </defs>
      <g transform="translate(211.146363 322.182437)scale(0.1 -0.1)">
       <use xlink:href="#DejaVuSans-8722"/>
       <use x="83.789062" xlink:href="#DejaVuSans-50"/>
       <use x="147.412109" xlink:href="#DejaVuSans-48"/>
       <use x="211.035156" xlink:href="#DejaVuSans-48"/>
      </g>
     </g>
    </g>
    <g id="xtick_4">
     <g id="line2d_5">
      <g>
       <use style="stroke:#000000;stroke-width:0.8;" x="293.068219" xlink:href="#m500146d672" y="307.584"/>
      </g>
     </g>
     <g id="text_4">
      <!-- 0 -->
      <g transform="translate(289.886969 322.182437)scale(0.1 -0.1)">
       <use xlink:href="#DejaVuSans-48"/>
      </g>
     </g>
    </g>
    <g id="xtick_5">
     <g id="line2d_6">
      <g>
       <use style="stroke:#000000;stroke-width:0.8;" x="361.256481" xlink:href="#m500146d672" y="307.584"/>
      </g>
     </g>
     <g id="text_5">
      <!-- 200 -->
      <g transform="translate(351.712731 322.182437)scale(0.1 -0.1)">
       <use xlink:href="#DejaVuSans-50"/>
       <use x="63.623047" xlink:href="#DejaVuSans-48"/>
       <use x="127.246094" xlink:href="#DejaVuSans-48"/>
      </g>
     </g>
    </g>
   </g>
   <g id="matplotlib.axis_2">
    <g id="ytick_1">
     <g id="line2d_7">
      <defs>
       <path d="M 0 0 
L -3.5 0 
" id="m01c2268e02" style="stroke:#000000;stroke-width:0.8;"/>
      </defs>
      <g>
       <use style="stroke:#000000;stroke-width:0.8;" x="57.6" xlink:href="#m01c2268e02" y="295.049346"/>
      </g>
     </g>
     <g id="text_6">
      <!-- −400 -->
      <g transform="translate(23.132812 298.848565)scale(0.1 -0.1)">
       <use xlink:href="#DejaVuSans-8722"/>
       <use x="83.789062" xlink:href="#DejaVuSans-52"/>
       <use x="147.412109" xlink:href="#DejaVuSans-48"/>
       <use x="211.035156" xlink:href="#DejaVuSans-48"/>
      </g>
     </g>
    </g>
    <g id="ytick_2">
     <g id="line2d_8">
      <g>
       <use style="stroke:#000000;stroke-width:0.8;" x="57.6" xlink:href="#m01c2268e02" y="246.845628"/>
      </g>
     </g>
     <g id="text_7">
      <!-- −200 -->
      <g transform="translate(23.132812 250.644847)scale(0.1 -0.1)">
       <use xlink:href="#DejaVuSans-8722"/>
       <use x="83.789062" xlink:href="#DejaVuSans-50"/>
       <use x="147.412109" xlink:href="#DejaVuSans-48"/>
       <use x="211.035156" xlink:href="#DejaVuSans-48"/>
      </g>
     </g>
    </g>
    <g id="ytick_3">
     <g id="line2d_9">
      <g>
       <use style="stroke:#000000;stroke-width:0.8;" x="57.6" xlink:href="#m01c2268e02" y="198.64191"/>
      </g>
     </g>
     <g id="text_8">
      <!-- 0 -->
      <g transform="translate(44.2375 202.441129)scale(0.1 -0.1)">
       <use xlink:href="#DejaVuSans-48"/>
      </g>
     </g>
    </g>
    <g id="ytick_4">
     <g id="line2d_10">
      <g>
       <use style="stroke:#000000;stroke-width:0.8;" x="57.6" xlink:href="#m01c2268e02" y="150.438192"/>
      </g>
     </g>
     <g id="text_9">
      <!-- 200 -->
      <g transform="translate(31.5125 154.237411)scale(0.1 -0.1)">
       <use xlink:href="#DejaVuSans-50"/>
       <use x="63.623047" xlink:href="#DejaVuSans-48"/>
       <use x="127.246094" xlink:href="#DejaVuSans-48"/>
      </g>
     </g>
    </g>
    <g id="ytick_5">
     <g id="line2d_11">
      <g>
       <use style="stroke:#000000;stroke-width:0.8;" x="57.6" xlink:href="#m01c2268e02" y="102.234474"/>
      </g>
     </g>
     <g id="text_10">
      <!-- 400 -->
      <g transform="translate(31.5125 106.033693)scale(0.1 -0.1)">
       <use xlink:href="#DejaVuSans-52"/>
       <use x="63.623047" xlink:href="#DejaVuSans-48"/>
       <use x="127.246094" xlink:href="#DejaVuSans-48"/>
      </g>
     </g>
    </g>
    <g id="ytick_6">
     <g id="line2d_12">
      <g>
       <use style="stroke:#000000;stroke-width:0.8;" x="57.6" xlink:href="#m01c2268e02" y="54.030756"/>
      </g>
     </g>
     <g id="text_11">
      <!-- 600 -->
      <g transform="translate(31.5125 57.829974)scale(0.1 -0.1)">
       <use xlink:href="#DejaVuSans-54"/>
       <use x="63.623047" xlink:href="#DejaVuSans-48"/>
       <use x="127.246094" xlink:href="#DejaVuSans-48"/>
      </g>
     </g>
    </g>
   </g>
   <g id="line2d_13">
    <path clip-path="url(#p10cd13cedb)" d="M 80.098084 56.745944 
L 248.13977 149.150499 
L 240.469359 162.869 
L 322.017428 253.805061 
L 317.542155 258.551008 
L 245.976576 115.483597 
L 251.610849 123.348285 
L 287.633144 261.249281 
L 394.089475 290.673153 
" style="fill:none;stroke:#ff0000;stroke-linecap:square;stroke-width:0.5;"/>
   </g>
   <g id="patch_3">
    <path d="M 57.6 307.584 
L 57.6 41.472 
" style="fill:none;stroke:#000000;stroke-linecap:square;stroke-linejoin:miter;stroke-width:0.8;"/>
   </g>
   <g id="patch_4">
    <path d="M 414.72 307.584 
L 414.72 41.472 
" style="fill:none;stroke:#000000;stroke-linecap:square;stroke-linejoin:miter;stroke-width:0.8;"/>
   </g>
   <g id="patch_5">
    <path d="M 57.6 307.584 
L 414.72 307.584 
" style="fill:none;stroke:#000000;stroke-linecap:square;stroke-linejoin:miter;stroke-width:0.8;"/>
   </g>
   <g id="patch_6">
    <path d="M 57.6 41.472 
L 414.72 41.472 
" style="fill:none;stroke:#000000;stroke-linecap:square;stroke-linejoin:miter;stroke-width:0.8;"/>
   </g>
   <g id="PathCollection_1">
    <defs>
     <path d="M 0 2.738613 
C 0.726289 2.738613 1.422928 2.450055 1.936492 1.936492 
C 2.450055 1.422928 2.738613 0.726289 2.738613 0 
C 2.738613 -0.726289 2.450055 -1.422928 1.936492 -1.936492 
C 1.422928 -2.450055 0.726289 -2.738613 0 -2.738613 
C -0.726289 -2.738613 -1.422928 -2.450055 -1.936492 -1.936492 
C -2.450055 -1.422928 -2.738613 -0.726289 -2.738613 0 
C -2.738613 0.726289 -2.450055 1.422928 -1.936492 1.936492 
C -1.422928 2.450055 -0.726289 2.738613 0 2.738613 
z
" id="mab7f69e7d2" style="stroke:#ff0000;"/>
    </defs>
    <g clip-path="url(#p10cd13cedb)">
     <use style="fill:#ff0000;stroke:#ff0000;" x="80.098084" xlink:href="#mab7f69e7d2" y="56.745944"/>
     <use style="fill:#ff0000;stroke:#ff0000;" x="248.13977" xlink:href="#mab7f69e7d2" y="149.150499"/>
     <use style="fill:#ff0000;stroke:#ff0000;" x="240.469359" xlink:href="#mab7f69e7d2" y="162.869"/>
     <use style="fill:#ff0000;stroke:#ff0000;" x="322.017428" xlink:href="#mab7f69e7d2" y="253.805061"/>
     <use style="fill:#ff0000;stroke:#ff0000;" x="317.542155" xlink:href="#mab7f69e7d2" y="258.551008"/>
     <use style="fill:#ff0000;stroke:#ff0000;" x="245.976576" xlink:href="#mab7f69e7d2" y="115.483597"/>
     <use style="fill:#ff0000;stroke:#ff0000;" x="251.610849" xlink:href="#mab7f69e7d2" y="123.348285"/>
     <use style="fill:#ff0000;stroke:#ff0000;" x="287.633144" xlink:href="#mab7f69e7d2" y="261.249281"/>
     <use style="fill:#ff0000;stroke:#ff0000;" x="394.089475" xlink:href="#mab7f69e7d2" y="290.673153"/>
    </g>
   </g>
   <g id="text_12">
    <!-- (135) Subject: s23, Known = False, Degree = 1, Duration = 0.1 -->
    <defs>
     <path d="M 31 75.875 
Q 24.46875 64.65625 21.28125 53.65625 
Q 18.109375 42.671875 18.109375 31.390625 
Q 18.109375 20.125 21.3125 9.0625 
Q 24.515625 -2 31 -13.1875 
L 23.1875 -13.1875 
Q 15.875 -1.703125 12.234375 9.375 
Q 8.59375 20.453125 8.59375 31.390625 
Q 8.59375 42.28125 12.203125 53.3125 
Q 15.828125 64.359375 23.1875 75.875 
z
" id="DejaVuSans-40"/>
     <path d="M 12.40625 8.296875 
L 28.515625 8.296875 
L 28.515625 63.921875 
L 10.984375 60.40625 
L 10.984375 69.390625 
L 28.421875 72.90625 
L 38.28125 72.90625 
L 38.28125 8.296875 
L 54.390625 8.296875 
L 54.390625 0 
L 12.40625 0 
z
" id="DejaVuSans-49"/>
     <path d="M 40.578125 39.3125 
Q 47.65625 37.796875 51.625 33 
Q 55.609375 28.21875 55.609375 21.1875 
Q 55.609375 10.40625 48.1875 4.484375 
Q 40.765625 -1.421875 27.09375 -1.421875 
Q 22.515625 -1.421875 17.65625 -0.515625 
Q 12.796875 0.390625 7.625 2.203125 
L 7.625 11.71875 
Q 11.71875 9.328125 16.59375 8.109375 
Q 21.484375 6.890625 26.8125 6.890625 
Q 36.078125 6.890625 40.9375 10.546875 
Q 45.796875 14.203125 45.796875 21.1875 
Q 45.796875 27.640625 41.28125 31.265625 
Q 36.765625 34.90625 28.71875 34.90625 
L 20.21875 34.90625 
L 20.21875 43.015625 
L 29.109375 43.015625 
Q 36.375 43.015625 40.234375 45.921875 
Q 44.09375 48.828125 44.09375 54.296875 
Q 44.09375 59.90625 40.109375 62.90625 
Q 36.140625 65.921875 28.71875 65.921875 
Q 24.65625 65.921875 20.015625 65.03125 
Q 15.375 64.15625 9.8125 62.3125 
L 9.8125 71.09375 
Q 15.4375 72.65625 20.34375 73.4375 
Q 25.25 74.21875 29.59375 74.21875 
Q 40.828125 74.21875 47.359375 69.109375 
Q 53.90625 64.015625 53.90625 55.328125 
Q 53.90625 49.265625 50.4375 45.09375 
Q 46.96875 40.921875 40.578125 39.3125 
z
" id="DejaVuSans-51"/>
     <path d="M 10.796875 72.90625 
L 49.515625 72.90625 
L 49.515625 64.59375 
L 19.828125 64.59375 
L 19.828125 46.734375 
Q 21.96875 47.46875 24.109375 47.828125 
Q 26.265625 48.1875 28.421875 48.1875 
Q 40.625 48.1875 47.75 41.5 
Q 54.890625 34.8125 54.890625 23.390625 
Q 54.890625 11.625 47.5625 5.09375 
Q 40.234375 -1.421875 26.90625 -1.421875 
Q 22.3125 -1.421875 17.546875 -0.640625 
Q 12.796875 0.140625 7.71875 1.703125 
L 7.71875 11.625 
Q 12.109375 9.234375 16.796875 8.0625 
Q 21.484375 6.890625 26.703125 6.890625 
Q 35.15625 6.890625 40.078125 11.328125 
Q 45.015625 15.765625 45.015625 23.390625 
Q 45.015625 31 40.078125 35.4375 
Q 35.15625 39.890625 26.703125 39.890625 
Q 22.75 39.890625 18.8125 39.015625 
Q 14.890625 38.140625 10.796875 36.28125 
z
" id="DejaVuSans-53"/>
     <path d="M 8.015625 75.875 
L 15.828125 75.875 
Q 23.140625 64.359375 26.78125 53.3125 
Q 30.421875 42.28125 30.421875 31.390625 
Q 30.421875 20.453125 26.78125 9.375 
Q 23.140625 -1.703125 15.828125 -13.1875 
L 8.015625 -13.1875 
Q 14.5 -2 17.703125 9.0625 
Q 20.90625 20.125 20.90625 31.390625 
Q 20.90625 42.671875 17.703125 53.65625 
Q 14.5 64.65625 8.015625 75.875 
z
" id="DejaVuSans-41"/>
     <path id="DejaVuSans-32"/>
     <path d="M 53.515625 70.515625 
L 53.515625 60.890625 
Q 47.90625 63.578125 42.921875 64.890625 
Q 37.9375 66.21875 33.296875 66.21875 
Q 25.25 66.21875 20.875 63.09375 
Q 16.5 59.96875 16.5 54.203125 
Q 16.5 49.359375 19.40625 46.890625 
Q 22.3125 44.4375 30.421875 42.921875 
L 36.375 41.703125 
Q 47.40625 39.59375 52.65625 34.296875 
Q 57.90625 29 57.90625 20.125 
Q 57.90625 9.515625 50.796875 4.046875 
Q 43.703125 -1.421875 29.984375 -1.421875 
Q 24.8125 -1.421875 18.96875 -0.25 
Q 13.140625 0.921875 6.890625 3.21875 
L 6.890625 13.375 
Q 12.890625 10.015625 18.65625 8.296875 
Q 24.421875 6.59375 29.984375 6.59375 
Q 38.421875 6.59375 43.015625 9.90625 
Q 47.609375 13.234375 47.609375 19.390625 
Q 47.609375 24.75 44.3125 27.78125 
Q 41.015625 30.8125 33.5 32.328125 
L 27.484375 33.5 
Q 16.453125 35.6875 11.515625 40.375 
Q 6.59375 45.0625 6.59375 53.421875 
Q 6.59375 63.09375 13.40625 68.65625 
Q 20.21875 74.21875 32.171875 74.21875 
Q 37.3125 74.21875 42.625 73.28125 
Q 47.953125 72.359375 53.515625 70.515625 
z
" id="DejaVuSans-83"/>
     <path d="M 8.5 21.578125 
L 8.5 54.6875 
L 17.484375 54.6875 
L 17.484375 21.921875 
Q 17.484375 14.15625 20.5 10.265625 
Q 23.53125 6.390625 29.59375 6.390625 
Q 36.859375 6.390625 41.078125 11.03125 
Q 45.3125 15.671875 45.3125 23.6875 
L 45.3125 54.6875 
L 54.296875 54.6875 
L 54.296875 0 
L 45.3125 0 
L 45.3125 8.40625 
Q 42.046875 3.421875 37.71875 1 
Q 33.40625 -1.421875 27.6875 -1.421875 
Q 18.265625 -1.421875 13.375 4.4375 
Q 8.5 10.296875 8.5 21.578125 
z
M 31.109375 56 
z
" id="DejaVuSans-117"/>
     <path d="M 48.6875 27.296875 
Q 48.6875 37.203125 44.609375 42.84375 
Q 40.53125 48.484375 33.40625 48.484375 
Q 26.265625 48.484375 22.1875 42.84375 
Q 18.109375 37.203125 18.109375 27.296875 
Q 18.109375 17.390625 22.1875 11.75 
Q 26.265625 6.109375 33.40625 6.109375 
Q 40.53125 6.109375 44.609375 11.75 
Q 48.6875 17.390625 48.6875 27.296875 
z
M 18.109375 46.390625 
Q 20.953125 51.265625 25.265625 53.625 
Q 29.59375 56 35.59375 56 
Q 45.5625 56 51.78125 48.09375 
Q 58.015625 40.1875 58.015625 27.296875 
Q 58.015625 14.40625 51.78125 6.484375 
Q 45.5625 -1.421875 35.59375 -1.421875 
Q 29.59375 -1.421875 25.265625 0.953125 
Q 20.953125 3.328125 18.109375 8.203125 
L 18.109375 0 
L 9.078125 0 
L 9.078125 75.984375 
L 18.109375 75.984375 
z
" id="DejaVuSans-98"/>
     <path d="M 9.421875 54.6875 
L 18.40625 54.6875 
L 18.40625 -0.984375 
Q 18.40625 -11.421875 14.421875 -16.109375 
Q 10.453125 -20.796875 1.609375 -20.796875 
L -1.8125 -20.796875 
L -1.8125 -13.1875 
L 0.59375 -13.1875 
Q 5.71875 -13.1875 7.5625 -10.8125 
Q 9.421875 -8.453125 9.421875 -0.984375 
z
M 9.421875 75.984375 
L 18.40625 75.984375 
L 18.40625 64.59375 
L 9.421875 64.59375 
z
" id="DejaVuSans-106"/>
     <path d="M 56.203125 29.59375 
L 56.203125 25.203125 
L 14.890625 25.203125 
Q 15.484375 15.921875 20.484375 11.0625 
Q 25.484375 6.203125 34.421875 6.203125 
Q 39.59375 6.203125 44.453125 7.46875 
Q 49.3125 8.734375 54.109375 11.28125 
L 54.109375 2.78125 
Q 49.265625 0.734375 44.1875 -0.34375 
Q 39.109375 -1.421875 33.890625 -1.421875 
Q 20.796875 -1.421875 13.15625 6.1875 
Q 5.515625 13.8125 5.515625 26.8125 
Q 5.515625 40.234375 12.765625 48.109375 
Q 20.015625 56 32.328125 56 
Q 43.359375 56 49.78125 48.890625 
Q 56.203125 41.796875 56.203125 29.59375 
z
M 47.21875 32.234375 
Q 47.125 39.59375 43.09375 43.984375 
Q 39.0625 48.390625 32.421875 48.390625 
Q 24.90625 48.390625 20.390625 44.140625 
Q 15.875 39.890625 15.1875 32.171875 
z
" id="DejaVuSans-101"/>
     <path d="M 48.78125 52.59375 
L 48.78125 44.1875 
Q 44.96875 46.296875 41.140625 47.34375 
Q 37.3125 48.390625 33.40625 48.390625 
Q 24.65625 48.390625 19.8125 42.84375 
Q 14.984375 37.3125 14.984375 27.296875 
Q 14.984375 17.28125 19.8125 11.734375 
Q 24.65625 6.203125 33.40625 6.203125 
Q 37.3125 6.203125 41.140625 7.25 
Q 44.96875 8.296875 48.78125 10.40625 
L 48.78125 2.09375 
Q 45.015625 0.34375 40.984375 -0.53125 
Q 36.96875 -1.421875 32.421875 -1.421875 
Q 20.0625 -1.421875 12.78125 6.34375 
Q 5.515625 14.109375 5.515625 27.296875 
Q 5.515625 40.671875 12.859375 48.328125 
Q 20.21875 56 33.015625 56 
Q 37.15625 56 41.109375 55.140625 
Q 45.0625 54.296875 48.78125 52.59375 
z
" id="DejaVuSans-99"/>
     <path d="M 18.3125 70.21875 
L 18.3125 54.6875 
L 36.8125 54.6875 
L 36.8125 47.703125 
L 18.3125 47.703125 
L 18.3125 18.015625 
Q 18.3125 11.328125 20.140625 9.421875 
Q 21.96875 7.515625 27.59375 7.515625 
L 36.8125 7.515625 
L 36.8125 0 
L 27.59375 0 
Q 17.1875 0 13.234375 3.875 
Q 9.28125 7.765625 9.28125 18.015625 
L 9.28125 47.703125 
L 2.6875 47.703125 
L 2.6875 54.6875 
L 9.28125 54.6875 
L 9.28125 70.21875 
z
" id="DejaVuSans-116"/>
     <path d="M 11.71875 12.40625 
L 22.015625 12.40625 
L 22.015625 0 
L 11.71875 0 
z
M 11.71875 51.703125 
L 22.015625 51.703125 
L 22.015625 39.3125 
L 11.71875 39.3125 
z
" id="DejaVuSans-58"/>
     <path d="M 44.28125 53.078125 
L 44.28125 44.578125 
Q 40.484375 46.53125 36.375 47.5 
Q 32.28125 48.484375 27.875 48.484375 
Q 21.1875 48.484375 17.84375 46.4375 
Q 14.5 44.390625 14.5 40.28125 
Q 14.5 37.15625 16.890625 35.375 
Q 19.28125 33.59375 26.515625 31.984375 
L 29.59375 31.296875 
Q 39.15625 29.25 43.1875 25.515625 
Q 47.21875 21.78125 47.21875 15.09375 
Q 47.21875 7.46875 41.1875 3.015625 
Q 35.15625 -1.421875 24.609375 -1.421875 
Q 20.21875 -1.421875 15.453125 -0.5625 
Q 10.6875 0.296875 5.421875 2 
L 5.421875 11.28125 
Q 10.40625 8.6875 15.234375 7.390625 
Q 20.0625 6.109375 24.8125 6.109375 
Q 31.15625 6.109375 34.5625 8.28125 
Q 37.984375 10.453125 37.984375 14.40625 
Q 37.984375 18.0625 35.515625 20.015625 
Q 33.0625 21.96875 24.703125 23.78125 
L 21.578125 24.515625 
Q 13.234375 26.265625 9.515625 29.90625 
Q 5.8125 33.546875 5.8125 39.890625 
Q 5.8125 47.609375 11.28125 51.796875 
Q 16.75 56 26.8125 56 
Q 31.78125 56 36.171875 55.265625 
Q 40.578125 54.546875 44.28125 53.078125 
z
" id="DejaVuSans-115"/>
     <path d="M 11.71875 12.40625 
L 22.015625 12.40625 
L 22.015625 4 
L 14.015625 -11.625 
L 7.71875 -11.625 
L 11.71875 4 
z
" id="DejaVuSans-44"/>
     <path d="M 9.8125 72.90625 
L 19.671875 72.90625 
L 19.671875 42.09375 
L 52.390625 72.90625 
L 65.09375 72.90625 
L 28.90625 38.921875 
L 67.671875 0 
L 54.6875 0 
L 19.671875 35.109375 
L 19.671875 0 
L 9.8125 0 
z
" id="DejaVuSans-75"/>
     <path d="M 54.890625 33.015625 
L 54.890625 0 
L 45.90625 0 
L 45.90625 32.71875 
Q 45.90625 40.484375 42.875 44.328125 
Q 39.84375 48.1875 33.796875 48.1875 
Q 26.515625 48.1875 22.3125 43.546875 
Q 18.109375 38.921875 18.109375 30.90625 
L 18.109375 0 
L 9.078125 0 
L 9.078125 54.6875 
L 18.109375 54.6875 
L 18.109375 46.1875 
Q 21.34375 51.125 25.703125 53.5625 
Q 30.078125 56 35.796875 56 
Q 45.21875 56 50.046875 50.171875 
Q 54.890625 44.34375 54.890625 33.015625 
z
" id="DejaVuSans-110"/>
     <path d="M 30.609375 48.390625 
Q 23.390625 48.390625 19.1875 42.75 
Q 14.984375 37.109375 14.984375 27.296875 
Q 14.984375 17.484375 19.15625 11.84375 
Q 23.34375 6.203125 30.609375 6.203125 
Q 37.796875 6.203125 41.984375 11.859375 
Q 46.1875 17.53125 46.1875 27.296875 
Q 46.1875 37.015625 41.984375 42.703125 
Q 37.796875 48.390625 30.609375 48.390625 
z
M 30.609375 56 
Q 42.328125 56 49.015625 48.375 
Q 55.71875 40.765625 55.71875 27.296875 
Q 55.71875 13.875 49.015625 6.21875 
Q 42.328125 -1.421875 30.609375 -1.421875 
Q 18.84375 -1.421875 12.171875 6.21875 
Q 5.515625 13.875 5.515625 27.296875 
Q 5.515625 40.765625 12.171875 48.375 
Q 18.84375 56 30.609375 56 
z
" id="DejaVuSans-111"/>
     <path d="M 4.203125 54.6875 
L 13.1875 54.6875 
L 24.421875 12.015625 
L 35.59375 54.6875 
L 46.1875 54.6875 
L 57.421875 12.015625 
L 68.609375 54.6875 
L 77.59375 54.6875 
L 63.28125 0 
L 52.6875 0 
L 40.921875 44.828125 
L 29.109375 0 
L 18.5 0 
z
" id="DejaVuSans-119"/>
     <path d="M 10.59375 45.40625 
L 73.1875 45.40625 
L 73.1875 37.203125 
L 10.59375 37.203125 
z
M 10.59375 25.484375 
L 73.1875 25.484375 
L 73.1875 17.1875 
L 10.59375 17.1875 
z
" id="DejaVuSans-61"/>
     <path d="M 9.8125 72.90625 
L 51.703125 72.90625 
L 51.703125 64.59375 
L 19.671875 64.59375 
L 19.671875 43.109375 
L 48.578125 43.109375 
L 48.578125 34.8125 
L 19.671875 34.8125 
L 19.671875 0 
L 9.8125 0 
z
" id="DejaVuSans-70"/>
     <path d="M 34.28125 27.484375 
Q 23.390625 27.484375 19.1875 25 
Q 14.984375 22.515625 14.984375 16.5 
Q 14.984375 11.71875 18.140625 8.90625 
Q 21.296875 6.109375 26.703125 6.109375 
Q 34.1875 6.109375 38.703125 11.40625 
Q 43.21875 16.703125 43.21875 25.484375 
L 43.21875 27.484375 
z
M 52.203125 31.203125 
L 52.203125 0 
L 43.21875 0 
L 43.21875 8.296875 
Q 40.140625 3.328125 35.546875 0.953125 
Q 30.953125 -1.421875 24.3125 -1.421875 
Q 15.921875 -1.421875 10.953125 3.296875 
Q 6 8.015625 6 15.921875 
Q 6 25.140625 12.171875 29.828125 
Q 18.359375 34.515625 30.609375 34.515625 
L 43.21875 34.515625 
L 43.21875 35.40625 
Q 43.21875 41.609375 39.140625 45 
Q 35.0625 48.390625 27.6875 48.390625 
Q 23 48.390625 18.546875 47.265625 
Q 14.109375 46.140625 10.015625 43.890625 
L 10.015625 52.203125 
Q 14.9375 54.109375 19.578125 55.046875 
Q 24.21875 56 28.609375 56 
Q 40.484375 56 46.34375 49.84375 
Q 52.203125 43.703125 52.203125 31.203125 
z
" id="DejaVuSans-97"/>
     <path d="M 9.421875 75.984375 
L 18.40625 75.984375 
L 18.40625 0 
L 9.421875 0 
z
" id="DejaVuSans-108"/>
     <path d="M 19.671875 64.796875 
L 19.671875 8.109375 
L 31.59375 8.109375 
Q 46.6875 8.109375 53.6875 14.9375 
Q 60.6875 21.78125 60.6875 36.53125 
Q 60.6875 51.171875 53.6875 57.984375 
Q 46.6875 64.796875 31.59375 64.796875 
z
M 9.8125 72.90625 
L 30.078125 72.90625 
Q 51.265625 72.90625 61.171875 64.09375 
Q 71.09375 55.28125 71.09375 36.53125 
Q 71.09375 17.671875 61.125 8.828125 
Q 51.171875 0 30.078125 0 
L 9.8125 0 
z
" id="DejaVuSans-68"/>
     <path d="M 45.40625 27.984375 
Q 45.40625 37.75 41.375 43.109375 
Q 37.359375 48.484375 30.078125 48.484375 
Q 22.859375 48.484375 18.828125 43.109375 
Q 14.796875 37.75 14.796875 27.984375 
Q 14.796875 18.265625 18.828125 12.890625 
Q 22.859375 7.515625 30.078125 7.515625 
Q 37.359375 7.515625 41.375 12.890625 
Q 45.40625 18.265625 45.40625 27.984375 
z
M 54.390625 6.78125 
Q 54.390625 -7.171875 48.1875 -13.984375 
Q 42 -20.796875 29.203125 -20.796875 
Q 24.46875 -20.796875 20.265625 -20.09375 
Q 16.0625 -19.390625 12.109375 -17.921875 
L 12.109375 -9.1875 
Q 16.0625 -11.328125 19.921875 -12.34375 
Q 23.78125 -13.375 27.78125 -13.375 
Q 36.625 -13.375 41.015625 -8.765625 
Q 45.40625 -4.15625 45.40625 5.171875 
L 45.40625 9.625 
Q 42.625 4.78125 38.28125 2.390625 
Q 33.9375 0 27.875 0 
Q 17.828125 0 11.671875 7.65625 
Q 5.515625 15.328125 5.515625 27.984375 
Q 5.515625 40.671875 11.671875 48.328125 
Q 17.828125 56 27.875 56 
Q 33.9375 56 38.28125 53.609375 
Q 42.625 51.21875 45.40625 46.390625 
L 45.40625 54.6875 
L 54.390625 54.6875 
z
" id="DejaVuSans-103"/>
     <path d="M 41.109375 46.296875 
Q 39.59375 47.171875 37.8125 47.578125 
Q 36.03125 48 33.890625 48 
Q 26.265625 48 22.1875 43.046875 
Q 18.109375 38.09375 18.109375 28.8125 
L 18.109375 0 
L 9.078125 0 
L 9.078125 54.6875 
L 18.109375 54.6875 
L 18.109375 46.1875 
Q 20.953125 51.171875 25.484375 53.578125 
Q 30.03125 56 36.53125 56 
Q 37.453125 56 38.578125 55.875 
Q 39.703125 55.765625 41.0625 55.515625 
z
" id="DejaVuSans-114"/>
     <path d="M 9.421875 54.6875 
L 18.40625 54.6875 
L 18.40625 0 
L 9.421875 0 
z
M 9.421875 75.984375 
L 18.40625 75.984375 
L 18.40625 64.59375 
L 9.421875 64.59375 
z
" id="DejaVuSans-105"/>
     <path d="M 10.6875 12.40625 
L 21 12.40625 
L 21 0 
L 10.6875 0 
z
" id="DejaVuSans-46"/>
    </defs>
    <g transform="translate(45.924375 35.472)scale(0.12 -0.12)">
     <use xlink:href="#DejaVuSans-40"/>
     <use x="39.013672" xlink:href="#DejaVuSans-49"/>
     <use x="102.636719" xlink:href="#DejaVuSans-51"/>
     <use x="166.259766" xlink:href="#DejaVuSans-53"/>
     <use x="229.882812" xlink:href="#DejaVuSans-41"/>
     <use x="268.896484" xlink:href="#DejaVuSans-32"/>
     <use x="300.683594" xlink:href="#DejaVuSans-83"/>
     <use x="364.160156" xlink:href="#DejaVuSans-117"/>
     <use x="427.539062" xlink:href="#DejaVuSans-98"/>
     <use x="491.015625" xlink:href="#DejaVuSans-106"/>
     <use x="518.798828" xlink:href="#DejaVuSans-101"/>
     <use x="580.322266" xlink:href="#DejaVuSans-99"/>
     <use x="635.302734" xlink:href="#DejaVuSans-116"/>
     <use x="674.511719" xlink:href="#DejaVuSans-58"/>
     <use x="708.203125" xlink:href="#DejaVuSans-32"/>
     <use x="739.990234" xlink:href="#DejaVuSans-115"/>
     <use x="792.089844" xlink:href="#DejaVuSans-50"/>
     <use x="855.712891" xlink:href="#DejaVuSans-51"/>
     <use x="919.335938" xlink:href="#DejaVuSans-44"/>
     <use x="951.123047" xlink:href="#DejaVuSans-32"/>
     <use x="982.910156" xlink:href="#DejaVuSans-75"/>
     <use x="1048.486328" xlink:href="#DejaVuSans-110"/>
     <use x="1111.865234" xlink:href="#DejaVuSans-111"/>
     <use x="1173.046875" xlink:href="#DejaVuSans-119"/>
     <use x="1254.833984" xlink:href="#DejaVuSans-110"/>
     <use x="1318.212891" xlink:href="#DejaVuSans-32"/>
     <use x="1350" xlink:href="#DejaVuSans-61"/>
     <use x="1433.789062" xlink:href="#DejaVuSans-32"/>
     <use x="1465.576172" xlink:href="#DejaVuSans-70"/>
     <use x="1522.955078" xlink:href="#DejaVuSans-97"/>
     <use x="1584.234375" xlink:href="#DejaVuSans-108"/>
     <use x="1612.017578" xlink:href="#DejaVuSans-115"/>
     <use x="1664.117188" xlink:href="#DejaVuSans-101"/>
     <use x="1725.640625" xlink:href="#DejaVuSans-44"/>
     <use x="1757.427734" xlink:href="#DejaVuSans-32"/>
     <use x="1789.214844" xlink:href="#DejaVuSans-68"/>
     <use x="1866.216797" xlink:href="#DejaVuSans-101"/>
     <use x="1927.740234" xlink:href="#DejaVuSans-103"/>
     <use x="1991.216797" xlink:href="#DejaVuSans-114"/>
     <use x="2032.298828" xlink:href="#DejaVuSans-101"/>
     <use x="2093.822266" xlink:href="#DejaVuSans-101"/>
     <use x="2155.345703" xlink:href="#DejaVuSans-32"/>
     <use x="2187.132812" xlink:href="#DejaVuSans-61"/>
     <use x="2270.921875" xlink:href="#DejaVuSans-32"/>
     <use x="2302.708984" xlink:href="#DejaVuSans-49"/>
     <use x="2366.332031" xlink:href="#DejaVuSans-44"/>
     <use x="2398.119141" xlink:href="#DejaVuSans-32"/>
     <use x="2429.90625" xlink:href="#DejaVuSans-68"/>
     <use x="2506.908203" xlink:href="#DejaVuSans-117"/>
     <use x="2570.287109" xlink:href="#DejaVuSans-114"/>
     <use x="2611.400391" xlink:href="#DejaVuSans-97"/>
     <use x="2672.679688" xlink:href="#DejaVuSans-116"/>
     <use x="2711.888672" xlink:href="#DejaVuSans-105"/>
     <use x="2739.671875" xlink:href="#DejaVuSans-111"/>
     <use x="2800.853516" xlink:href="#DejaVuSans-110"/>
     <use x="2864.232422" xlink:href="#DejaVuSans-32"/>
     <use x="2896.019531" xlink:href="#DejaVuSans-61"/>
     <use x="2979.808594" xlink:href="#DejaVuSans-32"/>
     <use x="3011.595703" xlink:href="#DejaVuSans-48"/>
     <use x="3075.21875" xlink:href="#DejaVuSans-46"/>
     <use x="3107.005859" xlink:href="#DejaVuSans-49"/>
    </g>
   </g>
  </g>
 </g>
 <defs>
  <clipPath id="p10cd13cedb">
   <rect height="266.112" width="357.12" x="57.6" y="41.472"/>
  </clipPath>
 </defs>
</svg>
