<?xml version="1.0" encoding="utf-8" standalone="no"?>
<!DOCTYPE svg PUBLIC "-//W3C//DTD SVG 1.1//EN"
  "http://www.w3.org/Graphics/SVG/1.1/DTD/svg11.dtd">
<!-- Created with matplotlib (https://matplotlib.org/) -->
<svg height="345.6pt" version="1.1" viewBox="0 0 460.8 345.6" width="460.8pt" xmlns="http://www.w3.org/2000/svg" xmlns:xlink="http://www.w3.org/1999/xlink">
 <defs>
  <style type="text/css">
*{stroke-linecap:butt;stroke-linejoin:round;}
  </style>
 </defs>
 <g id="figure_1">
  <g id="patch_1">
   <path d="M 0 345.6 
L 460.8 345.6 
L 460.8 0 
L 0 0 
z
" style="fill:#ffffff;"/>
  </g>
  <g id="axes_1">
   <g id="patch_2">
    <path d="M 57.6 307.584 
L 414.72 307.584 
L 414.72 41.472 
L 57.6 41.472 
z
" style="fill:#ffffff;"/>
   </g>
   <g id="line2d_1">
    <path clip-path="url(#p141741d7d4)" d="M 175.153661 276.726158 
L 174.467455 276.726158 
L 174.467455 276.630631 
L 173.781249 276.536268 
L 172.395641 276.536268 
L 159.99115 274.830752 
L 159.304945 275.019477 
L 162.062964 275.30373 
L 161.376758 275.209367 
L 161.376758 274.925115 
L 162.74917 274.735224 
L 164.820984 274.735224 
L 162.062964 274.830752 
L 159.99115 275.019477 
L 159.99115 275.019477 
L 160.677356 275.209367 
L 159.304945 275.49362 
L 158.618739 275.68351 
L 157.932533 275.68351 
L 157.932533 275.019477 
L 157.932533 275.019477 
L 159.99115 275.30373 
L 158.618739 275.399257 
L 157.932533 275.209367 
L 157.233131 275.019477 
L 157.233131 274.640862 
L 156.546925 274.640862 
L 156.546925 274.925115 
L 157.932533 275.115005 
L 159.304945 275.019477 
L 157.233131 275.115005 
L 157.932533 274.830752 
L 159.304945 274.546499 
L 159.99115 274.546499 
L 158.618739 274.640862 
L 158.618739 274.735224 
L 159.99115 274.925115 
L 160.677356 274.830752 
L 158.618739 274.640862 
L 156.546925 274.735224 
L 157.233131 274.640862 
L 156.546925 274.925115 
L 155.174513 275.209367 
L 155.174513 275.209367 
L 155.174513 274.830752 
L 156.546925 274.640862 
L 155.860719 274.640862 
L 157.233131 274.735224 
L 159.304945 274.735224 
L 158.618739 274.640862 
L 159.304945 274.356609 
L 157.233131 274.262247 
L 155.860719 274.450972 
L 155.860719 274.640862 
L 155.174513 274.830752 
L 158.618739 275.019477 
L 158.618739 274.925115 
L 158.618739 275.209367 
L 156.546925 275.115005 
L 157.233131 275.209367 
L 157.932533 275.019477 
L 157.233131 274.830752 
L 155.174513 274.735224 
L 153.788905 274.830752 
L 153.788905 275.019477 
L 154.475111 275.115005 
L 157.932533 275.019477 
L 157.932533 275.49362 
L 157.233131 275.587982 
L 155.860719 275.399257 
L 155.860719 275.209367 
L 156.546925 275.209367 
L 155.860719 275.399257 
L 157.932533 275.399257 
L 157.233131 275.30373 
L 157.233131 275.209367 
L 155.174513 275.019477 
L 154.475111 274.830752 
L 155.860719 275.115005 
L 157.932533 275.209367 
L 155.860719 275.399257 
L 155.860719 275.30373 
L 154.475111 274.925115 
L 153.102699 274.830752 
L 152.416494 275.019477 
L 152.416494 275.399257 
L 153.788905 275.49362 
L 157.233131 275.399257 
L 155.860719 275.399257 
L 151.717091 275.30373 
L 151.717091 275.30373 
L 154.475111 275.68351 
L 154.475111 275.967763 
L 153.102699 276.062125 
L 151.717091 275.967763 
L 155.860719 275.68351 
L 154.475111 275.587982 
L 155.860719 275.68351 
L 159.99115 275.68351 
L 157.233131 275.587982 
L 157.233131 275.30373 
L 157.932533 275.30373 
L 157.233131 275.399257 
L 157.233131 275.587982 
L 156.546925 275.587982 
L 156.546925 275.399257 
L 156.546925 275.49362 
L 157.233131 275.777873 
L 157.233131 275.967763 
L 156.546925 275.967763 
L 155.860719 275.777873 
L 151.717091 275.49362 
L 150.34468 275.587982 
L 150.34468 275.777873 
L 151.030886 275.872235 
L 150.34468 275.68351 
L 151.030886 275.49362 
L 148.272866 275.399257 
L 147.58666 275.209367 
L 151.717091 275.019477 
L 152.416494 275.019477 
L 153.102699 275.209367 
L 152.416494 275.209367 
L 148.972268 274.735224 
L 148.272866 274.450972 
L 150.34468 274.356609 
L 153.788905 274.640862 
L 155.174513 274.830752 
L 156.546925 274.830752 
L 153.788905 274.830752 
L 153.788905 274.830752 
L 154.475111 274.640862 
L 154.475111 274.735224 
L 155.860719 274.640862 
L 155.860719 274.166719 
L 155.860719 274.262247 
L 154.475111 274.450972 
L 155.860719 274.546499 
L 155.174513 274.450972 
L 153.788905 274.166719 
L 153.788905 273.882466 
L 156.546925 273.598214 
L 156.546925 273.598214 
L 156.546925 273.693741 
L 155.860719 273.882466 
L 152.416494 274.166719 
L 153.102699 274.166719 
L 153.102699 273.977994 
L 151.030886 273.788104 
L 150.34468 273.598214 
L 148.972268 273.788104 
L 151.717091 273.503851 
L 154.475111 273.409489 
L 155.174513 273.503851 
L 153.788905 273.598214 
L 151.717091 273.503851 
L 151.717091 273.313961 
L 153.788905 273.219598 
L 153.102699 273.125236 
L 153.788905 272.935346 
L 155.174513 273.029708 
L 155.860719 272.935346 
L 155.174513 272.745456 
L 152.416494 272.461203 
L 151.030886 272.272478 
L 151.030886 272.272478 
L 151.717091 272.651093 
L 153.102699 273.029708 
L 154.475111 273.029708 
L 155.860719 272.840983 
L 155.860719 272.651093 
L 151.717091 272.745456 
L 153.102699 272.36684 
L 153.102699 272.36684 
L 151.717091 272.17695 
L 151.030886 271.892698 
L 151.717091 271.798335 
L 151.030886 271.988225 
L 151.030886 272.17695 
L 159.99115 272.272478 
L 157.233131 272.082588 
L 155.174513 271.892698 
L 154.475111 271.892698 
L 159.304945 271.892698 
L 159.304945 271.798335 
L 158.618739 271.608445 
L 158.618739 271.608445 
L 156.546925 272.082588 
L 155.174513 271.892698 
L 155.174513 271.703972 
L 156.546925 271.703972 
L 157.932533 271.988225 
L 158.618739 271.988225 
L 156.546925 272.082588 
L 156.546925 271.892698 
L 156.546925 271.798335 
L 159.304945 272.17695 
L 157.233131 271.892698 
L 157.932533 271.608445 
L 159.99115 271.514082 
L 159.304945 271.608445 
L 158.618739 271.798335 
L 158.618739 271.988225 
L 159.99115 271.988225 
L 159.99115 271.798335 
L 155.860719 271.514082 
L 155.174513 271.514082 
L 158.618739 271.608445 
L 158.618739 271.703972 
L 157.932533 271.608445 
L 157.932533 271.418555 
L 158.618739 271.324192 
L 159.99115 271.324192 
L 159.304945 271.418555 
L 156.546925 271.608445 
L 158.618739 271.608445 
L 159.304945 271.798335 
L 159.304945 271.988225 
L 159.304945 271.514082 
L 157.932533 271.22983 
L 157.233131 271.22983 
L 155.860719 271.514082 
L 155.174513 271.514082 
L 153.788905 271.324192 
L 153.102699 271.418555 
L 156.546925 271.798335 
L 157.932533 271.703972 
L 158.618739 271.514082 
L 157.932533 271.514082 
L 157.932533 271.892698 
L 157.233131 272.082588 
L 155.174513 271.798335 
L 153.788905 271.324192 
L 154.475111 271.22983 
L 156.546925 271.514082 
L 156.546925 271.892698 
L 154.475111 272.17695 
L 153.788905 272.082588 
L 155.174513 271.608445 
L 156.546925 271.608445 
L 155.860719 271.703972 
L 155.174513 271.988225 
L 153.788905 272.17695 
L 151.717091 272.17695 
L 151.717091 271.988225 
L 151.030886 271.798335 
L 151.030886 271.608445 
L 154.475111 271.988225 
L 153.102699 272.17695 
L 150.34468 272.272478 
L 149.658474 272.17695 
L 150.34468 272.272478 
L 152.416494 272.272478 
L 149.658474 272.36684 
L 149.658474 272.272478 
L 150.34468 271.988225 
L 150.34468 272.082588 
L 153.102699 272.272478 
L 151.717091 272.082588 
L 152.416494 271.892698 
L 153.788905 271.892698 
L 155.174513 272.36684 
L 152.416494 272.651093 
L 153.102699 272.651093 
L 153.788905 272.36684 
L 153.102699 272.556731 
L 151.717091 272.17695 
L 152.416494 272.36684 
L 153.102699 272.745456 
L 152.416494 273.125236 
L 153.102699 273.313961 
L 154.475111 273.029708 
L 155.174513 272.651093 
L 155.174513 272.36684 
L 152.416494 272.556731 
L 148.972268 272.651093 
L 143.456229 272.745456 
L 155.174513 272.651093 
L 150.34468 272.745456 
L 151.030886 272.840983 
L 154.475111 272.651093 
L 154.475111 272.935346 
L 154.475111 272.935346 
L 155.174513 272.840983 
L 155.174513 272.461203 
L 155.860719 272.556731 
L 157.233131 273.125236 
L 158.618739 272.840983 
L 157.932533 272.745456 
L 156.546925 272.840983 
L 153.788905 272.935346 
L 159.304945 272.935346 
L 157.233131 273.219598 
L 158.618739 272.935346 
L 158.618739 272.745456 
L 157.233131 272.651093 
L 153.102699 272.935346 
L 155.860719 273.125236 
L 154.475111 273.219598 
L 154.475111 273.219598 
L 155.860719 273.503851 
L 155.174513 273.598214 
L 153.788905 273.503851 
L 153.102699 273.598214 
L 151.030886 273.693741 
L 153.102699 273.598214 
L 153.788905 273.409489 
L 153.102699 273.313961 
L 149.658474 273.313961 
L 151.030886 273.409489 
L 153.102699 273.598214 
L 154.475111 273.882466 
L 154.475111 274.072357 
L 154.475111 273.977994 
L 155.860719 273.598214 
L 155.860719 273.313961 
L 155.174513 273.219598 
L 159.304945 273.788104 
L 160.677356 273.409489 
L 151.717091 273.313961 
L 150.34468 273.125236 
L 150.34468 272.935346 
L 151.030886 272.935346 
L 151.030886 273.029708 
L 151.030886 273.219598 
L 153.788905 273.219598 
L 153.788905 273.313961 
L 151.717091 273.409489 
L 149.658474 273.029708 
L 149.658474 272.935346 
L 151.030886 272.935346 
L 152.416494 273.219598 
L 153.788905 273.219598 
L 147.58666 273.219598 
L 148.972268 273.125236 
L 151.717091 272.840983 
L 151.717091 272.935346 
L 149.658474 272.840983 
L 149.658474 272.935346 
L 149.658474 272.745456 
L 146.900454 272.840983 
L 146.900454 272.651093 
L 147.58666 272.556731 
L 147.58666 272.651093 
L 148.972268 272.745456 
L 151.030886 272.556731 
L 151.030886 272.36684 
L 150.34468 272.556731 
L 151.717091 272.461203 
L 151.717091 272.17695 
L 150.34468 271.892698 
L 148.272866 271.892698 
L 148.272866 271.988225 
L 148.272866 272.082588 
L 148.972268 272.272478 
L 148.972268 272.556731 
L 150.34468 272.082588 
L 149.658474 271.988225 
L 151.030886 272.17695 
L 157.233131 272.36684 
L 162.74917 272.461203 
L 163.435376 272.272478 
L 165.50719 272.17695 
L 175.853063 273.313961 
L 181.369102 273.598214 
L 184.113925 273.882466 
L 184.813328 274.166719 
L 184.113925 274.546499 
L 184.813328 275.019477 
L 186.871945 275.49362 
L 188.257553 275.967763 
L 188.257553 276.346378 
L 187.571347 276.536268 
L 188.257553 276.914883 
L 188.257553 277.578916 
L 186.871945 278.051894 
L 186.185739 278.147422 
L 186.185739 278.051894 
L 182.741514 278.336147 
L 182.741514 278.810289 
L 184.113925 279.852938 
L 184.813328 280.13719 
L 188.943759 280.610168 
L 191.015573 280.989948 
L 191.701779 281.464091 
L 191.015573 281.748344 
L 189.629965 281.748344 
L 191.701779 281.937069 
L 194.459798 282.316849 
L 193.087387 283.358332 
L 193.773592 283.548222 
L 195.146004 283.642585 
L 195.83221 283.926838 
L 195.83221 283.832475 
L 195.83221 283.642585 
L 195.146004 283.642585 
L 193.773592 283.832475 
L 188.257553 285.159376 
L 188.257553 285.253739 
L 186.185739 285.349266 
L 186.185739 285.443629 
L 188.257553 285.633519 
L 187.571347 285.917771 
L 187.571347 285.917771 
L 188.943759 286.012134 
L 187.571347 286.296387 
L 188.943759 286.486277 
L 191.015573 286.580639 
L 191.015573 286.580639 
L 188.943759 286.770529 
L 188.257553 287.149145 
L 187.571347 287.433397 
L 188.943759 287.433397 
L 190.329367 287.243507 
L 190.329367 287.054782 
L 185.499533 286.580639 
L 186.185739 286.486277 
L 186.871945 286.675002 
L 186.871945 286.675002 
L 186.871945 286.864892 
L 185.499533 287.149145 
L 185.499533 287.054782 
L 185.499533 287.054782 
L 184.113925 287.52776 
L 184.113925 287.71765 
L 184.113925 287.433397 
L 184.113925 287.52776 
L 184.813328 287.623288 
L 184.113925 287.71765 
L 183.42772 287.623288 
L 182.741514 287.339035 
L 182.741514 287.339035 
L 182.055308 287.623288 
L 179.983494 288.096265 
L 179.983494 288.096265 
L 179.983494 288.570408 
L 179.297288 288.570408 
L 179.983494 288.191793 
L 180.6697 288.001903 
L 179.297288 287.90754 
L 177.91168 288.096265 
L 178.611082 288.380518 
L 181.369102 288.476046 
L 182.055308 288.380518 
L 182.055308 288.096265 
L 182.055308 288.286155 
L 181.369102 288.570408 
L 180.6697 288.664771 
L 179.983494 288.570408 
L 180.6697 288.570408 
L 184.113925 288.476046 
L 183.42772 288.476046 
L 183.42772 288.286155 
L 182.741514 288.096265 
L 181.369102 288.191793 
L 178.611082 288.949023 
L 177.225474 288.949023 
L 177.91168 288.854661 
L 177.91168 288.664771 
L 178.611082 288.476046 
L 177.225474 288.476046 
L 178.611082 288.570408 
L 180.6697 288.854661 
L 182.055308 288.664771 
L 182.055308 288.286155 
L 180.6697 288.191793 
L 176.539268 288.854661 
L 177.225474 289.138914 
L 180.6697 289.138914 
L 179.983494 289.233276 
L 179.297288 289.517529 
L 179.297288 289.707419 
L 179.297288 289.613056 
L 181.369102 289.517529 
L 181.369102 289.328804 
L 180.6697 289.423166 
L 180.6697 289.613056 
L 181.369102 289.707419 
L 180.6697 289.517529 
L 180.6697 289.423166 
L 179.983494 289.517529 
L 179.983494 289.707419 
L 179.983494 289.613056 
L 179.297288 289.233276 
L 176.539268 289.138914 
L 177.225474 289.233276 
L 177.91168 289.613056 
L 177.91168 289.423166 
L 179.297288 289.328804 
L 179.983494 289.517529 
L 179.983494 289.897309 
L 179.983494 289.423166 
L 182.055308 289.328804 
L 182.055308 289.423166 
L 177.91168 289.613056 
L 177.225474 289.802946 
L 178.611082 289.991672 
L 182.055308 289.897309 
L 182.055308 289.613056 
L 182.055308 289.613056 
L 180.6697 289.613056 
L 177.225474 289.897309 
L 178.611082 289.707419 
L 177.91168 289.707419 
L 176.539268 289.991672 
L 177.225474 290.371452 
L 177.91168 290.465814 
L 178.611082 290.275924 
L 177.91168 290.275924 
L 179.297288 290.275924 
L 179.297288 290.181562 
L 177.91168 290.087199 
L 178.611082 290.087199 
L 177.225474 289.613056 
L 176.539268 289.613056 
L 174.467455 289.802946 
L 173.095043 290.087199 
L 175.853063 290.371452 
L 175.853063 290.275924 
L 173.781249 290.087199 
L 174.467455 289.897309 
L 174.467455 289.517529 
L 173.781249 288.854661 
L 167.579004 287.433397 
L 165.50719 286.580639 
L 164.820984 285.633519 
L 163.435376 284.685233 
L 159.304945 283.642585 
L 155.860719 282.221322 
L 152.416494 280.325915 
L 149.658474 278.336147 
L 148.272866 276.252015 
L 148.972268 274.356609 
L 153.102699 270.471434 
L 153.102699 268.10305 
L 149.658474 265.733501 
L 146.900454 263.45948 
L 145.514846 261.279821 
L 142.756827 258.911437 
L 137.253983 256.257635 
L 130.352336 253.603834 
L 126.908111 250.951197 
L 124.836297 248.487285 
L 121.392071 246.403154 
L 116.562238 244.41222 
L 113.118012 242.706704 
L 110.359993 241.001188 
L 106.915767 239.390035 
L 102.785336 237.874409 
L 99.34111 236.453145 
L 95.883688 235.220607 
L 91.753257 234.083596 
L 89.681443 233.042113 
L 88.995237 232.189355 
L 88.995237 231.43096 
L 86.237218 229.819806 
L 86.237218 229.251301 
L 85.551012 228.588433 
L 85.551012 227.830037 
L 86.923424 227.9244 
L 86.923424 228.682795 
L 92.439463 229.441191 
L 93.138865 229.914169 
L 91.753257 230.766927 
L 92.439463 231.051179 
L 93.825071 231.336597 
L 93.825071 232.093828 
L 92.439463 233.136476 
L 92.439463 233.420728 
L 93.825071 233.420728 
L 94.511277 233.704981 
L 91.753257 233.799344 
L 91.067051 233.704981 
L 93.825071 233.610618 
L 92.439463 233.894871 
L 91.067051 233.799344 
L 91.753257 233.610618 
L 93.138865 233.420728 
L 90.380845 233.515091 
L 95.883688 233.230838 
L 95.883688 233.420728 
L 95.197483 233.704981 
L 94.511277 233.799344 
L 94.511277 233.610618 
L 95.883688 233.704981 
L 97.269296 234.273486 
L 97.955502 234.367849 
L 99.34111 233.989234 
L 98.641708 234.083596 
L 95.883688 234.367849 
L 97.269296 234.463377 
L 100.027316 235.316135 
L 97.955502 235.220607 
L 95.883688 234.936354 
L 95.883688 235.031882 
L 95.883688 235.316135 
L 99.34111 235.316135 
L 97.269296 235.410497 
L 98.641708 235.69475 
L 96.583091 235.410497 
L 95.197483 235.410497 
L 95.197483 235.50486 
L 95.197483 235.600387 
L 100.027316 235.69475 
L 99.34111 235.979002 
L 96.583091 235.979002 
L 96.583091 235.88464 
L 97.955502 235.790277 
L 98.641708 235.979002 
L 98.641708 236.168893 
L 98.641708 236.07453 
L 97.955502 235.69475 
L 94.511277 236.07453 
L 95.883688 236.453145 
L 95.883688 236.643035 
L 97.269296 236.547508 
L 95.197483 236.643035 
L 95.197483 236.927288 
L 95.883688 236.927288 
L 97.269296 236.358783 
L 96.583091 236.358783 
L 96.583091 236.453145 
L 97.955502 236.643035 
L 95.197483 236.358783 
L 95.197483 236.453145 
L 95.883688 236.643035 
L 94.511277 236.737398 
L 91.753257 236.453145 
L 91.067051 236.358783 
L 93.825071 236.643035 
L 95.197483 236.737398 
L 93.825071 236.737398 
L 94.511277 237.116013 
L 95.197483 237.305903 
L 93.138865 237.495793 
L 92.439463 237.400266 
L 94.511277 237.590156 
L 96.583091 237.495793 
L 95.883688 237.305903 
L 95.883688 236.831761 
L 94.511277 236.737398 
L 93.138865 236.831761 
L 92.439463 237.116013 
L 93.825071 237.495793 
L 95.883688 237.495793 
L 95.883688 237.211541 
L 94.511277 237.211541 
L 95.197483 236.927288 
L 93.825071 237.116013 
L 96.583091 237.495793 
L 96.583091 237.874409 
L 96.583091 237.780046 
L 97.269296 237.780046 
L 95.883688 237.780046 
L 96.583091 237.684519 
L 97.955502 237.305903 
L 99.34111 237.400266 
L 96.583091 237.684519 
L 95.197483 237.780046 
L 93.825071 237.684519 
L 97.955502 238.158661 
L 96.583091 237.874409 
L 96.583091 237.590156 
L 97.955502 237.495793 
L 101.399728 237.684519 
L 102.785336 237.684519 
L 100.027316 237.684519 
L 99.34111 237.874409 
L 99.34111 238.158661 
L 100.027316 238.158661 
L 100.713522 237.874409 
L 100.713522 237.590156 
L 98.641708 237.684519 
L 97.955502 237.968771 
L 99.34111 238.064299 
L 97.955502 238.064299 
L 96.583091 238.253024 
L 96.583091 238.158661 
L 97.269296 237.874409 
L 97.269296 237.874409 
L 98.641708 237.968771 
L 100.713522 237.968771 
L 100.713522 237.874409 
L 99.34111 237.684519 
L 97.955502 237.684519 
L 95.883688 238.064299 
L 93.825071 238.158661 
L 95.197483 238.442914 
L 92.439463 237.968771 
L 92.439463 238.158661 
L 96.583091 238.632804 
L 96.583091 238.348551 
L 95.883688 238.348551 
L 91.067051 238.064299 
L 91.753257 237.968771 
L 94.511277 238.064299 
L 95.197483 238.348551 
L 95.197483 238.348551 
L 93.825071 238.158661 
L 91.753257 238.158661 
L 92.439463 238.348551 
L 93.138865 238.348551 
L 88.995237 238.253024 
L 88.309031 238.537277 
L 89.681443 238.537277 
L 91.067051 238.348551 
L 91.753257 237.968771 
L 91.753257 237.684519 
L 91.067051 237.590156 
L 93.138865 237.780046 
L 92.439463 238.064299 
L 91.067051 238.348551 
L 89.681443 238.348551 
L 88.995237 238.158661 
L 89.681443 237.968771 
L 90.380845 237.968771 
L 88.995237 238.064299 
L 86.923424 238.158661 
L 86.237218 238.348551 
L 87.622826 238.253024 
L 89.681443 238.253024 
L 91.067051 238.537277 
L 91.067051 238.537277 
L 91.067051 238.348551 
L 91.753257 238.158661 
L 88.995237 237.968771 
L 88.309031 238.064299 
L 91.067051 238.158661 
L 90.380845 237.874409 
L 91.067051 237.874409 
L 91.067051 238.064299 
L 86.923424 238.442914 
L 86.923424 238.348551 
L 87.622826 238.064299 
L 88.309031 237.968771 
L 88.309031 238.158661 
L 86.923424 238.442914 
L 84.864806 238.537277 
L 83.479198 238.442914 
L 84.864806 238.253024 
L 84.864806 238.442914 
L 85.551012 238.821529 
L 85.551012 238.727167 
L 86.237218 238.632804 
L 88.309031 238.632804 
L 86.923424 238.727167 
L 84.165404 239.011419 
L 84.165404 239.011419 
L 83.479198 238.917057 
L 84.864806 238.632804 
L 85.551012 238.537277 
L 85.551012 238.632804 
L 86.237218 238.632804 
L 86.237218 238.727167 
L 86.923424 238.917057 
L 87.622826 238.917057 
L 86.237218 238.442914 
L 86.237218 238.442914 
L 86.237218 238.348551 
L 86.237218 238.348551 
L 85.551012 238.442914 
L 85.551012 238.632804 
L 86.237218 238.727167 
L 86.237218 238.632804 
L 86.923424 238.442914 
L 87.622826 238.442914 
L 87.622826 238.537277 
L 89.681443 238.917057 
L 90.380845 239.20131 
L 94.511277 239.20131 
L 93.138865 239.390035 
L 90.380845 239.485562 
L 86.237218 239.390035 
L 86.923424 239.485562 
L 86.923424 239.390035 
L 87.622826 239.20131 
L 84.864806 238.821529 
L 82.792992 239.105782 
L 82.792992 239.295672 
L 83.479198 239.579925 
L 84.864806 239.769815 
L 84.165404 239.769815 
L 84.165404 239.390035 
L 85.551012 239.105782 
L 87.622826 239.105782 
L 86.923424 239.295672 
L 84.165404 239.390035 
L 86.923424 239.390035 
L 91.067051 239.769815 
L 92.439463 239.295672 
L 92.439463 239.295672 
L 87.622826 239.390035 
L 89.681443 239.295672 
L 91.067051 239.011419 
L 91.067051 239.20131 
L 90.380845 239.579925 
L 89.681443 239.674287 
L 88.309031 239.579925 
L 87.622826 239.390035 
L 86.923424 239.485562 
L 86.923424 239.485562 
L 85.551012 239.390035 
L 89.681443 239.674287 
L 82.792992 239.579925 
L 82.792992 239.579925 
L 85.551012 239.295672 
L 85.551012 239.295672 
L 85.551012 239.579925 
L 82.792992 239.295672 
L 80.721178 239.295672 
L 85.551012 239.295672 
L 85.551012 239.485562 
L 84.165404 239.390035 
L 83.479198 239.20131 
L 83.479198 239.011419 
L 84.165404 238.917057 
L 82.792992 238.632804 
L 82.792992 238.632804 
L 82.106786 238.821529 
L 82.106786 239.011419 
L 83.479198 239.295672 
L 84.864806 239.20131 
L 84.864806 239.011419 
L 84.165404 238.917057 
L 81.42058 238.348551 
L 80.034972 238.727167 
L 81.42058 238.727167 
L 82.106786 238.537277 
L 82.106786 238.537277 
L 77.963159 238.537277 
L 78.662561 238.632804 
L 77.963159 238.821529 
L 78.662561 238.821529 
L 77.963159 238.537277 
L 75.205139 238.158661 
L 75.904541 238.158661 
L 75.904541 237.968771 
L 75.904541 238.158661 
L 75.205139 238.348551 
L 75.904541 238.253024 
L 76.590747 238.253024 
L 76.590747 238.442914 
L 75.904541 238.537277 
L 75.904541 237.684519 
L 76.590747 237.590156 
L 77.276953 237.874409 
L 77.276953 238.158661 
L 76.590747 238.348551 
L 75.205139 238.064299 
L 75.205139 238.064299 
L 77.276953 237.968771 
L 76.590747 238.158661 
L 73.832727 238.253024 
L 73.832727 238.158661 
L 73.832727 238.253024 
L 74.518933 238.348551 
L 75.904541 238.348551 
L 74.518933 237.968771 
L 76.590747 237.874409 
L 80.721178 238.348551 
L 80.721178 238.158661 
L 80.721178 238.158661 
L 77.963159 238.158661 
L 77.276953 238.348551 
L 77.963159 238.442914 
L 77.963159 238.253024 
L 76.590747 238.158661 
L 76.590747 238.253024 
L 76.590747 238.348551 
L 76.590747 238.158661 
L 75.904541 237.874409 
L 75.904541 237.968771 
L 79.348767 238.348551 
L 82.106786 238.537277 
L 82.106786 238.537277 
L 82.106786 238.348551 
L 82.792992 238.158661 
L 84.165404 238.064299 
L 80.034972 238.253024 
L 79.348767 238.158661 
L 81.42058 237.968771 
L 82.106786 238.064299 
L 80.721178 238.632804 
L 80.721178 238.821529 
L 80.721178 238.821529 
L 82.106786 239.011419 
L 83.479198 238.727167 
L 83.479198 238.537277 
L 81.42058 237.968771 
L 80.034972 237.968771 
L 80.721178 238.064299 
L 82.106786 238.253024 
L 82.106786 238.917057 
L 82.792992 239.011419 
L 84.864806 238.632804 
L 84.165404 238.727167 
L 84.165404 238.632804 
L 81.42058 238.348551 
L 83.479198 238.442914 
L 85.551012 238.348551 
L 83.479198 238.442914 
L 82.792992 238.821529 
L 82.106786 238.727167 
L 78.662561 238.727167 
L 81.42058 238.632804 
L 82.792992 238.442914 
L 82.792992 238.442914 
L 80.721178 238.442914 
L 82.106786 238.348551 
L 80.721178 238.253024 
L 76.590747 238.348551 
L 77.963159 238.253024 
L 78.662561 238.064299 
L 81.42058 237.968771 
L 84.864806 238.727167 
L 88.995237 239.295672 
L 96.583091 239.579925 
L 115.876032 239.674287 
L 126.908111 239.95854 
L 139.998807 240.432683 
L 155.860719 240.812463 
L 169.650817 241.380968 
L 181.369102 242.043836 
L 194.459798 242.612342 
L 225.48422 243.559462 
L 250.979407 244.507748 
L 260.625878 244.792001 
L 269.599339 245.266143 
L 287.519869 246.687407 
L 302.682379 248.10867 
L 313.015055 250.192801 
L 313.015055 250.856834 
L 312.32885 251.23545 
L 311.642644 251.42534 
L 311.642644 251.709592 
L 310.257036 252.088208 
L 308.884624 252.751076 
L 308.884624 253.319581 
L 310.956438 253.793724 
L 311.642644 254.077976 
L 310.257036 254.457757 
L 305.440398 255.120625 
L 306.81281 255.214987 
L 309.57083 255.120625 
L 310.956438 255.310515 
L 312.32885 256.257635 
L 312.32885 256.163273 
L 311.642644 256.163273 
L 311.642644 256.351998 
L 312.32885 256.636251 
L 311.642644 256.826141 
L 310.257036 257.016031 
L 312.32885 257.204756 
L 313.714458 257.300283 
L 314.400663 257.489009 
L 314.400663 257.678899 
L 313.714458 257.963151 
L 311.642644 257.868789 
L 310.257036 257.584536 
L 310.956438 257.584536 
L 310.956438 257.868789 
L 310.257036 258.247404 
L 308.884624 258.531657 
L 309.57083 258.721547 
L 310.956438 258.437294 
L 307.499016 258.342932 
L 307.499016 258.342932 
L 308.198418 258.627184 
L 309.57083 258.815909 
L 308.884624 258.815909 
L 306.126604 258.911437 
L 303.368585 259.19569 
L 303.368585 259.290052 
L 304.740996 259.290052 
L 307.499016 259.574305 
L 307.499016 259.384415 
L 310.257036 259.668667 
L 308.884624 259.764195 
L 307.499016 259.668667 
L 307.499016 259.479942 
L 310.956438 259.574305 
L 306.81281 260.048448 
L 306.81281 260.237173 
L 305.440398 260.3327 
L 304.054791 260.237173 
L 305.440398 259.95292 
L 306.126604 259.95292 
L 303.368585 260.048448 
L 303.368585 260.048448 
L 298.538751 260.14281 
L 297.852545 260.427063 
L 301.996173 260.427063 
L 303.368585 260.14281 
L 303.368585 259.95292 
L 296.480134 260.048448 
L 300.610565 260.521425 
L 301.296771 260.805678 
L 301.296771 260.995568 
L 301.296771 260.995568 
L 299.924359 261.185458 
L 299.924359 261.089931 
L 298.538751 260.995568 
L 297.852545 260.711316 
L 298.538751 260.616953 
L 300.610565 260.901206 
L 302.682379 260.995568 
L 301.996173 260.901206 
L 297.166339 260.521425 
L 302.682379 260.901206 
L 300.610565 260.711316 
L 301.296771 260.521425 
L 301.296771 260.616953 
L 304.054791 260.901206 
L 303.368585 260.995568 
L 301.996173 261.089931 
L 299.238153 261.279821 
L 295.780732 261.089931 
L 295.780732 260.901206 
L 296.480134 260.995568 
L 298.538751 261.089931 
L 298.538751 261.185458 
L 301.996173 260.711316 
L 301.296771 260.901206 
L 298.538751 261.279821 
L 295.780732 261.469711 
L 295.094526 261.374184 
L 296.480134 261.279821 
L 297.166339 261.469711 
L 297.166339 261.658436 
L 297.166339 261.469711 
L 297.852545 261.185458 
L 298.538751 260.995568 
L 297.852545 261.089931 
L 295.780732 261.185458 
L 293.022712 261.185458 
L 292.336506 260.995568 
L 296.480134 261.279821 
L 296.480134 261.469711 
L 295.094526 261.374184 
L 294.40832 261.469711 
L 294.40832 261.374184 
L 295.094526 261.089931 
L 297.166339 261.185458 
L 297.166339 261.469711 
L 295.094526 261.658436 
L 293.022712 261.564074 
L 293.022712 261.279821 
L 295.780732 260.901206 
L 295.780732 260.711316 
L 295.094526 260.14281 
L 291.6503 258.342932 
L 290.277888 256.920503 
L 290.964094 255.214987 
L 289.578486 250.856834 
L 290.277888 248.392923 
L 288.89228 242.990957 
L 289.578486 239.864177 
L 291.6503 236.453145 
L 295.094526 233.042113 
L 304.054791 229.819806 
L 317.844889 226.977279 
L 350.241723 222.049456 
L 366.789841 218.922677 
L 380.566743 215.416117 
L 389.527008 211.43658 
L 396.428655 206.982899 
L 398.487273 202.150604 
L 394.356841 197.128418 
L 389.527008 192.010705 
L 380.566743 176.470005 
L 373.678292 171.921962 
L 367.476047 167.658172 
L 365.404233 163.86736 
L 370.920272 151.264714 
L 370.234066 148.232297 
L 364.718027 144.915628 
L 354.372154 141.598958 
L 342.65387 138.187926 
L 333.007399 134.587004 
L 324.73334 130.796191 
L 315.773075 127.195269 
L 308.198418 123.879764 
L 300.610565 120.75182 
L 293.722114 117.62504 
L 286.134261 114.498261 
L 280.618221 111.465844 
L 275.102182 105.875153 
L 270.971751 103.221351 
L 266.841319 100.758605 
L 266.141917 98.389056 
L 268.213731 91.377101 
L 268.213731 89.481695 
L 268.899937 87.491926 
L 273.043565 85.40663 
L 279.24581 83.512389 
L 282.690035 81.805708 
L 285.448055 78.490203 
L 288.89228 76.973412 
L 293.022712 75.552149 
L 297.166339 74.320776 
L 298.538751 73.088237 
L 299.238153 71.856864 
L 300.610565 70.624326 
L 305.440398 68.72892 
L 304.740996 68.066052 
L 303.368585 67.118931 
L 303.368585 64.465129 
L 302.682379 63.138229 
L 302.682379 62.001218 
L 304.740996 61.054097 
L 307.499016 60.201339 
L 310.257036 59.158691 
L 313.714458 58.116043 
L 315.086869 57.168922 
L 316.459281 55.937549 
L 316.459281 55.367879 
L 315.773075 54.799373 
L 316.459281 54.326395 
L 317.844889 54.136505 
L 319.217301 54.230868 
L 319.217301 54.042143 
L 318.531095 53.568 
L 312.32885 55.367879 
L 308.198418 56.979032 
L 306.81281 57.927318 
L 306.126604 59.158691 
L 304.740996 60.391229 
L 305.440398 61.243987 
L 308.198418 62.949503 
L 308.884624 63.612371 
L 308.884624 64.275239 
L 310.257036 65.697668 
L 311.642644 66.454898 
L 310.956438 66.929041 
L 308.198418 67.213294 
L 307.499016 67.403184 
L 309.57083 67.403184 
L 310.956438 67.023403 
L 310.257036 66.929041 
L 310.257036 67.403184 
L 311.642644 67.876162 
L 313.714458 67.876162 
L 317.158683 67.497546 
L 317.844889 67.307656 
L 316.459281 67.307656 
L 314.400663 67.591909 
L 314.400663 67.876162 
L 313.714458 67.971689 
L 311.642644 67.971689 
L 312.32885 68.255942 
L 313.714458 68.540194 
L 313.714458 69.013172 
L 311.642644 69.29859 
L 311.642644 69.29859 
L 313.714458 69.29859 
L 312.32885 69.392952 
L 310.956438 69.487315 
L 310.956438 69.677205 
L 317.158683 70.245711 
L 316.459281 70.529963 
L 316.459281 70.908578 
L 314.400663 70.814216 
L 316.459281 71.004106 
L 318.531095 71.192831 
L 309.57083 71.192831 
L 310.956438 71.477084 
L 315.086869 71.572611 
L 314.400663 71.572611 
L 314.400663 71.761336 
L 315.086869 71.951227 
L 314.400663 72.141117 
L 312.32885 72.235479 
L 313.015055 72.329842 
L 317.158683 72.235479 
L 315.773075 72.519732 
L 313.015055 72.898347 
L 313.015055 72.709622 
L 310.257036 72.709622 
L 310.956438 72.803985 
L 315.086869 73.278127 
L 315.086869 73.466853 
L 311.642644 73.75227 
L 311.642644 73.1826 
L 316.459281 73.466853 
L 316.459281 73.37249 
L 317.158683 73.37249 
L 317.158683 73.56238 
L 316.459281 74.036523 
L 315.773075 73.940995 
L 315.773075 73.75227 
L 317.158683 73.846633 
L 319.217301 74.130885 
L 318.531095 74.225248 
L 315.773075 74.415138 
L 315.773075 74.509501 
L 313.015055 74.225248 
L 315.086869 74.415138 
L 316.459281 74.415138 
L 316.459281 74.509501 
L 315.773075 74.793753 
L 316.459281 74.793753 
L 317.158683 74.605028 
L 316.459281 74.509501 
L 317.158683 74.605028 
L 316.459281 74.699391 
L 315.086869 74.699391 
L 315.773075 74.793753 
L 316.459281 75.173534 
L 315.773075 75.362259 
L 317.844889 74.889281 
L 317.158683 75.078006 
L 316.459281 75.362259 
L 315.773075 75.552149 
L 315.773075 75.362259 
L 315.773075 75.173534 
L 316.459281 75.173534 
L 316.459281 75.362259 
L 316.459281 75.267896 
L 317.844889 74.983643 
L 319.217301 74.889281 
L 318.531095 74.889281 
L 316.459281 74.983643 
L 316.459281 75.457786 
L 317.158683 76.120654 
L 317.844889 76.310544 
L 317.844889 75.836402 
L 318.531095 75.930764 
L 318.531095 76.215017 
L 317.158683 76.404907 
L 317.158683 76.404907 
L 317.844889 76.499269 
L 316.459281 76.68916 
L 317.158683 76.594797 
L 317.158683 76.310544 
L 317.844889 76.026292 
L 319.217301 75.930764 
L 320.602909 76.120654 
L 320.602909 76.499269 
L 321.289114 76.499269 
L 319.916703 76.499269 
L 316.459281 76.87905 
L 315.773075 76.783522 
L 316.459281 76.783522 
L 319.217301 76.594797 
L 316.459281 76.87905 
L 321.289114 76.87905 
L 316.459281 76.87905 
L 317.158683 76.68916 
L 316.459281 76.499269 
L 315.773075 76.594797 
L 316.459281 76.973412 
L 317.844889 77.163302 
L 319.217301 77.067775 
L 319.916703 77.163302 
L 319.217301 77.257665 
L 319.217301 77.163302 
L 321.289114 77.163302 
L 321.97532 77.352028 
L 320.602909 77.447555 
L 315.773075 77.352028 
L 318.531095 77.541918 
L 319.916703 77.731808 
L 319.217301 77.920533 
L 318.531095 77.82617 
L 319.217301 77.63628 
L 320.602909 77.63628 
L 319.916703 77.731808 
L 319.916703 77.352028 
L 321.289114 77.257665 
L 323.360928 77.731808 
L 324.73334 77.82617 
L 325.432742 78.110423 
L 325.432742 78.300313 
L 326.118948 78.490203 
L 333.007399 81.427093 
L 334.393007 82.658466 
L 335.079213 84.175257 
L 335.079213 85.690883 
L 334.393007 87.491926 
L 331.634987 91.092849 
L 328.876968 92.704002 
L 324.73334 94.313991 
L 321.97532 96.019507 
L 319.916703 97.914913 
L 319.217301 100.378825 
L 319.916703 102.937099 
L 322.674722 105.306648 
L 324.73334 107.770559 
L 326.118948 110.423196 
L 326.805154 113.265723 
L 328.177565 116.109414 
L 332.321193 118.951941 
L 337.837232 121.984358 
L 343.353272 125.301028 
L 347.483703 128.617697 
L 348.856115 131.460224 
L 348.169909 133.924136 
L 346.111291 136.386882 
L 342.65387 138.662069 
L 335.765419 140.7462 
L 327.49136 142.547244 
L 318.531095 144.157232 
L 301.996173 146.621144 
L 293.722114 148.422187 
L 285.448055 150.886099 
L 279.24581 153.822988 
L 275.801584 156.949768 
L 277.860202 160.077712 
L 284.062447 163.393217 
L 289.578486 166.899776 
L 290.277888 170.310809 
L 285.448055 173.248863 
L 279.24581 175.712774 
L 272.344162 177.796906 
L 266.141917 180.070927 
L 263.383898 182.630366 
L 262.011486 188.12553 
L 262.011486 190.589441 
L 262.697692 192.863463 
L 262.697692 195.422902 
L 262.011486 198.169901 
L 259.253466 200.633813 
L 257.181652 203.003362 
L 253.051221 207.267152 
L 248.907593 209.256921 
L 240.646731 212.289338 
L 237.888711 213.521876 
L 235.130691 215.037502 
L 233.058877 216.743018 
L 231.686466 218.448534 
L 230.987064 219.965325 
L 229.614652 221.480951 
L 229.614652 224.513368 
L 228.928446 225.744741 
L 231.686466 228.019927 
L 231.686466 229.251301 
L 232.372672 230.578202 
L 239.261123 233.230838 
L 240.646731 234.463377 
L 242.019142 236.547508 
L 243.40475 237.684519 
L 248.221387 239.579925 
L 248.221387 240.243958 
L 246.848976 241.001188 
L 246.848976 241.949474 
L 251.665613 243.180847 
L 255.809241 243.65499 
L 257.181652 243.749352 
L 257.181652 243.939242 
L 259.253466 244.41222 
L 259.253466 244.60211 
L 259.939672 244.981891 
L 262.697692 245.360506 
L 264.0833 245.739121 
L 264.0833 246.307627 
L 263.383898 246.971659 
L 263.383898 247.634527 
L 264.0833 248.10867 
L 266.141917 248.392923 
L 266.841319 248.771538 
L 266.841319 249.814186 
L 265.455711 250.572582 
L 261.32528 252.18257 
L 262.011486 252.656713 
L 268.899937 253.319581 
L 270.971751 253.889251 
L 270.285545 254.457757 
L 269.599339 254.646482 
L 268.213731 254.836372 
L 268.213731 255.310515 
L 268.899937 255.783492 
L 275.102182 256.541888 
L 275.801584 256.920503 
L 273.043565 257.584536 
L 273.043565 257.963151 
L 273.72977 258.057514 
L 273.72977 258.342932 
L 273.043565 258.911437 
L 273.72977 259.100162 
L 275.102182 259.19569 
L 273.72977 259.479942 
L 275.102182 259.764195 
L 274.415976 259.858558 
L 274.415976 260.048448 
L 270.285545 260.521425 
L 270.971751 260.616953 
L 272.344162 260.711316 
L 273.72977 260.521425 
L 275.801584 260.711316 
L 276.48779 261.089931 
L 275.801584 261.469711 
L 273.043565 261.753964 
L 272.344162 262.038216 
L 273.043565 262.322469 
L 273.72977 262.416832 
L 273.043565 262.511194 
L 273.043565 262.890974 
L 275.801584 263.45948 
L 276.48779 263.743732 
L 273.72977 263.838095 
L 275.102182 263.933623 
L 272.344162 264.786381 
L 271.657957 265.259358 
L 272.344162 265.449249 
L 275.102182 265.354886 
L 275.801584 265.449249 
L 275.801584 265.259358 
L 275.102182 265.259358 
L 273.043565 265.449249 
L 271.657957 265.449249 
L 273.72977 265.543611 
L 277.860202 266.017754 
L 278.559604 265.923391 
L 277.860202 265.923391 
L 275.102182 266.207644 
L 278.559604 266.680622 
L 278.559604 267.250292 
L 277.860202 267.628907 
L 276.48779 267.72327 
L 277.173996 267.72327 
L 279.24581 267.91316 
L 279.932016 268.291775 
L 276.48779 268.671556 
L 275.102182 268.481665 
L 276.48779 268.765918 
L 277.860202 269.050171 
L 277.860202 268.860281 
L 276.48779 268.387303 
L 275.102182 268.671556 
L 275.102182 268.860281 
L 275.801584 268.860281 
L 277.173996 269.050171 
L 276.48779 269.240061 
L 275.801584 269.240061 
L 274.415976 269.428786 
L 274.415976 269.713039 
L 276.48779 269.618676 
L 276.48779 269.524314 
L 275.102182 269.618676 
L 275.102182 269.808566 
L 275.801584 269.808566 
L 274.415976 269.808566 
L 270.971751 270.377072 
L 274.415976 270.661324 
L 280.618221 270.755687 
L 279.932016 270.661324 
L 277.860202 270.661324 
L 276.48779 271.03994 
L 276.48779 271.514082 
L 275.102182 271.418555 
L 277.173996 271.703972 
L 277.173996 271.892698 
L 276.48779 272.082588 
L 277.173996 272.17695 
L 279.24581 272.17695 
L 277.860202 272.17695 
L 278.559604 272.36684 
L 281.317624 272.461203 
L 282.003829 272.461203 
L 280.618221 272.556731 
L 281.317624 272.745456 
L 283.376241 273.029708 
L 282.690035 272.840983 
L 281.317624 272.36684 
L 277.860202 272.840983 
L 277.860202 273.313961 
L 280.618221 273.503851 
L 280.618221 272.935346 
L 280.618221 273.503851 
L 282.003829 273.788104 
L 284.062447 273.693741 
L 284.062447 273.409489 
L 284.761849 273.409489 
L 284.761849 273.598214 
L 284.062447 273.693741 
L 284.062447 273.882466 
L 284.062447 273.882466 
L 285.448055 273.977994 
L 291.6503 273.882466 
L 291.6503 273.788104 
L 290.964094 273.788104 
L 291.6503 273.882466 
L 288.206075 274.166719 
L 288.206075 274.356609 
L 288.89228 274.356609 
L 290.964094 273.977994 
L 291.6503 273.788104 
L 290.964094 273.977994 
L 289.578486 274.166719 
L 284.761849 274.166719 
L 284.761849 274.072357 
L 284.761849 273.977994 
L 284.062447 274.072357 
L 284.062447 275.019477 
L 284.761849 275.587982 
L 285.448055 276.346378 
L 286.820467 277.010411 
L 289.578486 277.863169 
L 295.780732 279.473157 
L 295.780732 280.13719 
L 295.094526 280.610168 
L 295.780732 280.895586 
L 296.480134 280.989948 
L 301.296771 282.126959 
L 302.682379 282.885355 
L 304.740996 283.738113 
L 306.126604 283.832475 
L 308.198418 283.738113 
L 308.884624 283.926838 
L 308.884624 285.349266 
L 308.198418 285.633519 
L 309.57083 286.486277 
L 308.884624 286.770529 
L 308.884624 287.433397 
L 306.81281 288.096265 
L 306.81281 288.286155 
L 306.126604 288.380518 
L 303.368585 288.570408 
L 304.740996 288.854661 
L 304.740996 289.328804 
L 304.054791 289.897309 
L 301.296771 290.371452 
L 299.924359 290.750067 
L 299.924359 291.22421 
L 297.852545 291.602825 
L 297.166339 291.887078 
L 297.166339 292.361221 
L 295.780732 292.834198 
L 297.166339 292.739836 
L 297.852545 292.455583 
L 296.480134 292.549946 
L 295.780732 292.929726 
L 296.480134 292.929726 
L 297.166339 292.645473 
L 296.480134 292.834198 
L 295.780732 292.739836 
L 290.964094 292.739836 
L 288.89228 292.929726 
L 288.89228 293.213979 
L 290.277888 293.498231 
L 290.277888 293.498231 
L 288.89228 293.592594 
L 288.206075 293.876846 
L 288.206075 294.161099 
L 288.206075 294.161099 
L 287.519869 294.161099 
L 284.761849 294.635242 
L 284.062447 294.825132 
L 284.761849 294.919495 
L 285.448055 294.825132 
L 285.448055 294.256627 
L 286.134261 293.971209 
L 286.820467 293.971209 
L 283.376241 294.350989 
L 284.062447 294.540879 
L 285.448055 294.825132 
L 283.376241 294.825132 
L 282.690035 294.635242 
L 283.376241 294.445352 
L 284.062447 294.445352 
L 284.062447 294.540879 
L 285.448055 294.729605 
L 286.134261 295.109385 
L 283.376241 294.919495 
L 281.317624 295.393637 
L 281.317624 295.29811 
L 281.317624 295.013857 
L 280.618221 294.919495 
L 278.559604 295.29811 
L 278.559604 295.29811 
L 278.559604 295.488 
L 281.317624 295.393637 
L 281.317624 295.29811 
L 279.24581 295.29811 
L 279.24581 295.29811 
" style="fill:none;stroke:#1f77b4;stroke-linecap:square;stroke-width:1.5;"/>
   </g>
   <g id="matplotlib.axis_1">
    <g id="xtick_1">
     <g id="line2d_2">
      <defs>
       <path d="M 0 0 
L 0 3.5 
" id="m731acdd278" style="stroke:#000000;stroke-width:0.8;"/>
      </defs>
      <g>
       <use style="stroke:#000000;stroke-width:0.8;" x="85.722563" xlink:href="#m731acdd278" y="307.584"/>
      </g>
     </g>
     <g id="text_1">
      <!-- 0 -->
      <defs>
       <path d="M 31.78125 66.40625 
Q 24.171875 66.40625 20.328125 58.90625 
Q 16.5 51.421875 16.5 36.375 
Q 16.5 21.390625 20.328125 13.890625 
Q 24.171875 6.390625 31.78125 6.390625 
Q 39.453125 6.390625 43.28125 13.890625 
Q 47.125 21.390625 47.125 36.375 
Q 47.125 51.421875 43.28125 58.90625 
Q 39.453125 66.40625 31.78125 66.40625 
z
M 31.78125 74.21875 
Q 44.046875 74.21875 50.515625 64.515625 
Q 56.984375 54.828125 56.984375 36.375 
Q 56.984375 17.96875 50.515625 8.265625 
Q 44.046875 -1.421875 31.78125 -1.421875 
Q 19.53125 -1.421875 13.0625 8.265625 
Q 6.59375 17.96875 6.59375 36.375 
Q 6.59375 54.828125 13.0625 64.515625 
Q 19.53125 74.21875 31.78125 74.21875 
z
" id="DejaVuSans-48"/>
      </defs>
      <g transform="translate(82.541313 322.182437)scale(0.1 -0.1)">
       <use xlink:href="#DejaVuSans-48"/>
      </g>
     </g>
    </g>
    <g id="xtick_2">
     <g id="line2d_3">
      <g>
       <use style="stroke:#000000;stroke-width:0.8;" x="151.703895" xlink:href="#m731acdd278" y="307.584"/>
      </g>
     </g>
     <g id="text_2">
      <!-- 50 -->
      <defs>
       <path d="M 10.796875 72.90625 
L 49.515625 72.90625 
L 49.515625 64.59375 
L 19.828125 64.59375 
L 19.828125 46.734375 
Q 21.96875 47.46875 24.109375 47.828125 
Q 26.265625 48.1875 28.421875 48.1875 
Q 40.625 48.1875 47.75 41.5 
Q 54.890625 34.8125 54.890625 23.390625 
Q 54.890625 11.625 47.5625 5.09375 
Q 40.234375 -1.421875 26.90625 -1.421875 
Q 22.3125 -1.421875 17.546875 -0.640625 
Q 12.796875 0.140625 7.71875 1.703125 
L 7.71875 11.625 
Q 12.109375 9.234375 16.796875 8.0625 
Q 21.484375 6.890625 26.703125 6.890625 
Q 35.15625 6.890625 40.078125 11.328125 
Q 45.015625 15.765625 45.015625 23.390625 
Q 45.015625 31 40.078125 35.4375 
Q 35.15625 39.890625 26.703125 39.890625 
Q 22.75 39.890625 18.8125 39.015625 
Q 14.890625 38.140625 10.796875 36.28125 
z
" id="DejaVuSans-53"/>
      </defs>
      <g transform="translate(145.341395 322.182437)scale(0.1 -0.1)">
       <use xlink:href="#DejaVuSans-53"/>
       <use x="63.623047" xlink:href="#DejaVuSans-48"/>
      </g>
     </g>
    </g>
    <g id="xtick_3">
     <g id="line2d_4">
      <g>
       <use style="stroke:#000000;stroke-width:0.8;" x="217.685227" xlink:href="#m731acdd278" y="307.584"/>
      </g>
     </g>
     <g id="text_3">
      <!-- 100 -->
      <defs>
       <path d="M 12.40625 8.296875 
L 28.515625 8.296875 
L 28.515625 63.921875 
L 10.984375 60.40625 
L 10.984375 69.390625 
L 28.421875 72.90625 
L 38.28125 72.90625 
L 38.28125 8.296875 
L 54.390625 8.296875 
L 54.390625 0 
L 12.40625 0 
z
" id="DejaVuSans-49"/>
      </defs>
      <g transform="translate(208.141477 322.182437)scale(0.1 -0.1)">
       <use xlink:href="#DejaVuSans-49"/>
       <use x="63.623047" xlink:href="#DejaVuSans-48"/>
       <use x="127.246094" xlink:href="#DejaVuSans-48"/>
      </g>
     </g>
    </g>
    <g id="xtick_4">
     <g id="line2d_5">
      <g>
       <use style="stroke:#000000;stroke-width:0.8;" x="283.666559" xlink:href="#m731acdd278" y="307.584"/>
      </g>
     </g>
     <g id="text_4">
      <!-- 150 -->
      <g transform="translate(274.122809 322.182437)scale(0.1 -0.1)">
       <use xlink:href="#DejaVuSans-49"/>
       <use x="63.623047" xlink:href="#DejaVuSans-53"/>
       <use x="127.246094" xlink:href="#DejaVuSans-48"/>
      </g>
     </g>
    </g>
    <g id="xtick_5">
     <g id="line2d_6">
      <g>
       <use style="stroke:#000000;stroke-width:0.8;" x="349.647891" xlink:href="#m731acdd278" y="307.584"/>
      </g>
     </g>
     <g id="text_5">
      <!-- 200 -->
      <defs>
       <path d="M 19.1875 8.296875 
L 53.609375 8.296875 
L 53.609375 0 
L 7.328125 0 
L 7.328125 8.296875 
Q 12.9375 14.109375 22.625 23.890625 
Q 32.328125 33.6875 34.8125 36.53125 
Q 39.546875 41.84375 41.421875 45.53125 
Q 43.3125 49.21875 43.3125 52.78125 
Q 43.3125 58.59375 39.234375 62.25 
Q 35.15625 65.921875 28.609375 65.921875 
Q 23.96875 65.921875 18.8125 64.3125 
Q 13.671875 62.703125 7.8125 59.421875 
L 7.8125 69.390625 
Q 13.765625 71.78125 18.9375 73 
Q 24.125 74.21875 28.421875 74.21875 
Q 39.75 74.21875 46.484375 68.546875 
Q 53.21875 62.890625 53.21875 53.421875 
Q 53.21875 48.921875 51.53125 44.890625 
Q 49.859375 40.875 45.40625 35.40625 
Q 44.1875 33.984375 37.640625 27.21875 
Q 31.109375 20.453125 19.1875 8.296875 
z
" id="DejaVuSans-50"/>
      </defs>
      <g transform="translate(340.104141 322.182437)scale(0.1 -0.1)">
       <use xlink:href="#DejaVuSans-50"/>
       <use x="63.623047" xlink:href="#DejaVuSans-48"/>
       <use x="127.246094" xlink:href="#DejaVuSans-48"/>
      </g>
     </g>
    </g>
   </g>
   <g id="matplotlib.axis_2">
    <g id="ytick_1">
     <g id="line2d_7">
      <defs>
       <path d="M 0 0 
L -3.5 0 
" id="ma9c02bbb8b" style="stroke:#000000;stroke-width:0.8;"/>
      </defs>
      <g>
       <use style="stroke:#000000;stroke-width:0.8;" x="57.6" xlink:href="#ma9c02bbb8b" y="264.880743"/>
      </g>
     </g>
     <g id="text_6">
      <!-- 0 -->
      <g transform="translate(44.2375 268.679962)scale(0.1 -0.1)">
       <use xlink:href="#DejaVuSans-48"/>
      </g>
     </g>
    </g>
    <g id="ytick_2">
     <g id="line2d_8">
      <g>
       <use style="stroke:#000000;stroke-width:0.8;" x="57.6" xlink:href="#ma9c02bbb8b" y="206.632243"/>
      </g>
     </g>
     <g id="text_7">
      <!-- 500 -->
      <g transform="translate(31.5125 210.431462)scale(0.1 -0.1)">
       <use xlink:href="#DejaVuSans-53"/>
       <use x="63.623047" xlink:href="#DejaVuSans-48"/>
       <use x="127.246094" xlink:href="#DejaVuSans-48"/>
      </g>
     </g>
    </g>
    <g id="ytick_3">
     <g id="line2d_9">
      <g>
       <use style="stroke:#000000;stroke-width:0.8;" x="57.6" xlink:href="#ma9c02bbb8b" y="148.383743"/>
      </g>
     </g>
     <g id="text_8">
      <!-- 1000 -->
      <g transform="translate(25.15 152.182962)scale(0.1 -0.1)">
       <use xlink:href="#DejaVuSans-49"/>
       <use x="63.623047" xlink:href="#DejaVuSans-48"/>
       <use x="127.246094" xlink:href="#DejaVuSans-48"/>
       <use x="190.869141" xlink:href="#DejaVuSans-48"/>
      </g>
     </g>
    </g>
    <g id="ytick_4">
     <g id="line2d_10">
      <g>
       <use style="stroke:#000000;stroke-width:0.8;" x="57.6" xlink:href="#ma9c02bbb8b" y="90.135243"/>
      </g>
     </g>
     <g id="text_9">
      <!-- 1500 -->
      <g transform="translate(25.15 93.934462)scale(0.1 -0.1)">
       <use xlink:href="#DejaVuSans-49"/>
       <use x="63.623047" xlink:href="#DejaVuSans-53"/>
       <use x="127.246094" xlink:href="#DejaVuSans-48"/>
       <use x="190.869141" xlink:href="#DejaVuSans-48"/>
      </g>
     </g>
    </g>
   </g>
   <g id="line2d_11">
    <path clip-path="url(#p141741d7d4)" d="M 157.622945 273.995976 
L 179.783665 288.261584 
L 92.066287 237.139524 
L 86.45694 238.583403 
L 306.91801 257.111428 
L 313.566462 70.330666 
L 319.425981 77.089149 
L 274.54266 263.37183 
L 284.395038 274.094886 
" style="fill:none;stroke:#ff0000;stroke-linecap:square;stroke-width:0.5;"/>
   </g>
   <g id="patch_3">
    <path d="M 57.6 307.584 
L 57.6 41.472 
" style="fill:none;stroke:#000000;stroke-linecap:square;stroke-linejoin:miter;stroke-width:0.8;"/>
   </g>
   <g id="patch_4">
    <path d="M 414.72 307.584 
L 414.72 41.472 
" style="fill:none;stroke:#000000;stroke-linecap:square;stroke-linejoin:miter;stroke-width:0.8;"/>
   </g>
   <g id="patch_5">
    <path d="M 57.6 307.584 
L 414.72 307.584 
" style="fill:none;stroke:#000000;stroke-linecap:square;stroke-linejoin:miter;stroke-width:0.8;"/>
   </g>
   <g id="patch_6">
    <path d="M 57.6 41.472 
L 414.72 41.472 
" style="fill:none;stroke:#000000;stroke-linecap:square;stroke-linejoin:miter;stroke-width:0.8;"/>
   </g>
   <g id="PathCollection_1">
    <defs>
     <path d="M 0 2.738613 
C 0.726289 2.738613 1.422928 2.450055 1.936492 1.936492 
C 2.450055 1.422928 2.738613 0.726289 2.738613 0 
C 2.738613 -0.726289 2.450055 -1.422928 1.936492 -1.936492 
C 1.422928 -2.450055 0.726289 -2.738613 0 -2.738613 
C -0.726289 -2.738613 -1.422928 -2.450055 -1.936492 -1.936492 
C -2.450055 -1.422928 -2.738613 -0.726289 -2.738613 0 
C -2.738613 0.726289 -2.450055 1.422928 -1.936492 1.936492 
C -1.422928 2.450055 -0.726289 2.738613 0 2.738613 
z
" id="m711c33b53e" style="stroke:#ff0000;"/>
    </defs>
    <g clip-path="url(#p141741d7d4)">
     <use style="fill:#ff0000;stroke:#ff0000;" x="157.622945" xlink:href="#m711c33b53e" y="273.995976"/>
     <use style="fill:#ff0000;stroke:#ff0000;" x="179.783665" xlink:href="#m711c33b53e" y="288.261584"/>
     <use style="fill:#ff0000;stroke:#ff0000;" x="92.066287" xlink:href="#m711c33b53e" y="237.139524"/>
     <use style="fill:#ff0000;stroke:#ff0000;" x="86.45694" xlink:href="#m711c33b53e" y="238.583403"/>
     <use style="fill:#ff0000;stroke:#ff0000;" x="306.91801" xlink:href="#m711c33b53e" y="257.111428"/>
     <use style="fill:#ff0000;stroke:#ff0000;" x="313.566462" xlink:href="#m711c33b53e" y="70.330666"/>
     <use style="fill:#ff0000;stroke:#ff0000;" x="319.425981" xlink:href="#m711c33b53e" y="77.089149"/>
     <use style="fill:#ff0000;stroke:#ff0000;" x="274.54266" xlink:href="#m711c33b53e" y="263.37183"/>
     <use style="fill:#ff0000;stroke:#ff0000;" x="284.395038" xlink:href="#m711c33b53e" y="274.094886"/>
    </g>
   </g>
   <g id="text_10">
    <!-- (14) Subject: s23, Known = False, Degree = 1, Duration = 0.1 -->
    <defs>
     <path d="M 31 75.875 
Q 24.46875 64.65625 21.28125 53.65625 
Q 18.109375 42.671875 18.109375 31.390625 
Q 18.109375 20.125 21.3125 9.0625 
Q 24.515625 -2 31 -13.1875 
L 23.1875 -13.1875 
Q 15.875 -1.703125 12.234375 9.375 
Q 8.59375 20.453125 8.59375 31.390625 
Q 8.59375 42.28125 12.203125 53.3125 
Q 15.828125 64.359375 23.1875 75.875 
z
" id="DejaVuSans-40"/>
     <path d="M 37.796875 64.3125 
L 12.890625 25.390625 
L 37.796875 25.390625 
z
M 35.203125 72.90625 
L 47.609375 72.90625 
L 47.609375 25.390625 
L 58.015625 25.390625 
L 58.015625 17.1875 
L 47.609375 17.1875 
L 47.609375 0 
L 37.796875 0 
L 37.796875 17.1875 
L 4.890625 17.1875 
L 4.890625 26.703125 
z
" id="DejaVuSans-52"/>
     <path d="M 8.015625 75.875 
L 15.828125 75.875 
Q 23.140625 64.359375 26.78125 53.3125 
Q 30.421875 42.28125 30.421875 31.390625 
Q 30.421875 20.453125 26.78125 9.375 
Q 23.140625 -1.703125 15.828125 -13.1875 
L 8.015625 -13.1875 
Q 14.5 -2 17.703125 9.0625 
Q 20.90625 20.125 20.90625 31.390625 
Q 20.90625 42.671875 17.703125 53.65625 
Q 14.5 64.65625 8.015625 75.875 
z
" id="DejaVuSans-41"/>
     <path id="DejaVuSans-32"/>
     <path d="M 53.515625 70.515625 
L 53.515625 60.890625 
Q 47.90625 63.578125 42.921875 64.890625 
Q 37.9375 66.21875 33.296875 66.21875 
Q 25.25 66.21875 20.875 63.09375 
Q 16.5 59.96875 16.5 54.203125 
Q 16.5 49.359375 19.40625 46.890625 
Q 22.3125 44.4375 30.421875 42.921875 
L 36.375 41.703125 
Q 47.40625 39.59375 52.65625 34.296875 
Q 57.90625 29 57.90625 20.125 
Q 57.90625 9.515625 50.796875 4.046875 
Q 43.703125 -1.421875 29.984375 -1.421875 
Q 24.8125 -1.421875 18.96875 -0.25 
Q 13.140625 0.921875 6.890625 3.21875 
L 6.890625 13.375 
Q 12.890625 10.015625 18.65625 8.296875 
Q 24.421875 6.59375 29.984375 6.59375 
Q 38.421875 6.59375 43.015625 9.90625 
Q 47.609375 13.234375 47.609375 19.390625 
Q 47.609375 24.75 44.3125 27.78125 
Q 41.015625 30.8125 33.5 32.328125 
L 27.484375 33.5 
Q 16.453125 35.6875 11.515625 40.375 
Q 6.59375 45.0625 6.59375 53.421875 
Q 6.59375 63.09375 13.40625 68.65625 
Q 20.21875 74.21875 32.171875 74.21875 
Q 37.3125 74.21875 42.625 73.28125 
Q 47.953125 72.359375 53.515625 70.515625 
z
" id="DejaVuSans-83"/>
     <path d="M 8.5 21.578125 
L 8.5 54.6875 
L 17.484375 54.6875 
L 17.484375 21.921875 
Q 17.484375 14.15625 20.5 10.265625 
Q 23.53125 6.390625 29.59375 6.390625 
Q 36.859375 6.390625 41.078125 11.03125 
Q 45.3125 15.671875 45.3125 23.6875 
L 45.3125 54.6875 
L 54.296875 54.6875 
L 54.296875 0 
L 45.3125 0 
L 45.3125 8.40625 
Q 42.046875 3.421875 37.71875 1 
Q 33.40625 -1.421875 27.6875 -1.421875 
Q 18.265625 -1.421875 13.375 4.4375 
Q 8.5 10.296875 8.5 21.578125 
z
M 31.109375 56 
z
" id="DejaVuSans-117"/>
     <path d="M 48.6875 27.296875 
Q 48.6875 37.203125 44.609375 42.84375 
Q 40.53125 48.484375 33.40625 48.484375 
Q 26.265625 48.484375 22.1875 42.84375 
Q 18.109375 37.203125 18.109375 27.296875 
Q 18.109375 17.390625 22.1875 11.75 
Q 26.265625 6.109375 33.40625 6.109375 
Q 40.53125 6.109375 44.609375 11.75 
Q 48.6875 17.390625 48.6875 27.296875 
z
M 18.109375 46.390625 
Q 20.953125 51.265625 25.265625 53.625 
Q 29.59375 56 35.59375 56 
Q 45.5625 56 51.78125 48.09375 
Q 58.015625 40.1875 58.015625 27.296875 
Q 58.015625 14.40625 51.78125 6.484375 
Q 45.5625 -1.421875 35.59375 -1.421875 
Q 29.59375 -1.421875 25.265625 0.953125 
Q 20.953125 3.328125 18.109375 8.203125 
L 18.109375 0 
L 9.078125 0 
L 9.078125 75.984375 
L 18.109375 75.984375 
z
" id="DejaVuSans-98"/>
     <path d="M 9.421875 54.6875 
L 18.40625 54.6875 
L 18.40625 -0.984375 
Q 18.40625 -11.421875 14.421875 -16.109375 
Q 10.453125 -20.796875 1.609375 -20.796875 
L -1.8125 -20.796875 
L -1.8125 -13.1875 
L 0.59375 -13.1875 
Q 5.71875 -13.1875 7.5625 -10.8125 
Q 9.421875 -8.453125 9.421875 -0.984375 
z
M 9.421875 75.984375 
L 18.40625 75.984375 
L 18.40625 64.59375 
L 9.421875 64.59375 
z
" id="DejaVuSans-106"/>
     <path d="M 56.203125 29.59375 
L 56.203125 25.203125 
L 14.890625 25.203125 
Q 15.484375 15.921875 20.484375 11.0625 
Q 25.484375 6.203125 34.421875 6.203125 
Q 39.59375 6.203125 44.453125 7.46875 
Q 49.3125 8.734375 54.109375 11.28125 
L 54.109375 2.78125 
Q 49.265625 0.734375 44.1875 -0.34375 
Q 39.109375 -1.421875 33.890625 -1.421875 
Q 20.796875 -1.421875 13.15625 6.1875 
Q 5.515625 13.8125 5.515625 26.8125 
Q 5.515625 40.234375 12.765625 48.109375 
Q 20.015625 56 32.328125 56 
Q 43.359375 56 49.78125 48.890625 
Q 56.203125 41.796875 56.203125 29.59375 
z
M 47.21875 32.234375 
Q 47.125 39.59375 43.09375 43.984375 
Q 39.0625 48.390625 32.421875 48.390625 
Q 24.90625 48.390625 20.390625 44.140625 
Q 15.875 39.890625 15.1875 32.171875 
z
" id="DejaVuSans-101"/>
     <path d="M 48.78125 52.59375 
L 48.78125 44.1875 
Q 44.96875 46.296875 41.140625 47.34375 
Q 37.3125 48.390625 33.40625 48.390625 
Q 24.65625 48.390625 19.8125 42.84375 
Q 14.984375 37.3125 14.984375 27.296875 
Q 14.984375 17.28125 19.8125 11.734375 
Q 24.65625 6.203125 33.40625 6.203125 
Q 37.3125 6.203125 41.140625 7.25 
Q 44.96875 8.296875 48.78125 10.40625 
L 48.78125 2.09375 
Q 45.015625 0.34375 40.984375 -0.53125 
Q 36.96875 -1.421875 32.421875 -1.421875 
Q 20.0625 -1.421875 12.78125 6.34375 
Q 5.515625 14.109375 5.515625 27.296875 
Q 5.515625 40.671875 12.859375 48.328125 
Q 20.21875 56 33.015625 56 
Q 37.15625 56 41.109375 55.140625 
Q 45.0625 54.296875 48.78125 52.59375 
z
" id="DejaVuSans-99"/>
     <path d="M 18.3125 70.21875 
L 18.3125 54.6875 
L 36.8125 54.6875 
L 36.8125 47.703125 
L 18.3125 47.703125 
L 18.3125 18.015625 
Q 18.3125 11.328125 20.140625 9.421875 
Q 21.96875 7.515625 27.59375 7.515625 
L 36.8125 7.515625 
L 36.8125 0 
L 27.59375 0 
Q 17.1875 0 13.234375 3.875 
Q 9.28125 7.765625 9.28125 18.015625 
L 9.28125 47.703125 
L 2.6875 47.703125 
L 2.6875 54.6875 
L 9.28125 54.6875 
L 9.28125 70.21875 
z
" id="DejaVuSans-116"/>
     <path d="M 11.71875 12.40625 
L 22.015625 12.40625 
L 22.015625 0 
L 11.71875 0 
z
M 11.71875 51.703125 
L 22.015625 51.703125 
L 22.015625 39.3125 
L 11.71875 39.3125 
z
" id="DejaVuSans-58"/>
     <path d="M 44.28125 53.078125 
L 44.28125 44.578125 
Q 40.484375 46.53125 36.375 47.5 
Q 32.28125 48.484375 27.875 48.484375 
Q 21.1875 48.484375 17.84375 46.4375 
Q 14.5 44.390625 14.5 40.28125 
Q 14.5 37.15625 16.890625 35.375 
Q 19.28125 33.59375 26.515625 31.984375 
L 29.59375 31.296875 
Q 39.15625 29.25 43.1875 25.515625 
Q 47.21875 21.78125 47.21875 15.09375 
Q 47.21875 7.46875 41.1875 3.015625 
Q 35.15625 -1.421875 24.609375 -1.421875 
Q 20.21875 -1.421875 15.453125 -0.5625 
Q 10.6875 0.296875 5.421875 2 
L 5.421875 11.28125 
Q 10.40625 8.6875 15.234375 7.390625 
Q 20.0625 6.109375 24.8125 6.109375 
Q 31.15625 6.109375 34.5625 8.28125 
Q 37.984375 10.453125 37.984375 14.40625 
Q 37.984375 18.0625 35.515625 20.015625 
Q 33.0625 21.96875 24.703125 23.78125 
L 21.578125 24.515625 
Q 13.234375 26.265625 9.515625 29.90625 
Q 5.8125 33.546875 5.8125 39.890625 
Q 5.8125 47.609375 11.28125 51.796875 
Q 16.75 56 26.8125 56 
Q 31.78125 56 36.171875 55.265625 
Q 40.578125 54.546875 44.28125 53.078125 
z
" id="DejaVuSans-115"/>
     <path d="M 40.578125 39.3125 
Q 47.65625 37.796875 51.625 33 
Q 55.609375 28.21875 55.609375 21.1875 
Q 55.609375 10.40625 48.1875 4.484375 
Q 40.765625 -1.421875 27.09375 -1.421875 
Q 22.515625 -1.421875 17.65625 -0.515625 
Q 12.796875 0.390625 7.625 2.203125 
L 7.625 11.71875 
Q 11.71875 9.328125 16.59375 8.109375 
Q 21.484375 6.890625 26.8125 6.890625 
Q 36.078125 6.890625 40.9375 10.546875 
Q 45.796875 14.203125 45.796875 21.1875 
Q 45.796875 27.640625 41.28125 31.265625 
Q 36.765625 34.90625 28.71875 34.90625 
L 20.21875 34.90625 
L 20.21875 43.015625 
L 29.109375 43.015625 
Q 36.375 43.015625 40.234375 45.921875 
Q 44.09375 48.828125 44.09375 54.296875 
Q 44.09375 59.90625 40.109375 62.90625 
Q 36.140625 65.921875 28.71875 65.921875 
Q 24.65625 65.921875 20.015625 65.03125 
Q 15.375 64.15625 9.8125 62.3125 
L 9.8125 71.09375 
Q 15.4375 72.65625 20.34375 73.4375 
Q 25.25 74.21875 29.59375 74.21875 
Q 40.828125 74.21875 47.359375 69.109375 
Q 53.90625 64.015625 53.90625 55.328125 
Q 53.90625 49.265625 50.4375 45.09375 
Q 46.96875 40.921875 40.578125 39.3125 
z
" id="DejaVuSans-51"/>
     <path d="M 11.71875 12.40625 
L 22.015625 12.40625 
L 22.015625 4 
L 14.015625 -11.625 
L 7.71875 -11.625 
L 11.71875 4 
z
" id="DejaVuSans-44"/>
     <path d="M 9.8125 72.90625 
L 19.671875 72.90625 
L 19.671875 42.09375 
L 52.390625 72.90625 
L 65.09375 72.90625 
L 28.90625 38.921875 
L 67.671875 0 
L 54.6875 0 
L 19.671875 35.109375 
L 19.671875 0 
L 9.8125 0 
z
" id="DejaVuSans-75"/>
     <path d="M 54.890625 33.015625 
L 54.890625 0 
L 45.90625 0 
L 45.90625 32.71875 
Q 45.90625 40.484375 42.875 44.328125 
Q 39.84375 48.1875 33.796875 48.1875 
Q 26.515625 48.1875 22.3125 43.546875 
Q 18.109375 38.921875 18.109375 30.90625 
L 18.109375 0 
L 9.078125 0 
L 9.078125 54.6875 
L 18.109375 54.6875 
L 18.109375 46.1875 
Q 21.34375 51.125 25.703125 53.5625 
Q 30.078125 56 35.796875 56 
Q 45.21875 56 50.046875 50.171875 
Q 54.890625 44.34375 54.890625 33.015625 
z
" id="DejaVuSans-110"/>
     <path d="M 30.609375 48.390625 
Q 23.390625 48.390625 19.1875 42.75 
Q 14.984375 37.109375 14.984375 27.296875 
Q 14.984375 17.484375 19.15625 11.84375 
Q 23.34375 6.203125 30.609375 6.203125 
Q 37.796875 6.203125 41.984375 11.859375 
Q 46.1875 17.53125 46.1875 27.296875 
Q 46.1875 37.015625 41.984375 42.703125 
Q 37.796875 48.390625 30.609375 48.390625 
z
M 30.609375 56 
Q 42.328125 56 49.015625 48.375 
Q 55.71875 40.765625 55.71875 27.296875 
Q 55.71875 13.875 49.015625 6.21875 
Q 42.328125 -1.421875 30.609375 -1.421875 
Q 18.84375 -1.421875 12.171875 6.21875 
Q 5.515625 13.875 5.515625 27.296875 
Q 5.515625 40.765625 12.171875 48.375 
Q 18.84375 56 30.609375 56 
z
" id="DejaVuSans-111"/>
     <path d="M 4.203125 54.6875 
L 13.1875 54.6875 
L 24.421875 12.015625 
L 35.59375 54.6875 
L 46.1875 54.6875 
L 57.421875 12.015625 
L 68.609375 54.6875 
L 77.59375 54.6875 
L 63.28125 0 
L 52.6875 0 
L 40.921875 44.828125 
L 29.109375 0 
L 18.5 0 
z
" id="DejaVuSans-119"/>
     <path d="M 10.59375 45.40625 
L 73.1875 45.40625 
L 73.1875 37.203125 
L 10.59375 37.203125 
z
M 10.59375 25.484375 
L 73.1875 25.484375 
L 73.1875 17.1875 
L 10.59375 17.1875 
z
" id="DejaVuSans-61"/>
     <path d="M 9.8125 72.90625 
L 51.703125 72.90625 
L 51.703125 64.59375 
L 19.671875 64.59375 
L 19.671875 43.109375 
L 48.578125 43.109375 
L 48.578125 34.8125 
L 19.671875 34.8125 
L 19.671875 0 
L 9.8125 0 
z
" id="DejaVuSans-70"/>
     <path d="M 34.28125 27.484375 
Q 23.390625 27.484375 19.1875 25 
Q 14.984375 22.515625 14.984375 16.5 
Q 14.984375 11.71875 18.140625 8.90625 
Q 21.296875 6.109375 26.703125 6.109375 
Q 34.1875 6.109375 38.703125 11.40625 
Q 43.21875 16.703125 43.21875 25.484375 
L 43.21875 27.484375 
z
M 52.203125 31.203125 
L 52.203125 0 
L 43.21875 0 
L 43.21875 8.296875 
Q 40.140625 3.328125 35.546875 0.953125 
Q 30.953125 -1.421875 24.3125 -1.421875 
Q 15.921875 -1.421875 10.953125 3.296875 
Q 6 8.015625 6 15.921875 
Q 6 25.140625 12.171875 29.828125 
Q 18.359375 34.515625 30.609375 34.515625 
L 43.21875 34.515625 
L 43.21875 35.40625 
Q 43.21875 41.609375 39.140625 45 
Q 35.0625 48.390625 27.6875 48.390625 
Q 23 48.390625 18.546875 47.265625 
Q 14.109375 46.140625 10.015625 43.890625 
L 10.015625 52.203125 
Q 14.9375 54.109375 19.578125 55.046875 
Q 24.21875 56 28.609375 56 
Q 40.484375 56 46.34375 49.84375 
Q 52.203125 43.703125 52.203125 31.203125 
z
" id="DejaVuSans-97"/>
     <path d="M 9.421875 75.984375 
L 18.40625 75.984375 
L 18.40625 0 
L 9.421875 0 
z
" id="DejaVuSans-108"/>
     <path d="M 19.671875 64.796875 
L 19.671875 8.109375 
L 31.59375 8.109375 
Q 46.6875 8.109375 53.6875 14.9375 
Q 60.6875 21.78125 60.6875 36.53125 
Q 60.6875 51.171875 53.6875 57.984375 
Q 46.6875 64.796875 31.59375 64.796875 
z
M 9.8125 72.90625 
L 30.078125 72.90625 
Q 51.265625 72.90625 61.171875 64.09375 
Q 71.09375 55.28125 71.09375 36.53125 
Q 71.09375 17.671875 61.125 8.828125 
Q 51.171875 0 30.078125 0 
L 9.8125 0 
z
" id="DejaVuSans-68"/>
     <path d="M 45.40625 27.984375 
Q 45.40625 37.75 41.375 43.109375 
Q 37.359375 48.484375 30.078125 48.484375 
Q 22.859375 48.484375 18.828125 43.109375 
Q 14.796875 37.75 14.796875 27.984375 
Q 14.796875 18.265625 18.828125 12.890625 
Q 22.859375 7.515625 30.078125 7.515625 
Q 37.359375 7.515625 41.375 12.890625 
Q 45.40625 18.265625 45.40625 27.984375 
z
M 54.390625 6.78125 
Q 54.390625 -7.171875 48.1875 -13.984375 
Q 42 -20.796875 29.203125 -20.796875 
Q 24.46875 -20.796875 20.265625 -20.09375 
Q 16.0625 -19.390625 12.109375 -17.921875 
L 12.109375 -9.1875 
Q 16.0625 -11.328125 19.921875 -12.34375 
Q 23.78125 -13.375 27.78125 -13.375 
Q 36.625 -13.375 41.015625 -8.765625 
Q 45.40625 -4.15625 45.40625 5.171875 
L 45.40625 9.625 
Q 42.625 4.78125 38.28125 2.390625 
Q 33.9375 0 27.875 0 
Q 17.828125 0 11.671875 7.65625 
Q 5.515625 15.328125 5.515625 27.984375 
Q 5.515625 40.671875 11.671875 48.328125 
Q 17.828125 56 27.875 56 
Q 33.9375 56 38.28125 53.609375 
Q 42.625 51.21875 45.40625 46.390625 
L 45.40625 54.6875 
L 54.390625 54.6875 
z
" id="DejaVuSans-103"/>
     <path d="M 41.109375 46.296875 
Q 39.59375 47.171875 37.8125 47.578125 
Q 36.03125 48 33.890625 48 
Q 26.265625 48 22.1875 43.046875 
Q 18.109375 38.09375 18.109375 28.8125 
L 18.109375 0 
L 9.078125 0 
L 9.078125 54.6875 
L 18.109375 54.6875 
L 18.109375 46.1875 
Q 20.953125 51.171875 25.484375 53.578125 
Q 30.03125 56 36.53125 56 
Q 37.453125 56 38.578125 55.875 
Q 39.703125 55.765625 41.0625 55.515625 
z
" id="DejaVuSans-114"/>
     <path d="M 9.421875 54.6875 
L 18.40625 54.6875 
L 18.40625 0 
L 9.421875 0 
z
M 9.421875 75.984375 
L 18.40625 75.984375 
L 18.40625 64.59375 
L 9.421875 64.59375 
z
" id="DejaVuSans-105"/>
     <path d="M 10.6875 12.40625 
L 21 12.40625 
L 21 0 
L 10.6875 0 
z
" id="DejaVuSans-46"/>
    </defs>
    <g transform="translate(49.741875 35.472)scale(0.12 -0.12)">
     <use xlink:href="#DejaVuSans-40"/>
     <use x="39.013672" xlink:href="#DejaVuSans-49"/>
     <use x="102.636719" xlink:href="#DejaVuSans-52"/>
     <use x="166.259766" xlink:href="#DejaVuSans-41"/>
     <use x="205.273438" xlink:href="#DejaVuSans-32"/>
     <use x="237.060547" xlink:href="#DejaVuSans-83"/>
     <use x="300.537109" xlink:href="#DejaVuSans-117"/>
     <use x="363.916016" xlink:href="#DejaVuSans-98"/>
     <use x="427.392578" xlink:href="#DejaVuSans-106"/>
     <use x="455.175781" xlink:href="#DejaVuSans-101"/>
     <use x="516.699219" xlink:href="#DejaVuSans-99"/>
     <use x="571.679688" xlink:href="#DejaVuSans-116"/>
     <use x="610.888672" xlink:href="#DejaVuSans-58"/>
     <use x="644.580078" xlink:href="#DejaVuSans-32"/>
     <use x="676.367188" xlink:href="#DejaVuSans-115"/>
     <use x="728.466797" xlink:href="#DejaVuSans-50"/>
     <use x="792.089844" xlink:href="#DejaVuSans-51"/>
     <use x="855.712891" xlink:href="#DejaVuSans-44"/>
     <use x="887.5" xlink:href="#DejaVuSans-32"/>
     <use x="919.287109" xlink:href="#DejaVuSans-75"/>
     <use x="984.863281" xlink:href="#DejaVuSans-110"/>
     <use x="1048.242188" xlink:href="#DejaVuSans-111"/>
     <use x="1109.423828" xlink:href="#DejaVuSans-119"/>
     <use x="1191.210938" xlink:href="#DejaVuSans-110"/>
     <use x="1254.589844" xlink:href="#DejaVuSans-32"/>
     <use x="1286.376953" xlink:href="#DejaVuSans-61"/>
     <use x="1370.166016" xlink:href="#DejaVuSans-32"/>
     <use x="1401.953125" xlink:href="#DejaVuSans-70"/>
     <use x="1459.332031" xlink:href="#DejaVuSans-97"/>
     <use x="1520.611328" xlink:href="#DejaVuSans-108"/>
     <use x="1548.394531" xlink:href="#DejaVuSans-115"/>
     <use x="1600.494141" xlink:href="#DejaVuSans-101"/>
     <use x="1662.017578" xlink:href="#DejaVuSans-44"/>
     <use x="1693.804688" xlink:href="#DejaVuSans-32"/>
     <use x="1725.591797" xlink:href="#DejaVuSans-68"/>
     <use x="1802.59375" xlink:href="#DejaVuSans-101"/>
     <use x="1864.117188" xlink:href="#DejaVuSans-103"/>
     <use x="1927.59375" xlink:href="#DejaVuSans-114"/>
     <use x="1968.675781" xlink:href="#DejaVuSans-101"/>
     <use x="2030.199219" xlink:href="#DejaVuSans-101"/>
     <use x="2091.722656" xlink:href="#DejaVuSans-32"/>
     <use x="2123.509766" xlink:href="#DejaVuSans-61"/>
     <use x="2207.298828" xlink:href="#DejaVuSans-32"/>
     <use x="2239.085938" xlink:href="#DejaVuSans-49"/>
     <use x="2302.708984" xlink:href="#DejaVuSans-44"/>
     <use x="2334.496094" xlink:href="#DejaVuSans-32"/>
     <use x="2366.283203" xlink:href="#DejaVuSans-68"/>
     <use x="2443.285156" xlink:href="#DejaVuSans-117"/>
     <use x="2506.664062" xlink:href="#DejaVuSans-114"/>
     <use x="2547.777344" xlink:href="#DejaVuSans-97"/>
     <use x="2609.056641" xlink:href="#DejaVuSans-116"/>
     <use x="2648.265625" xlink:href="#DejaVuSans-105"/>
     <use x="2676.048828" xlink:href="#DejaVuSans-111"/>
     <use x="2737.230469" xlink:href="#DejaVuSans-110"/>
     <use x="2800.609375" xlink:href="#DejaVuSans-32"/>
     <use x="2832.396484" xlink:href="#DejaVuSans-61"/>
     <use x="2916.185547" xlink:href="#DejaVuSans-32"/>
     <use x="2947.972656" xlink:href="#DejaVuSans-48"/>
     <use x="3011.595703" xlink:href="#DejaVuSans-46"/>
     <use x="3043.382812" xlink:href="#DejaVuSans-49"/>
    </g>
   </g>
  </g>
 </g>
 <defs>
  <clipPath id="p141741d7d4">
   <rect height="266.112" width="357.12" x="57.6" y="41.472"/>
  </clipPath>
 </defs>
</svg>
