<?xml version="1.0" encoding="utf-8" standalone="no"?>
<!DOCTYPE svg PUBLIC "-//W3C//DTD SVG 1.1//EN"
  "http://www.w3.org/Graphics/SVG/1.1/DTD/svg11.dtd">
<!-- Created with matplotlib (https://matplotlib.org/) -->
<svg height="345.6pt" version="1.1" viewBox="0 0 460.8 345.6" width="460.8pt" xmlns="http://www.w3.org/2000/svg" xmlns:xlink="http://www.w3.org/1999/xlink">
 <defs>
  <style type="text/css">
*{stroke-linecap:butt;stroke-linejoin:round;}
  </style>
 </defs>
 <g id="figure_1">
  <g id="patch_1">
   <path d="M 0 345.6 
L 460.8 345.6 
L 460.8 0 
L 0 0 
z
" style="fill:#ffffff;"/>
  </g>
  <g id="axes_1">
   <g id="patch_2">
    <path d="M 57.6 307.584 
L 414.72 307.584 
L 414.72 41.472 
L 57.6 41.472 
z
" style="fill:#ffffff;"/>
   </g>
   <g id="line2d_1">
    <path clip-path="url(#pd10cb20546)" d="M 391.181011 64.904077 
L 391.181011 65.202086 
L 391.49849 65.798104 
L 391.49849 66.096113 
L 391.181011 65.798104 
L 391.181011 65.202086 
L 391.49849 64.904077 
L 391.81597 65.202086 
L 391.49849 65.500095 
L 391.181011 66.096113 
L 391.181011 65.798104 
L 391.49849 65.202086 
L 391.49849 65.202086 
L 390.863531 65.202086 
L 391.49849 64.606068 
L 391.81597 65.500095 
L 391.49849 65.798104 
L 390.863531 65.500095 
L 390.228572 64.904077 
L 390.546052 64.904077 
L 390.546052 66.096113 
L 390.546052 65.202086 
L 390.863531 64.01005 
L 391.49849 63.709694 
L 392.133449 63.709694 
L 392.450929 64.308059 
L 391.81597 65.798104 
L 390.863531 65.798104 
L 391.181011 65.500095 
L 392.133449 65.202086 
L 393.403368 65.202086 
L 393.72508 65.500095 
L 392.450929 65.500095 
L 391.181011 65.202086 
L 391.81597 64.606068 
L 392.450929 64.904077 
L 394.04256 65.500095 
L 393.72508 65.798104 
L 393.403368 66.396469 
L 393.403368 66.694478 
L 393.72508 66.396469 
L 393.72508 66.096113 
L 392.133449 66.096113 
L 391.81597 65.500095 
L 392.450929 65.202086 
L 393.085888 65.798104 
L 393.085888 65.798104 
L 393.403368 65.798104 
L 394.04256 65.500095 
L 393.085888 65.500095 
L 392.768409 65.798104 
L 392.768409 65.500095 
L 394.360039 66.992487 
L 395.312478 66.096113 
L 394.360039 66.396469 
L 393.72508 66.992487 
L 393.72508 67.290496 
L 394.04256 66.396469 
L 393.72508 65.202086 
L 394.360039 65.202086 
L 395.629957 64.01005 
L 395.629957 63.709694 
L 394.994998 64.904077 
L 394.360039 65.202086 
L 394.360039 64.606068 
L 395.312478 64.01005 
L 396.264916 63.709694 
L 396.582396 64.01005 
L 396.582396 64.606068 
L 395.312478 63.411685 
L 395.629957 62.815667 
L 396.264916 62.815667 
L 396.264916 63.709694 
L 396.264916 61.623631 
L 396.582396 61.325622 
L 397.534834 61.92164 
L 398.487273 62.219649 
L 398.169793 62.517658 
L 396.899875 61.92164 
L 396.582396 61.623631 
L 396.899875 61.92164 
L 397.534834 61.92164 
L 397.534834 61.325622 
L 397.217355 61.025266 
L 396.899875 61.325622 
L 396.582396 61.92164 
L 396.582396 61.325622 
L 396.264916 60.429248 
L 395.629957 60.429248 
L 395.629957 60.429248 
L 396.264916 60.131239 
L 396.582396 59.83323 
L 397.217355 59.83323 
L 397.217355 59.83323 
L 396.899875 59.535221 
L 396.899875 59.535221 
L 396.899875 59.83323 
L 396.582396 60.429248 
L 396.582396 59.83323 
L 397.217355 58.340838 
L 397.217355 58.340838 
L 397.217355 59.237212 
L 397.534834 59.535221 
L 395.947437 59.535221 
L 395.947437 59.237212 
L 396.264916 59.237212 
L 396.582396 59.535221 
L 395.947437 59.83323 
L 395.629957 59.83323 
L 396.264916 58.939203 
L 396.899875 58.340838 
L 396.582396 58.042829 
L 395.947437 57.74482 
L 395.312478 58.042829 
L 395.312478 59.535221 
L 394.994998 59.237212 
L 394.994998 58.340838 
L 395.947437 58.042829 
L 396.899875 58.042829 
L 397.534834 58.340838 
L 397.534834 58.638847 
L 397.217355 58.939203 
L 395.947437 59.535221 
L 395.947437 58.939203 
L 395.629957 58.340838 
L 395.629957 58.939203 
L 395.947437 59.237212 
L 395.947437 59.237212 
L 395.629957 59.535221 
L 394.994998 59.535221 
L 394.994998 58.939203 
L 395.629957 58.638847 
L 395.629957 58.939203 
L 395.312478 58.939203 
L 394.994998 58.638847 
L 394.677519 58.042829 
L 394.677519 57.74482 
L 394.994998 58.042829 
L 394.994998 58.042829 
L 395.629957 57.446811 
L 395.312478 56.850793 
L 394.677519 56.252428 
L 394.360039 55.65641 
L 394.677519 56.252428 
L 394.994998 56.552784 
L 394.677519 55.954419 
L 394.677519 55.358401 
L 394.360039 55.060392 
L 394.360039 55.060392 
L 394.677519 55.060392 
L 394.994998 54.762383 
L 394.994998 54.762383 
L 394.994998 55.060392 
L 394.994998 54.762383 
L 395.629957 53.568 
L 395.629957 53.866009 
L 395.312478 54.762383 
L 394.360039 55.65641 
L 394.677519 55.954419 
L 395.312478 55.65641 
L 395.312478 55.65641 
L 394.994998 55.954419 
L 394.994998 56.252428 
L 394.994998 56.252428 
L 394.677519 56.252428 
L 394.677519 54.762383 
L 394.360039 55.060392 
L 394.360039 56.252428 
L 394.677519 57.446811 
L 394.994998 58.042829 
L 395.312478 57.74482 
L 394.994998 56.850793 
L 394.360039 56.552784 
L 394.04256 56.252428 
L 393.403368 56.850793 
L 394.360039 56.850793 
L 394.677519 56.552784 
L 394.360039 56.252428 
L 393.72508 55.358401 
L 394.04256 55.060392 
L 394.360039 55.358401 
L 394.360039 55.954419 
L 393.72508 55.954419 
L 394.04256 55.954419 
L 394.360039 55.65641 
L 394.360039 55.65641 
L 394.677519 56.252428 
L 394.994998 56.552784 
L 395.629957 55.954419 
L 395.312478 55.954419 
L 394.360039 56.552784 
L 394.04256 57.148802 
L 394.994998 56.252428 
L 394.677519 56.850793 
L 394.04256 57.446811 
L 394.677519 58.042829 
L 394.677519 58.042829 
L 394.677519 57.74482 
L 394.994998 57.148802 
L 395.312478 56.850793 
L 395.629957 57.148802 
L 395.312478 57.74482 
L 395.312478 57.74482 
L 395.947437 58.042829 
L 395.947437 58.340838 
L 394.994998 58.340838 
L 394.994998 58.042829 
L 395.312478 57.74482 
L 395.312478 56.850793 
L 394.994998 57.148802 
L 394.994998 58.042829 
L 395.312478 58.042829 
L 395.947437 58.638847 
L 395.629957 58.939203 
L 395.312478 58.638847 
L 395.312478 58.042829 
L 395.947437 58.042829 
L 396.264916 58.638847 
L 396.264916 58.340838 
L 395.947437 58.340838 
L 394.677519 59.237212 
L 392.450929 59.83323 
L 391.181011 59.83323 
L 389.911093 60.429248 
L 387.371257 61.025266 
L 375.298569 61.92164 
L 370.849623 61.92164 
L 364.81328 62.219649 
L 358.14621 62.815667 
L 351.792387 64.01005 
L 339.40222 67.588505 
L 326.377094 71.169307 
L 320.02327 73.555726 
L 313.986927 76.538163 
L 301.918472 81.907019 
L 289.845785 86.977866 
L 284.4444 90.258312 
L 279.364728 94.137123 
L 273.963343 98.909961 
L 268.879438 104.278817 
L 264.113012 109.051655 
L 259.668299 113.228475 
L 254.901874 118.001313 
L 250.139681 123.07216 
L 246.643173 127.844998 
L 244.420817 132.319827 
L 236.797076 143.953913 
L 234.570486 147.830377 
L 232.983088 151.11317 
L 231.71317 154.393616 
L 226.946745 161.552873 
L 221.867073 166.921729 
L 219.957962 169.308148 
L 218.688044 172.290586 
L 218.053085 175.275369 
L 217.418126 177.661788 
L 216.465688 179.449843 
L 214.87829 183.626662 
L 213.604139 186.31109 
L 211.381783 191.679947 
L 211.381783 193.172338 
L 212.016742 194.962739 
L 211.699262 195.558757 
L 211.699262 198.243186 
L 211.064303 200.033586 
L 209.794385 202.121996 
L 208.841947 203.910051 
L 208.524467 205.700452 
L 208.524467 209.877271 
L 207.889508 212.5617 
L 207.254549 214.3521 
L 206.93707 216.44051 
L 206.93707 218.526574 
L 207.254549 220.018966 
L 205.980398 223.599767 
L 205.980398 225.986186 
L 204.71048 227.178223 
L 203.758041 229.266633 
L 203.123082 231.057033 
L 203.440562 233.145443 
L 203.440562 234.635489 
L 203.123082 235.531862 
L 202.488123 236.723899 
L 201.535685 238.812309 
L 200.900726 240.900719 
L 200.265767 242.092755 
L 199.630808 243.883156 
L 199.630808 244.777183 
L 199.309095 245.375547 
L 198.674136 246.269575 
L 198.674136 249.252012 
L 198.039177 251.340422 
L 198.039177 251.340422 
L 198.356657 251.340422 
L 198.356657 251.340422 
L 198.356657 252.234449 
L 197.721698 255.219233 
L 195.816821 257.007287 
L 195.499341 257.605652 
L 195.499341 258.499679 
L 196.1343 259.691715 
L 196.1343 260.588089 
L 195.816821 260.886098 
L 195.816821 261.482116 
L 195.499341 262.37849 
L 194.864382 263.272517 
L 193.594464 264.464553 
L 193.276985 265.062918 
L 193.594464 265.658936 
L 192.959505 266.254954 
L 192.002833 266.552963 
L 191.685354 266.850972 
L 193.276985 268.939382 
L 193.276985 269.835756 
L 192.959505 270.729783 
L 192.002833 271.325801 
L 191.685354 271.325801 
L 191.367874 271.924166 
L 191.367874 273.414211 
L 190.732915 273.414211 
L 190.097956 274.010229 
L 190.415436 274.310585 
L 190.732915 274.310585 
L 190.732915 274.010229 
L 190.415436 273.71222 
L 190.097956 274.310585 
L 189.462997 274.906603 
L 189.462997 274.906603 
L 189.780477 274.310585 
L 190.415436 274.310585 
L 190.732915 274.906603 
L 190.097956 275.80063 
L 189.145518 276.098639 
L 189.145518 276.098639 
L 189.462997 275.80063 
L 189.462997 275.502621 
L 189.145518 275.204612 
L 188.828038 275.502621 
L 189.145518 276.098639 
L 189.145518 276.098639 
L 188.510559 276.098639 
L 188.828038 276.098639 
L 189.145518 276.396648 
L 188.828038 276.697004 
L 188.193079 276.697004 
L 186.923161 276.995013 
L 186.923161 276.697004 
L 186.605682 276.697004 
L 186.923161 277.293022 
L 187.240641 276.995013 
L 187.240641 276.995013 
L 186.923161 276.995013 
L 186.288202 277.591031 
L 186.288202 278.485058 
L 186.605682 278.187049 
L 187.55812 275.80063 
L 187.240641 275.502621 
L 185.653243 276.098639 
L 183.426654 275.502621 
L 181.521777 275.204612 
L 171.04072 275.204612 
L 162.142827 275.80063 
L 156.745676 275.502621 
L 151.661771 275.502621 
L 135.779329 276.396648 
L 125.928998 277.591031 
L 120.531846 278.783067 
L 115.447941 280.275459 
L 111.316475 281.169486 
L 106.871761 281.169486 
L 103.057774 281.467495 
L 99.24802 282.363869 
L 95.116554 282.959887 
L 90.667607 282.959887 
L 87.175333 283.257896 
L 84.313784 284.15427 
L 81.773948 284.15427 
L 78.916632 284.452279 
L 75.420125 285.942324 
L 74.467686 285.942324 
L 73.832727 286.240333 
L 73.832727 286.838698 
L 74.150207 286.240333 
L 74.467686 285.942324 
L 74.785166 286.240333 
L 75.737604 286.540689 
L 76.055084 287.136707 
L 76.055084 288.030734 
L 76.690043 288.328743 
L 78.281673 288.328743 
L 78.281673 288.328743 
L 78.916632 288.927108 
L 78.599153 289.523126 
L 78.281673 289.523126 
L 78.599153 289.225117 
L 78.599153 289.225117 
L 78.281673 289.821135 
L 77.964194 290.119144 
L 77.964194 290.417153 
L 78.281673 290.715162 
L 77.964194 291.313527 
L 77.964194 291.611536 
L 78.281673 291.909545 
L 79.234112 291.909545 
L 78.599153 291.313527 
L 77.964194 291.313527 
L 77.329235 291.611536 
L 76.372563 292.803572 
L 76.055084 293.101581 
L 76.372563 293.699946 
L 76.690043 293.997955 
L 77.007522 293.101581 
L 77.646714 292.505563 
L 77.329235 292.207554 
L 77.329235 292.207554 
L 78.281673 292.207554 
L 77.646714 292.505563 
L 76.690043 292.803572 
L 77.007522 292.803572 
L 77.646714 292.803572 
L 77.646714 293.699946 
L 77.329235 294.593973 
L 77.329235 294.295964 
L 77.007522 293.699946 
L 76.690043 293.39959 
L 76.055084 293.39959 
L 76.372563 293.699946 
L 76.055084 293.997955 
L 75.737604 295.189991 
L 75.737604 294.891982 
L 76.055084 294.593973 
L 76.055084 293.997955 
L 75.737604 293.39959 
L 76.055084 293.699946 
L 76.690043 293.39959 
L 77.007522 293.101581 
L 76.690043 293.699946 
L 76.372563 294.891982 
L 76.055084 295.488 
L 75.737604 295.189991 
L 75.420125 294.593973 
L 75.737604 294.295964 
L 76.055084 294.593973 
L 75.737604 295.189991 
L 76.055084 295.488 
L 76.055084 294.891982 
L 76.372563 293.997955 
L 76.055084 293.39959 
L 76.055084 293.101581 
L 76.055084 293.39959 
L 76.372563 293.39959 
L 77.646714 293.997955 
L 77.964194 294.295964 
L 77.007522 294.593973 
L 76.372563 294.295964 
L 76.055084 293.699946 
L 76.055084 293.997955 
L 76.372563 294.593973 
L 76.690043 294.593973 
L 75.737604 294.593973 
L 76.372563 293.997955 
L 76.690043 293.997955 
L 76.690043 294.295964 
L 76.690043 293.39959 
L 76.690043 293.39959 
L 77.329235 293.101581 
L 77.646714 292.803572 
L 77.007522 293.39959 
L 75.420125 294.295964 
L 75.737604 294.295964 
L 76.055084 294.295964 
L 76.372563 294.593973 
L 76.372563 294.295964 
L 76.690043 293.699946 
L 77.329235 293.699946 
L 77.964194 293.997955 
L 78.916632 293.997955 
L 78.916632 293.997955 
L 77.964194 293.101581 
L 77.646714 292.505563 
L 77.646714 292.505563 
L 77.646714 293.101581 
L 77.329235 293.39959 
L 77.007522 292.803572 
L 76.690043 292.505563 
L 76.690043 292.803572 
L 77.329235 293.101581 
L 77.646714 293.101581 
L 77.329235 292.803572 
L 77.007522 292.207554 
L 77.007522 292.207554 
L 77.964194 293.101581 
L 77.646714 293.39959 
L 77.329235 293.39959 
L 77.329235 292.803572 
L 77.646714 292.207554 
L 77.964194 292.207554 
L 77.964194 291.909545 
L 77.646714 291.909545 
L 77.329235 292.207554 
L 77.329235 292.505563 
L 77.007522 292.505563 
L 77.007522 292.505563 
L 77.329235 292.207554 
L 77.646714 291.611536 
L 77.646714 291.611536 
L 77.646714 291.909545 
L 77.329235 292.207554 
L 76.690043 292.505563 
L 76.690043 292.505563 
L 76.690043 291.909545 
L 77.329235 291.611536 
L 77.646714 291.611536 
L 77.007522 291.909545 
L 76.372563 291.909545 
L 76.055084 291.611536 
L 76.372563 291.313527 
L 77.007522 291.313527 
L 77.646714 291.611536 
L 77.646714 291.611536 
L 77.329235 291.313527 
L 77.329235 291.013171 
L 77.329235 291.013171 
L 77.007522 291.313527 
L 77.007522 291.013171 
L 77.007522 291.013171 
L 76.690043 291.013171 
L 76.690043 291.313527 
L 77.329235 291.013171 
L 78.281673 290.417153 
L 78.599153 289.821135 
L 78.599153 289.523126 
L 77.964194 289.225117 
L 77.646714 288.927108 
L 77.329235 288.927108 
L 77.329235 288.626752 
L 77.646714 288.030734 
L 77.964194 288.030734 
L 78.281673 288.328743 
L 78.281673 288.927108 
L 77.329235 288.927108 
L 77.329235 289.523126 
L 77.329235 289.523126 
L 77.646714 289.523126 
L 77.329235 289.821135 
L 77.964194 290.417153 
L 78.599153 290.119144 
L 78.599153 288.927108 
L 78.281673 288.328743 
L 77.646714 288.626752 
L 77.964194 288.927108 
L 78.599153 288.927108 
L 78.916632 288.626752 
L 78.916632 288.626752 
L 78.599153 289.225117 
L 77.329235 289.523126 
L 77.007522 289.225117 
L 77.329235 288.927108 
L 77.646714 289.225117 
L 77.646714 289.821135 
L 77.646714 289.821135 
L 77.007522 289.225117 
L 77.007522 289.225117 
L 77.329235 288.626752 
L 77.646714 288.626752 
L 78.281673 288.030734 
L 78.281673 289.225117 
L 77.329235 289.225117 
L 77.329235 289.523126 
L 77.007522 289.523126 
L 77.007522 289.225117 
L 77.329235 288.927108 
L 78.281673 288.626752 
L 79.551591 288.030734 
L 97.33891 285.644315 
L 103.057774 284.750288 
L 109.094118 284.15427 
L 116.40038 283.257896 
L 131.965342 280.275459 
L 140.541522 279.381432 
L 149.439414 277.88904 
L 158.968032 275.80063 
L 168.496651 273.414211 
L 178.029502 271.325801 
L 187.240641 269.537747 
L 196.769259 268.343364 
L 206.297877 266.850972 
L 225.041868 262.676499 
L 243.150899 260.29008 
L 251.727079 258.797688 
L 259.985779 256.709278 
L 268.244479 254.921223 
L 276.1857 253.726841 
L 283.491962 253.130823 
L 290.163264 252.832814 
L 302.235952 251.042413 
L 308.589775 250.446395 
L 314.626119 249.550021 
L 324.154737 247.761966 
L 328.91693 246.865593 
L 333.365876 246.269575 
L 336.544904 245.673557 
L 338.767261 245.075192 
L 340.354658 244.479174 
L 342.259535 244.479174 
L 343.211974 244.777183 
L 343.533686 245.075192 
L 342.894494 245.375547 
L 341.942056 245.075192 
L 340.354658 244.777183 
L 338.767261 245.075192 
L 336.862384 246.269575 
L 335.588232 246.865593 
L 332.730917 246.269575 
L 331.460999 245.971566 
L 330.82604 246.269575 
L 330.82604 247.461611 
L 330.50856 248.059976 
L 329.238642 249.252012 
L 329.238642 249.550021 
L 329.556122 249.84803 
L 329.873601 249.84803 
L 330.191081 250.446395 
L 330.82604 251.042413 
L 330.82604 251.93644 
L 330.82604 251.638431 
L 330.191081 251.340422 
L 329.556122 251.340422 
L 328.59945 251.638431 
L 328.281971 251.93644 
L 328.281971 252.234449 
L 328.91693 252.534804 
L 328.281971 252.534804 
L 327.647012 251.93644 
L 327.647012 251.340422 
L 327.329532 251.042413 
L 327.012053 251.638431 
L 327.647012 252.832814 
L 327.329532 253.130823 
L 327.329532 252.832814 
L 327.647012 252.534804 
L 327.647012 251.340422 
L 327.964491 251.042413 
L 327.964491 251.340422 
L 327.012053 252.234449 
L 327.329532 252.534804 
L 327.647012 252.534804 
L 326.377094 252.534804 
L 326.059614 252.234449 
L 325.742135 251.638431 
L 326.377094 251.638431 
L 326.059614 251.638431 
L 326.059614 253.726841 
L 325.742135 254.02485 
L 325.742135 253.726841 
L 327.012053 253.130823 
L 327.012053 253.428832 
L 326.694573 254.02485 
L 326.377094 254.322859 
L 326.059614 254.02485 
L 325.424655 253.726841 
L 325.424655 253.428832 
L 325.424655 253.428832 
L 325.742135 253.428832 
L 327.012053 253.130823 
L 327.012053 253.130823 
L 326.694573 253.428832 
L 326.377094 254.02485 
L 327.012053 254.620868 
L 327.012053 254.921223 
L 326.694573 254.620868 
L 326.694573 253.130823 
L 326.377094 252.534804 
L 325.107176 253.130823 
L 325.424655 253.130823 
L 325.424655 252.832814 
L 325.742135 252.234449 
L 325.742135 252.234449 
L 326.059614 252.534804 
L 325.742135 253.130823 
L 325.107176 253.726841 
L 324.472217 254.02485 
L 325.107176 254.02485 
L 325.742135 253.726841 
L 326.059614 253.726841 
L 326.059614 252.832814 
L 326.059614 252.832814 
L 326.377094 252.832814 
L 326.377094 252.534804 
L 326.377094 252.534804 
L 326.059614 252.832814 
L 325.742135 252.534804 
L 325.424655 251.93644 
L 325.424655 251.93644 
L 325.107176 252.234449 
L 324.472217 253.428832 
L 324.154737 253.428832 
L 324.472217 253.428832 
L 324.472217 253.726841 
L 324.472217 253.726841 
L 325.424655 252.832814 
L 325.107176 252.534804 
L 325.107176 253.130823 
L 325.424655 253.428832 
L 325.107176 253.428832 
L 324.472217 253.130823 
L 324.472217 252.832814 
L 325.107176 252.832814 
L 325.424655 253.130823 
L 325.107176 253.428832 
L 325.107176 253.130823 
L 325.742135 252.832814 
L 325.742135 253.130823 
L 325.424655 253.428832 
L 325.107176 253.130823 
L 324.789696 251.93644 
L 324.472217 251.93644 
L 324.789696 252.534804 
L 324.789696 253.130823 
L 323.519778 253.130823 
L 323.202299 253.726841 
L 323.837258 253.726841 
L 323.837258 253.428832 
L 323.202299 253.130823 
L 323.837258 253.130823 
L 323.519778 252.832814 
L 322.884819 252.534804 
L 322.56734 252.534804 
L 322.884819 252.832814 
L 323.202299 252.832814 
L 322.56734 253.428832 
L 322.56734 252.234449 
L 322.884819 252.534804 
L 323.837258 254.02485 
L 323.837258 254.02485 
L 323.837258 251.340422 
L 323.519778 251.638431 
L 322.884819 251.93644 
L 321.932381 252.234449 
L 321.610668 252.832814 
L 321.932381 253.130823 
L 322.884819 252.832814 
L 322.884819 251.93644 
L 322.24986 251.638431 
L 321.932381 252.234449 
L 321.932381 252.832814 
L 322.24986 253.130823 
L 321.932381 252.832814 
L 320.975709 252.234449 
L 320.975709 252.534804 
L 321.293188 252.534804 
L 321.610668 252.234449 
L 321.932381 252.534804 
L 322.884819 252.832814 
L 323.519778 252.832814 
L 324.472217 252.234449 
L 326.059614 251.93644 
L 329.873601 253.130823 
L 332.730917 253.130823 
L 335.905712 252.234449 
L 339.40222 251.042413 
L 342.577015 249.550021 
L 345.121084 248.655994 
L 347.34344 248.059976 
L 349.883276 248.059976 
L 352.427346 247.761966 
L 354.649702 247.163602 
L 357.189538 244.777183 
L 358.14621 245.075192 
L 358.463689 245.673557 
L 357.507018 245.971566 
L 356.554579 245.971566 
L 355.602141 245.375547 
L 354.332223 244.777183 
L 352.427346 244.181165 
L 351.157428 244.777183 
L 350.200756 245.673557 
L 349.883276 245.673557 
L 350.518236 245.673557 
L 350.518236 245.673557 
L 349.565797 246.269575 
L 349.565797 246.567584 
L 350.200756 246.567584 
L 350.518236 246.269575 
L 350.839948 246.567584 
L 350.839948 246.269575 
L 350.518236 245.971566 
L 350.839948 246.567584 
L 351.157428 247.461611 
L 351.792387 247.761966 
L 351.792387 248.059976 
L 351.792387 248.059976 
L 351.474907 248.059976 
L 351.157428 248.357985 
L 351.474907 248.655994 
L 351.792387 248.357985 
L 350.839948 246.865593 
L 350.518236 246.269575 
L 350.518236 245.971566 
L 349.883276 246.269575 
L 349.248317 246.269575 
L 348.930838 247.163602 
L 348.295879 248.059976 
L 348.613358 248.059976 
L 349.248317 247.761966 
L 349.565797 247.761966 
L 349.248317 248.655994 
L 349.565797 248.954003 
L 349.883276 248.655994 
L 349.883276 248.059976 
L 350.518236 246.865593 
L 350.518236 247.163602 
L 349.883276 247.461611 
L 348.930838 247.461611 
L 348.613358 246.865593 
L 348.930838 246.269575 
L 349.883276 245.971566 
L 350.518236 246.269575 
L 350.200756 247.163602 
L 349.248317 247.461611 
L 348.613358 247.461611 
L 349.248317 247.163602 
L 349.565797 247.461611 
L 349.883276 248.059976 
L 349.883276 248.357985 
L 350.518236 248.357985 
L 350.839948 248.655994 
L 350.839948 248.357985 
L 350.200756 248.059976 
L 349.565797 248.357985 
L 349.883276 248.655994 
L 350.200756 248.655994 
L 349.883276 248.357985 
L 349.565797 248.357985 
L 349.565797 248.655994 
L 349.883276 248.954003 
L 350.518236 248.655994 
L 350.518236 248.357985 
L 349.883276 248.357985 
L 349.248317 248.059976 
L 348.930838 247.461611 
L 350.518236 247.461611 
L 350.839948 247.163602 
L 350.518236 246.567584 
L 350.518236 246.567584 
L 350.518236 246.865593 
L 350.200756 246.567584 
L 350.200756 246.269575 
L 350.200756 246.269575 
L 351.474907 245.673557 
L 352.109866 245.673557 
L 350.839948 246.269575 
L 350.839948 245.075192 
L 350.518236 245.075192 
L 350.200756 245.375547 
L 350.200756 245.673557 
L 350.839948 245.673557 
L 350.518236 245.673557 
L 349.883276 245.375547 
L 349.248317 245.375547 
L 349.565797 245.971566 
L 350.518236 245.971566 
L 350.518236 245.375547 
L 350.200756 244.777183 
L 350.200756 244.181165 
L 350.518236 243.883156 
L 350.518236 243.883156 
L 349.883276 243.883156 
L 349.883276 244.181165 
L 349.565797 244.777183 
L 348.930838 244.777183 
L 348.930838 243.585147 
L 349.248317 243.287138 
L 348.930838 242.688773 
L 348.930838 243.287138 
L 349.565797 242.989128 
L 350.200756 242.390764 
L 349.883276 242.092755 
L 350.200756 242.092755 
L 350.200756 241.794746 
L 349.883276 241.496737 
L 349.565797 240.602709 
L 348.613358 240.602709 
L 348.930838 240.900719 
L 349.248317 240.900719 
L 350.200756 240.602709 
L 350.518236 240.302354 
L 350.200756 240.302354 
L 350.200756 241.198728 
L 348.295879 240.602709 
L 348.295879 240.602709 
L 349.883276 242.092755 
L 350.200756 242.092755 
L 350.200756 241.794746 
L 350.200756 241.794746 
L 349.883276 241.496737 
L 349.883276 241.198728 
L 350.200756 241.198728 
L 349.565797 241.794746 
L 349.565797 241.198728 
L 349.883276 240.602709 
L 349.565797 240.004345 
L 348.930838 240.302354 
L 348.930838 240.602709 
L 348.930838 239.110318 
L 348.930838 239.408327 
L 348.613358 240.004345 
L 348.613358 240.302354 
L 348.613358 239.706336 
L 348.930838 239.110318 
L 349.248317 239.110318 
L 350.518236 239.706336 
L 350.839948 239.706336 
L 349.565797 239.110318 
L 349.248317 239.110318 
L 348.613358 239.408327 
L 348.613358 238.812309 
L 348.295879 238.5143 
L 347.978399 238.812309 
L 348.613358 238.5143 
L 349.565797 237.915935 
L 349.565797 237.319917 
L 350.200756 237.319917 
L 350.200756 238.21629 
L 349.565797 239.408327 
L 348.930838 240.004345 
L 348.613358 239.706336 
L 348.930838 238.21629 
L 349.248317 238.5143 
L 348.613358 238.812309 
L 347.978399 238.5143 
L 348.295879 237.915935 
L 349.248317 237.915935 
L 349.883276 238.5143 
L 349.565797 238.21629 
L 349.565797 238.5143 
L 350.200756 238.812309 
L 349.883276 239.110318 
L 349.248317 238.812309 
L 348.930838 238.5143 
L 348.930838 237.915935 
L 348.930838 239.706336 
L 348.930838 239.706336 
L 349.248317 238.812309 
L 349.883276 238.21629 
L 349.565797 238.5143 
L 348.930838 239.408327 
L 348.930838 239.408327 
L 349.565797 237.617926 
L 349.565797 237.617926 
L 350.200756 238.21629 
L 350.518236 238.812309 
L 350.200756 239.110318 
L 349.248317 239.110318 
L 348.295879 238.21629 
L 348.930838 237.915935 
L 349.248317 237.915935 
L 349.565797 237.617926 
L 349.565797 237.617926 
L 350.200756 237.617926 
L 349.883276 238.21629 
L 349.248317 237.915935 
L 348.930838 237.915935 
L 348.930838 238.812309 
L 349.248317 238.21629 
L 349.565797 237.319917 
L 349.565797 237.617926 
L 349.565797 238.5143 
L 348.930838 238.812309 
L 348.930838 238.5143 
L 349.565797 237.915935 
L 349.565797 238.5143 
L 349.248317 238.5143 
L 348.930838 237.915935 
L 349.565797 237.319917 
L 350.200756 237.319917 
L 350.518236 237.617926 
L 349.565797 237.915935 
L 348.930838 237.915935 
L 348.930838 237.617926 
L 348.613358 237.021908 
L 347.66092 237.021908 
L 347.025961 237.319917 
L 347.66092 237.915935 
L 348.295879 237.617926 
L 347.978399 237.319917 
L 347.34344 237.319917 
L 346.708481 236.723899 
L 347.025961 236.42589 
L 347.34344 236.723899 
L 347.34344 236.42589 
L 347.66092 235.829871 
L 347.978399 235.531862 
L 347.66092 234.933498 
L 347.66092 234.635489 
L 347.978399 234.933498 
L 347.34344 235.829871 
L 347.025961 236.723899 
L 347.34344 237.319917 
L 347.978399 237.319917 
L 347.978399 237.319917 
L 347.025961 237.617926 
L 346.708481 237.021908 
L 346.708481 236.42589 
L 347.34344 236.127881 
L 347.66092 236.127881 
L 347.34344 236.127881 
L 347.025961 235.531862 
L 347.025961 234.933498 
L 346.708481 234.933498 
L 347.34344 234.933498 
L 347.978399 235.829871 
L 347.66092 236.42589 
L 346.391002 236.42589 
L 345.756043 236.723899 
L 346.391002 236.42589 
L 347.025961 235.829871 
L 347.025961 235.231507 
L 347.025961 235.231507 
L 347.34344 235.531862 
L 347.34344 235.829871 
L 347.66092 235.829871 
L 347.66092 235.531862 
L 346.708481 234.635489 
L 347.025961 234.933498 
L 347.34344 234.933498 
L 347.34344 234.635489 
L 346.073522 234.635489 
L 345.756043 234.933498 
L 345.438563 235.829871 
L 345.756043 236.42589 
L 345.756043 236.127881 
L 345.756043 236.127881 
L 346.073522 236.42589 
L 346.708481 235.829871 
L 346.708481 235.531862 
L 346.391002 235.231507 
L 346.073522 235.531862 
L 346.073522 235.829871 
L 346.073522 235.829871 
" style="fill:none;stroke:#1f77b4;stroke-linecap:square;stroke-width:1.5;"/>
   </g>
   <g id="matplotlib.axis_1">
    <g id="xtick_1">
     <g id="line2d_2">
      <defs>
       <path d="M 0 0 
L 0 3.5 
" id="m824eefab55" style="stroke:#000000;stroke-width:0.8;"/>
      </defs>
      <g>
       <use style="stroke:#000000;stroke-width:0.8;" x="74.41689" xlink:href="#m824eefab55" y="307.584"/>
      </g>
     </g>
     <g id="text_1">
      <!-- −400 -->
      <defs>
       <path d="M 10.59375 35.5 
L 73.1875 35.5 
L 73.1875 27.203125 
L 10.59375 27.203125 
z
" id="DejaVuSans-8722"/>
       <path d="M 37.796875 64.3125 
L 12.890625 25.390625 
L 37.796875 25.390625 
z
M 35.203125 72.90625 
L 47.609375 72.90625 
L 47.609375 25.390625 
L 58.015625 25.390625 
L 58.015625 17.1875 
L 47.609375 17.1875 
L 47.609375 0 
L 37.796875 0 
L 37.796875 17.1875 
L 4.890625 17.1875 
L 4.890625 26.703125 
z
" id="DejaVuSans-52"/>
       <path d="M 31.78125 66.40625 
Q 24.171875 66.40625 20.328125 58.90625 
Q 16.5 51.421875 16.5 36.375 
Q 16.5 21.390625 20.328125 13.890625 
Q 24.171875 6.390625 31.78125 6.390625 
Q 39.453125 6.390625 43.28125 13.890625 
Q 47.125 21.390625 47.125 36.375 
Q 47.125 51.421875 43.28125 58.90625 
Q 39.453125 66.40625 31.78125 66.40625 
z
M 31.78125 74.21875 
Q 44.046875 74.21875 50.515625 64.515625 
Q 56.984375 54.828125 56.984375 36.375 
Q 56.984375 17.96875 50.515625 8.265625 
Q 44.046875 -1.421875 31.78125 -1.421875 
Q 19.53125 -1.421875 13.0625 8.265625 
Q 6.59375 17.96875 6.59375 36.375 
Q 6.59375 54.828125 13.0625 64.515625 
Q 19.53125 74.21875 31.78125 74.21875 
z
" id="DejaVuSans-48"/>
      </defs>
      <g transform="translate(60.683296 322.182437)scale(0.1 -0.1)">
       <use xlink:href="#DejaVuSans-8722"/>
       <use x="83.789062" xlink:href="#DejaVuSans-52"/>
       <use x="147.412109" xlink:href="#DejaVuSans-48"/>
       <use x="211.035156" xlink:href="#DejaVuSans-48"/>
      </g>
     </g>
    </g>
    <g id="xtick_2">
     <g id="line2d_3">
      <g>
       <use style="stroke:#000000;stroke-width:0.8;" x="116.747491" xlink:href="#m824eefab55" y="307.584"/>
      </g>
     </g>
     <g id="text_2">
      <!-- −300 -->
      <defs>
       <path d="M 40.578125 39.3125 
Q 47.65625 37.796875 51.625 33 
Q 55.609375 28.21875 55.609375 21.1875 
Q 55.609375 10.40625 48.1875 4.484375 
Q 40.765625 -1.421875 27.09375 -1.421875 
Q 22.515625 -1.421875 17.65625 -0.515625 
Q 12.796875 0.390625 7.625 2.203125 
L 7.625 11.71875 
Q 11.71875 9.328125 16.59375 8.109375 
Q 21.484375 6.890625 26.8125 6.890625 
Q 36.078125 6.890625 40.9375 10.546875 
Q 45.796875 14.203125 45.796875 21.1875 
Q 45.796875 27.640625 41.28125 31.265625 
Q 36.765625 34.90625 28.71875 34.90625 
L 20.21875 34.90625 
L 20.21875 43.015625 
L 29.109375 43.015625 
Q 36.375 43.015625 40.234375 45.921875 
Q 44.09375 48.828125 44.09375 54.296875 
Q 44.09375 59.90625 40.109375 62.90625 
Q 36.140625 65.921875 28.71875 65.921875 
Q 24.65625 65.921875 20.015625 65.03125 
Q 15.375 64.15625 9.8125 62.3125 
L 9.8125 71.09375 
Q 15.4375 72.65625 20.34375 73.4375 
Q 25.25 74.21875 29.59375 74.21875 
Q 40.828125 74.21875 47.359375 69.109375 
Q 53.90625 64.015625 53.90625 55.328125 
Q 53.90625 49.265625 50.4375 45.09375 
Q 46.96875 40.921875 40.578125 39.3125 
z
" id="DejaVuSans-51"/>
      </defs>
      <g transform="translate(103.013897 322.182437)scale(0.1 -0.1)">
       <use xlink:href="#DejaVuSans-8722"/>
       <use x="83.789062" xlink:href="#DejaVuSans-51"/>
       <use x="147.412109" xlink:href="#DejaVuSans-48"/>
       <use x="211.035156" xlink:href="#DejaVuSans-48"/>
      </g>
     </g>
    </g>
    <g id="xtick_3">
     <g id="line2d_4">
      <g>
       <use style="stroke:#000000;stroke-width:0.8;" x="159.078092" xlink:href="#m824eefab55" y="307.584"/>
      </g>
     </g>
     <g id="text_3">
      <!-- −200 -->
      <defs>
       <path d="M 19.1875 8.296875 
L 53.609375 8.296875 
L 53.609375 0 
L 7.328125 0 
L 7.328125 8.296875 
Q 12.9375 14.109375 22.625 23.890625 
Q 32.328125 33.6875 34.8125 36.53125 
Q 39.546875 41.84375 41.421875 45.53125 
Q 43.3125 49.21875 43.3125 52.78125 
Q 43.3125 58.59375 39.234375 62.25 
Q 35.15625 65.921875 28.609375 65.921875 
Q 23.96875 65.921875 18.8125 64.3125 
Q 13.671875 62.703125 7.8125 59.421875 
L 7.8125 69.390625 
Q 13.765625 71.78125 18.9375 73 
Q 24.125 74.21875 28.421875 74.21875 
Q 39.75 74.21875 46.484375 68.546875 
Q 53.21875 62.890625 53.21875 53.421875 
Q 53.21875 48.921875 51.53125 44.890625 
Q 49.859375 40.875 45.40625 35.40625 
Q 44.1875 33.984375 37.640625 27.21875 
Q 31.109375 20.453125 19.1875 8.296875 
z
" id="DejaVuSans-50"/>
      </defs>
      <g transform="translate(145.344498 322.182437)scale(0.1 -0.1)">
       <use xlink:href="#DejaVuSans-8722"/>
       <use x="83.789062" xlink:href="#DejaVuSans-50"/>
       <use x="147.412109" xlink:href="#DejaVuSans-48"/>
       <use x="211.035156" xlink:href="#DejaVuSans-48"/>
      </g>
     </g>
    </g>
    <g id="xtick_4">
     <g id="line2d_5">
      <g>
       <use style="stroke:#000000;stroke-width:0.8;" x="201.408693" xlink:href="#m824eefab55" y="307.584"/>
      </g>
     </g>
     <g id="text_4">
      <!-- −100 -->
      <defs>
       <path d="M 12.40625 8.296875 
L 28.515625 8.296875 
L 28.515625 63.921875 
L 10.984375 60.40625 
L 10.984375 69.390625 
L 28.421875 72.90625 
L 38.28125 72.90625 
L 38.28125 8.296875 
L 54.390625 8.296875 
L 54.390625 0 
L 12.40625 0 
z
" id="DejaVuSans-49"/>
      </defs>
      <g transform="translate(187.675099 322.182437)scale(0.1 -0.1)">
       <use xlink:href="#DejaVuSans-8722"/>
       <use x="83.789062" xlink:href="#DejaVuSans-49"/>
       <use x="147.412109" xlink:href="#DejaVuSans-48"/>
       <use x="211.035156" xlink:href="#DejaVuSans-48"/>
      </g>
     </g>
    </g>
    <g id="xtick_5">
     <g id="line2d_6">
      <g>
       <use style="stroke:#000000;stroke-width:0.8;" x="243.739294" xlink:href="#m824eefab55" y="307.584"/>
      </g>
     </g>
     <g id="text_5">
      <!-- 0 -->
      <g transform="translate(240.558044 322.182437)scale(0.1 -0.1)">
       <use xlink:href="#DejaVuSans-48"/>
      </g>
     </g>
    </g>
    <g id="xtick_6">
     <g id="line2d_7">
      <g>
       <use style="stroke:#000000;stroke-width:0.8;" x="286.069895" xlink:href="#m824eefab55" y="307.584"/>
      </g>
     </g>
     <g id="text_6">
      <!-- 100 -->
      <g transform="translate(276.526145 322.182437)scale(0.1 -0.1)">
       <use xlink:href="#DejaVuSans-49"/>
       <use x="63.623047" xlink:href="#DejaVuSans-48"/>
       <use x="127.246094" xlink:href="#DejaVuSans-48"/>
      </g>
     </g>
    </g>
    <g id="xtick_7">
     <g id="line2d_8">
      <g>
       <use style="stroke:#000000;stroke-width:0.8;" x="328.400496" xlink:href="#m824eefab55" y="307.584"/>
      </g>
     </g>
     <g id="text_7">
      <!-- 200 -->
      <g transform="translate(318.856746 322.182437)scale(0.1 -0.1)">
       <use xlink:href="#DejaVuSans-50"/>
       <use x="63.623047" xlink:href="#DejaVuSans-48"/>
       <use x="127.246094" xlink:href="#DejaVuSans-48"/>
      </g>
     </g>
    </g>
    <g id="xtick_8">
     <g id="line2d_9">
      <g>
       <use style="stroke:#000000;stroke-width:0.8;" x="370.731098" xlink:href="#m824eefab55" y="307.584"/>
      </g>
     </g>
     <g id="text_8">
      <!-- 300 -->
      <g transform="translate(361.187348 322.182437)scale(0.1 -0.1)">
       <use xlink:href="#DejaVuSans-51"/>
       <use x="63.623047" xlink:href="#DejaVuSans-48"/>
       <use x="127.246094" xlink:href="#DejaVuSans-48"/>
      </g>
     </g>
    </g>
    <g id="xtick_9">
     <g id="line2d_10">
      <g>
       <use style="stroke:#000000;stroke-width:0.8;" x="413.061699" xlink:href="#m824eefab55" y="307.584"/>
      </g>
     </g>
     <g id="text_9">
      <!-- 400 -->
      <g transform="translate(403.517949 322.182437)scale(0.1 -0.1)">
       <use xlink:href="#DejaVuSans-52"/>
       <use x="63.623047" xlink:href="#DejaVuSans-48"/>
       <use x="127.246094" xlink:href="#DejaVuSans-48"/>
      </g>
     </g>
    </g>
   </g>
   <g id="matplotlib.axis_2">
    <g id="ytick_1">
     <g id="line2d_11">
      <defs>
       <path d="M 0 0 
L -3.5 0 
" id="m387b2dc4b4" style="stroke:#000000;stroke-width:0.8;"/>
      </defs>
      <g>
       <use style="stroke:#000000;stroke-width:0.8;" x="57.6" xlink:href="#m387b2dc4b4" y="274.080625"/>
      </g>
     </g>
     <g id="text_10">
      <!-- −600 -->
      <defs>
       <path d="M 33.015625 40.375 
Q 26.375 40.375 22.484375 35.828125 
Q 18.609375 31.296875 18.609375 23.390625 
Q 18.609375 15.53125 22.484375 10.953125 
Q 26.375 6.390625 33.015625 6.390625 
Q 39.65625 6.390625 43.53125 10.953125 
Q 47.40625 15.53125 47.40625 23.390625 
Q 47.40625 31.296875 43.53125 35.828125 
Q 39.65625 40.375 33.015625 40.375 
z
M 52.59375 71.296875 
L 52.59375 62.3125 
Q 48.875 64.0625 45.09375 64.984375 
Q 41.3125 65.921875 37.59375 65.921875 
Q 27.828125 65.921875 22.671875 59.328125 
Q 17.53125 52.734375 16.796875 39.40625 
Q 19.671875 43.65625 24.015625 45.921875 
Q 28.375 48.1875 33.59375 48.1875 
Q 44.578125 48.1875 50.953125 41.515625 
Q 57.328125 34.859375 57.328125 23.390625 
Q 57.328125 12.15625 50.6875 5.359375 
Q 44.046875 -1.421875 33.015625 -1.421875 
Q 20.359375 -1.421875 13.671875 8.265625 
Q 6.984375 17.96875 6.984375 36.375 
Q 6.984375 53.65625 15.1875 63.9375 
Q 23.390625 74.21875 37.203125 74.21875 
Q 40.921875 74.21875 44.703125 73.484375 
Q 48.484375 72.75 52.59375 71.296875 
z
" id="DejaVuSans-54"/>
      </defs>
      <g transform="translate(23.132812 277.879844)scale(0.1 -0.1)">
       <use xlink:href="#DejaVuSans-8722"/>
       <use x="83.789062" xlink:href="#DejaVuSans-54"/>
       <use x="147.412109" xlink:href="#DejaVuSans-48"/>
       <use x="211.035156" xlink:href="#DejaVuSans-48"/>
      </g>
     </g>
    </g>
    <g id="ytick_2">
     <g id="line2d_12">
      <g>
       <use style="stroke:#000000;stroke-width:0.8;" x="57.6" xlink:href="#m387b2dc4b4" y="227.150064"/>
      </g>
     </g>
     <g id="text_11">
      <!-- −400 -->
      <g transform="translate(23.132812 230.949283)scale(0.1 -0.1)">
       <use xlink:href="#DejaVuSans-8722"/>
       <use x="83.789062" xlink:href="#DejaVuSans-52"/>
       <use x="147.412109" xlink:href="#DejaVuSans-48"/>
       <use x="211.035156" xlink:href="#DejaVuSans-48"/>
      </g>
     </g>
    </g>
    <g id="ytick_3">
     <g id="line2d_13">
      <g>
       <use style="stroke:#000000;stroke-width:0.8;" x="57.6" xlink:href="#m387b2dc4b4" y="180.219504"/>
      </g>
     </g>
     <g id="text_12">
      <!-- −200 -->
      <g transform="translate(23.132812 184.018722)scale(0.1 -0.1)">
       <use xlink:href="#DejaVuSans-8722"/>
       <use x="83.789062" xlink:href="#DejaVuSans-50"/>
       <use x="147.412109" xlink:href="#DejaVuSans-48"/>
       <use x="211.035156" xlink:href="#DejaVuSans-48"/>
      </g>
     </g>
    </g>
    <g id="ytick_4">
     <g id="line2d_14">
      <g>
       <use style="stroke:#000000;stroke-width:0.8;" x="57.6" xlink:href="#m387b2dc4b4" y="133.288943"/>
      </g>
     </g>
     <g id="text_13">
      <!-- 0 -->
      <g transform="translate(44.2375 137.088162)scale(0.1 -0.1)">
       <use xlink:href="#DejaVuSans-48"/>
      </g>
     </g>
    </g>
    <g id="ytick_5">
     <g id="line2d_15">
      <g>
       <use style="stroke:#000000;stroke-width:0.8;" x="57.6" xlink:href="#m387b2dc4b4" y="86.358383"/>
      </g>
     </g>
     <g id="text_14">
      <!-- 200 -->
      <g transform="translate(31.5125 90.157601)scale(0.1 -0.1)">
       <use xlink:href="#DejaVuSans-50"/>
       <use x="63.623047" xlink:href="#DejaVuSans-48"/>
       <use x="127.246094" xlink:href="#DejaVuSans-48"/>
      </g>
     </g>
    </g>
   </g>
   <g id="line2d_16">
    <path clip-path="url(#pd10cb20546)" d="M 393.894716 60.547186 
L 78.672395 290.970962 
L 327.184954 251.747017 
L 349.433218 241.472586 
" style="fill:none;stroke:#ff0000;stroke-linecap:square;stroke-width:0.5;"/>
   </g>
   <g id="patch_3">
    <path d="M 57.6 307.584 
L 57.6 41.472 
" style="fill:none;stroke:#000000;stroke-linecap:square;stroke-linejoin:miter;stroke-width:0.8;"/>
   </g>
   <g id="patch_4">
    <path d="M 414.72 307.584 
L 414.72 41.472 
" style="fill:none;stroke:#000000;stroke-linecap:square;stroke-linejoin:miter;stroke-width:0.8;"/>
   </g>
   <g id="patch_5">
    <path d="M 57.6 307.584 
L 414.72 307.584 
" style="fill:none;stroke:#000000;stroke-linecap:square;stroke-linejoin:miter;stroke-width:0.8;"/>
   </g>
   <g id="patch_6">
    <path d="M 57.6 41.472 
L 414.72 41.472 
" style="fill:none;stroke:#000000;stroke-linecap:square;stroke-linejoin:miter;stroke-width:0.8;"/>
   </g>
   <g id="PathCollection_1">
    <defs>
     <path d="M 0 2.738613 
C 0.726289 2.738613 1.422928 2.450055 1.936492 1.936492 
C 2.450055 1.422928 2.738613 0.726289 2.738613 0 
C 2.738613 -0.726289 2.450055 -1.422928 1.936492 -1.936492 
C 1.422928 -2.450055 0.726289 -2.738613 0 -2.738613 
C -0.726289 -2.738613 -1.422928 -2.450055 -1.936492 -1.936492 
C -2.450055 -1.422928 -2.738613 -0.726289 -2.738613 0 
C -2.738613 0.726289 -2.450055 1.422928 -1.936492 1.936492 
C -1.422928 2.450055 -0.726289 2.738613 0 2.738613 
z
" id="m79f2fdda65" style="stroke:#ff0000;"/>
    </defs>
    <g clip-path="url(#pd10cb20546)">
     <use style="fill:#ff0000;stroke:#ff0000;" x="393.894716" xlink:href="#m79f2fdda65" y="60.547186"/>
     <use style="fill:#ff0000;stroke:#ff0000;" x="78.672395" xlink:href="#m79f2fdda65" y="290.970962"/>
     <use style="fill:#ff0000;stroke:#ff0000;" x="327.184954" xlink:href="#m79f2fdda65" y="251.747017"/>
     <use style="fill:#ff0000;stroke:#ff0000;" x="349.433218" xlink:href="#m79f2fdda65" y="241.472586"/>
    </g>
   </g>
   <g id="text_15">
    <!-- (146) Subject: s3, Known = True, Degree = 1, Duration = 0.1 -->
    <defs>
     <path d="M 31 75.875 
Q 24.46875 64.65625 21.28125 53.65625 
Q 18.109375 42.671875 18.109375 31.390625 
Q 18.109375 20.125 21.3125 9.0625 
Q 24.515625 -2 31 -13.1875 
L 23.1875 -13.1875 
Q 15.875 -1.703125 12.234375 9.375 
Q 8.59375 20.453125 8.59375 31.390625 
Q 8.59375 42.28125 12.203125 53.3125 
Q 15.828125 64.359375 23.1875 75.875 
z
" id="DejaVuSans-40"/>
     <path d="M 8.015625 75.875 
L 15.828125 75.875 
Q 23.140625 64.359375 26.78125 53.3125 
Q 30.421875 42.28125 30.421875 31.390625 
Q 30.421875 20.453125 26.78125 9.375 
Q 23.140625 -1.703125 15.828125 -13.1875 
L 8.015625 -13.1875 
Q 14.5 -2 17.703125 9.0625 
Q 20.90625 20.125 20.90625 31.390625 
Q 20.90625 42.671875 17.703125 53.65625 
Q 14.5 64.65625 8.015625 75.875 
z
" id="DejaVuSans-41"/>
     <path id="DejaVuSans-32"/>
     <path d="M 53.515625 70.515625 
L 53.515625 60.890625 
Q 47.90625 63.578125 42.921875 64.890625 
Q 37.9375 66.21875 33.296875 66.21875 
Q 25.25 66.21875 20.875 63.09375 
Q 16.5 59.96875 16.5 54.203125 
Q 16.5 49.359375 19.40625 46.890625 
Q 22.3125 44.4375 30.421875 42.921875 
L 36.375 41.703125 
Q 47.40625 39.59375 52.65625 34.296875 
Q 57.90625 29 57.90625 20.125 
Q 57.90625 9.515625 50.796875 4.046875 
Q 43.703125 -1.421875 29.984375 -1.421875 
Q 24.8125 -1.421875 18.96875 -0.25 
Q 13.140625 0.921875 6.890625 3.21875 
L 6.890625 13.375 
Q 12.890625 10.015625 18.65625 8.296875 
Q 24.421875 6.59375 29.984375 6.59375 
Q 38.421875 6.59375 43.015625 9.90625 
Q 47.609375 13.234375 47.609375 19.390625 
Q 47.609375 24.75 44.3125 27.78125 
Q 41.015625 30.8125 33.5 32.328125 
L 27.484375 33.5 
Q 16.453125 35.6875 11.515625 40.375 
Q 6.59375 45.0625 6.59375 53.421875 
Q 6.59375 63.09375 13.40625 68.65625 
Q 20.21875 74.21875 32.171875 74.21875 
Q 37.3125 74.21875 42.625 73.28125 
Q 47.953125 72.359375 53.515625 70.515625 
z
" id="DejaVuSans-83"/>
     <path d="M 8.5 21.578125 
L 8.5 54.6875 
L 17.484375 54.6875 
L 17.484375 21.921875 
Q 17.484375 14.15625 20.5 10.265625 
Q 23.53125 6.390625 29.59375 6.390625 
Q 36.859375 6.390625 41.078125 11.03125 
Q 45.3125 15.671875 45.3125 23.6875 
L 45.3125 54.6875 
L 54.296875 54.6875 
L 54.296875 0 
L 45.3125 0 
L 45.3125 8.40625 
Q 42.046875 3.421875 37.71875 1 
Q 33.40625 -1.421875 27.6875 -1.421875 
Q 18.265625 -1.421875 13.375 4.4375 
Q 8.5 10.296875 8.5 21.578125 
z
M 31.109375 56 
z
" id="DejaVuSans-117"/>
     <path d="M 48.6875 27.296875 
Q 48.6875 37.203125 44.609375 42.84375 
Q 40.53125 48.484375 33.40625 48.484375 
Q 26.265625 48.484375 22.1875 42.84375 
Q 18.109375 37.203125 18.109375 27.296875 
Q 18.109375 17.390625 22.1875 11.75 
Q 26.265625 6.109375 33.40625 6.109375 
Q 40.53125 6.109375 44.609375 11.75 
Q 48.6875 17.390625 48.6875 27.296875 
z
M 18.109375 46.390625 
Q 20.953125 51.265625 25.265625 53.625 
Q 29.59375 56 35.59375 56 
Q 45.5625 56 51.78125 48.09375 
Q 58.015625 40.1875 58.015625 27.296875 
Q 58.015625 14.40625 51.78125 6.484375 
Q 45.5625 -1.421875 35.59375 -1.421875 
Q 29.59375 -1.421875 25.265625 0.953125 
Q 20.953125 3.328125 18.109375 8.203125 
L 18.109375 0 
L 9.078125 0 
L 9.078125 75.984375 
L 18.109375 75.984375 
z
" id="DejaVuSans-98"/>
     <path d="M 9.421875 54.6875 
L 18.40625 54.6875 
L 18.40625 -0.984375 
Q 18.40625 -11.421875 14.421875 -16.109375 
Q 10.453125 -20.796875 1.609375 -20.796875 
L -1.8125 -20.796875 
L -1.8125 -13.1875 
L 0.59375 -13.1875 
Q 5.71875 -13.1875 7.5625 -10.8125 
Q 9.421875 -8.453125 9.421875 -0.984375 
z
M 9.421875 75.984375 
L 18.40625 75.984375 
L 18.40625 64.59375 
L 9.421875 64.59375 
z
" id="DejaVuSans-106"/>
     <path d="M 56.203125 29.59375 
L 56.203125 25.203125 
L 14.890625 25.203125 
Q 15.484375 15.921875 20.484375 11.0625 
Q 25.484375 6.203125 34.421875 6.203125 
Q 39.59375 6.203125 44.453125 7.46875 
Q 49.3125 8.734375 54.109375 11.28125 
L 54.109375 2.78125 
Q 49.265625 0.734375 44.1875 -0.34375 
Q 39.109375 -1.421875 33.890625 -1.421875 
Q 20.796875 -1.421875 13.15625 6.1875 
Q 5.515625 13.8125 5.515625 26.8125 
Q 5.515625 40.234375 12.765625 48.109375 
Q 20.015625 56 32.328125 56 
Q 43.359375 56 49.78125 48.890625 
Q 56.203125 41.796875 56.203125 29.59375 
z
M 47.21875 32.234375 
Q 47.125 39.59375 43.09375 43.984375 
Q 39.0625 48.390625 32.421875 48.390625 
Q 24.90625 48.390625 20.390625 44.140625 
Q 15.875 39.890625 15.1875 32.171875 
z
" id="DejaVuSans-101"/>
     <path d="M 48.78125 52.59375 
L 48.78125 44.1875 
Q 44.96875 46.296875 41.140625 47.34375 
Q 37.3125 48.390625 33.40625 48.390625 
Q 24.65625 48.390625 19.8125 42.84375 
Q 14.984375 37.3125 14.984375 27.296875 
Q 14.984375 17.28125 19.8125 11.734375 
Q 24.65625 6.203125 33.40625 6.203125 
Q 37.3125 6.203125 41.140625 7.25 
Q 44.96875 8.296875 48.78125 10.40625 
L 48.78125 2.09375 
Q 45.015625 0.34375 40.984375 -0.53125 
Q 36.96875 -1.421875 32.421875 -1.421875 
Q 20.0625 -1.421875 12.78125 6.34375 
Q 5.515625 14.109375 5.515625 27.296875 
Q 5.515625 40.671875 12.859375 48.328125 
Q 20.21875 56 33.015625 56 
Q 37.15625 56 41.109375 55.140625 
Q 45.0625 54.296875 48.78125 52.59375 
z
" id="DejaVuSans-99"/>
     <path d="M 18.3125 70.21875 
L 18.3125 54.6875 
L 36.8125 54.6875 
L 36.8125 47.703125 
L 18.3125 47.703125 
L 18.3125 18.015625 
Q 18.3125 11.328125 20.140625 9.421875 
Q 21.96875 7.515625 27.59375 7.515625 
L 36.8125 7.515625 
L 36.8125 0 
L 27.59375 0 
Q 17.1875 0 13.234375 3.875 
Q 9.28125 7.765625 9.28125 18.015625 
L 9.28125 47.703125 
L 2.6875 47.703125 
L 2.6875 54.6875 
L 9.28125 54.6875 
L 9.28125 70.21875 
z
" id="DejaVuSans-116"/>
     <path d="M 11.71875 12.40625 
L 22.015625 12.40625 
L 22.015625 0 
L 11.71875 0 
z
M 11.71875 51.703125 
L 22.015625 51.703125 
L 22.015625 39.3125 
L 11.71875 39.3125 
z
" id="DejaVuSans-58"/>
     <path d="M 44.28125 53.078125 
L 44.28125 44.578125 
Q 40.484375 46.53125 36.375 47.5 
Q 32.28125 48.484375 27.875 48.484375 
Q 21.1875 48.484375 17.84375 46.4375 
Q 14.5 44.390625 14.5 40.28125 
Q 14.5 37.15625 16.890625 35.375 
Q 19.28125 33.59375 26.515625 31.984375 
L 29.59375 31.296875 
Q 39.15625 29.25 43.1875 25.515625 
Q 47.21875 21.78125 47.21875 15.09375 
Q 47.21875 7.46875 41.1875 3.015625 
Q 35.15625 -1.421875 24.609375 -1.421875 
Q 20.21875 -1.421875 15.453125 -0.5625 
Q 10.6875 0.296875 5.421875 2 
L 5.421875 11.28125 
Q 10.40625 8.6875 15.234375 7.390625 
Q 20.0625 6.109375 24.8125 6.109375 
Q 31.15625 6.109375 34.5625 8.28125 
Q 37.984375 10.453125 37.984375 14.40625 
Q 37.984375 18.0625 35.515625 20.015625 
Q 33.0625 21.96875 24.703125 23.78125 
L 21.578125 24.515625 
Q 13.234375 26.265625 9.515625 29.90625 
Q 5.8125 33.546875 5.8125 39.890625 
Q 5.8125 47.609375 11.28125 51.796875 
Q 16.75 56 26.8125 56 
Q 31.78125 56 36.171875 55.265625 
Q 40.578125 54.546875 44.28125 53.078125 
z
" id="DejaVuSans-115"/>
     <path d="M 11.71875 12.40625 
L 22.015625 12.40625 
L 22.015625 4 
L 14.015625 -11.625 
L 7.71875 -11.625 
L 11.71875 4 
z
" id="DejaVuSans-44"/>
     <path d="M 9.8125 72.90625 
L 19.671875 72.90625 
L 19.671875 42.09375 
L 52.390625 72.90625 
L 65.09375 72.90625 
L 28.90625 38.921875 
L 67.671875 0 
L 54.6875 0 
L 19.671875 35.109375 
L 19.671875 0 
L 9.8125 0 
z
" id="DejaVuSans-75"/>
     <path d="M 54.890625 33.015625 
L 54.890625 0 
L 45.90625 0 
L 45.90625 32.71875 
Q 45.90625 40.484375 42.875 44.328125 
Q 39.84375 48.1875 33.796875 48.1875 
Q 26.515625 48.1875 22.3125 43.546875 
Q 18.109375 38.921875 18.109375 30.90625 
L 18.109375 0 
L 9.078125 0 
L 9.078125 54.6875 
L 18.109375 54.6875 
L 18.109375 46.1875 
Q 21.34375 51.125 25.703125 53.5625 
Q 30.078125 56 35.796875 56 
Q 45.21875 56 50.046875 50.171875 
Q 54.890625 44.34375 54.890625 33.015625 
z
" id="DejaVuSans-110"/>
     <path d="M 30.609375 48.390625 
Q 23.390625 48.390625 19.1875 42.75 
Q 14.984375 37.109375 14.984375 27.296875 
Q 14.984375 17.484375 19.15625 11.84375 
Q 23.34375 6.203125 30.609375 6.203125 
Q 37.796875 6.203125 41.984375 11.859375 
Q 46.1875 17.53125 46.1875 27.296875 
Q 46.1875 37.015625 41.984375 42.703125 
Q 37.796875 48.390625 30.609375 48.390625 
z
M 30.609375 56 
Q 42.328125 56 49.015625 48.375 
Q 55.71875 40.765625 55.71875 27.296875 
Q 55.71875 13.875 49.015625 6.21875 
Q 42.328125 -1.421875 30.609375 -1.421875 
Q 18.84375 -1.421875 12.171875 6.21875 
Q 5.515625 13.875 5.515625 27.296875 
Q 5.515625 40.765625 12.171875 48.375 
Q 18.84375 56 30.609375 56 
z
" id="DejaVuSans-111"/>
     <path d="M 4.203125 54.6875 
L 13.1875 54.6875 
L 24.421875 12.015625 
L 35.59375 54.6875 
L 46.1875 54.6875 
L 57.421875 12.015625 
L 68.609375 54.6875 
L 77.59375 54.6875 
L 63.28125 0 
L 52.6875 0 
L 40.921875 44.828125 
L 29.109375 0 
L 18.5 0 
z
" id="DejaVuSans-119"/>
     <path d="M 10.59375 45.40625 
L 73.1875 45.40625 
L 73.1875 37.203125 
L 10.59375 37.203125 
z
M 10.59375 25.484375 
L 73.1875 25.484375 
L 73.1875 17.1875 
L 10.59375 17.1875 
z
" id="DejaVuSans-61"/>
     <path d="M -0.296875 72.90625 
L 61.375 72.90625 
L 61.375 64.59375 
L 35.5 64.59375 
L 35.5 0 
L 25.59375 0 
L 25.59375 64.59375 
L -0.296875 64.59375 
z
" id="DejaVuSans-84"/>
     <path d="M 41.109375 46.296875 
Q 39.59375 47.171875 37.8125 47.578125 
Q 36.03125 48 33.890625 48 
Q 26.265625 48 22.1875 43.046875 
Q 18.109375 38.09375 18.109375 28.8125 
L 18.109375 0 
L 9.078125 0 
L 9.078125 54.6875 
L 18.109375 54.6875 
L 18.109375 46.1875 
Q 20.953125 51.171875 25.484375 53.578125 
Q 30.03125 56 36.53125 56 
Q 37.453125 56 38.578125 55.875 
Q 39.703125 55.765625 41.0625 55.515625 
z
" id="DejaVuSans-114"/>
     <path d="M 19.671875 64.796875 
L 19.671875 8.109375 
L 31.59375 8.109375 
Q 46.6875 8.109375 53.6875 14.9375 
Q 60.6875 21.78125 60.6875 36.53125 
Q 60.6875 51.171875 53.6875 57.984375 
Q 46.6875 64.796875 31.59375 64.796875 
z
M 9.8125 72.90625 
L 30.078125 72.90625 
Q 51.265625 72.90625 61.171875 64.09375 
Q 71.09375 55.28125 71.09375 36.53125 
Q 71.09375 17.671875 61.125 8.828125 
Q 51.171875 0 30.078125 0 
L 9.8125 0 
z
" id="DejaVuSans-68"/>
     <path d="M 45.40625 27.984375 
Q 45.40625 37.75 41.375 43.109375 
Q 37.359375 48.484375 30.078125 48.484375 
Q 22.859375 48.484375 18.828125 43.109375 
Q 14.796875 37.75 14.796875 27.984375 
Q 14.796875 18.265625 18.828125 12.890625 
Q 22.859375 7.515625 30.078125 7.515625 
Q 37.359375 7.515625 41.375 12.890625 
Q 45.40625 18.265625 45.40625 27.984375 
z
M 54.390625 6.78125 
Q 54.390625 -7.171875 48.1875 -13.984375 
Q 42 -20.796875 29.203125 -20.796875 
Q 24.46875 -20.796875 20.265625 -20.09375 
Q 16.0625 -19.390625 12.109375 -17.921875 
L 12.109375 -9.1875 
Q 16.0625 -11.328125 19.921875 -12.34375 
Q 23.78125 -13.375 27.78125 -13.375 
Q 36.625 -13.375 41.015625 -8.765625 
Q 45.40625 -4.15625 45.40625 5.171875 
L 45.40625 9.625 
Q 42.625 4.78125 38.28125 2.390625 
Q 33.9375 0 27.875 0 
Q 17.828125 0 11.671875 7.65625 
Q 5.515625 15.328125 5.515625 27.984375 
Q 5.515625 40.671875 11.671875 48.328125 
Q 17.828125 56 27.875 56 
Q 33.9375 56 38.28125 53.609375 
Q 42.625 51.21875 45.40625 46.390625 
L 45.40625 54.6875 
L 54.390625 54.6875 
z
" id="DejaVuSans-103"/>
     <path d="M 34.28125 27.484375 
Q 23.390625 27.484375 19.1875 25 
Q 14.984375 22.515625 14.984375 16.5 
Q 14.984375 11.71875 18.140625 8.90625 
Q 21.296875 6.109375 26.703125 6.109375 
Q 34.1875 6.109375 38.703125 11.40625 
Q 43.21875 16.703125 43.21875 25.484375 
L 43.21875 27.484375 
z
M 52.203125 31.203125 
L 52.203125 0 
L 43.21875 0 
L 43.21875 8.296875 
Q 40.140625 3.328125 35.546875 0.953125 
Q 30.953125 -1.421875 24.3125 -1.421875 
Q 15.921875 -1.421875 10.953125 3.296875 
Q 6 8.015625 6 15.921875 
Q 6 25.140625 12.171875 29.828125 
Q 18.359375 34.515625 30.609375 34.515625 
L 43.21875 34.515625 
L 43.21875 35.40625 
Q 43.21875 41.609375 39.140625 45 
Q 35.0625 48.390625 27.6875 48.390625 
Q 23 48.390625 18.546875 47.265625 
Q 14.109375 46.140625 10.015625 43.890625 
L 10.015625 52.203125 
Q 14.9375 54.109375 19.578125 55.046875 
Q 24.21875 56 28.609375 56 
Q 40.484375 56 46.34375 49.84375 
Q 52.203125 43.703125 52.203125 31.203125 
z
" id="DejaVuSans-97"/>
     <path d="M 9.421875 54.6875 
L 18.40625 54.6875 
L 18.40625 0 
L 9.421875 0 
z
M 9.421875 75.984375 
L 18.40625 75.984375 
L 18.40625 64.59375 
L 9.421875 64.59375 
z
" id="DejaVuSans-105"/>
     <path d="M 10.6875 12.40625 
L 21 12.40625 
L 21 0 
L 10.6875 0 
z
" id="DejaVuSans-46"/>
    </defs>
    <g transform="translate(51.733125 35.472)scale(0.12 -0.12)">
     <use xlink:href="#DejaVuSans-40"/>
     <use x="39.013672" xlink:href="#DejaVuSans-49"/>
     <use x="102.636719" xlink:href="#DejaVuSans-52"/>
     <use x="166.259766" xlink:href="#DejaVuSans-54"/>
     <use x="229.882812" xlink:href="#DejaVuSans-41"/>
     <use x="268.896484" xlink:href="#DejaVuSans-32"/>
     <use x="300.683594" xlink:href="#DejaVuSans-83"/>
     <use x="364.160156" xlink:href="#DejaVuSans-117"/>
     <use x="427.539062" xlink:href="#DejaVuSans-98"/>
     <use x="491.015625" xlink:href="#DejaVuSans-106"/>
     <use x="518.798828" xlink:href="#DejaVuSans-101"/>
     <use x="580.322266" xlink:href="#DejaVuSans-99"/>
     <use x="635.302734" xlink:href="#DejaVuSans-116"/>
     <use x="674.511719" xlink:href="#DejaVuSans-58"/>
     <use x="708.203125" xlink:href="#DejaVuSans-32"/>
     <use x="739.990234" xlink:href="#DejaVuSans-115"/>
     <use x="792.089844" xlink:href="#DejaVuSans-51"/>
     <use x="855.712891" xlink:href="#DejaVuSans-44"/>
     <use x="887.5" xlink:href="#DejaVuSans-32"/>
     <use x="919.287109" xlink:href="#DejaVuSans-75"/>
     <use x="984.863281" xlink:href="#DejaVuSans-110"/>
     <use x="1048.242188" xlink:href="#DejaVuSans-111"/>
     <use x="1109.423828" xlink:href="#DejaVuSans-119"/>
     <use x="1191.210938" xlink:href="#DejaVuSans-110"/>
     <use x="1254.589844" xlink:href="#DejaVuSans-32"/>
     <use x="1286.376953" xlink:href="#DejaVuSans-61"/>
     <use x="1370.166016" xlink:href="#DejaVuSans-32"/>
     <use x="1401.953125" xlink:href="#DejaVuSans-84"/>
     <use x="1462.818359" xlink:href="#DejaVuSans-114"/>
     <use x="1503.931641" xlink:href="#DejaVuSans-117"/>
     <use x="1567.310547" xlink:href="#DejaVuSans-101"/>
     <use x="1628.833984" xlink:href="#DejaVuSans-44"/>
     <use x="1660.621094" xlink:href="#DejaVuSans-32"/>
     <use x="1692.408203" xlink:href="#DejaVuSans-68"/>
     <use x="1769.410156" xlink:href="#DejaVuSans-101"/>
     <use x="1830.933594" xlink:href="#DejaVuSans-103"/>
     <use x="1894.410156" xlink:href="#DejaVuSans-114"/>
     <use x="1935.492188" xlink:href="#DejaVuSans-101"/>
     <use x="1997.015625" xlink:href="#DejaVuSans-101"/>
     <use x="2058.539062" xlink:href="#DejaVuSans-32"/>
     <use x="2090.326172" xlink:href="#DejaVuSans-61"/>
     <use x="2174.115234" xlink:href="#DejaVuSans-32"/>
     <use x="2205.902344" xlink:href="#DejaVuSans-49"/>
     <use x="2269.525391" xlink:href="#DejaVuSans-44"/>
     <use x="2301.3125" xlink:href="#DejaVuSans-32"/>
     <use x="2333.099609" xlink:href="#DejaVuSans-68"/>
     <use x="2410.101562" xlink:href="#DejaVuSans-117"/>
     <use x="2473.480469" xlink:href="#DejaVuSans-114"/>
     <use x="2514.59375" xlink:href="#DejaVuSans-97"/>
     <use x="2575.873047" xlink:href="#DejaVuSans-116"/>
     <use x="2615.082031" xlink:href="#DejaVuSans-105"/>
     <use x="2642.865234" xlink:href="#DejaVuSans-111"/>
     <use x="2704.046875" xlink:href="#DejaVuSans-110"/>
     <use x="2767.425781" xlink:href="#DejaVuSans-32"/>
     <use x="2799.212891" xlink:href="#DejaVuSans-61"/>
     <use x="2883.001953" xlink:href="#DejaVuSans-32"/>
     <use x="2914.789062" xlink:href="#DejaVuSans-48"/>
     <use x="2978.412109" xlink:href="#DejaVuSans-46"/>
     <use x="3010.199219" xlink:href="#DejaVuSans-49"/>
    </g>
   </g>
  </g>
 </g>
 <defs>
  <clipPath id="pd10cb20546">
   <rect height="266.112" width="357.12" x="57.6" y="41.472"/>
  </clipPath>
 </defs>
</svg>
