<?xml version="1.0" encoding="utf-8" standalone="no"?>
<!DOCTYPE svg PUBLIC "-//W3C//DTD SVG 1.1//EN"
  "http://www.w3.org/Graphics/SVG/1.1/DTD/svg11.dtd">
<!-- Created with matplotlib (https://matplotlib.org/) -->
<svg height="345.6pt" version="1.1" viewBox="0 0 460.8 345.6" width="460.8pt" xmlns="http://www.w3.org/2000/svg" xmlns:xlink="http://www.w3.org/1999/xlink">
 <defs>
  <style type="text/css">
*{stroke-linecap:butt;stroke-linejoin:round;}
  </style>
 </defs>
 <g id="figure_1">
  <g id="patch_1">
   <path d="M 0 345.6 
L 460.8 345.6 
L 460.8 0 
L 0 0 
z
" style="fill:#ffffff;"/>
  </g>
  <g id="axes_1">
   <g id="patch_2">
    <path d="M 57.6 307.584 
L 414.72 307.584 
L 414.72 41.472 
L 57.6 41.472 
z
" style="fill:#ffffff;"/>
   </g>
   <g id="line2d_1">
    <path clip-path="url(#pee97bf4c4c)" d="M 74.689458 293.751581 
L 74.59648 293.230942 
L 74.689458 293.405442 
L 74.882057 293.405442 
L 74.882057 293.579942 
L 74.689458 294.100582 
L 74.689458 294.100582 
L 74.785757 293.405442 
L 74.978356 293.059303 
L 74.882057 293.059303 
L 74.785757 293.059303 
L 74.785757 292.884803 
L 74.689458 293.059303 
L 74.59648 292.884803 
L 74.689458 292.189663 
L 74.689458 292.364163 
L 74.785757 292.364163 
L 74.882057 293.059303 
L 75.071334 293.230942 
L 75.263933 293.230942 
L 74.882057 292.884803 
L 74.978356 292.364163 
L 75.071334 292.364163 
L 74.978356 292.710303 
L 74.689458 293.059303 
L 74.403881 293.059303 
L 74.307582 292.884803 
L 74.403881 292.538663 
L 74.689458 292.364163 
L 74.882057 292.364163 
L 74.689458 292.710303 
L 74.403881 292.710303 
L 74.214603 292.364163 
L 74.214603 292.364163 
L 74.403881 293.230942 
L 74.214603 292.710303 
L 74.403881 292.018024 
L 74.59648 292.189663 
L 74.689458 293.405442 
L 74.689458 293.230942 
L 74.50018 293.405442 
L 74.403881 293.405442 
L 74.59648 293.751581 
L 74.50018 292.884803 
L 74.403881 292.710303 
L 74.214603 293.059303 
L 74.214603 293.059303 
L 74.307582 293.230942 
L 74.214603 293.230942 
L 74.118304 293.230942 
L 74.307582 293.405442 
L 74.59648 293.405442 
L 74.882057 293.059303 
L 74.785757 292.710303 
L 74.59648 292.884803 
L 74.214603 293.751581 
L 74.118304 293.405442 
L 74.214603 292.884803 
L 74.403881 292.538663 
L 74.882057 292.538663 
L 74.978356 293.059303 
L 74.785757 293.230942 
L 74.689458 293.059303 
L 74.882057 292.710303 
L 74.785757 293.059303 
L 74.785757 293.405442 
L 74.50018 293.405442 
L 74.307582 293.059303 
L 74.214603 293.230942 
L 74.50018 294.621221 
L 74.59648 294.446721 
L 74.785757 293.230942 
L 74.785757 293.230942 
L 74.689458 293.059303 
L 74.307582 293.926082 
L 74.50018 293.751581 
L 74.689458 293.230942 
L 74.59648 293.751581 
L 74.59648 293.926082 
L 74.59648 293.230942 
L 74.403881 292.710303 
L 74.50018 292.538663 
L 74.689458 292.884803 
L 74.59648 293.579942 
L 74.403881 293.926082 
L 74.689458 294.446721 
L 74.785757 294.100582 
L 74.785757 294.446721 
L 74.978356 295.3135 
L 74.978356 294.967361 
L 74.882057 294.967361 
L 74.689458 295.141861 
L 74.689458 294.100582 
L 74.59648 294.272221 
L 74.50018 295.141861 
L 74.59648 294.79286 
L 74.785757 294.621221 
L 74.978356 294.621221 
L 74.403881 294.967361 
L 74.307582 294.621221 
L 74.403881 294.272221 
L 74.689458 294.79286 
L 74.50018 294.967361 
L 74.307582 294.79286 
L 74.214603 294.446721 
L 74.50018 294.272221 
L 74.59648 295.488 
L 74.689458 295.141861 
L 74.403881 294.446721 
L 74.689458 294.100582 
L 74.882057 294.446721 
L 74.689458 294.621221 
L 74.403881 294.621221 
L 74.50018 294.446721 
L 74.689458 294.79286 
L 74.689458 295.3135 
L 74.59648 295.3135 
L 74.403881 295.141861 
L 74.307582 295.3135 
L 74.214603 294.967361 
L 74.214603 294.446721 
L 74.118304 294.79286 
L 73.832727 294.446721 
L 74.022005 294.79286 
L 74.307582 295.3135 
L 74.307582 295.141861 
L 74.403881 294.967361 
L 74.307582 294.967361 
L 74.118304 294.967361 
L 74.214603 295.141861 
L 74.214603 295.488 
L 74.307582 294.621221 
L 74.403881 294.967361 
L 74.307582 295.141861 
L 74.50018 295.488 
L 74.50018 294.272221 
L 74.50018 294.446721 
L 74.022005 294.446721 
L 74.118304 294.446721 
L 74.214603 294.272221 
L 74.118304 293.926082 
L 74.214603 293.926082 
L 74.785757 294.272221 
L 74.785757 294.446721 
L 74.689458 294.446721 
L 74.50018 294.621221 
L 74.307582 294.967361 
L 74.307582 294.79286 
L 74.307582 294.446721 
L 74.214603 294.446721 
L 74.118304 294.79286 
L 74.214603 294.79286 
L 74.59648 294.446721 
L 73.925706 294.967361 
L 74.022005 294.967361 
L 74.214603 295.141861 
L 74.118304 294.967361 
L 74.022005 294.272221 
L 74.118304 294.621221 
L 74.214603 294.621221 
L 74.59648 293.751581 
L 74.689458 293.230942 
L 76.984036 291.148384 
L 78.604519 290.107105 
L 85.959787 285.941989 
L 89.014797 283.859431 
L 92.355384 281.430734 
L 96.081167 279.002037 
L 113.458195 269.630526 
L 118.518884 266.332189 
L 123.961451 262.513212 
L 141.912953 249.497225 
L 154.996364 241.341494 
L 162.062734 237.350878 
L 169.51098 233.706401 
L 177.148504 230.928704 
L 184.500451 228.500006 
L 190.899368 225.896809 
L 196.72381 223.119112 
L 202.262676 220.864914 
L 207.608943 218.953996 
L 212.669632 216.871438 
L 217.252147 214.26824 
L 221.456106 212.014043 
L 225.274868 210.277624 
L 228.615454 208.890206 
L 231.577486 207.153788 
L 234.632495 204.89673 
L 237.494906 202.988672 
L 243.990123 200.731614 
L 246.566957 198.998056 
L 247.712585 198.477416 
L 248.858214 198.128416 
L 248.954513 197.956777 
L 248.765235 197.782277 
L 248.383359 198.128416 
L 247.808885 198.302916 
L 247.619607 198.302916 
L 246.566957 199.344195 
L 245.995803 200.039335 
L 246.088781 200.039335 
L 246.185081 200.039335 
L 246.28138 199.690335 
L 246.377679 199.518695 
L 246.663256 200.039335 
L 246.852534 199.690335 
L 247.045132 198.998056 
L 247.330709 198.823556 
L 247.523308 199.169695 
L 247.619607 198.998056 
L 247.619607 198.477416 
L 247.712585 198.477416 
L 247.808885 198.823556 
L 247.427008 199.518695 
L 247.619607 199.344195 
L 247.808885 199.518695 
L 247.523308 199.344195 
L 247.141431 199.344195 
L 247.23441 199.169695 
L 247.619607 199.169695 
L 247.905184 199.344195 
L 248.001483 199.690335 
L 247.905184 199.344195 
L 247.712585 199.864835 
L 248.001483 199.344195 
L 248.190761 198.998056 
L 248.190761 199.169695 
L 248.28706 199.518695 
L 248.190761 199.690335 
L 248.094462 199.518695 
L 248.001483 199.690335 
L 248.190761 199.690335 
L 248.190761 199.518695 
L 248.001483 199.518695 
L 247.905184 199.864835 
L 248.001483 200.039335 
L 247.905184 199.690335 
L 247.905184 199.864835 
L 248.001483 199.690335 
L 248.190761 199.690335 
L 248.190761 199.518695 
L 248.190761 200.039335 
L 248.383359 200.210974 
L 248.383359 200.385474 
L 248.476338 200.039335 
L 248.572637 199.690335 
L 248.765235 199.864835 
L 248.572637 200.906114 
L 248.572637 201.080614 
L 248.668936 200.210974 
L 248.668936 200.210974 
L 248.765235 200.039335 
L 248.858214 200.210974 
L 248.858214 200.731614 
L 248.765235 199.864835 
L 248.668936 200.385474 
L 248.383359 200.906114 
L 248.28706 200.731614 
L 248.858214 200.731614 
L 249.050812 200.906114 
L 248.668936 200.559974 
L 248.765235 200.559974 
L 248.858214 200.385474 
L 248.858214 200.559974 
L 248.765235 201.252253 
L 248.765235 201.601253 
L 248.858214 201.601253 
L 248.954513 201.601253 
L 249.050812 200.906114 
L 248.858214 200.385474 
L 248.668936 200.210974 
L 248.572637 200.385474 
L 248.572637 200.731614 
L 249.24009 200.210974 
L 248.954513 199.518695 
L 248.765235 199.518695 
L 248.858214 199.864835 
L 248.765235 200.039335 
L 248.572637 200.039335 
L 248.572637 199.864835 
L 249.050812 199.864835 
L 249.050812 199.690335 
L 248.765235 199.344195 
L 248.572637 199.344195 
L 248.572637 199.518695 
L 248.765235 199.518695 
L 248.858214 199.690335 
L 248.765235 199.690335 
L 248.572637 199.864835 
L 248.668936 200.210974 
L 248.572637 199.690335 
L 248.668936 200.210974 
L 248.765235 200.385474 
L 248.954513 200.039335 
L 249.050812 199.518695 
L 248.954513 198.477416 
L 248.765235 199.344195 
L 249.336389 198.823556 
L 249.432689 199.344195 
L 249.336389 199.518695 
L 249.24009 199.169695 
L 249.24009 199.169695 
L 249.147112 199.344195 
L 249.528988 198.477416 
L 249.432689 198.823556 
L 249.336389 199.518695 
L 249.432689 198.649056 
L 249.432689 198.649056 
L 249.24009 198.823556 
L 249.050812 199.344195 
L 249.336389 198.998056 
L 249.718266 198.823556 
L 249.621966 199.518695 
L 249.621966 199.518695 
L 249.528988 199.690335 
L 249.528988 199.518695 
L 249.718266 198.649056 
L 249.432689 198.998056 
L 249.336389 199.518695 
L 249.621966 200.210974 
L 249.814565 200.385474 
L 249.718266 200.385474 
L 249.621966 200.385474 
L 249.24009 200.559974 
L 249.718266 200.385474 
L 249.814565 199.344195 
L 249.814565 199.344195 
L 249.621966 199.864835 
L 249.147112 200.039335 
L 249.147112 200.039335 
L 249.24009 200.559974 
L 249.528988 199.864835 
L 249.147112 200.559974 
L 249.050812 200.559974 
L 249.24009 200.210974 
L 249.432689 200.731614 
L 249.432689 200.385474 
L 249.528988 201.080614 
L 249.718266 201.252253 
L 249.621966 199.518695 
L 249.814565 199.518695 
L 250.003843 199.690335 
L 249.910864 200.385474 
L 249.718266 200.559974 
L 249.718266 200.385474 
L 250.003843 200.210974 
L 250.674616 200.039335 
L 251.438369 200.039335 
L 252.583997 200.385474 
L 254.207801 200.559974 
L 258.979594 199.690335 
L 262.037924 199.864835 
L 265.47481 200.210974 
L 269.293572 200.210974 
L 273.590509 199.864835 
L 278.173024 199.169695 
L 283.044436 198.823556 
L 298.512082 199.864835 
L 303.954649 201.252253 
L 332.505706 211.144403 
L 337.758994 213.226961 
L 348.26225 218.087217 
L 357.905455 221.385554 
L 362.298691 223.468112 
L 377.384462 231.277704 
L 379.964616 232.490622 
L 384.832708 235.788959 
L 387.220264 237.004738 
L 389.415222 237.525378 
L 392.66283 237.871517 
L 393.71216 238.392157 
L 394.668511 239.087296 
L 395.71784 239.258936 
L 395.621541 239.258936 
L 395.146686 239.433436 
L 393.044707 238.392157 
L 392.377253 238.392157 
L 391.70648 238.566657 
L 391.039026 238.392157 
L 389.322244 237.350878 
L 389.322244 238.046017 
L 389.322244 237.350878 
L 389.511522 237.004738 
L 389.70412 237.004738 
L 389.989697 236.830238 
L 390.275274 236.830238 
L 390.942727 238.738296 
L 390.753449 238.738296 
L 390.65715 238.566657 
L 390.753449 238.217657 
L 390.753449 238.217657 
L 390.753449 238.046017 
L 390.560851 237.871517 
L 390.371573 238.046017 
L 390.178975 238.738296 
L 389.989697 238.566657 
L 389.797099 238.566657 
L 389.607821 238.912796 
L 389.797099 239.258936 
L 389.989697 239.087296 
L 389.70412 239.433436 
L 389.797099 240.128575 
L 389.70412 239.258936 
L 389.797099 239.779575 
L 389.989697 238.392157 
L 390.085996 238.738296 
L 390.178975 238.912796 
L 390.085996 238.912796 
L 389.70412 239.258936 
L 389.511522 239.087296 
L 389.322244 239.087296 
L 389.322244 239.087296 
L 389.415222 239.258936 
L 389.607821 239.258936 
L 389.511522 239.258936 
L 389.322244 239.433436 
L 389.415222 239.087296 
L 389.322244 240.128575 
L 389.415222 240.128575 
L 389.607821 239.779575 
L 389.511522 239.433436 
L 389.129645 239.087296 
L 389.129645 238.738296 
L 389.225945 239.607936 
L 389.322244 240.128575 
L 389.322244 239.607936 
L 389.415222 239.433436 
L 389.511522 239.607936 
L 389.415222 239.607936 
L 389.033346 239.954075 
L 389.225945 239.779575 
L 389.129645 239.433436 
L 388.940368 239.258936 
L 389.033346 240.128575 
L 388.940368 239.087296 
L 388.844068 239.954075 
L 388.747769 239.607936 
L 389.033346 239.087296 
L 389.033346 238.392157 
L 389.033346 239.607936 
L 388.844068 239.607936 
L 388.747769 239.258936 
L 388.844068 239.087296 
L 389.033346 239.258936 
L 389.129645 239.087296 
L 389.033346 238.912796 
L 388.844068 238.912796 
L 388.844068 238.566657 
L 389.033346 238.217657 
L 389.225945 238.217657 
L 389.322244 238.392157 
L 389.322244 238.738296 
L 389.225945 238.392157 
L 389.129645 238.392157 
L 389.225945 238.912796 
L 389.033346 238.912796 
L 388.747769 238.392157 
L 388.844068 238.046017 
L 388.844068 238.217657 
L 388.65147 238.046017 
L 389.033346 238.738296 
L 389.033346 238.738296 
L 389.129645 238.392157 
L 389.033346 238.046017 
L 389.225945 237.871517 
L 389.511522 237.871517 
L 389.70412 238.046017 
L 389.607821 238.392157 
L 389.322244 238.738296 
L 388.940368 238.912796 
L 389.033346 238.566657 
L 388.844068 238.217657 
L 389.033346 238.046017 
L 389.225945 238.217657 
L 389.129645 239.087296 
L 389.129645 238.392157 
L 389.033346 238.392157 
L 388.747769 238.566657 
L 388.940368 238.738296 
L 389.129645 238.738296 
L 389.033346 238.912796 
L 388.940368 238.738296 
L 388.844068 238.217657 
L 389.225945 238.046017 
L 389.511522 238.566657 
L 389.415222 238.912796 
L 389.033346 238.738296 
L 388.747769 238.392157 
L 388.558491 238.392157 
L 388.365893 238.738296 
L 388.462192 239.087296 
L 388.844068 239.258936 
L 389.322244 238.217657 
L 389.225945 237.871517 
L 389.225945 238.046017 
L 389.129645 239.258936 
L 389.033346 239.258936 
L 389.033346 238.912796 
L 389.322244 238.046017 
L 389.033346 238.738296 
L 388.747769 238.392157 
L 388.747769 238.566657 
L 388.747769 238.392157 
L 389.129645 237.871517 
L 389.225945 237.871517 
L 389.033346 237.176378 
L 389.225945 236.309599 
L 389.225945 236.484099 
L 389.225945 237.525378 
L 389.322244 237.350878 
L 389.415222 237.004738 
L 389.129645 237.176378 
L 389.033346 237.697017 
L 389.225945 237.871517 
L 389.322244 237.697017 
L 389.033346 237.004738 
L 389.033346 237.176378 
L 388.844068 237.871517 
L 388.940368 238.046017 
L 388.940368 237.871517 
L 388.940368 237.697017 
L 388.940368 238.046017 
L 388.844068 238.046017 
L 388.65147 238.046017 
L 387.69844 237.350878 
L 386.64579 236.309599 
L 385.214584 235.26832 
L 381.013946 232.839622 
L 377.766338 231.277704 
L 365.542979 226.763588 
L 360.578588 225.03003 
L 355.136022 223.293612 
L 349.122302 221.211054 
L 342.627086 219.128496 
L 324.00813 214.61724 
L 317.609213 213.575961 
L 311.306596 212.706322 
L 305.100277 211.493403 
L 298.893959 210.623764 
L 286.959497 209.236345 
L 281.228033 208.369567 
L 275.785467 207.674427 
L 265.378511 206.633148 
L 255.924584 204.89673 
L 251.627647 204.55059 
L 247.427008 203.855451 
L 243.704546 202.988672 
L 240.553237 202.121893 
L 237.494906 201.426753 
L 231.577486 200.731614 
L 226.706073 199.864835 
L 224.892992 199.169695 
L 223.269188 198.128416 
L 221.645384 197.261637 
L 220.307157 196.740998 
L 219.450426 196.220358 
L 218.875951 195.525219 
L 218.779652 195.004579 
L 219.257827 194.3123 
L 220.02158 193.966161 
L 221.07423 193.966161 
L 221.549084 194.3123 
L 221.930961 195.874219 
L 221.930961 195.353579 
L 221.930961 195.353579 
L 220.214178 197.782277 
L 220.307157 197.956777 
L 220.403456 197.782277 
L 220.117879 197.436137 
L 219.92528 197.436137 
L 219.736003 197.607777 
L 219.543404 197.782277 
L 219.543404 197.956777 
L 219.450426 197.087137 
L 219.639703 197.261637 
L 220.117879 198.302916 
L 220.117879 198.128416 
L 220.02158 198.302916 
L 219.639703 198.302916 
L 219.543404 198.477416 
L 219.543404 198.477416 
L 219.354126 198.302916 
L 219.068549 198.302916 
L 219.257827 198.649056 
L 219.543404 198.649056 
L 219.736003 198.477416 
L 219.543404 198.302916 
L 219.161528 198.302916 
L 218.97225 198.128416 
L 218.97225 198.128416 
L 218.97225 198.302916 
L 218.779652 198.302916 
L 218.779652 197.956777 
L 218.779652 199.344195 
L 218.875951 199.169695 
L 219.068549 198.649056 
L 218.97225 198.128416 
L 218.590374 198.128416 
L 218.208498 198.477416 
L 218.112199 199.690335 
L 218.015899 199.864835 
L 218.015899 199.864835 
L 218.304797 200.210974 
L 218.208498 199.344195 
L 217.922921 198.128416 
L 218.208498 197.956777 
L 218.494075 198.128416 
L 218.494075 198.477416 
L 217.922921 198.998056 
L 217.922921 198.998056 
L 218.112199 198.649056 
L 218.112199 197.607777 
L 218.112199 197.956777 
L 218.397776 199.169695 
L 218.304797 199.169695 
L 218.015899 198.649056 
L 217.826622 197.782277 
L 218.112199 198.128416 
L 218.304797 199.169695 
L 218.112199 198.998056 
L 218.015899 198.998056 
L 218.112199 198.823556 
L 218.112199 198.998056 
L 218.015899 199.344195 
L 218.112199 198.649056 
L 218.015899 198.649056 
L 218.208498 198.998056 
L 218.208498 199.344195 
L 218.208498 198.823556 
L 217.922921 198.649056 
L 218.015899 198.477416 
L 218.208498 198.477416 
L 218.304797 198.823556 
L 218.208498 198.998056 
L 218.208498 198.823556 
L 217.730322 198.302916 
L 217.826622 198.649056 
L 217.826622 199.344195 
L 217.826622 198.477416 
L 217.634023 198.649056 
L 217.541045 199.169695 
L 217.730322 199.518695 
L 217.634023 199.169695 
L 217.541045 198.477416 
L 217.348446 197.956777 
L 217.444745 198.128416 
L 217.634023 198.302916 
L 217.826622 198.302916 
L 217.922921 198.128416 
L 217.730322 198.477416 
L 217.922921 198.302916 
L 218.304797 198.302916 
L 218.112199 198.477416 
L 217.826622 198.998056 
L 217.922921 198.477416 
L 217.730322 197.782277 
L 217.541045 197.782277 
L 217.444745 198.477416 
L 217.730322 198.998056 
L 218.015899 199.169695 
L 218.112199 198.649056 
L 218.015899 198.477416 
L 217.826622 198.477416 
L 217.730322 199.344195 
L 217.922921 198.823556 
L 218.208498 197.956777 
L 218.112199 198.302916 
L 217.826622 198.649056 
L 217.541045 198.477416 
L 217.444745 197.956777 
L 217.348446 197.956777 
L 217.062869 197.782277 
L 216.870271 197.261637 
L 217.159168 197.087137 
L 217.444745 197.261637 
L 217.444745 197.782277 
L 217.444745 196.740998 
L 217.348446 196.740998 
L 217.252147 197.087137 
L 217.348446 197.261637 
L 216.870271 196.566498 
L 216.870271 195.874219 
L 217.159168 195.179079 
L 217.730322 194.83294 
L 219.450426 192.575882 
L 222.219858 188.585266 
L 224.129239 186.156569 
L 226.420496 183.032732 
L 229.09363 179.039255 
L 231.766763 174.7025 
L 234.821773 170.537384 
L 238.258659 166.197768 
L 241.698865 160.991373 
L 249.050812 149.537305 
L 259.650368 133.225841 
L 273.49421 113.61318 
L 276.645519 109.448064 
L 287.245074 93.65724 
L 292.209465 85.847648 
L 294.407743 82.549311 
L 296.317124 79.253835 
L 297.940929 76.129998 
L 302.619742 68.145906 
L 305.100277 63.46015 
L 306.245906 60.336313 
L 306.627782 58.774395 
L 306.724081 57.386976 
L 306.627782 55.650558 
L 306.438504 54.26314 
L 306.056628 53.568 
L 305.292876 53.7425 
L 303.669072 54.609279 
L 302.427144 54.609279 
L 301.759691 54.783779 
L 301.281515 55.304419 
L 301.092237 55.825058 
L 300.995938 56.517337 
L 300.899639 56.866337 
L 300.995938 57.558616 
L 301.281515 57.907616 
L 301.474114 57.907616 
L 301.567092 58.599895 
L 301.567092 58.599895 
L 301.759691 58.428255 
L 302.427144 58.428255 
L 302.330845 58.253755 
L 302.045268 57.386976 
L 301.85599 57.386976 
L 301.85599 56.866337 
L 302.141567 56.345697 
L 301.948968 56.517337 
L 301.663391 56.866337 
L 301.567092 57.558616 
L 301.759691 57.037976 
L 301.567092 57.037976 
L 301.092237 57.386976 
L 300.899639 57.907616 
L 300.995938 58.428255 
L 300.995938 58.428255 
L 301.281515 58.428255 
L 301.281515 58.253755 
L 301.185216 58.948895 
L 301.377814 58.599895 
L 301.567092 58.428255 
L 301.474114 58.599895 
L 301.281515 59.120534 
L 301.377814 58.599895 
L 301.281515 58.079255 
L 301.185216 58.253755 
L 301.092237 59.120534 
L 300.995938 59.815674 
L 300.710361 60.336313 
L 300.614062 60.161813 
L 300.80334 59.815674 
L 300.80334 59.815674 
L 300.710361 59.295034 
L 300.614062 59.295034 
L 300.710361 59.641174 
L 300.995938 59.815674 
L 301.092237 59.641174 
L 300.995938 59.641174 
L 300.80334 59.295034 
L 300.614062 59.295034 
L 300.614062 59.120534 
L 300.710361 59.295034 
L 300.80334 59.469534 
L 300.710361 59.469534 
L 300.328485 59.469534 
L 300.328485 59.469534 
L 300.232186 60.161813 
L 300.328485 59.815674 
L 300.421464 59.990174 
L 300.421464 59.990174 
L 300.232186 59.990174 
L 300.232186 59.990174 
L 300.614062 59.641174 
L 300.517763 59.295034 
L 300.614062 59.815674 
L 300.517763 59.990174 
L 300.899639 59.120534 
L 300.710361 59.469534 
L 300.517763 59.641174 
L 300.710361 59.120534 
L 300.80334 59.469534 
L 300.710361 59.295034 
L 300.614062 59.295034 
L 300.710361 59.295034 
L 300.614062 59.120534 
L 300.421464 59.120534 
L 300.328485 59.295034 
L 300.80334 59.990174 
L 300.995938 59.641174 
L 300.80334 59.815674 
L 300.517763 59.990174 
L 300.421464 60.336313 
L 300.517763 60.510813 
L 300.614062 60.336313 
L 300.517763 60.336313 
L 300.614062 60.682453 
L 300.899639 60.856953 
L 300.517763 60.510813 
L 300.80334 60.510813 
L 300.614062 60.510813 
L 300.421464 60.682453 
L 300.517763 60.856953 
L 300.710361 60.336313 
L 300.710361 59.469534 
L 300.614062 59.815674 
L 300.517763 59.990174 
L 300.517763 59.815674 
L 300.517763 58.774395 
L 300.421464 58.774395 
L 300.328485 59.120534 
L 300.421464 59.641174 
L 300.995938 60.510813 
L 300.899639 61.203092 
L 300.899639 60.856953 
L 300.614062 60.510813 
L 300.80334 60.682453 
L 301.092237 60.682453 
L 301.092237 60.336313 
L 300.995938 60.336313 
L 300.899639 60.510813 
L 300.710361 60.510813 
L 300.517763 59.469534 
L 300.710361 59.469534 
L 300.614062 60.161813 
L 300.517763 60.510813 
L 300.80334 59.641174 
L 300.995938 59.815674 
L 300.80334 59.815674 
L 300.899639 60.161813 
L 300.710361 60.510813 
L 300.517763 60.510813 
L 300.614062 60.682453 
L 300.328485 59.990174 
L 300.421464 60.510813 
L 300.232186 60.510813 
L 300.135887 60.161813 
L 300.328485 59.990174 
L 300.614062 60.161813 
L 300.614062 60.336313 
L 300.517763 59.641174 
L 300.614062 59.990174 
L 300.80334 60.336313 
L 300.614062 60.161813 
L 300.039587 60.161813 
L 300.039587 60.161813 
L 300.232186 59.990174 
L 300.517763 59.469534 
L 300.328485 60.161813 
L 300.232186 59.469534 
L 299.943288 59.641174 
L 299.75401 60.336313 
L 300.135887 60.336313 
L 299.943288 60.856953 
L 299.943288 60.510813 
L 299.85031 59.641174 
L 299.85031 60.856953 
L 300.039587 60.336313 
L 300.232186 60.161813 
L 300.421464 60.161813 
L 300.421464 59.990174 
L 300.232186 59.815674 
L 300.039587 59.990174 
L 300.135887 59.990174 
L 299.85031 59.815674 
L 299.561412 59.469534 
L 299.75401 60.161813 
L 299.943288 59.641174 
L 299.943288 59.641174 
L 299.85031 59.641174 
L 299.75401 59.815674 
L 300.039587 60.161813 
L 300.135887 60.161813 
L 299.75401 59.641174 
L 299.561412 59.815674 
L 299.75401 60.510813 
L 299.75401 60.510813 
L 299.85031 59.990174 
L 299.943288 60.336313 
L 299.85031 60.682453 
L 299.468433 60.856953 
L 299.657711 60.856953 
L 299.657711 60.510813 
L 299.75401 61.203092 
L 299.657711 61.203092 
L 299.468433 60.510813 
L 299.561412 59.641174 
L 299.85031 60.336313 
L 300.039587 60.856953 
L 299.943288 60.510813 
L 300.039587 60.161813 
L 300.328485 59.990174 
L 299.943288 60.161813 
L 299.943288 60.510813 
L 299.85031 60.161813 
L 299.75401 59.990174 
L 300.039587 59.990174 
L 300.232186 60.161813 
L 300.232186 61.723732 
L 299.943288 61.377592 
L 300.517763 60.336313 
L 300.421464 60.161813 
L 300.135887 60.161813 
L 300.135887 59.990174 
L 300.039587 59.990174 
L 299.943288 60.161813 
L 299.561412 60.161813 
L 299.561412 60.510813 
L 299.657711 60.510813 
L 299.943288 60.161813 
L 300.232186 60.161813 
L 299.75401 60.161813 
L 299.85031 60.682453 
L 300.039587 60.510813 
L 300.039587 59.641174 
L 299.943288 59.815674 
L 299.85031 59.990174 
L 300.039587 61.031453 
L 300.232186 60.682453 
L 300.232186 59.990174 
L 300.039587 59.815674 
L 299.85031 59.815674 
L 299.275835 60.336313 
L 298.893959 59.990174 
L 298.226505 59.990174 
L 295.935248 60.336313 
L 294.311444 59.990174 
L 292.402063 60.161813 
L 288.294404 62.418871 
L 283.426312 65.717208 
L 275.214313 72.485522 
L 272.159304 75.260358 
L 269.197273 78.212556 
L 266.42784 81.161893 
L 258.40844 90.187264 
L 255.639007 93.82888 
L 245.995803 108.060646 
L 241.316989 113.441541 
L 239.11871 116.565378 
L 237.11303 120.381494 
L 233.772444 127.324307 
L 230.906712 132.184562 
L 229.761083 134.61326 
L 228.808053 137.041957 
L 227.469826 141.381573 
L 225.274868 147.975386 
L 225.082269 150.057944 
L 223.458465 154.7437 
L 223.651064 155.264339 
L 223.365487 155.438839 
L 222.983611 155.438839 
L 222.983611 155.438839 
L 223.172888 155.959479 
L 222.409136 157.521397 
L 222.219858 158.042037 
L 221.930961 158.388176 
L 221.549084 160.991373 
L 221.456106 162.032652 
L 221.263507 162.899431 
L 221.359807 163.248431 
L 221.263507 163.420071 
L 220.881631 163.420071 
L 220.499755 163.594571 
L 220.596054 163.94071 
L 220.97793 163.94071 
L 220.02158 165.677129 
L 220.02158 166.023268 
L 220.214178 166.543908 
L 220.214178 166.892908 
L 220.307157 166.718408 
L 220.403456 167.064547 
L 220.307157 167.585187 
L 219.832302 168.105826 
L 219.736003 168.105826 
L 219.92528 168.280326 
L 220.117879 168.105826 
L 220.117879 167.934187 
L 219.92528 168.105826 
L 219.450426 168.626466 
L 219.736003 168.800966 
L 219.92528 169.496105 
L 219.92528 170.362884 
L 219.832302 170.362884 
L 219.639703 170.188384 
L 219.736003 171.404163 
L 219.639703 171.404163 
L 219.450426 171.404163 
L 219.354126 171.750303 
L 219.639703 172.619942 
L 219.450426 172.099303 
L 219.257827 172.445442 
L 219.257827 173.661221 
L 219.068549 173.486721 
L 218.875951 173.661221 
L 218.875951 173.83286 
L 219.354126 174.181861 
L 219.543404 174.7025 
L 219.354126 174.874139 
L 219.161528 175.569279 
L 218.875951 175.743779 
L 218.304797 176.436058 
L 218.494075 176.436058 
L 218.779652 176.264419 
L 218.779652 176.264419 
L 218.494075 176.610558 
L 218.208498 177.477337 
L 218.397776 176.956697 
L 218.779652 177.651837 
L 218.494075 177.477337 
L 218.304797 177.131197 
L 218.590374 176.785058 
L 218.494075 177.131197 
L 218.590374 178.172476 
L 218.494075 178.693116 
L 218.304797 178.693116 
L 218.397776 178.867616 
L 218.590374 178.693116 
L 218.494075 178.172476 
L 218.304797 177.826337 
L 218.112199 178.172476 
L 217.922921 178.867616 
L 217.922921 179.734395 
L 218.304797 179.388255 
L 218.397776 178.867616 
L 218.208498 178.518616 
L 217.922921 178.346976 
L 217.922921 178.346976 
L 218.015899 179.388255 
L 217.730322 179.908895 
L 217.730322 179.734395 
L 217.634023 179.039255 
L 217.348446 178.346976 
L 217.062869 178.172476 
L 216.680993 178.346976 
L 216.010219 178.867616 
L 215.153488 179.734395 
L 214.389736 180.255034 
L 213.529684 180.601174 
L 210.949529 181.121813 
L 209.329046 181.816953 
L 206.270716 183.899511 
L 204.935809 185.11529 
L 203.504604 186.677208 
L 201.7845 188.239127 
L 198.251315 190.842324 
L 192.71245 194.4868 
L 191.663121 195.004579 
L 190.613791 195.353579 
L 189.65744 195.525219 
L 188.893688 195.874219 
L 188.226235 196.045858 
L 187.555461 195.699719 
L 186.506131 195.525219 
L 186.602431 195.525219 
L 187.269884 194.83294 
L 187.555461 194.4868 
L 187.748059 195.004579 
L 187.844359 195.874219 
L 188.033636 196.220358 
L 188.415512 196.394858 
L 188.511812 196.566498 
L 188.319213 196.740998 
L 188.319213 197.087137 
L 187.748059 197.607777 
L 187.555461 197.956777 
L 187.65176 198.823556 
L 188.033636 200.039335 
L 187.462482 200.039335 
L 187.080606 199.518695 
L 187.080606 199.518695 
L 186.984307 200.039335 
L 186.888008 200.039335 
L 186.888008 199.518695 
L 186.984307 200.039335 
L 187.173585 200.210974 
L 186.791708 199.344195 
L 186.602431 199.690335 
L 186.69873 201.080614 
L 186.791708 201.601253 
L 186.602431 200.906114 
L 186.409832 200.210974 
L 186.409832 200.385474 
L 186.220554 201.252253 
L 186.220554 200.559974 
L 186.124255 201.947393 
L 185.838678 201.772893 
L 185.838678 202.121893 
L 185.838678 201.426753 
L 185.934977 201.426753 
L 186.027956 201.947393 
L 185.934977 202.293532 
L 185.64608 202.121893 
L 185.549781 201.601253 
L 185.360503 201.426753 
L 185.456802 202.293532 
L 185.549781 201.947393 
L 185.456802 201.772893 
L 185.167904 202.121893 
L 184.882327 201.947393 
L 184.978627 201.947393 
L 184.978627 202.121893 
L 185.074926 201.947393 
L 185.167904 201.947393 
L 185.074926 201.601253 
L 184.978627 201.601253 
L 184.882327 201.947393 
L 184.500451 202.814172 
L 184.500451 202.814172 
L 184.59675 202.988672 
L 184.404152 202.814172 
L 184.500451 202.293532 
L 184.404152 201.772893 
L 184.404152 201.772893 
L 184.214874 202.642532 
L 184.404152 202.293532 
L 184.59675 202.121893 
L 184.882327 202.293532 
L 185.360503 202.814172 
L 186.220554 203.163172 
L 187.555461 203.509311 
L 189.275564 203.683811 
L 191.470522 203.683811 
L 194.050677 203.855451 
L 206.367015 205.07123 
L 211.809581 204.72509 
L 217.444745 204.204451 
L 223.747363 203.509311 
L 230.621135 203.683811 
L 238.069381 204.204451 
L 245.613927 204.89673 
L 253.155151 205.417369 
L 268.147943 206.807648 
L 275.692489 208.020566 
L 282.948137 209.931485 
L 290.110806 212.360182 
L 297.177176 214.61724 
L 304.336525 216.699798 
L 318.087389 219.474635 
L 343.008962 225.55067 
L 369.554339 231.103204 
L 378.911966 233.531901 
L 383.019626 234.74768 
L 386.64579 236.135099 
L 389.797099 237.697017 
L 395.050387 239.954075 
L 396.863469 240.820854 
L 398.009097 240.995354 
L 398.487273 240.649215 
L 398.487273 240.300215 
L 398.105397 240.128575 
L 396.385293 239.779575 
L 395.432263 239.779575 
L 394.382934 239.607936 
L 393.044707 239.258936 
L 390.849749 238.912796 
L 390.178975 238.738296 
L 389.511522 238.912796 
L 388.940368 239.258936 
L 388.747769 239.087296 
L 388.747769 238.912796 
L 388.940368 239.087296 
L 389.129645 239.087296 
L 389.415222 239.258936 
L 389.797099 239.779575 
L 390.085996 240.474715 
L 390.467872 240.995354 
L 390.849749 240.820854 
L 391.231625 240.995354 
L 391.995377 242.036633 
L 392.184655 242.382772 
L 392.184655 243.252412 
L 392.184655 243.252412 
L 391.995377 243.077912 
L 391.613501 242.557273 
L 391.420903 242.731773 
L 391.039026 243.252412 
L 390.753449 243.252412 
L 390.560851 243.077912 
L 390.560851 242.903412 
L 390.753449 242.903412 
L 391.039026 243.077912 
L 390.467872 243.598552 
L 390.371573 243.424051 
L 390.467872 243.424051 
L 390.560851 242.557273 
L 390.560851 243.773052 
L 390.849749 243.598552 
L 391.039026 242.731773 
L 390.560851 242.382772 
L 390.275274 242.382772 
L 390.178975 242.731773 
L 390.275274 243.077912 
L 390.560851 243.077912 
L 390.371573 243.252412 
L 390.275274 243.252412 
L 390.560851 243.252412 
L 390.849749 243.424051 
L 391.039026 243.773052 
L 390.942727 244.119191 
L 390.753449 244.293691 
L 390.65715 244.119191 
L 390.753449 244.119191 
L 390.371573 244.46533 
L 390.467872 244.293691 
L 390.275274 244.119191 
L 390.275274 243.944691 
L 390.65715 243.944691 
L 390.65715 244.119191 
L 390.275274 244.63983 
L 390.560851 243.944691 
L 390.753449 244.293691 
L 390.753449 244.63983 
L 390.65715 244.46533 
L 390.467872 244.46533 
L 390.371573 244.63983 
L 390.371573 244.63983 
L 390.371573 244.98597 
L 390.560851 245.33497 
L 390.849749 245.33497 
L 390.942727 244.814331 
L 390.753449 244.293691 
L 390.560851 244.63983 
L 390.849749 244.98597 
L 390.849749 244.119191 
L 390.65715 244.293691 
L 390.275274 245.33497 
L 390.275274 246.547888 
L 390.178975 246.547888 
L 390.085996 245.506609 
L 390.178975 245.16047 
L 390.371573 244.98597 
L 390.178975 244.98597 
L 390.085996 245.16047 
L 390.275274 245.681109 
L 390.275274 246.201749 
L 390.178975 246.201749 
L 389.797099 245.855609 
L 389.797099 245.855609 
L 389.70412 246.027249 
L 389.70412 246.027249 
L 390.178975 246.547888 
L 390.085996 246.547888 
L 389.989697 246.376249 
L 389.989697 246.376249 
L 390.085996 245.506609 
L 390.085996 245.506609 
L 390.178975 245.506609 
L 390.178975 245.681109 
L 390.085996 245.681109 
L 389.893398 245.681109 
L 389.797099 246.027249 
L 389.797099 246.722388 
L 389.989697 246.896888 
L 390.178975 246.376249 
L 390.467872 245.855609 
L 389.893398 245.855609 
L 390.085996 245.681109 
L 390.085996 246.201749 
L 389.989697 246.027249 
L 389.797099 246.027249 
L 389.607821 246.722388 
L 389.607821 246.547888 
L 389.607821 246.201749 
L 389.607821 246.547888 
L 389.797099 246.722388 
L 390.085996 246.376249 
L 389.989697 246.722388 
L 389.797099 246.896888 
L 389.415222 246.201749 
L 389.415222 246.376249 
L 389.225945 246.376249 
L 389.225945 246.547888 
L 389.70412 246.201749 
L 389.607821 246.547888 
L 389.033346 247.068528 
L 389.129645 246.896888 
L 389.415222 246.201749 
L 389.415222 246.376249 
L 389.607821 246.896888 
L 389.511522 247.243028 
L 389.511522 247.068528 
L 389.322244 246.722388 
L 389.322244 247.068528 
L 389.511522 247.589167 
L 389.607821 247.243028 
L 389.511522 246.376249 
L 389.607821 245.681109 
L 389.797099 245.855609 
L 389.893398 246.547888 
L 389.989697 247.068528 
L 389.893398 246.547888 
L 389.415222 247.935307 
L 389.415222 247.935307 
L 389.129645 247.243028 
L 389.129645 247.243028 
L 389.225945 247.763667 
L 389.70412 248.455946 
L 390.085996 248.455946 
L 389.989697 248.284307 
L 389.893398 247.068528 
L 389.797099 246.896888 
L 389.70412 247.763667 
L 389.607821 247.935307 
L 389.797099 248.109807 
L 389.70412 247.589167 
L 389.797099 247.243028 
L 390.085996 247.243028 
L 389.511522 247.243028 
L 389.322244 247.763667 
L 389.511522 248.109807 
L 389.607821 248.109807 
L 389.511522 248.976586 
L 389.415222 248.455946 
L 389.607821 247.589167 
L 389.893398 247.243028 
L 390.275274 247.589167 
L 390.371573 248.284307 
L 390.371573 248.109807 
L 389.893398 248.109807 
L 389.797099 248.284307 
L 389.797099 248.109807 
L 389.893398 247.763667 
L 389.797099 247.935307 
L 389.70412 247.935307 
L 389.70412 248.109807 
L 389.70412 248.109807 
L 389.893398 247.935307 
L 390.275274 247.935307 
L 390.275274 248.284307 
L 390.275274 248.109807 
L 389.989697 247.414667 
L 389.989697 247.589167 
L 390.085996 249.497225 
L 389.893398 249.497225 
L 389.797099 248.976586 
L 389.893398 248.455946 
L 390.275274 248.109807 
L 390.178975 247.763667 
L 389.989697 247.935307 
L 389.893398 248.455946 
L 389.989697 248.804946 
L 390.178975 248.284307 
L 390.371573 247.763667 
L 390.560851 248.455946 
L 390.467872 249.497225 
L 390.275274 249.671725 
L 389.989697 249.325586 
L 389.989697 248.804946 
L 390.085996 248.804946 
L 390.178975 248.976586 
L 389.989697 248.804946 
L 389.797099 248.804946 
L 390.178975 248.804946 
L 390.178975 248.976586 
L 390.275274 248.976586 
L 390.371573 248.976586 
L 390.178975 248.804946 
L 389.989697 248.804946 
L 390.178975 249.671725 
L 390.178975 250.017865 
L 390.085996 250.017865 
L 389.989697 249.151086 
L 389.989697 248.804946 
L 390.371573 248.455946 
L 390.560851 247.935307 
L 390.371573 247.935307 
L 390.178975 248.109807 
L 390.178975 248.455946 
L 389.989697 248.630446 
L 389.797099 248.455946 
L 389.989697 248.284307 
L 390.275274 248.284307 
L 390.178975 248.976586 
L 390.085996 249.325586 
L 390.275274 248.976586 
L 390.275274 249.325586 
L 390.178975 249.325586 
L 389.893398 249.151086 
L 389.893398 249.846225 
L 389.893398 249.151086 
L 390.085996 249.497225 
L 390.371573 249.671725 
L 390.560851 249.325586 
L 390.849749 249.671725 
L 390.753449 249.671725 
L 390.65715 249.671725 
L 390.753449 249.325586 
L 390.65715 248.976586 
L 390.467872 248.976586 
L 390.560851 250.366865 
L 390.65715 250.192365 
L 390.65715 248.976586 
L 390.371573 248.976586 
L 390.178975 249.151086 
L 390.371573 248.976586 
L 390.467872 248.630446 
L 390.65715 248.630446 
L 390.849749 249.151086 
L 390.942727 249.151086 
L 391.039026 248.804946 
L 390.467872 249.671725 
L 390.560851 250.192365 
L 390.467872 249.325586 
L 390.560851 250.192365 
L 390.65715 250.713004 
L 390.467872 250.192365 
L 390.178975 249.497225 
L 390.085996 250.017865 
L 390.371573 249.497225 
L 390.178975 250.017865 
L 390.275274 250.017865 
L 390.178975 250.713004 
L 390.275274 250.713004 
L 390.467872 250.538504 
L 390.65715 250.538504 
L 390.560851 250.713004 
L 390.275274 250.017865 
L 390.178975 249.671725 
L 389.893398 249.671725 
L 390.178975 249.325586 
L 390.275274 249.497225 
L 389.989697 250.366865 
L 389.893398 250.192365 
L 389.989697 250.192365 
L 390.275274 250.366865 
L 390.65715 250.887504 
L 390.65715 251.928783 
L 390.65715 250.192365 
L 390.560851 251.408144 
L 390.467872 250.713004 
L 390.560851 250.538504 
L 390.753449 251.059144 
L 390.65715 251.408144 
L 390.467872 250.713004 
L 390.65715 251.059144 
L 390.753449 251.059144 
L 390.65715 250.192365 
L 390.753449 250.192365 
L 390.560851 250.017865 
L 390.65715 251.059144 
L 390.467872 250.887504 
L 390.371573 250.538504 
L 390.467872 250.366865 
L 390.65715 250.538504 
L 390.560851 251.233644 
L 390.371573 251.579783 
L 390.467872 251.408144 
L 390.560851 250.887504 
L 390.467872 250.713004 
L 390.178975 251.754283 
L 390.371573 252.449423 
L 390.560851 252.621062 
L 390.753449 252.100423 
L 390.467872 252.274923 
L 389.893398 252.449423 
L 389.607821 252.100423 
L 389.607821 251.754283 
L 389.989697 251.754283 
L 390.65715 252.100423 
L 390.560851 252.100423 
L 390.085996 252.100423 
L 390.178975 251.928783 
L 390.371573 252.274923 
L 390.275274 251.928783 
L 390.560851 251.754283 
L 390.275274 252.100423 
L 390.178975 252.100423 
L 390.085996 251.408144 
L 390.178975 251.408144 
L 390.085996 251.408144 
L 389.893398 252.100423 
L 389.893398 252.100423 
L 389.70412 252.274923 
L 389.70412 251.754283 
L 389.511522 251.579783 
L 389.415222 251.754283 
L 389.607821 252.100423 
L 389.893398 252.274923 
L 389.893398 252.100423 
L 389.70412 251.754283 
L 389.70412 251.754283 
L 389.70412 252.449423 
L 389.893398 252.449423 
L 390.085996 252.621062 
L 389.893398 252.621062 
L 389.511522 252.621062 
L 389.70412 252.274923 
L 389.607821 252.795562 
L 389.70412 254.011341 
L 389.893398 253.836841 
L 389.607821 252.795562 
L 389.322244 252.795562 
L 389.225945 253.141702 
L 389.415222 253.316202 
L 389.607821 253.316202 
L 389.607821 253.141702 
L 389.225945 252.795562 
L 389.225945 253.141702 
L 389.415222 252.970062 
L 389.607821 252.449423 
L 389.322244 253.141702 
L 389.033346 253.141702 
L 389.033346 252.274923 
L 389.033346 253.316202 
L 389.415222 253.316202 
L 389.511522 252.970062 
L 389.415222 252.795562 
L 389.511522 253.662341 
L 389.70412 253.836841 
L 389.607821 253.662341 
L 389.225945 254.011341 
L 389.415222 254.011341 
L 389.607821 253.836841 
L 389.129645 254.357481 
L 389.511522 254.357481 
L 389.511522 254.357481 
L 389.415222 253.662341 
L 389.322244 253.490702 
L 389.322244 253.490702 
L 389.033346 254.182981 
L 388.940368 254.357481 
L 389.033346 254.011341 
L 389.225945 253.662341 
L 389.415222 254.011341 
L 389.322244 253.662341 
L 389.225945 253.141702 
L 389.033346 252.795562 
L 388.747769 253.141702 
L 388.747769 253.490702 
L 388.747769 252.621062 
L 388.558491 252.970062 
L 388.462192 254.357481 
L 388.65147 254.182981 
L 388.747769 253.836841 
L 388.558491 253.490702 
L 388.558491 252.795562 
L 388.462192 253.316202 
L 388.269594 253.836841 
L 388.462192 254.182981 
L 388.365893 254.357481 
L 388.269594 254.011341 
L 388.462192 253.316202 
L 388.558491 253.662341 
L 388.365893 253.662341 
L 388.176615 253.141702 
L 388.365893 253.836841 
L 388.365893 253.836841 
L 388.269594 254.011341 
L 387.984017 254.011341 
L 387.409542 254.357481 
L 387.316564 253.836841 
L 387.69844 253.836841 
L 387.887718 253.490702 
L 387.791418 252.621062 
L 387.69844 252.621062 
L 387.505841 252.970062 
L 387.69844 252.795562 
L 387.791418 252.795562 
L 387.69844 253.490702 
L 387.602141 254.011341 
L 387.791418 253.316202 
L 387.887718 253.662341 
L 387.791418 253.662341 
L 387.602141 253.662341 
L 387.505841 254.011341 
L 387.409542 253.662341 
L 387.505841 253.836841 
L 387.602141 253.836841 
L 387.316564 252.795562 
L 387.027666 252.621062 
L 387.027666 252.970062 
L 387.220264 253.662341 
L 387.505841 254.011341 
L 387.602141 253.836841 
L 387.316564 253.316202 
L 387.316564 254.011341 
L 387.220264 253.836841 
L 387.123965 253.836841 
L 386.838388 254.357481 
L 386.838388 254.70362 
L 386.934687 254.531981 
L 387.123965 254.011341 
L 387.123965 253.490702 
L 387.123965 254.531981 
L 386.742089 255.22426 
L 386.838388 255.39876 
L 386.934687 254.70362 
L 387.505841 255.57326 
L 387.791418 255.744899 
L 387.505841 255.57326 
L 387.602141 255.39876 
L 387.316564 254.87812 
L 387.316564 255.05262 
L 387.409542 256.440039 
L 387.505841 256.265539 
L 387.123965 255.744899 
L 387.409542 255.919399 
L 387.505841 255.57326 
L 387.409542 255.05262 
L 387.123965 254.87812 
L 387.027666 255.05262 
L 387.123965 255.919399 
L 387.505841 257.306818 
L 387.505841 257.135178 
L 387.602141 257.135178 
L 387.602141 257.655818 
L 387.409542 257.827457 
L 387.220264 257.481318 
L 387.316564 257.306818 
L 387.505841 257.827457 
L 387.409542 257.135178 
L 387.220264 256.614539 
L 387.123965 256.960678 
L 387.123965 257.655818 
L 387.316564 257.827457 
L 387.602141 257.306818 
L 387.602141 257.306818 
" style="fill:none;stroke:#1f77b4;stroke-linecap:square;stroke-width:1.5;"/>
   </g>
   <g id="matplotlib.axis_1">
    <g id="xtick_1">
     <g id="line2d_2">
      <defs>
       <path d="M 0 0 
L 0 3.5 
" id="mdbbb984c7c" style="stroke:#000000;stroke-width:0.8;"/>
      </defs>
      <g>
       <use style="stroke:#000000;stroke-width:0.8;" x="117.200581" xlink:href="#mdbbb984c7c" y="307.584"/>
      </g>
     </g>
     <g id="text_1">
      <!-- −600 -->
      <defs>
       <path d="M 10.59375 35.5 
L 73.1875 35.5 
L 73.1875 27.203125 
L 10.59375 27.203125 
z
" id="DejaVuSans-8722"/>
       <path d="M 33.015625 40.375 
Q 26.375 40.375 22.484375 35.828125 
Q 18.609375 31.296875 18.609375 23.390625 
Q 18.609375 15.53125 22.484375 10.953125 
Q 26.375 6.390625 33.015625 6.390625 
Q 39.65625 6.390625 43.53125 10.953125 
Q 47.40625 15.53125 47.40625 23.390625 
Q 47.40625 31.296875 43.53125 35.828125 
Q 39.65625 40.375 33.015625 40.375 
z
M 52.59375 71.296875 
L 52.59375 62.3125 
Q 48.875 64.0625 45.09375 64.984375 
Q 41.3125 65.921875 37.59375 65.921875 
Q 27.828125 65.921875 22.671875 59.328125 
Q 17.53125 52.734375 16.796875 39.40625 
Q 19.671875 43.65625 24.015625 45.921875 
Q 28.375 48.1875 33.59375 48.1875 
Q 44.578125 48.1875 50.953125 41.515625 
Q 57.328125 34.859375 57.328125 23.390625 
Q 57.328125 12.15625 50.6875 5.359375 
Q 44.046875 -1.421875 33.015625 -1.421875 
Q 20.359375 -1.421875 13.671875 8.265625 
Q 6.984375 17.96875 6.984375 36.375 
Q 6.984375 53.65625 15.1875 63.9375 
Q 23.390625 74.21875 37.203125 74.21875 
Q 40.921875 74.21875 44.703125 73.484375 
Q 48.484375 72.75 52.59375 71.296875 
z
" id="DejaVuSans-54"/>
       <path d="M 31.78125 66.40625 
Q 24.171875 66.40625 20.328125 58.90625 
Q 16.5 51.421875 16.5 36.375 
Q 16.5 21.390625 20.328125 13.890625 
Q 24.171875 6.390625 31.78125 6.390625 
Q 39.453125 6.390625 43.28125 13.890625 
Q 47.125 21.390625 47.125 36.375 
Q 47.125 51.421875 43.28125 58.90625 
Q 39.453125 66.40625 31.78125 66.40625 
z
M 31.78125 74.21875 
Q 44.046875 74.21875 50.515625 64.515625 
Q 56.984375 54.828125 56.984375 36.375 
Q 56.984375 17.96875 50.515625 8.265625 
Q 44.046875 -1.421875 31.78125 -1.421875 
Q 19.53125 -1.421875 13.0625 8.265625 
Q 6.59375 17.96875 6.59375 36.375 
Q 6.59375 54.828125 13.0625 64.515625 
Q 19.53125 74.21875 31.78125 74.21875 
z
" id="DejaVuSans-48"/>
      </defs>
      <g transform="translate(103.466988 322.182437)scale(0.1 -0.1)">
       <use xlink:href="#DejaVuSans-8722"/>
       <use x="83.789062" xlink:href="#DejaVuSans-54"/>
       <use x="147.412109" xlink:href="#DejaVuSans-48"/>
       <use x="211.035156" xlink:href="#DejaVuSans-48"/>
      </g>
     </g>
    </g>
    <g id="xtick_2">
     <g id="line2d_3">
      <g>
       <use style="stroke:#000000;stroke-width:0.8;" x="183.613834" xlink:href="#mdbbb984c7c" y="307.584"/>
      </g>
     </g>
     <g id="text_2">
      <!-- −400 -->
      <defs>
       <path d="M 37.796875 64.3125 
L 12.890625 25.390625 
L 37.796875 25.390625 
z
M 35.203125 72.90625 
L 47.609375 72.90625 
L 47.609375 25.390625 
L 58.015625 25.390625 
L 58.015625 17.1875 
L 47.609375 17.1875 
L 47.609375 0 
L 37.796875 0 
L 37.796875 17.1875 
L 4.890625 17.1875 
L 4.890625 26.703125 
z
" id="DejaVuSans-52"/>
      </defs>
      <g transform="translate(169.880241 322.182437)scale(0.1 -0.1)">
       <use xlink:href="#DejaVuSans-8722"/>
       <use x="83.789062" xlink:href="#DejaVuSans-52"/>
       <use x="147.412109" xlink:href="#DejaVuSans-48"/>
       <use x="211.035156" xlink:href="#DejaVuSans-48"/>
      </g>
     </g>
    </g>
    <g id="xtick_3">
     <g id="line2d_4">
      <g>
       <use style="stroke:#000000;stroke-width:0.8;" x="250.027087" xlink:href="#mdbbb984c7c" y="307.584"/>
      </g>
     </g>
     <g id="text_3">
      <!-- −200 -->
      <defs>
       <path d="M 19.1875 8.296875 
L 53.609375 8.296875 
L 53.609375 0 
L 7.328125 0 
L 7.328125 8.296875 
Q 12.9375 14.109375 22.625 23.890625 
Q 32.328125 33.6875 34.8125 36.53125 
Q 39.546875 41.84375 41.421875 45.53125 
Q 43.3125 49.21875 43.3125 52.78125 
Q 43.3125 58.59375 39.234375 62.25 
Q 35.15625 65.921875 28.609375 65.921875 
Q 23.96875 65.921875 18.8125 64.3125 
Q 13.671875 62.703125 7.8125 59.421875 
L 7.8125 69.390625 
Q 13.765625 71.78125 18.9375 73 
Q 24.125 74.21875 28.421875 74.21875 
Q 39.75 74.21875 46.484375 68.546875 
Q 53.21875 62.890625 53.21875 53.421875 
Q 53.21875 48.921875 51.53125 44.890625 
Q 49.859375 40.875 45.40625 35.40625 
Q 44.1875 33.984375 37.640625 27.21875 
Q 31.109375 20.453125 19.1875 8.296875 
z
" id="DejaVuSans-50"/>
      </defs>
      <g transform="translate(236.293493 322.182437)scale(0.1 -0.1)">
       <use xlink:href="#DejaVuSans-8722"/>
       <use x="83.789062" xlink:href="#DejaVuSans-50"/>
       <use x="147.412109" xlink:href="#DejaVuSans-48"/>
       <use x="211.035156" xlink:href="#DejaVuSans-48"/>
      </g>
     </g>
    </g>
    <g id="xtick_4">
     <g id="line2d_5">
      <g>
       <use style="stroke:#000000;stroke-width:0.8;" x="316.44034" xlink:href="#mdbbb984c7c" y="307.584"/>
      </g>
     </g>
     <g id="text_4">
      <!-- 0 -->
      <g transform="translate(313.25909 322.182437)scale(0.1 -0.1)">
       <use xlink:href="#DejaVuSans-48"/>
      </g>
     </g>
    </g>
    <g id="xtick_5">
     <g id="line2d_6">
      <g>
       <use style="stroke:#000000;stroke-width:0.8;" x="382.853593" xlink:href="#mdbbb984c7c" y="307.584"/>
      </g>
     </g>
     <g id="text_5">
      <!-- 200 -->
      <g transform="translate(373.309843 322.182437)scale(0.1 -0.1)">
       <use xlink:href="#DejaVuSans-50"/>
       <use x="63.623047" xlink:href="#DejaVuSans-48"/>
       <use x="127.246094" xlink:href="#DejaVuSans-48"/>
      </g>
     </g>
    </g>
   </g>
   <g id="matplotlib.axis_2">
    <g id="ytick_1">
     <g id="line2d_7">
      <defs>
       <path d="M 0 0 
L -3.5 0 
" id="m45d60f0bb1" style="stroke:#000000;stroke-width:0.8;"/>
      </defs>
      <g>
       <use style="stroke:#000000;stroke-width:0.8;" x="57.6" xlink:href="#m45d60f0bb1" y="256.892022"/>
      </g>
     </g>
     <g id="text_6">
      <!-- −400 -->
      <g transform="translate(23.132812 260.691241)scale(0.1 -0.1)">
       <use xlink:href="#DejaVuSans-8722"/>
       <use x="83.789062" xlink:href="#DejaVuSans-52"/>
       <use x="147.412109" xlink:href="#DejaVuSans-48"/>
       <use x="211.035156" xlink:href="#DejaVuSans-48"/>
      </g>
     </g>
    </g>
    <g id="ytick_2">
     <g id="line2d_8">
      <g>
       <use style="stroke:#000000;stroke-width:0.8;" x="57.6" xlink:href="#m45d60f0bb1" y="199.678892"/>
      </g>
     </g>
     <g id="text_7">
      <!-- −200 -->
      <g transform="translate(23.132812 203.478111)scale(0.1 -0.1)">
       <use xlink:href="#DejaVuSans-8722"/>
       <use x="83.789062" xlink:href="#DejaVuSans-50"/>
       <use x="147.412109" xlink:href="#DejaVuSans-48"/>
       <use x="211.035156" xlink:href="#DejaVuSans-48"/>
      </g>
     </g>
    </g>
    <g id="ytick_3">
     <g id="line2d_9">
      <g>
       <use style="stroke:#000000;stroke-width:0.8;" x="57.6" xlink:href="#m45d60f0bb1" y="142.465762"/>
      </g>
     </g>
     <g id="text_8">
      <!-- 0 -->
      <g transform="translate(44.2375 146.264981)scale(0.1 -0.1)">
       <use xlink:href="#DejaVuSans-48"/>
      </g>
     </g>
    </g>
    <g id="ytick_4">
     <g id="line2d_10">
      <g>
       <use style="stroke:#000000;stroke-width:0.8;" x="57.6" xlink:href="#m45d60f0bb1" y="85.252632"/>
      </g>
     </g>
     <g id="text_9">
      <!-- 200 -->
      <g transform="translate(31.5125 89.05185)scale(0.1 -0.1)">
       <use xlink:href="#DejaVuSans-50"/>
       <use x="63.623047" xlink:href="#DejaVuSans-48"/>
       <use x="127.246094" xlink:href="#DejaVuSans-48"/>
      </g>
     </g>
    </g>
   </g>
   <g id="line2d_11">
    <path clip-path="url(#pee97bf4c4c)" d="M 75.197787 293.461274 
L 248.241021 200.026983 
L 388.623251 238.08342 
L 220.528246 198.270553 
L 300.491894 59.880409 
L 220.98576 164.966977 
L 188.284461 198.472114 
L 390.440077 241.911294 
L 389.45224 250.493843 
" style="fill:none;stroke:#ff0000;stroke-linecap:square;stroke-width:0.5;"/>
   </g>
   <g id="patch_3">
    <path d="M 57.6 307.584 
L 57.6 41.472 
" style="fill:none;stroke:#000000;stroke-linecap:square;stroke-linejoin:miter;stroke-width:0.8;"/>
   </g>
   <g id="patch_4">
    <path d="M 414.72 307.584 
L 414.72 41.472 
" style="fill:none;stroke:#000000;stroke-linecap:square;stroke-linejoin:miter;stroke-width:0.8;"/>
   </g>
   <g id="patch_5">
    <path d="M 57.6 307.584 
L 414.72 307.584 
" style="fill:none;stroke:#000000;stroke-linecap:square;stroke-linejoin:miter;stroke-width:0.8;"/>
   </g>
   <g id="patch_6">
    <path d="M 57.6 41.472 
L 414.72 41.472 
" style="fill:none;stroke:#000000;stroke-linecap:square;stroke-linejoin:miter;stroke-width:0.8;"/>
   </g>
   <g id="PathCollection_1">
    <defs>
     <path d="M 0 2.738613 
C 0.726289 2.738613 1.422928 2.450055 1.936492 1.936492 
C 2.450055 1.422928 2.738613 0.726289 2.738613 0 
C 2.738613 -0.726289 2.450055 -1.422928 1.936492 -1.936492 
C 1.422928 -2.450055 0.726289 -2.738613 0 -2.738613 
C -0.726289 -2.738613 -1.422928 -2.450055 -1.936492 -1.936492 
C -2.450055 -1.422928 -2.738613 -0.726289 -2.738613 0 
C -2.738613 0.726289 -2.450055 1.422928 -1.936492 1.936492 
C -1.422928 2.450055 -0.726289 2.738613 0 2.738613 
z
" id="madcfc0df71" style="stroke:#ff0000;"/>
    </defs>
    <g clip-path="url(#pee97bf4c4c)">
     <use style="fill:#ff0000;stroke:#ff0000;" x="75.197787" xlink:href="#madcfc0df71" y="293.461274"/>
     <use style="fill:#ff0000;stroke:#ff0000;" x="248.241021" xlink:href="#madcfc0df71" y="200.026983"/>
     <use style="fill:#ff0000;stroke:#ff0000;" x="388.623251" xlink:href="#madcfc0df71" y="238.08342"/>
     <use style="fill:#ff0000;stroke:#ff0000;" x="220.528246" xlink:href="#madcfc0df71" y="198.270553"/>
     <use style="fill:#ff0000;stroke:#ff0000;" x="300.491894" xlink:href="#madcfc0df71" y="59.880409"/>
     <use style="fill:#ff0000;stroke:#ff0000;" x="220.98576" xlink:href="#madcfc0df71" y="164.966977"/>
     <use style="fill:#ff0000;stroke:#ff0000;" x="188.284461" xlink:href="#madcfc0df71" y="198.472114"/>
     <use style="fill:#ff0000;stroke:#ff0000;" x="390.440077" xlink:href="#madcfc0df71" y="241.911294"/>
     <use style="fill:#ff0000;stroke:#ff0000;" x="389.45224" xlink:href="#madcfc0df71" y="250.493843"/>
    </g>
   </g>
   <g id="text_10">
    <!-- (16) Subject: s17, Known = False, Degree = 1, Duration = 0.1 -->
    <defs>
     <path d="M 31 75.875 
Q 24.46875 64.65625 21.28125 53.65625 
Q 18.109375 42.671875 18.109375 31.390625 
Q 18.109375 20.125 21.3125 9.0625 
Q 24.515625 -2 31 -13.1875 
L 23.1875 -13.1875 
Q 15.875 -1.703125 12.234375 9.375 
Q 8.59375 20.453125 8.59375 31.390625 
Q 8.59375 42.28125 12.203125 53.3125 
Q 15.828125 64.359375 23.1875 75.875 
z
" id="DejaVuSans-40"/>
     <path d="M 12.40625 8.296875 
L 28.515625 8.296875 
L 28.515625 63.921875 
L 10.984375 60.40625 
L 10.984375 69.390625 
L 28.421875 72.90625 
L 38.28125 72.90625 
L 38.28125 8.296875 
L 54.390625 8.296875 
L 54.390625 0 
L 12.40625 0 
z
" id="DejaVuSans-49"/>
     <path d="M 8.015625 75.875 
L 15.828125 75.875 
Q 23.140625 64.359375 26.78125 53.3125 
Q 30.421875 42.28125 30.421875 31.390625 
Q 30.421875 20.453125 26.78125 9.375 
Q 23.140625 -1.703125 15.828125 -13.1875 
L 8.015625 -13.1875 
Q 14.5 -2 17.703125 9.0625 
Q 20.90625 20.125 20.90625 31.390625 
Q 20.90625 42.671875 17.703125 53.65625 
Q 14.5 64.65625 8.015625 75.875 
z
" id="DejaVuSans-41"/>
     <path id="DejaVuSans-32"/>
     <path d="M 53.515625 70.515625 
L 53.515625 60.890625 
Q 47.90625 63.578125 42.921875 64.890625 
Q 37.9375 66.21875 33.296875 66.21875 
Q 25.25 66.21875 20.875 63.09375 
Q 16.5 59.96875 16.5 54.203125 
Q 16.5 49.359375 19.40625 46.890625 
Q 22.3125 44.4375 30.421875 42.921875 
L 36.375 41.703125 
Q 47.40625 39.59375 52.65625 34.296875 
Q 57.90625 29 57.90625 20.125 
Q 57.90625 9.515625 50.796875 4.046875 
Q 43.703125 -1.421875 29.984375 -1.421875 
Q 24.8125 -1.421875 18.96875 -0.25 
Q 13.140625 0.921875 6.890625 3.21875 
L 6.890625 13.375 
Q 12.890625 10.015625 18.65625 8.296875 
Q 24.421875 6.59375 29.984375 6.59375 
Q 38.421875 6.59375 43.015625 9.90625 
Q 47.609375 13.234375 47.609375 19.390625 
Q 47.609375 24.75 44.3125 27.78125 
Q 41.015625 30.8125 33.5 32.328125 
L 27.484375 33.5 
Q 16.453125 35.6875 11.515625 40.375 
Q 6.59375 45.0625 6.59375 53.421875 
Q 6.59375 63.09375 13.40625 68.65625 
Q 20.21875 74.21875 32.171875 74.21875 
Q 37.3125 74.21875 42.625 73.28125 
Q 47.953125 72.359375 53.515625 70.515625 
z
" id="DejaVuSans-83"/>
     <path d="M 8.5 21.578125 
L 8.5 54.6875 
L 17.484375 54.6875 
L 17.484375 21.921875 
Q 17.484375 14.15625 20.5 10.265625 
Q 23.53125 6.390625 29.59375 6.390625 
Q 36.859375 6.390625 41.078125 11.03125 
Q 45.3125 15.671875 45.3125 23.6875 
L 45.3125 54.6875 
L 54.296875 54.6875 
L 54.296875 0 
L 45.3125 0 
L 45.3125 8.40625 
Q 42.046875 3.421875 37.71875 1 
Q 33.40625 -1.421875 27.6875 -1.421875 
Q 18.265625 -1.421875 13.375 4.4375 
Q 8.5 10.296875 8.5 21.578125 
z
M 31.109375 56 
z
" id="DejaVuSans-117"/>
     <path d="M 48.6875 27.296875 
Q 48.6875 37.203125 44.609375 42.84375 
Q 40.53125 48.484375 33.40625 48.484375 
Q 26.265625 48.484375 22.1875 42.84375 
Q 18.109375 37.203125 18.109375 27.296875 
Q 18.109375 17.390625 22.1875 11.75 
Q 26.265625 6.109375 33.40625 6.109375 
Q 40.53125 6.109375 44.609375 11.75 
Q 48.6875 17.390625 48.6875 27.296875 
z
M 18.109375 46.390625 
Q 20.953125 51.265625 25.265625 53.625 
Q 29.59375 56 35.59375 56 
Q 45.5625 56 51.78125 48.09375 
Q 58.015625 40.1875 58.015625 27.296875 
Q 58.015625 14.40625 51.78125 6.484375 
Q 45.5625 -1.421875 35.59375 -1.421875 
Q 29.59375 -1.421875 25.265625 0.953125 
Q 20.953125 3.328125 18.109375 8.203125 
L 18.109375 0 
L 9.078125 0 
L 9.078125 75.984375 
L 18.109375 75.984375 
z
" id="DejaVuSans-98"/>
     <path d="M 9.421875 54.6875 
L 18.40625 54.6875 
L 18.40625 -0.984375 
Q 18.40625 -11.421875 14.421875 -16.109375 
Q 10.453125 -20.796875 1.609375 -20.796875 
L -1.8125 -20.796875 
L -1.8125 -13.1875 
L 0.59375 -13.1875 
Q 5.71875 -13.1875 7.5625 -10.8125 
Q 9.421875 -8.453125 9.421875 -0.984375 
z
M 9.421875 75.984375 
L 18.40625 75.984375 
L 18.40625 64.59375 
L 9.421875 64.59375 
z
" id="DejaVuSans-106"/>
     <path d="M 56.203125 29.59375 
L 56.203125 25.203125 
L 14.890625 25.203125 
Q 15.484375 15.921875 20.484375 11.0625 
Q 25.484375 6.203125 34.421875 6.203125 
Q 39.59375 6.203125 44.453125 7.46875 
Q 49.3125 8.734375 54.109375 11.28125 
L 54.109375 2.78125 
Q 49.265625 0.734375 44.1875 -0.34375 
Q 39.109375 -1.421875 33.890625 -1.421875 
Q 20.796875 -1.421875 13.15625 6.1875 
Q 5.515625 13.8125 5.515625 26.8125 
Q 5.515625 40.234375 12.765625 48.109375 
Q 20.015625 56 32.328125 56 
Q 43.359375 56 49.78125 48.890625 
Q 56.203125 41.796875 56.203125 29.59375 
z
M 47.21875 32.234375 
Q 47.125 39.59375 43.09375 43.984375 
Q 39.0625 48.390625 32.421875 48.390625 
Q 24.90625 48.390625 20.390625 44.140625 
Q 15.875 39.890625 15.1875 32.171875 
z
" id="DejaVuSans-101"/>
     <path d="M 48.78125 52.59375 
L 48.78125 44.1875 
Q 44.96875 46.296875 41.140625 47.34375 
Q 37.3125 48.390625 33.40625 48.390625 
Q 24.65625 48.390625 19.8125 42.84375 
Q 14.984375 37.3125 14.984375 27.296875 
Q 14.984375 17.28125 19.8125 11.734375 
Q 24.65625 6.203125 33.40625 6.203125 
Q 37.3125 6.203125 41.140625 7.25 
Q 44.96875 8.296875 48.78125 10.40625 
L 48.78125 2.09375 
Q 45.015625 0.34375 40.984375 -0.53125 
Q 36.96875 -1.421875 32.421875 -1.421875 
Q 20.0625 -1.421875 12.78125 6.34375 
Q 5.515625 14.109375 5.515625 27.296875 
Q 5.515625 40.671875 12.859375 48.328125 
Q 20.21875 56 33.015625 56 
Q 37.15625 56 41.109375 55.140625 
Q 45.0625 54.296875 48.78125 52.59375 
z
" id="DejaVuSans-99"/>
     <path d="M 18.3125 70.21875 
L 18.3125 54.6875 
L 36.8125 54.6875 
L 36.8125 47.703125 
L 18.3125 47.703125 
L 18.3125 18.015625 
Q 18.3125 11.328125 20.140625 9.421875 
Q 21.96875 7.515625 27.59375 7.515625 
L 36.8125 7.515625 
L 36.8125 0 
L 27.59375 0 
Q 17.1875 0 13.234375 3.875 
Q 9.28125 7.765625 9.28125 18.015625 
L 9.28125 47.703125 
L 2.6875 47.703125 
L 2.6875 54.6875 
L 9.28125 54.6875 
L 9.28125 70.21875 
z
" id="DejaVuSans-116"/>
     <path d="M 11.71875 12.40625 
L 22.015625 12.40625 
L 22.015625 0 
L 11.71875 0 
z
M 11.71875 51.703125 
L 22.015625 51.703125 
L 22.015625 39.3125 
L 11.71875 39.3125 
z
" id="DejaVuSans-58"/>
     <path d="M 44.28125 53.078125 
L 44.28125 44.578125 
Q 40.484375 46.53125 36.375 47.5 
Q 32.28125 48.484375 27.875 48.484375 
Q 21.1875 48.484375 17.84375 46.4375 
Q 14.5 44.390625 14.5 40.28125 
Q 14.5 37.15625 16.890625 35.375 
Q 19.28125 33.59375 26.515625 31.984375 
L 29.59375 31.296875 
Q 39.15625 29.25 43.1875 25.515625 
Q 47.21875 21.78125 47.21875 15.09375 
Q 47.21875 7.46875 41.1875 3.015625 
Q 35.15625 -1.421875 24.609375 -1.421875 
Q 20.21875 -1.421875 15.453125 -0.5625 
Q 10.6875 0.296875 5.421875 2 
L 5.421875 11.28125 
Q 10.40625 8.6875 15.234375 7.390625 
Q 20.0625 6.109375 24.8125 6.109375 
Q 31.15625 6.109375 34.5625 8.28125 
Q 37.984375 10.453125 37.984375 14.40625 
Q 37.984375 18.0625 35.515625 20.015625 
Q 33.0625 21.96875 24.703125 23.78125 
L 21.578125 24.515625 
Q 13.234375 26.265625 9.515625 29.90625 
Q 5.8125 33.546875 5.8125 39.890625 
Q 5.8125 47.609375 11.28125 51.796875 
Q 16.75 56 26.8125 56 
Q 31.78125 56 36.171875 55.265625 
Q 40.578125 54.546875 44.28125 53.078125 
z
" id="DejaVuSans-115"/>
     <path d="M 8.203125 72.90625 
L 55.078125 72.90625 
L 55.078125 68.703125 
L 28.609375 0 
L 18.3125 0 
L 43.21875 64.59375 
L 8.203125 64.59375 
z
" id="DejaVuSans-55"/>
     <path d="M 11.71875 12.40625 
L 22.015625 12.40625 
L 22.015625 4 
L 14.015625 -11.625 
L 7.71875 -11.625 
L 11.71875 4 
z
" id="DejaVuSans-44"/>
     <path d="M 9.8125 72.90625 
L 19.671875 72.90625 
L 19.671875 42.09375 
L 52.390625 72.90625 
L 65.09375 72.90625 
L 28.90625 38.921875 
L 67.671875 0 
L 54.6875 0 
L 19.671875 35.109375 
L 19.671875 0 
L 9.8125 0 
z
" id="DejaVuSans-75"/>
     <path d="M 54.890625 33.015625 
L 54.890625 0 
L 45.90625 0 
L 45.90625 32.71875 
Q 45.90625 40.484375 42.875 44.328125 
Q 39.84375 48.1875 33.796875 48.1875 
Q 26.515625 48.1875 22.3125 43.546875 
Q 18.109375 38.921875 18.109375 30.90625 
L 18.109375 0 
L 9.078125 0 
L 9.078125 54.6875 
L 18.109375 54.6875 
L 18.109375 46.1875 
Q 21.34375 51.125 25.703125 53.5625 
Q 30.078125 56 35.796875 56 
Q 45.21875 56 50.046875 50.171875 
Q 54.890625 44.34375 54.890625 33.015625 
z
" id="DejaVuSans-110"/>
     <path d="M 30.609375 48.390625 
Q 23.390625 48.390625 19.1875 42.75 
Q 14.984375 37.109375 14.984375 27.296875 
Q 14.984375 17.484375 19.15625 11.84375 
Q 23.34375 6.203125 30.609375 6.203125 
Q 37.796875 6.203125 41.984375 11.859375 
Q 46.1875 17.53125 46.1875 27.296875 
Q 46.1875 37.015625 41.984375 42.703125 
Q 37.796875 48.390625 30.609375 48.390625 
z
M 30.609375 56 
Q 42.328125 56 49.015625 48.375 
Q 55.71875 40.765625 55.71875 27.296875 
Q 55.71875 13.875 49.015625 6.21875 
Q 42.328125 -1.421875 30.609375 -1.421875 
Q 18.84375 -1.421875 12.171875 6.21875 
Q 5.515625 13.875 5.515625 27.296875 
Q 5.515625 40.765625 12.171875 48.375 
Q 18.84375 56 30.609375 56 
z
" id="DejaVuSans-111"/>
     <path d="M 4.203125 54.6875 
L 13.1875 54.6875 
L 24.421875 12.015625 
L 35.59375 54.6875 
L 46.1875 54.6875 
L 57.421875 12.015625 
L 68.609375 54.6875 
L 77.59375 54.6875 
L 63.28125 0 
L 52.6875 0 
L 40.921875 44.828125 
L 29.109375 0 
L 18.5 0 
z
" id="DejaVuSans-119"/>
     <path d="M 10.59375 45.40625 
L 73.1875 45.40625 
L 73.1875 37.203125 
L 10.59375 37.203125 
z
M 10.59375 25.484375 
L 73.1875 25.484375 
L 73.1875 17.1875 
L 10.59375 17.1875 
z
" id="DejaVuSans-61"/>
     <path d="M 9.8125 72.90625 
L 51.703125 72.90625 
L 51.703125 64.59375 
L 19.671875 64.59375 
L 19.671875 43.109375 
L 48.578125 43.109375 
L 48.578125 34.8125 
L 19.671875 34.8125 
L 19.671875 0 
L 9.8125 0 
z
" id="DejaVuSans-70"/>
     <path d="M 34.28125 27.484375 
Q 23.390625 27.484375 19.1875 25 
Q 14.984375 22.515625 14.984375 16.5 
Q 14.984375 11.71875 18.140625 8.90625 
Q 21.296875 6.109375 26.703125 6.109375 
Q 34.1875 6.109375 38.703125 11.40625 
Q 43.21875 16.703125 43.21875 25.484375 
L 43.21875 27.484375 
z
M 52.203125 31.203125 
L 52.203125 0 
L 43.21875 0 
L 43.21875 8.296875 
Q 40.140625 3.328125 35.546875 0.953125 
Q 30.953125 -1.421875 24.3125 -1.421875 
Q 15.921875 -1.421875 10.953125 3.296875 
Q 6 8.015625 6 15.921875 
Q 6 25.140625 12.171875 29.828125 
Q 18.359375 34.515625 30.609375 34.515625 
L 43.21875 34.515625 
L 43.21875 35.40625 
Q 43.21875 41.609375 39.140625 45 
Q 35.0625 48.390625 27.6875 48.390625 
Q 23 48.390625 18.546875 47.265625 
Q 14.109375 46.140625 10.015625 43.890625 
L 10.015625 52.203125 
Q 14.9375 54.109375 19.578125 55.046875 
Q 24.21875 56 28.609375 56 
Q 40.484375 56 46.34375 49.84375 
Q 52.203125 43.703125 52.203125 31.203125 
z
" id="DejaVuSans-97"/>
     <path d="M 9.421875 75.984375 
L 18.40625 75.984375 
L 18.40625 0 
L 9.421875 0 
z
" id="DejaVuSans-108"/>
     <path d="M 19.671875 64.796875 
L 19.671875 8.109375 
L 31.59375 8.109375 
Q 46.6875 8.109375 53.6875 14.9375 
Q 60.6875 21.78125 60.6875 36.53125 
Q 60.6875 51.171875 53.6875 57.984375 
Q 46.6875 64.796875 31.59375 64.796875 
z
M 9.8125 72.90625 
L 30.078125 72.90625 
Q 51.265625 72.90625 61.171875 64.09375 
Q 71.09375 55.28125 71.09375 36.53125 
Q 71.09375 17.671875 61.125 8.828125 
Q 51.171875 0 30.078125 0 
L 9.8125 0 
z
" id="DejaVuSans-68"/>
     <path d="M 45.40625 27.984375 
Q 45.40625 37.75 41.375 43.109375 
Q 37.359375 48.484375 30.078125 48.484375 
Q 22.859375 48.484375 18.828125 43.109375 
Q 14.796875 37.75 14.796875 27.984375 
Q 14.796875 18.265625 18.828125 12.890625 
Q 22.859375 7.515625 30.078125 7.515625 
Q 37.359375 7.515625 41.375 12.890625 
Q 45.40625 18.265625 45.40625 27.984375 
z
M 54.390625 6.78125 
Q 54.390625 -7.171875 48.1875 -13.984375 
Q 42 -20.796875 29.203125 -20.796875 
Q 24.46875 -20.796875 20.265625 -20.09375 
Q 16.0625 -19.390625 12.109375 -17.921875 
L 12.109375 -9.1875 
Q 16.0625 -11.328125 19.921875 -12.34375 
Q 23.78125 -13.375 27.78125 -13.375 
Q 36.625 -13.375 41.015625 -8.765625 
Q 45.40625 -4.15625 45.40625 5.171875 
L 45.40625 9.625 
Q 42.625 4.78125 38.28125 2.390625 
Q 33.9375 0 27.875 0 
Q 17.828125 0 11.671875 7.65625 
Q 5.515625 15.328125 5.515625 27.984375 
Q 5.515625 40.671875 11.671875 48.328125 
Q 17.828125 56 27.875 56 
Q 33.9375 56 38.28125 53.609375 
Q 42.625 51.21875 45.40625 46.390625 
L 45.40625 54.6875 
L 54.390625 54.6875 
z
" id="DejaVuSans-103"/>
     <path d="M 41.109375 46.296875 
Q 39.59375 47.171875 37.8125 47.578125 
Q 36.03125 48 33.890625 48 
Q 26.265625 48 22.1875 43.046875 
Q 18.109375 38.09375 18.109375 28.8125 
L 18.109375 0 
L 9.078125 0 
L 9.078125 54.6875 
L 18.109375 54.6875 
L 18.109375 46.1875 
Q 20.953125 51.171875 25.484375 53.578125 
Q 30.03125 56 36.53125 56 
Q 37.453125 56 38.578125 55.875 
Q 39.703125 55.765625 41.0625 55.515625 
z
" id="DejaVuSans-114"/>
     <path d="M 9.421875 54.6875 
L 18.40625 54.6875 
L 18.40625 0 
L 9.421875 0 
z
M 9.421875 75.984375 
L 18.40625 75.984375 
L 18.40625 64.59375 
L 9.421875 64.59375 
z
" id="DejaVuSans-105"/>
     <path d="M 10.6875 12.40625 
L 21 12.40625 
L 21 0 
L 10.6875 0 
z
" id="DejaVuSans-46"/>
    </defs>
    <g transform="translate(49.741875 35.472)scale(0.12 -0.12)">
     <use xlink:href="#DejaVuSans-40"/>
     <use x="39.013672" xlink:href="#DejaVuSans-49"/>
     <use x="102.636719" xlink:href="#DejaVuSans-54"/>
     <use x="166.259766" xlink:href="#DejaVuSans-41"/>
     <use x="205.273438" xlink:href="#DejaVuSans-32"/>
     <use x="237.060547" xlink:href="#DejaVuSans-83"/>
     <use x="300.537109" xlink:href="#DejaVuSans-117"/>
     <use x="363.916016" xlink:href="#DejaVuSans-98"/>
     <use x="427.392578" xlink:href="#DejaVuSans-106"/>
     <use x="455.175781" xlink:href="#DejaVuSans-101"/>
     <use x="516.699219" xlink:href="#DejaVuSans-99"/>
     <use x="571.679688" xlink:href="#DejaVuSans-116"/>
     <use x="610.888672" xlink:href="#DejaVuSans-58"/>
     <use x="644.580078" xlink:href="#DejaVuSans-32"/>
     <use x="676.367188" xlink:href="#DejaVuSans-115"/>
     <use x="728.466797" xlink:href="#DejaVuSans-49"/>
     <use x="792.089844" xlink:href="#DejaVuSans-55"/>
     <use x="855.712891" xlink:href="#DejaVuSans-44"/>
     <use x="887.5" xlink:href="#DejaVuSans-32"/>
     <use x="919.287109" xlink:href="#DejaVuSans-75"/>
     <use x="984.863281" xlink:href="#DejaVuSans-110"/>
     <use x="1048.242188" xlink:href="#DejaVuSans-111"/>
     <use x="1109.423828" xlink:href="#DejaVuSans-119"/>
     <use x="1191.210938" xlink:href="#DejaVuSans-110"/>
     <use x="1254.589844" xlink:href="#DejaVuSans-32"/>
     <use x="1286.376953" xlink:href="#DejaVuSans-61"/>
     <use x="1370.166016" xlink:href="#DejaVuSans-32"/>
     <use x="1401.953125" xlink:href="#DejaVuSans-70"/>
     <use x="1459.332031" xlink:href="#DejaVuSans-97"/>
     <use x="1520.611328" xlink:href="#DejaVuSans-108"/>
     <use x="1548.394531" xlink:href="#DejaVuSans-115"/>
     <use x="1600.494141" xlink:href="#DejaVuSans-101"/>
     <use x="1662.017578" xlink:href="#DejaVuSans-44"/>
     <use x="1693.804688" xlink:href="#DejaVuSans-32"/>
     <use x="1725.591797" xlink:href="#DejaVuSans-68"/>
     <use x="1802.59375" xlink:href="#DejaVuSans-101"/>
     <use x="1864.117188" xlink:href="#DejaVuSans-103"/>
     <use x="1927.59375" xlink:href="#DejaVuSans-114"/>
     <use x="1968.675781" xlink:href="#DejaVuSans-101"/>
     <use x="2030.199219" xlink:href="#DejaVuSans-101"/>
     <use x="2091.722656" xlink:href="#DejaVuSans-32"/>
     <use x="2123.509766" xlink:href="#DejaVuSans-61"/>
     <use x="2207.298828" xlink:href="#DejaVuSans-32"/>
     <use x="2239.085938" xlink:href="#DejaVuSans-49"/>
     <use x="2302.708984" xlink:href="#DejaVuSans-44"/>
     <use x="2334.496094" xlink:href="#DejaVuSans-32"/>
     <use x="2366.283203" xlink:href="#DejaVuSans-68"/>
     <use x="2443.285156" xlink:href="#DejaVuSans-117"/>
     <use x="2506.664062" xlink:href="#DejaVuSans-114"/>
     <use x="2547.777344" xlink:href="#DejaVuSans-97"/>
     <use x="2609.056641" xlink:href="#DejaVuSans-116"/>
     <use x="2648.265625" xlink:href="#DejaVuSans-105"/>
     <use x="2676.048828" xlink:href="#DejaVuSans-111"/>
     <use x="2737.230469" xlink:href="#DejaVuSans-110"/>
     <use x="2800.609375" xlink:href="#DejaVuSans-32"/>
     <use x="2832.396484" xlink:href="#DejaVuSans-61"/>
     <use x="2916.185547" xlink:href="#DejaVuSans-32"/>
     <use x="2947.972656" xlink:href="#DejaVuSans-48"/>
     <use x="3011.595703" xlink:href="#DejaVuSans-46"/>
     <use x="3043.382812" xlink:href="#DejaVuSans-49"/>
    </g>
   </g>
  </g>
 </g>
 <defs>
  <clipPath id="pee97bf4c4c">
   <rect height="266.112" width="357.12" x="57.6" y="41.472"/>
  </clipPath>
 </defs>
</svg>
