<?xml version="1.0" encoding="utf-8" standalone="no"?>
<!DOCTYPE svg PUBLIC "-//W3C//DTD SVG 1.1//EN"
  "http://www.w3.org/Graphics/SVG/1.1/DTD/svg11.dtd">
<!-- Created with matplotlib (https://matplotlib.org/) -->
<svg height="345.6pt" version="1.1" viewBox="0 0 460.8 345.6" width="460.8pt" xmlns="http://www.w3.org/2000/svg" xmlns:xlink="http://www.w3.org/1999/xlink">
 <defs>
  <style type="text/css">
*{stroke-linecap:butt;stroke-linejoin:round;}
  </style>
 </defs>
 <g id="figure_1">
  <g id="patch_1">
   <path d="M 0 345.6 
L 460.8 345.6 
L 460.8 0 
L 0 0 
z
" style="fill:#ffffff;"/>
  </g>
  <g id="axes_1">
   <g id="patch_2">
    <path d="M 57.6 307.584 
L 414.72 307.584 
L 414.72 41.472 
L 57.6 41.472 
z
" style="fill:#ffffff;"/>
   </g>
   <g id="line2d_1">
    <path clip-path="url(#p48eb0e6860)" d="M 73.959387 61.076821 
L 74.580431 60.586549 
L 74.457857 60.2597 
L 73.832727 59.771166 
L 74.081962 60.096276 
L 74.208622 60.2597 
L 74.331196 59.93459 
L 74.208622 59.771166 
L 73.832727 59.771166 
L 73.832727 59.607742 
L 73.959387 59.280893 
L 74.208622 59.444318 
L 74.331196 59.93459 
L 74.580431 60.096276 
L 74.580431 59.771166 
L 74.331196 59.607742 
L 74.331196 59.444318 
L 74.457857 59.444318 
L 74.580431 59.607742 
L 74.081962 58.790621 
L 74.208622 58.790621 
L 74.208622 58.954045 
L 74.081962 59.117469 
L 74.081962 59.444318 
L 74.208622 59.444318 
L 74.208622 59.117469 
L 74.829665 58.302087 
L 74.829665 58.302087 
L 74.707091 57.975238 
L 74.956326 57.975238 
L 75.20556 58.302087 
L 75.20556 58.627197 
L 74.829665 58.627197 
L 74.331196 59.280893 
L 74.829665 58.790621 
L 75.0789 58.627197 
L 75.328135 57.975238 
L 75.20556 57.975238 
L 75.454795 58.138662 
L 75.704029 58.138662 
L 75.826604 57.975238 
L 75.577369 57.811814 
L 75.328135 57.811814 
L 74.956326 57.975238 
L 74.829665 57.811814 
L 75.20556 57.484966 
L 75.826604 57.321541 
L 76.202498 57.484966 
L 76.202498 57.811814 
L 75.953264 57.811814 
L 75.577369 57.484966 
L 75.577369 56.994693 
L 75.704029 56.506159 
L 75.577369 56.506159 
L 75.577369 56.669583 
L 75.953264 57.64839 
L 75.826604 57.975238 
L 75.826604 57.811814 
L 75.826604 57.484966 
L 76.075838 57.321541 
L 76.075838 57.158117 
L 76.075838 57.484966 
L 76.202498 57.811814 
L 76.451733 57.321541 
L 76.075838 56.994693 
L 76.451733 57.158117 
L 76.700967 56.506159 
L 76.700967 56.506159 
L 76.823542 56.833007 
L 77.072776 56.833007 
L 76.950202 56.506159 
L 76.700967 56.342735 
L 76.700967 56.506159 
L 76.823542 56.833007 
L 76.823542 57.158117 
L 76.823542 56.506159 
L 77.199436 56.342735 
L 77.199436 56.833007 
L 77.072776 56.833007 
L 77.322011 56.506159 
L 77.571245 56.506159 
L 77.322011 56.669583 
L 76.950202 56.506159 
L 76.950202 55.852462 
L 76.950202 56.17931 
L 76.700967 56.506159 
L 76.451733 56.342735 
L 76.451733 55.852462 
L 76.700967 55.689038 
L 76.950202 55.852462 
L 76.823542 56.17931 
L 76.950202 56.015886 
L 77.072776 55.852462 
L 76.950202 55.852462 
L 76.823542 55.852462 
L 76.451733 56.17931 
L 76.451733 56.015886 
L 76.700967 55.362189 
L 76.700967 55.362189 
L 76.700967 56.17931 
L 76.700967 56.17931 
L 77.199436 55.037079 
L 77.322011 55.037079 
L 76.451733 55.525614 
L 76.950202 55.037079 
L 77.072776 55.037079 
L 76.700967 55.200504 
L 76.950202 55.200504 
L 77.072776 55.200504 
L 77.072776 55.362189 
L 77.322011 55.362189 
L 77.322011 55.200504 
L 77.072776 55.525614 
L 76.700967 55.525614 
L 76.451733 54.873655 
L 76.574307 54.056534 
L 76.823542 53.731424 
L 77.072776 54.219958 
L 77.072776 54.546807 
L 77.199436 55.200504 
L 77.072776 54.873655 
L 76.823542 55.037079 
L 76.950202 54.710231 
L 77.199436 54.219958 
L 77.199436 54.056534 
L 77.072776 54.056534 
L 77.199436 54.056534 
L 76.950202 54.219958 
L 77.697906 53.568 
L 77.82048 53.731424 
L 77.82048 54.056534 
L 77.571245 54.056534 
L 77.322011 54.546807 
L 77.199436 54.873655 
L 77.199436 54.873655 
L 77.448671 54.710231 
L 77.82048 54.056534 
L 77.94714 53.731424 
L 77.94714 55.037079 
L 78.069714 56.015886 
L 78.196375 56.015886 
L 77.697906 55.525614 
L 77.571245 55.525614 
L 77.571245 55.852462 
L 77.448671 56.015886 
L 77.571245 56.015886 
L 77.82048 55.852462 
L 77.94714 56.015886 
L 77.697906 56.506159 
L 77.697906 56.17931 
L 77.82048 55.852462 
L 77.571245 56.833007 
L 77.82048 56.994693 
L 78.069714 56.833007 
L 79.319973 56.833007 
L 82.061553 57.484966 
L 86.670349 59.771166 
L 96.639731 63.524707 
L 105.362939 67.443412 
L 114.339469 71.196953 
L 118.948265 73.319729 
L 123.683721 75.115657 
L 129.044306 76.257888 
L 134.527466 77.236695 
L 139.761392 78.053816 
L 145.244552 79.032623 
L 150.976946 80.338278 
L 162.940204 82.624478 
L 169.048493 84.256982 
L 175.156782 86.05291 
L 181.387646 87.683675 
L 187.867744 88.991069 
L 194.470416 90.948682 
L 201.077174 93.071458 
L 214.413265 96.988424 
L 234.977157 102.539632 
L 254.168217 109.069646 
L 260.525741 111.190684 
L 267.005839 113.640309 
L 294.670873 126.535175 
L 303.394081 130.778989 
L 310.997778 134.20742 
L 314.98553 136.493621 
L 321.964097 141.064283 
L 324.954912 142.860211 
L 327.573918 144.817825 
L 329.567794 146.940601 
L 331.56167 148.899953 
L 333.428886 150.532457 
L 334.801719 152.653495 
L 336.170466 158.856661 
L 336.668935 160.32574 
L 336.91817 161.631395 
L 336.795595 163.100475 
L 336.419701 164.40613 
L 335.671997 166.038633 
L 335.050954 167.019179 
L 334.924294 169.140216 
L 334.924294 169.793913 
L 334.801719 170.44761 
L 335.050954 172.732072 
L 335.050954 173.710879 
L 335.173528 175.506807 
L 334.924294 176.323928 
L 334.675059 176.650776 
L 334.552485 177.466159 
L 334.924294 178.771814 
L 334.924294 179.098662 
L 334.675059 179.752359 
L 334.552485 180.077469 
L 334.30325 181.383124 
L 334.552485 182.36367 
L 334.552485 183.179052 
L 334.801719 183.996173 
L 334.552485 184.811556 
L 334.675059 185.138404 
L 334.924294 185.138404 
L 335.050954 184.97498 
L 334.801719 185.138404 
L 334.801719 184.484707 
L 334.675059 184.484707 
L 334.425824 184.97498 
L 333.804781 185.301829 
L 334.054016 185.465253 
L 334.801719 186.280635 
L 334.675059 185.953787 
L 334.801719 185.792101 
L 334.801719 185.953787 
L 334.675059 186.280635 
L 334.30325 186.607484 
L 334.30325 186.607484 
L 335.050954 187.097756 
L 335.173528 187.58629 
L 335.300188 187.261181 
L 335.173528 186.934332 
L 334.054016 186.934332 
L 333.804781 186.770908 
L 334.054016 186.934332 
L 334.552485 186.934332 
L 334.924294 186.607484 
L 335.050954 186.117211 
L 335.173528 186.117211 
L 335.173528 186.770908 
L 335.300188 187.097756 
L 335.549423 187.261181 
L 335.422763 187.097756 
L 335.300188 186.770908 
L 335.300188 186.280635 
L 335.422763 185.953787 
L 335.422763 186.280635 
L 335.173528 186.934332 
L 335.422763 187.097756 
L 335.300188 187.097756 
L 335.173528 187.097756 
L 335.173528 187.097756 
L 335.173528 187.261181 
L 334.924294 187.58629 
L 334.552485 187.424605 
L 334.801719 186.934332 
L 334.801719 187.097756 
L 334.675059 187.261181 
L 334.552485 187.097756 
L 334.924294 186.770908 
L 334.924294 187.097756 
L 334.675059 187.58629 
L 334.801719 187.424605 
L 335.798657 186.770908 
L 335.050954 187.261181 
L 334.675059 187.261181 
L 334.675059 186.44406 
L 334.801719 186.280635 
L 335.050954 186.280635 
L 335.050954 186.280635 
L 335.300188 186.44406 
L 336.047892 186.44406 
L 337.915108 185.953787 
L 339.65975 185.628677 
L 341.159243 185.465253 
L 342.405416 185.792101 
L 345.39623 186.280635 
L 347.263446 186.934332 
L 349.008088 187.913139 
L 350.87939 189.382218 
L 357.110253 193.789457 
L 361.22058 197.217888 
L 363.091882 199.013816 
L 364.959098 200.64632 
L 372.190986 208.808838 
L 375.680269 213.541186 
L 377.175677 215.663962 
L 378.671084 217.45989 
L 380.415726 219.092394 
L 382.409602 221.21517 
L 386.397355 226.110942 
L 388.264571 227.90687 
L 393.747731 233.946612 
L 394.993903 235.905964 
L 395.990842 237.865316 
L 396.865205 239.334395 
L 397.237014 240.476626 
L 398.111378 244.557016 
L 397.984718 246.18952 
L 397.363674 250.108224 
L 396.489311 253.209807 
L 395.741607 255.657693 
L 395.492372 256.799924 
L 394.993903 257.943894 
L 394.495434 259.901507 
L 394.37286 261.045477 
L 393.747731 262.839666 
L 393.747731 264.47217 
L 393.498496 266.104673 
L 393.625156 266.921794 
L 393.874391 267.573753 
L 393.375922 268.390874 
L 393.375922 268.879408 
L 393.249262 269.533105 
L 392.501558 271.002184 
L 392.378984 270.83876 
L 392.252323 271.002184 
L 392.750793 272.144415 
L 392.501558 272.634688 
L 392.129749 272.798112 
L 392.129749 273.12496 
L 392.252323 273.45007 
L 392.252323 274.103767 
L 392.378984 274.267191 
L 391.753854 275.245998 
L 391.753854 276.226543 
L 391.382045 276.715078 
L 391.382045 277.041926 
L 391.255385 277.532199 
L 391.255385 277.695623 
L 391.50462 277.859047 
L 391.880515 278.022471 
L 391.753854 278.511005 
L 392.003089 278.184157 
L 391.880515 278.347581 
L 391.63128 279.001278 
L 391.63128 279.653236 
L 391.753854 279.980085 
L 391.880515 279.980085 
L 391.880515 279.816661 
L 392.003089 279.653236 
L 392.252323 279.816661 
L 392.252323 280.470357 
L 392.378984 280.470357 
L 392.628218 280.143509 
L 392.378984 280.306933 
L 392.252323 280.306933 
L 392.003089 280.143509 
L 391.880515 280.143509 
L 391.753854 280.306933 
L 391.753854 280.306933 
L 392.003089 280.306933 
L 392.129749 280.470357 
L 392.252323 280.96063 
L 392.628218 281.612588 
L 392.628218 281.612588 
L 392.501558 281.612588 
L 392.501558 280.96063 
L 392.501558 281.122316 
L 392.628218 280.797206 
L 393.249262 280.96063 
L 393.126687 281.122316 
L 392.877453 281.122316 
L 392.877453 281.122316 
L 393.000027 281.28574 
L 393.000027 281.612588 
L 393.249262 282.102861 
L 393.498496 282.102861 
L 393.375922 282.102861 
L 393.126687 281.939437 
L 393.126687 281.122316 
L 393.249262 281.122316 
L 393.249262 282.42971 
L 393.375922 282.754819 
L 393.498496 282.754819 
L 393.498496 282.593134 
L 393.375922 282.266285 
L 393.375922 281.939437 
L 393.747731 281.612588 
L 393.996965 281.776013 
L 393.996965 282.102861 
L 393.874391 282.266285 
L 393.874391 282.102861 
L 393.747731 281.776013 
L 393.874391 281.449164 
L 393.874391 281.122316 
L 393.996965 281.449164 
L 394.2462 281.612588 
L 394.123625 281.776013 
L 393.874391 281.612588 
L 393.625156 281.28574 
L 393.747731 280.96063 
L 393.996965 280.96063 
L 394.2462 280.797206 
L 394.2462 280.797206 
L 393.625156 280.797206 
L 394.2462 280.96063 
L 394.37286 280.797206 
L 394.123625 280.633782 
L 393.874391 281.122316 
L 394.123625 280.96063 
L 394.37286 279.980085 
L 394.37286 279.491551 
L 394.2462 278.837854 
L 394.123625 279.001278 
L 394.37286 278.67443 
L 394.2462 279.001278 
L 394.495434 279.001278 
L 394.744669 278.837854 
L 394.993903 278.511005 
L 394.871329 278.184157 
L 394.744669 278.347581 
L 394.871329 278.022471 
L 394.622094 278.184157 
L 394.993903 278.022471 
L 395.243138 278.022471 
L 395.492372 277.859047 
L 395.492372 277.695623 
L 395.120564 277.20535 
L 395.619033 276.715078 
L 395.868267 276.551653 
L 395.868267 276.389968 
L 395.741607 276.063119 
L 395.741607 276.063119 
L 395.492372 276.226543 
L 395.243138 276.226543 
L 395.741607 275.409422 
L 395.741607 275.082574 
L 395.990842 274.757464 
L 396.615971 274.59404 
L 396.865205 274.757464 
L 396.865205 274.59404 
L 396.615971 274.267191 
L 396.240076 274.267191 
L 396.615971 274.920888 
L 396.489311 274.59404 
L 396.738545 274.103767 
L 396.738545 273.776919 
L 396.117502 272.798112 
L 394.495434 272.471264 
L 389.637404 270.186802 
L 387.267633 269.206256 
L 384.276818 268.717722 
L 381.286004 268.064025 
L 377.92338 267.085219 
L 374.184862 265.777825 
L 370.319684 264.962442 
L 366.331931 264.308745 
L 361.968284 263.329939 
L 357.359488 262.514556 
L 348.13781 261.207162 
L 343.402354 260.228356 
L 338.291003 259.412973 
L 333.057077 258.759276 
L 327.696492 257.943894 
L 322.462567 256.963348 
L 317.106067 256.474814 
L 311.373672 256.474814 
L 300.154032 255.821117 
L 288.566669 254.515462 
L 282.707615 253.534917 
L 276.97522 252.719534 
L 270.993591 251.740728 
L 265.011962 251.087031 
L 253.796408 250.760182 
L 248.558397 250.271648 
L 243.201897 249.9448 
L 237.967972 249.9448 
L 232.856621 249.781375 
L 214.785074 248.639145 
L 210.674747 248.47572 
L 206.936229 248.639145 
L 203.320285 248.639145 
L 199.957662 248.802569 
L 196.840187 249.127679 
L 193.971947 249.617951 
L 191.357027 249.617951 
L 189.113916 249.454527 
L 185.126164 248.639145 
L 184.876929 248.802569 
L 184.876929 249.291103 
L 184.750269 249.617951 
L 184.501034 249.617951 
L 184.37846 249.454527 
L 184.750269 249.291103 
L 185.747207 249.291103 
L 186.621571 249.781375 
L 186.744145 249.454527 
L 186.494911 249.291103 
L 186.245676 249.291103 
L 186.621571 249.617951 
L 185.747207 250.271648 
L 185.873867 250.596758 
L 186.123102 250.760182 
L 186.123102 250.596758 
L 185.873867 250.433334 
L 185.747207 250.108224 
L 186.123102 249.9448 
L 186.372336 250.108224 
L 186.372336 250.433334 
L 185.624633 250.108224 
L 185.497973 250.271648 
L 185.497973 250.760182 
L 185.248738 250.596758 
L 184.999504 250.596758 
L 185.248738 250.760182 
L 185.497973 250.760182 
L 185.497973 250.760182 
L 185.497973 250.923606 
L 185.873867 250.923606 
L 186.245676 251.087031 
L 185.996442 251.250455 
L 185.248738 251.250455 
L 184.750269 251.087031 
L 184.750269 250.596758 
L 184.999504 250.433334 
L 185.126164 250.596758 
L 184.999504 251.087031 
L 185.126164 251.740728 
L 185.624633 251.577303 
L 185.996442 251.250455 
L 185.873867 251.087031 
L 185.497973 251.250455 
L 185.248738 251.087031 
L 184.876929 251.087031 
L 184.627695 251.250455 
L 184.750269 251.250455 
L 184.876929 251.577303 
L 184.750269 252.229262 
L 185.375398 251.740728 
L 185.248738 251.740728 
L 184.750269 252.229262 
L 184.876929 251.740728 
L 184.750269 252.229262 
L 184.750269 253.046383 
L 184.627695 252.719534 
L 184.876929 253.698341 
L 185.375398 253.698341 
L 185.624633 253.861765 
L 185.497973 254.02519 
L 185.497973 253.698341 
L 185.375398 253.534917 
L 185.624633 253.698341 
L 185.248738 254.515462 
L 184.627695 255.16742 
L 184.876929 255.330845 
L 184.999504 255.005735 
L 184.876929 255.16742 
L 184.627695 255.494269 
L 184.627695 255.494269 
L 185.126164 255.494269 
L 185.497973 255.657693 
L 185.624633 255.984542 
L 185.126164 256.147966 
L 184.627695 255.657693 
L 184.627695 256.474814 
L 184.627695 256.474814 
L 184.501034 256.963348 
L 184.2518 256.799924 
L 184.129226 256.31139 
L 184.501034 256.31139 
L 184.37846 256.6365 
L 184.37846 256.963348 
L 184.501034 256.31139 
L 184.2518 256.6365 
L 184.129226 257.126773 
L 184.2518 257.290197 
L 184.2518 257.617045 
L 184.37846 257.290197 
L 183.879991 258.269004 
L 184.129226 258.105579 
L 184.37846 257.617045 
L 184.37846 257.943894 
L 184.750269 257.943894 
L 184.750269 257.943894 
L 184.129226 258.9227 
L 184.129226 258.9227 
L 184.129226 258.432428 
L 184.2518 258.269004 
L 184.501034 258.595852 
L 184.129226 259.249549 
L 184.501034 259.086125 
L 184.2518 259.086125 
L 184.002565 259.086125 
L 184.002565 258.9227 
L 184.129226 258.595852 
L 184.2518 258.595852 
L 184.2518 258.9227 
L 183.879991 259.249549 
L 184.2518 259.086125 
L 184.37846 259.086125 
L 184.129226 259.249549 
L 183.879991 259.086125 
L 184.002565 258.759276 
L 184.37846 258.432428 
L 184.627695 258.9227 
L 184.750269 258.759276 
L 183.879991 259.412973 
L 184.002565 259.412973 
L 184.37846 259.412973 
L 184.750269 259.576397 
L 184.37846 259.412973 
L 184.37846 259.249549 
L 184.627695 259.086125 
L 184.627695 259.249549 
L 184.129226 259.576397 
L 184.129226 259.086125 
L 184.37846 258.269004 
L 184.999504 257.290197 
L 185.747207 256.474814 
L 186.494911 255.330845 
L 187.242614 253.861765 
L 188.239553 252.392686 
L 189.86162 250.433334 
L 191.479602 248.148872 
L 193.101669 245.537561 
L 194.972971 242.924513 
L 197.587891 240.149778 
L 203.446945 234.27346 
L 206.3111 231.171877 
L 209.428574 227.580022 
L 213.289667 223.989904 
L 217.404079 220.561473 
L 221.391832 217.45989 
L 225.506245 214.031458 
L 234.229454 206.195789 
L 243.700366 198.360119 
L 268.999715 177.13931 
L 276.84856 171.753265 
L 280.713738 169.140216 
L 288.317435 163.590747 
L 291.680058 160.979437 
L 294.421638 158.693236 
L 296.791409 156.408774 
L 299.157094 154.285998 
L 307.381834 148.40968 
L 310.748543 145.308097 
L 312.121376 144.490976 
L 311.994716 144.654401 
L 311.994716 145.308097 
L 312.121376 146.12348 
L 311.872142 146.286904 
L 311.496247 145.961794 
L 311.622907 145.961794 
L 311.622907 145.961794 
L 312.121376 145.634946 
L 312.619845 144.981249 
L 312.991654 145.144673 
L 313.240889 144.654401 
L 313.490123 144.490976 
L 313.739358 144.490976 
L 313.739358 144.490976 
L 313.739358 144.002442 
L 313.490123 143.839018 
L 313.118314 143.839018 
L 312.86908 143.675594 
L 312.991654 143.675594 
L 313.240889 143.51217 
L 313.240889 143.185321 
L 313.118314 142.860211 
L 313.240889 143.348745 
L 313.240889 143.51217 
L 312.619845 143.348745 
L 312.74242 143.348745 
L 312.991654 143.51217 
L 313.118314 143.348745 
L 313.118314 143.51217 
L 312.991654 144.002442 
L 313.240889 144.817825 
L 313.118314 144.817825 
L 312.991654 144.329291 
L 313.240889 144.329291 
L 313.240889 144.329291 
L 312.991654 144.817825 
L 312.991654 144.329291 
L 313.240889 144.165866 
L 313.616783 144.165866 
L 313.616783 144.490976 
L 313.367549 144.981249 
L 312.86908 144.981249 
L 312.370611 144.654401 
L 312.370611 144.817825 
L 312.493185 144.981249 
L 312.86908 144.329291 
L 312.74242 144.165866 
L 312.24395 145.144673 
L 312.24395 145.471522 
L 312.619845 145.79837 
L 312.619845 145.961794 
L 312.619845 144.981249 
L 312.991654 144.490976 
L 313.240889 144.490976 
L 313.118314 144.817825 
L 312.86908 144.817825 
L 312.619845 144.329291 
L 312.619845 144.654401 
L 312.991654 145.634946 
L 312.991654 145.634946 
L 313.118314 145.144673 
L 313.240889 145.144673 
L 313.240889 144.981249 
L 313.240889 144.981249 
L 312.991654 144.817825 
L 312.619845 144.817825 
L 312.74242 144.654401 
L 312.991654 144.654401 
L 313.118314 144.981249 
L 313.118314 145.308097 
L 313.240889 145.308097 
L 313.240889 145.308097 
L 313.118314 145.144673 
L 313.240889 145.308097 
L 313.240889 145.79837 
L 313.240889 145.144673 
L 313.367549 145.144673 
L 313.118314 145.308097 
L 313.118314 145.308097 
L 313.118314 145.144673 
L 312.991654 144.981249 
L 312.86908 145.144673 
L 312.86908 145.79837 
L 312.86908 145.471522 
L 312.991654 144.981249 
L 313.490123 144.490976 
L 313.490123 144.654401 
L 313.118314 145.144673 
L 313.240889 144.817825 
L 313.240889 144.490976 
L 312.86908 144.165866 
L 312.74242 144.165866 
L 312.370611 144.490976 
L 312.74242 144.329291 
L 313.367549 144.329291 
L 313.490123 144.490976 
L 313.367549 144.654401 
L 313.367549 145.144673 
L 313.367549 144.981249 
L 312.991654 144.654401 
L 312.991654 144.817825 
L 313.616783 145.144673 
L 313.866018 144.981249 
L 313.616783 144.817825 
L 312.86908 144.817825 
L 312.991654 144.490976 
L 313.367549 144.165866 
L 313.367549 144.329291 
L 313.118314 145.308097 
L 312.619845 145.471522 
L 312.619845 145.308097 
L 313.118314 145.308097 
L 313.739358 144.817825 
L 313.367549 144.490976 
L 313.367549 144.654401 
L 313.616783 145.144673 
L 313.739358 144.654401 
L 313.616783 144.490976 
L 313.118314 144.329291 
L 312.619845 144.654401 
L 313.118314 145.471522 
L 312.991654 145.471522 
L 312.619845 145.308097 
L 312.74242 145.634946 
L 313.118314 146.12348 
L 313.490123 145.79837 
L 313.490123 144.981249 
L 313.616783 145.634946 
L 313.367549 146.286904 
L 313.240889 146.286904 
L 312.991654 145.471522 
L 312.74242 145.471522 
L 312.86908 145.634946 
L 313.240889 145.634946 
L 313.367549 145.79837 
L 313.240889 145.961794 
L 312.619845 145.961794 
L 312.619845 146.12348 
L 313.490123 146.12348 
L 313.490123 145.961794 
L 313.240889 145.961794 
L 313.240889 146.12348 
L 313.367549 146.286904 
L 313.367549 146.777177 
L 313.616783 146.777177 
L 313.616783 146.777177 
L 313.367549 146.940601 
L 312.86908 146.940601 
L 312.74242 147.104025 
L 312.74242 147.430874 
L 313.118314 147.104025 
L 313.367549 147.592559 
L 313.367549 147.430874 
L 312.86908 147.430874 
L 312.991654 147.26745 
L 313.616783 147.104025 
L 314.237827 147.104025 
L 314.736296 146.940601 
L 315.112191 146.613753 
L 315.61066 146.450328 
L 317.72711 146.940601 
L 318.973283 147.755984 
L 322.961036 151.020991 
L 324.705677 152.49007 
L 329.567794 156.24535 
L 331.312436 158.204702 
L 333.179652 160.489164 
L 337.167404 164.08102 
L 339.287941 165.713524 
L 341.408477 167.997985 
L 343.524928 170.44761 
L 347.512681 174.691424 
L 351.500433 179.914045 
L 356.983593 185.953787 
L 363.590351 194.770002 
L 366.205271 197.054464 
L 369.073511 199.340664 
L 371.565857 201.625126 
L 373.808968 204.238175 
L 376.301313 206.849486 
L 383.529115 213.541186 
L 385.649651 215.337114 
L 387.394293 217.296466 
L 388.391231 219.419242 
L 389.261509 221.703704 
L 391.880515 227.254912 
L 392.877453 230.029646 
L 393.375922 232.477532 
L 394.123625 234.600309 
L 395.243138 236.721346 
L 397.735483 240.476626 
L 398.111378 242.10913 
L 397.612909 245.537561 
L 397.612909 251.087031 
L 397.486249 253.046383 
L 396.738545 258.432428 
L 395.120564 266.75837 
L 394.993903 267.900601 
L 394.2462 271.002184 
L 394.2462 272.144415 
L 394.123625 273.288385 
L 393.498496 275.082574 
L 393.498496 277.041926 
L 393.625156 278.184157 
L 393.375922 280.143509 
L 392.501558 282.102861 
L 392.501558 284.223899 
L 392.877453 285.204444 
L 392.750793 285.856402 
L 393.000027 287.163796 
L 392.877453 287.488906 
L 392.877453 287.815755 
L 393.126687 288.142603 
L 393.498496 288.142603 
L 393.498496 288.469451 
L 393.249262 288.794561 
L 392.628218 289.284834 
L 392.750793 289.284834 
L 392.877453 289.611682 
L 392.877453 289.938531 
L 393.625156 290.753913 
L 393.625156 290.753913 
L 393.747731 290.265379 
L 393.996965 290.427065 
L 393.996965 291.080762 
L 393.625156 291.734459 
L 393.747731 291.896144 
L 394.123625 291.896144 
L 394.2462 292.222993 
L 394.744669 293.040114 
L 394.495434 293.366962 
L 394.2462 293.203538 
L 394.495434 292.87669 
L 394.993903 293.040114 
L 394.993903 293.203538 
L 394.871329 293.528648 
L 394.871329 293.855496 
L 395.120564 293.855496 
L 395.369798 294.018921 
L 395.619033 294.018921 
L 395.619033 293.855496 
L 395.120564 293.855496 
L 395.369798 294.018921 
L 395.990842 294.182345 
L 395.990842 293.855496 
L 395.741607 293.855496 
L 395.741607 294.018921 
L 395.868267 294.672617 
L 395.741607 295.161152 
L 396.240076 294.509193 
L 396.615971 294.509193 
L 396.865205 294.672617 
L 396.865205 294.509193 
L 396.489311 294.182345 
L 396.489311 294.345769 
L 396.489311 294.672617 
L 396.615971 294.672617 
L 396.489311 294.672617 
L 395.868267 294.997727 
L 395.990842 295.161152 
L 396.489311 295.161152 
L 396.98778 294.997727 
L 397.11444 294.672617 
L 396.865205 294.997727 
L 396.865205 295.488 
L 396.865205 294.836042 
L 397.11444 294.672617 
L 397.612909 293.366962 
L 397.612909 293.366962 
L 397.612909 293.855496 
L 397.735483 294.345769 
L 397.612909 294.509193 
L 397.612909 294.509193 
L 397.363674 293.855496 
L 397.237014 293.855496 
L 397.612909 293.366962 
L 397.862143 293.855496 
L 397.862143 293.528648 
L 397.984718 292.87669 
L 397.862143 292.549841 
L 397.984718 292.713265 
L 398.238038 293.040114 
L 398.238038 293.366962 
L 398.111378 293.203538 
L 398.111378 292.386417 
L 398.238038 292.549841 
L 398.238038 293.040114 
L 398.360613 293.203538 
L 398.238038 293.040114 
L 397.735483 292.713265 
L 398.238038 292.386417 
L 398.487273 291.896144 
L 398.238038 292.059569 
L 398.238038 292.222993 
L 398.238038 292.222993 
L 398.111378 292.059569 
L 397.862143 292.222993 
L 397.862143 292.386417 
L 398.111378 293.203538 
L 397.984718 292.713265 
L 397.984718 292.222993 
L 397.862143 292.549841 
L 397.862143 292.87669 
L 397.862143 292.549841 
L 397.735483 292.386417 
L 398.111378 292.713265 
L 398.238038 292.713265 
L 398.238038 292.549841 
L 397.735483 293.203538 
L 397.862143 292.87669 
L 397.862143 292.713265 
L 398.111378 292.386417 
L 398.111378 292.549841 
L 398.111378 292.713265 
L 398.238038 292.87669 
L 398.111378 292.87669 
L 397.984718 292.87669 
L 398.111378 292.87669 
L 397.984718 293.040114 
L 397.862143 293.528648 
L 397.984718 294.018921 
L 397.862143 294.345769 
L 397.862143 294.018921 
L 397.984718 293.528648 
L 398.111378 293.528648 
L 397.612909 293.528648 
L 397.237014 293.040114 
L 397.363674 293.203538 
L 397.735483 293.366962 
L 398.111378 293.203538 
L 397.984718 293.040114 
L 397.984718 293.528648 
L 397.984718 293.366962 
L 397.735483 293.203538 
L 397.735483 293.203538 
L 397.735483 293.528648 
L 397.486249 293.692072 
L 397.363674 293.528648 
L 397.486249 293.203538 
L 397.862143 293.855496 
L 397.984718 294.345769 
L 398.111378 294.345769 
L 397.984718 294.345769 
L 397.984718 294.672617 
L 397.984718 294.672617 
L 397.862143 294.509193 
L 397.237014 294.182345 
L 397.363674 294.182345 
L 397.363674 294.018921 
L 397.363674 294.018921 
L 397.612909 293.366962 
L 397.612909 294.018921 
L 397.612909 294.018921 
L 397.237014 293.692072 
L 397.486249 294.182345 
L 397.486249 293.366962 
L 397.735483 293.366962 
L 397.735483 293.366962 
L 397.237014 293.855496 
L 397.11444 293.528648 
L 397.984718 293.040114 
L 397.984718 293.040114 
" style="fill:none;stroke:#1f77b4;stroke-linecap:square;stroke-width:1.5;"/>
   </g>
   <g id="matplotlib.axis_1">
    <g id="xtick_1">
     <g id="line2d_2">
      <defs>
       <path d="M 0 0 
L 0 3.5 
" id="md012ed1c78" style="stroke:#000000;stroke-width:0.8;"/>
      </defs>
      <g>
       <use style="stroke:#000000;stroke-width:0.8;" x="82.678511" xlink:href="#md012ed1c78" y="307.584"/>
      </g>
     </g>
     <g id="text_1">
      <!-- −600 -->
      <defs>
       <path d="M 10.59375 35.5 
L 73.1875 35.5 
L 73.1875 27.203125 
L 10.59375 27.203125 
z
" id="DejaVuSans-8722"/>
       <path d="M 33.015625 40.375 
Q 26.375 40.375 22.484375 35.828125 
Q 18.609375 31.296875 18.609375 23.390625 
Q 18.609375 15.53125 22.484375 10.953125 
Q 26.375 6.390625 33.015625 6.390625 
Q 39.65625 6.390625 43.53125 10.953125 
Q 47.40625 15.53125 47.40625 23.390625 
Q 47.40625 31.296875 43.53125 35.828125 
Q 39.65625 40.375 33.015625 40.375 
z
M 52.59375 71.296875 
L 52.59375 62.3125 
Q 48.875 64.0625 45.09375 64.984375 
Q 41.3125 65.921875 37.59375 65.921875 
Q 27.828125 65.921875 22.671875 59.328125 
Q 17.53125 52.734375 16.796875 39.40625 
Q 19.671875 43.65625 24.015625 45.921875 
Q 28.375 48.1875 33.59375 48.1875 
Q 44.578125 48.1875 50.953125 41.515625 
Q 57.328125 34.859375 57.328125 23.390625 
Q 57.328125 12.15625 50.6875 5.359375 
Q 44.046875 -1.421875 33.015625 -1.421875 
Q 20.359375 -1.421875 13.671875 8.265625 
Q 6.984375 17.96875 6.984375 36.375 
Q 6.984375 53.65625 15.1875 63.9375 
Q 23.390625 74.21875 37.203125 74.21875 
Q 40.921875 74.21875 44.703125 73.484375 
Q 48.484375 72.75 52.59375 71.296875 
z
" id="DejaVuSans-54"/>
       <path d="M 31.78125 66.40625 
Q 24.171875 66.40625 20.328125 58.90625 
Q 16.5 51.421875 16.5 36.375 
Q 16.5 21.390625 20.328125 13.890625 
Q 24.171875 6.390625 31.78125 6.390625 
Q 39.453125 6.390625 43.28125 13.890625 
Q 47.125 21.390625 47.125 36.375 
Q 47.125 51.421875 43.28125 58.90625 
Q 39.453125 66.40625 31.78125 66.40625 
z
M 31.78125 74.21875 
Q 44.046875 74.21875 50.515625 64.515625 
Q 56.984375 54.828125 56.984375 36.375 
Q 56.984375 17.96875 50.515625 8.265625 
Q 44.046875 -1.421875 31.78125 -1.421875 
Q 19.53125 -1.421875 13.0625 8.265625 
Q 6.59375 17.96875 6.59375 36.375 
Q 6.59375 54.828125 13.0625 64.515625 
Q 19.53125 74.21875 31.78125 74.21875 
z
" id="DejaVuSans-48"/>
      </defs>
      <g transform="translate(68.944917 322.182437)scale(0.1 -0.1)">
       <use xlink:href="#DejaVuSans-8722"/>
       <use x="83.789062" xlink:href="#DejaVuSans-54"/>
       <use x="147.412109" xlink:href="#DejaVuSans-48"/>
       <use x="211.035156" xlink:href="#DejaVuSans-48"/>
      </g>
     </g>
    </g>
    <g id="xtick_2">
     <g id="line2d_3">
      <g>
       <use style="stroke:#000000;stroke-width:0.8;" x="123.536632" xlink:href="#md012ed1c78" y="307.584"/>
      </g>
     </g>
     <g id="text_2">
      <!-- −500 -->
      <defs>
       <path d="M 10.796875 72.90625 
L 49.515625 72.90625 
L 49.515625 64.59375 
L 19.828125 64.59375 
L 19.828125 46.734375 
Q 21.96875 47.46875 24.109375 47.828125 
Q 26.265625 48.1875 28.421875 48.1875 
Q 40.625 48.1875 47.75 41.5 
Q 54.890625 34.8125 54.890625 23.390625 
Q 54.890625 11.625 47.5625 5.09375 
Q 40.234375 -1.421875 26.90625 -1.421875 
Q 22.3125 -1.421875 17.546875 -0.640625 
Q 12.796875 0.140625 7.71875 1.703125 
L 7.71875 11.625 
Q 12.109375 9.234375 16.796875 8.0625 
Q 21.484375 6.890625 26.703125 6.890625 
Q 35.15625 6.890625 40.078125 11.328125 
Q 45.015625 15.765625 45.015625 23.390625 
Q 45.015625 31 40.078125 35.4375 
Q 35.15625 39.890625 26.703125 39.890625 
Q 22.75 39.890625 18.8125 39.015625 
Q 14.890625 38.140625 10.796875 36.28125 
z
" id="DejaVuSans-53"/>
      </defs>
      <g transform="translate(109.803038 322.182437)scale(0.1 -0.1)">
       <use xlink:href="#DejaVuSans-8722"/>
       <use x="83.789062" xlink:href="#DejaVuSans-53"/>
       <use x="147.412109" xlink:href="#DejaVuSans-48"/>
       <use x="211.035156" xlink:href="#DejaVuSans-48"/>
      </g>
     </g>
    </g>
    <g id="xtick_3">
     <g id="line2d_4">
      <g>
       <use style="stroke:#000000;stroke-width:0.8;" x="164.394753" xlink:href="#md012ed1c78" y="307.584"/>
      </g>
     </g>
     <g id="text_3">
      <!-- −400 -->
      <defs>
       <path d="M 37.796875 64.3125 
L 12.890625 25.390625 
L 37.796875 25.390625 
z
M 35.203125 72.90625 
L 47.609375 72.90625 
L 47.609375 25.390625 
L 58.015625 25.390625 
L 58.015625 17.1875 
L 47.609375 17.1875 
L 47.609375 0 
L 37.796875 0 
L 37.796875 17.1875 
L 4.890625 17.1875 
L 4.890625 26.703125 
z
" id="DejaVuSans-52"/>
      </defs>
      <g transform="translate(150.661159 322.182437)scale(0.1 -0.1)">
       <use xlink:href="#DejaVuSans-8722"/>
       <use x="83.789062" xlink:href="#DejaVuSans-52"/>
       <use x="147.412109" xlink:href="#DejaVuSans-48"/>
       <use x="211.035156" xlink:href="#DejaVuSans-48"/>
      </g>
     </g>
    </g>
    <g id="xtick_4">
     <g id="line2d_5">
      <g>
       <use style="stroke:#000000;stroke-width:0.8;" x="205.252874" xlink:href="#md012ed1c78" y="307.584"/>
      </g>
     </g>
     <g id="text_4">
      <!-- −300 -->
      <defs>
       <path d="M 40.578125 39.3125 
Q 47.65625 37.796875 51.625 33 
Q 55.609375 28.21875 55.609375 21.1875 
Q 55.609375 10.40625 48.1875 4.484375 
Q 40.765625 -1.421875 27.09375 -1.421875 
Q 22.515625 -1.421875 17.65625 -0.515625 
Q 12.796875 0.390625 7.625 2.203125 
L 7.625 11.71875 
Q 11.71875 9.328125 16.59375 8.109375 
Q 21.484375 6.890625 26.8125 6.890625 
Q 36.078125 6.890625 40.9375 10.546875 
Q 45.796875 14.203125 45.796875 21.1875 
Q 45.796875 27.640625 41.28125 31.265625 
Q 36.765625 34.90625 28.71875 34.90625 
L 20.21875 34.90625 
L 20.21875 43.015625 
L 29.109375 43.015625 
Q 36.375 43.015625 40.234375 45.921875 
Q 44.09375 48.828125 44.09375 54.296875 
Q 44.09375 59.90625 40.109375 62.90625 
Q 36.140625 65.921875 28.71875 65.921875 
Q 24.65625 65.921875 20.015625 65.03125 
Q 15.375 64.15625 9.8125 62.3125 
L 9.8125 71.09375 
Q 15.4375 72.65625 20.34375 73.4375 
Q 25.25 74.21875 29.59375 74.21875 
Q 40.828125 74.21875 47.359375 69.109375 
Q 53.90625 64.015625 53.90625 55.328125 
Q 53.90625 49.265625 50.4375 45.09375 
Q 46.96875 40.921875 40.578125 39.3125 
z
" id="DejaVuSans-51"/>
      </defs>
      <g transform="translate(191.51928 322.182437)scale(0.1 -0.1)">
       <use xlink:href="#DejaVuSans-8722"/>
       <use x="83.789062" xlink:href="#DejaVuSans-51"/>
       <use x="147.412109" xlink:href="#DejaVuSans-48"/>
       <use x="211.035156" xlink:href="#DejaVuSans-48"/>
      </g>
     </g>
    </g>
    <g id="xtick_5">
     <g id="line2d_6">
      <g>
       <use style="stroke:#000000;stroke-width:0.8;" x="246.110995" xlink:href="#md012ed1c78" y="307.584"/>
      </g>
     </g>
     <g id="text_5">
      <!-- −200 -->
      <defs>
       <path d="M 19.1875 8.296875 
L 53.609375 8.296875 
L 53.609375 0 
L 7.328125 0 
L 7.328125 8.296875 
Q 12.9375 14.109375 22.625 23.890625 
Q 32.328125 33.6875 34.8125 36.53125 
Q 39.546875 41.84375 41.421875 45.53125 
Q 43.3125 49.21875 43.3125 52.78125 
Q 43.3125 58.59375 39.234375 62.25 
Q 35.15625 65.921875 28.609375 65.921875 
Q 23.96875 65.921875 18.8125 64.3125 
Q 13.671875 62.703125 7.8125 59.421875 
L 7.8125 69.390625 
Q 13.765625 71.78125 18.9375 73 
Q 24.125 74.21875 28.421875 74.21875 
Q 39.75 74.21875 46.484375 68.546875 
Q 53.21875 62.890625 53.21875 53.421875 
Q 53.21875 48.921875 51.53125 44.890625 
Q 49.859375 40.875 45.40625 35.40625 
Q 44.1875 33.984375 37.640625 27.21875 
Q 31.109375 20.453125 19.1875 8.296875 
z
" id="DejaVuSans-50"/>
      </defs>
      <g transform="translate(232.377402 322.182437)scale(0.1 -0.1)">
       <use xlink:href="#DejaVuSans-8722"/>
       <use x="83.789062" xlink:href="#DejaVuSans-50"/>
       <use x="147.412109" xlink:href="#DejaVuSans-48"/>
       <use x="211.035156" xlink:href="#DejaVuSans-48"/>
      </g>
     </g>
    </g>
    <g id="xtick_6">
     <g id="line2d_7">
      <g>
       <use style="stroke:#000000;stroke-width:0.8;" x="286.969117" xlink:href="#md012ed1c78" y="307.584"/>
      </g>
     </g>
     <g id="text_6">
      <!-- −100 -->
      <defs>
       <path d="M 12.40625 8.296875 
L 28.515625 8.296875 
L 28.515625 63.921875 
L 10.984375 60.40625 
L 10.984375 69.390625 
L 28.421875 72.90625 
L 38.28125 72.90625 
L 38.28125 8.296875 
L 54.390625 8.296875 
L 54.390625 0 
L 12.40625 0 
z
" id="DejaVuSans-49"/>
      </defs>
      <g transform="translate(273.235523 322.182437)scale(0.1 -0.1)">
       <use xlink:href="#DejaVuSans-8722"/>
       <use x="83.789062" xlink:href="#DejaVuSans-49"/>
       <use x="147.412109" xlink:href="#DejaVuSans-48"/>
       <use x="211.035156" xlink:href="#DejaVuSans-48"/>
      </g>
     </g>
    </g>
    <g id="xtick_7">
     <g id="line2d_8">
      <g>
       <use style="stroke:#000000;stroke-width:0.8;" x="327.827238" xlink:href="#md012ed1c78" y="307.584"/>
      </g>
     </g>
     <g id="text_7">
      <!-- 0 -->
      <g transform="translate(324.645988 322.182437)scale(0.1 -0.1)">
       <use xlink:href="#DejaVuSans-48"/>
      </g>
     </g>
    </g>
    <g id="xtick_8">
     <g id="line2d_9">
      <g>
       <use style="stroke:#000000;stroke-width:0.8;" x="368.685359" xlink:href="#md012ed1c78" y="307.584"/>
      </g>
     </g>
     <g id="text_8">
      <!-- 100 -->
      <g transform="translate(359.141609 322.182437)scale(0.1 -0.1)">
       <use xlink:href="#DejaVuSans-49"/>
       <use x="63.623047" xlink:href="#DejaVuSans-48"/>
       <use x="127.246094" xlink:href="#DejaVuSans-48"/>
      </g>
     </g>
    </g>
    <g id="xtick_9">
     <g id="line2d_10">
      <g>
       <use style="stroke:#000000;stroke-width:0.8;" x="409.54348" xlink:href="#md012ed1c78" y="307.584"/>
      </g>
     </g>
     <g id="text_9">
      <!-- 200 -->
      <g transform="translate(399.99973 322.182437)scale(0.1 -0.1)">
       <use xlink:href="#DejaVuSans-50"/>
       <use x="63.623047" xlink:href="#DejaVuSans-48"/>
       <use x="127.246094" xlink:href="#DejaVuSans-48"/>
      </g>
     </g>
    </g>
   </g>
   <g id="matplotlib.axis_2">
    <g id="ytick_1">
     <g id="line2d_11">
      <defs>
       <path d="M 0 0 
L -3.5 0 
" id="m5c8be051ed" style="stroke:#000000;stroke-width:0.8;"/>
      </defs>
      <g>
       <use style="stroke:#000000;stroke-width:0.8;" x="57.6" xlink:href="#m5c8be051ed" y="306.552167"/>
      </g>
     </g>
     <g id="text_10">
      <!-- −800 -->
      <defs>
       <path d="M 31.78125 34.625 
Q 24.75 34.625 20.71875 30.859375 
Q 16.703125 27.09375 16.703125 20.515625 
Q 16.703125 13.921875 20.71875 10.15625 
Q 24.75 6.390625 31.78125 6.390625 
Q 38.8125 6.390625 42.859375 10.171875 
Q 46.921875 13.96875 46.921875 20.515625 
Q 46.921875 27.09375 42.890625 30.859375 
Q 38.875 34.625 31.78125 34.625 
z
M 21.921875 38.8125 
Q 15.578125 40.375 12.03125 44.71875 
Q 8.5 49.078125 8.5 55.328125 
Q 8.5 64.0625 14.71875 69.140625 
Q 20.953125 74.21875 31.78125 74.21875 
Q 42.671875 74.21875 48.875 69.140625 
Q 55.078125 64.0625 55.078125 55.328125 
Q 55.078125 49.078125 51.53125 44.71875 
Q 48 40.375 41.703125 38.8125 
Q 48.828125 37.15625 52.796875 32.3125 
Q 56.78125 27.484375 56.78125 20.515625 
Q 56.78125 9.90625 50.3125 4.234375 
Q 43.84375 -1.421875 31.78125 -1.421875 
Q 19.734375 -1.421875 13.25 4.234375 
Q 6.78125 9.90625 6.78125 20.515625 
Q 6.78125 27.484375 10.78125 32.3125 
Q 14.796875 37.15625 21.921875 38.8125 
z
M 18.3125 54.390625 
Q 18.3125 48.734375 21.84375 45.5625 
Q 25.390625 42.390625 31.78125 42.390625 
Q 38.140625 42.390625 41.71875 45.5625 
Q 45.3125 48.734375 45.3125 54.390625 
Q 45.3125 60.0625 41.71875 63.234375 
Q 38.140625 66.40625 31.78125 66.40625 
Q 25.390625 66.40625 21.84375 63.234375 
Q 18.3125 60.0625 18.3125 54.390625 
z
" id="DejaVuSans-56"/>
      </defs>
      <g transform="translate(23.132812 310.351386)scale(0.1 -0.1)">
       <use xlink:href="#DejaVuSans-8722"/>
       <use x="83.789062" xlink:href="#DejaVuSans-56"/>
       <use x="147.412109" xlink:href="#DejaVuSans-48"/>
       <use x="211.035156" xlink:href="#DejaVuSans-48"/>
      </g>
     </g>
    </g>
    <g id="ytick_2">
     <g id="line2d_12">
      <g>
       <use style="stroke:#000000;stroke-width:0.8;" x="57.6" xlink:href="#m5c8be051ed" y="271.781057"/>
      </g>
     </g>
     <g id="text_11">
      <!-- −600 -->
      <g transform="translate(23.132812 275.580276)scale(0.1 -0.1)">
       <use xlink:href="#DejaVuSans-8722"/>
       <use x="83.789062" xlink:href="#DejaVuSans-54"/>
       <use x="147.412109" xlink:href="#DejaVuSans-48"/>
       <use x="211.035156" xlink:href="#DejaVuSans-48"/>
      </g>
     </g>
    </g>
    <g id="ytick_3">
     <g id="line2d_13">
      <g>
       <use style="stroke:#000000;stroke-width:0.8;" x="57.6" xlink:href="#m5c8be051ed" y="237.009947"/>
      </g>
     </g>
     <g id="text_12">
      <!-- −400 -->
      <g transform="translate(23.132812 240.809165)scale(0.1 -0.1)">
       <use xlink:href="#DejaVuSans-8722"/>
       <use x="83.789062" xlink:href="#DejaVuSans-52"/>
       <use x="147.412109" xlink:href="#DejaVuSans-48"/>
       <use x="211.035156" xlink:href="#DejaVuSans-48"/>
      </g>
     </g>
    </g>
    <g id="ytick_4">
     <g id="line2d_14">
      <g>
       <use style="stroke:#000000;stroke-width:0.8;" x="57.6" xlink:href="#m5c8be051ed" y="202.238836"/>
      </g>
     </g>
     <g id="text_13">
      <!-- −200 -->
      <g transform="translate(23.132812 206.038055)scale(0.1 -0.1)">
       <use xlink:href="#DejaVuSans-8722"/>
       <use x="83.789062" xlink:href="#DejaVuSans-50"/>
       <use x="147.412109" xlink:href="#DejaVuSans-48"/>
       <use x="211.035156" xlink:href="#DejaVuSans-48"/>
      </g>
     </g>
    </g>
    <g id="ytick_5">
     <g id="line2d_15">
      <g>
       <use style="stroke:#000000;stroke-width:0.8;" x="57.6" xlink:href="#m5c8be051ed" y="167.467726"/>
      </g>
     </g>
     <g id="text_14">
      <!-- 0 -->
      <g transform="translate(44.2375 171.266945)scale(0.1 -0.1)">
       <use xlink:href="#DejaVuSans-48"/>
      </g>
     </g>
    </g>
    <g id="ytick_6">
     <g id="line2d_16">
      <g>
       <use style="stroke:#000000;stroke-width:0.8;" x="57.6" xlink:href="#m5c8be051ed" y="132.696616"/>
      </g>
     </g>
     <g id="text_15">
      <!-- 200 -->
      <g transform="translate(31.5125 136.495834)scale(0.1 -0.1)">
       <use xlink:href="#DejaVuSans-50"/>
       <use x="63.623047" xlink:href="#DejaVuSans-48"/>
       <use x="127.246094" xlink:href="#DejaVuSans-48"/>
      </g>
     </g>
    </g>
    <g id="ytick_7">
     <g id="line2d_17">
      <g>
       <use style="stroke:#000000;stroke-width:0.8;" x="57.6" xlink:href="#m5c8be051ed" y="97.925505"/>
      </g>
     </g>
     <g id="text_16">
      <!-- 400 -->
      <g transform="translate(31.5125 101.724724)scale(0.1 -0.1)">
       <use xlink:href="#DejaVuSans-52"/>
       <use x="63.623047" xlink:href="#DejaVuSans-48"/>
       <use x="127.246094" xlink:href="#DejaVuSans-48"/>
      </g>
     </g>
    </g>
    <g id="ytick_8">
     <g id="line2d_18">
      <g>
       <use style="stroke:#000000;stroke-width:0.8;" x="57.6" xlink:href="#m5c8be051ed" y="63.154395"/>
      </g>
     </g>
     <g id="text_17">
      <!-- 600 -->
      <g transform="translate(31.5125 66.953614)scale(0.1 -0.1)">
       <use xlink:href="#DejaVuSans-54"/>
       <use x="63.623047" xlink:href="#DejaVuSans-48"/>
       <use x="127.246094" xlink:href="#DejaVuSans-48"/>
      </g>
     </g>
    </g>
   </g>
   <g id="line2d_19">
    <path clip-path="url(#p48eb0e6860)" d="M 77.027486 56.850872 
L 335.046011 183.44285 
L 393.21136 277.751768 
L 188.241942 250.931496 
L 185.197486 256.764817 
L 312.805701 145.411597 
L 396.509198 292.039984 
" style="fill:none;stroke:#ff0000;stroke-linecap:square;stroke-width:0.5;"/>
   </g>
   <g id="patch_3">
    <path d="M 57.6 307.584 
L 57.6 41.472 
" style="fill:none;stroke:#000000;stroke-linecap:square;stroke-linejoin:miter;stroke-width:0.8;"/>
   </g>
   <g id="patch_4">
    <path d="M 414.72 307.584 
L 414.72 41.472 
" style="fill:none;stroke:#000000;stroke-linecap:square;stroke-linejoin:miter;stroke-width:0.8;"/>
   </g>
   <g id="patch_5">
    <path d="M 57.6 307.584 
L 414.72 307.584 
" style="fill:none;stroke:#000000;stroke-linecap:square;stroke-linejoin:miter;stroke-width:0.8;"/>
   </g>
   <g id="patch_6">
    <path d="M 57.6 41.472 
L 414.72 41.472 
" style="fill:none;stroke:#000000;stroke-linecap:square;stroke-linejoin:miter;stroke-width:0.8;"/>
   </g>
   <g id="PathCollection_1">
    <defs>
     <path d="M 0 2.738613 
C 0.726289 2.738613 1.422928 2.450055 1.936492 1.936492 
C 2.450055 1.422928 2.738613 0.726289 2.738613 0 
C 2.738613 -0.726289 2.450055 -1.422928 1.936492 -1.936492 
C 1.422928 -2.450055 0.726289 -2.738613 0 -2.738613 
C -0.726289 -2.738613 -1.422928 -2.450055 -1.936492 -1.936492 
C -2.450055 -1.422928 -2.738613 -0.726289 -2.738613 0 
C -2.738613 0.726289 -2.450055 1.422928 -1.936492 1.936492 
C -1.422928 2.450055 -0.726289 2.738613 0 2.738613 
z
" id="m69cb12f2ff" style="stroke:#ff0000;"/>
    </defs>
    <g clip-path="url(#p48eb0e6860)">
     <use style="fill:#ff0000;stroke:#ff0000;" x="77.027486" xlink:href="#m69cb12f2ff" y="56.850872"/>
     <use style="fill:#ff0000;stroke:#ff0000;" x="335.046011" xlink:href="#m69cb12f2ff" y="183.44285"/>
     <use style="fill:#ff0000;stroke:#ff0000;" x="393.21136" xlink:href="#m69cb12f2ff" y="277.751768"/>
     <use style="fill:#ff0000;stroke:#ff0000;" x="188.241942" xlink:href="#m69cb12f2ff" y="250.931496"/>
     <use style="fill:#ff0000;stroke:#ff0000;" x="185.197486" xlink:href="#m69cb12f2ff" y="256.764817"/>
     <use style="fill:#ff0000;stroke:#ff0000;" x="312.805701" xlink:href="#m69cb12f2ff" y="145.411597"/>
     <use style="fill:#ff0000;stroke:#ff0000;" x="396.509198" xlink:href="#m69cb12f2ff" y="292.039984"/>
    </g>
   </g>
   <g id="text_18">
    <!-- (17) Subject: s27, Known = False, Degree = 1, Duration = 0.1 -->
    <defs>
     <path d="M 31 75.875 
Q 24.46875 64.65625 21.28125 53.65625 
Q 18.109375 42.671875 18.109375 31.390625 
Q 18.109375 20.125 21.3125 9.0625 
Q 24.515625 -2 31 -13.1875 
L 23.1875 -13.1875 
Q 15.875 -1.703125 12.234375 9.375 
Q 8.59375 20.453125 8.59375 31.390625 
Q 8.59375 42.28125 12.203125 53.3125 
Q 15.828125 64.359375 23.1875 75.875 
z
" id="DejaVuSans-40"/>
     <path d="M 8.203125 72.90625 
L 55.078125 72.90625 
L 55.078125 68.703125 
L 28.609375 0 
L 18.3125 0 
L 43.21875 64.59375 
L 8.203125 64.59375 
z
" id="DejaVuSans-55"/>
     <path d="M 8.015625 75.875 
L 15.828125 75.875 
Q 23.140625 64.359375 26.78125 53.3125 
Q 30.421875 42.28125 30.421875 31.390625 
Q 30.421875 20.453125 26.78125 9.375 
Q 23.140625 -1.703125 15.828125 -13.1875 
L 8.015625 -13.1875 
Q 14.5 -2 17.703125 9.0625 
Q 20.90625 20.125 20.90625 31.390625 
Q 20.90625 42.671875 17.703125 53.65625 
Q 14.5 64.65625 8.015625 75.875 
z
" id="DejaVuSans-41"/>
     <path id="DejaVuSans-32"/>
     <path d="M 53.515625 70.515625 
L 53.515625 60.890625 
Q 47.90625 63.578125 42.921875 64.890625 
Q 37.9375 66.21875 33.296875 66.21875 
Q 25.25 66.21875 20.875 63.09375 
Q 16.5 59.96875 16.5 54.203125 
Q 16.5 49.359375 19.40625 46.890625 
Q 22.3125 44.4375 30.421875 42.921875 
L 36.375 41.703125 
Q 47.40625 39.59375 52.65625 34.296875 
Q 57.90625 29 57.90625 20.125 
Q 57.90625 9.515625 50.796875 4.046875 
Q 43.703125 -1.421875 29.984375 -1.421875 
Q 24.8125 -1.421875 18.96875 -0.25 
Q 13.140625 0.921875 6.890625 3.21875 
L 6.890625 13.375 
Q 12.890625 10.015625 18.65625 8.296875 
Q 24.421875 6.59375 29.984375 6.59375 
Q 38.421875 6.59375 43.015625 9.90625 
Q 47.609375 13.234375 47.609375 19.390625 
Q 47.609375 24.75 44.3125 27.78125 
Q 41.015625 30.8125 33.5 32.328125 
L 27.484375 33.5 
Q 16.453125 35.6875 11.515625 40.375 
Q 6.59375 45.0625 6.59375 53.421875 
Q 6.59375 63.09375 13.40625 68.65625 
Q 20.21875 74.21875 32.171875 74.21875 
Q 37.3125 74.21875 42.625 73.28125 
Q 47.953125 72.359375 53.515625 70.515625 
z
" id="DejaVuSans-83"/>
     <path d="M 8.5 21.578125 
L 8.5 54.6875 
L 17.484375 54.6875 
L 17.484375 21.921875 
Q 17.484375 14.15625 20.5 10.265625 
Q 23.53125 6.390625 29.59375 6.390625 
Q 36.859375 6.390625 41.078125 11.03125 
Q 45.3125 15.671875 45.3125 23.6875 
L 45.3125 54.6875 
L 54.296875 54.6875 
L 54.296875 0 
L 45.3125 0 
L 45.3125 8.40625 
Q 42.046875 3.421875 37.71875 1 
Q 33.40625 -1.421875 27.6875 -1.421875 
Q 18.265625 -1.421875 13.375 4.4375 
Q 8.5 10.296875 8.5 21.578125 
z
M 31.109375 56 
z
" id="DejaVuSans-117"/>
     <path d="M 48.6875 27.296875 
Q 48.6875 37.203125 44.609375 42.84375 
Q 40.53125 48.484375 33.40625 48.484375 
Q 26.265625 48.484375 22.1875 42.84375 
Q 18.109375 37.203125 18.109375 27.296875 
Q 18.109375 17.390625 22.1875 11.75 
Q 26.265625 6.109375 33.40625 6.109375 
Q 40.53125 6.109375 44.609375 11.75 
Q 48.6875 17.390625 48.6875 27.296875 
z
M 18.109375 46.390625 
Q 20.953125 51.265625 25.265625 53.625 
Q 29.59375 56 35.59375 56 
Q 45.5625 56 51.78125 48.09375 
Q 58.015625 40.1875 58.015625 27.296875 
Q 58.015625 14.40625 51.78125 6.484375 
Q 45.5625 -1.421875 35.59375 -1.421875 
Q 29.59375 -1.421875 25.265625 0.953125 
Q 20.953125 3.328125 18.109375 8.203125 
L 18.109375 0 
L 9.078125 0 
L 9.078125 75.984375 
L 18.109375 75.984375 
z
" id="DejaVuSans-98"/>
     <path d="M 9.421875 54.6875 
L 18.40625 54.6875 
L 18.40625 -0.984375 
Q 18.40625 -11.421875 14.421875 -16.109375 
Q 10.453125 -20.796875 1.609375 -20.796875 
L -1.8125 -20.796875 
L -1.8125 -13.1875 
L 0.59375 -13.1875 
Q 5.71875 -13.1875 7.5625 -10.8125 
Q 9.421875 -8.453125 9.421875 -0.984375 
z
M 9.421875 75.984375 
L 18.40625 75.984375 
L 18.40625 64.59375 
L 9.421875 64.59375 
z
" id="DejaVuSans-106"/>
     <path d="M 56.203125 29.59375 
L 56.203125 25.203125 
L 14.890625 25.203125 
Q 15.484375 15.921875 20.484375 11.0625 
Q 25.484375 6.203125 34.421875 6.203125 
Q 39.59375 6.203125 44.453125 7.46875 
Q 49.3125 8.734375 54.109375 11.28125 
L 54.109375 2.78125 
Q 49.265625 0.734375 44.1875 -0.34375 
Q 39.109375 -1.421875 33.890625 -1.421875 
Q 20.796875 -1.421875 13.15625 6.1875 
Q 5.515625 13.8125 5.515625 26.8125 
Q 5.515625 40.234375 12.765625 48.109375 
Q 20.015625 56 32.328125 56 
Q 43.359375 56 49.78125 48.890625 
Q 56.203125 41.796875 56.203125 29.59375 
z
M 47.21875 32.234375 
Q 47.125 39.59375 43.09375 43.984375 
Q 39.0625 48.390625 32.421875 48.390625 
Q 24.90625 48.390625 20.390625 44.140625 
Q 15.875 39.890625 15.1875 32.171875 
z
" id="DejaVuSans-101"/>
     <path d="M 48.78125 52.59375 
L 48.78125 44.1875 
Q 44.96875 46.296875 41.140625 47.34375 
Q 37.3125 48.390625 33.40625 48.390625 
Q 24.65625 48.390625 19.8125 42.84375 
Q 14.984375 37.3125 14.984375 27.296875 
Q 14.984375 17.28125 19.8125 11.734375 
Q 24.65625 6.203125 33.40625 6.203125 
Q 37.3125 6.203125 41.140625 7.25 
Q 44.96875 8.296875 48.78125 10.40625 
L 48.78125 2.09375 
Q 45.015625 0.34375 40.984375 -0.53125 
Q 36.96875 -1.421875 32.421875 -1.421875 
Q 20.0625 -1.421875 12.78125 6.34375 
Q 5.515625 14.109375 5.515625 27.296875 
Q 5.515625 40.671875 12.859375 48.328125 
Q 20.21875 56 33.015625 56 
Q 37.15625 56 41.109375 55.140625 
Q 45.0625 54.296875 48.78125 52.59375 
z
" id="DejaVuSans-99"/>
     <path d="M 18.3125 70.21875 
L 18.3125 54.6875 
L 36.8125 54.6875 
L 36.8125 47.703125 
L 18.3125 47.703125 
L 18.3125 18.015625 
Q 18.3125 11.328125 20.140625 9.421875 
Q 21.96875 7.515625 27.59375 7.515625 
L 36.8125 7.515625 
L 36.8125 0 
L 27.59375 0 
Q 17.1875 0 13.234375 3.875 
Q 9.28125 7.765625 9.28125 18.015625 
L 9.28125 47.703125 
L 2.6875 47.703125 
L 2.6875 54.6875 
L 9.28125 54.6875 
L 9.28125 70.21875 
z
" id="DejaVuSans-116"/>
     <path d="M 11.71875 12.40625 
L 22.015625 12.40625 
L 22.015625 0 
L 11.71875 0 
z
M 11.71875 51.703125 
L 22.015625 51.703125 
L 22.015625 39.3125 
L 11.71875 39.3125 
z
" id="DejaVuSans-58"/>
     <path d="M 44.28125 53.078125 
L 44.28125 44.578125 
Q 40.484375 46.53125 36.375 47.5 
Q 32.28125 48.484375 27.875 48.484375 
Q 21.1875 48.484375 17.84375 46.4375 
Q 14.5 44.390625 14.5 40.28125 
Q 14.5 37.15625 16.890625 35.375 
Q 19.28125 33.59375 26.515625 31.984375 
L 29.59375 31.296875 
Q 39.15625 29.25 43.1875 25.515625 
Q 47.21875 21.78125 47.21875 15.09375 
Q 47.21875 7.46875 41.1875 3.015625 
Q 35.15625 -1.421875 24.609375 -1.421875 
Q 20.21875 -1.421875 15.453125 -0.5625 
Q 10.6875 0.296875 5.421875 2 
L 5.421875 11.28125 
Q 10.40625 8.6875 15.234375 7.390625 
Q 20.0625 6.109375 24.8125 6.109375 
Q 31.15625 6.109375 34.5625 8.28125 
Q 37.984375 10.453125 37.984375 14.40625 
Q 37.984375 18.0625 35.515625 20.015625 
Q 33.0625 21.96875 24.703125 23.78125 
L 21.578125 24.515625 
Q 13.234375 26.265625 9.515625 29.90625 
Q 5.8125 33.546875 5.8125 39.890625 
Q 5.8125 47.609375 11.28125 51.796875 
Q 16.75 56 26.8125 56 
Q 31.78125 56 36.171875 55.265625 
Q 40.578125 54.546875 44.28125 53.078125 
z
" id="DejaVuSans-115"/>
     <path d="M 11.71875 12.40625 
L 22.015625 12.40625 
L 22.015625 4 
L 14.015625 -11.625 
L 7.71875 -11.625 
L 11.71875 4 
z
" id="DejaVuSans-44"/>
     <path d="M 9.8125 72.90625 
L 19.671875 72.90625 
L 19.671875 42.09375 
L 52.390625 72.90625 
L 65.09375 72.90625 
L 28.90625 38.921875 
L 67.671875 0 
L 54.6875 0 
L 19.671875 35.109375 
L 19.671875 0 
L 9.8125 0 
z
" id="DejaVuSans-75"/>
     <path d="M 54.890625 33.015625 
L 54.890625 0 
L 45.90625 0 
L 45.90625 32.71875 
Q 45.90625 40.484375 42.875 44.328125 
Q 39.84375 48.1875 33.796875 48.1875 
Q 26.515625 48.1875 22.3125 43.546875 
Q 18.109375 38.921875 18.109375 30.90625 
L 18.109375 0 
L 9.078125 0 
L 9.078125 54.6875 
L 18.109375 54.6875 
L 18.109375 46.1875 
Q 21.34375 51.125 25.703125 53.5625 
Q 30.078125 56 35.796875 56 
Q 45.21875 56 50.046875 50.171875 
Q 54.890625 44.34375 54.890625 33.015625 
z
" id="DejaVuSans-110"/>
     <path d="M 30.609375 48.390625 
Q 23.390625 48.390625 19.1875 42.75 
Q 14.984375 37.109375 14.984375 27.296875 
Q 14.984375 17.484375 19.15625 11.84375 
Q 23.34375 6.203125 30.609375 6.203125 
Q 37.796875 6.203125 41.984375 11.859375 
Q 46.1875 17.53125 46.1875 27.296875 
Q 46.1875 37.015625 41.984375 42.703125 
Q 37.796875 48.390625 30.609375 48.390625 
z
M 30.609375 56 
Q 42.328125 56 49.015625 48.375 
Q 55.71875 40.765625 55.71875 27.296875 
Q 55.71875 13.875 49.015625 6.21875 
Q 42.328125 -1.421875 30.609375 -1.421875 
Q 18.84375 -1.421875 12.171875 6.21875 
Q 5.515625 13.875 5.515625 27.296875 
Q 5.515625 40.765625 12.171875 48.375 
Q 18.84375 56 30.609375 56 
z
" id="DejaVuSans-111"/>
     <path d="M 4.203125 54.6875 
L 13.1875 54.6875 
L 24.421875 12.015625 
L 35.59375 54.6875 
L 46.1875 54.6875 
L 57.421875 12.015625 
L 68.609375 54.6875 
L 77.59375 54.6875 
L 63.28125 0 
L 52.6875 0 
L 40.921875 44.828125 
L 29.109375 0 
L 18.5 0 
z
" id="DejaVuSans-119"/>
     <path d="M 10.59375 45.40625 
L 73.1875 45.40625 
L 73.1875 37.203125 
L 10.59375 37.203125 
z
M 10.59375 25.484375 
L 73.1875 25.484375 
L 73.1875 17.1875 
L 10.59375 17.1875 
z
" id="DejaVuSans-61"/>
     <path d="M 9.8125 72.90625 
L 51.703125 72.90625 
L 51.703125 64.59375 
L 19.671875 64.59375 
L 19.671875 43.109375 
L 48.578125 43.109375 
L 48.578125 34.8125 
L 19.671875 34.8125 
L 19.671875 0 
L 9.8125 0 
z
" id="DejaVuSans-70"/>
     <path d="M 34.28125 27.484375 
Q 23.390625 27.484375 19.1875 25 
Q 14.984375 22.515625 14.984375 16.5 
Q 14.984375 11.71875 18.140625 8.90625 
Q 21.296875 6.109375 26.703125 6.109375 
Q 34.1875 6.109375 38.703125 11.40625 
Q 43.21875 16.703125 43.21875 25.484375 
L 43.21875 27.484375 
z
M 52.203125 31.203125 
L 52.203125 0 
L 43.21875 0 
L 43.21875 8.296875 
Q 40.140625 3.328125 35.546875 0.953125 
Q 30.953125 -1.421875 24.3125 -1.421875 
Q 15.921875 -1.421875 10.953125 3.296875 
Q 6 8.015625 6 15.921875 
Q 6 25.140625 12.171875 29.828125 
Q 18.359375 34.515625 30.609375 34.515625 
L 43.21875 34.515625 
L 43.21875 35.40625 
Q 43.21875 41.609375 39.140625 45 
Q 35.0625 48.390625 27.6875 48.390625 
Q 23 48.390625 18.546875 47.265625 
Q 14.109375 46.140625 10.015625 43.890625 
L 10.015625 52.203125 
Q 14.9375 54.109375 19.578125 55.046875 
Q 24.21875 56 28.609375 56 
Q 40.484375 56 46.34375 49.84375 
Q 52.203125 43.703125 52.203125 31.203125 
z
" id="DejaVuSans-97"/>
     <path d="M 9.421875 75.984375 
L 18.40625 75.984375 
L 18.40625 0 
L 9.421875 0 
z
" id="DejaVuSans-108"/>
     <path d="M 19.671875 64.796875 
L 19.671875 8.109375 
L 31.59375 8.109375 
Q 46.6875 8.109375 53.6875 14.9375 
Q 60.6875 21.78125 60.6875 36.53125 
Q 60.6875 51.171875 53.6875 57.984375 
Q 46.6875 64.796875 31.59375 64.796875 
z
M 9.8125 72.90625 
L 30.078125 72.90625 
Q 51.265625 72.90625 61.171875 64.09375 
Q 71.09375 55.28125 71.09375 36.53125 
Q 71.09375 17.671875 61.125 8.828125 
Q 51.171875 0 30.078125 0 
L 9.8125 0 
z
" id="DejaVuSans-68"/>
     <path d="M 45.40625 27.984375 
Q 45.40625 37.75 41.375 43.109375 
Q 37.359375 48.484375 30.078125 48.484375 
Q 22.859375 48.484375 18.828125 43.109375 
Q 14.796875 37.75 14.796875 27.984375 
Q 14.796875 18.265625 18.828125 12.890625 
Q 22.859375 7.515625 30.078125 7.515625 
Q 37.359375 7.515625 41.375 12.890625 
Q 45.40625 18.265625 45.40625 27.984375 
z
M 54.390625 6.78125 
Q 54.390625 -7.171875 48.1875 -13.984375 
Q 42 -20.796875 29.203125 -20.796875 
Q 24.46875 -20.796875 20.265625 -20.09375 
Q 16.0625 -19.390625 12.109375 -17.921875 
L 12.109375 -9.1875 
Q 16.0625 -11.328125 19.921875 -12.34375 
Q 23.78125 -13.375 27.78125 -13.375 
Q 36.625 -13.375 41.015625 -8.765625 
Q 45.40625 -4.15625 45.40625 5.171875 
L 45.40625 9.625 
Q 42.625 4.78125 38.28125 2.390625 
Q 33.9375 0 27.875 0 
Q 17.828125 0 11.671875 7.65625 
Q 5.515625 15.328125 5.515625 27.984375 
Q 5.515625 40.671875 11.671875 48.328125 
Q 17.828125 56 27.875 56 
Q 33.9375 56 38.28125 53.609375 
Q 42.625 51.21875 45.40625 46.390625 
L 45.40625 54.6875 
L 54.390625 54.6875 
z
" id="DejaVuSans-103"/>
     <path d="M 41.109375 46.296875 
Q 39.59375 47.171875 37.8125 47.578125 
Q 36.03125 48 33.890625 48 
Q 26.265625 48 22.1875 43.046875 
Q 18.109375 38.09375 18.109375 28.8125 
L 18.109375 0 
L 9.078125 0 
L 9.078125 54.6875 
L 18.109375 54.6875 
L 18.109375 46.1875 
Q 20.953125 51.171875 25.484375 53.578125 
Q 30.03125 56 36.53125 56 
Q 37.453125 56 38.578125 55.875 
Q 39.703125 55.765625 41.0625 55.515625 
z
" id="DejaVuSans-114"/>
     <path d="M 9.421875 54.6875 
L 18.40625 54.6875 
L 18.40625 0 
L 9.421875 0 
z
M 9.421875 75.984375 
L 18.40625 75.984375 
L 18.40625 64.59375 
L 9.421875 64.59375 
z
" id="DejaVuSans-105"/>
     <path d="M 10.6875 12.40625 
L 21 12.40625 
L 21 0 
L 10.6875 0 
z
" id="DejaVuSans-46"/>
    </defs>
    <g transform="translate(49.741875 35.472)scale(0.12 -0.12)">
     <use xlink:href="#DejaVuSans-40"/>
     <use x="39.013672" xlink:href="#DejaVuSans-49"/>
     <use x="102.636719" xlink:href="#DejaVuSans-55"/>
     <use x="166.259766" xlink:href="#DejaVuSans-41"/>
     <use x="205.273438" xlink:href="#DejaVuSans-32"/>
     <use x="237.060547" xlink:href="#DejaVuSans-83"/>
     <use x="300.537109" xlink:href="#DejaVuSans-117"/>
     <use x="363.916016" xlink:href="#DejaVuSans-98"/>
     <use x="427.392578" xlink:href="#DejaVuSans-106"/>
     <use x="455.175781" xlink:href="#DejaVuSans-101"/>
     <use x="516.699219" xlink:href="#DejaVuSans-99"/>
     <use x="571.679688" xlink:href="#DejaVuSans-116"/>
     <use x="610.888672" xlink:href="#DejaVuSans-58"/>
     <use x="644.580078" xlink:href="#DejaVuSans-32"/>
     <use x="676.367188" xlink:href="#DejaVuSans-115"/>
     <use x="728.466797" xlink:href="#DejaVuSans-50"/>
     <use x="792.089844" xlink:href="#DejaVuSans-55"/>
     <use x="855.712891" xlink:href="#DejaVuSans-44"/>
     <use x="887.5" xlink:href="#DejaVuSans-32"/>
     <use x="919.287109" xlink:href="#DejaVuSans-75"/>
     <use x="984.863281" xlink:href="#DejaVuSans-110"/>
     <use x="1048.242188" xlink:href="#DejaVuSans-111"/>
     <use x="1109.423828" xlink:href="#DejaVuSans-119"/>
     <use x="1191.210938" xlink:href="#DejaVuSans-110"/>
     <use x="1254.589844" xlink:href="#DejaVuSans-32"/>
     <use x="1286.376953" xlink:href="#DejaVuSans-61"/>
     <use x="1370.166016" xlink:href="#DejaVuSans-32"/>
     <use x="1401.953125" xlink:href="#DejaVuSans-70"/>
     <use x="1459.332031" xlink:href="#DejaVuSans-97"/>
     <use x="1520.611328" xlink:href="#DejaVuSans-108"/>
     <use x="1548.394531" xlink:href="#DejaVuSans-115"/>
     <use x="1600.494141" xlink:href="#DejaVuSans-101"/>
     <use x="1662.017578" xlink:href="#DejaVuSans-44"/>
     <use x="1693.804688" xlink:href="#DejaVuSans-32"/>
     <use x="1725.591797" xlink:href="#DejaVuSans-68"/>
     <use x="1802.59375" xlink:href="#DejaVuSans-101"/>
     <use x="1864.117188" xlink:href="#DejaVuSans-103"/>
     <use x="1927.59375" xlink:href="#DejaVuSans-114"/>
     <use x="1968.675781" xlink:href="#DejaVuSans-101"/>
     <use x="2030.199219" xlink:href="#DejaVuSans-101"/>
     <use x="2091.722656" xlink:href="#DejaVuSans-32"/>
     <use x="2123.509766" xlink:href="#DejaVuSans-61"/>
     <use x="2207.298828" xlink:href="#DejaVuSans-32"/>
     <use x="2239.085938" xlink:href="#DejaVuSans-49"/>
     <use x="2302.708984" xlink:href="#DejaVuSans-44"/>
     <use x="2334.496094" xlink:href="#DejaVuSans-32"/>
     <use x="2366.283203" xlink:href="#DejaVuSans-68"/>
     <use x="2443.285156" xlink:href="#DejaVuSans-117"/>
     <use x="2506.664062" xlink:href="#DejaVuSans-114"/>
     <use x="2547.777344" xlink:href="#DejaVuSans-97"/>
     <use x="2609.056641" xlink:href="#DejaVuSans-116"/>
     <use x="2648.265625" xlink:href="#DejaVuSans-105"/>
     <use x="2676.048828" xlink:href="#DejaVuSans-111"/>
     <use x="2737.230469" xlink:href="#DejaVuSans-110"/>
     <use x="2800.609375" xlink:href="#DejaVuSans-32"/>
     <use x="2832.396484" xlink:href="#DejaVuSans-61"/>
     <use x="2916.185547" xlink:href="#DejaVuSans-32"/>
     <use x="2947.972656" xlink:href="#DejaVuSans-48"/>
     <use x="3011.595703" xlink:href="#DejaVuSans-46"/>
     <use x="3043.382812" xlink:href="#DejaVuSans-49"/>
    </g>
   </g>
  </g>
 </g>
 <defs>
  <clipPath id="p48eb0e6860">
   <rect height="266.112" width="357.12" x="57.6" y="41.472"/>
  </clipPath>
 </defs>
</svg>
