<?xml version="1.0" encoding="utf-8" standalone="no"?>
<!DOCTYPE svg PUBLIC "-//W3C//DTD SVG 1.1//EN"
  "http://www.w3.org/Graphics/SVG/1.1/DTD/svg11.dtd">
<!-- Created with matplotlib (https://matplotlib.org/) -->
<svg height="345.6pt" version="1.1" viewBox="0 0 460.8 345.6" width="460.8pt" xmlns="http://www.w3.org/2000/svg" xmlns:xlink="http://www.w3.org/1999/xlink">
 <defs>
  <style type="text/css">
*{stroke-linecap:butt;stroke-linejoin:round;}
  </style>
 </defs>
 <g id="figure_1">
  <g id="patch_1">
   <path d="M 0 345.6 
L 460.8 345.6 
L 460.8 0 
L 0 0 
z
" style="fill:#ffffff;"/>
  </g>
  <g id="axes_1">
   <g id="patch_2">
    <path d="M 57.6 307.584 
L 414.72 307.584 
L 414.72 41.472 
L 57.6 41.472 
z
" style="fill:#ffffff;"/>
   </g>
   <g id="line2d_1">
    <path clip-path="url(#p2d632bbd5a)" d="M 78.793333 53.74209 
L 78.66915 53.74209 
L 78.420784 53.568 
L 78.66915 53.91618 
L 78.544967 53.91618 
L 78.172418 53.74209 
L 78.420784 54.09027 
L 78.420784 54.436275 
L 78.172418 54.264361 
L 77.427321 54.09027 
L 77.551504 54.264361 
L 78.172418 54.610365 
L 78.048235 54.436275 
L 77.924053 54.264361 
L 77.675687 54.436275 
L 77.551504 54.958545 
L 77.79987 55.478639 
L 77.551504 55.652729 
L 77.551504 55.304549 
L 77.675687 54.958545 
L 77.675687 55.304549 
L 77.79987 55.304549 
L 77.551504 55.304549 
L 77.427321 55.478639 
L 77.427321 56.00091 
L 77.924053 55.652729 
L 77.924053 55.652729 
L 76.933945 55.652729 
L 77.058128 55.826819 
L 77.551504 56.172824 
L 77.427321 56.172824 
L 77.427321 56.172824 
L 77.551504 56.00091 
L 77.303138 56.00091 
L 77.058128 55.826819 
L 77.427321 55.826819 
L 77.551504 56.00091 
L 77.551504 56.346914 
L 77.551504 56.346914 
L 77.675687 56.346914 
L 77.178955 56.346914 
L 76.933945 56.521004 
L 76.685579 57.215188 
L 76.809762 57.563369 
L 76.809762 57.563369 
L 76.437213 57.563369 
L 76.437213 57.911549 
L 76.809762 57.563369 
L 76.933945 57.563369 
L 76.933945 57.563369 
L 76.685579 57.911549 
L 76.809762 57.911549 
L 76.933945 57.911549 
L 76.809762 57.737459 
L 76.437213 57.737459 
L 76.685579 58.083463 
L 76.809762 57.737459 
L 76.685579 57.563369 
L 76.685579 57.737459 
L 76.31303 57.737459 
L 76.31303 57.911549 
L 76.561396 58.083463 
L 76.561396 57.911549 
L 76.437213 58.257553 
L 76.561396 58.605733 
L 76.809762 58.605733 
L 77.058128 58.257553 
L 76.933945 57.911549 
L 76.685579 57.911549 
L 76.561396 58.257553 
L 76.685579 58.605733 
L 76.933945 58.779823 
L 76.685579 58.605733 
L 76.437213 58.083463 
L 76.437213 57.737459 
L 76.31303 57.737459 
L 76.685579 58.431643 
L 76.437213 58.605733 
L 76.188847 58.605733 
L 76.685579 59.299918 
L 76.31303 58.951737 
L 76.064664 58.083463 
L 76.188847 57.737459 
L 76.31303 58.083463 
L 75.940481 58.083463 
L 75.816298 58.257553 
L 76.064664 58.083463 
L 76.188847 58.257553 
L 75.940481 58.605733 
L 75.816298 58.431643 
L 75.940481 57.911549 
L 76.437213 57.737459 
L 76.809762 58.083463 
L 76.685579 58.605733 
L 76.188847 58.951737 
L 75.940481 58.779823 
L 76.188847 58.951737 
L 76.188847 59.125827 
L 76.188847 59.125827 
L 76.31303 59.125827 
L 76.31303 59.125827 
L 76.188847 58.951737 
L 76.31303 58.779823 
L 76.561396 58.779823 
L 76.437213 58.779823 
L 76.188847 59.125827 
L 75.940481 58.605733 
L 76.064664 58.257553 
L 76.064664 57.911549 
L 75.940481 58.257553 
L 76.064664 58.951737 
L 76.31303 59.125827 
L 76.561396 58.431643 
L 76.561396 58.605733 
L 76.809762 58.779823 
L 76.933945 58.605733 
L 76.685579 58.431643 
L 76.561396 58.605733 
L 76.685579 59.125827 
L 76.933945 59.299918 
L 76.809762 58.951737 
L 76.561396 58.779823 
L 76.561396 58.951737 
L 76.561396 58.605733 
L 76.685579 57.911549 
L 76.561396 57.911549 
L 76.31303 58.431643 
L 76.933945 58.951737 
L 76.809762 58.951737 
L 76.561396 58.779823 
L 76.437213 59.125827 
L 76.561396 59.125827 
L 76.685579 58.605733 
L 76.561396 58.257553 
L 76.31303 58.779823 
L 76.685579 58.083463 
L 76.561396 58.257553 
L 75.692115 58.779823 
L 75.44375 58.951737 
L 75.567932 58.779823 
L 75.816298 58.257553 
L 75.816298 58.431643 
L 76.064664 58.779823 
L 75.692115 59.125827 
L 75.567932 59.125827 
L 75.319567 58.951737 
L 75.195384 59.125827 
L 75.195384 58.951737 
L 75.319567 58.431643 
L 75.692115 57.911549 
L 75.816298 58.257553 
L 75.44375 58.605733 
L 75.071201 58.605733 
L 75.567932 57.563369 
L 75.567932 57.563369 
L 75.319567 58.431643 
L 75.071201 58.431643 
L 74.822835 57.911549 
L 74.822835 57.389278 
L 75.195384 57.389278 
L 74.947018 57.563369 
L 74.947018 57.563369 
L 74.822835 57.563369 
L 74.574469 57.737459 
L 74.450286 57.215188 
L 74.698652 57.215188 
L 74.822835 57.389278 
L 75.195384 57.389278 
L 74.947018 57.389278 
L 74.326103 57.215188 
L 74.326103 57.389278 
L 74.450286 57.737459 
L 74.450286 57.563369 
L 74.574469 57.389278 
L 74.574469 57.389278 
L 74.450286 57.215188 
L 74.574469 57.041098 
L 74.20192 57.389278 
L 73.953554 57.389278 
L 73.953554 57.389278 
L 73.953554 56.869184 
L 73.832727 57.041098 
L 73.953554 57.389278 
L 74.326103 57.911549 
L 74.450286 57.737459 
L 73.953554 56.869184 
L 73.953554 57.215188 
L 74.20192 57.563369 
L 74.20192 57.911549 
L 74.450286 58.083463 
L 75.195384 58.083463 
L 76.188847 58.257553 
L 78.917516 59.125827 
L 82.888015 61.036467 
L 85.119952 62.598926 
L 91.074022 66.072024 
L 98.145738 70.587487 
L 106.583467 76.839498 
L 116.011303 83.09151 
L 120.599361 86.738699 
L 125.066591 90.734067 
L 129.90637 94.90135 
L 140.945229 103.238091 
L 146.28174 107.579464 
L 156.823867 116.610389 
L 166.872618 124.59895 
L 176.797187 132.067417 
L 192.306632 144.57144 
L 206.446708 156.727284 
L 215.998728 164.369841 
L 224.312274 171.662041 
L 228.282772 175.135139 
L 232.622464 178.436323 
L 236.841328 182.083512 
L 244.658142 189.377888 
L 248.628641 192.676896 
L 252.595783 196.324085 
L 265.128194 210.738748 
L 267.981046 214.385936 
L 273.190018 221.678136 
L 275.176945 224.80523 
L 276.91215 228.104238 
L 279.765002 234.70443 
L 280.758466 237.483344 
L 281.006832 240.262258 
L 280.758466 242.867081 
L 279.392453 252.069921 
L 278.771538 253.634556 
L 277.781431 255.022925 
L 275.794504 256.759474 
L 273.065835 258.496023 
L 272.196554 259.192384 
L 271.082263 259.886568 
L 270.585532 260.232572 
L 270.461349 260.928933 
L 270.585532 261.623117 
L 270.585532 262.317301 
L 270.212983 262.837396 
L 269.964617 263.70567 
L 269.964617 264.922125 
L 270.212983 265.96449 
L 270.212983 266.484584 
L 270.337166 267.006854 
L 270.709715 267.701039 
L 271.206446 268.221133 
L 271.206446 268.917494 
L 270.709715 270.305862 
L 270.585532 271.174137 
L 270.585532 272.216502 
L 270.337166 272.910686 
L 270.212983 273.084776 
L 269.840434 273.084776 
L 269.219519 273.432956 
L 268.229412 274.647235 
L 268.105229 274.301231 
L 267.981046 274.301231 
L 267.981046 274.301231 
L 268.229412 274.647235 
L 267.111765 275.6896 
L 266.49085 275.6896 
L 266.49085 275.86369 
L 266.615033 276.21187 
L 266.118301 276.557874 
L 265.994118 276.906055 
L 266.242484 277.426149 
L 266.366667 278.120333 
L 266.242484 277.948419 
L 265.994118 277.948419 
L 265.869935 278.294423 
L 265.745752 278.988608 
L 265.500743 279.510878 
L 265.004011 279.510878 
L 264.755645 279.336788 
L 264.755645 279.510878 
L 265.004011 279.684968 
L 264.755645 280.725157 
L 264.507279 280.725157 
L 264.507279 280.725157 
L 264.879828 281.767521 
L 265.004011 281.593431 
L 264.755645 281.593431 
L 264.507279 281.941612 
L 264.631462 282.115702 
L 264.383096 282.115702 
L 264.258913 282.289792 
L 264.507279 282.635796 
L 264.631462 283.332157 
L 264.383096 284.026341 
L 264.010547 284.026341 
L 263.513815 283.504071 
L 263.389632 282.983976 
L 263.513815 282.635796 
L 263.513815 282.809886 
L 263.141266 284.372345 
L 263.265449 284.720525 
L 263.141266 284.720525 
L 262.768717 284.546435 
L 263.017083 284.200431 
L 262.768717 284.026341 
L 262.151159 284.720525 
L 262.151159 284.546435 
L 262.151159 284.200431 
L 262.151159 284.200431 
L 262.026976 284.546435 
L 262.026976 284.372345 
L 262.026976 284.200431 
L 262.026976 284.200431 
L 261.530244 284.720525 
L 261.530244 284.894615 
L 261.530244 284.894615 
L 261.281878 284.372345 
L 261.281878 284.372345 
L 261.654427 284.720525 
L 261.77861 285.068706 
L 261.654427 285.24062 
L 261.033512 284.720525 
L 260.909329 284.720525 
L 260.785146 285.5888 
L 261.033512 285.5888 
L 260.909329 285.24062 
L 260.785146 285.24062 
L 260.660963 285.41471 
L 260.412597 285.24062 
L 260.412597 284.546435 
L 260.164231 284.546435 
L 259.915866 284.720525 
L 260.040048 284.894615 
L 260.53678 285.068706 
L 261.033512 285.068706 
L 261.033512 285.41471 
L 260.909329 285.41471 
L 260.53678 285.24062 
L 260.288414 285.41471 
L 260.53678 285.24062 
L 260.53678 284.894615 
L 260.164231 284.720525 
L 259.791683 285.76289 
L 259.791683 285.5888 
L 260.040048 285.76289 
L 260.040048 285.41471 
L 259.791683 285.24062 
L 259.543317 285.24062 
L 259.419134 285.5888 
L 259.543317 285.93698 
L 259.791683 285.93698 
L 260.040048 285.5888 
L 259.6675 286.108894 
L 259.419134 285.41471 
L 259.046585 285.24062 
L 258.925758 284.894615 
L 259.046585 285.068706 
L 259.294951 285.76289 
L 258.801575 284.894615 
L 258.801575 284.720525 
L 258.801575 286.282984 
L 258.801575 286.108894 
L 258.304843 286.108894 
L 258.056477 286.457074 
L 258.18066 286.977169 
L 258.677392 287.499439 
L 258.429026 287.673529 
L 258.18066 287.673529 
L 258.056477 287.325349 
L 258.304843 286.805255 
L 258.429026 287.151259 
L 257.932294 286.805255 
L 257.932294 286.977169 
L 257.932294 286.805255 
L 258.056477 286.805255 
L 258.429026 287.151259 
L 258.18066 287.151259 
L 257.932294 287.151259 
L 258.429026 287.151259 
L 258.429026 287.499439 
L 258.553209 287.499439 
L 258.801575 287.151259 
L 258.553209 287.151259 
L 258.056477 287.325349 
L 258.056477 286.977169 
L 258.429026 286.631165 
L 258.677392 287.151259 
L 258.677392 287.673529 
L 258.429026 288.019533 
L 258.304843 287.673529 
L 258.304843 287.325349 
L 258.304843 287.325349 
L 258.056477 286.805255 
L 258.056477 287.151259 
L 258.304843 286.631165 
L 258.429026 286.108894 
L 258.18066 286.282984 
L 257.683928 286.457074 
L 257.31138 286.108894 
L 256.690465 285.76289 
L 255.945367 285.5888 
L 249.494565 282.289792 
L 247.262628 281.421517 
L 244.658142 280.899247 
L 242.177839 280.030972 
L 237.462243 277.426149 
L 234.733574 276.21187 
L 232.129088 274.821325 
L 226.171662 271.174137 
L 221.211056 269.785768 
L 219.227485 268.569313 
L 218.60657 268.395223 
L 217.861472 268.049219 
L 216.247094 267.701039 
L 215.877901 267.526949 
L 215.381169 267.006854 
L 215.505352 267.006854 
L 215.753718 267.180944 
L 215.877901 267.526949 
L 215.877901 267.875129 
L 215.998728 268.049219 
L 216.619643 267.701039 
L 216.992192 268.049219 
L 217.116375 268.395223 
L 217.488923 268.395223 
L 217.737289 268.049219 
L 217.613106 267.526949 
L 217.240558 267.875129 
L 217.36474 267.875129 
L 217.36474 267.701039 
L 216.992192 268.917494 
L 216.743826 268.917494 
L 216.371277 268.221133 
L 216.371277 268.049219 
L 216.371277 268.569313 
L 216.619643 269.611678 
L 216.371277 269.263498 
L 215.877901 268.917494 
L 215.753718 269.089408 
L 215.877901 268.743403 
L 216.122911 268.221133 
L 215.753718 269.089408 
L 215.877901 269.263498 
L 215.998728 269.089408 
L 215.877901 268.743403 
L 215.629535 268.395223 
L 215.753718 268.743403 
L 215.877901 269.611678 
L 215.753718 269.785768 
L 215.629535 269.437588 
L 215.629535 268.221133 
L 215.998728 269.437588 
L 215.998728 269.957682 
L 215.753718 269.785768 
L 215.505352 269.437588 
L 215.505352 268.743403 
L 215.629535 268.221133 
L 215.629535 268.221133 
L 215.381169 268.221133 
L 215.256986 268.569313 
L 215.256986 269.089408 
L 215.505352 269.263498 
L 215.381169 269.089408 
L 215.00862 269.089408 
L 215.132803 269.089408 
L 214.884437 269.263498 
L 214.884437 269.437588 
L 215.256986 269.611678 
L 215.629535 269.611678 
L 215.629535 269.611678 
L 215.505352 269.263498 
L 215.256986 269.263498 
L 214.884437 270.828133 
L 214.884437 270.479953 
L 214.760255 270.131772 
L 214.760255 270.305862 
L 214.760255 270.479953 
L 214.760255 269.611678 
L 214.636072 269.957682 
L 214.636072 270.305862 
L 214.636072 269.957682 
L 214.511889 269.089408 
L 214.636072 269.089408 
L 215.00862 269.437588 
L 215.132803 269.785768 
L 215.132803 269.785768 
L 214.511889 269.263498 
L 214.511889 268.917494 
L 214.511889 269.263498 
L 213.890974 269.785768 
L 214.13934 269.957682 
L 214.387706 269.437588 
L 214.263523 269.437588 
L 214.13934 269.611678 
L 214.263523 269.611678 
L 215.132803 269.785768 
L 216.371277 269.785768 
L 217.985655 269.611678 
L 219.969226 268.917494 
L 225.923296 267.352859 
L 230.266344 266.484584 
L 240.439278 264.922125 
L 258.553209 263.359666 
L 265.37656 262.491392 
L 272.569103 261.797207 
L 279.889185 261.274937 
L 287.209267 260.928933 
L 301.3527 260.580752 
L 315.368594 259.886568 
L 322.191944 260.060658 
L 335.466096 260.754842 
L 352.959113 260.754842 
L 358.664817 260.580752 
L 364.49806 260.232572 
L 370.07958 260.232572 
L 374.916003 260.406662 
L 382.732818 260.060658 
L 386.206584 260.060658 
L 389.307802 260.580752 
L 391.912288 260.754842 
L 394.147582 260.754842 
L 397.372982 259.886568 
L 398.238907 259.364298 
L 398.487273 258.670113 
L 397.000433 257.975929 
L 393.402484 257.281744 
L 392.284837 256.933564 
L 391.788105 256.585384 
L 391.539739 256.585384 
L 390.797998 256.933564 
L 390.549632 257.453658 
L 390.673815 257.453658 
L 391.046364 257.281744 
L 391.663922 257.627748 
L 392.40902 257.627748 
L 393.029935 257.975929 
L 393.278301 258.844203 
L 393.402484 259.018293 
L 393.278301 259.018293 
L 393.278301 259.192384 
L 393.029935 259.192384 
L 392.781569 258.670113 
L 392.781569 258.670113 
L 392.657386 259.018293 
L 392.905752 259.192384 
L 392.781569 259.018293 
L 391.788105 258.670113 
L 391.788105 258.496023 
L 391.788105 258.496023 
L 391.912288 258.496023 
L 391.912288 258.496023 
L 391.912288 258.844203 
L 391.788105 259.018293 
L 391.912288 258.844203 
L 391.539739 259.018293 
L 391.415556 259.364298 
L 391.291373 259.364298 
L 391.291373 259.192384 
L 391.788105 258.324109 
L 391.788105 258.496023 
L 391.539739 258.150019 
L 391.291373 258.150019 
L 391.291373 258.670113 
L 391.663922 259.018293 
L 391.415556 259.018293 
L 391.415556 258.844203 
L 391.291373 259.018293 
L 391.046364 259.018293 
L 390.922181 259.364298 
L 390.922181 259.712478 
L 390.922181 259.538388 
L 391.046364 259.538388 
L 391.046364 259.538388 
L 391.539739 259.886568 
L 391.16719 259.538388 
L 391.16719 259.886568 
L 391.539739 260.580752 
L 391.539739 260.580752 
L 391.046364 260.580752 
L 391.046364 260.754842 
L 391.291373 260.754842 
L 391.291373 260.580752 
L 391.291373 260.754842 
L 391.16719 261.100847 
L 390.922181 261.449027 
L 390.549632 261.449027 
L 390.673815 261.274937 
L 390.549632 261.274937 
L 390.425449 261.100847 
L 390.425449 260.232572 
L 390.425449 260.406662 
L 390.673815 260.406662 
L 390.797998 260.754842 
L 390.797998 261.797207 
L 390.673815 261.797207 
L 390.425449 261.969121 
L 390.301266 261.797207 
L 390.0529 261.797207 
L 390.0529 261.449027 
L 390.177083 260.928933 
L 390.301266 260.928933 
L 389.928717 260.928933 
L 389.928717 261.274937 
L 390.0529 261.623117 
L 390.0529 261.623117 
L 389.556168 261.623117 
L 389.431985 261.797207 
L 389.556168 261.797207 
L 389.307802 261.274937 
L 389.307802 261.797207 
L 389.183619 261.797207 
L 389.307802 261.449027 
L 389.307802 261.100847 
L 389.059436 261.100847 
L 388.935253 261.274937 
L 389.059436 261.274937 
L 389.183619 261.274937 
L 389.183619 261.100847 
L 388.935253 261.623117 
L 388.935253 261.449027 
L 389.183619 261.274937 
L 389.183619 261.100847 
L 388.935253 261.969121 
L 389.059436 261.623117 
L 388.81107 261.449027 
L 388.438521 261.449027 
L 388.314339 261.274937 
L 388.438521 260.754842 
L 388.686887 260.232572 
L 388.81107 260.232572 
L 388.935253 260.406662 
L 388.935253 260.928933 
L 388.314339 260.928933 
L 388.190156 260.754842 
L 388.438521 260.232572 
L 388.686887 260.406662 
L 388.314339 261.100847 
L 388.438521 261.100847 
L 387.94179 260.754842 
L 387.448414 259.886568 
L 387.69678 259.712478 
L 387.94179 259.886568 
L 387.817607 259.886568 
L 387.572597 260.580752 
L 387.572597 260.232572 
L 387.817607 259.886568 
L 387.572597 260.060658 
L 387.200048 260.060658 
L 386.951682 260.406662 
L 387.200048 260.580752 
L 387.200048 260.060658 
L 386.951682 259.538388 
L 386.703316 259.538388 
L 386.703316 259.538388 
L 387.200048 260.060658 
L 387.075865 260.406662 
L 386.703316 260.580752 
L 386.579133 260.232572 
L 386.579133 259.712478 
L 386.951682 259.538388 
L 387.075865 259.712478 
L 386.951682 259.886568 
L 386.45495 259.886568 
L 386.082401 260.060658 
L 386.082401 260.232572 
L 386.082401 260.060658 
L 386.206584 260.060658 
L 386.579133 260.232572 
L 386.579133 260.232572 
L 386.579133 260.580752 
L 386.45495 260.580752 
L 386.082401 260.060658 
L 385.834036 260.754842 
L 385.834036 260.754842 
L 386.082401 260.580752 
L 385.958218 260.580752 
L 385.958218 260.232572 
L 386.330767 260.060658 
L 386.206584 260.232572 
L 385.337304 258.324109 
L 384.347196 257.107654 
L 383.22955 256.41347 
L 381.615171 255.717109 
L 379.6316 254.32874 
L 374.298445 249.813278 
L 371.073044 247.382544 
L 363.504596 242.518901 
L 359.161548 239.393983 
L 354.573491 235.920885 
L 345.514848 228.800599 
L 341.050973 225.325324 
L 332.240695 218.727308 
L 311.894827 201.707822 
L 302.094442 193.719261 
L 294.901899 188.335524 
L 291.924864 185.902614 
L 287.33345 181.735331 
L 285.225696 179.824692 
L 280.013368 173.57268 
L 277.160516 170.793767 
L 274.183481 167.668849 
L 270.958081 165.75821 
L 270.0888 165.238115 
L 269.095336 164.889935 
L 268.60196 164.541755 
L 268.353595 164.715845 
L 268.84697 165.238115 
L 269.095336 165.238115 
L 269.467885 165.584119 
L 269.592068 165.410029 
L 269.467885 165.75821 
L 269.716251 166.626484 
L 269.716251 166.626484 
L 269.716251 165.75821 
L 269.467885 165.584119 
L 268.84697 164.889935 
L 268.84697 165.064025 
L 268.726143 164.889935 
L 268.229412 164.889935 
L 268.105229 164.369841 
L 268.105229 164.369841 
L 267.981046 164.541755 
L 267.608497 164.195751 
L 267.360131 163.84757 
L 268.229412 164.889935 
L 268.353595 164.889935 
L 268.353595 164.889935 
L 268.229412 164.715845 
L 267.981046 164.889935 
L 267.73268 165.238115 
L 268.229412 164.541755 
L 267.73268 165.238115 
L 267.484314 165.238115 
L 267.360131 164.889935 
L 267.360131 165.064025 
L 267.235948 165.238115 
L 267.360131 165.238115 
L 267.484314 165.75821 
L 267.484314 166.278304 
L 267.484314 166.278304 
L 267.360131 165.9323 
L 267.360131 165.410029 
L 267.360131 165.75821 
L 267.608497 165.75821 
L 267.608497 165.9323 
L 267.360131 166.10639 
L 267.111765 165.75821 
L 266.739216 165.584119 
L 266.615033 165.9323 
L 266.863399 166.626484 
L 266.49085 166.626484 
L 266.615033 166.626484 
L 266.615033 166.800574 
L 266.118301 166.800574 
L 266.366667 166.800574 
L 266.366667 166.974664 
L 266.118301 167.146578 
L 266.118301 167.146578 
L 266.366667 167.146578 
L 266.615033 166.974664 
L 266.863399 167.320669 
L 267.111765 167.146578 
L 267.111765 167.320669 
L 266.863399 167.320669 
L 266.739216 166.974664 
L 266.49085 166.626484 
L 266.118301 166.626484 
L 265.994118 166.974664 
L 265.994118 167.320669 
L 265.994118 167.320669 
L 265.869935 167.320669 
L 265.869935 167.668849 
L 265.745752 167.668849 
L 265.745752 167.320669 
L 265.994118 166.626484 
L 266.242484 166.626484 
L 266.366667 166.800574 
L 266.242484 166.800574 
L 266.118301 166.974664 
L 266.366667 166.800574 
L 266.118301 166.800574 
L 265.621569 167.146578 
L 265.621569 167.146578 
L 265.869935 167.146578 
L 265.994118 167.320669 
L 265.869935 167.320669 
L 265.745752 167.320669 
L 266.242484 166.974664 
L 266.242484 167.494759 
L 265.869935 167.842939 
L 265.745752 167.842939 
L 265.745752 167.494759 
L 265.869935 167.668849 
L 266.118301 167.668849 
L 266.118301 167.320669 
L 266.366667 167.146578 
L 266.366667 167.494759 
L 266.118301 167.668849 
L 265.994118 167.146578 
L 265.869935 167.320669 
L 265.869935 167.668849 
L 266.118301 167.668849 
L 266.366667 167.494759 
L 266.366667 167.494759 
L 265.994118 168.014853 
L 265.621569 168.883127 
L 265.745752 168.711213 
L 266.118301 168.014853 
L 266.118301 167.320669 
L 266.242484 167.842939 
L 266.49085 168.014853 
L 266.49085 168.188943 
L 266.242484 168.363033 
L 265.745752 168.363033 
L 265.745752 168.363033 
L 265.869935 168.188943 
L 266.118301 168.711213 
L 266.118301 168.883127 
L 266.118301 168.883127 
L 265.869935 168.711213 
L 265.500743 168.711213 
L 265.37656 168.883127 
L 265.500743 169.231308 
L 265.621569 169.231308 
L 265.745752 169.057218 
L 266.118301 169.057218 
L 265.994118 169.405398 
L 266.118301 169.753578 
L 266.118301 170.273672 
L 265.994118 170.273672 
L 265.994118 170.099582 
L 266.118301 169.925492 
L 266.366667 169.925492 
L 266.49085 169.753578 
L 266.366667 169.231308 
L 266.242484 169.231308 
L 265.994118 169.753578 
L 265.869935 169.579488 
L 265.994118 169.579488 
L 266.118301 169.579488 
L 266.49085 170.099582 
L 266.615033 169.753578 
L 266.118301 169.231308 
L 266.118301 169.405398 
L 266.242484 169.405398 
L 266.49085 169.753578 
L 265.500743 170.273672 
L 265.621569 170.099582 
L 266.118301 170.447763 
L 266.366667 170.793767 
L 266.49085 170.621853 
L 266.49085 170.273672 
L 266.615033 170.099582 
L 266.615033 170.099582 
L 266.366667 170.099582 
L 266.366667 169.925492 
L 266.863399 169.925492 
L 266.863399 170.621853 
L 266.739216 170.793767 
L 266.118301 170.793767 
L 265.869935 171.141947 
L 265.869935 171.490127 
L 266.242484 171.490127 
L 266.739216 172.010221 
L 266.615033 171.836131 
L 266.615033 171.490127 
L 266.863399 171.316037 
L 267.111765 171.490127 
L 267.111765 172.010221 
L 266.739216 172.184312 
L 266.49085 171.836131 
L 265.994118 171.662041 
L 265.37656 171.836131 
L 260.53678 171.836131 
L 258.429026 172.010221 
L 255.697001 172.358402 
L 252.719966 172.878496 
L 249.618748 173.57268 
L 242.671215 175.309229 
L 232.129088 179.478688 
L 228.282772 181.215237 
L 224.56064 183.125876 
L 217.240558 187.293159 
L 197.888153 200.491367 
L 194.911118 202.750187 
L 192.058266 205.18092 
L 189.45378 207.785744 
L 187.218487 210.390567 
L 185.483281 212.995391 
L 182.257881 216.990759 
L 180.519319 218.901399 
L 177.169735 223.416861 
L 175.682896 224.63114 
L 174.565249 225.847595 
L 173.447603 226.88996 
L 172.333312 228.278328 
L 170.222202 232.273697 
L 169.356278 232.967881 
L 168.61118 234.010246 
L 167.990265 235.920885 
L 167.990265 236.61507 
L 168.362814 237.309254 
L 169.107912 241.650627 
L 169.849653 243.213086 
L 170.098019 243.909446 
L 170.098019 244.60363 
L 170.346385 245.123725 
L 170.346385 245.645995 
L 170.222202 246.166089 
L 170.222202 247.208454 
L 170.098019 247.556634 
L 170.098019 248.076729 
L 169.849653 249.465097 
L 170.098019 249.987368 
L 169.480461 250.855642 
L 169.849653 252.418101 
L 169.973836 252.418101 
L 169.72547 253.286376 
L 169.72547 253.98056 
L 169.849653 254.502831 
L 169.973836 254.502831 
L 170.098019 254.32874 
L 169.849653 254.676921 
L 169.973836 255.197015 
L 170.843117 255.891199 
L 170.9673 256.41347 
L 170.9673 257.107654 
L 171.215666 257.107654 
L 171.091483 257.107654 
L 170.9673 257.453658 
L 170.9673 257.975929 
L 171.091483 258.496023 
L 171.091483 259.192384 
L 170.9673 259.538388 
L 171.091483 259.538388 
L 171.464032 259.192384 
L 171.464032 259.712478 
L 171.339849 260.580752 
L 170.718934 262.317301 
L 170.843117 263.185576 
L 171.215666 263.70567 
L 171.215666 263.70567 
L 171.215666 264.227941 
L 170.9673 264.922125 
L 170.843117 265.616309 
L 170.9673 265.96449 
L 171.215666 266.13858 
L 171.339849 265.96449 
L 171.215666 266.13858 
L 171.464032 266.658674 
L 171.339849 266.832764 
L 171.339849 267.352859 
L 171.464032 267.352859 
L 171.712398 267.875129 
L 171.712398 268.569313 
L 171.215666 270.131772 
L 171.215666 270.305862 
L 171.215666 269.957682 
L 171.215666 270.131772 
L 171.091483 270.654043 
L 171.091483 271.348227 
L 170.9673 271.696407 
L 170.718934 272.042411 
L 170.718934 272.564682 
L 170.9673 272.564682 
L 170.9673 272.216502 
L 171.091483 272.216502 
L 171.091483 272.390592 
L 170.9673 272.736596 
L 170.9673 273.084776 
L 170.9673 272.910686 
L 171.091483 272.736596 
L 170.9673 273.258866 
L 170.718934 273.778961 
L 170.594751 273.778961 
L 170.843117 273.60487 
L 170.9673 273.258866 
L 170.843117 273.258866 
L 170.470568 274.473145 
L 170.470568 274.647235 
L 170.594751 274.647235 
L 170.346385 275.341419 
L 170.098019 275.6896 
L 169.849653 275.6896 
L 169.849653 275.51551 
L 169.849653 276.03778 
L 169.72547 276.383784 
L 169.72547 276.21187 
L 169.356278 275.86369 
L 169.107912 277.426149 
L 168.859546 277.426149 
L 168.61118 277.080145 
L 168.486997 277.252059 
L 168.486997 277.600239 
L 168.735363 278.816694 
L 168.735363 278.642604 
L 168.486997 279.162698 
L 168.61118 278.988608 
L 168.735363 278.988608 
L 168.486997 278.988608 
L 167.617716 279.856882 
L 167.617716 279.856882 
L 167.617716 280.205063 
L 167.36935 280.725157 
L 166.748435 280.205063 
L 166.130877 280.205063 
L 166.130877 280.379153 
L 166.130877 280.379153 
L 166.500069 280.379153 
L 166.624252 280.553243 
L 166.500069 280.725157 
L 166.25506 280.553243 
L 166.006694 280.553243 
L 165.634145 280.030972 
L 165.261596 279.856882 
L 165.261596 280.205063 
L 165.509962 280.553243 
L 165.385779 280.899247 
L 164.516498 280.379153 
L 164.268132 280.030972 
L 164.268132 280.205063 
L 164.143949 280.205063 
L 164.143949 280.205063 
L 164.143949 280.553243 
L 164.268132 280.725157 
L 164.516498 280.725157 
L 165.01323 280.553243 
L 165.758328 280.553243 
L 166.624252 280.379153 
L 168.983729 279.684968 
L 170.470568 279.510878 
L 172.084946 279.684968 
L 173.820152 279.684968 
L 175.310347 279.856882 
L 176.548821 280.553243 
L 177.542284 281.247427 
L 178.535748 281.247427 
L 179.529212 281.073337 
L 180.519319 281.593431 
L 181.885332 283.332157 
L 182.133698 284.372345 
L 181.885332 285.5888 
L 181.512783 286.108894 
L 181.016051 286.457074 
L 180.519319 286.977169 
L 178.411565 287.673529 
L 177.666467 288.193623 
L 177.418101 288.019533 
L 177.293918 287.673529 
L 177.293918 287.325349 
L 177.169735 286.977169 
L 176.92137 286.805255 
L 177.045552 286.805255 
L 177.169735 286.631165 
L 177.169735 286.805255 
L 177.045552 287.325349 
L 177.045552 288.887808 
L 176.92137 289.235988 
L 176.548821 288.367714 
L 176.424638 288.193623 
L 176.548821 288.193623 
L 176.92137 288.367714 
L 176.797187 288.715894 
L 176.548821 289.061898 
L 176.548821 288.887808 
L 175.682896 288.887808 
L 175.43453 288.715894 
L 175.558713 288.887808 
L 175.558713 288.541804 
L 175.43453 287.847619 
L 175.310347 287.847619 
L 175.558713 288.193623 
L 175.558713 288.541804 
L 175.43453 289.061898 
L 175.682896 289.235988 
L 175.558713 289.410078 
L 174.937798 289.061898 
L 174.565249 289.061898 
L 174.689432 289.061898 
L 174.316884 289.410078 
L 174.316884 289.756082 
L 174.441067 289.756082 
L 174.565249 289.410078 
L 174.316884 289.235988 
L 173.820152 289.584168 
L 173.820152 289.756082 
L 173.695969 289.410078 
L 173.820152 289.584168 
L 174.316884 289.584168 
L 174.068518 289.756082 
L 173.944335 289.584168 
L 173.695969 288.715894 
L 173.571786 288.715894 
L 173.571786 289.930173 
L 173.571786 289.930173 
L 173.695969 290.278353 
L 173.695969 290.452443 
L 173.820152 290.104263 
L 173.820152 289.584168 
L 173.695969 289.584168 
L 173.695969 289.584168 
L 173.571786 289.756082 
L 173.447603 290.278353 
L 173.447603 291.840812 
L 173.32342 291.666722 
L 173.32342 291.146627 
L 173.571786 291.146627 
L 173.571786 291.320717 
L 172.830044 290.972537 
L 172.830044 290.972537 
L 172.705861 291.146627 
L 172.705861 290.972537 
L 172.581678 290.452443 
L 172.581678 290.452443 
L 172.457495 290.798447 
L 172.457495 290.798447 
L 172.457495 291.492631 
L 172.333312 291.840812 
L 172.457495 291.840812 
L 172.581678 291.492631 
L 172.581678 291.492631 
L 172.581678 292.014902 
L 172.830044 291.840812 
L 172.830044 291.666722 
L 172.457495 291.840812 
L 171.836581 292.360906 
L 171.836581 292.709086 
L 171.960764 293.057267 
L 171.712398 293.751451 
L 171.712398 293.229181 
L 171.464032 294.099631 
L 171.215666 293.577361 
L 171.091483 293.229181 
L 171.339849 293.229181 
L 171.588215 293.403271 
L 171.215666 293.057267 
L 170.9673 293.229181 
L 170.843117 293.057267 
L 171.339849 292.709086 
L 171.588215 292.709086 
L 171.091483 293.403271 
L 171.215666 293.577361 
L 171.339849 293.229181 
L 171.091483 293.229181 
L 170.843117 293.403271 
L 170.9673 293.403271 
L 171.588215 293.403271 
L 171.339849 293.403271 
L 171.091483 293.577361 
L 171.091483 293.577361 
L 170.843117 293.577361 
L 170.843117 293.403271 
L 171.091483 292.883176 
L 170.843117 293.057267 
L 170.9673 293.229181 
L 171.091483 293.751451 
L 171.091483 294.967906 
L 171.091483 294.967906 
L 170.346385 294.445635 
L 170.9673 294.967906 
L 170.718934 295.488 
L 170.718934 295.488 
L 170.718934 295.31391 
L 170.718934 295.31391 
L 170.346385 294.967906 
L 170.594751 295.13982 
" style="fill:none;stroke:#1f77b4;stroke-linecap:square;stroke-width:1.5;"/>
   </g>
   <g id="matplotlib.axis_1">
    <g id="xtick_1">
     <g id="line2d_2">
      <defs>
       <path d="M 0 0 
L 0 3.5 
" id="m35e34d40e2" style="stroke:#000000;stroke-width:0.8;"/>
      </defs>
      <g>
       <use style="stroke:#000000;stroke-width:0.8;" x="93.23212" xlink:href="#m35e34d40e2" y="307.584"/>
      </g>
     </g>
     <g id="text_1">
      <!-- −600 -->
      <defs>
       <path d="M 10.59375 35.5 
L 73.1875 35.5 
L 73.1875 27.203125 
L 10.59375 27.203125 
z
" id="DejaVuSans-8722"/>
       <path d="M 33.015625 40.375 
Q 26.375 40.375 22.484375 35.828125 
Q 18.609375 31.296875 18.609375 23.390625 
Q 18.609375 15.53125 22.484375 10.953125 
Q 26.375 6.390625 33.015625 6.390625 
Q 39.65625 6.390625 43.53125 10.953125 
Q 47.40625 15.53125 47.40625 23.390625 
Q 47.40625 31.296875 43.53125 35.828125 
Q 39.65625 40.375 33.015625 40.375 
z
M 52.59375 71.296875 
L 52.59375 62.3125 
Q 48.875 64.0625 45.09375 64.984375 
Q 41.3125 65.921875 37.59375 65.921875 
Q 27.828125 65.921875 22.671875 59.328125 
Q 17.53125 52.734375 16.796875 39.40625 
Q 19.671875 43.65625 24.015625 45.921875 
Q 28.375 48.1875 33.59375 48.1875 
Q 44.578125 48.1875 50.953125 41.515625 
Q 57.328125 34.859375 57.328125 23.390625 
Q 57.328125 12.15625 50.6875 5.359375 
Q 44.046875 -1.421875 33.015625 -1.421875 
Q 20.359375 -1.421875 13.671875 8.265625 
Q 6.984375 17.96875 6.984375 36.375 
Q 6.984375 53.65625 15.1875 63.9375 
Q 23.390625 74.21875 37.203125 74.21875 
Q 40.921875 74.21875 44.703125 73.484375 
Q 48.484375 72.75 52.59375 71.296875 
z
" id="DejaVuSans-54"/>
       <path d="M 31.78125 66.40625 
Q 24.171875 66.40625 20.328125 58.90625 
Q 16.5 51.421875 16.5 36.375 
Q 16.5 21.390625 20.328125 13.890625 
Q 24.171875 6.390625 31.78125 6.390625 
Q 39.453125 6.390625 43.28125 13.890625 
Q 47.125 21.390625 47.125 36.375 
Q 47.125 51.421875 43.28125 58.90625 
Q 39.453125 66.40625 31.78125 66.40625 
z
M 31.78125 74.21875 
Q 44.046875 74.21875 50.515625 64.515625 
Q 56.984375 54.828125 56.984375 36.375 
Q 56.984375 17.96875 50.515625 8.265625 
Q 44.046875 -1.421875 31.78125 -1.421875 
Q 19.53125 -1.421875 13.0625 8.265625 
Q 6.59375 17.96875 6.59375 36.375 
Q 6.59375 54.828125 13.0625 64.515625 
Q 19.53125 74.21875 31.78125 74.21875 
z
" id="DejaVuSans-48"/>
      </defs>
      <g transform="translate(79.498526 322.182437)scale(0.1 -0.1)">
       <use xlink:href="#DejaVuSans-8722"/>
       <use x="83.789062" xlink:href="#DejaVuSans-54"/>
       <use x="147.412109" xlink:href="#DejaVuSans-48"/>
       <use x="211.035156" xlink:href="#DejaVuSans-48"/>
      </g>
     </g>
    </g>
    <g id="xtick_2">
     <g id="line2d_3">
      <g>
       <use style="stroke:#000000;stroke-width:0.8;" x="160.358047" xlink:href="#m35e34d40e2" y="307.584"/>
      </g>
     </g>
     <g id="text_2">
      <!-- −400 -->
      <defs>
       <path d="M 37.796875 64.3125 
L 12.890625 25.390625 
L 37.796875 25.390625 
z
M 35.203125 72.90625 
L 47.609375 72.90625 
L 47.609375 25.390625 
L 58.015625 25.390625 
L 58.015625 17.1875 
L 47.609375 17.1875 
L 47.609375 0 
L 37.796875 0 
L 37.796875 17.1875 
L 4.890625 17.1875 
L 4.890625 26.703125 
z
" id="DejaVuSans-52"/>
      </defs>
      <g transform="translate(146.624453 322.182437)scale(0.1 -0.1)">
       <use xlink:href="#DejaVuSans-8722"/>
       <use x="83.789062" xlink:href="#DejaVuSans-52"/>
       <use x="147.412109" xlink:href="#DejaVuSans-48"/>
       <use x="211.035156" xlink:href="#DejaVuSans-48"/>
      </g>
     </g>
    </g>
    <g id="xtick_3">
     <g id="line2d_4">
      <g>
       <use style="stroke:#000000;stroke-width:0.8;" x="227.483974" xlink:href="#m35e34d40e2" y="307.584"/>
      </g>
     </g>
     <g id="text_3">
      <!-- −200 -->
      <defs>
       <path d="M 19.1875 8.296875 
L 53.609375 8.296875 
L 53.609375 0 
L 7.328125 0 
L 7.328125 8.296875 
Q 12.9375 14.109375 22.625 23.890625 
Q 32.328125 33.6875 34.8125 36.53125 
Q 39.546875 41.84375 41.421875 45.53125 
Q 43.3125 49.21875 43.3125 52.78125 
Q 43.3125 58.59375 39.234375 62.25 
Q 35.15625 65.921875 28.609375 65.921875 
Q 23.96875 65.921875 18.8125 64.3125 
Q 13.671875 62.703125 7.8125 59.421875 
L 7.8125 69.390625 
Q 13.765625 71.78125 18.9375 73 
Q 24.125 74.21875 28.421875 74.21875 
Q 39.75 74.21875 46.484375 68.546875 
Q 53.21875 62.890625 53.21875 53.421875 
Q 53.21875 48.921875 51.53125 44.890625 
Q 49.859375 40.875 45.40625 35.40625 
Q 44.1875 33.984375 37.640625 27.21875 
Q 31.109375 20.453125 19.1875 8.296875 
z
" id="DejaVuSans-50"/>
      </defs>
      <g transform="translate(213.75038 322.182437)scale(0.1 -0.1)">
       <use xlink:href="#DejaVuSans-8722"/>
       <use x="83.789062" xlink:href="#DejaVuSans-50"/>
       <use x="147.412109" xlink:href="#DejaVuSans-48"/>
       <use x="211.035156" xlink:href="#DejaVuSans-48"/>
      </g>
     </g>
    </g>
    <g id="xtick_4">
     <g id="line2d_5">
      <g>
       <use style="stroke:#000000;stroke-width:0.8;" x="294.609901" xlink:href="#m35e34d40e2" y="307.584"/>
      </g>
     </g>
     <g id="text_4">
      <!-- 0 -->
      <g transform="translate(291.428651 322.182437)scale(0.1 -0.1)">
       <use xlink:href="#DejaVuSans-48"/>
      </g>
     </g>
    </g>
    <g id="xtick_5">
     <g id="line2d_6">
      <g>
       <use style="stroke:#000000;stroke-width:0.8;" x="361.735828" xlink:href="#m35e34d40e2" y="307.584"/>
      </g>
     </g>
     <g id="text_5">
      <!-- 200 -->
      <g transform="translate(352.192078 322.182437)scale(0.1 -0.1)">
       <use xlink:href="#DejaVuSans-50"/>
       <use x="63.623047" xlink:href="#DejaVuSans-48"/>
       <use x="127.246094" xlink:href="#DejaVuSans-48"/>
      </g>
     </g>
    </g>
   </g>
   <g id="matplotlib.axis_2">
    <g id="ytick_1">
     <g id="line2d_7">
      <defs>
       <path d="M 0 0 
L -3.5 0 
" id="m3f5a083f04" style="stroke:#000000;stroke-width:0.8;"/>
      </defs>
      <g>
       <use style="stroke:#000000;stroke-width:0.8;" x="57.6" xlink:href="#m3f5a083f04" y="283.195061"/>
      </g>
     </g>
     <g id="text_6">
      <!-- −400 -->
      <g transform="translate(23.132812 286.994279)scale(0.1 -0.1)">
       <use xlink:href="#DejaVuSans-8722"/>
       <use x="83.789062" xlink:href="#DejaVuSans-52"/>
       <use x="147.412109" xlink:href="#DejaVuSans-48"/>
       <use x="211.035156" xlink:href="#DejaVuSans-48"/>
      </g>
     </g>
    </g>
    <g id="ytick_2">
     <g id="line2d_8">
      <g>
       <use style="stroke:#000000;stroke-width:0.8;" x="57.6" xlink:href="#m3f5a083f04" y="239.672527"/>
      </g>
     </g>
     <g id="text_7">
      <!-- −200 -->
      <g transform="translate(23.132812 243.471746)scale(0.1 -0.1)">
       <use xlink:href="#DejaVuSans-8722"/>
       <use x="83.789062" xlink:href="#DejaVuSans-50"/>
       <use x="147.412109" xlink:href="#DejaVuSans-48"/>
       <use x="211.035156" xlink:href="#DejaVuSans-48"/>
      </g>
     </g>
    </g>
    <g id="ytick_3">
     <g id="line2d_9">
      <g>
       <use style="stroke:#000000;stroke-width:0.8;" x="57.6" xlink:href="#m3f5a083f04" y="196.149994"/>
      </g>
     </g>
     <g id="text_8">
      <!-- 0 -->
      <g transform="translate(44.2375 199.949213)scale(0.1 -0.1)">
       <use xlink:href="#DejaVuSans-48"/>
      </g>
     </g>
    </g>
    <g id="ytick_4">
     <g id="line2d_10">
      <g>
       <use style="stroke:#000000;stroke-width:0.8;" x="57.6" xlink:href="#m3f5a083f04" y="152.627461"/>
      </g>
     </g>
     <g id="text_9">
      <!-- 200 -->
      <g transform="translate(31.5125 156.42668)scale(0.1 -0.1)">
       <use xlink:href="#DejaVuSans-50"/>
       <use x="63.623047" xlink:href="#DejaVuSans-48"/>
       <use x="127.246094" xlink:href="#DejaVuSans-48"/>
      </g>
     </g>
    </g>
    <g id="ytick_5">
     <g id="line2d_11">
      <g>
       <use style="stroke:#000000;stroke-width:0.8;" x="57.6" xlink:href="#m3f5a083f04" y="109.104928"/>
      </g>
     </g>
     <g id="text_10">
      <!-- 400 -->
      <g transform="translate(31.5125 112.904147)scale(0.1 -0.1)">
       <use xlink:href="#DejaVuSans-52"/>
       <use x="63.623047" xlink:href="#DejaVuSans-48"/>
       <use x="127.246094" xlink:href="#DejaVuSans-48"/>
      </g>
     </g>
    </g>
    <g id="ytick_6">
     <g id="line2d_12">
      <g>
       <use style="stroke:#000000;stroke-width:0.8;" x="57.6" xlink:href="#m3f5a083f04" y="65.582395"/>
      </g>
     </g>
     <g id="text_11">
      <!-- 600 -->
      <g transform="translate(31.5125 69.381614)scale(0.1 -0.1)">
       <use xlink:href="#DejaVuSans-54"/>
       <use x="63.623047" xlink:href="#DejaVuSans-48"/>
       <use x="127.246094" xlink:href="#DejaVuSans-48"/>
      </g>
     </g>
    </g>
   </g>
   <g id="line2d_13">
    <path clip-path="url(#p2d632bbd5a)" d="M 76.827185 57.760549 
L 265.67527 278.021608 
L 257.202878 285.443499 
L 217.585256 268.786062 
L 389.380214 259.862172 
L 267.293694 167.819489 
L 170.742491 260.603663 
L 172.26584 286.437289 
" style="fill:none;stroke:#ff0000;stroke-linecap:square;stroke-width:0.5;"/>
   </g>
   <g id="patch_3">
    <path d="M 57.6 307.584 
L 57.6 41.472 
" style="fill:none;stroke:#000000;stroke-linecap:square;stroke-linejoin:miter;stroke-width:0.8;"/>
   </g>
   <g id="patch_4">
    <path d="M 414.72 307.584 
L 414.72 41.472 
" style="fill:none;stroke:#000000;stroke-linecap:square;stroke-linejoin:miter;stroke-width:0.8;"/>
   </g>
   <g id="patch_5">
    <path d="M 57.6 307.584 
L 414.72 307.584 
" style="fill:none;stroke:#000000;stroke-linecap:square;stroke-linejoin:miter;stroke-width:0.8;"/>
   </g>
   <g id="patch_6">
    <path d="M 57.6 41.472 
L 414.72 41.472 
" style="fill:none;stroke:#000000;stroke-linecap:square;stroke-linejoin:miter;stroke-width:0.8;"/>
   </g>
   <g id="PathCollection_1">
    <defs>
     <path d="M 0 2.738613 
C 0.726289 2.738613 1.422928 2.450055 1.936492 1.936492 
C 2.450055 1.422928 2.738613 0.726289 2.738613 0 
C 2.738613 -0.726289 2.450055 -1.422928 1.936492 -1.936492 
C 1.422928 -2.450055 0.726289 -2.738613 0 -2.738613 
C -0.726289 -2.738613 -1.422928 -2.450055 -1.936492 -1.936492 
C -2.450055 -1.422928 -2.738613 -0.726289 -2.738613 0 
C -2.738613 0.726289 -2.450055 1.422928 -1.936492 1.936492 
C -1.422928 2.450055 -0.726289 2.738613 0 2.738613 
z
" id="mdaaa8bb6a1" style="stroke:#ff0000;"/>
    </defs>
    <g clip-path="url(#p2d632bbd5a)">
     <use style="fill:#ff0000;stroke:#ff0000;" x="76.827185" xlink:href="#mdaaa8bb6a1" y="57.760549"/>
     <use style="fill:#ff0000;stroke:#ff0000;" x="265.67527" xlink:href="#mdaaa8bb6a1" y="278.021608"/>
     <use style="fill:#ff0000;stroke:#ff0000;" x="257.202878" xlink:href="#mdaaa8bb6a1" y="285.443499"/>
     <use style="fill:#ff0000;stroke:#ff0000;" x="217.585256" xlink:href="#mdaaa8bb6a1" y="268.786062"/>
     <use style="fill:#ff0000;stroke:#ff0000;" x="389.380214" xlink:href="#mdaaa8bb6a1" y="259.862172"/>
     <use style="fill:#ff0000;stroke:#ff0000;" x="267.293694" xlink:href="#mdaaa8bb6a1" y="167.819489"/>
     <use style="fill:#ff0000;stroke:#ff0000;" x="170.742491" xlink:href="#mdaaa8bb6a1" y="260.603663"/>
     <use style="fill:#ff0000;stroke:#ff0000;" x="172.26584" xlink:href="#mdaaa8bb6a1" y="286.437289"/>
    </g>
   </g>
   <g id="text_12">
    <!-- (18) Subject: s17, Known = False, Degree = 1, Duration = 0.1 -->
    <defs>
     <path d="M 31 75.875 
Q 24.46875 64.65625 21.28125 53.65625 
Q 18.109375 42.671875 18.109375 31.390625 
Q 18.109375 20.125 21.3125 9.0625 
Q 24.515625 -2 31 -13.1875 
L 23.1875 -13.1875 
Q 15.875 -1.703125 12.234375 9.375 
Q 8.59375 20.453125 8.59375 31.390625 
Q 8.59375 42.28125 12.203125 53.3125 
Q 15.828125 64.359375 23.1875 75.875 
z
" id="DejaVuSans-40"/>
     <path d="M 12.40625 8.296875 
L 28.515625 8.296875 
L 28.515625 63.921875 
L 10.984375 60.40625 
L 10.984375 69.390625 
L 28.421875 72.90625 
L 38.28125 72.90625 
L 38.28125 8.296875 
L 54.390625 8.296875 
L 54.390625 0 
L 12.40625 0 
z
" id="DejaVuSans-49"/>
     <path d="M 31.78125 34.625 
Q 24.75 34.625 20.71875 30.859375 
Q 16.703125 27.09375 16.703125 20.515625 
Q 16.703125 13.921875 20.71875 10.15625 
Q 24.75 6.390625 31.78125 6.390625 
Q 38.8125 6.390625 42.859375 10.171875 
Q 46.921875 13.96875 46.921875 20.515625 
Q 46.921875 27.09375 42.890625 30.859375 
Q 38.875 34.625 31.78125 34.625 
z
M 21.921875 38.8125 
Q 15.578125 40.375 12.03125 44.71875 
Q 8.5 49.078125 8.5 55.328125 
Q 8.5 64.0625 14.71875 69.140625 
Q 20.953125 74.21875 31.78125 74.21875 
Q 42.671875 74.21875 48.875 69.140625 
Q 55.078125 64.0625 55.078125 55.328125 
Q 55.078125 49.078125 51.53125 44.71875 
Q 48 40.375 41.703125 38.8125 
Q 48.828125 37.15625 52.796875 32.3125 
Q 56.78125 27.484375 56.78125 20.515625 
Q 56.78125 9.90625 50.3125 4.234375 
Q 43.84375 -1.421875 31.78125 -1.421875 
Q 19.734375 -1.421875 13.25 4.234375 
Q 6.78125 9.90625 6.78125 20.515625 
Q 6.78125 27.484375 10.78125 32.3125 
Q 14.796875 37.15625 21.921875 38.8125 
z
M 18.3125 54.390625 
Q 18.3125 48.734375 21.84375 45.5625 
Q 25.390625 42.390625 31.78125 42.390625 
Q 38.140625 42.390625 41.71875 45.5625 
Q 45.3125 48.734375 45.3125 54.390625 
Q 45.3125 60.0625 41.71875 63.234375 
Q 38.140625 66.40625 31.78125 66.40625 
Q 25.390625 66.40625 21.84375 63.234375 
Q 18.3125 60.0625 18.3125 54.390625 
z
" id="DejaVuSans-56"/>
     <path d="M 8.015625 75.875 
L 15.828125 75.875 
Q 23.140625 64.359375 26.78125 53.3125 
Q 30.421875 42.28125 30.421875 31.390625 
Q 30.421875 20.453125 26.78125 9.375 
Q 23.140625 -1.703125 15.828125 -13.1875 
L 8.015625 -13.1875 
Q 14.5 -2 17.703125 9.0625 
Q 20.90625 20.125 20.90625 31.390625 
Q 20.90625 42.671875 17.703125 53.65625 
Q 14.5 64.65625 8.015625 75.875 
z
" id="DejaVuSans-41"/>
     <path id="DejaVuSans-32"/>
     <path d="M 53.515625 70.515625 
L 53.515625 60.890625 
Q 47.90625 63.578125 42.921875 64.890625 
Q 37.9375 66.21875 33.296875 66.21875 
Q 25.25 66.21875 20.875 63.09375 
Q 16.5 59.96875 16.5 54.203125 
Q 16.5 49.359375 19.40625 46.890625 
Q 22.3125 44.4375 30.421875 42.921875 
L 36.375 41.703125 
Q 47.40625 39.59375 52.65625 34.296875 
Q 57.90625 29 57.90625 20.125 
Q 57.90625 9.515625 50.796875 4.046875 
Q 43.703125 -1.421875 29.984375 -1.421875 
Q 24.8125 -1.421875 18.96875 -0.25 
Q 13.140625 0.921875 6.890625 3.21875 
L 6.890625 13.375 
Q 12.890625 10.015625 18.65625 8.296875 
Q 24.421875 6.59375 29.984375 6.59375 
Q 38.421875 6.59375 43.015625 9.90625 
Q 47.609375 13.234375 47.609375 19.390625 
Q 47.609375 24.75 44.3125 27.78125 
Q 41.015625 30.8125 33.5 32.328125 
L 27.484375 33.5 
Q 16.453125 35.6875 11.515625 40.375 
Q 6.59375 45.0625 6.59375 53.421875 
Q 6.59375 63.09375 13.40625 68.65625 
Q 20.21875 74.21875 32.171875 74.21875 
Q 37.3125 74.21875 42.625 73.28125 
Q 47.953125 72.359375 53.515625 70.515625 
z
" id="DejaVuSans-83"/>
     <path d="M 8.5 21.578125 
L 8.5 54.6875 
L 17.484375 54.6875 
L 17.484375 21.921875 
Q 17.484375 14.15625 20.5 10.265625 
Q 23.53125 6.390625 29.59375 6.390625 
Q 36.859375 6.390625 41.078125 11.03125 
Q 45.3125 15.671875 45.3125 23.6875 
L 45.3125 54.6875 
L 54.296875 54.6875 
L 54.296875 0 
L 45.3125 0 
L 45.3125 8.40625 
Q 42.046875 3.421875 37.71875 1 
Q 33.40625 -1.421875 27.6875 -1.421875 
Q 18.265625 -1.421875 13.375 4.4375 
Q 8.5 10.296875 8.5 21.578125 
z
M 31.109375 56 
z
" id="DejaVuSans-117"/>
     <path d="M 48.6875 27.296875 
Q 48.6875 37.203125 44.609375 42.84375 
Q 40.53125 48.484375 33.40625 48.484375 
Q 26.265625 48.484375 22.1875 42.84375 
Q 18.109375 37.203125 18.109375 27.296875 
Q 18.109375 17.390625 22.1875 11.75 
Q 26.265625 6.109375 33.40625 6.109375 
Q 40.53125 6.109375 44.609375 11.75 
Q 48.6875 17.390625 48.6875 27.296875 
z
M 18.109375 46.390625 
Q 20.953125 51.265625 25.265625 53.625 
Q 29.59375 56 35.59375 56 
Q 45.5625 56 51.78125 48.09375 
Q 58.015625 40.1875 58.015625 27.296875 
Q 58.015625 14.40625 51.78125 6.484375 
Q 45.5625 -1.421875 35.59375 -1.421875 
Q 29.59375 -1.421875 25.265625 0.953125 
Q 20.953125 3.328125 18.109375 8.203125 
L 18.109375 0 
L 9.078125 0 
L 9.078125 75.984375 
L 18.109375 75.984375 
z
" id="DejaVuSans-98"/>
     <path d="M 9.421875 54.6875 
L 18.40625 54.6875 
L 18.40625 -0.984375 
Q 18.40625 -11.421875 14.421875 -16.109375 
Q 10.453125 -20.796875 1.609375 -20.796875 
L -1.8125 -20.796875 
L -1.8125 -13.1875 
L 0.59375 -13.1875 
Q 5.71875 -13.1875 7.5625 -10.8125 
Q 9.421875 -8.453125 9.421875 -0.984375 
z
M 9.421875 75.984375 
L 18.40625 75.984375 
L 18.40625 64.59375 
L 9.421875 64.59375 
z
" id="DejaVuSans-106"/>
     <path d="M 56.203125 29.59375 
L 56.203125 25.203125 
L 14.890625 25.203125 
Q 15.484375 15.921875 20.484375 11.0625 
Q 25.484375 6.203125 34.421875 6.203125 
Q 39.59375 6.203125 44.453125 7.46875 
Q 49.3125 8.734375 54.109375 11.28125 
L 54.109375 2.78125 
Q 49.265625 0.734375 44.1875 -0.34375 
Q 39.109375 -1.421875 33.890625 -1.421875 
Q 20.796875 -1.421875 13.15625 6.1875 
Q 5.515625 13.8125 5.515625 26.8125 
Q 5.515625 40.234375 12.765625 48.109375 
Q 20.015625 56 32.328125 56 
Q 43.359375 56 49.78125 48.890625 
Q 56.203125 41.796875 56.203125 29.59375 
z
M 47.21875 32.234375 
Q 47.125 39.59375 43.09375 43.984375 
Q 39.0625 48.390625 32.421875 48.390625 
Q 24.90625 48.390625 20.390625 44.140625 
Q 15.875 39.890625 15.1875 32.171875 
z
" id="DejaVuSans-101"/>
     <path d="M 48.78125 52.59375 
L 48.78125 44.1875 
Q 44.96875 46.296875 41.140625 47.34375 
Q 37.3125 48.390625 33.40625 48.390625 
Q 24.65625 48.390625 19.8125 42.84375 
Q 14.984375 37.3125 14.984375 27.296875 
Q 14.984375 17.28125 19.8125 11.734375 
Q 24.65625 6.203125 33.40625 6.203125 
Q 37.3125 6.203125 41.140625 7.25 
Q 44.96875 8.296875 48.78125 10.40625 
L 48.78125 2.09375 
Q 45.015625 0.34375 40.984375 -0.53125 
Q 36.96875 -1.421875 32.421875 -1.421875 
Q 20.0625 -1.421875 12.78125 6.34375 
Q 5.515625 14.109375 5.515625 27.296875 
Q 5.515625 40.671875 12.859375 48.328125 
Q 20.21875 56 33.015625 56 
Q 37.15625 56 41.109375 55.140625 
Q 45.0625 54.296875 48.78125 52.59375 
z
" id="DejaVuSans-99"/>
     <path d="M 18.3125 70.21875 
L 18.3125 54.6875 
L 36.8125 54.6875 
L 36.8125 47.703125 
L 18.3125 47.703125 
L 18.3125 18.015625 
Q 18.3125 11.328125 20.140625 9.421875 
Q 21.96875 7.515625 27.59375 7.515625 
L 36.8125 7.515625 
L 36.8125 0 
L 27.59375 0 
Q 17.1875 0 13.234375 3.875 
Q 9.28125 7.765625 9.28125 18.015625 
L 9.28125 47.703125 
L 2.6875 47.703125 
L 2.6875 54.6875 
L 9.28125 54.6875 
L 9.28125 70.21875 
z
" id="DejaVuSans-116"/>
     <path d="M 11.71875 12.40625 
L 22.015625 12.40625 
L 22.015625 0 
L 11.71875 0 
z
M 11.71875 51.703125 
L 22.015625 51.703125 
L 22.015625 39.3125 
L 11.71875 39.3125 
z
" id="DejaVuSans-58"/>
     <path d="M 44.28125 53.078125 
L 44.28125 44.578125 
Q 40.484375 46.53125 36.375 47.5 
Q 32.28125 48.484375 27.875 48.484375 
Q 21.1875 48.484375 17.84375 46.4375 
Q 14.5 44.390625 14.5 40.28125 
Q 14.5 37.15625 16.890625 35.375 
Q 19.28125 33.59375 26.515625 31.984375 
L 29.59375 31.296875 
Q 39.15625 29.25 43.1875 25.515625 
Q 47.21875 21.78125 47.21875 15.09375 
Q 47.21875 7.46875 41.1875 3.015625 
Q 35.15625 -1.421875 24.609375 -1.421875 
Q 20.21875 -1.421875 15.453125 -0.5625 
Q 10.6875 0.296875 5.421875 2 
L 5.421875 11.28125 
Q 10.40625 8.6875 15.234375 7.390625 
Q 20.0625 6.109375 24.8125 6.109375 
Q 31.15625 6.109375 34.5625 8.28125 
Q 37.984375 10.453125 37.984375 14.40625 
Q 37.984375 18.0625 35.515625 20.015625 
Q 33.0625 21.96875 24.703125 23.78125 
L 21.578125 24.515625 
Q 13.234375 26.265625 9.515625 29.90625 
Q 5.8125 33.546875 5.8125 39.890625 
Q 5.8125 47.609375 11.28125 51.796875 
Q 16.75 56 26.8125 56 
Q 31.78125 56 36.171875 55.265625 
Q 40.578125 54.546875 44.28125 53.078125 
z
" id="DejaVuSans-115"/>
     <path d="M 8.203125 72.90625 
L 55.078125 72.90625 
L 55.078125 68.703125 
L 28.609375 0 
L 18.3125 0 
L 43.21875 64.59375 
L 8.203125 64.59375 
z
" id="DejaVuSans-55"/>
     <path d="M 11.71875 12.40625 
L 22.015625 12.40625 
L 22.015625 4 
L 14.015625 -11.625 
L 7.71875 -11.625 
L 11.71875 4 
z
" id="DejaVuSans-44"/>
     <path d="M 9.8125 72.90625 
L 19.671875 72.90625 
L 19.671875 42.09375 
L 52.390625 72.90625 
L 65.09375 72.90625 
L 28.90625 38.921875 
L 67.671875 0 
L 54.6875 0 
L 19.671875 35.109375 
L 19.671875 0 
L 9.8125 0 
z
" id="DejaVuSans-75"/>
     <path d="M 54.890625 33.015625 
L 54.890625 0 
L 45.90625 0 
L 45.90625 32.71875 
Q 45.90625 40.484375 42.875 44.328125 
Q 39.84375 48.1875 33.796875 48.1875 
Q 26.515625 48.1875 22.3125 43.546875 
Q 18.109375 38.921875 18.109375 30.90625 
L 18.109375 0 
L 9.078125 0 
L 9.078125 54.6875 
L 18.109375 54.6875 
L 18.109375 46.1875 
Q 21.34375 51.125 25.703125 53.5625 
Q 30.078125 56 35.796875 56 
Q 45.21875 56 50.046875 50.171875 
Q 54.890625 44.34375 54.890625 33.015625 
z
" id="DejaVuSans-110"/>
     <path d="M 30.609375 48.390625 
Q 23.390625 48.390625 19.1875 42.75 
Q 14.984375 37.109375 14.984375 27.296875 
Q 14.984375 17.484375 19.15625 11.84375 
Q 23.34375 6.203125 30.609375 6.203125 
Q 37.796875 6.203125 41.984375 11.859375 
Q 46.1875 17.53125 46.1875 27.296875 
Q 46.1875 37.015625 41.984375 42.703125 
Q 37.796875 48.390625 30.609375 48.390625 
z
M 30.609375 56 
Q 42.328125 56 49.015625 48.375 
Q 55.71875 40.765625 55.71875 27.296875 
Q 55.71875 13.875 49.015625 6.21875 
Q 42.328125 -1.421875 30.609375 -1.421875 
Q 18.84375 -1.421875 12.171875 6.21875 
Q 5.515625 13.875 5.515625 27.296875 
Q 5.515625 40.765625 12.171875 48.375 
Q 18.84375 56 30.609375 56 
z
" id="DejaVuSans-111"/>
     <path d="M 4.203125 54.6875 
L 13.1875 54.6875 
L 24.421875 12.015625 
L 35.59375 54.6875 
L 46.1875 54.6875 
L 57.421875 12.015625 
L 68.609375 54.6875 
L 77.59375 54.6875 
L 63.28125 0 
L 52.6875 0 
L 40.921875 44.828125 
L 29.109375 0 
L 18.5 0 
z
" id="DejaVuSans-119"/>
     <path d="M 10.59375 45.40625 
L 73.1875 45.40625 
L 73.1875 37.203125 
L 10.59375 37.203125 
z
M 10.59375 25.484375 
L 73.1875 25.484375 
L 73.1875 17.1875 
L 10.59375 17.1875 
z
" id="DejaVuSans-61"/>
     <path d="M 9.8125 72.90625 
L 51.703125 72.90625 
L 51.703125 64.59375 
L 19.671875 64.59375 
L 19.671875 43.109375 
L 48.578125 43.109375 
L 48.578125 34.8125 
L 19.671875 34.8125 
L 19.671875 0 
L 9.8125 0 
z
" id="DejaVuSans-70"/>
     <path d="M 34.28125 27.484375 
Q 23.390625 27.484375 19.1875 25 
Q 14.984375 22.515625 14.984375 16.5 
Q 14.984375 11.71875 18.140625 8.90625 
Q 21.296875 6.109375 26.703125 6.109375 
Q 34.1875 6.109375 38.703125 11.40625 
Q 43.21875 16.703125 43.21875 25.484375 
L 43.21875 27.484375 
z
M 52.203125 31.203125 
L 52.203125 0 
L 43.21875 0 
L 43.21875 8.296875 
Q 40.140625 3.328125 35.546875 0.953125 
Q 30.953125 -1.421875 24.3125 -1.421875 
Q 15.921875 -1.421875 10.953125 3.296875 
Q 6 8.015625 6 15.921875 
Q 6 25.140625 12.171875 29.828125 
Q 18.359375 34.515625 30.609375 34.515625 
L 43.21875 34.515625 
L 43.21875 35.40625 
Q 43.21875 41.609375 39.140625 45 
Q 35.0625 48.390625 27.6875 48.390625 
Q 23 48.390625 18.546875 47.265625 
Q 14.109375 46.140625 10.015625 43.890625 
L 10.015625 52.203125 
Q 14.9375 54.109375 19.578125 55.046875 
Q 24.21875 56 28.609375 56 
Q 40.484375 56 46.34375 49.84375 
Q 52.203125 43.703125 52.203125 31.203125 
z
" id="DejaVuSans-97"/>
     <path d="M 9.421875 75.984375 
L 18.40625 75.984375 
L 18.40625 0 
L 9.421875 0 
z
" id="DejaVuSans-108"/>
     <path d="M 19.671875 64.796875 
L 19.671875 8.109375 
L 31.59375 8.109375 
Q 46.6875 8.109375 53.6875 14.9375 
Q 60.6875 21.78125 60.6875 36.53125 
Q 60.6875 51.171875 53.6875 57.984375 
Q 46.6875 64.796875 31.59375 64.796875 
z
M 9.8125 72.90625 
L 30.078125 72.90625 
Q 51.265625 72.90625 61.171875 64.09375 
Q 71.09375 55.28125 71.09375 36.53125 
Q 71.09375 17.671875 61.125 8.828125 
Q 51.171875 0 30.078125 0 
L 9.8125 0 
z
" id="DejaVuSans-68"/>
     <path d="M 45.40625 27.984375 
Q 45.40625 37.75 41.375 43.109375 
Q 37.359375 48.484375 30.078125 48.484375 
Q 22.859375 48.484375 18.828125 43.109375 
Q 14.796875 37.75 14.796875 27.984375 
Q 14.796875 18.265625 18.828125 12.890625 
Q 22.859375 7.515625 30.078125 7.515625 
Q 37.359375 7.515625 41.375 12.890625 
Q 45.40625 18.265625 45.40625 27.984375 
z
M 54.390625 6.78125 
Q 54.390625 -7.171875 48.1875 -13.984375 
Q 42 -20.796875 29.203125 -20.796875 
Q 24.46875 -20.796875 20.265625 -20.09375 
Q 16.0625 -19.390625 12.109375 -17.921875 
L 12.109375 -9.1875 
Q 16.0625 -11.328125 19.921875 -12.34375 
Q 23.78125 -13.375 27.78125 -13.375 
Q 36.625 -13.375 41.015625 -8.765625 
Q 45.40625 -4.15625 45.40625 5.171875 
L 45.40625 9.625 
Q 42.625 4.78125 38.28125 2.390625 
Q 33.9375 0 27.875 0 
Q 17.828125 0 11.671875 7.65625 
Q 5.515625 15.328125 5.515625 27.984375 
Q 5.515625 40.671875 11.671875 48.328125 
Q 17.828125 56 27.875 56 
Q 33.9375 56 38.28125 53.609375 
Q 42.625 51.21875 45.40625 46.390625 
L 45.40625 54.6875 
L 54.390625 54.6875 
z
" id="DejaVuSans-103"/>
     <path d="M 41.109375 46.296875 
Q 39.59375 47.171875 37.8125 47.578125 
Q 36.03125 48 33.890625 48 
Q 26.265625 48 22.1875 43.046875 
Q 18.109375 38.09375 18.109375 28.8125 
L 18.109375 0 
L 9.078125 0 
L 9.078125 54.6875 
L 18.109375 54.6875 
L 18.109375 46.1875 
Q 20.953125 51.171875 25.484375 53.578125 
Q 30.03125 56 36.53125 56 
Q 37.453125 56 38.578125 55.875 
Q 39.703125 55.765625 41.0625 55.515625 
z
" id="DejaVuSans-114"/>
     <path d="M 9.421875 54.6875 
L 18.40625 54.6875 
L 18.40625 0 
L 9.421875 0 
z
M 9.421875 75.984375 
L 18.40625 75.984375 
L 18.40625 64.59375 
L 9.421875 64.59375 
z
" id="DejaVuSans-105"/>
     <path d="M 10.6875 12.40625 
L 21 12.40625 
L 21 0 
L 10.6875 0 
z
" id="DejaVuSans-46"/>
    </defs>
    <g transform="translate(49.741875 35.472)scale(0.12 -0.12)">
     <use xlink:href="#DejaVuSans-40"/>
     <use x="39.013672" xlink:href="#DejaVuSans-49"/>
     <use x="102.636719" xlink:href="#DejaVuSans-56"/>
     <use x="166.259766" xlink:href="#DejaVuSans-41"/>
     <use x="205.273438" xlink:href="#DejaVuSans-32"/>
     <use x="237.060547" xlink:href="#DejaVuSans-83"/>
     <use x="300.537109" xlink:href="#DejaVuSans-117"/>
     <use x="363.916016" xlink:href="#DejaVuSans-98"/>
     <use x="427.392578" xlink:href="#DejaVuSans-106"/>
     <use x="455.175781" xlink:href="#DejaVuSans-101"/>
     <use x="516.699219" xlink:href="#DejaVuSans-99"/>
     <use x="571.679688" xlink:href="#DejaVuSans-116"/>
     <use x="610.888672" xlink:href="#DejaVuSans-58"/>
     <use x="644.580078" xlink:href="#DejaVuSans-32"/>
     <use x="676.367188" xlink:href="#DejaVuSans-115"/>
     <use x="728.466797" xlink:href="#DejaVuSans-49"/>
     <use x="792.089844" xlink:href="#DejaVuSans-55"/>
     <use x="855.712891" xlink:href="#DejaVuSans-44"/>
     <use x="887.5" xlink:href="#DejaVuSans-32"/>
     <use x="919.287109" xlink:href="#DejaVuSans-75"/>
     <use x="984.863281" xlink:href="#DejaVuSans-110"/>
     <use x="1048.242188" xlink:href="#DejaVuSans-111"/>
     <use x="1109.423828" xlink:href="#DejaVuSans-119"/>
     <use x="1191.210938" xlink:href="#DejaVuSans-110"/>
     <use x="1254.589844" xlink:href="#DejaVuSans-32"/>
     <use x="1286.376953" xlink:href="#DejaVuSans-61"/>
     <use x="1370.166016" xlink:href="#DejaVuSans-32"/>
     <use x="1401.953125" xlink:href="#DejaVuSans-70"/>
     <use x="1459.332031" xlink:href="#DejaVuSans-97"/>
     <use x="1520.611328" xlink:href="#DejaVuSans-108"/>
     <use x="1548.394531" xlink:href="#DejaVuSans-115"/>
     <use x="1600.494141" xlink:href="#DejaVuSans-101"/>
     <use x="1662.017578" xlink:href="#DejaVuSans-44"/>
     <use x="1693.804688" xlink:href="#DejaVuSans-32"/>
     <use x="1725.591797" xlink:href="#DejaVuSans-68"/>
     <use x="1802.59375" xlink:href="#DejaVuSans-101"/>
     <use x="1864.117188" xlink:href="#DejaVuSans-103"/>
     <use x="1927.59375" xlink:href="#DejaVuSans-114"/>
     <use x="1968.675781" xlink:href="#DejaVuSans-101"/>
     <use x="2030.199219" xlink:href="#DejaVuSans-101"/>
     <use x="2091.722656" xlink:href="#DejaVuSans-32"/>
     <use x="2123.509766" xlink:href="#DejaVuSans-61"/>
     <use x="2207.298828" xlink:href="#DejaVuSans-32"/>
     <use x="2239.085938" xlink:href="#DejaVuSans-49"/>
     <use x="2302.708984" xlink:href="#DejaVuSans-44"/>
     <use x="2334.496094" xlink:href="#DejaVuSans-32"/>
     <use x="2366.283203" xlink:href="#DejaVuSans-68"/>
     <use x="2443.285156" xlink:href="#DejaVuSans-117"/>
     <use x="2506.664062" xlink:href="#DejaVuSans-114"/>
     <use x="2547.777344" xlink:href="#DejaVuSans-97"/>
     <use x="2609.056641" xlink:href="#DejaVuSans-116"/>
     <use x="2648.265625" xlink:href="#DejaVuSans-105"/>
     <use x="2676.048828" xlink:href="#DejaVuSans-111"/>
     <use x="2737.230469" xlink:href="#DejaVuSans-110"/>
     <use x="2800.609375" xlink:href="#DejaVuSans-32"/>
     <use x="2832.396484" xlink:href="#DejaVuSans-61"/>
     <use x="2916.185547" xlink:href="#DejaVuSans-32"/>
     <use x="2947.972656" xlink:href="#DejaVuSans-48"/>
     <use x="3011.595703" xlink:href="#DejaVuSans-46"/>
     <use x="3043.382812" xlink:href="#DejaVuSans-49"/>
    </g>
   </g>
  </g>
 </g>
 <defs>
  <clipPath id="p2d632bbd5a">
   <rect height="266.112" width="357.12" x="57.6" y="41.472"/>
  </clipPath>
 </defs>
</svg>
