<?xml version="1.0" encoding="utf-8" standalone="no"?>
<!DOCTYPE svg PUBLIC "-//W3C//DTD SVG 1.1//EN"
  "http://www.w3.org/Graphics/SVG/1.1/DTD/svg11.dtd">
<!-- Created with matplotlib (https://matplotlib.org/) -->
<svg height="345.6pt" version="1.1" viewBox="0 0 460.8 345.6" width="460.8pt" xmlns="http://www.w3.org/2000/svg" xmlns:xlink="http://www.w3.org/1999/xlink">
 <defs>
  <style type="text/css">
*{stroke-linecap:butt;stroke-linejoin:round;}
  </style>
 </defs>
 <g id="figure_1">
  <g id="patch_1">
   <path d="M 0 345.6 
L 460.8 345.6 
L 460.8 0 
L 0 0 
z
" style="fill:#ffffff;"/>
  </g>
  <g id="axes_1">
   <g id="patch_2">
    <path d="M 57.6 307.584 
L 414.72 307.584 
L 414.72 41.472 
L 57.6 41.472 
z
" style="fill:#ffffff;"/>
   </g>
   <g id="line2d_1">
    <path clip-path="url(#p909d09999c)" d="M 395.971236 293.046537 
L 395.846474 293.046537 
L 395.846474 293.29244 
L 395.721711 293.533951 
L 395.59435 293.533951 
L 395.59435 293.29244 
L 395.59435 293.29244 
L 395.342226 292.800634 
L 395.092702 292.800634 
L 395.217464 292.559123 
L 395.469588 292.31322 
L 395.846474 292.31322 
L 396.098597 292.800634 
L 396.098597 293.29244 
L 395.846474 293.533951 
L 395.846474 293.779854 
L 395.971236 293.779854 
L 396.098597 294.021366 
L 396.348121 294.021366 
L 396.223359 294.267269 
L 395.971236 294.513171 
L 395.971236 294.267269 
L 396.475483 293.29244 
L 396.098597 293.046537 
L 395.59435 293.046537 
L 395.469588 293.29244 
L 395.846474 293.533951 
L 395.971236 293.533951 
L 395.846474 294.021366 
L 395.721711 294.021366 
L 395.721711 293.533951 
L 395.971236 292.800634 
L 395.59435 292.559123 
L 395.59435 293.046537 
L 395.846474 293.779854 
L 395.971236 294.021366 
L 396.098597 294.021366 
L 396.098597 294.267269 
L 395.971236 294.513171 
L 396.098597 294.754683 
L 396.098597 294.754683 
L 395.846474 295.000586 
L 395.846474 295.000586 
L 395.342226 295.000586 
L 395.342226 295.000586 
L 395.342226 294.267269 
L 395.59435 294.267269 
L 396.098597 295.246488 
L 395.971236 295.488 
L 395.342226 294.754683 
L 395.342226 295.488 
L 395.469588 295.488 
L 395.846474 293.779854 
L 395.59435 294.021366 
L 395.469588 294.754683 
L 395.59435 294.513171 
L 395.59435 295.000586 
L 395.342226 295.000586 
L 395.217464 294.754683 
L 395.342226 294.267269 
L 395.59435 294.513171 
L 395.59435 294.754683 
L 395.217464 294.513171 
L 395.217464 294.267269 
L 395.469588 294.267269 
L 395.846474 294.021366 
L 396.098597 293.29244 
L 396.098597 293.533951 
L 395.971236 293.533951 
L 395.59435 293.29244 
L 395.59435 293.29244 
L 395.59435 294.021366 
L 395.846474 294.021366 
L 395.846474 293.779854 
L 395.846474 294.021366 
L 396.223359 294.267269 
L 396.348121 293.779854 
L 396.348121 293.046537 
L 396.098597 292.800634 
L 396.223359 293.29244 
L 396.475483 293.533951 
L 396.600245 293.29244 
L 396.600245 292.800634 
L 396.348121 292.559123 
L 396.223359 292.800634 
L 396.348121 293.046537 
L 396.475483 292.559123 
L 396.727606 290.846586 
L 396.852369 291.579903 
L 396.727606 290.600683 
L 396.852369 290.359171 
L 396.852369 288.646634 
L 397.104492 288.15922 
L 397.733501 288.892537 
L 397.985625 288.646634 
L 398.110387 287.913317 
L 397.858263 287.425903 
L 397.60614 287.425903 
L 397.481378 287.671806 
L 397.356616 287.425903 
L 397.481378 286.692586 
L 397.481378 285.959269 
L 397.60614 285.713366 
L 397.985625 285.713366 
L 398.235149 285.471854 
L 397.733501 284.492634 
L 397.481378 283.271903 
L 397.356616 283.517806 
L 397.356616 283.271903 
L 397.733501 283.026 
L 397.985625 283.517806 
L 398.110387 284.00522 
L 398.110387 282.538586 
L 398.110387 282.538586 
L 397.985625 282.784488 
L 397.858263 282.292683 
L 397.858263 281.317854 
L 397.733501 280.338634 
L 397.733501 279.359415 
L 397.60614 278.872 
L 398.487273 279.85122 
L 398.487273 279.85122 
L 397.858263 277.163854 
L 398.110387 276.917952 
L 398.362511 277.405366 
L 398.110387 277.651269 
L 398.110387 277.405366 
L 398.235149 276.917952 
L 398.487273 276.672049 
L 398.487273 276.184634 
L 398.362511 275.451317 
L 398.235149 275.451317 
L 398.235149 275.938732 
L 398.110387 275.938732 
L 398.110387 275.451317 
L 398.362511 275.205415 
L 398.487273 274.472097 
L 398.110387 274.230586 
L 397.985625 273.984683 
L 397.858263 273.984683 
L 397.733501 273.743171 
L 397.733501 273.497269 
L 397.985625 273.497269 
L 397.985625 273.497269 
L 397.985625 273.251366 
L 398.110387 273.009854 
L 397.985625 273.251366 
L 397.858263 273.743171 
L 398.110387 273.009854 
L 397.985625 272.763952 
L 397.858263 272.763952 
L 398.110387 273.497269 
L 397.985625 273.497269 
L 397.481378 272.763952 
L 396.852369 272.030634 
L 395.971236 271.784732 
L 393.58256 271.784732 
L 391.695532 272.030634 
L 389.431619 271.784732 
L 383.39365 270.076586 
L 374.714882 266.897415 
L 369.934931 264.943366 
L 365.02762 262.501903 
L 348.928102 253.460586 
L 338.739192 248.573269 
L 333.834479 245.64 
L 328.927167 242.219318 
L 324.274578 238.065318 
L 319.367267 233.178001 
L 314.462554 228.044781 
L 309.43048 223.890781 
L 304.525767 220.224195 
L 299.997941 216.070195 
L 291.82082 206.295561 
L 282.889929 195.78761 
L 278.23474 190.900293 
L 270.060219 182.838195 
L 262.888994 174.03839 
L 258.990177 170.371804 
L 255.091359 166.951122 
L 251.442066 163.530439 
L 244.775087 156.689073 
L 242.134288 153.755805 
L 237.102214 149.11439 
L 233.45552 145.206293 
L 232.701749 144.227073 
L 232.449625 143.493756 
L 232.574387 143.006342 
L 232.574387 142.273025 
L 232.951273 141.539707 
L 233.580282 141.293805 
L 234.336653 141.293805 
L 236.096319 141.781219 
L 236.85269 141.539707 
L 237.481699 141.539707 
L 238.360233 142.273025 
L 239.241366 143.493756 
L 239.618251 144.472976 
L 239.493489 145.206293 
L 239.241366 145.935219 
L 239.368727 146.181122 
L 239.368727 146.914439 
L 238.989242 148.626976 
L 239.116603 148.626976 
L 239.241366 148.626976 
L 239.116603 148.868488 
L 238.612356 148.868488 
L 238.360233 148.626976 
L 238.360233 148.626976 
L 238.739718 148.626976 
L 238.989242 148.868488 
L 238.989242 149.360293 
L 238.739718 151.068439 
L 238.612356 151.314342 
L 239.116603 150.581025 
L 238.989242 150.822536 
L 238.989242 151.068439 
L 239.241366 151.555853 
L 239.241366 152.28917 
L 238.739718 153.022488 
L 238.739718 153.022488 
L 238.86448 152.047659 
L 239.116603 151.555853 
L 239.241366 151.801756 
L 239.493489 153.26839 
L 239.368727 153.022488 
L 239.241366 152.28917 
L 238.989242 152.28917 
L 238.989242 153.755805 
L 238.86448 154.489122 
L 239.116603 155.468342 
L 239.241366 155.468342 
L 238.739718 154.001707 
L 238.739718 154.24761 
L 238.739718 154.489122 
L 238.612356 154.24761 
L 238.739718 153.514293 
L 238.86448 153.514293 
L 238.86448 154.24761 
L 238.612356 154.980927 
L 238.360233 155.222439 
L 237.983347 154.980927 
L 238.110708 155.222439 
L 238.487594 155.468342 
L 238.739718 155.468342 
L 238.739718 155.468342 
L 238.360233 155.709853 
L 238.235471 156.44317 
L 238.487594 156.44317 
L 238.989242 155.955756 
L 239.116603 155.468342 
L 237.983347 155.468342 
L 237.858585 155.222439 
L 238.235471 155.222439 
L 238.612356 155.709853 
L 238.487594 155.955756 
L 237.606461 155.955756 
L 237.731224 156.44317 
L 238.110708 156.44317 
L 238.360233 156.201659 
L 238.612356 154.980927 
L 238.86448 155.222439 
L 239.116603 156.44317 
L 238.989242 156.44317 
L 238.110708 155.468342 
L 238.360233 155.709853 
L 238.739718 155.709853 
L 238.86448 155.468342 
L 238.86448 155.222439 
L 238.739718 155.222439 
L 238.487594 155.709853 
L 238.487594 156.44317 
L 238.487594 156.201659 
L 238.739718 156.201659 
L 238.86448 155.955756 
L 238.739718 155.709853 
L 238.487594 155.955756 
L 238.487594 156.201659 
L 238.612356 155.955756 
L 238.86448 155.955756 
L 239.241366 156.689073 
L 239.241366 156.201659 
L 238.989242 155.222439 
L 238.612356 154.24761 
L 238.487594 154.24761 
L 238.612356 154.980927 
L 238.989242 155.222439 
L 239.368727 154.735024 
L 239.493489 155.222439 
L 239.368727 155.955756 
L 239.618251 154.735024 
L 239.493489 154.980927 
L 239.241366 155.709853 
L 239.241366 155.468342 
L 239.368727 154.980927 
L 239.618251 154.980927 
L 239.618251 154.735024 
L 239.997736 154.24761 
L 239.997736 154.001707 
L 240.122498 153.514293 
L 239.997736 153.755805 
L 239.870375 153.755805 
L 239.870375 153.755805 
L 239.618251 153.26839 
L 240.24726 152.047659 
L 240.24726 151.801756 
L 240.24726 151.801756 
L 240.499384 152.047659 
L 240.751508 151.801756 
L 240.751508 151.801756 
L 240.751508 151.555853 
L 240.374622 151.068439 
L 240.374622 151.068439 
L 240.624146 151.555853 
L 240.624146 152.047659 
L 240.499384 152.780976 
L 240.24726 153.022488 
L 239.870375 153.022488 
L 239.368727 152.535073 
L 238.487594 151.314342 
L 237.229576 150.581025 
L 234.209292 150.09361 
L 229.681465 150.09361 
L 226.286894 149.847707 
L 222.512839 148.868488 
L 218.48666 147.160342 
L 214.083595 144.96039 
L 209.303644 143.247853 
L 204.27417 141.781219 
L 199.114734 140.560488 
L 193.833136 139.585659 
L 188.424176 137.873122 
L 182.890454 135.673171 
L 177.481495 133.231708 
L 172.197297 131.273268 
L 161.506739 126.385951 
L 156.474665 123.698585 
L 151.567354 120.523805 
L 142.386938 114.169854 
L 133.832932 108.795122 
L 129.429867 105.861854 
L 124.774679 102.441171 
L 120.374213 99.753805 
L 116.223272 97.553854 
L 112.321855 95.841317 
L 108.423037 93.641365 
L 104.52422 91.199902 
L 100.877526 89.245854 
L 94.210548 86.312585 
L 87.668331 84.358537 
L 84.900171 83.133414 
L 82.13461 81.425268 
L 76.096641 77.271268 
L 75.090746 77.271268 
L 74.461737 77.51278 
L 73.957489 77.51278 
L 73.832727 77.271268 
L 74.334375 77.51278 
L 75.342869 77.758683 
L 76.977774 77.758683 
L 78.360554 77.271268 
L 79.114326 77.271268 
L 81.128715 77.758683 
L 81.882486 77.51278 
L 82.636258 76.537951 
L 82.763619 76.779463 
L 82.386733 77.51278 
L 81.630363 78.246097 
L 82.13461 79.225317 
L 82.13461 79.712731 
L 81.378239 79.712731 
L 80.876591 79.958634 
L 80.876591 79.712731 
L 81.253477 79.712731 
L 81.5056 79.958634 
L 81.5056 80.446048 
L 82.007248 80.446048 
L 81.630363 79.712731 
L 81.630363 78.979414 
L 81.757724 78.492 
L 82.007248 79.712731 
L 82.007248 80.446048 
L 81.757724 80.691951 
L 81.757724 80.937854 
L 82.511495 81.179366 
L 82.511495 81.425268 
L 82.511495 80.937854 
L 82.636258 79.958634 
L 82.511495 79.225317 
L 82.386733 79.225317 
L 82.386733 79.958634 
L 82.259372 80.446048 
L 82.511495 80.937854 
L 82.636258 81.425268 
L 82.636258 81.912683 
L 82.386733 82.158585 
L 81.882486 82.158585 
L 81.5056 81.66678 
L 81.5056 82.400097 
L 81.630363 82.891902 
L 82.007248 82.646 
L 82.259372 82.646 
L 82.259372 82.891902 
L 82.386733 82.891902 
L 82.636258 83.133414 
L 82.888381 83.133414 
L 82.763619 82.891902 
L 82.511495 82.646 
L 82.888381 83.133414 
L 83.140505 83.62522 
L 82.888381 83.62522 
L 82.13461 83.379317 
L 82.511495 84.358537 
L 82.636258 84.112634 
L 83.140505 84.600048 
L 83.140505 84.358537 
L 82.888381 82.646 
L 83.140505 84.600048 
L 83.015742 84.358537 
L 82.888381 84.358537 
L 83.015742 84.600048 
L 83.140505 85.091854 
L 83.140505 85.579268 
L 83.140505 85.091854 
L 83.51739 84.112634 
L 83.392628 84.112634 
L 83.015742 84.358537 
L 83.015742 84.600048 
L 83.51739 84.600048 
L 83.265267 84.112634 
L 83.392628 83.866731 
L 83.51739 83.379317 
L 83.51739 83.379317 
L 83.644752 83.866731 
L 84.021637 83.379317 
L 83.894276 84.112634 
L 83.894276 85.333365 
L 83.894276 85.091854 
L 83.644752 84.112634 
L 83.644752 83.379317 
L 83.894276 83.62522 
L 84.1464 84.112634 
L 84.271162 84.600048 
L 84.1464 84.600048 
L 84.021637 84.845951 
L 83.769514 85.091854 
L 83.769514 85.091854 
L 84.021637 84.358537 
L 83.769514 84.112634 
L 83.51739 83.62522 
L 83.769514 83.62522 
L 84.021637 83.866731 
L 84.021637 85.091854 
L 84.021637 84.845951 
L 83.894276 84.112634 
L 83.894276 84.358537 
L 83.644752 84.845951 
L 83.894276 84.845951 
L 84.523285 84.600048 
L 84.650647 85.091854 
L 84.523285 84.358537 
L 84.1464 83.866731 
L 84.021637 84.358537 
L 84.271162 85.333365 
L 84.650647 85.825171 
L 84.775409 85.579268 
L 84.775409 84.845951 
L 84.398523 84.845951 
L 84.271162 84.358537 
L 85.027532 84.358537 
L 85.152295 84.600048 
L 85.027532 84.845951 
L 85.027532 84.845951 
L 84.775409 84.358537 
L 83.894276 83.62522 
L 84.1464 84.112634 
L 84.650647 84.600048 
L 85.027532 84.358537 
L 85.027532 83.62522 
L 85.152295 83.62522 
L 85.152295 83.866731 
L 84.900171 83.866731 
L 84.775409 83.62522 
L 84.775409 83.133414 
L 84.650647 83.133414 
L 84.650647 83.379317 
L 85.52918 84.358537 
L 85.52918 84.358537 
L 85.152295 84.358537 
L 85.152295 84.358537 
L 85.404418 83.866731 
L 85.52918 84.112634 
L 86.033427 83.379317 
L 86.410313 83.866731 
L 86.285551 83.379317 
L 85.908665 83.133414 
L 85.656542 83.379317 
L 85.781304 83.62522 
L 86.410313 84.600048 
L 86.158189 84.845951 
L 85.908665 84.600048 
L 85.908665 84.112634 
L 85.908665 84.358537 
L 86.033427 84.845951 
L 86.285551 84.845951 
L 86.537674 84.600048 
L 86.787199 84.845951 
L 86.91456 85.333365 
L 87.039322 85.091854 
L 86.91456 84.112634 
L 86.662437 83.379317 
L 86.537674 83.62522 
L 86.537674 85.333365 
L 86.662437 85.825171 
L 86.662437 85.579268 
L 86.91456 84.600048 
L 86.91456 84.600048 
L 87.166684 85.333365 
L 86.787199 84.845951 
L 86.91456 84.358537 
L 87.668331 85.333365 
L 87.416208 84.845951 
L 87.543569 84.358537 
L 87.416208 83.62522 
L 87.291446 83.62522 
L 87.166684 84.358537 
L 87.166684 84.358537 
L 87.291446 84.600048 
L 87.543569 84.358537 
L 87.543569 83.866731 
L 87.166684 83.62522 
L 87.039322 83.62522 
L 87.291446 83.379317 
L 88.172579 83.379317 
L 88.424702 82.891902 
L 88.424702 82.646 
L 88.424702 83.133414 
L 88.424702 82.646 
L 88.297341 82.158585 
L 88.045217 82.646 
L 88.801588 82.646 
L 89.051112 82.400097 
L 88.674226 81.912683 
L 87.795693 81.425268 
L 87.795693 80.937854 
L 88.172579 80.446048 
L 88.549464 79.712731 
L 88.549464 79.225317 
L 88.674226 78.979414 
L 88.674226 79.225317 
L 88.801588 79.958634 
L 88.801588 79.47122 
L 89.051112 78.979414 
L 89.430597 78.492 
L 89.555359 77.758683 
L 89.555359 77.758683 
L 89.680121 77.758683 
L 89.680121 77.758683 
L 89.932245 77.51278 
L 90.309131 77.51278 
L 90.436492 77.271268 
L 89.932245 74.583903 
L 90.059606 73.850585 
L 90.436492 73.850585 
L 90.93814 74.338 
L 91.065501 74.092097 
L 91.442387 72.383951 
L 91.442387 72.138048 
L 91.190263 71.404731 
L 91.065501 70.671414 
L 91.190263 69.696585 
L 91.442387 69.450683 
L 91.567149 69.938097 
L 91.442387 70.671414 
L 91.694511 70.184 
L 91.946634 69.20478 
L 91.819273 68.471463 
L 91.442387 68.471463 
L 91.065501 68.229951 
L 91.567149 67.250731 
L 91.946634 67.004829 
L 92.196158 67.004829 
L 92.575643 66.275903 
L 92.448282 66.275903 
L 92.32352 66.275903 
L 92.071396 65.542586 
L 92.071396 64.809268 
L 92.448282 64.563366 
L 93.077291 64.809268 
L 93.454177 64.809268 
L 93.329415 64.809268 
L 93.202053 64.317463 
L 92.952529 63.830049 
L 92.825168 63.096731 
L 92.825168 62.117512 
L 92.952529 61.630097 
L 93.202053 61.876 
L 93.329415 62.363414 
L 93.581538 62.609317 
L 93.7063 62.363414 
L 93.831063 62.363414 
L 93.7063 61.876 
L 93.7063 61.388586 
L 93.958424 60.655268 
L 94.083186 59.921951 
L 93.958424 59.430146 
L 93.831063 59.430146 
L 93.831063 59.921951 
L 94.460072 60.409366 
L 94.460072 60.409366 
L 94.33531 60.163463 
L 94.33531 58.942731 
L 93.958424 58.696829 
L 93.831063 58.942731 
L 94.083186 59.676049 
L 94.460072 59.921951 
L 94.839557 59.430146 
L 94.839557 58.696829 
L 94.587433 58.455317 
L 94.460072 58.696829 
L 94.839557 58.696829 
L 94.839557 58.209414 
L 94.964319 57.476097 
L 94.964319 57.230194 
L 95.089081 57.230194 
L 95.341205 57.722 
L 95.216442 58.455317 
L 94.964319 58.696829 
L 94.839557 57.963512 
L 95.341205 56.74278 
L 95.216442 56.988683 
L 95.089081 56.501268 
L 95.468566 56.009463 
L 94.964319 56.501268 
L 94.587433 56.988683 
L 94.587433 56.74278 
L 94.839557 56.255366 
L 94.964319 55.767951 
L 95.216442 55.767951 
L 95.593328 56.255366 
L 95.71809 56.74278 
L 95.593328 56.74278 
L 95.593328 56.255366 
L 95.341205 55.522049 
L 95.089081 55.276146 
L 94.839557 55.767951 
L 94.964319 56.501268 
L 95.089081 56.501268 
L 95.341205 56.255366 
L 95.468566 56.501268 
L 95.845452 56.009463 
L 95.71809 55.276146 
L 95.71809 55.522049 
L 95.468566 56.009463 
L 95.468566 55.767951 
L 95.71809 55.276146 
L 95.970214 55.034634 
L 96.3471 55.034634 
L 96.097575 55.034634 
L 95.970214 54.542829 
L 95.71809 54.542829 
L 95.593328 54.788731 
L 95.71809 55.034634 
L 95.71809 55.034634 
L 95.970214 54.788731 
L 96.474461 54.788731 
L 96.726584 55.034634 
L 96.726584 54.788731 
L 96.599223 54.301317 
L 96.222337 53.568 
L 96.222337 53.568 
L 95.970214 53.809512 
L 95.71809 53.809512 
L 95.845452 54.055414 
L 96.222337 54.301317 
L 96.3471 54.542829 
L 96.222337 55.034634 
L 96.3471 55.034634 
L 96.474461 54.542829 
L 96.3471 54.055414 
L 96.097575 54.301317 
L 95.970214 55.034634 
L 96.097575 55.034634 
L 96.222337 54.788731 
L 96.3471 54.788731 
L 96.474461 54.301317 
L 96.3471 54.301317 
L 96.097575 54.788731 
L 96.097575 55.034634 
L 96.3471 55.276146 
L 97.352995 54.542829 
L 98.234127 54.301317 
L 100.121155 54.788731 
L 101.756059 55.034634 
L 104.147334 55.034634 
L 106.912895 54.788731 
L 110.057942 54.788731 
L 113.831997 55.034634 
L 117.982938 55.522049 
L 122.261241 55.767951 
L 126.661706 56.255366 
L 131.569018 56.988683 
L 136.348969 57.230194 
L 146.410517 56.74278 
L 151.567354 56.988683 
L 156.474665 57.722 
L 161.254616 58.209414 
L 166.034566 58.942731 
L 170.687155 60.163463 
L 175.09022 60.89678 
L 179.493285 61.876 
L 183.768988 63.096731 
L 187.919929 64.563366 
L 195.972287 67.984048 
L 199.743744 69.696585 
L 203.769923 70.671414 
L 208.172987 71.404731 
L 212.448691 72.625463 
L 216.097984 74.092097 
L 229.808826 78.004585 
L 233.203397 78.737903 
L 236.85269 79.225317 
L 240.499384 79.958634 
L 243.769192 81.179366 
L 246.537353 82.646 
L 248.676504 83.379317 
L 250.563532 83.866731 
L 252.45056 84.600048 
L 254.963998 85.825171 
L 255.468245 86.312585 
L 255.84513 87.045902 
L 256.47414 87.77922 
L 256.851025 88.020731 
L 256.726263 87.77922 
L 256.222016 87.77922 
L 255.593007 88.266634 
L 253.204331 89.245854 
L 252.45056 89.733268 
L 250.688294 90.220683 
L 250.184047 90.220683 
L 249.807161 90.712488 
L 249.807161 90.712488 
L 249.555038 89.979171 
L 249.305513 90.220683 
L 249.178152 90.954 
L 249.178152 91.93322 
L 249.305513 93.153951 
L 249.305513 93.399854 
L 248.926029 93.153951 
L 248.172257 93.153951 
L 247.670609 93.641365 
L 247.795371 93.641365 
L 247.795371 93.887268 
L 247.418486 93.887268 
L 247.291124 93.399854 
L 247.166362 93.399854 
L 246.537353 94.133171 
L 246.285229 93.887268 
L 246.285229 93.887268 
L 246.285229 94.374683 
L 246.160467 95.108 
L 245.783582 95.353902 
L 245.404097 94.133171 
L 245.154572 94.133171 
L 245.027211 93.887268 
L 245.027211 93.641365 
L 245.154572 93.399854 
L 245.154572 93.887268 
L 245.027211 94.620585 
L 244.525563 95.353902 
L 244.398202 94.866488 
L 244.525563 93.887268 
L 244.021316 94.620585 
L 244.148677 94.374683 
L 244.021316 94.374683 
L 243.896554 94.133171 
L 243.896554 94.374683 
L 243.519668 94.374683 
L 243.267545 93.887268 
L 242.890659 94.374683 
L 242.890659 94.866488 
L 243.015421 95.108 
L 243.392307 93.887268 
L 243.015421 94.374683 
L 242.386412 94.620585 
L 242.386412 94.133171 
L 242.763297 94.133171 
L 242.890659 94.620585 
L 242.763297 94.866488 
L 242.386412 93.887268 
L 242.386412 93.641365 
L 242.26165 93.641365 
L 242.386412 93.641365 
L 241.757403 94.620585 
L 241.505279 94.620585 
L 242.009526 93.641365 
L 241.63264 94.374683 
L 241.380517 95.108 
L 241.380517 95.108 
L 241.380517 94.620585 
L 241.253155 94.133171 
L 241.128393 94.374683 
L 241.380517 94.620585 
L 241.505279 95.353902 
L 241.128393 95.841317 
L 240.751508 96.08722 
L 241.128393 95.841317 
L 241.253155 95.353902 
L 241.253155 93.399854 
L 240.751508 94.620585 
L 240.751508 95.108 
L 240.87627 95.108 
L 240.751508 95.599805 
L 240.374622 95.841317 
L 240.122498 95.353902 
L 239.997736 94.374683 
L 240.122498 93.887268 
L 240.122498 94.374683 
L 239.870375 95.108 
L 239.493489 95.599805 
L 239.618251 96.08722 
L 239.493489 95.353902 
L 239.493489 94.866488 
L 239.618251 95.108 
L 239.870375 95.108 
L 239.870375 94.620585 
L 239.997736 94.374683 
L 239.997736 94.866488 
L 239.870375 94.866488 
L 239.870375 95.108 
L 238.989242 95.108 
L 238.86448 94.620585 
L 239.116603 94.374683 
L 239.493489 94.620585 
L 239.618251 95.108 
L 239.618251 96.08722 
L 239.493489 95.841317 
L 239.116603 95.841317 
L 238.110708 96.820537 
L 238.487594 96.328731 
L 238.739718 95.599805 
L 238.487594 96.08722 
L 237.983347 96.820537 
L 237.858585 96.574634 
L 237.858585 95.599805 
L 238.110708 96.328731 
L 238.487594 97.307951 
L 238.360233 97.307951 
L 237.983347 97.062048 
L 237.983347 96.574634 
L 238.235471 96.08722 
L 237.983347 96.08722 
L 237.606461 96.328731 
L 237.983347 96.820537 
L 238.110708 96.574634 
L 237.983347 96.328731 
L 237.731224 96.328731 
L 237.606461 96.574634 
L 237.354338 96.08722 
L 237.481699 96.328731 
L 237.481699 97.307951 
L 237.481699 97.307951 
L 237.229576 97.307951 
L 236.85269 96.820537 
L 236.85269 96.574634 
L 237.229576 96.328731 
L 237.606461 96.574634 
L 237.731224 97.307951 
L 237.481699 98.041268 
L 237.229576 98.287171 
L 236.977452 97.307951 
L 236.85269 97.307951 
L 236.85269 97.795365 
L 236.348443 98.528682 
L 236.473205 98.041268 
L 236.977452 97.553854 
L 237.102214 98.041268 
L 236.977452 98.287171 
L 236.977452 98.287171 
" style="fill:none;stroke:#1f77b4;stroke-linecap:square;stroke-width:1.5;"/>
   </g>
   <g id="matplotlib.axis_1">
    <g id="xtick_1">
     <g id="line2d_2">
      <defs>
       <path d="M 0 0 
L 0 3.5 
" id="m2b1525dd48" style="stroke:#000000;stroke-width:0.8;"/>
      </defs>
      <g>
       <use style="stroke:#000000;stroke-width:0.8;" x="75.584596" xlink:href="#m2b1525dd48" y="307.584"/>
      </g>
     </g>
     <g id="text_1">
      <!-- −600 -->
      <defs>
       <path d="M 10.59375 35.5 
L 73.1875 35.5 
L 73.1875 27.203125 
L 10.59375 27.203125 
z
" id="DejaVuSans-8722"/>
       <path d="M 33.015625 40.375 
Q 26.375 40.375 22.484375 35.828125 
Q 18.609375 31.296875 18.609375 23.390625 
Q 18.609375 15.53125 22.484375 10.953125 
Q 26.375 6.390625 33.015625 6.390625 
Q 39.65625 6.390625 43.53125 10.953125 
Q 47.40625 15.53125 47.40625 23.390625 
Q 47.40625 31.296875 43.53125 35.828125 
Q 39.65625 40.375 33.015625 40.375 
z
M 52.59375 71.296875 
L 52.59375 62.3125 
Q 48.875 64.0625 45.09375 64.984375 
Q 41.3125 65.921875 37.59375 65.921875 
Q 27.828125 65.921875 22.671875 59.328125 
Q 17.53125 52.734375 16.796875 39.40625 
Q 19.671875 43.65625 24.015625 45.921875 
Q 28.375 48.1875 33.59375 48.1875 
Q 44.578125 48.1875 50.953125 41.515625 
Q 57.328125 34.859375 57.328125 23.390625 
Q 57.328125 12.15625 50.6875 5.359375 
Q 44.046875 -1.421875 33.015625 -1.421875 
Q 20.359375 -1.421875 13.671875 8.265625 
Q 6.984375 17.96875 6.984375 36.375 
Q 6.984375 53.65625 15.1875 63.9375 
Q 23.390625 74.21875 37.203125 74.21875 
Q 40.921875 74.21875 44.703125 73.484375 
Q 48.484375 72.75 52.59375 71.296875 
z
" id="DejaVuSans-54"/>
       <path d="M 31.78125 66.40625 
Q 24.171875 66.40625 20.328125 58.90625 
Q 16.5 51.421875 16.5 36.375 
Q 16.5 21.390625 20.328125 13.890625 
Q 24.171875 6.390625 31.78125 6.390625 
Q 39.453125 6.390625 43.28125 13.890625 
Q 47.125 21.390625 47.125 36.375 
Q 47.125 51.421875 43.28125 58.90625 
Q 39.453125 66.40625 31.78125 66.40625 
z
M 31.78125 74.21875 
Q 44.046875 74.21875 50.515625 64.515625 
Q 56.984375 54.828125 56.984375 36.375 
Q 56.984375 17.96875 50.515625 8.265625 
Q 44.046875 -1.421875 31.78125 -1.421875 
Q 19.53125 -1.421875 13.0625 8.265625 
Q 6.59375 17.96875 6.59375 36.375 
Q 6.59375 54.828125 13.0625 64.515625 
Q 19.53125 74.21875 31.78125 74.21875 
z
" id="DejaVuSans-48"/>
      </defs>
      <g transform="translate(61.851002 322.182437)scale(0.1 -0.1)">
       <use xlink:href="#DejaVuSans-8722"/>
       <use x="83.789062" xlink:href="#DejaVuSans-54"/>
       <use x="147.412109" xlink:href="#DejaVuSans-48"/>
       <use x="211.035156" xlink:href="#DejaVuSans-48"/>
      </g>
     </g>
    </g>
    <g id="xtick_2">
     <g id="line2d_3">
      <g>
       <use style="stroke:#000000;stroke-width:0.8;" x="127.568831" xlink:href="#m2b1525dd48" y="307.584"/>
      </g>
     </g>
     <g id="text_2">
      <!-- −400 -->
      <defs>
       <path d="M 37.796875 64.3125 
L 12.890625 25.390625 
L 37.796875 25.390625 
z
M 35.203125 72.90625 
L 47.609375 72.90625 
L 47.609375 25.390625 
L 58.015625 25.390625 
L 58.015625 17.1875 
L 47.609375 17.1875 
L 47.609375 0 
L 37.796875 0 
L 37.796875 17.1875 
L 4.890625 17.1875 
L 4.890625 26.703125 
z
" id="DejaVuSans-52"/>
      </defs>
      <g transform="translate(113.835238 322.182437)scale(0.1 -0.1)">
       <use xlink:href="#DejaVuSans-8722"/>
       <use x="83.789062" xlink:href="#DejaVuSans-52"/>
       <use x="147.412109" xlink:href="#DejaVuSans-48"/>
       <use x="211.035156" xlink:href="#DejaVuSans-48"/>
      </g>
     </g>
    </g>
    <g id="xtick_3">
     <g id="line2d_4">
      <g>
       <use style="stroke:#000000;stroke-width:0.8;" x="179.553067" xlink:href="#m2b1525dd48" y="307.584"/>
      </g>
     </g>
     <g id="text_3">
      <!-- −200 -->
      <defs>
       <path d="M 19.1875 8.296875 
L 53.609375 8.296875 
L 53.609375 0 
L 7.328125 0 
L 7.328125 8.296875 
Q 12.9375 14.109375 22.625 23.890625 
Q 32.328125 33.6875 34.8125 36.53125 
Q 39.546875 41.84375 41.421875 45.53125 
Q 43.3125 49.21875 43.3125 52.78125 
Q 43.3125 58.59375 39.234375 62.25 
Q 35.15625 65.921875 28.609375 65.921875 
Q 23.96875 65.921875 18.8125 64.3125 
Q 13.671875 62.703125 7.8125 59.421875 
L 7.8125 69.390625 
Q 13.765625 71.78125 18.9375 73 
Q 24.125 74.21875 28.421875 74.21875 
Q 39.75 74.21875 46.484375 68.546875 
Q 53.21875 62.890625 53.21875 53.421875 
Q 53.21875 48.921875 51.53125 44.890625 
Q 49.859375 40.875 45.40625 35.40625 
Q 44.1875 33.984375 37.640625 27.21875 
Q 31.109375 20.453125 19.1875 8.296875 
z
" id="DejaVuSans-50"/>
      </defs>
      <g transform="translate(165.819473 322.182437)scale(0.1 -0.1)">
       <use xlink:href="#DejaVuSans-8722"/>
       <use x="83.789062" xlink:href="#DejaVuSans-50"/>
       <use x="147.412109" xlink:href="#DejaVuSans-48"/>
       <use x="211.035156" xlink:href="#DejaVuSans-48"/>
      </g>
     </g>
    </g>
    <g id="xtick_4">
     <g id="line2d_5">
      <g>
       <use style="stroke:#000000;stroke-width:0.8;" x="231.537302" xlink:href="#m2b1525dd48" y="307.584"/>
      </g>
     </g>
     <g id="text_4">
      <!-- 0 -->
      <g transform="translate(228.356052 322.182437)scale(0.1 -0.1)">
       <use xlink:href="#DejaVuSans-48"/>
      </g>
     </g>
    </g>
    <g id="xtick_5">
     <g id="line2d_6">
      <g>
       <use style="stroke:#000000;stroke-width:0.8;" x="283.521537" xlink:href="#m2b1525dd48" y="307.584"/>
      </g>
     </g>
     <g id="text_5">
      <!-- 200 -->
      <g transform="translate(273.977787 322.182437)scale(0.1 -0.1)">
       <use xlink:href="#DejaVuSans-50"/>
       <use x="63.623047" xlink:href="#DejaVuSans-48"/>
       <use x="127.246094" xlink:href="#DejaVuSans-48"/>
      </g>
     </g>
    </g>
    <g id="xtick_6">
     <g id="line2d_7">
      <g>
       <use style="stroke:#000000;stroke-width:0.8;" x="335.505772" xlink:href="#m2b1525dd48" y="307.584"/>
      </g>
     </g>
     <g id="text_6">
      <!-- 400 -->
      <g transform="translate(325.962022 322.182437)scale(0.1 -0.1)">
       <use xlink:href="#DejaVuSans-52"/>
       <use x="63.623047" xlink:href="#DejaVuSans-48"/>
       <use x="127.246094" xlink:href="#DejaVuSans-48"/>
      </g>
     </g>
    </g>
    <g id="xtick_7">
     <g id="line2d_8">
      <g>
       <use style="stroke:#000000;stroke-width:0.8;" x="387.490008" xlink:href="#m2b1525dd48" y="307.584"/>
      </g>
     </g>
     <g id="text_7">
      <!-- 600 -->
      <g transform="translate(377.946258 322.182437)scale(0.1 -0.1)">
       <use xlink:href="#DejaVuSans-54"/>
       <use x="63.623047" xlink:href="#DejaVuSans-48"/>
       <use x="127.246094" xlink:href="#DejaVuSans-48"/>
      </g>
     </g>
    </g>
   </g>
   <g id="matplotlib.axis_2">
    <g id="ytick_1">
     <g id="line2d_9">
      <defs>
       <path d="M 0 0 
L -3.5 0 
" id="me01d7d8da5" style="stroke:#000000;stroke-width:0.8;"/>
      </defs>
      <g>
       <use style="stroke:#000000;stroke-width:0.8;" x="57.6" xlink:href="#me01d7d8da5" y="274.133981"/>
      </g>
     </g>
     <g id="text_8">
      <!-- −700 -->
      <defs>
       <path d="M 8.203125 72.90625 
L 55.078125 72.90625 
L 55.078125 68.703125 
L 28.609375 0 
L 18.3125 0 
L 43.21875 64.59375 
L 8.203125 64.59375 
z
" id="DejaVuSans-55"/>
      </defs>
      <g transform="translate(23.132812 277.9332)scale(0.1 -0.1)">
       <use xlink:href="#DejaVuSans-8722"/>
       <use x="83.789062" xlink:href="#DejaVuSans-55"/>
       <use x="147.412109" xlink:href="#DejaVuSans-48"/>
       <use x="211.035156" xlink:href="#DejaVuSans-48"/>
      </g>
     </g>
    </g>
    <g id="ytick_2">
     <g id="line2d_10">
      <g>
       <use style="stroke:#000000;stroke-width:0.8;" x="57.6" xlink:href="#me01d7d8da5" y="230.222776"/>
      </g>
     </g>
     <g id="text_9">
      <!-- −600 -->
      <g transform="translate(23.132812 234.021995)scale(0.1 -0.1)">
       <use xlink:href="#DejaVuSans-8722"/>
       <use x="83.789062" xlink:href="#DejaVuSans-54"/>
       <use x="147.412109" xlink:href="#DejaVuSans-48"/>
       <use x="211.035156" xlink:href="#DejaVuSans-48"/>
      </g>
     </g>
    </g>
    <g id="ytick_3">
     <g id="line2d_11">
      <g>
       <use style="stroke:#000000;stroke-width:0.8;" x="57.6" xlink:href="#me01d7d8da5" y="186.311572"/>
      </g>
     </g>
     <g id="text_10">
      <!-- −500 -->
      <defs>
       <path d="M 10.796875 72.90625 
L 49.515625 72.90625 
L 49.515625 64.59375 
L 19.828125 64.59375 
L 19.828125 46.734375 
Q 21.96875 47.46875 24.109375 47.828125 
Q 26.265625 48.1875 28.421875 48.1875 
Q 40.625 48.1875 47.75 41.5 
Q 54.890625 34.8125 54.890625 23.390625 
Q 54.890625 11.625 47.5625 5.09375 
Q 40.234375 -1.421875 26.90625 -1.421875 
Q 22.3125 -1.421875 17.546875 -0.640625 
Q 12.796875 0.140625 7.71875 1.703125 
L 7.71875 11.625 
Q 12.109375 9.234375 16.796875 8.0625 
Q 21.484375 6.890625 26.703125 6.890625 
Q 35.15625 6.890625 40.078125 11.328125 
Q 45.015625 15.765625 45.015625 23.390625 
Q 45.015625 31 40.078125 35.4375 
Q 35.15625 39.890625 26.703125 39.890625 
Q 22.75 39.890625 18.8125 39.015625 
Q 14.890625 38.140625 10.796875 36.28125 
z
" id="DejaVuSans-53"/>
      </defs>
      <g transform="translate(23.132812 190.110791)scale(0.1 -0.1)">
       <use xlink:href="#DejaVuSans-8722"/>
       <use x="83.789062" xlink:href="#DejaVuSans-53"/>
       <use x="147.412109" xlink:href="#DejaVuSans-48"/>
       <use x="211.035156" xlink:href="#DejaVuSans-48"/>
      </g>
     </g>
    </g>
    <g id="ytick_4">
     <g id="line2d_12">
      <g>
       <use style="stroke:#000000;stroke-width:0.8;" x="57.6" xlink:href="#me01d7d8da5" y="142.400367"/>
      </g>
     </g>
     <g id="text_11">
      <!-- −400 -->
      <g transform="translate(23.132812 146.199586)scale(0.1 -0.1)">
       <use xlink:href="#DejaVuSans-8722"/>
       <use x="83.789062" xlink:href="#DejaVuSans-52"/>
       <use x="147.412109" xlink:href="#DejaVuSans-48"/>
       <use x="211.035156" xlink:href="#DejaVuSans-48"/>
      </g>
     </g>
    </g>
    <g id="ytick_5">
     <g id="line2d_13">
      <g>
       <use style="stroke:#000000;stroke-width:0.8;" x="57.6" xlink:href="#me01d7d8da5" y="98.489162"/>
      </g>
     </g>
     <g id="text_12">
      <!-- −300 -->
      <defs>
       <path d="M 40.578125 39.3125 
Q 47.65625 37.796875 51.625 33 
Q 55.609375 28.21875 55.609375 21.1875 
Q 55.609375 10.40625 48.1875 4.484375 
Q 40.765625 -1.421875 27.09375 -1.421875 
Q 22.515625 -1.421875 17.65625 -0.515625 
Q 12.796875 0.390625 7.625 2.203125 
L 7.625 11.71875 
Q 11.71875 9.328125 16.59375 8.109375 
Q 21.484375 6.890625 26.8125 6.890625 
Q 36.078125 6.890625 40.9375 10.546875 
Q 45.796875 14.203125 45.796875 21.1875 
Q 45.796875 27.640625 41.28125 31.265625 
Q 36.765625 34.90625 28.71875 34.90625 
L 20.21875 34.90625 
L 20.21875 43.015625 
L 29.109375 43.015625 
Q 36.375 43.015625 40.234375 45.921875 
Q 44.09375 48.828125 44.09375 54.296875 
Q 44.09375 59.90625 40.109375 62.90625 
Q 36.140625 65.921875 28.71875 65.921875 
Q 24.65625 65.921875 20.015625 65.03125 
Q 15.375 64.15625 9.8125 62.3125 
L 9.8125 71.09375 
Q 15.4375 72.65625 20.34375 73.4375 
Q 25.25 74.21875 29.59375 74.21875 
Q 40.828125 74.21875 47.359375 69.109375 
Q 53.90625 64.015625 53.90625 55.328125 
Q 53.90625 49.265625 50.4375 45.09375 
Q 46.96875 40.921875 40.578125 39.3125 
z
" id="DejaVuSans-51"/>
      </defs>
      <g transform="translate(23.132812 102.288381)scale(0.1 -0.1)">
       <use xlink:href="#DejaVuSans-8722"/>
       <use x="83.789062" xlink:href="#DejaVuSans-51"/>
       <use x="147.412109" xlink:href="#DejaVuSans-48"/>
       <use x="211.035156" xlink:href="#DejaVuSans-48"/>
      </g>
     </g>
    </g>
    <g id="ytick_6">
     <g id="line2d_14">
      <g>
       <use style="stroke:#000000;stroke-width:0.8;" x="57.6" xlink:href="#me01d7d8da5" y="54.577958"/>
      </g>
     </g>
     <g id="text_13">
      <!-- −200 -->
      <g transform="translate(23.132812 58.377176)scale(0.1 -0.1)">
       <use xlink:href="#DejaVuSans-8722"/>
       <use x="83.789062" xlink:href="#DejaVuSans-50"/>
       <use x="147.412109" xlink:href="#DejaVuSans-48"/>
       <use x="211.035156" xlink:href="#DejaVuSans-48"/>
      </g>
     </g>
    </g>
   </g>
   <g id="line2d_15">
    <path clip-path="url(#p909d09999c)" d="M 396.19774 287.063016 
L 238.770558 152.576959 
L 84.589309 82.70774 
L 95.166301 59.597567 
L 242.728068 93.900402 
" style="fill:none;stroke:#ff0000;stroke-linecap:square;stroke-width:0.5;"/>
   </g>
   <g id="patch_3">
    <path d="M 57.6 307.584 
L 57.6 41.472 
" style="fill:none;stroke:#000000;stroke-linecap:square;stroke-linejoin:miter;stroke-width:0.8;"/>
   </g>
   <g id="patch_4">
    <path d="M 414.72 307.584 
L 414.72 41.472 
" style="fill:none;stroke:#000000;stroke-linecap:square;stroke-linejoin:miter;stroke-width:0.8;"/>
   </g>
   <g id="patch_5">
    <path d="M 57.6 307.584 
L 414.72 307.584 
" style="fill:none;stroke:#000000;stroke-linecap:square;stroke-linejoin:miter;stroke-width:0.8;"/>
   </g>
   <g id="patch_6">
    <path d="M 57.6 41.472 
L 414.72 41.472 
" style="fill:none;stroke:#000000;stroke-linecap:square;stroke-linejoin:miter;stroke-width:0.8;"/>
   </g>
   <g id="PathCollection_1">
    <defs>
     <path d="M 0 2.738613 
C 0.726289 2.738613 1.422928 2.450055 1.936492 1.936492 
C 2.450055 1.422928 2.738613 0.726289 2.738613 0 
C 2.738613 -0.726289 2.450055 -1.422928 1.936492 -1.936492 
C 1.422928 -2.450055 0.726289 -2.738613 0 -2.738613 
C -0.726289 -2.738613 -1.422928 -2.450055 -1.936492 -1.936492 
C -2.450055 -1.422928 -2.738613 -0.726289 -2.738613 0 
C -2.738613 0.726289 -2.450055 1.422928 -1.936492 1.936492 
C -1.422928 2.450055 -0.726289 2.738613 0 2.738613 
z
" id="m8d97a1611e" style="stroke:#ff0000;"/>
    </defs>
    <g clip-path="url(#p909d09999c)">
     <use style="fill:#ff0000;stroke:#ff0000;" x="396.19774" xlink:href="#m8d97a1611e" y="287.063016"/>
     <use style="fill:#ff0000;stroke:#ff0000;" x="238.770558" xlink:href="#m8d97a1611e" y="152.576959"/>
     <use style="fill:#ff0000;stroke:#ff0000;" x="84.589309" xlink:href="#m8d97a1611e" y="82.70774"/>
     <use style="fill:#ff0000;stroke:#ff0000;" x="95.166301" xlink:href="#m8d97a1611e" y="59.597567"/>
     <use style="fill:#ff0000;stroke:#ff0000;" x="242.728068" xlink:href="#m8d97a1611e" y="93.900402"/>
    </g>
   </g>
   <g id="text_14">
    <!-- (23) Subject: s7, Known = True, Degree = 1, Duration = 0.1 -->
    <defs>
     <path d="M 31 75.875 
Q 24.46875 64.65625 21.28125 53.65625 
Q 18.109375 42.671875 18.109375 31.390625 
Q 18.109375 20.125 21.3125 9.0625 
Q 24.515625 -2 31 -13.1875 
L 23.1875 -13.1875 
Q 15.875 -1.703125 12.234375 9.375 
Q 8.59375 20.453125 8.59375 31.390625 
Q 8.59375 42.28125 12.203125 53.3125 
Q 15.828125 64.359375 23.1875 75.875 
z
" id="DejaVuSans-40"/>
     <path d="M 8.015625 75.875 
L 15.828125 75.875 
Q 23.140625 64.359375 26.78125 53.3125 
Q 30.421875 42.28125 30.421875 31.390625 
Q 30.421875 20.453125 26.78125 9.375 
Q 23.140625 -1.703125 15.828125 -13.1875 
L 8.015625 -13.1875 
Q 14.5 -2 17.703125 9.0625 
Q 20.90625 20.125 20.90625 31.390625 
Q 20.90625 42.671875 17.703125 53.65625 
Q 14.5 64.65625 8.015625 75.875 
z
" id="DejaVuSans-41"/>
     <path id="DejaVuSans-32"/>
     <path d="M 53.515625 70.515625 
L 53.515625 60.890625 
Q 47.90625 63.578125 42.921875 64.890625 
Q 37.9375 66.21875 33.296875 66.21875 
Q 25.25 66.21875 20.875 63.09375 
Q 16.5 59.96875 16.5 54.203125 
Q 16.5 49.359375 19.40625 46.890625 
Q 22.3125 44.4375 30.421875 42.921875 
L 36.375 41.703125 
Q 47.40625 39.59375 52.65625 34.296875 
Q 57.90625 29 57.90625 20.125 
Q 57.90625 9.515625 50.796875 4.046875 
Q 43.703125 -1.421875 29.984375 -1.421875 
Q 24.8125 -1.421875 18.96875 -0.25 
Q 13.140625 0.921875 6.890625 3.21875 
L 6.890625 13.375 
Q 12.890625 10.015625 18.65625 8.296875 
Q 24.421875 6.59375 29.984375 6.59375 
Q 38.421875 6.59375 43.015625 9.90625 
Q 47.609375 13.234375 47.609375 19.390625 
Q 47.609375 24.75 44.3125 27.78125 
Q 41.015625 30.8125 33.5 32.328125 
L 27.484375 33.5 
Q 16.453125 35.6875 11.515625 40.375 
Q 6.59375 45.0625 6.59375 53.421875 
Q 6.59375 63.09375 13.40625 68.65625 
Q 20.21875 74.21875 32.171875 74.21875 
Q 37.3125 74.21875 42.625 73.28125 
Q 47.953125 72.359375 53.515625 70.515625 
z
" id="DejaVuSans-83"/>
     <path d="M 8.5 21.578125 
L 8.5 54.6875 
L 17.484375 54.6875 
L 17.484375 21.921875 
Q 17.484375 14.15625 20.5 10.265625 
Q 23.53125 6.390625 29.59375 6.390625 
Q 36.859375 6.390625 41.078125 11.03125 
Q 45.3125 15.671875 45.3125 23.6875 
L 45.3125 54.6875 
L 54.296875 54.6875 
L 54.296875 0 
L 45.3125 0 
L 45.3125 8.40625 
Q 42.046875 3.421875 37.71875 1 
Q 33.40625 -1.421875 27.6875 -1.421875 
Q 18.265625 -1.421875 13.375 4.4375 
Q 8.5 10.296875 8.5 21.578125 
z
M 31.109375 56 
z
" id="DejaVuSans-117"/>
     <path d="M 48.6875 27.296875 
Q 48.6875 37.203125 44.609375 42.84375 
Q 40.53125 48.484375 33.40625 48.484375 
Q 26.265625 48.484375 22.1875 42.84375 
Q 18.109375 37.203125 18.109375 27.296875 
Q 18.109375 17.390625 22.1875 11.75 
Q 26.265625 6.109375 33.40625 6.109375 
Q 40.53125 6.109375 44.609375 11.75 
Q 48.6875 17.390625 48.6875 27.296875 
z
M 18.109375 46.390625 
Q 20.953125 51.265625 25.265625 53.625 
Q 29.59375 56 35.59375 56 
Q 45.5625 56 51.78125 48.09375 
Q 58.015625 40.1875 58.015625 27.296875 
Q 58.015625 14.40625 51.78125 6.484375 
Q 45.5625 -1.421875 35.59375 -1.421875 
Q 29.59375 -1.421875 25.265625 0.953125 
Q 20.953125 3.328125 18.109375 8.203125 
L 18.109375 0 
L 9.078125 0 
L 9.078125 75.984375 
L 18.109375 75.984375 
z
" id="DejaVuSans-98"/>
     <path d="M 9.421875 54.6875 
L 18.40625 54.6875 
L 18.40625 -0.984375 
Q 18.40625 -11.421875 14.421875 -16.109375 
Q 10.453125 -20.796875 1.609375 -20.796875 
L -1.8125 -20.796875 
L -1.8125 -13.1875 
L 0.59375 -13.1875 
Q 5.71875 -13.1875 7.5625 -10.8125 
Q 9.421875 -8.453125 9.421875 -0.984375 
z
M 9.421875 75.984375 
L 18.40625 75.984375 
L 18.40625 64.59375 
L 9.421875 64.59375 
z
" id="DejaVuSans-106"/>
     <path d="M 56.203125 29.59375 
L 56.203125 25.203125 
L 14.890625 25.203125 
Q 15.484375 15.921875 20.484375 11.0625 
Q 25.484375 6.203125 34.421875 6.203125 
Q 39.59375 6.203125 44.453125 7.46875 
Q 49.3125 8.734375 54.109375 11.28125 
L 54.109375 2.78125 
Q 49.265625 0.734375 44.1875 -0.34375 
Q 39.109375 -1.421875 33.890625 -1.421875 
Q 20.796875 -1.421875 13.15625 6.1875 
Q 5.515625 13.8125 5.515625 26.8125 
Q 5.515625 40.234375 12.765625 48.109375 
Q 20.015625 56 32.328125 56 
Q 43.359375 56 49.78125 48.890625 
Q 56.203125 41.796875 56.203125 29.59375 
z
M 47.21875 32.234375 
Q 47.125 39.59375 43.09375 43.984375 
Q 39.0625 48.390625 32.421875 48.390625 
Q 24.90625 48.390625 20.390625 44.140625 
Q 15.875 39.890625 15.1875 32.171875 
z
" id="DejaVuSans-101"/>
     <path d="M 48.78125 52.59375 
L 48.78125 44.1875 
Q 44.96875 46.296875 41.140625 47.34375 
Q 37.3125 48.390625 33.40625 48.390625 
Q 24.65625 48.390625 19.8125 42.84375 
Q 14.984375 37.3125 14.984375 27.296875 
Q 14.984375 17.28125 19.8125 11.734375 
Q 24.65625 6.203125 33.40625 6.203125 
Q 37.3125 6.203125 41.140625 7.25 
Q 44.96875 8.296875 48.78125 10.40625 
L 48.78125 2.09375 
Q 45.015625 0.34375 40.984375 -0.53125 
Q 36.96875 -1.421875 32.421875 -1.421875 
Q 20.0625 -1.421875 12.78125 6.34375 
Q 5.515625 14.109375 5.515625 27.296875 
Q 5.515625 40.671875 12.859375 48.328125 
Q 20.21875 56 33.015625 56 
Q 37.15625 56 41.109375 55.140625 
Q 45.0625 54.296875 48.78125 52.59375 
z
" id="DejaVuSans-99"/>
     <path d="M 18.3125 70.21875 
L 18.3125 54.6875 
L 36.8125 54.6875 
L 36.8125 47.703125 
L 18.3125 47.703125 
L 18.3125 18.015625 
Q 18.3125 11.328125 20.140625 9.421875 
Q 21.96875 7.515625 27.59375 7.515625 
L 36.8125 7.515625 
L 36.8125 0 
L 27.59375 0 
Q 17.1875 0 13.234375 3.875 
Q 9.28125 7.765625 9.28125 18.015625 
L 9.28125 47.703125 
L 2.6875 47.703125 
L 2.6875 54.6875 
L 9.28125 54.6875 
L 9.28125 70.21875 
z
" id="DejaVuSans-116"/>
     <path d="M 11.71875 12.40625 
L 22.015625 12.40625 
L 22.015625 0 
L 11.71875 0 
z
M 11.71875 51.703125 
L 22.015625 51.703125 
L 22.015625 39.3125 
L 11.71875 39.3125 
z
" id="DejaVuSans-58"/>
     <path d="M 44.28125 53.078125 
L 44.28125 44.578125 
Q 40.484375 46.53125 36.375 47.5 
Q 32.28125 48.484375 27.875 48.484375 
Q 21.1875 48.484375 17.84375 46.4375 
Q 14.5 44.390625 14.5 40.28125 
Q 14.5 37.15625 16.890625 35.375 
Q 19.28125 33.59375 26.515625 31.984375 
L 29.59375 31.296875 
Q 39.15625 29.25 43.1875 25.515625 
Q 47.21875 21.78125 47.21875 15.09375 
Q 47.21875 7.46875 41.1875 3.015625 
Q 35.15625 -1.421875 24.609375 -1.421875 
Q 20.21875 -1.421875 15.453125 -0.5625 
Q 10.6875 0.296875 5.421875 2 
L 5.421875 11.28125 
Q 10.40625 8.6875 15.234375 7.390625 
Q 20.0625 6.109375 24.8125 6.109375 
Q 31.15625 6.109375 34.5625 8.28125 
Q 37.984375 10.453125 37.984375 14.40625 
Q 37.984375 18.0625 35.515625 20.015625 
Q 33.0625 21.96875 24.703125 23.78125 
L 21.578125 24.515625 
Q 13.234375 26.265625 9.515625 29.90625 
Q 5.8125 33.546875 5.8125 39.890625 
Q 5.8125 47.609375 11.28125 51.796875 
Q 16.75 56 26.8125 56 
Q 31.78125 56 36.171875 55.265625 
Q 40.578125 54.546875 44.28125 53.078125 
z
" id="DejaVuSans-115"/>
     <path d="M 11.71875 12.40625 
L 22.015625 12.40625 
L 22.015625 4 
L 14.015625 -11.625 
L 7.71875 -11.625 
L 11.71875 4 
z
" id="DejaVuSans-44"/>
     <path d="M 9.8125 72.90625 
L 19.671875 72.90625 
L 19.671875 42.09375 
L 52.390625 72.90625 
L 65.09375 72.90625 
L 28.90625 38.921875 
L 67.671875 0 
L 54.6875 0 
L 19.671875 35.109375 
L 19.671875 0 
L 9.8125 0 
z
" id="DejaVuSans-75"/>
     <path d="M 54.890625 33.015625 
L 54.890625 0 
L 45.90625 0 
L 45.90625 32.71875 
Q 45.90625 40.484375 42.875 44.328125 
Q 39.84375 48.1875 33.796875 48.1875 
Q 26.515625 48.1875 22.3125 43.546875 
Q 18.109375 38.921875 18.109375 30.90625 
L 18.109375 0 
L 9.078125 0 
L 9.078125 54.6875 
L 18.109375 54.6875 
L 18.109375 46.1875 
Q 21.34375 51.125 25.703125 53.5625 
Q 30.078125 56 35.796875 56 
Q 45.21875 56 50.046875 50.171875 
Q 54.890625 44.34375 54.890625 33.015625 
z
" id="DejaVuSans-110"/>
     <path d="M 30.609375 48.390625 
Q 23.390625 48.390625 19.1875 42.75 
Q 14.984375 37.109375 14.984375 27.296875 
Q 14.984375 17.484375 19.15625 11.84375 
Q 23.34375 6.203125 30.609375 6.203125 
Q 37.796875 6.203125 41.984375 11.859375 
Q 46.1875 17.53125 46.1875 27.296875 
Q 46.1875 37.015625 41.984375 42.703125 
Q 37.796875 48.390625 30.609375 48.390625 
z
M 30.609375 56 
Q 42.328125 56 49.015625 48.375 
Q 55.71875 40.765625 55.71875 27.296875 
Q 55.71875 13.875 49.015625 6.21875 
Q 42.328125 -1.421875 30.609375 -1.421875 
Q 18.84375 -1.421875 12.171875 6.21875 
Q 5.515625 13.875 5.515625 27.296875 
Q 5.515625 40.765625 12.171875 48.375 
Q 18.84375 56 30.609375 56 
z
" id="DejaVuSans-111"/>
     <path d="M 4.203125 54.6875 
L 13.1875 54.6875 
L 24.421875 12.015625 
L 35.59375 54.6875 
L 46.1875 54.6875 
L 57.421875 12.015625 
L 68.609375 54.6875 
L 77.59375 54.6875 
L 63.28125 0 
L 52.6875 0 
L 40.921875 44.828125 
L 29.109375 0 
L 18.5 0 
z
" id="DejaVuSans-119"/>
     <path d="M 10.59375 45.40625 
L 73.1875 45.40625 
L 73.1875 37.203125 
L 10.59375 37.203125 
z
M 10.59375 25.484375 
L 73.1875 25.484375 
L 73.1875 17.1875 
L 10.59375 17.1875 
z
" id="DejaVuSans-61"/>
     <path d="M -0.296875 72.90625 
L 61.375 72.90625 
L 61.375 64.59375 
L 35.5 64.59375 
L 35.5 0 
L 25.59375 0 
L 25.59375 64.59375 
L -0.296875 64.59375 
z
" id="DejaVuSans-84"/>
     <path d="M 41.109375 46.296875 
Q 39.59375 47.171875 37.8125 47.578125 
Q 36.03125 48 33.890625 48 
Q 26.265625 48 22.1875 43.046875 
Q 18.109375 38.09375 18.109375 28.8125 
L 18.109375 0 
L 9.078125 0 
L 9.078125 54.6875 
L 18.109375 54.6875 
L 18.109375 46.1875 
Q 20.953125 51.171875 25.484375 53.578125 
Q 30.03125 56 36.53125 56 
Q 37.453125 56 38.578125 55.875 
Q 39.703125 55.765625 41.0625 55.515625 
z
" id="DejaVuSans-114"/>
     <path d="M 19.671875 64.796875 
L 19.671875 8.109375 
L 31.59375 8.109375 
Q 46.6875 8.109375 53.6875 14.9375 
Q 60.6875 21.78125 60.6875 36.53125 
Q 60.6875 51.171875 53.6875 57.984375 
Q 46.6875 64.796875 31.59375 64.796875 
z
M 9.8125 72.90625 
L 30.078125 72.90625 
Q 51.265625 72.90625 61.171875 64.09375 
Q 71.09375 55.28125 71.09375 36.53125 
Q 71.09375 17.671875 61.125 8.828125 
Q 51.171875 0 30.078125 0 
L 9.8125 0 
z
" id="DejaVuSans-68"/>
     <path d="M 45.40625 27.984375 
Q 45.40625 37.75 41.375 43.109375 
Q 37.359375 48.484375 30.078125 48.484375 
Q 22.859375 48.484375 18.828125 43.109375 
Q 14.796875 37.75 14.796875 27.984375 
Q 14.796875 18.265625 18.828125 12.890625 
Q 22.859375 7.515625 30.078125 7.515625 
Q 37.359375 7.515625 41.375 12.890625 
Q 45.40625 18.265625 45.40625 27.984375 
z
M 54.390625 6.78125 
Q 54.390625 -7.171875 48.1875 -13.984375 
Q 42 -20.796875 29.203125 -20.796875 
Q 24.46875 -20.796875 20.265625 -20.09375 
Q 16.0625 -19.390625 12.109375 -17.921875 
L 12.109375 -9.1875 
Q 16.0625 -11.328125 19.921875 -12.34375 
Q 23.78125 -13.375 27.78125 -13.375 
Q 36.625 -13.375 41.015625 -8.765625 
Q 45.40625 -4.15625 45.40625 5.171875 
L 45.40625 9.625 
Q 42.625 4.78125 38.28125 2.390625 
Q 33.9375 0 27.875 0 
Q 17.828125 0 11.671875 7.65625 
Q 5.515625 15.328125 5.515625 27.984375 
Q 5.515625 40.671875 11.671875 48.328125 
Q 17.828125 56 27.875 56 
Q 33.9375 56 38.28125 53.609375 
Q 42.625 51.21875 45.40625 46.390625 
L 45.40625 54.6875 
L 54.390625 54.6875 
z
" id="DejaVuSans-103"/>
     <path d="M 12.40625 8.296875 
L 28.515625 8.296875 
L 28.515625 63.921875 
L 10.984375 60.40625 
L 10.984375 69.390625 
L 28.421875 72.90625 
L 38.28125 72.90625 
L 38.28125 8.296875 
L 54.390625 8.296875 
L 54.390625 0 
L 12.40625 0 
z
" id="DejaVuSans-49"/>
     <path d="M 34.28125 27.484375 
Q 23.390625 27.484375 19.1875 25 
Q 14.984375 22.515625 14.984375 16.5 
Q 14.984375 11.71875 18.140625 8.90625 
Q 21.296875 6.109375 26.703125 6.109375 
Q 34.1875 6.109375 38.703125 11.40625 
Q 43.21875 16.703125 43.21875 25.484375 
L 43.21875 27.484375 
z
M 52.203125 31.203125 
L 52.203125 0 
L 43.21875 0 
L 43.21875 8.296875 
Q 40.140625 3.328125 35.546875 0.953125 
Q 30.953125 -1.421875 24.3125 -1.421875 
Q 15.921875 -1.421875 10.953125 3.296875 
Q 6 8.015625 6 15.921875 
Q 6 25.140625 12.171875 29.828125 
Q 18.359375 34.515625 30.609375 34.515625 
L 43.21875 34.515625 
L 43.21875 35.40625 
Q 43.21875 41.609375 39.140625 45 
Q 35.0625 48.390625 27.6875 48.390625 
Q 23 48.390625 18.546875 47.265625 
Q 14.109375 46.140625 10.015625 43.890625 
L 10.015625 52.203125 
Q 14.9375 54.109375 19.578125 55.046875 
Q 24.21875 56 28.609375 56 
Q 40.484375 56 46.34375 49.84375 
Q 52.203125 43.703125 52.203125 31.203125 
z
" id="DejaVuSans-97"/>
     <path d="M 9.421875 54.6875 
L 18.40625 54.6875 
L 18.40625 0 
L 9.421875 0 
z
M 9.421875 75.984375 
L 18.40625 75.984375 
L 18.40625 64.59375 
L 9.421875 64.59375 
z
" id="DejaVuSans-105"/>
     <path d="M 10.6875 12.40625 
L 21 12.40625 
L 21 0 
L 10.6875 0 
z
" id="DejaVuSans-46"/>
    </defs>
    <g transform="translate(55.550625 35.472)scale(0.12 -0.12)">
     <use xlink:href="#DejaVuSans-40"/>
     <use x="39.013672" xlink:href="#DejaVuSans-50"/>
     <use x="102.636719" xlink:href="#DejaVuSans-51"/>
     <use x="166.259766" xlink:href="#DejaVuSans-41"/>
     <use x="205.273438" xlink:href="#DejaVuSans-32"/>
     <use x="237.060547" xlink:href="#DejaVuSans-83"/>
     <use x="300.537109" xlink:href="#DejaVuSans-117"/>
     <use x="363.916016" xlink:href="#DejaVuSans-98"/>
     <use x="427.392578" xlink:href="#DejaVuSans-106"/>
     <use x="455.175781" xlink:href="#DejaVuSans-101"/>
     <use x="516.699219" xlink:href="#DejaVuSans-99"/>
     <use x="571.679688" xlink:href="#DejaVuSans-116"/>
     <use x="610.888672" xlink:href="#DejaVuSans-58"/>
     <use x="644.580078" xlink:href="#DejaVuSans-32"/>
     <use x="676.367188" xlink:href="#DejaVuSans-115"/>
     <use x="728.466797" xlink:href="#DejaVuSans-55"/>
     <use x="792.089844" xlink:href="#DejaVuSans-44"/>
     <use x="823.876953" xlink:href="#DejaVuSans-32"/>
     <use x="855.664062" xlink:href="#DejaVuSans-75"/>
     <use x="921.240234" xlink:href="#DejaVuSans-110"/>
     <use x="984.619141" xlink:href="#DejaVuSans-111"/>
     <use x="1045.800781" xlink:href="#DejaVuSans-119"/>
     <use x="1127.587891" xlink:href="#DejaVuSans-110"/>
     <use x="1190.966797" xlink:href="#DejaVuSans-32"/>
     <use x="1222.753906" xlink:href="#DejaVuSans-61"/>
     <use x="1306.542969" xlink:href="#DejaVuSans-32"/>
     <use x="1338.330078" xlink:href="#DejaVuSans-84"/>
     <use x="1399.195312" xlink:href="#DejaVuSans-114"/>
     <use x="1440.308594" xlink:href="#DejaVuSans-117"/>
     <use x="1503.6875" xlink:href="#DejaVuSans-101"/>
     <use x="1565.210938" xlink:href="#DejaVuSans-44"/>
     <use x="1596.998047" xlink:href="#DejaVuSans-32"/>
     <use x="1628.785156" xlink:href="#DejaVuSans-68"/>
     <use x="1705.787109" xlink:href="#DejaVuSans-101"/>
     <use x="1767.310547" xlink:href="#DejaVuSans-103"/>
     <use x="1830.787109" xlink:href="#DejaVuSans-114"/>
     <use x="1871.869141" xlink:href="#DejaVuSans-101"/>
     <use x="1933.392578" xlink:href="#DejaVuSans-101"/>
     <use x="1994.916016" xlink:href="#DejaVuSans-32"/>
     <use x="2026.703125" xlink:href="#DejaVuSans-61"/>
     <use x="2110.492188" xlink:href="#DejaVuSans-32"/>
     <use x="2142.279297" xlink:href="#DejaVuSans-49"/>
     <use x="2205.902344" xlink:href="#DejaVuSans-44"/>
     <use x="2237.689453" xlink:href="#DejaVuSans-32"/>
     <use x="2269.476562" xlink:href="#DejaVuSans-68"/>
     <use x="2346.478516" xlink:href="#DejaVuSans-117"/>
     <use x="2409.857422" xlink:href="#DejaVuSans-114"/>
     <use x="2450.970703" xlink:href="#DejaVuSans-97"/>
     <use x="2512.25" xlink:href="#DejaVuSans-116"/>
     <use x="2551.458984" xlink:href="#DejaVuSans-105"/>
     <use x="2579.242188" xlink:href="#DejaVuSans-111"/>
     <use x="2640.423828" xlink:href="#DejaVuSans-110"/>
     <use x="2703.802734" xlink:href="#DejaVuSans-32"/>
     <use x="2735.589844" xlink:href="#DejaVuSans-61"/>
     <use x="2819.378906" xlink:href="#DejaVuSans-32"/>
     <use x="2851.166016" xlink:href="#DejaVuSans-48"/>
     <use x="2914.789062" xlink:href="#DejaVuSans-46"/>
     <use x="2946.576172" xlink:href="#DejaVuSans-49"/>
    </g>
   </g>
  </g>
 </g>
 <defs>
  <clipPath id="p909d09999c">
   <rect height="266.112" width="357.12" x="57.6" y="41.472"/>
  </clipPath>
 </defs>
</svg>
