<?xml version="1.0" encoding="utf-8" standalone="no"?>
<!DOCTYPE svg PUBLIC "-//W3C//DTD SVG 1.1//EN"
  "http://www.w3.org/Graphics/SVG/1.1/DTD/svg11.dtd">
<!-- Created with matplotlib (https://matplotlib.org/) -->
<svg height="345.6pt" version="1.1" viewBox="0 0 460.8 345.6" width="460.8pt" xmlns="http://www.w3.org/2000/svg" xmlns:xlink="http://www.w3.org/1999/xlink">
 <defs>
  <style type="text/css">
*{stroke-linecap:butt;stroke-linejoin:round;}
  </style>
 </defs>
 <g id="figure_1">
  <g id="patch_1">
   <path d="M 0 345.6 
L 460.8 345.6 
L 460.8 0 
L 0 0 
z
" style="fill:#ffffff;"/>
  </g>
  <g id="axes_1">
   <g id="patch_2">
    <path d="M 57.6 307.584 
L 414.72 307.584 
L 414.72 41.472 
L 57.6 41.472 
z
" style="fill:#ffffff;"/>
   </g>
   <g id="line2d_1">
    <path clip-path="url(#pf657d8d1ce)" d="M 79.763794 295.488 
L 79.4942 295.488 
L 78.685418 294.493651 
L 78.14623 292.998416 
L 77.876636 292.998416 
L 77.876636 293.495591 
L 78.685418 293.495591 
L 78.415824 292.998416 
L 78.14623 292.998416 
L 77.876636 292.004067 
L 77.607043 292.004067 
L 77.607043 292.004067 
L 77.067855 291.506892 
L 77.067855 289.514483 
L 77.337449 288.520134 
L 77.607043 289.017309 
L 77.607043 289.514483 
L 77.337449 289.514483 
L 77.607043 290.508833 
L 77.607043 291.009718 
L 77.607043 289.017309 
L 77.337449 289.017309 
L 77.067855 289.514483 
L 77.067855 289.514483 
L 77.067855 288.520134 
L 76.798261 287.522075 
L 76.259073 288.022959 
L 75.989479 288.520134 
L 75.989479 289.017309 
L 75.450291 289.514483 
L 75.450291 288.520134 
L 75.989479 287.522075 
L 76.259073 287.522075 
L 75.989479 287.522075 
L 75.989479 287.0249 
L 75.989479 288.022959 
L 75.989479 288.022959 
L 75.450291 289.017309 
L 75.719885 288.022959 
L 75.719885 286.03055 
L 75.989479 286.03055 
L 75.719885 285.533376 
L 75.719885 284.535316 
L 75.719885 284.535316 
L 75.180697 286.527725 
L 75.180697 286.03055 
L 74.911103 286.03055 
L 74.641509 286.527725 
L 74.371915 287.522075 
L 74.102321 287.522075 
L 74.371915 287.0249 
L 75.719885 287.0249 
L 75.719885 287.0249 
L 75.450291 286.03055 
L 75.450291 285.533376 
L 75.450291 286.527725 
L 75.180697 287.0249 
L 74.911103 286.527725 
L 74.641509 285.533376 
L 74.371915 285.036201 
L 74.371915 285.533376 
L 74.371915 285.533376 
L 74.641509 285.036201 
L 74.641509 284.535316 
L 74.641509 285.533376 
L 74.371915 285.036201 
L 74.102321 284.038142 
L 74.102321 283.043792 
L 74.911103 283.540967 
L 75.450291 284.535316 
L 75.450291 285.036201 
L 74.371915 285.036201 
L 74.371915 284.535316 
L 74.371915 284.535316 
L 74.911103 285.036201 
L 75.180697 285.533376 
L 74.911103 286.03055 
L 74.371915 285.036201 
L 74.641509 285.036201 
L 74.911103 285.533376 
L 74.911103 285.036201 
L 75.180697 284.535316 
L 75.180697 285.036201 
L 74.911103 286.03055 
L 74.911103 286.527725 
L 75.180697 287.0249 
L 74.911103 287.0249 
L 74.641509 286.527725 
L 75.180697 285.533376 
L 75.989479 285.036201 
L 75.989479 284.535316 
L 75.450291 283.540967 
L 74.641509 283.043792 
L 74.371915 283.540967 
L 74.641509 284.038142 
L 74.911103 283.540967 
L 74.911103 282.546618 
L 74.641509 283.043792 
L 74.371915 284.038142 
L 74.371915 284.535316 
L 74.641509 284.535316 
L 76.259073 282.546618 
L 76.259073 281.548558 
L 75.719885 281.548558 
L 74.911103 283.043792 
L 74.911103 285.036201 
L 75.450291 286.03055 
L 75.719885 285.533376 
L 75.719885 284.038142 
L 75.719885 284.535316 
L 75.450291 285.036201 
L 75.180697 285.036201 
L 75.180697 283.540967 
L 75.450291 283.540967 
L 75.450291 284.535316 
L 75.180697 284.535316 
L 74.911103 284.038142 
L 74.371915 284.038142 
L 74.102321 284.535316 
L 74.371915 285.036201 
L 74.911103 285.036201 
L 75.180697 283.540967 
L 75.180697 282.049443 
L 74.911103 281.548558 
L 74.911103 282.546618 
L 74.641509 283.540967 
L 74.641509 284.535316 
L 74.371915 284.038142 
L 74.102321 284.038142 
L 74.102321 283.540967 
L 74.371915 282.546618 
L 74.641509 283.043792 
L 74.641509 283.540967 
L 74.641509 283.043792 
L 75.180697 282.049443 
L 75.180697 282.049443 
L 75.180697 281.548558 
L 75.180697 282.049443 
L 74.641509 281.051383 
L 74.641509 280.554209 
L 74.102321 280.057034 
L 73.832727 280.057034 
L 74.371915 279.062685 
L 74.911103 280.057034 
L 75.450291 280.057034 
L 75.180697 280.057034 
L 75.180697 281.051383 
L 74.911103 280.554209 
L 74.641509 279.559859 
L 74.371915 279.559859 
L 74.371915 280.057034 
L 74.911103 283.043792 
L 74.911103 283.043792 
L 75.180697 283.043792 
L 75.180697 282.049443 
L 74.911103 281.051383 
L 74.911103 281.051383 
L 74.641509 282.049443 
L 74.371915 283.540967 
L 74.371915 284.535316 
L 74.911103 284.038142 
L 75.989479 281.548558 
L 75.450291 282.546618 
L 74.911103 282.546618 
L 74.911103 281.051383 
L 74.371915 282.049443 
L 74.371915 282.546618 
L 74.641509 283.540967 
L 74.911103 283.540967 
L 74.641509 283.540967 
L 74.641509 283.043792 
L 75.450291 281.548558 
L 75.450291 281.548558 
L 74.911103 281.548558 
L 74.911103 282.049443 
L 75.450291 281.051383 
L 75.180697 281.548558 
L 74.641509 282.049443 
L 74.371915 282.049443 
L 74.371915 281.051383 
L 74.641509 280.554209 
L 74.911103 281.548558 
L 74.911103 283.540967 
L 74.911103 282.546618 
L 75.180697 281.051383 
L 76.259073 282.049443 
L 76.528667 281.548558 
L 75.989479 280.554209 
L 75.450291 281.548558 
L 76.528667 281.548558 
L 78.14623 280.554209 
L 80.033388 280.057034 
L 82.459734 278.5618 
L 84.886079 276.573101 
L 87.582019 273.586343 
L 90.820318 271.096759 
L 94.594633 269.601525 
L 104.569609 266.618477 
L 109.964659 263.631719 
L 115.356538 259.149726 
L 120.478823 253.673384 
L 125.334686 249.195102 
L 130.726565 245.213994 
L 136.388038 240.732002 
L 142.322276 235.752834 
L 148.522937 229.779318 
L 154.457176 224.306686 
L 166.858497 213.354002 
L 173.331924 207.877661 
L 179.532584 202.902204 
L 189.780326 192.943869 
L 200.024896 183.48642 
L 204.611165 180.499661 
L 208.924668 178.010078 
L 213.777359 175.02703 
L 222.677131 168.552628 
L 226.451446 166.066755 
L 230.764949 163.577171 
L 234.81203 160.093238 
L 238.586346 155.611246 
L 242.630255 151.132964 
L 246.674164 148.146205 
L 250.451651 145.656622 
L 254.225966 144.161387 
L 258.269875 141.675514 
L 262.583378 140.18028 
L 266.630459 138.187871 
L 269.595993 135.701998 
L 272.022338 133.212414 
L 274.448684 131.71718 
L 279.843734 129.231306 
L 280.652516 129.728481 
L 280.92211 130.72283 
L 280.382922 131.220005 
L 279.570969 130.225656 
L 278.492593 129.728481 
L 277.144623 128.730421 
L 275.52706 128.233247 
L 274.17909 128.730421 
L 272.83112 129.728481 
L 271.213556 130.72283 
L 269.056805 133.709589 
L 268.248023 133.709589 
L 267.439241 134.206763 
L 266.630459 135.201113 
L 266.091271 136.199172 
L 265.552084 136.199172 
L 265.552084 134.206763 
L 265.552084 134.703938 
L 265.821678 136.696347 
L 266.630459 138.187871 
L 267.169647 138.187871 
L 267.978429 136.696347 
L 266.630459 136.696347 
L 265.28249 137.193522 
L 264.743302 138.187871 
L 264.743302 137.690696 
L 265.28249 137.193522 
L 265.28249 136.199172 
L 264.473708 136.696347 
L 263.93452 137.193522 
L 263.39216 138.187871 
L 262.852972 138.688756 
L 262.852972 138.688756 
L 263.122566 138.688756 
L 263.39216 139.683105 
L 263.39216 140.677454 
L 263.93452 141.675514 
L 263.93452 141.675514 
L 263.661754 142.172689 
L 262.852972 141.675514 
L 262.313785 140.677454 
L 262.313785 141.174629 
L 262.852972 142.172689 
L 262.044191 140.677454 
L 262.313785 140.677454 
L 262.583378 141.675514 
L 262.583378 142.669863 
L 262.583378 142.669863 
L 262.852972 142.172689 
L 263.122566 142.669863 
L 262.852972 143.167038 
L 262.313785 143.167038 
L 262.313785 143.167038 
L 262.583378 143.664213 
L 262.583378 144.662272 
L 262.044191 144.161387 
L 262.044191 143.664213 
L 262.583378 143.664213 
L 262.044191 143.664213 
L 262.044191 143.167038 
L 262.313785 142.669863 
L 262.313785 146.153796 
L 262.044191 147.148146 
L 262.044191 146.650971 
L 261.505003 146.153796 
L 260.696221 145.656622 
L 260.696221 146.153796 
L 260.965815 146.650971 
L 260.965815 146.153796 
L 262.044191 147.148146 
L 262.044191 147.148146 
L 261.235409 147.148146 
L 260.157033 146.650971 
L 260.965815 146.650971 
L 261.235409 147.148146 
L 260.965815 147.649031 
L 260.965815 147.148146 
L 261.235409 146.650971 
L 261.774597 147.649031 
L 261.505003 148.64338 
L 260.965815 148.64338 
L 260.696221 148.146205 
L 261.235409 147.649031 
L 261.235409 147.148146 
L 260.965815 147.148146 
L 260.426627 147.649031 
L 259.887439 147.649031 
L 259.617845 147.148146 
L 259.617845 147.649031 
L 260.157033 149.140555 
L 260.157033 150.134904 
L 259.617845 148.64338 
L 259.617845 147.148146 
L 260.157033 147.148146 
L 260.157033 148.146205 
L 259.887439 150.134904 
L 260.157033 149.637729 
L 260.426627 148.64338 
L 260.696221 148.146205 
L 260.965815 148.146205 
L 261.235409 148.64338 
L 262.044191 148.64338 
L 263.39216 148.146205 
L 267.169647 146.153796 
L 269.326399 145.656622 
L 272.83112 144.161387 
L 286.853177 137.690696 
L 291.705868 134.703938 
L 296.292137 132.715239 
L 310.85021 125.246488 
L 315.166885 123.25779 
L 320.019576 121.762555 
L 330.806505 118.775797 
L 335.92879 116.783388 
L 339.9727 115.789039 
L 343.480593 115.291864 
L 347.254908 114.297515 
L 351.029223 111.807931 
L 354.26435 108.821173 
L 357.769072 106.828764 
L 361.276965 107.325939 
L 363.972904 107.325939 
L 366.129656 106.828764 
L 368.016813 105.834415 
L 369.634377 105.33724 
L 370.712753 105.33724 
L 371.251941 104.840065 
L 372.330317 104.840065 
L 372.330317 105.33724 
L 371.251941 105.834415 
L 370.443159 106.331589 
L 369.903971 106.828764 
L 369.364783 107.823113 
L 368.286407 107.823113 
L 366.938438 106.828764 
L 365.860062 105.834415 
L 365.05128 106.331589 
L 363.972904 106.331589 
L 362.894528 106.828764 
L 362.085747 107.823113 
L 362.085747 110.312697 
L 361.546559 109.815522 
L 361.546559 108.821173 
L 362.085747 109.318348 
L 362.355341 109.815522 
L 362.085747 109.815522 
L 361.546559 108.821173 
L 361.546559 108.821173 
L 361.276965 109.318348 
L 361.276965 112.802281 
L 360.737777 113.79663 
L 360.468183 113.79663 
L 360.737777 113.299455 
L 360.737777 113.79663 
L 360.468183 114.297515 
L 360.737777 114.297515 
L 360.737777 113.79663 
L 360.468183 112.802281 
L 359.928995 111.807931 
L 359.659401 112.305106 
L 359.117041 114.79469 
L 359.117041 111.807931 
L 359.659401 111.310757 
L 359.928995 112.305106 
L 359.928995 113.79663 
L 359.389807 114.297515 
L 359.117041 113.79663 
L 358.847448 114.297515 
L 359.117041 114.79469 
L 359.117041 114.297515 
L 358.577854 115.291864 
L 358.30826 116.286214 
L 358.577854 116.783388 
L 359.117041 115.291864 
L 359.117041 114.297515 
L 358.847448 113.79663 
L 358.30826 113.299455 
L 358.577854 114.297515 
L 358.577854 114.79469 
L 357.769072 114.79469 
L 356.96029 115.291864 
L 356.690696 114.79469 
L 356.690696 114.297515 
L 356.96029 113.79663 
L 357.769072 113.79663 
L 358.038666 114.79469 
L 357.769072 115.789039 
L 357.499478 115.789039 
L 357.769072 114.79469 
L 358.30826 114.297515 
L 358.30826 114.79469 
L 357.769072 115.789039 
L 357.229884 116.286214 
L 356.96029 116.286214 
L 357.229884 115.789039 
L 357.499478 116.286214 
L 357.499478 116.286214 
L 357.769072 116.286214 
L 358.30826 116.783388 
L 358.577854 116.783388 
L 356.96029 115.291864 
L 356.421102 115.291864 
L 356.96029 116.286214 
L 357.229884 116.286214 
L 357.769072 117.284273 
L 358.30826 117.284273 
L 358.30826 116.286214 
L 357.769072 115.789039 
L 356.96029 115.291864 
L 356.690696 115.789039 
L 357.229884 116.783388 
L 357.499478 117.781448 
L 357.229884 118.775797 
L 357.229884 119.272972 
L 357.229884 119.272972 
L 356.96029 119.272972 
L 356.690696 118.775797 
L 356.421102 117.284273 
L 356.690696 116.783388 
L 356.96029 117.284273 
L 356.96029 117.284273 
L 356.690696 117.284273 
L 357.229884 118.278623 
L 356.690696 120.768206 
L 356.421102 120.271031 
L 356.690696 119.770147 
L 356.690696 119.272972 
L 356.690696 119.770147 
L 356.96029 120.271031 
L 357.229884 119.770147 
L 356.96029 119.770147 
L 356.690696 119.272972 
L 356.690696 119.770147 
L 356.96029 121.265381 
L 357.229884 121.265381 
L 356.96029 120.768206 
L 356.690696 121.265381 
L 356.421102 123.25779 
L 356.151508 122.756905 
L 356.421102 121.265381 
L 356.96029 120.768206 
L 357.499478 120.768206 
L 358.038666 121.265381 
L 357.499478 120.768206 
L 356.96029 121.265381 
L 356.96029 121.762555 
L 356.96029 121.762555 
L 357.229884 121.762555 
L 356.96029 122.25973 
L 356.151508 122.25973 
L 356.690696 122.25973 
L 357.499478 121.762555 
L 357.229884 121.762555 
L 356.96029 122.756905 
L 356.96029 123.754964 
L 356.96029 122.756905 
L 356.690696 120.768206 
L 356.421102 120.271031 
L 355.881914 121.762555 
L 356.151508 124.252139 
L 356.421102 124.749314 
L 356.690696 123.754964 
L 356.96029 123.25779 
L 357.229884 123.25779 
L 356.96029 123.754964 
L 356.96029 123.754964 
L 356.96029 123.25779 
L 356.421102 122.756905 
L 356.421102 124.749314 
L 355.881914 125.743663 
L 355.61232 126.741723 
L 355.881914 126.741723 
L 355.61232 125.743663 
L 355.61232 125.246488 
L 355.881914 124.749314 
L 355.881914 124.749314 
L 355.61232 124.749314 
L 355.881914 124.252139 
L 356.151508 124.252139 
L 355.881914 124.749314 
L 355.61232 124.749314 
L 355.073132 125.246488 
L 355.073132 126.741723 
L 355.342726 126.244548 
L 355.342726 125.246488 
L 355.61232 124.252139 
L 355.881914 124.252139 
L 355.881914 124.749314 
L 355.61232 125.246488 
L 355.073132 125.743663 
L 355.073132 126.741723 
L 355.61232 126.741723 
L 356.151508 126.244548 
L 356.421102 125.743663 
L 356.690696 124.749314 
L 356.690696 123.754964 
L 356.421102 123.754964 
L 355.881914 124.749314 
L 355.881914 125.246488 
L 355.61232 125.743663 
L 355.61232 127.238897 
L 355.881914 127.736072 
L 355.61232 128.233247 
L 355.073132 127.238897 
L 355.073132 126.741723 
L 354.803538 126.741723 
L 355.073132 126.741723 
L 355.342726 127.238897 
L 355.342726 128.233247 
L 355.342726 128.233247 
L 355.881914 128.233247 
L 355.881914 128.730421 
L 355.61232 129.231306 
L 355.342726 129.231306 
L 355.342726 129.728481 
L 355.342726 127.238897 
L 355.61232 126.741723 
L 355.61232 127.238897 
L 355.881914 128.233247 
L 355.881914 129.231306 
L 354.533944 129.231306 
L 354.803538 128.730421 
L 355.61232 128.233247 
L 356.151508 128.730421 
L 356.151508 129.728481 
L 355.61232 130.225656 
L 354.803538 130.72283 
L 354.26435 130.72283 
L 354.803538 130.225656 
L 355.61232 130.72283 
L 355.881914 131.220005 
L 355.881914 132.214354 
L 355.342726 131.220005 
L 355.342726 129.231306 
L 355.342726 129.231306 
L 354.533944 130.72283 
L 353.994756 130.72283 
L 354.26435 130.72283 
L 355.342726 130.225656 
L 356.151508 130.225656 
L 356.151508 130.72283 
L 355.342726 130.72283 
L 355.881914 131.220005 
L 355.881914 131.71718 
L 355.342726 131.71718 
L 355.073132 131.220005 
L 355.073132 131.220005 
L 355.61232 130.72283 
L 355.61232 130.225656 
L 355.073132 130.225656 
L 355.61232 130.225656 
L 355.342726 130.72283 
L 354.803538 130.72283 
L 353.994756 130.225656 
L 353.455569 129.728481 
L 353.455569 129.231306 
L 353.994756 129.728481 
L 354.26435 129.728481 
L 353.994756 129.728481 
L 353.994756 129.231306 
L 354.26435 129.728481 
L 354.26435 131.71718 
L 354.26435 129.728481 
L 353.725163 129.231306 
L 353.455569 130.72283 
L 353.455569 132.214354 
L 353.725163 132.214354 
L 353.994756 130.72283 
L 354.26435 130.72283 
L 354.26435 131.220005 
L 353.185975 133.212414 
L 352.377193 133.709589 
L 348.602878 133.709589 
L 346.985314 134.206763 
L 345.637344 135.701998 
L 342.938233 137.193522 
L 339.433512 138.688756 
L 335.659196 139.683105 
L 331.615287 141.174629 
L 327.029018 143.664213 
L 322.176327 146.650971 
L 317.054042 148.64338 
L 311.931757 149.637729 
L 306.806301 151.132964 
L 301.684016 153.618837 
L 296.292137 156.605595 
L 291.16668 159.592353 
L 286.583583 163.079997 
L 281.730892 166.56393 
L 276.066247 169.053513 
L 270.404775 171.042212 
L 265.012896 173.531796 
L 259.348251 176.021379 
L 254.765154 178.510963 
L 250.990839 181.497721 
L 247.482946 183.983594 
L 243.439037 186.473178 
L 239.395127 189.459936 
L 235.620812 192.943869 
L 231.573731 195.930627 
L 227.529822 197.923036 
L 223.216319 199.915445 
L 219.442004 201.904144 
L 216.206876 204.890902 
L 213.238171 208.374835 
L 210.542232 210.367244 
L 208.655074 210.864419 
L 205.689541 209.87007 
L 203.263195 210.864419 
L 201.915225 211.862478 
L 201.376038 211.862478 
L 201.376038 211.862478 
L 201.645631 212.856828 
L 201.376038 214.348352 
L 201.376038 215.346411 
L 202.184819 215.843586 
L 204.611165 211.361594 
L 205.150353 211.361594 
L 205.150353 211.862478 
L 204.880759 213.354002 
L 205.150353 213.851177 
L 205.689541 214.348352 
L 205.689541 214.348352 
L 205.419947 214.348352 
L 205.419947 214.849237 
L 205.150353 215.346411 
L 204.880759 215.346411 
L 204.341571 214.849237 
L 204.341571 213.851177 
L 204.341571 213.851177 
L 204.611165 213.354002 
L 205.150353 213.354002 
L 205.150353 213.851177 
L 204.611165 213.851177 
L 204.071977 213.354002 
L 204.071977 213.354002 
L 204.341571 213.851177 
L 204.611165 213.851177 
L 204.611165 212.856828 
L 204.611165 212.856828 
L 204.071977 214.849237 
L 203.532789 214.849237 
L 203.263195 213.354002 
L 202.724007 212.856828 
L 203.263195 213.851177 
L 204.611165 213.851177 
L 204.611165 212.856828 
L 204.341571 212.359653 
L 204.071977 212.856828 
L 204.071977 213.354002 
L 203.802383 213.851177 
L 202.993601 213.851177 
L 202.724007 213.354002 
L 202.724007 212.856828 
L 203.532789 212.856828 
L 204.071977 212.359653 
L 204.341571 211.862478 
L 204.071977 211.361594 
L 204.071977 211.361594 
L 204.071977 212.359653 
L 203.532789 212.856828 
L 203.263195 211.361594 
L 203.532789 210.864419 
L 203.532789 211.862478 
L 203.532789 211.862478 
L 203.802383 211.361594 
L 204.071977 211.862478 
L 204.071977 211.361594 
L 203.532789 210.864419 
L 202.454413 211.361594 
L 201.645631 211.862478 
L 201.106444 210.864419 
L 201.376038 208.374835 
L 201.915225 207.380486 
L 202.184819 207.877661 
L 202.184819 210.367244 
L 201.645631 211.361594 
L 201.106444 211.361594 
L 201.106444 210.367244 
L 200.83685 210.367244 
L 200.567256 209.87007 
L 200.567256 208.87572 
L 201.106444 208.374835 
L 201.106444 209.372895 
L 200.83685 208.87572 
L 201.106444 208.374835 
L 201.106444 208.87572 
L 200.567256 208.87572 
L 201.106444 208.374835 
L 201.106444 207.877661 
L 200.83685 207.380486 
L 200.567256 206.386137 
L 200.567256 205.388077 
L 200.567256 205.888962 
L 200.297662 207.380486 
L 199.755302 208.374835 
L 198.94652 208.374835 
L 199.216114 208.374835 
L 200.297662 207.877661 
L 200.83685 207.877661 
L 200.024896 207.877661 
L 200.024896 208.374835 
L 200.297662 208.87572 
L 200.024896 209.372895 
L 200.024896 207.877661 
L 200.024896 208.374835 
L 199.755302 209.372895 
L 199.755302 209.372895 
L 199.485708 208.374835 
L 199.216114 206.386137 
L 198.94652 206.883311 
L 198.94652 206.386137 
L 198.676926 206.386137 
L 198.407332 206.883311 
L 198.407332 207.380486 
L 198.676926 206.883311 
L 198.94652 206.883311 
L 199.216114 207.380486 
L 198.407332 205.888962 
L 198.407332 204.890902 
L 199.216114 204.890902 
L 199.485708 205.388077 
L 199.216114 205.888962 
L 199.216114 206.883311 
L 198.94652 206.386137 
L 198.676926 205.388077 
L 198.676926 204.890902 
L 198.676926 205.388077 
L 198.407332 205.388077 
L 198.137738 204.890902 
L 198.137738 204.393728 
L 198.407332 204.393728 
L 198.137738 204.890902 
L 197.868145 205.888962 
L 198.137738 206.386137 
L 198.407332 206.386137 
L 198.94652 207.380486 
L 199.216114 206.883311 
L 198.94652 205.388077 
L 198.407332 203.896553 
L 198.676926 204.393728 
L 198.94652 203.896553 
L 198.94652 205.388077 
L 198.676926 206.386137 
L 198.407332 206.883311 
L 198.407332 205.388077 
L 198.676926 204.393728 
L 198.94652 204.393728 
L 199.485708 204.890902 
L 199.485708 205.388077 
L 199.216114 205.388077 
L 199.216114 205.388077 
L 198.94652 204.890902 
L 198.407332 204.393728 
L 198.137738 203.399378 
L 198.407332 203.399378 
L 198.407332 204.393728 
L 198.676926 204.890902 
L 199.216114 204.393728 
L 199.755302 203.399378 
L 199.485708 202.902204 
L 198.94652 202.902204 
L 198.676926 203.399378 
L 199.755302 203.399378 
L 199.755302 204.890902 
L 199.755302 204.393728 
L 200.024896 203.399378 
L 200.024896 202.401319 
L 199.485708 202.401319 
L 199.485708 202.401319 
L 199.485708 202.902204 
L 199.216114 203.399378 
L 198.676926 203.896553 
L 198.407332 203.896553 
L 198.407332 201.904144 
L 198.407332 203.399378 
L 198.94652 203.399378 
L 198.94652 203.399378 
L 198.94652 203.896553 
L 198.407332 203.896553 
L 198.407332 202.401319 
L 198.676926 201.904144 
L 198.676926 203.399378 
L 198.676926 203.399378 
L 199.216114 203.399378 
L 199.216114 203.896553 
L 198.94652 204.393728 
L 199.216114 203.896553 
L 199.216114 203.399378 
L 198.676926 203.896553 
L 198.407332 204.890902 
L 198.407332 204.890902 
L 198.676926 205.388077 
L 198.94652 205.388077 
L 198.407332 203.399378 
L 198.676926 203.399378 
L 198.676926 203.896553 
L 198.94652 204.393728 
L 198.676926 203.896553 
L 198.676926 204.393728 
L 198.676926 203.896553 
L 198.137738 202.902204 
L 198.137738 202.401319 
L 198.407332 202.902204 
L 198.676926 202.902204 
L 198.676926 203.896553 
L 198.407332 204.890902 
L 198.137738 204.890902 
L 197.598551 204.393728 
L 197.868145 204.393728 
L 198.94652 203.896553 
L 199.485708 203.399378 
L 198.137738 204.890902 
L 198.137738 204.393728 
L 198.407332 203.896553 
L 198.676926 204.393728 
L 198.676926 202.902204 
L 198.137738 202.902204 
L 198.407332 203.399378 
L 198.94652 203.399378 
L 199.485708 202.902204 
L 198.94652 202.401319 
L 198.407332 202.902204 
L 198.407332 203.399378 
L 198.94652 203.399378 
L 198.94652 202.902204 
L 198.407332 202.401319 
L 198.137738 201.406969 
L 198.407332 201.406969 
L 198.94652 202.401319 
L 198.676926 203.399378 
L 198.407332 203.399378 
L 198.137738 202.902204 
L 197.598551 203.896553 
L 197.598551 203.399378 
L 197.598551 203.399378 
L 197.868145 203.399378 
L 198.137738 202.902204 
L 198.137738 201.904144 
L 198.407332 201.904144 
L 198.676926 202.902204 
L 198.676926 203.896553 
L 198.137738 203.896553 
L 198.137738 203.896553 
L 198.407332 203.399378 
L 198.407332 201.904144 
L 198.407332 205.888962 
L 198.407332 205.888962 
L 198.676926 204.890902 
L 199.216114 203.399378 
L 199.216114 202.401319 
L 199.755302 202.401319 
L 199.755302 203.399378 
L 199.216114 204.393728 
L 198.676926 203.399378 
L 198.137738 200.909795 
L 197.868145 201.406969 
L 197.868145 202.401319 
L 199.485708 202.401319 
L 199.485708 202.902204 
L 198.94652 203.399378 
L 198.676926 203.896553 
L 198.407332 202.902204 
L 198.137738 202.401319 
L 197.868145 202.902204 
L 197.868145 203.399378 
L 198.137738 203.399378 
L 198.676926 202.401319 
L 198.94652 201.406969 
L 199.216114 200.909795 
L 199.216114 201.406969 
L 199.755302 201.406969 
L 199.485708 201.406969 
L 198.676926 200.909795 
L 198.676926 200.909795 
L 198.676926 202.401319 
L 198.137738 201.904144 
L 197.868145 201.406969 
L 197.868145 201.406969 
L 197.868145 199.915445 
L 197.868145 199.915445 
L 197.598551 199.915445 
L 197.868145 199.915445 
L 197.868145 200.41262 
L 197.868145 200.41262 
L 197.059363 200.41262 
L 196.789769 199.915445 
L 197.598551 201.406969 
L 197.598551 201.904144 
L 197.328957 201.406969 
L 197.059363 201.904144 
L 197.328957 201.406969 
L 197.059363 201.406969 
L 197.059363 202.401319 
L 197.059363 201.406969 
L 196.789769 200.909795 
L 196.520175 200.909795 
L 196.520175 200.909795 
L 196.789769 200.41262 
L 196.520175 200.909795 
L 196.250581 200.909795 
L 196.250581 200.41262 
L 195.711393 201.406969 
L 195.711393 201.406969 
L 195.711393 200.909795 
L 196.250581 199.915445 
L 197.059363 199.418271 
L 197.598551 199.915445 
L 197.328957 201.406969 
L 196.789769 201.904144 
L 196.250581 200.909795 
L 196.520175 199.418271 
L 196.250581 199.915445 
L 195.711393 200.41262 
L 195.980987 199.915445 
L 197.059363 199.915445 
L 197.328957 200.41262 
L 197.059363 200.41262 
L 196.789769 201.406969 
L 196.250581 202.401319 
L 196.789769 201.406969 
L 197.328957 201.406969 
L 197.059363 201.904144 
L 196.520175 201.406969 
L 195.980987 199.915445 
L 195.980987 198.917386 
L 195.980987 199.915445 
L 195.711393 201.904144 
L 195.980987 202.401319 
L 195.980987 200.909795 
L 196.250581 199.418271 
L 196.520175 199.418271 
L 196.789769 200.41262 
L 197.328957 199.915445 
L 198.137738 198.420211 
L 199.485708 196.928687 
L 201.645631 197.425862 
L 204.341571 196.928687 
L 207.03751 195.433453 
L 210.003044 193.941929 
L 213.238171 192.446695 
L 217.554846 191.94952 
L 222.677131 190.955171 
L 228.06901 189.459936 
L 233.464061 186.970353 
L 238.316752 184.484479 
L 243.439037 180.499661 
L 249.103681 176.518554 
L 255.034748 173.531796 
L 260.965815 172.040272 
L 266.630459 170.047863 
L 277.414217 163.079997 
L 289.279523 157.10648 
L 300.336046 152.127313 
L 305.997519 150.635789 
L 311.662163 149.637729 
L 317.862824 147.148146 
L 328.919348 142.172689 
L 334.311227 139.683105 
L 339.163918 137.193522 
L 348.602878 133.212414 
L 353.455569 130.72283 
L 358.038666 128.233247 
L 362.894528 125.246488 
L 367.477625 123.25779 
L 371.251941 121.762555 
L 375.026256 119.770147 
L 382.578058 116.783388 
L 386.082779 115.789039 
L 388.778719 114.79469 
L 393.634582 114.79469 
L 395.791333 113.79663 
L 397.408897 112.305106 
L 398.487273 110.809872 
L 397.948085 109.815522 
L 397.408897 109.318348 
L 396.869709 109.815522 
L 396.060927 110.312697 
L 394.982551 111.310757 
L 393.634582 111.807931 
L 392.556206 112.802281 
L 391.747424 113.79663 
L 389.587501 113.79663 
L 388.509125 114.297515 
L 386.621967 117.781448 
L 386.352373 117.781448 
L 386.621967 118.775797 
L 386.621967 120.271031 
L 386.352373 121.265381 
L 385.813186 120.271031 
L 385.543592 118.775797 
L 385.813186 118.278623 
L 386.082779 119.272972 
L 386.082779 122.756905 
L 386.082779 121.762555 
L 386.621967 121.265381 
L 386.891561 122.756905 
L 386.621967 123.25779 
L 384.195622 123.25779 
L 384.195622 123.754964 
L 384.465216 125.743663 
L 383.926028 124.749314 
L 382.847652 123.754964 
L 382.03887 123.754964 
L 381.769276 124.252139 
L 381.769276 124.749314 
L 382.308464 124.749314 
L 382.847652 125.246488 
L 382.578058 125.246488 
L 381.769276 126.244548 
L 381.230088 126.244548 
L 381.499682 125.246488 
L 382.03887 123.754964 
L 382.578058 123.25779 
L 382.578058 123.754964 
L 381.499682 124.749314 
L 381.499682 125.743663 
L 381.769276 126.244548 
L 380.151713 126.244548 
L 380.690901 126.244548 
L 380.421307 125.743663 
L 380.960495 125.743663 
L 381.499682 126.244548 
L 381.499682 127.238897 
L 380.960495 127.736072 
L 380.690901 126.741723 
L 380.151713 126.244548 
L 379.882119 127.238897 
L 379.882119 128.233247 
L 380.690901 127.736072 
L 380.960495 126.741723 
L 380.690901 126.244548 
L 380.151713 126.741723 
L 380.151713 127.736072 
L 379.882119 127.736072 
L 379.882119 126.741723 
L 380.151713 125.743663 
L 380.421307 125.743663 
L 380.151713 127.238897 
L 379.612525 128.730421 
L 379.342931 128.233247 
L 379.073337 126.244548 
L 378.803743 127.238897 
L 378.534149 127.736072 
L 378.534149 127.238897 
L 378.534149 127.238897 
L 378.803743 127.736072 
L 379.612525 128.233247 
L 380.151713 128.730421 
L 380.151713 129.728481 
L 379.612525 129.728481 
L 379.073337 128.730421 
L 378.803743 127.238897 
L 378.534149 127.238897 
L 377.725367 130.225656 
L 377.725367 130.72283 
L 378.264555 130.225656 
L 378.803743 130.225656 
L 378.803743 130.225656 
L 378.264555 129.728481 
L 378.803743 129.728481 
L 379.612525 129.231306 
L 379.612525 129.231306 
L 378.803743 129.231306 
L 377.725367 129.728481 
L 377.186179 129.231306 
L 377.455773 128.730421 
L 378.264555 129.231306 
L 378.534149 129.231306 
L 378.264555 129.231306 
L 378.534149 129.728481 
L 378.264555 130.72283 
L 377.725367 131.220005 
L 377.186179 130.225656 
L 376.916585 129.231306 
L 376.916585 128.233247 
L 377.186179 128.233247 
L 376.916585 128.233247 
L 376.646991 128.730421 
L 375.83821 129.728481 
L 375.83821 130.225656 
L 376.107803 130.225656 
L 376.377397 129.728481 
L 376.377397 129.231306 
L 376.916585 128.730421 
L 378.264555 128.730421 
L 378.264555 128.730421 
L 377.994961 129.231306 
L 377.455773 130.72283 
L 377.455773 132.214354 
L 377.455773 131.220005 
L 376.916585 130.72283 
L 376.377397 130.72283 
L 376.377397 131.71718 
L 376.916585 131.71718 
L 377.186179 131.220005 
L 376.646991 131.71718 
L 376.107803 131.71718 
L 376.107803 132.214354 
L 376.646991 131.220005 
L 376.916585 131.220005 
L 376.377397 130.72283 
L 375.568616 129.728481 
L 375.568616 129.728481 
L 375.83821 130.72283 
L 376.107803 131.220005 
L 376.377397 131.220005 
L 375.83821 131.71718 
L 375.299022 131.71718 
L 375.568616 130.72283 
L 376.377397 130.72283 
L 377.455773 132.214354 
L 376.916585 131.71718 
L 376.107803 131.71718 
L 375.299022 132.214354 
L 375.299022 132.715239 
L 376.107803 132.715239 
L 376.916585 131.71718 
L 377.186179 131.71718 
L 376.916585 132.715239 
L 376.377397 132.715239 
L 375.568616 131.220005 
L 375.83821 131.71718 
L 376.107803 131.71718 
L 375.568616 132.715239 
L 375.568616 132.715239 
L 375.568616 132.214354 
L 375.026256 131.220005 
L 375.299022 131.220005 
L 375.83821 132.214354 
L 376.377397 132.715239 
L 376.377397 132.214354 
L 375.568616 130.72283 
L 376.646991 132.715239 
L 376.916585 132.715239 
L 376.646991 132.214354 
L 375.83821 132.214354 
L 374.756662 134.206763 
L 374.756662 134.703938 
L 374.487068 133.709589 
L 374.487068 132.715239 
L 374.756662 132.214354 
L 375.299022 132.214354 
L 375.026256 131.71718 
L 374.217474 131.220005 
L 373.678286 131.220005 
L 373.678286 131.220005 
L 374.217474 132.214354 
L 374.756662 132.214354 
L 375.026256 132.715239 
L 375.026256 132.715239 
L 375.026256 132.214354 
L 374.756662 131.220005 
L 374.756662 130.72283 
L 374.756662 131.71718 
L 375.026256 132.214354 
L 375.568616 131.71718 
L 375.299022 131.220005 
L 375.299022 131.220005 
L 375.568616 130.72283 
L 375.568616 130.72283 
L 373.94788 132.214354 
L 373.94788 131.71718 
L 373.139098 131.71718 
L 373.139098 130.72283 
L 373.408692 130.225656 
L 373.94788 129.728481 
L 373.408692 130.225656 
L 373.408692 132.214354 
L 373.408692 130.225656 
L 373.678286 129.728481 
L 373.94788 129.728481 
L 374.217474 130.225656 
L 373.678286 130.225656 
L 372.869504 130.72283 
L 372.59991 130.72283 
L 373.139098 130.72283 
L 373.408692 131.220005 
L 373.408692 131.220005 
L 373.678286 130.72283 
L 373.94788 130.72283 
L 373.139098 130.72283 
L 372.59991 131.71718 
L 372.330317 131.71718 
L 372.330317 130.72283 
L 372.59991 130.225656 
L 373.139098 130.225656 
L 372.59991 132.214354 
L 372.330317 132.214354 
L 372.330317 132.214354 
L 372.59991 132.715239 
L 372.869504 132.715239 
L 372.330317 131.71718 
L 372.060723 130.72283 
L 372.869504 132.214354 
L 373.139098 131.71718 
L 373.408692 130.225656 
L 372.869504 130.72283 
L 372.59991 130.72283 
L 371.791129 131.220005 
L 371.521535 132.214354 
L 371.791129 132.214354 
L 372.59991 133.709589 
L 372.330317 133.212414 
L 372.060723 131.71718 
L 372.060723 130.72283 
L 372.330317 130.225656 
L 373.139098 130.225656 
L 373.139098 130.72283 
L 372.060723 130.72283 
L 372.060723 131.220005 
L 372.330317 130.72283 
L 372.330317 130.225656 
L 371.521535 130.225656 
L 371.251941 130.72283 
L 371.521535 131.71718 
L 372.060723 132.715239 
L 372.330317 132.214354 
L 371.251941 129.231306 
L 371.251941 128.730421 
L 371.521535 129.231306 
L 372.060723 131.220005 
L 372.060723 131.220005 
L 372.330317 130.72283 
L 372.330317 130.72283 
L 371.791129 130.72283 
L 370.982347 130.225656 
L 370.443159 129.728481 
L 370.712753 130.225656 
L 371.251941 132.214354 
L 371.251941 132.214354 
L 371.521535 131.71718 
L 371.791129 132.214354 
L 371.791129 132.715239 
L 371.791129 132.214354 
L 372.060723 131.220005 
L 371.521535 131.220005 
L 371.791129 131.220005 
L 372.330317 130.225656 
L 372.060723 130.225656 
L 371.791129 129.728481 
L 371.521535 128.730421 
L 371.521535 128.730421 
L 371.521535 129.231306 
L 371.791129 130.225656 
L 371.791129 131.220005 
L 371.251941 132.214354 
L 371.251941 131.71718 
L 371.791129 131.220005 
L 372.060723 131.220005 
L 372.060723 131.220005 
L 371.521535 130.72283 
L 371.521535 131.71718 
L 371.791129 131.71718 
L 372.060723 131.220005 
L 372.59991 131.220005 
L 372.330317 131.71718 
L 371.251941 130.72283 
L 370.712753 129.231306 
L 370.982347 129.231306 
L 371.251941 129.728481 
L 371.251941 130.225656 
L 371.251941 129.231306 
L 371.521535 128.730421 
L 372.330317 129.231306 
L 372.59991 129.728481 
L 372.330317 129.728481 
L 372.330317 128.233247 
L 372.060723 128.730421 
L 371.791129 129.728481 
L 371.521535 129.728481 
L 371.791129 129.728481 
L 372.060723 130.72283 
L 371.791129 131.220005 
L 371.521535 130.72283 
L 371.521535 130.225656 
L 372.060723 130.225656 
L 372.060723 130.225656 
L 371.791129 130.72283 
L 372.060723 131.71718 
L 372.060723 132.214354 
L 371.521535 131.71718 
L 370.982347 131.71718 
L 370.982347 131.71718 
L 372.060723 130.72283 
L 372.330317 130.225656 
L 372.330317 127.238897 
L 372.060723 127.238897 
L 371.251941 128.730421 
L 371.521535 128.233247 
L 371.521535 128.730421 
L 371.251941 129.231306 
L 370.982347 129.231306 
L 370.712753 128.730421 
L 371.251941 128.730421 
L 371.521535 127.736072 
L 371.521535 126.741723 
L 371.251941 126.244548 
L 371.251941 126.244548 
L 370.982347 126.741723 
L 371.251941 127.238897 
L 371.251941 126.244548 
L 371.521535 125.246488 
L 371.791129 125.246488 
L 371.791129 126.244548 
L 371.791129 125.743663 
L 372.060723 125.743663 
L 371.791129 125.743663 
L 371.251941 123.754964 
L 371.251941 123.754964 
L 371.251941 124.252139 
L 371.521535 125.246488 
L 371.521535 125.246488 
L 371.791129 125.246488 
L 371.791129 125.743663 
L 371.791129 123.754964 
L 371.251941 122.756905 
L 370.982347 121.762555 
L 370.982347 121.762555 
L 370.982347 122.25973 
L 371.251941 122.756905 
L 371.251941 123.25779 
L 371.521535 123.754964 
L 372.060723 122.756905 
L 371.791129 122.756905 
L 371.791129 121.762555 
L 371.521535 120.271031 
L 370.712753 118.775797 
L 369.634377 118.775797 
L 369.634377 118.278623 
L 369.634377 118.278623 
L 369.903971 117.284273 
L 369.903971 116.286214 
L 369.634377 116.286214 
L 369.634377 116.783388 
L 369.095189 117.781448 
L 369.364783 118.278623 
L 369.903971 118.278623 
L 369.903971 117.781448 
L 369.364783 117.284273 
L 369.364783 115.789039 
L 369.364783 115.789039 
L 369.095189 114.79469 
L 368.556001 114.297515 
L 367.208032 114.297515 
L 367.477625 113.79663 
L 367.477625 112.305106 
L 366.938438 112.305106 
L 366.668844 112.802281 
L 366.938438 113.79663 
L 366.938438 113.79663 
L 366.938438 111.807931 
L 366.668844 110.809872 
L 366.39925 110.312697 
L 366.938438 110.809872 
L 367.208032 110.809872 
L 367.747219 111.310757 
L 368.016813 111.310757 
L 367.747219 112.305106 
L 366.39925 112.305106 
L 366.129656 113.299455 
L 365.860062 113.299455 
L 365.320874 111.807931 
L 365.320874 110.809872 
L 365.590468 110.809872 
L 365.860062 110.312697 
L 365.860062 109.815522 
L 366.129656 108.821173 
L 366.938438 110.312697 
L 366.938438 110.312697 
L 366.668844 109.318348 
L 366.129656 108.323998 
L 365.320874 107.823113 
L 364.781686 107.325939 
L 364.242498 107.325939 
L 364.512092 107.823113 
L 365.320874 108.323998 
L 365.860062 108.821173 
L 365.590468 109.318348 
L 364.781686 109.318348 
L 364.242498 108.821173 
L 363.972904 107.823113 
L 364.512092 107.823113 
L 365.05128 108.323998 
L 365.05128 107.823113 
L 364.781686 106.828764 
L 364.512092 106.331589 
L 364.242498 107.325939 
L 364.242498 107.823113 
L 364.512092 107.823113 
L 364.512092 107.823113 
L 364.512092 104.840065 
L 364.781686 104.840065 
L 364.781686 105.33724 
L 365.320874 105.834415 
L 365.320874 105.33724 
L 364.781686 105.834415 
L 364.512092 105.834415 
L 364.512092 105.33724 
L 364.512092 105.33724 
L 363.972904 104.840065 
L 363.70331 103.842006 
L 363.70331 103.344831 
L 363.972904 103.344831 
L 363.70331 104.33918 
L 363.70331 104.840065 
L 363.972904 104.33918 
L 363.972904 103.842006 
L 363.70331 103.344831 
L 363.70331 102.847656 
L 363.972904 102.350482 
L 363.70331 102.847656 
L 363.70331 103.344831 
L 363.70331 102.350482 
L 363.972904 102.350482 
L 363.433716 102.350482 
L 363.70331 102.350482 
L 363.70331 102.847656 
L 363.70331 102.847656 
L 363.164122 102.847656 
L 362.894528 102.350482 
L 363.433716 100.358073 
L 363.433716 100.855248 
L 363.164122 102.847656 
L 363.433716 103.842006 
L 363.433716 103.842006 
L 363.70331 103.842006 
L 363.433716 103.842006 
L 363.164122 103.344831 
L 363.433716 102.847656 
L 363.70331 102.847656 
L 363.433716 102.350482 
L 363.433716 101.352422 
L 362.355341 101.352422 
L 362.624934 100.358073 
L 362.894528 99.860898 
L 362.894528 100.358073 
L 362.624934 100.855248 
L 362.624934 101.352422 
L 363.164122 102.350482 
L 362.894528 101.853307 
L 362.624934 100.855248 
L 362.624934 99.860898 
L 363.164122 99.860898 
L 362.894528 100.358073 
L 362.894528 100.358073 
L 363.164122 100.358073 
L 363.164122 100.855248 
L 362.085747 100.358073 
L 361.816153 100.855248 
L 362.355341 100.855248 
L 362.624934 100.358073 
L 363.164122 99.860898 
L 363.164122 99.860898 
L 363.164122 101.352422 
L 362.894528 100.855248 
L 362.894528 99.860898 
L 362.894528 99.860898 
L 362.624934 99.860898 
L 362.894528 98.866549 
L 362.624934 97.868489 
L 362.355341 98.365664 
L 362.624934 100.358073 
L 362.085747 101.352422 
L 361.546559 100.358073 
L 361.276965 98.866549 
L 361.276965 97.868489 
L 362.355341 98.866549 
L 362.355341 98.866549 
L 362.355341 98.365664 
L 362.355341 98.866549 
L 361.276965 98.866549 
L 361.276965 98.365664 
L 361.816153 98.365664 
L 361.007371 98.365664 
L 360.468183 97.868489 
L 360.468183 97.371315 
L 361.276965 97.371315 
L 361.276965 98.365664 
L 361.007371 98.365664 
L 360.737777 97.868489 
L 360.737777 95.378906 
L 360.468183 95.879791 
L 360.468183 97.371315 
L 360.737777 98.866549 
L 361.276965 98.866549 
L 361.546559 98.365664 
L 361.007371 97.868489 
L 360.468183 97.868489 
L 360.737777 97.868489 
L 360.737777 98.365664 
L 360.468183 98.365664 
L 360.737777 98.866549 
L 361.007371 98.866549 
L 360.468183 98.365664 
L 359.659401 97.868489 
L 359.659401 98.365664 
L 360.737777 98.365664 
L 361.276965 97.371315 
L 361.007371 97.868489 
L 360.737777 99.363724 
L 359.928995 99.363724 
L 359.659401 97.868489 
L 359.928995 97.371315 
L 360.198589 97.868489 
L 360.198589 99.363724 
L 360.468183 98.866549 
L 360.468183 98.365664 
L 361.007371 97.868489 
L 361.007371 96.87414 
L 360.198589 96.376965 
L 359.659401 95.879791 
L 359.117041 96.376965 
L 359.389807 98.365664 
L 359.928995 98.866549 
L 360.198589 98.866549 
L 359.659401 99.860898 
L 359.389807 99.363724 
L 359.389807 97.868489 
L 359.117041 97.371315 
L 358.847448 97.371315 
L 358.847448 97.371315 
L 359.117041 97.868489 
L 360.198589 97.868489 
L 360.468183 98.365664 
L 359.928995 98.866549 
L 359.659401 98.866549 
L 359.659401 98.365664 
L 360.198589 97.371315 
L 359.928995 97.868489 
L 359.928995 96.87414 
L 359.928995 97.371315 
L 359.659401 95.378906 
L 359.117041 93.887382 
L 358.30826 94.384556 
L 358.038666 95.378906 
L 358.30826 95.378906 
L 358.577854 94.881731 
L 357.769072 96.376965 
L 358.30826 96.87414 
L 358.847448 96.376965 
L 358.847448 95.378906 
L 358.577854 94.881731 
L 358.577854 93.390207 
L 358.577854 96.376965 
L 358.577854 95.378906 
L 357.769072 93.887382 
L 357.769072 93.887382 
L 357.769072 94.384556 
L 357.499478 94.384556 
L 357.499478 93.887382 
L 358.038666 93.887382 
L 357.769072 93.887382 
L 357.499478 94.384556 
L 357.229884 95.378906 
L 357.499478 95.879791 
L 357.229884 96.87414 
L 356.690696 96.87414 
L 356.690696 95.879791 
L 357.229884 94.881731 
L 357.499478 94.881731 
L 356.690696 93.390207 
L 355.881914 93.390207 
L 355.881914 93.887382 
L 356.421102 93.390207 
L 356.96029 92.392147 
L 356.96029 92.392147 
L 357.229884 92.893032 
L 356.96029 92.893032 
L 356.690696 92.392147 
L 356.690696 92.392147 
L 356.690696 93.390207 
L 356.421102 94.384556 
L 356.151508 94.881731 
L 356.151508 93.390207 
L 356.421102 92.392147 
L 357.229884 92.392147 
L 357.769072 93.390207 
L 357.229884 94.384556 
L 356.690696 94.384556 
L 355.881914 92.893032 
L 356.421102 94.881731 
L 356.690696 94.881731 
L 356.421102 93.887382 
L 355.881914 93.390207 
L 355.61232 92.893032 
L 355.881914 93.390207 
L 355.61232 93.390207 
L 355.61232 92.893032 
L 355.342726 92.392147 
L 355.342726 92.392147 
L 356.96029 93.390207 
L 356.421102 93.390207 
L 355.61232 92.893032 
L 355.342726 91.894973 
L 355.61232 91.397798 
L 355.881914 91.397798 
L 355.61232 91.894973 
L 355.342726 91.397798 
L 355.61232 90.900623 
L 355.881914 91.397798 
L 355.342726 93.390207 
L 355.342726 93.390207 
L 355.342726 92.893032 
L 355.073132 91.894973 
L 354.803538 91.397798 
L 354.803538 91.397798 
L 355.073132 91.397798 
L 355.073132 92.392147 
L 354.26435 92.392147 
L 353.994756 91.894973 
L 353.994756 91.894973 
L 353.455569 92.893032 
L 353.185975 92.893032 
L 353.725163 91.894973 
L 353.725163 91.894973 
L 354.533944 91.894973 
L 354.533944 92.893032 
L 354.533944 92.392147 
L 353.994756 92.392147 
L 353.455569 91.894973 
L 353.455569 91.397798 
L 353.455569 91.894973 
L 353.994756 91.894973 
L 353.725163 91.397798 
L 353.455569 91.894973 
L 353.994756 92.893032 
L 354.26435 92.893032 
L 353.994756 92.893032 
L 353.725163 92.392147 
L 353.994756 91.894973 
L 353.725163 91.894973 
L 353.455569 90.900623 
L 352.916381 90.403449 
L 352.916381 90.900623 
L 353.185975 91.894973 
L 353.455569 91.894973 
L 353.455569 89.906274 
L 353.455569 90.900623 
L 353.725163 91.397798 
L 353.725163 92.392147 
L 353.455569 92.893032 
L 353.725163 92.893032 
L 353.455569 91.894973 
L 352.646787 91.397798 
L 351.568411 91.397798 
L 351.838005 91.397798 
L 352.646787 91.894973 
L 353.185975 91.894973 
L 353.725163 92.392147 
L 353.725163 92.392147 
L 353.455569 92.392147 
L 353.185975 91.894973 
L 353.185975 90.900623 
L 353.185975 91.397798 
L 353.455569 91.894973 
L 353.725163 92.893032 
L 353.455569 93.390207 
L 352.916381 93.887382 
L 352.916381 93.390207 
L 353.185975 92.392147 
L 352.916381 91.397798 
L 352.646787 91.397798 
L 352.107599 91.894973 
L 351.838005 92.893032 
L 351.568411 93.390207 
L 351.568411 92.392147 
L 351.838005 91.894973 
L 352.107599 92.893032 
L 352.107599 93.390207 
L 352.107599 93.390207 
L 353.185975 93.390207 
L 352.916381 93.390207 
L 351.568411 92.893032 
L 350.759629 92.392147 
L 351.298817 91.894973 
L 351.838005 92.392147 
L 351.838005 92.392147 
L 351.568411 92.392147 
L 352.377193 92.392147 
L 352.646787 92.893032 
L 352.107599 92.893032 
L 352.646787 93.887382 
L 352.916381 93.887382 
L 352.377193 93.390207 
L 352.377193 92.392147 
L 352.107599 92.893032 
L 352.107599 91.894973 
L 352.377193 91.894973 
L 352.377193 92.392147 
L 352.107599 92.392147 
L 352.107599 91.397798 
L 352.377193 90.900623 
L 352.377193 91.894973 
L 352.646787 92.893032 
L 352.646787 92.392147 
L 352.916381 92.392147 
L 352.916381 92.893032 
L 352.916381 92.893032 
L 353.185975 92.893032 
L 353.185975 93.887382 
L 353.185975 93.390207 
L 352.646787 94.384556 
L 352.107599 94.384556 
L 351.838005 93.887382 
L 351.838005 93.390207 
L 352.377193 92.392147 
L 353.185975 91.894973 
L 353.725163 92.392147 
L 353.185975 92.893032 
L 352.377193 92.893032 
L 352.107599 93.887382 
L 352.377193 93.887382 
L 352.646787 92.893032 
L 352.646787 90.900623 
L 352.916381 90.900623 
L 352.377193 91.397798 
L 352.377193 91.894973 
L 352.916381 91.894973 
L 352.916381 91.894973 
L 352.646787 91.397798 
L 352.107599 91.397798 
L 352.107599 91.397798 
L 351.838005 90.900623 
L 351.838005 90.403449 
L 351.838005 91.397798 
L 352.916381 92.392147 
L 352.916381 92.392147 
L 352.646787 92.392147 
L 352.646787 91.894973 
L 352.377193 91.397798 
L 352.107599 91.894973 
L 352.107599 91.894973 
L 352.107599 91.397798 
L 352.377193 90.900623 
L 352.377193 89.906274 
L 352.377193 92.392147 
L 351.838005 91.894973 
L 351.568411 89.906274 
L 351.568411 87.913865 
L 351.568411 88.41104 
L 351.838005 89.405389 
L 351.838005 90.403449 
L 351.838005 89.906274 
L 351.568411 89.906274 
L 352.377193 89.906274 
L 352.107599 90.403449 
L 351.568411 90.900623 
L 351.568411 91.894973 
L 351.838005 92.392147 
L 351.298817 91.894973 
L 350.490035 91.397798 
L 350.220441 91.397798 
L 350.220441 91.894973 
L 350.759629 91.894973 
L 351.029223 91.397798 
L 351.298817 90.403449 
L 351.568411 90.900623 
L 351.838005 92.392147 
L 351.568411 93.887382 
L 351.838005 92.392147 
L 352.107599 91.894973 
L 352.107599 91.894973 
L 352.377193 90.900623 
L 352.377193 90.403449 
L 352.377193 91.397798 
L 352.107599 91.894973 
L 352.107599 91.894973 
L 352.107599 90.900623 
L 352.377193 91.894973 
L 352.107599 92.893032 
L 352.107599 92.893032 
L 351.838005 92.893032 
L 351.568411 92.392147 
L 351.568411 92.392147 
L 352.107599 92.392147 
L 352.107599 91.894973 
L 351.838005 91.894973 
L 351.298817 92.893032 
L 351.298817 93.887382 
L 351.838005 94.384556 
L 352.377193 93.887382 
L 352.377193 92.893032 
L 352.107599 91.894973 
L 351.568411 91.397798 
L 351.298817 90.900623 
L 351.029223 90.900623 
L 350.759629 91.397798 
L 350.490035 92.392147 
L 350.220441 92.893032 
L 350.759629 92.893032 
L 351.568411 91.894973 
L 351.838005 91.894973 
L 352.377193 94.384556 
L 351.838005 94.384556 
L 351.029223 93.390207 
L 351.029223 93.390207 
L 351.298817 93.390207 
L 351.298817 93.390207 
L 351.298817 92.893032 
L 351.568411 92.893032 
L 351.298817 93.887382 
L 350.759629 94.881731 
L 350.759629 91.894973 
L 351.029223 91.397798 
L 351.029223 91.894973 
L 351.298817 92.392147 
L 351.838005 92.392147 
L 351.838005 92.893032 
L 351.838005 92.893032 
L 352.107599 93.390207 
L 352.107599 92.893032 
L 351.838005 92.392147 
L 351.838005 92.392147 
L 350.759629 92.392147 
L 351.298817 93.390207 
L 351.568411 92.893032 
L 351.568411 91.894973 
L 352.107599 91.397798 
L 352.916381 91.894973 
L 352.916381 92.392147 
L 352.377193 93.390207 
L 352.107599 93.390207 
L 352.107599 93.390207 
L 352.107599 92.392147 
L 352.107599 92.893032 
L 351.838005 93.390207 
L 351.838005 92.392147 
L 352.107599 91.397798 
L 351.838005 92.392147 
L 351.568411 93.887382 
L 351.838005 93.887382 
L 352.107599 92.893032 
L 352.377193 92.392147 
L 352.646787 92.392147 
L 352.646787 92.893032 
L 351.568411 92.893032 
L 351.568411 92.893032 
L 351.568411 92.392147 
L 351.568411 92.392147 
L 351.298817 92.392147 
L 351.568411 92.392147 
L 351.568411 90.403449 
L 351.838005 89.405389 
L 352.107599 88.908214 
L 351.838005 88.908214 
L 351.838005 88.908214 
L 351.568411 89.906274 
L 351.029223 91.397798 
L 352.107599 91.397798 
L 352.107599 91.894973 
L 351.568411 92.392147 
L 351.298817 91.397798 
L 351.568411 90.403449 
L 351.838005 90.403449 
L 352.107599 90.900623 
L 351.838005 91.397798 
L 351.029223 91.397798 
L 351.029223 90.900623 
L 351.029223 91.397798 
L 351.298817 92.392147 
L 351.568411 92.893032 
L 351.568411 92.392147 
L 350.220441 92.392147 
L 350.490035 92.893032 
L 351.029223 92.392147 
L 351.029223 91.397798 
L 351.568411 91.894973 
L 351.838005 92.893032 
L 351.838005 92.893032 
L 351.029223 92.392147 
L 350.759629 91.894973 
L 350.759629 92.392147 
L 351.029223 91.894973 
L 351.298817 92.392147 
L 351.298817 93.887382 
L 351.298817 93.390207 
L 351.568411 93.390207 
L 351.568411 92.893032 
L 351.838005 91.894973 
L 351.838005 89.906274 
L 351.298817 91.397798 
L 351.029223 94.881731 
L 351.029223 94.881731 
L 350.759629 93.887382 
L 351.029223 92.392147 
L 351.568411 92.392147 
L 351.568411 93.887382 
L 351.029223 93.887382 
L 351.029223 93.390207 
L 351.298817 92.893032 
L 352.107599 93.390207 
L 352.916381 93.390207 
L 352.916381 93.887382 
L 352.916381 92.893032 
L 352.646787 91.894973 
L 352.107599 92.392147 
L 351.838005 93.390207 
L 351.838005 93.887382 
L 352.107599 93.390207 
L 352.377193 92.392147 
L 352.107599 92.392147 
L 352.377193 93.390207 
L 352.646787 93.390207 
L 352.377193 92.893032 
L 351.568411 92.893032 
L 350.759629 93.390207 
L 350.220441 93.887382 
L 350.490035 93.887382 
L 351.029223 93.390207 
L 351.298817 93.390207 
L 351.029223 93.390207 
L 350.759629 93.887382 
L 351.298817 93.887382 
L 352.107599 93.390207 
L 352.377193 93.390207 
L 351.568411 93.887382 
L 350.490035 92.893032 
L 350.490035 91.397798 
L 351.568411 91.397798 
L 352.377193 91.894973 
L 352.377193 94.384556 
L 352.377193 93.390207 
L 352.107599 92.392147 
L 352.646787 93.390207 
L 352.377193 93.887382 
L 352.107599 93.390207 
L 352.107599 93.390207 
L 352.107599 92.893032 
L 352.107599 92.893032 
L 352.377193 92.893032 
L 352.377193 92.893032 
L 352.107599 91.894973 
L 351.838005 91.397798 
L 351.298817 91.894973 
L 350.759629 92.893032 
L 351.298817 93.390207 
L 352.646787 93.390207 
L 352.646787 93.390207 
L 352.377193 92.893032 
L 352.107599 92.893032 
L 351.568411 93.390207 
L 351.568411 93.887382 
L 351.568411 93.887382 
L 352.377193 93.887382 
L 352.377193 92.893032 
L 351.838005 92.392147 
L 351.298817 92.392147 
L 350.759629 93.390207 
L 351.029223 93.887382 
L 351.029223 94.384556 
L 351.029223 94.384556 
L 351.298817 93.887382 
L 351.838005 93.390207 
L 352.107599 92.893032 
L 351.029223 92.893032 
L 352.107599 92.893032 
L 352.646787 91.894973 
L 352.646787 90.900623 
L 352.377193 91.397798 
L 352.377193 93.390207 
L 351.298817 94.384556 
L 351.568411 94.384556 
L 352.107599 92.893032 
L 352.377193 92.893032 
L 352.377193 94.384556 
L 352.107599 94.881731 
L 351.568411 94.384556 
L 351.298817 93.887382 
L 351.298817 93.887382 
L 351.838005 94.384556 
L 352.107599 93.887382 
L 351.568411 94.881731 
L 351.838005 95.378906 
L 352.646787 93.887382 
L 352.646787 93.390207 
L 352.916381 93.887382 
L 353.185975 93.887382 
L 352.916381 93.887382 
L 352.646787 93.390207 
L 352.107599 93.390207 
L 352.107599 93.390207 
L 352.107599 93.887382 
L 352.107599 93.887382 
L 352.646787 94.881731 
L 352.916381 94.881731 
L 352.916381 95.378906 
L 352.916381 94.881731 
L 353.185975 93.390207 
L 353.185975 92.392147 
L 352.646787 92.392147 
L 352.107599 92.893032 
L 351.838005 92.893032 
L 352.107599 92.893032 
L 352.646787 92.392147 
L 352.646787 91.397798 
L 353.725163 91.397798 
L 354.803538 90.900623 
L 355.61232 89.405389 
L 357.769072 87.41669 
L 358.847448 86.919516 
L 359.389807 86.418631 
L 360.198589 85.424281 
L 361.546559 84.927107 
L 362.894528 83.435583 
L 363.70331 81.443174 
L 364.242498 78.95359 
L 365.860062 75.966832 
L 366.39925 75.966832 
L 366.39925 76.961181 
L 366.39925 72.980074 
L 365.860062 72.482899 
L 365.320874 72.482899 
L 365.05128 71.985724 
L 364.242498 71.985724 
L 364.242498 73.974423 
L 364.242498 73.477248 
L 363.433716 73.477248 
L 365.05128 71.985724 
L 364.781686 71.48855 
L 364.512092 71.48855 
L 363.972904 70.49049 
L 363.70331 70.49049 
L 363.70331 70.987665 
L 363.972904 72.482899 
L 363.972904 72.482899 
L 363.972904 70.49049 
L 363.70331 70.49049 
L 363.70331 70.49049 
L 363.70331 67.503732 
L 363.70331 67.503732 
L 363.433716 68.998966 
L 362.894528 69.496141 
L 363.164122 68.501791 
L 362.894528 67.503732 
L 362.355341 67.503732 
L 362.085747 68.000906 
L 362.085747 69.496141 
L 362.624934 66.509382 
L 363.164122 66.509382 
L 362.085747 68.501791 
L 361.276965 68.000906 
L 361.007371 66.012208 
L 361.546559 64.516974 
L 361.816153 64.516974 
L 361.816153 65.515033 
L 361.546559 66.012208 
L 361.276965 65.515033 
L 361.276965 66.012208 
L 361.546559 67.006557 
L 361.546559 67.006557 
L 360.468183 65.014148 
L 360.468183 63.522624 
L 360.737777 64.019799 
L 360.737777 64.516974 
L 360.737777 63.522624 
L 360.737777 63.522624 
L 361.007371 63.522624 
L 361.546559 64.019799 
L 361.546559 64.019799 
L 361.276965 64.516974 
L 361.007371 64.516974 
L 360.468183 67.006557 
L 360.198589 66.509382 
L 361.276965 64.516974 
L 361.546559 63.522624 
L 361.276965 64.019799 
L 361.007371 66.012208 
L 360.737777 65.515033 
L 360.468183 64.516974 
L 360.198589 64.019799 
L 360.198589 61.530215 
L 361.546559 61.530215 
L 361.276965 61.530215 
L 360.468183 62.02739 
L 359.928995 62.528275 
L 360.468183 63.02545 
L 360.737777 63.522624 
L 360.198589 62.528275 
L 359.659401 62.528275 
L 359.928995 62.528275 
L 360.198589 62.02739 
L 360.737777 61.530215 
L 361.276965 61.530215 
L 361.276965 61.530215 
L 361.276965 61.033041 
L 361.276965 62.02739 
L 361.546559 63.522624 
L 361.816153 62.528275 
L 361.546559 59.044342 
L 362.085747 60.038691 
L 362.085747 60.535866 
L 361.816153 60.038691 
L 361.546559 60.535866 
L 361.546559 60.535866 
L 361.546559 60.038691 
L 361.276965 59.541517 
L 360.737777 60.535866 
L 360.468183 61.530215 
L 360.737777 62.02739 
L 360.737777 62.02739 
L 361.546559 61.530215 
L 362.085747 59.541517 
L 361.816153 57.549108 
L 361.546559 57.549108 
L 361.276965 58.543457 
L 360.737777 60.038691 
L 359.659401 60.038691 
L 359.659401 60.038691 
L 359.928995 60.535866 
L 360.198589 60.535866 
L 360.737777 59.541517 
L 361.007371 59.541517 
L 361.276965 60.038691 
L 361.276965 60.038691 
L 361.007371 59.044342 
L 360.737777 58.543457 
L 360.468183 58.543457 
L 360.198589 59.541517 
L 360.468183 60.038691 
L 361.007371 59.541517 
L 361.276965 59.044342 
L 360.468183 59.044342 
L 360.737777 58.046282 
L 361.276965 57.549108 
L 361.276965 59.541517 
L 361.276965 59.541517 
L 361.546559 59.044342 
L 361.546559 59.044342 
L 361.546559 58.543457 
L 361.007371 57.549108 
L 360.737777 58.046282 
L 360.737777 58.543457 
L 361.007371 58.543457 
L 361.276965 58.046282 
L 361.546559 58.046282 
L 361.816153 57.549108 
L 361.546559 57.051933 
L 361.007371 58.046282 
L 360.737777 58.046282 
L 361.276965 58.046282 
L 361.276965 57.549108 
L 361.007371 57.549108 
L 361.007371 58.046282 
L 361.276965 58.543457 
L 361.276965 57.549108 
L 360.737777 57.051933 
L 360.198589 57.549108 
L 360.468183 58.046282 
L 360.737777 58.046282 
L 360.468183 57.549108 
L 360.198589 58.046282 
L 360.737777 59.044342 
L 361.276965 58.543457 
L 361.546559 58.046282 
L 361.276965 57.549108 
L 360.737777 57.051933 
L 360.468183 56.057584 
L 360.198589 56.554758 
L 360.468183 57.051933 
L 360.468183 55.556699 
L 360.737777 56.554758 
L 360.737777 57.051933 
L 361.276965 57.549108 
L 361.546559 57.051933 
L 361.007371 57.051933 
L 361.007371 56.554758 
L 361.276965 57.051933 
L 361.276965 58.046282 
L 361.007371 59.044342 
L 361.007371 59.541517 
L 361.276965 58.543457 
L 361.276965 57.549108 
L 361.276965 57.549108 
L 361.007371 58.046282 
L 360.737777 58.046282 
L 360.198589 57.051933 
L 360.198589 57.549108 
L 360.737777 57.549108 
L 360.468183 57.051933 
L 360.198589 57.549108 
L 360.198589 58.046282 
L 360.468183 58.543457 
L 360.198589 58.543457 
L 359.928995 59.541517 
L 359.928995 59.541517 
L 360.198589 59.044342 
L 360.737777 58.543457 
L 361.007371 59.044342 
L 361.276965 58.543457 
L 361.007371 58.543457 
L 360.468183 58.046282 
L 360.198589 57.549108 
L 360.198589 57.051933 
L 361.007371 57.051933 
L 361.276965 57.549108 
L 361.276965 57.051933 
L 360.468183 57.051933 
L 361.276965 58.543457 
L 361.276965 59.044342 
L 361.007371 59.044342 
L 361.007371 58.046282 
L 360.737777 58.046282 
L 360.737777 58.046282 
L 361.276965 58.543457 
L 361.546559 59.541517 
L 361.276965 60.038691 
L 360.468183 59.541517 
L 361.007371 59.044342 
L 361.276965 59.044342 
L 361.276965 58.543457 
L 360.468183 59.044342 
L 360.468183 60.038691 
L 360.737777 59.541517 
L 360.737777 58.543457 
L 360.468183 58.543457 
L 360.468183 57.549108 
L 360.198589 57.549108 
L 360.198589 58.543457 
L 360.468183 59.044342 
L 360.737777 59.044342 
L 361.007371 58.046282 
L 361.007371 57.549108 
L 360.737777 58.543457 
L 360.468183 58.543457 
L 360.468183 57.549108 
L 361.007371 57.051933 
L 360.737777 56.554758 
L 360.198589 56.554758 
L 359.928995 57.051933 
L 360.468183 56.057584 
L 360.468183 55.556699 
L 360.198589 56.057584 
L 360.198589 59.541517 
L 360.468183 60.535866 
L 361.007371 59.541517 
L 361.816153 57.051933 
L 361.546559 58.543457 
L 361.007371 59.044342 
L 360.468183 58.543457 
L 360.198589 56.554758 
L 360.468183 55.556699 
L 361.007371 55.556699 
L 361.007371 56.057584 
L 360.468183 56.554758 
L 360.198589 56.057584 
L 360.468183 55.556699 
L 360.737777 56.057584 
L 360.737777 56.554758 
L 360.468183 56.057584 
L 360.737777 56.554758 
L 360.468183 56.554758 
L 360.198589 55.556699 
L 360.198589 55.059524 
L 359.928995 55.556699 
L 360.468183 56.554758 
L 360.737777 56.057584 
L 360.737777 55.059524 
L 360.198589 55.059524 
L 360.198589 55.059524 
L 360.468183 55.556699 
L 360.468183 56.554758 
L 360.198589 57.051933 
L 360.468183 56.554758 
L 360.737777 55.556699 
L 361.007371 53.568 
L 361.007371 54.562349 
L 361.007371 55.556699 
L 360.737777 56.057584 
L 360.198589 56.057584 
L 360.198589 56.057584 
L 360.737777 56.554758 
L 361.007371 55.556699 
L 361.007371 54.562349 
L 360.737777 55.059524 
L 360.468183 56.057584 
L 360.737777 56.057584 
L 360.468183 56.554758 
L 360.198589 56.554758 
L 360.198589 57.549108 
L 359.659401 58.543457 
L 359.928995 57.549108 
L 360.737777 56.057584 
L 360.737777 55.059524 
L 360.198589 55.059524 
L 360.468183 56.057584 
L 361.276965 57.051933 
L 361.816153 58.046282 
L 361.816153 58.046282 
L 361.276965 58.046282 
L 361.276965 59.044342 
L 361.007371 60.038691 
L 361.007371 59.044342 
L 360.737777 58.543457 
L 360.198589 58.543457 
L 359.928995 57.549108 
L 360.737777 55.556699 
L 361.816153 55.059524 
L 361.816153 56.057584 
L 361.546559 57.549108 
L 361.816153 58.543457 
L 362.085747 57.549108 
L 361.546559 56.057584 
L 361.276965 56.554758 
L 361.276965 57.549108 
L 361.007371 58.543457 
L 359.928995 59.541517 
L 360.198589 59.044342 
L 361.007371 59.044342 
L 360.737777 58.543457 
L 360.198589 58.543457 
L 360.198589 58.046282 
L 360.468183 57.051933 
L 361.007371 57.549108 
L 361.007371 58.543457 
L 361.276965 59.044342 
L 361.816153 58.543457 
L 362.085747 58.543457 
L 361.816153 58.046282 
L 361.276965 57.549108 
L 361.816153 57.051933 
L 362.355341 57.051933 
L 362.355341 56.554758 
L 361.816153 56.554758 
L 361.546559 57.051933 
L 361.007371 57.549108 
L 360.468183 58.543457 
L 360.468183 59.044342 
L 360.468183 59.044342 
L 360.198589 59.044342 
L 360.198589 58.543457 
L 361.276965 57.549108 
L 361.546559 57.549108 
L 361.276965 58.046282 
L 361.276965 58.543457 
L 361.546559 59.044342 
L 362.085747 59.541517 
L 362.085747 59.044342 
L 361.546559 58.543457 
L 361.276965 58.046282 
L 361.546559 58.046282 
L 361.816153 57.549108 
L 361.546559 57.051933 
L 361.007371 56.554758 
L 360.737777 57.051933 
L 360.737777 57.051933 
L 361.276965 57.549108 
L 361.816153 57.549108 
L 361.546559 57.549108 
L 361.546559 59.541517 
L 361.276965 60.535866 
L 361.007371 60.535866 
L 361.007371 60.038691 
L 361.546559 57.549108 
L 362.085747 58.046282 
L 362.355341 59.044342 
L 362.355341 59.044342 
L 362.355341 58.543457 
L 362.085747 59.044342 
L 362.085747 60.038691 
L 362.355341 61.033041 
L 362.624934 61.033041 
L 362.894528 59.541517 
L 362.894528 58.543457 
L 362.355341 58.046282 
L 361.816153 60.038691 
L 362.085747 60.038691 
L 362.085747 59.541517 
L 362.355341 59.044342 
L 362.085747 59.541517 
L 361.546559 59.541517 
L 361.546559 59.044342 
L 362.085747 58.543457 
L 362.085747 58.046282 
L 361.546559 57.549108 
L 360.737777 57.549108 
L 361.816153 59.541517 
L 362.085747 59.541517 
L 361.546559 58.543457 
L 361.546559 58.046282 
L 361.546559 59.044342 
L 361.816153 60.038691 
L 362.355341 61.033041 
L 362.624934 60.535866 
L 362.624934 60.038691 
L 362.894528 60.535866 
L 363.433716 60.535866 
L 363.70331 60.038691 
L 363.433716 59.541517 
L 362.894528 59.541517 
L 362.355341 60.535866 
L 362.085747 60.038691 
L 361.816153 58.543457 
L 362.085747 58.046282 
L 362.624934 61.530215 
L 362.624934 62.02739 
L 362.355341 61.033041 
L 362.355341 59.044342 
L 362.085747 59.044342 
L 361.816153 59.541517 
L 362.085747 60.535866 
L 362.085747 61.033041 
L 362.355341 60.038691 
L 362.085747 61.033041 
L 362.085747 61.530215 
L 362.355341 60.535866 
L 362.355341 59.541517 
L 362.085747 59.541517 
L 362.085747 60.535866 
L 361.816153 61.033041 
L 361.816153 61.530215 
L 362.355341 61.033041 
L 362.355341 59.541517 
L 362.624934 59.541517 
L 362.894528 60.535866 
L 362.624934 62.528275 
L 362.355341 63.522624 
L 362.624934 63.02545 
L 362.624934 62.528275 
L 362.085747 62.02739 
L 361.816153 62.02739 
L 362.355341 62.02739 
L 362.355341 62.528275 
L 362.085747 62.02739 
L 362.355341 61.530215 
L 362.624934 60.038691 
L 362.355341 58.543457 
L 362.355341 61.530215 
L 361.816153 63.522624 
L 361.276965 63.02545 
L 361.816153 61.530215 
L 362.624934 60.535866 
L 362.894528 61.033041 
L 362.624934 61.530215 
L 363.70331 60.535866 
L 363.433716 60.535866 
L 362.894528 61.033041 
L 362.894528 61.530215 
L 363.164122 61.530215 
L 362.624934 61.530215 
L 362.624934 62.02739 
L 362.624934 62.02739 
L 362.894528 61.530215 
L 362.894528 62.02739 
L 363.972904 62.02739 
L 363.433716 62.02739 
L 362.894528 62.528275 
L 362.894528 64.019799 
L 363.164122 64.019799 
L 363.164122 62.528275 
L 363.433716 62.02739 
L 363.433716 62.528275 
L 363.433716 61.530215 
L 363.433716 61.530215 
L 363.70331 62.02739 
L 363.972904 62.02739 
L 363.972904 62.02739 
L 363.70331 63.02545 
L 363.164122 63.522624 
L 362.894528 62.02739 
L 363.164122 60.535866 
L 363.70331 60.535866 
L 363.972904 61.530215 
L 363.70331 61.530215 
L 363.433716 61.033041 
L 363.433716 60.038691 
L 363.433716 60.038691 
L 363.70331 62.02739 
L 363.972904 61.530215 
L 364.242498 61.530215 
L 364.242498 63.02545 
L 363.972904 64.019799 
L 363.433716 64.019799 
L 363.164122 63.02545 
L 362.894528 63.02545 
L 362.894528 63.522624 
L 363.70331 63.522624 
L 363.70331 63.522624 
L 363.433716 64.019799 
L 363.433716 64.516974 
L 363.972904 64.516974 
L 364.242498 64.019799 
L 364.242498 64.516974 
L 364.512092 65.515033 
L 364.512092 65.515033 
L 363.70331 65.014148 
L 362.624934 64.516974 
L 362.355341 65.014148 
L 363.164122 65.515033 
L 364.242498 65.014148 
L 364.512092 65.014148 
L 363.972904 66.509382 
L 363.164122 66.509382 
L 363.164122 66.012208 
L 363.972904 64.516974 
L 364.242498 63.522624 
L 364.242498 64.516974 
L 363.972904 65.515033 
L 363.972904 66.012208 
L 363.70331 65.515033 
L 363.433716 64.516974 
L 363.433716 63.522624 
L 364.242498 63.522624 
L 364.512092 64.516974 
L 363.972904 65.515033 
L 363.433716 65.014148 
L 362.624934 64.516974 
L 362.624934 64.516974 
L 363.164122 65.014148 
L 363.433716 65.014148 
L 363.70331 66.012208 
L 363.70331 67.503732 
L 363.972904 67.503732 
L 364.512092 65.515033 
L 364.512092 64.516974 
L 363.972904 64.019799 
L 363.433716 65.014148 
L 363.433716 66.012208 
L 364.512092 67.006557 
L 364.781686 66.012208 
L 364.781686 65.014148 
L 364.512092 64.516974 
L 363.972904 64.516974 
L 363.433716 65.014148 
L 363.164122 65.515033 
L 363.70331 65.515033 
L 363.433716 65.014148 
L 363.433716 65.014148 
L 363.433716 65.515033 
L 363.70331 66.012208 
L 364.242498 66.509382 
L 364.512092 65.515033 
L 363.972904 64.019799 
L 363.164122 64.019799 
L 363.164122 64.019799 
" style="fill:none;stroke:#1f77b4;stroke-linecap:square;stroke-width:1.5;"/>
   </g>
   <g id="matplotlib.axis_1">
    <g id="xtick_1">
     <g id="line2d_2">
      <defs>
       <path d="M 0 0 
L 0 3.5 
" id="m200b4cda0c" style="stroke:#000000;stroke-width:0.8;"/>
      </defs>
      <g>
       <use style="stroke:#000000;stroke-width:0.8;" x="81.654123" xlink:href="#m200b4cda0c" y="307.584"/>
      </g>
     </g>
     <g id="text_1">
      <!-- 800 -->
      <defs>
       <path d="M 10.59375 35.5 
L 73.1875 35.5 
L 73.1875 27.203125 
L 10.59375 27.203125 
z
" id="DejaVuSans-8722"/>
       <path d="M 31.78125 34.625 
Q 24.75 34.625 20.71875 30.859375 
Q 16.703125 27.09375 16.703125 20.515625 
Q 16.703125 13.921875 20.71875 10.15625 
Q 24.75 6.390625 31.78125 6.390625 
Q 38.8125 6.390625 42.859375 10.171875 
Q 46.921875 13.96875 46.921875 20.515625 
Q 46.921875 27.09375 42.890625 30.859375 
Q 38.875 34.625 31.78125 34.625 
z
M 21.921875 38.8125 
Q 15.578125 40.375 12.03125 44.71875 
Q 8.5 49.078125 8.5 55.328125 
Q 8.5 64.0625 14.71875 69.140625 
Q 20.953125 74.21875 31.78125 74.21875 
Q 42.671875 74.21875 48.875 69.140625 
Q 55.078125 64.0625 55.078125 55.328125 
Q 55.078125 49.078125 51.53125 44.71875 
Q 48 40.375 41.703125 38.8125 
Q 48.828125 37.15625 52.796875 32.3125 
Q 56.78125 27.484375 56.78125 20.515625 
Q 56.78125 9.90625 50.3125 4.234375 
Q 43.84375 -1.421875 31.78125 -1.421875 
Q 19.734375 -1.421875 13.25 4.234375 
Q 6.78125 9.90625 6.78125 20.515625 
Q 6.78125 27.484375 10.78125 32.3125 
Q 14.796875 37.15625 21.921875 38.8125 
z
M 18.3125 54.390625 
Q 18.3125 48.734375 21.84375 45.5625 
Q 25.390625 42.390625 31.78125 42.390625 
Q 38.140625 42.390625 41.71875 45.5625 
Q 45.3125 48.734375 45.3125 54.390625 
Q 45.3125 60.0625 41.71875 63.234375 
Q 38.140625 66.40625 31.78125 66.40625 
Q 25.390625 66.40625 21.84375 63.234375 
Q 18.3125 60.0625 18.3125 54.390625 
z
" id="DejaVuSans-56"/>
       <path d="M 31.78125 66.40625 
Q 24.171875 66.40625 20.328125 58.90625 
Q 16.5 51.421875 16.5 36.375 
Q 16.5 21.390625 20.328125 13.890625 
Q 24.171875 6.390625 31.78125 6.390625 
Q 39.453125 6.390625 43.28125 13.890625 
Q 47.125 21.390625 47.125 36.375 
Q 47.125 51.421875 43.28125 58.90625 
Q 39.453125 66.40625 31.78125 66.40625 
z
M 31.78125 74.21875 
Q 44.046875 74.21875 50.515625 64.515625 
Q 56.984375 54.828125 56.984375 36.375 
Q 56.984375 17.96875 50.515625 8.265625 
Q 44.046875 -1.421875 31.78125 -1.421875 
Q 19.53125 -1.421875 13.0625 8.265625 
Q 6.59375 17.96875 6.59375 36.375 
Q 6.59375 54.828125 13.0625 64.515625 
Q 19.53125 74.21875 31.78125 74.21875 
z
" id="DejaVuSans-48"/>
      </defs>
      <g transform="translate(67.92053 322.182437)scale(0.1 -0.1)">
       <use xlink:href="#DejaVuSans-8722"/>
       <use x="83.789062" xlink:href="#DejaVuSans-56"/>
       <use x="147.412109" xlink:href="#DejaVuSans-48"/>
       <use x="211.035156" xlink:href="#DejaVuSans-48"/>
      </g>
     </g>
    </g>
    <g id="xtick_2">
     <g id="line2d_3">
      <g>
       <use style="stroke:#000000;stroke-width:0.8;" x="145.087993" xlink:href="#m200b4cda0c" y="307.584"/>
      </g>
     </g>
     <g id="text_2">
      <!-- 600 -->
      <defs>
       <path d="M 33.015625 40.375 
Q 26.375 40.375 22.484375 35.828125 
Q 18.609375 31.296875 18.609375 23.390625 
Q 18.609375 15.53125 22.484375 10.953125 
Q 26.375 6.390625 33.015625 6.390625 
Q 39.65625 6.390625 43.53125 10.953125 
Q 47.40625 15.53125 47.40625 23.390625 
Q 47.40625 31.296875 43.53125 35.828125 
Q 39.65625 40.375 33.015625 40.375 
z
M 52.59375 71.296875 
L 52.59375 62.3125 
Q 48.875 64.0625 45.09375 64.984375 
Q 41.3125 65.921875 37.59375 65.921875 
Q 27.828125 65.921875 22.671875 59.328125 
Q 17.53125 52.734375 16.796875 39.40625 
Q 19.671875 43.65625 24.015625 45.921875 
Q 28.375 48.1875 33.59375 48.1875 
Q 44.578125 48.1875 50.953125 41.515625 
Q 57.328125 34.859375 57.328125 23.390625 
Q 57.328125 12.15625 50.6875 5.359375 
Q 44.046875 -1.421875 33.015625 -1.421875 
Q 20.359375 -1.421875 13.671875 8.265625 
Q 6.984375 17.96875 6.984375 36.375 
Q 6.984375 53.65625 15.1875 63.9375 
Q 23.390625 74.21875 37.203125 74.21875 
Q 40.921875 74.21875 44.703125 73.484375 
Q 48.484375 72.75 52.59375 71.296875 
z
" id="DejaVuSans-54"/>
      </defs>
      <g transform="translate(131.354399 322.182437)scale(0.1 -0.1)">
       <use xlink:href="#DejaVuSans-8722"/>
       <use x="83.789062" xlink:href="#DejaVuSans-54"/>
       <use x="147.412109" xlink:href="#DejaVuSans-48"/>
       <use x="211.035156" xlink:href="#DejaVuSans-48"/>
      </g>
     </g>
    </g>
    <g id="xtick_3">
     <g id="line2d_4">
      <g>
       <use style="stroke:#000000;stroke-width:0.8;" x="208.521863" xlink:href="#m200b4cda0c" y="307.584"/>
      </g>
     </g>
     <g id="text_3">
      <!-- 400 -->
      <defs>
       <path d="M 37.796875 64.3125 
L 12.890625 25.390625 
L 37.796875 25.390625 
z
M 35.203125 72.90625 
L 47.609375 72.90625 
L 47.609375 25.390625 
L 58.015625 25.390625 
L 58.015625 17.1875 
L 47.609375 17.1875 
L 47.609375 0 
L 37.796875 0 
L 37.796875 17.1875 
L 4.890625 17.1875 
L 4.890625 26.703125 
z
" id="DejaVuSans-52"/>
      </defs>
      <g transform="translate(194.788269 322.182437)scale(0.1 -0.1)">
       <use xlink:href="#DejaVuSans-8722"/>
       <use x="83.789062" xlink:href="#DejaVuSans-52"/>
       <use x="147.412109" xlink:href="#DejaVuSans-48"/>
       <use x="211.035156" xlink:href="#DejaVuSans-48"/>
      </g>
     </g>
    </g>
    <g id="xtick_4">
     <g id="line2d_5">
      <g>
       <use style="stroke:#000000;stroke-width:0.8;" x="271.955733" xlink:href="#m200b4cda0c" y="307.584"/>
      </g>
     </g>
     <g id="text_4">
      <!-- 200 -->
      <defs>
       <path d="M 19.1875 8.296875 
L 53.609375 8.296875 
L 53.609375 0 
L 7.328125 0 
L 7.328125 8.296875 
Q 12.9375 14.109375 22.625 23.890625 
Q 32.328125 33.6875 34.8125 36.53125 
Q 39.546875 41.84375 41.421875 45.53125 
Q 43.3125 49.21875 43.3125 52.78125 
Q 43.3125 58.59375 39.234375 62.25 
Q 35.15625 65.921875 28.609375 65.921875 
Q 23.96875 65.921875 18.8125 64.3125 
Q 13.671875 62.703125 7.8125 59.421875 
L 7.8125 69.390625 
Q 13.765625 71.78125 18.9375 73 
Q 24.125 74.21875 28.421875 74.21875 
Q 39.75 74.21875 46.484375 68.546875 
Q 53.21875 62.890625 53.21875 53.421875 
Q 53.21875 48.921875 51.53125 44.890625 
Q 49.859375 40.875 45.40625 35.40625 
Q 44.1875 33.984375 37.640625 27.21875 
Q 31.109375 20.453125 19.1875 8.296875 
z
" id="DejaVuSans-50"/>
      </defs>
      <g transform="translate(258.222139 322.182437)scale(0.1 -0.1)">
       <use xlink:href="#DejaVuSans-8722"/>
       <use x="83.789062" xlink:href="#DejaVuSans-50"/>
       <use x="147.412109" xlink:href="#DejaVuSans-48"/>
       <use x="211.035156" xlink:href="#DejaVuSans-48"/>
      </g>
     </g>
    </g>
    <g id="xtick_5">
     <g id="line2d_6">
      <g>
       <use style="stroke:#000000;stroke-width:0.8;" x="335.389602" xlink:href="#m200b4cda0c" y="307.584"/>
      </g>
     </g>
     <g id="text_5">
      <!-- 0 -->
      <g transform="translate(332.208352 322.182437)scale(0.1 -0.1)">
       <use xlink:href="#DejaVuSans-48"/>
      </g>
     </g>
    </g>
    <g id="xtick_6">
     <g id="line2d_7">
      <g>
       <use style="stroke:#000000;stroke-width:0.8;" x="398.823472" xlink:href="#m200b4cda0c" y="307.584"/>
      </g>
     </g>
     <g id="text_6">
      <!-- 200 -->
      <g transform="translate(389.279722 322.182437)scale(0.1 -0.1)">
       <use xlink:href="#DejaVuSans-50"/>
       <use x="63.623047" xlink:href="#DejaVuSans-48"/>
       <use x="127.246094" xlink:href="#DejaVuSans-48"/>
      </g>
     </g>
    </g>
   </g>
   <g id="matplotlib.axis_2">
    <g id="ytick_1">
     <g id="line2d_8">
      <defs>
       <path d="M 0 0 
L -3.5 0 
" id="m1ddec04f43" style="stroke:#000000;stroke-width:0.8;"/>
      </defs>
      <g>
       <use style="stroke:#000000;stroke-width:0.8;" x="57.6" xlink:href="#m1ddec04f43" y="278.546959"/>
      </g>
     </g>
     <g id="text_7">
      <!-- 600 -->
      <g transform="translate(23.132812 282.346177)scale(0.1 -0.1)">
       <use xlink:href="#DejaVuSans-8722"/>
       <use x="83.789062" xlink:href="#DejaVuSans-54"/>
       <use x="147.412109" xlink:href="#DejaVuSans-48"/>
       <use x="211.035156" xlink:href="#DejaVuSans-48"/>
      </g>
     </g>
    </g>
    <g id="ytick_2">
     <g id="line2d_9">
      <g>
       <use style="stroke:#000000;stroke-width:0.8;" x="57.6" xlink:href="#m1ddec04f43" y="241.444371"/>
      </g>
     </g>
     <g id="text_8">
      <!-- 500 -->
      <defs>
       <path d="M 10.796875 72.90625 
L 49.515625 72.90625 
L 49.515625 64.59375 
L 19.828125 64.59375 
L 19.828125 46.734375 
Q 21.96875 47.46875 24.109375 47.828125 
Q 26.265625 48.1875 28.421875 48.1875 
Q 40.625 48.1875 47.75 41.5 
Q 54.890625 34.8125 54.890625 23.390625 
Q 54.890625 11.625 47.5625 5.09375 
Q 40.234375 -1.421875 26.90625 -1.421875 
Q 22.3125 -1.421875 17.546875 -0.640625 
Q 12.796875 0.140625 7.71875 1.703125 
L 7.71875 11.625 
Q 12.109375 9.234375 16.796875 8.0625 
Q 21.484375 6.890625 26.703125 6.890625 
Q 35.15625 6.890625 40.078125 11.328125 
Q 45.015625 15.765625 45.015625 23.390625 
Q 45.015625 31 40.078125 35.4375 
Q 35.15625 39.890625 26.703125 39.890625 
Q 22.75 39.890625 18.8125 39.015625 
Q 14.890625 38.140625 10.796875 36.28125 
z
" id="DejaVuSans-53"/>
      </defs>
      <g transform="translate(23.132812 245.24359)scale(0.1 -0.1)">
       <use xlink:href="#DejaVuSans-8722"/>
       <use x="83.789062" xlink:href="#DejaVuSans-53"/>
       <use x="147.412109" xlink:href="#DejaVuSans-48"/>
       <use x="211.035156" xlink:href="#DejaVuSans-48"/>
      </g>
     </g>
    </g>
    <g id="ytick_3">
     <g id="line2d_10">
      <g>
       <use style="stroke:#000000;stroke-width:0.8;" x="57.6" xlink:href="#m1ddec04f43" y="204.341784"/>
      </g>
     </g>
     <g id="text_9">
      <!-- 400 -->
      <g transform="translate(23.132812 208.141003)scale(0.1 -0.1)">
       <use xlink:href="#DejaVuSans-8722"/>
       <use x="83.789062" xlink:href="#DejaVuSans-52"/>
       <use x="147.412109" xlink:href="#DejaVuSans-48"/>
       <use x="211.035156" xlink:href="#DejaVuSans-48"/>
      </g>
     </g>
    </g>
    <g id="ytick_4">
     <g id="line2d_11">
      <g>
       <use style="stroke:#000000;stroke-width:0.8;" x="57.6" xlink:href="#m1ddec04f43" y="167.239197"/>
      </g>
     </g>
     <g id="text_10">
      <!-- 300 -->
      <defs>
       <path d="M 40.578125 39.3125 
Q 47.65625 37.796875 51.625 33 
Q 55.609375 28.21875 55.609375 21.1875 
Q 55.609375 10.40625 48.1875 4.484375 
Q 40.765625 -1.421875 27.09375 -1.421875 
Q 22.515625 -1.421875 17.65625 -0.515625 
Q 12.796875 0.390625 7.625 2.203125 
L 7.625 11.71875 
Q 11.71875 9.328125 16.59375 8.109375 
Q 21.484375 6.890625 26.8125 6.890625 
Q 36.078125 6.890625 40.9375 10.546875 
Q 45.796875 14.203125 45.796875 21.1875 
Q 45.796875 27.640625 41.28125 31.265625 
Q 36.765625 34.90625 28.71875 34.90625 
L 20.21875 34.90625 
L 20.21875 43.015625 
L 29.109375 43.015625 
Q 36.375 43.015625 40.234375 45.921875 
Q 44.09375 48.828125 44.09375 54.296875 
Q 44.09375 59.90625 40.109375 62.90625 
Q 36.140625 65.921875 28.71875 65.921875 
Q 24.65625 65.921875 20.015625 65.03125 
Q 15.375 64.15625 9.8125 62.3125 
L 9.8125 71.09375 
Q 15.4375 72.65625 20.34375 73.4375 
Q 25.25 74.21875 29.59375 74.21875 
Q 40.828125 74.21875 47.359375 69.109375 
Q 53.90625 64.015625 53.90625 55.328125 
Q 53.90625 49.265625 50.4375 45.09375 
Q 46.96875 40.921875 40.578125 39.3125 
z
" id="DejaVuSans-51"/>
      </defs>
      <g transform="translate(23.132812 171.038415)scale(0.1 -0.1)">
       <use xlink:href="#DejaVuSans-8722"/>
       <use x="83.789062" xlink:href="#DejaVuSans-51"/>
       <use x="147.412109" xlink:href="#DejaVuSans-48"/>
       <use x="211.035156" xlink:href="#DejaVuSans-48"/>
      </g>
     </g>
    </g>
    <g id="ytick_5">
     <g id="line2d_12">
      <g>
       <use style="stroke:#000000;stroke-width:0.8;" x="57.6" xlink:href="#m1ddec04f43" y="130.136609"/>
      </g>
     </g>
     <g id="text_11">
      <!-- 200 -->
      <g transform="translate(23.132812 133.935828)scale(0.1 -0.1)">
       <use xlink:href="#DejaVuSans-8722"/>
       <use x="83.789062" xlink:href="#DejaVuSans-50"/>
       <use x="147.412109" xlink:href="#DejaVuSans-48"/>
       <use x="211.035156" xlink:href="#DejaVuSans-48"/>
      </g>
     </g>
    </g>
    <g id="ytick_6">
     <g id="line2d_13">
      <g>
       <use style="stroke:#000000;stroke-width:0.8;" x="57.6" xlink:href="#m1ddec04f43" y="93.034022"/>
      </g>
     </g>
     <g id="text_12">
      <!-- 100 -->
      <defs>
       <path d="M 12.40625 8.296875 
L 28.515625 8.296875 
L 28.515625 63.921875 
L 10.984375 60.40625 
L 10.984375 69.390625 
L 28.421875 72.90625 
L 38.28125 72.90625 
L 38.28125 8.296875 
L 54.390625 8.296875 
L 54.390625 0 
L 12.40625 0 
z
" id="DejaVuSans-49"/>
      </defs>
      <g transform="translate(23.132812 96.833241)scale(0.1 -0.1)">
       <use xlink:href="#DejaVuSans-8722"/>
       <use x="83.789062" xlink:href="#DejaVuSans-49"/>
       <use x="147.412109" xlink:href="#DejaVuSans-48"/>
       <use x="211.035156" xlink:href="#DejaVuSans-48"/>
      </g>
     </g>
    </g>
    <g id="ytick_7">
     <g id="line2d_14">
      <g>
       <use style="stroke:#000000;stroke-width:0.8;" x="57.6" xlink:href="#m1ddec04f43" y="55.931435"/>
      </g>
     </g>
     <g id="text_13">
      <!-- 0 -->
      <g transform="translate(44.2375 59.730654)scale(0.1 -0.1)">
       <use xlink:href="#DejaVuSans-48"/>
      </g>
     </g>
    </g>
   </g>
   <g id="line2d_15">
    <path clip-path="url(#pf657d8d1ce)" d="M 75.960921 284.593681 
L 264.690765 140.716618 
L 359.775046 112.717547 
L 354.896996 126.671132 
L 204.224752 211.160386 
L 198.835866 202.985916 
L 383.687758 122.710149 
L 370.86105 122.49365 
L 355.130906 90.382707 
L 361.690036 59.710017 
" style="fill:none;stroke:#ff0000;stroke-linecap:square;stroke-width:0.5;"/>
   </g>
   <g id="patch_3">
    <path d="M 57.6 307.584 
L 57.6 41.472 
" style="fill:none;stroke:#000000;stroke-linecap:square;stroke-linejoin:miter;stroke-width:0.8;"/>
   </g>
   <g id="patch_4">
    <path d="M 414.72 307.584 
L 414.72 41.472 
" style="fill:none;stroke:#000000;stroke-linecap:square;stroke-linejoin:miter;stroke-width:0.8;"/>
   </g>
   <g id="patch_5">
    <path d="M 57.6 307.584 
L 414.72 307.584 
" style="fill:none;stroke:#000000;stroke-linecap:square;stroke-linejoin:miter;stroke-width:0.8;"/>
   </g>
   <g id="patch_6">
    <path d="M 57.6 41.472 
L 414.72 41.472 
" style="fill:none;stroke:#000000;stroke-linecap:square;stroke-linejoin:miter;stroke-width:0.8;"/>
   </g>
   <g id="PathCollection_1">
    <defs>
     <path d="M 0 2.738613 
C 0.726289 2.738613 1.422928 2.450055 1.936492 1.936492 
C 2.450055 1.422928 2.738613 0.726289 2.738613 0 
C 2.738613 -0.726289 2.450055 -1.422928 1.936492 -1.936492 
C 1.422928 -2.450055 0.726289 -2.738613 0 -2.738613 
C -0.726289 -2.738613 -1.422928 -2.450055 -1.936492 -1.936492 
C -2.450055 -1.422928 -2.738613 -0.726289 -2.738613 0 
C -2.738613 0.726289 -2.450055 1.422928 -1.936492 1.936492 
C -1.422928 2.450055 -0.726289 2.738613 0 2.738613 
z
" id="m07c695cb9b" style="stroke:#ff0000;"/>
    </defs>
    <g clip-path="url(#pf657d8d1ce)">
     <use style="fill:#ff0000;stroke:#ff0000;" x="75.960921" xlink:href="#m07c695cb9b" y="284.593681"/>
     <use style="fill:#ff0000;stroke:#ff0000;" x="264.690765" xlink:href="#m07c695cb9b" y="140.716618"/>
     <use style="fill:#ff0000;stroke:#ff0000;" x="359.775046" xlink:href="#m07c695cb9b" y="112.717547"/>
     <use style="fill:#ff0000;stroke:#ff0000;" x="354.896996" xlink:href="#m07c695cb9b" y="126.671132"/>
     <use style="fill:#ff0000;stroke:#ff0000;" x="204.224752" xlink:href="#m07c695cb9b" y="211.160386"/>
     <use style="fill:#ff0000;stroke:#ff0000;" x="198.835866" xlink:href="#m07c695cb9b" y="202.985916"/>
     <use style="fill:#ff0000;stroke:#ff0000;" x="383.687758" xlink:href="#m07c695cb9b" y="122.710149"/>
     <use style="fill:#ff0000;stroke:#ff0000;" x="370.86105" xlink:href="#m07c695cb9b" y="122.49365"/>
     <use style="fill:#ff0000;stroke:#ff0000;" x="355.130906" xlink:href="#m07c695cb9b" y="90.382707"/>
     <use style="fill:#ff0000;stroke:#ff0000;" x="361.690036" xlink:href="#m07c695cb9b" y="59.710017"/>
    </g>
   </g>
   <g id="text_14">
    <!-- (26) Subject: s3, Known = True, Degree = 1, Duration = 0.1 -->
    <defs>
     <path d="M 31 75.875 
Q 24.46875 64.65625 21.28125 53.65625 
Q 18.109375 42.671875 18.109375 31.390625 
Q 18.109375 20.125 21.3125 9.0625 
Q 24.515625 -2 31 -13.1875 
L 23.1875 -13.1875 
Q 15.875 -1.703125 12.234375 9.375 
Q 8.59375 20.453125 8.59375 31.390625 
Q 8.59375 42.28125 12.203125 53.3125 
Q 15.828125 64.359375 23.1875 75.875 
z
" id="DejaVuSans-40"/>
     <path d="M 8.015625 75.875 
L 15.828125 75.875 
Q 23.140625 64.359375 26.78125 53.3125 
Q 30.421875 42.28125 30.421875 31.390625 
Q 30.421875 20.453125 26.78125 9.375 
Q 23.140625 -1.703125 15.828125 -13.1875 
L 8.015625 -13.1875 
Q 14.5 -2 17.703125 9.0625 
Q 20.90625 20.125 20.90625 31.390625 
Q 20.90625 42.671875 17.703125 53.65625 
Q 14.5 64.65625 8.015625 75.875 
z
" id="DejaVuSans-41"/>
     <path id="DejaVuSans-32"/>
     <path d="M 53.515625 70.515625 
L 53.515625 60.890625 
Q 47.90625 63.578125 42.921875 64.890625 
Q 37.9375 66.21875 33.296875 66.21875 
Q 25.25 66.21875 20.875 63.09375 
Q 16.5 59.96875 16.5 54.203125 
Q 16.5 49.359375 19.40625 46.890625 
Q 22.3125 44.4375 30.421875 42.921875 
L 36.375 41.703125 
Q 47.40625 39.59375 52.65625 34.296875 
Q 57.90625 29 57.90625 20.125 
Q 57.90625 9.515625 50.796875 4.046875 
Q 43.703125 -1.421875 29.984375 -1.421875 
Q 24.8125 -1.421875 18.96875 -0.25 
Q 13.140625 0.921875 6.890625 3.21875 
L 6.890625 13.375 
Q 12.890625 10.015625 18.65625 8.296875 
Q 24.421875 6.59375 29.984375 6.59375 
Q 38.421875 6.59375 43.015625 9.90625 
Q 47.609375 13.234375 47.609375 19.390625 
Q 47.609375 24.75 44.3125 27.78125 
Q 41.015625 30.8125 33.5 32.328125 
L 27.484375 33.5 
Q 16.453125 35.6875 11.515625 40.375 
Q 6.59375 45.0625 6.59375 53.421875 
Q 6.59375 63.09375 13.40625 68.65625 
Q 20.21875 74.21875 32.171875 74.21875 
Q 37.3125 74.21875 42.625 73.28125 
Q 47.953125 72.359375 53.515625 70.515625 
z
" id="DejaVuSans-83"/>
     <path d="M 8.5 21.578125 
L 8.5 54.6875 
L 17.484375 54.6875 
L 17.484375 21.921875 
Q 17.484375 14.15625 20.5 10.265625 
Q 23.53125 6.390625 29.59375 6.390625 
Q 36.859375 6.390625 41.078125 11.03125 
Q 45.3125 15.671875 45.3125 23.6875 
L 45.3125 54.6875 
L 54.296875 54.6875 
L 54.296875 0 
L 45.3125 0 
L 45.3125 8.40625 
Q 42.046875 3.421875 37.71875 1 
Q 33.40625 -1.421875 27.6875 -1.421875 
Q 18.265625 -1.421875 13.375 4.4375 
Q 8.5 10.296875 8.5 21.578125 
z
M 31.109375 56 
z
" id="DejaVuSans-117"/>
     <path d="M 48.6875 27.296875 
Q 48.6875 37.203125 44.609375 42.84375 
Q 40.53125 48.484375 33.40625 48.484375 
Q 26.265625 48.484375 22.1875 42.84375 
Q 18.109375 37.203125 18.109375 27.296875 
Q 18.109375 17.390625 22.1875 11.75 
Q 26.265625 6.109375 33.40625 6.109375 
Q 40.53125 6.109375 44.609375 11.75 
Q 48.6875 17.390625 48.6875 27.296875 
z
M 18.109375 46.390625 
Q 20.953125 51.265625 25.265625 53.625 
Q 29.59375 56 35.59375 56 
Q 45.5625 56 51.78125 48.09375 
Q 58.015625 40.1875 58.015625 27.296875 
Q 58.015625 14.40625 51.78125 6.484375 
Q 45.5625 -1.421875 35.59375 -1.421875 
Q 29.59375 -1.421875 25.265625 0.953125 
Q 20.953125 3.328125 18.109375 8.203125 
L 18.109375 0 
L 9.078125 0 
L 9.078125 75.984375 
L 18.109375 75.984375 
z
" id="DejaVuSans-98"/>
     <path d="M 9.421875 54.6875 
L 18.40625 54.6875 
L 18.40625 -0.984375 
Q 18.40625 -11.421875 14.421875 -16.109375 
Q 10.453125 -20.796875 1.609375 -20.796875 
L -1.8125 -20.796875 
L -1.8125 -13.1875 
L 0.59375 -13.1875 
Q 5.71875 -13.1875 7.5625 -10.8125 
Q 9.421875 -8.453125 9.421875 -0.984375 
z
M 9.421875 75.984375 
L 18.40625 75.984375 
L 18.40625 64.59375 
L 9.421875 64.59375 
z
" id="DejaVuSans-106"/>
     <path d="M 56.203125 29.59375 
L 56.203125 25.203125 
L 14.890625 25.203125 
Q 15.484375 15.921875 20.484375 11.0625 
Q 25.484375 6.203125 34.421875 6.203125 
Q 39.59375 6.203125 44.453125 7.46875 
Q 49.3125 8.734375 54.109375 11.28125 
L 54.109375 2.78125 
Q 49.265625 0.734375 44.1875 -0.34375 
Q 39.109375 -1.421875 33.890625 -1.421875 
Q 20.796875 -1.421875 13.15625 6.1875 
Q 5.515625 13.8125 5.515625 26.8125 
Q 5.515625 40.234375 12.765625 48.109375 
Q 20.015625 56 32.328125 56 
Q 43.359375 56 49.78125 48.890625 
Q 56.203125 41.796875 56.203125 29.59375 
z
M 47.21875 32.234375 
Q 47.125 39.59375 43.09375 43.984375 
Q 39.0625 48.390625 32.421875 48.390625 
Q 24.90625 48.390625 20.390625 44.140625 
Q 15.875 39.890625 15.1875 32.171875 
z
" id="DejaVuSans-101"/>
     <path d="M 48.78125 52.59375 
L 48.78125 44.1875 
Q 44.96875 46.296875 41.140625 47.34375 
Q 37.3125 48.390625 33.40625 48.390625 
Q 24.65625 48.390625 19.8125 42.84375 
Q 14.984375 37.3125 14.984375 27.296875 
Q 14.984375 17.28125 19.8125 11.734375 
Q 24.65625 6.203125 33.40625 6.203125 
Q 37.3125 6.203125 41.140625 7.25 
Q 44.96875 8.296875 48.78125 10.40625 
L 48.78125 2.09375 
Q 45.015625 0.34375 40.984375 -0.53125 
Q 36.96875 -1.421875 32.421875 -1.421875 
Q 20.0625 -1.421875 12.78125 6.34375 
Q 5.515625 14.109375 5.515625 27.296875 
Q 5.515625 40.671875 12.859375 48.328125 
Q 20.21875 56 33.015625 56 
Q 37.15625 56 41.109375 55.140625 
Q 45.0625 54.296875 48.78125 52.59375 
z
" id="DejaVuSans-99"/>
     <path d="M 18.3125 70.21875 
L 18.3125 54.6875 
L 36.8125 54.6875 
L 36.8125 47.703125 
L 18.3125 47.703125 
L 18.3125 18.015625 
Q 18.3125 11.328125 20.140625 9.421875 
Q 21.96875 7.515625 27.59375 7.515625 
L 36.8125 7.515625 
L 36.8125 0 
L 27.59375 0 
Q 17.1875 0 13.234375 3.875 
Q 9.28125 7.765625 9.28125 18.015625 
L 9.28125 47.703125 
L 2.6875 47.703125 
L 2.6875 54.6875 
L 9.28125 54.6875 
L 9.28125 70.21875 
z
" id="DejaVuSans-116"/>
     <path d="M 11.71875 12.40625 
L 22.015625 12.40625 
L 22.015625 0 
L 11.71875 0 
z
M 11.71875 51.703125 
L 22.015625 51.703125 
L 22.015625 39.3125 
L 11.71875 39.3125 
z
" id="DejaVuSans-58"/>
     <path d="M 44.28125 53.078125 
L 44.28125 44.578125 
Q 40.484375 46.53125 36.375 47.5 
Q 32.28125 48.484375 27.875 48.484375 
Q 21.1875 48.484375 17.84375 46.4375 
Q 14.5 44.390625 14.5 40.28125 
Q 14.5 37.15625 16.890625 35.375 
Q 19.28125 33.59375 26.515625 31.984375 
L 29.59375 31.296875 
Q 39.15625 29.25 43.1875 25.515625 
Q 47.21875 21.78125 47.21875 15.09375 
Q 47.21875 7.46875 41.1875 3.015625 
Q 35.15625 -1.421875 24.609375 -1.421875 
Q 20.21875 -1.421875 15.453125 -0.5625 
Q 10.6875 0.296875 5.421875 2 
L 5.421875 11.28125 
Q 10.40625 8.6875 15.234375 7.390625 
Q 20.0625 6.109375 24.8125 6.109375 
Q 31.15625 6.109375 34.5625 8.28125 
Q 37.984375 10.453125 37.984375 14.40625 
Q 37.984375 18.0625 35.515625 20.015625 
Q 33.0625 21.96875 24.703125 23.78125 
L 21.578125 24.515625 
Q 13.234375 26.265625 9.515625 29.90625 
Q 5.8125 33.546875 5.8125 39.890625 
Q 5.8125 47.609375 11.28125 51.796875 
Q 16.75 56 26.8125 56 
Q 31.78125 56 36.171875 55.265625 
Q 40.578125 54.546875 44.28125 53.078125 
z
" id="DejaVuSans-115"/>
     <path d="M 11.71875 12.40625 
L 22.015625 12.40625 
L 22.015625 4 
L 14.015625 -11.625 
L 7.71875 -11.625 
L 11.71875 4 
z
" id="DejaVuSans-44"/>
     <path d="M 9.8125 72.90625 
L 19.671875 72.90625 
L 19.671875 42.09375 
L 52.390625 72.90625 
L 65.09375 72.90625 
L 28.90625 38.921875 
L 67.671875 0 
L 54.6875 0 
L 19.671875 35.109375 
L 19.671875 0 
L 9.8125 0 
z
" id="DejaVuSans-75"/>
     <path d="M 54.890625 33.015625 
L 54.890625 0 
L 45.90625 0 
L 45.90625 32.71875 
Q 45.90625 40.484375 42.875 44.328125 
Q 39.84375 48.1875 33.796875 48.1875 
Q 26.515625 48.1875 22.3125 43.546875 
Q 18.109375 38.921875 18.109375 30.90625 
L 18.109375 0 
L 9.078125 0 
L 9.078125 54.6875 
L 18.109375 54.6875 
L 18.109375 46.1875 
Q 21.34375 51.125 25.703125 53.5625 
Q 30.078125 56 35.796875 56 
Q 45.21875 56 50.046875 50.171875 
Q 54.890625 44.34375 54.890625 33.015625 
z
" id="DejaVuSans-110"/>
     <path d="M 30.609375 48.390625 
Q 23.390625 48.390625 19.1875 42.75 
Q 14.984375 37.109375 14.984375 27.296875 
Q 14.984375 17.484375 19.15625 11.84375 
Q 23.34375 6.203125 30.609375 6.203125 
Q 37.796875 6.203125 41.984375 11.859375 
Q 46.1875 17.53125 46.1875 27.296875 
Q 46.1875 37.015625 41.984375 42.703125 
Q 37.796875 48.390625 30.609375 48.390625 
z
M 30.609375 56 
Q 42.328125 56 49.015625 48.375 
Q 55.71875 40.765625 55.71875 27.296875 
Q 55.71875 13.875 49.015625 6.21875 
Q 42.328125 -1.421875 30.609375 -1.421875 
Q 18.84375 -1.421875 12.171875 6.21875 
Q 5.515625 13.875 5.515625 27.296875 
Q 5.515625 40.765625 12.171875 48.375 
Q 18.84375 56 30.609375 56 
z
" id="DejaVuSans-111"/>
     <path d="M 4.203125 54.6875 
L 13.1875 54.6875 
L 24.421875 12.015625 
L 35.59375 54.6875 
L 46.1875 54.6875 
L 57.421875 12.015625 
L 68.609375 54.6875 
L 77.59375 54.6875 
L 63.28125 0 
L 52.6875 0 
L 40.921875 44.828125 
L 29.109375 0 
L 18.5 0 
z
" id="DejaVuSans-119"/>
     <path d="M 10.59375 45.40625 
L 73.1875 45.40625 
L 73.1875 37.203125 
L 10.59375 37.203125 
z
M 10.59375 25.484375 
L 73.1875 25.484375 
L 73.1875 17.1875 
L 10.59375 17.1875 
z
" id="DejaVuSans-61"/>
     <path d="M -0.296875 72.90625 
L 61.375 72.90625 
L 61.375 64.59375 
L 35.5 64.59375 
L 35.5 0 
L 25.59375 0 
L 25.59375 64.59375 
L -0.296875 64.59375 
z
" id="DejaVuSans-84"/>
     <path d="M 41.109375 46.296875 
Q 39.59375 47.171875 37.8125 47.578125 
Q 36.03125 48 33.890625 48 
Q 26.265625 48 22.1875 43.046875 
Q 18.109375 38.09375 18.109375 28.8125 
L 18.109375 0 
L 9.078125 0 
L 9.078125 54.6875 
L 18.109375 54.6875 
L 18.109375 46.1875 
Q 20.953125 51.171875 25.484375 53.578125 
Q 30.03125 56 36.53125 56 
Q 37.453125 56 38.578125 55.875 
Q 39.703125 55.765625 41.0625 55.515625 
z
" id="DejaVuSans-114"/>
     <path d="M 19.671875 64.796875 
L 19.671875 8.109375 
L 31.59375 8.109375 
Q 46.6875 8.109375 53.6875 14.9375 
Q 60.6875 21.78125 60.6875 36.53125 
Q 60.6875 51.171875 53.6875 57.984375 
Q 46.6875 64.796875 31.59375 64.796875 
z
M 9.8125 72.90625 
L 30.078125 72.90625 
Q 51.265625 72.90625 61.171875 64.09375 
Q 71.09375 55.28125 71.09375 36.53125 
Q 71.09375 17.671875 61.125 8.828125 
Q 51.171875 0 30.078125 0 
L 9.8125 0 
z
" id="DejaVuSans-68"/>
     <path d="M 45.40625 27.984375 
Q 45.40625 37.75 41.375 43.109375 
Q 37.359375 48.484375 30.078125 48.484375 
Q 22.859375 48.484375 18.828125 43.109375 
Q 14.796875 37.75 14.796875 27.984375 
Q 14.796875 18.265625 18.828125 12.890625 
Q 22.859375 7.515625 30.078125 7.515625 
Q 37.359375 7.515625 41.375 12.890625 
Q 45.40625 18.265625 45.40625 27.984375 
z
M 54.390625 6.78125 
Q 54.390625 -7.171875 48.1875 -13.984375 
Q 42 -20.796875 29.203125 -20.796875 
Q 24.46875 -20.796875 20.265625 -20.09375 
Q 16.0625 -19.390625 12.109375 -17.921875 
L 12.109375 -9.1875 
Q 16.0625 -11.328125 19.921875 -12.34375 
Q 23.78125 -13.375 27.78125 -13.375 
Q 36.625 -13.375 41.015625 -8.765625 
Q 45.40625 -4.15625 45.40625 5.171875 
L 45.40625 9.625 
Q 42.625 4.78125 38.28125 2.390625 
Q 33.9375 0 27.875 0 
Q 17.828125 0 11.671875 7.65625 
Q 5.515625 15.328125 5.515625 27.984375 
Q 5.515625 40.671875 11.671875 48.328125 
Q 17.828125 56 27.875 56 
Q 33.9375 56 38.28125 53.609375 
Q 42.625 51.21875 45.40625 46.390625 
L 45.40625 54.6875 
L 54.390625 54.6875 
z
" id="DejaVuSans-103"/>
     <path d="M 34.28125 27.484375 
Q 23.390625 27.484375 19.1875 25 
Q 14.984375 22.515625 14.984375 16.5 
Q 14.984375 11.71875 18.140625 8.90625 
Q 21.296875 6.109375 26.703125 6.109375 
Q 34.1875 6.109375 38.703125 11.40625 
Q 43.21875 16.703125 43.21875 25.484375 
L 43.21875 27.484375 
z
M 52.203125 31.203125 
L 52.203125 0 
L 43.21875 0 
L 43.21875 8.296875 
Q 40.140625 3.328125 35.546875 0.953125 
Q 30.953125 -1.421875 24.3125 -1.421875 
Q 15.921875 -1.421875 10.953125 3.296875 
Q 6 8.015625 6 15.921875 
Q 6 25.140625 12.171875 29.828125 
Q 18.359375 34.515625 30.609375 34.515625 
L 43.21875 34.515625 
L 43.21875 35.40625 
Q 43.21875 41.609375 39.140625 45 
Q 35.0625 48.390625 27.6875 48.390625 
Q 23 48.390625 18.546875 47.265625 
Q 14.109375 46.140625 10.015625 43.890625 
L 10.015625 52.203125 
Q 14.9375 54.109375 19.578125 55.046875 
Q 24.21875 56 28.609375 56 
Q 40.484375 56 46.34375 49.84375 
Q 52.203125 43.703125 52.203125 31.203125 
z
" id="DejaVuSans-97"/>
     <path d="M 9.421875 54.6875 
L 18.40625 54.6875 
L 18.40625 0 
L 9.421875 0 
z
M 9.421875 75.984375 
L 18.40625 75.984375 
L 18.40625 64.59375 
L 9.421875 64.59375 
z
" id="DejaVuSans-105"/>
     <path d="M 10.6875 12.40625 
L 21 12.40625 
L 21 0 
L 10.6875 0 
z
" id="DejaVuSans-46"/>
    </defs>
    <g transform="translate(55.550625 35.472)scale(0.12 -0.12)">
     <use xlink:href="#DejaVuSans-40"/>
     <use x="39.013672" xlink:href="#DejaVuSans-50"/>
     <use x="102.636719" xlink:href="#DejaVuSans-54"/>
     <use x="166.259766" xlink:href="#DejaVuSans-41"/>
     <use x="205.273438" xlink:href="#DejaVuSans-32"/>
     <use x="237.060547" xlink:href="#DejaVuSans-83"/>
     <use x="300.537109" xlink:href="#DejaVuSans-117"/>
     <use x="363.916016" xlink:href="#DejaVuSans-98"/>
     <use x="427.392578" xlink:href="#DejaVuSans-106"/>
     <use x="455.175781" xlink:href="#DejaVuSans-101"/>
     <use x="516.699219" xlink:href="#DejaVuSans-99"/>
     <use x="571.679688" xlink:href="#DejaVuSans-116"/>
     <use x="610.888672" xlink:href="#DejaVuSans-58"/>
     <use x="644.580078" xlink:href="#DejaVuSans-32"/>
     <use x="676.367188" xlink:href="#DejaVuSans-115"/>
     <use x="728.466797" xlink:href="#DejaVuSans-51"/>
     <use x="792.089844" xlink:href="#DejaVuSans-44"/>
     <use x="823.876953" xlink:href="#DejaVuSans-32"/>
     <use x="855.664062" xlink:href="#DejaVuSans-75"/>
     <use x="921.240234" xlink:href="#DejaVuSans-110"/>
     <use x="984.619141" xlink:href="#DejaVuSans-111"/>
     <use x="1045.800781" xlink:href="#DejaVuSans-119"/>
     <use x="1127.587891" xlink:href="#DejaVuSans-110"/>
     <use x="1190.966797" xlink:href="#DejaVuSans-32"/>
     <use x="1222.753906" xlink:href="#DejaVuSans-61"/>
     <use x="1306.542969" xlink:href="#DejaVuSans-32"/>
     <use x="1338.330078" xlink:href="#DejaVuSans-84"/>
     <use x="1399.195312" xlink:href="#DejaVuSans-114"/>
     <use x="1440.308594" xlink:href="#DejaVuSans-117"/>
     <use x="1503.6875" xlink:href="#DejaVuSans-101"/>
     <use x="1565.210938" xlink:href="#DejaVuSans-44"/>
     <use x="1596.998047" xlink:href="#DejaVuSans-32"/>
     <use x="1628.785156" xlink:href="#DejaVuSans-68"/>
     <use x="1705.787109" xlink:href="#DejaVuSans-101"/>
     <use x="1767.310547" xlink:href="#DejaVuSans-103"/>
     <use x="1830.787109" xlink:href="#DejaVuSans-114"/>
     <use x="1871.869141" xlink:href="#DejaVuSans-101"/>
     <use x="1933.392578" xlink:href="#DejaVuSans-101"/>
     <use x="1994.916016" xlink:href="#DejaVuSans-32"/>
     <use x="2026.703125" xlink:href="#DejaVuSans-61"/>
     <use x="2110.492188" xlink:href="#DejaVuSans-32"/>
     <use x="2142.279297" xlink:href="#DejaVuSans-49"/>
     <use x="2205.902344" xlink:href="#DejaVuSans-44"/>
     <use x="2237.689453" xlink:href="#DejaVuSans-32"/>
     <use x="2269.476562" xlink:href="#DejaVuSans-68"/>
     <use x="2346.478516" xlink:href="#DejaVuSans-117"/>
     <use x="2409.857422" xlink:href="#DejaVuSans-114"/>
     <use x="2450.970703" xlink:href="#DejaVuSans-97"/>
     <use x="2512.25" xlink:href="#DejaVuSans-116"/>
     <use x="2551.458984" xlink:href="#DejaVuSans-105"/>
     <use x="2579.242188" xlink:href="#DejaVuSans-111"/>
     <use x="2640.423828" xlink:href="#DejaVuSans-110"/>
     <use x="2703.802734" xlink:href="#DejaVuSans-32"/>
     <use x="2735.589844" xlink:href="#DejaVuSans-61"/>
     <use x="2819.378906" xlink:href="#DejaVuSans-32"/>
     <use x="2851.166016" xlink:href="#DejaVuSans-48"/>
     <use x="2914.789062" xlink:href="#DejaVuSans-46"/>
     <use x="2946.576172" xlink:href="#DejaVuSans-49"/>
    </g>
   </g>
  </g>
 </g>
 <defs>
  <clipPath id="pf657d8d1ce">
   <rect height="266.112" width="357.12" x="57.6" y="41.472"/>
  </clipPath>
 </defs>
</svg>
