<?xml version="1.0" encoding="utf-8" standalone="no"?>
<!DOCTYPE svg PUBLIC "-//W3C//DTD SVG 1.1//EN"
  "http://www.w3.org/Graphics/SVG/1.1/DTD/svg11.dtd">
<!-- Created with matplotlib (https://matplotlib.org/) -->
<svg height="345.6pt" version="1.1" viewBox="0 0 460.8 345.6" width="460.8pt" xmlns="http://www.w3.org/2000/svg" xmlns:xlink="http://www.w3.org/1999/xlink">
 <defs>
  <style type="text/css">
*{stroke-linecap:butt;stroke-linejoin:round;}
  </style>
 </defs>
 <g id="figure_1">
  <g id="patch_1">
   <path d="M 0 345.6 
L 460.8 345.6 
L 460.8 0 
L 0 0 
z
" style="fill:#ffffff;"/>
  </g>
  <g id="axes_1">
   <g id="patch_2">
    <path d="M 57.6 307.584 
L 414.72 307.584 
L 414.72 41.472 
L 57.6 41.472 
z
" style="fill:#ffffff;"/>
   </g>
   <g id="line2d_1">
    <path clip-path="url(#p0441ffd6cf)" d="M 398.030569 70.102959 
L 398.030569 69.634357 
L 398.257738 69.634357 
L 398.030569 70.567377 
L 398.030569 70.102959 
L 398.030569 69.868658 
L 397.914619 69.868658 
L 398.373688 71.964815 
L 398.030569 71.964815 
L 397.914619 72.194932 
L 397.914619 71.266096 
L 398.257738 70.801678 
L 398.144154 71.730514 
L 398.487273 72.429233 
L 398.144154 71.964815 
L 398.030569 72.663534 
L 397.801035 73.127952 
L 397.685084 72.893651 
L 398.144154 72.893651 
L 398.144154 73.127952 
L 397.914619 73.362253 
L 397.5715 73.362253 
L 397.341965 72.429233 
L 397.341965 73.127952 
L 397.5715 73.59237 
L 397.801035 73.362253 
L 397.914619 72.893651 
L 397.801035 73.127952 
L 397.457915 73.59237 
L 397.228381 73.362253 
L 397.341965 73.127952 
L 397.5715 73.127952 
L 397.801035 73.362253 
L 397.685084 73.59237 
L 397.228381 73.59237 
L 396.998846 73.826671 
L 397.228381 73.59237 
L 397.114796 74.060972 
L 397.341965 74.759692 
L 397.5715 74.989809 
L 397.457915 74.759692 
L 397.114796 74.29109 
L 396.885262 74.29109 
L 397.114796 74.989809 
L 397.341965 75.22411 
L 397.5715 74.759692 
L 397.457915 74.525391 
L 397.341965 74.759692 
L 397.228381 75.458411 
L 397.341965 75.458411 
L 397.341965 74.29109 
L 397.228381 74.29109 
L 397.341965 74.525391 
L 397.341965 74.29109 
L 397.685084 74.525391 
L 397.914619 74.989809 
L 397.914619 75.458411 
L 397.457915 75.22411 
L 397.228381 74.759692 
L 397.5715 73.826671 
L 396.998846 74.759692 
L 397.114796 74.759692 
L 397.457915 74.29109 
L 396.998846 75.458411 
L 396.998846 74.989809 
L 397.114796 74.525391 
L 396.998846 74.29109 
L 396.998846 75.458411 
L 397.228381 75.922829 
L 397.5715 75.922829 
L 397.5715 74.759692 
L 397.685084 74.525391 
L 397.5715 74.759692 
L 397.228381 74.989809 
L 397.228381 75.458411 
L 397.685084 75.458411 
L 398.144154 74.989809 
L 398.030569 74.525391 
L 397.685084 74.525391 
L 397.457915 74.989809 
L 397.457915 74.989809 
L 397.5715 75.22411 
L 397.5715 74.989809 
L 397.457915 74.060972 
L 397.685084 73.826671 
L 397.228381 74.525391 
L 397.341965 74.989809 
L 397.5715 74.989809 
L 397.685084 74.525391 
L 397.457915 74.29109 
L 397.114796 74.060972 
L 396.885262 74.060972 
L 396.998846 74.060972 
L 397.228381 73.826671 
L 397.457915 73.826671 
L 397.457915 74.060972 
L 397.341965 74.060972 
L 397.341965 73.59237 
L 397.114796 72.893651 
L 397.5715 73.826671 
L 397.457915 73.826671 
L 397.457915 74.29109 
L 397.685084 74.29109 
L 397.457915 73.127952 
L 397.341965 73.127952 
L 397.457915 72.663534 
L 397.341965 72.663534 
L 397.228381 73.362253 
L 397.228381 74.060972 
L 396.885262 73.59237 
L 396.998846 73.59237 
L 397.341965 74.525391 
L 397.114796 73.59237 
L 396.998846 73.127952 
L 396.998846 73.362253 
L 397.341965 74.759692 
L 397.341965 74.525391 
L 397.341965 74.525391 
L 397.114796 74.29109 
L 396.998846 73.826671 
L 396.998846 73.127952 
L 397.114796 73.127952 
L 397.457915 74.525391 
L 397.457915 75.22411 
L 397.341965 75.22411 
L 397.114796 74.989809 
L 396.542142 74.29109 
L 396.542142 74.29109 
L 396.998846 74.29109 
L 396.542142 73.127952 
L 396.769311 72.893651 
L 396.769311 73.127952 
L 396.655727 73.362253 
L 397.114796 72.194932 
L 397.114796 72.429233 
L 397.228381 72.893651 
L 397.228381 73.59237 
L 396.769311 74.525391 
L 396.769311 74.29109 
L 396.655727 74.060972 
L 396.769311 74.29109 
L 396.885262 74.989809 
L 396.655727 75.22411 
L 396.083073 74.759692 
L 396.426192 73.826671 
L 396.542142 74.29109 
L 396.655727 75.458411 
L 396.655727 75.22411 
L 396.542142 75.458411 
L 396.312608 75.458411 
L 396.196657 75.22411 
L 396.426192 74.989809 
L 396.655727 74.29109 
L 396.998846 74.060972 
L 397.228381 75.22411 
L 397.114796 76.152946 
L 396.769311 76.152946 
L 396.426192 75.688528 
L 396.083073 75.458411 
L 395.051349 74.525391 
L 393.906041 74.525391 
L 392.30403 74.060972 
L 390.472484 73.362253 
L 388.411403 72.893651 
L 386.004837 72.194932 
L 380.164714 69.169938 
L 369.40024 65.446226 
L 365.621197 64.513205 
L 356.688269 64.513205 
L 351.879869 63.814486 
L 347.185054 62.651349 
L 342.374287 61.253911 
L 337.565888 60.555192 
L 328.17389 59.622171 
L 323.479074 58.693335 
L 318.897843 58.224733 
L 314.432562 58.224733 
L 309.737747 57.994616 
L 300.4617 56.13276 
L 296.110003 55.664157 
L 291.642356 55.43404 
L 282.825379 54.50102 
L 278.360098 53.802301 
L 274.008401 53.568 
L 262.212204 54.266719 
L 258.203626 54.735321 
L 254.311 54.965438 
L 250.531957 54.735321 
L 246.866499 54.266719 
L 243.203407 54.50102 
L 239.767483 55.664157 
L 236.445144 56.597178 
L 233.584241 56.827295 
L 231.177674 57.295897 
L 228.887059 58.224733 
L 226.598809 58.923452 
L 224.535362 59.157753 
L 222.819767 59.157753 
L 221.558508 59.622171 
L 220.529151 60.555192 
L 220.183666 61.484028 
L 220.183666 61.95263 
L 220.529151 62.881466 
L 221.101805 63.350068 
L 221.558508 64.048787 
L 222.247113 64.513205 
L 222.819767 64.513205 
L 223.73554 64.747506 
L 224.308194 65.446226 
L 224.880847 66.609363 
L 225.567086 67.073781 
L 225.567086 67.7725 
L 225.68067 68.006801 
L 226.13974 68.006801 
L 225.68067 68.236918 
L 225.223967 68.935637 
L 225.223967 69.404239 
L 225.567086 69.634357 
L 225.910205 69.634357 
L 225.910205 69.868658 
L 225.567086 70.333076 
L 225.337551 71.031795 
L 225.337551 71.496213 
L 225.567086 71.496213 
L 225.567086 71.266096 
L 225.337551 70.567377 
L 225.68067 70.801678 
L 225.79662 71.266096 
L 225.68067 72.429233 
L 226.13974 71.730514 
L 226.13974 71.964815 
L 226.026155 72.429233 
L 226.13974 72.194932 
L 226.369274 72.194932 
L 226.13974 73.59237 
L 226.369274 74.29109 
L 226.369274 74.29109 
L 226.369274 74.060972 
L 226.482859 73.362253 
L 226.712393 72.893651 
L 226.712393 73.127952 
L 227.171463 74.759692 
L 227.285047 74.525391 
L 227.285047 74.29109 
L 227.055513 74.29109 
L 226.941928 74.525391 
L 227.055513 74.989809 
L 227.628166 75.458411 
L 227.398632 75.688528 
L 227.055513 75.458411 
L 227.055513 75.22411 
L 227.171463 75.22411 
L 227.171463 75.458411 
L 226.941928 75.922829 
L 226.825978 76.621548 
L 226.941928 77.085966 
L 227.285047 77.085966 
L 227.055513 77.784685 
L 227.055513 78.018986 
L 227.285047 78.249103 
L 227.285047 78.249103 
L 227.285047 78.018986 
L 227.285047 78.249103 
L 227.055513 78.717705 
L 226.941928 79.416425 
L 227.055513 79.880843 
L 227.285047 79.880843 
L 227.514582 79.646542 
L 227.514582 79.880843 
L 227.171463 81.04398 
L 227.055513 81.04398 
L 227.171463 81.04398 
L 227.628166 82.207117 
L 227.628166 82.905836 
L 227.514582 82.905836 
L 227.744117 82.905836 
L 228.087236 83.140137 
L 228.087236 83.374438 
L 227.857701 82.675719 
L 227.971286 82.905836 
L 228.314405 84.771877 
L 228.087236 83.604556 
L 228.20082 83.604556 
L 228.430355 84.303275 
L 228.543939 84.073158 
L 228.773474 84.073158 
L 228.887059 84.537576 
L 228.65989 84.073158 
L 228.314405 84.303275 
L 227.744117 84.303275 
L 226.941928 83.838857 
L 226.026155 83.604556 
L 224.078659 83.604556 
L 222.703816 83.838857 
L 218.238535 83.838857 
L 215.6048 84.073158 
L 213.198234 84.073158 
L 207.930765 84.537576 
L 205.526565 85.935014 
L 192.814594 97.110337 
L 188.235729 101.76707 
L 182.738725 106.423803 
L 180.332159 108.285659 
L 178.041543 110.381816 
L 175.980462 113.176693 
L 173.919381 115.502968 
L 171.744716 117.369008 
L 169.33815 119.695282 
L 166.820366 122.490159 
L 161.896015 127.377009 
L 156.74213 132.502344 
L 154.451514 134.828619 
L 152.160899 137.389194 
L 149.643114 139.953954 
L 147.00938 142.045927 
L 144.375645 143.911968 
L 142.085029 145.309406 
L 140.137533 146.70266 
L 135.099598 151.129276 
L 132.465863 153.924153 
L 128.800405 158.580886 
L 126.16667 163.003318 
L 125.021362 165.329593 
L 121.928558 175.111661 
L 121.814973 176.973517 
L 121.928558 178.835373 
L 122.501212 180.69723 
L 123.073865 182.094668 
L 123.646519 183.027688 
L 123.876054 184.190826 
L 124.105589 186.052682 
L 124.219173 187.918722 
L 123.876054 190.010696 
L 123.876054 191.178017 
L 124.105589 192.575455 
L 124.219173 194.203011 
L 124.907778 197.232188 
L 124.907778 198.395326 
L 124.448708 199.558463 
L 123.416985 204.215196 
L 123.3034 205.378333 
L 122.844331 207.708792 
L 122.844331 209.570648 
L 122.387627 213.064244 
L 122.044508 213.762963 
L 121.928558 215.390518 
L 122.271677 215.624819 
L 122.501212 216.323539 
L 122.044508 219.118415 
L 122.271677 220.047251 
L 122.387627 219.817134 
L 122.271677 219.348532 
L 121.928558 219.582833 
L 121.814973 220.281553 
L 122.044508 222.143409 
L 122.158092 221.909108 
L 122.387627 222.143409 
L 122.387627 223.076429 
L 122.271677 224.473867 
L 122.044508 224.938286 
L 121.699023 224.938286 
L 121.814973 225.402704 
L 122.044508 225.637005 
L 122.387627 225.172587 
L 122.617162 224.473867 
L 122.730746 225.172587 
L 122.387627 224.938286 
L 122.044508 224.938286 
L 122.158092 224.703985 
L 122.501212 224.473867 
L 122.960281 224.938286 
L 123.189816 224.703985 
L 123.3034 224.938286 
L 123.189816 225.172587 
L 122.844331 225.172587 
L 122.844331 224.938286 
L 123.3034 223.775148 
L 123.073865 223.775148 
L 122.844331 224.239566 
L 123.073865 224.703985 
L 123.416985 224.938286 
L 123.416985 225.637005 
L 123.416985 225.402704 
L 123.3034 224.938286 
L 123.416985 224.703985 
L 123.532935 224.938286 
L 123.76247 224.239566 
L 123.989638 224.703985 
L 123.989638 225.172587 
L 123.989638 224.938286 
L 124.335124 224.005265 
L 124.678243 223.306546 
L 124.562292 223.540847 
L 124.678243 223.775148 
L 125.364481 222.842128 
L 124.791827 223.775148 
L 124.907778 224.005265 
L 125.021362 223.775148 
L 125.021362 223.076429 
L 125.250897 223.076429 
L 125.478065 223.540847 
L 125.7076 223.540847 
L 125.937135 223.076429 
L 125.937135 222.607827 
L 125.937135 222.607827 
L 125.250897 222.607827 
L 125.364481 222.143409 
L 125.594016 221.909108 
L 125.823551 221.909108 
L 125.937135 221.678991 
L 125.937135 221.909108 
L 125.937135 222.842128 
L 125.937135 222.37771 
L 126.280254 221.214573 
L 126.396205 221.214573 
L 126.280254 221.678991 
L 126.396205 222.143409 
L 126.623373 221.909108 
L 126.739324 222.143409 
L 126.509789 222.842128 
L 126.16667 223.306546 
L 125.250897 222.842128 
L 124.907778 222.842128 
L 124.105589 222.37771 
L 122.730746 221.909108 
L 121.355904 221.909108 
L 119.753893 221.678991 
L 117.692812 220.745971 
L 115.286245 219.348532 
L 110.134726 217.951094 
L 107.500992 217.252375 
L 104.637722 217.022258 
L 98.338529 217.951094 
L 95.59121 218.185395 
L 93.300594 218.649813 
L 91.239513 218.649813 
L 87.80359 218.185395 
L 86.315163 218.419696 
L 83.565478 218.419696 
L 82.649705 218.649813 
L 81.963466 218.419696 
L 81.161278 217.951094 
L 79.902386 217.951094 
L 78.757078 218.419696 
L 77.725354 218.419696 
L 76.809581 218.185395 
L 75.664273 217.720977 
L 74.862085 218.185395 
L 74.175846 218.884114 
L 73.946312 218.884114 
L 73.832727 219.118415 
L 73.832727 220.281553 
L 74.175846 220.745971 
L 74.518965 221.44469 
L 75.434738 222.607827 
L 76.236927 224.239566 
L 76.580046 224.239566 
L 76.809581 224.473867 
L 76.809581 226.335724 
L 76.695997 227.034443 
L 76.695997 227.733162 
L 76.580046 228.19758 
L 76.007392 228.896299 
L 76.007392 229.595019 
L 76.123343 230.059437 
L 76.466462 230.528039 
L 76.580046 230.992457 
L 76.007392 230.992457 
L 75.777858 231.691176 
L 75.777858 232.620012 
L 75.893808 232.854313 
L 76.007392 232.620012 
L 75.893808 232.389895 
L 76.350511 233.318731 
L 76.236927 233.553032 
L 76.580046 232.854313 
L 76.695997 233.088614 
L 76.466462 233.787333 
L 76.466462 233.553032 
L 76.580046 233.787333 
L 76.695997 234.486053 
L 76.695997 235.64919 
L 76.466462 235.414889 
L 76.466462 234.950471 
L 76.809581 234.251752 
L 76.923165 234.486053 
L 76.809581 235.184772 
L 76.923165 235.414889 
L 77.61177 235.414889 
L 77.382235 235.184772 
L 77.1527 235.184772 
L 77.039116 235.879307 
L 77.268651 236.578026 
L 77.61177 236.812327 
L 77.725354 237.046628 
L 77.725354 235.64919 
L 77.954889 235.64919 
L 78.184424 235.879307 
L 78.298008 235.64919 
L 77.61177 235.184772 
L 77.495819 235.414889 
L 77.841305 235.879307 
L 78.068473 236.113608 
L 78.184424 236.812327 
L 78.411592 237.276745 
L 78.298008 237.276745 
L 78.184424 237.276745 
L 78.068473 237.046628 
L 78.298008 236.347909 
L 78.870662 237.046628 
L 78.641127 237.511046 
L 78.298008 237.745347 
L 78.184424 237.511046 
L 78.411592 237.046628 
L 78.527543 237.276745 
L 78.527543 237.046628 
L 78.641127 236.812327 
L 78.984246 236.812327 
L 79.100197 237.276745 
L 78.984246 237.511046 
L 78.641127 237.276745 
L 78.298008 235.879307 
L 78.184424 237.046628 
L 78.641127 237.046628 
L 79.100197 236.812327 
L 79.213781 236.578026 
L 78.870662 236.578026 
L 78.870662 236.578026 
L 78.641127 236.347909 
L 78.641127 236.578026 
L 79.5569 236.578026 
L 79.672851 236.113608 
L 79.672851 236.578026 
L 79.672851 236.812327 
L 79.672851 236.578026 
L 79.786435 236.113608 
L 79.786435 236.113608 
L 79.5569 236.347909 
L 79.5569 235.879307 
L 80.129554 234.71617 
L 80.01597 234.71617 
L 79.443316 234.71617 
L 79.672851 234.71617 
L 80.01597 234.950471 
L 80.245505 235.64919 
L 79.902386 236.113608 
L 79.786435 236.113608 
L 80.129554 235.879307 
L 80.475039 236.113608 
L 80.245505 235.879307 
L 80.129554 235.64919 
L 80.245505 235.64919 
L 80.245505 235.414889 
L 80.359089 235.184772 
L 80.588624 235.879307 
L 80.588624 236.812327 
L 80.702208 236.812327 
L 80.702208 236.113608 
L 80.588624 236.578026 
L 80.702208 236.578026 
L 80.818159 235.879307 
L 80.818159 236.113608 
L 80.818159 237.046628 
L 80.818159 237.046628 
L 81.047693 236.578026 
L 81.161278 234.950471 
L 81.047693 234.71617 
L 81.620347 235.64919 
L 81.733932 235.414889 
L 81.504397 235.414889 
L 81.047693 235.64919 
L 80.818159 236.113608 
L 80.818159 236.113608 
L 81.733932 235.64919 
L 81.963466 235.879307 
L 81.847516 235.879307 
L 81.733932 235.879307 
L 81.390812 236.113608 
L 82.077051 235.64919 
L 81.733932 236.578026 
L 81.733932 237.046628 
L 81.963466 236.812327 
L 82.190635 235.879307 
L 82.190635 235.184772 
L 81.847516 234.950471 
L 81.620347 234.950471 
L 82.190635 234.950471 
L 82.190635 234.71617 
L 81.847516 234.486053 
L 81.620347 234.71617 
L 82.190635 235.414889 
L 81.847516 235.879307 
L 81.390812 235.879307 
L 81.504397 235.414889 
L 81.733932 235.414889 
L 81.963466 235.64919 
L 82.077051 235.414889 
L 82.190635 234.71617 
L 82.306586 234.71617 
L 82.077051 235.184772 
L 82.190635 234.950471 
L 82.077051 234.950471 
L 82.077051 234.950471 
L 82.42017 233.787333 
L 82.649705 234.017451 
L 82.649705 234.71617 
L 82.306586 235.414889 
L 82.077051 234.71617 
L 81.733932 234.486053 
L 81.620347 234.71617 
L 81.733932 235.414889 
L 81.620347 236.347909 
L 81.733932 236.347909 
L 82.077051 235.184772 
L 81.847516 235.879307 
L 81.963466 236.347909 
L 82.306586 236.578026 
L 82.879239 236.578026 
L 82.077051 235.64919 
L 81.963466 235.64919 
L 82.42017 236.578026 
L 82.649705 236.578026 
L 82.649705 236.812327 
L 82.763289 237.276745 
L 82.53612 237.745347 
L 82.306586 237.745347 
L 82.190635 237.511046 
L 82.42017 236.347909 
L 82.649705 237.276745 
L 82.42017 237.511046 
L 82.306586 237.511046 
L 82.42017 237.276745 
L 82.649705 237.511046 
L 82.649705 237.745347 
L 82.649705 237.046628 
L 82.763289 236.347909 
L 82.763289 236.578026 
L 82.42017 237.276745 
L 82.53612 237.276745 
L 82.763289 237.276745 
L 82.879239 236.578026 
L 82.763289 236.113608 
L 82.879239 236.113608 
L 83.222359 236.812327 
L 83.335943 237.745347 
L 83.222359 237.745347 
L 83.222359 237.745347 
L 82.763289 236.812327 
L 82.53612 237.276745 
L 82.992824 237.975464 
L 83.108774 237.745347 
L 82.992824 237.511046 
L 83.108774 237.276745 
L 83.108774 237.511046 
L 83.222359 237.745347 
L 83.108774 237.511046 
L 83.335943 237.276745 
L 83.222359 237.745347 
L 82.992824 237.975464 
L 82.992824 238.209765 
L 83.108774 238.209765 
L 83.681428 237.745347 
L 83.681428 238.674184 
L 83.795012 238.674184 
L 83.908597 238.444066 
L 83.451893 238.444066 
L 83.565478 239.372903 
L 83.451893 239.372903 
L 83.335943 239.607204 
L 83.565478 239.142786 
L 83.108774 238.908485 
L 82.763289 239.142786 
L 82.763289 239.607204 
L 82.992824 239.841505 
L 83.222359 239.841505 
L 83.681428 239.607204 
L 84.94032 239.607204 
L 85.39939 240.071622 
L 86.199212 240.53604 
L 87.230936 241.004642 
L 88.832947 241.234759 
L 90.894028 241.234759 
L 93.414178 241.004642 
L 96.391032 241.004642 
L 99.942906 241.933478 
L 103.605998 243.330917 
L 115.745315 246.125793 
L 119.983427 246.824512 
L 128.800405 246.824512 
L 133.265685 247.523231 
L 137.846917 248.456252 
L 142.312198 248.92067 
L 146.55031 249.619389 
L 150.558887 250.782526 
L 154.33793 252.414266 
L 157.887438 254.276122 
L 161.552896 255.67356 
L 165.331939 256.836698 
L 168.881446 257.769718 
L 172.201419 258.468437 
L 183.997617 262.656568 
L 189.83774 264.054006 
L 192.24194 265.217143 
L 194.303021 266.384465 
L 196.364102 267.781903 
L 198.198014 269.409458 
L 202.090641 270.806897 
L 203.924554 272.204335 
L 206.328753 273.83189 
L 206.785457 274.300492 
L 207.014992 277.559787 
L 206.558288 278.258506 
L 205.41298 278.957225 
L 204.840327 279.886062 
L 204.381257 281.053383 
L 203.3519 282.680938 
L 202.663295 283.145356 
L 201.747522 283.145356 
L 200.715799 283.844075 
L 200.145511 284.542795 
L 199.800026 285.241514 
L 199.915976 285.475815 
L 200.259095 285.710116 
L 200.372679 286.174534 
L 200.259095 286.174534 
L 199.915976 285.710116 
L 198.884253 286.873253 
L 198.884253 287.337671 
L 198.884253 287.337671 
L 199.000203 287.802089 
L 198.770668 289.199528 
L 198.427549 289.66813 
L 197.96848 289.898247 
L 197.854895 289.66813 
L 197.50941 289.66813 
L 197.166291 289.898247 
L 196.823172 290.366849 
L 196.020983 291.764287 
L 195.677864 291.529986 
L 195.793814 291.529986 
L 196.136934 291.529986 
L 196.364102 291.295685 
L 195.677864 291.994404 
L 195.677864 292.228705 
L 195.448329 292.228705 
L 195.22116 292.458822 
L 195.22116 292.693123 
L 194.875675 294.324863 
L 194.875675 293.626144 
L 194.875675 293.157542 
L 194.875675 293.391843 
L 194.762091 294.324863 
L 194.532556 294.789281 
L 194.075853 294.789281 
L 193.959902 294.55498 
L 193.959902 294.789281 
L 193.959902 295.023582 
L 194.075853 295.253699 
L 193.959902 295.488 
L 193.616783 293.856261 
L 193.387248 294.55498 
L 193.387248 295.023582 
L 193.387248 294.789281 
L 192.930545 294.090562 
L 192.930545 294.324863 
L 193.157713 295.023582 
L 193.387248 295.023582 
L 193.273664 294.55498 
L 193.044129 294.55498 
L 193.044129 294.55498 
L 193.044129 294.324863 
L 192.930545 294.324863 
L 193.044129 294.55498 
L 193.044129 294.55498 
L 193.044129 295.023582 
L 192.930545 295.488 
L 192.814594 295.488 
L 192.585059 294.55498 
L 192.471475 294.55498 
L 192.471475 294.55498 
L 192.930545 294.090562 
L 193.387248 294.090562 
L 193.273664 293.626144 
L 193.044129 293.391843 
L 192.585059 292.458822 
L 192.814594 291.994404 
L 192.357891 291.994404 
L 192.471475 291.764287 
L 192.70101 291.764287 
L 192.814594 292.228705 
L 192.70101 291.994404 
L 192.70101 291.065568 
L 192.70101 291.065568 
L 192.814594 290.831267 
L 192.814594 290.831267 
L 192.357891 290.132548 
L 192.471475 289.433829 
L 192.70101 288.73511 
L 192.585059 288.270691 
L 192.585059 288.270691 
L 192.585059 288.73511 
L 192.930545 289.433829 
L 192.357891 287.802089 
L 192.471475 287.337671 
L 192.70101 287.107554 
L 192.814594 288.03639 
L 192.70101 287.571972 
L 192.585059 287.337671 
L 192.585059 287.337671 
L 192.70101 286.873253 
L 192.471475 286.638952 
L 192.357891 287.107554 
L 192.471475 287.107554 
L 192.471475 287.337671 
L 192.357891 287.107554 
L 192.357891 286.174534 
L 192.585059 285.011397 
L 192.471475 284.777096 
L 191.785237 285.241514 
L 191.898821 284.777096 
L 192.24194 284.777096 
L 192.24194 285.241514 
L 192.471475 285.011397 
L 192.471475 285.241514 
L 192.357891 285.241514 
L 192.24194 284.777096 
L 192.471475 285.241514 
L 192.357891 285.011397 
L 192.471475 284.542795 
L 192.471475 283.844075 
L 192.357891 283.844075 
L 192.128356 284.078377 
L 192.014772 284.078377 
L 192.128356 284.078377 
L 192.128356 283.844075 
L 192.24194 283.844075 
L 192.471475 284.777096 
L 192.014772 284.312678 
L 192.014772 284.078377 
L 192.014772 285.241514 
L 192.014772 284.777096 
L 191.898821 284.312678 
L 192.014772 284.312678 
L 192.24194 284.777096 
L 192.014772 285.241514 
L 192.128356 285.710116 
L 192.014772 285.710116 
L 191.555702 285.710116 
L 191.555702 286.408835 
L 191.326167 285.710116 
L 191.326167 283.844075 
L 191.212583 283.844075 
L 191.212583 284.542795 
L 191.555702 285.940233 
L 191.555702 285.940233 
L 191.669286 285.710116 
L 191.785237 284.542795 
L 191.669286 283.844075 
L 191.442118 284.078377 
L 191.326167 284.542795 
L 191.326167 284.542795 
L 191.555702 284.312678 
L 191.669286 283.613958 
L 191.555702 284.542795 
L 191.555702 285.011397 
L 191.442118 285.011397 
L 190.983048 285.475815 
L 190.983048 285.011397 
L 191.212583 285.011397 
L 191.442118 285.475815 
L 191.326167 285.011397 
L 191.212583 284.312678 
L 190.983048 283.844075 
L 191.326167 284.542795 
L 191.669286 285.940233 
L 191.555702 285.011397 
L 191.669286 285.011397 
L 191.326167 285.011397 
L 190.983048 284.777096 
L 190.410394 285.241514 
L 190.523979 285.710116 
L 190.983048 286.408835 
L 190.983048 286.873253 
L 190.753513 287.107554 
L 190.523979 287.107554 
L 190.523979 286.638952 
L 190.753513 285.475815 
L 190.983048 285.940233 
L 190.869464 285.940233 
L 190.639929 285.940233 
L 190.639929 285.710116 
L 190.639929 285.710116 
L 191.096632 286.873253 
L 191.096632 286.174534 
L 190.639929 285.475815 
L 186.517767 285.241514 
L 185.026974 285.241514 
L 183.081844 285.710116 
L 180.904812 285.475815 
L 178.271078 284.777096 
L 175.523759 283.844075 
L 172.546905 283.145356 
L 165.904593 281.2835 
L 162.352718 279.886062 
L 159.032746 278.722924 
L 155.826357 278.258506 
L 152.390433 278.024205 
L 148.727341 277.325486 
L 145.405002 276.162349 
L 142.312198 275.46363 
L 139.335344 274.530609 
L 136.588025 273.133171 
L 133.95429 271.505616 
L 131.320555 269.643759 
L 128.800405 268.476438 
L 124.907778 267.547602 
L 123.3034 266.848883 
L 118.83812 265.451444 
L 115.51578 263.589588 
L 112.652511 261.727732 
L 111.623153 260.794711 
L 110.70738 260.330293 
L 109.905192 260.095992 
L 109.103003 259.631574 
L 108.18723 259.631574 
L 107.957695 259.397273 
L 107.614576 258.698554 
L 107.500992 259.162972 
L 107.614576 259.631574 
L 108.18723 259.861691 
L 108.873468 259.861691 
L 109.332538 260.56041 
L 109.332538 261.493431 
L 109.446122 262.19215 
L 109.789241 262.426451 
L 110.820965 262.426451 
L 111.050499 264.288307 
L 111.050499 265.451444 
L 111.280034 265.685745 
L 111.393619 265.685745 
L 111.164084 265.915863 
L 110.820965 265.915863 
L 110.820965 266.150164 
L 110.361895 266.150164 
L 110.820965 266.848883 
L 111.050499 266.384465 
L 111.164084 265.685745 
L 111.050499 265.685745 
L 110.820965 266.384465 
L 110.820965 267.083184 
L 111.393619 267.547602 
L 111.507203 267.547602 
L 111.280034 267.547602 
L 111.280034 267.781903 
L 111.393619 267.781903 
L 111.393619 267.083184 
L 111.164084 266.150164 
L 111.280034 266.150164 
L 111.507203 266.150164 
L 111.623153 266.614582 
L 111.393619 267.313301 
L 111.050499 267.547602 
L 110.820965 267.547602 
L 110.59143 267.313301 
L 110.70738 267.083184 
L 111.507203 267.083184 
L 111.623153 267.313301 
L 111.393619 268.710739 
L 111.623153 268.710739 
L 111.736738 268.476438 
L 111.393619 268.01202 
L 111.050499 267.083184 
L 111.164084 267.547602 
L 111.280034 268.246321 
L 111.164084 268.476438 
L 111.164084 268.01202 
L 111.623153 267.547602 
L 112.079857 267.547602 
L 112.079857 267.313301 
L 111.966272 267.083184 
L 111.736738 267.083184 
L 111.852688 267.083184 
L 112.079857 267.313301 
L 112.079857 267.781903 
L 111.852688 267.781903 
L 112.079857 267.547602 
L 112.079857 267.781903 
L 111.852688 268.01202 
L 111.852688 267.547602 
L 112.195807 267.313301 
L 112.195807 267.781903 
L 112.309392 268.246321 
L 112.425342 268.246321 
L 112.195807 268.01202 
L 111.966272 267.313301 
L 111.966272 266.614582 
L 112.079857 266.150164 
L 112.079857 266.614582 
L 112.309392 268.246321 
L 112.309392 268.710739 
L 112.538926 268.01202 
L 112.425342 267.781903 
L 112.079857 267.547602 
L 112.079857 266.384465 
L 112.309392 266.614582 
L 112.652511 267.547602 
L 112.309392 268.01202 
L 112.195807 268.01202 
L 111.966272 267.547602 
L 111.966272 266.848883 
L 112.425342 266.848883 
L 112.768461 267.313301 
L 112.768461 267.547602 
L 112.652511 268.01202 
L 112.768461 267.781903 
L 112.538926 267.781903 
L 112.309392 267.547602 
L 112.309392 267.313301 
L 112.538926 267.083184 
L 112.882045 266.614582 
L 112.652511 267.083184 
L 112.652511 267.313301 
L 112.538926 267.781903 
L 112.309392 268.01202 
L 111.966272 267.547602 
L 111.852688 267.547602 
L 112.195807 267.313301 
L 112.538926 267.313301 
L 112.768461 267.781903 
L 112.652511 267.781903 
L 112.425342 267.781903 
L 112.538926 267.313301 
L 112.425342 266.848883 
L 112.309392 266.848883 
L 112.652511 266.614582 
L 112.768461 266.150164 
L 112.768461 266.384465 
L 112.768461 266.848883 
L 112.882045 267.083184 
L 112.882045 267.083184 
L 113.341115 266.614582 
L 113.225165 266.614582 
L 112.997996 266.614582 
L 112.882045 266.848883 
L 112.882045 267.313301 
L 113.11158 267.547602 
L 113.225165 267.313301 
L 113.11158 266.848883 
L 112.768461 266.848883 
L 112.425342 267.083184 
L 112.309392 266.848883 
L 112.425342 266.848883 
L 112.425342 268.476438 
L 112.768461 267.547602 
L 112.652511 267.313301 
L 112.538926 267.547602 
L 112.538926 267.547602 
L 112.538926 267.083184 
L 112.425342 266.384465 
L 112.652511 266.150164 
L 112.997996 266.384465 
L 112.882045 266.848883 
L 112.195807 267.781903 
L 112.538926 267.313301 
L 112.652511 266.848883 
L 112.538926 266.848883 
L 112.425342 266.848883 
L 112.652511 267.313301 
L 112.425342 267.781903 
L 112.425342 266.848883 
L 112.309392 266.384465 
L 112.425342 267.083184 
L 112.425342 267.781903 
L 112.079857 268.01202 
L 111.966272 268.246321 
L 112.309392 268.01202 
L 112.538926 267.547602 
L 112.309392 266.848883 
L 111.966272 267.313301 
L 112.079857 268.246321 
L 112.538926 268.476438 
L 113.11158 267.547602 
L 112.997996 267.083184 
L 112.882045 267.547602 
L 112.882045 267.547602 
L 112.652511 267.313301 
L 112.425342 267.781903 
L 111.966272 268.246321 
L 112.309392 268.01202 
L 112.652511 267.083184 
L 112.768461 267.083184 
L 112.538926 267.313301 
L 112.079857 267.083184 
L 111.852688 267.313301 
L 112.079857 267.547602 
L 112.538926 267.781903 
L 112.652511 268.01202 
L 112.652511 267.781903 
L 112.768461 267.547602 
L 112.652511 267.781903 
L 112.309392 267.781903 
L 112.309392 267.547602 
L 112.425342 267.313301 
L 112.652511 267.547602 
L 112.652511 268.01202 
L 112.538926 268.01202 
L 112.425342 268.246321 
L 112.079857 268.476438 
L 111.736738 268.246321 
L 111.966272 268.01202 
L 112.195807 267.083184 
L 112.195807 267.083184 
L 112.309392 267.083184 
L 112.309392 267.083184 
L 112.195807 267.547602 
L 112.768461 267.547602 
L 112.882045 267.781903 
L 112.652511 267.547602 
L 112.538926 267.547602 
L 112.538926 267.547602 
L 112.768461 267.083184 
L 113.11158 266.848883 
L 113.11158 266.848883 
L 113.11158 267.313301 
L 112.768461 267.781903 
L 112.652511 267.547602 
L 112.882045 268.01202 
L 112.768461 267.547602 
L 112.997996 267.547602 
L 112.882045 267.547602 
L 112.309392 268.476438 
L 112.652511 268.01202 
L 112.882045 267.781903 
L 113.11158 267.083184 
L 113.11158 267.083184 
L 112.195807 267.781903 
L 111.966272 268.246321 
L 112.195807 268.476438 
L 112.652511 268.246321 
L 112.768461 268.01202 
L 112.652511 268.01202 
L 112.538926 267.781903 
L 112.538926 268.01202 
L 112.538926 268.476438 
L 112.538926 268.476438 
" style="fill:none;stroke:#1f77b4;stroke-linecap:square;stroke-width:1.5;"/>
   </g>
   <g id="matplotlib.axis_1">
    <g id="xtick_1">
     <g id="line2d_2">
      <defs>
       <path d="M 0 0 
L 0 3.5 
" id="m8e79d688ad" style="stroke:#000000;stroke-width:0.8;"/>
      </defs>
      <g>
       <use style="stroke:#000000;stroke-width:0.8;" x="68.184277" xlink:href="#m8e79d688ad" y="307.584"/>
      </g>
     </g>
     <g id="text_1">
      <!-- −600 -->
      <defs>
       <path d="M 10.59375 35.5 
L 73.1875 35.5 
L 73.1875 27.203125 
L 10.59375 27.203125 
z
" id="DejaVuSans-8722"/>
       <path d="M 33.015625 40.375 
Q 26.375 40.375 22.484375 35.828125 
Q 18.609375 31.296875 18.609375 23.390625 
Q 18.609375 15.53125 22.484375 10.953125 
Q 26.375 6.390625 33.015625 6.390625 
Q 39.65625 6.390625 43.53125 10.953125 
Q 47.40625 15.53125 47.40625 23.390625 
Q 47.40625 31.296875 43.53125 35.828125 
Q 39.65625 40.375 33.015625 40.375 
z
M 52.59375 71.296875 
L 52.59375 62.3125 
Q 48.875 64.0625 45.09375 64.984375 
Q 41.3125 65.921875 37.59375 65.921875 
Q 27.828125 65.921875 22.671875 59.328125 
Q 17.53125 52.734375 16.796875 39.40625 
Q 19.671875 43.65625 24.015625 45.921875 
Q 28.375 48.1875 33.59375 48.1875 
Q 44.578125 48.1875 50.953125 41.515625 
Q 57.328125 34.859375 57.328125 23.390625 
Q 57.328125 12.15625 50.6875 5.359375 
Q 44.046875 -1.421875 33.015625 -1.421875 
Q 20.359375 -1.421875 13.671875 8.265625 
Q 6.984375 17.96875 6.984375 36.375 
Q 6.984375 53.65625 15.1875 63.9375 
Q 23.390625 74.21875 37.203125 74.21875 
Q 40.921875 74.21875 44.703125 73.484375 
Q 48.484375 72.75 52.59375 71.296875 
z
" id="DejaVuSans-54"/>
       <path d="M 31.78125 66.40625 
Q 24.171875 66.40625 20.328125 58.90625 
Q 16.5 51.421875 16.5 36.375 
Q 16.5 21.390625 20.328125 13.890625 
Q 24.171875 6.390625 31.78125 6.390625 
Q 39.453125 6.390625 43.28125 13.890625 
Q 47.125 21.390625 47.125 36.375 
Q 47.125 51.421875 43.28125 58.90625 
Q 39.453125 66.40625 31.78125 66.40625 
z
M 31.78125 74.21875 
Q 44.046875 74.21875 50.515625 64.515625 
Q 56.984375 54.828125 56.984375 36.375 
Q 56.984375 17.96875 50.515625 8.265625 
Q 44.046875 -1.421875 31.78125 -1.421875 
Q 19.53125 -1.421875 13.0625 8.265625 
Q 6.59375 17.96875 6.59375 36.375 
Q 6.59375 54.828125 13.0625 64.515625 
Q 19.53125 74.21875 31.78125 74.21875 
z
" id="DejaVuSans-48"/>
      </defs>
      <g transform="translate(54.450683 322.182437)scale(0.1 -0.1)">
       <use xlink:href="#DejaVuSans-8722"/>
       <use x="83.789062" xlink:href="#DejaVuSans-54"/>
       <use x="147.412109" xlink:href="#DejaVuSans-48"/>
       <use x="211.035156" xlink:href="#DejaVuSans-48"/>
      </g>
     </g>
    </g>
    <g id="xtick_2">
     <g id="line2d_3">
      <g>
       <use style="stroke:#000000;stroke-width:0.8;" x="115.511048" xlink:href="#m8e79d688ad" y="307.584"/>
      </g>
     </g>
     <g id="text_2">
      <!-- −400 -->
      <defs>
       <path d="M 37.796875 64.3125 
L 12.890625 25.390625 
L 37.796875 25.390625 
z
M 35.203125 72.90625 
L 47.609375 72.90625 
L 47.609375 25.390625 
L 58.015625 25.390625 
L 58.015625 17.1875 
L 47.609375 17.1875 
L 47.609375 0 
L 37.796875 0 
L 37.796875 17.1875 
L 4.890625 17.1875 
L 4.890625 26.703125 
z
" id="DejaVuSans-52"/>
      </defs>
      <g transform="translate(101.777454 322.182437)scale(0.1 -0.1)">
       <use xlink:href="#DejaVuSans-8722"/>
       <use x="83.789062" xlink:href="#DejaVuSans-52"/>
       <use x="147.412109" xlink:href="#DejaVuSans-48"/>
       <use x="211.035156" xlink:href="#DejaVuSans-48"/>
      </g>
     </g>
    </g>
    <g id="xtick_3">
     <g id="line2d_4">
      <g>
       <use style="stroke:#000000;stroke-width:0.8;" x="162.837818" xlink:href="#m8e79d688ad" y="307.584"/>
      </g>
     </g>
     <g id="text_3">
      <!-- −200 -->
      <defs>
       <path d="M 19.1875 8.296875 
L 53.609375 8.296875 
L 53.609375 0 
L 7.328125 0 
L 7.328125 8.296875 
Q 12.9375 14.109375 22.625 23.890625 
Q 32.328125 33.6875 34.8125 36.53125 
Q 39.546875 41.84375 41.421875 45.53125 
Q 43.3125 49.21875 43.3125 52.78125 
Q 43.3125 58.59375 39.234375 62.25 
Q 35.15625 65.921875 28.609375 65.921875 
Q 23.96875 65.921875 18.8125 64.3125 
Q 13.671875 62.703125 7.8125 59.421875 
L 7.8125 69.390625 
Q 13.765625 71.78125 18.9375 73 
Q 24.125 74.21875 28.421875 74.21875 
Q 39.75 74.21875 46.484375 68.546875 
Q 53.21875 62.890625 53.21875 53.421875 
Q 53.21875 48.921875 51.53125 44.890625 
Q 49.859375 40.875 45.40625 35.40625 
Q 44.1875 33.984375 37.640625 27.21875 
Q 31.109375 20.453125 19.1875 8.296875 
z
" id="DejaVuSans-50"/>
      </defs>
      <g transform="translate(149.104224 322.182437)scale(0.1 -0.1)">
       <use xlink:href="#DejaVuSans-8722"/>
       <use x="83.789062" xlink:href="#DejaVuSans-50"/>
       <use x="147.412109" xlink:href="#DejaVuSans-48"/>
       <use x="211.035156" xlink:href="#DejaVuSans-48"/>
      </g>
     </g>
    </g>
    <g id="xtick_4">
     <g id="line2d_5">
      <g>
       <use style="stroke:#000000;stroke-width:0.8;" x="210.164588" xlink:href="#m8e79d688ad" y="307.584"/>
      </g>
     </g>
     <g id="text_4">
      <!-- 0 -->
      <g transform="translate(206.983338 322.182437)scale(0.1 -0.1)">
       <use xlink:href="#DejaVuSans-48"/>
      </g>
     </g>
    </g>
    <g id="xtick_5">
     <g id="line2d_6">
      <g>
       <use style="stroke:#000000;stroke-width:0.8;" x="257.491359" xlink:href="#m8e79d688ad" y="307.584"/>
      </g>
     </g>
     <g id="text_5">
      <!-- 200 -->
      <g transform="translate(247.947609 322.182437)scale(0.1 -0.1)">
       <use xlink:href="#DejaVuSans-50"/>
       <use x="63.623047" xlink:href="#DejaVuSans-48"/>
       <use x="127.246094" xlink:href="#DejaVuSans-48"/>
      </g>
     </g>
    </g>
    <g id="xtick_6">
     <g id="line2d_7">
      <g>
       <use style="stroke:#000000;stroke-width:0.8;" x="304.818129" xlink:href="#m8e79d688ad" y="307.584"/>
      </g>
     </g>
     <g id="text_6">
      <!-- 400 -->
      <g transform="translate(295.274379 322.182437)scale(0.1 -0.1)">
       <use xlink:href="#DejaVuSans-52"/>
       <use x="63.623047" xlink:href="#DejaVuSans-48"/>
       <use x="127.246094" xlink:href="#DejaVuSans-48"/>
      </g>
     </g>
    </g>
    <g id="xtick_7">
     <g id="line2d_8">
      <g>
       <use style="stroke:#000000;stroke-width:0.8;" x="352.144899" xlink:href="#m8e79d688ad" y="307.584"/>
      </g>
     </g>
     <g id="text_7">
      <!-- 600 -->
      <g transform="translate(342.601149 322.182437)scale(0.1 -0.1)">
       <use xlink:href="#DejaVuSans-54"/>
       <use x="63.623047" xlink:href="#DejaVuSans-48"/>
       <use x="127.246094" xlink:href="#DejaVuSans-48"/>
      </g>
     </g>
    </g>
    <g id="xtick_8">
     <g id="line2d_9">
      <g>
       <use style="stroke:#000000;stroke-width:0.8;" x="399.47167" xlink:href="#m8e79d688ad" y="307.584"/>
      </g>
     </g>
     <g id="text_8">
      <!-- 800 -->
      <defs>
       <path d="M 31.78125 34.625 
Q 24.75 34.625 20.71875 30.859375 
Q 16.703125 27.09375 16.703125 20.515625 
Q 16.703125 13.921875 20.71875 10.15625 
Q 24.75 6.390625 31.78125 6.390625 
Q 38.8125 6.390625 42.859375 10.171875 
Q 46.921875 13.96875 46.921875 20.515625 
Q 46.921875 27.09375 42.890625 30.859375 
Q 38.875 34.625 31.78125 34.625 
z
M 21.921875 38.8125 
Q 15.578125 40.375 12.03125 44.71875 
Q 8.5 49.078125 8.5 55.328125 
Q 8.5 64.0625 14.71875 69.140625 
Q 20.953125 74.21875 31.78125 74.21875 
Q 42.671875 74.21875 48.875 69.140625 
Q 55.078125 64.0625 55.078125 55.328125 
Q 55.078125 49.078125 51.53125 44.71875 
Q 48 40.375 41.703125 38.8125 
Q 48.828125 37.15625 52.796875 32.3125 
Q 56.78125 27.484375 56.78125 20.515625 
Q 56.78125 9.90625 50.3125 4.234375 
Q 43.84375 -1.421875 31.78125 -1.421875 
Q 19.734375 -1.421875 13.25 4.234375 
Q 6.78125 9.90625 6.78125 20.515625 
Q 6.78125 27.484375 10.78125 32.3125 
Q 14.796875 37.15625 21.921875 38.8125 
z
M 18.3125 54.390625 
Q 18.3125 48.734375 21.84375 45.5625 
Q 25.390625 42.390625 31.78125 42.390625 
Q 38.140625 42.390625 41.71875 45.5625 
Q 45.3125 48.734375 45.3125 54.390625 
Q 45.3125 60.0625 41.71875 63.234375 
Q 38.140625 66.40625 31.78125 66.40625 
Q 25.390625 66.40625 21.84375 63.234375 
Q 18.3125 60.0625 18.3125 54.390625 
z
" id="DejaVuSans-56"/>
      </defs>
      <g transform="translate(389.92792 322.182437)scale(0.1 -0.1)">
       <use xlink:href="#DejaVuSans-56"/>
       <use x="63.623047" xlink:href="#DejaVuSans-48"/>
       <use x="127.246094" xlink:href="#DejaVuSans-48"/>
      </g>
     </g>
    </g>
   </g>
   <g id="matplotlib.axis_2">
    <g id="ytick_1">
     <g id="line2d_10">
      <defs>
       <path d="M 0 0 
L -3.5 0 
" id="m51eaef51bc" style="stroke:#000000;stroke-width:0.8;"/>
      </defs>
      <g>
       <use style="stroke:#000000;stroke-width:0.8;" x="57.6" xlink:href="#m51eaef51bc" y="277.940526"/>
      </g>
     </g>
     <g id="text_9">
      <!-- −200 -->
      <g transform="translate(23.132812 281.739745)scale(0.1 -0.1)">
       <use xlink:href="#DejaVuSans-8722"/>
       <use x="83.789062" xlink:href="#DejaVuSans-50"/>
       <use x="147.412109" xlink:href="#DejaVuSans-48"/>
       <use x="211.035156" xlink:href="#DejaVuSans-48"/>
      </g>
     </g>
    </g>
    <g id="ytick_2">
     <g id="line2d_11">
      <g>
       <use style="stroke:#000000;stroke-width:0.8;" x="57.6" xlink:href="#m51eaef51bc" y="236.101056"/>
      </g>
     </g>
     <g id="text_10">
      <!-- −100 -->
      <defs>
       <path d="M 12.40625 8.296875 
L 28.515625 8.296875 
L 28.515625 63.921875 
L 10.984375 60.40625 
L 10.984375 69.390625 
L 28.421875 72.90625 
L 38.28125 72.90625 
L 38.28125 8.296875 
L 54.390625 8.296875 
L 54.390625 0 
L 12.40625 0 
z
" id="DejaVuSans-49"/>
      </defs>
      <g transform="translate(23.132812 239.900275)scale(0.1 -0.1)">
       <use xlink:href="#DejaVuSans-8722"/>
       <use x="83.789062" xlink:href="#DejaVuSans-49"/>
       <use x="147.412109" xlink:href="#DejaVuSans-48"/>
       <use x="211.035156" xlink:href="#DejaVuSans-48"/>
      </g>
     </g>
    </g>
    <g id="ytick_3">
     <g id="line2d_12">
      <g>
       <use style="stroke:#000000;stroke-width:0.8;" x="57.6" xlink:href="#m51eaef51bc" y="194.261586"/>
      </g>
     </g>
     <g id="text_11">
      <!-- 0 -->
      <g transform="translate(44.2375 198.060805)scale(0.1 -0.1)">
       <use xlink:href="#DejaVuSans-48"/>
      </g>
     </g>
    </g>
    <g id="ytick_4">
     <g id="line2d_13">
      <g>
       <use style="stroke:#000000;stroke-width:0.8;" x="57.6" xlink:href="#m51eaef51bc" y="152.422116"/>
      </g>
     </g>
     <g id="text_12">
      <!-- 100 -->
      <g transform="translate(31.5125 156.221335)scale(0.1 -0.1)">
       <use xlink:href="#DejaVuSans-49"/>
       <use x="63.623047" xlink:href="#DejaVuSans-48"/>
       <use x="127.246094" xlink:href="#DejaVuSans-48"/>
      </g>
     </g>
    </g>
    <g id="ytick_5">
     <g id="line2d_14">
      <g>
       <use style="stroke:#000000;stroke-width:0.8;" x="57.6" xlink:href="#m51eaef51bc" y="110.582646"/>
      </g>
     </g>
     <g id="text_13">
      <!-- 200 -->
      <g transform="translate(31.5125 114.381865)scale(0.1 -0.1)">
       <use xlink:href="#DejaVuSans-50"/>
       <use x="63.623047" xlink:href="#DejaVuSans-48"/>
       <use x="127.246094" xlink:href="#DejaVuSans-48"/>
      </g>
     </g>
    </g>
    <g id="ytick_6">
     <g id="line2d_15">
      <g>
       <use style="stroke:#000000;stroke-width:0.8;" x="57.6" xlink:href="#m51eaef51bc" y="68.743176"/>
      </g>
     </g>
     <g id="text_14">
      <!-- 300 -->
      <defs>
       <path d="M 40.578125 39.3125 
Q 47.65625 37.796875 51.625 33 
Q 55.609375 28.21875 55.609375 21.1875 
Q 55.609375 10.40625 48.1875 4.484375 
Q 40.765625 -1.421875 27.09375 -1.421875 
Q 22.515625 -1.421875 17.65625 -0.515625 
Q 12.796875 0.390625 7.625 2.203125 
L 7.625 11.71875 
Q 11.71875 9.328125 16.59375 8.109375 
Q 21.484375 6.890625 26.8125 6.890625 
Q 36.078125 6.890625 40.9375 10.546875 
Q 45.796875 14.203125 45.796875 21.1875 
Q 45.796875 27.640625 41.28125 31.265625 
Q 36.765625 34.90625 28.71875 34.90625 
L 20.21875 34.90625 
L 20.21875 43.015625 
L 29.109375 43.015625 
Q 36.375 43.015625 40.234375 45.921875 
Q 44.09375 48.828125 44.09375 54.296875 
Q 44.09375 59.90625 40.109375 62.90625 
Q 36.140625 65.921875 28.71875 65.921875 
Q 24.65625 65.921875 20.015625 65.03125 
Q 15.375 64.15625 9.8125 62.3125 
L 9.8125 71.09375 
Q 15.4375 72.65625 20.34375 73.4375 
Q 25.25 74.21875 29.59375 74.21875 
Q 40.828125 74.21875 47.359375 69.109375 
Q 53.90625 64.015625 53.90625 55.328125 
Q 53.90625 49.265625 50.4375 45.09375 
Q 46.96875 40.921875 40.578125 39.3125 
z
" id="DejaVuSans-51"/>
      </defs>
      <g transform="translate(31.5125 72.542395)scale(0.1 -0.1)">
       <use xlink:href="#DejaVuSans-51"/>
       <use x="63.623047" xlink:href="#DejaVuSans-48"/>
       <use x="127.246094" xlink:href="#DejaVuSans-48"/>
      </g>
     </g>
    </g>
   </g>
   <g id="line2d_16">
    <path clip-path="url(#p0441ffd6cf)" d="M 396.462865 73.593851 
L 226.338737 74.34826 
L 123.7527 216.084863 
L 80.213077 233.999279 
L 193.880558 287.149498 
L 112.434311 266.844402 
" style="fill:none;stroke:#ff0000;stroke-linecap:square;stroke-width:0.5;"/>
   </g>
   <g id="patch_3">
    <path d="M 57.6 307.584 
L 57.6 41.472 
" style="fill:none;stroke:#000000;stroke-linecap:square;stroke-linejoin:miter;stroke-width:0.8;"/>
   </g>
   <g id="patch_4">
    <path d="M 414.72 307.584 
L 414.72 41.472 
" style="fill:none;stroke:#000000;stroke-linecap:square;stroke-linejoin:miter;stroke-width:0.8;"/>
   </g>
   <g id="patch_5">
    <path d="M 57.6 307.584 
L 414.72 307.584 
" style="fill:none;stroke:#000000;stroke-linecap:square;stroke-linejoin:miter;stroke-width:0.8;"/>
   </g>
   <g id="patch_6">
    <path d="M 57.6 41.472 
L 414.72 41.472 
" style="fill:none;stroke:#000000;stroke-linecap:square;stroke-linejoin:miter;stroke-width:0.8;"/>
   </g>
   <g id="PathCollection_1">
    <defs>
     <path d="M 0 2.738613 
C 0.726289 2.738613 1.422928 2.450055 1.936492 1.936492 
C 2.450055 1.422928 2.738613 0.726289 2.738613 0 
C 2.738613 -0.726289 2.450055 -1.422928 1.936492 -1.936492 
C 1.422928 -2.450055 0.726289 -2.738613 0 -2.738613 
C -0.726289 -2.738613 -1.422928 -2.450055 -1.936492 -1.936492 
C -2.450055 -1.422928 -2.738613 -0.726289 -2.738613 0 
C -2.738613 0.726289 -2.450055 1.422928 -1.936492 1.936492 
C -1.422928 2.450055 -0.726289 2.738613 0 2.738613 
z
" id="md9f7a54fbf" style="stroke:#ff0000;"/>
    </defs>
    <g clip-path="url(#p0441ffd6cf)">
     <use style="fill:#ff0000;stroke:#ff0000;" x="396.462865" xlink:href="#md9f7a54fbf" y="73.593851"/>
     <use style="fill:#ff0000;stroke:#ff0000;" x="226.338737" xlink:href="#md9f7a54fbf" y="74.34826"/>
     <use style="fill:#ff0000;stroke:#ff0000;" x="123.7527" xlink:href="#md9f7a54fbf" y="216.084863"/>
     <use style="fill:#ff0000;stroke:#ff0000;" x="80.213077" xlink:href="#md9f7a54fbf" y="233.999279"/>
     <use style="fill:#ff0000;stroke:#ff0000;" x="193.880558" xlink:href="#md9f7a54fbf" y="287.149498"/>
     <use style="fill:#ff0000;stroke:#ff0000;" x="112.434311" xlink:href="#md9f7a54fbf" y="266.844402"/>
    </g>
   </g>
   <g id="text_15">
    <!-- (3) Subject: s7, Known = False, Degree = 1, Duration = 0.1 -->
    <defs>
     <path d="M 31 75.875 
Q 24.46875 64.65625 21.28125 53.65625 
Q 18.109375 42.671875 18.109375 31.390625 
Q 18.109375 20.125 21.3125 9.0625 
Q 24.515625 -2 31 -13.1875 
L 23.1875 -13.1875 
Q 15.875 -1.703125 12.234375 9.375 
Q 8.59375 20.453125 8.59375 31.390625 
Q 8.59375 42.28125 12.203125 53.3125 
Q 15.828125 64.359375 23.1875 75.875 
z
" id="DejaVuSans-40"/>
     <path d="M 8.015625 75.875 
L 15.828125 75.875 
Q 23.140625 64.359375 26.78125 53.3125 
Q 30.421875 42.28125 30.421875 31.390625 
Q 30.421875 20.453125 26.78125 9.375 
Q 23.140625 -1.703125 15.828125 -13.1875 
L 8.015625 -13.1875 
Q 14.5 -2 17.703125 9.0625 
Q 20.90625 20.125 20.90625 31.390625 
Q 20.90625 42.671875 17.703125 53.65625 
Q 14.5 64.65625 8.015625 75.875 
z
" id="DejaVuSans-41"/>
     <path id="DejaVuSans-32"/>
     <path d="M 53.515625 70.515625 
L 53.515625 60.890625 
Q 47.90625 63.578125 42.921875 64.890625 
Q 37.9375 66.21875 33.296875 66.21875 
Q 25.25 66.21875 20.875 63.09375 
Q 16.5 59.96875 16.5 54.203125 
Q 16.5 49.359375 19.40625 46.890625 
Q 22.3125 44.4375 30.421875 42.921875 
L 36.375 41.703125 
Q 47.40625 39.59375 52.65625 34.296875 
Q 57.90625 29 57.90625 20.125 
Q 57.90625 9.515625 50.796875 4.046875 
Q 43.703125 -1.421875 29.984375 -1.421875 
Q 24.8125 -1.421875 18.96875 -0.25 
Q 13.140625 0.921875 6.890625 3.21875 
L 6.890625 13.375 
Q 12.890625 10.015625 18.65625 8.296875 
Q 24.421875 6.59375 29.984375 6.59375 
Q 38.421875 6.59375 43.015625 9.90625 
Q 47.609375 13.234375 47.609375 19.390625 
Q 47.609375 24.75 44.3125 27.78125 
Q 41.015625 30.8125 33.5 32.328125 
L 27.484375 33.5 
Q 16.453125 35.6875 11.515625 40.375 
Q 6.59375 45.0625 6.59375 53.421875 
Q 6.59375 63.09375 13.40625 68.65625 
Q 20.21875 74.21875 32.171875 74.21875 
Q 37.3125 74.21875 42.625 73.28125 
Q 47.953125 72.359375 53.515625 70.515625 
z
" id="DejaVuSans-83"/>
     <path d="M 8.5 21.578125 
L 8.5 54.6875 
L 17.484375 54.6875 
L 17.484375 21.921875 
Q 17.484375 14.15625 20.5 10.265625 
Q 23.53125 6.390625 29.59375 6.390625 
Q 36.859375 6.390625 41.078125 11.03125 
Q 45.3125 15.671875 45.3125 23.6875 
L 45.3125 54.6875 
L 54.296875 54.6875 
L 54.296875 0 
L 45.3125 0 
L 45.3125 8.40625 
Q 42.046875 3.421875 37.71875 1 
Q 33.40625 -1.421875 27.6875 -1.421875 
Q 18.265625 -1.421875 13.375 4.4375 
Q 8.5 10.296875 8.5 21.578125 
z
M 31.109375 56 
z
" id="DejaVuSans-117"/>
     <path d="M 48.6875 27.296875 
Q 48.6875 37.203125 44.609375 42.84375 
Q 40.53125 48.484375 33.40625 48.484375 
Q 26.265625 48.484375 22.1875 42.84375 
Q 18.109375 37.203125 18.109375 27.296875 
Q 18.109375 17.390625 22.1875 11.75 
Q 26.265625 6.109375 33.40625 6.109375 
Q 40.53125 6.109375 44.609375 11.75 
Q 48.6875 17.390625 48.6875 27.296875 
z
M 18.109375 46.390625 
Q 20.953125 51.265625 25.265625 53.625 
Q 29.59375 56 35.59375 56 
Q 45.5625 56 51.78125 48.09375 
Q 58.015625 40.1875 58.015625 27.296875 
Q 58.015625 14.40625 51.78125 6.484375 
Q 45.5625 -1.421875 35.59375 -1.421875 
Q 29.59375 -1.421875 25.265625 0.953125 
Q 20.953125 3.328125 18.109375 8.203125 
L 18.109375 0 
L 9.078125 0 
L 9.078125 75.984375 
L 18.109375 75.984375 
z
" id="DejaVuSans-98"/>
     <path d="M 9.421875 54.6875 
L 18.40625 54.6875 
L 18.40625 -0.984375 
Q 18.40625 -11.421875 14.421875 -16.109375 
Q 10.453125 -20.796875 1.609375 -20.796875 
L -1.8125 -20.796875 
L -1.8125 -13.1875 
L 0.59375 -13.1875 
Q 5.71875 -13.1875 7.5625 -10.8125 
Q 9.421875 -8.453125 9.421875 -0.984375 
z
M 9.421875 75.984375 
L 18.40625 75.984375 
L 18.40625 64.59375 
L 9.421875 64.59375 
z
" id="DejaVuSans-106"/>
     <path d="M 56.203125 29.59375 
L 56.203125 25.203125 
L 14.890625 25.203125 
Q 15.484375 15.921875 20.484375 11.0625 
Q 25.484375 6.203125 34.421875 6.203125 
Q 39.59375 6.203125 44.453125 7.46875 
Q 49.3125 8.734375 54.109375 11.28125 
L 54.109375 2.78125 
Q 49.265625 0.734375 44.1875 -0.34375 
Q 39.109375 -1.421875 33.890625 -1.421875 
Q 20.796875 -1.421875 13.15625 6.1875 
Q 5.515625 13.8125 5.515625 26.8125 
Q 5.515625 40.234375 12.765625 48.109375 
Q 20.015625 56 32.328125 56 
Q 43.359375 56 49.78125 48.890625 
Q 56.203125 41.796875 56.203125 29.59375 
z
M 47.21875 32.234375 
Q 47.125 39.59375 43.09375 43.984375 
Q 39.0625 48.390625 32.421875 48.390625 
Q 24.90625 48.390625 20.390625 44.140625 
Q 15.875 39.890625 15.1875 32.171875 
z
" id="DejaVuSans-101"/>
     <path d="M 48.78125 52.59375 
L 48.78125 44.1875 
Q 44.96875 46.296875 41.140625 47.34375 
Q 37.3125 48.390625 33.40625 48.390625 
Q 24.65625 48.390625 19.8125 42.84375 
Q 14.984375 37.3125 14.984375 27.296875 
Q 14.984375 17.28125 19.8125 11.734375 
Q 24.65625 6.203125 33.40625 6.203125 
Q 37.3125 6.203125 41.140625 7.25 
Q 44.96875 8.296875 48.78125 10.40625 
L 48.78125 2.09375 
Q 45.015625 0.34375 40.984375 -0.53125 
Q 36.96875 -1.421875 32.421875 -1.421875 
Q 20.0625 -1.421875 12.78125 6.34375 
Q 5.515625 14.109375 5.515625 27.296875 
Q 5.515625 40.671875 12.859375 48.328125 
Q 20.21875 56 33.015625 56 
Q 37.15625 56 41.109375 55.140625 
Q 45.0625 54.296875 48.78125 52.59375 
z
" id="DejaVuSans-99"/>
     <path d="M 18.3125 70.21875 
L 18.3125 54.6875 
L 36.8125 54.6875 
L 36.8125 47.703125 
L 18.3125 47.703125 
L 18.3125 18.015625 
Q 18.3125 11.328125 20.140625 9.421875 
Q 21.96875 7.515625 27.59375 7.515625 
L 36.8125 7.515625 
L 36.8125 0 
L 27.59375 0 
Q 17.1875 0 13.234375 3.875 
Q 9.28125 7.765625 9.28125 18.015625 
L 9.28125 47.703125 
L 2.6875 47.703125 
L 2.6875 54.6875 
L 9.28125 54.6875 
L 9.28125 70.21875 
z
" id="DejaVuSans-116"/>
     <path d="M 11.71875 12.40625 
L 22.015625 12.40625 
L 22.015625 0 
L 11.71875 0 
z
M 11.71875 51.703125 
L 22.015625 51.703125 
L 22.015625 39.3125 
L 11.71875 39.3125 
z
" id="DejaVuSans-58"/>
     <path d="M 44.28125 53.078125 
L 44.28125 44.578125 
Q 40.484375 46.53125 36.375 47.5 
Q 32.28125 48.484375 27.875 48.484375 
Q 21.1875 48.484375 17.84375 46.4375 
Q 14.5 44.390625 14.5 40.28125 
Q 14.5 37.15625 16.890625 35.375 
Q 19.28125 33.59375 26.515625 31.984375 
L 29.59375 31.296875 
Q 39.15625 29.25 43.1875 25.515625 
Q 47.21875 21.78125 47.21875 15.09375 
Q 47.21875 7.46875 41.1875 3.015625 
Q 35.15625 -1.421875 24.609375 -1.421875 
Q 20.21875 -1.421875 15.453125 -0.5625 
Q 10.6875 0.296875 5.421875 2 
L 5.421875 11.28125 
Q 10.40625 8.6875 15.234375 7.390625 
Q 20.0625 6.109375 24.8125 6.109375 
Q 31.15625 6.109375 34.5625 8.28125 
Q 37.984375 10.453125 37.984375 14.40625 
Q 37.984375 18.0625 35.515625 20.015625 
Q 33.0625 21.96875 24.703125 23.78125 
L 21.578125 24.515625 
Q 13.234375 26.265625 9.515625 29.90625 
Q 5.8125 33.546875 5.8125 39.890625 
Q 5.8125 47.609375 11.28125 51.796875 
Q 16.75 56 26.8125 56 
Q 31.78125 56 36.171875 55.265625 
Q 40.578125 54.546875 44.28125 53.078125 
z
" id="DejaVuSans-115"/>
     <path d="M 8.203125 72.90625 
L 55.078125 72.90625 
L 55.078125 68.703125 
L 28.609375 0 
L 18.3125 0 
L 43.21875 64.59375 
L 8.203125 64.59375 
z
" id="DejaVuSans-55"/>
     <path d="M 11.71875 12.40625 
L 22.015625 12.40625 
L 22.015625 4 
L 14.015625 -11.625 
L 7.71875 -11.625 
L 11.71875 4 
z
" id="DejaVuSans-44"/>
     <path d="M 9.8125 72.90625 
L 19.671875 72.90625 
L 19.671875 42.09375 
L 52.390625 72.90625 
L 65.09375 72.90625 
L 28.90625 38.921875 
L 67.671875 0 
L 54.6875 0 
L 19.671875 35.109375 
L 19.671875 0 
L 9.8125 0 
z
" id="DejaVuSans-75"/>
     <path d="M 54.890625 33.015625 
L 54.890625 0 
L 45.90625 0 
L 45.90625 32.71875 
Q 45.90625 40.484375 42.875 44.328125 
Q 39.84375 48.1875 33.796875 48.1875 
Q 26.515625 48.1875 22.3125 43.546875 
Q 18.109375 38.921875 18.109375 30.90625 
L 18.109375 0 
L 9.078125 0 
L 9.078125 54.6875 
L 18.109375 54.6875 
L 18.109375 46.1875 
Q 21.34375 51.125 25.703125 53.5625 
Q 30.078125 56 35.796875 56 
Q 45.21875 56 50.046875 50.171875 
Q 54.890625 44.34375 54.890625 33.015625 
z
" id="DejaVuSans-110"/>
     <path d="M 30.609375 48.390625 
Q 23.390625 48.390625 19.1875 42.75 
Q 14.984375 37.109375 14.984375 27.296875 
Q 14.984375 17.484375 19.15625 11.84375 
Q 23.34375 6.203125 30.609375 6.203125 
Q 37.796875 6.203125 41.984375 11.859375 
Q 46.1875 17.53125 46.1875 27.296875 
Q 46.1875 37.015625 41.984375 42.703125 
Q 37.796875 48.390625 30.609375 48.390625 
z
M 30.609375 56 
Q 42.328125 56 49.015625 48.375 
Q 55.71875 40.765625 55.71875 27.296875 
Q 55.71875 13.875 49.015625 6.21875 
Q 42.328125 -1.421875 30.609375 -1.421875 
Q 18.84375 -1.421875 12.171875 6.21875 
Q 5.515625 13.875 5.515625 27.296875 
Q 5.515625 40.765625 12.171875 48.375 
Q 18.84375 56 30.609375 56 
z
" id="DejaVuSans-111"/>
     <path d="M 4.203125 54.6875 
L 13.1875 54.6875 
L 24.421875 12.015625 
L 35.59375 54.6875 
L 46.1875 54.6875 
L 57.421875 12.015625 
L 68.609375 54.6875 
L 77.59375 54.6875 
L 63.28125 0 
L 52.6875 0 
L 40.921875 44.828125 
L 29.109375 0 
L 18.5 0 
z
" id="DejaVuSans-119"/>
     <path d="M 10.59375 45.40625 
L 73.1875 45.40625 
L 73.1875 37.203125 
L 10.59375 37.203125 
z
M 10.59375 25.484375 
L 73.1875 25.484375 
L 73.1875 17.1875 
L 10.59375 17.1875 
z
" id="DejaVuSans-61"/>
     <path d="M 9.8125 72.90625 
L 51.703125 72.90625 
L 51.703125 64.59375 
L 19.671875 64.59375 
L 19.671875 43.109375 
L 48.578125 43.109375 
L 48.578125 34.8125 
L 19.671875 34.8125 
L 19.671875 0 
L 9.8125 0 
z
" id="DejaVuSans-70"/>
     <path d="M 34.28125 27.484375 
Q 23.390625 27.484375 19.1875 25 
Q 14.984375 22.515625 14.984375 16.5 
Q 14.984375 11.71875 18.140625 8.90625 
Q 21.296875 6.109375 26.703125 6.109375 
Q 34.1875 6.109375 38.703125 11.40625 
Q 43.21875 16.703125 43.21875 25.484375 
L 43.21875 27.484375 
z
M 52.203125 31.203125 
L 52.203125 0 
L 43.21875 0 
L 43.21875 8.296875 
Q 40.140625 3.328125 35.546875 0.953125 
Q 30.953125 -1.421875 24.3125 -1.421875 
Q 15.921875 -1.421875 10.953125 3.296875 
Q 6 8.015625 6 15.921875 
Q 6 25.140625 12.171875 29.828125 
Q 18.359375 34.515625 30.609375 34.515625 
L 43.21875 34.515625 
L 43.21875 35.40625 
Q 43.21875 41.609375 39.140625 45 
Q 35.0625 48.390625 27.6875 48.390625 
Q 23 48.390625 18.546875 47.265625 
Q 14.109375 46.140625 10.015625 43.890625 
L 10.015625 52.203125 
Q 14.9375 54.109375 19.578125 55.046875 
Q 24.21875 56 28.609375 56 
Q 40.484375 56 46.34375 49.84375 
Q 52.203125 43.703125 52.203125 31.203125 
z
" id="DejaVuSans-97"/>
     <path d="M 9.421875 75.984375 
L 18.40625 75.984375 
L 18.40625 0 
L 9.421875 0 
z
" id="DejaVuSans-108"/>
     <path d="M 19.671875 64.796875 
L 19.671875 8.109375 
L 31.59375 8.109375 
Q 46.6875 8.109375 53.6875 14.9375 
Q 60.6875 21.78125 60.6875 36.53125 
Q 60.6875 51.171875 53.6875 57.984375 
Q 46.6875 64.796875 31.59375 64.796875 
z
M 9.8125 72.90625 
L 30.078125 72.90625 
Q 51.265625 72.90625 61.171875 64.09375 
Q 71.09375 55.28125 71.09375 36.53125 
Q 71.09375 17.671875 61.125 8.828125 
Q 51.171875 0 30.078125 0 
L 9.8125 0 
z
" id="DejaVuSans-68"/>
     <path d="M 45.40625 27.984375 
Q 45.40625 37.75 41.375 43.109375 
Q 37.359375 48.484375 30.078125 48.484375 
Q 22.859375 48.484375 18.828125 43.109375 
Q 14.796875 37.75 14.796875 27.984375 
Q 14.796875 18.265625 18.828125 12.890625 
Q 22.859375 7.515625 30.078125 7.515625 
Q 37.359375 7.515625 41.375 12.890625 
Q 45.40625 18.265625 45.40625 27.984375 
z
M 54.390625 6.78125 
Q 54.390625 -7.171875 48.1875 -13.984375 
Q 42 -20.796875 29.203125 -20.796875 
Q 24.46875 -20.796875 20.265625 -20.09375 
Q 16.0625 -19.390625 12.109375 -17.921875 
L 12.109375 -9.1875 
Q 16.0625 -11.328125 19.921875 -12.34375 
Q 23.78125 -13.375 27.78125 -13.375 
Q 36.625 -13.375 41.015625 -8.765625 
Q 45.40625 -4.15625 45.40625 5.171875 
L 45.40625 9.625 
Q 42.625 4.78125 38.28125 2.390625 
Q 33.9375 0 27.875 0 
Q 17.828125 0 11.671875 7.65625 
Q 5.515625 15.328125 5.515625 27.984375 
Q 5.515625 40.671875 11.671875 48.328125 
Q 17.828125 56 27.875 56 
Q 33.9375 56 38.28125 53.609375 
Q 42.625 51.21875 45.40625 46.390625 
L 45.40625 54.6875 
L 54.390625 54.6875 
z
" id="DejaVuSans-103"/>
     <path d="M 41.109375 46.296875 
Q 39.59375 47.171875 37.8125 47.578125 
Q 36.03125 48 33.890625 48 
Q 26.265625 48 22.1875 43.046875 
Q 18.109375 38.09375 18.109375 28.8125 
L 18.109375 0 
L 9.078125 0 
L 9.078125 54.6875 
L 18.109375 54.6875 
L 18.109375 46.1875 
Q 20.953125 51.171875 25.484375 53.578125 
Q 30.03125 56 36.53125 56 
Q 37.453125 56 38.578125 55.875 
Q 39.703125 55.765625 41.0625 55.515625 
z
" id="DejaVuSans-114"/>
     <path d="M 9.421875 54.6875 
L 18.40625 54.6875 
L 18.40625 0 
L 9.421875 0 
z
M 9.421875 75.984375 
L 18.40625 75.984375 
L 18.40625 64.59375 
L 9.421875 64.59375 
z
" id="DejaVuSans-105"/>
     <path d="M 10.6875 12.40625 
L 21 12.40625 
L 21 0 
L 10.6875 0 
z
" id="DejaVuSans-46"/>
    </defs>
    <g transform="translate(57.376875 35.472)scale(0.12 -0.12)">
     <use xlink:href="#DejaVuSans-40"/>
     <use x="39.013672" xlink:href="#DejaVuSans-51"/>
     <use x="102.636719" xlink:href="#DejaVuSans-41"/>
     <use x="141.650391" xlink:href="#DejaVuSans-32"/>
     <use x="173.4375" xlink:href="#DejaVuSans-83"/>
     <use x="236.914062" xlink:href="#DejaVuSans-117"/>
     <use x="300.292969" xlink:href="#DejaVuSans-98"/>
     <use x="363.769531" xlink:href="#DejaVuSans-106"/>
     <use x="391.552734" xlink:href="#DejaVuSans-101"/>
     <use x="453.076172" xlink:href="#DejaVuSans-99"/>
     <use x="508.056641" xlink:href="#DejaVuSans-116"/>
     <use x="547.265625" xlink:href="#DejaVuSans-58"/>
     <use x="580.957031" xlink:href="#DejaVuSans-32"/>
     <use x="612.744141" xlink:href="#DejaVuSans-115"/>
     <use x="664.84375" xlink:href="#DejaVuSans-55"/>
     <use x="728.466797" xlink:href="#DejaVuSans-44"/>
     <use x="760.253906" xlink:href="#DejaVuSans-32"/>
     <use x="792.041016" xlink:href="#DejaVuSans-75"/>
     <use x="857.617188" xlink:href="#DejaVuSans-110"/>
     <use x="920.996094" xlink:href="#DejaVuSans-111"/>
     <use x="982.177734" xlink:href="#DejaVuSans-119"/>
     <use x="1063.964844" xlink:href="#DejaVuSans-110"/>
     <use x="1127.34375" xlink:href="#DejaVuSans-32"/>
     <use x="1159.130859" xlink:href="#DejaVuSans-61"/>
     <use x="1242.919922" xlink:href="#DejaVuSans-32"/>
     <use x="1274.707031" xlink:href="#DejaVuSans-70"/>
     <use x="1332.085938" xlink:href="#DejaVuSans-97"/>
     <use x="1393.365234" xlink:href="#DejaVuSans-108"/>
     <use x="1421.148438" xlink:href="#DejaVuSans-115"/>
     <use x="1473.248047" xlink:href="#DejaVuSans-101"/>
     <use x="1534.771484" xlink:href="#DejaVuSans-44"/>
     <use x="1566.558594" xlink:href="#DejaVuSans-32"/>
     <use x="1598.345703" xlink:href="#DejaVuSans-68"/>
     <use x="1675.347656" xlink:href="#DejaVuSans-101"/>
     <use x="1736.871094" xlink:href="#DejaVuSans-103"/>
     <use x="1800.347656" xlink:href="#DejaVuSans-114"/>
     <use x="1841.429688" xlink:href="#DejaVuSans-101"/>
     <use x="1902.953125" xlink:href="#DejaVuSans-101"/>
     <use x="1964.476562" xlink:href="#DejaVuSans-32"/>
     <use x="1996.263672" xlink:href="#DejaVuSans-61"/>
     <use x="2080.052734" xlink:href="#DejaVuSans-32"/>
     <use x="2111.839844" xlink:href="#DejaVuSans-49"/>
     <use x="2175.462891" xlink:href="#DejaVuSans-44"/>
     <use x="2207.25" xlink:href="#DejaVuSans-32"/>
     <use x="2239.037109" xlink:href="#DejaVuSans-68"/>
     <use x="2316.039062" xlink:href="#DejaVuSans-117"/>
     <use x="2379.417969" xlink:href="#DejaVuSans-114"/>
     <use x="2420.53125" xlink:href="#DejaVuSans-97"/>
     <use x="2481.810547" xlink:href="#DejaVuSans-116"/>
     <use x="2521.019531" xlink:href="#DejaVuSans-105"/>
     <use x="2548.802734" xlink:href="#DejaVuSans-111"/>
     <use x="2609.984375" xlink:href="#DejaVuSans-110"/>
     <use x="2673.363281" xlink:href="#DejaVuSans-32"/>
     <use x="2705.150391" xlink:href="#DejaVuSans-61"/>
     <use x="2788.939453" xlink:href="#DejaVuSans-32"/>
     <use x="2820.726562" xlink:href="#DejaVuSans-48"/>
     <use x="2884.349609" xlink:href="#DejaVuSans-46"/>
     <use x="2916.136719" xlink:href="#DejaVuSans-49"/>
    </g>
   </g>
  </g>
 </g>
 <defs>
  <clipPath id="p0441ffd6cf">
   <rect height="266.112" width="357.12" x="57.6" y="41.472"/>
  </clipPath>
 </defs>
</svg>
