<?xml version="1.0" encoding="utf-8" standalone="no"?>
<!DOCTYPE svg PUBLIC "-//W3C//DTD SVG 1.1//EN"
  "http://www.w3.org/Graphics/SVG/1.1/DTD/svg11.dtd">
<!-- Created with matplotlib (https://matplotlib.org/) -->
<svg height="345.6pt" version="1.1" viewBox="0 0 460.8 345.6" width="460.8pt" xmlns="http://www.w3.org/2000/svg" xmlns:xlink="http://www.w3.org/1999/xlink">
 <defs>
  <style type="text/css">
*{stroke-linecap:butt;stroke-linejoin:round;}
  </style>
 </defs>
 <g id="figure_1">
  <g id="patch_1">
   <path d="M 0 345.6 
L 460.8 345.6 
L 460.8 0 
L 0 0 
z
" style="fill:#ffffff;"/>
  </g>
  <g id="axes_1">
   <g id="patch_2">
    <path d="M 57.6 307.584 
L 414.72 307.584 
L 414.72 41.472 
L 57.6 41.472 
z
" style="fill:#ffffff;"/>
   </g>
   <g id="line2d_1">
    <path clip-path="url(#pe399aab4ba)" d="M 397.932881 295.1993 
L 398.04376 294.336808 
L 398.265516 294.048107 
L 398.487273 294.048107 
L 398.376394 294.048107 
L 398.04376 293.759407 
L 397.932881 293.470707 
L 398.154638 293.470707 
L 398.376394 294.336808 
L 398.265516 294.048107 
L 398.154638 294.048107 
L 397.932881 294.625508 
L 397.711125 295.488 
L 398.04376 294.048107 
L 397.822003 294.910599 
L 397.600247 294.910599 
L 397.489368 294.048107 
L 397.822003 292.608215 
L 397.711125 293.470707 
L 397.822003 293.470707 
L 397.932881 293.759407 
L 397.932881 293.470707 
L 398.04376 292.319515 
L 398.154638 291.745723 
L 398.04376 292.608215 
L 397.822003 292.319515 
L 397.600247 291.457022 
L 397.711125 290.879622 
L 397.489368 292.030814 
L 397.600247 292.030814 
L 397.711125 291.745723 
L 397.711125 290.30583 
L 397.600247 290.30583 
L 397.489368 290.590922 
L 397.600247 290.879622 
L 397.822003 290.590922 
L 397.711125 289.151029 
L 397.156734 289.72843 
L 397.156734 290.590922 
L 397.267612 289.72843 
L 397.37849 290.01713 
L 397.267612 290.01713 
L 396.937974 289.72843 
L 397.048852 290.01713 
L 396.827096 289.72843 
L 396.827096 289.72843 
L 396.827096 290.01713 
L 396.937974 290.01713 
L 397.156734 289.439729 
L 397.048852 289.72843 
L 396.937974 289.439729 
L 397.048852 288.865938 
L 396.937974 290.01713 
L 396.937974 290.590922 
L 396.827096 289.439729 
L 396.716217 290.590922 
L 396.827096 290.879622 
L 396.716217 290.30583 
L 396.716217 289.72843 
L 396.605339 290.01713 
L 396.383582 290.30583 
L 396.161826 290.879622 
L 396.272704 290.879622 
L 396.494461 290.590922 
L 396.716217 290.590922 
L 396.383582 290.01713 
L 396.272704 290.01713 
L 396.937974 290.01713 
L 396.937974 290.01713 
L 396.383582 290.590922 
L 396.383582 290.879622 
L 396.494461 290.590922 
L 396.716217 290.590922 
L 396.383582 291.168322 
L 396.937974 289.72843 
L 396.383582 291.168322 
L 396.272704 290.590922 
L 396.383582 290.30583 
L 396.937974 290.879622 
L 396.827096 290.590922 
L 396.383582 289.72843 
L 396.605339 290.879622 
L 396.494461 290.590922 
L 396.716217 289.72843 
L 396.716217 289.72843 
L 396.827096 290.590922 
L 396.716217 290.590922 
L 397.048852 290.30583 
L 396.937974 290.01713 
L 396.605339 290.01713 
L 396.605339 290.30583 
L 396.494461 290.30583 
L 396.383582 290.590922 
L 396.494461 290.01713 
L 396.383582 290.01713 
L 396.161826 289.72843 
L 396.161826 288.865938 
L 396.383582 288.865938 
L 396.605339 289.151029 
L 396.605339 288.865938 
L 396.272704 288.577237 
L 396.161826 288.288537 
L 396.605339 289.151029 
L 396.383582 288.865938 
L 395.940069 288.865938 
L 396.050948 288.865938 
L 396.161826 289.439729 
L 396.383582 289.151029 
L 396.827096 288.865938 
L 396.827096 288.865938 
L 396.494461 289.439729 
L 396.161826 289.439729 
L 396.161826 288.865938 
L 396.494461 287.426045 
L 395.829191 288.288537 
L 395.607435 287.999837 
L 395.718313 287.711136 
L 396.161826 289.439729 
L 396.050948 288.865938 
L 395.940069 287.999837 
L 396.050948 287.711136 
L 395.940069 287.711136 
L 396.050948 288.288537 
L 396.716217 289.151029 
L 396.383582 287.999837 
L 396.383582 288.288537 
L 396.494461 288.865938 
L 396.494461 288.865938 
L 396.383582 289.151029 
L 396.050948 288.288537 
L 396.272704 288.577237 
L 396.827096 287.711136 
L 396.937974 286.848644 
L 396.716217 286.559944 
L 396.494461 287.426045 
L 396.605339 287.426045 
L 396.716217 287.711136 
L 396.605339 287.999837 
L 395.829191 287.999837 
L 395.053043 287.137345 
L 393.281988 283.968859 
L 391.84057 282.528967 
L 389.515124 281.377774 
L 386.524407 279.649181 
L 379.104554 274.174703 
L 374.339785 271.583618 
L 369.134501 268.130041 
L 358.16954 260.353177 
L 352.409863 255.744799 
L 341.220149 245.950642 
L 335.460473 241.057173 
L 329.47904 235.297602 
L 317.516175 222.049869 
L 311.645621 215.135497 
L 305.775066 208.798526 
L 299.685752 202.465164 
L 281.741454 181.729267 
L 269.889467 168.192833 
L 263.908034 161.282071 
L 258.148358 155.2338 
L 252.49956 149.470621 
L 247.291278 143.137259 
L 242.418628 136.800288 
L 237.656857 131.040717 
L 224.030817 116.641791 
L 220.045193 111.167313 
L 216.278329 105.696443 
L 212.622343 100.799364 
L 209.188114 95.905895 
L 205.864763 91.871308 
L 200.105087 85.823038 
L 197.668761 82.943252 
L 193.680141 77.472382 
L 191.132937 74.303897 
L 190.470665 73.441405 
L 190.359786 72.290213 
L 190.581543 71.424112 
L 191.909085 70.56162 
L 192.463477 69.984219 
L 192.90699 69.984219 
L 193.901897 70.56162 
L 194.899802 71.135411 
L 195.121558 71.424112 
L 195.121558 71.424112 
L 194.788923 70.272919 
L 194.456289 69.695519 
L 194.234532 69.695519 
L 194.012776 69.121727 
L 193.461381 68.833027 
L 192.685233 68.833027 
L 192.796111 68.255626 
L 192.463477 67.681834 
L 192.019964 67.681834 
L 191.687329 67.966926 
L 191.909085 65.953242 
L 191.909085 65.087141 
L 191.909085 65.087141 
L 192.130842 64.802049 
L 192.352598 63.935948 
L 192.019964 63.073456 
L 191.909085 61.922264 
L 191.798207 61.633564 
L 191.909085 61.633564 
L 191.798207 61.056163 
L 191.576451 61.344864 
L 191.576451 61.344864 
L 191.687329 60.767463 
L 191.354694 59.904971 
L 191.354694 60.193671 
L 191.354694 60.478763 
L 191.243816 58.465078 
L 191.022059 58.465078 
L 190.911181 59.03887 
L 191.132937 58.465078 
L 191.243816 58.753779 
L 191.022059 59.03887 
L 191.022059 58.465078 
L 190.911181 59.03887 
L 190.800303 59.32757 
L 190.689424 59.03887 
L 190.689424 58.176378 
L 191.022059 57.598978 
L 191.354694 57.313886 
L 190.581543 57.887678 
L 190.581543 58.465078 
L 190.581543 57.313886 
L 190.800303 57.313886 
L 190.800303 57.887678 
L 190.911181 57.025186 
L 191.022059 56.447785 
L 190.689424 57.887678 
L 190.800303 57.313886 
L 190.470665 57.313886 
L 190.470665 57.313886 
L 190.689424 56.447785 
L 191.022059 56.159085 
L 191.132937 56.447785 
L 191.132937 57.025186 
L 190.800303 57.598978 
L 190.689424 57.598978 
L 190.800303 57.025186 
L 191.132937 56.736485 
L 191.243816 56.736485 
L 190.911181 56.159085 
L 190.800303 56.159085 
L 190.800303 56.159085 
L 190.800303 55.873993 
L 190.911181 56.736485 
L 190.911181 56.736485 
L 191.022059 56.736485 
L 190.911181 57.313886 
L 190.911181 56.736485 
L 190.800303 56.736485 
L 190.800303 56.736485 
L 190.911181 56.159085 
L 190.800303 56.159085 
L 190.581543 56.447785 
L 190.689424 55.585293 
L 190.689424 55.873993 
L 190.911181 56.447785 
L 190.800303 55.873993 
L 191.132937 55.585293 
L 190.911181 55.585293 
L 190.800303 55.585293 
L 190.911181 55.296593 
L 191.243816 55.585293 
L 191.243816 55.585293 
L 191.022059 55.007893 
L 190.800303 55.007893 
L 190.248908 55.585293 
L 189.694517 55.585293 
L 188.807491 55.873993 
L 185.373261 55.873993 
L 183.047815 56.159085 
L 180.389733 56.159085 
L 174.297422 54.434101 
L 170.752314 53.568 
L 166.76669 53.8567 
L 162.445435 55.007893 
L 154.027677 56.736485 
L 149.8173 57.313886 
L 145.388163 58.176378 
L 140.845151 58.753779 
L 132.094758 61.056163 
L 124.231392 62.784756 
L 120.686284 63.647248 
L 116.91942 64.802049 
L 113.044675 65.664541 
L 109.499567 66.241942 
L 106.065337 66.527033 
L 102.741986 67.393134 
L 99.307757 68.544327 
L 96.098281 69.406819 
L 92.996686 69.695519 
L 87.677526 69.695519 
L 85.241201 69.121727 
L 83.026633 68.833027 
L 80.922943 69.121727 
L 76.934322 70.272919 
L 74.054484 70.272919 
L 73.832727 70.846711 
L 73.832727 72.001512 
L 74.94151 72.001512 
L 76.047296 73.152705 
L 76.712565 74.015197 
L 77.488713 76.32119 
L 77.599591 77.183682 
L 77.599591 76.894982 
L 77.932226 76.32119 
L 77.71047 76.894982 
L 77.71047 77.183682 
L 77.488713 77.761083 
L 77.156078 78.049783 
L 76.712565 78.623575 
L 76.379931 79.200975 
L 76.379931 78.334874 
L 76.490809 80.063467 
L 76.601687 80.352168 
L 76.269052 79.774767 
L 76.379931 79.774767 
L 76.823444 79.774767 
L 77.156078 79.489675 
L 77.488713 79.774767 
L 77.488713 80.063467 
L 76.823444 80.063467 
L 76.934322 80.640868 
L 77.0452 80.640868 
L 77.377835 80.352168 
L 77.0452 80.640868 
L 77.0452 80.063467 
L 76.934322 81.21466 
L 76.823444 81.21466 
L 77.0452 80.352168 
L 77.0452 80.640868 
L 77.377835 81.50336 
L 77.71047 81.79206 
L 77.599591 82.08076 
L 76.712565 82.08076 
L 76.379931 81.79206 
L 76.269052 82.08076 
L 76.490809 82.658161 
L 76.934322 83.231953 
L 77.266957 82.943252 
L 77.156078 81.79206 
L 77.156078 82.08076 
L 76.823444 82.08076 
L 76.712565 82.369461 
L 76.823444 82.658161 
L 77.488713 83.231953 
L 77.599591 83.520653 
L 77.377835 83.520653 
L 77.266957 82.658161 
L 77.599591 84.383145 
L 77.488713 84.383145 
L 77.377835 84.671845 
L 77.156078 84.671845 
L 77.0452 84.383145 
L 77.599591 84.383145 
L 77.821348 84.671845 
L 77.71047 84.383145 
L 77.599591 83.520653 
L 77.71047 82.658161 
L 77.932226 83.231953 
L 77.821348 84.671845 
L 77.71047 84.383145 
L 77.71047 84.671845 
L 77.821348 85.537946 
L 77.599591 85.537946 
L 77.377835 84.098054 
L 77.488713 84.098054 
L 77.71047 84.960546 
L 77.821348 84.098054 
L 77.932226 84.383145 
L 78.153983 85.537946 
L 78.153983 84.960546 
L 78.375739 84.671845 
L 78.594499 85.249246 
L 78.486618 85.537946 
L 78.043104 85.249246 
L 77.821348 84.671845 
L 78.153983 85.249246 
L 78.264861 85.249246 
L 78.153983 84.098054 
L 78.264861 84.383145 
L 78.043104 84.671845 
L 77.821348 84.671845 
L 77.821348 85.537946 
L 77.932226 85.537946 
L 78.043104 84.098054 
L 77.932226 84.671845 
L 78.043104 85.537946 
L 78.153983 86.111738 
L 78.043104 86.111738 
L 77.821348 85.249246 
L 77.821348 84.383145 
L 77.821348 84.383145 
L 78.043104 84.671845 
L 78.264861 84.671845 
L 78.264861 84.671845 
L 78.153983 85.249246 
L 78.043104 86.111738 
L 78.043104 85.249246 
L 77.932226 85.249246 
L 78.375739 84.383145 
L 78.705377 85.537946 
L 78.816256 84.960546 
L 78.705377 84.671845 
L 78.816256 84.671845 
L 79.14889 84.671845 
L 78.927134 84.671845 
L 78.816256 84.383145 
L 78.927134 84.960546 
L 78.594499 86.689138 
L 78.705377 86.689138 
L 78.927134 86.111738 
L 78.705377 85.249246 
L 78.594499 85.823038 
L 78.816256 85.249246 
L 78.927134 85.537946 
L 78.705377 85.823038 
L 78.816256 84.383145 
L 78.927134 84.671845 
L 79.038012 86.400438 
L 78.816256 86.111738 
L 78.705377 85.537946 
L 79.14889 84.098054 
L 79.14889 84.098054 
L 79.14889 83.231953 
L 79.038012 84.098054 
L 78.927134 84.671845 
L 78.705377 84.671845 
L 78.705377 84.383145 
L 78.927134 84.098054 
L 78.927134 83.809353 
L 78.927134 84.383145 
L 78.705377 84.671845 
L 78.375739 84.671845 
L 78.264861 84.098054 
L 78.486618 84.671845 
L 78.594499 84.960546 
L 79.038012 83.520653 
L 78.705377 83.231953 
L 78.705377 83.231953 
L 78.594499 83.231953 
L 78.486618 83.809353 
L 78.486618 83.231953 
L 78.375739 82.943252 
L 78.594499 82.658161 
L 79.259769 82.658161 
L 79.14889 82.658161 
L 79.038012 82.943252 
L 79.038012 82.658161 
L 79.370647 81.21466 
L 80.368551 80.352168 
L 81.474337 80.063467 
L 83.026633 80.063467 
L 85.130323 80.640868 
L 87.677526 81.21466 
L 90.557364 80.929568 
L 93.991594 79.774767 
L 97.980215 78.049783 
L 102.409352 76.894982 
L 107.284998 76.60989 
L 112.490283 76.60989 
L 118.028203 76.32119 
L 123.677001 75.169998 
L 129.436677 74.592597 
L 135.41811 74.881297 
L 141.732177 75.455089 
L 154.249434 77.761083 
L 160.785258 78.623575 
L 167.428963 79.200975 
L 173.853909 80.352168 
L 180.057098 82.08076 
L 185.927653 83.231953 
L 202.65229 85.823038 
L 207.860571 86.400438 
L 212.8441 87.26293 
L 217.494993 87.840331 
L 221.927127 88.702823 
L 225.804869 89.857624 
L 229.34698 91.297517 
L 232.892088 92.448709 
L 236.326317 92.737409 
L 239.427912 92.737409 
L 245.07671 94.466002 
L 249.287087 95.039794 
L 251.83429 96.768387 
L 251.612534 96.768387 
L 250.947264 97.345787 
L 249.94936 97.630879 
L 248.732696 97.630879 
L 247.734791 97.919579 
L 245.741979 99.648172 
L 243.305654 99.648172 
L 243.416533 100.510664 
L 243.746171 100.799364 
L 243.857049 100.510664 
L 244.078806 100.799364 
L 244.854953 101.376765 
L 245.298466 101.665465 
L 245.409345 101.665465 
L 245.741979 102.239257 
L 245.963736 102.527957 
L 245.852858 102.816657 
L 245.631101 102.527957 
L 245.631101 102.239257 
L 245.520223 102.527957 
L 245.187588 103.105358 
L 244.965832 103.96785 
L 244.965832 104.54525 
L 245.187588 104.83395 
L 245.409345 104.25655 
L 245.298466 103.394058 
L 245.07671 103.105358 
L 245.07671 104.25655 
L 244.633197 105.119042 
L 244.633197 104.83395 
L 244.965832 104.25655 
L 245.298466 104.25655 
L 245.187588 105.696443 
L 245.07671 105.696443 
L 245.187588 105.696443 
L 245.187588 105.985143 
L 245.187588 104.54525 
L 244.965832 104.25655 
L 244.854953 104.83395 
L 244.965832 106.273843 
L 245.298466 107.998827 
L 245.187588 107.136335 
L 245.187588 106.558935 
L 244.965832 106.273843 
L 244.744075 106.847635 
L 244.854953 107.136335 
L 244.965832 108.576228 
L 245.187588 109.153628 
L 244.854953 108.576228 
L 244.854953 107.713736 
L 244.854953 107.713736 
L 244.633197 107.998827 
L 244.41144 107.998827 
L 244.41144 107.713736 
L 244.633197 107.713736 
L 245.07671 108.287527 
L 245.298466 107.713736 
L 245.187588 107.998827 
L 245.07671 107.713736 
L 244.854953 107.998827 
L 244.854953 108.287527 
L 244.854953 107.998827 
L 245.07671 108.287527 
L 245.187588 109.153628 
L 244.854953 109.72742 
L 244.965832 109.72742 
L 244.965832 110.882221 
L 244.744075 110.01612 
L 244.744075 112.033413 
L 244.854953 111.744713 
L 244.965832 112.033413 
L 244.744075 112.033413 
L 244.854953 110.882221 
L 244.965832 110.882221 
L 245.187588 111.456013 
L 245.187588 112.033413 
L 244.744075 112.033413 
L 244.965832 112.033413 
L 244.854953 112.607205 
L 244.744075 112.033413 
L 244.854953 111.456013 
L 245.187588 111.456013 
L 245.520223 112.322114 
L 245.409345 113.184606 
L 245.298466 112.895905 
L 245.298466 112.607205 
L 245.409345 113.184606 
L 245.520223 113.473306 
L 245.520223 111.744713 
L 245.409345 112.033413 
L 245.298466 112.322114 
L 245.298466 112.895905 
L 245.409345 112.895905 
L 245.520223 112.895905 
L 245.520223 112.607205 
L 245.187588 112.895905 
L 244.854953 114.335798 
L 245.741979 114.335798 
L 245.852858 113.762006 
L 245.741979 114.047098 
L 245.298466 114.624498 
L 245.187588 114.335798 
L 245.187588 114.335798 
L 244.854953 114.913199 
L 245.409345 113.473306 
L 245.187588 113.473306 
L 245.520223 113.473306 
L 245.741979 113.762006 
L 245.187588 113.762006 
L 245.187588 114.335798 
L 244.965832 114.624498 
L 244.965832 114.624498 
L 245.409345 116.064391 
L 245.409345 116.064391 
L 245.07671 115.775691 
L 245.187588 115.775691 
L 245.07671 116.064391 
L 245.298466 115.201899 
L 245.409345 115.775691 
L 245.298466 116.926883 
L 245.520223 117.504284 
L 245.852858 117.504284 
L 245.963736 117.215583 
L 245.187588 116.064391 
L 245.07671 116.064391 
L 245.187588 116.641791 
L 245.631101 117.504284 
L 245.963736 117.792984 
L 246.074614 117.504284 
L 245.963736 117.215583 
L 245.741979 117.215583 
L 245.409345 116.926883 
L 245.852858 117.792984 
L 245.741979 116.641791 
L 245.631101 116.641791 
L 245.409345 117.504284 
L 245.520223 118.081684 
L 245.631101 117.504284 
L 245.187588 117.504284 
L 245.187588 117.215583 
L 245.409345 116.641791 
L 245.631101 116.641791 
L 245.520223 118.655476 
L 245.520223 118.081684 
L 245.409345 118.081684 
L 245.298466 118.944176 
L 245.187588 118.655476 
L 244.965832 117.792984 
L 245.187588 118.655476 
L 245.298466 117.504284 
L 245.298466 118.366776 
L 245.409345 118.655476 
L 245.520223 118.081684 
L 245.409345 117.792984 
L 245.187588 118.081684 
L 244.965832 118.655476 
L 245.07671 118.944176 
L 245.187588 118.655476 
L 245.298466 117.792984 
L 245.298466 118.081684 
L 245.07671 118.366776 
L 244.854953 119.806668 
L 244.854953 119.806668 
L 245.298466 119.806668 
L 245.631101 120.384069 
L 245.741979 120.095368 
L 245.741979 119.232876 
L 245.631101 119.806668 
L 245.520223 118.944176 
L 245.520223 119.232876 
L 245.409345 119.806668 
L 245.187588 120.095368 
L 245.187588 120.095368 
L 245.409345 120.384069 
L 245.298466 120.961469 
L 245.187588 120.961469 
L 245.520223 120.095368 
L 245.741979 120.384069 
L 245.852858 121.535261 
L 245.852858 121.25017 
L 246.074614 121.25017 
L 246.074614 121.25017 
L 246.074614 121.823961 
L 245.963736 121.823961 
L 245.852858 121.25017 
L 246.074614 121.823961 
L 246.185493 121.535261 
L 245.963736 121.25017 
L 246.074614 122.401362 
L 245.852858 122.401362 
L 245.520223 122.401362 
L 245.409345 122.975154 
L 245.631101 123.263854 
L 246.296371 122.112662 
L 246.296371 121.535261 
L 246.407249 122.112662 
L 246.847765 122.401362 
L 246.847765 122.401362 
L 246.736887 122.690062 
L 246.629006 122.401362 
L 246.736887 122.112662 
L 246.958644 122.401362 
L 247.291278 123.552554 
L 247.402157 123.552554 
L 247.402157 123.263854 
L 247.291278 123.841254 
L 247.513035 123.841254 
L 247.734791 123.841254 
L 247.734791 123.841254 
L 247.734791 124.415046 
L 247.513035 124.415046 
L 247.623913 124.415046 
L 247.402157 124.703747 
L 247.623913 124.415046 
L 247.84567 124.415046 
L 248.178304 125.281147 
L 248.400061 124.415046 
L 248.400061 124.129955 
L 248.178304 123.841254 
L 248.067426 124.415046 
L 248.178304 124.703747 
L 248.843574 124.703747 
L 249.065331 124.992447 
L 249.508844 124.992447 
L 249.619722 125.281147 
L 250.281995 125.281147 
L 250.392873 124.992447 
L 250.281995 124.703747 
L 250.281995 124.703747 
L 250.392873 126.432339 
L 250.836386 126.432339 
L 251.169021 126.72104 
L 251.612534 126.432339 
L 251.279899 126.72104 
L 251.169021 126.432339 
L 251.279899 126.143639 
L 251.723412 126.432339 
L 252.388682 126.72104 
L 252.940076 126.432339 
L 253.494468 124.992447 
L 254.159737 125.569847 
L 254.492372 125.281147 
L 254.714128 125.281147 
L 254.935885 125.569847 
L 255.598158 125.569847 
L 256.041671 125.854939 
L 256.263427 126.72104 
L 256.485184 127.00974 
L 257.039575 126.432339 
L 257.704845 125.281147 
L 258.148358 125.281147 
L 258.810631 125.569847 
L 259.254144 126.432339 
L 259.365022 126.143639 
L 259.697657 125.854939 
L 259.919413 126.143639 
L 259.919413 126.432339 
L 261.028196 126.432339 
L 261.360831 126.72104 
L 261.912225 127.00974 
L 262.799251 127.00974 
L 263.242764 126.72104 
L 263.686278 126.72104 
L 264.351547 128.734724 
L 264.129791 128.734724 
L 263.797156 128.449633 
L 262.799251 129.023424 
L 261.912225 128.734724 
L 258.699752 126.143639 
L 256.374306 124.992447 
L 253.272711 124.129955 
L 249.619722 123.263854 
L 241.088089 120.961469 
L 236.658952 119.806668 
L 232.11594 118.081684 
L 222.148884 115.201899 
L 217.054477 113.473306 
L 207.860571 109.43872 
L 202.984925 107.713736 
L 192.574355 104.83395 
L 187.809586 103.679149 
L 183.269571 103.105358 
L 178.837437 102.816657 
L 174.962692 102.239257 
L 171.306706 101.954165 
L 160.00911 98.49698 
L 156.353124 97.919579 
L 150.149935 97.345787 
L 144.501137 95.039794 
L 141.953934 93.599901 
L 138.187069 91.008816 
L 136.526892 90.431416 
L 134.974597 90.431416 
L 133.757932 90.142715 
L 133.203541 89.568924 
L 132.981785 89.568924 
L 133.092663 89.568924 
L 133.536176 88.991523 
L 134.312324 88.417731 
L 136.416014 88.417731 
L 138.187069 87.840331 
L 138.852339 88.129031 
L 139.40673 88.702823 
L 140.072 88.991523 
L 140.623394 88.702823 
L 141.288664 88.702823 
L 142.17569 89.857624 
L 142.286568 90.720116 
L 142.17569 90.431416 
L 142.064812 91.586217 
L 141.953934 92.737409 
L 142.17569 93.888601 
L 142.84096 93.888601 
L 143.835867 93.311201 
L 144.168502 94.177302 
L 144.612015 94.466002 
L 145.055528 94.177302 
L 145.388163 94.177302 
L 145.609919 94.751094 
L 146.493949 94.751094 
L 147.270097 94.466002 
L 147.71361 94.751094 
L 147.935366 95.328494 
L 148.268001 97.919579 
L 148.600636 98.49698 
L 149.155027 97.345787 
L 149.484665 98.78568 
L 149.706422 99.070771 
L 149.928178 99.070771 
L 150.48257 100.225572 
L 150.48257 100.225572 
L 150.815204 99.936872 
L 151.369596 99.936872 
L 152.034865 100.510664 
L 152.475382 100.510664 
L 153.029773 100.799364 
L 153.251529 101.088064 
L 153.473286 101.088064 
L 153.584164 100.799364 
L 153.584164 101.088064 
L 153.473286 101.665465 
L 153.473286 101.665465 
L 153.695042 101.665465 
L 154.138555 102.527957 
L 154.47119 102.527957 
L 154.803825 102.239257 
L 154.914703 101.376765 
L 154.803825 101.665465 
L 154.692947 101.665465 
L 155.025582 101.376765 
L 155.35522 101.665465 
L 155.466098 102.527957 
L 155.35522 103.105358 
L 155.466098 103.105358 
L 155.687854 102.816657 
L 155.909611 103.105358 
L 156.131367 103.105358 
L 156.242246 102.239257 
L 156.242246 102.527957 
L 156.464002 103.105358 
L 156.907515 103.105358 
L 157.24015 103.679149 
L 157.129272 103.679149 
L 156.796637 104.25655 
L 157.018394 104.25655 
L 157.351028 104.54525 
L 157.683663 105.119042 
L 157.683663 105.119042 
L 157.351028 104.83395 
L 157.129272 104.25655 
L 157.129272 104.25655 
L 157.461907 107.136335 
L 157.351028 107.998827 
L 157.461907 108.287527 
L 157.572785 107.713736 
L 157.794541 107.425035 
L 157.794541 105.985143 
L 157.683663 107.998827 
L 157.794541 106.847635 
L 157.572785 106.273843 
L 157.24015 107.425035 
L 157.351028 107.425035 
L 157.461907 106.847635 
L 157.351028 106.558935 
L 157.24015 107.425035 
L 157.24015 106.847635 
L 156.685759 108.287527 
L 156.242246 108.864928 
L 155.798733 109.153628 
L 155.798733 108.864928 
L 156.020489 108.576228 
L 156.020489 107.998827 
L 155.798733 107.425035 
L 155.244341 108.576228 
L 155.35522 108.864928 
L 155.466098 108.287527 
L 155.466098 107.713736 
L 156.020489 108.576228 
L 156.353124 109.43872 
L 156.242246 108.864928 
L 156.464002 108.287527 
L 156.574881 108.576228 
L 156.242246 108.864928 
L 156.020489 108.576228 
L 155.687854 107.425035 
L 155.687854 107.425035 
L 155.466098 107.713736 
L 155.35522 108.287527 
L 155.466098 108.287527 
L 155.687854 107.713736 
L 155.576976 107.425035 
L 155.35522 107.998827 
L 155.13646 107.998827 
L 155.13646 107.425035 
L 155.13646 108.287527 
L 155.244341 107.998827 
L 155.576976 107.713736 
L 155.466098 107.713736 
L 155.576976 106.558935 
L 155.466098 106.273843 
L 155.35522 107.425035 
L 155.35522 107.136335 
L 155.244341 106.558935 
L 155.35522 105.985143 
L 155.35522 105.985143 
L 154.914703 105.985143 
L 155.025582 105.985143 
L 155.025582 106.273843 
L 154.803825 106.273843 
L 154.360312 106.558935 
L 154.138555 106.558935 
L 154.027677 106.847635 
L 153.805921 106.558935 
L 153.473286 106.558935 
L 153.362408 106.847635 
L 152.145743 103.679149 
L 151.923987 103.96785 
L 151.70223 104.83395 
L 151.369596 104.25655 
L 151.036961 104.83395 
L 150.371691 104.83395 
L 150.039057 104.54525 
L 149.928178 104.83395 
L 149.484665 103.96785 
L 149.155027 103.96785 
L 148.933271 104.25655 
L 148.822392 103.394058 
L 148.600636 103.394058 
L 148.378879 103.679149 
L 148.046245 104.83395 
L 147.935366 105.119042 
L 147.380975 103.679149 
L 146.937462 103.394058 
L 146.493949 103.394058 
L 145.166406 106.558935 
L 145.277285 105.985143 
L 145.609919 105.407742 
L 145.499041 105.407742 
L 145.388163 105.119042 
L 145.166406 105.119042 
L 144.833772 105.407742 
L 144.501137 105.985143 
L 144.168502 105.985143 
L 143.946746 105.696443 
L 144.168502 105.407742 
L 144.168502 106.558935 
L 143.724989 107.425035 
L 143.395351 107.713736 
L 143.395351 107.425035 
L 143.614111 107.425035 
L 143.503233 107.425035 
L 143.284473 107.136335 
L 143.062716 107.136335 
L 142.951838 107.713736 
L 142.730081 107.713736 
L 142.397447 107.136335 
L 142.286568 106.558935 
L 142.508325 106.558935 
L 142.84096 107.136335 
L 142.619203 107.998827 
L 142.17569 108.576228 
L 141.732177 108.864928 
L 141.177786 108.864928 
L 141.066907 109.43872 
L 141.177786 109.153628 
L 141.066907 107.136335 
L 140.072 107.136335 
L 139.850243 106.847635 
L 140.072 106.273843 
L 140.293756 106.273843 
L 140.404635 106.558935 
L 139.739365 108.287527 
L 139.517609 108.287527 
L 139.628487 108.287527 
L 139.628487 108.576228 
L 139.295852 109.153628 
L 138.852339 109.153628 
L 138.963217 107.998827 
L 139.40673 107.136335 
L 139.184974 106.847635 
L 138.963217 107.425035 
L 138.963217 108.864928 
L 138.852339 108.864928 
L 138.297948 107.425035 
L 138.408826 107.425035 
L 138.630582 107.713736 
L 138.630582 107.998827 
L 137.965313 108.576228 
L 138.076191 109.153628 
L 137.854435 108.864928 
L 137.30304 107.713736 
L 137.081284 107.713736 
L 137.081284 108.576228 
L 136.859527 108.576228 
L 136.63777 108.864928 
L 136.748649 109.43872 
L 136.63777 109.153628 
L 136.416014 109.72742 
L 136.416014 109.43872 
L 136.194257 108.864928 
L 136.194257 108.287527 
L 136.305136 109.153628 
L 136.194257 109.153628 
L 135.972501 108.864928 
L 135.750744 109.153628 
L 135.972501 109.72742 
L 135.639866 109.153628 
L 135.41811 109.153628 
L 135.196353 109.43872 
L 135.307231 109.153628 
L 135.639866 107.136335 
L 135.41811 107.998827 
L 135.307231 107.713736 
L 135.307231 107.713736 
L 135.528988 107.713736 
L 135.41811 107.425035 
L 134.974597 107.713736 
L 134.75284 108.576228 
L 134.974597 108.864928 
L 135.085475 108.287527 
L 134.974597 108.287527 
L 134.641962 107.998827 
L 134.312324 108.576228 
L 134.312324 107.998827 
L 134.201445 107.998827 
L 133.979689 108.287527 
L 133.868811 107.998827 
L 133.868811 107.998827 
L 133.868811 107.136335 
L 133.092663 107.136335 
L 133.203541 106.558935 
L 133.425298 106.558935 
L 133.647054 106.847635 
L 133.425298 106.847635 
L 132.981785 106.558935 
L 132.870906 105.696443 
L 133.092663 105.696443 
L 133.314419 105.985143 
L 133.203541 106.558935 
L 132.760028 106.847635 
L 132.538272 106.847635 
L 132.64915 106.847635 
L 132.981785 105.985143 
L 132.870906 105.985143 
L 132.538272 105.985143 
L 132.205637 106.558935 
L 131.98388 106.273843 
L 131.873002 103.679149 
L 131.762124 103.96785 
L 131.98388 104.83395 
L 131.873002 104.25655 
L 131.651245 102.239257 
L 131.98388 101.665465 
L 132.427393 101.376765 
L 132.427393 101.088064 
L 132.094758 99.936872 
L 132.094758 99.070771 
L 132.981785 93.599901 
L 133.425298 91.871308 
L 133.092663 91.871308 
L 132.760028 91.586217 
L 133.203541 88.991523 
L 132.870906 87.840331 
L 132.64915 87.26293 
L 132.760028 86.400438 
L 133.092663 86.111738 
L 133.425298 85.537946 
L 133.536176 84.960546 
L 133.536176 84.960546 
L 133.314419 84.960546 
L 133.203541 84.671845 
L 133.092663 83.520653 
L 132.760028 82.08076 
L 132.094758 80.929568 
L 131.543364 81.50336 
L 131.432486 81.21466 
L 131.210729 78.912275 
L 130.767216 78.049783 
L 129.658433 77.472382 
L 129.436677 77.761083 
L 129.21492 77.761083 
L 127.998256 76.894982 
L 127.665621 76.60989 
L 127.222108 76.60989 
L 126.778595 76.894982 
L 126.445961 76.894982 
L 126.224204 76.60989 
L 125.00754 76.60989 
L 124.34227 76.03249 
L 123.787879 74.592597 
L 123.233488 74.592597 
L 122.900853 74.881297 
L 122.460337 76.32119 
L 121.905945 75.743789 
L 121.462432 74.881297 
L 121.351554 74.881297 
L 121.240676 76.03249 
L 121.129797 75.743789 
L 120.908041 75.169998 
L 120.797163 73.730105 
L 120.242771 72.001512 
L 120.35365 74.592597 
L 120.464528 74.881297 
L 119.799258 73.152705 
L 119.46962 73.152705 
L 119.46962 73.152705 
L 119.580498 72.864004 
L 119.247864 71.135411 
L 119.46962 71.135411 
L 119.799258 71.135411 
L 119.799258 71.135411 
L 119.691377 71.424112 
L 119.46962 71.424112 
L 119.026107 71.712812 
L 119.136985 71.135411 
L 119.026107 71.135411 
L 118.693472 71.135411 
L 118.249959 70.56162 
L 118.471716 70.56162 
L 118.139081 69.984219 
L 118.028203 70.272919 
L 117.806446 69.984219 
L 117.58469 69.984219 
L 117.362933 70.272919 
L 117.362933 70.56162 
L 117.252055 70.272919 
L 117.141177 69.695519 
L 117.252055 70.272919 
L 117.030298 70.846711 
L 116.70066 70.56162 
L 116.478904 70.846711 
L 116.146269 71.424112 
L 116.257147 70.272919 
L 116.146269 70.846711 
L 115.813634 71.424112 
L 115.591878 71.424112 
L 115.481 71.712812 
L 115.591878 72.290213 
L 115.481 72.290213 
L 115.259243 72.290213 
L 115.037486 70.846711 
L 115.037486 70.846711 
L 115.259243 71.135411 
L 115.037486 70.846711 
L 114.81573 70.846711 
L 114.81573 70.846711 
L 114.704852 71.135411 
L 114.704852 70.846711 
L 114.704852 69.984219 
L 114.81573 69.984219 
L 114.926608 70.272919 
L 114.261339 71.712812 
L 114.261339 70.56162 
L 114.15046 70.56162 
L 113.820822 70.56162 
L 113.488188 72.001512 
L 113.599066 71.712812 
" style="fill:none;stroke:#1f77b4;stroke-linecap:square;stroke-width:1.5;"/>
   </g>
   <g id="matplotlib.axis_1">
    <g id="xtick_1">
     <g id="line2d_2">
      <defs>
       <path d="M 0 0 
L 0 3.5 
" id="m23ccdd210a" style="stroke:#000000;stroke-width:0.8;"/>
      </defs>
      <g>
       <use style="stroke:#000000;stroke-width:0.8;" x="116.661703" xlink:href="#m23ccdd210a" y="307.584"/>
      </g>
     </g>
     <g id="text_1">
      <!-- −200 -->
      <defs>
       <path d="M 10.59375 35.5 
L 73.1875 35.5 
L 73.1875 27.203125 
L 10.59375 27.203125 
z
" id="DejaVuSans-8722"/>
       <path d="M 19.1875 8.296875 
L 53.609375 8.296875 
L 53.609375 0 
L 7.328125 0 
L 7.328125 8.296875 
Q 12.9375 14.109375 22.625 23.890625 
Q 32.328125 33.6875 34.8125 36.53125 
Q 39.546875 41.84375 41.421875 45.53125 
Q 43.3125 49.21875 43.3125 52.78125 
Q 43.3125 58.59375 39.234375 62.25 
Q 35.15625 65.921875 28.609375 65.921875 
Q 23.96875 65.921875 18.8125 64.3125 
Q 13.671875 62.703125 7.8125 59.421875 
L 7.8125 69.390625 
Q 13.765625 71.78125 18.9375 73 
Q 24.125 74.21875 28.421875 74.21875 
Q 39.75 74.21875 46.484375 68.546875 
Q 53.21875 62.890625 53.21875 53.421875 
Q 53.21875 48.921875 51.53125 44.890625 
Q 49.859375 40.875 45.40625 35.40625 
Q 44.1875 33.984375 37.640625 27.21875 
Q 31.109375 20.453125 19.1875 8.296875 
z
" id="DejaVuSans-50"/>
       <path d="M 31.78125 66.40625 
Q 24.171875 66.40625 20.328125 58.90625 
Q 16.5 51.421875 16.5 36.375 
Q 16.5 21.390625 20.328125 13.890625 
Q 24.171875 6.390625 31.78125 6.390625 
Q 39.453125 6.390625 43.28125 13.890625 
Q 47.125 21.390625 47.125 36.375 
Q 47.125 51.421875 43.28125 58.90625 
Q 39.453125 66.40625 31.78125 66.40625 
z
M 31.78125 74.21875 
Q 44.046875 74.21875 50.515625 64.515625 
Q 56.984375 54.828125 56.984375 36.375 
Q 56.984375 17.96875 50.515625 8.265625 
Q 44.046875 -1.421875 31.78125 -1.421875 
Q 19.53125 -1.421875 13.0625 8.265625 
Q 6.59375 17.96875 6.59375 36.375 
Q 6.59375 54.828125 13.0625 64.515625 
Q 19.53125 74.21875 31.78125 74.21875 
z
" id="DejaVuSans-48"/>
      </defs>
      <g transform="translate(102.928109 322.182437)scale(0.1 -0.1)">
       <use xlink:href="#DejaVuSans-8722"/>
       <use x="83.789062" xlink:href="#DejaVuSans-50"/>
       <use x="147.412109" xlink:href="#DejaVuSans-48"/>
       <use x="211.035156" xlink:href="#DejaVuSans-48"/>
      </g>
     </g>
    </g>
    <g id="xtick_2">
     <g id="line2d_3">
      <g>
       <use style="stroke:#000000;stroke-width:0.8;" x="176.595898" xlink:href="#m23ccdd210a" y="307.584"/>
      </g>
     </g>
     <g id="text_2">
      <!-- 0 -->
      <g transform="translate(173.414648 322.182437)scale(0.1 -0.1)">
       <use xlink:href="#DejaVuSans-48"/>
      </g>
     </g>
    </g>
    <g id="xtick_3">
     <g id="line2d_4">
      <g>
       <use style="stroke:#000000;stroke-width:0.8;" x="236.530094" xlink:href="#m23ccdd210a" y="307.584"/>
      </g>
     </g>
     <g id="text_3">
      <!-- 200 -->
      <g transform="translate(226.986344 322.182437)scale(0.1 -0.1)">
       <use xlink:href="#DejaVuSans-50"/>
       <use x="63.623047" xlink:href="#DejaVuSans-48"/>
       <use x="127.246094" xlink:href="#DejaVuSans-48"/>
      </g>
     </g>
    </g>
    <g id="xtick_4">
     <g id="line2d_5">
      <g>
       <use style="stroke:#000000;stroke-width:0.8;" x="296.464289" xlink:href="#m23ccdd210a" y="307.584"/>
      </g>
     </g>
     <g id="text_4">
      <!-- 400 -->
      <defs>
       <path d="M 37.796875 64.3125 
L 12.890625 25.390625 
L 37.796875 25.390625 
z
M 35.203125 72.90625 
L 47.609375 72.90625 
L 47.609375 25.390625 
L 58.015625 25.390625 
L 58.015625 17.1875 
L 47.609375 17.1875 
L 47.609375 0 
L 37.796875 0 
L 37.796875 17.1875 
L 4.890625 17.1875 
L 4.890625 26.703125 
z
" id="DejaVuSans-52"/>
      </defs>
      <g transform="translate(286.920539 322.182437)scale(0.1 -0.1)">
       <use xlink:href="#DejaVuSans-52"/>
       <use x="63.623047" xlink:href="#DejaVuSans-48"/>
       <use x="127.246094" xlink:href="#DejaVuSans-48"/>
      </g>
     </g>
    </g>
    <g id="xtick_5">
     <g id="line2d_6">
      <g>
       <use style="stroke:#000000;stroke-width:0.8;" x="356.398484" xlink:href="#m23ccdd210a" y="307.584"/>
      </g>
     </g>
     <g id="text_5">
      <!-- 600 -->
      <defs>
       <path d="M 33.015625 40.375 
Q 26.375 40.375 22.484375 35.828125 
Q 18.609375 31.296875 18.609375 23.390625 
Q 18.609375 15.53125 22.484375 10.953125 
Q 26.375 6.390625 33.015625 6.390625 
Q 39.65625 6.390625 43.53125 10.953125 
Q 47.40625 15.53125 47.40625 23.390625 
Q 47.40625 31.296875 43.53125 35.828125 
Q 39.65625 40.375 33.015625 40.375 
z
M 52.59375 71.296875 
L 52.59375 62.3125 
Q 48.875 64.0625 45.09375 64.984375 
Q 41.3125 65.921875 37.59375 65.921875 
Q 27.828125 65.921875 22.671875 59.328125 
Q 17.53125 52.734375 16.796875 39.40625 
Q 19.671875 43.65625 24.015625 45.921875 
Q 28.375 48.1875 33.59375 48.1875 
Q 44.578125 48.1875 50.953125 41.515625 
Q 57.328125 34.859375 57.328125 23.390625 
Q 57.328125 12.15625 50.6875 5.359375 
Q 44.046875 -1.421875 33.015625 -1.421875 
Q 20.359375 -1.421875 13.671875 8.265625 
Q 6.984375 17.96875 6.984375 36.375 
Q 6.984375 53.65625 15.1875 63.9375 
Q 23.390625 74.21875 37.203125 74.21875 
Q 40.921875 74.21875 44.703125 73.484375 
Q 48.484375 72.75 52.59375 71.296875 
z
" id="DejaVuSans-54"/>
      </defs>
      <g transform="translate(346.854734 322.182437)scale(0.1 -0.1)">
       <use xlink:href="#DejaVuSans-54"/>
       <use x="63.623047" xlink:href="#DejaVuSans-48"/>
       <use x="127.246094" xlink:href="#DejaVuSans-48"/>
      </g>
     </g>
    </g>
   </g>
   <g id="matplotlib.axis_2">
    <g id="ytick_1">
     <g id="line2d_7">
      <defs>
       <path d="M 0 0 
L -3.5 0 
" id="m2361faf9dd" style="stroke:#000000;stroke-width:0.8;"/>
      </defs>
      <g>
       <use style="stroke:#000000;stroke-width:0.8;" x="57.6" xlink:href="#m2361faf9dd" y="290.735272"/>
      </g>
     </g>
     <g id="text_6">
      <!-- −800 -->
      <defs>
       <path d="M 31.78125 34.625 
Q 24.75 34.625 20.71875 30.859375 
Q 16.703125 27.09375 16.703125 20.515625 
Q 16.703125 13.921875 20.71875 10.15625 
Q 24.75 6.390625 31.78125 6.390625 
Q 38.8125 6.390625 42.859375 10.171875 
Q 46.921875 13.96875 46.921875 20.515625 
Q 46.921875 27.09375 42.890625 30.859375 
Q 38.875 34.625 31.78125 34.625 
z
M 21.921875 38.8125 
Q 15.578125 40.375 12.03125 44.71875 
Q 8.5 49.078125 8.5 55.328125 
Q 8.5 64.0625 14.71875 69.140625 
Q 20.953125 74.21875 31.78125 74.21875 
Q 42.671875 74.21875 48.875 69.140625 
Q 55.078125 64.0625 55.078125 55.328125 
Q 55.078125 49.078125 51.53125 44.71875 
Q 48 40.375 41.703125 38.8125 
Q 48.828125 37.15625 52.796875 32.3125 
Q 56.78125 27.484375 56.78125 20.515625 
Q 56.78125 9.90625 50.3125 4.234375 
Q 43.84375 -1.421875 31.78125 -1.421875 
Q 19.734375 -1.421875 13.25 4.234375 
Q 6.78125 9.90625 6.78125 20.515625 
Q 6.78125 27.484375 10.78125 32.3125 
Q 14.796875 37.15625 21.921875 38.8125 
z
M 18.3125 54.390625 
Q 18.3125 48.734375 21.84375 45.5625 
Q 25.390625 42.390625 31.78125 42.390625 
Q 38.140625 42.390625 41.71875 45.5625 
Q 45.3125 48.734375 45.3125 54.390625 
Q 45.3125 60.0625 41.71875 63.234375 
Q 38.140625 66.40625 31.78125 66.40625 
Q 25.390625 66.40625 21.84375 63.234375 
Q 18.3125 60.0625 18.3125 54.390625 
z
" id="DejaVuSans-56"/>
      </defs>
      <g transform="translate(23.132812 294.534491)scale(0.1 -0.1)">
       <use xlink:href="#DejaVuSans-8722"/>
       <use x="83.789062" xlink:href="#DejaVuSans-56"/>
       <use x="147.412109" xlink:href="#DejaVuSans-48"/>
       <use x="211.035156" xlink:href="#DejaVuSans-48"/>
      </g>
     </g>
    </g>
    <g id="ytick_2">
     <g id="line2d_8">
      <g>
       <use style="stroke:#000000;stroke-width:0.8;" x="57.6" xlink:href="#m2361faf9dd" y="254.647738"/>
      </g>
     </g>
     <g id="text_7">
      <!-- −700 -->
      <defs>
       <path d="M 8.203125 72.90625 
L 55.078125 72.90625 
L 55.078125 68.703125 
L 28.609375 0 
L 18.3125 0 
L 43.21875 64.59375 
L 8.203125 64.59375 
z
" id="DejaVuSans-55"/>
      </defs>
      <g transform="translate(23.132812 258.446957)scale(0.1 -0.1)">
       <use xlink:href="#DejaVuSans-8722"/>
       <use x="83.789062" xlink:href="#DejaVuSans-55"/>
       <use x="147.412109" xlink:href="#DejaVuSans-48"/>
       <use x="211.035156" xlink:href="#DejaVuSans-48"/>
      </g>
     </g>
    </g>
    <g id="ytick_3">
     <g id="line2d_9">
      <g>
       <use style="stroke:#000000;stroke-width:0.8;" x="57.6" xlink:href="#m2361faf9dd" y="218.560204"/>
      </g>
     </g>
     <g id="text_8">
      <!-- −600 -->
      <g transform="translate(23.132812 222.359423)scale(0.1 -0.1)">
       <use xlink:href="#DejaVuSans-8722"/>
       <use x="83.789062" xlink:href="#DejaVuSans-54"/>
       <use x="147.412109" xlink:href="#DejaVuSans-48"/>
       <use x="211.035156" xlink:href="#DejaVuSans-48"/>
      </g>
     </g>
    </g>
    <g id="ytick_4">
     <g id="line2d_10">
      <g>
       <use style="stroke:#000000;stroke-width:0.8;" x="57.6" xlink:href="#m2361faf9dd" y="182.472671"/>
      </g>
     </g>
     <g id="text_9">
      <!-- −500 -->
      <defs>
       <path d="M 10.796875 72.90625 
L 49.515625 72.90625 
L 49.515625 64.59375 
L 19.828125 64.59375 
L 19.828125 46.734375 
Q 21.96875 47.46875 24.109375 47.828125 
Q 26.265625 48.1875 28.421875 48.1875 
Q 40.625 48.1875 47.75 41.5 
Q 54.890625 34.8125 54.890625 23.390625 
Q 54.890625 11.625 47.5625 5.09375 
Q 40.234375 -1.421875 26.90625 -1.421875 
Q 22.3125 -1.421875 17.546875 -0.640625 
Q 12.796875 0.140625 7.71875 1.703125 
L 7.71875 11.625 
Q 12.109375 9.234375 16.796875 8.0625 
Q 21.484375 6.890625 26.703125 6.890625 
Q 35.15625 6.890625 40.078125 11.328125 
Q 45.015625 15.765625 45.015625 23.390625 
Q 45.015625 31 40.078125 35.4375 
Q 35.15625 39.890625 26.703125 39.890625 
Q 22.75 39.890625 18.8125 39.015625 
Q 14.890625 38.140625 10.796875 36.28125 
z
" id="DejaVuSans-53"/>
      </defs>
      <g transform="translate(23.132812 186.271889)scale(0.1 -0.1)">
       <use xlink:href="#DejaVuSans-8722"/>
       <use x="83.789062" xlink:href="#DejaVuSans-53"/>
       <use x="147.412109" xlink:href="#DejaVuSans-48"/>
       <use x="211.035156" xlink:href="#DejaVuSans-48"/>
      </g>
     </g>
    </g>
    <g id="ytick_5">
     <g id="line2d_11">
      <g>
       <use style="stroke:#000000;stroke-width:0.8;" x="57.6" xlink:href="#m2361faf9dd" y="146.385137"/>
      </g>
     </g>
     <g id="text_10">
      <!-- −400 -->
      <g transform="translate(23.132812 150.184356)scale(0.1 -0.1)">
       <use xlink:href="#DejaVuSans-8722"/>
       <use x="83.789062" xlink:href="#DejaVuSans-52"/>
       <use x="147.412109" xlink:href="#DejaVuSans-48"/>
       <use x="211.035156" xlink:href="#DejaVuSans-48"/>
      </g>
     </g>
    </g>
    <g id="ytick_6">
     <g id="line2d_12">
      <g>
       <use style="stroke:#000000;stroke-width:0.8;" x="57.6" xlink:href="#m2361faf9dd" y="110.297603"/>
      </g>
     </g>
     <g id="text_11">
      <!-- −300 -->
      <defs>
       <path d="M 40.578125 39.3125 
Q 47.65625 37.796875 51.625 33 
Q 55.609375 28.21875 55.609375 21.1875 
Q 55.609375 10.40625 48.1875 4.484375 
Q 40.765625 -1.421875 27.09375 -1.421875 
Q 22.515625 -1.421875 17.65625 -0.515625 
Q 12.796875 0.390625 7.625 2.203125 
L 7.625 11.71875 
Q 11.71875 9.328125 16.59375 8.109375 
Q 21.484375 6.890625 26.8125 6.890625 
Q 36.078125 6.890625 40.9375 10.546875 
Q 45.796875 14.203125 45.796875 21.1875 
Q 45.796875 27.640625 41.28125 31.265625 
Q 36.765625 34.90625 28.71875 34.90625 
L 20.21875 34.90625 
L 20.21875 43.015625 
L 29.109375 43.015625 
Q 36.375 43.015625 40.234375 45.921875 
Q 44.09375 48.828125 44.09375 54.296875 
Q 44.09375 59.90625 40.109375 62.90625 
Q 36.140625 65.921875 28.71875 65.921875 
Q 24.65625 65.921875 20.015625 65.03125 
Q 15.375 64.15625 9.8125 62.3125 
L 9.8125 71.09375 
Q 15.4375 72.65625 20.34375 73.4375 
Q 25.25 74.21875 29.59375 74.21875 
Q 40.828125 74.21875 47.359375 69.109375 
Q 53.90625 64.015625 53.90625 55.328125 
Q 53.90625 49.265625 50.4375 45.09375 
Q 46.96875 40.921875 40.578125 39.3125 
z
" id="DejaVuSans-51"/>
      </defs>
      <g transform="translate(23.132812 114.096822)scale(0.1 -0.1)">
       <use xlink:href="#DejaVuSans-8722"/>
       <use x="83.789062" xlink:href="#DejaVuSans-51"/>
       <use x="147.412109" xlink:href="#DejaVuSans-48"/>
       <use x="211.035156" xlink:href="#DejaVuSans-48"/>
      </g>
     </g>
    </g>
    <g id="ytick_7">
     <g id="line2d_13">
      <g>
       <use style="stroke:#000000;stroke-width:0.8;" x="57.6" xlink:href="#m2361faf9dd" y="74.210069"/>
      </g>
     </g>
     <g id="text_12">
      <!-- −200 -->
      <g transform="translate(23.132812 78.009288)scale(0.1 -0.1)">
       <use xlink:href="#DejaVuSans-8722"/>
       <use x="83.789062" xlink:href="#DejaVuSans-50"/>
       <use x="147.412109" xlink:href="#DejaVuSans-48"/>
       <use x="211.035156" xlink:href="#DejaVuSans-48"/>
      </g>
     </g>
    </g>
   </g>
   <g id="line2d_14">
    <path clip-path="url(#pe399aab4ba)" d="M 396.319153 289.85583 
L 191.790715 61.796918 
L 78.798855 81.898558 
L 244.978823 106.140759 
L 248.222231 120.966714 
L 148.928617 97.630028 
L 143.8641 106.142407 
L 120.356793 73.527005 
" style="fill:none;stroke:#ff0000;stroke-linecap:square;stroke-width:0.5;"/>
   </g>
   <g id="patch_3">
    <path d="M 57.6 307.584 
L 57.6 41.472 
" style="fill:none;stroke:#000000;stroke-linecap:square;stroke-linejoin:miter;stroke-width:0.8;"/>
   </g>
   <g id="patch_4">
    <path d="M 414.72 307.584 
L 414.72 41.472 
" style="fill:none;stroke:#000000;stroke-linecap:square;stroke-linejoin:miter;stroke-width:0.8;"/>
   </g>
   <g id="patch_5">
    <path d="M 57.6 307.584 
L 414.72 307.584 
" style="fill:none;stroke:#000000;stroke-linecap:square;stroke-linejoin:miter;stroke-width:0.8;"/>
   </g>
   <g id="patch_6">
    <path d="M 57.6 41.472 
L 414.72 41.472 
" style="fill:none;stroke:#000000;stroke-linecap:square;stroke-linejoin:miter;stroke-width:0.8;"/>
   </g>
   <g id="PathCollection_1">
    <defs>
     <path d="M 0 2.738613 
C 0.726289 2.738613 1.422928 2.450055 1.936492 1.936492 
C 2.450055 1.422928 2.738613 0.726289 2.738613 0 
C 2.738613 -0.726289 2.450055 -1.422928 1.936492 -1.936492 
C 1.422928 -2.450055 0.726289 -2.738613 0 -2.738613 
C -0.726289 -2.738613 -1.422928 -2.450055 -1.936492 -1.936492 
C -2.450055 -1.422928 -2.738613 -0.726289 -2.738613 0 
C -2.738613 0.726289 -2.450055 1.422928 -1.936492 1.936492 
C -1.422928 2.450055 -0.726289 2.738613 0 2.738613 
z
" id="mfb2b07ac82" style="stroke:#ff0000;"/>
    </defs>
    <g clip-path="url(#pe399aab4ba)">
     <use style="fill:#ff0000;stroke:#ff0000;" x="396.319153" xlink:href="#mfb2b07ac82" y="289.85583"/>
     <use style="fill:#ff0000;stroke:#ff0000;" x="191.790715" xlink:href="#mfb2b07ac82" y="61.796918"/>
     <use style="fill:#ff0000;stroke:#ff0000;" x="78.798855" xlink:href="#mfb2b07ac82" y="81.898558"/>
     <use style="fill:#ff0000;stroke:#ff0000;" x="244.978823" xlink:href="#mfb2b07ac82" y="106.140759"/>
     <use style="fill:#ff0000;stroke:#ff0000;" x="248.222231" xlink:href="#mfb2b07ac82" y="120.966714"/>
     <use style="fill:#ff0000;stroke:#ff0000;" x="148.928617" xlink:href="#mfb2b07ac82" y="97.630028"/>
     <use style="fill:#ff0000;stroke:#ff0000;" x="143.8641" xlink:href="#mfb2b07ac82" y="106.142407"/>
     <use style="fill:#ff0000;stroke:#ff0000;" x="120.356793" xlink:href="#mfb2b07ac82" y="73.527005"/>
    </g>
   </g>
   <g id="text_13">
    <!-- (46) Subject: s17, Known = True, Degree = 1, Duration = 0.1 -->
    <defs>
     <path d="M 31 75.875 
Q 24.46875 64.65625 21.28125 53.65625 
Q 18.109375 42.671875 18.109375 31.390625 
Q 18.109375 20.125 21.3125 9.0625 
Q 24.515625 -2 31 -13.1875 
L 23.1875 -13.1875 
Q 15.875 -1.703125 12.234375 9.375 
Q 8.59375 20.453125 8.59375 31.390625 
Q 8.59375 42.28125 12.203125 53.3125 
Q 15.828125 64.359375 23.1875 75.875 
z
" id="DejaVuSans-40"/>
     <path d="M 8.015625 75.875 
L 15.828125 75.875 
Q 23.140625 64.359375 26.78125 53.3125 
Q 30.421875 42.28125 30.421875 31.390625 
Q 30.421875 20.453125 26.78125 9.375 
Q 23.140625 -1.703125 15.828125 -13.1875 
L 8.015625 -13.1875 
Q 14.5 -2 17.703125 9.0625 
Q 20.90625 20.125 20.90625 31.390625 
Q 20.90625 42.671875 17.703125 53.65625 
Q 14.5 64.65625 8.015625 75.875 
z
" id="DejaVuSans-41"/>
     <path id="DejaVuSans-32"/>
     <path d="M 53.515625 70.515625 
L 53.515625 60.890625 
Q 47.90625 63.578125 42.921875 64.890625 
Q 37.9375 66.21875 33.296875 66.21875 
Q 25.25 66.21875 20.875 63.09375 
Q 16.5 59.96875 16.5 54.203125 
Q 16.5 49.359375 19.40625 46.890625 
Q 22.3125 44.4375 30.421875 42.921875 
L 36.375 41.703125 
Q 47.40625 39.59375 52.65625 34.296875 
Q 57.90625 29 57.90625 20.125 
Q 57.90625 9.515625 50.796875 4.046875 
Q 43.703125 -1.421875 29.984375 -1.421875 
Q 24.8125 -1.421875 18.96875 -0.25 
Q 13.140625 0.921875 6.890625 3.21875 
L 6.890625 13.375 
Q 12.890625 10.015625 18.65625 8.296875 
Q 24.421875 6.59375 29.984375 6.59375 
Q 38.421875 6.59375 43.015625 9.90625 
Q 47.609375 13.234375 47.609375 19.390625 
Q 47.609375 24.75 44.3125 27.78125 
Q 41.015625 30.8125 33.5 32.328125 
L 27.484375 33.5 
Q 16.453125 35.6875 11.515625 40.375 
Q 6.59375 45.0625 6.59375 53.421875 
Q 6.59375 63.09375 13.40625 68.65625 
Q 20.21875 74.21875 32.171875 74.21875 
Q 37.3125 74.21875 42.625 73.28125 
Q 47.953125 72.359375 53.515625 70.515625 
z
" id="DejaVuSans-83"/>
     <path d="M 8.5 21.578125 
L 8.5 54.6875 
L 17.484375 54.6875 
L 17.484375 21.921875 
Q 17.484375 14.15625 20.5 10.265625 
Q 23.53125 6.390625 29.59375 6.390625 
Q 36.859375 6.390625 41.078125 11.03125 
Q 45.3125 15.671875 45.3125 23.6875 
L 45.3125 54.6875 
L 54.296875 54.6875 
L 54.296875 0 
L 45.3125 0 
L 45.3125 8.40625 
Q 42.046875 3.421875 37.71875 1 
Q 33.40625 -1.421875 27.6875 -1.421875 
Q 18.265625 -1.421875 13.375 4.4375 
Q 8.5 10.296875 8.5 21.578125 
z
M 31.109375 56 
z
" id="DejaVuSans-117"/>
     <path d="M 48.6875 27.296875 
Q 48.6875 37.203125 44.609375 42.84375 
Q 40.53125 48.484375 33.40625 48.484375 
Q 26.265625 48.484375 22.1875 42.84375 
Q 18.109375 37.203125 18.109375 27.296875 
Q 18.109375 17.390625 22.1875 11.75 
Q 26.265625 6.109375 33.40625 6.109375 
Q 40.53125 6.109375 44.609375 11.75 
Q 48.6875 17.390625 48.6875 27.296875 
z
M 18.109375 46.390625 
Q 20.953125 51.265625 25.265625 53.625 
Q 29.59375 56 35.59375 56 
Q 45.5625 56 51.78125 48.09375 
Q 58.015625 40.1875 58.015625 27.296875 
Q 58.015625 14.40625 51.78125 6.484375 
Q 45.5625 -1.421875 35.59375 -1.421875 
Q 29.59375 -1.421875 25.265625 0.953125 
Q 20.953125 3.328125 18.109375 8.203125 
L 18.109375 0 
L 9.078125 0 
L 9.078125 75.984375 
L 18.109375 75.984375 
z
" id="DejaVuSans-98"/>
     <path d="M 9.421875 54.6875 
L 18.40625 54.6875 
L 18.40625 -0.984375 
Q 18.40625 -11.421875 14.421875 -16.109375 
Q 10.453125 -20.796875 1.609375 -20.796875 
L -1.8125 -20.796875 
L -1.8125 -13.1875 
L 0.59375 -13.1875 
Q 5.71875 -13.1875 7.5625 -10.8125 
Q 9.421875 -8.453125 9.421875 -0.984375 
z
M 9.421875 75.984375 
L 18.40625 75.984375 
L 18.40625 64.59375 
L 9.421875 64.59375 
z
" id="DejaVuSans-106"/>
     <path d="M 56.203125 29.59375 
L 56.203125 25.203125 
L 14.890625 25.203125 
Q 15.484375 15.921875 20.484375 11.0625 
Q 25.484375 6.203125 34.421875 6.203125 
Q 39.59375 6.203125 44.453125 7.46875 
Q 49.3125 8.734375 54.109375 11.28125 
L 54.109375 2.78125 
Q 49.265625 0.734375 44.1875 -0.34375 
Q 39.109375 -1.421875 33.890625 -1.421875 
Q 20.796875 -1.421875 13.15625 6.1875 
Q 5.515625 13.8125 5.515625 26.8125 
Q 5.515625 40.234375 12.765625 48.109375 
Q 20.015625 56 32.328125 56 
Q 43.359375 56 49.78125 48.890625 
Q 56.203125 41.796875 56.203125 29.59375 
z
M 47.21875 32.234375 
Q 47.125 39.59375 43.09375 43.984375 
Q 39.0625 48.390625 32.421875 48.390625 
Q 24.90625 48.390625 20.390625 44.140625 
Q 15.875 39.890625 15.1875 32.171875 
z
" id="DejaVuSans-101"/>
     <path d="M 48.78125 52.59375 
L 48.78125 44.1875 
Q 44.96875 46.296875 41.140625 47.34375 
Q 37.3125 48.390625 33.40625 48.390625 
Q 24.65625 48.390625 19.8125 42.84375 
Q 14.984375 37.3125 14.984375 27.296875 
Q 14.984375 17.28125 19.8125 11.734375 
Q 24.65625 6.203125 33.40625 6.203125 
Q 37.3125 6.203125 41.140625 7.25 
Q 44.96875 8.296875 48.78125 10.40625 
L 48.78125 2.09375 
Q 45.015625 0.34375 40.984375 -0.53125 
Q 36.96875 -1.421875 32.421875 -1.421875 
Q 20.0625 -1.421875 12.78125 6.34375 
Q 5.515625 14.109375 5.515625 27.296875 
Q 5.515625 40.671875 12.859375 48.328125 
Q 20.21875 56 33.015625 56 
Q 37.15625 56 41.109375 55.140625 
Q 45.0625 54.296875 48.78125 52.59375 
z
" id="DejaVuSans-99"/>
     <path d="M 18.3125 70.21875 
L 18.3125 54.6875 
L 36.8125 54.6875 
L 36.8125 47.703125 
L 18.3125 47.703125 
L 18.3125 18.015625 
Q 18.3125 11.328125 20.140625 9.421875 
Q 21.96875 7.515625 27.59375 7.515625 
L 36.8125 7.515625 
L 36.8125 0 
L 27.59375 0 
Q 17.1875 0 13.234375 3.875 
Q 9.28125 7.765625 9.28125 18.015625 
L 9.28125 47.703125 
L 2.6875 47.703125 
L 2.6875 54.6875 
L 9.28125 54.6875 
L 9.28125 70.21875 
z
" id="DejaVuSans-116"/>
     <path d="M 11.71875 12.40625 
L 22.015625 12.40625 
L 22.015625 0 
L 11.71875 0 
z
M 11.71875 51.703125 
L 22.015625 51.703125 
L 22.015625 39.3125 
L 11.71875 39.3125 
z
" id="DejaVuSans-58"/>
     <path d="M 44.28125 53.078125 
L 44.28125 44.578125 
Q 40.484375 46.53125 36.375 47.5 
Q 32.28125 48.484375 27.875 48.484375 
Q 21.1875 48.484375 17.84375 46.4375 
Q 14.5 44.390625 14.5 40.28125 
Q 14.5 37.15625 16.890625 35.375 
Q 19.28125 33.59375 26.515625 31.984375 
L 29.59375 31.296875 
Q 39.15625 29.25 43.1875 25.515625 
Q 47.21875 21.78125 47.21875 15.09375 
Q 47.21875 7.46875 41.1875 3.015625 
Q 35.15625 -1.421875 24.609375 -1.421875 
Q 20.21875 -1.421875 15.453125 -0.5625 
Q 10.6875 0.296875 5.421875 2 
L 5.421875 11.28125 
Q 10.40625 8.6875 15.234375 7.390625 
Q 20.0625 6.109375 24.8125 6.109375 
Q 31.15625 6.109375 34.5625 8.28125 
Q 37.984375 10.453125 37.984375 14.40625 
Q 37.984375 18.0625 35.515625 20.015625 
Q 33.0625 21.96875 24.703125 23.78125 
L 21.578125 24.515625 
Q 13.234375 26.265625 9.515625 29.90625 
Q 5.8125 33.546875 5.8125 39.890625 
Q 5.8125 47.609375 11.28125 51.796875 
Q 16.75 56 26.8125 56 
Q 31.78125 56 36.171875 55.265625 
Q 40.578125 54.546875 44.28125 53.078125 
z
" id="DejaVuSans-115"/>
     <path d="M 12.40625 8.296875 
L 28.515625 8.296875 
L 28.515625 63.921875 
L 10.984375 60.40625 
L 10.984375 69.390625 
L 28.421875 72.90625 
L 38.28125 72.90625 
L 38.28125 8.296875 
L 54.390625 8.296875 
L 54.390625 0 
L 12.40625 0 
z
" id="DejaVuSans-49"/>
     <path d="M 11.71875 12.40625 
L 22.015625 12.40625 
L 22.015625 4 
L 14.015625 -11.625 
L 7.71875 -11.625 
L 11.71875 4 
z
" id="DejaVuSans-44"/>
     <path d="M 9.8125 72.90625 
L 19.671875 72.90625 
L 19.671875 42.09375 
L 52.390625 72.90625 
L 65.09375 72.90625 
L 28.90625 38.921875 
L 67.671875 0 
L 54.6875 0 
L 19.671875 35.109375 
L 19.671875 0 
L 9.8125 0 
z
" id="DejaVuSans-75"/>
     <path d="M 54.890625 33.015625 
L 54.890625 0 
L 45.90625 0 
L 45.90625 32.71875 
Q 45.90625 40.484375 42.875 44.328125 
Q 39.84375 48.1875 33.796875 48.1875 
Q 26.515625 48.1875 22.3125 43.546875 
Q 18.109375 38.921875 18.109375 30.90625 
L 18.109375 0 
L 9.078125 0 
L 9.078125 54.6875 
L 18.109375 54.6875 
L 18.109375 46.1875 
Q 21.34375 51.125 25.703125 53.5625 
Q 30.078125 56 35.796875 56 
Q 45.21875 56 50.046875 50.171875 
Q 54.890625 44.34375 54.890625 33.015625 
z
" id="DejaVuSans-110"/>
     <path d="M 30.609375 48.390625 
Q 23.390625 48.390625 19.1875 42.75 
Q 14.984375 37.109375 14.984375 27.296875 
Q 14.984375 17.484375 19.15625 11.84375 
Q 23.34375 6.203125 30.609375 6.203125 
Q 37.796875 6.203125 41.984375 11.859375 
Q 46.1875 17.53125 46.1875 27.296875 
Q 46.1875 37.015625 41.984375 42.703125 
Q 37.796875 48.390625 30.609375 48.390625 
z
M 30.609375 56 
Q 42.328125 56 49.015625 48.375 
Q 55.71875 40.765625 55.71875 27.296875 
Q 55.71875 13.875 49.015625 6.21875 
Q 42.328125 -1.421875 30.609375 -1.421875 
Q 18.84375 -1.421875 12.171875 6.21875 
Q 5.515625 13.875 5.515625 27.296875 
Q 5.515625 40.765625 12.171875 48.375 
Q 18.84375 56 30.609375 56 
z
" id="DejaVuSans-111"/>
     <path d="M 4.203125 54.6875 
L 13.1875 54.6875 
L 24.421875 12.015625 
L 35.59375 54.6875 
L 46.1875 54.6875 
L 57.421875 12.015625 
L 68.609375 54.6875 
L 77.59375 54.6875 
L 63.28125 0 
L 52.6875 0 
L 40.921875 44.828125 
L 29.109375 0 
L 18.5 0 
z
" id="DejaVuSans-119"/>
     <path d="M 10.59375 45.40625 
L 73.1875 45.40625 
L 73.1875 37.203125 
L 10.59375 37.203125 
z
M 10.59375 25.484375 
L 73.1875 25.484375 
L 73.1875 17.1875 
L 10.59375 17.1875 
z
" id="DejaVuSans-61"/>
     <path d="M -0.296875 72.90625 
L 61.375 72.90625 
L 61.375 64.59375 
L 35.5 64.59375 
L 35.5 0 
L 25.59375 0 
L 25.59375 64.59375 
L -0.296875 64.59375 
z
" id="DejaVuSans-84"/>
     <path d="M 41.109375 46.296875 
Q 39.59375 47.171875 37.8125 47.578125 
Q 36.03125 48 33.890625 48 
Q 26.265625 48 22.1875 43.046875 
Q 18.109375 38.09375 18.109375 28.8125 
L 18.109375 0 
L 9.078125 0 
L 9.078125 54.6875 
L 18.109375 54.6875 
L 18.109375 46.1875 
Q 20.953125 51.171875 25.484375 53.578125 
Q 30.03125 56 36.53125 56 
Q 37.453125 56 38.578125 55.875 
Q 39.703125 55.765625 41.0625 55.515625 
z
" id="DejaVuSans-114"/>
     <path d="M 19.671875 64.796875 
L 19.671875 8.109375 
L 31.59375 8.109375 
Q 46.6875 8.109375 53.6875 14.9375 
Q 60.6875 21.78125 60.6875 36.53125 
Q 60.6875 51.171875 53.6875 57.984375 
Q 46.6875 64.796875 31.59375 64.796875 
z
M 9.8125 72.90625 
L 30.078125 72.90625 
Q 51.265625 72.90625 61.171875 64.09375 
Q 71.09375 55.28125 71.09375 36.53125 
Q 71.09375 17.671875 61.125 8.828125 
Q 51.171875 0 30.078125 0 
L 9.8125 0 
z
" id="DejaVuSans-68"/>
     <path d="M 45.40625 27.984375 
Q 45.40625 37.75 41.375 43.109375 
Q 37.359375 48.484375 30.078125 48.484375 
Q 22.859375 48.484375 18.828125 43.109375 
Q 14.796875 37.75 14.796875 27.984375 
Q 14.796875 18.265625 18.828125 12.890625 
Q 22.859375 7.515625 30.078125 7.515625 
Q 37.359375 7.515625 41.375 12.890625 
Q 45.40625 18.265625 45.40625 27.984375 
z
M 54.390625 6.78125 
Q 54.390625 -7.171875 48.1875 -13.984375 
Q 42 -20.796875 29.203125 -20.796875 
Q 24.46875 -20.796875 20.265625 -20.09375 
Q 16.0625 -19.390625 12.109375 -17.921875 
L 12.109375 -9.1875 
Q 16.0625 -11.328125 19.921875 -12.34375 
Q 23.78125 -13.375 27.78125 -13.375 
Q 36.625 -13.375 41.015625 -8.765625 
Q 45.40625 -4.15625 45.40625 5.171875 
L 45.40625 9.625 
Q 42.625 4.78125 38.28125 2.390625 
Q 33.9375 0 27.875 0 
Q 17.828125 0 11.671875 7.65625 
Q 5.515625 15.328125 5.515625 27.984375 
Q 5.515625 40.671875 11.671875 48.328125 
Q 17.828125 56 27.875 56 
Q 33.9375 56 38.28125 53.609375 
Q 42.625 51.21875 45.40625 46.390625 
L 45.40625 54.6875 
L 54.390625 54.6875 
z
" id="DejaVuSans-103"/>
     <path d="M 34.28125 27.484375 
Q 23.390625 27.484375 19.1875 25 
Q 14.984375 22.515625 14.984375 16.5 
Q 14.984375 11.71875 18.140625 8.90625 
Q 21.296875 6.109375 26.703125 6.109375 
Q 34.1875 6.109375 38.703125 11.40625 
Q 43.21875 16.703125 43.21875 25.484375 
L 43.21875 27.484375 
z
M 52.203125 31.203125 
L 52.203125 0 
L 43.21875 0 
L 43.21875 8.296875 
Q 40.140625 3.328125 35.546875 0.953125 
Q 30.953125 -1.421875 24.3125 -1.421875 
Q 15.921875 -1.421875 10.953125 3.296875 
Q 6 8.015625 6 15.921875 
Q 6 25.140625 12.171875 29.828125 
Q 18.359375 34.515625 30.609375 34.515625 
L 43.21875 34.515625 
L 43.21875 35.40625 
Q 43.21875 41.609375 39.140625 45 
Q 35.0625 48.390625 27.6875 48.390625 
Q 23 48.390625 18.546875 47.265625 
Q 14.109375 46.140625 10.015625 43.890625 
L 10.015625 52.203125 
Q 14.9375 54.109375 19.578125 55.046875 
Q 24.21875 56 28.609375 56 
Q 40.484375 56 46.34375 49.84375 
Q 52.203125 43.703125 52.203125 31.203125 
z
" id="DejaVuSans-97"/>
     <path d="M 9.421875 54.6875 
L 18.40625 54.6875 
L 18.40625 0 
L 9.421875 0 
z
M 9.421875 75.984375 
L 18.40625 75.984375 
L 18.40625 64.59375 
L 9.421875 64.59375 
z
" id="DejaVuSans-105"/>
     <path d="M 10.6875 12.40625 
L 21 12.40625 
L 21 0 
L 10.6875 0 
z
" id="DejaVuSans-46"/>
    </defs>
    <g transform="translate(51.733125 35.472)scale(0.12 -0.12)">
     <use xlink:href="#DejaVuSans-40"/>
     <use x="39.013672" xlink:href="#DejaVuSans-52"/>
     <use x="102.636719" xlink:href="#DejaVuSans-54"/>
     <use x="166.259766" xlink:href="#DejaVuSans-41"/>
     <use x="205.273438" xlink:href="#DejaVuSans-32"/>
     <use x="237.060547" xlink:href="#DejaVuSans-83"/>
     <use x="300.537109" xlink:href="#DejaVuSans-117"/>
     <use x="363.916016" xlink:href="#DejaVuSans-98"/>
     <use x="427.392578" xlink:href="#DejaVuSans-106"/>
     <use x="455.175781" xlink:href="#DejaVuSans-101"/>
     <use x="516.699219" xlink:href="#DejaVuSans-99"/>
     <use x="571.679688" xlink:href="#DejaVuSans-116"/>
     <use x="610.888672" xlink:href="#DejaVuSans-58"/>
     <use x="644.580078" xlink:href="#DejaVuSans-32"/>
     <use x="676.367188" xlink:href="#DejaVuSans-115"/>
     <use x="728.466797" xlink:href="#DejaVuSans-49"/>
     <use x="792.089844" xlink:href="#DejaVuSans-55"/>
     <use x="855.712891" xlink:href="#DejaVuSans-44"/>
     <use x="887.5" xlink:href="#DejaVuSans-32"/>
     <use x="919.287109" xlink:href="#DejaVuSans-75"/>
     <use x="984.863281" xlink:href="#DejaVuSans-110"/>
     <use x="1048.242188" xlink:href="#DejaVuSans-111"/>
     <use x="1109.423828" xlink:href="#DejaVuSans-119"/>
     <use x="1191.210938" xlink:href="#DejaVuSans-110"/>
     <use x="1254.589844" xlink:href="#DejaVuSans-32"/>
     <use x="1286.376953" xlink:href="#DejaVuSans-61"/>
     <use x="1370.166016" xlink:href="#DejaVuSans-32"/>
     <use x="1401.953125" xlink:href="#DejaVuSans-84"/>
     <use x="1462.818359" xlink:href="#DejaVuSans-114"/>
     <use x="1503.931641" xlink:href="#DejaVuSans-117"/>
     <use x="1567.310547" xlink:href="#DejaVuSans-101"/>
     <use x="1628.833984" xlink:href="#DejaVuSans-44"/>
     <use x="1660.621094" xlink:href="#DejaVuSans-32"/>
     <use x="1692.408203" xlink:href="#DejaVuSans-68"/>
     <use x="1769.410156" xlink:href="#DejaVuSans-101"/>
     <use x="1830.933594" xlink:href="#DejaVuSans-103"/>
     <use x="1894.410156" xlink:href="#DejaVuSans-114"/>
     <use x="1935.492188" xlink:href="#DejaVuSans-101"/>
     <use x="1997.015625" xlink:href="#DejaVuSans-101"/>
     <use x="2058.539062" xlink:href="#DejaVuSans-32"/>
     <use x="2090.326172" xlink:href="#DejaVuSans-61"/>
     <use x="2174.115234" xlink:href="#DejaVuSans-32"/>
     <use x="2205.902344" xlink:href="#DejaVuSans-49"/>
     <use x="2269.525391" xlink:href="#DejaVuSans-44"/>
     <use x="2301.3125" xlink:href="#DejaVuSans-32"/>
     <use x="2333.099609" xlink:href="#DejaVuSans-68"/>
     <use x="2410.101562" xlink:href="#DejaVuSans-117"/>
     <use x="2473.480469" xlink:href="#DejaVuSans-114"/>
     <use x="2514.59375" xlink:href="#DejaVuSans-97"/>
     <use x="2575.873047" xlink:href="#DejaVuSans-116"/>
     <use x="2615.082031" xlink:href="#DejaVuSans-105"/>
     <use x="2642.865234" xlink:href="#DejaVuSans-111"/>
     <use x="2704.046875" xlink:href="#DejaVuSans-110"/>
     <use x="2767.425781" xlink:href="#DejaVuSans-32"/>
     <use x="2799.212891" xlink:href="#DejaVuSans-61"/>
     <use x="2883.001953" xlink:href="#DejaVuSans-32"/>
     <use x="2914.789062" xlink:href="#DejaVuSans-48"/>
     <use x="2978.412109" xlink:href="#DejaVuSans-46"/>
     <use x="3010.199219" xlink:href="#DejaVuSans-49"/>
    </g>
   </g>
  </g>
 </g>
 <defs>
  <clipPath id="pe399aab4ba">
   <rect height="266.112" width="357.12" x="57.6" y="41.472"/>
  </clipPath>
 </defs>
</svg>
