<?xml version="1.0" encoding="utf-8" standalone="no"?>
<!DOCTYPE svg PUBLIC "-//W3C//DTD SVG 1.1//EN"
  "http://www.w3.org/Graphics/SVG/1.1/DTD/svg11.dtd">
<!-- Created with matplotlib (https://matplotlib.org/) -->
<svg height="345.6pt" version="1.1" viewBox="0 0 460.8 345.6" width="460.8pt" xmlns="http://www.w3.org/2000/svg" xmlns:xlink="http://www.w3.org/1999/xlink">
 <defs>
  <style type="text/css">
*{stroke-linecap:butt;stroke-linejoin:round;}
  </style>
 </defs>
 <g id="figure_1">
  <g id="patch_1">
   <path d="M 0 345.6 
L 460.8 345.6 
L 460.8 0 
L 0 0 
z
" style="fill:#ffffff;"/>
  </g>
  <g id="axes_1">
   <g id="patch_2">
    <path d="M 57.6 307.584 
L 414.72 307.584 
L 414.72 41.472 
L 57.6 41.472 
z
" style="fill:#ffffff;"/>
   </g>
   <g id="line2d_1">
    <path clip-path="url(#p158385187b)" d="M 73.95056 54.912869 
L 73.95056 55.102931 
L 73.95056 54.912869 
L 74.186225 54.720401 
L 74.186225 54.527933 
L 73.95056 54.527933 
L 73.95056 55.102931 
L 74.068393 55.487866 
L 74.068393 55.872802 
L 73.832727 55.680334 
L 73.832727 55.102931 
L 73.95056 54.720401 
L 74.068393 54.720401 
L 74.068393 54.720401 
L 74.068393 54.142998 
L 74.657556 54.720401 
L 74.304058 54.720401 
L 74.186225 54.527933 
L 74.539723 54.527933 
L 74.539723 53.952936 
L 74.421891 53.568 
L 74.539723 53.568 
L 74.657556 53.952936 
L 74.539723 53.760468 
L 74.304058 53.760468 
L 74.304058 54.142998 
L 74.304058 54.142998 
L 73.95056 54.142998 
L 74.068393 54.527933 
L 74.186225 54.527933 
L 74.186225 54.527933 
L 74.186225 54.912869 
L 74.304058 54.527933 
L 74.304058 54.335465 
L 74.186225 54.142998 
L 74.304058 54.527933 
L 74.304058 54.720401 
L 74.657556 55.102931 
L 74.304058 54.527933 
L 74.421891 54.335465 
L 74.657556 54.527933 
L 74.775389 55.102931 
L 74.539723 55.295399 
L 74.539723 55.487866 
L 75.24672 55.487866 
L 74.893222 55.680334 
L 74.539723 56.062864 
L 74.304058 56.062864 
L 74.539723 56.255332 
L 74.775389 56.062864 
L 74.775389 55.872802 
L 74.539723 55.680334 
L 74.304058 55.680334 
L 74.304058 56.062864 
L 74.421891 56.062864 
L 74.421891 55.872802 
L 74.304058 55.680334 
L 73.95056 56.4478 
L 73.95056 56.832735 
L 74.068393 56.832735 
L 74.068393 56.062864 
L 74.421891 55.680334 
L 74.775389 55.680334 
L 74.893222 55.872802 
L 74.657556 56.255332 
L 74.775389 56.255332 
L 74.893222 56.640267 
L 74.775389 56.832735 
L 74.304058 56.4478 
L 74.304058 56.4478 
L 74.304058 56.832735 
L 74.304058 56.4478 
L 74.421891 57.022797 
L 74.421891 57.6002 
L 74.186225 56.640267 
L 74.304058 56.640267 
L 74.421891 57.022797 
L 74.421891 57.022797 
L 74.657556 56.832735 
L 74.775389 56.832735 
L 74.893222 57.215265 
L 74.893222 56.832735 
L 74.539723 57.022797 
L 74.775389 56.4478 
L 75.128887 56.4478 
L 75.128887 56.255332 
L 75.128887 56.640267 
L 74.893222 57.022797 
L 74.657556 57.98273 
L 74.775389 57.215265 
L 74.775389 56.640267 
L 74.893222 56.640267 
L 74.893222 56.640267 
L 75.128887 57.215265 
L 75.011054 57.215265 
L 74.775389 57.022797 
L 74.775389 57.022797 
L 74.893222 57.407733 
L 75.011054 57.407733 
L 75.011054 57.407733 
L 74.893222 57.6002 
L 74.775389 57.407733 
L 75.011054 57.215265 
L 75.24672 57.407733 
L 74.893222 57.792668 
L 74.893222 57.6002 
L 74.893222 57.792668 
L 74.775389 57.6002 
L 74.775389 57.215265 
L 74.893222 57.022797 
L 75.011054 57.215265 
L 75.128887 57.022797 
L 75.364552 57.022797 
L 75.600218 57.215265 
L 75.482385 57.215265 
L 75.128887 57.022797 
L 74.775389 56.640267 
L 74.657556 56.832735 
L 75.24672 57.6002 
L 75.24672 57.215265 
L 75.364552 56.255332 
L 75.128887 57.6002 
L 75.24672 57.407733 
L 75.482385 57.022797 
L 75.482385 56.640267 
L 75.24672 56.062864 
L 75.24672 56.4478 
L 75.482385 57.98273 
L 75.364552 57.215265 
L 75.482385 57.022797 
L 75.600218 57.407733 
L 75.71805 57.407733 
L 75.482385 56.832735 
L 75.24672 57.792668 
L 75.24672 57.792668 
L 75.24672 58.175198 
L 75.24672 57.98273 
L 75.128887 57.6002 
L 75.128887 57.98273 
L 75.128887 58.175198 
L 75.364552 57.6002 
L 75.128887 58.367666 
L 75.482385 57.792668 
L 75.600218 57.792668 
L 75.364552 57.215265 
L 75.364552 56.832735 
L 75.364552 57.215265 
L 75.482385 58.175198 
L 75.482385 57.407733 
L 75.71805 56.832735 
L 77.482356 56.255332 
L 79.132014 55.872802 
L 81.014152 55.872802 
L 83.485454 56.255332 
L 86.074589 56.4478 
L 89.135054 56.255332 
L 92.784683 56.255332 
L 97.023475 56.062864 
L 101.494748 56.255332 
L 112.207969 57.407733 
L 118.211067 57.98273 
L 124.44983 59.135131 
L 131.042092 60.48 
L 137.516521 62.014931 
L 144.108782 62.974864 
L 150.701044 63.744735 
L 156.821974 64.897136 
L 162.471574 66.817002 
L 167.885509 69.119399 
L 173.066962 71.039265 
L 182.484024 74.304 
L 186.248301 75.838931 
L 189.662264 76.991332 
L 193.19406 78.721136 
L 196.725856 80.831064 
L 200.13982 82.560869 
L 203.200285 83.903332 
L 206.142918 85.440668 
L 209.203383 86.593069 
L 218.031281 88.895465 
L 220.738248 90.047866 
L 223.798714 91.585203 
L 226.859179 92.927666 
L 229.919644 94.080067 
L 235.454596 95.614998 
L 243.693331 98.497203 
L 245.693302 99.647198 
L 247.578625 101.184535 
L 251.814232 104.256802 
L 253.46389 106.176668 
L 256.170857 109.823933 
L 257.58485 111.551332 
L 259.820486 115.583532 
L 262.527453 118.6558 
L 263.587948 121.153069 
L 264.527425 124.225337 
L 265.470086 126.912668 
L 266.412748 129.025002 
L 267.823555 133.057203 
L 269.237548 137.089403 
L 270.766188 140.736668 
L 272.062348 144.576401 
L 273.240674 148.031198 
L 273.708821 150.143532 
L 274.651482 155.328134 
L 275.122813 157.440468 
L 275.711976 159.167866 
L 276.183307 161.087733 
L 279.479438 170.879532 
L 279.832936 172.609337 
L 279.947584 174.336735 
L 280.301082 176.064134 
L 280.890246 177.984 
L 281.243744 179.711399 
L 282.186405 187.200802 
L 282.422071 189.505604 
L 282.775569 191.233002 
L 282.893401 192.000468 
L 282.893401 194.112802 
L 283.243715 194.880267 
L 283.243715 195.265203 
L 283.008049 196.225136 
L 282.539903 196.992601 
L 282.539903 197.567599 
L 282.893401 197.760067 
L 283.361547 197.760067 
L 283.47938 198.145002 
L 283.008049 200.257337 
L 283.125882 200.639866 
L 282.775569 201.5998 
L 282.539903 201.984735 
L 282.422071 202.559733 
L 282.422071 203.904601 
L 282.186405 204.289537 
L 282.186405 204.672067 
L 282.422071 206.209403 
L 282.422071 206.976869 
L 282.657736 208.321738 
L 282.657736 208.896735 
L 282.539903 209.281671 
L 282.186405 209.856668 
L 282.422071 209.856668 
L 282.775569 210.624134 
L 282.422071 211.776535 
L 282.539903 212.16147 
L 282.539903 212.544 
L 282.539903 212.544 
L 282.304238 212.544 
L 282.068572 212.928936 
L 282.068572 213.311465 
L 282.422071 215.616267 
L 282.304238 216.001203 
L 281.597242 215.4238 
L 281.597242 215.808735 
L 281.715074 216.383733 
L 281.95074 216.768668 
L 281.832907 217.153604 
L 281.243744 217.921069 
L 281.243744 218.113537 
L 281.479409 219.07347 
L 281.479409 219.648468 
L 281.361576 220.033403 
L 281.361576 220.223465 
L 281.008078 220.608401 
L 281.008078 221.183399 
L 280.890246 221.568334 
L 280.890246 221.568334 
L 280.890246 221.183399 
L 280.772413 220.800869 
L 280.65458 220.993337 
L 280.890246 221.95327 
L 281.008078 222.145738 
L 280.772413 222.720735 
L 280.65458 222.528267 
L 280.772413 222.720735 
L 280.772413 223.295733 
L 280.65458 223.4882 
L 280.536747 223.105671 
L 280.772413 222.913203 
L 280.890246 223.105671 
L 280.65458 224.065604 
L 280.418915 225.408067 
L 280.536747 225.215599 
L 280.65458 224.833069 
L 280.418915 225.600535 
L 280.183249 225.600535 
L 280.301082 225.600535 
L 279.597271 226.175532 
L 279.479438 226.752936 
L 279.479438 227.327933 
L 279.597271 227.520401 
L 279.479438 227.520401 
L 279.479438 228.287866 
L 279.715103 228.672802 
L 279.947584 228.672802 
L 279.947584 228.480334 
L 279.597271 228.480334 
L 279.361605 229.440267 
L 279.12594 229.2478 
L 279.12594 229.825203 
L 279.361605 229.632735 
L 279.597271 229.825203 
L 280.418915 229.825203 
L 281.597242 230.207733 
L 284.77554 230.592668 
L 288.896499 230.592668 
L 294.663932 231.360134 
L 302.431336 232.127599 
L 306.434462 232.705002 
L 310.437589 233.664936 
L 314.322884 234.817337 
L 317.969328 236.1598 
L 321.736789 237.3122 
L 325.386418 238.657069 
L 332.567843 241.921804 
L 335.746141 243.649203 
L 338.688774 244.801604 
L 352.22361 251.328668 
L 354.698096 252.673537 
L 359.876366 254.785871 
L 364.468656 255.935866 
L 366.468627 256.8958 
L 368.1151 258.0482 
L 369.88259 259.008134 
L 373.532219 259.393069 
L 374.353863 259.585537 
L 374.707361 260.353002 
L 374.707361 260.737938 
L 373.767885 261.120468 
L 372.943056 261.120468 
L 371.764729 261.505403 
L 371.175565 261.697871 
L 370.9399 262.657804 
L 370.589587 262.847866 
L 369.646925 263.040334 
L 369.529092 263.040334 
L 369.293427 262.465337 
L 369.293427 262.847866 
L 369.293427 263.42527 
L 369.529092 264.000267 
L 370.000423 264.192735 
L 370.236089 264.000267 
L 370.236089 263.8078 
L 370.236089 264.192735 
L 369.529092 264.767733 
L 369.529092 264.385203 
L 369.293427 265.152668 
L 369.41126 265.537604 
L 370.118256 265.920134 
L 370.118256 266.112601 
L 369.41126 266.497537 
L 369.41126 266.687599 
L 369.646925 266.687599 
L 369.646925 266.112601 
L 369.41126 265.920134 
L 369.057762 266.687599 
L 369.057762 266.880067 
L 368.939929 266.687599 
L 369.057762 266.687599 
L 369.175594 266.687599 
L 369.175594 266.497537 
L 368.822096 266.687599 
L 368.586431 266.687599 
L 368.822096 267.072535 
L 368.586431 267.265002 
L 368.350765 267.265002 
L 368.232933 267.45747 
L 368.350765 267.649938 
L 368.704264 267.84 
L 368.822096 268.224936 
L 368.1151 267.649938 
L 368.468598 268.032468 
L 368.232933 268.032468 
L 367.879435 268.224936 
L 367.643769 268.224936 
L 367.879435 268.417403 
L 367.997267 268.992401 
L 367.997267 269.184869 
L 368.468598 268.799933 
L 368.1151 268.992401 
L 367.761602 269.184869 
L 367.761602 269.377337 
L 367.879435 269.377337 
L 367.997267 269.759866 
L 367.761602 269.759866 
L 367.761602 269.569804 
L 368.1151 270.144802 
L 368.350765 269.952334 
L 368.350765 269.759866 
L 367.997267 270.33727 
L 367.879435 269.952334 
L 367.879435 270.144802 
L 367.879435 270.529738 
L 367.761602 270.7198 
L 367.997267 270.529738 
L 367.761602 270.7198 
L 367.529121 270.7198 
L 366.939958 270.33727 
L 366.939958 270.912267 
L 367.293456 271.297203 
L 367.411289 270.912267 
L 367.411289 270.912267 
L 367.643769 271.297203 
L 367.643769 270.912267 
L 367.643769 271.104735 
L 367.761602 271.679733 
L 367.529121 272.449604 
L 367.175623 272.064668 
L 367.05779 272.449604 
L 367.05779 272.449604 
L 367.175623 272.449604 
L 367.175623 272.064668 
L 367.529121 272.832134 
L 367.761602 273.409537 
L 367.879435 273.409537 
L 367.643769 273.409537 
L 367.761602 273.409537 
L 367.643769 273.792067 
L 367.761602 274.177002 
L 368.1151 274.36947 
L 368.1151 274.36947 
L 367.529121 275.521871 
L 367.175623 275.329403 
L 367.411289 274.944468 
L 367.879435 274.944468 
L 367.997267 275.329403 
L 367.761602 275.904401 
L 367.879435 275.904401 
L 367.997267 275.711933 
L 367.293456 274.752 
L 367.293456 274.944468 
L 367.643769 275.711933 
L 367.643769 275.329403 
L 367.411289 274.752 
L 367.411289 274.561938 
L 367.643769 274.752 
L 367.761602 275.136936 
L 367.529121 275.329403 
L 367.05779 275.136936 
L 366.704292 275.136936 
L 366.58646 274.944468 
L 366.468627 275.329403 
L 366.350794 275.329403 
L 366.232962 275.136936 
L 365.054635 274.752 
L 360.701194 273.217069 
L 358.344541 272.449604 
L 347.281006 270.529738 
L 343.160047 270.144802 
L 338.570941 269.377337 
L 327.975553 268.224936 
L 322.325953 267.84 
L 316.55852 268.032468 
L 310.673255 268.032468 
L 304.552324 267.649938 
L 298.431393 266.880067 
L 292.19263 266.305069 
L 280.065417 266.305069 
L 274.062319 265.727666 
L 267.941388 264.577671 
L 256.28869 262.080401 
L 251.228254 261.312936 
L 246.164633 260.737938 
L 241.104196 259.968067 
L 236.040575 259.585537 
L 226.623514 259.200601 
L 222.270073 258.815666 
L 215.206481 258.815666 
L 212.028183 258.625604 
L 204.378612 257.088267 
L 202.021958 256.8958 
L 200.13982 256.8958 
L 198.84366 256.51327 
L 196.01886 256.51327 
L 196.372358 256.51327 
L 196.725856 256.128334 
L 196.843689 255.553337 
L 197.079354 255.360869 
L 197.668518 255.360869 
L 198.257681 255.935866 
L 198.84366 256.128334 
L 199.197158 255.935866 
L 199.550656 256.128334 
L 199.904154 256.8958 
L 200.13982 257.088267 
L 200.13982 257.088267 
L 198.607995 258.815666 
L 198.257681 259.585537 
L 197.904183 260.160535 
L 197.904183 259.968067 
L 197.668518 259.968067 
L 197.550685 260.353002 
L 197.31502 260.54547 
L 197.079354 260.54547 
L 196.843689 260.928 
L 196.725856 260.54547 
L 196.843689 260.160535 
L 197.079354 260.353002 
L 197.432852 261.120468 
L 196.961522 260.737938 
L 197.079354 261.120468 
L 197.079354 261.697871 
L 196.961522 261.697871 
L 196.961522 261.697871 
L 196.843689 261.312936 
L 197.079354 262.080401 
L 197.197187 262.657804 
L 196.961522 262.847866 
L 196.725856 262.657804 
L 196.725856 262.080401 
L 196.490191 262.465337 
L 196.608024 262.465337 
L 196.608024 262.657804 
L 196.490191 263.040334 
L 196.372358 263.040334 
L 196.608024 262.657804 
L 196.608024 262.847866 
L 196.608024 263.232802 
L 196.372358 263.8078 
L 196.372358 263.42527 
L 196.490191 263.232802 
L 196.608024 263.42527 
L 196.608024 264.385203 
L 196.490191 264.577671 
L 196.254526 264.577671 
L 195.901027 264.385203 
L 196.372358 264.000267 
L 196.490191 264.192735 
L 195.901027 264.9602 
L 196.01886 264.9602 
L 196.254526 265.152668 
L 196.254526 264.767733 
L 196.136693 264.767733 
L 195.783195 265.345136 
L 195.783195 265.727666 
L 196.01886 265.727666 
L 196.136693 265.537604 
L 196.01886 265.345136 
L 195.665362 265.345136 
L 195.429697 265.152668 
L 195.547529 264.9602 
L 195.901027 265.152668 
L 196.136693 265.727666 
L 196.136693 265.727666 
L 195.901027 265.727666 
L 195.901027 266.497537 
L 196.01886 266.305069 
L 195.901027 265.920134 
L 195.665362 265.345136 
L 195.547529 265.537604 
L 195.547529 266.112601 
L 195.429697 266.112601 
L 195.429697 266.305069 
L 195.311864 266.305069 
L 195.429697 266.112601 
L 195.547529 266.497537 
L 195.547529 266.687599 
L 195.429697 267.072535 
L 195.194031 267.072535 
L 195.194031 267.072535 
L 195.194031 266.880067 
L 195.311864 266.497537 
L 195.429697 266.497537 
L 195.429697 266.687599 
L 195.665362 266.687599 
L 195.665362 266.687599 
L 195.429697 267.265002 
L 195.429697 266.880067 
L 195.311864 266.880067 
L 195.311864 267.072535 
L 195.194031 266.880067 
L 194.961551 267.45747 
L 194.961551 267.84 
L 195.194031 267.84 
L 195.311864 267.45747 
L 195.547529 267.45747 
L 195.901027 268.224936 
L 195.783195 268.417403 
L 195.547529 268.032468 
L 195.194031 268.032468 
L 195.194031 268.224936 
L 195.429697 268.224936 
L 195.429697 268.224936 
L 195.194031 268.799933 
L 195.429697 268.417403 
L 196.01886 268.032468 
L 196.01886 268.609871 
L 195.665362 269.377337 
L 195.783195 268.992401 
L 195.783195 268.609871 
L 195.901027 268.609871 
L 196.01886 268.799933 
L 196.136693 268.417403 
L 196.136693 268.032468 
L 196.01886 267.84 
L 195.901027 268.032468 
L 196.01886 268.417403 
L 196.01886 268.417403 
L 196.136693 268.224936 
L 196.490191 268.799933 
L 196.372358 269.184869 
L 196.254526 269.184869 
L 196.01886 268.609871 
L 196.01886 268.609871 
L 196.01886 269.952334 
L 196.01886 269.759866 
L 195.901027 269.377337 
L 196.01886 268.992401 
L 196.372358 269.759866 
L 196.372358 270.144802 
L 196.136693 270.33727 
L 196.01886 270.144802 
L 195.901027 270.7198 
L 196.01886 270.7198 
L 196.01886 270.529738 
L 196.136693 270.33727 
L 196.254526 270.7198 
L 196.01886 270.7198 
L 195.547529 270.33727 
L 195.901027 270.529738 
L 196.254526 270.33727 
L 196.136693 270.33727 
L 196.01886 270.7198 
L 195.783195 270.912267 
L 195.901027 271.104735 
L 196.136693 271.104735 
L 196.136693 270.7198 
L 196.254526 270.7198 
L 196.372358 271.104735 
L 196.136693 271.297203 
L 196.254526 271.104735 
L 196.372358 270.529738 
L 196.372358 270.912267 
L 196.490191 271.104735 
L 196.490191 270.912267 
L 196.490191 270.7198 
L 196.136693 270.912267 
L 196.01886 270.7198 
L 196.372358 271.489671 
L 196.372358 271.679733 
L 196.254526 271.8722 
L 196.490191 271.679733 
L 196.490191 271.8722 
L 196.372358 271.489671 
L 196.01886 271.104735 
L 195.547529 270.912267 
L 194.961551 270.912267 
L 194.254554 271.104735 
L 193.311893 271.104735 
L 192.018918 270.912267 
L 190.722758 270.529738 
L 184.24833 269.569804 
L 182.366191 268.992401 
L 179.07006 268.224936 
L 176.24526 267.072535 
L 175.066934 266.880067 
L 174.124272 267.072535 
L 173.184795 267.072535 
L 172.242134 266.687599 
L 171.417305 266.112601 
L 170.474643 265.727666 
L 170.006497 265.152668 
L 169.417334 264.767733 
L 169.063836 264.767733 
L 168.710337 265.727666 
L 168.121174 266.497537 
L 168.474672 266.305069 
L 168.710337 266.305069 
L 168.82817 266.687599 
L 169.063836 266.880067 
L 169.181668 266.497537 
L 169.181668 266.305069 
L 169.535166 266.687599 
L 169.652999 266.687599 
L 169.652999 266.880067 
L 169.181668 266.880067 
L 169.181668 266.305069 
L 169.299501 266.305069 
L 169.299501 267.84 
L 169.417334 267.649938 
L 169.535166 267.84 
L 169.181668 268.032468 
L 169.299501 267.649938 
L 169.299501 266.687599 
L 169.299501 266.687599 
L 169.181668 266.880067 
L 169.063836 266.497537 
L 169.063836 266.497537 
L 169.063836 267.84 
L 169.181668 268.417403 
L 169.417334 268.609871 
L 169.417334 268.799933 
L 169.417334 268.609871 
L 169.535166 267.84 
L 169.535166 268.224936 
L 169.299501 268.224936 
L 169.181668 268.032468 
L 169.299501 267.84 
L 169.535166 268.224936 
L 169.535166 269.569804 
L 169.299501 268.224936 
L 169.063836 268.799933 
L 169.063836 268.799933 
L 169.181668 268.799933 
L 169.417334 268.609871 
L 169.417334 268.609871 
L 169.652999 268.992401 
L 169.535166 268.992401 
L 169.299501 268.992401 
L 169.063836 269.184869 
L 169.063836 269.377337 
L 169.299501 269.184869 
L 169.652999 268.799933 
L 169.652999 269.377337 
L 169.652999 269.184869 
L 169.417334 268.992401 
L 169.063836 269.377337 
L 169.181668 269.377337 
L 169.535166 269.184869 
L 169.063836 269.377337 
L 169.181668 268.609871 
L 169.181668 269.184869 
L 169.535166 269.377337 
L 169.652999 269.759866 
L 169.535166 269.184869 
L 169.535166 268.799933 
L 169.417334 268.799933 
L 169.299501 269.184869 
L 169.063836 269.569804 
L 169.063836 269.569804 
L 169.063836 269.184869 
L 169.181668 269.184869 
L 169.181668 269.377337 
L 169.181668 269.377337 
L 168.710337 268.799933 
L 168.82817 268.799933 
L 169.181668 268.992401 
L 169.181668 269.569804 
L 169.063836 269.759866 
L 169.063836 269.759866 
L 169.063836 268.992401 
L 168.946003 268.799933 
L 169.417334 269.569804 
L 169.417334 269.952334 
L 169.535166 270.144802 
L 169.535166 269.952334 
L 169.535166 269.759866 
L 169.417334 269.759866 
L 169.535166 269.759866 
L 169.652999 269.952334 
L 169.299501 270.33727 
L 170.006497 268.224936 
L 169.770832 268.609871 
L 169.535166 268.992401 
L 169.535166 269.377337 
L 169.770832 269.377337 
L 169.888664 269.569804 
L 169.299501 270.33727 
L 169.299501 269.952334 
L 169.181668 269.759866 
L 169.063836 269.952334 
L 168.946003 269.569804 
L 169.063836 269.569804 
L 169.181668 269.377337 
L 169.299501 269.759866 
L 169.299501 270.144802 
L 169.417334 270.33727 
L 169.299501 269.759866 
L 169.299501 268.992401 
L 169.417334 268.417403 
L 169.652999 268.417403 
L 169.888664 269.184869 
L 169.770832 268.992401 
L 169.417334 268.609871 
L 169.063836 268.992401 
L 169.299501 268.992401 
L 169.770832 268.799933 
L 170.121145 268.224936 
L 170.710309 266.880067 
L 171.65297 265.920134 
L 174.595603 264.000267 
L 176.713407 262.847866 
L 179.305726 260.928 
L 182.366191 259.008134 
L 185.894803 257.088267 
L 189.544431 255.360869 
L 193.783224 253.823532 
L 198.139849 252.096134 
L 202.257624 249.9838 
L 206.849914 247.296468 
L 216.502641 241.921804 
L 220.973914 239.232067 
L 225.448371 236.737203 
L 230.15531 234.817337 
L 234.983265 233.664936 
L 239.808036 232.127599 
L 244.51816 230.4002 
L 248.8716 229.440267 
L 253.346057 228.86527 
L 257.935163 227.712869 
L 262.527453 226.945403 
L 271.355351 226.175532 
L 284.068544 222.913203 
L 291.014303 222.528267 
L 294.074768 222.145738 
L 299.842201 220.993337 
L 302.19567 220.415933 
L 304.080993 220.415933 
L 305.727466 220.800869 
L 306.787961 221.375866 
L 307.259291 221.183399 
L 307.259291 220.800869 
L 306.905793 220.800869 
L 305.256136 221.760802 
L 304.198826 221.760802 
L 303.020499 221.95327 
L 302.077838 221.95327 
L 299.606536 222.528267 
L 298.663874 220.800869 
L 298.781707 220.608401 
L 299.017372 220.608401 
L 299.253038 220.415933 
L 299.253038 220.800869 
L 299.37087 220.993337 
L 300.195699 220.608401 
L 300.784863 221.183399 
L 300.902695 221.760802 
L 300.902695 221.760802 
L 300.66703 221.760802 
L 300.431364 220.800869 
L 300.549197 220.223465 
L 300.431364 220.033403 
L 300.077866 220.033403 
L 299.960034 220.608401 
L 300.195699 220.800869 
L 300.077866 220.800869 
L 299.488703 220.800869 
L 299.488703 220.800869 
L 299.724368 220.415933 
L 299.960034 220.415933 
L 300.077866 220.800869 
L 299.606536 220.800869 
L 299.017372 220.993337 
L 298.781707 220.800869 
L 298.899539 220.800869 
L 299.135205 220.800869 
L 299.37087 220.608401 
L 299.37087 221.183399 
L 299.606536 221.183399 
L 299.724368 220.993337 
L 299.488703 220.415933 
L 299.724368 220.033403 
L 299.842201 219.456 
L 299.842201 219.456 
L 299.842201 220.033403 
L 299.960034 220.608401 
L 299.606536 221.183399 
L 299.488703 220.800869 
L 299.488703 220.415933 
L 299.606536 220.608401 
L 299.960034 220.608401 
L 299.960034 220.415933 
L 299.960034 220.608401 
L 300.195699 220.608401 
L 300.313532 220.415933 
L 300.431364 220.800869 
L 300.902695 220.415933 
L 301.138361 220.033403 
L 301.374026 220.033403 
L 301.727524 219.840936 
L 302.19567 219.840936 
L 302.19567 220.033403 
L 302.431336 220.608401 
L 302.667001 220.608401 
L 303.020499 220.800869 
L 303.373997 220.608401 
L 304.552324 219.648468 
L 305.02047 220.993337 
L 306.31663 220.033403 
L 307.141459 220.415933 
L 307.612789 220.800869 
L 309.14143 220.800869 
L 309.61276 221.183399 
L 310.319757 220.993337 
L 311.144586 221.375866 
L 311.494899 220.993337 
L 312.084062 221.95327 
L 312.673226 221.568334 
L 312.908891 221.760802 
L 313.026724 222.145738 
L 313.262389 222.3358 
L 313.498055 222.3358 
L 313.615887 222.528267 
L 313.73372 223.105671 
L 313.73372 223.680668 
L 313.851553 223.295733 
L 314.205051 222.720735 
L 314.555364 222.720735 
L 314.555364 223.105671 
L 314.555364 223.105671 
L 314.673197 222.913203 
L 314.673197 222.528267 
L 314.555364 222.3358 
L 314.437532 222.528267 
L 314.673197 222.720735 
L 315.026695 222.720735 
L 315.26236 222.913203 
L 314.673197 222.3358 
L 314.908862 222.3358 
L 315.615858 222.720735 
L 315.615858 222.720735 
L 315.26236 222.913203 
L 315.969357 222.528267 
L 316.205022 221.760802 
L 316.087189 222.528267 
L 316.322855 222.720735 
L 316.322855 222.720735 
L 316.087189 222.913203 
L 315.969357 222.528267 
L 315.969357 222.145738 
L 315.851524 222.145738 
L 315.733691 222.3358 
L 315.615858 221.95327 
L 315.615858 222.145738 
L 315.26236 222.528267 
L 315.144528 222.145738 
L 315.380193 222.3358 
L 315.498026 222.913203 
L 315.380193 222.913203 
L 315.380193 222.528267 
L 315.615858 221.760802 
L 315.498026 221.760802 
L 315.26236 221.95327 
L 315.26236 221.568334 
L 315.026695 221.375866 
L 314.555364 221.95327 
L 314.322884 221.375866 
L 314.205051 220.993337 
L 313.851553 220.800869 
L 313.851553 220.800869 
L 313.851553 220.993337 
L 313.498055 221.375866 
L 313.380222 221.183399 
L 313.262389 220.415933 
L 313.026724 221.375866 
L 312.791059 221.375866 
L 312.555393 221.183399 
L 312.555393 220.993337 
L 312.673226 220.415933 
L 312.673226 220.223465 
L 312.201895 220.993337 
L 311.730564 220.608401 
L 311.377066 220.608401 
L 311.144586 220.800869 
L 311.494899 220.415933 
L 311.494899 220.223465 
L 311.144586 219.648468 
L 311.144586 219.840936 
L 311.259234 220.223465 
L 310.673255 220.223465 
L 310.673255 220.415933 
L 310.555422 220.608401 
L 310.319757 220.608401 
L 310.555422 220.415933 
L 310.791087 220.415933 
L 310.791087 220.800869 
L 310.673255 220.800869 
L 310.555422 220.415933 
L 310.201924 220.033403 
L 309.848426 220.608401 
L 309.848426 220.608401 
L 309.966259 220.800869 
L 309.848426 220.993337 
L 309.848426 220.993337 
L 309.730593 220.800869 
L 309.494928 220.993337 
L 309.377095 220.800869 
L 309.61276 220.415933 
L 309.494928 220.608401 
L 309.730593 220.608401 
L 309.61276 220.608401 
L 309.259262 220.800869 
L 309.023597 220.800869 
L 308.905764 220.415933 
L 309.023597 220.415933 
L 309.14143 221.183399 
L 309.023597 221.375866 
L 308.787932 221.375866 
L 308.552266 221.183399 
L 308.905764 221.375866 
L 308.787932 221.375866 
L 308.434434 221.375866 
L 308.434434 221.375866 
L 308.316601 220.800869 
L 308.198768 220.993337 
L 308.080935 220.608401 
L 308.316601 221.375866 
L 308.552266 221.183399 
L 308.552266 220.993337 
L 308.434434 220.800869 
L 308.434434 220.800869 
L 308.198768 221.183399 
L 307.966287 221.183399 
L 307.848455 221.375866 
L 308.080935 221.95327 
L 307.848455 222.528267 
L 307.494957 221.760802 
L 307.494957 221.760802 
L 307.612789 221.760802 
L 307.377124 221.95327 
L 307.377124 221.760802 
L 307.612789 221.760802 
L 307.612789 221.568334 
L 307.377124 222.145738 
L 307.141459 222.3358 
L 307.141459 222.3358 
L 307.377124 222.3358 
L 307.612789 221.568334 
L 307.494957 221.568334 
L 307.259291 221.375866 
L 307.023626 221.375866 
L 306.905793 221.760802 
L 307.141459 221.568334 
L 307.494957 220.993337 
L 307.259291 220.993337 
L 307.141459 221.183399 
L 306.434462 221.568334 
L 306.198797 221.375866 
L 306.198797 221.183399 
L 305.963132 221.183399 
L 305.963132 221.183399 
L 306.31663 221.375866 
L 306.787961 221.95327 
L 306.787961 221.568334 
L 306.552295 221.375866 
L 306.434462 221.760802 
L 306.552295 222.3358 
L 306.552295 222.145738 
L 306.434462 222.145738 
L 306.434462 222.3358 
L 306.080964 222.720735 
L 305.845299 222.913203 
L 305.845299 222.913203 
L 305.963132 222.3358 
L 306.198797 221.95327 
L 306.198797 222.145738 
L 306.198797 222.3358 
L 306.080964 222.3358 
L 306.080964 222.3358 
L 306.31663 222.720735 
L 306.434462 222.528267 
L 306.198797 222.145738 
L 305.845299 221.95327 
L 305.609634 221.95327 
L 305.609634 222.145738 
L 305.845299 222.528267 
L 305.845299 222.528267 
L 305.845299 221.95327 
L 305.845299 222.3358 
L 305.609634 222.528267 
L 305.373968 222.528267 
L 305.373968 222.720735 
L 305.491801 222.145738 
L 304.787989 222.720735 
L 305.373968 222.3358 
L 306.670128 222.913203 
L 308.080935 223.105671 
L 312.084062 223.105671 
L 314.673197 223.4882 
L 317.733662 223.680668 
L 331.978679 227.327933 
L 335.981806 228.480334 
L 339.746083 230.017671 
L 343.631377 231.745069 
L 347.516672 234.239933 
L 351.401966 237.119733 
L 355.519741 240.384468 
L 366.58646 248.256401 
L 369.646925 250.368735 
L 383.417427 260.54547 
L 385.774081 261.697871 
L 388.009717 262.465337 
L 389.891856 263.232802 
L 391.659346 264.192735 
L 394.837644 265.727666 
L 396.130619 266.687599 
L 397.191113 267.649938 
L 398.133775 268.224936 
L 398.487273 268.609871 
L 398.133775 270.33727 
L 398.133775 270.33727 
L 397.898109 270.529738 
L 397.191113 271.679733 
L 396.484117 272.257136 
L 395.662473 272.449604 
L 394.012815 273.409537 
L 393.659317 273.409537 
L 393.070154 274.561938 
L 392.366342 276.289337 
L 392.366342 275.904401 
L 392.248509 275.521871 
L 392.130677 275.711933 
L 392.248509 276.096869 
L 392.248509 276.289337 
L 392.012844 277.056802 
L 392.248509 278.016735 
L 392.130677 278.209203 
L 392.130677 279.169136 
L 392.130677 279.169136 
L 391.541513 280.129069 
L 391.659346 279.361604 
L 391.541513 278.7842 
L 391.305848 279.361604 
L 391.070182 280.321537 
L 390.716684 280.704067 
L 390.481019 280.704067 
L 390.481019 280.704067 
L 390.716684 280.896535 
L 390.245354 280.896535 
L 390.245354 280.704067 
L 390.009688 280.514005 
L 389.774023 281.473938 
L 389.891856 282.048936 
L 390.127521 282.048936 
L 390.127521 281.856468 
L 389.65619 281.856468 
L 389.305877 282.433871 
L 389.423709 282.048936 
L 389.423709 281.664 
L 389.188044 281.856468 
L 389.188044 282.433871 
L 388.952379 283.008869 
L 388.834546 283.393804 
L 388.598881 283.008869 
L 388.598881 284.353738 
L 388.598881 284.16127 
L 388.834546 284.16127 
L 388.716713 283.968802 
L 388.716713 284.16127 
L 388.716713 284.736267 
L 388.481048 284.736267 
L 388.481048 284.928735 
L 388.716713 284.928735 
L 387.538386 284.928735 
L 387.420554 285.121203 
L 387.538386 285.503733 
L 387.538386 286.656134 
L 387.538386 286.273604 
L 387.302721 286.081136 
L 387.302721 285.888668 
L 387.420554 285.888668 
L 387.538386 286.273604 
L 387.538386 286.848601 
L 387.420554 286.848601 
L 387.067056 286.656134 
L 386.949223 286.848601 
L 387.184888 287.041069 
L 387.184888 286.656134 
L 387.420554 286.463666 
L 387.420554 286.081136 
L 387.184888 286.273604 
L 387.067056 286.848601 
L 387.184888 287.426005 
L 387.184888 287.426005 
L 386.83139 287.233537 
L 386.477892 287.426005 
L 386.363244 287.808535 
L 386.477892 288.19347 
L 386.595725 287.808535 
L 386.477892 287.808535 
L 386.363244 288.001002 
L 386.245411 287.808535 
L 386.009746 287.808535 
L 385.774081 288.385938 
L 386.009746 288.385938 
L 386.127579 288.576 
L 386.009746 288.960936 
L 386.009746 288.576 
L 385.774081 288.385938 
L 385.774081 288.576 
L 385.891913 288.576 
L 386.245411 288.960936 
L 386.363244 289.345871 
L 386.127579 289.345871 
L 385.538415 289.728401 
L 385.30275 289.153403 
L 385.30275 289.345871 
L 385.30275 290.495866 
L 385.184917 290.495866 
L 385.420583 289.535933 
L 385.420583 289.535933 
L 385.30275 289.728401 
L 385.067084 290.688334 
L 385.184917 291.07327 
L 385.067084 291.265738 
L 384.831419 290.305804 
L 384.477921 290.880802 
L 384.595754 291.07327 
L 384.713586 290.880802 
L 384.477921 290.495866 
L 384.713586 291.07327 
L 384.477921 290.688334 
L 384.477921 291.265738 
L 384.242256 292.033203 
L 384.242256 292.033203 
L 384.242256 291.265738 
L 384.00659 290.880802 
L 383.770925 290.880802 
L 384.00659 291.840735 
L 383.770925 291.840735 
L 383.417427 291.4558 
L 383.535259 291.648267 
L 383.770925 291.4558 
L 383.184946 292.033203 
L 383.184946 292.225671 
L 383.535259 292.6082 
L 383.653092 292.225671 
L 383.770925 291.840735 
L 383.653092 291.648267 
L 383.535259 292.6082 
L 383.417427 292.415733 
L 383.417427 291.840735 
L 383.417427 291.840735 
L 383.653092 292.415733 
L 383.653092 292.415733 
L 383.653092 292.800668 
L 383.535259 292.993136 
L 383.535259 293.760601 
L 383.184946 293.378072 
L 382.831448 293.378072 
L 382.831448 293.185604 
L 383.184946 293.185604 
L 383.184946 292.993136 
L 382.949281 293.185604 
L 383.067113 292.993136 
L 382.831448 292.6082 
L 382.595783 292.6082 
L 382.242284 292.993136 
L 382.242284 293.378072 
L 382.242284 293.185604 
L 382.713615 292.800668 
L 382.595783 292.800668 
L 382.360117 292.800668 
L 382.124452 292.6082 
L 382.360117 292.993136 
L 382.360117 292.993136 
L 382.242284 293.185604 
L 382.006619 294.528067 
L 381.888786 294.145537 
L 382.124452 293.185604 
L 382.124452 293.568134 
L 382.006619 294.145537 
L 381.888786 293.760601 
L 381.888786 293.378072 
L 382.124452 293.378072 
L 382.124452 293.568134 
L 382.006619 293.953069 
L 382.006619 294.528067 
L 382.124452 294.913002 
L 382.124452 294.720535 
L 381.770954 294.528067 
L 381.299623 293.953069 
L 381.535288 293.760601 
L 381.653121 294.145537 
L 381.535288 293.953069 
L 381.417456 294.528067 
L 381.417456 294.528067 
L 381.417456 294.913002 
L 381.299623 295.488 
L 381.18179 295.488 
L 381.417456 295.10547 
L 381.653121 295.10547 
L 381.888786 295.297938 
L 381.888786 294.720535 
L 381.653121 294.720535 
L 381.18179 295.10547 
L 381.299623 295.297938 
L 381.535288 295.10547 
L 381.535288 294.720535 
L 381.417456 294.720535 
L 381.535288 294.338005 
L 381.299623 294.338005 
L 381.063958 294.913002 
L 381.18179 295.297938 
L 381.299623 295.297938 
L 381.299623 295.297938 
" style="fill:none;stroke:#1f77b4;stroke-linecap:square;stroke-width:1.5;"/>
   </g>
   <g id="matplotlib.axis_1">
    <g id="xtick_1">
     <g id="line2d_2">
      <defs>
       <path d="M 0 0 
L 0 3.5 
" id="m19de08a470" style="stroke:#000000;stroke-width:0.8;"/>
      </defs>
      <g>
       <use style="stroke:#000000;stroke-width:0.8;" x="89.545876" xlink:href="#m19de08a470" y="307.584"/>
      </g>
     </g>
     <g id="text_1">
      <!-- −600 -->
      <defs>
       <path d="M 10.59375 35.5 
L 73.1875 35.5 
L 73.1875 27.203125 
L 10.59375 27.203125 
z
" id="DejaVuSans-8722"/>
       <path d="M 33.015625 40.375 
Q 26.375 40.375 22.484375 35.828125 
Q 18.609375 31.296875 18.609375 23.390625 
Q 18.609375 15.53125 22.484375 10.953125 
Q 26.375 6.390625 33.015625 6.390625 
Q 39.65625 6.390625 43.53125 10.953125 
Q 47.40625 15.53125 47.40625 23.390625 
Q 47.40625 31.296875 43.53125 35.828125 
Q 39.65625 40.375 33.015625 40.375 
z
M 52.59375 71.296875 
L 52.59375 62.3125 
Q 48.875 64.0625 45.09375 64.984375 
Q 41.3125 65.921875 37.59375 65.921875 
Q 27.828125 65.921875 22.671875 59.328125 
Q 17.53125 52.734375 16.796875 39.40625 
Q 19.671875 43.65625 24.015625 45.921875 
Q 28.375 48.1875 33.59375 48.1875 
Q 44.578125 48.1875 50.953125 41.515625 
Q 57.328125 34.859375 57.328125 23.390625 
Q 57.328125 12.15625 50.6875 5.359375 
Q 44.046875 -1.421875 33.015625 -1.421875 
Q 20.359375 -1.421875 13.671875 8.265625 
Q 6.984375 17.96875 6.984375 36.375 
Q 6.984375 53.65625 15.1875 63.9375 
Q 23.390625 74.21875 37.203125 74.21875 
Q 40.921875 74.21875 44.703125 73.484375 
Q 48.484375 72.75 52.59375 71.296875 
z
" id="DejaVuSans-54"/>
       <path d="M 31.78125 66.40625 
Q 24.171875 66.40625 20.328125 58.90625 
Q 16.5 51.421875 16.5 36.375 
Q 16.5 21.390625 20.328125 13.890625 
Q 24.171875 6.390625 31.78125 6.390625 
Q 39.453125 6.390625 43.28125 13.890625 
Q 47.125 21.390625 47.125 36.375 
Q 47.125 51.421875 43.28125 58.90625 
Q 39.453125 66.40625 31.78125 66.40625 
z
M 31.78125 74.21875 
Q 44.046875 74.21875 50.515625 64.515625 
Q 56.984375 54.828125 56.984375 36.375 
Q 56.984375 17.96875 50.515625 8.265625 
Q 44.046875 -1.421875 31.78125 -1.421875 
Q 19.53125 -1.421875 13.0625 8.265625 
Q 6.59375 17.96875 6.59375 36.375 
Q 6.59375 54.828125 13.0625 64.515625 
Q 19.53125 74.21875 31.78125 74.21875 
z
" id="DejaVuSans-48"/>
      </defs>
      <g transform="translate(75.812282 322.182437)scale(0.1 -0.1)">
       <use xlink:href="#DejaVuSans-8722"/>
       <use x="83.789062" xlink:href="#DejaVuSans-54"/>
       <use x="147.412109" xlink:href="#DejaVuSans-48"/>
       <use x="211.035156" xlink:href="#DejaVuSans-48"/>
      </g>
     </g>
    </g>
    <g id="xtick_2">
     <g id="line2d_3">
      <g>
       <use style="stroke:#000000;stroke-width:0.8;" x="153.239223" xlink:href="#m19de08a470" y="307.584"/>
      </g>
     </g>
     <g id="text_2">
      <!-- −400 -->
      <defs>
       <path d="M 37.796875 64.3125 
L 12.890625 25.390625 
L 37.796875 25.390625 
z
M 35.203125 72.90625 
L 47.609375 72.90625 
L 47.609375 25.390625 
L 58.015625 25.390625 
L 58.015625 17.1875 
L 47.609375 17.1875 
L 47.609375 0 
L 37.796875 0 
L 37.796875 17.1875 
L 4.890625 17.1875 
L 4.890625 26.703125 
z
" id="DejaVuSans-52"/>
      </defs>
      <g transform="translate(139.50563 322.182437)scale(0.1 -0.1)">
       <use xlink:href="#DejaVuSans-8722"/>
       <use x="83.789062" xlink:href="#DejaVuSans-52"/>
       <use x="147.412109" xlink:href="#DejaVuSans-48"/>
       <use x="211.035156" xlink:href="#DejaVuSans-48"/>
      </g>
     </g>
    </g>
    <g id="xtick_3">
     <g id="line2d_4">
      <g>
       <use style="stroke:#000000;stroke-width:0.8;" x="216.932571" xlink:href="#m19de08a470" y="307.584"/>
      </g>
     </g>
     <g id="text_3">
      <!-- −200 -->
      <defs>
       <path d="M 19.1875 8.296875 
L 53.609375 8.296875 
L 53.609375 0 
L 7.328125 0 
L 7.328125 8.296875 
Q 12.9375 14.109375 22.625 23.890625 
Q 32.328125 33.6875 34.8125 36.53125 
Q 39.546875 41.84375 41.421875 45.53125 
Q 43.3125 49.21875 43.3125 52.78125 
Q 43.3125 58.59375 39.234375 62.25 
Q 35.15625 65.921875 28.609375 65.921875 
Q 23.96875 65.921875 18.8125 64.3125 
Q 13.671875 62.703125 7.8125 59.421875 
L 7.8125 69.390625 
Q 13.765625 71.78125 18.9375 73 
Q 24.125 74.21875 28.421875 74.21875 
Q 39.75 74.21875 46.484375 68.546875 
Q 53.21875 62.890625 53.21875 53.421875 
Q 53.21875 48.921875 51.53125 44.890625 
Q 49.859375 40.875 45.40625 35.40625 
Q 44.1875 33.984375 37.640625 27.21875 
Q 31.109375 20.453125 19.1875 8.296875 
z
" id="DejaVuSans-50"/>
      </defs>
      <g transform="translate(203.198977 322.182437)scale(0.1 -0.1)">
       <use xlink:href="#DejaVuSans-8722"/>
       <use x="83.789062" xlink:href="#DejaVuSans-50"/>
       <use x="147.412109" xlink:href="#DejaVuSans-48"/>
       <use x="211.035156" xlink:href="#DejaVuSans-48"/>
      </g>
     </g>
    </g>
    <g id="xtick_4">
     <g id="line2d_5">
      <g>
       <use style="stroke:#000000;stroke-width:0.8;" x="280.625918" xlink:href="#m19de08a470" y="307.584"/>
      </g>
     </g>
     <g id="text_4">
      <!-- 0 -->
      <g transform="translate(277.444668 322.182437)scale(0.1 -0.1)">
       <use xlink:href="#DejaVuSans-48"/>
      </g>
     </g>
    </g>
    <g id="xtick_5">
     <g id="line2d_6">
      <g>
       <use style="stroke:#000000;stroke-width:0.8;" x="344.319265" xlink:href="#m19de08a470" y="307.584"/>
      </g>
     </g>
     <g id="text_5">
      <!-- 200 -->
      <g transform="translate(334.775515 322.182437)scale(0.1 -0.1)">
       <use xlink:href="#DejaVuSans-50"/>
       <use x="63.623047" xlink:href="#DejaVuSans-48"/>
       <use x="127.246094" xlink:href="#DejaVuSans-48"/>
      </g>
     </g>
    </g>
    <g id="xtick_6">
     <g id="line2d_7">
      <g>
       <use style="stroke:#000000;stroke-width:0.8;" x="408.012613" xlink:href="#m19de08a470" y="307.584"/>
      </g>
     </g>
     <g id="text_6">
      <!-- 400 -->
      <g transform="translate(398.468863 322.182437)scale(0.1 -0.1)">
       <use xlink:href="#DejaVuSans-52"/>
       <use x="63.623047" xlink:href="#DejaVuSans-48"/>
       <use x="127.246094" xlink:href="#DejaVuSans-48"/>
      </g>
     </g>
    </g>
   </g>
   <g id="matplotlib.axis_2">
    <g id="ytick_1">
     <g id="line2d_8">
      <defs>
       <path d="M 0 0 
L -3.5 0 
" id="m10fcac9d49" style="stroke:#000000;stroke-width:0.8;"/>
      </defs>
      <g>
       <use style="stroke:#000000;stroke-width:0.8;" x="57.6" xlink:href="#m10fcac9d49" y="302.21475"/>
      </g>
     </g>
     <g id="text_7">
      <!-- −400 -->
      <g transform="translate(23.132812 306.013968)scale(0.1 -0.1)">
       <use xlink:href="#DejaVuSans-8722"/>
       <use x="83.789062" xlink:href="#DejaVuSans-52"/>
       <use x="147.412109" xlink:href="#DejaVuSans-48"/>
       <use x="211.035156" xlink:href="#DejaVuSans-48"/>
      </g>
     </g>
    </g>
    <g id="ytick_2">
     <g id="line2d_9">
      <g>
       <use style="stroke:#000000;stroke-width:0.8;" x="57.6" xlink:href="#m10fcac9d49" y="254.097799"/>
      </g>
     </g>
     <g id="text_8">
      <!-- −200 -->
      <g transform="translate(23.132812 257.897018)scale(0.1 -0.1)">
       <use xlink:href="#DejaVuSans-8722"/>
       <use x="83.789062" xlink:href="#DejaVuSans-50"/>
       <use x="147.412109" xlink:href="#DejaVuSans-48"/>
       <use x="211.035156" xlink:href="#DejaVuSans-48"/>
      </g>
     </g>
    </g>
    <g id="ytick_3">
     <g id="line2d_10">
      <g>
       <use style="stroke:#000000;stroke-width:0.8;" x="57.6" xlink:href="#m10fcac9d49" y="205.980848"/>
      </g>
     </g>
     <g id="text_9">
      <!-- 0 -->
      <g transform="translate(44.2375 209.780067)scale(0.1 -0.1)">
       <use xlink:href="#DejaVuSans-48"/>
      </g>
     </g>
    </g>
    <g id="ytick_4">
     <g id="line2d_11">
      <g>
       <use style="stroke:#000000;stroke-width:0.8;" x="57.6" xlink:href="#m10fcac9d49" y="157.863897"/>
      </g>
     </g>
     <g id="text_10">
      <!-- 200 -->
      <g transform="translate(31.5125 161.663116)scale(0.1 -0.1)">
       <use xlink:href="#DejaVuSans-50"/>
       <use x="63.623047" xlink:href="#DejaVuSans-48"/>
       <use x="127.246094" xlink:href="#DejaVuSans-48"/>
      </g>
     </g>
    </g>
    <g id="ytick_5">
     <g id="line2d_12">
      <g>
       <use style="stroke:#000000;stroke-width:0.8;" x="57.6" xlink:href="#m10fcac9d49" y="109.746946"/>
      </g>
     </g>
     <g id="text_11">
      <!-- 400 -->
      <g transform="translate(31.5125 113.546165)scale(0.1 -0.1)">
       <use xlink:href="#DejaVuSans-52"/>
       <use x="63.623047" xlink:href="#DejaVuSans-48"/>
       <use x="127.246094" xlink:href="#DejaVuSans-48"/>
      </g>
     </g>
    </g>
    <g id="ytick_6">
     <g id="line2d_13">
      <g>
       <use style="stroke:#000000;stroke-width:0.8;" x="57.6" xlink:href="#m10fcac9d49" y="61.629995"/>
      </g>
     </g>
     <g id="text_12">
      <!-- 600 -->
      <g transform="translate(31.5125 65.429214)scale(0.1 -0.1)">
       <use xlink:href="#DejaVuSans-54"/>
       <use x="63.623047" xlink:href="#DejaVuSans-48"/>
       <use x="127.246094" xlink:href="#DejaVuSans-48"/>
      </g>
     </g>
    </g>
   </g>
   <g id="line2d_14">
    <path clip-path="url(#p158385187b)" d="M 75.924651 56.334349 
L 281.625506 214.593805 
L 368.682284 265.774245 
L 197.448015 262.939289 
L 178.741249 268.719092 
L 301.220793 220.920255 
L 311.177296 221.863957 
L 391.171764 278.257342 
L 383.852985 291.576675 
" style="fill:none;stroke:#ff0000;stroke-linecap:square;stroke-width:0.5;"/>
   </g>
   <g id="patch_3">
    <path d="M 57.6 307.584 
L 57.6 41.472 
" style="fill:none;stroke:#000000;stroke-linecap:square;stroke-linejoin:miter;stroke-width:0.8;"/>
   </g>
   <g id="patch_4">
    <path d="M 414.72 307.584 
L 414.72 41.472 
" style="fill:none;stroke:#000000;stroke-linecap:square;stroke-linejoin:miter;stroke-width:0.8;"/>
   </g>
   <g id="patch_5">
    <path d="M 57.6 307.584 
L 414.72 307.584 
" style="fill:none;stroke:#000000;stroke-linecap:square;stroke-linejoin:miter;stroke-width:0.8;"/>
   </g>
   <g id="patch_6">
    <path d="M 57.6 41.472 
L 414.72 41.472 
" style="fill:none;stroke:#000000;stroke-linecap:square;stroke-linejoin:miter;stroke-width:0.8;"/>
   </g>
   <g id="PathCollection_1">
    <defs>
     <path d="M 0 2.738613 
C 0.726289 2.738613 1.422928 2.450055 1.936492 1.936492 
C 2.450055 1.422928 2.738613 0.726289 2.738613 0 
C 2.738613 -0.726289 2.450055 -1.422928 1.936492 -1.936492 
C 1.422928 -2.450055 0.726289 -2.738613 0 -2.738613 
C -0.726289 -2.738613 -1.422928 -2.450055 -1.936492 -1.936492 
C -2.450055 -1.422928 -2.738613 -0.726289 -2.738613 0 
C -2.738613 0.726289 -2.450055 1.422928 -1.936492 1.936492 
C -1.422928 2.450055 -0.726289 2.738613 0 2.738613 
z
" id="ma527e17df5" style="stroke:#ff0000;"/>
    </defs>
    <g clip-path="url(#p158385187b)">
     <use style="fill:#ff0000;stroke:#ff0000;" x="75.924651" xlink:href="#ma527e17df5" y="56.334349"/>
     <use style="fill:#ff0000;stroke:#ff0000;" x="281.625506" xlink:href="#ma527e17df5" y="214.593805"/>
     <use style="fill:#ff0000;stroke:#ff0000;" x="368.682284" xlink:href="#ma527e17df5" y="265.774245"/>
     <use style="fill:#ff0000;stroke:#ff0000;" x="197.448015" xlink:href="#ma527e17df5" y="262.939289"/>
     <use style="fill:#ff0000;stroke:#ff0000;" x="178.741249" xlink:href="#ma527e17df5" y="268.719092"/>
     <use style="fill:#ff0000;stroke:#ff0000;" x="301.220793" xlink:href="#ma527e17df5" y="220.920255"/>
     <use style="fill:#ff0000;stroke:#ff0000;" x="311.177296" xlink:href="#ma527e17df5" y="221.863957"/>
     <use style="fill:#ff0000;stroke:#ff0000;" x="391.171764" xlink:href="#ma527e17df5" y="278.257342"/>
     <use style="fill:#ff0000;stroke:#ff0000;" x="383.852985" xlink:href="#ma527e17df5" y="291.576675"/>
    </g>
   </g>
   <g id="text_13">
    <!-- (49) Subject: s17, Known = True, Degree = 1, Duration = 0.1 -->
    <defs>
     <path d="M 31 75.875 
Q 24.46875 64.65625 21.28125 53.65625 
Q 18.109375 42.671875 18.109375 31.390625 
Q 18.109375 20.125 21.3125 9.0625 
Q 24.515625 -2 31 -13.1875 
L 23.1875 -13.1875 
Q 15.875 -1.703125 12.234375 9.375 
Q 8.59375 20.453125 8.59375 31.390625 
Q 8.59375 42.28125 12.203125 53.3125 
Q 15.828125 64.359375 23.1875 75.875 
z
" id="DejaVuSans-40"/>
     <path d="M 10.984375 1.515625 
L 10.984375 10.5 
Q 14.703125 8.734375 18.5 7.8125 
Q 22.3125 6.890625 25.984375 6.890625 
Q 35.75 6.890625 40.890625 13.453125 
Q 46.046875 20.015625 46.78125 33.40625 
Q 43.953125 29.203125 39.59375 26.953125 
Q 35.25 24.703125 29.984375 24.703125 
Q 19.046875 24.703125 12.671875 31.3125 
Q 6.296875 37.9375 6.296875 49.421875 
Q 6.296875 60.640625 12.9375 67.421875 
Q 19.578125 74.21875 30.609375 74.21875 
Q 43.265625 74.21875 49.921875 64.515625 
Q 56.59375 54.828125 56.59375 36.375 
Q 56.59375 19.140625 48.40625 8.859375 
Q 40.234375 -1.421875 26.421875 -1.421875 
Q 22.703125 -1.421875 18.890625 -0.6875 
Q 15.09375 0.046875 10.984375 1.515625 
z
M 30.609375 32.421875 
Q 37.25 32.421875 41.125 36.953125 
Q 45.015625 41.5 45.015625 49.421875 
Q 45.015625 57.28125 41.125 61.84375 
Q 37.25 66.40625 30.609375 66.40625 
Q 23.96875 66.40625 20.09375 61.84375 
Q 16.21875 57.28125 16.21875 49.421875 
Q 16.21875 41.5 20.09375 36.953125 
Q 23.96875 32.421875 30.609375 32.421875 
z
" id="DejaVuSans-57"/>
     <path d="M 8.015625 75.875 
L 15.828125 75.875 
Q 23.140625 64.359375 26.78125 53.3125 
Q 30.421875 42.28125 30.421875 31.390625 
Q 30.421875 20.453125 26.78125 9.375 
Q 23.140625 -1.703125 15.828125 -13.1875 
L 8.015625 -13.1875 
Q 14.5 -2 17.703125 9.0625 
Q 20.90625 20.125 20.90625 31.390625 
Q 20.90625 42.671875 17.703125 53.65625 
Q 14.5 64.65625 8.015625 75.875 
z
" id="DejaVuSans-41"/>
     <path id="DejaVuSans-32"/>
     <path d="M 53.515625 70.515625 
L 53.515625 60.890625 
Q 47.90625 63.578125 42.921875 64.890625 
Q 37.9375 66.21875 33.296875 66.21875 
Q 25.25 66.21875 20.875 63.09375 
Q 16.5 59.96875 16.5 54.203125 
Q 16.5 49.359375 19.40625 46.890625 
Q 22.3125 44.4375 30.421875 42.921875 
L 36.375 41.703125 
Q 47.40625 39.59375 52.65625 34.296875 
Q 57.90625 29 57.90625 20.125 
Q 57.90625 9.515625 50.796875 4.046875 
Q 43.703125 -1.421875 29.984375 -1.421875 
Q 24.8125 -1.421875 18.96875 -0.25 
Q 13.140625 0.921875 6.890625 3.21875 
L 6.890625 13.375 
Q 12.890625 10.015625 18.65625 8.296875 
Q 24.421875 6.59375 29.984375 6.59375 
Q 38.421875 6.59375 43.015625 9.90625 
Q 47.609375 13.234375 47.609375 19.390625 
Q 47.609375 24.75 44.3125 27.78125 
Q 41.015625 30.8125 33.5 32.328125 
L 27.484375 33.5 
Q 16.453125 35.6875 11.515625 40.375 
Q 6.59375 45.0625 6.59375 53.421875 
Q 6.59375 63.09375 13.40625 68.65625 
Q 20.21875 74.21875 32.171875 74.21875 
Q 37.3125 74.21875 42.625 73.28125 
Q 47.953125 72.359375 53.515625 70.515625 
z
" id="DejaVuSans-83"/>
     <path d="M 8.5 21.578125 
L 8.5 54.6875 
L 17.484375 54.6875 
L 17.484375 21.921875 
Q 17.484375 14.15625 20.5 10.265625 
Q 23.53125 6.390625 29.59375 6.390625 
Q 36.859375 6.390625 41.078125 11.03125 
Q 45.3125 15.671875 45.3125 23.6875 
L 45.3125 54.6875 
L 54.296875 54.6875 
L 54.296875 0 
L 45.3125 0 
L 45.3125 8.40625 
Q 42.046875 3.421875 37.71875 1 
Q 33.40625 -1.421875 27.6875 -1.421875 
Q 18.265625 -1.421875 13.375 4.4375 
Q 8.5 10.296875 8.5 21.578125 
z
M 31.109375 56 
z
" id="DejaVuSans-117"/>
     <path d="M 48.6875 27.296875 
Q 48.6875 37.203125 44.609375 42.84375 
Q 40.53125 48.484375 33.40625 48.484375 
Q 26.265625 48.484375 22.1875 42.84375 
Q 18.109375 37.203125 18.109375 27.296875 
Q 18.109375 17.390625 22.1875 11.75 
Q 26.265625 6.109375 33.40625 6.109375 
Q 40.53125 6.109375 44.609375 11.75 
Q 48.6875 17.390625 48.6875 27.296875 
z
M 18.109375 46.390625 
Q 20.953125 51.265625 25.265625 53.625 
Q 29.59375 56 35.59375 56 
Q 45.5625 56 51.78125 48.09375 
Q 58.015625 40.1875 58.015625 27.296875 
Q 58.015625 14.40625 51.78125 6.484375 
Q 45.5625 -1.421875 35.59375 -1.421875 
Q 29.59375 -1.421875 25.265625 0.953125 
Q 20.953125 3.328125 18.109375 8.203125 
L 18.109375 0 
L 9.078125 0 
L 9.078125 75.984375 
L 18.109375 75.984375 
z
" id="DejaVuSans-98"/>
     <path d="M 9.421875 54.6875 
L 18.40625 54.6875 
L 18.40625 -0.984375 
Q 18.40625 -11.421875 14.421875 -16.109375 
Q 10.453125 -20.796875 1.609375 -20.796875 
L -1.8125 -20.796875 
L -1.8125 -13.1875 
L 0.59375 -13.1875 
Q 5.71875 -13.1875 7.5625 -10.8125 
Q 9.421875 -8.453125 9.421875 -0.984375 
z
M 9.421875 75.984375 
L 18.40625 75.984375 
L 18.40625 64.59375 
L 9.421875 64.59375 
z
" id="DejaVuSans-106"/>
     <path d="M 56.203125 29.59375 
L 56.203125 25.203125 
L 14.890625 25.203125 
Q 15.484375 15.921875 20.484375 11.0625 
Q 25.484375 6.203125 34.421875 6.203125 
Q 39.59375 6.203125 44.453125 7.46875 
Q 49.3125 8.734375 54.109375 11.28125 
L 54.109375 2.78125 
Q 49.265625 0.734375 44.1875 -0.34375 
Q 39.109375 -1.421875 33.890625 -1.421875 
Q 20.796875 -1.421875 13.15625 6.1875 
Q 5.515625 13.8125 5.515625 26.8125 
Q 5.515625 40.234375 12.765625 48.109375 
Q 20.015625 56 32.328125 56 
Q 43.359375 56 49.78125 48.890625 
Q 56.203125 41.796875 56.203125 29.59375 
z
M 47.21875 32.234375 
Q 47.125 39.59375 43.09375 43.984375 
Q 39.0625 48.390625 32.421875 48.390625 
Q 24.90625 48.390625 20.390625 44.140625 
Q 15.875 39.890625 15.1875 32.171875 
z
" id="DejaVuSans-101"/>
     <path d="M 48.78125 52.59375 
L 48.78125 44.1875 
Q 44.96875 46.296875 41.140625 47.34375 
Q 37.3125 48.390625 33.40625 48.390625 
Q 24.65625 48.390625 19.8125 42.84375 
Q 14.984375 37.3125 14.984375 27.296875 
Q 14.984375 17.28125 19.8125 11.734375 
Q 24.65625 6.203125 33.40625 6.203125 
Q 37.3125 6.203125 41.140625 7.25 
Q 44.96875 8.296875 48.78125 10.40625 
L 48.78125 2.09375 
Q 45.015625 0.34375 40.984375 -0.53125 
Q 36.96875 -1.421875 32.421875 -1.421875 
Q 20.0625 -1.421875 12.78125 6.34375 
Q 5.515625 14.109375 5.515625 27.296875 
Q 5.515625 40.671875 12.859375 48.328125 
Q 20.21875 56 33.015625 56 
Q 37.15625 56 41.109375 55.140625 
Q 45.0625 54.296875 48.78125 52.59375 
z
" id="DejaVuSans-99"/>
     <path d="M 18.3125 70.21875 
L 18.3125 54.6875 
L 36.8125 54.6875 
L 36.8125 47.703125 
L 18.3125 47.703125 
L 18.3125 18.015625 
Q 18.3125 11.328125 20.140625 9.421875 
Q 21.96875 7.515625 27.59375 7.515625 
L 36.8125 7.515625 
L 36.8125 0 
L 27.59375 0 
Q 17.1875 0 13.234375 3.875 
Q 9.28125 7.765625 9.28125 18.015625 
L 9.28125 47.703125 
L 2.6875 47.703125 
L 2.6875 54.6875 
L 9.28125 54.6875 
L 9.28125 70.21875 
z
" id="DejaVuSans-116"/>
     <path d="M 11.71875 12.40625 
L 22.015625 12.40625 
L 22.015625 0 
L 11.71875 0 
z
M 11.71875 51.703125 
L 22.015625 51.703125 
L 22.015625 39.3125 
L 11.71875 39.3125 
z
" id="DejaVuSans-58"/>
     <path d="M 44.28125 53.078125 
L 44.28125 44.578125 
Q 40.484375 46.53125 36.375 47.5 
Q 32.28125 48.484375 27.875 48.484375 
Q 21.1875 48.484375 17.84375 46.4375 
Q 14.5 44.390625 14.5 40.28125 
Q 14.5 37.15625 16.890625 35.375 
Q 19.28125 33.59375 26.515625 31.984375 
L 29.59375 31.296875 
Q 39.15625 29.25 43.1875 25.515625 
Q 47.21875 21.78125 47.21875 15.09375 
Q 47.21875 7.46875 41.1875 3.015625 
Q 35.15625 -1.421875 24.609375 -1.421875 
Q 20.21875 -1.421875 15.453125 -0.5625 
Q 10.6875 0.296875 5.421875 2 
L 5.421875 11.28125 
Q 10.40625 8.6875 15.234375 7.390625 
Q 20.0625 6.109375 24.8125 6.109375 
Q 31.15625 6.109375 34.5625 8.28125 
Q 37.984375 10.453125 37.984375 14.40625 
Q 37.984375 18.0625 35.515625 20.015625 
Q 33.0625 21.96875 24.703125 23.78125 
L 21.578125 24.515625 
Q 13.234375 26.265625 9.515625 29.90625 
Q 5.8125 33.546875 5.8125 39.890625 
Q 5.8125 47.609375 11.28125 51.796875 
Q 16.75 56 26.8125 56 
Q 31.78125 56 36.171875 55.265625 
Q 40.578125 54.546875 44.28125 53.078125 
z
" id="DejaVuSans-115"/>
     <path d="M 12.40625 8.296875 
L 28.515625 8.296875 
L 28.515625 63.921875 
L 10.984375 60.40625 
L 10.984375 69.390625 
L 28.421875 72.90625 
L 38.28125 72.90625 
L 38.28125 8.296875 
L 54.390625 8.296875 
L 54.390625 0 
L 12.40625 0 
z
" id="DejaVuSans-49"/>
     <path d="M 8.203125 72.90625 
L 55.078125 72.90625 
L 55.078125 68.703125 
L 28.609375 0 
L 18.3125 0 
L 43.21875 64.59375 
L 8.203125 64.59375 
z
" id="DejaVuSans-55"/>
     <path d="M 11.71875 12.40625 
L 22.015625 12.40625 
L 22.015625 4 
L 14.015625 -11.625 
L 7.71875 -11.625 
L 11.71875 4 
z
" id="DejaVuSans-44"/>
     <path d="M 9.8125 72.90625 
L 19.671875 72.90625 
L 19.671875 42.09375 
L 52.390625 72.90625 
L 65.09375 72.90625 
L 28.90625 38.921875 
L 67.671875 0 
L 54.6875 0 
L 19.671875 35.109375 
L 19.671875 0 
L 9.8125 0 
z
" id="DejaVuSans-75"/>
     <path d="M 54.890625 33.015625 
L 54.890625 0 
L 45.90625 0 
L 45.90625 32.71875 
Q 45.90625 40.484375 42.875 44.328125 
Q 39.84375 48.1875 33.796875 48.1875 
Q 26.515625 48.1875 22.3125 43.546875 
Q 18.109375 38.921875 18.109375 30.90625 
L 18.109375 0 
L 9.078125 0 
L 9.078125 54.6875 
L 18.109375 54.6875 
L 18.109375 46.1875 
Q 21.34375 51.125 25.703125 53.5625 
Q 30.078125 56 35.796875 56 
Q 45.21875 56 50.046875 50.171875 
Q 54.890625 44.34375 54.890625 33.015625 
z
" id="DejaVuSans-110"/>
     <path d="M 30.609375 48.390625 
Q 23.390625 48.390625 19.1875 42.75 
Q 14.984375 37.109375 14.984375 27.296875 
Q 14.984375 17.484375 19.15625 11.84375 
Q 23.34375 6.203125 30.609375 6.203125 
Q 37.796875 6.203125 41.984375 11.859375 
Q 46.1875 17.53125 46.1875 27.296875 
Q 46.1875 37.015625 41.984375 42.703125 
Q 37.796875 48.390625 30.609375 48.390625 
z
M 30.609375 56 
Q 42.328125 56 49.015625 48.375 
Q 55.71875 40.765625 55.71875 27.296875 
Q 55.71875 13.875 49.015625 6.21875 
Q 42.328125 -1.421875 30.609375 -1.421875 
Q 18.84375 -1.421875 12.171875 6.21875 
Q 5.515625 13.875 5.515625 27.296875 
Q 5.515625 40.765625 12.171875 48.375 
Q 18.84375 56 30.609375 56 
z
" id="DejaVuSans-111"/>
     <path d="M 4.203125 54.6875 
L 13.1875 54.6875 
L 24.421875 12.015625 
L 35.59375 54.6875 
L 46.1875 54.6875 
L 57.421875 12.015625 
L 68.609375 54.6875 
L 77.59375 54.6875 
L 63.28125 0 
L 52.6875 0 
L 40.921875 44.828125 
L 29.109375 0 
L 18.5 0 
z
" id="DejaVuSans-119"/>
     <path d="M 10.59375 45.40625 
L 73.1875 45.40625 
L 73.1875 37.203125 
L 10.59375 37.203125 
z
M 10.59375 25.484375 
L 73.1875 25.484375 
L 73.1875 17.1875 
L 10.59375 17.1875 
z
" id="DejaVuSans-61"/>
     <path d="M -0.296875 72.90625 
L 61.375 72.90625 
L 61.375 64.59375 
L 35.5 64.59375 
L 35.5 0 
L 25.59375 0 
L 25.59375 64.59375 
L -0.296875 64.59375 
z
" id="DejaVuSans-84"/>
     <path d="M 41.109375 46.296875 
Q 39.59375 47.171875 37.8125 47.578125 
Q 36.03125 48 33.890625 48 
Q 26.265625 48 22.1875 43.046875 
Q 18.109375 38.09375 18.109375 28.8125 
L 18.109375 0 
L 9.078125 0 
L 9.078125 54.6875 
L 18.109375 54.6875 
L 18.109375 46.1875 
Q 20.953125 51.171875 25.484375 53.578125 
Q 30.03125 56 36.53125 56 
Q 37.453125 56 38.578125 55.875 
Q 39.703125 55.765625 41.0625 55.515625 
z
" id="DejaVuSans-114"/>
     <path d="M 19.671875 64.796875 
L 19.671875 8.109375 
L 31.59375 8.109375 
Q 46.6875 8.109375 53.6875 14.9375 
Q 60.6875 21.78125 60.6875 36.53125 
Q 60.6875 51.171875 53.6875 57.984375 
Q 46.6875 64.796875 31.59375 64.796875 
z
M 9.8125 72.90625 
L 30.078125 72.90625 
Q 51.265625 72.90625 61.171875 64.09375 
Q 71.09375 55.28125 71.09375 36.53125 
Q 71.09375 17.671875 61.125 8.828125 
Q 51.171875 0 30.078125 0 
L 9.8125 0 
z
" id="DejaVuSans-68"/>
     <path d="M 45.40625 27.984375 
Q 45.40625 37.75 41.375 43.109375 
Q 37.359375 48.484375 30.078125 48.484375 
Q 22.859375 48.484375 18.828125 43.109375 
Q 14.796875 37.75 14.796875 27.984375 
Q 14.796875 18.265625 18.828125 12.890625 
Q 22.859375 7.515625 30.078125 7.515625 
Q 37.359375 7.515625 41.375 12.890625 
Q 45.40625 18.265625 45.40625 27.984375 
z
M 54.390625 6.78125 
Q 54.390625 -7.171875 48.1875 -13.984375 
Q 42 -20.796875 29.203125 -20.796875 
Q 24.46875 -20.796875 20.265625 -20.09375 
Q 16.0625 -19.390625 12.109375 -17.921875 
L 12.109375 -9.1875 
Q 16.0625 -11.328125 19.921875 -12.34375 
Q 23.78125 -13.375 27.78125 -13.375 
Q 36.625 -13.375 41.015625 -8.765625 
Q 45.40625 -4.15625 45.40625 5.171875 
L 45.40625 9.625 
Q 42.625 4.78125 38.28125 2.390625 
Q 33.9375 0 27.875 0 
Q 17.828125 0 11.671875 7.65625 
Q 5.515625 15.328125 5.515625 27.984375 
Q 5.515625 40.671875 11.671875 48.328125 
Q 17.828125 56 27.875 56 
Q 33.9375 56 38.28125 53.609375 
Q 42.625 51.21875 45.40625 46.390625 
L 45.40625 54.6875 
L 54.390625 54.6875 
z
" id="DejaVuSans-103"/>
     <path d="M 34.28125 27.484375 
Q 23.390625 27.484375 19.1875 25 
Q 14.984375 22.515625 14.984375 16.5 
Q 14.984375 11.71875 18.140625 8.90625 
Q 21.296875 6.109375 26.703125 6.109375 
Q 34.1875 6.109375 38.703125 11.40625 
Q 43.21875 16.703125 43.21875 25.484375 
L 43.21875 27.484375 
z
M 52.203125 31.203125 
L 52.203125 0 
L 43.21875 0 
L 43.21875 8.296875 
Q 40.140625 3.328125 35.546875 0.953125 
Q 30.953125 -1.421875 24.3125 -1.421875 
Q 15.921875 -1.421875 10.953125 3.296875 
Q 6 8.015625 6 15.921875 
Q 6 25.140625 12.171875 29.828125 
Q 18.359375 34.515625 30.609375 34.515625 
L 43.21875 34.515625 
L 43.21875 35.40625 
Q 43.21875 41.609375 39.140625 45 
Q 35.0625 48.390625 27.6875 48.390625 
Q 23 48.390625 18.546875 47.265625 
Q 14.109375 46.140625 10.015625 43.890625 
L 10.015625 52.203125 
Q 14.9375 54.109375 19.578125 55.046875 
Q 24.21875 56 28.609375 56 
Q 40.484375 56 46.34375 49.84375 
Q 52.203125 43.703125 52.203125 31.203125 
z
" id="DejaVuSans-97"/>
     <path d="M 9.421875 54.6875 
L 18.40625 54.6875 
L 18.40625 0 
L 9.421875 0 
z
M 9.421875 75.984375 
L 18.40625 75.984375 
L 18.40625 64.59375 
L 9.421875 64.59375 
z
" id="DejaVuSans-105"/>
     <path d="M 10.6875 12.40625 
L 21 12.40625 
L 21 0 
L 10.6875 0 
z
" id="DejaVuSans-46"/>
    </defs>
    <g transform="translate(51.733125 35.472)scale(0.12 -0.12)">
     <use xlink:href="#DejaVuSans-40"/>
     <use x="39.013672" xlink:href="#DejaVuSans-52"/>
     <use x="102.636719" xlink:href="#DejaVuSans-57"/>
     <use x="166.259766" xlink:href="#DejaVuSans-41"/>
     <use x="205.273438" xlink:href="#DejaVuSans-32"/>
     <use x="237.060547" xlink:href="#DejaVuSans-83"/>
     <use x="300.537109" xlink:href="#DejaVuSans-117"/>
     <use x="363.916016" xlink:href="#DejaVuSans-98"/>
     <use x="427.392578" xlink:href="#DejaVuSans-106"/>
     <use x="455.175781" xlink:href="#DejaVuSans-101"/>
     <use x="516.699219" xlink:href="#DejaVuSans-99"/>
     <use x="571.679688" xlink:href="#DejaVuSans-116"/>
     <use x="610.888672" xlink:href="#DejaVuSans-58"/>
     <use x="644.580078" xlink:href="#DejaVuSans-32"/>
     <use x="676.367188" xlink:href="#DejaVuSans-115"/>
     <use x="728.466797" xlink:href="#DejaVuSans-49"/>
     <use x="792.089844" xlink:href="#DejaVuSans-55"/>
     <use x="855.712891" xlink:href="#DejaVuSans-44"/>
     <use x="887.5" xlink:href="#DejaVuSans-32"/>
     <use x="919.287109" xlink:href="#DejaVuSans-75"/>
     <use x="984.863281" xlink:href="#DejaVuSans-110"/>
     <use x="1048.242188" xlink:href="#DejaVuSans-111"/>
     <use x="1109.423828" xlink:href="#DejaVuSans-119"/>
     <use x="1191.210938" xlink:href="#DejaVuSans-110"/>
     <use x="1254.589844" xlink:href="#DejaVuSans-32"/>
     <use x="1286.376953" xlink:href="#DejaVuSans-61"/>
     <use x="1370.166016" xlink:href="#DejaVuSans-32"/>
     <use x="1401.953125" xlink:href="#DejaVuSans-84"/>
     <use x="1462.818359" xlink:href="#DejaVuSans-114"/>
     <use x="1503.931641" xlink:href="#DejaVuSans-117"/>
     <use x="1567.310547" xlink:href="#DejaVuSans-101"/>
     <use x="1628.833984" xlink:href="#DejaVuSans-44"/>
     <use x="1660.621094" xlink:href="#DejaVuSans-32"/>
     <use x="1692.408203" xlink:href="#DejaVuSans-68"/>
     <use x="1769.410156" xlink:href="#DejaVuSans-101"/>
     <use x="1830.933594" xlink:href="#DejaVuSans-103"/>
     <use x="1894.410156" xlink:href="#DejaVuSans-114"/>
     <use x="1935.492188" xlink:href="#DejaVuSans-101"/>
     <use x="1997.015625" xlink:href="#DejaVuSans-101"/>
     <use x="2058.539062" xlink:href="#DejaVuSans-32"/>
     <use x="2090.326172" xlink:href="#DejaVuSans-61"/>
     <use x="2174.115234" xlink:href="#DejaVuSans-32"/>
     <use x="2205.902344" xlink:href="#DejaVuSans-49"/>
     <use x="2269.525391" xlink:href="#DejaVuSans-44"/>
     <use x="2301.3125" xlink:href="#DejaVuSans-32"/>
     <use x="2333.099609" xlink:href="#DejaVuSans-68"/>
     <use x="2410.101562" xlink:href="#DejaVuSans-117"/>
     <use x="2473.480469" xlink:href="#DejaVuSans-114"/>
     <use x="2514.59375" xlink:href="#DejaVuSans-97"/>
     <use x="2575.873047" xlink:href="#DejaVuSans-116"/>
     <use x="2615.082031" xlink:href="#DejaVuSans-105"/>
     <use x="2642.865234" xlink:href="#DejaVuSans-111"/>
     <use x="2704.046875" xlink:href="#DejaVuSans-110"/>
     <use x="2767.425781" xlink:href="#DejaVuSans-32"/>
     <use x="2799.212891" xlink:href="#DejaVuSans-61"/>
     <use x="2883.001953" xlink:href="#DejaVuSans-32"/>
     <use x="2914.789062" xlink:href="#DejaVuSans-48"/>
     <use x="2978.412109" xlink:href="#DejaVuSans-46"/>
     <use x="3010.199219" xlink:href="#DejaVuSans-49"/>
    </g>
   </g>
  </g>
 </g>
 <defs>
  <clipPath id="p158385187b">
   <rect height="266.112" width="357.12" x="57.6" y="41.472"/>
  </clipPath>
 </defs>
</svg>
