<?xml version="1.0" encoding="utf-8" standalone="no"?>
<!DOCTYPE svg PUBLIC "-//W3C//DTD SVG 1.1//EN"
  "http://www.w3.org/Graphics/SVG/1.1/DTD/svg11.dtd">
<!-- Created with matplotlib (https://matplotlib.org/) -->
<svg height="345.6pt" version="1.1" viewBox="0 0 460.8 345.6" width="460.8pt" xmlns="http://www.w3.org/2000/svg" xmlns:xlink="http://www.w3.org/1999/xlink">
 <defs>
  <style type="text/css">
*{stroke-linecap:butt;stroke-linejoin:round;}
  </style>
 </defs>
 <g id="figure_1">
  <g id="patch_1">
   <path d="M 0 345.6 
L 460.8 345.6 
L 460.8 0 
L 0 0 
z
" style="fill:#ffffff;"/>
  </g>
  <g id="axes_1">
   <g id="patch_2">
    <path d="M 57.6 307.584 
L 414.72 307.584 
L 414.72 41.472 
L 57.6 41.472 
z
" style="fill:#ffffff;"/>
   </g>
   <g id="line2d_1">
    <path clip-path="url(#p00d1e07f3c)" d="M 398.097247 55.206025 
L 398.29226 55.206025 
L 398.388168 55.042048 
L 398.193155 54.878071 
L 397.80313 55.042048 
L 397.608117 55.370001 
L 397.902235 55.206025 
L 398.29226 54.38614 
L 397.998143 54.222163 
L 398.29226 54.059931 
L 398.29226 54.059931 
L 398.29226 54.222163 
L 397.80313 54.222163 
L 397.80313 54.222163 
L 397.80313 53.895954 
L 397.998143 53.731977 
L 398.193155 53.895954 
L 398.097247 54.550117 
L 398.29226 54.222163 
L 398.487273 53.895954 
L 398.487273 54.059931 
L 398.487273 54.38614 
L 398.193155 54.878071 
L 398.193155 53.731977 
L 398.097247 54.059931 
L 397.902235 54.550117 
L 397.707222 54.222163 
L 397.902235 54.714094 
L 397.80313 54.714094 
L 397.998143 54.550117 
L 397.998143 54.38614 
L 397.902235 54.550117 
L 397.707222 54.550117 
L 397.902235 54.878071 
L 397.902235 54.878071 
L 398.097247 54.38614 
L 397.998143 54.222163 
L 397.902235 54.38614 
L 397.51221 53.895954 
L 397.413105 54.222163 
L 397.51221 54.38614 
L 397.707222 53.895954 
L 398.097247 54.714094 
L 397.902235 54.38614 
L 397.80313 54.38614 
L 397.902235 54.38614 
L 397.707222 54.878071 
L 397.707222 54.714094 
L 397.998143 54.714094 
L 398.193155 54.550117 
L 397.707222 53.895954 
L 397.51221 53.731977 
L 397.707222 53.895954 
L 397.80313 54.38614 
L 397.707222 54.550117 
L 397.998143 54.222163 
L 397.902235 53.895954 
L 397.51221 53.568 
L 397.413105 53.895954 
L 397.608117 54.550117 
L 397.707222 54.550117 
L 397.707222 54.714094 
L 397.413105 54.878071 
L 397.413105 54.878071 
L 397.608117 54.38614 
L 397.707222 53.731977 
L 397.608117 54.714094 
L 397.902235 54.878071 
L 397.80313 55.533978 
L 397.80313 55.206025 
L 397.707222 54.878071 
L 397.317197 55.206025 
L 397.51221 54.878071 
L 397.51221 54.550117 
L 397.317197 54.714094 
L 397.218092 55.042048 
L 397.413105 54.714094 
L 397.608117 54.550117 
L 397.707222 55.370001 
L 397.998143 55.370001 
L 397.80313 55.206025 
L 397.317197 55.370001 
L 397.902235 55.042048 
L 397.707222 55.370001 
L 397.317197 55.696211 
L 397.413105 55.370001 
L 397.122184 54.878071 
L 397.317197 54.878071 
L 397.51221 55.533978 
L 397.707222 55.696211 
L 397.80313 55.370001 
L 397.608117 55.696211 
L 397.608117 55.370001 
L 397.608117 56.188141 
L 397.707222 56.188141 
L 397.80313 56.516095 
L 397.608117 56.516095 
L 397.902235 56.516095 
L 397.998143 56.352118 
L 397.80313 56.516095 
L 397.80313 56.516095 
L 397.707222 56.516095 
L 397.218092 56.188141 
L 397.122184 56.844049 
L 397.218092 56.844049 
L 397.51221 56.188141 
L 397.413105 55.696211 
L 397.218092 55.533978 
L 397.122184 55.696211 
L 397.218092 56.188141 
L 396.927172 56.516095 
L 397.023079 56.680072 
L 397.218092 56.188141 
L 397.122184 55.860188 
L 396.828067 55.860188 
L 396.633054 56.024165 
L 396.828067 57.172003 
L 396.732159 57.008026 
L 396.537146 56.680072 
L 396.633054 56.680072 
L 397.023079 57.008026 
L 397.023079 57.172003 
L 396.927172 57.172003 
L 396.633054 56.844049 
L 396.438042 56.680072 
L 396.633054 57.498212 
L 396.342134 57.498212 
L 395.562083 57.172003 
L 395.462978 57.334235 
L 394.58702 56.844049 
L 393.707865 56.844049 
L 386.492397 57.826166 
L 381.617081 57.826166 
L 378.592786 58.318097 
L 375.277571 58.97226 
L 371.767344 59.792144 
L 364.842796 62.412286 
L 352.557 65.524358 
L 334.030799 69.456315 
L 329.251391 70.274455 
L 324.475179 71.420549 
L 319.695771 73.058573 
L 305.069823 78.464577 
L 300.194507 80.266579 
L 295.120981 81.902859 
L 290.149757 83.378651 
L 280.690046 86.980909 
L 271.524451 91.239075 
L 258.653617 97.299243 
L 254.363339 99.101244 
L 250.363981 100.903246 
L 246.559636 103.033201 
L 234.858878 110.403439 
L 227.058372 114.497628 
L 223.644052 116.135653 
L 220.622955 118.101631 
L 217.59866 119.903632 
L 209.018104 124.489752 
L 204.238696 127.765801 
L 201.898544 129.567803 
L 196.43819 134.480132 
L 194.878089 136.44611 
L 191.952899 141.360184 
L 190.587811 143.326162 
L 188.442672 145.946304 
L 187.566713 147.092397 
L 186.88257 148.730422 
L 186.492545 150.368446 
L 186.297533 152.170448 
L 186.006612 153.808472 
L 186.006612 155.28252 
L 186.59165 158.230615 
L 186.59165 159.540686 
L 186.201625 160.850757 
L 185.907507 162.324804 
L 185.811599 163.634875 
L 185.907507 164.782713 
L 185.811599 165.600854 
L 185.517482 166.256761 
L 185.421574 166.746947 
L 185.712495 168.712926 
L 185.421574 169.696787 
L 185.028352 170.514927 
L 184.932444 171.170835 
L 185.226561 171.497044 
L 185.226561 172.152952 
L 184.932444 172.807115 
L 184.638327 173.790976 
L 184.542419 174.609116 
L 184.638327 175.756955 
L 184.443314 175.756955 
L 184.443314 177.721188 
L 184.638327 177.721188 
L 184.542419 178.213119 
L 184.443314 178.70505 
L 184.737431 179.52319 
L 184.542419 180.015121 
L 184.932444 180.343074 
L 184.833339 180.833261 
L 184.833339 180.833261 
L 184.248301 181.489168 
L 184.737431 182.307308 
L 185.028352 182.143331 
L 185.226561 182.307308 
L 185.028352 182.471285 
L 184.638327 182.635262 
L 184.443314 182.471285 
L 184.638327 182.635262 
L 184.638327 183.455146 
L 184.248301 184.437263 
L 184.833339 184.10931 
L 184.932444 183.781356 
L 184.833339 183.945333 
L 184.347406 184.60124 
L 184.638327 184.10931 
L 184.638327 183.945333 
L 184.638327 184.437263 
L 184.443314 185.255403 
L 184.248301 185.583357 
L 184.053289 185.255403 
L 184.053289 184.929194 
L 184.443314 184.437263 
L 184.347406 185.093171 
L 184.053289 185.747334 
L 184.248301 186.567219 
L 184.347406 186.403242 
L 184.638327 186.403242 
L 184.737431 186.567219 
L 184.542419 186.567219 
L 184.152393 187.221382 
L 184.053289 187.713312 
L 184.248301 187.877289 
L 184.638327 187.713312 
L 184.737431 187.877289 
L 184.638327 188.041266 
L 184.347406 187.713312 
L 184.152393 187.877289 
L 183.957381 188.205243 
L 184.152393 188.531453 
L 184.542419 188.531453 
L 184.638327 188.367476 
L 184.542419 188.367476 
L 184.347406 188.367476 
L 184.443314 189.18736 
L 184.737431 189.515314 
L 184.737431 189.679291 
L 184.638327 189.515314 
L 184.347406 189.841523 
L 184.443314 190.333454 
L 184.638327 190.661408 
L 184.542419 190.497431 
L 184.152393 190.169477 
L 183.957381 190.169477 
L 184.248301 190.497431 
L 184.248301 190.497431 
L 184.248301 190.333454 
L 184.053289 190.169477 
L 184.053289 189.841523 
L 184.053289 190.333454 
L 183.957381 190.169477 
L 183.858276 190.0055 
L 183.858276 190.169477 
L 183.858276 190.661408 
L 183.468251 190.825385 
L 182.982318 191.153338 
L 182.6882 191.643525 
L 182.592292 194.919574 
L 182.298175 195.411504 
L 182.103162 196.065668 
L 182.007254 202.125835 
L 182.493188 203.76386 
L 183.372343 205.237907 
L 184.053289 206.057792 
L 184.833339 207.203886 
L 185.712495 208.84191 
L 186.297533 210.315958 
L 186.88257 211.299819 
L 187.761726 212.445913 
L 188.832697 213.592007 
L 189.711852 215.066054 
L 190.686915 216.212148 
L 193.122975 219.488197 
L 193.903026 221.126222 
L 194.392156 222.928223 
L 195.268114 226.858435 
L 196.342282 230.462438 
L 197.218241 234.884581 
L 197.317345 236.030675 
L 197.317345 237.34249 
L 197.023228 240.290586 
L 197.023228 241.436679 
L 196.537295 244.876705 
L 196.43819 247.496847 
L 196.342282 248.314987 
L 195.562232 250.772896 
L 195.658139 252.41092 
L 195.853152 254.048945 
L 195.757244 254.212922 
L 195.853152 254.703108 
L 195.658139 254.867085 
L 195.463127 255.195039 
L 195.562232 256.669086 
L 195.853152 256.99704 
L 195.952257 257.488971 
L 196.14727 257.488971 
L 196.048165 257.324994 
L 195.952257 257.488971 
L 195.952257 257.979157 
L 196.243177 258.471088 
L 196.048165 258.307111 
L 195.658139 258.307111 
L 195.562232 258.471088 
L 195.853152 258.635065 
L 196.537295 258.307111 
L 196.43819 258.471088 
L 196.342282 258.799042 
L 196.537295 259.125251 
L 196.828215 259.289228 
L 196.92732 259.125251 
L 196.828215 258.799042 
L 196.633203 258.799042 
L 196.828215 258.799042 
L 196.732307 258.963018 
L 196.43819 258.963018 
L 196.43819 258.799042 
L 196.732307 258.635065 
L 197.413253 258.635065 
L 197.707371 258.799042 
L 197.608266 258.963018 
L 197.413253 258.963018 
L 197.218241 259.125251 
L 197.317345 259.617182 
L 197.803279 259.781159 
L 197.707371 259.289228 
L 197.803279 258.963018 
L 197.902383 259.125251 
L 197.803279 260.437066 
L 197.608266 260.601043 
L 197.512358 260.601043 
L 197.803279 259.945135 
L 197.998291 259.781159 
L 197.902383 260.109112 
L 198.097396 260.437066 
L 198.388316 260.437066 
L 198.388316 260.273089 
L 198.388316 261.911114 
L 198.583329 261.911114 
L 198.583329 261.419183 
L 198.292409 261.58316 
L 198.487421 261.419183 
L 198.583329 261.419183 
L 198.583329 261.747137 
L 198.583329 261.58316 
L 198.778342 262.075091 
L 199.168367 262.565277 
L 198.973354 263.057208 
L 199.072459 262.729254 
L 199.072459 262.237323 
L 199.168367 262.565277 
L 199.36338 262.893231 
L 199.558392 262.565277 
L 199.462484 262.729254 
L 199.267472 262.729254 
L 199.657497 262.729254 
L 199.948418 263.057208 
L 199.753405 262.565277 
L 199.36338 262.075091 
L 198.388316 262.075091 
L 197.902383 261.747137 
L 196.92732 261.419183 
L 195.367219 261.419183 
L 193.22208 261.747137 
L 190.782823 261.747137 
L 185.517482 261.091229 
L 182.493188 261.091229 
L 179.277077 260.763275 
L 176.05777 260.273089 
L 172.742555 259.617182 
L 169.037315 259.289228 
L 158.60254 258.799042 
L 154.8973 258.799042 
L 143.196542 259.289228 
L 131.30077 259.289228 
L 127.496425 259.453205 
L 123.695277 260.109112 
L 115.795667 261.091229 
L 108.580199 262.893231 
L 105.165879 263.713115 
L 98.145424 264.695232 
L 94.929314 264.859209 
L 91.805915 265.349395 
L 80.984312 267.643327 
L 75.133932 269.935515 
L 74.158869 270.7554 
L 74.059764 270.919376 
L 74.059764 271.411307 
L 74.353882 272.06547 
L 74.743907 272.06547 
L 74.839815 271.901493 
L 74.839815 272.06547 
L 74.839815 272.557401 
L 75.71897 273.375541 
L 75.619865 274.359402 
L 75.133932 276.323636 
L 74.839815 276.979544 
L 74.839815 277.471475 
L 74.644802 277.633707 
L 74.644802 277.961661 
L 75.22984 278.617568 
L 75.034827 279.271732 
L 75.133932 279.599685 
L 75.328945 279.599685 
L 75.424853 279.435708 
L 75.523958 279.763662 
L 75.424853 280.583547 
L 75.22984 280.255593 
L 75.034827 280.41957 
L 74.839815 281.23771 
L 74.93892 281.729641 
L 75.328945 282.057594 
L 75.523958 282.057594 
L 75.424853 281.893617 
L 75.133932 282.547781 
L 74.839815 283.203688 
L 74.839815 284.513759 
L 74.644802 284.513759 
L 74.353882 284.677736 
L 74.353882 285.169667 
L 74.839815 285.495876 
L 75.328945 285.659853 
L 75.619865 286.151784 
L 75.619865 286.479737 
L 75.034827 286.969924 
L 75.034827 287.297877 
L 75.133932 287.1339 
L 75.22984 286.807691 
L 75.22984 286.969924 
L 75.523958 287.297877 
L 75.424853 287.625831 
L 75.034827 288.117762 
L 75.523958 288.443971 
L 75.619865 288.935902 
L 75.22984 289.427833 
L 75.133932 289.263856 
L 75.22984 289.427833 
L 75.22984 289.755786 
L 74.93892 290.40995 
L 75.328945 290.737903 
L 75.22984 290.737903 
L 74.93892 290.737903 
L 74.839815 292.047974 
L 74.743907 292.375928 
L 74.839815 292.375928 
L 74.93892 292.703882 
L 74.353882 292.703882 
L 74.353882 293.030091 
L 74.839815 292.703882 
L 74.743907 292.703882 
L 74.743907 294.013952 
L 74.839815 294.013952 
L 75.034827 294.013952 
L 75.133932 294.341906 
L 74.839815 293.685999 
L 74.644802 293.522022 
L 74.644802 293.685999 
L 74.644802 293.685999 
L 74.839815 293.522022 
L 75.034827 293.685999 
L 75.034827 294.177929 
L 74.93892 294.177929 
L 74.743907 294.341906 
L 74.644802 294.177929 
L 74.644802 294.177929 
L 74.44979 294.177929 
L 74.743907 294.177929 
L 74.548894 294.341906 
L 74.548894 294.341906 
L 75.133932 294.341906 
L 75.034827 294.341906 
L 74.743907 294.505883 
L 74.353882 295.324023 
L 74.44979 295.160046 
L 74.44979 294.832092 
L 74.44979 295.324023 
L 74.548894 295.160046 
L 74.743907 294.505883 
L 74.839815 294.832092 
L 74.743907 295.160046 
L 74.44979 295.324023 
L 74.644802 295.324023 
L 74.743907 295.488 
L 74.839815 294.341906 
L 74.93892 294.668116 
L 74.839815 294.832092 
L 74.839815 294.668116 
L 74.644802 294.341906 
L 74.644802 294.668116 
L 74.644802 294.013952 
L 74.839815 294.177929 
L 75.034827 294.505883 
L 75.133932 294.341906 
L 75.034827 294.177929 
L 75.034827 294.341906 
L 74.93892 294.505883 
L 74.548894 293.685999 
L 74.644802 294.013952 
L 75.133932 293.685999 
L 75.034827 293.685999 
L 75.22984 293.522022 
L 75.424853 293.522022 
L 75.523958 293.685999 
L 75.523958 293.685999 
L 75.523958 293.358045 
L 76.009891 293.030091 
L 75.913983 293.194068 
L 75.619865 293.358045 
L 75.22984 293.358045 
L 75.133932 293.194068 
L 75.22984 293.030091 
L 75.523958 292.867859 
L 75.814878 293.030091 
L 75.814878 293.194068 
L 76.009891 293.358045 
L 76.204903 293.358045 
L 76.204903 293.194068 
L 75.913983 292.539905 
L 75.814878 292.867859 
L 75.913983 293.358045 
L 75.913983 293.194068 
L 76.789941 291.72002 
L 76.984954 290.081996 
L 77.084059 288.935902 
L 77.374979 287.789808 
L 77.960017 286.31576 
L 80.984312 279.763662 
L 84.104514 273.703495 
L 85.760523 270.099492 
L 89.465763 262.565277 
L 93.756041 255.031062 
L 98.340437 246.022799 
L 100.875601 242.092587 
L 103.704883 237.996653 
L 106.825085 233.738487 
L 110.041195 229.152368 
L 119.209986 214.738101 
L 131.30077 198.3596 
L 139.980431 185.41938 
L 147.780937 174.282907 
L 152.461241 166.746947 
L 154.702287 163.634875 
L 159.286683 157.902662 
L 161.52773 155.28252 
L 165.7221 151.678517 
L 171.767492 144.308279 
L 172.06161 143.980325 
L 172.35253 143.816348 
L 172.646648 143.490139 
L 172.646648 143.816348 
L 171.671584 145.126419 
L 171.671584 145.126419 
L 171.671584 145.454373 
L 171.866597 145.782327 
L 172.06161 145.782327 
L 172.157517 145.61835 
L 172.157517 145.782327 
L 172.742555 145.782327 
L 172.84166 145.946304 
L 172.84166 145.946304 
L 172.84166 144.144302 
L 172.937568 144.472256 
L 173.036673 144.636233 
L 173.036673 144.472256 
L 173.036673 143.162185 
L 173.036673 144.636233 
L 173.132581 143.490139 
L 173.231685 143.816348 
L 172.937568 142.670255 
L 173.132581 142.834231 
L 173.426698 143.816348 
L 173.327593 143.816348 
L 173.132581 143.490139 
L 173.426698 143.980325 
L 172.937568 144.636233 
L 173.231685 144.964187 
L 173.327593 144.636233 
L 173.231685 144.472256 
L 173.327593 144.472256 
L 173.426698 144.472256 
L 173.231685 144.80021 
L 172.742555 145.126419 
L 172.937568 145.126419 
L 173.132581 145.454373 
L 173.036673 146.438234 
L 173.231685 146.11028 
L 173.426698 146.11028 
L 173.522606 145.946304 
L 173.231685 146.274257 
L 173.231685 146.274257 
L 173.231685 146.11028 
L 173.132581 146.438234 
L 172.937568 146.764444 
L 172.937568 146.602211 
L 173.036673 145.946304 
L 173.231685 146.11028 
L 173.426698 146.928421 
L 173.426698 147.420351 
L 173.231685 147.584328 
L 172.937568 146.928421 
L 172.937568 146.928421 
L 173.036673 146.928421 
L 173.036673 147.256374 
L 173.426698 147.748305 
L 173.621711 147.584328 
L 173.621711 147.420351 
L 173.327593 147.420351 
L 173.231685 147.256374 
L 173.621711 147.912282 
L 173.426698 148.076259 
L 173.036673 148.238491 
L 172.937568 148.402468 
L 173.231685 148.402468 
L 173.327593 147.748305 
L 173.231685 147.420351 
L 173.327593 147.584328 
L 173.231685 147.912282 
L 173.036673 148.076259 
L 173.327593 148.730422 
L 173.036673 148.402468 
L 173.231685 148.730422 
L 173.132581 148.894399 
L 172.84166 148.730422 
L 173.132581 149.38633 
L 173.231685 150.368446 
L 173.231685 150.368446 
L 173.132581 150.20447 
L 173.231685 150.368446 
L 173.327593 149.712539 
L 173.036673 149.712539 
L 172.742555 150.040493 
L 172.937568 150.368446 
L 173.036673 151.350563 
L 172.937568 151.188331 
L 172.742555 151.188331 
L 172.742555 151.51454 
L 173.036673 151.678517 
L 173.132581 151.51454 
L 173.132581 151.188331 
L 173.132581 152.006471 
L 173.327593 151.678517 
L 173.816723 151.188331 
L 174.401761 150.860377 
L 174.887694 150.368446 
L 175.571837 150.040493 
L 176.447796 150.368446 
L 177.521964 150.532423 
L 180.153036 150.532423 
L 181.812242 150.860377 
L 183.372343 151.51454 
L 184.932444 152.824611 
L 186.492545 154.300403 
L 188.442672 155.610474 
L 190.197785 157.084522 
L 195.658139 163.144689 
L 197.512358 165.600854 
L 199.462484 167.730809 
L 201.607624 169.368833 
L 203.55775 171.497044 
L 206.968873 176.575095 
L 208.922196 178.869027 
L 211.262348 181.325191 
L 213.503395 184.273287 
L 215.648534 187.385359 
L 219.842904 192.627386 
L 222.083951 195.247528 
L 224.22909 198.031646 
L 228.129343 204.091813 
L 234.078827 211.626028 
L 235.833941 213.592007 
L 239.443273 217.19601 
L 240.808362 218.834034 
L 241.783425 220.472059 
L 242.563475 222.436293 
L 244.123577 227.022412 
L 245.293652 229.808275 
L 246.268716 233.738487 
L 246.463728 235.540489 
L 246.364624 238.324607 
L 246.169611 239.962632 
L 245.779586 241.92861 
L 245.488665 244.384775 
L 245.194548 248.806918 
L 244.414497 252.902851 
L 244.123577 257.651203 
L 243.928564 258.799042 
L 243.928564 259.617182 
L 244.123577 259.945135 
L 244.219484 260.437066 
L 244.024472 261.58316 
L 243.244421 272.229447 
L 243.343526 272.721378 
L 243.244421 273.703495 
L 243.148513 273.867472 
L 243.244421 274.031449 
L 243.244421 275.669473 
L 243.538539 276.65159 
L 243.439434 276.65159 
L 243.343526 277.307498 
L 242.854396 278.453592 
L 242.854396 278.945522 
L 243.244421 279.271732 
L 243.538539 280.41957 
L 243.343526 280.091616 
L 243.049409 280.255593 
L 243.049409 280.909756 
L 243.439434 281.565664 
L 243.439434 282.057594 
L 243.634447 282.547781 
L 244.024472 282.711758 
L 244.318589 282.547781 
L 244.318589 282.383804 
L 244.414497 282.711758 
L 244.60951 282.875734 
L 244.60951 282.875734 
L 244.513602 283.695619 
L 244.414497 283.695619 
L 244.60951 283.531642 
L 244.513602 284.513759 
L 244.414497 284.841713 
L 244.414497 284.841713 
L 244.708615 284.513759 
L 244.60951 284.677736 
L 244.708615 285.331899 
L 244.804522 285.331899 
L 244.804522 285.331899 
L 244.903627 285.495876 
L 244.804522 285.659853 
L 244.804522 285.659853 
" style="fill:none;stroke:#1f77b4;stroke-linecap:square;stroke-width:1.5;"/>
   </g>
   <g id="matplotlib.axis_1">
    <g id="xtick_1">
     <g id="line2d_2">
      <defs>
       <path d="M 0 0 
L 0 3.5 
" id="mfe9a94d081" style="stroke:#000000;stroke-width:0.8;"/>
      </defs>
      <g>
       <use style="stroke:#000000;stroke-width:0.8;" x="62.97921" xlink:href="#mfe9a94d081" y="307.584"/>
      </g>
     </g>
     <g id="text_1">
      <!-- −400 -->
      <defs>
       <path d="M 10.59375 35.5 
L 73.1875 35.5 
L 73.1875 27.203125 
L 10.59375 27.203125 
z
" id="DejaVuSans-8722"/>
       <path d="M 37.796875 64.3125 
L 12.890625 25.390625 
L 37.796875 25.390625 
z
M 35.203125 72.90625 
L 47.609375 72.90625 
L 47.609375 25.390625 
L 58.015625 25.390625 
L 58.015625 17.1875 
L 47.609375 17.1875 
L 47.609375 0 
L 37.796875 0 
L 37.796875 17.1875 
L 4.890625 17.1875 
L 4.890625 26.703125 
z
" id="DejaVuSans-52"/>
       <path d="M 31.78125 66.40625 
Q 24.171875 66.40625 20.328125 58.90625 
Q 16.5 51.421875 16.5 36.375 
Q 16.5 21.390625 20.328125 13.890625 
Q 24.171875 6.390625 31.78125 6.390625 
Q 39.453125 6.390625 43.28125 13.890625 
Q 47.125 21.390625 47.125 36.375 
Q 47.125 51.421875 43.28125 58.90625 
Q 39.453125 66.40625 31.78125 66.40625 
z
M 31.78125 74.21875 
Q 44.046875 74.21875 50.515625 64.515625 
Q 56.984375 54.828125 56.984375 36.375 
Q 56.984375 17.96875 50.515625 8.265625 
Q 44.046875 -1.421875 31.78125 -1.421875 
Q 19.53125 -1.421875 13.0625 8.265625 
Q 6.59375 17.96875 6.59375 36.375 
Q 6.59375 54.828125 13.0625 64.515625 
Q 19.53125 74.21875 31.78125 74.21875 
z
" id="DejaVuSans-48"/>
      </defs>
      <g transform="translate(49.245616 322.182437)scale(0.1 -0.1)">
       <use xlink:href="#DejaVuSans-8722"/>
       <use x="83.789062" xlink:href="#DejaVuSans-52"/>
       <use x="147.412109" xlink:href="#DejaVuSans-48"/>
       <use x="211.035156" xlink:href="#DejaVuSans-48"/>
      </g>
     </g>
    </g>
    <g id="xtick_2">
     <g id="line2d_3">
      <g>
       <use style="stroke:#000000;stroke-width:0.8;" x="126.917781" xlink:href="#mfe9a94d081" y="307.584"/>
      </g>
     </g>
     <g id="text_2">
      <!-- −200 -->
      <defs>
       <path d="M 19.1875 8.296875 
L 53.609375 8.296875 
L 53.609375 0 
L 7.328125 0 
L 7.328125 8.296875 
Q 12.9375 14.109375 22.625 23.890625 
Q 32.328125 33.6875 34.8125 36.53125 
Q 39.546875 41.84375 41.421875 45.53125 
Q 43.3125 49.21875 43.3125 52.78125 
Q 43.3125 58.59375 39.234375 62.25 
Q 35.15625 65.921875 28.609375 65.921875 
Q 23.96875 65.921875 18.8125 64.3125 
Q 13.671875 62.703125 7.8125 59.421875 
L 7.8125 69.390625 
Q 13.765625 71.78125 18.9375 73 
Q 24.125 74.21875 28.421875 74.21875 
Q 39.75 74.21875 46.484375 68.546875 
Q 53.21875 62.890625 53.21875 53.421875 
Q 53.21875 48.921875 51.53125 44.890625 
Q 49.859375 40.875 45.40625 35.40625 
Q 44.1875 33.984375 37.640625 27.21875 
Q 31.109375 20.453125 19.1875 8.296875 
z
" id="DejaVuSans-50"/>
      </defs>
      <g transform="translate(113.184188 322.182437)scale(0.1 -0.1)">
       <use xlink:href="#DejaVuSans-8722"/>
       <use x="83.789062" xlink:href="#DejaVuSans-50"/>
       <use x="147.412109" xlink:href="#DejaVuSans-48"/>
       <use x="211.035156" xlink:href="#DejaVuSans-48"/>
      </g>
     </g>
    </g>
    <g id="xtick_3">
     <g id="line2d_4">
      <g>
       <use style="stroke:#000000;stroke-width:0.8;" x="190.856353" xlink:href="#mfe9a94d081" y="307.584"/>
      </g>
     </g>
     <g id="text_3">
      <!-- 0 -->
      <g transform="translate(187.675103 322.182437)scale(0.1 -0.1)">
       <use xlink:href="#DejaVuSans-48"/>
      </g>
     </g>
    </g>
    <g id="xtick_4">
     <g id="line2d_5">
      <g>
       <use style="stroke:#000000;stroke-width:0.8;" x="254.794924" xlink:href="#mfe9a94d081" y="307.584"/>
      </g>
     </g>
     <g id="text_4">
      <!-- 200 -->
      <g transform="translate(245.251174 322.182437)scale(0.1 -0.1)">
       <use xlink:href="#DejaVuSans-50"/>
       <use x="63.623047" xlink:href="#DejaVuSans-48"/>
       <use x="127.246094" xlink:href="#DejaVuSans-48"/>
      </g>
     </g>
    </g>
    <g id="xtick_5">
     <g id="line2d_6">
      <g>
       <use style="stroke:#000000;stroke-width:0.8;" x="318.733496" xlink:href="#mfe9a94d081" y="307.584"/>
      </g>
     </g>
     <g id="text_5">
      <!-- 400 -->
      <g transform="translate(309.189746 322.182437)scale(0.1 -0.1)">
       <use xlink:href="#DejaVuSans-52"/>
       <use x="63.623047" xlink:href="#DejaVuSans-48"/>
       <use x="127.246094" xlink:href="#DejaVuSans-48"/>
      </g>
     </g>
    </g>
    <g id="xtick_6">
     <g id="line2d_7">
      <g>
       <use style="stroke:#000000;stroke-width:0.8;" x="382.672067" xlink:href="#mfe9a94d081" y="307.584"/>
      </g>
     </g>
     <g id="text_6">
      <!-- 600 -->
      <defs>
       <path d="M 33.015625 40.375 
Q 26.375 40.375 22.484375 35.828125 
Q 18.609375 31.296875 18.609375 23.390625 
Q 18.609375 15.53125 22.484375 10.953125 
Q 26.375 6.390625 33.015625 6.390625 
Q 39.65625 6.390625 43.53125 10.953125 
Q 47.40625 15.53125 47.40625 23.390625 
Q 47.40625 31.296875 43.53125 35.828125 
Q 39.65625 40.375 33.015625 40.375 
z
M 52.59375 71.296875 
L 52.59375 62.3125 
Q 48.875 64.0625 45.09375 64.984375 
Q 41.3125 65.921875 37.59375 65.921875 
Q 27.828125 65.921875 22.671875 59.328125 
Q 17.53125 52.734375 16.796875 39.40625 
Q 19.671875 43.65625 24.015625 45.921875 
Q 28.375 48.1875 33.59375 48.1875 
Q 44.578125 48.1875 50.953125 41.515625 
Q 57.328125 34.859375 57.328125 23.390625 
Q 57.328125 12.15625 50.6875 5.359375 
Q 44.046875 -1.421875 33.015625 -1.421875 
Q 20.359375 -1.421875 13.671875 8.265625 
Q 6.984375 17.96875 6.984375 36.375 
Q 6.984375 53.65625 15.1875 63.9375 
Q 23.390625 74.21875 37.203125 74.21875 
Q 40.921875 74.21875 44.703125 73.484375 
Q 48.484375 72.75 52.59375 71.296875 
z
" id="DejaVuSans-54"/>
      </defs>
      <g transform="translate(373.128317 322.182437)scale(0.1 -0.1)">
       <use xlink:href="#DejaVuSans-54"/>
       <use x="63.623047" xlink:href="#DejaVuSans-48"/>
       <use x="127.246094" xlink:href="#DejaVuSans-48"/>
      </g>
     </g>
    </g>
   </g>
   <g id="matplotlib.axis_2">
    <g id="ytick_1">
     <g id="line2d_8">
      <defs>
       <path d="M 0 0 
L -3.5 0 
" id="mf53927e33d" style="stroke:#000000;stroke-width:0.8;"/>
      </defs>
      <g>
       <use style="stroke:#000000;stroke-width:0.8;" x="57.6" xlink:href="#mf53927e33d" y="279.561308"/>
      </g>
     </g>
     <g id="text_7">
      <!-- −400 -->
      <g transform="translate(23.132812 283.360527)scale(0.1 -0.1)">
       <use xlink:href="#DejaVuSans-8722"/>
       <use x="83.789062" xlink:href="#DejaVuSans-52"/>
       <use x="147.412109" xlink:href="#DejaVuSans-48"/>
       <use x="211.035156" xlink:href="#DejaVuSans-48"/>
      </g>
     </g>
    </g>
    <g id="ytick_2">
     <g id="line2d_9">
      <g>
       <use style="stroke:#000000;stroke-width:0.8;" x="57.6" xlink:href="#mf53927e33d" y="244.672606"/>
      </g>
     </g>
     <g id="text_8">
      <!-- −200 -->
      <g transform="translate(23.132812 248.471825)scale(0.1 -0.1)">
       <use xlink:href="#DejaVuSans-8722"/>
       <use x="83.789062" xlink:href="#DejaVuSans-50"/>
       <use x="147.412109" xlink:href="#DejaVuSans-48"/>
       <use x="211.035156" xlink:href="#DejaVuSans-48"/>
      </g>
     </g>
    </g>
    <g id="ytick_3">
     <g id="line2d_10">
      <g>
       <use style="stroke:#000000;stroke-width:0.8;" x="57.6" xlink:href="#mf53927e33d" y="209.783905"/>
      </g>
     </g>
     <g id="text_9">
      <!-- 0 -->
      <g transform="translate(44.2375 213.583124)scale(0.1 -0.1)">
       <use xlink:href="#DejaVuSans-48"/>
      </g>
     </g>
    </g>
    <g id="ytick_4">
     <g id="line2d_11">
      <g>
       <use style="stroke:#000000;stroke-width:0.8;" x="57.6" xlink:href="#mf53927e33d" y="174.895204"/>
      </g>
     </g>
     <g id="text_10">
      <!-- 200 -->
      <g transform="translate(31.5125 178.694422)scale(0.1 -0.1)">
       <use xlink:href="#DejaVuSans-50"/>
       <use x="63.623047" xlink:href="#DejaVuSans-48"/>
       <use x="127.246094" xlink:href="#DejaVuSans-48"/>
      </g>
     </g>
    </g>
    <g id="ytick_5">
     <g id="line2d_12">
      <g>
       <use style="stroke:#000000;stroke-width:0.8;" x="57.6" xlink:href="#mf53927e33d" y="140.006502"/>
      </g>
     </g>
     <g id="text_11">
      <!-- 400 -->
      <g transform="translate(31.5125 143.805721)scale(0.1 -0.1)">
       <use xlink:href="#DejaVuSans-52"/>
       <use x="63.623047" xlink:href="#DejaVuSans-48"/>
       <use x="127.246094" xlink:href="#DejaVuSans-48"/>
      </g>
     </g>
    </g>
    <g id="ytick_6">
     <g id="line2d_13">
      <g>
       <use style="stroke:#000000;stroke-width:0.8;" x="57.6" xlink:href="#mf53927e33d" y="105.117801"/>
      </g>
     </g>
     <g id="text_12">
      <!-- 600 -->
      <g transform="translate(31.5125 108.91702)scale(0.1 -0.1)">
       <use xlink:href="#DejaVuSans-54"/>
       <use x="63.623047" xlink:href="#DejaVuSans-48"/>
       <use x="127.246094" xlink:href="#DejaVuSans-48"/>
      </g>
     </g>
    </g>
    <g id="ytick_7">
     <g id="line2d_14">
      <g>
       <use style="stroke:#000000;stroke-width:0.8;" x="57.6" xlink:href="#mf53927e33d" y="70.229099"/>
      </g>
     </g>
     <g id="text_13">
      <!-- 800 -->
      <defs>
       <path d="M 31.78125 34.625 
Q 24.75 34.625 20.71875 30.859375 
Q 16.703125 27.09375 16.703125 20.515625 
Q 16.703125 13.921875 20.71875 10.15625 
Q 24.75 6.390625 31.78125 6.390625 
Q 38.8125 6.390625 42.859375 10.171875 
Q 46.921875 13.96875 46.921875 20.515625 
Q 46.921875 27.09375 42.890625 30.859375 
Q 38.875 34.625 31.78125 34.625 
z
M 21.921875 38.8125 
Q 15.578125 40.375 12.03125 44.71875 
Q 8.5 49.078125 8.5 55.328125 
Q 8.5 64.0625 14.71875 69.140625 
Q 20.953125 74.21875 31.78125 74.21875 
Q 42.671875 74.21875 48.875 69.140625 
Q 55.078125 64.0625 55.078125 55.328125 
Q 55.078125 49.078125 51.53125 44.71875 
Q 48 40.375 41.703125 38.8125 
Q 48.828125 37.15625 52.796875 32.3125 
Q 56.78125 27.484375 56.78125 20.515625 
Q 56.78125 9.90625 50.3125 4.234375 
Q 43.84375 -1.421875 31.78125 -1.421875 
Q 19.734375 -1.421875 13.25 4.234375 
Q 6.78125 9.90625 6.78125 20.515625 
Q 6.78125 27.484375 10.78125 32.3125 
Q 14.796875 37.15625 21.921875 38.8125 
z
M 18.3125 54.390625 
Q 18.3125 48.734375 21.84375 45.5625 
Q 25.390625 42.390625 31.78125 42.390625 
Q 38.140625 42.390625 41.71875 45.5625 
Q 45.3125 48.734375 45.3125 54.390625 
Q 45.3125 60.0625 41.71875 63.234375 
Q 38.140625 66.40625 31.78125 66.40625 
Q 25.390625 66.40625 21.84375 63.234375 
Q 18.3125 60.0625 18.3125 54.390625 
z
" id="DejaVuSans-56"/>
      </defs>
      <g transform="translate(31.5125 74.028318)scale(0.1 -0.1)">
       <use xlink:href="#DejaVuSans-56"/>
       <use x="63.623047" xlink:href="#DejaVuSans-48"/>
       <use x="127.246094" xlink:href="#DejaVuSans-48"/>
      </g>
     </g>
    </g>
   </g>
   <g id="line2d_15">
    <path clip-path="url(#p00d1e07f3c)" d="M 396.631728 55.37357 
L 184.625165 181.589245 
L 197.162266 257.31867 
L 75.146342 282.572155 
L 75.438958 292.958463 
L 172.948456 147.238711 
" style="fill:none;stroke:#ff0000;stroke-linecap:square;stroke-width:0.5;"/>
   </g>
   <g id="patch_3">
    <path d="M 57.6 307.584 
L 57.6 41.472 
" style="fill:none;stroke:#000000;stroke-linecap:square;stroke-linejoin:miter;stroke-width:0.8;"/>
   </g>
   <g id="patch_4">
    <path d="M 414.72 307.584 
L 414.72 41.472 
" style="fill:none;stroke:#000000;stroke-linecap:square;stroke-linejoin:miter;stroke-width:0.8;"/>
   </g>
   <g id="patch_5">
    <path d="M 57.6 307.584 
L 414.72 307.584 
" style="fill:none;stroke:#000000;stroke-linecap:square;stroke-linejoin:miter;stroke-width:0.8;"/>
   </g>
   <g id="patch_6">
    <path d="M 57.6 41.472 
L 414.72 41.472 
" style="fill:none;stroke:#000000;stroke-linecap:square;stroke-linejoin:miter;stroke-width:0.8;"/>
   </g>
   <g id="PathCollection_1">
    <defs>
     <path d="M 0 2.738613 
C 0.726289 2.738613 1.422928 2.450055 1.936492 1.936492 
C 2.450055 1.422928 2.738613 0.726289 2.738613 0 
C 2.738613 -0.726289 2.450055 -1.422928 1.936492 -1.936492 
C 1.422928 -2.450055 0.726289 -2.738613 0 -2.738613 
C -0.726289 -2.738613 -1.422928 -2.450055 -1.936492 -1.936492 
C -2.450055 -1.422928 -2.738613 -0.726289 -2.738613 0 
C -2.738613 0.726289 -2.450055 1.422928 -1.936492 1.936492 
C -1.422928 2.450055 -0.726289 2.738613 0 2.738613 
z
" id="m6f826d8039" style="stroke:#ff0000;"/>
    </defs>
    <g clip-path="url(#p00d1e07f3c)">
     <use style="fill:#ff0000;stroke:#ff0000;" x="396.631728" xlink:href="#m6f826d8039" y="55.37357"/>
     <use style="fill:#ff0000;stroke:#ff0000;" x="184.625165" xlink:href="#m6f826d8039" y="181.589245"/>
     <use style="fill:#ff0000;stroke:#ff0000;" x="197.162266" xlink:href="#m6f826d8039" y="257.31867"/>
     <use style="fill:#ff0000;stroke:#ff0000;" x="75.146342" xlink:href="#m6f826d8039" y="282.572155"/>
     <use style="fill:#ff0000;stroke:#ff0000;" x="75.438958" xlink:href="#m6f826d8039" y="292.958463"/>
     <use style="fill:#ff0000;stroke:#ff0000;" x="172.948456" xlink:href="#m6f826d8039" y="147.238711"/>
    </g>
   </g>
   <g id="text_14">
    <!-- (57) Subject: s27, Known = True, Degree = 1, Duration = 0.1 -->
    <defs>
     <path d="M 31 75.875 
Q 24.46875 64.65625 21.28125 53.65625 
Q 18.109375 42.671875 18.109375 31.390625 
Q 18.109375 20.125 21.3125 9.0625 
Q 24.515625 -2 31 -13.1875 
L 23.1875 -13.1875 
Q 15.875 -1.703125 12.234375 9.375 
Q 8.59375 20.453125 8.59375 31.390625 
Q 8.59375 42.28125 12.203125 53.3125 
Q 15.828125 64.359375 23.1875 75.875 
z
" id="DejaVuSans-40"/>
     <path d="M 10.796875 72.90625 
L 49.515625 72.90625 
L 49.515625 64.59375 
L 19.828125 64.59375 
L 19.828125 46.734375 
Q 21.96875 47.46875 24.109375 47.828125 
Q 26.265625 48.1875 28.421875 48.1875 
Q 40.625 48.1875 47.75 41.5 
Q 54.890625 34.8125 54.890625 23.390625 
Q 54.890625 11.625 47.5625 5.09375 
Q 40.234375 -1.421875 26.90625 -1.421875 
Q 22.3125 -1.421875 17.546875 -0.640625 
Q 12.796875 0.140625 7.71875 1.703125 
L 7.71875 11.625 
Q 12.109375 9.234375 16.796875 8.0625 
Q 21.484375 6.890625 26.703125 6.890625 
Q 35.15625 6.890625 40.078125 11.328125 
Q 45.015625 15.765625 45.015625 23.390625 
Q 45.015625 31 40.078125 35.4375 
Q 35.15625 39.890625 26.703125 39.890625 
Q 22.75 39.890625 18.8125 39.015625 
Q 14.890625 38.140625 10.796875 36.28125 
z
" id="DejaVuSans-53"/>
     <path d="M 8.203125 72.90625 
L 55.078125 72.90625 
L 55.078125 68.703125 
L 28.609375 0 
L 18.3125 0 
L 43.21875 64.59375 
L 8.203125 64.59375 
z
" id="DejaVuSans-55"/>
     <path d="M 8.015625 75.875 
L 15.828125 75.875 
Q 23.140625 64.359375 26.78125 53.3125 
Q 30.421875 42.28125 30.421875 31.390625 
Q 30.421875 20.453125 26.78125 9.375 
Q 23.140625 -1.703125 15.828125 -13.1875 
L 8.015625 -13.1875 
Q 14.5 -2 17.703125 9.0625 
Q 20.90625 20.125 20.90625 31.390625 
Q 20.90625 42.671875 17.703125 53.65625 
Q 14.5 64.65625 8.015625 75.875 
z
" id="DejaVuSans-41"/>
     <path id="DejaVuSans-32"/>
     <path d="M 53.515625 70.515625 
L 53.515625 60.890625 
Q 47.90625 63.578125 42.921875 64.890625 
Q 37.9375 66.21875 33.296875 66.21875 
Q 25.25 66.21875 20.875 63.09375 
Q 16.5 59.96875 16.5 54.203125 
Q 16.5 49.359375 19.40625 46.890625 
Q 22.3125 44.4375 30.421875 42.921875 
L 36.375 41.703125 
Q 47.40625 39.59375 52.65625 34.296875 
Q 57.90625 29 57.90625 20.125 
Q 57.90625 9.515625 50.796875 4.046875 
Q 43.703125 -1.421875 29.984375 -1.421875 
Q 24.8125 -1.421875 18.96875 -0.25 
Q 13.140625 0.921875 6.890625 3.21875 
L 6.890625 13.375 
Q 12.890625 10.015625 18.65625 8.296875 
Q 24.421875 6.59375 29.984375 6.59375 
Q 38.421875 6.59375 43.015625 9.90625 
Q 47.609375 13.234375 47.609375 19.390625 
Q 47.609375 24.75 44.3125 27.78125 
Q 41.015625 30.8125 33.5 32.328125 
L 27.484375 33.5 
Q 16.453125 35.6875 11.515625 40.375 
Q 6.59375 45.0625 6.59375 53.421875 
Q 6.59375 63.09375 13.40625 68.65625 
Q 20.21875 74.21875 32.171875 74.21875 
Q 37.3125 74.21875 42.625 73.28125 
Q 47.953125 72.359375 53.515625 70.515625 
z
" id="DejaVuSans-83"/>
     <path d="M 8.5 21.578125 
L 8.5 54.6875 
L 17.484375 54.6875 
L 17.484375 21.921875 
Q 17.484375 14.15625 20.5 10.265625 
Q 23.53125 6.390625 29.59375 6.390625 
Q 36.859375 6.390625 41.078125 11.03125 
Q 45.3125 15.671875 45.3125 23.6875 
L 45.3125 54.6875 
L 54.296875 54.6875 
L 54.296875 0 
L 45.3125 0 
L 45.3125 8.40625 
Q 42.046875 3.421875 37.71875 1 
Q 33.40625 -1.421875 27.6875 -1.421875 
Q 18.265625 -1.421875 13.375 4.4375 
Q 8.5 10.296875 8.5 21.578125 
z
M 31.109375 56 
z
" id="DejaVuSans-117"/>
     <path d="M 48.6875 27.296875 
Q 48.6875 37.203125 44.609375 42.84375 
Q 40.53125 48.484375 33.40625 48.484375 
Q 26.265625 48.484375 22.1875 42.84375 
Q 18.109375 37.203125 18.109375 27.296875 
Q 18.109375 17.390625 22.1875 11.75 
Q 26.265625 6.109375 33.40625 6.109375 
Q 40.53125 6.109375 44.609375 11.75 
Q 48.6875 17.390625 48.6875 27.296875 
z
M 18.109375 46.390625 
Q 20.953125 51.265625 25.265625 53.625 
Q 29.59375 56 35.59375 56 
Q 45.5625 56 51.78125 48.09375 
Q 58.015625 40.1875 58.015625 27.296875 
Q 58.015625 14.40625 51.78125 6.484375 
Q 45.5625 -1.421875 35.59375 -1.421875 
Q 29.59375 -1.421875 25.265625 0.953125 
Q 20.953125 3.328125 18.109375 8.203125 
L 18.109375 0 
L 9.078125 0 
L 9.078125 75.984375 
L 18.109375 75.984375 
z
" id="DejaVuSans-98"/>
     <path d="M 9.421875 54.6875 
L 18.40625 54.6875 
L 18.40625 -0.984375 
Q 18.40625 -11.421875 14.421875 -16.109375 
Q 10.453125 -20.796875 1.609375 -20.796875 
L -1.8125 -20.796875 
L -1.8125 -13.1875 
L 0.59375 -13.1875 
Q 5.71875 -13.1875 7.5625 -10.8125 
Q 9.421875 -8.453125 9.421875 -0.984375 
z
M 9.421875 75.984375 
L 18.40625 75.984375 
L 18.40625 64.59375 
L 9.421875 64.59375 
z
" id="DejaVuSans-106"/>
     <path d="M 56.203125 29.59375 
L 56.203125 25.203125 
L 14.890625 25.203125 
Q 15.484375 15.921875 20.484375 11.0625 
Q 25.484375 6.203125 34.421875 6.203125 
Q 39.59375 6.203125 44.453125 7.46875 
Q 49.3125 8.734375 54.109375 11.28125 
L 54.109375 2.78125 
Q 49.265625 0.734375 44.1875 -0.34375 
Q 39.109375 -1.421875 33.890625 -1.421875 
Q 20.796875 -1.421875 13.15625 6.1875 
Q 5.515625 13.8125 5.515625 26.8125 
Q 5.515625 40.234375 12.765625 48.109375 
Q 20.015625 56 32.328125 56 
Q 43.359375 56 49.78125 48.890625 
Q 56.203125 41.796875 56.203125 29.59375 
z
M 47.21875 32.234375 
Q 47.125 39.59375 43.09375 43.984375 
Q 39.0625 48.390625 32.421875 48.390625 
Q 24.90625 48.390625 20.390625 44.140625 
Q 15.875 39.890625 15.1875 32.171875 
z
" id="DejaVuSans-101"/>
     <path d="M 48.78125 52.59375 
L 48.78125 44.1875 
Q 44.96875 46.296875 41.140625 47.34375 
Q 37.3125 48.390625 33.40625 48.390625 
Q 24.65625 48.390625 19.8125 42.84375 
Q 14.984375 37.3125 14.984375 27.296875 
Q 14.984375 17.28125 19.8125 11.734375 
Q 24.65625 6.203125 33.40625 6.203125 
Q 37.3125 6.203125 41.140625 7.25 
Q 44.96875 8.296875 48.78125 10.40625 
L 48.78125 2.09375 
Q 45.015625 0.34375 40.984375 -0.53125 
Q 36.96875 -1.421875 32.421875 -1.421875 
Q 20.0625 -1.421875 12.78125 6.34375 
Q 5.515625 14.109375 5.515625 27.296875 
Q 5.515625 40.671875 12.859375 48.328125 
Q 20.21875 56 33.015625 56 
Q 37.15625 56 41.109375 55.140625 
Q 45.0625 54.296875 48.78125 52.59375 
z
" id="DejaVuSans-99"/>
     <path d="M 18.3125 70.21875 
L 18.3125 54.6875 
L 36.8125 54.6875 
L 36.8125 47.703125 
L 18.3125 47.703125 
L 18.3125 18.015625 
Q 18.3125 11.328125 20.140625 9.421875 
Q 21.96875 7.515625 27.59375 7.515625 
L 36.8125 7.515625 
L 36.8125 0 
L 27.59375 0 
Q 17.1875 0 13.234375 3.875 
Q 9.28125 7.765625 9.28125 18.015625 
L 9.28125 47.703125 
L 2.6875 47.703125 
L 2.6875 54.6875 
L 9.28125 54.6875 
L 9.28125 70.21875 
z
" id="DejaVuSans-116"/>
     <path d="M 11.71875 12.40625 
L 22.015625 12.40625 
L 22.015625 0 
L 11.71875 0 
z
M 11.71875 51.703125 
L 22.015625 51.703125 
L 22.015625 39.3125 
L 11.71875 39.3125 
z
" id="DejaVuSans-58"/>
     <path d="M 44.28125 53.078125 
L 44.28125 44.578125 
Q 40.484375 46.53125 36.375 47.5 
Q 32.28125 48.484375 27.875 48.484375 
Q 21.1875 48.484375 17.84375 46.4375 
Q 14.5 44.390625 14.5 40.28125 
Q 14.5 37.15625 16.890625 35.375 
Q 19.28125 33.59375 26.515625 31.984375 
L 29.59375 31.296875 
Q 39.15625 29.25 43.1875 25.515625 
Q 47.21875 21.78125 47.21875 15.09375 
Q 47.21875 7.46875 41.1875 3.015625 
Q 35.15625 -1.421875 24.609375 -1.421875 
Q 20.21875 -1.421875 15.453125 -0.5625 
Q 10.6875 0.296875 5.421875 2 
L 5.421875 11.28125 
Q 10.40625 8.6875 15.234375 7.390625 
Q 20.0625 6.109375 24.8125 6.109375 
Q 31.15625 6.109375 34.5625 8.28125 
Q 37.984375 10.453125 37.984375 14.40625 
Q 37.984375 18.0625 35.515625 20.015625 
Q 33.0625 21.96875 24.703125 23.78125 
L 21.578125 24.515625 
Q 13.234375 26.265625 9.515625 29.90625 
Q 5.8125 33.546875 5.8125 39.890625 
Q 5.8125 47.609375 11.28125 51.796875 
Q 16.75 56 26.8125 56 
Q 31.78125 56 36.171875 55.265625 
Q 40.578125 54.546875 44.28125 53.078125 
z
" id="DejaVuSans-115"/>
     <path d="M 11.71875 12.40625 
L 22.015625 12.40625 
L 22.015625 4 
L 14.015625 -11.625 
L 7.71875 -11.625 
L 11.71875 4 
z
" id="DejaVuSans-44"/>
     <path d="M 9.8125 72.90625 
L 19.671875 72.90625 
L 19.671875 42.09375 
L 52.390625 72.90625 
L 65.09375 72.90625 
L 28.90625 38.921875 
L 67.671875 0 
L 54.6875 0 
L 19.671875 35.109375 
L 19.671875 0 
L 9.8125 0 
z
" id="DejaVuSans-75"/>
     <path d="M 54.890625 33.015625 
L 54.890625 0 
L 45.90625 0 
L 45.90625 32.71875 
Q 45.90625 40.484375 42.875 44.328125 
Q 39.84375 48.1875 33.796875 48.1875 
Q 26.515625 48.1875 22.3125 43.546875 
Q 18.109375 38.921875 18.109375 30.90625 
L 18.109375 0 
L 9.078125 0 
L 9.078125 54.6875 
L 18.109375 54.6875 
L 18.109375 46.1875 
Q 21.34375 51.125 25.703125 53.5625 
Q 30.078125 56 35.796875 56 
Q 45.21875 56 50.046875 50.171875 
Q 54.890625 44.34375 54.890625 33.015625 
z
" id="DejaVuSans-110"/>
     <path d="M 30.609375 48.390625 
Q 23.390625 48.390625 19.1875 42.75 
Q 14.984375 37.109375 14.984375 27.296875 
Q 14.984375 17.484375 19.15625 11.84375 
Q 23.34375 6.203125 30.609375 6.203125 
Q 37.796875 6.203125 41.984375 11.859375 
Q 46.1875 17.53125 46.1875 27.296875 
Q 46.1875 37.015625 41.984375 42.703125 
Q 37.796875 48.390625 30.609375 48.390625 
z
M 30.609375 56 
Q 42.328125 56 49.015625 48.375 
Q 55.71875 40.765625 55.71875 27.296875 
Q 55.71875 13.875 49.015625 6.21875 
Q 42.328125 -1.421875 30.609375 -1.421875 
Q 18.84375 -1.421875 12.171875 6.21875 
Q 5.515625 13.875 5.515625 27.296875 
Q 5.515625 40.765625 12.171875 48.375 
Q 18.84375 56 30.609375 56 
z
" id="DejaVuSans-111"/>
     <path d="M 4.203125 54.6875 
L 13.1875 54.6875 
L 24.421875 12.015625 
L 35.59375 54.6875 
L 46.1875 54.6875 
L 57.421875 12.015625 
L 68.609375 54.6875 
L 77.59375 54.6875 
L 63.28125 0 
L 52.6875 0 
L 40.921875 44.828125 
L 29.109375 0 
L 18.5 0 
z
" id="DejaVuSans-119"/>
     <path d="M 10.59375 45.40625 
L 73.1875 45.40625 
L 73.1875 37.203125 
L 10.59375 37.203125 
z
M 10.59375 25.484375 
L 73.1875 25.484375 
L 73.1875 17.1875 
L 10.59375 17.1875 
z
" id="DejaVuSans-61"/>
     <path d="M -0.296875 72.90625 
L 61.375 72.90625 
L 61.375 64.59375 
L 35.5 64.59375 
L 35.5 0 
L 25.59375 0 
L 25.59375 64.59375 
L -0.296875 64.59375 
z
" id="DejaVuSans-84"/>
     <path d="M 41.109375 46.296875 
Q 39.59375 47.171875 37.8125 47.578125 
Q 36.03125 48 33.890625 48 
Q 26.265625 48 22.1875 43.046875 
Q 18.109375 38.09375 18.109375 28.8125 
L 18.109375 0 
L 9.078125 0 
L 9.078125 54.6875 
L 18.109375 54.6875 
L 18.109375 46.1875 
Q 20.953125 51.171875 25.484375 53.578125 
Q 30.03125 56 36.53125 56 
Q 37.453125 56 38.578125 55.875 
Q 39.703125 55.765625 41.0625 55.515625 
z
" id="DejaVuSans-114"/>
     <path d="M 19.671875 64.796875 
L 19.671875 8.109375 
L 31.59375 8.109375 
Q 46.6875 8.109375 53.6875 14.9375 
Q 60.6875 21.78125 60.6875 36.53125 
Q 60.6875 51.171875 53.6875 57.984375 
Q 46.6875 64.796875 31.59375 64.796875 
z
M 9.8125 72.90625 
L 30.078125 72.90625 
Q 51.265625 72.90625 61.171875 64.09375 
Q 71.09375 55.28125 71.09375 36.53125 
Q 71.09375 17.671875 61.125 8.828125 
Q 51.171875 0 30.078125 0 
L 9.8125 0 
z
" id="DejaVuSans-68"/>
     <path d="M 45.40625 27.984375 
Q 45.40625 37.75 41.375 43.109375 
Q 37.359375 48.484375 30.078125 48.484375 
Q 22.859375 48.484375 18.828125 43.109375 
Q 14.796875 37.75 14.796875 27.984375 
Q 14.796875 18.265625 18.828125 12.890625 
Q 22.859375 7.515625 30.078125 7.515625 
Q 37.359375 7.515625 41.375 12.890625 
Q 45.40625 18.265625 45.40625 27.984375 
z
M 54.390625 6.78125 
Q 54.390625 -7.171875 48.1875 -13.984375 
Q 42 -20.796875 29.203125 -20.796875 
Q 24.46875 -20.796875 20.265625 -20.09375 
Q 16.0625 -19.390625 12.109375 -17.921875 
L 12.109375 -9.1875 
Q 16.0625 -11.328125 19.921875 -12.34375 
Q 23.78125 -13.375 27.78125 -13.375 
Q 36.625 -13.375 41.015625 -8.765625 
Q 45.40625 -4.15625 45.40625 5.171875 
L 45.40625 9.625 
Q 42.625 4.78125 38.28125 2.390625 
Q 33.9375 0 27.875 0 
Q 17.828125 0 11.671875 7.65625 
Q 5.515625 15.328125 5.515625 27.984375 
Q 5.515625 40.671875 11.671875 48.328125 
Q 17.828125 56 27.875 56 
Q 33.9375 56 38.28125 53.609375 
Q 42.625 51.21875 45.40625 46.390625 
L 45.40625 54.6875 
L 54.390625 54.6875 
z
" id="DejaVuSans-103"/>
     <path d="M 12.40625 8.296875 
L 28.515625 8.296875 
L 28.515625 63.921875 
L 10.984375 60.40625 
L 10.984375 69.390625 
L 28.421875 72.90625 
L 38.28125 72.90625 
L 38.28125 8.296875 
L 54.390625 8.296875 
L 54.390625 0 
L 12.40625 0 
z
" id="DejaVuSans-49"/>
     <path d="M 34.28125 27.484375 
Q 23.390625 27.484375 19.1875 25 
Q 14.984375 22.515625 14.984375 16.5 
Q 14.984375 11.71875 18.140625 8.90625 
Q 21.296875 6.109375 26.703125 6.109375 
Q 34.1875 6.109375 38.703125 11.40625 
Q 43.21875 16.703125 43.21875 25.484375 
L 43.21875 27.484375 
z
M 52.203125 31.203125 
L 52.203125 0 
L 43.21875 0 
L 43.21875 8.296875 
Q 40.140625 3.328125 35.546875 0.953125 
Q 30.953125 -1.421875 24.3125 -1.421875 
Q 15.921875 -1.421875 10.953125 3.296875 
Q 6 8.015625 6 15.921875 
Q 6 25.140625 12.171875 29.828125 
Q 18.359375 34.515625 30.609375 34.515625 
L 43.21875 34.515625 
L 43.21875 35.40625 
Q 43.21875 41.609375 39.140625 45 
Q 35.0625 48.390625 27.6875 48.390625 
Q 23 48.390625 18.546875 47.265625 
Q 14.109375 46.140625 10.015625 43.890625 
L 10.015625 52.203125 
Q 14.9375 54.109375 19.578125 55.046875 
Q 24.21875 56 28.609375 56 
Q 40.484375 56 46.34375 49.84375 
Q 52.203125 43.703125 52.203125 31.203125 
z
" id="DejaVuSans-97"/>
     <path d="M 9.421875 54.6875 
L 18.40625 54.6875 
L 18.40625 0 
L 9.421875 0 
z
M 9.421875 75.984375 
L 18.40625 75.984375 
L 18.40625 64.59375 
L 9.421875 64.59375 
z
" id="DejaVuSans-105"/>
     <path d="M 10.6875 12.40625 
L 21 12.40625 
L 21 0 
L 10.6875 0 
z
" id="DejaVuSans-46"/>
    </defs>
    <g transform="translate(51.733125 35.472)scale(0.12 -0.12)">
     <use xlink:href="#DejaVuSans-40"/>
     <use x="39.013672" xlink:href="#DejaVuSans-53"/>
     <use x="102.636719" xlink:href="#DejaVuSans-55"/>
     <use x="166.259766" xlink:href="#DejaVuSans-41"/>
     <use x="205.273438" xlink:href="#DejaVuSans-32"/>
     <use x="237.060547" xlink:href="#DejaVuSans-83"/>
     <use x="300.537109" xlink:href="#DejaVuSans-117"/>
     <use x="363.916016" xlink:href="#DejaVuSans-98"/>
     <use x="427.392578" xlink:href="#DejaVuSans-106"/>
     <use x="455.175781" xlink:href="#DejaVuSans-101"/>
     <use x="516.699219" xlink:href="#DejaVuSans-99"/>
     <use x="571.679688" xlink:href="#DejaVuSans-116"/>
     <use x="610.888672" xlink:href="#DejaVuSans-58"/>
     <use x="644.580078" xlink:href="#DejaVuSans-32"/>
     <use x="676.367188" xlink:href="#DejaVuSans-115"/>
     <use x="728.466797" xlink:href="#DejaVuSans-50"/>
     <use x="792.089844" xlink:href="#DejaVuSans-55"/>
     <use x="855.712891" xlink:href="#DejaVuSans-44"/>
     <use x="887.5" xlink:href="#DejaVuSans-32"/>
     <use x="919.287109" xlink:href="#DejaVuSans-75"/>
     <use x="984.863281" xlink:href="#DejaVuSans-110"/>
     <use x="1048.242188" xlink:href="#DejaVuSans-111"/>
     <use x="1109.423828" xlink:href="#DejaVuSans-119"/>
     <use x="1191.210938" xlink:href="#DejaVuSans-110"/>
     <use x="1254.589844" xlink:href="#DejaVuSans-32"/>
     <use x="1286.376953" xlink:href="#DejaVuSans-61"/>
     <use x="1370.166016" xlink:href="#DejaVuSans-32"/>
     <use x="1401.953125" xlink:href="#DejaVuSans-84"/>
     <use x="1462.818359" xlink:href="#DejaVuSans-114"/>
     <use x="1503.931641" xlink:href="#DejaVuSans-117"/>
     <use x="1567.310547" xlink:href="#DejaVuSans-101"/>
     <use x="1628.833984" xlink:href="#DejaVuSans-44"/>
     <use x="1660.621094" xlink:href="#DejaVuSans-32"/>
     <use x="1692.408203" xlink:href="#DejaVuSans-68"/>
     <use x="1769.410156" xlink:href="#DejaVuSans-101"/>
     <use x="1830.933594" xlink:href="#DejaVuSans-103"/>
     <use x="1894.410156" xlink:href="#DejaVuSans-114"/>
     <use x="1935.492188" xlink:href="#DejaVuSans-101"/>
     <use x="1997.015625" xlink:href="#DejaVuSans-101"/>
     <use x="2058.539062" xlink:href="#DejaVuSans-32"/>
     <use x="2090.326172" xlink:href="#DejaVuSans-61"/>
     <use x="2174.115234" xlink:href="#DejaVuSans-32"/>
     <use x="2205.902344" xlink:href="#DejaVuSans-49"/>
     <use x="2269.525391" xlink:href="#DejaVuSans-44"/>
     <use x="2301.3125" xlink:href="#DejaVuSans-32"/>
     <use x="2333.099609" xlink:href="#DejaVuSans-68"/>
     <use x="2410.101562" xlink:href="#DejaVuSans-117"/>
     <use x="2473.480469" xlink:href="#DejaVuSans-114"/>
     <use x="2514.59375" xlink:href="#DejaVuSans-97"/>
     <use x="2575.873047" xlink:href="#DejaVuSans-116"/>
     <use x="2615.082031" xlink:href="#DejaVuSans-105"/>
     <use x="2642.865234" xlink:href="#DejaVuSans-111"/>
     <use x="2704.046875" xlink:href="#DejaVuSans-110"/>
     <use x="2767.425781" xlink:href="#DejaVuSans-32"/>
     <use x="2799.212891" xlink:href="#DejaVuSans-61"/>
     <use x="2883.001953" xlink:href="#DejaVuSans-32"/>
     <use x="2914.789062" xlink:href="#DejaVuSans-48"/>
     <use x="2978.412109" xlink:href="#DejaVuSans-46"/>
     <use x="3010.199219" xlink:href="#DejaVuSans-49"/>
    </g>
   </g>
  </g>
 </g>
 <defs>
  <clipPath id="p00d1e07f3c">
   <rect height="266.112" width="357.12" x="57.6" y="41.472"/>
  </clipPath>
 </defs>
</svg>
