<?xml version="1.0" encoding="utf-8" standalone="no"?>
<!DOCTYPE svg PUBLIC "-//W3C//DTD SVG 1.1//EN"
  "http://www.w3.org/Graphics/SVG/1.1/DTD/svg11.dtd">
<!-- Created with matplotlib (https://matplotlib.org/) -->
<svg height="345.6pt" version="1.1" viewBox="0 0 460.8 345.6" width="460.8pt" xmlns="http://www.w3.org/2000/svg" xmlns:xlink="http://www.w3.org/1999/xlink">
 <defs>
  <style type="text/css">
*{stroke-linecap:butt;stroke-linejoin:round;}
  </style>
 </defs>
 <g id="figure_1">
  <g id="patch_1">
   <path d="M 0 345.6 
L 460.8 345.6 
L 460.8 0 
L 0 0 
z
" style="fill:#ffffff;"/>
  </g>
  <g id="axes_1">
   <g id="patch_2">
    <path d="M 57.6 307.584 
L 414.72 307.584 
L 414.72 41.472 
L 57.6 41.472 
z
" style="fill:#ffffff;"/>
   </g>
   <g id="line2d_1">
    <path clip-path="url(#p8931b5432c)" d="M 74.44598 68.14304 
L 74.324091 68.14304 
L 74.44598 68.14304 
L 74.44598 68.478541 
L 74.202202 68.645375 
L 73.832727 68.478541 
L 74.324091 67.976206 
L 74.571678 67.976206 
L 74.324091 68.478541 
L 74.076505 68.14304 
L 73.954616 68.309874 
L 74.076505 68.814042 
L 74.076505 68.814042 
L 74.571678 68.478541 
L 74.571678 68.309874 
L 74.324091 68.14304 
L 74.076505 68.14304 
L 74.076505 67.976206 
L 74.202202 67.976206 
L 74.324091 67.807539 
L 74.202202 67.976206 
L 74.202202 68.309874 
L 74.324091 68.645375 
L 74.571678 68.645375 
L 75.063041 68.478541 
L 75.310628 68.14304 
L 75.432516 67.473872 
L 74.815455 68.309874 
L 74.571678 67.976206 
L 74.693566 67.640705 
L 74.941153 67.640705 
L 74.941153 67.976206 
L 74.571678 67.640705 
L 74.571678 68.14304 
L 74.815455 68.14304 
L 75.063041 67.976206 
L 75.063041 68.14304 
L 74.693566 68.478541 
L 74.941153 68.14304 
L 74.941153 67.807539 
L 74.815455 67.473872 
L 74.815455 67.640705 
L 74.693566 67.976206 
L 74.815455 67.473872 
L 74.693566 67.640705 
L 74.202202 66.969704 
L 74.44598 67.138371 
L 74.44598 66.969704 
L 74.076505 66.969704 
L 74.076505 66.969704 
L 74.815455 67.807539 
L 75.063041 67.473872 
L 74.941153 66.80287 
L 74.693566 66.636036 
L 74.571678 66.300535 
L 75.063041 65.7982 
L 74.941153 65.965034 
L 74.571678 65.965034 
L 74.324091 65.7982 
L 74.202202 65.462699 
L 74.693566 64.624864 
L 74.815455 63.953862 
L 74.815455 64.289363 
L 74.941153 64.45803 
L 75.18493 64.289363 
L 75.432516 63.787028 
L 74.941153 63.787028 
L 74.815455 63.451527 
L 74.815455 63.11786 
L 74.693566 62.782359 
L 74.44598 62.782359 
L 74.571678 63.11786 
L 74.815455 63.11786 
L 74.815455 62.782359 
L 74.571678 61.944523 
L 74.571678 61.777689 
L 74.815455 61.777689 
L 74.815455 61.777689 
L 74.324091 61.106687 
L 74.324091 61.106687 
L 74.324091 61.442188 
L 74.571678 61.442188 
L 74.941153 60.939854 
L 74.941153 60.268852 
L 74.571678 59.766517 
L 74.202202 59.766517 
L 74.202202 59.933351 
L 74.44598 60.102018 
L 74.693566 60.102018 
L 74.44598 60.268852 
L 74.202202 59.766517 
L 74.324091 59.766517 
L 74.202202 59.766517 
L 74.324091 59.264182 
L 74.693566 59.095515 
L 74.693566 58.761848 
L 74.44598 58.25768 
L 73.954616 57.924012 
L 73.954616 57.924012 
L 74.44598 58.761848 
L 74.324091 58.593181 
L 74.324091 58.090846 
L 74.571678 57.588511 
L 74.44598 57.086176 
L 74.324091 57.086176 
L 74.324091 57.421677 
L 74.202202 57.755345 
L 74.202202 57.755345 
L 74.202202 56.583842 
L 73.954616 56.415175 
L 73.954616 56.750675 
L 74.202202 56.917509 
L 74.44598 56.917509 
L 74.693566 56.750675 
L 74.693566 56.248341 
L 74.815455 55.746006 
L 74.44598 55.746006 
L 74.44598 55.91284 
L 74.324091 55.91284 
L 74.202202 56.081507 
L 75.063041 55.075004 
L 75.18493 55.075004 
L 75.063041 55.243671 
L 74.815455 55.243671 
L 74.44598 54.90817 
L 74.571678 54.572669 
L 75.432516 54.070335 
L 75.310628 54.070335 
L 74.941153 54.739503 
L 75.063041 54.90817 
L 75.063041 54.739503 
L 75.18493 54.405836 
L 75.680103 54.405836 
L 75.801992 54.237169 
L 75.680103 54.070335 
L 75.310628 54.405836 
L 74.693566 54.572669 
L 74.571678 54.237169 
L 74.941153 54.070335 
L 75.432516 53.568 
L 75.18493 53.568 
L 75.063041 53.734834 
L 75.18493 54.070335 
L 75.432516 54.405836 
L 75.432516 54.405836 
L 75.18493 54.739503 
L 74.693566 54.90817 
L 75.310628 54.070335 
L 75.18493 54.405836 
L 75.063041 54.739503 
L 75.310628 55.243671 
L 75.554405 55.075004 
L 75.801992 55.075004 
L 75.92388 55.243671 
L 75.680103 55.075004 
L 75.310628 54.739503 
L 75.310628 54.405836 
L 75.18493 54.572669 
L 74.815455 54.572669 
L 74.693566 54.237169 
L 74.815455 53.903501 
L 75.18493 54.237169 
L 75.680103 55.243671 
L 75.680103 55.410505 
L 76.171467 55.410505 
L 78.018842 54.90817 
L 79.500552 54.405836 
L 81.347927 53.903501 
L 85.65974 53.568 
L 88.371764 53.734834 
L 91.575151 54.405836 
L 98.968462 56.583842 
L 103.158386 57.924012 
L 107.470199 59.095515 
L 116.219522 61.106687 
L 120.653223 62.613692 
L 125.33832 64.45803 
L 129.89391 65.965034 
L 145.050008 68.478541 
L 149.856994 69.483211 
L 154.663979 70.656547 
L 159.467156 72.163551 
L 169.203015 75.514894 
L 174.131889 76.855064 
L 178.938875 78.362068 
L 203.827023 87.074092 
L 208.634009 88.916597 
L 213.562883 90.92777 
L 218.861233 92.938942 
L 229.827406 96.288451 
L 235.125756 98.130956 
L 240.302216 100.142128 
L 250.159965 103.827139 
L 254.841253 105.671477 
L 259.644429 107.347148 
L 264.081939 109.020986 
L 268.51945 110.361157 
L 272.461787 111.367659 
L 276.282236 112.70783 
L 280.224574 114.383501 
L 284.166911 116.226006 
L 291.068859 120.582018 
L 294.02466 122.257689 
L 296.736683 123.59786 
L 299.444898 125.271698 
L 302.156921 127.28287 
L 304.49947 129.460876 
L 308.689394 133.816888 
L 310.658658 135.659393 
L 311.767083 137.335064 
L 312.384145 139.010735 
L 312.75362 140.853241 
L 313.614459 142.695746 
L 314.231521 144.538251 
L 314.357218 146.382589 
L 314.357218 148.727429 
L 314.479107 152.245605 
L 314.479107 153.585776 
L 313.862045 157.270786 
L 313.370682 160.119794 
L 313.49257 161.124463 
L 313.370682 162.464633 
L 312.631731 165.144974 
L 312.631731 166.151477 
L 312.75362 167.156146 
L 313.370682 169.334152 
L 313.49257 170.005154 
L 312.262256 172.685495 
L 312.136559 173.690164 
L 312.262256 175.197169 
L 311.767083 175.86817 
L 311.645195 176.370505 
L 311.645195 176.87284 
L 311.767083 177.375175 
L 312.01467 177.877509 
L 311.028133 178.548511 
L 311.028133 178.884012 
L 311.645195 179.553181 
L 311.892781 179.721848 
L 311.767083 179.721848 
L 311.767083 179.888681 
L 311.27572 180.726517 
L 311.523306 180.893351 
L 311.523306 181.397519 
L 311.27572 182.066687 
L 311.523306 182.233521 
L 311.645195 182.066687 
L 311.397608 181.564353 
L 311.397608 181.731187 
L 311.767083 182.066687 
L 311.892781 182.569022 
L 311.767083 182.904523 
L 311.27572 183.071357 
L 311.27572 182.904523 
L 311.397608 182.904523 
L 311.397608 182.904523 
L 311.397608 183.240024 
L 311.523306 183.240024 
L 311.645195 183.071357 
L 312.01467 183.573692 
L 312.136559 183.240024 
L 312.01467 182.904523 
L 311.767083 182.904523 
L 311.27572 183.573692 
L 311.397608 183.909193 
L 311.645195 184.244693 
L 311.767083 184.07786 
L 311.767083 183.573692 
L 312.136559 182.402188 
L 311.645195 183.240024 
L 311.523306 183.406858 
L 311.523306 183.909193 
L 311.767083 183.573692 
L 312.262256 184.07786 
L 311.892781 183.742359 
L 312.136559 183.240024 
L 312.136559 183.406858 
L 312.631731 183.909193 
L 312.75362 183.742359 
L 312.136559 183.742359 
L 312.01467 183.909193 
L 312.384145 183.406858 
L 312.01467 184.747028 
L 312.136559 184.411527 
L 312.506034 184.07786 
L 312.631731 183.909193 
L 312.875509 183.909193 
L 313.244984 184.07786 
L 315.957007 183.406858 
L 317.434908 183.071357 
L 319.038506 182.233521 
L 320.638295 181.564353 
L 324.458744 181.228852 
L 326.553706 181.397519 
L 333.699431 182.904523 
L 336.163868 183.071357 
L 339.123478 183.573692 
L 342.079279 184.580194 
L 347.625215 187.427369 
L 355.879365 190.778711 
L 358.591388 192.118882 
L 361.177714 193.794553 
L 366.476064 196.810395 
L 369.066198 198.317399 
L 373.869375 201.835575 
L 381.140798 207.029423 
L 385.083135 211.049934 
L 386.808622 212.725605 
L 388.655998 214.232609 
L 390.381484 215.908281 
L 391.615608 217.417118 
L 396.049309 224.11797 
L 396.544482 225.793641 
L 396.788259 227.469313 
L 396.66637 229.980986 
L 397.035846 230.987489 
L 397.283432 231.992158 
L 397.283432 232.829994 
L 396.788259 233.499163 
L 396.418784 234.505665 
L 395.92742 238.190675 
L 395.805532 239.028511 
L 395.805532 239.866347 
L 396.175007 241.542018 
L 396.418784 242.379854 
L 396.913957 246.231698 
L 397.157734 246.902699 
L 397.157734 247.740535 
L 396.913957 248.409704 
L 396.544482 248.745205 
L 396.66637 248.913872 
L 396.788259 249.416206 
L 396.788259 249.918541 
L 397.035846 250.085375 
L 397.157734 250.420876 
L 396.788259 251.92788 
L 396.788259 252.598882 
L 397.035846 253.269884 
L 396.788259 253.269884 
L 396.418784 253.939052 
L 396.296895 254.610054 
L 396.418784 255.112389 
L 396.788259 255.44789 
L 396.788259 255.781557 
L 396.913957 256.452559 
L 397.283432 257.457229 
L 396.913957 257.792729 
L 396.544482 257.792729 
L 396.66637 258.12823 
L 397.035846 258.797399 
L 396.913957 258.966066 
L 396.788259 259.802068 
L 397.157734 259.802068 
L 397.774796 260.137569 
L 397.652907 259.970735 
L 397.405321 260.137569 
L 397.157734 260.639904 
L 397.283432 260.975405 
L 397.283432 260.808571 
L 397.405321 260.47307 
L 397.405321 260.808571 
L 397.157734 262.484242 
L 397.157734 262.315575 
L 396.913957 262.315575 
L 396.913957 262.484242 
L 397.157734 262.484242 
L 397.774796 263.153411 
L 397.900494 263.488912 
L 397.652907 262.986577 
L 397.405321 262.484242 
L 397.652907 263.153411 
L 397.652907 263.320245 
L 397.527209 263.824413 
L 398.022382 264.15808 
L 398.022382 264.493581 
L 397.900494 264.662248 
L 397.283432 264.995916 
L 397.283432 265.164583 
L 397.283432 265.164583 
L 397.405321 264.829082 
L 397.652907 264.493581 
L 397.900494 264.662248 
L 397.283432 265.331417 
L 396.913957 265.331417 
L 397.035846 265.498251 
L 397.652907 265.833752 
L 397.652907 266.169253 
L 397.527209 266.336086 
L 397.157734 266.336086 
L 397.157734 266.504753 
L 397.652907 266.504753 
L 397.283432 266.504753 
L 397.035846 266.336086 
L 397.283432 266.169253 
L 397.652907 266.504753 
L 397.774796 266.671587 
L 397.652907 266.671587 
L 397.035846 266.840254 
L 397.157734 266.504753 
L 397.405321 266.504753 
L 397.405321 266.671587 
L 397.283432 267.509423 
L 397.527209 267.007088 
L 397.527209 266.671587 
L 397.405321 266.336086 
L 397.405321 266.840254 
L 397.652907 268.011758 
L 397.652907 267.676257 
L 397.652907 267.007088 
L 397.774796 266.840254 
L 397.774796 267.509423 
L 397.774796 267.342589 
L 397.652907 267.173922 
L 397.652907 267.342589 
L 397.652907 268.180425 
L 397.405321 268.514092 
L 397.527209 268.514092 
L 397.652907 268.514092 
L 397.527209 268.849593 
L 397.527209 269.351928 
L 397.527209 269.351928 
L 398.022382 268.849593 
L 397.900494 269.016427 
L 397.527209 269.016427 
L 397.405321 269.185094 
L 397.405321 269.520595 
L 397.527209 270.358431 
L 397.405321 270.02293 
L 397.283432 269.185094 
L 397.405321 269.351928 
L 397.527209 269.854263 
L 397.157734 270.189764 
L 397.157734 270.189764 
L 397.405321 270.358431 
L 397.405321 270.525265 
L 397.283432 270.692098 
L 397.652907 270.358431 
L 397.774796 270.692098 
L 397.652907 270.860765 
L 397.283432 270.692098 
L 397.157734 270.358431 
L 397.283432 270.525265 
L 397.652907 270.860765 
L 397.900494 270.860765 
L 398.022382 271.027599 
L 397.283432 272.200936 
L 397.283432 272.200936 
L 397.157734 271.865435 
L 397.157734 271.529934 
L 397.405321 271.529934 
L 397.652907 271.3631 
L 397.527209 271.3631 
L 397.035846 271.027599 
L 397.652907 271.529934 
L 397.774796 271.865435 
L 397.652907 272.032269 
L 397.652907 271.529934 
L 397.405321 271.027599 
L 397.405321 271.3631 
L 397.527209 271.529934 
L 397.652907 271.3631 
L 397.527209 271.027599 
L 397.405321 271.194433 
L 397.405321 271.865435 
L 397.527209 272.032269 
L 397.652907 271.698601 
L 397.405321 271.194433 
L 397.157734 271.194433 
L 396.66637 271.529934 
L 397.035846 271.194433 
L 397.900494 271.027599 
L 397.652907 270.860765 
L 397.405321 271.027599 
L 396.66637 271.194433 
L 395.679834 271.027599 
L 394.571408 270.692098 
L 393.341094 270.02293 
L 391.859385 269.351928 
L 387.669461 267.844924 
L 385.45261 266.504753 
L 383.113871 264.829082 
L 380.032372 262.81791 
L 373.256122 258.797399 
L 369.435674 256.954894 
L 365.367638 255.44789 
L 357.113488 251.92788 
L 343.313402 246.231698 
L 338.875892 244.055525 
L 321.00777 236.181337 
L 316.45218 234.336998 
L 311.892781 232.996828 
L 307.207684 232.158992 
L 302.404508 231.489824 
L 289.465261 229.143151 
L 277.264964 228.138481 
L 269.627875 226.798311 
L 258.166529 226.798311 
L 252.624402 226.295976 
L 251.26839 226.46281 
L 249.542903 226.966978 
L 248.925842 227.469313 
L 249.04773 227.469313 
L 249.417205 227.300645 
L 249.912378 227.300645 
L 251.020804 227.80298 
L 251.020804 227.80298 
L 250.898915 227.971647 
L 251.26839 228.307148 
L 250.898915 227.971647 
L 250.651329 228.307148 
L 250.651329 228.640816 
L 250.403742 228.809483 
L 249.664792 229.143151 
L 249.664792 229.311818 
L 249.786681 229.143151 
L 249.786681 229.311818 
L 249.664792 229.647319 
L 249.417205 229.647319 
L 249.417205 229.478651 
L 249.542903 229.311818 
L 250.159965 229.311818 
L 250.281853 229.647319 
L 250.281853 230.149653 
L 250.159965 230.149653 
L 250.034267 229.980986 
L 250.281853 229.478651 
L 250.281853 229.647319 
L 250.281853 229.647319 
L 250.034267 230.987489 
L 250.034267 230.987489 
L 249.912378 230.485154 
L 250.281853 230.149653 
L 250.159965 230.149653 
L 249.912378 229.647319 
L 250.403742 230.485154 
L 250.403742 230.485154 
L 250.52944 230.485154 
L 250.651329 230.316487 
L 250.281853 230.987489 
L 250.281853 230.987489 
L 250.52944 230.987489 
L 250.898915 231.154323 
L 251.020804 231.489824 
L 250.898915 231.825325 
L 250.773217 231.656657 
L 250.898915 231.321157 
L 251.020804 231.321157 
L 250.773217 230.818822 
L 250.773217 230.651988 
L 250.651329 230.651988 
L 250.651329 231.321157 
L 250.898915 231.992158 
L 251.142692 232.158992 
L 251.390279 231.992158 
L 251.142692 231.825325 
L 250.773217 231.825325 
L 250.773217 231.992158 
L 250.898915 231.992158 
L 250.898915 231.656657 
L 251.142692 231.321157 
L 251.142692 231.489824 
L 250.52944 232.494493 
L 250.52944 231.825325 
L 250.773217 231.489824 
L 250.773217 231.656657 
L 250.773217 232.158992 
L 250.52944 232.66316 
L 250.651329 232.66316 
L 250.651329 231.825325 
L 250.52944 231.825325 
L 250.403742 231.992158 
L 250.898915 231.489824 
L 250.898915 231.489824 
L 250.898915 231.656657 
L 250.773217 231.992158 
L 250.773217 232.494493 
L 251.142692 232.66316 
L 251.637865 232.66316 
L 251.512167 232.494493 
L 251.26839 232.494493 
L 251.142692 232.327659 
L 251.390279 232.494493 
L 251.512167 232.494493 
L 251.26839 232.158992 
L 251.26839 231.825325 
L 251.512167 231.992158 
L 251.637865 232.327659 
L 251.512167 232.66316 
L 251.020804 232.66316 
L 250.898915 232.494493 
L 251.142692 232.327659 
L 251.142692 232.327659 
L 251.390279 232.996828 
L 251.637865 232.494493 
L 251.637865 231.656657 
L 251.512167 231.489824 
L 251.512167 231.489824 
L 251.637865 232.327659 
L 251.881643 231.489824 
L 251.759754 231.489824 
L 251.759754 231.489824 
L 252.251118 230.316487 
L 252.251118 229.478651 
L 252.129229 228.809483 
L 252.376815 227.971647 
L 255.949678 196.474894 
L 256.936215 188.600705 
L 256.936215 188.600705 
L 258.414115 161.124463 
L 259.153065 154.925946 
L 259.400652 152.078771 
L 259.892015 149.396597 
L 259.892015 149.396597 
L 263.464878 130.801046 
L 264.203828 128.958541 
L 264.942778 127.449704 
L 265.437951 126.109533 
L 265.929315 125.440365 
L 266.546377 125.104864 
L 266.793963 124.769363 
L 267.163438 123.262359 
L 267.532913 122.257689 
L 267.654802 121.084353 
L 267.902388 121.251187 
L 268.149975 121.251187 
L 268.149975 121.251187 
L 267.532913 121.586687 
L 267.407215 121.419854 
L 267.654802 121.251187 
L 268.641339 120.915686 
L 268.149975 121.084353 
L 267.902388 120.246517 
L 267.902388 120.079683 
L 267.7805 120.079683 
L 267.654802 119.911016 
L 267.7805 119.575515 
L 268.271863 118.739513 
L 268.51945 118.068511 
L 268.393752 118.068511 
L 268.393752 118.235345 
L 268.271863 118.068511 
L 267.902388 116.39284 
L 268.149975 116.561507 
L 268.271863 116.39284 
L 268.271863 115.723671 
L 268.271863 115.890505 
L 268.149975 115.890505 
L 268.393752 114.885836 
L 268.393752 114.383501 
L 268.393752 114.383501 
L 268.641339 114.550335 
L 268.393752 114.048 
L 268.149975 113.879333 
L 267.902388 113.879333 
L 267.902388 113.712499 
L 268.271863 113.545665 
L 268.271863 113.879333 
L 267.654802 114.048 
L 267.532913 113.376998 
L 267.654802 113.376998 
L 267.654802 112.874663 
L 267.654802 113.043331 
L 267.163438 112.539163 
L 267.407215 112.70783 
L 267.532913 112.539163 
L 267.7805 112.539163 
L 267.902388 112.70783 
L 267.654802 113.043331 
L 267.407215 112.874663 
L 267.163438 112.539163 
L 267.285327 112.539163 
L 267.532913 112.539163 
L 267.532913 112.70783 
L 267.654802 112.539163 
L 267.03774 113.210164 
L 266.915852 113.210164 
L 267.285327 112.70783 
L 267.407215 112.874663 
L 267.285327 112.70783 
L 266.915852 112.70783 
L 266.915852 112.874663 
L 267.407215 112.70783 
L 268.024277 112.372329 
L 267.902388 112.036828 
L 267.407215 112.205495 
L 267.285327 112.372329 
L 267.407215 112.372329 
L 267.532913 112.372329 
L 267.532913 112.205495 
L 267.654802 112.205495 
L 268.149975 112.539163 
L 268.149975 112.70783 
L 268.024277 112.70783 
L 267.902388 112.205495 
L 267.902388 112.372329 
L 267.532913 112.70783 
L 267.654802 112.70783 
L 267.285327 112.539163 
L 267.285327 112.70783 
L 267.532913 112.874663 
L 267.902388 112.539163 
L 268.149975 112.372329 
L 267.902388 112.874663 
L 267.902388 112.70783 
L 267.902388 112.70783 
L 268.024277 112.70783 
L 268.024277 113.043331 
L 267.7805 113.210164 
L 267.532913 113.210164 
L 267.902388 113.879333 
L 267.654802 113.210164 
L 267.532913 112.874663 
L 267.532913 113.043331 
L 267.532913 113.376998 
L 267.654802 113.376998 
L 267.7805 113.043331 
L 267.654802 113.043331 
L 267.654802 112.874663 
L 267.902388 113.376998 
L 267.7805 113.712499 
L 267.7805 113.712499 
L 267.532913 113.712499 
L 267.407215 113.545665 
L 267.532913 113.545665 
L 267.407215 113.879333 
L 267.407215 113.879333 
L 266.915852 113.210164 
L 266.424488 112.874663 
L 263.834353 112.205495 
L 262.234564 111.869994 
L 260.261491 111.869994 
L 256.319153 112.539163 
L 254.224191 113.043331 
L 247.56983 114.048 
L 244.983504 114.885836 
L 242.271481 115.890505 
L 239.685155 117.230675 
L 231.922368 121.586687 
L 226.128846 124.100194 
L 223.420632 125.104864 
L 220.461022 126.780535 
L 214.301833 130.634212 
L 209.125373 133.481387 
L 206.786633 134.654723 
L 204.07461 136.497229 
L 201.362586 139.010735 
L 198.650563 141.188741 
L 196.186126 142.695746 
L 193.969275 144.204583 
L 192.121899 145.878421 
L 190.148826 148.225094 
L 188.549037 150.905435 
L 187.314914 153.418942 
L 186.575964 156.099283 
L 185.958902 158.779623 
L 184.976175 161.459964 
L 182.633626 165.144974 
L 181.772787 167.32298 
L 179.30835 174.359333 
L 176.843913 180.559683 
L 176.226851 182.737689 
L 175.857376 184.915695 
L 175.240315 187.260535 
L 173.762414 191.616547 
L 173.514828 193.625886 
L 173.514828 200.159904 
L 173.392939 202.506577 
L 173.392939 207.029423 
L 173.267242 209.54293 
L 173.267242 212.054603 
L 172.528291 218.086287 
L 172.528291 219.928792 
L 172.653989 221.604463 
L 172.528291 223.113301 
L 172.036927 226.295976 
L 172.036927 227.971647 
L 171.789341 229.478651 
L 171.667452 230.987489 
L 171.667452 232.66316 
L 171.915039 235.677169 
L 171.789341 236.683671 
L 171.789341 237.688341 
L 171.545564 240.368681 
L 170.806613 243.217689 
L 170.680916 244.891527 
L 170.680916 245.562529 
L 170.928502 246.231698 
L 171.419866 249.416206 
L 171.176089 249.58304 
L 171.050391 250.085375 
L 171.545564 254.776888 
L 171.545564 255.44789 
L 171.667452 255.781557 
L 171.667452 256.283892 
L 171.915039 258.12823 
L 171.915039 259.468401 
L 171.419866 259.970735 
L 172.036927 261.646407 
L 172.036927 262.484242 
L 171.915039 262.484242 
L 171.789341 262.651076 
L 171.789341 263.153411 
L 172.158816 263.991247 
L 172.036927 264.493581 
L 171.545564 265.331417 
L 171.297977 265.331417 
L 171.297977 265.498251 
L 171.789341 266.002419 
L 171.789341 266.336086 
L 171.667452 266.671587 
L 171.915039 267.173922 
L 171.667452 267.509423 
L 171.176089 267.844924 
L 171.419866 268.011758 
L 171.789341 268.682759 
L 171.667452 268.849593 
L 171.667452 268.849593 
L 171.789341 269.185094 
L 171.297977 270.189764 
L 171.176089 270.189764 
L 171.419866 270.189764 
L 171.667452 271.027599 
L 171.667452 271.3631 
L 171.545564 271.865435 
L 172.284514 271.865435 
L 172.284514 271.865435 
L 172.036927 272.200936 
L 172.036927 272.032269 
L 171.915039 272.032269 
L 171.789341 272.536437 
L 171.789341 272.536437 
L 173.267242 277.728451 
L 172.653989 279.404122 
L 172.775878 279.404122 
L 173.023464 279.404122 
L 173.023464 279.404122 
L 173.640526 280.241958 
L 173.640526 280.241958 
L 173.267242 280.241958 
L 173.267242 280.408792 
L 173.514828 279.906457 
L 173.762414 280.075124 
L 173.884303 280.408792 
L 173.514828 280.744293 
L 173.514828 281.079794 
L 173.640526 281.415295 
L 173.762414 281.079794 
L 173.640526 280.91296 
L 173.762414 281.079794 
L 173.884303 281.582128 
L 173.392939 282.084463 
L 173.392939 282.586798 
L 173.762414 285.268972 
L 173.762414 285.268972 
L 174.501365 284.59797 
L 174.010001 285.100305 
L 173.640526 285.771307 
L 173.884303 285.602639 
L 173.762414 286.104974 
L 174.131889 286.104974 
L 174.253778 286.273641 
L 173.884303 286.440475 
L 174.131889 286.94281 
L 173.640526 287.278311 
L 174.131889 286.94281 
L 174.501365 287.111477 
L 174.501365 287.111477 
L 174.253778 286.94281 
L 174.131889 287.278311 
L 173.884303 287.780645 
L 174.010001 287.613812 
L 174.253778 287.446978 
L 174.253778 287.613812 
L 174.010001 287.278311 
L 173.884303 287.613812 
L 173.884303 288.116146 
L 174.010001 288.618481 
L 173.762414 288.116146 
L 173.884303 287.949313 
L 174.253778 288.116146 
L 174.501365 288.451647 
L 174.379476 288.618481 
L 174.131889 288.451647 
L 174.253778 287.949313 
L 174.501365 288.787148 
L 174.501365 288.953982 
L 174.379476 289.120816 
L 174.131889 289.120816 
L 174.131889 289.120816 
L 174.501365 288.953982 
L 174.253778 288.787148 
L 173.762414 289.289483 
L 174.010001 289.958651 
L 174.010001 289.791818 
L 174.131889 289.623151 
L 174.379476 289.623151 
L 174.501365 289.958651 
L 174.501365 290.294152 
L 174.501365 290.294152 
L 174.623253 289.958651 
L 174.623253 289.623151 
L 174.501365 289.289483 
L 174.623253 289.623151 
L 174.623253 289.958651 
L 174.501365 290.294152 
L 174.253778 290.294152 
L 173.762414 289.958651 
L 173.884303 290.127319 
L 174.131889 290.629653 
L 174.379476 290.294152 
L 174.379476 290.460986 
L 174.623253 290.629653 
L 174.623253 290.796487 
L 174.501365 291.131988 
L 174.501365 291.634323 
L 174.501365 291.467489 
L 174.253778 290.965154 
L 174.623253 290.965154 
L 174.992728 291.298822 
L 174.748951 291.131988 
L 174.501365 291.131988 
L 174.501365 291.801157 
L 174.501365 291.634323 
L 174.253778 291.131988 
L 174.623253 291.969824 
L 174.623253 292.305325 
L 174.748951 291.969824 
L 174.501365 292.136657 
L 174.379476 292.638992 
L 174.623253 292.974493 
L 174.87084 292.638992 
L 174.87084 292.305325 
L 174.501365 292.136657 
L 174.253778 292.638992 
L 174.010001 292.807659 
L 174.010001 293.14316 
L 174.253778 293.14316 
L 174.623253 292.974493 
L 174.623253 292.974493 
L 174.623253 293.309994 
L 174.623253 293.309994 
L 174.501365 293.309994 
L 174.131889 293.476828 
L 174.131889 293.645495 
L 174.379476 294.14783 
L 174.87084 294.650164 
L 175.118426 294.650164 
L 175.118426 294.314663 
L 174.992728 293.979163 
L 174.748951 293.645495 
L 174.379476 293.645495 
L 174.253778 293.979163 
L 174.623253 294.483331 
L 174.379476 294.650164 
L 174.131889 294.650164 
L 174.131889 294.483331 
L 174.253778 294.483331 
L 174.501365 294.816998 
L 174.501365 294.816998 
L 174.501365 293.812329 
L 174.379476 293.979163 
L 174.623253 293.812329 
L 174.379476 294.650164 
L 174.253778 295.319333 
L 174.501365 295.488 
L 174.87084 295.152499 
L 174.992728 294.816998 
L 175.240315 294.483331 
L 176.843913 294.14783 
L 177.826641 293.645495 
L 179.060764 292.638992 
L 180.786251 291.634323 
L 183.003101 290.796487 
L 185.589427 290.127319 
L 191.752424 287.949313 
L 199.145736 286.273641 
L 203.088073 284.764804 
L 207.399886 283.424633 
L 212.084983 282.25313 
L 216.888159 281.246627 
L 226.254544 279.572789 
L 230.935832 278.566287 
L 241.284944 277.561617 
L 246.708991 277.226116 
L 251.759754 276.723782 
L 256.688628 276.388281 
L 261.865089 276.221447 
L 267.03774 276.221447 
L 271.966615 276.388281 
L 276.895489 276.723782 
L 281.824363 277.226116 
L 286.878935 277.897118 
L 300.553323 280.408792 
L 309.672121 281.079794 
L 314.231521 282.084463 
L 314.231521 282.084463 
" style="fill:none;stroke:#1f77b4;stroke-linecap:square;stroke-width:1.5;"/>
   </g>
   <g id="matplotlib.axis_1">
    <g id="xtick_1">
     <g id="line2d_2">
      <defs>
       <path d="M 0 0 
L 0 3.5 
" id="m6b0356da54" style="stroke:#000000;stroke-width:0.8;"/>
      </defs>
      <g>
       <use style="stroke:#000000;stroke-width:0.8;" x="100.438745" xlink:href="#m6b0356da54" y="307.584"/>
      </g>
     </g>
     <g id="text_1">
      <!-- −600 -->
      <defs>
       <path d="M 10.59375 35.5 
L 73.1875 35.5 
L 73.1875 27.203125 
L 10.59375 27.203125 
z
" id="DejaVuSans-8722"/>
       <path d="M 33.015625 40.375 
Q 26.375 40.375 22.484375 35.828125 
Q 18.609375 31.296875 18.609375 23.390625 
Q 18.609375 15.53125 22.484375 10.953125 
Q 26.375 6.390625 33.015625 6.390625 
Q 39.65625 6.390625 43.53125 10.953125 
Q 47.40625 15.53125 47.40625 23.390625 
Q 47.40625 31.296875 43.53125 35.828125 
Q 39.65625 40.375 33.015625 40.375 
z
M 52.59375 71.296875 
L 52.59375 62.3125 
Q 48.875 64.0625 45.09375 64.984375 
Q 41.3125 65.921875 37.59375 65.921875 
Q 27.828125 65.921875 22.671875 59.328125 
Q 17.53125 52.734375 16.796875 39.40625 
Q 19.671875 43.65625 24.015625 45.921875 
Q 28.375 48.1875 33.59375 48.1875 
Q 44.578125 48.1875 50.953125 41.515625 
Q 57.328125 34.859375 57.328125 23.390625 
Q 57.328125 12.15625 50.6875 5.359375 
Q 44.046875 -1.421875 33.015625 -1.421875 
Q 20.359375 -1.421875 13.671875 8.265625 
Q 6.984375 17.96875 6.984375 36.375 
Q 6.984375 53.65625 15.1875 63.9375 
Q 23.390625 74.21875 37.203125 74.21875 
Q 40.921875 74.21875 44.703125 73.484375 
Q 48.484375 72.75 52.59375 71.296875 
z
" id="DejaVuSans-54"/>
       <path d="M 31.78125 66.40625 
Q 24.171875 66.40625 20.328125 58.90625 
Q 16.5 51.421875 16.5 36.375 
Q 16.5 21.390625 20.328125 13.890625 
Q 24.171875 6.390625 31.78125 6.390625 
Q 39.453125 6.390625 43.28125 13.890625 
Q 47.125 21.390625 47.125 36.375 
Q 47.125 51.421875 43.28125 58.90625 
Q 39.453125 66.40625 31.78125 66.40625 
z
M 31.78125 74.21875 
Q 44.046875 74.21875 50.515625 64.515625 
Q 56.984375 54.828125 56.984375 36.375 
Q 56.984375 17.96875 50.515625 8.265625 
Q 44.046875 -1.421875 31.78125 -1.421875 
Q 19.53125 -1.421875 13.0625 8.265625 
Q 6.59375 17.96875 6.59375 36.375 
Q 6.59375 54.828125 13.0625 64.515625 
Q 19.53125 74.21875 31.78125 74.21875 
z
" id="DejaVuSans-48"/>
      </defs>
      <g transform="translate(86.705151 322.182437)scale(0.1 -0.1)">
       <use xlink:href="#DejaVuSans-8722"/>
       <use x="83.789062" xlink:href="#DejaVuSans-54"/>
       <use x="147.412109" xlink:href="#DejaVuSans-48"/>
       <use x="211.035156" xlink:href="#DejaVuSans-48"/>
      </g>
     </g>
    </g>
    <g id="xtick_2">
     <g id="line2d_3">
      <g>
       <use style="stroke:#000000;stroke-width:0.8;" x="176.619181" xlink:href="#m6b0356da54" y="307.584"/>
      </g>
     </g>
     <g id="text_2">
      <!-- −400 -->
      <defs>
       <path d="M 37.796875 64.3125 
L 12.890625 25.390625 
L 37.796875 25.390625 
z
M 35.203125 72.90625 
L 47.609375 72.90625 
L 47.609375 25.390625 
L 58.015625 25.390625 
L 58.015625 17.1875 
L 47.609375 17.1875 
L 47.609375 0 
L 37.796875 0 
L 37.796875 17.1875 
L 4.890625 17.1875 
L 4.890625 26.703125 
z
" id="DejaVuSans-52"/>
      </defs>
      <g transform="translate(162.885587 322.182437)scale(0.1 -0.1)">
       <use xlink:href="#DejaVuSans-8722"/>
       <use x="83.789062" xlink:href="#DejaVuSans-52"/>
       <use x="147.412109" xlink:href="#DejaVuSans-48"/>
       <use x="211.035156" xlink:href="#DejaVuSans-48"/>
      </g>
     </g>
    </g>
    <g id="xtick_3">
     <g id="line2d_4">
      <g>
       <use style="stroke:#000000;stroke-width:0.8;" x="252.799617" xlink:href="#m6b0356da54" y="307.584"/>
      </g>
     </g>
     <g id="text_3">
      <!-- −200 -->
      <defs>
       <path d="M 19.1875 8.296875 
L 53.609375 8.296875 
L 53.609375 0 
L 7.328125 0 
L 7.328125 8.296875 
Q 12.9375 14.109375 22.625 23.890625 
Q 32.328125 33.6875 34.8125 36.53125 
Q 39.546875 41.84375 41.421875 45.53125 
Q 43.3125 49.21875 43.3125 52.78125 
Q 43.3125 58.59375 39.234375 62.25 
Q 35.15625 65.921875 28.609375 65.921875 
Q 23.96875 65.921875 18.8125 64.3125 
Q 13.671875 62.703125 7.8125 59.421875 
L 7.8125 69.390625 
Q 13.765625 71.78125 18.9375 73 
Q 24.125 74.21875 28.421875 74.21875 
Q 39.75 74.21875 46.484375 68.546875 
Q 53.21875 62.890625 53.21875 53.421875 
Q 53.21875 48.921875 51.53125 44.890625 
Q 49.859375 40.875 45.40625 35.40625 
Q 44.1875 33.984375 37.640625 27.21875 
Q 31.109375 20.453125 19.1875 8.296875 
z
" id="DejaVuSans-50"/>
      </defs>
      <g transform="translate(239.066023 322.182437)scale(0.1 -0.1)">
       <use xlink:href="#DejaVuSans-8722"/>
       <use x="83.789062" xlink:href="#DejaVuSans-50"/>
       <use x="147.412109" xlink:href="#DejaVuSans-48"/>
       <use x="211.035156" xlink:href="#DejaVuSans-48"/>
      </g>
     </g>
    </g>
    <g id="xtick_4">
     <g id="line2d_5">
      <g>
       <use style="stroke:#000000;stroke-width:0.8;" x="328.980053" xlink:href="#m6b0356da54" y="307.584"/>
      </g>
     </g>
     <g id="text_4">
      <!-- 0 -->
      <g transform="translate(325.798803 322.182437)scale(0.1 -0.1)">
       <use xlink:href="#DejaVuSans-48"/>
      </g>
     </g>
    </g>
    <g id="xtick_5">
     <g id="line2d_6">
      <g>
       <use style="stroke:#000000;stroke-width:0.8;" x="405.160489" xlink:href="#m6b0356da54" y="307.584"/>
      </g>
     </g>
     <g id="text_5">
      <!-- 200 -->
      <g transform="translate(395.616739 322.182437)scale(0.1 -0.1)">
       <use xlink:href="#DejaVuSans-50"/>
       <use x="63.623047" xlink:href="#DejaVuSans-48"/>
       <use x="127.246094" xlink:href="#DejaVuSans-48"/>
      </g>
     </g>
    </g>
   </g>
   <g id="matplotlib.axis_2">
    <g id="ytick_1">
     <g id="line2d_7">
      <defs>
       <path d="M 0 0 
L -3.5 0 
" id="mc194b29c53" style="stroke:#000000;stroke-width:0.8;"/>
      </defs>
      <g>
       <use style="stroke:#000000;stroke-width:0.8;" x="57.6" xlink:href="#mc194b29c53" y="295.942668"/>
      </g>
     </g>
     <g id="text_6">
      <!-- −400 -->
      <g transform="translate(23.132812 299.741887)scale(0.1 -0.1)">
       <use xlink:href="#DejaVuSans-8722"/>
       <use x="83.789062" xlink:href="#DejaVuSans-52"/>
       <use x="147.412109" xlink:href="#DejaVuSans-48"/>
       <use x="211.035156" xlink:href="#DejaVuSans-48"/>
      </g>
     </g>
    </g>
    <g id="ytick_2">
     <g id="line2d_8">
      <g>
       <use style="stroke:#000000;stroke-width:0.8;" x="57.6" xlink:href="#mc194b29c53" y="259.2759"/>
      </g>
     </g>
     <g id="text_7">
      <!-- −200 -->
      <g transform="translate(23.132812 263.075119)scale(0.1 -0.1)">
       <use xlink:href="#DejaVuSans-8722"/>
       <use x="83.789062" xlink:href="#DejaVuSans-50"/>
       <use x="147.412109" xlink:href="#DejaVuSans-48"/>
       <use x="211.035156" xlink:href="#DejaVuSans-48"/>
      </g>
     </g>
    </g>
    <g id="ytick_3">
     <g id="line2d_9">
      <g>
       <use style="stroke:#000000;stroke-width:0.8;" x="57.6" xlink:href="#mc194b29c53" y="222.609132"/>
      </g>
     </g>
     <g id="text_8">
      <!-- 0 -->
      <g transform="translate(44.2375 226.408351)scale(0.1 -0.1)">
       <use xlink:href="#DejaVuSans-48"/>
      </g>
     </g>
    </g>
    <g id="ytick_4">
     <g id="line2d_10">
      <g>
       <use style="stroke:#000000;stroke-width:0.8;" x="57.6" xlink:href="#mc194b29c53" y="185.942365"/>
      </g>
     </g>
     <g id="text_9">
      <!-- 200 -->
      <g transform="translate(31.5125 189.741584)scale(0.1 -0.1)">
       <use xlink:href="#DejaVuSans-50"/>
       <use x="63.623047" xlink:href="#DejaVuSans-48"/>
       <use x="127.246094" xlink:href="#DejaVuSans-48"/>
      </g>
     </g>
    </g>
    <g id="ytick_5">
     <g id="line2d_11">
      <g>
       <use style="stroke:#000000;stroke-width:0.8;" x="57.6" xlink:href="#mc194b29c53" y="149.275597"/>
      </g>
     </g>
     <g id="text_10">
      <!-- 400 -->
      <g transform="translate(31.5125 153.074816)scale(0.1 -0.1)">
       <use xlink:href="#DejaVuSans-52"/>
       <use x="63.623047" xlink:href="#DejaVuSans-48"/>
       <use x="127.246094" xlink:href="#DejaVuSans-48"/>
      </g>
     </g>
    </g>
    <g id="ytick_6">
     <g id="line2d_12">
      <g>
       <use style="stroke:#000000;stroke-width:0.8;" x="57.6" xlink:href="#mc194b29c53" y="112.608829"/>
      </g>
     </g>
     <g id="text_11">
      <!-- 600 -->
      <g transform="translate(31.5125 116.408048)scale(0.1 -0.1)">
       <use xlink:href="#DejaVuSans-54"/>
       <use x="63.623047" xlink:href="#DejaVuSans-48"/>
       <use x="127.246094" xlink:href="#DejaVuSans-48"/>
      </g>
     </g>
    </g>
    <g id="ytick_7">
     <g id="line2d_13">
      <g>
       <use style="stroke:#000000;stroke-width:0.8;" x="57.6" xlink:href="#mc194b29c53" y="75.942062"/>
      </g>
     </g>
     <g id="text_12">
      <!-- 800 -->
      <defs>
       <path d="M 31.78125 34.625 
Q 24.75 34.625 20.71875 30.859375 
Q 16.703125 27.09375 16.703125 20.515625 
Q 16.703125 13.921875 20.71875 10.15625 
Q 24.75 6.390625 31.78125 6.390625 
Q 38.8125 6.390625 42.859375 10.171875 
Q 46.921875 13.96875 46.921875 20.515625 
Q 46.921875 27.09375 42.890625 30.859375 
Q 38.875 34.625 31.78125 34.625 
z
M 21.921875 38.8125 
Q 15.578125 40.375 12.03125 44.71875 
Q 8.5 49.078125 8.5 55.328125 
Q 8.5 64.0625 14.71875 69.140625 
Q 20.953125 74.21875 31.78125 74.21875 
Q 42.671875 74.21875 48.875 69.140625 
Q 55.078125 64.0625 55.078125 55.328125 
Q 55.078125 49.078125 51.53125 44.71875 
Q 48 40.375 41.703125 38.8125 
Q 48.828125 37.15625 52.796875 32.3125 
Q 56.78125 27.484375 56.78125 20.515625 
Q 56.78125 9.90625 50.3125 4.234375 
Q 43.84375 -1.421875 31.78125 -1.421875 
Q 19.734375 -1.421875 13.25 4.234375 
Q 6.78125 9.90625 6.78125 20.515625 
Q 6.78125 27.484375 10.78125 32.3125 
Q 14.796875 37.15625 21.921875 38.8125 
z
M 18.3125 54.390625 
Q 18.3125 48.734375 21.84375 45.5625 
Q 25.390625 42.390625 31.78125 42.390625 
Q 38.140625 42.390625 41.71875 45.5625 
Q 45.3125 48.734375 45.3125 54.390625 
Q 45.3125 60.0625 41.71875 63.234375 
Q 38.140625 66.40625 31.78125 66.40625 
Q 25.390625 66.40625 21.84375 63.234375 
Q 18.3125 60.0625 18.3125 54.390625 
z
" id="DejaVuSans-56"/>
      </defs>
      <g transform="translate(31.5125 79.74128)scale(0.1 -0.1)">
       <use xlink:href="#DejaVuSans-56"/>
       <use x="63.623047" xlink:href="#DejaVuSans-48"/>
       <use x="127.246094" xlink:href="#DejaVuSans-48"/>
      </g>
     </g>
    </g>
   </g>
   <g id="line2d_14">
    <path clip-path="url(#p8931b5432c)" d="M 75.420442 61.074148 
L 312.197236 180.015166 
L 397.174621 259.431566 
L 395.815054 269.329028 
L 252.443679 230.410842 
L 266.935148 115.076845 
L 172.159065 270.377964 
L 175.169109 289.541109 
" style="fill:none;stroke:#ff0000;stroke-linecap:square;stroke-width:0.5;"/>
   </g>
   <g id="patch_3">
    <path d="M 57.6 307.584 
L 57.6 41.472 
" style="fill:none;stroke:#000000;stroke-linecap:square;stroke-linejoin:miter;stroke-width:0.8;"/>
   </g>
   <g id="patch_4">
    <path d="M 414.72 307.584 
L 414.72 41.472 
" style="fill:none;stroke:#000000;stroke-linecap:square;stroke-linejoin:miter;stroke-width:0.8;"/>
   </g>
   <g id="patch_5">
    <path d="M 57.6 307.584 
L 414.72 307.584 
" style="fill:none;stroke:#000000;stroke-linecap:square;stroke-linejoin:miter;stroke-width:0.8;"/>
   </g>
   <g id="patch_6">
    <path d="M 57.6 41.472 
L 414.72 41.472 
" style="fill:none;stroke:#000000;stroke-linecap:square;stroke-linejoin:miter;stroke-width:0.8;"/>
   </g>
   <g id="PathCollection_1">
    <defs>
     <path d="M 0 2.738613 
C 0.726289 2.738613 1.422928 2.450055 1.936492 1.936492 
C 2.450055 1.422928 2.738613 0.726289 2.738613 0 
C 2.738613 -0.726289 2.450055 -1.422928 1.936492 -1.936492 
C 1.422928 -2.450055 0.726289 -2.738613 0 -2.738613 
C -0.726289 -2.738613 -1.422928 -2.450055 -1.936492 -1.936492 
C -2.450055 -1.422928 -2.738613 -0.726289 -2.738613 0 
C -2.738613 0.726289 -2.450055 1.422928 -1.936492 1.936492 
C -1.422928 2.450055 -0.726289 2.738613 0 2.738613 
z
" id="m71aa6c9980" style="stroke:#ff0000;"/>
    </defs>
    <g clip-path="url(#p8931b5432c)">
     <use style="fill:#ff0000;stroke:#ff0000;" x="75.420442" xlink:href="#m71aa6c9980" y="61.074148"/>
     <use style="fill:#ff0000;stroke:#ff0000;" x="312.197236" xlink:href="#m71aa6c9980" y="180.015166"/>
     <use style="fill:#ff0000;stroke:#ff0000;" x="397.174621" xlink:href="#m71aa6c9980" y="259.431566"/>
     <use style="fill:#ff0000;stroke:#ff0000;" x="395.815054" xlink:href="#m71aa6c9980" y="269.329028"/>
     <use style="fill:#ff0000;stroke:#ff0000;" x="252.443679" xlink:href="#m71aa6c9980" y="230.410842"/>
     <use style="fill:#ff0000;stroke:#ff0000;" x="266.935148" xlink:href="#m71aa6c9980" y="115.076845"/>
     <use style="fill:#ff0000;stroke:#ff0000;" x="172.159065" xlink:href="#m71aa6c9980" y="270.377964"/>
     <use style="fill:#ff0000;stroke:#ff0000;" x="175.169109" xlink:href="#m71aa6c9980" y="289.541109"/>
    </g>
   </g>
   <g id="text_13">
    <!-- (59) Subject: s27, Known = False, Degree = 1, Duration = 0.1 -->
    <defs>
     <path d="M 31 75.875 
Q 24.46875 64.65625 21.28125 53.65625 
Q 18.109375 42.671875 18.109375 31.390625 
Q 18.109375 20.125 21.3125 9.0625 
Q 24.515625 -2 31 -13.1875 
L 23.1875 -13.1875 
Q 15.875 -1.703125 12.234375 9.375 
Q 8.59375 20.453125 8.59375 31.390625 
Q 8.59375 42.28125 12.203125 53.3125 
Q 15.828125 64.359375 23.1875 75.875 
z
" id="DejaVuSans-40"/>
     <path d="M 10.796875 72.90625 
L 49.515625 72.90625 
L 49.515625 64.59375 
L 19.828125 64.59375 
L 19.828125 46.734375 
Q 21.96875 47.46875 24.109375 47.828125 
Q 26.265625 48.1875 28.421875 48.1875 
Q 40.625 48.1875 47.75 41.5 
Q 54.890625 34.8125 54.890625 23.390625 
Q 54.890625 11.625 47.5625 5.09375 
Q 40.234375 -1.421875 26.90625 -1.421875 
Q 22.3125 -1.421875 17.546875 -0.640625 
Q 12.796875 0.140625 7.71875 1.703125 
L 7.71875 11.625 
Q 12.109375 9.234375 16.796875 8.0625 
Q 21.484375 6.890625 26.703125 6.890625 
Q 35.15625 6.890625 40.078125 11.328125 
Q 45.015625 15.765625 45.015625 23.390625 
Q 45.015625 31 40.078125 35.4375 
Q 35.15625 39.890625 26.703125 39.890625 
Q 22.75 39.890625 18.8125 39.015625 
Q 14.890625 38.140625 10.796875 36.28125 
z
" id="DejaVuSans-53"/>
     <path d="M 10.984375 1.515625 
L 10.984375 10.5 
Q 14.703125 8.734375 18.5 7.8125 
Q 22.3125 6.890625 25.984375 6.890625 
Q 35.75 6.890625 40.890625 13.453125 
Q 46.046875 20.015625 46.78125 33.40625 
Q 43.953125 29.203125 39.59375 26.953125 
Q 35.25 24.703125 29.984375 24.703125 
Q 19.046875 24.703125 12.671875 31.3125 
Q 6.296875 37.9375 6.296875 49.421875 
Q 6.296875 60.640625 12.9375 67.421875 
Q 19.578125 74.21875 30.609375 74.21875 
Q 43.265625 74.21875 49.921875 64.515625 
Q 56.59375 54.828125 56.59375 36.375 
Q 56.59375 19.140625 48.40625 8.859375 
Q 40.234375 -1.421875 26.421875 -1.421875 
Q 22.703125 -1.421875 18.890625 -0.6875 
Q 15.09375 0.046875 10.984375 1.515625 
z
M 30.609375 32.421875 
Q 37.25 32.421875 41.125 36.953125 
Q 45.015625 41.5 45.015625 49.421875 
Q 45.015625 57.28125 41.125 61.84375 
Q 37.25 66.40625 30.609375 66.40625 
Q 23.96875 66.40625 20.09375 61.84375 
Q 16.21875 57.28125 16.21875 49.421875 
Q 16.21875 41.5 20.09375 36.953125 
Q 23.96875 32.421875 30.609375 32.421875 
z
" id="DejaVuSans-57"/>
     <path d="M 8.015625 75.875 
L 15.828125 75.875 
Q 23.140625 64.359375 26.78125 53.3125 
Q 30.421875 42.28125 30.421875 31.390625 
Q 30.421875 20.453125 26.78125 9.375 
Q 23.140625 -1.703125 15.828125 -13.1875 
L 8.015625 -13.1875 
Q 14.5 -2 17.703125 9.0625 
Q 20.90625 20.125 20.90625 31.390625 
Q 20.90625 42.671875 17.703125 53.65625 
Q 14.5 64.65625 8.015625 75.875 
z
" id="DejaVuSans-41"/>
     <path id="DejaVuSans-32"/>
     <path d="M 53.515625 70.515625 
L 53.515625 60.890625 
Q 47.90625 63.578125 42.921875 64.890625 
Q 37.9375 66.21875 33.296875 66.21875 
Q 25.25 66.21875 20.875 63.09375 
Q 16.5 59.96875 16.5 54.203125 
Q 16.5 49.359375 19.40625 46.890625 
Q 22.3125 44.4375 30.421875 42.921875 
L 36.375 41.703125 
Q 47.40625 39.59375 52.65625 34.296875 
Q 57.90625 29 57.90625 20.125 
Q 57.90625 9.515625 50.796875 4.046875 
Q 43.703125 -1.421875 29.984375 -1.421875 
Q 24.8125 -1.421875 18.96875 -0.25 
Q 13.140625 0.921875 6.890625 3.21875 
L 6.890625 13.375 
Q 12.890625 10.015625 18.65625 8.296875 
Q 24.421875 6.59375 29.984375 6.59375 
Q 38.421875 6.59375 43.015625 9.90625 
Q 47.609375 13.234375 47.609375 19.390625 
Q 47.609375 24.75 44.3125 27.78125 
Q 41.015625 30.8125 33.5 32.328125 
L 27.484375 33.5 
Q 16.453125 35.6875 11.515625 40.375 
Q 6.59375 45.0625 6.59375 53.421875 
Q 6.59375 63.09375 13.40625 68.65625 
Q 20.21875 74.21875 32.171875 74.21875 
Q 37.3125 74.21875 42.625 73.28125 
Q 47.953125 72.359375 53.515625 70.515625 
z
" id="DejaVuSans-83"/>
     <path d="M 8.5 21.578125 
L 8.5 54.6875 
L 17.484375 54.6875 
L 17.484375 21.921875 
Q 17.484375 14.15625 20.5 10.265625 
Q 23.53125 6.390625 29.59375 6.390625 
Q 36.859375 6.390625 41.078125 11.03125 
Q 45.3125 15.671875 45.3125 23.6875 
L 45.3125 54.6875 
L 54.296875 54.6875 
L 54.296875 0 
L 45.3125 0 
L 45.3125 8.40625 
Q 42.046875 3.421875 37.71875 1 
Q 33.40625 -1.421875 27.6875 -1.421875 
Q 18.265625 -1.421875 13.375 4.4375 
Q 8.5 10.296875 8.5 21.578125 
z
M 31.109375 56 
z
" id="DejaVuSans-117"/>
     <path d="M 48.6875 27.296875 
Q 48.6875 37.203125 44.609375 42.84375 
Q 40.53125 48.484375 33.40625 48.484375 
Q 26.265625 48.484375 22.1875 42.84375 
Q 18.109375 37.203125 18.109375 27.296875 
Q 18.109375 17.390625 22.1875 11.75 
Q 26.265625 6.109375 33.40625 6.109375 
Q 40.53125 6.109375 44.609375 11.75 
Q 48.6875 17.390625 48.6875 27.296875 
z
M 18.109375 46.390625 
Q 20.953125 51.265625 25.265625 53.625 
Q 29.59375 56 35.59375 56 
Q 45.5625 56 51.78125 48.09375 
Q 58.015625 40.1875 58.015625 27.296875 
Q 58.015625 14.40625 51.78125 6.484375 
Q 45.5625 -1.421875 35.59375 -1.421875 
Q 29.59375 -1.421875 25.265625 0.953125 
Q 20.953125 3.328125 18.109375 8.203125 
L 18.109375 0 
L 9.078125 0 
L 9.078125 75.984375 
L 18.109375 75.984375 
z
" id="DejaVuSans-98"/>
     <path d="M 9.421875 54.6875 
L 18.40625 54.6875 
L 18.40625 -0.984375 
Q 18.40625 -11.421875 14.421875 -16.109375 
Q 10.453125 -20.796875 1.609375 -20.796875 
L -1.8125 -20.796875 
L -1.8125 -13.1875 
L 0.59375 -13.1875 
Q 5.71875 -13.1875 7.5625 -10.8125 
Q 9.421875 -8.453125 9.421875 -0.984375 
z
M 9.421875 75.984375 
L 18.40625 75.984375 
L 18.40625 64.59375 
L 9.421875 64.59375 
z
" id="DejaVuSans-106"/>
     <path d="M 56.203125 29.59375 
L 56.203125 25.203125 
L 14.890625 25.203125 
Q 15.484375 15.921875 20.484375 11.0625 
Q 25.484375 6.203125 34.421875 6.203125 
Q 39.59375 6.203125 44.453125 7.46875 
Q 49.3125 8.734375 54.109375 11.28125 
L 54.109375 2.78125 
Q 49.265625 0.734375 44.1875 -0.34375 
Q 39.109375 -1.421875 33.890625 -1.421875 
Q 20.796875 -1.421875 13.15625 6.1875 
Q 5.515625 13.8125 5.515625 26.8125 
Q 5.515625 40.234375 12.765625 48.109375 
Q 20.015625 56 32.328125 56 
Q 43.359375 56 49.78125 48.890625 
Q 56.203125 41.796875 56.203125 29.59375 
z
M 47.21875 32.234375 
Q 47.125 39.59375 43.09375 43.984375 
Q 39.0625 48.390625 32.421875 48.390625 
Q 24.90625 48.390625 20.390625 44.140625 
Q 15.875 39.890625 15.1875 32.171875 
z
" id="DejaVuSans-101"/>
     <path d="M 48.78125 52.59375 
L 48.78125 44.1875 
Q 44.96875 46.296875 41.140625 47.34375 
Q 37.3125 48.390625 33.40625 48.390625 
Q 24.65625 48.390625 19.8125 42.84375 
Q 14.984375 37.3125 14.984375 27.296875 
Q 14.984375 17.28125 19.8125 11.734375 
Q 24.65625 6.203125 33.40625 6.203125 
Q 37.3125 6.203125 41.140625 7.25 
Q 44.96875 8.296875 48.78125 10.40625 
L 48.78125 2.09375 
Q 45.015625 0.34375 40.984375 -0.53125 
Q 36.96875 -1.421875 32.421875 -1.421875 
Q 20.0625 -1.421875 12.78125 6.34375 
Q 5.515625 14.109375 5.515625 27.296875 
Q 5.515625 40.671875 12.859375 48.328125 
Q 20.21875 56 33.015625 56 
Q 37.15625 56 41.109375 55.140625 
Q 45.0625 54.296875 48.78125 52.59375 
z
" id="DejaVuSans-99"/>
     <path d="M 18.3125 70.21875 
L 18.3125 54.6875 
L 36.8125 54.6875 
L 36.8125 47.703125 
L 18.3125 47.703125 
L 18.3125 18.015625 
Q 18.3125 11.328125 20.140625 9.421875 
Q 21.96875 7.515625 27.59375 7.515625 
L 36.8125 7.515625 
L 36.8125 0 
L 27.59375 0 
Q 17.1875 0 13.234375 3.875 
Q 9.28125 7.765625 9.28125 18.015625 
L 9.28125 47.703125 
L 2.6875 47.703125 
L 2.6875 54.6875 
L 9.28125 54.6875 
L 9.28125 70.21875 
z
" id="DejaVuSans-116"/>
     <path d="M 11.71875 12.40625 
L 22.015625 12.40625 
L 22.015625 0 
L 11.71875 0 
z
M 11.71875 51.703125 
L 22.015625 51.703125 
L 22.015625 39.3125 
L 11.71875 39.3125 
z
" id="DejaVuSans-58"/>
     <path d="M 44.28125 53.078125 
L 44.28125 44.578125 
Q 40.484375 46.53125 36.375 47.5 
Q 32.28125 48.484375 27.875 48.484375 
Q 21.1875 48.484375 17.84375 46.4375 
Q 14.5 44.390625 14.5 40.28125 
Q 14.5 37.15625 16.890625 35.375 
Q 19.28125 33.59375 26.515625 31.984375 
L 29.59375 31.296875 
Q 39.15625 29.25 43.1875 25.515625 
Q 47.21875 21.78125 47.21875 15.09375 
Q 47.21875 7.46875 41.1875 3.015625 
Q 35.15625 -1.421875 24.609375 -1.421875 
Q 20.21875 -1.421875 15.453125 -0.5625 
Q 10.6875 0.296875 5.421875 2 
L 5.421875 11.28125 
Q 10.40625 8.6875 15.234375 7.390625 
Q 20.0625 6.109375 24.8125 6.109375 
Q 31.15625 6.109375 34.5625 8.28125 
Q 37.984375 10.453125 37.984375 14.40625 
Q 37.984375 18.0625 35.515625 20.015625 
Q 33.0625 21.96875 24.703125 23.78125 
L 21.578125 24.515625 
Q 13.234375 26.265625 9.515625 29.90625 
Q 5.8125 33.546875 5.8125 39.890625 
Q 5.8125 47.609375 11.28125 51.796875 
Q 16.75 56 26.8125 56 
Q 31.78125 56 36.171875 55.265625 
Q 40.578125 54.546875 44.28125 53.078125 
z
" id="DejaVuSans-115"/>
     <path d="M 8.203125 72.90625 
L 55.078125 72.90625 
L 55.078125 68.703125 
L 28.609375 0 
L 18.3125 0 
L 43.21875 64.59375 
L 8.203125 64.59375 
z
" id="DejaVuSans-55"/>
     <path d="M 11.71875 12.40625 
L 22.015625 12.40625 
L 22.015625 4 
L 14.015625 -11.625 
L 7.71875 -11.625 
L 11.71875 4 
z
" id="DejaVuSans-44"/>
     <path d="M 9.8125 72.90625 
L 19.671875 72.90625 
L 19.671875 42.09375 
L 52.390625 72.90625 
L 65.09375 72.90625 
L 28.90625 38.921875 
L 67.671875 0 
L 54.6875 0 
L 19.671875 35.109375 
L 19.671875 0 
L 9.8125 0 
z
" id="DejaVuSans-75"/>
     <path d="M 54.890625 33.015625 
L 54.890625 0 
L 45.90625 0 
L 45.90625 32.71875 
Q 45.90625 40.484375 42.875 44.328125 
Q 39.84375 48.1875 33.796875 48.1875 
Q 26.515625 48.1875 22.3125 43.546875 
Q 18.109375 38.921875 18.109375 30.90625 
L 18.109375 0 
L 9.078125 0 
L 9.078125 54.6875 
L 18.109375 54.6875 
L 18.109375 46.1875 
Q 21.34375 51.125 25.703125 53.5625 
Q 30.078125 56 35.796875 56 
Q 45.21875 56 50.046875 50.171875 
Q 54.890625 44.34375 54.890625 33.015625 
z
" id="DejaVuSans-110"/>
     <path d="M 30.609375 48.390625 
Q 23.390625 48.390625 19.1875 42.75 
Q 14.984375 37.109375 14.984375 27.296875 
Q 14.984375 17.484375 19.15625 11.84375 
Q 23.34375 6.203125 30.609375 6.203125 
Q 37.796875 6.203125 41.984375 11.859375 
Q 46.1875 17.53125 46.1875 27.296875 
Q 46.1875 37.015625 41.984375 42.703125 
Q 37.796875 48.390625 30.609375 48.390625 
z
M 30.609375 56 
Q 42.328125 56 49.015625 48.375 
Q 55.71875 40.765625 55.71875 27.296875 
Q 55.71875 13.875 49.015625 6.21875 
Q 42.328125 -1.421875 30.609375 -1.421875 
Q 18.84375 -1.421875 12.171875 6.21875 
Q 5.515625 13.875 5.515625 27.296875 
Q 5.515625 40.765625 12.171875 48.375 
Q 18.84375 56 30.609375 56 
z
" id="DejaVuSans-111"/>
     <path d="M 4.203125 54.6875 
L 13.1875 54.6875 
L 24.421875 12.015625 
L 35.59375 54.6875 
L 46.1875 54.6875 
L 57.421875 12.015625 
L 68.609375 54.6875 
L 77.59375 54.6875 
L 63.28125 0 
L 52.6875 0 
L 40.921875 44.828125 
L 29.109375 0 
L 18.5 0 
z
" id="DejaVuSans-119"/>
     <path d="M 10.59375 45.40625 
L 73.1875 45.40625 
L 73.1875 37.203125 
L 10.59375 37.203125 
z
M 10.59375 25.484375 
L 73.1875 25.484375 
L 73.1875 17.1875 
L 10.59375 17.1875 
z
" id="DejaVuSans-61"/>
     <path d="M 9.8125 72.90625 
L 51.703125 72.90625 
L 51.703125 64.59375 
L 19.671875 64.59375 
L 19.671875 43.109375 
L 48.578125 43.109375 
L 48.578125 34.8125 
L 19.671875 34.8125 
L 19.671875 0 
L 9.8125 0 
z
" id="DejaVuSans-70"/>
     <path d="M 34.28125 27.484375 
Q 23.390625 27.484375 19.1875 25 
Q 14.984375 22.515625 14.984375 16.5 
Q 14.984375 11.71875 18.140625 8.90625 
Q 21.296875 6.109375 26.703125 6.109375 
Q 34.1875 6.109375 38.703125 11.40625 
Q 43.21875 16.703125 43.21875 25.484375 
L 43.21875 27.484375 
z
M 52.203125 31.203125 
L 52.203125 0 
L 43.21875 0 
L 43.21875 8.296875 
Q 40.140625 3.328125 35.546875 0.953125 
Q 30.953125 -1.421875 24.3125 -1.421875 
Q 15.921875 -1.421875 10.953125 3.296875 
Q 6 8.015625 6 15.921875 
Q 6 25.140625 12.171875 29.828125 
Q 18.359375 34.515625 30.609375 34.515625 
L 43.21875 34.515625 
L 43.21875 35.40625 
Q 43.21875 41.609375 39.140625 45 
Q 35.0625 48.390625 27.6875 48.390625 
Q 23 48.390625 18.546875 47.265625 
Q 14.109375 46.140625 10.015625 43.890625 
L 10.015625 52.203125 
Q 14.9375 54.109375 19.578125 55.046875 
Q 24.21875 56 28.609375 56 
Q 40.484375 56 46.34375 49.84375 
Q 52.203125 43.703125 52.203125 31.203125 
z
" id="DejaVuSans-97"/>
     <path d="M 9.421875 75.984375 
L 18.40625 75.984375 
L 18.40625 0 
L 9.421875 0 
z
" id="DejaVuSans-108"/>
     <path d="M 19.671875 64.796875 
L 19.671875 8.109375 
L 31.59375 8.109375 
Q 46.6875 8.109375 53.6875 14.9375 
Q 60.6875 21.78125 60.6875 36.53125 
Q 60.6875 51.171875 53.6875 57.984375 
Q 46.6875 64.796875 31.59375 64.796875 
z
M 9.8125 72.90625 
L 30.078125 72.90625 
Q 51.265625 72.90625 61.171875 64.09375 
Q 71.09375 55.28125 71.09375 36.53125 
Q 71.09375 17.671875 61.125 8.828125 
Q 51.171875 0 30.078125 0 
L 9.8125 0 
z
" id="DejaVuSans-68"/>
     <path d="M 45.40625 27.984375 
Q 45.40625 37.75 41.375 43.109375 
Q 37.359375 48.484375 30.078125 48.484375 
Q 22.859375 48.484375 18.828125 43.109375 
Q 14.796875 37.75 14.796875 27.984375 
Q 14.796875 18.265625 18.828125 12.890625 
Q 22.859375 7.515625 30.078125 7.515625 
Q 37.359375 7.515625 41.375 12.890625 
Q 45.40625 18.265625 45.40625 27.984375 
z
M 54.390625 6.78125 
Q 54.390625 -7.171875 48.1875 -13.984375 
Q 42 -20.796875 29.203125 -20.796875 
Q 24.46875 -20.796875 20.265625 -20.09375 
Q 16.0625 -19.390625 12.109375 -17.921875 
L 12.109375 -9.1875 
Q 16.0625 -11.328125 19.921875 -12.34375 
Q 23.78125 -13.375 27.78125 -13.375 
Q 36.625 -13.375 41.015625 -8.765625 
Q 45.40625 -4.15625 45.40625 5.171875 
L 45.40625 9.625 
Q 42.625 4.78125 38.28125 2.390625 
Q 33.9375 0 27.875 0 
Q 17.828125 0 11.671875 7.65625 
Q 5.515625 15.328125 5.515625 27.984375 
Q 5.515625 40.671875 11.671875 48.328125 
Q 17.828125 56 27.875 56 
Q 33.9375 56 38.28125 53.609375 
Q 42.625 51.21875 45.40625 46.390625 
L 45.40625 54.6875 
L 54.390625 54.6875 
z
" id="DejaVuSans-103"/>
     <path d="M 41.109375 46.296875 
Q 39.59375 47.171875 37.8125 47.578125 
Q 36.03125 48 33.890625 48 
Q 26.265625 48 22.1875 43.046875 
Q 18.109375 38.09375 18.109375 28.8125 
L 18.109375 0 
L 9.078125 0 
L 9.078125 54.6875 
L 18.109375 54.6875 
L 18.109375 46.1875 
Q 20.953125 51.171875 25.484375 53.578125 
Q 30.03125 56 36.53125 56 
Q 37.453125 56 38.578125 55.875 
Q 39.703125 55.765625 41.0625 55.515625 
z
" id="DejaVuSans-114"/>
     <path d="M 12.40625 8.296875 
L 28.515625 8.296875 
L 28.515625 63.921875 
L 10.984375 60.40625 
L 10.984375 69.390625 
L 28.421875 72.90625 
L 38.28125 72.90625 
L 38.28125 8.296875 
L 54.390625 8.296875 
L 54.390625 0 
L 12.40625 0 
z
" id="DejaVuSans-49"/>
     <path d="M 9.421875 54.6875 
L 18.40625 54.6875 
L 18.40625 0 
L 9.421875 0 
z
M 9.421875 75.984375 
L 18.40625 75.984375 
L 18.40625 64.59375 
L 9.421875 64.59375 
z
" id="DejaVuSans-105"/>
     <path d="M 10.6875 12.40625 
L 21 12.40625 
L 21 0 
L 10.6875 0 
z
" id="DejaVuSans-46"/>
    </defs>
    <g transform="translate(49.741875 35.472)scale(0.12 -0.12)">
     <use xlink:href="#DejaVuSans-40"/>
     <use x="39.013672" xlink:href="#DejaVuSans-53"/>
     <use x="102.636719" xlink:href="#DejaVuSans-57"/>
     <use x="166.259766" xlink:href="#DejaVuSans-41"/>
     <use x="205.273438" xlink:href="#DejaVuSans-32"/>
     <use x="237.060547" xlink:href="#DejaVuSans-83"/>
     <use x="300.537109" xlink:href="#DejaVuSans-117"/>
     <use x="363.916016" xlink:href="#DejaVuSans-98"/>
     <use x="427.392578" xlink:href="#DejaVuSans-106"/>
     <use x="455.175781" xlink:href="#DejaVuSans-101"/>
     <use x="516.699219" xlink:href="#DejaVuSans-99"/>
     <use x="571.679688" xlink:href="#DejaVuSans-116"/>
     <use x="610.888672" xlink:href="#DejaVuSans-58"/>
     <use x="644.580078" xlink:href="#DejaVuSans-32"/>
     <use x="676.367188" xlink:href="#DejaVuSans-115"/>
     <use x="728.466797" xlink:href="#DejaVuSans-50"/>
     <use x="792.089844" xlink:href="#DejaVuSans-55"/>
     <use x="855.712891" xlink:href="#DejaVuSans-44"/>
     <use x="887.5" xlink:href="#DejaVuSans-32"/>
     <use x="919.287109" xlink:href="#DejaVuSans-75"/>
     <use x="984.863281" xlink:href="#DejaVuSans-110"/>
     <use x="1048.242188" xlink:href="#DejaVuSans-111"/>
     <use x="1109.423828" xlink:href="#DejaVuSans-119"/>
     <use x="1191.210938" xlink:href="#DejaVuSans-110"/>
     <use x="1254.589844" xlink:href="#DejaVuSans-32"/>
     <use x="1286.376953" xlink:href="#DejaVuSans-61"/>
     <use x="1370.166016" xlink:href="#DejaVuSans-32"/>
     <use x="1401.953125" xlink:href="#DejaVuSans-70"/>
     <use x="1459.332031" xlink:href="#DejaVuSans-97"/>
     <use x="1520.611328" xlink:href="#DejaVuSans-108"/>
     <use x="1548.394531" xlink:href="#DejaVuSans-115"/>
     <use x="1600.494141" xlink:href="#DejaVuSans-101"/>
     <use x="1662.017578" xlink:href="#DejaVuSans-44"/>
     <use x="1693.804688" xlink:href="#DejaVuSans-32"/>
     <use x="1725.591797" xlink:href="#DejaVuSans-68"/>
     <use x="1802.59375" xlink:href="#DejaVuSans-101"/>
     <use x="1864.117188" xlink:href="#DejaVuSans-103"/>
     <use x="1927.59375" xlink:href="#DejaVuSans-114"/>
     <use x="1968.675781" xlink:href="#DejaVuSans-101"/>
     <use x="2030.199219" xlink:href="#DejaVuSans-101"/>
     <use x="2091.722656" xlink:href="#DejaVuSans-32"/>
     <use x="2123.509766" xlink:href="#DejaVuSans-61"/>
     <use x="2207.298828" xlink:href="#DejaVuSans-32"/>
     <use x="2239.085938" xlink:href="#DejaVuSans-49"/>
     <use x="2302.708984" xlink:href="#DejaVuSans-44"/>
     <use x="2334.496094" xlink:href="#DejaVuSans-32"/>
     <use x="2366.283203" xlink:href="#DejaVuSans-68"/>
     <use x="2443.285156" xlink:href="#DejaVuSans-117"/>
     <use x="2506.664062" xlink:href="#DejaVuSans-114"/>
     <use x="2547.777344" xlink:href="#DejaVuSans-97"/>
     <use x="2609.056641" xlink:href="#DejaVuSans-116"/>
     <use x="2648.265625" xlink:href="#DejaVuSans-105"/>
     <use x="2676.048828" xlink:href="#DejaVuSans-111"/>
     <use x="2737.230469" xlink:href="#DejaVuSans-110"/>
     <use x="2800.609375" xlink:href="#DejaVuSans-32"/>
     <use x="2832.396484" xlink:href="#DejaVuSans-61"/>
     <use x="2916.185547" xlink:href="#DejaVuSans-32"/>
     <use x="2947.972656" xlink:href="#DejaVuSans-48"/>
     <use x="3011.595703" xlink:href="#DejaVuSans-46"/>
     <use x="3043.382812" xlink:href="#DejaVuSans-49"/>
    </g>
   </g>
  </g>
 </g>
 <defs>
  <clipPath id="p8931b5432c">
   <rect height="266.112" width="357.12" x="57.6" y="41.472"/>
  </clipPath>
 </defs>
</svg>
