<?xml version="1.0" encoding="utf-8" standalone="no"?>
<!DOCTYPE svg PUBLIC "-//W3C//DTD SVG 1.1//EN"
  "http://www.w3.org/Graphics/SVG/1.1/DTD/svg11.dtd">
<!-- Created with matplotlib (https://matplotlib.org/) -->
<svg height="345.6pt" version="1.1" viewBox="0 0 460.8 345.6" width="460.8pt" xmlns="http://www.w3.org/2000/svg" xmlns:xlink="http://www.w3.org/1999/xlink">
 <defs>
  <style type="text/css">
*{stroke-linecap:butt;stroke-linejoin:round;}
  </style>
 </defs>
 <g id="figure_1">
  <g id="patch_1">
   <path d="M 0 345.6 
L 460.8 345.6 
L 460.8 0 
L 0 0 
z
" style="fill:#ffffff;"/>
  </g>
  <g id="axes_1">
   <g id="patch_2">
    <path d="M 57.6 307.584 
L 414.72 307.584 
L 414.72 41.472 
L 57.6 41.472 
z
" style="fill:#ffffff;"/>
   </g>
   <g id="line2d_1">
    <path clip-path="url(#p65260cd15d)" d="M 274.505203 236.218012 
L 274.359813 236.377311 
L 274.505203 236.218012 
L 274.650592 235.734803 
L 275.081747 235.734803 
L 275.372526 236.218012 
L 275.081747 236.539265 
L 274.505203 236.218012 
L 274.795982 236.056057 
L 275.081747 236.539265 
L 274.795982 236.056057 
L 274.795982 235.734803 
L 275.081747 235.734803 
L 275.372526 235.572849 
L 275.227136 235.410895 
L 274.795982 235.572849 
L 274.505203 235.894103 
L 274.219437 235.894103 
L 273.783269 235.251595 
L 273.928658 235.251595 
L 274.219437 234.768387 
L 274.359813 234.606433 
L 274.359813 234.285179 
L 274.219437 234.123225 
L 274.219437 234.123225 
L 273.928658 234.444478 
L 273.783269 234.285179 
L 274.074048 234.123225 
L 274.219437 234.285179 
L 274.074048 234.285179 
L 273.783269 234.285179 
L 273.642893 234.123225 
L 273.783269 233.801971 
L 273.642893 233.640017 
L 273.642893 233.640017 
L 273.928658 233.478062 
L 273.928658 233.318763 
L 273.642893 233.478062 
L 273.352114 233.318763 
L 273.642893 233.478062 
L 273.642893 232.994854 
L 274.359813 232.6736 
L 274.505203 232.994854 
L 274.219437 233.640017 
L 273.642893 233.96127 
L 273.783269 233.640017 
L 273.642893 233.318763 
L 273.497504 233.318763 
L 273.497504 233.478062 
L 273.783269 233.640017 
L 274.074048 233.478062 
L 274.219437 233.640017 
L 274.074048 233.318763 
L 273.642893 232.190392 
L 273.642893 232.835555 
L 273.066349 233.478062 
L 273.066349 233.318763 
L 273.066349 232.994854 
L 273.066349 232.994854 
L 273.783269 232.994854 
L 273.497504 232.994854 
L 273.066349 232.835555 
L 273.928658 233.156808 
L 273.497504 233.478062 
L 273.066349 233.640017 
L 272.92096 233.318763 
L 273.206725 232.835555 
L 273.497504 232.6736 
L 273.497504 232.835555 
L 273.352114 232.835555 
L 273.352114 232.6736 
L 273.066349 232.6736 
L 272.92096 232.835555 
L 273.206725 232.352347 
L 273.206725 232.190392 
L 272.92096 232.6736 
L 272.92096 231.38593 
L 272.92096 231.54523 
L 272.77557 231.869139 
L 272.344415 232.028438 
L 272.199026 231.707184 
L 272.489805 231.38593 
L 272.77557 231.869139 
L 272.77557 231.707184 
L 272.489805 231.54523 
L 272.199026 231.54523 
L 271.908247 231.707184 
L 272.053636 231.707184 
L 272.630181 231.707184 
L 273.066349 231.869139 
L 273.066349 232.028438 
L 272.344415 232.352347 
L 272.344415 232.190392 
L 271.622482 231.869139 
L 271.477092 232.190392 
L 271.622482 232.6736 
L 271.908247 232.511646 
L 272.053636 231.869139 
L 271.767871 231.869139 
L 271.622482 232.352347 
L 271.767871 232.835555 
L 271.908247 232.835555 
L 272.053636 232.6736 
L 272.053636 232.352347 
L 272.199026 232.028438 
L 272.489805 231.707184 
L 272.630181 231.38593 
L 271.908247 231.38593 
L 271.908247 231.223976 
L 271.767871 231.54523 
L 272.053636 231.707184 
L 272.199026 231.54523 
L 271.622482 231.38593 
L 271.191327 231.38593 
L 271.477092 231.869139 
L 271.331703 231.54523 
L 271.477092 230.902722 
L 271.477092 230.902722 
L 271.191327 231.223976 
L 270.755159 232.028438 
L 271.191327 231.062022 
L 271.191327 231.062022 
L 270.469393 231.223976 
L 270.900548 231.223976 
L 270.900548 230.902722 
L 270.755159 230.902722 
L 270.900548 231.223976 
L 271.622482 232.028438 
L 270.900548 231.062022 
L 270.324004 231.223976 
L 270.038239 231.869139 
L 270.038239 231.869139 
L 270.469393 231.54523 
L 270.324004 232.190392 
L 269.892849 232.6736 
L 269.60207 232.6736 
L 269.60207 232.190392 
L 269.892849 230.740768 
L 269.74746 231.062022 
L 269.60207 231.223976 
L 269.74746 231.38593 
L 270.038239 231.38593 
L 270.178614 231.223976 
L 270.178614 231.223976 
L 269.892849 230.902722 
L 269.74746 230.095605 
L 269.892849 230.419514 
L 270.178614 230.902722 
L 270.038239 231.062022 
L 269.74746 231.062022 
L 269.461694 230.902722 
L 269.170915 231.38593 
L 269.170915 231.54523 
L 269.170915 231.062022 
L 269.316305 230.578814 
L 269.170915 230.095605 
L 268.88515 229.936306 
L 268.448982 230.095605 
L 268.594371 230.25756 
L 269.025526 229.774352 
L 268.594371 231.38593 
L 268.739761 230.419514 
L 268.739761 229.936306 
L 268.448982 229.774352 
L 268.308606 230.25756 
L 268.448982 230.740768 
L 268.739761 230.578814 
L 268.739761 230.419514 
L 268.88515 230.419514 
L 269.316305 230.25756 
L 269.60207 229.936306 
L 269.461694 229.936306 
L 269.316305 229.936306 
L 269.170915 229.774352 
L 269.025526 229.291144 
L 268.594371 229.129189 
L 268.017827 229.453098 
L 268.308606 229.936306 
L 268.448982 229.936306 
L 268.739761 229.774352 
L 268.88515 229.936306 
L 268.739761 230.095605 
L 268.017827 229.453098 
L 267.732062 229.774352 
L 267.586672 229.612397 
L 267.586672 229.291144 
L 267.872438 229.129189 
L 268.163217 229.129189 
L 268.017827 229.291144 
L 267.586672 229.453098 
L 267.155518 229.291144 
L 267.155518 229.129189 
L 267.586672 229.129189 
L 267.872438 229.291144 
L 268.017827 229.129189 
L 267.441283 228.645981 
L 267.872438 228.96989 
L 268.017827 228.807935 
L 268.017827 229.129189 
L 268.163217 229.453098 
L 267.872438 229.453098 
L 267.586672 229.129189 
L 267.586672 229.129189 
L 267.441283 229.453098 
L 267.586672 228.96989 
L 267.295893 229.129189 
L 267.155518 228.96989 
L 267.155518 228.486682 
L 267.295893 228.162773 
L 267.155518 228.162773 
L 266.719349 228.645981 
L 267.155518 228.486682 
L 267.586672 228.807935 
L 267.586672 228.96989 
L 267.155518 228.162773 
L 267.155518 228.486682 
L 267.295893 228.96989 
L 267.155518 229.129189 
L 267.155518 228.96989 
L 267.155518 228.807935 
L 267.586672 228.807935 
L 267.586672 228.486682 
L 267.295893 228.162773 
L 267.010128 228.324727 
L 266.864739 228.645981 
L 266.719349 228.486682 
L 266.864739 228.162773 
L 266.719349 228.162773 
L 266.578973 228.486682 
L 266.578973 228.807935 
L 266.719349 228.807935 
L 266.719349 228.807935 
L 266.433584 228.645981 
L 266.142805 228.807935 
L 266.142805 229.129189 
L 266.433584 228.96989 
L 267.010128 228.162773 
L 267.010128 228.162773 
L 267.010128 228.324727 
L 266.719349 228.324727 
L 266.433584 228.162773 
L 266.142805 228.162773 
L 266.002429 228.486682 
L 266.288194 229.129189 
L 266.288194 228.645981 
L 266.142805 228.486682 
L 265.71165 228.645981 
L 264.989717 228.645981 
L 263.836628 228.162773 
L 259.655429 227.196357 
L 256.772708 227.037057 
L 253.313443 227.037057 
L 249.277634 226.875103 
L 244.66528 227.037057 
L 228.085874 228.645981 
L 209.345681 231.223976 
L 196.225541 233.801971 
L 189.592776 234.927687 
L 175.896091 236.860519 
L 169.554105 237.98889 
L 163.788663 239.27656 
L 158.308986 240.083676 
L 152.974699 240.566885 
L 147.500036 240.726184 
L 142.165748 241.050093 
L 136.971837 241.6926 
L 127.170586 242.337763 
L 118.808188 243.787387 
L 115.203534 244.108641 
L 111.889658 244.591849 
L 109.006937 244.591849 
L 106.264592 244.270595 
L 102.228782 243.466133 
L 100.789929 243.304179 
L 99.491451 243.466133 
L 97.330663 244.108641 
L 96.894495 244.432549 
L 96.894495 245.720219 
L 97.185274 246.203428 
L 97.330663 246.041473 
L 97.471039 246.362727 
L 98.047584 246.845935 
L 98.483752 246.845935 
L 98.914907 247.007889 
L 98.914907 247.653052 
L 98.769517 247.974306 
L 98.624128 247.974306 
L 98.192973 248.13626 
L 97.616429 248.619468 
L 96.46334 249.261976 
L 96.032186 249.907138 
L 95.455641 249.907138 
L 95.455641 250.552301 
L 95.310252 251.356762 
L 95.455641 251.194808 
L 95.310252 251.035509 
L 95.024487 251.194808 
L 94.447942 251.194808 
L 94.447942 251.356762 
L 95.601031 250.873554 
L 95.601031 250.390346 
L 95.310252 250.390346 
L 95.164863 251.518717 
L 95.164863 252.001925 
L 94.588318 252.485133 
L 94.302553 252.485133 
L 94.157164 252.161224 
L 94.157164 252.161224 
L 94.011774 252.161224 
L 93.43523 252.485133 
L 93.149465 253.12764 
L 92.858686 253.12764 
L 92.858686 252.968341 
L 92.858686 252.968341 
L 92.713296 252.806387 
L 93.004075 253.289595 
L 92.713296 253.289595 
L 92.282142 252.968341 
L 92.282142 252.644432 
L 92.57292 253.289595 
L 92.427531 253.610849 
L 91.996376 253.451549 
L 91.996376 253.451549 
L 92.282142 254.256011 
L 92.427531 254.094057 
L 92.282142 253.772803 
L 91.850987 253.451549 
L 91.996376 253.451549 
L 91.850987 253.610849 
L 91.705597 253.289595 
L 92.136752 253.451549 
L 91.705597 253.289595 
L 91.274443 253.289595 
L 91.274443 253.610849 
L 91.705597 253.610849 
L 91.705597 253.610849 
L 91.560208 253.772803 
L 91.560208 254.094057 
L 91.850987 254.739219 
L 91.705597 254.577265 
L 91.705597 253.772803 
L 91.850987 253.772803 
L 91.850987 253.772803 
L 91.560208 253.934757 
L 91.705597 253.934757 
L 91.996376 253.934757 
L 92.282142 254.417965 
L 92.57292 254.256011 
L 92.57292 254.094057 
L 91.560208 254.094057 
L 91.705597 253.772803 
L 92.282142 253.772803 
L 92.713296 253.934757 
L 92.713296 254.577265 
L 92.57292 254.901174 
L 92.282142 254.577265 
L 92.136752 254.739219 
L 92.136752 255.060473 
L 92.282142 255.222427 
L 92.282142 255.060473 
L 91.996376 254.577265 
L 92.282142 254.094057 
L 92.136752 254.094057 
L 91.705597 254.256011 
L 92.57292 253.934757 
L 92.427531 253.934757 
L 92.427531 254.094057 
L 92.427531 254.094057 
L 92.57292 253.772803 
L 92.282142 253.451549 
L 92.136752 253.772803 
L 92.427531 253.451549 
L 92.427531 253.610849 
L 91.996376 254.094057 
L 91.705597 254.094057 
L 91.850987 253.772803 
L 92.136752 253.772803 
L 92.282142 253.934757 
L 92.282142 253.772803 
L 92.282142 253.12764 
L 92.136752 253.12764 
L 91.996376 252.968341 
L 91.996376 252.968341 
L 92.282142 252.968341 
L 92.427531 253.12764 
L 92.282142 253.451549 
L 91.996376 253.610849 
L 91.705597 253.451549 
L 91.705597 253.12764 
L 91.560208 253.12764 
L 91.129053 253.289595 
L 91.129053 252.806387 
L 91.274443 252.001925 
L 91.705597 251.678016 
L 91.996376 252.323179 
L 92.136752 252.323179 
L 91.996376 252.161224 
L 91.419832 251.839971 
L 91.129053 251.839971 
L 91.274443 252.161224 
L 91.274443 252.001925 
L 91.274443 251.518717 
L 91.129053 251.035509 
L 91.560208 250.873554 
L 93.43523 250.552301 
L 94.733708 249.745184 
L 96.46334 248.940722 
L 99.200672 248.13626 
L 107.56307 246.041473 
L 118.808188 243.625433 
L 131.782939 239.759768 
L 138.992249 237.667636 
L 146.632713 235.572849 
L 154.418566 233.640017 
L 162.490185 232.028438 
L 178.202268 228.486682 
L 185.411577 226.553849 
L 192.911665 224.942271 
L 200.692505 223.654601 
L 223.037353 220.431443 
L 237.165192 217.856103 
L 244.229112 216.406479 
L 251.438421 215.116154 
L 258.938509 214.473646 
L 266.142805 213.990438 
L 273.352114 213.828484 
L 280.416034 213.828484 
L 287.479954 213.50723 
L 299.592396 212.540814 
L 304.781293 212.540814 
L 317.610655 213.024022 
L 320.493376 213.183322 
L 322.513788 213.183322 
L 324.24342 213.024022 
L 325.251119 212.37886 
L 325.396509 211.895652 
L 324.674575 211.895652 
L 321.501075 210.446027 
L 314.873324 209.479611 
L 313.429456 208.996403 
L 311.554434 208.834448 
L 311.268669 208.834448 
L 310.97789 208.996403 
L 311.699824 209.317657 
L 312.998302 209.317657 
L 313.574846 209.479611 
L 314.296779 210.124773 
L 314.727934 210.767281 
L 315.304478 210.124773 
L 315.735633 210.284073 
L 315.881023 210.929235 
L 315.590244 211.250489 
L 315.304478 210.767281 
L 315.449868 210.446027 
L 314.873324 210.284073 
L 314.296779 210.284073 
L 313.284067 210.767281 
L 313.720235 210.929235 
L 313.720235 210.929235 
L 313.574846 211.09119 
L 313.720235 210.929235 
L 313.574846 210.607982 
L 313.284067 211.412443 
L 313.429456 211.733697 
L 313.429456 211.574398 
L 314.006001 210.929235 
L 314.15139 211.250489 
L 314.15139 211.733697 
L 314.296779 211.574398 
L 314.437155 211.250489 
L 314.437155 211.412443 
L 314.437155 211.733697 
L 313.720235 211.412443 
L 313.720235 211.574398 
L 314.006001 211.733697 
L 314.15139 211.733697 
L 314.296779 211.895652 
L 314.006001 211.574398 
L 314.15139 211.574398 
L 313.860611 211.733697 
L 313.720235 211.412443 
L 313.574846 211.574398 
L 313.574846 212.057606 
L 313.720235 212.057606 
L 313.860611 212.216905 
L 313.860611 212.057606 
L 313.429456 211.250489 
L 313.860611 212.057606 
L 313.860611 212.37886 
L 313.143691 212.540814 
L 312.852912 211.733697 
L 313.143691 212.216905 
L 313.574846 211.412443 
L 313.429456 211.574398 
L 312.998302 212.057606 
L 312.707523 212.057606 
L 312.276368 212.216905 
L 312.421757 212.057606 
L 312.707523 211.412443 
L 312.852912 211.412443 
L 313.429456 211.250489 
L 313.143691 211.250489 
L 313.143691 211.895652 
L 313.284067 212.216905 
L 313.143691 212.216905 
L 312.707523 212.057606 
L 312.421757 211.574398 
L 312.421757 211.09119 
L 312.421757 211.250489 
L 312.567147 211.250489 
L 312.567147 211.250489 
L 311.699824 210.767281 
L 311.845213 210.607982 
L 312.130978 210.607982 
L 312.130978 210.929235 
L 311.990603 211.09119 
L 311.990603 210.767281 
L 312.421757 210.446027 
L 312.707523 210.607982 
L 312.998302 210.446027 
L 312.852912 210.124773 
L 312.276368 210.124773 
L 311.990603 209.962819 
L 311.990603 210.124773 
L 312.276368 210.284073 
L 312.852912 210.284073 
L 312.852912 210.284073 
L 312.852912 209.962819 
L 312.998302 209.479611 
L 312.852912 209.479611 
L 312.421757 209.317657 
L 312.130978 208.834448 
L 312.567147 209.641565 
L 312.567147 209.800865 
L 312.567147 209.800865 
L 312.421757 209.641565 
L 312.421757 209.317657 
L 312.852912 207.546779 
L 312.852912 206.901616 
L 311.699824 205.130738 
L 309.539036 200.619911 
L 305.788992 194.016951 
L 303.192037 189.991987 
L 300.309316 185.802413 
L 297.571984 180.487124 
L 294.834653 174.205419 
L 289.064197 161.482708 
L 286.326865 154.877094 
L 283.875299 148.274135 
L 281.283357 142.154384 
L 275.372526 129.752927 
L 272.630181 122.988014 
L 269.74746 116.3824 
L 266.719349 110.262649 
L 263.691239 104.626106 
L 260.522752 99.148862 
L 257.494642 94.157481 
L 249.854178 82.398532 
L 247.548001 78.694822 
L 245.963758 75.471664 
L 244.66528 72.413116 
L 243.512192 69.351913 
L 242.213714 66.773918 
L 241.060626 64.841086 
L 240.338692 63.232162 
L 240.193303 61.29933 
L 239.330993 58.400081 
L 238.754449 57.754919 
L 238.177905 57.916873 
L 238.032515 58.076172 
L 238.46367 57.592964 
L 238.609059 57.271711 
L 238.46367 57.271711 
L 238.032515 57.592964 
L 238.032515 58.076172 
L 238.177905 58.559381 
L 238.46367 58.883289 
L 239.185604 60.332914 
L 239.040214 60.332914 
L 238.609059 60.332914 
L 238.177905 60.492213 
L 238.177905 60.170959 
L 238.46367 60.009005 
L 238.032515 59.849705 
L 237.455971 59.204543 
L 237.165192 59.366497 
L 236.879427 59.366497 
L 236.879427 59.042589 
L 237.455971 58.238127 
L 237.165192 57.433665 
L 236.879427 57.109756 
L 237.455971 57.916873 
L 237.310582 57.916873 
L 237.165192 57.754919 
L 237.310582 57.916873 
L 237.455971 58.559381 
L 237.310582 58.721335 
L 237.024816 57.754919 
L 236.448272 58.400081 
L 236.588648 58.559381 
L 236.588648 58.559381 
L 236.734037 58.076172 
L 236.302883 58.076172 
L 236.302883 57.916873 
L 236.734037 57.271711 
L 236.734037 57.109756 
L 236.448272 57.592964 
L 236.588648 57.592964 
L 236.302883 57.916873 
L 236.012104 58.076172 
L 236.012104 57.754919 
L 236.588648 57.109756 
L 236.734037 57.433665 
L 236.588648 57.592964 
L 236.302883 57.592964 
L 236.157493 57.109756 
L 236.302883 57.109756 
L 236.302883 57.916873 
L 236.302883 57.754919 
L 236.448272 57.592964 
L 236.012104 57.916873 
L 236.302883 57.916873 
L 236.734037 57.754919 
L 236.157493 58.238127 
L 235.43556 58.559381 
L 235.726338 58.721335 
L 236.012104 57.916873 
L 236.302883 57.592964 
L 236.448272 57.754919 
L 235.871728 57.916873 
L 235.580949 57.592964 
L 235.726338 57.271711 
L 236.012104 57.109756 
L 235.871728 57.271711 
L 235.871728 57.592964 
L 236.734037 57.754919 
L 236.157493 57.754919 
L 235.580949 58.076172 
L 235.726338 58.400081 
L 235.726338 58.238127 
L 235.726338 57.754919 
L 235.871728 57.433665 
L 235.871728 57.592964 
L 236.302883 57.592964 
L 236.302883 57.916873 
L 235.580949 58.238127 
L 235.580949 58.238127 
L 235.580949 58.400081 
L 236.012104 58.721335 
L 236.012104 58.559381 
L 236.448272 57.754919 
L 236.448272 57.754919 
L 236.012104 59.042589 
L 236.157493 59.204543 
L 236.302883 59.042589 
L 236.302883 59.366497 
L 236.157493 59.366497 
L 236.157493 59.204543 
L 236.302883 58.559381 
L 236.157493 59.204543 
L 236.588648 59.204543 
L 236.448272 59.204543 
L 236.157493 58.883289 
L 236.157493 58.883289 
L 235.871728 59.204543 
L 235.871728 59.687751 
L 235.580949 60.492213 
L 235.43556 60.170959 
L 235.580949 59.525797 
L 235.580949 58.883289 
L 235.871728 58.883289 
L 236.448272 59.687751 
L 236.588648 59.687751 
L 236.448272 59.366497 
L 236.448272 59.366497 
L 236.302883 59.366497 
L 236.012104 59.525797 
L 235.726338 59.849705 
L 236.157493 59.366497 
L 236.448272 59.366497 
L 236.012104 59.366497 
L 235.726338 59.687751 
L 235.149794 59.849705 
L 234.71864 59.687751 
L 235.004405 59.525797 
L 235.871728 59.204543 
L 236.448272 59.204543 
L 236.588648 59.366497 
L 236.157493 59.204543 
L 235.871728 59.366497 
L 235.43556 59.687751 
L 235.43556 58.721335 
L 235.149794 59.204543 
L 235.43556 59.204543 
L 235.871728 59.366497 
L 235.871728 59.849705 
L 235.580949 60.009005 
L 235.149794 59.849705 
L 235.149794 59.687751 
L 235.580949 59.849705 
L 235.580949 59.687751 
L 235.295184 59.525797 
L 235.580949 59.525797 
L 235.295184 59.687751 
L 235.43556 59.525797 
L 235.580949 59.042589 
L 235.43556 59.204543 
L 235.43556 58.559381 
L 235.43556 58.559381 
L 235.580949 59.042589 
L 235.295184 59.204543 
L 235.295184 59.042589 
L 235.43556 59.204543 
L 235.295184 59.204543 
L 235.149794 59.204543 
L 235.004405 58.883289 
L 235.149794 58.883289 
L 234.71864 58.883289 
L 234.71864 59.042589 
L 234.859015 59.042589 
L 234.859015 59.525797 
L 235.149794 59.042589 
L 234.57325 58.721335 
L 234.57325 58.400081 
L 234.71864 58.400081 
L 235.149794 58.559381 
L 235.149794 59.366497 
L 235.295184 59.525797 
L 235.149794 59.525797 
L 234.859015 59.366497 
L 234.859015 59.204543 
L 235.004405 59.204543 
L 235.43556 59.687751 
L 235.580949 59.366497 
L 235.43556 58.883289 
L 234.859015 58.400081 
L 234.859015 58.721335 
L 234.71864 59.204543 
L 234.427861 59.687751 
L 233.996706 59.687751 
L 232.698228 58.721335 
L 231.254361 57.916873 
L 226.787397 56.14334 
L 223.759286 55.500832 
L 212.804946 54.051208 
L 208.623748 53.727299 
L 204.442549 53.568 
L 195.503607 53.568 
L 188.008532 54.693716 
L 184.549267 55.017624 
L 180.944613 55.660132 
L 177.625723 57.109756 
L 174.602626 59.042589 
L 171.574516 60.816122 
L 168.401016 62.265746 
L 165.08714 63.391462 
L 162.204419 64.681787 
L 159.752853 66.131411 
L 157.446676 68.064243 
L 154.99511 70.480284 
L 152.398155 72.73437 
L 143.749992 78.532867 
L 137.408005 85.459735 
L 135.964138 87.713822 
L 134.66566 89.967908 
L 132.359484 95.123898 
L 131.928329 96.411568 
L 131.928329 99.310816 
L 132.214094 102.210065 
L 132.790638 104.142897 
L 132.790638 105.109314 
L 132.936028 106.235029 
L 132.790638 106.558938 
L 132.790638 106.558938 
L 132.504873 106.235029 
L 132.214094 105.592522 
L 132.214094 105.109314 
L 132.214094 105.109314 
L 131.63755 104.464151 
L 131.061006 104.302197 
L 130.77524 105.268613 
L 130.77524 105.751821 
L 130.344086 107.525354 
L 130.344086 107.3634 
L 130.629851 107.3634 
L 130.484462 107.846608 
L 129.622152 108.49177 
L 129.476763 108.813024 
L 129.622152 109.134278 
L 130.053307 109.458187 
L 129.907917 109.77944 
L 129.622152 109.941395 
L 129.622152 110.100694 
L 129.767541 109.941395 
L 130.053307 109.941395 
L 130.198696 110.424603 
L 129.767541 110.583902 
L 129.190997 110.424603 
L 128.900218 110.100694 
L 129.190997 109.941395 
L 129.476763 110.100694 
L 129.331373 110.583902 
L 128.900218 111.06711 
L 128.900218 110.745857 
L 129.331373 110.583902 
L 129.476763 110.745857 
L 129.476763 111.229065 
L 129.190997 111.712273 
L 128.614453 111.712273 
L 128.754829 111.874227 
L 128.469064 112.678689 
L 128.469064 112.516735 
L 128.900218 112.840643 
L 128.614453 112.678689 
L 128.323674 112.840643 
L 128.323674 113.161897 
L 128.178285 113.483151 
L 128.037909 113.161897 
L 128.323674 113.161897 
L 128.323674 113.323852 
L 128.469064 113.483151 
L 128.037909 113.161897 
L 127.892519 113.483151 
L 128.178285 114.773476 
L 128.178285 114.773476 
L 127.461365 114.773476 
L 127.461365 114.932775 
L 127.892519 114.932775 
L 127.461365 115.09473 
L 126.017497 116.2231 
L 122.267453 120.410019 
L 118.522423 126.853679 
L 117.223945 129.912227 
L 116.070857 133.618592 
L 114.195835 141.509221 
L 113.76468 145.698795 
L 113.188136 150.206968 
L 111.744268 159.066668 
L 110.014636 168.568876 
L 107.999238 176.46216 
L 107.131915 180.003916 
L 105.111503 185.802413 
L 104.103804 188.701662 
L 102.950716 191.441611 
L 102.228782 193.533743 
L 101.797628 195.307276 
L 101.075694 196.9162 
L 100.358774 198.20387 
L 99.922606 199.332241 
L 99.78223 200.460611 
L 99.491451 201.748281 
L 98.769517 202.876652 
L 98.192973 204.326276 
L 97.907208 205.9352 
L 97.616429 206.901616 
L 97.039885 207.225525 
L 96.754119 207.546779 
L 97.185274 208.029987 
L 97.471039 208.834448 
L 95.886796 211.574398 
L 94.879097 212.700113 
L 94.733708 213.183322 
L 94.302553 213.66653 
L 94.157164 214.149738 
L 94.157164 215.116154 
L 94.302553 216.08257 
L 94.011774 216.244525 
L 93.43523 216.08257 
L 92.57292 216.406479 
L 92.282142 217.210941 
L 92.282142 217.856103 
L 92.427531 218.339311 
L 92.427531 218.822519 
L 92.136752 219.465027 
L 92.136752 220.110189 
L 92.57292 220.431443 
L 92.57292 220.272144 
L 92.427531 220.272144 
L 91.996376 220.593398 
L 91.419832 222.043022 
L 90.983664 222.364276 
L 90.983664 222.52623 
L 90.983664 222.52623 
L 90.843288 222.52623 
L 90.552509 222.688184 
L 90.266744 223.009438 
L 90.266744 223.8139 
L 89.399421 224.780316 
L 89.254031 225.425479 
L 89.54481 225.746732 
L 89.54481 226.070641 
L 89.690199 226.229941 
L 89.399421 226.391895 
L 88.968266 226.070641 
L 88.968266 225.908687 
L 88.822876 226.070641 
L 87.960567 229.129189 
L 87.384023 229.129189 
L 87.384023 229.129189 
L 87.524399 229.453098 
L 87.815177 229.612397 
L 87.815177 229.936306 
L 87.384023 230.419514 
L 86.947854 230.740768 
L 87.238633 231.223976 
L 86.662089 231.54523 
L 86.662089 231.869139 
L 86.37131 232.6736 
L 86.662089 233.478062 
L 86.662089 233.478062 
L 86.37131 233.478062 
L 86.225921 233.801971 
L 86.225921 234.444478 
L 86.085545 234.444478 
L 86.085545 234.285179 
L 86.085545 234.444478 
L 85.940155 234.927687 
L 86.37131 235.734803 
L 86.5167 235.734803 
L 86.225921 235.251595 
L 85.649377 236.056057 
L 85.649377 236.860519 
L 85.363611 237.022473 
L 85.072832 236.860519 
L 85.218222 236.860519 
L 85.363611 236.860519 
L 85.072832 236.539265 
L 85.218222 236.70122 
L 85.218222 237.022473 
L 85.072832 237.022473 
L 84.932456 236.860519 
L 84.641678 236.860519 
L 84.496288 236.70122 
L 84.787067 237.022473 
L 84.641678 237.505681 
L 84.641678 237.98889 
L 85.072832 238.310143 
L 84.787067 238.150844 
L 84.496288 238.472098 
L 84.355912 238.310143 
L 84.641678 238.310143 
L 85.072832 239.438514 
L 84.932456 239.438514 
L 84.787067 239.600468 
L 84.787067 240.083676 
L 84.641678 240.242976 
L 84.355912 240.242976 
L 84.355912 240.242976 
L 83.919744 239.921722 
L 83.919744 240.083676 
L 84.210523 240.888138 
L 83.919744 241.371346 
L 83.919744 241.6926 
L 83.633979 241.854555 
L 83.3432 241.6926 
L 83.057434 241.6926 
L 83.3432 241.6926 
L 84.065133 242.016509 
L 83.919744 241.854555 
L 83.633979 241.050093 
L 83.057434 241.6926 
L 83.202824 242.016509 
L 83.633979 242.016509 
L 84.210523 241.854555 
L 85.363611 242.016509 
L 88.968266 242.820971 
L 91.996376 243.142224 
L 100.644539 243.142224 
L 106.264592 242.982925 
L 112.611591 243.142224 
L 136.254917 244.270595 
L 144.757691 244.915758 
L 153.696632 245.879519 
L 163.066729 247.491097 
L 182.097701 251.356762 
L 191.467798 253.12764 
L 200.692505 254.739219 
L 209.776836 256.188844 
L 227.363941 259.409346 
L 236.157493 261.182879 
L 244.66528 262.632503 
L 260.668142 264.724635 
L 268.017827 265.691051 
L 274.936357 266.819422 
L 281.569122 268.107092 
L 288.201888 269.235463 
L 311.554434 272.617919 
L 316.457567 273.101127 
L 320.784155 274.067544 
L 324.383796 275.03396 
L 327.271531 276.000376 
L 330.294627 276.804838 
L 330.730796 276.645539 
L 330.585406 276.804838 
L 326.980752 276.966792 
L 325.10573 276.645539 
L 321.646465 276.32163 
L 320.347987 276.000376 
L 317.465266 275.679122 
L 316.312177 275.679122 
L 315.735633 275.517168 
L 315.735633 275.517168 
L 315.881023 275.838422 
L 316.312177 276.483584 
L 316.888722 276.966792 
L 318.763744 278.095163 
L 319.340288 278.578371 
L 319.485677 278.899625 
L 319.485677 278.73767 
L 319.631067 278.578371 
L 320.347987 278.578371 
L 320.493376 278.73767 
L 320.493376 279.061579 
L 320.062221 279.061579 
L 318.909133 279.704087 
L 318.618354 280.187295 
L 318.187199 280.349249 
L 317.89642 280.187295 
L 316.457567 280.670503 
L 316.602956 280.832457 
L 316.602956 280.832457 
L 316.026412 281.47762 
L 316.026412 281.636919 
L 316.166788 281.47762 
L 316.602956 281.47762 
L 317.1795 282.120127 
L 317.034111 282.282082 
L 316.312177 282.282082 
L 316.166788 281.960828 
L 316.312177 282.120127 
L 316.888722 282.444036 
L 316.457567 282.444036 
L 316.457567 283.248498 
L 316.166788 283.410452 
L 315.881023 283.086543 
L 316.457567 283.731706 
L 316.312177 284.214914 
L 315.881023 284.860077 
L 315.449868 285.18133 
L 315.304478 284.698122 
L 315.304478 284.214914 
L 315.590244 284.698122 
L 315.590244 285.019376 
L 315.735633 285.343285 
L 315.449868 285.343285 
L 315.735633 285.502584 
L 316.026412 285.826493 
L 315.881023 285.985792 
L 315.590244 285.826493 
L 315.881023 285.826493 
L 316.166788 285.985792 
L 315.735633 285.826493 
L 315.881023 285.826493 
L 316.166788 285.826493 
L 316.166788 285.502584 
L 316.166788 285.664538 
L 315.735633 285.985792 
L 315.304478 285.985792 
L 315.449868 286.147746 
L 316.026412 286.469 
L 315.735633 286.309701 
L 315.590244 286.630955 
L 315.590244 286.309701 
L 316.026412 287.114163 
L 315.881023 287.276117 
L 315.449868 286.952208 
L 315.590244 286.952208 
L 315.735633 286.952208 
L 315.449868 287.114163 
L 315.013699 287.114163 
L 315.159089 287.435416 
L 315.013699 287.435416 
L 315.013699 287.759325 
L 315.159089 287.759325 
L 315.304478 287.597371 
L 314.727934 288.401833 
L 314.582545 288.080579 
L 314.727934 287.435416 
L 315.159089 287.276117 
L 315.159089 287.435416 
L 315.013699 287.597371 
L 315.159089 287.597371 
L 315.881023 287.759325 
L 318.618354 287.759325 
L 320.638766 287.435416 
L 326.549597 287.435416 
L 330.871172 287.276117 
L 335.628915 287.435416 
L 340.963202 288.080579 
L 346.733657 288.563787 
L 353.075644 288.725741 
L 366.195784 289.692158 
L 371.961226 289.851457 
L 377.581279 290.334665 
L 382.770177 291.463036 
L 387.242154 292.591406 
L 390.701419 293.074614 
L 393.438751 292.91266 
L 395.604552 292.91266 
L 397.043406 293.717122 
L 397.765339 294.521584 
L 398.196494 294.521584 
L 398.487273 294.362284 
L 398.196494 294.521584 
L 397.61995 294.683538 
L 396.035707 294.683538 
L 395.313773 294.521584 
L 393.72953 293.879076 
L 392.721831 293.717122 
L 391.423353 292.91266 
L 390.846809 293.557823 
L 390.701419 293.233914 
L 390.270265 292.591406 
L 389.979486 292.429452 
L 390.124875 292.750706 
L 390.55603 293.233914 
L 390.987185 293.395868 
L 391.423353 293.074614 
L 391.423353 293.395868 
L 391.568742 293.557823 
L 391.854508 292.429452 
L 391.423353 292.108198 
L 391.423353 291.784289 
L 390.124875 291.141782 
L 389.548331 291.141782 
L 388.826397 291.784289 
L 388.249853 290.979828 
L 387.964088 290.496619 
L 387.818698 290.496619 
L 387.673309 290.658574 
L 388.826397 291.946244 
L 388.681008 291.946244 
L 389.69372 292.591406 
L 389.402942 292.591406 
L 388.971787 292.750706 
L 389.257552 293.074614 
L 390.410641 293.395868 
L 390.846809 293.395868 
L 390.987185 293.557823 
L 390.846809 293.717122 
L 390.270265 293.395868 
L 390.55603 293.717122 
L 390.55603 293.879076 
L 389.979486 293.879076 
L 389.979486 293.717122 
L 390.410641 293.395868 
L 390.846809 293.395868 
L 390.987185 293.557823 
L 390.55603 293.879076 
L 390.701419 294.041031 
L 390.987185 294.041031 
L 390.987185 294.041031 
L 390.55603 294.683538 
L 390.55603 295.004792 
L 390.846809 293.233914 
L 390.846809 293.395868 
L 390.701419 293.395868 
L 390.701419 294.683538 
L 390.55603 294.683538 
L 390.55603 294.845493 
L 390.55603 294.845493 
L 390.270265 294.845493 
L 390.270265 294.683538 
L 390.846809 294.362284 
L 390.987185 294.041031 
L 390.987185 293.717122 
L 390.55603 294.362284 
L 390.701419 294.20033 
L 390.701419 293.717122 
L 390.55603 293.395868 
L 390.270265 294.041031 
L 390.410641 293.879076 
L 390.701419 293.879076 
L 390.701419 294.041031 
L 390.846809 294.041031 
L 390.846809 294.041031 
L 390.701419 294.20033 
L 390.410641 294.041031 
L 390.55603 294.362284 
L 390.270265 294.362284 
L 390.124875 294.521584 
L 390.124875 294.845493 
L 390.124875 294.362284 
L 390.124875 294.362284 
L 389.979486 294.683538 
L 389.979486 295.004792 
L 390.410641 294.845493 
L 390.846809 294.845493 
L 390.987185 294.683538 
L 390.846809 294.521584 
L 390.55603 294.362284 
L 390.270265 294.521584 
L 390.124875 294.362284 
L 390.124875 293.717122 
L 390.270265 293.717122 
L 390.270265 293.879076 
L 390.270265 293.717122 
L 390.410641 293.557823 
L 390.270265 293.557823 
L 389.979486 293.717122 
L 389.69372 294.041031 
L 389.69372 294.362284 
L 389.979486 294.362284 
L 390.270265 294.521584 
L 390.124875 294.362284 
L 390.270265 293.717122 
L 389.979486 293.717122 
L 389.834096 293.557823 
L 390.410641 294.20033 
L 390.124875 293.717122 
L 389.834096 293.074614 
L 389.979486 293.074614 
L 390.124875 293.233914 
L 389.834096 293.717122 
L 389.979486 293.717122 
L 389.979486 293.879076 
L 389.69372 293.879076 
L 389.548331 293.557823 
L 389.402942 293.717122 
L 389.69372 294.041031 
L 389.979486 293.557823 
L 390.124875 293.233914 
L 390.410641 293.233914 
L 390.410641 293.557823 
L 390.124875 293.879076 
L 389.834096 293.879076 
L 389.834096 293.717122 
L 390.124875 293.717122 
L 390.410641 293.879076 
L 390.410641 294.362284 
L 390.270265 294.683538 
L 390.410641 294.20033 
L 389.548331 295.004792 
L 389.402942 295.004792 
L 389.257552 294.521584 
L 389.402942 293.557823 
L 389.402942 294.041031 
L 389.834096 294.362284 
L 389.834096 294.20033 
L 389.979486 294.20033 
L 390.270265 294.845493 
L 390.270265 295.488 
L 389.979486 295.328701 
L 389.69372 294.683538 
L 389.402942 294.845493 
L 389.257552 294.683538 
L 389.548331 294.845493 
L 389.834096 294.845493 
L 389.834096 294.683538 
L 389.69372 295.004792 
L 389.834096 294.845493 
L 390.270265 294.362284 
L 389.979486 294.521584 
L 389.548331 294.521584 
L 389.548331 294.20033 
L 389.257552 294.20033 
L 389.257552 294.362284 
L 389.834096 294.521584 
L 389.69372 294.521584 
L 389.69372 294.362284 
L 389.979486 294.362284 
L 389.117176 294.362284 
L 388.540632 294.521584 
L 387.818698 294.362284 
L 386.810999 293.717122 
L 384.645199 293.395868 
L 381.617088 293.233914 
L 377.726668 292.591406 
L 372.968925 291.62499 
L 367.634638 290.658574 
L 361.438041 290.013411 
L 354.659887 289.046995 
L 339.669738 286.469 
L 321.791854 284.536168 
L 312.276368 283.731706 
L 302.760882 283.410452 
L 293.245396 283.410452 
L 284.020689 283.731706 
L 274.795982 283.248498 
L 255.765009 281.636919 
L 245.963758 281.47762 
L 236.157493 280.994412 
L 226.501631 280.027995 
L 208.332969 277.45 
L 199.684806 276.645539 
L 190.745864 276.000376 
L 182.24309 274.712706 
L 174.026082 273.263082 
L 166.094839 272.296666 
L 158.308986 271.006341 
L 150.668522 269.397417 
L 142.882669 267.947793 
L 135.242205 266.819422 
L 127.892519 265.531752 
L 120.68321 264.565336 
L 113.910069 263.436965 
L 107.56307 262.149295 
L 101.652238 261.342178 
L 96.177575 260.85897 
L 84.641678 258.604884 
L 81.613567 258.121676 
L 78.585457 257.317214 
L 74.549647 256.510097 
L 74.549647 256.350798 
L 75.126192 256.510097 
L 75.848125 256.510097 
L 76.715448 256.026889 
L 77.577758 255.705635 
L 81.613567 256.350798 
L 82.335501 256.993305 
L 82.62628 257.476513 
L 82.766656 257.476513 
L 82.48089 257.638468 
L 82.049735 258.121676 
L 81.327802 259.892554 
L 80.751258 260.216463 
L 79.883935 260.375762 
L 78.876236 260.699671 
L 77.723147 261.504133 
L 77.432368 261.342178 
L 77.001214 261.342178 
L 76.27928 261.020925 
L 76.138904 261.020925 
L 76.138904 261.182879 
L 75.993515 260.85897 
L 75.993515 260.537717 
L 76.27928 260.054508 
L 76.424669 260.054508 
L 76.855824 260.375762 
L 77.291992 260.699671 
L 77.723147 260.699671 
L 78.299691 260.375762 
L 78.154302 260.537717 
L 78.008913 260.85897 
L 77.432368 261.020925 
L 77.577758 260.85897 
L 77.291992 260.699671 
L 76.855824 260.699671 
L 76.27928 261.020925 
L 76.424669 260.85897 
L 76.424669 260.85897 
L 76.424669 261.342178 
L 76.424669 260.699671 
L 76.27928 260.699671 
L 76.27928 261.342178 
L 76.138904 261.182879 
L 76.138904 260.537717 
L 76.27928 260.537717 
L 76.424669 260.699671 
L 75.993515 260.85897 
L 75.56236 261.342178 
L 75.702736 261.504133 
L 76.138904 261.342178 
L 76.138904 261.987341 
L 75.848125 261.504133 
L 75.848125 261.342178 
L 75.993515 261.342178 
L 75.993515 261.504133 
L 74.985816 261.825386 
L 75.126192 261.825386 
L 75.41697 262.308595 
L 75.56236 262.953757 
L 75.56236 262.953757 
L 75.848125 262.632503 
L 75.848125 262.149295 
L 75.41697 261.987341 
L 75.271581 261.987341 
L 75.271581 262.470549 
L 75.702736 263.275011 
L 75.848125 263.115711 
L 75.848125 262.791803 
L 75.702736 262.953757 
L 75.702736 262.791803 
L 75.702736 262.470549 
L 75.56236 262.470549 
L 75.56236 262.470549 
L 75.56236 262.953757 
L 75.702736 263.275011 
L 75.56236 263.275011 
L 75.271581 263.115711 
L 74.985816 262.470549 
L 75.271581 262.470549 
L 75.56236 262.953757 
L 75.56236 263.275011 
L 75.56236 262.953757 
L 75.702736 262.308595 
L 75.56236 262.632503 
L 75.56236 261.987341 
L 75.41697 261.825386 
L 75.41697 262.149295 
L 74.840426 262.953757 
L 74.695037 262.953757 
L 74.695037 262.953757 
L 75.41697 263.59892 
L 74.985816 263.275011 
L 74.840426 263.275011 
L 74.985816 263.275011 
L 75.41697 263.115711 
L 75.848125 263.115711 
L 75.993515 263.275011 
L 75.848125 263.59892 
L 75.41697 263.436965 
L 75.702736 263.115711 
L 76.27928 263.275011 
L 76.570059 263.920173 
L 76.570059 264.403381 
L 76.570059 264.082128 
L 76.27928 263.758219 
L 75.848125 263.758219 
L 75.848125 263.758219 
L 75.993515 263.59892 
L 75.848125 263.758219 
L 75.41697 263.758219 
L 75.41697 263.59892 
L 75.56236 263.436965 
L 75.126192 263.115711 
L 75.126192 263.758219 
L 75.126192 263.758219 
L 75.271581 263.758219 
L 75.41697 263.920173 
L 75.126192 264.082128 
L 75.56236 263.59892 
L 75.56236 263.758219 
L 75.271581 263.59892 
L 75.126192 264.241427 
L 75.41697 264.88659 
L 75.56236 264.88659 
L 75.41697 264.724635 
L 75.41697 264.88659 
L 75.56236 265.207843 
L 75.702736 265.207843 
L 76.138904 264.403381 
L 75.993515 264.403381 
L 75.126192 264.082128 
L 75.56236 264.403381 
L 75.126192 264.88659 
L 75.271581 264.88659 
L 75.271581 265.048544 
L 75.41697 264.88659 
L 75.41697 264.565336 
L 75.271581 264.724635 
L 75.271581 265.207843 
L 75.41697 265.531752 
L 75.56236 265.048544 
L 75.126192 264.403381 
L 75.126192 264.88659 
L 75.271581 265.207843 
L 75.271581 264.724635 
L 75.271581 264.724635 
L 74.985816 264.724635 
L 74.985816 264.88659 
L 75.126192 265.369798 
L 74.985816 265.531752 
L 74.985816 265.369798 
L 74.985816 265.207843 
L 74.549647 265.207843 
L 74.549647 264.88659 
L 74.549647 264.88659 
L 74.263882 265.369798 
L 74.549647 265.691051 
L 74.840426 265.531752 
L 74.695037 265.048544 
L 75.126192 265.048544 
L 75.271581 265.369798 
L 74.985816 266.17426 
L 74.695037 266.01496 
L 74.840426 265.691051 
L 74.840426 265.691051 
L 75.271581 265.691051 
L 74.695037 265.691051 
L 74.695037 266.01496 
L 74.263882 266.01496 
L 74.263882 266.498168 
L 74.409271 266.819422 
L 74.409271 266.657468 
L 74.409271 266.17426 
L 74.549647 266.01496 
L 74.695037 266.336214 
L 74.549647 266.336214 
L 74.549647 266.336214 
L 74.409271 266.498168 
L 74.549647 266.498168 
L 75.126192 265.853006 
L 74.263882 266.819422 
L 74.409271 266.657468 
L 74.409271 266.17426 
L 74.263882 266.336214 
L 74.549647 266.498168 
L 74.695037 265.369798 
L 74.549647 265.691051 
L 74.840426 266.336214 
L 74.985816 266.498168 
L 74.840426 266.657468 
L 74.549647 266.657468 
L 73.973103 266.17426 
L 73.832727 266.336214 
L 73.973103 266.336214 
L 74.263882 266.336214 
L 74.549647 265.853006 
L 74.840426 266.01496 
L 74.840426 266.336214 
L 74.840426 266.01496 
L 75.702736 261.182879 
L 77.291992 257.476513 
L 78.730846 255.060473 
L 83.633979 247.812351 
L 90.266744 238.793351 
L 93.580619 233.96127 
L 97.330663 228.807935 
L 101.797628 223.654601 
L 106.124216 218.015403 
L 110.305415 212.057606 
L 114.195835 206.259109 
L 121.836299 195.466576 
L 128.323674 185.643114 
L 130.92063 181.132287 
L 133.081417 176.300206 
L 135.242205 172.113287 
L 137.408005 168.73083 
L 143.318837 160.9995 
L 145.479624 158.58346 
L 154.99511 149.885714 
L 156.002809 148.598044 
L 156.433964 147.631628 
L 156.433964 146.986465 
L 155.717044 145.053633 
L 155.1405 144.087216 
L 154.273177 143.442054 
L 153.551243 143.442054 
L 152.688933 143.765963 
L 151.82161 144.249171 
L 149.370044 144.732379 
L 149.084279 145.215587 
L 149.370044 145.536841 
L 149.806212 145.858094 
L 149.515434 146.341303 
L 149.806212 146.341303 
L 150.668522 146.986465 
L 150.959301 146.986465 
L 150.959301 146.824511 
L 151.82161 145.698795 
L 151.676221 145.374886 
L 151.676221 145.374886 
L 151.390456 145.374886 
L 151.390456 145.374886 
L 151.676221 145.536841 
L 151.676221 145.374886 
L 151.535845 145.374886 
L 151.099677 145.215587 
L 150.668522 145.374886 
L 150.813911 145.536841 
L 150.813911 145.536841 
L 150.382757 145.374886 
L 149.946588 145.374886 
L 149.806212 145.536841 
L 150.813911 146.182003 
L 150.668522 146.341303 
L 150.382757 145.858094 
L 150.382757 146.020049 
L 150.237367 146.182003 
L 149.946588 145.698795 
L 149.946588 145.698795 
L 150.237367 145.858094 
L 150.523133 146.503257 
L 150.523133 146.182003 
L 150.237367 145.698795 
L 149.806212 145.536841 
L 149.946588 145.215587 
L 150.382757 144.570425 
L 150.237367 144.570425 
L 150.813911 145.053633 
L 150.813911 145.053633 
L 150.813911 144.732379 
L 150.959301 144.732379 
L 150.959301 144.891678 
L 150.813911 145.374886 
L 150.668522 144.891678 
L 150.813911 144.570425 
L 150.959301 144.570425 
L 150.813911 144.570425 
L 150.813911 144.249171 
L 151.099677 143.604008 
L 151.099677 143.765963 
L 151.099677 144.087216 
L 150.959301 144.087216 
L 150.668522 143.925262 
L 150.668522 143.604008 
L 150.091978 144.087216 
L 150.091978 143.604008 
L 150.237367 143.604008 
L 150.237367 144.40847 
L 150.382757 144.570425 
L 150.382757 143.282755 
L 150.091978 142.958846 
L 149.660823 143.282755 
L 149.515434 143.765963 
L 149.806212 144.249171 
L 149.806212 144.087216 
L 149.515434 144.087216 
L 149.370044 144.249171 
L 149.660823 144.732379 
L 149.515434 144.40847 
L 149.515434 144.087216 
L 149.229668 143.925262 
L 149.229668 144.087216 
L 149.660823 144.249171 
L 149.660823 143.765963 
L 148.938889 143.604008 
L 148.938889 144.249171 
L 148.938889 143.925262 
L 149.084279 143.765963 
L 149.370044 143.925262 
L 149.370044 144.249171 
L 148.938889 144.249171 
L 148.653124 143.925262 
L 148.507735 144.087216 
L 148.507735 144.40847 
L 149.370044 145.374886 
L 149.515434 145.053633 
L 148.938889 143.925262 
L 149.084279 144.249171 
L 149.515434 144.732379 
L 149.806212 144.732379 
L 149.515434 144.732379 
L 148.938889 144.891678 
L 148.653124 144.732379 
L 148.653124 144.40847 
L 148.7935 144.570425 
L 148.7935 145.374886 
L 148.938889 145.698795 
L 148.7935 145.698795 
L 148.653124 145.374886 
L 148.653124 145.374886 
L 149.229668 145.374886 
L 149.229668 146.020049 
L 149.084279 146.341303 
L 149.084279 146.503257 
L 149.084279 146.341303 
L 148.938889 146.341303 
L 148.653124 146.503257 
L 148.362345 146.503257 
L 148.7935 146.020049 
L 148.938889 146.182003 
L 148.507735 146.824511 
L 148.653124 146.665211 
L 148.7935 146.665211 
L 148.938889 146.986465 
L 148.7935 146.824511 
L 148.7935 146.986465 
L 148.938889 147.307719 
L 148.938889 147.307719 
L 149.515434 147.307719 
L 149.515434 147.469673 
L 149.084279 147.631628 
L 148.653124 147.631628 
L 148.507735 147.469673 
L 148.362345 146.986465 
L 148.507735 146.665211 
L 148.7935 146.824511 
L 149.084279 147.307719 
L 149.229668 147.790927 
L 149.084279 148.114836 
L 148.938889 148.114836 
L 148.653124 147.952881 
L 148.7935 148.114836 
L 149.084279 147.952881 
L 149.660823 147.952881 
L 149.806212 148.114836 
L 149.806212 147.952881 
L 149.660823 147.631628 
L 149.660823 147.631628 
L 149.515434 147.631628 
L 148.938889 148.436089 
L 148.938889 148.274135 
L 148.938889 147.790927 
L 149.084279 147.469673 
L 149.084279 147.148419 
L 149.084279 147.307719 
L 148.938889 147.952881 
L 148.938889 147.631628 
L 148.7935 147.469673 
L 149.084279 147.790927 
L 149.084279 148.114836 
L 148.938889 148.436089 
L 149.084279 148.436089 
L 149.229668 148.274135 
L 149.370044 147.631628 
L 149.229668 147.469673 
L 149.229668 148.274135 
L 149.229668 147.307719 
L 149.370044 147.307719 
L 149.370044 147.469673 
L 149.515434 147.469673 
L 149.229668 147.469673 
L 148.653124 147.631628 
L 148.507735 147.469673 
L 149.370044 147.790927 
L 149.229668 148.114836 
L 149.084279 148.114836 
L 149.084279 147.307719 
L 149.229668 147.148419 
L 149.370044 146.824511 
L 149.229668 146.824511 
L 148.7935 147.469673 
L 149.084279 147.469673 
L 149.806212 146.986465 
L 149.660823 146.824511 
L 148.938889 147.148419 
L 149.084279 147.148419 
L 149.806212 147.631628 
L 149.946588 147.307719 
L 149.515434 146.986465 
L 149.515434 146.986465 
L 149.660823 147.469673 
L 149.660823 147.469673 
L 149.806212 147.148419 
L 150.091978 147.307719 
L 150.091978 147.952881 
L 149.370044 148.436089 
L 149.660823 148.114836 
L 149.370044 147.952881 
L 149.084279 147.952881 
L 149.229668 148.274135 
L 149.660823 148.436089 
L 149.806212 148.114836 
L 149.660823 147.790927 
L 149.515434 147.790927 
L 149.660823 147.790927 
L 149.806212 147.952881 
L 150.382757 147.952881 
L 150.382757 148.114836 
L 150.091978 148.436089 
L 149.370044 148.114836 
L 149.370044 147.790927 
L 149.660823 147.790927 
L 149.806212 147.952881 
L 149.660823 147.952881 
L 149.660823 148.114836 
L 149.515434 148.598044 
L 149.515434 148.436089 
L 149.370044 148.114836 
L 149.370044 148.114836 
L 149.229668 148.274135 
L 149.229668 148.598044 
L 149.084279 148.919298 
L 149.660823 148.919298 
L 149.946588 149.240551 
L 149.946588 149.240551 
L 149.946588 148.919298 
L 149.806212 148.598044 
L 149.806212 148.598044 
L 149.946588 148.274135 
L 149.806212 148.274135 
L 149.806212 148.436089 
L 150.237367 148.436089 
L 151.099677 147.631628 
L 150.959301 147.631628 
L 150.382757 147.952881 
L 150.091978 147.952881 
L 150.091978 148.114836 
L 150.382757 148.436089 
L 150.237367 148.598044 
L 150.091978 148.274135 
L 150.091978 147.952881 
L 150.091978 148.274135 
L 150.382757 148.919298 
L 150.523133 148.919298 
L 150.237367 148.114836 
L 150.523133 148.114836 
L 150.382757 148.114836 
L 150.091978 147.952881 
L 149.806212 147.790927 
L 149.515434 147.790927 
L 149.370044 147.952881 
L 149.370044 148.436089 
L 149.660823 148.598044 
L 150.091978 148.274135 
L 150.091978 147.952881 
L 149.806212 147.148419 
L 150.091978 146.824511 
L 149.229668 147.148419 
L 148.938889 147.631628 
L 149.229668 146.986465 
L 149.084279 146.986465 
L 149.660823 146.986465 
L 149.370044 147.307719 
L 149.515434 146.986465 
L 149.660823 146.665211 
L 149.229668 147.631628 
L 149.229668 147.952881 
L 149.229668 147.952881 
L 149.084279 147.631628 
L 149.084279 146.824511 
L 148.938889 146.665211 
L 149.229668 146.824511 
L 149.370044 146.824511 
L 149.084279 147.148419 
L 148.7935 147.307719 
L 148.938889 147.148419 
L 150.237367 145.858094 
L 151.245066 145.858094 
L 152.834323 146.020049 
L 154.849721 145.536841 
L 157.446676 144.249171 
L 160.760552 143.1208 
L 164.365207 142.475638 
L 168.115251 141.671176 
L 172.005671 140.383506 
L 176.332259 138.609973 
L 201.559828 129.429019 
L 209.200292 125.080146 
L 210.929924 124.113729 
L 213.090712 121.859643 
L 213.52688 120.410019 
L 213.667256 119.122349 
L 213.090712 117.189516 
L 211.506469 114.932775 
L 209.486057 114.128313 
L 208.623748 113.323852 
L 208.332969 112.840643 
L 208.332969 112.999943 
L 208.047203 113.323852 
L 207.616049 113.323852 
L 207.616049 113.966359 
L 207.901814 114.773476 
L 208.332969 115.09473 
L 208.332969 115.256684 
L 208.332969 115.256684 
L 208.769137 115.256684 
L 209.054902 115.415983 
L 209.054902 115.415983 
L 209.200292 115.739892 
L 209.922225 115.899192 
L 210.49877 115.899192 
L 210.639146 115.577938 
L 210.49877 115.256684 
L 210.062601 114.932775 
L 209.776836 114.449567 
L 209.776836 114.449567 
L 209.631447 114.773476 
L 209.200292 114.932775 
L 209.200292 114.773476 
L 209.054902 115.09473 
L 208.769137 115.415983 
L 208.478358 115.415983 
L 208.192593 114.290268 
L 207.901814 114.290268 
L 207.756425 114.773476 
L 208.047203 115.415983 
L 208.192593 115.415983 
L 208.192593 115.256684 
L 208.192593 115.415983 
L 208.332969 115.577938 
L 208.909513 115.256684 
L 208.769137 115.415983 
L 208.623748 115.256684 
L 208.909513 115.415983 
L 209.054902 115.256684 
L 208.909513 115.09473 
L 208.478358 115.09473 
L 208.478358 115.415983 
L 209.054902 115.415983 
L 208.909513 115.739892 
L 208.478358 115.739892 
L 207.756425 115.256684 
L 207.756425 115.256684 
L 208.192593 115.09473 
L 208.769137 115.09473 
L 208.909513 115.256684 
L 208.478358 115.415983 
L 208.047203 115.415983 
L 208.047203 114.611522 
L 208.047203 114.611522 
L 208.478358 114.290268 
L 208.769137 114.290268 
L 208.478358 115.415983 
L 208.192593 115.415983 
L 208.192593 115.415983 
L 208.332969 115.739892 
L 208.332969 116.061146 
L 208.192593 116.061146 
L 207.901814 115.256684 
L 207.756425 115.256684 
L 207.616049 115.415983 
L 207.616049 115.256684 
L 207.616049 115.09473 
L 207.32527 115.256684 
L 207.17988 115.577938 
L 207.17988 115.899192 
L 207.756425 116.2231 
L 208.192593 116.706308 
L 207.901814 116.061146 
L 207.756425 116.061146 
L 207.32527 115.577938 
L 207.470659 115.577938 
L 207.32527 115.899192 
L 207.039504 116.061146 
L 206.748726 116.061146 
L 207.32527 115.256684 
L 207.17988 115.415983 
L 207.17988 115.256684 
L 207.17988 115.415983 
L 206.894115 115.577938 
L 206.748726 115.415983 
L 206.894115 115.415983 
L 207.32527 115.415983 
L 207.470659 115.09473 
L 207.17988 114.773476 
L 207.17988 114.773476 
L 207.32527 115.256684 
L 207.32527 115.899192 
L 207.039504 116.061146 
L 207.039504 116.061146 
L 207.616049 115.577938 
L 207.470659 115.739892 
L 207.039504 116.3824 
L 207.17988 116.061146 
L 207.470659 115.415983 
L 207.470659 115.577938 
L 207.470659 115.256684 
L 207.039504 116.061146 
L 207.17988 116.544354 
L 207.32527 116.3824 
L 207.32527 115.899192 
L 207.17988 115.899192 
L 207.17988 116.061146 
L 207.470659 115.739892 
L 207.470659 115.415983 
L 207.17988 115.256684 
L 207.17988 115.09473 
L 207.32527 114.932775 
L 207.470659 115.09473 
L 207.17988 115.09473 
L 207.039504 115.256684 
L 207.32527 115.577938 
L 207.17988 115.899192 
L 207.17988 116.2231 
L 207.32527 115.739892 
L 207.901814 114.932775 
L 207.901814 115.09473 
L 207.470659 115.739892 
L 207.17988 116.2231 
L 206.748726 115.899192 
L 206.894115 115.415983 
L 207.32527 115.577938 
L 207.32527 116.061146 
L 207.039504 116.3824 
L 206.603336 116.061146 
L 206.172181 115.899192 
L 206.317571 115.739892 
L 206.603336 115.899192 
L 206.894115 116.2231 
L 206.748726 116.2231 
L 206.46296 116.2231 
L 206.317571 116.061146 
L 206.317571 116.3824 
L 206.46296 116.706308 
L 206.748726 116.706308 
L 206.894115 116.061146 
L 206.748726 115.577938 
L 206.603336 115.899192 
L 207.32527 115.577938 
L 207.616049 115.577938 
L 207.616049 115.739892 
L 207.470659 115.577938 
L 206.317571 116.2231 
L 206.317571 116.3824 
L 207.17988 116.2231 
L 207.17988 116.3824 
L 207.17988 116.2231 
L 207.039504 116.2231 
L 206.603336 116.544354 
L 206.317571 116.544354 
L 206.46296 116.2231 
L 206.894115 115.899192 
L 207.17988 115.415983 
L 206.894115 115.09473 
L 206.46296 115.256684 
L 206.172181 115.739892 
L 206.317571 116.2231 
L 206.172181 116.2231 
L 206.026792 115.899192 
L 206.026792 115.415983 
L 206.317571 115.577938 
L 206.46296 116.2231 
L 206.172181 116.2231 
L 206.172181 116.3824 
L 206.026792 116.2231 
L 206.172181 116.2231 
L 206.748726 116.544354 
L 206.46296 117.027562 
L 206.603336 116.706308 
L 206.026792 116.706308 
L 206.026792 116.544354 
L 206.317571 116.061146 
L 206.603336 115.899192 
L 206.603336 116.865608 
L 206.748726 117.189516 
L 206.894115 117.027562 
L 206.603336 117.189516 
L 206.46296 117.027562 
L 206.748726 116.2231 
L 206.748726 115.899192 
L 206.46296 115.739892 
L 206.748726 117.027562 
L 206.46296 117.348816 
L 206.026792 117.348816 
L 206.317571 117.348816 
L 206.317571 117.027562 
L 206.317571 117.027562 
" style="fill:none;stroke:#1f77b4;stroke-linecap:square;stroke-width:1.5;"/>
   </g>
   <g id="matplotlib.axis_1">
    <g id="xtick_1">
     <g id="line2d_2">
      <defs>
       <path d="M 0 0 
L 0 3.5 
" id="m32643c907b" style="stroke:#000000;stroke-width:0.8;"/>
      </defs>
      <g>
       <use style="stroke:#000000;stroke-width:0.8;" x="64.693248" xlink:href="#m32643c907b" y="307.584"/>
      </g>
     </g>
     <g id="text_1">
      <!-- 400 -->
      <defs>
       <path d="M 10.59375 35.5 
L 73.1875 35.5 
L 73.1875 27.203125 
L 10.59375 27.203125 
z
" id="DejaVuSans-8722"/>
       <path d="M 37.796875 64.3125 
L 12.890625 25.390625 
L 37.796875 25.390625 
z
M 35.203125 72.90625 
L 47.609375 72.90625 
L 47.609375 25.390625 
L 58.015625 25.390625 
L 58.015625 17.1875 
L 47.609375 17.1875 
L 47.609375 0 
L 37.796875 0 
L 37.796875 17.1875 
L 4.890625 17.1875 
L 4.890625 26.703125 
z
" id="DejaVuSans-52"/>
       <path d="M 31.78125 66.40625 
Q 24.171875 66.40625 20.328125 58.90625 
Q 16.5 51.421875 16.5 36.375 
Q 16.5 21.390625 20.328125 13.890625 
Q 24.171875 6.390625 31.78125 6.390625 
Q 39.453125 6.390625 43.28125 13.890625 
Q 47.125 21.390625 47.125 36.375 
Q 47.125 51.421875 43.28125 58.90625 
Q 39.453125 66.40625 31.78125 66.40625 
z
M 31.78125 74.21875 
Q 44.046875 74.21875 50.515625 64.515625 
Q 56.984375 54.828125 56.984375 36.375 
Q 56.984375 17.96875 50.515625 8.265625 
Q 44.046875 -1.421875 31.78125 -1.421875 
Q 19.53125 -1.421875 13.0625 8.265625 
Q 6.59375 17.96875 6.59375 36.375 
Q 6.59375 54.828125 13.0625 64.515625 
Q 19.53125 74.21875 31.78125 74.21875 
z
" id="DejaVuSans-48"/>
      </defs>
      <g transform="translate(50.959655 322.182437)scale(0.1 -0.1)">
       <use xlink:href="#DejaVuSans-8722"/>
       <use x="83.789062" xlink:href="#DejaVuSans-52"/>
       <use x="147.412109" xlink:href="#DejaVuSans-48"/>
       <use x="211.035156" xlink:href="#DejaVuSans-48"/>
      </g>
     </g>
    </g>
    <g id="xtick_2">
     <g id="line2d_3">
      <g>
       <use style="stroke:#000000;stroke-width:0.8;" x="114.827527" xlink:href="#m32643c907b" y="307.584"/>
      </g>
     </g>
     <g id="text_2">
      <!-- 300 -->
      <defs>
       <path d="M 40.578125 39.3125 
Q 47.65625 37.796875 51.625 33 
Q 55.609375 28.21875 55.609375 21.1875 
Q 55.609375 10.40625 48.1875 4.484375 
Q 40.765625 -1.421875 27.09375 -1.421875 
Q 22.515625 -1.421875 17.65625 -0.515625 
Q 12.796875 0.390625 7.625 2.203125 
L 7.625 11.71875 
Q 11.71875 9.328125 16.59375 8.109375 
Q 21.484375 6.890625 26.8125 6.890625 
Q 36.078125 6.890625 40.9375 10.546875 
Q 45.796875 14.203125 45.796875 21.1875 
Q 45.796875 27.640625 41.28125 31.265625 
Q 36.765625 34.90625 28.71875 34.90625 
L 20.21875 34.90625 
L 20.21875 43.015625 
L 29.109375 43.015625 
Q 36.375 43.015625 40.234375 45.921875 
Q 44.09375 48.828125 44.09375 54.296875 
Q 44.09375 59.90625 40.109375 62.90625 
Q 36.140625 65.921875 28.71875 65.921875 
Q 24.65625 65.921875 20.015625 65.03125 
Q 15.375 64.15625 9.8125 62.3125 
L 9.8125 71.09375 
Q 15.4375 72.65625 20.34375 73.4375 
Q 25.25 74.21875 29.59375 74.21875 
Q 40.828125 74.21875 47.359375 69.109375 
Q 53.90625 64.015625 53.90625 55.328125 
Q 53.90625 49.265625 50.4375 45.09375 
Q 46.96875 40.921875 40.578125 39.3125 
z
" id="DejaVuSans-51"/>
      </defs>
      <g transform="translate(101.093933 322.182437)scale(0.1 -0.1)">
       <use xlink:href="#DejaVuSans-8722"/>
       <use x="83.789062" xlink:href="#DejaVuSans-51"/>
       <use x="147.412109" xlink:href="#DejaVuSans-48"/>
       <use x="211.035156" xlink:href="#DejaVuSans-48"/>
      </g>
     </g>
    </g>
    <g id="xtick_3">
     <g id="line2d_4">
      <g>
       <use style="stroke:#000000;stroke-width:0.8;" x="164.961805" xlink:href="#m32643c907b" y="307.584"/>
      </g>
     </g>
     <g id="text_3">
      <!-- 200 -->
      <defs>
       <path d="M 19.1875 8.296875 
L 53.609375 8.296875 
L 53.609375 0 
L 7.328125 0 
L 7.328125 8.296875 
Q 12.9375 14.109375 22.625 23.890625 
Q 32.328125 33.6875 34.8125 36.53125 
Q 39.546875 41.84375 41.421875 45.53125 
Q 43.3125 49.21875 43.3125 52.78125 
Q 43.3125 58.59375 39.234375 62.25 
Q 35.15625 65.921875 28.609375 65.921875 
Q 23.96875 65.921875 18.8125 64.3125 
Q 13.671875 62.703125 7.8125 59.421875 
L 7.8125 69.390625 
Q 13.765625 71.78125 18.9375 73 
Q 24.125 74.21875 28.421875 74.21875 
Q 39.75 74.21875 46.484375 68.546875 
Q 53.21875 62.890625 53.21875 53.421875 
Q 53.21875 48.921875 51.53125 44.890625 
Q 49.859375 40.875 45.40625 35.40625 
Q 44.1875 33.984375 37.640625 27.21875 
Q 31.109375 20.453125 19.1875 8.296875 
z
" id="DejaVuSans-50"/>
      </defs>
      <g transform="translate(151.228211 322.182437)scale(0.1 -0.1)">
       <use xlink:href="#DejaVuSans-8722"/>
       <use x="83.789062" xlink:href="#DejaVuSans-50"/>
       <use x="147.412109" xlink:href="#DejaVuSans-48"/>
       <use x="211.035156" xlink:href="#DejaVuSans-48"/>
      </g>
     </g>
    </g>
    <g id="xtick_4">
     <g id="line2d_5">
      <g>
       <use style="stroke:#000000;stroke-width:0.8;" x="215.096083" xlink:href="#m32643c907b" y="307.584"/>
      </g>
     </g>
     <g id="text_4">
      <!-- 100 -->
      <defs>
       <path d="M 12.40625 8.296875 
L 28.515625 8.296875 
L 28.515625 63.921875 
L 10.984375 60.40625 
L 10.984375 69.390625 
L 28.421875 72.90625 
L 38.28125 72.90625 
L 38.28125 8.296875 
L 54.390625 8.296875 
L 54.390625 0 
L 12.40625 0 
z
" id="DejaVuSans-49"/>
      </defs>
      <g transform="translate(201.362489 322.182437)scale(0.1 -0.1)">
       <use xlink:href="#DejaVuSans-8722"/>
       <use x="83.789062" xlink:href="#DejaVuSans-49"/>
       <use x="147.412109" xlink:href="#DejaVuSans-48"/>
       <use x="211.035156" xlink:href="#DejaVuSans-48"/>
      </g>
     </g>
    </g>
    <g id="xtick_5">
     <g id="line2d_6">
      <g>
       <use style="stroke:#000000;stroke-width:0.8;" x="265.230361" xlink:href="#m32643c907b" y="307.584"/>
      </g>
     </g>
     <g id="text_5">
      <!-- 0 -->
      <g transform="translate(262.049111 322.182437)scale(0.1 -0.1)">
       <use xlink:href="#DejaVuSans-48"/>
      </g>
     </g>
    </g>
    <g id="xtick_6">
     <g id="line2d_7">
      <g>
       <use style="stroke:#000000;stroke-width:0.8;" x="315.364639" xlink:href="#m32643c907b" y="307.584"/>
      </g>
     </g>
     <g id="text_6">
      <!-- 100 -->
      <g transform="translate(305.820889 322.182437)scale(0.1 -0.1)">
       <use xlink:href="#DejaVuSans-49"/>
       <use x="63.623047" xlink:href="#DejaVuSans-48"/>
       <use x="127.246094" xlink:href="#DejaVuSans-48"/>
      </g>
     </g>
    </g>
    <g id="xtick_7">
     <g id="line2d_8">
      <g>
       <use style="stroke:#000000;stroke-width:0.8;" x="365.498918" xlink:href="#m32643c907b" y="307.584"/>
      </g>
     </g>
     <g id="text_7">
      <!-- 200 -->
      <g transform="translate(355.955168 322.182437)scale(0.1 -0.1)">
       <use xlink:href="#DejaVuSans-50"/>
       <use x="63.623047" xlink:href="#DejaVuSans-48"/>
       <use x="127.246094" xlink:href="#DejaVuSans-48"/>
      </g>
     </g>
    </g>
   </g>
   <g id="matplotlib.axis_2">
    <g id="ytick_1">
     <g id="line2d_9">
      <defs>
       <path d="M 0 0 
L -3.5 0 
" id="md3c59a5da9" style="stroke:#000000;stroke-width:0.8;"/>
      </defs>
      <g>
       <use style="stroke:#000000;stroke-width:0.8;" x="57.6" xlink:href="#md3c59a5da9" y="303.559168"/>
      </g>
     </g>
     <g id="text_8">
      <!-- 400 -->
      <g transform="translate(23.132812 307.358387)scale(0.1 -0.1)">
       <use xlink:href="#DejaVuSans-8722"/>
       <use x="83.789062" xlink:href="#DejaVuSans-52"/>
       <use x="147.412109" xlink:href="#DejaVuSans-48"/>
       <use x="211.035156" xlink:href="#DejaVuSans-48"/>
      </g>
     </g>
    </g>
    <g id="ytick_2">
     <g id="line2d_10">
      <g>
       <use style="stroke:#000000;stroke-width:0.8;" x="57.6" xlink:href="#md3c59a5da9" y="250.459376"/>
      </g>
     </g>
     <g id="text_9">
      <!-- 200 -->
      <g transform="translate(23.132812 254.258595)scale(0.1 -0.1)">
       <use xlink:href="#DejaVuSans-8722"/>
       <use x="83.789062" xlink:href="#DejaVuSans-50"/>
       <use x="147.412109" xlink:href="#DejaVuSans-48"/>
       <use x="211.035156" xlink:href="#DejaVuSans-48"/>
      </g>
     </g>
    </g>
    <g id="ytick_3">
     <g id="line2d_11">
      <g>
       <use style="stroke:#000000;stroke-width:0.8;" x="57.6" xlink:href="#md3c59a5da9" y="197.359583"/>
      </g>
     </g>
     <g id="text_10">
      <!-- 0 -->
      <g transform="translate(44.2375 201.158802)scale(0.1 -0.1)">
       <use xlink:href="#DejaVuSans-48"/>
      </g>
     </g>
    </g>
    <g id="ytick_4">
     <g id="line2d_12">
      <g>
       <use style="stroke:#000000;stroke-width:0.8;" x="57.6" xlink:href="#md3c59a5da9" y="144.259791"/>
      </g>
     </g>
     <g id="text_11">
      <!-- 200 -->
      <g transform="translate(31.5125 148.059009)scale(0.1 -0.1)">
       <use xlink:href="#DejaVuSans-50"/>
       <use x="63.623047" xlink:href="#DejaVuSans-48"/>
       <use x="127.246094" xlink:href="#DejaVuSans-48"/>
      </g>
     </g>
    </g>
    <g id="ytick_5">
     <g id="line2d_13">
      <g>
       <use style="stroke:#000000;stroke-width:0.8;" x="57.6" xlink:href="#md3c59a5da9" y="91.159998"/>
      </g>
     </g>
     <g id="text_12">
      <!-- 400 -->
      <g transform="translate(31.5125 94.959217)scale(0.1 -0.1)">
       <use xlink:href="#DejaVuSans-52"/>
       <use x="63.623047" xlink:href="#DejaVuSans-48"/>
       <use x="127.246094" xlink:href="#DejaVuSans-48"/>
      </g>
     </g>
    </g>
   </g>
   <g id="line2d_14">
    <path clip-path="url(#p65260cd15d)" d="M 269.755554 231.419183 
L 97.203313 250.169238 
L 312.729373 210.854742 
L 236.387203 59.188092 
L 90.214196 224.181616 
L 316.887194 281.597551 
L 388.249739 293.488954 
L 76.745205 262.923532 
L 149.755001 146.845266 
L 207.420891 116.221056 
" style="fill:none;stroke:#ff0000;stroke-linecap:square;stroke-width:0.5;"/>
   </g>
   <g id="patch_3">
    <path d="M 57.6 307.584 
L 57.6 41.472 
" style="fill:none;stroke:#000000;stroke-linecap:square;stroke-linejoin:miter;stroke-width:0.8;"/>
   </g>
   <g id="patch_4">
    <path d="M 414.72 307.584 
L 414.72 41.472 
" style="fill:none;stroke:#000000;stroke-linecap:square;stroke-linejoin:miter;stroke-width:0.8;"/>
   </g>
   <g id="patch_5">
    <path d="M 57.6 307.584 
L 414.72 307.584 
" style="fill:none;stroke:#000000;stroke-linecap:square;stroke-linejoin:miter;stroke-width:0.8;"/>
   </g>
   <g id="patch_6">
    <path d="M 57.6 41.472 
L 414.72 41.472 
" style="fill:none;stroke:#000000;stroke-linecap:square;stroke-linejoin:miter;stroke-width:0.8;"/>
   </g>
   <g id="PathCollection_1">
    <defs>
     <path d="M 0 2.738613 
C 0.726289 2.738613 1.422928 2.450055 1.936492 1.936492 
C 2.450055 1.422928 2.738613 0.726289 2.738613 0 
C 2.738613 -0.726289 2.450055 -1.422928 1.936492 -1.936492 
C 1.422928 -2.450055 0.726289 -2.738613 0 -2.738613 
C -0.726289 -2.738613 -1.422928 -2.450055 -1.936492 -1.936492 
C -2.450055 -1.422928 -2.738613 -0.726289 -2.738613 0 
C -2.738613 0.726289 -2.450055 1.422928 -1.936492 1.936492 
C -1.422928 2.450055 -0.726289 2.738613 0 2.738613 
z
" id="m65ace1b86c" style="stroke:#ff0000;"/>
    </defs>
    <g clip-path="url(#p65260cd15d)">
     <use style="fill:#ff0000;stroke:#ff0000;" x="269.755554" xlink:href="#m65ace1b86c" y="231.419183"/>
     <use style="fill:#ff0000;stroke:#ff0000;" x="97.203313" xlink:href="#m65ace1b86c" y="250.169238"/>
     <use style="fill:#ff0000;stroke:#ff0000;" x="312.729373" xlink:href="#m65ace1b86c" y="210.854742"/>
     <use style="fill:#ff0000;stroke:#ff0000;" x="236.387203" xlink:href="#m65ace1b86c" y="59.188092"/>
     <use style="fill:#ff0000;stroke:#ff0000;" x="90.214196" xlink:href="#m65ace1b86c" y="224.181616"/>
     <use style="fill:#ff0000;stroke:#ff0000;" x="316.887194" xlink:href="#m65ace1b86c" y="281.597551"/>
     <use style="fill:#ff0000;stroke:#ff0000;" x="388.249739" xlink:href="#m65ace1b86c" y="293.488954"/>
     <use style="fill:#ff0000;stroke:#ff0000;" x="76.745205" xlink:href="#m65ace1b86c" y="262.923532"/>
     <use style="fill:#ff0000;stroke:#ff0000;" x="149.755001" xlink:href="#m65ace1b86c" y="146.845266"/>
     <use style="fill:#ff0000;stroke:#ff0000;" x="207.420891" xlink:href="#m65ace1b86c" y="116.221056"/>
    </g>
   </g>
   <g id="text_13">
    <!-- (6) Subject: s17, Known = False, Degree = 1, Duration = 0.1 -->
    <defs>
     <path d="M 31 75.875 
Q 24.46875 64.65625 21.28125 53.65625 
Q 18.109375 42.671875 18.109375 31.390625 
Q 18.109375 20.125 21.3125 9.0625 
Q 24.515625 -2 31 -13.1875 
L 23.1875 -13.1875 
Q 15.875 -1.703125 12.234375 9.375 
Q 8.59375 20.453125 8.59375 31.390625 
Q 8.59375 42.28125 12.203125 53.3125 
Q 15.828125 64.359375 23.1875 75.875 
z
" id="DejaVuSans-40"/>
     <path d="M 33.015625 40.375 
Q 26.375 40.375 22.484375 35.828125 
Q 18.609375 31.296875 18.609375 23.390625 
Q 18.609375 15.53125 22.484375 10.953125 
Q 26.375 6.390625 33.015625 6.390625 
Q 39.65625 6.390625 43.53125 10.953125 
Q 47.40625 15.53125 47.40625 23.390625 
Q 47.40625 31.296875 43.53125 35.828125 
Q 39.65625 40.375 33.015625 40.375 
z
M 52.59375 71.296875 
L 52.59375 62.3125 
Q 48.875 64.0625 45.09375 64.984375 
Q 41.3125 65.921875 37.59375 65.921875 
Q 27.828125 65.921875 22.671875 59.328125 
Q 17.53125 52.734375 16.796875 39.40625 
Q 19.671875 43.65625 24.015625 45.921875 
Q 28.375 48.1875 33.59375 48.1875 
Q 44.578125 48.1875 50.953125 41.515625 
Q 57.328125 34.859375 57.328125 23.390625 
Q 57.328125 12.15625 50.6875 5.359375 
Q 44.046875 -1.421875 33.015625 -1.421875 
Q 20.359375 -1.421875 13.671875 8.265625 
Q 6.984375 17.96875 6.984375 36.375 
Q 6.984375 53.65625 15.1875 63.9375 
Q 23.390625 74.21875 37.203125 74.21875 
Q 40.921875 74.21875 44.703125 73.484375 
Q 48.484375 72.75 52.59375 71.296875 
z
" id="DejaVuSans-54"/>
     <path d="M 8.015625 75.875 
L 15.828125 75.875 
Q 23.140625 64.359375 26.78125 53.3125 
Q 30.421875 42.28125 30.421875 31.390625 
Q 30.421875 20.453125 26.78125 9.375 
Q 23.140625 -1.703125 15.828125 -13.1875 
L 8.015625 -13.1875 
Q 14.5 -2 17.703125 9.0625 
Q 20.90625 20.125 20.90625 31.390625 
Q 20.90625 42.671875 17.703125 53.65625 
Q 14.5 64.65625 8.015625 75.875 
z
" id="DejaVuSans-41"/>
     <path id="DejaVuSans-32"/>
     <path d="M 53.515625 70.515625 
L 53.515625 60.890625 
Q 47.90625 63.578125 42.921875 64.890625 
Q 37.9375 66.21875 33.296875 66.21875 
Q 25.25 66.21875 20.875 63.09375 
Q 16.5 59.96875 16.5 54.203125 
Q 16.5 49.359375 19.40625 46.890625 
Q 22.3125 44.4375 30.421875 42.921875 
L 36.375 41.703125 
Q 47.40625 39.59375 52.65625 34.296875 
Q 57.90625 29 57.90625 20.125 
Q 57.90625 9.515625 50.796875 4.046875 
Q 43.703125 -1.421875 29.984375 -1.421875 
Q 24.8125 -1.421875 18.96875 -0.25 
Q 13.140625 0.921875 6.890625 3.21875 
L 6.890625 13.375 
Q 12.890625 10.015625 18.65625 8.296875 
Q 24.421875 6.59375 29.984375 6.59375 
Q 38.421875 6.59375 43.015625 9.90625 
Q 47.609375 13.234375 47.609375 19.390625 
Q 47.609375 24.75 44.3125 27.78125 
Q 41.015625 30.8125 33.5 32.328125 
L 27.484375 33.5 
Q 16.453125 35.6875 11.515625 40.375 
Q 6.59375 45.0625 6.59375 53.421875 
Q 6.59375 63.09375 13.40625 68.65625 
Q 20.21875 74.21875 32.171875 74.21875 
Q 37.3125 74.21875 42.625 73.28125 
Q 47.953125 72.359375 53.515625 70.515625 
z
" id="DejaVuSans-83"/>
     <path d="M 8.5 21.578125 
L 8.5 54.6875 
L 17.484375 54.6875 
L 17.484375 21.921875 
Q 17.484375 14.15625 20.5 10.265625 
Q 23.53125 6.390625 29.59375 6.390625 
Q 36.859375 6.390625 41.078125 11.03125 
Q 45.3125 15.671875 45.3125 23.6875 
L 45.3125 54.6875 
L 54.296875 54.6875 
L 54.296875 0 
L 45.3125 0 
L 45.3125 8.40625 
Q 42.046875 3.421875 37.71875 1 
Q 33.40625 -1.421875 27.6875 -1.421875 
Q 18.265625 -1.421875 13.375 4.4375 
Q 8.5 10.296875 8.5 21.578125 
z
M 31.109375 56 
z
" id="DejaVuSans-117"/>
     <path d="M 48.6875 27.296875 
Q 48.6875 37.203125 44.609375 42.84375 
Q 40.53125 48.484375 33.40625 48.484375 
Q 26.265625 48.484375 22.1875 42.84375 
Q 18.109375 37.203125 18.109375 27.296875 
Q 18.109375 17.390625 22.1875 11.75 
Q 26.265625 6.109375 33.40625 6.109375 
Q 40.53125 6.109375 44.609375 11.75 
Q 48.6875 17.390625 48.6875 27.296875 
z
M 18.109375 46.390625 
Q 20.953125 51.265625 25.265625 53.625 
Q 29.59375 56 35.59375 56 
Q 45.5625 56 51.78125 48.09375 
Q 58.015625 40.1875 58.015625 27.296875 
Q 58.015625 14.40625 51.78125 6.484375 
Q 45.5625 -1.421875 35.59375 -1.421875 
Q 29.59375 -1.421875 25.265625 0.953125 
Q 20.953125 3.328125 18.109375 8.203125 
L 18.109375 0 
L 9.078125 0 
L 9.078125 75.984375 
L 18.109375 75.984375 
z
" id="DejaVuSans-98"/>
     <path d="M 9.421875 54.6875 
L 18.40625 54.6875 
L 18.40625 -0.984375 
Q 18.40625 -11.421875 14.421875 -16.109375 
Q 10.453125 -20.796875 1.609375 -20.796875 
L -1.8125 -20.796875 
L -1.8125 -13.1875 
L 0.59375 -13.1875 
Q 5.71875 -13.1875 7.5625 -10.8125 
Q 9.421875 -8.453125 9.421875 -0.984375 
z
M 9.421875 75.984375 
L 18.40625 75.984375 
L 18.40625 64.59375 
L 9.421875 64.59375 
z
" id="DejaVuSans-106"/>
     <path d="M 56.203125 29.59375 
L 56.203125 25.203125 
L 14.890625 25.203125 
Q 15.484375 15.921875 20.484375 11.0625 
Q 25.484375 6.203125 34.421875 6.203125 
Q 39.59375 6.203125 44.453125 7.46875 
Q 49.3125 8.734375 54.109375 11.28125 
L 54.109375 2.78125 
Q 49.265625 0.734375 44.1875 -0.34375 
Q 39.109375 -1.421875 33.890625 -1.421875 
Q 20.796875 -1.421875 13.15625 6.1875 
Q 5.515625 13.8125 5.515625 26.8125 
Q 5.515625 40.234375 12.765625 48.109375 
Q 20.015625 56 32.328125 56 
Q 43.359375 56 49.78125 48.890625 
Q 56.203125 41.796875 56.203125 29.59375 
z
M 47.21875 32.234375 
Q 47.125 39.59375 43.09375 43.984375 
Q 39.0625 48.390625 32.421875 48.390625 
Q 24.90625 48.390625 20.390625 44.140625 
Q 15.875 39.890625 15.1875 32.171875 
z
" id="DejaVuSans-101"/>
     <path d="M 48.78125 52.59375 
L 48.78125 44.1875 
Q 44.96875 46.296875 41.140625 47.34375 
Q 37.3125 48.390625 33.40625 48.390625 
Q 24.65625 48.390625 19.8125 42.84375 
Q 14.984375 37.3125 14.984375 27.296875 
Q 14.984375 17.28125 19.8125 11.734375 
Q 24.65625 6.203125 33.40625 6.203125 
Q 37.3125 6.203125 41.140625 7.25 
Q 44.96875 8.296875 48.78125 10.40625 
L 48.78125 2.09375 
Q 45.015625 0.34375 40.984375 -0.53125 
Q 36.96875 -1.421875 32.421875 -1.421875 
Q 20.0625 -1.421875 12.78125 6.34375 
Q 5.515625 14.109375 5.515625 27.296875 
Q 5.515625 40.671875 12.859375 48.328125 
Q 20.21875 56 33.015625 56 
Q 37.15625 56 41.109375 55.140625 
Q 45.0625 54.296875 48.78125 52.59375 
z
" id="DejaVuSans-99"/>
     <path d="M 18.3125 70.21875 
L 18.3125 54.6875 
L 36.8125 54.6875 
L 36.8125 47.703125 
L 18.3125 47.703125 
L 18.3125 18.015625 
Q 18.3125 11.328125 20.140625 9.421875 
Q 21.96875 7.515625 27.59375 7.515625 
L 36.8125 7.515625 
L 36.8125 0 
L 27.59375 0 
Q 17.1875 0 13.234375 3.875 
Q 9.28125 7.765625 9.28125 18.015625 
L 9.28125 47.703125 
L 2.6875 47.703125 
L 2.6875 54.6875 
L 9.28125 54.6875 
L 9.28125 70.21875 
z
" id="DejaVuSans-116"/>
     <path d="M 11.71875 12.40625 
L 22.015625 12.40625 
L 22.015625 0 
L 11.71875 0 
z
M 11.71875 51.703125 
L 22.015625 51.703125 
L 22.015625 39.3125 
L 11.71875 39.3125 
z
" id="DejaVuSans-58"/>
     <path d="M 44.28125 53.078125 
L 44.28125 44.578125 
Q 40.484375 46.53125 36.375 47.5 
Q 32.28125 48.484375 27.875 48.484375 
Q 21.1875 48.484375 17.84375 46.4375 
Q 14.5 44.390625 14.5 40.28125 
Q 14.5 37.15625 16.890625 35.375 
Q 19.28125 33.59375 26.515625 31.984375 
L 29.59375 31.296875 
Q 39.15625 29.25 43.1875 25.515625 
Q 47.21875 21.78125 47.21875 15.09375 
Q 47.21875 7.46875 41.1875 3.015625 
Q 35.15625 -1.421875 24.609375 -1.421875 
Q 20.21875 -1.421875 15.453125 -0.5625 
Q 10.6875 0.296875 5.421875 2 
L 5.421875 11.28125 
Q 10.40625 8.6875 15.234375 7.390625 
Q 20.0625 6.109375 24.8125 6.109375 
Q 31.15625 6.109375 34.5625 8.28125 
Q 37.984375 10.453125 37.984375 14.40625 
Q 37.984375 18.0625 35.515625 20.015625 
Q 33.0625 21.96875 24.703125 23.78125 
L 21.578125 24.515625 
Q 13.234375 26.265625 9.515625 29.90625 
Q 5.8125 33.546875 5.8125 39.890625 
Q 5.8125 47.609375 11.28125 51.796875 
Q 16.75 56 26.8125 56 
Q 31.78125 56 36.171875 55.265625 
Q 40.578125 54.546875 44.28125 53.078125 
z
" id="DejaVuSans-115"/>
     <path d="M 8.203125 72.90625 
L 55.078125 72.90625 
L 55.078125 68.703125 
L 28.609375 0 
L 18.3125 0 
L 43.21875 64.59375 
L 8.203125 64.59375 
z
" id="DejaVuSans-55"/>
     <path d="M 11.71875 12.40625 
L 22.015625 12.40625 
L 22.015625 4 
L 14.015625 -11.625 
L 7.71875 -11.625 
L 11.71875 4 
z
" id="DejaVuSans-44"/>
     <path d="M 9.8125 72.90625 
L 19.671875 72.90625 
L 19.671875 42.09375 
L 52.390625 72.90625 
L 65.09375 72.90625 
L 28.90625 38.921875 
L 67.671875 0 
L 54.6875 0 
L 19.671875 35.109375 
L 19.671875 0 
L 9.8125 0 
z
" id="DejaVuSans-75"/>
     <path d="M 54.890625 33.015625 
L 54.890625 0 
L 45.90625 0 
L 45.90625 32.71875 
Q 45.90625 40.484375 42.875 44.328125 
Q 39.84375 48.1875 33.796875 48.1875 
Q 26.515625 48.1875 22.3125 43.546875 
Q 18.109375 38.921875 18.109375 30.90625 
L 18.109375 0 
L 9.078125 0 
L 9.078125 54.6875 
L 18.109375 54.6875 
L 18.109375 46.1875 
Q 21.34375 51.125 25.703125 53.5625 
Q 30.078125 56 35.796875 56 
Q 45.21875 56 50.046875 50.171875 
Q 54.890625 44.34375 54.890625 33.015625 
z
" id="DejaVuSans-110"/>
     <path d="M 30.609375 48.390625 
Q 23.390625 48.390625 19.1875 42.75 
Q 14.984375 37.109375 14.984375 27.296875 
Q 14.984375 17.484375 19.15625 11.84375 
Q 23.34375 6.203125 30.609375 6.203125 
Q 37.796875 6.203125 41.984375 11.859375 
Q 46.1875 17.53125 46.1875 27.296875 
Q 46.1875 37.015625 41.984375 42.703125 
Q 37.796875 48.390625 30.609375 48.390625 
z
M 30.609375 56 
Q 42.328125 56 49.015625 48.375 
Q 55.71875 40.765625 55.71875 27.296875 
Q 55.71875 13.875 49.015625 6.21875 
Q 42.328125 -1.421875 30.609375 -1.421875 
Q 18.84375 -1.421875 12.171875 6.21875 
Q 5.515625 13.875 5.515625 27.296875 
Q 5.515625 40.765625 12.171875 48.375 
Q 18.84375 56 30.609375 56 
z
" id="DejaVuSans-111"/>
     <path d="M 4.203125 54.6875 
L 13.1875 54.6875 
L 24.421875 12.015625 
L 35.59375 54.6875 
L 46.1875 54.6875 
L 57.421875 12.015625 
L 68.609375 54.6875 
L 77.59375 54.6875 
L 63.28125 0 
L 52.6875 0 
L 40.921875 44.828125 
L 29.109375 0 
L 18.5 0 
z
" id="DejaVuSans-119"/>
     <path d="M 10.59375 45.40625 
L 73.1875 45.40625 
L 73.1875 37.203125 
L 10.59375 37.203125 
z
M 10.59375 25.484375 
L 73.1875 25.484375 
L 73.1875 17.1875 
L 10.59375 17.1875 
z
" id="DejaVuSans-61"/>
     <path d="M 9.8125 72.90625 
L 51.703125 72.90625 
L 51.703125 64.59375 
L 19.671875 64.59375 
L 19.671875 43.109375 
L 48.578125 43.109375 
L 48.578125 34.8125 
L 19.671875 34.8125 
L 19.671875 0 
L 9.8125 0 
z
" id="DejaVuSans-70"/>
     <path d="M 34.28125 27.484375 
Q 23.390625 27.484375 19.1875 25 
Q 14.984375 22.515625 14.984375 16.5 
Q 14.984375 11.71875 18.140625 8.90625 
Q 21.296875 6.109375 26.703125 6.109375 
Q 34.1875 6.109375 38.703125 11.40625 
Q 43.21875 16.703125 43.21875 25.484375 
L 43.21875 27.484375 
z
M 52.203125 31.203125 
L 52.203125 0 
L 43.21875 0 
L 43.21875 8.296875 
Q 40.140625 3.328125 35.546875 0.953125 
Q 30.953125 -1.421875 24.3125 -1.421875 
Q 15.921875 -1.421875 10.953125 3.296875 
Q 6 8.015625 6 15.921875 
Q 6 25.140625 12.171875 29.828125 
Q 18.359375 34.515625 30.609375 34.515625 
L 43.21875 34.515625 
L 43.21875 35.40625 
Q 43.21875 41.609375 39.140625 45 
Q 35.0625 48.390625 27.6875 48.390625 
Q 23 48.390625 18.546875 47.265625 
Q 14.109375 46.140625 10.015625 43.890625 
L 10.015625 52.203125 
Q 14.9375 54.109375 19.578125 55.046875 
Q 24.21875 56 28.609375 56 
Q 40.484375 56 46.34375 49.84375 
Q 52.203125 43.703125 52.203125 31.203125 
z
" id="DejaVuSans-97"/>
     <path d="M 9.421875 75.984375 
L 18.40625 75.984375 
L 18.40625 0 
L 9.421875 0 
z
" id="DejaVuSans-108"/>
     <path d="M 19.671875 64.796875 
L 19.671875 8.109375 
L 31.59375 8.109375 
Q 46.6875 8.109375 53.6875 14.9375 
Q 60.6875 21.78125 60.6875 36.53125 
Q 60.6875 51.171875 53.6875 57.984375 
Q 46.6875 64.796875 31.59375 64.796875 
z
M 9.8125 72.90625 
L 30.078125 72.90625 
Q 51.265625 72.90625 61.171875 64.09375 
Q 71.09375 55.28125 71.09375 36.53125 
Q 71.09375 17.671875 61.125 8.828125 
Q 51.171875 0 30.078125 0 
L 9.8125 0 
z
" id="DejaVuSans-68"/>
     <path d="M 45.40625 27.984375 
Q 45.40625 37.75 41.375 43.109375 
Q 37.359375 48.484375 30.078125 48.484375 
Q 22.859375 48.484375 18.828125 43.109375 
Q 14.796875 37.75 14.796875 27.984375 
Q 14.796875 18.265625 18.828125 12.890625 
Q 22.859375 7.515625 30.078125 7.515625 
Q 37.359375 7.515625 41.375 12.890625 
Q 45.40625 18.265625 45.40625 27.984375 
z
M 54.390625 6.78125 
Q 54.390625 -7.171875 48.1875 -13.984375 
Q 42 -20.796875 29.203125 -20.796875 
Q 24.46875 -20.796875 20.265625 -20.09375 
Q 16.0625 -19.390625 12.109375 -17.921875 
L 12.109375 -9.1875 
Q 16.0625 -11.328125 19.921875 -12.34375 
Q 23.78125 -13.375 27.78125 -13.375 
Q 36.625 -13.375 41.015625 -8.765625 
Q 45.40625 -4.15625 45.40625 5.171875 
L 45.40625 9.625 
Q 42.625 4.78125 38.28125 2.390625 
Q 33.9375 0 27.875 0 
Q 17.828125 0 11.671875 7.65625 
Q 5.515625 15.328125 5.515625 27.984375 
Q 5.515625 40.671875 11.671875 48.328125 
Q 17.828125 56 27.875 56 
Q 33.9375 56 38.28125 53.609375 
Q 42.625 51.21875 45.40625 46.390625 
L 45.40625 54.6875 
L 54.390625 54.6875 
z
" id="DejaVuSans-103"/>
     <path d="M 41.109375 46.296875 
Q 39.59375 47.171875 37.8125 47.578125 
Q 36.03125 48 33.890625 48 
Q 26.265625 48 22.1875 43.046875 
Q 18.109375 38.09375 18.109375 28.8125 
L 18.109375 0 
L 9.078125 0 
L 9.078125 54.6875 
L 18.109375 54.6875 
L 18.109375 46.1875 
Q 20.953125 51.171875 25.484375 53.578125 
Q 30.03125 56 36.53125 56 
Q 37.453125 56 38.578125 55.875 
Q 39.703125 55.765625 41.0625 55.515625 
z
" id="DejaVuSans-114"/>
     <path d="M 9.421875 54.6875 
L 18.40625 54.6875 
L 18.40625 0 
L 9.421875 0 
z
M 9.421875 75.984375 
L 18.40625 75.984375 
L 18.40625 64.59375 
L 9.421875 64.59375 
z
" id="DejaVuSans-105"/>
     <path d="M 10.6875 12.40625 
L 21 12.40625 
L 21 0 
L 10.6875 0 
z
" id="DejaVuSans-46"/>
    </defs>
    <g transform="translate(53.559375 35.472)scale(0.12 -0.12)">
     <use xlink:href="#DejaVuSans-40"/>
     <use x="39.013672" xlink:href="#DejaVuSans-54"/>
     <use x="102.636719" xlink:href="#DejaVuSans-41"/>
     <use x="141.650391" xlink:href="#DejaVuSans-32"/>
     <use x="173.4375" xlink:href="#DejaVuSans-83"/>
     <use x="236.914062" xlink:href="#DejaVuSans-117"/>
     <use x="300.292969" xlink:href="#DejaVuSans-98"/>
     <use x="363.769531" xlink:href="#DejaVuSans-106"/>
     <use x="391.552734" xlink:href="#DejaVuSans-101"/>
     <use x="453.076172" xlink:href="#DejaVuSans-99"/>
     <use x="508.056641" xlink:href="#DejaVuSans-116"/>
     <use x="547.265625" xlink:href="#DejaVuSans-58"/>
     <use x="580.957031" xlink:href="#DejaVuSans-32"/>
     <use x="612.744141" xlink:href="#DejaVuSans-115"/>
     <use x="664.84375" xlink:href="#DejaVuSans-49"/>
     <use x="728.466797" xlink:href="#DejaVuSans-55"/>
     <use x="792.089844" xlink:href="#DejaVuSans-44"/>
     <use x="823.876953" xlink:href="#DejaVuSans-32"/>
     <use x="855.664062" xlink:href="#DejaVuSans-75"/>
     <use x="921.240234" xlink:href="#DejaVuSans-110"/>
     <use x="984.619141" xlink:href="#DejaVuSans-111"/>
     <use x="1045.800781" xlink:href="#DejaVuSans-119"/>
     <use x="1127.587891" xlink:href="#DejaVuSans-110"/>
     <use x="1190.966797" xlink:href="#DejaVuSans-32"/>
     <use x="1222.753906" xlink:href="#DejaVuSans-61"/>
     <use x="1306.542969" xlink:href="#DejaVuSans-32"/>
     <use x="1338.330078" xlink:href="#DejaVuSans-70"/>
     <use x="1395.708984" xlink:href="#DejaVuSans-97"/>
     <use x="1456.988281" xlink:href="#DejaVuSans-108"/>
     <use x="1484.771484" xlink:href="#DejaVuSans-115"/>
     <use x="1536.871094" xlink:href="#DejaVuSans-101"/>
     <use x="1598.394531" xlink:href="#DejaVuSans-44"/>
     <use x="1630.181641" xlink:href="#DejaVuSans-32"/>
     <use x="1661.96875" xlink:href="#DejaVuSans-68"/>
     <use x="1738.970703" xlink:href="#DejaVuSans-101"/>
     <use x="1800.494141" xlink:href="#DejaVuSans-103"/>
     <use x="1863.970703" xlink:href="#DejaVuSans-114"/>
     <use x="1905.052734" xlink:href="#DejaVuSans-101"/>
     <use x="1966.576172" xlink:href="#DejaVuSans-101"/>
     <use x="2028.099609" xlink:href="#DejaVuSans-32"/>
     <use x="2059.886719" xlink:href="#DejaVuSans-61"/>
     <use x="2143.675781" xlink:href="#DejaVuSans-32"/>
     <use x="2175.462891" xlink:href="#DejaVuSans-49"/>
     <use x="2239.085938" xlink:href="#DejaVuSans-44"/>
     <use x="2270.873047" xlink:href="#DejaVuSans-32"/>
     <use x="2302.660156" xlink:href="#DejaVuSans-68"/>
     <use x="2379.662109" xlink:href="#DejaVuSans-117"/>
     <use x="2443.041016" xlink:href="#DejaVuSans-114"/>
     <use x="2484.154297" xlink:href="#DejaVuSans-97"/>
     <use x="2545.433594" xlink:href="#DejaVuSans-116"/>
     <use x="2584.642578" xlink:href="#DejaVuSans-105"/>
     <use x="2612.425781" xlink:href="#DejaVuSans-111"/>
     <use x="2673.607422" xlink:href="#DejaVuSans-110"/>
     <use x="2736.986328" xlink:href="#DejaVuSans-32"/>
     <use x="2768.773438" xlink:href="#DejaVuSans-61"/>
     <use x="2852.5625" xlink:href="#DejaVuSans-32"/>
     <use x="2884.349609" xlink:href="#DejaVuSans-48"/>
     <use x="2947.972656" xlink:href="#DejaVuSans-46"/>
     <use x="2979.759766" xlink:href="#DejaVuSans-49"/>
    </g>
   </g>
  </g>
 </g>
 <defs>
  <clipPath id="p65260cd15d">
   <rect height="266.112" width="357.12" x="57.6" y="41.472"/>
  </clipPath>
 </defs>
</svg>
