<?xml version="1.0" encoding="utf-8" standalone="no"?>
<!DOCTYPE svg PUBLIC "-//W3C//DTD SVG 1.1//EN"
  "http://www.w3.org/Graphics/SVG/1.1/DTD/svg11.dtd">
<!-- Created with matplotlib (https://matplotlib.org/) -->
<svg height="345.6pt" version="1.1" viewBox="0 0 460.8 345.6" width="460.8pt" xmlns="http://www.w3.org/2000/svg" xmlns:xlink="http://www.w3.org/1999/xlink">
 <defs>
  <style type="text/css">
*{stroke-linecap:butt;stroke-linejoin:round;}
  </style>
 </defs>
 <g id="figure_1">
  <g id="patch_1">
   <path d="M 0 345.6 
L 460.8 345.6 
L 460.8 0 
L 0 0 
z
" style="fill:#ffffff;"/>
  </g>
  <g id="axes_1">
   <g id="patch_2">
    <path d="M 57.6 307.584 
L 414.72 307.584 
L 414.72 41.472 
L 57.6 41.472 
z
" style="fill:#ffffff;"/>
   </g>
   <g id="line2d_1">
    <path clip-path="url(#p87a0a9810c)" d="M 395.471051 244.37248 
L 396.308534 241.398353 
L 396.308534 241.398353 
L 396.478597 241.990256 
L 396.478597 244.37248 
L 396.645452 244.37248 
L 395.637906 244.37248 
L 395.637906 243.77327 
L 395.807969 244.37248 
L 396.141679 244.964383 
L 396.141679 243.77327 
L 396.308534 242.589466 
L 396.645452 242.589466 
L 396.812307 243.77327 
L 396.308534 244.37248 
L 395.471051 244.964383 
L 395.137341 244.37248 
L 395.137341 242.589466 
L 395.304196 241.398353 
L 395.471051 241.398353 
L 395.471051 243.181368 
L 395.304196 244.37248 
L 395.471051 245.556285 
L 395.807969 246.155495 
L 395.974824 246.747397 
L 395.807969 246.155495 
L 395.807969 245.556285 
L 395.974824 243.77327 
L 395.974824 244.964383 
L 395.974824 246.155495 
L 396.141679 245.556285 
L 396.308534 244.37248 
L 396.308534 243.181368 
L 395.974824 241.990256 
L 395.974824 241.990256 
L 395.637906 242.589466 
L 395.637906 242.589466 
L 395.974824 243.181368 
L 395.807969 244.37248 
L 395.471051 245.556285 
L 395.637906 245.556285 
L 396.141679 243.77327 
L 396.141679 240.806451 
L 396.141679 242.589466 
L 395.974824 243.181368 
L 395.807969 243.181368 
L 395.974824 243.77327 
L 396.308534 243.77327 
L 396.478597 243.181368 
L 396.308534 243.77327 
L 396.478597 244.964383 
L 396.812307 244.37248 
L 396.645452 243.77327 
L 396.141679 243.181368 
L 395.807969 243.77327 
L 395.807969 244.37248 
L 396.141679 244.37248 
L 396.308534 243.181368 
L 396.645452 242.589466 
L 396.812307 241.990256 
L 396.645452 241.990256 
L 396.141679 242.589466 
L 395.637906 244.37248 
L 395.807969 244.37248 
L 395.974824 243.181368 
L 396.478597 241.990256 
L 396.812307 241.990256 
L 396.645452 241.990256 
L 396.308534 241.398353 
L 396.308534 240.806451 
L 396.478597 241.398353 
L 396.812307 241.398353 
L 396.812307 244.37248 
L 396.812307 244.37248 
L 396.645452 243.77327 
L 396.308534 243.77327 
L 395.807969 244.37248 
L 394.970487 245.556285 
L 394.800423 245.556285 
L 395.137341 244.964383 
L 395.974824 244.37248 
L 397.482935 244.37248 
L 396.979162 244.37248 
L 396.979162 244.964383 
L 397.149225 244.37248 
L 396.812307 243.77327 
L 396.478597 242.589466 
L 396.478597 241.990256 
L 396.478597 247.339299 
L 396.478597 246.747397 
L 396.308534 246.155495 
L 395.974824 245.556285 
L 395.974824 244.964383 
L 396.141679 244.37248 
L 396.141679 244.964383 
L 395.807969 246.747397 
L 395.637906 246.747397 
L 395.807969 245.556285 
L 396.141679 244.964383 
L 396.141679 244.964383 
L 395.974824 244.964383 
L 395.637906 244.37248 
L 395.471051 243.77327 
L 395.471051 246.747397 
L 395.637906 246.747397 
L 395.637906 246.155495 
L 395.807969 245.556285 
L 396.141679 244.964383 
L 396.478597 244.964383 
L 396.645452 245.556285 
L 396.478597 246.155495 
L 395.471051 244.964383 
L 395.471051 246.747397 
L 395.807969 248.530412 
L 395.807969 250.905329 
L 395.807969 248.530412 
L 395.637906 247.339299 
L 395.304196 246.747397 
L 395.304196 246.747397 
L 395.637906 247.938509 
L 395.637906 248.530412 
L 395.807969 248.530412 
L 395.807969 247.339299 
L 395.637906 246.747397 
L 395.637906 244.37248 
L 395.807969 243.77327 
L 396.141679 245.556285 
L 396.141679 247.339299 
L 396.141679 247.339299 
L 395.807969 246.155495 
L 395.637906 244.964383 
L 395.304196 247.938509 
L 395.471051 248.530412 
L 395.807969 248.530412 
L 396.308534 250.313426 
L 396.141679 249.721524 
L 396.141679 249.122314 
L 396.141679 251.504538 
L 396.141679 250.313426 
L 395.974824 247.938509 
L 396.308534 244.964383 
L 395.974824 244.37248 
L 395.974824 244.964383 
L 396.141679 245.556285 
L 395.807969 246.747397 
L 395.974824 247.938509 
L 396.308534 248.530412 
L 396.478597 248.530412 
L 396.308534 247.938509 
L 396.478597 247.938509 
L 396.645452 247.339299 
L 396.478597 246.747397 
L 396.308534 246.747397 
L 395.974824 245.556285 
L 395.974824 246.747397 
L 395.807969 248.530412 
L 395.807969 252.688343 
L 395.974824 252.096441 
L 396.308534 250.313426 
L 396.478597 250.313426 
L 396.478597 249.721524 
L 396.645452 249.721524 
L 396.645452 249.721524 
L 396.979162 248.530412 
L 397.149225 248.530412 
L 396.979162 250.313426 
L 396.645452 251.504538 
L 396.645452 250.313426 
L 396.478597 249.122314 
L 396.141679 247.938509 
L 396.141679 247.938509 
L 396.645452 248.530412 
L 396.812307 249.122314 
L 396.645452 250.313426 
L 396.308534 250.905329 
L 395.471051 252.688343 
L 395.637906 252.688343 
L 395.807969 252.688343 
L 396.308534 251.504538 
L 396.478597 250.313426 
L 396.308534 250.313426 
L 396.308534 252.688343 
L 396.645452 254.471358 
L 396.478597 253.879455 
L 395.974824 253.287553 
L 395.974824 253.287553 
L 396.308534 253.287553 
L 396.308534 253.287553 
L 395.974824 252.096441 
L 395.974824 251.504538 
L 396.141679 252.688343 
L 396.308534 252.688343 
L 396.141679 251.504538 
L 395.807969 250.313426 
L 395.974824 250.905329 
L 396.478597 252.096441 
L 396.979162 252.096441 
L 396.979162 248.530412 
L 396.645452 249.721524 
L 396.141679 253.879455 
L 396.141679 253.287553 
L 396.478597 252.688343 
L 396.812307 252.688343 
L 396.979162 253.287553 
L 396.979162 253.879455 
L 396.308534 253.879455 
L 396.478597 253.287553 
L 397.31608 252.688343 
L 397.64979 252.688343 
L 397.482935 252.096441 
L 397.64979 251.504538 
L 397.819853 252.688343 
L 397.149225 255.66247 
L 397.149225 255.070568 
L 397.482935 253.287553 
L 397.482935 252.096441 
L 396.979162 255.070568 
L 397.819853 255.070568 
L 397.482935 255.070568 
L 397.31608 254.471358 
L 397.64979 252.688343 
L 397.819853 249.122314 
L 397.819853 249.721524 
L 397.64979 251.504538 
L 397.986708 252.096441 
L 398.487273 252.096441 
L 397.482935 252.096441 
L 397.482935 252.096441 
L 397.64979 252.688343 
L 397.482935 254.471358 
L 397.149225 255.070568 
L 397.31608 254.471358 
L 397.819853 253.879455 
L 398.153563 253.287553 
L 398.153563 253.879455 
L 397.986708 254.471358 
L 397.819853 254.471358 
L 397.482935 255.070568 
L 397.482935 256.254372 
L 397.64979 256.254372 
L 397.986708 255.070568 
L 397.986708 254.471358 
L 397.819853 255.070568 
L 397.819853 252.688343 
L 397.986708 252.688343 
L 397.986708 252.096441 
L 397.31608 252.688343 
L 394.800423 253.879455 
L 393.125457 253.287553 
L 390.6098 251.504538 
L 387.593579 249.122314 
L 383.906729 246.747397 
L 379.882961 242.589466 
L 375.191774 238.424227 
L 369.82675 234.858198 
L 357.091235 227.726139 
L 350.051245 223.568208 
L 342.340628 219.402969 
L 333.792527 214.653135 
L 324.740654 208.704882 
L 315.021361 200.980921 
L 305.298859 193.848863 
L 296.417049 188.499819 
L 287.702094 183.742678 
L 269.935265 171.853478 
L 261.050246 164.129518 
L 251.664663 156.39825 
L 241.94537 148.082387 
L 232.556578 140.351118 
L 223.674768 131.436046 
L 215.126667 121.929071 
L 206.915485 114.197802 
L 199.705432 107.657647 
L 193.169215 102.308603 
L 186.466144 97.558769 
L 179.593009 92.209725 
L 173.393711 88.044486 
L 167.524914 85.66957 
L 161.996244 84.478457 
L 156.464365 82.10354 
L 151.436259 79.129414 
L 147.078782 78.537511 
L 143.725642 82.10354 
L 140.542565 86.261472 
L 137.022571 88.636389 
L 132.831948 88.044486 
L 128.47447 85.66957 
L 124.116992 82.10354 
L 119.422596 76.155287 
L 114.394491 69.023229 
L 109.19953 62.49038 
L 104.842053 58.325141 
L 101.825831 56.542127 
L 98.305836 53.568 
L 97.802063 54.16721 
L 97.968918 55.950224 
L 98.639546 58.325141 
L 99.477029 61.89117 
L 100.147657 66.056409 
L 101.155203 69.023229 
L 102.997023 71.405453 
L 104.842053 74.971482 
L 106.517018 79.129414 
L 108.025129 80.912428 
L 109.19953 83.287345 
L 109.870158 85.07036 
L 110.373932 87.452584 
L 111.211414 88.636389 
L 111.545124 89.827501 
L 111.711979 91.610516 
L 111.882042 92.209725 
L 111.711979 92.801628 
L 111.04456 92.801628 
L 110.373932 93.99274 
L 109.703304 96.959559 
L 108.362048 96.959559 
L 108.025129 97.558769 
L 107.858274 98.742574 
L 107.524565 99.933686 
L 107.524565 101.124798 
L 107.524565 101.124798 
L 107.020792 102.308603 
L 106.683873 104.091617 
L 106.683873 105.28273 
L 107.187646 105.874632 
L 107.858274 105.874632 
L 108.362048 105.28273 
L 108.528902 104.690827 
L 108.862612 105.874632 
L 109.19953 110.039871 
L 109.366385 111.223676 
L 110.373932 111.223676 
L 110.707641 111.822886 
L 111.04456 113.00669 
L 111.378269 115.388915 
L 111.711979 115.388915 
L 111.882042 116.572719 
L 111.882042 118.363041 
L 112.048897 119.546846 
L 111.882042 119.546846 
L 111.882042 119.546846 
L 112.215752 118.954944 
L 112.215752 118.954944 
L 112.215752 119.546846 
L 112.719525 118.954944 
L 113.053235 118.954944 
L 113.053235 121.929071 
L 112.88638 123.712085 
L 113.053235 123.112875 
L 113.223298 122.520973 
L 113.890718 127.278114 
L 114.898264 127.278114 
L 115.231974 127.870017 
L 114.898264 128.461919 
L 114.561346 129.653031 
L 114.394491 131.436046 
L 114.561346 132.027948 
L 114.731409 130.844143 
L 115.065119 129.653031 
L 115.402037 130.244933 
L 115.402037 132.027948 
L 115.568892 133.21906 
L 115.568892 133.21906 
L 115.735747 132.627158 
L 115.902602 133.21906 
L 115.568892 134.410172 
L 115.735747 134.410172 
L 115.902602 132.627158 
L 116.23952 131.436046 
L 116.406375 131.436046 
L 116.740084 133.21906 
L 117.243858 135.002075 
L 117.077003 136.785089 
L 117.243858 136.785089 
L 117.410712 135.002075 
L 117.410712 135.593977 
L 118.251404 138.568104 
L 118.751968 139.160006 
L 119.088887 138.568104 
L 119.088887 138.568104 
L 119.088887 139.759216 
L 118.922032 139.759216 
L 118.922032 139.759216 
L 119.255742 140.351118 
L 118.751968 142.134133 
L 119.088887 142.726035 
L 119.589451 143.325245 
L 119.92637 144.50905 
L 119.92637 144.50905 
L 119.759515 143.325245 
L 119.92637 143.917148 
L 120.260079 145.10826 
L 120.596998 143.917148 
L 120.763852 143.917148 
L 120.763852 143.917148 
L 121.100771 144.50905 
L 121.267626 145.10826 
L 121.601335 145.10826 
L 121.601335 144.50905 
L 121.43448 145.700162 
L 120.930707 147.483177 
L 121.100771 146.299372 
L 121.601335 145.700162 
L 122.438818 146.299372 
L 122.608882 145.10826 
L 122.105108 143.325245 
L 121.43448 143.325245 
L 121.267626 143.917148 
L 121.100771 145.700162 
L 121.43448 145.10826 
L 121.938254 145.700162 
L 122.438818 146.891274 
L 122.775736 146.891274 
L 122.608882 146.299372 
L 122.438818 147.483177 
L 122.608882 148.674289 
L 122.942591 148.674289 
L 123.109446 148.082387 
L 123.27951 148.082387 
L 122.942591 148.674289 
L 122.271963 148.674289 
L 121.601335 148.082387 
L 121.100771 146.891274 
L 120.430143 146.299372 
L 116.910148 146.299372 
L 114.731409 144.50905 
L 112.55267 142.134133 
L 109.870158 139.759216 
L 107.020792 137.976202 
L 104.505134 136.193187 
L 102.326395 133.21906 
L 99.647092 130.244933 
L 96.293952 129.061129 
L 90.091445 130.244933 
L 85.567113 131.436046 
L 83.388374 132.627158 
L 81.543345 136.193187 
L 80.539007 140.351118 
L 79.364606 146.891274 
L 79.030896 149.865401 
L 78.693978 158.780474 
L 78.860833 164.129518 
L 78.693978 168.879351 
L 78.693978 173.04459 
L 79.030896 179.584746 
L 77.185867 187.900609 
L 76.682094 191.466638 
L 77.019012 196.22378 
L 76.515239 198.006794 
L 75.844611 200.980921 
L 74.840274 203.955048 
L 74.169646 207.521077 
L 73.832727 210.487896 
L 73.832727 213.462023 
L 74.3365 219.402969 
L 74.3365 222.377096 
L 74.002791 225.943125 
L 74.002791 228.318042 
L 74.503355 230.700266 
L 74.840274 233.674393 
L 75.173983 237.832324 
L 75.677756 240.207241 
L 75.844611 242.589466 
L 75.510902 242.589466 
L 75.344047 243.77327 
L 75.510902 244.37248 
L 77.352722 254.471358 
L 77.352722 254.471358 
L 77.352722 263.98564 
L 77.185867 265.768655 
L 77.522786 266.959767 
L 78.193414 270.525796 
L 78.527123 271.117699 
L 78.693978 272.308811 
L 78.527123 272.900713 
L 78.193414 273.492615 
L 78.193414 274.091825 
L 78.527123 275.27563 
L 78.693978 274.683728 
L 78.693978 272.900713 
L 78.860833 272.900713 
L 78.527123 272.900713 
L 78.693978 272.900713 
L 78.860833 274.091825 
L 79.197751 275.27563 
L 79.197751 275.87484 
L 79.030896 276.466742 
L 78.860833 278.249757 
L 78.860833 280.624674 
L 79.197751 280.624674 
L 79.701524 282.407688 
L 79.531461 281.815786 
L 79.197751 281.223884 
L 79.030896 280.624674 
L 79.701524 280.624674 
L 80.539007 281.223884 
L 81.209635 283.006898 
L 81.209635 284.190703 
L 80.872717 284.190703 
L 80.872717 283.006898 
L 81.209635 282.407688 
L 81.880263 283.5988 
L 82.380828 285.381815 
L 82.884601 285.973717 
L 82.884601 284.789913 
L 82.884601 284.789913 
L 82.717746 285.973717 
L 82.717746 285.973717 
L 83.221519 284.190703 
L 83.555229 286.572927 
L 83.892147 286.572927 
L 84.059002 287.764039 
L 84.059002 288.947844 
L 84.225857 288.947844 
L 83.555229 288.947844 
L 82.884601 287.16483 
L 83.051456 287.764039 
L 83.722084 288.947844 
L 83.892147 290.138956 
L 83.221519 290.730859 
L 83.051456 290.138956 
L 83.555229 288.947844 
L 84.225857 289.547054 
L 84.392712 290.138956 
L 84.059002 290.730859 
L 83.051456 290.730859 
L 83.051456 290.730859 
L 83.388374 291.921971 
L 83.555229 291.921971 
L 83.388374 291.330069 
L 83.388374 290.138956 
L 83.555229 288.947844 
L 83.722084 289.547054 
L 83.388374 292.513873 
L 83.722084 293.704985 
L 84.225857 294.296888 
L 84.559567 294.296888 
L 84.559567 294.296888 
L 84.559567 293.113083 
L 84.72963 291.921971 
L 84.72963 290.138956 
L 84.896485 289.547054 
L 85.567113 291.921971 
L 85.900823 291.921971 
L 86.237741 291.330069 
L 87.075224 291.330069 
L 86.908369 291.330069 
L 86.237741 292.513873 
L 85.733968 292.513873 
L 85.733968 291.921971 
L 85.567113 291.330069 
L 85.900823 290.730859 
L 86.404596 290.730859 
L 86.404596 290.730859 
L 86.571451 291.330069 
L 86.571451 290.730859 
L 86.741514 290.138956 
L 86.571451 290.730859 
L 86.237741 294.296888 
L 86.404596 295.488 
L 86.237741 294.296888 
L 86.404596 293.704985 
L 86.070886 292.513873 
L 85.733968 291.921971 
L 85.567113 291.921971 
L 85.733968 291.921971 
L 85.733968 290.730859 
L 85.733968 290.730859 
L 85.230195 287.764039 
L 85.733968 287.16483 
L 86.571451 288.355942 
L 86.741514 289.547054 
L 86.571451 289.547054 
L 86.741514 288.355942 
L 87.075224 287.16483 
L 87.075224 286.572927 
L 86.908369 287.16483 
L 86.571451 287.16483 
L 86.571451 286.572927 
L 86.908369 285.973717 
L 87.242079 287.16483 
L 87.578997 287.764039 
L 87.745852 288.355942 
L 87.408933 288.947844 
L 86.908369 289.547054 
L 86.571451 288.355942 
L 86.741514 286.572927 
L 87.578997 286.572927 
L 87.578997 285.973717 
L 87.408933 287.16483 
L 87.745852 288.355942 
L 88.249625 287.764039 
L 88.41648 285.973717 
L 88.583335 283.006898 
L 88.920253 287.16483 
L 88.920253 288.947844 
L 89.087108 288.947844 
L 89.587672 285.973717 
L 89.587672 285.381815 
L 89.420817 284.789913 
L 89.253963 283.5988 
L 89.087108 284.190703 
L 89.757736 288.947844 
L 89.924591 288.947844 
L 89.087108 285.973717 
L 89.087108 284.190703 
L 89.420817 284.190703 
L 89.587672 284.789913 
L 89.420817 284.789913 
L 89.253963 285.381815 
L 89.420817 285.381815 
L 89.757736 285.973717 
L 90.428364 285.973717 
L 90.762073 285.381815 
L 90.762073 286.572927 
L 90.428364 287.764039 
L 90.428364 287.764039 
L 90.091445 285.973717 
L 89.757736 286.572927 
L 89.757736 288.947844 
L 89.924591 289.547054 
L 90.2583 285.973717 
L 90.2583 286.572927 
L 90.428364 288.355942 
L 90.595219 288.355942 
L 90.595219 287.764039 
L 90.2583 286.572927 
L 90.2583 285.973717 
L 90.2583 285.973717 
L 90.091445 286.572927 
L 90.428364 285.381815 
L 90.928928 284.789913 
L 90.928928 285.381815 
L 90.428364 285.381815 
L 90.928928 281.815786 
L 91.265847 281.815786 
L 91.265847 283.006898 
L 90.762073 283.006898 
L 90.595219 280.624674 
L 90.928928 277.058645 
L 91.76962 271.709601 
L 92.103329 267.551669 
L 93.277731 262.794528 
L 95.119551 256.853582 
L 97.468353 252.096441 
L 99.310174 246.155495 
L 102.496459 234.858198 
L 104.675198 228.318042 
L 107.020792 220.594081 
L 109.19953 212.270911 
L 114.227636 190.874736 
L 115.402037 183.150775 
L 116.406375 175.419507 
L 117.580776 162.938405 
L 117.914486 151.648416 
L 118.251404 146.891274 
L 118.751968 143.917148 
L 119.088887 140.351118 
L 119.088887 137.376992 
L 118.751968 137.376992 
L 118.251404 140.351118 
L 117.580776 140.943021 
L 116.910148 142.726035 
L 116.740084 143.917148 
L 117.410712 148.674289 
L 117.243858 152.240318 
L 117.243858 155.214445 
L 117.410712 157.589362 
L 117.747631 159.964279 
L 117.747631 161.747293 
L 117.243858 161.747293 
L 117.077003 162.346503 
L 117.243858 162.938405 
L 117.747631 163.530308 
L 118.08134 162.938405 
L 118.08134 161.747293 
L 118.251404 161.747293 
L 118.251404 159.964279 
L 118.585114 157.589362 
L 118.922032 156.997459 
L 118.922032 156.39825 
L 118.751968 155.806347 
L 118.751968 155.214445 
L 118.585114 155.806347 
L 118.585114 156.997459 
L 118.922032 156.997459 
L 119.422596 155.214445 
L 119.422596 154.023333 
L 118.922032 155.214445 
L 118.585114 156.39825 
L 118.751968 156.39825 
L 118.751968 156.997459 
L 118.751968 156.997459 
L 118.585114 155.806347 
L 118.751968 155.214445 
L 118.922032 155.214445 
L 118.922032 156.39825 
L 118.751968 157.589362 
L 118.922032 158.181264 
L 119.255742 157.589362 
L 119.422596 157.589362 
L 119.422596 158.181264 
L 119.255742 158.181264 
L 119.088887 157.589362 
L 119.088887 156.997459 
L 119.422596 157.589362 
L 119.92637 158.780474 
L 120.260079 161.155391 
L 120.093224 159.964279 
L 119.759515 158.780474 
L 119.422596 159.372376 
L 119.255742 161.155391 
L 119.088887 161.155391 
L 119.255742 159.964279 
L 119.759515 159.964279 
L 119.759515 159.372376 
L 119.92637 159.372376 
L 120.260079 158.780474 
L 120.260079 158.181264 
L 119.759515 156.997459 
L 119.589451 157.589362 
L 119.92637 158.780474 
L 120.260079 159.372376 
L 120.260079 159.964279 
L 119.759515 159.964279 
L 119.589451 160.563488 
L 119.422596 160.563488 
L 119.422596 159.964279 
L 119.589451 159.964279 
L 119.92637 160.563488 
L 120.430143 160.563488 
L 120.930707 161.155391 
L 121.267626 161.155391 
L 120.930707 160.563488 
L 120.596998 159.372376 
L 120.596998 159.964279 
L 120.260079 162.346503 
L 120.596998 161.747293 
L 121.100771 161.747293 
L 121.43448 162.346503 
L 121.771399 164.72142 
L 122.271963 165.313322 
L 122.438818 163.530308 
L 121.938254 164.129518 
L 121.601335 165.313322 
L 121.267626 165.313322 
L 121.267626 164.72142 
L 121.100771 164.129518 
L 121.43448 166.504434 
L 121.43448 165.912532 
L 121.601335 164.129518 
L 121.938254 162.346503 
L 121.771399 162.346503 
L 121.100771 163.530308 
L 120.430143 165.313322 
L 120.260079 164.72142 
L 120.430143 163.530308 
L 121.100771 163.530308 
L 121.771399 164.72142 
L 121.771399 165.313322 
L 121.601335 165.912532 
L 121.43448 165.912532 
L 121.43448 166.504434 
L 121.43448 166.504434 
L 121.267626 166.504434 
L 121.601335 166.504434 
L 121.771399 167.695547 
L 121.601335 168.879351 
L 121.43448 168.879351 
L 121.267626 167.695547 
L 121.267626 168.287449 
L 121.267626 169.478561 
L 121.267626 168.879351 
L 121.601335 167.695547 
L 121.938254 167.695547 
L 122.271963 167.096337 
L 122.608882 167.695547 
L 122.942591 167.695547 
L 122.775736 167.096337 
L 122.608882 167.695547 
L 122.438818 168.879351 
L 122.438818 168.879351 
L 122.438818 164.72142 
L 122.775736 162.938405 
L 122.942591 162.938405 
L 122.942591 164.129518 
L 122.608882 166.504434 
L 122.608882 166.504434 
L 122.775736 166.504434 
L 122.775736 167.096337 
L 122.438818 165.912532 
L 122.105108 165.912532 
L 122.105108 164.72142 
L 122.271963 163.530308 
L 122.438818 163.530308 
L 123.109446 168.287449 
L 123.27951 167.695547 
L 122.775736 169.478561 
L 122.105108 170.662366 
L 121.771399 169.478561 
L 121.771399 168.287449 
L 121.938254 167.695547 
L 121.938254 167.695547 
L 122.105108 168.287449 
L 122.271963 168.287449 
L 122.271963 167.695547 
L 122.438818 167.096337 
L 122.775736 167.096337 
L 122.775736 167.695547 
L 122.608882 168.287449 
L 122.608882 168.287449 
L 122.608882 168.879351 
L 122.438818 169.478561 
L 122.271963 170.662366 
L 122.438818 171.261576 
L 122.775736 170.662366 
L 121.601335 170.662366 
L 120.930707 170.070464 
L 121.100771 168.879351 
L 121.771399 168.879351 
L 122.271963 170.070464 
L 122.271963 171.261576 
L 122.271963 170.070464 
L 122.438818 170.070464 
L 122.438818 170.070464 
L 122.608882 170.662366 
L 122.775736 170.070464 
L 122.608882 169.478561 
L 122.271963 170.070464 
L 122.271963 170.662366 
L 122.438818 171.261576 
L 122.775736 170.662366 
L 122.775736 170.070464 
L 122.438818 170.070464 
L 122.438818 170.662366 
L 122.438818 170.662366 
L 122.608882 170.070464 
L 122.942591 170.070464 
L 122.942591 170.070464 
L 122.775736 171.261576 
L 122.942591 171.261576 
L 123.27951 170.070464 
L 123.446364 168.879351 
L 123.109446 171.261576 
L 122.942591 171.261576 
L 122.942591 170.662366 
L 123.109446 169.478561 
L 123.109446 169.478561 
L 123.109446 170.662366 
L 123.446364 171.853478 
L 124.116992 171.853478 
L 123.950138 173.636493 
L 123.613219 174.827605 
L 123.446364 174.235703 
L 123.613219 173.04459 
L 124.283847 171.853478 
L 125.12133 171.853478 
L 125.288185 173.04459 
L 124.954475 173.636493 
L 124.283847 173.636493 
L 124.116992 172.445381 
L 124.283847 172.445381 
L 124.116992 171.853478 
L 123.613219 170.662366 
L 123.613219 169.478561 
L 124.450702 169.478561 
L 124.450702 169.478561 
L 124.283847 170.662366 
L 124.283847 171.853478 
L 124.283847 171.261576 
L 124.450702 170.070464 
L 124.283847 170.070464 
L 125.288185 170.070464 
L 125.288185 171.261576 
L 125.625103 173.636493 
L 125.288185 173.04459 
L 124.450702 173.04459 
L 124.617557 172.445381 
L 124.954475 172.445381 
L 125.288185 173.04459 
L 125.458248 173.04459 
L 125.288185 173.04459 
L 124.954475 173.636493 
L 124.78762 173.636493 
L 124.78762 171.261576 
L 124.78762 171.261576 
L 125.12133 171.853478 
L 125.625103 174.235703 
L 125.791958 173.636493 
L 125.625103 172.445381 
L 125.288185 171.853478 
L 124.954475 170.662366 
L 124.954475 170.070464 
L 125.12133 170.070464 
L 125.458248 170.662366 
L 125.288185 170.662366 
L 125.12133 170.070464 
L 124.954475 171.261576 
L 125.12133 171.853478 
L 125.12133 171.853478 
L 124.450702 171.853478 
L 124.283847 171.261576 
L 124.116992 171.261576 
L 123.950138 170.070464 
L 124.116992 170.070464 
L 124.450702 171.261576 
L 124.450702 170.662366 
L 124.617557 170.662366 
L 124.617557 171.261576 
L 124.450702 171.261576 
L 123.613219 171.853478 
L 123.109446 173.04459 
L 123.27951 173.636493 
L 123.780074 174.235703 
L 123.950138 173.636493 
L 123.613219 172.445381 
L 123.613219 170.662366 
L 123.950138 170.662366 
L 123.780074 171.261576 
L 123.27951 171.853478 
L 123.109446 171.853478 
L 123.27951 170.662366 
L 123.613219 170.070464 
L 123.613219 170.662366 
L 123.27951 171.261576 
L 123.109446 173.636493 
L 123.27951 174.827605 
L 123.446364 173.636493 
L 123.446364 172.445381 
L 123.27951 172.445381 
L 122.942591 173.04459 
L 122.942591 173.636493 
L 123.109446 173.636493 
L 123.446364 172.445381 
L 123.613219 173.04459 
L 123.446364 173.04459 
L 124.116992 173.04459 
L 123.780074 173.636493 
L 123.109446 173.04459 
L 122.775736 171.853478 
L 123.109446 171.853478 
L 123.446364 172.445381 
L 123.613219 171.853478 
L 123.613219 171.261576 
L 123.780074 170.070464 
L 124.116992 170.070464 
L 124.283847 171.853478 
L 123.780074 174.235703 
L 123.780074 171.261576 
L 123.446364 170.070464 
L 123.446364 171.853478 
L 123.109446 171.853478 
L 123.446364 173.636493 
L 123.446364 172.445381 
L 123.613219 171.853478 
L 123.780074 171.853478 
L 123.780074 173.636493 
L 124.116992 173.04459 
L 124.116992 172.445381 
L 123.446364 172.445381 
L 122.775736 173.04459 
L 122.775736 172.445381 
L 123.446364 170.662366 
L 124.116992 171.261576 
L 124.450702 173.636493 
L 124.116992 177.202522 
L 123.780074 178.985536 
L 124.116992 178.985536 
L 124.617557 177.202522 
L 124.78762 176.018717 
L 124.78762 174.827605 
L 124.283847 173.04459 
L 123.613219 172.445381 
L 123.446364 174.235703 
L 123.780074 177.202522 
L 124.283847 178.393634 
L 124.617557 177.202522 
L 125.288185 172.445381 
L 125.458248 172.445381 
L 125.288185 173.04459 
L 125.288185 173.636493 
L 125.12133 174.235703 
L 125.12133 175.419507 
L 125.288185 176.610619 
L 125.458248 176.018717 
L 125.458248 174.827605 
L 125.288185 173.636493 
L 124.954475 174.235703 
L 124.78762 174.827605 
L 124.954475 175.419507 
L 125.458248 176.610619 
L 126.295731 176.018717 
L 126.799504 174.827605 
L 126.799504 173.636493 
L 126.462586 173.04459 
L 126.295731 173.636493 
L 126.462586 174.235703 
L 126.295731 175.419507 
L 125.791958 177.202522 
L 125.791958 176.018717 
L 126.128876 174.235703 
L 126.799504 172.445381 
L 127.133214 172.445381 
L 127.133214 173.04459 
L 126.799504 176.610619 
L 126.462586 177.801732 
L 125.958813 178.393634 
L 125.458248 177.202522 
L 125.625103 174.827605 
L 126.128876 173.636493 
L 126.462586 173.636493 
L 126.966359 174.827605 
L 127.466924 177.801732 
L 127.636987 177.202522 
L 127.636987 177.202522 
L 127.803842 176.018717 
L 127.636987 175.419507 
L 127.133214 174.827605 
L 126.629441 174.827605 
L 126.462586 176.018717 
L 126.799504 178.393634 
L 127.133214 178.985536 
L 127.466924 178.393634 
L 127.636987 176.610619 
L 127.466924 176.018717 
L 127.636987 176.018717 
L 128.137552 177.202522 
L 128.137552 177.801732 
L 127.970697 178.393634 
L 128.307615 178.393634 
L 128.641325 178.985536 
L 128.137552 178.985536 
L 128.307615 180.176649 
L 128.47447 180.176649 
L 128.80818 177.202522 
L 129.311953 176.610619 
L 129.478808 176.610619 
L 128.641325 176.610619 
L 128.47447 177.202522 
L 127.970697 177.801732 
L 127.970697 178.393634 
L 128.47447 178.393634 
L 128.47447 177.801732 
L 128.307615 177.801732 
L 128.137552 178.393634 
L 128.307615 178.393634 
L 128.307615 177.202522 
L 128.307615 177.202522 
L 128.137552 177.801732 
L 127.970697 179.584746 
L 128.307615 179.584746 
L 128.47447 176.610619 
L 128.641325 177.202522 
L 128.978243 177.202522 
L 128.80818 177.801732 
L 128.641325 178.985536 
L 128.307615 178.985536 
L 127.803842 178.393634 
L 127.466924 177.202522 
L 127.466924 176.610619 
L 128.137552 177.801732 
L 128.641325 178.393634 
L 128.80818 179.584746 
L 128.137552 179.584746 
L 128.80818 177.202522 
L 128.80818 175.419507 
L 128.80818 176.018717 
L 128.641325 177.801732 
L 128.137552 180.176649 
L 127.803842 179.584746 
L 127.636987 179.584746 
L 127.803842 180.768551 
L 127.636987 181.367761 
L 126.295731 178.985536 
L 126.128876 178.985536 
L 126.295731 180.176649 
L 126.462586 180.176649 
L 126.966359 178.985536 
L 127.133214 178.985536 
L 126.629441 180.768551 
L 126.462586 180.176649 
L 126.462586 178.985536 
L 126.462586 178.985536 
" style="fill:none;stroke:#1f77b4;stroke-linecap:square;stroke-width:1.5;"/>
   </g>
   <g id="matplotlib.axis_1">
    <g id="xtick_1">
     <g id="line2d_2">
      <defs>
       <path d="M 0 0 
L 0 3.5 
" id="mffe634a2cf" style="stroke:#000000;stroke-width:0.8;"/>
      </defs>
      <g>
       <use style="stroke:#000000;stroke-width:0.8;" x="95.851145" xlink:href="#mffe634a2cf" y="307.584"/>
      </g>
     </g>
     <g id="text_1">
      <!-- −200 -->
      <defs>
       <path d="M 10.59375 35.5 
L 73.1875 35.5 
L 73.1875 27.203125 
L 10.59375 27.203125 
z
" id="DejaVuSans-8722"/>
       <path d="M 19.1875 8.296875 
L 53.609375 8.296875 
L 53.609375 0 
L 7.328125 0 
L 7.328125 8.296875 
Q 12.9375 14.109375 22.625 23.890625 
Q 32.328125 33.6875 34.8125 36.53125 
Q 39.546875 41.84375 41.421875 45.53125 
Q 43.3125 49.21875 43.3125 52.78125 
Q 43.3125 58.59375 39.234375 62.25 
Q 35.15625 65.921875 28.609375 65.921875 
Q 23.96875 65.921875 18.8125 64.3125 
Q 13.671875 62.703125 7.8125 59.421875 
L 7.8125 69.390625 
Q 13.765625 71.78125 18.9375 73 
Q 24.125 74.21875 28.421875 74.21875 
Q 39.75 74.21875 46.484375 68.546875 
Q 53.21875 62.890625 53.21875 53.421875 
Q 53.21875 48.921875 51.53125 44.890625 
Q 49.859375 40.875 45.40625 35.40625 
Q 44.1875 33.984375 37.640625 27.21875 
Q 31.109375 20.453125 19.1875 8.296875 
z
" id="DejaVuSans-50"/>
       <path d="M 31.78125 66.40625 
Q 24.171875 66.40625 20.328125 58.90625 
Q 16.5 51.421875 16.5 36.375 
Q 16.5 21.390625 20.328125 13.890625 
Q 24.171875 6.390625 31.78125 6.390625 
Q 39.453125 6.390625 43.28125 13.890625 
Q 47.125 21.390625 47.125 36.375 
Q 47.125 51.421875 43.28125 58.90625 
Q 39.453125 66.40625 31.78125 66.40625 
z
M 31.78125 74.21875 
Q 44.046875 74.21875 50.515625 64.515625 
Q 56.984375 54.828125 56.984375 36.375 
Q 56.984375 17.96875 50.515625 8.265625 
Q 44.046875 -1.421875 31.78125 -1.421875 
Q 19.53125 -1.421875 13.0625 8.265625 
Q 6.59375 17.96875 6.59375 36.375 
Q 6.59375 54.828125 13.0625 64.515625 
Q 19.53125 74.21875 31.78125 74.21875 
z
" id="DejaVuSans-48"/>
      </defs>
      <g transform="translate(82.117551 322.182437)scale(0.1 -0.1)">
       <use xlink:href="#DejaVuSans-8722"/>
       <use x="83.789062" xlink:href="#DejaVuSans-50"/>
       <use x="147.412109" xlink:href="#DejaVuSans-48"/>
       <use x="211.035156" xlink:href="#DejaVuSans-48"/>
      </g>
     </g>
    </g>
    <g id="xtick_2">
     <g id="line2d_3">
      <g>
       <use style="stroke:#000000;stroke-width:0.8;" x="160.026074" xlink:href="#mffe634a2cf" y="307.584"/>
      </g>
     </g>
     <g id="text_2">
      <!-- 0 -->
      <g transform="translate(156.844824 322.182437)scale(0.1 -0.1)">
       <use xlink:href="#DejaVuSans-48"/>
      </g>
     </g>
    </g>
    <g id="xtick_3">
     <g id="line2d_4">
      <g>
       <use style="stroke:#000000;stroke-width:0.8;" x="224.201002" xlink:href="#mffe634a2cf" y="307.584"/>
      </g>
     </g>
     <g id="text_3">
      <!-- 200 -->
      <g transform="translate(214.657252 322.182437)scale(0.1 -0.1)">
       <use xlink:href="#DejaVuSans-50"/>
       <use x="63.623047" xlink:href="#DejaVuSans-48"/>
       <use x="127.246094" xlink:href="#DejaVuSans-48"/>
      </g>
     </g>
    </g>
    <g id="xtick_4">
     <g id="line2d_5">
      <g>
       <use style="stroke:#000000;stroke-width:0.8;" x="288.375931" xlink:href="#mffe634a2cf" y="307.584"/>
      </g>
     </g>
     <g id="text_4">
      <!-- 400 -->
      <defs>
       <path d="M 37.796875 64.3125 
L 12.890625 25.390625 
L 37.796875 25.390625 
z
M 35.203125 72.90625 
L 47.609375 72.90625 
L 47.609375 25.390625 
L 58.015625 25.390625 
L 58.015625 17.1875 
L 47.609375 17.1875 
L 47.609375 0 
L 37.796875 0 
L 37.796875 17.1875 
L 4.890625 17.1875 
L 4.890625 26.703125 
z
" id="DejaVuSans-52"/>
      </defs>
      <g transform="translate(278.832181 322.182437)scale(0.1 -0.1)">
       <use xlink:href="#DejaVuSans-52"/>
       <use x="63.623047" xlink:href="#DejaVuSans-48"/>
       <use x="127.246094" xlink:href="#DejaVuSans-48"/>
      </g>
     </g>
    </g>
    <g id="xtick_5">
     <g id="line2d_6">
      <g>
       <use style="stroke:#000000;stroke-width:0.8;" x="352.550859" xlink:href="#mffe634a2cf" y="307.584"/>
      </g>
     </g>
     <g id="text_5">
      <!-- 600 -->
      <defs>
       <path d="M 33.015625 40.375 
Q 26.375 40.375 22.484375 35.828125 
Q 18.609375 31.296875 18.609375 23.390625 
Q 18.609375 15.53125 22.484375 10.953125 
Q 26.375 6.390625 33.015625 6.390625 
Q 39.65625 6.390625 43.53125 10.953125 
Q 47.40625 15.53125 47.40625 23.390625 
Q 47.40625 31.296875 43.53125 35.828125 
Q 39.65625 40.375 33.015625 40.375 
z
M 52.59375 71.296875 
L 52.59375 62.3125 
Q 48.875 64.0625 45.09375 64.984375 
Q 41.3125 65.921875 37.59375 65.921875 
Q 27.828125 65.921875 22.671875 59.328125 
Q 17.53125 52.734375 16.796875 39.40625 
Q 19.671875 43.65625 24.015625 45.921875 
Q 28.375 48.1875 33.59375 48.1875 
Q 44.578125 48.1875 50.953125 41.515625 
Q 57.328125 34.859375 57.328125 23.390625 
Q 57.328125 12.15625 50.6875 5.359375 
Q 44.046875 -1.421875 33.015625 -1.421875 
Q 20.359375 -1.421875 13.671875 8.265625 
Q 6.984375 17.96875 6.984375 36.375 
Q 6.984375 53.65625 15.1875 63.9375 
Q 23.390625 74.21875 37.203125 74.21875 
Q 40.921875 74.21875 44.703125 73.484375 
Q 48.484375 72.75 52.59375 71.296875 
z
" id="DejaVuSans-54"/>
      </defs>
      <g transform="translate(343.007109 322.182437)scale(0.1 -0.1)">
       <use xlink:href="#DejaVuSans-54"/>
       <use x="63.623047" xlink:href="#DejaVuSans-48"/>
       <use x="127.246094" xlink:href="#DejaVuSans-48"/>
      </g>
     </g>
    </g>
   </g>
   <g id="matplotlib.axis_2">
    <g id="ytick_1">
     <g id="line2d_7">
      <defs>
       <path d="M 0 0 
L -3.5 0 
" id="m10c624283e" style="stroke:#000000;stroke-width:0.8;"/>
      </defs>
      <g>
       <use style="stroke:#000000;stroke-width:0.8;" x="57.6" xlink:href="#m10c624283e" y="283.635338"/>
      </g>
     </g>
     <g id="text_6">
      <!-- 100 -->
      <defs>
       <path d="M 12.40625 8.296875 
L 28.515625 8.296875 
L 28.515625 63.921875 
L 10.984375 60.40625 
L 10.984375 69.390625 
L 28.421875 72.90625 
L 38.28125 72.90625 
L 38.28125 8.296875 
L 54.390625 8.296875 
L 54.390625 0 
L 12.40625 0 
z
" id="DejaVuSans-49"/>
      </defs>
      <g transform="translate(31.5125 287.434556)scale(0.1 -0.1)">
       <use xlink:href="#DejaVuSans-49"/>
       <use x="63.623047" xlink:href="#DejaVuSans-48"/>
       <use x="127.246094" xlink:href="#DejaVuSans-48"/>
      </g>
     </g>
    </g>
    <g id="ytick_2">
     <g id="line2d_8">
      <g>
       <use style="stroke:#000000;stroke-width:0.8;" x="57.6" xlink:href="#m10c624283e" y="247.098154"/>
      </g>
     </g>
     <g id="text_7">
      <!-- 150 -->
      <defs>
       <path d="M 10.796875 72.90625 
L 49.515625 72.90625 
L 49.515625 64.59375 
L 19.828125 64.59375 
L 19.828125 46.734375 
Q 21.96875 47.46875 24.109375 47.828125 
Q 26.265625 48.1875 28.421875 48.1875 
Q 40.625 48.1875 47.75 41.5 
Q 54.890625 34.8125 54.890625 23.390625 
Q 54.890625 11.625 47.5625 5.09375 
Q 40.234375 -1.421875 26.90625 -1.421875 
Q 22.3125 -1.421875 17.546875 -0.640625 
Q 12.796875 0.140625 7.71875 1.703125 
L 7.71875 11.625 
Q 12.109375 9.234375 16.796875 8.0625 
Q 21.484375 6.890625 26.703125 6.890625 
Q 35.15625 6.890625 40.078125 11.328125 
Q 45.015625 15.765625 45.015625 23.390625 
Q 45.015625 31 40.078125 35.4375 
Q 35.15625 39.890625 26.703125 39.890625 
Q 22.75 39.890625 18.8125 39.015625 
Q 14.890625 38.140625 10.796875 36.28125 
z
" id="DejaVuSans-53"/>
      </defs>
      <g transform="translate(31.5125 250.897373)scale(0.1 -0.1)">
       <use xlink:href="#DejaVuSans-49"/>
       <use x="63.623047" xlink:href="#DejaVuSans-53"/>
       <use x="127.246094" xlink:href="#DejaVuSans-48"/>
      </g>
     </g>
    </g>
    <g id="ytick_3">
     <g id="line2d_9">
      <g>
       <use style="stroke:#000000;stroke-width:0.8;" x="57.6" xlink:href="#m10c624283e" y="210.56097"/>
      </g>
     </g>
     <g id="text_8">
      <!-- 200 -->
      <g transform="translate(31.5125 214.360189)scale(0.1 -0.1)">
       <use xlink:href="#DejaVuSans-50"/>
       <use x="63.623047" xlink:href="#DejaVuSans-48"/>
       <use x="127.246094" xlink:href="#DejaVuSans-48"/>
      </g>
     </g>
    </g>
    <g id="ytick_4">
     <g id="line2d_10">
      <g>
       <use style="stroke:#000000;stroke-width:0.8;" x="57.6" xlink:href="#m10c624283e" y="174.023787"/>
      </g>
     </g>
     <g id="text_9">
      <!-- 250 -->
      <g transform="translate(31.5125 177.823006)scale(0.1 -0.1)">
       <use xlink:href="#DejaVuSans-50"/>
       <use x="63.623047" xlink:href="#DejaVuSans-53"/>
       <use x="127.246094" xlink:href="#DejaVuSans-48"/>
      </g>
     </g>
    </g>
    <g id="ytick_5">
     <g id="line2d_11">
      <g>
       <use style="stroke:#000000;stroke-width:0.8;" x="57.6" xlink:href="#m10c624283e" y="137.486603"/>
      </g>
     </g>
     <g id="text_10">
      <!-- 300 -->
      <defs>
       <path d="M 40.578125 39.3125 
Q 47.65625 37.796875 51.625 33 
Q 55.609375 28.21875 55.609375 21.1875 
Q 55.609375 10.40625 48.1875 4.484375 
Q 40.765625 -1.421875 27.09375 -1.421875 
Q 22.515625 -1.421875 17.65625 -0.515625 
Q 12.796875 0.390625 7.625 2.203125 
L 7.625 11.71875 
Q 11.71875 9.328125 16.59375 8.109375 
Q 21.484375 6.890625 26.8125 6.890625 
Q 36.078125 6.890625 40.9375 10.546875 
Q 45.796875 14.203125 45.796875 21.1875 
Q 45.796875 27.640625 41.28125 31.265625 
Q 36.765625 34.90625 28.71875 34.90625 
L 20.21875 34.90625 
L 20.21875 43.015625 
L 29.109375 43.015625 
Q 36.375 43.015625 40.234375 45.921875 
Q 44.09375 48.828125 44.09375 54.296875 
Q 44.09375 59.90625 40.109375 62.90625 
Q 36.140625 65.921875 28.71875 65.921875 
Q 24.65625 65.921875 20.015625 65.03125 
Q 15.375 64.15625 9.8125 62.3125 
L 9.8125 71.09375 
Q 15.4375 72.65625 20.34375 73.4375 
Q 25.25 74.21875 29.59375 74.21875 
Q 40.828125 74.21875 47.359375 69.109375 
Q 53.90625 64.015625 53.90625 55.328125 
Q 53.90625 49.265625 50.4375 45.09375 
Q 46.96875 40.921875 40.578125 39.3125 
z
" id="DejaVuSans-51"/>
      </defs>
      <g transform="translate(31.5125 141.285822)scale(0.1 -0.1)">
       <use xlink:href="#DejaVuSans-51"/>
       <use x="63.623047" xlink:href="#DejaVuSans-48"/>
       <use x="127.246094" xlink:href="#DejaVuSans-48"/>
      </g>
     </g>
    </g>
    <g id="ytick_6">
     <g id="line2d_12">
      <g>
       <use style="stroke:#000000;stroke-width:0.8;" x="57.6" xlink:href="#m10c624283e" y="100.94942"/>
      </g>
     </g>
     <g id="text_11">
      <!-- 350 -->
      <g transform="translate(31.5125 104.748638)scale(0.1 -0.1)">
       <use xlink:href="#DejaVuSans-51"/>
       <use x="63.623047" xlink:href="#DejaVuSans-53"/>
       <use x="127.246094" xlink:href="#DejaVuSans-48"/>
      </g>
     </g>
    </g>
    <g id="ytick_7">
     <g id="line2d_13">
      <g>
       <use style="stroke:#000000;stroke-width:0.8;" x="57.6" xlink:href="#m10c624283e" y="64.412236"/>
      </g>
     </g>
     <g id="text_12">
      <!-- 400 -->
      <g transform="translate(31.5125 68.211455)scale(0.1 -0.1)">
       <use xlink:href="#DejaVuSans-52"/>
       <use x="63.623047" xlink:href="#DejaVuSans-48"/>
       <use x="127.246094" xlink:href="#DejaVuSans-48"/>
      </g>
     </g>
    </g>
   </g>
   <g id="line2d_14">
    <path clip-path="url(#p87a0a9810c)" d="M 395.717649 247.504881 
L 112.712609 116.870409 
L 79.471482 268.77974 
L 88.455681 285.625412 
L 121.091774 164.72597 
L 125.734661 174.901997 
" style="fill:none;stroke:#ff0000;stroke-linecap:square;stroke-width:0.5;"/>
   </g>
   <g id="patch_3">
    <path d="M 57.6 307.584 
L 57.6 41.472 
" style="fill:none;stroke:#000000;stroke-linecap:square;stroke-linejoin:miter;stroke-width:0.8;"/>
   </g>
   <g id="patch_4">
    <path d="M 414.72 307.584 
L 414.72 41.472 
" style="fill:none;stroke:#000000;stroke-linecap:square;stroke-linejoin:miter;stroke-width:0.8;"/>
   </g>
   <g id="patch_5">
    <path d="M 57.6 307.584 
L 414.72 307.584 
" style="fill:none;stroke:#000000;stroke-linecap:square;stroke-linejoin:miter;stroke-width:0.8;"/>
   </g>
   <g id="patch_6">
    <path d="M 57.6 41.472 
L 414.72 41.472 
" style="fill:none;stroke:#000000;stroke-linecap:square;stroke-linejoin:miter;stroke-width:0.8;"/>
   </g>
   <g id="PathCollection_1">
    <defs>
     <path d="M 0 2.738613 
C 0.726289 2.738613 1.422928 2.450055 1.936492 1.936492 
C 2.450055 1.422928 2.738613 0.726289 2.738613 0 
C 2.738613 -0.726289 2.450055 -1.422928 1.936492 -1.936492 
C 1.422928 -2.450055 0.726289 -2.738613 0 -2.738613 
C -0.726289 -2.738613 -1.422928 -2.450055 -1.936492 -1.936492 
C -2.450055 -1.422928 -2.738613 -0.726289 -2.738613 0 
C -2.738613 0.726289 -2.450055 1.422928 -1.936492 1.936492 
C -1.422928 2.450055 -0.726289 2.738613 0 2.738613 
z
" id="m3672abd879" style="stroke:#ff0000;"/>
    </defs>
    <g clip-path="url(#p87a0a9810c)">
     <use style="fill:#ff0000;stroke:#ff0000;" x="395.717649" xlink:href="#m3672abd879" y="247.504881"/>
     <use style="fill:#ff0000;stroke:#ff0000;" x="112.712609" xlink:href="#m3672abd879" y="116.870409"/>
     <use style="fill:#ff0000;stroke:#ff0000;" x="79.471482" xlink:href="#m3672abd879" y="268.77974"/>
     <use style="fill:#ff0000;stroke:#ff0000;" x="88.455681" xlink:href="#m3672abd879" y="285.625412"/>
     <use style="fill:#ff0000;stroke:#ff0000;" x="121.091774" xlink:href="#m3672abd879" y="164.72597"/>
     <use style="fill:#ff0000;stroke:#ff0000;" x="125.734661" xlink:href="#m3672abd879" y="174.901997"/>
    </g>
   </g>
   <g id="text_13">
    <!-- (60) Subject: s23, Known = False, Degree = 1, Duration = 0.1 -->
    <defs>
     <path d="M 31 75.875 
Q 24.46875 64.65625 21.28125 53.65625 
Q 18.109375 42.671875 18.109375 31.390625 
Q 18.109375 20.125 21.3125 9.0625 
Q 24.515625 -2 31 -13.1875 
L 23.1875 -13.1875 
Q 15.875 -1.703125 12.234375 9.375 
Q 8.59375 20.453125 8.59375 31.390625 
Q 8.59375 42.28125 12.203125 53.3125 
Q 15.828125 64.359375 23.1875 75.875 
z
" id="DejaVuSans-40"/>
     <path d="M 8.015625 75.875 
L 15.828125 75.875 
Q 23.140625 64.359375 26.78125 53.3125 
Q 30.421875 42.28125 30.421875 31.390625 
Q 30.421875 20.453125 26.78125 9.375 
Q 23.140625 -1.703125 15.828125 -13.1875 
L 8.015625 -13.1875 
Q 14.5 -2 17.703125 9.0625 
Q 20.90625 20.125 20.90625 31.390625 
Q 20.90625 42.671875 17.703125 53.65625 
Q 14.5 64.65625 8.015625 75.875 
z
" id="DejaVuSans-41"/>
     <path id="DejaVuSans-32"/>
     <path d="M 53.515625 70.515625 
L 53.515625 60.890625 
Q 47.90625 63.578125 42.921875 64.890625 
Q 37.9375 66.21875 33.296875 66.21875 
Q 25.25 66.21875 20.875 63.09375 
Q 16.5 59.96875 16.5 54.203125 
Q 16.5 49.359375 19.40625 46.890625 
Q 22.3125 44.4375 30.421875 42.921875 
L 36.375 41.703125 
Q 47.40625 39.59375 52.65625 34.296875 
Q 57.90625 29 57.90625 20.125 
Q 57.90625 9.515625 50.796875 4.046875 
Q 43.703125 -1.421875 29.984375 -1.421875 
Q 24.8125 -1.421875 18.96875 -0.25 
Q 13.140625 0.921875 6.890625 3.21875 
L 6.890625 13.375 
Q 12.890625 10.015625 18.65625 8.296875 
Q 24.421875 6.59375 29.984375 6.59375 
Q 38.421875 6.59375 43.015625 9.90625 
Q 47.609375 13.234375 47.609375 19.390625 
Q 47.609375 24.75 44.3125 27.78125 
Q 41.015625 30.8125 33.5 32.328125 
L 27.484375 33.5 
Q 16.453125 35.6875 11.515625 40.375 
Q 6.59375 45.0625 6.59375 53.421875 
Q 6.59375 63.09375 13.40625 68.65625 
Q 20.21875 74.21875 32.171875 74.21875 
Q 37.3125 74.21875 42.625 73.28125 
Q 47.953125 72.359375 53.515625 70.515625 
z
" id="DejaVuSans-83"/>
     <path d="M 8.5 21.578125 
L 8.5 54.6875 
L 17.484375 54.6875 
L 17.484375 21.921875 
Q 17.484375 14.15625 20.5 10.265625 
Q 23.53125 6.390625 29.59375 6.390625 
Q 36.859375 6.390625 41.078125 11.03125 
Q 45.3125 15.671875 45.3125 23.6875 
L 45.3125 54.6875 
L 54.296875 54.6875 
L 54.296875 0 
L 45.3125 0 
L 45.3125 8.40625 
Q 42.046875 3.421875 37.71875 1 
Q 33.40625 -1.421875 27.6875 -1.421875 
Q 18.265625 -1.421875 13.375 4.4375 
Q 8.5 10.296875 8.5 21.578125 
z
M 31.109375 56 
z
" id="DejaVuSans-117"/>
     <path d="M 48.6875 27.296875 
Q 48.6875 37.203125 44.609375 42.84375 
Q 40.53125 48.484375 33.40625 48.484375 
Q 26.265625 48.484375 22.1875 42.84375 
Q 18.109375 37.203125 18.109375 27.296875 
Q 18.109375 17.390625 22.1875 11.75 
Q 26.265625 6.109375 33.40625 6.109375 
Q 40.53125 6.109375 44.609375 11.75 
Q 48.6875 17.390625 48.6875 27.296875 
z
M 18.109375 46.390625 
Q 20.953125 51.265625 25.265625 53.625 
Q 29.59375 56 35.59375 56 
Q 45.5625 56 51.78125 48.09375 
Q 58.015625 40.1875 58.015625 27.296875 
Q 58.015625 14.40625 51.78125 6.484375 
Q 45.5625 -1.421875 35.59375 -1.421875 
Q 29.59375 -1.421875 25.265625 0.953125 
Q 20.953125 3.328125 18.109375 8.203125 
L 18.109375 0 
L 9.078125 0 
L 9.078125 75.984375 
L 18.109375 75.984375 
z
" id="DejaVuSans-98"/>
     <path d="M 9.421875 54.6875 
L 18.40625 54.6875 
L 18.40625 -0.984375 
Q 18.40625 -11.421875 14.421875 -16.109375 
Q 10.453125 -20.796875 1.609375 -20.796875 
L -1.8125 -20.796875 
L -1.8125 -13.1875 
L 0.59375 -13.1875 
Q 5.71875 -13.1875 7.5625 -10.8125 
Q 9.421875 -8.453125 9.421875 -0.984375 
z
M 9.421875 75.984375 
L 18.40625 75.984375 
L 18.40625 64.59375 
L 9.421875 64.59375 
z
" id="DejaVuSans-106"/>
     <path d="M 56.203125 29.59375 
L 56.203125 25.203125 
L 14.890625 25.203125 
Q 15.484375 15.921875 20.484375 11.0625 
Q 25.484375 6.203125 34.421875 6.203125 
Q 39.59375 6.203125 44.453125 7.46875 
Q 49.3125 8.734375 54.109375 11.28125 
L 54.109375 2.78125 
Q 49.265625 0.734375 44.1875 -0.34375 
Q 39.109375 -1.421875 33.890625 -1.421875 
Q 20.796875 -1.421875 13.15625 6.1875 
Q 5.515625 13.8125 5.515625 26.8125 
Q 5.515625 40.234375 12.765625 48.109375 
Q 20.015625 56 32.328125 56 
Q 43.359375 56 49.78125 48.890625 
Q 56.203125 41.796875 56.203125 29.59375 
z
M 47.21875 32.234375 
Q 47.125 39.59375 43.09375 43.984375 
Q 39.0625 48.390625 32.421875 48.390625 
Q 24.90625 48.390625 20.390625 44.140625 
Q 15.875 39.890625 15.1875 32.171875 
z
" id="DejaVuSans-101"/>
     <path d="M 48.78125 52.59375 
L 48.78125 44.1875 
Q 44.96875 46.296875 41.140625 47.34375 
Q 37.3125 48.390625 33.40625 48.390625 
Q 24.65625 48.390625 19.8125 42.84375 
Q 14.984375 37.3125 14.984375 27.296875 
Q 14.984375 17.28125 19.8125 11.734375 
Q 24.65625 6.203125 33.40625 6.203125 
Q 37.3125 6.203125 41.140625 7.25 
Q 44.96875 8.296875 48.78125 10.40625 
L 48.78125 2.09375 
Q 45.015625 0.34375 40.984375 -0.53125 
Q 36.96875 -1.421875 32.421875 -1.421875 
Q 20.0625 -1.421875 12.78125 6.34375 
Q 5.515625 14.109375 5.515625 27.296875 
Q 5.515625 40.671875 12.859375 48.328125 
Q 20.21875 56 33.015625 56 
Q 37.15625 56 41.109375 55.140625 
Q 45.0625 54.296875 48.78125 52.59375 
z
" id="DejaVuSans-99"/>
     <path d="M 18.3125 70.21875 
L 18.3125 54.6875 
L 36.8125 54.6875 
L 36.8125 47.703125 
L 18.3125 47.703125 
L 18.3125 18.015625 
Q 18.3125 11.328125 20.140625 9.421875 
Q 21.96875 7.515625 27.59375 7.515625 
L 36.8125 7.515625 
L 36.8125 0 
L 27.59375 0 
Q 17.1875 0 13.234375 3.875 
Q 9.28125 7.765625 9.28125 18.015625 
L 9.28125 47.703125 
L 2.6875 47.703125 
L 2.6875 54.6875 
L 9.28125 54.6875 
L 9.28125 70.21875 
z
" id="DejaVuSans-116"/>
     <path d="M 11.71875 12.40625 
L 22.015625 12.40625 
L 22.015625 0 
L 11.71875 0 
z
M 11.71875 51.703125 
L 22.015625 51.703125 
L 22.015625 39.3125 
L 11.71875 39.3125 
z
" id="DejaVuSans-58"/>
     <path d="M 44.28125 53.078125 
L 44.28125 44.578125 
Q 40.484375 46.53125 36.375 47.5 
Q 32.28125 48.484375 27.875 48.484375 
Q 21.1875 48.484375 17.84375 46.4375 
Q 14.5 44.390625 14.5 40.28125 
Q 14.5 37.15625 16.890625 35.375 
Q 19.28125 33.59375 26.515625 31.984375 
L 29.59375 31.296875 
Q 39.15625 29.25 43.1875 25.515625 
Q 47.21875 21.78125 47.21875 15.09375 
Q 47.21875 7.46875 41.1875 3.015625 
Q 35.15625 -1.421875 24.609375 -1.421875 
Q 20.21875 -1.421875 15.453125 -0.5625 
Q 10.6875 0.296875 5.421875 2 
L 5.421875 11.28125 
Q 10.40625 8.6875 15.234375 7.390625 
Q 20.0625 6.109375 24.8125 6.109375 
Q 31.15625 6.109375 34.5625 8.28125 
Q 37.984375 10.453125 37.984375 14.40625 
Q 37.984375 18.0625 35.515625 20.015625 
Q 33.0625 21.96875 24.703125 23.78125 
L 21.578125 24.515625 
Q 13.234375 26.265625 9.515625 29.90625 
Q 5.8125 33.546875 5.8125 39.890625 
Q 5.8125 47.609375 11.28125 51.796875 
Q 16.75 56 26.8125 56 
Q 31.78125 56 36.171875 55.265625 
Q 40.578125 54.546875 44.28125 53.078125 
z
" id="DejaVuSans-115"/>
     <path d="M 11.71875 12.40625 
L 22.015625 12.40625 
L 22.015625 4 
L 14.015625 -11.625 
L 7.71875 -11.625 
L 11.71875 4 
z
" id="DejaVuSans-44"/>
     <path d="M 9.8125 72.90625 
L 19.671875 72.90625 
L 19.671875 42.09375 
L 52.390625 72.90625 
L 65.09375 72.90625 
L 28.90625 38.921875 
L 67.671875 0 
L 54.6875 0 
L 19.671875 35.109375 
L 19.671875 0 
L 9.8125 0 
z
" id="DejaVuSans-75"/>
     <path d="M 54.890625 33.015625 
L 54.890625 0 
L 45.90625 0 
L 45.90625 32.71875 
Q 45.90625 40.484375 42.875 44.328125 
Q 39.84375 48.1875 33.796875 48.1875 
Q 26.515625 48.1875 22.3125 43.546875 
Q 18.109375 38.921875 18.109375 30.90625 
L 18.109375 0 
L 9.078125 0 
L 9.078125 54.6875 
L 18.109375 54.6875 
L 18.109375 46.1875 
Q 21.34375 51.125 25.703125 53.5625 
Q 30.078125 56 35.796875 56 
Q 45.21875 56 50.046875 50.171875 
Q 54.890625 44.34375 54.890625 33.015625 
z
" id="DejaVuSans-110"/>
     <path d="M 30.609375 48.390625 
Q 23.390625 48.390625 19.1875 42.75 
Q 14.984375 37.109375 14.984375 27.296875 
Q 14.984375 17.484375 19.15625 11.84375 
Q 23.34375 6.203125 30.609375 6.203125 
Q 37.796875 6.203125 41.984375 11.859375 
Q 46.1875 17.53125 46.1875 27.296875 
Q 46.1875 37.015625 41.984375 42.703125 
Q 37.796875 48.390625 30.609375 48.390625 
z
M 30.609375 56 
Q 42.328125 56 49.015625 48.375 
Q 55.71875 40.765625 55.71875 27.296875 
Q 55.71875 13.875 49.015625 6.21875 
Q 42.328125 -1.421875 30.609375 -1.421875 
Q 18.84375 -1.421875 12.171875 6.21875 
Q 5.515625 13.875 5.515625 27.296875 
Q 5.515625 40.765625 12.171875 48.375 
Q 18.84375 56 30.609375 56 
z
" id="DejaVuSans-111"/>
     <path d="M 4.203125 54.6875 
L 13.1875 54.6875 
L 24.421875 12.015625 
L 35.59375 54.6875 
L 46.1875 54.6875 
L 57.421875 12.015625 
L 68.609375 54.6875 
L 77.59375 54.6875 
L 63.28125 0 
L 52.6875 0 
L 40.921875 44.828125 
L 29.109375 0 
L 18.5 0 
z
" id="DejaVuSans-119"/>
     <path d="M 10.59375 45.40625 
L 73.1875 45.40625 
L 73.1875 37.203125 
L 10.59375 37.203125 
z
M 10.59375 25.484375 
L 73.1875 25.484375 
L 73.1875 17.1875 
L 10.59375 17.1875 
z
" id="DejaVuSans-61"/>
     <path d="M 9.8125 72.90625 
L 51.703125 72.90625 
L 51.703125 64.59375 
L 19.671875 64.59375 
L 19.671875 43.109375 
L 48.578125 43.109375 
L 48.578125 34.8125 
L 19.671875 34.8125 
L 19.671875 0 
L 9.8125 0 
z
" id="DejaVuSans-70"/>
     <path d="M 34.28125 27.484375 
Q 23.390625 27.484375 19.1875 25 
Q 14.984375 22.515625 14.984375 16.5 
Q 14.984375 11.71875 18.140625 8.90625 
Q 21.296875 6.109375 26.703125 6.109375 
Q 34.1875 6.109375 38.703125 11.40625 
Q 43.21875 16.703125 43.21875 25.484375 
L 43.21875 27.484375 
z
M 52.203125 31.203125 
L 52.203125 0 
L 43.21875 0 
L 43.21875 8.296875 
Q 40.140625 3.328125 35.546875 0.953125 
Q 30.953125 -1.421875 24.3125 -1.421875 
Q 15.921875 -1.421875 10.953125 3.296875 
Q 6 8.015625 6 15.921875 
Q 6 25.140625 12.171875 29.828125 
Q 18.359375 34.515625 30.609375 34.515625 
L 43.21875 34.515625 
L 43.21875 35.40625 
Q 43.21875 41.609375 39.140625 45 
Q 35.0625 48.390625 27.6875 48.390625 
Q 23 48.390625 18.546875 47.265625 
Q 14.109375 46.140625 10.015625 43.890625 
L 10.015625 52.203125 
Q 14.9375 54.109375 19.578125 55.046875 
Q 24.21875 56 28.609375 56 
Q 40.484375 56 46.34375 49.84375 
Q 52.203125 43.703125 52.203125 31.203125 
z
" id="DejaVuSans-97"/>
     <path d="M 9.421875 75.984375 
L 18.40625 75.984375 
L 18.40625 0 
L 9.421875 0 
z
" id="DejaVuSans-108"/>
     <path d="M 19.671875 64.796875 
L 19.671875 8.109375 
L 31.59375 8.109375 
Q 46.6875 8.109375 53.6875 14.9375 
Q 60.6875 21.78125 60.6875 36.53125 
Q 60.6875 51.171875 53.6875 57.984375 
Q 46.6875 64.796875 31.59375 64.796875 
z
M 9.8125 72.90625 
L 30.078125 72.90625 
Q 51.265625 72.90625 61.171875 64.09375 
Q 71.09375 55.28125 71.09375 36.53125 
Q 71.09375 17.671875 61.125 8.828125 
Q 51.171875 0 30.078125 0 
L 9.8125 0 
z
" id="DejaVuSans-68"/>
     <path d="M 45.40625 27.984375 
Q 45.40625 37.75 41.375 43.109375 
Q 37.359375 48.484375 30.078125 48.484375 
Q 22.859375 48.484375 18.828125 43.109375 
Q 14.796875 37.75 14.796875 27.984375 
Q 14.796875 18.265625 18.828125 12.890625 
Q 22.859375 7.515625 30.078125 7.515625 
Q 37.359375 7.515625 41.375 12.890625 
Q 45.40625 18.265625 45.40625 27.984375 
z
M 54.390625 6.78125 
Q 54.390625 -7.171875 48.1875 -13.984375 
Q 42 -20.796875 29.203125 -20.796875 
Q 24.46875 -20.796875 20.265625 -20.09375 
Q 16.0625 -19.390625 12.109375 -17.921875 
L 12.109375 -9.1875 
Q 16.0625 -11.328125 19.921875 -12.34375 
Q 23.78125 -13.375 27.78125 -13.375 
Q 36.625 -13.375 41.015625 -8.765625 
Q 45.40625 -4.15625 45.40625 5.171875 
L 45.40625 9.625 
Q 42.625 4.78125 38.28125 2.390625 
Q 33.9375 0 27.875 0 
Q 17.828125 0 11.671875 7.65625 
Q 5.515625 15.328125 5.515625 27.984375 
Q 5.515625 40.671875 11.671875 48.328125 
Q 17.828125 56 27.875 56 
Q 33.9375 56 38.28125 53.609375 
Q 42.625 51.21875 45.40625 46.390625 
L 45.40625 54.6875 
L 54.390625 54.6875 
z
" id="DejaVuSans-103"/>
     <path d="M 41.109375 46.296875 
Q 39.59375 47.171875 37.8125 47.578125 
Q 36.03125 48 33.890625 48 
Q 26.265625 48 22.1875 43.046875 
Q 18.109375 38.09375 18.109375 28.8125 
L 18.109375 0 
L 9.078125 0 
L 9.078125 54.6875 
L 18.109375 54.6875 
L 18.109375 46.1875 
Q 20.953125 51.171875 25.484375 53.578125 
Q 30.03125 56 36.53125 56 
Q 37.453125 56 38.578125 55.875 
Q 39.703125 55.765625 41.0625 55.515625 
z
" id="DejaVuSans-114"/>
     <path d="M 9.421875 54.6875 
L 18.40625 54.6875 
L 18.40625 0 
L 9.421875 0 
z
M 9.421875 75.984375 
L 18.40625 75.984375 
L 18.40625 64.59375 
L 9.421875 64.59375 
z
" id="DejaVuSans-105"/>
     <path d="M 10.6875 12.40625 
L 21 12.40625 
L 21 0 
L 10.6875 0 
z
" id="DejaVuSans-46"/>
    </defs>
    <g transform="translate(49.741875 35.472)scale(0.12 -0.12)">
     <use xlink:href="#DejaVuSans-40"/>
     <use x="39.013672" xlink:href="#DejaVuSans-54"/>
     <use x="102.636719" xlink:href="#DejaVuSans-48"/>
     <use x="166.259766" xlink:href="#DejaVuSans-41"/>
     <use x="205.273438" xlink:href="#DejaVuSans-32"/>
     <use x="237.060547" xlink:href="#DejaVuSans-83"/>
     <use x="300.537109" xlink:href="#DejaVuSans-117"/>
     <use x="363.916016" xlink:href="#DejaVuSans-98"/>
     <use x="427.392578" xlink:href="#DejaVuSans-106"/>
     <use x="455.175781" xlink:href="#DejaVuSans-101"/>
     <use x="516.699219" xlink:href="#DejaVuSans-99"/>
     <use x="571.679688" xlink:href="#DejaVuSans-116"/>
     <use x="610.888672" xlink:href="#DejaVuSans-58"/>
     <use x="644.580078" xlink:href="#DejaVuSans-32"/>
     <use x="676.367188" xlink:href="#DejaVuSans-115"/>
     <use x="728.466797" xlink:href="#DejaVuSans-50"/>
     <use x="792.089844" xlink:href="#DejaVuSans-51"/>
     <use x="855.712891" xlink:href="#DejaVuSans-44"/>
     <use x="887.5" xlink:href="#DejaVuSans-32"/>
     <use x="919.287109" xlink:href="#DejaVuSans-75"/>
     <use x="984.863281" xlink:href="#DejaVuSans-110"/>
     <use x="1048.242188" xlink:href="#DejaVuSans-111"/>
     <use x="1109.423828" xlink:href="#DejaVuSans-119"/>
     <use x="1191.210938" xlink:href="#DejaVuSans-110"/>
     <use x="1254.589844" xlink:href="#DejaVuSans-32"/>
     <use x="1286.376953" xlink:href="#DejaVuSans-61"/>
     <use x="1370.166016" xlink:href="#DejaVuSans-32"/>
     <use x="1401.953125" xlink:href="#DejaVuSans-70"/>
     <use x="1459.332031" xlink:href="#DejaVuSans-97"/>
     <use x="1520.611328" xlink:href="#DejaVuSans-108"/>
     <use x="1548.394531" xlink:href="#DejaVuSans-115"/>
     <use x="1600.494141" xlink:href="#DejaVuSans-101"/>
     <use x="1662.017578" xlink:href="#DejaVuSans-44"/>
     <use x="1693.804688" xlink:href="#DejaVuSans-32"/>
     <use x="1725.591797" xlink:href="#DejaVuSans-68"/>
     <use x="1802.59375" xlink:href="#DejaVuSans-101"/>
     <use x="1864.117188" xlink:href="#DejaVuSans-103"/>
     <use x="1927.59375" xlink:href="#DejaVuSans-114"/>
     <use x="1968.675781" xlink:href="#DejaVuSans-101"/>
     <use x="2030.199219" xlink:href="#DejaVuSans-101"/>
     <use x="2091.722656" xlink:href="#DejaVuSans-32"/>
     <use x="2123.509766" xlink:href="#DejaVuSans-61"/>
     <use x="2207.298828" xlink:href="#DejaVuSans-32"/>
     <use x="2239.085938" xlink:href="#DejaVuSans-49"/>
     <use x="2302.708984" xlink:href="#DejaVuSans-44"/>
     <use x="2334.496094" xlink:href="#DejaVuSans-32"/>
     <use x="2366.283203" xlink:href="#DejaVuSans-68"/>
     <use x="2443.285156" xlink:href="#DejaVuSans-117"/>
     <use x="2506.664062" xlink:href="#DejaVuSans-114"/>
     <use x="2547.777344" xlink:href="#DejaVuSans-97"/>
     <use x="2609.056641" xlink:href="#DejaVuSans-116"/>
     <use x="2648.265625" xlink:href="#DejaVuSans-105"/>
     <use x="2676.048828" xlink:href="#DejaVuSans-111"/>
     <use x="2737.230469" xlink:href="#DejaVuSans-110"/>
     <use x="2800.609375" xlink:href="#DejaVuSans-32"/>
     <use x="2832.396484" xlink:href="#DejaVuSans-61"/>
     <use x="2916.185547" xlink:href="#DejaVuSans-32"/>
     <use x="2947.972656" xlink:href="#DejaVuSans-48"/>
     <use x="3011.595703" xlink:href="#DejaVuSans-46"/>
     <use x="3043.382812" xlink:href="#DejaVuSans-49"/>
    </g>
   </g>
  </g>
 </g>
 <defs>
  <clipPath id="p87a0a9810c">
   <rect height="266.112" width="357.12" x="57.6" y="41.472"/>
  </clipPath>
 </defs>
</svg>
