<?xml version="1.0" encoding="utf-8" standalone="no"?>
<!DOCTYPE svg PUBLIC "-//W3C//DTD SVG 1.1//EN"
  "http://www.w3.org/Graphics/SVG/1.1/DTD/svg11.dtd">
<!-- Created with matplotlib (https://matplotlib.org/) -->
<svg height="345.6pt" version="1.1" viewBox="0 0 460.8 345.6" width="460.8pt" xmlns="http://www.w3.org/2000/svg" xmlns:xlink="http://www.w3.org/1999/xlink">
 <defs>
  <style type="text/css">
*{stroke-linecap:butt;stroke-linejoin:round;}
  </style>
 </defs>
 <g id="figure_1">
  <g id="patch_1">
   <path d="M 0 345.6 
L 460.8 345.6 
L 460.8 0 
L 0 0 
z
" style="fill:#ffffff;"/>
  </g>
  <g id="axes_1">
   <g id="patch_2">
    <path d="M 57.6 307.584 
L 414.72 307.584 
L 414.72 41.472 
L 57.6 41.472 
z
" style="fill:#ffffff;"/>
   </g>
   <g id="line2d_1">
    <path clip-path="url(#p48c00725e3)" d="M 74.39729 64.373244 
L 74.588073 64.098014 
L 74.774963 64.098014 
L 74.774963 64.098014 
L 74.774963 64.235629 
L 74.588073 64.235629 
L 74.39729 64.508402 
L 74.588073 64.508402 
L 74.965746 64.373244 
L 74.39729 64.646017 
L 74.02351 64.91879 
L 74.2104 64.91879 
L 74.39729 64.508402 
L 74.588073 64.373244 
L 74.588073 64.373244 
L 74.2104 64.91879 
L 74.588073 64.373244 
L 74.2104 64.098014 
L 73.832727 64.098014 
L 73.832727 64.235629 
L 74.39729 64.235629 
L 75.717198 64.508402 
L 75.152635 64.235629 
L 74.965746 63.687626 
L 74.965746 63.962856 
L 74.774963 64.373244 
L 74.774963 64.508402 
L 74.965746 64.373244 
L 75.152635 63.962856 
L 75.717198 63.277238 
L 75.339525 63.14208 
L 75.152635 62.86685 
L 75.339525 62.456462 
L 75.717198 62.456462 
L 75.530308 62.86685 
L 75.530308 62.86685 
L 75.717198 62.731692 
L 75.717198 62.86685 
L 75.530308 63.004465 
L 75.152635 62.86685 
L 74.588073 62.456462 
L 74.774963 62.321304 
L 75.717198 62.456462 
L 76.28176 62.183689 
L 76.472543 61.910916 
L 76.659433 62.046074 
L 77.414779 62.183689 
L 77.601668 61.910916 
L 77.223995 61.638144 
L 77.037106 61.227756 
L 77.037106 60.817368 
L 77.601668 60.40698 
L 77.979341 60.269365 
L 77.979341 59.996592 
L 77.788558 59.996592 
L 78.166231 59.858977 
L 78.730793 59.310974 
L 79.108466 58.765428 
L 78.357014 59.038201 
L 78.730793 58.765428 
L 78.357014 58.492655 
L 78.357014 58.35504 
L 79.486139 57.807037 
L 79.863811 57.807037 
L 79.863811 57.944652 
L 80.050701 57.944652 
L 79.673028 57.261491 
L 79.299249 56.851103 
L 79.673028 56.3031 
L 79.673028 56.3031 
L 79.299249 56.575873 
L 78.921576 56.713488 
L 78.921576 56.3031 
L 79.299249 56.167943 
L 80.050701 56.167943 
L 80.428374 55.892712 
L 80.428374 55.482325 
L 80.050701 55.347167 
L 80.241484 55.209552 
L 80.241484 54.936779 
L 80.241484 55.071937 
L 80.428374 55.482325 
L 80.992936 56.030328 
L 80.992936 56.030328 
L 80.428374 55.757555 
L 79.863811 55.071937 
L 80.050701 55.071937 
L 80.615263 55.347167 
L 80.992936 55.347167 
L 80.615263 55.347167 
L 81.183719 54.388776 
L 80.615263 54.661549 
L 80.615263 54.799164 
L 81.183719 54.936779 
L 81.748282 55.347167 
L 81.557499 55.071937 
L 81.183719 54.799164 
L 80.428374 54.526391 
L 80.241484 54.116003 
L 80.050701 53.978388 
L 81.557499 54.936779 
L 81.935172 54.799164 
L 81.935172 54.388776 
L 81.183719 54.251161 
L 80.050701 54.661549 
L 80.428374 54.661549 
L 80.806047 54.799164 
L 80.992936 55.347167 
L 80.806047 55.61994 
L 80.615263 55.482325 
L 80.806047 54.936779 
L 81.183719 54.388776 
L 80.992936 54.388776 
L 80.992936 54.251161 
L 80.806047 54.251161 
L 80.428374 54.936779 
L 80.428374 55.209552 
L 79.863811 55.347167 
L 80.615263 54.388776 
L 80.806047 53.705615 
L 81.183719 53.568 
L 81.748282 54.116003 
L 81.370609 54.526391 
L 80.806047 54.936779 
L 80.428374 54.936779 
L 79.863811 54.388776 
L 80.050701 54.251161 
L 80.241484 54.388776 
L 80.428374 54.799164 
L 80.428374 55.071937 
L 80.050701 55.071937 
L 80.241484 55.071937 
L 79.673028 55.347167 
L 79.863811 55.347167 
L 80.241484 55.209552 
L 80.241484 55.209552 
L 80.241484 55.61994 
L 80.050701 55.757555 
L 80.241484 55.757555 
L 80.050701 55.892712 
L 79.299249 55.892712 
L 78.357014 55.61994 
L 78.357014 55.892712 
L 79.299249 56.3031 
L 80.428374 56.575873 
L 80.428374 56.713488 
L 80.050701 56.575873 
L 79.863811 56.167943 
L 79.863811 55.892712 
L 79.863811 55.892712 
L 79.486139 56.030328 
L 79.299249 56.3031 
L 79.299249 56.575873 
L 79.673028 56.713488 
L 79.486139 56.575873 
L 79.108466 56.3031 
L 78.543903 56.3031 
L 78.730793 56.575873 
L 79.108466 56.851103 
L 79.108466 56.713488 
L 78.730793 56.713488 
L 78.166231 56.986261 
L 77.979341 57.261491 
L 78.543903 57.534264 
L 78.543903 57.396649 
L 78.543903 57.261491 
L 78.730793 57.396649 
L 78.921576 57.396649 
L 78.921576 57.396649 
L 78.921576 57.534264 
L 79.299249 57.944652 
L 78.921576 57.944652 
L 78.730793 58.082267 
L 78.543903 57.944652 
L 79.863811 57.671879 
L 80.806047 57.671879 
L 81.935172 58.217425 
L 83.064296 58.492655 
L 86.459458 58.492655 
L 91.544413 59.448589 
L 94.748792 59.996592 
L 102.095891 59.996592 
L 106.242504 60.40698 
L 110.762897 61.500528 
L 119.620687 64.098014 
L 132.621197 68.885054 
L 144.305693 73.534479 
L 152.030464 77.090355 
L 155.799405 79.00468 
L 167.293117 85.706044 
L 175.769341 90.493084 
L 179.915955 92.542567 
L 184.249458 94.869736 
L 189.147524 97.329607 
L 194.614045 99.929549 
L 200.454346 102.527035 
L 225.890804 115.381761 
L 235.313156 121.124734 
L 240.211222 123.587062 
L 245.677744 125.911774 
L 250.762699 128.374102 
L 255.473875 131.109202 
L 266.967588 139.449661 
L 270.549639 142.184762 
L 273.750124 144.784705 
L 276.20305 147.109417 
L 280.158881 152.16923 
L 281.852568 154.766715 
L 282.985587 157.229043 
L 283.927822 159.69137 
L 284.114712 161.740853 
L 283.363259 165.434344 
L 282.794803 167.211053 
L 280.910333 170.76693 
L 279.968098 172.270866 
L 277.709848 175.416355 
L 274.692359 178.426685 
L 273.185562 179.520234 
L 271.114201 181.161786 
L 270.358856 181.572174 
L 269.607404 183.07611 
L 268.852058 183.759271 
L 267.909823 184.442432 
L 266.403025 186.767144 
L 265.838463 187.725535 
L 264.896228 188.546311 
L 264.140882 189.63986 
L 263.198647 190.733409 
L 262.069522 191.826957 
L 261.50496 193.195736 
L 260.749614 195.930837 
L 259.998162 196.751612 
L 259.055927 197.434773 
L 256.229221 200.580261 
L 255.096203 201.811425 
L 254.53164 203.042589 
L 253.967078 203.998523 
L 253.402515 204.684141 
L 252.269497 205.640074 
L 251.704934 206.188077 
L 250.762699 207.419241 
L 249.820464 208.102402 
L 248.878229 208.647948 
L 247.935994 209.879111 
L 247.184542 211.931051 
L 246.051523 212.341439 
L 244.357836 212.341439 
L 243.60249 213.845376 
L 243.980163 214.255764 
L 244.170946 214.118148 
L 243.228711 214.803767 
L 243.037928 215.349312 
L 243.415601 215.486927 
L 243.228711 215.624542 
L 241.153457 216.442861 
L 240.211222 216.718091 
L 239.833549 216.990864 
L 240.211222 217.674025 
L 240.211222 217.674025 
L 239.833549 217.949255 
L 239.45977 218.084413 
L 238.704424 217.81164 
L 238.704424 217.674025 
L 238.704424 217.81164 
L 238.891314 217.949255 
L 238.704424 217.949255 
L 238.517535 217.949255 
L 238.517535 218.222028 
L 238.517535 218.222028 
L 239.082097 217.263637 
L 239.082097 217.538867 
L 239.082097 217.674025 
L 238.704424 217.401252 
L 238.326752 217.538867 
L 238.139862 217.81164 
L 237.952972 217.674025 
L 237.952972 217.263637 
L 237.5753 216.990864 
L 237.5753 216.990864 
L 237.5753 217.263637 
L 238.517535 217.538867 
L 238.139862 217.674025 
L 238.139862 217.401252 
L 237.952972 217.128479 
L 237.5753 217.128479 
L 237.197627 216.990864 
L 237.952972 216.580476 
L 237.762189 216.580476 
L 237.384516 216.718091 
L 237.384516 216.853249 
L 237.5753 216.853249 
L 237.762189 216.580476 
L 237.5753 216.442861 
L 236.819954 216.307703 
L 236.255392 216.03493 
L 236.255392 215.897315 
L 236.819954 216.307703 
L 236.255392 216.307703 
L 235.690829 216.03493 
L 235.690829 215.624542 
L 235.877719 215.624542 
L 235.877719 215.7597 
L 234.935484 215.076539 
L 234.935484 214.803767 
L 234.557811 214.528536 
L 233.806359 214.393379 
L 232.864123 214.528536 
L 231.731105 214.803767 
L 229.095183 214.528536 
L 225.139352 214.528536 
L 223.064098 214.803767 
L 215.152437 216.442861 
L 212.890294 217.263637 
L 210.628151 217.949255 
L 206.107758 219.042804 
L 203.845615 219.453192 
L 199.889784 218.770031 
L 198.005314 219.180419 
L 196.307733 220.273967 
L 194.423262 221.229901 
L 192.542685 221.777904 
L 190.280542 222.188292 
L 186.320818 223.144226 
L 182.178098 223.692229 
L 176.147014 225.468938 
L 174.827106 226.289714 
L 173.320308 226.975332 
L 171.81351 227.38572 
L 169.177588 227.931266 
L 168.422242 228.341654 
L 167.85768 228.889657 
L 167.85768 229.435202 
L 167.666897 230.12082 
L 166.915445 230.666366 
L 166.350882 231.214369 
L 166.350882 231.89753 
L 166.915445 233.128694 
L 166.915445 233.128694 
L 167.293117 233.128694 
L 168.235353 234.222242 
L 167.85768 234.905403 
L 167.85768 235.863794 
L 165.78632 236.546955 
L 166.160099 236.68457 
L 166.160099 236.819728 
L 165.973209 237.094958 
L 165.030974 237.505346 
L 164.466412 237.915734 
L 164.844085 238.050891 
L 165.030974 238.326122 
L 164.653301 238.734052 
L 164.466412 239.282055 
L 165.030974 240.102831 
L 165.030974 240.785992 
L 164.653301 240.923607 
L 164.275629 241.333995 
L 164.088739 241.19638 
L 164.466412 240.785992 
L 164.653301 240.923607 
L 164.466412 241.333995 
L 164.466412 241.744383 
L 164.466412 241.744383 
L 164.844085 241.744383 
L 164.844085 241.606768 
L 164.653301 241.469153 
L 164.275629 241.606768 
L 163.901849 242.154771 
L 164.088739 242.427544 
L 164.466412 242.427544 
L 164.466412 242.837931 
L 164.653301 243.248319 
L 164.466412 243.385934 
L 163.901849 243.521092 
L 163.146504 243.385934 
L 162.768831 242.975547 
L 162.959614 242.975547 
L 163.146504 243.385934 
L 163.901849 243.796322 
L 163.333393 243.110704 
L 162.959614 242.700316 
L 162.959614 242.700316 
L 162.959614 243.385934 
L 163.146504 243.658707 
L 163.524176 243.796322 
L 163.711066 244.204253 
L 163.146504 244.614641 
L 161.826596 244.752256 
L 161.826596 244.752256 
L 162.017379 244.614641 
L 162.391158 244.614641 
L 162.391158 244.614641 
L 162.204268 244.752256 
L 161.826596 245.573032 
L 162.017379 245.710647 
L 161.826596 245.573032 
L 161.639706 245.162644 
L 161.826596 245.162644 
L 161.639706 245.573032 
L 161.639706 246.256193 
L 161.448923 246.393808 
L 160.88436 245.845805 
L 161.826596 246.256193 
L 162.017379 246.393808 
L 161.826596 246.256193 
L 161.826596 246.666581 
L 161.448923 246.939353 
L 161.075144 246.804196 
L 160.506688 246.804196 
L 159.755236 247.214584 
L 159.377563 247.624972 
L 159.568346 247.760129 
L 160.319798 247.760129 
L 160.697471 248.308132 
L 161.075144 247.487356 
L 161.075144 247.624972 
L 160.88436 248.170517 
L 160.506688 248.445747 
L 159.942125 248.580905 
L 160.132908 248.445747 
L 160.132908 248.445747 
L 160.132908 248.308132 
L 159.942125 248.170517 
L 160.319798 248.445747 
L 160.319798 248.170517 
L 160.132908 247.897744 
L 159.942125 248.170517 
L 159.942125 248.580905 
L 160.132908 248.856135 
L 160.132908 248.71852 
L 160.132908 248.308132 
L 160.319798 248.308132 
L 160.88436 248.445747 
L 160.88436 248.445747 
L 160.319798 248.580905 
L 160.319798 248.71852 
L 160.506688 248.856135 
L 160.319798 248.856135 
L 160.132908 248.856135 
L 160.132908 248.991293 
L 159.942125 248.991293 
L 159.568346 248.71852 
L 159.377563 248.308132 
L 159.568346 248.308132 
L 159.568346 248.856135 
L 159.755236 249.266523 
L 159.190673 249.949684 
L 158.813 250.084842 
L 158.99989 249.674454 
L 159.755236 249.401681 
L 160.319798 249.674454 
L 160.132908 250.084842 
L 159.755236 250.084842 
L 159.568346 249.949684 
L 160.319798 250.49523 
L 160.506688 250.222457 
L 160.319798 250.084842 
L 159.377563 250.360072 
L 158.99989 250.360072 
L 158.99989 250.084842 
L 159.377563 250.084842 
L 159.755236 250.222457 
L 159.755236 250.49523 
L 159.755236 250.49523 
L 159.377563 250.360072 
L 158.813 250.360072 
L 158.626111 250.222457 
L 158.626111 249.949684 
L 158.813 249.949684 
L 159.190673 250.360072 
L 159.755236 250.77046 
L 160.132908 250.632845 
L 160.132908 250.360072 
L 160.132908 250.360072 
L 159.942125 250.084842 
L 159.755236 249.539296 
L 159.377563 249.266523 
L 158.99989 249.539296 
L 158.99989 250.084842 
L 158.99989 249.949684 
L 158.626111 249.539296 
L 158.813 249.539296 
L 159.755236 249.812069 
L 159.568346 249.812069 
L 159.568346 248.71852 
L 160.132908 248.580905 
L 160.697471 248.856135 
L 160.88436 249.401681 
L 160.697471 249.401681 
L 160.697471 248.991293 
L 161.075144 248.580905 
L 161.639706 248.445747 
L 161.639706 248.445747 
L 161.639706 248.170517 
L 162.959614 247.624972 
L 163.524176 247.349741 
L 163.901849 247.487356 
L 163.711066 248.035359 
L 163.146504 248.580905 
L 162.768831 248.71852 
L 162.768831 248.308132 
L 162.959614 248.170517 
L 163.901849 248.991293 
L 164.653301 249.812069 
L 165.030974 249.949684 
L 165.030974 249.674454 
L 166.537772 250.222457 
L 166.724661 250.084842 
L 166.915445 250.222457 
L 167.293117 250.77046 
L 167.480007 250.77046 
L 167.480007 250.77046 
L 167.293117 250.905618 
L 166.915445 250.77046 
L 166.724661 250.360072 
L 167.102334 251.043233 
L 166.915445 251.180848 
L 166.537772 251.043233 
L 166.160099 250.77046 
L 166.350882 250.905618 
L 166.537772 250.77046 
L 166.537772 250.49523 
L 166.350882 250.49523 
L 166.350882 251.043233 
L 166.724661 251.453621 
L 167.102334 251.453621 
L 167.293117 250.905618 
L 166.915445 250.77046 
L 165.973209 250.49523 
L 165.595537 250.49523 
L 165.973209 250.360072 
L 167.293117 250.360072 
L 166.915445 250.49523 
L 166.537772 250.222457 
L 166.537772 249.949684 
L 166.915445 249.266523 
L 167.480007 249.128908 
L 167.666897 249.266523 
L 167.293117 249.539296 
L 166.160099 249.266523 
L 166.537772 249.266523 
L 166.537772 249.128908 
L 166.350882 248.856135 
L 166.350882 248.445747 
L 166.537772 248.445747 
L 166.724661 248.580905 
L 167.293117 248.71852 
L 167.85768 248.991293 
L 167.666897 249.401681 
L 167.102334 249.539296 
L 166.724661 248.580905 
L 166.350882 248.445747 
L 166.160099 248.71852 
L 166.350882 248.856135 
L 166.724661 248.71852 
L 166.915445 248.445747 
L 167.293117 248.308132 
L 167.293117 248.170517 
L 167.480007 248.308132 
L 167.293117 248.308132 
L 166.915445 248.445747 
L 166.915445 248.580905 
L 166.350882 248.308132 
L 166.724661 248.445747 
L 166.915445 248.71852 
L 166.724661 248.856135 
L 166.537772 248.71852 
L 166.537772 248.445747 
L 166.350882 248.308132 
L 166.724661 248.71852 
L 166.537772 248.856135 
L 166.350882 248.71852 
L 166.537772 248.71852 
L 166.915445 248.445747 
L 166.724661 248.71852 
L 166.724661 249.128908 
L 166.915445 249.401681 
L 166.724661 249.401681 
L 165.78632 248.580905 
L 165.78632 248.71852 
L 166.350882 248.991293 
L 166.724661 248.991293 
L 166.724661 248.71852 
L 166.537772 248.71852 
L 166.160099 249.401681 
L 166.350882 249.401681 
L 166.537772 249.539296 
L 165.595537 249.128908 
L 165.217864 248.71852 
L 165.217864 248.445747 
L 165.408647 248.445747 
L 165.973209 248.580905 
L 166.537772 248.856135 
L 166.160099 248.71852 
L 165.408647 249.401681 
L 165.408647 249.539296 
L 165.595537 249.266523 
L 165.78632 249.266523 
L 165.595537 249.674454 
L 165.595537 249.949684 
L 165.78632 249.539296 
L 165.78632 249.266523 
L 164.844085 249.266523 
L 164.653301 249.539296 
L 164.844085 249.949684 
L 165.217864 250.084842 
L 165.595537 249.812069 
L 165.78632 249.401681 
L 165.217864 249.266523 
L 164.653301 249.266523 
L 165.030974 250.084842 
L 165.030974 249.674454 
L 164.844085 249.128908 
L 165.030974 248.991293 
L 165.595537 249.539296 
L 165.595537 249.539296 
L 165.408647 249.128908 
L 164.466412 248.991293 
L 163.901849 249.128908 
L 164.275629 249.128908 
L 165.408647 249.128908 
L 165.030974 249.128908 
L 165.030974 248.991293 
L 164.844085 248.71852 
L 164.844085 248.035359 
L 165.217864 248.170517 
L 166.160099 248.991293 
L 165.78632 248.856135 
L 165.408647 249.266523 
L 165.408647 248.991293 
L 165.595537 248.991293 
L 165.408647 249.266523 
L 165.408647 249.128908 
L 165.030974 249.128908 
L 164.844085 248.991293 
L 165.030974 248.71852 
L 165.408647 248.580905 
L 165.78632 248.580905 
L 165.408647 248.71852 
L 165.030974 248.991293 
L 164.653301 248.991293 
L 164.653301 248.580905 
L 164.844085 248.170517 
L 165.030974 248.035359 
L 165.78632 248.445747 
L 167.85768 248.445747 
L 168.986805 248.71852 
L 175.960124 249.812069 
L 178.973719 250.084842 
L 181.800425 250.084842 
L 185.191693 249.949684 
L 189.147524 249.949684 
L 193.67181 249.812069 
L 198.569876 249.949684 
L 203.281052 250.49523 
L 207.427666 251.316005 
L 211.570386 252.274396 
L 215.717 252.957557 
L 220.237393 253.367945 
L 243.60249 256.103046 
L 253.402515 257.744597 
L 262.447195 258.565373 
L 273.185562 259.796537 
L 278.838973 260.614855 
L 285.056947 261.300474 
L 291.46181 261.710861 
L 304.275431 262.256407 
L 310.306515 262.80441 
L 316.146816 263.760344 
L 321.987117 264.85635 
L 342.903181 267.726608 
L 347.801247 268.274611 
L 356.281364 269.640933 
L 361.370213 270.736939 
L 364.196919 271.692872 
L 364.383808 271.965645 
L 364.383808 272.513648 
L 363.819246 272.924036 
L 361.370213 273.472039 
L 360.237195 273.607197 
L 359.10807 274.017585 
L 358.165835 274.565588 
L 357.03671 274.838361 
L 355.339129 274.838361 
L 354.961456 274.975976 
L 354.396894 274.838361 
L 353.832331 274.838361 
L 353.267769 274.975976 
L 352.703206 275.659136 
L 351.005626 276.479912 
L 350.25028 277.435846 
L 349.876501 277.435846 
L 349.308045 277.027915 
L 348.934266 277.027915 
L 348.743482 277.163073 
L 348.934266 277.435846 
L 348.934266 277.711076 
L 348.934266 277.573461 
L 348.556593 277.435846 
L 347.236685 277.435846 
L 346.485233 277.027915 
L 346.10756 277.163073 
L 346.10756 277.163073 
L 345.729887 277.435846 
L 344.974541 277.435846 
L 344.032306 277.711076 
L 344.032306 277.573461 
L 344.223089 277.573461 
L 344.032306 277.573461 
L 343.658527 277.711076 
L 343.090071 277.711076 
L 342.903181 277.846234 
L 342.903181 278.121464 
L 342.525509 278.256622 
L 341.583273 277.983849 
L 341.583273 277.983849 
L 341.583273 278.256622 
L 341.774056 278.66701 
L 341.396384 278.394237 
L 340.641038 278.394237 
L 339.511913 278.66701 
L 340.831821 279.625401 
L 340.641038 279.215013 
L 340.076476 278.94224 
L 339.511913 278.94224 
L 339.511913 278.804625 
L 339.325024 278.94224 
L 338.569678 279.898173 
L 338.382788 279.898173 
L 338.382788 279.898173 
L 338.192005 280.035789 
L 338.382788 280.035789 
L 339.13424 280.308561 
L 338.756568 280.446176 
L 337.627443 280.446176 
L 337.627443 280.035789 
L 337.627443 280.035789 
L 337.440553 280.170946 
L 337.06288 280.170946 
L 336.498318 279.898173 
L 336.120645 279.898173 
L 336.120645 280.035789 
L 335.929862 280.170946 
L 335.556083 280.581334 
L 335.17841 280.035789 
L 334.800737 280.170946 
L 334.800737 280.856564 
L 334.800737 280.718949 
L 334.423064 280.718949 
L 334.423064 280.581334 
L 334.613847 280.718949 
L 333.858502 281.129337 
L 333.480829 281.266952 
L 333.858502 281.67734 
L 334.613847 281.67734 
L 334.800737 281.40211 
L 334.800737 280.856564 
L 334.613847 280.718949 
L 334.423064 280.856564 
L 333.293939 281.129337 
L 333.293939 281.129337 
L 333.480829 281.266952 
L 333.293939 281.266952 
L 333.10705 281.539725 
L 333.10705 282.087728 
L 332.729377 282.770889 
L 331.974031 282.770889 
L 331.222579 282.360501 
L 331.031796 281.67734 
L 331.409469 281.129337 
L 331.596359 281.129337 
L 331.787142 281.40211 
L 331.596359 281.950113 
L 331.974031 282.498116 
L 332.164815 282.498116 
L 331.409469 282.906047 
L 331.222579 282.770889 
L 331.031796 282.222886 
L 331.222579 282.087728 
L 331.409469 282.222886 
L 331.596359 282.498116 
L 330.844907 282.633274 
L 330.844907 282.633274 
L 329.902671 282.360501 
L 330.089561 282.360501 
L 329.524999 281.950113 
L 329.524999 281.950113 
L 329.524999 282.633274 
L 329.711888 282.633274 
L 329.524999 282.633274 
L 329.338109 282.770889 
L 329.338109 283.043662 
L 329.524999 283.316435 
L 330.280344 283.591665 
L 330.089561 283.316435 
L 329.338109 283.043662 
L 329.338109 282.906047 
L 329.338109 283.864438 
L 329.524999 283.591665 
L 328.960436 283.316435 
L 328.582763 283.316435 
L 328.395874 283.591665 
L 328.960436 283.591665 
L 329.338109 283.45405 
L 329.147326 283.316435 
L 328.395874 283.864438 
L 328.582763 283.864438 
L 328.960436 284.002053 
L 329.338109 283.864438 
L 329.711888 283.591665 
L 330.654123 283.726822 
L 331.974031 283.726822 
L 333.858502 283.591665 
L 338.192005 284.274826 
L 341.018711 284.412441 
L 348.36581 284.13721 
L 357.601272 284.13721 
L 365.139154 285.095601 
L 372.10858 285.641147 
L 375.122175 286.051535 
L 377.948881 286.18915 
L 380.775587 285.916377 
L 383.224619 285.916377 
L 390.384828 287.282699 
L 391.89552 287.830702 
L 392.269299 288.103475 
L 392.460082 288.103475 
L 394.153769 287.830702 
L 395.660567 287.830702 
L 398.113493 288.513863 
L 398.113493 289.061866 
L 397.92271 289.061866 
L 398.300383 288.786635 
L 398.487273 288.92425 
L 398.300383 289.472254 
L 397.358148 289.882641 
L 394.909115 290.565802 
L 394.909115 290.703417 
L 393.96688 290.428187 
L 393.211534 290.293029 
L 392.646972 290.428187 
L 392.460082 290.838575 
L 392.646972 291.248963 
L 392.269299 291.111348 
L 391.704737 291.386578 
L 391.704737 291.659351 
L 390.384828 292.7529 
L 390.575612 292.480127 
L 390.575612 292.069739 
L 390.197939 291.932124 
L 389.442593 292.207354 
L 389.442593 292.342512 
L 389.633376 292.480127 
L 390.011049 292.480127 
L 390.197939 292.617742 
L 390.197939 293.02813 
L 389.633376 293.300903 
L 388.691141 293.163288 
L 388.313468 292.617742 
L 388.500358 292.342512 
L 388.691141 292.480127 
L 388.691141 292.617742 
L 388.126579 292.480127 
L 387.935796 292.207354 
L 388.126579 292.207354 
L 388.500358 292.480127 
L 388.313468 292.890515 
L 387.748906 293.300903 
L 387.558123 293.163288 
L 387.371233 292.7529 
L 387.371233 292.480127 
L 387.371233 293.163288 
L 387.184344 293.163288 
L 387.184344 293.02813 
L 386.051325 293.02813 
L 386.242108 293.02813 
L 385.486763 293.573675 
L 385.299873 293.438518 
L 385.677546 293.573675 
L 386.051325 294.121679 
L 385.10909 292.890515 
L 384.544527 292.7529 
L 384.357638 292.7529 
L 384.544527 293.02813 
L 383.793075 293.573675 
L 383.415403 293.438518 
L 383.224619 293.438518 
L 383.602292 293.438518 
L 383.979965 293.711291 
L 384.166855 293.984063 
L 384.357638 293.984063 
L 384.166855 293.984063 
L 383.602292 294.256836 
L 383.602292 294.256836 
L 383.224619 294.121679 
L 382.85084 293.573675 
L 383.03773 293.573675 
L 382.660057 293.573675 
L 382.660057 293.711291 
L 383.03773 293.846448 
L 382.85084 293.846448 
L 381.908605 293.573675 
L 381.153259 293.711291 
L 381.153259 293.984063 
L 382.660057 294.804839 
L 382.473167 294.942454 
L 382.095495 294.804839 
L 381.717822 294.532066 
L 381.340149 294.121679 
L 381.340149 293.846448 
L 381.530932 293.984063 
L 381.530932 294.121679 
L 380.96637 293.711291 
L 381.153259 293.573675 
L 381.530932 293.438518 
L 381.908605 293.573675 
L 382.095495 293.846448 
L 381.908605 293.711291 
L 381.530932 293.438518 
L 381.153259 293.438518 
L 381.340149 293.846448 
L 381.717822 294.121679 
L 381.908605 293.984063 
L 381.530932 293.846448 
L 380.775587 294.256836 
L 381.340149 294.256836 
L 381.530932 294.121679 
L 380.96637 293.846448 
L 380.96637 294.121679 
L 381.717822 294.804839 
L 382.095495 294.942454 
L 381.530932 294.804839 
L 380.96637 294.804839 
L 380.775587 295.077612 
L 380.588697 295.077612 
L 380.588697 294.942454 
L 380.401807 295.077612 
L 380.401807 295.488 
L 380.588697 295.352842 
L 380.775587 295.077612 
L 380.775587 294.804839 
L 380.401807 294.256836 
L 380.401807 293.984063 
L 380.588697 294.121679 
L 380.401807 294.121679 
L 380.024135 294.256836 
L 380.024135 294.394451 
L 380.588697 294.394451 
L 380.588697 294.532066 
L 380.024135 294.667224 
L 379.833351 294.256836 
L 379.833351 294.121679 
L 380.024135 293.711291 
L 380.211024 293.846448 
L 380.588697 294.394451 
L 380.588697 294.667224 
L 380.401807 294.394451 
L 380.401807 293.984063 
L 379.646462 293.438518 
L 379.646462 293.300903 
L 380.588697 292.890515 
L 380.96637 292.890515 
L 380.96637 292.617742 
L 380.775587 292.342512 
L 380.588697 292.342512 
L 380.588697 292.342512 
L 380.588697 292.480127 
L 380.775587 292.342512 
L 380.96637 291.796966 
L 380.96637 291.386578 
L 380.96637 291.521736 
L 381.530932 291.932124 
L 381.340149 291.932124 
L 381.340149 291.521736 
L 380.96637 290.97619 
L 380.401807 290.703417 
L 381.530932 289.882641 
L 381.340149 290.017799 
L 381.530932 290.017799 
L 381.340149 289.607411 
L 381.340149 289.197023 
L 381.530932 288.92425 
L 381.340149 289.061866 
L 380.96637 288.786635 
L 380.775587 288.92425 
L 380.775587 289.334638 
L 381.153259 289.472254 
L 381.717822 288.92425 
L 382.095495 288.103475 
L 381.908605 287.557929 
L 381.340149 287.693087 
L 380.96637 287.968317 
L 380.775587 287.830702 
L 381.153259 287.557929 
L 381.717822 287.557929 
L 382.095495 287.830702 
L 382.282384 287.557929 
L 381.530932 286.872311 
L 381.153259 286.737153 
L 381.717822 286.18915 
L 381.717822 285.505989 
L 381.530932 285.233217 
L 381.530932 285.233217 
L 381.530932 285.505989 
L 381.340149 285.778762 
L 380.96637 285.641147 
L 380.96637 285.505989 
L 381.530932 285.505989 
L 381.530932 285.095601 
L 381.340149 284.685213 
L 381.717822 284.412441 
L 381.530932 284.002053 
L 381.530932 284.13721 
L 381.908605 284.274826 
L 381.908605 284.274826 
L 380.96637 284.685213 
L 381.153259 284.547598 
L 381.530932 284.13721 
L 381.530932 283.864438 
L 381.340149 283.726822 
L 381.340149 284.13721 
L 381.530932 284.412441 
L 381.908605 284.412441 
L 381.908605 283.591665 
L 381.717822 283.316435 
L 381.153259 283.316435 
L 380.96637 283.181277 
L 380.96637 282.906047 
L 380.775587 282.770889 
L 381.717822 283.316435 
L 380.96637 282.906047 
L 380.775587 282.633274 
L 381.153259 282.633274 
L 381.153259 282.770889 
L 380.775587 282.087728 
L 380.775587 282.087728 
L 380.588697 282.360501 
L 381.717822 282.633274 
L 381.530932 282.633274 
L 380.96637 282.633274 
L 380.588697 282.770889 
L 381.340149 283.181277 
L 381.717822 283.043662 
L 381.717822 282.770889 
L 381.153259 282.906047 
L 380.401807 283.181277 
L 380.401807 282.770889 
L 380.211024 282.906047 
L 380.401807 282.906047 
L 380.775587 283.043662 
L 380.96637 283.45405 
L 381.153259 283.591665 
L 381.340149 283.316435 
L 381.340149 282.906047 
L 380.024135 282.633274 
L 379.459572 283.043662 
L 379.833351 282.906047 
L 380.775587 282.906047 
L 380.775587 282.770889 
L 380.775587 282.770889 
L 380.588697 283.043662 
L 380.211024 283.181277 
L 380.401807 283.316435 
L 380.775587 283.316435 
L 380.775587 283.181277 
L 380.588697 283.316435 
L 379.646462 283.316435 
L 379.646462 283.181277 
L 380.024135 283.45405 
L 379.833351 283.591665 
L 379.268789 283.45405 
L 378.517337 283.181277 
L 378.704226 283.45405 
L 379.081899 283.726822 
L 379.646462 283.726822 
L 380.211024 283.591665 
L 380.024135 283.864438 
L 380.024135 284.274826 
L 380.401807 284.412441 
L 379.459572 284.002053 
L 378.891116 283.726822 
L 378.891116 283.864438 
L 380.401807 284.685213 
L 380.401807 285.095601 
L 380.024135 285.095601 
L 379.646462 284.685213 
L 379.646462 284.002053 
L 380.211024 283.043662 
L 380.024135 283.043662 
L 380.024135 283.591665 
L 379.833351 283.864438 
L 379.268789 284.002053 
L 379.081899 284.002053 
L 379.081899 284.13721 
L 379.459572 284.547598 
L 379.833351 284.547598 
L 380.024135 284.412441 
L 379.646462 284.547598 
L 379.646462 284.822829 
L 380.024135 285.095601 
L 380.211024 284.957986 
L 379.081899 284.957986 
L 378.517337 284.822829 
L 377.761991 284.412441 
L 377.006646 283.864438 
L 376.06441 283.591665 
L 374.748396 283.864438 
L 372.299363 284.13721 
L 368.904201 283.864438 
L 360.237195 282.633274 
L 355.152239 281.67734 
L 342.147836 279.763016 
L 335.17841 278.94224 
L 311.24875 274.975976 
L 302.955523 273.882427 
L 294.666189 272.513648 
L 277.896738 269.36816 
L 260.371941 264.991508 
L 242.660255 261.846019 
L 234.557811 260.06931 
L 219.108268 256.103046 
L 210.818934 254.326336 
L 202.71649 252.274396 
L 194.800935 250.084842 
L 179.538282 246.393808 
L 157.11542 242.700316 
L 149.768321 241.19638 
L 123.198845 237.094958 
L 118.113889 236.136567 
L 105.677942 234.495015 
L 103.228909 233.811854 
L 102.660453 233.401466 
L 102.286674 233.401466 
L 102.095891 233.539082 
L 102.286674 233.539082 
L 103.038126 233.263851 
L 104.544923 233.263851 
L 105.864831 233.674239 
L 106.620177 234.084627 
L 107.18474 234.222242 
L 108.126975 235.453406 
L 108.504648 235.315791 
L 109.446883 235.453406 
L 109.633772 235.453406 
L 109.446883 235.726179 
L 109.446883 236.136567 
L 109.633772 236.68457 
L 109.633772 237.094958 
L 109.2561 237.505346 
L 108.691537 237.505346 
L 107.940085 236.819728 
L 107.562412 237.094958 
L 107.562412 237.505346 
L 107.749302 237.915734 
L 108.126975 238.326122 
L 108.313864 238.734052 
L 108.126975 238.871667 
L 107.940085 238.598894 
L 107.940085 238.188506 
L 107.749302 238.050891 
L 107.940085 238.188506 
L 107.940085 238.326122 
L 108.126975 238.598894 
L 108.691537 238.598894 
L 108.878427 238.461279 
L 106.99785 239.965216 
L 107.18474 239.554828 
L 107.562412 239.282055 
L 107.562412 239.41967 
L 106.99785 239.692443 
L 107.18474 239.692443 
L 107.749302 239.830058 
L 107.940085 240.102831 
L 107.371629 240.240446 
L 107.18474 240.240446 
L 107.371629 240.102831 
L 107.749302 240.102831 
L 107.749302 240.650834 
L 107.562412 240.785992 
L 107.371629 240.785992 
L 107.562412 240.785992 
L 106.99785 240.513219 
L 106.807067 240.650834 
L 107.18474 240.650834 
L 107.940085 240.375604 
L 107.940085 240.240446 
L 106.99785 240.785992 
L 106.99785 240.513219 
L 106.99785 240.513219 
L 107.18474 240.375604 
L 107.749302 240.240446 
L 108.126975 239.965216 
L 108.313864 240.102831 
L 107.940085 239.692443 
L 108.313864 240.102831 
L 108.313864 240.375604 
L 108.504648 240.650834 
L 108.313864 240.513219 
L 108.313864 239.965216 
L 108.313864 240.240446 
L 109.2561 240.240446 
L 109.2561 240.375604 
L 108.878427 240.375604 
L 108.313864 240.102831 
L 107.940085 239.965216 
L 107.749302 239.965216 
L 107.562412 240.102831 
L 107.940085 240.240446 
L 109.2561 239.965216 
L 109.446883 240.102831 
L 108.313864 240.102831 
L 108.126975 240.240446 
L 108.126975 240.240446 
L 108.878427 239.965216 
L 108.878427 239.965216 
L 109.2561 239.965216 
L 109.2561 239.965216 
L 109.06921 239.830058 
L 109.06921 239.830058 
L 109.2561 240.102831 
L 109.06921 240.240446 
L 109.2561 240.240446 
L 108.878427 240.102831 
L 108.504648 239.830058 
L 108.691537 239.692443 
L 109.06921 239.692443 
L 109.633772 239.965216 
L 110.198335 240.513219 
L 110.198335 240.375604 
L 109.820662 240.240446 
L 109.633772 239.830058 
L 109.446883 239.830058 
L 109.2561 240.240446 
L 109.446883 240.513219 
L 110.389118 240.650834 
L 110.198335 240.513219 
L 109.633772 239.965216 
L 109.633772 239.965216 
L 109.2561 239.830058 
L 108.691537 239.830058 
L 108.691537 240.102831 
L 108.878427 240.375604 
L 109.446883 240.102831 
L 109.2561 240.102831 
L 109.06921 240.102831 
L 109.2561 239.965216 
L 109.633772 240.240446 
L 109.2561 240.785992 
L 109.06921 240.785992 
L 108.878427 240.375604 
L 108.878427 240.102831 
L 108.878427 240.240446 
L 109.06921 240.513219 
L 109.2561 240.375604 
L 109.446883 239.965216 
L 109.820662 239.830058 
L 109.820662 239.554828 
L 108.878427 239.830058 
L 108.691537 239.830058 
L 108.504648 240.102831 
L 108.691537 240.375604 
L 108.878427 240.375604 
L 108.878427 240.240446 
L 109.446883 240.240446 
L 109.820662 240.785992 
L 109.633772 240.650834 
L 108.691537 239.965216 
L 108.691537 240.102831 
L 108.878427 240.102831 
L 109.06921 239.965216 
L 109.06921 240.375604 
L 108.878427 240.650834 
L 108.878427 240.513219 
L 108.878427 240.375604 
L 108.878427 240.375604 
L 109.2561 240.375604 
L 109.446883 240.240446 
L 109.2561 240.102831 
L 109.2561 240.240446 
L 109.06921 240.513219 
L 109.06921 240.785992 
L 109.2561 240.785992 
L 109.820662 240.923607 
L 109.820662 240.923607 
L 109.633772 240.650834 
L 109.2561 240.513219 
L 109.06921 240.650834 
L 109.06921 240.923607 
L 109.446883 241.606768 
L 109.820662 241.469153 
L 110.198335 241.061222 
L 109.820662 241.061222 
L 109.06921 241.333995 
L 109.06921 241.87954 
L 109.446883 241.87954 
L 109.446883 241.469153 
L 109.06921 241.19638 
L 108.504648 241.19638 
L 108.504648 241.606768 
L 109.06921 242.565159 
L 108.878427 242.427544 
L 108.691537 242.017156 
L 108.878427 241.744383 
L 109.06921 241.744383 
L 109.06921 241.744383 
L 109.06921 241.606768 
L 109.2561 241.87954 
L 108.878427 241.744383 
L 108.126975 240.923607 
L 108.126975 241.061222 
L 108.504648 241.606768 
L 108.878427 241.87954 
L 108.878427 241.744383 
L 108.504648 241.333995 
L 108.691537 241.333995 
L 109.06921 241.333995 
L 109.2561 241.061222 
L 109.06921 240.923607 
L 109.633772 241.333995 
L 110.011445 241.469153 
L 109.446883 241.744383 
L 109.2561 242.154771 
L 108.691537 241.606768 
L 108.691537 241.87954 
L 108.691537 242.154771 
L 109.06921 242.427544 
L 109.820662 242.154771 
L 110.011445 241.87954 
L 109.06921 241.606768 
L 108.691537 241.606768 
L 109.2561 242.017156 
L 109.633772 241.87954 
L 109.446883 241.87954 
L 109.06921 241.87954 
L 109.06921 241.87954 
L 108.878427 241.744383 
L 109.2561 241.87954 
L 109.820662 242.017156 
L 110.011445 242.289928 
L 109.446883 242.289928 
L 109.06921 242.017156 
L 109.06921 242.017156 
L 108.691537 242.154771 
L 108.504648 242.427544 
L 108.504648 242.289928 
L 108.878427 242.154771 
L 109.2561 241.87954 
L 109.06921 241.744383 
L 108.878427 242.017156 
L 108.504648 242.017156 
L 108.313864 241.606768 
L 108.504648 241.87954 
L 107.940085 242.289928 
L 108.126975 242.017156 
L 108.313864 241.744383 
L 107.562412 242.017156 
L 107.371629 242.289928 
L 108.126975 242.289928 
L 108.691537 242.427544 
L 108.691537 242.565159 
L 108.504648 242.700316 
L 107.940085 242.700316 
L 108.126975 242.565159 
L 108.126975 242.289928 
L 107.940085 242.427544 
L 107.940085 242.975547 
L 107.749302 242.700316 
L 107.940085 242.427544 
L 108.126975 242.427544 
L 108.313864 242.565159 
L 108.313864 242.565159 
L 107.749302 242.289928 
L 107.18474 241.744383 
L 107.371629 241.606768 
L 107.562412 241.744383 
L 107.749302 242.427544 
L 107.562412 242.289928 
L 107.940085 242.427544 
L 107.940085 242.700316 
L 107.940085 242.289928 
L 108.126975 241.87954 
L 107.940085 241.744383 
L 107.562412 242.700316 
L 107.749302 242.565159 
L 108.126975 242.017156 
L 107.940085 241.87954 
L 107.18474 242.427544 
L 107.18474 242.289928 
L 107.562412 241.87954 
L 108.504648 242.700316 
L 108.313864 242.700316 
L 108.126975 242.565159 
L 108.313864 242.289928 
L 108.504648 242.289928 
L 108.504648 242.427544 
L 107.749302 242.837931 
L 107.562412 242.700316 
L 107.562412 242.427544 
L 107.562412 242.700316 
L 107.749302 242.700316 
L 107.749302 242.700316 
L 107.749302 242.837931 
L 107.749302 242.837931 
L 108.126975 242.837931 
L 108.504648 242.427544 
L 108.504648 241.87954 
L 108.504648 242.565159 
L 108.691537 242.565159 
L 109.06921 242.427544 
L 106.99785 242.427544 
L 106.807067 242.154771 
L 107.18474 242.017156 
L 107.940085 242.565159 
L 108.313864 242.565159 
L 108.504648 242.289928 
L 107.749302 241.87954 
L 107.562412 241.87954 
L 107.749302 242.017156 
L 108.126975 242.154771 
L 108.504648 242.427544 
L 108.504648 242.700316 
L 108.313864 242.700316 
L 108.126975 242.565159 
L 108.313864 242.565159 
L 108.691537 242.700316 
L 108.126975 242.427544 
L 108.313864 242.289928 
L 108.878427 242.154771 
L 109.06921 242.154771 
L 109.2561 241.744383 
L 108.878427 241.333995 
L 108.504648 241.333995 
L 108.504648 241.469153 
L 108.878427 241.469153 
L 109.820662 241.061222 
L 109.820662 241.19638 
L 109.2561 241.333995 
L 109.446883 241.333995 
L 109.2561 240.923607 
L 109.2561 240.513219 
L 109.633772 240.375604 
L 110.011445 240.513219 
L 110.011445 240.650834 
L 110.389118 240.923607 
L 109.820662 240.513219 
L 109.820662 240.375604 
L 110.576008 240.102831 
L 110.95368 240.102831 
L 110.95368 239.965216 
L 111.518243 239.554828 
L 111.331353 239.14444 
L 110.762897 239.009282 
L 110.762897 238.871667 
L 111.331353 238.871667 
L 112.273588 238.598894 
L 112.082805 238.461279 
L 111.705132 238.326122 
L 111.705132 238.326122 
L 111.705132 238.188506 
L 111.518243 238.050891 
L 111.14057 238.050891 
L 111.331353 238.050891 
L 112.647368 237.230115 
L 112.838151 237.230115 
L 112.838151 237.230115 
L 113.215824 236.546955 
L 113.780386 236.40934 
L 114.158059 236.546955 
L 113.780386 236.819728 
L 113.215824 236.546955 
L 113.025041 235.863794 
L 113.215824 235.453406 
L 113.589603 235.043018 
L 113.780386 234.63263 
L 113.780386 234.495015 
L 114.344949 234.084627 
L 114.531838 234.222242 
L 114.344949 234.495015 
L 114.158059 234.359857 
L 114.531838 233.539082 
L 114.722621 233.401466 
L 114.531838 233.401466 
L 114.158059 232.991078 
L 114.344949 232.855921 
L 115.474073 232.445533 
L 115.474073 232.445533 
L 115.474073 231.624757 
L 115.287184 231.624757 
L 114.722621 231.349527 
L 114.344949 231.076754 
L 114.531838 230.803981 
L 115.096401 230.393593 
L 115.664857 230.12082 
L 116.229419 230.12082 
L 116.607092 230.255978 
L 116.416309 230.255978 
L 115.096401 229.983205 
L 116.229419 230.12082 
L 116.038636 229.84559 
L 116.229419 229.162429 
L 116.038636 229.024814 
L 116.038636 229.435202 
L 116.229419 229.84559 
L 116.607092 229.983205 
L 116.607092 229.84559 
L 116.229419 229.300044 
L 116.229419 228.752041 
L 116.416309 228.614426 
L 116.793981 228.614426 
L 117.358544 229.162429 
L 117.171654 229.435202 
L 116.980871 229.435202 
L 116.980871 229.572817 
L 117.171654 229.983205 
L 116.980871 230.255978 
L 116.607092 229.983205 
L 116.416309 229.162429 
L 116.793981 228.341654 
L 116.980871 228.341654 
L 116.980871 228.889657 
L 116.793981 229.572817 
L 116.980871 229.84559 
L 117.171654 229.84559 
L 116.980871 229.84559 
L 116.607092 229.300044 
L 116.793981 229.162429 
L 117.358544 229.435202 
L 117.549327 229.710432 
L 117.358544 229.84559 
L 117.358544 230.12082 
L 117.358544 230.12082 
L 117.736217 229.300044 
L 117.549327 229.024814 
L 117.171654 229.024814 
L 117.171654 229.300044 
L 116.793981 229.572817 
L 116.416309 229.435202 
L 116.416309 229.162429 
L 116.607092 229.024814 
L 116.793981 229.300044 
L 117.171654 229.435202 
L 117.358544 229.162429 
L 117.549327 229.162429 
L 117.358544 229.572817 
L 117.358544 229.983205 
L 117.358544 229.162429 
L 116.980871 229.572817 
L 116.980871 229.710432 
L 116.980871 229.710432 
L 117.358544 229.710432 
L 117.736217 229.435202 
L 117.736217 229.435202 
" style="fill:none;stroke:#1f77b4;stroke-linecap:square;stroke-width:1.5;"/>
   </g>
   <g id="matplotlib.axis_1">
    <g id="xtick_1">
     <g id="line2d_2">
      <defs>
       <path d="M 0 0 
L 0 3.5 
" id="ma03c893526" style="stroke:#000000;stroke-width:0.8;"/>
      </defs>
      <g>
       <use style="stroke:#000000;stroke-width:0.8;" x="75.798962" xlink:href="#ma03c893526" y="307.584"/>
      </g>
     </g>
     <g id="text_1">
      <!-- −600 -->
      <defs>
       <path d="M 10.59375 35.5 
L 73.1875 35.5 
L 73.1875 27.203125 
L 10.59375 27.203125 
z
" id="DejaVuSans-8722"/>
       <path d="M 33.015625 40.375 
Q 26.375 40.375 22.484375 35.828125 
Q 18.609375 31.296875 18.609375 23.390625 
Q 18.609375 15.53125 22.484375 10.953125 
Q 26.375 6.390625 33.015625 6.390625 
Q 39.65625 6.390625 43.53125 10.953125 
Q 47.40625 15.53125 47.40625 23.390625 
Q 47.40625 31.296875 43.53125 35.828125 
Q 39.65625 40.375 33.015625 40.375 
z
M 52.59375 71.296875 
L 52.59375 62.3125 
Q 48.875 64.0625 45.09375 64.984375 
Q 41.3125 65.921875 37.59375 65.921875 
Q 27.828125 65.921875 22.671875 59.328125 
Q 17.53125 52.734375 16.796875 39.40625 
Q 19.671875 43.65625 24.015625 45.921875 
Q 28.375 48.1875 33.59375 48.1875 
Q 44.578125 48.1875 50.953125 41.515625 
Q 57.328125 34.859375 57.328125 23.390625 
Q 57.328125 12.15625 50.6875 5.359375 
Q 44.046875 -1.421875 33.015625 -1.421875 
Q 20.359375 -1.421875 13.671875 8.265625 
Q 6.984375 17.96875 6.984375 36.375 
Q 6.984375 53.65625 15.1875 63.9375 
Q 23.390625 74.21875 37.203125 74.21875 
Q 40.921875 74.21875 44.703125 73.484375 
Q 48.484375 72.75 52.59375 71.296875 
z
" id="DejaVuSans-54"/>
       <path d="M 31.78125 66.40625 
Q 24.171875 66.40625 20.328125 58.90625 
Q 16.5 51.421875 16.5 36.375 
Q 16.5 21.390625 20.328125 13.890625 
Q 24.171875 6.390625 31.78125 6.390625 
Q 39.453125 6.390625 43.28125 13.890625 
Q 47.125 21.390625 47.125 36.375 
Q 47.125 51.421875 43.28125 58.90625 
Q 39.453125 66.40625 31.78125 66.40625 
z
M 31.78125 74.21875 
Q 44.046875 74.21875 50.515625 64.515625 
Q 56.984375 54.828125 56.984375 36.375 
Q 56.984375 17.96875 50.515625 8.265625 
Q 44.046875 -1.421875 31.78125 -1.421875 
Q 19.53125 -1.421875 13.0625 8.265625 
Q 6.59375 17.96875 6.59375 36.375 
Q 6.59375 54.828125 13.0625 64.515625 
Q 19.53125 74.21875 31.78125 74.21875 
z
" id="DejaVuSans-48"/>
      </defs>
      <g transform="translate(62.065368 322.182437)scale(0.1 -0.1)">
       <use xlink:href="#DejaVuSans-8722"/>
       <use x="83.789062" xlink:href="#DejaVuSans-54"/>
       <use x="147.412109" xlink:href="#DejaVuSans-48"/>
       <use x="211.035156" xlink:href="#DejaVuSans-48"/>
      </g>
     </g>
    </g>
    <g id="xtick_2">
     <g id="line2d_3">
      <g>
       <use style="stroke:#000000;stroke-width:0.8;" x="153.669642" xlink:href="#ma03c893526" y="307.584"/>
      </g>
     </g>
     <g id="text_2">
      <!-- −400 -->
      <defs>
       <path d="M 37.796875 64.3125 
L 12.890625 25.390625 
L 37.796875 25.390625 
z
M 35.203125 72.90625 
L 47.609375 72.90625 
L 47.609375 25.390625 
L 58.015625 25.390625 
L 58.015625 17.1875 
L 47.609375 17.1875 
L 47.609375 0 
L 37.796875 0 
L 37.796875 17.1875 
L 4.890625 17.1875 
L 4.890625 26.703125 
z
" id="DejaVuSans-52"/>
      </defs>
      <g transform="translate(139.936048 322.182437)scale(0.1 -0.1)">
       <use xlink:href="#DejaVuSans-8722"/>
       <use x="83.789062" xlink:href="#DejaVuSans-52"/>
       <use x="147.412109" xlink:href="#DejaVuSans-48"/>
       <use x="211.035156" xlink:href="#DejaVuSans-48"/>
      </g>
     </g>
    </g>
    <g id="xtick_3">
     <g id="line2d_4">
      <g>
       <use style="stroke:#000000;stroke-width:0.8;" x="231.540322" xlink:href="#ma03c893526" y="307.584"/>
      </g>
     </g>
     <g id="text_3">
      <!-- −200 -->
      <defs>
       <path d="M 19.1875 8.296875 
L 53.609375 8.296875 
L 53.609375 0 
L 7.328125 0 
L 7.328125 8.296875 
Q 12.9375 14.109375 22.625 23.890625 
Q 32.328125 33.6875 34.8125 36.53125 
Q 39.546875 41.84375 41.421875 45.53125 
Q 43.3125 49.21875 43.3125 52.78125 
Q 43.3125 58.59375 39.234375 62.25 
Q 35.15625 65.921875 28.609375 65.921875 
Q 23.96875 65.921875 18.8125 64.3125 
Q 13.671875 62.703125 7.8125 59.421875 
L 7.8125 69.390625 
Q 13.765625 71.78125 18.9375 73 
Q 24.125 74.21875 28.421875 74.21875 
Q 39.75 74.21875 46.484375 68.546875 
Q 53.21875 62.890625 53.21875 53.421875 
Q 53.21875 48.921875 51.53125 44.890625 
Q 49.859375 40.875 45.40625 35.40625 
Q 44.1875 33.984375 37.640625 27.21875 
Q 31.109375 20.453125 19.1875 8.296875 
z
" id="DejaVuSans-50"/>
      </defs>
      <g transform="translate(217.806728 322.182437)scale(0.1 -0.1)">
       <use xlink:href="#DejaVuSans-8722"/>
       <use x="83.789062" xlink:href="#DejaVuSans-50"/>
       <use x="147.412109" xlink:href="#DejaVuSans-48"/>
       <use x="211.035156" xlink:href="#DejaVuSans-48"/>
      </g>
     </g>
    </g>
    <g id="xtick_4">
     <g id="line2d_5">
      <g>
       <use style="stroke:#000000;stroke-width:0.8;" x="309.411002" xlink:href="#ma03c893526" y="307.584"/>
      </g>
     </g>
     <g id="text_4">
      <!-- 0 -->
      <g transform="translate(306.229752 322.182437)scale(0.1 -0.1)">
       <use xlink:href="#DejaVuSans-48"/>
      </g>
     </g>
    </g>
    <g id="xtick_5">
     <g id="line2d_6">
      <g>
       <use style="stroke:#000000;stroke-width:0.8;" x="387.281682" xlink:href="#ma03c893526" y="307.584"/>
      </g>
     </g>
     <g id="text_5">
      <!-- 200 -->
      <g transform="translate(377.737932 322.182437)scale(0.1 -0.1)">
       <use xlink:href="#DejaVuSans-50"/>
       <use x="63.623047" xlink:href="#DejaVuSans-48"/>
       <use x="127.246094" xlink:href="#DejaVuSans-48"/>
      </g>
     </g>
    </g>
   </g>
   <g id="matplotlib.axis_2">
    <g id="ytick_1">
     <g id="line2d_7">
      <defs>
       <path d="M 0 0 
L -3.5 0 
" id="m0ca6f7f0df" style="stroke:#000000;stroke-width:0.8;"/>
      </defs>
      <g>
       <use style="stroke:#000000;stroke-width:0.8;" x="57.6" xlink:href="#m0ca6f7f0df" y="278.686669"/>
      </g>
     </g>
     <g id="text_6">
      <!-- −200 -->
      <g transform="translate(23.132812 282.485888)scale(0.1 -0.1)">
       <use xlink:href="#DejaVuSans-8722"/>
       <use x="83.789062" xlink:href="#DejaVuSans-50"/>
       <use x="147.412109" xlink:href="#DejaVuSans-48"/>
       <use x="211.035156" xlink:href="#DejaVuSans-48"/>
      </g>
     </g>
    </g>
    <g id="ytick_2">
     <g id="line2d_8">
      <g>
       <use style="stroke:#000000;stroke-width:0.8;" x="57.6" xlink:href="#m0ca6f7f0df" y="229.538414"/>
      </g>
     </g>
     <g id="text_7">
      <!-- 0 -->
      <g transform="translate(44.2375 233.337632)scale(0.1 -0.1)">
       <use xlink:href="#DejaVuSans-48"/>
      </g>
     </g>
    </g>
    <g id="ytick_3">
     <g id="line2d_9">
      <g>
       <use style="stroke:#000000;stroke-width:0.8;" x="57.6" xlink:href="#m0ca6f7f0df" y="180.390158"/>
      </g>
     </g>
     <g id="text_8">
      <!-- 200 -->
      <g transform="translate(31.5125 184.189377)scale(0.1 -0.1)">
       <use xlink:href="#DejaVuSans-50"/>
       <use x="63.623047" xlink:href="#DejaVuSans-48"/>
       <use x="127.246094" xlink:href="#DejaVuSans-48"/>
      </g>
     </g>
    </g>
    <g id="ytick_4">
     <g id="line2d_10">
      <g>
       <use style="stroke:#000000;stroke-width:0.8;" x="57.6" xlink:href="#m0ca6f7f0df" y="131.241903"/>
      </g>
     </g>
     <g id="text_9">
      <!-- 400 -->
      <g transform="translate(31.5125 135.041122)scale(0.1 -0.1)">
       <use xlink:href="#DejaVuSans-52"/>
       <use x="63.623047" xlink:href="#DejaVuSans-48"/>
       <use x="127.246094" xlink:href="#DejaVuSans-48"/>
      </g>
     </g>
    </g>
    <g id="ytick_5">
     <g id="line2d_11">
      <g>
       <use style="stroke:#000000;stroke-width:0.8;" x="57.6" xlink:href="#m0ca6f7f0df" y="82.093647"/>
      </g>
     </g>
     <g id="text_10">
      <!-- 600 -->
      <g transform="translate(31.5125 85.892866)scale(0.1 -0.1)">
       <use xlink:href="#DejaVuSans-54"/>
       <use x="63.623047" xlink:href="#DejaVuSans-48"/>
       <use x="127.246094" xlink:href="#DejaVuSans-48"/>
      </g>
     </g>
    </g>
   </g>
   <g id="line2d_12">
    <path clip-path="url(#p48c00725e3)" d="M 79.746657 58.29819 
L 241.472002 214.151396 
L 165.559816 239.040192 
L 164.984056 249.168329 
L 342.497262 278.216677 
L 384.076759 290.931776 
L 377.462358 283.25438 
L 109.347383 239.964083 
" style="fill:none;stroke:#ff0000;stroke-linecap:square;stroke-width:0.5;"/>
   </g>
   <g id="patch_3">
    <path d="M 57.6 307.584 
L 57.6 41.472 
" style="fill:none;stroke:#000000;stroke-linecap:square;stroke-linejoin:miter;stroke-width:0.8;"/>
   </g>
   <g id="patch_4">
    <path d="M 414.72 307.584 
L 414.72 41.472 
" style="fill:none;stroke:#000000;stroke-linecap:square;stroke-linejoin:miter;stroke-width:0.8;"/>
   </g>
   <g id="patch_5">
    <path d="M 57.6 307.584 
L 414.72 307.584 
" style="fill:none;stroke:#000000;stroke-linecap:square;stroke-linejoin:miter;stroke-width:0.8;"/>
   </g>
   <g id="patch_6">
    <path d="M 57.6 41.472 
L 414.72 41.472 
" style="fill:none;stroke:#000000;stroke-linecap:square;stroke-linejoin:miter;stroke-width:0.8;"/>
   </g>
   <g id="PathCollection_1">
    <defs>
     <path d="M 0 2.738613 
C 0.726289 2.738613 1.422928 2.450055 1.936492 1.936492 
C 2.450055 1.422928 2.738613 0.726289 2.738613 0 
C 2.738613 -0.726289 2.450055 -1.422928 1.936492 -1.936492 
C 1.422928 -2.450055 0.726289 -2.738613 0 -2.738613 
C -0.726289 -2.738613 -1.422928 -2.450055 -1.936492 -1.936492 
C -2.450055 -1.422928 -2.738613 -0.726289 -2.738613 0 
C -2.738613 0.726289 -2.450055 1.422928 -1.936492 1.936492 
C -1.422928 2.450055 -0.726289 2.738613 0 2.738613 
z
" id="m690f062c21" style="stroke:#ff0000;"/>
    </defs>
    <g clip-path="url(#p48c00725e3)">
     <use style="fill:#ff0000;stroke:#ff0000;" x="79.746657" xlink:href="#m690f062c21" y="58.29819"/>
     <use style="fill:#ff0000;stroke:#ff0000;" x="241.472002" xlink:href="#m690f062c21" y="214.151396"/>
     <use style="fill:#ff0000;stroke:#ff0000;" x="165.559816" xlink:href="#m690f062c21" y="239.040192"/>
     <use style="fill:#ff0000;stroke:#ff0000;" x="164.984056" xlink:href="#m690f062c21" y="249.168329"/>
     <use style="fill:#ff0000;stroke:#ff0000;" x="342.497262" xlink:href="#m690f062c21" y="278.216677"/>
     <use style="fill:#ff0000;stroke:#ff0000;" x="384.076759" xlink:href="#m690f062c21" y="290.931776"/>
     <use style="fill:#ff0000;stroke:#ff0000;" x="377.462358" xlink:href="#m690f062c21" y="283.25438"/>
     <use style="fill:#ff0000;stroke:#ff0000;" x="109.347383" xlink:href="#m690f062c21" y="239.964083"/>
    </g>
   </g>
   <g id="text_11">
    <!-- (76) Subject: s7, Known = False, Degree = 1, Duration = 0.1 -->
    <defs>
     <path d="M 31 75.875 
Q 24.46875 64.65625 21.28125 53.65625 
Q 18.109375 42.671875 18.109375 31.390625 
Q 18.109375 20.125 21.3125 9.0625 
Q 24.515625 -2 31 -13.1875 
L 23.1875 -13.1875 
Q 15.875 -1.703125 12.234375 9.375 
Q 8.59375 20.453125 8.59375 31.390625 
Q 8.59375 42.28125 12.203125 53.3125 
Q 15.828125 64.359375 23.1875 75.875 
z
" id="DejaVuSans-40"/>
     <path d="M 8.203125 72.90625 
L 55.078125 72.90625 
L 55.078125 68.703125 
L 28.609375 0 
L 18.3125 0 
L 43.21875 64.59375 
L 8.203125 64.59375 
z
" id="DejaVuSans-55"/>
     <path d="M 8.015625 75.875 
L 15.828125 75.875 
Q 23.140625 64.359375 26.78125 53.3125 
Q 30.421875 42.28125 30.421875 31.390625 
Q 30.421875 20.453125 26.78125 9.375 
Q 23.140625 -1.703125 15.828125 -13.1875 
L 8.015625 -13.1875 
Q 14.5 -2 17.703125 9.0625 
Q 20.90625 20.125 20.90625 31.390625 
Q 20.90625 42.671875 17.703125 53.65625 
Q 14.5 64.65625 8.015625 75.875 
z
" id="DejaVuSans-41"/>
     <path id="DejaVuSans-32"/>
     <path d="M 53.515625 70.515625 
L 53.515625 60.890625 
Q 47.90625 63.578125 42.921875 64.890625 
Q 37.9375 66.21875 33.296875 66.21875 
Q 25.25 66.21875 20.875 63.09375 
Q 16.5 59.96875 16.5 54.203125 
Q 16.5 49.359375 19.40625 46.890625 
Q 22.3125 44.4375 30.421875 42.921875 
L 36.375 41.703125 
Q 47.40625 39.59375 52.65625 34.296875 
Q 57.90625 29 57.90625 20.125 
Q 57.90625 9.515625 50.796875 4.046875 
Q 43.703125 -1.421875 29.984375 -1.421875 
Q 24.8125 -1.421875 18.96875 -0.25 
Q 13.140625 0.921875 6.890625 3.21875 
L 6.890625 13.375 
Q 12.890625 10.015625 18.65625 8.296875 
Q 24.421875 6.59375 29.984375 6.59375 
Q 38.421875 6.59375 43.015625 9.90625 
Q 47.609375 13.234375 47.609375 19.390625 
Q 47.609375 24.75 44.3125 27.78125 
Q 41.015625 30.8125 33.5 32.328125 
L 27.484375 33.5 
Q 16.453125 35.6875 11.515625 40.375 
Q 6.59375 45.0625 6.59375 53.421875 
Q 6.59375 63.09375 13.40625 68.65625 
Q 20.21875 74.21875 32.171875 74.21875 
Q 37.3125 74.21875 42.625 73.28125 
Q 47.953125 72.359375 53.515625 70.515625 
z
" id="DejaVuSans-83"/>
     <path d="M 8.5 21.578125 
L 8.5 54.6875 
L 17.484375 54.6875 
L 17.484375 21.921875 
Q 17.484375 14.15625 20.5 10.265625 
Q 23.53125 6.390625 29.59375 6.390625 
Q 36.859375 6.390625 41.078125 11.03125 
Q 45.3125 15.671875 45.3125 23.6875 
L 45.3125 54.6875 
L 54.296875 54.6875 
L 54.296875 0 
L 45.3125 0 
L 45.3125 8.40625 
Q 42.046875 3.421875 37.71875 1 
Q 33.40625 -1.421875 27.6875 -1.421875 
Q 18.265625 -1.421875 13.375 4.4375 
Q 8.5 10.296875 8.5 21.578125 
z
M 31.109375 56 
z
" id="DejaVuSans-117"/>
     <path d="M 48.6875 27.296875 
Q 48.6875 37.203125 44.609375 42.84375 
Q 40.53125 48.484375 33.40625 48.484375 
Q 26.265625 48.484375 22.1875 42.84375 
Q 18.109375 37.203125 18.109375 27.296875 
Q 18.109375 17.390625 22.1875 11.75 
Q 26.265625 6.109375 33.40625 6.109375 
Q 40.53125 6.109375 44.609375 11.75 
Q 48.6875 17.390625 48.6875 27.296875 
z
M 18.109375 46.390625 
Q 20.953125 51.265625 25.265625 53.625 
Q 29.59375 56 35.59375 56 
Q 45.5625 56 51.78125 48.09375 
Q 58.015625 40.1875 58.015625 27.296875 
Q 58.015625 14.40625 51.78125 6.484375 
Q 45.5625 -1.421875 35.59375 -1.421875 
Q 29.59375 -1.421875 25.265625 0.953125 
Q 20.953125 3.328125 18.109375 8.203125 
L 18.109375 0 
L 9.078125 0 
L 9.078125 75.984375 
L 18.109375 75.984375 
z
" id="DejaVuSans-98"/>
     <path d="M 9.421875 54.6875 
L 18.40625 54.6875 
L 18.40625 -0.984375 
Q 18.40625 -11.421875 14.421875 -16.109375 
Q 10.453125 -20.796875 1.609375 -20.796875 
L -1.8125 -20.796875 
L -1.8125 -13.1875 
L 0.59375 -13.1875 
Q 5.71875 -13.1875 7.5625 -10.8125 
Q 9.421875 -8.453125 9.421875 -0.984375 
z
M 9.421875 75.984375 
L 18.40625 75.984375 
L 18.40625 64.59375 
L 9.421875 64.59375 
z
" id="DejaVuSans-106"/>
     <path d="M 56.203125 29.59375 
L 56.203125 25.203125 
L 14.890625 25.203125 
Q 15.484375 15.921875 20.484375 11.0625 
Q 25.484375 6.203125 34.421875 6.203125 
Q 39.59375 6.203125 44.453125 7.46875 
Q 49.3125 8.734375 54.109375 11.28125 
L 54.109375 2.78125 
Q 49.265625 0.734375 44.1875 -0.34375 
Q 39.109375 -1.421875 33.890625 -1.421875 
Q 20.796875 -1.421875 13.15625 6.1875 
Q 5.515625 13.8125 5.515625 26.8125 
Q 5.515625 40.234375 12.765625 48.109375 
Q 20.015625 56 32.328125 56 
Q 43.359375 56 49.78125 48.890625 
Q 56.203125 41.796875 56.203125 29.59375 
z
M 47.21875 32.234375 
Q 47.125 39.59375 43.09375 43.984375 
Q 39.0625 48.390625 32.421875 48.390625 
Q 24.90625 48.390625 20.390625 44.140625 
Q 15.875 39.890625 15.1875 32.171875 
z
" id="DejaVuSans-101"/>
     <path d="M 48.78125 52.59375 
L 48.78125 44.1875 
Q 44.96875 46.296875 41.140625 47.34375 
Q 37.3125 48.390625 33.40625 48.390625 
Q 24.65625 48.390625 19.8125 42.84375 
Q 14.984375 37.3125 14.984375 27.296875 
Q 14.984375 17.28125 19.8125 11.734375 
Q 24.65625 6.203125 33.40625 6.203125 
Q 37.3125 6.203125 41.140625 7.25 
Q 44.96875 8.296875 48.78125 10.40625 
L 48.78125 2.09375 
Q 45.015625 0.34375 40.984375 -0.53125 
Q 36.96875 -1.421875 32.421875 -1.421875 
Q 20.0625 -1.421875 12.78125 6.34375 
Q 5.515625 14.109375 5.515625 27.296875 
Q 5.515625 40.671875 12.859375 48.328125 
Q 20.21875 56 33.015625 56 
Q 37.15625 56 41.109375 55.140625 
Q 45.0625 54.296875 48.78125 52.59375 
z
" id="DejaVuSans-99"/>
     <path d="M 18.3125 70.21875 
L 18.3125 54.6875 
L 36.8125 54.6875 
L 36.8125 47.703125 
L 18.3125 47.703125 
L 18.3125 18.015625 
Q 18.3125 11.328125 20.140625 9.421875 
Q 21.96875 7.515625 27.59375 7.515625 
L 36.8125 7.515625 
L 36.8125 0 
L 27.59375 0 
Q 17.1875 0 13.234375 3.875 
Q 9.28125 7.765625 9.28125 18.015625 
L 9.28125 47.703125 
L 2.6875 47.703125 
L 2.6875 54.6875 
L 9.28125 54.6875 
L 9.28125 70.21875 
z
" id="DejaVuSans-116"/>
     <path d="M 11.71875 12.40625 
L 22.015625 12.40625 
L 22.015625 0 
L 11.71875 0 
z
M 11.71875 51.703125 
L 22.015625 51.703125 
L 22.015625 39.3125 
L 11.71875 39.3125 
z
" id="DejaVuSans-58"/>
     <path d="M 44.28125 53.078125 
L 44.28125 44.578125 
Q 40.484375 46.53125 36.375 47.5 
Q 32.28125 48.484375 27.875 48.484375 
Q 21.1875 48.484375 17.84375 46.4375 
Q 14.5 44.390625 14.5 40.28125 
Q 14.5 37.15625 16.890625 35.375 
Q 19.28125 33.59375 26.515625 31.984375 
L 29.59375 31.296875 
Q 39.15625 29.25 43.1875 25.515625 
Q 47.21875 21.78125 47.21875 15.09375 
Q 47.21875 7.46875 41.1875 3.015625 
Q 35.15625 -1.421875 24.609375 -1.421875 
Q 20.21875 -1.421875 15.453125 -0.5625 
Q 10.6875 0.296875 5.421875 2 
L 5.421875 11.28125 
Q 10.40625 8.6875 15.234375 7.390625 
Q 20.0625 6.109375 24.8125 6.109375 
Q 31.15625 6.109375 34.5625 8.28125 
Q 37.984375 10.453125 37.984375 14.40625 
Q 37.984375 18.0625 35.515625 20.015625 
Q 33.0625 21.96875 24.703125 23.78125 
L 21.578125 24.515625 
Q 13.234375 26.265625 9.515625 29.90625 
Q 5.8125 33.546875 5.8125 39.890625 
Q 5.8125 47.609375 11.28125 51.796875 
Q 16.75 56 26.8125 56 
Q 31.78125 56 36.171875 55.265625 
Q 40.578125 54.546875 44.28125 53.078125 
z
" id="DejaVuSans-115"/>
     <path d="M 11.71875 12.40625 
L 22.015625 12.40625 
L 22.015625 4 
L 14.015625 -11.625 
L 7.71875 -11.625 
L 11.71875 4 
z
" id="DejaVuSans-44"/>
     <path d="M 9.8125 72.90625 
L 19.671875 72.90625 
L 19.671875 42.09375 
L 52.390625 72.90625 
L 65.09375 72.90625 
L 28.90625 38.921875 
L 67.671875 0 
L 54.6875 0 
L 19.671875 35.109375 
L 19.671875 0 
L 9.8125 0 
z
" id="DejaVuSans-75"/>
     <path d="M 54.890625 33.015625 
L 54.890625 0 
L 45.90625 0 
L 45.90625 32.71875 
Q 45.90625 40.484375 42.875 44.328125 
Q 39.84375 48.1875 33.796875 48.1875 
Q 26.515625 48.1875 22.3125 43.546875 
Q 18.109375 38.921875 18.109375 30.90625 
L 18.109375 0 
L 9.078125 0 
L 9.078125 54.6875 
L 18.109375 54.6875 
L 18.109375 46.1875 
Q 21.34375 51.125 25.703125 53.5625 
Q 30.078125 56 35.796875 56 
Q 45.21875 56 50.046875 50.171875 
Q 54.890625 44.34375 54.890625 33.015625 
z
" id="DejaVuSans-110"/>
     <path d="M 30.609375 48.390625 
Q 23.390625 48.390625 19.1875 42.75 
Q 14.984375 37.109375 14.984375 27.296875 
Q 14.984375 17.484375 19.15625 11.84375 
Q 23.34375 6.203125 30.609375 6.203125 
Q 37.796875 6.203125 41.984375 11.859375 
Q 46.1875 17.53125 46.1875 27.296875 
Q 46.1875 37.015625 41.984375 42.703125 
Q 37.796875 48.390625 30.609375 48.390625 
z
M 30.609375 56 
Q 42.328125 56 49.015625 48.375 
Q 55.71875 40.765625 55.71875 27.296875 
Q 55.71875 13.875 49.015625 6.21875 
Q 42.328125 -1.421875 30.609375 -1.421875 
Q 18.84375 -1.421875 12.171875 6.21875 
Q 5.515625 13.875 5.515625 27.296875 
Q 5.515625 40.765625 12.171875 48.375 
Q 18.84375 56 30.609375 56 
z
" id="DejaVuSans-111"/>
     <path d="M 4.203125 54.6875 
L 13.1875 54.6875 
L 24.421875 12.015625 
L 35.59375 54.6875 
L 46.1875 54.6875 
L 57.421875 12.015625 
L 68.609375 54.6875 
L 77.59375 54.6875 
L 63.28125 0 
L 52.6875 0 
L 40.921875 44.828125 
L 29.109375 0 
L 18.5 0 
z
" id="DejaVuSans-119"/>
     <path d="M 10.59375 45.40625 
L 73.1875 45.40625 
L 73.1875 37.203125 
L 10.59375 37.203125 
z
M 10.59375 25.484375 
L 73.1875 25.484375 
L 73.1875 17.1875 
L 10.59375 17.1875 
z
" id="DejaVuSans-61"/>
     <path d="M 9.8125 72.90625 
L 51.703125 72.90625 
L 51.703125 64.59375 
L 19.671875 64.59375 
L 19.671875 43.109375 
L 48.578125 43.109375 
L 48.578125 34.8125 
L 19.671875 34.8125 
L 19.671875 0 
L 9.8125 0 
z
" id="DejaVuSans-70"/>
     <path d="M 34.28125 27.484375 
Q 23.390625 27.484375 19.1875 25 
Q 14.984375 22.515625 14.984375 16.5 
Q 14.984375 11.71875 18.140625 8.90625 
Q 21.296875 6.109375 26.703125 6.109375 
Q 34.1875 6.109375 38.703125 11.40625 
Q 43.21875 16.703125 43.21875 25.484375 
L 43.21875 27.484375 
z
M 52.203125 31.203125 
L 52.203125 0 
L 43.21875 0 
L 43.21875 8.296875 
Q 40.140625 3.328125 35.546875 0.953125 
Q 30.953125 -1.421875 24.3125 -1.421875 
Q 15.921875 -1.421875 10.953125 3.296875 
Q 6 8.015625 6 15.921875 
Q 6 25.140625 12.171875 29.828125 
Q 18.359375 34.515625 30.609375 34.515625 
L 43.21875 34.515625 
L 43.21875 35.40625 
Q 43.21875 41.609375 39.140625 45 
Q 35.0625 48.390625 27.6875 48.390625 
Q 23 48.390625 18.546875 47.265625 
Q 14.109375 46.140625 10.015625 43.890625 
L 10.015625 52.203125 
Q 14.9375 54.109375 19.578125 55.046875 
Q 24.21875 56 28.609375 56 
Q 40.484375 56 46.34375 49.84375 
Q 52.203125 43.703125 52.203125 31.203125 
z
" id="DejaVuSans-97"/>
     <path d="M 9.421875 75.984375 
L 18.40625 75.984375 
L 18.40625 0 
L 9.421875 0 
z
" id="DejaVuSans-108"/>
     <path d="M 19.671875 64.796875 
L 19.671875 8.109375 
L 31.59375 8.109375 
Q 46.6875 8.109375 53.6875 14.9375 
Q 60.6875 21.78125 60.6875 36.53125 
Q 60.6875 51.171875 53.6875 57.984375 
Q 46.6875 64.796875 31.59375 64.796875 
z
M 9.8125 72.90625 
L 30.078125 72.90625 
Q 51.265625 72.90625 61.171875 64.09375 
Q 71.09375 55.28125 71.09375 36.53125 
Q 71.09375 17.671875 61.125 8.828125 
Q 51.171875 0 30.078125 0 
L 9.8125 0 
z
" id="DejaVuSans-68"/>
     <path d="M 45.40625 27.984375 
Q 45.40625 37.75 41.375 43.109375 
Q 37.359375 48.484375 30.078125 48.484375 
Q 22.859375 48.484375 18.828125 43.109375 
Q 14.796875 37.75 14.796875 27.984375 
Q 14.796875 18.265625 18.828125 12.890625 
Q 22.859375 7.515625 30.078125 7.515625 
Q 37.359375 7.515625 41.375 12.890625 
Q 45.40625 18.265625 45.40625 27.984375 
z
M 54.390625 6.78125 
Q 54.390625 -7.171875 48.1875 -13.984375 
Q 42 -20.796875 29.203125 -20.796875 
Q 24.46875 -20.796875 20.265625 -20.09375 
Q 16.0625 -19.390625 12.109375 -17.921875 
L 12.109375 -9.1875 
Q 16.0625 -11.328125 19.921875 -12.34375 
Q 23.78125 -13.375 27.78125 -13.375 
Q 36.625 -13.375 41.015625 -8.765625 
Q 45.40625 -4.15625 45.40625 5.171875 
L 45.40625 9.625 
Q 42.625 4.78125 38.28125 2.390625 
Q 33.9375 0 27.875 0 
Q 17.828125 0 11.671875 7.65625 
Q 5.515625 15.328125 5.515625 27.984375 
Q 5.515625 40.671875 11.671875 48.328125 
Q 17.828125 56 27.875 56 
Q 33.9375 56 38.28125 53.609375 
Q 42.625 51.21875 45.40625 46.390625 
L 45.40625 54.6875 
L 54.390625 54.6875 
z
" id="DejaVuSans-103"/>
     <path d="M 41.109375 46.296875 
Q 39.59375 47.171875 37.8125 47.578125 
Q 36.03125 48 33.890625 48 
Q 26.265625 48 22.1875 43.046875 
Q 18.109375 38.09375 18.109375 28.8125 
L 18.109375 0 
L 9.078125 0 
L 9.078125 54.6875 
L 18.109375 54.6875 
L 18.109375 46.1875 
Q 20.953125 51.171875 25.484375 53.578125 
Q 30.03125 56 36.53125 56 
Q 37.453125 56 38.578125 55.875 
Q 39.703125 55.765625 41.0625 55.515625 
z
" id="DejaVuSans-114"/>
     <path d="M 12.40625 8.296875 
L 28.515625 8.296875 
L 28.515625 63.921875 
L 10.984375 60.40625 
L 10.984375 69.390625 
L 28.421875 72.90625 
L 38.28125 72.90625 
L 38.28125 8.296875 
L 54.390625 8.296875 
L 54.390625 0 
L 12.40625 0 
z
" id="DejaVuSans-49"/>
     <path d="M 9.421875 54.6875 
L 18.40625 54.6875 
L 18.40625 0 
L 9.421875 0 
z
M 9.421875 75.984375 
L 18.40625 75.984375 
L 18.40625 64.59375 
L 9.421875 64.59375 
z
" id="DejaVuSans-105"/>
     <path d="M 10.6875 12.40625 
L 21 12.40625 
L 21 0 
L 10.6875 0 
z
" id="DejaVuSans-46"/>
    </defs>
    <g transform="translate(53.559375 35.472)scale(0.12 -0.12)">
     <use xlink:href="#DejaVuSans-40"/>
     <use x="39.013672" xlink:href="#DejaVuSans-55"/>
     <use x="102.636719" xlink:href="#DejaVuSans-54"/>
     <use x="166.259766" xlink:href="#DejaVuSans-41"/>
     <use x="205.273438" xlink:href="#DejaVuSans-32"/>
     <use x="237.060547" xlink:href="#DejaVuSans-83"/>
     <use x="300.537109" xlink:href="#DejaVuSans-117"/>
     <use x="363.916016" xlink:href="#DejaVuSans-98"/>
     <use x="427.392578" xlink:href="#DejaVuSans-106"/>
     <use x="455.175781" xlink:href="#DejaVuSans-101"/>
     <use x="516.699219" xlink:href="#DejaVuSans-99"/>
     <use x="571.679688" xlink:href="#DejaVuSans-116"/>
     <use x="610.888672" xlink:href="#DejaVuSans-58"/>
     <use x="644.580078" xlink:href="#DejaVuSans-32"/>
     <use x="676.367188" xlink:href="#DejaVuSans-115"/>
     <use x="728.466797" xlink:href="#DejaVuSans-55"/>
     <use x="792.089844" xlink:href="#DejaVuSans-44"/>
     <use x="823.876953" xlink:href="#DejaVuSans-32"/>
     <use x="855.664062" xlink:href="#DejaVuSans-75"/>
     <use x="921.240234" xlink:href="#DejaVuSans-110"/>
     <use x="984.619141" xlink:href="#DejaVuSans-111"/>
     <use x="1045.800781" xlink:href="#DejaVuSans-119"/>
     <use x="1127.587891" xlink:href="#DejaVuSans-110"/>
     <use x="1190.966797" xlink:href="#DejaVuSans-32"/>
     <use x="1222.753906" xlink:href="#DejaVuSans-61"/>
     <use x="1306.542969" xlink:href="#DejaVuSans-32"/>
     <use x="1338.330078" xlink:href="#DejaVuSans-70"/>
     <use x="1395.708984" xlink:href="#DejaVuSans-97"/>
     <use x="1456.988281" xlink:href="#DejaVuSans-108"/>
     <use x="1484.771484" xlink:href="#DejaVuSans-115"/>
     <use x="1536.871094" xlink:href="#DejaVuSans-101"/>
     <use x="1598.394531" xlink:href="#DejaVuSans-44"/>
     <use x="1630.181641" xlink:href="#DejaVuSans-32"/>
     <use x="1661.96875" xlink:href="#DejaVuSans-68"/>
     <use x="1738.970703" xlink:href="#DejaVuSans-101"/>
     <use x="1800.494141" xlink:href="#DejaVuSans-103"/>
     <use x="1863.970703" xlink:href="#DejaVuSans-114"/>
     <use x="1905.052734" xlink:href="#DejaVuSans-101"/>
     <use x="1966.576172" xlink:href="#DejaVuSans-101"/>
     <use x="2028.099609" xlink:href="#DejaVuSans-32"/>
     <use x="2059.886719" xlink:href="#DejaVuSans-61"/>
     <use x="2143.675781" xlink:href="#DejaVuSans-32"/>
     <use x="2175.462891" xlink:href="#DejaVuSans-49"/>
     <use x="2239.085938" xlink:href="#DejaVuSans-44"/>
     <use x="2270.873047" xlink:href="#DejaVuSans-32"/>
     <use x="2302.660156" xlink:href="#DejaVuSans-68"/>
     <use x="2379.662109" xlink:href="#DejaVuSans-117"/>
     <use x="2443.041016" xlink:href="#DejaVuSans-114"/>
     <use x="2484.154297" xlink:href="#DejaVuSans-97"/>
     <use x="2545.433594" xlink:href="#DejaVuSans-116"/>
     <use x="2584.642578" xlink:href="#DejaVuSans-105"/>
     <use x="2612.425781" xlink:href="#DejaVuSans-111"/>
     <use x="2673.607422" xlink:href="#DejaVuSans-110"/>
     <use x="2736.986328" xlink:href="#DejaVuSans-32"/>
     <use x="2768.773438" xlink:href="#DejaVuSans-61"/>
     <use x="2852.5625" xlink:href="#DejaVuSans-32"/>
     <use x="2884.349609" xlink:href="#DejaVuSans-48"/>
     <use x="2947.972656" xlink:href="#DejaVuSans-46"/>
     <use x="2979.759766" xlink:href="#DejaVuSans-49"/>
    </g>
   </g>
  </g>
 </g>
 <defs>
  <clipPath id="p48c00725e3">
   <rect height="266.112" width="357.12" x="57.6" y="41.472"/>
  </clipPath>
 </defs>
</svg>
