<?xml version="1.0" encoding="utf-8" standalone="no"?>
<!DOCTYPE svg PUBLIC "-//W3C//DTD SVG 1.1//EN"
  "http://www.w3.org/Graphics/SVG/1.1/DTD/svg11.dtd">
<!-- Created with matplotlib (https://matplotlib.org/) -->
<svg height="345.6pt" version="1.1" viewBox="0 0 460.8 345.6" width="460.8pt" xmlns="http://www.w3.org/2000/svg" xmlns:xlink="http://www.w3.org/1999/xlink">
 <defs>
  <style type="text/css">
*{stroke-linecap:butt;stroke-linejoin:round;}
  </style>
 </defs>
 <g id="figure_1">
  <g id="patch_1">
   <path d="M 0 345.6 
L 460.8 345.6 
L 460.8 0 
L 0 0 
z
" style="fill:#ffffff;"/>
  </g>
  <g id="axes_1">
   <g id="patch_2">
    <path d="M 57.6 307.584 
L 414.72 307.584 
L 414.72 41.472 
L 57.6 41.472 
z
" style="fill:#ffffff;"/>
   </g>
   <g id="line2d_1">
    <path clip-path="url(#p436615e797)" d="M 398.263505 252.90147 
L 398.036753 251.996284 
L 397.812985 251.996284 
L 398.036753 252.90147 
L 398.487273 253.806657 
L 398.487273 254.711843 
L 398.036753 253.806657 
L 397.812985 252.90147 
L 397.812985 252.90147 
L 397.589217 252.90147 
L 397.589217 253.806657 
L 397.589217 249.273597 
L 397.365449 248.36841 
L 397.589217 248.36841 
L 397.589217 249.273597 
L 397.589217 249.273597 
L 397.365449 251.091097 
L 397.141681 251.996284 
L 396.917913 251.996284 
L 397.141681 251.091097 
L 397.589217 250.178783 
L 398.036753 250.178783 
L 397.589217 249.273597 
L 396.917913 245.652851 
L 396.246609 244.747664 
L 395.799073 246.558037 
L 395.799073 248.36841 
L 396.022841 248.36841 
L 396.246609 246.558037 
L 396.470377 246.558037 
L 396.246609 247.463224 
L 396.246609 248.36841 
L 396.470377 249.273597 
L 397.141681 248.36841 
L 397.589217 246.558037 
L 397.812985 243.842478 
L 397.589217 244.747664 
L 397.365449 248.36841 
L 397.141681 247.463224 
L 397.141681 245.652851 
L 397.141681 245.652851 
L 396.470377 248.36841 
L 396.246609 248.36841 
L 396.470377 245.652851 
L 396.917913 244.747664 
L 396.470377 245.652851 
L 395.799073 246.558037 
L 395.575305 246.558037 
L 395.799073 247.463224 
L 396.246609 248.36841 
L 396.246609 249.273597 
L 395.799073 250.178783 
L 395.799073 250.178783 
L 395.799073 248.36841 
L 396.022841 246.558037 
L 396.246609 246.558037 
L 396.246609 247.463224 
L 396.022841 247.463224 
L 396.470377 246.558037 
L 396.694145 245.652851 
L 396.470377 245.652851 
L 396.022841 247.463224 
L 396.022841 248.36841 
L 396.246609 250.178783 
L 396.022841 251.091097 
L 395.351537 251.091097 
L 395.351537 250.178783 
L 395.799073 248.36841 
L 396.022841 246.558037 
L 395.799073 245.652851 
L 395.575305 245.652851 
L 395.575305 248.36841 
L 395.799073 251.091097 
L 396.246609 249.273597 
L 396.246609 251.091097 
L 395.575305 253.806657 
L 395.351537 252.90147 
L 395.351537 251.996284 
L 395.351537 251.996284 
L 395.799073 252.90147 
L 395.799073 253.806657 
L 395.799073 252.90147 
L 394.904001 252.90147 
L 394.904001 253.806657 
L 395.351537 252.90147 
L 395.351537 251.996284 
L 395.127769 251.091097 
L 394.904001 251.996284 
L 395.351537 252.90147 
L 395.799073 252.90147 
L 395.799073 252.90147 
L 395.575305 253.806657 
L 395.351537 253.806657 
L 394.904001 251.996284 
L 394.904001 251.996284 
L 396.022841 251.996284 
L 396.246609 251.091097 
L 396.246609 249.273597 
L 395.575305 247.463224 
L 394.904001 248.36841 
L 394.456465 250.178783 
L 394.456465 251.996284 
L 394.904001 253.806657 
L 395.127769 252.90147 
L 395.127769 251.091097 
L 395.351537 249.273597 
L 395.799073 249.273597 
L 395.799073 248.36841 
L 394.680233 248.36841 
L 394.680233 248.36841 
L 394.904001 247.463224 
L 394.904001 246.558037 
L 394.904001 247.463224 
L 395.127769 247.463224 
L 395.127769 247.463224 
L 395.127769 246.558037 
L 394.456465 243.842478 
L 394.008929 247.463224 
L 394.232697 245.652851 
L 394.232697 243.842478 
L 394.008929 243.842478 
L 394.008929 244.747664 
L 394.680233 244.747664 
L 395.127769 243.842478 
L 394.904001 242.930164 
L 394.680233 242.930164 
L 394.456465 242.024977 
L 394.456465 242.024977 
L 393.785161 242.024977 
L 394.008929 241.119791 
L 394.456465 240.214604 
L 394.456465 242.024977 
L 394.232697 244.747664 
L 393.785161 244.747664 
L 393.785161 243.842478 
L 394.232697 242.024977 
L 393.785161 240.214604 
L 394.008929 241.119791 
L 393.785161 241.119791 
L 393.337625 239.309418 
L 393.113857 239.309418 
L 393.337625 240.214604 
L 393.337625 240.214604 
L 392.663338 240.214604 
L 392.215802 238.404231 
L 392.43957 236.593858 
L 392.887106 234.776358 
L 393.113857 235.681544 
L 393.113857 235.681544 
L 393.113857 237.499045 
L 392.887106 238.404231 
L 391.992034 238.404231 
L 391.768266 237.499045 
L 391.992034 235.681544 
L 392.43957 234.776358 
L 392.215802 234.776358 
L 391.992034 236.593858 
L 392.43957 238.404231 
L 392.663338 238.404231 
L 392.887106 237.499045 
L 392.887106 234.776358 
L 392.887106 235.681544 
L 392.43957 241.119791 
L 391.992034 241.119791 
L 391.544498 240.214604 
L 392.215802 234.776358 
L 391.544498 233.871171 
L 391.544498 236.593858 
L 391.32073 239.309418 
L 391.544498 240.214604 
L 391.544498 241.119791 
L 391.096962 241.119791 
L 390.425658 240.214604 
L 389.530586 239.309418 
L 388.411746 238.404231 
L 386.842386 239.309418 
L 384.604706 239.309418 
L 381.692739 238.404231 
L 377.888683 240.214604 
L 374.081643 242.930164 
L 369.6033 245.652851 
L 364.453652 244.747664 
L 358.632701 244.747664 
L 346.540278 246.558037 
L 340.27179 244.747664 
L 334.003303 240.214604 
L 328.182351 236.593858 
L 322.585168 233.871171 
L 310.716513 230.250425 
L 304.895562 229.345239 
L 299.07461 229.345239 
L 293.029891 227.527738 
L 286.761403 224.812179 
L 272.431301 219.373932 
L 265.712294 217.563559 
L 259.667574 215.753186 
L 254.294159 214.848 
L 249.368279 214.848 
L 244.218631 213.0305 
L 238.621448 211.220127 
L 233.024264 207.599381 
L 227.874617 204.876694 
L 222.948737 203.066321 
L 218.694162 201.255948 
L 214.215818 197.628074 
L 209.961243 194.912515 
L 198.31934 192.196955 
L 188.467581 192.196955 
L 186.006133 194.007328 
L 184.213005 195.817701 
L 182.870397 194.912515 
L 181.975325 190.379455 
L 181.304021 187.663895 
L 180.408949 189.474268 
L 179.510894 193.102142 
L 179.287126 193.102142 
L 179.734662 192.196955 
L 180.632717 191.284641 
L 181.527789 193.102142 
L 182.646629 197.628074 
L 182.646629 197.628074 
L 182.646629 195.817701 
L 182.870397 194.912515 
L 183.765469 194.912515 
L 184.213005 194.007328 
L 183.989237 193.102142 
L 183.765469 194.007328 
L 183.541701 195.817701 
L 183.541701 195.817701 
L 184.213005 195.817701 
L 183.541701 195.817701 
L 183.317933 194.912515 
L 183.541701 194.007328 
L 183.094165 194.007328 
L 182.646629 194.912515 
L 182.422861 195.817701 
L 182.199093 195.817701 
L 182.422861 196.722888 
L 182.646629 196.722888 
L 182.646629 193.102142 
L 182.422861 192.196955 
L 182.199093 193.102142 
L 181.975325 194.912515 
L 182.646629 197.628074 
L 182.646629 195.817701 
L 182.870397 194.007328 
L 183.765469 191.284641 
L 183.317933 192.196955 
L 182.422861 193.102142 
L 182.199093 193.102142 
L 182.646629 192.196955 
L 182.870397 192.196955 
L 183.094165 193.102142 
L 183.094165 194.007328 
L 181.975325 194.007328 
L 181.527789 193.102142 
L 181.527789 192.196955 
L 181.751557 194.007328 
L 181.751557 196.722888 
L 181.527789 197.628074 
L 181.527789 194.912515 
L 181.751557 192.196955 
L 181.975325 193.102142 
L 182.646629 196.722888 
L 182.199093 196.722888 
L 181.975325 194.912515 
L 182.199093 194.007328 
L 182.422861 194.912515 
L 182.646629 196.722888 
L 182.422861 197.628074 
L 181.975325 198.533261 
L 181.527789 198.533261 
L 181.527789 198.533261 
L 181.304021 197.628074 
L 181.080253 198.533261 
L 180.856485 198.533261 
L 181.080253 197.628074 
L 181.751557 203.066321 
L 181.751557 202.161134 
L 181.304021 201.255948 
L 181.304021 203.066321 
L 181.080253 202.161134 
L 181.080253 201.255948 
L 181.304021 203.066321 
L 181.080253 204.876694 
L 180.856485 203.971507 
L 180.856485 203.066321 
L 180.856485 203.066321 
L 181.304021 203.971507 
L 181.080253 204.876694 
L 180.632717 205.78188 
L 180.632717 204.876694 
L 180.856485 203.066321 
L 180.632717 202.161134 
L 180.182198 202.161134 
L 180.408949 201.255948 
L 180.632717 201.255948 
L 180.182198 201.255948 
L 179.95843 202.161134 
L 179.95843 203.066321 
L 180.182198 203.971507 
L 179.95843 203.971507 
L 179.734662 204.876694 
L 179.734662 204.876694 
L 180.182198 204.876694 
L 180.408949 203.971507 
L 180.408949 203.066321 
L 180.408949 203.066321 
L 180.182198 203.971507 
L 179.95843 203.066321 
L 180.408949 202.161134 
L 180.856485 202.161134 
L 180.856485 202.161134 
L 180.632717 203.066321 
L 180.408949 203.066321 
L 181.080253 205.78188 
L 180.856485 204.876694 
L 180.856485 203.971507 
L 180.632717 203.066321 
L 180.182198 203.066321 
L 180.182198 203.971507 
L 180.856485 203.971507 
L 181.304021 199.445575 
L 181.527789 201.255948 
L 181.527789 204.876694 
L 181.304021 206.694194 
L 180.632717 206.694194 
L 179.734662 204.876694 
L 178.392054 203.971507 
L 176.60191 204.876694 
L 174.585014 206.694194 
L 172.347334 205.78188 
L 169.211599 204.876694 
L 165.183775 207.599381 
L 161.600503 211.220127 
L 158.017232 213.0305 
L 154.210192 213.0305 
L 149.9586 211.220127 
L 145.704025 213.0305 
L 141.449449 217.563559 
L 137.194874 221.191433 
L 124.207379 223.906992 
L 120.403323 225.717365 
L 117.043819 228.440052 
L 109.205972 230.250425 
L 105.178148 232.965985 
L 101.818645 234.776358 
L 99.133429 237.499045 
L 96.668997 238.404231 
L 93.533262 237.499045 
L 87.71231 237.499045 
L 85.250862 241.119791 
L 83.010199 243.842478 
L 80.996287 245.652851 
L 79.429911 246.558037 
L 78.084319 244.747664 
L 76.965479 244.747664 
L 75.622871 245.652851 
L 74.504031 245.652851 
L 74.280263 246.558037 
L 74.951567 248.36841 
L 75.399103 250.178783 
L 75.399103 251.996284 
L 75.175335 252.90147 
L 75.399103 251.996284 
L 75.846639 252.90147 
L 76.517943 255.61703 
L 76.965479 256.522216 
L 77.413015 256.522216 
L 77.636783 257.427403 
L 78.084319 256.522216 
L 78.084319 256.522216 
L 77.860551 256.522216 
L 77.636783 257.427403 
L 77.860551 258.339716 
L 77.860551 264.676022 
L 77.636783 265.588336 
L 78.084319 263.770835 
L 77.636783 264.676022 
L 76.965479 264.676022 
L 76.517943 265.588336 
L 76.294175 266.493522 
L 75.399103 266.493522 
L 75.846639 267.398709 
L 76.070407 270.114268 
L 76.070407 271.019455 
L 75.846639 271.924641 
L 76.741711 268.303895 
L 76.294175 267.398709 
L 75.846639 268.303895 
L 75.622871 270.114268 
L 76.070407 276.457701 
L 76.517943 274.647328 
L 75.622871 278.268074 
L 75.175335 278.268074 
L 75.175335 280.085575 
L 75.399103 280.990761 
L 75.399103 281.895948 
L 75.399103 280.990761 
L 75.622871 280.990761 
L 75.175335 280.990761 
L 74.504031 283.706321 
L 74.280263 282.801134 
L 74.727799 280.990761 
L 75.399103 280.085575 
L 75.622871 280.990761 
L 74.951567 280.990761 
L 74.504031 279.173261 
L 74.951567 278.268074 
L 75.175335 278.268074 
L 74.727799 280.085575 
L 74.504031 281.895948 
L 74.280263 281.895948 
L 74.056495 280.990761 
L 74.280263 280.990761 
L 74.727799 281.895948 
L 74.951567 284.611507 
L 74.727799 285.516694 
L 74.504031 285.516694 
L 74.727799 285.516694 
L 75.399103 286.42188 
L 75.622871 286.42188 
L 75.175335 284.611507 
L 74.727799 284.611507 
L 74.280263 288.239381 
L 74.504031 288.239381 
L 74.280263 288.239381 
L 74.280263 290.049754 
L 74.280263 286.42188 
L 74.951567 289.144567 
L 75.175335 289.144567 
L 74.951567 287.334194 
L 74.504031 287.334194 
L 74.504031 289.144567 
L 74.951567 289.144567 
L 74.727799 287.334194 
L 74.280263 286.42188 
L 73.832727 287.334194 
L 74.280263 289.144567 
L 74.727799 289.144567 
L 75.175335 286.42188 
L 75.175335 290.049754 
L 75.399103 290.95494 
L 75.622871 290.95494 
L 75.399103 290.049754 
L 74.951567 289.144567 
L 74.504031 290.049754 
L 74.504031 290.95494 
L 74.504031 290.95494 
L 74.951567 290.049754 
L 75.175335 289.144567 
L 75.175335 290.049754 
L 75.399103 290.049754 
L 75.399103 290.95494 
L 75.846639 290.95494 
L 75.622871 290.95494 
L 75.846639 291.860127 
L 75.846639 292.765313 
L 75.175335 292.765313 
L 74.727799 293.6705 
L 74.727799 295.488 
L 74.951567 295.488 
L 75.175335 294.582814 
L 75.399103 292.765313 
L 75.399103 290.049754 
L 75.175335 290.049754 
L 74.727799 292.765313 
L 74.727799 293.6705 
L 75.399103 290.95494 
L 75.622871 289.144567 
L 74.951567 293.6705 
L 74.727799 294.582814 
L 74.727799 294.582814 
L 74.951567 292.765313 
L 75.175335 291.860127 
L 75.175335 292.765313 
L 75.399103 293.6705 
L 75.399103 294.582814 
L 75.399103 290.95494 
L 75.399103 291.860127 
L 75.622871 293.6705 
L 75.846639 293.6705 
L 75.399103 293.6705 
L 74.951567 294.582814 
L 74.951567 291.860127 
L 75.175335 290.95494 
L 75.622871 291.860127 
L 75.846639 293.6705 
L 75.622871 294.582814 
L 75.399103 293.6705 
L 75.399103 292.765313 
L 75.622871 291.860127 
L 75.622871 290.95494 
L 75.622871 290.95494 
L 75.399103 291.860127 
L 75.399103 292.765313 
L 75.622871 293.6705 
L 75.399103 293.6705 
L 74.951567 292.765313 
L 74.951567 290.95494 
L 75.175335 290.049754 
L 74.951567 290.049754 
L 74.951567 292.765313 
L 75.175335 295.488 
L 75.399103 295.488 
L 75.399103 293.6705 
L 75.175335 292.765313 
L 75.399103 293.6705 
L 75.846639 290.95494 
L 75.622871 291.860127 
L 75.622871 293.6705 
L 75.846639 293.6705 
L 75.846639 293.6705 
L 75.622871 295.488 
L 74.951567 295.488 
L 74.504031 294.582814 
L 74.951567 294.582814 
L 76.070407 292.765313 
L 77.189247 290.049754 
L 78.084319 287.334194 
L 79.429911 284.611507 
L 81.220055 281.895948 
L 83.681503 277.362888 
L 86.369702 272.836955 
L 89.28167 269.209082 
L 92.861958 263.770835 
L 96.221461 258.339716 
L 99.804733 254.711843 
L 103.385021 251.996284 
L 107.415828 247.463224 
L 115.029907 234.776358 
L 128.461954 205.78188 
L 132.045226 198.533261 
L 135.852266 192.196955 
L 139.432553 188.569082 
L 142.344521 184.948336 
L 145.032721 180.415276 
L 148.613009 173.166657 
L 152.420048 165.918037 
L 155.779552 161.384977 
L 161.600503 151.420798 
L 164.061951 145.077365 
L 166.526383 136.923559 
L 169.435367 127.864567 
L 174.361246 114.272515 
L 177.72075 104.308336 
L 179.063358 98.870089 
L 181.080253 94.33703 
L 183.317933 88.905911 
L 184.660541 83.467664 
L 185.334829 79.839791 
L 185.558597 77.124231 
L 186.006133 74.408672 
L 185.782365 73.496358 
L 185.334829 72.591171 
L 185.108077 72.591171 
L 185.558597 70.780798 
L 185.558597 69.875612 
L 184.436773 69.875612 
L 183.317933 71.685985 
L 182.870397 74.408672 
L 182.422861 76.219045 
L 181.975325 76.219045 
L 181.080253 81.657291 
L 180.408949 82.562478 
L 179.95843 81.657291 
L 179.95843 83.467664 
L 180.632717 84.372851 
L 180.632717 86.183224 
L 180.408949 88.905911 
L 180.408949 93.431843 
L 180.856485 94.33703 
L 181.080253 92.526657 
L 180.856485 89.811097 
L 180.182198 88.905911 
L 179.510894 90.716284 
L 179.510894 92.526657 
L 179.734662 93.431843 
L 180.182198 92.526657 
L 180.408949 89.811097 
L 179.95843 87.993597 
L 179.510894 88.905911 
L 178.83959 91.62147 
L 178.83959 89.811097 
L 179.063358 87.08841 
L 179.287126 86.183224 
L 179.287126 86.183224 
L 179.063358 86.183224 
L 178.392054 87.08841 
L 178.615822 88.905911 
L 178.83959 89.811097 
L 178.83959 89.811097 
L 178.615822 89.811097 
L 178.392054 87.08841 
L 178.392054 83.467664 
L 178.615822 82.562478 
L 178.615822 84.372851 
L 178.615822 83.467664 
L 178.83959 82.562478 
L 178.83959 83.467664 
L 178.615822 84.372851 
L 179.063358 84.372851 
L 179.510894 83.467664 
L 179.510894 81.657291 
L 179.063358 79.839791 
L 178.83959 80.744977 
L 178.83959 80.744977 
L 179.510894 81.657291 
L 179.734662 82.562478 
L 179.734662 83.467664 
L 179.510894 83.467664 
L 179.287126 82.562478 
L 179.063358 79.839791 
L 178.615822 79.839791 
L 178.83959 80.744977 
L 179.063358 80.744977 
L 179.063358 79.839791 
L 178.83959 79.839791 
L 178.392054 80.744977 
L 177.72075 80.744977 
L 177.72075 78.029418 
L 178.168286 78.934604 
L 178.392054 78.934604 
L 177.944518 78.934604 
L 177.944518 78.934604 
L 177.944518 78.029418 
L 177.496982 78.029418 
L 176.825678 73.496358 
L 176.378142 75.313858 
L 176.378142 76.219045 
L 176.825678 76.219045 
L 177.273214 75.313858 
L 177.496982 73.496358 
L 177.496982 73.496358 
L 177.049446 74.408672 
L 176.60191 74.408672 
L 176.60191 71.685985 
L 176.60191 73.496358 
L 176.378142 74.408672 
L 176.378142 75.313858 
L 176.60191 75.313858 
L 176.825678 74.408672 
L 176.378142 72.591171 
L 176.378142 71.685985 
L 176.378142 71.685985 
L 176.825678 71.685985 
L 176.825678 72.591171 
L 176.378142 72.591171 
L 176.378142 73.496358 
L 175.930606 71.685985 
L 175.706838 69.875612 
L 176.60191 69.875612 
L 176.378142 71.685985 
L 175.706838 72.591171 
L 175.259302 71.685985 
L 175.03255 69.875612 
L 175.03255 69.875612 
L 175.259302 69.875612 
L 175.706838 70.780798 
L 175.706838 69.875612 
L 175.259302 69.875612 
L 175.03255 70.780798 
L 175.259302 71.685985 
L 175.259302 72.591171 
L 174.808782 74.408672 
L 174.808782 72.591171 
L 175.03255 72.591171 
L 174.808782 71.685985 
L 174.808782 66.247738 
L 174.137478 63.532179 
L 175.03255 67.160052 
L 175.03255 68.065239 
L 174.585014 67.160052 
L 174.361246 66.247738 
L 175.259302 68.970425 
L 174.361246 68.970425 
L 174.361246 68.970425 
L 174.137478 70.780798 
L 174.361246 69.875612 
L 174.808782 69.875612 
L 175.03255 68.970425 
L 174.585014 70.780798 
L 174.137478 67.160052 
L 174.361246 68.970425 
L 174.585014 68.970425 
L 174.137478 66.247738 
L 173.689942 64.437365 
L 173.689942 63.532179 
L 173.91371 65.342552 
L 174.361246 67.160052 
L 174.361246 68.065239 
L 174.361246 67.160052 
L 174.585014 66.247738 
L 173.91371 65.342552 
L 173.466174 64.437365 
L 173.689942 64.437365 
L 173.91371 66.247738 
L 173.689942 67.160052 
L 173.689942 66.247738 
L 174.361246 65.342552 
L 174.808782 67.160052 
L 174.585014 68.065239 
L 174.137478 63.532179 
L 173.91371 62.626992 
L 173.689942 64.437365 
L 173.689942 66.247738 
L 173.91371 67.160052 
L 173.91371 65.342552 
L 173.689942 64.437365 
L 173.689942 67.160052 
L 173.689942 63.532179 
L 173.91371 62.626992 
L 173.91371 63.532179 
L 173.689942 64.437365 
L 173.242406 64.437365 
L 173.242406 63.532179 
L 173.466174 64.437365 
L 173.91371 68.970425 
L 174.361246 65.342552 
L 174.137478 66.247738 
L 173.91371 66.247738 
L 173.91371 66.247738 
L 173.689942 67.160052 
L 172.571102 67.160052 
L 172.571102 66.247738 
L 172.79487 65.342552 
L 173.689942 63.532179 
L 173.91371 62.626992 
L 173.689942 61.721806 
L 173.242406 62.626992 
L 173.242406 70.780798 
L 173.018638 69.875612 
L 173.018638 66.247738 
L 173.466174 64.437365 
L 173.242406 64.437365 
L 172.79487 62.626992 
L 172.79487 64.437365 
L 172.571102 63.532179 
L 173.018638 63.532179 
L 173.018638 63.532179 
L 173.242406 64.437365 
L 173.018638 63.532179 
L 172.79487 60.816619 
L 173.018638 60.816619 
L 173.242406 61.721806 
L 173.242406 63.532179 
L 173.689942 61.721806 
L 173.466174 58.999119 
L 172.79487 58.999119 
L 172.123566 59.911433 
L 172.123566 60.816619 
L 171.899798 62.626992 
L 171.452262 64.437365 
L 171.452262 63.532179 
L 171.899798 61.721806 
L 172.347334 60.816619 
L 172.571102 61.721806 
L 171.899798 61.721806 
L 171.67603 60.816619 
L 171.899798 60.816619 
L 172.123566 61.721806 
L 172.123566 62.626992 
L 172.347334 61.721806 
L 172.571102 58.999119 
L 172.347334 56.283559 
L 172.123566 57.188746 
L 171.899798 59.911433 
L 171.899798 59.911433 
L 173.689942 59.911433 
L 175.03255 58.999119 
L 177.049446 56.283559 
L 179.510894 53.568 
L 184.660541 55.378373 
L 187.348741 54.473186 
L 190.484476 55.378373 
L 193.840996 58.093932 
L 200.560003 59.911433 
L 207.276027 58.093932 
L 210.185011 59.911433 
L 213.096978 63.532179 
L 216.68025 67.160052 
L 220.03677 72.591171 
L 222.501201 76.219045 
L 224.962649 80.744977 
L 228.098385 84.372851 
L 231.457888 87.993597 
L 234.366872 90.716284 
L 237.27884 92.526657 
L 240.187824 93.431843 
L 243.099792 95.242216 
L 245.785007 96.15453 
L 248.249439 97.964903 
L 252.056479 102.490835 
L 253.175319 103.396022 
L 254.741695 103.396022 
L 255.860535 104.308336 
L 257.206126 106.118709 
L 258.101198 108.834268 
L 258.101198 109.739455 
L 257.87743 109.739455 
L 257.653662 111.556955 
L 257.429894 112.462142 
L 256.75859 110.644641 
L 255.636767 109.739455 
L 254.965463 111.556955 
L 254.070391 118.805575 
L 253.175319 118.805575 
L 251.385175 121.521134 
L 250.710887 121.521134 
L 250.263351 122.426321 
L 250.039583 123.331507 
L 250.039583 123.331507 
L 250.263351 124.236694 
L 250.487119 124.236694 
L 250.487119 127.864567 
L 249.815815 132.3905 
L 250.039583 132.3905 
L 250.263351 131.485313 
L 249.815815 131.485313 
L 249.592047 132.3905 
L 249.592047 133.302814 
L 249.144511 135.113186 
L 249.144511 136.018373 
L 249.144511 136.018373 
L 249.368279 135.113186 
L 249.368279 136.018373 
L 248.920743 136.018373 
L 248.920743 134.208 
L 248.696975 133.302814 
L 248.473207 133.302814 
L 248.249439 134.208 
L 248.249439 137.828746 
L 247.801903 136.923559 
L 247.578135 136.923559 
L 247.354367 137.828746 
L 247.130599 137.828746 
L 247.130599 136.923559 
L 247.354367 137.828746 
L 247.354367 139.639119 
L 247.578135 139.639119 
L 247.578135 140.551433 
L 247.130599 138.733932 
L 246.906831 138.733932 
L 246.906831 142.361806 
L 247.130599 142.361806 
L 247.354367 141.456619 
L 247.578135 141.456619 
L 247.354367 139.639119 
L 246.235527 139.639119 
L 246.235527 139.639119 
L 246.235527 138.733932 
L 246.008775 139.639119 
L 246.008775 144.172179 
L 245.785007 145.982552 
L 245.337471 147.800052 
L 245.561239 146.887738 
L 246.008775 145.982552 
L 246.235527 145.077365 
L 246.459295 145.077365 
L 246.683063 145.982552 
L 246.906831 147.800052 
L 246.683063 148.705239 
L 245.785007 150.515612 
L 245.337471 150.515612 
L 245.337471 150.515612 
L 245.337471 154.136358 
L 244.889935 152.325985 
L 244.889935 152.325985 
L 245.113703 152.325985 
L 245.113703 155.048672 
L 245.561239 154.136358 
L 245.561239 152.325985 
L 244.889935 151.420798 
L 244.442399 151.420798 
L 244.666167 151.420798 
L 245.113703 150.515612 
L 245.337471 148.705239 
L 245.113703 148.705239 
L 244.889935 151.420798 
L 245.113703 153.231171 
L 245.113703 153.231171 
L 244.218631 153.231171 
L 243.771095 152.325985 
L 244.218631 149.610425 
L 244.666167 148.705239 
L 244.889935 150.515612 
L 244.889935 153.231171 
L 244.889935 152.325985 
L 244.666167 150.515612 
L 244.889935 150.515612 
L 244.889935 155.953858 
L 244.889935 154.136358 
L 244.442399 155.048672 
L 244.218631 156.859045 
L 244.218631 158.669418 
L 243.994863 158.669418 
L 243.099792 156.859045 
L 243.32356 157.764231 
L 243.994863 158.669418 
L 244.218631 157.764231 
L 244.442399 157.764231 
L 244.666167 158.669418 
L 244.218631 156.859045 
L 243.994863 157.764231 
L 243.994863 158.669418 
L 244.889935 156.859045 
L 245.113703 157.764231 
L 244.889935 158.669418 
L 243.994863 158.669418 
L 243.994863 159.574604 
L 244.218631 159.574604 
L 243.771095 158.669418 
L 243.32356 155.953858 
L 243.547327 157.764231 
L 243.547327 161.384977 
L 243.099792 162.297291 
L 242.652256 162.297291 
L 242.876024 163.202478 
L 243.547327 163.202478 
L 243.547327 161.384977 
L 243.771095 160.479791 
L 243.771095 162.297291 
L 243.547327 164.107664 
L 242.876024 164.107664 
L 243.099792 165.918037 
L 243.547327 167.72841 
L 243.994863 167.72841 
L 243.547327 165.918037 
L 242.876024 168.633597 
L 242.876024 170.451097 
L 242.876024 168.633597 
L 243.099792 164.107664 
L 242.876024 163.202478 
L 242.876024 168.633597 
L 243.099792 169.538783 
L 242.20472 169.538783 
L 242.652256 168.633597 
L 243.32356 169.538783 
L 243.771095 171.356284 
L 243.32356 172.26147 
L 242.652256 171.356284 
L 242.20472 170.451097 
L 241.980952 170.451097 
L 241.757184 171.356284 
L 242.20472 172.26147 
L 242.428488 171.356284 
L 241.757184 168.633597 
L 241.980952 169.538783 
L 241.980952 170.451097 
L 241.533416 165.918037 
L 240.859128 168.633597 
L 240.859128 169.538783 
L 241.757184 167.72841 
L 241.757184 166.823224 
L 241.980952 167.72841 
L 241.757184 168.633597 
L 241.309648 168.633597 
L 241.309648 167.72841 
L 241.533416 168.633597 
L 241.757184 171.356284 
L 241.533416 172.26147 
L 241.08588 173.166657 
L 241.309648 174.071843 
L 241.757184 174.97703 
L 241.757184 176.787403 
L 241.533416 175.882216 
L 241.980952 171.356284 
L 241.757184 173.166657 
L 240.411592 174.97703 
L 240.187824 174.071843 
L 240.411592 174.97703 
L 240.411592 176.787403 
L 241.309648 173.166657 
L 241.757184 172.26147 
L 241.757184 174.071843 
L 241.309648 177.699716 
L 241.309648 182.225649 
L 240.859128 182.225649 
L 241.08588 182.225649 
L 241.309648 180.415276 
L 240.859128 178.604903 
L 241.757184 178.604903 
L 241.533416 179.510089 
L 241.08588 179.510089 
L 241.309648 178.604903 
L 241.533416 179.510089 
L 241.533416 183.130835 
L 241.533416 182.225649 
L 241.757184 182.225649 
L 241.757184 184.036022 
L 241.08588 184.948336 
L 240.187824 184.948336 
L 240.63536 186.758709 
L 240.63536 186.758709 
L 240.63536 187.663895 
L 240.63536 186.758709 
L 240.859128 185.853522 
L 241.08588 187.663895 
L 240.859128 191.284641 
L 240.63536 186.758709 
L 240.63536 183.130835 
L 240.859128 184.036022 
L 240.859128 184.036022 
L 241.08588 183.130835 
L 241.533416 184.036022 
L 241.533416 184.948336 
L 241.08588 184.948336 
L 240.63536 183.130835 
L 240.63536 182.225649 
L 240.63536 182.225649 
L 240.411592 183.130835 
L 240.411592 188.569082 
L 240.859128 188.569082 
L 240.859128 189.474268 
L 240.859128 188.569082 
L 240.187824 184.948336 
L 240.187824 186.758709 
L 240.859128 186.758709 
L 240.859128 187.663895 
L 240.411592 188.569082 
L 239.740288 188.569082 
L 239.740288 189.474268 
L 239.964056 191.284641 
L 239.51652 188.569082 
L 239.51652 188.569082 
L 239.51652 189.474268 
L 239.740288 190.379455 
L 239.51652 190.379455 
L 239.51652 188.569082 
L 241.309648 188.569082 
L 241.533416 187.663895 
L 240.859128 188.569082 
L 239.964056 191.284641 
L 239.51652 192.196955 
L 239.292752 191.284641 
L 239.51652 190.379455 
L 239.740288 191.284641 
L 239.740288 192.196955 
L 239.964056 191.284641 
L 240.187824 191.284641 
L 240.187824 195.817701 
L 239.964056 196.722888 
L 240.187824 195.817701 
L 240.411592 194.007328 
L 240.411592 192.196955 
L 239.964056 194.912515 
L 240.63536 194.912515 
L 240.859128 194.007328 
L 240.63536 193.102142 
L 240.187824 193.102142 
L 239.964056 194.007328 
L 239.740288 194.007328 
L 239.292752 193.102142 
L 239.068984 192.196955 
L 239.51652 193.102142 
L 239.740288 194.007328 
L 239.964056 194.007328 
L 239.964056 192.196955 
L 239.740288 191.284641 
L 239.964056 192.196955 
L 240.187824 192.196955 
L 239.740288 192.196955 
L 239.51652 193.102142 
L 239.51652 194.912515 
L 239.740288 194.912515 
L 240.187824 194.007328 
L 240.187824 193.102142 
L 239.964056 193.102142 
L 239.964056 191.284641 
L 239.964056 192.196955 
L 239.740288 194.912515 
L 239.740288 196.722888 
L 239.740288 196.722888 
L 240.187824 191.284641 
L 240.63536 190.379455 
L 240.63536 194.912515 
L 240.411592 195.817701 
L 239.964056 196.722888 
L 239.51652 196.722888 
L 239.51652 197.628074 
L 239.964056 197.628074 
L 239.964056 196.722888 
L 240.187824 194.912515 
L 240.187824 194.912515 
L 239.964056 194.912515 
L 239.740288 195.817701 
L 239.964056 194.912515 
L 239.964056 194.007328 
L 240.187824 191.284641 
L 240.63536 191.284641 
L 240.859128 192.196955 
L 240.859128 194.007328 
L 241.08588 194.912515 
L 240.411592 194.912515 
L 239.964056 195.817701 
L 239.740288 195.817701 
L 239.964056 195.817701 
L 240.187824 196.722888 
L 240.411592 196.722888 
L 240.411592 195.817701 
L 240.187824 194.007328 
L 239.740288 194.007328 
L 240.411592 194.007328 
L 240.411592 194.912515 
L 240.187824 196.722888 
L 239.964056 196.722888 
L 239.964056 194.007328 
L 239.740288 194.007328 
L 239.740288 193.102142 
L 240.63536 193.102142 
L 240.187824 194.007328 
L 239.964056 196.722888 
L 240.411592 196.722888 
L 240.411592 194.007328 
L 239.964056 192.196955 
L 239.740288 194.912515 
L 239.740288 194.007328 
L 239.964056 194.007328 
L 239.740288 194.007328 
L 239.964056 193.102142 
L 239.740288 193.102142 
L 239.292752 194.912515 
L 239.292752 195.817701 
L 239.292752 195.817701 
L 239.51652 196.722888 
L 239.51652 197.628074 
L 239.51652 197.628074 
L 239.740288 197.628074 
L 239.740288 199.445575 
L 239.51652 199.445575 
L 239.068984 196.722888 
L 239.068984 194.912515 
L 239.292752 194.007328 
L 239.51652 194.007328 
L 239.51652 194.007328 
L 239.51652 190.379455 
L 239.292752 191.284641 
L 239.292752 194.912515 
L 239.068984 197.628074 
L 239.068984 197.628074 
L 239.51652 195.817701 
L 239.740288 194.007328 
L 240.63536 192.196955 
L 240.63536 191.284641 
L 240.187824 191.284641 
L 239.51652 190.379455 
L 238.845216 190.379455 
L 238.621448 191.284641 
L 239.068984 191.284641 
L 239.292752 190.379455 
L 239.740288 190.379455 
L 240.187824 189.474268 
L 240.187824 189.474268 
L 239.51652 189.474268 
L 239.292752 187.663895 
L 239.292752 188.569082 
L 239.292752 192.196955 
L 239.068984 195.817701 
L 239.292752 195.817701 
L 239.292752 188.569082 
L 239.740288 189.474268 
L 239.964056 190.379455 
L 239.964056 189.474268 
L 239.740288 189.474268 
L 239.51652 191.284641 
L 239.51652 194.007328 
L 239.740288 194.912515 
L 239.964056 194.912515 
L 239.740288 194.007328 
L 239.292752 187.663895 
L 239.51652 188.569082 
L 239.964056 188.569082 
L 240.187824 187.663895 
L 239.964056 187.663895 
L 239.740288 188.569082 
L 239.51652 187.663895 
L 239.740288 185.853522 
L 239.964056 186.758709 
L 239.51652 188.569082 
L 239.068984 188.569082 
L 238.845216 187.663895 
L 239.068984 187.663895 
L 238.845216 188.569082 
L 238.621448 186.758709 
L 239.068984 186.758709 
L 239.51652 187.663895 
L 239.51652 188.569082 
L 239.292752 188.569082 
L 239.292752 188.569082 
L 239.51652 189.474268 
L 239.51652 186.758709 
L 239.740288 185.853522 
L 239.51652 185.853522 
L 239.51652 186.758709 
L 239.740288 189.474268 
L 240.187824 191.284641 
L 240.187824 191.284641 
L 240.187824 189.474268 
L 239.964056 188.569082 
L 239.740288 189.474268 
L 239.740288 191.284641 
L 239.740288 191.284641 
L 239.292752 191.284641 
L 239.292752 189.474268 
L 239.292752 189.474268 
" style="fill:none;stroke:#1f77b4;stroke-linecap:square;stroke-width:1.5;"/>
   </g>
   <g id="matplotlib.axis_1">
    <g id="xtick_1">
     <g id="line2d_2">
      <defs>
       <path d="M 0 0 
L 0 3.5 
" id="me6aee0c22f" style="stroke:#000000;stroke-width:0.8;"/>
      </defs>
      <g>
       <use style="stroke:#000000;stroke-width:0.8;" x="106.574461" xlink:href="#me6aee0c22f" y="307.584"/>
      </g>
     </g>
     <g id="text_1">
      <!-- −200 -->
      <defs>
       <path d="M 10.59375 35.5 
L 73.1875 35.5 
L 73.1875 27.203125 
L 10.59375 27.203125 
z
" id="DejaVuSans-8722"/>
       <path d="M 19.1875 8.296875 
L 53.609375 8.296875 
L 53.609375 0 
L 7.328125 0 
L 7.328125 8.296875 
Q 12.9375 14.109375 22.625 23.890625 
Q 32.328125 33.6875 34.8125 36.53125 
Q 39.546875 41.84375 41.421875 45.53125 
Q 43.3125 49.21875 43.3125 52.78125 
Q 43.3125 58.59375 39.234375 62.25 
Q 35.15625 65.921875 28.609375 65.921875 
Q 23.96875 65.921875 18.8125 64.3125 
Q 13.671875 62.703125 7.8125 59.421875 
L 7.8125 69.390625 
Q 13.765625 71.78125 18.9375 73 
Q 24.125 74.21875 28.421875 74.21875 
Q 39.75 74.21875 46.484375 68.546875 
Q 53.21875 62.890625 53.21875 53.421875 
Q 53.21875 48.921875 51.53125 44.890625 
Q 49.859375 40.875 45.40625 35.40625 
Q 44.1875 33.984375 37.640625 27.21875 
Q 31.109375 20.453125 19.1875 8.296875 
z
" id="DejaVuSans-50"/>
       <path d="M 31.78125 66.40625 
Q 24.171875 66.40625 20.328125 58.90625 
Q 16.5 51.421875 16.5 36.375 
Q 16.5 21.390625 20.328125 13.890625 
Q 24.171875 6.390625 31.78125 6.390625 
Q 39.453125 6.390625 43.28125 13.890625 
Q 47.125 21.390625 47.125 36.375 
Q 47.125 51.421875 43.28125 58.90625 
Q 39.453125 66.40625 31.78125 66.40625 
z
M 31.78125 74.21875 
Q 44.046875 74.21875 50.515625 64.515625 
Q 56.984375 54.828125 56.984375 36.375 
Q 56.984375 17.96875 50.515625 8.265625 
Q 44.046875 -1.421875 31.78125 -1.421875 
Q 19.53125 -1.421875 13.0625 8.265625 
Q 6.59375 17.96875 6.59375 36.375 
Q 6.59375 54.828125 13.0625 64.515625 
Q 19.53125 74.21875 31.78125 74.21875 
z
" id="DejaVuSans-48"/>
      </defs>
      <g transform="translate(92.840867 322.182437)scale(0.1 -0.1)">
       <use xlink:href="#DejaVuSans-8722"/>
       <use x="83.789062" xlink:href="#DejaVuSans-50"/>
       <use x="147.412109" xlink:href="#DejaVuSans-48"/>
       <use x="211.035156" xlink:href="#DejaVuSans-48"/>
      </g>
     </g>
    </g>
    <g id="xtick_2">
     <g id="line2d_3">
      <g>
       <use style="stroke:#000000;stroke-width:0.8;" x="166.245927" xlink:href="#me6aee0c22f" y="307.584"/>
      </g>
     </g>
     <g id="text_2">
      <!-- 0 -->
      <g transform="translate(163.064677 322.182437)scale(0.1 -0.1)">
       <use xlink:href="#DejaVuSans-48"/>
      </g>
     </g>
    </g>
    <g id="xtick_3">
     <g id="line2d_4">
      <g>
       <use style="stroke:#000000;stroke-width:0.8;" x="225.917393" xlink:href="#me6aee0c22f" y="307.584"/>
      </g>
     </g>
     <g id="text_3">
      <!-- 200 -->
      <g transform="translate(216.373643 322.182437)scale(0.1 -0.1)">
       <use xlink:href="#DejaVuSans-50"/>
       <use x="63.623047" xlink:href="#DejaVuSans-48"/>
       <use x="127.246094" xlink:href="#DejaVuSans-48"/>
      </g>
     </g>
    </g>
    <g id="xtick_4">
     <g id="line2d_5">
      <g>
       <use style="stroke:#000000;stroke-width:0.8;" x="285.588859" xlink:href="#me6aee0c22f" y="307.584"/>
      </g>
     </g>
     <g id="text_4">
      <!-- 400 -->
      <defs>
       <path d="M 37.796875 64.3125 
L 12.890625 25.390625 
L 37.796875 25.390625 
z
M 35.203125 72.90625 
L 47.609375 72.90625 
L 47.609375 25.390625 
L 58.015625 25.390625 
L 58.015625 17.1875 
L 47.609375 17.1875 
L 47.609375 0 
L 37.796875 0 
L 37.796875 17.1875 
L 4.890625 17.1875 
L 4.890625 26.703125 
z
" id="DejaVuSans-52"/>
      </defs>
      <g transform="translate(276.045109 322.182437)scale(0.1 -0.1)">
       <use xlink:href="#DejaVuSans-52"/>
       <use x="63.623047" xlink:href="#DejaVuSans-48"/>
       <use x="127.246094" xlink:href="#DejaVuSans-48"/>
      </g>
     </g>
    </g>
    <g id="xtick_5">
     <g id="line2d_6">
      <g>
       <use style="stroke:#000000;stroke-width:0.8;" x="345.260325" xlink:href="#me6aee0c22f" y="307.584"/>
      </g>
     </g>
     <g id="text_5">
      <!-- 600 -->
      <defs>
       <path d="M 33.015625 40.375 
Q 26.375 40.375 22.484375 35.828125 
Q 18.609375 31.296875 18.609375 23.390625 
Q 18.609375 15.53125 22.484375 10.953125 
Q 26.375 6.390625 33.015625 6.390625 
Q 39.65625 6.390625 43.53125 10.953125 
Q 47.40625 15.53125 47.40625 23.390625 
Q 47.40625 31.296875 43.53125 35.828125 
Q 39.65625 40.375 33.015625 40.375 
z
M 52.59375 71.296875 
L 52.59375 62.3125 
Q 48.875 64.0625 45.09375 64.984375 
Q 41.3125 65.921875 37.59375 65.921875 
Q 27.828125 65.921875 22.671875 59.328125 
Q 17.53125 52.734375 16.796875 39.40625 
Q 19.671875 43.65625 24.015625 45.921875 
Q 28.375 48.1875 33.59375 48.1875 
Q 44.578125 48.1875 50.953125 41.515625 
Q 57.328125 34.859375 57.328125 23.390625 
Q 57.328125 12.15625 50.6875 5.359375 
Q 44.046875 -1.421875 33.015625 -1.421875 
Q 20.359375 -1.421875 13.671875 8.265625 
Q 6.984375 17.96875 6.984375 36.375 
Q 6.984375 53.65625 15.1875 63.9375 
Q 23.390625 74.21875 37.203125 74.21875 
Q 40.921875 74.21875 44.703125 73.484375 
Q 48.484375 72.75 52.59375 71.296875 
z
" id="DejaVuSans-54"/>
      </defs>
      <g transform="translate(335.716575 322.182437)scale(0.1 -0.1)">
       <use xlink:href="#DejaVuSans-54"/>
       <use x="63.623047" xlink:href="#DejaVuSans-48"/>
       <use x="127.246094" xlink:href="#DejaVuSans-48"/>
      </g>
     </g>
    </g>
    <g id="xtick_6">
     <g id="line2d_7">
      <g>
       <use style="stroke:#000000;stroke-width:0.8;" x="404.931791" xlink:href="#me6aee0c22f" y="307.584"/>
      </g>
     </g>
     <g id="text_6">
      <!-- 800 -->
      <defs>
       <path d="M 31.78125 34.625 
Q 24.75 34.625 20.71875 30.859375 
Q 16.703125 27.09375 16.703125 20.515625 
Q 16.703125 13.921875 20.71875 10.15625 
Q 24.75 6.390625 31.78125 6.390625 
Q 38.8125 6.390625 42.859375 10.171875 
Q 46.921875 13.96875 46.921875 20.515625 
Q 46.921875 27.09375 42.890625 30.859375 
Q 38.875 34.625 31.78125 34.625 
z
M 21.921875 38.8125 
Q 15.578125 40.375 12.03125 44.71875 
Q 8.5 49.078125 8.5 55.328125 
Q 8.5 64.0625 14.71875 69.140625 
Q 20.953125 74.21875 31.78125 74.21875 
Q 42.671875 74.21875 48.875 69.140625 
Q 55.078125 64.0625 55.078125 55.328125 
Q 55.078125 49.078125 51.53125 44.71875 
Q 48 40.375 41.703125 38.8125 
Q 48.828125 37.15625 52.796875 32.3125 
Q 56.78125 27.484375 56.78125 20.515625 
Q 56.78125 9.90625 50.3125 4.234375 
Q 43.84375 -1.421875 31.78125 -1.421875 
Q 19.734375 -1.421875 13.25 4.234375 
Q 6.78125 9.90625 6.78125 20.515625 
Q 6.78125 27.484375 10.78125 32.3125 
Q 14.796875 37.15625 21.921875 38.8125 
z
M 18.3125 54.390625 
Q 18.3125 48.734375 21.84375 45.5625 
Q 25.390625 42.390625 31.78125 42.390625 
Q 38.140625 42.390625 41.71875 45.5625 
Q 45.3125 48.734375 45.3125 54.390625 
Q 45.3125 60.0625 41.71875 63.234375 
Q 38.140625 66.40625 31.78125 66.40625 
Q 25.390625 66.40625 21.84375 63.234375 
Q 18.3125 60.0625 18.3125 54.390625 
z
" id="DejaVuSans-56"/>
      </defs>
      <g transform="translate(395.388041 322.182437)scale(0.1 -0.1)">
       <use xlink:href="#DejaVuSans-56"/>
       <use x="63.623047" xlink:href="#DejaVuSans-48"/>
       <use x="127.246094" xlink:href="#DejaVuSans-48"/>
      </g>
     </g>
    </g>
   </g>
   <g id="matplotlib.axis_2">
    <g id="ytick_1">
     <g id="line2d_8">
      <defs>
       <path d="M 0 0 
L -3.5 0 
" id="m5aa297ef64" style="stroke:#000000;stroke-width:0.8;"/>
      </defs>
      <g>
       <use style="stroke:#000000;stroke-width:0.8;" x="57.6" xlink:href="#m5aa297ef64" y="273.114926"/>
      </g>
     </g>
     <g id="text_7">
      <!-- −450 -->
      <defs>
       <path d="M 10.796875 72.90625 
L 49.515625 72.90625 
L 49.515625 64.59375 
L 19.828125 64.59375 
L 19.828125 46.734375 
Q 21.96875 47.46875 24.109375 47.828125 
Q 26.265625 48.1875 28.421875 48.1875 
Q 40.625 48.1875 47.75 41.5 
Q 54.890625 34.8125 54.890625 23.390625 
Q 54.890625 11.625 47.5625 5.09375 
Q 40.234375 -1.421875 26.90625 -1.421875 
Q 22.3125 -1.421875 17.546875 -0.640625 
Q 12.796875 0.140625 7.71875 1.703125 
L 7.71875 11.625 
Q 12.109375 9.234375 16.796875 8.0625 
Q 21.484375 6.890625 26.703125 6.890625 
Q 35.15625 6.890625 40.078125 11.328125 
Q 45.015625 15.765625 45.015625 23.390625 
Q 45.015625 31 40.078125 35.4375 
Q 35.15625 39.890625 26.703125 39.890625 
Q 22.75 39.890625 18.8125 39.015625 
Q 14.890625 38.140625 10.796875 36.28125 
z
" id="DejaVuSans-53"/>
      </defs>
      <g transform="translate(23.132812 276.914145)scale(0.1 -0.1)">
       <use xlink:href="#DejaVuSans-8722"/>
       <use x="83.789062" xlink:href="#DejaVuSans-52"/>
       <use x="147.412109" xlink:href="#DejaVuSans-53"/>
       <use x="211.035156" xlink:href="#DejaVuSans-48"/>
      </g>
     </g>
    </g>
    <g id="ytick_2">
     <g id="line2d_9">
      <g>
       <use style="stroke:#000000;stroke-width:0.8;" x="57.6" xlink:href="#m5aa297ef64" y="237.477662"/>
      </g>
     </g>
     <g id="text_8">
      <!-- −400 -->
      <g transform="translate(23.132812 241.276881)scale(0.1 -0.1)">
       <use xlink:href="#DejaVuSans-8722"/>
       <use x="83.789062" xlink:href="#DejaVuSans-52"/>
       <use x="147.412109" xlink:href="#DejaVuSans-48"/>
       <use x="211.035156" xlink:href="#DejaVuSans-48"/>
      </g>
     </g>
    </g>
    <g id="ytick_3">
     <g id="line2d_10">
      <g>
       <use style="stroke:#000000;stroke-width:0.8;" x="57.6" xlink:href="#m5aa297ef64" y="201.840399"/>
      </g>
     </g>
     <g id="text_9">
      <!-- −350 -->
      <defs>
       <path d="M 40.578125 39.3125 
Q 47.65625 37.796875 51.625 33 
Q 55.609375 28.21875 55.609375 21.1875 
Q 55.609375 10.40625 48.1875 4.484375 
Q 40.765625 -1.421875 27.09375 -1.421875 
Q 22.515625 -1.421875 17.65625 -0.515625 
Q 12.796875 0.390625 7.625 2.203125 
L 7.625 11.71875 
Q 11.71875 9.328125 16.59375 8.109375 
Q 21.484375 6.890625 26.8125 6.890625 
Q 36.078125 6.890625 40.9375 10.546875 
Q 45.796875 14.203125 45.796875 21.1875 
Q 45.796875 27.640625 41.28125 31.265625 
Q 36.765625 34.90625 28.71875 34.90625 
L 20.21875 34.90625 
L 20.21875 43.015625 
L 29.109375 43.015625 
Q 36.375 43.015625 40.234375 45.921875 
Q 44.09375 48.828125 44.09375 54.296875 
Q 44.09375 59.90625 40.109375 62.90625 
Q 36.140625 65.921875 28.71875 65.921875 
Q 24.65625 65.921875 20.015625 65.03125 
Q 15.375 64.15625 9.8125 62.3125 
L 9.8125 71.09375 
Q 15.4375 72.65625 20.34375 73.4375 
Q 25.25 74.21875 29.59375 74.21875 
Q 40.828125 74.21875 47.359375 69.109375 
Q 53.90625 64.015625 53.90625 55.328125 
Q 53.90625 49.265625 50.4375 45.09375 
Q 46.96875 40.921875 40.578125 39.3125 
z
" id="DejaVuSans-51"/>
      </defs>
      <g transform="translate(23.132812 205.639618)scale(0.1 -0.1)">
       <use xlink:href="#DejaVuSans-8722"/>
       <use x="83.789062" xlink:href="#DejaVuSans-51"/>
       <use x="147.412109" xlink:href="#DejaVuSans-53"/>
       <use x="211.035156" xlink:href="#DejaVuSans-48"/>
      </g>
     </g>
    </g>
    <g id="ytick_4">
     <g id="line2d_11">
      <g>
       <use style="stroke:#000000;stroke-width:0.8;" x="57.6" xlink:href="#m5aa297ef64" y="166.203135"/>
      </g>
     </g>
     <g id="text_10">
      <!-- −300 -->
      <g transform="translate(23.132812 170.002354)scale(0.1 -0.1)">
       <use xlink:href="#DejaVuSans-8722"/>
       <use x="83.789062" xlink:href="#DejaVuSans-51"/>
       <use x="147.412109" xlink:href="#DejaVuSans-48"/>
       <use x="211.035156" xlink:href="#DejaVuSans-48"/>
      </g>
     </g>
    </g>
    <g id="ytick_5">
     <g id="line2d_12">
      <g>
       <use style="stroke:#000000;stroke-width:0.8;" x="57.6" xlink:href="#m5aa297ef64" y="130.565872"/>
      </g>
     </g>
     <g id="text_11">
      <!-- −250 -->
      <g transform="translate(23.132812 134.36509)scale(0.1 -0.1)">
       <use xlink:href="#DejaVuSans-8722"/>
       <use x="83.789062" xlink:href="#DejaVuSans-50"/>
       <use x="147.412109" xlink:href="#DejaVuSans-53"/>
       <use x="211.035156" xlink:href="#DejaVuSans-48"/>
      </g>
     </g>
    </g>
    <g id="ytick_6">
     <g id="line2d_13">
      <g>
       <use style="stroke:#000000;stroke-width:0.8;" x="57.6" xlink:href="#m5aa297ef64" y="94.928608"/>
      </g>
     </g>
     <g id="text_12">
      <!-- −200 -->
      <g transform="translate(23.132812 98.727827)scale(0.1 -0.1)">
       <use xlink:href="#DejaVuSans-8722"/>
       <use x="83.789062" xlink:href="#DejaVuSans-50"/>
       <use x="147.412109" xlink:href="#DejaVuSans-48"/>
       <use x="211.035156" xlink:href="#DejaVuSans-48"/>
      </g>
     </g>
    </g>
    <g id="ytick_7">
     <g id="line2d_14">
      <g>
       <use style="stroke:#000000;stroke-width:0.8;" x="57.6" xlink:href="#m5aa297ef64" y="59.291345"/>
      </g>
     </g>
     <g id="text_13">
      <!-- −150 -->
      <defs>
       <path d="M 12.40625 8.296875 
L 28.515625 8.296875 
L 28.515625 63.921875 
L 10.984375 60.40625 
L 10.984375 69.390625 
L 28.421875 72.90625 
L 38.28125 72.90625 
L 38.28125 8.296875 
L 54.390625 8.296875 
L 54.390625 0 
L 12.40625 0 
z
" id="DejaVuSans-49"/>
      </defs>
      <g transform="translate(23.132812 63.090563)scale(0.1 -0.1)">
       <use xlink:href="#DejaVuSans-8722"/>
       <use x="83.789062" xlink:href="#DejaVuSans-49"/>
       <use x="147.412109" xlink:href="#DejaVuSans-53"/>
       <use x="211.035156" xlink:href="#DejaVuSans-48"/>
      </g>
     </g>
    </g>
   </g>
   <g id="line2d_15">
    <path clip-path="url(#p436615e797)" d="M 394.058787 245.973721 
L 182.48106 198.371597 
L 76.890102 268.48309 
L 76.598228 289.487451 
L 176.211433 73.433046 
L 249.157836 130.13255 
L 241.076742 181.562713 
" style="fill:none;stroke:#ff0000;stroke-linecap:square;stroke-width:0.5;"/>
   </g>
   <g id="patch_3">
    <path d="M 57.6 307.584 
L 57.6 41.472 
" style="fill:none;stroke:#000000;stroke-linecap:square;stroke-linejoin:miter;stroke-width:0.8;"/>
   </g>
   <g id="patch_4">
    <path d="M 414.72 307.584 
L 414.72 41.472 
" style="fill:none;stroke:#000000;stroke-linecap:square;stroke-linejoin:miter;stroke-width:0.8;"/>
   </g>
   <g id="patch_5">
    <path d="M 57.6 307.584 
L 414.72 307.584 
" style="fill:none;stroke:#000000;stroke-linecap:square;stroke-linejoin:miter;stroke-width:0.8;"/>
   </g>
   <g id="patch_6">
    <path d="M 57.6 41.472 
L 414.72 41.472 
" style="fill:none;stroke:#000000;stroke-linecap:square;stroke-linejoin:miter;stroke-width:0.8;"/>
   </g>
   <g id="PathCollection_1">
    <defs>
     <path d="M 0 2.738613 
C 0.726289 2.738613 1.422928 2.450055 1.936492 1.936492 
C 2.450055 1.422928 2.738613 0.726289 2.738613 0 
C 2.738613 -0.726289 2.450055 -1.422928 1.936492 -1.936492 
C 1.422928 -2.450055 0.726289 -2.738613 0 -2.738613 
C -0.726289 -2.738613 -1.422928 -2.450055 -1.936492 -1.936492 
C -2.450055 -1.422928 -2.738613 -0.726289 -2.738613 0 
C -2.738613 0.726289 -2.450055 1.422928 -1.936492 1.936492 
C -1.422928 2.450055 -0.726289 2.738613 0 2.738613 
z
" id="me7a4771afc" style="stroke:#ff0000;"/>
    </defs>
    <g clip-path="url(#p436615e797)">
     <use style="fill:#ff0000;stroke:#ff0000;" x="394.058787" xlink:href="#me7a4771afc" y="245.973721"/>
     <use style="fill:#ff0000;stroke:#ff0000;" x="182.48106" xlink:href="#me7a4771afc" y="198.371597"/>
     <use style="fill:#ff0000;stroke:#ff0000;" x="76.890102" xlink:href="#me7a4771afc" y="268.48309"/>
     <use style="fill:#ff0000;stroke:#ff0000;" x="76.598228" xlink:href="#me7a4771afc" y="289.487451"/>
     <use style="fill:#ff0000;stroke:#ff0000;" x="176.211433" xlink:href="#me7a4771afc" y="73.433046"/>
     <use style="fill:#ff0000;stroke:#ff0000;" x="249.157836" xlink:href="#me7a4771afc" y="130.13255"/>
     <use style="fill:#ff0000;stroke:#ff0000;" x="241.076742" xlink:href="#me7a4771afc" y="181.562713"/>
    </g>
   </g>
   <g id="text_14">
    <!-- (77) Subject: s3, Known = False, Degree = 1, Duration = 0.1 -->
    <defs>
     <path d="M 31 75.875 
Q 24.46875 64.65625 21.28125 53.65625 
Q 18.109375 42.671875 18.109375 31.390625 
Q 18.109375 20.125 21.3125 9.0625 
Q 24.515625 -2 31 -13.1875 
L 23.1875 -13.1875 
Q 15.875 -1.703125 12.234375 9.375 
Q 8.59375 20.453125 8.59375 31.390625 
Q 8.59375 42.28125 12.203125 53.3125 
Q 15.828125 64.359375 23.1875 75.875 
z
" id="DejaVuSans-40"/>
     <path d="M 8.203125 72.90625 
L 55.078125 72.90625 
L 55.078125 68.703125 
L 28.609375 0 
L 18.3125 0 
L 43.21875 64.59375 
L 8.203125 64.59375 
z
" id="DejaVuSans-55"/>
     <path d="M 8.015625 75.875 
L 15.828125 75.875 
Q 23.140625 64.359375 26.78125 53.3125 
Q 30.421875 42.28125 30.421875 31.390625 
Q 30.421875 20.453125 26.78125 9.375 
Q 23.140625 -1.703125 15.828125 -13.1875 
L 8.015625 -13.1875 
Q 14.5 -2 17.703125 9.0625 
Q 20.90625 20.125 20.90625 31.390625 
Q 20.90625 42.671875 17.703125 53.65625 
Q 14.5 64.65625 8.015625 75.875 
z
" id="DejaVuSans-41"/>
     <path id="DejaVuSans-32"/>
     <path d="M 53.515625 70.515625 
L 53.515625 60.890625 
Q 47.90625 63.578125 42.921875 64.890625 
Q 37.9375 66.21875 33.296875 66.21875 
Q 25.25 66.21875 20.875 63.09375 
Q 16.5 59.96875 16.5 54.203125 
Q 16.5 49.359375 19.40625 46.890625 
Q 22.3125 44.4375 30.421875 42.921875 
L 36.375 41.703125 
Q 47.40625 39.59375 52.65625 34.296875 
Q 57.90625 29 57.90625 20.125 
Q 57.90625 9.515625 50.796875 4.046875 
Q 43.703125 -1.421875 29.984375 -1.421875 
Q 24.8125 -1.421875 18.96875 -0.25 
Q 13.140625 0.921875 6.890625 3.21875 
L 6.890625 13.375 
Q 12.890625 10.015625 18.65625 8.296875 
Q 24.421875 6.59375 29.984375 6.59375 
Q 38.421875 6.59375 43.015625 9.90625 
Q 47.609375 13.234375 47.609375 19.390625 
Q 47.609375 24.75 44.3125 27.78125 
Q 41.015625 30.8125 33.5 32.328125 
L 27.484375 33.5 
Q 16.453125 35.6875 11.515625 40.375 
Q 6.59375 45.0625 6.59375 53.421875 
Q 6.59375 63.09375 13.40625 68.65625 
Q 20.21875 74.21875 32.171875 74.21875 
Q 37.3125 74.21875 42.625 73.28125 
Q 47.953125 72.359375 53.515625 70.515625 
z
" id="DejaVuSans-83"/>
     <path d="M 8.5 21.578125 
L 8.5 54.6875 
L 17.484375 54.6875 
L 17.484375 21.921875 
Q 17.484375 14.15625 20.5 10.265625 
Q 23.53125 6.390625 29.59375 6.390625 
Q 36.859375 6.390625 41.078125 11.03125 
Q 45.3125 15.671875 45.3125 23.6875 
L 45.3125 54.6875 
L 54.296875 54.6875 
L 54.296875 0 
L 45.3125 0 
L 45.3125 8.40625 
Q 42.046875 3.421875 37.71875 1 
Q 33.40625 -1.421875 27.6875 -1.421875 
Q 18.265625 -1.421875 13.375 4.4375 
Q 8.5 10.296875 8.5 21.578125 
z
M 31.109375 56 
z
" id="DejaVuSans-117"/>
     <path d="M 48.6875 27.296875 
Q 48.6875 37.203125 44.609375 42.84375 
Q 40.53125 48.484375 33.40625 48.484375 
Q 26.265625 48.484375 22.1875 42.84375 
Q 18.109375 37.203125 18.109375 27.296875 
Q 18.109375 17.390625 22.1875 11.75 
Q 26.265625 6.109375 33.40625 6.109375 
Q 40.53125 6.109375 44.609375 11.75 
Q 48.6875 17.390625 48.6875 27.296875 
z
M 18.109375 46.390625 
Q 20.953125 51.265625 25.265625 53.625 
Q 29.59375 56 35.59375 56 
Q 45.5625 56 51.78125 48.09375 
Q 58.015625 40.1875 58.015625 27.296875 
Q 58.015625 14.40625 51.78125 6.484375 
Q 45.5625 -1.421875 35.59375 -1.421875 
Q 29.59375 -1.421875 25.265625 0.953125 
Q 20.953125 3.328125 18.109375 8.203125 
L 18.109375 0 
L 9.078125 0 
L 9.078125 75.984375 
L 18.109375 75.984375 
z
" id="DejaVuSans-98"/>
     <path d="M 9.421875 54.6875 
L 18.40625 54.6875 
L 18.40625 -0.984375 
Q 18.40625 -11.421875 14.421875 -16.109375 
Q 10.453125 -20.796875 1.609375 -20.796875 
L -1.8125 -20.796875 
L -1.8125 -13.1875 
L 0.59375 -13.1875 
Q 5.71875 -13.1875 7.5625 -10.8125 
Q 9.421875 -8.453125 9.421875 -0.984375 
z
M 9.421875 75.984375 
L 18.40625 75.984375 
L 18.40625 64.59375 
L 9.421875 64.59375 
z
" id="DejaVuSans-106"/>
     <path d="M 56.203125 29.59375 
L 56.203125 25.203125 
L 14.890625 25.203125 
Q 15.484375 15.921875 20.484375 11.0625 
Q 25.484375 6.203125 34.421875 6.203125 
Q 39.59375 6.203125 44.453125 7.46875 
Q 49.3125 8.734375 54.109375 11.28125 
L 54.109375 2.78125 
Q 49.265625 0.734375 44.1875 -0.34375 
Q 39.109375 -1.421875 33.890625 -1.421875 
Q 20.796875 -1.421875 13.15625 6.1875 
Q 5.515625 13.8125 5.515625 26.8125 
Q 5.515625 40.234375 12.765625 48.109375 
Q 20.015625 56 32.328125 56 
Q 43.359375 56 49.78125 48.890625 
Q 56.203125 41.796875 56.203125 29.59375 
z
M 47.21875 32.234375 
Q 47.125 39.59375 43.09375 43.984375 
Q 39.0625 48.390625 32.421875 48.390625 
Q 24.90625 48.390625 20.390625 44.140625 
Q 15.875 39.890625 15.1875 32.171875 
z
" id="DejaVuSans-101"/>
     <path d="M 48.78125 52.59375 
L 48.78125 44.1875 
Q 44.96875 46.296875 41.140625 47.34375 
Q 37.3125 48.390625 33.40625 48.390625 
Q 24.65625 48.390625 19.8125 42.84375 
Q 14.984375 37.3125 14.984375 27.296875 
Q 14.984375 17.28125 19.8125 11.734375 
Q 24.65625 6.203125 33.40625 6.203125 
Q 37.3125 6.203125 41.140625 7.25 
Q 44.96875 8.296875 48.78125 10.40625 
L 48.78125 2.09375 
Q 45.015625 0.34375 40.984375 -0.53125 
Q 36.96875 -1.421875 32.421875 -1.421875 
Q 20.0625 -1.421875 12.78125 6.34375 
Q 5.515625 14.109375 5.515625 27.296875 
Q 5.515625 40.671875 12.859375 48.328125 
Q 20.21875 56 33.015625 56 
Q 37.15625 56 41.109375 55.140625 
Q 45.0625 54.296875 48.78125 52.59375 
z
" id="DejaVuSans-99"/>
     <path d="M 18.3125 70.21875 
L 18.3125 54.6875 
L 36.8125 54.6875 
L 36.8125 47.703125 
L 18.3125 47.703125 
L 18.3125 18.015625 
Q 18.3125 11.328125 20.140625 9.421875 
Q 21.96875 7.515625 27.59375 7.515625 
L 36.8125 7.515625 
L 36.8125 0 
L 27.59375 0 
Q 17.1875 0 13.234375 3.875 
Q 9.28125 7.765625 9.28125 18.015625 
L 9.28125 47.703125 
L 2.6875 47.703125 
L 2.6875 54.6875 
L 9.28125 54.6875 
L 9.28125 70.21875 
z
" id="DejaVuSans-116"/>
     <path d="M 11.71875 12.40625 
L 22.015625 12.40625 
L 22.015625 0 
L 11.71875 0 
z
M 11.71875 51.703125 
L 22.015625 51.703125 
L 22.015625 39.3125 
L 11.71875 39.3125 
z
" id="DejaVuSans-58"/>
     <path d="M 44.28125 53.078125 
L 44.28125 44.578125 
Q 40.484375 46.53125 36.375 47.5 
Q 32.28125 48.484375 27.875 48.484375 
Q 21.1875 48.484375 17.84375 46.4375 
Q 14.5 44.390625 14.5 40.28125 
Q 14.5 37.15625 16.890625 35.375 
Q 19.28125 33.59375 26.515625 31.984375 
L 29.59375 31.296875 
Q 39.15625 29.25 43.1875 25.515625 
Q 47.21875 21.78125 47.21875 15.09375 
Q 47.21875 7.46875 41.1875 3.015625 
Q 35.15625 -1.421875 24.609375 -1.421875 
Q 20.21875 -1.421875 15.453125 -0.5625 
Q 10.6875 0.296875 5.421875 2 
L 5.421875 11.28125 
Q 10.40625 8.6875 15.234375 7.390625 
Q 20.0625 6.109375 24.8125 6.109375 
Q 31.15625 6.109375 34.5625 8.28125 
Q 37.984375 10.453125 37.984375 14.40625 
Q 37.984375 18.0625 35.515625 20.015625 
Q 33.0625 21.96875 24.703125 23.78125 
L 21.578125 24.515625 
Q 13.234375 26.265625 9.515625 29.90625 
Q 5.8125 33.546875 5.8125 39.890625 
Q 5.8125 47.609375 11.28125 51.796875 
Q 16.75 56 26.8125 56 
Q 31.78125 56 36.171875 55.265625 
Q 40.578125 54.546875 44.28125 53.078125 
z
" id="DejaVuSans-115"/>
     <path d="M 11.71875 12.40625 
L 22.015625 12.40625 
L 22.015625 4 
L 14.015625 -11.625 
L 7.71875 -11.625 
L 11.71875 4 
z
" id="DejaVuSans-44"/>
     <path d="M 9.8125 72.90625 
L 19.671875 72.90625 
L 19.671875 42.09375 
L 52.390625 72.90625 
L 65.09375 72.90625 
L 28.90625 38.921875 
L 67.671875 0 
L 54.6875 0 
L 19.671875 35.109375 
L 19.671875 0 
L 9.8125 0 
z
" id="DejaVuSans-75"/>
     <path d="M 54.890625 33.015625 
L 54.890625 0 
L 45.90625 0 
L 45.90625 32.71875 
Q 45.90625 40.484375 42.875 44.328125 
Q 39.84375 48.1875 33.796875 48.1875 
Q 26.515625 48.1875 22.3125 43.546875 
Q 18.109375 38.921875 18.109375 30.90625 
L 18.109375 0 
L 9.078125 0 
L 9.078125 54.6875 
L 18.109375 54.6875 
L 18.109375 46.1875 
Q 21.34375 51.125 25.703125 53.5625 
Q 30.078125 56 35.796875 56 
Q 45.21875 56 50.046875 50.171875 
Q 54.890625 44.34375 54.890625 33.015625 
z
" id="DejaVuSans-110"/>
     <path d="M 30.609375 48.390625 
Q 23.390625 48.390625 19.1875 42.75 
Q 14.984375 37.109375 14.984375 27.296875 
Q 14.984375 17.484375 19.15625 11.84375 
Q 23.34375 6.203125 30.609375 6.203125 
Q 37.796875 6.203125 41.984375 11.859375 
Q 46.1875 17.53125 46.1875 27.296875 
Q 46.1875 37.015625 41.984375 42.703125 
Q 37.796875 48.390625 30.609375 48.390625 
z
M 30.609375 56 
Q 42.328125 56 49.015625 48.375 
Q 55.71875 40.765625 55.71875 27.296875 
Q 55.71875 13.875 49.015625 6.21875 
Q 42.328125 -1.421875 30.609375 -1.421875 
Q 18.84375 -1.421875 12.171875 6.21875 
Q 5.515625 13.875 5.515625 27.296875 
Q 5.515625 40.765625 12.171875 48.375 
Q 18.84375 56 30.609375 56 
z
" id="DejaVuSans-111"/>
     <path d="M 4.203125 54.6875 
L 13.1875 54.6875 
L 24.421875 12.015625 
L 35.59375 54.6875 
L 46.1875 54.6875 
L 57.421875 12.015625 
L 68.609375 54.6875 
L 77.59375 54.6875 
L 63.28125 0 
L 52.6875 0 
L 40.921875 44.828125 
L 29.109375 0 
L 18.5 0 
z
" id="DejaVuSans-119"/>
     <path d="M 10.59375 45.40625 
L 73.1875 45.40625 
L 73.1875 37.203125 
L 10.59375 37.203125 
z
M 10.59375 25.484375 
L 73.1875 25.484375 
L 73.1875 17.1875 
L 10.59375 17.1875 
z
" id="DejaVuSans-61"/>
     <path d="M 9.8125 72.90625 
L 51.703125 72.90625 
L 51.703125 64.59375 
L 19.671875 64.59375 
L 19.671875 43.109375 
L 48.578125 43.109375 
L 48.578125 34.8125 
L 19.671875 34.8125 
L 19.671875 0 
L 9.8125 0 
z
" id="DejaVuSans-70"/>
     <path d="M 34.28125 27.484375 
Q 23.390625 27.484375 19.1875 25 
Q 14.984375 22.515625 14.984375 16.5 
Q 14.984375 11.71875 18.140625 8.90625 
Q 21.296875 6.109375 26.703125 6.109375 
Q 34.1875 6.109375 38.703125 11.40625 
Q 43.21875 16.703125 43.21875 25.484375 
L 43.21875 27.484375 
z
M 52.203125 31.203125 
L 52.203125 0 
L 43.21875 0 
L 43.21875 8.296875 
Q 40.140625 3.328125 35.546875 0.953125 
Q 30.953125 -1.421875 24.3125 -1.421875 
Q 15.921875 -1.421875 10.953125 3.296875 
Q 6 8.015625 6 15.921875 
Q 6 25.140625 12.171875 29.828125 
Q 18.359375 34.515625 30.609375 34.515625 
L 43.21875 34.515625 
L 43.21875 35.40625 
Q 43.21875 41.609375 39.140625 45 
Q 35.0625 48.390625 27.6875 48.390625 
Q 23 48.390625 18.546875 47.265625 
Q 14.109375 46.140625 10.015625 43.890625 
L 10.015625 52.203125 
Q 14.9375 54.109375 19.578125 55.046875 
Q 24.21875 56 28.609375 56 
Q 40.484375 56 46.34375 49.84375 
Q 52.203125 43.703125 52.203125 31.203125 
z
" id="DejaVuSans-97"/>
     <path d="M 9.421875 75.984375 
L 18.40625 75.984375 
L 18.40625 0 
L 9.421875 0 
z
" id="DejaVuSans-108"/>
     <path d="M 19.671875 64.796875 
L 19.671875 8.109375 
L 31.59375 8.109375 
Q 46.6875 8.109375 53.6875 14.9375 
Q 60.6875 21.78125 60.6875 36.53125 
Q 60.6875 51.171875 53.6875 57.984375 
Q 46.6875 64.796875 31.59375 64.796875 
z
M 9.8125 72.90625 
L 30.078125 72.90625 
Q 51.265625 72.90625 61.171875 64.09375 
Q 71.09375 55.28125 71.09375 36.53125 
Q 71.09375 17.671875 61.125 8.828125 
Q 51.171875 0 30.078125 0 
L 9.8125 0 
z
" id="DejaVuSans-68"/>
     <path d="M 45.40625 27.984375 
Q 45.40625 37.75 41.375 43.109375 
Q 37.359375 48.484375 30.078125 48.484375 
Q 22.859375 48.484375 18.828125 43.109375 
Q 14.796875 37.75 14.796875 27.984375 
Q 14.796875 18.265625 18.828125 12.890625 
Q 22.859375 7.515625 30.078125 7.515625 
Q 37.359375 7.515625 41.375 12.890625 
Q 45.40625 18.265625 45.40625 27.984375 
z
M 54.390625 6.78125 
Q 54.390625 -7.171875 48.1875 -13.984375 
Q 42 -20.796875 29.203125 -20.796875 
Q 24.46875 -20.796875 20.265625 -20.09375 
Q 16.0625 -19.390625 12.109375 -17.921875 
L 12.109375 -9.1875 
Q 16.0625 -11.328125 19.921875 -12.34375 
Q 23.78125 -13.375 27.78125 -13.375 
Q 36.625 -13.375 41.015625 -8.765625 
Q 45.40625 -4.15625 45.40625 5.171875 
L 45.40625 9.625 
Q 42.625 4.78125 38.28125 2.390625 
Q 33.9375 0 27.875 0 
Q 17.828125 0 11.671875 7.65625 
Q 5.515625 15.328125 5.515625 27.984375 
Q 5.515625 40.671875 11.671875 48.328125 
Q 17.828125 56 27.875 56 
Q 33.9375 56 38.28125 53.609375 
Q 42.625 51.21875 45.40625 46.390625 
L 45.40625 54.6875 
L 54.390625 54.6875 
z
" id="DejaVuSans-103"/>
     <path d="M 41.109375 46.296875 
Q 39.59375 47.171875 37.8125 47.578125 
Q 36.03125 48 33.890625 48 
Q 26.265625 48 22.1875 43.046875 
Q 18.109375 38.09375 18.109375 28.8125 
L 18.109375 0 
L 9.078125 0 
L 9.078125 54.6875 
L 18.109375 54.6875 
L 18.109375 46.1875 
Q 20.953125 51.171875 25.484375 53.578125 
Q 30.03125 56 36.53125 56 
Q 37.453125 56 38.578125 55.875 
Q 39.703125 55.765625 41.0625 55.515625 
z
" id="DejaVuSans-114"/>
     <path d="M 9.421875 54.6875 
L 18.40625 54.6875 
L 18.40625 0 
L 9.421875 0 
z
M 9.421875 75.984375 
L 18.40625 75.984375 
L 18.40625 64.59375 
L 9.421875 64.59375 
z
" id="DejaVuSans-105"/>
     <path d="M 10.6875 12.40625 
L 21 12.40625 
L 21 0 
L 10.6875 0 
z
" id="DejaVuSans-46"/>
    </defs>
    <g transform="translate(53.559375 35.472)scale(0.12 -0.12)">
     <use xlink:href="#DejaVuSans-40"/>
     <use x="39.013672" xlink:href="#DejaVuSans-55"/>
     <use x="102.636719" xlink:href="#DejaVuSans-55"/>
     <use x="166.259766" xlink:href="#DejaVuSans-41"/>
     <use x="205.273438" xlink:href="#DejaVuSans-32"/>
     <use x="237.060547" xlink:href="#DejaVuSans-83"/>
     <use x="300.537109" xlink:href="#DejaVuSans-117"/>
     <use x="363.916016" xlink:href="#DejaVuSans-98"/>
     <use x="427.392578" xlink:href="#DejaVuSans-106"/>
     <use x="455.175781" xlink:href="#DejaVuSans-101"/>
     <use x="516.699219" xlink:href="#DejaVuSans-99"/>
     <use x="571.679688" xlink:href="#DejaVuSans-116"/>
     <use x="610.888672" xlink:href="#DejaVuSans-58"/>
     <use x="644.580078" xlink:href="#DejaVuSans-32"/>
     <use x="676.367188" xlink:href="#DejaVuSans-115"/>
     <use x="728.466797" xlink:href="#DejaVuSans-51"/>
     <use x="792.089844" xlink:href="#DejaVuSans-44"/>
     <use x="823.876953" xlink:href="#DejaVuSans-32"/>
     <use x="855.664062" xlink:href="#DejaVuSans-75"/>
     <use x="921.240234" xlink:href="#DejaVuSans-110"/>
     <use x="984.619141" xlink:href="#DejaVuSans-111"/>
     <use x="1045.800781" xlink:href="#DejaVuSans-119"/>
     <use x="1127.587891" xlink:href="#DejaVuSans-110"/>
     <use x="1190.966797" xlink:href="#DejaVuSans-32"/>
     <use x="1222.753906" xlink:href="#DejaVuSans-61"/>
     <use x="1306.542969" xlink:href="#DejaVuSans-32"/>
     <use x="1338.330078" xlink:href="#DejaVuSans-70"/>
     <use x="1395.708984" xlink:href="#DejaVuSans-97"/>
     <use x="1456.988281" xlink:href="#DejaVuSans-108"/>
     <use x="1484.771484" xlink:href="#DejaVuSans-115"/>
     <use x="1536.871094" xlink:href="#DejaVuSans-101"/>
     <use x="1598.394531" xlink:href="#DejaVuSans-44"/>
     <use x="1630.181641" xlink:href="#DejaVuSans-32"/>
     <use x="1661.96875" xlink:href="#DejaVuSans-68"/>
     <use x="1738.970703" xlink:href="#DejaVuSans-101"/>
     <use x="1800.494141" xlink:href="#DejaVuSans-103"/>
     <use x="1863.970703" xlink:href="#DejaVuSans-114"/>
     <use x="1905.052734" xlink:href="#DejaVuSans-101"/>
     <use x="1966.576172" xlink:href="#DejaVuSans-101"/>
     <use x="2028.099609" xlink:href="#DejaVuSans-32"/>
     <use x="2059.886719" xlink:href="#DejaVuSans-61"/>
     <use x="2143.675781" xlink:href="#DejaVuSans-32"/>
     <use x="2175.462891" xlink:href="#DejaVuSans-49"/>
     <use x="2239.085938" xlink:href="#DejaVuSans-44"/>
     <use x="2270.873047" xlink:href="#DejaVuSans-32"/>
     <use x="2302.660156" xlink:href="#DejaVuSans-68"/>
     <use x="2379.662109" xlink:href="#DejaVuSans-117"/>
     <use x="2443.041016" xlink:href="#DejaVuSans-114"/>
     <use x="2484.154297" xlink:href="#DejaVuSans-97"/>
     <use x="2545.433594" xlink:href="#DejaVuSans-116"/>
     <use x="2584.642578" xlink:href="#DejaVuSans-105"/>
     <use x="2612.425781" xlink:href="#DejaVuSans-111"/>
     <use x="2673.607422" xlink:href="#DejaVuSans-110"/>
     <use x="2736.986328" xlink:href="#DejaVuSans-32"/>
     <use x="2768.773438" xlink:href="#DejaVuSans-61"/>
     <use x="2852.5625" xlink:href="#DejaVuSans-32"/>
     <use x="2884.349609" xlink:href="#DejaVuSans-48"/>
     <use x="2947.972656" xlink:href="#DejaVuSans-46"/>
     <use x="2979.759766" xlink:href="#DejaVuSans-49"/>
    </g>
   </g>
  </g>
 </g>
 <defs>
  <clipPath id="p436615e797">
   <rect height="266.112" width="357.12" x="57.6" y="41.472"/>
  </clipPath>
 </defs>
</svg>
