<?xml version="1.0" encoding="utf-8" standalone="no"?>
<!DOCTYPE svg PUBLIC "-//W3C//DTD SVG 1.1//EN"
  "http://www.w3.org/Graphics/SVG/1.1/DTD/svg11.dtd">
<!-- Created with matplotlib (https://matplotlib.org/) -->
<svg height="345.6pt" version="1.1" viewBox="0 0 460.8 345.6" width="460.8pt" xmlns="http://www.w3.org/2000/svg" xmlns:xlink="http://www.w3.org/1999/xlink">
 <defs>
  <style type="text/css">
*{stroke-linecap:butt;stroke-linejoin:round;}
  </style>
 </defs>
 <g id="figure_1">
  <g id="patch_1">
   <path d="M 0 345.6 
L 460.8 345.6 
L 460.8 0 
L 0 0 
z
" style="fill:#ffffff;"/>
  </g>
  <g id="axes_1">
   <g id="patch_2">
    <path d="M 57.6 307.584 
L 414.72 307.584 
L 414.72 41.472 
L 57.6 41.472 
z
" style="fill:#ffffff;"/>
   </g>
   <g id="line2d_1">
    <path clip-path="url(#pd3ae20da7e)" d="M 76.478023 61.654479 
L 76.293037 61.126455 
L 76.293037 60.952425 
L 76.857244 61.478471 
L 77.426075 61.478471 
L 77.615685 60.952425 
L 77.426075 60.600409 
L 77.426075 61.126455 
L 77.046854 61.654479 
L 76.478023 61.654479 
L 76.103427 61.302463 
L 76.103427 61.302463 
L 76.293037 61.126455 
L 76.293037 60.952425 
L 76.478023 61.126455 
L 76.667633 61.126455 
L 76.293037 61.126455 
L 76.293037 61.478471 
L 76.478023 62.006495 
L 76.293037 61.654479 
L 76.293037 61.830487 
L 76.293037 61.654479 
L 76.478023 61.478471 
L 75.913817 60.600409 
L 75.724206 60.424401 
L 75.724206 60.776417 
L 76.103427 61.654479 
L 75.724206 61.654479 
L 75.344985 61.830487 
L 75.344985 61.654479 
L 75.344985 61.654479 
L 75.724206 62.006495 
L 75.534596 61.830487 
L 75.344985 61.830487 
L 75.155375 62.006495 
L 75.534596 62.182503 
L 76.103427 61.830487 
L 76.103427 61.478471 
L 75.344985 61.478471 
L 74.591169 62.006495 
L 74.591169 62.358511 
L 74.780779 62.358511 
L 74.970389 62.182503 
L 74.970389 62.182503 
L 74.780779 62.006495 
L 74.591169 62.006495 
L 74.970389 62.006495 
L 75.534596 61.830487 
L 75.724206 62.182503 
L 75.534596 63.060565 
L 74.970389 63.412581 
L 74.970389 63.060565 
L 75.344985 62.358511 
L 75.155375 62.886535 
L 75.155375 63.236573 
L 74.970389 63.412581 
L 74.780779 63.236573 
L 75.155375 62.358511 
L 75.344985 62.534519 
L 74.970389 62.358511 
L 74.970389 62.006495 
L 74.970389 63.236573 
L 74.591169 63.412581 
L 74.591169 62.358511 
L 74.780779 62.358511 
L 74.591169 62.534519 
L 74.211948 62.534519 
L 74.211948 62.710527 
L 75.155375 62.710527 
L 75.155375 63.060565 
L 75.155375 62.886535 
L 74.591169 62.710527 
L 74.401558 62.534519 
L 74.401558 62.710527 
L 74.211948 63.060565 
L 73.832727 62.886535 
L 74.022338 62.710527 
L 75.155375 63.060565 
L 74.780779 62.710527 
L 74.780779 62.358511 
L 74.591169 62.710527 
L 74.591169 63.236573 
L 74.780779 63.588589 
L 74.970389 63.588589 
L 74.970389 63.764597 
L 74.780779 63.764597 
L 74.780779 63.764597 
L 75.344985 64.292621 
L 75.344985 64.468629 
L 75.534596 63.940605 
L 75.534596 63.940605 
L 75.344985 63.764597 
L 75.344985 63.412581 
L 74.970389 63.060565 
L 74.591169 63.236573 
L 74.591169 63.236573 
L 74.591169 63.412581 
L 74.401558 63.588589 
L 74.591169 63.940605 
L 75.155375 64.468629 
L 74.970389 64.116613 
L 74.780779 64.116613 
L 74.780779 65.522699 
L 74.780779 65.346691 
L 74.401558 64.116613 
L 74.591169 63.764597 
L 74.970389 63.588589 
L 75.344985 63.940605 
L 75.344985 64.818667 
L 75.155375 64.818667 
L 74.970389 64.994675 
L 74.780779 64.994675 
L 74.970389 65.170683 
L 75.155375 64.994675 
L 75.913817 64.994675 
L 75.913817 65.170683 
L 75.534596 65.170683 
L 75.344985 64.994675 
L 75.344985 64.292621 
L 74.970389 64.292621 
L 74.970389 64.644637 
L 75.155375 64.818667 
L 75.724206 64.644637 
L 75.913817 64.292621 
L 75.344985 64.292621 
L 74.591169 63.940605 
L 74.591169 63.764597 
L 75.344985 63.764597 
L 76.103427 64.116613 
L 76.293037 63.940605 
L 76.667633 63.236573 
L 76.857244 63.236573 
L 76.857244 63.236573 
L 76.667633 63.060565 
L 76.478023 63.060565 
L 76.478023 63.060565 
L 76.857244 62.886535 
L 77.426075 62.886535 
L 77.615685 62.710527 
L 77.046854 62.182503 
L 77.046854 61.830487 
L 77.426075 61.654479 
L 77.800671 61.654479 
L 77.990281 61.830487 
L 78.369502 61.830487 
L 78.748723 61.654479 
L 78.748723 60.776417 
L 78.559112 60.424401 
L 78.369502 60.424401 
L 78.369502 61.126455 
L 78.748723 60.248393 
L 78.559112 59.896377 
L 78.179891 60.072385 
L 78.748723 59.720369 
L 78.938333 59.544361 
L 78.748723 59.720369 
L 78.748723 59.896377 
L 78.748723 59.720369 
L 78.179891 59.368353 
L 77.615685 59.368353 
L 77.800671 59.194322 
L 79.502539 58.314283 
L 81.394018 57.786259 
L 83.849703 57.786259 
L 86.494999 57.610251 
L 92.918628 55.852148 
L 97.265792 55.150094 
L 102.556383 54.62207 
L 108.605416 54.446062 
L 114.654449 54.446062 
L 127.312096 53.744008 
L 134.304556 53.568 
L 141.676236 53.568 
L 149.043292 53.920016 
L 156.414973 54.446062 
L 163.597043 55.150094 
L 177.392352 55.50211 
L 184.005591 55.852148 
L 197.23207 57.260212 
L 204.60375 58.314283 
L 212.350027 59.544361 
L 225.766115 62.534519 
L 231.815148 64.116613 
L 244.856641 68.862896 
L 258.272729 72.907124 
L 264.127527 74.841234 
L 269.607729 76.775344 
L 275.08793 78.885462 
L 280.003926 81.345619 
L 288.698254 86.619925 
L 292.851183 89.082059 
L 297.008737 91.718224 
L 301.355901 94.180358 
L 305.323845 96.290476 
L 308.537971 98.400594 
L 311.183267 100.510712 
L 313.828563 102.794861 
L 315.909652 105.433003 
L 318.175727 109.477231 
L 319.119154 111.235333 
L 320.252191 112.993435 
L 321.010633 114.927545 
L 320.821022 117.035686 
L 318.744558 121.783946 
L 316.663469 125.124143 
L 315.530431 127.760307 
L 314.397394 128.640347 
L 313.264356 129.694417 
L 311.752098 132.508567 
L 311.183267 133.210621 
L 307.96914 140.419038 
L 307.404934 141.827102 
L 306.836103 144.815282 
L 306.836103 145.343306 
L 306.461507 145.869353 
L 305.513455 146.9254 
L 304.570028 148.155479 
L 304.001197 149.211527 
L 303.626601 150.265597 
L 302.868159 150.969629 
L 302.303953 151.847691 
L 302.114343 152.727731 
L 301.735122 153.605793 
L 299.843643 156.417966 
L 299.843643 157.121997 
L 300.222864 158.002037 
L 300.033253 158.704092 
L 299.469047 159.408124 
L 298.520995 159.936148 
L 298.331385 160.286186 
L 298.520995 160.638202 
L 298.520995 160.990218 
L 298.146399 162.044288 
L 297.577568 162.220296 
L 296.634141 162.74832 
L 296.25492 163.100336 
L 295.875699 163.978398 
L 295.875699 164.858438 
L 296.06531 166.088516 
L 295.875699 166.440532 
L 295.311493 166.440532 
L 294.932272 166.792548 
L 294.553052 167.670611 
L 294.178456 167.670611 
L 293.799235 167.846618 
L 292.666197 168.902666 
L 292.097366 169.076697 
L 291.718146 169.428713 
L 291.907756 169.604721 
L 292.286977 169.604721 
L 292.476587 169.252705 
L 292.286977 168.726658 
L 291.907756 168.726658 
L 291.528535 169.076697 
L 291.34355 169.076697 
L 291.528535 169.428713 
L 291.528535 170.132745 
L 291.153939 170.308753 
L 290.774719 170.308753 
L 290.585108 169.780729 
L 290.774719 169.252705 
L 291.153939 169.604721 
L 290.774719 170.132745 
L 289.831291 170.660769 
L 289.452071 171.186815 
L 289.26246 171.186815 
L 289.07285 170.834799 
L 289.26246 171.362823 
L 289.07285 171.538831 
L 288.319033 171.538831 
L 288.319033 171.362823 
L 288.319033 171.538831 
L 288.129423 171.714839 
L 288.129423 171.714839 
L 287.939813 171.538831 
L 287.560592 171.538831 
L 287.370981 171.890847 
L 287.370981 172.594879 
L 287.750202 172.768909 
L 290.205887 172.066855 
L 291.718146 171.890847 
L 293.799235 172.242863 
L 294.553052 172.594879 
L 295.501103 173.296933 
L 296.444531 174.176973 
L 297.198347 175.407051 
L 297.767178 177.165153 
L 298.520995 178.747247 
L 300.602084 182.087444 
L 301.355901 184.021554 
L 302.303953 185.779656 
L 303.811586 187.537758 
L 305.703065 189.471868 
L 307.594544 191.053963 
L 310.23984 194.570167 
L 312.126694 196.504277 
L 314.587004 198.086371 
L 319.119154 200.372497 
L 321.579464 201.426568 
L 324.599356 202.482616 
L 330.079557 205.11878 
L 332.350257 206.350836 
L 336.882407 209.163008 
L 343.12105 213.383244 
L 344.633308 214.261307 
L 345.576735 215.141347 
L 345.955956 216.371425 
L 346.709773 217.777511 
L 347.278604 220.415653 
L 347.278604 221.119685 
L 347.088993 221.997747 
L 346.520162 223.227826 
L 345.387125 224.107865 
L 344.633308 224.985928 
L 343.50027 226.920038 
L 341.988012 227.976086 
L 340.475754 229.382172 
L 339.906923 230.260234 
L 339.153106 230.964266 
L 338.205055 231.668298 
L 337.451238 232.54636 
L 337.640848 233.074384 
L 338.020069 233.602408 
L 337.830458 234.128455 
L 336.12859 235.36051 
L 334.805942 238.172683 
L 334.047501 238.348691 
L 333.483294 238.876715 
L 333.672905 239.578769 
L 333.672905 240.106793 
L 333.483294 240.458809 
L 332.539867 240.634817 
L 332.539867 240.634817 
L 332.539867 241.160863 
L 332.160646 242.742957 
L 331.591815 242.918965 
L 331.027609 242.742957 
L 330.837999 242.040903 
L 330.648388 242.040903 
L 330.269168 242.742957 
L 329.515351 242.918965 
L 329.515351 242.918965 
L 329.889947 243.094973 
L 329.889947 242.918965 
L 329.515351 243.094973 
L 328.003093 244.151021 
L 327.434262 244.327029 
L 327.623872 243.975013 
L 328.003093 243.622997 
L 328.003093 243.622997 
L 327.813482 243.975013 
L 327.434262 243.975013 
L 327.434262 243.270981 
L 326.680445 243.270981 
L 326.301224 243.975013 
L 326.111614 243.975013 
L 326.111614 243.975013 
L 326.490834 243.622997 
L 326.490834 243.446989 
L 326.301224 243.975013 
L 326.680445 243.622997 
L 325.547407 243.622997 
L 324.599356 243.270981 
L 324.599356 243.622997 
L 324.788966 243.799005 
L 324.599356 243.622997 
L 324.788966 243.622997 
L 323.845539 243.622997 
L 323.845539 243.270981 
L 324.409745 243.270981 
L 324.409745 243.799005 
L 324.035149 244.151021 
L 323.655928 244.327029 
L 323.845539 244.327029 
L 323.655928 244.503037 
L 323.087097 244.677068 
L 322.712501 244.677068 
L 322.902112 244.677068 
L 323.087097 244.503037 
L 323.466318 243.799005 
L 323.466318 243.799005 
L 323.655928 243.975013 
L 323.655928 244.327029 
L 323.655928 244.151021 
L 323.276708 243.975013 
L 322.712501 244.151021 
L 321.95406 244.503037 
L 322.522891 244.853075 
L 322.902112 245.381099 
L 323.276708 245.557107 
L 323.087097 245.205091 
L 322.712501 244.853075 
L 322.333281 244.853075 
L 322.14367 245.029083 
L 322.14367 245.029083 
L 322.14367 244.677068 
L 322.14367 245.381099 
L 322.333281 245.557107 
L 322.522891 245.381099 
L 322.333281 245.029083 
L 321.389853 245.381099 
L 321.389853 245.205091 
L 321.76445 244.677068 
L 321.76445 244.853075 
L 321.76445 246.611178 
L 321.579464 246.787186 
L 321.579464 246.787186 
L 321.010633 246.261139 
L 321.200243 246.261139 
L 321.200243 246.611178 
L 321.010633 246.787186 
L 321.010633 246.43517 
L 321.200243 246.261139 
L 321.389853 246.43517 
L 321.200243 246.963194 
L 321.200243 246.787186 
L 321.389853 247.139202 
L 321.200243 246.787186 
L 320.441802 246.787186 
L 320.067206 246.611178 
L 319.877595 246.261139 
L 320.067206 246.261139 
L 320.441802 246.611178 
L 320.821022 246.787186 
L 320.631412 246.963194 
L 319.687985 246.963194 
L 318.554947 246.611178 
L 317.606896 246.43517 
L 316.853079 246.787186 
L 315.720041 246.787186 
L 314.587004 246.963194 
L 313.264356 247.491218 
L 307.594544 250.479398 
L 306.271896 251.007422 
L 304.759638 251.359438 
L 303.24738 251.885484 
L 297.767178 254.875642 
L 296.06531 255.227658 
L 294.363441 255.401688 
L 289.641681 256.281728 
L 287.185996 256.809752 
L 284.915296 257.511807 
L 283.028442 258.391847 
L 281.136963 258.917893 
L 279.435095 259.093901 
L 277.35863 259.621925 
L 274.523724 260.677973 
L 273.390686 260.501965 
L 272.632245 260.677973 
L 271.309597 262.610105 
L 271.499208 262.436075 
L 271.688818 262.786113 
L 271.688818 263.666153 
L 271.499208 263.842161 
L 271.309597 263.490145 
L 271.499208 263.314137 
L 271.499208 263.842161 
L 271.878428 264.194177 
L 272.257649 264.018169 
L 272.257649 264.194177 
L 271.878428 264.544215 
L 271.878428 264.544215 
L 271.878428 264.896231 
L 272.068039 265.072239 
L 272.068039 265.248247 
L 271.499208 265.248247 
L 270.930376 265.776271 
L 271.119987 266.126309 
L 271.119987 266.478325 
L 270.745391 266.830341 
L 270.17656 267.006349 
L 269.986949 267.182357 
L 269.986949 267.182357 
L 269.986949 266.478325 
L 270.17656 266.654333 
L 270.55578 267.182357 
L 270.745391 267.710381 
L 270.55578 267.886389 
L 270.17656 267.886389 
L 270.17656 268.236428 
L 269.607729 268.764452 
L 270.17656 268.412436 
L 270.17656 268.588444 
L 270.36617 268.764452 
L 270.36617 268.588444 
L 269.986949 268.764452 
L 269.422743 268.764452 
L 270.17656 268.764452 
L 270.930376 268.94046 
L 271.119987 269.116467 
L 270.745391 269.292475 
L 270.17656 269.292475 
L 269.797339 270.170538 
L 269.422743 270.170538 
L 270.36617 269.292475 
L 270.36617 269.116467 
L 269.986949 269.644491 
L 269.986949 270.698562 
L 269.422743 270.87457 
L 269.043522 270.698562 
L 269.233133 270.346546 
L 269.797339 270.346546 
L 269.797339 270.346546 
L 269.233133 270.170538 
L 268.285081 269.644491 
L 268.285081 269.818522 
L 268.664302 270.522554 
L 269.043522 270.522554 
L 268.853912 270.522554 
L 268.285081 271.402594 
L 268.474691 271.226586 
L 268.853912 270.87457 
L 268.853912 270.522554 
L 268.474691 270.522554 
L 268.285081 270.698562 
L 268.285081 270.698562 
L 268.664302 270.522554 
L 269.607729 271.226586 
L 269.233133 270.87457 
L 268.853912 271.050578 
L 268.853912 271.576624 
L 269.043522 271.92864 
L 269.043522 271.752632 
L 268.474691 272.104648 
L 268.664302 272.280656 
L 268.853912 272.104648 
L 268.664302 271.92864 
L 268.664302 271.752632 
L 268.853912 271.576624 
L 268.474691 271.92864 
L 268.285081 272.456664 
L 268.664302 272.456664 
L 268.664302 272.632672 
L 268.100095 273.160696 
L 268.285081 272.984688 
L 268.285081 273.160696 
L 267.910485 273.686742 
L 267.720874 273.686742 
L 267.720874 273.510734 
L 267.910485 273.334726 
L 267.910485 273.510734 
L 267.341654 274.038758 
L 267.341654 274.214766 
L 267.531264 274.214766 
L 267.531264 273.510734 
L 267.720874 273.510734 
L 267.910485 274.038758 
L 267.910485 273.86275 
L 267.910485 273.510734 
L 267.910485 273.686742 
L 268.100095 273.510734 
L 267.910485 273.686742 
L 267.910485 273.86275 
L 267.720874 274.038758 
L 266.777447 274.038758 
L 266.777447 274.038758 
L 267.720874 274.566782 
L 268.285081 274.566782 
L 268.285081 274.566782 
L 267.910485 273.86275 
L 267.531264 274.038758 
L 267.910485 273.86275 
L 268.474691 273.86275 
L 268.664302 274.038758 
L 268.664302 274.038758 
L 268.853912 274.038758 
L 269.422743 274.214766 
L 269.422743 274.214766 
L 269.797339 273.334726 
L 269.607729 273.160696 
L 269.422743 273.334726 
L 269.422743 273.160696 
L 269.607729 272.984688 
L 269.797339 272.984688 
L 269.797339 272.984688 
L 270.17656 273.160696 
L 270.17656 273.334726 
L 270.36617 273.160696 
L 270.36617 272.984688 
L 270.55578 272.456664 
L 270.55578 272.280656 
L 271.499208 271.402594 
L 271.499208 271.050578 
L 271.309597 271.050578 
L 270.745391 271.226586 
L 270.745391 270.87457 
L 270.930376 270.698562 
L 271.688818 270.698562 
L 271.499208 270.522554 
L 271.119987 270.522554 
L 270.930376 270.346546 
L 270.930376 270.346546 
L 270.17656 270.522554 
L 270.36617 270.346546 
L 270.55578 270.346546 
L 270.17656 269.99453 
L 270.17656 269.818522 
L 270.36617 269.468483 
L 269.607729 268.236428 
L 269.422743 268.06042 
L 269.607729 268.06042 
L 269.986949 268.236428 
L 269.607729 268.06042 
L 269.422743 267.710381 
L 269.797339 267.710381 
L 269.986949 267.886389 
L 269.797339 267.886389 
L 269.422743 268.06042 
L 269.043522 268.06042 
L 268.664302 267.710381 
L 268.664302 267.358365 
L 268.853912 267.006349 
L 269.043522 267.006349 
L 268.853912 267.006349 
L 268.853912 266.830341 
L 269.233133 266.830341 
L 268.853912 267.006349 
L 268.285081 267.006349 
L 267.910485 266.830341 
L 267.531264 266.302317 
L 267.531264 265.952279 
L 268.100095 266.302317 
L 268.285081 266.126309 
L 267.910485 265.424255 
L 267.720874 265.424255 
L 267.910485 265.424255 
L 267.910485 265.248247 
L 267.720874 264.896231 
L 267.152043 264.720223 
L 266.962433 264.896231 
L 267.720874 265.952279 
L 267.341654 266.126309 
L 266.398227 265.776271 
L 266.777447 264.896231 
L 267.152043 264.896231 
L 267.341654 265.072239 
L 267.341654 265.424255 
L 267.152043 265.600263 
L 267.152043 265.776271 
L 267.531264 265.072239 
L 267.531264 265.072239 
L 268.285081 265.424255 
L 267.341654 266.302317 
L 267.341654 266.302317 
L 267.341654 266.478325 
L 267.152043 266.478325 
L 266.777447 265.952279 
L 266.962433 265.776271 
L 267.341654 265.600263 
L 267.910485 265.600263 
L 267.341654 266.126309 
L 267.341654 265.952279 
L 267.720874 265.600263 
L 267.341654 265.952279 
L 267.152043 265.952279 
L 266.962433 265.776271 
L 266.777447 265.776271 
L 266.777447 265.776271 
L 266.962433 265.952279 
L 267.341654 266.830341 
L 266.962433 266.830341 
L 266.398227 265.952279 
L 266.398227 265.952279 
L 266.398227 266.654333 
L 266.587837 266.302317 
L 266.962433 266.126309 
L 267.152043 266.302317 
L 267.341654 266.302317 
L 266.962433 265.952279 
L 266.962433 266.126309 
L 267.152043 266.478325 
L 267.910485 267.006349 
L 268.100095 266.654333 
L 267.910485 266.478325 
L 267.341654 266.654333 
L 266.398227 266.654333 
L 265.829396 267.006349 
L 266.208616 266.654333 
L 266.398227 266.302317 
L 266.777447 266.302317 
L 266.777447 266.654333 
L 266.587837 266.830341 
L 266.587837 266.126309 
L 266.587837 266.478325 
L 266.777447 266.302317 
L 266.962433 266.478325 
L 267.341654 267.006349 
L 268.285081 266.654333 
L 272.632245 265.952279 
L 274.713334 265.776271 
L 280.947353 264.018169 
L 284.915296 262.610105 
L 289.26246 261.556035 
L 293.799235 260.852003 
L 298.520995 260.501965 
L 303.626601 260.325957 
L 308.348361 259.973941 
L 312.695525 259.269909 
L 316.853079 258.743862 
L 321.200243 258.391847 
L 325.732393 258.391847 
L 329.889947 258.039831 
L 338.205055 256.98576 
L 342.172998 256.633744 
L 345.766345 256.809752 
L 349.355068 256.809752 
L 357.480565 256.457736 
L 361.448509 255.929712 
L 365.606063 255.05165 
L 369.953227 254.523626 
L 377.324908 254.523626 
L 383.938147 253.819594 
L 386.962663 253.643586 
L 393.575902 253.643586 
L 397.164625 253.995602 
L 398.112677 254.17161 
L 398.487273 253.995602 
L 398.302287 253.819594 
L 397.923066 253.819594 
L 397.923066 254.17161 
L 397.733456 255.05165 
L 397.164625 256.281728 
L 396.975015 256.281728 
L 396.790029 256.457736 
L 396.410808 256.457736 
L 395.467381 256.281728 
L 395.08816 256.457736 
L 394.70894 256.457736 
L 393.955123 256.809752 
L 393.955123 257.335799 
L 394.144733 257.511807 
L 393.955123 257.687815 
L 393.955123 258.039831 
L 393.765512 258.391847 
L 393.765512 258.215839 
L 393.955123 258.391847 
L 392.632475 258.917893 
L 392.253254 259.445917 
L 392.063644 259.445917 
L 392.632475 259.973941 
L 392.442865 260.149949 
L 392.253254 260.149949 
L 392.253254 260.149949 
L 391.874034 260.501965 
L 392.063644 260.501965 
L 392.442865 260.677973 
L 392.442865 260.852003 
L 391.684423 261.380027 
L 391.120217 261.380027 
L 391.120217 261.204019 
L 391.684423 261.028011 
L 391.120217 261.204019 
L 390.551386 261.204019 
L 389.987179 261.380027 
L 389.418348 261.732043 
L 389.418348 261.380027 
L 389.418348 261.732043 
L 389.228738 262.260067 
L 389.797569 262.610105 
L 389.418348 262.610105 
L 388.474921 262.436075 
L 388.664532 262.260067 
L 389.418348 262.610105 
L 389.228738 262.610105 
L 389.228738 262.260067 
L 389.228738 262.436075 
L 389.418348 262.610105 
L 389.418348 263.138129 
L 389.418348 262.962121 
L 389.039128 263.490145 
L 388.664532 263.842161 
L 388.285311 263.842161 
L 388.285311 263.490145 
L 388.285311 263.666153 
L 387.90609 264.018169 
L 387.90609 264.018169 
L 387.90609 262.962121 
L 387.341884 262.786113 
L 386.962663 262.962121 
L 386.773053 262.786113 
L 387.526869 262.786113 
L 387.341884 262.962121 
L 386.014611 263.666153 
L 386.204222 263.842161 
L 386.773053 263.842161 
L 386.773053 263.666153 
L 386.583442 263.842161 
L 386.393832 264.194177 
L 386.773053 264.544215 
L 386.773053 264.544215 
L 386.773053 264.018169 
L 386.962663 264.018169 
L 387.152273 264.194177 
L 386.773053 263.842161 
L 386.204222 263.490145 
L 385.829626 263.490145 
L 386.014611 263.666153 
L 386.393832 263.842161 
L 386.204222 264.018169 
L 385.640015 264.194177 
L 385.260794 264.194177 
L 385.260794 264.018169 
L 385.829626 262.962121 
L 385.829626 263.138129 
L 385.829626 264.194177 
L 385.640015 264.368207 
L 385.640015 264.368207 
L 386.204222 264.368207 
L 386.014611 264.544215 
L 385.450405 264.544215 
L 385.450405 264.368207 
L 385.450405 265.952279 
L 385.640015 265.248247 
L 385.640015 264.194177 
L 385.450405 264.720223 
L 385.640015 264.544215 
L 385.829626 264.194177 
L 385.450405 264.194177 
L 385.260794 264.544215 
L 385.260794 264.896231 
L 385.640015 265.248247 
L 385.640015 265.600263 
L 385.640015 265.600263 
L 385.450405 265.424255 
L 385.640015 265.424255 
L 385.260794 265.776271 
L 384.506978 265.952279 
L 384.317367 265.600263 
L 384.506978 265.600263 
L 384.881574 265.776271 
L 385.260794 266.126309 
L 385.260794 266.302317 
L 385.071184 266.302317 
L 385.071184 266.126309 
L 385.450405 266.126309 
L 385.450405 266.302317 
L 385.260794 266.478325 
L 385.260794 266.654333 
L 385.071184 266.830341 
L 384.881574 266.654333 
L 384.691963 266.830341 
L 384.506978 266.830341 
L 384.506978 266.830341 
L 384.691963 266.478325 
L 384.881574 266.654333 
L 384.691963 267.006349 
L 384.127757 267.006349 
L 384.127757 267.006349 
L 384.691963 267.182357 
L 384.691963 267.006349 
L 384.506978 266.654333 
L 384.317367 266.654333 
L 384.127757 266.830341 
L 384.127757 267.182357 
L 384.127757 267.006349 
L 383.938147 267.182357 
L 384.317367 267.534373 
L 385.071184 267.710381 
L 384.506978 267.182357 
L 384.317367 267.182357 
L 383.748536 267.710381 
L 383.558926 267.710381 
L 383.748536 267.710381 
L 384.317367 267.534373 
L 384.127757 267.710381 
L 384.127757 267.710381 
L 384.317367 267.358365 
L 383.938147 267.006349 
L 383.369316 267.358365 
L 383.369316 267.886389 
L 383.558926 268.236428 
L 383.938147 268.236428 
L 383.938147 267.710381 
L 383.558926 267.710381 
L 383.369316 267.886389 
L 383.18433 268.412436 
L 382.805109 268.412436 
L 382.805109 268.06042 
L 383.369316 267.886389 
L 383.748536 267.886389 
L 383.748536 267.710381 
L 383.369316 267.534373 
L 382.99472 267.710381 
L 383.18433 268.236428 
L 383.18433 268.764452 
L 383.18433 268.588444 
L 382.99472 268.412436 
L 382.805109 268.412436 
L 382.99472 268.588444 
L 383.369316 268.412436 
L 382.805109 268.588444 
L 382.425888 268.588444 
L 382.046668 268.412436 
L 381.292851 267.886389 
L 379.780593 267.710381 
L 377.704128 267.886389 
L 375.054208 268.412436 
L 368.251358 268.764452 
L 359.372044 269.818522 
L 354.271063 270.170538 
L 348.222031 270.346546 
L 341.608792 270.698562 
L 334.805942 271.226586 
L 327.813482 272.104648 
L 312.316304 273.160696 
L 304.759638 274.038758 
L 297.198347 275.268836 
L 282.649221 277.378954 
L 275.846372 278.082986 
L 262.804879 279.841088 
L 256.38125 280.193104 
L 238.238777 281.599191 
L 226.524557 282.301245 
L 209.32551 282.829269 
L 204.034919 282.829269 
L 199.313159 282.653261 
L 190.054624 283.357293 
L 185.328239 283.885317 
L 176.069704 284.235355 
L 172.101761 284.235355 
L 168.698024 284.411363 
L 163.028212 285.115395 
L 160.762137 285.643419 
L 158.496062 285.993457 
L 156.035752 285.993457 
L 155.471546 285.819427 
L 154.902715 285.993457 
L 154.713104 286.345473 
L 156.794194 286.873497 
L 157.737621 286.873497 
L 160.382916 286.169465 
L 161.705564 286.169465 
L 162.274395 286.345473 
L 162.464006 286.697489 
L 162.838602 286.873497 
L 163.217822 286.873497 
L 163.028212 286.873497 
L 162.464006 287.049505 
L 162.274395 287.225513 
L 162.653616 287.577529 
L 162.653616 288.631599 
L 162.274395 289.159623 
L 162.464006 289.159623 
L 162.653616 289.159623 
L 162.653616 289.861678 
L 162.274395 290.389701 
L 161.895174 290.389701 
L 161.895174 290.037686 
L 162.274395 289.335631 
L 162.084785 289.509662 
L 162.084785 290.037686 
L 162.274395 290.389701 
L 162.653616 290.389701 
L 162.464006 290.565709 
L 162.274395 290.917725 
L 162.464006 291.093733 
L 162.464006 290.917725 
L 162.274395 290.917725 
L 162.274395 291.267764 
L 162.084785 291.61978 
L 160.951747 292.323812 
L 161.141358 292.323812 
L 161.330968 292.323812 
L 161.141358 292.49982 
L 161.330968 292.851836 
L 161.515954 292.851836 
L 161.515954 292.851836 
L 161.705564 293.027844 
L 161.705564 293.377882 
L 161.330968 293.377882 
L 161.705564 293.201874 
L 162.464006 293.201874 
L 162.084785 293.201874 
L 161.705564 293.377882 
L 161.895174 293.377882 
L 162.274395 293.729898 
L 163.028212 293.729898 
L 163.028212 293.905906 
L 162.838602 294.081914 
L 163.028212 294.081914 
L 163.217822 294.257922 
L 162.838602 294.609938 
L 162.838602 294.609938 
L 163.028212 294.257922 
L 163.597043 294.43393 
L 163.976264 294.43393 
L 164.161249 294.257922 
L 164.161249 294.43393 
L 163.976264 294.609938 
L 163.976264 295.135984 
L 164.161249 295.488 
L 163.786653 294.785946 
L 164.54047 294.081914 
L 164.73008 294.081914 
L 164.54047 294.257922 
L 164.54047 294.609938 
L 164.73008 294.609938 
L 164.919691 294.43393 
L 165.109301 294.43393 
L 165.109301 294.43393 
L 165.109301 294.081914 
L 165.483897 293.729898 
L 165.863118 293.729898 
L 166.052728 294.081914 
L 166.621559 294.257922 
L 166.996155 293.905906 
L 167.185766 293.55389 
L 166.806545 293.377882 
L 166.431949 293.55389 
L 166.052728 293.201874 
L 166.431949 292.851836 
L 166.621559 292.851836 
L 166.431949 293.027844 
L 166.242339 293.377882 
L 166.242339 291.795788 
L 166.431949 291.795788 
L 166.806545 291.61978 
L 166.806545 291.267764 
L 166.431949 291.267764 
L 166.431949 291.795788 
L 166.621559 292.147804 
L 166.806545 292.147804 
L 166.621559 291.971796 
L 166.242339 291.971796 
L 165.863118 291.795788 
L 166.242339 291.795788 
L 166.431949 291.443772 
L 166.996155 291.267764 
L 166.996155 291.267764 
L 166.806545 291.093733 
L 166.806545 290.741717 
L 166.806545 290.917725 
L 166.996155 290.917725 
L 167.185766 290.741717 
L 166.996155 290.565709 
L 166.806545 290.741717 
L 166.806545 290.741717 
L 166.806545 290.037686 
L 166.996155 290.213693 
L 166.806545 290.389701 
L 166.806545 290.037686 
L 166.806545 290.213693 
L 166.996155 290.565709 
L 167.185766 290.389701 
L 166.806545 290.037686 
L 166.052728 289.159623 
L 165.863118 289.159623 
L 166.431949 289.68567 
L 166.806545 289.861678 
L 166.806545 290.037686 
L 166.621559 290.037686 
L 166.242339 289.861678 
L 166.052728 289.335631 
L 166.806545 288.631599 
L 166.806545 288.807607 
L 166.052728 288.983615 
L 166.052728 288.807607 
L 166.431949 288.279583 
L 166.052728 288.455591 
L 165.863118 288.807607 
L 165.863118 289.159623 
L 166.052728 288.983615 
L 166.242339 288.983615 
L 166.052728 288.807607 
L 166.052728 288.631599 
L 166.052728 288.631599 
L 166.242339 288.983615 
L 165.863118 289.509662 
L 165.863118 289.509662 
L 165.863118 289.335631 
L 165.673508 288.807607 
L 166.052728 288.279583 
L 166.621559 288.455591 
L 166.621559 288.807607 
L 166.242339 288.983615 
L 166.242339 289.159623 
L 166.431949 288.983615 
L 166.621559 288.983615 
L 166.621559 288.807607 
L 166.621559 288.807607 
L 166.806545 288.807607 
L 166.242339 289.159623 
L 166.052728 289.335631 
L 166.242339 289.335631 
L 166.242339 289.335631 
L 166.242339 289.159623 
L 166.431949 288.983615 
L 166.431949 288.983615 
L 166.431949 289.159623 
L 166.621559 288.983615 
L 166.806545 288.631599 
L 166.806545 288.631599 
L 166.431949 288.631599 
L 166.052728 288.455591 
L 166.052728 288.455591 
L 166.621559 289.159623 
L 166.431949 289.335631 
L 166.052728 289.509662 
L 165.673508 289.509662 
L 165.673508 289.335631 
L 165.863118 289.159623 
L 166.806545 288.983615 
L 166.806545 289.335631 
L 166.431949 289.68567 
L 166.431949 289.861678 
L 166.242339 289.68567 
L 166.242339 289.159623 
L 166.052728 288.983615 
L 166.052728 289.159623 
L 167.564986 289.159623 
L 167.185766 289.509662 
L 167.185766 289.68567 
L 167.185766 289.68567 
L 166.806545 289.68567 
L 166.806545 289.861678 
L 166.621559 290.213693 
L 166.996155 290.565709 
L 167.375376 290.565709 
L 167.375376 290.213693 
L 167.185766 289.68567 
L 166.996155 289.861678 
L 166.052728 289.509662 
L 166.431949 289.335631 
L 167.185766 289.159623 
L 167.754597 289.335631 
L 167.754597 289.861678 
L 167.375376 289.861678 
L 166.996155 290.037686 
L 166.621559 290.389701 
L 166.621559 290.389701 
" style="fill:none;stroke:#1f77b4;stroke-linecap:square;stroke-width:1.5;"/>
   </g>
   <g id="matplotlib.axis_1">
    <g id="xtick_1">
     <g id="line2d_2">
      <defs>
       <path d="M 0 0 
L 0 3.5 
" id="ma958caf95f" style="stroke:#000000;stroke-width:0.8;"/>
      </defs>
      <g>
       <use style="stroke:#000000;stroke-width:0.8;" x="65.022783" xlink:href="#ma958caf95f" y="307.584"/>
      </g>
     </g>
     <g id="text_1">
      <!-- −500 -->
      <defs>
       <path d="M 10.59375 35.5 
L 73.1875 35.5 
L 73.1875 27.203125 
L 10.59375 27.203125 
z
" id="DejaVuSans-8722"/>
       <path d="M 10.796875 72.90625 
L 49.515625 72.90625 
L 49.515625 64.59375 
L 19.828125 64.59375 
L 19.828125 46.734375 
Q 21.96875 47.46875 24.109375 47.828125 
Q 26.265625 48.1875 28.421875 48.1875 
Q 40.625 48.1875 47.75 41.5 
Q 54.890625 34.8125 54.890625 23.390625 
Q 54.890625 11.625 47.5625 5.09375 
Q 40.234375 -1.421875 26.90625 -1.421875 
Q 22.3125 -1.421875 17.546875 -0.640625 
Q 12.796875 0.140625 7.71875 1.703125 
L 7.71875 11.625 
Q 12.109375 9.234375 16.796875 8.0625 
Q 21.484375 6.890625 26.703125 6.890625 
Q 35.15625 6.890625 40.078125 11.328125 
Q 45.015625 15.765625 45.015625 23.390625 
Q 45.015625 31 40.078125 35.4375 
Q 35.15625 39.890625 26.703125 39.890625 
Q 22.75 39.890625 18.8125 39.015625 
Q 14.890625 38.140625 10.796875 36.28125 
z
" id="DejaVuSans-53"/>
       <path d="M 31.78125 66.40625 
Q 24.171875 66.40625 20.328125 58.90625 
Q 16.5 51.421875 16.5 36.375 
Q 16.5 21.390625 20.328125 13.890625 
Q 24.171875 6.390625 31.78125 6.390625 
Q 39.453125 6.390625 43.28125 13.890625 
Q 47.125 21.390625 47.125 36.375 
Q 47.125 51.421875 43.28125 58.90625 
Q 39.453125 66.40625 31.78125 66.40625 
z
M 31.78125 74.21875 
Q 44.046875 74.21875 50.515625 64.515625 
Q 56.984375 54.828125 56.984375 36.375 
Q 56.984375 17.96875 50.515625 8.265625 
Q 44.046875 -1.421875 31.78125 -1.421875 
Q 19.53125 -1.421875 13.0625 8.265625 
Q 6.59375 17.96875 6.59375 36.375 
Q 6.59375 54.828125 13.0625 64.515625 
Q 19.53125 74.21875 31.78125 74.21875 
z
" id="DejaVuSans-48"/>
      </defs>
      <g transform="translate(51.289189 322.182437)scale(0.1 -0.1)">
       <use xlink:href="#DejaVuSans-8722"/>
       <use x="83.789062" xlink:href="#DejaVuSans-53"/>
       <use x="147.412109" xlink:href="#DejaVuSans-48"/>
       <use x="211.035156" xlink:href="#DejaVuSans-48"/>
      </g>
     </g>
    </g>
    <g id="xtick_2">
     <g id="line2d_3">
      <g>
       <use style="stroke:#000000;stroke-width:0.8;" x="111.26921" xlink:href="#ma958caf95f" y="307.584"/>
      </g>
     </g>
     <g id="text_2">
      <!-- −400 -->
      <defs>
       <path d="M 37.796875 64.3125 
L 12.890625 25.390625 
L 37.796875 25.390625 
z
M 35.203125 72.90625 
L 47.609375 72.90625 
L 47.609375 25.390625 
L 58.015625 25.390625 
L 58.015625 17.1875 
L 47.609375 17.1875 
L 47.609375 0 
L 37.796875 0 
L 37.796875 17.1875 
L 4.890625 17.1875 
L 4.890625 26.703125 
z
" id="DejaVuSans-52"/>
      </defs>
      <g transform="translate(97.535617 322.182437)scale(0.1 -0.1)">
       <use xlink:href="#DejaVuSans-8722"/>
       <use x="83.789062" xlink:href="#DejaVuSans-52"/>
       <use x="147.412109" xlink:href="#DejaVuSans-48"/>
       <use x="211.035156" xlink:href="#DejaVuSans-48"/>
      </g>
     </g>
    </g>
    <g id="xtick_3">
     <g id="line2d_4">
      <g>
       <use style="stroke:#000000;stroke-width:0.8;" x="157.515638" xlink:href="#ma958caf95f" y="307.584"/>
      </g>
     </g>
     <g id="text_3">
      <!-- −300 -->
      <defs>
       <path d="M 40.578125 39.3125 
Q 47.65625 37.796875 51.625 33 
Q 55.609375 28.21875 55.609375 21.1875 
Q 55.609375 10.40625 48.1875 4.484375 
Q 40.765625 -1.421875 27.09375 -1.421875 
Q 22.515625 -1.421875 17.65625 -0.515625 
Q 12.796875 0.390625 7.625 2.203125 
L 7.625 11.71875 
Q 11.71875 9.328125 16.59375 8.109375 
Q 21.484375 6.890625 26.8125 6.890625 
Q 36.078125 6.890625 40.9375 10.546875 
Q 45.796875 14.203125 45.796875 21.1875 
Q 45.796875 27.640625 41.28125 31.265625 
Q 36.765625 34.90625 28.71875 34.90625 
L 20.21875 34.90625 
L 20.21875 43.015625 
L 29.109375 43.015625 
Q 36.375 43.015625 40.234375 45.921875 
Q 44.09375 48.828125 44.09375 54.296875 
Q 44.09375 59.90625 40.109375 62.90625 
Q 36.140625 65.921875 28.71875 65.921875 
Q 24.65625 65.921875 20.015625 65.03125 
Q 15.375 64.15625 9.8125 62.3125 
L 9.8125 71.09375 
Q 15.4375 72.65625 20.34375 73.4375 
Q 25.25 74.21875 29.59375 74.21875 
Q 40.828125 74.21875 47.359375 69.109375 
Q 53.90625 64.015625 53.90625 55.328125 
Q 53.90625 49.265625 50.4375 45.09375 
Q 46.96875 40.921875 40.578125 39.3125 
z
" id="DejaVuSans-51"/>
      </defs>
      <g transform="translate(143.782044 322.182437)scale(0.1 -0.1)">
       <use xlink:href="#DejaVuSans-8722"/>
       <use x="83.789062" xlink:href="#DejaVuSans-51"/>
       <use x="147.412109" xlink:href="#DejaVuSans-48"/>
       <use x="211.035156" xlink:href="#DejaVuSans-48"/>
      </g>
     </g>
    </g>
    <g id="xtick_4">
     <g id="line2d_5">
      <g>
       <use style="stroke:#000000;stroke-width:0.8;" x="203.762065" xlink:href="#ma958caf95f" y="307.584"/>
      </g>
     </g>
     <g id="text_4">
      <!-- −200 -->
      <defs>
       <path d="M 19.1875 8.296875 
L 53.609375 8.296875 
L 53.609375 0 
L 7.328125 0 
L 7.328125 8.296875 
Q 12.9375 14.109375 22.625 23.890625 
Q 32.328125 33.6875 34.8125 36.53125 
Q 39.546875 41.84375 41.421875 45.53125 
Q 43.3125 49.21875 43.3125 52.78125 
Q 43.3125 58.59375 39.234375 62.25 
Q 35.15625 65.921875 28.609375 65.921875 
Q 23.96875 65.921875 18.8125 64.3125 
Q 13.671875 62.703125 7.8125 59.421875 
L 7.8125 69.390625 
Q 13.765625 71.78125 18.9375 73 
Q 24.125 74.21875 28.421875 74.21875 
Q 39.75 74.21875 46.484375 68.546875 
Q 53.21875 62.890625 53.21875 53.421875 
Q 53.21875 48.921875 51.53125 44.890625 
Q 49.859375 40.875 45.40625 35.40625 
Q 44.1875 33.984375 37.640625 27.21875 
Q 31.109375 20.453125 19.1875 8.296875 
z
" id="DejaVuSans-50"/>
      </defs>
      <g transform="translate(190.028471 322.182437)scale(0.1 -0.1)">
       <use xlink:href="#DejaVuSans-8722"/>
       <use x="83.789062" xlink:href="#DejaVuSans-50"/>
       <use x="147.412109" xlink:href="#DejaVuSans-48"/>
       <use x="211.035156" xlink:href="#DejaVuSans-48"/>
      </g>
     </g>
    </g>
    <g id="xtick_5">
     <g id="line2d_6">
      <g>
       <use style="stroke:#000000;stroke-width:0.8;" x="250.008493" xlink:href="#ma958caf95f" y="307.584"/>
      </g>
     </g>
     <g id="text_5">
      <!-- −100 -->
      <defs>
       <path d="M 12.40625 8.296875 
L 28.515625 8.296875 
L 28.515625 63.921875 
L 10.984375 60.40625 
L 10.984375 69.390625 
L 28.421875 72.90625 
L 38.28125 72.90625 
L 38.28125 8.296875 
L 54.390625 8.296875 
L 54.390625 0 
L 12.40625 0 
z
" id="DejaVuSans-49"/>
      </defs>
      <g transform="translate(236.274899 322.182437)scale(0.1 -0.1)">
       <use xlink:href="#DejaVuSans-8722"/>
       <use x="83.789062" xlink:href="#DejaVuSans-49"/>
       <use x="147.412109" xlink:href="#DejaVuSans-48"/>
       <use x="211.035156" xlink:href="#DejaVuSans-48"/>
      </g>
     </g>
    </g>
    <g id="xtick_6">
     <g id="line2d_7">
      <g>
       <use style="stroke:#000000;stroke-width:0.8;" x="296.25492" xlink:href="#ma958caf95f" y="307.584"/>
      </g>
     </g>
     <g id="text_6">
      <!-- 0 -->
      <g transform="translate(293.07367 322.182437)scale(0.1 -0.1)">
       <use xlink:href="#DejaVuSans-48"/>
      </g>
     </g>
    </g>
    <g id="xtick_7">
     <g id="line2d_8">
      <g>
       <use style="stroke:#000000;stroke-width:0.8;" x="342.501348" xlink:href="#ma958caf95f" y="307.584"/>
      </g>
     </g>
     <g id="text_7">
      <!-- 100 -->
      <g transform="translate(332.957598 322.182437)scale(0.1 -0.1)">
       <use xlink:href="#DejaVuSans-49"/>
       <use x="63.623047" xlink:href="#DejaVuSans-48"/>
       <use x="127.246094" xlink:href="#DejaVuSans-48"/>
      </g>
     </g>
    </g>
    <g id="xtick_8">
     <g id="line2d_9">
      <g>
       <use style="stroke:#000000;stroke-width:0.8;" x="388.747775" xlink:href="#ma958caf95f" y="307.584"/>
      </g>
     </g>
     <g id="text_8">
      <!-- 200 -->
      <g transform="translate(379.204025 322.182437)scale(0.1 -0.1)">
       <use xlink:href="#DejaVuSans-50"/>
       <use x="63.623047" xlink:href="#DejaVuSans-48"/>
       <use x="127.246094" xlink:href="#DejaVuSans-48"/>
      </g>
     </g>
    </g>
   </g>
   <g id="matplotlib.axis_2">
    <g id="ytick_1">
     <g id="line2d_10">
      <defs>
       <path d="M 0 0 
L -3.5 0 
" id="mc8bad97a0b" style="stroke:#000000;stroke-width:0.8;"/>
      </defs>
      <g>
       <use style="stroke:#000000;stroke-width:0.8;" x="57.6" xlink:href="#mc8bad97a0b" y="283.169419"/>
      </g>
     </g>
     <g id="text_9">
      <!-- −400 -->
      <g transform="translate(23.132812 286.968638)scale(0.1 -0.1)">
       <use xlink:href="#DejaVuSans-8722"/>
       <use x="83.789062" xlink:href="#DejaVuSans-52"/>
       <use x="147.412109" xlink:href="#DejaVuSans-48"/>
       <use x="211.035156" xlink:href="#DejaVuSans-48"/>
      </g>
     </g>
    </g>
    <g id="ytick_2">
     <g id="line2d_11">
      <g>
       <use style="stroke:#000000;stroke-width:0.8;" x="57.6" xlink:href="#mc8bad97a0b" y="243.617064"/>
      </g>
     </g>
     <g id="text_10">
      <!-- −200 -->
      <g transform="translate(23.132812 247.416283)scale(0.1 -0.1)">
       <use xlink:href="#DejaVuSans-8722"/>
       <use x="83.789062" xlink:href="#DejaVuSans-50"/>
       <use x="147.412109" xlink:href="#DejaVuSans-48"/>
       <use x="211.035156" xlink:href="#DejaVuSans-48"/>
      </g>
     </g>
    </g>
    <g id="ytick_3">
     <g id="line2d_12">
      <g>
       <use style="stroke:#000000;stroke-width:0.8;" x="57.6" xlink:href="#mc8bad97a0b" y="204.06471"/>
      </g>
     </g>
     <g id="text_11">
      <!-- 0 -->
      <g transform="translate(44.2375 207.863928)scale(0.1 -0.1)">
       <use xlink:href="#DejaVuSans-48"/>
      </g>
     </g>
    </g>
    <g id="ytick_4">
     <g id="line2d_13">
      <g>
       <use style="stroke:#000000;stroke-width:0.8;" x="57.6" xlink:href="#mc8bad97a0b" y="164.512355"/>
      </g>
     </g>
     <g id="text_12">
      <!-- 200 -->
      <g transform="translate(31.5125 168.311574)scale(0.1 -0.1)">
       <use xlink:href="#DejaVuSans-50"/>
       <use x="63.623047" xlink:href="#DejaVuSans-48"/>
       <use x="127.246094" xlink:href="#DejaVuSans-48"/>
      </g>
     </g>
    </g>
    <g id="ytick_5">
     <g id="line2d_14">
      <g>
       <use style="stroke:#000000;stroke-width:0.8;" x="57.6" xlink:href="#mc8bad97a0b" y="124.96"/>
      </g>
     </g>
     <g id="text_13">
      <!-- 400 -->
      <g transform="translate(31.5125 128.759219)scale(0.1 -0.1)">
       <use xlink:href="#DejaVuSans-52"/>
       <use x="63.623047" xlink:href="#DejaVuSans-48"/>
       <use x="127.246094" xlink:href="#DejaVuSans-48"/>
      </g>
     </g>
    </g>
    <g id="ytick_6">
     <g id="line2d_15">
      <g>
       <use style="stroke:#000000;stroke-width:0.8;" x="57.6" xlink:href="#mc8bad97a0b" y="85.407646"/>
      </g>
     </g>
     <g id="text_14">
      <!-- 600 -->
      <defs>
       <path d="M 33.015625 40.375 
Q 26.375 40.375 22.484375 35.828125 
Q 18.609375 31.296875 18.609375 23.390625 
Q 18.609375 15.53125 22.484375 10.953125 
Q 26.375 6.390625 33.015625 6.390625 
Q 39.65625 6.390625 43.53125 10.953125 
Q 47.40625 15.53125 47.40625 23.390625 
Q 47.40625 31.296875 43.53125 35.828125 
Q 39.65625 40.375 33.015625 40.375 
z
M 52.59375 71.296875 
L 52.59375 62.3125 
Q 48.875 64.0625 45.09375 64.984375 
Q 41.3125 65.921875 37.59375 65.921875 
Q 27.828125 65.921875 22.671875 59.328125 
Q 17.53125 52.734375 16.796875 39.40625 
Q 19.671875 43.65625 24.015625 45.921875 
Q 28.375 48.1875 33.59375 48.1875 
Q 44.578125 48.1875 50.953125 41.515625 
Q 57.328125 34.859375 57.328125 23.390625 
Q 57.328125 12.15625 50.6875 5.359375 
Q 44.046875 -1.421875 33.015625 -1.421875 
Q 20.359375 -1.421875 13.671875 8.265625 
Q 6.984375 17.96875 6.984375 36.375 
Q 6.984375 53.65625 15.1875 63.9375 
Q 23.390625 74.21875 37.203125 74.21875 
Q 40.921875 74.21875 44.703125 73.484375 
Q 48.484375 72.75 52.59375 71.296875 
z
" id="DejaVuSans-54"/>
      </defs>
      <g transform="translate(31.5125 89.206864)scale(0.1 -0.1)">
       <use xlink:href="#DejaVuSans-54"/>
       <use x="63.623047" xlink:href="#DejaVuSans-48"/>
       <use x="127.246094" xlink:href="#DejaVuSans-48"/>
      </g>
     </g>
    </g>
    <g id="ytick_7">
     <g id="line2d_16">
      <g>
       <use style="stroke:#000000;stroke-width:0.8;" x="57.6" xlink:href="#mc8bad97a0b" y="45.855291"/>
      </g>
     </g>
     <g id="text_15">
      <!-- 800 -->
      <defs>
       <path d="M 31.78125 34.625 
Q 24.75 34.625 20.71875 30.859375 
Q 16.703125 27.09375 16.703125 20.515625 
Q 16.703125 13.921875 20.71875 10.15625 
Q 24.75 6.390625 31.78125 6.390625 
Q 38.8125 6.390625 42.859375 10.171875 
Q 46.921875 13.96875 46.921875 20.515625 
Q 46.921875 27.09375 42.890625 30.859375 
Q 38.875 34.625 31.78125 34.625 
z
M 21.921875 38.8125 
Q 15.578125 40.375 12.03125 44.71875 
Q 8.5 49.078125 8.5 55.328125 
Q 8.5 64.0625 14.71875 69.140625 
Q 20.953125 74.21875 31.78125 74.21875 
Q 42.671875 74.21875 48.875 69.140625 
Q 55.078125 64.0625 55.078125 55.328125 
Q 55.078125 49.078125 51.53125 44.71875 
Q 48 40.375 41.703125 38.8125 
Q 48.828125 37.15625 52.796875 32.3125 
Q 56.78125 27.484375 56.78125 20.515625 
Q 56.78125 9.90625 50.3125 4.234375 
Q 43.84375 -1.421875 31.78125 -1.421875 
Q 19.734375 -1.421875 13.25 4.234375 
Q 6.78125 9.90625 6.78125 20.515625 
Q 6.78125 27.484375 10.78125 32.3125 
Q 14.796875 37.15625 21.921875 38.8125 
z
M 18.3125 54.390625 
Q 18.3125 48.734375 21.84375 45.5625 
Q 25.390625 42.390625 31.78125 42.390625 
Q 38.140625 42.390625 41.71875 45.5625 
Q 45.3125 48.734375 45.3125 54.390625 
Q 45.3125 60.0625 41.71875 63.234375 
Q 38.140625 66.40625 31.78125 66.40625 
Q 25.390625 66.40625 21.84375 63.234375 
Q 18.3125 60.0625 18.3125 54.390625 
z
" id="DejaVuSans-56"/>
      </defs>
      <g transform="translate(31.5125 49.65451)scale(0.1 -0.1)">
       <use xlink:href="#DejaVuSans-56"/>
       <use x="63.623047" xlink:href="#DejaVuSans-48"/>
       <use x="127.246094" xlink:href="#DejaVuSans-48"/>
      </g>
     </g>
    </g>
   </g>
   <g id="line2d_17">
    <path clip-path="url(#pd3ae20da7e)" d="M 77.095047 62.178252 
L 329.437517 240.924445 
L 271.637692 267.262443 
L 269.121113 268.685505 
L 388.716923 260.758892 
L 380.926629 267.291536 
L 165.189509 290.287047 
" style="fill:none;stroke:#ff0000;stroke-linecap:square;stroke-width:0.5;"/>
   </g>
   <g id="patch_3">
    <path d="M 57.6 307.584 
L 57.6 41.472 
" style="fill:none;stroke:#000000;stroke-linecap:square;stroke-linejoin:miter;stroke-width:0.8;"/>
   </g>
   <g id="patch_4">
    <path d="M 414.72 307.584 
L 414.72 41.472 
" style="fill:none;stroke:#000000;stroke-linecap:square;stroke-linejoin:miter;stroke-width:0.8;"/>
   </g>
   <g id="patch_5">
    <path d="M 57.6 307.584 
L 414.72 307.584 
" style="fill:none;stroke:#000000;stroke-linecap:square;stroke-linejoin:miter;stroke-width:0.8;"/>
   </g>
   <g id="patch_6">
    <path d="M 57.6 41.472 
L 414.72 41.472 
" style="fill:none;stroke:#000000;stroke-linecap:square;stroke-linejoin:miter;stroke-width:0.8;"/>
   </g>
   <g id="PathCollection_1">
    <defs>
     <path d="M 0 2.738613 
C 0.726289 2.738613 1.422928 2.450055 1.936492 1.936492 
C 2.450055 1.422928 2.738613 0.726289 2.738613 0 
C 2.738613 -0.726289 2.450055 -1.422928 1.936492 -1.936492 
C 1.422928 -2.450055 0.726289 -2.738613 0 -2.738613 
C -0.726289 -2.738613 -1.422928 -2.450055 -1.936492 -1.936492 
C -2.450055 -1.422928 -2.738613 -0.726289 -2.738613 0 
C -2.738613 0.726289 -2.450055 1.422928 -1.936492 1.936492 
C -1.422928 2.450055 -0.726289 2.738613 0 2.738613 
z
" id="m01593d2599" style="stroke:#ff0000;"/>
    </defs>
    <g clip-path="url(#pd3ae20da7e)">
     <use style="fill:#ff0000;stroke:#ff0000;" x="77.095047" xlink:href="#m01593d2599" y="62.178252"/>
     <use style="fill:#ff0000;stroke:#ff0000;" x="329.437517" xlink:href="#m01593d2599" y="240.924445"/>
     <use style="fill:#ff0000;stroke:#ff0000;" x="271.637692" xlink:href="#m01593d2599" y="267.262443"/>
     <use style="fill:#ff0000;stroke:#ff0000;" x="269.121113" xlink:href="#m01593d2599" y="268.685505"/>
     <use style="fill:#ff0000;stroke:#ff0000;" x="388.716923" xlink:href="#m01593d2599" y="260.758892"/>
     <use style="fill:#ff0000;stroke:#ff0000;" x="380.926629" xlink:href="#m01593d2599" y="267.291536"/>
     <use style="fill:#ff0000;stroke:#ff0000;" x="165.189509" xlink:href="#m01593d2599" y="290.287047"/>
    </g>
   </g>
   <g id="text_16">
    <!-- (78) Subject: s7, Known = False, Degree = 1, Duration = 0.1 -->
    <defs>
     <path d="M 31 75.875 
Q 24.46875 64.65625 21.28125 53.65625 
Q 18.109375 42.671875 18.109375 31.390625 
Q 18.109375 20.125 21.3125 9.0625 
Q 24.515625 -2 31 -13.1875 
L 23.1875 -13.1875 
Q 15.875 -1.703125 12.234375 9.375 
Q 8.59375 20.453125 8.59375 31.390625 
Q 8.59375 42.28125 12.203125 53.3125 
Q 15.828125 64.359375 23.1875 75.875 
z
" id="DejaVuSans-40"/>
     <path d="M 8.203125 72.90625 
L 55.078125 72.90625 
L 55.078125 68.703125 
L 28.609375 0 
L 18.3125 0 
L 43.21875 64.59375 
L 8.203125 64.59375 
z
" id="DejaVuSans-55"/>
     <path d="M 8.015625 75.875 
L 15.828125 75.875 
Q 23.140625 64.359375 26.78125 53.3125 
Q 30.421875 42.28125 30.421875 31.390625 
Q 30.421875 20.453125 26.78125 9.375 
Q 23.140625 -1.703125 15.828125 -13.1875 
L 8.015625 -13.1875 
Q 14.5 -2 17.703125 9.0625 
Q 20.90625 20.125 20.90625 31.390625 
Q 20.90625 42.671875 17.703125 53.65625 
Q 14.5 64.65625 8.015625 75.875 
z
" id="DejaVuSans-41"/>
     <path id="DejaVuSans-32"/>
     <path d="M 53.515625 70.515625 
L 53.515625 60.890625 
Q 47.90625 63.578125 42.921875 64.890625 
Q 37.9375 66.21875 33.296875 66.21875 
Q 25.25 66.21875 20.875 63.09375 
Q 16.5 59.96875 16.5 54.203125 
Q 16.5 49.359375 19.40625 46.890625 
Q 22.3125 44.4375 30.421875 42.921875 
L 36.375 41.703125 
Q 47.40625 39.59375 52.65625 34.296875 
Q 57.90625 29 57.90625 20.125 
Q 57.90625 9.515625 50.796875 4.046875 
Q 43.703125 -1.421875 29.984375 -1.421875 
Q 24.8125 -1.421875 18.96875 -0.25 
Q 13.140625 0.921875 6.890625 3.21875 
L 6.890625 13.375 
Q 12.890625 10.015625 18.65625 8.296875 
Q 24.421875 6.59375 29.984375 6.59375 
Q 38.421875 6.59375 43.015625 9.90625 
Q 47.609375 13.234375 47.609375 19.390625 
Q 47.609375 24.75 44.3125 27.78125 
Q 41.015625 30.8125 33.5 32.328125 
L 27.484375 33.5 
Q 16.453125 35.6875 11.515625 40.375 
Q 6.59375 45.0625 6.59375 53.421875 
Q 6.59375 63.09375 13.40625 68.65625 
Q 20.21875 74.21875 32.171875 74.21875 
Q 37.3125 74.21875 42.625 73.28125 
Q 47.953125 72.359375 53.515625 70.515625 
z
" id="DejaVuSans-83"/>
     <path d="M 8.5 21.578125 
L 8.5 54.6875 
L 17.484375 54.6875 
L 17.484375 21.921875 
Q 17.484375 14.15625 20.5 10.265625 
Q 23.53125 6.390625 29.59375 6.390625 
Q 36.859375 6.390625 41.078125 11.03125 
Q 45.3125 15.671875 45.3125 23.6875 
L 45.3125 54.6875 
L 54.296875 54.6875 
L 54.296875 0 
L 45.3125 0 
L 45.3125 8.40625 
Q 42.046875 3.421875 37.71875 1 
Q 33.40625 -1.421875 27.6875 -1.421875 
Q 18.265625 -1.421875 13.375 4.4375 
Q 8.5 10.296875 8.5 21.578125 
z
M 31.109375 56 
z
" id="DejaVuSans-117"/>
     <path d="M 48.6875 27.296875 
Q 48.6875 37.203125 44.609375 42.84375 
Q 40.53125 48.484375 33.40625 48.484375 
Q 26.265625 48.484375 22.1875 42.84375 
Q 18.109375 37.203125 18.109375 27.296875 
Q 18.109375 17.390625 22.1875 11.75 
Q 26.265625 6.109375 33.40625 6.109375 
Q 40.53125 6.109375 44.609375 11.75 
Q 48.6875 17.390625 48.6875 27.296875 
z
M 18.109375 46.390625 
Q 20.953125 51.265625 25.265625 53.625 
Q 29.59375 56 35.59375 56 
Q 45.5625 56 51.78125 48.09375 
Q 58.015625 40.1875 58.015625 27.296875 
Q 58.015625 14.40625 51.78125 6.484375 
Q 45.5625 -1.421875 35.59375 -1.421875 
Q 29.59375 -1.421875 25.265625 0.953125 
Q 20.953125 3.328125 18.109375 8.203125 
L 18.109375 0 
L 9.078125 0 
L 9.078125 75.984375 
L 18.109375 75.984375 
z
" id="DejaVuSans-98"/>
     <path d="M 9.421875 54.6875 
L 18.40625 54.6875 
L 18.40625 -0.984375 
Q 18.40625 -11.421875 14.421875 -16.109375 
Q 10.453125 -20.796875 1.609375 -20.796875 
L -1.8125 -20.796875 
L -1.8125 -13.1875 
L 0.59375 -13.1875 
Q 5.71875 -13.1875 7.5625 -10.8125 
Q 9.421875 -8.453125 9.421875 -0.984375 
z
M 9.421875 75.984375 
L 18.40625 75.984375 
L 18.40625 64.59375 
L 9.421875 64.59375 
z
" id="DejaVuSans-106"/>
     <path d="M 56.203125 29.59375 
L 56.203125 25.203125 
L 14.890625 25.203125 
Q 15.484375 15.921875 20.484375 11.0625 
Q 25.484375 6.203125 34.421875 6.203125 
Q 39.59375 6.203125 44.453125 7.46875 
Q 49.3125 8.734375 54.109375 11.28125 
L 54.109375 2.78125 
Q 49.265625 0.734375 44.1875 -0.34375 
Q 39.109375 -1.421875 33.890625 -1.421875 
Q 20.796875 -1.421875 13.15625 6.1875 
Q 5.515625 13.8125 5.515625 26.8125 
Q 5.515625 40.234375 12.765625 48.109375 
Q 20.015625 56 32.328125 56 
Q 43.359375 56 49.78125 48.890625 
Q 56.203125 41.796875 56.203125 29.59375 
z
M 47.21875 32.234375 
Q 47.125 39.59375 43.09375 43.984375 
Q 39.0625 48.390625 32.421875 48.390625 
Q 24.90625 48.390625 20.390625 44.140625 
Q 15.875 39.890625 15.1875 32.171875 
z
" id="DejaVuSans-101"/>
     <path d="M 48.78125 52.59375 
L 48.78125 44.1875 
Q 44.96875 46.296875 41.140625 47.34375 
Q 37.3125 48.390625 33.40625 48.390625 
Q 24.65625 48.390625 19.8125 42.84375 
Q 14.984375 37.3125 14.984375 27.296875 
Q 14.984375 17.28125 19.8125 11.734375 
Q 24.65625 6.203125 33.40625 6.203125 
Q 37.3125 6.203125 41.140625 7.25 
Q 44.96875 8.296875 48.78125 10.40625 
L 48.78125 2.09375 
Q 45.015625 0.34375 40.984375 -0.53125 
Q 36.96875 -1.421875 32.421875 -1.421875 
Q 20.0625 -1.421875 12.78125 6.34375 
Q 5.515625 14.109375 5.515625 27.296875 
Q 5.515625 40.671875 12.859375 48.328125 
Q 20.21875 56 33.015625 56 
Q 37.15625 56 41.109375 55.140625 
Q 45.0625 54.296875 48.78125 52.59375 
z
" id="DejaVuSans-99"/>
     <path d="M 18.3125 70.21875 
L 18.3125 54.6875 
L 36.8125 54.6875 
L 36.8125 47.703125 
L 18.3125 47.703125 
L 18.3125 18.015625 
Q 18.3125 11.328125 20.140625 9.421875 
Q 21.96875 7.515625 27.59375 7.515625 
L 36.8125 7.515625 
L 36.8125 0 
L 27.59375 0 
Q 17.1875 0 13.234375 3.875 
Q 9.28125 7.765625 9.28125 18.015625 
L 9.28125 47.703125 
L 2.6875 47.703125 
L 2.6875 54.6875 
L 9.28125 54.6875 
L 9.28125 70.21875 
z
" id="DejaVuSans-116"/>
     <path d="M 11.71875 12.40625 
L 22.015625 12.40625 
L 22.015625 0 
L 11.71875 0 
z
M 11.71875 51.703125 
L 22.015625 51.703125 
L 22.015625 39.3125 
L 11.71875 39.3125 
z
" id="DejaVuSans-58"/>
     <path d="M 44.28125 53.078125 
L 44.28125 44.578125 
Q 40.484375 46.53125 36.375 47.5 
Q 32.28125 48.484375 27.875 48.484375 
Q 21.1875 48.484375 17.84375 46.4375 
Q 14.5 44.390625 14.5 40.28125 
Q 14.5 37.15625 16.890625 35.375 
Q 19.28125 33.59375 26.515625 31.984375 
L 29.59375 31.296875 
Q 39.15625 29.25 43.1875 25.515625 
Q 47.21875 21.78125 47.21875 15.09375 
Q 47.21875 7.46875 41.1875 3.015625 
Q 35.15625 -1.421875 24.609375 -1.421875 
Q 20.21875 -1.421875 15.453125 -0.5625 
Q 10.6875 0.296875 5.421875 2 
L 5.421875 11.28125 
Q 10.40625 8.6875 15.234375 7.390625 
Q 20.0625 6.109375 24.8125 6.109375 
Q 31.15625 6.109375 34.5625 8.28125 
Q 37.984375 10.453125 37.984375 14.40625 
Q 37.984375 18.0625 35.515625 20.015625 
Q 33.0625 21.96875 24.703125 23.78125 
L 21.578125 24.515625 
Q 13.234375 26.265625 9.515625 29.90625 
Q 5.8125 33.546875 5.8125 39.890625 
Q 5.8125 47.609375 11.28125 51.796875 
Q 16.75 56 26.8125 56 
Q 31.78125 56 36.171875 55.265625 
Q 40.578125 54.546875 44.28125 53.078125 
z
" id="DejaVuSans-115"/>
     <path d="M 11.71875 12.40625 
L 22.015625 12.40625 
L 22.015625 4 
L 14.015625 -11.625 
L 7.71875 -11.625 
L 11.71875 4 
z
" id="DejaVuSans-44"/>
     <path d="M 9.8125 72.90625 
L 19.671875 72.90625 
L 19.671875 42.09375 
L 52.390625 72.90625 
L 65.09375 72.90625 
L 28.90625 38.921875 
L 67.671875 0 
L 54.6875 0 
L 19.671875 35.109375 
L 19.671875 0 
L 9.8125 0 
z
" id="DejaVuSans-75"/>
     <path d="M 54.890625 33.015625 
L 54.890625 0 
L 45.90625 0 
L 45.90625 32.71875 
Q 45.90625 40.484375 42.875 44.328125 
Q 39.84375 48.1875 33.796875 48.1875 
Q 26.515625 48.1875 22.3125 43.546875 
Q 18.109375 38.921875 18.109375 30.90625 
L 18.109375 0 
L 9.078125 0 
L 9.078125 54.6875 
L 18.109375 54.6875 
L 18.109375 46.1875 
Q 21.34375 51.125 25.703125 53.5625 
Q 30.078125 56 35.796875 56 
Q 45.21875 56 50.046875 50.171875 
Q 54.890625 44.34375 54.890625 33.015625 
z
" id="DejaVuSans-110"/>
     <path d="M 30.609375 48.390625 
Q 23.390625 48.390625 19.1875 42.75 
Q 14.984375 37.109375 14.984375 27.296875 
Q 14.984375 17.484375 19.15625 11.84375 
Q 23.34375 6.203125 30.609375 6.203125 
Q 37.796875 6.203125 41.984375 11.859375 
Q 46.1875 17.53125 46.1875 27.296875 
Q 46.1875 37.015625 41.984375 42.703125 
Q 37.796875 48.390625 30.609375 48.390625 
z
M 30.609375 56 
Q 42.328125 56 49.015625 48.375 
Q 55.71875 40.765625 55.71875 27.296875 
Q 55.71875 13.875 49.015625 6.21875 
Q 42.328125 -1.421875 30.609375 -1.421875 
Q 18.84375 -1.421875 12.171875 6.21875 
Q 5.515625 13.875 5.515625 27.296875 
Q 5.515625 40.765625 12.171875 48.375 
Q 18.84375 56 30.609375 56 
z
" id="DejaVuSans-111"/>
     <path d="M 4.203125 54.6875 
L 13.1875 54.6875 
L 24.421875 12.015625 
L 35.59375 54.6875 
L 46.1875 54.6875 
L 57.421875 12.015625 
L 68.609375 54.6875 
L 77.59375 54.6875 
L 63.28125 0 
L 52.6875 0 
L 40.921875 44.828125 
L 29.109375 0 
L 18.5 0 
z
" id="DejaVuSans-119"/>
     <path d="M 10.59375 45.40625 
L 73.1875 45.40625 
L 73.1875 37.203125 
L 10.59375 37.203125 
z
M 10.59375 25.484375 
L 73.1875 25.484375 
L 73.1875 17.1875 
L 10.59375 17.1875 
z
" id="DejaVuSans-61"/>
     <path d="M 9.8125 72.90625 
L 51.703125 72.90625 
L 51.703125 64.59375 
L 19.671875 64.59375 
L 19.671875 43.109375 
L 48.578125 43.109375 
L 48.578125 34.8125 
L 19.671875 34.8125 
L 19.671875 0 
L 9.8125 0 
z
" id="DejaVuSans-70"/>
     <path d="M 34.28125 27.484375 
Q 23.390625 27.484375 19.1875 25 
Q 14.984375 22.515625 14.984375 16.5 
Q 14.984375 11.71875 18.140625 8.90625 
Q 21.296875 6.109375 26.703125 6.109375 
Q 34.1875 6.109375 38.703125 11.40625 
Q 43.21875 16.703125 43.21875 25.484375 
L 43.21875 27.484375 
z
M 52.203125 31.203125 
L 52.203125 0 
L 43.21875 0 
L 43.21875 8.296875 
Q 40.140625 3.328125 35.546875 0.953125 
Q 30.953125 -1.421875 24.3125 -1.421875 
Q 15.921875 -1.421875 10.953125 3.296875 
Q 6 8.015625 6 15.921875 
Q 6 25.140625 12.171875 29.828125 
Q 18.359375 34.515625 30.609375 34.515625 
L 43.21875 34.515625 
L 43.21875 35.40625 
Q 43.21875 41.609375 39.140625 45 
Q 35.0625 48.390625 27.6875 48.390625 
Q 23 48.390625 18.546875 47.265625 
Q 14.109375 46.140625 10.015625 43.890625 
L 10.015625 52.203125 
Q 14.9375 54.109375 19.578125 55.046875 
Q 24.21875 56 28.609375 56 
Q 40.484375 56 46.34375 49.84375 
Q 52.203125 43.703125 52.203125 31.203125 
z
" id="DejaVuSans-97"/>
     <path d="M 9.421875 75.984375 
L 18.40625 75.984375 
L 18.40625 0 
L 9.421875 0 
z
" id="DejaVuSans-108"/>
     <path d="M 19.671875 64.796875 
L 19.671875 8.109375 
L 31.59375 8.109375 
Q 46.6875 8.109375 53.6875 14.9375 
Q 60.6875 21.78125 60.6875 36.53125 
Q 60.6875 51.171875 53.6875 57.984375 
Q 46.6875 64.796875 31.59375 64.796875 
z
M 9.8125 72.90625 
L 30.078125 72.90625 
Q 51.265625 72.90625 61.171875 64.09375 
Q 71.09375 55.28125 71.09375 36.53125 
Q 71.09375 17.671875 61.125 8.828125 
Q 51.171875 0 30.078125 0 
L 9.8125 0 
z
" id="DejaVuSans-68"/>
     <path d="M 45.40625 27.984375 
Q 45.40625 37.75 41.375 43.109375 
Q 37.359375 48.484375 30.078125 48.484375 
Q 22.859375 48.484375 18.828125 43.109375 
Q 14.796875 37.75 14.796875 27.984375 
Q 14.796875 18.265625 18.828125 12.890625 
Q 22.859375 7.515625 30.078125 7.515625 
Q 37.359375 7.515625 41.375 12.890625 
Q 45.40625 18.265625 45.40625 27.984375 
z
M 54.390625 6.78125 
Q 54.390625 -7.171875 48.1875 -13.984375 
Q 42 -20.796875 29.203125 -20.796875 
Q 24.46875 -20.796875 20.265625 -20.09375 
Q 16.0625 -19.390625 12.109375 -17.921875 
L 12.109375 -9.1875 
Q 16.0625 -11.328125 19.921875 -12.34375 
Q 23.78125 -13.375 27.78125 -13.375 
Q 36.625 -13.375 41.015625 -8.765625 
Q 45.40625 -4.15625 45.40625 5.171875 
L 45.40625 9.625 
Q 42.625 4.78125 38.28125 2.390625 
Q 33.9375 0 27.875 0 
Q 17.828125 0 11.671875 7.65625 
Q 5.515625 15.328125 5.515625 27.984375 
Q 5.515625 40.671875 11.671875 48.328125 
Q 17.828125 56 27.875 56 
Q 33.9375 56 38.28125 53.609375 
Q 42.625 51.21875 45.40625 46.390625 
L 45.40625 54.6875 
L 54.390625 54.6875 
z
" id="DejaVuSans-103"/>
     <path d="M 41.109375 46.296875 
Q 39.59375 47.171875 37.8125 47.578125 
Q 36.03125 48 33.890625 48 
Q 26.265625 48 22.1875 43.046875 
Q 18.109375 38.09375 18.109375 28.8125 
L 18.109375 0 
L 9.078125 0 
L 9.078125 54.6875 
L 18.109375 54.6875 
L 18.109375 46.1875 
Q 20.953125 51.171875 25.484375 53.578125 
Q 30.03125 56 36.53125 56 
Q 37.453125 56 38.578125 55.875 
Q 39.703125 55.765625 41.0625 55.515625 
z
" id="DejaVuSans-114"/>
     <path d="M 9.421875 54.6875 
L 18.40625 54.6875 
L 18.40625 0 
L 9.421875 0 
z
M 9.421875 75.984375 
L 18.40625 75.984375 
L 18.40625 64.59375 
L 9.421875 64.59375 
z
" id="DejaVuSans-105"/>
     <path d="M 10.6875 12.40625 
L 21 12.40625 
L 21 0 
L 10.6875 0 
z
" id="DejaVuSans-46"/>
    </defs>
    <g transform="translate(53.559375 35.472)scale(0.12 -0.12)">
     <use xlink:href="#DejaVuSans-40"/>
     <use x="39.013672" xlink:href="#DejaVuSans-55"/>
     <use x="102.636719" xlink:href="#DejaVuSans-56"/>
     <use x="166.259766" xlink:href="#DejaVuSans-41"/>
     <use x="205.273438" xlink:href="#DejaVuSans-32"/>
     <use x="237.060547" xlink:href="#DejaVuSans-83"/>
     <use x="300.537109" xlink:href="#DejaVuSans-117"/>
     <use x="363.916016" xlink:href="#DejaVuSans-98"/>
     <use x="427.392578" xlink:href="#DejaVuSans-106"/>
     <use x="455.175781" xlink:href="#DejaVuSans-101"/>
     <use x="516.699219" xlink:href="#DejaVuSans-99"/>
     <use x="571.679688" xlink:href="#DejaVuSans-116"/>
     <use x="610.888672" xlink:href="#DejaVuSans-58"/>
     <use x="644.580078" xlink:href="#DejaVuSans-32"/>
     <use x="676.367188" xlink:href="#DejaVuSans-115"/>
     <use x="728.466797" xlink:href="#DejaVuSans-55"/>
     <use x="792.089844" xlink:href="#DejaVuSans-44"/>
     <use x="823.876953" xlink:href="#DejaVuSans-32"/>
     <use x="855.664062" xlink:href="#DejaVuSans-75"/>
     <use x="921.240234" xlink:href="#DejaVuSans-110"/>
     <use x="984.619141" xlink:href="#DejaVuSans-111"/>
     <use x="1045.800781" xlink:href="#DejaVuSans-119"/>
     <use x="1127.587891" xlink:href="#DejaVuSans-110"/>
     <use x="1190.966797" xlink:href="#DejaVuSans-32"/>
     <use x="1222.753906" xlink:href="#DejaVuSans-61"/>
     <use x="1306.542969" xlink:href="#DejaVuSans-32"/>
     <use x="1338.330078" xlink:href="#DejaVuSans-70"/>
     <use x="1395.708984" xlink:href="#DejaVuSans-97"/>
     <use x="1456.988281" xlink:href="#DejaVuSans-108"/>
     <use x="1484.771484" xlink:href="#DejaVuSans-115"/>
     <use x="1536.871094" xlink:href="#DejaVuSans-101"/>
     <use x="1598.394531" xlink:href="#DejaVuSans-44"/>
     <use x="1630.181641" xlink:href="#DejaVuSans-32"/>
     <use x="1661.96875" xlink:href="#DejaVuSans-68"/>
     <use x="1738.970703" xlink:href="#DejaVuSans-101"/>
     <use x="1800.494141" xlink:href="#DejaVuSans-103"/>
     <use x="1863.970703" xlink:href="#DejaVuSans-114"/>
     <use x="1905.052734" xlink:href="#DejaVuSans-101"/>
     <use x="1966.576172" xlink:href="#DejaVuSans-101"/>
     <use x="2028.099609" xlink:href="#DejaVuSans-32"/>
     <use x="2059.886719" xlink:href="#DejaVuSans-61"/>
     <use x="2143.675781" xlink:href="#DejaVuSans-32"/>
     <use x="2175.462891" xlink:href="#DejaVuSans-49"/>
     <use x="2239.085938" xlink:href="#DejaVuSans-44"/>
     <use x="2270.873047" xlink:href="#DejaVuSans-32"/>
     <use x="2302.660156" xlink:href="#DejaVuSans-68"/>
     <use x="2379.662109" xlink:href="#DejaVuSans-117"/>
     <use x="2443.041016" xlink:href="#DejaVuSans-114"/>
     <use x="2484.154297" xlink:href="#DejaVuSans-97"/>
     <use x="2545.433594" xlink:href="#DejaVuSans-116"/>
     <use x="2584.642578" xlink:href="#DejaVuSans-105"/>
     <use x="2612.425781" xlink:href="#DejaVuSans-111"/>
     <use x="2673.607422" xlink:href="#DejaVuSans-110"/>
     <use x="2736.986328" xlink:href="#DejaVuSans-32"/>
     <use x="2768.773438" xlink:href="#DejaVuSans-61"/>
     <use x="2852.5625" xlink:href="#DejaVuSans-32"/>
     <use x="2884.349609" xlink:href="#DejaVuSans-48"/>
     <use x="2947.972656" xlink:href="#DejaVuSans-46"/>
     <use x="2979.759766" xlink:href="#DejaVuSans-49"/>
    </g>
   </g>
  </g>
 </g>
 <defs>
  <clipPath id="pd3ae20da7e">
   <rect height="266.112" width="357.12" x="57.6" y="41.472"/>
  </clipPath>
 </defs>
</svg>
