<?xml version="1.0" encoding="utf-8" standalone="no"?>
<!DOCTYPE svg PUBLIC "-//W3C//DTD SVG 1.1//EN"
  "http://www.w3.org/Graphics/SVG/1.1/DTD/svg11.dtd">
<!-- Created with matplotlib (https://matplotlib.org/) -->
<svg height="345.6pt" version="1.1" viewBox="0 0 460.8 345.6" width="460.8pt" xmlns="http://www.w3.org/2000/svg" xmlns:xlink="http://www.w3.org/1999/xlink">
 <defs>
  <style type="text/css">
*{stroke-linecap:butt;stroke-linejoin:round;}
  </style>
 </defs>
 <g id="figure_1">
  <g id="patch_1">
   <path d="M 0 345.6 
L 460.8 345.6 
L 460.8 0 
L 0 0 
z
" style="fill:#ffffff;"/>
  </g>
  <g id="axes_1">
   <g id="patch_2">
    <path d="M 57.6 307.584 
L 414.72 307.584 
L 414.72 41.472 
L 57.6 41.472 
z
" style="fill:#ffffff;"/>
   </g>
   <g id="line2d_1">
    <path clip-path="url(#pcca2068e05)" d="M 74.823825 295.029886 
L 75.415569 295.488 
L 75.613789 295.488 
L 75.415569 295.029886 
L 75.217349 294.113659 
L 75.415569 293.426489 
L 75.415569 292.965103 
L 74.823825 292.736046 
L 75.217349 292.965103 
L 75.415569 292.736046 
L 75.217349 292.277932 
L 74.625606 291.819819 
L 74.823825 291.819819 
L 74.823825 291.590762 
L 74.625606 291.132648 
L 75.01913 290.674534 
L 75.613789 290.445478 
L 75.613789 290.216421 
L 75.415569 290.216421 
L 75.415569 290.445478 
L 75.613789 290.674534 
L 75.613789 290.216421 
L 75.217349 289.525978 
L 75.01913 288.609751 
L 75.01913 288.609751 
L 74.823825 288.838808 
L 74.625606 288.380694 
L 75.01913 287.693524 
L 75.415569 287.693524 
L 75.01913 287.92258 
L 75.01913 288.151637 
L 75.415569 288.151637 
L 75.812008 288.380694 
L 75.812008 287.92258 
L 75.613789 286.544967 
L 76.010228 286.774024 
L 76.205532 287.23541 
L 76.601972 287.464467 
L 76.403752 287.693524 
L 75.812008 287.693524 
L 75.812008 287.92258 
L 75.812008 287.92258 
L 76.010228 287.693524 
L 76.403752 287.464467 
L 76.998411 287.693524 
L 77.19663 288.151637 
L 76.800191 288.380694 
L 76.205532 288.151637 
L 75.812008 287.003081 
L 76.403752 286.31591 
L 76.998411 286.544967 
L 76.998411 285.857797 
L 77.19663 285.399683 
L 76.998411 285.62874 
L 76.601972 285.857797 
L 76.601972 286.544967 
L 76.601972 285.857797 
L 76.800191 285.170626 
L 77.19663 284.712513 
L 77.590155 284.712513 
L 77.986594 285.170626 
L 78.380118 285.170626 
L 78.974777 285.399683 
L 78.578338 285.399683 
L 77.788374 285.170626 
L 77.19663 284.712513 
L 77.19663 285.62874 
L 77.391935 286.086854 
L 77.788374 286.086854 
L 78.776557 285.399683 
L 78.380118 285.62874 
L 77.788374 286.544967 
L 77.590155 285.857797 
L 77.590155 284.712513 
L 78.380118 285.62874 
L 78.578338 285.399683 
L 78.380118 284.712513 
L 77.986594 284.254399 
L 77.986594 284.483456 
L 78.184813 284.712513 
L 78.380118 284.483456 
L 78.380118 284.254399 
L 78.184813 284.254399 
L 78.380118 284.483456 
L 78.776557 284.483456 
L 78.776557 284.254399 
L 78.578338 284.02207 
L 78.578338 283.563956 
L 78.974777 283.563956 
L 78.974777 284.02207 
L 78.578338 284.483456 
L 77.788374 284.483456 
L 77.391935 284.254399 
L 77.590155 283.793013 
L 77.788374 284.02207 
L 78.184813 284.02207 
L 78.578338 283.793013 
L 78.380118 283.334899 
L 77.986594 283.334899 
L 77.590155 283.105843 
L 77.590155 283.793013 
L 77.788374 284.02207 
L 78.184813 283.563956 
L 77.788374 284.02207 
L 77.391935 284.254399 
L 77.19663 283.793013 
L 77.391935 282.876786 
L 77.391935 281.731502 
L 76.998411 282.189615 
L 76.800191 282.189615 
L 76.800191 282.647729 
L 76.998411 282.876786 
L 76.601972 281.731502 
L 77.391935 280.124832 
L 77.391935 282.647729 
L 76.998411 282.647729 
L 76.403752 282.189615 
L 76.205532 281.731502 
L 76.403752 281.731502 
L 76.205532 281.731502 
L 76.205532 281.502445 
L 76.601972 281.731502 
L 76.601972 281.731502 
L 76.998411 281.273388 
L 76.601972 281.273388 
L 75.812008 280.812002 
L 75.415569 280.812002 
L 76.205532 281.502445 
L 76.800191 282.189615 
L 76.800191 281.960558 
L 76.601972 281.273388 
L 76.403752 281.502445 
L 76.205532 281.502445 
L 76.403752 281.502445 
L 76.403752 281.731502 
L 76.800191 281.502445 
L 76.998411 281.041059 
L 76.601972 280.582945 
L 75.812008 281.041059 
L 75.415569 281.502445 
L 75.415569 281.731502 
L 75.812008 281.273388 
L 76.010228 280.582945 
L 76.010228 280.582945 
L 76.403752 282.189615 
L 76.205532 282.189615 
L 76.010228 281.502445 
L 76.010228 280.812002 
L 76.403752 281.041059 
L 76.800191 281.502445 
L 76.403752 281.502445 
L 75.812008 281.041059 
L 75.415569 280.353888 
L 76.010228 279.666718 
L 76.010228 279.666718 
L 75.613789 280.353888 
L 75.217349 279.437661 
L 74.823825 279.666718 
L 74.823825 279.895775 
L 75.01913 280.124832 
L 75.415569 280.353888 
L 75.415569 280.812002 
L 75.01913 280.812002 
L 74.625606 280.582945 
L 74.625606 280.812002 
L 74.823825 281.273388 
L 74.625606 281.041059 
L 74.229166 280.812002 
L 74.030947 281.041059 
L 74.229166 281.041059 
L 74.229166 280.582945 
L 74.229166 280.812002 
L 74.427386 281.502445 
L 74.427386 281.041059 
L 74.427386 280.812002 
L 75.415569 280.812002 
L 75.01913 280.812002 
L 74.625606 279.666718 
L 74.427386 279.666718 
L 73.832727 280.124832 
L 73.832727 280.353888 
L 74.030947 280.582945 
L 74.625606 280.812002 
L 74.823825 281.273388 
L 74.625606 281.960558 
L 74.427386 281.731502 
L 74.625606 280.812002 
L 75.01913 280.582945 
L 75.01913 281.731502 
L 75.01913 281.502445 
L 74.823825 281.041059 
L 74.427386 280.582945 
L 74.823825 280.353888 
L 75.415569 280.812002 
L 76.205532 281.041059 
L 77.590155 280.582945 
L 79.371216 278.979548 
L 81.939326 277.372878 
L 85.105009 275.998537 
L 88.664217 274.16281 
L 92.616949 271.639912 
L 97.560779 268.658902 
L 103.492792 265.219777 
L 131.963538 247.562768 
L 139.673698 242.05886 
L 147.582076 236.558224 
L 171.111908 218.901215 
L 178.623848 213.626364 
L 185.742263 208.351512 
L 192.662459 203.076661 
L 198.792691 198.034138 
L 204.328265 193.904571 
L 214.41123 187.255379 
L 218.95862 184.732481 
L 222.914267 182.209584 
L 225.680596 179.686687 
L 227.855182 177.854232 
L 229.636243 176.705676 
L 232.799012 175.102278 
L 232.799012 175.331335 
L 232.402573 176.018505 
L 231.612609 176.247562 
L 230.029768 176.247562 
L 228.64806 176.476619 
L 227.263438 177.167062 
L 226.077036 178.541403 
L 224.692413 179.915744 
L 223.70423 180.37713 
L 223.109572 180.835243 
L 222.716048 181.522414 
L 222.517828 181.751471 
L 221.727865 182.209584 
L 221.133206 182.896755 
L 220.541462 183.129084 
L 220.343242 182.667698 
L 220.343242 181.522414 
L 219.946803 181.522414 
L 219.355059 182.209584 
L 218.168657 181.980527 
L 217.772218 182.209584 
L 217.180474 182.209584 
L 216.189376 183.358141 
L 216.189376 182.896755 
L 215.795852 182.438641 
L 215.201193 182.896755 
L 214.807669 183.358141 
L 214.807669 183.816254 
L 214.609449 184.045311 
L 214.21301 184.045311 
L 213.224827 183.587197 
L 213.621266 184.045311 
L 212.633083 184.503425 
L 212.434864 184.732481 
L 212.633083 184.732481 
L 212.236644 184.503425 
L 211.641985 183.816254 
L 210.852022 183.587197 
L 210.653802 184.045311 
L 211.446681 185.190595 
L 211.248461 185.419652 
L 210.852022 185.190595 
L 210.260278 184.503425 
L 210.062058 184.045311 
L 210.062058 184.045311 
L 209.4674 185.190595 
L 210.062058 185.190595 
L 210.455583 184.961538 
L 210.260278 184.961538 
L 209.863839 184.961538 
L 210.062058 184.961538 
L 209.863839 185.190595 
L 209.272095 185.648709 
L 208.479217 185.419652 
L 208.085692 184.961538 
L 208.085692 184.503425 
L 208.479217 184.961538 
L 208.677436 185.648709 
L 208.875656 185.877766 
L 208.677436 186.110095 
L 208.280997 186.110095 
L 207.689253 186.339151 
L 207.292814 186.110095 
L 207.292814 185.648709 
L 207.689253 185.648709 
L 208.085692 186.339151 
L 208.479217 186.797265 
L 208.280997 187.026322 
L 207.689253 187.484436 
L 207.094594 188.171606 
L 206.70107 188.171606 
L 206.70107 187.713492 
L 207.094594 187.713492 
L 207.094594 187.713492 
L 206.89929 187.484436 
L 206.502851 187.484436 
L 206.502851 187.255379 
L 206.70107 187.255379 
L 206.106412 187.942549 
L 205.908192 187.942549 
L 205.908192 187.255379 
L 206.106412 187.255379 
L 205.908192 187.713492 
L 205.712887 188.62972 
L 205.514668 188.858777 
L 205.712887 188.858777 
L 205.712887 188.400663 
L 205.118229 187.942549 
L 204.920009 188.171606 
L 204.721789 188.171606 
L 204.328265 188.62972 
L 204.130046 189.320162 
L 204.130046 189.320162 
L 203.538302 189.320162 
L 202.943643 189.091106 
L 202.943643 188.62972 
L 203.141863 188.400663 
L 203.141863 187.942549 
L 203.340082 187.942549 
L 203.538302 188.171606 
L 203.538302 188.400663 
L 203.340082 188.62972 
L 202.15368 188.62972 
L 201.95546 188.400663 
L 201.559021 188.171606 
L 201.165497 188.400663 
L 200.967277 188.858777 
L 200.769057 188.858777 
L 200.570838 188.62972 
L 200.372618 188.858777 
L 200.570838 189.549219 
L 200.570838 189.549219 
L 200.372618 189.320162 
L 199.780874 189.091106 
L 199.780874 189.320162 
L 200.372618 189.549219 
L 200.769057 189.549219 
L 200.570838 189.549219 
L 200.769057 188.62972 
L 201.360801 187.713492 
L 202.547204 186.568208 
L 204.526485 185.419652 
L 211.446681 182.896755 
L 215.597632 181.0643 
L 220.343242 177.854232 
L 230.426207 169.369313 
L 235.763561 165.701132 
L 241.497354 162.029678 
L 267.991735 143.914556 
L 274.716626 138.642976 
L 289.545201 129.238558 
L 297.05714 124.425092 
L 311.095752 115.711116 
L 318.015947 110.894378 
L 324.539704 106.080913 
L 331.4599 102.180402 
L 338.380096 98.741278 
L 345.102072 95.073096 
L 351.430524 90.946801 
L 357.756061 87.275348 
L 363.291635 83.836223 
L 369.025428 80.855212 
L 379.901271 74.435077 
L 384.250442 71.454066 
L 388.206089 68.931168 
L 391.765296 67.098714 
L 394.729845 65.721101 
L 397.102651 64.804873 
L 398.487273 64.117703 
L 398.090834 63.885374 
L 396.510907 64.117703 
L 394.333406 64.575816 
L 391.567077 66.179214 
L 390.182455 66.637328 
L 388.797833 67.327771 
L 387.217906 68.243998 
L 385.635064 69.389282 
L 383.064039 71.912179 
L 382.274076 72.370293 
L 381.285893 72.370293 
L 380.29771 72.141236 
L 379.901271 71.912179 
L 380.29771 71.683122 
L 381.877637 72.141236 
L 381.877637 72.141236 
L 381.087673 71.225009 
L 380.691234 71.454066 
L 380.29771 71.912179 
L 379.901271 72.59935 
L 379.901271 72.59935 
L 379.111307 72.59935 
L 379.111307 73.060736 
L 378.913088 73.060736 
L 378.516649 72.828407 
L 377.924905 72.828407 
L 376.143843 73.976963 
L 375.750319 74.435077 
L 375.35388 74.664133 
L 374.957441 74.664133 
L 374.563917 74.435077 
L 374.563917 73.976963 
L 374.759221 73.976963 
L 374.167478 74.664133 
L 373.572819 74.435077 
L 373.179295 73.976963 
L 373.179295 73.747906 
L 372.981075 74.20602 
L 372.389331 74.435077 
L 371.794672 74.435077 
L 371.992892 74.89319 
L 372.389331 75.122247 
L 372.191112 75.122247 
L 370.60827 75.122247 
L 370.211831 75.351304 
L 370.41005 75.122247 
L 370.211831 74.89319 
L 370.016526 74.89319 
L 369.620087 75.351304 
L 369.421867 75.351304 
L 369.421867 75.580361 
L 369.025428 75.809418 
L 367.247282 74.664133 
L 367.049062 74.89319 
L 367.049062 74.20602 
L 367.049062 74.664133 
L 366.850842 75.122247 
L 366.652623 75.122247 
L 366.457318 74.435077 
L 366.259099 74.20602 
L 365.469135 73.747906 
L 365.270916 73.976963 
L 365.072696 74.89319 
L 365.270916 74.89319 
L 365.469135 75.122247 
L 365.072696 75.122247 
L 364.282733 75.351304 
L 364.084513 75.122247 
L 364.084513 74.664133 
L 364.478037 74.664133 
L 364.676257 74.89319 
L 363.886294 76.270803 
L 363.688074 76.041747 
L 363.688074 75.351304 
L 363.09633 75.122247 
L 362.105232 75.351304 
L 362.105232 74.89319 
L 361.909928 74.664133 
L 361.711708 74.89319 
L 362.105232 75.122247 
L 362.501671 75.809418 
L 361.909928 76.270803 
L 361.315269 75.809418 
L 360.91883 75.809418 
L 360.525305 76.957974 
L 360.91883 76.728917 
L 361.117049 75.580361 
L 361.117049 74.89319 
L 361.315269 74.664133 
L 361.117049 75.122247 
L 360.723525 75.580361 
L 360.128866 75.809418 
L 359.735342 76.270803 
L 359.140683 76.49986 
L 358.942464 76.270803 
L 359.140683 76.041747 
L 359.140683 76.041747 
L 359.338903 76.270803 
L 359.338903 76.728917 
L 359.140683 76.728917 
L 359.140683 76.270803 
L 359.338903 75.580361 
L 359.140683 75.351304 
L 358.548939 75.809418 
L 358.35072 76.49986 
L 358.35072 76.957974 
L 358.1525 77.416088 
L 357.954281 77.187031 
L 358.1525 76.49986 
L 358.35072 76.270803 
L 356.966098 75.351304 
L 356.966098 75.809418 
L 357.362537 76.49986 
L 357.557842 77.645144 
L 357.164317 77.874201 
L 356.767878 77.416088 
L 356.767878 77.187031 
L 357.164317 78.103258 
L 356.767878 77.874201 
L 356.371439 77.187031 
L 356.371439 76.270803 
L 356.371439 77.187031 
L 356.966098 77.645144 
L 357.362537 77.416088 
L 357.164317 77.416088 
L 355.779695 77.874201 
L 355.779695 77.645144 
L 356.371439 76.957974 
L 357.164317 76.728917 
L 357.362537 77.645144 
L 357.164317 78.561372 
L 357.362537 78.561372 
L 356.176134 78.561372 
L 355.581476 79.022758 
L 355.383256 79.480871 
L 355.977915 79.480871 
L 356.569659 79.938985 
L 356.569659 79.709928 
L 355.779695 79.709928 
L 355.185036 79.938985 
L 354.791512 79.480871 
L 354.791512 79.022758 
L 354.989732 78.790428 
L 354.791512 79.022758 
L 354.989732 79.022758 
L 355.383256 79.251814 
L 355.383256 79.938985 
L 354.791512 79.938985 
L 354.395073 79.480871 
L 354.196853 79.022758 
L 354.395073 78.561372 
L 354.791512 78.332315 
L 355.383256 78.561372 
L 355.383256 79.022758 
L 353.803329 79.938985 
L 354.001549 79.938985 
L 354.001549 80.168042 
L 354.001549 79.022758 
L 354.001549 79.022758 
L 353.803329 79.251814 
L 353.803329 80.626155 
L 353.40689 80.626155 
L 353.010451 80.168042 
L 352.815146 80.168042 
L 353.010451 80.397098 
L 354.001549 80.397098 
L 354.001549 80.168042 
L 353.40689 80.168042 
L 353.010451 80.397098 
L 353.010451 80.626155 
L 353.40689 80.626155 
L 353.40689 80.397098 
L 353.40689 80.397098 
L 353.010451 79.938985 
L 352.815146 79.938985 
L 353.20867 80.397098 
L 353.60511 81.084269 
L 353.803329 81.084269 
L 353.803329 80.855212 
L 353.803329 81.542383 
L 353.60511 82.003768 
L 353.40689 82.003768 
L 353.40689 81.084269 
L 353.60511 80.626155 
L 353.803329 81.084269 
L 353.803329 82.003768 
L 353.40689 82.232825 
L 352.616927 82.232825 
L 351.824048 82.461882 
L 352.022268 82.461882 
L 351.824048 81.771439 
L 352.022268 80.855212 
L 352.418707 80.626155 
L 352.815146 81.084269 
L 352.815146 81.542383 
L 352.220487 82.232825 
L 351.628744 82.690939 
L 351.430524 83.149053 
L 351.430524 82.919996 
L 351.232304 82.461882 
L 350.637646 82.003768 
L 350.835865 81.771439 
L 351.232304 82.461882 
L 351.430524 82.461882 
L 351.430524 82.461882 
L 350.637646 82.919996 
L 350.442341 82.690939 
L 350.244121 82.232825 
L 350.442341 81.771439 
L 350.835865 81.771439 
L 351.232304 82.003768 
L 351.232304 82.690939 
L 350.835865 83.149053 
L 350.244121 83.378109 
L 349.847682 83.378109 
L 350.244121 83.378109 
L 350.442341 83.149053 
L 350.244121 82.690939 
L 350.045902 82.919996 
L 349.847682 82.919996 
L 349.649463 82.461882 
L 349.649463 82.461882 
L 349.451243 82.919996 
L 349.057719 82.919996 
L 348.46306 82.003768 
L 348.267756 82.232825 
L 348.66128 82.461882 
L 349.057719 82.003768 
L 348.66128 82.003768 
L 348.069536 82.690939 
L 347.673097 82.690939 
L 347.474877 82.919996 
L 347.474877 82.919996 
L 348.46306 82.919996 
L 348.46306 83.149053 
L 347.871316 83.149053 
L 346.883133 82.690939 
L 346.684914 82.919996 
L 346.684914 82.919996 
L 346.486694 83.836223 
L 346.288475 83.378109 
L 345.696731 83.149053 
L 345.89495 83.378109 
L 345.89495 83.607166 
L 345.696731 83.607166 
L 345.300292 83.149053 
L 345.300292 82.461882 
L 345.498511 82.232825 
L 346.090255 83.378109 
L 346.684914 83.836223 
L 346.486694 84.06528 
L 345.300292 83.607166 
L 344.903852 83.607166 
L 345.102072 83.378109 
L 345.696731 83.378109 
L 345.696731 83.607166 
L 345.102072 83.836223 
L 344.312109 83.607166 
L 344.312109 83.149053 
L 344.708548 82.232825 
L 345.498511 81.313326 
L 345.498511 81.084269 
L 345.300292 81.084269 
L 344.708548 81.771439 
L 344.708548 81.771439 
L 345.102072 81.771439 
L 345.300292 82.003768 
L 345.102072 81.771439 
L 345.102072 81.084269 
L 345.498511 80.397098 
L 346.090255 79.938985 
L 346.883133 80.168042 
L 346.684914 80.626155 
L 346.090255 81.084269 
L 345.300292 80.855212 
L 345.300292 80.397098 
L 345.89495 80.397098 
L 345.89495 80.397098 
L 346.684914 79.938985 
L 347.474877 79.709928 
L 347.474877 79.938985 
L 346.883133 79.709928 
L 346.684914 79.022758 
L 346.684914 78.790428 
L 346.684914 78.790428 
L 346.486694 79.251814 
L 346.684914 79.709928 
L 346.684914 79.480871 
L 346.684914 79.022758 
L 346.883133 78.790428 
L 347.474877 78.561372 
L 347.673097 77.874201 
L 347.474877 76.957974 
L 346.883133 76.957974 
L 346.486694 77.874201 
L 346.090255 78.332315 
L 345.696731 77.645144 
L 345.696731 76.041747 
L 346.486694 76.49986 
L 346.486694 76.49986 
L 345.696731 76.49986 
L 345.696731 76.49986 
L 346.090255 75.580361 
L 346.090255 74.435077 
L 346.090255 74.435077 
L 346.486694 74.435077 
L 346.883133 73.976963 
L 346.684914 73.976963 
L 345.696731 73.518849 
L 346.090255 72.370293 
L 346.090255 73.060736 
L 345.498511 73.747906 
L 345.498511 73.747906 
L 345.696731 73.060736 
L 345.696731 73.060736 
L 345.102072 73.518849 
L 344.903852 73.289792 
L 344.903852 72.370293 
L 345.102072 72.141236 
L 344.903852 72.59935 
L 344.903852 73.060736 
L 345.696731 73.060736 
L 345.696731 73.060736 
L 345.498511 73.289792 
L 345.696731 73.289792 
L 345.89495 72.828407 
L 345.696731 71.912179 
L 345.300292 71.683122 
L 345.300292 72.141236 
L 344.903852 72.59935 
L 344.903852 72.828407 
L 345.696731 72.828407 
L 346.288475 71.912179 
L 346.288475 71.225009 
L 345.696731 70.995952 
L 344.903852 71.454066 
L 344.510328 72.370293 
L 344.903852 73.060736 
L 345.498511 73.060736 
L 345.89495 72.59935 
L 346.090255 72.141236 
L 345.498511 71.454066 
L 345.300292 71.454066 
L 344.708548 72.59935 
L 344.903852 73.060736 
L 345.498511 72.828407 
L 345.696731 72.59935 
L 344.312109 72.59935 
L 344.312109 73.060736 
L 344.708548 73.289792 
L 344.708548 72.828407 
L 344.510328 71.683122 
L 344.708548 72.370293 
L 344.903852 72.59935 
L 345.300292 72.828407 
L 345.696731 73.289792 
L 345.300292 72.828407 
L 344.708548 72.370293 
L 344.903852 72.370293 
L 344.708548 72.59935 
L 344.708548 73.060736 
L 344.903852 73.060736 
L 343.522145 72.370293 
L 343.125706 72.141236 
L 344.903852 73.289792 
L 344.903852 72.828407 
L 344.312109 72.370293 
L 344.312109 72.370293 
L 343.915669 72.828407 
L 343.522145 73.060736 
L 343.522145 72.828407 
L 344.903852 71.912179 
L 342.729267 73.289792 
L 341.34756 73.747906 
L 339.962938 74.435077 
L 338.181876 75.809418 
L 333.832705 78.790428 
L 327.702473 83.607166 
L 324.14618 86.130064 
L 320.190533 89.340131 
L 315.643142 92.779256 
L 310.897532 95.53121 
L 306.548361 97.82505 
L 301.802751 100.118891 
L 296.068957 102.180402 
L 290.335164 104.016129 
L 284.99781 106.768083 
L 279.855761 110.207208 
L 268.784613 118.234013 
L 262.8526 122.360309 
L 256.920588 126.718933 
L 251.186794 130.616171 
L 245.84944 133.826239 
L 240.90561 136.578193 
L 232.997231 141.853044 
L 229.239804 144.604998 
L 217.970437 153.318974 
L 213.621266 156.299985 
L 209.863839 159.048667 
L 202.943643 163.636348 
L 199.979094 165.701132 
L 197.20985 167.075473 
L 194.837045 168.453086 
L 193.254203 169.827427 
L 189.893215 172.121267 
L 189.69791 171.89221 
L 189.69791 170.972711 
L 189.499691 170.056484 
L 189.499691 170.28554 
L 189.69791 170.28554 
L 189.893215 170.056484 
L 190.091434 169.59837 
L 190.487873 169.59837 
L 190.884313 169.369313 
L 191.277837 168.224029 
L 191.079617 168.224029 
L 190.487873 168.682143 
L 190.091434 169.140256 
L 189.69791 169.827427 
L 189.301471 170.972711 
L 189.301471 171.434097 
L 189.499691 171.20504 
L 189.103251 170.743654 
L 188.115068 170.972711 
L 187.325105 171.663154 
L 186.334007 172.350324 
L 185.742263 173.037495 
L 185.544044 173.495608 
L 185.742263 173.495608 
L 185.940483 172.808438 
L 183.964117 173.953722 
L 183.567678 173.495608 
L 183.567678 173.037495 
L 183.964117 173.037495 
L 183.765897 173.724665 
L 183.369458 174.415108 
L 183.567678 174.186051 
L 183.964117 174.186051 
L 183.964117 174.186051 
L 183.765897 173.724665 
L 182.381275 173.266551 
L 182.183055 173.266551 
L 182.381275 173.724665 
L 182.183055 174.415108 
L 181.393092 175.331335 
L 180.996653 175.560392 
L 180.798433 175.331335 
L 180.798433 175.102278 
L 180.404909 175.789449 
L 180.00847 175.560392 
L 179.416726 174.873221 
L 179.416726 174.644165 
L 180.00847 174.644165 
L 180.404909 175.102278 
L 180.404909 175.560392 
L 180.404909 175.331335 
L 180.20669 174.873221 
L 179.81025 175.102278 
L 179.416726 175.560392 
L 179.020287 175.789449 
L 178.822067 175.560392 
L 179.020287 175.560392 
L 179.416726 176.018505 
L 179.416726 175.560392 
L 178.822067 176.247562 
L 178.032104 176.476619 
L 177.437445 176.476619 
L 177.833884 176.476619 
L 178.425628 176.247562 
L 178.822067 175.560392 
L 178.822067 175.789449 
L 178.425628 176.018505 
L 178.032104 176.018505 
L 178.032104 175.789449 
L 178.230324 175.560392 
L 177.833884 175.789449 
L 176.647482 176.247562 
L 177.239226 176.476619 
L 177.437445 176.705676 
L 177.239226 176.934733 
L 177.437445 176.934733 
L 177.635665 176.705676 
L 177.043921 176.476619 
L 176.647482 175.789449 
L 176.647482 175.331335 
L 176.449262 175.102278 
L 176.052823 175.331335 
L 175.857518 176.018505 
L 176.052823 176.476619 
L 176.647482 177.167062 
L 176.449262 176.934733 
L 176.052823 176.934733 
L 174.86642 177.396119 
L 174.86642 176.705676 
L 175.461079 176.018505 
L 175.857518 176.247562 
L 175.857518 176.476619 
L 175.857518 176.247562 
L 175.659299 176.018505 
L 175.06464 176.018505 
L 174.671116 176.476619 
L 174.86642 176.476619 
L 175.06464 176.018505 
L 175.06464 175.560392 
L 174.671116 175.102278 
L 174.274677 175.102278 
L 173.680018 175.789449 
L 173.484713 176.476619 
L 173.286494 176.476619 
L 173.286494 176.247562 
L 173.680018 175.789449 
L 174.274677 175.560392 
L 174.076457 175.560392 
L 173.484713 175.560392 
L 173.286494 176.018505 
L 172.49653 176.476619 
L 172.49653 176.018505 
L 172.100091 175.560392 
L 171.505432 175.331335 
L 171.310128 175.102278 
L 171.505432 175.331335 
L 171.703652 175.789449 
L 172.298311 176.018505 
L 172.691835 175.789449 
L 172.49653 176.018505 
L 172.49653 176.247562 
L 172.49653 175.331335 
L 172.298311 175.331335 
L 172.100091 175.560392 
L 172.100091 176.705676 
L 172.100091 176.705676 
L 171.111908 176.018505 
L 170.715469 176.247562 
L 171.111908 176.476619 
L 172.49653 175.560392 
L 172.298311 175.560392 
L 171.703652 176.018505 
L 171.505432 176.705676 
L 171.505432 177.396119 
L 171.310128 177.396119 
L 171.310128 177.167062 
L 170.715469 176.705676 
L 171.111908 176.247562 
L 171.310128 176.247562 
L 171.111908 176.705676 
L 170.517249 176.934733 
L 170.123725 176.934733 
L 170.123725 176.934733 
L 169.925506 177.167062 
L 169.727286 176.934733 
L 170.123725 176.476619 
L 170.123725 176.934733 
L 170.31903 177.625175 
L 170.123725 177.167062 
L 169.727286 176.476619 
L 169.330847 176.247562 
L 169.330847 176.705676 
L 169.727286 176.705676 
L 170.123725 176.476619 
L 170.123725 176.934733 
L 169.925506 177.625175 
L 170.123725 178.312346 
L 170.517249 178.312346 
L 170.913689 178.083289 
L 170.913689 177.625175 
L 170.517249 177.167062 
L 169.132627 176.476619 
L 169.132627 177.396119 
L 168.937323 178.083289 
L 168.144444 178.083289 
L 167.946225 177.625175 
L 168.342664 177.396119 
L 168.540883 177.625175 
L 169.132627 177.625175 
L 169.330847 177.396119 
L 168.937323 177.396119 
L 168.739103 177.625175 
L 168.540883 177.625175 
L 168.739103 177.625175 
L 168.739103 178.999516 
L 168.342664 178.999516 
L 167.5527 176.476619 
L 167.75092 176.476619 
L 167.75092 176.705676 
L 167.5527 177.167062 
L 166.958042 178.083289 
L 166.762737 179.45763 
L 167.354481 178.999516 
L 167.946225 177.167062 
L 167.946225 177.167062 
L 167.5527 177.625175 
L 167.5527 177.625175 
L 167.946225 176.934733 
L 168.540883 176.476619 
L 169.132627 176.476619 
L 169.727286 176.247562 
L 170.715469 175.331335 
L 171.703652 174.186051 
L 173.088274 173.495608 
L 174.472896 173.495608 
L 175.659299 173.037495 
L 176.845701 172.121267 
L 177.833884 171.20504 
L 178.623848 169.369313 
L 178.425628 168.682143 
L 177.833884 168.682143 
L 177.239226 169.140256 
L 176.647482 169.827427 
L 176.052823 170.056484 
L 175.659299 170.743654 
L 175.461079 171.663154 
L 175.06464 172.121267 
L 174.86642 172.808438 
L 174.274677 173.495608 
L 173.680018 173.266551 
L 173.484713 172.808438 
L 173.484713 172.808438 
L 173.286494 173.037495 
L 173.484713 173.495608 
L 173.680018 173.495608 
L 173.680018 172.808438 
L 174.076457 172.121267 
L 173.680018 172.121267 
L 172.890055 172.350324 
L 172.890055 172.350324 
L 172.890055 172.579381 
L 173.680018 172.350324 
L 173.680018 172.350324 
L 172.298311 172.350324 
L 172.49653 172.579381 
L 172.49653 173.037495 
L 172.298311 173.266551 
L 172.100091 173.266551 
L 171.901872 173.037495 
L 172.298311 173.495608 
L 172.49653 173.495608 
L 172.49653 173.266551 
L 171.111908 173.266551 
L 171.111908 173.037495 
L 171.703652 173.037495 
L 172.49653 173.266551 
L 173.088274 173.724665 
L 173.088274 173.953722 
L 172.100091 173.953722 
L 171.703652 173.495608 
L 171.505432 173.037495 
L 171.310128 173.037495 
L 171.310128 173.495608 
L 171.310128 173.037495 
L 170.715469 173.266551 
L 169.925506 173.953722 
L 170.123725 174.186051 
L 171.111908 174.186051 
L 170.715469 174.186051 
L 171.111908 174.644165 
L 170.123725 174.186051 
L 169.925506 174.186051 
L 170.31903 174.186051 
L 170.715469 174.415108 
L 170.517249 174.644165 
L 170.123725 174.644165 
L 169.330847 173.724665 
L 169.330847 173.724665 
L 169.330847 173.495608 
L 169.529066 173.266551 
L 170.123725 173.266551 
L 170.123725 173.266551 
L 169.330847 173.953722 
L 169.529066 174.415108 
L 169.727286 174.186051 
L 169.727286 173.724665 
L 169.330847 173.724665 
L 168.540883 173.953722 
L 168.739103 173.495608 
L 168.937323 173.724665 
L 168.937323 174.415108 
L 169.132627 174.186051 
L 169.132627 173.953722 
L 168.937323 173.953722 
L 168.540883 174.415108 
L 168.342664 174.415108 
L 168.144444 174.186051 
L 168.342664 174.415108 
L 168.739103 175.102278 
L 168.540883 175.560392 
L 167.75092 174.873221 
L 167.75092 175.789449 
L 167.5527 176.247562 
L 167.354481 176.018505 
L 167.75092 175.331335 
L 167.946225 174.644165 
L 168.144444 174.644165 
L 168.342664 174.873221 
L 168.342664 175.789449 
L 168.144444 175.789449 
L 167.946225 175.331335 
L 167.354481 174.873221 
L 166.958042 174.415108 
L 167.354481 173.953722 
L 167.75092 174.415108 
L 167.156261 175.789449 
L 167.156261 175.789449 
L 167.156261 175.331335 
L 167.354481 174.873221 
L 167.156261 174.873221 
L 166.762737 176.018505 
L 167.354481 175.331335 
L 167.5527 174.644165 
L 167.354481 174.873221 
L 166.762737 175.331335 
L 166.168078 175.331335 
L 166.168078 175.102278 
L 166.564517 175.102278 
L 166.762737 174.873221 
L 167.156261 175.102278 
L 167.354481 175.560392 
L 166.958042 175.560392 
L 166.564517 175.789449 
L 166.168078 175.331335 
L 166.168078 175.331335 
L 166.564517 175.331335 
L 166.762737 175.560392 
L 166.564517 176.018505 
L 165.771639 176.018505 
L 166.762737 175.331335 
L 166.762737 175.331335 
L 166.168078 175.102278 
L 165.969859 175.331335 
L 165.771639 175.789449 
L 165.576334 175.789449 
L 165.576334 175.560392 
L 165.771639 175.560392 
L 165.969859 176.247562 
L 165.969859 176.934733 
L 166.168078 177.167062 
L 166.168078 176.934733 
L 165.576334 175.560392 
L 165.576334 175.789449 
L 165.378115 176.018505 
L 164.981676 176.247562 
L 164.981676 176.247562 
L 165.378115 176.247562 
L 165.771639 176.018505 
L 165.969859 176.247562 
L 165.576334 176.247562 
L 164.783456 176.705676 
L 163.993493 176.934733 
L 165.179895 176.476619 
L 165.771639 176.934733 
L 165.969859 177.396119 
L 165.771639 177.396119 
L 164.783456 176.705676 
L 164.783456 176.247562 
L 164.981676 175.789449 
L 164.783456 176.247562 
L 164.585237 176.018505 
L 164.389932 176.018505 
L 164.389932 176.018505 
L 164.389932 176.476619 
L 164.191712 176.934733 
L 164.389932 176.934733 
L 164.389932 175.789449 
L 164.389932 175.789449 
L 163.993493 176.247562 
L 163.795273 176.247562 
L 163.795273 176.018505 
L 164.191712 175.789449 
L 164.389932 176.018505 
L 163.597054 176.018505 
L 163.00531 176.247562 
L 162.80709 176.476619 
L 163.00531 176.476619 
L 163.00531 176.934733 
L 162.608871 177.625175 
L 163.00531 177.625175 
L 163.398834 177.854232 
L 163.398834 177.625175 
L 162.80709 177.167062 
L 162.80709 176.934733 
L 164.191712 177.396119 
L 165.378115 176.934733 
L 167.354481 175.331335 
L 173.088274 172.121267 
L 176.251043 169.827427 
L 180.404909 167.075473 
L 185.150519 164.094462 
L 195.825228 156.529042 
L 201.95546 152.170418 
L 208.085692 148.044123 
L 214.41123 143.456442 
L 221.133206 138.41392 
L 228.053402 133.368125 
L 235.171817 128.780444 
L 242.683757 123.737922 
L 257.710551 112.501048 
L 279.855761 98.054107 
L 286.775956 93.23737 
L 294.092591 89.111074 
L 301.802751 85.67195 
L 308.722946 82.232825 
L 320.388753 74.664133 
L 326.122546 71.454066 
L 331.26168 68.931168 
L 335.809071 66.866385 
L 339.962938 64.117703 
L 344.113889 61.136692 
L 347.871316 59.300965 
L 350.637646 58.155681 
L 352.616927 56.549011 
L 353.803329 54.942341 
L 354.593293 54.25517 
L 355.185036 54.026114 
L 355.581476 53.568 
L 355.383256 53.797057 
L 354.196853 54.484227 
L 352.220487 55.17467 
L 352.022268 55.632784 
L 350.835865 56.319954 
L 348.66128 57.236181 
L 345.498511 59.071908 
L 344.903852 59.759079 
L 344.903852 62.052919 
L 344.510328 62.281976 
L 343.915669 62.052919 
L 344.113889 62.052919 
L 344.708548 61.594806 
L 344.510328 61.365749 
L 343.915669 61.136692 
L 343.915669 61.136692 
L 344.312109 60.904363 
L 344.312109 60.904363 
L 343.71745 60.904363 
L 342.927486 61.136692 
L 342.729267 61.594806 
L 343.125706 61.594806 
L 342.927486 61.594806 
L 341.34756 62.511033 
L 340.95112 62.511033 
L 341.14934 62.511033 
L 341.14934 62.74009 
L 340.752901 62.74009 
L 339.764718 63.885374 
L 339.566498 64.575816 
L 339.170059 65.03393 
L 338.974755 64.575816 
L 338.380096 63.885374 
L 337.983657 63.656317 
L 337.983657 63.656317 
L 337.983657 64.34676 
L 338.380096 64.804873 
L 337.590132 64.34676 
L 337.193693 64.575816 
L 336.40373 64.575816 
L 336.007291 64.804873 
L 336.20551 65.492044 
L 336.601949 66.179214 
L 336.601949 67.327771 
L 336.797254 67.327771 
L 336.995474 67.098714 
L 337.193693 67.098714 
L 336.797254 67.327771 
L 336.20551 67.098714 
L 335.613766 66.637328 
L 335.415547 66.637328 
L 335.217327 67.327771 
L 335.415547 68.243998 
L 335.019108 68.243998 
L 335.019108 67.098714 
L 335.019108 67.327771 
L 334.820888 68.014941 
L 334.622668 68.243998 
L 334.622668 68.014941 
L 334.820888 68.014941 
L 334.427364 68.014941 
L 334.229144 67.785884 
L 334.229144 67.785884 
L 334.229144 67.556827 
L 334.229144 67.556827 
L 334.622668 67.327771 
L 335.019108 67.327771 
L 335.019108 67.785884 
L 335.019108 67.098714 
L 334.622668 66.637328 
L 334.229144 66.866385 
L 333.634485 66.866385 
L 333.240961 66.408271 
L 333.436266 66.179214 
L 334.030925 66.637328 
L 334.622668 66.866385 
L 334.820888 66.637328 
L 335.019108 66.637328 
L 334.622668 67.556827 
L 334.427364 67.556827 
L 334.622668 67.098714 
L 335.019108 66.637328 
L 335.019108 65.721101 
L 334.820888 66.179214 
L 335.217327 66.637328 
L 335.217327 66.408271 
L 335.217327 66.637328 
L 334.820888 66.637328 
L 334.030925 66.179214 
L 334.030925 66.179214 
L 334.030925 65.950157 
L 333.832705 65.492044 
L 334.030925 65.262987 
L 334.820888 67.098714 
L 334.622668 66.637328 
L 334.229144 65.03393 
L 333.832705 65.262987 
L 333.634485 65.721101 
L 333.634485 65.262987 
L 334.030925 64.34676 
L 334.030925 64.34676 
L 333.436266 65.03393 
L 333.436266 65.262987 
L 333.436266 65.03393 
L 333.240961 65.03393 
L 333.240961 65.03393 
L 333.042742 64.34676 
L 333.240961 64.575816 
L 333.240961 64.575816 
L 333.240961 64.34676 
L 333.436266 64.34676 
L 333.042742 64.34676 
L 332.844522 64.117703 
L 333.240961 63.656317 
L 333.634485 63.656317 
L 333.634485 64.117703 
L 333.436266 64.575816 
L 333.634485 64.117703 
L 333.832705 63.198203 
L 333.634485 62.969146 
L 333.634485 63.42726 
L 334.030925 64.117703 
L 334.030925 63.885374 
L 333.832705 63.42726 
L 333.042742 62.969146 
L 332.249863 62.74009 
L 332.249863 62.74009 
L 333.240961 64.34676 
L 333.240961 64.117703 
L 333.042742 63.885374 
L 332.844522 64.117703 
L 332.646302 64.117703 
L 332.646302 63.885374 
L 332.646302 63.885374 
L 332.054559 64.34676 
L 332.054559 64.34676 
L 332.054559 64.575816 
L 331.856339 64.34676 
L 331.65812 64.575816 
L 332.249863 65.262987 
L 331.856339 64.34676 
L 332.646302 64.34676 
L 332.844522 64.117703 
L 332.448083 64.117703 
L 331.856339 64.575816 
L 331.856339 65.03393 
L 332.054559 65.03393 
L 332.249863 64.804873 
L 331.856339 64.575816 
L 330.868156 64.575816 
L 331.65812 63.656317 
L 331.65812 63.42726 
L 330.868156 64.804873 
L 331.063461 64.804873 
L 331.26168 64.575816 
L 331.4599 64.575816 
L 331.856339 63.885374 
L 332.249863 64.34676 
L 332.448083 64.804873 
L 332.448083 65.262987 
L 332.249863 64.804873 
L 331.856339 64.575816 
L 331.4599 64.804873 
L 331.26168 64.575816 
L 331.65812 64.117703 
L 332.054559 64.117703 
L 332.054559 64.575816 
L 332.249863 64.804873 
L 332.054559 64.804873 
L 331.4599 64.34676 
L 331.4599 64.575816 
L 331.856339 65.492044 
L 331.65812 65.492044 
L 331.65812 65.492044 
L 332.054559 65.721101 
L 332.249863 66.179214 
L 332.448083 65.950157 
L 332.844522 65.262987 
L 332.448083 65.492044 
L 331.856339 65.492044 
L 331.65812 64.117703 
L 331.65812 64.804873 
L 331.65812 65.492044 
L 331.65812 65.262987 
L 332.054559 65.262987 
L 332.054559 65.492044 
L 332.249863 65.721101 
L 332.249863 65.492044 
L 332.054559 65.03393 
L 331.65812 65.03393 
L 331.4599 65.262987 
L 331.856339 65.262987 
L 332.448083 64.804873 
L 332.448083 64.575816 
L 332.249863 64.804873 
L 331.063461 64.804873 
L 331.063461 65.262987 
L 331.26168 65.03393 
L 331.26168 64.575816 
L 331.063461 64.804873 
L 331.063461 64.804873 
L 330.471717 64.117703 
L 330.471717 64.34676 
L 330.669937 65.262987 
L 330.669937 65.950157 
L 330.471717 65.262987 
L 330.075278 64.804873 
L 329.879973 64.804873 
L 330.075278 65.492044 
L 330.273497 65.721101 
L 330.471717 65.03393 
L 330.273497 65.492044 
L 329.879973 65.262987 
L 329.879973 64.804873 
L 329.879973 65.262987 
L 330.075278 64.34676 
L 329.879973 64.117703 
L 329.285314 64.804873 
L 328.888875 65.03393 
L 329.087095 65.03393 
L 328.888875 65.262987 
L 329.087095 65.262987 
L 329.681754 64.575816 
L 329.483534 65.03393 
L 329.285314 66.179214 
L 329.087095 65.950157 
L 328.693571 65.950157 
L 328.297131 66.408271 
L 328.098912 66.408271 
L 328.098912 66.408271 
L 328.297131 66.637328 
L 328.495351 66.637328 
L 328.297131 66.408271 
L 328.297131 65.721101 
L 327.900692 65.03393 
L 327.702473 65.262987 
L 328.495351 65.721101 
L 328.495351 67.098714 
L 328.297131 66.866385 
L 327.702473 66.866385 
L 327.110729 67.098714 
L 326.71429 67.098714 
L 326.320765 66.866385 
L 326.320765 66.179214 
L 326.320765 66.408271 
L 327.507168 67.098714 
L 327.308948 67.098714 
L 327.110729 67.098714 
L 326.71429 66.866385 
L 326.51607 66.408271 
L 326.71429 66.408271 
L 327.110729 66.637328 
L 327.110729 68.014941 
L 326.912509 68.243998 
L 326.912509 68.014941 
L 326.320765 68.014941 
L 325.924326 67.785884 
L 325.924326 67.327771 
L 326.320765 67.556827 
L 326.51607 68.014941 
L 326.320765 67.785884 
L 325.924326 67.327771 
L 326.122546 67.327771 
L 326.51607 67.098714 
L 326.320765 66.866385 
L 326.122546 67.098714 
L 326.320765 67.556827 
L 326.320765 68.473055 
L 326.51607 68.473055 
L 326.71429 68.014941 
L 326.912509 68.014941 
L 326.912509 68.243998 
L 326.51607 68.243998 
L 325.924326 68.014941 
L 325.527887 68.014941 
L 326.51607 68.014941 
L 326.71429 67.785884 
L 326.71429 67.556827 
L 326.912509 67.327771 
L 326.912509 67.327771 
L 326.912509 66.408271 
L 326.912509 66.637328 
L 326.51607 67.098714 
L 326.122546 67.785884 
L 326.122546 68.243998 
L 326.320765 68.243998 
L 326.51607 68.014941 
L 326.320765 68.243998 
L 325.924326 68.473055 
L 325.527887 68.014941 
L 325.726107 67.327771 
L 325.726107 66.637328 
L 325.726107 66.866385 
L 326.122546 67.098714 
L 325.924326 67.327771 
L 325.726107 67.785884 
L 326.122546 68.243998 
L 326.71429 68.014941 
L 326.912509 67.098714 
L 326.71429 66.866385 
L 326.51607 66.866385 
L 326.320765 66.637328 
L 325.924326 66.866385 
L 325.527887 67.327771 
L 325.527887 68.014941 
L 325.329667 68.473055 
L 324.936143 66.866385 
L 325.329667 66.637328 
L 326.122546 66.866385 
L 325.924326 66.408271 
L 325.924326 66.408271 
L 325.924326 66.866385 
L 325.527887 67.327771 
L 324.737924 67.785884 
L 324.737924 67.098714 
L 324.936143 67.098714 
L 326.122546 66.637328 
L 325.726107 68.243998 
L 325.329667 68.014941 
L 324.936143 67.556827 
L 324.341484 67.098714 
L 324.539704 66.637328 
L 325.134363 66.637328 
L 325.329667 66.866385 
L 325.329667 66.866385 
L 326.51607 66.866385 
L 326.51607 66.866385 
L 325.924326 65.262987 
L 325.527887 65.721101 
L 325.329667 66.408271 
L 325.527887 66.866385 
L 325.726107 66.866385 
L 325.726107 66.866385 
L 325.924326 67.327771 
L 326.320765 67.327771 
L 326.122546 67.098714 
L 324.936143 66.637328 
L 325.726107 65.262987 
L 325.527887 65.492044 
L 325.329667 66.179214 
L 325.726107 67.556827 
L 325.726107 67.556827 
L 325.329667 67.098714 
L 324.737924 66.637328 
L 324.539704 66.866385 
L 324.737924 68.014941 
L 324.936143 68.243998 
L 325.329667 67.327771 
L 325.134363 66.637328 
L 324.737924 66.866385 
L 324.341484 67.785884 
L 323.94796 68.014941 
L 323.94796 67.785884 
L 324.539704 67.556827 
L 324.539704 67.556827 
L 324.341484 67.785884 
L 324.341484 68.014941 
L 324.936143 68.014941 
L 325.329667 67.556827 
L 324.936143 67.556827 
L 324.341484 66.866385 
L 323.94796 66.637328 
L 324.539704 68.014941 
L 324.936143 67.556827 
L 325.329667 67.556827 
L 325.527887 67.785884 
L 325.527887 68.014941 
L 325.527887 67.785884 
L 325.134363 67.327771 
L 324.341484 66.866385 
L 324.341484 66.637328 
L 324.341484 67.098714 
L 324.936143 69.389282 
L 323.551521 68.473055 
L 324.936143 68.473055 
L 324.936143 68.702112 
L 324.539704 69.160225 
L 324.341484 69.160225 
L 324.936143 67.098714 
L 326.122546 66.179214 
L 327.308948 65.721101 
L 328.297131 65.492044 
L 329.087095 65.03393 
L 329.483534 64.34676 
L 330.273497 63.42726 
L 331.4599 62.74009 
L 332.448083 62.511033 
L 333.436266 61.823862 
L 335.217327 59.759079 
L 336.007291 59.530022 
L 336.40373 59.759079 
L 336.20551 59.759079 
L 336.007291 59.988136 
L 335.217327 60.446249 
L 334.229144 61.365749 
L 333.634485 61.594806 
L 333.240961 62.052919 
L 332.844522 62.052919 
L 332.844522 61.823862 
L 332.448083 61.594806 
L 331.856339 62.052919 
L 331.65812 62.969146 
L 331.856339 64.117703 
L 332.054559 64.575816 
L 331.856339 64.34676 
L 331.856339 62.74009 
L 331.4599 62.74009 
L 332.448083 62.281976 
L 332.448083 62.511033 
L 331.856339 62.511033 
L 331.65812 61.823862 
L 331.856339 61.365749 
L 332.054559 61.365749 
L 331.856339 61.823862 
L 331.65812 61.823862 
L 331.4599 61.594806 
L 331.26168 62.052919 
L 331.4599 62.511033 
L 331.26168 62.969146 
L 330.868156 63.42726 
L 330.273497 63.885374 
L 330.273497 63.42726 
L 330.868156 62.74009 
L 331.063461 62.74009 
L 330.868156 63.42726 
L 330.471717 63.885374 
L 330.669937 63.42726 
L 331.063461 62.969146 
L 331.26168 62.969146 
L 330.868156 63.656317 
L 330.471717 64.117703 
L 330.273497 64.117703 
L 330.075278 63.656317 
L 330.075278 62.969146 
L 330.471717 62.969146 
L 330.669937 62.74009 
L 331.063461 62.74009 
L 330.868156 63.198203 
L 330.868156 64.34676 
L 330.868156 64.117703 
L 330.471717 63.42726 
L 330.273497 62.281976 
L 330.669937 64.117703 
L 330.669937 63.885374 
L 330.273497 63.656317 
L 330.075278 64.34676 
L 330.273497 65.03393 
L 330.669937 64.804873 
L 330.471717 64.117703 
L 329.483534 63.885374 
L 329.087095 64.117703 
L 329.483534 64.34676 
L 330.273497 64.34676 
L 330.075278 64.117703 
L 329.681754 64.117703 
L 329.681754 64.34676 
L 330.075278 64.34676 
L 330.075278 63.885374 
L 329.483534 64.34676 
L 329.483534 64.804873 
L 329.285314 65.03393 
L 328.888875 65.03393 
L 329.087095 65.262987 
L 329.483534 65.03393 
L 329.087095 64.575816 
L 328.495351 64.575816 
L 328.297131 64.804873 
L 328.297131 65.03393 
L 328.297131 65.03393 
L 328.495351 65.262987 
L 329.483534 65.492044 
L 329.087095 65.492044 
L 328.495351 64.804873 
L 328.495351 64.804873 
L 328.098912 64.804873 
L 327.900692 64.34676 
L 327.702473 64.575816 
L 327.702473 65.492044 
L 328.098912 65.721101 
L 328.888875 65.262987 
L 329.285314 64.804873 
L 329.087095 65.03393 
L 328.888875 65.03393 
L 327.900692 64.575816 
L 328.098912 64.804873 
L 328.693571 65.262987 
L 328.888875 65.950157 
L 328.693571 65.492044 
L 328.297131 65.03393 
L 327.900692 63.885374 
L 328.098912 64.575816 
L 327.702473 65.721101 
L 327.702473 65.262987 
L 328.098912 65.262987 
L 328.495351 65.492044 
L 328.693571 65.950157 
L 327.900692 65.721101 
L 327.110729 65.262987 
L 326.912509 65.492044 
L 327.308948 66.637328 
L 327.702473 66.179214 
L 327.900692 65.721101 
L 327.702473 65.721101 
L 327.507168 65.492044 
L 327.308948 65.721101 
L 327.110729 65.492044 
L 327.110729 64.804873 
L 327.308948 64.34676 
L 327.900692 64.804873 
L 328.098912 65.721101 
L 327.900692 66.408271 
L 327.702473 66.179214 
L 327.702473 65.492044 
L 327.507168 65.262987 
L 327.308948 65.492044 
L 327.110729 65.492044 
L 327.110729 65.721101 
L 326.912509 65.950157 
L 326.912509 66.179214 
L 327.110729 66.179214 
L 327.507168 67.098714 
L 326.51607 66.408271 
L 326.71429 66.408271 
L 326.71429 66.637328 
L 327.110729 68.243998 
L 327.308948 68.243998 
L 327.507168 68.702112 
L 326.51607 68.243998 
L 325.726107 68.243998 
L 324.539704 68.702112 
L 323.551521 68.931168 
L 322.166899 69.618339 
L 320.586972 70.766895 
L 313.862081 76.728917 
L 307.140105 82.003768 
L 302.790934 84.75245 
L 298.045323 87.275348 
L 293.299713 90.027302 
L 288.160579 92.779256 
L 282.625005 95.53121 
L 276.692992 97.82505 
L 270.959199 100.577005 
L 265.027186 104.016129 
L 247.429367 116.8564 
L 241.695574 120.066468 
L 236.556439 123.276536 
L 221.923169 134.284352 
L 207.491034 145.750282 
L 202.745423 148.502237 
L 193.058898 153.548031 
L 188.706812 156.299985 
L 184.9523 159.280996 
L 181.786616 162.491064 
L 178.623848 165.472075 
L 175.26286 167.533586 
L 172.691835 168.682143 
L 170.913689 169.827427 
L 169.925506 170.743654 
L 168.739103 171.20504 
L 167.946225 171.663154 
L 167.5527 171.663154 
L 167.75092 171.434097 
L 167.5527 171.663154 
L 167.75092 171.89221 
L 168.342664 172.121267 
L 169.132627 171.663154 
L 169.727286 170.743654 
L 169.727286 169.369313 
L 169.529066 168.911199 
L 168.739103 169.827427 
L 168.144444 170.28554 
L 167.75092 170.972711 
L 167.75092 171.663154 
L 167.354481 172.121267 
L 166.762737 171.89221 
L 165.969859 171.434097 
L 165.179895 171.434097 
L 163.993493 172.121267 
L 163.398834 173.037495 
L 163.398834 174.186051 
L 163.00531 174.644165 
L 163.00531 174.873221 
L 163.203529 174.873221 
L 162.608871 174.873221 
L 162.212431 174.644165 
L 162.212431 173.953722 
L 162.410651 173.495608 
L 162.80709 173.495608 
L 163.00531 173.953722 
L 162.410651 175.102278 
L 162.212431 175.331335 
L 161.818907 175.331335 
L 160.830724 174.873221 
L 161.028944 174.644165 
L 161.422468 174.644165 
L 161.422468 175.102278 
L 160.037846 176.018505 
L 160.037846 176.247562 
L 160.037846 176.247562 
L 159.644322 175.789449 
L 159.446102 175.789449 
L 159.247882 176.018505 
L 158.851443 176.247562 
L 158.851443 176.476619 
L 158.06148 178.083289 
L 157.86326 178.083289 
L 157.86326 177.854232 
L 157.665041 177.396119 
L 157.271516 177.167062 
L 157.86326 177.167062 
L 157.86326 177.396119 
L 157.073297 177.854232 
L 156.676858 178.312346 
L 157.073297 178.541403 
L 157.665041 178.541403 
L 157.665041 178.541403 
L 156.676858 178.083289 
L 156.283334 178.541403 
L 155.886894 178.312346 
L 155.886894 177.854232 
L 156.085114 178.312346 
L 155.688675 178.999516 
L 155.096931 179.45763 
L 154.502272 179.686687 
L 154.502272 180.148073 
L 154.304053 180.37713 
L 154.108748 180.148073 
L 154.502272 178.999516 
L 154.108748 179.228573 
L 154.108748 180.835243 
L 153.910528 180.606186 
L 153.712309 180.148073 
L 153.910528 179.915744 
L 153.910528 179.686687 
L 153.712309 179.45763 
L 153.910528 179.228573 
L 153.910528 179.228573 
L 154.108748 179.686687 
L 154.108748 180.37713 
L 153.514089 180.835243 
L 153.31587 180.606186 
L 153.31587 178.77046 
L 153.11765 178.77046 
L 153.11765 179.915744 
L 152.922345 180.37713 
L 152.724126 180.37713 
L 153.31587 179.915744 
L 153.11765 180.148073 
L 152.724126 179.686687 
L 152.327687 179.45763 
L 152.525906 179.686687 
L 152.525906 180.148073 
L 151.735943 181.0643 
L 151.931247 181.0643 
L 151.931247 180.835243 
L 151.735943 181.0643 
L 151.931247 181.522414 
L 151.735943 181.522414 
L 150.943064 181.0643 
L 150.54954 180.606186 
L 150.943064 180.148073 
L 151.537723 180.148073 
L 151.537723 180.835243 
L 151.141284 181.293357 
L 151.339504 181.522414 
L 151.339504 181.980527 
L 151.141284 181.980527 
L 150.744845 181.522414 
L 150.744845 181.0643 
L 150.744845 181.0643 
L 150.54954 181.0643 
L 150.744845 181.522414 
L 151.339504 181.751471 
L 151.735943 181.751471 
L 151.735943 181.751471 
L 151.339504 181.980527 
L 151.141284 182.438641 
L 151.537723 182.438641 
L 151.537723 181.980527 
L 151.931247 181.293357 
L 151.931247 181.293357 
L 152.129467 181.522414 
L 152.525906 182.209584 
L 152.724126 181.980527 
L 152.724126 181.522414 
L 152.129467 181.293357 
L 151.735943 181.751471 
L 151.537723 181.522414 
L 151.735943 181.293357 
L 152.129467 181.293357 
L 152.327687 181.0643 
L 152.525906 180.606186 
L 152.327687 180.606186 
L 152.327687 181.0643 
L 152.327687 181.0643 
L 153.11765 181.522414 
L 153.31587 181.293357 
L 152.922345 180.148073 
L 153.514089 179.686687 
L 153.910528 179.915744 
L 153.910528 180.37713 
L 153.712309 180.835243 
L 154.502272 179.228573 
L 154.304053 178.77046 
L 153.910528 178.77046 
L 153.910528 178.312346 
L 154.108748 178.083289 
L 154.502272 178.083289 
L 154.898711 178.541403 
L 154.898711 179.228573 
L 154.898711 178.77046 
L 154.700492 178.312346 
L 154.108748 177.854232 
L 153.910528 177.396119 
L 153.910528 176.934733 
L 155.096931 176.934733 
L 155.096931 177.167062 
L 154.898711 177.854232 
L 154.700492 177.625175 
L 154.700492 177.625175 
L 154.700492 177.167062 
L 154.304053 176.476619 
L 154.108748 175.789449 
L 153.910528 175.560392 
L 154.502272 176.705676 
L 155.096931 176.705676 
L 155.096931 176.018505 
L 155.295151 174.873221 
L 155.096931 174.873221 
L 154.502272 175.560392 
L 153.910528 175.789449 
L 153.910528 175.789449 
L 154.108748 176.247562 
L 154.700492 176.476619 
L 155.096931 176.247562 
L 155.096931 175.789449 
L 154.502272 174.644165 
L 154.108748 174.415108 
L 154.108748 174.873221 
L 154.502272 175.560392 
L 154.700492 175.560392 
L 154.700492 175.560392 
L 154.898711 175.331335 
L 155.096931 175.331335 
L 154.898711 175.560392 
L 154.108748 175.331335 
L 154.108748 175.560392 
L 154.502272 175.331335 
L 154.898711 175.331335 
L 155.096931 175.560392 
L 154.700492 176.018505 
L 154.304053 176.247562 
L 153.910528 175.789449 
L 153.712309 175.331335 
L 154.108748 175.331335 
L 154.304053 175.560392 
L 154.108748 176.018505 
L 153.712309 175.560392 
L 153.712309 175.331335 
L 153.514089 175.102278 
L 153.514089 174.873221 
L 154.700492 174.873221 
L 155.096931 175.331335 
L 154.898711 175.789449 
L 154.700492 175.789449 
L 154.898711 175.560392 
L 154.898711 176.018505 
L 155.096931 176.705676 
L 155.096931 177.167062 
L 154.898711 176.705676 
L 154.898711 176.247562 
L 155.096931 176.247562 
L 155.295151 176.018505 
L 155.295151 176.018505 
L 155.295151 175.789449 
L 155.295151 176.247562 
L 155.490455 175.789449 
L 155.490455 175.789449 
" style="fill:none;stroke:#1f77b4;stroke-linecap:square;stroke-width:1.5;"/>
   </g>
   <g id="matplotlib.axis_1">
    <g id="xtick_1">
     <g id="line2d_2">
      <defs>
       <path d="M 0 0 
L 0 3.5 
" id="m6976fcd07e" style="stroke:#000000;stroke-width:0.8;"/>
      </defs>
      <g>
       <use style="stroke:#000000;stroke-width:0.8;" x="78.610402" xlink:href="#m6976fcd07e" y="307.584"/>
      </g>
     </g>
     <g id="text_1">
      <!-- −600 -->
      <defs>
       <path d="M 10.59375 35.5 
L 73.1875 35.5 
L 73.1875 27.203125 
L 10.59375 27.203125 
z
" id="DejaVuSans-8722"/>
       <path d="M 33.015625 40.375 
Q 26.375 40.375 22.484375 35.828125 
Q 18.609375 31.296875 18.609375 23.390625 
Q 18.609375 15.53125 22.484375 10.953125 
Q 26.375 6.390625 33.015625 6.390625 
Q 39.65625 6.390625 43.53125 10.953125 
Q 47.40625 15.53125 47.40625 23.390625 
Q 47.40625 31.296875 43.53125 35.828125 
Q 39.65625 40.375 33.015625 40.375 
z
M 52.59375 71.296875 
L 52.59375 62.3125 
Q 48.875 64.0625 45.09375 64.984375 
Q 41.3125 65.921875 37.59375 65.921875 
Q 27.828125 65.921875 22.671875 59.328125 
Q 17.53125 52.734375 16.796875 39.40625 
Q 19.671875 43.65625 24.015625 45.921875 
Q 28.375 48.1875 33.59375 48.1875 
Q 44.578125 48.1875 50.953125 41.515625 
Q 57.328125 34.859375 57.328125 23.390625 
Q 57.328125 12.15625 50.6875 5.359375 
Q 44.046875 -1.421875 33.015625 -1.421875 
Q 20.359375 -1.421875 13.671875 8.265625 
Q 6.984375 17.96875 6.984375 36.375 
Q 6.984375 53.65625 15.1875 63.9375 
Q 23.390625 74.21875 37.203125 74.21875 
Q 40.921875 74.21875 44.703125 73.484375 
Q 48.484375 72.75 52.59375 71.296875 
z
" id="DejaVuSans-54"/>
       <path d="M 31.78125 66.40625 
Q 24.171875 66.40625 20.328125 58.90625 
Q 16.5 51.421875 16.5 36.375 
Q 16.5 21.390625 20.328125 13.890625 
Q 24.171875 6.390625 31.78125 6.390625 
Q 39.453125 6.390625 43.28125 13.890625 
Q 47.125 21.390625 47.125 36.375 
Q 47.125 51.421875 43.28125 58.90625 
Q 39.453125 66.40625 31.78125 66.40625 
z
M 31.78125 74.21875 
Q 44.046875 74.21875 50.515625 64.515625 
Q 56.984375 54.828125 56.984375 36.375 
Q 56.984375 17.96875 50.515625 8.265625 
Q 44.046875 -1.421875 31.78125 -1.421875 
Q 19.53125 -1.421875 13.0625 8.265625 
Q 6.59375 17.96875 6.59375 36.375 
Q 6.59375 54.828125 13.0625 64.515625 
Q 19.53125 74.21875 31.78125 74.21875 
z
" id="DejaVuSans-48"/>
      </defs>
      <g transform="translate(64.876809 322.182437)scale(0.1 -0.1)">
       <use xlink:href="#DejaVuSans-8722"/>
       <use x="83.789062" xlink:href="#DejaVuSans-54"/>
       <use x="147.412109" xlink:href="#DejaVuSans-48"/>
       <use x="211.035156" xlink:href="#DejaVuSans-48"/>
      </g>
     </g>
    </g>
    <g id="xtick_2">
     <g id="line2d_3">
      <g>
       <use style="stroke:#000000;stroke-width:0.8;" x="136.910283" xlink:href="#m6976fcd07e" y="307.584"/>
      </g>
     </g>
     <g id="text_2">
      <!-- −400 -->
      <defs>
       <path d="M 37.796875 64.3125 
L 12.890625 25.390625 
L 37.796875 25.390625 
z
M 35.203125 72.90625 
L 47.609375 72.90625 
L 47.609375 25.390625 
L 58.015625 25.390625 
L 58.015625 17.1875 
L 47.609375 17.1875 
L 47.609375 0 
L 37.796875 0 
L 37.796875 17.1875 
L 4.890625 17.1875 
L 4.890625 26.703125 
z
" id="DejaVuSans-52"/>
      </defs>
      <g transform="translate(123.176689 322.182437)scale(0.1 -0.1)">
       <use xlink:href="#DejaVuSans-8722"/>
       <use x="83.789062" xlink:href="#DejaVuSans-52"/>
       <use x="147.412109" xlink:href="#DejaVuSans-48"/>
       <use x="211.035156" xlink:href="#DejaVuSans-48"/>
      </g>
     </g>
    </g>
    <g id="xtick_3">
     <g id="line2d_4">
      <g>
       <use style="stroke:#000000;stroke-width:0.8;" x="195.210164" xlink:href="#m6976fcd07e" y="307.584"/>
      </g>
     </g>
     <g id="text_3">
      <!-- −200 -->
      <defs>
       <path d="M 19.1875 8.296875 
L 53.609375 8.296875 
L 53.609375 0 
L 7.328125 0 
L 7.328125 8.296875 
Q 12.9375 14.109375 22.625 23.890625 
Q 32.328125 33.6875 34.8125 36.53125 
Q 39.546875 41.84375 41.421875 45.53125 
Q 43.3125 49.21875 43.3125 52.78125 
Q 43.3125 58.59375 39.234375 62.25 
Q 35.15625 65.921875 28.609375 65.921875 
Q 23.96875 65.921875 18.8125 64.3125 
Q 13.671875 62.703125 7.8125 59.421875 
L 7.8125 69.390625 
Q 13.765625 71.78125 18.9375 73 
Q 24.125 74.21875 28.421875 74.21875 
Q 39.75 74.21875 46.484375 68.546875 
Q 53.21875 62.890625 53.21875 53.421875 
Q 53.21875 48.921875 51.53125 44.890625 
Q 49.859375 40.875 45.40625 35.40625 
Q 44.1875 33.984375 37.640625 27.21875 
Q 31.109375 20.453125 19.1875 8.296875 
z
" id="DejaVuSans-50"/>
      </defs>
      <g transform="translate(181.47657 322.182437)scale(0.1 -0.1)">
       <use xlink:href="#DejaVuSans-8722"/>
       <use x="83.789062" xlink:href="#DejaVuSans-50"/>
       <use x="147.412109" xlink:href="#DejaVuSans-48"/>
       <use x="211.035156" xlink:href="#DejaVuSans-48"/>
      </g>
     </g>
    </g>
    <g id="xtick_4">
     <g id="line2d_5">
      <g>
       <use style="stroke:#000000;stroke-width:0.8;" x="253.510044" xlink:href="#m6976fcd07e" y="307.584"/>
      </g>
     </g>
     <g id="text_4">
      <!-- 0 -->
      <g transform="translate(250.328794 322.182437)scale(0.1 -0.1)">
       <use xlink:href="#DejaVuSans-48"/>
      </g>
     </g>
    </g>
    <g id="xtick_5">
     <g id="line2d_6">
      <g>
       <use style="stroke:#000000;stroke-width:0.8;" x="311.809925" xlink:href="#m6976fcd07e" y="307.584"/>
      </g>
     </g>
     <g id="text_5">
      <!-- 200 -->
      <g transform="translate(302.266175 322.182437)scale(0.1 -0.1)">
       <use xlink:href="#DejaVuSans-50"/>
       <use x="63.623047" xlink:href="#DejaVuSans-48"/>
       <use x="127.246094" xlink:href="#DejaVuSans-48"/>
      </g>
     </g>
    </g>
    <g id="xtick_6">
     <g id="line2d_7">
      <g>
       <use style="stroke:#000000;stroke-width:0.8;" x="370.109806" xlink:href="#m6976fcd07e" y="307.584"/>
      </g>
     </g>
     <g id="text_6">
      <!-- 400 -->
      <g transform="translate(360.566056 322.182437)scale(0.1 -0.1)">
       <use xlink:href="#DejaVuSans-52"/>
       <use x="63.623047" xlink:href="#DejaVuSans-48"/>
       <use x="127.246094" xlink:href="#DejaVuSans-48"/>
      </g>
     </g>
    </g>
   </g>
   <g id="matplotlib.axis_2">
    <g id="ytick_1">
     <g id="line2d_8">
      <defs>
       <path d="M 0 0 
L -3.5 0 
" id="m2e3629d737" style="stroke:#000000;stroke-width:0.8;"/>
      </defs>
      <g>
       <use style="stroke:#000000;stroke-width:0.8;" x="57.6" xlink:href="#m2e3629d737" y="291.613667"/>
      </g>
     </g>
     <g id="text_7">
      <!-- −900 -->
      <defs>
       <path d="M 10.984375 1.515625 
L 10.984375 10.5 
Q 14.703125 8.734375 18.5 7.8125 
Q 22.3125 6.890625 25.984375 6.890625 
Q 35.75 6.890625 40.890625 13.453125 
Q 46.046875 20.015625 46.78125 33.40625 
Q 43.953125 29.203125 39.59375 26.953125 
Q 35.25 24.703125 29.984375 24.703125 
Q 19.046875 24.703125 12.671875 31.3125 
Q 6.296875 37.9375 6.296875 49.421875 
Q 6.296875 60.640625 12.9375 67.421875 
Q 19.578125 74.21875 30.609375 74.21875 
Q 43.265625 74.21875 49.921875 64.515625 
Q 56.59375 54.828125 56.59375 36.375 
Q 56.59375 19.140625 48.40625 8.859375 
Q 40.234375 -1.421875 26.421875 -1.421875 
Q 22.703125 -1.421875 18.890625 -0.6875 
Q 15.09375 0.046875 10.984375 1.515625 
z
M 30.609375 32.421875 
Q 37.25 32.421875 41.125 36.953125 
Q 45.015625 41.5 45.015625 49.421875 
Q 45.015625 57.28125 41.125 61.84375 
Q 37.25 66.40625 30.609375 66.40625 
Q 23.96875 66.40625 20.09375 61.84375 
Q 16.21875 57.28125 16.21875 49.421875 
Q 16.21875 41.5 20.09375 36.953125 
Q 23.96875 32.421875 30.609375 32.421875 
z
" id="DejaVuSans-57"/>
      </defs>
      <g transform="translate(23.132812 295.412886)scale(0.1 -0.1)">
       <use xlink:href="#DejaVuSans-8722"/>
       <use x="83.789062" xlink:href="#DejaVuSans-57"/>
       <use x="147.412109" xlink:href="#DejaVuSans-48"/>
       <use x="211.035156" xlink:href="#DejaVuSans-48"/>
      </g>
     </g>
    </g>
    <g id="ytick_2">
     <g id="line2d_9">
      <g>
       <use style="stroke:#000000;stroke-width:0.8;" x="57.6" xlink:href="#m2e3629d737" y="258.891264"/>
      </g>
     </g>
     <g id="text_8">
      <!-- −800 -->
      <defs>
       <path d="M 31.78125 34.625 
Q 24.75 34.625 20.71875 30.859375 
Q 16.703125 27.09375 16.703125 20.515625 
Q 16.703125 13.921875 20.71875 10.15625 
Q 24.75 6.390625 31.78125 6.390625 
Q 38.8125 6.390625 42.859375 10.171875 
Q 46.921875 13.96875 46.921875 20.515625 
Q 46.921875 27.09375 42.890625 30.859375 
Q 38.875 34.625 31.78125 34.625 
z
M 21.921875 38.8125 
Q 15.578125 40.375 12.03125 44.71875 
Q 8.5 49.078125 8.5 55.328125 
Q 8.5 64.0625 14.71875 69.140625 
Q 20.953125 74.21875 31.78125 74.21875 
Q 42.671875 74.21875 48.875 69.140625 
Q 55.078125 64.0625 55.078125 55.328125 
Q 55.078125 49.078125 51.53125 44.71875 
Q 48 40.375 41.703125 38.8125 
Q 48.828125 37.15625 52.796875 32.3125 
Q 56.78125 27.484375 56.78125 20.515625 
Q 56.78125 9.90625 50.3125 4.234375 
Q 43.84375 -1.421875 31.78125 -1.421875 
Q 19.734375 -1.421875 13.25 4.234375 
Q 6.78125 9.90625 6.78125 20.515625 
Q 6.78125 27.484375 10.78125 32.3125 
Q 14.796875 37.15625 21.921875 38.8125 
z
M 18.3125 54.390625 
Q 18.3125 48.734375 21.84375 45.5625 
Q 25.390625 42.390625 31.78125 42.390625 
Q 38.140625 42.390625 41.71875 45.5625 
Q 45.3125 48.734375 45.3125 54.390625 
Q 45.3125 60.0625 41.71875 63.234375 
Q 38.140625 66.40625 31.78125 66.40625 
Q 25.390625 66.40625 21.84375 63.234375 
Q 18.3125 60.0625 18.3125 54.390625 
z
" id="DejaVuSans-56"/>
      </defs>
      <g transform="translate(23.132812 262.690483)scale(0.1 -0.1)">
       <use xlink:href="#DejaVuSans-8722"/>
       <use x="83.789062" xlink:href="#DejaVuSans-56"/>
       <use x="147.412109" xlink:href="#DejaVuSans-48"/>
       <use x="211.035156" xlink:href="#DejaVuSans-48"/>
      </g>
     </g>
    </g>
    <g id="ytick_3">
     <g id="line2d_10">
      <g>
       <use style="stroke:#000000;stroke-width:0.8;" x="57.6" xlink:href="#m2e3629d737" y="226.168861"/>
      </g>
     </g>
     <g id="text_9">
      <!-- −700 -->
      <defs>
       <path d="M 8.203125 72.90625 
L 55.078125 72.90625 
L 55.078125 68.703125 
L 28.609375 0 
L 18.3125 0 
L 43.21875 64.59375 
L 8.203125 64.59375 
z
" id="DejaVuSans-55"/>
      </defs>
      <g transform="translate(23.132812 229.96808)scale(0.1 -0.1)">
       <use xlink:href="#DejaVuSans-8722"/>
       <use x="83.789062" xlink:href="#DejaVuSans-55"/>
       <use x="147.412109" xlink:href="#DejaVuSans-48"/>
       <use x="211.035156" xlink:href="#DejaVuSans-48"/>
      </g>
     </g>
    </g>
    <g id="ytick_4">
     <g id="line2d_11">
      <g>
       <use style="stroke:#000000;stroke-width:0.8;" x="57.6" xlink:href="#m2e3629d737" y="193.446457"/>
      </g>
     </g>
     <g id="text_10">
      <!-- −600 -->
      <g transform="translate(23.132812 197.245676)scale(0.1 -0.1)">
       <use xlink:href="#DejaVuSans-8722"/>
       <use x="83.789062" xlink:href="#DejaVuSans-54"/>
       <use x="147.412109" xlink:href="#DejaVuSans-48"/>
       <use x="211.035156" xlink:href="#DejaVuSans-48"/>
      </g>
     </g>
    </g>
    <g id="ytick_5">
     <g id="line2d_12">
      <g>
       <use style="stroke:#000000;stroke-width:0.8;" x="57.6" xlink:href="#m2e3629d737" y="160.724054"/>
      </g>
     </g>
     <g id="text_11">
      <!-- −500 -->
      <defs>
       <path d="M 10.796875 72.90625 
L 49.515625 72.90625 
L 49.515625 64.59375 
L 19.828125 64.59375 
L 19.828125 46.734375 
Q 21.96875 47.46875 24.109375 47.828125 
Q 26.265625 48.1875 28.421875 48.1875 
Q 40.625 48.1875 47.75 41.5 
Q 54.890625 34.8125 54.890625 23.390625 
Q 54.890625 11.625 47.5625 5.09375 
Q 40.234375 -1.421875 26.90625 -1.421875 
Q 22.3125 -1.421875 17.546875 -0.640625 
Q 12.796875 0.140625 7.71875 1.703125 
L 7.71875 11.625 
Q 12.109375 9.234375 16.796875 8.0625 
Q 21.484375 6.890625 26.703125 6.890625 
Q 35.15625 6.890625 40.078125 11.328125 
Q 45.015625 15.765625 45.015625 23.390625 
Q 45.015625 31 40.078125 35.4375 
Q 35.15625 39.890625 26.703125 39.890625 
Q 22.75 39.890625 18.8125 39.015625 
Q 14.890625 38.140625 10.796875 36.28125 
z
" id="DejaVuSans-53"/>
      </defs>
      <g transform="translate(23.132812 164.523273)scale(0.1 -0.1)">
       <use xlink:href="#DejaVuSans-8722"/>
       <use x="83.789062" xlink:href="#DejaVuSans-53"/>
       <use x="147.412109" xlink:href="#DejaVuSans-48"/>
       <use x="211.035156" xlink:href="#DejaVuSans-48"/>
      </g>
     </g>
    </g>
    <g id="ytick_6">
     <g id="line2d_13">
      <g>
       <use style="stroke:#000000;stroke-width:0.8;" x="57.6" xlink:href="#m2e3629d737" y="128.001651"/>
      </g>
     </g>
     <g id="text_12">
      <!-- −400 -->
      <g transform="translate(23.132812 131.80087)scale(0.1 -0.1)">
       <use xlink:href="#DejaVuSans-8722"/>
       <use x="83.789062" xlink:href="#DejaVuSans-52"/>
       <use x="147.412109" xlink:href="#DejaVuSans-48"/>
       <use x="211.035156" xlink:href="#DejaVuSans-48"/>
      </g>
     </g>
    </g>
    <g id="ytick_7">
     <g id="line2d_14">
      <g>
       <use style="stroke:#000000;stroke-width:0.8;" x="57.6" xlink:href="#m2e3629d737" y="95.279248"/>
      </g>
     </g>
     <g id="text_13">
      <!-- −300 -->
      <defs>
       <path d="M 40.578125 39.3125 
Q 47.65625 37.796875 51.625 33 
Q 55.609375 28.21875 55.609375 21.1875 
Q 55.609375 10.40625 48.1875 4.484375 
Q 40.765625 -1.421875 27.09375 -1.421875 
Q 22.515625 -1.421875 17.65625 -0.515625 
Q 12.796875 0.390625 7.625 2.203125 
L 7.625 11.71875 
Q 11.71875 9.328125 16.59375 8.109375 
Q 21.484375 6.890625 26.8125 6.890625 
Q 36.078125 6.890625 40.9375 10.546875 
Q 45.796875 14.203125 45.796875 21.1875 
Q 45.796875 27.640625 41.28125 31.265625 
Q 36.765625 34.90625 28.71875 34.90625 
L 20.21875 34.90625 
L 20.21875 43.015625 
L 29.109375 43.015625 
Q 36.375 43.015625 40.234375 45.921875 
Q 44.09375 48.828125 44.09375 54.296875 
Q 44.09375 59.90625 40.109375 62.90625 
Q 36.140625 65.921875 28.71875 65.921875 
Q 24.65625 65.921875 20.015625 65.03125 
Q 15.375 64.15625 9.8125 62.3125 
L 9.8125 71.09375 
Q 15.4375 72.65625 20.34375 73.4375 
Q 25.25 74.21875 29.59375 74.21875 
Q 40.828125 74.21875 47.359375 69.109375 
Q 53.90625 64.015625 53.90625 55.328125 
Q 53.90625 49.265625 50.4375 45.09375 
Q 46.96875 40.921875 40.578125 39.3125 
z
" id="DejaVuSans-51"/>
      </defs>
      <g transform="translate(23.132812 99.078466)scale(0.1 -0.1)">
       <use xlink:href="#DejaVuSans-8722"/>
       <use x="83.789062" xlink:href="#DejaVuSans-51"/>
       <use x="147.412109" xlink:href="#DejaVuSans-48"/>
       <use x="211.035156" xlink:href="#DejaVuSans-48"/>
      </g>
     </g>
    </g>
    <g id="ytick_8">
     <g id="line2d_15">
      <g>
       <use style="stroke:#000000;stroke-width:0.8;" x="57.6" xlink:href="#m2e3629d737" y="62.556844"/>
      </g>
     </g>
     <g id="text_14">
      <!-- −200 -->
      <g transform="translate(23.132812 66.356063)scale(0.1 -0.1)">
       <use xlink:href="#DejaVuSans-8722"/>
       <use x="83.789062" xlink:href="#DejaVuSans-50"/>
       <use x="147.412109" xlink:href="#DejaVuSans-48"/>
       <use x="211.035156" xlink:href="#DejaVuSans-48"/>
      </g>
     </g>
    </g>
   </g>
   <g id="line2d_16">
    <path clip-path="url(#pcca2068e05)" d="M 76.678335 283.799686 
L 212.09043 184.847152 
L 373.750916 73.459758 
L 349.845524 78.115421 
L 183.235024 173.638218 
L 169.953163 175.073181 
L 332.677456 65.237453 
L 327.794295 65.593947 
L 161.156755 175.404111 
L 153.495142 178.399098 
" style="fill:none;stroke:#ff0000;stroke-linecap:square;stroke-width:0.5;"/>
   </g>
   <g id="patch_3">
    <path d="M 57.6 307.584 
L 57.6 41.472 
" style="fill:none;stroke:#000000;stroke-linecap:square;stroke-linejoin:miter;stroke-width:0.8;"/>
   </g>
   <g id="patch_4">
    <path d="M 414.72 307.584 
L 414.72 41.472 
" style="fill:none;stroke:#000000;stroke-linecap:square;stroke-linejoin:miter;stroke-width:0.8;"/>
   </g>
   <g id="patch_5">
    <path d="M 57.6 307.584 
L 414.72 307.584 
" style="fill:none;stroke:#000000;stroke-linecap:square;stroke-linejoin:miter;stroke-width:0.8;"/>
   </g>
   <g id="patch_6">
    <path d="M 57.6 41.472 
L 414.72 41.472 
" style="fill:none;stroke:#000000;stroke-linecap:square;stroke-linejoin:miter;stroke-width:0.8;"/>
   </g>
   <g id="PathCollection_1">
    <defs>
     <path d="M 0 2.738613 
C 0.726289 2.738613 1.422928 2.450055 1.936492 1.936492 
C 2.450055 1.422928 2.738613 0.726289 2.738613 0 
C 2.738613 -0.726289 2.450055 -1.422928 1.936492 -1.936492 
C 1.422928 -2.450055 0.726289 -2.738613 0 -2.738613 
C -0.726289 -2.738613 -1.422928 -2.450055 -1.936492 -1.936492 
C -2.450055 -1.422928 -2.738613 -0.726289 -2.738613 0 
C -2.738613 0.726289 -2.450055 1.422928 -1.936492 1.936492 
C -1.422928 2.450055 -0.726289 2.738613 0 2.738613 
z
" id="me74c3dde1f" style="stroke:#ff0000;"/>
    </defs>
    <g clip-path="url(#pcca2068e05)">
     <use style="fill:#ff0000;stroke:#ff0000;" x="76.678335" xlink:href="#me74c3dde1f" y="283.799686"/>
     <use style="fill:#ff0000;stroke:#ff0000;" x="212.09043" xlink:href="#me74c3dde1f" y="184.847152"/>
     <use style="fill:#ff0000;stroke:#ff0000;" x="373.750916" xlink:href="#me74c3dde1f" y="73.459758"/>
     <use style="fill:#ff0000;stroke:#ff0000;" x="349.845524" xlink:href="#me74c3dde1f" y="78.115421"/>
     <use style="fill:#ff0000;stroke:#ff0000;" x="183.235024" xlink:href="#me74c3dde1f" y="173.638218"/>
     <use style="fill:#ff0000;stroke:#ff0000;" x="169.953163" xlink:href="#me74c3dde1f" y="175.073181"/>
     <use style="fill:#ff0000;stroke:#ff0000;" x="332.677456" xlink:href="#me74c3dde1f" y="65.237453"/>
     <use style="fill:#ff0000;stroke:#ff0000;" x="327.794295" xlink:href="#me74c3dde1f" y="65.593947"/>
     <use style="fill:#ff0000;stroke:#ff0000;" x="161.156755" xlink:href="#me74c3dde1f" y="175.404111"/>
     <use style="fill:#ff0000;stroke:#ff0000;" x="153.495142" xlink:href="#me74c3dde1f" y="178.399098"/>
    </g>
   </g>
   <g id="text_15">
    <!-- (83) Subject: s13, Known = False, Degree = 1, Duration = 0.1 -->
    <defs>
     <path d="M 31 75.875 
Q 24.46875 64.65625 21.28125 53.65625 
Q 18.109375 42.671875 18.109375 31.390625 
Q 18.109375 20.125 21.3125 9.0625 
Q 24.515625 -2 31 -13.1875 
L 23.1875 -13.1875 
Q 15.875 -1.703125 12.234375 9.375 
Q 8.59375 20.453125 8.59375 31.390625 
Q 8.59375 42.28125 12.203125 53.3125 
Q 15.828125 64.359375 23.1875 75.875 
z
" id="DejaVuSans-40"/>
     <path d="M 8.015625 75.875 
L 15.828125 75.875 
Q 23.140625 64.359375 26.78125 53.3125 
Q 30.421875 42.28125 30.421875 31.390625 
Q 30.421875 20.453125 26.78125 9.375 
Q 23.140625 -1.703125 15.828125 -13.1875 
L 8.015625 -13.1875 
Q 14.5 -2 17.703125 9.0625 
Q 20.90625 20.125 20.90625 31.390625 
Q 20.90625 42.671875 17.703125 53.65625 
Q 14.5 64.65625 8.015625 75.875 
z
" id="DejaVuSans-41"/>
     <path id="DejaVuSans-32"/>
     <path d="M 53.515625 70.515625 
L 53.515625 60.890625 
Q 47.90625 63.578125 42.921875 64.890625 
Q 37.9375 66.21875 33.296875 66.21875 
Q 25.25 66.21875 20.875 63.09375 
Q 16.5 59.96875 16.5 54.203125 
Q 16.5 49.359375 19.40625 46.890625 
Q 22.3125 44.4375 30.421875 42.921875 
L 36.375 41.703125 
Q 47.40625 39.59375 52.65625 34.296875 
Q 57.90625 29 57.90625 20.125 
Q 57.90625 9.515625 50.796875 4.046875 
Q 43.703125 -1.421875 29.984375 -1.421875 
Q 24.8125 -1.421875 18.96875 -0.25 
Q 13.140625 0.921875 6.890625 3.21875 
L 6.890625 13.375 
Q 12.890625 10.015625 18.65625 8.296875 
Q 24.421875 6.59375 29.984375 6.59375 
Q 38.421875 6.59375 43.015625 9.90625 
Q 47.609375 13.234375 47.609375 19.390625 
Q 47.609375 24.75 44.3125 27.78125 
Q 41.015625 30.8125 33.5 32.328125 
L 27.484375 33.5 
Q 16.453125 35.6875 11.515625 40.375 
Q 6.59375 45.0625 6.59375 53.421875 
Q 6.59375 63.09375 13.40625 68.65625 
Q 20.21875 74.21875 32.171875 74.21875 
Q 37.3125 74.21875 42.625 73.28125 
Q 47.953125 72.359375 53.515625 70.515625 
z
" id="DejaVuSans-83"/>
     <path d="M 8.5 21.578125 
L 8.5 54.6875 
L 17.484375 54.6875 
L 17.484375 21.921875 
Q 17.484375 14.15625 20.5 10.265625 
Q 23.53125 6.390625 29.59375 6.390625 
Q 36.859375 6.390625 41.078125 11.03125 
Q 45.3125 15.671875 45.3125 23.6875 
L 45.3125 54.6875 
L 54.296875 54.6875 
L 54.296875 0 
L 45.3125 0 
L 45.3125 8.40625 
Q 42.046875 3.421875 37.71875 1 
Q 33.40625 -1.421875 27.6875 -1.421875 
Q 18.265625 -1.421875 13.375 4.4375 
Q 8.5 10.296875 8.5 21.578125 
z
M 31.109375 56 
z
" id="DejaVuSans-117"/>
     <path d="M 48.6875 27.296875 
Q 48.6875 37.203125 44.609375 42.84375 
Q 40.53125 48.484375 33.40625 48.484375 
Q 26.265625 48.484375 22.1875 42.84375 
Q 18.109375 37.203125 18.109375 27.296875 
Q 18.109375 17.390625 22.1875 11.75 
Q 26.265625 6.109375 33.40625 6.109375 
Q 40.53125 6.109375 44.609375 11.75 
Q 48.6875 17.390625 48.6875 27.296875 
z
M 18.109375 46.390625 
Q 20.953125 51.265625 25.265625 53.625 
Q 29.59375 56 35.59375 56 
Q 45.5625 56 51.78125 48.09375 
Q 58.015625 40.1875 58.015625 27.296875 
Q 58.015625 14.40625 51.78125 6.484375 
Q 45.5625 -1.421875 35.59375 -1.421875 
Q 29.59375 -1.421875 25.265625 0.953125 
Q 20.953125 3.328125 18.109375 8.203125 
L 18.109375 0 
L 9.078125 0 
L 9.078125 75.984375 
L 18.109375 75.984375 
z
" id="DejaVuSans-98"/>
     <path d="M 9.421875 54.6875 
L 18.40625 54.6875 
L 18.40625 -0.984375 
Q 18.40625 -11.421875 14.421875 -16.109375 
Q 10.453125 -20.796875 1.609375 -20.796875 
L -1.8125 -20.796875 
L -1.8125 -13.1875 
L 0.59375 -13.1875 
Q 5.71875 -13.1875 7.5625 -10.8125 
Q 9.421875 -8.453125 9.421875 -0.984375 
z
M 9.421875 75.984375 
L 18.40625 75.984375 
L 18.40625 64.59375 
L 9.421875 64.59375 
z
" id="DejaVuSans-106"/>
     <path d="M 56.203125 29.59375 
L 56.203125 25.203125 
L 14.890625 25.203125 
Q 15.484375 15.921875 20.484375 11.0625 
Q 25.484375 6.203125 34.421875 6.203125 
Q 39.59375 6.203125 44.453125 7.46875 
Q 49.3125 8.734375 54.109375 11.28125 
L 54.109375 2.78125 
Q 49.265625 0.734375 44.1875 -0.34375 
Q 39.109375 -1.421875 33.890625 -1.421875 
Q 20.796875 -1.421875 13.15625 6.1875 
Q 5.515625 13.8125 5.515625 26.8125 
Q 5.515625 40.234375 12.765625 48.109375 
Q 20.015625 56 32.328125 56 
Q 43.359375 56 49.78125 48.890625 
Q 56.203125 41.796875 56.203125 29.59375 
z
M 47.21875 32.234375 
Q 47.125 39.59375 43.09375 43.984375 
Q 39.0625 48.390625 32.421875 48.390625 
Q 24.90625 48.390625 20.390625 44.140625 
Q 15.875 39.890625 15.1875 32.171875 
z
" id="DejaVuSans-101"/>
     <path d="M 48.78125 52.59375 
L 48.78125 44.1875 
Q 44.96875 46.296875 41.140625 47.34375 
Q 37.3125 48.390625 33.40625 48.390625 
Q 24.65625 48.390625 19.8125 42.84375 
Q 14.984375 37.3125 14.984375 27.296875 
Q 14.984375 17.28125 19.8125 11.734375 
Q 24.65625 6.203125 33.40625 6.203125 
Q 37.3125 6.203125 41.140625 7.25 
Q 44.96875 8.296875 48.78125 10.40625 
L 48.78125 2.09375 
Q 45.015625 0.34375 40.984375 -0.53125 
Q 36.96875 -1.421875 32.421875 -1.421875 
Q 20.0625 -1.421875 12.78125 6.34375 
Q 5.515625 14.109375 5.515625 27.296875 
Q 5.515625 40.671875 12.859375 48.328125 
Q 20.21875 56 33.015625 56 
Q 37.15625 56 41.109375 55.140625 
Q 45.0625 54.296875 48.78125 52.59375 
z
" id="DejaVuSans-99"/>
     <path d="M 18.3125 70.21875 
L 18.3125 54.6875 
L 36.8125 54.6875 
L 36.8125 47.703125 
L 18.3125 47.703125 
L 18.3125 18.015625 
Q 18.3125 11.328125 20.140625 9.421875 
Q 21.96875 7.515625 27.59375 7.515625 
L 36.8125 7.515625 
L 36.8125 0 
L 27.59375 0 
Q 17.1875 0 13.234375 3.875 
Q 9.28125 7.765625 9.28125 18.015625 
L 9.28125 47.703125 
L 2.6875 47.703125 
L 2.6875 54.6875 
L 9.28125 54.6875 
L 9.28125 70.21875 
z
" id="DejaVuSans-116"/>
     <path d="M 11.71875 12.40625 
L 22.015625 12.40625 
L 22.015625 0 
L 11.71875 0 
z
M 11.71875 51.703125 
L 22.015625 51.703125 
L 22.015625 39.3125 
L 11.71875 39.3125 
z
" id="DejaVuSans-58"/>
     <path d="M 44.28125 53.078125 
L 44.28125 44.578125 
Q 40.484375 46.53125 36.375 47.5 
Q 32.28125 48.484375 27.875 48.484375 
Q 21.1875 48.484375 17.84375 46.4375 
Q 14.5 44.390625 14.5 40.28125 
Q 14.5 37.15625 16.890625 35.375 
Q 19.28125 33.59375 26.515625 31.984375 
L 29.59375 31.296875 
Q 39.15625 29.25 43.1875 25.515625 
Q 47.21875 21.78125 47.21875 15.09375 
Q 47.21875 7.46875 41.1875 3.015625 
Q 35.15625 -1.421875 24.609375 -1.421875 
Q 20.21875 -1.421875 15.453125 -0.5625 
Q 10.6875 0.296875 5.421875 2 
L 5.421875 11.28125 
Q 10.40625 8.6875 15.234375 7.390625 
Q 20.0625 6.109375 24.8125 6.109375 
Q 31.15625 6.109375 34.5625 8.28125 
Q 37.984375 10.453125 37.984375 14.40625 
Q 37.984375 18.0625 35.515625 20.015625 
Q 33.0625 21.96875 24.703125 23.78125 
L 21.578125 24.515625 
Q 13.234375 26.265625 9.515625 29.90625 
Q 5.8125 33.546875 5.8125 39.890625 
Q 5.8125 47.609375 11.28125 51.796875 
Q 16.75 56 26.8125 56 
Q 31.78125 56 36.171875 55.265625 
Q 40.578125 54.546875 44.28125 53.078125 
z
" id="DejaVuSans-115"/>
     <path d="M 12.40625 8.296875 
L 28.515625 8.296875 
L 28.515625 63.921875 
L 10.984375 60.40625 
L 10.984375 69.390625 
L 28.421875 72.90625 
L 38.28125 72.90625 
L 38.28125 8.296875 
L 54.390625 8.296875 
L 54.390625 0 
L 12.40625 0 
z
" id="DejaVuSans-49"/>
     <path d="M 11.71875 12.40625 
L 22.015625 12.40625 
L 22.015625 4 
L 14.015625 -11.625 
L 7.71875 -11.625 
L 11.71875 4 
z
" id="DejaVuSans-44"/>
     <path d="M 9.8125 72.90625 
L 19.671875 72.90625 
L 19.671875 42.09375 
L 52.390625 72.90625 
L 65.09375 72.90625 
L 28.90625 38.921875 
L 67.671875 0 
L 54.6875 0 
L 19.671875 35.109375 
L 19.671875 0 
L 9.8125 0 
z
" id="DejaVuSans-75"/>
     <path d="M 54.890625 33.015625 
L 54.890625 0 
L 45.90625 0 
L 45.90625 32.71875 
Q 45.90625 40.484375 42.875 44.328125 
Q 39.84375 48.1875 33.796875 48.1875 
Q 26.515625 48.1875 22.3125 43.546875 
Q 18.109375 38.921875 18.109375 30.90625 
L 18.109375 0 
L 9.078125 0 
L 9.078125 54.6875 
L 18.109375 54.6875 
L 18.109375 46.1875 
Q 21.34375 51.125 25.703125 53.5625 
Q 30.078125 56 35.796875 56 
Q 45.21875 56 50.046875 50.171875 
Q 54.890625 44.34375 54.890625 33.015625 
z
" id="DejaVuSans-110"/>
     <path d="M 30.609375 48.390625 
Q 23.390625 48.390625 19.1875 42.75 
Q 14.984375 37.109375 14.984375 27.296875 
Q 14.984375 17.484375 19.15625 11.84375 
Q 23.34375 6.203125 30.609375 6.203125 
Q 37.796875 6.203125 41.984375 11.859375 
Q 46.1875 17.53125 46.1875 27.296875 
Q 46.1875 37.015625 41.984375 42.703125 
Q 37.796875 48.390625 30.609375 48.390625 
z
M 30.609375 56 
Q 42.328125 56 49.015625 48.375 
Q 55.71875 40.765625 55.71875 27.296875 
Q 55.71875 13.875 49.015625 6.21875 
Q 42.328125 -1.421875 30.609375 -1.421875 
Q 18.84375 -1.421875 12.171875 6.21875 
Q 5.515625 13.875 5.515625 27.296875 
Q 5.515625 40.765625 12.171875 48.375 
Q 18.84375 56 30.609375 56 
z
" id="DejaVuSans-111"/>
     <path d="M 4.203125 54.6875 
L 13.1875 54.6875 
L 24.421875 12.015625 
L 35.59375 54.6875 
L 46.1875 54.6875 
L 57.421875 12.015625 
L 68.609375 54.6875 
L 77.59375 54.6875 
L 63.28125 0 
L 52.6875 0 
L 40.921875 44.828125 
L 29.109375 0 
L 18.5 0 
z
" id="DejaVuSans-119"/>
     <path d="M 10.59375 45.40625 
L 73.1875 45.40625 
L 73.1875 37.203125 
L 10.59375 37.203125 
z
M 10.59375 25.484375 
L 73.1875 25.484375 
L 73.1875 17.1875 
L 10.59375 17.1875 
z
" id="DejaVuSans-61"/>
     <path d="M 9.8125 72.90625 
L 51.703125 72.90625 
L 51.703125 64.59375 
L 19.671875 64.59375 
L 19.671875 43.109375 
L 48.578125 43.109375 
L 48.578125 34.8125 
L 19.671875 34.8125 
L 19.671875 0 
L 9.8125 0 
z
" id="DejaVuSans-70"/>
     <path d="M 34.28125 27.484375 
Q 23.390625 27.484375 19.1875 25 
Q 14.984375 22.515625 14.984375 16.5 
Q 14.984375 11.71875 18.140625 8.90625 
Q 21.296875 6.109375 26.703125 6.109375 
Q 34.1875 6.109375 38.703125 11.40625 
Q 43.21875 16.703125 43.21875 25.484375 
L 43.21875 27.484375 
z
M 52.203125 31.203125 
L 52.203125 0 
L 43.21875 0 
L 43.21875 8.296875 
Q 40.140625 3.328125 35.546875 0.953125 
Q 30.953125 -1.421875 24.3125 -1.421875 
Q 15.921875 -1.421875 10.953125 3.296875 
Q 6 8.015625 6 15.921875 
Q 6 25.140625 12.171875 29.828125 
Q 18.359375 34.515625 30.609375 34.515625 
L 43.21875 34.515625 
L 43.21875 35.40625 
Q 43.21875 41.609375 39.140625 45 
Q 35.0625 48.390625 27.6875 48.390625 
Q 23 48.390625 18.546875 47.265625 
Q 14.109375 46.140625 10.015625 43.890625 
L 10.015625 52.203125 
Q 14.9375 54.109375 19.578125 55.046875 
Q 24.21875 56 28.609375 56 
Q 40.484375 56 46.34375 49.84375 
Q 52.203125 43.703125 52.203125 31.203125 
z
" id="DejaVuSans-97"/>
     <path d="M 9.421875 75.984375 
L 18.40625 75.984375 
L 18.40625 0 
L 9.421875 0 
z
" id="DejaVuSans-108"/>
     <path d="M 19.671875 64.796875 
L 19.671875 8.109375 
L 31.59375 8.109375 
Q 46.6875 8.109375 53.6875 14.9375 
Q 60.6875 21.78125 60.6875 36.53125 
Q 60.6875 51.171875 53.6875 57.984375 
Q 46.6875 64.796875 31.59375 64.796875 
z
M 9.8125 72.90625 
L 30.078125 72.90625 
Q 51.265625 72.90625 61.171875 64.09375 
Q 71.09375 55.28125 71.09375 36.53125 
Q 71.09375 17.671875 61.125 8.828125 
Q 51.171875 0 30.078125 0 
L 9.8125 0 
z
" id="DejaVuSans-68"/>
     <path d="M 45.40625 27.984375 
Q 45.40625 37.75 41.375 43.109375 
Q 37.359375 48.484375 30.078125 48.484375 
Q 22.859375 48.484375 18.828125 43.109375 
Q 14.796875 37.75 14.796875 27.984375 
Q 14.796875 18.265625 18.828125 12.890625 
Q 22.859375 7.515625 30.078125 7.515625 
Q 37.359375 7.515625 41.375 12.890625 
Q 45.40625 18.265625 45.40625 27.984375 
z
M 54.390625 6.78125 
Q 54.390625 -7.171875 48.1875 -13.984375 
Q 42 -20.796875 29.203125 -20.796875 
Q 24.46875 -20.796875 20.265625 -20.09375 
Q 16.0625 -19.390625 12.109375 -17.921875 
L 12.109375 -9.1875 
Q 16.0625 -11.328125 19.921875 -12.34375 
Q 23.78125 -13.375 27.78125 -13.375 
Q 36.625 -13.375 41.015625 -8.765625 
Q 45.40625 -4.15625 45.40625 5.171875 
L 45.40625 9.625 
Q 42.625 4.78125 38.28125 2.390625 
Q 33.9375 0 27.875 0 
Q 17.828125 0 11.671875 7.65625 
Q 5.515625 15.328125 5.515625 27.984375 
Q 5.515625 40.671875 11.671875 48.328125 
Q 17.828125 56 27.875 56 
Q 33.9375 56 38.28125 53.609375 
Q 42.625 51.21875 45.40625 46.390625 
L 45.40625 54.6875 
L 54.390625 54.6875 
z
" id="DejaVuSans-103"/>
     <path d="M 41.109375 46.296875 
Q 39.59375 47.171875 37.8125 47.578125 
Q 36.03125 48 33.890625 48 
Q 26.265625 48 22.1875 43.046875 
Q 18.109375 38.09375 18.109375 28.8125 
L 18.109375 0 
L 9.078125 0 
L 9.078125 54.6875 
L 18.109375 54.6875 
L 18.109375 46.1875 
Q 20.953125 51.171875 25.484375 53.578125 
Q 30.03125 56 36.53125 56 
Q 37.453125 56 38.578125 55.875 
Q 39.703125 55.765625 41.0625 55.515625 
z
" id="DejaVuSans-114"/>
     <path d="M 9.421875 54.6875 
L 18.40625 54.6875 
L 18.40625 0 
L 9.421875 0 
z
M 9.421875 75.984375 
L 18.40625 75.984375 
L 18.40625 64.59375 
L 9.421875 64.59375 
z
" id="DejaVuSans-105"/>
     <path d="M 10.6875 12.40625 
L 21 12.40625 
L 21 0 
L 10.6875 0 
z
" id="DejaVuSans-46"/>
    </defs>
    <g transform="translate(49.741875 35.472)scale(0.12 -0.12)">
     <use xlink:href="#DejaVuSans-40"/>
     <use x="39.013672" xlink:href="#DejaVuSans-56"/>
     <use x="102.636719" xlink:href="#DejaVuSans-51"/>
     <use x="166.259766" xlink:href="#DejaVuSans-41"/>
     <use x="205.273438" xlink:href="#DejaVuSans-32"/>
     <use x="237.060547" xlink:href="#DejaVuSans-83"/>
     <use x="300.537109" xlink:href="#DejaVuSans-117"/>
     <use x="363.916016" xlink:href="#DejaVuSans-98"/>
     <use x="427.392578" xlink:href="#DejaVuSans-106"/>
     <use x="455.175781" xlink:href="#DejaVuSans-101"/>
     <use x="516.699219" xlink:href="#DejaVuSans-99"/>
     <use x="571.679688" xlink:href="#DejaVuSans-116"/>
     <use x="610.888672" xlink:href="#DejaVuSans-58"/>
     <use x="644.580078" xlink:href="#DejaVuSans-32"/>
     <use x="676.367188" xlink:href="#DejaVuSans-115"/>
     <use x="728.466797" xlink:href="#DejaVuSans-49"/>
     <use x="792.089844" xlink:href="#DejaVuSans-51"/>
     <use x="855.712891" xlink:href="#DejaVuSans-44"/>
     <use x="887.5" xlink:href="#DejaVuSans-32"/>
     <use x="919.287109" xlink:href="#DejaVuSans-75"/>
     <use x="984.863281" xlink:href="#DejaVuSans-110"/>
     <use x="1048.242188" xlink:href="#DejaVuSans-111"/>
     <use x="1109.423828" xlink:href="#DejaVuSans-119"/>
     <use x="1191.210938" xlink:href="#DejaVuSans-110"/>
     <use x="1254.589844" xlink:href="#DejaVuSans-32"/>
     <use x="1286.376953" xlink:href="#DejaVuSans-61"/>
     <use x="1370.166016" xlink:href="#DejaVuSans-32"/>
     <use x="1401.953125" xlink:href="#DejaVuSans-70"/>
     <use x="1459.332031" xlink:href="#DejaVuSans-97"/>
     <use x="1520.611328" xlink:href="#DejaVuSans-108"/>
     <use x="1548.394531" xlink:href="#DejaVuSans-115"/>
     <use x="1600.494141" xlink:href="#DejaVuSans-101"/>
     <use x="1662.017578" xlink:href="#DejaVuSans-44"/>
     <use x="1693.804688" xlink:href="#DejaVuSans-32"/>
     <use x="1725.591797" xlink:href="#DejaVuSans-68"/>
     <use x="1802.59375" xlink:href="#DejaVuSans-101"/>
     <use x="1864.117188" xlink:href="#DejaVuSans-103"/>
     <use x="1927.59375" xlink:href="#DejaVuSans-114"/>
     <use x="1968.675781" xlink:href="#DejaVuSans-101"/>
     <use x="2030.199219" xlink:href="#DejaVuSans-101"/>
     <use x="2091.722656" xlink:href="#DejaVuSans-32"/>
     <use x="2123.509766" xlink:href="#DejaVuSans-61"/>
     <use x="2207.298828" xlink:href="#DejaVuSans-32"/>
     <use x="2239.085938" xlink:href="#DejaVuSans-49"/>
     <use x="2302.708984" xlink:href="#DejaVuSans-44"/>
     <use x="2334.496094" xlink:href="#DejaVuSans-32"/>
     <use x="2366.283203" xlink:href="#DejaVuSans-68"/>
     <use x="2443.285156" xlink:href="#DejaVuSans-117"/>
     <use x="2506.664062" xlink:href="#DejaVuSans-114"/>
     <use x="2547.777344" xlink:href="#DejaVuSans-97"/>
     <use x="2609.056641" xlink:href="#DejaVuSans-116"/>
     <use x="2648.265625" xlink:href="#DejaVuSans-105"/>
     <use x="2676.048828" xlink:href="#DejaVuSans-111"/>
     <use x="2737.230469" xlink:href="#DejaVuSans-110"/>
     <use x="2800.609375" xlink:href="#DejaVuSans-32"/>
     <use x="2832.396484" xlink:href="#DejaVuSans-61"/>
     <use x="2916.185547" xlink:href="#DejaVuSans-32"/>
     <use x="2947.972656" xlink:href="#DejaVuSans-48"/>
     <use x="3011.595703" xlink:href="#DejaVuSans-46"/>
     <use x="3043.382812" xlink:href="#DejaVuSans-49"/>
    </g>
   </g>
  </g>
 </g>
 <defs>
  <clipPath id="pcca2068e05">
   <rect height="266.112" width="357.12" x="57.6" y="41.472"/>
  </clipPath>
 </defs>
</svg>
