<?xml version="1.0" encoding="utf-8" standalone="no"?>
<!DOCTYPE svg PUBLIC "-//W3C//DTD SVG 1.1//EN"
  "http://www.w3.org/Graphics/SVG/1.1/DTD/svg11.dtd">
<!-- Created with matplotlib (https://matplotlib.org/) -->
<svg height="345.6pt" version="1.1" viewBox="0 0 460.8 345.6" width="460.8pt" xmlns="http://www.w3.org/2000/svg" xmlns:xlink="http://www.w3.org/1999/xlink">
 <defs>
  <style type="text/css">
*{stroke-linecap:butt;stroke-linejoin:round;}
  </style>
 </defs>
 <g id="figure_1">
  <g id="patch_1">
   <path d="M 0 345.6 
L 460.8 345.6 
L 460.8 0 
L 0 0 
z
" style="fill:#ffffff;"/>
  </g>
  <g id="axes_1">
   <g id="patch_2">
    <path d="M 57.6 307.584 
L 414.72 307.584 
L 414.72 41.472 
L 57.6 41.472 
z
" style="fill:#ffffff;"/>
   </g>
   <g id="line2d_1">
    <path clip-path="url(#p2432f7b9db)" d="M 78.684999 103.069016 
L 78.429616 102.670294 
L 78.429616 101.872851 
L 78.174234 100.67371 
L 78.174234 100.67371 
L 77.918851 101.872851 
L 78.429616 102.670294 
L 79.195765 103.069016 
L 79.195765 103.069016 
L 78.684999 102.670294 
L 77.918851 101.474129 
L 77.918851 101.072432 
L 78.429616 101.072432 
L 78.684999 101.474129 
L 78.429616 101.474129 
L 78.174234 102.271573 
L 78.429616 103.467738 
L 78.684999 103.467738 
L 78.684999 99.876266 
L 78.684999 100.274988 
L 78.940382 101.072432 
L 78.940382 101.474129 
L 79.195765 101.474129 
L 79.195765 101.474129 
L 79.195765 101.072432 
L 78.174234 99.477544 
L 78.174234 99.078822 
L 78.174234 99.477544 
L 77.918851 99.477544 
L 77.663468 99.876266 
L 77.663468 99.477544 
L 78.174234 98.677125 
L 79.195765 97.879681 
L 78.940382 97.082238 
L 78.429616 97.879681 
L 78.174234 98.677125 
L 78.174234 99.078822 
L 77.152703 97.48096 
L 77.663468 97.48096 
L 78.429616 97.082238 
L 78.684999 97.082238 
L 78.174234 97.48096 
L 77.152703 97.48096 
L 76.89732 96.683516 
L 77.152703 95.883097 
L 77.408086 95.484375 
L 77.152703 95.883097 
L 76.89732 96.683516 
L 76.89732 96.683516 
L 77.152703 96.281819 
L 77.918851 96.281819 
L 77.408086 95.883097 
L 76.641937 95.484375 
L 75.875789 96.281819 
L 75.620406 96.281819 
L 75.620406 95.085653 
L 76.131172 93.089069 
L 76.641937 92.291625 
L 76.89732 92.690347 
L 76.641937 93.089069 
L 76.641937 93.48779 
L 76.641937 91.494181 
L 76.386555 92.291625 
L 76.386555 93.089069 
L 75.875789 93.089069 
L 75.109641 92.291625 
L 75.109641 93.48779 
L 75.620406 94.686931 
L 76.131172 94.686931 
L 76.641937 94.28821 
L 76.386555 93.48779 
L 75.109641 93.48779 
L 75.365024 93.48779 
L 75.109641 93.886512 
L 75.109641 94.28821 
L 75.620406 95.085653 
L 75.620406 94.686931 
L 75.365024 93.48779 
L 75.365024 91.892903 
L 75.620406 91.892903 
L 75.875789 92.291625 
L 75.620406 93.886512 
L 75.365024 93.886512 
L 75.620406 92.291625 
L 75.620406 91.092484 
L 75.109641 91.892903 
L 75.109641 91.494181 
L 75.620406 91.092484 
L 76.131172 91.892903 
L 75.875789 91.892903 
L 75.620406 91.494181 
L 75.620406 91.092484 
L 75.620406 91.892903 
L 74.854258 93.089069 
L 74.854258 93.48779 
L 74.854258 93.089069 
L 75.109641 92.690347 
L 75.109641 92.690347 
L 75.109641 90.693762 
L 74.854258 89.896319 
L 74.854258 92.690347 
L 75.109641 92.690347 
L 75.365024 91.892903 
L 75.620406 91.494181 
L 75.109641 91.892903 
L 74.854258 92.690347 
L 74.598875 92.690347 
L 74.343493 92.291625 
L 73.832727 91.892903 
L 74.08811 91.494181 
L 74.598875 91.494181 
L 75.109641 92.291625 
L 75.365024 92.291625 
L 75.365024 91.892903 
L 75.109641 91.892903 
L 75.109641 91.892903 
L 75.620406 90.29504 
L 75.365024 89.896319 
L 75.109641 90.29504 
L 74.854258 90.29504 
L 74.598875 89.896319 
L 74.854258 89.896319 
L 75.620406 90.29504 
L 76.131172 90.29504 
L 74.854258 90.29504 
L 74.598875 90.693762 
L 74.598875 90.693762 
L 75.109641 90.29504 
L 75.109641 90.29504 
L 75.620406 90.29504 
L 75.875789 89.896319 
L 75.620406 89.497597 
L 75.365024 89.497597 
L 75.365024 90.29504 
L 75.365024 90.29504 
L 75.620406 90.29504 
L 75.620406 89.896319 
L 75.365024 89.896319 
L 75.365024 89.896319 
L 75.365024 90.29504 
L 75.620406 91.494181 
L 76.131172 91.892903 
L 75.875789 91.092484 
L 75.875789 90.29504 
L 76.131172 89.896319 
L 76.131172 89.497597 
L 75.365024 89.497597 
L 74.854258 88.697178 
L 74.854258 88.697178 
L 75.875789 88.697178 
L 75.875789 89.497597 
L 75.620406 89.896319 
L 74.854258 89.896319 
L 74.343493 89.098875 
L 74.343493 89.098875 
L 74.598875 88.697178 
L 75.365024 87.899734 
L 75.875789 87.899734 
L 76.131172 88.298456 
L 76.386555 88.298456 
L 76.131172 88.697178 
L 75.620406 89.098875 
L 75.365024 89.896319 
L 75.365024 89.896319 
L 75.620406 89.497597 
L 75.620406 89.896319 
L 75.620406 89.098875 
L 76.386555 87.899734 
L 76.386555 87.501012 
L 75.620406 87.501012 
L 75.109641 88.298456 
L 74.854258 89.098875 
L 74.854258 89.497597 
L 74.854258 89.497597 
L 75.109641 89.497597 
L 74.854258 89.497597 
L 75.109641 89.098875 
L 75.109641 88.697178 
L 75.109641 89.098875 
L 74.854258 89.896319 
L 75.109641 90.29504 
L 75.875789 90.29504 
L 76.131172 89.497597 
L 76.131172 88.697178 
L 75.109641 88.697178 
L 75.365024 89.098875 
L 75.875789 89.497597 
L 75.875789 89.896319 
L 75.620406 90.29504 
L 75.620406 90.29504 
L 75.365024 89.896319 
L 75.365024 90.29504 
L 75.109641 91.092484 
L 75.365024 91.494181 
L 75.365024 91.892903 
L 75.875789 92.291625 
L 76.386555 92.291625 
L 75.875789 91.494181 
L 75.620406 90.693762 
L 75.620406 89.896319 
L 75.365024 89.497597 
L 75.365024 91.092484 
L 75.620406 91.494181 
L 76.131172 91.494181 
L 76.131172 91.092484 
L 75.620406 90.693762 
L 75.620406 90.693762 
L 75.875789 91.092484 
L 76.641937 90.693762 
L 76.89732 90.693762 
L 76.641937 90.693762 
L 76.131172 91.092484 
L 75.875789 91.494181 
L 76.386555 91.092484 
L 79.195765 91.092484 
L 80.472678 90.693762 
L 82.260357 90.693762 
L 84.558802 91.092484 
L 87.371017 90.693762 
L 91.201757 89.896319 
L 95.287881 89.497597 
L 99.88477 89.497597 
L 103.973899 89.896319 
L 107.804639 89.098875 
L 116.487652 88.298456 
L 121.342929 87.501012 
L 132.327391 86.703568 
L 137.690428 86.703568 
L 142.5427 85.903149 
L 147.139589 84.706984 
L 152.250248 84.308262 
L 158.124051 84.308262 
L 163.490093 84.706984 
L 168.342365 84.706984 
L 173.194637 84.308262 
L 178.560678 83.109121 
L 183.923716 82.311677 
L 193.120499 83.109121 
L 197.97277 83.109121 
L 203.080425 82.710399 
L 207.421932 82.710399 
L 211.51106 83.906565 
L 216.107949 84.706984 
L 221.215603 85.105706 
L 230.923152 83.507843 
L 235.009275 82.710399 
L 242.162996 81.912956 
L 245.993737 81.912956 
L 253.913607 83.507843 
L 257.744348 83.906565 
L 264.639681 83.109121 
L 268.218044 83.109121 
L 271.282637 83.906565 
L 273.836464 85.105706 
L 276.390291 85.903149 
L 279.454884 86.703568 
L 282.008711 87.501012 
L 283.799395 88.298456 
L 285.331691 89.896319 
L 286.863988 91.892903 
L 288.396284 92.690347 
L 289.673198 93.48779 
L 291.71626 95.883097 
L 292.737791 96.683516 
L 292.737791 99.477544 
L 293.248556 101.474129 
L 293.503939 103.467738 
L 293.503939 105.065601 
L 292.993173 106.663464 
L 291.71626 108.660048 
L 288.90705 111.454077 
L 288.140901 113.048964 
L 287.119371 114.248105 
L 286.353222 115.44427 
L 285.587074 117.042133 
L 284.565543 118.238299 
L 283.544012 119.836161 
L 282.519477 122.231468 
L 282.008711 121.832746 
L 281.242563 122.231468 
L 280.221032 123.829331 
L 280.221032 124.626774 
L 279.199501 126.224637 
L 278.433353 130.613553 
L 277.922588 131.413972 
L 277.667205 132.211415 
L 277.15644 135.404165 
L 276.645674 136.204585 
L 276.134909 136.204585 
L 275.879526 136.603306 
L 275.624143 136.603306 
L 275.36876 137.002028 
L 274.34723 138.201169 
L 273.581081 139.796057 
L 273.836464 140.596476 
L 273.836464 140.596476 
L 273.325699 140.596476 
L 273.070316 141.393919 
L 272.55955 142.590085 
L 272.048785 144.586669 
L 272.304168 144.985391 
L 272.304168 145.78581 
L 271.793402 146.184532 
L 271.538019 146.583254 
L 271.538019 146.981976 
L 271.027254 147.77942 
L 270.261106 148.181117 
L 269.75034 148.181117 
L 269.75034 148.181117 
L 269.494958 148.579839 
L 269.494958 148.97856 
L 269.239575 148.97856 
L 268.984192 149.377282 
L 268.728809 150.975145 
L 268.473427 150.975145 
L 268.218044 151.373867 
L 268.218044 151.772589 
L 267.704274 152.570032 
L 267.962661 152.97173 
L 267.962661 153.769173 
L 267.704274 154.566617 
L 267.193509 154.167895 
L 267.193509 154.167895 
L 266.938126 154.965339 
L 266.42736 154.965339 
L 266.42736 155.367036 
L 266.682743 156.16448 
L 266.42736 156.563202 
L 266.682743 155.765758 
L 266.682743 155.765758 
L 266.682743 156.961923 
L 266.938126 156.961923 
L 266.171978 157.360645 
L 265.405829 158.559786 
L 265.405829 158.958508 
L 264.639681 159.755952 
L 264.384299 160.556371 
L 264.384299 160.556371 
L 264.128916 160.556371 
L 264.384299 160.556371 
L 264.895064 160.157649 
L 264.895064 160.157649 
L 263.873533 160.157649 
L 263.873533 160.556371 
L 264.128916 160.157649 
L 264.639681 160.157649 
L 264.128916 160.556371 
L 263.61815 161.353815 
L 263.61815 161.353815 
L 263.61815 160.157649 
L 263.61815 161.752536 
L 263.362768 162.552956 
L 263.107385 162.552956 
L 263.107385 162.151258 
L 263.362768 161.752536 
L 262.341237 162.552956 
L 261.830471 162.552956 
L 261.830471 165.745706 
L 262.085854 164.948262 
L 261.575088 163.350399 
L 261.830471 163.749121 
L 262.852002 164.546565 
L 262.596619 165.346984 
L 262.085854 165.745706 
L 262.085854 165.745706 
L 261.830471 166.144427 
L 261.319706 166.543149 
L 261.319706 165.745706 
L 261.575088 164.948262 
L 262.085854 164.546565 
L 261.830471 165.346984 
L 260.553558 166.144427 
L 260.042792 165.745706 
L 260.553558 165.745706 
L 261.064323 166.144427 
L 261.830471 167.340593 
L 262.085854 167.340593 
L 262.085854 166.941871 
L 262.852002 165.745706 
L 263.873533 165.346984 
L 267.193509 164.546565 
L 269.494958 163.350399 
L 272.048785 161.752536 
L 275.113378 160.556371 
L 282.519477 158.958508 
L 290.439346 156.563202 
L 294.014704 156.563202 
L 297.33468 156.16448 
L 305.765314 152.97173 
L 309.340673 151.772589 
L 312.916031 150.975145 
L 316.494394 148.97856 
L 319.814369 148.579839 
L 322.878962 148.97856 
L 326.709703 148.97856 
L 330.543448 148.579839 
L 333.863424 147.77942 
L 336.928017 146.583254 
L 340.247992 144.586669 
L 343.570972 143.390504 
L 346.380182 143.390504 
L 348.934009 142.991782 
L 351.743219 141.792641 
L 355.063195 140.596476 
L 357.617022 140.194778 
L 359.407706 139.796057 
L 361.195385 138.998613 
L 362.983064 138.599891 
L 364.004595 138.599891 
L 364.004595 138.599891 
L 363.49383 138.201169 
L 362.983064 138.201169 
L 362.216916 138.599891 
L 361.450768 138.599891 
L 360.429237 139.796057 
L 359.663089 141.393919 
L 358.641558 142.590085 
L 357.872405 142.191363 
L 356.340109 142.191363 
L 355.318578 142.991782 
L 353.530899 142.991782 
L 353.275516 143.390504 
L 353.275516 144.187948 
L 353.020133 144.985391 
L 353.275516 145.387089 
L 353.786281 145.387089 
L 353.530899 145.78581 
L 353.020133 146.184532 
L 353.020133 147.380698 
L 353.275516 147.380698 
L 353.020133 146.981976 
L 353.020133 148.181117 
L 353.275516 148.181117 
L 353.530899 147.77942 
L 353.020133 147.380698 
L 352.253985 147.380698 
L 351.998602 148.181117 
L 352.253985 149.377282 
L 352.76475 150.174726 
L 352.76475 150.975145 
L 352.509368 152.171311 
L 352.253985 152.570032 
L 351.998602 151.772589 
L 351.743219 150.174726 
L 351.743219 149.377282 
L 351.743219 150.975145 
L 351.487837 150.576423 
L 351.487837 150.174726 
L 351.743219 150.576423 
L 352.509368 150.975145 
L 352.76475 151.373867 
L 352.509368 151.373867 
L 351.998602 151.772589 
L 351.232454 151.772589 
L 350.721689 152.171311 
L 350.721689 152.97173 
L 351.487837 152.97173 
L 351.487837 152.97173 
L 351.232454 153.370452 
L 350.466306 153.370452 
L 350.210923 153.769173 
L 349.95554 153.769173 
L 350.210923 153.370452 
L 350.210923 153.370452 
L 350.466306 154.167895 
L 350.466306 154.965339 
L 350.977071 154.965339 
L 350.977071 154.566617 
L 350.721689 154.167895 
L 350.210923 154.566617 
L 349.95554 155.765758 
L 349.700158 156.16448 
L 349.95554 156.563202 
L 350.210923 156.563202 
L 349.700158 156.563202 
L 349.444775 156.16448 
L 349.95554 155.367036 
L 349.95554 155.367036 
L 349.95554 156.16448 
L 349.700158 156.563202 
L 349.189392 156.563202 
L 348.934009 157.360645 
L 348.423244 157.762343 
L 348.678627 157.360645 
L 349.444775 156.961923 
L 349.95554 156.961923 
L 350.210923 157.360645 
L 349.700158 157.762343 
L 349.189392 157.762343 
L 349.189392 156.961923 
L 349.189392 157.762343 
L 349.444775 158.559786 
L 349.444775 158.161064 
L 349.444775 160.955093 
L 349.700158 161.353815 
L 349.700158 160.556371 
L 349.444775 159.755952 
L 349.444775 160.157649 
L 349.700158 160.955093 
L 349.95554 160.556371 
L 349.700158 159.755952 
L 349.700158 159.755952 
L 349.95554 160.157649 
L 349.700158 160.556371 
L 348.934009 160.157649 
L 348.934009 159.35723 
L 349.444775 159.755952 
L 350.210923 160.955093 
L 349.700158 161.353815 
L 349.444775 161.353815 
L 349.189392 160.955093 
L 349.444775 160.955093 
L 349.700158 160.556371 
L 349.95554 159.35723 
L 349.444775 158.161064 
L 348.934009 158.958508 
L 348.934009 160.157649 
L 349.700158 160.157649 
L 349.700158 160.556371 
L 348.934009 161.752536 
L 348.934009 162.151258 
L 349.189392 162.151258 
L 348.934009 161.752536 
L 348.423244 161.752536 
L 348.423244 162.151258 
L 348.934009 162.951677 
L 348.678627 162.552956 
L 348.934009 162.552956 
L 348.934009 163.350399 
L 348.934009 162.552956 
L 349.189392 161.353815 
L 349.189392 161.752536 
L 349.444775 162.552956 
L 349.189392 161.752536 
L 349.189392 161.353815 
L 348.934009 161.752536 
L 348.934009 163.749121 
L 348.423244 164.546565 
L 345.103268 165.745706 
L 343.826355 166.543149 
L 342.035671 166.941871 
L 337.438782 166.941871 
L 334.629572 167.74229 
L 330.798831 170.536319 
L 326.709703 172.532903 
L 317.005159 176.124375 
L 311.383734 178.519681 
L 306.531463 181.31371 
L 301.423808 184.107738 
L 296.057766 186.104323 
L 290.694729 187.702185 
L 285.331691 190.496214 
L 280.221032 192.89152 
L 275.36876 194.888105 
L 270.261106 197.283411 
L 264.895064 200.07744 
L 255.445903 204.067633 
L 251.101392 206.46294 
L 247.015268 209.259943 
L 238.843021 214.050556 
L 234.49851 216.445863 
L 230.412386 218.439472 
L 226.837028 220.834778 
L 223.26167 223.628807 
L 219.93869 226.824532 
L 216.874097 229.219839 
L 213.809504 230.814726 
L 211.000294 231.615145 
L 208.957232 232.811311 
L 206.145018 236.405758 
L 204.868104 237.601923 
L 203.080425 239.598508 
L 203.080425 239.99723 
L 203.591191 239.99723 
L 204.101956 239.598508 
L 205.37887 238.402343 
L 205.889635 238.801064 
L 206.655783 238.801064 
L 207.421932 238.402343 
L 208.191084 237.601923 
L 208.446467 237.601923 
L 208.70185 238.000645 
L 208.70185 239.598508 
L 208.446467 239.99723 
L 207.935701 240.395952 
L 207.166549 239.99723 
L 206.655783 239.99723 
L 206.400401 241.196371 
L 206.400401 241.196371 
L 205.889635 240.395952 
L 205.123487 240.395952 
L 204.868104 240.794674 
L 205.37887 242.392536 
L 205.889635 242.392536 
L 205.634252 242.791258 
L 205.123487 243.990399 
L 204.868104 243.591677 
L 204.868104 243.18998 
L 204.868104 243.990399 
L 204.612721 244.389121 
L 204.101956 244.787843 
L 204.101956 245.585286 
L 204.612721 245.585286 
L 204.101956 246.385706 
L 204.101956 245.585286 
L 203.591191 245.585286 
L 203.080425 243.990399 
L 203.080425 243.990399 
L 202.825042 244.389121 
L 202.825042 244.389121 
L 202.56966 243.591677 
L 202.058894 243.18998 
L 202.058894 243.591677 
L 202.058894 243.18998 
L 202.314277 243.18998 
L 202.314277 243.990399 
L 202.058894 244.389121 
L 201.292746 244.389121 
L 201.548129 243.990399 
L 202.314277 243.591677 
L 202.314277 243.18998 
L 202.314277 243.18998 
L 202.058894 243.591677 
L 202.058894 243.18998 
L 202.058894 243.591677 
L 201.037363 243.591677 
L 201.037363 244.389121 
L 201.037363 243.591677 
L 201.292746 243.591677 
L 201.292746 243.990399 
L 201.292746 243.591677 
L 201.037363 242.791258 
L 200.526598 242.392536 
L 200.015832 245.186565 
L 199.505067 245.186565 
L 198.994301 244.787843 
L 198.738919 244.787843 
L 198.994301 245.186565 
L 199.76045 244.787843 
L 200.015832 244.389121 
L 200.015832 244.389121 
L 199.76045 244.389121 
L 199.505067 244.787843 
L 199.505067 244.787843 
L 199.76045 244.787843 
L 199.76045 245.186565 
L 199.505067 245.585286 
L 199.76045 245.186565 
L 199.76045 244.389121 
L 199.249684 244.389121 
L 198.738919 243.990399 
L 198.738919 243.591677 
L 198.994301 243.591677 
L 198.994301 243.990399 
L 198.738919 243.591677 
L 198.228153 243.18998 
L 197.97277 242.791258 
L 198.738919 242.791258 
L 198.738919 243.18998 
L 198.228153 243.990399 
L 198.228153 244.389121 
L 198.738919 244.389121 
L 199.249684 244.787843 
L 199.249684 244.787843 
L 198.994301 245.186565 
L 198.738919 244.787843 
L 198.738919 243.591677 
L 198.228153 243.591677 
L 197.97277 243.990399 
L 197.97277 244.389121 
L 197.717388 243.990399 
L 197.462005 243.18998 
L 197.717388 243.18998 
L 197.717388 244.787843 
L 197.717388 244.787843 
L 197.97277 244.389121 
L 197.97277 244.389121 
L 197.97277 244.787843 
L 198.228153 244.389121 
L 198.228153 244.389121 
L 198.483536 244.389121 
L 198.483536 245.186565 
L 198.738919 245.585286 
L 198.738919 246.385706 
L 198.738919 243.591677 
L 199.249684 242.791258 
L 199.76045 243.591677 
L 199.505067 245.186565 
L 199.505067 244.389121 
L 199.505067 243.591677 
L 199.249684 243.591677 
L 198.738919 243.990399 
L 198.738919 244.787843 
L 198.994301 244.389121 
L 198.738919 243.591677 
L 198.738919 243.18998 
L 198.483536 243.591677 
L 198.483536 243.18998 
L 198.228153 243.18998 
L 197.97277 243.990399 
L 198.228153 244.389121 
L 198.483536 243.990399 
L 198.228153 243.591677 
L 197.717388 243.591677 
L 197.97277 243.990399 
L 197.97277 244.787843 
L 198.228153 244.787843 
L 198.228153 245.186565 
L 198.228153 245.186565 
L 198.483536 244.787843 
L 198.483536 244.787843 
L 198.483536 244.389121 
L 198.738919 244.389121 
L 198.994301 243.990399 
L 198.994301 243.591677 
L 198.483536 243.18998 
L 197.97277 243.18998 
L 197.717388 243.990399 
L 197.97277 244.787843 
L 198.228153 245.186565 
L 198.738919 245.186565 
L 198.994301 245.585286 
L 198.738919 245.186565 
L 197.717388 245.186565 
L 197.717388 245.186565 
L 198.483536 244.787843 
L 198.483536 244.787843 
L 198.228153 245.585286 
L 197.462005 245.986984 
L 197.462005 245.585286 
L 198.483536 244.787843 
L 198.228153 244.787843 
L 198.228153 244.787843 
L 198.483536 245.186565 
L 198.483536 245.585286 
L 198.228153 245.585286 
L 198.228153 245.186565 
L 198.738919 244.389121 
L 198.483536 244.389121 
L 197.462005 245.986984 
L 197.717388 245.585286 
L 198.228153 245.186565 
L 198.994301 245.585286 
L 198.994301 245.585286 
L 198.483536 245.585286 
L 197.97277 245.986984 
L 198.738919 245.986984 
L 197.462005 245.986984 
L 197.717388 245.585286 
L 197.97277 245.585286 
L 197.97277 245.186565 
L 197.717388 244.787843 
L 197.97277 244.787843 
L 198.228153 245.585286 
L 197.97277 246.385706 
L 197.717388 246.385706 
L 197.97277 245.585286 
L 198.228153 245.186565 
L 197.462005 246.385706 
L 197.206622 247.183149 
L 197.717388 247.581871 
L 198.483536 246.784427 
L 198.483536 244.787843 
L 198.228153 245.186565 
L 197.97277 245.986984 
L 198.228153 246.385706 
L 198.483536 246.385706 
L 198.483536 246.385706 
L 198.228153 247.183149 
L 197.462005 249.179734 
L 198.483536 247.581871 
L 198.228153 247.183149 
L 197.462005 247.183149 
L 197.206622 246.784427 
L 197.717388 245.986984 
L 197.462005 246.784427 
L 197.97277 247.980593 
L 197.206622 245.986984 
L 197.206622 246.385706 
L 197.206622 246.784427 
L 196.95124 247.183149 
L 197.206622 246.385706 
L 197.462005 246.385706 
L 197.206622 246.784427 
L 197.206622 246.385706 
L 196.440474 247.581871 
L 196.695857 247.581871 
L 197.206622 247.183149 
L 197.462005 247.183149 
L 197.206622 246.784427 
L 196.95124 246.784427 
L 196.95124 246.385706 
L 197.462005 247.183149 
L 197.206622 247.183149 
L 196.95124 247.980593 
L 196.95124 248.38229 
L 196.95124 247.980593 
L 197.206622 247.183149 
L 197.206622 246.784427 
L 197.206622 247.183149 
L 196.95124 247.581871 
L 196.95124 247.980593 
L 196.695857 248.38229 
L 196.185091 248.38229 
L 196.185091 247.980593 
L 197.206622 247.980593 
L 197.206622 247.980593 
L 196.695857 247.183149 
L 196.440474 247.183149 
L 196.440474 247.183149 
L 196.695857 246.784427 
L 196.95124 247.183149 
L 196.695857 247.581871 
L 196.440474 247.581871 
L 196.695857 247.183149 
L 196.695857 244.787843 
L 196.95124 245.585286 
L 196.695857 247.183149 
L 196.440474 247.581871 
L 196.440474 246.385706 
L 196.185091 246.385706 
L 196.185091 247.183149 
L 195.674326 247.581871 
L 195.674326 247.581871 
L 196.185091 245.986984 
L 196.185091 245.986984 
L 195.929709 245.986984 
L 195.929709 245.585286 
L 196.185091 245.186565 
L 196.185091 247.980593 
L 195.929709 248.38229 
L 195.16356 248.38229 
L 195.418943 248.38229 
L 195.418943 247.980593 
L 195.674326 247.183149 
L 195.674326 247.183149 
L 195.929709 247.183149 
L 195.929709 246.784427 
L 196.440474 245.585286 
L 197.717388 244.787843 
L 199.249684 243.990399 
L 200.271215 242.392536 
L 201.548129 241.196371 
L 204.101956 240.395952 
L 207.166549 239.598508 
L 215.086418 231.615145 
L 217.384863 228.821117 
L 220.449455 226.42581 
L 223.006287 223.230085 
L 225.049349 220.436057 
L 226.837028 217.642028 
L 231.433917 212.851415 
L 235.520041 207.263359 
L 237.052337 204.469331 
L 238.587638 202.074024 
L 240.375317 199.678718 
L 242.162996 198.080855 
L 243.950676 197.283411 
L 245.738355 196.08427 
L 248.036799 193.688964 
L 250.590627 191.293657 
L 253.402841 188.898351 
L 256.467434 186.503044 
L 259.532027 183.709016 
L 262.085854 180.516266 
L 264.384299 178.12096 
L 267.193509 176.124375 
L 273.836464 166.941871 
L 276.390291 162.151258 
L 278.433353 159.755952 
L 278.688736 158.559786 
L 278.433353 156.961923 
L 277.922588 155.367036 
L 276.901057 153.769173 
L 275.624143 152.97173 
L 274.857995 152.97173 
L 273.836464 153.370452 
L 272.304168 154.566617 
L 271.027254 154.965339 
L 270.516489 154.965339 
L 270.516489 154.566617 
L 268.728809 154.566617 
L 267.193509 155.765758 
L 267.193509 156.16448 
L 267.193509 156.16448 
L 267.448891 156.16448 
L 267.448891 158.559786 
L 267.193509 158.161064 
L 267.193509 157.762343 
L 266.938126 158.161064 
L 267.193509 158.958508 
L 267.704274 159.35723 
L 267.962661 158.958508 
L 267.704274 158.161064 
L 266.42736 158.161064 
L 265.661212 158.559786 
L 265.661212 159.35723 
L 265.916595 159.755952 
L 266.42736 158.958508 
L 266.171978 158.161064 
L 263.61815 158.161064 
L 263.61815 157.762343 
L 264.384299 157.762343 
L 265.150447 156.563202 
L 265.150447 156.16448 
L 264.639681 156.961923 
L 264.128916 157.360645 
L 264.128916 157.762343 
L 264.128916 156.961923 
L 263.61815 156.961923 
L 263.107385 157.360645 
L 263.107385 157.762343 
L 263.61815 157.360645 
L 264.128916 157.360645 
L 264.128916 156.961923 
L 263.873533 156.16448 
L 263.61815 156.16448 
L 263.107385 156.563202 
L 262.852002 156.961923 
L 262.852002 157.360645 
L 263.107385 157.762343 
L 262.852002 158.559786 
L 262.596619 158.559786 
L 262.596619 158.559786 
L 262.341237 158.958508 
L 261.830471 157.762343 
L 261.575088 156.16448 
L 261.575088 154.965339 
L 261.830471 154.566617 
L 262.085854 154.566617 
L 262.341237 155.765758 
L 262.341237 156.961923 
L 261.575088 156.961923 
L 261.575088 156.961923 
L 261.575088 157.360645 
L 261.575088 156.961923 
L 260.80894 156.961923 
L 261.319706 156.961923 
L 261.575088 156.563202 
L 261.830471 156.563202 
L 261.319706 157.762343 
L 260.553558 158.559786 
L 260.042792 156.961923 
L 260.042792 155.367036 
L 260.298175 155.367036 
L 260.042792 154.566617 
L 259.276644 152.97173 
L 258.255113 151.772589 
L 256.978199 150.576423 
L 255.19052 148.579839 
L 251.101392 140.194778 
L 249.569096 137.799472 
L 247.270651 134.606722 
L 245.738355 130.613553 
L 244.972206 126.623359 
L 243.950676 122.63019 
L 242.162996 118.639996 
L 240.6307 114.646827 
L 240.6307 110.653657 
L 242.162996 101.872851 
L 242.929145 98.278403 
L 244.716824 85.105706 
L 245.482972 81.112536 
L 248.292182 73.527895 
L 253.402841 64.345391 
L 254.679755 61.551363 
L 255.19052 57.959891 
L 255.19052 55.963306 
L 254.935137 55.165863 
L 254.168989 54.767141 
L 253.658224 53.966722 
L 253.147458 53.568 
L 252.892076 53.568 
L 252.378306 54.365444 
L 252.122923 55.165863 
L 251.101392 56.362028 
L 249.569096 57.561169 
L 248.292182 58.358613 
L 247.781417 59.156057 
L 246.759886 61.551363 
L 246.24912 63.149226 
L 245.738355 64.345391 
L 245.227589 64.747089 
L 245.227589 64.747089 
L 246.24912 66.341976 
L 245.993737 67.541117 
L 245.227589 67.541117 
L 244.716824 67.142395 
L 244.972206 66.740698 
L 245.227589 66.740698 
L 245.227589 67.142395 
L 245.227589 67.142395 
L 244.716824 65.544532 
L 244.461441 65.14581 
L 244.206058 65.14581 
L 244.206058 65.544532 
L 243.950676 66.341976 
L 243.950676 67.142395 
L 243.695293 67.142395 
L 243.950676 67.142395 
L 244.716824 67.541117 
L 244.972206 67.939839 
L 244.206058 68.737282 
L 243.43991 68.737282 
L 243.184527 67.939839 
L 243.43991 67.142395 
L 243.43991 66.740698 
L 242.929145 67.541117 
L 242.418379 69.136004 
L 242.418379 70.335145 
L 242.418379 70.335145 
L 242.673762 69.936423 
L 242.929145 69.136004 
L 242.929145 69.136004 
L 242.673762 69.136004 
L 242.162996 69.936423 
L 242.162996 69.936423 
L 242.162996 70.733867 
L 242.418379 71.132589 
L 242.418379 71.531311 
L 242.162996 71.132589 
L 241.907614 71.132589 
L 241.907614 71.132589 
L 242.162996 70.733867 
L 241.907614 69.936423 
L 241.396848 69.936423 
L 241.141466 70.733867 
L 240.886083 72.33173 
L 240.886083 72.33173 
L 240.375317 72.33173 
L 240.375317 73.129173 
L 240.6307 73.129173 
L 240.6307 72.33173 
L 239.864552 71.132589 
L 240.375317 71.933008 
L 240.375317 73.926617 
L 240.6307 74.727036 
L 240.375317 75.125758 
L 239.353786 73.926617 
L 239.353786 73.926617 
L 239.609169 73.527895 
L 239.864552 72.33173 
L 240.119935 72.33173 
L 240.375317 73.129173 
L 240.375317 73.926617 
L 239.864552 74.325339 
L 239.609169 74.325339 
L 238.843021 75.52448 
L 238.843021 75.52448 
L 239.098404 74.727036 
L 239.609169 74.325339 
L 239.609169 73.527895 
L 239.609169 74.727036 
L 239.353786 75.125758 
L 238.587638 75.52448 
L 238.076873 75.125758 
L 238.332255 74.727036 
L 238.843021 74.325339 
L 239.353786 74.325339 
L 239.864552 75.125758 
L 239.864552 75.125758 
L 239.098404 75.125758 
L 238.587638 76.720645 
L 238.587638 77.122343 
L 238.843021 76.720645 
L 238.587638 75.923202 
L 238.587638 75.923202 
L 238.587638 76.321923 
L 238.587638 76.321923 
L 238.332255 75.923202 
L 238.332255 75.52448 
L 237.30772 77.122343 
L 237.30772 77.521064 
L 238.076873 77.122343 
L 238.587638 76.720645 
L 238.587638 76.321923 
L 238.332255 76.321923 
L 238.332255 76.720645 
L 238.076873 77.122343 
L 238.076873 77.919786 
L 237.052337 77.919786 
L 237.82149 76.720645 
L 238.332255 76.720645 
L 238.587638 77.122343 
L 238.332255 77.919786 
L 238.076873 77.919786 
L 238.076873 77.521064 
L 238.076873 77.919786 
L 237.82149 78.318508 
L 237.82149 79.916371 
L 238.076873 79.916371 
L 238.332255 79.517649 
L 238.076873 79.916371 
L 237.563103 80.315093 
L 237.30772 80.713815 
L 237.052337 80.713815 
L 236.796955 80.315093 
L 236.796955 79.517649 
L 237.052337 78.71723 
L 237.30772 79.115952 
L 237.052337 79.916371 
L 236.286189 79.916371 
L 235.775424 80.315093 
L 236.286189 80.713815 
L 237.30772 81.112536 
L 237.82149 80.713815 
L 237.563103 80.315093 
L 237.052337 80.713815 
L 236.796955 80.713815 
L 237.563103 80.713815 
L 237.563103 81.112536 
L 237.30772 81.112536 
L 237.052337 80.315093 
L 237.052337 79.916371 
L 237.30772 80.713815 
L 237.82149 81.112536 
L 237.563103 82.311677 
L 236.796955 83.109121 
L 237.563103 82.311677 
L 238.076873 81.511258 
L 238.076873 80.713815 
L 237.82149 80.315093 
L 237.052337 81.511258 
L 236.286189 82.311677 
L 236.541572 82.710399 
L 237.052337 82.311677 
L 237.052337 83.109121 
L 237.052337 81.511258 
L 236.541572 81.912956 
L 235.264658 81.912956 
L 235.775424 81.912956 
L 236.286189 82.311677 
L 236.796955 81.511258 
L 237.052337 81.511258 
L 237.30772 81.112536 
L 238.332255 81.112536 
L 239.609169 80.315093 
L 241.141466 79.517649 
L 242.673762 79.115952 
L 248.292182 78.318508 
L 251.86754 77.521064 
L 259.787409 75.125758 
L 268.728809 73.527895 
L 273.070316 73.129173 
L 280.476415 73.129173 
L 284.565543 72.730452 
L 289.417815 71.933008 
L 293.759322 71.531311 
L 298.359215 71.933008 
L 302.956104 73.129173 
L 329.7773 75.125758 
L 335.140337 75.125758 
L 345.358651 75.923202 
L 355.57396 78.318508 
L 359.663089 79.517649 
L 363.49383 81.112536 
L 367.324571 82.311677 
L 375.755205 83.906565 
L 389.293494 85.504427 
L 391.847322 86.301871 
L 393.635001 87.10229 
L 394.401149 87.899734 
L 396.444211 89.497597 
L 397.721125 92.291625 
L 398.23189 92.690347 
L 398.487273 92.690347 
L 398.23189 93.48779 
L 397.976507 93.886512 
L 397.210359 93.886512 
L 396.444211 94.28821 
L 394.911914 97.48096 
L 393.890384 98.677125 
L 392.61347 99.078822 
L 391.336556 99.876266 
L 389.038112 102.670294 
L 386.992045 104.666879 
L 385.970514 105.464323 
L 384.182835 107.859629 
L 384.182835 109.05877 
L 382.650539 112.650242 
L 382.139773 113.048964 
L 381.884391 113.849383 
L 381.884391 116.643411 
L 381.373625 117.839577 
L 380.86286 118.639996 
L 380.607477 118.639996 
L 380.096712 118.238299 
L 379.585946 119.038718 
L 379.075181 121.035302 
L 379.075181 124.228052 
L 378.309032 125.424218 
L 377.287502 126.224637 
L 376.521353 126.224637 
L 376.265971 127.022081 
L 376.265971 128.221222 
L 375.755205 128.221222 
L 374.222909 129.018665 
L 373.712143 129.816109 
L 373.456761 130.613553 
L 373.967526 131.01525 
L 374.989057 130.613553 
L 375.24444 131.01525 
L 374.733674 131.413972 
L 373.198373 133.008859 
L 372.687608 132.211415 
L 372.687608 131.812694 
L 372.942991 131.812694 
L 372.942991 132.610137 
L 373.198373 133.410556 
L 373.198373 133.809278 
L 372.942991 134.208 
L 372.432225 134.606722 
L 372.176842 135.005444 
L 372.176842 135.805863 
L 371.92146 135.805863 
L 371.666077 136.204585 
L 371.666077 136.204585 
L 371.410694 136.204585 
L 370.899929 136.603306 
L 370.644546 137.40075 
L 370.899929 138.201169 
L 371.155312 138.201169 
L 370.899929 137.799472 
L 370.644546 138.201169 
L 370.644546 140.596476 
L 370.389163 140.995198 
L 370.133781 141.792641 
L 369.878398 142.191363 
L 370.389163 141.393919 
L 370.389163 141.393919 
L 370.133781 141.393919 
L 370.133781 141.393919 
L 369.878398 140.995198 
L 369.367632 141.792641 
L 369.367632 144.187948 
L 369.878398 144.586669 
L 370.133781 145.387089 
L 369.367632 145.78581 
L 368.856867 146.583254 
L 369.11225 146.981976 
L 369.11225 146.583254 
L 369.367632 146.583254 
L 369.367632 146.981976 
L 369.11225 147.380698 
L 368.856867 148.579839 
L 368.856867 149.377282 
L 368.346101 148.97856 
L 367.835336 148.97856 
L 367.835336 148.579839 
L 368.090719 148.181117 
L 368.601484 149.776004 
L 368.346101 151.373867 
L 368.346101 152.171311 
L 368.090719 152.570032 
L 368.346101 151.772589 
L 369.11225 151.373867 
L 369.367632 152.171311 
L 368.856867 152.570032 
L 368.090719 152.570032 
L 367.835336 152.97173 
L 368.090719 152.97173 
L 368.090719 152.97173 
L 368.090719 153.769173 
L 367.835336 154.566617 
L 368.090719 155.367036 
L 368.090719 156.961923 
L 368.090719 156.563202 
L 367.835336 156.16448 
L 367.069188 156.16448 
L 366.813805 156.961923 
L 367.324571 158.958508 
L 367.835336 160.157649 
L 367.579953 159.35723 
L 367.324571 158.161064 
L 367.324571 158.161064 
L 366.813805 158.559786 
L 366.30304 159.35723 
L 366.30304 160.157649 
L 366.558422 159.35723 
L 366.813805 158.161064 
L 366.558422 158.958508 
L 366.558422 160.157649 
L 366.813805 160.157649 
L 366.047657 160.157649 
L 366.30304 160.556371 
L 366.558422 160.556371 
L 366.558422 160.157649 
L 366.558422 162.151258 
L 366.30304 162.951677 
L 365.792274 162.951677 
L 365.792274 161.752536 
L 366.047657 162.552956 
L 365.792274 163.749121 
L 366.047657 164.147843 
L 366.30304 163.749121 
L 366.30304 163.350399 
L 365.792274 164.147843 
L 365.536891 163.749121 
L 365.281509 163.749121 
L 365.281509 165.745706 
L 365.026126 165.346984 
L 364.515361 164.948262 
L 364.515361 164.948262 
L 365.536891 166.543149 
L 365.536891 167.340593 
L 365.281509 166.543149 
L 365.026126 165.346984 
L 364.770743 165.346984 
L 364.259978 166.543149 
L 364.259978 167.340593 
L 364.770743 167.340593 
L 365.026126 166.543149 
L 365.026126 166.144427 
L 364.770743 166.144427 
L 364.770743 166.543149 
L 364.515361 166.543149 
L 364.515361 166.941871 
L 364.770743 166.941871 
L 364.770743 167.340593 
L 363.749212 168.938456 
L 364.259978 169.735899 
L 364.770743 170.137597 
L 364.770743 169.735899 
L 363.238447 167.340593 
L 362.727681 167.340593 
L 363.238447 168.141012 
L 363.238447 168.938456 
L 362.983064 168.938456 
L 364.259978 168.938456 
L 363.749212 169.735899 
L 363.749212 170.137597 
L 363.49383 169.735899 
L 363.749212 169.337178 
L 364.004595 169.337178 
L 364.259978 168.938456 
L 364.004595 168.141012 
L 363.238447 167.74229 
L 363.238447 168.141012 
L 363.749212 169.337178 
L 364.259978 169.337178 
L 364.515361 168.938456 
L 363.49383 170.536319 
L 363.238447 171.333762 
L 363.238447 171.333762 
L 364.004595 171.333762 
L 364.004595 171.333762 
L 363.49383 168.938456 
L 362.983064 168.539734 
L 362.216916 168.539734 
L 362.216916 168.539734 
L 362.727681 168.141012 
L 363.49383 168.141012 
L 363.49383 168.539734 
L 363.238447 168.141012 
L 362.727681 167.74229 
L 363.238447 167.74229 
L 364.515361 168.141012 
L 366.30304 168.141012 
L 368.090719 167.74229 
L 369.367632 167.74229 
L 371.666077 168.539734 
L 374.733674 166.144427 
L 376.010588 165.346984 
L 377.032119 165.346984 
L 378.309032 164.546565 
L 381.373625 164.546565 
L 381.629008 164.147843 
L 381.629008 164.147843 
L 382.395156 164.546565 
L 383.416687 163.749121 
L 383.416687 163.749121 
L 383.161304 163.350399 
L 382.905922 163.350399 
L 382.650539 164.147843 
L 382.650539 164.948262 
L 382.905922 164.546565 
L 383.416687 164.546565 
L 383.416687 164.546565 
L 382.905922 165.346984 
L 382.650539 165.346984 
L 382.905922 164.948262 
L 383.161304 164.948262 
L 383.161304 165.745706 
L 383.161304 165.745706 
L 382.905922 165.745706 
L 382.650539 164.948262 
L 381.629008 165.745706 
L 381.118243 165.745706 
L 381.118243 164.948262 
L 380.86286 165.346984 
L 380.86286 165.346984 
L 381.118243 165.346984 
L 381.629008 164.948262 
L 381.629008 165.745706 
L 381.373625 167.340593 
L 380.86286 167.74229 
L 380.607477 167.340593 
L 381.629008 165.745706 
L 382.139773 165.745706 
L 382.139773 166.144427 
L 381.373625 165.745706 
L 380.607477 165.745706 
L 380.352094 166.144427 
L 380.352094 166.941871 
L 380.607477 167.74229 
L 380.096712 167.74229 
L 380.86286 167.74229 
L 381.118243 167.340593 
L 381.118243 167.340593 
L 380.607477 167.74229 
L 380.096712 167.340593 
L 380.096712 166.941871 
L 380.096712 166.941871 
L 379.841329 167.340593 
L 379.841329 167.74229 
L 380.096712 168.141012 
L 380.607477 168.141012 
L 380.352094 168.141012 
L 379.841329 167.74229 
L 379.585946 166.144427 
L 379.841329 165.346984 
L 380.096712 165.745706 
L 379.585946 166.543149 
L 379.075181 166.543149 
L 379.075181 166.941871 
L 379.841329 166.941871 
L 380.352094 167.340593 
L 379.585946 168.539734 
L 379.585946 168.938456 
L 379.841329 169.735899 
L 380.096712 170.137597 
L 378.819798 168.141012 
L 378.564415 168.141012 
L 378.819798 168.938456 
L 378.819798 169.337178 
L 379.075181 168.938456 
L 378.819798 168.539734 
L 378.309032 168.141012 
L 377.542884 168.141012 
L 376.265971 168.539734 
L 374.989057 169.735899 
L 370.389163 171.732484 
L 367.324571 172.131206 
L 364.259978 172.131206 
L 360.940002 171.732484 
L 357.106257 172.131206 
L 353.275516 173.330347 
L 348.678627 175.725653 
L 342.801819 178.918403 
L 336.161868 182.114129 
L 329.7773 184.50646 
L 323.900493 186.901766 
L 318.282073 190.097492 
L 312.149883 193.290242 
L 305.509932 196.482992 
L 299.125363 199.279996 
L 293.248556 201.675302 
L 287.374753 203.668911 
L 281.242563 206.064218 
L 275.36876 208.858246 
L 269.494958 212.053972 
L 263.61815 215.645444 
L 257.744348 219.638613 
L 251.86754 223.230085 
L 245.738355 226.42581 
L 239.864552 228.41942 
L 224.793966 234.409173 
L 220.194073 237.203202 
L 215.852566 240.395952 
L 211.766442 243.18998 
L 202.56966 246.385706 
L 198.738919 247.980593 
L 195.929709 249.578456 
L 193.631264 251.973762 
L 191.585198 253.571625 
L 188.265222 254.76779 
L 186.988309 254.76779 
L 185.966778 255.166512 
L 185.456012 255.966931 
L 185.711395 255.966931 
L 186.22216 256.764375 
L 186.732926 257.163097 
L 187.499074 257.163097 
L 188.265222 256.764375 
L 190.308284 255.966931 
L 190.81905 255.966931 
L 191.074432 255.56821 
L 191.074432 256.365653 
L 191.585198 257.163097 
L 193.120499 258.76096 
L 192.609733 260.757544 
L 192.609733 260.757544 
L 192.609733 260.355847 
L 192.095963 260.355847 
L 190.308284 262.352432 
L 190.308284 263.152851 
L 190.563667 262.751153 
L 189.03137 265.14646 
L 189.03137 265.946879 
L 189.286753 266.345601 
L 189.542136 266.345601 
L 189.286753 266.744323 
L 189.03137 267.541766 
L 189.03137 268.740907 
L 189.286753 269.538351 
L 190.052901 271.534936 
L 189.797519 272.332379 
L 189.286753 271.933657 
L 189.286753 271.933657 
L 189.03137 272.332379 
L 188.265222 272.332379 
L 187.754457 273.132798 
L 188.009839 275.129383 
L 188.265222 275.528105 
L 188.265222 275.129383 
L 188.009839 274.727686 
L 187.243691 275.926827 
L 187.243691 276.325548 
L 187.499074 275.926827 
L 187.243691 275.528105 
L 186.732926 275.129383 
L 186.732926 275.926827 
L 186.988309 277.521714 
L 185.966778 278.322133 
L 185.966778 277.923411 
L 186.22216 277.923411 
L 186.22216 281.913605 
L 186.477543 282.312327 
L 186.988309 282.714024 
L 186.988309 283.511468 
L 186.732926 283.511468 
L 186.732926 282.714024 
L 186.988309 282.714024 
L 186.477543 283.112746 
L 186.22216 283.511468 
L 185.966778 284.308911 
L 186.477543 284.707633 
L 186.732926 285.109331 
L 186.477543 285.906774 
L 186.22216 286.305496 
L 185.966778 286.305496 
L 185.456012 285.508052 
L 185.456012 285.508052 
L 185.711395 286.305496 
L 185.711395 287.504637 
L 185.200629 288.302081 
L 185.456012 288.302081 
L 185.456012 287.504637 
L 185.456012 287.903359 
L 185.711395 288.302081 
L 185.711395 289.099524 
L 183.923716 289.099524 
L 184.434481 288.700802 
L 184.689864 288.700802 
L 184.689864 288.302081 
L 184.434481 288.302081 
L 184.434481 288.700802 
L 184.179099 290.298665 
L 184.434481 290.298665 
L 184.434481 289.899943 
L 184.179099 289.899943 
L 184.179099 290.298665 
L 183.923716 291.096109 
L 183.668333 291.494831 
L 183.41295 290.697387 
L 183.41295 290.697387 
L 183.41295 291.096109 
L 183.668333 291.096109 
L 183.923716 290.697387 
L 184.179099 291.096109 
L 183.923716 292.693972 
L 184.434481 292.29525 
L 185.200629 291.096109 
L 185.200629 291.096109 
L 184.689864 290.697387 
L 184.179099 290.697387 
L 184.689864 290.697387 
L 184.689864 291.096109 
L 184.434481 291.096109 
L 183.923716 291.893553 
L 183.923716 291.893553 
L 183.668333 291.893553 
L 183.41295 291.494831 
L 183.157568 291.494831 
L 183.41295 291.893553 
L 183.668333 291.494831 
L 184.179099 291.096109 
L 184.179099 292.29525 
L 183.923716 292.29525 
L 183.923716 291.893553 
L 184.179099 291.494831 
L 184.689864 291.494831 
L 184.434481 292.29525 
L 184.434481 293.491415 
L 184.689864 293.092694 
L 184.945247 293.092694 
L 184.179099 293.092694 
L 183.668333 293.491415 
L 183.157568 295.089278 
L 182.902185 295.488 
L 182.902185 295.089278 
L 183.668333 294.690556 
L 184.434481 294.690556 
L 184.434481 294.690556 
L 184.179099 294.288859 
L 183.923716 294.690556 
L 183.668333 293.890137 
L 183.668333 293.092694 
L 183.41295 293.092694 
L 182.646802 293.890137 
L 182.646802 294.288859 
L 183.157568 293.890137 
L 183.157568 293.491415 
L 182.136037 294.288859 
L 182.136037 292.693972 
L 181.880654 292.693972 
L 181.625271 293.092694 
L 181.625271 293.890137 
L 182.902185 293.890137 
L 183.157568 293.491415 
L 183.157568 293.890137 
L 182.391419 294.288859 
L 183.157568 293.092694 
L 183.41295 291.893553 
L 183.157568 291.893553 
L 182.646802 293.092694 
L 182.391419 292.693972 
L 182.391419 291.494831 
L 182.136037 291.494831 
L 182.391419 291.893553 
L 182.646802 292.693972 
L 182.902185 293.092694 
L 183.157568 293.092694 
L 183.668333 293.491415 
L 183.923716 293.491415 
L 183.668333 292.693972 
L 183.668333 291.096109 
L 183.923716 291.494831 
L 183.668333 291.893553 
L 183.157568 292.29525 
L 182.646802 292.29525 
L 182.136037 291.893553 
L 182.646802 290.697387 
L 183.157568 290.298665 
L 183.157568 290.298665 
L 182.646802 290.298665 
L 182.646802 290.697387 
L 182.902185 291.893553 
L 182.646802 292.693972 
L 182.391419 292.29525 
L 182.391419 291.494831 
L 182.646802 291.096109 
L 182.902185 291.893553 
L 182.646802 292.29525 
L 182.391419 291.893553 
L 182.391419 291.494831 
L 182.136037 291.893553 
L 182.136037 291.494831 
L 182.391419 290.697387 
L 182.391419 289.498246 
L 182.391419 289.498246 
L 182.646802 290.298665 
L 182.646802 290.298665 
L 182.136037 289.498246 
L 182.136037 289.498246 
L 182.902185 289.899943 
L 183.157568 290.298665 
L 182.136037 289.498246 
L 182.136037 290.298665 
L 182.391419 291.096109 
L 182.646802 291.494831 
L 182.646802 291.893553 
L 182.646802 291.096109 
L 182.902185 290.298665 
L 182.902185 290.697387 
L 183.157568 291.096109 
L 182.391419 289.899943 
L 182.136037 289.899943 
L 182.391419 290.298665 
L 182.902185 289.899943 
L 182.902185 290.298665 
L 182.646802 290.697387 
L 182.646802 291.096109 
L 183.157568 291.893553 
L 183.157568 292.29525 
L 183.157568 291.096109 
L 182.902185 289.899943 
L 182.902185 288.302081 
L 182.391419 288.700802 
L 181.880654 288.700802 
L 182.136037 287.903359 
L 182.646802 287.10294 
L 182.902185 287.903359 
L 182.902185 288.302081 
L 182.902185 288.302081 
L 182.646802 287.903359 
L 182.646802 290.298665 
L 182.646802 289.498246 
L 182.136037 288.700802 
L 182.136037 288.700802 
L 182.902185 289.099524 
L 182.902185 288.700802 
L 182.391419 288.302081 
L 182.136037 287.504637 
L 181.880654 287.10294 
L 181.369888 287.903359 
L 182.136037 286.704218 
L 182.136037 285.109331 
L 182.136037 285.109331 
L 182.902185 285.109331 
L 183.157568 285.508052 
L 182.902185 285.906774 
L 182.646802 285.508052 
L 182.391419 284.707633 
L 181.880654 283.511468 
L 182.136037 283.511468 
L 182.391419 283.91019 
L 182.136037 284.308911 
L 182.136037 284.707633 
L 182.391419 285.109331 
L 182.646802 284.308911 
L 182.391419 283.112746 
L 181.880654 282.714024 
L 181.625271 283.112746 
L 182.136037 283.112746 
L 181.880654 282.714024 
L 180.60374 282.312327 
L 182.136037 282.312327 
L 182.136037 281.913605 
L 181.625271 281.514883 
L 181.114506 281.913605 
L 179.837592 281.913605 
L 180.348358 279.518299 
L 180.092975 279.518299 
L 179.326827 279.91702 
L 179.326827 280.71744 
L 179.837592 281.116161 
L 179.837592 281.116161 
L 179.837592 279.518299 
L 179.582209 279.119577 
L 178.816061 279.119577 
L 178.816061 278.720855 
L 179.326827 278.322133 
L 179.582209 279.119577 
L 179.326827 279.518299 
L 178.560678 278.720855 
L 178.049913 277.521714 
L 178.816061 276.72427 
L 179.582209 276.72427 
L 179.582209 277.122992 
L 179.071444 277.923411 
L 178.816061 278.720855 
L 179.071444 277.923411 
L 179.326827 277.923411 
L 179.326827 278.322133 
L 178.816061 277.923411 
L 178.305296 276.325548 
L 178.049913 275.926827 
L 177.79453 276.325548 
L 177.539148 277.122992 
L 177.025378 277.521714 
L 177.025378 276.325548 
L 177.28076 275.528105 
L 177.79453 275.528105 
L 178.049913 275.129383 
L 178.560678 275.129383 
L 178.305296 275.528105 
L 177.79453 275.129383 
L 177.539148 274.328964 
L 177.539148 273.930242 
L 178.049913 274.727686 
L 178.049913 274.328964 
L 177.79453 273.930242 
L 177.539148 274.328964 
L 177.539148 274.727686 
L 177.539148 273.53152 
L 177.79453 273.53152 
L 178.049913 273.930242 
L 178.049913 274.328964 
L 178.305296 274.727686 
L 178.305296 274.328964 
L 178.049913 273.53152 
L 178.305296 273.53152 
L 178.049913 273.930242 
L 177.539148 274.328964 
L 177.28076 273.53152 
L 177.539148 272.332379 
L 177.79453 271.933657 
L 177.539148 272.332379 
L 177.539148 272.734077 
L 177.79453 273.53152 
L 177.79453 273.53152 
L 177.539148 273.132798 
L 177.539148 272.332379 
L 177.025378 271.534936 
L 176.769995 271.534936 
L 176.769995 271.933657 
L 177.025378 272.734077 
L 178.305296 272.734077 
L 178.305296 272.734077 
L 178.305296 272.332379 
L 178.816061 272.734077 
L 178.816061 272.734077 
L 178.560678 272.734077 
L 178.049913 273.132798 
L 178.049913 273.930242 
L 177.79453 274.328964 
L 177.28076 274.328964 
L 177.28076 274.328964 
L 177.539148 274.727686 
L 177.539148 274.727686 
L 177.79453 274.328964 
L 177.79453 273.930242 
L 177.79453 273.930242 
L 178.049913 273.930242 
L 177.28076 273.930242 
L 177.539148 273.930242 
L 177.539148 274.328964 
L 177.79453 274.727686 
L 178.305296 273.930242 
L 178.049913 273.53152 
L 177.79453 273.930242 
L 178.049913 274.727686 
L 178.305296 274.727686 
L 178.049913 275.129383 
L 178.049913 275.129383 
L 178.560678 275.129383 
L 178.560678 273.53152 
L 178.305296 273.53152 
L 178.049913 274.328964 
L 177.539148 274.727686 
L 177.539148 274.727686 
L 177.79453 274.328964 
L 178.049913 274.727686 
L 178.049913 274.727686 
L 178.049913 273.930242 
L 178.305296 273.930242 
L 178.305296 274.328964 
L 178.049913 274.328964 
L 178.049913 274.328964 
L 178.305296 273.930242 
L 178.305296 273.930242 
L 178.305296 274.328964 
L 178.305296 274.328964 
L 178.049913 273.53152 
L 177.539148 272.734077 
L 177.79453 273.132798 
L 178.049913 273.132798 
L 178.049913 272.734077 
L 177.79453 272.332379 
L 177.539148 273.132798 
L 177.28076 274.328964 
L 177.79453 275.129383 
L 178.305296 275.528105 
L 177.79453 275.528105 
L 177.28076 275.129383 
L 177.539148 274.328964 
L 178.049913 274.328964 
L 178.049913 273.930242 
L 177.79453 273.930242 
L 177.79453 273.53152 
L 178.049913 273.930242 
L 178.305296 274.727686 
L 178.049913 274.727686 
L 177.539148 273.930242 
L 177.539148 274.328964 
L 177.79453 275.129383 
L 178.049913 275.129383 
L 178.049913 274.727686 
L 177.79453 274.727686 
L 177.79453 275.528105 
L 178.049913 276.72427 
L 178.049913 276.325548 
L 178.305296 275.926827 
L 177.79453 275.129383 
L 177.539148 275.528105 
L 178.049913 276.72427 
L 178.560678 277.122992 
L 178.560678 274.727686 
L 178.305296 275.528105 
L 178.305296 276.325548 
L 178.560678 277.122992 
L 178.816061 276.72427 
L 178.816061 276.72427 
L 178.560678 276.72427 
L 178.305296 276.325548 
L 178.305296 275.926827 
L 178.049913 275.926827 
L 178.049913 276.72427 
L 177.79453 277.122992 
L 177.28076 277.521714 
L 177.025378 277.521714 
L 177.025378 277.521714 
L 177.28076 277.122992 
L 178.560678 275.926827 
L 178.816061 276.325548 
L 178.305296 276.325548 
L 177.539148 275.528105 
L 177.28076 275.528105 
L 177.28076 276.325548 
L 177.539148 276.72427 
L 177.79453 276.72427 
L 177.79453 276.325548 
L 178.049913 276.72427 
L 178.560678 276.72427 
L 178.305296 275.926827 
L 177.79453 275.528105 
L 177.539148 275.926827 
L 178.049913 276.325548 
L 178.049913 276.72427 
L 178.049913 276.325548 
L 178.305296 276.325548 
L 178.816061 276.72427 
L 178.816061 277.521714 
L 178.305296 278.322133 
L 177.28076 278.322133 
L 177.28076 277.521714 
L 177.539148 276.72427 
L 178.305296 276.325548 
L 178.560678 276.325548 
L 177.79453 275.926827 
L 177.28076 275.528105 
L 177.28076 275.528105 
L 177.79453 276.325548 
L 177.79453 276.325548 
L 178.049913 275.926827 
L 178.049913 276.325548 
L 177.79453 276.325548 
L 177.539148 275.528105 
L 177.79453 276.325548 
L 178.049913 276.72427 
L 177.539148 275.926827 
L 177.025378 275.528105 
L 176.514612 275.926827 
L 177.025378 275.926827 
L 178.049913 276.72427 
L 178.305296 276.325548 
L 178.305296 275.129383 
L 178.049913 274.727686 
L 177.28076 274.328964 
L 176.769995 274.328964 
L 176.769995 274.727686 
L 176.514612 274.328964 
L 176.514612 273.930242 
L 177.025378 274.328964 
L 177.025378 275.129383 
L 176.514612 275.926827 
L 176.514612 275.926827 
L 176.259229 275.926827 
L 176.514612 275.528105 
L 176.514612 274.727686 
L 177.025378 274.328964 
L 177.28076 274.328964 
L 177.025378 274.328964 
L 177.28076 274.727686 
L 177.025378 274.727686 
L 177.79453 274.727686 
L 177.025378 274.727686 
L 176.514612 274.328964 
L 176.514612 273.53152 
L 177.28076 273.53152 
L 177.28076 273.930242 
L 177.025378 274.328964 
L 177.79453 273.132798 
L 178.560678 273.132798 
L 178.305296 272.734077 
L 177.79453 272.734077 
L 177.28076 273.53152 
L 176.769995 273.930242 
L 176.769995 273.930242 
L 176.514612 273.53152 
L 177.025378 272.734077 
L 177.025378 272.734077 
L 176.514612 272.734077 
L 176.514612 273.930242 
L 177.025378 273.132798 
L 177.539148 273.53152 
L 177.79453 273.53152 
L 176.769995 274.328964 
L 176.769995 274.328964 
L 177.025378 273.53152 
L 176.769995 272.734077 
L 176.769995 271.534936 
L 176.769995 272.332379 
L 177.025378 273.132798 
L 177.539148 273.132798 
L 177.539148 272.734077 
L 177.539148 272.734077 
L 177.025378 272.332379 
L 176.769995 272.734077 
L 177.28076 271.933657 
L 177.28076 271.534936 
L 177.79453 271.136214 
L 178.049913 271.534936 
L 177.539148 272.332379 
L 176.514612 273.132798 
L 175.748464 273.132798 
L 175.748464 272.734077 
L 176.514612 272.332379 
L 177.025378 272.332379 
L 177.025378 272.332379 
L 176.514612 271.534936 
L 176.514612 271.933657 
L 176.259229 272.734077 
L 176.259229 272.734077 
L 176.769995 272.734077 
L 177.025378 272.332379 
L 177.025378 270.33877 
L 177.025378 270.33877 
L 176.514612 270.33877 
L 176.259229 271.136214 
L 176.769995 271.933657 
L 177.28076 272.332379 
L 177.539148 272.332379 
L 177.539148 273.132798 
L 177.28076 273.53152 
L 177.28076 273.132798 
L 177.539148 271.933657 
L 177.025378 271.534936 
L 176.514612 271.534936 
L 176.514612 272.332379 
L 177.025378 272.734077 
L 177.025378 271.933657 
L 176.769995 271.933657 
L 177.28076 272.332379 
L 177.79453 273.53152 
L 177.025378 271.534936 
L 177.79453 271.534936 
L 177.539148 271.136214 
L 177.28076 271.136214 
L 177.28076 271.534936 
L 178.305296 273.132798 
L 178.049913 273.132798 
L 177.539148 273.930242 
L 177.539148 274.727686 
L 177.79453 273.930242 
L 177.79453 272.734077 
L 177.28076 272.734077 
L 177.025378 273.132798 
L 177.025378 273.132798 
L 177.025378 272.734077 
L 177.025378 272.734077 
L 177.28076 272.332379 
L 177.539148 272.332379 
L 177.28076 272.734077 
L 176.769995 273.132798 
L 176.514612 273.53152 
L 176.769995 273.930242 
L 177.28076 273.930242 
L 177.539148 273.53152 
L 178.305296 273.132798 
L 179.326827 271.933657 
L 180.60374 271.136214 
L 182.646802 271.136214 
L 185.456012 270.737492 
L 188.265222 269.538351 
L 191.329815 267.943464 
L 194.908178 265.946879 
L 201.292746 262.751153 
L 211.766442 259.159681 
L 215.086418 257.561819 
L 219.172542 254.76779 
L 223.006287 252.372484 
L 227.092411 250.375899 
L 230.667769 249.179734 
L 237.30772 247.581871 
L 241.141466 245.986984 
L 245.227589 243.591677 
L 249.05833 241.595093 
L 253.147458 239.598508 
L 257.744348 237.601923 
L 262.341237 235.206617 
L 266.682743 234.010452 
L 270.771871 233.210032 
L 274.857995 232.013867 
L 279.454884 230.416004 
L 288.90705 226.824532 
L 292.737791 226.024113 
L 296.057766 224.429226 
L 299.380746 222.432641 
L 306.531463 219.239891 
L 310.106821 217.243306 
L 313.174418 215.246722 
L 315.728245 213.250137 
L 318.282073 212.053972 
L 323.900493 211.253553 
L 326.45432 210.456109 
L 328.500386 209.259943 
L 330.543448 208.459524 
L 332.331127 208.459524 
L 333.352658 208.858246 
L 334.629572 208.459524 
L 335.651103 207.263359 
L 336.161868 206.864637 
L 335.651103 207.263359 
L 333.097276 208.060802 
L 332.58651 210.456109 
L 332.075745 210.456109 
L 331.309597 212.053972 
L 330.032683 213.250137 
L 328.500386 213.250137 
L 328.245004 213.648859 
L 328.500386 215.246722 
L 327.986617 215.246722 
L 327.475851 214.848 
L 327.220468 214.050556 
L 327.731234 215.645444 
L 327.986617 216.044165 
L 328.755769 215.246722 
L 329.266535 214.449278 
L 329.266535 214.449278 
L 328.500386 214.449278 
L 328.245004 214.848 
L 328.245004 217.243306 
L 328.500386 217.642028 
L 328.245004 217.243306 
L 326.965086 216.044165 
L 326.965086 214.848 
L 326.965086 214.848 
L 327.220468 215.246722 
L 327.475851 216.844585 
L 327.475851 216.044165 
L 327.220468 216.445863 
L 325.432789 216.445863 
L 325.688172 216.044165 
L 326.45432 215.645444 
L 326.709703 215.645444 
L 326.198937 215.645444 
L 325.943555 216.445863 
L 325.943555 217.243306 
L 326.198937 216.844585 
L 326.709703 216.844585 
L 326.45432 216.044165 
L 325.943555 215.645444 
L 325.688172 216.044165 
L 325.943555 216.844585 
L 325.943555 216.844585 
L 325.688172 216.844585 
L 325.688172 217.243306 
L 325.943555 216.844585 
L 325.943555 216.445863 
L 324.922024 216.445863 
L 324.922024 216.044165 
L 325.177406 216.445863 
L 325.177406 216.445863 
L 324.922024 216.445863 
L 325.177406 217.243306 
L 325.688172 217.243306 
L 325.688172 216.445863 
L 325.432789 216.445863 
L 325.432789 217.243306 
L 325.177406 217.642028 
L 324.666641 217.642028 
L 324.155876 217.243306 
L 323.900493 216.844585 
L 324.922024 216.445863 
L 325.688172 216.445863 
L 325.432789 217.243306 
L 324.155876 218.439472 
L 324.411258 218.439472 
L 324.922024 218.841169 
L 325.177406 218.841169 
L 324.922024 218.439472 
L 324.922024 218.04075 
L 324.666641 217.642028 
L 324.411258 216.844585 
L 324.411258 216.445863 
L 324.666641 216.445863 
L 324.666641 217.642028 
L 324.922024 217.642028 
L 325.177406 217.243306 
L 325.432789 216.445863 
L 325.688172 216.445863 
L 325.432789 216.844585 
L 324.922024 216.844585 
L 324.922024 217.642028 
L 325.432789 218.439472 
L 325.432789 218.439472 
L 325.177406 217.642028 
L 324.666641 216.844585 
L 324.666641 215.645444 
L 324.922024 215.645444 
L 325.177406 216.445863 
L 325.432789 217.642028 
L 324.922024 216.844585 
L 324.922024 217.243306 
L 325.432789 216.844585 
L 325.177406 216.044165 
L 324.666641 215.246722 
L 324.666641 215.645444 
L 324.922024 216.044165 
L 324.922024 216.445863 
L 324.666641 216.445863 
L 324.666641 216.844585 
L 324.411258 216.445863 
L 324.666641 216.044165 
L 324.666641 217.243306 
L 325.177406 217.243306 
L 324.666641 217.243306 
L 323.900493 217.642028 
L 323.64511 218.04075 
L 323.64511 217.642028 
L 324.666641 216.844585 
L 324.922024 216.844585 
L 324.922024 217.642028 
L 324.922024 217.642028 
L 323.389727 217.642028 
L 323.64511 217.243306 
L 324.155876 217.243306 
L 324.666641 217.642028 
L 324.666641 217.243306 
L 324.155876 216.844585 
L 323.900493 216.445863 
L 323.900493 214.848 
L 324.922024 214.848 
L 326.45432 214.449278 
L 329.266535 214.449278 
L 333.608041 213.648859 
L 335.906486 212.851415 
L 338.20493 212.452694 
L 340.758758 211.65525 
L 346.890948 210.057387 
L 353.275516 206.864637 
L 356.084726 205.266774 
L 358.641558 203.668911 
L 361.195385 202.472746 
L 363.238447 200.874883 
L 367.069188 195.685548 
L 369.11225 193.290242 
L 371.155312 191.692379 
L 370.644546 191.293657 
L 370.389163 190.496214 
L 370.644546 189.69877 
L 371.155312 188.898351 
L 371.666077 189.297073 
L 370.644546 189.297073 
L 369.878398 189.69877 
L 369.367632 192.094077 
L 368.856867 192.89152 
L 368.856867 192.492798 
L 368.601484 192.094077 
L 368.346101 192.094077 
L 367.835336 192.89152 
L 367.579953 192.492798 
L 367.579953 192.094077 
L 367.579953 192.492798 
L 367.324571 192.492798 
L 366.813805 192.89152 
L 366.558422 192.89152 
L 366.813805 192.492798 
L 367.324571 192.492798 
L 367.835336 192.89152 
L 367.835336 192.89152 
L 367.835336 191.293657 
L 367.579953 191.293657 
L 367.579953 191.293657 
L 367.579953 190.097492 
L 367.835336 190.496214 
L 368.090719 192.094077 
L 367.579953 191.692379 
L 366.813805 191.692379 
L 366.558422 192.094077 
L 366.558422 192.094077 
L 366.30304 191.692379 
L 366.30304 190.894936 
L 366.558422 190.496214 
L 366.813805 189.69877 
L 366.558422 188.898351 
L 366.30304 189.297073 
L 366.30304 190.496214 
L 367.835336 192.094077 
L 368.090719 191.692379 
L 367.835336 191.692379 
L 367.579953 191.293657 
L 367.579953 192.094077 
L 367.579953 191.692379 
L 367.835336 191.692379 
L 367.579953 191.692379 
L 366.813805 191.293657 
L 366.047657 191.293657 
L 366.047657 192.094077 
L 366.558422 192.89152 
L 366.813805 192.89152 
L 366.813805 191.293657 
L 366.813805 191.293657 
L 366.047657 190.097492 
L 365.281509 189.69877 
L 365.281509 189.69877 
L 365.536891 190.894936 
L 366.047657 191.293657 
L 366.047657 191.692379 
L 366.558422 190.894936 
L 366.558422 190.097492 
L 365.281509 190.097492 
L 365.536891 189.69877 
L 366.047657 189.297073 
L 366.558422 189.297073 
L 366.813805 189.69877 
L 366.558422 189.69877 
L 366.558422 189.297073 
L 367.069188 188.100907 
L 367.069188 186.901766 
L 366.558422 188.499629 
L 366.558422 188.499629 
L 366.813805 188.100907 
L 366.30304 187.303464 
L 365.536891 186.901766 
L 365.026126 187.303464 
L 365.026126 187.303464 
L 365.281509 187.303464 
L 365.536891 186.901766 
L 365.536891 186.503044 
L 365.536891 186.503044 
L 365.281509 187.303464 
L 364.770743 188.100907 
L 364.770743 188.100907 
L 365.281509 188.100907 
L 365.792274 187.303464 
L 365.792274 186.901766 
L 365.536891 186.901766 
L 365.536891 186.503044 
L 365.026126 185.705601 
L 364.770743 186.104323 
L 364.515361 186.104323 
L 364.259978 185.705601 
L 364.004595 184.908157 
L 364.515361 184.908157 
L 364.770743 185.306879 
L 364.515361 185.306879 
L 364.259978 184.50646 
L 364.259978 183.709016 
L 364.004595 183.310294 
L 364.004595 184.107738 
L 363.749212 184.50646 
L 363.238447 184.107738 
L 362.983064 184.107738 
L 363.238447 184.107738 
L 363.749212 184.50646 
L 363.749212 184.50646 
L 363.49383 183.709016 
L 362.472299 181.31371 
L 362.727681 180.914988 
L 362.983064 180.914988 
L 362.472299 181.712432 
L 362.216916 182.512851 
L 362.216916 181.712432 
L 362.472299 180.914988 
L 362.216916 181.712432 
L 362.216916 182.512851 
L 362.727681 182.114129 
L 361.961533 180.914988 
L 361.450768 180.914988 
L 361.450768 181.712432 
L 361.70615 182.114129 
L 361.70615 181.712432 
L 361.195385 180.914988 
L 361.195385 180.516266 
L 361.195385 180.516266 
L 360.940002 180.516266 
L 360.68462 180.914988 
L 360.940002 181.712432 
L 361.450768 181.31371 
L 361.195385 180.117544 
L 360.68462 179.718822 
L 360.429237 180.117544 
L 360.940002 180.516266 
L 361.450768 180.117544 
L 361.70615 179.718822 
L 361.70615 179.317125 
L 360.68462 179.317125 
L 360.429237 178.918403 
L 360.429237 179.718822 
L 359.663089 178.519681 
L 359.663089 178.519681 
L 359.407706 178.918403 
L 358.89694 178.918403 
L 358.89694 178.918403 
L 359.152323 178.12096 
L 359.663089 177.722238 
L 359.663089 178.519681 
L 359.407706 179.718822 
L 359.918471 177.722238 
L 359.918471 175.725653 
L 359.918471 176.921819 
L 359.663089 176.523097 
L 359.663089 176.523097 
L 359.663089 176.921819 
L 360.173854 177.722238 
L 360.429237 177.722238 
L 360.429237 177.722238 
L 360.68462 177.323516 
L 360.68462 177.722238 
L 360.429237 177.722238 
L 360.173854 176.921819 
L 359.918471 176.523097 
L 359.407706 176.523097 
L 358.89694 176.921819 
L 358.89694 177.323516 
L 358.89694 176.523097 
L 359.407706 177.323516 
L 359.918471 176.921819 
L 360.173854 176.124375 
L 360.173854 176.124375 
L 359.663089 176.921819 
L 359.407706 176.523097 
L 358.89694 176.124375 
L 358.89694 176.124375 
L 359.407706 176.124375 
L 359.407706 176.124375 
" style="fill:none;stroke:#1f77b4;stroke-linecap:square;stroke-width:1.5;"/>
   </g>
   <g id="matplotlib.axis_1">
    <g id="xtick_1">
     <g id="line2d_2">
      <defs>
       <path d="M 0 0 
L 0 3.5 
" id="m112682df5c" style="stroke:#000000;stroke-width:0.8;"/>
      </defs>
      <g>
       <use style="stroke:#000000;stroke-width:0.8;" x="57.614422" xlink:href="#m112682df5c" y="307.584"/>
      </g>
     </g>
     <g id="text_1">
      <!-- 800 -->
      <defs>
       <path d="M 10.59375 35.5 
L 73.1875 35.5 
L 73.1875 27.203125 
L 10.59375 27.203125 
z
" id="DejaVuSans-8722"/>
       <path d="M 31.78125 34.625 
Q 24.75 34.625 20.71875 30.859375 
Q 16.703125 27.09375 16.703125 20.515625 
Q 16.703125 13.921875 20.71875 10.15625 
Q 24.75 6.390625 31.78125 6.390625 
Q 38.8125 6.390625 42.859375 10.171875 
Q 46.921875 13.96875 46.921875 20.515625 
Q 46.921875 27.09375 42.890625 30.859375 
Q 38.875 34.625 31.78125 34.625 
z
M 21.921875 38.8125 
Q 15.578125 40.375 12.03125 44.71875 
Q 8.5 49.078125 8.5 55.328125 
Q 8.5 64.0625 14.71875 69.140625 
Q 20.953125 74.21875 31.78125 74.21875 
Q 42.671875 74.21875 48.875 69.140625 
Q 55.078125 64.0625 55.078125 55.328125 
Q 55.078125 49.078125 51.53125 44.71875 
Q 48 40.375 41.703125 38.8125 
Q 48.828125 37.15625 52.796875 32.3125 
Q 56.78125 27.484375 56.78125 20.515625 
Q 56.78125 9.90625 50.3125 4.234375 
Q 43.84375 -1.421875 31.78125 -1.421875 
Q 19.734375 -1.421875 13.25 4.234375 
Q 6.78125 9.90625 6.78125 20.515625 
Q 6.78125 27.484375 10.78125 32.3125 
Q 14.796875 37.15625 21.921875 38.8125 
z
M 18.3125 54.390625 
Q 18.3125 48.734375 21.84375 45.5625 
Q 25.390625 42.390625 31.78125 42.390625 
Q 38.140625 42.390625 41.71875 45.5625 
Q 45.3125 48.734375 45.3125 54.390625 
Q 45.3125 60.0625 41.71875 63.234375 
Q 38.140625 66.40625 31.78125 66.40625 
Q 25.390625 66.40625 21.84375 63.234375 
Q 18.3125 60.0625 18.3125 54.390625 
z
" id="DejaVuSans-56"/>
       <path d="M 31.78125 66.40625 
Q 24.171875 66.40625 20.328125 58.90625 
Q 16.5 51.421875 16.5 36.375 
Q 16.5 21.390625 20.328125 13.890625 
Q 24.171875 6.390625 31.78125 6.390625 
Q 39.453125 6.390625 43.28125 13.890625 
Q 47.125 21.390625 47.125 36.375 
Q 47.125 51.421875 43.28125 58.90625 
Q 39.453125 66.40625 31.78125 66.40625 
z
M 31.78125 74.21875 
Q 44.046875 74.21875 50.515625 64.515625 
Q 56.984375 54.828125 56.984375 36.375 
Q 56.984375 17.96875 50.515625 8.265625 
Q 44.046875 -1.421875 31.78125 -1.421875 
Q 19.53125 -1.421875 13.0625 8.265625 
Q 6.59375 17.96875 6.59375 36.375 
Q 6.59375 54.828125 13.0625 64.515625 
Q 19.53125 74.21875 31.78125 74.21875 
z
" id="DejaVuSans-48"/>
      </defs>
      <g transform="translate(43.880828 322.182437)scale(0.1 -0.1)">
       <use xlink:href="#DejaVuSans-8722"/>
       <use x="83.789062" xlink:href="#DejaVuSans-56"/>
       <use x="147.412109" xlink:href="#DejaVuSans-48"/>
       <use x="211.035156" xlink:href="#DejaVuSans-48"/>
      </g>
     </g>
    </g>
    <g id="xtick_2">
     <g id="line2d_3">
      <g>
       <use style="stroke:#000000;stroke-width:0.8;" x="117.704476" xlink:href="#m112682df5c" y="307.584"/>
      </g>
     </g>
     <g id="text_2">
      <!-- 600 -->
      <defs>
       <path d="M 33.015625 40.375 
Q 26.375 40.375 22.484375 35.828125 
Q 18.609375 31.296875 18.609375 23.390625 
Q 18.609375 15.53125 22.484375 10.953125 
Q 26.375 6.390625 33.015625 6.390625 
Q 39.65625 6.390625 43.53125 10.953125 
Q 47.40625 15.53125 47.40625 23.390625 
Q 47.40625 31.296875 43.53125 35.828125 
Q 39.65625 40.375 33.015625 40.375 
z
M 52.59375 71.296875 
L 52.59375 62.3125 
Q 48.875 64.0625 45.09375 64.984375 
Q 41.3125 65.921875 37.59375 65.921875 
Q 27.828125 65.921875 22.671875 59.328125 
Q 17.53125 52.734375 16.796875 39.40625 
Q 19.671875 43.65625 24.015625 45.921875 
Q 28.375 48.1875 33.59375 48.1875 
Q 44.578125 48.1875 50.953125 41.515625 
Q 57.328125 34.859375 57.328125 23.390625 
Q 57.328125 12.15625 50.6875 5.359375 
Q 44.046875 -1.421875 33.015625 -1.421875 
Q 20.359375 -1.421875 13.671875 8.265625 
Q 6.984375 17.96875 6.984375 36.375 
Q 6.984375 53.65625 15.1875 63.9375 
Q 23.390625 74.21875 37.203125 74.21875 
Q 40.921875 74.21875 44.703125 73.484375 
Q 48.484375 72.75 52.59375 71.296875 
z
" id="DejaVuSans-54"/>
      </defs>
      <g transform="translate(103.970882 322.182437)scale(0.1 -0.1)">
       <use xlink:href="#DejaVuSans-8722"/>
       <use x="83.789062" xlink:href="#DejaVuSans-54"/>
       <use x="147.412109" xlink:href="#DejaVuSans-48"/>
       <use x="211.035156" xlink:href="#DejaVuSans-48"/>
      </g>
     </g>
    </g>
    <g id="xtick_3">
     <g id="line2d_4">
      <g>
       <use style="stroke:#000000;stroke-width:0.8;" x="177.79453" xlink:href="#m112682df5c" y="307.584"/>
      </g>
     </g>
     <g id="text_3">
      <!-- 400 -->
      <defs>
       <path d="M 37.796875 64.3125 
L 12.890625 25.390625 
L 37.796875 25.390625 
z
M 35.203125 72.90625 
L 47.609375 72.90625 
L 47.609375 25.390625 
L 58.015625 25.390625 
L 58.015625 17.1875 
L 47.609375 17.1875 
L 47.609375 0 
L 37.796875 0 
L 37.796875 17.1875 
L 4.890625 17.1875 
L 4.890625 26.703125 
z
" id="DejaVuSans-52"/>
      </defs>
      <g transform="translate(164.060936 322.182437)scale(0.1 -0.1)">
       <use xlink:href="#DejaVuSans-8722"/>
       <use x="83.789062" xlink:href="#DejaVuSans-52"/>
       <use x="147.412109" xlink:href="#DejaVuSans-48"/>
       <use x="211.035156" xlink:href="#DejaVuSans-48"/>
      </g>
     </g>
    </g>
    <g id="xtick_4">
     <g id="line2d_5">
      <g>
       <use style="stroke:#000000;stroke-width:0.8;" x="237.884585" xlink:href="#m112682df5c" y="307.584"/>
      </g>
     </g>
     <g id="text_4">
      <!-- 200 -->
      <defs>
       <path d="M 19.1875 8.296875 
L 53.609375 8.296875 
L 53.609375 0 
L 7.328125 0 
L 7.328125 8.296875 
Q 12.9375 14.109375 22.625 23.890625 
Q 32.328125 33.6875 34.8125 36.53125 
Q 39.546875 41.84375 41.421875 45.53125 
Q 43.3125 49.21875 43.3125 52.78125 
Q 43.3125 58.59375 39.234375 62.25 
Q 35.15625 65.921875 28.609375 65.921875 
Q 23.96875 65.921875 18.8125 64.3125 
Q 13.671875 62.703125 7.8125 59.421875 
L 7.8125 69.390625 
Q 13.765625 71.78125 18.9375 73 
Q 24.125 74.21875 28.421875 74.21875 
Q 39.75 74.21875 46.484375 68.546875 
Q 53.21875 62.890625 53.21875 53.421875 
Q 53.21875 48.921875 51.53125 44.890625 
Q 49.859375 40.875 45.40625 35.40625 
Q 44.1875 33.984375 37.640625 27.21875 
Q 31.109375 20.453125 19.1875 8.296875 
z
" id="DejaVuSans-50"/>
      </defs>
      <g transform="translate(224.150991 322.182437)scale(0.1 -0.1)">
       <use xlink:href="#DejaVuSans-8722"/>
       <use x="83.789062" xlink:href="#DejaVuSans-50"/>
       <use x="147.412109" xlink:href="#DejaVuSans-48"/>
       <use x="211.035156" xlink:href="#DejaVuSans-48"/>
      </g>
     </g>
    </g>
    <g id="xtick_5">
     <g id="line2d_6">
      <g>
       <use style="stroke:#000000;stroke-width:0.8;" x="297.974639" xlink:href="#m112682df5c" y="307.584"/>
      </g>
     </g>
     <g id="text_5">
      <!-- 0 -->
      <g transform="translate(294.793389 322.182437)scale(0.1 -0.1)">
       <use xlink:href="#DejaVuSans-48"/>
      </g>
     </g>
    </g>
    <g id="xtick_6">
     <g id="line2d_7">
      <g>
       <use style="stroke:#000000;stroke-width:0.8;" x="358.064693" xlink:href="#m112682df5c" y="307.584"/>
      </g>
     </g>
     <g id="text_6">
      <!-- 200 -->
      <g transform="translate(348.520943 322.182437)scale(0.1 -0.1)">
       <use xlink:href="#DejaVuSans-50"/>
       <use x="63.623047" xlink:href="#DejaVuSans-48"/>
       <use x="127.246094" xlink:href="#DejaVuSans-48"/>
      </g>
     </g>
    </g>
   </g>
   <g id="matplotlib.axis_2">
    <g id="ytick_1">
     <g id="line2d_8">
      <defs>
       <path d="M 0 0 
L -3.5 0 
" id="m463bb5bf11" style="stroke:#000000;stroke-width:0.8;"/>
      </defs>
      <g>
       <use style="stroke:#000000;stroke-width:0.8;" x="57.6" xlink:href="#m463bb5bf11" y="299.103276"/>
      </g>
     </g>
     <g id="text_7">
      <!-- 500 -->
      <defs>
       <path d="M 10.796875 72.90625 
L 49.515625 72.90625 
L 49.515625 64.59375 
L 19.828125 64.59375 
L 19.828125 46.734375 
Q 21.96875 47.46875 24.109375 47.828125 
Q 26.265625 48.1875 28.421875 48.1875 
Q 40.625 48.1875 47.75 41.5 
Q 54.890625 34.8125 54.890625 23.390625 
Q 54.890625 11.625 47.5625 5.09375 
Q 40.234375 -1.421875 26.90625 -1.421875 
Q 22.3125 -1.421875 17.546875 -0.640625 
Q 12.796875 0.140625 7.71875 1.703125 
L 7.71875 11.625 
Q 12.109375 9.234375 16.796875 8.0625 
Q 21.484375 6.890625 26.703125 6.890625 
Q 35.15625 6.890625 40.078125 11.328125 
Q 45.015625 15.765625 45.015625 23.390625 
Q 45.015625 31 40.078125 35.4375 
Q 35.15625 39.890625 26.703125 39.890625 
Q 22.75 39.890625 18.8125 39.015625 
Q 14.890625 38.140625 10.796875 36.28125 
z
" id="DejaVuSans-53"/>
      </defs>
      <g transform="translate(23.132812 302.902495)scale(0.1 -0.1)">
       <use xlink:href="#DejaVuSans-8722"/>
       <use x="83.789062" xlink:href="#DejaVuSans-53"/>
       <use x="147.412109" xlink:href="#DejaVuSans-48"/>
       <use x="211.035156" xlink:href="#DejaVuSans-48"/>
      </g>
     </g>
    </g>
    <g id="ytick_2">
     <g id="line2d_9">
      <g>
       <use style="stroke:#000000;stroke-width:0.8;" x="57.6" xlink:href="#m463bb5bf11" y="269.347917"/>
      </g>
     </g>
     <g id="text_8">
      <!-- 400 -->
      <g transform="translate(23.132812 273.147135)scale(0.1 -0.1)">
       <use xlink:href="#DejaVuSans-8722"/>
       <use x="83.789062" xlink:href="#DejaVuSans-52"/>
       <use x="147.412109" xlink:href="#DejaVuSans-48"/>
       <use x="211.035156" xlink:href="#DejaVuSans-48"/>
      </g>
     </g>
    </g>
    <g id="ytick_3">
     <g id="line2d_10">
      <g>
       <use style="stroke:#000000;stroke-width:0.8;" x="57.6" xlink:href="#m463bb5bf11" y="239.592557"/>
      </g>
     </g>
     <g id="text_9">
      <!-- 300 -->
      <defs>
       <path d="M 40.578125 39.3125 
Q 47.65625 37.796875 51.625 33 
Q 55.609375 28.21875 55.609375 21.1875 
Q 55.609375 10.40625 48.1875 4.484375 
Q 40.765625 -1.421875 27.09375 -1.421875 
Q 22.515625 -1.421875 17.65625 -0.515625 
Q 12.796875 0.390625 7.625 2.203125 
L 7.625 11.71875 
Q 11.71875 9.328125 16.59375 8.109375 
Q 21.484375 6.890625 26.8125 6.890625 
Q 36.078125 6.890625 40.9375 10.546875 
Q 45.796875 14.203125 45.796875 21.1875 
Q 45.796875 27.640625 41.28125 31.265625 
Q 36.765625 34.90625 28.71875 34.90625 
L 20.21875 34.90625 
L 20.21875 43.015625 
L 29.109375 43.015625 
Q 36.375 43.015625 40.234375 45.921875 
Q 44.09375 48.828125 44.09375 54.296875 
Q 44.09375 59.90625 40.109375 62.90625 
Q 36.140625 65.921875 28.71875 65.921875 
Q 24.65625 65.921875 20.015625 65.03125 
Q 15.375 64.15625 9.8125 62.3125 
L 9.8125 71.09375 
Q 15.4375 72.65625 20.34375 73.4375 
Q 25.25 74.21875 29.59375 74.21875 
Q 40.828125 74.21875 47.359375 69.109375 
Q 53.90625 64.015625 53.90625 55.328125 
Q 53.90625 49.265625 50.4375 45.09375 
Q 46.96875 40.921875 40.578125 39.3125 
z
" id="DejaVuSans-51"/>
      </defs>
      <g transform="translate(23.132812 243.391776)scale(0.1 -0.1)">
       <use xlink:href="#DejaVuSans-8722"/>
       <use x="83.789062" xlink:href="#DejaVuSans-51"/>
       <use x="147.412109" xlink:href="#DejaVuSans-48"/>
       <use x="211.035156" xlink:href="#DejaVuSans-48"/>
      </g>
     </g>
    </g>
    <g id="ytick_4">
     <g id="line2d_11">
      <g>
       <use style="stroke:#000000;stroke-width:0.8;" x="57.6" xlink:href="#m463bb5bf11" y="209.837197"/>
      </g>
     </g>
     <g id="text_10">
      <!-- 200 -->
      <g transform="translate(23.132812 213.636416)scale(0.1 -0.1)">
       <use xlink:href="#DejaVuSans-8722"/>
       <use x="83.789062" xlink:href="#DejaVuSans-50"/>
       <use x="147.412109" xlink:href="#DejaVuSans-48"/>
       <use x="211.035156" xlink:href="#DejaVuSans-48"/>
      </g>
     </g>
    </g>
    <g id="ytick_5">
     <g id="line2d_12">
      <g>
       <use style="stroke:#000000;stroke-width:0.8;" x="57.6" xlink:href="#m463bb5bf11" y="180.081838"/>
      </g>
     </g>
     <g id="text_11">
      <!-- 100 -->
      <defs>
       <path d="M 12.40625 8.296875 
L 28.515625 8.296875 
L 28.515625 63.921875 
L 10.984375 60.40625 
L 10.984375 69.390625 
L 28.421875 72.90625 
L 38.28125 72.90625 
L 38.28125 8.296875 
L 54.390625 8.296875 
L 54.390625 0 
L 12.40625 0 
z
" id="DejaVuSans-49"/>
      </defs>
      <g transform="translate(23.132812 183.881057)scale(0.1 -0.1)">
       <use xlink:href="#DejaVuSans-8722"/>
       <use x="83.789062" xlink:href="#DejaVuSans-49"/>
       <use x="147.412109" xlink:href="#DejaVuSans-48"/>
       <use x="211.035156" xlink:href="#DejaVuSans-48"/>
      </g>
     </g>
    </g>
    <g id="ytick_6">
     <g id="line2d_13">
      <g>
       <use style="stroke:#000000;stroke-width:0.8;" x="57.6" xlink:href="#m463bb5bf11" y="150.326478"/>
      </g>
     </g>
     <g id="text_12">
      <!-- 0 -->
      <g transform="translate(44.2375 154.125697)scale(0.1 -0.1)">
       <use xlink:href="#DejaVuSans-48"/>
      </g>
     </g>
    </g>
    <g id="ytick_7">
     <g id="line2d_14">
      <g>
       <use style="stroke:#000000;stroke-width:0.8;" x="57.6" xlink:href="#m463bb5bf11" y="120.571119"/>
      </g>
     </g>
     <g id="text_13">
      <!-- 100 -->
      <g transform="translate(31.5125 124.370337)scale(0.1 -0.1)">
       <use xlink:href="#DejaVuSans-49"/>
       <use x="63.623047" xlink:href="#DejaVuSans-48"/>
       <use x="127.246094" xlink:href="#DejaVuSans-48"/>
      </g>
     </g>
    </g>
    <g id="ytick_8">
     <g id="line2d_15">
      <g>
       <use style="stroke:#000000;stroke-width:0.8;" x="57.6" xlink:href="#m463bb5bf11" y="90.815759"/>
      </g>
     </g>
     <g id="text_14">
      <!-- 200 -->
      <g transform="translate(31.5125 94.614978)scale(0.1 -0.1)">
       <use xlink:href="#DejaVuSans-50"/>
       <use x="63.623047" xlink:href="#DejaVuSans-48"/>
       <use x="127.246094" xlink:href="#DejaVuSans-48"/>
      </g>
     </g>
    </g>
    <g id="ytick_9">
     <g id="line2d_16">
      <g>
       <use style="stroke:#000000;stroke-width:0.8;" x="57.6" xlink:href="#m463bb5bf11" y="61.0604"/>
      </g>
     </g>
     <g id="text_15">
      <!-- 300 -->
      <g transform="translate(31.5125 64.859618)scale(0.1 -0.1)">
       <use xlink:href="#DejaVuSans-51"/>
       <use x="63.623047" xlink:href="#DejaVuSans-48"/>
       <use x="127.246094" xlink:href="#DejaVuSans-48"/>
      </g>
     </g>
    </g>
   </g>
   <g id="line2d_17">
    <path clip-path="url(#p2432f7b9db)" d="M 76.724254 92.94143 
L 266.591579 155.447431 
L 352.352329 150.2404 
L 200.332164 243.995565 
L 266.026303 158.16794 
L 242.022443 71.360015 
L 369.821545 146.046632 
L 372.240751 167.221416 
L 187.94059 272.853011 
L 179.776012 280.196936 
L 326.382806 215.576435 
L 366.4196 190.706586 
" style="fill:none;stroke:#ff0000;stroke-linecap:square;stroke-width:0.5;"/>
   </g>
   <g id="patch_3">
    <path d="M 57.6 307.584 
L 57.6 41.472 
" style="fill:none;stroke:#000000;stroke-linecap:square;stroke-linejoin:miter;stroke-width:0.8;"/>
   </g>
   <g id="patch_4">
    <path d="M 414.72 307.584 
L 414.72 41.472 
" style="fill:none;stroke:#000000;stroke-linecap:square;stroke-linejoin:miter;stroke-width:0.8;"/>
   </g>
   <g id="patch_5">
    <path d="M 57.6 307.584 
L 414.72 307.584 
" style="fill:none;stroke:#000000;stroke-linecap:square;stroke-linejoin:miter;stroke-width:0.8;"/>
   </g>
   <g id="patch_6">
    <path d="M 57.6 41.472 
L 414.72 41.472 
" style="fill:none;stroke:#000000;stroke-linecap:square;stroke-linejoin:miter;stroke-width:0.8;"/>
   </g>
   <g id="PathCollection_1">
    <defs>
     <path d="M 0 2.738613 
C 0.726289 2.738613 1.422928 2.450055 1.936492 1.936492 
C 2.450055 1.422928 2.738613 0.726289 2.738613 0 
C 2.738613 -0.726289 2.450055 -1.422928 1.936492 -1.936492 
C 1.422928 -2.450055 0.726289 -2.738613 0 -2.738613 
C -0.726289 -2.738613 -1.422928 -2.450055 -1.936492 -1.936492 
C -2.450055 -1.422928 -2.738613 -0.726289 -2.738613 0 
C -2.738613 0.726289 -2.450055 1.422928 -1.936492 1.936492 
C -1.422928 2.450055 -0.726289 2.738613 0 2.738613 
z
" id="mbbbffb0da5" style="stroke:#ff0000;"/>
    </defs>
    <g clip-path="url(#p2432f7b9db)">
     <use style="fill:#ff0000;stroke:#ff0000;" x="76.724254" xlink:href="#mbbbffb0da5" y="92.94143"/>
     <use style="fill:#ff0000;stroke:#ff0000;" x="266.591579" xlink:href="#mbbbffb0da5" y="155.447431"/>
     <use style="fill:#ff0000;stroke:#ff0000;" x="352.352329" xlink:href="#mbbbffb0da5" y="150.2404"/>
     <use style="fill:#ff0000;stroke:#ff0000;" x="200.332164" xlink:href="#mbbbffb0da5" y="243.995565"/>
     <use style="fill:#ff0000;stroke:#ff0000;" x="266.026303" xlink:href="#mbbbffb0da5" y="158.16794"/>
     <use style="fill:#ff0000;stroke:#ff0000;" x="242.022443" xlink:href="#mbbbffb0da5" y="71.360015"/>
     <use style="fill:#ff0000;stroke:#ff0000;" x="369.821545" xlink:href="#mbbbffb0da5" y="146.046632"/>
     <use style="fill:#ff0000;stroke:#ff0000;" x="372.240751" xlink:href="#mbbbffb0da5" y="167.221416"/>
     <use style="fill:#ff0000;stroke:#ff0000;" x="187.94059" xlink:href="#mbbbffb0da5" y="272.853011"/>
     <use style="fill:#ff0000;stroke:#ff0000;" x="179.776012" xlink:href="#mbbbffb0da5" y="280.196936"/>
     <use style="fill:#ff0000;stroke:#ff0000;" x="326.382806" xlink:href="#mbbbffb0da5" y="215.576435"/>
     <use style="fill:#ff0000;stroke:#ff0000;" x="366.4196" xlink:href="#mbbbffb0da5" y="190.706586"/>
    </g>
   </g>
   <g id="text_16">
    <!-- (87) Subject: s3, Known = False, Degree = 1, Duration = 0.1 -->
    <defs>
     <path d="M 31 75.875 
Q 24.46875 64.65625 21.28125 53.65625 
Q 18.109375 42.671875 18.109375 31.390625 
Q 18.109375 20.125 21.3125 9.0625 
Q 24.515625 -2 31 -13.1875 
L 23.1875 -13.1875 
Q 15.875 -1.703125 12.234375 9.375 
Q 8.59375 20.453125 8.59375 31.390625 
Q 8.59375 42.28125 12.203125 53.3125 
Q 15.828125 64.359375 23.1875 75.875 
z
" id="DejaVuSans-40"/>
     <path d="M 8.203125 72.90625 
L 55.078125 72.90625 
L 55.078125 68.703125 
L 28.609375 0 
L 18.3125 0 
L 43.21875 64.59375 
L 8.203125 64.59375 
z
" id="DejaVuSans-55"/>
     <path d="M 8.015625 75.875 
L 15.828125 75.875 
Q 23.140625 64.359375 26.78125 53.3125 
Q 30.421875 42.28125 30.421875 31.390625 
Q 30.421875 20.453125 26.78125 9.375 
Q 23.140625 -1.703125 15.828125 -13.1875 
L 8.015625 -13.1875 
Q 14.5 -2 17.703125 9.0625 
Q 20.90625 20.125 20.90625 31.390625 
Q 20.90625 42.671875 17.703125 53.65625 
Q 14.5 64.65625 8.015625 75.875 
z
" id="DejaVuSans-41"/>
     <path id="DejaVuSans-32"/>
     <path d="M 53.515625 70.515625 
L 53.515625 60.890625 
Q 47.90625 63.578125 42.921875 64.890625 
Q 37.9375 66.21875 33.296875 66.21875 
Q 25.25 66.21875 20.875 63.09375 
Q 16.5 59.96875 16.5 54.203125 
Q 16.5 49.359375 19.40625 46.890625 
Q 22.3125 44.4375 30.421875 42.921875 
L 36.375 41.703125 
Q 47.40625 39.59375 52.65625 34.296875 
Q 57.90625 29 57.90625 20.125 
Q 57.90625 9.515625 50.796875 4.046875 
Q 43.703125 -1.421875 29.984375 -1.421875 
Q 24.8125 -1.421875 18.96875 -0.25 
Q 13.140625 0.921875 6.890625 3.21875 
L 6.890625 13.375 
Q 12.890625 10.015625 18.65625 8.296875 
Q 24.421875 6.59375 29.984375 6.59375 
Q 38.421875 6.59375 43.015625 9.90625 
Q 47.609375 13.234375 47.609375 19.390625 
Q 47.609375 24.75 44.3125 27.78125 
Q 41.015625 30.8125 33.5 32.328125 
L 27.484375 33.5 
Q 16.453125 35.6875 11.515625 40.375 
Q 6.59375 45.0625 6.59375 53.421875 
Q 6.59375 63.09375 13.40625 68.65625 
Q 20.21875 74.21875 32.171875 74.21875 
Q 37.3125 74.21875 42.625 73.28125 
Q 47.953125 72.359375 53.515625 70.515625 
z
" id="DejaVuSans-83"/>
     <path d="M 8.5 21.578125 
L 8.5 54.6875 
L 17.484375 54.6875 
L 17.484375 21.921875 
Q 17.484375 14.15625 20.5 10.265625 
Q 23.53125 6.390625 29.59375 6.390625 
Q 36.859375 6.390625 41.078125 11.03125 
Q 45.3125 15.671875 45.3125 23.6875 
L 45.3125 54.6875 
L 54.296875 54.6875 
L 54.296875 0 
L 45.3125 0 
L 45.3125 8.40625 
Q 42.046875 3.421875 37.71875 1 
Q 33.40625 -1.421875 27.6875 -1.421875 
Q 18.265625 -1.421875 13.375 4.4375 
Q 8.5 10.296875 8.5 21.578125 
z
M 31.109375 56 
z
" id="DejaVuSans-117"/>
     <path d="M 48.6875 27.296875 
Q 48.6875 37.203125 44.609375 42.84375 
Q 40.53125 48.484375 33.40625 48.484375 
Q 26.265625 48.484375 22.1875 42.84375 
Q 18.109375 37.203125 18.109375 27.296875 
Q 18.109375 17.390625 22.1875 11.75 
Q 26.265625 6.109375 33.40625 6.109375 
Q 40.53125 6.109375 44.609375 11.75 
Q 48.6875 17.390625 48.6875 27.296875 
z
M 18.109375 46.390625 
Q 20.953125 51.265625 25.265625 53.625 
Q 29.59375 56 35.59375 56 
Q 45.5625 56 51.78125 48.09375 
Q 58.015625 40.1875 58.015625 27.296875 
Q 58.015625 14.40625 51.78125 6.484375 
Q 45.5625 -1.421875 35.59375 -1.421875 
Q 29.59375 -1.421875 25.265625 0.953125 
Q 20.953125 3.328125 18.109375 8.203125 
L 18.109375 0 
L 9.078125 0 
L 9.078125 75.984375 
L 18.109375 75.984375 
z
" id="DejaVuSans-98"/>
     <path d="M 9.421875 54.6875 
L 18.40625 54.6875 
L 18.40625 -0.984375 
Q 18.40625 -11.421875 14.421875 -16.109375 
Q 10.453125 -20.796875 1.609375 -20.796875 
L -1.8125 -20.796875 
L -1.8125 -13.1875 
L 0.59375 -13.1875 
Q 5.71875 -13.1875 7.5625 -10.8125 
Q 9.421875 -8.453125 9.421875 -0.984375 
z
M 9.421875 75.984375 
L 18.40625 75.984375 
L 18.40625 64.59375 
L 9.421875 64.59375 
z
" id="DejaVuSans-106"/>
     <path d="M 56.203125 29.59375 
L 56.203125 25.203125 
L 14.890625 25.203125 
Q 15.484375 15.921875 20.484375 11.0625 
Q 25.484375 6.203125 34.421875 6.203125 
Q 39.59375 6.203125 44.453125 7.46875 
Q 49.3125 8.734375 54.109375 11.28125 
L 54.109375 2.78125 
Q 49.265625 0.734375 44.1875 -0.34375 
Q 39.109375 -1.421875 33.890625 -1.421875 
Q 20.796875 -1.421875 13.15625 6.1875 
Q 5.515625 13.8125 5.515625 26.8125 
Q 5.515625 40.234375 12.765625 48.109375 
Q 20.015625 56 32.328125 56 
Q 43.359375 56 49.78125 48.890625 
Q 56.203125 41.796875 56.203125 29.59375 
z
M 47.21875 32.234375 
Q 47.125 39.59375 43.09375 43.984375 
Q 39.0625 48.390625 32.421875 48.390625 
Q 24.90625 48.390625 20.390625 44.140625 
Q 15.875 39.890625 15.1875 32.171875 
z
" id="DejaVuSans-101"/>
     <path d="M 48.78125 52.59375 
L 48.78125 44.1875 
Q 44.96875 46.296875 41.140625 47.34375 
Q 37.3125 48.390625 33.40625 48.390625 
Q 24.65625 48.390625 19.8125 42.84375 
Q 14.984375 37.3125 14.984375 27.296875 
Q 14.984375 17.28125 19.8125 11.734375 
Q 24.65625 6.203125 33.40625 6.203125 
Q 37.3125 6.203125 41.140625 7.25 
Q 44.96875 8.296875 48.78125 10.40625 
L 48.78125 2.09375 
Q 45.015625 0.34375 40.984375 -0.53125 
Q 36.96875 -1.421875 32.421875 -1.421875 
Q 20.0625 -1.421875 12.78125 6.34375 
Q 5.515625 14.109375 5.515625 27.296875 
Q 5.515625 40.671875 12.859375 48.328125 
Q 20.21875 56 33.015625 56 
Q 37.15625 56 41.109375 55.140625 
Q 45.0625 54.296875 48.78125 52.59375 
z
" id="DejaVuSans-99"/>
     <path d="M 18.3125 70.21875 
L 18.3125 54.6875 
L 36.8125 54.6875 
L 36.8125 47.703125 
L 18.3125 47.703125 
L 18.3125 18.015625 
Q 18.3125 11.328125 20.140625 9.421875 
Q 21.96875 7.515625 27.59375 7.515625 
L 36.8125 7.515625 
L 36.8125 0 
L 27.59375 0 
Q 17.1875 0 13.234375 3.875 
Q 9.28125 7.765625 9.28125 18.015625 
L 9.28125 47.703125 
L 2.6875 47.703125 
L 2.6875 54.6875 
L 9.28125 54.6875 
L 9.28125 70.21875 
z
" id="DejaVuSans-116"/>
     <path d="M 11.71875 12.40625 
L 22.015625 12.40625 
L 22.015625 0 
L 11.71875 0 
z
M 11.71875 51.703125 
L 22.015625 51.703125 
L 22.015625 39.3125 
L 11.71875 39.3125 
z
" id="DejaVuSans-58"/>
     <path d="M 44.28125 53.078125 
L 44.28125 44.578125 
Q 40.484375 46.53125 36.375 47.5 
Q 32.28125 48.484375 27.875 48.484375 
Q 21.1875 48.484375 17.84375 46.4375 
Q 14.5 44.390625 14.5 40.28125 
Q 14.5 37.15625 16.890625 35.375 
Q 19.28125 33.59375 26.515625 31.984375 
L 29.59375 31.296875 
Q 39.15625 29.25 43.1875 25.515625 
Q 47.21875 21.78125 47.21875 15.09375 
Q 47.21875 7.46875 41.1875 3.015625 
Q 35.15625 -1.421875 24.609375 -1.421875 
Q 20.21875 -1.421875 15.453125 -0.5625 
Q 10.6875 0.296875 5.421875 2 
L 5.421875 11.28125 
Q 10.40625 8.6875 15.234375 7.390625 
Q 20.0625 6.109375 24.8125 6.109375 
Q 31.15625 6.109375 34.5625 8.28125 
Q 37.984375 10.453125 37.984375 14.40625 
Q 37.984375 18.0625 35.515625 20.015625 
Q 33.0625 21.96875 24.703125 23.78125 
L 21.578125 24.515625 
Q 13.234375 26.265625 9.515625 29.90625 
Q 5.8125 33.546875 5.8125 39.890625 
Q 5.8125 47.609375 11.28125 51.796875 
Q 16.75 56 26.8125 56 
Q 31.78125 56 36.171875 55.265625 
Q 40.578125 54.546875 44.28125 53.078125 
z
" id="DejaVuSans-115"/>
     <path d="M 11.71875 12.40625 
L 22.015625 12.40625 
L 22.015625 4 
L 14.015625 -11.625 
L 7.71875 -11.625 
L 11.71875 4 
z
" id="DejaVuSans-44"/>
     <path d="M 9.8125 72.90625 
L 19.671875 72.90625 
L 19.671875 42.09375 
L 52.390625 72.90625 
L 65.09375 72.90625 
L 28.90625 38.921875 
L 67.671875 0 
L 54.6875 0 
L 19.671875 35.109375 
L 19.671875 0 
L 9.8125 0 
z
" id="DejaVuSans-75"/>
     <path d="M 54.890625 33.015625 
L 54.890625 0 
L 45.90625 0 
L 45.90625 32.71875 
Q 45.90625 40.484375 42.875 44.328125 
Q 39.84375 48.1875 33.796875 48.1875 
Q 26.515625 48.1875 22.3125 43.546875 
Q 18.109375 38.921875 18.109375 30.90625 
L 18.109375 0 
L 9.078125 0 
L 9.078125 54.6875 
L 18.109375 54.6875 
L 18.109375 46.1875 
Q 21.34375 51.125 25.703125 53.5625 
Q 30.078125 56 35.796875 56 
Q 45.21875 56 50.046875 50.171875 
Q 54.890625 44.34375 54.890625 33.015625 
z
" id="DejaVuSans-110"/>
     <path d="M 30.609375 48.390625 
Q 23.390625 48.390625 19.1875 42.75 
Q 14.984375 37.109375 14.984375 27.296875 
Q 14.984375 17.484375 19.15625 11.84375 
Q 23.34375 6.203125 30.609375 6.203125 
Q 37.796875 6.203125 41.984375 11.859375 
Q 46.1875 17.53125 46.1875 27.296875 
Q 46.1875 37.015625 41.984375 42.703125 
Q 37.796875 48.390625 30.609375 48.390625 
z
M 30.609375 56 
Q 42.328125 56 49.015625 48.375 
Q 55.71875 40.765625 55.71875 27.296875 
Q 55.71875 13.875 49.015625 6.21875 
Q 42.328125 -1.421875 30.609375 -1.421875 
Q 18.84375 -1.421875 12.171875 6.21875 
Q 5.515625 13.875 5.515625 27.296875 
Q 5.515625 40.765625 12.171875 48.375 
Q 18.84375 56 30.609375 56 
z
" id="DejaVuSans-111"/>
     <path d="M 4.203125 54.6875 
L 13.1875 54.6875 
L 24.421875 12.015625 
L 35.59375 54.6875 
L 46.1875 54.6875 
L 57.421875 12.015625 
L 68.609375 54.6875 
L 77.59375 54.6875 
L 63.28125 0 
L 52.6875 0 
L 40.921875 44.828125 
L 29.109375 0 
L 18.5 0 
z
" id="DejaVuSans-119"/>
     <path d="M 10.59375 45.40625 
L 73.1875 45.40625 
L 73.1875 37.203125 
L 10.59375 37.203125 
z
M 10.59375 25.484375 
L 73.1875 25.484375 
L 73.1875 17.1875 
L 10.59375 17.1875 
z
" id="DejaVuSans-61"/>
     <path d="M 9.8125 72.90625 
L 51.703125 72.90625 
L 51.703125 64.59375 
L 19.671875 64.59375 
L 19.671875 43.109375 
L 48.578125 43.109375 
L 48.578125 34.8125 
L 19.671875 34.8125 
L 19.671875 0 
L 9.8125 0 
z
" id="DejaVuSans-70"/>
     <path d="M 34.28125 27.484375 
Q 23.390625 27.484375 19.1875 25 
Q 14.984375 22.515625 14.984375 16.5 
Q 14.984375 11.71875 18.140625 8.90625 
Q 21.296875 6.109375 26.703125 6.109375 
Q 34.1875 6.109375 38.703125 11.40625 
Q 43.21875 16.703125 43.21875 25.484375 
L 43.21875 27.484375 
z
M 52.203125 31.203125 
L 52.203125 0 
L 43.21875 0 
L 43.21875 8.296875 
Q 40.140625 3.328125 35.546875 0.953125 
Q 30.953125 -1.421875 24.3125 -1.421875 
Q 15.921875 -1.421875 10.953125 3.296875 
Q 6 8.015625 6 15.921875 
Q 6 25.140625 12.171875 29.828125 
Q 18.359375 34.515625 30.609375 34.515625 
L 43.21875 34.515625 
L 43.21875 35.40625 
Q 43.21875 41.609375 39.140625 45 
Q 35.0625 48.390625 27.6875 48.390625 
Q 23 48.390625 18.546875 47.265625 
Q 14.109375 46.140625 10.015625 43.890625 
L 10.015625 52.203125 
Q 14.9375 54.109375 19.578125 55.046875 
Q 24.21875 56 28.609375 56 
Q 40.484375 56 46.34375 49.84375 
Q 52.203125 43.703125 52.203125 31.203125 
z
" id="DejaVuSans-97"/>
     <path d="M 9.421875 75.984375 
L 18.40625 75.984375 
L 18.40625 0 
L 9.421875 0 
z
" id="DejaVuSans-108"/>
     <path d="M 19.671875 64.796875 
L 19.671875 8.109375 
L 31.59375 8.109375 
Q 46.6875 8.109375 53.6875 14.9375 
Q 60.6875 21.78125 60.6875 36.53125 
Q 60.6875 51.171875 53.6875 57.984375 
Q 46.6875 64.796875 31.59375 64.796875 
z
M 9.8125 72.90625 
L 30.078125 72.90625 
Q 51.265625 72.90625 61.171875 64.09375 
Q 71.09375 55.28125 71.09375 36.53125 
Q 71.09375 17.671875 61.125 8.828125 
Q 51.171875 0 30.078125 0 
L 9.8125 0 
z
" id="DejaVuSans-68"/>
     <path d="M 45.40625 27.984375 
Q 45.40625 37.75 41.375 43.109375 
Q 37.359375 48.484375 30.078125 48.484375 
Q 22.859375 48.484375 18.828125 43.109375 
Q 14.796875 37.75 14.796875 27.984375 
Q 14.796875 18.265625 18.828125 12.890625 
Q 22.859375 7.515625 30.078125 7.515625 
Q 37.359375 7.515625 41.375 12.890625 
Q 45.40625 18.265625 45.40625 27.984375 
z
M 54.390625 6.78125 
Q 54.390625 -7.171875 48.1875 -13.984375 
Q 42 -20.796875 29.203125 -20.796875 
Q 24.46875 -20.796875 20.265625 -20.09375 
Q 16.0625 -19.390625 12.109375 -17.921875 
L 12.109375 -9.1875 
Q 16.0625 -11.328125 19.921875 -12.34375 
Q 23.78125 -13.375 27.78125 -13.375 
Q 36.625 -13.375 41.015625 -8.765625 
Q 45.40625 -4.15625 45.40625 5.171875 
L 45.40625 9.625 
Q 42.625 4.78125 38.28125 2.390625 
Q 33.9375 0 27.875 0 
Q 17.828125 0 11.671875 7.65625 
Q 5.515625 15.328125 5.515625 27.984375 
Q 5.515625 40.671875 11.671875 48.328125 
Q 17.828125 56 27.875 56 
Q 33.9375 56 38.28125 53.609375 
Q 42.625 51.21875 45.40625 46.390625 
L 45.40625 54.6875 
L 54.390625 54.6875 
z
" id="DejaVuSans-103"/>
     <path d="M 41.109375 46.296875 
Q 39.59375 47.171875 37.8125 47.578125 
Q 36.03125 48 33.890625 48 
Q 26.265625 48 22.1875 43.046875 
Q 18.109375 38.09375 18.109375 28.8125 
L 18.109375 0 
L 9.078125 0 
L 9.078125 54.6875 
L 18.109375 54.6875 
L 18.109375 46.1875 
Q 20.953125 51.171875 25.484375 53.578125 
Q 30.03125 56 36.53125 56 
Q 37.453125 56 38.578125 55.875 
Q 39.703125 55.765625 41.0625 55.515625 
z
" id="DejaVuSans-114"/>
     <path d="M 9.421875 54.6875 
L 18.40625 54.6875 
L 18.40625 0 
L 9.421875 0 
z
M 9.421875 75.984375 
L 18.40625 75.984375 
L 18.40625 64.59375 
L 9.421875 64.59375 
z
" id="DejaVuSans-105"/>
     <path d="M 10.6875 12.40625 
L 21 12.40625 
L 21 0 
L 10.6875 0 
z
" id="DejaVuSans-46"/>
    </defs>
    <g transform="translate(53.559375 35.472)scale(0.12 -0.12)">
     <use xlink:href="#DejaVuSans-40"/>
     <use x="39.013672" xlink:href="#DejaVuSans-56"/>
     <use x="102.636719" xlink:href="#DejaVuSans-55"/>
     <use x="166.259766" xlink:href="#DejaVuSans-41"/>
     <use x="205.273438" xlink:href="#DejaVuSans-32"/>
     <use x="237.060547" xlink:href="#DejaVuSans-83"/>
     <use x="300.537109" xlink:href="#DejaVuSans-117"/>
     <use x="363.916016" xlink:href="#DejaVuSans-98"/>
     <use x="427.392578" xlink:href="#DejaVuSans-106"/>
     <use x="455.175781" xlink:href="#DejaVuSans-101"/>
     <use x="516.699219" xlink:href="#DejaVuSans-99"/>
     <use x="571.679688" xlink:href="#DejaVuSans-116"/>
     <use x="610.888672" xlink:href="#DejaVuSans-58"/>
     <use x="644.580078" xlink:href="#DejaVuSans-32"/>
     <use x="676.367188" xlink:href="#DejaVuSans-115"/>
     <use x="728.466797" xlink:href="#DejaVuSans-51"/>
     <use x="792.089844" xlink:href="#DejaVuSans-44"/>
     <use x="823.876953" xlink:href="#DejaVuSans-32"/>
     <use x="855.664062" xlink:href="#DejaVuSans-75"/>
     <use x="921.240234" xlink:href="#DejaVuSans-110"/>
     <use x="984.619141" xlink:href="#DejaVuSans-111"/>
     <use x="1045.800781" xlink:href="#DejaVuSans-119"/>
     <use x="1127.587891" xlink:href="#DejaVuSans-110"/>
     <use x="1190.966797" xlink:href="#DejaVuSans-32"/>
     <use x="1222.753906" xlink:href="#DejaVuSans-61"/>
     <use x="1306.542969" xlink:href="#DejaVuSans-32"/>
     <use x="1338.330078" xlink:href="#DejaVuSans-70"/>
     <use x="1395.708984" xlink:href="#DejaVuSans-97"/>
     <use x="1456.988281" xlink:href="#DejaVuSans-108"/>
     <use x="1484.771484" xlink:href="#DejaVuSans-115"/>
     <use x="1536.871094" xlink:href="#DejaVuSans-101"/>
     <use x="1598.394531" xlink:href="#DejaVuSans-44"/>
     <use x="1630.181641" xlink:href="#DejaVuSans-32"/>
     <use x="1661.96875" xlink:href="#DejaVuSans-68"/>
     <use x="1738.970703" xlink:href="#DejaVuSans-101"/>
     <use x="1800.494141" xlink:href="#DejaVuSans-103"/>
     <use x="1863.970703" xlink:href="#DejaVuSans-114"/>
     <use x="1905.052734" xlink:href="#DejaVuSans-101"/>
     <use x="1966.576172" xlink:href="#DejaVuSans-101"/>
     <use x="2028.099609" xlink:href="#DejaVuSans-32"/>
     <use x="2059.886719" xlink:href="#DejaVuSans-61"/>
     <use x="2143.675781" xlink:href="#DejaVuSans-32"/>
     <use x="2175.462891" xlink:href="#DejaVuSans-49"/>
     <use x="2239.085938" xlink:href="#DejaVuSans-44"/>
     <use x="2270.873047" xlink:href="#DejaVuSans-32"/>
     <use x="2302.660156" xlink:href="#DejaVuSans-68"/>
     <use x="2379.662109" xlink:href="#DejaVuSans-117"/>
     <use x="2443.041016" xlink:href="#DejaVuSans-114"/>
     <use x="2484.154297" xlink:href="#DejaVuSans-97"/>
     <use x="2545.433594" xlink:href="#DejaVuSans-116"/>
     <use x="2584.642578" xlink:href="#DejaVuSans-105"/>
     <use x="2612.425781" xlink:href="#DejaVuSans-111"/>
     <use x="2673.607422" xlink:href="#DejaVuSans-110"/>
     <use x="2736.986328" xlink:href="#DejaVuSans-32"/>
     <use x="2768.773438" xlink:href="#DejaVuSans-61"/>
     <use x="2852.5625" xlink:href="#DejaVuSans-32"/>
     <use x="2884.349609" xlink:href="#DejaVuSans-48"/>
     <use x="2947.972656" xlink:href="#DejaVuSans-46"/>
     <use x="2979.759766" xlink:href="#DejaVuSans-49"/>
    </g>
   </g>
  </g>
 </g>
 <defs>
  <clipPath id="p2432f7b9db">
   <rect height="266.112" width="357.12" x="57.6" y="41.472"/>
  </clipPath>
 </defs>
</svg>
