<?xml version="1.0" encoding="utf-8" standalone="no"?>
<!DOCTYPE svg PUBLIC "-//W3C//DTD SVG 1.1//EN"
  "http://www.w3.org/Graphics/SVG/1.1/DTD/svg11.dtd">
<!-- Created with matplotlib (https://matplotlib.org/) -->
<svg height="345.6pt" version="1.1" viewBox="0 0 460.8 345.6" width="460.8pt" xmlns="http://www.w3.org/2000/svg" xmlns:xlink="http://www.w3.org/1999/xlink">
 <defs>
  <style type="text/css">
*{stroke-linecap:butt;stroke-linejoin:round;}
  </style>
 </defs>
 <g id="figure_1">
  <g id="patch_1">
   <path d="M 0 345.6 
L 460.8 345.6 
L 460.8 0 
L 0 0 
z
" style="fill:#ffffff;"/>
  </g>
  <g id="axes_1">
   <g id="patch_2">
    <path d="M 57.6 307.584 
L 414.72 307.584 
L 414.72 41.472 
L 57.6 41.472 
z
" style="fill:#ffffff;"/>
   </g>
   <g id="line2d_1">
    <path clip-path="url(#p83b1ee7069)" d="M 77.460571 53.707747 
L 77.640464 53.568 
L 77.824105 53.707747 
L 77.824105 54.261745 
L 77.460571 54.678492 
L 77.27693 54.678492 
L 77.460571 54.401493 
L 78.003998 54.261745 
L 77.824105 54.261745 
L 77.27693 54.261745 
L 77.097037 53.984746 
L 77.27693 53.707747 
L 77.460571 53.844999 
L 77.460571 54.124494 
L 77.640464 54.54124 
L 77.460571 54.401493 
L 77.097037 54.124494 
L 77.097037 53.984746 
L 77.27693 53.844999 
L 77.460571 53.984746 
L 77.27693 54.124494 
L 77.640464 54.401493 
L 77.640464 54.54124 
L 77.824105 54.678492 
L 77.824105 54.54124 
L 77.824105 53.984746 
L 78.003998 53.707747 
L 77.640464 54.401493 
L 77.824105 54.124494 
L 77.640464 53.844999 
L 77.27693 53.844999 
L 77.27693 53.844999 
L 77.824105 54.261745 
L 77.824105 54.54124 
L 77.640464 54.678492 
L 76.917144 54.678492 
L 76.917144 54.678492 
L 77.27693 53.844999 
L 77.460571 53.984746 
L 77.824105 54.957986 
L 78.183891 54.261745 
L 78.003998 54.124494 
L 77.460571 54.401493 
L 77.27693 54.124494 
L 77.824105 54.54124 
L 78.003998 54.124494 
L 77.640464 53.844999 
L 77.460571 54.124494 
L 78.183891 54.401493 
L 78.003998 54.124494 
L 77.640464 53.984746 
L 78.183891 54.261745 
L 78.731066 54.818239 
L 78.367532 54.818239 
L 78.003998 53.984746 
L 78.003998 53.984746 
L 77.824105 54.124494 
L 77.824105 53.984746 
L 78.003998 53.707747 
L 77.824105 53.984746 
L 78.183891 53.984746 
L 78.003998 54.124494 
L 77.640464 53.984746 
L 77.27693 53.568 
L 77.27693 53.844999 
L 78.003998 54.54124 
L 78.367532 54.678492 
L 78.910959 54.678492 
L 79.090852 54.54124 
L 78.731066 54.678492 
L 77.824105 53.984746 
L 77.824105 54.124494 
L 77.640464 54.261745 
L 77.640464 54.401493 
L 78.003998 54.401493 
L 78.003998 54.54124 
L 77.824105 54.401493 
L 77.27693 54.261745 
L 76.733503 54.401493 
L 76.733503 54.401493 
L 77.460571 54.957986 
L 77.824105 54.957986 
L 77.824105 54.818239 
L 77.460571 54.261745 
L 77.097037 54.124494 
L 76.917144 54.261745 
L 77.097037 54.678492 
L 77.460571 55.095238 
L 77.460571 55.095238 
L 77.640464 54.957986 
L 78.547425 54.818239 
L 78.183891 54.818239 
L 76.733503 54.54124 
L 76.733503 54.401493 
L 77.27693 54.678492 
L 78.003998 55.234985 
L 78.003998 55.511984 
L 77.460571 55.511984 
L 76.917144 55.095238 
L 77.097037 54.957986 
L 76.917144 55.095238 
L 76.010183 54.678492 
L 76.190076 54.818239 
L 76.917144 55.788983 
L 76.917144 55.511984 
L 76.55361 55.511984 
L 76.190076 55.651732 
L 76.190076 55.511984 
L 76.369969 55.372237 
L 77.097037 55.372237 
L 77.640464 55.511984 
L 77.640464 55.928731 
L 77.27693 56.345477 
L 76.733503 56.345477 
L 76.190076 55.651732 
L 76.55361 55.234985 
L 76.733503 54.957986 
L 76.733503 55.651732 
L 76.55361 55.928731 
L 76.010183 55.928731 
L 75.826542 56.068478 
L 75.826542 55.928731 
L 75.646649 55.651732 
L 75.646649 55.372237 
L 76.010183 55.511984 
L 76.733503 56.20573 
L 76.733503 56.345477 
L 76.190076 56.20573 
L 75.646649 55.928731 
L 76.190076 55.372237 
L 76.010183 55.372237 
L 75.103222 55.788983 
L 74.919581 56.345477 
L 75.103222 56.622476 
L 75.466756 56.622476 
L 75.466756 56.20573 
L 75.283115 55.928731 
L 75.103222 55.928731 
L 75.103222 55.788983 
L 75.103222 55.788983 
L 75.283115 55.788983 
L 76.190076 55.928731 
L 76.190076 55.788983 
L 76.010183 55.372237 
L 76.190076 55.651732 
L 75.646649 55.651732 
L 76.010183 55.651732 
L 76.369969 55.788983 
L 76.369969 56.20573 
L 76.55361 56.622476 
L 76.55361 56.901971 
L 76.369969 56.762223 
L 75.826542 56.622476 
L 75.826542 56.345477 
L 75.466756 56.068478 
L 75.826542 56.20573 
L 76.369969 56.485224 
L 76.369969 56.622476 
L 76.010183 57.039222 
L 75.826542 57.039222 
L 75.646649 57.17897 
L 75.283115 57.318717 
L 74.919581 56.901971 
L 74.739688 56.622476 
L 74.919581 56.345477 
L 75.103222 56.485224 
L 74.919581 56.901971 
L 74.559795 57.318717 
L 74.196261 57.318717 
L 74.196261 57.17897 
L 74.739688 57.039222 
L 75.826542 57.039222 
L 75.646649 57.039222 
L 75.646649 56.901971 
L 76.010183 57.039222 
L 75.283115 56.762223 
L 74.919581 56.901971 
L 74.739688 57.17897 
L 74.559795 57.17897 
L 74.559795 57.17897 
L 73.832727 58.012462 
L 74.559795 58.012462 
L 74.559795 58.149714 
L 74.559795 57.595716 
L 74.919581 57.17897 
L 75.103222 57.318717 
L 76.55361 58.566461 
L 77.460571 58.845955 
L 80.904774 59.399953 
L 85.439579 59.956447 
L 90.881345 60.373193 
L 98.860352 60.927191 
L 103.215264 61.483685 
L 117.722892 63.704668 
L 122.257696 64.817656 
L 127.156035 66.205146 
L 132.41416 67.872132 
L 143.661226 71.206102 
L 148.739457 73.150087 
L 163.974153 78.288295 
L 173.950723 81.342771 
L 179.028955 83.149503 
L 189.001778 87.037472 
L 193.720224 88.981457 
L 203.329512 92.729678 
L 212.582763 97.174141 
L 231.445302 108.423796 
L 234.889505 110.36778 
L 237.973922 112.451512 
L 241.054591 114.812243 
L 246.496357 119.533704 
L 250.487734 124.255166 
L 254.479112 128.699628 
L 255.9295 130.78336 
L 257.743422 132.727344 
L 259.91713 134.808581 
L 261.731052 137.169311 
L 263.001547 139.809537 
L 264.635576 144.807997 
L 264.995362 146.891729 
L 264.995362 151.336191 
L 265.179003 153.557175 
L 265.542537 155.640906 
L 265.358896 158.001637 
L 264.272042 163.000098 
L 263.728615 165.083829 
L 263.001547 168.555052 
L 260.644198 172.582768 
L 258.830276 175.222993 
L 256.836461 177.443977 
L 254.295471 180.361201 
L 253.208617 181.054946 
L 252.118016 182.025691 
L 251.394695 182.859183 
L 251.031162 183.555424 
L 250.667628 184.526169 
L 250.487734 185.636661 
L 250.124201 187.163899 
L 249.40088 188.414138 
L 247.223425 191.191615 
L 246.316464 192.304602 
L 245.409503 194.108839 
L 245.225862 195.082079 
L 244.866076 196.052823 
L 244.866076 197.163315 
L 244.502542 198.273807 
L 242.68862 200.08054 
L 240.694805 202.024524 
L 240.14763 202.858017 
L 239.967737 203.551762 
L 240.331271 204.108256 
L 240.331271 204.662254 
L 239.967737 205.912493 
L 238.880883 206.885733 
L 238.153815 207.719225 
L 237.610388 208.552718 
L 237.790281 208.829717 
L 238.153815 208.829717 
L 238.153815 208.969464 
L 237.610388 209.106716 
L 236.88332 209.106716 
L 236.339893 209.246463 
L 236.16 209.523462 
L 236.16 209.940209 
L 235.796466 210.217208 
L 235.253039 210.217208 
L 234.889505 210.496702 
L 235.253039 211.330195 
L 234.889505 211.467447 
L 234.525971 211.190448 
L 234.162437 210.773701 
L 233.61901 211.330195 
L 233.255476 211.330195 
L 233.255476 211.190448 
L 233.439117 211.330195 
L 232.532156 211.607194 
L 232.712049 211.746941 
L 233.075583 211.330195 
L 233.439117 210.633954 
L 233.439117 210.217208 
L 233.61901 210.217208 
L 233.802651 210.356955 
L 233.075583 210.356955 
L 232.712049 209.523462 
L 232.532156 209.383715 
L 232.712049 209.383715 
L 233.255476 208.68997 
L 233.075583 208.68997 
L 232.712049 208.829717 
L 232.712049 208.829717 
L 233.075583 208.829717 
L 233.255476 208.412971 
L 232.168622 207.162732 
L 232.348515 207.439731 
L 232.712049 207.439731 
L 232.712049 207.302479 
L 232.89569 207.022984 
L 232.532156 206.191987 
L 232.168622 206.05224 
L 231.805088 205.775241 
L 231.625195 205.358495 
L 231.625195 204.802001 
L 231.805088 204.525002 
L 231.805088 204.245507 
L 231.445302 204.245507 
L 230.174807 203.968508 
L 229.447739 203.41451 
L 228.540778 203.41451 
L 227.270283 203.828761 
L 225.819896 205.079 
L 222.192052 206.191987 
L 220.561771 207.022984 
L 218.927742 207.719225 
L 217.477354 208.135972 
L 216.026966 208.829717 
L 214.576578 209.66321 
L 212.582763 210.217208 
L 210.5852 210.633954 
L 208.771278 211.467447 
L 204.420114 214.384671 
L 199.705416 217.301896 
L 197.707854 218.27264 
L 194.986971 219.799878 
L 193.35669 220.633371 
L 191.179234 222.717102 
L 190.272273 223.827594 
L 189.728846 224.800834 
L 189.185419 225.354832 
L 188.278458 225.911326 
L 187.187856 226.328072 
L 186.280895 227.021818 
L 185.737468 228.132309 
L 185.737468 229.382548 
L 186.101002 231.46628 
L 186.101002 232.853771 
L 186.280895 233.133265 
L 185.557575 234.937502 
L 185.194041 235.354249 
L 185.194041 236.604488 
L 184.650614 237.991979 
L 183.560012 239.381965 
L 183.923546 239.798711 
L 183.923546 240.07571 
L 183.560012 240.909203 
L 183.560012 242.436441 
L 183.200226 242.715936 
L 182.836692 243.68668 
L 182.836692 244.243174 
L 183.016585 244.380425 
L 183.200226 244.243174 
L 183.743653 244.243174 
L 182.836692 244.936919 
L 182.836692 245.076666 
L 183.200226 244.797172 
L 182.109624 245.770412 
L 182.293265 245.630664 
L 182.653051 245.630664 
L 182.836692 246.047411 
L 182.836692 246.464157 
L 183.016585 247.157903 
L 181.929731 247.991395 
L 181.386304 248.131142 
L 181.386304 248.27089 
L 181.749838 248.547889 
L 181.566197 249.101887 
L 181.749838 249.241634 
L 181.929731 249.518633 
L 181.749838 249.658381 
L 181.386304 249.658381 
L 181.02277 249.798128 
L 181.386304 250.075127 
L 181.386304 250.075127 
L 180.842877 249.93538 
L 180.115809 250.075127 
L 180.115809 250.63162 
L 180.479343 251.185619 
L 181.02277 251.602365 
L 180.115809 252.019111 
L 180.115809 252.29611 
L 179.935916 252.29611 
L 179.752275 252.019111 
L 179.752275 252.019111 
L 179.572382 252.29611 
L 179.028955 252.575605 
L 179.028955 252.712857 
L 180.295702 252.992351 
L 180.295702 253.129603 
L 180.115809 253.129603 
L 179.935916 253.26935 
L 179.388741 253.546349 
L 178.48178 253.825844 
L 178.48178 254.24259 
L 178.301887 254.519589 
L 178.301887 254.379842 
L 178.301887 254.24259 
L 178.665421 254.24259 
L 179.028955 254.102843 
L 179.572382 254.519589 
L 179.752275 254.519589 
L 179.752275 254.656841 
L 179.208848 254.656841 
L 179.208848 254.936336 
L 179.028955 254.936336 
L 178.665421 254.519589 
L 178.301887 254.519589 
L 178.665421 254.796588 
L 179.388741 255.073587 
L 178.845314 255.353082 
L 178.845314 255.630081 
L 179.572382 255.353082 
L 179.935916 254.936336 
L 179.752275 254.379842 
L 179.572382 254.24259 
L 178.845314 254.24259 
L 178.121994 253.963096 
L 177.938353 253.546349 
L 175.944538 253.26935 
L 174.31051 253.129603 
L 168.508958 253.129603 
L 164.697473 252.712857 
L 160.526202 252.019111 
L 156.175038 251.462618 
L 151.640233 251.048367 
L 146.741895 251.048367 
L 142.390731 250.90862 
L 133.321121 250.075127 
L 118.993387 250.075127 
L 116.272504 249.798128 
L 113.915155 249.381381 
L 111.737699 249.518633 
L 108.293496 250.214874 
L 106.843108 250.214874 
L 105.39272 250.075127 
L 103.938584 249.798128 
L 100.314488 249.381381 
L 99.767313 249.518633 
L 99.043993 249.518633 
L 97.773498 248.964635 
L 97.230071 249.101887 
L 96.686644 249.518633 
L 96.686644 249.798128 
L 97.593605 249.241634 
L 97.593605 249.658381 
L 97.773498 250.352126 
L 98.137032 250.90862 
L 99.407527 250.90862 
L 100.314488 251.185619 
L 100.130847 251.602365 
L 100.314488 251.879364 
L 100.674274 252.019111 
L 101.581235 252.712857 
L 101.217701 252.852604 
L 100.314488 252.992351 
L 100.314488 252.992351 
L 100.314488 254.102843 
L 100.494381 254.24259 
L 100.130847 254.656841 
L 100.494381 254.519589 
L 99.950954 254.796588 
L 100.674274 255.769828 
L 100.494381 255.769828 
L 100.130847 255.769828 
L 100.494381 255.630081 
L 100.857915 255.630081 
L 101.037808 255.769828 
L 100.857915 255.90708 
L 101.581235 255.490334 
L 101.764876 255.630081 
L 101.764876 255.90708 
L 101.401342 256.603321 
L 100.857915 256.463574 
L 100.857915 257.434318 
L 101.217701 257.851064 
L 101.401342 257.713813 
L 101.037808 256.740573 
L 101.217701 256.740573 
L 101.217701 256.740573 
L 100.857915 256.88032 
L 101.037808 257.157319 
L 101.401342 257.434318 
L 101.944769 257.157319 
L 101.581235 257.297066 
L 101.217701 257.157319 
L 101.217701 257.020067 
L 101.581235 256.88032 
L 101.944769 256.88032 
L 101.764876 257.020067 
L 101.581235 257.020067 
L 101.581235 257.157319 
L 101.764876 257.020067 
L 101.581235 256.88032 
L 101.764876 257.020067 
L 102.124662 257.434318 
L 102.488196 257.434318 
L 102.488196 257.297066 
L 102.308303 257.574065 
L 102.671837 257.851064 
L 101.944769 257.851064 
L 102.124662 257.713813 
L 102.671837 257.713813 
L 102.671837 257.990812 
L 102.308303 257.990812 
L 102.308303 257.990812 
L 102.308303 257.574065 
L 102.308303 257.713813 
L 102.671837 257.713813 
L 102.85173 257.574065 
L 102.671837 257.434318 
L 102.85173 257.434318 
L 103.395157 257.713813 
L 103.578798 257.990812 
L 102.85173 257.990812 
L 102.671837 258.130559 
L 102.671837 258.130559 
L 103.938584 257.713813 
L 103.578798 257.990812 
L 103.758691 257.990812 
L 103.758691 258.130559 
L 103.578798 258.407558 
L 103.938584 257.990812 
L 104.122225 258.267811 
L 103.938584 258.684557 
L 103.395157 258.684557 
L 103.031623 258.547305 
L 103.031623 258.407558 
L 103.578798 257.713813 
L 103.395157 257.713813 
L 103.031623 257.851064 
L 102.488196 257.851064 
L 102.488196 258.267811 
L 102.308303 258.684557 
L 102.671837 258.824304 
L 103.758691 258.824304 
L 103.215264 258.547305 
L 103.578798 258.547305 
L 103.578798 258.267811 
L 103.578798 258.407558 
L 103.938584 258.407558 
L 104.122225 258.824304 
L 103.938584 258.684557 
L 103.578798 257.851064 
L 103.215264 257.990812 
L 103.578798 258.547305 
L 103.758691 258.547305 
L 103.758691 258.407558 
L 103.758691 258.407558 
L 103.395157 258.407558 
L 102.85173 258.267811 
L 103.215264 258.267811 
L 103.395157 257.990812 
L 103.578798 258.130559 
L 103.578798 258.407558 
L 103.395157 258.547305 
L 103.758691 257.851064 
L 103.578798 258.130559 
L 103.215264 258.407558 
L 102.85173 258.407558 
L 103.215264 258.547305 
L 103.578798 258.964052 
L 103.758691 259.380798 
L 103.758691 259.241051 
L 103.938584 258.824304 
L 103.758691 258.547305 
L 103.215264 258.547305 
L 103.578798 258.547305 
L 103.758691 258.684557 
L 103.578798 258.964052 
L 103.758691 258.964052 
L 103.938584 258.824304 
L 104.302118 259.101303 
L 104.122225 259.241051 
L 103.758691 259.380798 
L 103.578798 259.101303 
L 103.938584 258.824304 
L 104.122225 258.824304 
L 103.938584 258.964052 
L 103.758691 259.241051 
L 103.938584 259.241051 
L 103.578798 259.241051 
L 103.395157 259.380798 
L 103.395157 258.824304 
L 103.395157 258.824304 
L 103.578798 259.101303 
L 103.578798 259.241051 
L 103.758691 259.241051 
L 103.578798 259.51805 
L 103.031623 259.797544 
L 102.85173 259.657797 
L 103.215264 259.380798 
L 103.758691 259.380798 
L 103.758691 259.934796 
L 104.485759 259.934796 
L 104.302118 260.074543 
L 103.938584 259.934796 
L 103.758691 259.51805 
L 103.938584 259.934796 
L 103.758691 259.934796 
L 103.758691 259.657797 
L 103.578798 259.51805 
L 103.395157 259.51805 
L 103.395157 259.51805 
L 103.758691 259.797544 
L 104.122225 259.657797 
L 104.122225 259.657797 
L 103.758691 259.657797 
L 103.215264 259.934796 
L 103.758691 259.657797 
L 103.758691 259.241051 
L 103.578798 259.241051 
L 103.578798 259.797544 
L 103.938584 259.934796 
L 103.758691 260.074543 
L 103.395157 260.211795 
L 103.395157 260.074543 
L 103.938584 259.934796 
L 106.299681 259.934796 
L 108.65703 260.074543 
L 117.906533 261.741529 
L 123.164657 262.018528 
L 129.14985 262.158275 
L 135.498577 262.158275 
L 142.754265 262.295527 
L 150.913165 262.712273 
L 159.075814 263.268767 
L 167.418356 263.545766 
L 176.124431 263.685513 
L 185.557575 264.10226 
L 195.170612 264.656258 
L 221.468732 266.600242 
L 229.811273 266.879737 
L 238.153815 267.016988 
L 246.316464 267.433735 
L 253.752044 268.129976 
L 260.644198 269.10072 
L 274.248612 271.184452 
L 293.470938 273.961929 
L 306.168391 274.795421 
L 337.36485 278.960389 
L 342.986509 279.654135 
L 353.142973 280.350376 
L 361.849048 280.627375 
L 370.371483 282.017361 
L 372.185405 282.571359 
L 373.276007 283.265104 
L 373.4559 283.961345 
L 370.735017 284.93209 
L 367.107173 285.625835 
L 363.842863 287.432568 
L 362.576116 287.849314 
L 360.762194 287.292821 
L 359.855233 287.292821 
L 359.128165 287.572315 
L 358.584738 288.126313 
L 358.221204 288.403312 
L 357.314243 288.682807 
L 356.950709 288.959806 
L 356.227389 289.933046 
L 355.863855 289.793299 
L 355.863855 289.653551 
L 356.043749 289.793299 
L 355.863855 290.210045 
L 355.320428 290.487044 
L 355.136788 290.764043 
L 355.136788 291.043538 
L 354.956894 291.180789 
L 352.963079 291.87703 
L 352.415905 291.87703 
L 351.872478 292.154029 
L 351.508944 292.154029 
L 351.508944 291.87703 
L 351.692585 292.293777 
L 351.329051 292.710523 
L 350.605731 292.847775 
L 348.971702 292.710523 
L 348.608168 292.710523 
L 348.608168 292.987522 
L 349.151595 293.264521 
L 349.335236 293.54152 
L 348.244634 293.54152 
L 347.884848 293.681267 
L 346.614353 293.681267 
L 345.887285 293.958266 
L 345.887285 294.098014 
L 346.070926 294.237761 
L 345.887285 294.375013 
L 345.523751 294.375013 
L 345.343858 294.51476 
L 344.980324 294.51476 
L 344.980324 294.375013 
L 344.800431 294.375013 
L 344.61679 294.51476 
L 343.529936 294.51476 
L 343.529936 294.654507 
L 344.073363 294.791759 
L 343.89347 294.931506 
L 343.350043 294.931506 
L 343.166402 294.654507 
L 343.350043 294.51476 
L 342.806616 294.375013 
L 341.716014 294.375013 
L 342.622975 294.654507 
L 342.806616 294.931506 
L 342.622975 295.071254 
L 342.079548 295.208505 
L 341.536121 295.208505 
L 341.172587 295.348253 
L 340.809053 295.208505 
L 340.62916 294.931506 
L 340.62916 294.931506 
L 340.809053 294.931506 
L 340.62916 294.791759 
L 340.265626 294.931506 
L 340.085733 295.488 
L 340.085733 295.348253 
L 338.995131 295.348253 
L 338.451704 294.931506 
L 338.995131 294.791759 
L 338.995131 294.931506 
L 338.815238 295.071254 
L 338.631597 295.071254 
L 338.451704 294.931506 
L 337.544743 294.931506 
L 337.001316 294.654507 
L 336.637782 294.237761 
L 337.544743 293.681267 
L 336.821423 293.958266 
L 336.637782 293.958266 
L 336.457889 293.681267 
L 336.637782 293.404268 
L 337.001316 293.404268 
L 337.728384 293.127269 
L 337.728384 293.264521 
L 337.544743 293.404268 
L 337.181209 293.404268 
L 337.001316 292.987522 
L 337.181209 292.710523 
L 337.181209 292.293777 
L 337.001316 292.293777 
L 336.821423 292.154029 
L 337.001316 291.87703 
L 337.728384 291.597536 
L 337.728384 291.320537 
L 337.544743 291.043538 
L 337.181209 291.320537 
L 337.001316 291.043538 
L 337.181209 291.043538 
L 337.36485 290.90379 
L 337.728384 290.210045 
L 337.908277 290.070298 
L 337.544743 289.793299 
L 336.457889 289.5163 
L 336.457889 288.682807 
L 336.637782 288.126313 
L 336.821423 287.986566 
L 337.001316 288.126313 
L 336.821423 287.849314 
L 336.821423 287.849314 
L 336.821423 287.572315 
L 336.457889 287.155569 
L 336.637782 287.015822 
L 336.637782 287.015822 
L 336.821423 287.015822 
L 336.821423 287.432568 
L 336.637782 287.572315 
L 335.730821 287.015822 
L 335.730821 286.876074 
L 337.001316 286.182329 
L 337.728384 286.042582 
L 338.815238 286.042582 
L 340.62916 286.182329 
L 348.428275 285.765582 
L 351.329051 285.765582 
L 354.229827 285.90533 
L 357.494137 286.182329 
L 374.362861 286.182329 
L 383.796004 287.292821 
L 390.504517 287.292821 
L 394.495895 287.572315 
L 394.859429 287.849314 
L 395.039322 288.126313 
L 395.946283 288.266061 
L 397.580312 287.015822 
L 398.123739 287.572315 
L 398.123739 287.986566 
L 398.303632 288.126313 
L 398.487273 287.986566 
L 398.303632 287.849314 
L 398.303632 287.986566 
L 397.760205 288.266061 
L 397.216778 288.682807 
L 396.48971 289.099553 
L 396.309817 289.376552 
L 396.48971 289.376552 
L 396.48971 289.5163 
L 396.126176 289.793299 
L 395.76639 290.210045 
L 395.76639 290.487044 
L 395.582749 290.349792 
L 394.675788 290.070298 
L 393.952468 289.5163 
L 393.952468 289.793299 
L 393.768827 290.210045 
L 393.2254 290.349792 
L 393.045507 290.349792 
L 392.861866 290.210045 
L 392.318439 290.764043 
L 392.681973 290.626791 
L 392.681973 290.349792 
L 392.50208 290.349792 
L 392.50208 290.764043 
L 392.138546 290.90379 
L 391.595119 290.764043 
L 391.411478 290.90379 
L 391.775012 291.043538 
L 391.595119 291.180789 
L 391.047944 291.320537 
L 390.688158 291.180789 
L 390.504517 290.764043 
L 389.96109 290.487044 
L 389.781197 290.764043 
L 389.781197 291.043538 
L 390.324624 290.90379 
L 390.504517 290.626791 
L 390.504517 290.764043 
L 390.324624 291.320537 
L 390.140983 291.460284 
L 389.781197 290.349792 
L 389.597556 290.349792 
L 389.597556 290.764043 
L 389.781197 291.320537 
L 390.140983 291.597536 
L 389.781197 291.597536 
L 389.234022 291.180789 
L 388.690595 291.043538 
L 387.783634 291.597536 
L 387.967275 291.737283 
L 388.874236 291.737283 
L 389.054129 291.87703 
L 388.147168 291.87703 
L 388.147168 291.737283 
L 388.327061 292.014282 
L 387.967275 292.154029 
L 387.423848 291.737283 
L 387.060314 291.87703 
L 387.060314 292.431028 
L 387.423848 292.431028 
L 387.423848 292.154029 
L 387.060314 292.014282 
L 386.516887 292.987522 
L 386.516887 292.710523 
L 386.333246 292.570776 
L 386.153353 292.293777 
L 385.969712 292.293777 
L 385.969712 292.293777 
L 386.333246 292.847775 
L 386.153353 292.987522 
L 385.789819 292.987522 
L 385.789819 292.847775 
L 385.969712 292.293777 
L 385.969712 291.87703 
L 385.789819 291.737283 
L 385.609926 292.014282 
L 385.609926 292.293777 
L 385.426285 292.570776 
L 385.609926 292.847775 
L 385.609926 293.127269 
L 385.426285 293.127269 
L 385.789819 292.847775 
L 386.153353 292.847775 
L 385.969712 292.987522 
L 385.246392 293.264521 
L 384.339431 293.264521 
L 384.339431 293.127269 
L 384.702965 292.987522 
L 385.062751 293.127269 
L 385.426285 293.958266 
L 385.246392 293.54152 
L 385.246392 293.264521 
L 385.062751 293.404268 
L 384.519324 293.54152 
L 383.975897 293.404268 
L 384.15579 292.987522 
L 383.975897 293.404268 
L 384.339431 293.264521 
L 384.339431 293.264521 
L 383.975897 293.54152 
L 383.975897 293.681267 
L 383.975897 292.987522 
L 383.796004 293.127269 
L 383.612363 293.54152 
L 383.796004 293.958266 
L 383.612363 293.821015 
L 383.068936 293.958266 
L 383.068936 293.958266 
L 383.612363 294.375013 
L 383.612363 294.098014 
L 383.796004 293.821015 
L 383.24883 294.51476 
L 382.889043 294.237761 
L 382.889043 294.51476 
L 383.24883 295.071254 
L 383.43247 294.931506 
L 383.24883 294.654507 
L 382.525509 294.654507 
L 382.525509 294.654507 
L 382.341869 294.51476 
L 382.341869 294.51476 
L 383.24883 294.237761 
L 383.43247 294.098014 
L 383.43247 294.237761 
L 383.068936 294.51476 
L 382.525509 294.654507 
L 382.341869 294.51476 
L 382.341869 294.375013 
L 382.341869 294.375013 
L 382.161975 294.654507 
L 382.161975 294.931506 
L 382.341869 295.071254 
L 382.341869 294.931506 
L 382.525509 294.931506 
L 382.525509 295.071254 
L 382.341869 295.208505 
L 381.982082 294.791759 
L 381.438655 294.237761 
L 381.618548 294.375013 
L 382.161975 294.375013 
L 381.982082 294.51476 
L 381.438655 294.654507 
L 381.438655 294.654507 
L 381.982082 294.931506 
L 381.618548 295.071254 
L 381.075121 295.071254 
L 380.711587 294.931506 
L 380.891481 295.071254 
L 381.255015 295.208505 
L 381.255015 294.931506 
L 380.711587 294.654507 
L 381.075121 294.791759 
L 381.438655 294.791759 
L 382.341869 294.51476 
L 380.891481 294.237761 
L 380.711587 294.375013 
L 381.255015 294.654507 
L 381.075121 294.654507 
L 381.075121 294.791759 
L 381.255015 294.931506 
L 381.255015 293.958266 
L 380.348054 294.375013 
L 380.16816 294.51476 
L 380.711587 294.098014 
L 380.711587 294.51476 
L 380.711587 294.51476 
L 380.531694 294.51476 
L 379.98452 294.237761 
L 379.98452 293.958266 
L 380.16816 293.958266 
L 380.16816 293.958266 
L 379.98452 293.821015 
L 380.16816 293.821015 
L 380.16816 294.237761 
L 380.16816 294.098014 
L 381.255015 294.098014 
L 381.075121 293.821015 
L 380.711587 293.54152 
L 380.711587 293.681267 
L 380.348054 294.375013 
L 380.348054 294.51476 
L 380.348054 293.404268 
L 380.16816 293.404268 
L 379.98452 293.681267 
L 379.98452 293.681267 
L 380.16816 293.681267 
L 380.348054 293.54152 
L 380.16816 293.681267 
L 379.98452 293.681267 
L 379.98452 293.54152 
L 379.804627 293.54152 
L 379.804627 294.098014 
L 379.2612 294.098014 
L 378.717772 293.821015 
L 374.726395 292.847775 
L 372.005512 292.847775 
L 360.942087 291.320537 
L 342.443082 289.5163 
L 335.730821 288.54306 
L 328.295241 287.292821 
L 311.973691 284.098597 
L 303.083975 282.571359 
L 294.018113 280.767122 
L 276.605961 276.876658 
L 245.773037 269.10072 
L 239.42431 267.713229 
L 233.439117 266.046244 
L 227.817458 264.239511 
L 217.477354 260.628542 
L 208.047958 257.574065 
L 204.05658 256.186575 
L 200.065203 254.656841 
L 192.993156 250.768872 
L 189.365312 249.101887 
L 185.194041 247.991395 
L 180.479343 247.29765 
L 171.953161 245.630664 
L 168.145424 244.797172 
L 164.337687 244.103426 
L 160.526202 243.68668 
L 151.820126 243.130186 
L 149.646418 243.130186 
L 147.832496 242.992935 
L 146.562001 242.715936 
L 145.655041 242.715936 
L 145.291507 242.992935 
L 145.111614 243.409681 
L 145.291507 243.826427 
L 146.018574 243.546933 
L 146.925535 242.992935 
L 147.648856 242.715936 
L 148.19603 242.715936 
L 148.91935 242.853187 
L 151.46034 242.853187 
L 152.18366 243.130186 
L 152.547194 243.546933 
L 152.910728 243.546933 
L 153.274262 243.68668 
L 153.634048 244.380425 
L 153.454155 244.243174 
L 153.274262 244.103426 
L 152.910728 244.243174 
L 152.547194 244.520173 
L 152.547194 244.797172 
L 151.640233 245.630664 
L 151.640233 245.907664 
L 151.096806 246.047411 
L 150.553379 245.907664 
L 150.189845 246.32441 
L 150.553379 246.32441 
L 150.913165 246.603904 
L 150.553379 247.29765 
L 150.733272 247.714396 
L 150.733272 247.854143 
L 150.369738 247.437397 
L 150.553379 247.29765 
L 150.733272 247.714396 
L 151.096806 248.131142 
L 151.46034 248.27089 
L 151.46034 248.131142 
L 151.096806 247.854143 
L 150.553379 247.714396 
L 150.189845 247.991395 
L 149.826311 248.964635 
L 149.826311 249.241634 
L 150.553379 249.241634 
L 151.096806 249.101887 
L 150.913165 249.241634 
L 151.096806 249.381381 
L 151.096806 249.658381 
L 150.913165 250.075127 
L 150.913165 250.352126 
L 150.913165 250.352126 
L 150.733272 250.352126 
L 151.096806 250.352126 
L 151.276699 250.491873 
L 151.096806 250.491873 
L 150.733272 250.491873 
L 150.369738 250.63162 
L 150.189845 251.048367 
L 150.913165 251.742112 
L 150.913165 251.462618 
L 150.913165 251.462618 
L 150.733272 251.742112 
L 150.913165 251.742112 
L 150.369738 252.019111 
L 150.189845 252.019111 
L 150.553379 251.879364 
L 150.913165 251.879364 
L 151.096806 252.158859 
L 151.096806 252.575605 
L 151.276699 252.435858 
L 151.46034 252.435858 
L 151.46034 252.435858 
L 151.276699 252.575605 
L 151.096806 252.992351 
L 151.276699 252.992351 
L 151.096806 253.129603 
L 150.913165 253.129603 
L 150.733272 252.435858 
L 150.733272 252.992351 
L 150.553379 253.26935 
L 150.189845 253.409098 
L 150.189845 253.546349 
L 151.096806 253.546349 
L 151.096806 253.546349 
L 150.913165 253.686097 
L 150.553379 253.409098 
L 150.369738 253.409098 
L 150.369738 253.409098 
L 150.913165 253.825844 
L 150.553379 253.686097 
L 150.009952 253.963096 
L 149.826311 253.963096 
L 150.189845 253.963096 
L 150.189845 254.102843 
L 150.189845 254.102843 
L 150.009952 254.102843 
L 150.009952 254.24259 
L 150.369738 254.379842 
L 150.733272 254.102843 
L 150.913165 253.825844 
L 150.553379 253.825844 
L 150.189845 253.963096 
L 150.189845 254.102843 
L 150.189845 253.963096 
L 150.369738 253.546349 
L 150.369738 253.825844 
L 150.733272 254.379842 
L 150.733272 254.656841 
L 150.369738 254.796588 
L 150.009952 254.656841 
L 149.462777 253.963096 
L 149.462777 254.102843 
L 150.369738 254.102843 
L 150.553379 254.379842 
L 150.369738 254.379842 
L 150.369738 254.379842 
L 150.553379 254.24259 
L 150.553379 254.102843 
L 150.733272 253.963096 
L 151.276699 254.24259 
L 151.096806 254.24259 
L 150.733272 254.379842 
L 150.369738 254.796588 
L 150.553379 255.073587 
L 150.733272 254.936336 
L 150.733272 254.656841 
L 150.369738 254.656841 
L 150.009952 254.796588 
L 151.096806 255.630081 
L 151.46034 255.630081 
L 151.46034 255.353082 
L 151.096806 255.073587 
L 150.369738 255.353082 
L 150.369738 255.353082 
L 150.369738 255.490334 
L 151.096806 255.490334 
L 152.003767 255.353082 
L 151.820126 255.630081 
L 151.276699 255.90708 
L 151.276699 256.186575 
L 151.096806 256.463574 
L 152.003767 256.463574 
L 152.003767 256.186575 
L 151.640233 255.90708 
L 150.913165 255.630081 
L 150.913165 255.90708 
L 150.189845 256.88032 
L 150.733272 256.740573 
L 150.913165 256.463574 
L 150.913165 256.603321 
L 150.913165 256.88032 
L 151.096806 256.88032 
L 151.46034 257.020067 
L 151.640233 257.434318 
L 151.46034 257.434318 
L 151.276699 257.297066 
L 151.46034 257.020067 
L 151.096806 256.88032 
L 151.276699 257.157319 
L 150.553379 257.434318 
L 150.553379 257.297066 
L 150.913165 257.020067 
L 151.276699 257.020067 
L 151.640233 257.434318 
L 152.18366 257.851064 
L 152.547194 257.851064 
L 151.820126 257.434318 
L 151.46034 257.434318 
L 150.553379 257.157319 
L 151.096806 257.297066 
L 151.820126 257.297066 
L 151.640233 257.157319 
L 150.913165 256.88032 
L 151.096806 256.740573 
L 151.820126 256.463574 
L 152.18366 256.186575 
L 151.820126 256.186575 
L 151.46034 256.323826 
L 151.46034 256.463574 
L 151.640233 256.323826 
L 151.640233 256.046827 
L 151.276699 255.769828 
L 151.640233 255.769828 
L 152.18366 255.630081 
L 152.727087 255.353082 
L 153.090621 255.353082 
L 152.910728 255.769828 
L 152.547194 256.046827 
L 152.547194 255.769828 
L 152.367301 255.353082 
L 152.547194 254.936336 
L 153.090621 254.796588 
L 153.454155 255.073587 
L 153.274262 254.936336 
L 153.274262 254.796588 
L 153.454155 254.796588 
L 153.454155 254.24259 
L 153.274262 253.963096 
L 152.910728 253.825844 
L 152.910728 253.963096 
L 153.454155 254.24259 
L 153.997582 254.379842 
L 154.181223 254.102843 
L 154.181223 254.102843 
L 154.904543 253.409098 
L 154.904543 252.992351 
L 154.181223 252.435858 
L 155.088184 253.129603 
L 155.268077 253.129603 
L 155.268077 252.852604 
L 155.088184 252.29611 
L 155.268077 252.019111 
L 155.44797 252.019111 
L 155.268077 252.158859 
L 155.44797 251.879364 
L 155.811504 251.462618 
L 155.631611 251.742112 
L 156.175038 251.185619 
L 155.995145 250.63162 
L 155.631611 250.491873 
L 155.631611 250.768872 
L 155.811504 251.185619 
L 155.995145 251.325366 
L 156.175038 250.90862 
L 156.538572 250.352126 
L 156.538572 250.075127 
L 156.538572 250.352126 
L 156.354931 250.491873 
L 156.175038 250.214874 
L 156.718465 249.518633 
L 156.902106 249.518633 
L 156.902106 249.518633 
" style="fill:none;stroke:#1f77b4;stroke-linecap:square;stroke-width:1.5;"/>
   </g>
   <g id="matplotlib.axis_1">
    <g id="xtick_1">
     <g id="line2d_2">
      <defs>
       <path d="M 0 0 
L 0 3.5 
" id="m61871bc317" style="stroke:#000000;stroke-width:0.8;"/>
      </defs>
      <g>
       <use style="stroke:#000000;stroke-width:0.8;" x="63.391433" xlink:href="#m61871bc317" y="307.584"/>
      </g>
     </g>
     <g id="text_1">
      <!-- −600 -->
      <defs>
       <path d="M 10.59375 35.5 
L 73.1875 35.5 
L 73.1875 27.203125 
L 10.59375 27.203125 
z
" id="DejaVuSans-8722"/>
       <path d="M 33.015625 40.375 
Q 26.375 40.375 22.484375 35.828125 
Q 18.609375 31.296875 18.609375 23.390625 
Q 18.609375 15.53125 22.484375 10.953125 
Q 26.375 6.390625 33.015625 6.390625 
Q 39.65625 6.390625 43.53125 10.953125 
Q 47.40625 15.53125 47.40625 23.390625 
Q 47.40625 31.296875 43.53125 35.828125 
Q 39.65625 40.375 33.015625 40.375 
z
M 52.59375 71.296875 
L 52.59375 62.3125 
Q 48.875 64.0625 45.09375 64.984375 
Q 41.3125 65.921875 37.59375 65.921875 
Q 27.828125 65.921875 22.671875 59.328125 
Q 17.53125 52.734375 16.796875 39.40625 
Q 19.671875 43.65625 24.015625 45.921875 
Q 28.375 48.1875 33.59375 48.1875 
Q 44.578125 48.1875 50.953125 41.515625 
Q 57.328125 34.859375 57.328125 23.390625 
Q 57.328125 12.15625 50.6875 5.359375 
Q 44.046875 -1.421875 33.015625 -1.421875 
Q 20.359375 -1.421875 13.671875 8.265625 
Q 6.984375 17.96875 6.984375 36.375 
Q 6.984375 53.65625 15.1875 63.9375 
Q 23.390625 74.21875 37.203125 74.21875 
Q 40.921875 74.21875 44.703125 73.484375 
Q 48.484375 72.75 52.59375 71.296875 
z
" id="DejaVuSans-54"/>
       <path d="M 31.78125 66.40625 
Q 24.171875 66.40625 20.328125 58.90625 
Q 16.5 51.421875 16.5 36.375 
Q 16.5 21.390625 20.328125 13.890625 
Q 24.171875 6.390625 31.78125 6.390625 
Q 39.453125 6.390625 43.28125 13.890625 
Q 47.125 21.390625 47.125 36.375 
Q 47.125 51.421875 43.28125 58.90625 
Q 39.453125 66.40625 31.78125 66.40625 
z
M 31.78125 74.21875 
Q 44.046875 74.21875 50.515625 64.515625 
Q 56.984375 54.828125 56.984375 36.375 
Q 56.984375 17.96875 50.515625 8.265625 
Q 44.046875 -1.421875 31.78125 -1.421875 
Q 19.53125 -1.421875 13.0625 8.265625 
Q 6.59375 17.96875 6.59375 36.375 
Q 6.59375 54.828125 13.0625 64.515625 
Q 19.53125 74.21875 31.78125 74.21875 
z
" id="DejaVuSans-48"/>
      </defs>
      <g transform="translate(49.657839 322.182437)scale(0.1 -0.1)">
       <use xlink:href="#DejaVuSans-8722"/>
       <use x="83.789062" xlink:href="#DejaVuSans-54"/>
       <use x="147.412109" xlink:href="#DejaVuSans-48"/>
       <use x="211.035156" xlink:href="#DejaVuSans-48"/>
      </g>
     </g>
    </g>
    <g id="xtick_2">
     <g id="line2d_3">
      <g>
       <use style="stroke:#000000;stroke-width:0.8;" x="138.346884" xlink:href="#m61871bc317" y="307.584"/>
      </g>
     </g>
     <g id="text_2">
      <!-- −400 -->
      <defs>
       <path d="M 37.796875 64.3125 
L 12.890625 25.390625 
L 37.796875 25.390625 
z
M 35.203125 72.90625 
L 47.609375 72.90625 
L 47.609375 25.390625 
L 58.015625 25.390625 
L 58.015625 17.1875 
L 47.609375 17.1875 
L 47.609375 0 
L 37.796875 0 
L 37.796875 17.1875 
L 4.890625 17.1875 
L 4.890625 26.703125 
z
" id="DejaVuSans-52"/>
      </defs>
      <g transform="translate(124.61329 322.182437)scale(0.1 -0.1)">
       <use xlink:href="#DejaVuSans-8722"/>
       <use x="83.789062" xlink:href="#DejaVuSans-52"/>
       <use x="147.412109" xlink:href="#DejaVuSans-48"/>
       <use x="211.035156" xlink:href="#DejaVuSans-48"/>
      </g>
     </g>
    </g>
    <g id="xtick_3">
     <g id="line2d_4">
      <g>
       <use style="stroke:#000000;stroke-width:0.8;" x="213.302335" xlink:href="#m61871bc317" y="307.584"/>
      </g>
     </g>
     <g id="text_3">
      <!-- −200 -->
      <defs>
       <path d="M 19.1875 8.296875 
L 53.609375 8.296875 
L 53.609375 0 
L 7.328125 0 
L 7.328125 8.296875 
Q 12.9375 14.109375 22.625 23.890625 
Q 32.328125 33.6875 34.8125 36.53125 
Q 39.546875 41.84375 41.421875 45.53125 
Q 43.3125 49.21875 43.3125 52.78125 
Q 43.3125 58.59375 39.234375 62.25 
Q 35.15625 65.921875 28.609375 65.921875 
Q 23.96875 65.921875 18.8125 64.3125 
Q 13.671875 62.703125 7.8125 59.421875 
L 7.8125 69.390625 
Q 13.765625 71.78125 18.9375 73 
Q 24.125 74.21875 28.421875 74.21875 
Q 39.75 74.21875 46.484375 68.546875 
Q 53.21875 62.890625 53.21875 53.421875 
Q 53.21875 48.921875 51.53125 44.890625 
Q 49.859375 40.875 45.40625 35.40625 
Q 44.1875 33.984375 37.640625 27.21875 
Q 31.109375 20.453125 19.1875 8.296875 
z
" id="DejaVuSans-50"/>
      </defs>
      <g transform="translate(199.568741 322.182437)scale(0.1 -0.1)">
       <use xlink:href="#DejaVuSans-8722"/>
       <use x="83.789062" xlink:href="#DejaVuSans-50"/>
       <use x="147.412109" xlink:href="#DejaVuSans-48"/>
       <use x="211.035156" xlink:href="#DejaVuSans-48"/>
      </g>
     </g>
    </g>
    <g id="xtick_4">
     <g id="line2d_5">
      <g>
       <use style="stroke:#000000;stroke-width:0.8;" x="288.257786" xlink:href="#m61871bc317" y="307.584"/>
      </g>
     </g>
     <g id="text_4">
      <!-- 0 -->
      <g transform="translate(285.076536 322.182437)scale(0.1 -0.1)">
       <use xlink:href="#DejaVuSans-48"/>
      </g>
     </g>
    </g>
    <g id="xtick_5">
     <g id="line2d_6">
      <g>
       <use style="stroke:#000000;stroke-width:0.8;" x="363.213237" xlink:href="#m61871bc317" y="307.584"/>
      </g>
     </g>
     <g id="text_5">
      <!-- 200 -->
      <g transform="translate(353.669487 322.182437)scale(0.1 -0.1)">
       <use xlink:href="#DejaVuSans-50"/>
       <use x="63.623047" xlink:href="#DejaVuSans-48"/>
       <use x="127.246094" xlink:href="#DejaVuSans-48"/>
      </g>
     </g>
    </g>
   </g>
   <g id="matplotlib.axis_2">
    <g id="ytick_1">
     <g id="line2d_7">
      <defs>
       <path d="M 0 0 
L -3.5 0 
" id="m80372bbc60" style="stroke:#000000;stroke-width:0.8;"/>
      </defs>
      <g>
       <use style="stroke:#000000;stroke-width:0.8;" x="57.6" xlink:href="#m80372bbc60" y="281.722893"/>
      </g>
     </g>
     <g id="text_6">
      <!-- −200 -->
      <g transform="translate(23.132812 285.522112)scale(0.1 -0.1)">
       <use xlink:href="#DejaVuSans-8722"/>
       <use x="83.789062" xlink:href="#DejaVuSans-50"/>
       <use x="147.412109" xlink:href="#DejaVuSans-48"/>
       <use x="211.035156" xlink:href="#DejaVuSans-48"/>
      </g>
     </g>
    </g>
    <g id="ytick_2">
     <g id="line2d_8">
      <g>
       <use style="stroke:#000000;stroke-width:0.8;" x="57.6" xlink:href="#m80372bbc60" y="231.813153"/>
      </g>
     </g>
     <g id="text_7">
      <!-- 0 -->
      <g transform="translate(44.2375 235.612371)scale(0.1 -0.1)">
       <use xlink:href="#DejaVuSans-48"/>
      </g>
     </g>
    </g>
    <g id="ytick_3">
     <g id="line2d_9">
      <g>
       <use style="stroke:#000000;stroke-width:0.8;" x="57.6" xlink:href="#m80372bbc60" y="181.903412"/>
      </g>
     </g>
     <g id="text_8">
      <!-- 200 -->
      <g transform="translate(31.5125 185.702631)scale(0.1 -0.1)">
       <use xlink:href="#DejaVuSans-50"/>
       <use x="63.623047" xlink:href="#DejaVuSans-48"/>
       <use x="127.246094" xlink:href="#DejaVuSans-48"/>
      </g>
     </g>
    </g>
    <g id="ytick_4">
     <g id="line2d_10">
      <g>
       <use style="stroke:#000000;stroke-width:0.8;" x="57.6" xlink:href="#m80372bbc60" y="131.993671"/>
      </g>
     </g>
     <g id="text_9">
      <!-- 400 -->
      <g transform="translate(31.5125 135.79289)scale(0.1 -0.1)">
       <use xlink:href="#DejaVuSans-52"/>
       <use x="63.623047" xlink:href="#DejaVuSans-48"/>
       <use x="127.246094" xlink:href="#DejaVuSans-48"/>
      </g>
     </g>
    </g>
    <g id="ytick_5">
     <g id="line2d_11">
      <g>
       <use style="stroke:#000000;stroke-width:0.8;" x="57.6" xlink:href="#m80372bbc60" y="82.08393"/>
      </g>
     </g>
     <g id="text_10">
      <!-- 600 -->
      <g transform="translate(31.5125 85.883149)scale(0.1 -0.1)">
       <use xlink:href="#DejaVuSans-54"/>
       <use x="63.623047" xlink:href="#DejaVuSans-48"/>
       <use x="127.246094" xlink:href="#DejaVuSans-48"/>
      </g>
     </g>
    </g>
   </g>
   <g id="line2d_12">
    <path clip-path="url(#p83b1ee7069)" d="M 77.807888 55.522625 
L 234.343359 206.671512 
L 182.061275 246.030561 
L 103.036449 256.31498 
L 351.595143 290.989 
L 389.502006 289.944964 
L 381.034014 293.799895 
L 151.765268 248.911742 
L 152.244006 254.759198 
" style="fill:none;stroke:#ff0000;stroke-linecap:square;stroke-width:0.5;"/>
   </g>
   <g id="patch_3">
    <path d="M 57.6 307.584 
L 57.6 41.472 
" style="fill:none;stroke:#000000;stroke-linecap:square;stroke-linejoin:miter;stroke-width:0.8;"/>
   </g>
   <g id="patch_4">
    <path d="M 414.72 307.584 
L 414.72 41.472 
" style="fill:none;stroke:#000000;stroke-linecap:square;stroke-linejoin:miter;stroke-width:0.8;"/>
   </g>
   <g id="patch_5">
    <path d="M 57.6 307.584 
L 414.72 307.584 
" style="fill:none;stroke:#000000;stroke-linecap:square;stroke-linejoin:miter;stroke-width:0.8;"/>
   </g>
   <g id="patch_6">
    <path d="M 57.6 41.472 
L 414.72 41.472 
" style="fill:none;stroke:#000000;stroke-linecap:square;stroke-linejoin:miter;stroke-width:0.8;"/>
   </g>
   <g id="PathCollection_1">
    <defs>
     <path d="M 0 2.738613 
C 0.726289 2.738613 1.422928 2.450055 1.936492 1.936492 
C 2.450055 1.422928 2.738613 0.726289 2.738613 0 
C 2.738613 -0.726289 2.450055 -1.422928 1.936492 -1.936492 
C 1.422928 -2.450055 0.726289 -2.738613 0 -2.738613 
C -0.726289 -2.738613 -1.422928 -2.450055 -1.936492 -1.936492 
C -2.450055 -1.422928 -2.738613 -0.726289 -2.738613 0 
C -2.738613 0.726289 -2.450055 1.422928 -1.936492 1.936492 
C -1.422928 2.450055 -0.726289 2.738613 0 2.738613 
z
" id="ma971b32793" style="stroke:#ff0000;"/>
    </defs>
    <g clip-path="url(#p83b1ee7069)">
     <use style="fill:#ff0000;stroke:#ff0000;" x="77.807888" xlink:href="#ma971b32793" y="55.522625"/>
     <use style="fill:#ff0000;stroke:#ff0000;" x="234.343359" xlink:href="#ma971b32793" y="206.671512"/>
     <use style="fill:#ff0000;stroke:#ff0000;" x="182.061275" xlink:href="#ma971b32793" y="246.030561"/>
     <use style="fill:#ff0000;stroke:#ff0000;" x="103.036449" xlink:href="#ma971b32793" y="256.31498"/>
     <use style="fill:#ff0000;stroke:#ff0000;" x="351.595143" xlink:href="#ma971b32793" y="290.989"/>
     <use style="fill:#ff0000;stroke:#ff0000;" x="389.502006" xlink:href="#ma971b32793" y="289.944964"/>
     <use style="fill:#ff0000;stroke:#ff0000;" x="381.034014" xlink:href="#ma971b32793" y="293.799895"/>
     <use style="fill:#ff0000;stroke:#ff0000;" x="151.765268" xlink:href="#ma971b32793" y="248.911742"/>
     <use style="fill:#ff0000;stroke:#ff0000;" x="152.244006" xlink:href="#ma971b32793" y="254.759198"/>
    </g>
   </g>
   <g id="text_11">
    <!-- (88) Subject: s7, Known = False, Degree = 1, Duration = 0.1 -->
    <defs>
     <path d="M 31 75.875 
Q 24.46875 64.65625 21.28125 53.65625 
Q 18.109375 42.671875 18.109375 31.390625 
Q 18.109375 20.125 21.3125 9.0625 
Q 24.515625 -2 31 -13.1875 
L 23.1875 -13.1875 
Q 15.875 -1.703125 12.234375 9.375 
Q 8.59375 20.453125 8.59375 31.390625 
Q 8.59375 42.28125 12.203125 53.3125 
Q 15.828125 64.359375 23.1875 75.875 
z
" id="DejaVuSans-40"/>
     <path d="M 31.78125 34.625 
Q 24.75 34.625 20.71875 30.859375 
Q 16.703125 27.09375 16.703125 20.515625 
Q 16.703125 13.921875 20.71875 10.15625 
Q 24.75 6.390625 31.78125 6.390625 
Q 38.8125 6.390625 42.859375 10.171875 
Q 46.921875 13.96875 46.921875 20.515625 
Q 46.921875 27.09375 42.890625 30.859375 
Q 38.875 34.625 31.78125 34.625 
z
M 21.921875 38.8125 
Q 15.578125 40.375 12.03125 44.71875 
Q 8.5 49.078125 8.5 55.328125 
Q 8.5 64.0625 14.71875 69.140625 
Q 20.953125 74.21875 31.78125 74.21875 
Q 42.671875 74.21875 48.875 69.140625 
Q 55.078125 64.0625 55.078125 55.328125 
Q 55.078125 49.078125 51.53125 44.71875 
Q 48 40.375 41.703125 38.8125 
Q 48.828125 37.15625 52.796875 32.3125 
Q 56.78125 27.484375 56.78125 20.515625 
Q 56.78125 9.90625 50.3125 4.234375 
Q 43.84375 -1.421875 31.78125 -1.421875 
Q 19.734375 -1.421875 13.25 4.234375 
Q 6.78125 9.90625 6.78125 20.515625 
Q 6.78125 27.484375 10.78125 32.3125 
Q 14.796875 37.15625 21.921875 38.8125 
z
M 18.3125 54.390625 
Q 18.3125 48.734375 21.84375 45.5625 
Q 25.390625 42.390625 31.78125 42.390625 
Q 38.140625 42.390625 41.71875 45.5625 
Q 45.3125 48.734375 45.3125 54.390625 
Q 45.3125 60.0625 41.71875 63.234375 
Q 38.140625 66.40625 31.78125 66.40625 
Q 25.390625 66.40625 21.84375 63.234375 
Q 18.3125 60.0625 18.3125 54.390625 
z
" id="DejaVuSans-56"/>
     <path d="M 8.015625 75.875 
L 15.828125 75.875 
Q 23.140625 64.359375 26.78125 53.3125 
Q 30.421875 42.28125 30.421875 31.390625 
Q 30.421875 20.453125 26.78125 9.375 
Q 23.140625 -1.703125 15.828125 -13.1875 
L 8.015625 -13.1875 
Q 14.5 -2 17.703125 9.0625 
Q 20.90625 20.125 20.90625 31.390625 
Q 20.90625 42.671875 17.703125 53.65625 
Q 14.5 64.65625 8.015625 75.875 
z
" id="DejaVuSans-41"/>
     <path id="DejaVuSans-32"/>
     <path d="M 53.515625 70.515625 
L 53.515625 60.890625 
Q 47.90625 63.578125 42.921875 64.890625 
Q 37.9375 66.21875 33.296875 66.21875 
Q 25.25 66.21875 20.875 63.09375 
Q 16.5 59.96875 16.5 54.203125 
Q 16.5 49.359375 19.40625 46.890625 
Q 22.3125 44.4375 30.421875 42.921875 
L 36.375 41.703125 
Q 47.40625 39.59375 52.65625 34.296875 
Q 57.90625 29 57.90625 20.125 
Q 57.90625 9.515625 50.796875 4.046875 
Q 43.703125 -1.421875 29.984375 -1.421875 
Q 24.8125 -1.421875 18.96875 -0.25 
Q 13.140625 0.921875 6.890625 3.21875 
L 6.890625 13.375 
Q 12.890625 10.015625 18.65625 8.296875 
Q 24.421875 6.59375 29.984375 6.59375 
Q 38.421875 6.59375 43.015625 9.90625 
Q 47.609375 13.234375 47.609375 19.390625 
Q 47.609375 24.75 44.3125 27.78125 
Q 41.015625 30.8125 33.5 32.328125 
L 27.484375 33.5 
Q 16.453125 35.6875 11.515625 40.375 
Q 6.59375 45.0625 6.59375 53.421875 
Q 6.59375 63.09375 13.40625 68.65625 
Q 20.21875 74.21875 32.171875 74.21875 
Q 37.3125 74.21875 42.625 73.28125 
Q 47.953125 72.359375 53.515625 70.515625 
z
" id="DejaVuSans-83"/>
     <path d="M 8.5 21.578125 
L 8.5 54.6875 
L 17.484375 54.6875 
L 17.484375 21.921875 
Q 17.484375 14.15625 20.5 10.265625 
Q 23.53125 6.390625 29.59375 6.390625 
Q 36.859375 6.390625 41.078125 11.03125 
Q 45.3125 15.671875 45.3125 23.6875 
L 45.3125 54.6875 
L 54.296875 54.6875 
L 54.296875 0 
L 45.3125 0 
L 45.3125 8.40625 
Q 42.046875 3.421875 37.71875 1 
Q 33.40625 -1.421875 27.6875 -1.421875 
Q 18.265625 -1.421875 13.375 4.4375 
Q 8.5 10.296875 8.5 21.578125 
z
M 31.109375 56 
z
" id="DejaVuSans-117"/>
     <path d="M 48.6875 27.296875 
Q 48.6875 37.203125 44.609375 42.84375 
Q 40.53125 48.484375 33.40625 48.484375 
Q 26.265625 48.484375 22.1875 42.84375 
Q 18.109375 37.203125 18.109375 27.296875 
Q 18.109375 17.390625 22.1875 11.75 
Q 26.265625 6.109375 33.40625 6.109375 
Q 40.53125 6.109375 44.609375 11.75 
Q 48.6875 17.390625 48.6875 27.296875 
z
M 18.109375 46.390625 
Q 20.953125 51.265625 25.265625 53.625 
Q 29.59375 56 35.59375 56 
Q 45.5625 56 51.78125 48.09375 
Q 58.015625 40.1875 58.015625 27.296875 
Q 58.015625 14.40625 51.78125 6.484375 
Q 45.5625 -1.421875 35.59375 -1.421875 
Q 29.59375 -1.421875 25.265625 0.953125 
Q 20.953125 3.328125 18.109375 8.203125 
L 18.109375 0 
L 9.078125 0 
L 9.078125 75.984375 
L 18.109375 75.984375 
z
" id="DejaVuSans-98"/>
     <path d="M 9.421875 54.6875 
L 18.40625 54.6875 
L 18.40625 -0.984375 
Q 18.40625 -11.421875 14.421875 -16.109375 
Q 10.453125 -20.796875 1.609375 -20.796875 
L -1.8125 -20.796875 
L -1.8125 -13.1875 
L 0.59375 -13.1875 
Q 5.71875 -13.1875 7.5625 -10.8125 
Q 9.421875 -8.453125 9.421875 -0.984375 
z
M 9.421875 75.984375 
L 18.40625 75.984375 
L 18.40625 64.59375 
L 9.421875 64.59375 
z
" id="DejaVuSans-106"/>
     <path d="M 56.203125 29.59375 
L 56.203125 25.203125 
L 14.890625 25.203125 
Q 15.484375 15.921875 20.484375 11.0625 
Q 25.484375 6.203125 34.421875 6.203125 
Q 39.59375 6.203125 44.453125 7.46875 
Q 49.3125 8.734375 54.109375 11.28125 
L 54.109375 2.78125 
Q 49.265625 0.734375 44.1875 -0.34375 
Q 39.109375 -1.421875 33.890625 -1.421875 
Q 20.796875 -1.421875 13.15625 6.1875 
Q 5.515625 13.8125 5.515625 26.8125 
Q 5.515625 40.234375 12.765625 48.109375 
Q 20.015625 56 32.328125 56 
Q 43.359375 56 49.78125 48.890625 
Q 56.203125 41.796875 56.203125 29.59375 
z
M 47.21875 32.234375 
Q 47.125 39.59375 43.09375 43.984375 
Q 39.0625 48.390625 32.421875 48.390625 
Q 24.90625 48.390625 20.390625 44.140625 
Q 15.875 39.890625 15.1875 32.171875 
z
" id="DejaVuSans-101"/>
     <path d="M 48.78125 52.59375 
L 48.78125 44.1875 
Q 44.96875 46.296875 41.140625 47.34375 
Q 37.3125 48.390625 33.40625 48.390625 
Q 24.65625 48.390625 19.8125 42.84375 
Q 14.984375 37.3125 14.984375 27.296875 
Q 14.984375 17.28125 19.8125 11.734375 
Q 24.65625 6.203125 33.40625 6.203125 
Q 37.3125 6.203125 41.140625 7.25 
Q 44.96875 8.296875 48.78125 10.40625 
L 48.78125 2.09375 
Q 45.015625 0.34375 40.984375 -0.53125 
Q 36.96875 -1.421875 32.421875 -1.421875 
Q 20.0625 -1.421875 12.78125 6.34375 
Q 5.515625 14.109375 5.515625 27.296875 
Q 5.515625 40.671875 12.859375 48.328125 
Q 20.21875 56 33.015625 56 
Q 37.15625 56 41.109375 55.140625 
Q 45.0625 54.296875 48.78125 52.59375 
z
" id="DejaVuSans-99"/>
     <path d="M 18.3125 70.21875 
L 18.3125 54.6875 
L 36.8125 54.6875 
L 36.8125 47.703125 
L 18.3125 47.703125 
L 18.3125 18.015625 
Q 18.3125 11.328125 20.140625 9.421875 
Q 21.96875 7.515625 27.59375 7.515625 
L 36.8125 7.515625 
L 36.8125 0 
L 27.59375 0 
Q 17.1875 0 13.234375 3.875 
Q 9.28125 7.765625 9.28125 18.015625 
L 9.28125 47.703125 
L 2.6875 47.703125 
L 2.6875 54.6875 
L 9.28125 54.6875 
L 9.28125 70.21875 
z
" id="DejaVuSans-116"/>
     <path d="M 11.71875 12.40625 
L 22.015625 12.40625 
L 22.015625 0 
L 11.71875 0 
z
M 11.71875 51.703125 
L 22.015625 51.703125 
L 22.015625 39.3125 
L 11.71875 39.3125 
z
" id="DejaVuSans-58"/>
     <path d="M 44.28125 53.078125 
L 44.28125 44.578125 
Q 40.484375 46.53125 36.375 47.5 
Q 32.28125 48.484375 27.875 48.484375 
Q 21.1875 48.484375 17.84375 46.4375 
Q 14.5 44.390625 14.5 40.28125 
Q 14.5 37.15625 16.890625 35.375 
Q 19.28125 33.59375 26.515625 31.984375 
L 29.59375 31.296875 
Q 39.15625 29.25 43.1875 25.515625 
Q 47.21875 21.78125 47.21875 15.09375 
Q 47.21875 7.46875 41.1875 3.015625 
Q 35.15625 -1.421875 24.609375 -1.421875 
Q 20.21875 -1.421875 15.453125 -0.5625 
Q 10.6875 0.296875 5.421875 2 
L 5.421875 11.28125 
Q 10.40625 8.6875 15.234375 7.390625 
Q 20.0625 6.109375 24.8125 6.109375 
Q 31.15625 6.109375 34.5625 8.28125 
Q 37.984375 10.453125 37.984375 14.40625 
Q 37.984375 18.0625 35.515625 20.015625 
Q 33.0625 21.96875 24.703125 23.78125 
L 21.578125 24.515625 
Q 13.234375 26.265625 9.515625 29.90625 
Q 5.8125 33.546875 5.8125 39.890625 
Q 5.8125 47.609375 11.28125 51.796875 
Q 16.75 56 26.8125 56 
Q 31.78125 56 36.171875 55.265625 
Q 40.578125 54.546875 44.28125 53.078125 
z
" id="DejaVuSans-115"/>
     <path d="M 8.203125 72.90625 
L 55.078125 72.90625 
L 55.078125 68.703125 
L 28.609375 0 
L 18.3125 0 
L 43.21875 64.59375 
L 8.203125 64.59375 
z
" id="DejaVuSans-55"/>
     <path d="M 11.71875 12.40625 
L 22.015625 12.40625 
L 22.015625 4 
L 14.015625 -11.625 
L 7.71875 -11.625 
L 11.71875 4 
z
" id="DejaVuSans-44"/>
     <path d="M 9.8125 72.90625 
L 19.671875 72.90625 
L 19.671875 42.09375 
L 52.390625 72.90625 
L 65.09375 72.90625 
L 28.90625 38.921875 
L 67.671875 0 
L 54.6875 0 
L 19.671875 35.109375 
L 19.671875 0 
L 9.8125 0 
z
" id="DejaVuSans-75"/>
     <path d="M 54.890625 33.015625 
L 54.890625 0 
L 45.90625 0 
L 45.90625 32.71875 
Q 45.90625 40.484375 42.875 44.328125 
Q 39.84375 48.1875 33.796875 48.1875 
Q 26.515625 48.1875 22.3125 43.546875 
Q 18.109375 38.921875 18.109375 30.90625 
L 18.109375 0 
L 9.078125 0 
L 9.078125 54.6875 
L 18.109375 54.6875 
L 18.109375 46.1875 
Q 21.34375 51.125 25.703125 53.5625 
Q 30.078125 56 35.796875 56 
Q 45.21875 56 50.046875 50.171875 
Q 54.890625 44.34375 54.890625 33.015625 
z
" id="DejaVuSans-110"/>
     <path d="M 30.609375 48.390625 
Q 23.390625 48.390625 19.1875 42.75 
Q 14.984375 37.109375 14.984375 27.296875 
Q 14.984375 17.484375 19.15625 11.84375 
Q 23.34375 6.203125 30.609375 6.203125 
Q 37.796875 6.203125 41.984375 11.859375 
Q 46.1875 17.53125 46.1875 27.296875 
Q 46.1875 37.015625 41.984375 42.703125 
Q 37.796875 48.390625 30.609375 48.390625 
z
M 30.609375 56 
Q 42.328125 56 49.015625 48.375 
Q 55.71875 40.765625 55.71875 27.296875 
Q 55.71875 13.875 49.015625 6.21875 
Q 42.328125 -1.421875 30.609375 -1.421875 
Q 18.84375 -1.421875 12.171875 6.21875 
Q 5.515625 13.875 5.515625 27.296875 
Q 5.515625 40.765625 12.171875 48.375 
Q 18.84375 56 30.609375 56 
z
" id="DejaVuSans-111"/>
     <path d="M 4.203125 54.6875 
L 13.1875 54.6875 
L 24.421875 12.015625 
L 35.59375 54.6875 
L 46.1875 54.6875 
L 57.421875 12.015625 
L 68.609375 54.6875 
L 77.59375 54.6875 
L 63.28125 0 
L 52.6875 0 
L 40.921875 44.828125 
L 29.109375 0 
L 18.5 0 
z
" id="DejaVuSans-119"/>
     <path d="M 10.59375 45.40625 
L 73.1875 45.40625 
L 73.1875 37.203125 
L 10.59375 37.203125 
z
M 10.59375 25.484375 
L 73.1875 25.484375 
L 73.1875 17.1875 
L 10.59375 17.1875 
z
" id="DejaVuSans-61"/>
     <path d="M 9.8125 72.90625 
L 51.703125 72.90625 
L 51.703125 64.59375 
L 19.671875 64.59375 
L 19.671875 43.109375 
L 48.578125 43.109375 
L 48.578125 34.8125 
L 19.671875 34.8125 
L 19.671875 0 
L 9.8125 0 
z
" id="DejaVuSans-70"/>
     <path d="M 34.28125 27.484375 
Q 23.390625 27.484375 19.1875 25 
Q 14.984375 22.515625 14.984375 16.5 
Q 14.984375 11.71875 18.140625 8.90625 
Q 21.296875 6.109375 26.703125 6.109375 
Q 34.1875 6.109375 38.703125 11.40625 
Q 43.21875 16.703125 43.21875 25.484375 
L 43.21875 27.484375 
z
M 52.203125 31.203125 
L 52.203125 0 
L 43.21875 0 
L 43.21875 8.296875 
Q 40.140625 3.328125 35.546875 0.953125 
Q 30.953125 -1.421875 24.3125 -1.421875 
Q 15.921875 -1.421875 10.953125 3.296875 
Q 6 8.015625 6 15.921875 
Q 6 25.140625 12.171875 29.828125 
Q 18.359375 34.515625 30.609375 34.515625 
L 43.21875 34.515625 
L 43.21875 35.40625 
Q 43.21875 41.609375 39.140625 45 
Q 35.0625 48.390625 27.6875 48.390625 
Q 23 48.390625 18.546875 47.265625 
Q 14.109375 46.140625 10.015625 43.890625 
L 10.015625 52.203125 
Q 14.9375 54.109375 19.578125 55.046875 
Q 24.21875 56 28.609375 56 
Q 40.484375 56 46.34375 49.84375 
Q 52.203125 43.703125 52.203125 31.203125 
z
" id="DejaVuSans-97"/>
     <path d="M 9.421875 75.984375 
L 18.40625 75.984375 
L 18.40625 0 
L 9.421875 0 
z
" id="DejaVuSans-108"/>
     <path d="M 19.671875 64.796875 
L 19.671875 8.109375 
L 31.59375 8.109375 
Q 46.6875 8.109375 53.6875 14.9375 
Q 60.6875 21.78125 60.6875 36.53125 
Q 60.6875 51.171875 53.6875 57.984375 
Q 46.6875 64.796875 31.59375 64.796875 
z
M 9.8125 72.90625 
L 30.078125 72.90625 
Q 51.265625 72.90625 61.171875 64.09375 
Q 71.09375 55.28125 71.09375 36.53125 
Q 71.09375 17.671875 61.125 8.828125 
Q 51.171875 0 30.078125 0 
L 9.8125 0 
z
" id="DejaVuSans-68"/>
     <path d="M 45.40625 27.984375 
Q 45.40625 37.75 41.375 43.109375 
Q 37.359375 48.484375 30.078125 48.484375 
Q 22.859375 48.484375 18.828125 43.109375 
Q 14.796875 37.75 14.796875 27.984375 
Q 14.796875 18.265625 18.828125 12.890625 
Q 22.859375 7.515625 30.078125 7.515625 
Q 37.359375 7.515625 41.375 12.890625 
Q 45.40625 18.265625 45.40625 27.984375 
z
M 54.390625 6.78125 
Q 54.390625 -7.171875 48.1875 -13.984375 
Q 42 -20.796875 29.203125 -20.796875 
Q 24.46875 -20.796875 20.265625 -20.09375 
Q 16.0625 -19.390625 12.109375 -17.921875 
L 12.109375 -9.1875 
Q 16.0625 -11.328125 19.921875 -12.34375 
Q 23.78125 -13.375 27.78125 -13.375 
Q 36.625 -13.375 41.015625 -8.765625 
Q 45.40625 -4.15625 45.40625 5.171875 
L 45.40625 9.625 
Q 42.625 4.78125 38.28125 2.390625 
Q 33.9375 0 27.875 0 
Q 17.828125 0 11.671875 7.65625 
Q 5.515625 15.328125 5.515625 27.984375 
Q 5.515625 40.671875 11.671875 48.328125 
Q 17.828125 56 27.875 56 
Q 33.9375 56 38.28125 53.609375 
Q 42.625 51.21875 45.40625 46.390625 
L 45.40625 54.6875 
L 54.390625 54.6875 
z
" id="DejaVuSans-103"/>
     <path d="M 41.109375 46.296875 
Q 39.59375 47.171875 37.8125 47.578125 
Q 36.03125 48 33.890625 48 
Q 26.265625 48 22.1875 43.046875 
Q 18.109375 38.09375 18.109375 28.8125 
L 18.109375 0 
L 9.078125 0 
L 9.078125 54.6875 
L 18.109375 54.6875 
L 18.109375 46.1875 
Q 20.953125 51.171875 25.484375 53.578125 
Q 30.03125 56 36.53125 56 
Q 37.453125 56 38.578125 55.875 
Q 39.703125 55.765625 41.0625 55.515625 
z
" id="DejaVuSans-114"/>
     <path d="M 12.40625 8.296875 
L 28.515625 8.296875 
L 28.515625 63.921875 
L 10.984375 60.40625 
L 10.984375 69.390625 
L 28.421875 72.90625 
L 38.28125 72.90625 
L 38.28125 8.296875 
L 54.390625 8.296875 
L 54.390625 0 
L 12.40625 0 
z
" id="DejaVuSans-49"/>
     <path d="M 9.421875 54.6875 
L 18.40625 54.6875 
L 18.40625 0 
L 9.421875 0 
z
M 9.421875 75.984375 
L 18.40625 75.984375 
L 18.40625 64.59375 
L 9.421875 64.59375 
z
" id="DejaVuSans-105"/>
     <path d="M 10.6875 12.40625 
L 21 12.40625 
L 21 0 
L 10.6875 0 
z
" id="DejaVuSans-46"/>
    </defs>
    <g transform="translate(53.559375 35.472)scale(0.12 -0.12)">
     <use xlink:href="#DejaVuSans-40"/>
     <use x="39.013672" xlink:href="#DejaVuSans-56"/>
     <use x="102.636719" xlink:href="#DejaVuSans-56"/>
     <use x="166.259766" xlink:href="#DejaVuSans-41"/>
     <use x="205.273438" xlink:href="#DejaVuSans-32"/>
     <use x="237.060547" xlink:href="#DejaVuSans-83"/>
     <use x="300.537109" xlink:href="#DejaVuSans-117"/>
     <use x="363.916016" xlink:href="#DejaVuSans-98"/>
     <use x="427.392578" xlink:href="#DejaVuSans-106"/>
     <use x="455.175781" xlink:href="#DejaVuSans-101"/>
     <use x="516.699219" xlink:href="#DejaVuSans-99"/>
     <use x="571.679688" xlink:href="#DejaVuSans-116"/>
     <use x="610.888672" xlink:href="#DejaVuSans-58"/>
     <use x="644.580078" xlink:href="#DejaVuSans-32"/>
     <use x="676.367188" xlink:href="#DejaVuSans-115"/>
     <use x="728.466797" xlink:href="#DejaVuSans-55"/>
     <use x="792.089844" xlink:href="#DejaVuSans-44"/>
     <use x="823.876953" xlink:href="#DejaVuSans-32"/>
     <use x="855.664062" xlink:href="#DejaVuSans-75"/>
     <use x="921.240234" xlink:href="#DejaVuSans-110"/>
     <use x="984.619141" xlink:href="#DejaVuSans-111"/>
     <use x="1045.800781" xlink:href="#DejaVuSans-119"/>
     <use x="1127.587891" xlink:href="#DejaVuSans-110"/>
     <use x="1190.966797" xlink:href="#DejaVuSans-32"/>
     <use x="1222.753906" xlink:href="#DejaVuSans-61"/>
     <use x="1306.542969" xlink:href="#DejaVuSans-32"/>
     <use x="1338.330078" xlink:href="#DejaVuSans-70"/>
     <use x="1395.708984" xlink:href="#DejaVuSans-97"/>
     <use x="1456.988281" xlink:href="#DejaVuSans-108"/>
     <use x="1484.771484" xlink:href="#DejaVuSans-115"/>
     <use x="1536.871094" xlink:href="#DejaVuSans-101"/>
     <use x="1598.394531" xlink:href="#DejaVuSans-44"/>
     <use x="1630.181641" xlink:href="#DejaVuSans-32"/>
     <use x="1661.96875" xlink:href="#DejaVuSans-68"/>
     <use x="1738.970703" xlink:href="#DejaVuSans-101"/>
     <use x="1800.494141" xlink:href="#DejaVuSans-103"/>
     <use x="1863.970703" xlink:href="#DejaVuSans-114"/>
     <use x="1905.052734" xlink:href="#DejaVuSans-101"/>
     <use x="1966.576172" xlink:href="#DejaVuSans-101"/>
     <use x="2028.099609" xlink:href="#DejaVuSans-32"/>
     <use x="2059.886719" xlink:href="#DejaVuSans-61"/>
     <use x="2143.675781" xlink:href="#DejaVuSans-32"/>
     <use x="2175.462891" xlink:href="#DejaVuSans-49"/>
     <use x="2239.085938" xlink:href="#DejaVuSans-44"/>
     <use x="2270.873047" xlink:href="#DejaVuSans-32"/>
     <use x="2302.660156" xlink:href="#DejaVuSans-68"/>
     <use x="2379.662109" xlink:href="#DejaVuSans-117"/>
     <use x="2443.041016" xlink:href="#DejaVuSans-114"/>
     <use x="2484.154297" xlink:href="#DejaVuSans-97"/>
     <use x="2545.433594" xlink:href="#DejaVuSans-116"/>
     <use x="2584.642578" xlink:href="#DejaVuSans-105"/>
     <use x="2612.425781" xlink:href="#DejaVuSans-111"/>
     <use x="2673.607422" xlink:href="#DejaVuSans-110"/>
     <use x="2736.986328" xlink:href="#DejaVuSans-32"/>
     <use x="2768.773438" xlink:href="#DejaVuSans-61"/>
     <use x="2852.5625" xlink:href="#DejaVuSans-32"/>
     <use x="2884.349609" xlink:href="#DejaVuSans-48"/>
     <use x="2947.972656" xlink:href="#DejaVuSans-46"/>
     <use x="2979.759766" xlink:href="#DejaVuSans-49"/>
    </g>
   </g>
  </g>
 </g>
 <defs>
  <clipPath id="p83b1ee7069">
   <rect height="266.112" width="357.12" x="57.6" y="41.472"/>
  </clipPath>
 </defs>
</svg>
