<?xml version="1.0" encoding="utf-8" standalone="no"?>
<!DOCTYPE svg PUBLIC "-//W3C//DTD SVG 1.1//EN"
  "http://www.w3.org/Graphics/SVG/1.1/DTD/svg11.dtd">
<!-- Created with matplotlib (https://matplotlib.org/) -->
<svg height="345.6pt" version="1.1" viewBox="0 0 460.8 345.6" width="460.8pt" xmlns="http://www.w3.org/2000/svg" xmlns:xlink="http://www.w3.org/1999/xlink">
 <defs>
  <style type="text/css">
*{stroke-linecap:butt;stroke-linejoin:round;}
  </style>
 </defs>
 <g id="figure_1">
  <g id="patch_1">
   <path d="M 0 345.6 
L 460.8 345.6 
L 460.8 0 
L 0 0 
z
" style="fill:#ffffff;"/>
  </g>
  <g id="axes_1">
   <g id="patch_2">
    <path d="M 57.6 307.584 
L 414.72 307.584 
L 414.72 41.472 
L 57.6 41.472 
z
" style="fill:#ffffff;"/>
   </g>
   <g id="line2d_1">
    <path clip-path="url(#p5bdfd5ef41)" d="M 74.55841 294.491094 
L 74.679357 294.987984 
L 74.55841 295.237992 
L 74.55841 294.241086 
L 74.316515 293.491063 
L 74.437462 293.491063 
L 74.800304 293.24418 
L 74.921251 292.994173 
L 75.284092 294.241086 
L 75.163145 294.491094 
L 74.437462 294.491094 
L 74.316515 293.741071 
L 74.074621 293.491063 
L 74.074621 294.241086 
L 74.437462 294.737977 
L 74.921251 294.737977 
L 74.55841 294.491094 
L 74.316515 293.991079 
L 74.316515 293.991079 
L 74.316515 294.491094 
L 74.437462 294.737977 
L 74.55841 294.491094 
L 74.800304 294.491094 
L 74.800304 294.491094 
L 74.55841 294.737977 
L 74.679357 294.737977 
L 74.55841 294.491094 
L 74.679357 294.491094 
L 74.679357 294.241086 
L 74.679357 294.987984 
L 74.679357 294.987984 
L 74.316515 293.991079 
L 74.679357 293.991079 
L 74.921251 293.741071 
L 74.800304 293.741071 
L 74.679357 293.741071 
L 74.316515 294.241086 
L 74.195568 294.491094 
L 74.437462 294.241086 
L 74.55841 294.241086 
L 74.679357 294.491094 
L 74.679357 294.241086 
L 74.55841 293.491063 
L 74.316515 293.24418 
L 73.953674 293.24418 
L 73.832727 293.491063 
L 73.832727 293.991079 
L 73.953674 294.737977 
L 74.316515 295.488 
L 74.679357 295.237992 
L 74.55841 294.491094 
L 74.679357 294.987984 
L 74.679357 293.991079 
L 74.800304 293.491063 
L 74.800304 293.24418 
L 75.042198 294.241086 
L 75.042198 293.991079 
L 75.042198 292.744165 
L 74.800304 292.994173 
L 74.679357 293.741071 
L 74.800304 293.991079 
L 75.405039 293.491063 
L 75.405039 293.491063 
L 75.163145 294.491094 
L 75.163145 294.491094 
L 74.921251 293.741071 
L 74.921251 293.741071 
L 74.679357 294.987984 
L 74.679357 295.237992 
L 75.042198 295.237992 
L 75.042198 294.737977 
L 74.800304 293.24418 
L 75.163145 292.744165 
L 75.163145 292.994173 
L 75.042198 293.741071 
L 74.800304 293.741071 
L 74.679357 293.24418 
L 74.921251 292.994173 
L 75.405039 292.994173 
L 75.405039 293.24418 
L 74.800304 292.744165 
L 74.800304 292.994173 
L 74.921251 293.491063 
L 75.163145 293.491063 
L 75.525986 293.24418 
L 75.525986 293.491063 
L 74.800304 293.24418 
L 74.679357 293.491063 
L 74.921251 293.24418 
L 75.163145 292.994173 
L 75.405039 292.244149 
L 75.405039 291.747259 
L 75.284092 291.497251 
L 75.284092 293.24418 
L 75.284092 293.24418 
L 75.405039 292.494157 
L 75.284092 292.244149 
L 75.646933 292.744165 
L 75.646933 292.744165 
L 75.76788 291.997267 
L 75.525986 290.500345 
L 75.646933 290.00033 
L 75.76788 290.00033 
L 75.646933 290.00033 
L 75.405039 290.250338 
L 75.405039 291.247244 
L 75.405039 291.247244 
L 75.163145 290.500345 
L 75.284092 290.250338 
L 75.525986 290.250338 
L 75.405039 290.00033 
L 75.284092 289.003424 
L 75.76788 288.753416 
L 75.76788 289.750322 
L 75.646933 289.503439 
L 75.646933 289.003424 
L 75.888827 289.003424 
L 76.61124 288.753416 
L 79.151128 288.256526 
L 80.962065 288.256526 
L 83.377737 288.503408 
L 86.277197 288.256526 
L 90.023287 287.256495 
L 94.253164 285.512691 
L 98.845883 282.768856 
L 104.040068 278.528099 
L 116.726432 266.805861 
L 131.949415 254.086716 
L 139.683488 247.10525 
L 147.777133 240.370666 
L 156.115941 234.632988 
L 164.209586 229.895341 
L 194.900715 211.438519 
L 209.156122 203.210139 
L 222.931009 195.228642 
L 229.576558 192.234799 
L 236.343055 189.490964 
L 253.98171 180.762568 
L 258.695376 178.768756 
L 263.284825 176.274929 
L 267.514703 173.781102 
L 274.039306 170.537251 
L 276.454978 169.290338 
L 278.39013 168.543439 
L 279.959173 167.543408 
L 280.926749 166.546503 
L 281.047696 165.299589 
L 280.926749 164.802698 
L 280.201067 164.552691 
L 279.236759 164.552691 
L 278.39013 164.052675 
L 275.611617 164.052675 
L 274.039306 164.552691 
L 273.43457 165.049581 
L 272.228369 165.049581 
L 272.107422 165.299589 
L 272.107422 165.049581 
L 272.228369 164.552691 
L 272.470263 164.552691 
L 272.712157 165.049581 
L 272.950782 165.049581 
L 273.192676 164.552691 
L 273.43457 164.552691 
L 273.555517 165.049581 
L 273.797412 165.049581 
L 273.918359 164.802698 
L 273.918359 164.802698 
L 274.523094 164.802698 
L 274.644041 164.302683 
L 274.523094 163.802667 
L 274.2812 163.555785 
L 274.160253 163.802667 
L 274.2812 163.555785 
L 274.523094 163.555785 
L 274.402147 164.052675 
L 274.2812 164.052675 
L 274.2812 163.305777 
L 274.160253 162.308871 
L 273.797412 161.558848 
L 273.313623 161.808856 
L 272.59121 161.30884 
L 272.470263 161.061958 
L 272.833104 161.808856 
L 273.192676 161.808856 
L 273.313623 161.30884 
L 272.950782 161.30884 
L 272.349316 161.558848 
L 272.59121 161.061958 
L 272.59121 159.815044 
L 272.59121 159.815044 
L 272.950782 160.561942 
L 273.192676 158.815013 
L 272.950782 158.565005 
L 272.950782 159.065021 
L 273.071729 159.565036 
L 272.950782 159.315028 
L 272.833104 159.565036 
L 272.59121 159.815044 
L 272.59121 159.315028 
L 272.470263 158.565005 
L 272.228369 158.068115 
L 272.349316 158.318122 
L 272.107422 158.318122 
L 272.107422 158.318122 
L 271.986475 158.068115 
L 271.744581 158.068115 
L 271.865528 157.818107 
L 272.107422 157.818107 
L 272.228369 157.318091 
L 272.228369 157.071209 
L 271.986475 157.318091 
L 271.986475 156.821201 
L 272.107422 156.321186 
L 271.986475 156.321186 
L 271.744581 156.571193 
L 271.502687 156.571193 
L 271.623634 156.571193 
L 271.986475 156.821201 
L 272.59121 157.568099 
L 271.986475 156.571193 
L 271.623634 156.321186 
L 271.623634 156.071178 
L 271.986475 155.824295 
L 271.865528 156.071178 
L 272.349316 155.074272 
L 272.107422 155.074272 
L 271.623634 154.577381 
L 271.38174 154.577381 
L 271.38174 154.577381 
L 271.38174 154.327374 
L 271.502687 153.827358 
L 271.139845 153.827358 
L 271.260792 154.077366 
L 271.502687 153.57735 
L 271.502687 152.830452 
L 271.018898 152.580445 
L 270.656057 152.580445 
L 270.777004 152.830452 
L 271.018898 152.830452 
L 271.139845 153.57735 
L 271.018898 153.330468 
L 270.897951 152.580445 
L 271.018898 152.330437 
L 271.139845 152.580445 
L 271.139845 153.57735 
L 271.018898 153.827358 
L 271.38174 152.830452 
L 271.260792 153.08046 
L 270.897951 152.083554 
L 270.897951 152.580445 
L 270.656057 153.330468 
L 270.656057 153.330468 
L 270.897951 153.08046 
L 270.897951 152.580445 
L 270.777004 152.083554 
L 270.897951 151.833546 
L 271.018898 152.083554 
L 271.018898 152.830452 
L 270.897951 153.57735 
L 270.777004 153.57735 
L 270.414163 152.830452 
L 270.53511 152.083554 
L 270.53511 152.330437 
L 270.656057 153.57735 
L 270.656057 153.57735 
L 270.53511 153.08046 
L 270.656057 152.580445 
L 270.777004 152.580445 
L 270.777004 153.330468 
L 270.53511 154.327374 
L 269.930375 154.577381 
L 270.051322 154.577381 
L 270.172269 155.074272 
L 270.051322 155.074272 
L 270.051322 154.824264 
L 270.051322 154.824264 
L 269.69175 155.574287 
L 269.69175 155.824295 
L 269.930375 155.574287 
L 270.53511 154.327374 
L 270.293216 155.074272 
L 270.414163 156.071178 
L 270.293216 155.574287 
L 270.414163 155.574287 
L 270.293216 155.574287 
L 270.293216 155.074272 
L 270.414163 154.577381 
L 270.293216 155.074272 
L 270.414163 155.074272 
L 270.53511 155.32428 
L 270.414163 155.32428 
L 270.293216 155.574287 
L 270.53511 155.32428 
L 270.897951 155.074272 
L 270.53511 155.32428 
L 270.172269 154.327374 
L 270.414163 153.827358 
L 270.414163 154.077366 
L 270.777004 156.321186 
L 270.53511 155.32428 
L 270.051322 154.577381 
L 269.328909 154.824264 
L 268.361332 155.32428 
L 266.308502 155.32428 
L 258.09064 153.827358 
L 255.433074 153.827358 
L 252.654561 154.077366 
L 249.513207 154.077366 
L 246.250906 154.327374 
L 242.988605 155.074272 
L 239.726303 156.071178 
L 230.423188 157.568099 
L 227.281833 158.815013 
L 224.140479 160.81195 
L 218.580184 163.305777 
L 215.680724 165.049581 
L 213.023158 167.046518 
L 210.728433 168.543439 
L 208.433708 169.540345 
L 206.135714 170.040361 
L 204.203831 170.787259 
L 202.389625 171.784165 
L 200.699635 172.034173 
L 199.006377 172.034173 
L 197.679228 172.28418 
L 196.590705 172.28418 
L 195.021662 173.031079 
L 194.537874 173.281086 
L 194.29598 173.781102 
L 194.416927 174.277992 
L 194.658821 174.778008 
L 195.142609 174.528 
L 195.626397 174.027984 
L 196.106917 174.027984 
L 196.590705 174.277992 
L 196.832599 174.778008 
L 197.19544 175.028016 
L 197.558281 175.028016 
L 197.921122 175.274898 
L 198.042069 175.028016 
L 197.800175 175.274898 
L 197.679228 176.024921 
L 197.800175 176.524937 
L 197.316387 177.771851 
L 197.19544 177.771851 
L 196.832599 178.768756 
L 196.832599 179.765662 
L 196.832599 179.018764 
L 196.469758 179.018764 
L 196.348811 179.265647 
L 196.348811 179.265647 
L 196.227864 179.018764 
L 196.227864 179.018764 
L 196.469758 178.768756 
L 196.469758 178.768756 
L 195.985969 179.765662 
L 196.348811 180.762568 
L 196.348811 181.512592 
L 196.106917 181.512592 
L 195.865022 181.759474 
L 195.865022 182.009482 
L 195.985969 182.25949 
L 195.985969 181.759474 
L 195.865022 181.262584 
L 195.744075 182.009482 
L 195.865022 182.759505 
L 195.985969 182.509497 
L 195.985969 182.759505 
L 196.227864 182.759505 
L 196.227864 183.006388 
L 195.985969 183.506403 
L 195.626397 183.756411 
L 195.50545 183.506403 
L 195.50545 183.006388 
L 195.50545 183.006388 
L 195.142609 182.759505 
L 195.142609 183.006388 
L 195.263556 183.506403 
L 196.106917 183.506403 
L 196.106917 183.756411 
L 195.626397 185.003325 
L 195.865022 185.253333 
L 195.865022 185.003325 
L 195.626397 184.753317 
L 195.384503 184.753317 
L 195.142609 185.003325 
L 195.142609 185.003325 
L 195.142609 184.503309 
L 195.142609 184.753317 
L 195.021662 185.50334 
L 194.779768 186.250238 
L 195.021662 185.253333 
L 194.779768 185.003325 
L 194.900715 185.253333 
L 194.900715 186.000231 
L 195.263556 185.50334 
L 195.263556 185.750223 
L 195.142609 186.250238 
L 194.779768 186.750254 
L 194.779768 187.497152 
L 194.779768 187.497152 
L 195.021662 187.247144 
L 195.021662 187.497152 
L 195.142609 187.247144 
L 194.900715 186.997137 
L 194.658821 187.247144 
L 194.416927 187.247144 
L 194.416927 187.247144 
L 194.658821 186.997137 
L 194.900715 186.997137 
L 194.900715 186.997137 
L 194.658821 187.74716 
L 194.537874 187.497152 
L 194.537874 187.497152 
L 194.29598 187.74716 
L 194.29598 187.74716 
L 194.537874 186.997137 
L 194.537874 187.247144 
L 194.29598 188.494058 
L 194.416927 187.497152 
L 194.054086 187.497152 
L 193.933139 188.24405 
L 193.933139 189.244081 
L 194.054086 189.244081 
L 194.29598 188.494058 
L 194.416927 187.74716 
L 193.933139 188.24405 
L 194.175033 187.74716 
L 195.263556 187.74716 
L 196.348811 187.497152 
L 200.0949 187.997168 
L 202.752466 187.997168 
L 209.398016 186.997137 
L 213.627893 186.750254 
L 218.459237 187.247144 
L 235.254532 187.997168 
L 241.779134 187.997168 
L 248.061843 187.74716 
L 254.465498 187.997168 
L 260.990101 189.740972 
L 267.63565 191.237893 
L 274.523094 191.984791 
L 281.28959 193.23483 
L 287.814193 194.728626 
L 293.975954 195.97554 
L 300.016769 196.975571 
L 306.299477 197.722469 
L 312.703133 198.222485 
L 318.985841 199.716281 
L 324.784761 201.713218 
L 330.345056 203.460147 
L 336.023029 204.457053 
L 347.378976 204.953943 
L 353.060218 205.453959 
L 363.448588 206.95088 
L 367.92036 207.697778 
L 375.896327 208.694684 
L 379.397253 209.1947 
L 384.231866 209.694715 
L 385.679962 209.941598 
L 386.889432 209.941598 
L 387.857009 209.694715 
L 387.736061 210.441613 
L 387.37322 211.438519 
L 386.647538 211.688527 
L 383.989972 210.691621 
L 381.5743 211.688527 
L 380.606724 211.688527 
L 379.760094 211.438519 
L 378.311999 211.438519 
L 378.191052 211.938535 
L 378.311999 211.938535 
L 378.553893 211.688527 
L 379.037681 211.688527 
L 379.397253 211.938535 
L 379.881042 212.43855 
L 380.36483 213.435456 
L 380.969565 215.429268 
L 381.090512 215.429268 
L 381.453353 215.679276 
L 381.5743 215.929284 
L 381.453353 216.179291 
L 381.090512 215.679276 
L 381.090512 215.429268 
L 380.969565 215.429268 
L 380.36483 215.929284 
L 380.243883 216.426174 
L 380.243883 217.176197 
L 380.36483 217.176197 
L 380.36483 216.426174 
L 380.243883 216.179291 
L 380.485777 216.676182 
L 380.606724 216.179291 
L 380.36483 216.179291 
L 380.122936 216.926189 
L 380.001989 217.673088 
L 380.001989 217.426205 
L 379.881042 216.926189 
L 379.881042 216.926189 
L 380.122936 217.176197 
L 380.122936 217.673088 
L 380.122936 217.176197 
L 380.001989 216.926189 
L 380.001989 217.176197 
L 379.639147 217.923095 
L 379.639147 217.673088 
L 379.639147 217.426205 
L 379.639147 217.426205 
L 380.001989 218.173103 
L 380.001989 218.423111 
L 379.397253 218.423111 
L 379.760094 218.923126 
L 379.881042 218.673119 
L 379.639147 218.423111 
L 379.276306 218.423111 
L 379.155359 218.923126 
L 379.276306 219.170009 
L 379.397253 218.923126 
L 379.276306 218.423111 
L 379.155359 218.673119 
L 379.397253 219.920032 
L 379.397253 219.670024 
L 378.916734 219.170009 
L 378.916734 219.670024 
L 379.155359 220.17004 
L 379.276306 219.920032 
L 379.155359 219.420017 
L 379.155359 219.670024 
L 379.155359 219.920032 
L 379.639147 220.66693 
L 379.5182 220.66693 
L 379.276306 220.66693 
L 378.916734 221.663836 
L 379.037681 221.663836 
L 378.916734 221.663836 
L 378.67484 221.913844 
L 378.432946 221.913844 
L 378.311999 221.416954 
L 378.311999 221.416954 
L 378.432946 221.416954 
L 378.432946 221.663836 
L 378.67484 222.41386 
L 378.432946 223.160758 
L 378.432946 223.160758 
L 378.311999 223.660773 
L 378.553893 223.160758 
L 378.795787 222.91075 
L 378.795787 222.663867 
L 378.553893 222.663867 
L 378.553893 222.663867 
L 378.67484 222.91075 
L 378.795787 222.663867 
L 378.311999 223.660773 
L 377.949158 223.410765 
L 377.828211 223.160758 
L 378.191052 223.660773 
L 378.67484 223.660773 
L 378.432946 223.660773 
L 378.191052 223.160758 
L 378.191052 222.663867 
L 378.311999 222.91075 
L 378.553893 222.91075 
L 378.553893 222.91075 
L 378.311999 222.663867 
L 378.191052 222.91075 
L 377.828211 224.407671 
L 378.191052 223.160758 
L 378.432946 222.91075 
L 378.070105 224.157664 
L 377.707264 224.657679 
L 377.828211 224.907687 
L 378.070105 224.907687 
L 378.191052 225.157695 
L 378.191052 225.157695 
L 377.949158 225.404577 
L 377.949158 225.404577 
L 378.070105 226.154601 
L 378.070105 225.904593 
L 378.070105 225.404577 
L 377.949158 225.904593 
L 378.070105 226.404608 
L 378.311999 226.404608 
L 378.311999 226.154601 
L 377.707264 224.907687 
L 377.586317 225.904593 
L 377.828211 226.651491 
L 378.191052 226.404608 
L 378.432946 225.904593 
L 378.432946 225.404577 
L 378.191052 226.154601 
L 378.070105 225.904593 
L 378.070105 224.907687 
L 377.949158 225.157695 
L 377.949158 225.904593 
L 377.707264 226.651491 
L 377.949158 227.151506 
L 378.311999 227.401514 
L 378.311999 227.401514 
L 378.070105 227.401514 
L 378.070105 226.901499 
L 378.191052 226.404608 
L 377.707264 225.654585 
L 377.707264 227.401514 
L 377.586317 227.151506 
L 377.586317 227.151506 
L 377.828211 226.901499 
L 377.828211 226.651491 
L 377.707264 226.404608 
L 377.707264 226.404608 
L 378.191052 225.904593 
L 377.828211 226.404608 
L 378.191052 226.901499 
L 378.191052 226.154601 
L 378.191052 226.154601 
L 378.311999 226.154601 
L 378.311999 226.901499 
L 378.191052 227.401514 
L 377.949158 227.651522 
L 377.949158 227.401514 
L 377.707264 226.154601 
L 377.707264 226.651491 
L 377.828211 226.651491 
L 378.070105 225.404577 
L 377.707264 225.904593 
L 378.070105 225.654585 
L 378.070105 225.904593 
L 378.070105 225.904593 
L 378.191052 225.904593 
L 378.070105 225.904593 
L 377.828211 226.404608 
L 377.949158 226.404608 
L 378.191052 226.404608 
L 378.191052 226.651491 
L 378.191052 226.404608 
L 378.070105 226.154601 
L 378.191052 226.651491 
L 378.070105 227.151506 
L 377.949158 227.151506 
L 377.828211 226.404608 
L 377.828211 225.404577 
L 377.707264 225.654585 
L 377.949158 226.404608 
L 377.949158 226.651491 
L 377.707264 226.651491 
L 378.070105 225.404577 
L 378.432946 225.404577 
L 378.432946 225.404577 
L 378.553893 225.157695 
L 378.432946 225.157695 
L 377.586317 226.154601 
L 377.828211 225.904593 
L 377.949158 225.404577 
L 377.949158 225.654585 
L 377.828211 225.404577 
L 377.707264 225.654585 
L 377.707264 226.154601 
L 377.586317 226.404608 
L 377.46537 226.154601 
L 377.46537 225.404577 
L 377.707264 225.157695 
L 377.344422 225.654585 
L 377.223475 225.904593 
L 377.949158 225.404577 
L 378.916734 223.660773 
L 379.5182 223.410765 
L 381.211459 223.410765 
L 382.417661 222.91075 
L 383.989972 222.41386 
L 385.562284 221.663836 
L 387.010379 221.166946 
L 388.703638 220.916938 
L 390.635522 221.166946 
L 392.325511 221.663836 
L 394.744452 221.166946 
L 395.950654 220.416923 
L 397.039177 219.920032 
L 398.369595 219.920032 
L 398.487273 219.670024 
L 398.248647 219.920032 
L 397.643912 219.920032 
L 396.676336 219.420017 
L 394.260664 219.420017 
L 393.534982 218.923126 
L 393.172141 218.923126 
L 392.567405 217.426205 
L 392.446458 217.673088 
L 393.293088 218.173103 
L 393.414035 218.673119 
L 393.776876 219.420017 
L 393.655929 219.170009 
L 393.776876 218.423111 
L 394.381611 217.176197 
L 394.502558 217.426205 
L 394.01877 218.173103 
L 394.01877 217.176197 
L 393.776876 217.673088 
L 393.414035 217.673088 
L 393.655929 217.426205 
L 393.293088 217.426205 
L 392.930247 217.923095 
L 392.930247 217.923095 
L 393.051194 217.426205 
L 393.172141 217.426205 
L 393.172141 217.176197 
L 393.051194 217.176197 
L 392.688352 216.926189 
L 392.688352 217.426205 
L 392.930247 217.426205 
L 393.293088 216.426174 
L 393.293088 216.426174 
L 393.172141 216.426174 
L 393.293088 216.426174 
L 393.293088 216.179291 
L 393.172141 216.179291 
L 393.172141 216.676182 
L 393.051194 217.176197 
L 392.688352 217.176197 
L 392.446458 216.926189 
L 392.567405 216.926189 
L 392.688352 216.926189 
L 392.446458 217.426205 
L 392.809299 216.926189 
L 392.809299 217.176197 
L 392.688352 217.673088 
L 392.446458 217.673088 
L 392.567405 217.176197 
L 392.567405 216.426174 
L 392.567405 216.926189 
L 392.446458 216.926189 
L 392.204564 216.676182 
L 391.965939 217.426205 
L 391.844992 216.426174 
L 391.965939 215.929284 
L 392.325511 217.673088 
L 392.204564 218.173103 
L 391.361204 217.673088 
L 391.482151 217.426205 
L 391.724045 217.426205 
L 392.083617 217.673088 
L 392.083617 217.426205 
L 391.844992 217.426205 
L 391.844992 218.173103 
L 391.724045 218.673119 
L 391.965939 217.673088 
L 391.965939 216.926189 
L 391.603098 216.926189 
L 391.361204 217.426205 
L 391.844992 218.423111 
L 391.603098 218.923126 
L 391.844992 218.673119 
L 392.083617 218.673119 
L 391.603098 218.673119 
L 391.482151 218.923126 
L 391.240257 218.923126 
L 391.240257 218.923126 
L 391.361204 219.420017 
L 391.603098 219.170009 
L 391.724045 218.673119 
L 391.844992 218.673119 
L 391.11931 218.673119 
L 390.635522 218.423111 
L 390.151733 218.423111 
L 389.184157 218.923126 
L 387.494167 218.673119 
L 385.078495 218.173103 
L 382.299982 217.176197 
L 379.155359 216.179291 
L 375.533486 215.429268 
L 371.303608 214.68237 
L 366.589942 214.182354 
L 361.516704 213.435456 
L 355.959678 212.188543 
L 349.67697 210.941629 
L 343.273314 209.941598 
L 336.627765 209.1947 
L 329.619374 207.697778 
L 307.508947 203.957037 
L 300.137716 202.460116 
L 285.398521 199.966289 
L 278.027289 199.21939 
L 250.598462 194.481744 
L 244.073859 193.73172 
L 231.387495 192.734814 
L 225.709522 192.234799 
L 219.910602 192.234799 
L 214.232628 192.484807 
L 208.914227 192.484807 
L 203.720042 191.984791 
L 198.525857 190.987885 
L 193.933139 190.490995 
L 190.066102 190.240987 
L 179.556785 190.240987 
L 177.016897 190.490995 
L 174.964066 190.987885 
L 173.391755 190.987885 
L 172.185553 190.490995 
L 171.338924 189.740972 
L 170.976083 188.744066 
L 171.217977 188.494058 
L 171.701765 188.494058 
L 172.064606 188.744066 
L 172.548394 188.744066 
L 173.032182 188.494058 
L 173.754596 188.744066 
L 174.480278 189.490964 
L 175.326907 189.740972 
L 176.05259 189.740972 
L 176.294484 189.990979 
L 176.05259 189.990979 
L 175.810696 190.240987 
L 175.810696 192.234799 
L 175.568801 192.734814 
L 175.20596 192.734814 
L 174.843119 192.984822 
L 174.480278 193.981728 
L 173.99649 194.978634 
L 173.512702 195.47865 
L 172.427447 195.47865 
L 172.3065 195.97554 
L 172.427447 196.475555 
L 172.185553 196.975571 
L 171.580818 197.472461 
L 171.822712 197.722469 
L 172.064606 197.222454 
L 172.3065 197.972477 
L 172.3065 198.222485 
L 173.15313 198.969383 
L 173.15313 198.719375 
L 173.15313 198.719375 
L 172.911235 198.719375 
L 172.669341 199.469398 
L 172.548394 200.216296 
L 172.548394 199.966289 
L 172.185553 200.216296 
L 172.185553 200.216296 
L 172.064606 199.966289 
L 172.548394 200.963195 
L 172.185553 200.963195 
L 171.822712 200.716312 
L 171.580818 200.716312 
L 171.580818 200.963195 
L 171.459871 201.213202 
L 171.580818 201.213202 
L 171.822712 201.713218 
L 171.701765 201.713218 
L 171.580818 201.713218 
L 171.338924 201.963226 
L 171.338924 201.963226 
L 171.580818 202.710124 
L 171.580818 202.710124 
L 171.580818 202.960131 
L 171.338924 204.457053 
L 171.459871 204.457053 
L 171.580818 204.707061 
L 171.338924 204.457053 
L 171.217977 204.707061 
L 171.338924 204.207045 
L 171.338924 203.957037 
L 170.976083 204.953943 
L 171.09703 204.707061 
L 171.338924 205.703967 
L 171.09703 205.953974 
L 171.09703 205.453959 
L 171.09703 205.453959 
L 170.734189 205.703967 
L 170.613242 206.200857 
L 170.613242 205.953974 
L 170.855136 206.200857 
L 170.613242 206.200857 
L 170.250401 206.200857 
L 170.250401 206.450865 
L 170.492295 206.200857 
L 170.492295 205.953974 
L 170.250401 205.953974 
L 169.769881 206.200857 
L 169.40704 206.700872 
L 169.286093 207.200888 
L 169.40704 207.447771 
L 169.648934 207.200888 
L 169.890828 207.200888 
L 170.008506 207.447771 
L 170.008506 207.447771 
L 169.890828 207.697778 
L 170.250401 206.95088 
L 170.250401 207.447771 
L 170.008506 207.697778 
L 169.890828 208.197794 
L 169.769881 208.197794 
L 170.008506 207.947786 
L 170.008506 208.694684 
L 169.890828 208.944692 
L 169.769881 208.694684 
L 169.769881 208.197794 
L 169.890828 207.947786 
L 169.648934 208.694684 
L 169.769881 208.447802 
L 169.890828 208.447802 
L 169.648934 209.1947 
L 169.527987 208.944692 
L 169.648934 208.694684 
L 169.648934 208.944692 
L 169.527987 209.444707 
L 169.527987 209.941598 
L 169.648934 210.191606 
L 169.769881 209.941598 
L 169.40704 210.691621 
L 169.165146 209.941598 
L 169.286093 210.191606 
L 169.286093 210.691621 
L 168.802305 210.691621 
L 169.286093 210.691621 
L 169.527987 211.191637 
L 169.40704 211.191637 
L 169.044199 211.191637 
L 168.802305 210.941629 
L 168.802305 210.691621 
L 169.165146 210.691621 
L 169.165146 211.191637 
L 169.044199 211.938535 
L 169.165146 211.688527 
L 169.527987 211.191637 
L 169.527987 210.941629 
L 169.527987 211.438519 
L 169.40704 212.188543 
L 169.40704 212.43855 
L 169.40704 211.938535 
L 169.527987 211.438519 
L 169.40704 211.438519 
L 169.044199 212.685433 
L 168.802305 212.43855 
L 168.681358 212.43855 
L 168.802305 212.188543 
L 168.923252 211.191637 
L 169.165146 210.691621 
L 169.40704 211.191637 
L 169.40704 211.688527 
L 169.165146 211.688527 
L 168.802305 211.938535 
L 168.802305 212.685433 
L 168.923252 213.185448 
L 169.044199 212.935441 
L 169.044199 212.43855 
L 168.923252 212.685433 
L 168.560411 211.938535 
L 168.681358 211.688527 
L 168.681358 211.938535 
L 168.923252 212.685433 
L 168.923252 213.435456 
L 169.044199 213.932347 
L 168.802305 212.935441 
L 168.802305 212.935441 
L 169.044199 212.935441 
L 168.802305 213.185448 
L 168.681358 212.935441 
L 169.286093 212.935441 
L 169.286093 213.435456 
L 169.165146 213.932347 
L 169.286093 213.932347 
L 169.286093 213.435456 
L 169.286093 213.932347 
L 168.923252 214.182354 
L 168.560411 213.435456 
L 168.560411 212.43855 
L 168.681358 211.938535 
L 168.560411 211.688527 
L 168.19757 212.685433 
L 168.439464 212.935441 
L 168.439464 212.685433 
L 168.318517 212.43855 
L 168.560411 212.685433 
L 168.439464 212.685433 
L 168.681358 213.932347 
L 168.923252 214.182354 
L 169.165146 214.182354 
L 169.165146 213.932347 
L 169.044199 213.932347 
L 169.044199 214.432362 
L 169.044199 214.182354 
L 168.923252 213.185448 
L 169.044199 212.685433 
L 169.044199 212.935441 
L 168.923252 212.685433 
L 168.923252 212.935441 
L 168.923252 213.435456 
L 168.681358 213.685464 
L 168.681358 213.435456 
L 168.923252 213.932347 
L 168.923252 214.932378 
L 168.802305 214.932378 
L 168.802305 213.185448 
L 168.681358 212.935441 
L 168.681358 213.435456 
L 168.560411 213.685464 
L 168.923252 212.935441 
L 169.286093 212.935441 
L 169.40704 213.185448 
L 169.286093 213.185448 
L 168.923252 212.935441 
L 168.802305 212.43855 
L 168.802305 212.43855 
L 168.923252 212.43855 
L 169.165146 212.685433 
L 169.527987 212.43855 
L 171.943659 206.450865 
L 173.512702 204.207045 
L 175.810696 201.963226 
L 182.456245 194.728626 
L 190.428943 186.000231 
L 198.888698 176.024921 
L 203.357201 170.287244 
L 212.418423 157.818107 
L 216.890194 152.330437 
L 221.241019 147.342782 
L 225.467628 142.10512 
L 234.407902 133.126716 
L 242.504816 123.651423 
L 246.4928 119.660674 
L 250.719409 116.666831 
L 254.949286 113.922996 
L 258.93727 110.932278 
L 262.562412 107.43842 
L 266.187554 104.197695 
L 269.809428 101.45386 
L 273.313623 98.460017 
L 282.257167 88.484707 
L 287.451352 82.000131 
L 289.383236 79.756312 
L 290.8346 77.759375 
L 296.754467 68.284081 
L 297.359203 66.78716 
L 297.722044 64.790223 
L 297.722044 63.046419 
L 297.48015 61.549497 
L 297.117308 60.052576 
L 296.996361 58.058764 
L 297.117308 57.808756 
L 296.996361 57.558749 
L 295.427319 56.311835 
L 295.185425 56.561843 
L 294.701637 57.558749 
L 294.943531 58.805662 
L 295.427319 58.058764 
L 295.427319 58.308772 
L 295.544997 58.308772 
L 295.544997 58.058764 
L 295.786891 57.808756 
L 295.786891 57.558749 
L 295.544997 56.811851 
L 295.907838 56.811851 
L 296.028785 57.558749 
L 295.786891 58.058764 
L 295.427319 57.808756 
L 295.427319 57.558749 
L 295.544997 56.811851 
L 295.786891 56.061827 
L 295.786891 55.314929 
L 295.185425 56.311835 
L 295.064478 55.81182 
L 295.306372 55.81182 
L 295.185425 55.81182 
L 294.822584 55.314929 
L 294.580689 55.564937 
L 295.064478 55.064921 
L 294.943531 55.314929 
L 294.943531 55.564937 
L 295.064478 55.81182 
L 295.185425 55.564937 
L 295.427319 54.564906 
L 295.306372 54.564906 
L 294.943531 55.564937 
L 294.943531 55.314929 
L 294.822584 55.064921 
L 294.580689 55.064921 
L 294.580689 55.314929 
L 295.185425 54.814914 
L 295.064478 55.064921 
L 295.064478 54.564906 
L 295.064478 54.564906 
L 295.306372 55.564937 
L 295.185425 55.564937 
L 295.064478 55.064921 
L 294.943531 55.064921 
L 295.064478 55.314929 
L 295.306372 55.314929 
L 294.822584 54.564906 
L 294.096901 54.318023 
L 294.338795 54.318023 
L 294.822584 54.814914 
L 294.943531 55.314929 
L 294.822584 55.81182 
L 294.943531 55.564937 
L 295.185425 55.314929 
L 295.064478 54.564906 
L 294.822584 53.818008 
L 294.580689 53.568 
L 294.822584 53.818008 
L 295.064478 54.564906 
L 294.822584 55.064921 
L 294.822584 55.564937 
L 295.306372 55.564937 
L 295.427319 55.314929 
L 294.701637 53.818008 
L 294.822584 53.818008 
L 295.064478 54.068016 
L 295.064478 54.564906 
L 294.701637 54.564906 
L 294.338795 54.318023 
L 294.338795 54.068016 
L 294.459742 54.318023 
L 294.459742 54.814914 
L 294.701637 55.064921 
L 294.580689 55.064921 
L 294.338795 55.064921 
L 294.338795 55.064921 
L 294.338795 55.314929 
L 294.217848 55.81182 
L 294.338795 55.81182 
L 294.580689 55.314929 
L 294.459742 55.314929 
L 294.338795 55.314929 
L 294.701637 54.814914 
L 294.338795 54.814914 
L 294.580689 54.318023 
L 294.943531 54.814914 
L 295.185425 55.81182 
L 295.185425 56.561843 
L 294.943531 56.061827 
L 294.580689 54.564906 
L 294.701637 54.564906 
L 294.822584 56.311835 
L 294.701637 56.561843 
L 294.338795 55.564937 
L 294.338795 55.064921 
L 294.459742 55.064921 
L 294.580689 55.81182 
L 294.580689 55.564937 
L 294.701637 55.314929 
L 294.822584 55.564937 
L 294.580689 55.314929 
L 294.217848 55.064921 
L 294.338795 55.064921 
L 294.459742 55.564937 
L 294.701637 56.061827 
L 294.943531 56.061827 
L 295.064478 56.311835 
L 294.943531 56.311835 
L 294.822584 56.561843 
L 294.580689 56.311835 
L 294.701637 56.311835 
L 294.822584 56.311835 
L 294.701637 56.311835 
L 294.701637 55.81182 
L 294.822584 55.564937 
L 294.580689 55.314929 
L 294.217848 56.061827 
L 294.217848 56.561843 
L 294.338795 56.561843 
L 294.701637 56.311835 
L 294.580689 56.811851 
L 294.580689 56.811851 
L 294.580689 56.311835 
L 294.822584 55.564937 
L 294.580689 55.81182 
L 294.580689 56.061827 
L 294.822584 56.061827 
L 294.701637 56.061827 
L 294.701637 56.311835 
L 294.580689 56.561843 
L 294.217848 56.561843 
L 293.975954 56.311835 
L 294.096901 56.311835 
L 294.459742 55.81182 
L 294.217848 55.81182 
L 294.217848 56.811851 
L 294.217848 56.811851 
L 293.855007 55.564937 
L 293.975954 55.81182 
L 293.975954 55.564937 
L 294.096901 55.064921 
L 294.096901 55.064921 
L 293.613113 55.064921 
L 293.613113 54.814914 
L 293.73406 55.314929 
L 293.73406 55.564937 
L 294.217848 55.564937 
L 294.217848 55.314929 
L 293.975954 55.064921 
L 293.73406 55.064921 
L 293.855007 55.064921 
L 293.855007 55.564937 
L 293.73406 56.061827 
L 293.492166 56.561843 
L 293.250272 56.561843 
L 293.492166 56.561843 
L 293.613113 56.311835 
L 293.371219 55.564937 
L 293.73406 55.564937 
L 294.096901 56.811851 
L 293.975954 56.561843 
L 293.371219 55.81182 
L 293.250272 55.81182 
L 293.371219 55.81182 
L 293.492166 56.311835 
L 293.492166 56.311835 
L 293.008378 56.811851 
L 293.129325 56.811851 
L 293.250272 57.308741 
L 293.129325 57.558749 
L 293.008378 57.058733 
L 293.008378 57.058733 
L 293.008378 57.558749 
L 292.887431 57.558749 
L 292.887431 57.058733 
L 293.008378 56.811851 
L 293.129325 57.058733 
L 293.371219 58.058764 
L 293.371219 58.555655 
L 293.250272 59.05567 
L 293.371219 59.05567 
L 293.371219 57.808756 
L 293.371219 57.808756 
L 292.766484 58.308772 
L 292.766484 58.308772 
L 292.887431 58.308772 
L 293.008378 58.058764 
L 292.766484 58.805662 
L 292.766484 58.308772 
L 292.645537 58.058764 
L 293.008378 57.558749 
L 292.887431 57.808756 
L 292.52459 59.05567 
L 292.645537 58.805662 
L 292.766484 59.05567 
L 292.766484 59.802568 
L 292.52459 60.552592 
L 292.165017 60.552592 
L 292.403643 59.802568 
L 292.282696 60.552592 
L 292.645537 60.302584 
L 292.887431 60.802599 
L 292.887431 61.29949 
L 292.52459 61.799505 
L 292.282696 61.549497 
L 292.165017 62.049513 
L 292.403643 62.296396 
L 292.282696 62.546403 
L 292.04407 62.546403 
L 291.923123 62.049513 
L 292.282696 61.799505 
L 292.282696 61.799505 
L 292.403643 62.049513 
L 292.282696 62.049513 
L 292.165017 62.049513 
L 292.04407 62.296396 
L 291.923123 63.296427 
L 292.165017 63.296427 
L 292.165017 63.046419 
L 292.04407 62.296396 
L 292.165017 62.296396 
L 292.52459 62.796411 
L 292.52459 63.296427 
L 292.282696 63.543309 
L 292.04407 63.296427 
L 292.04407 62.546403 
L 292.04407 63.296427 
L 292.165017 63.046419 
L 292.403643 63.046419 
L 292.52459 63.543309 
L 292.282696 63.543309 
L 291.923123 64.043325 
L 292.04407 64.54334 
L 291.802176 63.543309 
L 292.282696 63.046419 
L 292.52459 63.296427 
L 292.766484 63.793317 
L 292.766484 64.293333 
L 292.887431 64.54334 
L 292.887431 64.043325 
L 292.766484 64.043325 
L 292.766484 64.54334 
L 293.008378 64.54334 
L 292.887431 64.293333 
L 292.645537 64.293333 
L 292.645537 65.290238 
L 292.403643 65.040231 
L 292.165017 65.040231 
L 292.52459 65.040231 
L 292.887431 65.290238 
L 292.282696 64.790223 
L 292.282696 64.54334 
L 292.403643 64.293333 
L 292.52459 64.54334 
L 292.52459 65.290238 
L 292.645537 66.537152 
L 292.403643 66.287144 
L 292.766484 65.790254 
L 292.887431 65.790254 
L 292.887431 65.790254 
L 292.887431 66.287144 
L 292.766484 66.78716 
L 292.766484 67.287175 
L 292.766484 67.037168 
L 292.887431 66.537152 
L 292.766484 67.037168 
L 292.887431 67.037168 
L 292.887431 67.287175 
L 292.766484 67.784066 
L 292.645537 67.784066 
L 293.008378 67.784066 
L 293.492166 67.534058 
L 293.008378 68.284081 
L 293.129325 68.780972 
L 293.371219 69.030979 
L 293.371219 69.030979 
L 293.371219 68.780972 
L 293.250272 68.780972 
L 293.129325 69.030979 
L 293.371219 69.781003 
L 293.250272 70.027885 
L 293.129325 69.530995 
L 292.887431 68.780972 
L 292.403643 68.780972 
L 291.802176 69.030979 
L 287.088511 69.030979 
L 285.277574 69.530995 
L 283.342421 70.527901 
L 281.28959 71.774814 
L 276.696872 75.265548 
L 274.523094 77.512492 
L 272.228369 80.753218 
L 269.69175 84.993974 
L 263.768614 94.222385 
L 255.19118 106.441514 
L 248.303737 118.663768 
L 246.009012 123.151407 
L 242.141975 130.382881 
L 238.516833 137.617481 
L 236.584949 140.858206 
L 234.770743 143.602041 
L 233.080754 145.598978 
L 228.488035 152.083554 
L 225.951416 155.074272 
L 225.225734 156.571193 
L 224.98384 157.568099 
L 224.624267 158.565005 
L 223.535744 161.061958 
L 223.414797 162.058863 
L 223.656691 162.805762 
L 224.019532 163.555785 
L 224.019532 164.052675 
L 223.656691 165.049581 
L 223.414797 166.296495 
L 223.414797 167.543408 
L 222.810062 169.540345 
L 223.29385 171.287275 
L 223.172903 172.034173 
L 222.447221 173.281086 
L 222.326274 174.528 
L 221.963433 175.274898 
L 221.479644 175.028016 
L 221.479644 175.774914 
L 221.361966 177.021827 
L 221.120072 177.771851 
L 221.120072 177.771851 
L 220.999125 177.521843 
L 220.757231 177.771851 
L 220.273443 179.018764 
L 220.273443 179.515655 
L 220.152496 179.765662 
L 220.152496 179.515655 
L 220.39439 180.512561 
L 220.273443 181.512592 
L 219.910602 182.25949 
L 220.152496 183.006388 
L 219.910602 183.006388 
L 219.063972 185.003325 
L 219.063972 185.003325 
L 219.063972 185.253333 
L 218.701131 185.253333 
L 218.701131 185.50334 
L 218.943025 185.750223 
L 219.063972 185.750223 
L 219.063972 186.000231 
L 219.305866 186.000231 
L 219.305866 186.250238 
L 218.701131 185.750223 
L 218.580184 186.250238 
L 218.580184 186.997137 
L 218.33829 186.750254 
L 218.099665 187.247144 
L 218.220612 187.74716 
L 218.459237 188.24405 
L 218.099665 188.744066 
L 218.33829 188.494058 
L 218.580184 188.994073 
L 218.459237 189.244081 
L 218.099665 189.490964 
L 217.857771 189.990979 
L 218.099665 190.737878 
L 218.220612 190.737878 
L 217.253036 190.737878 
L 217.253036 190.987885 
L 217.736824 190.987885 
L 218.099665 191.237893 
L 218.220612 191.737909 
L 217.978718 190.987885 
L 217.978718 191.237893 
L 217.736824 191.487901 
L 217.253036 191.487901 
L 217.253036 192.234799 
L 217.615877 192.734814 
L 217.615877 193.23483 
L 217.978718 192.734814 
L 217.978718 192.984822 
L 217.615877 193.73172 
L 217.253036 192.984822 
L 217.253036 193.981728 
L 217.857771 193.23483 
L 217.736824 192.984822 
L 217.132089 193.481713 
L 217.253036 193.981728 
L 217.49493 194.728626 
L 217.49493 194.728626 
L 217.011142 194.728626 
L 217.011142 194.728626 
L 217.132089 194.978634 
L 217.132089 195.47865 
L 216.6483 196.225548 
L 216.769247 195.728657 
L 217.011142 195.228642 
L 216.890194 195.728657 
L 217.011142 195.97554 
L 217.373983 195.47865 
L 217.253036 195.728657 
L 217.011142 196.475555 
L 216.527353 196.475555 
L 216.769247 196.475555 
L 217.011142 196.975571 
L 216.890194 196.975571 
L 216.527353 197.472461 
L 216.769247 197.222454 
L 217.253036 196.975571 
L 217.253036 196.725563 
L 217.132089 196.475555 
L 216.890194 196.475555 
L 217.011142 196.225548 
L 216.890194 196.225548 
L 216.769247 196.225548 
L 216.769247 196.475555 
L 216.164512 197.472461 
L 216.164512 197.222454 
L 216.6483 197.222454 
L 216.406406 197.972477 
L 216.285459 198.222485 
L 216.6483 197.472461 
L 216.406406 197.722469 
L 216.285459 197.222454 
L 216.285459 196.725563 
L 216.527353 196.475555 
L 216.406406 196.975571 
L 216.406406 198.222485 
L 216.164512 198.222485 
L 216.164512 197.972477 
L 216.406406 197.472461 
L 216.043565 198.222485 
L 216.164512 198.719375 
L 216.164512 199.21939 
L 216.527353 198.719375 
L 216.769247 198.969383 
L 216.527353 199.21939 
L 216.527353 199.21939 
L 216.527353 198.969383 
L 216.285459 198.969383 
L 216.043565 199.21939 
L 216.043565 199.469398 
L 216.406406 199.21939 
L 216.406406 198.719375 
L 216.285459 198.719375 
L 216.164512 199.21939 
L 216.285459 199.21939 
L 216.043565 199.21939 
L 216.043565 199.469398 
L 216.164512 199.966289 
L 216.043565 199.966289 
L 216.285459 199.469398 
L 216.285459 198.969383 
L 216.285459 198.969383 
L 216.527353 198.969383 
L 216.769247 199.469398 
L 216.890194 200.216296 
L 216.6483 200.216296 
L 216.406406 199.966289 
L 216.6483 198.969383 
L 216.406406 199.966289 
L 216.406406 200.716312 
L 216.043565 199.716281 
L 216.043565 200.216296 
L 216.285459 199.21939 
L 216.527353 199.469398 
L 216.6483 199.966289 
L 216.769247 199.966289 
L 216.769247 198.969383 
L 216.285459 199.21939 
L 216.285459 199.469398 
L 216.406406 200.466304 
L 217.011142 199.469398 
L 216.527353 200.466304 
L 216.6483 200.466304 
L 216.6483 200.216296 
L 216.406406 200.216296 
L 216.043565 200.716312 
L 216.285459 200.716312 
L 216.6483 200.466304 
L 216.769247 199.966289 
L 216.6483 199.21939 
L 216.769247 199.469398 
L 216.406406 199.716281 
L 216.164512 199.716281 
L 216.164512 199.716281 
" style="fill:none;stroke:#1f77b4;stroke-linecap:square;stroke-width:1.5;"/>
   </g>
   <g id="matplotlib.axis_1">
    <g id="xtick_1">
     <g id="line2d_2">
      <defs>
       <path d="M 0 0 
L 0 3.5 
" id="mfbca33e8a8" style="stroke:#000000;stroke-width:0.8;"/>
      </defs>
      <g>
       <use style="stroke:#000000;stroke-width:0.8;" x="99.185842" xlink:href="#mfbca33e8a8" y="307.584"/>
      </g>
     </g>
     <g id="text_1">
      <!-- −600 -->
      <defs>
       <path d="M 10.59375 35.5 
L 73.1875 35.5 
L 73.1875 27.203125 
L 10.59375 27.203125 
z
" id="DejaVuSans-8722"/>
       <path d="M 33.015625 40.375 
Q 26.375 40.375 22.484375 35.828125 
Q 18.609375 31.296875 18.609375 23.390625 
Q 18.609375 15.53125 22.484375 10.953125 
Q 26.375 6.390625 33.015625 6.390625 
Q 39.65625 6.390625 43.53125 10.953125 
Q 47.40625 15.53125 47.40625 23.390625 
Q 47.40625 31.296875 43.53125 35.828125 
Q 39.65625 40.375 33.015625 40.375 
z
M 52.59375 71.296875 
L 52.59375 62.3125 
Q 48.875 64.0625 45.09375 64.984375 
Q 41.3125 65.921875 37.59375 65.921875 
Q 27.828125 65.921875 22.671875 59.328125 
Q 17.53125 52.734375 16.796875 39.40625 
Q 19.671875 43.65625 24.015625 45.921875 
Q 28.375 48.1875 33.59375 48.1875 
Q 44.578125 48.1875 50.953125 41.515625 
Q 57.328125 34.859375 57.328125 23.390625 
Q 57.328125 12.15625 50.6875 5.359375 
Q 44.046875 -1.421875 33.015625 -1.421875 
Q 20.359375 -1.421875 13.671875 8.265625 
Q 6.984375 17.96875 6.984375 36.375 
Q 6.984375 53.65625 15.1875 63.9375 
Q 23.390625 74.21875 37.203125 74.21875 
Q 40.921875 74.21875 44.703125 73.484375 
Q 48.484375 72.75 52.59375 71.296875 
z
" id="DejaVuSans-54"/>
       <path d="M 31.78125 66.40625 
Q 24.171875 66.40625 20.328125 58.90625 
Q 16.5 51.421875 16.5 36.375 
Q 16.5 21.390625 20.328125 13.890625 
Q 24.171875 6.390625 31.78125 6.390625 
Q 39.453125 6.390625 43.28125 13.890625 
Q 47.125 21.390625 47.125 36.375 
Q 47.125 51.421875 43.28125 58.90625 
Q 39.453125 66.40625 31.78125 66.40625 
z
M 31.78125 74.21875 
Q 44.046875 74.21875 50.515625 64.515625 
Q 56.984375 54.828125 56.984375 36.375 
Q 56.984375 17.96875 50.515625 8.265625 
Q 44.046875 -1.421875 31.78125 -1.421875 
Q 19.53125 -1.421875 13.0625 8.265625 
Q 6.59375 17.96875 6.59375 36.375 
Q 6.59375 54.828125 13.0625 64.515625 
Q 19.53125 74.21875 31.78125 74.21875 
z
" id="DejaVuSans-48"/>
      </defs>
      <g transform="translate(85.452248 322.182437)scale(0.1 -0.1)">
       <use xlink:href="#DejaVuSans-8722"/>
       <use x="83.789062" xlink:href="#DejaVuSans-54"/>
       <use x="147.412109" xlink:href="#DejaVuSans-48"/>
       <use x="211.035156" xlink:href="#DejaVuSans-48"/>
      </g>
     </g>
    </g>
    <g id="xtick_2">
     <g id="line2d_3">
      <g>
       <use style="stroke:#000000;stroke-width:0.8;" x="164.562621" xlink:href="#mfbca33e8a8" y="307.584"/>
      </g>
     </g>
     <g id="text_2">
      <!-- −400 -->
      <defs>
       <path d="M 37.796875 64.3125 
L 12.890625 25.390625 
L 37.796875 25.390625 
z
M 35.203125 72.90625 
L 47.609375 72.90625 
L 47.609375 25.390625 
L 58.015625 25.390625 
L 58.015625 17.1875 
L 47.609375 17.1875 
L 47.609375 0 
L 37.796875 0 
L 37.796875 17.1875 
L 4.890625 17.1875 
L 4.890625 26.703125 
z
" id="DejaVuSans-52"/>
      </defs>
      <g transform="translate(150.829027 322.182437)scale(0.1 -0.1)">
       <use xlink:href="#DejaVuSans-8722"/>
       <use x="83.789062" xlink:href="#DejaVuSans-52"/>
       <use x="147.412109" xlink:href="#DejaVuSans-48"/>
       <use x="211.035156" xlink:href="#DejaVuSans-48"/>
      </g>
     </g>
    </g>
    <g id="xtick_3">
     <g id="line2d_4">
      <g>
       <use style="stroke:#000000;stroke-width:0.8;" x="229.9394" xlink:href="#mfbca33e8a8" y="307.584"/>
      </g>
     </g>
     <g id="text_3">
      <!-- −200 -->
      <defs>
       <path d="M 19.1875 8.296875 
L 53.609375 8.296875 
L 53.609375 0 
L 7.328125 0 
L 7.328125 8.296875 
Q 12.9375 14.109375 22.625 23.890625 
Q 32.328125 33.6875 34.8125 36.53125 
Q 39.546875 41.84375 41.421875 45.53125 
Q 43.3125 49.21875 43.3125 52.78125 
Q 43.3125 58.59375 39.234375 62.25 
Q 35.15625 65.921875 28.609375 65.921875 
Q 23.96875 65.921875 18.8125 64.3125 
Q 13.671875 62.703125 7.8125 59.421875 
L 7.8125 69.390625 
Q 13.765625 71.78125 18.9375 73 
Q 24.125 74.21875 28.421875 74.21875 
Q 39.75 74.21875 46.484375 68.546875 
Q 53.21875 62.890625 53.21875 53.421875 
Q 53.21875 48.921875 51.53125 44.890625 
Q 49.859375 40.875 45.40625 35.40625 
Q 44.1875 33.984375 37.640625 27.21875 
Q 31.109375 20.453125 19.1875 8.296875 
z
" id="DejaVuSans-50"/>
      </defs>
      <g transform="translate(216.205806 322.182437)scale(0.1 -0.1)">
       <use xlink:href="#DejaVuSans-8722"/>
       <use x="83.789062" xlink:href="#DejaVuSans-50"/>
       <use x="147.412109" xlink:href="#DejaVuSans-48"/>
       <use x="211.035156" xlink:href="#DejaVuSans-48"/>
      </g>
     </g>
    </g>
    <g id="xtick_4">
     <g id="line2d_5">
      <g>
       <use style="stroke:#000000;stroke-width:0.8;" x="295.316178" xlink:href="#mfbca33e8a8" y="307.584"/>
      </g>
     </g>
     <g id="text_4">
      <!-- 0 -->
      <g transform="translate(292.134928 322.182437)scale(0.1 -0.1)">
       <use xlink:href="#DejaVuSans-48"/>
      </g>
     </g>
    </g>
    <g id="xtick_5">
     <g id="line2d_6">
      <g>
       <use style="stroke:#000000;stroke-width:0.8;" x="360.692957" xlink:href="#mfbca33e8a8" y="307.584"/>
      </g>
     </g>
     <g id="text_5">
      <!-- 200 -->
      <g transform="translate(351.149207 322.182437)scale(0.1 -0.1)">
       <use xlink:href="#DejaVuSans-50"/>
       <use x="63.623047" xlink:href="#DejaVuSans-48"/>
       <use x="127.246094" xlink:href="#DejaVuSans-48"/>
      </g>
     </g>
    </g>
   </g>
   <g id="matplotlib.axis_2">
    <g id="ytick_1">
     <g id="line2d_7">
      <defs>
       <path d="M 0 0 
L -3.5 0 
" id="m815ba88ee4" style="stroke:#000000;stroke-width:0.8;"/>
      </defs>
      <g>
       <use style="stroke:#000000;stroke-width:0.8;" x="57.6" xlink:href="#m815ba88ee4" y="304.297648"/>
      </g>
     </g>
     <g id="text_6">
      <!-- −600 -->
      <g transform="translate(23.132812 308.096867)scale(0.1 -0.1)">
       <use xlink:href="#DejaVuSans-8722"/>
       <use x="83.789062" xlink:href="#DejaVuSans-54"/>
       <use x="147.412109" xlink:href="#DejaVuSans-48"/>
       <use x="211.035156" xlink:href="#DejaVuSans-48"/>
      </g>
     </g>
    </g>
    <g id="ytick_2">
     <g id="line2d_8">
      <g>
       <use style="stroke:#000000;stroke-width:0.8;" x="57.6" xlink:href="#m815ba88ee4" y="273.046679"/>
      </g>
     </g>
     <g id="text_7">
      <!-- −500 -->
      <defs>
       <path d="M 10.796875 72.90625 
L 49.515625 72.90625 
L 49.515625 64.59375 
L 19.828125 64.59375 
L 19.828125 46.734375 
Q 21.96875 47.46875 24.109375 47.828125 
Q 26.265625 48.1875 28.421875 48.1875 
Q 40.625 48.1875 47.75 41.5 
Q 54.890625 34.8125 54.890625 23.390625 
Q 54.890625 11.625 47.5625 5.09375 
Q 40.234375 -1.421875 26.90625 -1.421875 
Q 22.3125 -1.421875 17.546875 -0.640625 
Q 12.796875 0.140625 7.71875 1.703125 
L 7.71875 11.625 
Q 12.109375 9.234375 16.796875 8.0625 
Q 21.484375 6.890625 26.703125 6.890625 
Q 35.15625 6.890625 40.078125 11.328125 
Q 45.015625 15.765625 45.015625 23.390625 
Q 45.015625 31 40.078125 35.4375 
Q 35.15625 39.890625 26.703125 39.890625 
Q 22.75 39.890625 18.8125 39.015625 
Q 14.890625 38.140625 10.796875 36.28125 
z
" id="DejaVuSans-53"/>
      </defs>
      <g transform="translate(23.132812 276.845898)scale(0.1 -0.1)">
       <use xlink:href="#DejaVuSans-8722"/>
       <use x="83.789062" xlink:href="#DejaVuSans-53"/>
       <use x="147.412109" xlink:href="#DejaVuSans-48"/>
       <use x="211.035156" xlink:href="#DejaVuSans-48"/>
      </g>
     </g>
    </g>
    <g id="ytick_3">
     <g id="line2d_9">
      <g>
       <use style="stroke:#000000;stroke-width:0.8;" x="57.6" xlink:href="#m815ba88ee4" y="241.79571"/>
      </g>
     </g>
     <g id="text_8">
      <!-- −400 -->
      <g transform="translate(23.132812 245.594929)scale(0.1 -0.1)">
       <use xlink:href="#DejaVuSans-8722"/>
       <use x="83.789062" xlink:href="#DejaVuSans-52"/>
       <use x="147.412109" xlink:href="#DejaVuSans-48"/>
       <use x="211.035156" xlink:href="#DejaVuSans-48"/>
      </g>
     </g>
    </g>
    <g id="ytick_4">
     <g id="line2d_10">
      <g>
       <use style="stroke:#000000;stroke-width:0.8;" x="57.6" xlink:href="#m815ba88ee4" y="210.544742"/>
      </g>
     </g>
     <g id="text_9">
      <!-- −300 -->
      <defs>
       <path d="M 40.578125 39.3125 
Q 47.65625 37.796875 51.625 33 
Q 55.609375 28.21875 55.609375 21.1875 
Q 55.609375 10.40625 48.1875 4.484375 
Q 40.765625 -1.421875 27.09375 -1.421875 
Q 22.515625 -1.421875 17.65625 -0.515625 
Q 12.796875 0.390625 7.625 2.203125 
L 7.625 11.71875 
Q 11.71875 9.328125 16.59375 8.109375 
Q 21.484375 6.890625 26.8125 6.890625 
Q 36.078125 6.890625 40.9375 10.546875 
Q 45.796875 14.203125 45.796875 21.1875 
Q 45.796875 27.640625 41.28125 31.265625 
Q 36.765625 34.90625 28.71875 34.90625 
L 20.21875 34.90625 
L 20.21875 43.015625 
L 29.109375 43.015625 
Q 36.375 43.015625 40.234375 45.921875 
Q 44.09375 48.828125 44.09375 54.296875 
Q 44.09375 59.90625 40.109375 62.90625 
Q 36.140625 65.921875 28.71875 65.921875 
Q 24.65625 65.921875 20.015625 65.03125 
Q 15.375 64.15625 9.8125 62.3125 
L 9.8125 71.09375 
Q 15.4375 72.65625 20.34375 73.4375 
Q 25.25 74.21875 29.59375 74.21875 
Q 40.828125 74.21875 47.359375 69.109375 
Q 53.90625 64.015625 53.90625 55.328125 
Q 53.90625 49.265625 50.4375 45.09375 
Q 46.96875 40.921875 40.578125 39.3125 
z
" id="DejaVuSans-51"/>
      </defs>
      <g transform="translate(23.132812 214.34396)scale(0.1 -0.1)">
       <use xlink:href="#DejaVuSans-8722"/>
       <use x="83.789062" xlink:href="#DejaVuSans-51"/>
       <use x="147.412109" xlink:href="#DejaVuSans-48"/>
       <use x="211.035156" xlink:href="#DejaVuSans-48"/>
      </g>
     </g>
    </g>
    <g id="ytick_5">
     <g id="line2d_11">
      <g>
       <use style="stroke:#000000;stroke-width:0.8;" x="57.6" xlink:href="#m815ba88ee4" y="179.293773"/>
      </g>
     </g>
     <g id="text_10">
      <!-- −200 -->
      <g transform="translate(23.132812 183.092991)scale(0.1 -0.1)">
       <use xlink:href="#DejaVuSans-8722"/>
       <use x="83.789062" xlink:href="#DejaVuSans-50"/>
       <use x="147.412109" xlink:href="#DejaVuSans-48"/>
       <use x="211.035156" xlink:href="#DejaVuSans-48"/>
      </g>
     </g>
    </g>
    <g id="ytick_6">
     <g id="line2d_12">
      <g>
       <use style="stroke:#000000;stroke-width:0.8;" x="57.6" xlink:href="#m815ba88ee4" y="148.042804"/>
      </g>
     </g>
     <g id="text_11">
      <!-- −100 -->
      <defs>
       <path d="M 12.40625 8.296875 
L 28.515625 8.296875 
L 28.515625 63.921875 
L 10.984375 60.40625 
L 10.984375 69.390625 
L 28.421875 72.90625 
L 38.28125 72.90625 
L 38.28125 8.296875 
L 54.390625 8.296875 
L 54.390625 0 
L 12.40625 0 
z
" id="DejaVuSans-49"/>
      </defs>
      <g transform="translate(23.132812 151.842023)scale(0.1 -0.1)">
       <use xlink:href="#DejaVuSans-8722"/>
       <use x="83.789062" xlink:href="#DejaVuSans-49"/>
       <use x="147.412109" xlink:href="#DejaVuSans-48"/>
       <use x="211.035156" xlink:href="#DejaVuSans-48"/>
      </g>
     </g>
    </g>
    <g id="ytick_7">
     <g id="line2d_13">
      <g>
       <use style="stroke:#000000;stroke-width:0.8;" x="57.6" xlink:href="#m815ba88ee4" y="116.791835"/>
      </g>
     </g>
     <g id="text_12">
      <!-- 0 -->
      <g transform="translate(44.2375 120.591054)scale(0.1 -0.1)">
       <use xlink:href="#DejaVuSans-48"/>
      </g>
     </g>
    </g>
    <g id="ytick_8">
     <g id="line2d_14">
      <g>
       <use style="stroke:#000000;stroke-width:0.8;" x="57.6" xlink:href="#m815ba88ee4" y="85.540866"/>
      </g>
     </g>
     <g id="text_13">
      <!-- 100 -->
      <g transform="translate(31.5125 89.340085)scale(0.1 -0.1)">
       <use xlink:href="#DejaVuSans-49"/>
       <use x="63.623047" xlink:href="#DejaVuSans-48"/>
       <use x="127.246094" xlink:href="#DejaVuSans-48"/>
      </g>
     </g>
    </g>
    <g id="ytick_9">
     <g id="line2d_15">
      <g>
       <use style="stroke:#000000;stroke-width:0.8;" x="57.6" xlink:href="#m815ba88ee4" y="54.289897"/>
      </g>
     </g>
     <g id="text_14">
      <!-- 200 -->
      <g transform="translate(31.5125 58.089116)scale(0.1 -0.1)">
       <use xlink:href="#DejaVuSans-50"/>
       <use x="63.623047" xlink:href="#DejaVuSans-48"/>
       <use x="127.246094" xlink:href="#DejaVuSans-48"/>
      </g>
     </g>
    </g>
   </g>
   <g id="line2d_16">
    <path clip-path="url(#p5bdfd5ef41)" d="M 76.0464 292.640717 
L 272.669344 159.42808 
L 266.889163 154.592423 
L 196.493662 181.340137 
L 379.273 218.697922 
L 385.203637 221.753411 
L 173.647324 197.891769 
L 169.783728 210.381898 
L 293.653351 59.291149 
L 220.113819 180.959532 
L 216.686566 197.543562 
" style="fill:none;stroke:#ff0000;stroke-linecap:square;stroke-width:0.5;"/>
   </g>
   <g id="patch_3">
    <path d="M 57.6 307.584 
L 57.6 41.472 
" style="fill:none;stroke:#000000;stroke-linecap:square;stroke-linejoin:miter;stroke-width:0.8;"/>
   </g>
   <g id="patch_4">
    <path d="M 414.72 307.584 
L 414.72 41.472 
" style="fill:none;stroke:#000000;stroke-linecap:square;stroke-linejoin:miter;stroke-width:0.8;"/>
   </g>
   <g id="patch_5">
    <path d="M 57.6 307.584 
L 414.72 307.584 
" style="fill:none;stroke:#000000;stroke-linecap:square;stroke-linejoin:miter;stroke-width:0.8;"/>
   </g>
   <g id="patch_6">
    <path d="M 57.6 41.472 
L 414.72 41.472 
" style="fill:none;stroke:#000000;stroke-linecap:square;stroke-linejoin:miter;stroke-width:0.8;"/>
   </g>
   <g id="PathCollection_1">
    <defs>
     <path d="M 0 2.738613 
C 0.726289 2.738613 1.422928 2.450055 1.936492 1.936492 
C 2.450055 1.422928 2.738613 0.726289 2.738613 0 
C 2.738613 -0.726289 2.450055 -1.422928 1.936492 -1.936492 
C 1.422928 -2.450055 0.726289 -2.738613 0 -2.738613 
C -0.726289 -2.738613 -1.422928 -2.450055 -1.936492 -1.936492 
C -2.450055 -1.422928 -2.738613 -0.726289 -2.738613 0 
C -2.738613 0.726289 -2.450055 1.422928 -1.936492 1.936492 
C -1.422928 2.450055 -0.726289 2.738613 0 2.738613 
z
" id="m6d7b7318ca" style="stroke:#ff0000;"/>
    </defs>
    <g clip-path="url(#p5bdfd5ef41)">
     <use style="fill:#ff0000;stroke:#ff0000;" x="76.0464" xlink:href="#m6d7b7318ca" y="292.640717"/>
     <use style="fill:#ff0000;stroke:#ff0000;" x="272.669344" xlink:href="#m6d7b7318ca" y="159.42808"/>
     <use style="fill:#ff0000;stroke:#ff0000;" x="266.889163" xlink:href="#m6d7b7318ca" y="154.592423"/>
     <use style="fill:#ff0000;stroke:#ff0000;" x="196.493662" xlink:href="#m6d7b7318ca" y="181.340137"/>
     <use style="fill:#ff0000;stroke:#ff0000;" x="379.273" xlink:href="#m6d7b7318ca" y="218.697922"/>
     <use style="fill:#ff0000;stroke:#ff0000;" x="385.203637" xlink:href="#m6d7b7318ca" y="221.753411"/>
     <use style="fill:#ff0000;stroke:#ff0000;" x="173.647324" xlink:href="#m6d7b7318ca" y="197.891769"/>
     <use style="fill:#ff0000;stroke:#ff0000;" x="169.783728" xlink:href="#m6d7b7318ca" y="210.381898"/>
     <use style="fill:#ff0000;stroke:#ff0000;" x="293.653351" xlink:href="#m6d7b7318ca" y="59.291149"/>
     <use style="fill:#ff0000;stroke:#ff0000;" x="220.113819" xlink:href="#m6d7b7318ca" y="180.959532"/>
     <use style="fill:#ff0000;stroke:#ff0000;" x="216.686566" xlink:href="#m6d7b7318ca" y="197.543562"/>
    </g>
   </g>
   <g id="text_15">
    <!-- (91) Subject: s17, Known = True, Degree = 1, Duration = 0.1 -->
    <defs>
     <path d="M 31 75.875 
Q 24.46875 64.65625 21.28125 53.65625 
Q 18.109375 42.671875 18.109375 31.390625 
Q 18.109375 20.125 21.3125 9.0625 
Q 24.515625 -2 31 -13.1875 
L 23.1875 -13.1875 
Q 15.875 -1.703125 12.234375 9.375 
Q 8.59375 20.453125 8.59375 31.390625 
Q 8.59375 42.28125 12.203125 53.3125 
Q 15.828125 64.359375 23.1875 75.875 
z
" id="DejaVuSans-40"/>
     <path d="M 10.984375 1.515625 
L 10.984375 10.5 
Q 14.703125 8.734375 18.5 7.8125 
Q 22.3125 6.890625 25.984375 6.890625 
Q 35.75 6.890625 40.890625 13.453125 
Q 46.046875 20.015625 46.78125 33.40625 
Q 43.953125 29.203125 39.59375 26.953125 
Q 35.25 24.703125 29.984375 24.703125 
Q 19.046875 24.703125 12.671875 31.3125 
Q 6.296875 37.9375 6.296875 49.421875 
Q 6.296875 60.640625 12.9375 67.421875 
Q 19.578125 74.21875 30.609375 74.21875 
Q 43.265625 74.21875 49.921875 64.515625 
Q 56.59375 54.828125 56.59375 36.375 
Q 56.59375 19.140625 48.40625 8.859375 
Q 40.234375 -1.421875 26.421875 -1.421875 
Q 22.703125 -1.421875 18.890625 -0.6875 
Q 15.09375 0.046875 10.984375 1.515625 
z
M 30.609375 32.421875 
Q 37.25 32.421875 41.125 36.953125 
Q 45.015625 41.5 45.015625 49.421875 
Q 45.015625 57.28125 41.125 61.84375 
Q 37.25 66.40625 30.609375 66.40625 
Q 23.96875 66.40625 20.09375 61.84375 
Q 16.21875 57.28125 16.21875 49.421875 
Q 16.21875 41.5 20.09375 36.953125 
Q 23.96875 32.421875 30.609375 32.421875 
z
" id="DejaVuSans-57"/>
     <path d="M 8.015625 75.875 
L 15.828125 75.875 
Q 23.140625 64.359375 26.78125 53.3125 
Q 30.421875 42.28125 30.421875 31.390625 
Q 30.421875 20.453125 26.78125 9.375 
Q 23.140625 -1.703125 15.828125 -13.1875 
L 8.015625 -13.1875 
Q 14.5 -2 17.703125 9.0625 
Q 20.90625 20.125 20.90625 31.390625 
Q 20.90625 42.671875 17.703125 53.65625 
Q 14.5 64.65625 8.015625 75.875 
z
" id="DejaVuSans-41"/>
     <path id="DejaVuSans-32"/>
     <path d="M 53.515625 70.515625 
L 53.515625 60.890625 
Q 47.90625 63.578125 42.921875 64.890625 
Q 37.9375 66.21875 33.296875 66.21875 
Q 25.25 66.21875 20.875 63.09375 
Q 16.5 59.96875 16.5 54.203125 
Q 16.5 49.359375 19.40625 46.890625 
Q 22.3125 44.4375 30.421875 42.921875 
L 36.375 41.703125 
Q 47.40625 39.59375 52.65625 34.296875 
Q 57.90625 29 57.90625 20.125 
Q 57.90625 9.515625 50.796875 4.046875 
Q 43.703125 -1.421875 29.984375 -1.421875 
Q 24.8125 -1.421875 18.96875 -0.25 
Q 13.140625 0.921875 6.890625 3.21875 
L 6.890625 13.375 
Q 12.890625 10.015625 18.65625 8.296875 
Q 24.421875 6.59375 29.984375 6.59375 
Q 38.421875 6.59375 43.015625 9.90625 
Q 47.609375 13.234375 47.609375 19.390625 
Q 47.609375 24.75 44.3125 27.78125 
Q 41.015625 30.8125 33.5 32.328125 
L 27.484375 33.5 
Q 16.453125 35.6875 11.515625 40.375 
Q 6.59375 45.0625 6.59375 53.421875 
Q 6.59375 63.09375 13.40625 68.65625 
Q 20.21875 74.21875 32.171875 74.21875 
Q 37.3125 74.21875 42.625 73.28125 
Q 47.953125 72.359375 53.515625 70.515625 
z
" id="DejaVuSans-83"/>
     <path d="M 8.5 21.578125 
L 8.5 54.6875 
L 17.484375 54.6875 
L 17.484375 21.921875 
Q 17.484375 14.15625 20.5 10.265625 
Q 23.53125 6.390625 29.59375 6.390625 
Q 36.859375 6.390625 41.078125 11.03125 
Q 45.3125 15.671875 45.3125 23.6875 
L 45.3125 54.6875 
L 54.296875 54.6875 
L 54.296875 0 
L 45.3125 0 
L 45.3125 8.40625 
Q 42.046875 3.421875 37.71875 1 
Q 33.40625 -1.421875 27.6875 -1.421875 
Q 18.265625 -1.421875 13.375 4.4375 
Q 8.5 10.296875 8.5 21.578125 
z
M 31.109375 56 
z
" id="DejaVuSans-117"/>
     <path d="M 48.6875 27.296875 
Q 48.6875 37.203125 44.609375 42.84375 
Q 40.53125 48.484375 33.40625 48.484375 
Q 26.265625 48.484375 22.1875 42.84375 
Q 18.109375 37.203125 18.109375 27.296875 
Q 18.109375 17.390625 22.1875 11.75 
Q 26.265625 6.109375 33.40625 6.109375 
Q 40.53125 6.109375 44.609375 11.75 
Q 48.6875 17.390625 48.6875 27.296875 
z
M 18.109375 46.390625 
Q 20.953125 51.265625 25.265625 53.625 
Q 29.59375 56 35.59375 56 
Q 45.5625 56 51.78125 48.09375 
Q 58.015625 40.1875 58.015625 27.296875 
Q 58.015625 14.40625 51.78125 6.484375 
Q 45.5625 -1.421875 35.59375 -1.421875 
Q 29.59375 -1.421875 25.265625 0.953125 
Q 20.953125 3.328125 18.109375 8.203125 
L 18.109375 0 
L 9.078125 0 
L 9.078125 75.984375 
L 18.109375 75.984375 
z
" id="DejaVuSans-98"/>
     <path d="M 9.421875 54.6875 
L 18.40625 54.6875 
L 18.40625 -0.984375 
Q 18.40625 -11.421875 14.421875 -16.109375 
Q 10.453125 -20.796875 1.609375 -20.796875 
L -1.8125 -20.796875 
L -1.8125 -13.1875 
L 0.59375 -13.1875 
Q 5.71875 -13.1875 7.5625 -10.8125 
Q 9.421875 -8.453125 9.421875 -0.984375 
z
M 9.421875 75.984375 
L 18.40625 75.984375 
L 18.40625 64.59375 
L 9.421875 64.59375 
z
" id="DejaVuSans-106"/>
     <path d="M 56.203125 29.59375 
L 56.203125 25.203125 
L 14.890625 25.203125 
Q 15.484375 15.921875 20.484375 11.0625 
Q 25.484375 6.203125 34.421875 6.203125 
Q 39.59375 6.203125 44.453125 7.46875 
Q 49.3125 8.734375 54.109375 11.28125 
L 54.109375 2.78125 
Q 49.265625 0.734375 44.1875 -0.34375 
Q 39.109375 -1.421875 33.890625 -1.421875 
Q 20.796875 -1.421875 13.15625 6.1875 
Q 5.515625 13.8125 5.515625 26.8125 
Q 5.515625 40.234375 12.765625 48.109375 
Q 20.015625 56 32.328125 56 
Q 43.359375 56 49.78125 48.890625 
Q 56.203125 41.796875 56.203125 29.59375 
z
M 47.21875 32.234375 
Q 47.125 39.59375 43.09375 43.984375 
Q 39.0625 48.390625 32.421875 48.390625 
Q 24.90625 48.390625 20.390625 44.140625 
Q 15.875 39.890625 15.1875 32.171875 
z
" id="DejaVuSans-101"/>
     <path d="M 48.78125 52.59375 
L 48.78125 44.1875 
Q 44.96875 46.296875 41.140625 47.34375 
Q 37.3125 48.390625 33.40625 48.390625 
Q 24.65625 48.390625 19.8125 42.84375 
Q 14.984375 37.3125 14.984375 27.296875 
Q 14.984375 17.28125 19.8125 11.734375 
Q 24.65625 6.203125 33.40625 6.203125 
Q 37.3125 6.203125 41.140625 7.25 
Q 44.96875 8.296875 48.78125 10.40625 
L 48.78125 2.09375 
Q 45.015625 0.34375 40.984375 -0.53125 
Q 36.96875 -1.421875 32.421875 -1.421875 
Q 20.0625 -1.421875 12.78125 6.34375 
Q 5.515625 14.109375 5.515625 27.296875 
Q 5.515625 40.671875 12.859375 48.328125 
Q 20.21875 56 33.015625 56 
Q 37.15625 56 41.109375 55.140625 
Q 45.0625 54.296875 48.78125 52.59375 
z
" id="DejaVuSans-99"/>
     <path d="M 18.3125 70.21875 
L 18.3125 54.6875 
L 36.8125 54.6875 
L 36.8125 47.703125 
L 18.3125 47.703125 
L 18.3125 18.015625 
Q 18.3125 11.328125 20.140625 9.421875 
Q 21.96875 7.515625 27.59375 7.515625 
L 36.8125 7.515625 
L 36.8125 0 
L 27.59375 0 
Q 17.1875 0 13.234375 3.875 
Q 9.28125 7.765625 9.28125 18.015625 
L 9.28125 47.703125 
L 2.6875 47.703125 
L 2.6875 54.6875 
L 9.28125 54.6875 
L 9.28125 70.21875 
z
" id="DejaVuSans-116"/>
     <path d="M 11.71875 12.40625 
L 22.015625 12.40625 
L 22.015625 0 
L 11.71875 0 
z
M 11.71875 51.703125 
L 22.015625 51.703125 
L 22.015625 39.3125 
L 11.71875 39.3125 
z
" id="DejaVuSans-58"/>
     <path d="M 44.28125 53.078125 
L 44.28125 44.578125 
Q 40.484375 46.53125 36.375 47.5 
Q 32.28125 48.484375 27.875 48.484375 
Q 21.1875 48.484375 17.84375 46.4375 
Q 14.5 44.390625 14.5 40.28125 
Q 14.5 37.15625 16.890625 35.375 
Q 19.28125 33.59375 26.515625 31.984375 
L 29.59375 31.296875 
Q 39.15625 29.25 43.1875 25.515625 
Q 47.21875 21.78125 47.21875 15.09375 
Q 47.21875 7.46875 41.1875 3.015625 
Q 35.15625 -1.421875 24.609375 -1.421875 
Q 20.21875 -1.421875 15.453125 -0.5625 
Q 10.6875 0.296875 5.421875 2 
L 5.421875 11.28125 
Q 10.40625 8.6875 15.234375 7.390625 
Q 20.0625 6.109375 24.8125 6.109375 
Q 31.15625 6.109375 34.5625 8.28125 
Q 37.984375 10.453125 37.984375 14.40625 
Q 37.984375 18.0625 35.515625 20.015625 
Q 33.0625 21.96875 24.703125 23.78125 
L 21.578125 24.515625 
Q 13.234375 26.265625 9.515625 29.90625 
Q 5.8125 33.546875 5.8125 39.890625 
Q 5.8125 47.609375 11.28125 51.796875 
Q 16.75 56 26.8125 56 
Q 31.78125 56 36.171875 55.265625 
Q 40.578125 54.546875 44.28125 53.078125 
z
" id="DejaVuSans-115"/>
     <path d="M 8.203125 72.90625 
L 55.078125 72.90625 
L 55.078125 68.703125 
L 28.609375 0 
L 18.3125 0 
L 43.21875 64.59375 
L 8.203125 64.59375 
z
" id="DejaVuSans-55"/>
     <path d="M 11.71875 12.40625 
L 22.015625 12.40625 
L 22.015625 4 
L 14.015625 -11.625 
L 7.71875 -11.625 
L 11.71875 4 
z
" id="DejaVuSans-44"/>
     <path d="M 9.8125 72.90625 
L 19.671875 72.90625 
L 19.671875 42.09375 
L 52.390625 72.90625 
L 65.09375 72.90625 
L 28.90625 38.921875 
L 67.671875 0 
L 54.6875 0 
L 19.671875 35.109375 
L 19.671875 0 
L 9.8125 0 
z
" id="DejaVuSans-75"/>
     <path d="M 54.890625 33.015625 
L 54.890625 0 
L 45.90625 0 
L 45.90625 32.71875 
Q 45.90625 40.484375 42.875 44.328125 
Q 39.84375 48.1875 33.796875 48.1875 
Q 26.515625 48.1875 22.3125 43.546875 
Q 18.109375 38.921875 18.109375 30.90625 
L 18.109375 0 
L 9.078125 0 
L 9.078125 54.6875 
L 18.109375 54.6875 
L 18.109375 46.1875 
Q 21.34375 51.125 25.703125 53.5625 
Q 30.078125 56 35.796875 56 
Q 45.21875 56 50.046875 50.171875 
Q 54.890625 44.34375 54.890625 33.015625 
z
" id="DejaVuSans-110"/>
     <path d="M 30.609375 48.390625 
Q 23.390625 48.390625 19.1875 42.75 
Q 14.984375 37.109375 14.984375 27.296875 
Q 14.984375 17.484375 19.15625 11.84375 
Q 23.34375 6.203125 30.609375 6.203125 
Q 37.796875 6.203125 41.984375 11.859375 
Q 46.1875 17.53125 46.1875 27.296875 
Q 46.1875 37.015625 41.984375 42.703125 
Q 37.796875 48.390625 30.609375 48.390625 
z
M 30.609375 56 
Q 42.328125 56 49.015625 48.375 
Q 55.71875 40.765625 55.71875 27.296875 
Q 55.71875 13.875 49.015625 6.21875 
Q 42.328125 -1.421875 30.609375 -1.421875 
Q 18.84375 -1.421875 12.171875 6.21875 
Q 5.515625 13.875 5.515625 27.296875 
Q 5.515625 40.765625 12.171875 48.375 
Q 18.84375 56 30.609375 56 
z
" id="DejaVuSans-111"/>
     <path d="M 4.203125 54.6875 
L 13.1875 54.6875 
L 24.421875 12.015625 
L 35.59375 54.6875 
L 46.1875 54.6875 
L 57.421875 12.015625 
L 68.609375 54.6875 
L 77.59375 54.6875 
L 63.28125 0 
L 52.6875 0 
L 40.921875 44.828125 
L 29.109375 0 
L 18.5 0 
z
" id="DejaVuSans-119"/>
     <path d="M 10.59375 45.40625 
L 73.1875 45.40625 
L 73.1875 37.203125 
L 10.59375 37.203125 
z
M 10.59375 25.484375 
L 73.1875 25.484375 
L 73.1875 17.1875 
L 10.59375 17.1875 
z
" id="DejaVuSans-61"/>
     <path d="M -0.296875 72.90625 
L 61.375 72.90625 
L 61.375 64.59375 
L 35.5 64.59375 
L 35.5 0 
L 25.59375 0 
L 25.59375 64.59375 
L -0.296875 64.59375 
z
" id="DejaVuSans-84"/>
     <path d="M 41.109375 46.296875 
Q 39.59375 47.171875 37.8125 47.578125 
Q 36.03125 48 33.890625 48 
Q 26.265625 48 22.1875 43.046875 
Q 18.109375 38.09375 18.109375 28.8125 
L 18.109375 0 
L 9.078125 0 
L 9.078125 54.6875 
L 18.109375 54.6875 
L 18.109375 46.1875 
Q 20.953125 51.171875 25.484375 53.578125 
Q 30.03125 56 36.53125 56 
Q 37.453125 56 38.578125 55.875 
Q 39.703125 55.765625 41.0625 55.515625 
z
" id="DejaVuSans-114"/>
     <path d="M 19.671875 64.796875 
L 19.671875 8.109375 
L 31.59375 8.109375 
Q 46.6875 8.109375 53.6875 14.9375 
Q 60.6875 21.78125 60.6875 36.53125 
Q 60.6875 51.171875 53.6875 57.984375 
Q 46.6875 64.796875 31.59375 64.796875 
z
M 9.8125 72.90625 
L 30.078125 72.90625 
Q 51.265625 72.90625 61.171875 64.09375 
Q 71.09375 55.28125 71.09375 36.53125 
Q 71.09375 17.671875 61.125 8.828125 
Q 51.171875 0 30.078125 0 
L 9.8125 0 
z
" id="DejaVuSans-68"/>
     <path d="M 45.40625 27.984375 
Q 45.40625 37.75 41.375 43.109375 
Q 37.359375 48.484375 30.078125 48.484375 
Q 22.859375 48.484375 18.828125 43.109375 
Q 14.796875 37.75 14.796875 27.984375 
Q 14.796875 18.265625 18.828125 12.890625 
Q 22.859375 7.515625 30.078125 7.515625 
Q 37.359375 7.515625 41.375 12.890625 
Q 45.40625 18.265625 45.40625 27.984375 
z
M 54.390625 6.78125 
Q 54.390625 -7.171875 48.1875 -13.984375 
Q 42 -20.796875 29.203125 -20.796875 
Q 24.46875 -20.796875 20.265625 -20.09375 
Q 16.0625 -19.390625 12.109375 -17.921875 
L 12.109375 -9.1875 
Q 16.0625 -11.328125 19.921875 -12.34375 
Q 23.78125 -13.375 27.78125 -13.375 
Q 36.625 -13.375 41.015625 -8.765625 
Q 45.40625 -4.15625 45.40625 5.171875 
L 45.40625 9.625 
Q 42.625 4.78125 38.28125 2.390625 
Q 33.9375 0 27.875 0 
Q 17.828125 0 11.671875 7.65625 
Q 5.515625 15.328125 5.515625 27.984375 
Q 5.515625 40.671875 11.671875 48.328125 
Q 17.828125 56 27.875 56 
Q 33.9375 56 38.28125 53.609375 
Q 42.625 51.21875 45.40625 46.390625 
L 45.40625 54.6875 
L 54.390625 54.6875 
z
" id="DejaVuSans-103"/>
     <path d="M 34.28125 27.484375 
Q 23.390625 27.484375 19.1875 25 
Q 14.984375 22.515625 14.984375 16.5 
Q 14.984375 11.71875 18.140625 8.90625 
Q 21.296875 6.109375 26.703125 6.109375 
Q 34.1875 6.109375 38.703125 11.40625 
Q 43.21875 16.703125 43.21875 25.484375 
L 43.21875 27.484375 
z
M 52.203125 31.203125 
L 52.203125 0 
L 43.21875 0 
L 43.21875 8.296875 
Q 40.140625 3.328125 35.546875 0.953125 
Q 30.953125 -1.421875 24.3125 -1.421875 
Q 15.921875 -1.421875 10.953125 3.296875 
Q 6 8.015625 6 15.921875 
Q 6 25.140625 12.171875 29.828125 
Q 18.359375 34.515625 30.609375 34.515625 
L 43.21875 34.515625 
L 43.21875 35.40625 
Q 43.21875 41.609375 39.140625 45 
Q 35.0625 48.390625 27.6875 48.390625 
Q 23 48.390625 18.546875 47.265625 
Q 14.109375 46.140625 10.015625 43.890625 
L 10.015625 52.203125 
Q 14.9375 54.109375 19.578125 55.046875 
Q 24.21875 56 28.609375 56 
Q 40.484375 56 46.34375 49.84375 
Q 52.203125 43.703125 52.203125 31.203125 
z
" id="DejaVuSans-97"/>
     <path d="M 9.421875 54.6875 
L 18.40625 54.6875 
L 18.40625 0 
L 9.421875 0 
z
M 9.421875 75.984375 
L 18.40625 75.984375 
L 18.40625 64.59375 
L 9.421875 64.59375 
z
" id="DejaVuSans-105"/>
     <path d="M 10.6875 12.40625 
L 21 12.40625 
L 21 0 
L 10.6875 0 
z
" id="DejaVuSans-46"/>
    </defs>
    <g transform="translate(51.733125 35.472)scale(0.12 -0.12)">
     <use xlink:href="#DejaVuSans-40"/>
     <use x="39.013672" xlink:href="#DejaVuSans-57"/>
     <use x="102.636719" xlink:href="#DejaVuSans-49"/>
     <use x="166.259766" xlink:href="#DejaVuSans-41"/>
     <use x="205.273438" xlink:href="#DejaVuSans-32"/>
     <use x="237.060547" xlink:href="#DejaVuSans-83"/>
     <use x="300.537109" xlink:href="#DejaVuSans-117"/>
     <use x="363.916016" xlink:href="#DejaVuSans-98"/>
     <use x="427.392578" xlink:href="#DejaVuSans-106"/>
     <use x="455.175781" xlink:href="#DejaVuSans-101"/>
     <use x="516.699219" xlink:href="#DejaVuSans-99"/>
     <use x="571.679688" xlink:href="#DejaVuSans-116"/>
     <use x="610.888672" xlink:href="#DejaVuSans-58"/>
     <use x="644.580078" xlink:href="#DejaVuSans-32"/>
     <use x="676.367188" xlink:href="#DejaVuSans-115"/>
     <use x="728.466797" xlink:href="#DejaVuSans-49"/>
     <use x="792.089844" xlink:href="#DejaVuSans-55"/>
     <use x="855.712891" xlink:href="#DejaVuSans-44"/>
     <use x="887.5" xlink:href="#DejaVuSans-32"/>
     <use x="919.287109" xlink:href="#DejaVuSans-75"/>
     <use x="984.863281" xlink:href="#DejaVuSans-110"/>
     <use x="1048.242188" xlink:href="#DejaVuSans-111"/>
     <use x="1109.423828" xlink:href="#DejaVuSans-119"/>
     <use x="1191.210938" xlink:href="#DejaVuSans-110"/>
     <use x="1254.589844" xlink:href="#DejaVuSans-32"/>
     <use x="1286.376953" xlink:href="#DejaVuSans-61"/>
     <use x="1370.166016" xlink:href="#DejaVuSans-32"/>
     <use x="1401.953125" xlink:href="#DejaVuSans-84"/>
     <use x="1462.818359" xlink:href="#DejaVuSans-114"/>
     <use x="1503.931641" xlink:href="#DejaVuSans-117"/>
     <use x="1567.310547" xlink:href="#DejaVuSans-101"/>
     <use x="1628.833984" xlink:href="#DejaVuSans-44"/>
     <use x="1660.621094" xlink:href="#DejaVuSans-32"/>
     <use x="1692.408203" xlink:href="#DejaVuSans-68"/>
     <use x="1769.410156" xlink:href="#DejaVuSans-101"/>
     <use x="1830.933594" xlink:href="#DejaVuSans-103"/>
     <use x="1894.410156" xlink:href="#DejaVuSans-114"/>
     <use x="1935.492188" xlink:href="#DejaVuSans-101"/>
     <use x="1997.015625" xlink:href="#DejaVuSans-101"/>
     <use x="2058.539062" xlink:href="#DejaVuSans-32"/>
     <use x="2090.326172" xlink:href="#DejaVuSans-61"/>
     <use x="2174.115234" xlink:href="#DejaVuSans-32"/>
     <use x="2205.902344" xlink:href="#DejaVuSans-49"/>
     <use x="2269.525391" xlink:href="#DejaVuSans-44"/>
     <use x="2301.3125" xlink:href="#DejaVuSans-32"/>
     <use x="2333.099609" xlink:href="#DejaVuSans-68"/>
     <use x="2410.101562" xlink:href="#DejaVuSans-117"/>
     <use x="2473.480469" xlink:href="#DejaVuSans-114"/>
     <use x="2514.59375" xlink:href="#DejaVuSans-97"/>
     <use x="2575.873047" xlink:href="#DejaVuSans-116"/>
     <use x="2615.082031" xlink:href="#DejaVuSans-105"/>
     <use x="2642.865234" xlink:href="#DejaVuSans-111"/>
     <use x="2704.046875" xlink:href="#DejaVuSans-110"/>
     <use x="2767.425781" xlink:href="#DejaVuSans-32"/>
     <use x="2799.212891" xlink:href="#DejaVuSans-61"/>
     <use x="2883.001953" xlink:href="#DejaVuSans-32"/>
     <use x="2914.789062" xlink:href="#DejaVuSans-48"/>
     <use x="2978.412109" xlink:href="#DejaVuSans-46"/>
     <use x="3010.199219" xlink:href="#DejaVuSans-49"/>
    </g>
   </g>
  </g>
 </g>
 <defs>
  <clipPath id="p5bdfd5ef41">
   <rect height="266.112" width="357.12" x="57.6" y="41.472"/>
  </clipPath>
 </defs>
</svg>
