<?xml version="1.0" encoding="utf-8" standalone="no"?>
<!DOCTYPE svg PUBLIC "-//W3C//DTD SVG 1.1//EN"
  "http://www.w3.org/Graphics/SVG/1.1/DTD/svg11.dtd">
<!-- Created with matplotlib (https://matplotlib.org/) -->
<svg height="345.6pt" version="1.1" viewBox="0 0 460.8 345.6" width="460.8pt" xmlns="http://www.w3.org/2000/svg" xmlns:xlink="http://www.w3.org/1999/xlink">
 <defs>
  <style type="text/css">
*{stroke-linecap:butt;stroke-linejoin:round;}
  </style>
 </defs>
 <g id="figure_1">
  <g id="patch_1">
   <path d="M 0 345.6 
L 460.8 345.6 
L 460.8 0 
L 0 0 
z
" style="fill:#ffffff;"/>
  </g>
  <g id="axes_1">
   <g id="patch_2">
    <path d="M 57.6 307.584 
L 414.72 307.584 
L 414.72 41.472 
L 57.6 41.472 
z
" style="fill:#ffffff;"/>
   </g>
   <g id="line2d_1">
    <path clip-path="url(#pb2d7e120b8)" d="M 245.300007 279.342925 
L 245.85684 279.342925 
L 245.85684 279.342925 
L 246.132604 279.861566 
L 245.85684 280.124087 
L 245.575772 280.642727 
L 245.575772 280.642727 
L 247.240966 280.642727 
L 247.516731 280.905249 
L 246.408369 281.423889 
L 246.684134 281.68641 
L 247.240966 281.94573 
L 247.516731 281.68641 
L 247.240966 281.423889 
L 246.408369 282.20505 
L 246.408369 282.20505 
L 247.240966 282.467572 
L 247.516731 283.248734 
L 247.240966 283.767374 
L 247.240966 283.508054 
L 248.06826 282.986212 
L 248.900857 282.986212 
L 248.625093 284.029895 
L 247.792496 285.070377 
L 247.792496 285.070377 
L 248.349328 285.592219 
L 248.625093 285.329697 
L 248.625093 285.329697 
L 248.625093 285.851539 
L 248.900857 285.851539 
L 248.900857 285.329697 
L 248.900857 285.592219 
L 248.349328 285.592219 
L 248.349328 285.851539 
L 248.900857 286.37338 
L 249.45769 286.6327 
L 250.284984 286.6327 
L 250.284984 287.154542 
L 250.009219 287.154542 
L 250.009219 286.89202 
L 250.566052 286.6327 
L 251.117581 287.154542 
L 252.501707 287.154542 
L 252.501707 287.413862 
L 251.393346 287.935704 
L 250.841816 287.673182 
L 250.841816 287.154542 
L 251.674413 287.154542 
L 253.334304 289.238707 
L 253.05854 289.757347 
L 253.05854 288.976185 
L 253.334304 288.976185 
L 253.610069 289.498027 
L 253.334304 290.019868 
L 253.05854 290.279189 
L 253.05854 290.538509 
L 253.334304 290.538509 
L 253.885834 290.279189 
L 254.166902 291.31967 
L 253.885834 290.80103 
L 253.334304 290.279189 
L 252.777472 290.279189 
L 252.777472 291.06035 
L 253.334304 291.582192 
L 252.777472 292.622673 
L 253.610069 291.841512 
L 253.334304 291.582192 
L 252.777472 291.31967 
L 252.777472 291.31967 
L 253.05854 291.841512 
L 253.334304 292.100832 
L 253.885834 291.841512 
L 254.166902 291.841512 
L 253.885834 292.363353 
L 253.05854 292.881994 
L 252.501707 293.663155 
L 252.777472 293.925677 
L 253.610069 294.184997 
L 254.442666 294.184997 
L 254.718431 294.444317 
L 254.718431 294.706838 
L 254.994196 294.706838 
L 255.275263 294.184997 
L 255.275263 293.925677 
L 254.994196 293.925677 
L 254.994196 294.184997 
L 257.210919 295.488 
L 256.935154 295.225478 
L 256.935154 294.706838 
L 257.767752 294.184997 
L 258.595046 294.184997 
L 256.383625 294.184997 
L 256.102557 294.444317 
L 255.826793 294.444317 
L 255.826793 294.444317 
L 256.102557 294.184997 
L 256.935154 294.184997 
L 257.486684 293.925677 
L 257.210919 293.925677 
L 255.826793 293.403835 
L 255.551028 292.881994 
L 255.551028 292.622673 
L 256.102557 293.144515 
L 256.102557 292.881994 
L 255.826793 291.841512 
L 256.102557 292.100832 
L 256.383625 292.622673 
L 256.65939 292.100832 
L 256.102557 292.100832 
L 255.551028 292.363353 
L 255.826793 292.622673 
L 256.102557 292.363353 
L 255.551028 291.841512 
L 255.551028 292.363353 
L 255.275263 292.622673 
L 254.994196 291.841512 
L 255.275263 290.80103 
L 255.551028 290.279189 
L 255.826793 290.019868 
L 256.65939 289.757347 
L 256.935154 289.498027 
L 256.65939 289.498027 
L 256.65939 289.757347 
L 257.210919 289.498027 
L 256.935154 288.976185 
L 256.935154 289.498027 
L 257.486684 290.019868 
L 258.043516 290.019868 
L 258.043516 289.757347 
L 256.935154 289.238707 
L 256.65939 288.976185 
L 257.210919 288.716865 
L 258.319281 288.716865 
L 258.319281 289.757347 
L 257.767752 290.279189 
L 257.767752 290.538509 
L 257.767752 289.238707 
L 257.486684 289.238707 
L 256.65939 289.757347 
L 256.65939 290.019868 
L 257.486684 289.238707 
L 258.043516 288.976185 
L 258.319281 288.976185 
L 258.043516 288.976185 
L 258.043516 288.716865 
L 258.876113 288.195024 
L 259.703407 287.935704 
L 259.703407 287.673182 
L 258.595046 287.673182 
L 257.486684 287.935704 
L 257.486684 287.673182 
L 257.767752 287.413862 
L 257.767752 287.673182 
L 257.767752 287.413862 
L 258.043516 287.673182 
L 258.319281 287.413862 
L 258.595046 286.37338 
L 258.595046 286.110859 
L 258.319281 286.110859 
L 258.043516 286.6327 
L 257.210919 287.935704 
L 257.210919 288.195024 
L 257.767752 287.673182 
L 258.319281 286.89202 
L 258.876113 286.37338 
L 259.427643 286.110859 
L 259.703407 286.110859 
L 259.703407 286.6327 
L 260.26024 287.673182 
L 259.703407 288.195024 
L 258.876113 288.457545 
L 258.876113 288.195024 
L 259.427643 287.413862 
L 259.984475 286.89202 
L 259.427643 286.37338 
L 260.26024 285.592219 
L 260.811769 285.592219 
L 260.536004 286.6327 
L 259.984475 287.673182 
L 259.984475 287.673182 
L 259.984475 286.6327 
L 259.427643 285.851539 
L 259.984475 285.851539 
L 261.368602 286.37338 
L 261.920131 287.154542 
L 261.368602 288.195024 
L 261.644366 288.457545 
L 261.644366 288.716865 
L 260.536004 288.716865 
L 260.536004 288.457545 
L 261.644366 288.457545 
L 262.195896 288.976185 
L 262.195896 289.498027 
L 261.920131 289.498027 
L 261.920131 289.238707 
L 261.920131 289.238707 
L 261.368602 289.498027 
L 261.368602 289.757347 
L 261.644366 289.238707 
L 261.644366 288.457545 
L 261.087534 288.195024 
L 260.536004 288.457545 
L 260.811769 288.716865 
L 262.752728 288.716865 
L 262.752728 289.238707 
L 261.920131 290.019868 
L 261.368602 290.019868 
L 260.811769 289.238707 
L 260.536004 288.457545 
L 260.811769 288.457545 
L 261.087534 288.976185 
L 262.752728 289.498027 
L 262.752728 289.498027 
L 262.752728 288.457545 
L 262.195896 287.154542 
L 260.26024 287.154542 
L 259.151878 286.6327 
L 257.767752 285.329697 
L 256.383625 283.767374 
L 254.442666 281.94573 
L 251.393346 279.602245 
L 243.915881 272.049949 
L 240.039266 267.622299 
L 235.048987 263.457171 
L 230.339775 259.288841 
L 226.46316 254.601871 
L 223.694907 249.13374 
L 220.921351 242.625126 
L 217.877334 236.635153 
L 214.552248 231.685662 
L 212.05976 226.480052 
L 210.399869 221.008719 
L 208.45891 212.937782 
L 207.626313 209.291294 
L 207.074784 205.385486 
L 205.966422 202.260839 
L 204.582296 199.654833 
L 202.641337 195.489704 
L 201.532975 194.449223 
L 200.700378 193.927381 
L 200.700378 193.40554 
L 200.981446 193.14622 
L 201.532975 192.886899 
L 201.532975 193.668061 
L 201.808739 194.449223 
L 200.424613 197.573869 
L 200.700378 198.355031 
L 200.424613 199.395513 
L 200.424613 200.698516 
L 200.981446 201.479678 
L 201.808739 201.738998 
L 202.365572 201.738998 
L 202.365572 201.738998 
L 202.365572 202.001519 
L 202.089807 202.260839 
L 201.808739 202.260839 
L 202.089807 202.001519 
L 202.641337 201.738998 
L 202.917101 201.479678 
L 202.917101 201.479678 
L 203.192866 201.738998 
L 203.192866 202.260839 
L 203.192866 202.001519 
L 202.917101 201.738998 
L 203.192866 201.479678 
L 203.749698 201.479678 
L 203.749698 202.001519 
L 204.301228 202.001519 
L 204.301228 202.001519 
L 204.85806 201.479678 
L 205.409589 201.479678 
L 205.966422 203.301321 
L 205.690657 203.301321 
L 204.85806 203.042001 
L 204.301228 203.042001 
L 204.301228 203.301321 
L 204.582296 203.823163 
L 204.85806 204.082483 
L 205.690657 204.082483 
L 205.966422 203.301321 
L 205.690657 202.520159 
L 205.409589 202.520159 
L 205.409589 202.782681 
L 205.690657 202.782681 
L 205.690657 202.520159 
L 206.242187 201.479678 
L 206.242187 202.001519 
L 205.690657 203.042001 
L 205.409589 203.823163 
L 205.409589 203.823163 
L 205.966422 204.082483 
L 206.517951 204.604324 
L 206.517951 204.604324 
L 206.799019 204.345004 
L 206.242187 204.863644 
L 206.517951 205.126166 
L 206.799019 204.863644 
L 207.350548 204.863644 
L 207.902078 205.385486 
L 207.626313 205.385486 
L 206.517951 204.863644 
L 206.242187 204.604324 
L 206.517951 204.604324 
L 206.799019 205.126166 
L 206.799019 205.907327 
L 207.074784 205.644806 
L 207.626313 205.385486 
L 207.074784 204.863644 
L 208.183146 204.863644 
L 208.45891 204.604324 
L 209.010439 204.863644 
L 209.291507 205.126166 
L 209.843037 205.126166 
L 208.734675 205.126166 
L 208.734675 205.126166 
L 209.010439 204.863644 
L 209.291507 204.345004 
L 209.010439 204.082483 
L 209.010439 204.082483 
L 209.291507 204.604324 
L 209.567272 204.863644 
L 210.118801 204.863644 
L 210.399869 204.345004 
L 210.399869 204.082483 
L 210.118801 204.082483 
L 209.843037 204.604324 
L 209.567272 204.345004 
L 209.843037 203.823163 
L 210.399869 203.042001 
L 210.675634 203.042001 
L 210.118801 202.782681 
L 209.567272 201.738998 
L 209.010439 199.917354 
L 208.183146 198.355031 
L 199.592016 189.240411 
L 195.163872 184.553441 
L 189.897828 179.60395 
L 184.080254 173.613977 
L 178.819513 166.846044 
L 167.735895 151.219609 
L 162.475154 143.148673 
L 157.490178 135.074535 
L 153.613563 127.262918 
L 150.564242 119.969942 
L 148.071754 113.461328 
L 145.579266 107.730675 
L 144.195139 102.003224 
L 143.086778 96.794412 
L 141.697348 91.326281 
L 140.594289 85.858149 
L 140.037457 80.908658 
L 140.037457 77.26217 
L 139.761692 74.137523 
L 139.761692 70.753556 
L 140.313222 67.107068 
L 141.145819 64.504263 
L 141.978416 62.420098 
L 143.362542 60.076613 
L 144.470904 57.733128 
L 144.746669 55.911485 
L 144.746669 54.608482 
L 148.347519 53.568 
L 148.904351 54.349162 
L 149.455881 57.211287 
L 148.904351 60.857775 
L 149.455881 62.160778 
L 150.00741 62.94194 
L 150.00741 63.46058 
L 149.455881 64.504263 
L 149.455881 65.807266 
L 148.904351 67.88823 
L 148.071754 68.931913 
L 147.239157 69.450553 
L 147.239157 69.972395 
L 147.514922 69.972395 
L 147.239157 70.231715 
L 146.130795 70.231715 
L 145.579266 69.972395 
L 145.855031 69.450553 
L 146.40656 69.191233 
L 147.514922 68.150751 
L 148.071754 67.88823 
L 148.347519 67.88823 
L 147.795989 67.62891 
L 147.514922 67.107068 
L 147.795989 66.588428 
L 148.071754 66.588428 
L 148.623283 66.847748 
L 149.731645 66.325906 
L 150.00741 66.847748 
L 149.455881 67.62891 
L 149.180116 67.36959 
L 148.904351 66.847748 
L 148.904351 66.325906 
L 149.180116 66.066586 
L 149.455881 66.066586 
L 149.455881 67.107068 
L 149.731645 68.410071 
L 150.00741 68.669391 
L 150.564242 68.669391 
L 150.840007 68.150751 
L 150.00741 67.88823 
L 149.731645 67.62891 
L 149.731645 67.36959 
L 150.00741 67.36959 
L 150.00741 67.36959 
L 150.00741 67.107068 
L 149.455881 67.62891 
L 149.455881 68.150751 
L 149.731645 68.410071 
L 150.288478 68.410071 
L 150.564242 67.88823 
L 150.564242 67.62891 
L 150.840007 67.62891 
L 150.564242 67.36959 
L 150.564242 67.36959 
L 150.840007 67.36959 
L 150.840007 67.88823 
L 150.840007 67.62891 
L 151.115772 67.62891 
L 150.840007 67.36959 
L 150.288478 67.36959 
L 150.288478 66.588428 
L 150.288478 66.588428 
L 149.731645 66.588428 
L 148.904351 66.847748 
L 148.904351 67.88823 
L 150.00741 68.150751 
L 151.115772 67.88823 
L 151.396839 67.62891 
L 150.840007 67.62891 
L 150.00741 66.847748 
L 150.00741 66.066586 
L 150.840007 65.807266 
L 152.224133 65.544745 
L 152.224133 65.544745 
L 151.948369 66.325906 
L 151.396839 67.107068 
L 150.840007 68.410071 
L 150.840007 67.88823 
L 151.115772 68.150751 
L 151.115772 67.88823 
L 151.672604 67.36959 
L 151.672604 67.107068 
L 151.948369 67.107068 
L 152.505201 67.36959 
L 152.780966 67.88823 
L 153.056731 68.150751 
L 153.332495 68.150751 
L 153.332495 68.150751 
L 152.780966 67.88823 
L 153.332495 67.88823 
L 153.889328 68.669391 
L 153.613563 69.450553 
L 153.056731 69.713075 
L 152.780966 69.450553 
L 152.505201 68.931913 
L 152.224133 67.88823 
L 152.505201 67.36959 
L 152.780966 67.36959 
L 152.780966 68.410071 
L 153.056731 68.931913 
L 153.889328 69.713075 
L 153.613563 70.494236 
L 153.056731 70.753556 
L 152.505201 69.972395 
L 152.505201 68.931913 
L 153.056731 69.191233 
L 153.332495 70.231715 
L 154.716622 71.012876 
L 154.997689 70.494236 
L 154.716622 70.231715 
L 154.165092 70.494236 
L 153.889328 70.494236 
L 153.889328 70.494236 
L 153.889328 70.753556 
L 153.613563 71.534718 
L 153.332495 71.794038 
L 153.332495 71.794038 
L 153.613563 72.05656 
L 154.165092 72.31588 
L 154.997689 72.05656 
L 155.549219 72.05656 
L 155.824983 71.794038 
L 154.997689 71.012876 
L 155.273454 71.012876 
L 155.824983 71.534718 
L 155.824983 72.31588 
L 155.549219 72.837721 
L 154.997689 73.097041 
L 154.716622 73.356361 
L 154.997689 72.837721 
L 155.273454 71.794038 
L 155.273454 72.31588 
L 155.549219 72.31588 
L 155.549219 73.097041 
L 155.824983 73.097041 
L 155.824983 73.097041 
L 155.273454 72.837721 
L 154.165092 72.5752 
L 154.440857 72.31588 
L 154.997689 72.31588 
L 155.273454 72.5752 
L 155.273454 73.097041 
L 155.549219 73.618883 
L 155.549219 73.878203 
L 155.273454 73.878203 
L 154.716622 74.137523 
L 154.440857 73.878203 
L 154.440857 73.097041 
L 155.273454 72.837721 
L 156.106051 73.618883 
L 156.381816 74.400044 
L 156.106051 74.137523 
L 155.549219 73.878203 
L 155.273454 73.878203 
L 154.997689 74.137523 
L 154.440857 73.878203 
L 154.165092 73.097041 
L 154.716622 73.097041 
L 154.997689 73.878203 
L 154.716622 74.659365 
L 154.716622 75.181206 
L 155.549219 75.181206 
L 155.824983 74.918685 
L 155.824983 74.659365 
L 155.273454 74.659365 
L 155.273454 74.137523 
L 154.997689 73.878203 
L 154.716622 74.918685 
L 154.716622 75.699846 
L 156.106051 75.699846 
L 156.106051 75.699846 
L 155.549219 75.181206 
L 155.273454 74.659365 
L 155.824983 74.400044 
L 156.106051 74.659365 
L 155.824983 75.181206 
L 155.824983 75.440526 
L 156.106051 74.918685 
L 156.381816 74.137523 
L 156.106051 74.659365 
L 155.549219 74.659365 
L 154.440857 74.137523 
L 153.332495 73.878203 
L 152.224133 74.400044 
L 151.115772 75.181206 
L 150.288478 75.181206 
L 148.071754 74.137523 
L 146.963392 73.878203 
L 145.855031 74.137523 
L 145.022433 74.137523 
L 141.978416 74.659365 
L 141.145819 75.440526 
L 141.145819 75.962368 
L 143.086778 76.481008 
L 143.638307 78.046533 
L 144.470904 78.305853 
L 145.022433 78.305853 
L 145.022433 77.784011 
L 145.022433 78.046533 
L 145.303501 78.565173 
L 146.40656 79.346334 
L 147.514922 79.868176 
L 148.623283 79.868176 
L 148.071754 79.868176 
L 147.514922 80.390018 
L 147.795989 80.390018 
L 147.514922 80.390018 
L 147.514922 80.649338 
L 146.963392 80.908658 
L 146.130795 81.689819 
L 146.130795 81.689819 
L 146.130795 81.952341 
L 145.579266 82.211661 
L 144.746669 82.211661 
L 144.195139 82.470981 
L 144.195139 82.992823 
L 145.022433 83.773984 
L 146.40656 84.555146 
L 146.963392 84.033304 
L 146.963392 83.773984 
L 147.239157 83.514664 
L 147.514922 82.992823 
L 147.514922 82.733503 
L 148.347519 83.514664 
L 148.904351 83.773984 
L 148.347519 84.033304 
L 147.239157 84.033304 
L 146.40656 83.773984 
L 146.40656 84.033304 
L 146.40656 84.033304 
L 146.130795 83.773984 
L 146.40656 84.033304 
L 146.963392 84.295826 
L 147.795989 84.295826 
L 148.623283 84.033304 
L 148.623283 83.773984 
L 148.071754 83.773984 
L 147.239157 84.033304 
L 146.963392 84.555146 
L 147.795989 85.336308 
L 147.239157 84.814466 
L 147.514922 84.555146 
L 148.623283 84.555146 
L 148.347519 84.295826 
L 147.795989 84.033304 
L 147.795989 84.033304 
L 147.795989 84.555146 
L 148.071754 85.076987 
L 148.347519 85.336308 
L 148.347519 85.595628 
L 148.347519 85.076987 
L 147.795989 85.076987 
L 147.239157 85.336308 
L 147.795989 84.814466 
L 147.795989 84.814466 
L 147.514922 85.336308 
L 147.239157 85.595628 
L 147.239157 85.595628 
L 147.795989 85.595628 
L 147.795989 85.858149 
L 146.963392 85.076987 
L 147.239157 85.595628 
L 147.239157 85.858149 
L 146.963392 86.117469 
L 146.963392 86.117469 
L 147.239157 86.117469 
L 147.514922 85.858149 
L 146.687628 85.076987 
L 146.687628 84.555146 
L 146.963392 84.555146 
L 147.514922 84.814466 
L 148.071754 85.336308 
L 148.347519 86.117469 
L 147.795989 86.376789 
L 147.239157 85.858149 
L 147.239157 85.336308 
L 147.795989 85.595628 
L 148.071754 85.595628 
L 148.071754 85.336308 
L 147.795989 85.076987 
L 148.347519 85.595628 
L 148.347519 86.117469 
L 147.795989 86.117469 
L 147.795989 85.858149 
L 148.623283 85.595628 
L 148.623283 86.117469 
L 147.514922 86.898631 
L 147.514922 85.858149 
L 147.239157 85.595628 
L 146.963392 86.117469 
L 146.963392 86.376789 
L 147.239157 85.858149 
L 147.239157 85.858149 
L 147.514922 85.858149 
L 147.795989 86.376789 
L 147.795989 86.639311 
L 147.239157 86.898631 
L 146.687628 86.639311 
L 146.130795 85.858149 
L 146.130795 85.336308 
L 147.239157 85.595628 
L 148.347519 86.117469 
L 148.347519 86.898631 
L 148.071754 87.157951 
L 148.071754 86.898631 
L 147.795989 86.639311 
L 147.514922 86.639311 
L 147.239157 86.376789 
L 146.963392 85.858149 
L 146.963392 85.858149 
L 146.963392 86.117469 
L 147.795989 86.639311 
L 149.180116 86.639311 
L 149.180116 86.639311 
L 148.623283 86.376789 
L 148.347519 86.117469 
L 148.347519 85.858149 
L 148.904351 86.376789 
L 148.904351 86.639311 
L 148.904351 86.376789 
L 148.623283 86.117469 
L 148.347519 86.639311 
L 147.795989 87.157951 
L 148.071754 87.157951 
L 148.623283 86.639311 
L 148.347519 85.858149 
L 147.795989 85.595628 
L 147.239157 85.858149 
L 147.239157 85.858149 
L 148.347519 85.858149 
L 149.180116 86.639311 
L 150.288478 87.420472 
L 149.180116 86.898631 
L 148.904351 86.639311 
L 148.623283 86.898631 
L 148.623283 88.460954 
L 148.623283 87.939113 
L 148.904351 87.939113 
L 148.623283 87.420472 
L 148.347519 86.639311 
L 148.347519 86.117469 
L 148.623283 86.639311 
L 148.623283 87.679792 
L 148.623283 87.679792 
L 148.347519 87.420472 
L 147.514922 86.898631 
L 146.963392 86.898631 
L 146.963392 86.639311 
L 147.514922 86.639311 
L 148.071754 86.898631 
L 148.071754 87.679792 
L 148.347519 87.939113 
L 148.623283 87.679792 
L 148.904351 87.679792 
L 148.347519 87.679792 
L 148.071754 87.939113 
L 148.347519 88.201634 
L 148.071754 87.939113 
L 147.514922 87.679792 
L 147.795989 87.420472 
L 148.347519 87.939113 
L 148.623283 88.460954 
L 148.623283 88.201634 
L 148.904351 87.939113 
L 149.455881 87.679792 
L 149.731645 87.679792 
L 148.347519 88.982796 
L 147.795989 89.242116 
L 148.071754 89.501436 
L 148.623283 89.763957 
L 148.904351 90.023277 
L 148.904351 90.285799 
L 148.904351 89.763957 
L 148.623283 89.501436 
L 148.347519 89.763957 
L 148.071754 89.501436 
L 146.687628 87.420472 
L 146.40656 86.639311 
L 145.303501 86.376789 
L 136.988136 87.420472 
L 133.668354 86.898631 
L 126.466654 84.555146 
L 114.274674 82.211661 
L 104.856251 81.171179 
L 100.147039 80.390018 
L 91.285448 80.390018 
L 87.408833 80.908658 
L 83.251151 81.689819 
L 77.709342 83.514664 
L 76.049451 84.295826 
L 75.216854 85.595628 
L 74.941089 87.679792 
L 74.38956 90.285799 
L 73.832727 92.366762 
L 74.665324 97.053732 
L 74.665324 98.616056 
L 74.38956 100.70022 
L 74.941089 102.784385 
L 76.325215 104.606029 
L 77.709342 106.168352 
L 79.093468 107.471355 
L 80.20183 108.774358 
L 81.310192 112.417645 
L 81.310192 113.720648 
L 81.59126 114.764332 
L 81.867024 116.585975 
L 81.867024 121.532265 
L 80.758663 124.919433 
L 79.650301 127.78476 
L 78.817704 129.347083 
L 77.99041 130.646885 
L 77.709342 132.209208 
L 77.99041 134.034053 
L 78.541939 135.333855 
L 78.817704 136.636858 
L 78.541939 138.199181 
L 78.541939 139.761504 
L 78.817704 141.064508 
L 78.817704 141.845669 
L 79.374536 141.845669 
L 79.374536 142.367511 
L 79.926065 143.667313 
L 80.758663 147.054481 
L 80.482898 147.835642 
L 80.758663 148.094962 
L 81.59126 147.835642 
L 82.699622 147.835642 
L 83.251151 149.397966 
L 84.359513 150.179127 
L 85.467874 150.697767 
L 87.408833 152.522612 
L 87.960363 153.303774 
L 87.960363 154.084936 
L 87.684598 155.125417 
L 87.960363 155.647259 
L 88.236127 155.906579 
L 88.511892 156.687741 
L 89.068724 157.468902 
L 88.511892 159.293747 
L 88.511892 160.334229 
L 88.511892 160.334229 
L 88.79296 160.593549 
L 88.79296 161.11539 
L 89.068724 161.374711 
L 89.620254 161.637232 
L 89.901322 161.637232 
L 90.177086 162.418394 
L 90.728616 162.937034 
L 91.009683 162.937034 
L 90.728616 162.937034 
L 90.177086 163.199555 
L 89.901322 163.199555 
L 90.177086 163.458875 
L 90.452851 163.980717 
L 91.285448 164.761879 
L 91.285448 165.28372 
L 91.009683 165.021199 
L 91.009683 164.502559 
L 91.561213 164.240037 
L 91.836977 164.761879 
L 91.561213 165.80236 
L 91.561213 166.583522 
L 91.561213 166.583522 
L 91.836977 166.064882 
L 92.118045 165.28372 
L 92.39381 165.28372 
L 92.118045 165.80236 
L 91.836977 165.80236 
L 92.39381 165.28372 
L 93.221104 164.761879 
L 93.777936 165.021199 
L 93.777936 165.54304 
L 94.053701 166.064882 
L 94.329466 165.80236 
L 94.053701 165.54304 
L 94.053701 165.54304 
L 94.886298 165.54304 
L 95.162063 165.021199 
L 94.610533 165.28372 
L 94.329466 166.064882 
L 94.886298 166.064882 
L 95.718895 165.28372 
L 95.437827 165.28372 
L 95.437827 165.28372 
L 95.162063 165.021199 
L 95.718895 166.064882 
L 95.99466 166.324202 
L 95.99466 166.064882 
L 95.437827 165.54304 
L 95.437827 165.28372 
L 95.162063 165.021199 
L 94.610533 165.021199 
L 94.886298 164.761879 
L 95.162063 164.761879 
L 95.718895 165.021199 
L 96.546189 165.021199 
L 96.821954 165.28372 
L 96.546189 165.80236 
L 96.546189 166.583522 
L 95.99466 167.364684 
L 95.437827 167.627205 
L 95.718895 167.105364 
L 96.270424 166.583522 
L 96.270424 166.846044 
L 95.99466 167.105364 
L 95.718895 167.105364 
L 97.103022 166.324202 
L 97.103022 166.324202 
L 96.821954 165.80236 
L 96.821954 165.80236 
L 96.546189 165.80236 
L 96.270424 165.54304 
L 96.270424 165.80236 
L 95.99466 166.324202 
L 95.437827 166.324202 
L 95.99466 166.324202 
L 96.546189 165.80236 
L 96.270424 164.761879 
L 96.821954 165.28372 
L 97.654551 165.54304 
L 97.930316 165.80236 
L 98.487148 165.54304 
L 98.762913 165.80236 
L 98.762913 165.80236 
L 98.487148 166.064882 
L 99.871274 164.761879 
L 99.319745 165.28372 
L 98.762913 165.021199 
L 98.762913 164.761879 
L 98.211383 164.761879 
L 97.930316 165.021199 
L 99.59551 165.021199 
L 99.871274 164.502559 
L 99.319745 163.980717 
L 99.038677 163.980717 
L 98.762913 164.240037 
L 98.762913 164.240037 
L 99.59551 164.502559 
L 100.428107 164.502559 
L 100.979636 163.980717 
L 100.979636 163.718195 
L 100.147039 163.199555 
L 99.59551 163.458875 
L 99.871274 164.240037 
L 100.147039 164.502559 
L 99.871274 164.240037 
L 100.147039 163.980717 
L 100.428107 163.980717 
L 99.59551 164.761879 
L 99.59551 165.021199 
L 99.59551 163.458875 
L 99.319745 162.677714 
L 99.038677 162.418394 
L 99.319745 162.418394 
L 100.147039 162.677714 
L 100.703872 163.199555 
L 101.531166 163.199555 
L 100.703872 163.199555 
L 99.319745 162.155872 
L 99.871274 162.418394 
L 101.255401 163.718195 
L 101.812233 163.718195 
L 102.087998 163.199555 
L 102.087998 162.155872 
L 100.979636 162.677714 
L 100.428107 163.199555 
L 100.428107 163.718195 
L 101.255401 164.240037 
L 102.087998 163.980717 
L 101.812233 163.980717 
L 100.979636 164.502559 
L 100.428107 165.021199 
L 100.428107 165.021199 
L 100.703872 164.502559 
L 100.703872 163.718195 
L 100.428107 163.458875 
L 100.428107 163.718195 
L 100.703872 163.980717 
L 101.812233 163.458875 
L 102.087998 163.980717 
L 102.087998 164.240037 
L 101.812233 164.502559 
L 100.703872 163.980717 
L 99.871274 162.937034 
L 99.59551 162.155872 
L 99.59551 162.155872 
L 101.255401 163.199555 
L 101.531166 163.199555 
L 101.531166 163.199555 
L 102.087998 163.458875 
L 102.363763 163.199555 
L 101.531166 162.937034 
L 100.428107 162.155872 
L 100.147039 162.155872 
L 100.147039 162.937034 
L 100.979636 162.937034 
L 102.087998 163.718195 
L 101.812233 163.980717 
L 101.255401 163.718195 
L 101.255401 163.199555 
L 101.255401 163.458875 
L 100.703872 163.718195 
L 100.428107 163.980717 
L 100.979636 163.980717 
L 100.979636 163.980717 
L 100.428107 163.458875 
L 100.428107 163.199555 
L 100.703872 162.677714 
L 100.703872 162.418394 
L 100.703872 162.418394 
L 101.812233 162.677714 
L 102.920595 162.677714 
L 102.363763 162.937034 
L 102.363763 163.199555 
L 102.363763 162.937034 
L 102.639527 162.418394 
L 102.363763 162.677714 
L 101.812233 162.677714 
L 101.531166 162.418394 
L 102.087998 163.199555 
L 102.920595 163.718195 
L 103.19636 163.718195 
L 102.639527 162.937034 
L 101.812233 162.418394 
L 101.255401 162.418394 
L 101.531166 162.155872 
L 101.812233 162.155872 
L 102.087998 162.418394 
L 101.531166 162.677714 
L 100.428107 162.937034 
L 101.531166 163.458875 
L 101.812233 162.937034 
L 101.255401 162.677714 
L 100.428107 162.155872 
L 99.871274 161.637232 
L 100.703872 161.374711 
L 102.087998 161.374711 
L 101.531166 161.11539 
L 101.255401 161.374711 
L 100.979636 161.896552 
L 100.428107 162.418394 
L 100.428107 162.418394 
L 100.703872 161.637232 
L 100.979636 161.374711 
L 102.087998 161.896552 
L 102.639527 161.896552 
L 102.363763 162.155872 
L 102.087998 161.896552 
L 101.531166 162.155872 
L 100.979636 162.155872 
L 101.255401 161.374711 
L 101.812233 160.593549 
L 100.979636 161.637232 
L 100.703872 161.896552 
L 100.979636 161.374711 
L 101.812233 161.11539 
L 102.639527 161.637232 
L 103.19636 162.155872 
L 103.19636 162.418394 
L 102.920595 162.937034 
L 102.639527 162.677714 
L 102.920595 162.677714 
L 102.920595 163.458875 
L 103.747889 162.677714 
L 103.747889 162.937034 
L 103.472124 162.937034 
L 103.19636 162.677714 
L 102.920595 162.155872 
L 102.920595 162.418394 
L 102.363763 162.937034 
L 101.812233 163.718195 
L 101.812233 164.240037 
L 101.531166 163.980717 
L 102.087998 163.718195 
L 102.920595 162.937034 
L 102.639527 162.677714 
L 102.920595 162.937034 
L 102.363763 163.199555 
L 101.255401 162.677714 
L 101.531166 162.418394 
L 102.087998 162.677714 
L 102.363763 162.937034 
L 102.363763 162.677714 
L 102.639527 162.155872 
L 102.639527 162.155872 
L 102.639527 161.11539 
L 102.363763 161.637232 
L 102.363763 162.155872 
L 102.639527 162.155872 
L 102.920595 161.896552 
L 102.920595 161.896552 
L 102.920595 161.11539 
L 102.920595 161.11539 
L 102.363763 161.374711 
L 102.363763 161.896552 
L 102.920595 162.418394 
L 104.028957 162.937034 
L 104.580486 162.418394 
L 105.137319 162.155872 
L 105.137319 162.677714 
L 103.747889 161.374711 
L 103.747889 160.85607 
L 104.028957 160.593549 
L 104.028957 160.85607 
L 104.304722 161.637232 
L 104.856251 162.418394 
L 105.413083 162.418394 
L 105.688848 162.677714 
L 106.521445 162.677714 
L 106.79721 161.896552 
L 105.964613 160.85607 
L 105.137319 160.334229 
L 104.856251 160.85607 
L 104.580486 161.637232 
L 104.856251 161.896552 
L 105.688848 161.374711 
L 105.964613 160.85607 
L 105.964613 161.374711 
L 105.413083 162.155872 
L 105.137319 161.896552 
L 105.137319 161.374711 
L 110.122295 161.374711 
L 111.782186 161.637232 
L 113.99891 161.11539 
L 117.04823 160.593549 
L 119.816483 160.593549 
L 123.141569 160.85607 
L 127.293948 161.374711 
L 132.559992 161.637232 
L 143.914072 162.677714 
L 149.731645 163.458875 
L 155.824983 163.980717 
L 168.568492 164.502559 
L 176.05126 165.021199 
L 184.637087 165.80236 
L 193.498678 167.364684 
L 202.917101 170.48933 
L 213.719651 174.91698 
L 238.098307 184.553441 
L 262.476963 194.449223 
L 275.215169 200.176674 
L 301.253716 210.853617 
L 312.613099 216.062429 
L 323.139884 220.490079 
L 332.282543 223.614725 
L 346.410178 226.998692 
L 351.946684 227.779854 
L 368.566808 227.779854 
L 371.340364 227.520534 
L 374.384381 227.520534 
L 377.985231 227.779854 
L 381.310317 228.301695 
L 383.802805 229.082857 
L 389.344614 231.685662 
L 391.285573 232.988665 
L 397.103146 235.33215 
L 397.654676 236.372632 
L 398.211508 236.894473 
L 398.487273 236.894473 
L 398.487273 236.635153 
L 397.93044 237.153793 
L 396.822078 237.934955 
L 395.713717 238.197477 
L 394.605355 237.934955 
L 394.053826 237.934955 
L 391.285573 239.50048 
L 390.72874 239.50048 
L 390.72874 239.237958 
L 391.004505 239.50048 
L 390.72874 239.7598 
L 389.620378 239.7598 
L 389.068849 239.50048 
L 389.344614 239.50048 
L 389.896143 240.01912 
L 389.896143 240.281642 
L 389.620378 240.01912 
L 389.896143 240.281642 
L 390.452976 240.540962 
L 390.72874 241.062803 
L 391.285573 241.581443 
L 390.72874 242.103285 
L 391.004505 242.103285 
L 391.004505 242.103285 
L 390.72874 241.843965 
L 390.452976 242.362605 
L 390.452976 242.884447 
L 390.177211 243.665608 
L 390.452976 244.18745 
L 390.72874 244.18745 
L 390.72874 243.924928 
L 389.620378 243.406288 
L 386.852126 242.625126 
L 386.576361 243.143767 
L 386.295293 243.143767 
L 386.576361 242.362605 
L 386.295293 241.581443 
L 385.743764 241.843965 
L 384.911167 243.143767 
L 384.083873 243.924928 
L 383.52704 243.924928 
L 383.802805 243.406288 
L 384.083873 243.143767 
L 384.359637 243.406288 
L 383.52704 244.18745 
L 383.52704 244.18745 
L 383.52704 243.924928 
L 383.251276 244.18745 
L 382.694443 244.968611 
L 382.694443 245.487252 
L 382.694443 243.665608 
L 383.52704 243.924928 
L 384.359637 244.44677 
L 384.083873 244.44677 
L 383.52704 244.18745 
L 383.251276 243.924928 
L 383.52704 243.924928 
L 381.586081 243.406288 
L 381.310317 243.665608 
L 381.310317 244.70609 
L 381.310317 244.70609 
L 382.694443 244.18745 
L 382.694443 244.18745 
L 382.418678 243.665608 
L 381.867149 243.665608 
L 381.310317 243.406288 
L 381.586081 243.665608 
L 381.034552 244.18745 
L 381.034552 244.44677 
L 381.034552 244.18745 
L 380.483023 244.70609 
L 380.201955 244.70609 
L 380.201955 244.44677 
L 380.201955 244.44677 
L 380.483023 244.968611 
L 380.483023 245.749773 
L 380.201955 246.009093 
L 380.201955 246.009093 
L 380.483023 246.268413 
L 380.483023 246.268413 
L 380.201955 246.268413 
L 380.483023 245.749773 
L 380.201955 245.227931 
L 379.650426 244.968611 
L 379.093593 245.749773 
L 379.093593 246.530935 
L 379.374661 246.790255 
L 379.650426 246.530935 
L 379.650426 246.268413 
L 379.650426 246.530935 
L 379.374661 246.530935 
L 379.093593 246.790255 
L 379.093593 246.790255 
" style="fill:none;stroke:#1f77b4;stroke-linecap:square;stroke-width:1.5;"/>
   </g>
   <g id="matplotlib.axis_1">
    <g id="xtick_1">
     <g id="line2d_2">
      <defs>
       <path d="M 0 0 
L 0 3.5 
" id="mab7b92d71d" style="stroke:#000000;stroke-width:0.8;"/>
      </defs>
      <g>
       <use style="stroke:#000000;stroke-width:0.8;" x="76.664618" xlink:href="#mab7b92d71d" y="307.584"/>
      </g>
     </g>
     <g id="text_1">
      <!-- −300 -->
      <defs>
       <path d="M 10.59375 35.5 
L 73.1875 35.5 
L 73.1875 27.203125 
L 10.59375 27.203125 
z
" id="DejaVuSans-8722"/>
       <path d="M 40.578125 39.3125 
Q 47.65625 37.796875 51.625 33 
Q 55.609375 28.21875 55.609375 21.1875 
Q 55.609375 10.40625 48.1875 4.484375 
Q 40.765625 -1.421875 27.09375 -1.421875 
Q 22.515625 -1.421875 17.65625 -0.515625 
Q 12.796875 0.390625 7.625 2.203125 
L 7.625 11.71875 
Q 11.71875 9.328125 16.59375 8.109375 
Q 21.484375 6.890625 26.8125 6.890625 
Q 36.078125 6.890625 40.9375 10.546875 
Q 45.796875 14.203125 45.796875 21.1875 
Q 45.796875 27.640625 41.28125 31.265625 
Q 36.765625 34.90625 28.71875 34.90625 
L 20.21875 34.90625 
L 20.21875 43.015625 
L 29.109375 43.015625 
Q 36.375 43.015625 40.234375 45.921875 
Q 44.09375 48.828125 44.09375 54.296875 
Q 44.09375 59.90625 40.109375 62.90625 
Q 36.140625 65.921875 28.71875 65.921875 
Q 24.65625 65.921875 20.015625 65.03125 
Q 15.375 64.15625 9.8125 62.3125 
L 9.8125 71.09375 
Q 15.4375 72.65625 20.34375 73.4375 
Q 25.25 74.21875 29.59375 74.21875 
Q 40.828125 74.21875 47.359375 69.109375 
Q 53.90625 64.015625 53.90625 55.328125 
Q 53.90625 49.265625 50.4375 45.09375 
Q 46.96875 40.921875 40.578125 39.3125 
z
" id="DejaVuSans-51"/>
       <path d="M 31.78125 66.40625 
Q 24.171875 66.40625 20.328125 58.90625 
Q 16.5 51.421875 16.5 36.375 
Q 16.5 21.390625 20.328125 13.890625 
Q 24.171875 6.390625 31.78125 6.390625 
Q 39.453125 6.390625 43.28125 13.890625 
Q 47.125 21.390625 47.125 36.375 
Q 47.125 51.421875 43.28125 58.90625 
Q 39.453125 66.40625 31.78125 66.40625 
z
M 31.78125 74.21875 
Q 44.046875 74.21875 50.515625 64.515625 
Q 56.984375 54.828125 56.984375 36.375 
Q 56.984375 17.96875 50.515625 8.265625 
Q 44.046875 -1.421875 31.78125 -1.421875 
Q 19.53125 -1.421875 13.0625 8.265625 
Q 6.59375 17.96875 6.59375 36.375 
Q 6.59375 54.828125 13.0625 64.515625 
Q 19.53125 74.21875 31.78125 74.21875 
z
" id="DejaVuSans-48"/>
      </defs>
      <g transform="translate(62.931024 322.182437)scale(0.1 -0.1)">
       <use xlink:href="#DejaVuSans-8722"/>
       <use x="83.789062" xlink:href="#DejaVuSans-51"/>
       <use x="147.412109" xlink:href="#DejaVuSans-48"/>
       <use x="211.035156" xlink:href="#DejaVuSans-48"/>
      </g>
     </g>
    </g>
    <g id="xtick_2">
     <g id="line2d_3">
      <g>
       <use style="stroke:#000000;stroke-width:0.8;" x="129.696282" xlink:href="#mab7b92d71d" y="307.584"/>
      </g>
     </g>
     <g id="text_2">
      <!-- −200 -->
      <defs>
       <path d="M 19.1875 8.296875 
L 53.609375 8.296875 
L 53.609375 0 
L 7.328125 0 
L 7.328125 8.296875 
Q 12.9375 14.109375 22.625 23.890625 
Q 32.328125 33.6875 34.8125 36.53125 
Q 39.546875 41.84375 41.421875 45.53125 
Q 43.3125 49.21875 43.3125 52.78125 
Q 43.3125 58.59375 39.234375 62.25 
Q 35.15625 65.921875 28.609375 65.921875 
Q 23.96875 65.921875 18.8125 64.3125 
Q 13.671875 62.703125 7.8125 59.421875 
L 7.8125 69.390625 
Q 13.765625 71.78125 18.9375 73 
Q 24.125 74.21875 28.421875 74.21875 
Q 39.75 74.21875 46.484375 68.546875 
Q 53.21875 62.890625 53.21875 53.421875 
Q 53.21875 48.921875 51.53125 44.890625 
Q 49.859375 40.875 45.40625 35.40625 
Q 44.1875 33.984375 37.640625 27.21875 
Q 31.109375 20.453125 19.1875 8.296875 
z
" id="DejaVuSans-50"/>
      </defs>
      <g transform="translate(115.962689 322.182437)scale(0.1 -0.1)">
       <use xlink:href="#DejaVuSans-8722"/>
       <use x="83.789062" xlink:href="#DejaVuSans-50"/>
       <use x="147.412109" xlink:href="#DejaVuSans-48"/>
       <use x="211.035156" xlink:href="#DejaVuSans-48"/>
      </g>
     </g>
    </g>
    <g id="xtick_3">
     <g id="line2d_4">
      <g>
       <use style="stroke:#000000;stroke-width:0.8;" x="182.727947" xlink:href="#mab7b92d71d" y="307.584"/>
      </g>
     </g>
     <g id="text_3">
      <!-- −100 -->
      <defs>
       <path d="M 12.40625 8.296875 
L 28.515625 8.296875 
L 28.515625 63.921875 
L 10.984375 60.40625 
L 10.984375 69.390625 
L 28.421875 72.90625 
L 38.28125 72.90625 
L 38.28125 8.296875 
L 54.390625 8.296875 
L 54.390625 0 
L 12.40625 0 
z
" id="DejaVuSans-49"/>
      </defs>
      <g transform="translate(168.994353 322.182437)scale(0.1 -0.1)">
       <use xlink:href="#DejaVuSans-8722"/>
       <use x="83.789062" xlink:href="#DejaVuSans-49"/>
       <use x="147.412109" xlink:href="#DejaVuSans-48"/>
       <use x="211.035156" xlink:href="#DejaVuSans-48"/>
      </g>
     </g>
    </g>
    <g id="xtick_4">
     <g id="line2d_5">
      <g>
       <use style="stroke:#000000;stroke-width:0.8;" x="235.759611" xlink:href="#mab7b92d71d" y="307.584"/>
      </g>
     </g>
     <g id="text_4">
      <!-- 0 -->
      <g transform="translate(232.578361 322.182437)scale(0.1 -0.1)">
       <use xlink:href="#DejaVuSans-48"/>
      </g>
     </g>
    </g>
    <g id="xtick_5">
     <g id="line2d_6">
      <g>
       <use style="stroke:#000000;stroke-width:0.8;" x="288.791275" xlink:href="#mab7b92d71d" y="307.584"/>
      </g>
     </g>
     <g id="text_5">
      <!-- 100 -->
      <g transform="translate(279.247525 322.182437)scale(0.1 -0.1)">
       <use xlink:href="#DejaVuSans-49"/>
       <use x="63.623047" xlink:href="#DejaVuSans-48"/>
       <use x="127.246094" xlink:href="#DejaVuSans-48"/>
      </g>
     </g>
    </g>
    <g id="xtick_6">
     <g id="line2d_7">
      <g>
       <use style="stroke:#000000;stroke-width:0.8;" x="341.822939" xlink:href="#mab7b92d71d" y="307.584"/>
      </g>
     </g>
     <g id="text_6">
      <!-- 200 -->
      <g transform="translate(332.279189 322.182437)scale(0.1 -0.1)">
       <use xlink:href="#DejaVuSans-50"/>
       <use x="63.623047" xlink:href="#DejaVuSans-48"/>
       <use x="127.246094" xlink:href="#DejaVuSans-48"/>
      </g>
     </g>
    </g>
    <g id="xtick_7">
     <g id="line2d_8">
      <g>
       <use style="stroke:#000000;stroke-width:0.8;" x="394.854604" xlink:href="#mab7b92d71d" y="307.584"/>
      </g>
     </g>
     <g id="text_7">
      <!-- 300 -->
      <g transform="translate(385.310854 322.182437)scale(0.1 -0.1)">
       <use xlink:href="#DejaVuSans-51"/>
       <use x="63.623047" xlink:href="#DejaVuSans-48"/>
       <use x="127.246094" xlink:href="#DejaVuSans-48"/>
      </g>
     </g>
    </g>
   </g>
   <g id="matplotlib.axis_2">
    <g id="ytick_1">
     <g id="line2d_9">
      <defs>
       <path d="M 0 0 
L -3.5 0 
" id="mbdd3d2ced1" style="stroke:#000000;stroke-width:0.8;"/>
      </defs>
      <g>
       <use style="stroke:#000000;stroke-width:0.8;" x="57.6" xlink:href="#mbdd3d2ced1" y="294.716443"/>
      </g>
     </g>
     <g id="text_8">
      <!-- −700 -->
      <defs>
       <path d="M 8.203125 72.90625 
L 55.078125 72.90625 
L 55.078125 68.703125 
L 28.609375 0 
L 18.3125 0 
L 43.21875 64.59375 
L 8.203125 64.59375 
z
" id="DejaVuSans-55"/>
      </defs>
      <g transform="translate(23.132812 298.515662)scale(0.1 -0.1)">
       <use xlink:href="#DejaVuSans-8722"/>
       <use x="83.789062" xlink:href="#DejaVuSans-55"/>
       <use x="147.412109" xlink:href="#DejaVuSans-48"/>
       <use x="211.035156" xlink:href="#DejaVuSans-48"/>
      </g>
     </g>
    </g>
    <g id="ytick_2">
     <g id="line2d_10">
      <g>
       <use style="stroke:#000000;stroke-width:0.8;" x="57.6" xlink:href="#mbdd3d2ced1" y="262.701621"/>
      </g>
     </g>
     <g id="text_9">
      <!-- −600 -->
      <defs>
       <path d="M 33.015625 40.375 
Q 26.375 40.375 22.484375 35.828125 
Q 18.609375 31.296875 18.609375 23.390625 
Q 18.609375 15.53125 22.484375 10.953125 
Q 26.375 6.390625 33.015625 6.390625 
Q 39.65625 6.390625 43.53125 10.953125 
Q 47.40625 15.53125 47.40625 23.390625 
Q 47.40625 31.296875 43.53125 35.828125 
Q 39.65625 40.375 33.015625 40.375 
z
M 52.59375 71.296875 
L 52.59375 62.3125 
Q 48.875 64.0625 45.09375 64.984375 
Q 41.3125 65.921875 37.59375 65.921875 
Q 27.828125 65.921875 22.671875 59.328125 
Q 17.53125 52.734375 16.796875 39.40625 
Q 19.671875 43.65625 24.015625 45.921875 
Q 28.375 48.1875 33.59375 48.1875 
Q 44.578125 48.1875 50.953125 41.515625 
Q 57.328125 34.859375 57.328125 23.390625 
Q 57.328125 12.15625 50.6875 5.359375 
Q 44.046875 -1.421875 33.015625 -1.421875 
Q 20.359375 -1.421875 13.671875 8.265625 
Q 6.984375 17.96875 6.984375 36.375 
Q 6.984375 53.65625 15.1875 63.9375 
Q 23.390625 74.21875 37.203125 74.21875 
Q 40.921875 74.21875 44.703125 73.484375 
Q 48.484375 72.75 52.59375 71.296875 
z
" id="DejaVuSans-54"/>
      </defs>
      <g transform="translate(23.132812 266.50084)scale(0.1 -0.1)">
       <use xlink:href="#DejaVuSans-8722"/>
       <use x="83.789062" xlink:href="#DejaVuSans-54"/>
       <use x="147.412109" xlink:href="#DejaVuSans-48"/>
       <use x="211.035156" xlink:href="#DejaVuSans-48"/>
      </g>
     </g>
    </g>
    <g id="ytick_3">
     <g id="line2d_11">
      <g>
       <use style="stroke:#000000;stroke-width:0.8;" x="57.6" xlink:href="#mbdd3d2ced1" y="230.686799"/>
      </g>
     </g>
     <g id="text_10">
      <!-- −500 -->
      <defs>
       <path d="M 10.796875 72.90625 
L 49.515625 72.90625 
L 49.515625 64.59375 
L 19.828125 64.59375 
L 19.828125 46.734375 
Q 21.96875 47.46875 24.109375 47.828125 
Q 26.265625 48.1875 28.421875 48.1875 
Q 40.625 48.1875 47.75 41.5 
Q 54.890625 34.8125 54.890625 23.390625 
Q 54.890625 11.625 47.5625 5.09375 
Q 40.234375 -1.421875 26.90625 -1.421875 
Q 22.3125 -1.421875 17.546875 -0.640625 
Q 12.796875 0.140625 7.71875 1.703125 
L 7.71875 11.625 
Q 12.109375 9.234375 16.796875 8.0625 
Q 21.484375 6.890625 26.703125 6.890625 
Q 35.15625 6.890625 40.078125 11.328125 
Q 45.015625 15.765625 45.015625 23.390625 
Q 45.015625 31 40.078125 35.4375 
Q 35.15625 39.890625 26.703125 39.890625 
Q 22.75 39.890625 18.8125 39.015625 
Q 14.890625 38.140625 10.796875 36.28125 
z
" id="DejaVuSans-53"/>
      </defs>
      <g transform="translate(23.132812 234.486018)scale(0.1 -0.1)">
       <use xlink:href="#DejaVuSans-8722"/>
       <use x="83.789062" xlink:href="#DejaVuSans-53"/>
       <use x="147.412109" xlink:href="#DejaVuSans-48"/>
       <use x="211.035156" xlink:href="#DejaVuSans-48"/>
      </g>
     </g>
    </g>
    <g id="ytick_4">
     <g id="line2d_12">
      <g>
       <use style="stroke:#000000;stroke-width:0.8;" x="57.6" xlink:href="#mbdd3d2ced1" y="198.671978"/>
      </g>
     </g>
     <g id="text_11">
      <!-- −400 -->
      <defs>
       <path d="M 37.796875 64.3125 
L 12.890625 25.390625 
L 37.796875 25.390625 
z
M 35.203125 72.90625 
L 47.609375 72.90625 
L 47.609375 25.390625 
L 58.015625 25.390625 
L 58.015625 17.1875 
L 47.609375 17.1875 
L 47.609375 0 
L 37.796875 0 
L 37.796875 17.1875 
L 4.890625 17.1875 
L 4.890625 26.703125 
z
" id="DejaVuSans-52"/>
      </defs>
      <g transform="translate(23.132812 202.471197)scale(0.1 -0.1)">
       <use xlink:href="#DejaVuSans-8722"/>
       <use x="83.789062" xlink:href="#DejaVuSans-52"/>
       <use x="147.412109" xlink:href="#DejaVuSans-48"/>
       <use x="211.035156" xlink:href="#DejaVuSans-48"/>
      </g>
     </g>
    </g>
    <g id="ytick_5">
     <g id="line2d_13">
      <g>
       <use style="stroke:#000000;stroke-width:0.8;" x="57.6" xlink:href="#mbdd3d2ced1" y="166.657156"/>
      </g>
     </g>
     <g id="text_12">
      <!-- −300 -->
      <g transform="translate(23.132812 170.456375)scale(0.1 -0.1)">
       <use xlink:href="#DejaVuSans-8722"/>
       <use x="83.789062" xlink:href="#DejaVuSans-51"/>
       <use x="147.412109" xlink:href="#DejaVuSans-48"/>
       <use x="211.035156" xlink:href="#DejaVuSans-48"/>
      </g>
     </g>
    </g>
    <g id="ytick_6">
     <g id="line2d_14">
      <g>
       <use style="stroke:#000000;stroke-width:0.8;" x="57.6" xlink:href="#mbdd3d2ced1" y="134.642334"/>
      </g>
     </g>
     <g id="text_13">
      <!-- −200 -->
      <g transform="translate(23.132812 138.441553)scale(0.1 -0.1)">
       <use xlink:href="#DejaVuSans-8722"/>
       <use x="83.789062" xlink:href="#DejaVuSans-50"/>
       <use x="147.412109" xlink:href="#DejaVuSans-48"/>
       <use x="211.035156" xlink:href="#DejaVuSans-48"/>
      </g>
     </g>
    </g>
    <g id="ytick_7">
     <g id="line2d_15">
      <g>
       <use style="stroke:#000000;stroke-width:0.8;" x="57.6" xlink:href="#mbdd3d2ced1" y="102.627513"/>
      </g>
     </g>
     <g id="text_14">
      <!-- −100 -->
      <g transform="translate(23.132812 106.426731)scale(0.1 -0.1)">
       <use xlink:href="#DejaVuSans-8722"/>
       <use x="83.789062" xlink:href="#DejaVuSans-49"/>
       <use x="147.412109" xlink:href="#DejaVuSans-48"/>
       <use x="211.035156" xlink:href="#DejaVuSans-48"/>
      </g>
     </g>
    </g>
    <g id="ytick_8">
     <g id="line2d_16">
      <g>
       <use style="stroke:#000000;stroke-width:0.8;" x="57.6" xlink:href="#mbdd3d2ced1" y="70.612691"/>
      </g>
     </g>
     <g id="text_15">
      <!-- 0 -->
      <g transform="translate(44.2375 74.41191)scale(0.1 -0.1)">
       <use xlink:href="#DejaVuSans-48"/>
      </g>
     </g>
    </g>
   </g>
   <g id="line2d_17">
    <path clip-path="url(#pb2d7e120b8)" d="M 255.096812 288.121195 
L 205.7376 202.852853 
L 149.437024 77.464325 
L 89.589688 158.765037 
L 103.175999 163.135423 
L 384.693352 241.294678 
" style="fill:none;stroke:#ff0000;stroke-linecap:square;stroke-width:0.5;"/>
   </g>
   <g id="patch_3">
    <path d="M 57.6 307.584 
L 57.6 41.472 
" style="fill:none;stroke:#000000;stroke-linecap:square;stroke-linejoin:miter;stroke-width:0.8;"/>
   </g>
   <g id="patch_4">
    <path d="M 414.72 307.584 
L 414.72 41.472 
" style="fill:none;stroke:#000000;stroke-linecap:square;stroke-linejoin:miter;stroke-width:0.8;"/>
   </g>
   <g id="patch_5">
    <path d="M 57.6 307.584 
L 414.72 307.584 
" style="fill:none;stroke:#000000;stroke-linecap:square;stroke-linejoin:miter;stroke-width:0.8;"/>
   </g>
   <g id="patch_6">
    <path d="M 57.6 41.472 
L 414.72 41.472 
" style="fill:none;stroke:#000000;stroke-linecap:square;stroke-linejoin:miter;stroke-width:0.8;"/>
   </g>
   <g id="PathCollection_1">
    <defs>
     <path d="M 0 2.738613 
C 0.726289 2.738613 1.422928 2.450055 1.936492 1.936492 
C 2.450055 1.422928 2.738613 0.726289 2.738613 0 
C 2.738613 -0.726289 2.450055 -1.422928 1.936492 -1.936492 
C 1.422928 -2.450055 0.726289 -2.738613 0 -2.738613 
C -0.726289 -2.738613 -1.422928 -2.450055 -1.936492 -1.936492 
C -2.450055 -1.422928 -2.738613 -0.726289 -2.738613 0 
C -2.738613 0.726289 -2.450055 1.422928 -1.936492 1.936492 
C -1.422928 2.450055 -0.726289 2.738613 0 2.738613 
z
" id="m18dfc4deb9" style="stroke:#ff0000;"/>
    </defs>
    <g clip-path="url(#pb2d7e120b8)">
     <use style="fill:#ff0000;stroke:#ff0000;" x="255.096812" xlink:href="#m18dfc4deb9" y="288.121195"/>
     <use style="fill:#ff0000;stroke:#ff0000;" x="205.7376" xlink:href="#m18dfc4deb9" y="202.852853"/>
     <use style="fill:#ff0000;stroke:#ff0000;" x="149.437024" xlink:href="#m18dfc4deb9" y="77.464325"/>
     <use style="fill:#ff0000;stroke:#ff0000;" x="89.589688" xlink:href="#m18dfc4deb9" y="158.765037"/>
     <use style="fill:#ff0000;stroke:#ff0000;" x="103.175999" xlink:href="#m18dfc4deb9" y="163.135423"/>
     <use style="fill:#ff0000;stroke:#ff0000;" x="384.693352" xlink:href="#m18dfc4deb9" y="241.294678"/>
    </g>
   </g>
   <g id="text_16">
    <!-- (94) Subject: s23, Known = False, Degree = 1, Duration = 0.1 -->
    <defs>
     <path d="M 31 75.875 
Q 24.46875 64.65625 21.28125 53.65625 
Q 18.109375 42.671875 18.109375 31.390625 
Q 18.109375 20.125 21.3125 9.0625 
Q 24.515625 -2 31 -13.1875 
L 23.1875 -13.1875 
Q 15.875 -1.703125 12.234375 9.375 
Q 8.59375 20.453125 8.59375 31.390625 
Q 8.59375 42.28125 12.203125 53.3125 
Q 15.828125 64.359375 23.1875 75.875 
z
" id="DejaVuSans-40"/>
     <path d="M 10.984375 1.515625 
L 10.984375 10.5 
Q 14.703125 8.734375 18.5 7.8125 
Q 22.3125 6.890625 25.984375 6.890625 
Q 35.75 6.890625 40.890625 13.453125 
Q 46.046875 20.015625 46.78125 33.40625 
Q 43.953125 29.203125 39.59375 26.953125 
Q 35.25 24.703125 29.984375 24.703125 
Q 19.046875 24.703125 12.671875 31.3125 
Q 6.296875 37.9375 6.296875 49.421875 
Q 6.296875 60.640625 12.9375 67.421875 
Q 19.578125 74.21875 30.609375 74.21875 
Q 43.265625 74.21875 49.921875 64.515625 
Q 56.59375 54.828125 56.59375 36.375 
Q 56.59375 19.140625 48.40625 8.859375 
Q 40.234375 -1.421875 26.421875 -1.421875 
Q 22.703125 -1.421875 18.890625 -0.6875 
Q 15.09375 0.046875 10.984375 1.515625 
z
M 30.609375 32.421875 
Q 37.25 32.421875 41.125 36.953125 
Q 45.015625 41.5 45.015625 49.421875 
Q 45.015625 57.28125 41.125 61.84375 
Q 37.25 66.40625 30.609375 66.40625 
Q 23.96875 66.40625 20.09375 61.84375 
Q 16.21875 57.28125 16.21875 49.421875 
Q 16.21875 41.5 20.09375 36.953125 
Q 23.96875 32.421875 30.609375 32.421875 
z
" id="DejaVuSans-57"/>
     <path d="M 8.015625 75.875 
L 15.828125 75.875 
Q 23.140625 64.359375 26.78125 53.3125 
Q 30.421875 42.28125 30.421875 31.390625 
Q 30.421875 20.453125 26.78125 9.375 
Q 23.140625 -1.703125 15.828125 -13.1875 
L 8.015625 -13.1875 
Q 14.5 -2 17.703125 9.0625 
Q 20.90625 20.125 20.90625 31.390625 
Q 20.90625 42.671875 17.703125 53.65625 
Q 14.5 64.65625 8.015625 75.875 
z
" id="DejaVuSans-41"/>
     <path id="DejaVuSans-32"/>
     <path d="M 53.515625 70.515625 
L 53.515625 60.890625 
Q 47.90625 63.578125 42.921875 64.890625 
Q 37.9375 66.21875 33.296875 66.21875 
Q 25.25 66.21875 20.875 63.09375 
Q 16.5 59.96875 16.5 54.203125 
Q 16.5 49.359375 19.40625 46.890625 
Q 22.3125 44.4375 30.421875 42.921875 
L 36.375 41.703125 
Q 47.40625 39.59375 52.65625 34.296875 
Q 57.90625 29 57.90625 20.125 
Q 57.90625 9.515625 50.796875 4.046875 
Q 43.703125 -1.421875 29.984375 -1.421875 
Q 24.8125 -1.421875 18.96875 -0.25 
Q 13.140625 0.921875 6.890625 3.21875 
L 6.890625 13.375 
Q 12.890625 10.015625 18.65625 8.296875 
Q 24.421875 6.59375 29.984375 6.59375 
Q 38.421875 6.59375 43.015625 9.90625 
Q 47.609375 13.234375 47.609375 19.390625 
Q 47.609375 24.75 44.3125 27.78125 
Q 41.015625 30.8125 33.5 32.328125 
L 27.484375 33.5 
Q 16.453125 35.6875 11.515625 40.375 
Q 6.59375 45.0625 6.59375 53.421875 
Q 6.59375 63.09375 13.40625 68.65625 
Q 20.21875 74.21875 32.171875 74.21875 
Q 37.3125 74.21875 42.625 73.28125 
Q 47.953125 72.359375 53.515625 70.515625 
z
" id="DejaVuSans-83"/>
     <path d="M 8.5 21.578125 
L 8.5 54.6875 
L 17.484375 54.6875 
L 17.484375 21.921875 
Q 17.484375 14.15625 20.5 10.265625 
Q 23.53125 6.390625 29.59375 6.390625 
Q 36.859375 6.390625 41.078125 11.03125 
Q 45.3125 15.671875 45.3125 23.6875 
L 45.3125 54.6875 
L 54.296875 54.6875 
L 54.296875 0 
L 45.3125 0 
L 45.3125 8.40625 
Q 42.046875 3.421875 37.71875 1 
Q 33.40625 -1.421875 27.6875 -1.421875 
Q 18.265625 -1.421875 13.375 4.4375 
Q 8.5 10.296875 8.5 21.578125 
z
M 31.109375 56 
z
" id="DejaVuSans-117"/>
     <path d="M 48.6875 27.296875 
Q 48.6875 37.203125 44.609375 42.84375 
Q 40.53125 48.484375 33.40625 48.484375 
Q 26.265625 48.484375 22.1875 42.84375 
Q 18.109375 37.203125 18.109375 27.296875 
Q 18.109375 17.390625 22.1875 11.75 
Q 26.265625 6.109375 33.40625 6.109375 
Q 40.53125 6.109375 44.609375 11.75 
Q 48.6875 17.390625 48.6875 27.296875 
z
M 18.109375 46.390625 
Q 20.953125 51.265625 25.265625 53.625 
Q 29.59375 56 35.59375 56 
Q 45.5625 56 51.78125 48.09375 
Q 58.015625 40.1875 58.015625 27.296875 
Q 58.015625 14.40625 51.78125 6.484375 
Q 45.5625 -1.421875 35.59375 -1.421875 
Q 29.59375 -1.421875 25.265625 0.953125 
Q 20.953125 3.328125 18.109375 8.203125 
L 18.109375 0 
L 9.078125 0 
L 9.078125 75.984375 
L 18.109375 75.984375 
z
" id="DejaVuSans-98"/>
     <path d="M 9.421875 54.6875 
L 18.40625 54.6875 
L 18.40625 -0.984375 
Q 18.40625 -11.421875 14.421875 -16.109375 
Q 10.453125 -20.796875 1.609375 -20.796875 
L -1.8125 -20.796875 
L -1.8125 -13.1875 
L 0.59375 -13.1875 
Q 5.71875 -13.1875 7.5625 -10.8125 
Q 9.421875 -8.453125 9.421875 -0.984375 
z
M 9.421875 75.984375 
L 18.40625 75.984375 
L 18.40625 64.59375 
L 9.421875 64.59375 
z
" id="DejaVuSans-106"/>
     <path d="M 56.203125 29.59375 
L 56.203125 25.203125 
L 14.890625 25.203125 
Q 15.484375 15.921875 20.484375 11.0625 
Q 25.484375 6.203125 34.421875 6.203125 
Q 39.59375 6.203125 44.453125 7.46875 
Q 49.3125 8.734375 54.109375 11.28125 
L 54.109375 2.78125 
Q 49.265625 0.734375 44.1875 -0.34375 
Q 39.109375 -1.421875 33.890625 -1.421875 
Q 20.796875 -1.421875 13.15625 6.1875 
Q 5.515625 13.8125 5.515625 26.8125 
Q 5.515625 40.234375 12.765625 48.109375 
Q 20.015625 56 32.328125 56 
Q 43.359375 56 49.78125 48.890625 
Q 56.203125 41.796875 56.203125 29.59375 
z
M 47.21875 32.234375 
Q 47.125 39.59375 43.09375 43.984375 
Q 39.0625 48.390625 32.421875 48.390625 
Q 24.90625 48.390625 20.390625 44.140625 
Q 15.875 39.890625 15.1875 32.171875 
z
" id="DejaVuSans-101"/>
     <path d="M 48.78125 52.59375 
L 48.78125 44.1875 
Q 44.96875 46.296875 41.140625 47.34375 
Q 37.3125 48.390625 33.40625 48.390625 
Q 24.65625 48.390625 19.8125 42.84375 
Q 14.984375 37.3125 14.984375 27.296875 
Q 14.984375 17.28125 19.8125 11.734375 
Q 24.65625 6.203125 33.40625 6.203125 
Q 37.3125 6.203125 41.140625 7.25 
Q 44.96875 8.296875 48.78125 10.40625 
L 48.78125 2.09375 
Q 45.015625 0.34375 40.984375 -0.53125 
Q 36.96875 -1.421875 32.421875 -1.421875 
Q 20.0625 -1.421875 12.78125 6.34375 
Q 5.515625 14.109375 5.515625 27.296875 
Q 5.515625 40.671875 12.859375 48.328125 
Q 20.21875 56 33.015625 56 
Q 37.15625 56 41.109375 55.140625 
Q 45.0625 54.296875 48.78125 52.59375 
z
" id="DejaVuSans-99"/>
     <path d="M 18.3125 70.21875 
L 18.3125 54.6875 
L 36.8125 54.6875 
L 36.8125 47.703125 
L 18.3125 47.703125 
L 18.3125 18.015625 
Q 18.3125 11.328125 20.140625 9.421875 
Q 21.96875 7.515625 27.59375 7.515625 
L 36.8125 7.515625 
L 36.8125 0 
L 27.59375 0 
Q 17.1875 0 13.234375 3.875 
Q 9.28125 7.765625 9.28125 18.015625 
L 9.28125 47.703125 
L 2.6875 47.703125 
L 2.6875 54.6875 
L 9.28125 54.6875 
L 9.28125 70.21875 
z
" id="DejaVuSans-116"/>
     <path d="M 11.71875 12.40625 
L 22.015625 12.40625 
L 22.015625 0 
L 11.71875 0 
z
M 11.71875 51.703125 
L 22.015625 51.703125 
L 22.015625 39.3125 
L 11.71875 39.3125 
z
" id="DejaVuSans-58"/>
     <path d="M 44.28125 53.078125 
L 44.28125 44.578125 
Q 40.484375 46.53125 36.375 47.5 
Q 32.28125 48.484375 27.875 48.484375 
Q 21.1875 48.484375 17.84375 46.4375 
Q 14.5 44.390625 14.5 40.28125 
Q 14.5 37.15625 16.890625 35.375 
Q 19.28125 33.59375 26.515625 31.984375 
L 29.59375 31.296875 
Q 39.15625 29.25 43.1875 25.515625 
Q 47.21875 21.78125 47.21875 15.09375 
Q 47.21875 7.46875 41.1875 3.015625 
Q 35.15625 -1.421875 24.609375 -1.421875 
Q 20.21875 -1.421875 15.453125 -0.5625 
Q 10.6875 0.296875 5.421875 2 
L 5.421875 11.28125 
Q 10.40625 8.6875 15.234375 7.390625 
Q 20.0625 6.109375 24.8125 6.109375 
Q 31.15625 6.109375 34.5625 8.28125 
Q 37.984375 10.453125 37.984375 14.40625 
Q 37.984375 18.0625 35.515625 20.015625 
Q 33.0625 21.96875 24.703125 23.78125 
L 21.578125 24.515625 
Q 13.234375 26.265625 9.515625 29.90625 
Q 5.8125 33.546875 5.8125 39.890625 
Q 5.8125 47.609375 11.28125 51.796875 
Q 16.75 56 26.8125 56 
Q 31.78125 56 36.171875 55.265625 
Q 40.578125 54.546875 44.28125 53.078125 
z
" id="DejaVuSans-115"/>
     <path d="M 11.71875 12.40625 
L 22.015625 12.40625 
L 22.015625 4 
L 14.015625 -11.625 
L 7.71875 -11.625 
L 11.71875 4 
z
" id="DejaVuSans-44"/>
     <path d="M 9.8125 72.90625 
L 19.671875 72.90625 
L 19.671875 42.09375 
L 52.390625 72.90625 
L 65.09375 72.90625 
L 28.90625 38.921875 
L 67.671875 0 
L 54.6875 0 
L 19.671875 35.109375 
L 19.671875 0 
L 9.8125 0 
z
" id="DejaVuSans-75"/>
     <path d="M 54.890625 33.015625 
L 54.890625 0 
L 45.90625 0 
L 45.90625 32.71875 
Q 45.90625 40.484375 42.875 44.328125 
Q 39.84375 48.1875 33.796875 48.1875 
Q 26.515625 48.1875 22.3125 43.546875 
Q 18.109375 38.921875 18.109375 30.90625 
L 18.109375 0 
L 9.078125 0 
L 9.078125 54.6875 
L 18.109375 54.6875 
L 18.109375 46.1875 
Q 21.34375 51.125 25.703125 53.5625 
Q 30.078125 56 35.796875 56 
Q 45.21875 56 50.046875 50.171875 
Q 54.890625 44.34375 54.890625 33.015625 
z
" id="DejaVuSans-110"/>
     <path d="M 30.609375 48.390625 
Q 23.390625 48.390625 19.1875 42.75 
Q 14.984375 37.109375 14.984375 27.296875 
Q 14.984375 17.484375 19.15625 11.84375 
Q 23.34375 6.203125 30.609375 6.203125 
Q 37.796875 6.203125 41.984375 11.859375 
Q 46.1875 17.53125 46.1875 27.296875 
Q 46.1875 37.015625 41.984375 42.703125 
Q 37.796875 48.390625 30.609375 48.390625 
z
M 30.609375 56 
Q 42.328125 56 49.015625 48.375 
Q 55.71875 40.765625 55.71875 27.296875 
Q 55.71875 13.875 49.015625 6.21875 
Q 42.328125 -1.421875 30.609375 -1.421875 
Q 18.84375 -1.421875 12.171875 6.21875 
Q 5.515625 13.875 5.515625 27.296875 
Q 5.515625 40.765625 12.171875 48.375 
Q 18.84375 56 30.609375 56 
z
" id="DejaVuSans-111"/>
     <path d="M 4.203125 54.6875 
L 13.1875 54.6875 
L 24.421875 12.015625 
L 35.59375 54.6875 
L 46.1875 54.6875 
L 57.421875 12.015625 
L 68.609375 54.6875 
L 77.59375 54.6875 
L 63.28125 0 
L 52.6875 0 
L 40.921875 44.828125 
L 29.109375 0 
L 18.5 0 
z
" id="DejaVuSans-119"/>
     <path d="M 10.59375 45.40625 
L 73.1875 45.40625 
L 73.1875 37.203125 
L 10.59375 37.203125 
z
M 10.59375 25.484375 
L 73.1875 25.484375 
L 73.1875 17.1875 
L 10.59375 17.1875 
z
" id="DejaVuSans-61"/>
     <path d="M 9.8125 72.90625 
L 51.703125 72.90625 
L 51.703125 64.59375 
L 19.671875 64.59375 
L 19.671875 43.109375 
L 48.578125 43.109375 
L 48.578125 34.8125 
L 19.671875 34.8125 
L 19.671875 0 
L 9.8125 0 
z
" id="DejaVuSans-70"/>
     <path d="M 34.28125 27.484375 
Q 23.390625 27.484375 19.1875 25 
Q 14.984375 22.515625 14.984375 16.5 
Q 14.984375 11.71875 18.140625 8.90625 
Q 21.296875 6.109375 26.703125 6.109375 
Q 34.1875 6.109375 38.703125 11.40625 
Q 43.21875 16.703125 43.21875 25.484375 
L 43.21875 27.484375 
z
M 52.203125 31.203125 
L 52.203125 0 
L 43.21875 0 
L 43.21875 8.296875 
Q 40.140625 3.328125 35.546875 0.953125 
Q 30.953125 -1.421875 24.3125 -1.421875 
Q 15.921875 -1.421875 10.953125 3.296875 
Q 6 8.015625 6 15.921875 
Q 6 25.140625 12.171875 29.828125 
Q 18.359375 34.515625 30.609375 34.515625 
L 43.21875 34.515625 
L 43.21875 35.40625 
Q 43.21875 41.609375 39.140625 45 
Q 35.0625 48.390625 27.6875 48.390625 
Q 23 48.390625 18.546875 47.265625 
Q 14.109375 46.140625 10.015625 43.890625 
L 10.015625 52.203125 
Q 14.9375 54.109375 19.578125 55.046875 
Q 24.21875 56 28.609375 56 
Q 40.484375 56 46.34375 49.84375 
Q 52.203125 43.703125 52.203125 31.203125 
z
" id="DejaVuSans-97"/>
     <path d="M 9.421875 75.984375 
L 18.40625 75.984375 
L 18.40625 0 
L 9.421875 0 
z
" id="DejaVuSans-108"/>
     <path d="M 19.671875 64.796875 
L 19.671875 8.109375 
L 31.59375 8.109375 
Q 46.6875 8.109375 53.6875 14.9375 
Q 60.6875 21.78125 60.6875 36.53125 
Q 60.6875 51.171875 53.6875 57.984375 
Q 46.6875 64.796875 31.59375 64.796875 
z
M 9.8125 72.90625 
L 30.078125 72.90625 
Q 51.265625 72.90625 61.171875 64.09375 
Q 71.09375 55.28125 71.09375 36.53125 
Q 71.09375 17.671875 61.125 8.828125 
Q 51.171875 0 30.078125 0 
L 9.8125 0 
z
" id="DejaVuSans-68"/>
     <path d="M 45.40625 27.984375 
Q 45.40625 37.75 41.375 43.109375 
Q 37.359375 48.484375 30.078125 48.484375 
Q 22.859375 48.484375 18.828125 43.109375 
Q 14.796875 37.75 14.796875 27.984375 
Q 14.796875 18.265625 18.828125 12.890625 
Q 22.859375 7.515625 30.078125 7.515625 
Q 37.359375 7.515625 41.375 12.890625 
Q 45.40625 18.265625 45.40625 27.984375 
z
M 54.390625 6.78125 
Q 54.390625 -7.171875 48.1875 -13.984375 
Q 42 -20.796875 29.203125 -20.796875 
Q 24.46875 -20.796875 20.265625 -20.09375 
Q 16.0625 -19.390625 12.109375 -17.921875 
L 12.109375 -9.1875 
Q 16.0625 -11.328125 19.921875 -12.34375 
Q 23.78125 -13.375 27.78125 -13.375 
Q 36.625 -13.375 41.015625 -8.765625 
Q 45.40625 -4.15625 45.40625 5.171875 
L 45.40625 9.625 
Q 42.625 4.78125 38.28125 2.390625 
Q 33.9375 0 27.875 0 
Q 17.828125 0 11.671875 7.65625 
Q 5.515625 15.328125 5.515625 27.984375 
Q 5.515625 40.671875 11.671875 48.328125 
Q 17.828125 56 27.875 56 
Q 33.9375 56 38.28125 53.609375 
Q 42.625 51.21875 45.40625 46.390625 
L 45.40625 54.6875 
L 54.390625 54.6875 
z
" id="DejaVuSans-103"/>
     <path d="M 41.109375 46.296875 
Q 39.59375 47.171875 37.8125 47.578125 
Q 36.03125 48 33.890625 48 
Q 26.265625 48 22.1875 43.046875 
Q 18.109375 38.09375 18.109375 28.8125 
L 18.109375 0 
L 9.078125 0 
L 9.078125 54.6875 
L 18.109375 54.6875 
L 18.109375 46.1875 
Q 20.953125 51.171875 25.484375 53.578125 
Q 30.03125 56 36.53125 56 
Q 37.453125 56 38.578125 55.875 
Q 39.703125 55.765625 41.0625 55.515625 
z
" id="DejaVuSans-114"/>
     <path d="M 9.421875 54.6875 
L 18.40625 54.6875 
L 18.40625 0 
L 9.421875 0 
z
M 9.421875 75.984375 
L 18.40625 75.984375 
L 18.40625 64.59375 
L 9.421875 64.59375 
z
" id="DejaVuSans-105"/>
     <path d="M 10.6875 12.40625 
L 21 12.40625 
L 21 0 
L 10.6875 0 
z
" id="DejaVuSans-46"/>
    </defs>
    <g transform="translate(49.741875 35.472)scale(0.12 -0.12)">
     <use xlink:href="#DejaVuSans-40"/>
     <use x="39.013672" xlink:href="#DejaVuSans-57"/>
     <use x="102.636719" xlink:href="#DejaVuSans-52"/>
     <use x="166.259766" xlink:href="#DejaVuSans-41"/>
     <use x="205.273438" xlink:href="#DejaVuSans-32"/>
     <use x="237.060547" xlink:href="#DejaVuSans-83"/>
     <use x="300.537109" xlink:href="#DejaVuSans-117"/>
     <use x="363.916016" xlink:href="#DejaVuSans-98"/>
     <use x="427.392578" xlink:href="#DejaVuSans-106"/>
     <use x="455.175781" xlink:href="#DejaVuSans-101"/>
     <use x="516.699219" xlink:href="#DejaVuSans-99"/>
     <use x="571.679688" xlink:href="#DejaVuSans-116"/>
     <use x="610.888672" xlink:href="#DejaVuSans-58"/>
     <use x="644.580078" xlink:href="#DejaVuSans-32"/>
     <use x="676.367188" xlink:href="#DejaVuSans-115"/>
     <use x="728.466797" xlink:href="#DejaVuSans-50"/>
     <use x="792.089844" xlink:href="#DejaVuSans-51"/>
     <use x="855.712891" xlink:href="#DejaVuSans-44"/>
     <use x="887.5" xlink:href="#DejaVuSans-32"/>
     <use x="919.287109" xlink:href="#DejaVuSans-75"/>
     <use x="984.863281" xlink:href="#DejaVuSans-110"/>
     <use x="1048.242188" xlink:href="#DejaVuSans-111"/>
     <use x="1109.423828" xlink:href="#DejaVuSans-119"/>
     <use x="1191.210938" xlink:href="#DejaVuSans-110"/>
     <use x="1254.589844" xlink:href="#DejaVuSans-32"/>
     <use x="1286.376953" xlink:href="#DejaVuSans-61"/>
     <use x="1370.166016" xlink:href="#DejaVuSans-32"/>
     <use x="1401.953125" xlink:href="#DejaVuSans-70"/>
     <use x="1459.332031" xlink:href="#DejaVuSans-97"/>
     <use x="1520.611328" xlink:href="#DejaVuSans-108"/>
     <use x="1548.394531" xlink:href="#DejaVuSans-115"/>
     <use x="1600.494141" xlink:href="#DejaVuSans-101"/>
     <use x="1662.017578" xlink:href="#DejaVuSans-44"/>
     <use x="1693.804688" xlink:href="#DejaVuSans-32"/>
     <use x="1725.591797" xlink:href="#DejaVuSans-68"/>
     <use x="1802.59375" xlink:href="#DejaVuSans-101"/>
     <use x="1864.117188" xlink:href="#DejaVuSans-103"/>
     <use x="1927.59375" xlink:href="#DejaVuSans-114"/>
     <use x="1968.675781" xlink:href="#DejaVuSans-101"/>
     <use x="2030.199219" xlink:href="#DejaVuSans-101"/>
     <use x="2091.722656" xlink:href="#DejaVuSans-32"/>
     <use x="2123.509766" xlink:href="#DejaVuSans-61"/>
     <use x="2207.298828" xlink:href="#DejaVuSans-32"/>
     <use x="2239.085938" xlink:href="#DejaVuSans-49"/>
     <use x="2302.708984" xlink:href="#DejaVuSans-44"/>
     <use x="2334.496094" xlink:href="#DejaVuSans-32"/>
     <use x="2366.283203" xlink:href="#DejaVuSans-68"/>
     <use x="2443.285156" xlink:href="#DejaVuSans-117"/>
     <use x="2506.664062" xlink:href="#DejaVuSans-114"/>
     <use x="2547.777344" xlink:href="#DejaVuSans-97"/>
     <use x="2609.056641" xlink:href="#DejaVuSans-116"/>
     <use x="2648.265625" xlink:href="#DejaVuSans-105"/>
     <use x="2676.048828" xlink:href="#DejaVuSans-111"/>
     <use x="2737.230469" xlink:href="#DejaVuSans-110"/>
     <use x="2800.609375" xlink:href="#DejaVuSans-32"/>
     <use x="2832.396484" xlink:href="#DejaVuSans-61"/>
     <use x="2916.185547" xlink:href="#DejaVuSans-32"/>
     <use x="2947.972656" xlink:href="#DejaVuSans-48"/>
     <use x="3011.595703" xlink:href="#DejaVuSans-46"/>
     <use x="3043.382812" xlink:href="#DejaVuSans-49"/>
    </g>
   </g>
  </g>
 </g>
 <defs>
  <clipPath id="pb2d7e120b8">
   <rect height="266.112" width="357.12" x="57.6" y="41.472"/>
  </clipPath>
 </defs>
</svg>
