<?xml version="1.0" encoding="utf-8" standalone="no"?>
<!DOCTYPE svg PUBLIC "-//W3C//DTD SVG 1.1//EN"
  "http://www.w3.org/Graphics/SVG/1.1/DTD/svg11.dtd">
<!-- Created with matplotlib (https://matplotlib.org/) -->
<svg height="345.6pt" version="1.1" viewBox="0 0 460.8 345.6" width="460.8pt" xmlns="http://www.w3.org/2000/svg" xmlns:xlink="http://www.w3.org/1999/xlink">
 <defs>
  <style type="text/css">
*{stroke-linecap:butt;stroke-linejoin:round;}
  </style>
 </defs>
 <g id="figure_1">
  <g id="patch_1">
   <path d="M 0 345.6 
L 460.8 345.6 
L 460.8 0 
L 0 0 
z
" style="fill:#ffffff;"/>
  </g>
  <g id="axes_1">
   <g id="patch_2">
    <path d="M 57.6 307.584 
L 414.72 307.584 
L 414.72 41.472 
L 57.6 41.472 
z
" style="fill:#ffffff;"/>
   </g>
   <g id="line2d_1">
    <path clip-path="url(#p6436fec151)" d="M 396.274862 55.530694 
L 396.274862 56.18359 
L 396.000596 56.836486 
L 395.44597 55.530694 
L 395.723283 54.873792 
L 396.000596 55.530694 
L 396.274862 55.530694 
L 396.000596 55.530694 
L 395.723283 54.873792 
L 395.723283 56.18359 
L 396.000596 56.836486 
L 396.274862 56.836486 
L 396.552175 56.18359 
L 396.552175 55.530694 
L 396.274862 56.18359 
L 396.552175 57.489382 
L 396.829488 58.146283 
L 396.552175 57.489382 
L 396.000596 55.530694 
L 396.274862 54.220896 
L 396.274862 53.568 
L 396.000596 55.530694 
L 396.274862 58.146283 
L 396.829488 58.799179 
L 397.106801 58.146283 
L 397.106801 58.146283 
L 396.552175 57.489382 
L 397.106801 57.489382 
L 397.106801 57.489382 
L 397.106801 56.836486 
L 396.829488 56.836486 
L 396.552175 57.489382 
L 396.552175 56.836486 
L 396.000596 56.18359 
L 395.723283 56.836486 
L 395.723283 58.146283 
L 396.000596 58.146283 
L 396.000596 58.146283 
L 395.723283 58.799179 
L 395.44597 58.146283 
L 395.723283 57.489382 
L 396.000596 58.146283 
L 396.552175 58.799179 
L 396.829488 58.799179 
L 395.723283 60.104971 
L 395.723283 60.761873 
L 395.723283 58.799179 
L 396.000596 58.799179 
L 396.000596 60.104971 
L 396.000596 60.104971 
L 395.723283 58.799179 
L 395.44597 58.799179 
L 395.44597 60.104971 
L 395.44597 59.452075 
L 395.723283 58.799179 
L 396.552175 58.799179 
L 397.106801 59.452075 
L 397.106801 59.452075 
L 396.829488 60.104971 
L 396.829488 60.104971 
L 396.552175 60.104971 
L 396.552175 60.761873 
L 396.274862 62.067665 
L 395.44597 62.720561 
L 395.168656 62.067665 
L 395.723283 61.414769 
L 396.274862 62.067665 
L 396.000596 62.720561 
L 395.44597 62.067665 
L 395.723283 61.414769 
L 395.723283 60.761873 
L 395.44597 61.414769 
L 395.723283 62.067665 
L 396.552175 62.067665 
L 397.106801 62.720561 
L 396.829488 63.373457 
L 396.000596 64.683254 
L 395.723283 64.683254 
L 396.000596 64.030358 
L 396.000596 62.067665 
L 395.723283 61.414769 
L 396.000596 62.720561 
L 396.552175 64.030358 
L 397.106801 64.030358 
L 396.829488 63.373457 
L 396.274862 62.720561 
L 396.000596 61.414769 
L 395.44597 60.761873 
L 395.723283 61.414769 
L 396.829488 60.761873 
L 396.829488 60.761873 
L 396.000596 61.414769 
L 395.44597 61.414769 
L 395.723283 61.414769 
L 396.000596 62.067665 
L 395.723283 63.373457 
L 395.168656 64.683254 
L 395.168656 64.030358 
L 395.44597 62.720561 
L 395.723283 62.067665 
L 395.723283 63.373457 
L 395.44597 65.33615 
L 394.89439 65.33615 
L 394.89439 64.030358 
L 395.44597 62.720561 
L 396.000596 62.067665 
L 396.000596 62.720561 
L 395.723283 62.720561 
L 395.723283 60.761873 
L 396.000596 60.104971 
L 396.552175 59.452075 
L 396.552175 59.452075 
L 397.65838 62.067665 
L 397.106801 61.414769 
L 397.106801 60.761873 
L 397.381067 60.104971 
L 397.381067 60.104971 
L 397.381067 59.452075 
L 398.213007 58.146283 
L 398.487273 58.146283 
L 397.935694 58.799179 
L 397.65838 59.452075 
L 397.65838 58.799179 
L 397.381067 57.489382 
L 396.829488 56.18359 
L 396.829488 56.18359 
L 396.552175 56.18359 
L 395.723283 56.836486 
L 395.168656 58.146283 
L 395.168656 60.104971 
L 395.44597 59.452075 
L 396.000596 60.104971 
L 396.829488 62.067665 
L 397.106801 64.030358 
L 396.274862 63.373457 
L 395.44597 61.414769 
L 395.44597 63.373457 
L 395.44597 63.373457 
L 395.723283 63.373457 
L 395.723283 64.683254 
L 396.000596 65.989046 
L 396.552175 65.989046 
L 396.552175 64.683254 
L 396.274862 63.373457 
L 395.723283 62.720561 
L 395.723283 62.720561 
L 396.552175 63.373457 
L 396.552175 63.373457 
L 396.274862 63.373457 
L 395.44597 64.030358 
L 395.168656 64.683254 
L 395.44597 64.030358 
L 395.44597 62.720561 
L 395.168656 63.373457 
L 395.168656 66.645948 
L 395.44597 65.33615 
L 395.168656 65.33615 
L 394.062451 67.95174 
L 394.062451 67.95174 
L 394.89439 67.298844 
L 395.168656 67.298844 
L 394.89439 67.95174 
L 394.339764 67.298844 
L 394.339764 66.645948 
L 394.617077 65.989046 
L 395.168656 66.645948 
L 395.44597 67.298844 
L 395.723283 67.298844 
L 394.617077 64.683254 
L 394.062451 64.683254 
L 394.062451 66.645948 
L 394.339764 68.604636 
L 394.89439 69.914433 
L 394.89439 69.261537 
L 394.617077 66.645948 
L 394.617077 66.645948 
L 394.339764 66.645948 
L 394.339764 65.33615 
L 394.89439 65.33615 
L 394.89439 68.604636 
L 394.89439 68.604636 
L 394.062451 68.604636 
L 394.062451 68.604636 
L 393.788185 67.95174 
L 394.062451 68.604636 
L 392.959293 68.604636 
L 393.233559 68.604636 
L 393.788185 67.95174 
L 394.89439 67.95174 
L 394.89439 67.298844 
L 394.89439 68.604636 
L 394.617077 69.261537 
L 394.339764 69.261537 
L 394.89439 69.261537 
L 396.000596 69.914433 
L 396.000596 69.914433 
L 394.89439 68.604636 
L 394.339764 66.645948 
L 394.062451 66.645948 
L 394.062451 72.530023 
L 393.510872 72.530023 
L 393.510872 71.877127 
L 393.233559 71.220225 
L 392.68198 70.567329 
L 392.959293 69.914433 
L 393.510872 71.220225 
L 393.510872 73.182919 
L 393.788185 73.835815 
L 393.788185 67.95174 
L 393.788185 69.261537 
L 393.233559 69.914433 
L 392.68198 69.261537 
L 393.233559 69.914433 
L 393.233559 71.220225 
L 391.853087 71.220225 
L 391.853087 71.220225 
L 392.127353 70.567329 
L 392.68198 69.914433 
L 393.788185 69.914433 
L 393.510872 70.567329 
L 392.68198 71.220225 
L 392.404666 71.877127 
L 392.68198 72.530023 
L 393.233559 72.530023 
L 393.233559 72.530023 
L 392.959293 71.877127 
L 393.233559 69.914433 
L 393.510872 69.261537 
L 394.062451 69.261537 
L 394.062451 70.567329 
L 393.788185 70.567329 
L 393.788185 69.914433 
L 393.510872 70.567329 
L 392.68198 73.182919 
L 392.404666 74.488711 
L 392.68198 73.182919 
L 392.959293 70.567329 
L 392.959293 68.604636 
L 392.404666 72.530023 
L 392.127353 73.182919 
L 392.68198 73.182919 
L 392.404666 74.488711 
L 392.127353 77.1043 
L 392.404666 78.414098 
L 392.68198 78.414098 
L 393.233559 77.1043 
L 393.233559 75.145612 
L 393.233559 75.145612 
L 392.959293 75.798508 
L 392.68198 77.761202 
L 392.68198 79.066994 
L 392.68198 77.761202 
L 392.959293 75.798508 
L 393.233559 75.145612 
L 393.233559 75.798508 
L 392.68198 75.798508 
L 392.959293 75.798508 
L 392.959293 76.451404 
L 392.68198 75.798508 
L 392.68198 75.145612 
L 392.959293 74.488711 
L 393.510872 74.488711 
L 393.510872 74.488711 
L 393.233559 75.145612 
L 393.233559 77.1043 
L 392.959293 77.1043 
L 392.68198 75.798508 
L 392.959293 74.488711 
L 394.062451 74.488711 
L 394.062451 75.145612 
L 394.062451 75.145612 
L 393.788185 75.145612 
L 393.788185 75.145612 
L 394.062451 75.798508 
L 394.062451 76.451404 
L 393.788185 75.798508 
L 393.510872 74.488711 
L 392.959293 75.798508 
L 392.127353 77.1043 
L 390.746882 76.451404 
L 389.08605 74.488711 
L 387.428265 73.182919 
L 385.767433 72.530023 
L 383.555023 71.220225 
L 373.047594 69.261537 
L 370.280557 67.95174 
L 366.687675 66.645948 
L 362.262853 65.33615 
L 357.009139 64.030358 
L 352.307004 62.067665 
L 344.563565 59.452075 
L 340.138743 58.799179 
L 319.952779 61.414769 
L 314.973331 62.720561 
L 303.082384 62.720561 
L 297.274043 64.683254 
L 292.020329 67.298844 
L 286.766615 68.604636 
L 281.235587 69.261537 
L 275.430294 70.567329 
L 269.899267 72.530023 
L 264.919819 75.145612 
L 260.220731 77.761202 
L 255.795909 79.71989 
L 250.816461 81.682583 
L 245.562747 85.60797 
L 240.309032 91.492045 
L 235.329584 96.723224 
L 230.07587 101.297502 
L 224.822156 104.565987 
L 214.588993 113.065652 
L 210.167219 117.643935 
L 206.016663 120.91242 
L 202.42378 124.837807 
L 199.37943 128.759189 
L 196.61544 133.990368 
L 190.807099 147.721212 
L 189.978207 150.336801 
L 189.149315 152.299495 
L 187.488483 154.915084 
L 186.108012 158.836466 
L 186.108012 162.104951 
L 186.382277 165.373437 
L 186.382277 168.645928 
L 185.553385 171.257512 
L 185.001806 173.873101 
L 185.276072 176.488691 
L 185.553385 177.798488 
L 186.108012 179.761182 
L 186.382277 181.71987 
L 185.830698 183.029667 
L 185.001806 184.335459 
L 184.724493 184.335459 
L 184.44718 183.682563 
L 184.44718 187.603945 
L 184.169866 188.260846 
L 183.618287 188.913742 
L 182.512082 188.913742 
L 181.68319 189.566638 
L 181.128563 191.529332 
L 181.128563 194.144921 
L 181.405877 195.450713 
L 181.405877 193.492025 
L 181.405877 194.797817 
L 182.234769 198.719199 
L 181.68319 199.3761 
L 180.299671 200.028996 
L 179.470779 201.334788 
L 179.470779 201.99169 
L 180.022358 202.644586 
L 180.299671 202.644586 
L 180.576984 203.297482 
L 180.022358 203.950378 
L 179.193466 204.607279 
L 178.916152 205.913071 
L 178.916152 206.565967 
L 178.916152 206.565967 
L 179.193466 207.222869 
L 179.193466 211.797146 
L 178.916152 211.797146 
L 177.258368 214.412736 
L 177.258368 214.412736 
L 178.364573 214.412736 
L 179.193466 213.75984 
L 178.916152 213.75984 
L 178.08726 214.412736 
L 177.535681 216.37543 
L 177.258368 218.991019 
L 176.981055 220.296811 
L 176.429476 221.606609 
L 176.429476 222.912401 
L 176.703741 222.912401 
L 175.874849 221.606609 
L 175.32327 220.296811 
L 175.32327 220.949707 
L 175.597536 222.912401 
L 175.874849 223.565297 
L 175.874849 223.565297 
L 176.429476 225.52799 
L 176.429476 227.490684 
L 176.152162 227.490684 
L 176.152162 227.490684 
L 176.152162 226.837788 
L 176.152162 226.837788 
L 176.429476 228.14358 
L 176.429476 229.453377 
L 175.597536 230.759169 
L 174.768644 230.759169 
L 173.939751 230.106273 
L 173.110859 227.490684 
L 173.385125 226.837788 
L 173.385125 231.412065 
L 173.662438 234.027655 
L 173.662438 234.027655 
L 173.110859 233.374759 
L 172.833546 234.027655 
L 173.110859 235.990348 
L 173.662438 237.29614 
L 173.662438 237.29614 
L 173.110859 236.643244 
L 172.833546 235.990348 
L 172.833546 235.990348 
L 172.833546 236.643244 
L 172.27892 237.953042 
L 172.27892 234.680551 
L 172.27892 234.680551 
L 171.72734 237.29614 
L 171.172714 238.605938 
L 170.621135 239.258834 
L 170.898448 239.258834 
L 172.27892 238.605938 
L 173.110859 239.91173 
L 172.833546 241.221527 
L 172.004654 241.874423 
L 170.898448 241.874423 
L 171.172714 241.221527 
L 171.172714 240.568631 
L 171.172714 241.874423 
L 170.898448 241.874423 
L 170.898448 240.568631 
L 170.621135 239.258834 
L 170.066509 239.258834 
L 169.792243 239.91173 
L 169.237616 239.91173 
L 168.960303 239.258834 
L 168.960303 236.643244 
L 169.51493 236.643244 
L 169.51493 238.605938 
L 168.960303 239.91173 
L 168.131411 239.91173 
L 167.302519 240.568631 
L 167.302519 241.874423 
L 167.854098 241.874423 
L 167.854098 241.874423 
L 167.302519 241.221527 
L 167.302519 240.568631 
L 168.131411 240.568631 
L 168.960303 241.874423 
L 169.237616 243.184221 
L 168.408724 243.837117 
L 167.579832 242.527319 
L 167.579832 241.221527 
L 167.854098 241.221527 
L 167.579832 241.874423 
L 166.747892 241.221527 
L 166.196313 240.568631 
L 166.196313 240.568631 
L 166.473626 241.221527 
L 166.747892 242.527319 
L 166.747892 246.452706 
L 166.473626 246.452706 
L 166.473626 245.142909 
L 167.025205 243.184221 
L 167.025205 244.490013 
L 166.747892 245.142909 
L 166.747892 245.142909 
L 166.473626 245.142909 
L 165.919 245.795805 
L 163.15501 245.795805 
L 159.281767 247.105602 
L 154.582679 247.105602 
L 151.538329 247.758498 
L 148.497026 247.105602 
L 145.178409 247.105602 
L 141.308214 246.452706 
L 136.606079 246.452706 
L 131.352364 247.105602 
L 126.375964 249.068296 
L 122.502721 250.374088 
L 119.738731 249.721192 
L 116.420114 249.068296 
L 112.269558 249.068296 
L 107.847784 250.374088 
L 103.422962 252.336781 
L 99.549719 254.299475 
L 95.953789 256.258163 
L 92.63822 258.220856 
L 90.148496 259.526648 
L 87.658772 261.489342 
L 85.446361 264.104931 
L 83.788577 266.720521 
L 81.850431 267.373417 
L 80.192647 267.373417 
L 78.531815 269.989006 
L 77.428657 270.641902 
L 76.596717 270.641902 
L 76.322451 272.604596 
L 76.87403 275.873081 
L 77.428657 277.835775 
L 78.257549 277.182879 
L 78.809128 275.220185 
L 79.363755 275.220185 
L 79.915334 278.488671 
L 80.192647 279.145572 
L 80.192647 279.798468 
L 80.46996 280.451364 
L 81.021539 281.10426 
L 81.298852 280.451364 
L 81.298852 279.798468 
L 81.298852 279.798468 
L 81.021539 279.798468 
L 80.46996 281.10426 
L 80.192647 281.10426 
L 79.63802 281.757156 
L 79.086441 283.71985 
L 78.531815 284.372746 
L 78.257549 283.066954 
L 78.531815 281.757156 
L 77.980236 281.757156 
L 77.428657 283.71985 
L 77.980236 285.029647 
L 78.531815 285.682543 
L 78.809128 285.682543 
L 78.809128 285.029647 
L 78.531815 284.372746 
L 78.531815 284.372746 
L 77.980236 283.71985 
L 77.702923 283.066954 
L 77.702923 283.71985 
L 78.257549 284.372746 
L 78.531815 284.372746 
L 78.531815 283.066954 
L 78.257549 282.414058 
L 77.980236 282.414058 
L 77.980236 283.066954 
L 78.257549 285.682543 
L 77.980236 285.029647 
L 77.702923 285.029647 
L 77.702923 286.335439 
L 77.702923 285.682543 
L 77.428657 285.029647 
L 77.151344 285.029647 
L 76.045138 287.645237 
L 75.767825 286.988335 
L 75.767825 285.029647 
L 75.490512 284.372746 
L 74.938933 284.372746 
L 74.938933 285.682543 
L 76.322451 285.682543 
L 76.322451 285.682543 
L 75.767825 284.372746 
L 75.490512 284.372746 
L 75.216246 285.682543 
L 75.216246 286.988335 
L 74.66162 286.988335 
L 75.767825 286.988335 
L 75.767825 286.335439 
L 75.767825 286.335439 
L 75.216246 287.645237 
L 75.216246 288.298133 
L 75.216246 288.298133 
L 74.938933 288.298133 
L 74.66162 288.951029 
L 74.938933 290.260826 
L 74.938933 290.913722 
L 74.66162 291.566618 
L 74.384306 291.566618 
L 74.11004 290.913722 
L 74.384306 289.603925 
L 74.938933 290.913722 
L 74.66162 291.566618 
L 74.66162 290.260826 
L 74.938933 290.260826 
L 75.216246 290.913722 
L 74.938933 290.913722 
L 76.045138 290.913722 
L 76.045138 292.219514 
L 75.767825 292.87241 
L 75.767825 290.913722 
L 75.216246 291.566618 
L 74.938933 291.566618 
L 75.216246 290.913722 
L 75.216246 290.913722 
L 74.938933 293.529312 
L 74.66162 294.835104 
L 74.66162 294.182208 
L 75.216246 294.182208 
L 75.767825 295.488 
L 75.490512 295.488 
L 74.66162 294.182208 
L 73.832727 293.529312 
L 73.832727 294.182208 
L 74.66162 293.529312 
L 76.322451 291.566618 
L 75.767825 292.87241 
L 75.216246 293.529312 
L 74.938933 293.529312 
L 75.216246 292.87241 
L 76.322451 291.566618 
L 76.322451 291.566618 
L 75.767825 290.913722 
L 75.490512 290.260826 
L 75.490512 292.87241 
L 75.216246 294.182208 
L 74.938933 294.835104 
L 75.216246 294.835104 
L 76.045138 292.87241 
L 75.490512 292.219514 
L 74.938933 292.87241 
L 74.66162 292.87241 
L 74.66162 292.219514 
L 74.938933 291.566618 
L 75.490512 290.913722 
L 75.767825 290.913722 
L 75.767825 291.566618 
L 75.767825 291.566618 
L 75.490512 292.87241 
L 75.490512 294.182208 
L 75.216246 294.835104 
L 74.938933 294.182208 
L 74.66162 292.87241 
L 74.938933 291.566618 
L 75.490512 292.219514 
L 75.767825 294.182208 
L 75.490512 294.835104 
L 75.490512 294.835104 
L 75.490512 295.488 
L 75.490512 294.835104 
L 75.216246 291.566618 
L 75.767825 292.87241 
L 75.490512 292.219514 
L 75.490512 290.913722 
L 76.045138 290.260826 
L 76.322451 288.951029 
L 76.045138 288.951029 
L 75.767825 290.260826 
L 75.767825 291.566618 
L 74.66162 294.182208 
L 75.490512 294.182208 
L 75.490512 295.488 
L 76.045138 294.835104 
L 75.767825 294.182208 
L 75.216246 294.182208 
L 74.938933 293.529312 
L 75.216246 292.219514 
L 75.216246 292.219514 
L 76.045138 292.219514 
L 76.045138 294.182208 
L 75.767825 294.835104 
L 76.045138 294.182208 
L 76.045138 293.529312 
L 76.322451 294.182208 
L 76.322451 294.835104 
L 77.428657 294.835104 
L 79.363755 292.219514 
L 83.788577 285.682543 
L 86.552567 283.066954 
L 89.871183 279.145572 
L 94.850631 274.567289 
L 101.484817 271.298804 
L 108.399363 268.026313 
L 115.036596 262.799139 
L 122.502721 256.258163 
L 130.523472 250.374088 
L 138.81849 243.184221 
L 146.839241 237.29614 
L 165.367421 224.875094 
L 175.597536 217.028326 
L 185.553385 209.181557 
L 195.231921 201.99169 
L 204.358878 194.797817 
L 213.760101 186.298153 
L 222.609745 179.10428 
L 230.353183 173.873101 
L 237.541995 169.95172 
L 245.00812 165.373437 
L 259.388791 158.18357 
L 265.474445 154.258183 
L 271.834365 150.989697 
L 278.194284 148.374108 
L 284.002625 146.41542 
L 289.256339 145.758518 
L 293.681161 145.758518 
L 297.551356 146.41542 
L 303.911276 145.105622 
L 306.401 145.758518 
L 308.336098 147.068316 
L 308.613411 148.374108 
L 308.061832 147.721212 
L 307.229892 149.683905 
L 306.401 152.952391 
L 305.572108 155.56798 
L 304.188589 158.18357 
L 302.80507 161.452055 
L 301.147286 164.067645 
L 299.212188 166.030338 
L 297.551356 167.33613 
L 295.893572 167.989026 
L 294.510053 167.989026 
L 293.955427 168.645928 
L 293.403848 168.645928 
L 293.681161 168.645928 
L 293.955427 167.33613 
L 293.955427 166.030338 
L 293.955427 168.645928 
L 294.23274 168.645928 
L 294.23274 166.683234 
L 294.510053 165.373437 
L 295.893572 165.373437 
L 296.167838 166.683234 
L 296.167838 167.989026 
L 295.893572 168.645928 
L 295.338945 168.645928 
L 295.061632 167.989026 
L 295.061632 168.645928 
L 294.510053 171.257512 
L 293.955427 171.914413 
L 293.403848 171.914413 
L 292.852269 175.835795 
L 292.574955 176.488691 
L 291.191437 176.488691 
L 290.914123 175.835795 
L 290.362544 175.182899 
L 290.362544 174.530003 
L 290.914123 174.530003 
L 291.746063 173.873101 
L 292.020329 175.182899 
L 292.020329 177.145592 
L 290.914123 179.761182 
L 291.191437 181.066974 
L 291.746063 181.71987 
L 291.746063 180.414078 
L 291.46875 180.414078 
L 291.191437 181.066974 
L 290.914123 180.414078 
L 291.191437 180.414078 
L 291.191437 181.71987 
L 291.46875 182.376771 
L 291.46875 181.71987 
L 290.914123 181.71987 
L 290.639858 183.029667 
L 290.639858 186.298153 
L 290.362544 185.645257 
L 290.639858 184.335459 
L 291.46875 183.682563 
L 291.746063 184.335459 
L 291.46875 185.645257 
L 290.914123 186.951049 
L 290.362544 186.951049 
L 290.085231 186.298153 
L 290.639858 185.645257 
L 291.191437 186.951049 
L 291.191437 187.603945 
L 290.639858 186.298153 
L 290.639858 184.988355 
L 290.914123 186.951049 
L 290.362544 189.566638 
L 289.807918 189.566638 
L 289.807918 186.951049 
L 289.533652 186.298153 
L 288.979026 186.298153 
L 288.701713 186.951049 
L 289.256339 190.876436 
L 289.533652 190.876436 
L 289.533652 190.219534 
L 289.256339 190.219534 
L 289.256339 192.182228 
L 288.979026 192.835124 
L 288.427447 192.182228 
L 288.150134 191.529332 
L 288.427447 192.835124 
L 288.979026 194.797817 
L 288.427447 195.450713 
L 287.87282 194.797817 
L 287.595507 195.450713 
L 287.595507 196.103609 
L 287.87282 196.103609 
L 288.701713 195.450713 
L 288.701713 194.797817 
L 287.595507 193.492025 
L 287.321241 192.835124 
L 287.321241 192.835124 
L 287.043928 194.144921 
L 287.043928 194.797817 
L 286.766615 195.450713 
L 287.321241 198.066303 
L 287.321241 198.066303 
L 287.043928 198.066303 
L 287.043928 197.413407 
L 286.766615 196.760511 
L 286.215036 196.103609 
L 285.937723 196.760511 
L 285.937723 197.413407 
L 285.383096 198.066303 
L 285.10883 197.413407 
L 286.489302 200.681892 
L 286.489302 200.681892 
L 286.215036 198.719199 
L 286.215036 197.413407 
L 286.215036 198.066303 
L 286.489302 198.719199 
L 286.766615 198.719199 
L 286.766615 201.334788 
L 286.489302 201.334788 
L 286.489302 200.681892 
L 286.215036 200.028996 
L 285.937723 198.719199 
L 285.660409 198.719199 
L 285.383096 199.3761 
L 285.383096 200.028996 
L 285.10883 200.028996 
L 284.554204 198.719199 
L 284.554204 198.719199 
L 284.831517 200.028996 
L 285.383096 201.334788 
L 285.383096 202.644586 
L 285.10883 203.297482 
L 284.276891 203.950378 
L 283.725312 204.607279 
L 283.725312 205.260175 
L 283.725312 204.607279 
L 284.002625 203.297482 
L 284.276891 202.644586 
L 284.554204 203.950378 
L 285.10883 204.607279 
L 285.660409 204.607279 
L 285.383096 204.607279 
L 285.10883 203.950378 
L 285.10883 204.607279 
L 284.554204 207.222869 
L 284.831517 207.875765 
L 285.10883 207.222869 
L 285.383096 207.875765 
L 284.554204 207.875765 
L 283.447998 207.222869 
L 283.447998 205.260175 
L 284.276891 203.950378 
L 284.276891 203.950378 
L 284.002625 204.607279 
L 284.276891 205.913071 
L 284.831517 207.222869 
L 285.10883 208.528661 
L 285.10883 208.528661 
L 284.276891 207.875765 
L 283.725312 206.565967 
L 284.002625 206.565967 
L 284.554204 207.222869 
L 284.002625 208.528661 
L 283.447998 210.491354 
L 283.725312 211.797146 
L 284.276891 211.797146 
L 284.276891 211.14425 
L 283.725312 210.491354 
L 283.170685 210.491354 
L 282.896419 209.834453 
L 282.896419 208.528661 
L 283.447998 207.875765 
L 283.725312 208.528661 
L 284.002625 209.834453 
L 283.447998 209.834453 
L 283.170685 209.181557 
L 282.896419 207.875765 
L 282.896419 207.875765 
L 282.896419 209.834453 
L 282.341793 209.834453 
L 282.896419 211.14425 
L 281.790214 208.528661 
L 282.341793 208.528661 
L 283.170685 206.565967 
L 282.896419 205.260175 
L 282.341793 205.913071 
L 282.341793 208.528661 
L 282.619106 209.834453 
L 282.06448 215.065632 
L 281.790214 215.065632 
L 282.06448 213.75984 
L 282.619106 213.106944 
L 282.896419 213.106944 
L 282.06448 213.106944 
L 281.235587 212.450042 
L 281.235587 211.797146 
L 280.958274 213.106944 
L 281.235587 213.75984 
L 281.512901 213.75984 
L 281.235587 213.75984 
L 280.958274 214.412736 
L 280.958274 214.412736 
L 281.235587 214.412736 
L 281.512901 215.065632 
L 281.512901 216.37543 
L 281.235587 217.681222 
L 281.235587 218.338123 
L 281.235587 217.681222 
L 281.512901 215.722534 
L 281.790214 215.065632 
L 281.790214 215.722534 
L 281.790214 214.412736 
L 282.06448 215.065632 
L 281.790214 216.37543 
L 280.684008 216.37543 
L 280.129382 217.028326 
L 280.406695 217.681222 
L 280.958274 217.681222 
L 281.235587 217.028326 
L 281.512901 217.681222 
L 282.341793 218.338123 
L 282.341793 218.338123 
L 281.790214 218.338123 
L 281.235587 218.991019 
L 280.958274 218.991019 
L 280.958274 217.681222 
L 280.684008 216.37543 
L 280.406695 217.681222 
L 280.684008 219.643915 
L 280.958274 219.643915 
L 280.958274 218.338123 
L 280.406695 217.681222 
L 280.406695 219.643915 
L 280.129382 218.338123 
L 279.852069 217.681222 
L 279.852069 217.681222 
L 279.852069 218.338123 
L 280.684008 218.991019 
L 280.958274 218.991019 
L 280.684008 218.991019 
L 280.684008 216.37543 
L 280.958274 213.75984 
L 281.512901 213.75984 
L 282.619106 216.37543 
L 281.790214 216.37543 
L 280.406695 220.949707 
L 280.406695 212.450042 
L 280.958274 211.797146 
L 281.235587 212.450042 
L 281.235587 212.450042 
L 280.958274 212.450042 
L 280.406695 213.106944 
L 280.129382 214.412736 
L 280.684008 214.412736 
L 281.512901 213.106944 
L 281.790214 211.797146 
L 282.06448 211.797146 
L 281.512901 211.797146 
L 281.235587 211.14425 
L 281.512901 210.491354 
L 281.790214 209.181557 
L 282.06448 208.528661 
L 282.06448 209.181557 
L 281.512901 209.834453 
L 281.235587 210.491354 
L 281.512901 210.491354 
L 281.512901 208.528661 
L 282.06448 209.181557 
L 282.619106 209.181557 
L 282.619106 208.528661 
L 282.341793 209.181557 
L 282.341793 210.491354 
L 282.341793 209.181557 
L 281.790214 208.528661 
L 281.235587 209.181557 
L 281.512901 209.834453 
L 282.06448 210.491354 
L 282.341793 210.491354 
L 282.896419 209.834453 
L 282.896419 208.528661 
L 282.896419 208.528661 
L 282.341793 209.181557 
L 282.06448 208.528661 
L 282.341793 207.222869 
L 282.896419 206.565967 
L 283.170685 206.565967 
L 282.896419 207.875765 
L 282.341793 208.528661 
L 282.06448 209.834453 
L 282.619106 208.528661 
L 282.619106 207.875765 
L 282.619106 207.875765 
L 282.06448 207.222869 
L 282.341793 206.565967 
L 282.619106 207.222869 
L 282.896419 208.528661 
L 282.896419 211.14425 
L 283.170685 209.834453 
L 282.619106 207.875765 
L 282.06448 207.222869 
L 282.06448 207.875765 
L 282.619106 208.528661 
L 282.619106 208.528661 
L 282.341793 207.875765 
L 282.619106 207.875765 
L 282.619106 207.875765 
L 282.619106 208.528661 
L 282.619106 206.565967 
L 282.896419 206.565967 
L 282.619106 207.222869 
L 282.341793 207.222869 
L 282.619106 205.913071 
L 283.447998 206.565967 
L 284.002625 207.875765 
L 283.447998 209.181557 
L 282.896419 209.181557 
L 282.619106 207.222869 
L 282.619106 205.913071 
L 282.619106 205.913071 
L 282.896419 207.222869 
L 282.896419 207.875765 
L 282.619106 208.528661 
L 282.619106 209.181557 
L 282.896419 209.834453 
L 283.447998 209.834453 
L 283.725312 208.528661 
L 283.170685 207.222869 
L 282.619106 207.875765 
L 282.619106 208.528661 
L 283.170685 209.834453 
L 283.447998 209.834453 
L 283.447998 209.181557 
L 282.896419 208.528661 
L 282.619106 207.875765 
L 282.619106 208.528661 
L 282.896419 209.834453 
L 283.447998 210.491354 
L 283.447998 210.491354 
L 283.170685 209.181557 
L 282.619106 207.875765 
L 282.619106 205.913071 
L 282.619106 207.222869 
L 282.896419 209.181557 
L 282.896419 210.491354 
L 283.170685 210.491354 
L 283.447998 209.181557 
L 283.447998 208.528661 
L 283.170685 207.875765 
L 282.896419 206.565967 
L 283.170685 205.913071 
L 283.447998 206.565967 
L 283.447998 207.875765 
L 282.06448 204.607279 
L 282.06448 205.913071 
L 282.896419 205.913071 
L 283.447998 207.222869 
L 283.447998 208.528661 
L 283.170685 207.875765 
L 283.170685 206.565967 
L 283.170685 206.565967 
L 282.619106 207.875765 
L 282.341793 207.875765 
L 282.619106 207.222869 
L 283.447998 207.222869 
L 283.447998 207.875765 
L 282.896419 206.565967 
L 282.341793 206.565967 
L 280.129382 208.528661 
L 279.852069 207.222869 
L 279.023177 206.565967 
L 276.810766 207.875765 
L 273.492149 208.528661 
L 269.621954 207.875765 
L 266.303337 205.913071 
L 262.707408 205.260175 
L 259.114525 205.260175 
L 255.518596 203.950378 
L 251.093774 201.99169 
L 245.84006 200.028996 
L 234.500692 197.413407 
L 223.71595 196.103609 
L 217.90761 197.413407 
L 212.653896 199.3761 
L 207.400181 201.99169 
L 201.591841 203.950378 
L 195.231921 205.260175 
L 188.320423 205.913071 
L 180.85125 205.913071 
L 173.662438 206.565967 
L 167.025205 209.181557 
L 160.387973 213.75984 
L 153.476474 218.338123 
L 147.39082 222.912401 
L 141.585527 226.837788 
L 135.777186 229.453377 
L 130.246159 230.759169 
L 125.269758 230.759169 
L 116.420114 233.374759 
L 112.546871 236.643244 
L 109.505568 239.91173 
L 107.293157 240.568631 
L 105.635373 240.568631 
L 104.251854 241.221527 
L 102.868335 244.490013 
L 101.484817 249.068296 
L 101.484817 248.411394 
L 102.039443 248.411394 
L 102.591022 249.068296 
L 103.422962 249.068296 
L 103.974541 249.721192 
L 104.529167 249.068296 
L 106.464265 244.490013 
L 107.015844 244.490013 
L 107.015844 246.452706 
L 106.741578 248.411394 
L 106.186952 249.721192 
L 105.635373 249.721192 
L 105.909639 248.411394 
L 106.186952 249.068296 
L 105.35806 250.374088 
L 104.251854 251.026984 
L 103.974541 251.026984 
L 103.422962 252.336781 
L 103.697228 252.989677 
L 103.697228 253.642573 
L 102.868335 254.952371 
L 102.039443 255.605267 
L 101.484817 256.258163 
L 101.484817 256.258163 
L 102.039443 256.258163 
L 102.316756 255.605267 
L 102.868335 256.911059 
L 103.145649 258.220856 
L 102.039443 260.836446 
L 102.039443 261.489342 
L 103.145649 258.873752 
L 103.145649 258.873752 
L 102.591022 258.873752 
L 101.76213 260.836446 
L 101.76213 260.18355 
L 101.484817 259.526648 
L 101.210551 259.526648 
L 101.210551 260.18355 
L 100.655924 260.18355 
L 100.655924 260.836446 
L 100.378611 261.489342 
L 100.378611 261.489342 
L 100.655924 261.489342 
L 100.378611 262.142238 
L 100.378611 264.104931 
L 99.549719 265.414729 
L 98.99814 265.414729 
L 99.272406 264.757827 
L 100.104345 264.104931 
L 100.104345 265.414729 
L 99.549719 267.373417 
L 98.99814 268.683214 
L 99.272406 268.026313 
L 100.104345 268.026313 
L 100.104345 269.33611 
L 99.827032 269.989006 
L 99.272406 269.33611 
L 98.99814 267.373417 
L 99.549719 266.720521 
L 99.827032 267.373417 
L 99.272406 268.026313 
L 98.720827 268.026313 
L 98.443513 267.373417 
L 98.720827 266.067625 
L 98.720827 264.757827 
L 98.443513 264.104931 
L 98.443513 264.104931 
L 98.443513 264.757827 
L 97.891934 267.373417 
L 98.1662 268.026313 
L 98.1662 268.683214 
L 97.337308 268.683214 
L 96.231103 268.026313 
L 95.953789 267.373417 
L 96.508416 266.720521 
L 98.1662 266.720521 
L 97.891934 267.373417 
L 97.059995 268.026313 
L 96.508416 268.026313 
L 96.231103 267.373417 
L 96.231103 268.683214 
L 96.508416 269.989006 
L 96.785729 270.641902 
L 96.785729 270.641902 
L 97.059995 269.989006 
L 97.059995 268.026313 
L 96.508416 268.026313 
L 96.508416 269.33611 
L 96.785729 270.641902 
L 97.059995 271.298804 
L 96.508416 270.641902 
L 95.40221 270.641902 
L 95.124897 269.989006 
L 95.679524 268.683214 
L 96.508416 268.026313 
L 96.785729 268.683214 
L 95.679524 269.989006 
L 95.40221 268.683214 
L 95.40221 268.026313 
L 95.679524 268.026313 
L 95.124897 268.026313 
L 94.296005 269.33611 
L 94.296005 270.641902 
L 94.573318 272.604596 
L 94.850631 273.257492 
L 95.679524 273.257492 
L 95.679524 272.604596 
L 95.124897 271.298804 
L 94.850631 271.298804 
L 94.573318 271.9517 
L 94.296005 273.257492 
L 94.850631 272.604596 
L 95.679524 270.641902 
L 96.508416 269.33611 
L 96.508416 269.989006 
L 95.40221 268.683214 
L 95.124897 269.33611 
L 94.296005 270.641902 
L 93.467113 270.641902 
L 93.467113 269.989006 
L 93.189799 270.641902 
L 93.189799 272.604596 
L 93.467113 273.914393 
L 93.744426 273.914393 
L 93.744426 273.257492 
L 93.189799 272.604596 
L 92.360907 271.9517 
L 91.532015 270.641902 
L 91.532015 270.641902 
L 91.806281 271.9517 
L 92.63822 272.604596 
L 92.912486 271.9517 
L 92.63822 271.9517 
L 92.360907 272.604596 
L 92.360907 273.257492 
L 92.63822 273.257492 
L 92.360907 273.257492 
L 92.360907 272.604596 
L 92.360907 275.220185 
L 91.532015 275.873081 
L 91.254702 276.529983 
L 90.977388 276.529983 
L 91.532015 275.873081 
L 92.360907 276.529983 
L 92.63822 277.182879 
L 92.63822 277.835775 
L 92.360907 277.182879 
L 92.083594 275.873081 
L 92.083594 275.220185 
L 92.360907 275.220185 
L 92.63822 274.567289 
L 92.63822 273.257492 
L 92.912486 273.257492 
L 92.63822 274.567289 
L 92.63822 275.220185 
L 92.360907 275.873081 
L 91.806281 275.873081 
L 91.532015 275.220185 
L 91.806281 273.914393 
L 92.083594 273.257492 
L 90.977388 275.873081 
L 90.977388 275.873081 
L 91.806281 275.873081 
L 92.63822 276.529983 
L 92.912486 278.488671 
L 92.63822 279.145572 
L 92.083594 279.798468 
L 92.360907 279.145572 
L 92.083594 279.798468 
L 92.360907 280.451364 
L 92.912486 279.798468 
L 92.912486 279.145572 
L 92.083594 277.182879 
L 92.083594 280.451364 
L 92.63822 283.066954 
L 92.360907 281.757156 
L 91.806281 279.798468 
L 91.806281 278.488671 
L 92.360907 277.835775 
L 92.912486 281.757156 
L 92.912486 281.10426 
L 92.360907 279.798468 
L 91.532015 279.145572 
L 90.977388 279.145572 
L 90.977388 278.488671 
L 91.806281 277.835775 
L 92.360907 278.488671 
L 92.083594 279.145572 
L 91.532015 278.488671 
L 91.532015 277.182879 
L 91.532015 278.488671 
L 92.360907 281.10426 
L 91.806281 279.798468 
L 92.360907 279.798468 
L 92.63822 282.414058 
L 92.083594 281.10426 
L 91.254702 280.451364 
L 90.700075 280.451364 
L 90.977388 279.798468 
L 91.806281 279.145572 
L 91.806281 279.145572 
L 91.532015 281.10426 
L 90.977388 282.414058 
L 90.977388 283.066954 
L 90.977388 283.066954 
L 91.254702 282.414058 
L 91.806281 281.757156 
L 92.083594 281.10426 
L 92.083594 279.798468 
L 92.083594 283.71985 
L 91.806281 283.71985 
L 91.806281 283.066954 
L 92.360907 283.066954 
L 91.806281 283.71985 
L 90.700075 282.414058 
L 90.700075 282.414058 
L 90.977388 283.066954 
L 91.532015 283.71985 
L 91.532015 283.71985 
L 91.806281 283.066954 
L 91.806281 283.066954 
L 91.254702 283.066954 
L 90.977388 283.71985 
L 91.254702 283.066954 
L 91.806281 282.414058 
L 92.083594 283.066954 
L 92.083594 283.71985 
L 91.532015 284.372746 
L 91.532015 284.372746 
L 91.806281 284.372746 
L 91.806281 283.71985 
L 90.977388 285.029647 
L 90.148496 285.029647 
L 90.148496 283.71985 
L 90.425809 282.414058 
L 91.254702 282.414058 
L 91.254702 282.414058 
L 89.59387 285.029647 
L 89.59387 285.682543 
L 90.977388 285.682543 
L 91.532015 286.335439 
L 91.532015 286.988335 
L 91.532015 286.335439 
L 91.254702 286.335439 
L 90.977388 286.988335 
L 90.700075 286.988335 
L 91.254702 286.988335 
L 90.977388 286.988335 
L 89.871183 285.682543 
L 89.59387 285.029647 
L 89.59387 285.029647 
" style="fill:none;stroke:#1f77b4;stroke-linecap:square;stroke-width:1.5;"/>
   </g>
   <g id="matplotlib.axis_1">
    <g id="xtick_1">
     <g id="line2d_2">
      <defs>
       <path d="M 0 0 
L 0 3.5 
" id="m0742558168" style="stroke:#000000;stroke-width:0.8;"/>
      </defs>
      <g>
       <use style="stroke:#000000;stroke-width:0.8;" x="72.507109" xlink:href="#m0742558168" y="307.584"/>
      </g>
     </g>
     <g id="text_1">
      <!-- −400 -->
      <defs>
       <path d="M 10.59375 35.5 
L 73.1875 35.5 
L 73.1875 27.203125 
L 10.59375 27.203125 
z
" id="DejaVuSans-8722"/>
       <path d="M 37.796875 64.3125 
L 12.890625 25.390625 
L 37.796875 25.390625 
z
M 35.203125 72.90625 
L 47.609375 72.90625 
L 47.609375 25.390625 
L 58.015625 25.390625 
L 58.015625 17.1875 
L 47.609375 17.1875 
L 47.609375 0 
L 37.796875 0 
L 37.796875 17.1875 
L 4.890625 17.1875 
L 4.890625 26.703125 
z
" id="DejaVuSans-52"/>
       <path d="M 31.78125 66.40625 
Q 24.171875 66.40625 20.328125 58.90625 
Q 16.5 51.421875 16.5 36.375 
Q 16.5 21.390625 20.328125 13.890625 
Q 24.171875 6.390625 31.78125 6.390625 
Q 39.453125 6.390625 43.28125 13.890625 
Q 47.125 21.390625 47.125 36.375 
Q 47.125 51.421875 43.28125 58.90625 
Q 39.453125 66.40625 31.78125 66.40625 
z
M 31.78125 74.21875 
Q 44.046875 74.21875 50.515625 64.515625 
Q 56.984375 54.828125 56.984375 36.375 
Q 56.984375 17.96875 50.515625 8.265625 
Q 44.046875 -1.421875 31.78125 -1.421875 
Q 19.53125 -1.421875 13.0625 8.265625 
Q 6.59375 17.96875 6.59375 36.375 
Q 6.59375 54.828125 13.0625 64.515625 
Q 19.53125 74.21875 31.78125 74.21875 
z
" id="DejaVuSans-48"/>
      </defs>
      <g transform="translate(58.773515 322.182437)scale(0.1 -0.1)">
       <use xlink:href="#DejaVuSans-8722"/>
       <use x="83.789062" xlink:href="#DejaVuSans-52"/>
       <use x="147.412109" xlink:href="#DejaVuSans-48"/>
       <use x="211.035156" xlink:href="#DejaVuSans-48"/>
      </g>
     </g>
    </g>
    <g id="xtick_2">
     <g id="line2d_3">
      <g>
       <use style="stroke:#000000;stroke-width:0.8;" x="133.455069" xlink:href="#m0742558168" y="307.584"/>
      </g>
     </g>
     <g id="text_2">
      <!-- −200 -->
      <defs>
       <path d="M 19.1875 8.296875 
L 53.609375 8.296875 
L 53.609375 0 
L 7.328125 0 
L 7.328125 8.296875 
Q 12.9375 14.109375 22.625 23.890625 
Q 32.328125 33.6875 34.8125 36.53125 
Q 39.546875 41.84375 41.421875 45.53125 
Q 43.3125 49.21875 43.3125 52.78125 
Q 43.3125 58.59375 39.234375 62.25 
Q 35.15625 65.921875 28.609375 65.921875 
Q 23.96875 65.921875 18.8125 64.3125 
Q 13.671875 62.703125 7.8125 59.421875 
L 7.8125 69.390625 
Q 13.765625 71.78125 18.9375 73 
Q 24.125 74.21875 28.421875 74.21875 
Q 39.75 74.21875 46.484375 68.546875 
Q 53.21875 62.890625 53.21875 53.421875 
Q 53.21875 48.921875 51.53125 44.890625 
Q 49.859375 40.875 45.40625 35.40625 
Q 44.1875 33.984375 37.640625 27.21875 
Q 31.109375 20.453125 19.1875 8.296875 
z
" id="DejaVuSans-50"/>
      </defs>
      <g transform="translate(119.721475 322.182437)scale(0.1 -0.1)">
       <use xlink:href="#DejaVuSans-8722"/>
       <use x="83.789062" xlink:href="#DejaVuSans-50"/>
       <use x="147.412109" xlink:href="#DejaVuSans-48"/>
       <use x="211.035156" xlink:href="#DejaVuSans-48"/>
      </g>
     </g>
    </g>
    <g id="xtick_3">
     <g id="line2d_4">
      <g>
       <use style="stroke:#000000;stroke-width:0.8;" x="194.403029" xlink:href="#m0742558168" y="307.584"/>
      </g>
     </g>
     <g id="text_3">
      <!-- 0 -->
      <g transform="translate(191.221779 322.182437)scale(0.1 -0.1)">
       <use xlink:href="#DejaVuSans-48"/>
      </g>
     </g>
    </g>
    <g id="xtick_4">
     <g id="line2d_5">
      <g>
       <use style="stroke:#000000;stroke-width:0.8;" x="255.350989" xlink:href="#m0742558168" y="307.584"/>
      </g>
     </g>
     <g id="text_4">
      <!-- 200 -->
      <g transform="translate(245.807239 322.182437)scale(0.1 -0.1)">
       <use xlink:href="#DejaVuSans-50"/>
       <use x="63.623047" xlink:href="#DejaVuSans-48"/>
       <use x="127.246094" xlink:href="#DejaVuSans-48"/>
      </g>
     </g>
    </g>
    <g id="xtick_5">
     <g id="line2d_6">
      <g>
       <use style="stroke:#000000;stroke-width:0.8;" x="316.298949" xlink:href="#m0742558168" y="307.584"/>
      </g>
     </g>
     <g id="text_5">
      <!-- 400 -->
      <g transform="translate(306.755199 322.182437)scale(0.1 -0.1)">
       <use xlink:href="#DejaVuSans-52"/>
       <use x="63.623047" xlink:href="#DejaVuSans-48"/>
       <use x="127.246094" xlink:href="#DejaVuSans-48"/>
      </g>
     </g>
    </g>
    <g id="xtick_6">
     <g id="line2d_7">
      <g>
       <use style="stroke:#000000;stroke-width:0.8;" x="377.246909" xlink:href="#m0742558168" y="307.584"/>
      </g>
     </g>
     <g id="text_6">
      <!-- 600 -->
      <defs>
       <path d="M 33.015625 40.375 
Q 26.375 40.375 22.484375 35.828125 
Q 18.609375 31.296875 18.609375 23.390625 
Q 18.609375 15.53125 22.484375 10.953125 
Q 26.375 6.390625 33.015625 6.390625 
Q 39.65625 6.390625 43.53125 10.953125 
Q 47.40625 15.53125 47.40625 23.390625 
Q 47.40625 31.296875 43.53125 35.828125 
Q 39.65625 40.375 33.015625 40.375 
z
M 52.59375 71.296875 
L 52.59375 62.3125 
Q 48.875 64.0625 45.09375 64.984375 
Q 41.3125 65.921875 37.59375 65.921875 
Q 27.828125 65.921875 22.671875 59.328125 
Q 17.53125 52.734375 16.796875 39.40625 
Q 19.671875 43.65625 24.015625 45.921875 
Q 28.375 48.1875 33.59375 48.1875 
Q 44.578125 48.1875 50.953125 41.515625 
Q 57.328125 34.859375 57.328125 23.390625 
Q 57.328125 12.15625 50.6875 5.359375 
Q 44.046875 -1.421875 33.015625 -1.421875 
Q 20.359375 -1.421875 13.671875 8.265625 
Q 6.984375 17.96875 6.984375 36.375 
Q 6.984375 53.65625 15.1875 63.9375 
Q 23.390625 74.21875 37.203125 74.21875 
Q 40.921875 74.21875 44.703125 73.484375 
Q 48.484375 72.75 52.59375 71.296875 
z
" id="DejaVuSans-54"/>
      </defs>
      <g transform="translate(367.703159 322.182437)scale(0.1 -0.1)">
       <use xlink:href="#DejaVuSans-54"/>
       <use x="63.623047" xlink:href="#DejaVuSans-48"/>
       <use x="127.246094" xlink:href="#DejaVuSans-48"/>
      </g>
     </g>
    </g>
   </g>
   <g id="matplotlib.axis_2">
    <g id="ytick_1">
     <g id="line2d_8">
      <defs>
       <path d="M 0 0 
L -3.5 0 
" id="m861bc1476c" style="stroke:#000000;stroke-width:0.8;"/>
      </defs>
      <g>
       <use style="stroke:#000000;stroke-width:0.8;" x="57.6" xlink:href="#m861bc1476c" y="278.340468"/>
      </g>
     </g>
     <g id="text_7">
      <!-- −200 -->
      <g transform="translate(23.132812 282.139686)scale(0.1 -0.1)">
       <use xlink:href="#DejaVuSans-8722"/>
       <use x="83.789062" xlink:href="#DejaVuSans-50"/>
       <use x="147.412109" xlink:href="#DejaVuSans-48"/>
       <use x="211.035156" xlink:href="#DejaVuSans-48"/>
      </g>
     </g>
    </g>
    <g id="ytick_2">
     <g id="line2d_9">
      <g>
       <use style="stroke:#000000;stroke-width:0.8;" x="57.6" xlink:href="#m861bc1476c" y="238.285498"/>
      </g>
     </g>
     <g id="text_8">
      <!-- −100 -->
      <defs>
       <path d="M 12.40625 8.296875 
L 28.515625 8.296875 
L 28.515625 63.921875 
L 10.984375 60.40625 
L 10.984375 69.390625 
L 28.421875 72.90625 
L 38.28125 72.90625 
L 38.28125 8.296875 
L 54.390625 8.296875 
L 54.390625 0 
L 12.40625 0 
z
" id="DejaVuSans-49"/>
      </defs>
      <g transform="translate(23.132812 242.084717)scale(0.1 -0.1)">
       <use xlink:href="#DejaVuSans-8722"/>
       <use x="83.789062" xlink:href="#DejaVuSans-49"/>
       <use x="147.412109" xlink:href="#DejaVuSans-48"/>
       <use x="211.035156" xlink:href="#DejaVuSans-48"/>
      </g>
     </g>
    </g>
    <g id="ytick_3">
     <g id="line2d_10">
      <g>
       <use style="stroke:#000000;stroke-width:0.8;" x="57.6" xlink:href="#m861bc1476c" y="198.230528"/>
      </g>
     </g>
     <g id="text_9">
      <!-- 0 -->
      <g transform="translate(44.2375 202.029747)scale(0.1 -0.1)">
       <use xlink:href="#DejaVuSans-48"/>
      </g>
     </g>
    </g>
    <g id="ytick_4">
     <g id="line2d_11">
      <g>
       <use style="stroke:#000000;stroke-width:0.8;" x="57.6" xlink:href="#m861bc1476c" y="158.175559"/>
      </g>
     </g>
     <g id="text_10">
      <!-- 100 -->
      <g transform="translate(31.5125 161.974777)scale(0.1 -0.1)">
       <use xlink:href="#DejaVuSans-49"/>
       <use x="63.623047" xlink:href="#DejaVuSans-48"/>
       <use x="127.246094" xlink:href="#DejaVuSans-48"/>
      </g>
     </g>
    </g>
    <g id="ytick_5">
     <g id="line2d_12">
      <g>
       <use style="stroke:#000000;stroke-width:0.8;" x="57.6" xlink:href="#m861bc1476c" y="118.120589"/>
      </g>
     </g>
     <g id="text_11">
      <!-- 200 -->
      <g transform="translate(31.5125 121.919808)scale(0.1 -0.1)">
       <use xlink:href="#DejaVuSans-50"/>
       <use x="63.623047" xlink:href="#DejaVuSans-48"/>
       <use x="127.246094" xlink:href="#DejaVuSans-48"/>
      </g>
     </g>
    </g>
    <g id="ytick_6">
     <g id="line2d_13">
      <g>
       <use style="stroke:#000000;stroke-width:0.8;" x="57.6" xlink:href="#m861bc1476c" y="78.065619"/>
      </g>
     </g>
     <g id="text_12">
      <!-- 300 -->
      <defs>
       <path d="M 40.578125 39.3125 
Q 47.65625 37.796875 51.625 33 
Q 55.609375 28.21875 55.609375 21.1875 
Q 55.609375 10.40625 48.1875 4.484375 
Q 40.765625 -1.421875 27.09375 -1.421875 
Q 22.515625 -1.421875 17.65625 -0.515625 
Q 12.796875 0.390625 7.625 2.203125 
L 7.625 11.71875 
Q 11.71875 9.328125 16.59375 8.109375 
Q 21.484375 6.890625 26.8125 6.890625 
Q 36.078125 6.890625 40.9375 10.546875 
Q 45.796875 14.203125 45.796875 21.1875 
Q 45.796875 27.640625 41.28125 31.265625 
Q 36.765625 34.90625 28.71875 34.90625 
L 20.21875 34.90625 
L 20.21875 43.015625 
L 29.109375 43.015625 
Q 36.375 43.015625 40.234375 45.921875 
Q 44.09375 48.828125 44.09375 54.296875 
Q 44.09375 59.90625 40.109375 62.90625 
Q 36.140625 65.921875 28.71875 65.921875 
Q 24.65625 65.921875 20.015625 65.03125 
Q 15.375 64.15625 9.8125 62.3125 
L 9.8125 71.09375 
Q 15.4375 72.65625 20.34375 73.4375 
Q 25.25 74.21875 29.59375 74.21875 
Q 40.828125 74.21875 47.359375 69.109375 
Q 53.90625 64.015625 53.90625 55.328125 
Q 53.90625 49.265625 50.4375 45.09375 
Q 46.96875 40.921875 40.578125 39.3125 
z
" id="DejaVuSans-51"/>
      </defs>
      <g transform="translate(31.5125 81.864838)scale(0.1 -0.1)">
       <use xlink:href="#DejaVuSans-51"/>
       <use x="63.623047" xlink:href="#DejaVuSans-48"/>
       <use x="127.246094" xlink:href="#DejaVuSans-48"/>
      </g>
     </g>
    </g>
   </g>
   <g id="line2d_14">
    <path clip-path="url(#p6436fec151)" d="M 394.548243 65.527079 
L 174.487011 227.140766 
L 77.425035 284.031294 
L 291.588173 180.999258 
L 282.482637 208.970074 
L 99.713026 262.129892 
L 91.809213 279.690496 
" style="fill:none;stroke:#ff0000;stroke-linecap:square;stroke-width:0.5;"/>
   </g>
   <g id="patch_3">
    <path d="M 57.6 307.584 
L 57.6 41.472 
" style="fill:none;stroke:#000000;stroke-linecap:square;stroke-linejoin:miter;stroke-width:0.8;"/>
   </g>
   <g id="patch_4">
    <path d="M 414.72 307.584 
L 414.72 41.472 
" style="fill:none;stroke:#000000;stroke-linecap:square;stroke-linejoin:miter;stroke-width:0.8;"/>
   </g>
   <g id="patch_5">
    <path d="M 57.6 307.584 
L 414.72 307.584 
" style="fill:none;stroke:#000000;stroke-linecap:square;stroke-linejoin:miter;stroke-width:0.8;"/>
   </g>
   <g id="patch_6">
    <path d="M 57.6 41.472 
L 414.72 41.472 
" style="fill:none;stroke:#000000;stroke-linecap:square;stroke-linejoin:miter;stroke-width:0.8;"/>
   </g>
   <g id="PathCollection_1">
    <defs>
     <path d="M 0 2.738613 
C 0.726289 2.738613 1.422928 2.450055 1.936492 1.936492 
C 2.450055 1.422928 2.738613 0.726289 2.738613 0 
C 2.738613 -0.726289 2.450055 -1.422928 1.936492 -1.936492 
C 1.422928 -2.450055 0.726289 -2.738613 0 -2.738613 
C -0.726289 -2.738613 -1.422928 -2.450055 -1.936492 -1.936492 
C -2.450055 -1.422928 -2.738613 -0.726289 -2.738613 0 
C -2.738613 0.726289 -2.450055 1.422928 -1.936492 1.936492 
C -1.422928 2.450055 -0.726289 2.738613 0 2.738613 
z
" id="me4b086a1c6" style="stroke:#ff0000;"/>
    </defs>
    <g clip-path="url(#p6436fec151)">
     <use style="fill:#ff0000;stroke:#ff0000;" x="394.548243" xlink:href="#me4b086a1c6" y="65.527079"/>
     <use style="fill:#ff0000;stroke:#ff0000;" x="174.487011" xlink:href="#me4b086a1c6" y="227.140766"/>
     <use style="fill:#ff0000;stroke:#ff0000;" x="77.425035" xlink:href="#me4b086a1c6" y="284.031294"/>
     <use style="fill:#ff0000;stroke:#ff0000;" x="291.588173" xlink:href="#me4b086a1c6" y="180.999258"/>
     <use style="fill:#ff0000;stroke:#ff0000;" x="282.482637" xlink:href="#me4b086a1c6" y="208.970074"/>
     <use style="fill:#ff0000;stroke:#ff0000;" x="99.713026" xlink:href="#me4b086a1c6" y="262.129892"/>
     <use style="fill:#ff0000;stroke:#ff0000;" x="91.809213" xlink:href="#me4b086a1c6" y="279.690496"/>
    </g>
   </g>
   <g id="text_13">
    <!-- (99) Subject: s13, Known = False, Degree = 1, Duration = 0.1 -->
    <defs>
     <path d="M 31 75.875 
Q 24.46875 64.65625 21.28125 53.65625 
Q 18.109375 42.671875 18.109375 31.390625 
Q 18.109375 20.125 21.3125 9.0625 
Q 24.515625 -2 31 -13.1875 
L 23.1875 -13.1875 
Q 15.875 -1.703125 12.234375 9.375 
Q 8.59375 20.453125 8.59375 31.390625 
Q 8.59375 42.28125 12.203125 53.3125 
Q 15.828125 64.359375 23.1875 75.875 
z
" id="DejaVuSans-40"/>
     <path d="M 10.984375 1.515625 
L 10.984375 10.5 
Q 14.703125 8.734375 18.5 7.8125 
Q 22.3125 6.890625 25.984375 6.890625 
Q 35.75 6.890625 40.890625 13.453125 
Q 46.046875 20.015625 46.78125 33.40625 
Q 43.953125 29.203125 39.59375 26.953125 
Q 35.25 24.703125 29.984375 24.703125 
Q 19.046875 24.703125 12.671875 31.3125 
Q 6.296875 37.9375 6.296875 49.421875 
Q 6.296875 60.640625 12.9375 67.421875 
Q 19.578125 74.21875 30.609375 74.21875 
Q 43.265625 74.21875 49.921875 64.515625 
Q 56.59375 54.828125 56.59375 36.375 
Q 56.59375 19.140625 48.40625 8.859375 
Q 40.234375 -1.421875 26.421875 -1.421875 
Q 22.703125 -1.421875 18.890625 -0.6875 
Q 15.09375 0.046875 10.984375 1.515625 
z
M 30.609375 32.421875 
Q 37.25 32.421875 41.125 36.953125 
Q 45.015625 41.5 45.015625 49.421875 
Q 45.015625 57.28125 41.125 61.84375 
Q 37.25 66.40625 30.609375 66.40625 
Q 23.96875 66.40625 20.09375 61.84375 
Q 16.21875 57.28125 16.21875 49.421875 
Q 16.21875 41.5 20.09375 36.953125 
Q 23.96875 32.421875 30.609375 32.421875 
z
" id="DejaVuSans-57"/>
     <path d="M 8.015625 75.875 
L 15.828125 75.875 
Q 23.140625 64.359375 26.78125 53.3125 
Q 30.421875 42.28125 30.421875 31.390625 
Q 30.421875 20.453125 26.78125 9.375 
Q 23.140625 -1.703125 15.828125 -13.1875 
L 8.015625 -13.1875 
Q 14.5 -2 17.703125 9.0625 
Q 20.90625 20.125 20.90625 31.390625 
Q 20.90625 42.671875 17.703125 53.65625 
Q 14.5 64.65625 8.015625 75.875 
z
" id="DejaVuSans-41"/>
     <path id="DejaVuSans-32"/>
     <path d="M 53.515625 70.515625 
L 53.515625 60.890625 
Q 47.90625 63.578125 42.921875 64.890625 
Q 37.9375 66.21875 33.296875 66.21875 
Q 25.25 66.21875 20.875 63.09375 
Q 16.5 59.96875 16.5 54.203125 
Q 16.5 49.359375 19.40625 46.890625 
Q 22.3125 44.4375 30.421875 42.921875 
L 36.375 41.703125 
Q 47.40625 39.59375 52.65625 34.296875 
Q 57.90625 29 57.90625 20.125 
Q 57.90625 9.515625 50.796875 4.046875 
Q 43.703125 -1.421875 29.984375 -1.421875 
Q 24.8125 -1.421875 18.96875 -0.25 
Q 13.140625 0.921875 6.890625 3.21875 
L 6.890625 13.375 
Q 12.890625 10.015625 18.65625 8.296875 
Q 24.421875 6.59375 29.984375 6.59375 
Q 38.421875 6.59375 43.015625 9.90625 
Q 47.609375 13.234375 47.609375 19.390625 
Q 47.609375 24.75 44.3125 27.78125 
Q 41.015625 30.8125 33.5 32.328125 
L 27.484375 33.5 
Q 16.453125 35.6875 11.515625 40.375 
Q 6.59375 45.0625 6.59375 53.421875 
Q 6.59375 63.09375 13.40625 68.65625 
Q 20.21875 74.21875 32.171875 74.21875 
Q 37.3125 74.21875 42.625 73.28125 
Q 47.953125 72.359375 53.515625 70.515625 
z
" id="DejaVuSans-83"/>
     <path d="M 8.5 21.578125 
L 8.5 54.6875 
L 17.484375 54.6875 
L 17.484375 21.921875 
Q 17.484375 14.15625 20.5 10.265625 
Q 23.53125 6.390625 29.59375 6.390625 
Q 36.859375 6.390625 41.078125 11.03125 
Q 45.3125 15.671875 45.3125 23.6875 
L 45.3125 54.6875 
L 54.296875 54.6875 
L 54.296875 0 
L 45.3125 0 
L 45.3125 8.40625 
Q 42.046875 3.421875 37.71875 1 
Q 33.40625 -1.421875 27.6875 -1.421875 
Q 18.265625 -1.421875 13.375 4.4375 
Q 8.5 10.296875 8.5 21.578125 
z
M 31.109375 56 
z
" id="DejaVuSans-117"/>
     <path d="M 48.6875 27.296875 
Q 48.6875 37.203125 44.609375 42.84375 
Q 40.53125 48.484375 33.40625 48.484375 
Q 26.265625 48.484375 22.1875 42.84375 
Q 18.109375 37.203125 18.109375 27.296875 
Q 18.109375 17.390625 22.1875 11.75 
Q 26.265625 6.109375 33.40625 6.109375 
Q 40.53125 6.109375 44.609375 11.75 
Q 48.6875 17.390625 48.6875 27.296875 
z
M 18.109375 46.390625 
Q 20.953125 51.265625 25.265625 53.625 
Q 29.59375 56 35.59375 56 
Q 45.5625 56 51.78125 48.09375 
Q 58.015625 40.1875 58.015625 27.296875 
Q 58.015625 14.40625 51.78125 6.484375 
Q 45.5625 -1.421875 35.59375 -1.421875 
Q 29.59375 -1.421875 25.265625 0.953125 
Q 20.953125 3.328125 18.109375 8.203125 
L 18.109375 0 
L 9.078125 0 
L 9.078125 75.984375 
L 18.109375 75.984375 
z
" id="DejaVuSans-98"/>
     <path d="M 9.421875 54.6875 
L 18.40625 54.6875 
L 18.40625 -0.984375 
Q 18.40625 -11.421875 14.421875 -16.109375 
Q 10.453125 -20.796875 1.609375 -20.796875 
L -1.8125 -20.796875 
L -1.8125 -13.1875 
L 0.59375 -13.1875 
Q 5.71875 -13.1875 7.5625 -10.8125 
Q 9.421875 -8.453125 9.421875 -0.984375 
z
M 9.421875 75.984375 
L 18.40625 75.984375 
L 18.40625 64.59375 
L 9.421875 64.59375 
z
" id="DejaVuSans-106"/>
     <path d="M 56.203125 29.59375 
L 56.203125 25.203125 
L 14.890625 25.203125 
Q 15.484375 15.921875 20.484375 11.0625 
Q 25.484375 6.203125 34.421875 6.203125 
Q 39.59375 6.203125 44.453125 7.46875 
Q 49.3125 8.734375 54.109375 11.28125 
L 54.109375 2.78125 
Q 49.265625 0.734375 44.1875 -0.34375 
Q 39.109375 -1.421875 33.890625 -1.421875 
Q 20.796875 -1.421875 13.15625 6.1875 
Q 5.515625 13.8125 5.515625 26.8125 
Q 5.515625 40.234375 12.765625 48.109375 
Q 20.015625 56 32.328125 56 
Q 43.359375 56 49.78125 48.890625 
Q 56.203125 41.796875 56.203125 29.59375 
z
M 47.21875 32.234375 
Q 47.125 39.59375 43.09375 43.984375 
Q 39.0625 48.390625 32.421875 48.390625 
Q 24.90625 48.390625 20.390625 44.140625 
Q 15.875 39.890625 15.1875 32.171875 
z
" id="DejaVuSans-101"/>
     <path d="M 48.78125 52.59375 
L 48.78125 44.1875 
Q 44.96875 46.296875 41.140625 47.34375 
Q 37.3125 48.390625 33.40625 48.390625 
Q 24.65625 48.390625 19.8125 42.84375 
Q 14.984375 37.3125 14.984375 27.296875 
Q 14.984375 17.28125 19.8125 11.734375 
Q 24.65625 6.203125 33.40625 6.203125 
Q 37.3125 6.203125 41.140625 7.25 
Q 44.96875 8.296875 48.78125 10.40625 
L 48.78125 2.09375 
Q 45.015625 0.34375 40.984375 -0.53125 
Q 36.96875 -1.421875 32.421875 -1.421875 
Q 20.0625 -1.421875 12.78125 6.34375 
Q 5.515625 14.109375 5.515625 27.296875 
Q 5.515625 40.671875 12.859375 48.328125 
Q 20.21875 56 33.015625 56 
Q 37.15625 56 41.109375 55.140625 
Q 45.0625 54.296875 48.78125 52.59375 
z
" id="DejaVuSans-99"/>
     <path d="M 18.3125 70.21875 
L 18.3125 54.6875 
L 36.8125 54.6875 
L 36.8125 47.703125 
L 18.3125 47.703125 
L 18.3125 18.015625 
Q 18.3125 11.328125 20.140625 9.421875 
Q 21.96875 7.515625 27.59375 7.515625 
L 36.8125 7.515625 
L 36.8125 0 
L 27.59375 0 
Q 17.1875 0 13.234375 3.875 
Q 9.28125 7.765625 9.28125 18.015625 
L 9.28125 47.703125 
L 2.6875 47.703125 
L 2.6875 54.6875 
L 9.28125 54.6875 
L 9.28125 70.21875 
z
" id="DejaVuSans-116"/>
     <path d="M 11.71875 12.40625 
L 22.015625 12.40625 
L 22.015625 0 
L 11.71875 0 
z
M 11.71875 51.703125 
L 22.015625 51.703125 
L 22.015625 39.3125 
L 11.71875 39.3125 
z
" id="DejaVuSans-58"/>
     <path d="M 44.28125 53.078125 
L 44.28125 44.578125 
Q 40.484375 46.53125 36.375 47.5 
Q 32.28125 48.484375 27.875 48.484375 
Q 21.1875 48.484375 17.84375 46.4375 
Q 14.5 44.390625 14.5 40.28125 
Q 14.5 37.15625 16.890625 35.375 
Q 19.28125 33.59375 26.515625 31.984375 
L 29.59375 31.296875 
Q 39.15625 29.25 43.1875 25.515625 
Q 47.21875 21.78125 47.21875 15.09375 
Q 47.21875 7.46875 41.1875 3.015625 
Q 35.15625 -1.421875 24.609375 -1.421875 
Q 20.21875 -1.421875 15.453125 -0.5625 
Q 10.6875 0.296875 5.421875 2 
L 5.421875 11.28125 
Q 10.40625 8.6875 15.234375 7.390625 
Q 20.0625 6.109375 24.8125 6.109375 
Q 31.15625 6.109375 34.5625 8.28125 
Q 37.984375 10.453125 37.984375 14.40625 
Q 37.984375 18.0625 35.515625 20.015625 
Q 33.0625 21.96875 24.703125 23.78125 
L 21.578125 24.515625 
Q 13.234375 26.265625 9.515625 29.90625 
Q 5.8125 33.546875 5.8125 39.890625 
Q 5.8125 47.609375 11.28125 51.796875 
Q 16.75 56 26.8125 56 
Q 31.78125 56 36.171875 55.265625 
Q 40.578125 54.546875 44.28125 53.078125 
z
" id="DejaVuSans-115"/>
     <path d="M 11.71875 12.40625 
L 22.015625 12.40625 
L 22.015625 4 
L 14.015625 -11.625 
L 7.71875 -11.625 
L 11.71875 4 
z
" id="DejaVuSans-44"/>
     <path d="M 9.8125 72.90625 
L 19.671875 72.90625 
L 19.671875 42.09375 
L 52.390625 72.90625 
L 65.09375 72.90625 
L 28.90625 38.921875 
L 67.671875 0 
L 54.6875 0 
L 19.671875 35.109375 
L 19.671875 0 
L 9.8125 0 
z
" id="DejaVuSans-75"/>
     <path d="M 54.890625 33.015625 
L 54.890625 0 
L 45.90625 0 
L 45.90625 32.71875 
Q 45.90625 40.484375 42.875 44.328125 
Q 39.84375 48.1875 33.796875 48.1875 
Q 26.515625 48.1875 22.3125 43.546875 
Q 18.109375 38.921875 18.109375 30.90625 
L 18.109375 0 
L 9.078125 0 
L 9.078125 54.6875 
L 18.109375 54.6875 
L 18.109375 46.1875 
Q 21.34375 51.125 25.703125 53.5625 
Q 30.078125 56 35.796875 56 
Q 45.21875 56 50.046875 50.171875 
Q 54.890625 44.34375 54.890625 33.015625 
z
" id="DejaVuSans-110"/>
     <path d="M 30.609375 48.390625 
Q 23.390625 48.390625 19.1875 42.75 
Q 14.984375 37.109375 14.984375 27.296875 
Q 14.984375 17.484375 19.15625 11.84375 
Q 23.34375 6.203125 30.609375 6.203125 
Q 37.796875 6.203125 41.984375 11.859375 
Q 46.1875 17.53125 46.1875 27.296875 
Q 46.1875 37.015625 41.984375 42.703125 
Q 37.796875 48.390625 30.609375 48.390625 
z
M 30.609375 56 
Q 42.328125 56 49.015625 48.375 
Q 55.71875 40.765625 55.71875 27.296875 
Q 55.71875 13.875 49.015625 6.21875 
Q 42.328125 -1.421875 30.609375 -1.421875 
Q 18.84375 -1.421875 12.171875 6.21875 
Q 5.515625 13.875 5.515625 27.296875 
Q 5.515625 40.765625 12.171875 48.375 
Q 18.84375 56 30.609375 56 
z
" id="DejaVuSans-111"/>
     <path d="M 4.203125 54.6875 
L 13.1875 54.6875 
L 24.421875 12.015625 
L 35.59375 54.6875 
L 46.1875 54.6875 
L 57.421875 12.015625 
L 68.609375 54.6875 
L 77.59375 54.6875 
L 63.28125 0 
L 52.6875 0 
L 40.921875 44.828125 
L 29.109375 0 
L 18.5 0 
z
" id="DejaVuSans-119"/>
     <path d="M 10.59375 45.40625 
L 73.1875 45.40625 
L 73.1875 37.203125 
L 10.59375 37.203125 
z
M 10.59375 25.484375 
L 73.1875 25.484375 
L 73.1875 17.1875 
L 10.59375 17.1875 
z
" id="DejaVuSans-61"/>
     <path d="M 9.8125 72.90625 
L 51.703125 72.90625 
L 51.703125 64.59375 
L 19.671875 64.59375 
L 19.671875 43.109375 
L 48.578125 43.109375 
L 48.578125 34.8125 
L 19.671875 34.8125 
L 19.671875 0 
L 9.8125 0 
z
" id="DejaVuSans-70"/>
     <path d="M 34.28125 27.484375 
Q 23.390625 27.484375 19.1875 25 
Q 14.984375 22.515625 14.984375 16.5 
Q 14.984375 11.71875 18.140625 8.90625 
Q 21.296875 6.109375 26.703125 6.109375 
Q 34.1875 6.109375 38.703125 11.40625 
Q 43.21875 16.703125 43.21875 25.484375 
L 43.21875 27.484375 
z
M 52.203125 31.203125 
L 52.203125 0 
L 43.21875 0 
L 43.21875 8.296875 
Q 40.140625 3.328125 35.546875 0.953125 
Q 30.953125 -1.421875 24.3125 -1.421875 
Q 15.921875 -1.421875 10.953125 3.296875 
Q 6 8.015625 6 15.921875 
Q 6 25.140625 12.171875 29.828125 
Q 18.359375 34.515625 30.609375 34.515625 
L 43.21875 34.515625 
L 43.21875 35.40625 
Q 43.21875 41.609375 39.140625 45 
Q 35.0625 48.390625 27.6875 48.390625 
Q 23 48.390625 18.546875 47.265625 
Q 14.109375 46.140625 10.015625 43.890625 
L 10.015625 52.203125 
Q 14.9375 54.109375 19.578125 55.046875 
Q 24.21875 56 28.609375 56 
Q 40.484375 56 46.34375 49.84375 
Q 52.203125 43.703125 52.203125 31.203125 
z
" id="DejaVuSans-97"/>
     <path d="M 9.421875 75.984375 
L 18.40625 75.984375 
L 18.40625 0 
L 9.421875 0 
z
" id="DejaVuSans-108"/>
     <path d="M 19.671875 64.796875 
L 19.671875 8.109375 
L 31.59375 8.109375 
Q 46.6875 8.109375 53.6875 14.9375 
Q 60.6875 21.78125 60.6875 36.53125 
Q 60.6875 51.171875 53.6875 57.984375 
Q 46.6875 64.796875 31.59375 64.796875 
z
M 9.8125 72.90625 
L 30.078125 72.90625 
Q 51.265625 72.90625 61.171875 64.09375 
Q 71.09375 55.28125 71.09375 36.53125 
Q 71.09375 17.671875 61.125 8.828125 
Q 51.171875 0 30.078125 0 
L 9.8125 0 
z
" id="DejaVuSans-68"/>
     <path d="M 45.40625 27.984375 
Q 45.40625 37.75 41.375 43.109375 
Q 37.359375 48.484375 30.078125 48.484375 
Q 22.859375 48.484375 18.828125 43.109375 
Q 14.796875 37.75 14.796875 27.984375 
Q 14.796875 18.265625 18.828125 12.890625 
Q 22.859375 7.515625 30.078125 7.515625 
Q 37.359375 7.515625 41.375 12.890625 
Q 45.40625 18.265625 45.40625 27.984375 
z
M 54.390625 6.78125 
Q 54.390625 -7.171875 48.1875 -13.984375 
Q 42 -20.796875 29.203125 -20.796875 
Q 24.46875 -20.796875 20.265625 -20.09375 
Q 16.0625 -19.390625 12.109375 -17.921875 
L 12.109375 -9.1875 
Q 16.0625 -11.328125 19.921875 -12.34375 
Q 23.78125 -13.375 27.78125 -13.375 
Q 36.625 -13.375 41.015625 -8.765625 
Q 45.40625 -4.15625 45.40625 5.171875 
L 45.40625 9.625 
Q 42.625 4.78125 38.28125 2.390625 
Q 33.9375 0 27.875 0 
Q 17.828125 0 11.671875 7.65625 
Q 5.515625 15.328125 5.515625 27.984375 
Q 5.515625 40.671875 11.671875 48.328125 
Q 17.828125 56 27.875 56 
Q 33.9375 56 38.28125 53.609375 
Q 42.625 51.21875 45.40625 46.390625 
L 45.40625 54.6875 
L 54.390625 54.6875 
z
" id="DejaVuSans-103"/>
     <path d="M 41.109375 46.296875 
Q 39.59375 47.171875 37.8125 47.578125 
Q 36.03125 48 33.890625 48 
Q 26.265625 48 22.1875 43.046875 
Q 18.109375 38.09375 18.109375 28.8125 
L 18.109375 0 
L 9.078125 0 
L 9.078125 54.6875 
L 18.109375 54.6875 
L 18.109375 46.1875 
Q 20.953125 51.171875 25.484375 53.578125 
Q 30.03125 56 36.53125 56 
Q 37.453125 56 38.578125 55.875 
Q 39.703125 55.765625 41.0625 55.515625 
z
" id="DejaVuSans-114"/>
     <path d="M 9.421875 54.6875 
L 18.40625 54.6875 
L 18.40625 0 
L 9.421875 0 
z
M 9.421875 75.984375 
L 18.40625 75.984375 
L 18.40625 64.59375 
L 9.421875 64.59375 
z
" id="DejaVuSans-105"/>
     <path d="M 10.6875 12.40625 
L 21 12.40625 
L 21 0 
L 10.6875 0 
z
" id="DejaVuSans-46"/>
    </defs>
    <g transform="translate(49.741875 35.472)scale(0.12 -0.12)">
     <use xlink:href="#DejaVuSans-40"/>
     <use x="39.013672" xlink:href="#DejaVuSans-57"/>
     <use x="102.636719" xlink:href="#DejaVuSans-57"/>
     <use x="166.259766" xlink:href="#DejaVuSans-41"/>
     <use x="205.273438" xlink:href="#DejaVuSans-32"/>
     <use x="237.060547" xlink:href="#DejaVuSans-83"/>
     <use x="300.537109" xlink:href="#DejaVuSans-117"/>
     <use x="363.916016" xlink:href="#DejaVuSans-98"/>
     <use x="427.392578" xlink:href="#DejaVuSans-106"/>
     <use x="455.175781" xlink:href="#DejaVuSans-101"/>
     <use x="516.699219" xlink:href="#DejaVuSans-99"/>
     <use x="571.679688" xlink:href="#DejaVuSans-116"/>
     <use x="610.888672" xlink:href="#DejaVuSans-58"/>
     <use x="644.580078" xlink:href="#DejaVuSans-32"/>
     <use x="676.367188" xlink:href="#DejaVuSans-115"/>
     <use x="728.466797" xlink:href="#DejaVuSans-49"/>
     <use x="792.089844" xlink:href="#DejaVuSans-51"/>
     <use x="855.712891" xlink:href="#DejaVuSans-44"/>
     <use x="887.5" xlink:href="#DejaVuSans-32"/>
     <use x="919.287109" xlink:href="#DejaVuSans-75"/>
     <use x="984.863281" xlink:href="#DejaVuSans-110"/>
     <use x="1048.242188" xlink:href="#DejaVuSans-111"/>
     <use x="1109.423828" xlink:href="#DejaVuSans-119"/>
     <use x="1191.210938" xlink:href="#DejaVuSans-110"/>
     <use x="1254.589844" xlink:href="#DejaVuSans-32"/>
     <use x="1286.376953" xlink:href="#DejaVuSans-61"/>
     <use x="1370.166016" xlink:href="#DejaVuSans-32"/>
     <use x="1401.953125" xlink:href="#DejaVuSans-70"/>
     <use x="1459.332031" xlink:href="#DejaVuSans-97"/>
     <use x="1520.611328" xlink:href="#DejaVuSans-108"/>
     <use x="1548.394531" xlink:href="#DejaVuSans-115"/>
     <use x="1600.494141" xlink:href="#DejaVuSans-101"/>
     <use x="1662.017578" xlink:href="#DejaVuSans-44"/>
     <use x="1693.804688" xlink:href="#DejaVuSans-32"/>
     <use x="1725.591797" xlink:href="#DejaVuSans-68"/>
     <use x="1802.59375" xlink:href="#DejaVuSans-101"/>
     <use x="1864.117188" xlink:href="#DejaVuSans-103"/>
     <use x="1927.59375" xlink:href="#DejaVuSans-114"/>
     <use x="1968.675781" xlink:href="#DejaVuSans-101"/>
     <use x="2030.199219" xlink:href="#DejaVuSans-101"/>
     <use x="2091.722656" xlink:href="#DejaVuSans-32"/>
     <use x="2123.509766" xlink:href="#DejaVuSans-61"/>
     <use x="2207.298828" xlink:href="#DejaVuSans-32"/>
     <use x="2239.085938" xlink:href="#DejaVuSans-49"/>
     <use x="2302.708984" xlink:href="#DejaVuSans-44"/>
     <use x="2334.496094" xlink:href="#DejaVuSans-32"/>
     <use x="2366.283203" xlink:href="#DejaVuSans-68"/>
     <use x="2443.285156" xlink:href="#DejaVuSans-117"/>
     <use x="2506.664062" xlink:href="#DejaVuSans-114"/>
     <use x="2547.777344" xlink:href="#DejaVuSans-97"/>
     <use x="2609.056641" xlink:href="#DejaVuSans-116"/>
     <use x="2648.265625" xlink:href="#DejaVuSans-105"/>
     <use x="2676.048828" xlink:href="#DejaVuSans-111"/>
     <use x="2737.230469" xlink:href="#DejaVuSans-110"/>
     <use x="2800.609375" xlink:href="#DejaVuSans-32"/>
     <use x="2832.396484" xlink:href="#DejaVuSans-61"/>
     <use x="2916.185547" xlink:href="#DejaVuSans-32"/>
     <use x="2947.972656" xlink:href="#DejaVuSans-48"/>
     <use x="3011.595703" xlink:href="#DejaVuSans-46"/>
     <use x="3043.382812" xlink:href="#DejaVuSans-49"/>
    </g>
   </g>
  </g>
 </g>
 <defs>
  <clipPath id="p6436fec151">
   <rect height="266.112" width="357.12" x="57.6" y="41.472"/>
  </clipPath>
 </defs>
</svg>
