<?xml version="1.0" encoding="utf-8" standalone="no"?>
<!DOCTYPE svg PUBLIC "-//W3C//DTD SVG 1.1//EN"
  "http://www.w3.org/Graphics/SVG/1.1/DTD/svg11.dtd">
<!-- Created with matplotlib (https://matplotlib.org/) -->
<svg height="345.6pt" version="1.1" viewBox="0 0 460.8 345.6" width="460.8pt" xmlns="http://www.w3.org/2000/svg" xmlns:xlink="http://www.w3.org/1999/xlink">
 <defs>
  <style type="text/css">
*{stroke-linecap:butt;stroke-linejoin:round;}
  </style>
 </defs>
 <g id="figure_1">
  <g id="patch_1">
   <path d="M 0 345.6 
L 460.8 345.6 
L 460.8 0 
L 0 0 
z
" style="fill:#ffffff;"/>
  </g>
  <g id="axes_1">
   <g id="patch_2">
    <path d="M 57.6 307.584 
L 414.72 307.584 
L 414.72 41.472 
L 57.6 41.472 
z
" style="fill:#ffffff;"/>
   </g>
   <g id="line2d_1">
    <path clip-path="url(#p61a029530b)" d="M 397.389367 288.607673 
L 397.265695 288.607673 
L 397.634187 288.607673 
L 397.634187 289.116139 
L 397.634187 289.116139 
L 397.755335 289.116139 
L 397.634187 289.372663 
L 397.023398 290.137652 
L 396.654906 290.137652 
L 396.654906 289.881129 
L 397.144546 290.137652 
L 397.510515 289.624605 
L 397.634187 288.859616 
L 397.389367 288.351149 
L 397.144546 288.351149 
L 397.023398 288.607673 
L 397.023398 288.351149 
L 396.899726 288.607673 
L 396.533757 288.607673 
L 396.533757 288.607673 
L 397.265695 289.372663 
L 397.510515 289.881129 
L 397.389367 290.902642 
L 397.510515 290.646119 
L 397.389367 290.389595 
L 397.265695 290.389595 
L 396.899726 291.411108 
L 396.899726 291.667632 
L 397.144546 291.154585 
L 397.389367 291.154585 
L 397.389367 291.154585 
L 397.144546 290.902642 
L 397.023398 291.154585 
L 396.778578 291.154585 
L 396.654906 290.389595 
L 396.778578 290.646119 
L 397.265695 290.646119 
L 397.265695 290.902642 
L 397.023398 290.902642 
L 396.899726 290.646119 
L 396.899726 290.646119 
L 396.654906 290.646119 
L 396.533757 290.137652 
L 396.778578 291.154585 
L 396.778578 292.428041 
L 397.023398 291.919575 
L 396.899726 292.428041 
L 396.778578 292.684564 
L 396.533757 292.684564 
L 396.533757 292.941088 
L 396.654906 292.941088 
L 396.778578 292.684564 
L 397.144546 292.684564 
L 397.023398 292.684564 
L 396.899726 292.941088 
L 396.899726 293.95802 
L 396.533757 293.706078 
L 396.288937 293.193031 
L 396.044117 293.193031 
L 396.167789 293.193031 
L 396.412609 293.706078 
L 396.533757 294.471067 
L 396.412609 294.979534 
L 396.412609 294.72301 
L 396.044117 293.95802 
L 396.288937 294.72301 
L 396.288937 294.979534 
L 396.167789 294.979534 
L 396.167789 294.471067 
L 396.044117 294.214544 
L 395.922968 294.72301 
L 395.922968 295.488 
L 395.80182 295.488 
L 395.922968 294.72301 
L 396.167789 293.95802 
L 396.288937 294.214544 
L 396.288937 294.214544 
L 396.044117 294.979534 
L 395.922968 294.979534 
L 395.922968 294.979534 
L 395.922968 295.236057 
L 395.922968 295.236057 
L 396.044117 295.488 
L 396.044117 295.236057 
L 396.044117 294.471067 
L 396.044117 294.72301 
L 396.167789 293.706078 
L 396.412609 292.941088 
L 396.533757 293.193031 
L 396.412609 293.706078 
L 396.412609 294.214544 
L 396.412609 294.214544 
L 396.533757 294.471067 
L 396.533757 294.471067 
L 396.044117 293.95802 
L 396.044117 293.449554 
L 396.533757 293.193031 
L 396.899726 293.706078 
L 396.899726 293.95802 
L 396.899726 293.95802 
L 397.023398 293.706078 
L 397.023398 293.193031 
L 396.899726 292.428041 
L 396.899726 292.176098 
L 396.654906 292.176098 
L 396.412609 291.919575 
L 396.533757 291.919575 
L 396.778578 291.667632 
L 397.510515 291.667632 
L 397.510515 291.154585 
L 397.265695 290.902642 
L 397.023398 290.137652 
L 397.144546 289.624605 
L 397.389367 289.881129 
L 397.389367 290.137652 
L 397.265695 290.389595 
L 397.144546 290.137652 
L 397.389367 290.137652 
L 397.510515 289.624605 
L 397.389367 289.116139 
L 397.144546 288.607673 
L 397.144546 288.351149 
L 397.265695 287.842683 
L 397.510515 287.329636 
L 398.121304 286.82117 
L 397.510515 286.82117 
L 397.144546 286.569227 
L 397.144546 286.312703 
L 398.000156 285.29119 
L 398.000156 285.29119 
L 397.876484 285.804237 
L 398.121304 286.05618 
L 398.487273 286.05618 
L 398.487273 285.547714 
L 398.121304 284.5262 
L 397.634187 284.274258 
L 397.510515 284.017734 
L 397.755335 283.252744 
L 398.121304 282.996221 
L 398.242452 283.509268 
L 398.121304 284.782724 
L 397.510515 284.017734 
L 397.265695 283.252744 
L 397.265695 282.744278 
L 397.389367 281.979288 
L 397.389367 282.487755 
L 397.634187 282.996221 
L 397.510515 282.487755 
L 397.389367 281.979288 
L 397.634187 281.470822 
L 397.634187 280.957775 
L 397.876484 281.722765 
L 398.000156 281.979288 
L 398.000156 281.979288 
L 398.000156 281.214299 
L 397.755335 280.705832 
L 397.023398 280.705832 
L 397.023398 280.449309 
L 397.144546 280.192785 
L 397.510515 280.957775 
L 397.510515 280.705832 
L 397.265695 280.705832 
L 397.144546 280.957775 
L 396.899726 280.957775 
L 396.778578 281.214299 
L 396.899726 281.214299 
L 397.389367 280.705832 
L 397.634187 280.705832 
L 397.510515 280.705832 
L 397.265695 280.449309 
L 396.778578 280.705832 
L 397.023398 279.684319 
L 397.634187 279.175853 
L 397.510515 279.940843 
L 397.510515 281.470822 
L 397.510515 281.214299 
L 397.389367 281.214299 
L 397.389367 281.214299 
L 397.389367 280.705832 
L 397.265695 280.449309 
L 397.144546 280.705832 
L 397.389367 281.470822 
L 397.510515 281.214299 
L 397.510515 280.192785 
L 397.755335 280.705832 
L 397.755335 281.470822 
L 397.389367 281.470822 
L 397.023398 280.705832 
L 397.510515 281.470822 
L 397.634187 281.214299 
L 397.510515 281.214299 
L 397.265695 280.705832 
L 397.023398 280.449309 
L 396.654906 280.449309 
L 396.533757 279.940843 
L 396.654906 279.940843 
L 397.144546 280.192785 
L 397.510515 279.940843 
L 397.510515 279.684319 
L 396.412609 280.449309 
L 395.557 280.449309 
L 394.70139 281.214299 
L 393.358664 281.722765 
L 387.005954 279.940843 
L 371.006816 277.38935 
L 366.120504 276.372417 
L 360.502254 275.607427 
L 349.142084 274.585914 
L 343.644983 273.820924 
L 337.905585 272.290945 
L 332.163664 270.252499 
L 326.300594 267.449063 
L 314.332158 260.820679 
L 297.840855 251.132335 
L 292.712247 247.820434 
L 287.949607 243.738961 
L 283.429264 239.153603 
L 270.726367 228.191804 
L 255.459166 216.208491 
L 247.884877 211.366609 
L 239.947144 206.268204 
L 228.465825 201.1698 
L 225.16706 199.891763 
L 222.113115 198.10984 
L 217.105655 195.814871 
L 215.518108 194.793358 
L 213.440921 191.73798 
L 212.464163 190.716466 
L 212.708983 190.97299 
L 213.806889 190.97299 
L 215.394436 190.459943 
L 216.494866 190.208 
L 217.592772 190.208 
L 218.327233 190.459943 
L 219.669959 190.459943 
L 220.1596 190.97299 
L 220.525568 191.989922 
L 220.891537 192.246446 
L 221.136357 191.989922 
L 221.257506 192.246446 
L 220.525568 194.284892 
L 220.1596 195.049881 
L 219.914779 194.793358 
L 219.914779 197.601374 
L 219.669959 197.344851 
L 219.548811 196.836384 
L 219.669959 196.323337 
L 219.914779 196.579861 
L 219.914779 196.836384 
L 219.793631 197.088327 
L 220.40442 196.071395 
L 221.015209 197.601374 
L 221.015209 197.601374 
L 221.136357 197.088327 
L 221.381178 196.579861 
L 221.381178 196.323337 
L 221.015209 196.323337 
L 221.381178 197.344851 
L 221.623474 198.618307 
L 222.113115 199.131354 
L 222.234263 197.853317 
L 222.234263 197.344851 
L 221.991967 197.344851 
L 221.868295 197.601374 
L 221.747146 198.366364 
L 221.991967 199.383297 
L 221.991967 198.87483 
L 221.502326 198.618307 
L 221.502326 198.366364 
L 221.502326 198.366364 
L 222.113115 197.853317 
L 222.602756 197.601374 
L 222.723904 197.853317 
L 222.723904 198.366364 
L 223.089873 197.344851 
L 222.968724 197.344851 
L 222.845052 197.853317 
L 222.968724 197.853317 
L 223.089873 198.366364 
L 223.089873 198.618307 
L 223.089873 197.088327 
L 223.089873 197.344851 
L 222.968724 197.344851 
L 222.845052 196.836384 
L 222.968724 196.323337 
L 223.213545 196.071395 
L 223.455841 196.323337 
L 223.455841 196.579861 
L 223.213545 196.579861 
L 222.723904 196.071395 
L 222.479084 196.323337 
L 222.845052 196.071395 
L 222.968724 195.558348 
L 223.089873 195.558348 
L 222.602756 195.558348 
L 222.602756 195.306405 
L 222.845052 195.049881 
L 222.968724 194.284892 
L 222.845052 194.032949 
L 222.845052 194.541415 
L 223.089873 195.049881 
L 223.334693 194.541415 
L 223.334693 194.284892 
L 223.213545 194.284892 
L 223.089873 194.032949 
L 222.968724 193.267959 
L 222.968724 192.246446 
L 222.845052 192.754912 
L 222.845052 193.776425 
L 222.968724 193.776425 
L 223.455841 192.502969 
L 223.579513 192.502969 
L 223.579513 192.754912 
L 223.213545 191.481456 
L 222.968724 191.481456 
L 222.968724 191.73798 
L 223.334693 191.989922 
L 224.06663 191.481456 
L 224.190302 191.224933 
L 224.06663 191.481456 
L 224.190302 191.481456 
L 224.190302 191.224933 
L 223.700662 189.951476 
L 223.824334 189.951476 
L 223.945482 189.694953 
L 223.945482 189.951476 
L 223.945482 190.716466 
L 223.824334 191.224933 
L 223.700662 190.97299 
L 223.945482 189.44301 
L 223.824334 188.67802 
L 223.824334 188.67802 
L 224.311451 189.44301 
L 224.435123 189.694953 
L 224.435123 189.694953 
L 224.435123 189.951476 
L 224.435123 189.951476 
L 224.311451 189.44301 
L 224.190302 188.169554 
L 224.556271 187.656507 
L 224.311451 187.913031 
L 224.311451 188.67802 
L 224.435123 188.934544 
L 224.556271 188.421497 
L 224.311451 188.421497 
L 223.824334 187.656507 
L 223.700662 187.656507 
L 224.311451 187.656507 
L 224.311451 187.404564 
L 224.06663 187.404564 
L 223.824334 187.148041 
L 223.579513 186.383051 
L 221.015209 186.383051 
L 218.203561 186.891517 
L 216.005225 186.891517 
L 213.074952 186.639575 
L 209.531366 185.874585 
L 200.982844 183.071149 
L 196.096532 181.793112 
L 191.089072 180.263133 
L 185.95794 178.224687 
L 175.698199 174.656262 
L 170.690738 171.852826 
L 161.162935 167.262888 
L 156.889936 164.967918 
L 152.490741 161.91254 
L 148.094069 158.596057 
L 143.818546 155.536098 
L 136.61275 151.71573 
L 133.437657 148.907714 
L 126.474158 142.28391 
L 123.054244 139.732417 
L 116.459237 134.125546 
L 113.160472 130.809063 
L 110.109051 127.497162 
L 107.176254 124.693726 
L 104.245981 121.633767 
L 101.313184 118.317284 
L 98.627732 115.513849 
L 93.98624 111.436957 
L 91.785381 109.141988 
L 89.710717 106.595076 
L 88.244319 104.552049 
L 87.143889 103.278593 
L 85.924835 102.513603 
L 85.924835 101.496671 
L 86.045983 100.475157 
L 86.535624 100.218634 
L 87.87835 100.731681 
L 88.365467 100.983624 
L 88.976256 100.731681 
L 89.710717 99.966691 
L 90.197834 99.966691 
L 91.298264 101.496671 
L 92.64099 102.770127 
L 92.885811 102.770127 
L 92.885811 103.278593 
L 91.785381 104.552049 
L 91.909053 104.808573 
L 91.909053 105.573562 
L 91.785381 107.103542 
L 91.909053 106.338552 
L 91.664233 106.595076 
L 91.298264 106.595076 
L 91.174592 106.847018 
L 91.298264 106.847018 
L 91.298264 107.355485 
L 91.174592 107.868532 
L 91.298264 108.633521 
L 92.153873 109.398511 
L 92.275022 108.885464 
L 91.909053 108.633521 
L 91.419412 109.141988 
L 91.785381 109.650454 
L 92.153873 109.650454 
L 91.664233 110.163501 
L 91.664233 110.415444 
L 91.909053 110.671967 
L 91.909053 111.693481 
L 92.030201 112.201947 
L 92.519842 113.475403 
L 92.39617 112.966937 
L 92.39617 113.475403 
L 92.153873 113.475403 
L 92.153873 113.983869 
L 92.64099 115.261906 
L 93.006959 115.770372 
L 92.39617 116.278838 
L 92.275022 116.026896 
L 92.275022 115.770372 
L 92.275022 116.026896 
L 92.519842 116.791885 
L 93.006959 117.300352 
L 93.006959 117.300352 
L 92.39617 117.300352 
L 92.275022 117.043828 
L 92.030201 116.791885 
L 92.030201 116.791885 
L 92.275022 116.791885 
L 92.519842 116.535362 
L 92.764662 116.535362 
L 93.006959 117.552294 
L 92.275022 117.552294 
L 92.275022 117.300352 
L 92.275022 117.808818 
L 92.39617 118.573808 
L 92.764662 118.830331 
L 92.519842 120.868777 
L 92.764662 119.595321 
L 92.64099 119.082274 
L 92.519842 119.338798 
L 92.64099 120.103787 
L 92.764662 120.103787 
L 93.006959 119.338798 
L 93.006959 118.830331 
L 92.764662 118.830331 
L 92.519842 119.595321 
L 92.519842 120.360311 
L 92.764662 120.612254 
L 93.375451 119.595321 
L 93.375451 119.847264 
L 93.006959 120.360311 
L 92.519842 120.103787 
L 92.519842 119.847264 
L 92.519842 120.103787 
L 92.39617 120.612254 
L 92.519842 121.125301 
L 92.764662 121.125301 
L 93.006959 120.868777 
L 93.251779 119.847264 
L 93.130631 119.338798 
L 92.64099 119.082274 
L 92.39617 119.082274 
L 92.64099 119.338798 
L 93.74142 119.338798 
L 93.74142 119.082274 
L 93.74142 119.595321 
L 93.862568 120.360311 
L 93.98624 120.360311 
L 93.98624 119.847264 
L 93.617748 119.847264 
L 93.375451 120.360311 
L 93.617748 121.377243 
L 93.617748 120.612254 
L 94.107389 121.125301 
L 94.597029 121.125301 
L 94.107389 120.103787 
L 93.74142 119.847264 
L 93.617748 120.103787 
L 93.862568 120.612254 
L 94.597029 120.612254 
L 94.597029 120.612254 
L 94.597029 121.125301 
L 94.228537 121.89029 
L 93.98624 121.633767 
L 93.98624 121.377243 
L 94.597029 120.868777 
L 94.473357 120.360311 
L 94.352209 120.360311 
L 94.839326 121.125301 
L 94.962998 121.125301 
L 94.839326 121.125301 
L 94.839326 120.868777 
L 94.962998 120.868777 
L 94.962998 120.868777 
L 95.084146 121.377243 
L 95.450115 121.89029 
L 95.816083 121.377243 
L 95.450115 120.360311 
L 95.573787 119.847264 
L 95.450115 119.847264 
L 95.450115 120.103787 
L 95.694935 120.360311 
L 96.060904 120.360311 
L 96.060904 120.612254 
L 95.939756 120.612254 
L 95.816083 120.360311 
L 95.816083 120.612254 
L 95.816083 119.847264 
L 95.939756 119.082274 
L 96.060904 119.082274 
L 95.816083 120.103787 
L 95.694935 120.103787 
L 95.816083 119.847264 
L 96.305724 119.847264 
L 96.426872 119.595321 
L 96.305724 119.082274 
L 96.671693 119.082274 
L 97.161334 118.317284 
L 97.161334 117.300352 
L 97.037661 116.791885 
L 96.550545 116.278838 
L 95.694935 116.278838 
L 95.328967 116.026896 
L 94.839326 115.261906 
L 93.98624 114.240393 
L 92.64099 113.731926 
L 91.174592 113.475403 
L 89.831866 112.45389 
L 88.123171 110.928491 
L 86.167132 109.906978 
L 82.381249 108.376998 
L 78.716515 105.830086 
L 75.907391 103.278593 
L 74.930633 101.748613 
L 74.319844 100.475157 
L 73.953876 99.201701 
L 73.832727 95.885219 
L 74.319844 94.611763 
L 74.809485 93.590249 
L 76.273359 91.043337 
L 76.641852 89.513358 
L 76.763 87.218389 
L 77.252641 86.453399 
L 78.840188 84.923419 
L 79.082484 84.414953 
L 79.693273 85.436466 
L 80.061766 85.944933 
L 79.938093 85.179943 
L 79.450977 84.671476 
L 79.450977 84.414953 
L 79.816945 85.179943 
L 80.061766 84.923419 
L 80.182914 84.414953 
L 80.182914 84.414953 
L 79.816945 83.906487 
L 79.816945 83.906487 
L 79.816945 83.649963 
L 79.450977 82.62845 
L 79.572125 82.884973 
L 79.938093 81.86346 
L 80.182914 80.846528 
L 80.182914 79.825014 
L 80.672555 78.295035 
L 81.038523 77.786569 
L 80.914851 77.786569 
L 81.038523 78.551558 
L 81.52564 79.316548 
L 81.404492 79.060025 
L 81.159671 78.295035 
L 81.038523 77.021579 
L 81.404492 77.021579 
L 81.894133 77.278102 
L 82.381249 77.278102 
L 82.260101 77.530045 
L 82.136429 77.530045 
L 82.015281 76.765055 
L 82.260101 75.748123 
L 82.015281 74.726609 
L 81.894133 75.239656 
L 81.894133 75.748123 
L 82.136429 75.748123 
L 82.381249 74.983133 
L 82.260101 74.983133 
L 82.136429 75.239656 
L 82.260101 74.726609 
L 82.62607 73.96162 
L 82.260101 74.983133 
L 82.747218 74.726609 
L 83.236859 74.726609 
L 82.504922 73.96162 
L 82.747218 73.709677 
L 82.992038 73.19663 
L 83.358007 72.944687 
L 83.723976 72.944687 
L 83.113187 73.96162 
L 83.481679 73.19663 
L 83.358007 72.43164 
L 83.236859 72.688164 
L 83.358007 73.19663 
L 83.723976 73.453153 
L 83.968796 73.453153 
L 83.968796 73.453153 
L 83.847648 73.19663 
L 83.602827 73.19663 
L 83.847648 72.944687 
L 83.847648 72.43164 
L 83.481679 71.66665 
L 83.113187 71.66665 
L 83.358007 72.179697 
L 83.847648 72.179697 
L 84.458437 71.66665 
L 84.092468 72.179697 
L 83.723976 73.19663 
L 83.847648 72.43164 
L 84.092468 71.923174 
L 84.092468 72.43164 
L 84.092468 72.179697 
L 84.213616 72.179697 
L 84.334765 72.43164 
L 84.458437 73.19663 
L 84.579585 73.19663 
L 84.579585 72.944687 
L 84.213616 72.179697 
L 84.334765 72.179697 
L 84.945554 71.66665 
L 84.945554 71.923174 
L 84.824405 72.688164 
L 84.945554 72.944687 
L 84.945554 72.688164 
L 85.069226 72.688164 
L 85.069226 72.688164 
L 84.703257 72.179697 
L 85.314046 72.179697 
L 85.435194 72.43164 
L 85.435194 72.43164 
L 85.435194 71.923174 
L 85.556343 71.923174 
L 85.190374 72.688164 
L 84.824405 72.944687 
L 84.579585 72.944687 
L 84.579585 72.688164 
L 84.703257 72.43164 
L 85.069226 73.19663 
L 85.314046 72.43164 
L 85.435194 71.66665 
L 85.556343 71.66665 
L 85.435194 72.179697 
L 85.435194 72.179697 
L 86.045983 72.179697 
L 86.411952 72.43164 
L 86.411952 72.688164 
L 86.045983 72.43164 
L 85.801163 71.923174 
L 85.801163 71.414708 
L 85.801163 71.414708 
L 85.680015 71.923174 
L 85.680015 72.43164 
L 86.167132 71.923174 
L 86.411952 71.923174 
L 86.656772 73.19663 
L 86.656772 73.96162 
L 86.777921 74.218143 
L 86.777921 72.179697 
L 86.656772 72.179697 
L 86.656772 72.688164 
L 86.535624 73.709677 
L 86.777921 73.96162 
L 87.022741 73.709677 
L 87.143889 73.19663 
L 87.022741 73.709677 
L 87.143889 73.96162 
L 87.143889 73.453153 
L 86.901593 71.923174 
L 87.754678 73.19663 
L 87.87835 73.709677 
L 87.87835 73.453153 
L 87.63353 73.19663 
L 87.38871 73.19663 
L 87.87835 73.19663 
L 87.87835 74.474667 
L 88.123171 73.453153 
L 87.754678 73.19663 
L 87.512382 73.19663 
L 87.63353 73.19663 
L 88.244319 74.218143 
L 88.123171 74.474667 
L 87.87835 74.218143 
L 87.87835 74.218143 
L 87.87835 72.944687 
L 87.63353 72.688164 
L 88.244319 73.453153 
L 88.244319 73.19663 
L 88.365467 73.19663 
L 87.754678 73.19663 
L 87.87835 73.19663 
L 88.365467 72.944687 
L 88.855108 72.944687 
L 89.344749 73.19663 
L 89.221077 73.453153 
L 89.221077 73.96162 
L 89.221077 73.709677 
L 89.099928 73.453153 
L 88.855108 73.453153 
L 88.610288 73.709677 
L 88.489139 74.474667 
L 88.855108 74.218143 
L 89.099928 73.709677 
L 89.099928 72.688164 
L 89.344749 72.944687 
L 89.587045 72.688164 
L 89.831866 72.179697 
L 89.710717 72.179697 
L 89.465897 72.43164 
L 89.465897 73.19663 
L 89.221077 72.179697 
L 89.344749 72.179697 
L 89.465897 72.43164 
L 89.344749 73.19663 
L 89.587045 72.688164 
L 89.710717 71.66665 
L 89.587045 71.923174 
L 89.587045 71.923174 
L 89.710717 71.923174 
L 89.831866 71.66665 
L 89.831866 70.906241 
L 89.831866 71.414708 
L 89.955538 71.414708 
L 90.197834 70.649718 
L 89.955538 70.649718 
L 89.587045 70.393194 
L 89.587045 69.884728 
L 89.831866 69.376262 
L 90.076686 69.376262 
L 90.321506 70.906241 
L 90.321506 70.393194 
L 90.932295 69.884728 
L 90.442655 70.141252 
L 89.955538 70.141252 
L 90.076686 69.376262 
L 90.566327 68.354748 
L 91.053444 67.846282 
L 91.298264 67.846282 
L 91.053444 67.846282 
L 90.687475 68.098225 
L 90.566327 68.098225 
L 90.566327 68.354748 
L 90.442655 68.611272 
L 90.442655 69.119738 
L 90.566327 69.376262 
L 90.808623 68.863215 
L 91.174592 68.354748 
L 91.664233 68.354748 
L 91.785381 68.098225 
L 91.419412 67.589759 
L 91.053444 67.589759 
L 91.053444 67.589759 
L 91.174592 67.333235 
L 90.932295 66.824769 
L 91.664233 68.098225 
L 92.153873 68.863215 
L 92.153873 68.611272 
L 91.909053 68.098225 
L 91.543084 67.589759 
L 91.419412 67.846282 
L 91.419412 67.846282 
L 91.664233 66.568245 
L 91.664233 66.824769 
L 91.664233 67.081292 
L 92.153873 66.059779 
L 92.275022 66.059779 
L 92.153873 66.568245 
L 91.909053 67.081292 
L 91.909053 66.824769 
L 92.153873 64.786323 
L 92.275022 64.786323 
L 92.39617 65.042847 
L 92.153873 66.059779 
L 91.909053 65.803256 
L 91.785381 65.042847 
L 92.030201 65.294789 
L 92.519842 66.568245 
L 92.64099 66.568245 
L 92.64099 66.059779 
L 92.764662 65.551313 
L 92.764662 65.551313 
L 92.519842 65.042847 
L 92.39617 64.5298 
L 92.275022 64.5298 
L 92.275022 64.786323 
L 92.39617 64.786323 
L 92.764662 64.277857 
L 93.006959 63.512867 
L 92.764662 63.256344 
L 93.006959 63.76481 
L 92.885811 63.512867 
L 92.764662 63.512867 
L 93.375451 64.021333 
L 93.4966 63.512867 
L 93.375451 62.99982 
L 93.130631 63.256344 
L 93.130631 63.256344 
L 93.251779 62.491354 
L 93.251779 61.726364 
L 93.251779 61.726364 
L 93.375451 62.491354 
L 93.251779 62.747877 
L 92.519842 61.46984 
L 92.39617 61.46984 
L 92.39617 61.217898 
L 92.764662 61.982888 
L 93.130631 62.99982 
L 93.375451 63.256344 
L 93.251779 62.99982 
L 93.375451 62.99982 
L 93.4966 62.23483 
L 92.764662 60.961374 
L 92.764662 60.452908 
L 93.130631 60.704851 
L 93.4966 61.46984 
L 93.617748 62.23483 
L 93.4966 62.23483 
L 93.4966 61.982888 
L 93.4966 62.747877 
L 93.4966 61.982888 
L 93.375451 60.961374 
L 93.006959 59.944442 
L 93.006959 60.196384 
L 93.130631 60.196384 
L 93.251779 60.452908 
L 93.130631 59.944442 
L 93.130631 60.196384 
L 93.375451 59.431395 
L 93.375451 59.687918 
L 93.375451 60.704851 
L 93.617748 60.961374 
L 93.862568 60.452908 
L 93.862568 60.452908 
L 93.862568 59.431395 
L 93.74142 59.431395 
L 93.130631 60.196384 
L 93.617748 59.687918 
L 93.862568 58.922928 
L 93.98624 59.179452 
L 93.74142 59.944442 
L 93.375451 60.196384 
L 93.130631 59.944442 
L 93.251779 59.944442 
L 93.862568 58.922928 
L 94.473357 57.901415 
L 94.839326 58.157939 
L 94.962998 58.414462 
L 94.839326 58.666405 
L 94.352209 58.414462 
L 94.107389 58.157939 
L 94.107389 58.157939 
L 94.228537 58.666405 
L 94.473357 58.922928 
L 94.962998 58.414462 
L 95.084146 58.666405 
L 94.962998 58.666405 
L 94.597029 58.666405 
L 94.718178 58.666405 
L 94.839326 58.414462 
L 94.839326 57.392949 
L 94.962998 57.136425 
L 95.207818 57.136425 
L 95.084146 57.136425 
L 94.718178 56.884483 
L 94.352209 56.884483 
L 94.352209 57.136425 
L 95.328967 57.901415 
L 95.207818 58.157939 
L 94.962998 57.901415 
L 95.207818 57.136425 
L 95.207818 57.392949 
L 94.962998 57.649472 
L 94.718178 57.392949 
L 94.718178 57.136425 
L 94.839326 56.884483 
L 95.084146 56.884483 
L 95.328967 57.136425 
L 95.207818 57.392949 
L 94.839326 57.649472 
L 94.597029 58.157939 
L 94.962998 57.136425 
L 94.962998 56.627959 
L 95.084146 56.627959 
L 95.084146 56.627959 
L 94.839326 56.884483 
L 94.597029 57.392949 
L 94.839326 57.136425 
L 95.328967 57.136425 
L 95.328967 57.392949 
L 95.207818 57.392949 
L 94.962998 56.627959 
L 95.084146 56.884483 
L 94.962998 56.884483 
L 94.839326 56.627959 
L 94.839326 57.136425 
L 94.597029 57.136425 
L 94.597029 56.884483 
L 94.839326 56.627959 
L 95.084146 56.627959 
L 94.839326 56.627959 
L 94.962998 57.136425 
L 94.839326 57.392949 
L 94.962998 56.884483 
L 94.962998 56.627959 
L 94.839326 56.371436 
L 94.839326 57.901415 
L 94.473357 56.884483 
L 94.473357 56.119493 
L 94.718178 55.862969 
L 95.207818 55.862969 
L 95.450115 56.119493 
L 95.450115 56.371436 
L 95.328967 56.627959 
L 95.328967 58.414462 
L 95.207818 57.901415 
L 94.839326 55.09798 
L 94.962998 54.846037 
L 95.084146 55.606446 
L 95.084146 56.371436 
L 94.839326 56.627959 
L 94.839326 55.606446 
L 94.839326 56.119493 
L 94.597029 56.119493 
L 94.718178 56.119493 
L 94.962998 56.371436 
L 95.084146 56.884483 
L 94.962998 56.119493 
L 94.839326 55.354503 
L 94.597029 54.846037 
L 94.718178 54.846037 
L 95.207818 54.846037 
L 95.450115 54.589513 
L 95.450115 54.33299 
L 95.207818 54.589513 
L 95.207818 55.862969 
L 95.207818 55.606446 
L 94.718178 54.846037 
L 94.718178 55.09798 
L 94.962998 55.862969 
L 95.450115 55.862969 
L 94.962998 55.862969 
L 94.962998 55.606446 
L 95.207818 55.862969 
L 95.207818 55.862969 
L 95.084146 56.119493 
L 95.694935 56.119493 
L 95.328967 56.119493 
L 94.839326 56.371436 
L 94.597029 56.119493 
L 94.597029 55.354503 
L 94.839326 54.081047 
L 94.962998 54.589513 
L 94.962998 55.354503 
L 95.084146 55.862969 
L 95.084146 55.862969 
L 95.207818 55.862969 
L 95.328967 56.119493 
L 95.573787 56.371436 
L 95.450115 56.119493 
L 95.328967 55.606446 
L 95.328967 55.606446 
L 95.573787 55.862969 
L 95.816083 55.354503 
L 95.450115 54.081047 
L 95.573787 54.846037 
L 95.573787 55.09798 
L 95.573787 54.846037 
L 95.328967 53.568 
L 95.573787 54.846037 
L 95.816083 55.606446 
L 95.816083 55.606446 
L 95.816083 54.081047 
L 95.816083 55.354503 
L 96.060904 55.606446 
L 96.550545 55.862969 
L 97.161334 55.862969 
L 98.138091 55.354503 
L 99.725638 55.09798 
L 101.558005 55.09798 
L 103.75634 55.354503 
L 106.320645 55.862969 
L 109.61941 56.119493 
L 117.801964 57.649472 
L 121.956338 57.901415 
L 130.138892 57.901415 
L 138.566266 58.414462 
L 142.841789 58.922928 
L 151.269163 60.452908 
L 155.299865 61.46984 
L 159.20942 62.23483 
L 162.629333 62.747877 
L 165.928099 63.512867 
L 168.982044 64.021333 
L 174.966261 64.5298 
L 177.654238 65.294789 
L 180.33969 65.803256 
L 189.622674 69.119738 
L 193.042587 70.393194 
L 196.586173 71.923174 
L 200.738024 73.453153 
L 204.889875 73.96162 
L 209.044249 74.726609 
L 213.1961 75.748123 
L 217.716444 77.021579 
L 226.633458 80.081538 
L 231.151278 81.86346 
L 235.792769 83.906487 
L 240.189441 86.453399 
L 244.220143 88.491845 
L 248.129698 89.769881 
L 265.474086 96.906732 
L 268.283211 98.436712 
L 275.00189 102.513603 
L 275.489007 103.278593 
L 275.733827 104.300106 
L 275.367858 104.808573 
L 275.24671 105.830086 
L 275.24671 107.103542 
L 274.878218 107.868532 
L 273.290671 107.868532 
L 272.679882 107.612008 
L 272.192765 108.120474 
L 271.581976 107.868532 
L 270.971187 107.355485 
L 270.360398 107.355485 
L 269.870757 107.612008 
L 269.625937 107.868532 
L 269.870757 108.120474 
L 270.236726 108.120474 
L 269.99443 108.120474 
L 269.625937 107.868532 
L 269.383641 107.868532 
L 269.504789 108.376998 
L 269.383641 109.141988 
L 268.528031 110.928491 
L 268.162063 110.928491 
L 266.940485 111.436957 
L 266.816812 111.693481 
L 266.574516 111.180434 
L 266.206023 110.928491 
L 266.206023 111.180434 
L 266.329696 112.45389 
L 265.595234 113.218879 
L 264.497329 113.218879 
L 264.373656 112.710413 
L 264.497329 111.945423 
L 264.373656 112.45389 
L 264.13136 113.218879 
L 263.641719 113.983869 
L 263.03093 114.240393 
L 262.664962 113.983869 
L 262.664962 113.731926 
L 262.543813 113.475403 
L 262.175321 113.731926 
L 261.933024 114.496916 
L 262.298993 114.496916 
L 262.054173 115.513849 
L 262.054173 115.005382 
L 261.809352 114.496916 
L 261.198563 114.748859 
L 260.466626 115.513849 
L 260.221806 116.278838 
L 260.221806 116.278838 
L 260.466626 116.535362 
L 260.466626 116.791885 
L 259.245048 117.300352 
L 259.1239 117.300352 
L 259.1239 116.278838 
L 258.755407 116.278838 
L 258.513111 116.535362 
L 258.634259 117.300352 
L 258.513111 117.808818 
L 258.389439 117.808818 
L 258.144618 116.791885 
L 258.02347 116.791885 
L 257.902322 117.043828 
L 257.902322 117.552294 
L 257.77865 118.065342 
L 257.533829 118.573808 
L 256.92304 117.300352 
L 256.680744 117.300352 
L 256.680744 117.300352 
L 256.557072 118.065342 
L 256.680744 118.065342 
L 256.801892 118.317284 
L 256.680744 118.317284 
L 256.312251 118.317284 
L 255.946283 118.065342 
L 256.069955 117.808818 
L 256.069955 117.552294 
L 255.825134 118.065342 
L 255.825134 118.317284 
L 255.580314 118.317284 
L 255.335494 118.065342 
L 255.093197 118.065342 
L 255.093197 117.808818 
L 255.335494 117.808818 
L 255.335494 118.065342 
L 254.969525 118.317284 
L 254.724705 117.808818 
L 254.848377 117.808818 
L 255.093197 118.065342 
L 254.848377 118.065342 
L 254.724705 117.808818 
L 254.848377 118.065342 
L 254.848377 118.830331 
L 254.724705 119.338798 
L 254.482408 119.082274 
L 254.237588 118.317284 
L 254.113916 118.317284 
L 254.237588 118.573808 
L 254.237588 118.830331 
L 254.113916 118.830331 
L 254.113916 118.830331 
L 254.237588 119.082274 
L 254.113916 119.338798 
L 253.871619 119.338798 
L 253.747947 119.082274 
L 253.747947 119.338798 
L 253.503127 119.338798 
L 253.626799 119.847264 
L 253.992767 120.612254 
L 253.992767 121.125301 
L 253.381978 121.633767 
L 253.381978 121.633767 
L 253.381978 121.377243 
L 253.137158 120.868777 
L 252.771189 120.612254 
L 252.650041 120.360311 
L 252.650041 120.103787 
L 252.650041 120.360311 
L 252.771189 119.847264 
L 252.771189 119.595321 
L 252.771189 120.103787 
L 252.526369 120.612254 
L 252.405221 121.125301 
L 252.526369 121.89029 
L 252.526369 122.142233 
L 253.01601 121.633767 
L 253.01601 121.89029 
L 252.526369 121.89029 
L 252.650041 121.633767 
L 253.381978 121.125301 
L 253.747947 121.633767 
L 254.724705 122.398757 
L 256.312251 122.907223 
L 258.02347 123.163746 
L 259.976985 123.672213 
L 270.481546 123.672213 
L 276.834257 124.693726 
L 282.086537 126.732172 
L 286.970326 128.770618 
L 288.802693 129.279084 
L 290.147943 129.535607 
L 291.369521 130.300597 
L 292.222606 131.065587 
L 293.444184 133.360556 
L 294.178645 133.869022 
L 294.789434 133.360556 
L 295.276551 133.612499 
L 295.88734 136.163992 
L 296.498129 136.163992 
L 296.864098 136.420515 
L 297.108918 137.185505 
L 297.230066 137.945914 
L 297.108918 138.458961 
L 296.74295 138.710904 
L 296.376981 138.458961 
L 295.521372 139.223951 
L 294.178645 141.770863 
L 293.933825 142.535853 
L 293.199364 142.535853 
L 292.467427 143.044319 
L 291.856638 143.557366 
L 290.513911 143.557366 
L 290.63506 144.065832 
L 291.001028 144.322356 
L 291.369521 146.360802 
L 291.1247 146.104278 
L 290.758732 146.104278 
L 290.513911 146.360802 
L 290.390239 146.869268 
L 290.63506 147.125791 
L 290.758732 147.125791 
L 290.513911 147.125791 
L 290.147943 147.382315 
L 289.903122 147.890781 
L 289.903122 148.399247 
L 289.292333 147.634258 
L 289.047513 147.125791 
L 288.926365 147.634258 
L 288.802693 148.655771 
L 288.926365 148.907714 
L 289.292333 147.634258 
L 288.926365 148.142724 
L 288.436724 148.399247 
L 287.949607 148.399247 
L 287.704787 148.142724 
L 288.191904 148.655771 
L 288.070755 148.907714 
L 287.704787 148.907714 
L 287.459966 147.890781 
L 287.459966 147.890781 
" style="fill:none;stroke:#1f77b4;stroke-linecap:square;stroke-width:1.5;"/>
   </g>
   <g id="matplotlib.axis_1">
    <g id="xtick_1">
     <g id="line2d_2">
      <defs>
       <path d="M 0 0 
L 0 3.5 
" id="m316a7ac733" style="stroke:#000000;stroke-width:0.8;"/>
      </defs>
      <g>
       <use style="stroke:#000000;stroke-width:0.8;" x="70.008986" xlink:href="#m316a7ac733" y="307.584"/>
      </g>
     </g>
     <g id="text_1">
      <!-- −600 -->
      <defs>
       <path d="M 10.59375 35.5 
L 73.1875 35.5 
L 73.1875 27.203125 
L 10.59375 27.203125 
z
" id="DejaVuSans-8722"/>
       <path d="M 33.015625 40.375 
Q 26.375 40.375 22.484375 35.828125 
Q 18.609375 31.296875 18.609375 23.390625 
Q 18.609375 15.53125 22.484375 10.953125 
Q 26.375 6.390625 33.015625 6.390625 
Q 39.65625 6.390625 43.53125 10.953125 
Q 47.40625 15.53125 47.40625 23.390625 
Q 47.40625 31.296875 43.53125 35.828125 
Q 39.65625 40.375 33.015625 40.375 
z
M 52.59375 71.296875 
L 52.59375 62.3125 
Q 48.875 64.0625 45.09375 64.984375 
Q 41.3125 65.921875 37.59375 65.921875 
Q 27.828125 65.921875 22.671875 59.328125 
Q 17.53125 52.734375 16.796875 39.40625 
Q 19.671875 43.65625 24.015625 45.921875 
Q 28.375 48.1875 33.59375 48.1875 
Q 44.578125 48.1875 50.953125 41.515625 
Q 57.328125 34.859375 57.328125 23.390625 
Q 57.328125 12.15625 50.6875 5.359375 
Q 44.046875 -1.421875 33.015625 -1.421875 
Q 20.359375 -1.421875 13.671875 8.265625 
Q 6.984375 17.96875 6.984375 36.375 
Q 6.984375 53.65625 15.1875 63.9375 
Q 23.390625 74.21875 37.203125 74.21875 
Q 40.921875 74.21875 44.703125 73.484375 
Q 48.484375 72.75 52.59375 71.296875 
z
" id="DejaVuSans-54"/>
       <path d="M 31.78125 66.40625 
Q 24.171875 66.40625 20.328125 58.90625 
Q 16.5 51.421875 16.5 36.375 
Q 16.5 21.390625 20.328125 13.890625 
Q 24.171875 6.390625 31.78125 6.390625 
Q 39.453125 6.390625 43.28125 13.890625 
Q 47.125 21.390625 47.125 36.375 
Q 47.125 51.421875 43.28125 58.90625 
Q 39.453125 66.40625 31.78125 66.40625 
z
M 31.78125 74.21875 
Q 44.046875 74.21875 50.515625 64.515625 
Q 56.984375 54.828125 56.984375 36.375 
Q 56.984375 17.96875 50.515625 8.265625 
Q 44.046875 -1.421875 31.78125 -1.421875 
Q 19.53125 -1.421875 13.0625 8.265625 
Q 6.59375 17.96875 6.59375 36.375 
Q 6.59375 54.828125 13.0625 64.515625 
Q 19.53125 74.21875 31.78125 74.21875 
z
" id="DejaVuSans-48"/>
      </defs>
      <g transform="translate(56.275392 322.182437)scale(0.1 -0.1)">
       <use xlink:href="#DejaVuSans-8722"/>
       <use x="83.789062" xlink:href="#DejaVuSans-54"/>
       <use x="147.412109" xlink:href="#DejaVuSans-48"/>
       <use x="211.035156" xlink:href="#DejaVuSans-48"/>
      </g>
     </g>
    </g>
    <g id="xtick_2">
     <g id="line2d_3">
      <g>
       <use style="stroke:#000000;stroke-width:0.8;" x="120.487416" xlink:href="#m316a7ac733" y="307.584"/>
      </g>
     </g>
     <g id="text_2">
      <!-- −400 -->
      <defs>
       <path d="M 37.796875 64.3125 
L 12.890625 25.390625 
L 37.796875 25.390625 
z
M 35.203125 72.90625 
L 47.609375 72.90625 
L 47.609375 25.390625 
L 58.015625 25.390625 
L 58.015625 17.1875 
L 47.609375 17.1875 
L 47.609375 0 
L 37.796875 0 
L 37.796875 17.1875 
L 4.890625 17.1875 
L 4.890625 26.703125 
z
" id="DejaVuSans-52"/>
      </defs>
      <g transform="translate(106.753822 322.182437)scale(0.1 -0.1)">
       <use xlink:href="#DejaVuSans-8722"/>
       <use x="83.789062" xlink:href="#DejaVuSans-52"/>
       <use x="147.412109" xlink:href="#DejaVuSans-48"/>
       <use x="211.035156" xlink:href="#DejaVuSans-48"/>
      </g>
     </g>
    </g>
    <g id="xtick_3">
     <g id="line2d_4">
      <g>
       <use style="stroke:#000000;stroke-width:0.8;" x="170.965846" xlink:href="#m316a7ac733" y="307.584"/>
      </g>
     </g>
     <g id="text_3">
      <!-- −200 -->
      <defs>
       <path d="M 19.1875 8.296875 
L 53.609375 8.296875 
L 53.609375 0 
L 7.328125 0 
L 7.328125 8.296875 
Q 12.9375 14.109375 22.625 23.890625 
Q 32.328125 33.6875 34.8125 36.53125 
Q 39.546875 41.84375 41.421875 45.53125 
Q 43.3125 49.21875 43.3125 52.78125 
Q 43.3125 58.59375 39.234375 62.25 
Q 35.15625 65.921875 28.609375 65.921875 
Q 23.96875 65.921875 18.8125 64.3125 
Q 13.671875 62.703125 7.8125 59.421875 
L 7.8125 69.390625 
Q 13.765625 71.78125 18.9375 73 
Q 24.125 74.21875 28.421875 74.21875 
Q 39.75 74.21875 46.484375 68.546875 
Q 53.21875 62.890625 53.21875 53.421875 
Q 53.21875 48.921875 51.53125 44.890625 
Q 49.859375 40.875 45.40625 35.40625 
Q 44.1875 33.984375 37.640625 27.21875 
Q 31.109375 20.453125 19.1875 8.296875 
z
" id="DejaVuSans-50"/>
      </defs>
      <g transform="translate(157.232252 322.182437)scale(0.1 -0.1)">
       <use xlink:href="#DejaVuSans-8722"/>
       <use x="83.789062" xlink:href="#DejaVuSans-50"/>
       <use x="147.412109" xlink:href="#DejaVuSans-48"/>
       <use x="211.035156" xlink:href="#DejaVuSans-48"/>
      </g>
     </g>
    </g>
    <g id="xtick_4">
     <g id="line2d_5">
      <g>
       <use style="stroke:#000000;stroke-width:0.8;" x="221.444276" xlink:href="#m316a7ac733" y="307.584"/>
      </g>
     </g>
     <g id="text_4">
      <!-- 0 -->
      <g transform="translate(218.263026 322.182437)scale(0.1 -0.1)">
       <use xlink:href="#DejaVuSans-48"/>
      </g>
     </g>
    </g>
    <g id="xtick_5">
     <g id="line2d_6">
      <g>
       <use style="stroke:#000000;stroke-width:0.8;" x="271.922706" xlink:href="#m316a7ac733" y="307.584"/>
      </g>
     </g>
     <g id="text_5">
      <!-- 200 -->
      <g transform="translate(262.378956 322.182437)scale(0.1 -0.1)">
       <use xlink:href="#DejaVuSans-50"/>
       <use x="63.623047" xlink:href="#DejaVuSans-48"/>
       <use x="127.246094" xlink:href="#DejaVuSans-48"/>
      </g>
     </g>
    </g>
    <g id="xtick_6">
     <g id="line2d_7">
      <g>
       <use style="stroke:#000000;stroke-width:0.8;" x="322.401135" xlink:href="#m316a7ac733" y="307.584"/>
      </g>
     </g>
     <g id="text_6">
      <!-- 400 -->
      <g transform="translate(312.857385 322.182437)scale(0.1 -0.1)">
       <use xlink:href="#DejaVuSans-52"/>
       <use x="63.623047" xlink:href="#DejaVuSans-48"/>
       <use x="127.246094" xlink:href="#DejaVuSans-48"/>
      </g>
     </g>
    </g>
    <g id="xtick_7">
     <g id="line2d_8">
      <g>
       <use style="stroke:#000000;stroke-width:0.8;" x="372.879565" xlink:href="#m316a7ac733" y="307.584"/>
      </g>
     </g>
     <g id="text_7">
      <!-- 600 -->
      <g transform="translate(363.335815 322.182437)scale(0.1 -0.1)">
       <use xlink:href="#DejaVuSans-54"/>
       <use x="63.623047" xlink:href="#DejaVuSans-48"/>
       <use x="127.246094" xlink:href="#DejaVuSans-48"/>
      </g>
     </g>
    </g>
   </g>
   <g id="matplotlib.axis_2">
    <g id="ytick_1">
     <g id="line2d_9">
      <defs>
       <path d="M 0 0 
L -3.5 0 
" id="m4aef1aa0cb" style="stroke:#000000;stroke-width:0.8;"/>
      </defs>
      <g>
       <use style="stroke:#000000;stroke-width:0.8;" x="57.6" xlink:href="#m4aef1aa0cb" y="296.349186"/>
      </g>
     </g>
     <g id="text_8">
      <!-- −800 -->
      <defs>
       <path d="M 31.78125 34.625 
Q 24.75 34.625 20.71875 30.859375 
Q 16.703125 27.09375 16.703125 20.515625 
Q 16.703125 13.921875 20.71875 10.15625 
Q 24.75 6.390625 31.78125 6.390625 
Q 38.8125 6.390625 42.859375 10.171875 
Q 46.921875 13.96875 46.921875 20.515625 
Q 46.921875 27.09375 42.890625 30.859375 
Q 38.875 34.625 31.78125 34.625 
z
M 21.921875 38.8125 
Q 15.578125 40.375 12.03125 44.71875 
Q 8.5 49.078125 8.5 55.328125 
Q 8.5 64.0625 14.71875 69.140625 
Q 20.953125 74.21875 31.78125 74.21875 
Q 42.671875 74.21875 48.875 69.140625 
Q 55.078125 64.0625 55.078125 55.328125 
Q 55.078125 49.078125 51.53125 44.71875 
Q 48 40.375 41.703125 38.8125 
Q 48.828125 37.15625 52.796875 32.3125 
Q 56.78125 27.484375 56.78125 20.515625 
Q 56.78125 9.90625 50.3125 4.234375 
Q 43.84375 -1.421875 31.78125 -1.421875 
Q 19.734375 -1.421875 13.25 4.234375 
Q 6.78125 9.90625 6.78125 20.515625 
Q 6.78125 27.484375 10.78125 32.3125 
Q 14.796875 37.15625 21.921875 38.8125 
z
M 18.3125 54.390625 
Q 18.3125 48.734375 21.84375 45.5625 
Q 25.390625 42.390625 31.78125 42.390625 
Q 38.140625 42.390625 41.71875 45.5625 
Q 45.3125 48.734375 45.3125 54.390625 
Q 45.3125 60.0625 41.71875 63.234375 
Q 38.140625 66.40625 31.78125 66.40625 
Q 25.390625 66.40625 21.84375 63.234375 
Q 18.3125 60.0625 18.3125 54.390625 
z
" id="DejaVuSans-56"/>
      </defs>
      <g transform="translate(23.132812 300.148405)scale(0.1 -0.1)">
       <use xlink:href="#DejaVuSans-8722"/>
       <use x="83.789062" xlink:href="#DejaVuSans-56"/>
       <use x="147.412109" xlink:href="#DejaVuSans-48"/>
       <use x="211.035156" xlink:href="#DejaVuSans-48"/>
      </g>
     </g>
    </g>
    <g id="ytick_2">
     <g id="line2d_10">
      <g>
       <use style="stroke:#000000;stroke-width:0.8;" x="57.6" xlink:href="#m4aef1aa0cb" y="250.541415"/>
      </g>
     </g>
     <g id="text_9">
      <!-- −700 -->
      <defs>
       <path d="M 8.203125 72.90625 
L 55.078125 72.90625 
L 55.078125 68.703125 
L 28.609375 0 
L 18.3125 0 
L 43.21875 64.59375 
L 8.203125 64.59375 
z
" id="DejaVuSans-55"/>
      </defs>
      <g transform="translate(23.132812 254.340634)scale(0.1 -0.1)">
       <use xlink:href="#DejaVuSans-8722"/>
       <use x="83.789062" xlink:href="#DejaVuSans-55"/>
       <use x="147.412109" xlink:href="#DejaVuSans-48"/>
       <use x="211.035156" xlink:href="#DejaVuSans-48"/>
      </g>
     </g>
    </g>
    <g id="ytick_3">
     <g id="line2d_11">
      <g>
       <use style="stroke:#000000;stroke-width:0.8;" x="57.6" xlink:href="#m4aef1aa0cb" y="204.733644"/>
      </g>
     </g>
     <g id="text_10">
      <!-- −600 -->
      <g transform="translate(23.132812 208.532863)scale(0.1 -0.1)">
       <use xlink:href="#DejaVuSans-8722"/>
       <use x="83.789062" xlink:href="#DejaVuSans-54"/>
       <use x="147.412109" xlink:href="#DejaVuSans-48"/>
       <use x="211.035156" xlink:href="#DejaVuSans-48"/>
      </g>
     </g>
    </g>
    <g id="ytick_4">
     <g id="line2d_12">
      <g>
       <use style="stroke:#000000;stroke-width:0.8;" x="57.6" xlink:href="#m4aef1aa0cb" y="158.925873"/>
      </g>
     </g>
     <g id="text_11">
      <!-- −500 -->
      <defs>
       <path d="M 10.796875 72.90625 
L 49.515625 72.90625 
L 49.515625 64.59375 
L 19.828125 64.59375 
L 19.828125 46.734375 
Q 21.96875 47.46875 24.109375 47.828125 
Q 26.265625 48.1875 28.421875 48.1875 
Q 40.625 48.1875 47.75 41.5 
Q 54.890625 34.8125 54.890625 23.390625 
Q 54.890625 11.625 47.5625 5.09375 
Q 40.234375 -1.421875 26.90625 -1.421875 
Q 22.3125 -1.421875 17.546875 -0.640625 
Q 12.796875 0.140625 7.71875 1.703125 
L 7.71875 11.625 
Q 12.109375 9.234375 16.796875 8.0625 
Q 21.484375 6.890625 26.703125 6.890625 
Q 35.15625 6.890625 40.078125 11.328125 
Q 45.015625 15.765625 45.015625 23.390625 
Q 45.015625 31 40.078125 35.4375 
Q 35.15625 39.890625 26.703125 39.890625 
Q 22.75 39.890625 18.8125 39.015625 
Q 14.890625 38.140625 10.796875 36.28125 
z
" id="DejaVuSans-53"/>
      </defs>
      <g transform="translate(23.132812 162.725092)scale(0.1 -0.1)">
       <use xlink:href="#DejaVuSans-8722"/>
       <use x="83.789062" xlink:href="#DejaVuSans-53"/>
       <use x="147.412109" xlink:href="#DejaVuSans-48"/>
       <use x="211.035156" xlink:href="#DejaVuSans-48"/>
      </g>
     </g>
    </g>
    <g id="ytick_5">
     <g id="line2d_13">
      <g>
       <use style="stroke:#000000;stroke-width:0.8;" x="57.6" xlink:href="#m4aef1aa0cb" y="113.118102"/>
      </g>
     </g>
     <g id="text_12">
      <!-- −400 -->
      <g transform="translate(23.132812 116.917321)scale(0.1 -0.1)">
       <use xlink:href="#DejaVuSans-8722"/>
       <use x="83.789062" xlink:href="#DejaVuSans-52"/>
       <use x="147.412109" xlink:href="#DejaVuSans-48"/>
       <use x="211.035156" xlink:href="#DejaVuSans-48"/>
      </g>
     </g>
    </g>
    <g id="ytick_6">
     <g id="line2d_14">
      <g>
       <use style="stroke:#000000;stroke-width:0.8;" x="57.6" xlink:href="#m4aef1aa0cb" y="67.310331"/>
      </g>
     </g>
     <g id="text_13">
      <!-- −300 -->
      <defs>
       <path d="M 40.578125 39.3125 
Q 47.65625 37.796875 51.625 33 
Q 55.609375 28.21875 55.609375 21.1875 
Q 55.609375 10.40625 48.1875 4.484375 
Q 40.765625 -1.421875 27.09375 -1.421875 
Q 22.515625 -1.421875 17.65625 -0.515625 
Q 12.796875 0.390625 7.625 2.203125 
L 7.625 11.71875 
Q 11.71875 9.328125 16.59375 8.109375 
Q 21.484375 6.890625 26.8125 6.890625 
Q 36.078125 6.890625 40.9375 10.546875 
Q 45.796875 14.203125 45.796875 21.1875 
Q 45.796875 27.640625 41.28125 31.265625 
Q 36.765625 34.90625 28.71875 34.90625 
L 20.21875 34.90625 
L 20.21875 43.015625 
L 29.109375 43.015625 
Q 36.375 43.015625 40.234375 45.921875 
Q 44.09375 48.828125 44.09375 54.296875 
Q 44.09375 59.90625 40.109375 62.90625 
Q 36.140625 65.921875 28.71875 65.921875 
Q 24.65625 65.921875 20.015625 65.03125 
Q 15.375 64.15625 9.8125 62.3125 
L 9.8125 71.09375 
Q 15.4375 72.65625 20.34375 73.4375 
Q 25.25 74.21875 29.59375 74.21875 
Q 40.828125 74.21875 47.359375 69.109375 
Q 53.90625 64.015625 53.90625 55.328125 
Q 53.90625 49.265625 50.4375 45.09375 
Q 46.96875 40.921875 40.578125 39.3125 
z
" id="DejaVuSans-51"/>
      </defs>
      <g transform="translate(23.132812 71.10955)scale(0.1 -0.1)">
       <use xlink:href="#DejaVuSans-8722"/>
       <use x="83.789062" xlink:href="#DejaVuSans-51"/>
       <use x="147.412109" xlink:href="#DejaVuSans-48"/>
       <use x="211.035156" xlink:href="#DejaVuSans-48"/>
      </g>
     </g>
    </g>
   </g>
   <g id="line2d_15">
    <path clip-path="url(#p61a029530b)" d="M 395.219425 287.101677 
L 223.174763 194.455194 
L 94.016107 116.185543 
L 90.055435 66.980324 
L 260.481265 112.633633 
L 280.011457 135.380175 
" style="fill:none;stroke:#ff0000;stroke-linecap:square;stroke-width:0.5;"/>
   </g>
   <g id="patch_3">
    <path d="M 57.6 307.584 
L 57.6 41.472 
" style="fill:none;stroke:#000000;stroke-linecap:square;stroke-linejoin:miter;stroke-width:0.8;"/>
   </g>
   <g id="patch_4">
    <path d="M 414.72 307.584 
L 414.72 41.472 
" style="fill:none;stroke:#000000;stroke-linecap:square;stroke-linejoin:miter;stroke-width:0.8;"/>
   </g>
   <g id="patch_5">
    <path d="M 57.6 307.584 
L 414.72 307.584 
" style="fill:none;stroke:#000000;stroke-linecap:square;stroke-linejoin:miter;stroke-width:0.8;"/>
   </g>
   <g id="patch_6">
    <path d="M 57.6 41.472 
L 414.72 41.472 
" style="fill:none;stroke:#000000;stroke-linecap:square;stroke-linejoin:miter;stroke-width:0.8;"/>
   </g>
   <g id="PathCollection_1">
    <defs>
     <path d="M 0 2.738613 
C 0.726289 2.738613 1.422928 2.450055 1.936492 1.936492 
C 2.450055 1.422928 2.738613 0.726289 2.738613 0 
C 2.738613 -0.726289 2.450055 -1.422928 1.936492 -1.936492 
C 1.422928 -2.450055 0.726289 -2.738613 0 -2.738613 
C -0.726289 -2.738613 -1.422928 -2.450055 -1.936492 -1.936492 
C -2.450055 -1.422928 -2.738613 -0.726289 -2.738613 0 
C -2.738613 0.726289 -2.450055 1.422928 -1.936492 1.936492 
C -1.422928 2.450055 -0.726289 2.738613 0 2.738613 
z
" id="mb908e57b44" style="stroke:#ff0000;"/>
    </defs>
    <g clip-path="url(#p61a029530b)">
     <use style="fill:#ff0000;stroke:#ff0000;" x="395.219425" xlink:href="#mb908e57b44" y="287.101677"/>
     <use style="fill:#ff0000;stroke:#ff0000;" x="223.174763" xlink:href="#mb908e57b44" y="194.455194"/>
     <use style="fill:#ff0000;stroke:#ff0000;" x="94.016107" xlink:href="#mb908e57b44" y="116.185543"/>
     <use style="fill:#ff0000;stroke:#ff0000;" x="90.055435" xlink:href="#mb908e57b44" y="66.980324"/>
     <use style="fill:#ff0000;stroke:#ff0000;" x="260.481265" xlink:href="#mb908e57b44" y="112.633633"/>
     <use style="fill:#ff0000;stroke:#ff0000;" x="280.011457" xlink:href="#mb908e57b44" y="135.380175"/>
    </g>
   </g>
   <g id="text_14">
    <!-- (10) Subject: s7, Known = True, Degree = 2, Duration = 0.1 -->
    <defs>
     <path d="M 31 75.875 
Q 24.46875 64.65625 21.28125 53.65625 
Q 18.109375 42.671875 18.109375 31.390625 
Q 18.109375 20.125 21.3125 9.0625 
Q 24.515625 -2 31 -13.1875 
L 23.1875 -13.1875 
Q 15.875 -1.703125 12.234375 9.375 
Q 8.59375 20.453125 8.59375 31.390625 
Q 8.59375 42.28125 12.203125 53.3125 
Q 15.828125 64.359375 23.1875 75.875 
z
" id="DejaVuSans-40"/>
     <path d="M 12.40625 8.296875 
L 28.515625 8.296875 
L 28.515625 63.921875 
L 10.984375 60.40625 
L 10.984375 69.390625 
L 28.421875 72.90625 
L 38.28125 72.90625 
L 38.28125 8.296875 
L 54.390625 8.296875 
L 54.390625 0 
L 12.40625 0 
z
" id="DejaVuSans-49"/>
     <path d="M 8.015625 75.875 
L 15.828125 75.875 
Q 23.140625 64.359375 26.78125 53.3125 
Q 30.421875 42.28125 30.421875 31.390625 
Q 30.421875 20.453125 26.78125 9.375 
Q 23.140625 -1.703125 15.828125 -13.1875 
L 8.015625 -13.1875 
Q 14.5 -2 17.703125 9.0625 
Q 20.90625 20.125 20.90625 31.390625 
Q 20.90625 42.671875 17.703125 53.65625 
Q 14.5 64.65625 8.015625 75.875 
z
" id="DejaVuSans-41"/>
     <path id="DejaVuSans-32"/>
     <path d="M 53.515625 70.515625 
L 53.515625 60.890625 
Q 47.90625 63.578125 42.921875 64.890625 
Q 37.9375 66.21875 33.296875 66.21875 
Q 25.25 66.21875 20.875 63.09375 
Q 16.5 59.96875 16.5 54.203125 
Q 16.5 49.359375 19.40625 46.890625 
Q 22.3125 44.4375 30.421875 42.921875 
L 36.375 41.703125 
Q 47.40625 39.59375 52.65625 34.296875 
Q 57.90625 29 57.90625 20.125 
Q 57.90625 9.515625 50.796875 4.046875 
Q 43.703125 -1.421875 29.984375 -1.421875 
Q 24.8125 -1.421875 18.96875 -0.25 
Q 13.140625 0.921875 6.890625 3.21875 
L 6.890625 13.375 
Q 12.890625 10.015625 18.65625 8.296875 
Q 24.421875 6.59375 29.984375 6.59375 
Q 38.421875 6.59375 43.015625 9.90625 
Q 47.609375 13.234375 47.609375 19.390625 
Q 47.609375 24.75 44.3125 27.78125 
Q 41.015625 30.8125 33.5 32.328125 
L 27.484375 33.5 
Q 16.453125 35.6875 11.515625 40.375 
Q 6.59375 45.0625 6.59375 53.421875 
Q 6.59375 63.09375 13.40625 68.65625 
Q 20.21875 74.21875 32.171875 74.21875 
Q 37.3125 74.21875 42.625 73.28125 
Q 47.953125 72.359375 53.515625 70.515625 
z
" id="DejaVuSans-83"/>
     <path d="M 8.5 21.578125 
L 8.5 54.6875 
L 17.484375 54.6875 
L 17.484375 21.921875 
Q 17.484375 14.15625 20.5 10.265625 
Q 23.53125 6.390625 29.59375 6.390625 
Q 36.859375 6.390625 41.078125 11.03125 
Q 45.3125 15.671875 45.3125 23.6875 
L 45.3125 54.6875 
L 54.296875 54.6875 
L 54.296875 0 
L 45.3125 0 
L 45.3125 8.40625 
Q 42.046875 3.421875 37.71875 1 
Q 33.40625 -1.421875 27.6875 -1.421875 
Q 18.265625 -1.421875 13.375 4.4375 
Q 8.5 10.296875 8.5 21.578125 
z
M 31.109375 56 
z
" id="DejaVuSans-117"/>
     <path d="M 48.6875 27.296875 
Q 48.6875 37.203125 44.609375 42.84375 
Q 40.53125 48.484375 33.40625 48.484375 
Q 26.265625 48.484375 22.1875 42.84375 
Q 18.109375 37.203125 18.109375 27.296875 
Q 18.109375 17.390625 22.1875 11.75 
Q 26.265625 6.109375 33.40625 6.109375 
Q 40.53125 6.109375 44.609375 11.75 
Q 48.6875 17.390625 48.6875 27.296875 
z
M 18.109375 46.390625 
Q 20.953125 51.265625 25.265625 53.625 
Q 29.59375 56 35.59375 56 
Q 45.5625 56 51.78125 48.09375 
Q 58.015625 40.1875 58.015625 27.296875 
Q 58.015625 14.40625 51.78125 6.484375 
Q 45.5625 -1.421875 35.59375 -1.421875 
Q 29.59375 -1.421875 25.265625 0.953125 
Q 20.953125 3.328125 18.109375 8.203125 
L 18.109375 0 
L 9.078125 0 
L 9.078125 75.984375 
L 18.109375 75.984375 
z
" id="DejaVuSans-98"/>
     <path d="M 9.421875 54.6875 
L 18.40625 54.6875 
L 18.40625 -0.984375 
Q 18.40625 -11.421875 14.421875 -16.109375 
Q 10.453125 -20.796875 1.609375 -20.796875 
L -1.8125 -20.796875 
L -1.8125 -13.1875 
L 0.59375 -13.1875 
Q 5.71875 -13.1875 7.5625 -10.8125 
Q 9.421875 -8.453125 9.421875 -0.984375 
z
M 9.421875 75.984375 
L 18.40625 75.984375 
L 18.40625 64.59375 
L 9.421875 64.59375 
z
" id="DejaVuSans-106"/>
     <path d="M 56.203125 29.59375 
L 56.203125 25.203125 
L 14.890625 25.203125 
Q 15.484375 15.921875 20.484375 11.0625 
Q 25.484375 6.203125 34.421875 6.203125 
Q 39.59375 6.203125 44.453125 7.46875 
Q 49.3125 8.734375 54.109375 11.28125 
L 54.109375 2.78125 
Q 49.265625 0.734375 44.1875 -0.34375 
Q 39.109375 -1.421875 33.890625 -1.421875 
Q 20.796875 -1.421875 13.15625 6.1875 
Q 5.515625 13.8125 5.515625 26.8125 
Q 5.515625 40.234375 12.765625 48.109375 
Q 20.015625 56 32.328125 56 
Q 43.359375 56 49.78125 48.890625 
Q 56.203125 41.796875 56.203125 29.59375 
z
M 47.21875 32.234375 
Q 47.125 39.59375 43.09375 43.984375 
Q 39.0625 48.390625 32.421875 48.390625 
Q 24.90625 48.390625 20.390625 44.140625 
Q 15.875 39.890625 15.1875 32.171875 
z
" id="DejaVuSans-101"/>
     <path d="M 48.78125 52.59375 
L 48.78125 44.1875 
Q 44.96875 46.296875 41.140625 47.34375 
Q 37.3125 48.390625 33.40625 48.390625 
Q 24.65625 48.390625 19.8125 42.84375 
Q 14.984375 37.3125 14.984375 27.296875 
Q 14.984375 17.28125 19.8125 11.734375 
Q 24.65625 6.203125 33.40625 6.203125 
Q 37.3125 6.203125 41.140625 7.25 
Q 44.96875 8.296875 48.78125 10.40625 
L 48.78125 2.09375 
Q 45.015625 0.34375 40.984375 -0.53125 
Q 36.96875 -1.421875 32.421875 -1.421875 
Q 20.0625 -1.421875 12.78125 6.34375 
Q 5.515625 14.109375 5.515625 27.296875 
Q 5.515625 40.671875 12.859375 48.328125 
Q 20.21875 56 33.015625 56 
Q 37.15625 56 41.109375 55.140625 
Q 45.0625 54.296875 48.78125 52.59375 
z
" id="DejaVuSans-99"/>
     <path d="M 18.3125 70.21875 
L 18.3125 54.6875 
L 36.8125 54.6875 
L 36.8125 47.703125 
L 18.3125 47.703125 
L 18.3125 18.015625 
Q 18.3125 11.328125 20.140625 9.421875 
Q 21.96875 7.515625 27.59375 7.515625 
L 36.8125 7.515625 
L 36.8125 0 
L 27.59375 0 
Q 17.1875 0 13.234375 3.875 
Q 9.28125 7.765625 9.28125 18.015625 
L 9.28125 47.703125 
L 2.6875 47.703125 
L 2.6875 54.6875 
L 9.28125 54.6875 
L 9.28125 70.21875 
z
" id="DejaVuSans-116"/>
     <path d="M 11.71875 12.40625 
L 22.015625 12.40625 
L 22.015625 0 
L 11.71875 0 
z
M 11.71875 51.703125 
L 22.015625 51.703125 
L 22.015625 39.3125 
L 11.71875 39.3125 
z
" id="DejaVuSans-58"/>
     <path d="M 44.28125 53.078125 
L 44.28125 44.578125 
Q 40.484375 46.53125 36.375 47.5 
Q 32.28125 48.484375 27.875 48.484375 
Q 21.1875 48.484375 17.84375 46.4375 
Q 14.5 44.390625 14.5 40.28125 
Q 14.5 37.15625 16.890625 35.375 
Q 19.28125 33.59375 26.515625 31.984375 
L 29.59375 31.296875 
Q 39.15625 29.25 43.1875 25.515625 
Q 47.21875 21.78125 47.21875 15.09375 
Q 47.21875 7.46875 41.1875 3.015625 
Q 35.15625 -1.421875 24.609375 -1.421875 
Q 20.21875 -1.421875 15.453125 -0.5625 
Q 10.6875 0.296875 5.421875 2 
L 5.421875 11.28125 
Q 10.40625 8.6875 15.234375 7.390625 
Q 20.0625 6.109375 24.8125 6.109375 
Q 31.15625 6.109375 34.5625 8.28125 
Q 37.984375 10.453125 37.984375 14.40625 
Q 37.984375 18.0625 35.515625 20.015625 
Q 33.0625 21.96875 24.703125 23.78125 
L 21.578125 24.515625 
Q 13.234375 26.265625 9.515625 29.90625 
Q 5.8125 33.546875 5.8125 39.890625 
Q 5.8125 47.609375 11.28125 51.796875 
Q 16.75 56 26.8125 56 
Q 31.78125 56 36.171875 55.265625 
Q 40.578125 54.546875 44.28125 53.078125 
z
" id="DejaVuSans-115"/>
     <path d="M 11.71875 12.40625 
L 22.015625 12.40625 
L 22.015625 4 
L 14.015625 -11.625 
L 7.71875 -11.625 
L 11.71875 4 
z
" id="DejaVuSans-44"/>
     <path d="M 9.8125 72.90625 
L 19.671875 72.90625 
L 19.671875 42.09375 
L 52.390625 72.90625 
L 65.09375 72.90625 
L 28.90625 38.921875 
L 67.671875 0 
L 54.6875 0 
L 19.671875 35.109375 
L 19.671875 0 
L 9.8125 0 
z
" id="DejaVuSans-75"/>
     <path d="M 54.890625 33.015625 
L 54.890625 0 
L 45.90625 0 
L 45.90625 32.71875 
Q 45.90625 40.484375 42.875 44.328125 
Q 39.84375 48.1875 33.796875 48.1875 
Q 26.515625 48.1875 22.3125 43.546875 
Q 18.109375 38.921875 18.109375 30.90625 
L 18.109375 0 
L 9.078125 0 
L 9.078125 54.6875 
L 18.109375 54.6875 
L 18.109375 46.1875 
Q 21.34375 51.125 25.703125 53.5625 
Q 30.078125 56 35.796875 56 
Q 45.21875 56 50.046875 50.171875 
Q 54.890625 44.34375 54.890625 33.015625 
z
" id="DejaVuSans-110"/>
     <path d="M 30.609375 48.390625 
Q 23.390625 48.390625 19.1875 42.75 
Q 14.984375 37.109375 14.984375 27.296875 
Q 14.984375 17.484375 19.15625 11.84375 
Q 23.34375 6.203125 30.609375 6.203125 
Q 37.796875 6.203125 41.984375 11.859375 
Q 46.1875 17.53125 46.1875 27.296875 
Q 46.1875 37.015625 41.984375 42.703125 
Q 37.796875 48.390625 30.609375 48.390625 
z
M 30.609375 56 
Q 42.328125 56 49.015625 48.375 
Q 55.71875 40.765625 55.71875 27.296875 
Q 55.71875 13.875 49.015625 6.21875 
Q 42.328125 -1.421875 30.609375 -1.421875 
Q 18.84375 -1.421875 12.171875 6.21875 
Q 5.515625 13.875 5.515625 27.296875 
Q 5.515625 40.765625 12.171875 48.375 
Q 18.84375 56 30.609375 56 
z
" id="DejaVuSans-111"/>
     <path d="M 4.203125 54.6875 
L 13.1875 54.6875 
L 24.421875 12.015625 
L 35.59375 54.6875 
L 46.1875 54.6875 
L 57.421875 12.015625 
L 68.609375 54.6875 
L 77.59375 54.6875 
L 63.28125 0 
L 52.6875 0 
L 40.921875 44.828125 
L 29.109375 0 
L 18.5 0 
z
" id="DejaVuSans-119"/>
     <path d="M 10.59375 45.40625 
L 73.1875 45.40625 
L 73.1875 37.203125 
L 10.59375 37.203125 
z
M 10.59375 25.484375 
L 73.1875 25.484375 
L 73.1875 17.1875 
L 10.59375 17.1875 
z
" id="DejaVuSans-61"/>
     <path d="M -0.296875 72.90625 
L 61.375 72.90625 
L 61.375 64.59375 
L 35.5 64.59375 
L 35.5 0 
L 25.59375 0 
L 25.59375 64.59375 
L -0.296875 64.59375 
z
" id="DejaVuSans-84"/>
     <path d="M 41.109375 46.296875 
Q 39.59375 47.171875 37.8125 47.578125 
Q 36.03125 48 33.890625 48 
Q 26.265625 48 22.1875 43.046875 
Q 18.109375 38.09375 18.109375 28.8125 
L 18.109375 0 
L 9.078125 0 
L 9.078125 54.6875 
L 18.109375 54.6875 
L 18.109375 46.1875 
Q 20.953125 51.171875 25.484375 53.578125 
Q 30.03125 56 36.53125 56 
Q 37.453125 56 38.578125 55.875 
Q 39.703125 55.765625 41.0625 55.515625 
z
" id="DejaVuSans-114"/>
     <path d="M 19.671875 64.796875 
L 19.671875 8.109375 
L 31.59375 8.109375 
Q 46.6875 8.109375 53.6875 14.9375 
Q 60.6875 21.78125 60.6875 36.53125 
Q 60.6875 51.171875 53.6875 57.984375 
Q 46.6875 64.796875 31.59375 64.796875 
z
M 9.8125 72.90625 
L 30.078125 72.90625 
Q 51.265625 72.90625 61.171875 64.09375 
Q 71.09375 55.28125 71.09375 36.53125 
Q 71.09375 17.671875 61.125 8.828125 
Q 51.171875 0 30.078125 0 
L 9.8125 0 
z
" id="DejaVuSans-68"/>
     <path d="M 45.40625 27.984375 
Q 45.40625 37.75 41.375 43.109375 
Q 37.359375 48.484375 30.078125 48.484375 
Q 22.859375 48.484375 18.828125 43.109375 
Q 14.796875 37.75 14.796875 27.984375 
Q 14.796875 18.265625 18.828125 12.890625 
Q 22.859375 7.515625 30.078125 7.515625 
Q 37.359375 7.515625 41.375 12.890625 
Q 45.40625 18.265625 45.40625 27.984375 
z
M 54.390625 6.78125 
Q 54.390625 -7.171875 48.1875 -13.984375 
Q 42 -20.796875 29.203125 -20.796875 
Q 24.46875 -20.796875 20.265625 -20.09375 
Q 16.0625 -19.390625 12.109375 -17.921875 
L 12.109375 -9.1875 
Q 16.0625 -11.328125 19.921875 -12.34375 
Q 23.78125 -13.375 27.78125 -13.375 
Q 36.625 -13.375 41.015625 -8.765625 
Q 45.40625 -4.15625 45.40625 5.171875 
L 45.40625 9.625 
Q 42.625 4.78125 38.28125 2.390625 
Q 33.9375 0 27.875 0 
Q 17.828125 0 11.671875 7.65625 
Q 5.515625 15.328125 5.515625 27.984375 
Q 5.515625 40.671875 11.671875 48.328125 
Q 17.828125 56 27.875 56 
Q 33.9375 56 38.28125 53.609375 
Q 42.625 51.21875 45.40625 46.390625 
L 45.40625 54.6875 
L 54.390625 54.6875 
z
" id="DejaVuSans-103"/>
     <path d="M 34.28125 27.484375 
Q 23.390625 27.484375 19.1875 25 
Q 14.984375 22.515625 14.984375 16.5 
Q 14.984375 11.71875 18.140625 8.90625 
Q 21.296875 6.109375 26.703125 6.109375 
Q 34.1875 6.109375 38.703125 11.40625 
Q 43.21875 16.703125 43.21875 25.484375 
L 43.21875 27.484375 
z
M 52.203125 31.203125 
L 52.203125 0 
L 43.21875 0 
L 43.21875 8.296875 
Q 40.140625 3.328125 35.546875 0.953125 
Q 30.953125 -1.421875 24.3125 -1.421875 
Q 15.921875 -1.421875 10.953125 3.296875 
Q 6 8.015625 6 15.921875 
Q 6 25.140625 12.171875 29.828125 
Q 18.359375 34.515625 30.609375 34.515625 
L 43.21875 34.515625 
L 43.21875 35.40625 
Q 43.21875 41.609375 39.140625 45 
Q 35.0625 48.390625 27.6875 48.390625 
Q 23 48.390625 18.546875 47.265625 
Q 14.109375 46.140625 10.015625 43.890625 
L 10.015625 52.203125 
Q 14.9375 54.109375 19.578125 55.046875 
Q 24.21875 56 28.609375 56 
Q 40.484375 56 46.34375 49.84375 
Q 52.203125 43.703125 52.203125 31.203125 
z
" id="DejaVuSans-97"/>
     <path d="M 9.421875 54.6875 
L 18.40625 54.6875 
L 18.40625 0 
L 9.421875 0 
z
M 9.421875 75.984375 
L 18.40625 75.984375 
L 18.40625 64.59375 
L 9.421875 64.59375 
z
" id="DejaVuSans-105"/>
     <path d="M 10.6875 12.40625 
L 21 12.40625 
L 21 0 
L 10.6875 0 
z
" id="DejaVuSans-46"/>
    </defs>
    <g transform="translate(55.550625 35.472)scale(0.12 -0.12)">
     <use xlink:href="#DejaVuSans-40"/>
     <use x="39.013672" xlink:href="#DejaVuSans-49"/>
     <use x="102.636719" xlink:href="#DejaVuSans-48"/>
     <use x="166.259766" xlink:href="#DejaVuSans-41"/>
     <use x="205.273438" xlink:href="#DejaVuSans-32"/>
     <use x="237.060547" xlink:href="#DejaVuSans-83"/>
     <use x="300.537109" xlink:href="#DejaVuSans-117"/>
     <use x="363.916016" xlink:href="#DejaVuSans-98"/>
     <use x="427.392578" xlink:href="#DejaVuSans-106"/>
     <use x="455.175781" xlink:href="#DejaVuSans-101"/>
     <use x="516.699219" xlink:href="#DejaVuSans-99"/>
     <use x="571.679688" xlink:href="#DejaVuSans-116"/>
     <use x="610.888672" xlink:href="#DejaVuSans-58"/>
     <use x="644.580078" xlink:href="#DejaVuSans-32"/>
     <use x="676.367188" xlink:href="#DejaVuSans-115"/>
     <use x="728.466797" xlink:href="#DejaVuSans-55"/>
     <use x="792.089844" xlink:href="#DejaVuSans-44"/>
     <use x="823.876953" xlink:href="#DejaVuSans-32"/>
     <use x="855.664062" xlink:href="#DejaVuSans-75"/>
     <use x="921.240234" xlink:href="#DejaVuSans-110"/>
     <use x="984.619141" xlink:href="#DejaVuSans-111"/>
     <use x="1045.800781" xlink:href="#DejaVuSans-119"/>
     <use x="1127.587891" xlink:href="#DejaVuSans-110"/>
     <use x="1190.966797" xlink:href="#DejaVuSans-32"/>
     <use x="1222.753906" xlink:href="#DejaVuSans-61"/>
     <use x="1306.542969" xlink:href="#DejaVuSans-32"/>
     <use x="1338.330078" xlink:href="#DejaVuSans-84"/>
     <use x="1399.195312" xlink:href="#DejaVuSans-114"/>
     <use x="1440.308594" xlink:href="#DejaVuSans-117"/>
     <use x="1503.6875" xlink:href="#DejaVuSans-101"/>
     <use x="1565.210938" xlink:href="#DejaVuSans-44"/>
     <use x="1596.998047" xlink:href="#DejaVuSans-32"/>
     <use x="1628.785156" xlink:href="#DejaVuSans-68"/>
     <use x="1705.787109" xlink:href="#DejaVuSans-101"/>
     <use x="1767.310547" xlink:href="#DejaVuSans-103"/>
     <use x="1830.787109" xlink:href="#DejaVuSans-114"/>
     <use x="1871.869141" xlink:href="#DejaVuSans-101"/>
     <use x="1933.392578" xlink:href="#DejaVuSans-101"/>
     <use x="1994.916016" xlink:href="#DejaVuSans-32"/>
     <use x="2026.703125" xlink:href="#DejaVuSans-61"/>
     <use x="2110.492188" xlink:href="#DejaVuSans-32"/>
     <use x="2142.279297" xlink:href="#DejaVuSans-50"/>
     <use x="2205.902344" xlink:href="#DejaVuSans-44"/>
     <use x="2237.689453" xlink:href="#DejaVuSans-32"/>
     <use x="2269.476562" xlink:href="#DejaVuSans-68"/>
     <use x="2346.478516" xlink:href="#DejaVuSans-117"/>
     <use x="2409.857422" xlink:href="#DejaVuSans-114"/>
     <use x="2450.970703" xlink:href="#DejaVuSans-97"/>
     <use x="2512.25" xlink:href="#DejaVuSans-116"/>
     <use x="2551.458984" xlink:href="#DejaVuSans-105"/>
     <use x="2579.242188" xlink:href="#DejaVuSans-111"/>
     <use x="2640.423828" xlink:href="#DejaVuSans-110"/>
     <use x="2703.802734" xlink:href="#DejaVuSans-32"/>
     <use x="2735.589844" xlink:href="#DejaVuSans-61"/>
     <use x="2819.378906" xlink:href="#DejaVuSans-32"/>
     <use x="2851.166016" xlink:href="#DejaVuSans-48"/>
     <use x="2914.789062" xlink:href="#DejaVuSans-46"/>
     <use x="2946.576172" xlink:href="#DejaVuSans-49"/>
    </g>
   </g>
  </g>
 </g>
 <defs>
  <clipPath id="p61a029530b">
   <rect height="266.112" width="357.12" x="57.6" y="41.472"/>
  </clipPath>
 </defs>
</svg>
