<?xml version="1.0" encoding="utf-8" standalone="no"?>
<!DOCTYPE svg PUBLIC "-//W3C//DTD SVG 1.1//EN"
  "http://www.w3.org/Graphics/SVG/1.1/DTD/svg11.dtd">
<!-- Created with matplotlib (https://matplotlib.org/) -->
<svg height="345.6pt" version="1.1" viewBox="0 0 460.8 345.6" width="460.8pt" xmlns="http://www.w3.org/2000/svg" xmlns:xlink="http://www.w3.org/1999/xlink">
 <defs>
  <style type="text/css">
*{stroke-linecap:butt;stroke-linejoin:round;}
  </style>
 </defs>
 <g id="figure_1">
  <g id="patch_1">
   <path d="M 0 345.6 
L 460.8 345.6 
L 460.8 0 
L 0 0 
z
" style="fill:#ffffff;"/>
  </g>
  <g id="axes_1">
   <g id="patch_2">
    <path d="M 57.6 307.584 
L 414.72 307.584 
L 414.72 41.472 
L 57.6 41.472 
z
" style="fill:#ffffff;"/>
   </g>
   <g id="line2d_1">
    <path clip-path="url(#pf00bed7886)" d="M 395.781983 265.632527 
L 395.880596 267.678493 
L 396.18301 271.603258 
L 396.482137 272.284641 
L 397.083677 274.161624 
L 396.985064 275.015624 
L 396.883164 275.015624 
L 396.985064 275.015624 
L 397.083677 275.697007 
L 396.985064 275.697007 
L 396.584037 275.867807 
L 396.281623 276.551007 
L 396.68265 276.551007 
L 396.784551 277.403189 
L 396.68265 277.744789 
L 396.883164 277.744789 
L 397.185578 277.915589 
L 397.185578 278.086389 
L 396.784551 278.257189 
L 396.68265 278.596972 
L 396.784551 278.767772 
L 396.68265 278.257189 
L 396.584037 278.427989 
L 396.784551 278.257189 
L 396.985064 278.086389 
L 396.883164 278.938572 
L 396.985064 278.938572 
L 397.386091 278.938572 
L 397.386091 279.109372 
L 397.185578 279.450972 
L 396.784551 279.621772 
L 396.784551 280.473955 
L 397.685218 279.963372 
L 397.284191 279.621772 
L 397.386091 280.132355 
L 397.185578 280.132355 
L 397.083677 280.815555 
L 397.083677 280.303155 
L 397.185578 279.621772 
L 397.386091 279.109372 
L 397.484705 279.280172 
L 397.586605 280.303155 
L 397.484705 280.303155 
L 397.284191 280.473955 
L 397.484705 280.303155 
L 397.586605 279.621772 
L 397.386091 280.815555 
L 397.787119 280.473955 
L 397.386091 279.963372 
L 397.484705 280.132355 
L 397.284191 279.963372 
L 397.185578 280.303155 
L 397.484705 280.132355 
L 397.685218 279.792572 
L 397.987632 280.986355 
L 397.787119 281.327955 
L 398.086246 280.986355 
L 398.286759 280.815555 
L 397.685218 281.327955 
L 397.586605 281.157155 
L 397.787119 280.303155 
L 397.586605 280.644755 
L 397.586605 279.963372 
L 397.787119 280.132355 
L 398.086246 280.473955 
L 397.885732 280.473955 
L 397.586605 280.644755 
L 397.586605 281.157155 
L 397.685218 280.644755 
L 397.885732 280.644755 
L 398.086246 280.815555 
L 398.286759 280.815555 
L 398.487273 280.644755 
L 398.388659 280.644755 
L 398.388659 280.303155 
L 398.188146 280.303155 
L 397.787119 280.815555 
L 398.286759 280.644755 
L 398.286759 280.644755 
L 398.286759 281.838538 
L 398.188146 280.986355 
L 397.885732 280.986355 
L 397.787119 281.669555 
L 397.987632 281.498755 
L 397.987632 281.498755 
L 397.484705 282.863338 
L 397.386091 282.692538 
L 397.685218 281.669555 
L 397.685218 281.669555 
L 397.987632 282.350938 
L 397.987632 282.350938 
L 398.086246 281.498755 
L 397.987632 281.669555 
L 397.787119 281.669555 
L 397.885732 281.327955 
L 397.987632 281.157155 
L 397.987632 281.157155 
L 398.188146 281.498755 
L 398.188146 282.009338 
L 397.987632 281.838538 
L 397.787119 281.498755 
L 397.386091 281.498755 
L 397.586605 281.498755 
L 397.685218 281.327955 
L 397.685218 281.327955 
L 397.586605 281.157155 
L 397.685218 281.498755 
L 397.586605 281.669555 
L 397.386091 281.669555 
L 397.386091 281.669555 
L 397.484705 281.838538 
L 397.185578 282.521738 
L 397.284191 282.692538 
L 397.284191 282.521738 
L 397.185578 281.838538 
L 396.985064 281.498755 
L 396.985064 281.669555 
L 396.883164 282.521738 
L 395.880596 283.373921 
L 393.776846 284.227921 
L 387.557637 288.321669 
L 384.34942 289.857052 
L 380.842075 291.392435 
L 372.821531 294.123417 
L 368.610745 294.9756 
L 364.196158 295.488 
L 359.285218 295.3172 
L 354.071864 294.465017 
L 348.457483 292.588034 
L 342.540688 290.027852 
L 336.52528 287.127886 
L 330.407971 283.886321 
L 324.392563 280.986355 
L 318.377155 278.427989 
L 312.46036 276.038607 
L 306.645465 273.309441 
L 301.031084 270.920058 
L 289.299394 266.48471 
L 283.484499 264.436927 
L 272.456251 261.024562 
L 266.940483 258.807796 
L 261.326102 256.760013 
L 256.014135 255.22463 
L 245.285013 252.666265 
L 239.670632 251.299865 
L 234.355378 249.764482 
L 224.329697 247.376917 
L 215.707612 244.818551 
L 205.179004 242.429168 
L 196.856045 241.064585 
L 190.742024 239.187603 
L 189.338428 238.675203 
L 188.33586 237.99382 
L 187.333292 237.65222 
L 186.330724 237.48142 
L 184.825229 238.16462 
L 184.424201 238.33542 
L 184.325588 238.16462 
L 185.025742 238.16462 
L 185.226256 238.504403 
L 185.226256 238.846003 
L 185.929697 239.529203 
L 186.330724 239.358403 
L 186.429337 239.187603 
L 186.228824 239.358403 
L 186.130211 239.187603 
L 186.228824 239.016803 
L 186.130211 237.31062 
L 185.827797 237.48142 
L 185.827797 236.79822 
L 185.929697 236.96902 
L 186.02831 236.96902 
L 186.531238 236.629237 
L 186.731751 236.629237 
L 186.629851 236.458437 
L 186.130211 236.287637 
L 186.228824 236.116837 
L 186.429337 235.946037 
L 186.932265 234.581454 
L 187.030878 234.581454 
L 186.932265 234.581454 
L 187.030878 234.752254 
L 187.333292 234.581454 
L 187.533806 234.239854 
L 187.333292 233.727454 
L 187.231392 233.898254 
L 187.333292 233.898254 
L 187.431905 233.898254 
L 187.333292 233.727454 
L 187.431905 233.387671 
L 187.632419 233.216871 
L 187.934833 233.216871 
L 187.934833 232.192072 
L 188.033446 232.192072 
L 188.23396 231.681489 
L 188.23396 231.852289 
L 188.434474 232.192072 
L 188.434474 231.169089 
L 188.23396 230.827489 
L 188.033446 230.998289 
L 187.934833 230.998289 
L 187.934833 231.339889 
L 188.135347 231.339889 
L 188.434474 231.169089 
L 188.536374 231.169089 
L 188.835501 230.827489 
L 188.536374 230.316906 
L 188.536374 230.485889 
L 188.434474 230.485889 
L 188.23396 230.146106 
L 188.434474 229.292106 
L 188.33586 228.779706 
L 188.434474 228.950506 
L 188.937401 228.269123 
L 188.937401 228.269123 
L 188.835501 228.950506 
L 188.835501 229.292106 
L 188.634987 229.462906 
L 188.736888 228.269123 
L 189.036014 227.244323 
L 189.236528 227.244323 
L 189.437042 227.927523 
L 189.338428 227.756723 
L 189.236528 227.585923 
L 189.338428 227.585923 
L 189.236528 226.73374 
L 189.236528 228.269123 
L 189.437042 227.927523 
L 189.739456 227.585923 
L 189.939969 227.585923 
L 190.038582 227.927523 
L 189.739456 227.07534 
L 189.637555 227.07534 
L 189.637555 227.07534 
L 189.739456 227.244323 
L 190.038582 227.244323 
L 190.239096 227.07534 
L 190.140483 227.244323 
L 190.239096 227.244323 
L 190.340996 226.56294 
L 190.239096 226.73374 
L 190.340996 226.90454 
L 190.640123 226.90454 
L 190.840637 227.07534 
L 190.742024 227.585923 
L 190.54151 227.927523 
L 190.239096 227.756723 
L 190.140483 227.244323 
L 190.43961 227.244323 
L 190.840637 227.07534 
L 191.04115 226.73374 
L 190.742024 226.73374 
L 190.640123 226.56294 
L 190.640123 226.22134 
L 191.143051 226.05054 
L 190.942537 226.56294 
L 191.143051 226.22134 
L 191.143051 225.708941 
L 190.840637 225.708941 
L 190.742024 225.539958 
L 191.343564 225.027558 
L 191.241664 224.856758 
L 190.942537 224.856758 
L 190.239096 224.515158 
L 187.934833 222.979775 
L 186.228824 222.298392 
L 184.223688 221.273592 
L 179.411361 218.373627 
L 176.604171 217.179844 
L 162.666831 211.719695 
L 155.648855 208.64893 
L 151.737196 206.942747 
L 147.828824 205.407364 
L 131.988249 199.947216 
L 128.277103 198.753433 
L 124.467345 197.73045 
L 113.840123 195.682668 
L 110.230878 194.830485 
L 106.720247 194.488885 
L 97.194206 193.976485 
L 94.186502 194.147285 
L 91.379312 194.147285 
L 89.075049 193.976485 
L 83.559281 193.124302 
L 82.155686 192.953502 
L 81.153118 192.953502 
L 80.249163 193.805685 
L 80.249163 193.805685 
L 80.249163 194.147285 
L 80.551577 194.147285 
L 81.153118 194.318085 
L 81.652758 195.001285 
L 81.853272 195.511868 
L 82.155686 194.830485 
L 82.053785 195.170268 
L 81.955172 196.024268 
L 82.053785 196.195068 
L 82.556713 195.170268 
L 81.955172 196.536668 
L 82.053785 196.365868 
L 82.254299 196.536668 
L 82.254299 196.87645 
L 81.955172 197.21805 
L 81.754658 197.04725 
L 82.053785 196.70565 
L 82.556713 196.70565 
L 82.95774 197.04725 
L 83.056353 197.21805 
L 82.85584 197.04725 
L 82.655326 196.87645 
L 82.655326 197.04725 
L 83.256867 197.73045 
L 83.256867 197.90125 
L 83.559281 197.73045 
L 83.657894 197.38885 
L 83.559281 197.38885 
L 83.256867 197.73045 
L 83.559281 197.73045 
L 83.457381 197.73045 
L 83.457381 197.90125 
L 84.262722 199.095033 
L 84.160822 198.753433 
L 84.062209 198.582633 
L 84.262722 198.924233 
L 84.160822 199.265833 
L 84.062209 200.118016 
L 84.160822 200.118016 
L 84.160822 199.947216 
L 84.262722 200.118016 
L 84.561849 200.630416 
L 84.663749 199.947216 
L 84.663749 200.118016 
L 84.762363 200.288816 
L 84.663749 200.288816 
L 84.463236 200.288816 
L 84.561849 199.947216 
L 84.762363 199.778233 
L 84.864263 200.459616 
L 85.064777 200.972016 
L 84.962876 200.801216 
L 85.064777 200.459616 
L 85.26529 200.630416 
L 85.363903 200.972016 
L 85.363903 201.482599 
L 85.16339 201.653399 
L 84.864263 201.482599 
L 84.663749 200.972016 
L 84.864263 201.313616 
L 85.26529 201.313616 
L 85.26529 201.142816 
L 85.26529 201.142816 
L 85.064777 201.142816 
L 84.762363 200.801216 
L 84.962876 200.630416 
L 85.866831 201.482599 
L 85.666317 201.653399 
L 85.564417 201.482599 
L 85.564417 201.142816 
L 85.764931 200.972016 
L 85.666317 201.313616 
L 85.465804 201.482599 
L 85.465804 201.653399 
L 85.363903 200.801216 
L 85.26529 200.630416 
L 85.16339 200.972016 
L 85.564417 201.313616 
L 85.564417 200.972016 
L 85.26529 201.313616 
L 85.465804 201.313616 
L 85.866831 201.482599 
L 85.764931 201.142816 
L 85.866831 200.972016 
L 86.067345 200.972016 
L 85.764931 201.824199 
L 85.465804 201.482599 
L 85.363903 201.482599 
L 85.363903 201.482599 
L 85.465804 201.824199 
L 85.764931 203.019799 
L 86.165958 202.165799 
L 86.267858 201.824199 
L 85.965444 201.824199 
L 85.866831 201.994999 
L 86.165958 202.507399 
L 86.165958 201.313616 
L 86.165958 201.994999 
L 85.965444 201.482599 
L 85.764931 201.482599 
L 85.764931 202.165799 
L 86.067345 202.678199 
L 86.366471 202.336599 
L 86.366471 202.507399 
L 86.267858 202.848999 
L 86.468372 202.848999 
L 86.566985 203.019799 
L 86.267858 203.530382 
L 86.468372 203.019799 
L 86.566985 202.678199 
L 86.566985 203.019799 
L 86.668885 203.019799 
L 86.668885 203.359582 
L 86.566985 203.188782 
L 86.366471 203.188782 
L 86.366471 203.188782 
L 86.566985 203.359582 
L 86.668885 203.019799 
L 86.869399 203.530382 
L 86.668885 203.871981 
L 86.566985 203.871981 
L 86.566985 203.701182 
L 86.968012 203.359582 
L 86.869399 203.188782 
L 86.566985 203.359582 
L 86.566985 203.530382 
L 87.168526 203.530382 
L 87.36904 203.701182 
L 87.270426 204.213581 
L 87.36904 204.384381 
L 87.770067 203.188782 
L 87.770067 202.678199 
L 87.871967 203.188782 
L 87.97058 203.188782 
L 88.171094 202.848999 
L 87.871967 201.824199 
L 87.871967 200.288816 
L 87.671454 198.924233 
L 87.168526 197.73045 
L 86.468372 196.70565 
L 85.965444 195.341068 
L 85.465804 193.124302 
L 84.561849 190.734919 
L 83.457381 188.518154 
L 82.356199 185.787171 
L 80.75209 179.98724 
L 78.546441 173.674909 
L 77.642486 170.262543 
L 74.434268 154.225515 
L 74.033241 151.49635 
L 73.832727 145.523801 
L 74.033241 138.700887 
L 74.634782 130.340774 
L 75.63735 124.028442 
L 78.145413 112.426763 
L 80.75209 103.556066 
L 81.754658 100.654284 
L 83.056353 97.754318 
L 90.077617 84.277473 
L 91.481212 81.88809 
L 92.983421 79.840307 
L 94.58753 78.134125 
L 96.392152 76.598742 
L 97.996261 75.063359 
L 99.501757 73.017393 
L 102.207047 68.580228 
L 103.410128 66.874045 
L 104.514597 65.509462 
L 108.827283 59.026331 
L 109.22831 58.515748 
L 109.829851 58.003348 
L 110.530005 57.661748 
L 111.131546 57.149348 
L 112.035501 54.932583 
L 112.134114 54.420183 
L 112.436528 54.249383 
L 112.637042 54.590983 
L 112.637042 54.590983 
L 113.038069 54.249383 
L 113.238582 54.249383 
L 113.136682 54.078583 
L 113.337196 53.907783 
L 113.537709 54.078583 
L 113.439096 54.249383 
L 113.439096 54.761783 
L 113.63961 55.103383 
L 113.840123 54.932583 
L 114.13925 53.907783 
L 114.24115 54.078583 
L 114.040637 54.249383 
L 113.439096 53.907783 
L 113.938737 54.249383 
L 114.441664 53.568 
L 113.938737 54.420183 
L 114.13925 54.590983 
L 114.13925 54.590983 
L 113.938737 54.761783 
L 113.938737 55.103383 
L 114.13925 55.103383 
L 114.339764 54.932583 
L 114.441664 55.103383 
L 114.24115 55.103383 
L 114.040637 55.613966 
L 113.938737 56.126366 
L 113.63961 56.467966 
L 113.840123 56.467966 
L 114.441664 56.297166 
L 114.441664 56.297166 
L 114.13925 56.980366 
L 114.13925 57.320148 
L 114.339764 57.490948 
L 114.540277 57.490948 
L 114.441664 57.490948 
L 114.441664 57.320148 
L 114.339764 57.490948 
L 114.040637 59.026331 
L 114.040637 58.855531 
L 114.339764 59.197131 
L 114.441664 59.709531 
L 114.13925 60.221931 
L 114.740791 60.903314 
L 114.540277 61.074114 
L 114.339764 60.903314 
L 114.24115 61.074114 
L 114.13925 61.757314 
L 113.738223 62.438697 
L 113.938737 62.267897 
L 114.339764 61.926297 
L 114.441664 62.267897 
L 114.540277 62.267897 
L 114.441664 61.926297 
L 114.24115 62.951097 
L 114.24115 63.121897 
L 114.339764 62.438697 
L 114.540277 62.609497 
L 114.740791 63.121897 
L 114.740791 63.46168 
L 114.339764 63.46168 
L 114.441664 63.80328 
L 114.642178 63.80328 
L 114.642178 64.14488 
L 114.24115 64.828079 
L 113.63961 64.998879 
L 113.938737 65.509462 
L 114.040637 66.021862 
L 114.13925 66.021862 
L 113.938737 66.192662 
L 113.938737 66.192662 
L 114.040637 66.363462 
L 113.738223 66.021862 
L 113.938737 66.021862 
L 114.040637 66.021862 
L 113.840123 65.851062 
L 113.63961 66.021862 
L 114.040637 66.534262 
L 114.13925 66.534262 
L 114.040637 66.703245 
L 114.040637 67.386445 
L 114.13925 66.534262 
L 114.24115 66.703245 
L 114.13925 67.386445 
L 113.938737 67.386445 
L 114.040637 67.215645 
L 114.740791 67.557245 
L 114.740791 67.557245 
L 114.24115 66.703245 
L 114.941305 67.898845 
L 115.043205 68.921828 
L 115.043205 72.675793 
L 114.740791 75.404959 
L 114.540277 78.304925 
L 114.740791 84.106673 
L 114.842691 92.125187 
L 115.141818 104.237449 
L 114.941305 111.914363 
L 115.141818 115.839129 
L 115.845259 124.028442 
L 115.845259 127.440808 
L 115.644746 130.511574 
L 115.644746 133.582339 
L 116.3449 141.942453 
L 116.946441 145.865401 
L 117.748495 149.277767 
L 118.751063 152.690132 
L 121.35774 160.367046 
L 122.560822 164.462612 
L 123.56339 168.89796 
L 124.766471 172.991709 
L 126.37058 176.745674 
L 128.57623 180.32884 
L 130.683267 184.080988 
L 133.993385 190.905719 
L 139.104838 200.288816 
L 140.909461 203.871981 
L 144.219579 209.671913 
L 145.922301 212.232095 
L 147.828824 214.790461 
L 149.432933 217.521444 
L 150.636014 220.421409 
L 152.841664 228.610723 
L 154.146646 233.216871 
L 154.445773 235.093854 
L 154.748187 239.700003 
L 154.245259 246.693717 
L 154.34716 248.570699 
L 153.946133 253.689248 
L 153.844232 254.883031 
L 153.946133 255.73703 
L 153.946133 256.760013 
L 153.443205 259.659979 
L 153.541818 260.513979 
L 153.443205 263.243144 
L 153.242691 263.926344 
L 153.242691 264.778527 
L 153.443205 265.461727 
L 153.341305 268.703293 
L 153.140791 268.874093 
L 153.242691 268.703293 
L 153.443205 268.874093 
L 153.742332 269.384676 
L 153.844232 269.897075 
L 153.742332 270.238675 
L 153.643719 271.090858 
L 153.443205 271.774058 
L 153.643719 272.113841 
L 153.643719 273.138641 
L 153.742332 273.138641 
L 153.844232 273.309441 
L 154.34716 272.284641 
L 154.8468 272.284641 
L 154.8468 272.455441 
L 154.245259 273.309441 
L 154.044746 273.480241 
L 154.245259 273.480241 
L 154.8468 273.138641 
L 154.646287 272.797041 
L 154.445773 272.797041 
L 154.948701 272.797041 
L 155.047314 272.455441 
L 155.047314 271.944858 
L 155.047314 271.944858 
L 155.349728 272.455441 
L 155.247827 272.284641 
L 155.448341 271.944858 
L 155.648855 271.944858 
L 155.648855 272.284641 
L 155.448341 272.455441 
L 155.349728 271.432458 
L 155.550241 271.261658 
L 155.750755 271.432458 
L 155.648855 271.432458 
L 156.250395 270.920058 
L 156.151782 271.432458 
L 156.049882 271.432458 
L 156.151782 270.920058 
L 156.352296 270.238675 
L 156.250395 270.578458 
L 156.352296 270.578458 
L 156.352296 270.749258 
L 156.450909 270.067875 
L 156.450909 270.238675 
L 156.851936 270.749258 
L 156.953837 270.749258 
L 157.05245 270.409475 
L 157.05245 269.555476 
L 157.15435 269.555476 
L 157.252964 269.555476 
L 157.453477 269.897075 
L 157.755891 269.384676 
L 157.653991 269.213876 
L 157.854504 269.384676 
L 157.956405 269.213876 
L 157.854504 268.532493 
L 157.854504 269.043076 
L 158.055018 269.043076 
L 158.456045 268.703293 
L 158.456045 268.532493 
L 158.357432 268.532493 
L 158.156918 269.213876 
L 158.357432 268.874093 
L 158.156918 268.020093 
L 158.156918 268.020093 
L 158.456045 267.678493 
L 158.557946 267.849293 
L 158.357432 268.361693 
L 158.456045 268.190893 
L 158.656559 268.532493 
L 158.656559 268.361693 
L 158.857072 267.507693 
L 158.857072 267.678493 
L 158.758459 268.532493 
L 158.857072 268.532493 
L 159.159486 268.190893 
L 159.057586 268.020093 
L 159.159486 267.849293 
L 159.458613 268.020093 
L 159.659127 268.361693 
L 159.458613 268.703293 
L 159.458613 268.532493 
L 159.36 267.678493 
L 159.057586 267.678493 
L 158.857072 267.849293 
L 158.758459 268.361693 
L 158.857072 268.190893 
L 159.2581 267.678493 
L 159.560514 268.020093 
L 159.36 267.678493 
L 159.36 267.507693 
L 159.560514 267.507693 
L 159.761027 267.678493 
L 159.961541 268.361693 
L 159.560514 267.336893 
L 159.659127 267.507693 
L 159.458613 267.507693 
L 159.2581 267.678493 
L 159.36 267.849293 
L 159.560514 267.507693 
L 159.961541 266.48471 
L 160.060154 266.31391 
L 159.761027 266.48471 
L 159.560514 266.82631 
L 159.36 266.65551 
L 159.560514 266.48471 
L 159.761027 266.65551 
L 159.85964 266.31391 
L 159.85964 266.14311 
L 159.458613 265.632527 
L 159.36 265.632527 
L 160.162054 265.632527 
L 160.862209 265.290927 
L 161.263236 264.778527 
L 161.966677 263.926344 
L 165.174895 261.024562 
L 166.276076 260.343179 
L 168.984653 259.489179 
L 170.789276 258.807796 
L 172.692512 258.295396 
L 174.497134 257.953796 
L 176.301757 257.443213 
L 178.31018 257.272413 
L 182.721479 256.589213 
L 184.624715 256.418413 
L 186.629851 256.418413 
L 193.549214 256.930813 
L 198.361541 257.953796 
L 200.767704 258.295396 
L 204.679363 257.953796 
L 206.684499 257.953796 
L 208.689635 258.295396 
L 210.494258 258.466196 
L 212.19698 258.295396 
L 214.001602 258.295396 
L 217.712748 258.636996 
L 220.720452 259.318379 
L 223.126615 260.343179 
L 224.03057 261.024562 
L 224.832625 261.366162 
L 226.334833 261.707762 
L 226.837761 262.390962 
L 227.136888 263.072344 
L 227.136888 263.584744 
L 227.136888 263.584744 
L 227.439301 264.266127 
L 227.439301 264.436927 
L 226.134319 266.65551 
L 226.134319 266.99711 
L 226.334833 267.507693 
L 226.73586 267.678493 
L 227.038274 267.507693 
L 227.038274 267.678493 
L 226.637247 268.190893 
L 226.436733 268.703293 
L 226.436733 269.213876 
L 226.23622 268.874093 
L 226.436733 268.703293 
L 226.837761 269.043076 
L 226.436733 270.578458 
L 226.436733 270.409475 
L 226.535347 270.409475 
L 226.637247 270.749258 
L 226.637247 271.261658 
L 226.436733 271.261658 
L 225.933806 270.920058 
L 226.134319 270.920058 
L 226.334833 270.920058 
L 226.334833 270.920058 
L 226.334833 271.944858 
L 226.23622 271.944858 
L 226.134319 271.603258 
L 226.436733 271.603258 
L 226.73586 271.432458 
L 226.837761 271.603258 
L 226.23622 271.944858 
L 226.334833 272.113841 
L 226.73586 272.284641 
L 226.837761 272.626241 
L 226.73586 272.967841 
L 226.73586 272.626241 
L 226.73586 272.455441 
L 226.837761 273.138641 
L 226.837761 272.967841 
L 226.936374 272.455441 
L 227.136888 272.284641 
L 227.238788 272.797041 
L 226.837761 273.309441 
L 226.73586 273.138641 
L 227.038274 272.797041 
L 226.936374 273.651041 
L 226.535347 274.161624 
L 226.535347 273.990824 
L 226.837761 273.990824 
L 226.334833 273.990824 
L 226.637247 274.674024 
L 227.038274 273.480241 
L 226.837761 273.651041 
L 226.936374 273.480241 
L 227.038274 273.820024 
L 226.535347 273.309441 
L 226.73586 273.309441 
L 226.936374 273.651041 
L 227.038274 274.332424 
L 227.238788 273.990824 
L 227.238788 273.651041 
L 226.334833 274.161624 
L 226.134319 274.503224 
L 226.334833 274.674024 
L 226.73586 274.332424 
L 226.73586 274.503224 
L 227.136888 275.697007 
L 227.337401 275.697007 
L 227.238788 275.526207 
L 227.038274 275.697007 
L 227.038274 276.209407 
L 226.936374 276.038607 
L 226.837761 275.867807 
L 227.136888 275.526207 
L 227.238788 275.526207 
L 227.136888 275.867807 
L 227.238788 275.867807 
L 226.837761 275.867807 
L 226.73586 275.697007 
L 226.837761 275.697007 
L 226.936374 275.355407 
L 227.238788 275.526207 
L 227.038274 275.355407 
L 226.637247 275.015624 
L 226.637247 275.355407 
L 227.038274 275.867807 
L 227.136888 275.186424 
L 227.238788 274.503224 
L 226.837761 275.697007 
L 227.238788 275.697007 
L 227.337401 275.867807 
L 227.038274 276.038607 
L 227.038274 276.038607 
L 227.136888 275.697007 
L 227.136888 275.867807 
L 227.337401 276.038607 
L 227.038274 275.526207 
L 227.136888 276.038607 
L 227.038274 276.892607 
L 226.837761 277.06159 
L 226.837761 276.892607 
L 227.238788 276.380207 
L 227.439301 276.551007 
L 227.537915 276.551007 
L 227.238788 276.038607 
L 227.238788 276.380207 
L 227.136888 276.209407 
L 226.936374 276.038607 
L 226.837761 276.380207 
L 227.238788 276.721807 
L 227.439301 277.06159 
L 227.337401 277.06159 
L 227.439301 278.257189 
L 227.337401 278.257189 
L 227.439301 277.06159 
L 227.537915 277.06159 
L 227.738428 277.403189 
L 227.639815 277.06159 
L 227.537915 276.892607 
L 226.837761 277.232389 
L 226.637247 277.573989 
L 226.73586 278.257189 
L 226.637247 278.427989 
L 226.535347 278.086389 
L 226.637247 277.744789 
L 227.238788 277.403189 
L 227.238788 277.06159 
L 227.038274 277.06159 
L 226.936374 277.232389 
L 227.038274 277.232389 
L 227.537915 276.892607 
L 227.136888 276.209407 
L 227.136888 276.380207 
L 227.238788 277.232389 
L 227.038274 277.232389 
L 226.837761 277.744789 
L 227.038274 277.744789 
L 227.238788 277.573989 
L 227.136888 277.232389 
L 226.936374 277.06159 
L 226.837761 277.573989 
L 226.936374 277.915589 
L 227.136888 277.915589 
L 226.837761 277.573989 
L 226.837761 278.086389 
L 226.936374 277.915589 
" style="fill:none;stroke:#1f77b4;stroke-linecap:square;stroke-width:1.5;"/>
   </g>
   <g id="matplotlib.axis_1">
    <g id="xtick_1">
     <g id="line2d_2">
      <defs>
       <path d="M 0 0 
L 0 3.5 
" id="m47bf3f2ff6" style="stroke:#000000;stroke-width:0.8;"/>
      </defs>
      <g>
       <use style="stroke:#000000;stroke-width:0.8;" x="107.532162" xlink:href="#m47bf3f2ff6" y="307.584"/>
      </g>
     </g>
     <g id="text_1">
      <!-- −200 -->
      <defs>
       <path d="M 10.59375 35.5 
L 73.1875 35.5 
L 73.1875 27.203125 
L 10.59375 27.203125 
z
" id="DejaVuSans-8722"/>
       <path d="M 19.1875 8.296875 
L 53.609375 8.296875 
L 53.609375 0 
L 7.328125 0 
L 7.328125 8.296875 
Q 12.9375 14.109375 22.625 23.890625 
Q 32.328125 33.6875 34.8125 36.53125 
Q 39.546875 41.84375 41.421875 45.53125 
Q 43.3125 49.21875 43.3125 52.78125 
Q 43.3125 58.59375 39.234375 62.25 
Q 35.15625 65.921875 28.609375 65.921875 
Q 23.96875 65.921875 18.8125 64.3125 
Q 13.671875 62.703125 7.8125 59.421875 
L 7.8125 69.390625 
Q 13.765625 71.78125 18.9375 73 
Q 24.125 74.21875 28.421875 74.21875 
Q 39.75 74.21875 46.484375 68.546875 
Q 53.21875 62.890625 53.21875 53.421875 
Q 53.21875 48.921875 51.53125 44.890625 
Q 49.859375 40.875 45.40625 35.40625 
Q 44.1875 33.984375 37.640625 27.21875 
Q 31.109375 20.453125 19.1875 8.296875 
z
" id="DejaVuSans-50"/>
       <path d="M 31.78125 66.40625 
Q 24.171875 66.40625 20.328125 58.90625 
Q 16.5 51.421875 16.5 36.375 
Q 16.5 21.390625 20.328125 13.890625 
Q 24.171875 6.390625 31.78125 6.390625 
Q 39.453125 6.390625 43.28125 13.890625 
Q 47.125 21.390625 47.125 36.375 
Q 47.125 51.421875 43.28125 58.90625 
Q 39.453125 66.40625 31.78125 66.40625 
z
M 31.78125 74.21875 
Q 44.046875 74.21875 50.515625 64.515625 
Q 56.984375 54.828125 56.984375 36.375 
Q 56.984375 17.96875 50.515625 8.265625 
Q 44.046875 -1.421875 31.78125 -1.421875 
Q 19.53125 -1.421875 13.0625 8.265625 
Q 6.59375 17.96875 6.59375 36.375 
Q 6.59375 54.828125 13.0625 64.515625 
Q 19.53125 74.21875 31.78125 74.21875 
z
" id="DejaVuSans-48"/>
      </defs>
      <g transform="translate(93.798569 322.182437)scale(0.1 -0.1)">
       <use xlink:href="#DejaVuSans-8722"/>
       <use x="83.789062" xlink:href="#DejaVuSans-50"/>
       <use x="147.412109" xlink:href="#DejaVuSans-48"/>
       <use x="211.035156" xlink:href="#DejaVuSans-48"/>
      </g>
     </g>
    </g>
    <g id="xtick_2">
     <g id="line2d_3">
      <g>
       <use style="stroke:#000000;stroke-width:0.8;" x="173.27433" xlink:href="#m47bf3f2ff6" y="307.584"/>
      </g>
     </g>
     <g id="text_2">
      <!-- 0 -->
      <g transform="translate(170.09308 322.182437)scale(0.1 -0.1)">
       <use xlink:href="#DejaVuSans-48"/>
      </g>
     </g>
    </g>
    <g id="xtick_3">
     <g id="line2d_4">
      <g>
       <use style="stroke:#000000;stroke-width:0.8;" x="239.016497" xlink:href="#m47bf3f2ff6" y="307.584"/>
      </g>
     </g>
     <g id="text_3">
      <!-- 200 -->
      <g transform="translate(229.472747 322.182437)scale(0.1 -0.1)">
       <use xlink:href="#DejaVuSans-50"/>
       <use x="63.623047" xlink:href="#DejaVuSans-48"/>
       <use x="127.246094" xlink:href="#DejaVuSans-48"/>
      </g>
     </g>
    </g>
    <g id="xtick_4">
     <g id="line2d_5">
      <g>
       <use style="stroke:#000000;stroke-width:0.8;" x="304.758665" xlink:href="#m47bf3f2ff6" y="307.584"/>
      </g>
     </g>
     <g id="text_4">
      <!-- 400 -->
      <defs>
       <path d="M 37.796875 64.3125 
L 12.890625 25.390625 
L 37.796875 25.390625 
z
M 35.203125 72.90625 
L 47.609375 72.90625 
L 47.609375 25.390625 
L 58.015625 25.390625 
L 58.015625 17.1875 
L 47.609375 17.1875 
L 47.609375 0 
L 37.796875 0 
L 37.796875 17.1875 
L 4.890625 17.1875 
L 4.890625 26.703125 
z
" id="DejaVuSans-52"/>
      </defs>
      <g transform="translate(295.214915 322.182437)scale(0.1 -0.1)">
       <use xlink:href="#DejaVuSans-52"/>
       <use x="63.623047" xlink:href="#DejaVuSans-48"/>
       <use x="127.246094" xlink:href="#DejaVuSans-48"/>
      </g>
     </g>
    </g>
    <g id="xtick_5">
     <g id="line2d_6">
      <g>
       <use style="stroke:#000000;stroke-width:0.8;" x="370.500832" xlink:href="#m47bf3f2ff6" y="307.584"/>
      </g>
     </g>
     <g id="text_5">
      <!-- 600 -->
      <defs>
       <path d="M 33.015625 40.375 
Q 26.375 40.375 22.484375 35.828125 
Q 18.609375 31.296875 18.609375 23.390625 
Q 18.609375 15.53125 22.484375 10.953125 
Q 26.375 6.390625 33.015625 6.390625 
Q 39.65625 6.390625 43.53125 10.953125 
Q 47.40625 15.53125 47.40625 23.390625 
Q 47.40625 31.296875 43.53125 35.828125 
Q 39.65625 40.375 33.015625 40.375 
z
M 52.59375 71.296875 
L 52.59375 62.3125 
Q 48.875 64.0625 45.09375 64.984375 
Q 41.3125 65.921875 37.59375 65.921875 
Q 27.828125 65.921875 22.671875 59.328125 
Q 17.53125 52.734375 16.796875 39.40625 
Q 19.671875 43.65625 24.015625 45.921875 
Q 28.375 48.1875 33.59375 48.1875 
Q 44.578125 48.1875 50.953125 41.515625 
Q 57.328125 34.859375 57.328125 23.390625 
Q 57.328125 12.15625 50.6875 5.359375 
Q 44.046875 -1.421875 33.015625 -1.421875 
Q 20.359375 -1.421875 13.671875 8.265625 
Q 6.984375 17.96875 6.984375 36.375 
Q 6.984375 53.65625 15.1875 63.9375 
Q 23.390625 74.21875 37.203125 74.21875 
Q 40.921875 74.21875 44.703125 73.484375 
Q 48.484375 72.75 52.59375 71.296875 
z
" id="DejaVuSans-54"/>
      </defs>
      <g transform="translate(360.957082 322.182437)scale(0.1 -0.1)">
       <use xlink:href="#DejaVuSans-54"/>
       <use x="63.623047" xlink:href="#DejaVuSans-48"/>
       <use x="127.246094" xlink:href="#DejaVuSans-48"/>
      </g>
     </g>
    </g>
   </g>
   <g id="matplotlib.axis_2">
    <g id="ytick_1">
     <g id="line2d_7">
      <defs>
       <path d="M 0 0 
L -3.5 0 
" id="m075ae15378" style="stroke:#000000;stroke-width:0.8;"/>
      </defs>
      <g>
       <use style="stroke:#000000;stroke-width:0.8;" x="57.6" xlink:href="#m075ae15378" y="307.520313"/>
      </g>
     </g>
     <g id="text_6">
      <!-- −800 -->
      <defs>
       <path d="M 31.78125 34.625 
Q 24.75 34.625 20.71875 30.859375 
Q 16.703125 27.09375 16.703125 20.515625 
Q 16.703125 13.921875 20.71875 10.15625 
Q 24.75 6.390625 31.78125 6.390625 
Q 38.8125 6.390625 42.859375 10.171875 
Q 46.921875 13.96875 46.921875 20.515625 
Q 46.921875 27.09375 42.890625 30.859375 
Q 38.875 34.625 31.78125 34.625 
z
M 21.921875 38.8125 
Q 15.578125 40.375 12.03125 44.71875 
Q 8.5 49.078125 8.5 55.328125 
Q 8.5 64.0625 14.71875 69.140625 
Q 20.953125 74.21875 31.78125 74.21875 
Q 42.671875 74.21875 48.875 69.140625 
Q 55.078125 64.0625 55.078125 55.328125 
Q 55.078125 49.078125 51.53125 44.71875 
Q 48 40.375 41.703125 38.8125 
Q 48.828125 37.15625 52.796875 32.3125 
Q 56.78125 27.484375 56.78125 20.515625 
Q 56.78125 9.90625 50.3125 4.234375 
Q 43.84375 -1.421875 31.78125 -1.421875 
Q 19.734375 -1.421875 13.25 4.234375 
Q 6.78125 9.90625 6.78125 20.515625 
Q 6.78125 27.484375 10.78125 32.3125 
Q 14.796875 37.15625 21.921875 38.8125 
z
M 18.3125 54.390625 
Q 18.3125 48.734375 21.84375 45.5625 
Q 25.390625 42.390625 31.78125 42.390625 
Q 38.140625 42.390625 41.71875 45.5625 
Q 45.3125 48.734375 45.3125 54.390625 
Q 45.3125 60.0625 41.71875 63.234375 
Q 38.140625 66.40625 31.78125 66.40625 
Q 25.390625 66.40625 21.84375 63.234375 
Q 18.3125 60.0625 18.3125 54.390625 
z
" id="DejaVuSans-56"/>
      </defs>
      <g transform="translate(23.132812 311.319532)scale(0.1 -0.1)">
       <use xlink:href="#DejaVuSans-8722"/>
       <use x="83.789062" xlink:href="#DejaVuSans-56"/>
       <use x="147.412109" xlink:href="#DejaVuSans-48"/>
       <use x="211.035156" xlink:href="#DejaVuSans-48"/>
      </g>
     </g>
    </g>
    <g id="ytick_2">
     <g id="line2d_8">
      <g>
       <use style="stroke:#000000;stroke-width:0.8;" x="57.6" xlink:href="#m075ae15378" y="271.179892"/>
      </g>
     </g>
     <g id="text_7">
      <!-- −600 -->
      <g transform="translate(23.132812 274.979111)scale(0.1 -0.1)">
       <use xlink:href="#DejaVuSans-8722"/>
       <use x="83.789062" xlink:href="#DejaVuSans-54"/>
       <use x="147.412109" xlink:href="#DejaVuSans-48"/>
       <use x="211.035156" xlink:href="#DejaVuSans-48"/>
      </g>
     </g>
    </g>
    <g id="ytick_3">
     <g id="line2d_9">
      <g>
       <use style="stroke:#000000;stroke-width:0.8;" x="57.6" xlink:href="#m075ae15378" y="234.839471"/>
      </g>
     </g>
     <g id="text_8">
      <!-- −400 -->
      <g transform="translate(23.132812 238.63869)scale(0.1 -0.1)">
       <use xlink:href="#DejaVuSans-8722"/>
       <use x="83.789062" xlink:href="#DejaVuSans-52"/>
       <use x="147.412109" xlink:href="#DejaVuSans-48"/>
       <use x="211.035156" xlink:href="#DejaVuSans-48"/>
      </g>
     </g>
    </g>
    <g id="ytick_4">
     <g id="line2d_10">
      <g>
       <use style="stroke:#000000;stroke-width:0.8;" x="57.6" xlink:href="#m075ae15378" y="198.49905"/>
      </g>
     </g>
     <g id="text_9">
      <!-- −200 -->
      <g transform="translate(23.132812 202.298269)scale(0.1 -0.1)">
       <use xlink:href="#DejaVuSans-8722"/>
       <use x="83.789062" xlink:href="#DejaVuSans-50"/>
       <use x="147.412109" xlink:href="#DejaVuSans-48"/>
       <use x="211.035156" xlink:href="#DejaVuSans-48"/>
      </g>
     </g>
    </g>
    <g id="ytick_5">
     <g id="line2d_11">
      <g>
       <use style="stroke:#000000;stroke-width:0.8;" x="57.6" xlink:href="#m075ae15378" y="162.158629"/>
      </g>
     </g>
     <g id="text_10">
      <!-- 0 -->
      <g transform="translate(44.2375 165.957848)scale(0.1 -0.1)">
       <use xlink:href="#DejaVuSans-48"/>
      </g>
     </g>
    </g>
    <g id="ytick_6">
     <g id="line2d_12">
      <g>
       <use style="stroke:#000000;stroke-width:0.8;" x="57.6" xlink:href="#m075ae15378" y="125.818208"/>
      </g>
     </g>
     <g id="text_11">
      <!-- 200 -->
      <g transform="translate(31.5125 129.617427)scale(0.1 -0.1)">
       <use xlink:href="#DejaVuSans-50"/>
       <use x="63.623047" xlink:href="#DejaVuSans-48"/>
       <use x="127.246094" xlink:href="#DejaVuSans-48"/>
      </g>
     </g>
    </g>
    <g id="ytick_7">
     <g id="line2d_13">
      <g>
       <use style="stroke:#000000;stroke-width:0.8;" x="57.6" xlink:href="#m075ae15378" y="89.477787"/>
      </g>
     </g>
     <g id="text_12">
      <!-- 400 -->
      <g transform="translate(31.5125 93.277006)scale(0.1 -0.1)">
       <use xlink:href="#DejaVuSans-52"/>
       <use x="63.623047" xlink:href="#DejaVuSans-48"/>
       <use x="127.246094" xlink:href="#DejaVuSans-48"/>
      </g>
     </g>
    </g>
    <g id="ytick_8">
     <g id="line2d_14">
      <g>
       <use style="stroke:#000000;stroke-width:0.8;" x="57.6" xlink:href="#m075ae15378" y="53.137366"/>
      </g>
     </g>
     <g id="text_13">
      <!-- 600 -->
      <g transform="translate(31.5125 56.936585)scale(0.1 -0.1)">
       <use xlink:href="#DejaVuSans-54"/>
       <use x="63.623047" xlink:href="#DejaVuSans-48"/>
       <use x="127.246094" xlink:href="#DejaVuSans-48"/>
      </g>
     </g>
    </g>
   </g>
   <g id="line2d_15">
    <path clip-path="url(#pf00bed7886)" d="M 395.883575 280.468374 
L 190.187488 232.749673 
L 87.573665 200.010515 
L 112.460334 62.76927 
L 156.925213 266.693493 
L 219.053602 268.392085 
L 227.113166 276.549162 
" style="fill:none;stroke:#ff0000;stroke-linecap:square;stroke-width:0.5;"/>
   </g>
   <g id="patch_3">
    <path d="M 57.6 307.584 
L 57.6 41.472 
" style="fill:none;stroke:#000000;stroke-linecap:square;stroke-linejoin:miter;stroke-width:0.8;"/>
   </g>
   <g id="patch_4">
    <path d="M 414.72 307.584 
L 414.72 41.472 
" style="fill:none;stroke:#000000;stroke-linecap:square;stroke-linejoin:miter;stroke-width:0.8;"/>
   </g>
   <g id="patch_5">
    <path d="M 57.6 307.584 
L 414.72 307.584 
" style="fill:none;stroke:#000000;stroke-linecap:square;stroke-linejoin:miter;stroke-width:0.8;"/>
   </g>
   <g id="patch_6">
    <path d="M 57.6 41.472 
L 414.72 41.472 
" style="fill:none;stroke:#000000;stroke-linecap:square;stroke-linejoin:miter;stroke-width:0.8;"/>
   </g>
   <g id="PathCollection_1">
    <defs>
     <path d="M 0 2.738613 
C 0.726289 2.738613 1.422928 2.450055 1.936492 1.936492 
C 2.450055 1.422928 2.738613 0.726289 2.738613 0 
C 2.738613 -0.726289 2.450055 -1.422928 1.936492 -1.936492 
C 1.422928 -2.450055 0.726289 -2.738613 0 -2.738613 
C -0.726289 -2.738613 -1.422928 -2.450055 -1.936492 -1.936492 
C -2.450055 -1.422928 -2.738613 -0.726289 -2.738613 0 
C -2.738613 0.726289 -2.450055 1.422928 -1.936492 1.936492 
C -1.422928 2.450055 -0.726289 2.738613 0 2.738613 
z
" id="m0f7377cdf9" style="stroke:#ff0000;"/>
    </defs>
    <g clip-path="url(#pf00bed7886)">
     <use style="fill:#ff0000;stroke:#ff0000;" x="395.883575" xlink:href="#m0f7377cdf9" y="280.468374"/>
     <use style="fill:#ff0000;stroke:#ff0000;" x="190.187488" xlink:href="#m0f7377cdf9" y="232.749673"/>
     <use style="fill:#ff0000;stroke:#ff0000;" x="87.573665" xlink:href="#m0f7377cdf9" y="200.010515"/>
     <use style="fill:#ff0000;stroke:#ff0000;" x="112.460334" xlink:href="#m0f7377cdf9" y="62.76927"/>
     <use style="fill:#ff0000;stroke:#ff0000;" x="156.925213" xlink:href="#m0f7377cdf9" y="266.693493"/>
     <use style="fill:#ff0000;stroke:#ff0000;" x="219.053602" xlink:href="#m0f7377cdf9" y="268.392085"/>
     <use style="fill:#ff0000;stroke:#ff0000;" x="227.113166" xlink:href="#m0f7377cdf9" y="276.549162"/>
    </g>
   </g>
   <g id="text_14">
    <!-- (100) Subject: s27, Known = True, Degree = 2, Duration = 0.1 -->
    <defs>
     <path d="M 31 75.875 
Q 24.46875 64.65625 21.28125 53.65625 
Q 18.109375 42.671875 18.109375 31.390625 
Q 18.109375 20.125 21.3125 9.0625 
Q 24.515625 -2 31 -13.1875 
L 23.1875 -13.1875 
Q 15.875 -1.703125 12.234375 9.375 
Q 8.59375 20.453125 8.59375 31.390625 
Q 8.59375 42.28125 12.203125 53.3125 
Q 15.828125 64.359375 23.1875 75.875 
z
" id="DejaVuSans-40"/>
     <path d="M 12.40625 8.296875 
L 28.515625 8.296875 
L 28.515625 63.921875 
L 10.984375 60.40625 
L 10.984375 69.390625 
L 28.421875 72.90625 
L 38.28125 72.90625 
L 38.28125 8.296875 
L 54.390625 8.296875 
L 54.390625 0 
L 12.40625 0 
z
" id="DejaVuSans-49"/>
     <path d="M 8.015625 75.875 
L 15.828125 75.875 
Q 23.140625 64.359375 26.78125 53.3125 
Q 30.421875 42.28125 30.421875 31.390625 
Q 30.421875 20.453125 26.78125 9.375 
Q 23.140625 -1.703125 15.828125 -13.1875 
L 8.015625 -13.1875 
Q 14.5 -2 17.703125 9.0625 
Q 20.90625 20.125 20.90625 31.390625 
Q 20.90625 42.671875 17.703125 53.65625 
Q 14.5 64.65625 8.015625 75.875 
z
" id="DejaVuSans-41"/>
     <path id="DejaVuSans-32"/>
     <path d="M 53.515625 70.515625 
L 53.515625 60.890625 
Q 47.90625 63.578125 42.921875 64.890625 
Q 37.9375 66.21875 33.296875 66.21875 
Q 25.25 66.21875 20.875 63.09375 
Q 16.5 59.96875 16.5 54.203125 
Q 16.5 49.359375 19.40625 46.890625 
Q 22.3125 44.4375 30.421875 42.921875 
L 36.375 41.703125 
Q 47.40625 39.59375 52.65625 34.296875 
Q 57.90625 29 57.90625 20.125 
Q 57.90625 9.515625 50.796875 4.046875 
Q 43.703125 -1.421875 29.984375 -1.421875 
Q 24.8125 -1.421875 18.96875 -0.25 
Q 13.140625 0.921875 6.890625 3.21875 
L 6.890625 13.375 
Q 12.890625 10.015625 18.65625 8.296875 
Q 24.421875 6.59375 29.984375 6.59375 
Q 38.421875 6.59375 43.015625 9.90625 
Q 47.609375 13.234375 47.609375 19.390625 
Q 47.609375 24.75 44.3125 27.78125 
Q 41.015625 30.8125 33.5 32.328125 
L 27.484375 33.5 
Q 16.453125 35.6875 11.515625 40.375 
Q 6.59375 45.0625 6.59375 53.421875 
Q 6.59375 63.09375 13.40625 68.65625 
Q 20.21875 74.21875 32.171875 74.21875 
Q 37.3125 74.21875 42.625 73.28125 
Q 47.953125 72.359375 53.515625 70.515625 
z
" id="DejaVuSans-83"/>
     <path d="M 8.5 21.578125 
L 8.5 54.6875 
L 17.484375 54.6875 
L 17.484375 21.921875 
Q 17.484375 14.15625 20.5 10.265625 
Q 23.53125 6.390625 29.59375 6.390625 
Q 36.859375 6.390625 41.078125 11.03125 
Q 45.3125 15.671875 45.3125 23.6875 
L 45.3125 54.6875 
L 54.296875 54.6875 
L 54.296875 0 
L 45.3125 0 
L 45.3125 8.40625 
Q 42.046875 3.421875 37.71875 1 
Q 33.40625 -1.421875 27.6875 -1.421875 
Q 18.265625 -1.421875 13.375 4.4375 
Q 8.5 10.296875 8.5 21.578125 
z
M 31.109375 56 
z
" id="DejaVuSans-117"/>
     <path d="M 48.6875 27.296875 
Q 48.6875 37.203125 44.609375 42.84375 
Q 40.53125 48.484375 33.40625 48.484375 
Q 26.265625 48.484375 22.1875 42.84375 
Q 18.109375 37.203125 18.109375 27.296875 
Q 18.109375 17.390625 22.1875 11.75 
Q 26.265625 6.109375 33.40625 6.109375 
Q 40.53125 6.109375 44.609375 11.75 
Q 48.6875 17.390625 48.6875 27.296875 
z
M 18.109375 46.390625 
Q 20.953125 51.265625 25.265625 53.625 
Q 29.59375 56 35.59375 56 
Q 45.5625 56 51.78125 48.09375 
Q 58.015625 40.1875 58.015625 27.296875 
Q 58.015625 14.40625 51.78125 6.484375 
Q 45.5625 -1.421875 35.59375 -1.421875 
Q 29.59375 -1.421875 25.265625 0.953125 
Q 20.953125 3.328125 18.109375 8.203125 
L 18.109375 0 
L 9.078125 0 
L 9.078125 75.984375 
L 18.109375 75.984375 
z
" id="DejaVuSans-98"/>
     <path d="M 9.421875 54.6875 
L 18.40625 54.6875 
L 18.40625 -0.984375 
Q 18.40625 -11.421875 14.421875 -16.109375 
Q 10.453125 -20.796875 1.609375 -20.796875 
L -1.8125 -20.796875 
L -1.8125 -13.1875 
L 0.59375 -13.1875 
Q 5.71875 -13.1875 7.5625 -10.8125 
Q 9.421875 -8.453125 9.421875 -0.984375 
z
M 9.421875 75.984375 
L 18.40625 75.984375 
L 18.40625 64.59375 
L 9.421875 64.59375 
z
" id="DejaVuSans-106"/>
     <path d="M 56.203125 29.59375 
L 56.203125 25.203125 
L 14.890625 25.203125 
Q 15.484375 15.921875 20.484375 11.0625 
Q 25.484375 6.203125 34.421875 6.203125 
Q 39.59375 6.203125 44.453125 7.46875 
Q 49.3125 8.734375 54.109375 11.28125 
L 54.109375 2.78125 
Q 49.265625 0.734375 44.1875 -0.34375 
Q 39.109375 -1.421875 33.890625 -1.421875 
Q 20.796875 -1.421875 13.15625 6.1875 
Q 5.515625 13.8125 5.515625 26.8125 
Q 5.515625 40.234375 12.765625 48.109375 
Q 20.015625 56 32.328125 56 
Q 43.359375 56 49.78125 48.890625 
Q 56.203125 41.796875 56.203125 29.59375 
z
M 47.21875 32.234375 
Q 47.125 39.59375 43.09375 43.984375 
Q 39.0625 48.390625 32.421875 48.390625 
Q 24.90625 48.390625 20.390625 44.140625 
Q 15.875 39.890625 15.1875 32.171875 
z
" id="DejaVuSans-101"/>
     <path d="M 48.78125 52.59375 
L 48.78125 44.1875 
Q 44.96875 46.296875 41.140625 47.34375 
Q 37.3125 48.390625 33.40625 48.390625 
Q 24.65625 48.390625 19.8125 42.84375 
Q 14.984375 37.3125 14.984375 27.296875 
Q 14.984375 17.28125 19.8125 11.734375 
Q 24.65625 6.203125 33.40625 6.203125 
Q 37.3125 6.203125 41.140625 7.25 
Q 44.96875 8.296875 48.78125 10.40625 
L 48.78125 2.09375 
Q 45.015625 0.34375 40.984375 -0.53125 
Q 36.96875 -1.421875 32.421875 -1.421875 
Q 20.0625 -1.421875 12.78125 6.34375 
Q 5.515625 14.109375 5.515625 27.296875 
Q 5.515625 40.671875 12.859375 48.328125 
Q 20.21875 56 33.015625 56 
Q 37.15625 56 41.109375 55.140625 
Q 45.0625 54.296875 48.78125 52.59375 
z
" id="DejaVuSans-99"/>
     <path d="M 18.3125 70.21875 
L 18.3125 54.6875 
L 36.8125 54.6875 
L 36.8125 47.703125 
L 18.3125 47.703125 
L 18.3125 18.015625 
Q 18.3125 11.328125 20.140625 9.421875 
Q 21.96875 7.515625 27.59375 7.515625 
L 36.8125 7.515625 
L 36.8125 0 
L 27.59375 0 
Q 17.1875 0 13.234375 3.875 
Q 9.28125 7.765625 9.28125 18.015625 
L 9.28125 47.703125 
L 2.6875 47.703125 
L 2.6875 54.6875 
L 9.28125 54.6875 
L 9.28125 70.21875 
z
" id="DejaVuSans-116"/>
     <path d="M 11.71875 12.40625 
L 22.015625 12.40625 
L 22.015625 0 
L 11.71875 0 
z
M 11.71875 51.703125 
L 22.015625 51.703125 
L 22.015625 39.3125 
L 11.71875 39.3125 
z
" id="DejaVuSans-58"/>
     <path d="M 44.28125 53.078125 
L 44.28125 44.578125 
Q 40.484375 46.53125 36.375 47.5 
Q 32.28125 48.484375 27.875 48.484375 
Q 21.1875 48.484375 17.84375 46.4375 
Q 14.5 44.390625 14.5 40.28125 
Q 14.5 37.15625 16.890625 35.375 
Q 19.28125 33.59375 26.515625 31.984375 
L 29.59375 31.296875 
Q 39.15625 29.25 43.1875 25.515625 
Q 47.21875 21.78125 47.21875 15.09375 
Q 47.21875 7.46875 41.1875 3.015625 
Q 35.15625 -1.421875 24.609375 -1.421875 
Q 20.21875 -1.421875 15.453125 -0.5625 
Q 10.6875 0.296875 5.421875 2 
L 5.421875 11.28125 
Q 10.40625 8.6875 15.234375 7.390625 
Q 20.0625 6.109375 24.8125 6.109375 
Q 31.15625 6.109375 34.5625 8.28125 
Q 37.984375 10.453125 37.984375 14.40625 
Q 37.984375 18.0625 35.515625 20.015625 
Q 33.0625 21.96875 24.703125 23.78125 
L 21.578125 24.515625 
Q 13.234375 26.265625 9.515625 29.90625 
Q 5.8125 33.546875 5.8125 39.890625 
Q 5.8125 47.609375 11.28125 51.796875 
Q 16.75 56 26.8125 56 
Q 31.78125 56 36.171875 55.265625 
Q 40.578125 54.546875 44.28125 53.078125 
z
" id="DejaVuSans-115"/>
     <path d="M 8.203125 72.90625 
L 55.078125 72.90625 
L 55.078125 68.703125 
L 28.609375 0 
L 18.3125 0 
L 43.21875 64.59375 
L 8.203125 64.59375 
z
" id="DejaVuSans-55"/>
     <path d="M 11.71875 12.40625 
L 22.015625 12.40625 
L 22.015625 4 
L 14.015625 -11.625 
L 7.71875 -11.625 
L 11.71875 4 
z
" id="DejaVuSans-44"/>
     <path d="M 9.8125 72.90625 
L 19.671875 72.90625 
L 19.671875 42.09375 
L 52.390625 72.90625 
L 65.09375 72.90625 
L 28.90625 38.921875 
L 67.671875 0 
L 54.6875 0 
L 19.671875 35.109375 
L 19.671875 0 
L 9.8125 0 
z
" id="DejaVuSans-75"/>
     <path d="M 54.890625 33.015625 
L 54.890625 0 
L 45.90625 0 
L 45.90625 32.71875 
Q 45.90625 40.484375 42.875 44.328125 
Q 39.84375 48.1875 33.796875 48.1875 
Q 26.515625 48.1875 22.3125 43.546875 
Q 18.109375 38.921875 18.109375 30.90625 
L 18.109375 0 
L 9.078125 0 
L 9.078125 54.6875 
L 18.109375 54.6875 
L 18.109375 46.1875 
Q 21.34375 51.125 25.703125 53.5625 
Q 30.078125 56 35.796875 56 
Q 45.21875 56 50.046875 50.171875 
Q 54.890625 44.34375 54.890625 33.015625 
z
" id="DejaVuSans-110"/>
     <path d="M 30.609375 48.390625 
Q 23.390625 48.390625 19.1875 42.75 
Q 14.984375 37.109375 14.984375 27.296875 
Q 14.984375 17.484375 19.15625 11.84375 
Q 23.34375 6.203125 30.609375 6.203125 
Q 37.796875 6.203125 41.984375 11.859375 
Q 46.1875 17.53125 46.1875 27.296875 
Q 46.1875 37.015625 41.984375 42.703125 
Q 37.796875 48.390625 30.609375 48.390625 
z
M 30.609375 56 
Q 42.328125 56 49.015625 48.375 
Q 55.71875 40.765625 55.71875 27.296875 
Q 55.71875 13.875 49.015625 6.21875 
Q 42.328125 -1.421875 30.609375 -1.421875 
Q 18.84375 -1.421875 12.171875 6.21875 
Q 5.515625 13.875 5.515625 27.296875 
Q 5.515625 40.765625 12.171875 48.375 
Q 18.84375 56 30.609375 56 
z
" id="DejaVuSans-111"/>
     <path d="M 4.203125 54.6875 
L 13.1875 54.6875 
L 24.421875 12.015625 
L 35.59375 54.6875 
L 46.1875 54.6875 
L 57.421875 12.015625 
L 68.609375 54.6875 
L 77.59375 54.6875 
L 63.28125 0 
L 52.6875 0 
L 40.921875 44.828125 
L 29.109375 0 
L 18.5 0 
z
" id="DejaVuSans-119"/>
     <path d="M 10.59375 45.40625 
L 73.1875 45.40625 
L 73.1875 37.203125 
L 10.59375 37.203125 
z
M 10.59375 25.484375 
L 73.1875 25.484375 
L 73.1875 17.1875 
L 10.59375 17.1875 
z
" id="DejaVuSans-61"/>
     <path d="M -0.296875 72.90625 
L 61.375 72.90625 
L 61.375 64.59375 
L 35.5 64.59375 
L 35.5 0 
L 25.59375 0 
L 25.59375 64.59375 
L -0.296875 64.59375 
z
" id="DejaVuSans-84"/>
     <path d="M 41.109375 46.296875 
Q 39.59375 47.171875 37.8125 47.578125 
Q 36.03125 48 33.890625 48 
Q 26.265625 48 22.1875 43.046875 
Q 18.109375 38.09375 18.109375 28.8125 
L 18.109375 0 
L 9.078125 0 
L 9.078125 54.6875 
L 18.109375 54.6875 
L 18.109375 46.1875 
Q 20.953125 51.171875 25.484375 53.578125 
Q 30.03125 56 36.53125 56 
Q 37.453125 56 38.578125 55.875 
Q 39.703125 55.765625 41.0625 55.515625 
z
" id="DejaVuSans-114"/>
     <path d="M 19.671875 64.796875 
L 19.671875 8.109375 
L 31.59375 8.109375 
Q 46.6875 8.109375 53.6875 14.9375 
Q 60.6875 21.78125 60.6875 36.53125 
Q 60.6875 51.171875 53.6875 57.984375 
Q 46.6875 64.796875 31.59375 64.796875 
z
M 9.8125 72.90625 
L 30.078125 72.90625 
Q 51.265625 72.90625 61.171875 64.09375 
Q 71.09375 55.28125 71.09375 36.53125 
Q 71.09375 17.671875 61.125 8.828125 
Q 51.171875 0 30.078125 0 
L 9.8125 0 
z
" id="DejaVuSans-68"/>
     <path d="M 45.40625 27.984375 
Q 45.40625 37.75 41.375 43.109375 
Q 37.359375 48.484375 30.078125 48.484375 
Q 22.859375 48.484375 18.828125 43.109375 
Q 14.796875 37.75 14.796875 27.984375 
Q 14.796875 18.265625 18.828125 12.890625 
Q 22.859375 7.515625 30.078125 7.515625 
Q 37.359375 7.515625 41.375 12.890625 
Q 45.40625 18.265625 45.40625 27.984375 
z
M 54.390625 6.78125 
Q 54.390625 -7.171875 48.1875 -13.984375 
Q 42 -20.796875 29.203125 -20.796875 
Q 24.46875 -20.796875 20.265625 -20.09375 
Q 16.0625 -19.390625 12.109375 -17.921875 
L 12.109375 -9.1875 
Q 16.0625 -11.328125 19.921875 -12.34375 
Q 23.78125 -13.375 27.78125 -13.375 
Q 36.625 -13.375 41.015625 -8.765625 
Q 45.40625 -4.15625 45.40625 5.171875 
L 45.40625 9.625 
Q 42.625 4.78125 38.28125 2.390625 
Q 33.9375 0 27.875 0 
Q 17.828125 0 11.671875 7.65625 
Q 5.515625 15.328125 5.515625 27.984375 
Q 5.515625 40.671875 11.671875 48.328125 
Q 17.828125 56 27.875 56 
Q 33.9375 56 38.28125 53.609375 
Q 42.625 51.21875 45.40625 46.390625 
L 45.40625 54.6875 
L 54.390625 54.6875 
z
" id="DejaVuSans-103"/>
     <path d="M 34.28125 27.484375 
Q 23.390625 27.484375 19.1875 25 
Q 14.984375 22.515625 14.984375 16.5 
Q 14.984375 11.71875 18.140625 8.90625 
Q 21.296875 6.109375 26.703125 6.109375 
Q 34.1875 6.109375 38.703125 11.40625 
Q 43.21875 16.703125 43.21875 25.484375 
L 43.21875 27.484375 
z
M 52.203125 31.203125 
L 52.203125 0 
L 43.21875 0 
L 43.21875 8.296875 
Q 40.140625 3.328125 35.546875 0.953125 
Q 30.953125 -1.421875 24.3125 -1.421875 
Q 15.921875 -1.421875 10.953125 3.296875 
Q 6 8.015625 6 15.921875 
Q 6 25.140625 12.171875 29.828125 
Q 18.359375 34.515625 30.609375 34.515625 
L 43.21875 34.515625 
L 43.21875 35.40625 
Q 43.21875 41.609375 39.140625 45 
Q 35.0625 48.390625 27.6875 48.390625 
Q 23 48.390625 18.546875 47.265625 
Q 14.109375 46.140625 10.015625 43.890625 
L 10.015625 52.203125 
Q 14.9375 54.109375 19.578125 55.046875 
Q 24.21875 56 28.609375 56 
Q 40.484375 56 46.34375 49.84375 
Q 52.203125 43.703125 52.203125 31.203125 
z
" id="DejaVuSans-97"/>
     <path d="M 9.421875 54.6875 
L 18.40625 54.6875 
L 18.40625 0 
L 9.421875 0 
z
M 9.421875 75.984375 
L 18.40625 75.984375 
L 18.40625 64.59375 
L 9.421875 64.59375 
z
" id="DejaVuSans-105"/>
     <path d="M 10.6875 12.40625 
L 21 12.40625 
L 21 0 
L 10.6875 0 
z
" id="DejaVuSans-46"/>
    </defs>
    <g transform="translate(47.915625 35.472)scale(0.12 -0.12)">
     <use xlink:href="#DejaVuSans-40"/>
     <use x="39.013672" xlink:href="#DejaVuSans-49"/>
     <use x="102.636719" xlink:href="#DejaVuSans-48"/>
     <use x="166.259766" xlink:href="#DejaVuSans-48"/>
     <use x="229.882812" xlink:href="#DejaVuSans-41"/>
     <use x="268.896484" xlink:href="#DejaVuSans-32"/>
     <use x="300.683594" xlink:href="#DejaVuSans-83"/>
     <use x="364.160156" xlink:href="#DejaVuSans-117"/>
     <use x="427.539062" xlink:href="#DejaVuSans-98"/>
     <use x="491.015625" xlink:href="#DejaVuSans-106"/>
     <use x="518.798828" xlink:href="#DejaVuSans-101"/>
     <use x="580.322266" xlink:href="#DejaVuSans-99"/>
     <use x="635.302734" xlink:href="#DejaVuSans-116"/>
     <use x="674.511719" xlink:href="#DejaVuSans-58"/>
     <use x="708.203125" xlink:href="#DejaVuSans-32"/>
     <use x="739.990234" xlink:href="#DejaVuSans-115"/>
     <use x="792.089844" xlink:href="#DejaVuSans-50"/>
     <use x="855.712891" xlink:href="#DejaVuSans-55"/>
     <use x="919.335938" xlink:href="#DejaVuSans-44"/>
     <use x="951.123047" xlink:href="#DejaVuSans-32"/>
     <use x="982.910156" xlink:href="#DejaVuSans-75"/>
     <use x="1048.486328" xlink:href="#DejaVuSans-110"/>
     <use x="1111.865234" xlink:href="#DejaVuSans-111"/>
     <use x="1173.046875" xlink:href="#DejaVuSans-119"/>
     <use x="1254.833984" xlink:href="#DejaVuSans-110"/>
     <use x="1318.212891" xlink:href="#DejaVuSans-32"/>
     <use x="1350" xlink:href="#DejaVuSans-61"/>
     <use x="1433.789062" xlink:href="#DejaVuSans-32"/>
     <use x="1465.576172" xlink:href="#DejaVuSans-84"/>
     <use x="1526.441406" xlink:href="#DejaVuSans-114"/>
     <use x="1567.554688" xlink:href="#DejaVuSans-117"/>
     <use x="1630.933594" xlink:href="#DejaVuSans-101"/>
     <use x="1692.457031" xlink:href="#DejaVuSans-44"/>
     <use x="1724.244141" xlink:href="#DejaVuSans-32"/>
     <use x="1756.03125" xlink:href="#DejaVuSans-68"/>
     <use x="1833.033203" xlink:href="#DejaVuSans-101"/>
     <use x="1894.556641" xlink:href="#DejaVuSans-103"/>
     <use x="1958.033203" xlink:href="#DejaVuSans-114"/>
     <use x="1999.115234" xlink:href="#DejaVuSans-101"/>
     <use x="2060.638672" xlink:href="#DejaVuSans-101"/>
     <use x="2122.162109" xlink:href="#DejaVuSans-32"/>
     <use x="2153.949219" xlink:href="#DejaVuSans-61"/>
     <use x="2237.738281" xlink:href="#DejaVuSans-32"/>
     <use x="2269.525391" xlink:href="#DejaVuSans-50"/>
     <use x="2333.148438" xlink:href="#DejaVuSans-44"/>
     <use x="2364.935547" xlink:href="#DejaVuSans-32"/>
     <use x="2396.722656" xlink:href="#DejaVuSans-68"/>
     <use x="2473.724609" xlink:href="#DejaVuSans-117"/>
     <use x="2537.103516" xlink:href="#DejaVuSans-114"/>
     <use x="2578.216797" xlink:href="#DejaVuSans-97"/>
     <use x="2639.496094" xlink:href="#DejaVuSans-116"/>
     <use x="2678.705078" xlink:href="#DejaVuSans-105"/>
     <use x="2706.488281" xlink:href="#DejaVuSans-111"/>
     <use x="2767.669922" xlink:href="#DejaVuSans-110"/>
     <use x="2831.048828" xlink:href="#DejaVuSans-32"/>
     <use x="2862.835938" xlink:href="#DejaVuSans-61"/>
     <use x="2946.625" xlink:href="#DejaVuSans-32"/>
     <use x="2978.412109" xlink:href="#DejaVuSans-48"/>
     <use x="3042.035156" xlink:href="#DejaVuSans-46"/>
     <use x="3073.822266" xlink:href="#DejaVuSans-49"/>
    </g>
   </g>
  </g>
 </g>
 <defs>
  <clipPath id="pf00bed7886">
   <rect height="266.112" width="357.12" x="57.6" y="41.472"/>
  </clipPath>
 </defs>
</svg>
