<?xml version="1.0" encoding="utf-8" standalone="no"?>
<!DOCTYPE svg PUBLIC "-//W3C//DTD SVG 1.1//EN"
  "http://www.w3.org/Graphics/SVG/1.1/DTD/svg11.dtd">
<!-- Created with matplotlib (https://matplotlib.org/) -->
<svg height="345.6pt" version="1.1" viewBox="0 0 460.8 345.6" width="460.8pt" xmlns="http://www.w3.org/2000/svg" xmlns:xlink="http://www.w3.org/1999/xlink">
 <defs>
  <style type="text/css">
*{stroke-linecap:butt;stroke-linejoin:round;}
  </style>
 </defs>
 <g id="figure_1">
  <g id="patch_1">
   <path d="M 0 345.6 
L 460.8 345.6 
L 460.8 0 
L 0 0 
z
" style="fill:#ffffff;"/>
  </g>
  <g id="axes_1">
   <g id="patch_2">
    <path d="M 57.6 307.584 
L 414.72 307.584 
L 414.72 41.472 
L 57.6 41.472 
z
" style="fill:#ffffff;"/>
   </g>
   <g id="line2d_1">
    <path clip-path="url(#pf7d621cffe)" d="M 76.557257 202.888021 
L 76.830611 202.888021 
L 76.830611 203.726122 
L 76.013552 205.392104 
L 75.740198 207.058086 
L 75.740198 206.225095 
L 76.013552 204.559113 
L 76.557257 203.726122 
L 77.100961 202.05503 
L 77.100961 200.389048 
L 77.100961 200.389048 
L 76.830611 200.389048 
L 76.557257 201.222039 
L 76.013552 200.389048 
L 75.740198 199.550947 
L 75.740198 202.05503 
L 75.466844 203.726122 
L 76.283902 201.222039 
L 77.100961 201.222039 
L 77.100961 199.550947 
L 76.830611 198.717956 
L 76.013552 197.051974 
L 76.013552 197.051974 
L 77.374315 203.726122 
L 77.647669 205.392104 
L 77.374315 204.559113 
L 77.100961 201.222039 
L 76.830611 200.389048 
L 76.283902 201.222039 
L 76.013552 202.888021 
L 75.740198 203.726122 
L 75.466844 203.726122 
L 75.466844 201.222039 
L 76.013552 200.389048 
L 76.283902 200.389048 
L 75.740198 202.05503 
L 75.19349 202.05503 
L 75.19349 201.222039 
L 76.013552 197.884965 
L 76.013552 197.884965 
L 76.013552 199.550947 
L 74.92314 202.888021 
L 74.92314 203.726122 
L 75.19349 202.888021 
L 75.466844 202.888021 
L 75.466844 200.389048 
L 75.19349 202.05503 
L 74.92314 202.888021 
L 75.19349 202.888021 
L 75.19349 199.550947 
L 74.92314 197.884965 
L 74.376432 197.051974 
L 74.103077 197.051974 
L 74.376432 198.717956 
L 74.92314 200.389048 
L 75.466844 199.550947 
L 74.92314 200.389048 
L 74.376432 202.05503 
L 74.376432 202.888021 
L 73.832727 201.222039 
L 74.103077 200.389048 
L 75.19349 199.550947 
L 75.740198 200.389048 
L 75.466844 201.222039 
L 75.19349 201.222039 
L 74.92314 200.389048 
L 74.92314 202.05503 
L 75.19349 203.726122 
L 74.92314 205.392104 
L 74.649786 206.225095 
L 74.649786 202.888021 
L 74.376432 202.05503 
L 73.832727 202.05503 
L 73.832727 202.05503 
L 74.103077 202.888021 
L 74.103077 204.559113 
L 74.649786 204.559113 
L 74.376432 204.559113 
L 74.103077 203.726122 
L 74.649786 203.726122 
L 74.92314 202.888021 
L 75.19349 201.222039 
L 74.92314 201.222039 
L 74.103077 202.888021 
L 73.832727 205.392104 
L 74.103077 206.225095 
L 74.376432 205.392104 
L 74.376432 200.389048 
L 74.376432 201.222039 
L 74.92314 202.05503 
L 75.466844 202.05503 
L 75.466844 201.222039 
L 74.103077 201.222039 
L 74.376432 201.222039 
L 75.466844 199.550947 
L 75.466844 199.550947 
L 74.92314 201.222039 
L 74.649786 204.559113 
L 74.376432 205.392104 
L 74.92314 203.726122 
L 76.013552 202.05503 
L 76.557257 199.550947 
L 76.557257 197.051974 
L 76.283902 196.213873 
L 76.013552 197.051974 
L 75.740198 198.717956 
L 75.740198 200.389048 
L 75.19349 201.222039 
L 75.466844 202.05503 
L 75.466844 204.559113 
L 74.92314 205.392104 
L 74.649786 203.726122 
L 74.92314 202.05503 
L 75.466844 200.389048 
L 75.466844 199.550947 
L 74.649786 199.550947 
L 74.649786 201.222039 
L 75.466844 202.05503 
L 76.013552 202.05503 
L 75.740198 203.726122 
L 75.19349 205.392104 
L 74.92314 205.392104 
L 74.92314 203.726122 
L 75.19349 202.888021 
L 76.830611 204.559113 
L 76.830611 203.726122 
L 76.283902 202.05503 
L 74.92314 202.05503 
L 75.19349 201.222039 
L 75.19349 200.389048 
L 74.92314 199.550947 
L 74.649786 201.222039 
L 74.649786 202.888021 
L 74.92314 203.726122 
L 75.19349 202.888021 
L 75.19349 202.05503 
L 75.19349 202.05503 
L 75.466844 202.888021 
L 75.466844 202.05503 
L 74.92314 202.05503 
L 74.376432 202.888021 
L 74.376432 202.05503 
L 75.466844 201.222039 
L 75.740198 201.222039 
L 75.740198 200.389048 
L 75.19349 198.717956 
L 75.19349 197.884965 
L 74.649786 201.222039 
L 74.376432 202.05503 
L 74.103077 202.05503 
L 74.376432 201.222039 
L 75.19349 201.222039 
L 75.19349 202.888021 
L 75.466844 203.726122 
L 75.740198 203.726122 
L 75.19349 205.392104 
L 74.92314 205.392104 
L 74.649786 204.559113 
L 74.649786 203.726122 
L 74.92314 203.726122 
L 74.649786 205.392104 
L 74.649786 206.225095 
L 74.649786 202.888021 
L 74.92314 201.222039 
L 75.19349 200.389048 
L 74.649786 200.389048 
L 74.376432 201.222039 
L 74.376432 201.222039 
L 74.103077 200.389048 
L 74.103077 199.550947 
L 74.103077 200.389048 
L 73.832727 202.05503 
L 73.832727 203.726122 
L 74.103077 204.559113 
L 74.92314 204.559113 
L 74.376432 204.559113 
L 74.103077 203.726122 
L 73.832727 204.559113 
L 73.832727 205.392104 
L 74.376432 204.559113 
L 74.376432 204.559113 
L 74.649786 204.559113 
L 75.19349 205.392104 
L 75.19349 206.225095 
L 75.19349 206.225095 
L 74.649786 204.559113 
L 74.649786 204.559113 
L 74.649786 203.726122 
L 75.466844 203.726122 
L 76.013552 204.559113 
L 76.013552 205.392104 
L 75.740198 206.225095 
L 75.19349 204.559113 
L 74.649786 202.05503 
L 73.832727 201.222039 
L 73.832727 202.05503 
L 74.376432 204.559113 
L 75.466844 204.559113 
L 75.466844 203.726122 
L 75.19349 205.392104 
L 75.19349 207.896188 
L 76.013552 208.729179 
L 76.013552 207.896188 
L 75.466844 207.058086 
L 74.92314 205.392104 
L 75.466844 204.559113 
L 76.557257 204.559113 
L 77.100961 206.225095 
L 76.830611 207.896188 
L 76.283902 207.896188 
L 76.013552 204.559113 
L 76.283902 205.392104 
L 76.283902 206.225095 
L 76.013552 206.225095 
L 75.740198 207.896188 
L 75.740198 209.56217 
L 75.466844 210.395161 
L 74.92314 210.395161 
L 74.92314 210.395161 
L 74.103077 207.896188 
L 75.19349 207.896188 
L 75.466844 209.56217 
L 75.466844 209.56217 
L 75.740198 208.729179 
L 76.830611 208.729179 
L 76.557257 209.56217 
L 77.374315 209.56217 
L 79.55514 207.896188 
L 82.282673 203.726122 
L 85.007202 198.717956 
L 88.27844 193.7149 
L 91.823031 188.706733 
L 96.184681 183.703677 
L 107.088806 168.689398 
L 113.628277 159.511166 
L 120.990814 150.332934 
L 128.350347 141.992803 
L 135.436527 133.652673 
L 150.155593 114.463218 
L 157.78848 105.290096 
L 164.330955 95.278873 
L 171.146784 87.771734 
L 178.506318 82.763567 
L 185.592497 77.760511 
L 192.134972 72.752344 
L 198.133742 68.582279 
L 203.856155 64.412214 
L 209.308217 60.242149 
L 215.033634 57.738065 
L 219.668638 55.233982 
L 223.210225 53.568 
L 226.208109 53.568 
L 232.206879 58.571056 
L 234.931409 59.409158 
L 237.385588 59.409158 
L 239.022708 61.07514 
L 240.656825 64.412214 
L 242.020592 65.245205 
L 243.928062 64.412214 
L 246.108887 64.412214 
L 247.743004 65.245205 
L 249.106771 66.916297 
L 250.197183 71.919353 
L 251.287596 73.590446 
L 252.651362 75.256428 
L 254.015129 77.760511 
L 255.105541 81.097585 
L 254.558833 86.100642 
L 253.195067 91.941799 
L 251.56095 96.111864 
L 251.014242 100.28193 
L 251.014242 111.959135 
L 250.470537 116.13431 
L 246.108887 129.477497 
L 245.291829 132.814571 
L 244.471767 136.989747 
L 243.381354 141.159812 
L 241.747238 143.658785 
L 240.930179 146.162869 
L 241.200529 146.995859 
L 241.473883 146.995859 
L 241.200529 146.162869 
L 239.566413 153.670008 
L 239.022708 157.007082 
L 238.749354 159.511166 
L 238.749354 159.511166 
L 239.022708 158.678175 
L 239.293058 158.678175 
L 238.476 158.678175 
L 238.202646 157.840073 
L 238.476 158.678175 
L 238.476 164.514222 
L 238.202646 167.851296 
L 238.202646 169.522389 
L 237.658942 170.35538 
L 236.841883 169.522389 
L 235.751471 169.522389 
L 234.931409 172.026472 
L 235.204763 172.859463 
L 235.204763 173.692454 
L 234.661058 177.029528 
L 234.11435 177.862519 
L 234.11435 178.69551 
L 234.387704 180.366602 
L 235.204763 180.366602 
L 235.478117 181.199593 
L 234.661058 182.032584 
L 233.840996 183.703677 
L 232.750584 187.040751 
L 233.023938 187.040751 
L 233.023938 185.369659 
L 232.750584 186.20776 
L 232.750584 187.873742 
L 233.297292 192.043807 
L 233.023938 194.547891 
L 232.480233 195.380882 
L 232.206879 195.380882 
L 232.206879 195.380882 
L 232.206879 194.547891 
L 232.750584 191.210816 
L 232.480233 192.043807 
L 230.843113 199.550947 
L 231.389821 201.222039 
L 231.660171 202.888021 
L 231.389821 203.726122 
L 231.116467 202.888021 
L 230.569759 202.05503 
L 230.299408 200.389048 
L 228.935642 200.389048 
L 228.935642 207.896188 
L 228.935642 207.896188 
L 228.662288 207.896188 
L 228.662288 207.896188 
L 228.388934 209.56217 
L 228.935642 211.233262 
L 229.208996 211.233262 
L 229.208996 211.233262 
L 228.662288 212.066253 
L 228.118583 210.395161 
L 227.845229 210.395161 
L 227.571875 211.233262 
L 228.118583 214.570336 
L 229.208996 214.570336 
L 228.935642 216.236318 
L 227.845229 217.907411 
L 227.028171 218.740402 
L 227.298521 218.740402 
L 227.028171 217.907411 
L 226.481463 217.069309 
L 225.39105 217.069309 
L 225.117696 218.740402 
L 225.664404 219.573393 
L 225.937758 220.406384 
L 225.937758 220.406384 
L 225.664404 221.239375 
L 224.847346 221.239375 
L 224.847346 220.406384 
L 225.664404 220.406384 
L 226.208109 222.077476 
L 225.937758 221.239375 
L 225.39105 221.239375 
L 225.39105 226.247541 
L 225.117696 224.576449 
L 225.117696 222.910467 
L 224.847346 223.743458 
L 224.573992 225.41455 
L 224.573992 226.247541 
L 224.573992 226.247541 
L 224.300638 227.913523 
L 224.027284 228.751624 
L 224.300638 227.913523 
L 224.300638 227.080532 
L 224.300638 228.751624 
L 224.027284 229.584615 
L 223.756934 229.584615 
L 223.483579 227.913523 
L 222.939875 227.080532 
L 222.119813 227.080532 
L 220.75905 229.584615 
L 219.12193 231.250597 
L 218.031517 230.417606 
L 216.66775 228.751624 
L 214.486926 230.417606 
L 211.489042 232.92169 
L 209.034863 234.587672 
L 206.857042 234.587672 
L 204.129509 236.258764 
L 200.858271 236.258764 
L 197.587034 234.587672 
L 195.406209 234.587672 
L 193.498738 236.258764 
L 191.044559 238.757737 
L 188.32003 241.26182 
L 186.412559 244.598895 
L 185.048792 246.269987 
L 184.231734 246.269987 
L 183.685026 245.431886 
L 183.141322 245.431886 
L 182.594613 244.598895 
L 181.504201 245.431886 
L 181.504201 246.269987 
L 181.777555 248.76896 
L 181.777555 250.440052 
L 182.321259 251.273043 
L 183.141322 250.440052 
L 183.95838 250.440052 
L 184.231734 251.273043 
L 184.502084 252.939025 
L 184.502084 252.939025 
L 184.775438 252.939025 
L 185.048792 254.610117 
L 185.322147 255.443108 
L 184.775438 256.276099 
L 183.95838 257.947192 
L 183.411672 259.613174 
L 182.867967 259.613174 
L 182.867967 258.780183 
L 182.594613 257.947192 
L 182.594613 262.950248 
L 182.321259 263.788349 
L 182.321259 263.788349 
L 182.867967 264.62134 
L 182.867967 265.454331 
L 182.321259 265.454331 
L 181.777555 266.287322 
L 181.777555 266.287322 
L 181.777555 264.62134 
L 181.504201 263.788349 
L 181.230847 263.788349 
L 183.141322 263.788349 
L 182.867967 265.454331 
L 180.960497 265.454331 
L 181.504201 266.287322 
L 182.321259 268.791406 
L 181.777555 267.958415 
L 180.960497 267.958415 
L 180.687143 267.120313 
L 180.413788 265.454331 
L 180.687143 266.287322 
L 181.230847 267.120313 
L 181.777555 263.788349 
L 181.230847 262.950248 
L 180.960497 263.788349 
L 180.960497 266.287322 
L 181.230847 267.120313 
L 181.230847 267.120313 
L 180.413788 265.454331 
L 180.413788 267.958415 
L 180.140434 271.295489 
L 180.413788 271.295489 
L 180.960497 270.457388 
L 181.230847 268.791406 
L 181.230847 268.791406 
L 180.687143 273.794462 
L 180.413788 274.632563 
L 180.140434 273.794462 
L 180.687143 270.457388 
L 181.230847 268.791406 
L 180.960497 269.624397 
L 180.140434 271.295489 
L 179.870084 271.295489 
L 180.413788 271.295489 
L 180.687143 272.12848 
L 180.687143 277.131536 
L 180.687143 273.794462 
L 181.504201 270.457388 
L 180.960497 272.12848 
L 180.960497 269.624397 
L 180.960497 271.295489 
L 181.230847 272.961471 
L 181.504201 275.465554 
L 180.140434 275.465554 
L 179.59673 276.298545 
L 179.323376 276.298545 
L 179.323376 276.298545 
L 179.59673 275.465554 
L 180.413788 273.794462 
L 180.687143 272.961471 
L 180.687143 273.794462 
L 180.413788 273.794462 
L 180.140434 274.632563 
L 179.59673 272.961471 
L 179.59673 272.12848 
L 179.870084 273.794462 
L 179.323376 276.298545 
L 178.506318 277.131536 
L 178.506318 276.298545 
L 178.779672 274.632563 
L 178.779672 273.794462 
L 179.050022 271.295489 
L 179.59673 269.624397 
L 180.413788 269.624397 
L 180.960497 271.295489 
L 180.687143 273.794462 
L 180.140434 275.465554 
L 179.870084 274.632563 
L 179.59673 274.632563 
L 179.323376 276.298545 
L 179.050022 277.131536 
L 179.59673 277.969638 
L 180.413788 277.969638 
L 180.687143 276.298545 
L 180.413788 275.465554 
L 179.870084 276.298545 
L 179.59673 277.969638 
L 179.59673 278.802629 
L 179.59673 277.131536 
L 179.870084 274.632563 
L 180.413788 274.632563 
L 180.140434 275.465554 
L 179.59673 274.632563 
L 179.870084 273.794462 
L 180.413788 274.632563 
L 181.230847 275.465554 
L 182.594613 275.465554 
L 185.048792 273.794462 
L 188.32003 272.12848 
L 191.317913 267.120313 
L 194.589151 261.284266 
L 198.677446 257.114201 
L 204.129509 252.939025 
L 209.854925 247.102978 
L 215.850692 238.757737 
L 222.119813 232.088699 
L 235.751471 218.740402 
L 243.381354 212.066253 
L 251.834304 203.726122 
L 269.824608 183.703677 
L 278.818258 175.358436 
L 288.36162 167.018305 
L 297.081916 158.678175 
L 304.988157 150.332934 
L 319.707224 131.148589 
L 327.340111 122.808459 
L 334.429294 116.967301 
L 340.968765 111.959135 
L 347.24089 109.460162 
L 352.692952 108.627171 
L 357.871661 106.123087 
L 363.050369 101.953022 
L 368.775786 97.777846 
L 374.224844 95.278873 
L 378.859848 89.437716 
L 383.221498 84.43466 
L 387.03644 81.930576 
L 389.763973 82.763567 
L 391.671444 85.267651 
L 393.852269 86.933633 
L 396.033094 86.100642 
L 397.670214 86.100642 
L 398.487273 88.604725 
L 398.487273 91.108808 
L 395.489389 96.111864 
L 393.03521 101.114921 
L 392.488502 101.953022 
L 391.944798 103.619004 
L 390.854385 104.451995 
L 389.490619 106.956078 
L 388.400206 107.789069 
L 388.400206 107.789069 
L 388.400206 104.451995 
L 388.400206 105.290096 
L 388.946915 106.123087 
L 389.217265 106.956078 
L 389.217265 105.290096 
L 390.854385 105.290096 
L 389.490619 105.290096 
L 389.217265 103.619004 
L 389.217265 102.786013 
L 389.490619 103.619004 
L 389.217265 103.619004 
L 388.946915 102.786013 
L 388.400206 101.953022 
L 387.856502 101.953022 
L 387.856502 101.953022 
L 387.583148 104.451995 
L 386.76609 107.789069 
L 385.949031 110.293153 
L 385.675677 110.293153 
L 386.219381 109.460162 
L 386.76609 107.789069 
L 386.492735 107.789069 
L 386.219381 110.293153 
L 385.675677 112.797236 
L 385.949031 114.463218 
L 386.219381 114.463218 
L 385.949031 112.797236 
L 385.949031 111.959135 
L 385.949031 112.797236 
L 386.219381 113.630227 
L 386.219381 113.630227 
L 386.492735 113.630227 
L 386.219381 112.797236 
L 385.949031 111.126144 
L 385.949031 111.126144 
L 385.949031 112.797236 
L 386.492735 120.304376 
L 386.219381 118.633283 
L 384.858619 116.13431 
L 384.858619 118.633283 
L 384.585265 119.471385 
L 384.585265 119.471385 
L 385.402323 119.471385 
L 385.675677 118.633283 
L 385.675677 117.800292 
L 384.585265 119.471385 
L 384.038556 118.633283 
L 383.768206 117.800292 
L 384.038556 117.800292 
L 384.31191 118.633283 
L 384.585265 120.304376 
L 384.585265 123.64145 
L 384.858619 123.64145 
L 384.858619 122.808459 
L 384.585265 121.137366 
L 384.585265 121.970357 
L 385.128969 122.808459 
L 385.402323 123.64145 
L 384.858619 122.808459 
L 384.585265 121.137366 
L 384.585265 121.137366 
L 383.768206 121.137366 
L 383.494852 120.304376 
L 383.768206 121.970357 
L 384.585265 123.64145 
L 384.585265 123.64145 
L 384.585265 124.474441 
L 384.038556 126.145533 
L 382.948144 126.978524 
L 382.677794 126.145533 
L 382.948144 124.474441 
L 383.494852 124.474441 
L 383.494852 126.145533 
L 384.038556 126.145533 
L 384.038556 125.307432 
L 383.768206 124.474441 
L 384.038556 123.64145 
L 384.31191 124.474441 
L 384.585265 126.145533 
L 384.31191 127.811515 
L 383.768206 128.644506 
L 383.494852 126.978524 
L 383.768206 125.307432 
L 384.31191 126.145533 
L 384.31191 127.811515 
L 383.768206 127.811515 
L 383.494852 128.644506 
L 383.494852 129.477497 
L 383.494852 129.477497 
L 383.768206 129.477497 
L 383.494852 130.315598 
L 383.494852 131.98158 
L 383.494852 130.315598 
L 383.221498 129.477497 
L 382.948144 129.477497 
L 382.677794 130.315598 
L 382.948144 131.148589 
L 383.494852 130.315598 
L 383.768206 129.477497 
L 383.768206 130.315598 
L 382.948144 129.477497 
L 382.677794 127.811515 
L 382.948144 127.811515 
L 382.948144 128.644506 
L 382.40444 130.315598 
L 382.131086 131.98158 
L 382.677794 133.652673 
L 382.677794 134.485664 
L 382.677794 134.485664 
L 382.40444 134.485664 
L 382.40444 134.485664 
L 382.677794 135.318655 
L 382.677794 136.151646 
L 382.131086 134.485664 
L 381.587381 133.652673 
L 381.587381 132.814571 
L 381.857731 134.485664 
L 381.587381 136.989747 
L 380.767319 137.822738 
L 379.950261 133.652673 
L 379.950261 133.652673 
L 380.767319 133.652673 
L 381.040673 135.318655 
L 380.223615 136.989747 
L 379.676906 136.989747 
L 379.676906 135.318655 
L 380.496969 135.318655 
L 381.040673 136.151646 
L 381.587381 137.822738 
L 381.040673 139.48872 
L 379.950261 137.822738 
L 379.676906 136.989747 
L 379.676906 135.318655 
L 379.950261 134.485664 
L 380.496969 133.652673 
L 381.040673 135.318655 
L 380.496969 136.989747 
L 379.950261 139.48872 
L 379.950261 140.326821 
L 379.676906 139.48872 
L 379.133202 138.655729 
L 378.859848 137.822738 
L 379.133202 138.655729 
L 379.676906 137.822738 
L 379.950261 136.151646 
L 379.676906 134.485664 
L 379.406556 134.485664 
L 378.586494 138.655729 
L 378.586494 141.159812 
L 378.316144 143.658785 
L 378.586494 145.329878 
L 378.586494 141.992803 
L 378.586494 142.825794 
L 378.859848 141.992803 
L 378.859848 138.655729 
L 378.859848 140.326821 
L 379.406556 146.162869 
L 378.859848 144.496887 
L 378.586494 142.825794 
L 378.586494 143.658785 
L 379.133202 145.329878 
L 378.586494 148.666952 
L 378.316144 148.666952 
L 377.769436 146.995859 
L 377.225731 146.162869 
L 377.496082 146.162869 
L 377.496082 144.496887 
L 376.952377 143.658785 
L 376.952377 144.496887 
L 378.04279 144.496887 
L 378.04279 145.329878 
L 377.496082 146.162869 
L 377.496082 147.833961 
L 377.769436 147.833961 
L 377.769436 147.833961 
L 378.04279 148.666952 
L 378.04279 148.666952 
L 377.769436 146.995859 
L 377.496082 146.162869 
L 377.496082 145.329878 
L 377.769436 143.658785 
L 378.316144 144.496887 
L 379.133202 146.162869 
L 378.859848 147.833961 
L 378.04279 149.499943 
L 378.04279 150.332934 
L 378.586494 147.833961 
L 378.316144 146.995859 
L 378.04279 147.833961 
L 378.316144 148.666952 
L 378.859848 148.666952 
L 378.859848 148.666952 
L 378.586494 149.499943 
L 378.04279 150.332934 
L 377.225731 150.332934 
L 377.225731 149.499943 
L 377.496082 149.499943 
L 377.769436 148.666952 
L 378.316144 148.666952 
L 378.859848 146.995859 
L 378.859848 148.666952 
L 378.586494 150.332934 
L 377.496082 150.332934 
L 377.225731 149.499943 
L 377.225731 151.171035 
L 377.225731 151.171035 
L 377.496082 152.837017 
L 377.496082 153.670008 
L 377.225731 152.837017 
L 376.679023 152.004026 
L 376.679023 151.171035 
L 377.225731 150.332934 
L 376.952377 151.171035 
L 376.405669 152.004026 
L 376.679023 152.837017 
L 377.496082 152.004026 
L 377.769436 149.499943 
L 377.496082 148.666952 
L 376.952377 147.833961 
L 376.679023 148.666952 
L 376.952377 149.499943 
L 376.679023 150.332934 
L 376.952377 151.171035 
L 376.952377 150.332934 
L 376.405669 146.995859 
L 376.405669 149.499943 
L 375.861965 148.666952 
L 375.315257 148.666952 
L 375.315257 149.499943 
L 375.861965 150.332934 
L 376.135319 149.499943 
L 375.861965 147.833961 
L 375.588611 146.995859 
L 375.861965 148.666952 
L 375.861965 150.332934 
L 375.588611 150.332934 
L 375.588611 149.499943 
L 375.861965 147.833961 
L 375.588611 146.995859 
L 375.044906 146.995859 
L 375.044906 148.666952 
L 375.588611 150.332934 
L 376.135319 150.332934 
L 375.588611 149.499943 
L 375.315257 149.499943 
L 375.315257 149.499943 
L 375.044906 150.332934 
L 373.954494 152.004026 
L 373.954494 152.004026 
L 374.771552 152.837017 
L 375.044906 152.837017 
L 374.771552 151.171035 
L 374.498198 151.171035 
L 374.224844 152.004026 
L 373.68114 152.837017 
L 372.317373 153.670008 
L 370.953607 153.670008 
L 369.31949 152.837017 
L 367.412019 152.004026 
L 358.415365 152.004026 
L 354.870774 151.171035 
L 350.782478 149.499943 
L 345.877123 148.666952 
L 336.610119 148.666952 
L 331.975115 149.499943 
L 326.796407 149.499943 
L 314.80187 151.171035 
L 308.532749 152.837017 
L 301.990274 157.840073 
L 294.901091 162.015249 
L 287.814912 163.681231 
L 280.999083 164.514222 
L 273.63955 167.018305 
L 266.280016 173.692454 
L 259.464187 179.533611 
L 252.924716 182.870686 
L 246.108887 184.536668 
L 239.839767 185.369659 
L 233.840996 188.706733 
L 228.388934 192.043807 
L 222.939875 194.547891 
L 217.758163 197.884965 
L 212.852809 200.389048 
L 208.217805 202.888021 
L 203.856155 206.225095 
L 200.314567 209.56217 
L 197.31368 212.899244 
L 195.132855 216.236318 
L 193.498738 219.573393 
L 192.408326 221.239375 
L 191.591267 221.239375 
L 190.774209 222.910467 
L 190.227501 225.41455 
L 190.774209 227.913523 
L 191.317913 227.080532 
L 195.952917 227.080532 
L 196.223267 226.247541 
L 196.769976 225.41455 
L 197.587034 229.584615 
L 197.31368 227.913523 
L 197.31368 226.247541 
L 197.587034 227.080532 
L 197.587034 228.751624 
L 197.587034 228.751624 
L 197.31368 228.751624 
L 196.769976 229.584615 
L 195.952917 231.250597 
L 195.406209 230.417606 
L 195.406209 229.584615 
L 195.132855 230.417606 
L 195.132855 236.258764 
L 194.589151 237.091755 
L 193.498738 237.924746 
L 193.225384 237.924746 
L 193.772092 238.757737 
L 193.772092 241.26182 
L 193.498738 242.094811 
L 194.315797 239.595838 
L 194.589151 240.428829 
L 194.862505 242.094811 
L 195.132855 242.094811 
L 195.132855 240.428829 
L 194.315797 240.428829 
L 193.772092 241.26182 
L 192.408326 241.26182 
L 192.134972 242.094811 
L 192.95203 243.765904 
L 194.042442 246.269987 
L 194.042442 247.935969 
L 193.225384 247.102978 
L 191.861618 245.431886 
L 191.044559 246.269987 
L 190.774209 248.76896 
L 191.044559 248.76896 
L 191.317913 247.102978 
L 191.317913 245.431886 
L 191.044559 245.431886 
L 191.317913 246.269987 
L 191.861618 247.102978 
L 192.134972 248.76896 
L 192.134972 248.76896 
L 191.317913 248.76896 
L 191.044559 249.607061 
L 190.774209 249.607061 
L 190.774209 250.440052 
L 191.317913 252.106034 
L 191.591267 253.777127 
L 191.044559 254.610117 
L 190.227501 253.777127 
L 189.683796 252.939025 
L 189.683796 251.273043 
L 189.954147 250.440052 
L 189.954147 252.939025 
L 189.683796 256.276099 
L 189.683796 257.947192 
L 189.683796 256.276099 
L 188.863734 254.610117 
L 188.593384 254.610117 
L 188.593384 255.443108 
L 189.137088 254.610117 
L 189.137088 253.777127 
L 189.137088 253.777127 
L 188.863734 254.610117 
L 189.137088 256.276099 
L 189.137088 257.114201 
L 189.137088 257.114201 
L 189.410442 258.780183 
L 189.410442 259.613174 
L 188.863734 259.613174 
L 188.32003 258.780183 
L 188.046676 260.451275 
L 188.046676 262.117257 
L 188.32003 262.117257 
L 188.863734 258.780183 
L 188.863734 257.114201 
L 188.863734 258.780183 
L 188.32003 263.788349 
L 188.32003 263.788349 
L 188.046676 262.950248 
L 187.773322 262.950248 
L 187.773322 262.950248 
L 188.32003 263.788349 
L 188.863734 263.788349 
L 188.593384 264.62134 
L 188.593384 263.788349 
L 188.046676 262.950248 
L 187.229617 262.950248 
L 186.682909 263.788349 
L 186.682909 264.62134 
L 187.229617 265.454331 
L 187.502971 266.287322 
L 187.773322 266.287322 
L 187.229617 266.287322 
L 187.229617 265.454331 
L 187.229617 265.454331 
L 187.502971 263.788349 
L 187.502971 263.788349 
L 187.773322 264.62134 
L 188.046676 266.287322 
L 187.773322 267.120313 
L 187.502971 267.120313 
L 186.412559 270.457388 
L 186.682909 268.791406 
L 186.956263 267.958415 
L 186.956263 267.958415 
L 187.229617 268.791406 
L 187.502971 268.791406 
L 187.502971 269.624397 
L 187.229617 270.457388 
L 187.229617 271.295489 
L 187.229617 271.295489 
L 187.502971 272.12848 
L 187.229617 272.12848 
L 187.229617 271.295489 
L 187.502971 270.457388 
L 187.229617 272.12848 
L 187.229617 273.794462 
L 187.773322 276.298545 
L 188.046676 276.298545 
L 187.502971 275.465554 
L 186.956263 273.794462 
L 186.412559 275.465554 
L 186.412559 274.632563 
L 186.682909 274.632563 
L 186.682909 276.298545 
L 186.412559 277.131536 
L 186.682909 275.465554 
L 186.956263 274.632563 
L 187.229617 276.298545 
L 186.956263 276.298545 
L 186.412559 275.465554 
L 186.139205 276.298545 
L 185.865851 277.969638 
L 185.865851 277.969638 
L 186.412559 277.131536 
L 186.682909 276.298545 
L 186.682909 275.465554 
L 186.412559 275.465554 
L 186.412559 276.298545 
L 186.139205 277.131536 
L 185.592497 277.131536 
L 185.592497 277.131536 
L 185.865851 276.298545 
L 186.682909 276.298545 
L 186.956263 277.131536 
L 186.682909 277.131536 
L 186.412559 275.465554 
L 186.412559 274.632563 
L 186.139205 275.465554 
L 185.592497 276.298545 
L 185.322147 276.298545 
L 185.592497 276.298545 
L 185.322147 277.131536 
L 184.775438 277.969638 
L 183.95838 279.63562 
L 183.95838 277.969638 
L 184.502084 274.632563 
L 185.322147 273.794462 
L 185.322147 274.632563 
L 184.775438 277.131536 
L 184.775438 280.46861 
L 184.502084 278.802629 
L 184.502084 277.969638 
L 184.231734 278.802629 
L 183.95838 280.46861 
L 183.411672 282.139703 
L 183.411672 282.972694 
L 183.685026 281.306712 
L 184.231734 279.63562 
L 184.502084 279.63562 
L 184.775438 280.46861 
L 185.048792 280.46861 
L 185.048792 281.306712 
L 184.775438 281.306712 
L 184.502084 280.46861 
L 184.231734 280.46861 
L 183.95838 281.306712 
L 183.95838 282.139703 
L 184.231734 282.139703 
L 184.502084 281.306712 
L 184.231734 281.306712 
L 183.95838 280.46861 
L 183.95838 279.63562 
L 183.685026 279.63562 
L 183.411672 281.306712 
L 183.141322 283.805685 
L 183.95838 284.638676 
L 184.502084 283.805685 
L 184.502084 283.805685 
L 183.95838 282.972694 
L 183.685026 282.139703 
L 184.231734 282.972694 
L 184.775438 282.972694 
L 184.502084 282.972694 
L 184.231734 284.638676 
L 184.231734 285.476777 
L 183.95838 284.638676 
L 183.411672 283.805685 
L 183.141322 282.972694 
L 183.411672 283.805685 
L 183.411672 284.638676 
L 183.141322 284.638676 
L 183.141322 284.638676 
L 183.411672 285.476777 
L 183.685026 285.476777 
L 183.685026 282.139703 
L 183.141322 280.46861 
L 182.594613 282.972694 
L 182.594613 287.142759 
L 182.321259 287.142759 
L 182.594613 285.476777 
L 182.867967 285.476777 
L 183.141322 286.309768 
L 183.141322 284.638676 
L 183.411672 283.805685 
L 183.411672 283.805685 
L 183.411672 286.309768 
L 183.95838 287.142759 
L 184.231734 287.97575 
L 183.141322 286.309768 
L 183.411672 285.476777 
L 183.411672 286.309768 
L 183.141322 288.813851 
L 183.411672 288.813851 
L 183.411672 287.142759 
L 183.411672 287.142759 
L 184.231734 289.646842 
L 184.231734 288.813851 
L 184.502084 287.97575 
L 184.502084 285.476777 
L 184.231734 287.142759 
L 183.685026 288.813851 
L 183.141322 291.312824 
L 183.141322 292.150926 
L 183.411672 292.150926 
L 183.411672 291.312824 
L 182.594613 290.479833 
L 182.321259 289.646842 
L 182.321259 288.813851 
L 182.867967 287.97575 
L 183.141322 287.97575 
L 183.141322 289.646842 
L 182.867967 289.646842 
L 182.594613 287.97575 
L 182.050909 287.142759 
L 182.050909 288.813851 
L 182.594613 290.479833 
L 183.141322 290.479833 
L 183.411672 289.646842 
L 183.141322 287.97575 
L 182.867967 287.97575 
L 182.321259 288.813851 
L 182.050909 290.479833 
L 182.321259 290.479833 
L 182.594613 291.312824 
L 182.594613 291.312824 
L 183.141322 291.312824 
L 183.141322 291.312824 
L 182.867967 292.150926 
L 182.594613 292.150926 
L 182.594613 292.150926 
L 182.321259 291.312824 
L 181.777555 290.479833 
L 181.504201 290.479833 
L 181.777555 288.813851 
L 182.050909 287.97575 
L 181.777555 288.813851 
L 181.230847 289.646842 
L 180.687143 289.646842 
L 180.687143 290.479833 
L 180.960497 291.312824 
L 181.504201 290.479833 
L 182.321259 290.479833 
L 182.594613 289.646842 
L 182.321259 290.479833 
L 182.050909 292.983917 
L 182.321259 295.488 
L 182.321259 294.649899 
L 181.504201 292.983917 
L 180.960497 290.479833 
L 181.230847 289.646842 
L 183.141322 289.646842 
L 183.141322 289.646842 
L 182.594613 290.479833 
L 182.050909 292.150926 
L 182.050909 292.983917 
L 181.777555 291.312824 
L 181.777555 288.813851 
L 182.050909 287.97575 
L 182.321259 288.813851 
L 182.321259 291.312824 
L 182.594613 292.150926 
L 182.867967 291.312824 
L 182.867967 291.312824 
" style="fill:none;stroke:#1f77b4;stroke-linecap:square;stroke-width:1.5;"/>
   </g>
   <g id="matplotlib.axis_1">
    <g id="xtick_1">
     <g id="line2d_2">
      <defs>
       <path d="M 0 0 
L 0 3.5 
" id="m02f26c83ca" style="stroke:#000000;stroke-width:0.8;"/>
      </defs>
      <g>
       <use style="stroke:#000000;stroke-width:0.8;" x="111.65472" xlink:href="#m02f26c83ca" y="307.584"/>
      </g>
     </g>
     <g id="text_1">
      <!-- −600 -->
      <defs>
       <path d="M 10.59375 35.5 
L 73.1875 35.5 
L 73.1875 27.203125 
L 10.59375 27.203125 
z
" id="DejaVuSans-8722"/>
       <path d="M 33.015625 40.375 
Q 26.375 40.375 22.484375 35.828125 
Q 18.609375 31.296875 18.609375 23.390625 
Q 18.609375 15.53125 22.484375 10.953125 
Q 26.375 6.390625 33.015625 6.390625 
Q 39.65625 6.390625 43.53125 10.953125 
Q 47.40625 15.53125 47.40625 23.390625 
Q 47.40625 31.296875 43.53125 35.828125 
Q 39.65625 40.375 33.015625 40.375 
z
M 52.59375 71.296875 
L 52.59375 62.3125 
Q 48.875 64.0625 45.09375 64.984375 
Q 41.3125 65.921875 37.59375 65.921875 
Q 27.828125 65.921875 22.671875 59.328125 
Q 17.53125 52.734375 16.796875 39.40625 
Q 19.671875 43.65625 24.015625 45.921875 
Q 28.375 48.1875 33.59375 48.1875 
Q 44.578125 48.1875 50.953125 41.515625 
Q 57.328125 34.859375 57.328125 23.390625 
Q 57.328125 12.15625 50.6875 5.359375 
Q 44.046875 -1.421875 33.015625 -1.421875 
Q 20.359375 -1.421875 13.671875 8.265625 
Q 6.984375 17.96875 6.984375 36.375 
Q 6.984375 53.65625 15.1875 63.9375 
Q 23.390625 74.21875 37.203125 74.21875 
Q 40.921875 74.21875 44.703125 73.484375 
Q 48.484375 72.75 52.59375 71.296875 
z
" id="DejaVuSans-54"/>
       <path d="M 31.78125 66.40625 
Q 24.171875 66.40625 20.328125 58.90625 
Q 16.5 51.421875 16.5 36.375 
Q 16.5 21.390625 20.328125 13.890625 
Q 24.171875 6.390625 31.78125 6.390625 
Q 39.453125 6.390625 43.28125 13.890625 
Q 47.125 21.390625 47.125 36.375 
Q 47.125 51.421875 43.28125 58.90625 
Q 39.453125 66.40625 31.78125 66.40625 
z
M 31.78125 74.21875 
Q 44.046875 74.21875 50.515625 64.515625 
Q 56.984375 54.828125 56.984375 36.375 
Q 56.984375 17.96875 50.515625 8.265625 
Q 44.046875 -1.421875 31.78125 -1.421875 
Q 19.53125 -1.421875 13.0625 8.265625 
Q 6.59375 17.96875 6.59375 36.375 
Q 6.59375 54.828125 13.0625 64.515625 
Q 19.53125 74.21875 31.78125 74.21875 
z
" id="DejaVuSans-48"/>
      </defs>
      <g transform="translate(97.921127 322.182437)scale(0.1 -0.1)">
       <use xlink:href="#DejaVuSans-8722"/>
       <use x="83.789062" xlink:href="#DejaVuSans-54"/>
       <use x="147.412109" xlink:href="#DejaVuSans-48"/>
       <use x="211.035156" xlink:href="#DejaVuSans-48"/>
      </g>
     </g>
    </g>
    <g id="xtick_2">
     <g id="line2d_3">
      <g>
       <use style="stroke:#000000;stroke-width:0.8;" x="171.732543" xlink:href="#m02f26c83ca" y="307.584"/>
      </g>
     </g>
     <g id="text_2">
      <!-- −400 -->
      <defs>
       <path d="M 37.796875 64.3125 
L 12.890625 25.390625 
L 37.796875 25.390625 
z
M 35.203125 72.90625 
L 47.609375 72.90625 
L 47.609375 25.390625 
L 58.015625 25.390625 
L 58.015625 17.1875 
L 47.609375 17.1875 
L 47.609375 0 
L 37.796875 0 
L 37.796875 17.1875 
L 4.890625 17.1875 
L 4.890625 26.703125 
z
" id="DejaVuSans-52"/>
      </defs>
      <g transform="translate(157.998949 322.182437)scale(0.1 -0.1)">
       <use xlink:href="#DejaVuSans-8722"/>
       <use x="83.789062" xlink:href="#DejaVuSans-52"/>
       <use x="147.412109" xlink:href="#DejaVuSans-48"/>
       <use x="211.035156" xlink:href="#DejaVuSans-48"/>
      </g>
     </g>
    </g>
    <g id="xtick_3">
     <g id="line2d_4">
      <g>
       <use style="stroke:#000000;stroke-width:0.8;" x="231.810366" xlink:href="#m02f26c83ca" y="307.584"/>
      </g>
     </g>
     <g id="text_3">
      <!-- −200 -->
      <defs>
       <path d="M 19.1875 8.296875 
L 53.609375 8.296875 
L 53.609375 0 
L 7.328125 0 
L 7.328125 8.296875 
Q 12.9375 14.109375 22.625 23.890625 
Q 32.328125 33.6875 34.8125 36.53125 
Q 39.546875 41.84375 41.421875 45.53125 
Q 43.3125 49.21875 43.3125 52.78125 
Q 43.3125 58.59375 39.234375 62.25 
Q 35.15625 65.921875 28.609375 65.921875 
Q 23.96875 65.921875 18.8125 64.3125 
Q 13.671875 62.703125 7.8125 59.421875 
L 7.8125 69.390625 
Q 13.765625 71.78125 18.9375 73 
Q 24.125 74.21875 28.421875 74.21875 
Q 39.75 74.21875 46.484375 68.546875 
Q 53.21875 62.890625 53.21875 53.421875 
Q 53.21875 48.921875 51.53125 44.890625 
Q 49.859375 40.875 45.40625 35.40625 
Q 44.1875 33.984375 37.640625 27.21875 
Q 31.109375 20.453125 19.1875 8.296875 
z
" id="DejaVuSans-50"/>
      </defs>
      <g transform="translate(218.076772 322.182437)scale(0.1 -0.1)">
       <use xlink:href="#DejaVuSans-8722"/>
       <use x="83.789062" xlink:href="#DejaVuSans-50"/>
       <use x="147.412109" xlink:href="#DejaVuSans-48"/>
       <use x="211.035156" xlink:href="#DejaVuSans-48"/>
      </g>
     </g>
    </g>
    <g id="xtick_4">
     <g id="line2d_5">
      <g>
       <use style="stroke:#000000;stroke-width:0.8;" x="291.888188" xlink:href="#m02f26c83ca" y="307.584"/>
      </g>
     </g>
     <g id="text_4">
      <!-- 0 -->
      <g transform="translate(288.706938 322.182437)scale(0.1 -0.1)">
       <use xlink:href="#DejaVuSans-48"/>
      </g>
     </g>
    </g>
    <g id="xtick_5">
     <g id="line2d_6">
      <g>
       <use style="stroke:#000000;stroke-width:0.8;" x="351.966011" xlink:href="#m02f26c83ca" y="307.584"/>
      </g>
     </g>
     <g id="text_5">
      <!-- 200 -->
      <g transform="translate(342.422261 322.182437)scale(0.1 -0.1)">
       <use xlink:href="#DejaVuSans-50"/>
       <use x="63.623047" xlink:href="#DejaVuSans-48"/>
       <use x="127.246094" xlink:href="#DejaVuSans-48"/>
      </g>
     </g>
    </g>
    <g id="xtick_6">
     <g id="line2d_7">
      <g>
       <use style="stroke:#000000;stroke-width:0.8;" x="412.043833" xlink:href="#m02f26c83ca" y="307.584"/>
      </g>
     </g>
     <g id="text_6">
      <!-- 400 -->
      <g transform="translate(402.500083 322.182437)scale(0.1 -0.1)">
       <use xlink:href="#DejaVuSans-52"/>
       <use x="63.623047" xlink:href="#DejaVuSans-48"/>
       <use x="127.246094" xlink:href="#DejaVuSans-48"/>
      </g>
     </g>
    </g>
   </g>
   <g id="matplotlib.axis_2">
    <g id="ytick_1">
     <g id="line2d_8">
      <defs>
       <path d="M 0 0 
L -3.5 0 
" id="m131f59ec9d" style="stroke:#000000;stroke-width:0.8;"/>
      </defs>
      <g>
       <use style="stroke:#000000;stroke-width:0.8;" x="57.6" xlink:href="#m131f59ec9d" y="270.677134"/>
      </g>
     </g>
     <g id="text_7">
      <!-- −100 -->
      <defs>
       <path d="M 12.40625 8.296875 
L 28.515625 8.296875 
L 28.515625 63.921875 
L 10.984375 60.40625 
L 10.984375 69.390625 
L 28.421875 72.90625 
L 38.28125 72.90625 
L 38.28125 8.296875 
L 54.390625 8.296875 
L 54.390625 0 
L 12.40625 0 
z
" id="DejaVuSans-49"/>
      </defs>
      <g transform="translate(23.132812 274.476352)scale(0.1 -0.1)">
       <use xlink:href="#DejaVuSans-8722"/>
       <use x="83.789062" xlink:href="#DejaVuSans-49"/>
       <use x="147.412109" xlink:href="#DejaVuSans-48"/>
       <use x="211.035156" xlink:href="#DejaVuSans-48"/>
      </g>
     </g>
    </g>
    <g id="ytick_2">
     <g id="line2d_9">
      <g>
       <use style="stroke:#000000;stroke-width:0.8;" x="57.6" xlink:href="#m131f59ec9d" y="219.573393"/>
      </g>
     </g>
     <g id="text_8">
      <!-- 0 -->
      <g transform="translate(44.2375 223.372611)scale(0.1 -0.1)">
       <use xlink:href="#DejaVuSans-48"/>
      </g>
     </g>
    </g>
    <g id="ytick_3">
     <g id="line2d_10">
      <g>
       <use style="stroke:#000000;stroke-width:0.8;" x="57.6" xlink:href="#m131f59ec9d" y="168.469651"/>
      </g>
     </g>
     <g id="text_9">
      <!-- 100 -->
      <g transform="translate(31.5125 172.26887)scale(0.1 -0.1)">
       <use xlink:href="#DejaVuSans-49"/>
       <use x="63.623047" xlink:href="#DejaVuSans-48"/>
       <use x="127.246094" xlink:href="#DejaVuSans-48"/>
      </g>
     </g>
    </g>
    <g id="ytick_4">
     <g id="line2d_11">
      <g>
       <use style="stroke:#000000;stroke-width:0.8;" x="57.6" xlink:href="#m131f59ec9d" y="117.36591"/>
      </g>
     </g>
     <g id="text_10">
      <!-- 200 -->
      <g transform="translate(31.5125 121.165129)scale(0.1 -0.1)">
       <use xlink:href="#DejaVuSans-50"/>
       <use x="63.623047" xlink:href="#DejaVuSans-48"/>
       <use x="127.246094" xlink:href="#DejaVuSans-48"/>
      </g>
     </g>
    </g>
    <g id="ytick_5">
     <g id="line2d_12">
      <g>
       <use style="stroke:#000000;stroke-width:0.8;" x="57.6" xlink:href="#m131f59ec9d" y="66.262169"/>
      </g>
     </g>
     <g id="text_11">
      <!-- 300 -->
      <defs>
       <path d="M 40.578125 39.3125 
Q 47.65625 37.796875 51.625 33 
Q 55.609375 28.21875 55.609375 21.1875 
Q 55.609375 10.40625 48.1875 4.484375 
Q 40.765625 -1.421875 27.09375 -1.421875 
Q 22.515625 -1.421875 17.65625 -0.515625 
Q 12.796875 0.390625 7.625 2.203125 
L 7.625 11.71875 
Q 11.71875 9.328125 16.59375 8.109375 
Q 21.484375 6.890625 26.8125 6.890625 
Q 36.078125 6.890625 40.9375 10.546875 
Q 45.796875 14.203125 45.796875 21.1875 
Q 45.796875 27.640625 41.28125 31.265625 
Q 36.765625 34.90625 28.71875 34.90625 
L 20.21875 34.90625 
L 20.21875 43.015625 
L 29.109375 43.015625 
Q 36.375 43.015625 40.234375 45.921875 
Q 44.09375 48.828125 44.09375 54.296875 
Q 44.09375 59.90625 40.109375 62.90625 
Q 36.140625 65.921875 28.71875 65.921875 
Q 24.65625 65.921875 20.015625 65.03125 
Q 15.375 64.15625 9.8125 62.3125 
L 9.8125 71.09375 
Q 15.4375 72.65625 20.34375 73.4375 
Q 25.25 74.21875 29.59375 74.21875 
Q 40.828125 74.21875 47.359375 69.109375 
Q 53.90625 64.015625 53.90625 55.328125 
Q 53.90625 49.265625 50.4375 45.09375 
Q 46.96875 40.921875 40.578125 39.3125 
z
" id="DejaVuSans-51"/>
      </defs>
      <g transform="translate(31.5125 70.061388)scale(0.1 -0.1)">
       <use xlink:href="#DejaVuSans-51"/>
       <use x="63.623047" xlink:href="#DejaVuSans-48"/>
       <use x="127.246094" xlink:href="#DejaVuSans-48"/>
      </g>
     </g>
    </g>
   </g>
   <g id="line2d_13">
    <path clip-path="url(#pf7d621cffe)" d="M 76.410738 201.851526 
L 234.191048 182.806448 
L 191.448701 257.310596 
L 384.763794 112.652887 
L 375.30212 144.132216 
L 193.242474 242.892959 
L 184.328049 282.134616 
" style="fill:none;stroke:#ff0000;stroke-linecap:square;stroke-width:0.5;"/>
   </g>
   <g id="patch_3">
    <path d="M 57.6 307.584 
L 57.6 41.472 
" style="fill:none;stroke:#000000;stroke-linecap:square;stroke-linejoin:miter;stroke-width:0.8;"/>
   </g>
   <g id="patch_4">
    <path d="M 414.72 307.584 
L 414.72 41.472 
" style="fill:none;stroke:#000000;stroke-linecap:square;stroke-linejoin:miter;stroke-width:0.8;"/>
   </g>
   <g id="patch_5">
    <path d="M 57.6 307.584 
L 414.72 307.584 
" style="fill:none;stroke:#000000;stroke-linecap:square;stroke-linejoin:miter;stroke-width:0.8;"/>
   </g>
   <g id="patch_6">
    <path d="M 57.6 41.472 
L 414.72 41.472 
" style="fill:none;stroke:#000000;stroke-linecap:square;stroke-linejoin:miter;stroke-width:0.8;"/>
   </g>
   <g id="PathCollection_1">
    <defs>
     <path d="M 0 2.738613 
C 0.726289 2.738613 1.422928 2.450055 1.936492 1.936492 
C 2.450055 1.422928 2.738613 0.726289 2.738613 0 
C 2.738613 -0.726289 2.450055 -1.422928 1.936492 -1.936492 
C 1.422928 -2.450055 0.726289 -2.738613 0 -2.738613 
C -0.726289 -2.738613 -1.422928 -2.450055 -1.936492 -1.936492 
C -2.450055 -1.422928 -2.738613 -0.726289 -2.738613 0 
C -2.738613 0.726289 -2.450055 1.422928 -1.936492 1.936492 
C -1.422928 2.450055 -0.726289 2.738613 0 2.738613 
z
" id="m8ce323ffcc" style="stroke:#ff0000;"/>
    </defs>
    <g clip-path="url(#pf7d621cffe)">
     <use style="fill:#ff0000;stroke:#ff0000;" x="76.410738" xlink:href="#m8ce323ffcc" y="201.851526"/>
     <use style="fill:#ff0000;stroke:#ff0000;" x="234.191048" xlink:href="#m8ce323ffcc" y="182.806448"/>
     <use style="fill:#ff0000;stroke:#ff0000;" x="191.448701" xlink:href="#m8ce323ffcc" y="257.310596"/>
     <use style="fill:#ff0000;stroke:#ff0000;" x="384.763794" xlink:href="#m8ce323ffcc" y="112.652887"/>
     <use style="fill:#ff0000;stroke:#ff0000;" x="375.30212" xlink:href="#m8ce323ffcc" y="144.132216"/>
     <use style="fill:#ff0000;stroke:#ff0000;" x="193.242474" xlink:href="#m8ce323ffcc" y="242.892959"/>
     <use style="fill:#ff0000;stroke:#ff0000;" x="184.328049" xlink:href="#m8ce323ffcc" y="282.134616"/>
    </g>
   </g>
   <g id="text_12">
    <!-- (101) Subject: s13, Known = False, Degree = 2, Duration = 0.1 -->
    <defs>
     <path d="M 31 75.875 
Q 24.46875 64.65625 21.28125 53.65625 
Q 18.109375 42.671875 18.109375 31.390625 
Q 18.109375 20.125 21.3125 9.0625 
Q 24.515625 -2 31 -13.1875 
L 23.1875 -13.1875 
Q 15.875 -1.703125 12.234375 9.375 
Q 8.59375 20.453125 8.59375 31.390625 
Q 8.59375 42.28125 12.203125 53.3125 
Q 15.828125 64.359375 23.1875 75.875 
z
" id="DejaVuSans-40"/>
     <path d="M 8.015625 75.875 
L 15.828125 75.875 
Q 23.140625 64.359375 26.78125 53.3125 
Q 30.421875 42.28125 30.421875 31.390625 
Q 30.421875 20.453125 26.78125 9.375 
Q 23.140625 -1.703125 15.828125 -13.1875 
L 8.015625 -13.1875 
Q 14.5 -2 17.703125 9.0625 
Q 20.90625 20.125 20.90625 31.390625 
Q 20.90625 42.671875 17.703125 53.65625 
Q 14.5 64.65625 8.015625 75.875 
z
" id="DejaVuSans-41"/>
     <path id="DejaVuSans-32"/>
     <path d="M 53.515625 70.515625 
L 53.515625 60.890625 
Q 47.90625 63.578125 42.921875 64.890625 
Q 37.9375 66.21875 33.296875 66.21875 
Q 25.25 66.21875 20.875 63.09375 
Q 16.5 59.96875 16.5 54.203125 
Q 16.5 49.359375 19.40625 46.890625 
Q 22.3125 44.4375 30.421875 42.921875 
L 36.375 41.703125 
Q 47.40625 39.59375 52.65625 34.296875 
Q 57.90625 29 57.90625 20.125 
Q 57.90625 9.515625 50.796875 4.046875 
Q 43.703125 -1.421875 29.984375 -1.421875 
Q 24.8125 -1.421875 18.96875 -0.25 
Q 13.140625 0.921875 6.890625 3.21875 
L 6.890625 13.375 
Q 12.890625 10.015625 18.65625 8.296875 
Q 24.421875 6.59375 29.984375 6.59375 
Q 38.421875 6.59375 43.015625 9.90625 
Q 47.609375 13.234375 47.609375 19.390625 
Q 47.609375 24.75 44.3125 27.78125 
Q 41.015625 30.8125 33.5 32.328125 
L 27.484375 33.5 
Q 16.453125 35.6875 11.515625 40.375 
Q 6.59375 45.0625 6.59375 53.421875 
Q 6.59375 63.09375 13.40625 68.65625 
Q 20.21875 74.21875 32.171875 74.21875 
Q 37.3125 74.21875 42.625 73.28125 
Q 47.953125 72.359375 53.515625 70.515625 
z
" id="DejaVuSans-83"/>
     <path d="M 8.5 21.578125 
L 8.5 54.6875 
L 17.484375 54.6875 
L 17.484375 21.921875 
Q 17.484375 14.15625 20.5 10.265625 
Q 23.53125 6.390625 29.59375 6.390625 
Q 36.859375 6.390625 41.078125 11.03125 
Q 45.3125 15.671875 45.3125 23.6875 
L 45.3125 54.6875 
L 54.296875 54.6875 
L 54.296875 0 
L 45.3125 0 
L 45.3125 8.40625 
Q 42.046875 3.421875 37.71875 1 
Q 33.40625 -1.421875 27.6875 -1.421875 
Q 18.265625 -1.421875 13.375 4.4375 
Q 8.5 10.296875 8.5 21.578125 
z
M 31.109375 56 
z
" id="DejaVuSans-117"/>
     <path d="M 48.6875 27.296875 
Q 48.6875 37.203125 44.609375 42.84375 
Q 40.53125 48.484375 33.40625 48.484375 
Q 26.265625 48.484375 22.1875 42.84375 
Q 18.109375 37.203125 18.109375 27.296875 
Q 18.109375 17.390625 22.1875 11.75 
Q 26.265625 6.109375 33.40625 6.109375 
Q 40.53125 6.109375 44.609375 11.75 
Q 48.6875 17.390625 48.6875 27.296875 
z
M 18.109375 46.390625 
Q 20.953125 51.265625 25.265625 53.625 
Q 29.59375 56 35.59375 56 
Q 45.5625 56 51.78125 48.09375 
Q 58.015625 40.1875 58.015625 27.296875 
Q 58.015625 14.40625 51.78125 6.484375 
Q 45.5625 -1.421875 35.59375 -1.421875 
Q 29.59375 -1.421875 25.265625 0.953125 
Q 20.953125 3.328125 18.109375 8.203125 
L 18.109375 0 
L 9.078125 0 
L 9.078125 75.984375 
L 18.109375 75.984375 
z
" id="DejaVuSans-98"/>
     <path d="M 9.421875 54.6875 
L 18.40625 54.6875 
L 18.40625 -0.984375 
Q 18.40625 -11.421875 14.421875 -16.109375 
Q 10.453125 -20.796875 1.609375 -20.796875 
L -1.8125 -20.796875 
L -1.8125 -13.1875 
L 0.59375 -13.1875 
Q 5.71875 -13.1875 7.5625 -10.8125 
Q 9.421875 -8.453125 9.421875 -0.984375 
z
M 9.421875 75.984375 
L 18.40625 75.984375 
L 18.40625 64.59375 
L 9.421875 64.59375 
z
" id="DejaVuSans-106"/>
     <path d="M 56.203125 29.59375 
L 56.203125 25.203125 
L 14.890625 25.203125 
Q 15.484375 15.921875 20.484375 11.0625 
Q 25.484375 6.203125 34.421875 6.203125 
Q 39.59375 6.203125 44.453125 7.46875 
Q 49.3125 8.734375 54.109375 11.28125 
L 54.109375 2.78125 
Q 49.265625 0.734375 44.1875 -0.34375 
Q 39.109375 -1.421875 33.890625 -1.421875 
Q 20.796875 -1.421875 13.15625 6.1875 
Q 5.515625 13.8125 5.515625 26.8125 
Q 5.515625 40.234375 12.765625 48.109375 
Q 20.015625 56 32.328125 56 
Q 43.359375 56 49.78125 48.890625 
Q 56.203125 41.796875 56.203125 29.59375 
z
M 47.21875 32.234375 
Q 47.125 39.59375 43.09375 43.984375 
Q 39.0625 48.390625 32.421875 48.390625 
Q 24.90625 48.390625 20.390625 44.140625 
Q 15.875 39.890625 15.1875 32.171875 
z
" id="DejaVuSans-101"/>
     <path d="M 48.78125 52.59375 
L 48.78125 44.1875 
Q 44.96875 46.296875 41.140625 47.34375 
Q 37.3125 48.390625 33.40625 48.390625 
Q 24.65625 48.390625 19.8125 42.84375 
Q 14.984375 37.3125 14.984375 27.296875 
Q 14.984375 17.28125 19.8125 11.734375 
Q 24.65625 6.203125 33.40625 6.203125 
Q 37.3125 6.203125 41.140625 7.25 
Q 44.96875 8.296875 48.78125 10.40625 
L 48.78125 2.09375 
Q 45.015625 0.34375 40.984375 -0.53125 
Q 36.96875 -1.421875 32.421875 -1.421875 
Q 20.0625 -1.421875 12.78125 6.34375 
Q 5.515625 14.109375 5.515625 27.296875 
Q 5.515625 40.671875 12.859375 48.328125 
Q 20.21875 56 33.015625 56 
Q 37.15625 56 41.109375 55.140625 
Q 45.0625 54.296875 48.78125 52.59375 
z
" id="DejaVuSans-99"/>
     <path d="M 18.3125 70.21875 
L 18.3125 54.6875 
L 36.8125 54.6875 
L 36.8125 47.703125 
L 18.3125 47.703125 
L 18.3125 18.015625 
Q 18.3125 11.328125 20.140625 9.421875 
Q 21.96875 7.515625 27.59375 7.515625 
L 36.8125 7.515625 
L 36.8125 0 
L 27.59375 0 
Q 17.1875 0 13.234375 3.875 
Q 9.28125 7.765625 9.28125 18.015625 
L 9.28125 47.703125 
L 2.6875 47.703125 
L 2.6875 54.6875 
L 9.28125 54.6875 
L 9.28125 70.21875 
z
" id="DejaVuSans-116"/>
     <path d="M 11.71875 12.40625 
L 22.015625 12.40625 
L 22.015625 0 
L 11.71875 0 
z
M 11.71875 51.703125 
L 22.015625 51.703125 
L 22.015625 39.3125 
L 11.71875 39.3125 
z
" id="DejaVuSans-58"/>
     <path d="M 44.28125 53.078125 
L 44.28125 44.578125 
Q 40.484375 46.53125 36.375 47.5 
Q 32.28125 48.484375 27.875 48.484375 
Q 21.1875 48.484375 17.84375 46.4375 
Q 14.5 44.390625 14.5 40.28125 
Q 14.5 37.15625 16.890625 35.375 
Q 19.28125 33.59375 26.515625 31.984375 
L 29.59375 31.296875 
Q 39.15625 29.25 43.1875 25.515625 
Q 47.21875 21.78125 47.21875 15.09375 
Q 47.21875 7.46875 41.1875 3.015625 
Q 35.15625 -1.421875 24.609375 -1.421875 
Q 20.21875 -1.421875 15.453125 -0.5625 
Q 10.6875 0.296875 5.421875 2 
L 5.421875 11.28125 
Q 10.40625 8.6875 15.234375 7.390625 
Q 20.0625 6.109375 24.8125 6.109375 
Q 31.15625 6.109375 34.5625 8.28125 
Q 37.984375 10.453125 37.984375 14.40625 
Q 37.984375 18.0625 35.515625 20.015625 
Q 33.0625 21.96875 24.703125 23.78125 
L 21.578125 24.515625 
Q 13.234375 26.265625 9.515625 29.90625 
Q 5.8125 33.546875 5.8125 39.890625 
Q 5.8125 47.609375 11.28125 51.796875 
Q 16.75 56 26.8125 56 
Q 31.78125 56 36.171875 55.265625 
Q 40.578125 54.546875 44.28125 53.078125 
z
" id="DejaVuSans-115"/>
     <path d="M 11.71875 12.40625 
L 22.015625 12.40625 
L 22.015625 4 
L 14.015625 -11.625 
L 7.71875 -11.625 
L 11.71875 4 
z
" id="DejaVuSans-44"/>
     <path d="M 9.8125 72.90625 
L 19.671875 72.90625 
L 19.671875 42.09375 
L 52.390625 72.90625 
L 65.09375 72.90625 
L 28.90625 38.921875 
L 67.671875 0 
L 54.6875 0 
L 19.671875 35.109375 
L 19.671875 0 
L 9.8125 0 
z
" id="DejaVuSans-75"/>
     <path d="M 54.890625 33.015625 
L 54.890625 0 
L 45.90625 0 
L 45.90625 32.71875 
Q 45.90625 40.484375 42.875 44.328125 
Q 39.84375 48.1875 33.796875 48.1875 
Q 26.515625 48.1875 22.3125 43.546875 
Q 18.109375 38.921875 18.109375 30.90625 
L 18.109375 0 
L 9.078125 0 
L 9.078125 54.6875 
L 18.109375 54.6875 
L 18.109375 46.1875 
Q 21.34375 51.125 25.703125 53.5625 
Q 30.078125 56 35.796875 56 
Q 45.21875 56 50.046875 50.171875 
Q 54.890625 44.34375 54.890625 33.015625 
z
" id="DejaVuSans-110"/>
     <path d="M 30.609375 48.390625 
Q 23.390625 48.390625 19.1875 42.75 
Q 14.984375 37.109375 14.984375 27.296875 
Q 14.984375 17.484375 19.15625 11.84375 
Q 23.34375 6.203125 30.609375 6.203125 
Q 37.796875 6.203125 41.984375 11.859375 
Q 46.1875 17.53125 46.1875 27.296875 
Q 46.1875 37.015625 41.984375 42.703125 
Q 37.796875 48.390625 30.609375 48.390625 
z
M 30.609375 56 
Q 42.328125 56 49.015625 48.375 
Q 55.71875 40.765625 55.71875 27.296875 
Q 55.71875 13.875 49.015625 6.21875 
Q 42.328125 -1.421875 30.609375 -1.421875 
Q 18.84375 -1.421875 12.171875 6.21875 
Q 5.515625 13.875 5.515625 27.296875 
Q 5.515625 40.765625 12.171875 48.375 
Q 18.84375 56 30.609375 56 
z
" id="DejaVuSans-111"/>
     <path d="M 4.203125 54.6875 
L 13.1875 54.6875 
L 24.421875 12.015625 
L 35.59375 54.6875 
L 46.1875 54.6875 
L 57.421875 12.015625 
L 68.609375 54.6875 
L 77.59375 54.6875 
L 63.28125 0 
L 52.6875 0 
L 40.921875 44.828125 
L 29.109375 0 
L 18.5 0 
z
" id="DejaVuSans-119"/>
     <path d="M 10.59375 45.40625 
L 73.1875 45.40625 
L 73.1875 37.203125 
L 10.59375 37.203125 
z
M 10.59375 25.484375 
L 73.1875 25.484375 
L 73.1875 17.1875 
L 10.59375 17.1875 
z
" id="DejaVuSans-61"/>
     <path d="M 9.8125 72.90625 
L 51.703125 72.90625 
L 51.703125 64.59375 
L 19.671875 64.59375 
L 19.671875 43.109375 
L 48.578125 43.109375 
L 48.578125 34.8125 
L 19.671875 34.8125 
L 19.671875 0 
L 9.8125 0 
z
" id="DejaVuSans-70"/>
     <path d="M 34.28125 27.484375 
Q 23.390625 27.484375 19.1875 25 
Q 14.984375 22.515625 14.984375 16.5 
Q 14.984375 11.71875 18.140625 8.90625 
Q 21.296875 6.109375 26.703125 6.109375 
Q 34.1875 6.109375 38.703125 11.40625 
Q 43.21875 16.703125 43.21875 25.484375 
L 43.21875 27.484375 
z
M 52.203125 31.203125 
L 52.203125 0 
L 43.21875 0 
L 43.21875 8.296875 
Q 40.140625 3.328125 35.546875 0.953125 
Q 30.953125 -1.421875 24.3125 -1.421875 
Q 15.921875 -1.421875 10.953125 3.296875 
Q 6 8.015625 6 15.921875 
Q 6 25.140625 12.171875 29.828125 
Q 18.359375 34.515625 30.609375 34.515625 
L 43.21875 34.515625 
L 43.21875 35.40625 
Q 43.21875 41.609375 39.140625 45 
Q 35.0625 48.390625 27.6875 48.390625 
Q 23 48.390625 18.546875 47.265625 
Q 14.109375 46.140625 10.015625 43.890625 
L 10.015625 52.203125 
Q 14.9375 54.109375 19.578125 55.046875 
Q 24.21875 56 28.609375 56 
Q 40.484375 56 46.34375 49.84375 
Q 52.203125 43.703125 52.203125 31.203125 
z
" id="DejaVuSans-97"/>
     <path d="M 9.421875 75.984375 
L 18.40625 75.984375 
L 18.40625 0 
L 9.421875 0 
z
" id="DejaVuSans-108"/>
     <path d="M 19.671875 64.796875 
L 19.671875 8.109375 
L 31.59375 8.109375 
Q 46.6875 8.109375 53.6875 14.9375 
Q 60.6875 21.78125 60.6875 36.53125 
Q 60.6875 51.171875 53.6875 57.984375 
Q 46.6875 64.796875 31.59375 64.796875 
z
M 9.8125 72.90625 
L 30.078125 72.90625 
Q 51.265625 72.90625 61.171875 64.09375 
Q 71.09375 55.28125 71.09375 36.53125 
Q 71.09375 17.671875 61.125 8.828125 
Q 51.171875 0 30.078125 0 
L 9.8125 0 
z
" id="DejaVuSans-68"/>
     <path d="M 45.40625 27.984375 
Q 45.40625 37.75 41.375 43.109375 
Q 37.359375 48.484375 30.078125 48.484375 
Q 22.859375 48.484375 18.828125 43.109375 
Q 14.796875 37.75 14.796875 27.984375 
Q 14.796875 18.265625 18.828125 12.890625 
Q 22.859375 7.515625 30.078125 7.515625 
Q 37.359375 7.515625 41.375 12.890625 
Q 45.40625 18.265625 45.40625 27.984375 
z
M 54.390625 6.78125 
Q 54.390625 -7.171875 48.1875 -13.984375 
Q 42 -20.796875 29.203125 -20.796875 
Q 24.46875 -20.796875 20.265625 -20.09375 
Q 16.0625 -19.390625 12.109375 -17.921875 
L 12.109375 -9.1875 
Q 16.0625 -11.328125 19.921875 -12.34375 
Q 23.78125 -13.375 27.78125 -13.375 
Q 36.625 -13.375 41.015625 -8.765625 
Q 45.40625 -4.15625 45.40625 5.171875 
L 45.40625 9.625 
Q 42.625 4.78125 38.28125 2.390625 
Q 33.9375 0 27.875 0 
Q 17.828125 0 11.671875 7.65625 
Q 5.515625 15.328125 5.515625 27.984375 
Q 5.515625 40.671875 11.671875 48.328125 
Q 17.828125 56 27.875 56 
Q 33.9375 56 38.28125 53.609375 
Q 42.625 51.21875 45.40625 46.390625 
L 45.40625 54.6875 
L 54.390625 54.6875 
z
" id="DejaVuSans-103"/>
     <path d="M 41.109375 46.296875 
Q 39.59375 47.171875 37.8125 47.578125 
Q 36.03125 48 33.890625 48 
Q 26.265625 48 22.1875 43.046875 
Q 18.109375 38.09375 18.109375 28.8125 
L 18.109375 0 
L 9.078125 0 
L 9.078125 54.6875 
L 18.109375 54.6875 
L 18.109375 46.1875 
Q 20.953125 51.171875 25.484375 53.578125 
Q 30.03125 56 36.53125 56 
Q 37.453125 56 38.578125 55.875 
Q 39.703125 55.765625 41.0625 55.515625 
z
" id="DejaVuSans-114"/>
     <path d="M 9.421875 54.6875 
L 18.40625 54.6875 
L 18.40625 0 
L 9.421875 0 
z
M 9.421875 75.984375 
L 18.40625 75.984375 
L 18.40625 64.59375 
L 9.421875 64.59375 
z
" id="DejaVuSans-105"/>
     <path d="M 10.6875 12.40625 
L 21 12.40625 
L 21 0 
L 10.6875 0 
z
" id="DejaVuSans-46"/>
    </defs>
    <g transform="translate(45.924375 35.472)scale(0.12 -0.12)">
     <use xlink:href="#DejaVuSans-40"/>
     <use x="39.013672" xlink:href="#DejaVuSans-49"/>
     <use x="102.636719" xlink:href="#DejaVuSans-48"/>
     <use x="166.259766" xlink:href="#DejaVuSans-49"/>
     <use x="229.882812" xlink:href="#DejaVuSans-41"/>
     <use x="268.896484" xlink:href="#DejaVuSans-32"/>
     <use x="300.683594" xlink:href="#DejaVuSans-83"/>
     <use x="364.160156" xlink:href="#DejaVuSans-117"/>
     <use x="427.539062" xlink:href="#DejaVuSans-98"/>
     <use x="491.015625" xlink:href="#DejaVuSans-106"/>
     <use x="518.798828" xlink:href="#DejaVuSans-101"/>
     <use x="580.322266" xlink:href="#DejaVuSans-99"/>
     <use x="635.302734" xlink:href="#DejaVuSans-116"/>
     <use x="674.511719" xlink:href="#DejaVuSans-58"/>
     <use x="708.203125" xlink:href="#DejaVuSans-32"/>
     <use x="739.990234" xlink:href="#DejaVuSans-115"/>
     <use x="792.089844" xlink:href="#DejaVuSans-49"/>
     <use x="855.712891" xlink:href="#DejaVuSans-51"/>
     <use x="919.335938" xlink:href="#DejaVuSans-44"/>
     <use x="951.123047" xlink:href="#DejaVuSans-32"/>
     <use x="982.910156" xlink:href="#DejaVuSans-75"/>
     <use x="1048.486328" xlink:href="#DejaVuSans-110"/>
     <use x="1111.865234" xlink:href="#DejaVuSans-111"/>
     <use x="1173.046875" xlink:href="#DejaVuSans-119"/>
     <use x="1254.833984" xlink:href="#DejaVuSans-110"/>
     <use x="1318.212891" xlink:href="#DejaVuSans-32"/>
     <use x="1350" xlink:href="#DejaVuSans-61"/>
     <use x="1433.789062" xlink:href="#DejaVuSans-32"/>
     <use x="1465.576172" xlink:href="#DejaVuSans-70"/>
     <use x="1522.955078" xlink:href="#DejaVuSans-97"/>
     <use x="1584.234375" xlink:href="#DejaVuSans-108"/>
     <use x="1612.017578" xlink:href="#DejaVuSans-115"/>
     <use x="1664.117188" xlink:href="#DejaVuSans-101"/>
     <use x="1725.640625" xlink:href="#DejaVuSans-44"/>
     <use x="1757.427734" xlink:href="#DejaVuSans-32"/>
     <use x="1789.214844" xlink:href="#DejaVuSans-68"/>
     <use x="1866.216797" xlink:href="#DejaVuSans-101"/>
     <use x="1927.740234" xlink:href="#DejaVuSans-103"/>
     <use x="1991.216797" xlink:href="#DejaVuSans-114"/>
     <use x="2032.298828" xlink:href="#DejaVuSans-101"/>
     <use x="2093.822266" xlink:href="#DejaVuSans-101"/>
     <use x="2155.345703" xlink:href="#DejaVuSans-32"/>
     <use x="2187.132812" xlink:href="#DejaVuSans-61"/>
     <use x="2270.921875" xlink:href="#DejaVuSans-32"/>
     <use x="2302.708984" xlink:href="#DejaVuSans-50"/>
     <use x="2366.332031" xlink:href="#DejaVuSans-44"/>
     <use x="2398.119141" xlink:href="#DejaVuSans-32"/>
     <use x="2429.90625" xlink:href="#DejaVuSans-68"/>
     <use x="2506.908203" xlink:href="#DejaVuSans-117"/>
     <use x="2570.287109" xlink:href="#DejaVuSans-114"/>
     <use x="2611.400391" xlink:href="#DejaVuSans-97"/>
     <use x="2672.679688" xlink:href="#DejaVuSans-116"/>
     <use x="2711.888672" xlink:href="#DejaVuSans-105"/>
     <use x="2739.671875" xlink:href="#DejaVuSans-111"/>
     <use x="2800.853516" xlink:href="#DejaVuSans-110"/>
     <use x="2864.232422" xlink:href="#DejaVuSans-32"/>
     <use x="2896.019531" xlink:href="#DejaVuSans-61"/>
     <use x="2979.808594" xlink:href="#DejaVuSans-32"/>
     <use x="3011.595703" xlink:href="#DejaVuSans-48"/>
     <use x="3075.21875" xlink:href="#DejaVuSans-46"/>
     <use x="3107.005859" xlink:href="#DejaVuSans-49"/>
    </g>
   </g>
  </g>
 </g>
 <defs>
  <clipPath id="pf7d621cffe">
   <rect height="266.112" width="357.12" x="57.6" y="41.472"/>
  </clipPath>
 </defs>
</svg>
