<?xml version="1.0" encoding="utf-8" standalone="no"?>
<!DOCTYPE svg PUBLIC "-//W3C//DTD SVG 1.1//EN"
  "http://www.w3.org/Graphics/SVG/1.1/DTD/svg11.dtd">
<!-- Created with matplotlib (https://matplotlib.org/) -->
<svg height="345.6pt" version="1.1" viewBox="0 0 460.8 345.6" width="460.8pt" xmlns="http://www.w3.org/2000/svg" xmlns:xlink="http://www.w3.org/1999/xlink">
 <defs>
  <style type="text/css">
*{stroke-linecap:butt;stroke-linejoin:round;}
  </style>
 </defs>
 <g id="figure_1">
  <g id="patch_1">
   <path d="M 0 345.6 
L 460.8 345.6 
L 460.8 0 
L 0 0 
z
" style="fill:#ffffff;"/>
  </g>
  <g id="axes_1">
   <g id="patch_2">
    <path d="M 57.6 307.584 
L 414.72 307.584 
L 414.72 41.472 
L 57.6 41.472 
z
" style="fill:#ffffff;"/>
   </g>
   <g id="line2d_1">
    <path clip-path="url(#p588601a264)" d="M 389.706826 109.316884 
L 390.221983 107.20987 
L 389.965827 105.109299 
L 389.965827 103.002285 
L 390.480985 100.901715 
L 390.480985 100.901715 
L 389.965827 101.952 
L 389.965827 107.20987 
L 389.706826 106.159584 
L 388.673664 105.109299 
L 388.155661 105.109299 
L 388.155661 106.159584 
L 389.188822 106.159584 
L 389.706826 108.260155 
L 389.447824 108.260155 
L 389.706826 108.260155 
L 389.706826 107.20987 
L 389.188822 108.260155 
L 388.673664 110.367169 
L 388.414662 110.367169 
L 388.673664 108.260155 
L 388.673664 105.109299 
L 388.414662 105.109299 
L 388.155661 108.260155 
L 388.414662 110.367169 
L 389.706826 105.109299 
L 389.447824 105.109299 
L 388.673664 108.260155 
L 388.414662 110.367169 
L 388.673664 110.367169 
L 389.188822 105.109299 
L 389.188822 107.20987 
L 388.673664 108.260155 
L 388.414662 107.20987 
L 388.414662 104.059014 
L 388.673664 104.059014 
L 389.447824 107.20987 
L 389.188822 105.109299 
L 389.188822 101.952 
L 389.447824 101.952 
L 389.188822 105.109299 
L 389.447824 107.20987 
L 389.706826 105.109299 
L 389.706826 103.002285 
L 389.188822 103.002285 
L 388.932666 104.059014 
L 389.188822 104.059014 
L 389.188822 105.109299 
L 390.221983 105.109299 
L 390.221983 107.20987 
L 389.706826 108.260155 
L 388.932666 108.260155 
L 388.673664 109.316884 
L 389.188822 109.316884 
L 389.188822 109.316884 
L 388.932666 107.20987 
L 388.932666 105.109299 
L 389.188822 105.109299 
L 388.932666 105.109299 
L 388.155661 107.20987 
L 387.899505 107.20987 
L 388.414662 105.109299 
L 388.673664 105.109299 
L 388.673664 105.109299 
L 388.673664 107.20987 
L 388.673664 107.20987 
L 388.932666 107.20987 
L 388.932666 109.316884 
L 388.414662 111.417454 
L 387.640503 108.260155 
L 387.899505 107.20987 
L 389.447824 105.109299 
L 389.965827 105.109299 
L 389.965827 107.20987 
L 389.706826 108.260155 
L 389.447824 106.159584 
L 389.447824 104.059014 
L 389.965827 104.059014 
L 389.965827 103.002285 
L 389.447824 101.952 
L 389.447824 100.901715 
L 389.188822 99.851429 
L 389.188822 104.059014 
L 388.932666 105.109299 
L 388.673664 105.109299 
L 388.155661 104.059014 
L 387.640503 101.952 
L 387.899505 101.952 
L 388.414662 104.059014 
L 388.414662 106.159584 
L 387.899505 107.20987 
L 387.640503 108.260155 
L 387.899505 109.316884 
L 388.673664 108.260155 
L 389.188822 101.952 
L 390.221983 101.952 
L 390.480985 103.002285 
L 390.480985 103.002285 
L 389.706826 105.109299 
L 389.188822 107.20987 
L 389.447824 109.316884 
L 389.706826 108.260155 
L 390.739987 106.159584 
L 390.998989 107.20987 
L 390.739987 108.260155 
L 390.221983 108.260155 
L 389.706826 109.316884 
L 389.447824 109.316884 
L 389.965827 107.20987 
L 389.965827 108.260155 
L 389.706826 110.367169 
L 389.706826 110.367169 
L 389.965827 110.367169 
L 390.480985 112.46774 
L 390.739987 112.46774 
L 390.739987 110.367169 
L 389.965827 108.260155 
L 389.706826 107.20987 
L 390.221983 106.159584 
L 390.480985 105.109299 
L 390.221983 105.109299 
L 389.706826 107.20987 
L 389.706826 107.20987 
L 390.221983 106.159584 
L 390.739987 106.159584 
L 390.998989 105.109299 
L 390.998989 98.794701 
L 391.514146 99.851429 
L 391.514146 99.851429 
L 392.288305 99.851429 
L 392.288305 100.901715 
L 392.03215 100.901715 
L 392.288305 100.901715 
L 392.288305 99.851429 
L 392.547307 97.744416 
L 392.806309 98.794701 
L 393.065311 100.901715 
L 393.065311 100.901715 
L 393.580469 97.744416 
L 394.098472 91.43626 
L 393.83947 92.486546 
L 393.580469 94.587116 
L 393.321467 95.643845 
L 393.065311 92.486546 
L 393.065311 90.379532 
L 393.065311 90.379532 
L 393.321467 90.379532 
L 393.580469 91.43626 
L 393.83947 90.379532 
L 393.83947 88.278961 
L 393.321467 88.278961 
L 393.83947 86.178391 
L 394.354628 86.178391 
L 394.098472 87.228676 
L 394.098472 87.228676 
L 394.61363 88.278961 
L 395.131633 88.278961 
L 394.61363 86.178391 
L 394.61363 86.178391 
L 394.354628 86.178391 
L 394.354628 86.178391 
L 394.098472 85.121662 
L 394.098472 83.021091 
L 394.61363 81.970806 
L 394.61363 81.970806 
L 394.354628 83.021091 
L 393.83947 84.071377 
L 393.580469 83.021091 
L 393.83947 80.914078 
L 394.098472 79.863792 
L 394.872632 79.863792 
L 395.387789 81.970806 
L 395.387789 83.021091 
L 394.354628 78.813507 
L 394.354628 77.763222 
L 394.872632 78.813507 
L 395.387789 78.813507 
L 395.387789 76.706493 
L 395.131633 75.656208 
L 394.872632 75.656208 
L 394.872632 75.656208 
L 395.646791 76.706493 
L 395.905793 78.813507 
L 395.905793 80.914078 
L 396.164795 78.813507 
L 395.646791 74.605922 
L 395.905793 74.605922 
L 396.164795 75.656208 
L 396.42095 74.605922 
L 395.646791 73.555637 
L 394.872632 74.605922 
L 394.872632 74.605922 
L 395.387789 74.605922 
L 395.905793 73.555637 
L 396.164795 73.555637 
L 396.164795 76.706493 
L 396.679952 76.706493 
L 396.938954 77.763222 
L 396.679952 77.763222 
L 396.42095 76.706493 
L 396.42095 75.656208 
L 395.646791 74.605922 
L 394.61363 73.555637 
L 394.61363 72.498909 
L 395.387789 72.498909 
L 395.905793 73.555637 
L 396.679952 73.555637 
L 396.164795 73.555637 
L 395.905793 72.498909 
L 395.387789 71.448623 
L 395.131633 73.555637 
L 395.646791 76.706493 
L 396.164795 77.763222 
L 396.679952 76.706493 
L 397.197956 74.605922 
L 397.454112 72.498909 
L 396.938954 72.498909 
L 396.164795 76.706493 
L 396.679952 75.656208 
L 396.938954 75.656208 
L 396.42095 76.706493 
L 395.905793 76.706493 
L 395.905793 76.706493 
L 396.42095 75.656208 
L 397.197956 72.498909 
L 397.197956 70.398338 
L 396.42095 70.398338 
L 396.42095 69.348053 
L 396.42095 69.348053 
L 396.938954 71.448623 
L 396.938954 71.448623 
L 396.938954 69.348053 
L 396.679952 69.348053 
L 396.679952 70.398338 
L 396.938954 68.291324 
L 397.197956 64.090183 
L 397.197956 64.090183 
L 397.197956 67.241039 
L 397.454112 68.291324 
L 397.454112 67.241039 
L 397.454112 68.291324 
L 397.972115 67.241039 
L 397.972115 65.140468 
L 397.972115 65.140468 
L 397.197956 68.291324 
L 397.197956 67.241039 
L 397.454112 65.140468 
L 397.454112 66.190753 
L 397.454112 66.190753 
L 398.231117 66.190753 
L 398.487273 67.241039 
L 398.487273 68.291324 
L 398.231117 68.291324 
L 397.972115 67.241039 
L 397.713113 65.140468 
L 396.42095 65.140468 
L 397.197956 64.090183 
L 397.454112 63.033454 
L 397.197956 65.140468 
L 396.42095 67.241039 
L 394.872632 69.348053 
L 392.806309 69.348053 
L 390.739987 67.241039 
L 388.414662 65.140468 
L 385.574181 66.190753 
L 382.474697 70.398338 
L 378.601054 72.498909 
L 374.727411 71.448623 
L 365.944118 71.448623 
L 360.778312 70.398338 
L 355.612506 67.241039 
L 350.449546 65.140468 
L 344.765736 63.033454 
L 338.566769 61.983169 
L 331.852644 64.090183 
L 325.135673 64.090183 
L 304.475295 60.932884 
L 291.303201 65.140468 
L 284.845232 66.190753 
L 278.387263 70.398338 
L 272.191142 74.605922 
L 266.507332 76.706493 
L 248.943591 79.863792 
L 243.262628 83.021091 
L 238.355823 85.121662 
L 233.190017 89.329247 
L 228.024211 92.486546 
L 222.858405 94.587116 
L 217.692599 97.744416 
L 212.785795 101.952 
L 208.394148 106.159584 
L 205.038509 111.417454 
L 202.195181 115.625039 
L 199.872703 118.782338 
L 197.80638 120.882909 
L 196.255215 125.090493 
L 194.706897 128.247792 
L 193.414734 130.348363 
L 193.155732 130.348363 
L 193.673736 133.505662 
L 194.447895 136.662961 
L 194.706897 140.870546 
L 196.514217 142.971116 
L 197.032221 142.971116 
L 197.288377 144.027845 
L 197.547379 141.920831 
L 197.547379 140.870546 
L 197.80638 142.971116 
L 198.065382 144.027845 
L 198.065382 142.971116 
L 198.065382 145.07813 
L 197.547379 147.178701 
L 196.773219 146.128416 
L 196.255215 147.178701 
L 194.965899 152.436571 
L 194.447895 153.493299 
L 192.899576 151.386285 
L 193.155732 150.336 
L 193.932737 150.336 
L 193.932737 150.336 
L 193.414734 149.285715 
L 193.414734 149.285715 
L 193.932737 155.59387 
L 193.414734 155.59387 
L 192.640574 156.644155 
L 192.640574 159.801454 
L 192.899576 161.908468 
L 192.899576 162.958753 
L 193.155732 161.908468 
L 193.414734 161.908468 
L 193.155732 162.958753 
L 192.122571 158.751169 
L 192.122571 162.958753 
L 191.866415 162.958753 
L 191.866415 165.059324 
L 191.348411 166.109609 
L 191.089409 167.166338 
L 191.866415 164.009039 
L 191.607413 162.958753 
L 191.089409 165.059324 
L 190.31525 167.166338 
L 190.056248 167.166338 
L 190.31525 167.166338 
L 190.833254 168.216623 
L 191.089409 170.317194 
L 190.833254 172.424208 
L 189.282089 168.216623 
L 189.282089 168.216623 
L 190.31525 168.216623 
L 190.056248 169.266909 
L 190.056248 171.373922 
L 190.833254 174.524778 
L 190.574252 173.474493 
L 190.31525 173.474493 
L 189.800093 175.581507 
L 189.023087 174.524778 
L 188.766931 174.524778 
L 188.766931 175.581507 
L 189.023087 176.631792 
L 189.282089 175.581507 
L 189.282089 176.631792 
L 189.023087 178.732363 
L 188.507929 180.839377 
L 187.989926 179.789091 
L 187.73377 178.732363 
L 187.73377 178.732363 
L 187.989926 178.732363 
L 188.248928 179.789091 
L 187.989926 181.889662 
L 187.989926 181.889662 
L 188.507929 180.839377 
L 189.541091 180.839377 
L 189.023087 180.839377 
L 188.248928 182.939947 
L 187.73377 183.996676 
L 187.989926 185.046961 
L 188.248928 182.939947 
L 188.248928 177.682078 
L 187.474768 178.732363 
L 186.956765 181.889662 
L 187.215766 183.996676 
L 187.73377 185.046961 
L 187.989926 185.046961 
L 187.474768 186.097247 
L 186.956765 186.097247 
L 186.700609 187.147532 
L 186.700609 181.889662 
L 186.956765 181.889662 
L 187.474768 186.097247 
L 187.215766 187.147532 
L 187.474768 186.097247 
L 187.73377 186.097247 
L 187.73377 187.147532 
L 187.474768 188.197817 
L 187.474768 187.147532 
L 187.215766 186.097247 
L 186.441607 186.097247 
L 185.923603 187.147532 
L 184.634286 186.097247 
L 183.083122 186.097247 
L 181.275801 187.147532 
L 178.950477 188.197817 
L 176.884154 189.254546 
L 174.561676 190.304831 
L 171.462193 191.355116 
L 164.745222 187.147532 
L 160.871579 186.097247 
L 156.479932 187.147532 
L 151.83213 190.304831 
L 147.184327 192.405402 
L 135.560552 192.405402 
L 130.135744 194.512416 
L 124.969938 198.72 
L 114.897328 202.927584 
L 105.601723 209.23574 
L 101.469078 211.342753 
L 97.336433 214.493609 
L 93.718946 217.650909 
L 90.363307 219.757922 
L 87.004821 220.808208 
L 83.905338 223.959064 
L 81.321011 227.116363 
L 77.188367 229.223377 
L 75.640048 232.374233 
L 75.381046 235.531532 
L 75.12489 236.581817 
L 74.347885 238.688831 
L 73.832727 240.789402 
L 75.381046 240.789402 
L 76.155205 241.84613 
L 77.447368 241.84613 
L 78.48053 242.896416 
L 79.772693 242.896416 
L 79.772693 240.789402 
L 80.546852 236.581817 
L 80.805854 236.581817 
L 80.805854 240.789402 
L 80.546852 241.84613 
L 80.031695 241.84613 
L 79.254689 244.996986 
L 77.70637 244.996986 
L 77.70637 244.996986 
L 77.965372 247.104 
L 78.221528 250.254856 
L 78.221528 256.569454 
L 78.48053 257.61974 
L 78.739531 256.569454 
L 78.739531 255.519169 
L 79.254689 253.412155 
L 79.772693 252.36187 
L 80.546852 251.311584 
L 80.805854 250.254856 
L 80.28785 251.311584 
L 79.254689 254.46244 
L 78.998533 254.46244 
L 79.772693 253.412155 
L 80.031695 252.36187 
L 80.031695 249.204571 
L 80.28785 249.204571 
L 79.513691 250.254856 
L 78.221528 251.311584 
L 77.965372 252.36187 
L 78.221528 253.412155 
L 78.221528 254.46244 
L 77.70637 256.569454 
L 77.447368 258.670025 
L 77.70637 258.670025 
L 78.221528 257.61974 
L 78.739531 258.670025 
L 78.998533 259.726753 
L 79.254689 259.726753 
L 78.998533 257.61974 
L 78.48053 255.519169 
L 77.965372 256.569454 
L 77.965372 258.670025 
L 78.221528 259.726753 
L 78.221528 259.726753 
L 78.48053 258.670025 
L 78.221528 258.670025 
L 77.965372 259.726753 
L 77.965372 262.877609 
L 78.221528 263.927895 
L 78.739531 263.927895 
L 78.998533 264.984623 
L 78.998533 266.034909 
L 78.739531 263.927895 
L 79.254689 261.827324 
L 78.739531 262.877609 
L 76.673209 262.877609 
L 76.414207 264.984623 
L 77.70637 264.984623 
L 78.48053 263.927895 
L 78.998533 263.927895 
L 78.739531 266.034909 
L 78.221528 266.034909 
L 77.965372 264.984623 
L 77.965372 263.927895 
L 78.221528 266.034909 
L 78.221528 269.192208 
L 77.70637 270.242493 
L 77.447368 269.192208 
L 77.447368 267.085194 
L 77.70637 267.085194 
L 77.70637 268.135479 
L 77.188367 268.135479 
L 76.932211 266.034909 
L 77.188367 264.984623 
L 77.70637 267.085194 
L 77.447368 270.242493 
L 76.673209 272.343064 
L 76.673209 273.399792 
L 77.447368 274.450078 
L 77.965372 274.450078 
L 76.673209 269.192208 
L 76.155205 270.242493 
L 75.89905 269.192208 
L 76.673209 269.192208 
L 77.447368 270.242493 
L 76.932211 272.343064 
L 77.447368 270.242493 
L 77.70637 268.135479 
L 77.188367 268.135479 
L 76.673209 269.192208 
L 76.673209 272.343064 
L 77.188367 276.550648 
L 77.188367 276.550648 
L 76.673209 277.607377 
L 76.414207 276.550648 
L 76.673209 275.500363 
L 76.673209 274.450078 
L 76.414207 276.550648 
L 76.414207 278.657662 
L 77.447368 276.550648 
L 77.447368 276.550648 
L 77.70637 278.657662 
L 77.447368 278.657662 
L 76.673209 276.550648 
L 76.414207 274.450078 
L 75.89905 278.657662 
L 75.381046 276.550648 
L 75.640048 274.450078 
L 76.155205 273.399792 
L 76.932211 273.399792 
L 77.188367 274.450078 
L 77.188367 277.607377 
L 76.932211 276.550648 
L 76.932211 275.500363 
L 77.188367 275.500363 
L 76.932211 274.450078 
L 76.414207 273.399792 
L 76.155205 274.450078 
L 76.155205 275.500363 
L 76.414207 276.550648 
L 76.932211 276.550648 
L 76.673209 277.607377 
L 76.932211 276.550648 
L 76.932211 278.657662 
L 76.673209 278.657662 
L 76.414207 276.550648 
L 76.414207 275.500363 
L 76.155205 277.607377 
L 76.155205 277.607377 
L 76.155205 279.707947 
L 76.414207 281.814961 
L 76.414207 282.865247 
L 76.414207 277.607377 
L 76.155205 274.450078 
L 76.414207 277.607377 
L 76.932211 278.657662 
L 77.188367 278.657662 
L 77.70637 280.758233 
L 77.70637 280.758233 
L 77.188367 280.758233 
L 76.414207 281.814961 
L 76.155205 280.758233 
L 75.640048 279.707947 
L 75.89905 277.607377 
L 76.414207 277.607377 
L 76.932211 278.657662 
L 76.414207 279.707947 
L 75.89905 279.707947 
L 76.932211 279.707947 
L 77.188367 278.657662 
L 76.932211 278.657662 
L 76.414207 281.814961 
L 76.414207 283.915532 
L 76.673209 283.915532 
L 76.932211 281.814961 
L 76.932211 279.707947 
L 76.414207 279.707947 
L 76.414207 278.657662 
L 76.932211 277.607377 
L 76.414207 278.657662 
L 75.640048 281.814961 
L 75.640048 282.865247 
L 76.155205 282.865247 
L 76.414207 284.965817 
L 76.414207 286.016102 
L 76.155205 286.016102 
L 76.155205 284.965817 
L 76.414207 284.965817 
L 76.932211 282.865247 
L 75.640048 282.865247 
L 75.12489 283.915532 
L 75.12489 282.865247 
L 74.865888 282.865247 
L 74.865888 283.915532 
L 75.381046 286.016102 
L 76.155205 286.016102 
L 76.673209 283.915532 
L 77.188367 282.865247 
L 77.447368 282.865247 
L 76.932211 282.865247 
L 76.932211 282.865247 
L 76.673209 284.965817 
L 76.155205 288.123116 
L 75.89905 288.123116 
L 75.89905 289.173402 
L 76.155205 289.173402 
L 75.89905 288.123116 
L 75.89905 286.016102 
L 76.155205 284.965817 
L 76.414207 287.072831 
L 76.673209 288.123116 
L 77.188367 287.072831 
L 77.447368 282.865247 
L 76.932211 284.965817 
L 76.673209 287.072831 
L 76.155205 288.123116 
L 75.89905 289.173402 
L 75.89905 288.123116 
L 76.673209 286.016102 
L 77.447368 286.016102 
L 77.188367 288.123116 
L 76.414207 289.173402 
L 76.155205 288.123116 
L 76.673209 287.072831 
L 76.932211 288.123116 
L 76.932211 289.173402 
L 76.414207 284.965817 
L 76.155205 284.965817 
L 76.155205 287.072831 
L 76.414207 289.173402 
L 77.188367 289.173402 
L 77.447368 290.223687 
L 76.673209 290.223687 
L 76.414207 288.123116 
L 76.414207 288.123116 
L 76.414207 287.072831 
L 76.673209 288.123116 
L 76.673209 288.123116 
L 76.932211 287.072831 
L 77.188367 284.965817 
L 76.673209 283.915532 
L 75.89905 284.965817 
L 75.640048 286.016102 
L 76.155205 288.123116 
L 77.188367 288.123116 
L 76.673209 289.173402 
L 75.89905 288.123116 
L 75.381046 287.072831 
L 75.381046 286.016102 
L 75.89905 288.123116 
L 75.89905 290.223687 
L 76.673209 290.223687 
L 76.414207 289.173402 
L 76.155205 289.173402 
L 75.381046 290.223687 
L 74.606887 290.223687 
L 75.381046 291.280416 
L 75.89905 292.330701 
L 75.640048 292.330701 
L 75.12489 291.280416 
L 75.12489 291.280416 
L 75.12489 290.223687 
L 75.89905 286.016102 
L 75.640048 287.072831 
L 75.640048 289.173402 
L 75.89905 288.123116 
L 75.89905 286.016102 
L 75.89905 287.072831 
L 75.640048 288.123116 
L 75.640048 288.123116 
L 75.640048 290.223687 
L 75.381046 292.330701 
L 75.381046 290.223687 
L 75.12489 289.173402 
L 75.12489 288.123116 
L 75.640048 289.173402 
L 75.89905 291.280416 
L 75.640048 294.431271 
L 75.12489 295.488 
L 74.865888 293.380986 
L 75.381046 290.223687 
L 75.640048 287.072831 
L 75.381046 287.072831 
L 74.865888 290.223687 
L 74.606887 294.431271 
L 74.865888 294.431271 
L 74.865888 293.380986 
L 74.606887 292.330701 
L 74.865888 293.380986 
L 75.12489 293.380986 
L 74.606887 293.380986 
L 74.347885 292.330701 
L 74.865888 290.223687 
L 74.865888 288.123116 
L 74.606887 287.072831 
L 74.606887 294.431271 
L 74.606887 294.431271 
L 74.865888 294.431271 
L 74.865888 291.280416 
L 74.865888 291.280416 
L 75.12489 292.330701 
L 75.12489 293.380986 
L 75.381046 293.380986 
L 75.381046 292.330701 
L 75.381046 294.431271 
L 75.640048 293.380986 
L 75.640048 292.330701 
L 75.640048 292.330701 
L 75.381046 293.380986 
L 75.640048 293.380986 
L 76.155205 292.330701 
L 76.932211 290.223687 
L 77.188367 289.173402 
L 78.221528 288.123116 
L 80.28785 288.123116 
L 82.613174 287.072831 
L 85.453656 282.865247 
L 89.071144 276.550648 
L 99.143754 262.877609 
L 104.824717 254.46244 
L 109.990524 247.104 
L 115.674333 239.739116 
L 122.64746 230.273662 
L 131.168905 217.650909 
L 139.693197 207.135169 
L 148.473644 198.72 
L 157.513093 187.147532 
L 166.296387 173.474493 
L 174.561676 157.700884 
L 182.567964 144.027845 
L 190.31525 133.505662 
L 198.321538 125.090493 
L 206.07167 116.675324 
L 213.559954 108.260155 
L 220.017923 101.952 
L 225.698887 97.744416 
L 231.123695 92.486546 
L 236.548503 86.178391 
L 243.003626 80.914078 
L 248.943591 76.706493 
L 254.368399 74.605922 
L 259.275203 71.448623 
L 264.959013 66.190753 
L 270.380975 61.983169 
L 275.546781 60.932884 
L 280.197429 58.82587 
L 283.812071 56.725299 
L 287.170556 55.675014 
L 289.752036 54.618285 
L 291.562203 53.568 
L 293.110521 55.675014 
L 294.143683 58.82587 
L 294.143683 61.983169 
L 292.595364 68.291324 
L 290.785197 72.498909 
L 288.977877 74.605922 
L 287.429558 77.763222 
L 286.137395 80.914078 
L 285.363235 84.071377 
L 284.330074 85.121662 
L 283.296913 85.121662 
L 282.263752 84.071377 
L 281.745748 86.178391 
L 281.230591 90.379532 
L 280.453585 91.43626 
L 280.197429 89.329247 
L 280.197429 88.278961 
L 280.197429 89.329247 
L 279.938428 92.486546 
L 279.679426 93.536831 
L 279.938428 92.486546 
L 280.712587 91.43626 
L 281.230591 91.43626 
L 281.230591 88.278961 
L 281.486746 90.379532 
L 281.486746 92.486546 
L 281.745748 93.536831 
L 282.00475 93.536831 
L 282.00475 95.643845 
L 281.745748 99.851429 
L 281.486746 101.952 
L 280.971589 100.901715 
L 280.712587 96.69413 
L 280.453585 99.851429 
L 279.679426 100.901715 
L 278.646264 100.901715 
L 278.905266 100.901715 
L 279.164268 103.002285 
L 278.646264 104.059014 
L 277.872105 103.002285 
L 277.613103 101.952 
L 278.131107 101.952 
L 278.131107 103.002285 
L 277.613103 109.316884 
L 277.872105 108.260155 
L 278.131107 105.109299 
L 278.131107 103.002285 
L 277.872105 103.002285 
L 277.872105 101.952 
L 278.131107 100.901715 
L 278.387263 101.952 
L 278.646264 104.059014 
L 278.646264 107.20987 
L 277.872105 108.260155 
L 277.097946 108.260155 
L 276.838944 107.20987 
L 277.872105 100.901715 
L 278.387263 100.901715 
L 278.387263 104.059014 
L 277.872105 101.952 
L 277.613103 101.952 
L 277.872105 101.952 
L 278.387263 103.002285 
L 278.646264 101.952 
L 278.905266 101.952 
L 279.164268 105.109299 
L 278.905266 108.260155 
L 278.905266 108.260155 
L 278.905266 106.159584 
L 278.646264 105.109299 
L 278.646264 101.952 
L 277.613103 106.159584 
L 277.354101 105.109299 
L 277.354101 105.109299 
L 277.354101 108.260155 
L 277.613103 106.159584 
L 278.131107 104.059014 
L 277.872105 105.109299 
L 277.097946 106.159584 
L 277.097946 107.20987 
L 277.613103 106.159584 
L 278.131107 106.159584 
L 278.131107 106.159584 
L 277.613103 105.109299 
L 277.354101 106.159584 
L 277.872105 108.260155 
L 277.872105 106.159584 
L 278.131107 107.20987 
L 278.387263 109.316884 
L 278.131107 109.316884 
L 277.872105 107.20987 
L 277.354101 105.109299 
L 276.838944 106.159584 
L 276.838944 108.260155 
L 277.354101 108.260155 
L 277.354101 107.20987 
L 277.097946 104.059014 
L 276.838944 103.002285 
L 276.579942 104.059014 
L 276.579942 106.159584 
L 276.838944 107.20987 
L 275.805783 109.316884 
L 276.323786 109.316884 
L 277.354101 108.260155 
L 277.613103 108.260155 
L 277.097946 108.260155 
L 276.838944 107.20987 
L 277.097946 106.159584 
L 277.613103 106.159584 
L 277.613103 108.260155 
L 276.838944 108.260155 
L 276.323786 109.316884 
L 275.546781 109.316884 
L 275.290625 111.417454 
L 275.805783 107.20987 
L 276.323786 107.20987 
L 276.838944 109.316884 
L 276.579942 110.367169 
L 275.546781 112.46774 
L 275.290625 112.46774 
L 275.290625 109.316884 
L 275.546781 107.20987 
L 275.805783 108.260155 
L 275.805783 108.260155 
L 276.064785 108.260155 
L 276.064785 109.316884 
L 275.546781 110.367169 
L 274.772621 110.367169 
L 275.031623 110.367169 
L 275.546781 112.46774 
L 275.290625 115.625039 
L 274.772621 116.675324 
L 275.546781 113.524468 
L 275.805783 108.260155 
L 275.805783 111.417454 
L 276.579942 115.625039 
L 276.579942 110.367169 
L 276.323786 109.316884 
L 276.579942 109.316884 
L 276.323786 110.367169 
L 275.805783 111.417454 
L 275.546781 111.417454 
L 276.064785 111.417454 
L 276.579942 112.46774 
L 276.064785 112.46774 
L 275.805783 111.417454 
L 275.805783 108.260155 
L 275.031623 108.260155 
L 274.772621 110.367169 
L 275.290625 112.46774 
L 276.064785 113.524468 
L 276.323786 113.524468 
L 275.805783 113.524468 
L 275.031623 108.260155 
L 275.031623 107.20987 
L 275.290625 107.20987 
L 276.323786 109.316884 
L 276.579942 110.367169 
L 276.323786 111.417454 
L 276.064785 110.367169 
L 276.064785 108.260155 
L 276.323786 107.20987 
L 276.064785 107.20987 
L 275.805783 108.260155 
L 276.064785 107.20987 
L 276.064785 108.260155 
L 276.323786 109.316884 
L 275.805783 109.316884 
L 275.031623 108.260155 
L 275.031623 107.20987 
L 275.546781 108.260155 
L 275.805783 108.260155 
L 275.290625 109.316884 
L 275.290625 110.367169 
L 276.064785 112.46774 
L 276.323786 114.574753 
L 276.323786 114.574753 
L 275.805783 112.46774 
L 275.031623 107.20987 
L 275.290625 109.316884 
L 275.805783 110.367169 
L 276.064785 110.367169 
L 276.064785 110.367169 
L 276.064785 109.316884 
L 276.064785 110.367169 
L 276.323786 110.367169 
L 275.805783 108.260155 
L 275.805783 107.20987 
L 275.805783 109.316884 
L 276.323786 112.46774 
L 276.579942 112.46774 
L 276.579942 106.159584 
L 276.323786 108.260155 
L 275.546781 111.417454 
L 275.290625 111.417454 
L 275.290625 112.46774 
L 275.290625 112.46774 
L 275.805783 112.46774 
L 275.805783 112.46774 
L 275.031623 113.524468 
L 274.257464 113.524468 
L 274.257464 111.417454 
L 274.772621 109.316884 
L 275.546781 109.316884 
L 275.805783 110.367169 
L 276.064785 112.46774 
L 276.064785 112.46774 
L 275.290625 110.367169 
L 274.51362 110.367169 
L 274.51362 111.417454 
L 275.031623 112.46774 
L 275.031623 110.367169 
L 275.031623 110.367169 
L 275.546781 111.417454 
L 275.805783 112.46774 
L 275.805783 115.625039 
L 275.805783 113.524468 
L 275.546781 109.316884 
L 275.290625 107.20987 
L 275.031623 108.260155 
L 274.51362 108.260155 
L 274.51362 109.316884 
L 274.772621 111.417454 
L 274.772621 113.524468 
L 274.51362 115.625039 
L 275.290625 112.46774 
L 275.546781 112.46774 
L 274.51362 112.46774 
L 274.772621 110.367169 
L 275.031623 109.316884 
L 275.290625 111.417454 
L 275.031623 113.524468 
L 274.772621 111.417454 
L 274.257464 110.367169 
L 273.998462 111.417454 
L 274.257464 114.574753 
L 274.772621 115.625039 
L 274.772621 112.46774 
L 273.998462 112.46774 
L 273.480458 111.417454 
L 273.480458 110.367169 
L 273.480458 110.367169 
L 273.73946 110.367169 
L 273.73946 113.524468 
L 274.257464 112.46774 
L 274.772621 113.524468 
L 274.772621 115.625039 
L 274.257464 116.675324 
L 273.480458 114.574753 
L 273.480458 113.524468 
L 273.480458 113.524468 
L 272.965301 111.417454 
L 273.224303 112.46774 
L 273.73946 113.524468 
L 273.73946 112.46774 
L 273.73946 113.524468 
L 273.998462 114.574753 
L 274.257464 116.675324 
L 274.257464 116.675324 
L 273.998462 116.675324 
L 273.73946 114.574753 
L 273.998462 112.46774 
L 274.257464 112.46774 
L 274.51362 113.524468 
L 273.73946 116.675324 
L 273.224303 116.675324 
L 273.480458 113.524468 
L 274.257464 110.367169 
L 275.031623 110.367169 
L 274.772621 113.524468 
L 273.998462 116.675324 
L 274.257464 115.625039 
L 274.257464 112.46774 
L 273.998462 110.367169 
L 273.73946 112.46774 
L 273.998462 113.524468 
L 274.51362 112.46774 
L 274.772621 110.367169 
L 275.031623 110.367169 
L 274.772621 110.367169 
L 274.257464 108.260155 
L 274.257464 108.260155 
L 273.998462 110.367169 
L 273.73946 110.367169 
L 273.73946 110.367169 
L 274.257464 109.316884 
L 275.290625 109.316884 
L 275.546781 108.260155 
L 275.546781 106.159584 
L 275.031623 106.159584 
L 274.51362 107.20987 
L 274.772621 109.316884 
L 274.51362 111.417454 
L 274.257464 112.46774 
L 274.51362 112.46774 
L 275.546781 108.260155 
L 275.805783 106.159584 
L 275.805783 106.159584 
L 275.290625 107.20987 
L 275.546781 108.260155 
L 276.579942 104.059014 
L 276.064785 106.159584 
L 275.805783 110.367169 
L 275.805783 109.316884 
L 275.290625 105.109299 
L 275.031623 104.059014 
L 274.772621 104.059014 
L 274.772621 104.059014 
L 275.290625 103.002285 
L 275.805783 100.901715 
L 275.546781 99.851429 
L 275.031623 103.002285 
L 274.772621 106.159584 
L 275.546781 110.367169 
L 275.290625 109.316884 
L 275.290625 106.159584 
L 275.546781 101.952 
L 275.031623 103.002285 
L 275.031623 104.059014 
L 275.290625 105.109299 
L 275.546781 105.109299 
L 275.290625 101.952 
L 274.51362 99.851429 
L 273.998462 100.901715 
L 274.51362 101.952 
L 275.546781 103.002285 
L 276.064785 103.002285 
L 275.546781 104.059014 
L 275.290625 104.059014 
L 275.805783 104.059014 
L 275.805783 104.059014 
L 275.290625 103.002285 
L 275.031623 103.002285 
L 275.031623 104.059014 
L 275.290625 104.059014 
L 275.290625 103.002285 
L 275.546781 103.002285 
L 276.323786 108.260155 
L 275.805783 108.260155 
L 275.546781 107.20987 
L 275.546781 107.20987 
L 275.546781 109.316884 
L 275.546781 105.109299 
L 275.290625 104.059014 
L 275.031623 105.109299 
L 274.772621 105.109299 
L 275.290625 103.002285 
L 275.805783 104.059014 
L 276.064785 105.109299 
L 275.805783 103.002285 
L 275.546781 99.851429 
L 275.546781 100.901715 
L 275.805783 107.20987 
L 275.546781 105.109299 
L 275.031623 104.059014 
L 275.031623 103.002285 
L 275.546781 104.059014 
L 275.805783 104.059014 
L 275.805783 105.109299 
L 275.805783 105.109299 
L 275.546781 106.159584 
L 275.290625 106.159584 
L 275.546781 105.109299 
L 275.805783 106.159584 
L 275.546781 109.316884 
L 274.772621 111.417454 
L 274.51362 109.316884 
L 274.772621 106.159584 
L 275.290625 105.109299 
L 275.290625 104.059014 
L 275.031623 104.059014 
L 275.031623 105.109299 
L 275.290625 104.059014 
L 275.290625 101.952 
L 275.290625 106.159584 
L 275.031623 107.20987 
L 274.51362 108.260155 
L 274.257464 109.316884 
L 274.772621 109.316884 
L 275.805783 108.260155 
L 276.323786 108.260155 
L 276.064785 109.316884 
L 275.290625 109.316884 
L 275.031623 110.367169 
L 275.290625 109.316884 
L 275.546781 107.20987 
L 275.290625 107.20987 
L 274.772621 112.46774 
L 274.51362 110.367169 
L 274.772621 109.316884 
L 275.031623 110.367169 
L 275.290625 109.316884 
L 275.290625 109.316884 
L 274.51362 109.316884 
L 275.805783 109.316884 
L 276.064785 110.367169 
L 275.031623 108.260155 
L 274.257464 106.159584 
L 274.257464 106.159584 
L 274.51362 109.316884 
L 274.51362 112.46774 
L 275.290625 111.417454 
L 275.546781 108.260155 
L 275.546781 106.159584 
L 275.546781 106.159584 
L 275.290625 108.260155 
L 275.290625 109.316884 
L 275.546781 108.260155 
L 275.290625 108.260155 
L 274.51362 109.316884 
L 274.257464 108.260155 
L 274.257464 108.260155 
L 274.772621 109.316884 
L 275.290625 109.316884 
L 275.805783 108.260155 
L 275.290625 106.159584 
L 274.772621 107.20987 
L 274.772621 108.260155 
L 275.031623 107.20987 
L 275.290625 107.20987 
L 275.290625 108.260155 
L 275.031623 111.417454 
L 275.290625 112.46774 
L 275.290625 113.524468 
L 275.031623 114.574753 
L 274.51362 112.46774 
L 273.998462 111.417454 
L 273.73946 111.417454 
L 273.998462 111.417454 
L 273.998462 109.316884 
L 273.73946 109.316884 
L 273.73946 110.367169 
L 274.257464 111.417454 
L 275.290625 109.316884 
L 275.546781 108.260155 
L 275.290625 107.20987 
L 275.031623 107.20987 
L 274.772621 108.260155 
L 274.772621 109.316884 
L 275.031623 107.20987 
L 274.772621 105.109299 
L 273.998462 103.002285 
L 274.257464 105.109299 
L 275.031623 107.20987 
L 275.546781 108.260155 
L 274.51362 106.159584 
L 274.51362 108.260155 
L 274.257464 110.367169 
L 273.998462 111.417454 
L 273.998462 110.367169 
L 274.51362 110.367169 
L 274.772621 112.46774 
L 274.772621 113.524468 
L 274.51362 113.524468 
L 274.257464 111.417454 
L 274.257464 110.367169 
L 274.51362 109.316884 
L 274.51362 108.260155 
L 274.51362 109.316884 
L 274.257464 111.417454 
L 274.257464 112.46774 
L 273.998462 112.46774 
L 273.998462 114.574753 
L 274.257464 114.574753 
L 273.998462 112.46774 
L 273.998462 111.417454 
L 273.73946 109.316884 
L 273.73946 108.260155 
L 273.480458 108.260155 
L 273.480458 109.316884 
L 273.480458 109.316884 
L 273.224303 109.316884 
L 273.73946 110.367169 
L 273.998462 111.417454 
L 273.73946 113.524468 
L 273.480458 113.524468 
L 273.73946 113.524468 
L 273.998462 114.574753 
L 273.998462 116.675324 
L 274.257464 117.732053 
L 274.51362 115.625039 
L 274.257464 113.524468 
L 273.73946 113.524468 
L 273.224303 112.46774 
L 272.965301 110.367169 
L 273.224303 109.316884 
L 272.965301 110.367169 
L 273.224303 112.46774 
L 273.998462 112.46774 
L 273.73946 112.46774 
L 273.224303 113.524468 
L 272.965301 114.574753 
L 272.965301 115.625039 
L 273.480458 111.417454 
L 273.224303 111.417454 
L 272.706299 112.46774 
L 271.414136 110.367169 
L 270.380975 109.316884 
L 268.573654 111.417454 
L 266.24833 115.625039 
L 263.66685 118.782338 
L 261.08537 120.882909 
L 258.242042 118.782338 
L 254.886403 114.574753 
L 251.527917 111.417454 
L 243.262628 107.20987 
L 227.765209 107.20987 
L 212.011636 104.059014 
L 206.327826 106.159584 
L 200.38786 110.367169 
L 194.188893 116.675324 
L 187.474768 119.832623 
L 181.275801 120.882909 
L 174.561676 124.040208 
L 167.58855 130.348363 
L 160.356421 134.555947 
L 153.124293 137.713247 
L 145.892164 142.971116 
L 138.401034 148.228986 
L 130.91275 152.436571 
L 123.936777 154.543584 
L 117.996811 157.700884 
L 113.349009 161.908468 
L 108.957362 166.109609 
L 104.30956 169.266909 
L 99.658911 173.474493 
L 91.393622 186.097247 
L 87.263823 191.355116 
L 84.938499 194.512416 
L 83.646336 197.669715 
L 82.098017 199.770285 
L 81.064856 202.927584 
L 81.064856 208.185454 
L 81.321011 209.23574 
L 81.321011 207.135169 
L 82.098017 202.927584 
L 83.646336 201.877299 
L 85.197501 206.07844 
L 85.97166 209.23574 
L 87.004821 208.185454 
L 87.778981 208.185454 
L 88.55314 210.286025 
L 89.330145 210.286025 
L 89.845303 207.135169 
L 90.104305 203.97787 
L 90.104305 203.97787 
L 90.104305 207.135169 
L 90.363307 209.23574 
L 90.104305 209.23574 
L 89.330145 207.135169 
L 88.296984 206.07844 
L 87.778981 207.135169 
L 87.004821 212.393039 
L 86.745819 212.393039 
L 85.97166 211.342753 
L 84.938499 212.393039 
L 84.420495 213.443324 
L 84.679497 213.443324 
L 84.679497 217.650909 
L 84.938499 219.757922 
L 85.712658 220.808208 
L 86.230662 221.858493 
L 85.97166 223.959064 
L 85.712658 225.015792 
L 85.712658 223.959064 
L 85.97166 222.908778 
L 85.97166 220.808208 
L 85.453656 220.808208 
L 84.938499 221.858493 
L 84.938499 222.908778 
L 85.197501 221.858493 
L 85.453656 222.908778 
L 85.712658 226.066078 
L 85.453656 227.116363 
L 85.197501 226.066078 
L 85.453656 226.066078 
L 85.97166 228.166648 
L 85.97166 228.166648 
L 85.453656 228.166648 
L 84.938499 230.273662 
L 84.938499 230.273662 
L 84.938499 233.430961 
L 84.420495 234.481247 
L 83.646336 232.374233 
L 83.646336 230.273662 
L 83.905338 231.323947 
L 83.646336 232.374233 
L 83.646336 233.430961 
L 84.164339 234.481247 
L 84.679497 236.581817 
L 84.420495 237.638546 
L 84.164339 236.581817 
L 84.164339 236.581817 
L 83.905338 237.638546 
L 83.905338 238.688831 
L 83.905338 235.531532 
L 83.905338 237.638546 
L 84.164339 238.688831 
L 84.164339 238.688831 
L 83.646336 239.739116 
L 82.872176 246.047271 
L 83.646336 246.047271 
L 84.164339 243.946701 
L 83.905338 241.84613 
L 83.387334 241.84613 
L 83.387334 241.84613 
L 83.387334 242.896416 
L 82.872176 243.946701 
L 82.098017 243.946701 
L 82.613174 246.047271 
L 82.354173 246.047271 
L 82.354173 246.047271 
L 82.872176 244.996986 
L 83.131178 246.047271 
L 82.872176 248.154285 
L 82.613174 248.154285 
L 82.354173 246.047271 
L 82.613174 248.154285 
L 82.613174 250.254856 
L 82.354173 251.311584 
L 82.613174 251.311584 
L 82.872176 252.36187 
L 83.387334 252.36187 
L 83.387334 251.311584 
L 83.387334 253.412155 
L 82.872176 254.46244 
L 82.098017 255.519169 
L 81.321011 254.46244 
L 81.064856 254.46244 
L 81.580013 255.519169 
L 82.354173 255.519169 
L 82.098017 257.61974 
L 82.098017 259.726753 
L 82.354173 260.777039 
L 82.354173 260.777039 
L 82.098017 258.670025 
L 81.839015 258.670025 
L 81.580013 257.61974 
L 81.839015 258.670025 
L 82.098017 258.670025 
L 82.098017 257.61974 
L 81.064856 257.61974 
L 80.28785 256.569454 
L 79.772693 256.569454 
L 79.254689 259.726753 
L 78.998533 262.877609 
L 79.513691 261.827324 
L 80.28785 261.827324 
L 80.28785 260.777039 
L 79.772693 262.877609 
L 80.031695 261.827324 
L 80.546852 261.827324 
L 80.031695 261.827324 
L 80.031695 266.034909 
L 79.772693 268.135479 
L 79.254689 269.192208 
L 79.254689 268.135479 
L 79.513691 264.984623 
L 79.513691 262.877609 
L 79.772693 262.877609 
L 80.031695 264.984623 
L 80.031695 267.085194 
L 79.772693 268.135479 
L 79.254689 267.085194 
L 78.739531 264.984623 
L 78.48053 264.984623 
L 78.739531 266.034909 
L 79.254689 267.085194 
L 80.031695 269.192208 
L 80.28785 270.242493 
L 79.772693 270.242493 
L 79.772693 270.242493 
L 79.254689 268.135479 
L 78.998533 263.927895 
L 79.254689 262.877609 
L 79.254689 262.877609 
" style="fill:none;stroke:#1f77b4;stroke-linecap:square;stroke-width:1.5;"/>
   </g>
   <g id="matplotlib.axis_1">
    <g id="xtick_1">
     <g id="line2d_2">
      <defs>
       <path d="M 0 0 
L 0 3.5 
" id="m211344415c" style="stroke:#000000;stroke-width:0.8;"/>
      </defs>
      <g>
       <use style="stroke:#000000;stroke-width:0.8;" x="75.321276" xlink:href="#m211344415c" y="307.584"/>
      </g>
     </g>
     <g id="text_1">
      <!-- −400 -->
      <defs>
       <path d="M 10.59375 35.5 
L 73.1875 35.5 
L 73.1875 27.203125 
L 10.59375 27.203125 
z
" id="DejaVuSans-8722"/>
       <path d="M 37.796875 64.3125 
L 12.890625 25.390625 
L 37.796875 25.390625 
z
M 35.203125 72.90625 
L 47.609375 72.90625 
L 47.609375 25.390625 
L 58.015625 25.390625 
L 58.015625 17.1875 
L 47.609375 17.1875 
L 47.609375 0 
L 37.796875 0 
L 37.796875 17.1875 
L 4.890625 17.1875 
L 4.890625 26.703125 
z
" id="DejaVuSans-52"/>
       <path d="M 31.78125 66.40625 
Q 24.171875 66.40625 20.328125 58.90625 
Q 16.5 51.421875 16.5 36.375 
Q 16.5 21.390625 20.328125 13.890625 
Q 24.171875 6.390625 31.78125 6.390625 
Q 39.453125 6.390625 43.28125 13.890625 
Q 47.125 21.390625 47.125 36.375 
Q 47.125 51.421875 43.28125 58.90625 
Q 39.453125 66.40625 31.78125 66.40625 
z
M 31.78125 74.21875 
Q 44.046875 74.21875 50.515625 64.515625 
Q 56.984375 54.828125 56.984375 36.375 
Q 56.984375 17.96875 50.515625 8.265625 
Q 44.046875 -1.421875 31.78125 -1.421875 
Q 19.53125 -1.421875 13.0625 8.265625 
Q 6.59375 17.96875 6.59375 36.375 
Q 6.59375 54.828125 13.0625 64.515625 
Q 19.53125 74.21875 31.78125 74.21875 
z
" id="DejaVuSans-48"/>
      </defs>
      <g transform="translate(61.587683 322.182437)scale(0.1 -0.1)">
       <use xlink:href="#DejaVuSans-8722"/>
       <use x="83.789062" xlink:href="#DejaVuSans-52"/>
       <use x="147.412109" xlink:href="#DejaVuSans-48"/>
       <use x="211.035156" xlink:href="#DejaVuSans-48"/>
      </g>
     </g>
    </g>
    <g id="xtick_2">
     <g id="line2d_3">
      <g>
       <use style="stroke:#000000;stroke-width:0.8;" x="132.244759" xlink:href="#m211344415c" y="307.584"/>
      </g>
     </g>
     <g id="text_2">
      <!-- −200 -->
      <defs>
       <path d="M 19.1875 8.296875 
L 53.609375 8.296875 
L 53.609375 0 
L 7.328125 0 
L 7.328125 8.296875 
Q 12.9375 14.109375 22.625 23.890625 
Q 32.328125 33.6875 34.8125 36.53125 
Q 39.546875 41.84375 41.421875 45.53125 
Q 43.3125 49.21875 43.3125 52.78125 
Q 43.3125 58.59375 39.234375 62.25 
Q 35.15625 65.921875 28.609375 65.921875 
Q 23.96875 65.921875 18.8125 64.3125 
Q 13.671875 62.703125 7.8125 59.421875 
L 7.8125 69.390625 
Q 13.765625 71.78125 18.9375 73 
Q 24.125 74.21875 28.421875 74.21875 
Q 39.75 74.21875 46.484375 68.546875 
Q 53.21875 62.890625 53.21875 53.421875 
Q 53.21875 48.921875 51.53125 44.890625 
Q 49.859375 40.875 45.40625 35.40625 
Q 44.1875 33.984375 37.640625 27.21875 
Q 31.109375 20.453125 19.1875 8.296875 
z
" id="DejaVuSans-50"/>
      </defs>
      <g transform="translate(118.511165 322.182437)scale(0.1 -0.1)">
       <use xlink:href="#DejaVuSans-8722"/>
       <use x="83.789062" xlink:href="#DejaVuSans-50"/>
       <use x="147.412109" xlink:href="#DejaVuSans-48"/>
       <use x="211.035156" xlink:href="#DejaVuSans-48"/>
      </g>
     </g>
    </g>
    <g id="xtick_3">
     <g id="line2d_4">
      <g>
       <use style="stroke:#000000;stroke-width:0.8;" x="189.168242" xlink:href="#m211344415c" y="307.584"/>
      </g>
     </g>
     <g id="text_3">
      <!-- 0 -->
      <g transform="translate(185.986992 322.182437)scale(0.1 -0.1)">
       <use xlink:href="#DejaVuSans-48"/>
      </g>
     </g>
    </g>
    <g id="xtick_4">
     <g id="line2d_5">
      <g>
       <use style="stroke:#000000;stroke-width:0.8;" x="246.091725" xlink:href="#m211344415c" y="307.584"/>
      </g>
     </g>
     <g id="text_4">
      <!-- 200 -->
      <g transform="translate(236.547975 322.182437)scale(0.1 -0.1)">
       <use xlink:href="#DejaVuSans-50"/>
       <use x="63.623047" xlink:href="#DejaVuSans-48"/>
       <use x="127.246094" xlink:href="#DejaVuSans-48"/>
      </g>
     </g>
    </g>
    <g id="xtick_5">
     <g id="line2d_6">
      <g>
       <use style="stroke:#000000;stroke-width:0.8;" x="303.015207" xlink:href="#m211344415c" y="307.584"/>
      </g>
     </g>
     <g id="text_5">
      <!-- 400 -->
      <g transform="translate(293.471457 322.182437)scale(0.1 -0.1)">
       <use xlink:href="#DejaVuSans-52"/>
       <use x="63.623047" xlink:href="#DejaVuSans-48"/>
       <use x="127.246094" xlink:href="#DejaVuSans-48"/>
      </g>
     </g>
    </g>
    <g id="xtick_6">
     <g id="line2d_7">
      <g>
       <use style="stroke:#000000;stroke-width:0.8;" x="359.93869" xlink:href="#m211344415c" y="307.584"/>
      </g>
     </g>
     <g id="text_6">
      <!-- 600 -->
      <defs>
       <path d="M 33.015625 40.375 
Q 26.375 40.375 22.484375 35.828125 
Q 18.609375 31.296875 18.609375 23.390625 
Q 18.609375 15.53125 22.484375 10.953125 
Q 26.375 6.390625 33.015625 6.390625 
Q 39.65625 6.390625 43.53125 10.953125 
Q 47.40625 15.53125 47.40625 23.390625 
Q 47.40625 31.296875 43.53125 35.828125 
Q 39.65625 40.375 33.015625 40.375 
z
M 52.59375 71.296875 
L 52.59375 62.3125 
Q 48.875 64.0625 45.09375 64.984375 
Q 41.3125 65.921875 37.59375 65.921875 
Q 27.828125 65.921875 22.671875 59.328125 
Q 17.53125 52.734375 16.796875 39.40625 
Q 19.671875 43.65625 24.015625 45.921875 
Q 28.375 48.1875 33.59375 48.1875 
Q 44.578125 48.1875 50.953125 41.515625 
Q 57.328125 34.859375 57.328125 23.390625 
Q 57.328125 12.15625 50.6875 5.359375 
Q 44.046875 -1.421875 33.015625 -1.421875 
Q 20.359375 -1.421875 13.671875 8.265625 
Q 6.984375 17.96875 6.984375 36.375 
Q 6.984375 53.65625 15.1875 63.9375 
Q 23.390625 74.21875 37.203125 74.21875 
Q 40.921875 74.21875 44.703125 73.484375 
Q 48.484375 72.75 52.59375 71.296875 
z
" id="DejaVuSans-54"/>
      </defs>
      <g transform="translate(350.39494 322.182437)scale(0.1 -0.1)">
       <use xlink:href="#DejaVuSans-54"/>
       <use x="63.623047" xlink:href="#DejaVuSans-48"/>
       <use x="127.246094" xlink:href="#DejaVuSans-48"/>
      </g>
     </g>
    </g>
   </g>
   <g id="matplotlib.axis_2">
    <g id="ytick_1">
     <g id="line2d_8">
      <defs>
       <path d="M 0 0 
L -3.5 0 
" id="m0a7a835bc6" style="stroke:#000000;stroke-width:0.8;"/>
      </defs>
      <g>
       <use style="stroke:#000000;stroke-width:0.8;" x="57.6" xlink:href="#m0a7a835bc6" y="300.526792"/>
      </g>
     </g>
     <g id="text_7">
      <!-- −400 -->
      <g transform="translate(23.132812 304.326011)scale(0.1 -0.1)">
       <use xlink:href="#DejaVuSans-8722"/>
       <use x="83.789062" xlink:href="#DejaVuSans-52"/>
       <use x="147.412109" xlink:href="#DejaVuSans-48"/>
       <use x="211.035156" xlink:href="#DejaVuSans-48"/>
      </g>
     </g>
    </g>
    <g id="ytick_2">
     <g id="line2d_9">
      <g>
       <use style="stroke:#000000;stroke-width:0.8;" x="57.6" xlink:href="#m0a7a835bc6" y="268.309453"/>
      </g>
     </g>
     <g id="text_8">
      <!-- −350 -->
      <defs>
       <path d="M 40.578125 39.3125 
Q 47.65625 37.796875 51.625 33 
Q 55.609375 28.21875 55.609375 21.1875 
Q 55.609375 10.40625 48.1875 4.484375 
Q 40.765625 -1.421875 27.09375 -1.421875 
Q 22.515625 -1.421875 17.65625 -0.515625 
Q 12.796875 0.390625 7.625 2.203125 
L 7.625 11.71875 
Q 11.71875 9.328125 16.59375 8.109375 
Q 21.484375 6.890625 26.8125 6.890625 
Q 36.078125 6.890625 40.9375 10.546875 
Q 45.796875 14.203125 45.796875 21.1875 
Q 45.796875 27.640625 41.28125 31.265625 
Q 36.765625 34.90625 28.71875 34.90625 
L 20.21875 34.90625 
L 20.21875 43.015625 
L 29.109375 43.015625 
Q 36.375 43.015625 40.234375 45.921875 
Q 44.09375 48.828125 44.09375 54.296875 
Q 44.09375 59.90625 40.109375 62.90625 
Q 36.140625 65.921875 28.71875 65.921875 
Q 24.65625 65.921875 20.015625 65.03125 
Q 15.375 64.15625 9.8125 62.3125 
L 9.8125 71.09375 
Q 15.4375 72.65625 20.34375 73.4375 
Q 25.25 74.21875 29.59375 74.21875 
Q 40.828125 74.21875 47.359375 69.109375 
Q 53.90625 64.015625 53.90625 55.328125 
Q 53.90625 49.265625 50.4375 45.09375 
Q 46.96875 40.921875 40.578125 39.3125 
z
" id="DejaVuSans-51"/>
       <path d="M 10.796875 72.90625 
L 49.515625 72.90625 
L 49.515625 64.59375 
L 19.828125 64.59375 
L 19.828125 46.734375 
Q 21.96875 47.46875 24.109375 47.828125 
Q 26.265625 48.1875 28.421875 48.1875 
Q 40.625 48.1875 47.75 41.5 
Q 54.890625 34.8125 54.890625 23.390625 
Q 54.890625 11.625 47.5625 5.09375 
Q 40.234375 -1.421875 26.90625 -1.421875 
Q 22.3125 -1.421875 17.546875 -0.640625 
Q 12.796875 0.140625 7.71875 1.703125 
L 7.71875 11.625 
Q 12.109375 9.234375 16.796875 8.0625 
Q 21.484375 6.890625 26.703125 6.890625 
Q 35.15625 6.890625 40.078125 11.328125 
Q 45.015625 15.765625 45.015625 23.390625 
Q 45.015625 31 40.078125 35.4375 
Q 35.15625 39.890625 26.703125 39.890625 
Q 22.75 39.890625 18.8125 39.015625 
Q 14.890625 38.140625 10.796875 36.28125 
z
" id="DejaVuSans-53"/>
      </defs>
      <g transform="translate(23.132812 272.108671)scale(0.1 -0.1)">
       <use xlink:href="#DejaVuSans-8722"/>
       <use x="83.789062" xlink:href="#DejaVuSans-51"/>
       <use x="147.412109" xlink:href="#DejaVuSans-53"/>
       <use x="211.035156" xlink:href="#DejaVuSans-48"/>
      </g>
     </g>
    </g>
    <g id="ytick_3">
     <g id="line2d_10">
      <g>
       <use style="stroke:#000000;stroke-width:0.8;" x="57.6" xlink:href="#m0a7a835bc6" y="236.092113"/>
      </g>
     </g>
     <g id="text_9">
      <!-- −300 -->
      <g transform="translate(23.132812 239.891332)scale(0.1 -0.1)">
       <use xlink:href="#DejaVuSans-8722"/>
       <use x="83.789062" xlink:href="#DejaVuSans-51"/>
       <use x="147.412109" xlink:href="#DejaVuSans-48"/>
       <use x="211.035156" xlink:href="#DejaVuSans-48"/>
      </g>
     </g>
    </g>
    <g id="ytick_4">
     <g id="line2d_11">
      <g>
       <use style="stroke:#000000;stroke-width:0.8;" x="57.6" xlink:href="#m0a7a835bc6" y="203.874774"/>
      </g>
     </g>
     <g id="text_10">
      <!-- −250 -->
      <g transform="translate(23.132812 207.673993)scale(0.1 -0.1)">
       <use xlink:href="#DejaVuSans-8722"/>
       <use x="83.789062" xlink:href="#DejaVuSans-50"/>
       <use x="147.412109" xlink:href="#DejaVuSans-53"/>
       <use x="211.035156" xlink:href="#DejaVuSans-48"/>
      </g>
     </g>
    </g>
    <g id="ytick_5">
     <g id="line2d_12">
      <g>
       <use style="stroke:#000000;stroke-width:0.8;" x="57.6" xlink:href="#m0a7a835bc6" y="171.657435"/>
      </g>
     </g>
     <g id="text_11">
      <!-- −200 -->
      <g transform="translate(23.132812 175.456654)scale(0.1 -0.1)">
       <use xlink:href="#DejaVuSans-8722"/>
       <use x="83.789062" xlink:href="#DejaVuSans-50"/>
       <use x="147.412109" xlink:href="#DejaVuSans-48"/>
       <use x="211.035156" xlink:href="#DejaVuSans-48"/>
      </g>
     </g>
    </g>
    <g id="ytick_6">
     <g id="line2d_13">
      <g>
       <use style="stroke:#000000;stroke-width:0.8;" x="57.6" xlink:href="#m0a7a835bc6" y="139.440096"/>
      </g>
     </g>
     <g id="text_12">
      <!-- −150 -->
      <defs>
       <path d="M 12.40625 8.296875 
L 28.515625 8.296875 
L 28.515625 63.921875 
L 10.984375 60.40625 
L 10.984375 69.390625 
L 28.421875 72.90625 
L 38.28125 72.90625 
L 38.28125 8.296875 
L 54.390625 8.296875 
L 54.390625 0 
L 12.40625 0 
z
" id="DejaVuSans-49"/>
      </defs>
      <g transform="translate(23.132812 143.239315)scale(0.1 -0.1)">
       <use xlink:href="#DejaVuSans-8722"/>
       <use x="83.789062" xlink:href="#DejaVuSans-49"/>
       <use x="147.412109" xlink:href="#DejaVuSans-53"/>
       <use x="211.035156" xlink:href="#DejaVuSans-48"/>
      </g>
     </g>
    </g>
    <g id="ytick_7">
     <g id="line2d_14">
      <g>
       <use style="stroke:#000000;stroke-width:0.8;" x="57.6" xlink:href="#m0a7a835bc6" y="107.222757"/>
      </g>
     </g>
     <g id="text_13">
      <!-- −100 -->
      <g transform="translate(23.132812 111.021975)scale(0.1 -0.1)">
       <use xlink:href="#DejaVuSans-8722"/>
       <use x="83.789062" xlink:href="#DejaVuSans-49"/>
       <use x="147.412109" xlink:href="#DejaVuSans-48"/>
       <use x="211.035156" xlink:href="#DejaVuSans-48"/>
      </g>
     </g>
    </g>
    <g id="ytick_8">
     <g id="line2d_15">
      <g>
       <use style="stroke:#000000;stroke-width:0.8;" x="57.6" xlink:href="#m0a7a835bc6" y="75.005417"/>
      </g>
     </g>
     <g id="text_14">
      <!-- −50 -->
      <g transform="translate(29.495313 78.804636)scale(0.1 -0.1)">
       <use xlink:href="#DejaVuSans-8722"/>
       <use x="83.789062" xlink:href="#DejaVuSans-53"/>
       <use x="147.412109" xlink:href="#DejaVuSans-48"/>
      </g>
     </g>
    </g>
    <g id="ytick_9">
     <g id="line2d_16">
      <g>
       <use style="stroke:#000000;stroke-width:0.8;" x="57.6" xlink:href="#m0a7a835bc6" y="42.788078"/>
      </g>
     </g>
     <g id="text_15">
      <!-- 0 -->
      <g transform="translate(44.2375 46.587297)scale(0.1 -0.1)">
       <use xlink:href="#DejaVuSans-48"/>
      </g>
     </g>
    </g>
   </g>
   <g id="line2d_17">
    <path clip-path="url(#p588601a264)" d="M 391.184069 90.424856 
L 194.006366 156.371181 
L 79.240067 258.995526 
L 77.692237 285.173429 
L 275.704072 106.66238 
L 85.997657 225.146539 
" style="fill:none;stroke:#ff0000;stroke-linecap:square;stroke-width:0.5;"/>
   </g>
   <g id="patch_3">
    <path d="M 57.6 307.584 
L 57.6 41.472 
" style="fill:none;stroke:#000000;stroke-linecap:square;stroke-linejoin:miter;stroke-width:0.8;"/>
   </g>
   <g id="patch_4">
    <path d="M 414.72 307.584 
L 414.72 41.472 
" style="fill:none;stroke:#000000;stroke-linecap:square;stroke-linejoin:miter;stroke-width:0.8;"/>
   </g>
   <g id="patch_5">
    <path d="M 57.6 307.584 
L 414.72 307.584 
" style="fill:none;stroke:#000000;stroke-linecap:square;stroke-linejoin:miter;stroke-width:0.8;"/>
   </g>
   <g id="patch_6">
    <path d="M 57.6 41.472 
L 414.72 41.472 
" style="fill:none;stroke:#000000;stroke-linecap:square;stroke-linejoin:miter;stroke-width:0.8;"/>
   </g>
   <g id="PathCollection_1">
    <defs>
     <path d="M 0 2.738613 
C 0.726289 2.738613 1.422928 2.450055 1.936492 1.936492 
C 2.450055 1.422928 2.738613 0.726289 2.738613 0 
C 2.738613 -0.726289 2.450055 -1.422928 1.936492 -1.936492 
C 1.422928 -2.450055 0.726289 -2.738613 0 -2.738613 
C -0.726289 -2.738613 -1.422928 -2.450055 -1.936492 -1.936492 
C -2.450055 -1.422928 -2.738613 -0.726289 -2.738613 0 
C -2.738613 0.726289 -2.450055 1.422928 -1.936492 1.936492 
C -1.422928 2.450055 -0.726289 2.738613 0 2.738613 
z
" id="m9e07860732" style="stroke:#ff0000;"/>
    </defs>
    <g clip-path="url(#p588601a264)">
     <use style="fill:#ff0000;stroke:#ff0000;" x="391.184069" xlink:href="#m9e07860732" y="90.424856"/>
     <use style="fill:#ff0000;stroke:#ff0000;" x="194.006366" xlink:href="#m9e07860732" y="156.371181"/>
     <use style="fill:#ff0000;stroke:#ff0000;" x="79.240067" xlink:href="#m9e07860732" y="258.995526"/>
     <use style="fill:#ff0000;stroke:#ff0000;" x="77.692237" xlink:href="#m9e07860732" y="285.173429"/>
     <use style="fill:#ff0000;stroke:#ff0000;" x="275.704072" xlink:href="#m9e07860732" y="106.66238"/>
     <use style="fill:#ff0000;stroke:#ff0000;" x="85.997657" xlink:href="#m9e07860732" y="225.146539"/>
    </g>
   </g>
   <g id="text_16">
    <!-- (102) Subject: s13, Known = True, Degree = 2, Duration = 0.1 -->
    <defs>
     <path d="M 31 75.875 
Q 24.46875 64.65625 21.28125 53.65625 
Q 18.109375 42.671875 18.109375 31.390625 
Q 18.109375 20.125 21.3125 9.0625 
Q 24.515625 -2 31 -13.1875 
L 23.1875 -13.1875 
Q 15.875 -1.703125 12.234375 9.375 
Q 8.59375 20.453125 8.59375 31.390625 
Q 8.59375 42.28125 12.203125 53.3125 
Q 15.828125 64.359375 23.1875 75.875 
z
" id="DejaVuSans-40"/>
     <path d="M 8.015625 75.875 
L 15.828125 75.875 
Q 23.140625 64.359375 26.78125 53.3125 
Q 30.421875 42.28125 30.421875 31.390625 
Q 30.421875 20.453125 26.78125 9.375 
Q 23.140625 -1.703125 15.828125 -13.1875 
L 8.015625 -13.1875 
Q 14.5 -2 17.703125 9.0625 
Q 20.90625 20.125 20.90625 31.390625 
Q 20.90625 42.671875 17.703125 53.65625 
Q 14.5 64.65625 8.015625 75.875 
z
" id="DejaVuSans-41"/>
     <path id="DejaVuSans-32"/>
     <path d="M 53.515625 70.515625 
L 53.515625 60.890625 
Q 47.90625 63.578125 42.921875 64.890625 
Q 37.9375 66.21875 33.296875 66.21875 
Q 25.25 66.21875 20.875 63.09375 
Q 16.5 59.96875 16.5 54.203125 
Q 16.5 49.359375 19.40625 46.890625 
Q 22.3125 44.4375 30.421875 42.921875 
L 36.375 41.703125 
Q 47.40625 39.59375 52.65625 34.296875 
Q 57.90625 29 57.90625 20.125 
Q 57.90625 9.515625 50.796875 4.046875 
Q 43.703125 -1.421875 29.984375 -1.421875 
Q 24.8125 -1.421875 18.96875 -0.25 
Q 13.140625 0.921875 6.890625 3.21875 
L 6.890625 13.375 
Q 12.890625 10.015625 18.65625 8.296875 
Q 24.421875 6.59375 29.984375 6.59375 
Q 38.421875 6.59375 43.015625 9.90625 
Q 47.609375 13.234375 47.609375 19.390625 
Q 47.609375 24.75 44.3125 27.78125 
Q 41.015625 30.8125 33.5 32.328125 
L 27.484375 33.5 
Q 16.453125 35.6875 11.515625 40.375 
Q 6.59375 45.0625 6.59375 53.421875 
Q 6.59375 63.09375 13.40625 68.65625 
Q 20.21875 74.21875 32.171875 74.21875 
Q 37.3125 74.21875 42.625 73.28125 
Q 47.953125 72.359375 53.515625 70.515625 
z
" id="DejaVuSans-83"/>
     <path d="M 8.5 21.578125 
L 8.5 54.6875 
L 17.484375 54.6875 
L 17.484375 21.921875 
Q 17.484375 14.15625 20.5 10.265625 
Q 23.53125 6.390625 29.59375 6.390625 
Q 36.859375 6.390625 41.078125 11.03125 
Q 45.3125 15.671875 45.3125 23.6875 
L 45.3125 54.6875 
L 54.296875 54.6875 
L 54.296875 0 
L 45.3125 0 
L 45.3125 8.40625 
Q 42.046875 3.421875 37.71875 1 
Q 33.40625 -1.421875 27.6875 -1.421875 
Q 18.265625 -1.421875 13.375 4.4375 
Q 8.5 10.296875 8.5 21.578125 
z
M 31.109375 56 
z
" id="DejaVuSans-117"/>
     <path d="M 48.6875 27.296875 
Q 48.6875 37.203125 44.609375 42.84375 
Q 40.53125 48.484375 33.40625 48.484375 
Q 26.265625 48.484375 22.1875 42.84375 
Q 18.109375 37.203125 18.109375 27.296875 
Q 18.109375 17.390625 22.1875 11.75 
Q 26.265625 6.109375 33.40625 6.109375 
Q 40.53125 6.109375 44.609375 11.75 
Q 48.6875 17.390625 48.6875 27.296875 
z
M 18.109375 46.390625 
Q 20.953125 51.265625 25.265625 53.625 
Q 29.59375 56 35.59375 56 
Q 45.5625 56 51.78125 48.09375 
Q 58.015625 40.1875 58.015625 27.296875 
Q 58.015625 14.40625 51.78125 6.484375 
Q 45.5625 -1.421875 35.59375 -1.421875 
Q 29.59375 -1.421875 25.265625 0.953125 
Q 20.953125 3.328125 18.109375 8.203125 
L 18.109375 0 
L 9.078125 0 
L 9.078125 75.984375 
L 18.109375 75.984375 
z
" id="DejaVuSans-98"/>
     <path d="M 9.421875 54.6875 
L 18.40625 54.6875 
L 18.40625 -0.984375 
Q 18.40625 -11.421875 14.421875 -16.109375 
Q 10.453125 -20.796875 1.609375 -20.796875 
L -1.8125 -20.796875 
L -1.8125 -13.1875 
L 0.59375 -13.1875 
Q 5.71875 -13.1875 7.5625 -10.8125 
Q 9.421875 -8.453125 9.421875 -0.984375 
z
M 9.421875 75.984375 
L 18.40625 75.984375 
L 18.40625 64.59375 
L 9.421875 64.59375 
z
" id="DejaVuSans-106"/>
     <path d="M 56.203125 29.59375 
L 56.203125 25.203125 
L 14.890625 25.203125 
Q 15.484375 15.921875 20.484375 11.0625 
Q 25.484375 6.203125 34.421875 6.203125 
Q 39.59375 6.203125 44.453125 7.46875 
Q 49.3125 8.734375 54.109375 11.28125 
L 54.109375 2.78125 
Q 49.265625 0.734375 44.1875 -0.34375 
Q 39.109375 -1.421875 33.890625 -1.421875 
Q 20.796875 -1.421875 13.15625 6.1875 
Q 5.515625 13.8125 5.515625 26.8125 
Q 5.515625 40.234375 12.765625 48.109375 
Q 20.015625 56 32.328125 56 
Q 43.359375 56 49.78125 48.890625 
Q 56.203125 41.796875 56.203125 29.59375 
z
M 47.21875 32.234375 
Q 47.125 39.59375 43.09375 43.984375 
Q 39.0625 48.390625 32.421875 48.390625 
Q 24.90625 48.390625 20.390625 44.140625 
Q 15.875 39.890625 15.1875 32.171875 
z
" id="DejaVuSans-101"/>
     <path d="M 48.78125 52.59375 
L 48.78125 44.1875 
Q 44.96875 46.296875 41.140625 47.34375 
Q 37.3125 48.390625 33.40625 48.390625 
Q 24.65625 48.390625 19.8125 42.84375 
Q 14.984375 37.3125 14.984375 27.296875 
Q 14.984375 17.28125 19.8125 11.734375 
Q 24.65625 6.203125 33.40625 6.203125 
Q 37.3125 6.203125 41.140625 7.25 
Q 44.96875 8.296875 48.78125 10.40625 
L 48.78125 2.09375 
Q 45.015625 0.34375 40.984375 -0.53125 
Q 36.96875 -1.421875 32.421875 -1.421875 
Q 20.0625 -1.421875 12.78125 6.34375 
Q 5.515625 14.109375 5.515625 27.296875 
Q 5.515625 40.671875 12.859375 48.328125 
Q 20.21875 56 33.015625 56 
Q 37.15625 56 41.109375 55.140625 
Q 45.0625 54.296875 48.78125 52.59375 
z
" id="DejaVuSans-99"/>
     <path d="M 18.3125 70.21875 
L 18.3125 54.6875 
L 36.8125 54.6875 
L 36.8125 47.703125 
L 18.3125 47.703125 
L 18.3125 18.015625 
Q 18.3125 11.328125 20.140625 9.421875 
Q 21.96875 7.515625 27.59375 7.515625 
L 36.8125 7.515625 
L 36.8125 0 
L 27.59375 0 
Q 17.1875 0 13.234375 3.875 
Q 9.28125 7.765625 9.28125 18.015625 
L 9.28125 47.703125 
L 2.6875 47.703125 
L 2.6875 54.6875 
L 9.28125 54.6875 
L 9.28125 70.21875 
z
" id="DejaVuSans-116"/>
     <path d="M 11.71875 12.40625 
L 22.015625 12.40625 
L 22.015625 0 
L 11.71875 0 
z
M 11.71875 51.703125 
L 22.015625 51.703125 
L 22.015625 39.3125 
L 11.71875 39.3125 
z
" id="DejaVuSans-58"/>
     <path d="M 44.28125 53.078125 
L 44.28125 44.578125 
Q 40.484375 46.53125 36.375 47.5 
Q 32.28125 48.484375 27.875 48.484375 
Q 21.1875 48.484375 17.84375 46.4375 
Q 14.5 44.390625 14.5 40.28125 
Q 14.5 37.15625 16.890625 35.375 
Q 19.28125 33.59375 26.515625 31.984375 
L 29.59375 31.296875 
Q 39.15625 29.25 43.1875 25.515625 
Q 47.21875 21.78125 47.21875 15.09375 
Q 47.21875 7.46875 41.1875 3.015625 
Q 35.15625 -1.421875 24.609375 -1.421875 
Q 20.21875 -1.421875 15.453125 -0.5625 
Q 10.6875 0.296875 5.421875 2 
L 5.421875 11.28125 
Q 10.40625 8.6875 15.234375 7.390625 
Q 20.0625 6.109375 24.8125 6.109375 
Q 31.15625 6.109375 34.5625 8.28125 
Q 37.984375 10.453125 37.984375 14.40625 
Q 37.984375 18.0625 35.515625 20.015625 
Q 33.0625 21.96875 24.703125 23.78125 
L 21.578125 24.515625 
Q 13.234375 26.265625 9.515625 29.90625 
Q 5.8125 33.546875 5.8125 39.890625 
Q 5.8125 47.609375 11.28125 51.796875 
Q 16.75 56 26.8125 56 
Q 31.78125 56 36.171875 55.265625 
Q 40.578125 54.546875 44.28125 53.078125 
z
" id="DejaVuSans-115"/>
     <path d="M 11.71875 12.40625 
L 22.015625 12.40625 
L 22.015625 4 
L 14.015625 -11.625 
L 7.71875 -11.625 
L 11.71875 4 
z
" id="DejaVuSans-44"/>
     <path d="M 9.8125 72.90625 
L 19.671875 72.90625 
L 19.671875 42.09375 
L 52.390625 72.90625 
L 65.09375 72.90625 
L 28.90625 38.921875 
L 67.671875 0 
L 54.6875 0 
L 19.671875 35.109375 
L 19.671875 0 
L 9.8125 0 
z
" id="DejaVuSans-75"/>
     <path d="M 54.890625 33.015625 
L 54.890625 0 
L 45.90625 0 
L 45.90625 32.71875 
Q 45.90625 40.484375 42.875 44.328125 
Q 39.84375 48.1875 33.796875 48.1875 
Q 26.515625 48.1875 22.3125 43.546875 
Q 18.109375 38.921875 18.109375 30.90625 
L 18.109375 0 
L 9.078125 0 
L 9.078125 54.6875 
L 18.109375 54.6875 
L 18.109375 46.1875 
Q 21.34375 51.125 25.703125 53.5625 
Q 30.078125 56 35.796875 56 
Q 45.21875 56 50.046875 50.171875 
Q 54.890625 44.34375 54.890625 33.015625 
z
" id="DejaVuSans-110"/>
     <path d="M 30.609375 48.390625 
Q 23.390625 48.390625 19.1875 42.75 
Q 14.984375 37.109375 14.984375 27.296875 
Q 14.984375 17.484375 19.15625 11.84375 
Q 23.34375 6.203125 30.609375 6.203125 
Q 37.796875 6.203125 41.984375 11.859375 
Q 46.1875 17.53125 46.1875 27.296875 
Q 46.1875 37.015625 41.984375 42.703125 
Q 37.796875 48.390625 30.609375 48.390625 
z
M 30.609375 56 
Q 42.328125 56 49.015625 48.375 
Q 55.71875 40.765625 55.71875 27.296875 
Q 55.71875 13.875 49.015625 6.21875 
Q 42.328125 -1.421875 30.609375 -1.421875 
Q 18.84375 -1.421875 12.171875 6.21875 
Q 5.515625 13.875 5.515625 27.296875 
Q 5.515625 40.765625 12.171875 48.375 
Q 18.84375 56 30.609375 56 
z
" id="DejaVuSans-111"/>
     <path d="M 4.203125 54.6875 
L 13.1875 54.6875 
L 24.421875 12.015625 
L 35.59375 54.6875 
L 46.1875 54.6875 
L 57.421875 12.015625 
L 68.609375 54.6875 
L 77.59375 54.6875 
L 63.28125 0 
L 52.6875 0 
L 40.921875 44.828125 
L 29.109375 0 
L 18.5 0 
z
" id="DejaVuSans-119"/>
     <path d="M 10.59375 45.40625 
L 73.1875 45.40625 
L 73.1875 37.203125 
L 10.59375 37.203125 
z
M 10.59375 25.484375 
L 73.1875 25.484375 
L 73.1875 17.1875 
L 10.59375 17.1875 
z
" id="DejaVuSans-61"/>
     <path d="M -0.296875 72.90625 
L 61.375 72.90625 
L 61.375 64.59375 
L 35.5 64.59375 
L 35.5 0 
L 25.59375 0 
L 25.59375 64.59375 
L -0.296875 64.59375 
z
" id="DejaVuSans-84"/>
     <path d="M 41.109375 46.296875 
Q 39.59375 47.171875 37.8125 47.578125 
Q 36.03125 48 33.890625 48 
Q 26.265625 48 22.1875 43.046875 
Q 18.109375 38.09375 18.109375 28.8125 
L 18.109375 0 
L 9.078125 0 
L 9.078125 54.6875 
L 18.109375 54.6875 
L 18.109375 46.1875 
Q 20.953125 51.171875 25.484375 53.578125 
Q 30.03125 56 36.53125 56 
Q 37.453125 56 38.578125 55.875 
Q 39.703125 55.765625 41.0625 55.515625 
z
" id="DejaVuSans-114"/>
     <path d="M 19.671875 64.796875 
L 19.671875 8.109375 
L 31.59375 8.109375 
Q 46.6875 8.109375 53.6875 14.9375 
Q 60.6875 21.78125 60.6875 36.53125 
Q 60.6875 51.171875 53.6875 57.984375 
Q 46.6875 64.796875 31.59375 64.796875 
z
M 9.8125 72.90625 
L 30.078125 72.90625 
Q 51.265625 72.90625 61.171875 64.09375 
Q 71.09375 55.28125 71.09375 36.53125 
Q 71.09375 17.671875 61.125 8.828125 
Q 51.171875 0 30.078125 0 
L 9.8125 0 
z
" id="DejaVuSans-68"/>
     <path d="M 45.40625 27.984375 
Q 45.40625 37.75 41.375 43.109375 
Q 37.359375 48.484375 30.078125 48.484375 
Q 22.859375 48.484375 18.828125 43.109375 
Q 14.796875 37.75 14.796875 27.984375 
Q 14.796875 18.265625 18.828125 12.890625 
Q 22.859375 7.515625 30.078125 7.515625 
Q 37.359375 7.515625 41.375 12.890625 
Q 45.40625 18.265625 45.40625 27.984375 
z
M 54.390625 6.78125 
Q 54.390625 -7.171875 48.1875 -13.984375 
Q 42 -20.796875 29.203125 -20.796875 
Q 24.46875 -20.796875 20.265625 -20.09375 
Q 16.0625 -19.390625 12.109375 -17.921875 
L 12.109375 -9.1875 
Q 16.0625 -11.328125 19.921875 -12.34375 
Q 23.78125 -13.375 27.78125 -13.375 
Q 36.625 -13.375 41.015625 -8.765625 
Q 45.40625 -4.15625 45.40625 5.171875 
L 45.40625 9.625 
Q 42.625 4.78125 38.28125 2.390625 
Q 33.9375 0 27.875 0 
Q 17.828125 0 11.671875 7.65625 
Q 5.515625 15.328125 5.515625 27.984375 
Q 5.515625 40.671875 11.671875 48.328125 
Q 17.828125 56 27.875 56 
Q 33.9375 56 38.28125 53.609375 
Q 42.625 51.21875 45.40625 46.390625 
L 45.40625 54.6875 
L 54.390625 54.6875 
z
" id="DejaVuSans-103"/>
     <path d="M 34.28125 27.484375 
Q 23.390625 27.484375 19.1875 25 
Q 14.984375 22.515625 14.984375 16.5 
Q 14.984375 11.71875 18.140625 8.90625 
Q 21.296875 6.109375 26.703125 6.109375 
Q 34.1875 6.109375 38.703125 11.40625 
Q 43.21875 16.703125 43.21875 25.484375 
L 43.21875 27.484375 
z
M 52.203125 31.203125 
L 52.203125 0 
L 43.21875 0 
L 43.21875 8.296875 
Q 40.140625 3.328125 35.546875 0.953125 
Q 30.953125 -1.421875 24.3125 -1.421875 
Q 15.921875 -1.421875 10.953125 3.296875 
Q 6 8.015625 6 15.921875 
Q 6 25.140625 12.171875 29.828125 
Q 18.359375 34.515625 30.609375 34.515625 
L 43.21875 34.515625 
L 43.21875 35.40625 
Q 43.21875 41.609375 39.140625 45 
Q 35.0625 48.390625 27.6875 48.390625 
Q 23 48.390625 18.546875 47.265625 
Q 14.109375 46.140625 10.015625 43.890625 
L 10.015625 52.203125 
Q 14.9375 54.109375 19.578125 55.046875 
Q 24.21875 56 28.609375 56 
Q 40.484375 56 46.34375 49.84375 
Q 52.203125 43.703125 52.203125 31.203125 
z
" id="DejaVuSans-97"/>
     <path d="M 9.421875 54.6875 
L 18.40625 54.6875 
L 18.40625 0 
L 9.421875 0 
z
M 9.421875 75.984375 
L 18.40625 75.984375 
L 18.40625 64.59375 
L 9.421875 64.59375 
z
" id="DejaVuSans-105"/>
     <path d="M 10.6875 12.40625 
L 21 12.40625 
L 21 0 
L 10.6875 0 
z
" id="DejaVuSans-46"/>
    </defs>
    <g transform="translate(47.915625 35.472)scale(0.12 -0.12)">
     <use xlink:href="#DejaVuSans-40"/>
     <use x="39.013672" xlink:href="#DejaVuSans-49"/>
     <use x="102.636719" xlink:href="#DejaVuSans-48"/>
     <use x="166.259766" xlink:href="#DejaVuSans-50"/>
     <use x="229.882812" xlink:href="#DejaVuSans-41"/>
     <use x="268.896484" xlink:href="#DejaVuSans-32"/>
     <use x="300.683594" xlink:href="#DejaVuSans-83"/>
     <use x="364.160156" xlink:href="#DejaVuSans-117"/>
     <use x="427.539062" xlink:href="#DejaVuSans-98"/>
     <use x="491.015625" xlink:href="#DejaVuSans-106"/>
     <use x="518.798828" xlink:href="#DejaVuSans-101"/>
     <use x="580.322266" xlink:href="#DejaVuSans-99"/>
     <use x="635.302734" xlink:href="#DejaVuSans-116"/>
     <use x="674.511719" xlink:href="#DejaVuSans-58"/>
     <use x="708.203125" xlink:href="#DejaVuSans-32"/>
     <use x="739.990234" xlink:href="#DejaVuSans-115"/>
     <use x="792.089844" xlink:href="#DejaVuSans-49"/>
     <use x="855.712891" xlink:href="#DejaVuSans-51"/>
     <use x="919.335938" xlink:href="#DejaVuSans-44"/>
     <use x="951.123047" xlink:href="#DejaVuSans-32"/>
     <use x="982.910156" xlink:href="#DejaVuSans-75"/>
     <use x="1048.486328" xlink:href="#DejaVuSans-110"/>
     <use x="1111.865234" xlink:href="#DejaVuSans-111"/>
     <use x="1173.046875" xlink:href="#DejaVuSans-119"/>
     <use x="1254.833984" xlink:href="#DejaVuSans-110"/>
     <use x="1318.212891" xlink:href="#DejaVuSans-32"/>
     <use x="1350" xlink:href="#DejaVuSans-61"/>
     <use x="1433.789062" xlink:href="#DejaVuSans-32"/>
     <use x="1465.576172" xlink:href="#DejaVuSans-84"/>
     <use x="1526.441406" xlink:href="#DejaVuSans-114"/>
     <use x="1567.554688" xlink:href="#DejaVuSans-117"/>
     <use x="1630.933594" xlink:href="#DejaVuSans-101"/>
     <use x="1692.457031" xlink:href="#DejaVuSans-44"/>
     <use x="1724.244141" xlink:href="#DejaVuSans-32"/>
     <use x="1756.03125" xlink:href="#DejaVuSans-68"/>
     <use x="1833.033203" xlink:href="#DejaVuSans-101"/>
     <use x="1894.556641" xlink:href="#DejaVuSans-103"/>
     <use x="1958.033203" xlink:href="#DejaVuSans-114"/>
     <use x="1999.115234" xlink:href="#DejaVuSans-101"/>
     <use x="2060.638672" xlink:href="#DejaVuSans-101"/>
     <use x="2122.162109" xlink:href="#DejaVuSans-32"/>
     <use x="2153.949219" xlink:href="#DejaVuSans-61"/>
     <use x="2237.738281" xlink:href="#DejaVuSans-32"/>
     <use x="2269.525391" xlink:href="#DejaVuSans-50"/>
     <use x="2333.148438" xlink:href="#DejaVuSans-44"/>
     <use x="2364.935547" xlink:href="#DejaVuSans-32"/>
     <use x="2396.722656" xlink:href="#DejaVuSans-68"/>
     <use x="2473.724609" xlink:href="#DejaVuSans-117"/>
     <use x="2537.103516" xlink:href="#DejaVuSans-114"/>
     <use x="2578.216797" xlink:href="#DejaVuSans-97"/>
     <use x="2639.496094" xlink:href="#DejaVuSans-116"/>
     <use x="2678.705078" xlink:href="#DejaVuSans-105"/>
     <use x="2706.488281" xlink:href="#DejaVuSans-111"/>
     <use x="2767.669922" xlink:href="#DejaVuSans-110"/>
     <use x="2831.048828" xlink:href="#DejaVuSans-32"/>
     <use x="2862.835938" xlink:href="#DejaVuSans-61"/>
     <use x="2946.625" xlink:href="#DejaVuSans-32"/>
     <use x="2978.412109" xlink:href="#DejaVuSans-48"/>
     <use x="3042.035156" xlink:href="#DejaVuSans-46"/>
     <use x="3073.822266" xlink:href="#DejaVuSans-49"/>
    </g>
   </g>
  </g>
 </g>
 <defs>
  <clipPath id="p588601a264">
   <rect height="266.112" width="357.12" x="57.6" y="41.472"/>
  </clipPath>
 </defs>
</svg>
