<?xml version="1.0" encoding="utf-8" standalone="no"?>
<!DOCTYPE svg PUBLIC "-//W3C//DTD SVG 1.1//EN"
  "http://www.w3.org/Graphics/SVG/1.1/DTD/svg11.dtd">
<!-- Created with matplotlib (https://matplotlib.org/) -->
<svg height="345.6pt" version="1.1" viewBox="0 0 460.8 345.6" width="460.8pt" xmlns="http://www.w3.org/2000/svg" xmlns:xlink="http://www.w3.org/1999/xlink">
 <defs>
  <style type="text/css">
*{stroke-linecap:butt;stroke-linejoin:round;}
  </style>
 </defs>
 <g id="figure_1">
  <g id="patch_1">
   <path d="M 0 345.6 
L 460.8 345.6 
L 460.8 0 
L 0 0 
z
" style="fill:#ffffff;"/>
  </g>
  <g id="axes_1">
   <g id="patch_2">
    <path d="M 57.6 307.584 
L 414.72 307.584 
L 414.72 41.472 
L 57.6 41.472 
z
" style="fill:#ffffff;"/>
   </g>
   <g id="line2d_1">
    <path clip-path="url(#pef74261114)" d="M 76.730832 236.995705 
L 76.466576 238.975818 
L 75.676712 237.985762 
L 75.412456 235.009518 
L 75.676712 232.033275 
L 76.205224 233.029406 
L 76.205224 235.999575 
L 75.940968 235.999575 
L 75.676712 235.009518 
L 75.676712 235.999575 
L 76.205224 238.975818 
L 76.466576 238.975818 
L 76.466576 233.029406 
L 75.676712 235.999575 
L 75.676712 235.999575 
L 75.940968 235.999575 
L 75.940968 235.009518 
L 75.676712 233.029406 
L 75.412456 232.033275 
L 75.412456 234.019462 
L 75.151104 236.995705 
L 75.676712 238.975818 
L 76.730832 237.985762 
L 77.259344 237.985762 
L 76.995088 237.985762 
L 76.205224 236.995705 
L 75.676712 236.995705 
L 76.205224 238.975818 
L 76.730832 237.985762 
L 76.995088 235.999575 
L 76.730832 236.995705 
L 76.466576 238.975818 
L 75.940968 239.965875 
L 75.940968 237.985762 
L 76.730832 235.999575 
L 77.784953 235.009518 
L 77.784953 236.995705 
L 77.520697 236.995705 
L 77.259344 235.999575 
L 76.995088 235.999575 
L 76.730832 237.985762 
L 76.466576 240.955931 
L 76.466576 243.932175 
L 76.205224 244.922231 
L 75.412456 236.995705 
L 75.676712 238.975818 
L 76.466576 239.965875 
L 76.995088 240.955931 
L 76.466576 241.952062 
L 75.676712 241.952062 
L 75.676712 242.942118 
L 76.205224 243.932175 
L 76.205224 242.942118 
L 75.676712 240.955931 
L 75.676712 239.965875 
L 75.676712 239.965875 
L 76.205224 239.965875 
L 76.730832 240.955931 
L 76.730832 241.952062 
L 76.466576 241.952062 
L 76.730832 240.955931 
L 77.259344 240.955931 
L 77.259344 241.952062 
L 75.676712 241.952062 
L 75.151104 242.942118 
L 75.676712 243.932175 
L 76.205224 242.942118 
L 76.205224 241.952062 
L 75.412456 241.952062 
L 75.412456 242.942118 
L 75.151104 246.908418 
L 75.676712 244.922231 
L 75.676712 241.952062 
L 75.940968 240.955931 
L 76.205224 241.952062 
L 76.205224 242.942118 
L 75.676712 242.942118 
L 75.412456 241.952062 
L 75.412456 244.922231 
L 75.676712 245.918362 
L 75.676712 244.922231 
L 75.412456 244.922231 
L 75.412456 245.918362 
L 75.676712 246.908418 
L 76.205224 246.908418 
L 76.466576 245.918362 
L 76.466576 245.918362 
L 76.466576 244.922231 
L 76.730832 242.942118 
L 76.730832 240.955931 
L 76.205224 240.955931 
L 75.676712 242.942118 
L 75.412456 242.942118 
L 75.412456 241.952062 
L 75.412456 241.952062 
L 75.940968 241.952062 
L 75.676712 242.942118 
L 74.886848 243.932175 
L 74.622592 245.918362 
L 75.151104 245.918362 
L 75.412456 244.922231 
L 75.151104 242.942118 
L 75.151104 243.932175 
L 74.886848 245.918362 
L 75.151104 244.922231 
L 75.676712 245.918362 
L 76.205224 247.898475 
L 76.205224 246.908418 
L 75.412456 245.918362 
L 74.622592 246.908418 
L 74.622592 240.955931 
L 74.358335 240.955931 
L 74.622592 241.952062 
L 75.412456 243.932175 
L 75.940968 243.932175 
L 75.412456 243.932175 
L 75.412456 244.922231 
L 75.412456 243.932175 
L 75.151104 244.922231 
L 74.358335 244.922231 
L 74.622592 244.922231 
L 75.151104 243.932175 
L 75.940968 240.955931 
L 75.676712 239.965875 
L 75.412456 240.955931 
L 75.151104 242.942118 
L 75.412456 244.922231 
L 75.676712 245.918362 
L 75.151104 245.918362 
L 74.358335 244.922231 
L 74.096983 244.922231 
L 74.358335 244.922231 
L 75.151104 243.932175 
L 75.676712 244.922231 
L 75.412456 246.908418 
L 74.886848 246.908418 
L 74.358335 244.922231 
L 74.358335 244.922231 
L 74.886848 243.932175 
L 75.151104 243.932175 
L 74.358335 243.932175 
L 73.832727 244.922231 
L 74.096983 245.918362 
L 74.622592 246.908418 
L 75.151104 242.942118 
L 75.412456 242.942118 
L 75.412456 243.932175 
L 74.622592 246.908418 
L 74.622592 247.898475 
L 74.886848 248.888531 
L 75.412456 247.898475 
L 75.676712 247.898475 
L 75.676712 245.918362 
L 75.151104 244.922231 
L 74.886848 245.918362 
L 74.622592 247.898475 
L 74.886848 248.888531 
L 74.886848 247.898475 
L 74.622592 246.908418 
L 74.622592 245.918362 
L 74.622592 245.918362 
L 75.151104 246.908418 
L 75.412456 246.908418 
L 75.412456 248.888531 
L 75.151104 248.888531 
L 75.151104 245.918362 
L 75.676712 245.918362 
L 75.940968 246.908418 
L 75.940968 244.922231 
L 75.940968 244.922231 
L 75.676712 245.918362 
L 75.676712 249.884662 
L 75.151104 250.874718 
L 75.151104 247.898475 
L 75.676712 249.884662 
L 75.676712 251.864775 
L 75.151104 251.864775 
L 74.886848 250.874718 
L 74.622592 251.864775 
L 74.096983 251.864775 
L 74.358335 249.884662 
L 75.151104 246.908418 
L 75.412456 244.922231 
L 74.886848 244.922231 
L 74.358335 245.918362 
L 74.886848 249.884662 
L 74.886848 250.874718 
L 74.886848 247.898475 
L 75.151104 247.898475 
L 75.151104 251.864775 
L 74.886848 249.884662 
L 74.886848 247.898475 
L 75.151104 246.908418 
L 75.676712 247.898475 
L 76.205224 249.884662 
L 75.940968 251.864775 
L 75.412456 252.854831 
L 75.412456 246.908418 
L 75.151104 247.898475 
L 75.151104 249.884662 
L 75.412456 250.874718 
L 75.412456 252.854831 
L 75.676712 250.874718 
L 75.940968 251.864775 
L 75.676712 252.854831 
L 75.151104 252.854831 
L 75.412456 250.874718 
L 75.940968 249.884662 
L 75.412456 250.874718 
L 75.412456 251.864775 
L 75.940968 251.864775 
L 76.730832 249.884662 
L 76.995088 248.888531 
L 77.520697 249.884662 
L 78.313465 251.864775 
L 79.628937 251.864775 
L 82.001434 247.898475 
L 85.163795 242.942118 
L 88.590412 237.985762 
L 92.806893 229.063106 
L 97.020471 219.144319 
L 102.02972 211.211719 
L 107.300322 205.265306 
L 113.360788 196.34265 
L 119.421254 186.423863 
L 126.271584 177.501206 
L 132.860562 168.57855 
L 139.710893 159.655894 
L 146.564127 149.743181 
L 153.150201 139.824394 
L 159.474923 130.901738 
L 171.598759 117.022725 
L 177.920577 110.080182 
L 183.983947 104.133769 
L 194.522247 96.201169 
L 200.057104 92.234869 
L 205.06345 89.258625 
L 209.279931 86.288456 
L 213.232157 85.292325 
L 216.658774 85.292325 
L 224.037616 87.278512 
L 227.199977 89.258625 
L 229.572474 92.234869 
L 231.942067 94.214982 
L 234.843076 98.181282 
L 237.741181 101.157525 
L 240.110773 102.147582 
L 241.693406 102.147582 
L 243.011782 104.133769 
L 244.327255 105.123825 
L 245.909887 108.100069 
L 247.228264 110.080182 
L 247.489616 113.056425 
L 246.699751 117.022725 
L 246.174143 121.979081 
L 245.909887 125.945381 
L 245.909887 129.911681 
L 244.591511 135.858094 
L 241.42915 141.810581 
L 240.639285 145.776881 
L 240.110773 150.733237 
L 239.320909 155.689594 
L 238.266789 168.57855 
L 237.741181 171.554794 
L 236.422804 176.51115 
L 236.951316 178.497337 
L 237.476924 179.487393 
L 237.212668 181.467506 
L 236.422804 184.44375 
L 235.63294 186.423863 
L 235.368684 185.433806 
L 235.63294 185.433806 
L 235.368684 185.433806 
L 234.843076 184.44375 
L 234.050307 184.44375 
L 234.050307 186.423863 
L 234.578819 186.423863 
L 235.104428 185.433806 
L 234.578819 185.433806 
L 233.260443 190.390163 
L 233.524699 190.390163 
L 233.788955 189.400106 
L 232.996187 190.390163 
L 232.470579 191.386293 
L 231.942067 193.366406 
L 231.942067 200.30895 
L 231.416458 200.30895 
L 230.887946 198.322763 
L 230.626594 198.322763 
L 230.098082 200.30895 
L 230.098082 199.318893 
L 229.833826 200.30895 
L 229.833826 203.279119 
L 230.098082 204.275249 
L 230.098082 202.289063 
L 229.833826 202.289063 
L 229.308218 204.275249 
L 229.043962 204.275249 
L 229.043962 203.279119 
L 228.779706 202.289063 
L 228.254097 203.279119 
L 226.935721 208.241549 
L 226.935721 209.231606 
L 227.199977 209.231606 
L 227.199977 207.245419 
L 226.671465 206.255362 
L 226.671465 207.245419 
L 227.725585 213.197906 
L 227.199977 217.164206 
L 227.199977 212.207849 
L 226.671465 211.211719 
L 226.410113 213.197906 
L 225.617345 216.174149 
L 225.617345 217.164206 
L 226.145857 217.164206 
L 226.410113 215.178019 
L 226.410113 215.178019 
L 225.881601 216.174149 
L 225.617345 217.164206 
L 226.145857 217.164206 
L 225.881601 217.164206 
L 225.091736 216.174149 
L 224.301872 217.164206 
L 225.091736 220.134375 
L 224.037616 220.134375 
L 224.301872 221.130506 
L 224.82748 221.130506 
L 224.037616 227.076919 
L 224.037616 224.100675 
L 223.509104 223.110619 
L 223.247752 222.120562 
L 223.247752 222.120562 
L 223.509104 221.130506 
L 223.77336 222.120562 
L 223.247752 228.066975 
L 223.77336 229.063106 
L 224.563224 230.053162 
L 224.82748 231.043219 
L 224.563224 231.043219 
L 224.037616 230.053162 
L 223.77336 230.053162 
L 223.77336 231.043219 
L 224.037616 231.043219 
L 223.77336 230.053162 
L 223.247752 229.063106 
L 221.929375 229.063106 
L 220.610999 227.076919 
L 219.03127 224.100675 
L 218.502758 222.120562 
L 217.712894 220.134375 
L 216.394518 219.144319 
L 212.706548 215.178019 
L 210.598308 214.187962 
L 206.907435 210.221662 
L 205.327706 210.221662 
L 203.747977 211.211719 
L 200.057104 215.178019 
L 198.477376 215.178019 
L 195.315015 220.134375 
L 193.468126 225.096806 
L 192.152654 230.053162 
L 191.624142 231.043219 
L 191.624142 231.043219 
L 192.152654 233.029406 
L 192.414006 235.009518 
L 192.414006 235.999575 
L 191.359886 234.019462 
L 191.359886 235.999575 
L 191.888398 239.965875 
L 192.942518 241.952062 
L 193.206774 240.955931 
L 191.624142 243.932175 
L 191.359886 245.918362 
L 191.359886 246.908418 
L 191.624142 249.884662 
L 191.359886 250.874718 
L 191.359886 251.864775 
L 191.888398 253.850962 
L 191.888398 255.831075 
L 191.624142 257.811188 
L 191.359886 257.811188 
L 191.098533 258.807318 
L 191.098533 261.777488 
L 191.359886 263.763675 
L 191.098533 264.753731 
L 190.044413 264.753731 
L 188.990293 265.743787 
L 188.461781 264.753731 
L 188.461781 263.763675 
L 189.515901 264.753731 
L 190.308669 266.739918 
L 190.044413 269.710087 
L 189.515901 272.686331 
L 188.990293 270.706218 
L 188.990293 266.739918 
L 189.515901 267.729974 
L 189.515901 267.729974 
L 189.254549 266.739918 
L 188.990293 267.729974 
L 188.990293 270.706218 
L 189.515901 271.696274 
L 190.044413 271.696274 
L 189.780157 270.706218 
L 188.726037 269.710087 
L 188.461781 268.720031 
L 188.990293 269.710087 
L 189.254549 271.696274 
L 188.990293 273.676387 
L 188.461781 273.676387 
L 187.671916 272.686331 
L 187.146308 272.686331 
L 186.882052 273.676387 
L 187.40766 274.666444 
L 188.461781 275.662574 
L 188.990293 278.632744 
L 188.726037 280.618931 
L 188.461781 280.618931 
L 187.671916 283.595174 
L 186.882052 280.618931 
L 187.146308 281.608987 
L 187.40766 281.608987 
L 187.146308 280.618931 
L 186.35354 279.628874 
L 186.35354 278.632744 
L 186.882052 276.652631 
L 187.146308 277.642687 
L 187.146308 283.595174 
L 186.617796 284.585231 
L 185.827932 282.599044 
L 186.092188 281.608987 
L 187.146308 283.595174 
L 187.146308 282.599044 
L 186.617796 282.599044 
L 186.617796 282.599044 
L 186.882052 284.585231 
L 187.146308 285.575287 
L 187.146308 283.595174 
L 186.882052 281.608987 
L 186.092188 281.608987 
L 185.29942 283.595174 
L 185.29942 284.585231 
L 185.827932 282.599044 
L 186.35354 281.608987 
L 186.35354 283.595174 
L 186.092188 284.585231 
L 185.563676 282.599044 
L 185.29942 284.585231 
L 185.29942 289.541587 
L 185.29942 285.575287 
L 185.038067 283.595174 
L 185.038067 285.575287 
L 184.509555 287.561474 
L 183.983947 288.551531 
L 185.038067 290.531644 
L 185.038067 290.531644 
L 185.038067 289.541587 
L 184.773811 290.531644 
L 184.509555 289.541587 
L 185.29942 289.541587 
L 185.29942 289.541587 
L 184.509555 288.551531 
L 183.983947 288.551531 
L 183.719691 289.541587 
L 184.245299 291.527774 
L 185.038067 295.488 
L 184.509555 293.507887 
L 183.455435 289.541587 
L 183.719691 289.541587 
L 183.719691 289.541587 
L 183.983947 290.531644 
L 184.509555 291.527774 
L 184.509555 291.527774 
L 184.245299 292.517831 
L 183.719691 293.507887 
L 183.455435 293.507887 
L 183.455435 293.507887 
L 183.455435 295.488 
L 183.455435 294.497944 
L 182.929827 292.517831 
L 182.929827 291.527774 
L 183.191179 290.531644 
L 183.983947 288.551531 
L 187.40766 288.551531 
L 190.044413 286.565344 
L 196.894743 276.652631 
L 200.846969 270.706218 
L 205.06345 264.753731 
L 209.808443 256.821131 
L 215.340397 249.884662 
L 221.665119 239.965875 
L 228.518354 228.066975 
L 236.158548 217.164206 
L 244.065903 210.221662 
L 252.498865 202.289063 
L 262.247301 191.386293 
L 272.259992 180.47745 
L 281.221467 168.57855 
L 289.654429 156.67965 
L 297.823136 144.786824 
L 306.517451 133.877981 
L 314.950414 122.969138 
L 322.329256 115.036538 
L 335.768564 100.167469 
L 342.093286 97.191225 
L 348.153752 94.214982 
L 353.424354 91.244812 
L 358.4307 86.288456 
L 363.965558 79.345913 
L 369.761767 75.379613 
L 379.248851 73.393426 
L 391.634039 70.423256 
L 394.535047 72.403369 
L 396.379032 75.379613 
L 397.694505 76.369669 
L 398.487273 74.389556 
L 397.433152 78.355856 
L 396.640384 84.302269 
L 395.85052 91.244812 
L 394.270791 95.211112 
L 392.688159 97.191225 
L 391.372686 104.133769 
L 390.05431 106.113882 
L 388.210325 109.090125 
L 386.891949 112.066369 
L 386.102085 113.056425 
L 385.837829 112.066369 
L 385.047964 112.066369 
L 384.255196 114.046482 
L 384.255196 117.022725 
L 384.783708 117.022725 
L 384.783708 116.032668 
L 384.783708 116.032668 
L 385.309317 115.036538 
L 386.363437 115.036538 
L 386.363437 115.036538 
L 385.573573 116.032668 
L 385.047964 116.032668 
L 384.783708 115.036538 
L 384.783708 114.046482 
L 384.519452 114.046482 
L 385.047964 113.056425 
L 385.047964 114.046482 
L 384.519452 116.032668 
L 384.255196 116.032668 
L 383.729588 119.002838 
L 383.465332 121.979081 
L 383.465332 123.965268 
L 383.465332 120.989025 
L 383.201076 119.002838 
L 382.411212 120.989025 
L 381.885603 124.955325 
L 381.357091 125.945381 
L 381.092835 123.965268 
L 380.831483 120.989025 
L 380.567227 120.989025 
L 380.831483 123.965268 
L 380.831483 126.935438 
L 381.357091 131.891794 
L 381.357091 131.891794 
L 380.831483 129.911681 
L 380.302971 128.921625 
L 380.302971 130.901738 
L 380.041619 133.877981 
L 380.041619 135.858094 
L 380.567227 134.868038 
L 380.831483 133.877981 
L 380.567227 133.877981 
L 380.041619 134.868038 
L 379.777363 136.854225 
L 380.041619 137.844281 
L 380.041619 137.844281 
L 379.513107 136.854225 
L 378.723242 134.868038 
L 378.987498 135.858094 
L 379.513107 138.834338 
L 379.248851 140.820525 
L 378.987498 140.820525 
L 378.987498 140.820525 
L 379.248851 139.824394 
L 379.513107 140.820525 
L 379.513107 143.790694 
L 379.248851 144.786824 
L 379.513107 143.790694 
L 379.248851 141.810581 
L 378.987498 144.786824 
L 378.458986 148.74705 
L 378.723242 150.733237 
L 379.248851 149.743181 
L 379.513107 146.766937 
L 378.723242 146.766937 
L 378.19473 147.756994 
L 378.458986 147.756994 
L 378.987498 148.74705 
L 378.723242 150.733237 
L 378.19473 151.723294 
L 378.19473 152.71335 
L 377.933378 151.723294 
L 377.669122 149.743181 
L 377.404866 148.74705 
L 377.14061 148.74705 
L 376.350746 152.71335 
L 376.879258 152.71335 
L 377.669122 153.709481 
L 377.669122 154.699537 
L 377.14061 155.689594 
L 377.14061 154.699537 
L 376.350746 154.699537 
L 375.825137 156.67965 
L 375.825137 158.665837 
L 376.350746 160.64595 
L 376.879258 158.665837 
L 376.615002 156.67965 
L 376.08649 156.67965 
L 376.350746 160.64595 
L 376.615002 161.642081 
L 376.615002 159.655894 
L 375.825137 157.675781 
L 375.560881 158.665837 
L 375.825137 158.665837 
L 376.350746 157.675781 
L 376.350746 157.675781 
L 376.08649 160.64595 
L 375.825137 159.655894 
L 375.825137 157.675781 
L 375.296625 155.689594 
L 375.032369 156.67965 
L 375.560881 160.64595 
L 375.296625 162.632137 
L 375.032369 163.622194 
L 375.032369 163.622194 
L 375.032369 162.632137 
L 375.032369 162.632137 
L 374.771017 163.622194 
L 374.771017 165.602307 
L 375.032369 165.602307 
L 375.296625 163.622194 
L 375.032369 163.622194 
L 374.506761 164.61225 
L 374.242505 165.602307 
L 374.506761 166.598437 
L 374.771017 166.598437 
L 374.242505 164.61225 
L 374.242505 165.602307 
L 374.242505 164.61225 
L 374.506761 163.622194 
L 374.771017 164.61225 
L 374.771017 166.598437 
L 374.242505 170.564737 
L 373.452641 172.54485 
L 372.39852 172.54485 
L 371.870008 171.554794 
L 372.134264 171.554794 
L 372.662776 172.54485 
L 372.662776 172.54485 
L 372.924128 171.554794 
L 372.134264 169.568607 
L 371.080144 167.588494 
L 370.815888 165.602307 
L 371.080144 165.602307 
L 371.3444 166.598437 
L 371.870008 173.534907 
L 371.870008 173.534907 
L 371.870008 169.568607 
L 371.608656 169.568607 
L 371.870008 170.564737 
L 372.39852 171.554794 
L 372.662776 171.554794 
L 372.662776 172.54485 
L 372.134264 173.534907 
L 371.608656 175.521093 
L 371.080144 175.521093 
L 370.815888 174.531037 
L 370.815888 175.521093 
L 371.080144 177.501206 
L 371.080144 177.501206 
L 370.815888 176.51115 
L 370.815888 175.521093 
L 370.815888 175.521093 
L 371.3444 176.51115 
L 371.080144 178.497337 
L 369.500415 180.47745 
L 369.500415 179.487393 
L 370.29028 178.497337 
L 370.554536 178.497337 
L 370.026024 178.497337 
L 369.761767 179.487393 
L 369.761767 180.47745 
L 370.026024 180.47745 
L 369.500415 181.467506 
L 369.236159 182.457563 
L 369.761767 182.457563 
L 370.026024 181.467506 
L 369.761767 180.47745 
L 369.236159 180.47745 
L 370.026024 180.47745 
L 370.29028 182.457563 
L 370.026024 184.44375 
L 369.500415 186.423863 
L 369.500415 183.453693 
L 369.761767 182.457563 
L 369.761767 183.453693 
L 369.761767 183.453693 
L 370.29028 183.453693 
L 370.554536 180.47745 
L 370.026024 178.497337 
L 369.500415 178.497337 
L 369.236159 179.487393 
L 369.236159 180.47745 
L 369.500415 182.457563 
L 369.500415 185.433806 
L 369.236159 187.419993 
L 369.236159 183.453693 
L 368.446295 181.467506 
L 367.917783 182.457563 
L 367.917783 184.44375 
L 368.707647 187.419993 
L 368.707647 190.390163 
L 368.971903 191.386293 
L 367.917783 185.433806 
L 367.917783 183.453693 
L 368.446295 185.433806 
L 368.971903 186.423863 
L 368.971903 185.433806 
L 368.707647 185.433806 
L 367.917783 188.41005 
L 367.392175 191.386293 
L 367.653527 192.37635 
L 368.446295 189.400106 
L 368.446295 188.41005 
L 368.182039 188.41005 
L 368.446295 188.41005 
L 367.653527 189.400106 
L 366.863662 191.386293 
L 366.599406 191.386293 
L 366.863662 189.400106 
L 367.392175 189.400106 
L 366.863662 191.386293 
L 367.392175 190.390163 
L 367.917783 188.41005 
L 367.653527 189.400106 
L 366.863662 190.390163 
L 366.338054 190.390163 
L 366.073798 191.386293 
L 365.283934 192.37635 
L 363.965558 193.366406 
L 361.857317 193.366406 
L 360.53894 195.352593 
L 358.169348 196.34265 
L 351.58037 198.322763 
L 348.418008 196.34265 
L 344.991391 194.356463 
L 341.82903 194.356463 
L 339.72079 196.34265 
L 338.141061 195.352593 
L 335.768564 195.352593 
L 329.18249 197.332706 
L 323.383376 197.332706 
L 321.275136 196.34265 
L 319.956759 194.356463 
L 318.112775 194.356463 
L 316.26879 196.34265 
L 314.950414 196.34265 
L 314.160549 195.352593 
L 313.370685 195.352593 
L 313.370685 196.34265 
L 313.896293 197.332706 
L 313.896293 198.322763 
L 313.106429 199.318893 
L 312.842173 200.30895 
L 312.580821 200.30895 
L 312.580821 199.318893 
L 311.5267 203.279119 
L 311.5267 203.279119 
L 312.052309 204.275249 
L 312.316565 204.275249 
L 311.788053 208.241549 
L 311.788053 209.231606 
L 311.788053 208.241549 
L 310.733932 208.241549 
L 310.47258 209.231606 
L 310.998188 214.187962 
L 311.262444 215.178019 
L 311.788053 215.178019 
L 311.5267 213.197906 
L 310.733932 211.211719 
L 310.208324 213.197906 
L 310.208324 215.178019 
L 310.47258 216.174149 
L 310.733932 216.174149 
L 310.733932 217.164206 
L 310.47258 218.154262 
L 309.944068 217.164206 
L 309.41846 217.164206 
L 308.889948 215.178019 
L 308.625692 213.197906 
L 309.154204 213.197906 
L 309.679812 215.178019 
L 309.679812 217.164206 
L 309.41846 218.154262 
L 309.154204 220.134375 
L 309.154204 221.130506 
L 309.154204 221.130506 
L 308.889948 219.144319 
L 308.889948 220.134375 
L 309.154204 221.130506 
L 309.154204 222.120562 
L 309.154204 222.120562 
L 308.625692 223.110619 
L 308.364339 224.100675 
L 308.100083 226.086862 
L 307.835827 225.096806 
L 307.571571 223.110619 
L 307.571571 221.130506 
L 307.835827 220.134375 
L 308.100083 220.134375 
L 308.625692 221.130506 
L 308.364339 222.120562 
L 307.571571 223.110619 
L 307.045963 225.096806 
L 307.310219 226.086862 
L 307.310219 226.086862 
L 307.310219 225.096806 
L 307.310219 225.096806 
L 308.100083 225.096806 
L 308.100083 225.096806 
L 308.364339 226.086862 
L 308.100083 227.076919 
L 307.310219 226.086862 
L 306.781707 226.086862 
L 307.310219 230.053162 
L 307.310219 230.053162 
L 306.781707 229.063106 
L 306.517451 229.063106 
L 306.256099 231.043219 
L 305.991843 231.043219 
L 306.256099 230.053162 
L 306.517451 232.033275 
L 306.781707 235.009518 
L 307.045963 235.009518 
L 307.045963 232.033275 
L 306.517451 232.033275 
L 305.201978 233.029406 
L 304.147858 233.029406 
L 304.673466 231.043219 
L 305.991843 230.053162 
L 306.517451 231.043219 
L 306.256099 233.029406 
L 306.256099 235.999575 
L 306.517451 237.985762 
L 306.256099 235.999575 
L 305.463331 234.019462 
L 304.937722 234.019462 
L 305.201978 235.999575 
L 305.991843 236.995705 
L 306.517451 237.985762 
L 305.991843 236.995705 
L 304.937722 235.999575 
L 304.673466 235.009518 
L 303.883602 235.009518 
L 304.40921 236.995705 
L 304.937722 239.965875 
L 305.201978 239.965875 
L 304.673466 235.999575 
L 304.40921 235.999575 
L 304.147858 237.985762 
L 303.883602 238.975818 
L 304.147858 238.975818 
L 303.619346 237.985762 
L 303.35509 236.995705 
L 303.35509 239.965875 
L 303.35509 239.965875 
L 303.619346 237.985762 
L 303.35509 236.995705 
L 302.565226 239.965875 
L 302.829482 240.955931 
L 303.093738 240.955931 
L 302.829482 238.975818 
L 302.565226 237.985762 
L 302.30097 237.985762 
L 302.30097 237.985762 
L 302.565226 238.975818 
L 303.093738 239.965875 
L 303.35509 239.965875 
L 303.093738 241.952062 
L 302.565226 243.932175 
L 302.565226 243.932175 
L 302.829482 243.932175 
L 302.829482 244.922231 
L 302.30097 245.918362 
L 302.565226 244.922231 
L 303.093738 243.932175 
L 303.35509 243.932175 
L 303.093738 243.932175 
L 302.829482 245.918362 
L 302.829482 246.908418 
L 302.829482 242.942118 
L 302.30097 244.922231 
L 301.511105 246.908418 
L 300.985497 246.908418 
L 300.985497 244.922231 
L 300.985497 244.922231 
L 301.775361 247.898475 
L 301.511105 248.888531 
L 301.249753 248.888531 
L 300.721241 244.922231 
L 300.456985 243.932175 
L 300.456985 245.918362 
L 300.195633 243.932175 
L 299.402865 240.955931 
L 298.877256 237.985762 
L 298.087392 235.009518 
L 297.294624 229.063106 
L 296.50476 220.134375 
L 295.979151 212.207849 
L 294.396519 193.366406 
L 292.81679 184.44375 
L 290.70855 174.531037 
L 288.336053 165.602307 
L 285.6993 159.655894 
L 283.593963 153.709481 
L 282.011331 145.776881 
L 279.638834 135.858094 
L 277.530593 124.955325 
L 276.215121 115.036538 
L 275.161001 109.090125 
L 274.10688 105.123825 
L 273.578368 98.181282 
L 272.788504 90.248682 
L 271.99864 85.292325 
L 271.205871 81.326026 
L 270.944519 79.345913 
L 271.205871 77.359726 
L 271.99864 75.379613 
L 272.524248 75.379613 
L 272.259992 76.369669 
L 272.259992 78.355856 
L 271.99864 79.345913 
L 271.734384 81.326026 
L 271.470128 84.302269 
L 270.151751 94.214982 
L 268.836279 101.157525 
L 263.565677 120.989025 
L 262.247301 124.955325 
L 260.667572 128.921625 
L 259.613452 129.911681 
L 258.820683 130.901738 
L 258.030819 130.901738 
L 256.451091 131.891794 
L 254.34285 138.834338 
L 254.34285 139.824394 
L 254.604202 139.824394 
L 254.604202 138.834338 
L 254.34285 134.868038 
L 254.868458 130.901738 
L 255.658322 126.935438 
L 256.712443 122.969138 
L 257.766563 121.979081 
L 258.820683 121.979081 
L 260.403316 118.012781 
L 261.983044 111.070238 
L 263.301421 103.143712 
L 264.884053 99.177412 
L 266.463782 96.201169 
L 267.253646 91.244812 
L 267.782158 85.292325 
L 268.307766 81.326026 
L 269.100535 76.369669 
L 269.890399 69.4332 
L 270.416007 63.480713 
L 270.416007 60.504469 
L 270.680263 59.514413 
L 270.680263 60.504469 
L 270.416007 60.504469 
L 269.890399 62.490656 
L 269.361887 61.5006 
L 268.572023 56.538169 
L 268.307766 56.538169 
L 268.307766 57.5343 
L 268.572023 58.524356 
L 267.782158 55.548113 
L 267.253646 55.548113 
L 267.517902 57.5343 
L 268.307766 58.524356 
L 269.361887 56.538169 
L 269.890399 53.568 
L 270.416007 53.568 
L 270.680263 54.558056 
L 270.944519 53.568 
L 271.470128 53.568 
L 272.788504 54.558056 
L 273.842624 56.538169 
L 274.10688 58.524356 
L 273.842624 60.504469 
L 273.842624 61.5006 
L 274.896745 60.504469 
L 275.686609 58.524356 
L 275.161001 59.514413 
L 274.368232 61.5006 
L 274.368232 67.447013 
L 274.10688 67.447013 
L 273.842624 69.4332 
L 273.842624 70.423256 
L 273.578368 71.413313 
L 273.578368 71.413313 
" style="fill:none;stroke:#1f77b4;stroke-linecap:square;stroke-width:1.5;"/>
   </g>
   <g id="matplotlib.axis_1">
    <g id="xtick_1">
     <g id="line2d_2">
      <defs>
       <path d="M 0 0 
L 0 3.5 
" id="m32820fb281" style="stroke:#000000;stroke-width:0.8;"/>
      </defs>
      <g>
       <use style="stroke:#000000;stroke-width:0.8;" x="57.274617" xlink:href="#m32820fb281" y="307.584"/>
      </g>
     </g>
     <g id="text_1">
      <!-- −800 -->
      <defs>
       <path d="M 10.59375 35.5 
L 73.1875 35.5 
L 73.1875 27.203125 
L 10.59375 27.203125 
z
" id="DejaVuSans-8722"/>
       <path d="M 31.78125 34.625 
Q 24.75 34.625 20.71875 30.859375 
Q 16.703125 27.09375 16.703125 20.515625 
Q 16.703125 13.921875 20.71875 10.15625 
Q 24.75 6.390625 31.78125 6.390625 
Q 38.8125 6.390625 42.859375 10.171875 
Q 46.921875 13.96875 46.921875 20.515625 
Q 46.921875 27.09375 42.890625 30.859375 
Q 38.875 34.625 31.78125 34.625 
z
M 21.921875 38.8125 
Q 15.578125 40.375 12.03125 44.71875 
Q 8.5 49.078125 8.5 55.328125 
Q 8.5 64.0625 14.71875 69.140625 
Q 20.953125 74.21875 31.78125 74.21875 
Q 42.671875 74.21875 48.875 69.140625 
Q 55.078125 64.0625 55.078125 55.328125 
Q 55.078125 49.078125 51.53125 44.71875 
Q 48 40.375 41.703125 38.8125 
Q 48.828125 37.15625 52.796875 32.3125 
Q 56.78125 27.484375 56.78125 20.515625 
Q 56.78125 9.90625 50.3125 4.234375 
Q 43.84375 -1.421875 31.78125 -1.421875 
Q 19.734375 -1.421875 13.25 4.234375 
Q 6.78125 9.90625 6.78125 20.515625 
Q 6.78125 27.484375 10.78125 32.3125 
Q 14.796875 37.15625 21.921875 38.8125 
z
M 18.3125 54.390625 
Q 18.3125 48.734375 21.84375 45.5625 
Q 25.390625 42.390625 31.78125 42.390625 
Q 38.140625 42.390625 41.71875 45.5625 
Q 45.3125 48.734375 45.3125 54.390625 
Q 45.3125 60.0625 41.71875 63.234375 
Q 38.140625 66.40625 31.78125 66.40625 
Q 25.390625 66.40625 21.84375 63.234375 
Q 18.3125 60.0625 18.3125 54.390625 
z
" id="DejaVuSans-56"/>
       <path d="M 31.78125 66.40625 
Q 24.171875 66.40625 20.328125 58.90625 
Q 16.5 51.421875 16.5 36.375 
Q 16.5 21.390625 20.328125 13.890625 
Q 24.171875 6.390625 31.78125 6.390625 
Q 39.453125 6.390625 43.28125 13.890625 
Q 47.125 21.390625 47.125 36.375 
Q 47.125 51.421875 43.28125 58.90625 
Q 39.453125 66.40625 31.78125 66.40625 
z
M 31.78125 74.21875 
Q 44.046875 74.21875 50.515625 64.515625 
Q 56.984375 54.828125 56.984375 36.375 
Q 56.984375 17.96875 50.515625 8.265625 
Q 44.046875 -1.421875 31.78125 -1.421875 
Q 19.53125 -1.421875 13.0625 8.265625 
Q 6.59375 17.96875 6.59375 36.375 
Q 6.59375 54.828125 13.0625 64.515625 
Q 19.53125 74.21875 31.78125 74.21875 
z
" id="DejaVuSans-48"/>
      </defs>
      <g transform="translate(43.541023 322.182437)scale(0.1 -0.1)">
       <use xlink:href="#DejaVuSans-8722"/>
       <use x="83.789062" xlink:href="#DejaVuSans-56"/>
       <use x="147.412109" xlink:href="#DejaVuSans-48"/>
       <use x="211.035156" xlink:href="#DejaVuSans-48"/>
      </g>
     </g>
    </g>
    <g id="xtick_2">
     <g id="line2d_3">
      <g>
       <use style="stroke:#000000;stroke-width:0.8;" x="115.352872" xlink:href="#m32820fb281" y="307.584"/>
      </g>
     </g>
     <g id="text_2">
      <!-- −600 -->
      <defs>
       <path d="M 33.015625 40.375 
Q 26.375 40.375 22.484375 35.828125 
Q 18.609375 31.296875 18.609375 23.390625 
Q 18.609375 15.53125 22.484375 10.953125 
Q 26.375 6.390625 33.015625 6.390625 
Q 39.65625 6.390625 43.53125 10.953125 
Q 47.40625 15.53125 47.40625 23.390625 
Q 47.40625 31.296875 43.53125 35.828125 
Q 39.65625 40.375 33.015625 40.375 
z
M 52.59375 71.296875 
L 52.59375 62.3125 
Q 48.875 64.0625 45.09375 64.984375 
Q 41.3125 65.921875 37.59375 65.921875 
Q 27.828125 65.921875 22.671875 59.328125 
Q 17.53125 52.734375 16.796875 39.40625 
Q 19.671875 43.65625 24.015625 45.921875 
Q 28.375 48.1875 33.59375 48.1875 
Q 44.578125 48.1875 50.953125 41.515625 
Q 57.328125 34.859375 57.328125 23.390625 
Q 57.328125 12.15625 50.6875 5.359375 
Q 44.046875 -1.421875 33.015625 -1.421875 
Q 20.359375 -1.421875 13.671875 8.265625 
Q 6.984375 17.96875 6.984375 36.375 
Q 6.984375 53.65625 15.1875 63.9375 
Q 23.390625 74.21875 37.203125 74.21875 
Q 40.921875 74.21875 44.703125 73.484375 
Q 48.484375 72.75 52.59375 71.296875 
z
" id="DejaVuSans-54"/>
      </defs>
      <g transform="translate(101.619279 322.182437)scale(0.1 -0.1)">
       <use xlink:href="#DejaVuSans-8722"/>
       <use x="83.789062" xlink:href="#DejaVuSans-54"/>
       <use x="147.412109" xlink:href="#DejaVuSans-48"/>
       <use x="211.035156" xlink:href="#DejaVuSans-48"/>
      </g>
     </g>
    </g>
    <g id="xtick_3">
     <g id="line2d_4">
      <g>
       <use style="stroke:#000000;stroke-width:0.8;" x="173.431128" xlink:href="#m32820fb281" y="307.584"/>
      </g>
     </g>
     <g id="text_3">
      <!-- −400 -->
      <defs>
       <path d="M 37.796875 64.3125 
L 12.890625 25.390625 
L 37.796875 25.390625 
z
M 35.203125 72.90625 
L 47.609375 72.90625 
L 47.609375 25.390625 
L 58.015625 25.390625 
L 58.015625 17.1875 
L 47.609375 17.1875 
L 47.609375 0 
L 37.796875 0 
L 37.796875 17.1875 
L 4.890625 17.1875 
L 4.890625 26.703125 
z
" id="DejaVuSans-52"/>
      </defs>
      <g transform="translate(159.697534 322.182437)scale(0.1 -0.1)">
       <use xlink:href="#DejaVuSans-8722"/>
       <use x="83.789062" xlink:href="#DejaVuSans-52"/>
       <use x="147.412109" xlink:href="#DejaVuSans-48"/>
       <use x="211.035156" xlink:href="#DejaVuSans-48"/>
      </g>
     </g>
    </g>
    <g id="xtick_4">
     <g id="line2d_5">
      <g>
       <use style="stroke:#000000;stroke-width:0.8;" x="231.509384" xlink:href="#m32820fb281" y="307.584"/>
      </g>
     </g>
     <g id="text_4">
      <!-- −200 -->
      <defs>
       <path d="M 19.1875 8.296875 
L 53.609375 8.296875 
L 53.609375 0 
L 7.328125 0 
L 7.328125 8.296875 
Q 12.9375 14.109375 22.625 23.890625 
Q 32.328125 33.6875 34.8125 36.53125 
Q 39.546875 41.84375 41.421875 45.53125 
Q 43.3125 49.21875 43.3125 52.78125 
Q 43.3125 58.59375 39.234375 62.25 
Q 35.15625 65.921875 28.609375 65.921875 
Q 23.96875 65.921875 18.8125 64.3125 
Q 13.671875 62.703125 7.8125 59.421875 
L 7.8125 69.390625 
Q 13.765625 71.78125 18.9375 73 
Q 24.125 74.21875 28.421875 74.21875 
Q 39.75 74.21875 46.484375 68.546875 
Q 53.21875 62.890625 53.21875 53.421875 
Q 53.21875 48.921875 51.53125 44.890625 
Q 49.859375 40.875 45.40625 35.40625 
Q 44.1875 33.984375 37.640625 27.21875 
Q 31.109375 20.453125 19.1875 8.296875 
z
" id="DejaVuSans-50"/>
      </defs>
      <g transform="translate(217.77579 322.182437)scale(0.1 -0.1)">
       <use xlink:href="#DejaVuSans-8722"/>
       <use x="83.789062" xlink:href="#DejaVuSans-50"/>
       <use x="147.412109" xlink:href="#DejaVuSans-48"/>
       <use x="211.035156" xlink:href="#DejaVuSans-48"/>
      </g>
     </g>
    </g>
    <g id="xtick_5">
     <g id="line2d_6">
      <g>
       <use style="stroke:#000000;stroke-width:0.8;" x="289.587639" xlink:href="#m32820fb281" y="307.584"/>
      </g>
     </g>
     <g id="text_5">
      <!-- 0 -->
      <g transform="translate(286.406389 322.182437)scale(0.1 -0.1)">
       <use xlink:href="#DejaVuSans-48"/>
      </g>
     </g>
    </g>
    <g id="xtick_6">
     <g id="line2d_7">
      <g>
       <use style="stroke:#000000;stroke-width:0.8;" x="347.665895" xlink:href="#m32820fb281" y="307.584"/>
      </g>
     </g>
     <g id="text_6">
      <!-- 200 -->
      <g transform="translate(338.122145 322.182437)scale(0.1 -0.1)">
       <use xlink:href="#DejaVuSans-50"/>
       <use x="63.623047" xlink:href="#DejaVuSans-48"/>
       <use x="127.246094" xlink:href="#DejaVuSans-48"/>
      </g>
     </g>
    </g>
    <g id="xtick_7">
     <g id="line2d_8">
      <g>
       <use style="stroke:#000000;stroke-width:0.8;" x="405.744151" xlink:href="#m32820fb281" y="307.584"/>
      </g>
     </g>
     <g id="text_7">
      <!-- 400 -->
      <g transform="translate(396.200401 322.182437)scale(0.1 -0.1)">
       <use xlink:href="#DejaVuSans-52"/>
       <use x="63.623047" xlink:href="#DejaVuSans-48"/>
       <use x="127.246094" xlink:href="#DejaVuSans-48"/>
      </g>
     </g>
    </g>
   </g>
   <g id="matplotlib.axis_2">
    <g id="ytick_1">
     <g id="line2d_9">
      <defs>
       <path d="M 0 0 
L -3.5 0 
" id="ma3583d72d0" style="stroke:#000000;stroke-width:0.8;"/>
      </defs>
      <g>
       <use style="stroke:#000000;stroke-width:0.8;" x="57.6" xlink:href="#ma3583d72d0" y="284.099313"/>
      </g>
     </g>
     <g id="text_8">
      <!-- −450 -->
      <defs>
       <path d="M 10.796875 72.90625 
L 49.515625 72.90625 
L 49.515625 64.59375 
L 19.828125 64.59375 
L 19.828125 46.734375 
Q 21.96875 47.46875 24.109375 47.828125 
Q 26.265625 48.1875 28.421875 48.1875 
Q 40.625 48.1875 47.75 41.5 
Q 54.890625 34.8125 54.890625 23.390625 
Q 54.890625 11.625 47.5625 5.09375 
Q 40.234375 -1.421875 26.90625 -1.421875 
Q 22.3125 -1.421875 17.546875 -0.640625 
Q 12.796875 0.140625 7.71875 1.703125 
L 7.71875 11.625 
Q 12.109375 9.234375 16.796875 8.0625 
Q 21.484375 6.890625 26.703125 6.890625 
Q 35.15625 6.890625 40.078125 11.328125 
Q 45.015625 15.765625 45.015625 23.390625 
Q 45.015625 31 40.078125 35.4375 
Q 35.15625 39.890625 26.703125 39.890625 
Q 22.75 39.890625 18.8125 39.015625 
Q 14.890625 38.140625 10.796875 36.28125 
z
" id="DejaVuSans-53"/>
      </defs>
      <g transform="translate(23.132812 287.898532)scale(0.1 -0.1)">
       <use xlink:href="#DejaVuSans-8722"/>
       <use x="83.789062" xlink:href="#DejaVuSans-52"/>
       <use x="147.412109" xlink:href="#DejaVuSans-53"/>
       <use x="211.035156" xlink:href="#DejaVuSans-48"/>
      </g>
     </g>
    </g>
    <g id="ytick_2">
     <g id="line2d_10">
      <g>
       <use style="stroke:#000000;stroke-width:0.8;" x="57.6" xlink:href="#ma3583d72d0" y="253.729482"/>
      </g>
     </g>
     <g id="text_9">
      <!-- −400 -->
      <g transform="translate(23.132812 257.528701)scale(0.1 -0.1)">
       <use xlink:href="#DejaVuSans-8722"/>
       <use x="83.789062" xlink:href="#DejaVuSans-52"/>
       <use x="147.412109" xlink:href="#DejaVuSans-48"/>
       <use x="211.035156" xlink:href="#DejaVuSans-48"/>
      </g>
     </g>
    </g>
    <g id="ytick_3">
     <g id="line2d_11">
      <g>
       <use style="stroke:#000000;stroke-width:0.8;" x="57.6" xlink:href="#ma3583d72d0" y="223.359651"/>
      </g>
     </g>
     <g id="text_10">
      <!-- −350 -->
      <defs>
       <path d="M 40.578125 39.3125 
Q 47.65625 37.796875 51.625 33 
Q 55.609375 28.21875 55.609375 21.1875 
Q 55.609375 10.40625 48.1875 4.484375 
Q 40.765625 -1.421875 27.09375 -1.421875 
Q 22.515625 -1.421875 17.65625 -0.515625 
Q 12.796875 0.390625 7.625 2.203125 
L 7.625 11.71875 
Q 11.71875 9.328125 16.59375 8.109375 
Q 21.484375 6.890625 26.8125 6.890625 
Q 36.078125 6.890625 40.9375 10.546875 
Q 45.796875 14.203125 45.796875 21.1875 
Q 45.796875 27.640625 41.28125 31.265625 
Q 36.765625 34.90625 28.71875 34.90625 
L 20.21875 34.90625 
L 20.21875 43.015625 
L 29.109375 43.015625 
Q 36.375 43.015625 40.234375 45.921875 
Q 44.09375 48.828125 44.09375 54.296875 
Q 44.09375 59.90625 40.109375 62.90625 
Q 36.140625 65.921875 28.71875 65.921875 
Q 24.65625 65.921875 20.015625 65.03125 
Q 15.375 64.15625 9.8125 62.3125 
L 9.8125 71.09375 
Q 15.4375 72.65625 20.34375 73.4375 
Q 25.25 74.21875 29.59375 74.21875 
Q 40.828125 74.21875 47.359375 69.109375 
Q 53.90625 64.015625 53.90625 55.328125 
Q 53.90625 49.265625 50.4375 45.09375 
Q 46.96875 40.921875 40.578125 39.3125 
z
" id="DejaVuSans-51"/>
      </defs>
      <g transform="translate(23.132812 227.15887)scale(0.1 -0.1)">
       <use xlink:href="#DejaVuSans-8722"/>
       <use x="83.789062" xlink:href="#DejaVuSans-51"/>
       <use x="147.412109" xlink:href="#DejaVuSans-53"/>
       <use x="211.035156" xlink:href="#DejaVuSans-48"/>
      </g>
     </g>
    </g>
    <g id="ytick_4">
     <g id="line2d_12">
      <g>
       <use style="stroke:#000000;stroke-width:0.8;" x="57.6" xlink:href="#ma3583d72d0" y="192.98982"/>
      </g>
     </g>
     <g id="text_11">
      <!-- −300 -->
      <g transform="translate(23.132812 196.789039)scale(0.1 -0.1)">
       <use xlink:href="#DejaVuSans-8722"/>
       <use x="83.789062" xlink:href="#DejaVuSans-51"/>
       <use x="147.412109" xlink:href="#DejaVuSans-48"/>
       <use x="211.035156" xlink:href="#DejaVuSans-48"/>
      </g>
     </g>
    </g>
    <g id="ytick_5">
     <g id="line2d_13">
      <g>
       <use style="stroke:#000000;stroke-width:0.8;" x="57.6" xlink:href="#ma3583d72d0" y="162.619989"/>
      </g>
     </g>
     <g id="text_12">
      <!-- −250 -->
      <g transform="translate(23.132812 166.419208)scale(0.1 -0.1)">
       <use xlink:href="#DejaVuSans-8722"/>
       <use x="83.789062" xlink:href="#DejaVuSans-50"/>
       <use x="147.412109" xlink:href="#DejaVuSans-53"/>
       <use x="211.035156" xlink:href="#DejaVuSans-48"/>
      </g>
     </g>
    </g>
    <g id="ytick_6">
     <g id="line2d_14">
      <g>
       <use style="stroke:#000000;stroke-width:0.8;" x="57.6" xlink:href="#ma3583d72d0" y="132.250158"/>
      </g>
     </g>
     <g id="text_13">
      <!-- −200 -->
      <g transform="translate(23.132812 136.049377)scale(0.1 -0.1)">
       <use xlink:href="#DejaVuSans-8722"/>
       <use x="83.789062" xlink:href="#DejaVuSans-50"/>
       <use x="147.412109" xlink:href="#DejaVuSans-48"/>
       <use x="211.035156" xlink:href="#DejaVuSans-48"/>
      </g>
     </g>
    </g>
    <g id="ytick_7">
     <g id="line2d_15">
      <g>
       <use style="stroke:#000000;stroke-width:0.8;" x="57.6" xlink:href="#ma3583d72d0" y="101.880327"/>
      </g>
     </g>
     <g id="text_14">
      <!-- −150 -->
      <defs>
       <path d="M 12.40625 8.296875 
L 28.515625 8.296875 
L 28.515625 63.921875 
L 10.984375 60.40625 
L 10.984375 69.390625 
L 28.421875 72.90625 
L 38.28125 72.90625 
L 38.28125 8.296875 
L 54.390625 8.296875 
L 54.390625 0 
L 12.40625 0 
z
" id="DejaVuSans-49"/>
      </defs>
      <g transform="translate(23.132812 105.679546)scale(0.1 -0.1)">
       <use xlink:href="#DejaVuSans-8722"/>
       <use x="83.789062" xlink:href="#DejaVuSans-49"/>
       <use x="147.412109" xlink:href="#DejaVuSans-53"/>
       <use x="211.035156" xlink:href="#DejaVuSans-48"/>
      </g>
     </g>
    </g>
    <g id="ytick_8">
     <g id="line2d_16">
      <g>
       <use style="stroke:#000000;stroke-width:0.8;" x="57.6" xlink:href="#ma3583d72d0" y="71.510496"/>
      </g>
     </g>
     <g id="text_15">
      <!-- −100 -->
      <g transform="translate(23.132812 75.309715)scale(0.1 -0.1)">
       <use xlink:href="#DejaVuSans-8722"/>
       <use x="83.789062" xlink:href="#DejaVuSans-49"/>
       <use x="147.412109" xlink:href="#DejaVuSans-48"/>
       <use x="211.035156" xlink:href="#DejaVuSans-48"/>
      </g>
     </g>
    </g>
    <g id="ytick_9">
     <g id="line2d_17">
      <g>
       <use style="stroke:#000000;stroke-width:0.8;" x="57.6" xlink:href="#ma3583d72d0" y="41.140665"/>
      </g>
     </g>
     <g id="text_16">
      <!-- −50 -->
      <g transform="translate(29.495313 44.939884)scale(0.1 -0.1)">
       <use xlink:href="#DejaVuSans-8722"/>
       <use x="83.789062" xlink:href="#DejaVuSans-53"/>
       <use x="147.412109" xlink:href="#DejaVuSans-48"/>
      </g>
     </g>
    </g>
   </g>
   <g id="line2d_18">
    <path clip-path="url(#pef74261114)" d="M 77.040792 242.298006 
L 232.040531 183.993545 
L 194.589362 263.626452 
L 382.30036 119.653512 
L 365.692739 177.076029 
L 304.811045 224.947629 
" style="fill:none;stroke:#ff0000;stroke-linecap:square;stroke-width:0.5;"/>
   </g>
   <g id="patch_3">
    <path d="M 57.6 307.584 
L 57.6 41.472 
" style="fill:none;stroke:#000000;stroke-linecap:square;stroke-linejoin:miter;stroke-width:0.8;"/>
   </g>
   <g id="patch_4">
    <path d="M 414.72 307.584 
L 414.72 41.472 
" style="fill:none;stroke:#000000;stroke-linecap:square;stroke-linejoin:miter;stroke-width:0.8;"/>
   </g>
   <g id="patch_5">
    <path d="M 57.6 307.584 
L 414.72 307.584 
" style="fill:none;stroke:#000000;stroke-linecap:square;stroke-linejoin:miter;stroke-width:0.8;"/>
   </g>
   <g id="patch_6">
    <path d="M 57.6 41.472 
L 414.72 41.472 
" style="fill:none;stroke:#000000;stroke-linecap:square;stroke-linejoin:miter;stroke-width:0.8;"/>
   </g>
   <g id="PathCollection_1">
    <defs>
     <path d="M 0 2.738613 
C 0.726289 2.738613 1.422928 2.450055 1.936492 1.936492 
C 2.450055 1.422928 2.738613 0.726289 2.738613 0 
C 2.738613 -0.726289 2.450055 -1.422928 1.936492 -1.936492 
C 1.422928 -2.450055 0.726289 -2.738613 0 -2.738613 
C -0.726289 -2.738613 -1.422928 -2.450055 -1.936492 -1.936492 
C -2.450055 -1.422928 -2.738613 -0.726289 -2.738613 0 
C -2.738613 0.726289 -2.450055 1.422928 -1.936492 1.936492 
C -1.422928 2.450055 -0.726289 2.738613 0 2.738613 
z
" id="m172eb87142" style="stroke:#ff0000;"/>
    </defs>
    <g clip-path="url(#pef74261114)">
     <use style="fill:#ff0000;stroke:#ff0000;" x="77.040792" xlink:href="#m172eb87142" y="242.298006"/>
     <use style="fill:#ff0000;stroke:#ff0000;" x="232.040531" xlink:href="#m172eb87142" y="183.993545"/>
     <use style="fill:#ff0000;stroke:#ff0000;" x="194.589362" xlink:href="#m172eb87142" y="263.626452"/>
     <use style="fill:#ff0000;stroke:#ff0000;" x="382.30036" xlink:href="#m172eb87142" y="119.653512"/>
     <use style="fill:#ff0000;stroke:#ff0000;" x="365.692739" xlink:href="#m172eb87142" y="177.076029"/>
     <use style="fill:#ff0000;stroke:#ff0000;" x="304.811045" xlink:href="#m172eb87142" y="224.947629"/>
    </g>
   </g>
   <g id="text_17">
    <!-- (11) Subject: s13, Known = False, Degree = 2, Duration = 0.1 -->
    <defs>
     <path d="M 31 75.875 
Q 24.46875 64.65625 21.28125 53.65625 
Q 18.109375 42.671875 18.109375 31.390625 
Q 18.109375 20.125 21.3125 9.0625 
Q 24.515625 -2 31 -13.1875 
L 23.1875 -13.1875 
Q 15.875 -1.703125 12.234375 9.375 
Q 8.59375 20.453125 8.59375 31.390625 
Q 8.59375 42.28125 12.203125 53.3125 
Q 15.828125 64.359375 23.1875 75.875 
z
" id="DejaVuSans-40"/>
     <path d="M 8.015625 75.875 
L 15.828125 75.875 
Q 23.140625 64.359375 26.78125 53.3125 
Q 30.421875 42.28125 30.421875 31.390625 
Q 30.421875 20.453125 26.78125 9.375 
Q 23.140625 -1.703125 15.828125 -13.1875 
L 8.015625 -13.1875 
Q 14.5 -2 17.703125 9.0625 
Q 20.90625 20.125 20.90625 31.390625 
Q 20.90625 42.671875 17.703125 53.65625 
Q 14.5 64.65625 8.015625 75.875 
z
" id="DejaVuSans-41"/>
     <path id="DejaVuSans-32"/>
     <path d="M 53.515625 70.515625 
L 53.515625 60.890625 
Q 47.90625 63.578125 42.921875 64.890625 
Q 37.9375 66.21875 33.296875 66.21875 
Q 25.25 66.21875 20.875 63.09375 
Q 16.5 59.96875 16.5 54.203125 
Q 16.5 49.359375 19.40625 46.890625 
Q 22.3125 44.4375 30.421875 42.921875 
L 36.375 41.703125 
Q 47.40625 39.59375 52.65625 34.296875 
Q 57.90625 29 57.90625 20.125 
Q 57.90625 9.515625 50.796875 4.046875 
Q 43.703125 -1.421875 29.984375 -1.421875 
Q 24.8125 -1.421875 18.96875 -0.25 
Q 13.140625 0.921875 6.890625 3.21875 
L 6.890625 13.375 
Q 12.890625 10.015625 18.65625 8.296875 
Q 24.421875 6.59375 29.984375 6.59375 
Q 38.421875 6.59375 43.015625 9.90625 
Q 47.609375 13.234375 47.609375 19.390625 
Q 47.609375 24.75 44.3125 27.78125 
Q 41.015625 30.8125 33.5 32.328125 
L 27.484375 33.5 
Q 16.453125 35.6875 11.515625 40.375 
Q 6.59375 45.0625 6.59375 53.421875 
Q 6.59375 63.09375 13.40625 68.65625 
Q 20.21875 74.21875 32.171875 74.21875 
Q 37.3125 74.21875 42.625 73.28125 
Q 47.953125 72.359375 53.515625 70.515625 
z
" id="DejaVuSans-83"/>
     <path d="M 8.5 21.578125 
L 8.5 54.6875 
L 17.484375 54.6875 
L 17.484375 21.921875 
Q 17.484375 14.15625 20.5 10.265625 
Q 23.53125 6.390625 29.59375 6.390625 
Q 36.859375 6.390625 41.078125 11.03125 
Q 45.3125 15.671875 45.3125 23.6875 
L 45.3125 54.6875 
L 54.296875 54.6875 
L 54.296875 0 
L 45.3125 0 
L 45.3125 8.40625 
Q 42.046875 3.421875 37.71875 1 
Q 33.40625 -1.421875 27.6875 -1.421875 
Q 18.265625 -1.421875 13.375 4.4375 
Q 8.5 10.296875 8.5 21.578125 
z
M 31.109375 56 
z
" id="DejaVuSans-117"/>
     <path d="M 48.6875 27.296875 
Q 48.6875 37.203125 44.609375 42.84375 
Q 40.53125 48.484375 33.40625 48.484375 
Q 26.265625 48.484375 22.1875 42.84375 
Q 18.109375 37.203125 18.109375 27.296875 
Q 18.109375 17.390625 22.1875 11.75 
Q 26.265625 6.109375 33.40625 6.109375 
Q 40.53125 6.109375 44.609375 11.75 
Q 48.6875 17.390625 48.6875 27.296875 
z
M 18.109375 46.390625 
Q 20.953125 51.265625 25.265625 53.625 
Q 29.59375 56 35.59375 56 
Q 45.5625 56 51.78125 48.09375 
Q 58.015625 40.1875 58.015625 27.296875 
Q 58.015625 14.40625 51.78125 6.484375 
Q 45.5625 -1.421875 35.59375 -1.421875 
Q 29.59375 -1.421875 25.265625 0.953125 
Q 20.953125 3.328125 18.109375 8.203125 
L 18.109375 0 
L 9.078125 0 
L 9.078125 75.984375 
L 18.109375 75.984375 
z
" id="DejaVuSans-98"/>
     <path d="M 9.421875 54.6875 
L 18.40625 54.6875 
L 18.40625 -0.984375 
Q 18.40625 -11.421875 14.421875 -16.109375 
Q 10.453125 -20.796875 1.609375 -20.796875 
L -1.8125 -20.796875 
L -1.8125 -13.1875 
L 0.59375 -13.1875 
Q 5.71875 -13.1875 7.5625 -10.8125 
Q 9.421875 -8.453125 9.421875 -0.984375 
z
M 9.421875 75.984375 
L 18.40625 75.984375 
L 18.40625 64.59375 
L 9.421875 64.59375 
z
" id="DejaVuSans-106"/>
     <path d="M 56.203125 29.59375 
L 56.203125 25.203125 
L 14.890625 25.203125 
Q 15.484375 15.921875 20.484375 11.0625 
Q 25.484375 6.203125 34.421875 6.203125 
Q 39.59375 6.203125 44.453125 7.46875 
Q 49.3125 8.734375 54.109375 11.28125 
L 54.109375 2.78125 
Q 49.265625 0.734375 44.1875 -0.34375 
Q 39.109375 -1.421875 33.890625 -1.421875 
Q 20.796875 -1.421875 13.15625 6.1875 
Q 5.515625 13.8125 5.515625 26.8125 
Q 5.515625 40.234375 12.765625 48.109375 
Q 20.015625 56 32.328125 56 
Q 43.359375 56 49.78125 48.890625 
Q 56.203125 41.796875 56.203125 29.59375 
z
M 47.21875 32.234375 
Q 47.125 39.59375 43.09375 43.984375 
Q 39.0625 48.390625 32.421875 48.390625 
Q 24.90625 48.390625 20.390625 44.140625 
Q 15.875 39.890625 15.1875 32.171875 
z
" id="DejaVuSans-101"/>
     <path d="M 48.78125 52.59375 
L 48.78125 44.1875 
Q 44.96875 46.296875 41.140625 47.34375 
Q 37.3125 48.390625 33.40625 48.390625 
Q 24.65625 48.390625 19.8125 42.84375 
Q 14.984375 37.3125 14.984375 27.296875 
Q 14.984375 17.28125 19.8125 11.734375 
Q 24.65625 6.203125 33.40625 6.203125 
Q 37.3125 6.203125 41.140625 7.25 
Q 44.96875 8.296875 48.78125 10.40625 
L 48.78125 2.09375 
Q 45.015625 0.34375 40.984375 -0.53125 
Q 36.96875 -1.421875 32.421875 -1.421875 
Q 20.0625 -1.421875 12.78125 6.34375 
Q 5.515625 14.109375 5.515625 27.296875 
Q 5.515625 40.671875 12.859375 48.328125 
Q 20.21875 56 33.015625 56 
Q 37.15625 56 41.109375 55.140625 
Q 45.0625 54.296875 48.78125 52.59375 
z
" id="DejaVuSans-99"/>
     <path d="M 18.3125 70.21875 
L 18.3125 54.6875 
L 36.8125 54.6875 
L 36.8125 47.703125 
L 18.3125 47.703125 
L 18.3125 18.015625 
Q 18.3125 11.328125 20.140625 9.421875 
Q 21.96875 7.515625 27.59375 7.515625 
L 36.8125 7.515625 
L 36.8125 0 
L 27.59375 0 
Q 17.1875 0 13.234375 3.875 
Q 9.28125 7.765625 9.28125 18.015625 
L 9.28125 47.703125 
L 2.6875 47.703125 
L 2.6875 54.6875 
L 9.28125 54.6875 
L 9.28125 70.21875 
z
" id="DejaVuSans-116"/>
     <path d="M 11.71875 12.40625 
L 22.015625 12.40625 
L 22.015625 0 
L 11.71875 0 
z
M 11.71875 51.703125 
L 22.015625 51.703125 
L 22.015625 39.3125 
L 11.71875 39.3125 
z
" id="DejaVuSans-58"/>
     <path d="M 44.28125 53.078125 
L 44.28125 44.578125 
Q 40.484375 46.53125 36.375 47.5 
Q 32.28125 48.484375 27.875 48.484375 
Q 21.1875 48.484375 17.84375 46.4375 
Q 14.5 44.390625 14.5 40.28125 
Q 14.5 37.15625 16.890625 35.375 
Q 19.28125 33.59375 26.515625 31.984375 
L 29.59375 31.296875 
Q 39.15625 29.25 43.1875 25.515625 
Q 47.21875 21.78125 47.21875 15.09375 
Q 47.21875 7.46875 41.1875 3.015625 
Q 35.15625 -1.421875 24.609375 -1.421875 
Q 20.21875 -1.421875 15.453125 -0.5625 
Q 10.6875 0.296875 5.421875 2 
L 5.421875 11.28125 
Q 10.40625 8.6875 15.234375 7.390625 
Q 20.0625 6.109375 24.8125 6.109375 
Q 31.15625 6.109375 34.5625 8.28125 
Q 37.984375 10.453125 37.984375 14.40625 
Q 37.984375 18.0625 35.515625 20.015625 
Q 33.0625 21.96875 24.703125 23.78125 
L 21.578125 24.515625 
Q 13.234375 26.265625 9.515625 29.90625 
Q 5.8125 33.546875 5.8125 39.890625 
Q 5.8125 47.609375 11.28125 51.796875 
Q 16.75 56 26.8125 56 
Q 31.78125 56 36.171875 55.265625 
Q 40.578125 54.546875 44.28125 53.078125 
z
" id="DejaVuSans-115"/>
     <path d="M 11.71875 12.40625 
L 22.015625 12.40625 
L 22.015625 4 
L 14.015625 -11.625 
L 7.71875 -11.625 
L 11.71875 4 
z
" id="DejaVuSans-44"/>
     <path d="M 9.8125 72.90625 
L 19.671875 72.90625 
L 19.671875 42.09375 
L 52.390625 72.90625 
L 65.09375 72.90625 
L 28.90625 38.921875 
L 67.671875 0 
L 54.6875 0 
L 19.671875 35.109375 
L 19.671875 0 
L 9.8125 0 
z
" id="DejaVuSans-75"/>
     <path d="M 54.890625 33.015625 
L 54.890625 0 
L 45.90625 0 
L 45.90625 32.71875 
Q 45.90625 40.484375 42.875 44.328125 
Q 39.84375 48.1875 33.796875 48.1875 
Q 26.515625 48.1875 22.3125 43.546875 
Q 18.109375 38.921875 18.109375 30.90625 
L 18.109375 0 
L 9.078125 0 
L 9.078125 54.6875 
L 18.109375 54.6875 
L 18.109375 46.1875 
Q 21.34375 51.125 25.703125 53.5625 
Q 30.078125 56 35.796875 56 
Q 45.21875 56 50.046875 50.171875 
Q 54.890625 44.34375 54.890625 33.015625 
z
" id="DejaVuSans-110"/>
     <path d="M 30.609375 48.390625 
Q 23.390625 48.390625 19.1875 42.75 
Q 14.984375 37.109375 14.984375 27.296875 
Q 14.984375 17.484375 19.15625 11.84375 
Q 23.34375 6.203125 30.609375 6.203125 
Q 37.796875 6.203125 41.984375 11.859375 
Q 46.1875 17.53125 46.1875 27.296875 
Q 46.1875 37.015625 41.984375 42.703125 
Q 37.796875 48.390625 30.609375 48.390625 
z
M 30.609375 56 
Q 42.328125 56 49.015625 48.375 
Q 55.71875 40.765625 55.71875 27.296875 
Q 55.71875 13.875 49.015625 6.21875 
Q 42.328125 -1.421875 30.609375 -1.421875 
Q 18.84375 -1.421875 12.171875 6.21875 
Q 5.515625 13.875 5.515625 27.296875 
Q 5.515625 40.765625 12.171875 48.375 
Q 18.84375 56 30.609375 56 
z
" id="DejaVuSans-111"/>
     <path d="M 4.203125 54.6875 
L 13.1875 54.6875 
L 24.421875 12.015625 
L 35.59375 54.6875 
L 46.1875 54.6875 
L 57.421875 12.015625 
L 68.609375 54.6875 
L 77.59375 54.6875 
L 63.28125 0 
L 52.6875 0 
L 40.921875 44.828125 
L 29.109375 0 
L 18.5 0 
z
" id="DejaVuSans-119"/>
     <path d="M 10.59375 45.40625 
L 73.1875 45.40625 
L 73.1875 37.203125 
L 10.59375 37.203125 
z
M 10.59375 25.484375 
L 73.1875 25.484375 
L 73.1875 17.1875 
L 10.59375 17.1875 
z
" id="DejaVuSans-61"/>
     <path d="M 9.8125 72.90625 
L 51.703125 72.90625 
L 51.703125 64.59375 
L 19.671875 64.59375 
L 19.671875 43.109375 
L 48.578125 43.109375 
L 48.578125 34.8125 
L 19.671875 34.8125 
L 19.671875 0 
L 9.8125 0 
z
" id="DejaVuSans-70"/>
     <path d="M 34.28125 27.484375 
Q 23.390625 27.484375 19.1875 25 
Q 14.984375 22.515625 14.984375 16.5 
Q 14.984375 11.71875 18.140625 8.90625 
Q 21.296875 6.109375 26.703125 6.109375 
Q 34.1875 6.109375 38.703125 11.40625 
Q 43.21875 16.703125 43.21875 25.484375 
L 43.21875 27.484375 
z
M 52.203125 31.203125 
L 52.203125 0 
L 43.21875 0 
L 43.21875 8.296875 
Q 40.140625 3.328125 35.546875 0.953125 
Q 30.953125 -1.421875 24.3125 -1.421875 
Q 15.921875 -1.421875 10.953125 3.296875 
Q 6 8.015625 6 15.921875 
Q 6 25.140625 12.171875 29.828125 
Q 18.359375 34.515625 30.609375 34.515625 
L 43.21875 34.515625 
L 43.21875 35.40625 
Q 43.21875 41.609375 39.140625 45 
Q 35.0625 48.390625 27.6875 48.390625 
Q 23 48.390625 18.546875 47.265625 
Q 14.109375 46.140625 10.015625 43.890625 
L 10.015625 52.203125 
Q 14.9375 54.109375 19.578125 55.046875 
Q 24.21875 56 28.609375 56 
Q 40.484375 56 46.34375 49.84375 
Q 52.203125 43.703125 52.203125 31.203125 
z
" id="DejaVuSans-97"/>
     <path d="M 9.421875 75.984375 
L 18.40625 75.984375 
L 18.40625 0 
L 9.421875 0 
z
" id="DejaVuSans-108"/>
     <path d="M 19.671875 64.796875 
L 19.671875 8.109375 
L 31.59375 8.109375 
Q 46.6875 8.109375 53.6875 14.9375 
Q 60.6875 21.78125 60.6875 36.53125 
Q 60.6875 51.171875 53.6875 57.984375 
Q 46.6875 64.796875 31.59375 64.796875 
z
M 9.8125 72.90625 
L 30.078125 72.90625 
Q 51.265625 72.90625 61.171875 64.09375 
Q 71.09375 55.28125 71.09375 36.53125 
Q 71.09375 17.671875 61.125 8.828125 
Q 51.171875 0 30.078125 0 
L 9.8125 0 
z
" id="DejaVuSans-68"/>
     <path d="M 45.40625 27.984375 
Q 45.40625 37.75 41.375 43.109375 
Q 37.359375 48.484375 30.078125 48.484375 
Q 22.859375 48.484375 18.828125 43.109375 
Q 14.796875 37.75 14.796875 27.984375 
Q 14.796875 18.265625 18.828125 12.890625 
Q 22.859375 7.515625 30.078125 7.515625 
Q 37.359375 7.515625 41.375 12.890625 
Q 45.40625 18.265625 45.40625 27.984375 
z
M 54.390625 6.78125 
Q 54.390625 -7.171875 48.1875 -13.984375 
Q 42 -20.796875 29.203125 -20.796875 
Q 24.46875 -20.796875 20.265625 -20.09375 
Q 16.0625 -19.390625 12.109375 -17.921875 
L 12.109375 -9.1875 
Q 16.0625 -11.328125 19.921875 -12.34375 
Q 23.78125 -13.375 27.78125 -13.375 
Q 36.625 -13.375 41.015625 -8.765625 
Q 45.40625 -4.15625 45.40625 5.171875 
L 45.40625 9.625 
Q 42.625 4.78125 38.28125 2.390625 
Q 33.9375 0 27.875 0 
Q 17.828125 0 11.671875 7.65625 
Q 5.515625 15.328125 5.515625 27.984375 
Q 5.515625 40.671875 11.671875 48.328125 
Q 17.828125 56 27.875 56 
Q 33.9375 56 38.28125 53.609375 
Q 42.625 51.21875 45.40625 46.390625 
L 45.40625 54.6875 
L 54.390625 54.6875 
z
" id="DejaVuSans-103"/>
     <path d="M 41.109375 46.296875 
Q 39.59375 47.171875 37.8125 47.578125 
Q 36.03125 48 33.890625 48 
Q 26.265625 48 22.1875 43.046875 
Q 18.109375 38.09375 18.109375 28.8125 
L 18.109375 0 
L 9.078125 0 
L 9.078125 54.6875 
L 18.109375 54.6875 
L 18.109375 46.1875 
Q 20.953125 51.171875 25.484375 53.578125 
Q 30.03125 56 36.53125 56 
Q 37.453125 56 38.578125 55.875 
Q 39.703125 55.765625 41.0625 55.515625 
z
" id="DejaVuSans-114"/>
     <path d="M 9.421875 54.6875 
L 18.40625 54.6875 
L 18.40625 0 
L 9.421875 0 
z
M 9.421875 75.984375 
L 18.40625 75.984375 
L 18.40625 64.59375 
L 9.421875 64.59375 
z
" id="DejaVuSans-105"/>
     <path d="M 10.6875 12.40625 
L 21 12.40625 
L 21 0 
L 10.6875 0 
z
" id="DejaVuSans-46"/>
    </defs>
    <g transform="translate(49.741875 35.472)scale(0.12 -0.12)">
     <use xlink:href="#DejaVuSans-40"/>
     <use x="39.013672" xlink:href="#DejaVuSans-49"/>
     <use x="102.636719" xlink:href="#DejaVuSans-49"/>
     <use x="166.259766" xlink:href="#DejaVuSans-41"/>
     <use x="205.273438" xlink:href="#DejaVuSans-32"/>
     <use x="237.060547" xlink:href="#DejaVuSans-83"/>
     <use x="300.537109" xlink:href="#DejaVuSans-117"/>
     <use x="363.916016" xlink:href="#DejaVuSans-98"/>
     <use x="427.392578" xlink:href="#DejaVuSans-106"/>
     <use x="455.175781" xlink:href="#DejaVuSans-101"/>
     <use x="516.699219" xlink:href="#DejaVuSans-99"/>
     <use x="571.679688" xlink:href="#DejaVuSans-116"/>
     <use x="610.888672" xlink:href="#DejaVuSans-58"/>
     <use x="644.580078" xlink:href="#DejaVuSans-32"/>
     <use x="676.367188" xlink:href="#DejaVuSans-115"/>
     <use x="728.466797" xlink:href="#DejaVuSans-49"/>
     <use x="792.089844" xlink:href="#DejaVuSans-51"/>
     <use x="855.712891" xlink:href="#DejaVuSans-44"/>
     <use x="887.5" xlink:href="#DejaVuSans-32"/>
     <use x="919.287109" xlink:href="#DejaVuSans-75"/>
     <use x="984.863281" xlink:href="#DejaVuSans-110"/>
     <use x="1048.242188" xlink:href="#DejaVuSans-111"/>
     <use x="1109.423828" xlink:href="#DejaVuSans-119"/>
     <use x="1191.210938" xlink:href="#DejaVuSans-110"/>
     <use x="1254.589844" xlink:href="#DejaVuSans-32"/>
     <use x="1286.376953" xlink:href="#DejaVuSans-61"/>
     <use x="1370.166016" xlink:href="#DejaVuSans-32"/>
     <use x="1401.953125" xlink:href="#DejaVuSans-70"/>
     <use x="1459.332031" xlink:href="#DejaVuSans-97"/>
     <use x="1520.611328" xlink:href="#DejaVuSans-108"/>
     <use x="1548.394531" xlink:href="#DejaVuSans-115"/>
     <use x="1600.494141" xlink:href="#DejaVuSans-101"/>
     <use x="1662.017578" xlink:href="#DejaVuSans-44"/>
     <use x="1693.804688" xlink:href="#DejaVuSans-32"/>
     <use x="1725.591797" xlink:href="#DejaVuSans-68"/>
     <use x="1802.59375" xlink:href="#DejaVuSans-101"/>
     <use x="1864.117188" xlink:href="#DejaVuSans-103"/>
     <use x="1927.59375" xlink:href="#DejaVuSans-114"/>
     <use x="1968.675781" xlink:href="#DejaVuSans-101"/>
     <use x="2030.199219" xlink:href="#DejaVuSans-101"/>
     <use x="2091.722656" xlink:href="#DejaVuSans-32"/>
     <use x="2123.509766" xlink:href="#DejaVuSans-61"/>
     <use x="2207.298828" xlink:href="#DejaVuSans-32"/>
     <use x="2239.085938" xlink:href="#DejaVuSans-50"/>
     <use x="2302.708984" xlink:href="#DejaVuSans-44"/>
     <use x="2334.496094" xlink:href="#DejaVuSans-32"/>
     <use x="2366.283203" xlink:href="#DejaVuSans-68"/>
     <use x="2443.285156" xlink:href="#DejaVuSans-117"/>
     <use x="2506.664062" xlink:href="#DejaVuSans-114"/>
     <use x="2547.777344" xlink:href="#DejaVuSans-97"/>
     <use x="2609.056641" xlink:href="#DejaVuSans-116"/>
     <use x="2648.265625" xlink:href="#DejaVuSans-105"/>
     <use x="2676.048828" xlink:href="#DejaVuSans-111"/>
     <use x="2737.230469" xlink:href="#DejaVuSans-110"/>
     <use x="2800.609375" xlink:href="#DejaVuSans-32"/>
     <use x="2832.396484" xlink:href="#DejaVuSans-61"/>
     <use x="2916.185547" xlink:href="#DejaVuSans-32"/>
     <use x="2947.972656" xlink:href="#DejaVuSans-48"/>
     <use x="3011.595703" xlink:href="#DejaVuSans-46"/>
     <use x="3043.382812" xlink:href="#DejaVuSans-49"/>
    </g>
   </g>
  </g>
 </g>
 <defs>
  <clipPath id="pef74261114">
   <rect height="266.112" width="357.12" x="57.6" y="41.472"/>
  </clipPath>
 </defs>
</svg>
