<?xml version="1.0" encoding="utf-8" standalone="no"?>
<!DOCTYPE svg PUBLIC "-//W3C//DTD SVG 1.1//EN"
  "http://www.w3.org/Graphics/SVG/1.1/DTD/svg11.dtd">
<!-- Created with matplotlib (https://matplotlib.org/) -->
<svg height="345.6pt" version="1.1" viewBox="0 0 460.8 345.6" width="460.8pt" xmlns="http://www.w3.org/2000/svg" xmlns:xlink="http://www.w3.org/1999/xlink">
 <defs>
  <style type="text/css">
*{stroke-linecap:butt;stroke-linejoin:round;}
  </style>
 </defs>
 <g id="figure_1">
  <g id="patch_1">
   <path d="M 0 345.6 
L 460.8 345.6 
L 460.8 0 
L 0 0 
z
" style="fill:#ffffff;"/>
  </g>
  <g id="axes_1">
   <g id="patch_2">
    <path d="M 57.6 307.584 
L 414.72 307.584 
L 414.72 41.472 
L 57.6 41.472 
z
" style="fill:#ffffff;"/>
   </g>
   <g id="line2d_1">
    <path clip-path="url(#p8bad3e223e)" d="M 260.929724 132.210353 
L 261.371947 131.836317 
L 260.929724 131.836317 
L 260.4875 132.210353 
L 260.4875 132.958424 
L 259.160829 132.958424 
L 259.603053 132.584388 
L 260.929724 132.210353 
L 260.4875 138.951365 
L 260.045276 138.57733 
L 260.4875 138.951365 
L 260.4875 139.699436 
L 261.371947 140.073472 
L 262.256394 139.699436 
L 262.256394 138.951365 
L 261.814171 138.951365 
L 261.371947 139.699436 
L 261.814171 140.450298 
L 262.256394 140.450298 
L 262.698618 140.073472 
L 261.814171 140.450298 
L 261.371947 140.824334 
L 260.929724 140.073472 
L 260.929724 139.699436 
L 261.814171 140.073472 
L 261.814171 140.073472 
L 261.371947 140.073472 
L 260.045276 139.699436 
L 260.045276 140.073472 
L 260.4875 139.699436 
L 260.929724 139.699436 
L 261.371947 140.450298 
L 261.371947 141.198369 
L 261.371947 141.198369 
L 261.814171 140.073472 
L 261.814171 139.699436 
L 260.929724 139.699436 
L 260.929724 139.699436 
L 260.929724 139.325401 
L 260.929724 139.325401 
L 262.698618 142.320476 
L 262.698618 142.697303 
L 262.698618 142.320476 
L 263.583065 141.572405 
L 264.025289 140.824334 
L 263.583065 140.450298 
L 260.045276 140.450298 
L 260.045276 141.198369 
L 261.371947 141.572405 
L 261.814171 141.572405 
L 261.814171 141.94644 
L 261.371947 142.320476 
L 261.814171 142.697303 
L 261.371947 143.071338 
L 260.929724 143.071338 
L 261.371947 143.071338 
L 260.929724 143.819409 
L 260.045276 143.819409 
L 260.045276 143.445373 
L 260.4875 143.819409 
L 260.045276 144.193444 
L 259.160829 144.56748 
L 258.276382 144.193444 
L 258.718606 144.193444 
L 258.276382 144.944307 
L 257.391935 145.318342 
L 256.507488 145.318342 
L 256.949711 145.318342 
L 257.391935 145.692378 
L 257.834158 146.440449 
L 257.391935 146.814484 
L 257.391935 146.814484 
L 257.834158 147.191311 
L 256.949711 147.191311 
L 255.623041 146.814484 
L 254.738593 146.440449 
L 253.854146 147.939382 
L 251.643028 149.81235 
L 250.758581 149.81235 
L 250.316357 149.438315 
L 250.316357 148.687453 
L 249.43191 148.687453 
L 249.43191 148.687453 
L 249.43191 149.061488 
L 248.547463 149.81235 
L 247.220792 150.186386 
L 245.004472 150.186386 
L 245.446695 150.934457 
L 245.004472 151.308492 
L 243.677801 151.308492 
L 242.35113 150.934457 
L 241.024459 151.308492 
L 241.024459 151.685319 
L 241.466683 151.308492 
L 241.466683 151.685319 
L 241.024459 152.43339 
L 240.582236 152.43339 
L 239.255565 152.807425 
L 238.813342 153.181461 
L 237.928894 153.181461 
L 237.486671 153.555496 
L 237.044447 153.555496 
L 235.717776 153.181461 
L 234.833329 153.181461 
L 233.948882 154.680394 
L 233.064435 155.05443 
L 231.737764 155.05443 
L 231.737764 155.428465 
L 232.179988 155.8025 
L 232.622211 155.05443 
L 231.737764 154.680394 
L 229.96887 154.306359 
L 228.199975 154.306359 
L 227.315528 155.428465 
L 227.315528 156.176536 
L 227.757752 156.927398 
L 226.873305 157.301434 
L 225.988857 158.049505 
L 225.546634 158.049505 
L 225.10441 157.675469 
L 223.77774 157.675469 
L 222.893292 158.42354 
L 222.893292 158.42354 
L 223.335516 157.675469 
L 222.008845 157.301434 
L 220.239951 158.049505 
L 218.908077 159.922473 
L 218.02363 160.670544 
L 218.02363 159.548438 
L 217.581407 159.174402 
L 216.696959 159.548438 
L 215.812512 160.670544 
L 215.370289 161.795442 
L 214.928065 162.169477 
L 214.485842 161.795442 
L 213.601394 161.421406 
L 212.274724 161.795442 
L 210.505829 164.042446 
L 209.621382 164.042446 
L 209.179158 162.917548 
L 209.179158 162.169477 
L 207.852488 163.294375 
L 206.968041 163.668411 
L 206.525817 163.668411 
L 205.64137 164.042446 
L 204.314699 164.416481 
L 203.430252 165.541379 
L 203.872475 166.28945 
L 203.430252 165.541379 
L 202.545805 164.790517 
L 201.661357 164.790517 
L 200.334687 165.541379 
L 199.45024 166.28945 
L 198.565792 166.28945 
L 198.565792 166.28945 
L 198.565792 167.411557 
L 198.123569 168.162419 
L 197.681345 168.162419 
L 197.239122 167.788383 
L 197.239122 167.788383 
L 197.239122 167.411557 
L 196.796898 167.037521 
L 195.912451 167.037521 
L 195.028004 167.411557 
L 194.143556 168.91049 
L 193.701333 169.284525 
L 193.701333 169.284525 
L 194.143556 169.658561 
L 193.253907 170.035387 
L 191.927236 170.409423 
L 191.042789 170.783458 
L 190.600565 170.783458 
L 191.042789 171.531529 
L 191.485012 171.531529 
L 191.485012 171.531529 
L 191.042789 171.157494 
L 191.042789 170.783458 
L 191.042789 171.531529 
L 190.158342 170.783458 
L 190.600565 171.157494 
L 190.600565 171.905565 
L 189.716118 172.282392 
L 189.273894 172.656427 
L 189.273894 174.152569 
L 190.158342 173.778533 
L 191.485012 172.656427 
L 191.042789 173.030462 
L 190.158342 173.404498 
L 188.831671 174.152569 
L 188.389447 174.903431 
L 188.389447 174.903431 
L 188.831671 174.903431 
L 188.831671 175.277467 
L 187.947224 175.651502 
L 186.620553 175.277467 
L 185.736106 175.277467 
L 185.736106 175.651502 
L 186.620553 175.277467 
L 187.505 175.277467 
L 187.505 178.272542 
L 187.505 177.524471 
L 187.062776 177.150435 
L 186.620553 177.150435 
L 185.736106 177.898506 
L 185.293882 178.646577 
L 186.178329 179.397439 
L 186.620553 179.397439 
L 185.736106 178.646577 
L 185.293882 179.020613 
L 185.293882 179.771475 
L 185.736106 180.14551 
L 186.178329 180.14551 
L 185.736106 179.771475 
L 185.736106 179.397439 
L 186.178329 179.771475 
L 186.178329 180.14551 
L 186.620553 180.14551 
L 186.620553 180.519546 
L 187.062776 180.893581 
L 186.620553 180.893581 
L 187.062776 180.893581 
L 187.505 181.267617 
L 187.505 181.644443 
L 187.062776 181.644443 
L 186.620553 182.392514 
L 187.062776 183.140585 
L 187.505 183.140585 
L 187.947224 182.76655 
L 188.389447 182.76655 
L 188.389447 183.514621 
L 187.062776 183.514621 
L 186.178329 183.140585 
L 185.736106 182.76655 
L 185.736106 182.76655 
L 185.293882 182.76655 
L 185.293882 182.76655 
L 185.293882 183.140585 
L 184.851658 183.514621 
L 184.851658 183.891448 
L 185.293882 184.265483 
L 186.620553 184.639519 
L 187.505 183.891448 
L 187.505 183.514621 
L 187.062776 183.891448 
L 186.620553 185.013554 
L 186.620553 185.387589 
L 187.062776 184.639519 
L 187.505 184.265483 
L 187.947224 184.265483 
L 188.831671 184.639519 
L 189.273894 184.265483 
L 189.273894 184.265483 
L 188.389447 184.265483 
L 187.947224 185.013554 
L 187.505 185.387589 
L 187.505 185.387589 
L 187.505 184.639519 
L 186.620553 184.639519 
L 186.178329 184.265483 
L 186.620553 183.891448 
L 187.947224 185.013554 
L 187.947224 185.387589 
L 187.505 185.761625 
L 187.062776 185.387589 
L 187.062776 185.013554 
L 187.947224 185.013554 
L 188.831671 185.761625 
L 188.831671 186.138452 
L 187.947224 185.387589 
L 187.062776 185.013554 
L 186.620553 184.639519 
L 189.716118 184.639519 
L 189.273894 185.013554 
L 187.947224 185.013554 
L 190.158342 185.013554 
L 188.831671 183.891448 
L 188.831671 183.514621 
L 189.716118 183.891448 
L 190.158342 184.265483 
L 190.158342 184.265483 
L 189.716118 184.265483 
L 188.389447 184.639519 
L 187.947224 184.639519 
L 188.389447 184.639519 
L 188.389447 185.013554 
L 188.831671 184.265483 
L 188.831671 183.891448 
L 189.273894 183.514621 
L 189.716118 183.891448 
L 189.716118 184.265483 
L 189.273894 183.514621 
L 188.831671 182.392514 
L 187.505 182.392514 
L 185.736106 183.514621 
L 183.082764 184.639519 
L 181.31387 185.013554 
L 178.660528 185.761625 
L 172.469398 188.385456 
L 169.373833 189.507562 
L 166.273065 190.255633 
L 163.1775 191.380531 
L 160.081935 192.876673 
L 157.870817 193.627535 
L 154.775252 194.375606 
L 151.679687 195.874539 
L 148.584122 199.24365 
L 145.93078 201.864689 
L 144.161886 202.615551 
L 141.950768 203.737658 
L 137.523329 208.231666 
L 135.754435 209.356564 
L 135.312211 210.47867 
L 134.427764 214.224608 
L 133.543317 215.720749 
L 130.005528 217.967754 
L 130.005528 219.466687 
L 130.889975 220.591584 
L 131.774423 221.339655 
L 131.774423 222.838589 
L 130.889975 225.459628 
L 130.889975 227.329805 
L 131.332199 227.706632 
L 132.216646 227.706632 
L 133.101093 229.202774 
L 132.216646 231.823814 
L 131.332199 232.200641 
L 130.889975 232.574676 
L 131.774423 234.070818 
L 131.774423 234.82168 
L 131.332199 235.569751 
L 131.332199 237.068684 
L 131.774423 237.068684 
L 131.774423 237.44272 
L 131.332199 237.816755 
L 131.774423 237.816755 
L 132.216646 238.941653 
L 132.65887 239.689724 
L 133.101093 239.689724 
L 133.101093 239.315688 
L 133.101093 241.188657 
L 133.985541 240.437795 
L 135.754435 240.437795 
L 136.638882 240.81183 
L 136.196658 241.562692 
L 136.196658 243.058834 
L 136.638882 244.183732 
L 137.523329 244.931803 
L 137.523329 244.557768 
L 137.081106 244.183732 
L 137.523329 244.183732 
L 138.407776 244.931803 
L 137.965553 245.679874 
L 137.523329 246.056701 
L 138.407776 246.056701 
L 138.85 246.804772 
L 138.85 247.178807 
L 138.85 246.804772 
L 139.734447 246.430736 
L 140.176671 246.430736 
L 140.176671 246.430736 
L 140.618894 247.178807 
L 141.061118 247.552843 
L 141.061118 247.926878 
L 141.061118 247.926878 
L 140.618894 247.926878 
L 141.061118 248.303705 
L 141.061118 246.804772 
L 141.508544 246.804772 
L 143.277439 247.178807 
L 144.604109 246.804772 
L 144.604109 246.056701 
L 144.161886 245.679874 
L 145.93078 245.679874 
L 146.815227 246.056701 
L 147.257451 247.178807 
L 149.026345 249.425811 
L 149.026345 247.926878 
L 149.468569 247.552843 
L 149.468569 247.552843 
L 149.468569 246.804772 
L 149.026345 246.804772 
L 149.026345 247.552843 
L 150.79524 247.552843 
L 151.679687 248.303705 
L 152.12191 249.051776 
L 153.006357 249.051776 
L 153.448581 248.303705 
L 152.564134 248.67774 
L 151.679687 249.425811 
L 151.679687 249.799847 
L 152.564134 249.425811 
L 153.890805 248.67774 
L 154.333028 247.926878 
L 154.775252 247.926878 
L 154.775252 248.67774 
L 155.659699 249.425811 
L 155.659699 249.799847 
L 156.101923 250.173882 
L 157.870817 250.173882 
L 157.870817 249.425811 
L 157.428593 249.425811 
L 157.428593 249.425811 
L 157.870817 248.67774 
L 158.313041 247.552843 
L 157.870817 246.804772 
L 158.313041 247.178807 
L 159.197488 247.552843 
L 160.524158 247.552843 
L 161.408606 247.926878 
L 161.408606 247.926878 
L 162.293053 247.926878 
L 162.735276 248.67774 
L 162.735276 250.173882 
L 163.1775 249.425811 
L 163.619724 248.303705 
L 163.619724 247.552843 
L 163.1775 246.804772 
L 163.619724 246.430736 
L 164.061947 246.430736 
L 164.504171 247.178807 
L 164.504171 247.178807 
L 164.061947 247.178807 
L 163.619724 246.804772 
L 163.619724 246.804772 
L 166.273065 246.056701 
L 166.715289 246.430736 
L 166.273065 247.552843 
L 166.273065 248.303705 
L 167.157512 247.926878 
L 166.715289 247.552843 
L 164.946394 247.552843 
L 165.830842 247.552843 
L 166.715289 247.178807 
L 167.604939 246.430736 
L 166.715289 245.305838 
L 165.830842 245.305838 
L 166.273065 245.305838 
L 166.715289 245.679874 
L 166.273065 246.056701 
L 166.273065 246.430736 
L 166.715289 245.679874 
L 168.047162 244.931803 
L 168.931609 244.931803 
L 167.604939 244.931803 
L 167.157512 245.305838 
L 167.604939 245.305838 
L 168.489386 244.931803 
L 168.931609 244.557768 
L 168.489386 244.557768 
L 168.489386 244.931803 
L 168.489386 244.931803 
L 169.373833 245.679874 
L 169.373833 246.056701 
L 169.816056 245.679874 
L 169.816056 243.809697 
L 168.931609 243.058834 
L 168.931609 243.43287 
L 169.816056 243.809697 
L 170.25828 244.183732 
L 170.25828 244.557768 
L 170.700504 244.557768 
L 170.700504 244.557768 
L 169.816056 244.183732 
L 169.373833 243.809697 
L 168.931609 243.809697 
L 168.931609 244.183732 
L 169.373833 244.557768 
L 169.816056 244.557768 
L 169.816056 245.679874 
L 169.373833 245.679874 
L 169.373833 245.305838 
L 168.931609 245.305838 
L 168.931609 245.305838 
L 169.373833 244.931803 
L 170.25828 244.557768 
L 170.700504 244.557768 
L 170.700504 244.557768 
L 170.700504 244.931803 
L 171.142727 245.679874 
L 171.142727 245.305838 
L 171.142727 245.305838 
L 172.027174 245.679874 
L 172.469398 246.056701 
L 172.911622 244.931803 
L 172.469398 243.43287 
L 171.584951 243.43287 
L 171.584951 244.183732 
L 172.911622 245.305838 
L 172.911622 246.056701 
L 172.469398 246.430736 
L 172.469398 245.679874 
L 172.911622 244.931803 
L 172.469398 245.305838 
L 172.469398 244.931803 
L 173.353845 243.809697 
L 173.353845 243.43287 
L 173.796069 243.809697 
L 174.680516 244.183732 
L 176.891634 243.809697 
L 180.429423 243.058834 
L 183.967211 243.058834 
L 187.062776 242.684799 
L 191.042789 241.936728 
L 196.354674 241.188657 
L 202.988028 240.437795 
L 210.063606 238.941653 
L 217.139183 236.694649 
L 223.77774 235.195716 
L 229.96887 234.447645 
L 236.602224 232.948711 
L 264.467512 229.953636 
L 271.54309 229.57681 
L 279.066093 229.953636 
L 286.141671 229.57681 
L 293.217248 228.080668 
L 299.413581 226.207699 
L 306.489158 225.459628 
L 313.122512 225.459628 
L 319.313643 225.085593 
L 325.509975 224.33473 
L 331.701106 223.212624 
L 338.776683 221.713691 
L 344.967813 220.591584 
L 350.279699 219.840722 
L 356.028606 219.466687 
L 361.335289 218.718616 
L 366.641972 218.718616 
L 371.506431 218.34458 
L 375.486443 217.593718 
L 377.702764 217.593718 
L 378.587211 217.967754 
L 379.471658 217.967754 
L 379.471658 217.967754 
L 379.471658 216.845647 
L 379.029435 217.219683 
L 378.144988 218.34458 
L 376.818317 219.092651 
L 375.04422 218.718616 
L 372.833102 217.967754 
L 371.064208 217.967754 
L 370.621984 218.718616 
L 369.737537 219.466687 
L 368.85309 219.840722 
L 370.17976 220.96562 
L 369.295313 220.591584 
L 367.968642 220.214758 
L 367.526419 220.591584 
L 367.968642 220.96562 
L 367.968642 221.339655 
L 367.526419 222.087726 
L 367.526419 222.838589 
L 367.084195 222.838589 
L 367.084195 222.838589 
L 367.968642 222.461762 
L 367.968642 224.33473 
L 367.526419 224.33473 
L 368.410866 225.085593 
L 367.526419 225.459628 
L 366.199748 225.833664 
L 365.315301 226.207699 
L 364.873077 225.833664 
L 364.873077 225.085593 
L 365.315301 224.708766 
L 366.199748 224.708766 
L 365.757525 225.085593 
L 365.315301 225.833664 
L 364.873077 225.833664 
L 364.430854 225.459628 
L 363.104183 226.581735 
L 363.104183 226.95577 
L 363.546407 226.581735 
L 362.661959 225.833664 
L 362.219736 225.833664 
L 362.219736 226.581735 
L 362.661959 226.95577 
L 363.546407 227.329805 
L 363.546407 227.706632 
L 363.104183 227.706632 
L 363.104183 227.706632 
L 363.546407 226.95577 
L 363.546407 226.581735 
L 363.546407 226.95577 
L 363.98863 228.828739 
L 363.98863 229.57681 
L 363.546407 229.57681 
L 362.661959 229.202774 
L 362.219736 228.828739 
L 361.335289 228.454703 
L 360.893065 228.828739 
L 361.777512 228.454703 
L 363.104183 228.080668 
L 363.104183 227.329805 
L 362.219736 228.080668 
L 362.219736 228.454703 
L 362.219736 228.454703 
L 362.661959 228.454703 
L 362.219736 228.454703 
L 360.450841 228.080668 
L 360.008618 227.329805 
L 361.335289 226.95577 
L 362.219736 226.95577 
L 362.219736 227.706632 
L 361.777512 228.454703 
L 360.893065 228.080668 
L 360.893065 227.706632 
L 360.893065 227.706632 
L 360.008618 227.706632 
L 360.008618 228.080668 
L 360.893065 229.57681 
L 361.335289 229.57681 
L 362.219736 228.828739 
L 362.661959 228.080668 
L 362.661959 227.329805 
L 361.777512 227.329805 
L 360.450841 227.706632 
L 360.008618 228.454703 
L 360.450841 229.202774 
L 360.893065 229.57681 
L 360.893065 228.828739 
L 360.450841 229.202774 
L 360.893065 229.202774 
L 361.335289 228.454703 
L 361.777512 228.080668 
L 361.777512 229.202774 
L 361.335289 229.953636 
L 361.335289 229.57681 
L 360.893065 228.828739 
L 359.566394 228.454703 
L 359.566394 228.454703 
L 360.450841 228.080668 
L 360.450841 227.706632 
L 360.450841 228.454703 
L 360.450841 228.454703 
L 360.008618 228.454703 
L 360.008618 228.828739 
L 360.450841 228.828739 
L 361.335289 228.454703 
L 362.219736 228.454703 
L 362.219736 229.202774 
L 361.777512 229.57681 
L 360.893065 228.828739 
L 360.008618 228.454703 
L 359.124171 228.828739 
L 358.681947 229.953636 
L 358.239724 229.953636 
L 358.681947 229.57681 
L 360.008618 229.202774 
L 360.450841 229.57681 
L 360.008618 229.953636 
L 360.008618 231.449778 
L 360.008618 231.075743 
L 359.566394 231.449778 
L 360.008618 231.075743 
L 359.566394 230.701707 
L 358.239724 230.327672 
L 357.355276 230.327672 
L 357.7975 229.953636 
L 358.239724 229.953636 
L 358.239724 230.327672 
L 357.355276 230.327672 
L 357.7975 230.327672 
L 358.681947 231.075743 
L 358.681947 231.823814 
L 357.355276 230.701707 
L 356.913053 229.57681 
L 357.355276 229.953636 
L 357.7975 231.075743 
L 358.239724 232.574676 
L 358.681947 232.948711 
L 358.681947 231.823814 
L 359.124171 231.075743 
L 358.681947 230.701707 
L 357.7975 231.075743 
L 356.913053 232.200641 
L 357.7975 232.200641 
L 358.681947 231.449778 
L 358.239724 230.701707 
L 357.355276 230.327672 
L 356.470829 230.327672 
L 356.470829 230.701707 
L 355.586382 230.701707 
L 354.259711 231.075743 
L 352.490817 232.200641 
L 350.279699 231.823814 
L 347.621155 231.075743 
L 344.083366 231.075743 
L 335.238894 234.447645 
L 329.489988 235.569751 
L 317.102525 237.068684 
L 310.469171 238.564826 
L 302.509146 240.063759 
L 285.257224 243.058834 
L 276.412752 245.305838 
L 267.120854 247.178807 
L 257.834158 248.67774 
L 240.140012 252.420886 
L 230.853317 253.545784 
L 221.566622 254.293855 
L 211.8325 255.792788 
L 204.314699 257.665757 
L 197.681345 258.787863 
L 190.158342 259.912761 
L 158.755264 267.401844 
L 151.679687 269.648848 
L 138.407776 274.516892 
L 123.372174 277.886003 
L 117.181044 278.636865 
L 112.311382 279.0109 
L 100.371345 281.63194 
L 95.506886 282.756838 
L 90.642426 283.504908 
L 83.561646 284.252979 
L 80.466081 284.252979 
L 77.81274 284.627015 
L 76.043845 285.751913 
L 75.159398 286.125948 
L 75.159398 286.499984 
L 73.832727 286.499984 
L 74.274951 286.125948 
L 74.717174 286.125948 
L 75.159398 286.499984 
L 76.486069 286.874019 
L 78.697187 286.874019 
L 81.350528 286.499984 
L 82.677199 286.125948 
L 83.561646 285.751913 
L 84.888317 285.751913 
L 84.888317 286.499984 
L 84.446093 286.874019 
L 84.446093 286.499984 
L 85.330541 286.125948 
L 86.657211 286.874019 
L 87.099435 287.998917 
L 86.214988 288.372952 
L 85.330541 288.372952 
L 85.772764 288.746988 
L 86.657211 288.746988 
L 86.214988 287.998917 
L 85.330541 287.998917 
L 84.446093 288.746988 
L 83.561646 288.746988 
L 83.119423 288.372952 
L 82.677199 288.746988 
L 82.677199 288.746988 
L 82.234975 288.372952 
L 81.792752 287.624881 
L 81.792752 288.372952 
L 81.350528 288.372952 
L 81.792752 287.998917 
L 83.119423 287.624881 
L 84.00387 288.372952 
L 84.00387 289.121023 
L 83.561646 288.746988 
L 84.888317 287.624881 
L 84.888317 287.624881 
L 85.330541 288.746988 
L 85.330541 289.871885 
L 84.888317 289.871885 
L 84.888317 289.121023 
L 85.330541 289.121023 
L 85.330541 289.49785 
L 85.330541 289.49785 
L 85.772764 288.372952 
L 85.330541 287.624881 
L 84.888317 287.624881 
L 85.772764 287.998917 
L 86.214988 288.372952 
L 85.330541 287.998917 
L 84.446093 288.372952 
L 85.330541 288.372952 
L 86.214988 287.624881 
L 86.657211 286.874019 
L 87.099435 286.499984 
L 86.657211 286.499984 
L 86.657211 287.998917 
L 85.772764 287.998917 
L 85.772764 287.998917 
L 85.330541 288.372952 
L 85.330541 288.372952 
L 85.772764 287.624881 
L 85.772764 287.250846 
L 85.772764 287.624881 
L 86.214988 287.624881 
L 86.657211 287.998917 
L 85.772764 288.372952 
L 85.330541 288.372952 
L 85.772764 287.624881 
L 87.099435 286.874019 
L 88.426106 287.250846 
L 89.310553 287.624881 
L 88.426106 287.624881 
L 86.657211 287.998917 
L 85.772764 288.372952 
L 86.657211 288.746988 
L 88.426106 288.372952 
L 88.868329 287.250846 
L 87.541659 287.998917 
L 87.099435 289.121023 
L 87.541659 289.871885 
L 88.426106 290.245921 
L 88.426106 290.619956 
L 88.868329 290.619956 
L 87.983882 290.619956 
L 87.983882 290.619956 
L 88.426106 290.993992 
L 88.426106 290.993992 
L 88.426106 290.619956 
L 89.310553 290.619956 
L 89.310553 290.245921 
L 88.426106 290.245921 
L 88.868329 290.619956 
L 90.200203 290.245921 
L 90.200203 290.245921 
L 89.310553 290.993992 
L 87.541659 292.118889 
L 87.541659 292.118889 
L 88.868329 292.118889 
L 88.426106 292.118889 
L 87.983882 291.368027 
L 88.426106 291.368027 
L 88.868329 292.118889 
L 89.310553 292.492925 
L 89.310553 292.86696 
L 89.310553 292.118889 
L 89.757979 292.118889 
L 90.200203 292.492925 
L 89.310553 293.240996 
L 87.983882 293.991858 
L 87.099435 293.615031 
L 87.541659 292.86696 
L 88.426106 293.240996 
L 88.426106 294.365894 
L 89.310553 293.991858 
L 89.757979 293.991858 
L 89.757979 294.739929 
L 89.310553 295.488 
L 88.868329 295.113965 
L 88.426106 293.991858 
L 87.541659 293.240996 
L 87.541659 292.492925 
L 87.983882 292.492925 
L 88.426106 292.86696 
L 89.757979 292.86696 
L 89.310553 292.86696 
L 88.426106 293.240996 
L 87.541659 292.492925 
L 86.214988 292.492925 
L 87.099435 292.492925 
L 86.214988 291.744854 
L 86.214988 293.240996 
L 85.772764 292.492925 
L 85.772764 291.368027 
L 86.657211 290.619956 
L 88.426106 290.619956 
L 87.983882 290.993992 
L 86.214988 290.993992 
L 85.330541 291.744854 
L 86.214988 291.744854 
L 87.099435 290.245921 
L 86.657211 289.871885 
L 85.772764 289.871885 
L 84.888317 290.245921 
L 85.330541 291.368027 
L 86.657211 292.118889 
L 87.099435 291.744854 
L 87.099435 290.619956 
L 86.214988 290.245921 
L 85.330541 290.619956 
L 85.330541 291.368027 
L 85.772764 291.744854 
L 85.330541 291.368027 
L 84.888317 290.619956 
L 84.888317 290.619956 
L 84.888317 291.744854 
L 82.234975 290.245921 
L 81.792752 290.245921 
L 83.119423 289.871885 
L 84.00387 289.49785 
L 84.446093 289.49785 
L 83.561646 289.49785 
L 83.561646 289.121023 
L 81.792752 289.871885 
L 81.350528 289.49785 
L 81.792752 288.746988 
L 82.234975 288.372952 
L 82.234975 287.624881 
L 81.792752 287.624881 
L 81.350528 288.746988 
L 81.792752 290.245921 
L 83.119423 290.993992 
L 84.00387 290.245921 
L 84.00387 289.49785 
L 83.561646 289.49785 
L 83.119423 290.245921 
L 82.234975 291.368027 
L 81.792752 291.368027 
L 82.234975 290.993992 
L 83.119423 290.619956 
L 83.561646 289.871885 
L 83.119423 290.245921 
L 82.234975 290.619956 
L 82.234975 291.368027 
L 82.677199 291.368027 
L 83.119423 290.619956 
L 82.677199 290.619956 
L 82.677199 291.744854 
L 83.119423 292.492925 
L 83.119423 292.86696 
L 82.677199 292.492925 
L 82.677199 290.993992 
L 83.561646 291.368027 
L 84.00387 291.744854 
L 84.00387 291.744854 
L 82.677199 292.86696 
L 83.561646 292.118889 
L 84.446093 290.993992 
L 84.446093 290.993992 
L 83.119423 291.744854 
L 82.234975 292.492925 
L 81.350528 293.991858 
L 82.234975 293.991858 
L 82.677199 293.615031 
L 82.677199 292.86696 
L 81.350528 291.744854 
L 81.350528 291.368027 
L 80.466081 291.368027 
L 80.023858 290.619956 
L 80.466081 290.245921 
L 80.466081 289.871885 
L 81.350528 289.871885 
L 81.350528 289.49785 
L 80.466081 288.746988 
L 80.466081 287.998917 
L 78.697187 287.998917 
L 78.254963 287.250846 
L 78.697187 286.874019 
L 79.581634 286.874019 
L 80.466081 286.499984 
L 80.908305 285.377877 
L 80.908305 283.878944 
L 81.350528 283.130873 
L 84.446093 280.509833 
L 86.657211 277.886003 
L 88.868329 274.142857 
L 91.526873 271.147781 
L 94.622439 268.523951 
L 98.160227 264.780805 
L 101.698016 260.286796 
L 104.351358 256.166824 
L 106.562475 251.672815 
L 108.773593 246.804772 
L 114.964724 237.068684 
L 122.045504 228.828739 
L 125.141069 223.586659 
L 128.236634 218.718616 
L 131.774423 214.224608 
L 134.869988 208.605702 
L 137.523329 202.615551 
L 140.618894 198.495579 
L 143.277439 194.749641 
L 146.815227 190.255633 
L 150.353016 185.387589 
L 154.333028 181.267617 
L 164.946394 172.282392 
L 185.736106 151.685319 
L 190.600565 146.066413 
L 195.028004 140.450298 
L 204.756923 132.210353 
L 208.736935 127.716345 
L 211.390276 122.474265 
L 217.139183 111.987316 
L 219.797727 107.867343 
L 222.893292 103.750162 
L 233.064435 92.515141 
L 241.466683 81.28012 
L 243.235577 77.534183 
L 245.446695 73.791037 
L 247.663016 71.167206 
L 250.316357 68.546167 
L 253.411923 65.925127 
L 255.180817 62.930052 
L 256.949711 60.309012 
L 257.834158 58.436044 
L 258.276382 56.563075 
L 258.276382 55.440969 
L 256.949711 54.316071 
L 256.065264 54.316071 
L 254.29637 53.568 
L 251.200805 53.568 
L 247.663016 54.316071 
L 245.894122 55.064142 
L 245.004472 57.687973 
L 243.677801 58.810079 
L 242.35113 60.309012 
L 241.024459 61.431119 
L 240.140012 62.556016 
L 239.697789 62.930052 
L 239.697789 65.177056 
L 238.813342 64.803021 
L 237.928894 64.052158 
L 239.255565 64.052158 
L 239.255565 64.052158 
L 238.813342 64.428985 
L 239.255565 65.177056 
L 239.255565 65.177056 
L 238.371118 65.177056 
L 237.928894 64.803021 
L 238.371118 64.803021 
L 237.486671 64.428985 
L 235.717776 65.551092 
L 235.717776 65.551092 
L 234.391106 65.551092 
L 233.506658 65.925127 
L 233.506658 65.925127 
L 233.948882 66.299162 
L 234.833329 66.675989 
L 235.717776 66.299162 
L 234.833329 67.050025 
L 234.391106 68.172131 
L 234.391106 68.546167 
L 233.064435 68.922993 
L 232.179988 68.546167 
L 232.179988 67.798096 
L 232.179988 67.798096 
L 230.853317 68.172131 
L 229.96887 67.798096 
L 229.526646 68.172131 
L 230.411093 69.671064 
L 230.853317 70.0451 
L 230.411093 69.671064 
L 229.96887 69.671064 
L 228.642199 70.0451 
L 226.873305 70.793171 
L 226.431081 71.918068 
L 226.431081 72.666139 
L 226.431081 72.666139 
L 225.988857 72.292104 
L 225.988857 72.292104 
L 226.431081 71.918068 
L 225.10441 71.918068 
L 224.662187 71.544033 
L 225.10441 70.793171 
L 225.988857 71.167206 
L 225.546634 72.292104 
L 223.77774 73.791037 
L 223.77774 74.165073 
L 225.10441 74.165073 
L 225.10441 74.539108 
L 224.662187 74.165073 
L 223.77774 74.165073 
L 223.77774 74.539108 
L 224.219963 74.165073 
L 224.219963 73.791037 
L 224.219963 74.165073 
L 223.77774 74.165073 
L 224.219963 74.165073 
L 223.77774 74.539108 
L 222.893292 74.165073 
L 222.008845 73.41421 
L 222.008845 72.666139 
L 222.008845 73.41421 
L 221.124398 72.666139 
L 220.682174 73.040175 
L 220.682174 75.661214 
L 220.239951 75.661214 
L 218.908077 74.539108 
L 218.02363 73.41421 
L 218.02363 73.040175 
L 218.465854 73.040175 
L 218.908077 73.41421 
L 220.682174 74.539108 
L 218.465854 74.539108 
L 218.02363 73.791037 
L 218.02363 73.41421 
L 218.02363 73.41421 
L 217.581407 74.165073 
L 217.581407 74.913143 
L 218.02363 75.661214 
L 218.908077 75.661214 
L 218.465854 75.287179 
L 218.465854 74.913143 
L 218.02363 74.913143 
L 218.465854 75.287179 
L 218.908077 75.287179 
L 218.908077 74.539108 
L 217.581407 74.539108 
L 217.139183 74.913143 
L 216.696959 75.661214 
L 217.139183 76.786112 
L 218.02363 77.160148 
L 218.908077 76.412077 
L 218.465854 75.661214 
L 215.370289 75.661214 
L 214.928065 75.287179 
L 214.928065 74.913143 
L 215.370289 74.913143 
L 214.928065 74.913143 
L 215.370289 75.287179 
L 216.254736 76.412077 
L 216.696959 76.038041 
L 216.696959 75.661214 
L 216.696959 77.908219 
L 217.139183 77.908219 
L 216.696959 76.786112 
L 215.370289 76.412077 
L 214.043618 76.412077 
L 214.043618 77.534183 
L 214.485842 77.908219 
L 214.043618 77.534183 
L 214.043618 77.160148 
L 214.928065 77.160148 
L 213.159171 77.908219 
L 213.159171 78.285045 
L 213.601394 78.659081 
L 214.485842 78.285045 
L 214.928065 78.659081 
L 214.928065 79.407152 
L 214.928065 79.407152 
L 215.370289 78.659081 
L 215.812512 78.285045 
L 214.485842 78.285045 
L 213.159171 78.659081 
L 212.716947 79.407152 
L 212.716947 80.155223 
L 213.159171 80.532049 
L 213.159171 80.155223 
L 213.601394 79.033116 
L 213.159171 78.285045 
L 212.274724 78.659081 
L 211.8325 79.033116 
L 213.601394 78.285045 
L 213.601394 78.285045 
L 212.274724 78.285045 
L 211.8325 77.908219 
L 211.8325 77.908219 
L 212.716947 77.534183 
L 213.601394 77.908219 
L 212.274724 77.534183 
L 210.948053 77.534183 
L 210.505829 77.160148 
L 211.390276 77.160148 
L 210.948053 77.160148 
L 210.948053 76.786112 
L 212.274724 77.908219 
L 211.8325 77.534183 
L 211.390276 76.786112 
L 210.505829 76.412077 
L 210.063606 77.160148 
L 209.621382 77.534183 
L 209.621382 77.534183 
L 210.505829 77.534183 
L 210.505829 78.285045 
L 210.505829 77.908219 
L 210.948053 77.160148 
L 210.948053 76.038041 
L 210.505829 76.038041 
L 207.852488 76.786112 
L 207.852488 76.412077 
L 208.294711 76.412077 
L 208.736935 76.786112 
L 208.736935 77.160148 
L 208.294711 77.534183 
L 207.852488 77.534183 
L 207.410264 77.908219 
L 206.968041 77.908219 
L 207.410264 77.908219 
L 208.294711 78.285045 
L 207.410264 77.908219 
L 206.968041 77.534183 
L 206.968041 77.160148 
L 207.410264 77.534183 
L 207.410264 77.534183 
L 207.852488 77.160148 
L 208.736935 76.786112 
L 208.736935 77.160148 
L 208.294711 77.534183 
L 207.852488 77.534183 
L 207.852488 77.160148 
L 207.410264 76.412077 
L 206.525817 76.038041 
L 206.968041 75.287179 
L 206.968041 74.165073 
L 206.525817 74.165073 
L 206.968041 74.165073 
L 206.968041 73.791037 
L 206.525817 73.791037 
L 205.64137 73.41421 
L 205.199146 73.040175 
L 205.199146 73.040175 
L 205.199146 73.791037 
L 204.314699 74.165073 
L 204.314699 73.791037 
L 205.199146 73.791037 
L 205.64137 73.41421 
L 204.756923 72.666139 
L 203.430252 71.918068 
L 202.545805 71.167206 
L 202.545805 71.544033 
L 202.988028 71.918068 
L 203.430252 71.918068 
L 203.872475 72.666139 
L 203.872475 74.165073 
L 203.872475 73.791037 
L 204.314699 73.040175 
L 203.872475 73.040175 
L 203.430252 72.666139 
L 202.103581 72.666139 
L 202.545805 72.666139 
L 202.103581 72.292104 
L 202.103581 71.544033 
L 204.756923 72.666139 
L 210.063606 72.666139 
L 211.390276 72.292104 
L 213.159171 72.666139 
L 214.485842 74.165073 
L 216.254736 75.661214 
L 220.682174 78.659081 
L 221.566622 80.906085 
L 223.335516 86.5222 
L 224.662187 88.769204 
L 228.642199 92.141105 
L 229.526646 94.011283 
L 230.853317 95.510216 
L 237.044447 97.75722 
L 239.255565 99.630189 
L 240.140012 101.503157 
L 241.466683 103.750162 
L 243.235577 105.997166 
L 245.004472 108.618205 
L 246.336345 110.865209 
L 248.10524 113.486249 
L 250.758581 114.985182 
L 253.854146 115.733253 
L 256.507488 117.232186 
L 258.718606 119.102364 
L 261.371947 120.601297 
L 269.774195 124.72127 
L 272.874963 125.843376 
L 275.528305 126.968274 
L 277.739423 127.716345 
L 278.62387 128.841242 
L 279.950541 130.337384 
L 282.161658 132.210353 
L 283.046106 133.709286 
L 283.930553 137.452432 
L 285.257224 138.951365 
L 285.699447 140.073472 
L 285.699447 141.94644 
L 284.815 142.320476 
L 283.930553 143.071338 
L 283.046106 144.193444 
L 282.603882 146.440449 
L 282.161658 147.939382 
L 281.719435 148.313417 
L 279.950541 147.939382 
L 278.62387 148.313417 
L 277.297199 149.438315 
L 274.643857 150.934457 
L 272.874963 151.308492 
L 271.990516 151.308492 
L 271.54309 151.685319 
L 271.54309 152.43339 
L 271.100866 153.181461 
L 270.216419 153.555496 
L 270.216419 153.555496 
L 270.658643 153.932323 
L 269.331972 156.176536 
L 268.889748 157.301434 
L 268.005301 158.049505 
L 267.120854 158.42354 
L 265.794183 158.800367 
L 264.909736 159.922473 
L 264.909736 161.047371 
L 265.794183 162.169477 
L 266.67863 162.543513 
L 266.67863 162.917548 
L 265.794183 163.294375 
L 265.351959 163.668411 
L 263.140842 163.668411 
L 261.814171 164.790517 
L 260.045276 165.541379 
L 259.603053 165.915415 
L 258.718606 167.411557 
L 258.276382 167.788383 
L 258.718606 168.536454 
L 259.603053 168.536454 
L 259.603053 168.162419 
L 258.718606 168.162419 
L 257.834158 168.536454 
L 258.718606 168.536454 
L 257.834158 168.536454 
L 256.507488 168.91049 
L 255.623041 171.157494 
L 255.180817 171.531529 
L 254.29637 171.531529 
L 254.738593 171.531529 
L 255.180817 171.905565 
L 255.180817 171.531529 
L 254.738593 171.905565 
L 254.29637 172.656427 
L 254.738593 173.030462 
L 255.623041 173.404498 
L 256.507488 174.152569 
L 255.623041 174.152569 
L 254.738593 174.903431 
L 254.738593 175.277467 
L 254.29637 175.277467 
L 253.411923 175.651502 
L 253.411923 176.773608 
L 252.969699 176.399573 
L 251.643028 176.399573 
L 251.200805 176.773608 
L 251.200805 177.150435 
L 250.316357 177.898506 
L 250.316357 178.272542 
L 249.43191 177.524471 
L 248.989687 177.524471 
L 248.989687 179.020613 
L 248.989687 179.020613 
L 248.547463 178.646577 
L 248.10524 178.646577 
L 248.547463 178.646577 
L 248.547463 179.020613 
L 248.10524 179.397439 
L 248.10524 179.397439 
L 247.663016 180.14551 
L 247.663016 180.893581 
L 247.220792 180.893581 
L 247.663016 180.893581 
L 248.10524 181.267617 
L 248.10524 180.893581 
L 248.547463 180.519546 
L 248.989687 180.519546 
L 248.547463 180.893581 
L 247.663016 181.267617 
L 246.778569 180.893581 
L 246.778569 180.893581 
L 246.336345 180.893581 
L 245.446695 182.018479 
L 245.446695 182.76655 
L 246.336345 183.140585 
L 246.336345 183.140585 
L 245.894122 183.140585 
L 245.894122 182.76655 
L 245.446695 182.392514 
L 245.004472 182.392514 
L 245.004472 183.140585 
L 244.562248 184.639519 
L 244.120025 185.013554 
L 244.120025 182.76655 
L 244.120025 183.140585 
L 243.677801 183.891448 
L 242.793354 184.265483 
L 243.677801 184.265483 
L 243.235577 183.891448 
L 242.793354 184.265483 
L 243.677801 184.265483 
L 244.120025 184.639519 
L 244.120025 184.639519 
L 241.908907 185.761625 
L 241.466683 185.387589 
L 241.466683 185.387589 
L 242.793354 185.387589 
L 242.35113 185.761625 
L 242.35113 186.138452 
L 241.466683 186.512487 
L 240.140012 186.138452 
L 240.140012 186.512487 
L 241.024459 186.886523 
L 241.466683 187.260558 
L 242.793354 187.260558 
L 242.793354 187.260558 
L 241.908907 187.634594 
L 241.466683 187.634594 
L 241.466683 188.008629 
L 241.908907 187.634594 
L 241.908907 187.634594 
L 242.35113 188.385456 
L 245.894122 188.385456 
L 248.10524 188.759491 
L 250.758581 188.759491 
L 253.411923 188.385456 
L 257.391935 187.260558 
L 261.814171 186.512487 
L 273.317187 185.761625 
L 279.950541 185.013554 
L 286.141671 184.639519 
L 292.332801 183.891448 
L 298.529134 183.514621 
L 304.278041 182.76655 
L 310.469171 181.644443 
L 317.544748 181.267617 
L 323.735878 181.644443 
L 329.047764 181.644443 
L 333.027776 180.893581 
L 337.007789 180.519546 
L 341.430025 181.267617 
L 346.294484 182.392514 
L 350.721923 183.140585 
L 355.144158 182.76655 
L 358.681947 181.644443 
L 363.546407 181.267617 
L 368.410866 181.267617 
L 373.275326 180.893581 
L 377.702764 180.14551 
L 381.240553 179.397439 
L 385.220565 179.020613 
L 389.642801 179.020613 
L 395.391708 180.519546 
L 398.045049 179.020613 
L 398.487273 179.397439 
L 398.045049 180.14551 
L 396.276155 181.267617 
L 394.50726 182.018479 
L 393.18059 182.018479 
L 392.296142 181.267617 
L 392.296142 180.519546 
L 390.969472 180.14551 
L 388.31613 180.519546 
L 384.778341 180.519546 
L 383.893894 180.893581 
L 382.567224 181.267617 
L 381.682776 181.267617 
L 382.567224 181.644443 
L 383.009447 182.392514 
L 382.567224 182.76655 
L 382.125 182.76655 
L 380.798329 183.891448 
L 380.356106 183.891448 
L 381.240553 183.891448 
L 381.240553 183.140585 
L 380.798329 183.140585 
L 380.798329 183.514621 
L 381.240553 184.639519 
L 382.125 185.013554 
L 381.682776 185.013554 
L 378.144988 184.265483 
L 377.702764 183.891448 
L 377.702764 183.891448 
L 377.702764 185.761625 
L 378.144988 185.761625 
L 377.702764 185.761625 
L 376.376093 185.013554 
L 375.486443 184.639519 
L 374.601996 184.639519 
L 374.601996 184.639519 
L 374.601996 185.761625 
L 375.04422 185.761625 
L 374.159773 185.013554 
L 373.275326 184.639519 
L 373.275326 185.387589 
L 371.064208 187.260558 
L 370.621984 187.260558 
L 371.948655 187.260558 
L 372.390878 187.634594 
L 371.506431 186.886523 
L 371.506431 187.260558 
L 371.064208 187.634594 
L 371.064208 187.634594 
L 371.506431 188.008629 
L 371.506431 188.385456 
L 371.064208 188.385456 
L 370.621984 188.759491 
L 369.295313 189.133527 
L 368.410866 189.507562 
L 368.410866 189.133527 
L 369.295313 189.133527 
L 370.621984 189.507562 
L 371.064208 189.507562 
L 370.621984 189.507562 
L 371.064208 189.133527 
L 371.506431 189.507562 
L 371.948655 190.255633 
L 371.506431 190.629669 
L 370.621984 190.629669 
L 369.295313 189.881598 
L 368.85309 189.881598 
L 368.85309 189.507562 
L 370.17976 190.629669 
L 368.85309 190.629669 
L 368.410866 190.255633 
L 366.641972 191.006495 
L 366.641972 191.754566 
L 367.968642 191.380531 
L 368.410866 191.006495 
L 368.410866 191.006495 
L 367.968642 191.754566 
L 368.410866 191.754566 
L 368.410866 192.128602 
L 368.410866 192.128602 
L 367.968642 192.502637 
L 367.526419 192.128602 
L 367.968642 191.754566 
L 367.968642 191.754566 
" style="fill:none;stroke:#1f77b4;stroke-linecap:square;stroke-width:1.5;"/>
   </g>
   <g id="matplotlib.axis_1">
    <g id="xtick_1">
     <g id="line2d_2">
      <defs>
       <path d="M 0 0 
L 0 3.5 
" id="mcaa490c733" style="stroke:#000000;stroke-width:0.8;"/>
      </defs>
      <g>
       <use style="stroke:#000000;stroke-width:0.8;" x="96.864772" xlink:href="#mcaa490c733" y="307.584"/>
      </g>
     </g>
     <g id="text_1">
      <!-- −400 -->
      <defs>
       <path d="M 10.59375 35.5 
L 73.1875 35.5 
L 73.1875 27.203125 
L 10.59375 27.203125 
z
" id="DejaVuSans-8722"/>
       <path d="M 37.796875 64.3125 
L 12.890625 25.390625 
L 37.796875 25.390625 
z
M 35.203125 72.90625 
L 47.609375 72.90625 
L 47.609375 25.390625 
L 58.015625 25.390625 
L 58.015625 17.1875 
L 47.609375 17.1875 
L 47.609375 0 
L 37.796875 0 
L 37.796875 17.1875 
L 4.890625 17.1875 
L 4.890625 26.703125 
z
" id="DejaVuSans-52"/>
       <path d="M 31.78125 66.40625 
Q 24.171875 66.40625 20.328125 58.90625 
Q 16.5 51.421875 16.5 36.375 
Q 16.5 21.390625 20.328125 13.890625 
Q 24.171875 6.390625 31.78125 6.390625 
Q 39.453125 6.390625 43.28125 13.890625 
Q 47.125 21.390625 47.125 36.375 
Q 47.125 51.421875 43.28125 58.90625 
Q 39.453125 66.40625 31.78125 66.40625 
z
M 31.78125 74.21875 
Q 44.046875 74.21875 50.515625 64.515625 
Q 56.984375 54.828125 56.984375 36.375 
Q 56.984375 17.96875 50.515625 8.265625 
Q 44.046875 -1.421875 31.78125 -1.421875 
Q 19.53125 -1.421875 13.0625 8.265625 
Q 6.59375 17.96875 6.59375 36.375 
Q 6.59375 54.828125 13.0625 64.515625 
Q 19.53125 74.21875 31.78125 74.21875 
z
" id="DejaVuSans-48"/>
      </defs>
      <g transform="translate(83.131179 322.182437)scale(0.1 -0.1)">
       <use xlink:href="#DejaVuSans-8722"/>
       <use x="83.789062" xlink:href="#DejaVuSans-52"/>
       <use x="147.412109" xlink:href="#DejaVuSans-48"/>
       <use x="211.035156" xlink:href="#DejaVuSans-48"/>
      </g>
     </g>
    </g>
    <g id="xtick_2">
     <g id="line2d_3">
      <g>
       <use style="stroke:#000000;stroke-width:0.8;" x="148.891077" xlink:href="#mcaa490c733" y="307.584"/>
      </g>
     </g>
     <g id="text_2">
      <!-- −300 -->
      <defs>
       <path d="M 40.578125 39.3125 
Q 47.65625 37.796875 51.625 33 
Q 55.609375 28.21875 55.609375 21.1875 
Q 55.609375 10.40625 48.1875 4.484375 
Q 40.765625 -1.421875 27.09375 -1.421875 
Q 22.515625 -1.421875 17.65625 -0.515625 
Q 12.796875 0.390625 7.625 2.203125 
L 7.625 11.71875 
Q 11.71875 9.328125 16.59375 8.109375 
Q 21.484375 6.890625 26.8125 6.890625 
Q 36.078125 6.890625 40.9375 10.546875 
Q 45.796875 14.203125 45.796875 21.1875 
Q 45.796875 27.640625 41.28125 31.265625 
Q 36.765625 34.90625 28.71875 34.90625 
L 20.21875 34.90625 
L 20.21875 43.015625 
L 29.109375 43.015625 
Q 36.375 43.015625 40.234375 45.921875 
Q 44.09375 48.828125 44.09375 54.296875 
Q 44.09375 59.90625 40.109375 62.90625 
Q 36.140625 65.921875 28.71875 65.921875 
Q 24.65625 65.921875 20.015625 65.03125 
Q 15.375 64.15625 9.8125 62.3125 
L 9.8125 71.09375 
Q 15.4375 72.65625 20.34375 73.4375 
Q 25.25 74.21875 29.59375 74.21875 
Q 40.828125 74.21875 47.359375 69.109375 
Q 53.90625 64.015625 53.90625 55.328125 
Q 53.90625 49.265625 50.4375 45.09375 
Q 46.96875 40.921875 40.578125 39.3125 
z
" id="DejaVuSans-51"/>
      </defs>
      <g transform="translate(135.157483 322.182437)scale(0.1 -0.1)">
       <use xlink:href="#DejaVuSans-8722"/>
       <use x="83.789062" xlink:href="#DejaVuSans-51"/>
       <use x="147.412109" xlink:href="#DejaVuSans-48"/>
       <use x="211.035156" xlink:href="#DejaVuSans-48"/>
      </g>
     </g>
    </g>
    <g id="xtick_3">
     <g id="line2d_4">
      <g>
       <use style="stroke:#000000;stroke-width:0.8;" x="200.917381" xlink:href="#mcaa490c733" y="307.584"/>
      </g>
     </g>
     <g id="text_3">
      <!-- −200 -->
      <defs>
       <path d="M 19.1875 8.296875 
L 53.609375 8.296875 
L 53.609375 0 
L 7.328125 0 
L 7.328125 8.296875 
Q 12.9375 14.109375 22.625 23.890625 
Q 32.328125 33.6875 34.8125 36.53125 
Q 39.546875 41.84375 41.421875 45.53125 
Q 43.3125 49.21875 43.3125 52.78125 
Q 43.3125 58.59375 39.234375 62.25 
Q 35.15625 65.921875 28.609375 65.921875 
Q 23.96875 65.921875 18.8125 64.3125 
Q 13.671875 62.703125 7.8125 59.421875 
L 7.8125 69.390625 
Q 13.765625 71.78125 18.9375 73 
Q 24.125 74.21875 28.421875 74.21875 
Q 39.75 74.21875 46.484375 68.546875 
Q 53.21875 62.890625 53.21875 53.421875 
Q 53.21875 48.921875 51.53125 44.890625 
Q 49.859375 40.875 45.40625 35.40625 
Q 44.1875 33.984375 37.640625 27.21875 
Q 31.109375 20.453125 19.1875 8.296875 
z
" id="DejaVuSans-50"/>
      </defs>
      <g transform="translate(187.183788 322.182437)scale(0.1 -0.1)">
       <use xlink:href="#DejaVuSans-8722"/>
       <use x="83.789062" xlink:href="#DejaVuSans-50"/>
       <use x="147.412109" xlink:href="#DejaVuSans-48"/>
       <use x="211.035156" xlink:href="#DejaVuSans-48"/>
      </g>
     </g>
    </g>
    <g id="xtick_4">
     <g id="line2d_5">
      <g>
       <use style="stroke:#000000;stroke-width:0.8;" x="252.943686" xlink:href="#mcaa490c733" y="307.584"/>
      </g>
     </g>
     <g id="text_4">
      <!-- −100 -->
      <defs>
       <path d="M 12.40625 8.296875 
L 28.515625 8.296875 
L 28.515625 63.921875 
L 10.984375 60.40625 
L 10.984375 69.390625 
L 28.421875 72.90625 
L 38.28125 72.90625 
L 38.28125 8.296875 
L 54.390625 8.296875 
L 54.390625 0 
L 12.40625 0 
z
" id="DejaVuSans-49"/>
      </defs>
      <g transform="translate(239.210092 322.182437)scale(0.1 -0.1)">
       <use xlink:href="#DejaVuSans-8722"/>
       <use x="83.789062" xlink:href="#DejaVuSans-49"/>
       <use x="147.412109" xlink:href="#DejaVuSans-48"/>
       <use x="211.035156" xlink:href="#DejaVuSans-48"/>
      </g>
     </g>
    </g>
    <g id="xtick_5">
     <g id="line2d_6">
      <g>
       <use style="stroke:#000000;stroke-width:0.8;" x="304.96999" xlink:href="#mcaa490c733" y="307.584"/>
      </g>
     </g>
     <g id="text_5">
      <!-- 0 -->
      <g transform="translate(301.78874 322.182437)scale(0.1 -0.1)">
       <use xlink:href="#DejaVuSans-48"/>
      </g>
     </g>
    </g>
    <g id="xtick_6">
     <g id="line2d_7">
      <g>
       <use style="stroke:#000000;stroke-width:0.8;" x="356.996295" xlink:href="#mcaa490c733" y="307.584"/>
      </g>
     </g>
     <g id="text_6">
      <!-- 100 -->
      <g transform="translate(347.452545 322.182437)scale(0.1 -0.1)">
       <use xlink:href="#DejaVuSans-49"/>
       <use x="63.623047" xlink:href="#DejaVuSans-48"/>
       <use x="127.246094" xlink:href="#DejaVuSans-48"/>
      </g>
     </g>
    </g>
    <g id="xtick_7">
     <g id="line2d_8">
      <g>
       <use style="stroke:#000000;stroke-width:0.8;" x="409.022599" xlink:href="#mcaa490c733" y="307.584"/>
      </g>
     </g>
     <g id="text_7">
      <!-- 200 -->
      <g transform="translate(399.478849 322.182437)scale(0.1 -0.1)">
       <use xlink:href="#DejaVuSans-50"/>
       <use x="63.623047" xlink:href="#DejaVuSans-48"/>
       <use x="127.246094" xlink:href="#DejaVuSans-48"/>
      </g>
     </g>
    </g>
   </g>
   <g id="matplotlib.axis_2">
    <g id="ytick_1">
     <g id="line2d_9">
      <defs>
       <path d="M 0 0 
L -3.5 0 
" id="m00cf660287" style="stroke:#000000;stroke-width:0.8;"/>
      </defs>
      <g>
       <use style="stroke:#000000;stroke-width:0.8;" x="57.6" xlink:href="#m00cf660287" y="284.61585"/>
      </g>
     </g>
     <g id="text_8">
      <!-- −600 -->
      <defs>
       <path d="M 33.015625 40.375 
Q 26.375 40.375 22.484375 35.828125 
Q 18.609375 31.296875 18.609375 23.390625 
Q 18.609375 15.53125 22.484375 10.953125 
Q 26.375 6.390625 33.015625 6.390625 
Q 39.65625 6.390625 43.53125 10.953125 
Q 47.40625 15.53125 47.40625 23.390625 
Q 47.40625 31.296875 43.53125 35.828125 
Q 39.65625 40.375 33.015625 40.375 
z
M 52.59375 71.296875 
L 52.59375 62.3125 
Q 48.875 64.0625 45.09375 64.984375 
Q 41.3125 65.921875 37.59375 65.921875 
Q 27.828125 65.921875 22.671875 59.328125 
Q 17.53125 52.734375 16.796875 39.40625 
Q 19.671875 43.65625 24.015625 45.921875 
Q 28.375 48.1875 33.59375 48.1875 
Q 44.578125 48.1875 50.953125 41.515625 
Q 57.328125 34.859375 57.328125 23.390625 
Q 57.328125 12.15625 50.6875 5.359375 
Q 44.046875 -1.421875 33.015625 -1.421875 
Q 20.359375 -1.421875 13.671875 8.265625 
Q 6.984375 17.96875 6.984375 36.375 
Q 6.984375 53.65625 15.1875 63.9375 
Q 23.390625 74.21875 37.203125 74.21875 
Q 40.921875 74.21875 44.703125 73.484375 
Q 48.484375 72.75 52.59375 71.296875 
z
" id="DejaVuSans-54"/>
      </defs>
      <g transform="translate(23.132812 288.415068)scale(0.1 -0.1)">
       <use xlink:href="#DejaVuSans-8722"/>
       <use x="83.789062" xlink:href="#DejaVuSans-54"/>
       <use x="147.412109" xlink:href="#DejaVuSans-48"/>
       <use x="211.035156" xlink:href="#DejaVuSans-48"/>
      </g>
     </g>
    </g>
    <g id="ytick_2">
     <g id="line2d_10">
      <g>
       <use style="stroke:#000000;stroke-width:0.8;" x="57.6" xlink:href="#m00cf660287" y="228.78966"/>
      </g>
     </g>
     <g id="text_9">
      <!-- −400 -->
      <g transform="translate(23.132812 232.588879)scale(0.1 -0.1)">
       <use xlink:href="#DejaVuSans-8722"/>
       <use x="83.789062" xlink:href="#DejaVuSans-52"/>
       <use x="147.412109" xlink:href="#DejaVuSans-48"/>
       <use x="211.035156" xlink:href="#DejaVuSans-48"/>
      </g>
     </g>
    </g>
    <g id="ytick_3">
     <g id="line2d_11">
      <g>
       <use style="stroke:#000000;stroke-width:0.8;" x="57.6" xlink:href="#m00cf660287" y="172.963471"/>
      </g>
     </g>
     <g id="text_10">
      <!-- −200 -->
      <g transform="translate(23.132812 176.76269)scale(0.1 -0.1)">
       <use xlink:href="#DejaVuSans-8722"/>
       <use x="83.789062" xlink:href="#DejaVuSans-50"/>
       <use x="147.412109" xlink:href="#DejaVuSans-48"/>
       <use x="211.035156" xlink:href="#DejaVuSans-48"/>
      </g>
     </g>
    </g>
    <g id="ytick_4">
     <g id="line2d_12">
      <g>
       <use style="stroke:#000000;stroke-width:0.8;" x="57.6" xlink:href="#m00cf660287" y="117.137282"/>
      </g>
     </g>
     <g id="text_11">
      <!-- 0 -->
      <g transform="translate(44.2375 120.936501)scale(0.1 -0.1)">
       <use xlink:href="#DejaVuSans-48"/>
      </g>
     </g>
    </g>
    <g id="ytick_5">
     <g id="line2d_13">
      <g>
       <use style="stroke:#000000;stroke-width:0.8;" x="57.6" xlink:href="#m00cf660287" y="61.311092"/>
      </g>
     </g>
     <g id="text_12">
      <!-- 200 -->
      <g transform="translate(31.5125 65.110311)scale(0.1 -0.1)">
       <use xlink:href="#DejaVuSans-50"/>
       <use x="63.623047" xlink:href="#DejaVuSans-48"/>
       <use x="127.246094" xlink:href="#DejaVuSans-48"/>
      </g>
     </g>
    </g>
   </g>
   <g id="line2d_14">
    <path clip-path="url(#p8bad3e223e)" d="M 231.538723 154.113944 
L 176.95853 189.178716 
L 160.070762 244.617954 
L 356.905789 227.479536 
L 89.89957 287.685813 
L 85.89968 286.984855 
L 224.482035 73.144092 
L 264.173949 157.405358 
L 367.739135 184.846121 
" style="fill:none;stroke:#ff0000;stroke-linecap:square;stroke-width:0.5;"/>
   </g>
   <g id="patch_3">
    <path d="M 57.6 307.584 
L 57.6 41.472 
" style="fill:none;stroke:#000000;stroke-linecap:square;stroke-linejoin:miter;stroke-width:0.8;"/>
   </g>
   <g id="patch_4">
    <path d="M 414.72 307.584 
L 414.72 41.472 
" style="fill:none;stroke:#000000;stroke-linecap:square;stroke-linejoin:miter;stroke-width:0.8;"/>
   </g>
   <g id="patch_5">
    <path d="M 57.6 307.584 
L 414.72 307.584 
" style="fill:none;stroke:#000000;stroke-linecap:square;stroke-linejoin:miter;stroke-width:0.8;"/>
   </g>
   <g id="patch_6">
    <path d="M 57.6 41.472 
L 414.72 41.472 
" style="fill:none;stroke:#000000;stroke-linecap:square;stroke-linejoin:miter;stroke-width:0.8;"/>
   </g>
   <g id="PathCollection_1">
    <defs>
     <path d="M 0 2.738613 
C 0.726289 2.738613 1.422928 2.450055 1.936492 1.936492 
C 2.450055 1.422928 2.738613 0.726289 2.738613 0 
C 2.738613 -0.726289 2.450055 -1.422928 1.936492 -1.936492 
C 1.422928 -2.450055 0.726289 -2.738613 0 -2.738613 
C -0.726289 -2.738613 -1.422928 -2.450055 -1.936492 -1.936492 
C -2.450055 -1.422928 -2.738613 -0.726289 -2.738613 0 
C -2.738613 0.726289 -2.450055 1.422928 -1.936492 1.936492 
C -1.422928 2.450055 -0.726289 2.738613 0 2.738613 
z
" id="m5caa4f9051" style="stroke:#ff0000;"/>
    </defs>
    <g clip-path="url(#p8bad3e223e)">
     <use style="fill:#ff0000;stroke:#ff0000;" x="231.538723" xlink:href="#m5caa4f9051" y="154.113944"/>
     <use style="fill:#ff0000;stroke:#ff0000;" x="176.95853" xlink:href="#m5caa4f9051" y="189.178716"/>
     <use style="fill:#ff0000;stroke:#ff0000;" x="160.070762" xlink:href="#m5caa4f9051" y="244.617954"/>
     <use style="fill:#ff0000;stroke:#ff0000;" x="356.905789" xlink:href="#m5caa4f9051" y="227.479536"/>
     <use style="fill:#ff0000;stroke:#ff0000;" x="89.89957" xlink:href="#m5caa4f9051" y="287.685813"/>
     <use style="fill:#ff0000;stroke:#ff0000;" x="85.89968" xlink:href="#m5caa4f9051" y="286.984855"/>
     <use style="fill:#ff0000;stroke:#ff0000;" x="224.482035" xlink:href="#m5caa4f9051" y="73.144092"/>
     <use style="fill:#ff0000;stroke:#ff0000;" x="264.173949" xlink:href="#m5caa4f9051" y="157.405358"/>
     <use style="fill:#ff0000;stroke:#ff0000;" x="367.739135" xlink:href="#m5caa4f9051" y="184.846121"/>
    </g>
   </g>
   <g id="text_13">
    <!-- (119) Subject: s3, Known = False, Degree = 2, Duration = 0.1 -->
    <defs>
     <path d="M 31 75.875 
Q 24.46875 64.65625 21.28125 53.65625 
Q 18.109375 42.671875 18.109375 31.390625 
Q 18.109375 20.125 21.3125 9.0625 
Q 24.515625 -2 31 -13.1875 
L 23.1875 -13.1875 
Q 15.875 -1.703125 12.234375 9.375 
Q 8.59375 20.453125 8.59375 31.390625 
Q 8.59375 42.28125 12.203125 53.3125 
Q 15.828125 64.359375 23.1875 75.875 
z
" id="DejaVuSans-40"/>
     <path d="M 10.984375 1.515625 
L 10.984375 10.5 
Q 14.703125 8.734375 18.5 7.8125 
Q 22.3125 6.890625 25.984375 6.890625 
Q 35.75 6.890625 40.890625 13.453125 
Q 46.046875 20.015625 46.78125 33.40625 
Q 43.953125 29.203125 39.59375 26.953125 
Q 35.25 24.703125 29.984375 24.703125 
Q 19.046875 24.703125 12.671875 31.3125 
Q 6.296875 37.9375 6.296875 49.421875 
Q 6.296875 60.640625 12.9375 67.421875 
Q 19.578125 74.21875 30.609375 74.21875 
Q 43.265625 74.21875 49.921875 64.515625 
Q 56.59375 54.828125 56.59375 36.375 
Q 56.59375 19.140625 48.40625 8.859375 
Q 40.234375 -1.421875 26.421875 -1.421875 
Q 22.703125 -1.421875 18.890625 -0.6875 
Q 15.09375 0.046875 10.984375 1.515625 
z
M 30.609375 32.421875 
Q 37.25 32.421875 41.125 36.953125 
Q 45.015625 41.5 45.015625 49.421875 
Q 45.015625 57.28125 41.125 61.84375 
Q 37.25 66.40625 30.609375 66.40625 
Q 23.96875 66.40625 20.09375 61.84375 
Q 16.21875 57.28125 16.21875 49.421875 
Q 16.21875 41.5 20.09375 36.953125 
Q 23.96875 32.421875 30.609375 32.421875 
z
" id="DejaVuSans-57"/>
     <path d="M 8.015625 75.875 
L 15.828125 75.875 
Q 23.140625 64.359375 26.78125 53.3125 
Q 30.421875 42.28125 30.421875 31.390625 
Q 30.421875 20.453125 26.78125 9.375 
Q 23.140625 -1.703125 15.828125 -13.1875 
L 8.015625 -13.1875 
Q 14.5 -2 17.703125 9.0625 
Q 20.90625 20.125 20.90625 31.390625 
Q 20.90625 42.671875 17.703125 53.65625 
Q 14.5 64.65625 8.015625 75.875 
z
" id="DejaVuSans-41"/>
     <path id="DejaVuSans-32"/>
     <path d="M 53.515625 70.515625 
L 53.515625 60.890625 
Q 47.90625 63.578125 42.921875 64.890625 
Q 37.9375 66.21875 33.296875 66.21875 
Q 25.25 66.21875 20.875 63.09375 
Q 16.5 59.96875 16.5 54.203125 
Q 16.5 49.359375 19.40625 46.890625 
Q 22.3125 44.4375 30.421875 42.921875 
L 36.375 41.703125 
Q 47.40625 39.59375 52.65625 34.296875 
Q 57.90625 29 57.90625 20.125 
Q 57.90625 9.515625 50.796875 4.046875 
Q 43.703125 -1.421875 29.984375 -1.421875 
Q 24.8125 -1.421875 18.96875 -0.25 
Q 13.140625 0.921875 6.890625 3.21875 
L 6.890625 13.375 
Q 12.890625 10.015625 18.65625 8.296875 
Q 24.421875 6.59375 29.984375 6.59375 
Q 38.421875 6.59375 43.015625 9.90625 
Q 47.609375 13.234375 47.609375 19.390625 
Q 47.609375 24.75 44.3125 27.78125 
Q 41.015625 30.8125 33.5 32.328125 
L 27.484375 33.5 
Q 16.453125 35.6875 11.515625 40.375 
Q 6.59375 45.0625 6.59375 53.421875 
Q 6.59375 63.09375 13.40625 68.65625 
Q 20.21875 74.21875 32.171875 74.21875 
Q 37.3125 74.21875 42.625 73.28125 
Q 47.953125 72.359375 53.515625 70.515625 
z
" id="DejaVuSans-83"/>
     <path d="M 8.5 21.578125 
L 8.5 54.6875 
L 17.484375 54.6875 
L 17.484375 21.921875 
Q 17.484375 14.15625 20.5 10.265625 
Q 23.53125 6.390625 29.59375 6.390625 
Q 36.859375 6.390625 41.078125 11.03125 
Q 45.3125 15.671875 45.3125 23.6875 
L 45.3125 54.6875 
L 54.296875 54.6875 
L 54.296875 0 
L 45.3125 0 
L 45.3125 8.40625 
Q 42.046875 3.421875 37.71875 1 
Q 33.40625 -1.421875 27.6875 -1.421875 
Q 18.265625 -1.421875 13.375 4.4375 
Q 8.5 10.296875 8.5 21.578125 
z
M 31.109375 56 
z
" id="DejaVuSans-117"/>
     <path d="M 48.6875 27.296875 
Q 48.6875 37.203125 44.609375 42.84375 
Q 40.53125 48.484375 33.40625 48.484375 
Q 26.265625 48.484375 22.1875 42.84375 
Q 18.109375 37.203125 18.109375 27.296875 
Q 18.109375 17.390625 22.1875 11.75 
Q 26.265625 6.109375 33.40625 6.109375 
Q 40.53125 6.109375 44.609375 11.75 
Q 48.6875 17.390625 48.6875 27.296875 
z
M 18.109375 46.390625 
Q 20.953125 51.265625 25.265625 53.625 
Q 29.59375 56 35.59375 56 
Q 45.5625 56 51.78125 48.09375 
Q 58.015625 40.1875 58.015625 27.296875 
Q 58.015625 14.40625 51.78125 6.484375 
Q 45.5625 -1.421875 35.59375 -1.421875 
Q 29.59375 -1.421875 25.265625 0.953125 
Q 20.953125 3.328125 18.109375 8.203125 
L 18.109375 0 
L 9.078125 0 
L 9.078125 75.984375 
L 18.109375 75.984375 
z
" id="DejaVuSans-98"/>
     <path d="M 9.421875 54.6875 
L 18.40625 54.6875 
L 18.40625 -0.984375 
Q 18.40625 -11.421875 14.421875 -16.109375 
Q 10.453125 -20.796875 1.609375 -20.796875 
L -1.8125 -20.796875 
L -1.8125 -13.1875 
L 0.59375 -13.1875 
Q 5.71875 -13.1875 7.5625 -10.8125 
Q 9.421875 -8.453125 9.421875 -0.984375 
z
M 9.421875 75.984375 
L 18.40625 75.984375 
L 18.40625 64.59375 
L 9.421875 64.59375 
z
" id="DejaVuSans-106"/>
     <path d="M 56.203125 29.59375 
L 56.203125 25.203125 
L 14.890625 25.203125 
Q 15.484375 15.921875 20.484375 11.0625 
Q 25.484375 6.203125 34.421875 6.203125 
Q 39.59375 6.203125 44.453125 7.46875 
Q 49.3125 8.734375 54.109375 11.28125 
L 54.109375 2.78125 
Q 49.265625 0.734375 44.1875 -0.34375 
Q 39.109375 -1.421875 33.890625 -1.421875 
Q 20.796875 -1.421875 13.15625 6.1875 
Q 5.515625 13.8125 5.515625 26.8125 
Q 5.515625 40.234375 12.765625 48.109375 
Q 20.015625 56 32.328125 56 
Q 43.359375 56 49.78125 48.890625 
Q 56.203125 41.796875 56.203125 29.59375 
z
M 47.21875 32.234375 
Q 47.125 39.59375 43.09375 43.984375 
Q 39.0625 48.390625 32.421875 48.390625 
Q 24.90625 48.390625 20.390625 44.140625 
Q 15.875 39.890625 15.1875 32.171875 
z
" id="DejaVuSans-101"/>
     <path d="M 48.78125 52.59375 
L 48.78125 44.1875 
Q 44.96875 46.296875 41.140625 47.34375 
Q 37.3125 48.390625 33.40625 48.390625 
Q 24.65625 48.390625 19.8125 42.84375 
Q 14.984375 37.3125 14.984375 27.296875 
Q 14.984375 17.28125 19.8125 11.734375 
Q 24.65625 6.203125 33.40625 6.203125 
Q 37.3125 6.203125 41.140625 7.25 
Q 44.96875 8.296875 48.78125 10.40625 
L 48.78125 2.09375 
Q 45.015625 0.34375 40.984375 -0.53125 
Q 36.96875 -1.421875 32.421875 -1.421875 
Q 20.0625 -1.421875 12.78125 6.34375 
Q 5.515625 14.109375 5.515625 27.296875 
Q 5.515625 40.671875 12.859375 48.328125 
Q 20.21875 56 33.015625 56 
Q 37.15625 56 41.109375 55.140625 
Q 45.0625 54.296875 48.78125 52.59375 
z
" id="DejaVuSans-99"/>
     <path d="M 18.3125 70.21875 
L 18.3125 54.6875 
L 36.8125 54.6875 
L 36.8125 47.703125 
L 18.3125 47.703125 
L 18.3125 18.015625 
Q 18.3125 11.328125 20.140625 9.421875 
Q 21.96875 7.515625 27.59375 7.515625 
L 36.8125 7.515625 
L 36.8125 0 
L 27.59375 0 
Q 17.1875 0 13.234375 3.875 
Q 9.28125 7.765625 9.28125 18.015625 
L 9.28125 47.703125 
L 2.6875 47.703125 
L 2.6875 54.6875 
L 9.28125 54.6875 
L 9.28125 70.21875 
z
" id="DejaVuSans-116"/>
     <path d="M 11.71875 12.40625 
L 22.015625 12.40625 
L 22.015625 0 
L 11.71875 0 
z
M 11.71875 51.703125 
L 22.015625 51.703125 
L 22.015625 39.3125 
L 11.71875 39.3125 
z
" id="DejaVuSans-58"/>
     <path d="M 44.28125 53.078125 
L 44.28125 44.578125 
Q 40.484375 46.53125 36.375 47.5 
Q 32.28125 48.484375 27.875 48.484375 
Q 21.1875 48.484375 17.84375 46.4375 
Q 14.5 44.390625 14.5 40.28125 
Q 14.5 37.15625 16.890625 35.375 
Q 19.28125 33.59375 26.515625 31.984375 
L 29.59375 31.296875 
Q 39.15625 29.25 43.1875 25.515625 
Q 47.21875 21.78125 47.21875 15.09375 
Q 47.21875 7.46875 41.1875 3.015625 
Q 35.15625 -1.421875 24.609375 -1.421875 
Q 20.21875 -1.421875 15.453125 -0.5625 
Q 10.6875 0.296875 5.421875 2 
L 5.421875 11.28125 
Q 10.40625 8.6875 15.234375 7.390625 
Q 20.0625 6.109375 24.8125 6.109375 
Q 31.15625 6.109375 34.5625 8.28125 
Q 37.984375 10.453125 37.984375 14.40625 
Q 37.984375 18.0625 35.515625 20.015625 
Q 33.0625 21.96875 24.703125 23.78125 
L 21.578125 24.515625 
Q 13.234375 26.265625 9.515625 29.90625 
Q 5.8125 33.546875 5.8125 39.890625 
Q 5.8125 47.609375 11.28125 51.796875 
Q 16.75 56 26.8125 56 
Q 31.78125 56 36.171875 55.265625 
Q 40.578125 54.546875 44.28125 53.078125 
z
" id="DejaVuSans-115"/>
     <path d="M 11.71875 12.40625 
L 22.015625 12.40625 
L 22.015625 4 
L 14.015625 -11.625 
L 7.71875 -11.625 
L 11.71875 4 
z
" id="DejaVuSans-44"/>
     <path d="M 9.8125 72.90625 
L 19.671875 72.90625 
L 19.671875 42.09375 
L 52.390625 72.90625 
L 65.09375 72.90625 
L 28.90625 38.921875 
L 67.671875 0 
L 54.6875 0 
L 19.671875 35.109375 
L 19.671875 0 
L 9.8125 0 
z
" id="DejaVuSans-75"/>
     <path d="M 54.890625 33.015625 
L 54.890625 0 
L 45.90625 0 
L 45.90625 32.71875 
Q 45.90625 40.484375 42.875 44.328125 
Q 39.84375 48.1875 33.796875 48.1875 
Q 26.515625 48.1875 22.3125 43.546875 
Q 18.109375 38.921875 18.109375 30.90625 
L 18.109375 0 
L 9.078125 0 
L 9.078125 54.6875 
L 18.109375 54.6875 
L 18.109375 46.1875 
Q 21.34375 51.125 25.703125 53.5625 
Q 30.078125 56 35.796875 56 
Q 45.21875 56 50.046875 50.171875 
Q 54.890625 44.34375 54.890625 33.015625 
z
" id="DejaVuSans-110"/>
     <path d="M 30.609375 48.390625 
Q 23.390625 48.390625 19.1875 42.75 
Q 14.984375 37.109375 14.984375 27.296875 
Q 14.984375 17.484375 19.15625 11.84375 
Q 23.34375 6.203125 30.609375 6.203125 
Q 37.796875 6.203125 41.984375 11.859375 
Q 46.1875 17.53125 46.1875 27.296875 
Q 46.1875 37.015625 41.984375 42.703125 
Q 37.796875 48.390625 30.609375 48.390625 
z
M 30.609375 56 
Q 42.328125 56 49.015625 48.375 
Q 55.71875 40.765625 55.71875 27.296875 
Q 55.71875 13.875 49.015625 6.21875 
Q 42.328125 -1.421875 30.609375 -1.421875 
Q 18.84375 -1.421875 12.171875 6.21875 
Q 5.515625 13.875 5.515625 27.296875 
Q 5.515625 40.765625 12.171875 48.375 
Q 18.84375 56 30.609375 56 
z
" id="DejaVuSans-111"/>
     <path d="M 4.203125 54.6875 
L 13.1875 54.6875 
L 24.421875 12.015625 
L 35.59375 54.6875 
L 46.1875 54.6875 
L 57.421875 12.015625 
L 68.609375 54.6875 
L 77.59375 54.6875 
L 63.28125 0 
L 52.6875 0 
L 40.921875 44.828125 
L 29.109375 0 
L 18.5 0 
z
" id="DejaVuSans-119"/>
     <path d="M 10.59375 45.40625 
L 73.1875 45.40625 
L 73.1875 37.203125 
L 10.59375 37.203125 
z
M 10.59375 25.484375 
L 73.1875 25.484375 
L 73.1875 17.1875 
L 10.59375 17.1875 
z
" id="DejaVuSans-61"/>
     <path d="M 9.8125 72.90625 
L 51.703125 72.90625 
L 51.703125 64.59375 
L 19.671875 64.59375 
L 19.671875 43.109375 
L 48.578125 43.109375 
L 48.578125 34.8125 
L 19.671875 34.8125 
L 19.671875 0 
L 9.8125 0 
z
" id="DejaVuSans-70"/>
     <path d="M 34.28125 27.484375 
Q 23.390625 27.484375 19.1875 25 
Q 14.984375 22.515625 14.984375 16.5 
Q 14.984375 11.71875 18.140625 8.90625 
Q 21.296875 6.109375 26.703125 6.109375 
Q 34.1875 6.109375 38.703125 11.40625 
Q 43.21875 16.703125 43.21875 25.484375 
L 43.21875 27.484375 
z
M 52.203125 31.203125 
L 52.203125 0 
L 43.21875 0 
L 43.21875 8.296875 
Q 40.140625 3.328125 35.546875 0.953125 
Q 30.953125 -1.421875 24.3125 -1.421875 
Q 15.921875 -1.421875 10.953125 3.296875 
Q 6 8.015625 6 15.921875 
Q 6 25.140625 12.171875 29.828125 
Q 18.359375 34.515625 30.609375 34.515625 
L 43.21875 34.515625 
L 43.21875 35.40625 
Q 43.21875 41.609375 39.140625 45 
Q 35.0625 48.390625 27.6875 48.390625 
Q 23 48.390625 18.546875 47.265625 
Q 14.109375 46.140625 10.015625 43.890625 
L 10.015625 52.203125 
Q 14.9375 54.109375 19.578125 55.046875 
Q 24.21875 56 28.609375 56 
Q 40.484375 56 46.34375 49.84375 
Q 52.203125 43.703125 52.203125 31.203125 
z
" id="DejaVuSans-97"/>
     <path d="M 9.421875 75.984375 
L 18.40625 75.984375 
L 18.40625 0 
L 9.421875 0 
z
" id="DejaVuSans-108"/>
     <path d="M 19.671875 64.796875 
L 19.671875 8.109375 
L 31.59375 8.109375 
Q 46.6875 8.109375 53.6875 14.9375 
Q 60.6875 21.78125 60.6875 36.53125 
Q 60.6875 51.171875 53.6875 57.984375 
Q 46.6875 64.796875 31.59375 64.796875 
z
M 9.8125 72.90625 
L 30.078125 72.90625 
Q 51.265625 72.90625 61.171875 64.09375 
Q 71.09375 55.28125 71.09375 36.53125 
Q 71.09375 17.671875 61.125 8.828125 
Q 51.171875 0 30.078125 0 
L 9.8125 0 
z
" id="DejaVuSans-68"/>
     <path d="M 45.40625 27.984375 
Q 45.40625 37.75 41.375 43.109375 
Q 37.359375 48.484375 30.078125 48.484375 
Q 22.859375 48.484375 18.828125 43.109375 
Q 14.796875 37.75 14.796875 27.984375 
Q 14.796875 18.265625 18.828125 12.890625 
Q 22.859375 7.515625 30.078125 7.515625 
Q 37.359375 7.515625 41.375 12.890625 
Q 45.40625 18.265625 45.40625 27.984375 
z
M 54.390625 6.78125 
Q 54.390625 -7.171875 48.1875 -13.984375 
Q 42 -20.796875 29.203125 -20.796875 
Q 24.46875 -20.796875 20.265625 -20.09375 
Q 16.0625 -19.390625 12.109375 -17.921875 
L 12.109375 -9.1875 
Q 16.0625 -11.328125 19.921875 -12.34375 
Q 23.78125 -13.375 27.78125 -13.375 
Q 36.625 -13.375 41.015625 -8.765625 
Q 45.40625 -4.15625 45.40625 5.171875 
L 45.40625 9.625 
Q 42.625 4.78125 38.28125 2.390625 
Q 33.9375 0 27.875 0 
Q 17.828125 0 11.671875 7.65625 
Q 5.515625 15.328125 5.515625 27.984375 
Q 5.515625 40.671875 11.671875 48.328125 
Q 17.828125 56 27.875 56 
Q 33.9375 56 38.28125 53.609375 
Q 42.625 51.21875 45.40625 46.390625 
L 45.40625 54.6875 
L 54.390625 54.6875 
z
" id="DejaVuSans-103"/>
     <path d="M 41.109375 46.296875 
Q 39.59375 47.171875 37.8125 47.578125 
Q 36.03125 48 33.890625 48 
Q 26.265625 48 22.1875 43.046875 
Q 18.109375 38.09375 18.109375 28.8125 
L 18.109375 0 
L 9.078125 0 
L 9.078125 54.6875 
L 18.109375 54.6875 
L 18.109375 46.1875 
Q 20.953125 51.171875 25.484375 53.578125 
Q 30.03125 56 36.53125 56 
Q 37.453125 56 38.578125 55.875 
Q 39.703125 55.765625 41.0625 55.515625 
z
" id="DejaVuSans-114"/>
     <path d="M 9.421875 54.6875 
L 18.40625 54.6875 
L 18.40625 0 
L 9.421875 0 
z
M 9.421875 75.984375 
L 18.40625 75.984375 
L 18.40625 64.59375 
L 9.421875 64.59375 
z
" id="DejaVuSans-105"/>
     <path d="M 10.6875 12.40625 
L 21 12.40625 
L 21 0 
L 10.6875 0 
z
" id="DejaVuSans-46"/>
    </defs>
    <g transform="translate(49.741875 35.472)scale(0.12 -0.12)">
     <use xlink:href="#DejaVuSans-40"/>
     <use x="39.013672" xlink:href="#DejaVuSans-49"/>
     <use x="102.636719" xlink:href="#DejaVuSans-49"/>
     <use x="166.259766" xlink:href="#DejaVuSans-57"/>
     <use x="229.882812" xlink:href="#DejaVuSans-41"/>
     <use x="268.896484" xlink:href="#DejaVuSans-32"/>
     <use x="300.683594" xlink:href="#DejaVuSans-83"/>
     <use x="364.160156" xlink:href="#DejaVuSans-117"/>
     <use x="427.539062" xlink:href="#DejaVuSans-98"/>
     <use x="491.015625" xlink:href="#DejaVuSans-106"/>
     <use x="518.798828" xlink:href="#DejaVuSans-101"/>
     <use x="580.322266" xlink:href="#DejaVuSans-99"/>
     <use x="635.302734" xlink:href="#DejaVuSans-116"/>
     <use x="674.511719" xlink:href="#DejaVuSans-58"/>
     <use x="708.203125" xlink:href="#DejaVuSans-32"/>
     <use x="739.990234" xlink:href="#DejaVuSans-115"/>
     <use x="792.089844" xlink:href="#DejaVuSans-51"/>
     <use x="855.712891" xlink:href="#DejaVuSans-44"/>
     <use x="887.5" xlink:href="#DejaVuSans-32"/>
     <use x="919.287109" xlink:href="#DejaVuSans-75"/>
     <use x="984.863281" xlink:href="#DejaVuSans-110"/>
     <use x="1048.242188" xlink:href="#DejaVuSans-111"/>
     <use x="1109.423828" xlink:href="#DejaVuSans-119"/>
     <use x="1191.210938" xlink:href="#DejaVuSans-110"/>
     <use x="1254.589844" xlink:href="#DejaVuSans-32"/>
     <use x="1286.376953" xlink:href="#DejaVuSans-61"/>
     <use x="1370.166016" xlink:href="#DejaVuSans-32"/>
     <use x="1401.953125" xlink:href="#DejaVuSans-70"/>
     <use x="1459.332031" xlink:href="#DejaVuSans-97"/>
     <use x="1520.611328" xlink:href="#DejaVuSans-108"/>
     <use x="1548.394531" xlink:href="#DejaVuSans-115"/>
     <use x="1600.494141" xlink:href="#DejaVuSans-101"/>
     <use x="1662.017578" xlink:href="#DejaVuSans-44"/>
     <use x="1693.804688" xlink:href="#DejaVuSans-32"/>
     <use x="1725.591797" xlink:href="#DejaVuSans-68"/>
     <use x="1802.59375" xlink:href="#DejaVuSans-101"/>
     <use x="1864.117188" xlink:href="#DejaVuSans-103"/>
     <use x="1927.59375" xlink:href="#DejaVuSans-114"/>
     <use x="1968.675781" xlink:href="#DejaVuSans-101"/>
     <use x="2030.199219" xlink:href="#DejaVuSans-101"/>
     <use x="2091.722656" xlink:href="#DejaVuSans-32"/>
     <use x="2123.509766" xlink:href="#DejaVuSans-61"/>
     <use x="2207.298828" xlink:href="#DejaVuSans-32"/>
     <use x="2239.085938" xlink:href="#DejaVuSans-50"/>
     <use x="2302.708984" xlink:href="#DejaVuSans-44"/>
     <use x="2334.496094" xlink:href="#DejaVuSans-32"/>
     <use x="2366.283203" xlink:href="#DejaVuSans-68"/>
     <use x="2443.285156" xlink:href="#DejaVuSans-117"/>
     <use x="2506.664062" xlink:href="#DejaVuSans-114"/>
     <use x="2547.777344" xlink:href="#DejaVuSans-97"/>
     <use x="2609.056641" xlink:href="#DejaVuSans-116"/>
     <use x="2648.265625" xlink:href="#DejaVuSans-105"/>
     <use x="2676.048828" xlink:href="#DejaVuSans-111"/>
     <use x="2737.230469" xlink:href="#DejaVuSans-110"/>
     <use x="2800.609375" xlink:href="#DejaVuSans-32"/>
     <use x="2832.396484" xlink:href="#DejaVuSans-61"/>
     <use x="2916.185547" xlink:href="#DejaVuSans-32"/>
     <use x="2947.972656" xlink:href="#DejaVuSans-48"/>
     <use x="3011.595703" xlink:href="#DejaVuSans-46"/>
     <use x="3043.382812" xlink:href="#DejaVuSans-49"/>
    </g>
   </g>
  </g>
 </g>
 <defs>
  <clipPath id="p8bad3e223e">
   <rect height="266.112" width="357.12" x="57.6" y="41.472"/>
  </clipPath>
 </defs>
</svg>
