<?xml version="1.0" encoding="utf-8" standalone="no"?>
<!DOCTYPE svg PUBLIC "-//W3C//DTD SVG 1.1//EN"
  "http://www.w3.org/Graphics/SVG/1.1/DTD/svg11.dtd">
<!-- Created with matplotlib (https://matplotlib.org/) -->
<svg height="345.6pt" version="1.1" viewBox="0 0 460.8 345.6" width="460.8pt" xmlns="http://www.w3.org/2000/svg" xmlns:xlink="http://www.w3.org/1999/xlink">
 <defs>
  <style type="text/css">
*{stroke-linecap:butt;stroke-linejoin:round;}
  </style>
 </defs>
 <g id="figure_1">
  <g id="patch_1">
   <path d="M 0 345.6 
L 460.8 345.6 
L 460.8 0 
L 0 0 
z
" style="fill:#ffffff;"/>
  </g>
  <g id="axes_1">
   <g id="patch_2">
    <path d="M 57.6 307.584 
L 414.72 307.584 
L 414.72 41.472 
L 57.6 41.472 
z
" style="fill:#ffffff;"/>
   </g>
   <g id="line2d_1">
    <path clip-path="url(#p75657380c6)" d="M 397.308657 115.428183 
L 397.54438 115.979844 
L 398.25155 115.979844 
L 398.487273 115.428183 
L 398.015826 114.32486 
L 397.54438 113.773199 
L 397.54438 112.665759 
L 397.54438 113.773199 
L 397.780103 114.32486 
L 397.780103 116.531506 
L 397.54438 117.087284 
L 397.308657 116.531506 
L 396.837211 115.979844 
L 396.837211 113.773199 
L 397.072934 113.773199 
L 397.072934 115.428183 
L 397.308657 115.979844 
L 397.308657 115.428183 
L 397.072934 114.32486 
L 396.837211 114.32486 
L 396.365764 116.531506 
L 396.601488 115.979844 
L 397.072934 112.665759 
L 397.072934 113.21742 
L 397.072934 114.876521 
L 397.072934 113.21742 
L 397.308657 113.21742 
L 397.54438 113.773199 
L 397.308657 114.32486 
L 397.780103 117.087284 
L 398.015826 116.531506 
L 397.072934 114.32486 
L 397.308657 113.21742 
L 397.54438 113.21742 
L 397.780103 112.665759 
L 397.54438 112.114097 
L 397.54438 111.010775 
L 397.54438 112.114097 
L 397.308657 112.114097 
L 397.54438 111.562436 
L 398.015826 111.562436 
L 398.015826 112.114097 
L 397.54438 114.32486 
L 397.072934 114.32486 
L 396.601488 113.773199 
L 396.601488 112.665759 
L 396.837211 112.665759 
L 396.837211 113.21742 
L 397.780103 114.32486 
L 397.308657 114.32486 
L 397.308657 113.21742 
L 397.54438 112.665759 
L 397.54438 113.21742 
L 397.780103 113.773199 
L 397.780103 112.114097 
L 397.308657 112.665759 
L 396.837211 113.773199 
L 396.837211 114.32486 
L 397.308657 114.32486 
L 397.780103 114.876521 
L 398.015826 115.428183 
L 397.780103 115.428183 
L 397.780103 114.32486 
L 398.015826 113.773199 
L 398.015826 114.32486 
L 397.780103 114.32486 
L 397.54438 113.773199 
L 397.308657 113.773199 
L 397.308657 113.21742 
L 397.072934 113.773199 
L 397.308657 113.21742 
L 397.780103 112.665759 
L 398.015826 112.114097 
L 398.25155 112.665759 
L 397.780103 113.773199 
L 396.837211 114.876521 
L 396.601488 114.876521 
L 396.601488 113.21742 
L 396.365764 112.665759 
L 396.601488 113.21742 
L 396.837211 113.21742 
L 397.54438 113.773199 
L 397.780103 114.876521 
L 397.780103 116.531506 
L 398.015826 116.531506 
L 397.780103 116.531506 
L 397.308657 115.979844 
L 397.072934 115.428183 
L 396.837211 115.428183 
L 396.601488 114.876521 
L 396.601488 114.32486 
L 396.837211 114.32486 
L 396.837211 114.32486 
L 396.601488 115.428183 
L 396.601488 115.979844 
L 396.601488 115.428183 
L 396.365764 115.428183 
L 396.365764 115.979844 
L 396.837211 115.428183 
L 397.072934 114.32486 
L 397.308657 114.32486 
L 397.54438 115.428183 
L 397.072934 118.190607 
L 397.308657 116.531506 
L 397.308657 115.979844 
L 397.308657 115.979844 
L 397.54438 116.531506 
L 397.780103 115.979844 
L 397.072934 115.979844 
L 396.837211 117.087284 
L 396.601488 117.087284 
L 396.601488 115.979844 
L 396.837211 114.876521 
L 397.072934 115.428183 
L 397.54438 115.979844 
L 398.25155 115.979844 
L 398.015826 115.979844 
L 398.015826 116.531506 
L 398.015826 116.531506 
L 397.54438 115.979844 
L 397.072934 114.876521 
L 397.072934 114.32486 
L 397.54438 114.876521 
L 397.54438 115.428183 
L 397.308657 115.428183 
L 397.072934 114.876521 
L 397.072934 114.876521 
L 397.54438 114.876521 
L 396.601488 114.876521 
L 396.130041 114.32486 
L 396.130041 113.773199 
L 396.365764 112.665759 
L 396.130041 112.114097 
L 395.422872 111.562436 
L 394.951426 111.562436 
L 395.187149 112.114097 
L 395.894318 112.665759 
L 396.365764 111.562436 
L 396.130041 109.903335 
L 395.422872 109.903335 
L 395.187149 111.010775 
L 395.658595 112.665759 
L 396.130041 112.665759 
L 396.130041 111.562436 
L 395.894318 110.459113 
L 395.658595 109.903335 
L 395.187149 109.903335 
L 394.951426 111.010775 
L 394.951426 111.562436 
L 395.422872 112.114097 
L 395.658595 111.562436 
L 394.479979 111.562436 
L 394.008533 111.010775 
L 394.008533 110.459113 
L 394.479979 109.903335 
L 394.715703 109.351673 
L 395.187149 109.903335 
L 394.951426 110.459113 
L 394.951426 111.562436 
L 394.715703 111.562436 
L 394.715703 112.114097 
L 394.244256 112.665759 
L 394.008533 112.114097 
L 394.244256 111.010775 
L 394.479979 110.459113 
L 394.951426 110.459113 
L 394.951426 110.459113 
L 394.951426 109.351673 
L 395.422872 110.459113 
L 395.187149 109.903335 
L 395.187149 110.459113 
L 394.715703 110.459113 
L 394.479979 111.010775 
L 394.479979 113.773199 
L 395.187149 112.114097 
L 395.187149 111.562436 
L 394.244256 111.010775 
L 393.537087 109.903335 
L 393.301364 109.903335 
L 392.829917 111.010775 
L 391.648529 112.114097 
L 389.291297 113.21742 
L 385.991173 115.428183 
L 383.162496 118.190607 
L 380.805264 119.845591 
L 378.21231 120.401369 
L 374.673689 122.056354 
L 370.430673 124.818778 
L 366.423379 127.02954 
L 361.941867 130.343625 
L 356.991681 132.550271 
L 351.805772 134.209372 
L 346.145643 135.312695 
L 340.488288 136.967679 
L 335.299606 138.626781 
L 330.113697 139.178442 
L 324.220618 140.281765 
L 313.138857 143.59585 
L 307.950175 144.70329 
L 302.528543 146.909936 
L 291.211059 152.434784 
L 286.260873 153.538106 
L 282.017857 154.093885 
L 277.772067 155.748869 
L 269.050311 160.166277 
L 264.804521 161.273717 
L 252.544145 162.928701 
L 248.536851 162.37704 
L 245.001004 162.37704 
L 241.229434 162.928701 
L 233.447797 165.139464 
L 229.91195 166.794448 
L 226.611826 167.346109 
L 223.308929 167.346109 
L 220.480251 166.794448 
L 216.237235 166.794448 
L 215.058619 167.901888 
L 212.701388 170.660195 
L 211.758495 170.660195 
L 211.284276 170.108533 
L 210.81283 170.108533 
L 211.284276 170.108533 
L 211.758495 171.215973 
L 212.701388 172.319296 
L 213.172834 172.319296 
L 213.64428 171.767634 
L 213.64428 172.319296 
L 213.880004 172.870957 
L 214.822896 172.870957 
L 216.001512 171.767634 
L 216.472958 170.660195 
L 216.237235 170.660195 
L 216.001512 170.108533 
L 215.294342 170.108533 
L 214.822896 169.556872 
L 214.822896 170.108533 
L 215.294342 170.660195 
L 215.058619 170.660195 
L 214.587173 170.108533 
L 214.35145 169.00521 
L 214.587173 167.346109 
L 215.058619 166.242787 
L 214.822896 166.794448 
L 215.058619 167.346109 
L 215.765789 166.794448 
L 216.472958 165.691125 
L 215.530066 167.346109 
L 215.058619 168.453549 
L 215.058619 170.108533 
L 215.058619 170.108533 
L 214.822896 170.108533 
L 214.822896 169.556872 
L 214.587173 169.00521 
L 214.587173 170.108533 
L 214.822896 171.215973 
L 214.822896 171.767634 
L 215.294342 172.319296 
L 215.530066 172.319296 
L 215.058619 172.319296 
L 214.587173 172.870957 
L 214.115727 172.870957 
L 214.35145 172.870957 
L 214.822896 174.530058 
L 215.294342 174.530058 
L 215.765789 173.422619 
L 215.294342 172.870957 
L 215.058619 173.422619 
L 214.115727 174.530058 
L 214.115727 173.97428 
L 214.115727 173.97428 
L 213.880004 174.530058 
L 213.880004 175.633381 
L 214.115727 176.736704 
L 214.35145 177.288366 
L 214.35145 176.185043 
L 214.115727 175.633381 
L 213.408557 175.633381 
L 213.408557 175.633381 
L 213.880004 176.736704 
L 214.35145 176.185043 
L 214.587173 175.08172 
L 214.587173 175.08172 
L 214.35145 176.736704 
L 213.880004 178.395805 
L 213.64428 178.395805 
L 214.115727 177.288366 
L 214.35145 177.288366 
L 214.115727 177.844144 
L 214.115727 177.844144 
L 213.880004 177.844144 
L 214.115727 177.288366 
L 214.587173 176.736704 
L 214.587173 176.736704 
L 213.880004 178.395805 
L 213.172834 181.709891 
L 213.172834 180.602451 
L 213.408557 179.499128 
L 214.115727 179.499128 
L 214.115727 178.947467 
L 213.880004 180.05079 
L 214.35145 182.261552 
L 214.587173 182.813213 
L 214.822896 182.261552 
L 214.822896 181.709891 
L 215.058619 181.158229 
L 214.822896 180.602451 
L 214.35145 181.158229 
L 214.35145 182.813213 
L 214.115727 182.813213 
L 214.115727 181.158229 
L 214.115727 181.709891 
L 213.880004 181.709891 
L 213.64428 181.158229 
L 213.880004 181.158229 
L 214.115727 181.709891 
L 214.115727 180.602451 
L 213.880004 179.499128 
L 213.880004 180.05079 
L 214.35145 183.916536 
L 214.35145 183.916536 
L 214.115727 183.364875 
L 213.880004 182.261552 
L 213.880004 181.158229 
L 213.64428 181.158229 
L 213.64428 181.158229 
L 213.880004 181.709891 
L 213.880004 183.364875 
L 214.587173 183.364875 
L 215.058619 182.813213 
L 215.058619 181.709891 
L 214.822896 181.709891 
L 215.058619 181.709891 
L 215.058619 181.158229 
L 214.587173 181.709891 
L 214.35145 182.813213 
L 214.115727 183.364875 
L 214.35145 182.813213 
L 214.822896 182.813213 
L 214.822896 183.364875 
L 214.587173 183.364875 
L 215.765789 183.364875 
L 215.294342 184.468198 
L 214.822896 184.468198 
L 214.587173 185.023976 
L 214.587173 184.468198 
L 214.822896 184.468198 
L 214.822896 184.468198 
L 214.35145 183.364875 
L 213.880004 182.813213 
L 213.64428 182.813213 
L 213.880004 183.364875 
L 214.35145 182.813213 
L 214.587173 182.813213 
L 214.822896 183.916536 
L 214.35145 185.575637 
L 213.880004 186.127299 
L 213.880004 185.575637 
L 214.35145 185.023976 
L 214.822896 185.575637 
L 215.058619 186.67896 
L 215.058619 186.67896 
L 215.058619 186.127299 
L 214.587173 186.127299 
L 214.587173 183.916536 
L 214.822896 182.813213 
L 215.294342 182.813213 
L 215.530066 182.261552 
L 215.530066 182.813213 
L 215.294342 183.916536 
L 215.294342 184.468198 
L 215.058619 184.468198 
L 215.294342 183.364875 
L 216.001512 182.261552 
L 215.765789 181.709891 
L 214.822896 183.916536 
L 215.058619 185.575637 
L 215.294342 186.127299 
L 214.822896 186.127299 
L 213.64428 186.67896 
L 212.229942 187.782283 
L 211.048553 188.338061 
L 209.162768 188.338061 
L 206.569813 188.889723 
L 203.269689 189.993046 
L 191.952205 197.172878 
L 187.237743 199.38364 
L 182.284783 201.038625 
L 177.334598 203.249387 
L 167.902899 209.877558 
L 163.424159 212.088321 
L 158.709696 213.743305 
L 154.228184 215.954067 
L 150.22089 218.160713 
L 145.977874 220.923137 
L 141.97058 223.685561 
L 137.960514 226.999646 
L 133.717497 230.865393 
L 129.238758 234.73114 
L 124.757245 237.493564 
L 113.675484 243.570073 
L 110.37536 246.332497 
L 107.310959 250.749906 
L 103.775112 254.063991 
L 100.000769 256.274754 
L 95.993475 257.929738 
L 92.221905 260.1405 
L 88.686058 262.902924 
L 86.09033 265.661231 
L 81.375868 268.975317 
L 79.018636 271.186079 
L 76.897128 272.289402 
L 75.247066 273.396842 
L 74.304174 273.396842 
L 73.832727 272.845181 
L 74.06845 273.396842 
L 74.539897 273.396842 
L 75.011343 273.948503 
L 75.482789 276.159266 
L 75.718512 275.603488 
L 76.661405 273.948503 
L 78.54719 273.948503 
L 79.018636 273.396842 
L 79.725806 273.396842 
L 80.197252 275.051826 
L 80.197252 277.81425 
L 80.197252 277.262589 
L 80.668698 276.710927 
L 80.904421 277.262589 
L 80.668698 277.81425 
L 80.904421 278.365912 
L 81.375868 277.81425 
L 81.375868 277.81425 
L 81.140145 278.917573 
L 80.668698 281.679997 
L 80.197252 281.679997 
L 79.961529 281.128336 
L 80.197252 280.576674 
L 80.197252 280.576674 
L 80.197252 283.339098 
L 80.432975 284.442421 
L 81.375868 286.101522 
L 81.375868 286.101522 
L 80.904421 286.101522 
L 80.668698 286.653184 
L 80.668698 287.756506 
L 81.140145 287.756506 
L 81.375868 286.653184 
L 81.140145 286.653184 
L 81.140145 287.204845 
L 80.904421 288.308168 
L 80.668698 288.859829 
L 80.432975 288.859829 
L 80.432975 288.308168 
L 80.197252 287.756506 
L 79.961529 287.756506 
L 80.197252 287.756506 
L 80.668698 289.411491 
L 80.904421 291.070592 
L 81.140145 291.622253 
L 81.140145 290.51893 
L 80.668698 289.967269 
L 80.668698 289.967269 
L 80.432975 289.967269 
L 80.668698 289.967269 
L 80.904421 289.411491 
L 80.668698 289.967269 
L 80.668698 292.173915 
L 80.904421 292.173915 
L 80.904421 292.725576 
L 80.668698 292.725576 
L 80.432975 293.281354 
L 79.961529 293.833016 
L 79.725806 294.384677 
L 79.961529 294.384677 
L 80.432975 293.833016 
L 80.668698 293.281354 
L 80.432975 292.725576 
L 79.961529 292.173915 
L 80.432975 292.725576 
L 80.904421 292.725576 
L 81.375868 291.622253 
L 81.140145 292.725576 
L 80.668698 293.281354 
L 80.432975 293.281354 
L 80.432975 292.725576 
L 80.904421 292.725576 
L 81.140145 293.281354 
L 81.140145 293.281354 
L 80.432975 293.281354 
L 80.432975 293.281354 
L 80.904421 293.833016 
L 80.904421 294.384677 
L 80.432975 294.384677 
L 81.375868 293.281354 
L 81.375868 293.833016 
L 80.904421 293.281354 
L 80.668698 293.281354 
L 80.904421 294.384677 
L 81.140145 294.384677 
L 80.904421 293.281354 
L 80.432975 292.173915 
L 80.668698 292.725576 
L 81.375868 295.488 
L 81.140145 294.384677 
L 80.904421 292.725576 
L 80.668698 292.725576 
L 80.432975 293.281354 
L 80.668698 293.833016 
L 80.668698 294.384677 
L 80.668698 294.384677 
L 80.904421 293.833016 
L 80.904421 293.281354 
L 81.140145 293.833016 
L 80.904421 293.281354 
L 80.904421 291.622253 
L 81.140145 293.281354 
L 81.375868 293.833016 
L 81.847314 292.725576 
L 81.847314 291.622253 
L 80.904421 292.725576 
L 81.611591 292.725576 
L 81.611591 293.281354 
L 81.375868 293.281354 
L 81.375868 292.725576 
L 81.847314 292.173915 
L 81.847314 292.725576 
L 81.375868 293.281354 
L 80.904421 292.725576 
L 80.668698 292.725576 
L 80.668698 292.173915 
L 80.904421 291.622253 
L 80.904421 291.070592 
L 79.961529 291.070592 
L 79.725806 291.622253 
L 79.725806 292.173915 
L 79.725806 291.070592 
L 79.961529 290.51893 
L 80.432975 291.070592 
L 80.904421 291.070592 
L 80.668698 290.51893 
L 80.668698 291.070592 
L 81.140145 291.622253 
L 81.375868 291.070592 
L 81.140145 290.51893 
L 80.668698 290.51893 
L 80.668698 289.967269 
L 80.904421 288.859829 
L 80.197252 287.204845 
L 79.725806 287.756506 
L 79.490083 288.308168 
L 80.197252 288.308168 
L 79.490083 288.308168 
L 79.725806 287.756506 
L 80.197252 286.101522 
L 80.432975 286.101522 
L 79.490083 286.101522 
L 79.490083 287.756506 
L 79.490083 287.756506 
L 79.018636 287.756506 
L 78.782913 286.101522 
L 78.782913 284.442421 
L 79.018636 282.231658 
L 78.782913 283.339098 
L 78.782913 284.994082 
L 79.490083 285.545744 
L 80.197252 284.994082 
L 80.197252 284.994082 
L 79.725806 284.994082 
L 79.725806 285.545744 
L 79.725806 284.994082 
L 79.490083 283.89076 
L 79.254359 283.339098 
L 79.018636 284.442421 
L 78.54719 285.545744 
L 78.075744 286.101522 
L 78.311467 284.994082 
L 79.490083 282.231658 
L 79.725806 282.787437 
L 79.490083 283.89076 
L 79.254359 283.89076 
L 79.254359 283.339098 
L 78.782913 282.787437 
L 78.54719 282.231658 
L 78.782913 282.231658 
L 79.254359 282.787437 
L 79.961529 283.339098 
L 81.140145 283.339098 
L 82.554483 281.679997 
L 83.733099 278.365912 
L 85.618884 275.603488 
L 88.450335 273.948503 
L 91.750459 272.289402 
L 94.579137 269.531095 
L 97.172091 266.768671 
L 100.000769 264.006247 
L 103.303666 259.588839 
L 106.839513 255.723092 
L 114.385427 247.987482 
L 117.921274 244.673396 
L 121.221398 240.807649 
L 124.285799 236.390241 
L 127.114476 232.524494 
L 130.18165 228.658748 
L 133.481774 224.237222 
L 136.781898 220.371476 
L 139.846299 217.05739 
L 142.913473 214.294966 
L 145.742151 212.088321 
L 148.099382 209.877558 
L 150.692336 207.666796 
L 153.049568 206.011811 
L 155.406799 203.801049 
L 157.766804 200.486963 
L 159.888312 195.517894 
L 161.774097 192.203808 
L 163.188436 191.652147 
L 164.367052 192.203808 
L 165.309944 189.993046 
L 166.252837 186.67896 
L 166.960006 185.023976 
L 166.960006 185.023976 
L 166.960006 186.67896 
L 166.48856 187.230622 
L 164.367052 187.230622 
L 163.895605 187.782283 
L 163.659882 188.889723 
L 163.188436 189.993046 
L 162.481267 190.544707 
L 162.00982 190.544707 
L 161.302651 189.993046 
L 160.595481 188.889723 
L 159.888312 189.441384 
L 159.416866 191.096369 
L 158.709696 192.203808 
L 158.709696 192.203808 
L 159.416866 193.307131 
L 160.359758 195.517894 
L 160.124035 195.517894 
L 159.888312 194.966232 
L 160.124035 193.307131 
L 159.888312 192.203808 
L 159.181143 192.203808 
L 158.94542 192.75547 
L 158.94542 193.307131 
L 158.709696 193.307131 
L 158.473973 192.75547 
L 158.709696 192.203808 
L 158.94542 192.203808 
L 158.94542 192.75547 
L 158.473973 193.307131 
L 157.531081 193.307131 
L 157.295358 192.203808 
L 157.059634 192.75547 
L 157.531081 193.858793 
L 158.002527 195.517894 
L 158.473973 196.069555 
L 158.709696 195.517894 
L 158.473973 194.966232 
L 157.531081 195.517894 
L 156.588188 196.621216 
L 156.352465 196.621216 
L 156.823911 195.517894 
L 157.531081 195.517894 
L 157.531081 195.517894 
L 157.059634 194.410454 
L 156.823911 194.410454 
L 156.823911 192.75547 
L 157.295358 192.75547 
L 158.002527 193.307131 
L 158.23825 193.858793 
L 156.116742 193.858793 
L 156.116742 194.966232 
L 156.116742 194.966232 
L 156.352465 194.966232 
L 156.588188 194.410454 
L 156.823911 194.410454 
L 156.588188 194.410454 
L 156.352465 194.966232 
L 156.116742 196.069555 
L 156.116742 196.621216 
L 156.352465 196.069555 
L 156.352465 194.966232 
L 156.352465 194.966232 
L 156.116742 194.410454 
L 155.642522 195.517894 
L 155.171076 198.280318 
L 154.935353 197.724539 
L 155.171076 197.724539 
L 155.881019 198.280318 
L 156.352465 198.831979 
L 156.588188 198.831979 
L 155.642522 197.724539 
L 155.642522 196.621216 
L 155.406799 196.621216 
L 155.642522 196.069555 
L 155.406799 196.621216 
L 154.935353 199.935302 
L 154.935353 199.935302 
L 155.406799 199.38364 
L 155.642522 198.280318 
L 156.116742 197.724539 
L 156.116742 197.172878 
L 155.881019 197.172878 
L 155.881019 196.621216 
L 156.116742 197.172878 
L 156.352465 198.280318 
L 156.116742 198.280318 
L 155.406799 196.621216 
L 154.935353 197.172878 
L 154.935353 197.172878 
L 155.171076 196.621216 
L 155.171076 196.621216 
L 155.171076 197.172878 
L 155.406799 197.724539 
L 156.116742 197.724539 
L 156.116742 197.172878 
L 155.406799 197.172878 
L 155.171076 197.724539 
L 154.69963 198.280318 
L 154.69963 198.280318 
L 155.406799 198.280318 
L 155.171076 197.724539 
L 155.171076 197.724539 
L 155.642522 198.280318 
L 156.116742 198.280318 
L 156.116742 197.724539 
L 155.406799 197.724539 
L 155.406799 197.724539 
L 155.881019 196.621216 
L 155.881019 195.517894 
L 155.406799 195.517894 
L 155.406799 195.517894 
L 155.406799 194.966232 
L 155.406799 195.517894 
L 154.935353 198.280318 
L 154.69963 197.724539 
L 154.935353 197.172878 
L 155.406799 197.172878 
L 155.881019 197.724539 
L 155.171076 197.172878 
L 154.935353 197.172878 
L 154.935353 197.172878 
L 154.935353 196.621216 
L 154.228184 196.621216 
L 153.99246 197.172878 
L 154.463907 197.724539 
L 154.935353 197.172878 
L 154.69963 196.621216 
L 154.463907 196.621216 
L 154.69963 196.621216 
L 154.69963 196.069555 
L 154.463907 195.517894 
L 153.99246 194.966232 
L 153.99246 195.517894 
L 154.463907 196.621216 
L 154.463907 196.069555 
L 154.463907 196.069555 
L 154.69963 196.621216 
L 154.935353 196.069555 
L 154.69963 195.517894 
L 154.463907 195.517894 
L 153.521014 196.621216 
L 153.521014 197.172878 
L 153.99246 197.724539 
L 154.228184 197.724539 
L 153.756737 197.172878 
L 153.521014 195.517894 
L 153.521014 196.069555 
L 153.521014 196.621216 
L 153.521014 196.069555 
L 154.463907 196.069555 
L 154.228184 196.621216 
L 153.521014 196.069555 
L 153.285291 195.517894 
L 153.521014 195.517894 
L 153.049568 194.410454 
L 153.285291 193.858793 
L 153.756737 193.307131 
L 155.642522 188.889723 
L 156.352465 186.67896 
L 156.352465 182.813213 
L 156.588188 179.499128 
L 157.059634 175.08172 
L 157.295358 170.660195 
L 157.766804 164.587802 
L 158.002527 159.062954 
L 159.416866 150.224021 
L 159.888312 144.70329 
L 159.652589 138.075119 
L 158.709696 132.550271 
L 158.23825 128.684524 
L 158.002527 124.267116 
L 158.002527 119.845591 
L 157.766804 114.876521 
L 157.059634 109.903335 
L 156.823911 105.485927 
L 157.766804 91.677924 
L 157.531081 88.363838 
L 157.766804 85.049753 
L 158.23825 81.184006 
L 158.473973 77.869921 
L 159.652589 73.452512 
L 159.888312 70.690088 
L 159.652589 67.376003 
L 158.94542 61.851155 
L 159.181143 60.747832 
L 159.416866 57.985408 
L 159.181143 56.330424 
L 158.709696 55.222984 
L 158.473973 55.222984 
L 158.002527 54.671323 
L 157.295358 54.119661 
L 156.588188 54.119661 
L 155.406799 56.882085 
L 154.935353 58.53707 
L 154.228184 58.53707 
L 153.99246 59.644509 
L 154.228184 61.851155 
L 154.463907 62.958595 
L 153.99246 63.510256 
L 153.756737 63.510256 
L 153.99246 63.510256 
L 154.463907 64.061918 
L 154.69963 64.061918 
L 154.69963 64.061918 
L 154.463907 64.613579 
L 153.756737 64.613579 
L 153.285291 63.510256 
L 153.521014 63.510256 
L 153.049568 65.716902 
L 153.049568 65.716902 
L 152.813845 65.16524 
L 152.342398 64.613579 
L 152.106675 64.613579 
L 152.813845 64.061918 
L 153.285291 64.061918 
L 153.049568 64.061918 
L 152.578122 64.613579 
L 152.342398 65.16524 
L 152.106675 66.27268 
L 151.870952 65.716902 
L 151.870952 64.061918 
L 151.399506 63.510256 
L 150.92806 63.510256 
L 150.92806 62.402816 
L 150.92806 62.958595 
L 150.692336 64.061918 
L 150.692336 65.16524 
L 150.92806 66.27268 
L 150.92806 67.376003 
L 150.692336 67.927664 
L 150.22089 66.824342 
L 150.22089 65.16524 
L 150.692336 64.613579 
L 151.163783 65.16524 
L 150.692336 66.27268 
L 150.22089 66.27268 
L 149.985167 66.824342 
L 149.749444 66.824342 
L 149.749444 64.613579 
L 150.456613 64.613579 
L 150.456613 65.16524 
L 149.042274 65.16524 
L 149.042274 67.376003 
L 149.277998 67.927664 
L 149.749444 66.824342 
L 149.513721 67.376003 
L 149.042274 67.376003 
L 148.570828 66.824342 
L 148.806551 66.824342 
L 149.277998 67.376003 
L 149.277998 67.376003 
L 149.042274 67.376003 
L 149.277998 67.927664 
L 147.627936 67.927664 
L 147.627936 67.927664 
L 148.099382 69.030987 
L 148.099382 70.138427 
L 147.863659 70.690088 
L 147.863659 71.24175 
L 148.099382 70.138427 
L 147.627936 67.927664 
L 147.627936 68.479326 
L 147.863659 68.479326 
L 147.627936 69.586766 
L 147.156489 70.690088 
L 147.392213 71.793411 
L 148.099382 71.793411 
L 147.627936 70.690088 
L 147.627936 69.586766 
L 147.392213 69.586766 
L 147.392213 70.138427 
L 147.392213 70.138427 
L 147.156489 70.690088 
L 147.156489 71.24175 
L 147.392213 72.345073 
L 147.627936 72.345073 
L 147.392213 71.793411 
L 146.920766 71.793411 
L 146.920766 71.24175 
L 147.392213 70.690088 
L 147.863659 70.690088 
L 148.099382 71.24175 
L 147.627936 69.030987 
L 147.392213 69.586766 
L 147.392213 72.345073 
L 146.920766 72.900851 
L 146.685043 73.452512 
L 146.685043 73.452512 
L 147.156489 72.900851 
L 147.627936 71.793411 
L 147.627936 72.345073 
L 147.392213 73.452512 
L 147.156489 74.004174 
L 146.920766 74.004174 
L 147.156489 74.004174 
L 147.627936 73.452512 
L 147.392213 73.452512 
L 147.156489 74.004174 
L 146.44932 74.004174 
L 146.920766 74.004174 
L 147.156489 74.555835 
L 147.156489 73.452512 
L 146.920766 71.24175 
L 146.685043 71.793411 
L 146.685043 71.793411 
L 146.685043 72.900851 
L 146.44932 74.004174 
L 146.44932 74.555835 
L 146.44932 72.900851 
L 145.977874 71.793411 
L 146.213597 72.345073 
L 146.213597 71.24175 
L 145.742151 70.690088 
L 145.506427 71.24175 
L 145.742151 71.793411 
L 146.44932 72.345073 
L 146.685043 72.345073 
L 146.44932 72.900851 
L 145.977874 73.452512 
L 145.742151 73.452512 
L 145.742151 73.452512 
L 145.742151 72.900851 
L 145.977874 71.793411 
L 145.742151 71.24175 
L 145.270704 71.793411 
L 145.034981 72.900851 
L 144.799258 73.452512 
L 144.799258 73.452512 
L 144.563535 72.900851 
L 144.799258 71.793411 
L 145.270704 71.24175 
L 145.034981 71.24175 
L 145.034981 70.690088 
L 145.506427 70.690088 
L 145.977874 71.24175 
L 145.977874 71.793411 
L 145.977874 69.030987 
L 145.742151 69.586766 
L 145.506427 70.690088 
L 145.506427 72.345073 
L 145.270704 72.345073 
L 145.270704 70.690088 
L 145.270704 70.690088 
L 145.034981 70.690088 
L 145.742151 72.345073 
L 145.506427 71.793411 
L 145.034981 72.345073 
L 145.034981 72.900851 
L 145.506427 71.793411 
L 144.799258 70.138427 
L 144.799258 71.24175 
L 145.034981 72.900851 
L 145.270704 72.900851 
L 145.270704 70.138427 
L 145.506427 69.586766 
L 145.506427 70.138427 
L 145.034981 70.690088 
L 144.327812 71.793411 
L 144.092089 71.793411 
L 144.563535 71.24175 
L 144.799258 70.690088 
L 144.799258 70.690088 
L 145.034981 71.793411 
L 144.799258 71.793411 
L 144.799258 72.345073 
L 145.034981 72.345073 
L 145.270704 71.793411 
L 145.270704 70.138427 
L 145.034981 69.030987 
L 144.799258 69.030987 
L 145.270704 69.586766 
L 146.213597 70.138427 
L 147.392213 70.690088 
L 148.099382 70.690088 
L 149.513721 69.030987 
L 151.635229 66.824342 
L 156.116742 65.716902 
L 158.473973 64.613579 
L 161.066928 62.958595 
L 163.895605 61.299494 
L 176.155982 56.882085 
L 179.456106 56.882085 
L 186.059127 55.778763 
L 192.659375 53.568 
L 204.684028 53.568 
L 208.691321 54.119661 
L 212.229942 54.119661 
L 215.765789 53.568 
L 227.083273 55.222984 
L 236.747921 56.882085 
L 243.115219 56.882085 
L 249.244021 59.088731 
L 254.904149 60.196171 
L 257.025658 61.851155 
L 258.911443 63.510256 
L 260.561505 65.16524 
L 262.211567 65.716902 
L 263.861629 65.16524 
L 265.511691 64.061918 
L 266.926029 62.958595 
L 268.107418 62.402816 
L 270.936096 63.510256 
L 274.000497 62.402816 
L 275.179112 62.402816 
L 275.650559 62.958595 
L 275.886282 64.061918 
L 276.593451 66.824342 
L 276.593451 67.927664 
L 276.357728 68.479326 
L 276.122005 69.586766 
L 275.414836 71.793411 
L 274.000497 75.107497 
L 272.821881 77.318259 
L 271.643265 77.869921 
L 270.936096 78.973243 
L 270.228927 81.184006 
L 269.286034 82.83899 
L 268.814588 83.394769 
L 268.578865 83.394769 
L 268.343141 83.94643 
L 267.871695 85.601414 
L 267.164526 86.708854 
L 266.690306 86.708854 
L 266.21886 87.260515 
L 265.747414 90.022939 
L 265.040244 90.022939 
L 265.040244 90.574601 
L 264.804521 90.022939 
L 263.861629 90.022939 
L 263.390182 90.574601 
L 263.154459 91.677924 
L 263.390182 92.781246 
L 263.861629 94.440348 
L 263.625905 94.992009 
L 263.390182 94.440348 
L 262.918736 94.992009 
L 262.44729 94.992009 
L 262.44729 96.65111 
L 261.975843 96.65111 
L 261.504397 97.754433 
L 261.504397 98.857756 
L 261.975843 98.857756 
L 261.975843 98.306094 
L 261.504397 98.306094 
L 261.268674 98.857756 
L 261.032951 97.754433 
L 260.797228 97.754433 
L 260.325782 98.306094 
L 260.090058 98.857756 
L 260.325782 99.409417 
L 260.797228 97.202772 
L 261.032951 96.65111 
L 260.797228 97.754433 
L 260.325782 97.754433 
L 259.618612 96.095332 
L 259.147166 95.54367 
L 259.147166 96.095332 
L 258.911443 97.202772 
L 258.911443 98.857756 
L 258.911443 98.306094 
L 259.147166 97.754433 
L 259.382889 97.754433 
L 259.382889 98.857756 
L 259.382889 98.306094 
L 259.147166 97.754433 
L 258.439996 96.65111 
L 257.732827 97.202772 
L 257.497104 97.754433 
L 257.732827 98.306094 
L 258.439996 98.857756 
L 258.439996 98.306094 
L 258.204273 97.754433 
L 258.204273 97.754433 
L 258.204273 98.306094 
L 257.96855 97.754433 
L 257.261381 97.754433 
L 257.025658 97.202772 
L 257.497104 99.409417 
L 257.261381 98.857756 
L 257.025658 97.202772 
L 256.554211 96.65111 
L 256.554211 97.754433 
L 256.789934 98.857756 
L 256.789934 98.857756 
L 256.789934 97.754433 
L 256.554211 97.754433 
L 256.554211 97.202772 
L 256.082765 98.306094 
L 255.611319 98.306094 
L 256.082765 98.306094 
L 256.318488 97.754433 
L 256.318488 96.65111 
L 256.318488 97.202772 
L 256.554211 96.65111 
L 256.318488 96.095332 
L 255.139872 96.095332 
L 254.904149 96.65111 
L 255.139872 97.754433 
L 255.139872 98.306094 
L 254.904149 98.306094 
L 253.961257 97.202772 
L 253.961257 98.306094 
L 254.19698 98.857756 
L 254.668426 98.306094 
L 254.904149 97.754433 
L 254.904149 97.754433 
L 254.19698 97.754433 
L 254.19698 96.095332 
L 253.725534 95.54367 
L 253.48981 96.65111 
L 253.48981 97.754433 
L 253.725534 98.306094 
L 253.961257 98.306094 
L 253.961257 97.754433 
L 254.19698 97.202772 
L 253.961257 96.65111 
L 253.254087 97.754433 
L 253.015591 97.754433 
L 253.254087 96.65111 
L 253.015591 96.095332 
L 252.544145 96.095332 
L 252.072698 96.65111 
L 252.072698 97.202772 
L 252.779868 97.754433 
L 253.48981 97.202772 
L 253.48981 96.095332 
L 253.254087 95.54367 
L 252.779868 96.095332 
L 252.779868 97.754433 
L 253.015591 97.754433 
L 252.544145 97.754433 
L 252.072698 97.202772 
L 252.308422 95.54367 
L 252.779868 94.992009 
L 253.254087 94.992009 
L 253.48981 95.54367 
L 253.48981 97.202772 
L 253.725534 98.306094 
L 253.961257 98.857756 
L 253.725534 98.306094 
L 253.48981 97.202772 
L 253.48981 97.202772 
L 253.48981 97.754433 
L 253.015591 97.754433 
L 253.015591 97.202772 
L 253.015591 97.754433 
L 252.544145 98.306094 
L 252.308422 97.754433 
L 252.544145 96.65111 
L 253.015591 95.54367 
L 252.779868 96.095332 
L 253.254087 99.965196 
L 253.015591 100.516857 
L 252.779868 99.965196 
L 253.015591 98.857756 
L 253.48981 98.857756 
L 253.725534 98.306094 
L 253.48981 97.754433 
L 253.48981 99.409417 
L 253.48981 99.409417 
L 253.254087 98.857756 
L 253.254087 98.857756 
L 253.48981 98.306094 
L 253.48981 97.754433 
L 253.015591 97.754433 
L 252.544145 98.857756 
L 252.779868 99.409417 
L 253.254087 99.409417 
L 253.725534 98.306094 
L 253.725534 97.754433 
L 252.544145 97.754433 
L 253.48981 97.754433 
L 253.48981 99.409417 
L 253.725534 99.965196 
L 253.725534 99.409417 
L 253.48981 98.857756 
L 252.544145 100.516857 
L 252.544145 100.516857 
L 252.544145 99.965196 
L 252.072698 98.857756 
L 252.072698 98.306094 
L 252.072698 98.306094 
L 252.544145 98.306094 
L 252.544145 99.409417 
L 252.308422 99.409417 
L 252.308422 98.857756 
L 253.015591 98.857756 
L 253.48981 98.306094 
L 253.015591 98.306094 
L 253.015591 97.754433 
L 252.779868 97.202772 
L 252.072698 97.202772 
L 251.836975 97.754433 
L 251.836975 98.857756 
L 252.308422 99.965196 
L 252.544145 101.068518 
L 252.779868 100.516857 
L 253.015591 100.516857 
L 252.308422 100.516857 
L 251.601252 99.965196 
L 250.65836 99.409417 
L 249.715467 99.965196 
L 248.065405 102.171841 
L 245.708174 103.279281 
L 243.115219 104.934265 
L 240.286542 106.037588 
L 234.154967 107.145028 
L 231.326289 109.351673 
L 228.026165 112.114097 
L 224.016099 114.876521 
L 220.008805 118.742268 
L 216.001512 123.715455 
L 211.284276 128.684524 
L 206.33409 132.550271 
L 201.383904 135.864357 
L 196.902391 139.730103 
L 187.944912 150.224021 
L 183.937619 154.093885 
L 176.391705 160.717939 
L 165.781391 170.660195 
L 158.23825 178.395805 
L 154.69963 182.813213 
L 151.870952 186.127299 
L 149.277998 189.441384 
L 145.977874 192.75547 
L 141.732084 196.621216 
L 137.960514 200.486963 
L 134.424667 204.35271 
L 131.124543 207.115134 
L 128.060142 208.774235 
L 125.464414 210.980881 
L 123.107183 213.191643 
L 120.985675 215.402406 
L 118.39272 216.505729 
L 115.328319 218.160713 
L 112.496868 219.268153 
L 110.611083 220.371476 
L 108.961021 220.923137 
L 107.546682 220.923137 
L 106.132344 221.474798 
L 104.953728 223.1339 
L 104.246559 225.344662 
L 104.246559 226.447985 
L 104.010835 226.999646 
L 103.775112 228.102969 
L 104.246559 228.658748 
L 104.482282 228.102969 
L 104.718005 228.102969 
L 104.953728 228.658748 
L 104.953728 229.76207 
L 105.189451 230.313732 
L 105.660897 230.865393 
L 106.368067 230.865393 
L 106.839513 230.313732 
L 107.075236 230.313732 
L 107.075236 231.972833 
L 106.60379 233.076156 
L 106.60379 233.627817 
L 106.60379 233.076156 
L 105.896621 234.73114 
L 105.425174 235.282801 
L 104.953728 234.179479 
L 104.718005 235.282801 
L 104.482282 235.83858 
L 104.953728 236.390241 
L 104.953728 236.390241 
L 104.482282 236.941903 
L 104.246559 237.493564 
L 104.010835 237.493564 
L 104.010835 238.045225 
L 104.010835 236.941903 
L 104.246559 237.493564 
L 104.246559 238.596887 
L 104.010835 239.152665 
L 103.303666 239.152665 
L 103.539389 239.152665 
L 104.246559 239.704327 
L 104.482282 239.704327 
L 104.010835 239.704327 
L 103.775112 240.255988 
L 103.539389 241.359311 
L 103.539389 241.910972 
L 103.775112 242.466751 
L 103.775112 241.910972 
L 103.539389 241.359311 
L 103.303666 241.910972 
L 103.303666 243.018412 
L 103.303666 243.018412 
L 102.596497 241.359311 
L 102.596497 241.359311 
L 102.360773 241.910972 
L 102.12505 243.018412 
L 102.596497 244.673396 
L 102.596497 245.225058 
L 102.596497 244.673396 
L 102.360773 244.121735 
L 102.360773 243.018412 
L 102.83222 241.910972 
L 103.067943 241.910972 
L 102.596497 243.018412 
L 102.596497 243.018412 
L 102.596497 241.910972 
L 102.12505 241.910972 
L 101.889327 242.466751 
L 101.889327 243.570073 
L 101.889327 243.018412 
L 102.12505 242.466751 
L 102.596497 243.018412 
L 102.596497 245.780836 
L 102.83222 245.780836 
L 103.067943 244.673396 
L 102.83222 243.570073 
L 102.360773 242.466751 
L 101.889327 242.466751 
L 103.303666 242.466751 
L 102.83222 244.673396 
L 102.83222 245.225058 
L 102.83222 244.121735 
L 102.360773 244.121735 
L 102.12505 246.332497 
L 101.417881 247.43582 
L 101.417881 247.987482 
L 101.889327 247.43582 
L 103.539389 247.43582 
L 103.303666 246.884159 
L 102.83222 246.332497 
L 102.360773 246.332497 
L 101.182158 249.094921 
L 101.417881 249.646583 
L 102.12505 249.646583 
L 102.596497 249.094921 
L 101.889327 249.094921 
L 101.417881 248.539143 
L 101.417881 247.987482 
L 101.889327 248.539143 
L 102.83222 250.198244 
L 102.360773 251.301567 
L 102.360773 250.198244 
L 102.12505 250.198244 
L 101.182158 251.853228 
L 101.182158 251.301567 
L 102.12505 249.646583 
L 102.12505 249.646583 
L 101.653604 250.198244 
L 101.417881 249.646583 
L 102.360773 248.539143 
L 102.83222 251.853228 
L 102.83222 251.853228 
L 102.360773 251.301567 
L 102.83222 251.853228 
L 103.067943 252.409007 
L 101.889327 252.409007 
L 101.889327 252.960668 
L 102.12505 252.960668 
L 102.12505 251.853228 
L 102.360773 251.301567 
L 102.596497 252.409007 
L 103.067943 254.063991 
L 103.067943 254.063991 
L 103.067943 251.301567 
L 103.303666 251.853228 
L 103.303666 253.51233 
L 103.303666 253.51233 
L 102.83222 253.51233 
L 101.889327 254.063991 
L 101.653604 254.615652 
L 102.360773 252.960668 
L 102.360773 253.51233 
L 102.12505 255.167314 
L 101.653604 254.615652 
L 101.417881 253.51233 
L 101.653604 252.960668 
L 102.12505 252.960668 
L 101.889327 252.960668 
L 101.889327 252.409007 
L 101.653604 252.409007 
L 101.653604 252.409007 
L 102.596497 251.301567 
L 102.596497 250.749906 
L 101.889327 252.409007 
L 101.889327 254.615652 
L 101.417881 254.615652 
L 101.182158 254.063991 
L 101.182158 253.51233 
L 100.474988 253.51233 
L 98.58643 254.615652 
L 96.700645 259.037178 
L 95.050583 260.692162 
L 90.807566 261.795485 
L 88.686058 261.795485 
L 87.271719 263.454586 
L 85.854607 265.661231 
L 84.204545 267.320333 
L 80.668698 268.423655 
L 79.254359 268.423655 
L 78.311467 268.975317 
L 77.604297 270.082757 
L 77.368574 271.186079 
L 77.368574 271.186079 
L 77.840021 270.082757 
L 78.075744 268.423655 
L 78.54719 268.423655 
L 79.018636 268.975317 
L 79.490083 268.975317 
L 79.725806 267.871994 
L 79.725806 267.320333 
L 79.725806 267.871994 
L 80.432975 268.423655 
L 81.140145 268.423655 
L 81.375868 267.871994 
L 81.140145 267.871994 
L 81.375868 267.320333 
L 81.847314 267.320333 
L 82.083037 266.768671 
L 81.375868 266.768671 
L 80.904421 267.320333 
L 81.611591 267.320333 
L 81.375868 266.768671 
L 80.668698 266.768671 
L 80.668698 267.871994 
L 80.904421 268.423655 
L 80.904421 268.975317 
L 80.668698 267.871994 
L 80.668698 266.768671 
L 80.668698 266.768671 
L 80.904421 267.320333 
L 81.375868 267.320333 
L 81.847314 266.768671 
L 82.083037 266.21701 
L 82.083037 266.21701 
L 82.31876 266.21701 
L 82.31876 267.320333 
L 81.847314 268.975317 
L 82.083037 271.186079 
L 81.847314 271.186079 
L 81.847314 268.975317 
L 81.847314 268.975317 
L 81.611591 269.531095 
L 82.083037 269.531095 
L 82.554483 270.082757 
L 82.790207 271.186079 
L 82.554483 271.737741 
L 82.554483 271.186079 
L 82.790207 270.082757 
L 82.790207 269.531095 
L 82.31876 268.423655 
L 81.611591 268.975317 
L 81.375868 271.186079 
L 81.847314 270.634418 
L 81.847314 270.082757 
L 81.611591 270.082757 
L 81.847314 270.082757 
L 81.847314 269.531095 
L 81.611591 268.423655 
L 81.611591 267.871994 
L 81.847314 268.975317 
L 81.847314 269.531095 
L 81.847314 269.531095 
L 82.31876 268.975317 
L 83.02593 269.531095 
L 82.790207 270.082757 
L 82.554483 270.082757 
L 82.31876 269.531095 
L 82.31876 270.082757 
L 82.31876 270.082757 
L 82.083037 268.975317 
L 82.083037 268.423655 
L 82.31876 268.975317 
L 81.847314 269.531095 
L 81.847314 269.531095 
L 82.790207 269.531095 
L 82.790207 268.423655 
L 82.083037 267.871994 
L 81.375868 268.423655 
L 80.904421 268.423655 
L 80.668698 268.975317 
L 81.140145 270.082757 
L 81.611591 270.082757 
L 81.847314 268.975317 
L 82.31876 268.423655 
L 82.31876 268.423655 
L 82.31876 268.975317 
L 82.31876 268.975317 
L 82.554483 269.531095 
L 82.083037 268.423655 
L 81.611591 267.871994 
L 81.611591 267.320333 
L 81.847314 267.320333 
L 82.083037 266.768671 
L 82.31876 266.768671 
L 82.554483 267.320333 
L 82.31876 267.871994 
L 81.847314 267.871994 
L 82.083037 267.871994 
L 82.554483 268.423655 
L 83.02593 268.423655 
L 82.554483 267.320333 
L 82.790207 267.320333 
L 83.02593 267.871994 
L 82.554483 268.975317 
L 81.847314 268.423655 
L 81.611591 267.320333 
L 81.847314 266.21701 
L 82.083037 266.768671 
L 82.790207 269.531095 
L 81.375868 269.531095 
L 81.847314 268.975317 
L 82.554483 267.871994 
L 82.554483 267.871994 
L 82.31876 267.871994 
L 82.31876 267.320333 
L 82.790207 266.768671 
L 83.261653 266.768671 
L 83.261653 267.320333 
L 83.02593 267.320333 
L 83.261653 267.320333 
L 83.261653 266.768671 
L 83.261653 267.320333 
L 83.02593 268.975317 
L 82.790207 269.531095 
L 83.02593 270.082757 
L 83.497376 269.531095 
L 83.261653 269.531095 
L 82.790207 268.975317 
L 82.790207 268.975317 
L 83.02593 270.082757 
L 83.261653 269.531095 
L 82.790207 269.531095 
L 83.261653 269.531095 
L 83.261653 268.975317 
L 83.02593 268.423655 
L 83.261653 268.975317 
L 83.497376 268.423655 
L 83.968822 267.871994 
L 84.204545 267.320333 
L 84.204545 267.320333 
L 83.497376 267.320333 
L 82.790207 266.21701 
L 82.31876 266.768671 
L 82.083037 268.975317 
L 82.083037 270.082757 
L 82.31876 269.531095 
L 82.790207 269.531095 
L 83.02593 268.423655 
L 83.497376 267.871994 
L 83.497376 267.871994 
L 83.261653 268.423655 
L 82.790207 268.423655 
L 83.497376 266.768671 
L 83.497376 266.768671 
L 83.497376 267.320333 
L 83.261653 267.871994 
L 83.261653 267.871994 
L 83.261653 268.423655 
L 83.968822 268.423655 
L 84.440268 267.871994 
L 84.204545 267.320333 
L 83.733099 266.768671 
L 83.497376 266.21701 
L 84.204545 266.768671 
L 84.911715 268.423655 
L 84.911715 268.423655 
L 84.204545 268.423655 
L 84.440268 268.423655 
L 83.733099 267.871994 
L 83.261653 267.320333 
L 83.02593 267.320333 
L 83.497376 267.871994 
L 84.440268 267.871994 
L 85.383161 267.320333 
L 86.09033 266.21701 
L 87.035996 265.10957 
L 87.978889 264.557909 
L 89.393228 263.454586 
L 91.750459 262.347146 
L 94.579137 260.692162 
L 97.407814 259.588839 
L 100.474988 257.378076 
L 104.010835 254.615652 
L 108.253852 251.853228 
L 112.732592 248.539143 
L 117.449828 245.225058 
L 121.928567 241.910972 
L 126.407307 239.152665 
L 131.124543 236.941903 
L 136.546175 233.076156 
L 141.97058 228.102969 
L 146.920766 223.1339 
L 156.352465 215.402406 
L 161.538374 212.639982 
L 167.195729 209.877558 
L 172.148688 206.563473 
L 177.098874 202.697726 
L 181.813337 199.38364 
L 186.29485 196.621216 
L 191.245036 194.966232 
L 196.195222 191.652147 
L 201.148181 187.782283 
L 205.391197 185.575637 
L 209.398491 183.364875 
L 213.64428 182.261552 
L 217.887297 180.05079 
L 222.130313 176.736704 
L 226.14038 172.870957 
L 233.212074 168.453549 
L 239.815095 162.928701 
L 243.350942 160.717939 
L 246.415343 159.062954 
L 248.772575 156.30053 
L 250.894083 153.538106 
L 253.015591 151.883122 
L 254.668426 151.331461 
L 255.611319 151.331461 
L 256.318488 150.224021 
L 256.789934 149.120698 
L 256.789934 147.465714 
L 256.554211 146.358274 
L 255.139872 148.017375 
L 254.432703 149.67236 
L 253.725534 149.67236 
L 252.544145 149.120698 
L 251.601252 149.120698 
L 250.894083 150.224021 
L 250.422636 151.331461 
L 249.479744 152.434784 
L 248.772575 152.434784 
L 248.301128 152.986445 
L 248.301128 152.986445 
L 248.065405 153.538106 
L 247.829682 153.538106 
L 246.651066 150.779799 
L 246.886789 150.779799 
L 246.886789 152.434784 
L 246.886789 152.434784 
L 246.651066 152.434784 
L 246.651066 151.331461 
L 246.415343 150.779799 
L 245.708174 150.224021 
L 245.236727 150.779799 
L 245.236727 150.779799 
L 245.472451 151.331461 
L 245.708174 151.331461 
L 245.236727 150.779799 
L 244.058112 148.017375 
L 243.586665 148.017375 
L 243.115219 148.569037 
L 243.115219 149.120698 
L 243.586665 149.120698 
L 244.058112 149.67236 
L 244.058112 149.67236 
L 243.586665 149.67236 
L 242.643773 147.465714 
L 242.879496 146.909936 
L 242.879496 145.806613 
L 242.643773 145.254951 
L 242.172327 145.254951 
L 241.936603 145.806613 
L 240.993711 145.806613 
L 240.522265 146.358274 
L 240.757988 146.358274 
L 241.465157 145.806613 
L 241.70088 145.806613 
L 240.757988 145.806613 
L 240.522265 145.254951 
L 240.522265 144.151628 
L 240.522265 144.151628 
L 240.050818 143.044189 
L 239.815095 143.044189 
L 239.815095 144.70329 
L 240.286542 144.151628 
L 240.286542 143.59585 
L 239.815095 142.492527 
L 238.869429 142.492527 
L 238.397983 143.044189 
L 238.16226 143.59585 
L 238.16226 143.59585 
L 238.397983 143.59585 
L 239.105153 143.044189 
L 239.579372 142.492527 
L 239.579372 142.492527 
L 238.869429 142.492527 
L 238.397983 141.940866 
L 238.397983 141.940866 
L 238.633706 141.940866 
L 238.633706 142.492527 
L 238.16226 141.940866 
L 237.926537 142.492527 
L 237.455091 143.044189 
L 237.455091 143.044189 
L 237.455091 141.940866 
L 237.690814 141.940866 
L 237.926537 140.837543 
L 237.690814 139.730103 
L 237.690814 138.626781 
L 237.455091 138.626781 
L 236.983644 140.837543 
L 237.219368 141.389204 
L 237.219368 141.389204 
L 237.690814 141.389204 
L 238.16226 140.837543 
L 238.16226 139.178442 
L 237.926537 138.075119 
L 237.455091 138.075119 
L 236.983644 139.178442 
L 236.747921 140.281765 
L 236.747921 141.389204 
L 236.983644 141.940866 
L 237.219368 140.837543 
L 237.219368 137.523458 
L 237.219368 138.626781 
L 236.983644 139.730103 
L 236.747921 140.281765 
L 236.512198 140.281765 
L 236.747921 139.178442 
L 236.983644 138.626781 
L 236.983644 138.626781 
L 236.747921 138.626781 
L 236.512198 136.967679 
L 236.983644 136.416018 
L 237.219368 136.967679 
L 236.512198 138.075119 
L 235.569306 139.178442 
L 235.333582 139.178442 
L 235.333582 138.626781 
L 235.805029 139.178442 
L 236.040752 139.178442 
L 236.276475 138.626781 
L 236.040752 139.178442 
" style="fill:none;stroke:#1f77b4;stroke-linecap:square;stroke-width:1.5;"/>
   </g>
   <g id="matplotlib.axis_1">
    <g id="xtick_1">
     <g id="line2d_2">
      <defs>
       <path d="M 0 0 
L 0 3.5 
" id="m9fb2bc5429" style="stroke:#000000;stroke-width:0.8;"/>
      </defs>
      <g>
       <use style="stroke:#000000;stroke-width:0.8;" x="82.77634" xlink:href="#m9fb2bc5429" y="307.584"/>
      </g>
     </g>
     <g id="text_1">
      <!-- −400 -->
      <defs>
       <path d="M 10.59375 35.5 
L 73.1875 35.5 
L 73.1875 27.203125 
L 10.59375 27.203125 
z
" id="DejaVuSans-8722"/>
       <path d="M 37.796875 64.3125 
L 12.890625 25.390625 
L 37.796875 25.390625 
z
M 35.203125 72.90625 
L 47.609375 72.90625 
L 47.609375 25.390625 
L 58.015625 25.390625 
L 58.015625 17.1875 
L 47.609375 17.1875 
L 47.609375 0 
L 37.796875 0 
L 37.796875 17.1875 
L 4.890625 17.1875 
L 4.890625 26.703125 
z
" id="DejaVuSans-52"/>
       <path d="M 31.78125 66.40625 
Q 24.171875 66.40625 20.328125 58.90625 
Q 16.5 51.421875 16.5 36.375 
Q 16.5 21.390625 20.328125 13.890625 
Q 24.171875 6.390625 31.78125 6.390625 
Q 39.453125 6.390625 43.28125 13.890625 
Q 47.125 21.390625 47.125 36.375 
Q 47.125 51.421875 43.28125 58.90625 
Q 39.453125 66.40625 31.78125 66.40625 
z
M 31.78125 74.21875 
Q 44.046875 74.21875 50.515625 64.515625 
Q 56.984375 54.828125 56.984375 36.375 
Q 56.984375 17.96875 50.515625 8.265625 
Q 44.046875 -1.421875 31.78125 -1.421875 
Q 19.53125 -1.421875 13.0625 8.265625 
Q 6.59375 17.96875 6.59375 36.375 
Q 6.59375 54.828125 13.0625 64.515625 
Q 19.53125 74.21875 31.78125 74.21875 
z
" id="DejaVuSans-48"/>
      </defs>
      <g transform="translate(69.042747 322.182437)scale(0.1 -0.1)">
       <use xlink:href="#DejaVuSans-8722"/>
       <use x="83.789062" xlink:href="#DejaVuSans-52"/>
       <use x="147.412109" xlink:href="#DejaVuSans-48"/>
       <use x="211.035156" xlink:href="#DejaVuSans-48"/>
      </g>
     </g>
    </g>
    <g id="xtick_2">
     <g id="line2d_3">
      <g>
       <use style="stroke:#000000;stroke-width:0.8;" x="138.240608" xlink:href="#m9fb2bc5429" y="307.584"/>
      </g>
     </g>
     <g id="text_2">
      <!-- −200 -->
      <defs>
       <path d="M 19.1875 8.296875 
L 53.609375 8.296875 
L 53.609375 0 
L 7.328125 0 
L 7.328125 8.296875 
Q 12.9375 14.109375 22.625 23.890625 
Q 32.328125 33.6875 34.8125 36.53125 
Q 39.546875 41.84375 41.421875 45.53125 
Q 43.3125 49.21875 43.3125 52.78125 
Q 43.3125 58.59375 39.234375 62.25 
Q 35.15625 65.921875 28.609375 65.921875 
Q 23.96875 65.921875 18.8125 64.3125 
Q 13.671875 62.703125 7.8125 59.421875 
L 7.8125 69.390625 
Q 13.765625 71.78125 18.9375 73 
Q 24.125 74.21875 28.421875 74.21875 
Q 39.75 74.21875 46.484375 68.546875 
Q 53.21875 62.890625 53.21875 53.421875 
Q 53.21875 48.921875 51.53125 44.890625 
Q 49.859375 40.875 45.40625 35.40625 
Q 44.1875 33.984375 37.640625 27.21875 
Q 31.109375 20.453125 19.1875 8.296875 
z
" id="DejaVuSans-50"/>
      </defs>
      <g transform="translate(124.507015 322.182437)scale(0.1 -0.1)">
       <use xlink:href="#DejaVuSans-8722"/>
       <use x="83.789062" xlink:href="#DejaVuSans-50"/>
       <use x="147.412109" xlink:href="#DejaVuSans-48"/>
       <use x="211.035156" xlink:href="#DejaVuSans-48"/>
      </g>
     </g>
    </g>
    <g id="xtick_3">
     <g id="line2d_4">
      <g>
       <use style="stroke:#000000;stroke-width:0.8;" x="193.704876" xlink:href="#m9fb2bc5429" y="307.584"/>
      </g>
     </g>
     <g id="text_3">
      <!-- 0 -->
      <g transform="translate(190.523626 322.182437)scale(0.1 -0.1)">
       <use xlink:href="#DejaVuSans-48"/>
      </g>
     </g>
    </g>
    <g id="xtick_4">
     <g id="line2d_5">
      <g>
       <use style="stroke:#000000;stroke-width:0.8;" x="249.169144" xlink:href="#m9fb2bc5429" y="307.584"/>
      </g>
     </g>
     <g id="text_4">
      <!-- 200 -->
      <g transform="translate(239.625394 322.182437)scale(0.1 -0.1)">
       <use xlink:href="#DejaVuSans-50"/>
       <use x="63.623047" xlink:href="#DejaVuSans-48"/>
       <use x="127.246094" xlink:href="#DejaVuSans-48"/>
      </g>
     </g>
    </g>
    <g id="xtick_5">
     <g id="line2d_6">
      <g>
       <use style="stroke:#000000;stroke-width:0.8;" x="304.633412" xlink:href="#m9fb2bc5429" y="307.584"/>
      </g>
     </g>
     <g id="text_5">
      <!-- 400 -->
      <g transform="translate(295.089662 322.182437)scale(0.1 -0.1)">
       <use xlink:href="#DejaVuSans-52"/>
       <use x="63.623047" xlink:href="#DejaVuSans-48"/>
       <use x="127.246094" xlink:href="#DejaVuSans-48"/>
      </g>
     </g>
    </g>
    <g id="xtick_6">
     <g id="line2d_7">
      <g>
       <use style="stroke:#000000;stroke-width:0.8;" x="360.09768" xlink:href="#m9fb2bc5429" y="307.584"/>
      </g>
     </g>
     <g id="text_6">
      <!-- 600 -->
      <defs>
       <path d="M 33.015625 40.375 
Q 26.375 40.375 22.484375 35.828125 
Q 18.609375 31.296875 18.609375 23.390625 
Q 18.609375 15.53125 22.484375 10.953125 
Q 26.375 6.390625 33.015625 6.390625 
Q 39.65625 6.390625 43.53125 10.953125 
Q 47.40625 15.53125 47.40625 23.390625 
Q 47.40625 31.296875 43.53125 35.828125 
Q 39.65625 40.375 33.015625 40.375 
z
M 52.59375 71.296875 
L 52.59375 62.3125 
Q 48.875 64.0625 45.09375 64.984375 
Q 41.3125 65.921875 37.59375 65.921875 
Q 27.828125 65.921875 22.671875 59.328125 
Q 17.53125 52.734375 16.796875 39.40625 
Q 19.671875 43.65625 24.015625 45.921875 
Q 28.375 48.1875 33.59375 48.1875 
Q 44.578125 48.1875 50.953125 41.515625 
Q 57.328125 34.859375 57.328125 23.390625 
Q 57.328125 12.15625 50.6875 5.359375 
Q 44.046875 -1.421875 33.015625 -1.421875 
Q 20.359375 -1.421875 13.671875 8.265625 
Q 6.984375 17.96875 6.984375 36.375 
Q 6.984375 53.65625 15.1875 63.9375 
Q 23.390625 74.21875 37.203125 74.21875 
Q 40.921875 74.21875 44.703125 73.484375 
Q 48.484375 72.75 52.59375 71.296875 
z
" id="DejaVuSans-54"/>
      </defs>
      <g transform="translate(350.55393 322.182437)scale(0.1 -0.1)">
       <use xlink:href="#DejaVuSans-54"/>
       <use x="63.623047" xlink:href="#DejaVuSans-48"/>
       <use x="127.246094" xlink:href="#DejaVuSans-48"/>
      </g>
     </g>
    </g>
   </g>
   <g id="matplotlib.axis_2">
    <g id="ytick_1">
     <g id="line2d_8">
      <defs>
       <path d="M 0 0 
L -3.5 0 
" id="mc390ee8a31" style="stroke:#000000;stroke-width:0.8;"/>
      </defs>
      <g>
       <use style="stroke:#000000;stroke-width:0.8;" x="57.6" xlink:href="#mc390ee8a31" y="281.276543"/>
      </g>
     </g>
     <g id="text_7">
      <!-- −400 -->
      <g transform="translate(23.132812 285.075762)scale(0.1 -0.1)">
       <use xlink:href="#DejaVuSans-8722"/>
       <use x="83.789062" xlink:href="#DejaVuSans-52"/>
       <use x="147.412109" xlink:href="#DejaVuSans-48"/>
       <use x="211.035156" xlink:href="#DejaVuSans-48"/>
      </g>
     </g>
    </g>
    <g id="ytick_2">
     <g id="line2d_9">
      <g>
       <use style="stroke:#000000;stroke-width:0.8;" x="57.6" xlink:href="#mc390ee8a31" y="240.10778"/>
      </g>
     </g>
     <g id="text_8">
      <!-- −300 -->
      <defs>
       <path d="M 40.578125 39.3125 
Q 47.65625 37.796875 51.625 33 
Q 55.609375 28.21875 55.609375 21.1875 
Q 55.609375 10.40625 48.1875 4.484375 
Q 40.765625 -1.421875 27.09375 -1.421875 
Q 22.515625 -1.421875 17.65625 -0.515625 
Q 12.796875 0.390625 7.625 2.203125 
L 7.625 11.71875 
Q 11.71875 9.328125 16.59375 8.109375 
Q 21.484375 6.890625 26.8125 6.890625 
Q 36.078125 6.890625 40.9375 10.546875 
Q 45.796875 14.203125 45.796875 21.1875 
Q 45.796875 27.640625 41.28125 31.265625 
Q 36.765625 34.90625 28.71875 34.90625 
L 20.21875 34.90625 
L 20.21875 43.015625 
L 29.109375 43.015625 
Q 36.375 43.015625 40.234375 45.921875 
Q 44.09375 48.828125 44.09375 54.296875 
Q 44.09375 59.90625 40.109375 62.90625 
Q 36.140625 65.921875 28.71875 65.921875 
Q 24.65625 65.921875 20.015625 65.03125 
Q 15.375 64.15625 9.8125 62.3125 
L 9.8125 71.09375 
Q 15.4375 72.65625 20.34375 73.4375 
Q 25.25 74.21875 29.59375 74.21875 
Q 40.828125 74.21875 47.359375 69.109375 
Q 53.90625 64.015625 53.90625 55.328125 
Q 53.90625 49.265625 50.4375 45.09375 
Q 46.96875 40.921875 40.578125 39.3125 
z
" id="DejaVuSans-51"/>
      </defs>
      <g transform="translate(23.132812 243.906999)scale(0.1 -0.1)">
       <use xlink:href="#DejaVuSans-8722"/>
       <use x="83.789062" xlink:href="#DejaVuSans-51"/>
       <use x="147.412109" xlink:href="#DejaVuSans-48"/>
       <use x="211.035156" xlink:href="#DejaVuSans-48"/>
      </g>
     </g>
    </g>
    <g id="ytick_3">
     <g id="line2d_10">
      <g>
       <use style="stroke:#000000;stroke-width:0.8;" x="57.6" xlink:href="#mc390ee8a31" y="198.939018"/>
      </g>
     </g>
     <g id="text_9">
      <!-- −200 -->
      <g transform="translate(23.132812 202.738237)scale(0.1 -0.1)">
       <use xlink:href="#DejaVuSans-8722"/>
       <use x="83.789062" xlink:href="#DejaVuSans-50"/>
       <use x="147.412109" xlink:href="#DejaVuSans-48"/>
       <use x="211.035156" xlink:href="#DejaVuSans-48"/>
      </g>
     </g>
    </g>
    <g id="ytick_4">
     <g id="line2d_11">
      <g>
       <use style="stroke:#000000;stroke-width:0.8;" x="57.6" xlink:href="#mc390ee8a31" y="157.770255"/>
      </g>
     </g>
     <g id="text_10">
      <!-- −100 -->
      <defs>
       <path d="M 12.40625 8.296875 
L 28.515625 8.296875 
L 28.515625 63.921875 
L 10.984375 60.40625 
L 10.984375 69.390625 
L 28.421875 72.90625 
L 38.28125 72.90625 
L 38.28125 8.296875 
L 54.390625 8.296875 
L 54.390625 0 
L 12.40625 0 
z
" id="DejaVuSans-49"/>
      </defs>
      <g transform="translate(23.132812 161.569474)scale(0.1 -0.1)">
       <use xlink:href="#DejaVuSans-8722"/>
       <use x="83.789062" xlink:href="#DejaVuSans-49"/>
       <use x="147.412109" xlink:href="#DejaVuSans-48"/>
       <use x="211.035156" xlink:href="#DejaVuSans-48"/>
      </g>
     </g>
    </g>
    <g id="ytick_5">
     <g id="line2d_12">
      <g>
       <use style="stroke:#000000;stroke-width:0.8;" x="57.6" xlink:href="#mc390ee8a31" y="116.601493"/>
      </g>
     </g>
     <g id="text_11">
      <!-- 0 -->
      <g transform="translate(44.2375 120.400711)scale(0.1 -0.1)">
       <use xlink:href="#DejaVuSans-48"/>
      </g>
     </g>
    </g>
    <g id="ytick_6">
     <g id="line2d_13">
      <g>
       <use style="stroke:#000000;stroke-width:0.8;" x="57.6" xlink:href="#mc390ee8a31" y="75.43273"/>
      </g>
     </g>
     <g id="text_12">
      <!-- 100 -->
      <g transform="translate(31.5125 79.231949)scale(0.1 -0.1)">
       <use xlink:href="#DejaVuSans-49"/>
       <use x="63.623047" xlink:href="#DejaVuSans-48"/>
       <use x="127.246094" xlink:href="#DejaVuSans-48"/>
      </g>
     </g>
    </g>
   </g>
   <g id="line2d_14">
    <path clip-path="url(#p75657380c6)" d="M 394.276564 114.661679 
L 218.919525 171.686106 
L 210.026686 185.843605 
L 82.516965 284.250799 
L 156.105859 195.455203 
L 149.686067 71.644832 
L 257.002337 92.311827 
L 105.297312 238.950887 
L 87.463322 264.65655 
L 241.003176 147.168104 
" style="fill:none;stroke:#ff0000;stroke-linecap:square;stroke-width:0.5;"/>
   </g>
   <g id="patch_3">
    <path d="M 57.6 307.584 
L 57.6 41.472 
" style="fill:none;stroke:#000000;stroke-linecap:square;stroke-linejoin:miter;stroke-width:0.8;"/>
   </g>
   <g id="patch_4">
    <path d="M 414.72 307.584 
L 414.72 41.472 
" style="fill:none;stroke:#000000;stroke-linecap:square;stroke-linejoin:miter;stroke-width:0.8;"/>
   </g>
   <g id="patch_5">
    <path d="M 57.6 307.584 
L 414.72 307.584 
" style="fill:none;stroke:#000000;stroke-linecap:square;stroke-linejoin:miter;stroke-width:0.8;"/>
   </g>
   <g id="patch_6">
    <path d="M 57.6 41.472 
L 414.72 41.472 
" style="fill:none;stroke:#000000;stroke-linecap:square;stroke-linejoin:miter;stroke-width:0.8;"/>
   </g>
   <g id="PathCollection_1">
    <defs>
     <path d="M 0 2.738613 
C 0.726289 2.738613 1.422928 2.450055 1.936492 1.936492 
C 2.450055 1.422928 2.738613 0.726289 2.738613 0 
C 2.738613 -0.726289 2.450055 -1.422928 1.936492 -1.936492 
C 1.422928 -2.450055 0.726289 -2.738613 0 -2.738613 
C -0.726289 -2.738613 -1.422928 -2.450055 -1.936492 -1.936492 
C -2.450055 -1.422928 -2.738613 -0.726289 -2.738613 0 
C -2.738613 0.726289 -2.450055 1.422928 -1.936492 1.936492 
C -1.422928 2.450055 -0.726289 2.738613 0 2.738613 
z
" id="mf433da4c26" style="stroke:#ff0000;"/>
    </defs>
    <g clip-path="url(#p75657380c6)">
     <use style="fill:#ff0000;stroke:#ff0000;" x="394.276564" xlink:href="#mf433da4c26" y="114.661679"/>
     <use style="fill:#ff0000;stroke:#ff0000;" x="218.919525" xlink:href="#mf433da4c26" y="171.686106"/>
     <use style="fill:#ff0000;stroke:#ff0000;" x="210.026686" xlink:href="#mf433da4c26" y="185.843605"/>
     <use style="fill:#ff0000;stroke:#ff0000;" x="82.516965" xlink:href="#mf433da4c26" y="284.250799"/>
     <use style="fill:#ff0000;stroke:#ff0000;" x="156.105859" xlink:href="#mf433da4c26" y="195.455203"/>
     <use style="fill:#ff0000;stroke:#ff0000;" x="149.686067" xlink:href="#mf433da4c26" y="71.644832"/>
     <use style="fill:#ff0000;stroke:#ff0000;" x="257.002337" xlink:href="#mf433da4c26" y="92.311827"/>
     <use style="fill:#ff0000;stroke:#ff0000;" x="105.297312" xlink:href="#mf433da4c26" y="238.950887"/>
     <use style="fill:#ff0000;stroke:#ff0000;" x="87.463322" xlink:href="#mf433da4c26" y="264.65655"/>
     <use style="fill:#ff0000;stroke:#ff0000;" x="241.003176" xlink:href="#mf433da4c26" y="147.168104"/>
    </g>
   </g>
   <g id="text_13">
    <!-- (127) Subject: s3, Known = False, Degree = 2, Duration = 0.1 -->
    <defs>
     <path d="M 31 75.875 
Q 24.46875 64.65625 21.28125 53.65625 
Q 18.109375 42.671875 18.109375 31.390625 
Q 18.109375 20.125 21.3125 9.0625 
Q 24.515625 -2 31 -13.1875 
L 23.1875 -13.1875 
Q 15.875 -1.703125 12.234375 9.375 
Q 8.59375 20.453125 8.59375 31.390625 
Q 8.59375 42.28125 12.203125 53.3125 
Q 15.828125 64.359375 23.1875 75.875 
z
" id="DejaVuSans-40"/>
     <path d="M 8.203125 72.90625 
L 55.078125 72.90625 
L 55.078125 68.703125 
L 28.609375 0 
L 18.3125 0 
L 43.21875 64.59375 
L 8.203125 64.59375 
z
" id="DejaVuSans-55"/>
     <path d="M 8.015625 75.875 
L 15.828125 75.875 
Q 23.140625 64.359375 26.78125 53.3125 
Q 30.421875 42.28125 30.421875 31.390625 
Q 30.421875 20.453125 26.78125 9.375 
Q 23.140625 -1.703125 15.828125 -13.1875 
L 8.015625 -13.1875 
Q 14.5 -2 17.703125 9.0625 
Q 20.90625 20.125 20.90625 31.390625 
Q 20.90625 42.671875 17.703125 53.65625 
Q 14.5 64.65625 8.015625 75.875 
z
" id="DejaVuSans-41"/>
     <path id="DejaVuSans-32"/>
     <path d="M 53.515625 70.515625 
L 53.515625 60.890625 
Q 47.90625 63.578125 42.921875 64.890625 
Q 37.9375 66.21875 33.296875 66.21875 
Q 25.25 66.21875 20.875 63.09375 
Q 16.5 59.96875 16.5 54.203125 
Q 16.5 49.359375 19.40625 46.890625 
Q 22.3125 44.4375 30.421875 42.921875 
L 36.375 41.703125 
Q 47.40625 39.59375 52.65625 34.296875 
Q 57.90625 29 57.90625 20.125 
Q 57.90625 9.515625 50.796875 4.046875 
Q 43.703125 -1.421875 29.984375 -1.421875 
Q 24.8125 -1.421875 18.96875 -0.25 
Q 13.140625 0.921875 6.890625 3.21875 
L 6.890625 13.375 
Q 12.890625 10.015625 18.65625 8.296875 
Q 24.421875 6.59375 29.984375 6.59375 
Q 38.421875 6.59375 43.015625 9.90625 
Q 47.609375 13.234375 47.609375 19.390625 
Q 47.609375 24.75 44.3125 27.78125 
Q 41.015625 30.8125 33.5 32.328125 
L 27.484375 33.5 
Q 16.453125 35.6875 11.515625 40.375 
Q 6.59375 45.0625 6.59375 53.421875 
Q 6.59375 63.09375 13.40625 68.65625 
Q 20.21875 74.21875 32.171875 74.21875 
Q 37.3125 74.21875 42.625 73.28125 
Q 47.953125 72.359375 53.515625 70.515625 
z
" id="DejaVuSans-83"/>
     <path d="M 8.5 21.578125 
L 8.5 54.6875 
L 17.484375 54.6875 
L 17.484375 21.921875 
Q 17.484375 14.15625 20.5 10.265625 
Q 23.53125 6.390625 29.59375 6.390625 
Q 36.859375 6.390625 41.078125 11.03125 
Q 45.3125 15.671875 45.3125 23.6875 
L 45.3125 54.6875 
L 54.296875 54.6875 
L 54.296875 0 
L 45.3125 0 
L 45.3125 8.40625 
Q 42.046875 3.421875 37.71875 1 
Q 33.40625 -1.421875 27.6875 -1.421875 
Q 18.265625 -1.421875 13.375 4.4375 
Q 8.5 10.296875 8.5 21.578125 
z
M 31.109375 56 
z
" id="DejaVuSans-117"/>
     <path d="M 48.6875 27.296875 
Q 48.6875 37.203125 44.609375 42.84375 
Q 40.53125 48.484375 33.40625 48.484375 
Q 26.265625 48.484375 22.1875 42.84375 
Q 18.109375 37.203125 18.109375 27.296875 
Q 18.109375 17.390625 22.1875 11.75 
Q 26.265625 6.109375 33.40625 6.109375 
Q 40.53125 6.109375 44.609375 11.75 
Q 48.6875 17.390625 48.6875 27.296875 
z
M 18.109375 46.390625 
Q 20.953125 51.265625 25.265625 53.625 
Q 29.59375 56 35.59375 56 
Q 45.5625 56 51.78125 48.09375 
Q 58.015625 40.1875 58.015625 27.296875 
Q 58.015625 14.40625 51.78125 6.484375 
Q 45.5625 -1.421875 35.59375 -1.421875 
Q 29.59375 -1.421875 25.265625 0.953125 
Q 20.953125 3.328125 18.109375 8.203125 
L 18.109375 0 
L 9.078125 0 
L 9.078125 75.984375 
L 18.109375 75.984375 
z
" id="DejaVuSans-98"/>
     <path d="M 9.421875 54.6875 
L 18.40625 54.6875 
L 18.40625 -0.984375 
Q 18.40625 -11.421875 14.421875 -16.109375 
Q 10.453125 -20.796875 1.609375 -20.796875 
L -1.8125 -20.796875 
L -1.8125 -13.1875 
L 0.59375 -13.1875 
Q 5.71875 -13.1875 7.5625 -10.8125 
Q 9.421875 -8.453125 9.421875 -0.984375 
z
M 9.421875 75.984375 
L 18.40625 75.984375 
L 18.40625 64.59375 
L 9.421875 64.59375 
z
" id="DejaVuSans-106"/>
     <path d="M 56.203125 29.59375 
L 56.203125 25.203125 
L 14.890625 25.203125 
Q 15.484375 15.921875 20.484375 11.0625 
Q 25.484375 6.203125 34.421875 6.203125 
Q 39.59375 6.203125 44.453125 7.46875 
Q 49.3125 8.734375 54.109375 11.28125 
L 54.109375 2.78125 
Q 49.265625 0.734375 44.1875 -0.34375 
Q 39.109375 -1.421875 33.890625 -1.421875 
Q 20.796875 -1.421875 13.15625 6.1875 
Q 5.515625 13.8125 5.515625 26.8125 
Q 5.515625 40.234375 12.765625 48.109375 
Q 20.015625 56 32.328125 56 
Q 43.359375 56 49.78125 48.890625 
Q 56.203125 41.796875 56.203125 29.59375 
z
M 47.21875 32.234375 
Q 47.125 39.59375 43.09375 43.984375 
Q 39.0625 48.390625 32.421875 48.390625 
Q 24.90625 48.390625 20.390625 44.140625 
Q 15.875 39.890625 15.1875 32.171875 
z
" id="DejaVuSans-101"/>
     <path d="M 48.78125 52.59375 
L 48.78125 44.1875 
Q 44.96875 46.296875 41.140625 47.34375 
Q 37.3125 48.390625 33.40625 48.390625 
Q 24.65625 48.390625 19.8125 42.84375 
Q 14.984375 37.3125 14.984375 27.296875 
Q 14.984375 17.28125 19.8125 11.734375 
Q 24.65625 6.203125 33.40625 6.203125 
Q 37.3125 6.203125 41.140625 7.25 
Q 44.96875 8.296875 48.78125 10.40625 
L 48.78125 2.09375 
Q 45.015625 0.34375 40.984375 -0.53125 
Q 36.96875 -1.421875 32.421875 -1.421875 
Q 20.0625 -1.421875 12.78125 6.34375 
Q 5.515625 14.109375 5.515625 27.296875 
Q 5.515625 40.671875 12.859375 48.328125 
Q 20.21875 56 33.015625 56 
Q 37.15625 56 41.109375 55.140625 
Q 45.0625 54.296875 48.78125 52.59375 
z
" id="DejaVuSans-99"/>
     <path d="M 18.3125 70.21875 
L 18.3125 54.6875 
L 36.8125 54.6875 
L 36.8125 47.703125 
L 18.3125 47.703125 
L 18.3125 18.015625 
Q 18.3125 11.328125 20.140625 9.421875 
Q 21.96875 7.515625 27.59375 7.515625 
L 36.8125 7.515625 
L 36.8125 0 
L 27.59375 0 
Q 17.1875 0 13.234375 3.875 
Q 9.28125 7.765625 9.28125 18.015625 
L 9.28125 47.703125 
L 2.6875 47.703125 
L 2.6875 54.6875 
L 9.28125 54.6875 
L 9.28125 70.21875 
z
" id="DejaVuSans-116"/>
     <path d="M 11.71875 12.40625 
L 22.015625 12.40625 
L 22.015625 0 
L 11.71875 0 
z
M 11.71875 51.703125 
L 22.015625 51.703125 
L 22.015625 39.3125 
L 11.71875 39.3125 
z
" id="DejaVuSans-58"/>
     <path d="M 44.28125 53.078125 
L 44.28125 44.578125 
Q 40.484375 46.53125 36.375 47.5 
Q 32.28125 48.484375 27.875 48.484375 
Q 21.1875 48.484375 17.84375 46.4375 
Q 14.5 44.390625 14.5 40.28125 
Q 14.5 37.15625 16.890625 35.375 
Q 19.28125 33.59375 26.515625 31.984375 
L 29.59375 31.296875 
Q 39.15625 29.25 43.1875 25.515625 
Q 47.21875 21.78125 47.21875 15.09375 
Q 47.21875 7.46875 41.1875 3.015625 
Q 35.15625 -1.421875 24.609375 -1.421875 
Q 20.21875 -1.421875 15.453125 -0.5625 
Q 10.6875 0.296875 5.421875 2 
L 5.421875 11.28125 
Q 10.40625 8.6875 15.234375 7.390625 
Q 20.0625 6.109375 24.8125 6.109375 
Q 31.15625 6.109375 34.5625 8.28125 
Q 37.984375 10.453125 37.984375 14.40625 
Q 37.984375 18.0625 35.515625 20.015625 
Q 33.0625 21.96875 24.703125 23.78125 
L 21.578125 24.515625 
Q 13.234375 26.265625 9.515625 29.90625 
Q 5.8125 33.546875 5.8125 39.890625 
Q 5.8125 47.609375 11.28125 51.796875 
Q 16.75 56 26.8125 56 
Q 31.78125 56 36.171875 55.265625 
Q 40.578125 54.546875 44.28125 53.078125 
z
" id="DejaVuSans-115"/>
     <path d="M 11.71875 12.40625 
L 22.015625 12.40625 
L 22.015625 4 
L 14.015625 -11.625 
L 7.71875 -11.625 
L 11.71875 4 
z
" id="DejaVuSans-44"/>
     <path d="M 9.8125 72.90625 
L 19.671875 72.90625 
L 19.671875 42.09375 
L 52.390625 72.90625 
L 65.09375 72.90625 
L 28.90625 38.921875 
L 67.671875 0 
L 54.6875 0 
L 19.671875 35.109375 
L 19.671875 0 
L 9.8125 0 
z
" id="DejaVuSans-75"/>
     <path d="M 54.890625 33.015625 
L 54.890625 0 
L 45.90625 0 
L 45.90625 32.71875 
Q 45.90625 40.484375 42.875 44.328125 
Q 39.84375 48.1875 33.796875 48.1875 
Q 26.515625 48.1875 22.3125 43.546875 
Q 18.109375 38.921875 18.109375 30.90625 
L 18.109375 0 
L 9.078125 0 
L 9.078125 54.6875 
L 18.109375 54.6875 
L 18.109375 46.1875 
Q 21.34375 51.125 25.703125 53.5625 
Q 30.078125 56 35.796875 56 
Q 45.21875 56 50.046875 50.171875 
Q 54.890625 44.34375 54.890625 33.015625 
z
" id="DejaVuSans-110"/>
     <path d="M 30.609375 48.390625 
Q 23.390625 48.390625 19.1875 42.75 
Q 14.984375 37.109375 14.984375 27.296875 
Q 14.984375 17.484375 19.15625 11.84375 
Q 23.34375 6.203125 30.609375 6.203125 
Q 37.796875 6.203125 41.984375 11.859375 
Q 46.1875 17.53125 46.1875 27.296875 
Q 46.1875 37.015625 41.984375 42.703125 
Q 37.796875 48.390625 30.609375 48.390625 
z
M 30.609375 56 
Q 42.328125 56 49.015625 48.375 
Q 55.71875 40.765625 55.71875 27.296875 
Q 55.71875 13.875 49.015625 6.21875 
Q 42.328125 -1.421875 30.609375 -1.421875 
Q 18.84375 -1.421875 12.171875 6.21875 
Q 5.515625 13.875 5.515625 27.296875 
Q 5.515625 40.765625 12.171875 48.375 
Q 18.84375 56 30.609375 56 
z
" id="DejaVuSans-111"/>
     <path d="M 4.203125 54.6875 
L 13.1875 54.6875 
L 24.421875 12.015625 
L 35.59375 54.6875 
L 46.1875 54.6875 
L 57.421875 12.015625 
L 68.609375 54.6875 
L 77.59375 54.6875 
L 63.28125 0 
L 52.6875 0 
L 40.921875 44.828125 
L 29.109375 0 
L 18.5 0 
z
" id="DejaVuSans-119"/>
     <path d="M 10.59375 45.40625 
L 73.1875 45.40625 
L 73.1875 37.203125 
L 10.59375 37.203125 
z
M 10.59375 25.484375 
L 73.1875 25.484375 
L 73.1875 17.1875 
L 10.59375 17.1875 
z
" id="DejaVuSans-61"/>
     <path d="M 9.8125 72.90625 
L 51.703125 72.90625 
L 51.703125 64.59375 
L 19.671875 64.59375 
L 19.671875 43.109375 
L 48.578125 43.109375 
L 48.578125 34.8125 
L 19.671875 34.8125 
L 19.671875 0 
L 9.8125 0 
z
" id="DejaVuSans-70"/>
     <path d="M 34.28125 27.484375 
Q 23.390625 27.484375 19.1875 25 
Q 14.984375 22.515625 14.984375 16.5 
Q 14.984375 11.71875 18.140625 8.90625 
Q 21.296875 6.109375 26.703125 6.109375 
Q 34.1875 6.109375 38.703125 11.40625 
Q 43.21875 16.703125 43.21875 25.484375 
L 43.21875 27.484375 
z
M 52.203125 31.203125 
L 52.203125 0 
L 43.21875 0 
L 43.21875 8.296875 
Q 40.140625 3.328125 35.546875 0.953125 
Q 30.953125 -1.421875 24.3125 -1.421875 
Q 15.921875 -1.421875 10.953125 3.296875 
Q 6 8.015625 6 15.921875 
Q 6 25.140625 12.171875 29.828125 
Q 18.359375 34.515625 30.609375 34.515625 
L 43.21875 34.515625 
L 43.21875 35.40625 
Q 43.21875 41.609375 39.140625 45 
Q 35.0625 48.390625 27.6875 48.390625 
Q 23 48.390625 18.546875 47.265625 
Q 14.109375 46.140625 10.015625 43.890625 
L 10.015625 52.203125 
Q 14.9375 54.109375 19.578125 55.046875 
Q 24.21875 56 28.609375 56 
Q 40.484375 56 46.34375 49.84375 
Q 52.203125 43.703125 52.203125 31.203125 
z
" id="DejaVuSans-97"/>
     <path d="M 9.421875 75.984375 
L 18.40625 75.984375 
L 18.40625 0 
L 9.421875 0 
z
" id="DejaVuSans-108"/>
     <path d="M 19.671875 64.796875 
L 19.671875 8.109375 
L 31.59375 8.109375 
Q 46.6875 8.109375 53.6875 14.9375 
Q 60.6875 21.78125 60.6875 36.53125 
Q 60.6875 51.171875 53.6875 57.984375 
Q 46.6875 64.796875 31.59375 64.796875 
z
M 9.8125 72.90625 
L 30.078125 72.90625 
Q 51.265625 72.90625 61.171875 64.09375 
Q 71.09375 55.28125 71.09375 36.53125 
Q 71.09375 17.671875 61.125 8.828125 
Q 51.171875 0 30.078125 0 
L 9.8125 0 
z
" id="DejaVuSans-68"/>
     <path d="M 45.40625 27.984375 
Q 45.40625 37.75 41.375 43.109375 
Q 37.359375 48.484375 30.078125 48.484375 
Q 22.859375 48.484375 18.828125 43.109375 
Q 14.796875 37.75 14.796875 27.984375 
Q 14.796875 18.265625 18.828125 12.890625 
Q 22.859375 7.515625 30.078125 7.515625 
Q 37.359375 7.515625 41.375 12.890625 
Q 45.40625 18.265625 45.40625 27.984375 
z
M 54.390625 6.78125 
Q 54.390625 -7.171875 48.1875 -13.984375 
Q 42 -20.796875 29.203125 -20.796875 
Q 24.46875 -20.796875 20.265625 -20.09375 
Q 16.0625 -19.390625 12.109375 -17.921875 
L 12.109375 -9.1875 
Q 16.0625 -11.328125 19.921875 -12.34375 
Q 23.78125 -13.375 27.78125 -13.375 
Q 36.625 -13.375 41.015625 -8.765625 
Q 45.40625 -4.15625 45.40625 5.171875 
L 45.40625 9.625 
Q 42.625 4.78125 38.28125 2.390625 
Q 33.9375 0 27.875 0 
Q 17.828125 0 11.671875 7.65625 
Q 5.515625 15.328125 5.515625 27.984375 
Q 5.515625 40.671875 11.671875 48.328125 
Q 17.828125 56 27.875 56 
Q 33.9375 56 38.28125 53.609375 
Q 42.625 51.21875 45.40625 46.390625 
L 45.40625 54.6875 
L 54.390625 54.6875 
z
" id="DejaVuSans-103"/>
     <path d="M 41.109375 46.296875 
Q 39.59375 47.171875 37.8125 47.578125 
Q 36.03125 48 33.890625 48 
Q 26.265625 48 22.1875 43.046875 
Q 18.109375 38.09375 18.109375 28.8125 
L 18.109375 0 
L 9.078125 0 
L 9.078125 54.6875 
L 18.109375 54.6875 
L 18.109375 46.1875 
Q 20.953125 51.171875 25.484375 53.578125 
Q 30.03125 56 36.53125 56 
Q 37.453125 56 38.578125 55.875 
Q 39.703125 55.765625 41.0625 55.515625 
z
" id="DejaVuSans-114"/>
     <path d="M 9.421875 54.6875 
L 18.40625 54.6875 
L 18.40625 0 
L 9.421875 0 
z
M 9.421875 75.984375 
L 18.40625 75.984375 
L 18.40625 64.59375 
L 9.421875 64.59375 
z
" id="DejaVuSans-105"/>
     <path d="M 10.6875 12.40625 
L 21 12.40625 
L 21 0 
L 10.6875 0 
z
" id="DejaVuSans-46"/>
    </defs>
    <g transform="translate(49.741875 35.472)scale(0.12 -0.12)">
     <use xlink:href="#DejaVuSans-40"/>
     <use x="39.013672" xlink:href="#DejaVuSans-49"/>
     <use x="102.636719" xlink:href="#DejaVuSans-50"/>
     <use x="166.259766" xlink:href="#DejaVuSans-55"/>
     <use x="229.882812" xlink:href="#DejaVuSans-41"/>
     <use x="268.896484" xlink:href="#DejaVuSans-32"/>
     <use x="300.683594" xlink:href="#DejaVuSans-83"/>
     <use x="364.160156" xlink:href="#DejaVuSans-117"/>
     <use x="427.539062" xlink:href="#DejaVuSans-98"/>
     <use x="491.015625" xlink:href="#DejaVuSans-106"/>
     <use x="518.798828" xlink:href="#DejaVuSans-101"/>
     <use x="580.322266" xlink:href="#DejaVuSans-99"/>
     <use x="635.302734" xlink:href="#DejaVuSans-116"/>
     <use x="674.511719" xlink:href="#DejaVuSans-58"/>
     <use x="708.203125" xlink:href="#DejaVuSans-32"/>
     <use x="739.990234" xlink:href="#DejaVuSans-115"/>
     <use x="792.089844" xlink:href="#DejaVuSans-51"/>
     <use x="855.712891" xlink:href="#DejaVuSans-44"/>
     <use x="887.5" xlink:href="#DejaVuSans-32"/>
     <use x="919.287109" xlink:href="#DejaVuSans-75"/>
     <use x="984.863281" xlink:href="#DejaVuSans-110"/>
     <use x="1048.242188" xlink:href="#DejaVuSans-111"/>
     <use x="1109.423828" xlink:href="#DejaVuSans-119"/>
     <use x="1191.210938" xlink:href="#DejaVuSans-110"/>
     <use x="1254.589844" xlink:href="#DejaVuSans-32"/>
     <use x="1286.376953" xlink:href="#DejaVuSans-61"/>
     <use x="1370.166016" xlink:href="#DejaVuSans-32"/>
     <use x="1401.953125" xlink:href="#DejaVuSans-70"/>
     <use x="1459.332031" xlink:href="#DejaVuSans-97"/>
     <use x="1520.611328" xlink:href="#DejaVuSans-108"/>
     <use x="1548.394531" xlink:href="#DejaVuSans-115"/>
     <use x="1600.494141" xlink:href="#DejaVuSans-101"/>
     <use x="1662.017578" xlink:href="#DejaVuSans-44"/>
     <use x="1693.804688" xlink:href="#DejaVuSans-32"/>
     <use x="1725.591797" xlink:href="#DejaVuSans-68"/>
     <use x="1802.59375" xlink:href="#DejaVuSans-101"/>
     <use x="1864.117188" xlink:href="#DejaVuSans-103"/>
     <use x="1927.59375" xlink:href="#DejaVuSans-114"/>
     <use x="1968.675781" xlink:href="#DejaVuSans-101"/>
     <use x="2030.199219" xlink:href="#DejaVuSans-101"/>
     <use x="2091.722656" xlink:href="#DejaVuSans-32"/>
     <use x="2123.509766" xlink:href="#DejaVuSans-61"/>
     <use x="2207.298828" xlink:href="#DejaVuSans-32"/>
     <use x="2239.085938" xlink:href="#DejaVuSans-50"/>
     <use x="2302.708984" xlink:href="#DejaVuSans-44"/>
     <use x="2334.496094" xlink:href="#DejaVuSans-32"/>
     <use x="2366.283203" xlink:href="#DejaVuSans-68"/>
     <use x="2443.285156" xlink:href="#DejaVuSans-117"/>
     <use x="2506.664062" xlink:href="#DejaVuSans-114"/>
     <use x="2547.777344" xlink:href="#DejaVuSans-97"/>
     <use x="2609.056641" xlink:href="#DejaVuSans-116"/>
     <use x="2648.265625" xlink:href="#DejaVuSans-105"/>
     <use x="2676.048828" xlink:href="#DejaVuSans-111"/>
     <use x="2737.230469" xlink:href="#DejaVuSans-110"/>
     <use x="2800.609375" xlink:href="#DejaVuSans-32"/>
     <use x="2832.396484" xlink:href="#DejaVuSans-61"/>
     <use x="2916.185547" xlink:href="#DejaVuSans-32"/>
     <use x="2947.972656" xlink:href="#DejaVuSans-48"/>
     <use x="3011.595703" xlink:href="#DejaVuSans-46"/>
     <use x="3043.382812" xlink:href="#DejaVuSans-49"/>
    </g>
   </g>
  </g>
 </g>
 <defs>
  <clipPath id="p75657380c6">
   <rect height="266.112" width="357.12" x="57.6" y="41.472"/>
  </clipPath>
 </defs>
</svg>
