<?xml version="1.0" encoding="utf-8" standalone="no"?>
<!DOCTYPE svg PUBLIC "-//W3C//DTD SVG 1.1//EN"
  "http://www.w3.org/Graphics/SVG/1.1/DTD/svg11.dtd">
<!-- Created with matplotlib (https://matplotlib.org/) -->
<svg height="345.6pt" version="1.1" viewBox="0 0 460.8 345.6" width="460.8pt" xmlns="http://www.w3.org/2000/svg" xmlns:xlink="http://www.w3.org/1999/xlink">
 <defs>
  <style type="text/css">
*{stroke-linecap:butt;stroke-linejoin:round;}
  </style>
 </defs>
 <g id="figure_1">
  <g id="patch_1">
   <path d="M 0 345.6 
L 460.8 345.6 
L 460.8 0 
L 0 0 
z
" style="fill:#ffffff;"/>
  </g>
  <g id="axes_1">
   <g id="patch_2">
    <path d="M 57.6 307.584 
L 414.72 307.584 
L 414.72 41.472 
L 57.6 41.472 
z
" style="fill:#ffffff;"/>
   </g>
   <g id="line2d_1">
    <path clip-path="url(#pcd9737a2e5)" d="M 397.302013 54.175348 
L 397.894643 53.872865 
L 398.190958 53.568 
L 398.487273 53.872865 
L 398.487273 54.175348 
L 398.190958 54.477832 
L 397.302013 54.477832 
L 397.005698 54.175348 
L 397.894643 54.175348 
L 398.190958 53.872865 
L 398.190958 53.872865 
L 398.190958 54.780315 
L 398.487273 55.385282 
L 398.487273 54.780315 
L 398.190958 53.872865 
L 397.598328 53.872865 
L 397.302013 54.477832 
L 397.005698 54.477832 
L 396.413068 54.175348 
L 396.709383 53.872865 
L 397.302013 53.872865 
L 397.302013 54.175348 
L 396.413068 55.082799 
L 396.709383 55.082799 
L 397.894643 54.780315 
L 398.487273 54.780315 
L 398.190958 54.477832 
L 396.709383 53.872865 
L 396.709383 54.175348 
L 397.302013 55.385282 
L 397.598328 55.385282 
L 397.598328 55.385282 
L 397.894643 55.082799 
L 397.598328 54.780315 
L 397.598328 54.477832 
L 397.894643 54.477832 
L 398.190958 54.780315 
L 397.894643 55.385282 
L 397.894643 55.687765 
L 397.302013 55.385282 
L 397.302013 55.385282 
L 397.598328 55.082799 
L 398.190958 54.780315 
L 398.487273 54.780315 
L 398.487273 55.082799 
L 397.894643 55.385282 
L 397.302013 55.082799 
L 397.894643 55.385282 
L 397.598328 55.990249 
L 397.005698 55.990249 
L 396.709383 55.082799 
L 397.005698 54.477832 
L 397.302013 54.175348 
L 397.598328 54.477832 
L 397.598328 54.780315 
L 397.302013 55.385282 
L 397.005698 55.687765 
L 397.005698 55.687765 
L 396.709383 55.385282 
L 396.709383 54.477832 
L 397.005698 54.780315 
L 397.302013 55.385282 
L 397.598328 55.687765 
L 397.598328 55.687765 
L 397.302013 55.687765 
L 397.005698 55.990249 
L 396.709383 56.597597 
L 397.005698 56.295114 
L 397.005698 55.990249 
L 397.598328 55.990249 
L 397.894643 55.385282 
L 397.598328 55.082799 
L 397.302013 55.385282 
L 397.302013 55.687765 
L 397.302013 55.687765 
L 396.709383 55.082799 
L 395.227808 55.687765 
L 395.227808 55.990249 
L 395.524123 55.990249 
L 395.820438 56.597597 
L 396.413068 56.90008 
L 397.005698 56.90008 
L 396.709383 56.295114 
L 396.116753 55.990249 
L 395.227808 56.295114 
L 395.524123 56.295114 
L 396.709383 55.990249 
L 397.598328 55.385282 
L 397.005698 55.687765 
L 397.302013 55.990249 
L 397.302013 56.295114 
L 396.709383 56.295114 
L 396.413068 56.597597 
L 396.709383 56.295114 
L 397.005698 55.687765 
L 397.005698 55.082799 
L 397.005698 55.687765 
L 396.709383 55.687765 
L 396.709383 55.385282 
L 397.005698 54.175348 
L 396.709383 54.175348 
L 396.116753 54.780315 
L 396.413068 55.687765 
L 397.302013 56.295114 
L 397.894643 55.990249 
L 398.190958 55.687765 
L 398.190958 55.385282 
L 397.894643 55.687765 
L 397.894643 56.295114 
L 398.190958 55.687765 
L 398.190958 55.082799 
L 397.894643 54.780315 
L 397.302013 54.780315 
L 397.302013 54.780315 
L 397.302013 54.175348 
L 397.598328 54.477832 
L 397.894643 55.082799 
L 398.190958 55.385282 
L 398.190958 55.082799 
L 396.709383 54.175348 
L 396.709383 54.477832 
L 397.894643 55.385282 
L 397.005698 55.385282 
L 397.005698 55.385282 
L 397.598328 55.990249 
L 398.190958 55.990249 
L 398.190958 55.385282 
L 397.894643 55.082799 
L 397.894643 55.082799 
L 397.894643 54.780315 
L 397.302013 54.477832 
L 396.709383 54.780315 
L 397.005698 55.385282 
L 397.598328 55.990249 
L 397.894643 55.385282 
L 397.598328 54.780315 
L 397.005698 54.477832 
L 396.709383 54.477832 
L 396.709383 54.477832 
L 396.709383 55.082799 
L 397.005698 54.780315 
L 397.302013 54.175348 
L 397.005698 53.568 
L 396.413068 53.568 
L 396.116753 53.872865 
L 396.709383 54.477832 
L 396.709383 55.082799 
L 395.820438 55.082799 
L 395.227808 55.385282 
L 394.931493 55.687765 
L 394.635178 55.687765 
L 394.931493 55.990249 
L 395.524123 55.990249 
L 396.116753 55.687765 
L 395.820438 55.687765 
L 395.227808 55.385282 
L 395.227808 55.082799 
L 395.820438 53.872865 
L 395.820438 53.872865 
L 396.413068 54.175348 
L 397.302013 55.082799 
L 397.005698 54.780315 
L 396.413068 54.477832 
L 395.820438 54.780315 
L 395.524123 54.477832 
L 395.524123 54.175348 
L 395.524123 54.477832 
L 394.931493 54.175348 
L 394.931493 54.477832 
L 395.227808 54.477832 
L 395.227808 54.780315 
L 394.931493 54.780315 
L 395.524123 54.477832 
L 395.820438 54.175348 
L 395.524123 54.175348 
L 394.931493 54.780315 
L 394.931493 53.568 
L 395.227808 54.175348 
L 395.820438 54.175348 
L 395.524123 54.477832 
L 394.931493 54.780315 
L 394.635178 55.082799 
L 395.227808 54.780315 
L 396.116753 54.477832 
L 396.116753 54.175348 
L 395.820438 54.175348 
L 396.116753 53.872865 
L 396.116753 53.872865 
L 394.931493 54.477832 
L 394.338863 54.175348 
L 393.746233 54.175348 
L 393.746233 54.477832 
L 394.042548 54.780315 
L 394.042548 55.082799 
L 393.746233 55.082799 
L 393.746233 54.780315 
L 394.042548 53.872865 
L 394.635178 53.568 
L 394.042548 53.872865 
L 392.857288 54.175348 
L 391.371762 54.780315 
L 390.779132 55.990249 
L 390.186502 56.597597 
L 389.001242 57.202564 
L 383.959937 57.807531 
L 372.099436 58.717362 
L 363.206036 59.322329 
L 357.868415 60.229779 
L 346.604495 63.256995 
L 334.447679 66.891558 
L 326.739539 68.403975 
L 319.327713 70.221257 
L 313.101148 72.341022 
L 307.763527 74.460788 
L 302.425907 76.883036 
L 297.088286 79.910252 
L 287.602256 85.057232 
L 282.264636 87.781964 
L 277.22333 90.811562 
L 272.185975 93.536294 
L 268.32993 96.261026 
L 264.77415 98.985758 
L 259.436529 104.435222 
L 256.765744 107.462437 
L 253.506279 110.794518 
L 241.942093 121.693446 
L 233.937638 129.870023 
L 229.488962 133.502205 
L 220.891877 139.861501 
L 212.887421 147.430731 
L 209.327691 150.457946 
L 205.475596 152.577711 
L 202.508495 154.99996 
L 200.137976 157.422209 
L 197.767456 159.541974 
L 195.392985 161.054391 
L 192.13352 163.779123 
L 191.244575 165.293921 
L 191.244575 167.413687 
L 191.837205 169.533452 
L 192.13352 171.045869 
L 191.244575 171.955701 
L 190.647994 172.863151 
L 190.055364 173.468117 
L 189.759049 174.680433 
L 190.055364 175.890366 
L 191.54089 177.405165 
L 191.54089 180.43238 
L 190.94826 181.947179 
L 189.462734 184.369427 
L 189.462734 184.369427 
L 189.166419 185.276877 
L 189.166419 187.396643 
L 188.277475 191.636173 
L 187.684845 193.14859 
L 186.499585 194.965872 
L 185.01801 196.48067 
L 184.125114 197.690604 
L 183.532484 198.902919 
L 182.939854 200.415336 
L 183.532484 204.654866 
L 182.939854 205.259833 
L 182.347224 205.562317 
L 181.458279 205.562317 
L 180.865649 206.472148 
L 180.865649 207.984565 
L 181.161964 209.801847 
L 180.865649 211.014162 
L 179.976704 211.316646 
L 179.680389 211.619129 
L 179.680389 212.829062 
L 178.791444 213.738894 
L 178.198814 214.646344 
L 178.495129 214.646344 
L 179.087759 214.948828 
L 179.680389 215.553795 
L 179.680389 215.85866 
L 178.791444 217.67356 
L 178.791444 218.583392 
L 179.087759 219.490842 
L 178.791444 220.095808 
L 177.902499 221.308124 
L 177.009604 222.215574 
L 177.009604 224.940306 
L 176.713289 225.545272 
L 176.713289 225.242789 
L 176.416974 225.242789 
L 176.416974 226.152621 
L 176.713289 227.362554 
L 177.305919 227.967521 
L 177.902499 228.272386 
L 177.606184 228.57487 
L 176.713289 228.57487 
L 175.824344 230.087286 
L 175.824344 230.087286 
L 176.416974 230.087286 
L 177.009604 230.694635 
L 177.606184 231.602085 
L 177.902499 232.509535 
L 177.606184 233.116884 
L 177.009604 234.024334 
L 176.120659 234.931784 
L 174.639084 235.539132 
L 174.342769 235.841616 
L 175.528029 236.446582 
L 175.824344 237.051549 
L 176.120659 237.354032 
L 176.120659 237.051549 
L 176.416974 237.354032 
L 175.824344 237.656516 
L 174.935399 237.656516 
L 174.639084 238.263864 
L 174.935399 238.868831 
L 175.528029 240.988596 
L 174.046454 240.988596 
L 174.046454 241.593563 
L 174.342769 241.896046 
L 174.342769 242.501013 
L 174.046454 242.803496 
L 174.046454 243.410845 
L 174.342769 243.713328 
L 174.639084 243.410845 
L 174.639084 243.410845 
L 173.750139 243.713328 
L 172.861194 244.318295 
L 173.157509 245.225745 
L 173.750139 246.135577 
L 174.935399 246.135577 
L 175.231714 245.833094 
L 174.935399 245.53061 
L 174.639084 245.53061 
L 174.639084 245.53061 
L 174.046454 245.833094 
L 173.750139 246.43806 
L 173.453824 247.647994 
L 173.157509 247.34551 
L 173.157509 249.767759 
L 173.157509 249.767759 
L 173.453824 249.465276 
L 173.453824 249.162792 
L 174.046454 249.162792 
L 174.342769 248.860309 
L 174.342769 248.860309 
L 174.046454 248.557826 
L 174.046454 248.557826 
L 173.750139 248.860309 
L 174.046454 249.465276 
L 174.046454 249.767759 
L 173.750139 250.070242 
L 173.750139 250.677591 
L 173.157509 250.677591 
L 172.861194 250.375107 
L 173.157509 250.070242 
L 173.750139 250.070242 
L 173.750139 249.767759 
L 173.453824 249.465276 
L 173.453824 249.465276 
L 172.268564 249.465276 
L 171.972249 249.767759 
L 171.972249 249.767759 
L 171.675934 249.767759 
L 169.894093 249.162792 
L 169.301463 249.162792 
L 167.819888 249.465276 
L 165.745683 249.465276 
L 162.482268 249.767759 
L 156.255702 251.585041 
L 153.292552 252.190008 
L 142.913626 253.402323 
L 139.654162 254.00729 
L 134.316541 256.429538 
L 130.460496 257.336988 
L 123.344985 258.549304 
L 120.974465 259.15427 
L 114.451585 261.879002 
L 111.488435 262.788834 
L 108.817649 263.393801 
L 104.372925 263.998768 
L 98.442674 266.118533 
L 95.475573 267.328466 
L 93.105054 268.540781 
L 88.952693 270.96303 
L 86.582173 271.87048 
L 83.915338 273.082795 
L 81.837183 273.687762 
L 80.355608 274.292729 
L 79.170348 274.900077 
L 78.281403 275.202561 
L 77.688773 275.807527 
L 77.688773 277.927293 
L 77.392458 278.532259 
L 76.203247 278.229776 
L 75.610617 278.229776 
L 75.610617 278.532259 
L 76.203247 279.43971 
L 76.795877 279.43971 
L 77.096143 279.137226 
L 77.688773 279.137226 
L 77.985088 279.744575 
L 78.577718 280.349541 
L 79.170348 280.349541 
L 79.170348 279.744575 
L 78.874033 279.43971 
L 78.874033 280.349541 
L 79.170348 281.861958 
L 78.577718 282.77179 
L 77.392458 283.074273 
L 77.096143 283.67924 
L 77.392458 283.981723 
L 77.688773 283.981723 
L 78.281403 284.284207 
L 78.874033 285.496522 
L 78.874033 286.706455 
L 77.688773 287.616287 
L 76.499562 287.616287 
L 75.906932 287.008939 
L 75.906932 286.706455 
L 76.499562 287.313804 
L 77.392458 289.128704 
L 77.392458 289.128704 
L 77.392458 289.431187 
L 77.392458 289.431187 
L 77.096143 289.431187 
L 76.203247 290.341019 
L 75.906932 290.341019 
L 76.203247 290.643503 
L 77.096143 290.945986 
L 77.392458 290.643503 
L 77.096143 290.038536 
L 76.203247 290.643503 
L 76.499562 291.853436 
L 77.096143 292.158301 
L 77.096143 292.460785 
L 75.906932 292.460785 
L 75.906932 292.460785 
L 76.499562 292.158301 
L 77.096143 292.158301 
L 77.096143 291.853436 
L 76.795877 291.853436 
L 75.906932 293.368235 
L 75.314302 293.065751 
L 75.017987 293.065751 
L 74.721672 293.670718 
L 75.314302 293.670718 
L 76.203247 293.368235 
L 76.795877 293.368235 
L 77.096143 293.973201 
L 76.499562 294.275685 
L 75.906932 294.275685 
L 75.906932 293.670718 
L 76.203247 293.368235 
L 75.906932 293.065751 
L 75.906932 293.368235 
L 76.203247 293.973201 
L 76.499562 294.275685 
L 76.499562 293.973201 
L 75.906932 294.275685 
L 75.610617 294.275685 
L 75.610617 294.275685 
L 75.314302 293.973201 
L 75.314302 293.973201 
L 75.314302 294.275685 
L 75.610617 294.883033 
L 76.203247 295.488 
L 75.610617 294.883033 
L 75.314302 293.670718 
L 75.017987 293.368235 
L 75.017987 294.58055 
L 75.314302 294.275685 
L 75.314302 293.973201 
L 75.610617 294.275685 
L 75.906932 294.883033 
L 75.906932 295.185517 
L 75.610617 294.58055 
L 75.906932 294.275685 
L 76.499562 294.883033 
L 76.203247 294.883033 
L 75.610617 294.58055 
L 75.017987 294.58055 
L 75.610617 294.275685 
L 76.203247 293.065751 
L 75.906932 293.065751 
L 75.610617 292.763268 
L 75.610617 293.065751 
L 75.017987 294.58055 
L 74.721672 293.973201 
L 74.721672 293.670718 
L 74.425357 293.368235 
L 73.832727 293.670718 
L 75.314302 293.670718 
L 75.610617 293.368235 
L 75.610617 294.58055 
L 75.314302 295.185517 
L 75.314302 294.275685 
L 75.610617 293.065751 
L 75.314302 292.460785 
L 75.017987 292.158301 
L 75.017987 293.670718 
L 75.610617 294.275685 
L 75.906932 294.275685 
L 75.906932 294.58055 
L 75.906932 294.58055 
L 75.610617 293.973201 
L 75.906932 293.670718 
L 75.906932 293.065751 
L 75.610617 293.368235 
L 76.203247 293.973201 
L 76.203247 293.670718 
L 75.906932 293.670718 
L 75.314302 293.368235 
L 74.721672 293.670718 
L 75.017987 293.973201 
L 75.314302 293.670718 
L 75.314302 293.065751 
L 75.017987 292.763268 
L 75.314302 293.065751 
L 75.610617 293.065751 
L 75.610617 292.763268 
L 75.017987 292.763268 
L 75.314302 292.763268 
L 75.610617 293.065751 
L 75.017987 293.368235 
L 74.129042 293.670718 
L 73.832727 293.368235 
L 74.721672 293.065751 
L 75.610617 293.065751 
L 75.906932 292.763268 
L 75.610617 292.763268 
L 75.314302 292.460785 
L 75.314302 293.065751 
L 75.906932 293.065751 
L 75.906932 292.460785 
L 75.610617 292.158301 
L 75.610617 291.853436 
L 76.203247 292.158301 
L 76.795877 293.065751 
L 76.499562 293.065751 
L 76.499562 292.460785 
L 77.096143 292.460785 
L 77.985088 293.065751 
L 79.170348 292.763268 
L 80.948238 291.853436 
L 83.619023 290.945986 
L 87.174803 290.341019 
L 91.030849 290.038536 
L 96.068203 289.431187 
L 102.294769 288.221254 
L 108.225019 287.616287 
L 114.451585 287.616287 
L 121.86341 287.008939 
L 129.867866 285.799005 
L 136.983376 283.67924 
L 143.506256 282.166823 
L 150.621767 280.954508 
L 158.630173 280.349541 
L 166.930943 279.137226 
L 174.639084 277.624809 
L 182.347224 276.412494 
L 189.759049 275.807527 
L 196.87456 275.807527 
L 203.99007 275.202561 
L 211.109532 274.292729 
L 232.159748 270.660547 
L 244.608928 268.843265 
L 256.765744 266.421016 
L 268.92256 265.211083 
L 278.708856 263.998768 
L 287.602256 262.181486 
L 291.754617 260.971552 
L 294.717766 260.366585 
L 296.199341 260.669069 
L 297.977231 260.366585 
L 297.977231 260.064102 
L 297.384601 260.366585 
L 296.495656 260.971552 
L 293.532507 261.576519 
L 292.347247 261.274036 
L 291.454351 261.274036 
L 290.565406 261.879002 
L 289.676461 262.788834 
L 288.491201 263.393801 
L 287.009626 263.998768 
L 286.120681 263.696284 
L 286.713311 263.998768 
L 287.305941 264.906218 
L 287.305941 265.513566 
L 286.416996 265.816049 
L 286.713311 265.816049 
L 286.416996 267.025983 
L 286.416996 266.7235 
L 286.120681 266.118533 
L 285.528051 266.421016 
L 285.824366 266.7235 
L 286.416996 267.025983 
L 287.009626 267.633331 
L 286.713311 268.238298 
L 286.713311 268.540781 
L 286.713311 268.540781 
L 286.120681 269.145748 
L 286.120681 269.448232 
L 286.416996 269.448232 
L 285.231736 269.448232 
L 285.528051 269.448232 
L 286.120681 268.843265 
L 286.416996 268.238298 
L 286.120681 267.935815 
L 285.231736 268.238298 
L 284.635155 268.843265 
L 284.635155 269.448232 
L 285.528051 269.448232 
L 285.528051 269.750715 
L 285.231736 270.05558 
L 285.528051 269.448232 
L 285.824366 269.145748 
L 285.824366 269.145748 
L 285.231736 268.540781 
L 284.935421 268.540781 
L 284.33884 268.843265 
L 284.935421 269.448232 
L 285.231736 269.448232 
L 284.635155 269.448232 
L 284.635155 269.448232 
L 284.935421 269.145748 
L 284.935421 269.448232 
L 285.231736 269.750715 
L 285.231736 269.750715 
L 285.528051 269.750715 
L 285.528051 269.750715 
L 285.231736 270.05558 
L 284.042525 270.05558 
L 283.74621 269.750715 
L 283.74621 269.448232 
L 283.449895 269.448232 
L 283.153581 269.750715 
L 283.74621 269.448232 
L 284.042525 269.448232 
L 284.042525 269.750715 
L 284.042525 269.448232 
L 283.74621 269.448232 
L 283.449895 270.05558 
L 283.449895 270.96303 
L 283.74621 271.265513 
L 283.74621 271.265513 
L 284.042525 270.660547 
L 284.33884 270.358063 
L 284.33884 270.05558 
L 283.74621 270.05558 
L 283.74621 270.660547 
L 284.042525 271.265513 
L 284.042525 271.265513 
L 283.74621 270.96303 
L 283.449895 271.567997 
L 283.449895 272.477829 
L 283.153581 272.172964 
L 282.857266 271.265513 
L 283.449895 272.780312 
L 282.857266 271.567997 
L 282.560951 271.567997 
L 282.857266 271.567997 
L 283.449895 270.96303 
L 284.042525 270.660547 
L 284.33884 271.265513 
L 284.33884 271.87048 
L 284.042525 271.87048 
L 283.449895 272.172964 
L 283.153581 272.780312 
L 282.857266 273.082795 
L 282.264636 270.96303 
L 282.264636 270.358063 
L 283.153581 272.172964 
L 283.449895 272.477829 
L 283.449895 272.780312 
L 283.153581 273.082795 
L 283.449895 272.780312 
L 283.74621 271.87048 
L 283.449895 271.265513 
L 282.857266 270.96303 
L 282.857266 271.265513 
L 284.635155 271.265513 
L 284.042525 271.265513 
L 283.153581 271.567997 
L 282.857266 272.477829 
L 283.153581 272.477829 
L 283.449895 272.172964 
L 283.449895 271.567997 
L 283.153581 271.567997 
L 283.153581 272.172964 
L 283.153581 271.87048 
L 282.560951 272.172964 
L 282.560951 272.477829 
L 282.264636 272.477829 
L 281.968321 272.172964 
L 281.375691 272.172964 
L 281.672006 272.172964 
L 282.264636 271.87048 
L 282.264636 270.96303 
L 281.672006 270.358063 
L 281.672006 270.96303 
L 282.264636 271.567997 
L 282.560951 272.172964 
L 282.857266 271.87048 
L 282.857266 270.358063 
L 282.857266 270.96303 
L 283.153581 270.96303 
L 283.153581 270.96303 
L 283.449895 271.567997 
L 283.153581 271.567997 
L 282.560951 271.265513 
L 281.375691 270.96303 
L 282.264636 271.87048 
L 282.857266 271.87048 
L 283.153581 271.567997 
L 282.857266 271.567997 
L 282.264636 271.87048 
L 282.560951 271.87048 
L 282.857266 271.567997 
L 283.449895 271.567997 
L 283.449895 272.477829 
L 282.560951 272.477829 
L 282.857266 271.87048 
L 283.449895 271.567997 
L 283.74621 271.265513 
L 282.857266 271.265513 
L 282.857266 272.172964 
L 282.264636 272.477829 
L 281.079376 272.172964 
L 280.783061 272.477829 
L 281.968321 272.780312 
L 282.264636 272.172964 
L 282.264636 271.87048 
L 281.968321 271.87048 
L 282.264636 271.87048 
L 281.968321 271.567997 
L 281.672006 270.96303 
L 281.968321 270.358063 
L 282.560951 270.358063 
L 282.560951 270.660547 
L 281.968321 270.660547 
L 282.560951 270.660547 
L 283.153581 270.96303 
L 283.153581 271.265513 
L 283.153581 271.265513 
L 282.857266 270.96303 
L 283.153581 270.660547 
L 283.74621 270.358063 
L 284.042525 270.358063 
L 283.74621 271.265513 
L 283.449895 271.567997 
L 283.449895 272.172964 
L 281.672006 272.172964 
L 281.672006 272.172964 
L 281.968321 271.87048 
L 281.968321 270.660547 
L 281.968321 272.172964 
L 282.264636 272.172964 
L 282.857266 271.87048 
L 282.857266 271.567997 
L 282.560951 271.265513 
L 282.264636 270.660547 
L 282.560951 270.660547 
L 282.560951 271.265513 
L 282.560951 270.96303 
L 282.857266 271.265513 
L 282.560951 271.567997 
L 282.560951 272.172964 
L 282.857266 272.172964 
L 282.857266 271.567997 
L 281.968321 270.660547 
L 281.968321 270.660547 
L 281.968321 271.265513 
L 282.264636 270.96303 
L 282.560951 270.96303 
L 282.560951 270.660547 
L 282.264636 270.660547 
L 281.375691 270.96303 
L 280.486746 271.567997 
L 280.190431 271.567997 
L 280.783061 271.265513 
L 281.375691 270.660547 
L 281.375691 270.358063 
L 281.079376 269.750715 
L 281.079376 269.448232 
L 281.079376 270.358063 
L 280.783061 270.660547 
L 281.672006 270.660547 
L 281.375691 270.660547 
L 281.079376 269.750715 
L 281.968321 268.843265 
L 282.560951 268.843265 
L 282.560951 268.843265 
L 281.968321 268.540781 
L 280.486746 267.935815 
L 280.486746 268.843265 
L 281.375691 268.843265 
L 281.968321 268.540781 
L 281.968321 268.238298 
L 281.375691 267.935815 
L 281.079376 267.935815 
L 281.079376 268.238298 
L 281.079376 267.633331 
L 281.079376 267.633331 
L 281.672006 267.633331 
L 281.672006 267.935815 
L 281.968321 268.540781 
L 282.264636 268.540781 
L 282.264636 267.935815 
L 281.968321 267.633331 
L 280.486746 268.238298 
L 281.079376 267.935815 
L 281.968321 267.328466 
L 282.264636 267.328466 
L 282.264636 267.633331 
L 281.968321 267.633331 
L 281.968321 267.328466 
L 281.672006 267.328466 
L 281.079376 267.633331 
L 281.079376 267.935815 
L 281.672006 268.238298 
L 282.264636 268.238298 
L 282.264636 267.633331 
L 281.968321 267.633331 
L 281.968321 267.633331 
L 281.968321 265.816049 
L 281.672006 265.513566 
L 281.375691 265.816049 
L 281.968321 267.025983 
L 282.560951 267.025983 
L 282.264636 267.025983 
L 281.375691 266.7235 
L 281.375691 265.816049 
L 281.672006 265.816049 
L 281.968321 266.118533 
L 281.968321 266.118533 
L 281.968321 265.816049 
L 282.857266 265.816049 
L 282.857266 266.118533 
L 282.264636 266.118533 
L 281.672006 265.816049 
L 281.375691 265.513566 
L 281.375691 265.513566 
L 281.968321 265.513566 
L 282.560951 265.211083 
L 282.857266 265.211083 
L 282.264636 265.513566 
L 281.968321 265.211083 
L 281.968321 264.603734 
L 281.672006 264.301251 
L 281.375691 264.603734 
L 281.968321 263.998768 
L 282.264636 263.393801 
L 282.560951 263.393801 
L 282.560951 263.393801 
L 282.264636 263.696284 
L 282.560951 263.393801 
L 282.264636 262.788834 
L 281.968321 262.486351 
L 281.672006 263.091317 
L 281.672006 263.696284 
L 281.079376 263.696284 
L 281.079376 263.393801 
L 281.375691 263.091317 
L 281.079376 263.091317 
L 281.375691 263.091317 
L 281.968321 263.393801 
L 282.264636 263.696284 
L 282.264636 263.696284 
L 282.857266 262.788834 
L 283.153581 261.879002 
L 282.857266 261.576519 
L 282.857266 261.274036 
L 283.153581 261.274036 
L 283.449895 261.576519 
L 282.560951 262.486351 
L 282.264636 262.181486 
L 281.672006 261.879002 
L 281.672006 261.274036 
L 282.264636 261.274036 
L 282.560951 261.576519 
L 283.449895 261.576519 
L 283.153581 261.576519 
L 283.153581 261.879002 
L 283.153581 261.879002 
L 282.857266 262.181486 
L 283.153581 262.486351 
L 284.33884 262.486351 
L 284.635155 261.879002 
L 284.042525 261.576519 
L 282.857266 261.576519 
L 283.449895 260.971552 
L 283.449895 260.669069 
L 282.857266 260.669069 
L 282.560951 260.366585 
L 283.153581 259.759237 
L 282.857266 259.456754 
L 281.672006 259.456754 
L 282.560951 259.456754 
L 281.968321 259.759237 
L 281.672006 259.759237 
L 281.672006 259.759237 
L 282.264636 258.24682 
L 281.968321 258.549304 
L 281.968321 259.456754 
L 282.264636 259.456754 
L 282.857266 258.851787 
L 282.857266 257.641853 
L 282.264636 257.336988 
L 281.968321 257.034505 
L 281.968321 257.034505 
" style="fill:none;stroke:#1f77b4;stroke-linecap:square;stroke-width:1.5;"/>
   </g>
   <g id="matplotlib.axis_1">
    <g id="xtick_1">
     <g id="line2d_2">
      <defs>
       <path d="M 0 0 
L 0 3.5 
" id="m96946f87ca" style="stroke:#000000;stroke-width:0.8;"/>
      </defs>
      <g>
       <use style="stroke:#000000;stroke-width:0.8;" x="110.224158" xlink:href="#m96946f87ca" y="307.584"/>
      </g>
     </g>
     <g id="text_1">
      <!-- −200 -->
      <defs>
       <path d="M 10.59375 35.5 
L 73.1875 35.5 
L 73.1875 27.203125 
L 10.59375 27.203125 
z
" id="DejaVuSans-8722"/>
       <path d="M 19.1875 8.296875 
L 53.609375 8.296875 
L 53.609375 0 
L 7.328125 0 
L 7.328125 8.296875 
Q 12.9375 14.109375 22.625 23.890625 
Q 32.328125 33.6875 34.8125 36.53125 
Q 39.546875 41.84375 41.421875 45.53125 
Q 43.3125 49.21875 43.3125 52.78125 
Q 43.3125 58.59375 39.234375 62.25 
Q 35.15625 65.921875 28.609375 65.921875 
Q 23.96875 65.921875 18.8125 64.3125 
Q 13.671875 62.703125 7.8125 59.421875 
L 7.8125 69.390625 
Q 13.765625 71.78125 18.9375 73 
Q 24.125 74.21875 28.421875 74.21875 
Q 39.75 74.21875 46.484375 68.546875 
Q 53.21875 62.890625 53.21875 53.421875 
Q 53.21875 48.921875 51.53125 44.890625 
Q 49.859375 40.875 45.40625 35.40625 
Q 44.1875 33.984375 37.640625 27.21875 
Q 31.109375 20.453125 19.1875 8.296875 
z
" id="DejaVuSans-50"/>
       <path d="M 31.78125 66.40625 
Q 24.171875 66.40625 20.328125 58.90625 
Q 16.5 51.421875 16.5 36.375 
Q 16.5 21.390625 20.328125 13.890625 
Q 24.171875 6.390625 31.78125 6.390625 
Q 39.453125 6.390625 43.28125 13.890625 
Q 47.125 21.390625 47.125 36.375 
Q 47.125 51.421875 43.28125 58.90625 
Q 39.453125 66.40625 31.78125 66.40625 
z
M 31.78125 74.21875 
Q 44.046875 74.21875 50.515625 64.515625 
Q 56.984375 54.828125 56.984375 36.375 
Q 56.984375 17.96875 50.515625 8.265625 
Q 44.046875 -1.421875 31.78125 -1.421875 
Q 19.53125 -1.421875 13.0625 8.265625 
Q 6.59375 17.96875 6.59375 36.375 
Q 6.59375 54.828125 13.0625 64.515625 
Q 19.53125 74.21875 31.78125 74.21875 
z
" id="DejaVuSans-48"/>
      </defs>
      <g transform="translate(96.490564 322.182437)scale(0.1 -0.1)">
       <use xlink:href="#DejaVuSans-8722"/>
       <use x="83.789062" xlink:href="#DejaVuSans-50"/>
       <use x="147.412109" xlink:href="#DejaVuSans-48"/>
       <use x="211.035156" xlink:href="#DejaVuSans-48"/>
      </g>
     </g>
    </g>
    <g id="xtick_2">
     <g id="line2d_3">
      <g>
       <use style="stroke:#000000;stroke-width:0.8;" x="189.241486" xlink:href="#m96946f87ca" y="307.584"/>
      </g>
     </g>
     <g id="text_2">
      <!-- 0 -->
      <g transform="translate(186.060236 322.182437)scale(0.1 -0.1)">
       <use xlink:href="#DejaVuSans-48"/>
      </g>
     </g>
    </g>
    <g id="xtick_3">
     <g id="line2d_4">
      <g>
       <use style="stroke:#000000;stroke-width:0.8;" x="268.258814" xlink:href="#m96946f87ca" y="307.584"/>
      </g>
     </g>
     <g id="text_3">
      <!-- 200 -->
      <g transform="translate(258.715064 322.182437)scale(0.1 -0.1)">
       <use xlink:href="#DejaVuSans-50"/>
       <use x="63.623047" xlink:href="#DejaVuSans-48"/>
       <use x="127.246094" xlink:href="#DejaVuSans-48"/>
      </g>
     </g>
    </g>
    <g id="xtick_4">
     <g id="line2d_5">
      <g>
       <use style="stroke:#000000;stroke-width:0.8;" x="347.276142" xlink:href="#m96946f87ca" y="307.584"/>
      </g>
     </g>
     <g id="text_4">
      <!-- 400 -->
      <defs>
       <path d="M 37.796875 64.3125 
L 12.890625 25.390625 
L 37.796875 25.390625 
z
M 35.203125 72.90625 
L 47.609375 72.90625 
L 47.609375 25.390625 
L 58.015625 25.390625 
L 58.015625 17.1875 
L 47.609375 17.1875 
L 47.609375 0 
L 37.796875 0 
L 37.796875 17.1875 
L 4.890625 17.1875 
L 4.890625 26.703125 
z
" id="DejaVuSans-52"/>
      </defs>
      <g transform="translate(337.732392 322.182437)scale(0.1 -0.1)">
       <use xlink:href="#DejaVuSans-52"/>
       <use x="63.623047" xlink:href="#DejaVuSans-48"/>
       <use x="127.246094" xlink:href="#DejaVuSans-48"/>
      </g>
     </g>
    </g>
   </g>
   <g id="matplotlib.axis_2">
    <g id="ytick_1">
     <g id="line2d_6">
      <defs>
       <path d="M 0 0 
L -3.5 0 
" id="ma7f859817a" style="stroke:#000000;stroke-width:0.8;"/>
      </defs>
      <g>
       <use style="stroke:#000000;stroke-width:0.8;" x="57.6" xlink:href="#ma7f859817a" y="265.506421"/>
      </g>
     </g>
     <g id="text_5">
      <!-- −400 -->
      <g transform="translate(23.132812 269.30564)scale(0.1 -0.1)">
       <use xlink:href="#DejaVuSans-8722"/>
       <use x="83.789062" xlink:href="#DejaVuSans-52"/>
       <use x="147.412109" xlink:href="#DejaVuSans-48"/>
       <use x="211.035156" xlink:href="#DejaVuSans-48"/>
      </g>
     </g>
    </g>
    <g id="ytick_2">
     <g id="line2d_7">
      <g>
       <use style="stroke:#000000;stroke-width:0.8;" x="57.6" xlink:href="#ma7f859817a" y="217.871246"/>
      </g>
     </g>
     <g id="text_6">
      <!-- −200 -->
      <g transform="translate(23.132812 221.670465)scale(0.1 -0.1)">
       <use xlink:href="#DejaVuSans-8722"/>
       <use x="83.789062" xlink:href="#DejaVuSans-50"/>
       <use x="147.412109" xlink:href="#DejaVuSans-48"/>
       <use x="211.035156" xlink:href="#DejaVuSans-48"/>
      </g>
     </g>
    </g>
    <g id="ytick_3">
     <g id="line2d_8">
      <g>
       <use style="stroke:#000000;stroke-width:0.8;" x="57.6" xlink:href="#ma7f859817a" y="170.236071"/>
      </g>
     </g>
     <g id="text_7">
      <!-- 0 -->
      <g transform="translate(44.2375 174.035289)scale(0.1 -0.1)">
       <use xlink:href="#DejaVuSans-48"/>
      </g>
     </g>
    </g>
    <g id="ytick_4">
     <g id="line2d_9">
      <g>
       <use style="stroke:#000000;stroke-width:0.8;" x="57.6" xlink:href="#ma7f859817a" y="122.600896"/>
      </g>
     </g>
     <g id="text_8">
      <!-- 200 -->
      <g transform="translate(31.5125 126.400114)scale(0.1 -0.1)">
       <use xlink:href="#DejaVuSans-50"/>
       <use x="63.623047" xlink:href="#DejaVuSans-48"/>
       <use x="127.246094" xlink:href="#DejaVuSans-48"/>
      </g>
     </g>
    </g>
    <g id="ytick_5">
     <g id="line2d_10">
      <g>
       <use style="stroke:#000000;stroke-width:0.8;" x="57.6" xlink:href="#ma7f859817a" y="74.965721"/>
      </g>
     </g>
     <g id="text_9">
      <!-- 400 -->
      <g transform="translate(31.5125 78.764939)scale(0.1 -0.1)">
       <use xlink:href="#DejaVuSans-52"/>
       <use x="63.623047" xlink:href="#DejaVuSans-48"/>
       <use x="127.246094" xlink:href="#DejaVuSans-48"/>
      </g>
     </g>
    </g>
   </g>
   <g id="line2d_11">
    <path clip-path="url(#pcd9737a2e5)" d="M 393.386625 55.577578 
L 177.024253 230.088024 
L 80.676107 288.21819 
L 282.131794 268.197917 
" style="fill:none;stroke:#ff0000;stroke-linecap:square;stroke-width:0.5;"/>
   </g>
   <g id="patch_3">
    <path d="M 57.6 307.584 
L 57.6 41.472 
" style="fill:none;stroke:#000000;stroke-linecap:square;stroke-linejoin:miter;stroke-width:0.8;"/>
   </g>
   <g id="patch_4">
    <path d="M 414.72 307.584 
L 414.72 41.472 
" style="fill:none;stroke:#000000;stroke-linecap:square;stroke-linejoin:miter;stroke-width:0.8;"/>
   </g>
   <g id="patch_5">
    <path d="M 57.6 307.584 
L 414.72 307.584 
" style="fill:none;stroke:#000000;stroke-linecap:square;stroke-linejoin:miter;stroke-width:0.8;"/>
   </g>
   <g id="patch_6">
    <path d="M 57.6 41.472 
L 414.72 41.472 
" style="fill:none;stroke:#000000;stroke-linecap:square;stroke-linejoin:miter;stroke-width:0.8;"/>
   </g>
   <g id="PathCollection_1">
    <defs>
     <path d="M 0 2.738613 
C 0.726289 2.738613 1.422928 2.450055 1.936492 1.936492 
C 2.450055 1.422928 2.738613 0.726289 2.738613 0 
C 2.738613 -0.726289 2.450055 -1.422928 1.936492 -1.936492 
C 1.422928 -2.450055 0.726289 -2.738613 0 -2.738613 
C -0.726289 -2.738613 -1.422928 -2.450055 -1.936492 -1.936492 
C -2.450055 -1.422928 -2.738613 -0.726289 -2.738613 0 
C -2.738613 0.726289 -2.450055 1.422928 -1.936492 1.936492 
C -1.422928 2.450055 -0.726289 2.738613 0 2.738613 
z
" id="m1814458d75" style="stroke:#ff0000;"/>
    </defs>
    <g clip-path="url(#pcd9737a2e5)">
     <use style="fill:#ff0000;stroke:#ff0000;" x="393.386625" xlink:href="#m1814458d75" y="55.577578"/>
     <use style="fill:#ff0000;stroke:#ff0000;" x="177.024253" xlink:href="#m1814458d75" y="230.088024"/>
     <use style="fill:#ff0000;stroke:#ff0000;" x="80.676107" xlink:href="#m1814458d75" y="288.21819"/>
     <use style="fill:#ff0000;stroke:#ff0000;" x="282.131794" xlink:href="#m1814458d75" y="268.197917"/>
    </g>
   </g>
   <g id="text_10">
    <!-- (129) Subject: s3, Known = False, Degree = 2, Duration = 0.1 -->
    <defs>
     <path d="M 31 75.875 
Q 24.46875 64.65625 21.28125 53.65625 
Q 18.109375 42.671875 18.109375 31.390625 
Q 18.109375 20.125 21.3125 9.0625 
Q 24.515625 -2 31 -13.1875 
L 23.1875 -13.1875 
Q 15.875 -1.703125 12.234375 9.375 
Q 8.59375 20.453125 8.59375 31.390625 
Q 8.59375 42.28125 12.203125 53.3125 
Q 15.828125 64.359375 23.1875 75.875 
z
" id="DejaVuSans-40"/>
     <path d="M 12.40625 8.296875 
L 28.515625 8.296875 
L 28.515625 63.921875 
L 10.984375 60.40625 
L 10.984375 69.390625 
L 28.421875 72.90625 
L 38.28125 72.90625 
L 38.28125 8.296875 
L 54.390625 8.296875 
L 54.390625 0 
L 12.40625 0 
z
" id="DejaVuSans-49"/>
     <path d="M 10.984375 1.515625 
L 10.984375 10.5 
Q 14.703125 8.734375 18.5 7.8125 
Q 22.3125 6.890625 25.984375 6.890625 
Q 35.75 6.890625 40.890625 13.453125 
Q 46.046875 20.015625 46.78125 33.40625 
Q 43.953125 29.203125 39.59375 26.953125 
Q 35.25 24.703125 29.984375 24.703125 
Q 19.046875 24.703125 12.671875 31.3125 
Q 6.296875 37.9375 6.296875 49.421875 
Q 6.296875 60.640625 12.9375 67.421875 
Q 19.578125 74.21875 30.609375 74.21875 
Q 43.265625 74.21875 49.921875 64.515625 
Q 56.59375 54.828125 56.59375 36.375 
Q 56.59375 19.140625 48.40625 8.859375 
Q 40.234375 -1.421875 26.421875 -1.421875 
Q 22.703125 -1.421875 18.890625 -0.6875 
Q 15.09375 0.046875 10.984375 1.515625 
z
M 30.609375 32.421875 
Q 37.25 32.421875 41.125 36.953125 
Q 45.015625 41.5 45.015625 49.421875 
Q 45.015625 57.28125 41.125 61.84375 
Q 37.25 66.40625 30.609375 66.40625 
Q 23.96875 66.40625 20.09375 61.84375 
Q 16.21875 57.28125 16.21875 49.421875 
Q 16.21875 41.5 20.09375 36.953125 
Q 23.96875 32.421875 30.609375 32.421875 
z
" id="DejaVuSans-57"/>
     <path d="M 8.015625 75.875 
L 15.828125 75.875 
Q 23.140625 64.359375 26.78125 53.3125 
Q 30.421875 42.28125 30.421875 31.390625 
Q 30.421875 20.453125 26.78125 9.375 
Q 23.140625 -1.703125 15.828125 -13.1875 
L 8.015625 -13.1875 
Q 14.5 -2 17.703125 9.0625 
Q 20.90625 20.125 20.90625 31.390625 
Q 20.90625 42.671875 17.703125 53.65625 
Q 14.5 64.65625 8.015625 75.875 
z
" id="DejaVuSans-41"/>
     <path id="DejaVuSans-32"/>
     <path d="M 53.515625 70.515625 
L 53.515625 60.890625 
Q 47.90625 63.578125 42.921875 64.890625 
Q 37.9375 66.21875 33.296875 66.21875 
Q 25.25 66.21875 20.875 63.09375 
Q 16.5 59.96875 16.5 54.203125 
Q 16.5 49.359375 19.40625 46.890625 
Q 22.3125 44.4375 30.421875 42.921875 
L 36.375 41.703125 
Q 47.40625 39.59375 52.65625 34.296875 
Q 57.90625 29 57.90625 20.125 
Q 57.90625 9.515625 50.796875 4.046875 
Q 43.703125 -1.421875 29.984375 -1.421875 
Q 24.8125 -1.421875 18.96875 -0.25 
Q 13.140625 0.921875 6.890625 3.21875 
L 6.890625 13.375 
Q 12.890625 10.015625 18.65625 8.296875 
Q 24.421875 6.59375 29.984375 6.59375 
Q 38.421875 6.59375 43.015625 9.90625 
Q 47.609375 13.234375 47.609375 19.390625 
Q 47.609375 24.75 44.3125 27.78125 
Q 41.015625 30.8125 33.5 32.328125 
L 27.484375 33.5 
Q 16.453125 35.6875 11.515625 40.375 
Q 6.59375 45.0625 6.59375 53.421875 
Q 6.59375 63.09375 13.40625 68.65625 
Q 20.21875 74.21875 32.171875 74.21875 
Q 37.3125 74.21875 42.625 73.28125 
Q 47.953125 72.359375 53.515625 70.515625 
z
" id="DejaVuSans-83"/>
     <path d="M 8.5 21.578125 
L 8.5 54.6875 
L 17.484375 54.6875 
L 17.484375 21.921875 
Q 17.484375 14.15625 20.5 10.265625 
Q 23.53125 6.390625 29.59375 6.390625 
Q 36.859375 6.390625 41.078125 11.03125 
Q 45.3125 15.671875 45.3125 23.6875 
L 45.3125 54.6875 
L 54.296875 54.6875 
L 54.296875 0 
L 45.3125 0 
L 45.3125 8.40625 
Q 42.046875 3.421875 37.71875 1 
Q 33.40625 -1.421875 27.6875 -1.421875 
Q 18.265625 -1.421875 13.375 4.4375 
Q 8.5 10.296875 8.5 21.578125 
z
M 31.109375 56 
z
" id="DejaVuSans-117"/>
     <path d="M 48.6875 27.296875 
Q 48.6875 37.203125 44.609375 42.84375 
Q 40.53125 48.484375 33.40625 48.484375 
Q 26.265625 48.484375 22.1875 42.84375 
Q 18.109375 37.203125 18.109375 27.296875 
Q 18.109375 17.390625 22.1875 11.75 
Q 26.265625 6.109375 33.40625 6.109375 
Q 40.53125 6.109375 44.609375 11.75 
Q 48.6875 17.390625 48.6875 27.296875 
z
M 18.109375 46.390625 
Q 20.953125 51.265625 25.265625 53.625 
Q 29.59375 56 35.59375 56 
Q 45.5625 56 51.78125 48.09375 
Q 58.015625 40.1875 58.015625 27.296875 
Q 58.015625 14.40625 51.78125 6.484375 
Q 45.5625 -1.421875 35.59375 -1.421875 
Q 29.59375 -1.421875 25.265625 0.953125 
Q 20.953125 3.328125 18.109375 8.203125 
L 18.109375 0 
L 9.078125 0 
L 9.078125 75.984375 
L 18.109375 75.984375 
z
" id="DejaVuSans-98"/>
     <path d="M 9.421875 54.6875 
L 18.40625 54.6875 
L 18.40625 -0.984375 
Q 18.40625 -11.421875 14.421875 -16.109375 
Q 10.453125 -20.796875 1.609375 -20.796875 
L -1.8125 -20.796875 
L -1.8125 -13.1875 
L 0.59375 -13.1875 
Q 5.71875 -13.1875 7.5625 -10.8125 
Q 9.421875 -8.453125 9.421875 -0.984375 
z
M 9.421875 75.984375 
L 18.40625 75.984375 
L 18.40625 64.59375 
L 9.421875 64.59375 
z
" id="DejaVuSans-106"/>
     <path d="M 56.203125 29.59375 
L 56.203125 25.203125 
L 14.890625 25.203125 
Q 15.484375 15.921875 20.484375 11.0625 
Q 25.484375 6.203125 34.421875 6.203125 
Q 39.59375 6.203125 44.453125 7.46875 
Q 49.3125 8.734375 54.109375 11.28125 
L 54.109375 2.78125 
Q 49.265625 0.734375 44.1875 -0.34375 
Q 39.109375 -1.421875 33.890625 -1.421875 
Q 20.796875 -1.421875 13.15625 6.1875 
Q 5.515625 13.8125 5.515625 26.8125 
Q 5.515625 40.234375 12.765625 48.109375 
Q 20.015625 56 32.328125 56 
Q 43.359375 56 49.78125 48.890625 
Q 56.203125 41.796875 56.203125 29.59375 
z
M 47.21875 32.234375 
Q 47.125 39.59375 43.09375 43.984375 
Q 39.0625 48.390625 32.421875 48.390625 
Q 24.90625 48.390625 20.390625 44.140625 
Q 15.875 39.890625 15.1875 32.171875 
z
" id="DejaVuSans-101"/>
     <path d="M 48.78125 52.59375 
L 48.78125 44.1875 
Q 44.96875 46.296875 41.140625 47.34375 
Q 37.3125 48.390625 33.40625 48.390625 
Q 24.65625 48.390625 19.8125 42.84375 
Q 14.984375 37.3125 14.984375 27.296875 
Q 14.984375 17.28125 19.8125 11.734375 
Q 24.65625 6.203125 33.40625 6.203125 
Q 37.3125 6.203125 41.140625 7.25 
Q 44.96875 8.296875 48.78125 10.40625 
L 48.78125 2.09375 
Q 45.015625 0.34375 40.984375 -0.53125 
Q 36.96875 -1.421875 32.421875 -1.421875 
Q 20.0625 -1.421875 12.78125 6.34375 
Q 5.515625 14.109375 5.515625 27.296875 
Q 5.515625 40.671875 12.859375 48.328125 
Q 20.21875 56 33.015625 56 
Q 37.15625 56 41.109375 55.140625 
Q 45.0625 54.296875 48.78125 52.59375 
z
" id="DejaVuSans-99"/>
     <path d="M 18.3125 70.21875 
L 18.3125 54.6875 
L 36.8125 54.6875 
L 36.8125 47.703125 
L 18.3125 47.703125 
L 18.3125 18.015625 
Q 18.3125 11.328125 20.140625 9.421875 
Q 21.96875 7.515625 27.59375 7.515625 
L 36.8125 7.515625 
L 36.8125 0 
L 27.59375 0 
Q 17.1875 0 13.234375 3.875 
Q 9.28125 7.765625 9.28125 18.015625 
L 9.28125 47.703125 
L 2.6875 47.703125 
L 2.6875 54.6875 
L 9.28125 54.6875 
L 9.28125 70.21875 
z
" id="DejaVuSans-116"/>
     <path d="M 11.71875 12.40625 
L 22.015625 12.40625 
L 22.015625 0 
L 11.71875 0 
z
M 11.71875 51.703125 
L 22.015625 51.703125 
L 22.015625 39.3125 
L 11.71875 39.3125 
z
" id="DejaVuSans-58"/>
     <path d="M 44.28125 53.078125 
L 44.28125 44.578125 
Q 40.484375 46.53125 36.375 47.5 
Q 32.28125 48.484375 27.875 48.484375 
Q 21.1875 48.484375 17.84375 46.4375 
Q 14.5 44.390625 14.5 40.28125 
Q 14.5 37.15625 16.890625 35.375 
Q 19.28125 33.59375 26.515625 31.984375 
L 29.59375 31.296875 
Q 39.15625 29.25 43.1875 25.515625 
Q 47.21875 21.78125 47.21875 15.09375 
Q 47.21875 7.46875 41.1875 3.015625 
Q 35.15625 -1.421875 24.609375 -1.421875 
Q 20.21875 -1.421875 15.453125 -0.5625 
Q 10.6875 0.296875 5.421875 2 
L 5.421875 11.28125 
Q 10.40625 8.6875 15.234375 7.390625 
Q 20.0625 6.109375 24.8125 6.109375 
Q 31.15625 6.109375 34.5625 8.28125 
Q 37.984375 10.453125 37.984375 14.40625 
Q 37.984375 18.0625 35.515625 20.015625 
Q 33.0625 21.96875 24.703125 23.78125 
L 21.578125 24.515625 
Q 13.234375 26.265625 9.515625 29.90625 
Q 5.8125 33.546875 5.8125 39.890625 
Q 5.8125 47.609375 11.28125 51.796875 
Q 16.75 56 26.8125 56 
Q 31.78125 56 36.171875 55.265625 
Q 40.578125 54.546875 44.28125 53.078125 
z
" id="DejaVuSans-115"/>
     <path d="M 40.578125 39.3125 
Q 47.65625 37.796875 51.625 33 
Q 55.609375 28.21875 55.609375 21.1875 
Q 55.609375 10.40625 48.1875 4.484375 
Q 40.765625 -1.421875 27.09375 -1.421875 
Q 22.515625 -1.421875 17.65625 -0.515625 
Q 12.796875 0.390625 7.625 2.203125 
L 7.625 11.71875 
Q 11.71875 9.328125 16.59375 8.109375 
Q 21.484375 6.890625 26.8125 6.890625 
Q 36.078125 6.890625 40.9375 10.546875 
Q 45.796875 14.203125 45.796875 21.1875 
Q 45.796875 27.640625 41.28125 31.265625 
Q 36.765625 34.90625 28.71875 34.90625 
L 20.21875 34.90625 
L 20.21875 43.015625 
L 29.109375 43.015625 
Q 36.375 43.015625 40.234375 45.921875 
Q 44.09375 48.828125 44.09375 54.296875 
Q 44.09375 59.90625 40.109375 62.90625 
Q 36.140625 65.921875 28.71875 65.921875 
Q 24.65625 65.921875 20.015625 65.03125 
Q 15.375 64.15625 9.8125 62.3125 
L 9.8125 71.09375 
Q 15.4375 72.65625 20.34375 73.4375 
Q 25.25 74.21875 29.59375 74.21875 
Q 40.828125 74.21875 47.359375 69.109375 
Q 53.90625 64.015625 53.90625 55.328125 
Q 53.90625 49.265625 50.4375 45.09375 
Q 46.96875 40.921875 40.578125 39.3125 
z
" id="DejaVuSans-51"/>
     <path d="M 11.71875 12.40625 
L 22.015625 12.40625 
L 22.015625 4 
L 14.015625 -11.625 
L 7.71875 -11.625 
L 11.71875 4 
z
" id="DejaVuSans-44"/>
     <path d="M 9.8125 72.90625 
L 19.671875 72.90625 
L 19.671875 42.09375 
L 52.390625 72.90625 
L 65.09375 72.90625 
L 28.90625 38.921875 
L 67.671875 0 
L 54.6875 0 
L 19.671875 35.109375 
L 19.671875 0 
L 9.8125 0 
z
" id="DejaVuSans-75"/>
     <path d="M 54.890625 33.015625 
L 54.890625 0 
L 45.90625 0 
L 45.90625 32.71875 
Q 45.90625 40.484375 42.875 44.328125 
Q 39.84375 48.1875 33.796875 48.1875 
Q 26.515625 48.1875 22.3125 43.546875 
Q 18.109375 38.921875 18.109375 30.90625 
L 18.109375 0 
L 9.078125 0 
L 9.078125 54.6875 
L 18.109375 54.6875 
L 18.109375 46.1875 
Q 21.34375 51.125 25.703125 53.5625 
Q 30.078125 56 35.796875 56 
Q 45.21875 56 50.046875 50.171875 
Q 54.890625 44.34375 54.890625 33.015625 
z
" id="DejaVuSans-110"/>
     <path d="M 30.609375 48.390625 
Q 23.390625 48.390625 19.1875 42.75 
Q 14.984375 37.109375 14.984375 27.296875 
Q 14.984375 17.484375 19.15625 11.84375 
Q 23.34375 6.203125 30.609375 6.203125 
Q 37.796875 6.203125 41.984375 11.859375 
Q 46.1875 17.53125 46.1875 27.296875 
Q 46.1875 37.015625 41.984375 42.703125 
Q 37.796875 48.390625 30.609375 48.390625 
z
M 30.609375 56 
Q 42.328125 56 49.015625 48.375 
Q 55.71875 40.765625 55.71875 27.296875 
Q 55.71875 13.875 49.015625 6.21875 
Q 42.328125 -1.421875 30.609375 -1.421875 
Q 18.84375 -1.421875 12.171875 6.21875 
Q 5.515625 13.875 5.515625 27.296875 
Q 5.515625 40.765625 12.171875 48.375 
Q 18.84375 56 30.609375 56 
z
" id="DejaVuSans-111"/>
     <path d="M 4.203125 54.6875 
L 13.1875 54.6875 
L 24.421875 12.015625 
L 35.59375 54.6875 
L 46.1875 54.6875 
L 57.421875 12.015625 
L 68.609375 54.6875 
L 77.59375 54.6875 
L 63.28125 0 
L 52.6875 0 
L 40.921875 44.828125 
L 29.109375 0 
L 18.5 0 
z
" id="DejaVuSans-119"/>
     <path d="M 10.59375 45.40625 
L 73.1875 45.40625 
L 73.1875 37.203125 
L 10.59375 37.203125 
z
M 10.59375 25.484375 
L 73.1875 25.484375 
L 73.1875 17.1875 
L 10.59375 17.1875 
z
" id="DejaVuSans-61"/>
     <path d="M 9.8125 72.90625 
L 51.703125 72.90625 
L 51.703125 64.59375 
L 19.671875 64.59375 
L 19.671875 43.109375 
L 48.578125 43.109375 
L 48.578125 34.8125 
L 19.671875 34.8125 
L 19.671875 0 
L 9.8125 0 
z
" id="DejaVuSans-70"/>
     <path d="M 34.28125 27.484375 
Q 23.390625 27.484375 19.1875 25 
Q 14.984375 22.515625 14.984375 16.5 
Q 14.984375 11.71875 18.140625 8.90625 
Q 21.296875 6.109375 26.703125 6.109375 
Q 34.1875 6.109375 38.703125 11.40625 
Q 43.21875 16.703125 43.21875 25.484375 
L 43.21875 27.484375 
z
M 52.203125 31.203125 
L 52.203125 0 
L 43.21875 0 
L 43.21875 8.296875 
Q 40.140625 3.328125 35.546875 0.953125 
Q 30.953125 -1.421875 24.3125 -1.421875 
Q 15.921875 -1.421875 10.953125 3.296875 
Q 6 8.015625 6 15.921875 
Q 6 25.140625 12.171875 29.828125 
Q 18.359375 34.515625 30.609375 34.515625 
L 43.21875 34.515625 
L 43.21875 35.40625 
Q 43.21875 41.609375 39.140625 45 
Q 35.0625 48.390625 27.6875 48.390625 
Q 23 48.390625 18.546875 47.265625 
Q 14.109375 46.140625 10.015625 43.890625 
L 10.015625 52.203125 
Q 14.9375 54.109375 19.578125 55.046875 
Q 24.21875 56 28.609375 56 
Q 40.484375 56 46.34375 49.84375 
Q 52.203125 43.703125 52.203125 31.203125 
z
" id="DejaVuSans-97"/>
     <path d="M 9.421875 75.984375 
L 18.40625 75.984375 
L 18.40625 0 
L 9.421875 0 
z
" id="DejaVuSans-108"/>
     <path d="M 19.671875 64.796875 
L 19.671875 8.109375 
L 31.59375 8.109375 
Q 46.6875 8.109375 53.6875 14.9375 
Q 60.6875 21.78125 60.6875 36.53125 
Q 60.6875 51.171875 53.6875 57.984375 
Q 46.6875 64.796875 31.59375 64.796875 
z
M 9.8125 72.90625 
L 30.078125 72.90625 
Q 51.265625 72.90625 61.171875 64.09375 
Q 71.09375 55.28125 71.09375 36.53125 
Q 71.09375 17.671875 61.125 8.828125 
Q 51.171875 0 30.078125 0 
L 9.8125 0 
z
" id="DejaVuSans-68"/>
     <path d="M 45.40625 27.984375 
Q 45.40625 37.75 41.375 43.109375 
Q 37.359375 48.484375 30.078125 48.484375 
Q 22.859375 48.484375 18.828125 43.109375 
Q 14.796875 37.75 14.796875 27.984375 
Q 14.796875 18.265625 18.828125 12.890625 
Q 22.859375 7.515625 30.078125 7.515625 
Q 37.359375 7.515625 41.375 12.890625 
Q 45.40625 18.265625 45.40625 27.984375 
z
M 54.390625 6.78125 
Q 54.390625 -7.171875 48.1875 -13.984375 
Q 42 -20.796875 29.203125 -20.796875 
Q 24.46875 -20.796875 20.265625 -20.09375 
Q 16.0625 -19.390625 12.109375 -17.921875 
L 12.109375 -9.1875 
Q 16.0625 -11.328125 19.921875 -12.34375 
Q 23.78125 -13.375 27.78125 -13.375 
Q 36.625 -13.375 41.015625 -8.765625 
Q 45.40625 -4.15625 45.40625 5.171875 
L 45.40625 9.625 
Q 42.625 4.78125 38.28125 2.390625 
Q 33.9375 0 27.875 0 
Q 17.828125 0 11.671875 7.65625 
Q 5.515625 15.328125 5.515625 27.984375 
Q 5.515625 40.671875 11.671875 48.328125 
Q 17.828125 56 27.875 56 
Q 33.9375 56 38.28125 53.609375 
Q 42.625 51.21875 45.40625 46.390625 
L 45.40625 54.6875 
L 54.390625 54.6875 
z
" id="DejaVuSans-103"/>
     <path d="M 41.109375 46.296875 
Q 39.59375 47.171875 37.8125 47.578125 
Q 36.03125 48 33.890625 48 
Q 26.265625 48 22.1875 43.046875 
Q 18.109375 38.09375 18.109375 28.8125 
L 18.109375 0 
L 9.078125 0 
L 9.078125 54.6875 
L 18.109375 54.6875 
L 18.109375 46.1875 
Q 20.953125 51.171875 25.484375 53.578125 
Q 30.03125 56 36.53125 56 
Q 37.453125 56 38.578125 55.875 
Q 39.703125 55.765625 41.0625 55.515625 
z
" id="DejaVuSans-114"/>
     <path d="M 9.421875 54.6875 
L 18.40625 54.6875 
L 18.40625 0 
L 9.421875 0 
z
M 9.421875 75.984375 
L 18.40625 75.984375 
L 18.40625 64.59375 
L 9.421875 64.59375 
z
" id="DejaVuSans-105"/>
     <path d="M 10.6875 12.40625 
L 21 12.40625 
L 21 0 
L 10.6875 0 
z
" id="DejaVuSans-46"/>
    </defs>
    <g transform="translate(49.741875 35.472)scale(0.12 -0.12)">
     <use xlink:href="#DejaVuSans-40"/>
     <use x="39.013672" xlink:href="#DejaVuSans-49"/>
     <use x="102.636719" xlink:href="#DejaVuSans-50"/>
     <use x="166.259766" xlink:href="#DejaVuSans-57"/>
     <use x="229.882812" xlink:href="#DejaVuSans-41"/>
     <use x="268.896484" xlink:href="#DejaVuSans-32"/>
     <use x="300.683594" xlink:href="#DejaVuSans-83"/>
     <use x="364.160156" xlink:href="#DejaVuSans-117"/>
     <use x="427.539062" xlink:href="#DejaVuSans-98"/>
     <use x="491.015625" xlink:href="#DejaVuSans-106"/>
     <use x="518.798828" xlink:href="#DejaVuSans-101"/>
     <use x="580.322266" xlink:href="#DejaVuSans-99"/>
     <use x="635.302734" xlink:href="#DejaVuSans-116"/>
     <use x="674.511719" xlink:href="#DejaVuSans-58"/>
     <use x="708.203125" xlink:href="#DejaVuSans-32"/>
     <use x="739.990234" xlink:href="#DejaVuSans-115"/>
     <use x="792.089844" xlink:href="#DejaVuSans-51"/>
     <use x="855.712891" xlink:href="#DejaVuSans-44"/>
     <use x="887.5" xlink:href="#DejaVuSans-32"/>
     <use x="919.287109" xlink:href="#DejaVuSans-75"/>
     <use x="984.863281" xlink:href="#DejaVuSans-110"/>
     <use x="1048.242188" xlink:href="#DejaVuSans-111"/>
     <use x="1109.423828" xlink:href="#DejaVuSans-119"/>
     <use x="1191.210938" xlink:href="#DejaVuSans-110"/>
     <use x="1254.589844" xlink:href="#DejaVuSans-32"/>
     <use x="1286.376953" xlink:href="#DejaVuSans-61"/>
     <use x="1370.166016" xlink:href="#DejaVuSans-32"/>
     <use x="1401.953125" xlink:href="#DejaVuSans-70"/>
     <use x="1459.332031" xlink:href="#DejaVuSans-97"/>
     <use x="1520.611328" xlink:href="#DejaVuSans-108"/>
     <use x="1548.394531" xlink:href="#DejaVuSans-115"/>
     <use x="1600.494141" xlink:href="#DejaVuSans-101"/>
     <use x="1662.017578" xlink:href="#DejaVuSans-44"/>
     <use x="1693.804688" xlink:href="#DejaVuSans-32"/>
     <use x="1725.591797" xlink:href="#DejaVuSans-68"/>
     <use x="1802.59375" xlink:href="#DejaVuSans-101"/>
     <use x="1864.117188" xlink:href="#DejaVuSans-103"/>
     <use x="1927.59375" xlink:href="#DejaVuSans-114"/>
     <use x="1968.675781" xlink:href="#DejaVuSans-101"/>
     <use x="2030.199219" xlink:href="#DejaVuSans-101"/>
     <use x="2091.722656" xlink:href="#DejaVuSans-32"/>
     <use x="2123.509766" xlink:href="#DejaVuSans-61"/>
     <use x="2207.298828" xlink:href="#DejaVuSans-32"/>
     <use x="2239.085938" xlink:href="#DejaVuSans-50"/>
     <use x="2302.708984" xlink:href="#DejaVuSans-44"/>
     <use x="2334.496094" xlink:href="#DejaVuSans-32"/>
     <use x="2366.283203" xlink:href="#DejaVuSans-68"/>
     <use x="2443.285156" xlink:href="#DejaVuSans-117"/>
     <use x="2506.664062" xlink:href="#DejaVuSans-114"/>
     <use x="2547.777344" xlink:href="#DejaVuSans-97"/>
     <use x="2609.056641" xlink:href="#DejaVuSans-116"/>
     <use x="2648.265625" xlink:href="#DejaVuSans-105"/>
     <use x="2676.048828" xlink:href="#DejaVuSans-111"/>
     <use x="2737.230469" xlink:href="#DejaVuSans-110"/>
     <use x="2800.609375" xlink:href="#DejaVuSans-32"/>
     <use x="2832.396484" xlink:href="#DejaVuSans-61"/>
     <use x="2916.185547" xlink:href="#DejaVuSans-32"/>
     <use x="2947.972656" xlink:href="#DejaVuSans-48"/>
     <use x="3011.595703" xlink:href="#DejaVuSans-46"/>
     <use x="3043.382812" xlink:href="#DejaVuSans-49"/>
    </g>
   </g>
  </g>
 </g>
 <defs>
  <clipPath id="pcd9737a2e5">
   <rect height="266.112" width="357.12" x="57.6" y="41.472"/>
  </clipPath>
 </defs>
</svg>
