<?xml version="1.0" encoding="utf-8" standalone="no"?>
<!DOCTYPE svg PUBLIC "-//W3C//DTD SVG 1.1//EN"
  "http://www.w3.org/Graphics/SVG/1.1/DTD/svg11.dtd">
<!-- Created with matplotlib (https://matplotlib.org/) -->
<svg height="345.6pt" version="1.1" viewBox="0 0 460.8 345.6" width="460.8pt" xmlns="http://www.w3.org/2000/svg" xmlns:xlink="http://www.w3.org/1999/xlink">
 <defs>
  <style type="text/css">
*{stroke-linecap:butt;stroke-linejoin:round;}
  </style>
 </defs>
 <g id="figure_1">
  <g id="patch_1">
   <path d="M 0 345.6 
L 460.8 345.6 
L 460.8 0 
L 0 0 
z
" style="fill:#ffffff;"/>
  </g>
  <g id="axes_1">
   <g id="patch_2">
    <path d="M 57.6 307.584 
L 414.72 307.584 
L 414.72 41.472 
L 57.6 41.472 
z
" style="fill:#ffffff;"/>
   </g>
   <g id="line2d_1">
    <path clip-path="url(#p3ccc833c7b)" d="M 397.909991 64.991944 
L 398.007685 64.836516 
L 397.909991 64.219873 
L 397.62283 64.066135 
L 397.720524 64.066135 
L 397.528096 64.529039 
L 397.815257 64.373611 
L 397.815257 63.294064 
L 398.294845 62.521993 
L 398.200112 62.831159 
L 398.200112 62.984898 
L 398.102418 62.984898 
L 398.007685 62.984898 
L 397.909991 63.601541 
L 397.528096 62.675732 
L 397.815257 62.366565 
L 397.720524 62.059089 
L 397.720524 62.059089 
L 397.815257 61.749922 
L 398.102418 61.287018 
L 397.815257 61.594495 
L 397.62283 61.440756 
L 397.62283 61.13159 
L 397.815257 60.977852 
L 397.815257 60.977852 
L 397.62283 60.977852 
L 397.62283 60.977852 
L 397.62283 60.824113 
L 397.528096 61.13159 
L 397.433363 61.440756 
L 397.62283 60.977852 
L 397.528096 60.668685 
L 397.528096 60.668685 
L 397.815257 59.742876 
L 397.62283 59.587449 
L 397.62283 59.587449 
L 397.720524 59.43371 
L 397.909991 59.43371 
L 398.007685 59.279972 
L 397.433363 60.052043 
L 397.720524 59.742876 
L 397.62283 59.43371 
L 397.909991 58.817067 
L 398.007685 58.661639 
L 397.909991 60.205781 
L 397.720524 60.052043 
L 397.720524 59.587449 
L 398.007685 58.507901 
L 397.815257 59.124544 
L 397.909991 57.889569 
L 397.909991 58.817067 
L 398.102418 58.817067 
L 398.102418 57.582092 
L 398.007685 57.889569 
L 397.815257 58.661639 
L 398.007685 58.198735 
L 398.200112 58.044997 
L 398.294845 58.352473 
L 398.102418 57.889569 
L 397.909991 57.889569 
L 397.909991 58.198735 
L 398.102418 58.198735 
L 398.102418 57.889569 
L 397.815257 57.426664 
L 397.909991 57.582092 
L 397.815257 58.198735 
L 397.815257 58.352473 
L 398.102418 58.044997 
L 398.102418 57.426664 
L 398.294845 57.272926 
L 398.200112 57.117498 
L 397.815257 57.426664 
L 397.815257 57.426664 
L 397.909991 57.426664 
L 398.200112 57.73583 
L 398.102418 57.582092 
L 397.909991 57.272926 
L 397.815257 57.272926 
L 397.528096 56.96376 
L 397.62283 56.810021 
L 398.102418 57.426664 
L 398.007685 57.582092 
L 398.007685 57.426664 
L 398.007685 57.272926 
L 398.007685 57.73583 
L 397.909991 57.426664 
L 397.815257 56.810021 
L 397.528096 56.345427 
L 397.909991 56.037951 
L 397.909991 56.037951 
L 398.294845 56.037951 
L 398.487273 55.882523 
L 398.389579 55.882523 
L 397.909991 55.728784 
L 397.815257 55.728784 
L 397.62283 56.345427 
L 397.720524 56.500855 
L 398.200112 55.882523 
L 398.200112 55.882523 
L 397.909991 56.037951 
L 397.720524 55.575046 
L 397.909991 55.110452 
L 397.815257 55.419618 
L 397.720524 55.110452 
L 397.720524 55.110452 
L 397.62283 55.575046 
L 397.62283 55.110452 
L 397.528096 54.493809 
L 397.720524 54.493809 
L 397.815257 54.184643 
L 397.720524 54.802975 
L 397.720524 55.110452 
L 397.62283 54.802975 
L 397.528096 54.338381 
L 397.720524 54.030905 
L 398.102418 54.030905 
L 398.007685 54.184643 
L 397.62283 54.338381 
L 397.720524 54.184643 
L 397.720524 53.875477 
L 397.528096 53.568 
L 397.528096 53.568 
L 398.007685 53.568 
L 398.200112 53.721738 
L 398.102418 53.875477 
L 397.909991 53.875477 
L 397.720524 54.338381 
L 397.815257 53.875477 
L 397.433363 53.568 
L 397.433363 53.721738 
L 397.62283 53.875477 
L 398.102418 53.875477 
L 398.007685 54.184643 
L 397.815257 54.338381 
L 397.62283 54.338381 
L 397.62283 54.338381 
L 397.433363 54.493809 
L 397.240936 54.802975 
L 397.335669 54.493809 
L 397.335669 54.338381 
L 397.240936 54.338381 
L 397.146202 54.338381 
L 397.048508 54.493809 
L 396.953775 54.956714 
L 397.240936 55.575046 
L 397.335669 55.882523 
L 397.335669 55.728784 
L 397.528096 55.110452 
L 397.433363 54.956714 
L 397.240936 55.110452 
L 396.953775 55.728784 
L 397.240936 56.654593 
L 397.048508 56.654593 
L 396.859041 55.575046 
L 396.761347 55.882523 
L 395.23081 56.654593 
L 393.984473 56.96376 
L 392.548669 56.810021 
L 390.633276 56.810021 
L 385.556155 57.117498 
L 382.204958 56.810021 
L 378.759029 56.654593 
L 375.022978 56.810021 
L 370.810299 57.272926 
L 366.405193 57.889569 
L 358.358769 59.279972 
L 354.433251 59.587449 
L 350.028145 59.742876 
L 345.238184 60.052043 
L 340.451184 60.514947 
L 335.85365 61.13159 
L 331.448544 61.440756 
L 322.445904 61.749922 
L 317.848371 62.675732 
L 308.848692 64.836516 
L 299.940786 66.536085 
L 295.248519 67.77106 
L 285.958718 70.550177 
L 276.956079 72.710962 
L 272.645706 73.945937 
L 268.338294 75.027174 
L 264.027921 75.952983 
L 251.481658 79.657909 
L 247.748567 80.892884 
L 243.917783 82.283287 
L 228.976539 87.06945 
L 225.432915 88.611902 
L 222.176452 90.465209 
L 219.20715 92.318517 
L 216.335542 93.860969 
L 211.356114 96.33092 
L 209.153561 97.875061 
L 207.332903 99.728369 
L 203.789279 103.742461 
L 201.204832 106.212411 
L 200.343349 107.13822 
L 199.5766 108.528623 
L 198.809851 110.535669 
L 198.140796 113.777691 
L 197.853635 114.549762 
L 197.661208 115.475571 
L 197.563514 118.408426 
L 197.661208 119.643401 
L 197.563514 120.724638 
L 197.374047 121.496709 
L 197.276353 122.422518 
L 197.374047 123.348327 
L 197.661208 124.73873 
L 197.755941 125.973705 
L 197.661208 126.590348 
L 197.276353 127.20868 
L 197.18162 127.671585 
L 197.374047 129.369465 
L 196.989192 129.678631 
L 196.799725 130.450702 
L 196.989192 132.611486 
L 196.894459 132.920652 
L 196.894459 133.692723 
L 196.894459 133.538985 
L 196.607298 133.846461 
L 196.512565 134.464794 
L 196.702032 134.618532 
L 196.989192 134.618532 
L 197.276353 134.77396 
L 197.276353 134.927698 
L 197.086886 135.081437 
L 196.894459 135.390603 
L 196.989192 136.781006 
L 197.086886 136.934744 
L 197.276353 136.934744 
L 197.563514 136.781006 
L 197.18162 137.088483 
L 197.086886 137.553077 
L 197.18162 137.553077 
L 197.086886 137.553077 
L 197.374047 138.478886 
L 197.563514 138.478886 
L 197.661208 138.323458 
L 197.563514 138.16972 
L 197.563514 138.16972 
L 197.468781 138.323458 
L 197.563514 138.478886 
L 197.468781 138.478886 
L 197.374047 138.478886 
L 197.468781 138.478886 
L 197.563514 138.632624 
L 197.563514 139.250957 
L 197.661208 139.250957 
L 198.23553 139.560123 
L 198.043102 140.023027 
L 197.948369 140.023027 
L 197.468781 139.404695 
L 197.948369 140.023027 
L 198.330263 140.176766 
L 197.755941 140.485932 
L 197.755941 140.63967 
L 198.043102 140.795098 
L 198.23553 141.102575 
L 198.427957 141.102575 
L 198.23553 141.102575 
L 198.23553 141.411741 
L 198.140796 140.485932 
L 198.23553 140.948836 
L 197.853635 140.948836 
L 197.948369 140.795098 
L 198.427957 141.102575 
L 198.52269 141.720907 
L 198.427957 141.874645 
L 198.427957 141.874645 
L 198.330263 140.795098 
L 198.330263 141.567169 
L 198.23553 141.411741 
L 198.330263 141.102575 
L 198.617424 141.102575 
L 198.617424 141.411741 
L 198.427957 141.567169 
L 198.427957 141.567169 
L 198.52269 142.030073 
L 198.715118 142.030073 
L 199.002279 142.183812 
L 198.809851 141.720907 
L 198.617424 141.720907 
L 198.715118 141.874645 
L 198.904585 141.874645 
L 199.002279 141.720907 
L 198.715118 142.33755 
L 198.715118 142.33755 
L 199.384173 142.33755 
L 199.097012 142.33755 
L 199.002279 142.646716 
L 199.191745 142.183812 
L 199.097012 142.183812 
L 199.002279 142.030073 
L 199.002279 142.183812 
L 199.097012 142.492978 
L 200.343349 141.567169 
L 200.917671 141.874645 
L 201.491992 142.030073 
L 202.161047 141.720907 
L 202.833063 141.258003 
L 203.599812 141.102575 
L 204.363601 141.258003 
L 205.225083 141.567169 
L 206.184259 141.720907 
L 207.238169 142.33755 
L 208.386812 143.265049 
L 210.781793 145.734999 
L 212.02517 146.816236 
L 217.676613 152.528208 
L 218.730523 154.07066 
L 219.973899 155.461063 
L 222.943201 158.24018 
L 227.733162 162.870915 
L 230.797198 166.731268 
L 232.425429 168.892053 
L 234.053661 170.74536 
L 237.020002 173.678215 
L 238.458767 175.376095 
L 240.948481 178.927283 
L 244.10725 184.794682 
L 247.363712 190.814131 
L 248.035728 192.358272 
L 249.663959 196.990697 
L 249.758693 200.07729 
L 250.333015 202.856407 
L 250.140587 205.481785 
L 250.238281 207.951736 
L 249.95112 210.884591 
L 249.95112 211.502923 
L 250.427748 212.891637 
L 250.427748 214.898683 
L 250.620175 215.824492 
L 250.427748 217.059467 
L 250.907336 219.066513 
L 250.714909 219.994012 
L 250.812603 220.456916 
L 251.00207 220.766083 
L 250.907336 221.382726 
L 250.714909 221.691892 
L 250.620175 222.617701 
L 250.714909 223.698938 
L 250.812603 224.161842 
L 250.620175 224.624747 
L 250.427748 224.780175 
L 250.525442 224.933913 
L 250.812603 225.087651 
L 251.00207 226.01515 
L 251.099763 225.859722 
L 251.386924 226.01515 
L 251.481658 226.631793 
L 251.481658 226.787221 
L 251.386924 226.478054 
L 251.386924 226.478054 
L 251.00207 227.557602 
L 251.194497 227.866768 
L 251.292191 227.557602 
L 251.292191 227.557602 
L 251.481658 227.557602 
L 251.768819 227.866768 
L 251.768819 228.175934 
L 251.579352 228.329673 
L 251.386924 228.329673 
L 251.194497 228.4851 
L 251.194497 228.638839 
L 251.674085 228.329673 
L 251.768819 228.794267 
L 251.674085 229.873814 
L 251.768819 229.873814 
L 252.055979 229.720076 
L 251.961246 230.18298 
L 251.866512 230.336719 
L 251.961246 230.955051 
L 252.153673 230.492146 
L 252.248407 230.645885 
L 252.153673 230.955051 
L 252.248407 230.955051 
L 252.34314 231.264217 
L 252.34314 231.108789 
L 252.440834 230.645885 
L 252.34314 231.417956 
L 252.248407 231.727122 
L 252.34314 231.727122 
L 252.535568 231.727122 
L 252.630301 232.036288 
L 252.535568 232.036288 
L 252.153673 231.417956 
L 251.961246 231.88086 
L 251.961246 232.806669 
L 252.535568 232.806669 
L 252.630301 232.499192 
L 252.822728 232.499192 
L 252.630301 232.962097 
L 251.961246 233.887906 
L 252.055979 233.271263 
L 252.055979 233.734168 
L 252.153673 233.887906 
L 252.34314 233.887906 
L 252.535568 234.043334 
L 252.727995 233.734168 
L 252.727995 233.271263 
L 252.630301 233.734168 
L 252.440834 234.350811 
L 252.630301 233.887906 
L 252.535568 234.197072 
L 252.535568 234.197072 
L 252.440834 234.043334 
L 252.153673 234.043334 
L 252.535568 234.506238 
L 252.727995 234.350811 
L 252.727995 234.043334 
L 252.630301 235.278309 
L 252.535568 235.741214 
L 252.248407 235.894952 
L 251.866512 235.585786 
L 251.194497 235.432048 
L 248.991944 235.894952 
L 247.363712 235.741214 
L 245.546014 235.278309 
L 243.151034 235.122881 
L 230.125182 235.741214 
L 222.176452 236.05038 
L 209.055867 236.05038 
L 204.650761 236.513285 
L 200.343349 236.820761 
L 196.12771 236.820761 
L 188.17898 236.513285 
L 184.253462 236.513285 
L 180.135517 236.667023 
L 175.825144 236.667023 
L 167.109665 236.357857 
L 162.515092 236.357857 
L 152.938131 236.976189 
L 148.245864 237.129927 
L 143.743064 236.976189 
L 139.432691 236.513285 
L 135.125279 236.357857 
L 130.814907 236.513285 
L 126.602228 237.285355 
L 115.397035 240.527377 
L 111.755718 241.91609 
L 108.502215 242.997327 
L 100.263364 245.31185 
L 95.858258 247.318896 
L 93.368544 249.172203 
L 92.604755 249.944274 
L 91.740313 250.560917 
L 91.071258 251.488416 
L 90.784097 252.567963 
L 90.784097 253.495462 
L 91.165991 254.421271 
L 92.027473 255.965412 
L 92.219901 256.582055 
L 92.314634 257.354126 
L 92.604755 258.281624 
L 92.219901 258.744529 
L 92.027473 259.207434 
L 92.027473 259.5166 
L 91.358418 260.596147 
L 91.645579 261.21448 
L 91.740313 261.98655 
L 91.550846 262.140289 
L 91.550846 262.140289 
L 91.838006 262.140289 
L 91.838006 262.603193 
L 92.027473 262.758621 
L 92.219901 262.603193 
L 92.027473 262.603193 
L 91.550846 262.912359 
L 91.453152 263.530692 
L 91.645579 264.147335 
L 91.838006 264.147335 
L 91.93274 263.993596 
L 91.93274 263.993596 
L 92.027473 264.147335 
L 91.838006 263.993596 
L 91.645579 263.993596 
L 91.740313 264.147335 
L 92.027473 264.301073 
L 92.125167 265.845214 
L 92.219901 266.463547 
L 92.125167 265.845214 
L 91.838006 265.691476 
L 91.740313 265.845214 
L 91.838006 266.308119 
L 92.027473 266.617285 
L 92.027473 267.08019 
L 92.125167 267.08019 
L 92.219901 267.08019 
L 92.219901 266.926451 
L 91.838006 266.617285 
L 91.740313 266.926451 
L 91.838006 267.235618 
L 92.027473 267.08019 
L 92.219901 267.08019 
L 92.219901 267.698522 
L 92.027473 267.85226 
L 91.740313 268.315165 
L 91.838006 268.779759 
L 92.125167 268.779759 
L 92.125167 269.859306 
L 92.027473 269.396402 
L 91.740313 269.705568 
L 91.645579 270.014734 
L 91.838006 270.014734 
L 92.125167 269.396402 
L 92.125167 269.55014 
L 92.027473 269.859306 
L 92.125167 269.859306 
L 92.027473 270.322211 
L 91.838006 270.477639 
L 91.838006 270.322211 
L 91.93274 270.322211 
L 92.027473 270.631377 
L 91.838006 270.786805 
L 91.645579 270.786805 
L 92.125167 270.786805 
L 92.125167 270.940543 
L 92.027473 270.940543 
L 91.838006 270.940543 
L 91.740313 271.094282 
L 91.838006 271.094282 
L 92.027473 271.24971 
L 91.645579 271.712614 
L 91.358418 271.712614 
L 91.740313 271.712614 
L 91.645579 272.02178 
L 91.838006 271.712614 
L 92.125167 271.403448 
L 91.838006 271.403448 
L 91.453152 271.712614 
L 91.165991 272.175519 
L 91.263685 272.175519 
L 91.453152 272.175519 
L 91.550846 272.02178 
L 92.125167 273.101328 
L 92.027473 273.256756 
L 92.027473 273.101328 
L 91.93274 272.484685 
L 91.838006 272.484685 
L 91.93274 272.329257 
L 91.838006 272.484685 
L 91.838006 272.793851 
L 92.027473 273.101328 
L 92.314634 273.101328 
L 92.412328 273.256756 
L 92.219901 273.564232 
L 92.027473 273.410494 
L 92.507062 274.028826 
L 92.412328 274.028826 
L 91.838006 274.336303 
L 91.93274 274.336303 
L 92.125167 274.028826 
L 92.027473 273.873398 
L 91.740313 273.873398 
L 91.93274 273.873398 
L 91.838006 274.028826 
L 92.125167 273.564232 
L 91.838006 273.564232 
L 91.838006 273.410494 
L 91.838006 273.410494 
L 91.645579 273.564232 
L 91.93274 273.256756 
L 92.219901 272.947589 
L 92.125167 272.947589 
L 91.838006 272.947589 
L 91.838006 272.638423 
L 91.93274 272.638423 
L 92.027473 272.947589 
L 91.93274 273.101328 
L 91.93274 272.947589 
L 92.219901 271.712614 
L 92.412328 271.712614 
L 92.507062 271.866352 
L 92.412328 272.02178 
L 92.125167 271.866352 
L 91.838006 271.403448 
L 91.838006 270.631377 
L 92.125167 269.242664 
L 92.027473 268.933497 
L 92.314634 267.389356 
L 92.412328 264.610239 
L 92.98665 262.449455 
L 94.902042 256.428317 
L 97.297022 247.165157 
L 100.361058 237.74826 
L 102.178756 230.955051 
L 103.33036 227.403864 
L 106.968717 217.524061 
L 109.938019 204.863453 
L 110.894235 201.004789 
L 112.62016 192.821177 
L 113.67111 189.116251 
L 119.130126 173.987382 
L 122.579016 166.268364 
L 124.207247 162.717176 
L 125.548318 159.319727 
L 127.940338 152.528208 
L 129.281409 149.286187 
L 130.433012 146.197904 
L 131.389228 143.265049 
L 132.348405 140.795098 
L 133.784209 136.318101 
L 134.166103 134.311055 
L 134.645691 129.987797 
L 135.125279 129.369465 
L 135.507173 128.289917 
L 135.507173 127.980751 
L 136.273922 128.289917 
L 136.46635 128.752822 
L 136.46635 128.597394 
L 136.561083 127.671585 
L 136.753511 127.517847 
L 137.135405 127.362419 
L 137.422566 127.517847 
L 137.135405 127.362419 
L 137.040671 127.054942 
L 137.517299 125.819967 
L 137.709727 125.819967 
L 137.709727 125.819967 
L 137.614993 124.73873 
L 137.709727 124.73873 
L 137.902154 124.73873 
L 138.189315 124.583302 
L 137.996887 124.583302 
L 138.091621 123.966659 
L 137.996887 124.275825 
L 138.189315 124.120398 
L 138.091621 124.120398 
L 137.996887 124.120398 
L 137.996887 124.275825 
L 138.091621 124.275825 
L 138.284048 124.120398 
L 138.381742 124.275825 
L 138.189315 124.429564 
L 138.189315 124.275825 
L 138.381742 124.275825 
L 138.381742 124.275825 
L 138.189315 123.657493 
L 138.189315 123.966659 
L 138.189315 124.120398 
L 138.284048 123.348327 
L 138.381742 123.348327 
L 138.571209 123.812921 
L 138.571209 123.503755 
L 138.571209 122.731684 
L 138.571209 123.04085 
L 137.902154 123.04085 
L 137.80446 123.503755 
L 138.091621 123.812921 
L 138.284048 123.194588 
L 138.284048 123.194588 
L 138.476476 123.348327 
L 138.763636 123.194588 
L 138.571209 123.657493 
L 138.571209 123.657493 
L 138.571209 123.348327 
L 138.956064 122.885422 
L 138.956064 123.04085 
L 138.668903 123.194588 
L 138.571209 123.04085 
L 138.668903 122.885422 
L 138.476476 123.04085 
L 138.284048 122.885422 
L 138.668903 123.194588 
L 138.763636 122.885422 
L 138.284048 122.113352 
L 138.381742 122.731684 
L 138.571209 123.194588 
L 138.571209 122.268779 
L 138.668903 122.268779 
L 138.85837 123.04085 
L 138.763636 122.731684 
L 138.571209 122.576256 
L 138.668903 122.576256 
L 138.571209 122.268779 
L 138.571209 122.422518 
L 138.956064 122.422518 
L 138.85837 122.422518 
L 138.85837 122.576256 
L 139.530385 123.04085 
L 139.432691 123.657493 
L 139.243225 123.657493 
L 139.145531 122.885422 
L 139.145531 123.04085 
L 139.719852 123.04085 
L 139.530385 122.885422 
L 139.337958 123.04085 
L 139.432691 123.348327 
L 139.337958 123.04085 
L 139.050797 122.576256 
L 139.243225 122.885422 
L 139.530385 123.812921 
L 139.719852 123.657493 
L 139.817546 123.194588 
L 139.719852 122.576256 
L 139.625119 122.885422 
L 139.432691 123.194588 
L 139.432691 123.503755 
L 139.432691 122.576256 
L 139.337958 122.576256 
L 139.625119 122.113352 
L 140.007013 121.805875 
L 140.297134 121.805875 
L 140.486601 121.959613 
L 140.679029 121.959613 
L 144.222652 121.187542 
L 145.75319 120.5709 
L 147.381421 120.106306 
L 149.20208 119.798829 
L 151.212206 119.334235 
L 153.225292 119.180496 
L 155.330151 119.643401 
L 159.735257 121.187542 
L 162.130238 121.805875 
L 164.717645 122.268779 
L 169.504646 123.812921 
L 171.707199 124.583302 
L 174.196913 125.201634 
L 176.784321 125.973705 
L 179.368768 126.899514 
L 183.871568 128.90656 
L 188.945729 131.839415 
L 191.820298 133.383557 
L 194.597172 135.081437 
L 197.374047 137.243911 
L 200.150922 139.560123 
L 203.120224 142.183812 
L 206.089526 144.500024 
L 208.961134 147.123713 
L 214.325416 152.681946 
L 217.102291 155.151897 
L 219.973899 157.468109 
L 222.656041 160.247226 
L 228.020323 166.422102 
L 238.5535 177.538569 
L 240.850787 180.471424 
L 244.779265 185.87423 
L 249.566266 193.285771 
L 255.697297 205.790951 
L 256.461086 208.105474 
L 257.89985 214.898683 
L 258.568905 216.751991 
L 258.950799 218.603609 
L 259.143227 224.315581 
L 259.622815 227.094697 
L 259.622815 228.4851 
L 259.430388 229.873814 
L 259.430388 230.955051 
L 259.815242 232.962097 
L 259.815242 234.659977 
L 259.143227 238.364903 
L 259.048493 239.44614 
L 259.143227 240.681115 
L 259.430388 241.762352 
L 259.430388 242.841899 
L 258.856066 244.541469 
L 259.240921 245.776444 
L 258.856066 248.553871 
L 258.761332 250.098013 
L 258.376478 250.716345 
L 258.187011 251.642154 
L 258.761332 253.802938 
L 258.568905 253.958366 
L 258.568905 253.802938 
L 258.474172 255.34708 
L 257.994584 256.582055 
L 257.420262 257.200387 
L 257.514995 257.509554 
L 257.802156 257.81703 
L 257.994584 257.81703 
L 258.376478 258.898267 
L 258.281744 258.744529 
L 258.474172 258.744529 
L 258.761332 258.898267 
L 258.663639 259.052006 
L 258.187011 259.052006 
L 258.187011 259.052006 
L 258.474172 259.5166 
L 258.568905 260.133243 
L 258.474172 260.596147 
L 258.376478 260.28867 
L 258.568905 259.824076 
L 258.950799 260.133243 
L 258.856066 260.442409 
L 258.856066 260.442409 
L 258.856066 260.596147 
L 258.950799 260.596147 
L 259.335654 260.28867 
L 259.528081 260.28867 
L 259.240921 260.596147 
L 259.143227 260.28867 
L 259.335654 260.133243 
L 259.335654 260.28867 
L 259.430388 260.28867 
L 259.717548 260.133243 
L 259.717548 259.824076 
L 259.528081 259.824076 
L 259.430388 259.979504 
L 259.622815 260.133243 
L 260.102403 260.133243 
L 260.102403 259.979504 
L 259.909976 259.824076 
L 260.004709 259.979504 
L 259.815242 260.28867 
L 259.909976 260.133243 
L 260.102403 260.133243 
L 260.389564 260.28867 
L 260.29187 260.28867 
L 260.197137 260.442409 
L 260.389564 260.596147 
L 260.579031 260.442409 
L 260.676725 259.979504 
L 260.579031 259.824076 
L 260.579031 259.824076 
L 260.676725 259.5166 
L 260.866192 259.5166 
L 260.963886 259.670338 
L 260.866192 259.670338 
L 260.676725 259.670338 
L 260.676725 258.898267 
L 260.866192 259.052006 
L 260.389564 259.824076 
L 260.197137 259.824076 
L 260.29187 259.670338 
L 260.866192 259.361172 
L 260.771458 259.5166 
L 260.771458 259.670338 
L 260.771458 259.207434 
L 260.771458 259.207434 
L 260.963886 259.207434 
L 261.156313 259.361172 
L 261.156313 258.898267 
L 260.963886 258.744529 
L 260.771458 258.744529 
L 260.963886 258.744529 
L 261.34578 259.052006 
L 261.34578 259.052006 
L 261.251046 258.281624 
L 260.963886 257.972458 
L 261.058619 258.281624 
L 261.730635 258.589101 
L 261.730635 258.589101 
L 261.825368 258.281624 
L 261.538207 259.207434 
L 261.538207 259.052006 
L 261.632941 258.281624 
L 261.443474 258.435363 
L 261.251046 258.744529 
L 261.251046 258.744529 
L 261.538207 259.207434 
L 261.34578 259.052006 
L 261.156313 258.898267 
L 261.156313 258.744529 
L 261.443474 258.898267 
L 261.730635 258.744529 
L 261.34578 258.898267 
L 261.156313 259.207434 
L 261.058619 259.052006 
L 261.443474 259.052006 
L 261.538207 259.207434 
L 261.443474 258.898267 
L 261.156313 258.898267 
L 260.963886 259.361172 
L 261.156313 259.361172 
L 261.251046 258.898267 
L 261.156313 258.435363 
L 261.156313 258.898267 
L 261.156313 259.052006 
L 261.156313 258.744529 
L 261.632941 258.281624 
L 261.443474 258.589101 
L 261.730635 258.435363 
L 261.730635 258.281624 
L 261.632941 258.898267 
L 261.632941 258.898267 
L 261.443474 258.281624 
L 261.251046 258.126197 
L 261.251046 258.281624 
L 261.058619 258.589101 
L 260.771458 258.744529 
L 260.771458 258.589101 
L 261.251046 257.972458 
L 261.058619 258.435363 
L 261.251046 258.589101 
L 261.443474 258.589101 
L 261.443474 258.281624 
L 260.963886 257.81703 
L 261.156313 258.126197 
L 261.058619 258.281624 
L 261.058619 257.972458 
L 261.251046 258.126197 
L 261.443474 258.126197 
L 261.443474 258.126197 
L 261.251046 257.663292 
L 261.538207 257.663292 
L 261.538207 257.81703 
L 261.156313 257.972458 
L 260.963886 257.81703 
L 261.251046 257.509554 
L 261.730635 257.354126 
L 262.112529 257.663292 
L 261.34578 257.200387 
L 261.538207 257.200387 
L 261.825368 257.200387 
L 261.825368 257.354126 
L 261.632941 257.354126 
L 261.443474 257.200387 
L 261.443474 257.509554 
L 261.251046 257.509554 
L 260.004709 257.200387 
L 258.761332 257.200387 
L 255.120015 257.509554 
L 252.727995 257.200387 
L 250.140587 257.354126 
L 247.171285 257.81703 
L 243.917783 258.126197 
L 240.468892 258.126197 
L 233.286912 257.509554 
L 229.2637 257.509554 
L 225.145754 257.663292 
L 220.933076 257.972458 
L 216.717436 258.126197 
L 212.599491 258.126197 
L 208.386812 257.972458 
L 203.981706 258.281624 
L 199.5766 258.435363 
L 195.171494 258.281624 
L 190.861121 257.972458 
L 186.550749 257.972458 
L 177.83823 258.589101 
L 173.527858 258.589101 
L 169.122752 258.435363 
L 164.430485 258.435363 
L 159.54579 258.589101 
L 154.948257 259.207434 
L 136.081495 260.442409 
L 131.676389 260.28867 
L 127.46371 260.442409 
L 119.22782 261.98655 
L 115.204608 263.066098 
L 106.968717 265.537738 
L 102.850772 266.617285 
L 95.668791 268.933497 
L 92.412328 269.859306 
L 89.155865 270.631377 
L 86.09183 271.712614 
L 83.314955 272.947589 
L 78.812155 275.108374 
L 77.183924 275.571278 
L 75.842853 276.189611 
L 74.886637 276.806254 
L 74.025155 277.88749 
L 73.832727 278.350395 
L 73.832727 278.8133 
L 74.214622 279.58537 
L 74.407049 280.048275 
L 74.599476 280.820346 
L 75.173798 281.592416 
L 75.366225 281.592416 
L 75.555692 281.901583 
L 75.653386 282.364487 
L 75.366225 282.982819 
L 75.173798 283.291986 
L 75.079064 283.908629 
L 74.981371 284.217795 
L 74.501782 284.834438 
L 74.69421 285.761936 
L 74.599476 285.761936 
L 74.599476 285.915675 
L 75.173798 286.687745 
L 75.079064 287.15065 
L 74.886637 287.459816 
L 74.886637 287.459816 
L 75.173798 287.922721 
L 75.173798 287.922721 
L 75.366225 287.459816 
L 75.268531 287.922721 
L 75.173798 289.776028 
L 75.079064 289.929767 
L 74.69421 290.083505 
L 74.69421 289.6206 
L 74.791904 291.011003 
L 74.886637 291.011003 
L 75.366225 290.392671 
L 75.268531 290.546409 
L 75.173798 291.31848 
L 75.079064 291.164742 
L 74.886637 291.164742 
L 74.407049 291.011003 
L 74.312315 291.164742 
L 74.599476 291.783074 
L 74.791904 292.399717 
L 74.599476 292.399717 
L 74.407049 292.245979 
L 74.501782 291.936813 
L 74.599476 291.627646 
L 74.791904 291.627646 
L 74.69421 292.245979 
L 74.501782 292.245979 
L 74.407049 292.090551 
L 74.599476 291.936813 
L 74.501782 292.090551 
L 74.501782 292.862622 
L 74.599476 292.553455 
L 74.981371 292.862622 
L 74.886637 292.708883 
L 74.791904 292.862622 
L 74.791904 293.325526 
L 74.886637 293.171788 
L 75.079064 293.171788 
L 75.173798 293.018049 
L 74.791904 292.553455 
L 74.214622 292.708883 
L 74.312315 292.553455 
L 74.501782 293.018049 
L 74.599476 294.097597 
L 74.501782 293.480954 
L 74.501782 293.79012 
L 74.69421 293.79012 
L 74.791904 293.943859 
L 74.791904 293.79012 
L 74.886637 293.325526 
L 75.079064 293.171788 
L 75.173798 293.480954 
L 74.886637 293.79012 
L 74.599476 293.79012 
L 74.407049 293.480954 
L 74.501782 293.171788 
L 74.886637 292.862622 
L 74.791904 292.862622 
L 74.791904 292.708883 
L 74.886637 292.708883 
L 75.079064 293.325526 
L 74.981371 293.171788 
L 74.886637 294.097597 
L 75.079064 294.253025 
L 75.366225 294.253025 
L 75.366225 294.406763 
L 74.886637 293.480954 
L 74.981371 293.325526 
L 75.173798 293.480954 
L 74.791904 294.097597 
L 75.173798 293.634692 
L 75.268531 293.634692 
L 75.173798 294.560501 
L 75.173798 294.406763 
L 75.079064 294.097597 
L 74.886637 294.097597 
L 74.886637 294.097597 
L 74.501782 294.560501 
L 74.791904 294.406763 
L 75.173798 294.715929 
L 74.981371 294.869668 
L 75.173798 294.715929 
L 75.74812 294.406763 
L 75.74812 294.560501 
L 75.555692 295.025095 
L 75.173798 295.025095 
L 75.173798 295.178834 
L 75.268531 294.406763 
L 75.173798 294.406763 
L 74.981371 294.406763 
L 74.791904 294.560501 
L 74.69421 294.869668 
L 74.791904 294.869668 
L 75.079064 294.869668 
L 75.079064 295.332572 
L 75.555692 295.178834 
L 75.366225 295.178834 
L 74.886637 294.869668 
L 75.079064 294.560501 
L 75.268531 294.560501 
L 75.366225 295.178834 
L 75.268531 295.178834 
L 75.079064 294.560501 
L 75.366225 295.178834 
L 75.555692 295.332572 
L 75.555692 295.332572 
L 75.555692 295.178834 
L 75.653386 295.332572 
L 75.268531 294.869668 
L 75.173798 294.406763 
L 75.173798 294.869668 
L 74.981371 294.869668 
L 74.981371 294.869668 
L 75.079064 295.488 
L 75.079064 295.488 
" style="fill:none;stroke:#1f77b4;stroke-linecap:square;stroke-width:1.5;"/>
   </g>
   <g id="matplotlib.axis_1">
    <g id="xtick_1">
     <g id="line2d_2">
      <defs>
       <path d="M 0 0 
L 0 3.5 
" id="m9eb1c38b41" style="stroke:#000000;stroke-width:0.8;"/>
      </defs>
      <g>
       <use style="stroke:#000000;stroke-width:0.8;" x="75.724436" xlink:href="#m9eb1c38b41" y="307.584"/>
      </g>
     </g>
     <g id="text_1">
      <!-- −400 -->
      <defs>
       <path d="M 10.59375 35.5 
L 73.1875 35.5 
L 73.1875 27.203125 
L 10.59375 27.203125 
z
" id="DejaVuSans-8722"/>
       <path d="M 37.796875 64.3125 
L 12.890625 25.390625 
L 37.796875 25.390625 
z
M 35.203125 72.90625 
L 47.609375 72.90625 
L 47.609375 25.390625 
L 58.015625 25.390625 
L 58.015625 17.1875 
L 47.609375 17.1875 
L 47.609375 0 
L 37.796875 0 
L 37.796875 17.1875 
L 4.890625 17.1875 
L 4.890625 26.703125 
z
" id="DejaVuSans-52"/>
       <path d="M 31.78125 66.40625 
Q 24.171875 66.40625 20.328125 58.90625 
Q 16.5 51.421875 16.5 36.375 
Q 16.5 21.390625 20.328125 13.890625 
Q 24.171875 6.390625 31.78125 6.390625 
Q 39.453125 6.390625 43.28125 13.890625 
Q 47.125 21.390625 47.125 36.375 
Q 47.125 51.421875 43.28125 58.90625 
Q 39.453125 66.40625 31.78125 66.40625 
z
M 31.78125 74.21875 
Q 44.046875 74.21875 50.515625 64.515625 
Q 56.984375 54.828125 56.984375 36.375 
Q 56.984375 17.96875 50.515625 8.265625 
Q 44.046875 -1.421875 31.78125 -1.421875 
Q 19.53125 -1.421875 13.0625 8.265625 
Q 6.59375 17.96875 6.59375 36.375 
Q 6.59375 54.828125 13.0625 64.515625 
Q 19.53125 74.21875 31.78125 74.21875 
z
" id="DejaVuSans-48"/>
      </defs>
      <g transform="translate(61.990842 322.182437)scale(0.1 -0.1)">
       <use xlink:href="#DejaVuSans-8722"/>
       <use x="83.789062" xlink:href="#DejaVuSans-52"/>
       <use x="147.412109" xlink:href="#DejaVuSans-48"/>
       <use x="211.035156" xlink:href="#DejaVuSans-48"/>
      </g>
     </g>
    </g>
    <g id="xtick_2">
     <g id="line2d_3">
      <g>
       <use style="stroke:#000000;stroke-width:0.8;" x="134.932852" xlink:href="#m9eb1c38b41" y="307.584"/>
      </g>
     </g>
     <g id="text_2">
      <!-- −200 -->
      <defs>
       <path d="M 19.1875 8.296875 
L 53.609375 8.296875 
L 53.609375 0 
L 7.328125 0 
L 7.328125 8.296875 
Q 12.9375 14.109375 22.625 23.890625 
Q 32.328125 33.6875 34.8125 36.53125 
Q 39.546875 41.84375 41.421875 45.53125 
Q 43.3125 49.21875 43.3125 52.78125 
Q 43.3125 58.59375 39.234375 62.25 
Q 35.15625 65.921875 28.609375 65.921875 
Q 23.96875 65.921875 18.8125 64.3125 
Q 13.671875 62.703125 7.8125 59.421875 
L 7.8125 69.390625 
Q 13.765625 71.78125 18.9375 73 
Q 24.125 74.21875 28.421875 74.21875 
Q 39.75 74.21875 46.484375 68.546875 
Q 53.21875 62.890625 53.21875 53.421875 
Q 53.21875 48.921875 51.53125 44.890625 
Q 49.859375 40.875 45.40625 35.40625 
Q 44.1875 33.984375 37.640625 27.21875 
Q 31.109375 20.453125 19.1875 8.296875 
z
" id="DejaVuSans-50"/>
      </defs>
      <g transform="translate(121.199258 322.182437)scale(0.1 -0.1)">
       <use xlink:href="#DejaVuSans-8722"/>
       <use x="83.789062" xlink:href="#DejaVuSans-50"/>
       <use x="147.412109" xlink:href="#DejaVuSans-48"/>
       <use x="211.035156" xlink:href="#DejaVuSans-48"/>
      </g>
     </g>
    </g>
    <g id="xtick_3">
     <g id="line2d_4">
      <g>
       <use style="stroke:#000000;stroke-width:0.8;" x="194.141268" xlink:href="#m9eb1c38b41" y="307.584"/>
      </g>
     </g>
     <g id="text_3">
      <!-- 0 -->
      <g transform="translate(190.960018 322.182437)scale(0.1 -0.1)">
       <use xlink:href="#DejaVuSans-48"/>
      </g>
     </g>
    </g>
    <g id="xtick_4">
     <g id="line2d_5">
      <g>
       <use style="stroke:#000000;stroke-width:0.8;" x="253.349683" xlink:href="#m9eb1c38b41" y="307.584"/>
      </g>
     </g>
     <g id="text_4">
      <!-- 200 -->
      <g transform="translate(243.805933 322.182437)scale(0.1 -0.1)">
       <use xlink:href="#DejaVuSans-50"/>
       <use x="63.623047" xlink:href="#DejaVuSans-48"/>
       <use x="127.246094" xlink:href="#DejaVuSans-48"/>
      </g>
     </g>
    </g>
    <g id="xtick_5">
     <g id="line2d_6">
      <g>
       <use style="stroke:#000000;stroke-width:0.8;" x="312.558099" xlink:href="#m9eb1c38b41" y="307.584"/>
      </g>
     </g>
     <g id="text_5">
      <!-- 400 -->
      <g transform="translate(303.014349 322.182437)scale(0.1 -0.1)">
       <use xlink:href="#DejaVuSans-52"/>
       <use x="63.623047" xlink:href="#DejaVuSans-48"/>
       <use x="127.246094" xlink:href="#DejaVuSans-48"/>
      </g>
     </g>
    </g>
    <g id="xtick_6">
     <g id="line2d_7">
      <g>
       <use style="stroke:#000000;stroke-width:0.8;" x="371.766515" xlink:href="#m9eb1c38b41" y="307.584"/>
      </g>
     </g>
     <g id="text_6">
      <!-- 600 -->
      <defs>
       <path d="M 33.015625 40.375 
Q 26.375 40.375 22.484375 35.828125 
Q 18.609375 31.296875 18.609375 23.390625 
Q 18.609375 15.53125 22.484375 10.953125 
Q 26.375 6.390625 33.015625 6.390625 
Q 39.65625 6.390625 43.53125 10.953125 
Q 47.40625 15.53125 47.40625 23.390625 
Q 47.40625 31.296875 43.53125 35.828125 
Q 39.65625 40.375 33.015625 40.375 
z
M 52.59375 71.296875 
L 52.59375 62.3125 
Q 48.875 64.0625 45.09375 64.984375 
Q 41.3125 65.921875 37.59375 65.921875 
Q 27.828125 65.921875 22.671875 59.328125 
Q 17.53125 52.734375 16.796875 39.40625 
Q 19.671875 43.65625 24.015625 45.921875 
Q 28.375 48.1875 33.59375 48.1875 
Q 44.578125 48.1875 50.953125 41.515625 
Q 57.328125 34.859375 57.328125 23.390625 
Q 57.328125 12.15625 50.6875 5.359375 
Q 44.046875 -1.421875 33.015625 -1.421875 
Q 20.359375 -1.421875 13.671875 8.265625 
Q 6.984375 17.96875 6.984375 36.375 
Q 6.984375 53.65625 15.1875 63.9375 
Q 23.390625 74.21875 37.203125 74.21875 
Q 40.921875 74.21875 44.703125 73.484375 
Q 48.484375 72.75 52.59375 71.296875 
z
" id="DejaVuSans-54"/>
      </defs>
      <g transform="translate(362.222765 322.182437)scale(0.1 -0.1)">
       <use xlink:href="#DejaVuSans-54"/>
       <use x="63.623047" xlink:href="#DejaVuSans-48"/>
       <use x="127.246094" xlink:href="#DejaVuSans-48"/>
      </g>
     </g>
    </g>
   </g>
   <g id="matplotlib.axis_2">
    <g id="ytick_1">
     <g id="line2d_8">
      <defs>
       <path d="M 0 0 
L -3.5 0 
" id="me14f351ec5" style="stroke:#000000;stroke-width:0.8;"/>
      </defs>
      <g>
       <use style="stroke:#000000;stroke-width:0.8;" x="57.6" xlink:href="#me14f351ec5" y="289.943282"/>
      </g>
     </g>
     <g id="text_7">
      <!-- −600 -->
      <g transform="translate(23.132812 293.742501)scale(0.1 -0.1)">
       <use xlink:href="#DejaVuSans-8722"/>
       <use x="83.789062" xlink:href="#DejaVuSans-54"/>
       <use x="147.412109" xlink:href="#DejaVuSans-48"/>
       <use x="211.035156" xlink:href="#DejaVuSans-48"/>
      </g>
     </g>
    </g>
    <g id="ytick_2">
     <g id="line2d_9">
      <g>
       <use style="stroke:#000000;stroke-width:0.8;" x="57.6" xlink:href="#me14f351ec5" y="256.154629"/>
      </g>
     </g>
     <g id="text_8">
      <!-- −400 -->
      <g transform="translate(23.132812 259.953847)scale(0.1 -0.1)">
       <use xlink:href="#DejaVuSans-8722"/>
       <use x="83.789062" xlink:href="#DejaVuSans-52"/>
       <use x="147.412109" xlink:href="#DejaVuSans-48"/>
       <use x="211.035156" xlink:href="#DejaVuSans-48"/>
      </g>
     </g>
    </g>
    <g id="ytick_3">
     <g id="line2d_10">
      <g>
       <use style="stroke:#000000;stroke-width:0.8;" x="57.6" xlink:href="#me14f351ec5" y="222.365975"/>
      </g>
     </g>
     <g id="text_9">
      <!-- −200 -->
      <g transform="translate(23.132812 226.165194)scale(0.1 -0.1)">
       <use xlink:href="#DejaVuSans-8722"/>
       <use x="83.789062" xlink:href="#DejaVuSans-50"/>
       <use x="147.412109" xlink:href="#DejaVuSans-48"/>
       <use x="211.035156" xlink:href="#DejaVuSans-48"/>
      </g>
     </g>
    </g>
    <g id="ytick_4">
     <g id="line2d_11">
      <g>
       <use style="stroke:#000000;stroke-width:0.8;" x="57.6" xlink:href="#me14f351ec5" y="188.577322"/>
      </g>
     </g>
     <g id="text_10">
      <!-- 0 -->
      <g transform="translate(44.2375 192.376541)scale(0.1 -0.1)">
       <use xlink:href="#DejaVuSans-48"/>
      </g>
     </g>
    </g>
    <g id="ytick_5">
     <g id="line2d_12">
      <g>
       <use style="stroke:#000000;stroke-width:0.8;" x="57.6" xlink:href="#me14f351ec5" y="154.788669"/>
      </g>
     </g>
     <g id="text_11">
      <!-- 200 -->
      <g transform="translate(31.5125 158.587887)scale(0.1 -0.1)">
       <use xlink:href="#DejaVuSans-50"/>
       <use x="63.623047" xlink:href="#DejaVuSans-48"/>
       <use x="127.246094" xlink:href="#DejaVuSans-48"/>
      </g>
     </g>
    </g>
    <g id="ytick_6">
     <g id="line2d_13">
      <g>
       <use style="stroke:#000000;stroke-width:0.8;" x="57.6" xlink:href="#me14f351ec5" y="121.000015"/>
      </g>
     </g>
     <g id="text_12">
      <!-- 400 -->
      <g transform="translate(31.5125 124.799234)scale(0.1 -0.1)">
       <use xlink:href="#DejaVuSans-52"/>
       <use x="63.623047" xlink:href="#DejaVuSans-48"/>
       <use x="127.246094" xlink:href="#DejaVuSans-48"/>
      </g>
     </g>
    </g>
    <g id="ytick_7">
     <g id="line2d_14">
      <g>
       <use style="stroke:#000000;stroke-width:0.8;" x="57.6" xlink:href="#me14f351ec5" y="87.211362"/>
      </g>
     </g>
     <g id="text_13">
      <!-- 600 -->
      <g transform="translate(31.5125 91.010581)scale(0.1 -0.1)">
       <use xlink:href="#DejaVuSans-54"/>
       <use x="63.623047" xlink:href="#DejaVuSans-48"/>
       <use x="127.246094" xlink:href="#DejaVuSans-48"/>
      </g>
     </g>
    </g>
    <g id="ytick_8">
     <g id="line2d_15">
      <g>
       <use style="stroke:#000000;stroke-width:0.8;" x="57.6" xlink:href="#me14f351ec5" y="53.422709"/>
      </g>
     </g>
     <g id="text_14">
      <!-- 800 -->
      <defs>
       <path d="M 31.78125 34.625 
Q 24.75 34.625 20.71875 30.859375 
Q 16.703125 27.09375 16.703125 20.515625 
Q 16.703125 13.921875 20.71875 10.15625 
Q 24.75 6.390625 31.78125 6.390625 
Q 38.8125 6.390625 42.859375 10.171875 
Q 46.921875 13.96875 46.921875 20.515625 
Q 46.921875 27.09375 42.890625 30.859375 
Q 38.875 34.625 31.78125 34.625 
z
M 21.921875 38.8125 
Q 15.578125 40.375 12.03125 44.71875 
Q 8.5 49.078125 8.5 55.328125 
Q 8.5 64.0625 14.71875 69.140625 
Q 20.953125 74.21875 31.78125 74.21875 
Q 42.671875 74.21875 48.875 69.140625 
Q 55.078125 64.0625 55.078125 55.328125 
Q 55.078125 49.078125 51.53125 44.71875 
Q 48 40.375 41.703125 38.8125 
Q 48.828125 37.15625 52.796875 32.3125 
Q 56.78125 27.484375 56.78125 20.515625 
Q 56.78125 9.90625 50.3125 4.234375 
Q 43.84375 -1.421875 31.78125 -1.421875 
Q 19.734375 -1.421875 13.25 4.234375 
Q 6.78125 9.90625 6.78125 20.515625 
Q 6.78125 27.484375 10.78125 32.3125 
Q 14.796875 37.15625 21.921875 38.8125 
z
M 18.3125 54.390625 
Q 18.3125 48.734375 21.84375 45.5625 
Q 25.390625 42.390625 31.78125 42.390625 
Q 38.140625 42.390625 41.71875 45.5625 
Q 45.3125 48.734375 45.3125 54.390625 
Q 45.3125 60.0625 41.71875 63.234375 
Q 38.140625 66.40625 31.78125 66.40625 
Q 25.390625 66.40625 21.84375 63.234375 
Q 18.3125 60.0625 18.3125 54.390625 
z
" id="DejaVuSans-56"/>
      </defs>
      <g transform="translate(31.5125 57.221928)scale(0.1 -0.1)">
       <use xlink:href="#DejaVuSans-56"/>
       <use x="63.623047" xlink:href="#DejaVuSans-48"/>
       <use x="127.246094" xlink:href="#DejaVuSans-48"/>
      </g>
     </g>
    </g>
   </g>
   <g id="line2d_16">
    <path clip-path="url(#p3ccc833c7b)" d="M 395.239945 57.891156 
L 198.127109 134.852595 
L 250.867037 220.218859 
L 93.102411 263.457313 
L 137.955012 125.378416 
L 260.240035 255.662694 
L 75.891753 289.321536 
" style="fill:none;stroke:#ff0000;stroke-linecap:square;stroke-width:0.5;"/>
   </g>
   <g id="patch_3">
    <path d="M 57.6 307.584 
L 57.6 41.472 
" style="fill:none;stroke:#000000;stroke-linecap:square;stroke-linejoin:miter;stroke-width:0.8;"/>
   </g>
   <g id="patch_4">
    <path d="M 414.72 307.584 
L 414.72 41.472 
" style="fill:none;stroke:#000000;stroke-linecap:square;stroke-linejoin:miter;stroke-width:0.8;"/>
   </g>
   <g id="patch_5">
    <path d="M 57.6 307.584 
L 414.72 307.584 
" style="fill:none;stroke:#000000;stroke-linecap:square;stroke-linejoin:miter;stroke-width:0.8;"/>
   </g>
   <g id="patch_6">
    <path d="M 57.6 41.472 
L 414.72 41.472 
" style="fill:none;stroke:#000000;stroke-linecap:square;stroke-linejoin:miter;stroke-width:0.8;"/>
   </g>
   <g id="PathCollection_1">
    <defs>
     <path d="M 0 2.738613 
C 0.726289 2.738613 1.422928 2.450055 1.936492 1.936492 
C 2.450055 1.422928 2.738613 0.726289 2.738613 0 
C 2.738613 -0.726289 2.450055 -1.422928 1.936492 -1.936492 
C 1.422928 -2.450055 0.726289 -2.738613 0 -2.738613 
C -0.726289 -2.738613 -1.422928 -2.450055 -1.936492 -1.936492 
C -2.450055 -1.422928 -2.738613 -0.726289 -2.738613 0 
C -2.738613 0.726289 -2.450055 1.422928 -1.936492 1.936492 
C -1.422928 2.450055 -0.726289 2.738613 0 2.738613 
z
" id="mb7ed7d6f29" style="stroke:#ff0000;"/>
    </defs>
    <g clip-path="url(#p3ccc833c7b)">
     <use style="fill:#ff0000;stroke:#ff0000;" x="395.239945" xlink:href="#mb7ed7d6f29" y="57.891156"/>
     <use style="fill:#ff0000;stroke:#ff0000;" x="198.127109" xlink:href="#mb7ed7d6f29" y="134.852595"/>
     <use style="fill:#ff0000;stroke:#ff0000;" x="250.867037" xlink:href="#mb7ed7d6f29" y="220.218859"/>
     <use style="fill:#ff0000;stroke:#ff0000;" x="93.102411" xlink:href="#mb7ed7d6f29" y="263.457313"/>
     <use style="fill:#ff0000;stroke:#ff0000;" x="137.955012" xlink:href="#mb7ed7d6f29" y="125.378416"/>
     <use style="fill:#ff0000;stroke:#ff0000;" x="260.240035" xlink:href="#mb7ed7d6f29" y="255.662694"/>
     <use style="fill:#ff0000;stroke:#ff0000;" x="75.891753" xlink:href="#mb7ed7d6f29" y="289.321536"/>
    </g>
   </g>
   <g id="text_15">
    <!-- (134) Subject: s27, Known = False, Degree = 2, Duration = 0.1 -->
    <defs>
     <path d="M 31 75.875 
Q 24.46875 64.65625 21.28125 53.65625 
Q 18.109375 42.671875 18.109375 31.390625 
Q 18.109375 20.125 21.3125 9.0625 
Q 24.515625 -2 31 -13.1875 
L 23.1875 -13.1875 
Q 15.875 -1.703125 12.234375 9.375 
Q 8.59375 20.453125 8.59375 31.390625 
Q 8.59375 42.28125 12.203125 53.3125 
Q 15.828125 64.359375 23.1875 75.875 
z
" id="DejaVuSans-40"/>
     <path d="M 12.40625 8.296875 
L 28.515625 8.296875 
L 28.515625 63.921875 
L 10.984375 60.40625 
L 10.984375 69.390625 
L 28.421875 72.90625 
L 38.28125 72.90625 
L 38.28125 8.296875 
L 54.390625 8.296875 
L 54.390625 0 
L 12.40625 0 
z
" id="DejaVuSans-49"/>
     <path d="M 40.578125 39.3125 
Q 47.65625 37.796875 51.625 33 
Q 55.609375 28.21875 55.609375 21.1875 
Q 55.609375 10.40625 48.1875 4.484375 
Q 40.765625 -1.421875 27.09375 -1.421875 
Q 22.515625 -1.421875 17.65625 -0.515625 
Q 12.796875 0.390625 7.625 2.203125 
L 7.625 11.71875 
Q 11.71875 9.328125 16.59375 8.109375 
Q 21.484375 6.890625 26.8125 6.890625 
Q 36.078125 6.890625 40.9375 10.546875 
Q 45.796875 14.203125 45.796875 21.1875 
Q 45.796875 27.640625 41.28125 31.265625 
Q 36.765625 34.90625 28.71875 34.90625 
L 20.21875 34.90625 
L 20.21875 43.015625 
L 29.109375 43.015625 
Q 36.375 43.015625 40.234375 45.921875 
Q 44.09375 48.828125 44.09375 54.296875 
Q 44.09375 59.90625 40.109375 62.90625 
Q 36.140625 65.921875 28.71875 65.921875 
Q 24.65625 65.921875 20.015625 65.03125 
Q 15.375 64.15625 9.8125 62.3125 
L 9.8125 71.09375 
Q 15.4375 72.65625 20.34375 73.4375 
Q 25.25 74.21875 29.59375 74.21875 
Q 40.828125 74.21875 47.359375 69.109375 
Q 53.90625 64.015625 53.90625 55.328125 
Q 53.90625 49.265625 50.4375 45.09375 
Q 46.96875 40.921875 40.578125 39.3125 
z
" id="DejaVuSans-51"/>
     <path d="M 8.015625 75.875 
L 15.828125 75.875 
Q 23.140625 64.359375 26.78125 53.3125 
Q 30.421875 42.28125 30.421875 31.390625 
Q 30.421875 20.453125 26.78125 9.375 
Q 23.140625 -1.703125 15.828125 -13.1875 
L 8.015625 -13.1875 
Q 14.5 -2 17.703125 9.0625 
Q 20.90625 20.125 20.90625 31.390625 
Q 20.90625 42.671875 17.703125 53.65625 
Q 14.5 64.65625 8.015625 75.875 
z
" id="DejaVuSans-41"/>
     <path id="DejaVuSans-32"/>
     <path d="M 53.515625 70.515625 
L 53.515625 60.890625 
Q 47.90625 63.578125 42.921875 64.890625 
Q 37.9375 66.21875 33.296875 66.21875 
Q 25.25 66.21875 20.875 63.09375 
Q 16.5 59.96875 16.5 54.203125 
Q 16.5 49.359375 19.40625 46.890625 
Q 22.3125 44.4375 30.421875 42.921875 
L 36.375 41.703125 
Q 47.40625 39.59375 52.65625 34.296875 
Q 57.90625 29 57.90625 20.125 
Q 57.90625 9.515625 50.796875 4.046875 
Q 43.703125 -1.421875 29.984375 -1.421875 
Q 24.8125 -1.421875 18.96875 -0.25 
Q 13.140625 0.921875 6.890625 3.21875 
L 6.890625 13.375 
Q 12.890625 10.015625 18.65625 8.296875 
Q 24.421875 6.59375 29.984375 6.59375 
Q 38.421875 6.59375 43.015625 9.90625 
Q 47.609375 13.234375 47.609375 19.390625 
Q 47.609375 24.75 44.3125 27.78125 
Q 41.015625 30.8125 33.5 32.328125 
L 27.484375 33.5 
Q 16.453125 35.6875 11.515625 40.375 
Q 6.59375 45.0625 6.59375 53.421875 
Q 6.59375 63.09375 13.40625 68.65625 
Q 20.21875 74.21875 32.171875 74.21875 
Q 37.3125 74.21875 42.625 73.28125 
Q 47.953125 72.359375 53.515625 70.515625 
z
" id="DejaVuSans-83"/>
     <path d="M 8.5 21.578125 
L 8.5 54.6875 
L 17.484375 54.6875 
L 17.484375 21.921875 
Q 17.484375 14.15625 20.5 10.265625 
Q 23.53125 6.390625 29.59375 6.390625 
Q 36.859375 6.390625 41.078125 11.03125 
Q 45.3125 15.671875 45.3125 23.6875 
L 45.3125 54.6875 
L 54.296875 54.6875 
L 54.296875 0 
L 45.3125 0 
L 45.3125 8.40625 
Q 42.046875 3.421875 37.71875 1 
Q 33.40625 -1.421875 27.6875 -1.421875 
Q 18.265625 -1.421875 13.375 4.4375 
Q 8.5 10.296875 8.5 21.578125 
z
M 31.109375 56 
z
" id="DejaVuSans-117"/>
     <path d="M 48.6875 27.296875 
Q 48.6875 37.203125 44.609375 42.84375 
Q 40.53125 48.484375 33.40625 48.484375 
Q 26.265625 48.484375 22.1875 42.84375 
Q 18.109375 37.203125 18.109375 27.296875 
Q 18.109375 17.390625 22.1875 11.75 
Q 26.265625 6.109375 33.40625 6.109375 
Q 40.53125 6.109375 44.609375 11.75 
Q 48.6875 17.390625 48.6875 27.296875 
z
M 18.109375 46.390625 
Q 20.953125 51.265625 25.265625 53.625 
Q 29.59375 56 35.59375 56 
Q 45.5625 56 51.78125 48.09375 
Q 58.015625 40.1875 58.015625 27.296875 
Q 58.015625 14.40625 51.78125 6.484375 
Q 45.5625 -1.421875 35.59375 -1.421875 
Q 29.59375 -1.421875 25.265625 0.953125 
Q 20.953125 3.328125 18.109375 8.203125 
L 18.109375 0 
L 9.078125 0 
L 9.078125 75.984375 
L 18.109375 75.984375 
z
" id="DejaVuSans-98"/>
     <path d="M 9.421875 54.6875 
L 18.40625 54.6875 
L 18.40625 -0.984375 
Q 18.40625 -11.421875 14.421875 -16.109375 
Q 10.453125 -20.796875 1.609375 -20.796875 
L -1.8125 -20.796875 
L -1.8125 -13.1875 
L 0.59375 -13.1875 
Q 5.71875 -13.1875 7.5625 -10.8125 
Q 9.421875 -8.453125 9.421875 -0.984375 
z
M 9.421875 75.984375 
L 18.40625 75.984375 
L 18.40625 64.59375 
L 9.421875 64.59375 
z
" id="DejaVuSans-106"/>
     <path d="M 56.203125 29.59375 
L 56.203125 25.203125 
L 14.890625 25.203125 
Q 15.484375 15.921875 20.484375 11.0625 
Q 25.484375 6.203125 34.421875 6.203125 
Q 39.59375 6.203125 44.453125 7.46875 
Q 49.3125 8.734375 54.109375 11.28125 
L 54.109375 2.78125 
Q 49.265625 0.734375 44.1875 -0.34375 
Q 39.109375 -1.421875 33.890625 -1.421875 
Q 20.796875 -1.421875 13.15625 6.1875 
Q 5.515625 13.8125 5.515625 26.8125 
Q 5.515625 40.234375 12.765625 48.109375 
Q 20.015625 56 32.328125 56 
Q 43.359375 56 49.78125 48.890625 
Q 56.203125 41.796875 56.203125 29.59375 
z
M 47.21875 32.234375 
Q 47.125 39.59375 43.09375 43.984375 
Q 39.0625 48.390625 32.421875 48.390625 
Q 24.90625 48.390625 20.390625 44.140625 
Q 15.875 39.890625 15.1875 32.171875 
z
" id="DejaVuSans-101"/>
     <path d="M 48.78125 52.59375 
L 48.78125 44.1875 
Q 44.96875 46.296875 41.140625 47.34375 
Q 37.3125 48.390625 33.40625 48.390625 
Q 24.65625 48.390625 19.8125 42.84375 
Q 14.984375 37.3125 14.984375 27.296875 
Q 14.984375 17.28125 19.8125 11.734375 
Q 24.65625 6.203125 33.40625 6.203125 
Q 37.3125 6.203125 41.140625 7.25 
Q 44.96875 8.296875 48.78125 10.40625 
L 48.78125 2.09375 
Q 45.015625 0.34375 40.984375 -0.53125 
Q 36.96875 -1.421875 32.421875 -1.421875 
Q 20.0625 -1.421875 12.78125 6.34375 
Q 5.515625 14.109375 5.515625 27.296875 
Q 5.515625 40.671875 12.859375 48.328125 
Q 20.21875 56 33.015625 56 
Q 37.15625 56 41.109375 55.140625 
Q 45.0625 54.296875 48.78125 52.59375 
z
" id="DejaVuSans-99"/>
     <path d="M 18.3125 70.21875 
L 18.3125 54.6875 
L 36.8125 54.6875 
L 36.8125 47.703125 
L 18.3125 47.703125 
L 18.3125 18.015625 
Q 18.3125 11.328125 20.140625 9.421875 
Q 21.96875 7.515625 27.59375 7.515625 
L 36.8125 7.515625 
L 36.8125 0 
L 27.59375 0 
Q 17.1875 0 13.234375 3.875 
Q 9.28125 7.765625 9.28125 18.015625 
L 9.28125 47.703125 
L 2.6875 47.703125 
L 2.6875 54.6875 
L 9.28125 54.6875 
L 9.28125 70.21875 
z
" id="DejaVuSans-116"/>
     <path d="M 11.71875 12.40625 
L 22.015625 12.40625 
L 22.015625 0 
L 11.71875 0 
z
M 11.71875 51.703125 
L 22.015625 51.703125 
L 22.015625 39.3125 
L 11.71875 39.3125 
z
" id="DejaVuSans-58"/>
     <path d="M 44.28125 53.078125 
L 44.28125 44.578125 
Q 40.484375 46.53125 36.375 47.5 
Q 32.28125 48.484375 27.875 48.484375 
Q 21.1875 48.484375 17.84375 46.4375 
Q 14.5 44.390625 14.5 40.28125 
Q 14.5 37.15625 16.890625 35.375 
Q 19.28125 33.59375 26.515625 31.984375 
L 29.59375 31.296875 
Q 39.15625 29.25 43.1875 25.515625 
Q 47.21875 21.78125 47.21875 15.09375 
Q 47.21875 7.46875 41.1875 3.015625 
Q 35.15625 -1.421875 24.609375 -1.421875 
Q 20.21875 -1.421875 15.453125 -0.5625 
Q 10.6875 0.296875 5.421875 2 
L 5.421875 11.28125 
Q 10.40625 8.6875 15.234375 7.390625 
Q 20.0625 6.109375 24.8125 6.109375 
Q 31.15625 6.109375 34.5625 8.28125 
Q 37.984375 10.453125 37.984375 14.40625 
Q 37.984375 18.0625 35.515625 20.015625 
Q 33.0625 21.96875 24.703125 23.78125 
L 21.578125 24.515625 
Q 13.234375 26.265625 9.515625 29.90625 
Q 5.8125 33.546875 5.8125 39.890625 
Q 5.8125 47.609375 11.28125 51.796875 
Q 16.75 56 26.8125 56 
Q 31.78125 56 36.171875 55.265625 
Q 40.578125 54.546875 44.28125 53.078125 
z
" id="DejaVuSans-115"/>
     <path d="M 8.203125 72.90625 
L 55.078125 72.90625 
L 55.078125 68.703125 
L 28.609375 0 
L 18.3125 0 
L 43.21875 64.59375 
L 8.203125 64.59375 
z
" id="DejaVuSans-55"/>
     <path d="M 11.71875 12.40625 
L 22.015625 12.40625 
L 22.015625 4 
L 14.015625 -11.625 
L 7.71875 -11.625 
L 11.71875 4 
z
" id="DejaVuSans-44"/>
     <path d="M 9.8125 72.90625 
L 19.671875 72.90625 
L 19.671875 42.09375 
L 52.390625 72.90625 
L 65.09375 72.90625 
L 28.90625 38.921875 
L 67.671875 0 
L 54.6875 0 
L 19.671875 35.109375 
L 19.671875 0 
L 9.8125 0 
z
" id="DejaVuSans-75"/>
     <path d="M 54.890625 33.015625 
L 54.890625 0 
L 45.90625 0 
L 45.90625 32.71875 
Q 45.90625 40.484375 42.875 44.328125 
Q 39.84375 48.1875 33.796875 48.1875 
Q 26.515625 48.1875 22.3125 43.546875 
Q 18.109375 38.921875 18.109375 30.90625 
L 18.109375 0 
L 9.078125 0 
L 9.078125 54.6875 
L 18.109375 54.6875 
L 18.109375 46.1875 
Q 21.34375 51.125 25.703125 53.5625 
Q 30.078125 56 35.796875 56 
Q 45.21875 56 50.046875 50.171875 
Q 54.890625 44.34375 54.890625 33.015625 
z
" id="DejaVuSans-110"/>
     <path d="M 30.609375 48.390625 
Q 23.390625 48.390625 19.1875 42.75 
Q 14.984375 37.109375 14.984375 27.296875 
Q 14.984375 17.484375 19.15625 11.84375 
Q 23.34375 6.203125 30.609375 6.203125 
Q 37.796875 6.203125 41.984375 11.859375 
Q 46.1875 17.53125 46.1875 27.296875 
Q 46.1875 37.015625 41.984375 42.703125 
Q 37.796875 48.390625 30.609375 48.390625 
z
M 30.609375 56 
Q 42.328125 56 49.015625 48.375 
Q 55.71875 40.765625 55.71875 27.296875 
Q 55.71875 13.875 49.015625 6.21875 
Q 42.328125 -1.421875 30.609375 -1.421875 
Q 18.84375 -1.421875 12.171875 6.21875 
Q 5.515625 13.875 5.515625 27.296875 
Q 5.515625 40.765625 12.171875 48.375 
Q 18.84375 56 30.609375 56 
z
" id="DejaVuSans-111"/>
     <path d="M 4.203125 54.6875 
L 13.1875 54.6875 
L 24.421875 12.015625 
L 35.59375 54.6875 
L 46.1875 54.6875 
L 57.421875 12.015625 
L 68.609375 54.6875 
L 77.59375 54.6875 
L 63.28125 0 
L 52.6875 0 
L 40.921875 44.828125 
L 29.109375 0 
L 18.5 0 
z
" id="DejaVuSans-119"/>
     <path d="M 10.59375 45.40625 
L 73.1875 45.40625 
L 73.1875 37.203125 
L 10.59375 37.203125 
z
M 10.59375 25.484375 
L 73.1875 25.484375 
L 73.1875 17.1875 
L 10.59375 17.1875 
z
" id="DejaVuSans-61"/>
     <path d="M 9.8125 72.90625 
L 51.703125 72.90625 
L 51.703125 64.59375 
L 19.671875 64.59375 
L 19.671875 43.109375 
L 48.578125 43.109375 
L 48.578125 34.8125 
L 19.671875 34.8125 
L 19.671875 0 
L 9.8125 0 
z
" id="DejaVuSans-70"/>
     <path d="M 34.28125 27.484375 
Q 23.390625 27.484375 19.1875 25 
Q 14.984375 22.515625 14.984375 16.5 
Q 14.984375 11.71875 18.140625 8.90625 
Q 21.296875 6.109375 26.703125 6.109375 
Q 34.1875 6.109375 38.703125 11.40625 
Q 43.21875 16.703125 43.21875 25.484375 
L 43.21875 27.484375 
z
M 52.203125 31.203125 
L 52.203125 0 
L 43.21875 0 
L 43.21875 8.296875 
Q 40.140625 3.328125 35.546875 0.953125 
Q 30.953125 -1.421875 24.3125 -1.421875 
Q 15.921875 -1.421875 10.953125 3.296875 
Q 6 8.015625 6 15.921875 
Q 6 25.140625 12.171875 29.828125 
Q 18.359375 34.515625 30.609375 34.515625 
L 43.21875 34.515625 
L 43.21875 35.40625 
Q 43.21875 41.609375 39.140625 45 
Q 35.0625 48.390625 27.6875 48.390625 
Q 23 48.390625 18.546875 47.265625 
Q 14.109375 46.140625 10.015625 43.890625 
L 10.015625 52.203125 
Q 14.9375 54.109375 19.578125 55.046875 
Q 24.21875 56 28.609375 56 
Q 40.484375 56 46.34375 49.84375 
Q 52.203125 43.703125 52.203125 31.203125 
z
" id="DejaVuSans-97"/>
     <path d="M 9.421875 75.984375 
L 18.40625 75.984375 
L 18.40625 0 
L 9.421875 0 
z
" id="DejaVuSans-108"/>
     <path d="M 19.671875 64.796875 
L 19.671875 8.109375 
L 31.59375 8.109375 
Q 46.6875 8.109375 53.6875 14.9375 
Q 60.6875 21.78125 60.6875 36.53125 
Q 60.6875 51.171875 53.6875 57.984375 
Q 46.6875 64.796875 31.59375 64.796875 
z
M 9.8125 72.90625 
L 30.078125 72.90625 
Q 51.265625 72.90625 61.171875 64.09375 
Q 71.09375 55.28125 71.09375 36.53125 
Q 71.09375 17.671875 61.125 8.828125 
Q 51.171875 0 30.078125 0 
L 9.8125 0 
z
" id="DejaVuSans-68"/>
     <path d="M 45.40625 27.984375 
Q 45.40625 37.75 41.375 43.109375 
Q 37.359375 48.484375 30.078125 48.484375 
Q 22.859375 48.484375 18.828125 43.109375 
Q 14.796875 37.75 14.796875 27.984375 
Q 14.796875 18.265625 18.828125 12.890625 
Q 22.859375 7.515625 30.078125 7.515625 
Q 37.359375 7.515625 41.375 12.890625 
Q 45.40625 18.265625 45.40625 27.984375 
z
M 54.390625 6.78125 
Q 54.390625 -7.171875 48.1875 -13.984375 
Q 42 -20.796875 29.203125 -20.796875 
Q 24.46875 -20.796875 20.265625 -20.09375 
Q 16.0625 -19.390625 12.109375 -17.921875 
L 12.109375 -9.1875 
Q 16.0625 -11.328125 19.921875 -12.34375 
Q 23.78125 -13.375 27.78125 -13.375 
Q 36.625 -13.375 41.015625 -8.765625 
Q 45.40625 -4.15625 45.40625 5.171875 
L 45.40625 9.625 
Q 42.625 4.78125 38.28125 2.390625 
Q 33.9375 0 27.875 0 
Q 17.828125 0 11.671875 7.65625 
Q 5.515625 15.328125 5.515625 27.984375 
Q 5.515625 40.671875 11.671875 48.328125 
Q 17.828125 56 27.875 56 
Q 33.9375 56 38.28125 53.609375 
Q 42.625 51.21875 45.40625 46.390625 
L 45.40625 54.6875 
L 54.390625 54.6875 
z
" id="DejaVuSans-103"/>
     <path d="M 41.109375 46.296875 
Q 39.59375 47.171875 37.8125 47.578125 
Q 36.03125 48 33.890625 48 
Q 26.265625 48 22.1875 43.046875 
Q 18.109375 38.09375 18.109375 28.8125 
L 18.109375 0 
L 9.078125 0 
L 9.078125 54.6875 
L 18.109375 54.6875 
L 18.109375 46.1875 
Q 20.953125 51.171875 25.484375 53.578125 
Q 30.03125 56 36.53125 56 
Q 37.453125 56 38.578125 55.875 
Q 39.703125 55.765625 41.0625 55.515625 
z
" id="DejaVuSans-114"/>
     <path d="M 9.421875 54.6875 
L 18.40625 54.6875 
L 18.40625 0 
L 9.421875 0 
z
M 9.421875 75.984375 
L 18.40625 75.984375 
L 18.40625 64.59375 
L 9.421875 64.59375 
z
" id="DejaVuSans-105"/>
     <path d="M 10.6875 12.40625 
L 21 12.40625 
L 21 0 
L 10.6875 0 
z
" id="DejaVuSans-46"/>
    </defs>
    <g transform="translate(45.924375 35.472)scale(0.12 -0.12)">
     <use xlink:href="#DejaVuSans-40"/>
     <use x="39.013672" xlink:href="#DejaVuSans-49"/>
     <use x="102.636719" xlink:href="#DejaVuSans-51"/>
     <use x="166.259766" xlink:href="#DejaVuSans-52"/>
     <use x="229.882812" xlink:href="#DejaVuSans-41"/>
     <use x="268.896484" xlink:href="#DejaVuSans-32"/>
     <use x="300.683594" xlink:href="#DejaVuSans-83"/>
     <use x="364.160156" xlink:href="#DejaVuSans-117"/>
     <use x="427.539062" xlink:href="#DejaVuSans-98"/>
     <use x="491.015625" xlink:href="#DejaVuSans-106"/>
     <use x="518.798828" xlink:href="#DejaVuSans-101"/>
     <use x="580.322266" xlink:href="#DejaVuSans-99"/>
     <use x="635.302734" xlink:href="#DejaVuSans-116"/>
     <use x="674.511719" xlink:href="#DejaVuSans-58"/>
     <use x="708.203125" xlink:href="#DejaVuSans-32"/>
     <use x="739.990234" xlink:href="#DejaVuSans-115"/>
     <use x="792.089844" xlink:href="#DejaVuSans-50"/>
     <use x="855.712891" xlink:href="#DejaVuSans-55"/>
     <use x="919.335938" xlink:href="#DejaVuSans-44"/>
     <use x="951.123047" xlink:href="#DejaVuSans-32"/>
     <use x="982.910156" xlink:href="#DejaVuSans-75"/>
     <use x="1048.486328" xlink:href="#DejaVuSans-110"/>
     <use x="1111.865234" xlink:href="#DejaVuSans-111"/>
     <use x="1173.046875" xlink:href="#DejaVuSans-119"/>
     <use x="1254.833984" xlink:href="#DejaVuSans-110"/>
     <use x="1318.212891" xlink:href="#DejaVuSans-32"/>
     <use x="1350" xlink:href="#DejaVuSans-61"/>
     <use x="1433.789062" xlink:href="#DejaVuSans-32"/>
     <use x="1465.576172" xlink:href="#DejaVuSans-70"/>
     <use x="1522.955078" xlink:href="#DejaVuSans-97"/>
     <use x="1584.234375" xlink:href="#DejaVuSans-108"/>
     <use x="1612.017578" xlink:href="#DejaVuSans-115"/>
     <use x="1664.117188" xlink:href="#DejaVuSans-101"/>
     <use x="1725.640625" xlink:href="#DejaVuSans-44"/>
     <use x="1757.427734" xlink:href="#DejaVuSans-32"/>
     <use x="1789.214844" xlink:href="#DejaVuSans-68"/>
     <use x="1866.216797" xlink:href="#DejaVuSans-101"/>
     <use x="1927.740234" xlink:href="#DejaVuSans-103"/>
     <use x="1991.216797" xlink:href="#DejaVuSans-114"/>
     <use x="2032.298828" xlink:href="#DejaVuSans-101"/>
     <use x="2093.822266" xlink:href="#DejaVuSans-101"/>
     <use x="2155.345703" xlink:href="#DejaVuSans-32"/>
     <use x="2187.132812" xlink:href="#DejaVuSans-61"/>
     <use x="2270.921875" xlink:href="#DejaVuSans-32"/>
     <use x="2302.708984" xlink:href="#DejaVuSans-50"/>
     <use x="2366.332031" xlink:href="#DejaVuSans-44"/>
     <use x="2398.119141" xlink:href="#DejaVuSans-32"/>
     <use x="2429.90625" xlink:href="#DejaVuSans-68"/>
     <use x="2506.908203" xlink:href="#DejaVuSans-117"/>
     <use x="2570.287109" xlink:href="#DejaVuSans-114"/>
     <use x="2611.400391" xlink:href="#DejaVuSans-97"/>
     <use x="2672.679688" xlink:href="#DejaVuSans-116"/>
     <use x="2711.888672" xlink:href="#DejaVuSans-105"/>
     <use x="2739.671875" xlink:href="#DejaVuSans-111"/>
     <use x="2800.853516" xlink:href="#DejaVuSans-110"/>
     <use x="2864.232422" xlink:href="#DejaVuSans-32"/>
     <use x="2896.019531" xlink:href="#DejaVuSans-61"/>
     <use x="2979.808594" xlink:href="#DejaVuSans-32"/>
     <use x="3011.595703" xlink:href="#DejaVuSans-48"/>
     <use x="3075.21875" xlink:href="#DejaVuSans-46"/>
     <use x="3107.005859" xlink:href="#DejaVuSans-49"/>
    </g>
   </g>
  </g>
 </g>
 <defs>
  <clipPath id="p3ccc833c7b">
   <rect height="266.112" width="357.12" x="57.6" y="41.472"/>
  </clipPath>
 </defs>
</svg>
