<?xml version="1.0" encoding="utf-8" standalone="no"?>
<!DOCTYPE svg PUBLIC "-//W3C//DTD SVG 1.1//EN"
  "http://www.w3.org/Graphics/SVG/1.1/DTD/svg11.dtd">
<!-- Created with matplotlib (https://matplotlib.org/) -->
<svg height="345.6pt" version="1.1" viewBox="0 0 460.8 345.6" width="460.8pt" xmlns="http://www.w3.org/2000/svg" xmlns:xlink="http://www.w3.org/1999/xlink">
 <defs>
  <style type="text/css">
*{stroke-linecap:butt;stroke-linejoin:round;}
  </style>
 </defs>
 <g id="figure_1">
  <g id="patch_1">
   <path d="M 0 345.6 
L 460.8 345.6 
L 460.8 0 
L 0 0 
z
" style="fill:#ffffff;"/>
  </g>
  <g id="axes_1">
   <g id="patch_2">
    <path d="M 57.6 307.584 
L 414.72 307.584 
L 414.72 41.472 
L 57.6 41.472 
z
" style="fill:#ffffff;"/>
   </g>
   <g id="line2d_1">
    <path clip-path="url(#p5b5105a96c)" d="M 76.421161 190.689401 
L 76.677723 191.667425 
L 77.19655 191.667425 
L 77.19655 189.705376 
L 76.677723 188.727352 
L 76.161747 190.689401 
L 75.64292 193.623474 
L 75.64292 192.645449 
L 76.161747 185.787279 
L 76.421161 186.771304 
L 76.421161 190.689401 
L 75.902334 194.607498 
L 75.902334 197.541571 
L 76.161747 198.525595 
L 76.421161 197.541571 
L 76.937137 196.563547 
L 76.937137 194.607498 
L 76.161747 189.705376 
L 76.161747 189.705376 
L 76.421161 190.689401 
L 76.421161 191.667425 
L 76.161747 189.705376 
L 76.161747 189.705376 
L 76.161747 191.667425 
L 75.902334 191.667425 
L 75.902334 189.705376 
L 75.64292 190.689401 
L 75.386357 190.689401 
L 75.386357 187.749328 
L 76.161747 186.771304 
L 76.677723 188.727352 
L 76.161747 189.705376 
L 75.64292 189.705376 
L 75.64292 187.749328 
L 75.126944 188.727352 
L 75.126944 189.705376 
L 76.161747 189.705376 
L 76.161747 190.689401 
L 75.902334 192.645449 
L 75.902334 194.607498 
L 76.421161 195.585522 
L 76.677723 194.607498 
L 76.677723 193.623474 
L 75.902334 193.623474 
L 75.902334 192.645449 
L 75.902334 192.645449 
L 76.161747 191.667425 
L 76.161747 189.705376 
L 75.64292 188.727352 
L 75.64292 190.689401 
L 75.902334 195.585522 
L 75.902334 191.667425 
L 76.421161 188.727352 
L 76.937137 190.689401 
L 76.677723 194.607498 
L 76.161747 195.585522 
L 76.161747 194.607498 
L 76.421161 193.623474 
L 75.902334 195.585522 
L 76.161747 195.585522 
L 76.421161 197.541571 
L 76.677723 198.525595 
L 76.421161 198.525595 
L 75.126944 193.623474 
L 75.386357 192.645449 
L 75.902334 192.645449 
L 76.421161 193.623474 
L 76.677723 195.585522 
L 76.421161 196.563547 
L 76.161747 195.585522 
L 75.902334 195.585522 
L 75.902334 197.541571 
L 76.421161 197.541571 
L 76.677723 195.585522 
L 76.421161 192.645449 
L 76.421161 192.645449 
L 76.421161 194.607498 
L 76.161747 195.585522 
L 76.421161 194.607498 
L 76.677723 195.585522 
L 76.677723 197.541571 
L 76.161747 196.563547 
L 75.64292 194.607498 
L 75.902334 193.623474 
L 76.161747 195.585522 
L 75.386357 198.525595 
L 76.161747 198.525595 
L 75.902334 197.541571 
L 75.386357 196.563547 
L 75.126944 195.585522 
L 75.386357 192.645449 
L 75.902334 192.645449 
L 75.902334 194.607498 
L 75.386357 199.503619 
L 75.386357 199.503619 
L 75.386357 198.525595 
L 75.902334 194.607498 
L 75.64292 193.623474 
L 75.386357 193.623474 
L 75.386357 194.607498 
L 75.126944 194.607498 
L 74.86753 192.645449 
L 75.126944 191.667425 
L 75.126944 191.667425 
L 75.386357 195.585522 
L 76.161747 198.525595 
L 76.421161 198.525595 
L 76.161747 197.541571 
L 75.902334 194.607498 
L 75.902334 192.645449 
L 76.161747 192.645449 
L 76.421161 194.607498 
L 76.161747 196.563547 
L 75.386357 195.585522 
L 75.386357 192.645449 
L 75.902334 190.689401 
L 76.677723 191.667425 
L 76.677723 193.623474 
L 76.421161 192.645449 
L 75.64292 191.667425 
L 75.126944 193.623474 
L 75.126944 195.585522 
L 75.64292 195.585522 
L 75.64292 194.607498 
L 75.64292 194.607498 
L 75.902334 193.623474 
L 75.902334 195.585522 
L 76.421161 194.607498 
L 76.677723 193.623474 
L 76.421161 195.585522 
L 75.64292 198.525595 
L 75.902334 199.503619 
L 76.161747 201.459668 
L 76.161747 202.437692 
L 75.64292 201.459668 
L 74.86753 200.481644 
L 74.351554 199.503619 
L 74.351554 198.525595 
L 75.64292 198.525595 
L 75.386357 198.525595 
L 75.64292 200.481644 
L 75.386357 201.459668 
L 75.126944 201.459668 
L 74.86753 200.481644 
L 75.126944 199.503619 
L 74.608117 201.459668 
L 74.608117 201.459668 
L 74.86753 201.459668 
L 74.86753 201.459668 
L 74.351554 203.421717 
L 74.608117 202.437692 
L 75.386357 200.481644 
L 75.386357 197.541571 
L 75.64292 198.525595 
L 75.64292 199.503619 
L 75.386357 199.503619 
L 75.126944 197.541571 
L 74.86753 197.541571 
L 74.86753 199.503619 
L 74.86753 198.525595 
L 75.126944 198.525595 
L 75.64292 196.563547 
L 75.386357 196.563547 
L 74.608117 198.525595 
L 74.608117 200.481644 
L 75.126944 198.525595 
L 75.126944 199.503619 
L 74.608117 200.481644 
L 74.351554 200.481644 
L 75.126944 200.481644 
L 74.608117 200.481644 
L 74.092141 199.503619 
L 73.832727 199.503619 
L 73.832727 199.503619 
L 74.351554 201.459668 
L 74.608117 203.421717 
L 74.608117 205.377765 
L 74.608117 205.377765 
L 76.161747 199.503619 
L 75.902334 200.481644 
L 75.126944 200.481644 
L 74.608117 199.503619 
L 74.351554 199.503619 
L 74.092141 201.459668 
L 74.351554 203.421717 
L 74.86753 202.437692 
L 75.126944 200.481644 
L 74.86753 200.481644 
L 74.608117 202.437692 
L 74.86753 204.399741 
L 74.86753 206.355789 
L 75.126944 205.377765 
L 75.64292 204.399741 
L 75.64292 200.481644 
L 74.86753 206.355789 
L 74.86753 207.339814 
L 74.351554 203.421717 
L 74.092141 204.399741 
L 74.092141 205.377765 
L 74.351554 205.377765 
L 74.86753 204.399741 
L 75.64292 203.421717 
L 75.902334 204.399741 
L 75.64292 205.377765 
L 74.86753 203.421717 
L 74.86753 201.459668 
L 75.386357 200.481644 
L 75.386357 204.399741 
L 75.64292 206.355789 
L 75.64292 204.399741 
L 75.64292 204.399741 
L 75.386357 204.399741 
L 75.386357 204.399741 
L 75.902334 202.437692 
L 76.421161 202.437692 
L 76.677723 204.399741 
L 77.19655 205.377765 
L 78.231354 204.399741 
L 80.816936 200.481644 
L 82.627129 195.585522 
L 85.474976 189.705376 
L 89.614189 184.809255 
L 94.009965 178.935109 
L 98.408591 171.098915 
L 103.323194 159.344623 
L 108.756623 147.590332 
L 114.187202 136.820065 
L 119.880045 128.005846 
L 126.088865 119.185627 
L 132.554247 111.349433 
L 139.02248 104.497263 
L 145.747275 97.639093 
L 151.440118 89.802899 
L 161.269324 75.114534 
L 166.44334 71.196437 
L 171.357942 67.27834 
L 176.015982 63.360243 
L 179.895782 60.42017 
L 183.259605 57.480097 
L 186.364015 55.524049 
L 188.949597 53.568 
L 191.53518 53.568 
L 193.604786 55.524049 
L 195.41783 58.464121 
L 196.452633 61.398194 
L 196.452633 63.360243 
L 196.709196 66.300316 
L 197.487437 71.196437 
L 198.52224 81.966704 
L 198.52224 86.868826 
L 198.262826 93.720996 
L 197.228023 99.601142 
L 196.19322 101.55719 
L 195.41783 104.497263 
L 195.41783 111.349433 
L 194.899003 128.005846 
L 194.383027 134.858016 
L 193.348224 140.738162 
L 192.31342 144.656259 
L 191.019204 145.634283 
L 189.209011 147.590332 
L 188.174208 150.530405 
L 187.655381 154.448502 
L 187.655381 159.344623 
L 187.398818 162.284696 
L 185.585774 169.136866 
L 186.104601 175.017012 
L 185.585774 175.995036 
L 184.810384 175.995036 
L 184.294408 176.973061 
L 184.034995 176.973061 
L 184.034995 176.973061 
L 183.775581 184.809255 
L 183.775581 187.749328 
L 182.740778 189.705376 
L 183.000191 189.705376 
L 183.259605 190.689401 
L 183.000191 192.645449 
L 182.481364 194.607498 
L 182.224802 196.563547 
L 181.705975 197.541571 
L 181.705975 196.563547 
L 182.224802 198.525595 
L 182.224802 202.437692 
L 181.446561 207.339814 
L 181.189998 209.295862 
L 180.155195 210.273887 
L 179.120392 210.273887 
L 179.376955 209.295862 
L 179.636368 209.295862 
L 179.120392 210.273887 
L 178.601565 212.235935 
L 178.601565 214.191984 
L 179.376955 215.176008 
L 179.636368 217.132057 
L 178.601565 219.088105 
L 178.601565 221.050154 
L 178.860978 222.028178 
L 177.826175 222.028178 
L 177.566762 223.006202 
L 178.085589 224.968251 
L 178.342152 229.864372 
L 178.342152 223.990227 
L 178.342152 223.990227 
L 178.601565 226.9243 
L 178.342152 229.864372 
L 177.566762 232.804445 
L 176.531959 234.760494 
L 176.015982 237.700567 
L 176.531959 238.678591 
L 176.791372 235.744518 
L 176.531959 232.804445 
L 175.756569 232.804445 
L 175.497155 235.744518 
L 175.756569 238.678591 
L 176.015982 238.678591 
L 176.015982 236.722543 
L 175.756569 235.744518 
L 175.756569 236.722543 
L 176.015982 237.700567 
L 175.756569 237.700567 
L 175.497155 236.722543 
L 175.237742 238.678591 
L 175.237742 244.558737 
L 175.237742 244.558737 
L 174.981179 245.536761 
L 174.981179 247.49281 
L 174.721766 247.49281 
L 174.462352 248.476834 
L 173.946376 249.454858 
L 173.427549 249.454858 
L 174.202939 252.394931 
L 174.462352 251.410907 
L 174.462352 248.476834 
L 174.202939 249.454858 
L 173.946376 251.410907 
L 173.946376 253.372955 
L 173.686962 254.35098 
L 173.427549 254.35098 
L 173.686962 252.394931 
L 173.946376 253.372955 
L 172.392746 259.247101 
L 171.876769 260.225125 
L 171.876769 258.269077 
L 172.392746 257.291053 
L 172.652159 257.291053 
L 173.168135 258.269077 
L 173.427549 258.269077 
L 173.168135 259.247101 
L 172.652159 262.187174 
L 172.136183 263.165198 
L 172.652159 259.247101 
L 172.392746 258.269077 
L 172.136183 258.269077 
L 171.617356 262.187174 
L 171.617356 264.143223 
L 172.136183 263.165198 
L 172.652159 261.20915 
L 173.168135 262.187174 
L 172.911573 261.20915 
L 172.136183 263.165198 
L 171.617356 265.127247 
L 171.617356 266.105271 
L 170.841966 269.045344 
L 171.10138 268.06132 
L 171.357942 268.06132 
L 171.357942 268.06132 
L 171.10138 267.083296 
L 171.10138 265.127247 
L 171.617356 262.187174 
L 171.617356 260.225125 
L 171.876769 258.269077 
L 172.136183 255.329004 
L 172.911573 252.394931 
L 173.946376 250.432883 
L 174.202939 247.49281 
L 174.721766 244.558737 
L 176.015982 240.64064 
L 177.826175 237.700567 
L 179.636368 233.78247 
L 181.446561 230.842397 
L 182.740778 229.864372 
L 183.775581 229.864372 
L 183.516168 227.908324 
L 183.516168 224.968251 
L 184.810384 224.968251 
L 186.104601 226.9243 
L 187.139404 231.826421 
L 187.398818 231.826421 
L 187.139404 232.804445 
L 186.879991 234.760494 
L 187.398818 234.760494 
L 187.398818 236.722543 
L 186.364015 239.656615 
L 185.585774 242.596688 
L 185.329211 244.558737 
L 185.069798 248.476834 
L 184.550971 254.35098 
L 183.775581 258.269077 
L 182.481364 263.165198 
L 182.224802 265.127247 
L 182.224802 265.127247 
L 182.224802 260.225125 
L 181.965388 262.187174 
L 181.965388 264.143223 
L 181.705975 263.165198 
L 181.965388 265.127247 
L 181.965388 271.979417 
L 181.705975 271.979417 
L 181.705975 271.979417 
L 181.446561 271.001393 
L 181.189998 268.06132 
L 180.930585 267.083296 
L 181.446561 268.06132 
L 181.965388 271.001393 
L 182.224802 271.001393 
L 181.965388 271.001393 
L 181.189998 271.979417 
L 180.671171 271.979417 
L 180.671171 271.979417 
L 180.930585 272.963441 
L 180.930585 276.875538 
L 180.930585 275.897514 
L 180.671171 276.875538 
L 180.155195 276.875538 
L 179.895782 277.859563 
L 179.895782 279.815611 
L 179.636368 281.77766 
L 179.376955 284.711733 
L 179.376955 287.651806 
L 179.120392 289.613854 
L 178.860978 292.547927 
L 179.120392 293.525951 
L 179.895782 290.591879 
L 179.120392 291.569903 
L 178.860978 290.591879 
L 179.376955 288.62983 
L 179.636368 288.62983 
L 179.636368 288.62983 
L 179.376955 287.651806 
L 179.376955 287.651806 
L 179.376955 288.62983 
L 179.120392 288.62983 
L 178.860978 287.651806 
L 178.342152 286.673781 
L 178.342152 288.62983 
L 179.636368 293.525951 
L 179.376955 293.525951 
L 178.085589 288.62983 
L 178.085589 288.62983 
L 177.826175 288.62983 
L 177.826175 288.62983 
L 178.342152 289.613854 
L 179.120392 290.591879 
L 179.895782 290.591879 
L 180.155195 288.62983 
L 180.155195 286.673781 
L 179.376955 284.711733 
L 179.376955 283.733708 
L 179.895782 284.711733 
L 180.155195 286.673781 
L 180.155195 289.613854 
L 179.636368 291.569903 
L 179.636368 290.591879 
L 179.895782 286.673781 
L 179.376955 286.673781 
L 180.411758 286.673781 
L 180.155195 285.695757 
L 180.155195 283.733708 
L 179.895782 282.755684 
L 179.895782 282.755684 
L 179.636368 285.695757 
L 179.376955 285.695757 
L 179.376955 283.733708 
L 179.636368 280.793636 
L 179.895782 280.793636 
L 179.895782 281.77766 
L 178.860978 281.77766 
L 179.120392 282.755684 
L 180.411758 282.755684 
L 180.411758 281.77766 
L 179.895782 281.77766 
L 179.120392 282.755684 
L 178.860978 282.755684 
L 179.120392 279.815611 
L 179.376955 278.837587 
L 179.376955 278.837587 
L 179.895782 278.837587 
L 180.155195 279.815611 
L 180.671171 280.793636 
L 180.930585 278.837587 
L 181.189998 278.837587 
L 181.189998 279.815611 
L 180.930585 279.815611 
L 180.411758 278.837587 
L 180.155195 278.837587 
L 180.155195 279.815611 
L 179.895782 279.815611 
L 179.895782 280.793636 
L 180.155195 279.815611 
L 180.411758 279.815611 
L 180.411758 280.793636 
L 180.155195 279.815611 
L 179.895782 276.875538 
L 180.155195 274.91949 
L 180.411758 273.941466 
L 179.636368 276.875538 
L 179.636368 281.77766 
L 180.671171 283.733708 
L 181.965388 282.755684 
L 183.775581 277.859563 
L 187.398818 266.105271 
L 189.465574 261.20915 
L 192.829397 256.307028 
L 196.96861 252.394931 
L 201.367236 246.514785 
L 206.022425 238.678591 
L 212.231244 229.864372 
L 218.958891 221.050154 
L 226.199663 211.257911 
L 233.702699 200.481644 
L 241.981124 190.689401 
L 250.775527 179.913134 
L 260.088756 168.158842 
L 269.401985 157.388575 
L 278.974627 145.634283 
L 288.544419 132.901968 
L 297.857648 121.147676 
L 306.911463 107.437336 
L 315.189889 95.683045 
L 322.433512 85.884802 
L 328.898894 80.010656 
L 335.107713 76.092559 
L 341.316533 74.13051 
L 347.009376 71.196437 
L 352.183392 68.256364 
L 360.71838 64.338267 
L 368.48083 60.42017 
L 372.360629 60.42017 
L 376.499842 59.442146 
L 380.120228 58.464121 
L 382.708662 56.502073 
L 384.259441 55.524049 
L 385.813071 56.502073 
L 386.847874 58.464121 
L 386.588461 62.382219 
L 385.553658 72.174461 
L 384.778268 76.092559 
L 383.484051 79.032632 
L 382.449248 80.010656 
L 380.895618 80.98868 
L 379.344838 82.950729 
L 378.310035 83.928753 
L 377.791208 85.884802 
L 378.050622 85.884802 
L 378.050622 87.84685 
L 378.310035 88.824874 
L 378.569449 88.824874 
L 378.310035 88.824874 
L 377.791208 89.802899 
L 377.791208 88.824874 
L 378.310035 86.868826 
L 378.569449 86.868826 
L 378.569449 87.84685 
L 378.310035 87.84685 
L 378.569449 88.824874 
L 379.604252 88.824874 
L 378.826011 88.824874 
L 378.569449 87.84685 
L 378.569449 88.824874 
L 378.826011 91.764947 
L 378.826011 94.69902 
L 378.569449 94.69902 
L 377.791208 92.742972 
L 377.534645 90.786923 
L 377.534645 89.802899 
L 377.791208 89.802899 
L 377.534645 91.764947 
L 377.015818 94.69902 
L 375.981015 97.639093 
L 374.946212 97.639093 
L 374.686799 98.617117 
L 374.686799 101.55719 
L 374.946212 103.519239 
L 374.946212 102.535214 
L 374.430236 100.579166 
L 373.911409 99.601142 
L 373.654846 100.579166 
L 373.654846 98.617117 
L 373.911409 96.661069 
L 374.170822 96.661069 
L 374.946212 98.617117 
L 375.465039 102.535214 
L 375.205626 101.55719 
L 374.946212 99.601142 
L 374.170822 98.617117 
L 373.911409 99.601142 
L 374.430236 101.55719 
L 374.170822 103.519239 
L 373.911409 104.497263 
L 373.911409 105.475287 
L 374.430236 105.475287 
L 374.430236 106.453312 
L 373.911409 107.437336 
L 373.654846 106.453312 
L 373.654846 103.519239 
L 373.911409 103.519239 
L 373.911409 104.497263 
L 373.654846 106.453312 
L 373.136019 108.41536 
L 373.136019 109.393385 
L 373.654846 108.41536 
L 373.136019 109.393385 
L 372.876606 110.371409 
L 372.620043 109.393385 
L 373.136019 110.371409 
L 373.911409 111.349433 
L 374.946212 109.393385 
L 374.686799 108.41536 
L 373.654846 109.393385 
L 372.876606 111.349433 
L 372.620043 111.349433 
L 372.360629 106.453312 
L 372.101216 106.453312 
L 371.841802 107.437336 
L 371.841802 109.393385 
L 372.101216 110.371409 
L 372.620043 111.349433 
L 372.876606 111.349433 
L 372.360629 112.333457 
L 370.806999 112.333457 
L 371.066413 112.333457 
L 371.066413 114.289506 
L 370.806999 115.26753 
L 371.58524 112.333457 
L 371.325826 112.333457 
L 370.806999 114.289506 
L 370.806999 116.251555 
L 371.066413 116.251555 
L 371.325826 114.289506 
L 371.325826 112.333457 
L 371.066413 113.311482 
L 371.325826 114.289506 
L 371.58524 116.251555 
L 370.550436 116.251555 
L 371.066413 117.229579 
L 371.066413 119.185627 
L 371.325826 119.185627 
L 371.325826 120.169652 
L 370.806999 122.1257 
L 370.291023 118.207603 
L 370.550436 116.251555 
L 371.066413 116.251555 
L 371.066413 116.251555 
L 370.806999 117.229579 
L 370.806999 116.251555 
L 370.806999 116.251555 
L 370.550436 116.251555 
L 370.550436 115.26753 
L 370.550436 115.26753 
L 370.806999 116.251555 
L 369.772196 118.207603 
L 369.515633 118.207603 
L 370.031609 118.207603 
L 370.031609 118.207603 
L 369.772196 119.185627 
L 370.291023 121.147676 
L 370.031609 123.103725 
L 369.772196 123.103725 
L 369.25622 121.147676 
L 369.25622 122.1257 
L 369.772196 121.147676 
L 370.031609 119.185627 
L 369.515633 119.185627 
L 369.515633 121.147676 
L 369.772196 121.147676 
L 370.291023 117.229579 
L 370.291023 119.185627 
L 370.031609 120.169652 
L 370.031609 121.147676 
L 370.291023 120.169652 
L 369.515633 120.169652 
L 369.772196 120.169652 
L 369.772196 117.229579 
L 369.772196 121.147676 
L 369.515633 123.103725 
L 369.25622 123.103725 
L 369.515633 122.1257 
L 369.772196 120.169652 
L 370.291023 118.207603 
L 370.291023 115.26753 
L 369.772196 114.289506 
L 369.515633 117.229579 
L 369.515633 120.169652 
L 369.515633 119.185627 
L 369.25622 117.229579 
L 369.515633 115.26753 
L 370.031609 114.289506 
L 369.772196 114.289506 
L 368.996806 116.251555 
L 369.515633 118.207603 
L 370.031609 119.185627 
L 370.291023 117.229579 
L 370.031609 113.311482 
L 369.772196 113.311482 
L 369.772196 114.289506 
L 370.031609 116.251555 
L 370.291023 117.229579 
L 370.291023 118.207603 
L 369.515633 121.147676 
L 369.772196 120.169652 
L 369.772196 118.207603 
L 369.515633 117.229579 
L 369.515633 118.207603 
L 369.772196 120.169652 
L 369.772196 120.169652 
L 369.515633 120.169652 
L 368.996806 118.207603 
L 368.221416 117.229579 
L 368.48083 117.229579 
L 369.25622 116.251555 
L 369.772196 115.26753 
L 369.515633 115.26753 
L 369.772196 116.251555 
L 369.772196 121.147676 
L 369.515633 122.1257 
L 370.031609 119.185627 
L 370.031609 115.26753 
L 369.772196 113.311482 
L 369.25622 116.251555 
L 368.996806 119.185627 
L 369.25622 116.251555 
L 369.772196 115.26753 
L 369.772196 116.251555 
L 368.996806 119.185627 
L 368.996806 119.185627 
L 369.25622 117.229579 
L 369.515633 113.311482 
L 369.25622 111.349433 
L 368.996806 112.333457 
L 368.737393 114.289506 
L 368.737393 115.26753 
L 368.996806 117.229579 
L 368.996806 118.207603 
L 369.25622 117.229579 
L 370.031609 116.251555 
L 371.066413 117.229579 
L 371.066413 118.207603 
L 370.550436 118.207603 
L 369.772196 120.169652 
L 369.772196 121.147676 
L 370.031609 120.169652 
L 370.291023 121.147676 
L 370.291023 124.087749 
L 369.772196 125.065773 
L 369.515633 124.087749 
L 369.515633 122.1257 
L 370.291023 116.251555 
L 370.291023 117.229579 
L 369.772196 119.185627 
L 368.737393 120.169652 
L 368.737393 120.169652 
L 370.031609 120.169652 
L 370.550436 119.185627 
L 370.031609 119.185627 
L 369.515633 121.147676 
L 369.515633 122.1257 
L 370.291023 119.185627 
L 370.291023 120.169652 
L 370.031609 124.087749 
L 369.772196 125.065773 
L 370.031609 123.103725 
L 370.031609 122.1257 
L 369.772196 121.147676 
L 369.515633 121.147676 
L 369.772196 121.147676 
L 368.996806 124.087749 
L 368.996806 125.065773 
L 369.515633 125.065773 
L 370.031609 124.087749 
L 370.031609 122.1257 
L 369.772196 121.147676 
L 369.772196 122.1257 
L 369.515633 122.1257 
L 369.515633 121.147676 
L 369.515633 121.147676 
L 369.25622 120.169652 
L 368.996806 120.169652 
L 368.737393 122.1257 
L 369.25622 125.065773 
L 369.772196 125.065773 
L 370.031609 123.103725 
L 369.772196 122.1257 
L 368.996806 122.1257 
L 368.48083 121.147676 
L 368.48083 119.185627 
L 369.25622 119.185627 
L 369.25622 120.169652 
L 369.515633 121.147676 
L 369.515633 122.1257 
L 369.772196 123.103725 
L 369.772196 123.103725 
L 369.515633 121.147676 
L 368.737393 120.169652 
L 368.737393 121.147676 
L 369.515633 122.1257 
L 370.031609 123.103725 
L 369.25622 123.103725 
L 368.737393 122.1257 
L 368.737393 123.103725 
L 368.737393 123.103725 
L 368.48083 123.103725 
L 367.962003 125.065773 
L 367.962003 124.087749 
L 368.221416 123.103725 
L 368.737393 122.1257 
L 368.996806 120.169652 
L 368.221416 121.147676 
L 367.702589 124.087749 
L 367.702589 127.021822 
L 367.962003 127.021822 
L 368.48083 126.043798 
L 368.737393 126.043798 
L 368.737393 127.021822 
L 368.737393 127.021822 
L 368.48083 125.065773 
L 367.962003 124.087749 
L 367.962003 123.103725 
L 367.962003 126.043798 
L 368.221416 124.087749 
L 369.25622 120.169652 
L 369.772196 120.169652 
L 369.772196 125.065773 
L 369.515633 128.005846 
L 369.515633 126.043798 
L 368.996806 125.065773 
L 367.962003 126.043798 
L 367.186613 128.005846 
L 367.446027 128.005846 
L 367.702589 126.043798 
L 367.446027 124.087749 
L 367.446027 123.103725 
L 367.702589 124.087749 
L 368.48083 124.087749 
L 368.737393 125.065773 
L 368.221416 127.021822 
L 367.446027 128.005846 
L 366.9272 128.005846 
L 366.9272 128.98387 
L 367.702589 129.961895 
L 368.221416 129.961895 
L 368.221416 128.005846 
L 367.702589 126.043798 
L 367.702589 126.043798 
L 367.446027 126.043798 
L 366.411223 127.021822 
L 365.892397 127.021822 
L 366.15181 128.005846 
L 366.9272 127.021822 
L 367.186613 126.043798 
L 366.411223 127.021822 
L 365.632983 128.98387 
L 366.15181 128.98387 
L 366.411223 129.961895 
L 366.15181 129.961895 
L 365.892397 128.98387 
L 366.15181 127.021822 
L 366.667786 127.021822 
L 366.667786 127.021822 
L 366.411223 128.005846 
L 366.411223 130.939919 
L 366.411223 129.961895 
L 367.186613 127.021822 
L 367.186613 126.043798 
L 366.9272 126.043798 
L 367.186613 125.065773 
L 367.186613 125.065773 
L 367.186613 128.005846 
L 366.667786 129.961895 
L 366.15181 129.961895 
L 365.632983 130.939919 
L 365.37642 130.939919 
L 365.37642 128.98387 
L 365.117007 128.98387 
L 365.37642 128.98387 
L 365.892397 129.961895 
L 366.667786 130.939919 
L 367.186613 130.939919 
L 366.667786 130.939919 
L 366.411223 129.961895 
L 366.9272 128.005846 
L 366.411223 127.021822 
L 366.15181 128.98387 
L 365.632983 130.939919 
L 365.37642 133.879992 
L 364.857593 133.879992 
L 364.857593 133.879992 
L 365.632983 132.901968 
L 365.892397 130.939919 
L 365.892397 129.961895 
L 365.892397 130.939919 
L 365.37642 131.917943 
L 365.117007 131.917943 
L 365.117007 133.879992 
L 365.117007 130.939919 
L 365.37642 128.005846 
L 365.892397 128.005846 
L 365.892397 128.005846 
L 365.37642 127.021822 
L 365.117007 126.043798 
L 365.37642 128.005846 
L 365.892397 129.961895 
L 365.117007 130.939919 
L 364.59818 132.901968 
L 364.857593 133.879992 
L 364.857593 133.879992 
L 364.59818 133.879992 
L 364.341617 134.858016 
L 364.59818 134.858016 
L 364.857593 135.83604 
L 364.857593 135.83604 
L 365.117007 135.83604 
L 365.117007 134.858016 
L 365.117007 135.83604 
L 364.341617 136.820065 
L 364.082204 135.83604 
L 364.59818 133.879992 
L 365.117007 135.83604 
L 365.37642 139.754138 
L 365.117007 138.776113 
L 364.341617 137.798089 
L 363.0474 132.901968 
L 362.787987 132.901968 
L 363.306814 134.858016 
L 364.082204 136.820065 
L 364.59818 138.776113 
L 364.59818 140.738162 
L 364.082204 142.69421 
L 364.59818 140.738162 
L 364.59818 138.776113 
L 364.082204 137.798089 
L 363.82279 136.820065 
L 363.82279 135.83604 
L 363.82279 138.776113 
L 363.82279 138.776113 
L 364.082204 139.754138 
L 363.82279 138.776113 
L 364.082204 138.776113 
L 364.082204 138.776113 
L 364.341617 137.798089 
L 364.341617 138.776113 
L 364.082204 140.738162 
L 363.0474 140.738162 
L 363.306814 139.754138 
L 363.0474 139.754138 
L 362.528573 138.776113 
L 362.528573 137.798089 
L 363.306814 137.798089 
L 362.787987 138.776113 
L 362.272011 137.798089 
L 362.012597 137.798089 
L 362.528573 137.798089 
L 362.528573 135.83604 
L 362.787987 135.83604 
L 363.0474 136.820065 
L 363.306814 140.738162 
L 363.0474 142.69421 
L 362.787987 142.69421 
L 363.0474 140.738162 
L 362.787987 139.754138 
L 362.272011 138.776113 
L 361.753184 138.776113 
L 361.753184 137.798089 
L 361.753184 139.754138 
L 361.49377 140.738162 
L 362.012597 139.754138 
L 362.272011 138.776113 
L 361.753184 138.776113 
L 361.753184 139.754138 
L 362.012597 139.754138 
L 362.272011 138.776113 
L 362.012597 138.776113 
L 361.49377 139.754138 
L 360.71838 141.716186 
L 360.202404 144.656259 
L 360.202404 146.612308 
L 360.458967 143.672235 
L 360.977794 140.738162 
L 361.237207 137.798089 
L 361.237207 137.798089 
L 360.977794 138.776113 
L 360.977794 139.754138 
L 361.237207 139.754138 
L 361.237207 139.754138 
L 361.49377 140.738162 
L 361.753184 140.738162 
L 361.753184 140.738162 
L 361.237207 138.776113 
L 360.977794 136.820065 
L 360.977794 135.83604 
L 360.977794 137.798089 
L 361.237207 139.754138 
L 360.977794 141.716186 
L 360.71838 141.716186 
L 360.977794 142.69421 
L 362.012597 142.69421 
L 362.272011 141.716186 
L 361.753184 139.754138 
L 361.753184 137.798089 
L 360.977794 136.820065 
L 359.942991 137.798089 
L 358.908187 140.738162 
L 358.132798 144.656259 
L 356.838581 147.590332 
L 355.028388 149.552381 
L 353.474758 148.568356 
L 351.664565 145.634283 
L 349.078982 142.69421 
L 345.455746 141.716186 
L 341.316533 141.716186 
L 337.17732 139.754138 
L 333.038107 139.754138 
L 328.642331 138.776113 
L 319.588516 134.858016 
L 314.414499 134.858016 
L 303.291077 136.820065 
L 297.857648 136.820065 
L 291.908242 135.83604 
L 285.180596 136.820065 
L 278.196387 140.738162 
L 270.696201 146.612308 
L 263.452579 153.470478 
L 255.949543 159.344623 
L 248.965334 166.202794 
L 242.497101 170.120891 
L 229.04751 177.957085 
L 223.095253 182.853206 
L 217.924088 186.771304 
L 213.006634 189.705376 
L 208.610859 192.645449 
L 204.212232 196.563547 
L 200.332433 202.437692 
L 196.96861 208.317838 
L 194.123613 211.257911 
L 186.364015 220.07213 
L 184.294408 223.990227 
L 183.000191 226.9243 
L 180.671171 229.864372 
L 180.930585 230.842397 
L 181.446561 235.744518 
L 181.705975 235.744518 
L 182.481364 234.760494 
L 184.810384 234.760494 
L 185.585774 233.78247 
L 185.845188 232.804445 
L 185.329211 230.842397 
L 185.069798 232.804445 
L 185.069798 235.744518 
L 184.810384 234.760494 
L 184.550971 235.744518 
L 184.550971 237.700567 
L 184.294408 238.678591 
L 184.294408 238.678591 
L 183.775581 243.574712 
L 183.259605 245.536761 
L 182.481364 246.514785 
L 181.965388 247.49281 
L 180.930585 248.476834 
L 180.671171 248.476834 
L 180.671171 249.454858 
L 180.930585 252.394931 
L 180.671171 254.35098 
L 180.155195 254.35098 
L 180.411758 251.410907 
L 181.189998 250.432883 
L 181.446561 249.454858 
L 181.446561 249.454858 
L 181.189998 249.454858 
L 181.189998 251.410907 
L 180.671171 254.35098 
L 179.895782 256.307028 
L 179.376955 257.291053 
L 179.120392 256.307028 
L 179.120392 256.307028 
L 179.636368 257.291053 
L 180.155195 257.291053 
L 180.411758 258.269077 
L 180.411758 259.247101 
L 180.671171 260.225125 
L 180.411758 260.225125 
L 179.895782 258.269077 
L 179.636368 258.269077 
L 179.376955 259.247101 
L 179.636368 262.187174 
L 179.636368 264.143223 
L 179.120392 267.083296 
L 178.085589 266.105271 
L 177.826175 263.165198 
L 177.826175 260.225125 
L 177.826175 260.225125 
L 178.085589 262.187174 
L 178.085589 267.083296 
L 177.826175 270.023368 
L 177.307348 270.023368 
L 177.307348 265.127247 
L 177.050786 266.105271 
L 177.050786 270.023368 
L 177.566762 272.963441 
L 177.826175 272.963441 
L 177.826175 271.001393 
L 177.566762 271.001393 
L 176.791372 272.963441 
L 175.756569 273.941466 
L 175.756569 273.941466 
L 176.272545 274.91949 
L 176.791372 274.91949 
L 176.791372 277.859563 
L 176.531959 281.77766 
L 177.307348 278.837587 
L 177.307348 277.859563 
L 177.050786 278.837587 
L 176.791372 280.793636 
L 176.791372 283.733708 
L 177.307348 285.695757 
L 176.791372 283.733708 
L 176.272545 282.755684 
L 176.015982 280.793636 
L 176.015982 281.77766 
L 176.531959 283.733708 
L 176.531959 285.695757 
L 176.015982 290.591879 
L 177.566762 286.673781 
L 177.307348 285.695757 
L 175.756569 285.695757 
L 175.497155 284.711733 
L 175.497155 287.651806 
L 175.237742 289.613854 
L 174.462352 289.613854 
L 174.202939 288.62983 
L 174.721766 288.62983 
L 174.981179 286.673781 
L 174.721766 285.695757 
L 174.721766 285.695757 
L 174.721766 287.651806 
L 174.462352 289.613854 
L 174.462352 290.591879 
L 174.721766 287.651806 
L 175.497155 283.733708 
L 175.756569 281.77766 
L 174.981179 282.755684 
L 174.721766 285.695757 
L 174.981179 286.673781 
L 175.237742 288.62983 
L 175.237742 290.591879 
L 175.497155 291.569903 
L 175.756569 290.591879 
L 175.756569 288.62983 
L 175.497155 284.711733 
L 174.981179 283.733708 
L 174.981179 285.695757 
L 175.237742 287.651806 
L 176.015982 288.62983 
L 176.015982 288.62983 
L 175.237742 286.673781 
L 174.721766 285.695757 
L 174.981179 284.711733 
L 175.237742 284.711733 
L 175.237742 286.673781 
L 176.015982 283.733708 
L 176.272545 283.733708 
L 176.531959 282.755684 
L 176.531959 282.755684 
L 176.791372 283.733708 
L 176.791372 282.755684 
L 177.050786 281.77766 
L 177.050786 280.793636 
L 176.531959 281.77766 
L 175.756569 283.733708 
L 175.756569 283.733708 
L 176.015982 282.755684 
L 175.756569 281.77766 
L 175.756569 281.77766 
L 177.566762 281.77766 
L 177.566762 280.793636 
L 177.566762 282.755684 
L 177.307348 284.711733 
L 176.791372 284.711733 
L 176.791372 284.711733 
L 176.791372 280.793636 
L 176.531959 279.815611 
L 176.531959 279.815611 
L 176.531959 280.793636 
L 176.015982 281.77766 
L 175.237742 283.733708 
L 174.981179 284.711733 
L 175.237742 283.733708 
L 176.015982 282.755684 
L 176.531959 280.793636 
L 177.307348 280.793636 
L 176.531959 280.793636 
L 177.050786 281.77766 
L 177.826175 281.77766 
L 177.826175 280.793636 
L 177.050786 279.815611 
L 176.015982 280.793636 
L 175.497155 281.77766 
L 175.237742 281.77766 
L 175.497155 281.77766 
L 176.015982 282.755684 
L 176.531959 285.695757 
L 176.272545 284.711733 
L 176.015982 283.733708 
L 176.531959 282.755684 
L 177.566762 282.755684 
L 177.307348 284.711733 
L 176.531959 285.695757 
L 176.272545 286.673781 
L 176.015982 286.673781 
L 175.756569 287.651806 
L 176.015982 286.673781 
L 176.272545 286.673781 
L 176.272545 287.651806 
L 175.756569 287.651806 
L 175.497155 288.62983 
L 175.497155 292.547927 
L 175.237742 290.591879 
L 175.237742 287.651806 
L 175.497155 285.695757 
L 176.015982 284.711733 
L 176.531959 285.695757 
L 176.531959 286.673781 
L 176.272545 287.651806 
L 176.272545 291.569903 
L 176.531959 291.569903 
L 176.791372 290.591879 
L 177.050786 288.62983 
L 177.307348 287.651806 
L 177.307348 287.651806 
L 177.050786 289.613854 
L 176.791372 290.591879 
L 176.531959 290.591879 
L 176.791372 290.591879 
L 177.566762 291.569903 
L 177.826175 294.509976 
L 177.307348 295.488 
L 177.050786 293.525951 
L 177.307348 292.547927 
L 177.307348 293.525951 
L 177.050786 292.547927 
L 176.791372 289.613854 
L 177.307348 287.651806 
L 177.566762 287.651806 
L 177.307348 288.62983 
L 177.307348 290.591879 
L 177.566762 291.569903 
L 177.307348 291.569903 
L 177.566762 293.525951 
L 177.826175 294.509976 
L 177.826175 291.569903 
L 177.566762 292.547927 
L 176.791372 293.525951 
L 176.272545 293.525951 
L 177.050786 293.525951 
L 177.050786 292.547927 
L 177.307348 291.569903 
L 178.601565 287.651806 
L 179.895782 284.711733 
L 181.705975 281.77766 
L 184.294408 278.837587 
L 187.914794 271.979417 
L 192.31342 265.127247 
L 203.952819 252.394931 
L 217.405261 231.826421 
L 224.38947 223.990227 
L 239.652105 205.377765 
L 248.965334 193.623474 
L 259.313366 180.891158 
L 269.917961 166.202794 
L 280.265993 152.486453 
L 290.098049 139.754138 
L 299.927254 126.043798 
L 308.98107 114.289506 
L 316.740669 103.519239 
L 323.727728 94.69902 
L 329.677134 87.84685 
L 335.367127 82.950729 
L 341.575946 80.010656 
L 347.525352 78.048607 
L 353.474758 74.13051 
L 358.908187 70.218413 
L 364.341617 68.256364 
L 370.031609 69.234389 
L 375.465039 67.27834 
L 380.120228 64.338267 
L 384.259441 61.398194 
L 388.13924 59.442146 
L 391.24365 56.502073 
L 393.57267 54.546024 
L 397.45247 56.502073 
L 398.487273 56.502073 
L 398.487273 57.480097 
L 397.45247 59.442146 
L 396.158253 61.398194 
L 395.12345 64.338267 
L 393.832084 67.27834 
L 392.278453 71.196437 
L 389.692871 77.070583 
L 388.13924 80.010656 
L 386.329048 81.966704 
L 384.518855 84.906777 
L 383.743465 84.906777 
L 383.743465 84.906777 
L 384.259441 86.868826 
L 384.518855 86.868826 
L 384.518855 84.906777 
L 384.259441 82.950729 
L 384.259441 82.950729 
L 384.000028 84.906777 
L 384.000028 82.950729 
L 384.000028 82.950729 
L 384.259441 85.884802 
L 384.259441 89.802899 
L 384.518855 94.69902 
L 384.778268 96.661069 
L 385.034831 95.683045 
L 384.778268 95.683045 
L 384.259441 96.661069 
L 384.259441 96.661069 
L 383.743465 95.683045 
L 383.224638 93.720996 
L 382.449248 93.720996 
L 382.189835 95.683045 
L 381.930421 100.579166 
L 381.414445 102.535214 
L 380.895618 102.535214 
L 380.895618 103.519239 
L 381.414445 104.497263 
L 381.930421 104.497263 
L 382.449248 102.535214 
L 381.930421 103.519239 
L 381.155031 105.475287 
L 380.895618 106.453312 
L 380.639055 108.41536 
L 380.379642 109.393385 
L 380.120228 111.349433 
L 379.860815 112.333457 
L 379.344838 111.349433 
L 379.085425 108.41536 
L 379.860815 105.475287 
L 380.120228 106.453312 
L 378.826011 113.311482 
L 379.085425 115.26753 
L 379.344838 116.251555 
L 379.344838 117.229579 
L 379.344838 116.251555 
L 379.085425 115.26753 
L 379.085425 115.26753 
L 379.085425 114.289506 
L 378.569449 115.26753 
L 377.791208 116.251555 
L 377.275232 115.26753 
L 377.015818 114.289506 
L 376.499842 114.289506 
L 376.499842 116.251555 
L 376.756405 118.207603 
L 377.015818 119.185627 
L 377.791208 119.185627 
L 377.275232 117.229579 
L 376.756405 116.251555 
L 377.534645 119.185627 
L 377.791208 121.147676 
L 377.791208 122.1257 
L 377.534645 121.147676 
L 377.275232 121.147676 
L 377.275232 124.087749 
L 376.756405 122.1257 
L 376.756405 124.087749 
L 376.240429 127.021822 
L 375.981015 126.043798 
L 376.240429 123.103725 
L 376.240429 121.147676 
L 376.240429 128.98387 
L 376.240429 128.98387 
L 376.499842 128.005846 
L 376.499842 129.961895 
L 376.240429 130.939919 
L 375.721602 129.961895 
L 376.240429 129.961895 
L 376.499842 128.98387 
L 376.756405 128.98387 
L 376.756405 128.98387 
L 376.240429 128.005846 
L 374.946212 128.005846 
L 374.946212 128.005846 
L 375.721602 128.98387 
L 376.240429 127.021822 
L 375.721602 126.043798 
L 374.430236 126.043798 
L 374.170822 127.021822 
L 374.686799 128.98387 
L 373.136019 130.939919 
L 372.876606 131.917943 
L 373.136019 133.879992 
L 373.911409 134.858016 
L 374.686799 134.858016 
L 374.686799 132.901968 
L 374.430236 131.917943 
L 375.205626 134.858016 
L 375.465039 134.858016 
L 374.946212 132.901968 
L 374.430236 131.917943 
L 374.170822 130.939919 
L 373.654846 129.961895 
L 373.654846 128.005846 
L 373.911409 126.043798 
L 374.170822 127.021822 
L 373.395433 131.917943 
L 373.654846 132.901968 
L 373.654846 132.901968 
L 373.395433 132.901968 
L 372.620043 134.858016 
L 372.360629 134.858016 
L 372.876606 129.961895 
L 373.395433 128.98387 
L 373.136019 128.98387 
L 372.620043 130.939919 
L 372.876606 131.917943 
L 372.876606 130.939919 
L 372.360629 132.901968 
L 372.101216 134.858016 
L 372.360629 137.798089 
L 372.360629 137.798089 
L 372.620043 136.820065 
L 372.620043 135.83604 
L 371.841802 134.858016 
L 371.066413 134.858016 
L 370.550436 135.83604 
L 371.066413 135.83604 
L 371.841802 134.858016 
L 372.360629 133.879992 
L 372.360629 133.879992 
L 372.360629 134.858016 
L 371.066413 139.754138 
L 371.066413 140.738162 
L 371.066413 139.754138 
L 370.806999 141.716186 
L 371.066413 141.716186 
L 371.066413 140.738162 
L 370.806999 138.776113 
L 370.550436 138.776113 
L 371.066413 142.69421 
L 371.066413 141.716186 
L 370.806999 139.754138 
L 370.806999 138.776113 
L 371.066413 138.776113 
L 371.325826 140.738162 
L 371.325826 142.69421 
L 371.58524 142.69421 
L 371.325826 141.716186 
L 370.806999 140.738162 
L 370.550436 140.738162 
L 370.806999 141.716186 
L 371.325826 141.716186 
L 371.325826 141.716186 
L 370.806999 143.672235 
L 370.291023 143.672235 
L 370.291023 142.69421 
L 370.291023 142.69421 
L 371.325826 144.656259 
L 371.841802 144.656259 
L 371.325826 146.612308 
L 370.806999 149.552381 
L 370.291023 149.552381 
L 369.772196 146.612308 
L 369.25622 145.634283 
L 369.772196 145.634283 
L 370.031609 144.656259 
L 370.031609 144.656259 
L 370.550436 146.612308 
L 370.550436 147.590332 
L 370.291023 145.634283 
L 369.772196 144.656259 
L 369.772196 143.672235 
L 370.031609 141.716186 
L 370.550436 140.738162 
L 370.291023 141.716186 
L 369.515633 142.69421 
L 369.25622 143.672235 
L 369.772196 144.656259 
L 370.550436 145.634283 
L 370.806999 146.612308 
L 370.291023 146.612308 
L 369.772196 145.634283 
L 369.772196 146.612308 
L 369.515633 149.552381 
L 368.996806 148.568356 
L 369.25622 146.612308 
L 369.772196 144.656259 
L 369.772196 143.672235 
L 368.996806 143.672235 
L 368.996806 145.634283 
L 368.737393 146.612308 
L 368.737393 145.634283 
L 368.996806 143.672235 
L 369.515633 143.672235 
L 370.031609 145.634283 
L 370.550436 145.634283 
L 370.291023 143.672235 
L 369.772196 143.672235 
L 369.515633 145.634283 
L 369.515633 147.590332 
L 369.772196 148.568356 
L 370.031609 148.568356 
L 370.291023 149.552381 
L 370.291023 150.530405 
L 370.291023 150.530405 
L 370.031609 149.552381 
L 369.515633 149.552381 
L 368.737393 148.568356 
L 368.737393 148.568356 
L 368.737393 147.590332 
L 368.737393 147.590332 
L 369.772196 145.634283 
L 368.996806 145.634283 
L 368.48083 146.612308 
L 368.48083 147.590332 
L 368.996806 149.552381 
L 368.996806 150.530405 
L 368.737393 150.530405 
L 368.737393 150.530405 
L 368.221416 151.508429 
L 367.962003 152.486453 
L 367.702589 151.508429 
L 367.702589 149.552381 
L 367.702589 149.552381 
L 367.446027 150.530405 
L 367.446027 150.530405 
L 367.702589 150.530405 
L 367.962003 149.552381 
L 367.702589 149.552381 
L 367.962003 149.552381 
L 367.962003 151.508429 
L 367.702589 153.470478 
L 367.702589 152.486453 
L 367.446027 150.530405 
L 367.186613 151.508429 
L 367.186613 154.448502 
L 367.702589 157.388575 
L 366.411223 157.388575 
L 366.411223 158.366599 
L 366.15181 158.366599 
L 366.411223 158.366599 
L 367.186613 155.426526 
L 367.446027 156.404551 
L 367.186613 157.388575 
L 366.9272 156.404551 
L 366.9272 155.426526 
L 366.667786 155.426526 
L 366.15181 156.404551 
L 365.892397 157.388575 
L 366.411223 158.366599 
L 366.667786 158.366599 
L 366.15181 154.448502 
L 366.15181 157.388575 
L 365.632983 156.404551 
L 365.37642 155.426526 
L 365.117007 155.426526 
L 365.117007 155.426526 
L 364.857593 154.448502 
L 365.892397 154.448502 
L 365.632983 154.448502 
L 365.632983 156.404551 
L 365.632983 156.404551 
L 366.15181 152.486453 
L 365.37642 153.470478 
L 364.341617 155.426526 
L 364.341617 156.404551 
L 364.857593 156.404551 
L 364.857593 157.388575 
L 365.117007 159.344623 
L 365.37642 160.322648 
L 365.37642 156.404551 
L 365.892397 157.388575 
L 366.411223 157.388575 
L 365.37642 157.388575 
L 364.857593 158.366599 
L 364.857593 158.366599 
L 365.117007 156.404551 
L 365.117007 156.404551 
L 365.37642 158.366599 
L 366.15181 162.284696 
L 365.632983 162.284696 
L 364.082204 158.366599 
L 363.82279 158.366599 
L 364.341617 158.366599 
L 364.857593 156.404551 
L 365.117007 154.448502 
L 365.117007 155.426526 
L 364.857593 158.366599 
L 364.341617 162.284696 
L 364.341617 163.262721 
L 364.59818 163.262721 
L 365.632983 162.284696 
L 365.892397 159.344623 
L 365.117007 157.388575 
L 364.082204 157.388575 
L 363.82279 158.366599 
L 364.341617 159.344623 
L 364.857593 161.306672 
L 365.117007 161.306672 
L 364.857593 160.322648 
L 364.082204 160.322648 
L 363.563377 158.366599 
L 363.82279 157.388575 
L 364.341617 159.344623 
L 364.857593 160.322648 
L 365.117007 161.306672 
L 365.117007 163.262721 
L 365.117007 162.284696 
L 364.857593 160.322648 
L 364.59818 159.344623 
L 364.341617 160.322648 
L 364.341617 161.306672 
L 364.341617 159.344623 
L 364.082204 158.366599 
L 363.563377 158.366599 
L 364.082204 160.322648 
L 363.82279 162.284696 
L 363.306814 164.240745 
L 363.306814 165.218769 
L 363.82279 164.240745 
L 364.082204 163.262721 
L 363.82279 162.284696 
L 363.82279 162.284696 
L 364.082204 164.240745 
L 364.082204 164.240745 
L 363.82279 165.218769 
L 363.563377 167.180818 
L 363.306814 167.180818 
L 364.082204 164.240745 
L 364.59818 161.306672 
L 364.59818 162.284696 
L 364.082204 164.240745 
L 363.306814 165.218769 
L 363.0474 164.240745 
L 363.563377 163.262721 
L 363.82279 163.262721 
L 363.563377 163.262721 
L 363.563377 165.218769 
L 363.0474 165.218769 
L 362.787987 164.240745 
L 362.787987 162.284696 
L 363.306814 160.322648 
L 363.82279 159.344623 
L 364.857593 159.344623 
L 364.59818 159.344623 
L 363.82279 158.366599 
L 363.0474 160.322648 
L 362.272011 163.262721 
L 362.272011 165.218769 
L 362.012597 165.218769 
L 362.012597 165.218769 
L 361.753184 164.240745 
L 361.753184 163.262721 
L 361.753184 167.180818 
L 361.49377 168.158842 
L 361.753184 165.218769 
L 362.012597 159.344623 
L 362.272011 161.306672 
L 362.787987 162.284696 
L 363.0474 163.262721 
L 363.0474 163.262721 
L 361.753184 163.262721 
L 361.753184 162.284696 
L 362.012597 161.306672 
L 362.272011 161.306672 
L 362.272011 162.284696 
L 361.753184 164.240745 
L 361.49377 163.262721 
L 360.977794 162.284696 
L 360.71838 163.262721 
L 360.71838 164.240745 
L 360.977794 164.240745 
L 361.49377 162.284696 
L 361.49377 162.284696 
L 361.49377 163.262721 
L 361.753184 165.218769 
L 361.753184 165.218769 
L 360.977794 162.284696 
L 360.977794 162.284696 
L 360.977794 164.240745 
L 360.71838 165.218769 
L 360.71838 165.218769 
" style="fill:none;stroke:#1f77b4;stroke-linecap:square;stroke-width:1.5;"/>
   </g>
   <g id="matplotlib.axis_1">
    <g id="xtick_1">
     <g id="line2d_2">
      <defs>
       <path d="M 0 0 
L 0 3.5 
" id="m669086148b" style="stroke:#000000;stroke-width:0.8;"/>
      </defs>
      <g>
       <use style="stroke:#000000;stroke-width:0.8;" x="110.518355" xlink:href="#m669086148b" y="307.584"/>
      </g>
     </g>
     <g id="text_1">
      <!-- −600 -->
      <defs>
       <path d="M 10.59375 35.5 
L 73.1875 35.5 
L 73.1875 27.203125 
L 10.59375 27.203125 
z
" id="DejaVuSans-8722"/>
       <path d="M 33.015625 40.375 
Q 26.375 40.375 22.484375 35.828125 
Q 18.609375 31.296875 18.609375 23.390625 
Q 18.609375 15.53125 22.484375 10.953125 
Q 26.375 6.390625 33.015625 6.390625 
Q 39.65625 6.390625 43.53125 10.953125 
Q 47.40625 15.53125 47.40625 23.390625 
Q 47.40625 31.296875 43.53125 35.828125 
Q 39.65625 40.375 33.015625 40.375 
z
M 52.59375 71.296875 
L 52.59375 62.3125 
Q 48.875 64.0625 45.09375 64.984375 
Q 41.3125 65.921875 37.59375 65.921875 
Q 27.828125 65.921875 22.671875 59.328125 
Q 17.53125 52.734375 16.796875 39.40625 
Q 19.671875 43.65625 24.015625 45.921875 
Q 28.375 48.1875 33.59375 48.1875 
Q 44.578125 48.1875 50.953125 41.515625 
Q 57.328125 34.859375 57.328125 23.390625 
Q 57.328125 12.15625 50.6875 5.359375 
Q 44.046875 -1.421875 33.015625 -1.421875 
Q 20.359375 -1.421875 13.671875 8.265625 
Q 6.984375 17.96875 6.984375 36.375 
Q 6.984375 53.65625 15.1875 63.9375 
Q 23.390625 74.21875 37.203125 74.21875 
Q 40.921875 74.21875 44.703125 73.484375 
Q 48.484375 72.75 52.59375 71.296875 
z
" id="DejaVuSans-54"/>
       <path d="M 31.78125 66.40625 
Q 24.171875 66.40625 20.328125 58.90625 
Q 16.5 51.421875 16.5 36.375 
Q 16.5 21.390625 20.328125 13.890625 
Q 24.171875 6.390625 31.78125 6.390625 
Q 39.453125 6.390625 43.28125 13.890625 
Q 47.125 21.390625 47.125 36.375 
Q 47.125 51.421875 43.28125 58.90625 
Q 39.453125 66.40625 31.78125 66.40625 
z
M 31.78125 74.21875 
Q 44.046875 74.21875 50.515625 64.515625 
Q 56.984375 54.828125 56.984375 36.375 
Q 56.984375 17.96875 50.515625 8.265625 
Q 44.046875 -1.421875 31.78125 -1.421875 
Q 19.53125 -1.421875 13.0625 8.265625 
Q 6.59375 17.96875 6.59375 36.375 
Q 6.59375 54.828125 13.0625 64.515625 
Q 19.53125 74.21875 31.78125 74.21875 
z
" id="DejaVuSans-48"/>
      </defs>
      <g transform="translate(96.784761 322.182437)scale(0.1 -0.1)">
       <use xlink:href="#DejaVuSans-8722"/>
       <use x="83.789062" xlink:href="#DejaVuSans-54"/>
       <use x="147.412109" xlink:href="#DejaVuSans-48"/>
       <use x="211.035156" xlink:href="#DejaVuSans-48"/>
      </g>
     </g>
    </g>
    <g id="xtick_2">
     <g id="line2d_3">
      <g>
       <use style="stroke:#000000;stroke-width:0.8;" x="167.532306" xlink:href="#m669086148b" y="307.584"/>
      </g>
     </g>
     <g id="text_2">
      <!-- −400 -->
      <defs>
       <path d="M 37.796875 64.3125 
L 12.890625 25.390625 
L 37.796875 25.390625 
z
M 35.203125 72.90625 
L 47.609375 72.90625 
L 47.609375 25.390625 
L 58.015625 25.390625 
L 58.015625 17.1875 
L 47.609375 17.1875 
L 47.609375 0 
L 37.796875 0 
L 37.796875 17.1875 
L 4.890625 17.1875 
L 4.890625 26.703125 
z
" id="DejaVuSans-52"/>
      </defs>
      <g transform="translate(153.798713 322.182437)scale(0.1 -0.1)">
       <use xlink:href="#DejaVuSans-8722"/>
       <use x="83.789062" xlink:href="#DejaVuSans-52"/>
       <use x="147.412109" xlink:href="#DejaVuSans-48"/>
       <use x="211.035156" xlink:href="#DejaVuSans-48"/>
      </g>
     </g>
    </g>
    <g id="xtick_3">
     <g id="line2d_4">
      <g>
       <use style="stroke:#000000;stroke-width:0.8;" x="224.546258" xlink:href="#m669086148b" y="307.584"/>
      </g>
     </g>
     <g id="text_3">
      <!-- −200 -->
      <defs>
       <path d="M 19.1875 8.296875 
L 53.609375 8.296875 
L 53.609375 0 
L 7.328125 0 
L 7.328125 8.296875 
Q 12.9375 14.109375 22.625 23.890625 
Q 32.328125 33.6875 34.8125 36.53125 
Q 39.546875 41.84375 41.421875 45.53125 
Q 43.3125 49.21875 43.3125 52.78125 
Q 43.3125 58.59375 39.234375 62.25 
Q 35.15625 65.921875 28.609375 65.921875 
Q 23.96875 65.921875 18.8125 64.3125 
Q 13.671875 62.703125 7.8125 59.421875 
L 7.8125 69.390625 
Q 13.765625 71.78125 18.9375 73 
Q 24.125 74.21875 28.421875 74.21875 
Q 39.75 74.21875 46.484375 68.546875 
Q 53.21875 62.890625 53.21875 53.421875 
Q 53.21875 48.921875 51.53125 44.890625 
Q 49.859375 40.875 45.40625 35.40625 
Q 44.1875 33.984375 37.640625 27.21875 
Q 31.109375 20.453125 19.1875 8.296875 
z
" id="DejaVuSans-50"/>
      </defs>
      <g transform="translate(210.812664 322.182437)scale(0.1 -0.1)">
       <use xlink:href="#DejaVuSans-8722"/>
       <use x="83.789062" xlink:href="#DejaVuSans-50"/>
       <use x="147.412109" xlink:href="#DejaVuSans-48"/>
       <use x="211.035156" xlink:href="#DejaVuSans-48"/>
      </g>
     </g>
    </g>
    <g id="xtick_4">
     <g id="line2d_5">
      <g>
       <use style="stroke:#000000;stroke-width:0.8;" x="281.56021" xlink:href="#m669086148b" y="307.584"/>
      </g>
     </g>
     <g id="text_4">
      <!-- 0 -->
      <g transform="translate(278.37896 322.182437)scale(0.1 -0.1)">
       <use xlink:href="#DejaVuSans-48"/>
      </g>
     </g>
    </g>
    <g id="xtick_5">
     <g id="line2d_6">
      <g>
       <use style="stroke:#000000;stroke-width:0.8;" x="338.574162" xlink:href="#m669086148b" y="307.584"/>
      </g>
     </g>
     <g id="text_5">
      <!-- 200 -->
      <g transform="translate(329.030412 322.182437)scale(0.1 -0.1)">
       <use xlink:href="#DejaVuSans-50"/>
       <use x="63.623047" xlink:href="#DejaVuSans-48"/>
       <use x="127.246094" xlink:href="#DejaVuSans-48"/>
      </g>
     </g>
    </g>
    <g id="xtick_6">
     <g id="line2d_7">
      <g>
       <use style="stroke:#000000;stroke-width:0.8;" x="395.588113" xlink:href="#m669086148b" y="307.584"/>
      </g>
     </g>
     <g id="text_6">
      <!-- 400 -->
      <g transform="translate(386.044363 322.182437)scale(0.1 -0.1)">
       <use xlink:href="#DejaVuSans-52"/>
       <use x="63.623047" xlink:href="#DejaVuSans-48"/>
       <use x="127.246094" xlink:href="#DejaVuSans-48"/>
      </g>
     </g>
    </g>
   </g>
   <g id="matplotlib.axis_2">
    <g id="ytick_1">
     <g id="line2d_8">
      <defs>
       <path d="M 0 0 
L -3.5 0 
" id="m54c7cb917d" style="stroke:#000000;stroke-width:0.8;"/>
      </defs>
      <g>
       <use style="stroke:#000000;stroke-width:0.8;" x="57.6" xlink:href="#m54c7cb917d" y="292.559927"/>
      </g>
     </g>
     <g id="text_7">
      <!-- −450 -->
      <defs>
       <path d="M 10.796875 72.90625 
L 49.515625 72.90625 
L 49.515625 64.59375 
L 19.828125 64.59375 
L 19.828125 46.734375 
Q 21.96875 47.46875 24.109375 47.828125 
Q 26.265625 48.1875 28.421875 48.1875 
Q 40.625 48.1875 47.75 41.5 
Q 54.890625 34.8125 54.890625 23.390625 
Q 54.890625 11.625 47.5625 5.09375 
Q 40.234375 -1.421875 26.90625 -1.421875 
Q 22.3125 -1.421875 17.546875 -0.640625 
Q 12.796875 0.140625 7.71875 1.703125 
L 7.71875 11.625 
Q 12.109375 9.234375 16.796875 8.0625 
Q 21.484375 6.890625 26.703125 6.890625 
Q 35.15625 6.890625 40.078125 11.328125 
Q 45.015625 15.765625 45.015625 23.390625 
Q 45.015625 31 40.078125 35.4375 
Q 35.15625 39.890625 26.703125 39.890625 
Q 22.75 39.890625 18.8125 39.015625 
Q 14.890625 38.140625 10.796875 36.28125 
z
" id="DejaVuSans-53"/>
      </defs>
      <g transform="translate(23.132812 296.359146)scale(0.1 -0.1)">
       <use xlink:href="#DejaVuSans-8722"/>
       <use x="83.789062" xlink:href="#DejaVuSans-52"/>
       <use x="147.412109" xlink:href="#DejaVuSans-53"/>
       <use x="211.035156" xlink:href="#DejaVuSans-48"/>
      </g>
     </g>
    </g>
    <g id="ytick_2">
     <g id="line2d_9">
      <g>
       <use style="stroke:#000000;stroke-width:0.8;" x="57.6" xlink:href="#m54c7cb917d" y="262.559183"/>
      </g>
     </g>
     <g id="text_8">
      <!-- −400 -->
      <g transform="translate(23.132812 266.358402)scale(0.1 -0.1)">
       <use xlink:href="#DejaVuSans-8722"/>
       <use x="83.789062" xlink:href="#DejaVuSans-52"/>
       <use x="147.412109" xlink:href="#DejaVuSans-48"/>
       <use x="211.035156" xlink:href="#DejaVuSans-48"/>
      </g>
     </g>
    </g>
    <g id="ytick_3">
     <g id="line2d_10">
      <g>
       <use style="stroke:#000000;stroke-width:0.8;" x="57.6" xlink:href="#m54c7cb917d" y="232.558439"/>
      </g>
     </g>
     <g id="text_9">
      <!-- −350 -->
      <defs>
       <path d="M 40.578125 39.3125 
Q 47.65625 37.796875 51.625 33 
Q 55.609375 28.21875 55.609375 21.1875 
Q 55.609375 10.40625 48.1875 4.484375 
Q 40.765625 -1.421875 27.09375 -1.421875 
Q 22.515625 -1.421875 17.65625 -0.515625 
Q 12.796875 0.390625 7.625 2.203125 
L 7.625 11.71875 
Q 11.71875 9.328125 16.59375 8.109375 
Q 21.484375 6.890625 26.8125 6.890625 
Q 36.078125 6.890625 40.9375 10.546875 
Q 45.796875 14.203125 45.796875 21.1875 
Q 45.796875 27.640625 41.28125 31.265625 
Q 36.765625 34.90625 28.71875 34.90625 
L 20.21875 34.90625 
L 20.21875 43.015625 
L 29.109375 43.015625 
Q 36.375 43.015625 40.234375 45.921875 
Q 44.09375 48.828125 44.09375 54.296875 
Q 44.09375 59.90625 40.109375 62.90625 
Q 36.140625 65.921875 28.71875 65.921875 
Q 24.65625 65.921875 20.015625 65.03125 
Q 15.375 64.15625 9.8125 62.3125 
L 9.8125 71.09375 
Q 15.4375 72.65625 20.34375 73.4375 
Q 25.25 74.21875 29.59375 74.21875 
Q 40.828125 74.21875 47.359375 69.109375 
Q 53.90625 64.015625 53.90625 55.328125 
Q 53.90625 49.265625 50.4375 45.09375 
Q 46.96875 40.921875 40.578125 39.3125 
z
" id="DejaVuSans-51"/>
      </defs>
      <g transform="translate(23.132812 236.357658)scale(0.1 -0.1)">
       <use xlink:href="#DejaVuSans-8722"/>
       <use x="83.789062" xlink:href="#DejaVuSans-51"/>
       <use x="147.412109" xlink:href="#DejaVuSans-53"/>
       <use x="211.035156" xlink:href="#DejaVuSans-48"/>
      </g>
     </g>
    </g>
    <g id="ytick_4">
     <g id="line2d_11">
      <g>
       <use style="stroke:#000000;stroke-width:0.8;" x="57.6" xlink:href="#m54c7cb917d" y="202.557695"/>
      </g>
     </g>
     <g id="text_10">
      <!-- −300 -->
      <g transform="translate(23.132812 206.356914)scale(0.1 -0.1)">
       <use xlink:href="#DejaVuSans-8722"/>
       <use x="83.789062" xlink:href="#DejaVuSans-51"/>
       <use x="147.412109" xlink:href="#DejaVuSans-48"/>
       <use x="211.035156" xlink:href="#DejaVuSans-48"/>
      </g>
     </g>
    </g>
    <g id="ytick_5">
     <g id="line2d_12">
      <g>
       <use style="stroke:#000000;stroke-width:0.8;" x="57.6" xlink:href="#m54c7cb917d" y="172.556951"/>
      </g>
     </g>
     <g id="text_11">
      <!-- −250 -->
      <g transform="translate(23.132812 176.35617)scale(0.1 -0.1)">
       <use xlink:href="#DejaVuSans-8722"/>
       <use x="83.789062" xlink:href="#DejaVuSans-50"/>
       <use x="147.412109" xlink:href="#DejaVuSans-53"/>
       <use x="211.035156" xlink:href="#DejaVuSans-48"/>
      </g>
     </g>
    </g>
    <g id="ytick_6">
     <g id="line2d_13">
      <g>
       <use style="stroke:#000000;stroke-width:0.8;" x="57.6" xlink:href="#m54c7cb917d" y="142.556207"/>
      </g>
     </g>
     <g id="text_12">
      <!-- −200 -->
      <g transform="translate(23.132812 146.355426)scale(0.1 -0.1)">
       <use xlink:href="#DejaVuSans-8722"/>
       <use x="83.789062" xlink:href="#DejaVuSans-50"/>
       <use x="147.412109" xlink:href="#DejaVuSans-48"/>
       <use x="211.035156" xlink:href="#DejaVuSans-48"/>
      </g>
     </g>
    </g>
    <g id="ytick_7">
     <g id="line2d_14">
      <g>
       <use style="stroke:#000000;stroke-width:0.8;" x="57.6" xlink:href="#m54c7cb917d" y="112.555463"/>
      </g>
     </g>
     <g id="text_13">
      <!-- −150 -->
      <defs>
       <path d="M 12.40625 8.296875 
L 28.515625 8.296875 
L 28.515625 63.921875 
L 10.984375 60.40625 
L 10.984375 69.390625 
L 28.421875 72.90625 
L 38.28125 72.90625 
L 38.28125 8.296875 
L 54.390625 8.296875 
L 54.390625 0 
L 12.40625 0 
z
" id="DejaVuSans-49"/>
      </defs>
      <g transform="translate(23.132812 116.354682)scale(0.1 -0.1)">
       <use xlink:href="#DejaVuSans-8722"/>
       <use x="83.789062" xlink:href="#DejaVuSans-49"/>
       <use x="147.412109" xlink:href="#DejaVuSans-53"/>
       <use x="211.035156" xlink:href="#DejaVuSans-48"/>
      </g>
     </g>
    </g>
    <g id="ytick_8">
     <g id="line2d_15">
      <g>
       <use style="stroke:#000000;stroke-width:0.8;" x="57.6" xlink:href="#m54c7cb917d" y="82.554719"/>
      </g>
     </g>
     <g id="text_14">
      <!-- −100 -->
      <g transform="translate(23.132812 86.353938)scale(0.1 -0.1)">
       <use xlink:href="#DejaVuSans-8722"/>
       <use x="83.789062" xlink:href="#DejaVuSans-49"/>
       <use x="147.412109" xlink:href="#DejaVuSans-48"/>
       <use x="211.035156" xlink:href="#DejaVuSans-48"/>
      </g>
     </g>
    </g>
    <g id="ytick_9">
     <g id="line2d_16">
      <g>
       <use style="stroke:#000000;stroke-width:0.8;" x="57.6" xlink:href="#m54c7cb917d" y="52.553975"/>
      </g>
     </g>
     <g id="text_15">
      <!-- −50 -->
      <g transform="translate(29.495313 56.353194)scale(0.1 -0.1)">
       <use xlink:href="#DejaVuSans-8722"/>
       <use x="83.789062" xlink:href="#DejaVuSans-53"/>
       <use x="147.412109" xlink:href="#DejaVuSans-48"/>
      </g>
     </g>
    </g>
   </g>
   <g id="line2d_17">
    <path clip-path="url(#p5b5105a96c)" d="M 76.864881 195.27378 
L 179.817307 212.770854 
L 180.334953 269.834694 
L 373.774986 96.222967 
L 365.705714 127.349312 
L 178.606538 269.73676 
L 380.947804 99.475301 
L 367.836197 149.9814 
" style="fill:none;stroke:#ff0000;stroke-linecap:square;stroke-width:0.5;"/>
   </g>
   <g id="patch_3">
    <path d="M 57.6 307.584 
L 57.6 41.472 
" style="fill:none;stroke:#000000;stroke-linecap:square;stroke-linejoin:miter;stroke-width:0.8;"/>
   </g>
   <g id="patch_4">
    <path d="M 414.72 307.584 
L 414.72 41.472 
" style="fill:none;stroke:#000000;stroke-linecap:square;stroke-linejoin:miter;stroke-width:0.8;"/>
   </g>
   <g id="patch_5">
    <path d="M 57.6 307.584 
L 414.72 307.584 
" style="fill:none;stroke:#000000;stroke-linecap:square;stroke-linejoin:miter;stroke-width:0.8;"/>
   </g>
   <g id="patch_6">
    <path d="M 57.6 41.472 
L 414.72 41.472 
" style="fill:none;stroke:#000000;stroke-linecap:square;stroke-linejoin:miter;stroke-width:0.8;"/>
   </g>
   <g id="PathCollection_1">
    <defs>
     <path d="M 0 2.738613 
C 0.726289 2.738613 1.422928 2.450055 1.936492 1.936492 
C 2.450055 1.422928 2.738613 0.726289 2.738613 0 
C 2.738613 -0.726289 2.450055 -1.422928 1.936492 -1.936492 
C 1.422928 -2.450055 0.726289 -2.738613 0 -2.738613 
C -0.726289 -2.738613 -1.422928 -2.450055 -1.936492 -1.936492 
C -2.450055 -1.422928 -2.738613 -0.726289 -2.738613 0 
C -2.738613 0.726289 -2.450055 1.422928 -1.936492 1.936492 
C -1.422928 2.450055 -0.726289 2.738613 0 2.738613 
z
" id="m1f62c75d4e" style="stroke:#ff0000;"/>
    </defs>
    <g clip-path="url(#p5b5105a96c)">
     <use style="fill:#ff0000;stroke:#ff0000;" x="76.864881" xlink:href="#m1f62c75d4e" y="195.27378"/>
     <use style="fill:#ff0000;stroke:#ff0000;" x="179.817307" xlink:href="#m1f62c75d4e" y="212.770854"/>
     <use style="fill:#ff0000;stroke:#ff0000;" x="180.334953" xlink:href="#m1f62c75d4e" y="269.834694"/>
     <use style="fill:#ff0000;stroke:#ff0000;" x="373.774986" xlink:href="#m1f62c75d4e" y="96.222967"/>
     <use style="fill:#ff0000;stroke:#ff0000;" x="365.705714" xlink:href="#m1f62c75d4e" y="127.349312"/>
     <use style="fill:#ff0000;stroke:#ff0000;" x="178.606538" xlink:href="#m1f62c75d4e" y="269.73676"/>
     <use style="fill:#ff0000;stroke:#ff0000;" x="380.947804" xlink:href="#m1f62c75d4e" y="99.475301"/>
     <use style="fill:#ff0000;stroke:#ff0000;" x="367.836197" xlink:href="#m1f62c75d4e" y="149.9814"/>
    </g>
   </g>
   <g id="text_16">
    <!-- (140) Subject: s13, Known = False, Degree = 2, Duration = 0.1 -->
    <defs>
     <path d="M 31 75.875 
Q 24.46875 64.65625 21.28125 53.65625 
Q 18.109375 42.671875 18.109375 31.390625 
Q 18.109375 20.125 21.3125 9.0625 
Q 24.515625 -2 31 -13.1875 
L 23.1875 -13.1875 
Q 15.875 -1.703125 12.234375 9.375 
Q 8.59375 20.453125 8.59375 31.390625 
Q 8.59375 42.28125 12.203125 53.3125 
Q 15.828125 64.359375 23.1875 75.875 
z
" id="DejaVuSans-40"/>
     <path d="M 8.015625 75.875 
L 15.828125 75.875 
Q 23.140625 64.359375 26.78125 53.3125 
Q 30.421875 42.28125 30.421875 31.390625 
Q 30.421875 20.453125 26.78125 9.375 
Q 23.140625 -1.703125 15.828125 -13.1875 
L 8.015625 -13.1875 
Q 14.5 -2 17.703125 9.0625 
Q 20.90625 20.125 20.90625 31.390625 
Q 20.90625 42.671875 17.703125 53.65625 
Q 14.5 64.65625 8.015625 75.875 
z
" id="DejaVuSans-41"/>
     <path id="DejaVuSans-32"/>
     <path d="M 53.515625 70.515625 
L 53.515625 60.890625 
Q 47.90625 63.578125 42.921875 64.890625 
Q 37.9375 66.21875 33.296875 66.21875 
Q 25.25 66.21875 20.875 63.09375 
Q 16.5 59.96875 16.5 54.203125 
Q 16.5 49.359375 19.40625 46.890625 
Q 22.3125 44.4375 30.421875 42.921875 
L 36.375 41.703125 
Q 47.40625 39.59375 52.65625 34.296875 
Q 57.90625 29 57.90625 20.125 
Q 57.90625 9.515625 50.796875 4.046875 
Q 43.703125 -1.421875 29.984375 -1.421875 
Q 24.8125 -1.421875 18.96875 -0.25 
Q 13.140625 0.921875 6.890625 3.21875 
L 6.890625 13.375 
Q 12.890625 10.015625 18.65625 8.296875 
Q 24.421875 6.59375 29.984375 6.59375 
Q 38.421875 6.59375 43.015625 9.90625 
Q 47.609375 13.234375 47.609375 19.390625 
Q 47.609375 24.75 44.3125 27.78125 
Q 41.015625 30.8125 33.5 32.328125 
L 27.484375 33.5 
Q 16.453125 35.6875 11.515625 40.375 
Q 6.59375 45.0625 6.59375 53.421875 
Q 6.59375 63.09375 13.40625 68.65625 
Q 20.21875 74.21875 32.171875 74.21875 
Q 37.3125 74.21875 42.625 73.28125 
Q 47.953125 72.359375 53.515625 70.515625 
z
" id="DejaVuSans-83"/>
     <path d="M 8.5 21.578125 
L 8.5 54.6875 
L 17.484375 54.6875 
L 17.484375 21.921875 
Q 17.484375 14.15625 20.5 10.265625 
Q 23.53125 6.390625 29.59375 6.390625 
Q 36.859375 6.390625 41.078125 11.03125 
Q 45.3125 15.671875 45.3125 23.6875 
L 45.3125 54.6875 
L 54.296875 54.6875 
L 54.296875 0 
L 45.3125 0 
L 45.3125 8.40625 
Q 42.046875 3.421875 37.71875 1 
Q 33.40625 -1.421875 27.6875 -1.421875 
Q 18.265625 -1.421875 13.375 4.4375 
Q 8.5 10.296875 8.5 21.578125 
z
M 31.109375 56 
z
" id="DejaVuSans-117"/>
     <path d="M 48.6875 27.296875 
Q 48.6875 37.203125 44.609375 42.84375 
Q 40.53125 48.484375 33.40625 48.484375 
Q 26.265625 48.484375 22.1875 42.84375 
Q 18.109375 37.203125 18.109375 27.296875 
Q 18.109375 17.390625 22.1875 11.75 
Q 26.265625 6.109375 33.40625 6.109375 
Q 40.53125 6.109375 44.609375 11.75 
Q 48.6875 17.390625 48.6875 27.296875 
z
M 18.109375 46.390625 
Q 20.953125 51.265625 25.265625 53.625 
Q 29.59375 56 35.59375 56 
Q 45.5625 56 51.78125 48.09375 
Q 58.015625 40.1875 58.015625 27.296875 
Q 58.015625 14.40625 51.78125 6.484375 
Q 45.5625 -1.421875 35.59375 -1.421875 
Q 29.59375 -1.421875 25.265625 0.953125 
Q 20.953125 3.328125 18.109375 8.203125 
L 18.109375 0 
L 9.078125 0 
L 9.078125 75.984375 
L 18.109375 75.984375 
z
" id="DejaVuSans-98"/>
     <path d="M 9.421875 54.6875 
L 18.40625 54.6875 
L 18.40625 -0.984375 
Q 18.40625 -11.421875 14.421875 -16.109375 
Q 10.453125 -20.796875 1.609375 -20.796875 
L -1.8125 -20.796875 
L -1.8125 -13.1875 
L 0.59375 -13.1875 
Q 5.71875 -13.1875 7.5625 -10.8125 
Q 9.421875 -8.453125 9.421875 -0.984375 
z
M 9.421875 75.984375 
L 18.40625 75.984375 
L 18.40625 64.59375 
L 9.421875 64.59375 
z
" id="DejaVuSans-106"/>
     <path d="M 56.203125 29.59375 
L 56.203125 25.203125 
L 14.890625 25.203125 
Q 15.484375 15.921875 20.484375 11.0625 
Q 25.484375 6.203125 34.421875 6.203125 
Q 39.59375 6.203125 44.453125 7.46875 
Q 49.3125 8.734375 54.109375 11.28125 
L 54.109375 2.78125 
Q 49.265625 0.734375 44.1875 -0.34375 
Q 39.109375 -1.421875 33.890625 -1.421875 
Q 20.796875 -1.421875 13.15625 6.1875 
Q 5.515625 13.8125 5.515625 26.8125 
Q 5.515625 40.234375 12.765625 48.109375 
Q 20.015625 56 32.328125 56 
Q 43.359375 56 49.78125 48.890625 
Q 56.203125 41.796875 56.203125 29.59375 
z
M 47.21875 32.234375 
Q 47.125 39.59375 43.09375 43.984375 
Q 39.0625 48.390625 32.421875 48.390625 
Q 24.90625 48.390625 20.390625 44.140625 
Q 15.875 39.890625 15.1875 32.171875 
z
" id="DejaVuSans-101"/>
     <path d="M 48.78125 52.59375 
L 48.78125 44.1875 
Q 44.96875 46.296875 41.140625 47.34375 
Q 37.3125 48.390625 33.40625 48.390625 
Q 24.65625 48.390625 19.8125 42.84375 
Q 14.984375 37.3125 14.984375 27.296875 
Q 14.984375 17.28125 19.8125 11.734375 
Q 24.65625 6.203125 33.40625 6.203125 
Q 37.3125 6.203125 41.140625 7.25 
Q 44.96875 8.296875 48.78125 10.40625 
L 48.78125 2.09375 
Q 45.015625 0.34375 40.984375 -0.53125 
Q 36.96875 -1.421875 32.421875 -1.421875 
Q 20.0625 -1.421875 12.78125 6.34375 
Q 5.515625 14.109375 5.515625 27.296875 
Q 5.515625 40.671875 12.859375 48.328125 
Q 20.21875 56 33.015625 56 
Q 37.15625 56 41.109375 55.140625 
Q 45.0625 54.296875 48.78125 52.59375 
z
" id="DejaVuSans-99"/>
     <path d="M 18.3125 70.21875 
L 18.3125 54.6875 
L 36.8125 54.6875 
L 36.8125 47.703125 
L 18.3125 47.703125 
L 18.3125 18.015625 
Q 18.3125 11.328125 20.140625 9.421875 
Q 21.96875 7.515625 27.59375 7.515625 
L 36.8125 7.515625 
L 36.8125 0 
L 27.59375 0 
Q 17.1875 0 13.234375 3.875 
Q 9.28125 7.765625 9.28125 18.015625 
L 9.28125 47.703125 
L 2.6875 47.703125 
L 2.6875 54.6875 
L 9.28125 54.6875 
L 9.28125 70.21875 
z
" id="DejaVuSans-116"/>
     <path d="M 11.71875 12.40625 
L 22.015625 12.40625 
L 22.015625 0 
L 11.71875 0 
z
M 11.71875 51.703125 
L 22.015625 51.703125 
L 22.015625 39.3125 
L 11.71875 39.3125 
z
" id="DejaVuSans-58"/>
     <path d="M 44.28125 53.078125 
L 44.28125 44.578125 
Q 40.484375 46.53125 36.375 47.5 
Q 32.28125 48.484375 27.875 48.484375 
Q 21.1875 48.484375 17.84375 46.4375 
Q 14.5 44.390625 14.5 40.28125 
Q 14.5 37.15625 16.890625 35.375 
Q 19.28125 33.59375 26.515625 31.984375 
L 29.59375 31.296875 
Q 39.15625 29.25 43.1875 25.515625 
Q 47.21875 21.78125 47.21875 15.09375 
Q 47.21875 7.46875 41.1875 3.015625 
Q 35.15625 -1.421875 24.609375 -1.421875 
Q 20.21875 -1.421875 15.453125 -0.5625 
Q 10.6875 0.296875 5.421875 2 
L 5.421875 11.28125 
Q 10.40625 8.6875 15.234375 7.390625 
Q 20.0625 6.109375 24.8125 6.109375 
Q 31.15625 6.109375 34.5625 8.28125 
Q 37.984375 10.453125 37.984375 14.40625 
Q 37.984375 18.0625 35.515625 20.015625 
Q 33.0625 21.96875 24.703125 23.78125 
L 21.578125 24.515625 
Q 13.234375 26.265625 9.515625 29.90625 
Q 5.8125 33.546875 5.8125 39.890625 
Q 5.8125 47.609375 11.28125 51.796875 
Q 16.75 56 26.8125 56 
Q 31.78125 56 36.171875 55.265625 
Q 40.578125 54.546875 44.28125 53.078125 
z
" id="DejaVuSans-115"/>
     <path d="M 11.71875 12.40625 
L 22.015625 12.40625 
L 22.015625 4 
L 14.015625 -11.625 
L 7.71875 -11.625 
L 11.71875 4 
z
" id="DejaVuSans-44"/>
     <path d="M 9.8125 72.90625 
L 19.671875 72.90625 
L 19.671875 42.09375 
L 52.390625 72.90625 
L 65.09375 72.90625 
L 28.90625 38.921875 
L 67.671875 0 
L 54.6875 0 
L 19.671875 35.109375 
L 19.671875 0 
L 9.8125 0 
z
" id="DejaVuSans-75"/>
     <path d="M 54.890625 33.015625 
L 54.890625 0 
L 45.90625 0 
L 45.90625 32.71875 
Q 45.90625 40.484375 42.875 44.328125 
Q 39.84375 48.1875 33.796875 48.1875 
Q 26.515625 48.1875 22.3125 43.546875 
Q 18.109375 38.921875 18.109375 30.90625 
L 18.109375 0 
L 9.078125 0 
L 9.078125 54.6875 
L 18.109375 54.6875 
L 18.109375 46.1875 
Q 21.34375 51.125 25.703125 53.5625 
Q 30.078125 56 35.796875 56 
Q 45.21875 56 50.046875 50.171875 
Q 54.890625 44.34375 54.890625 33.015625 
z
" id="DejaVuSans-110"/>
     <path d="M 30.609375 48.390625 
Q 23.390625 48.390625 19.1875 42.75 
Q 14.984375 37.109375 14.984375 27.296875 
Q 14.984375 17.484375 19.15625 11.84375 
Q 23.34375 6.203125 30.609375 6.203125 
Q 37.796875 6.203125 41.984375 11.859375 
Q 46.1875 17.53125 46.1875 27.296875 
Q 46.1875 37.015625 41.984375 42.703125 
Q 37.796875 48.390625 30.609375 48.390625 
z
M 30.609375 56 
Q 42.328125 56 49.015625 48.375 
Q 55.71875 40.765625 55.71875 27.296875 
Q 55.71875 13.875 49.015625 6.21875 
Q 42.328125 -1.421875 30.609375 -1.421875 
Q 18.84375 -1.421875 12.171875 6.21875 
Q 5.515625 13.875 5.515625 27.296875 
Q 5.515625 40.765625 12.171875 48.375 
Q 18.84375 56 30.609375 56 
z
" id="DejaVuSans-111"/>
     <path d="M 4.203125 54.6875 
L 13.1875 54.6875 
L 24.421875 12.015625 
L 35.59375 54.6875 
L 46.1875 54.6875 
L 57.421875 12.015625 
L 68.609375 54.6875 
L 77.59375 54.6875 
L 63.28125 0 
L 52.6875 0 
L 40.921875 44.828125 
L 29.109375 0 
L 18.5 0 
z
" id="DejaVuSans-119"/>
     <path d="M 10.59375 45.40625 
L 73.1875 45.40625 
L 73.1875 37.203125 
L 10.59375 37.203125 
z
M 10.59375 25.484375 
L 73.1875 25.484375 
L 73.1875 17.1875 
L 10.59375 17.1875 
z
" id="DejaVuSans-61"/>
     <path d="M 9.8125 72.90625 
L 51.703125 72.90625 
L 51.703125 64.59375 
L 19.671875 64.59375 
L 19.671875 43.109375 
L 48.578125 43.109375 
L 48.578125 34.8125 
L 19.671875 34.8125 
L 19.671875 0 
L 9.8125 0 
z
" id="DejaVuSans-70"/>
     <path d="M 34.28125 27.484375 
Q 23.390625 27.484375 19.1875 25 
Q 14.984375 22.515625 14.984375 16.5 
Q 14.984375 11.71875 18.140625 8.90625 
Q 21.296875 6.109375 26.703125 6.109375 
Q 34.1875 6.109375 38.703125 11.40625 
Q 43.21875 16.703125 43.21875 25.484375 
L 43.21875 27.484375 
z
M 52.203125 31.203125 
L 52.203125 0 
L 43.21875 0 
L 43.21875 8.296875 
Q 40.140625 3.328125 35.546875 0.953125 
Q 30.953125 -1.421875 24.3125 -1.421875 
Q 15.921875 -1.421875 10.953125 3.296875 
Q 6 8.015625 6 15.921875 
Q 6 25.140625 12.171875 29.828125 
Q 18.359375 34.515625 30.609375 34.515625 
L 43.21875 34.515625 
L 43.21875 35.40625 
Q 43.21875 41.609375 39.140625 45 
Q 35.0625 48.390625 27.6875 48.390625 
Q 23 48.390625 18.546875 47.265625 
Q 14.109375 46.140625 10.015625 43.890625 
L 10.015625 52.203125 
Q 14.9375 54.109375 19.578125 55.046875 
Q 24.21875 56 28.609375 56 
Q 40.484375 56 46.34375 49.84375 
Q 52.203125 43.703125 52.203125 31.203125 
z
" id="DejaVuSans-97"/>
     <path d="M 9.421875 75.984375 
L 18.40625 75.984375 
L 18.40625 0 
L 9.421875 0 
z
" id="DejaVuSans-108"/>
     <path d="M 19.671875 64.796875 
L 19.671875 8.109375 
L 31.59375 8.109375 
Q 46.6875 8.109375 53.6875 14.9375 
Q 60.6875 21.78125 60.6875 36.53125 
Q 60.6875 51.171875 53.6875 57.984375 
Q 46.6875 64.796875 31.59375 64.796875 
z
M 9.8125 72.90625 
L 30.078125 72.90625 
Q 51.265625 72.90625 61.171875 64.09375 
Q 71.09375 55.28125 71.09375 36.53125 
Q 71.09375 17.671875 61.125 8.828125 
Q 51.171875 0 30.078125 0 
L 9.8125 0 
z
" id="DejaVuSans-68"/>
     <path d="M 45.40625 27.984375 
Q 45.40625 37.75 41.375 43.109375 
Q 37.359375 48.484375 30.078125 48.484375 
Q 22.859375 48.484375 18.828125 43.109375 
Q 14.796875 37.75 14.796875 27.984375 
Q 14.796875 18.265625 18.828125 12.890625 
Q 22.859375 7.515625 30.078125 7.515625 
Q 37.359375 7.515625 41.375 12.890625 
Q 45.40625 18.265625 45.40625 27.984375 
z
M 54.390625 6.78125 
Q 54.390625 -7.171875 48.1875 -13.984375 
Q 42 -20.796875 29.203125 -20.796875 
Q 24.46875 -20.796875 20.265625 -20.09375 
Q 16.0625 -19.390625 12.109375 -17.921875 
L 12.109375 -9.1875 
Q 16.0625 -11.328125 19.921875 -12.34375 
Q 23.78125 -13.375 27.78125 -13.375 
Q 36.625 -13.375 41.015625 -8.765625 
Q 45.40625 -4.15625 45.40625 5.171875 
L 45.40625 9.625 
Q 42.625 4.78125 38.28125 2.390625 
Q 33.9375 0 27.875 0 
Q 17.828125 0 11.671875 7.65625 
Q 5.515625 15.328125 5.515625 27.984375 
Q 5.515625 40.671875 11.671875 48.328125 
Q 17.828125 56 27.875 56 
Q 33.9375 56 38.28125 53.609375 
Q 42.625 51.21875 45.40625 46.390625 
L 45.40625 54.6875 
L 54.390625 54.6875 
z
" id="DejaVuSans-103"/>
     <path d="M 41.109375 46.296875 
Q 39.59375 47.171875 37.8125 47.578125 
Q 36.03125 48 33.890625 48 
Q 26.265625 48 22.1875 43.046875 
Q 18.109375 38.09375 18.109375 28.8125 
L 18.109375 0 
L 9.078125 0 
L 9.078125 54.6875 
L 18.109375 54.6875 
L 18.109375 46.1875 
Q 20.953125 51.171875 25.484375 53.578125 
Q 30.03125 56 36.53125 56 
Q 37.453125 56 38.578125 55.875 
Q 39.703125 55.765625 41.0625 55.515625 
z
" id="DejaVuSans-114"/>
     <path d="M 9.421875 54.6875 
L 18.40625 54.6875 
L 18.40625 0 
L 9.421875 0 
z
M 9.421875 75.984375 
L 18.40625 75.984375 
L 18.40625 64.59375 
L 9.421875 64.59375 
z
" id="DejaVuSans-105"/>
     <path d="M 10.6875 12.40625 
L 21 12.40625 
L 21 0 
L 10.6875 0 
z
" id="DejaVuSans-46"/>
    </defs>
    <g transform="translate(45.924375 35.472)scale(0.12 -0.12)">
     <use xlink:href="#DejaVuSans-40"/>
     <use x="39.013672" xlink:href="#DejaVuSans-49"/>
     <use x="102.636719" xlink:href="#DejaVuSans-52"/>
     <use x="166.259766" xlink:href="#DejaVuSans-48"/>
     <use x="229.882812" xlink:href="#DejaVuSans-41"/>
     <use x="268.896484" xlink:href="#DejaVuSans-32"/>
     <use x="300.683594" xlink:href="#DejaVuSans-83"/>
     <use x="364.160156" xlink:href="#DejaVuSans-117"/>
     <use x="427.539062" xlink:href="#DejaVuSans-98"/>
     <use x="491.015625" xlink:href="#DejaVuSans-106"/>
     <use x="518.798828" xlink:href="#DejaVuSans-101"/>
     <use x="580.322266" xlink:href="#DejaVuSans-99"/>
     <use x="635.302734" xlink:href="#DejaVuSans-116"/>
     <use x="674.511719" xlink:href="#DejaVuSans-58"/>
     <use x="708.203125" xlink:href="#DejaVuSans-32"/>
     <use x="739.990234" xlink:href="#DejaVuSans-115"/>
     <use x="792.089844" xlink:href="#DejaVuSans-49"/>
     <use x="855.712891" xlink:href="#DejaVuSans-51"/>
     <use x="919.335938" xlink:href="#DejaVuSans-44"/>
     <use x="951.123047" xlink:href="#DejaVuSans-32"/>
     <use x="982.910156" xlink:href="#DejaVuSans-75"/>
     <use x="1048.486328" xlink:href="#DejaVuSans-110"/>
     <use x="1111.865234" xlink:href="#DejaVuSans-111"/>
     <use x="1173.046875" xlink:href="#DejaVuSans-119"/>
     <use x="1254.833984" xlink:href="#DejaVuSans-110"/>
     <use x="1318.212891" xlink:href="#DejaVuSans-32"/>
     <use x="1350" xlink:href="#DejaVuSans-61"/>
     <use x="1433.789062" xlink:href="#DejaVuSans-32"/>
     <use x="1465.576172" xlink:href="#DejaVuSans-70"/>
     <use x="1522.955078" xlink:href="#DejaVuSans-97"/>
     <use x="1584.234375" xlink:href="#DejaVuSans-108"/>
     <use x="1612.017578" xlink:href="#DejaVuSans-115"/>
     <use x="1664.117188" xlink:href="#DejaVuSans-101"/>
     <use x="1725.640625" xlink:href="#DejaVuSans-44"/>
     <use x="1757.427734" xlink:href="#DejaVuSans-32"/>
     <use x="1789.214844" xlink:href="#DejaVuSans-68"/>
     <use x="1866.216797" xlink:href="#DejaVuSans-101"/>
     <use x="1927.740234" xlink:href="#DejaVuSans-103"/>
     <use x="1991.216797" xlink:href="#DejaVuSans-114"/>
     <use x="2032.298828" xlink:href="#DejaVuSans-101"/>
     <use x="2093.822266" xlink:href="#DejaVuSans-101"/>
     <use x="2155.345703" xlink:href="#DejaVuSans-32"/>
     <use x="2187.132812" xlink:href="#DejaVuSans-61"/>
     <use x="2270.921875" xlink:href="#DejaVuSans-32"/>
     <use x="2302.708984" xlink:href="#DejaVuSans-50"/>
     <use x="2366.332031" xlink:href="#DejaVuSans-44"/>
     <use x="2398.119141" xlink:href="#DejaVuSans-32"/>
     <use x="2429.90625" xlink:href="#DejaVuSans-68"/>
     <use x="2506.908203" xlink:href="#DejaVuSans-117"/>
     <use x="2570.287109" xlink:href="#DejaVuSans-114"/>
     <use x="2611.400391" xlink:href="#DejaVuSans-97"/>
     <use x="2672.679688" xlink:href="#DejaVuSans-116"/>
     <use x="2711.888672" xlink:href="#DejaVuSans-105"/>
     <use x="2739.671875" xlink:href="#DejaVuSans-111"/>
     <use x="2800.853516" xlink:href="#DejaVuSans-110"/>
     <use x="2864.232422" xlink:href="#DejaVuSans-32"/>
     <use x="2896.019531" xlink:href="#DejaVuSans-61"/>
     <use x="2979.808594" xlink:href="#DejaVuSans-32"/>
     <use x="3011.595703" xlink:href="#DejaVuSans-48"/>
     <use x="3075.21875" xlink:href="#DejaVuSans-46"/>
     <use x="3107.005859" xlink:href="#DejaVuSans-49"/>
    </g>
   </g>
  </g>
 </g>
 <defs>
  <clipPath id="p5b5105a96c">
   <rect height="266.112" width="357.12" x="57.6" y="41.472"/>
  </clipPath>
 </defs>
</svg>
