<?xml version="1.0" encoding="utf-8" standalone="no"?>
<!DOCTYPE svg PUBLIC "-//W3C//DTD SVG 1.1//EN"
  "http://www.w3.org/Graphics/SVG/1.1/DTD/svg11.dtd">
<!-- Created with matplotlib (https://matplotlib.org/) -->
<svg height="345.6pt" version="1.1" viewBox="0 0 460.8 345.6" width="460.8pt" xmlns="http://www.w3.org/2000/svg" xmlns:xlink="http://www.w3.org/1999/xlink">
 <defs>
  <style type="text/css">
*{stroke-linecap:butt;stroke-linejoin:round;}
  </style>
 </defs>
 <g id="figure_1">
  <g id="patch_1">
   <path d="M 0 345.6 
L 460.8 345.6 
L 460.8 0 
L 0 0 
z
" style="fill:#ffffff;"/>
  </g>
  <g id="axes_1">
   <g id="patch_2">
    <path d="M 57.6 307.584 
L 414.72 307.584 
L 414.72 41.472 
L 57.6 41.472 
z
" style="fill:#ffffff;"/>
   </g>
   <g id="line2d_1">
    <path clip-path="url(#p84c20b632f)" d="M 73.832727 293.33176 
L 73.832727 294.869032 
L 73.93023 294.255138 
L 74.121874 294.255138 
L 74.121874 293.641244 
L 74.027733 293.945654 
L 73.93023 294.255138 
L 73.93023 293.945654 
L 73.832727 293.641244 
L 73.832727 293.641244 
L 74.121874 293.945654 
L 74.606026 295.178516 
L 75.187682 295.488 
L 76.636777 293.641244 
L 77.312574 293.33176 
L 79.92498 293.33176 
L 80.795782 292.717866 
L 81.858228 289.638247 
L 82.244878 289.328763 
L 82.534025 288.714869 
L 82.534025 288.100975 
L 82.244878 287.177597 
L 82.244878 287.177597 
L 81.276573 286.254219 
L 80.889923 286.558629 
L 80.600776 286.254219 
L 80.503274 287.177597 
L 80.31163 286.254219 
L 80.022483 285.635251 
L 80.022483 285.944735 
L 80.889923 286.558629 
L 80.987426 286.868113 
L 80.889923 287.177597 
L 80.795782 286.868113 
L 80.987426 287.177597 
L 81.084929 289.024353 
L 81.182432 288.714869 
L 81.471579 288.100975 
L 81.858228 288.100975 
L 82.049872 288.405385 
L 81.760725 288.714869 
L 81.471579 288.405385 
L 81.374076 287.791491 
L 81.374076 288.100975 
L 81.374076 289.024353 
L 81.182432 289.328763 
L 80.795782 289.638247 
L 80.600776 290.252142 
L 80.795782 290.252142 
L 80.987426 289.328763 
L 81.374076 289.024353 
L 81.471579 289.638247 
L 81.276573 289.947731 
L 80.889923 289.947731 
L 80.600776 289.638247 
L 80.698279 289.638247 
L 81.471579 290.252142 
L 81.760725 290.871109 
L 81.760725 291.17552 
L 81.760725 289.638247 
L 81.955731 289.328763 
L 82.147375 289.638247 
L 82.049872 290.871109 
L 81.858228 291.485004 
L 81.569082 291.794487 
L 81.374076 291.794487 
L 81.471579 291.17552 
L 81.663222 290.871109 
L 81.760725 291.485004 
L 81.569082 292.098898 
L 81.374076 292.098898 
L 81.471579 291.485004 
L 81.858228 291.17552 
L 81.955731 290.871109 
L 81.858228 290.871109 
L 81.760725 290.871109 
L 81.760725 291.17552 
L 81.663222 290.871109 
L 81.471579 290.561625 
L 81.182432 290.871109 
L 81.182432 291.17552 
L 81.374076 291.17552 
L 81.374076 291.485004 
L 81.471579 291.17552 
L 81.569082 290.871109 
L 81.858228 291.485004 
L 81.858228 290.871109 
L 81.858228 290.871109 
L 81.663222 291.17552 
L 81.471579 291.17552 
L 81.471579 290.561625 
L 81.663222 290.252142 
L 81.569082 290.871109 
L 81.374076 290.871109 
L 81.374076 290.561625 
L 81.663222 290.871109 
L 81.569082 289.947731 
L 81.569082 290.561625 
L 81.471579 290.252142 
L 81.858228 290.252142 
L 81.955731 290.871109 
L 81.955731 291.17552 
L 81.471579 290.252142 
L 81.471579 291.17552 
L 81.663222 291.485004 
L 81.663222 291.17552 
L 81.374076 291.485004 
L 81.471579 290.252142 
L 81.760725 291.794487 
L 81.955731 291.794487 
L 81.760725 293.022276 
L 82.049872 291.794487 
L 81.858228 292.098898 
L 81.760725 292.098898 
L 81.663222 291.794487 
L 81.760725 291.17552 
L 81.955731 290.871109 
L 81.955731 290.871109 
L 81.955731 290.252142 
L 82.049872 290.561625 
L 82.147375 290.561625 
L 82.436522 289.947731 
L 83.307324 286.868113 
L 83.209821 287.177597 
L 83.209821 286.868113 
L 83.50233 285.944735 
L 83.599833 285.021357 
L 83.599833 285.021357 
L 83.791476 285.021357 
L 84.178126 285.635251 
L 84.275629 286.254219 
L 84.178126 285.021357 
L 84.564776 285.635251 
L 84.564776 285.635251 
L 84.951425 285.944735 
L 85.240572 286.558629 
L 85.048928 285.944735 
L 84.853922 286.868113 
L 84.853922 286.558629 
L 84.662278 286.558629 
L 84.853922 288.405385 
L 85.048928 287.482007 
L 85.338075 288.714869 
L 85.338075 288.714869 
L 85.146431 288.405385 
L 85.048928 289.024353 
L 85.048928 288.714869 
L 84.853922 288.714869 
L 84.853922 288.714869 
L 85.048928 289.947731 
L 84.951425 289.024353 
L 84.564776 289.947731 
L 84.467273 289.638247 
L 84.275629 288.405385 
L 84.080623 288.714869 
L 83.986482 288.100975 
L 83.888979 286.558629 
L 83.791476 285.021357 
L 83.791476 285.635251 
L 83.986482 284.711873 
L 83.888979 285.021357 
L 83.693973 285.33084 
L 83.599833 284.097978 
L 83.888979 283.788495 
L 84.178126 283.788495 
L 83.209821 281.01836 
L 83.11568 279.171604 
L 83.209821 277.943815 
L 83.404827 277.634331 
L 83.307324 276.710953 
L 83.11568 277.324848 
L 83.018177 276.097059 
L 83.209821 276.097059 
L 83.50233 275.787575 
L 83.693973 275.787575 
L 83.307324 276.710953 
L 83.209821 276.097059 
L 83.50233 274.250303 
L 83.307324 273.940819 
L 83.018177 273.940819 
L 82.823171 274.864197 
L 83.018177 274.864197 
L 83.209821 274.554713 
L 83.404827 273.940819 
L 83.50233 272.707957 
L 83.307324 271.784579 
L 83.018177 271.480168 
L 83.209821 271.480168 
L 85.240572 269.323928 
L 86.498024 269.014444 
L 88.431272 269.014444 
L 91.043678 267.786656 
L 93.941869 265.939899 
L 101.483217 261.936903 
L 106.220516 259.476252 
L 111.441966 255.78274 
L 117.050067 251.165849 
L 123.138958 245.935064 
L 129.520357 239.161933 
L 136.190903 231.774908 
L 143.153959 224.387883 
L 150.211154 216.691374 
L 170.804449 192.069648 
L 177.474995 184.682623 
L 184.243044 177.909492 
L 197.873283 166.21506 
L 204.449689 159.447003 
L 217.212488 147.443087 
L 229.585276 136.666959 
L 240.99312 127.742662 
L 246.503718 123.739665 
L 257.719918 116.35264 
L 263.328019 112.968612 
L 268.741113 109.888993 
L 273.865061 107.737827 
L 278.504856 105.272103 
L 283.148014 102.501968 
L 287.690306 100.350801 
L 292.330101 98.808456 
L 301.031399 94.501049 
L 305.190404 92.963776 
L 309.251906 92.040398 
L 313.020899 90.807536 
L 316.500745 89.270264 
L 319.691445 87.423507 
L 325.010399 84.034405 
L 326.556997 82.806617 
L 327.716946 81.264271 
L 328.587748 80.340893 
L 328.974398 79.417515 
L 328.779392 78.189726 
L 328.103596 76.64738 
L 327.13529 74.800624 
L 325.881201 73.263351 
L 322.592998 70.802701 
L 321.335546 69.569839 
L 320.2731 68.955945 
L 319.304795 68.955945 
L 318.726502 68.646461 
L 318.144847 68.646461 
L 317.758197 68.032566 
L 317.660694 67.109188 
L 318.144847 67.109188 
L 318.820643 68.032566 
L 319.304795 68.34205 
L 319.691445 68.34205 
L 320.175597 68.646461 
L 320.562247 68.646461 
L 320.757253 68.032566 
L 321.0464 67.723083 
L 321.433049 67.723083 
L 321.624693 67.109188 
L 321.530552 66.495294 
L 321.530552 67.109188 
L 321.624693 68.34205 
L 321.819699 68.646461 
L 321.917202 68.032566 
L 321.819699 67.418672 
L 321.624693 67.723083 
L 321.433049 68.34205 
L 321.335546 67.723083 
L 321.335546 66.799704 
L 321.0464 66.495294 
L 320.65975 66.495294 
L 320.370603 65.571916 
L 320.175597 65.571916 
L 320.175597 65.876326 
L 320.078095 65.876326 
L 319.691445 65.571916 
L 319.402298 65.571916 
L 319.304795 65.876326 
L 319.597304 66.495294 
L 319.499801 66.495294 
L 319.402298 65.262432 
L 319.304795 64.648538 
L 319.402298 64.952948 
L 319.597304 65.262432 
L 319.597304 65.262432 
L 319.402298 64.02957 
L 319.304795 64.648538 
L 319.402298 65.876326 
L 319.113152 62.182814 
L 319.210655 62.182814 
L 319.402298 61.878403 
L 319.499801 62.182814 
L 319.304795 61.878403 
L 319.113152 61.568919 
L 319.015649 62.182814 
L 318.531496 63.415676 
L 318.726502 62.801781 
L 318.918146 63.106192 
L 318.918146 63.415676 
L 318.820643 63.415676 
L 318.726502 63.415676 
L 318.726502 61.259436 
L 318.820643 61.259436 
L 318.918146 61.259436 
L 318.918146 61.259436 
L 319.015649 60.955025 
L 318.820643 61.259436 
L 318.726502 61.259436 
L 318.726502 61.259436 
L 318.531496 60.955025 
L 318.628999 61.568919 
L 318.433993 61.568919 
L 318.339852 61.878403 
L 318.242349 61.568919 
L 318.433993 61.259436 
L 318.628999 61.259436 
L 318.726502 61.568919 
L 318.339852 60.645541 
L 318.339852 60.955025 
L 318.433993 60.955025 
L 318.726502 60.336057 
L 318.531496 59.722163 
L 318.628999 59.722163 
L 318.531496 60.031647 
L 318.531496 58.489301 
L 318.531496 60.955025 
L 318.628999 60.955025 
L 319.015649 59.412679 
L 319.015649 59.108269 
L 318.918146 59.108269 
L 318.820643 59.108269 
L 318.918146 59.108269 
L 318.918146 58.798785 
L 318.726502 59.108269 
L 318.531496 59.722163 
L 318.433993 59.412679 
L 318.628999 58.798785 
L 318.628999 57.565923 
L 318.628999 58.798785 
L 318.242349 58.184891 
L 318.242349 58.184891 
L 318.433993 57.875407 
L 318.433993 58.184891 
L 318.242349 57.875407 
L 318.242349 56.952029 
L 318.433993 56.028651 
L 318.339852 56.642545 
L 318.242349 57.875407 
L 318.242349 57.565923 
L 318.242349 56.338134 
L 318.433993 55.719167 
L 318.531496 56.642545 
L 318.433993 57.565923 
L 318.242349 56.952029 
L 318.339852 55.719167 
L 318.433993 54.491378 
L 317.953203 54.491378 
L 318.047344 54.491378 
L 318.144847 54.181894 
L 318.047344 54.181894 
L 317.274044 54.181894 
L 317.46905 54.491378 
L 317.566553 54.181894 
L 317.46905 53.87241 
L 317.46905 53.87241 
L 318.242349 53.568 
L 319.597304 53.568 
L 321.238043 54.181894 
L 322.979648 55.414756 
L 325.202042 56.338134 
L 328.103596 57.261513 
L 331.485939 59.108269 
L 335.355797 61.878403 
L 339.222293 65.571916 
L 343.088789 69.569839 
L 347.052788 73.877246 
L 351.211793 79.113104 
L 355.269933 84.034405 
L 359.233932 89.574674 
L 363.100428 95.424427 
L 366.291128 101.27418 
L 368.903535 106.504965 
L 376.636527 124.358633 
L 380.503023 136.362549 
L 382.439633 141.593334 
L 385.821976 150.213221 
L 387.657722 153.906734 
L 389.59097 156.676868 
L 391.52758 158.523624 
L 394.425771 162.521547 
L 395.491579 164.677788 
L 396.651528 166.21506 
L 397.616471 166.828954 
L 398.198126 166.828954 
L 398.487273 167.447922 
L 398.487273 168.061816 
L 398.292267 168.3713 
L 398.00312 168.061816 
L 397.616471 167.447922 
L 397.038177 167.752332 
L 396.264878 168.675711 
L 395.58572 169.908573 
L 394.909923 169.599089 
L 393.652472 167.138438 
L 393.168319 167.447922 
L 393.168319 166.828954 
L 393.265822 168.061816 
L 393.460828 168.675711 
L 393.554969 169.908573 
L 393.460828 169.908573 
L 393.460828 169.908573 
L 393.554969 169.599089 
L 393.363325 170.522467 
L 393.363325 171.445845 
L 393.554969 171.755329 
L 393.749974 171.755329 
L 394.039121 172.064813 
L 394.039121 172.064813 
L 393.749974 172.064813 
L 393.460828 172.678707 
L 393.847477 172.064813 
L 393.749974 173.292601 
L 393.554969 173.602085 
L 393.363325 172.988191 
L 393.460828 172.369223 
L 393.265822 171.755329 
L 393.265822 173.911569 
L 393.074178 174.215979 
L 392.976675 174.834947 
L 393.168319 175.758325 
L 393.265822 175.758325 
L 393.265822 175.139358 
L 393.460828 174.834947 
L 393.554969 175.758325 
L 393.460828 174.525463 
L 393.363325 174.834947 
L 393.363325 175.448841 
L 393.363325 175.448841 
L 393.168319 175.139358 
L 393.074178 174.525463 
L 393.168319 174.215979 
L 393.074178 175.139358 
L 392.879172 175.758325 
L 392.492523 175.139358 
L 392.300879 175.448841 
L 392.39502 176.37222 
L 392.590026 176.37222 
L 392.976675 176.986114 
L 393.265822 176.986114 
L 392.492523 176.986114 
L 392.492523 176.062736 
L 392.781669 175.448841 
L 392.781669 175.758325 
L 392.492523 175.448841 
L 392.39502 176.681703 
L 392.492523 176.986114 
L 392.492523 176.681703 
L 392.687529 176.681703 
L 392.687529 176.681703 
L 392.781669 176.986114 
L 392.590026 177.295598 
L 392.687529 176.986114 
L 392.781669 176.062736 
L 392.976675 175.758325 
L 393.074178 177.909492 
L 392.687529 177.295598 
L 392.687529 177.295598 
L 392.781669 177.909492 
L 392.687529 177.909492 
L 392.300879 177.909492 
L 392.590026 177.909492 
L 392.879172 177.605082 
L 392.976675 177.909492 
L 392.781669 178.218976 
L 392.590026 178.218976 
L 392.492523 177.605082 
L 392.300879 178.218976 
L 391.914229 178.52846 
L 391.719224 178.52846 
L 391.719224 178.52846 
L 392.00837 178.218976 
L 392.300879 178.218976 
L 391.816726 175.758325 
L 391.914229 176.37222 
L 392.00837 178.218976 
L 392.39502 177.605082 
L 392.492523 176.986114 
L 392.39502 176.986114 
L 392.00837 176.986114 
L 392.00837 176.986114 
L 392.00837 176.681703 
L 391.914229 176.681703 
L 391.816726 178.83287 
L 392.00837 179.142354 
L 392.39502 177.605082 
L 392.105873 177.605082 
L 391.914229 177.295598 
L 391.914229 178.218976 
L 392.105873 178.52846 
L 392.492523 178.52846 
L 392.492523 178.83287 
L 392.203376 178.83287 
L 391.816726 177.909492 
L 392.00837 178.52846 
L 392.105873 179.756248 
L 392.105873 179.756248 
L 392.203376 179.142354 
L 392.00837 178.83287 
L 391.816726 179.142354 
L 391.621721 179.756248 
L 391.914229 180.375216 
L 392.105873 180.375216 
L 391.430077 178.52846 
L 390.945924 177.909492 
L 390.270128 177.909492 
L 389.110179 178.218976 
L 385.337824 178.218976 
L 382.826283 178.52846 
L 379.635583 177.295598 
L 375.863227 175.139358 
L 371.512579 173.602085 
L 366.872784 171.755329 
L 361.846339 169.599089 
L 350.630138 165.905576 
L 344.830394 164.05882 
L 338.738141 163.135442 
L 332.64925 163.135442 
L 326.556997 163.754409 
L 320.464744 163.135442 
L 314.375853 161.907653 
L 308.2836 160.984275 
L 302.28885 160.674791 
L 296.19996 159.751413 
L 284.499606 154.830112 
L 273.767558 152.983356 
L 268.741113 152.059977 
L 263.714668 150.517632 
L 258.782364 148.670875 
L 254.142569 146.519709 
L 249.889423 144.672952 
L 241.863922 141.593334 
L 234.225071 137.899821 
L 227.74953 136.053065 
L 222.52808 134.206309 
L 220.399826 133.282931 
L 218.661584 132.669036 
L 217.599138 132.050069 
L 217.017482 131.436174 
L 216.435827 130.203312 
L 216.341686 130.203312 
L 217.114985 128.66604 
L 217.693279 128.356556 
L 218.274934 128.66604 
L 219.048233 128.356556 
L 219.532386 128.052146 
L 220.013176 130.512796 
L 220.110679 130.512796 
L 220.013176 130.203312 
L 219.821532 130.82228 
L 219.33738 132.973447 
L 218.661584 134.515793 
L 218.079928 135.129687 
L 217.501635 135.439171 
L 217.212488 135.129687 
L 217.017482 135.129687 
L 216.53333 136.053065 
L 215.955036 136.053065 
L 215.662528 136.666959 
L 215.760031 136.666959 
L 215.857533 136.053065 
L 215.857533 136.362549 
L 216.244183 136.362549 
L 216.244183 136.362549 
L 216.53333 135.129687 
L 216.53333 135.439171 
L 216.53333 136.976443 
L 216.435827 136.666959 
L 216.341686 136.666959 
L 216.341686 136.666959 
L 216.244183 136.053065 
L 216.049177 136.362549 
L 215.568387 138.209305 
L 215.470884 137.285927 
L 215.373381 136.666959 
L 215.181737 136.362549 
L 215.084234 136.666959 
L 215.373381 136.666959 
L 215.662528 135.439171 
L 215.568387 135.129687 
L 215.568387 135.439171 
L 215.760031 137.899821 
L 215.568387 138.513716 
L 215.373381 138.513716 
L 215.084234 139.746578 
L 215.084234 139.437094 
L 215.084234 138.8232 
L 215.181737 138.8232 
L 215.373381 140.056062 
L 215.181737 140.669956 
L 214.795088 140.056062 
L 214.986731 139.746578 
L 215.181737 139.746578 
L 215.275878 138.8232 
L 215.084234 138.513716 
L 214.986731 140.97944 
L 215.084234 140.669956 
L 214.986731 138.8232 
L 214.986731 140.056062 
L 214.795088 140.97944 
L 214.795088 141.593334 
L 214.795088 140.360472 
L 214.889228 140.360472 
L 214.986731 140.056062 
L 214.697585 141.28385 
L 214.795088 141.28385 
L 214.795088 140.97944 
L 214.600082 141.28385 
L 214.697585 142.207228 
L 214.795088 141.902818 
L 214.600082 142.826196 
L 214.600082 143.44009 
L 214.502579 142.207228 
L 214.310935 141.902818 
L 214.310935 142.207228 
L 214.213432 140.669956 
L 214.213432 140.669956 
L 214.115929 141.593334 
L 213.924285 142.207228 
L 214.021788 142.516712 
L 214.408438 142.516712 
L 214.213432 142.207228 
L 214.115929 142.516712 
L 214.408438 143.130606 
L 214.408438 142.826196 
L 214.213432 142.826196 
L 213.826782 143.130606 
L 213.72928 142.826196 
L 213.826782 141.902818 
L 214.115929 141.593334 
L 214.408438 141.902818 
L 214.502579 142.826196 
L 214.213432 143.130606 
L 214.021788 143.130606 
L 213.826782 142.207228 
L 214.021788 143.44009 
L 213.924285 143.44009 
L 213.924285 143.130606 
L 213.826782 143.44009 
L 213.72928 143.749574 
L 213.635139 143.44009 
L 213.826782 142.207228 
L 213.72928 143.130606 
L 213.34263 142.516712 
L 213.34263 144.053985 
L 213.34263 143.749574 
L 213.537636 142.826196 
L 213.826782 142.207228 
L 213.924285 142.516712 
L 213.826782 142.516712 
L 213.537636 142.826196 
L 213.537636 144.363468 
L 213.440133 143.749574 
L 213.248489 143.130606 
L 213.440133 143.44009 
L 213.440133 143.130606 
L 213.34263 143.130606 
L 213.053483 143.130606 
L 213.150986 142.516712 
L 213.34263 143.44009 
L 213.34263 142.826196 
L 213.34263 143.130606 
L 213.635139 142.207228 
L 213.537636 143.749574 
L 213.34263 143.749574 
L 213.440133 141.902818 
L 213.537636 141.593334 
L 213.72928 141.902818 
L 213.635139 143.749574 
L 213.34263 144.363468 
L 213.34263 144.672952 
L 213.537636 144.672952 
L 213.72928 142.826196 
L 213.72928 141.902818 
L 213.72928 142.207228 
L 213.440133 143.44009 
L 213.537636 143.44009 
L 213.72928 143.130606 
L 214.115929 144.053985 
L 214.213432 143.749574 
L 214.021788 142.826196 
L 213.826782 144.053985 
L 213.826782 143.749574 
L 213.72928 142.826196 
L 213.72928 143.749574 
L 213.537636 143.749574 
L 213.635139 142.826196 
L 213.72928 142.826196 
L 213.537636 142.516712 
L 213.440133 141.902818 
L 213.635139 143.749574 
L 213.635139 144.053985 
L 213.635139 143.130606 
L 213.826782 142.516712 
L 214.213432 141.902818 
L 214.502579 142.207228 
L 214.021788 144.053985 
L 214.021788 144.053985 
L 214.021788 143.749574 
L 214.115929 143.749574 
L 214.213432 144.053985 
L 214.213432 144.053985 
L 214.115929 144.363468 
L 213.635139 144.363468 
L 213.537636 143.749574 
L 213.826782 143.130606 
L 213.826782 143.130606 
L 213.72928 144.363468 
L 213.924285 144.363468 
L 214.021788 143.749574 
L 213.72928 142.516712 
L 213.537636 142.516712 
L 213.635139 142.516712 
L 213.440133 143.130606 
L 213.34263 142.826196 
L 213.537636 142.516712 
L 214.115929 143.130606 
L 214.310935 143.130606 
L 214.889228 142.516712 
L 216.049177 141.902818 
L 222.52808 136.976443 
L 225.816282 134.206309 
L 229.780281 131.745658 
L 234.13093 129.279934 
L 243.992176 124.972527 
L 249.405271 121.892909 
L 255.013371 118.50888 
L 260.813115 115.738746 
L 266.807865 113.278095 
L 272.994259 111.431339 
L 279.375658 109.888993 
L 292.330101 106.195481 
L 298.711501 105.581586 
L 304.803754 105.89107 
L 310.896007 107.428343 
L 316.984898 109.584583 
L 323.366297 112.659128 
L 329.45855 115.429262 
L 335.355797 117.585502 
L 341.155541 119.122775 
L 358.268989 125.282011 
L 363.197931 126.205389 
L 367.837726 127.433178 
L 371.899228 129.279934 
L 375.671584 131.126691 
L 379.053927 132.359553 
L 382.052983 132.669036 
L 387.368575 132.669036 
L 391.14093 132.050069 
L 392.39502 131.126691 
L 392.203376 131.126691 
L 391.816726 130.82228 
L 391.14093 130.512796 
L 389.883478 130.203312 
L 388.626027 129.589418 
L 387.657722 128.975524 
L 386.981925 128.356556 
L 385.14618 127.742662 
L 384.177875 127.128768 
L 383.502079 125.895906 
L 382.72878 123.435255 
L 383.502079 125.586422 
L 384.759531 126.819284 
L 385.724474 127.433178 
L 386.208626 126.819284 
L 386.111123 127.128768 
L 385.919479 126.205389 
L 386.111123 126.205389 
L 386.111123 126.205389 
L 385.435327 126.819284 
L 385.14618 126.5098 
L 384.853671 125.895906 
L 384.759531 125.282011 
L 384.951174 124.358633 
L 384.759531 124.049149 
L 384.177875 125.895906 
L 384.177875 126.5098 
L 384.080372 126.5098 
L 383.791225 126.5098 
L 383.791225 126.205389 
L 383.986231 125.895906 
L 383.986231 126.819284 
L 383.986231 126.819284 
L 384.177875 126.819284 
L 384.372881 126.5098 
L 384.080372 125.895906 
L 383.986231 126.5098 
L 383.986231 126.819284 
L 383.888728 126.5098 
L 383.791225 126.205389 
L 383.986231 126.819284 
L 383.888728 127.128768 
L 383.791225 126.819284 
L 383.888728 126.5098 
L 384.177875 126.819284 
L 384.080372 126.819284 
L 383.693723 128.356556 
L 383.502079 128.356556 
L 383.599582 128.052146 
L 384.080372 128.052146 
L 384.080372 128.052146 
L 383.986231 128.66604 
L 383.307073 128.66604 
L 383.307073 128.975524 
L 383.599582 129.589418 
L 383.791225 129.589418 
L 383.888728 129.279934 
L 383.599582 128.66604 
L 383.791225 128.66604 
L 384.080372 128.975524 
L 384.080372 129.279934 
L 383.599582 128.66604 
L 383.404576 128.975524 
L 383.212932 128.66604 
L 383.212932 128.052146 
L 383.115429 129.898902 
L 383.307073 129.279934 
L 383.599582 128.052146 
L 383.502079 128.66604 
L 383.212932 130.82228 
L 383.115429 131.126691 
L 382.72878 128.052146 
L 382.826283 126.819284 
L 383.017926 127.742662 
L 383.115429 129.279934 
L 383.404576 130.203312 
L 383.307073 130.203312 
L 383.212932 130.82228 
L 383.307073 131.126691 
L 383.404576 130.82228 
L 383.212932 129.898902 
L 382.920423 129.589418 
L 382.826283 129.279934 
L 383.212932 130.512796 
L 383.404576 130.203312 
L 383.307073 130.203312 
L 383.307073 129.589418 
L 383.115429 128.356556 
L 382.920423 128.052146 
L 383.017926 128.052146 
L 383.212932 127.742662 
L 383.212932 127.742662 
L 383.017926 128.975524 
L 382.826283 128.975524 
L 382.72878 128.66604 
L 383.017926 129.589418 
L 383.017926 130.512796 
L 382.826283 130.82228 
L 382.826283 130.512796 
L 383.115429 130.203312 
L 383.307073 130.203312 
L 383.212932 129.898902 
L 382.72878 129.898902 
L 382.72878 130.512796 
L 382.826283 130.512796 
L 383.307073 129.898902 
L 383.017926 130.203312 
L 382.826283 130.82228 
L 382.34213 130.82228 
L 382.439633 130.82228 
L 382.72878 131.126691 
L 382.826283 130.512796 
L 382.533774 129.898902 
L 382.439633 130.512796 
L 382.34213 130.82228 
L 383.017926 131.745658 
L 382.826283 130.82228 
L 382.439633 129.898902 
L 382.244627 129.898902 
L 382.34213 129.898902 
L 382.631277 129.279934 
L 382.826283 129.589418 
L 382.826283 130.203312 
L 382.631277 130.82228 
L 382.631277 130.82228 
L 382.533774 130.203312 
L 382.34213 129.898902 
L 382.052983 128.356556 
L 382.244627 128.66604 
L 382.439633 129.589418 
L 382.439633 130.203312 
L 382.439633 129.898902 
L 382.826283 128.975524 
L 382.920423 128.975524 
L 382.631277 128.975524 
L 382.631277 128.975524 
L 382.631277 129.279934 
L 382.244627 130.203312 
L 381.95548 129.279934 
L 381.95548 129.279934 
L 381.95548 128.052146 
L 382.052983 128.975524 
L 382.244627 128.052146 
L 382.439633 128.356556 
L 382.533774 128.356556 
L 382.631277 127.742662 
L 382.439633 127.433178 
L 382.244627 127.433178 
L 382.533774 128.66604 
L 382.244627 129.279934 
L 382.244627 128.975524 
L 382.147124 128.66604 
L 381.95548 128.66604 
L 382.052983 129.279934 
L 382.147124 128.975524 
L 381.857977 128.356556 
L 381.666334 127.742662 
L 381.568831 126.5098 
L 381.760474 126.819284 
L 382.147124 127.742662 
L 381.857977 127.433178 
L 381.568831 127.128768 
L 381.666334 127.433178 
L 381.95548 127.433178 
L 382.244627 127.742662 
L 382.34213 128.052146 
L 381.568831 129.279934 
L 381.373825 128.975524 
L 381.471328 128.052146 
L 381.471328 126.819284 
L 381.276322 125.895906 
L 381.760474 127.742662 
L 381.471328 125.895906 
L 381.084678 125.282011 
L 379.248933 124.049149 
L 378.088984 123.435255 
L 376.34738 123.125771 
L 373.738336 122.202393 
L 370.641777 120.046153 
L 367.259433 116.662124 
L 363.487078 113.278095 
L 359.042288 111.121855 
L 354.207487 109.584583 
L 349.083539 107.737827 
L 343.670445 104.967692 
L 338.159847 102.811452 
L 332.454244 101.888074 
L 326.6545 101.27418 
L 309.443549 98.504045 
L 303.835449 98.504045 
L 292.62261 97.885077 
L 287.303657 97.885077 
L 281.988065 97.271183 
L 276.766614 95.733911 
L 271.642666 93.887154 
L 266.616221 92.344809 
L 261.78142 91.11702 
L 256.946619 90.807536 
L 252.59597 91.11702 
L 248.534469 90.498052 
L 244.667972 89.270264 
L 240.99312 87.727918 
L 237.80242 86.80454 
L 235.095873 86.80454 
L 232.584332 85.881162 
L 230.069428 84.343889 
L 227.941174 84.034405 
L 223.883034 84.653373 
L 223.590526 84.343889 
L 223.590526 83.420511 
L 223.883034 82.497133 
L 224.269684 81.883239 
L 224.656334 81.883239 
L 225.137124 82.187649 
L 225.621277 82.187649 
L 226.007926 82.806617 
L 226.202932 83.420511 
L 226.105429 83.729995 
L 225.71878 83.420511 
L 226.105429 83.420511 
L 225.71878 83.420511 
L 225.234627 83.729995 
L 223.883034 86.190645 
L 223.883034 86.80454 
L 223.398882 87.423507 
L 223.109735 87.423507 
L 223.203876 88.651296 
L 223.203876 88.346886 
L 223.496385 88.346886 
L 223.590526 88.037402 
L 223.496385 87.727918 
L 223.398882 85.881162 
L 223.012232 86.80454 
L 223.012232 86.500129 
L 223.109735 86.500129 
L 223.301379 86.190645 
L 223.301379 85.576751 
L 223.109735 85.267267 
L 222.914729 85.267267 
L 222.817226 85.576751 
L 223.012232 86.500129 
L 222.817226 86.190645 
L 222.52808 86.190645 
L 222.14143 86.500129 
L 222.14143 86.80454 
L 222.52808 87.423507 
L 222.625583 88.346886 
L 222.336436 88.346886 
L 222.043927 88.037402 
L 222.043927 88.037402 
L 222.14143 89.270264 
L 222.14143 89.884158 
L 222.043927 89.884158 
L 221.949786 89.884158 
L 221.852283 90.193642 
L 222.043927 89.884158 
L 221.949786 88.346886 
L 221.852283 88.037402 
L 221.657278 88.346886 
L 221.657278 88.346886 
L 221.852283 87.727918 
L 221.657278 88.651296 
L 221.368131 90.807536 
L 221.465634 90.498052 
L 221.563137 90.807536 
L 220.981481 89.270264 
L 220.883978 89.270264 
L 221.078984 89.574674 
L 221.270628 90.193642 
L 221.270628 90.807536 
L 220.981481 91.11702 
L 220.692335 92.344809 
L 220.594832 89.884158 
L 220.497329 89.270264 
L 220.594832 88.96078 
L 220.883978 88.96078 
L 220.883978 89.270264 
L 220.692335 89.270264 
L 220.497329 89.574674 
L 220.692335 90.807536 
L 220.497329 91.11702 
L 220.305685 90.807536 
L 219.919035 89.270264 
L 219.821532 89.884158 
L 219.919035 90.498052 
L 220.208182 90.807536 
L 220.305685 91.42143 
L 219.919035 92.963776 
L 219.33738 92.344809 
L 219.33738 92.040398 
L 219.434883 92.040398 
L 219.532386 92.654292 
L 219.626527 92.040398 
L 219.821532 92.654292 
L 219.532386 93.887154 
L 219.33738 94.810533 
L 219.145736 94.810533 
L 218.95073 94.191565 
L 219.048233 93.887154 
L 218.95073 91.42143 
L 218.759087 91.42143 
L 218.853227 93.577671 
L 218.95073 94.191565 
L 219.145736 94.191565 
L 218.853227 94.810533 
L 218.95073 94.191565 
L 218.759087 94.501049 
L 218.079928 95.114943 
L 218.177431 95.424427 
L 218.372437 95.114943 
L 218.372437 94.501049 
L 218.274934 94.501049 
L 218.079928 95.424427 
L 217.790781 96.961699 
L 217.790781 96.038321 
L 217.888284 97.885077 
L 218.177431 97.885077 
L 217.599138 97.885077 
L 217.501635 98.194561 
L 217.693279 98.504045 
L 217.985787 97.580667 
L 218.177431 98.194561 
L 218.274934 99.731834 
L 218.079928 99.731834 
L 218.079928 100.655212 
L 218.177431 100.655212 
L 218.274934 100.350801 
L 218.177431 100.964696 
L 218.274934 100.964696 
L 218.372437 100.350801 
L 218.466578 100.655212 
L 218.466578 102.197558 
L 218.466578 102.197558 
" style="fill:none;stroke:#1f77b4;stroke-linecap:square;stroke-width:1.5;"/>
   </g>
   <g id="matplotlib.axis_1">
    <g id="xtick_1">
     <g id="line2d_2">
      <defs>
       <path d="M 0 0 
L 0 3.5 
" id="m1957a404eb" style="stroke:#000000;stroke-width:0.8;"/>
      </defs>
      <g>
       <use style="stroke:#000000;stroke-width:0.8;" x="92.011983" xlink:href="#m1957a404eb" y="307.584"/>
      </g>
     </g>
     <g id="text_1">
      <!-- −600 -->
      <defs>
       <path d="M 10.59375 35.5 
L 73.1875 35.5 
L 73.1875 27.203125 
L 10.59375 27.203125 
z
" id="DejaVuSans-8722"/>
       <path d="M 33.015625 40.375 
Q 26.375 40.375 22.484375 35.828125 
Q 18.609375 31.296875 18.609375 23.390625 
Q 18.609375 15.53125 22.484375 10.953125 
Q 26.375 6.390625 33.015625 6.390625 
Q 39.65625 6.390625 43.53125 10.953125 
Q 47.40625 15.53125 47.40625 23.390625 
Q 47.40625 31.296875 43.53125 35.828125 
Q 39.65625 40.375 33.015625 40.375 
z
M 52.59375 71.296875 
L 52.59375 62.3125 
Q 48.875 64.0625 45.09375 64.984375 
Q 41.3125 65.921875 37.59375 65.921875 
Q 27.828125 65.921875 22.671875 59.328125 
Q 17.53125 52.734375 16.796875 39.40625 
Q 19.671875 43.65625 24.015625 45.921875 
Q 28.375 48.1875 33.59375 48.1875 
Q 44.578125 48.1875 50.953125 41.515625 
Q 57.328125 34.859375 57.328125 23.390625 
Q 57.328125 12.15625 50.6875 5.359375 
Q 44.046875 -1.421875 33.015625 -1.421875 
Q 20.359375 -1.421875 13.671875 8.265625 
Q 6.984375 17.96875 6.984375 36.375 
Q 6.984375 53.65625 15.1875 63.9375 
Q 23.390625 74.21875 37.203125 74.21875 
Q 40.921875 74.21875 44.703125 73.484375 
Q 48.484375 72.75 52.59375 71.296875 
z
" id="DejaVuSans-54"/>
       <path d="M 31.78125 66.40625 
Q 24.171875 66.40625 20.328125 58.90625 
Q 16.5 51.421875 16.5 36.375 
Q 16.5 21.390625 20.328125 13.890625 
Q 24.171875 6.390625 31.78125 6.390625 
Q 39.453125 6.390625 43.28125 13.890625 
Q 47.125 21.390625 47.125 36.375 
Q 47.125 51.421875 43.28125 58.90625 
Q 39.453125 66.40625 31.78125 66.40625 
z
M 31.78125 74.21875 
Q 44.046875 74.21875 50.515625 64.515625 
Q 56.984375 54.828125 56.984375 36.375 
Q 56.984375 17.96875 50.515625 8.265625 
Q 44.046875 -1.421875 31.78125 -1.421875 
Q 19.53125 -1.421875 13.0625 8.265625 
Q 6.59375 17.96875 6.59375 36.375 
Q 6.59375 54.828125 13.0625 64.515625 
Q 19.53125 74.21875 31.78125 74.21875 
z
" id="DejaVuSans-48"/>
      </defs>
      <g transform="translate(78.278389 322.182437)scale(0.1 -0.1)">
       <use xlink:href="#DejaVuSans-8722"/>
       <use x="83.789062" xlink:href="#DejaVuSans-54"/>
       <use x="147.412109" xlink:href="#DejaVuSans-48"/>
       <use x="211.035156" xlink:href="#DejaVuSans-48"/>
      </g>
     </g>
    </g>
    <g id="xtick_2">
     <g id="line2d_3">
      <g>
       <use style="stroke:#000000;stroke-width:0.8;" x="159.255393" xlink:href="#m1957a404eb" y="307.584"/>
      </g>
     </g>
     <g id="text_2">
      <!-- −400 -->
      <defs>
       <path d="M 37.796875 64.3125 
L 12.890625 25.390625 
L 37.796875 25.390625 
z
M 35.203125 72.90625 
L 47.609375 72.90625 
L 47.609375 25.390625 
L 58.015625 25.390625 
L 58.015625 17.1875 
L 47.609375 17.1875 
L 47.609375 0 
L 37.796875 0 
L 37.796875 17.1875 
L 4.890625 17.1875 
L 4.890625 26.703125 
z
" id="DejaVuSans-52"/>
      </defs>
      <g transform="translate(145.521799 322.182437)scale(0.1 -0.1)">
       <use xlink:href="#DejaVuSans-8722"/>
       <use x="83.789062" xlink:href="#DejaVuSans-52"/>
       <use x="147.412109" xlink:href="#DejaVuSans-48"/>
       <use x="211.035156" xlink:href="#DejaVuSans-48"/>
      </g>
     </g>
    </g>
    <g id="xtick_3">
     <g id="line2d_4">
      <g>
       <use style="stroke:#000000;stroke-width:0.8;" x="226.498803" xlink:href="#m1957a404eb" y="307.584"/>
      </g>
     </g>
     <g id="text_3">
      <!-- −200 -->
      <defs>
       <path d="M 19.1875 8.296875 
L 53.609375 8.296875 
L 53.609375 0 
L 7.328125 0 
L 7.328125 8.296875 
Q 12.9375 14.109375 22.625 23.890625 
Q 32.328125 33.6875 34.8125 36.53125 
Q 39.546875 41.84375 41.421875 45.53125 
Q 43.3125 49.21875 43.3125 52.78125 
Q 43.3125 58.59375 39.234375 62.25 
Q 35.15625 65.921875 28.609375 65.921875 
Q 23.96875 65.921875 18.8125 64.3125 
Q 13.671875 62.703125 7.8125 59.421875 
L 7.8125 69.390625 
Q 13.765625 71.78125 18.9375 73 
Q 24.125 74.21875 28.421875 74.21875 
Q 39.75 74.21875 46.484375 68.546875 
Q 53.21875 62.890625 53.21875 53.421875 
Q 53.21875 48.921875 51.53125 44.890625 
Q 49.859375 40.875 45.40625 35.40625 
Q 44.1875 33.984375 37.640625 27.21875 
Q 31.109375 20.453125 19.1875 8.296875 
z
" id="DejaVuSans-50"/>
      </defs>
      <g transform="translate(212.765209 322.182437)scale(0.1 -0.1)">
       <use xlink:href="#DejaVuSans-8722"/>
       <use x="83.789062" xlink:href="#DejaVuSans-50"/>
       <use x="147.412109" xlink:href="#DejaVuSans-48"/>
       <use x="211.035156" xlink:href="#DejaVuSans-48"/>
      </g>
     </g>
    </g>
    <g id="xtick_4">
     <g id="line2d_5">
      <g>
       <use style="stroke:#000000;stroke-width:0.8;" x="293.742213" xlink:href="#m1957a404eb" y="307.584"/>
      </g>
     </g>
     <g id="text_4">
      <!-- 0 -->
      <g transform="translate(290.560963 322.182437)scale(0.1 -0.1)">
       <use xlink:href="#DejaVuSans-48"/>
      </g>
     </g>
    </g>
    <g id="xtick_5">
     <g id="line2d_6">
      <g>
       <use style="stroke:#000000;stroke-width:0.8;" x="360.985623" xlink:href="#m1957a404eb" y="307.584"/>
      </g>
     </g>
     <g id="text_5">
      <!-- 200 -->
      <g transform="translate(351.441873 322.182437)scale(0.1 -0.1)">
       <use xlink:href="#DejaVuSans-50"/>
       <use x="63.623047" xlink:href="#DejaVuSans-48"/>
       <use x="127.246094" xlink:href="#DejaVuSans-48"/>
      </g>
     </g>
    </g>
   </g>
   <g id="matplotlib.axis_2">
    <g id="ytick_1">
     <g id="line2d_7">
      <defs>
       <path d="M 0 0 
L -3.5 0 
" id="mdcc58d0d49" style="stroke:#000000;stroke-width:0.8;"/>
      </defs>
      <g>
       <use style="stroke:#000000;stroke-width:0.8;" x="57.6" xlink:href="#mdcc58d0d49" y="264.10329"/>
      </g>
     </g>
     <g id="text_6">
      <!-- −400 -->
      <g transform="translate(23.132812 267.902509)scale(0.1 -0.1)">
       <use xlink:href="#DejaVuSans-8722"/>
       <use x="83.789062" xlink:href="#DejaVuSans-52"/>
       <use x="147.412109" xlink:href="#DejaVuSans-48"/>
       <use x="211.035156" xlink:href="#DejaVuSans-48"/>
      </g>
     </g>
    </g>
    <g id="ytick_2">
     <g id="line2d_8">
      <g>
       <use style="stroke:#000000;stroke-width:0.8;" x="57.6" xlink:href="#mdcc58d0d49" y="213.368227"/>
      </g>
     </g>
     <g id="text_7">
      <!-- −300 -->
      <defs>
       <path d="M 40.578125 39.3125 
Q 47.65625 37.796875 51.625 33 
Q 55.609375 28.21875 55.609375 21.1875 
Q 55.609375 10.40625 48.1875 4.484375 
Q 40.765625 -1.421875 27.09375 -1.421875 
Q 22.515625 -1.421875 17.65625 -0.515625 
Q 12.796875 0.390625 7.625 2.203125 
L 7.625 11.71875 
Q 11.71875 9.328125 16.59375 8.109375 
Q 21.484375 6.890625 26.8125 6.890625 
Q 36.078125 6.890625 40.9375 10.546875 
Q 45.796875 14.203125 45.796875 21.1875 
Q 45.796875 27.640625 41.28125 31.265625 
Q 36.765625 34.90625 28.71875 34.90625 
L 20.21875 34.90625 
L 20.21875 43.015625 
L 29.109375 43.015625 
Q 36.375 43.015625 40.234375 45.921875 
Q 44.09375 48.828125 44.09375 54.296875 
Q 44.09375 59.90625 40.109375 62.90625 
Q 36.140625 65.921875 28.71875 65.921875 
Q 24.65625 65.921875 20.015625 65.03125 
Q 15.375 64.15625 9.8125 62.3125 
L 9.8125 71.09375 
Q 15.4375 72.65625 20.34375 73.4375 
Q 25.25 74.21875 29.59375 74.21875 
Q 40.828125 74.21875 47.359375 69.109375 
Q 53.90625 64.015625 53.90625 55.328125 
Q 53.90625 49.265625 50.4375 45.09375 
Q 46.96875 40.921875 40.578125 39.3125 
z
" id="DejaVuSans-51"/>
      </defs>
      <g transform="translate(23.132812 217.167446)scale(0.1 -0.1)">
       <use xlink:href="#DejaVuSans-8722"/>
       <use x="83.789062" xlink:href="#DejaVuSans-51"/>
       <use x="147.412109" xlink:href="#DejaVuSans-48"/>
       <use x="211.035156" xlink:href="#DejaVuSans-48"/>
      </g>
     </g>
    </g>
    <g id="ytick_3">
     <g id="line2d_9">
      <g>
       <use style="stroke:#000000;stroke-width:0.8;" x="57.6" xlink:href="#mdcc58d0d49" y="162.633165"/>
      </g>
     </g>
     <g id="text_8">
      <!-- −200 -->
      <g transform="translate(23.132812 166.432383)scale(0.1 -0.1)">
       <use xlink:href="#DejaVuSans-8722"/>
       <use x="83.789062" xlink:href="#DejaVuSans-50"/>
       <use x="147.412109" xlink:href="#DejaVuSans-48"/>
       <use x="211.035156" xlink:href="#DejaVuSans-48"/>
      </g>
     </g>
    </g>
    <g id="ytick_4">
     <g id="line2d_10">
      <g>
       <use style="stroke:#000000;stroke-width:0.8;" x="57.6" xlink:href="#mdcc58d0d49" y="111.898102"/>
      </g>
     </g>
     <g id="text_9">
      <!-- −100 -->
      <defs>
       <path d="M 12.40625 8.296875 
L 28.515625 8.296875 
L 28.515625 63.921875 
L 10.984375 60.40625 
L 10.984375 69.390625 
L 28.421875 72.90625 
L 38.28125 72.90625 
L 38.28125 8.296875 
L 54.390625 8.296875 
L 54.390625 0 
L 12.40625 0 
z
" id="DejaVuSans-49"/>
      </defs>
      <g transform="translate(23.132812 115.69732)scale(0.1 -0.1)">
       <use xlink:href="#DejaVuSans-8722"/>
       <use x="83.789062" xlink:href="#DejaVuSans-49"/>
       <use x="147.412109" xlink:href="#DejaVuSans-48"/>
       <use x="211.035156" xlink:href="#DejaVuSans-48"/>
      </g>
     </g>
    </g>
    <g id="ytick_5">
     <g id="line2d_11">
      <g>
       <use style="stroke:#000000;stroke-width:0.8;" x="57.6" xlink:href="#mdcc58d0d49" y="61.163039"/>
      </g>
     </g>
     <g id="text_10">
      <!-- 0 -->
      <g transform="translate(44.2375 64.962258)scale(0.1 -0.1)">
       <use xlink:href="#DejaVuSans-48"/>
      </g>
     </g>
    </g>
   </g>
   <g id="line2d_12">
    <path clip-path="url(#p84c20b632f)" d="M 83.262984 285.901474 
L 317.572794 67.075709 
L 390.79645 171.844153 
L 220.885389 138.132422 
L 217.387358 141.082019 
L 380.198509 127.255356 
L 225.472103 90.083337 
" style="fill:none;stroke:#ff0000;stroke-linecap:square;stroke-width:0.5;"/>
   </g>
   <g id="patch_3">
    <path d="M 57.6 307.584 
L 57.6 41.472 
" style="fill:none;stroke:#000000;stroke-linecap:square;stroke-linejoin:miter;stroke-width:0.8;"/>
   </g>
   <g id="patch_4">
    <path d="M 414.72 307.584 
L 414.72 41.472 
" style="fill:none;stroke:#000000;stroke-linecap:square;stroke-linejoin:miter;stroke-width:0.8;"/>
   </g>
   <g id="patch_5">
    <path d="M 57.6 307.584 
L 414.72 307.584 
" style="fill:none;stroke:#000000;stroke-linecap:square;stroke-linejoin:miter;stroke-width:0.8;"/>
   </g>
   <g id="patch_6">
    <path d="M 57.6 41.472 
L 414.72 41.472 
" style="fill:none;stroke:#000000;stroke-linecap:square;stroke-linejoin:miter;stroke-width:0.8;"/>
   </g>
   <g id="PathCollection_1">
    <defs>
     <path d="M 0 2.738613 
C 0.726289 2.738613 1.422928 2.450055 1.936492 1.936492 
C 2.450055 1.422928 2.738613 0.726289 2.738613 0 
C 2.738613 -0.726289 2.450055 -1.422928 1.936492 -1.936492 
C 1.422928 -2.450055 0.726289 -2.738613 0 -2.738613 
C -0.726289 -2.738613 -1.422928 -2.450055 -1.936492 -1.936492 
C -2.450055 -1.422928 -2.738613 -0.726289 -2.738613 0 
C -2.738613 0.726289 -2.450055 1.422928 -1.936492 1.936492 
C -1.422928 2.450055 -0.726289 2.738613 0 2.738613 
z
" id="m4bd54bd4af" style="stroke:#ff0000;"/>
    </defs>
    <g clip-path="url(#p84c20b632f)">
     <use style="fill:#ff0000;stroke:#ff0000;" x="83.262984" xlink:href="#m4bd54bd4af" y="285.901474"/>
     <use style="fill:#ff0000;stroke:#ff0000;" x="317.572794" xlink:href="#m4bd54bd4af" y="67.075709"/>
     <use style="fill:#ff0000;stroke:#ff0000;" x="390.79645" xlink:href="#m4bd54bd4af" y="171.844153"/>
     <use style="fill:#ff0000;stroke:#ff0000;" x="220.885389" xlink:href="#m4bd54bd4af" y="138.132422"/>
     <use style="fill:#ff0000;stroke:#ff0000;" x="217.387358" xlink:href="#m4bd54bd4af" y="141.082019"/>
     <use style="fill:#ff0000;stroke:#ff0000;" x="380.198509" xlink:href="#m4bd54bd4af" y="127.255356"/>
     <use style="fill:#ff0000;stroke:#ff0000;" x="225.472103" xlink:href="#m4bd54bd4af" y="90.083337"/>
    </g>
   </g>
   <g id="text_11">
    <!-- (147) Subject: s17, Known = True, Degree = 2, Duration = 0.1 -->
    <defs>
     <path d="M 31 75.875 
Q 24.46875 64.65625 21.28125 53.65625 
Q 18.109375 42.671875 18.109375 31.390625 
Q 18.109375 20.125 21.3125 9.0625 
Q 24.515625 -2 31 -13.1875 
L 23.1875 -13.1875 
Q 15.875 -1.703125 12.234375 9.375 
Q 8.59375 20.453125 8.59375 31.390625 
Q 8.59375 42.28125 12.203125 53.3125 
Q 15.828125 64.359375 23.1875 75.875 
z
" id="DejaVuSans-40"/>
     <path d="M 8.203125 72.90625 
L 55.078125 72.90625 
L 55.078125 68.703125 
L 28.609375 0 
L 18.3125 0 
L 43.21875 64.59375 
L 8.203125 64.59375 
z
" id="DejaVuSans-55"/>
     <path d="M 8.015625 75.875 
L 15.828125 75.875 
Q 23.140625 64.359375 26.78125 53.3125 
Q 30.421875 42.28125 30.421875 31.390625 
Q 30.421875 20.453125 26.78125 9.375 
Q 23.140625 -1.703125 15.828125 -13.1875 
L 8.015625 -13.1875 
Q 14.5 -2 17.703125 9.0625 
Q 20.90625 20.125 20.90625 31.390625 
Q 20.90625 42.671875 17.703125 53.65625 
Q 14.5 64.65625 8.015625 75.875 
z
" id="DejaVuSans-41"/>
     <path id="DejaVuSans-32"/>
     <path d="M 53.515625 70.515625 
L 53.515625 60.890625 
Q 47.90625 63.578125 42.921875 64.890625 
Q 37.9375 66.21875 33.296875 66.21875 
Q 25.25 66.21875 20.875 63.09375 
Q 16.5 59.96875 16.5 54.203125 
Q 16.5 49.359375 19.40625 46.890625 
Q 22.3125 44.4375 30.421875 42.921875 
L 36.375 41.703125 
Q 47.40625 39.59375 52.65625 34.296875 
Q 57.90625 29 57.90625 20.125 
Q 57.90625 9.515625 50.796875 4.046875 
Q 43.703125 -1.421875 29.984375 -1.421875 
Q 24.8125 -1.421875 18.96875 -0.25 
Q 13.140625 0.921875 6.890625 3.21875 
L 6.890625 13.375 
Q 12.890625 10.015625 18.65625 8.296875 
Q 24.421875 6.59375 29.984375 6.59375 
Q 38.421875 6.59375 43.015625 9.90625 
Q 47.609375 13.234375 47.609375 19.390625 
Q 47.609375 24.75 44.3125 27.78125 
Q 41.015625 30.8125 33.5 32.328125 
L 27.484375 33.5 
Q 16.453125 35.6875 11.515625 40.375 
Q 6.59375 45.0625 6.59375 53.421875 
Q 6.59375 63.09375 13.40625 68.65625 
Q 20.21875 74.21875 32.171875 74.21875 
Q 37.3125 74.21875 42.625 73.28125 
Q 47.953125 72.359375 53.515625 70.515625 
z
" id="DejaVuSans-83"/>
     <path d="M 8.5 21.578125 
L 8.5 54.6875 
L 17.484375 54.6875 
L 17.484375 21.921875 
Q 17.484375 14.15625 20.5 10.265625 
Q 23.53125 6.390625 29.59375 6.390625 
Q 36.859375 6.390625 41.078125 11.03125 
Q 45.3125 15.671875 45.3125 23.6875 
L 45.3125 54.6875 
L 54.296875 54.6875 
L 54.296875 0 
L 45.3125 0 
L 45.3125 8.40625 
Q 42.046875 3.421875 37.71875 1 
Q 33.40625 -1.421875 27.6875 -1.421875 
Q 18.265625 -1.421875 13.375 4.4375 
Q 8.5 10.296875 8.5 21.578125 
z
M 31.109375 56 
z
" id="DejaVuSans-117"/>
     <path d="M 48.6875 27.296875 
Q 48.6875 37.203125 44.609375 42.84375 
Q 40.53125 48.484375 33.40625 48.484375 
Q 26.265625 48.484375 22.1875 42.84375 
Q 18.109375 37.203125 18.109375 27.296875 
Q 18.109375 17.390625 22.1875 11.75 
Q 26.265625 6.109375 33.40625 6.109375 
Q 40.53125 6.109375 44.609375 11.75 
Q 48.6875 17.390625 48.6875 27.296875 
z
M 18.109375 46.390625 
Q 20.953125 51.265625 25.265625 53.625 
Q 29.59375 56 35.59375 56 
Q 45.5625 56 51.78125 48.09375 
Q 58.015625 40.1875 58.015625 27.296875 
Q 58.015625 14.40625 51.78125 6.484375 
Q 45.5625 -1.421875 35.59375 -1.421875 
Q 29.59375 -1.421875 25.265625 0.953125 
Q 20.953125 3.328125 18.109375 8.203125 
L 18.109375 0 
L 9.078125 0 
L 9.078125 75.984375 
L 18.109375 75.984375 
z
" id="DejaVuSans-98"/>
     <path d="M 9.421875 54.6875 
L 18.40625 54.6875 
L 18.40625 -0.984375 
Q 18.40625 -11.421875 14.421875 -16.109375 
Q 10.453125 -20.796875 1.609375 -20.796875 
L -1.8125 -20.796875 
L -1.8125 -13.1875 
L 0.59375 -13.1875 
Q 5.71875 -13.1875 7.5625 -10.8125 
Q 9.421875 -8.453125 9.421875 -0.984375 
z
M 9.421875 75.984375 
L 18.40625 75.984375 
L 18.40625 64.59375 
L 9.421875 64.59375 
z
" id="DejaVuSans-106"/>
     <path d="M 56.203125 29.59375 
L 56.203125 25.203125 
L 14.890625 25.203125 
Q 15.484375 15.921875 20.484375 11.0625 
Q 25.484375 6.203125 34.421875 6.203125 
Q 39.59375 6.203125 44.453125 7.46875 
Q 49.3125 8.734375 54.109375 11.28125 
L 54.109375 2.78125 
Q 49.265625 0.734375 44.1875 -0.34375 
Q 39.109375 -1.421875 33.890625 -1.421875 
Q 20.796875 -1.421875 13.15625 6.1875 
Q 5.515625 13.8125 5.515625 26.8125 
Q 5.515625 40.234375 12.765625 48.109375 
Q 20.015625 56 32.328125 56 
Q 43.359375 56 49.78125 48.890625 
Q 56.203125 41.796875 56.203125 29.59375 
z
M 47.21875 32.234375 
Q 47.125 39.59375 43.09375 43.984375 
Q 39.0625 48.390625 32.421875 48.390625 
Q 24.90625 48.390625 20.390625 44.140625 
Q 15.875 39.890625 15.1875 32.171875 
z
" id="DejaVuSans-101"/>
     <path d="M 48.78125 52.59375 
L 48.78125 44.1875 
Q 44.96875 46.296875 41.140625 47.34375 
Q 37.3125 48.390625 33.40625 48.390625 
Q 24.65625 48.390625 19.8125 42.84375 
Q 14.984375 37.3125 14.984375 27.296875 
Q 14.984375 17.28125 19.8125 11.734375 
Q 24.65625 6.203125 33.40625 6.203125 
Q 37.3125 6.203125 41.140625 7.25 
Q 44.96875 8.296875 48.78125 10.40625 
L 48.78125 2.09375 
Q 45.015625 0.34375 40.984375 -0.53125 
Q 36.96875 -1.421875 32.421875 -1.421875 
Q 20.0625 -1.421875 12.78125 6.34375 
Q 5.515625 14.109375 5.515625 27.296875 
Q 5.515625 40.671875 12.859375 48.328125 
Q 20.21875 56 33.015625 56 
Q 37.15625 56 41.109375 55.140625 
Q 45.0625 54.296875 48.78125 52.59375 
z
" id="DejaVuSans-99"/>
     <path d="M 18.3125 70.21875 
L 18.3125 54.6875 
L 36.8125 54.6875 
L 36.8125 47.703125 
L 18.3125 47.703125 
L 18.3125 18.015625 
Q 18.3125 11.328125 20.140625 9.421875 
Q 21.96875 7.515625 27.59375 7.515625 
L 36.8125 7.515625 
L 36.8125 0 
L 27.59375 0 
Q 17.1875 0 13.234375 3.875 
Q 9.28125 7.765625 9.28125 18.015625 
L 9.28125 47.703125 
L 2.6875 47.703125 
L 2.6875 54.6875 
L 9.28125 54.6875 
L 9.28125 70.21875 
z
" id="DejaVuSans-116"/>
     <path d="M 11.71875 12.40625 
L 22.015625 12.40625 
L 22.015625 0 
L 11.71875 0 
z
M 11.71875 51.703125 
L 22.015625 51.703125 
L 22.015625 39.3125 
L 11.71875 39.3125 
z
" id="DejaVuSans-58"/>
     <path d="M 44.28125 53.078125 
L 44.28125 44.578125 
Q 40.484375 46.53125 36.375 47.5 
Q 32.28125 48.484375 27.875 48.484375 
Q 21.1875 48.484375 17.84375 46.4375 
Q 14.5 44.390625 14.5 40.28125 
Q 14.5 37.15625 16.890625 35.375 
Q 19.28125 33.59375 26.515625 31.984375 
L 29.59375 31.296875 
Q 39.15625 29.25 43.1875 25.515625 
Q 47.21875 21.78125 47.21875 15.09375 
Q 47.21875 7.46875 41.1875 3.015625 
Q 35.15625 -1.421875 24.609375 -1.421875 
Q 20.21875 -1.421875 15.453125 -0.5625 
Q 10.6875 0.296875 5.421875 2 
L 5.421875 11.28125 
Q 10.40625 8.6875 15.234375 7.390625 
Q 20.0625 6.109375 24.8125 6.109375 
Q 31.15625 6.109375 34.5625 8.28125 
Q 37.984375 10.453125 37.984375 14.40625 
Q 37.984375 18.0625 35.515625 20.015625 
Q 33.0625 21.96875 24.703125 23.78125 
L 21.578125 24.515625 
Q 13.234375 26.265625 9.515625 29.90625 
Q 5.8125 33.546875 5.8125 39.890625 
Q 5.8125 47.609375 11.28125 51.796875 
Q 16.75 56 26.8125 56 
Q 31.78125 56 36.171875 55.265625 
Q 40.578125 54.546875 44.28125 53.078125 
z
" id="DejaVuSans-115"/>
     <path d="M 11.71875 12.40625 
L 22.015625 12.40625 
L 22.015625 4 
L 14.015625 -11.625 
L 7.71875 -11.625 
L 11.71875 4 
z
" id="DejaVuSans-44"/>
     <path d="M 9.8125 72.90625 
L 19.671875 72.90625 
L 19.671875 42.09375 
L 52.390625 72.90625 
L 65.09375 72.90625 
L 28.90625 38.921875 
L 67.671875 0 
L 54.6875 0 
L 19.671875 35.109375 
L 19.671875 0 
L 9.8125 0 
z
" id="DejaVuSans-75"/>
     <path d="M 54.890625 33.015625 
L 54.890625 0 
L 45.90625 0 
L 45.90625 32.71875 
Q 45.90625 40.484375 42.875 44.328125 
Q 39.84375 48.1875 33.796875 48.1875 
Q 26.515625 48.1875 22.3125 43.546875 
Q 18.109375 38.921875 18.109375 30.90625 
L 18.109375 0 
L 9.078125 0 
L 9.078125 54.6875 
L 18.109375 54.6875 
L 18.109375 46.1875 
Q 21.34375 51.125 25.703125 53.5625 
Q 30.078125 56 35.796875 56 
Q 45.21875 56 50.046875 50.171875 
Q 54.890625 44.34375 54.890625 33.015625 
z
" id="DejaVuSans-110"/>
     <path d="M 30.609375 48.390625 
Q 23.390625 48.390625 19.1875 42.75 
Q 14.984375 37.109375 14.984375 27.296875 
Q 14.984375 17.484375 19.15625 11.84375 
Q 23.34375 6.203125 30.609375 6.203125 
Q 37.796875 6.203125 41.984375 11.859375 
Q 46.1875 17.53125 46.1875 27.296875 
Q 46.1875 37.015625 41.984375 42.703125 
Q 37.796875 48.390625 30.609375 48.390625 
z
M 30.609375 56 
Q 42.328125 56 49.015625 48.375 
Q 55.71875 40.765625 55.71875 27.296875 
Q 55.71875 13.875 49.015625 6.21875 
Q 42.328125 -1.421875 30.609375 -1.421875 
Q 18.84375 -1.421875 12.171875 6.21875 
Q 5.515625 13.875 5.515625 27.296875 
Q 5.515625 40.765625 12.171875 48.375 
Q 18.84375 56 30.609375 56 
z
" id="DejaVuSans-111"/>
     <path d="M 4.203125 54.6875 
L 13.1875 54.6875 
L 24.421875 12.015625 
L 35.59375 54.6875 
L 46.1875 54.6875 
L 57.421875 12.015625 
L 68.609375 54.6875 
L 77.59375 54.6875 
L 63.28125 0 
L 52.6875 0 
L 40.921875 44.828125 
L 29.109375 0 
L 18.5 0 
z
" id="DejaVuSans-119"/>
     <path d="M 10.59375 45.40625 
L 73.1875 45.40625 
L 73.1875 37.203125 
L 10.59375 37.203125 
z
M 10.59375 25.484375 
L 73.1875 25.484375 
L 73.1875 17.1875 
L 10.59375 17.1875 
z
" id="DejaVuSans-61"/>
     <path d="M -0.296875 72.90625 
L 61.375 72.90625 
L 61.375 64.59375 
L 35.5 64.59375 
L 35.5 0 
L 25.59375 0 
L 25.59375 64.59375 
L -0.296875 64.59375 
z
" id="DejaVuSans-84"/>
     <path d="M 41.109375 46.296875 
Q 39.59375 47.171875 37.8125 47.578125 
Q 36.03125 48 33.890625 48 
Q 26.265625 48 22.1875 43.046875 
Q 18.109375 38.09375 18.109375 28.8125 
L 18.109375 0 
L 9.078125 0 
L 9.078125 54.6875 
L 18.109375 54.6875 
L 18.109375 46.1875 
Q 20.953125 51.171875 25.484375 53.578125 
Q 30.03125 56 36.53125 56 
Q 37.453125 56 38.578125 55.875 
Q 39.703125 55.765625 41.0625 55.515625 
z
" id="DejaVuSans-114"/>
     <path d="M 19.671875 64.796875 
L 19.671875 8.109375 
L 31.59375 8.109375 
Q 46.6875 8.109375 53.6875 14.9375 
Q 60.6875 21.78125 60.6875 36.53125 
Q 60.6875 51.171875 53.6875 57.984375 
Q 46.6875 64.796875 31.59375 64.796875 
z
M 9.8125 72.90625 
L 30.078125 72.90625 
Q 51.265625 72.90625 61.171875 64.09375 
Q 71.09375 55.28125 71.09375 36.53125 
Q 71.09375 17.671875 61.125 8.828125 
Q 51.171875 0 30.078125 0 
L 9.8125 0 
z
" id="DejaVuSans-68"/>
     <path d="M 45.40625 27.984375 
Q 45.40625 37.75 41.375 43.109375 
Q 37.359375 48.484375 30.078125 48.484375 
Q 22.859375 48.484375 18.828125 43.109375 
Q 14.796875 37.75 14.796875 27.984375 
Q 14.796875 18.265625 18.828125 12.890625 
Q 22.859375 7.515625 30.078125 7.515625 
Q 37.359375 7.515625 41.375 12.890625 
Q 45.40625 18.265625 45.40625 27.984375 
z
M 54.390625 6.78125 
Q 54.390625 -7.171875 48.1875 -13.984375 
Q 42 -20.796875 29.203125 -20.796875 
Q 24.46875 -20.796875 20.265625 -20.09375 
Q 16.0625 -19.390625 12.109375 -17.921875 
L 12.109375 -9.1875 
Q 16.0625 -11.328125 19.921875 -12.34375 
Q 23.78125 -13.375 27.78125 -13.375 
Q 36.625 -13.375 41.015625 -8.765625 
Q 45.40625 -4.15625 45.40625 5.171875 
L 45.40625 9.625 
Q 42.625 4.78125 38.28125 2.390625 
Q 33.9375 0 27.875 0 
Q 17.828125 0 11.671875 7.65625 
Q 5.515625 15.328125 5.515625 27.984375 
Q 5.515625 40.671875 11.671875 48.328125 
Q 17.828125 56 27.875 56 
Q 33.9375 56 38.28125 53.609375 
Q 42.625 51.21875 45.40625 46.390625 
L 45.40625 54.6875 
L 54.390625 54.6875 
z
" id="DejaVuSans-103"/>
     <path d="M 34.28125 27.484375 
Q 23.390625 27.484375 19.1875 25 
Q 14.984375 22.515625 14.984375 16.5 
Q 14.984375 11.71875 18.140625 8.90625 
Q 21.296875 6.109375 26.703125 6.109375 
Q 34.1875 6.109375 38.703125 11.40625 
Q 43.21875 16.703125 43.21875 25.484375 
L 43.21875 27.484375 
z
M 52.203125 31.203125 
L 52.203125 0 
L 43.21875 0 
L 43.21875 8.296875 
Q 40.140625 3.328125 35.546875 0.953125 
Q 30.953125 -1.421875 24.3125 -1.421875 
Q 15.921875 -1.421875 10.953125 3.296875 
Q 6 8.015625 6 15.921875 
Q 6 25.140625 12.171875 29.828125 
Q 18.359375 34.515625 30.609375 34.515625 
L 43.21875 34.515625 
L 43.21875 35.40625 
Q 43.21875 41.609375 39.140625 45 
Q 35.0625 48.390625 27.6875 48.390625 
Q 23 48.390625 18.546875 47.265625 
Q 14.109375 46.140625 10.015625 43.890625 
L 10.015625 52.203125 
Q 14.9375 54.109375 19.578125 55.046875 
Q 24.21875 56 28.609375 56 
Q 40.484375 56 46.34375 49.84375 
Q 52.203125 43.703125 52.203125 31.203125 
z
" id="DejaVuSans-97"/>
     <path d="M 9.421875 54.6875 
L 18.40625 54.6875 
L 18.40625 0 
L 9.421875 0 
z
M 9.421875 75.984375 
L 18.40625 75.984375 
L 18.40625 64.59375 
L 9.421875 64.59375 
z
" id="DejaVuSans-105"/>
     <path d="M 10.6875 12.40625 
L 21 12.40625 
L 21 0 
L 10.6875 0 
z
" id="DejaVuSans-46"/>
    </defs>
    <g transform="translate(47.915625 35.472)scale(0.12 -0.12)">
     <use xlink:href="#DejaVuSans-40"/>
     <use x="39.013672" xlink:href="#DejaVuSans-49"/>
     <use x="102.636719" xlink:href="#DejaVuSans-52"/>
     <use x="166.259766" xlink:href="#DejaVuSans-55"/>
     <use x="229.882812" xlink:href="#DejaVuSans-41"/>
     <use x="268.896484" xlink:href="#DejaVuSans-32"/>
     <use x="300.683594" xlink:href="#DejaVuSans-83"/>
     <use x="364.160156" xlink:href="#DejaVuSans-117"/>
     <use x="427.539062" xlink:href="#DejaVuSans-98"/>
     <use x="491.015625" xlink:href="#DejaVuSans-106"/>
     <use x="518.798828" xlink:href="#DejaVuSans-101"/>
     <use x="580.322266" xlink:href="#DejaVuSans-99"/>
     <use x="635.302734" xlink:href="#DejaVuSans-116"/>
     <use x="674.511719" xlink:href="#DejaVuSans-58"/>
     <use x="708.203125" xlink:href="#DejaVuSans-32"/>
     <use x="739.990234" xlink:href="#DejaVuSans-115"/>
     <use x="792.089844" xlink:href="#DejaVuSans-49"/>
     <use x="855.712891" xlink:href="#DejaVuSans-55"/>
     <use x="919.335938" xlink:href="#DejaVuSans-44"/>
     <use x="951.123047" xlink:href="#DejaVuSans-32"/>
     <use x="982.910156" xlink:href="#DejaVuSans-75"/>
     <use x="1048.486328" xlink:href="#DejaVuSans-110"/>
     <use x="1111.865234" xlink:href="#DejaVuSans-111"/>
     <use x="1173.046875" xlink:href="#DejaVuSans-119"/>
     <use x="1254.833984" xlink:href="#DejaVuSans-110"/>
     <use x="1318.212891" xlink:href="#DejaVuSans-32"/>
     <use x="1350" xlink:href="#DejaVuSans-61"/>
     <use x="1433.789062" xlink:href="#DejaVuSans-32"/>
     <use x="1465.576172" xlink:href="#DejaVuSans-84"/>
     <use x="1526.441406" xlink:href="#DejaVuSans-114"/>
     <use x="1567.554688" xlink:href="#DejaVuSans-117"/>
     <use x="1630.933594" xlink:href="#DejaVuSans-101"/>
     <use x="1692.457031" xlink:href="#DejaVuSans-44"/>
     <use x="1724.244141" xlink:href="#DejaVuSans-32"/>
     <use x="1756.03125" xlink:href="#DejaVuSans-68"/>
     <use x="1833.033203" xlink:href="#DejaVuSans-101"/>
     <use x="1894.556641" xlink:href="#DejaVuSans-103"/>
     <use x="1958.033203" xlink:href="#DejaVuSans-114"/>
     <use x="1999.115234" xlink:href="#DejaVuSans-101"/>
     <use x="2060.638672" xlink:href="#DejaVuSans-101"/>
     <use x="2122.162109" xlink:href="#DejaVuSans-32"/>
     <use x="2153.949219" xlink:href="#DejaVuSans-61"/>
     <use x="2237.738281" xlink:href="#DejaVuSans-32"/>
     <use x="2269.525391" xlink:href="#DejaVuSans-50"/>
     <use x="2333.148438" xlink:href="#DejaVuSans-44"/>
     <use x="2364.935547" xlink:href="#DejaVuSans-32"/>
     <use x="2396.722656" xlink:href="#DejaVuSans-68"/>
     <use x="2473.724609" xlink:href="#DejaVuSans-117"/>
     <use x="2537.103516" xlink:href="#DejaVuSans-114"/>
     <use x="2578.216797" xlink:href="#DejaVuSans-97"/>
     <use x="2639.496094" xlink:href="#DejaVuSans-116"/>
     <use x="2678.705078" xlink:href="#DejaVuSans-105"/>
     <use x="2706.488281" xlink:href="#DejaVuSans-111"/>
     <use x="2767.669922" xlink:href="#DejaVuSans-110"/>
     <use x="2831.048828" xlink:href="#DejaVuSans-32"/>
     <use x="2862.835938" xlink:href="#DejaVuSans-61"/>
     <use x="2946.625" xlink:href="#DejaVuSans-32"/>
     <use x="2978.412109" xlink:href="#DejaVuSans-48"/>
     <use x="3042.035156" xlink:href="#DejaVuSans-46"/>
     <use x="3073.822266" xlink:href="#DejaVuSans-49"/>
    </g>
   </g>
  </g>
 </g>
 <defs>
  <clipPath id="p84c20b632f">
   <rect height="266.112" width="357.12" x="57.6" y="41.472"/>
  </clipPath>
 </defs>
</svg>
