<?xml version="1.0" encoding="utf-8" standalone="no"?>
<!DOCTYPE svg PUBLIC "-//W3C//DTD SVG 1.1//EN"
  "http://www.w3.org/Graphics/SVG/1.1/DTD/svg11.dtd">
<!-- Created with matplotlib (https://matplotlib.org/) -->
<svg height="345.6pt" version="1.1" viewBox="0 0 460.8 345.6" width="460.8pt" xmlns="http://www.w3.org/2000/svg" xmlns:xlink="http://www.w3.org/1999/xlink">
 <defs>
  <style type="text/css">
*{stroke-linecap:butt;stroke-linejoin:round;}
  </style>
 </defs>
 <g id="figure_1">
  <g id="patch_1">
   <path d="M 0 345.6 
L 460.8 345.6 
L 460.8 0 
L 0 0 
z
" style="fill:#ffffff;"/>
  </g>
  <g id="axes_1">
   <g id="patch_2">
    <path d="M 57.6 307.584 
L 414.72 307.584 
L 414.72 41.472 
L 57.6 41.472 
z
" style="fill:#ffffff;"/>
   </g>
   <g id="line2d_1">
    <path clip-path="url(#p97f915426e)" d="M 75.561646 63.266778 
L 75.390183 63.131232 
L 75.561646 62.862561 
L 74.872222 62.862561 
L 74.525724 62.998107 
L 74.697187 63.266778 
L 75.043685 63.399903 
L 75.21872 63.266778 
L 75.21872 62.998107 
L 75.043685 62.998107 
L 75.390183 62.998107 
L 75.390183 62.727015 
L 75.561646 62.727015 
L 75.21872 62.727015 
L 73.832727 62.458345 
L 74.007762 62.59389 
L 75.21872 62.862561 
L 75.561646 62.727015 
L 75.561646 62.862561 
L 75.390183 63.399903 
L 74.872222 63.670994 
L 74.354261 63.399903 
L 74.525724 63.535449 
L 74.697187 63.80412 
L 75.043685 63.670994 
L 75.043685 63.670994 
L 75.390183 63.399903 
L 75.390183 63.131232 
L 74.872222 63.670994 
L 75.21872 64.343882 
L 75.21872 64.479428 
L 75.21872 64.343882 
L 74.697187 64.075211 
L 74.697187 64.075211 
L 74.872222 63.80412 
L 75.043685 63.80412 
L 75.390183 64.208336 
L 75.390183 64.343882 
L 74.525724 64.343882 
L 74.354261 64.479428 
L 74.697187 64.075211 
L 74.697187 63.80412 
L 74.525724 63.80412 
L 74.697187 64.075211 
L 74.354261 64.343882 
L 74.354261 64.208336 
L 74.354261 64.075211 
L 73.832727 64.343882 
L 74.354261 64.208336 
L 74.872222 64.075211 
L 75.21872 64.343882 
L 75.390183 64.883644 
L 74.872222 65.420986 
L 74.872222 65.152315 
L 75.21872 64.748098 
L 75.043685 64.748098 
L 74.872222 64.748098 
L 74.872222 64.883644 
L 74.872222 64.883644 
L 74.525724 64.479428 
L 74.525724 64.208336 
L 74.525724 64.479428 
L 74.697187 64.883644 
L 74.525724 65.152315 
L 74.525724 65.152315 
L 74.354261 64.748098 
L 74.354261 64.748098 
L 74.697187 64.883644 
L 74.697187 64.883644 
L 74.525724 64.612553 
L 74.525724 64.748098 
L 74.872222 64.748098 
L 75.390183 64.612553 
L 75.390183 64.479428 
L 75.390183 64.612553 
L 75.561646 64.748098 
L 75.736681 64.612553 
L 75.390183 64.479428 
L 74.872222 64.479428 
L 75.561646 63.939665 
L 75.908144 63.266778 
L 76.08318 63.670994 
L 75.908144 63.939665 
L 75.390183 64.075211 
L 75.390183 63.939665 
L 75.21872 63.670994 
L 75.561646 63.399903 
L 76.426106 63.131232 
L 76.426106 62.998107 
L 76.772604 62.458345 
L 76.601141 62.322799 
L 76.601141 62.458345 
L 76.944067 62.322799 
L 76.944067 62.322799 
L 76.944067 62.458345 
L 76.944067 62.322799 
L 76.772604 62.054128 
L 77.637063 61.245695 
L 77.637063 61.110149 
L 77.637063 61.110149 
L 77.4656 60.977024 
L 77.4656 60.705933 
L 77.637063 60.304136 
L 78.155025 60.033045 
L 78.848021 60.033045 
L 79.019484 60.168591 
L 77.983562 60.168591 
L 77.637063 59.89992 
L 78.848021 59.224612 
L 79.194519 59.224612 
L 78.848021 59.224612 
L 78.672986 59.091487 
L 79.019484 58.551724 
L 78.848021 58.955941 
L 79.194519 58.820395 
L 79.537445 58.416179 
L 79.537445 58.147508 
L 79.194519 57.878837 
L 79.365982 57.339075 
L 80.058979 56.934858 
L 79.365982 57.610166 
L 79.194519 57.743291 
L 79.194519 57.610166 
L 79.194519 57.47462 
L 79.019484 57.47462 
L 79.712481 57.070404 
L 80.230442 57.205949 
L 80.401905 57.610166 
L 80.058979 57.47462 
L 79.712481 57.205949 
L 79.712481 56.934858 
L 80.401905 56.397516 
L 80.230442 56.397516 
L 80.058979 56.126425 
L 80.230442 55.857754 
L 80.230442 55.857754 
L 80.058979 55.722208 
L 79.194519 55.453537 
L 79.537445 55.317992 
L 80.401905 55.184866 
L 80.230442 55.184866 
L 80.230442 54.916195 
L 80.401905 54.78065 
L 80.401905 55.049321 
L 80.058979 55.184866 
L 79.883944 54.78065 
L 80.058979 54.645104 
L 80.401905 54.78065 
L 80.401905 54.376433 
L 80.748403 54.78065 
L 80.748403 55.049321 
L 80.57694 55.049321 
L 80.57694 54.916195 
L 80.57694 54.916195 
L 80.748403 54.78065 
L 80.748403 54.511979 
L 80.401905 54.376433 
L 80.401905 54.376433 
L 80.401905 54.511979 
L 81.266364 53.972217 
L 81.4414 54.240888 
L 81.094901 54.511979 
L 81.094901 53.568 
L 81.266364 53.703546 
L 81.612863 54.511979 
L 81.266364 54.645104 
L 80.923438 54.376433 
L 80.57694 54.376433 
L 80.57694 54.645104 
L 80.748403 54.645104 
L 80.923438 54.511979 
L 80.748403 54.78065 
L 81.094901 54.78065 
L 81.094901 55.184866 
L 80.57694 55.317992 
L 80.401905 55.049321 
L 80.401905 54.78065 
L 81.094901 54.78065 
L 81.612863 55.317992 
L 81.094901 55.589083 
L 80.57694 55.453537 
L 80.401905 55.184866 
L 80.57694 55.453537 
L 80.923438 55.453537 
L 81.612863 55.317992 
L 81.787898 55.453537 
L 81.4414 55.184866 
L 80.923438 55.049321 
L 80.923438 55.184866 
L 81.094901 55.184866 
L 81.094901 55.453537 
L 80.748403 56.26197 
L 81.094901 56.397516 
L 81.4414 56.397516 
L 80.923438 56.397516 
L 79.712481 56.126425 
L 79.537445 55.9933 
L 80.230442 56.397516 
L 80.57694 56.530641 
L 80.923438 56.530641 
L 82.648785 56.801733 
L 83.513245 57.070404 
L 84.899237 57.339075 
L 90.082422 57.878837 
L 93.715295 58.147508 
L 97.516059 58.551724 
L 101.491859 58.820395 
L 110.482952 60.033045 
L 115.32321 60.705933 
L 120.334932 61.649911 
L 125.175191 62.727015 
L 130.015449 63.939665 
L 134.85928 65.016769 
L 139.699539 66.633636 
L 149.722982 70.944473 
L 159.578535 74.851093 
L 169.087589 78.217951 
L 174.099311 80.103488 
L 178.768106 82.124571 
L 192.077925 88.858287 
L 201.758442 93.169124 
L 206.598701 95.594423 
L 215.761257 101.11791 
L 243.248925 114.316671 
L 255.001287 120.781716 
L 261.7455 125.76544 
L 265.028303 128.326286 
L 268.139643 130.480494 
L 273.326399 134.52266 
L 275.230354 136.945539 
L 276.784237 139.506384 
L 277.995195 142.064809 
L 279.377616 144.625654 
L 280.588574 147.319624 
L 281.453033 150.013595 
L 281.453033 155.26599 
L 281.277998 157.69129 
L 280.588574 159.981044 
L 280.242075 162.403923 
L 279.724114 164.829222 
L 278.859655 166.98343 
L 277.477234 169.140059 
L 274.883855 172.642463 
L 273.672898 174.123783 
L 272.636975 175.605104 
L 271.426017 177.086425 
L 270.390095 178.567745 
L 269.3506 179.64727 
L 268.661176 180.588828 
L 265.028303 187.189419 
L 264.163843 188.133398 
L 263.474419 189.074956 
L 262.781423 191.36471 
L 262.60996 192.441814 
L 262.60996 193.521339 
L 261.916963 194.462897 
L 259.323585 197.292413 
L 258.63416 198.505063 
L 258.116199 199.850838 
L 257.941164 201.199034 
L 257.423203 202.680354 
L 255.694284 204.834563 
L 255.176323 205.374325 
L 255.001287 206.182758 
L 254.483326 207.259862 
L 253.793902 208.201421 
L 253.100905 208.876729 
L 252.582944 209.549616 
L 252.236446 210.222504 
L 251.889948 211.166482 
L 251.371986 211.974916 
L 249.818103 213.320691 
L 249.471604 213.993578 
L 248.260647 215.073103 
L 247.224724 216.554423 
L 247.224724 216.95864 
L 247.049689 217.495982 
L 245.32077 218.708632 
L 244.802809 218.977302 
L 244.113384 219.112848 
L 244.456311 219.921281 
L 244.802809 220.189952 
L 244.977844 220.729714 
L 244.284847 221.402602 
L 243.420388 221.671273 
L 242.902427 221.538148 
L 242.384465 221.538148 
L 242.037967 221.806819 
L 242.037967 222.075489 
L 242.037967 222.075489 
L 242.20943 222.075489 
L 242.037967 221.942364 
L 242.037967 221.671273 
L 242.20943 221.806819 
L 242.037967 221.942364 
L 241.520006 221.942364 
L 241.173508 222.075489 
L 241.691469 221.942364 
L 241.344971 221.942364 
L 240.309048 222.211035 
L 240.309048 222.479706 
L 240.137585 222.211035 
L 240.137585 221.806819 
L 240.655547 221.806819 
L 241.002045 221.942364 
L 240.137585 221.942364 
L 240.137585 221.806819 
L 239.616052 221.267056 
L 239.616052 221.133931 
L 239.96255 221.267056 
L 239.791087 220.998385 
L 239.791087 220.461044 
L 239.444589 220.86526 
L 239.96255 220.325498 
L 239.791087 220.325498 
L 239.444589 220.189952 
L 239.616052 219.921281 
L 239.616052 219.65261 
L 239.098091 219.65261 
L 238.926628 219.381519 
L 238.926628 219.248394 
L 238.751592 219.112848 
L 238.233631 218.439961 
L 238.408666 218.439961 
L 238.408666 218.304415 
L 237.544207 217.362857 
L 237.369172 217.495982 
L 236.85121 218.17129 
L 235.815288 218.708632 
L 234.257832 218.977302 
L 233.568408 220.461044 
L 233.568408 221.402602 
L 230.11057 226.117655 
L 229.417573 227.19476 
L 229.071075 228.003193 
L 227.688654 229.753184 
L 226.306234 231.774267 
L 224.059353 233.255588 
L 223.366357 234.199567 
L 222.848396 235.141125 
L 220.772978 236.489321 
L 220.083554 237.297754 
L 219.565593 238.374858 
L 219.047632 239.047745 
L 218.183172 239.587508 
L 216.797179 240.260395 
L 215.761257 241.204374 
L 215.06826 242.012807 
L 214.896797 242.550149 
L 214.550299 243.089911 
L 213.167878 244.706778 
L 213.68584 245.648336 
L 214.032338 246.456769 
L 213.68584 247.129657 
L 212.996415 247.400748 
L 212.996415 247.669419 
L 213.167878 247.93809 
L 213.167878 249.15074 
L 213.339341 249.823627 
L 213.167878 250.36339 
L 212.131956 251.709165 
L 211.956921 252.248927 
L 210.920998 253.594702 
L 210.749535 253.865793 
L 210.056539 254.403135 
L 210.056539 255.211568 
L 209.538577 255.751331 
L 209.538577 256.155547 
L 209.020616 256.291093 
L 208.499083 256.828435 
L 208.499083 257.636868 
L 208.32762 257.636868 
L 208.32762 256.96398 
L 208.156157 256.828435 
L 208.32762 257.232651 
L 208.32762 257.772413 
L 207.981121 257.905539 
L 207.634623 257.772413 
L 207.634623 258.17663 
L 207.981121 258.985063 
L 208.499083 259.386859 
L 208.32762 259.522405 
L 207.116662 259.522405 
L 207.116662 259.657951 
L 207.809658 260.195293 
L 207.634623 260.062167 
L 207.46316 260.062167 
L 207.634623 260.330838 
L 207.634623 260.599509 
L 207.291697 260.870601 
L 207.46316 261.139271 
L 207.634623 261.139271 
L 207.634623 260.870601 
L 207.291697 261.003726 
L 207.291697 261.274817 
L 206.945199 261.139271 
L 206.773736 260.735055 
L 206.773736 260.735055 
L 206.945199 260.735055 
L 206.598701 261.139271 
L 206.598701 261.947705 
L 206.427238 261.812159 
L 206.598701 261.543488 
L 206.427238 261.543488 
L 206.080739 261.812159 
L 206.427238 261.812159 
L 206.773736 261.679034 
L 206.773736 261.812159 
L 206.252202 262.351921 
L 206.252202 263.429025 
L 206.427238 263.429025 
L 206.598701 263.160354 
L 205.387743 263.160354 
L 204.869782 263.429025 
L 205.21628 263.968788 
L 205.21628 263.564571 
L 205.387743 263.29348 
L 204.869782 264.101913 
L 205.044817 264.506129 
L 205.562778 264.7748 
L 205.909276 264.641675 
L 205.734241 264.373004 
L 205.044817 264.506129 
L 204.35182 264.7748 
L 203.833859 264.641675 
L 203.315898 264.373004 
L 202.622901 264.506129 
L 202.10494 264.7748 
L 201.069018 264.506129 
L 198.818565 264.373004 
L 192.942384 264.373004 
L 189.656009 263.833242 
L 186.026708 262.889263 
L 182.397407 262.351921 
L 178.593071 262.216376 
L 174.617272 262.485046 
L 147.8226 263.429025 
L 140.906924 264.101913 
L 138.835079 264.237459 
L 136.413164 264.237459 
L 134.166284 263.968788 
L 131.919403 263.833242 
L 129.843986 263.564571 
L 127.425643 263.697696 
L 123.274809 263.697696 
L 118.781048 263.160354 
L 116.880666 263.429025 
L 115.669708 263.968788 
L 114.458751 264.641675 
L 113.594291 264.910346 
L 113.07633 264.910346 
L 112.558369 265.045892 
L 111.693909 265.450108 
L 111.693909 265.98745 
L 112.211871 266.391667 
L 113.07633 266.662758 
L 114.458751 267.335646 
L 114.630214 267.066975 
L 114.976712 266.795883 
L 115.151747 266.931429 
L 115.494673 267.468771 
L 116.016207 267.468771 
L 116.534168 268.008533 
L 116.705631 268.277204 
L 115.841172 268.277204 
L 115.669708 268.41275 
L 115.669708 268.952512 
L 115.32321 269.085637 
L 114.976712 269.489854 
L 114.976712 269.760945 
L 115.151747 269.89407 
L 115.151747 269.89407 
L 114.976712 270.029616 
L 115.32321 269.89407 
L 116.016207 269.760945 
L 116.016207 269.625399 
L 115.494673 269.760945 
L 114.976712 270.029616 
L 115.151747 270.029616 
L 116.18767 270.162741 
L 116.705631 270.566958 
L 116.534168 270.971174 
L 115.841172 270.971174 
L 115.669708 271.10672 
L 115.494673 270.971174 
L 115.494673 270.702504 
L 115.494673 270.971174 
L 115.841172 271.375391 
L 115.669708 271.646482 
L 115.151747 271.779608 
L 114.805249 271.510937 
L 114.976712 271.242266 
L 115.151747 271.242266 
L 115.151747 271.646482 
L 115.32321 271.915153 
L 115.669708 272.050699 
L 115.669708 272.31937 
L 115.494673 272.588041 
L 115.32321 272.588041 
L 114.458751 271.779608 
L 114.630214 272.183824 
L 115.32321 272.992257 
L 114.976712 273.53202 
L 114.805249 273.53202 
L 114.976712 273.53202 
L 114.976712 273.260928 
L 114.805249 272.856712 
L 114.458751 272.723587 
L 114.458751 272.992257 
L 114.976712 273.260928 
L 115.494673 273.260928 
L 115.669708 273.127803 
L 115.494673 273.127803 
L 114.976712 273.127803 
L 115.151747 273.260928 
L 113.765754 273.260928 
L 114.112253 273.396474 
L 114.458751 272.992257 
L 114.630214 273.665145 
L 114.630214 273.665145 
L 114.112253 273.665145 
L 114.287288 273.53202 
L 114.805249 273.396474 
L 115.32321 273.665145 
L 115.151747 274.069362 
L 114.976712 273.800691 
L 114.976712 273.800691 
L 116.18767 274.473578 
L 116.016207 274.340453 
L 115.32321 274.340453 
L 115.151747 274.069362 
L 115.494673 273.800691 
L 116.016207 273.665145 
L 115.841172 273.665145 
L 115.841172 273.53202 
L 116.18767 273.665145 
L 116.534168 273.936236 
L 116.18767 273.665145 
L 116.18767 273.396474 
L 116.705631 272.723587 
L 116.534168 272.992257 
L 116.534168 273.53202 
L 115.841172 273.127803 
L 116.016207 272.856712 
L 116.534168 272.856712 
L 117.052129 272.723587 
L 117.57009 272.183824 
L 117.223592 272.183824 
L 116.359133 272.588041 
L 116.534168 272.454916 
L 115.841172 272.183824 
L 116.359133 272.31937 
L 116.705631 272.31937 
L 117.916589 271.375391 
L 117.398627 271.375391 
L 117.398627 271.375391 
L 117.745126 271.242266 
L 117.745126 271.10672 
L 118.606013 271.646482 
L 118.781048 271.510937 
L 118.781048 270.029616 
L 118.952511 269.89407 
L 118.781048 269.89407 
L 118.952511 269.625399 
L 119.299009 269.489854 
L 119.299009 269.085637 
L 119.470472 268.816966 
L 119.816971 268.681421 
L 119.992006 268.277204 
L 119.816971 267.872987 
L 119.470472 267.468771 
L 119.816971 267.604316 
L 120.163469 267.604316 
L 120.509967 267.468771 
L 120.68143 267.604316 
L 120.334932 267.468771 
L 119.992006 266.795883 
L 120.334932 266.258541 
L 121.027928 265.450108 
L 121.027928 265.045892 
L 121.199391 265.314563 
L 121.199391 265.718779 
L 121.199391 264.910346 
L 121.54589 264.506129 
L 121.54589 263.968788 
L 121.374427 264.101913 
L 121.892388 263.697696 
L 121.720925 263.697696 
L 122.063851 262.351921 
L 121.892388 262.351921 
L 121.720925 262.620592 
L 122.585384 262.216376 
L 122.756847 262.08083 
L 122.238886 262.351921 
L 121.892388 262.08083 
L 121.892388 261.812159 
L 122.585384 261.407942 
L 122.585384 261.543488 
L 122.410349 261.679034 
L 122.92831 261.139271 
L 122.585384 260.735055 
L 122.585384 260.599509 
L 123.449844 260.330838 
L 123.274809 260.330838 
L 123.103346 260.195293 
L 123.103346 259.791076 
L 122.756847 259.657951 
L 122.410349 259.253734 
L 122.585384 259.118188 
L 122.92831 259.386859 
L 122.92831 259.926622 
L 122.756847 260.062167 
L 122.756847 259.926622 
L 122.92831 259.522405 
L 123.449844 259.118188 
L 123.79277 259.253734 
L 123.274809 259.657951 
L 123.621307 259.657951 
L 124.139268 259.386859 
L 124.139268 259.386859 
L 123.274809 258.580847 
L 123.449844 258.445301 
L 124.485766 258.445301 
L 124.485766 258.580847 
L 123.967805 258.849518 
L 123.967805 258.985063 
L 124.139268 258.985063 
L 124.657229 258.580847 
L 124.485766 258.580847 
L 124.139268 258.713972 
L 124.139268 258.849518 
L 124.310731 259.118188 
L 123.967805 258.985063 
L 124.139268 258.713972 
L 124.139268 258.309755 
L 123.967805 257.905539 
L 123.621307 257.772413 
L 123.274809 257.772413 
L 123.103346 257.501322 
L 123.274809 257.636868 
L 124.310731 258.713972 
L 123.967805 258.309755 
L 123.621307 258.17663 
L 123.274809 258.17663 
L 123.449844 258.17663 
L 123.449844 258.309755 
L 123.79277 258.445301 
L 124.139268 258.445301 
L 124.139268 258.445301 
L 124.139268 258.580847 
L 124.485766 258.580847 
L 124.832265 258.17663 
L 124.310731 257.772413 
L 123.621307 257.772413 
L 123.449844 257.905539 
L 124.139268 257.905539 
L 124.657229 257.772413 
L 124.657229 257.772413 
L 124.657229 257.905539 
L 123.967805 258.580847 
L 123.967805 258.985063 
L 123.79277 258.713972 
L 124.139268 258.17663 
L 124.310731 258.445301 
L 124.485766 258.445301 
L 124.310731 258.041084 
L 123.79277 257.905539 
L 123.449844 258.041084 
L 123.79277 258.17663 
L 123.79277 258.041084 
L 123.449844 257.636868 
L 123.103346 257.772413 
L 123.103346 258.041084 
L 123.274809 258.17663 
L 123.103346 258.041084 
L 122.92831 258.309755 
L 123.274809 258.985063 
L 122.92831 258.17663 
L 123.274809 258.17663 
L 123.79277 258.041084 
L 124.310731 258.041084 
L 124.657229 258.713972 
L 124.657229 258.580847 
L 124.139268 258.580847 
L 123.621307 258.713972 
L 123.449844 258.580847 
L 123.79277 258.309755 
L 124.139268 258.445301 
L 123.79277 258.849518 
L 123.274809 259.253734 
L 123.449844 259.118188 
L 123.449844 258.849518 
L 123.103346 258.849518 
L 122.92831 258.713972 
L 122.92831 258.309755 
L 122.92831 258.445301 
L 122.585384 258.445301 
L 122.410349 258.580847 
L 123.274809 258.849518 
L 127.079145 258.849518 
L 129.154562 259.253734 
L 131.572905 259.522405 
L 134.684245 259.657951 
L 138.660044 259.657951 
L 143.32884 259.386859 
L 148.515597 259.253734 
L 154.220315 259.253734 
L 174.445809 260.062167 
L 181.879446 260.330838 
L 189.484546 260.466384 
L 197.436145 260.735055 
L 212.82138 261.407942 
L 219.908519 261.679034 
L 227.170693 262.351921 
L 249.125106 265.450108 
L 255.865747 266.122996 
L 262.434924 266.931429 
L 269.179137 267.604316 
L 276.094813 268.681421 
L 283.006917 269.625399 
L 289.922593 269.89407 
L 297.184767 269.89407 
L 304.789867 270.433833 
L 320.868099 272.050699 
L 328.644662 272.723587 
L 342.822512 274.204907 
L 350.081114 274.473578 
L 356.99679 274.340453 
L 363.219469 274.473578 
L 368.924187 275.01334 
L 374.282407 275.954899 
L 378.951203 276.494661 
L 383.2735 276.494661 
L 387.420763 276.630207 
L 391.053636 277.43864 
L 396.583319 279.188632 
L 398.140775 279.053086 
L 398.487273 279.324177 
L 398.312238 279.592848 
L 397.794276 279.997065 
L 396.929817 280.401281 
L 396.065357 280.938623 
L 394.682937 281.478385 
L 391.918095 281.478385 
L 390.360639 281.747056 
L 389.49618 282.018148 
L 388.806755 282.422364 
L 388.460257 282.826581 
L 388.113759 282.959706 
L 387.767261 282.826581 
L 387.249299 282.959706 
L 386.731338 283.363923 
L 386.38484 283.095252 
L 386.038342 283.903685 
L 386.213377 283.632594 
L 385.520381 283.632594 
L 384.830956 283.768139 
L 384.830956 283.768139 
L 385.002419 283.903685 
L 384.655921 284.307902 
L 384.13796 284.576572 
L 383.444963 284.441027 
L 382.927002 284.172356 
L 382.927002 284.307902 
L 382.755539 284.576572 
L 382.237578 284.845243 
L 380.851585 284.845243 
L 380.680122 284.576572 
L 380.851585 284.441027 
L 380.508659 284.576572 
L 379.987125 284.576572 
L 379.297701 284.441027 
L 378.77974 284.576572 
L 378.086743 284.980789 
L 377.91528 285.24946 
L 377.568782 285.24946 
L 377.050821 285.116335 
L 376.704323 284.845243 
L 376.53286 285.24946 
L 375.321902 285.789222 
L 375.146867 285.789222 
L 375.146867 285.653677 
L 375.146867 285.653677 
L 374.628905 285.653677 
L 374.803941 285.924768 
L 374.457442 286.057893 
L 374.457442 286.057893 
L 374.457442 286.193439 
L 374.110944 286.193439 
L 373.246485 285.924768 
L 372.55706 286.46211 
L 372.899986 286.057893 
L 372.728523 285.924768 
L 371.864064 286.46211 
L 370.999604 286.597655 
L 369.963682 286.326564 
L 369.963682 286.057893 
L 370.306608 285.924768 
L 370.135145 286.193439 
L 369.788647 286.46211 
L 369.099222 286.326564 
L 369.099222 287.001872 
L 368.924187 287.134997 
L 368.752724 287.001872 
L 369.099222 286.730781 
L 369.442149 286.730781 
L 369.270686 286.730781 
L 368.059728 286.326564 
L 367.716802 286.597655 
L 367.888265 287.270543 
L 367.716802 286.866326 
L 367.370304 286.057893 
L 366.852342 285.789222 
L 366.852342 286.46211 
L 367.195268 287.539214 
L 367.023805 287.539214 
L 365.987883 286.730781 
L 366.159346 286.866326 
L 365.641385 287.001872 
L 364.60189 287.001872 
L 365.123423 286.597655 
L 364.776925 286.597655 
L 364.258964 286.866326 
L 364.258964 286.866326 
L 364.776925 286.866326 
L 364.430427 287.001872 
L 364.083929 286.866326 
L 363.73743 286.866326 
L 363.565967 286.730781 
L 363.565967 286.730781 
L 363.565967 287.001872 
L 363.565967 287.001872 
L 363.048006 286.730781 
L 362.008511 286.730781 
L 362.008511 287.001872 
L 362.35501 287.270543 
L 362.35501 287.134997 
L 362.35501 286.866326 
L 362.35501 286.866326 
L 362.701508 286.866326 
L 363.048006 287.134997 
L 363.048006 287.406089 
L 362.183547 287.67476 
L 361.665585 287.67476 
L 361.319087 287.270543 
L 361.49055 287.539214 
L 362.008511 287.94343 
L 362.183547 287.810305 
L 361.837048 287.67476 
L 361.319087 287.810305 
L 360.626091 288.214522 
L 360.626091 287.94343 
L 360.454628 287.67476 
L 360.626091 287.810305 
L 360.801126 287.94343 
L 361.319087 287.94343 
L 361.147624 288.078976 
L 359.936666 288.483193 
L 359.590168 288.483193 
L 359.761631 288.751864 
L 359.418705 288.618738 
L 359.418705 288.347647 
L 359.936666 288.751864 
L 359.761631 289.020535 
L 359.24367 289.15608 
L 359.072207 289.15608 
L 358.725709 289.291626 
L 358.725709 289.424751 
L 359.936666 289.695842 
L 360.108129 289.964513 
L 359.761631 290.100059 
L 359.418705 289.964513 
L 359.072207 289.560297 
L 358.207747 289.291626 
L 358.032712 289.424751 
L 357.861249 289.828968 
L 358.37921 289.964513 
L 357.861249 290.504276 
L 357.689786 291.041617 
L 357.861249 290.908492 
L 357.861249 290.637401 
L 357.689786 290.504276 
L 357.514751 290.637401 
L 358.37921 290.637401 
L 358.897172 290.908492 
L 358.725709 291.041617 
L 358.207747 291.177163 
L 357.514751 290.908492 
L 357.514751 290.637401 
L 357.514751 290.637401 
L 357.689786 290.637401 
L 357.861249 290.772947 
L 357.689786 290.908492 
L 357.343288 290.908492 
L 356.99679 291.041617 
L 356.99679 291.312709 
L 356.825327 291.041617 
L 357.689786 290.772947 
L 357.168253 291.041617 
L 357.168253 291.445834 
L 357.168253 291.445834 
L 356.650292 291.58138 
L 356.650292 291.58138 
L 356.478828 291.445834 
L 356.478828 291.177163 
L 356.825327 291.312709 
L 356.650292 291.445834 
L 355.614369 291.714505 
L 355.614369 291.850051 
L 355.442906 291.850051 
L 355.614369 291.58138 
L 355.960867 291.445834 
L 356.303793 292.118722 
L 356.13233 291.850051 
L 355.614369 291.985596 
L 355.442906 291.58138 
L 355.096408 291.312709 
L 354.578446 291.177163 
L 354.74991 291.312709 
L 355.096408 291.58138 
L 355.096408 291.850051 
L 354.74991 292.254267 
L 354.921373 292.522938 
L 356.478828 291.985596 
L 358.207747 291.714505 
L 360.972589 292.389813 
L 363.048006 292.522938 
L 365.123423 292.389813 
L 369.270686 291.58138 
L 371.517566 291.445834 
L 373.246485 291.714505 
L 375.146867 291.850051 
L 377.050821 291.714505 
L 381.373118 291.177163 
L 382.580504 291.445834 
L 383.2735 291.445834 
L 383.791462 291.312709 
L 384.309423 291.041617 
L 383.791462 290.908492 
L 383.444963 291.041617 
L 382.755539 291.445834 
L 382.580504 291.58138 
L 382.580504 291.58138 
L 382.062543 290.908492 
L 381.373118 290.772947 
L 380.680122 290.772947 
L 380.508659 291.041617 
L 380.680122 291.312709 
L 380.680122 291.850051 
L 380.333624 291.850051 
L 379.987125 291.714505 
L 379.469164 292.254267 
L 378.604705 292.254267 
L 378.433242 292.522938 
L 378.77974 292.927155 
L 378.951203 292.79403 
L 378.604705 293.0627 
L 378.604705 293.331371 
L 378.77974 293.871134 
L 378.604705 294.006679 
L 377.568782 293.0627 
L 377.568782 292.927155 
L 377.740245 293.198246 
L 378.086743 293.331371 
L 377.91528 293.198246 
L 377.91528 292.927155 
L 377.397319 293.331371 
L 376.53286 293.735588 
L 376.53286 293.871134 
L 377.222284 293.735588 
L 377.568782 293.198246 
L 377.222284 293.0627 
L 377.050821 293.602463 
L 377.222284 294.006679 
L 377.050821 294.006679 
L 376.875786 293.735588 
L 376.53286 293.602463 
L 376.357824 293.735588 
L 376.357824 294.139805 
L 376.357824 293.466917 
L 376.186361 293.198246 
L 376.357824 293.466917 
L 375.6684 293.735588 
L 375.6684 293.602463 
L 375.839863 293.602463 
L 376.011326 293.871134 
L 376.011326 294.139805 
L 375.839863 294.408475 
L 375.839863 294.408475 
L 375.146867 293.871134 
L 374.975404 293.466917 
L 375.321902 292.927155 
L 375.493365 293.0627 
L 375.146867 293.602463 
L 375.146867 294.006679 
L 374.975404 294.006679 
L 374.282407 294.27535 
L 374.282407 294.544021 
L 374.110944 294.408475 
L 374.110944 294.139805 
L 374.457442 294.006679 
L 374.975404 294.139805 
L 374.975404 294.408475 
L 374.457442 295.083783 
L 373.939481 294.812692 
L 373.764446 294.812692 
L 373.764446 294.679567 
L 374.282407 294.408475 
L 374.282407 294.544021 
L 374.457442 294.679567 
L 374.282407 294.812692 
L 374.110944 294.679567 
L 373.592983 294.679567 
L 373.592983 295.083783 
L 373.764446 294.812692 
L 373.764446 294.812692 
L 373.764446 295.488 
L 373.764446 295.083783 
L 373.42152 294.948238 
L 373.075022 294.948238 
L 372.55706 295.216909 
L 372.55706 294.948238 
L 372.899986 294.679567 
L 373.075022 294.27535 
L 373.246485 294.27535 
L 373.075022 294.948238 
L 373.592983 294.544021 
L 373.246485 294.544021 
L 372.382025 294.679567 
L 372.899986 294.139805 
L 372.899986 294.408475 
L 372.899986 294.544021 
L 373.42152 293.735588 
L 373.939481 293.466917 
L 374.457442 293.466917 
L 374.628905 293.871134 
L 374.628905 294.27535 
L 374.282407 294.544021 
L 373.939481 294.544021 
L 373.42152 294.006679 
L 373.592983 293.735588 
L 374.110944 293.466917 
L 374.282407 293.0627 
L 374.110944 292.79403 
L 374.110944 292.522938 
L 374.282407 292.658484 
L 373.592983 293.0627 
L 373.42152 292.79403 
L 373.42152 291.445834 
L 373.764446 291.312709 
L 374.282407 291.985596 
L 374.975404 291.58138 
L 374.628905 291.714505 
L 374.282407 291.58138 
L 374.110944 291.177163 
L 374.110944 290.772947 
L 374.110944 290.772947 
L 374.282407 290.772947 
L 374.282407 290.637401 
L 373.764446 290.637401 
L 373.42152 290.772947 
L 373.592983 290.637401 
L 373.939481 289.964513 
L 374.628905 289.020535 
L 374.457442 288.751864 
L 374.457442 289.424751 
L 374.803941 289.560297 
L 374.975404 289.15608 
L 374.803941 288.751864 
L 374.457442 288.618738 
L 374.282407 288.214522 
L 374.457442 288.214522 
L 374.282407 288.214522 
L 373.592983 287.810305 
L 373.592983 287.94343 
L 374.628905 287.67476 
L 374.628905 287.67476 
L 374.457442 287.406089 
L 374.628905 287.001872 
L 374.975404 286.46211 
L 374.110944 286.46211 
L 373.939481 286.597655 
L 374.282407 286.730781 
L 374.282407 286.597655 
L 373.939481 286.193439 
L 374.282407 286.193439 
L 374.628905 285.924768 
L 374.628905 285.520551 
L 374.628905 285.653677 
L 374.975404 285.789222 
L 374.975404 285.653677 
L 374.110944 285.385006 
L 373.764446 285.385006 
L 373.764446 285.520551 
L 374.975404 285.520551 
L 375.146867 285.24946 
L 375.146867 284.845243 
L 374.803941 284.576572 
L 374.457442 284.576572 
L 373.592983 284.845243 
L 374.282407 284.576572 
L 374.628905 284.712118 
L 374.628905 284.845243 
L 374.282407 284.712118 
L 374.282407 284.576572 
L 374.457442 284.307902 
L 373.939481 284.307902 
L 373.592983 284.576572 
L 373.592983 284.441027 
L 373.42152 284.441027 
L 373.42152 284.172356 
L 373.42152 284.307902 
L 373.939481 283.768139 
L 373.764446 283.768139 
L 373.42152 284.03681 
L 373.246485 284.441027 
L 373.592983 284.712118 
L 373.939481 284.576572 
L 373.592983 283.903685 
L 373.42152 283.768139 
L 373.075022 284.172356 
L 373.246485 284.307902 
L 373.075022 284.172356 
L 372.55706 284.307902 
L 372.382025 284.307902 
L 372.382025 284.03681 
L 373.075022 284.441027 
L 373.246485 284.441027 
L 372.382025 283.095252 
L 371.864064 282.691035 
L 369.099222 281.882602 
L 367.195268 280.938623 
L 365.466349 279.728394 
L 361.49055 276.763332 
L 358.897172 275.01334 
L 355.960867 272.31937 
L 345.240855 263.024809 
L 341.783017 259.791076 
L 338.500215 256.291093 
L 335.560338 252.517598 
L 332.795496 247.93809 
L 330.030655 243.089911 
L 323.286442 233.255588 
L 316.717264 222.075489 
L 313.434462 216.150207 
L 309.801589 209.953833 
L 306.865284 203.757459 
L 304.443369 197.965301 
L 302.371524 192.308689 
L 300.642605 186.920748 
L 299.256612 181.665933 
L 297.702728 176.549083 
L 295.973809 171.429813 
L 295.10935 166.041872 
L 294.762851 160.653931 
L 294.24489 155.26599 
L 293.898392 150.282266 
L 293.726929 145.298541 
L 293.726929 134.926876 
L 296.320307 117.550404 
L 297.184767 113.779329 
L 299.256612 102.867902 
L 300.121071 100.038385 
L 301.332029 97.21129 
L 302.025025 94.650444 
L 302.196488 92.496236 
L 301.84999 90.475153 
L 301.84999 88.993833 
L 302.196488 87.243841 
L 302.025025 86.568533 
L 301.332029 86.299862 
L 300.642605 86.435408 
L 300.121071 86.97275 
L 299.949608 87.648058 
L 299.60311 88.320945 
L 298.567188 89.262504 
L 297.35623 90.070937 
L 296.663233 90.743824 
L 295.973809 91.148041 
L 295.455848 91.823349 
L 295.280813 92.631782 
L 294.937887 93.035999 
L 292.687434 94.381774 
L 291.99801 94.78599 
L 291.651512 94.78599 
L 291.651512 94.921536 
L 291.305013 95.054661 
L 290.097628 95.190207 
L 289.922593 95.190207 
L 289.576094 94.921536 
L 289.233168 94.921536 
L 288.711635 95.190207 
L 288.540172 95.054661 
L 288.540172 94.517319 
L 288.368709 94.246228 
L 288.368709 94.246228 
L 288.193674 94.381774 
L 287.847176 94.246228 
L 287.675712 93.977557 
L 287.329214 93.842011 
L 286.811253 94.517319 
L 286.293292 94.78599 
L 285.600295 94.650444 
L 285.600295 93.977557 
L 285.428832 94.113103 
L 285.77533 94.650444 
L 286.118257 94.921536 
L 285.77533 95.190207 
L 284.910871 95.190207 
L 284.217875 94.921536 
L 284.217875 95.054661 
L 283.699913 95.325752 
L 283.006917 96.535982 
L 282.663991 96.267311 
L 282.142457 96.131765 
L 281.624496 96.402857 
L 281.453033 95.99864 
L 281.624496 95.729969 
L 281.970994 95.99864 
L 281.799531 96.267311 
L 281.799531 96.535982 
L 281.624496 96.807073 
L 281.277998 96.807073 
L 279.895577 96.402857 
L 279.549079 96.131765 
L 280.413538 96.807073 
L 279.895577 96.940198 
L 277.995195 96.940198 
L 278.684619 97.21129 
L 278.684619 97.344415 
L 278.684619 97.075744 
L 278.859655 96.807073 
L 278.513156 96.402857 
L 278.166658 96.267311 
L 277.823732 95.863094 
L 278.341693 96.402857 
L 278.341693 96.807073 
L 277.995195 97.075744 
L 277.477234 97.21129 
L 277.130736 97.479961 
L 276.612774 97.479961 
L 276.094813 97.21129 
L 275.748315 96.671527 
L 275.919778 96.535982 
L 276.266276 96.671527 
L 276.437739 97.21129 
L 276.437739 97.075744 
L 276.612774 97.075744 
L 276.437739 97.21129 
L 276.266276 96.940198 
L 276.266276 96.671527 
L 276.266276 96.671527 
L 276.094813 96.671527 
L 275.401817 97.21129 
L 274.883855 96.940198 
L 274.883855 97.075744 
L 275.401817 97.344415 
L 275.748315 97.344415 
L 275.748315 96.940198 
L 276.094813 96.807073 
L 276.094813 96.940198 
L 275.748315 97.344415 
L 275.401817 97.479961 
L 275.401817 97.075744 
L 275.57328 96.535982 
L 275.748315 96.671527 
L 275.748315 97.075744 
L 275.57328 97.344415 
L 275.919778 96.940198 
L 275.748315 96.807073 
L 275.055318 97.479961 
L 274.70882 97.344415 
L 274.70882 96.940198 
L 275.055318 96.535982 
L 275.57328 96.402857 
L 275.055318 96.535982 
L 274.883855 96.807073 
L 274.70882 96.807073 
L 274.190859 96.267311 
L 274.190859 96.535982 
L 274.883855 96.940198 
L 275.230354 97.075744 
L 274.883855 97.075744 
L 274.537357 96.940198 
L 274.537357 96.535982 
L 273.844361 96.535982 
L 273.844361 96.671527 
L 274.190859 96.671527 
L 274.537357 96.402857 
L 274.537357 96.131765 
L 273.844361 96.131765 
L 272.979901 96.402857 
L 273.154936 96.402857 
L 273.501435 96.402857 
L 274.70882 97.21129 
L 274.883855 97.344415 
L 274.70882 97.21129 
L 274.365894 97.344415 
L 273.844361 96.940198 
L 273.326399 95.863094 
L 273.154936 95.863094 
L 272.979901 96.402857 
L 272.979901 96.807073 
L 273.501435 97.075744 
L 273.501435 96.807073 
L 273.326399 96.535982 
L 273.844361 96.267311 
L 273.672898 96.267311 
L 273.672898 96.267311 
L 273.672898 96.402857 
L 272.979901 96.535982 
L 272.979901 96.402857 
L 272.808438 96.267311 
L 272.119014 96.671527 
L 272.290477 96.267311 
L 272.808438 96.267311 
L 273.154936 96.671527 
L 273.154936 97.075744 
L 272.979901 97.21129 
L 272.808438 96.940198 
L 272.636975 96.940198 
L 272.290477 96.671527 
L 272.46194 96.535982 
L 272.290477 96.535982 
L 272.119014 96.535982 
L 271.772516 96.671527 
L 272.119014 96.807073 
L 272.290477 96.671527 
L 272.636975 96.671527 
L 272.979901 96.940198 
L 272.808438 96.940198 
L 272.290477 96.807073 
L 272.636975 96.807073 
L 272.290477 96.940198 
L 271.943979 96.807073 
L 271.943979 96.807073 
" style="fill:none;stroke:#1f77b4;stroke-linecap:square;stroke-width:1.5;"/>
   </g>
   <g id="matplotlib.axis_1">
    <g id="xtick_1">
     <g id="line2d_2">
      <defs>
       <path d="M 0 0 
L 0 3.5 
" id="me6101c5fb9" style="stroke:#000000;stroke-width:0.8;"/>
      </defs>
      <g>
       <use style="stroke:#000000;stroke-width:0.8;" x="97.069541" xlink:href="#me6101c5fb9" y="307.584"/>
      </g>
     </g>
     <g id="text_1">
      <!-- −600 -->
      <defs>
       <path d="M 10.59375 35.5 
L 73.1875 35.5 
L 73.1875 27.203125 
L 10.59375 27.203125 
z
" id="DejaVuSans-8722"/>
       <path d="M 33.015625 40.375 
Q 26.375 40.375 22.484375 35.828125 
Q 18.609375 31.296875 18.609375 23.390625 
Q 18.609375 15.53125 22.484375 10.953125 
Q 26.375 6.390625 33.015625 6.390625 
Q 39.65625 6.390625 43.53125 10.953125 
Q 47.40625 15.53125 47.40625 23.390625 
Q 47.40625 31.296875 43.53125 35.828125 
Q 39.65625 40.375 33.015625 40.375 
z
M 52.59375 71.296875 
L 52.59375 62.3125 
Q 48.875 64.0625 45.09375 64.984375 
Q 41.3125 65.921875 37.59375 65.921875 
Q 27.828125 65.921875 22.671875 59.328125 
Q 17.53125 52.734375 16.796875 39.40625 
Q 19.671875 43.65625 24.015625 45.921875 
Q 28.375 48.1875 33.59375 48.1875 
Q 44.578125 48.1875 50.953125 41.515625 
Q 57.328125 34.859375 57.328125 23.390625 
Q 57.328125 12.15625 50.6875 5.359375 
Q 44.046875 -1.421875 33.015625 -1.421875 
Q 20.359375 -1.421875 13.671875 8.265625 
Q 6.984375 17.96875 6.984375 36.375 
Q 6.984375 53.65625 15.1875 63.9375 
Q 23.390625 74.21875 37.203125 74.21875 
Q 40.921875 74.21875 44.703125 73.484375 
Q 48.484375 72.75 52.59375 71.296875 
z
" id="DejaVuSans-54"/>
       <path d="M 31.78125 66.40625 
Q 24.171875 66.40625 20.328125 58.90625 
Q 16.5 51.421875 16.5 36.375 
Q 16.5 21.390625 20.328125 13.890625 
Q 24.171875 6.390625 31.78125 6.390625 
Q 39.453125 6.390625 43.28125 13.890625 
Q 47.125 21.390625 47.125 36.375 
Q 47.125 51.421875 43.28125 58.90625 
Q 39.453125 66.40625 31.78125 66.40625 
z
M 31.78125 74.21875 
Q 44.046875 74.21875 50.515625 64.515625 
Q 56.984375 54.828125 56.984375 36.375 
Q 56.984375 17.96875 50.515625 8.265625 
Q 44.046875 -1.421875 31.78125 -1.421875 
Q 19.53125 -1.421875 13.0625 8.265625 
Q 6.59375 17.96875 6.59375 36.375 
Q 6.59375 54.828125 13.0625 64.515625 
Q 19.53125 74.21875 31.78125 74.21875 
z
" id="DejaVuSans-48"/>
      </defs>
      <g transform="translate(83.335947 322.182437)scale(0.1 -0.1)">
       <use xlink:href="#DejaVuSans-8722"/>
       <use x="83.789062" xlink:href="#DejaVuSans-54"/>
       <use x="147.412109" xlink:href="#DejaVuSans-48"/>
       <use x="211.035156" xlink:href="#DejaVuSans-48"/>
      </g>
     </g>
    </g>
    <g id="xtick_2">
     <g id="line2d_3">
      <g>
       <use style="stroke:#000000;stroke-width:0.8;" x="168.512473" xlink:href="#me6101c5fb9" y="307.584"/>
      </g>
     </g>
     <g id="text_2">
      <!-- −400 -->
      <defs>
       <path d="M 37.796875 64.3125 
L 12.890625 25.390625 
L 37.796875 25.390625 
z
M 35.203125 72.90625 
L 47.609375 72.90625 
L 47.609375 25.390625 
L 58.015625 25.390625 
L 58.015625 17.1875 
L 47.609375 17.1875 
L 47.609375 0 
L 37.796875 0 
L 37.796875 17.1875 
L 4.890625 17.1875 
L 4.890625 26.703125 
z
" id="DejaVuSans-52"/>
      </defs>
      <g transform="translate(154.77888 322.182437)scale(0.1 -0.1)">
       <use xlink:href="#DejaVuSans-8722"/>
       <use x="83.789062" xlink:href="#DejaVuSans-52"/>
       <use x="147.412109" xlink:href="#DejaVuSans-48"/>
       <use x="211.035156" xlink:href="#DejaVuSans-48"/>
      </g>
     </g>
    </g>
    <g id="xtick_3">
     <g id="line2d_4">
      <g>
       <use style="stroke:#000000;stroke-width:0.8;" x="239.955406" xlink:href="#me6101c5fb9" y="307.584"/>
      </g>
     </g>
     <g id="text_3">
      <!-- −200 -->
      <defs>
       <path d="M 19.1875 8.296875 
L 53.609375 8.296875 
L 53.609375 0 
L 7.328125 0 
L 7.328125 8.296875 
Q 12.9375 14.109375 22.625 23.890625 
Q 32.328125 33.6875 34.8125 36.53125 
Q 39.546875 41.84375 41.421875 45.53125 
Q 43.3125 49.21875 43.3125 52.78125 
Q 43.3125 58.59375 39.234375 62.25 
Q 35.15625 65.921875 28.609375 65.921875 
Q 23.96875 65.921875 18.8125 64.3125 
Q 13.671875 62.703125 7.8125 59.421875 
L 7.8125 69.390625 
Q 13.765625 71.78125 18.9375 73 
Q 24.125 74.21875 28.421875 74.21875 
Q 39.75 74.21875 46.484375 68.546875 
Q 53.21875 62.890625 53.21875 53.421875 
Q 53.21875 48.921875 51.53125 44.890625 
Q 49.859375 40.875 45.40625 35.40625 
Q 44.1875 33.984375 37.640625 27.21875 
Q 31.109375 20.453125 19.1875 8.296875 
z
" id="DejaVuSans-50"/>
      </defs>
      <g transform="translate(226.221812 322.182437)scale(0.1 -0.1)">
       <use xlink:href="#DejaVuSans-8722"/>
       <use x="83.789062" xlink:href="#DejaVuSans-50"/>
       <use x="147.412109" xlink:href="#DejaVuSans-48"/>
       <use x="211.035156" xlink:href="#DejaVuSans-48"/>
      </g>
     </g>
    </g>
    <g id="xtick_4">
     <g id="line2d_5">
      <g>
       <use style="stroke:#000000;stroke-width:0.8;" x="311.398338" xlink:href="#me6101c5fb9" y="307.584"/>
      </g>
     </g>
     <g id="text_4">
      <!-- 0 -->
      <g transform="translate(308.217088 322.182437)scale(0.1 -0.1)">
       <use xlink:href="#DejaVuSans-48"/>
      </g>
     </g>
    </g>
    <g id="xtick_5">
     <g id="line2d_6">
      <g>
       <use style="stroke:#000000;stroke-width:0.8;" x="382.841271" xlink:href="#me6101c5fb9" y="307.584"/>
      </g>
     </g>
     <g id="text_5">
      <!-- 200 -->
      <g transform="translate(373.297521 322.182437)scale(0.1 -0.1)">
       <use xlink:href="#DejaVuSans-50"/>
       <use x="63.623047" xlink:href="#DejaVuSans-48"/>
       <use x="127.246094" xlink:href="#DejaVuSans-48"/>
      </g>
     </g>
    </g>
   </g>
   <g id="matplotlib.axis_2">
    <g id="ytick_1">
     <g id="line2d_7">
      <defs>
       <path d="M 0 0 
L -3.5 0 
" id="m903570578b" style="stroke:#000000;stroke-width:0.8;"/>
      </defs>
      <g>
       <use style="stroke:#000000;stroke-width:0.8;" x="57.6" xlink:href="#m903570578b" y="280.645748"/>
      </g>
     </g>
     <g id="text_6">
      <!-- −200 -->
      <g transform="translate(23.132812 284.444966)scale(0.1 -0.1)">
       <use xlink:href="#DejaVuSans-8722"/>
       <use x="83.789062" xlink:href="#DejaVuSans-50"/>
       <use x="147.412109" xlink:href="#DejaVuSans-48"/>
       <use x="211.035156" xlink:href="#DejaVuSans-48"/>
      </g>
     </g>
    </g>
    <g id="ytick_2">
     <g id="line2d_8">
      <g>
       <use style="stroke:#000000;stroke-width:0.8;" x="57.6" xlink:href="#m903570578b" y="232.236575"/>
      </g>
     </g>
     <g id="text_7">
      <!-- 0 -->
      <g transform="translate(44.2375 236.035794)scale(0.1 -0.1)">
       <use xlink:href="#DejaVuSans-48"/>
      </g>
     </g>
    </g>
    <g id="ytick_3">
     <g id="line2d_9">
      <g>
       <use style="stroke:#000000;stroke-width:0.8;" x="57.6" xlink:href="#m903570578b" y="183.827402"/>
      </g>
     </g>
     <g id="text_8">
      <!-- 200 -->
      <g transform="translate(31.5125 187.626621)scale(0.1 -0.1)">
       <use xlink:href="#DejaVuSans-50"/>
       <use x="63.623047" xlink:href="#DejaVuSans-48"/>
       <use x="127.246094" xlink:href="#DejaVuSans-48"/>
      </g>
     </g>
    </g>
    <g id="ytick_4">
     <g id="line2d_10">
      <g>
       <use style="stroke:#000000;stroke-width:0.8;" x="57.6" xlink:href="#m903570578b" y="135.418229"/>
      </g>
     </g>
     <g id="text_9">
      <!-- 400 -->
      <g transform="translate(31.5125 139.217448)scale(0.1 -0.1)">
       <use xlink:href="#DejaVuSans-52"/>
       <use x="63.623047" xlink:href="#DejaVuSans-48"/>
       <use x="127.246094" xlink:href="#DejaVuSans-48"/>
      </g>
     </g>
    </g>
    <g id="ytick_5">
     <g id="line2d_11">
      <g>
       <use style="stroke:#000000;stroke-width:0.8;" x="57.6" xlink:href="#m903570578b" y="87.009057"/>
      </g>
     </g>
     <g id="text_10">
      <!-- 600 -->
      <g transform="translate(31.5125 90.808275)scale(0.1 -0.1)">
       <use xlink:href="#DejaVuSans-54"/>
       <use x="63.623047" xlink:href="#DejaVuSans-48"/>
       <use x="127.246094" xlink:href="#DejaVuSans-48"/>
      </g>
     </g>
    </g>
   </g>
   <g id="line2d_12">
    <path clip-path="url(#p97f915426e)" d="M 80.278984 60.164189 
L 249.144376 210.976687 
L 213.418243 250.414904 
L 123.057576 265.245202 
L 376.944565 283.361974 
L 369.152626 289.437767 
L 281.048318 96.811518 
" style="fill:none;stroke:#ff0000;stroke-linecap:square;stroke-width:0.5;"/>
   </g>
   <g id="patch_3">
    <path d="M 57.6 307.584 
L 57.6 41.472 
" style="fill:none;stroke:#000000;stroke-linecap:square;stroke-linejoin:miter;stroke-width:0.8;"/>
   </g>
   <g id="patch_4">
    <path d="M 414.72 307.584 
L 414.72 41.472 
" style="fill:none;stroke:#000000;stroke-linecap:square;stroke-linejoin:miter;stroke-width:0.8;"/>
   </g>
   <g id="patch_5">
    <path d="M 57.6 307.584 
L 414.72 307.584 
" style="fill:none;stroke:#000000;stroke-linecap:square;stroke-linejoin:miter;stroke-width:0.8;"/>
   </g>
   <g id="patch_6">
    <path d="M 57.6 41.472 
L 414.72 41.472 
" style="fill:none;stroke:#000000;stroke-linecap:square;stroke-linejoin:miter;stroke-width:0.8;"/>
   </g>
   <g id="PathCollection_1">
    <defs>
     <path d="M 0 2.738613 
C 0.726289 2.738613 1.422928 2.450055 1.936492 1.936492 
C 2.450055 1.422928 2.738613 0.726289 2.738613 0 
C 2.738613 -0.726289 2.450055 -1.422928 1.936492 -1.936492 
C 1.422928 -2.450055 0.726289 -2.738613 0 -2.738613 
C -0.726289 -2.738613 -1.422928 -2.450055 -1.936492 -1.936492 
C -2.450055 -1.422928 -2.738613 -0.726289 -2.738613 0 
C -2.738613 0.726289 -2.450055 1.422928 -1.936492 1.936492 
C -1.422928 2.450055 -0.726289 2.738613 0 2.738613 
z
" id="m6091ebe590" style="stroke:#ff0000;"/>
    </defs>
    <g clip-path="url(#p97f915426e)">
     <use style="fill:#ff0000;stroke:#ff0000;" x="80.278984" xlink:href="#m6091ebe590" y="60.164189"/>
     <use style="fill:#ff0000;stroke:#ff0000;" x="249.144376" xlink:href="#m6091ebe590" y="210.976687"/>
     <use style="fill:#ff0000;stroke:#ff0000;" x="213.418243" xlink:href="#m6091ebe590" y="250.414904"/>
     <use style="fill:#ff0000;stroke:#ff0000;" x="123.057576" xlink:href="#m6091ebe590" y="265.245202"/>
     <use style="fill:#ff0000;stroke:#ff0000;" x="376.944565" xlink:href="#m6091ebe590" y="283.361974"/>
     <use style="fill:#ff0000;stroke:#ff0000;" x="369.152626" xlink:href="#m6091ebe590" y="289.437767"/>
     <use style="fill:#ff0000;stroke:#ff0000;" x="281.048318" xlink:href="#m6091ebe590" y="96.811518"/>
    </g>
   </g>
   <g id="text_11">
    <!-- (15) Subject: s7, Known = False, Degree = 2, Duration = 0.1 -->
    <defs>
     <path d="M 31 75.875 
Q 24.46875 64.65625 21.28125 53.65625 
Q 18.109375 42.671875 18.109375 31.390625 
Q 18.109375 20.125 21.3125 9.0625 
Q 24.515625 -2 31 -13.1875 
L 23.1875 -13.1875 
Q 15.875 -1.703125 12.234375 9.375 
Q 8.59375 20.453125 8.59375 31.390625 
Q 8.59375 42.28125 12.203125 53.3125 
Q 15.828125 64.359375 23.1875 75.875 
z
" id="DejaVuSans-40"/>
     <path d="M 12.40625 8.296875 
L 28.515625 8.296875 
L 28.515625 63.921875 
L 10.984375 60.40625 
L 10.984375 69.390625 
L 28.421875 72.90625 
L 38.28125 72.90625 
L 38.28125 8.296875 
L 54.390625 8.296875 
L 54.390625 0 
L 12.40625 0 
z
" id="DejaVuSans-49"/>
     <path d="M 10.796875 72.90625 
L 49.515625 72.90625 
L 49.515625 64.59375 
L 19.828125 64.59375 
L 19.828125 46.734375 
Q 21.96875 47.46875 24.109375 47.828125 
Q 26.265625 48.1875 28.421875 48.1875 
Q 40.625 48.1875 47.75 41.5 
Q 54.890625 34.8125 54.890625 23.390625 
Q 54.890625 11.625 47.5625 5.09375 
Q 40.234375 -1.421875 26.90625 -1.421875 
Q 22.3125 -1.421875 17.546875 -0.640625 
Q 12.796875 0.140625 7.71875 1.703125 
L 7.71875 11.625 
Q 12.109375 9.234375 16.796875 8.0625 
Q 21.484375 6.890625 26.703125 6.890625 
Q 35.15625 6.890625 40.078125 11.328125 
Q 45.015625 15.765625 45.015625 23.390625 
Q 45.015625 31 40.078125 35.4375 
Q 35.15625 39.890625 26.703125 39.890625 
Q 22.75 39.890625 18.8125 39.015625 
Q 14.890625 38.140625 10.796875 36.28125 
z
" id="DejaVuSans-53"/>
     <path d="M 8.015625 75.875 
L 15.828125 75.875 
Q 23.140625 64.359375 26.78125 53.3125 
Q 30.421875 42.28125 30.421875 31.390625 
Q 30.421875 20.453125 26.78125 9.375 
Q 23.140625 -1.703125 15.828125 -13.1875 
L 8.015625 -13.1875 
Q 14.5 -2 17.703125 9.0625 
Q 20.90625 20.125 20.90625 31.390625 
Q 20.90625 42.671875 17.703125 53.65625 
Q 14.5 64.65625 8.015625 75.875 
z
" id="DejaVuSans-41"/>
     <path id="DejaVuSans-32"/>
     <path d="M 53.515625 70.515625 
L 53.515625 60.890625 
Q 47.90625 63.578125 42.921875 64.890625 
Q 37.9375 66.21875 33.296875 66.21875 
Q 25.25 66.21875 20.875 63.09375 
Q 16.5 59.96875 16.5 54.203125 
Q 16.5 49.359375 19.40625 46.890625 
Q 22.3125 44.4375 30.421875 42.921875 
L 36.375 41.703125 
Q 47.40625 39.59375 52.65625 34.296875 
Q 57.90625 29 57.90625 20.125 
Q 57.90625 9.515625 50.796875 4.046875 
Q 43.703125 -1.421875 29.984375 -1.421875 
Q 24.8125 -1.421875 18.96875 -0.25 
Q 13.140625 0.921875 6.890625 3.21875 
L 6.890625 13.375 
Q 12.890625 10.015625 18.65625 8.296875 
Q 24.421875 6.59375 29.984375 6.59375 
Q 38.421875 6.59375 43.015625 9.90625 
Q 47.609375 13.234375 47.609375 19.390625 
Q 47.609375 24.75 44.3125 27.78125 
Q 41.015625 30.8125 33.5 32.328125 
L 27.484375 33.5 
Q 16.453125 35.6875 11.515625 40.375 
Q 6.59375 45.0625 6.59375 53.421875 
Q 6.59375 63.09375 13.40625 68.65625 
Q 20.21875 74.21875 32.171875 74.21875 
Q 37.3125 74.21875 42.625 73.28125 
Q 47.953125 72.359375 53.515625 70.515625 
z
" id="DejaVuSans-83"/>
     <path d="M 8.5 21.578125 
L 8.5 54.6875 
L 17.484375 54.6875 
L 17.484375 21.921875 
Q 17.484375 14.15625 20.5 10.265625 
Q 23.53125 6.390625 29.59375 6.390625 
Q 36.859375 6.390625 41.078125 11.03125 
Q 45.3125 15.671875 45.3125 23.6875 
L 45.3125 54.6875 
L 54.296875 54.6875 
L 54.296875 0 
L 45.3125 0 
L 45.3125 8.40625 
Q 42.046875 3.421875 37.71875 1 
Q 33.40625 -1.421875 27.6875 -1.421875 
Q 18.265625 -1.421875 13.375 4.4375 
Q 8.5 10.296875 8.5 21.578125 
z
M 31.109375 56 
z
" id="DejaVuSans-117"/>
     <path d="M 48.6875 27.296875 
Q 48.6875 37.203125 44.609375 42.84375 
Q 40.53125 48.484375 33.40625 48.484375 
Q 26.265625 48.484375 22.1875 42.84375 
Q 18.109375 37.203125 18.109375 27.296875 
Q 18.109375 17.390625 22.1875 11.75 
Q 26.265625 6.109375 33.40625 6.109375 
Q 40.53125 6.109375 44.609375 11.75 
Q 48.6875 17.390625 48.6875 27.296875 
z
M 18.109375 46.390625 
Q 20.953125 51.265625 25.265625 53.625 
Q 29.59375 56 35.59375 56 
Q 45.5625 56 51.78125 48.09375 
Q 58.015625 40.1875 58.015625 27.296875 
Q 58.015625 14.40625 51.78125 6.484375 
Q 45.5625 -1.421875 35.59375 -1.421875 
Q 29.59375 -1.421875 25.265625 0.953125 
Q 20.953125 3.328125 18.109375 8.203125 
L 18.109375 0 
L 9.078125 0 
L 9.078125 75.984375 
L 18.109375 75.984375 
z
" id="DejaVuSans-98"/>
     <path d="M 9.421875 54.6875 
L 18.40625 54.6875 
L 18.40625 -0.984375 
Q 18.40625 -11.421875 14.421875 -16.109375 
Q 10.453125 -20.796875 1.609375 -20.796875 
L -1.8125 -20.796875 
L -1.8125 -13.1875 
L 0.59375 -13.1875 
Q 5.71875 -13.1875 7.5625 -10.8125 
Q 9.421875 -8.453125 9.421875 -0.984375 
z
M 9.421875 75.984375 
L 18.40625 75.984375 
L 18.40625 64.59375 
L 9.421875 64.59375 
z
" id="DejaVuSans-106"/>
     <path d="M 56.203125 29.59375 
L 56.203125 25.203125 
L 14.890625 25.203125 
Q 15.484375 15.921875 20.484375 11.0625 
Q 25.484375 6.203125 34.421875 6.203125 
Q 39.59375 6.203125 44.453125 7.46875 
Q 49.3125 8.734375 54.109375 11.28125 
L 54.109375 2.78125 
Q 49.265625 0.734375 44.1875 -0.34375 
Q 39.109375 -1.421875 33.890625 -1.421875 
Q 20.796875 -1.421875 13.15625 6.1875 
Q 5.515625 13.8125 5.515625 26.8125 
Q 5.515625 40.234375 12.765625 48.109375 
Q 20.015625 56 32.328125 56 
Q 43.359375 56 49.78125 48.890625 
Q 56.203125 41.796875 56.203125 29.59375 
z
M 47.21875 32.234375 
Q 47.125 39.59375 43.09375 43.984375 
Q 39.0625 48.390625 32.421875 48.390625 
Q 24.90625 48.390625 20.390625 44.140625 
Q 15.875 39.890625 15.1875 32.171875 
z
" id="DejaVuSans-101"/>
     <path d="M 48.78125 52.59375 
L 48.78125 44.1875 
Q 44.96875 46.296875 41.140625 47.34375 
Q 37.3125 48.390625 33.40625 48.390625 
Q 24.65625 48.390625 19.8125 42.84375 
Q 14.984375 37.3125 14.984375 27.296875 
Q 14.984375 17.28125 19.8125 11.734375 
Q 24.65625 6.203125 33.40625 6.203125 
Q 37.3125 6.203125 41.140625 7.25 
Q 44.96875 8.296875 48.78125 10.40625 
L 48.78125 2.09375 
Q 45.015625 0.34375 40.984375 -0.53125 
Q 36.96875 -1.421875 32.421875 -1.421875 
Q 20.0625 -1.421875 12.78125 6.34375 
Q 5.515625 14.109375 5.515625 27.296875 
Q 5.515625 40.671875 12.859375 48.328125 
Q 20.21875 56 33.015625 56 
Q 37.15625 56 41.109375 55.140625 
Q 45.0625 54.296875 48.78125 52.59375 
z
" id="DejaVuSans-99"/>
     <path d="M 18.3125 70.21875 
L 18.3125 54.6875 
L 36.8125 54.6875 
L 36.8125 47.703125 
L 18.3125 47.703125 
L 18.3125 18.015625 
Q 18.3125 11.328125 20.140625 9.421875 
Q 21.96875 7.515625 27.59375 7.515625 
L 36.8125 7.515625 
L 36.8125 0 
L 27.59375 0 
Q 17.1875 0 13.234375 3.875 
Q 9.28125 7.765625 9.28125 18.015625 
L 9.28125 47.703125 
L 2.6875 47.703125 
L 2.6875 54.6875 
L 9.28125 54.6875 
L 9.28125 70.21875 
z
" id="DejaVuSans-116"/>
     <path d="M 11.71875 12.40625 
L 22.015625 12.40625 
L 22.015625 0 
L 11.71875 0 
z
M 11.71875 51.703125 
L 22.015625 51.703125 
L 22.015625 39.3125 
L 11.71875 39.3125 
z
" id="DejaVuSans-58"/>
     <path d="M 44.28125 53.078125 
L 44.28125 44.578125 
Q 40.484375 46.53125 36.375 47.5 
Q 32.28125 48.484375 27.875 48.484375 
Q 21.1875 48.484375 17.84375 46.4375 
Q 14.5 44.390625 14.5 40.28125 
Q 14.5 37.15625 16.890625 35.375 
Q 19.28125 33.59375 26.515625 31.984375 
L 29.59375 31.296875 
Q 39.15625 29.25 43.1875 25.515625 
Q 47.21875 21.78125 47.21875 15.09375 
Q 47.21875 7.46875 41.1875 3.015625 
Q 35.15625 -1.421875 24.609375 -1.421875 
Q 20.21875 -1.421875 15.453125 -0.5625 
Q 10.6875 0.296875 5.421875 2 
L 5.421875 11.28125 
Q 10.40625 8.6875 15.234375 7.390625 
Q 20.0625 6.109375 24.8125 6.109375 
Q 31.15625 6.109375 34.5625 8.28125 
Q 37.984375 10.453125 37.984375 14.40625 
Q 37.984375 18.0625 35.515625 20.015625 
Q 33.0625 21.96875 24.703125 23.78125 
L 21.578125 24.515625 
Q 13.234375 26.265625 9.515625 29.90625 
Q 5.8125 33.546875 5.8125 39.890625 
Q 5.8125 47.609375 11.28125 51.796875 
Q 16.75 56 26.8125 56 
Q 31.78125 56 36.171875 55.265625 
Q 40.578125 54.546875 44.28125 53.078125 
z
" id="DejaVuSans-115"/>
     <path d="M 8.203125 72.90625 
L 55.078125 72.90625 
L 55.078125 68.703125 
L 28.609375 0 
L 18.3125 0 
L 43.21875 64.59375 
L 8.203125 64.59375 
z
" id="DejaVuSans-55"/>
     <path d="M 11.71875 12.40625 
L 22.015625 12.40625 
L 22.015625 4 
L 14.015625 -11.625 
L 7.71875 -11.625 
L 11.71875 4 
z
" id="DejaVuSans-44"/>
     <path d="M 9.8125 72.90625 
L 19.671875 72.90625 
L 19.671875 42.09375 
L 52.390625 72.90625 
L 65.09375 72.90625 
L 28.90625 38.921875 
L 67.671875 0 
L 54.6875 0 
L 19.671875 35.109375 
L 19.671875 0 
L 9.8125 0 
z
" id="DejaVuSans-75"/>
     <path d="M 54.890625 33.015625 
L 54.890625 0 
L 45.90625 0 
L 45.90625 32.71875 
Q 45.90625 40.484375 42.875 44.328125 
Q 39.84375 48.1875 33.796875 48.1875 
Q 26.515625 48.1875 22.3125 43.546875 
Q 18.109375 38.921875 18.109375 30.90625 
L 18.109375 0 
L 9.078125 0 
L 9.078125 54.6875 
L 18.109375 54.6875 
L 18.109375 46.1875 
Q 21.34375 51.125 25.703125 53.5625 
Q 30.078125 56 35.796875 56 
Q 45.21875 56 50.046875 50.171875 
Q 54.890625 44.34375 54.890625 33.015625 
z
" id="DejaVuSans-110"/>
     <path d="M 30.609375 48.390625 
Q 23.390625 48.390625 19.1875 42.75 
Q 14.984375 37.109375 14.984375 27.296875 
Q 14.984375 17.484375 19.15625 11.84375 
Q 23.34375 6.203125 30.609375 6.203125 
Q 37.796875 6.203125 41.984375 11.859375 
Q 46.1875 17.53125 46.1875 27.296875 
Q 46.1875 37.015625 41.984375 42.703125 
Q 37.796875 48.390625 30.609375 48.390625 
z
M 30.609375 56 
Q 42.328125 56 49.015625 48.375 
Q 55.71875 40.765625 55.71875 27.296875 
Q 55.71875 13.875 49.015625 6.21875 
Q 42.328125 -1.421875 30.609375 -1.421875 
Q 18.84375 -1.421875 12.171875 6.21875 
Q 5.515625 13.875 5.515625 27.296875 
Q 5.515625 40.765625 12.171875 48.375 
Q 18.84375 56 30.609375 56 
z
" id="DejaVuSans-111"/>
     <path d="M 4.203125 54.6875 
L 13.1875 54.6875 
L 24.421875 12.015625 
L 35.59375 54.6875 
L 46.1875 54.6875 
L 57.421875 12.015625 
L 68.609375 54.6875 
L 77.59375 54.6875 
L 63.28125 0 
L 52.6875 0 
L 40.921875 44.828125 
L 29.109375 0 
L 18.5 0 
z
" id="DejaVuSans-119"/>
     <path d="M 10.59375 45.40625 
L 73.1875 45.40625 
L 73.1875 37.203125 
L 10.59375 37.203125 
z
M 10.59375 25.484375 
L 73.1875 25.484375 
L 73.1875 17.1875 
L 10.59375 17.1875 
z
" id="DejaVuSans-61"/>
     <path d="M 9.8125 72.90625 
L 51.703125 72.90625 
L 51.703125 64.59375 
L 19.671875 64.59375 
L 19.671875 43.109375 
L 48.578125 43.109375 
L 48.578125 34.8125 
L 19.671875 34.8125 
L 19.671875 0 
L 9.8125 0 
z
" id="DejaVuSans-70"/>
     <path d="M 34.28125 27.484375 
Q 23.390625 27.484375 19.1875 25 
Q 14.984375 22.515625 14.984375 16.5 
Q 14.984375 11.71875 18.140625 8.90625 
Q 21.296875 6.109375 26.703125 6.109375 
Q 34.1875 6.109375 38.703125 11.40625 
Q 43.21875 16.703125 43.21875 25.484375 
L 43.21875 27.484375 
z
M 52.203125 31.203125 
L 52.203125 0 
L 43.21875 0 
L 43.21875 8.296875 
Q 40.140625 3.328125 35.546875 0.953125 
Q 30.953125 -1.421875 24.3125 -1.421875 
Q 15.921875 -1.421875 10.953125 3.296875 
Q 6 8.015625 6 15.921875 
Q 6 25.140625 12.171875 29.828125 
Q 18.359375 34.515625 30.609375 34.515625 
L 43.21875 34.515625 
L 43.21875 35.40625 
Q 43.21875 41.609375 39.140625 45 
Q 35.0625 48.390625 27.6875 48.390625 
Q 23 48.390625 18.546875 47.265625 
Q 14.109375 46.140625 10.015625 43.890625 
L 10.015625 52.203125 
Q 14.9375 54.109375 19.578125 55.046875 
Q 24.21875 56 28.609375 56 
Q 40.484375 56 46.34375 49.84375 
Q 52.203125 43.703125 52.203125 31.203125 
z
" id="DejaVuSans-97"/>
     <path d="M 9.421875 75.984375 
L 18.40625 75.984375 
L 18.40625 0 
L 9.421875 0 
z
" id="DejaVuSans-108"/>
     <path d="M 19.671875 64.796875 
L 19.671875 8.109375 
L 31.59375 8.109375 
Q 46.6875 8.109375 53.6875 14.9375 
Q 60.6875 21.78125 60.6875 36.53125 
Q 60.6875 51.171875 53.6875 57.984375 
Q 46.6875 64.796875 31.59375 64.796875 
z
M 9.8125 72.90625 
L 30.078125 72.90625 
Q 51.265625 72.90625 61.171875 64.09375 
Q 71.09375 55.28125 71.09375 36.53125 
Q 71.09375 17.671875 61.125 8.828125 
Q 51.171875 0 30.078125 0 
L 9.8125 0 
z
" id="DejaVuSans-68"/>
     <path d="M 45.40625 27.984375 
Q 45.40625 37.75 41.375 43.109375 
Q 37.359375 48.484375 30.078125 48.484375 
Q 22.859375 48.484375 18.828125 43.109375 
Q 14.796875 37.75 14.796875 27.984375 
Q 14.796875 18.265625 18.828125 12.890625 
Q 22.859375 7.515625 30.078125 7.515625 
Q 37.359375 7.515625 41.375 12.890625 
Q 45.40625 18.265625 45.40625 27.984375 
z
M 54.390625 6.78125 
Q 54.390625 -7.171875 48.1875 -13.984375 
Q 42 -20.796875 29.203125 -20.796875 
Q 24.46875 -20.796875 20.265625 -20.09375 
Q 16.0625 -19.390625 12.109375 -17.921875 
L 12.109375 -9.1875 
Q 16.0625 -11.328125 19.921875 -12.34375 
Q 23.78125 -13.375 27.78125 -13.375 
Q 36.625 -13.375 41.015625 -8.765625 
Q 45.40625 -4.15625 45.40625 5.171875 
L 45.40625 9.625 
Q 42.625 4.78125 38.28125 2.390625 
Q 33.9375 0 27.875 0 
Q 17.828125 0 11.671875 7.65625 
Q 5.515625 15.328125 5.515625 27.984375 
Q 5.515625 40.671875 11.671875 48.328125 
Q 17.828125 56 27.875 56 
Q 33.9375 56 38.28125 53.609375 
Q 42.625 51.21875 45.40625 46.390625 
L 45.40625 54.6875 
L 54.390625 54.6875 
z
" id="DejaVuSans-103"/>
     <path d="M 41.109375 46.296875 
Q 39.59375 47.171875 37.8125 47.578125 
Q 36.03125 48 33.890625 48 
Q 26.265625 48 22.1875 43.046875 
Q 18.109375 38.09375 18.109375 28.8125 
L 18.109375 0 
L 9.078125 0 
L 9.078125 54.6875 
L 18.109375 54.6875 
L 18.109375 46.1875 
Q 20.953125 51.171875 25.484375 53.578125 
Q 30.03125 56 36.53125 56 
Q 37.453125 56 38.578125 55.875 
Q 39.703125 55.765625 41.0625 55.515625 
z
" id="DejaVuSans-114"/>
     <path d="M 9.421875 54.6875 
L 18.40625 54.6875 
L 18.40625 0 
L 9.421875 0 
z
M 9.421875 75.984375 
L 18.40625 75.984375 
L 18.40625 64.59375 
L 9.421875 64.59375 
z
" id="DejaVuSans-105"/>
     <path d="M 10.6875 12.40625 
L 21 12.40625 
L 21 0 
L 10.6875 0 
z
" id="DejaVuSans-46"/>
    </defs>
    <g transform="translate(53.559375 35.472)scale(0.12 -0.12)">
     <use xlink:href="#DejaVuSans-40"/>
     <use x="39.013672" xlink:href="#DejaVuSans-49"/>
     <use x="102.636719" xlink:href="#DejaVuSans-53"/>
     <use x="166.259766" xlink:href="#DejaVuSans-41"/>
     <use x="205.273438" xlink:href="#DejaVuSans-32"/>
     <use x="237.060547" xlink:href="#DejaVuSans-83"/>
     <use x="300.537109" xlink:href="#DejaVuSans-117"/>
     <use x="363.916016" xlink:href="#DejaVuSans-98"/>
     <use x="427.392578" xlink:href="#DejaVuSans-106"/>
     <use x="455.175781" xlink:href="#DejaVuSans-101"/>
     <use x="516.699219" xlink:href="#DejaVuSans-99"/>
     <use x="571.679688" xlink:href="#DejaVuSans-116"/>
     <use x="610.888672" xlink:href="#DejaVuSans-58"/>
     <use x="644.580078" xlink:href="#DejaVuSans-32"/>
     <use x="676.367188" xlink:href="#DejaVuSans-115"/>
     <use x="728.466797" xlink:href="#DejaVuSans-55"/>
     <use x="792.089844" xlink:href="#DejaVuSans-44"/>
     <use x="823.876953" xlink:href="#DejaVuSans-32"/>
     <use x="855.664062" xlink:href="#DejaVuSans-75"/>
     <use x="921.240234" xlink:href="#DejaVuSans-110"/>
     <use x="984.619141" xlink:href="#DejaVuSans-111"/>
     <use x="1045.800781" xlink:href="#DejaVuSans-119"/>
     <use x="1127.587891" xlink:href="#DejaVuSans-110"/>
     <use x="1190.966797" xlink:href="#DejaVuSans-32"/>
     <use x="1222.753906" xlink:href="#DejaVuSans-61"/>
     <use x="1306.542969" xlink:href="#DejaVuSans-32"/>
     <use x="1338.330078" xlink:href="#DejaVuSans-70"/>
     <use x="1395.708984" xlink:href="#DejaVuSans-97"/>
     <use x="1456.988281" xlink:href="#DejaVuSans-108"/>
     <use x="1484.771484" xlink:href="#DejaVuSans-115"/>
     <use x="1536.871094" xlink:href="#DejaVuSans-101"/>
     <use x="1598.394531" xlink:href="#DejaVuSans-44"/>
     <use x="1630.181641" xlink:href="#DejaVuSans-32"/>
     <use x="1661.96875" xlink:href="#DejaVuSans-68"/>
     <use x="1738.970703" xlink:href="#DejaVuSans-101"/>
     <use x="1800.494141" xlink:href="#DejaVuSans-103"/>
     <use x="1863.970703" xlink:href="#DejaVuSans-114"/>
     <use x="1905.052734" xlink:href="#DejaVuSans-101"/>
     <use x="1966.576172" xlink:href="#DejaVuSans-101"/>
     <use x="2028.099609" xlink:href="#DejaVuSans-32"/>
     <use x="2059.886719" xlink:href="#DejaVuSans-61"/>
     <use x="2143.675781" xlink:href="#DejaVuSans-32"/>
     <use x="2175.462891" xlink:href="#DejaVuSans-50"/>
     <use x="2239.085938" xlink:href="#DejaVuSans-44"/>
     <use x="2270.873047" xlink:href="#DejaVuSans-32"/>
     <use x="2302.660156" xlink:href="#DejaVuSans-68"/>
     <use x="2379.662109" xlink:href="#DejaVuSans-117"/>
     <use x="2443.041016" xlink:href="#DejaVuSans-114"/>
     <use x="2484.154297" xlink:href="#DejaVuSans-97"/>
     <use x="2545.433594" xlink:href="#DejaVuSans-116"/>
     <use x="2584.642578" xlink:href="#DejaVuSans-105"/>
     <use x="2612.425781" xlink:href="#DejaVuSans-111"/>
     <use x="2673.607422" xlink:href="#DejaVuSans-110"/>
     <use x="2736.986328" xlink:href="#DejaVuSans-32"/>
     <use x="2768.773438" xlink:href="#DejaVuSans-61"/>
     <use x="2852.5625" xlink:href="#DejaVuSans-32"/>
     <use x="2884.349609" xlink:href="#DejaVuSans-48"/>
     <use x="2947.972656" xlink:href="#DejaVuSans-46"/>
     <use x="2979.759766" xlink:href="#DejaVuSans-49"/>
    </g>
   </g>
  </g>
 </g>
 <defs>
  <clipPath id="p97f915426e">
   <rect height="266.112" width="357.12" x="57.6" y="41.472"/>
  </clipPath>
 </defs>
</svg>
