<?xml version="1.0" encoding="utf-8" standalone="no"?>
<!DOCTYPE svg PUBLIC "-//W3C//DTD SVG 1.1//EN"
  "http://www.w3.org/Graphics/SVG/1.1/DTD/svg11.dtd">
<!-- Created with matplotlib (https://matplotlib.org/) -->
<svg height="345.6pt" version="1.1" viewBox="0 0 460.8 345.6" width="460.8pt" xmlns="http://www.w3.org/2000/svg" xmlns:xlink="http://www.w3.org/1999/xlink">
 <defs>
  <style type="text/css">
*{stroke-linecap:butt;stroke-linejoin:round;}
  </style>
 </defs>
 <g id="figure_1">
  <g id="patch_1">
   <path d="M 0 345.6 
L 460.8 345.6 
L 460.8 0 
L 0 0 
z
" style="fill:#ffffff;"/>
  </g>
  <g id="axes_1">
   <g id="patch_2">
    <path d="M 57.6 307.584 
L 414.72 307.584 
L 414.72 41.472 
L 57.6 41.472 
z
" style="fill:#ffffff;"/>
   </g>
   <g id="line2d_1">
    <path clip-path="url(#p4fe567c626)" d="M 398.253135 293.632006 
L 398.136066 293.897622 
L 398.018997 293.632006 
L 398.018997 292.838477 
L 398.136066 292.838477 
L 398.253135 294.163239 
L 398.253135 293.632006 
L 398.136066 293.632006 
L 398.136066 293.632006 
L 398.136066 293.36971 
L 398.370204 293.104094 
L 398.370204 293.36971 
L 398.487273 293.632006 
L 398.370204 293.632006 
L 397.784859 293.104094 
L 397.66779 293.104094 
L 397.901928 293.104094 
L 397.901928 292.572861 
L 397.901928 293.104094 
L 398.018997 293.36971 
L 397.784859 293.897622 
L 397.784859 293.897622 
L 397.66779 293.36971 
L 397.66779 293.36971 
L 398.018997 292.838477 
L 397.784859 293.36971 
L 397.901928 293.632006 
L 398.136066 293.632006 
L 398.018997 293.36971 
L 397.66779 293.104094 
L 397.433652 293.632006 
L 398.018997 292.307245 
L 397.66779 293.36971 
L 397.784859 294.163239 
L 398.018997 294.428855 
L 397.901928 294.163239 
L 398.136066 293.632006 
L 398.018997 293.104094 
L 398.018997 293.104094 
L 397.901928 293.104094 
L 397.784859 293.36971 
L 397.66779 293.104094 
L 397.784859 293.104094 
L 397.901928 293.104094 
L 397.784859 293.36971 
L 397.550721 293.36971 
L 397.550721 293.36971 
L 397.784859 293.632006 
L 397.901928 293.36971 
L 397.784859 293.36971 
L 397.550721 293.36971 
L 397.550721 293.632006 
L 397.784859 294.428855 
L 397.784859 294.428855 
L 397.550721 294.163239 
L 397.199513 294.694471 
L 397.199513 294.428855 
L 397.433652 293.897622 
L 397.66779 294.163239 
L 397.784859 293.897622 
L 397.784859 293.36971 
L 397.550721 293.36971 
L 397.550721 293.897622 
L 397.66779 294.163239 
L 397.66779 293.897622 
L 398.136066 292.838477 
L 398.370204 292.838477 
L 398.136066 292.838477 
L 397.784859 293.104094 
L 397.550721 293.104094 
L 397.901928 292.572861 
L 397.901928 293.36971 
L 397.784859 293.897622 
L 398.136066 292.838477 
L 398.253135 293.104094 
L 398.136066 293.104094 
L 397.784859 293.632006 
L 397.316583 292.572861 
L 397.66779 293.632006 
L 397.901928 293.36971 
L 397.901928 293.104094 
L 397.784859 293.36971 
L 397.66779 294.163239 
L 397.784859 294.163239 
L 397.784859 293.897622 
L 397.550721 293.632006 
L 397.082444 294.428855 
L 397.784859 293.36971 
L 397.901928 293.36971 
L 397.66779 293.897622 
L 397.784859 294.163239 
L 397.550721 293.36971 
L 398.136066 293.897622 
L 398.253135 294.163239 
L 398.136066 294.163239 
L 397.550721 294.694471 
L 397.433652 295.222384 
L 397.433652 294.694471 
L 397.784859 292.838477 
L 397.784859 292.572861 
L 397.784859 294.694471 
L 397.901928 295.488 
L 397.66779 295.488 
L 397.433652 294.694471 
L 397.433652 293.632006 
L 397.66779 293.104094 
L 397.901928 293.104094 
L 397.901928 293.104094 
L 397.550721 293.897622 
L 397.66779 293.897622 
L 397.901928 294.163239 
L 397.784859 294.163239 
L 398.018997 294.163239 
L 397.901928 294.163239 
L 397.66779 293.632006 
L 397.199513 293.897622 
L 397.316583 293.36971 
L 397.550721 293.104094 
L 397.784859 293.36971 
L 397.784859 293.632006 
L 397.66779 293.897622 
L 397.316583 293.897622 
L 397.316583 293.632006 
L 397.433652 293.104094 
L 397.433652 293.36971 
L 397.082444 295.488 
L 397.316583 293.897622 
L 397.316583 293.104094 
L 397.433652 292.838477 
L 397.66779 293.104094 
L 397.901928 293.632006 
L 397.784859 294.163239 
L 397.784859 294.694471 
L 398.018997 295.222384 
L 397.784859 294.694471 
L 397.433652 294.694471 
L 397.550721 294.956767 
L 397.784859 294.956767 
L 397.901928 295.222384 
L 397.66779 294.694471 
L 397.550721 293.632006 
L 397.66779 293.36971 
L 397.66779 293.632006 
L 398.253135 294.956767 
L 398.018997 294.956767 
L 397.66779 294.694471 
L 397.433652 294.694471 
L 397.66779 295.222384 
L 398.136066 295.222384 
L 398.253135 294.694471 
L 398.136066 294.163239 
L 398.018997 294.163239 
L 398.018997 294.694471 
L 398.136066 294.694471 
L 398.136066 294.163239 
L 398.253135 293.36971 
L 398.253135 293.36971 
L 397.901928 292.838477 
L 397.199513 292.044949 
L 396.266125 291.2481 
L 394.978366 289.657722 
L 393.459633 287.0082 
L 391.469459 283.830765 
L 388.897105 280.384394 
L 385.622336 276.675726 
L 381.762223 273.229355 
L 377.319928 270.05192 
L 372.172055 265.546403 
L 366.55907 259.981742 
L 342.116957 234.545662 
L 329.486159 219.442055 
L 316.504153 204.604065 
L 310.188754 197.18341 
L 303.873355 190.293987 
L 297.440887 183.670181 
L 285.044227 170.422568 
L 272.413428 157.702868 
L 259.899699 144.720872 
L 253.818438 139.418506 
L 247.737177 134.385078 
L 241.772985 129.879561 
L 236.042931 125.377365 
L 230.195808 121.137465 
L 224.465754 117.163181 
L 218.969838 113.188897 
L 213.587827 109.47691 
L 208.443118 105.768242 
L 198.267605 100.469197 
L 193.474103 97.554058 
L 189.028645 94.373303 
L 184.937557 91.195868 
L 181.077443 88.808642 
L 177.334399 86.690352 
L 161.545901 77.151407 
L 158.973546 75.295413 
L 156.752399 73.177123 
L 155.113433 71.321129 
L 153.942742 69.202839 
L 152.541078 65.756468 
L 152.072802 64.431706 
L 151.838664 63.106945 
L 151.955733 62.0478 
L 152.892285 60.988655 
L 153.828837 60.457423 
L 154.411019 60.457423 
L 155.113433 60.723039 
L 155.581709 61.516568 
L 156.284123 63.372561 
L 156.167054 63.106945 
L 156.049985 62.0478 
L 156.167054 63.372561 
L 156.167054 64.697323 
L 156.049985 64.962939 
L 155.815847 64.431706 
L 155.230502 63.903794 
L 154.879295 63.903794 
L 154.762226 64.431706 
L 154.528088 64.962939 
L 153.711768 65.494172 
L 153.711768 65.494172 
L 153.711768 64.962939 
L 153.47763 65.494172 
L 153.243492 65.494172 
L 153.360561 64.431706 
L 153.711768 62.579033 
L 153.711768 61.782184 
L 153.594699 62.579033 
L 153.942742 61.782184 
L 153.711768 61.516568 
L 153.594699 61.782184 
L 153.594699 63.638178 
L 153.47763 63.372561 
L 153.47763 60.988655 
L 153.47763 61.254271 
L 153.594699 61.516568 
L 153.47763 62.0478 
L 153.360561 62.0478 
L 153.360561 61.516568 
L 153.243492 61.254271 
L 153.126423 61.782184 
L 153.126423 62.313416 
L 153.360561 62.844649 
L 153.126423 62.579033 
L 152.892285 62.579033 
L 152.892285 62.579033 
L 152.892285 62.0478 
L 152.775216 61.782184 
L 153.126423 62.313416 
L 153.47763 62.313416 
L 153.360561 62.313416 
L 153.009354 62.0478 
L 152.892285 61.516568 
L 152.892285 61.782184 
L 152.775216 62.0478 
L 152.658147 61.516568 
L 152.775216 61.516568 
L 152.424009 60.723039 
L 152.541078 60.723039 
L 153.009354 60.988655 
L 153.360561 60.988655 
L 153.360561 60.988655 
L 153.360561 60.723039 
L 153.126423 60.457423 
L 152.892285 60.988655 
L 152.775216 60.191806 
L 152.775216 59.398278 
L 152.658147 60.191806 
L 152.892285 61.254271 
L 153.126423 61.516568 
L 153.360561 60.988655 
L 153.126423 60.988655 
L 152.892285 61.254271 
L 152.658147 60.988655 
L 152.658147 59.663894 
L 152.892285 59.398278 
L 153.126423 59.663894 
L 153.126423 59.398278 
L 152.775216 59.398278 
L 152.658147 59.663894 
L 153.243492 60.191806 
L 153.126423 60.191806 
L 153.009354 59.663894 
L 153.126423 59.132661 
L 153.360561 59.132661 
L 153.711768 59.92951 
L 153.47763 59.663894 
L 152.892285 59.132661 
L 152.424009 59.92951 
L 152.30694 59.663894 
L 152.30694 58.867045 
L 152.424009 58.339133 
L 152.775216 58.604749 
L 153.009354 58.073516 
L 153.009354 58.073516 
L 153.009354 57.014371 
L 152.892285 57.014371 
L 152.541078 57.542284 
L 152.775216 56.748755 
L 152.775216 57.279988 
L 152.424009 57.8079 
L 152.775216 56.217523 
L 152.658147 56.748755 
L 152.658147 57.279988 
L 152.775216 57.279988 
L 152.775216 57.279988 
L 152.775216 57.014371 
L 152.658147 56.483139 
L 152.658147 55.68961 
L 152.775216 55.423994 
L 152.658147 55.68961 
L 152.30694 55.68961 
L 152.424009 55.158378 
L 152.658147 55.423994 
L 152.775216 56.748755 
L 152.424009 55.68961 
L 152.775216 54.099233 
L 152.775216 54.630465 
L 152.658147 54.892761 
L 152.658147 54.630465 
L 152.658147 54.099233 
L 152.775216 54.099233 
L 152.775216 54.364849 
L 153.009354 55.158378 
L 152.541078 53.833616 
L 152.30694 54.364849 
L 152.658147 53.568 
L 152.658147 54.099233 
L 152.541078 54.630465 
L 152.658147 53.833616 
L 152.541078 53.833616 
L 152.541078 54.364849 
L 152.424009 54.630465 
L 152.072802 54.364849 
L 152.072802 54.630465 
L 152.189871 54.892761 
L 152.424009 54.630465 
L 152.424009 54.364849 
L 152.30694 54.364849 
L 152.072802 54.630465 
L 152.072802 54.630465 
L 152.30694 54.892761 
L 152.30694 54.099233 
L 152.189871 54.099233 
L 151.955733 55.158378 
L 152.30694 55.158378 
L 152.30694 54.892761 
L 152.072802 53.568 
L 152.189871 54.630465 
L 152.072802 54.630465 
L 152.072802 54.630465 
L 152.072802 55.158378 
L 151.955733 55.158378 
L 151.838664 54.630465 
L 151.955733 55.423994 
L 151.955733 54.630465 
L 152.072802 54.364849 
L 151.487457 55.423994 
L 151.604526 54.892761 
L 151.838664 54.364849 
L 151.838664 54.364849 
L 152.072802 55.68961 
L 152.189871 55.68961 
L 152.189871 55.423994 
L 152.30694 54.892761 
L 152.189871 54.892761 
L 152.189871 55.423994 
L 152.424009 56.483139 
L 152.541078 55.955226 
L 152.30694 56.748755 
L 152.189871 57.014371 
L 152.072802 56.217523 
L 152.424009 56.483139 
L 152.892285 56.217523 
L 152.424009 56.483139 
L 152.189871 56.483139 
L 152.072802 56.217523 
L 152.189871 56.483139 
L 152.424009 56.483139 
L 152.892285 56.217523 
L 152.775216 56.217523 
L 153.009354 55.158378 
L 152.892285 54.892761 
L 152.658147 55.423994 
L 152.658147 55.423994 
L 152.658147 54.892761 
L 152.658147 54.892761 
L 152.775216 55.423994 
L 152.775216 55.955226 
L 152.658147 55.955226 
L 152.658147 55.955226 
L 153.243492 55.423994 
L 153.009354 55.423994 
L 152.658147 55.955226 
L 152.775216 55.955226 
L 152.892285 55.68961 
L 152.892285 55.158378 
L 153.126423 54.892761 
L 153.243492 55.158378 
L 153.126423 55.423994 
L 152.892285 55.423994 
L 152.892285 55.423994 
L 152.892285 55.158378 
L 152.658147 55.158378 
L 152.072802 55.423994 
L 151.019181 55.423994 
L 149.500448 54.892761 
L 147.513438 54.364849 
L 145.289127 54.364849 
L 142.716772 54.892761 
L 140.027349 54.892761 
L 137.103787 55.158378 
L 131.490802 56.217523 
L 125.409541 57.8079 
L 122.251842 58.604749 
L 119.094142 59.663894 
L 113.012881 63.372561 
L 109.738113 65.228555 
L 103.539783 69.730751 
L 100.73329 71.321129 
L 98.157772 72.911507 
L 95.585417 74.7675 
L 91.026053 77.682639 
L 89.03588 78.741784 
L 87.048871 79.535313 
L 84.944792 79.800929 
L 83.188757 80.332162 
L 81.787093 81.12569 
L 78.9806 83.247301 
L 77.80991 83.509597 
L 76.873358 83.509597 
L 76.170944 84.040829 
L 75.354625 85.099974 
L 74.535141 85.896823 
L 73.832727 85.896823 
L 75.003417 88.280729 
L 75.471694 88.546346 
L 76.057039 88.280729 
L 77.107496 87.221584 
L 77.341634 87.48388 
L 77.926979 89.605491 
L 77.80991 90.399019 
L 77.341634 90.399019 
L 76.756289 90.930252 
L 76.756289 91.723781 
L 76.288013 91.723781 
L 76.057039 92.520629 
L 76.170944 93.579774 
L 75.93997 93.845391 
L 75.93997 94.373303 
L 76.057039 94.373303 
L 75.93997 94.111007 
L 76.057039 94.111007 
L 76.170944 94.111007 
L 75.93997 94.373303 
L 75.705832 95.170152 
L 75.705832 95.698064 
L 75.93997 95.698064 
L 76.170944 95.170152 
L 76.170944 95.170152 
L 76.170944 95.698064 
L 76.288013 96.494913 
L 75.93997 96.494913 
L 75.93997 96.76053 
L 76.288013 96.76053 
L 76.170944 97.554058 
L 76.288013 97.554058 
L 76.405082 97.288442 
L 76.170944 98.085291 
L 76.170944 98.613203 
L 76.057039 98.613203 
L 76.057039 98.350907 
L 76.170944 97.819675 
L 76.057039 97.288442 
L 75.93997 97.554058 
L 76.170944 98.350907 
L 76.057039 98.613203 
L 76.170944 98.613203 
L 76.288013 98.613203 
L 76.288013 98.878819 
L 76.170944 99.675668 
L 76.170944 99.410052 
L 76.288013 99.410052 
L 76.288013 100.469197 
L 75.93997 101.00043 
L 75.822901 101.528342 
L 75.93997 101.793958 
L 75.93997 101.528342 
L 76.057039 101.262726 
L 76.057039 102.325191 
L 76.170944 102.059575 
L 76.057039 101.528342 
L 76.170944 101.528342 
L 76.405082 102.853103 
L 76.057039 102.853103 
L 76.057039 102.853103 
L 76.288013 103.11872 
L 76.63922 103.11872 
L 76.405082 103.11872 
L 76.057039 102.853103 
L 75.93997 103.11872 
L 75.93997 103.649952 
L 75.822901 103.912248 
L 75.93997 103.912248 
L 76.170944 104.177865 
L 76.170944 104.974713 
L 76.170944 104.443481 
L 76.057039 104.443481 
L 76.057039 104.443481 
L 76.057039 104.177865 
L 76.170944 103.912248 
L 76.170944 104.443481 
L 76.057039 104.974713 
L 76.288013 105.502626 
L 76.170944 105.502626 
L 75.93997 105.23701 
L 75.705832 105.502626 
L 75.471694 105.502626 
L 75.471694 105.502626 
L 75.822901 106.033858 
L 76.405082 107.093003 
L 76.405082 106.561771 
L 76.170944 104.443481 
L 76.288013 106.299475 
L 75.822901 107.35862 
L 75.93997 106.561771 
L 76.288013 105.768242 
L 76.405082 106.033858 
L 76.405082 106.827387 
L 76.170944 107.093003 
L 76.170944 107.093003 
L 76.756289 107.889852 
L 76.756289 107.624236 
L 76.522151 106.827387 
L 76.756289 106.827387 
L 76.405082 106.827387 
L 76.288013 107.093003 
L 76.288013 107.889852 
L 76.522151 109.214614 
L 76.522151 108.948997 
L 76.405082 108.683381 
L 76.522151 108.948997 
L 76.756289 108.683381 
L 76.63922 108.417765 
L 76.405082 108.948997 
L 76.288013 110.273758 
L 76.405082 110.539375 
L 76.522151 110.008142 
L 76.756289 108.683381 
L 76.756289 109.47691 
L 76.63922 109.47691 
L 76.63922 109.214614 
L 76.405082 108.948997 
L 76.170944 109.214614 
L 76.288013 109.214614 
L 76.405082 109.47691 
L 76.522151 110.801671 
L 76.756289 111.59852 
L 76.990427 111.59852 
L 77.107496 110.539375 
L 76.873358 109.214614 
L 76.522151 109.47691 
L 76.405082 110.008142 
L 76.522151 110.539375 
L 76.63922 110.539375 
L 76.756289 110.801671 
L 76.63922 110.273758 
L 76.63922 109.47691 
L 76.873358 110.008142 
L 76.873358 109.214614 
L 76.756289 109.214614 
L 76.756289 109.742526 
L 76.873358 110.008142 
L 76.990427 109.47691 
L 76.522151 110.801671 
L 77.224565 112.126432 
L 77.341634 111.864136 
L 77.341634 111.332903 
L 77.107496 111.067287 
L 77.107496 110.801671 
L 76.990427 110.801671 
L 76.990427 111.59852 
L 76.522151 112.923281 
L 76.63922 112.923281 
L 76.63922 113.188897 
L 76.990427 113.188897 
L 77.458703 112.923281 
L 77.341634 112.923281 
L 77.107496 112.657665 
L 76.873358 113.451193 
L 77.224565 113.71681 
L 77.575772 112.923281 
L 77.692841 112.126432 
L 77.575772 112.126432 
L 77.341634 112.923281 
L 76.873358 113.451193 
L 77.224565 112.923281 
L 77.692841 112.657665 
L 77.80991 112.392048 
L 77.224565 113.451193 
L 76.990427 113.188897 
L 76.990427 112.923281 
L 77.224565 112.657665 
L 77.107496 112.923281 
L 77.458703 113.451193 
L 77.458703 113.451193 
L 77.458703 112.923281 
L 77.341634 112.923281 
L 77.107496 113.188897 
L 76.873358 113.982426 
L 76.873358 113.71681 
L 76.990427 113.982426 
L 76.990427 113.71681 
L 77.224565 112.923281 
L 77.692841 112.923281 
L 78.161117 113.451193 
L 78.044048 114.248042 
L 77.692841 114.513659 
L 77.458703 114.513659 
L 77.458703 114.513659 
L 77.575772 114.248042 
L 77.341634 115.041571 
L 77.575772 115.041571 
L 77.80991 114.513659 
L 77.692841 114.513659 
L 77.692841 113.71681 
L 77.692841 113.71681 
L 77.575772 113.982426 
L 77.575772 113.982426 
L 77.692841 114.248042 
L 77.575772 114.513659 
L 77.80991 114.248042 
L 77.926979 114.248042 
L 78.044048 114.513659 
L 77.926979 113.982426 
L 78.044048 114.248042 
L 77.224565 114.248042 
L 77.107496 113.982426 
L 77.341634 113.982426 
L 77.692841 114.513659 
L 78.044048 114.248042 
L 78.161117 114.248042 
L 78.278186 114.775955 
L 78.395255 114.775955 
L 78.278186 114.513659 
L 78.161117 114.775955 
L 78.512324 114.248042 
L 78.746462 113.982426 
L 78.746462 114.248042 
L 78.044048 115.307187 
L 78.161117 115.041571 
L 78.278186 115.307187 
L 78.161117 115.83842 
L 78.044048 115.83842 
L 78.044048 115.572804 
L 78.044048 115.572804 
L 78.395255 116.631949 
L 78.863531 116.100716 
L 78.863531 116.100716 
L 78.9806 116.366332 
L 78.629393 115.83842 
L 78.512324 115.83842 
L 78.395255 115.307187 
L 78.512324 115.307187 
L 78.629393 114.775955 
L 78.629393 114.513659 
L 78.395255 115.307187 
L 78.629393 115.83842 
L 79.097669 115.307187 
L 79.328643 114.775955 
L 79.211574 114.513659 
L 78.512324 115.572804 
L 78.512324 116.366332 
L 78.512324 116.366332 
L 78.746462 115.83842 
L 78.9806 115.83842 
L 78.9806 116.100716 
L 78.746462 116.366332 
L 78.746462 116.366332 
L 78.9806 115.83842 
L 79.211574 115.83842 
L 79.445712 116.366332 
L 79.211574 116.366332 
L 78.863531 116.100716 
L 78.863531 116.100716 
L 79.328643 116.100716 
L 79.796919 115.572804 
L 80.265195 115.572804 
L 81.201748 115.041571 
L 82.603412 114.513659 
L 84.359447 113.982426 
L 86.580595 113.451193 
L 89.504156 113.188897 
L 93.130132 113.188897 
L 97.57559 113.71681 
L 113.247019 113.71681 
L 119.445349 114.248042 
L 125.877818 114.248042 
L 132.54126 114.513659 
L 139.559073 115.307187 
L 146.693955 116.631949 
L 153.711768 118.487942 
L 175.113251 123.255755 
L 182.1279 125.111749 
L 195.461113 129.879561 
L 202.01065 131.735555 
L 214.641448 134.91631 
L 226.218625 138.093745 
L 231.717705 139.418506 
L 237.096552 140.215355 
L 241.890054 141.540116 
L 246.452582 142.599261 
L 250.660739 142.864878 
L 254.520852 142.599261 
L 263.291537 141.2745 
L 265.632917 141.2745 
L 267.854065 141.540116 
L 269.724005 141.540116 
L 271.362971 141.805733 
L 272.647566 142.333645 
L 274.052395 141.805733 
L 274.520671 142.599261 
L 274.403602 142.599261 
L 274.286533 143.130494 
L 273.701188 144.189639 
L 272.182454 145.248784 
L 270.192281 146.839161 
L 269.489867 146.839161 
L 269.255729 147.104778 
L 269.372798 147.370394 
L 269.724005 147.63269 
L 269.841074 147.898306 
L 269.958143 147.63269 
L 269.841074 147.898306 
L 269.841074 148.429539 
L 269.958143 148.695155 
L 270.192281 148.695155 
L 271.011764 147.898306 
L 271.245902 148.163923 
L 271.48004 149.7543 
L 271.011764 149.7543 
L 271.011764 150.019917 
L 271.128833 150.019917 
L 271.245902 149.488684 
L 271.128833 149.223068 
L 270.777626 149.7543 
L 270.660557 150.282213 
L 270.777626 150.813445 
L 270.660557 150.547829 
L 270.192281 150.019917 
L 269.958143 149.488684 
L 270.192281 148.695155 
L 270.075212 148.695155 
L 270.192281 149.488684 
L 269.958143 150.282213 
L 269.724005 149.488684 
L 269.724005 148.695155 
L 269.958143 148.695155 
L 270.192281 149.488684 
L 270.426419 150.547829 
L 270.543488 150.547829 
L 270.426419 150.813445 
L 270.426419 150.813445 
L 270.075212 150.282213 
L 269.958143 150.547829 
L 269.958143 150.547829 
L 269.724005 150.019917 
L 269.372798 151.079062 
L 269.372798 150.547829 
L 269.489867 149.7543 
L 269.141824 151.344678 
L 269.141824 150.019917 
L 269.024755 150.019917 
L 269.255729 150.547829 
L 269.372798 150.282213 
L 269.255729 150.282213 
L 269.372798 150.813445 
L 269.489867 150.813445 
L 269.372798 150.547829 
L 269.141824 150.547829 
L 269.024755 150.813445 
L 269.372798 149.7543 
L 269.489867 148.957451 
L 269.372798 148.957451 
L 269.255729 149.7543 
L 269.024755 150.019917 
L 268.790617 149.7543 
L 268.790617 149.7543 
L 268.556479 148.957451 
L 268.556479 149.223068 
L 268.790617 148.957451 
L 268.43941 149.7543 
L 268.088203 149.223068 
L 268.673548 149.223068 
L 268.673548 149.223068 
L 268.673548 148.957451 
L 268.556479 148.695155 
L 268.43941 148.957451 
L 267.854065 148.957451 
L 267.854065 149.223068 
L 268.205272 149.488684 
L 268.43941 149.488684 
L 268.43941 149.223068 
L 268.088203 149.7543 
L 268.088203 150.019917 
L 267.619927 148.957451 
L 267.736996 148.429539 
L 267.971134 148.163923 
L 268.205272 148.429539 
L 268.088203 149.488684 
L 267.854065 150.282213 
L 267.736996 150.282213 
L 267.385789 149.223068 
L 267.034581 149.488684 
L 267.15165 148.957451 
L 267.385789 148.957451 
L 267.385789 150.019917 
L 267.502858 150.019917 
L 267.502858 149.7543 
L 267.26872 149.7543 
L 267.15165 150.019917 
L 267.502858 151.079062 
L 267.385789 151.079062 
L 267.385789 150.813445 
L 267.15165 150.547829 
L 267.034581 150.547829 
L 266.800443 150.813445 
L 266.566305 151.079062 
L 266.683374 151.606974 
L 266.917512 151.87259 
L 267.034581 151.344678 
L 267.034581 150.547829 
L 266.917512 150.547829 
L 266.917512 151.079062 
L 267.15165 152.138207 
L 267.034581 152.669439 
L 266.449236 152.669439 
L 266.449236 152.403823 
L 266.332167 152.403823 
L 266.449236 152.138207 
L 267.034581 152.138207 
L 267.034581 151.606974 
L 266.800443 151.344678 
L 266.683374 152.138207 
L 266.800443 152.669439 
L 267.034581 152.935055 
L 267.034581 152.669439 
L 266.917512 152.669439 
L 266.917512 153.197352 
L 266.800443 153.197352 
L 266.800443 152.935055 
L 266.449236 151.606974 
L 266.332167 151.87259 
L 266.332167 152.403823 
L 266.566305 152.935055 
L 266.566305 153.462968 
L 266.332167 153.9942 
L 266.449236 153.9942 
L 266.800443 153.9942 
L 266.683374 153.9942 
L 266.449236 153.462968 
L 266.449236 152.935055 
L 266.917512 152.935055 
L 267.26872 153.462968 
L 267.15165 153.728584 
L 267.034581 153.197352 
L 267.034581 152.669439 
L 266.683374 153.462968 
L 266.800443 153.9942 
L 266.917512 153.9942 
L 266.800443 154.259817 
L 266.566305 153.9942 
L 266.332167 153.462968 
L 266.449236 153.462968 
L 266.683374 153.728584 
L 266.800443 153.462968 
L 266.800443 153.728584 
L 266.800443 154.259817 
L 266.917512 153.9942 
L 266.917512 153.197352 
L 266.800443 153.197352 
L 266.683374 153.462968 
L 266.800443 153.462968 
L 267.034581 153.462968 
L 267.034581 153.728584 
L 266.917512 153.728584 
L 266.917512 153.9942 
L 266.917512 153.9942 
L 266.332167 153.9942 
L 266.683374 153.462968 
L 266.449236 153.728584 
L 266.566305 153.462968 
L 266.800443 153.462968 
L 266.449236 152.669439 
L 266.566305 152.403823 
L 266.683374 153.197352 
L 266.449236 154.259817 
L 266.683374 153.197352 
L 266.800443 153.197352 
L 266.800443 152.935055 
L 266.683374 152.403823 
L 266.683374 152.935055 
L 266.800443 154.522113 
L 266.800443 153.728584 
L 266.917512 153.728584 
L 267.15165 153.9942 
L 267.26872 154.522113 
L 267.26872 154.259817 
L 267.385789 153.728584 
L 267.15165 153.462968 
L 267.385789 153.728584 
L 267.15165 153.9942 
L 266.917512 153.9942 
L 267.385789 153.197352 
L 267.619927 153.462968 
L 267.736996 154.259817 
L 267.619927 154.259817 
L 267.15165 153.728584 
L 267.034581 154.259817 
L 267.385789 155.318962 
L 267.502858 155.318962 
L 267.502858 155.318962 
L 267.26872 155.584578 
L 267.15165 155.318962 
L 267.385789 154.522113 
L 267.736996 154.259817 
L 267.736996 154.787729 
L 267.502858 155.053345 
L 267.15165 154.787729 
L 267.034581 155.318962 
L 267.385789 154.787729 
L 267.26872 154.259817 
L 266.683374 155.584578 
L 266.800443 155.584578 
L 266.800443 156.11249 
L 266.800443 154.787729 
L 266.800443 155.053345 
L 266.917512 155.584578 
L 267.15165 155.846874 
L 266.917512 155.584578 
L 266.917512 155.846874 
L 267.26872 156.378107 
L 267.15165 155.846874 
L 266.683374 154.787729 
L 266.800443 154.522113 
L 266.917512 155.053345 
L 266.917512 155.584578 
L 266.917512 155.584578 
L 266.332167 156.11249 
L 266.332167 155.053345 
L 266.332167 156.378107 
L 266.449236 156.378107 
L 266.683374 156.11249 
L 266.800443 154.787729 
L 266.800443 154.522113 
L 266.800443 155.318962 
L 266.800443 155.318962 
L 267.034581 155.318962 
L 266.917512 155.584578 
L 266.566305 155.584578 
L 266.215098 155.053345 
L 266.332167 155.318962 
L 266.683374 156.11249 
L 267.034581 154.787729 
L 267.15165 154.787729 
L 267.034581 154.522113 
L 266.800443 155.053345 
L 266.683374 154.787729 
L 266.683374 153.728584 
L 266.800443 153.728584 
L 267.034581 153.9942 
L 266.800443 154.259817 
L 267.26872 153.728584 
L 267.502858 153.728584 
L 266.683374 154.259817 
L 266.566305 154.259817 
L 266.917512 154.787729 
L 267.034581 155.584578 
L 266.683374 156.11249 
L 266.566305 155.584578 
L 266.566305 153.9942 
L 266.449236 153.9942 
L 266.215098 154.259817 
L 266.215098 155.053345 
L 266.566305 155.318962 
L 266.800443 155.053345 
L 266.800443 154.522113 
L 267.26872 154.522113 
L 267.26872 155.053345 
L 267.385789 155.318962 
L 267.034581 154.259817 
L 267.034581 153.9942 
L 266.917512 153.9942 
L 266.917512 153.9942 
L 267.619927 154.787729 
L 267.619927 154.522113 
L 266.917512 153.197352 
L 267.26872 153.728584 
L 267.034581 153.9942 
L 267.034581 154.259817 
L 267.26872 154.787729 
L 267.034581 154.259817 
L 266.917512 154.522113 
L 267.15165 154.787729 
L 266.917512 154.522113 
L 267.034581 153.9942 
L 266.917512 153.728584 
L 267.15165 153.9942 
L 267.15165 153.9942 
L 267.385789 153.9942 
L 267.15165 153.9942 
L 267.26872 153.728584 
L 267.619927 153.462968 
L 267.854065 153.462968 
L 267.619927 153.462968 
L 267.385789 153.197352 
L 267.15165 153.197352 
L 267.15165 153.462968 
L 267.385789 153.197352 
L 267.736996 153.462968 
L 267.736996 153.9942 
L 267.619927 154.259817 
L 267.502858 153.728584 
L 267.619927 153.462968 
L 267.854065 153.462968 
L 268.205272 152.935055 
L 268.088203 153.197352 
L 268.322341 153.9942 
L 268.322341 153.9942 
L 268.088203 153.9942 
L 267.854065 153.728584 
L 267.971134 153.728584 
L 268.205272 153.728584 
L 268.43941 153.462968 
L 268.322341 153.462968 
L 267.971134 153.728584 
L 268.205272 153.462968 
L 268.205272 152.935055 
L 267.971134 152.935055 
L 267.736996 153.197352 
L 267.854065 153.197352 
L 268.088203 153.197352 
L 268.205272 152.669439 
L 268.088203 153.197352 
L 268.088203 153.728584 
L 268.088203 153.728584 
L 268.43941 153.728584 
L 268.556479 153.462968 
L 268.556479 152.935055 
L 268.322341 152.669439 
L 268.088203 153.462968 
L 268.088203 153.728584 
L 268.205272 153.728584 
L 268.205272 153.197352 
L 268.322341 152.935055 
L 268.556479 152.935055 
L 268.790617 153.197352 
L 268.673548 153.462968 
L 268.556479 152.935055 
L 268.556479 152.935055 
L 268.43941 153.197352 
L 268.43941 153.197352 
L 268.43941 152.669439 
L 268.322341 152.138207 
L 268.322341 151.606974 
L 268.43941 151.87259 
L 268.322341 152.138207 
L 268.322341 151.606974 
L 268.556479 151.344678 
L 268.673548 151.606974 
L 268.556479 153.462968 
L 268.556479 153.728584 
L 268.556479 153.462968 
L 268.673548 153.9942 
L 268.673548 153.728584 
L 268.790617 153.728584 
L 268.673548 153.728584 
L 268.43941 153.462968 
L 268.322341 152.935055 
L 268.790617 151.606974 
L 268.907686 151.87259 
L 268.673548 153.197352 
L 268.556479 153.197352 
L 268.790617 153.197352 
L 269.024755 153.462968 
L 269.141824 153.9942 
L 268.907686 153.728584 
L 268.43941 152.403823 
L 268.790617 153.197352 
L 269.372798 153.197352 
L 269.255729 153.728584 
L 269.024755 153.9942 
L 268.907686 154.787729 
L 269.024755 154.787729 
L 269.024755 153.9942 
L 268.907686 153.462968 
L 269.255729 153.462968 
L 269.255729 153.9942 
L 269.141824 154.522113 
L 269.024755 154.522113 
L 269.255729 154.522113 
L 269.606936 154.787729 
L 269.141824 153.9942 
L 269.489867 154.787729 
L 269.489867 155.053345 
L 269.141824 153.9942 
L 269.255729 153.9942 
L 269.255729 154.259817 
L 269.372798 153.9942 
L 269.724005 153.728584 
L 269.958143 153.9942 
L 269.958143 154.522113 
L 269.841074 154.522113 
L 269.489867 153.462968 
L 269.489867 153.462968 
L 269.372798 153.197352 
L 269.255729 153.462968 
L 269.372798 155.318962 
L 269.489867 155.053345 
L 269.724005 154.522113 
L 270.192281 153.9942 
L 270.30935 154.259817 
L 269.724005 152.935055 
L 269.724005 152.935055 
L 269.958143 152.935055 
L 269.958143 153.197352 
L 269.841074 153.462968 
L 269.958143 153.462968 
L 270.30935 153.728584 
L 270.192281 153.197352 
L 270.426419 152.935055 
L 270.543488 153.197352 
L 270.426419 153.462968 
L 270.075212 153.728584 
L 269.841074 153.728584 
L 270.426419 154.522113 
L 270.30935 155.053345 
L 270.075212 155.318962 
L 270.192281 154.522113 
L 270.543488 154.259817 
L 270.777626 154.522113 
L 270.894695 154.259817 
L 271.011764 154.522113 
L 271.011764 155.318962 
L 270.777626 155.846874 
L 270.426419 155.584578 
L 270.426419 155.053345 
L 270.30935 155.053345 
L 270.192281 155.318962 
L 270.660557 153.9942 
L 270.543488 153.728584 
L 270.426419 154.259817 
L 270.426419 154.259817 
" style="fill:none;stroke:#1f77b4;stroke-linecap:square;stroke-width:1.5;"/>
   </g>
   <g id="matplotlib.axis_1">
    <g id="xtick_1">
     <g id="line2d_2">
      <defs>
       <path d="M 0 0 
L 0 3.5 
" id="ma7bce6839e" style="stroke:#000000;stroke-width:0.8;"/>
      </defs>
      <g>
       <use style="stroke:#000000;stroke-width:0.8;" x="116.363586" xlink:href="#ma7bce6839e" y="307.584"/>
      </g>
     </g>
     <g id="text_1">
      <!-- −200 -->
      <defs>
       <path d="M 10.59375 35.5 
L 73.1875 35.5 
L 73.1875 27.203125 
L 10.59375 27.203125 
z
" id="DejaVuSans-8722"/>
       <path d="M 19.1875 8.296875 
L 53.609375 8.296875 
L 53.609375 0 
L 7.328125 0 
L 7.328125 8.296875 
Q 12.9375 14.109375 22.625 23.890625 
Q 32.328125 33.6875 34.8125 36.53125 
Q 39.546875 41.84375 41.421875 45.53125 
Q 43.3125 49.21875 43.3125 52.78125 
Q 43.3125 58.59375 39.234375 62.25 
Q 35.15625 65.921875 28.609375 65.921875 
Q 23.96875 65.921875 18.8125 64.3125 
Q 13.671875 62.703125 7.8125 59.421875 
L 7.8125 69.390625 
Q 13.765625 71.78125 18.9375 73 
Q 24.125 74.21875 28.421875 74.21875 
Q 39.75 74.21875 46.484375 68.546875 
Q 53.21875 62.890625 53.21875 53.421875 
Q 53.21875 48.921875 51.53125 44.890625 
Q 49.859375 40.875 45.40625 35.40625 
Q 44.1875 33.984375 37.640625 27.21875 
Q 31.109375 20.453125 19.1875 8.296875 
z
" id="DejaVuSans-50"/>
       <path d="M 31.78125 66.40625 
Q 24.171875 66.40625 20.328125 58.90625 
Q 16.5 51.421875 16.5 36.375 
Q 16.5 21.390625 20.328125 13.890625 
Q 24.171875 6.390625 31.78125 6.390625 
Q 39.453125 6.390625 43.28125 13.890625 
Q 47.125 21.390625 47.125 36.375 
Q 47.125 51.421875 43.28125 58.90625 
Q 39.453125 66.40625 31.78125 66.40625 
z
M 31.78125 74.21875 
Q 44.046875 74.21875 50.515625 64.515625 
Q 56.984375 54.828125 56.984375 36.375 
Q 56.984375 17.96875 50.515625 8.265625 
Q 44.046875 -1.421875 31.78125 -1.421875 
Q 19.53125 -1.421875 13.0625 8.265625 
Q 6.59375 17.96875 6.59375 36.375 
Q 6.59375 54.828125 13.0625 64.515625 
Q 19.53125 74.21875 31.78125 74.21875 
z
" id="DejaVuSans-48"/>
      </defs>
      <g transform="translate(102.629993 322.182437)scale(0.1 -0.1)">
       <use xlink:href="#DejaVuSans-8722"/>
       <use x="83.789062" xlink:href="#DejaVuSans-50"/>
       <use x="147.412109" xlink:href="#DejaVuSans-48"/>
       <use x="211.035156" xlink:href="#DejaVuSans-48"/>
      </g>
     </g>
    </g>
    <g id="xtick_2">
     <g id="line2d_3">
      <g>
       <use style="stroke:#000000;stroke-width:0.8;" x="179.644139" xlink:href="#ma7bce6839e" y="307.584"/>
      </g>
     </g>
     <g id="text_2">
      <!-- 0 -->
      <g transform="translate(176.462889 322.182437)scale(0.1 -0.1)">
       <use xlink:href="#DejaVuSans-48"/>
      </g>
     </g>
    </g>
    <g id="xtick_3">
     <g id="line2d_4">
      <g>
       <use style="stroke:#000000;stroke-width:0.8;" x="242.924691" xlink:href="#ma7bce6839e" y="307.584"/>
      </g>
     </g>
     <g id="text_3">
      <!-- 200 -->
      <g transform="translate(233.380941 322.182437)scale(0.1 -0.1)">
       <use xlink:href="#DejaVuSans-50"/>
       <use x="63.623047" xlink:href="#DejaVuSans-48"/>
       <use x="127.246094" xlink:href="#DejaVuSans-48"/>
      </g>
     </g>
    </g>
    <g id="xtick_4">
     <g id="line2d_5">
      <g>
       <use style="stroke:#000000;stroke-width:0.8;" x="306.205243" xlink:href="#ma7bce6839e" y="307.584"/>
      </g>
     </g>
     <g id="text_4">
      <!-- 400 -->
      <defs>
       <path d="M 37.796875 64.3125 
L 12.890625 25.390625 
L 37.796875 25.390625 
z
M 35.203125 72.90625 
L 47.609375 72.90625 
L 47.609375 25.390625 
L 58.015625 25.390625 
L 58.015625 17.1875 
L 47.609375 17.1875 
L 47.609375 0 
L 37.796875 0 
L 37.796875 17.1875 
L 4.890625 17.1875 
L 4.890625 26.703125 
z
" id="DejaVuSans-52"/>
      </defs>
      <g transform="translate(296.661493 322.182437)scale(0.1 -0.1)">
       <use xlink:href="#DejaVuSans-52"/>
       <use x="63.623047" xlink:href="#DejaVuSans-48"/>
       <use x="127.246094" xlink:href="#DejaVuSans-48"/>
      </g>
     </g>
    </g>
    <g id="xtick_5">
     <g id="line2d_6">
      <g>
       <use style="stroke:#000000;stroke-width:0.8;" x="369.485796" xlink:href="#ma7bce6839e" y="307.584"/>
      </g>
     </g>
     <g id="text_5">
      <!-- 600 -->
      <defs>
       <path d="M 33.015625 40.375 
Q 26.375 40.375 22.484375 35.828125 
Q 18.609375 31.296875 18.609375 23.390625 
Q 18.609375 15.53125 22.484375 10.953125 
Q 26.375 6.390625 33.015625 6.390625 
Q 39.65625 6.390625 43.53125 10.953125 
Q 47.40625 15.53125 47.40625 23.390625 
Q 47.40625 31.296875 43.53125 35.828125 
Q 39.65625 40.375 33.015625 40.375 
z
M 52.59375 71.296875 
L 52.59375 62.3125 
Q 48.875 64.0625 45.09375 64.984375 
Q 41.3125 65.921875 37.59375 65.921875 
Q 27.828125 65.921875 22.671875 59.328125 
Q 17.53125 52.734375 16.796875 39.40625 
Q 19.671875 43.65625 24.015625 45.921875 
Q 28.375 48.1875 33.59375 48.1875 
Q 44.578125 48.1875 50.953125 41.515625 
Q 57.328125 34.859375 57.328125 23.390625 
Q 57.328125 12.15625 50.6875 5.359375 
Q 44.046875 -1.421875 33.015625 -1.421875 
Q 20.359375 -1.421875 13.671875 8.265625 
Q 6.984375 17.96875 6.984375 36.375 
Q 6.984375 53.65625 15.1875 63.9375 
Q 23.390625 74.21875 37.203125 74.21875 
Q 40.921875 74.21875 44.703125 73.484375 
Q 48.484375 72.75 52.59375 71.296875 
z
" id="DejaVuSans-54"/>
      </defs>
      <g transform="translate(359.942046 322.182437)scale(0.1 -0.1)">
       <use xlink:href="#DejaVuSans-54"/>
       <use x="63.623047" xlink:href="#DejaVuSans-48"/>
       <use x="127.246094" xlink:href="#DejaVuSans-48"/>
      </g>
     </g>
    </g>
   </g>
   <g id="matplotlib.axis_2">
    <g id="ytick_1">
     <g id="line2d_7">
      <defs>
       <path d="M 0 0 
L -3.5 0 
" id="m4e85a4c4c3" style="stroke:#000000;stroke-width:0.8;"/>
      </defs>
      <g>
       <use style="stroke:#000000;stroke-width:0.8;" x="57.6" xlink:href="#m4e85a4c4c3" y="288.399365"/>
      </g>
     </g>
     <g id="text_6">
      <!-- −800 -->
      <defs>
       <path d="M 31.78125 34.625 
Q 24.75 34.625 20.71875 30.859375 
Q 16.703125 27.09375 16.703125 20.515625 
Q 16.703125 13.921875 20.71875 10.15625 
Q 24.75 6.390625 31.78125 6.390625 
Q 38.8125 6.390625 42.859375 10.171875 
Q 46.921875 13.96875 46.921875 20.515625 
Q 46.921875 27.09375 42.890625 30.859375 
Q 38.875 34.625 31.78125 34.625 
z
M 21.921875 38.8125 
Q 15.578125 40.375 12.03125 44.71875 
Q 8.5 49.078125 8.5 55.328125 
Q 8.5 64.0625 14.71875 69.140625 
Q 20.953125 74.21875 31.78125 74.21875 
Q 42.671875 74.21875 48.875 69.140625 
Q 55.078125 64.0625 55.078125 55.328125 
Q 55.078125 49.078125 51.53125 44.71875 
Q 48 40.375 41.703125 38.8125 
Q 48.828125 37.15625 52.796875 32.3125 
Q 56.78125 27.484375 56.78125 20.515625 
Q 56.78125 9.90625 50.3125 4.234375 
Q 43.84375 -1.421875 31.78125 -1.421875 
Q 19.734375 -1.421875 13.25 4.234375 
Q 6.78125 9.90625 6.78125 20.515625 
Q 6.78125 27.484375 10.78125 32.3125 
Q 14.796875 37.15625 21.921875 38.8125 
z
M 18.3125 54.390625 
Q 18.3125 48.734375 21.84375 45.5625 
Q 25.390625 42.390625 31.78125 42.390625 
Q 38.140625 42.390625 41.71875 45.5625 
Q 45.3125 48.734375 45.3125 54.390625 
Q 45.3125 60.0625 41.71875 63.234375 
Q 38.140625 66.40625 31.78125 66.40625 
Q 25.390625 66.40625 21.84375 63.234375 
Q 18.3125 60.0625 18.3125 54.390625 
z
" id="DejaVuSans-56"/>
      </defs>
      <g transform="translate(23.132812 292.198584)scale(0.1 -0.1)">
       <use xlink:href="#DejaVuSans-8722"/>
       <use x="83.789062" xlink:href="#DejaVuSans-56"/>
       <use x="147.412109" xlink:href="#DejaVuSans-48"/>
       <use x="211.035156" xlink:href="#DejaVuSans-48"/>
      </g>
     </g>
    </g>
    <g id="ytick_2">
     <g id="line2d_8">
      <g>
       <use style="stroke:#000000;stroke-width:0.8;" x="57.6" xlink:href="#m4e85a4c4c3" y="255.197328"/>
      </g>
     </g>
     <g id="text_7">
      <!-- −700 -->
      <defs>
       <path d="M 8.203125 72.90625 
L 55.078125 72.90625 
L 55.078125 68.703125 
L 28.609375 0 
L 18.3125 0 
L 43.21875 64.59375 
L 8.203125 64.59375 
z
" id="DejaVuSans-55"/>
      </defs>
      <g transform="translate(23.132812 258.996547)scale(0.1 -0.1)">
       <use xlink:href="#DejaVuSans-8722"/>
       <use x="83.789062" xlink:href="#DejaVuSans-55"/>
       <use x="147.412109" xlink:href="#DejaVuSans-48"/>
       <use x="211.035156" xlink:href="#DejaVuSans-48"/>
      </g>
     </g>
    </g>
    <g id="ytick_3">
     <g id="line2d_9">
      <g>
       <use style="stroke:#000000;stroke-width:0.8;" x="57.6" xlink:href="#m4e85a4c4c3" y="221.995292"/>
      </g>
     </g>
     <g id="text_8">
      <!-- −600 -->
      <g transform="translate(23.132812 225.794511)scale(0.1 -0.1)">
       <use xlink:href="#DejaVuSans-8722"/>
       <use x="83.789062" xlink:href="#DejaVuSans-54"/>
       <use x="147.412109" xlink:href="#DejaVuSans-48"/>
       <use x="211.035156" xlink:href="#DejaVuSans-48"/>
      </g>
     </g>
    </g>
    <g id="ytick_4">
     <g id="line2d_10">
      <g>
       <use style="stroke:#000000;stroke-width:0.8;" x="57.6" xlink:href="#m4e85a4c4c3" y="188.793255"/>
      </g>
     </g>
     <g id="text_9">
      <!-- −500 -->
      <defs>
       <path d="M 10.796875 72.90625 
L 49.515625 72.90625 
L 49.515625 64.59375 
L 19.828125 64.59375 
L 19.828125 46.734375 
Q 21.96875 47.46875 24.109375 47.828125 
Q 26.265625 48.1875 28.421875 48.1875 
Q 40.625 48.1875 47.75 41.5 
Q 54.890625 34.8125 54.890625 23.390625 
Q 54.890625 11.625 47.5625 5.09375 
Q 40.234375 -1.421875 26.90625 -1.421875 
Q 22.3125 -1.421875 17.546875 -0.640625 
Q 12.796875 0.140625 7.71875 1.703125 
L 7.71875 11.625 
Q 12.109375 9.234375 16.796875 8.0625 
Q 21.484375 6.890625 26.703125 6.890625 
Q 35.15625 6.890625 40.078125 11.328125 
Q 45.015625 15.765625 45.015625 23.390625 
Q 45.015625 31 40.078125 35.4375 
Q 35.15625 39.890625 26.703125 39.890625 
Q 22.75 39.890625 18.8125 39.015625 
Q 14.890625 38.140625 10.796875 36.28125 
z
" id="DejaVuSans-53"/>
      </defs>
      <g transform="translate(23.132812 192.592474)scale(0.1 -0.1)">
       <use xlink:href="#DejaVuSans-8722"/>
       <use x="83.789062" xlink:href="#DejaVuSans-53"/>
       <use x="147.412109" xlink:href="#DejaVuSans-48"/>
       <use x="211.035156" xlink:href="#DejaVuSans-48"/>
      </g>
     </g>
    </g>
    <g id="ytick_5">
     <g id="line2d_11">
      <g>
       <use style="stroke:#000000;stroke-width:0.8;" x="57.6" xlink:href="#m4e85a4c4c3" y="155.591218"/>
      </g>
     </g>
     <g id="text_10">
      <!-- −400 -->
      <g transform="translate(23.132812 159.390437)scale(0.1 -0.1)">
       <use xlink:href="#DejaVuSans-8722"/>
       <use x="83.789062" xlink:href="#DejaVuSans-52"/>
       <use x="147.412109" xlink:href="#DejaVuSans-48"/>
       <use x="211.035156" xlink:href="#DejaVuSans-48"/>
      </g>
     </g>
    </g>
    <g id="ytick_6">
     <g id="line2d_12">
      <g>
       <use style="stroke:#000000;stroke-width:0.8;" x="57.6" xlink:href="#m4e85a4c4c3" y="122.389182"/>
      </g>
     </g>
     <g id="text_11">
      <!-- −300 -->
      <defs>
       <path d="M 40.578125 39.3125 
Q 47.65625 37.796875 51.625 33 
Q 55.609375 28.21875 55.609375 21.1875 
Q 55.609375 10.40625 48.1875 4.484375 
Q 40.765625 -1.421875 27.09375 -1.421875 
Q 22.515625 -1.421875 17.65625 -0.515625 
Q 12.796875 0.390625 7.625 2.203125 
L 7.625 11.71875 
Q 11.71875 9.328125 16.59375 8.109375 
Q 21.484375 6.890625 26.8125 6.890625 
Q 36.078125 6.890625 40.9375 10.546875 
Q 45.796875 14.203125 45.796875 21.1875 
Q 45.796875 27.640625 41.28125 31.265625 
Q 36.765625 34.90625 28.71875 34.90625 
L 20.21875 34.90625 
L 20.21875 43.015625 
L 29.109375 43.015625 
Q 36.375 43.015625 40.234375 45.921875 
Q 44.09375 48.828125 44.09375 54.296875 
Q 44.09375 59.90625 40.109375 62.90625 
Q 36.140625 65.921875 28.71875 65.921875 
Q 24.65625 65.921875 20.015625 65.03125 
Q 15.375 64.15625 9.8125 62.3125 
L 9.8125 71.09375 
Q 15.4375 72.65625 20.34375 73.4375 
Q 25.25 74.21875 29.59375 74.21875 
Q 40.828125 74.21875 47.359375 69.109375 
Q 53.90625 64.015625 53.90625 55.328125 
Q 53.90625 49.265625 50.4375 45.09375 
Q 46.96875 40.921875 40.578125 39.3125 
z
" id="DejaVuSans-51"/>
      </defs>
      <g transform="translate(23.132812 126.1884)scale(0.1 -0.1)">
       <use xlink:href="#DejaVuSans-8722"/>
       <use x="83.789062" xlink:href="#DejaVuSans-51"/>
       <use x="147.412109" xlink:href="#DejaVuSans-48"/>
       <use x="211.035156" xlink:href="#DejaVuSans-48"/>
      </g>
     </g>
    </g>
    <g id="ytick_7">
     <g id="line2d_13">
      <g>
       <use style="stroke:#000000;stroke-width:0.8;" x="57.6" xlink:href="#m4e85a4c4c3" y="89.187145"/>
      </g>
     </g>
     <g id="text_12">
      <!-- −200 -->
      <g transform="translate(23.132812 92.986364)scale(0.1 -0.1)">
       <use xlink:href="#DejaVuSans-8722"/>
       <use x="83.789062" xlink:href="#DejaVuSans-50"/>
       <use x="147.412109" xlink:href="#DejaVuSans-48"/>
       <use x="211.035156" xlink:href="#DejaVuSans-48"/>
      </g>
     </g>
    </g>
    <g id="ytick_8">
     <g id="line2d_14">
      <g>
       <use style="stroke:#000000;stroke-width:0.8;" x="57.6" xlink:href="#m4e85a4c4c3" y="55.985108"/>
      </g>
     </g>
     <g id="text_13">
      <!-- −100 -->
      <defs>
       <path d="M 12.40625 8.296875 
L 28.515625 8.296875 
L 28.515625 63.921875 
L 10.984375 60.40625 
L 10.984375 69.390625 
L 28.421875 72.90625 
L 38.28125 72.90625 
L 38.28125 8.296875 
L 54.390625 8.296875 
L 54.390625 0 
L 12.40625 0 
z
" id="DejaVuSans-49"/>
      </defs>
      <g transform="translate(23.132812 59.784327)scale(0.1 -0.1)">
       <use xlink:href="#DejaVuSans-8722"/>
       <use x="83.789062" xlink:href="#DejaVuSans-49"/>
       <use x="147.412109" xlink:href="#DejaVuSans-48"/>
       <use x="211.035156" xlink:href="#DejaVuSans-48"/>
      </g>
     </g>
    </g>
   </g>
   <g id="line2d_15">
    <path clip-path="url(#p4fe567c626)" d="M 396.522753 292.285199 
L 155.235266 63.104983 
L 145.735369 57.018512 
L 78.160705 107.465895 
L 267.507889 152.338237 
" style="fill:none;stroke:#ff0000;stroke-linecap:square;stroke-width:0.5;"/>
   </g>
   <g id="patch_3">
    <path d="M 57.6 307.584 
L 57.6 41.472 
" style="fill:none;stroke:#000000;stroke-linecap:square;stroke-linejoin:miter;stroke-width:0.8;"/>
   </g>
   <g id="patch_4">
    <path d="M 414.72 307.584 
L 414.72 41.472 
" style="fill:none;stroke:#000000;stroke-linecap:square;stroke-linejoin:miter;stroke-width:0.8;"/>
   </g>
   <g id="patch_5">
    <path d="M 57.6 307.584 
L 414.72 307.584 
" style="fill:none;stroke:#000000;stroke-linecap:square;stroke-linejoin:miter;stroke-width:0.8;"/>
   </g>
   <g id="patch_6">
    <path d="M 57.6 41.472 
L 414.72 41.472 
" style="fill:none;stroke:#000000;stroke-linecap:square;stroke-linejoin:miter;stroke-width:0.8;"/>
   </g>
   <g id="PathCollection_1">
    <defs>
     <path d="M 0 2.738613 
C 0.726289 2.738613 1.422928 2.450055 1.936492 1.936492 
C 2.450055 1.422928 2.738613 0.726289 2.738613 0 
C 2.738613 -0.726289 2.450055 -1.422928 1.936492 -1.936492 
C 1.422928 -2.450055 0.726289 -2.738613 0 -2.738613 
C -0.726289 -2.738613 -1.422928 -2.450055 -1.936492 -1.936492 
C -2.450055 -1.422928 -2.738613 -0.726289 -2.738613 0 
C -2.738613 0.726289 -2.450055 1.422928 -1.936492 1.936492 
C -1.422928 2.450055 -0.726289 2.738613 0 2.738613 
z
" id="mb5a2fb8486" style="stroke:#ff0000;"/>
    </defs>
    <g clip-path="url(#p4fe567c626)">
     <use style="fill:#ff0000;stroke:#ff0000;" x="396.522753" xlink:href="#mb5a2fb8486" y="292.285199"/>
     <use style="fill:#ff0000;stroke:#ff0000;" x="155.235266" xlink:href="#mb5a2fb8486" y="63.104983"/>
     <use style="fill:#ff0000;stroke:#ff0000;" x="145.735369" xlink:href="#mb5a2fb8486" y="57.018512"/>
     <use style="fill:#ff0000;stroke:#ff0000;" x="78.160705" xlink:href="#mb5a2fb8486" y="107.465895"/>
     <use style="fill:#ff0000;stroke:#ff0000;" x="267.507889" xlink:href="#mb5a2fb8486" y="152.338237"/>
    </g>
   </g>
   <g id="text_14">
    <!-- (19) Subject: s17, Known = False, Degree = 2, Duration = 0.1 -->
    <defs>
     <path d="M 31 75.875 
Q 24.46875 64.65625 21.28125 53.65625 
Q 18.109375 42.671875 18.109375 31.390625 
Q 18.109375 20.125 21.3125 9.0625 
Q 24.515625 -2 31 -13.1875 
L 23.1875 -13.1875 
Q 15.875 -1.703125 12.234375 9.375 
Q 8.59375 20.453125 8.59375 31.390625 
Q 8.59375 42.28125 12.203125 53.3125 
Q 15.828125 64.359375 23.1875 75.875 
z
" id="DejaVuSans-40"/>
     <path d="M 10.984375 1.515625 
L 10.984375 10.5 
Q 14.703125 8.734375 18.5 7.8125 
Q 22.3125 6.890625 25.984375 6.890625 
Q 35.75 6.890625 40.890625 13.453125 
Q 46.046875 20.015625 46.78125 33.40625 
Q 43.953125 29.203125 39.59375 26.953125 
Q 35.25 24.703125 29.984375 24.703125 
Q 19.046875 24.703125 12.671875 31.3125 
Q 6.296875 37.9375 6.296875 49.421875 
Q 6.296875 60.640625 12.9375 67.421875 
Q 19.578125 74.21875 30.609375 74.21875 
Q 43.265625 74.21875 49.921875 64.515625 
Q 56.59375 54.828125 56.59375 36.375 
Q 56.59375 19.140625 48.40625 8.859375 
Q 40.234375 -1.421875 26.421875 -1.421875 
Q 22.703125 -1.421875 18.890625 -0.6875 
Q 15.09375 0.046875 10.984375 1.515625 
z
M 30.609375 32.421875 
Q 37.25 32.421875 41.125 36.953125 
Q 45.015625 41.5 45.015625 49.421875 
Q 45.015625 57.28125 41.125 61.84375 
Q 37.25 66.40625 30.609375 66.40625 
Q 23.96875 66.40625 20.09375 61.84375 
Q 16.21875 57.28125 16.21875 49.421875 
Q 16.21875 41.5 20.09375 36.953125 
Q 23.96875 32.421875 30.609375 32.421875 
z
" id="DejaVuSans-57"/>
     <path d="M 8.015625 75.875 
L 15.828125 75.875 
Q 23.140625 64.359375 26.78125 53.3125 
Q 30.421875 42.28125 30.421875 31.390625 
Q 30.421875 20.453125 26.78125 9.375 
Q 23.140625 -1.703125 15.828125 -13.1875 
L 8.015625 -13.1875 
Q 14.5 -2 17.703125 9.0625 
Q 20.90625 20.125 20.90625 31.390625 
Q 20.90625 42.671875 17.703125 53.65625 
Q 14.5 64.65625 8.015625 75.875 
z
" id="DejaVuSans-41"/>
     <path id="DejaVuSans-32"/>
     <path d="M 53.515625 70.515625 
L 53.515625 60.890625 
Q 47.90625 63.578125 42.921875 64.890625 
Q 37.9375 66.21875 33.296875 66.21875 
Q 25.25 66.21875 20.875 63.09375 
Q 16.5 59.96875 16.5 54.203125 
Q 16.5 49.359375 19.40625 46.890625 
Q 22.3125 44.4375 30.421875 42.921875 
L 36.375 41.703125 
Q 47.40625 39.59375 52.65625 34.296875 
Q 57.90625 29 57.90625 20.125 
Q 57.90625 9.515625 50.796875 4.046875 
Q 43.703125 -1.421875 29.984375 -1.421875 
Q 24.8125 -1.421875 18.96875 -0.25 
Q 13.140625 0.921875 6.890625 3.21875 
L 6.890625 13.375 
Q 12.890625 10.015625 18.65625 8.296875 
Q 24.421875 6.59375 29.984375 6.59375 
Q 38.421875 6.59375 43.015625 9.90625 
Q 47.609375 13.234375 47.609375 19.390625 
Q 47.609375 24.75 44.3125 27.78125 
Q 41.015625 30.8125 33.5 32.328125 
L 27.484375 33.5 
Q 16.453125 35.6875 11.515625 40.375 
Q 6.59375 45.0625 6.59375 53.421875 
Q 6.59375 63.09375 13.40625 68.65625 
Q 20.21875 74.21875 32.171875 74.21875 
Q 37.3125 74.21875 42.625 73.28125 
Q 47.953125 72.359375 53.515625 70.515625 
z
" id="DejaVuSans-83"/>
     <path d="M 8.5 21.578125 
L 8.5 54.6875 
L 17.484375 54.6875 
L 17.484375 21.921875 
Q 17.484375 14.15625 20.5 10.265625 
Q 23.53125 6.390625 29.59375 6.390625 
Q 36.859375 6.390625 41.078125 11.03125 
Q 45.3125 15.671875 45.3125 23.6875 
L 45.3125 54.6875 
L 54.296875 54.6875 
L 54.296875 0 
L 45.3125 0 
L 45.3125 8.40625 
Q 42.046875 3.421875 37.71875 1 
Q 33.40625 -1.421875 27.6875 -1.421875 
Q 18.265625 -1.421875 13.375 4.4375 
Q 8.5 10.296875 8.5 21.578125 
z
M 31.109375 56 
z
" id="DejaVuSans-117"/>
     <path d="M 48.6875 27.296875 
Q 48.6875 37.203125 44.609375 42.84375 
Q 40.53125 48.484375 33.40625 48.484375 
Q 26.265625 48.484375 22.1875 42.84375 
Q 18.109375 37.203125 18.109375 27.296875 
Q 18.109375 17.390625 22.1875 11.75 
Q 26.265625 6.109375 33.40625 6.109375 
Q 40.53125 6.109375 44.609375 11.75 
Q 48.6875 17.390625 48.6875 27.296875 
z
M 18.109375 46.390625 
Q 20.953125 51.265625 25.265625 53.625 
Q 29.59375 56 35.59375 56 
Q 45.5625 56 51.78125 48.09375 
Q 58.015625 40.1875 58.015625 27.296875 
Q 58.015625 14.40625 51.78125 6.484375 
Q 45.5625 -1.421875 35.59375 -1.421875 
Q 29.59375 -1.421875 25.265625 0.953125 
Q 20.953125 3.328125 18.109375 8.203125 
L 18.109375 0 
L 9.078125 0 
L 9.078125 75.984375 
L 18.109375 75.984375 
z
" id="DejaVuSans-98"/>
     <path d="M 9.421875 54.6875 
L 18.40625 54.6875 
L 18.40625 -0.984375 
Q 18.40625 -11.421875 14.421875 -16.109375 
Q 10.453125 -20.796875 1.609375 -20.796875 
L -1.8125 -20.796875 
L -1.8125 -13.1875 
L 0.59375 -13.1875 
Q 5.71875 -13.1875 7.5625 -10.8125 
Q 9.421875 -8.453125 9.421875 -0.984375 
z
M 9.421875 75.984375 
L 18.40625 75.984375 
L 18.40625 64.59375 
L 9.421875 64.59375 
z
" id="DejaVuSans-106"/>
     <path d="M 56.203125 29.59375 
L 56.203125 25.203125 
L 14.890625 25.203125 
Q 15.484375 15.921875 20.484375 11.0625 
Q 25.484375 6.203125 34.421875 6.203125 
Q 39.59375 6.203125 44.453125 7.46875 
Q 49.3125 8.734375 54.109375 11.28125 
L 54.109375 2.78125 
Q 49.265625 0.734375 44.1875 -0.34375 
Q 39.109375 -1.421875 33.890625 -1.421875 
Q 20.796875 -1.421875 13.15625 6.1875 
Q 5.515625 13.8125 5.515625 26.8125 
Q 5.515625 40.234375 12.765625 48.109375 
Q 20.015625 56 32.328125 56 
Q 43.359375 56 49.78125 48.890625 
Q 56.203125 41.796875 56.203125 29.59375 
z
M 47.21875 32.234375 
Q 47.125 39.59375 43.09375 43.984375 
Q 39.0625 48.390625 32.421875 48.390625 
Q 24.90625 48.390625 20.390625 44.140625 
Q 15.875 39.890625 15.1875 32.171875 
z
" id="DejaVuSans-101"/>
     <path d="M 48.78125 52.59375 
L 48.78125 44.1875 
Q 44.96875 46.296875 41.140625 47.34375 
Q 37.3125 48.390625 33.40625 48.390625 
Q 24.65625 48.390625 19.8125 42.84375 
Q 14.984375 37.3125 14.984375 27.296875 
Q 14.984375 17.28125 19.8125 11.734375 
Q 24.65625 6.203125 33.40625 6.203125 
Q 37.3125 6.203125 41.140625 7.25 
Q 44.96875 8.296875 48.78125 10.40625 
L 48.78125 2.09375 
Q 45.015625 0.34375 40.984375 -0.53125 
Q 36.96875 -1.421875 32.421875 -1.421875 
Q 20.0625 -1.421875 12.78125 6.34375 
Q 5.515625 14.109375 5.515625 27.296875 
Q 5.515625 40.671875 12.859375 48.328125 
Q 20.21875 56 33.015625 56 
Q 37.15625 56 41.109375 55.140625 
Q 45.0625 54.296875 48.78125 52.59375 
z
" id="DejaVuSans-99"/>
     <path d="M 18.3125 70.21875 
L 18.3125 54.6875 
L 36.8125 54.6875 
L 36.8125 47.703125 
L 18.3125 47.703125 
L 18.3125 18.015625 
Q 18.3125 11.328125 20.140625 9.421875 
Q 21.96875 7.515625 27.59375 7.515625 
L 36.8125 7.515625 
L 36.8125 0 
L 27.59375 0 
Q 17.1875 0 13.234375 3.875 
Q 9.28125 7.765625 9.28125 18.015625 
L 9.28125 47.703125 
L 2.6875 47.703125 
L 2.6875 54.6875 
L 9.28125 54.6875 
L 9.28125 70.21875 
z
" id="DejaVuSans-116"/>
     <path d="M 11.71875 12.40625 
L 22.015625 12.40625 
L 22.015625 0 
L 11.71875 0 
z
M 11.71875 51.703125 
L 22.015625 51.703125 
L 22.015625 39.3125 
L 11.71875 39.3125 
z
" id="DejaVuSans-58"/>
     <path d="M 44.28125 53.078125 
L 44.28125 44.578125 
Q 40.484375 46.53125 36.375 47.5 
Q 32.28125 48.484375 27.875 48.484375 
Q 21.1875 48.484375 17.84375 46.4375 
Q 14.5 44.390625 14.5 40.28125 
Q 14.5 37.15625 16.890625 35.375 
Q 19.28125 33.59375 26.515625 31.984375 
L 29.59375 31.296875 
Q 39.15625 29.25 43.1875 25.515625 
Q 47.21875 21.78125 47.21875 15.09375 
Q 47.21875 7.46875 41.1875 3.015625 
Q 35.15625 -1.421875 24.609375 -1.421875 
Q 20.21875 -1.421875 15.453125 -0.5625 
Q 10.6875 0.296875 5.421875 2 
L 5.421875 11.28125 
Q 10.40625 8.6875 15.234375 7.390625 
Q 20.0625 6.109375 24.8125 6.109375 
Q 31.15625 6.109375 34.5625 8.28125 
Q 37.984375 10.453125 37.984375 14.40625 
Q 37.984375 18.0625 35.515625 20.015625 
Q 33.0625 21.96875 24.703125 23.78125 
L 21.578125 24.515625 
Q 13.234375 26.265625 9.515625 29.90625 
Q 5.8125 33.546875 5.8125 39.890625 
Q 5.8125 47.609375 11.28125 51.796875 
Q 16.75 56 26.8125 56 
Q 31.78125 56 36.171875 55.265625 
Q 40.578125 54.546875 44.28125 53.078125 
z
" id="DejaVuSans-115"/>
     <path d="M 11.71875 12.40625 
L 22.015625 12.40625 
L 22.015625 4 
L 14.015625 -11.625 
L 7.71875 -11.625 
L 11.71875 4 
z
" id="DejaVuSans-44"/>
     <path d="M 9.8125 72.90625 
L 19.671875 72.90625 
L 19.671875 42.09375 
L 52.390625 72.90625 
L 65.09375 72.90625 
L 28.90625 38.921875 
L 67.671875 0 
L 54.6875 0 
L 19.671875 35.109375 
L 19.671875 0 
L 9.8125 0 
z
" id="DejaVuSans-75"/>
     <path d="M 54.890625 33.015625 
L 54.890625 0 
L 45.90625 0 
L 45.90625 32.71875 
Q 45.90625 40.484375 42.875 44.328125 
Q 39.84375 48.1875 33.796875 48.1875 
Q 26.515625 48.1875 22.3125 43.546875 
Q 18.109375 38.921875 18.109375 30.90625 
L 18.109375 0 
L 9.078125 0 
L 9.078125 54.6875 
L 18.109375 54.6875 
L 18.109375 46.1875 
Q 21.34375 51.125 25.703125 53.5625 
Q 30.078125 56 35.796875 56 
Q 45.21875 56 50.046875 50.171875 
Q 54.890625 44.34375 54.890625 33.015625 
z
" id="DejaVuSans-110"/>
     <path d="M 30.609375 48.390625 
Q 23.390625 48.390625 19.1875 42.75 
Q 14.984375 37.109375 14.984375 27.296875 
Q 14.984375 17.484375 19.15625 11.84375 
Q 23.34375 6.203125 30.609375 6.203125 
Q 37.796875 6.203125 41.984375 11.859375 
Q 46.1875 17.53125 46.1875 27.296875 
Q 46.1875 37.015625 41.984375 42.703125 
Q 37.796875 48.390625 30.609375 48.390625 
z
M 30.609375 56 
Q 42.328125 56 49.015625 48.375 
Q 55.71875 40.765625 55.71875 27.296875 
Q 55.71875 13.875 49.015625 6.21875 
Q 42.328125 -1.421875 30.609375 -1.421875 
Q 18.84375 -1.421875 12.171875 6.21875 
Q 5.515625 13.875 5.515625 27.296875 
Q 5.515625 40.765625 12.171875 48.375 
Q 18.84375 56 30.609375 56 
z
" id="DejaVuSans-111"/>
     <path d="M 4.203125 54.6875 
L 13.1875 54.6875 
L 24.421875 12.015625 
L 35.59375 54.6875 
L 46.1875 54.6875 
L 57.421875 12.015625 
L 68.609375 54.6875 
L 77.59375 54.6875 
L 63.28125 0 
L 52.6875 0 
L 40.921875 44.828125 
L 29.109375 0 
L 18.5 0 
z
" id="DejaVuSans-119"/>
     <path d="M 10.59375 45.40625 
L 73.1875 45.40625 
L 73.1875 37.203125 
L 10.59375 37.203125 
z
M 10.59375 25.484375 
L 73.1875 25.484375 
L 73.1875 17.1875 
L 10.59375 17.1875 
z
" id="DejaVuSans-61"/>
     <path d="M 9.8125 72.90625 
L 51.703125 72.90625 
L 51.703125 64.59375 
L 19.671875 64.59375 
L 19.671875 43.109375 
L 48.578125 43.109375 
L 48.578125 34.8125 
L 19.671875 34.8125 
L 19.671875 0 
L 9.8125 0 
z
" id="DejaVuSans-70"/>
     <path d="M 34.28125 27.484375 
Q 23.390625 27.484375 19.1875 25 
Q 14.984375 22.515625 14.984375 16.5 
Q 14.984375 11.71875 18.140625 8.90625 
Q 21.296875 6.109375 26.703125 6.109375 
Q 34.1875 6.109375 38.703125 11.40625 
Q 43.21875 16.703125 43.21875 25.484375 
L 43.21875 27.484375 
z
M 52.203125 31.203125 
L 52.203125 0 
L 43.21875 0 
L 43.21875 8.296875 
Q 40.140625 3.328125 35.546875 0.953125 
Q 30.953125 -1.421875 24.3125 -1.421875 
Q 15.921875 -1.421875 10.953125 3.296875 
Q 6 8.015625 6 15.921875 
Q 6 25.140625 12.171875 29.828125 
Q 18.359375 34.515625 30.609375 34.515625 
L 43.21875 34.515625 
L 43.21875 35.40625 
Q 43.21875 41.609375 39.140625 45 
Q 35.0625 48.390625 27.6875 48.390625 
Q 23 48.390625 18.546875 47.265625 
Q 14.109375 46.140625 10.015625 43.890625 
L 10.015625 52.203125 
Q 14.9375 54.109375 19.578125 55.046875 
Q 24.21875 56 28.609375 56 
Q 40.484375 56 46.34375 49.84375 
Q 52.203125 43.703125 52.203125 31.203125 
z
" id="DejaVuSans-97"/>
     <path d="M 9.421875 75.984375 
L 18.40625 75.984375 
L 18.40625 0 
L 9.421875 0 
z
" id="DejaVuSans-108"/>
     <path d="M 19.671875 64.796875 
L 19.671875 8.109375 
L 31.59375 8.109375 
Q 46.6875 8.109375 53.6875 14.9375 
Q 60.6875 21.78125 60.6875 36.53125 
Q 60.6875 51.171875 53.6875 57.984375 
Q 46.6875 64.796875 31.59375 64.796875 
z
M 9.8125 72.90625 
L 30.078125 72.90625 
Q 51.265625 72.90625 61.171875 64.09375 
Q 71.09375 55.28125 71.09375 36.53125 
Q 71.09375 17.671875 61.125 8.828125 
Q 51.171875 0 30.078125 0 
L 9.8125 0 
z
" id="DejaVuSans-68"/>
     <path d="M 45.40625 27.984375 
Q 45.40625 37.75 41.375 43.109375 
Q 37.359375 48.484375 30.078125 48.484375 
Q 22.859375 48.484375 18.828125 43.109375 
Q 14.796875 37.75 14.796875 27.984375 
Q 14.796875 18.265625 18.828125 12.890625 
Q 22.859375 7.515625 30.078125 7.515625 
Q 37.359375 7.515625 41.375 12.890625 
Q 45.40625 18.265625 45.40625 27.984375 
z
M 54.390625 6.78125 
Q 54.390625 -7.171875 48.1875 -13.984375 
Q 42 -20.796875 29.203125 -20.796875 
Q 24.46875 -20.796875 20.265625 -20.09375 
Q 16.0625 -19.390625 12.109375 -17.921875 
L 12.109375 -9.1875 
Q 16.0625 -11.328125 19.921875 -12.34375 
Q 23.78125 -13.375 27.78125 -13.375 
Q 36.625 -13.375 41.015625 -8.765625 
Q 45.40625 -4.15625 45.40625 5.171875 
L 45.40625 9.625 
Q 42.625 4.78125 38.28125 2.390625 
Q 33.9375 0 27.875 0 
Q 17.828125 0 11.671875 7.65625 
Q 5.515625 15.328125 5.515625 27.984375 
Q 5.515625 40.671875 11.671875 48.328125 
Q 17.828125 56 27.875 56 
Q 33.9375 56 38.28125 53.609375 
Q 42.625 51.21875 45.40625 46.390625 
L 45.40625 54.6875 
L 54.390625 54.6875 
z
" id="DejaVuSans-103"/>
     <path d="M 41.109375 46.296875 
Q 39.59375 47.171875 37.8125 47.578125 
Q 36.03125 48 33.890625 48 
Q 26.265625 48 22.1875 43.046875 
Q 18.109375 38.09375 18.109375 28.8125 
L 18.109375 0 
L 9.078125 0 
L 9.078125 54.6875 
L 18.109375 54.6875 
L 18.109375 46.1875 
Q 20.953125 51.171875 25.484375 53.578125 
Q 30.03125 56 36.53125 56 
Q 37.453125 56 38.578125 55.875 
Q 39.703125 55.765625 41.0625 55.515625 
z
" id="DejaVuSans-114"/>
     <path d="M 9.421875 54.6875 
L 18.40625 54.6875 
L 18.40625 0 
L 9.421875 0 
z
M 9.421875 75.984375 
L 18.40625 75.984375 
L 18.40625 64.59375 
L 9.421875 64.59375 
z
" id="DejaVuSans-105"/>
     <path d="M 10.6875 12.40625 
L 21 12.40625 
L 21 0 
L 10.6875 0 
z
" id="DejaVuSans-46"/>
    </defs>
    <g transform="translate(49.741875 35.472)scale(0.12 -0.12)">
     <use xlink:href="#DejaVuSans-40"/>
     <use x="39.013672" xlink:href="#DejaVuSans-49"/>
     <use x="102.636719" xlink:href="#DejaVuSans-57"/>
     <use x="166.259766" xlink:href="#DejaVuSans-41"/>
     <use x="205.273438" xlink:href="#DejaVuSans-32"/>
     <use x="237.060547" xlink:href="#DejaVuSans-83"/>
     <use x="300.537109" xlink:href="#DejaVuSans-117"/>
     <use x="363.916016" xlink:href="#DejaVuSans-98"/>
     <use x="427.392578" xlink:href="#DejaVuSans-106"/>
     <use x="455.175781" xlink:href="#DejaVuSans-101"/>
     <use x="516.699219" xlink:href="#DejaVuSans-99"/>
     <use x="571.679688" xlink:href="#DejaVuSans-116"/>
     <use x="610.888672" xlink:href="#DejaVuSans-58"/>
     <use x="644.580078" xlink:href="#DejaVuSans-32"/>
     <use x="676.367188" xlink:href="#DejaVuSans-115"/>
     <use x="728.466797" xlink:href="#DejaVuSans-49"/>
     <use x="792.089844" xlink:href="#DejaVuSans-55"/>
     <use x="855.712891" xlink:href="#DejaVuSans-44"/>
     <use x="887.5" xlink:href="#DejaVuSans-32"/>
     <use x="919.287109" xlink:href="#DejaVuSans-75"/>
     <use x="984.863281" xlink:href="#DejaVuSans-110"/>
     <use x="1048.242188" xlink:href="#DejaVuSans-111"/>
     <use x="1109.423828" xlink:href="#DejaVuSans-119"/>
     <use x="1191.210938" xlink:href="#DejaVuSans-110"/>
     <use x="1254.589844" xlink:href="#DejaVuSans-32"/>
     <use x="1286.376953" xlink:href="#DejaVuSans-61"/>
     <use x="1370.166016" xlink:href="#DejaVuSans-32"/>
     <use x="1401.953125" xlink:href="#DejaVuSans-70"/>
     <use x="1459.332031" xlink:href="#DejaVuSans-97"/>
     <use x="1520.611328" xlink:href="#DejaVuSans-108"/>
     <use x="1548.394531" xlink:href="#DejaVuSans-115"/>
     <use x="1600.494141" xlink:href="#DejaVuSans-101"/>
     <use x="1662.017578" xlink:href="#DejaVuSans-44"/>
     <use x="1693.804688" xlink:href="#DejaVuSans-32"/>
     <use x="1725.591797" xlink:href="#DejaVuSans-68"/>
     <use x="1802.59375" xlink:href="#DejaVuSans-101"/>
     <use x="1864.117188" xlink:href="#DejaVuSans-103"/>
     <use x="1927.59375" xlink:href="#DejaVuSans-114"/>
     <use x="1968.675781" xlink:href="#DejaVuSans-101"/>
     <use x="2030.199219" xlink:href="#DejaVuSans-101"/>
     <use x="2091.722656" xlink:href="#DejaVuSans-32"/>
     <use x="2123.509766" xlink:href="#DejaVuSans-61"/>
     <use x="2207.298828" xlink:href="#DejaVuSans-32"/>
     <use x="2239.085938" xlink:href="#DejaVuSans-50"/>
     <use x="2302.708984" xlink:href="#DejaVuSans-44"/>
     <use x="2334.496094" xlink:href="#DejaVuSans-32"/>
     <use x="2366.283203" xlink:href="#DejaVuSans-68"/>
     <use x="2443.285156" xlink:href="#DejaVuSans-117"/>
     <use x="2506.664062" xlink:href="#DejaVuSans-114"/>
     <use x="2547.777344" xlink:href="#DejaVuSans-97"/>
     <use x="2609.056641" xlink:href="#DejaVuSans-116"/>
     <use x="2648.265625" xlink:href="#DejaVuSans-105"/>
     <use x="2676.048828" xlink:href="#DejaVuSans-111"/>
     <use x="2737.230469" xlink:href="#DejaVuSans-110"/>
     <use x="2800.609375" xlink:href="#DejaVuSans-32"/>
     <use x="2832.396484" xlink:href="#DejaVuSans-61"/>
     <use x="2916.185547" xlink:href="#DejaVuSans-32"/>
     <use x="2947.972656" xlink:href="#DejaVuSans-48"/>
     <use x="3011.595703" xlink:href="#DejaVuSans-46"/>
     <use x="3043.382812" xlink:href="#DejaVuSans-49"/>
    </g>
   </g>
  </g>
 </g>
 <defs>
  <clipPath id="p4fe567c626">
   <rect height="266.112" width="357.12" x="57.6" y="41.472"/>
  </clipPath>
 </defs>
</svg>
