<?xml version="1.0" encoding="utf-8" standalone="no"?>
<!DOCTYPE svg PUBLIC "-//W3C//DTD SVG 1.1//EN"
  "http://www.w3.org/Graphics/SVG/1.1/DTD/svg11.dtd">
<!-- Created with matplotlib (https://matplotlib.org/) -->
<svg height="345.6pt" version="1.1" viewBox="0 0 460.8 345.6" width="460.8pt" xmlns="http://www.w3.org/2000/svg" xmlns:xlink="http://www.w3.org/1999/xlink">
 <defs>
  <style type="text/css">
*{stroke-linecap:butt;stroke-linejoin:round;}
  </style>
 </defs>
 <g id="figure_1">
  <g id="patch_1">
   <path d="M 0 345.6 
L 460.8 345.6 
L 460.8 0 
L 0 0 
z
" style="fill:#ffffff;"/>
  </g>
  <g id="axes_1">
   <g id="patch_2">
    <path d="M 57.6 307.584 
L 414.72 307.584 
L 414.72 41.472 
L 57.6 41.472 
z
" style="fill:#ffffff;"/>
   </g>
   <g id="line2d_1">
    <path clip-path="url(#p96cfdad9cc)" d="M 397.08972 63.203995 
L 397.322646 63.203995 
L 397.322646 63.46415 
L 397.08972 63.46415 
L 396.623869 63.203995 
L 396.390944 63.46415 
L 396.623869 63.203995 
L 396.623869 62.683684 
L 396.158019 62.683684 
L 395.925093 62.943839 
L 396.856795 62.943839 
L 396.390944 62.943839 
L 395.692168 62.683684 
L 395.459242 62.163373 
L 396.856795 61.120702 
L 397.322646 61.120702 
L 397.555571 61.380858 
L 397.322646 61.120702 
L 397.08972 61.380858 
L 396.390944 61.380858 
L 396.390944 61.120702 
L 396.623869 60.600391 
L 397.322646 60.600391 
L 397.322646 60.08008 
L 397.788496 59.297566 
L 397.788496 59.557721 
L 398.021422 59.817877 
L 397.08972 59.297566 
L 396.856795 59.297566 
L 397.08972 59.557721 
L 397.08972 59.557721 
L 397.555571 58.256944 
L 397.555571 57.734584 
L 397.788496 57.734584 
L 398.254347 58.517099 
L 397.788496 59.03741 
L 398.021422 59.297566 
L 398.487273 58.777255 
L 398.487273 57.996788 
L 398.254347 57.214273 
L 398.021422 56.954118 
L 398.021422 56.693963 
L 398.021422 57.214273 
L 397.788496 57.474429 
L 398.021422 57.474429 
L 398.254347 56.954118 
L 398.021422 56.693963 
L 397.555571 56.693963 
L 397.555571 57.214273 
L 397.555571 56.954118 
L 397.788496 56.954118 
L 397.555571 56.693963 
L 397.788496 56.954118 
L 398.021422 56.954118 
L 397.788496 56.954118 
L 397.555571 56.693963 
L 397.322646 56.173652 
L 396.856795 55.913496 
L 396.623869 55.651292 
L 396.856795 55.651292 
L 396.856795 56.433807 
L 396.856795 56.173652 
L 397.555571 56.173652 
L 397.555571 56.173652 
L 397.555571 56.433807 
L 397.08972 56.954118 
L 396.623869 56.954118 
L 396.856795 56.693963 
L 396.856795 56.433807 
L 396.623869 55.913496 
L 396.390944 55.913496 
L 396.623869 56.173652 
L 396.856795 56.693963 
L 397.555571 56.954118 
L 398.021422 56.433807 
L 398.021422 56.173652 
L 397.08972 56.173652 
L 397.08972 56.173652 
L 397.322646 56.954118 
L 397.08972 56.954118 
L 397.08972 56.433807 
L 397.322646 56.693963 
L 397.322646 56.954118 
L 397.322646 56.693963 
L 397.08972 56.173652 
L 396.856795 56.693963 
L 396.390944 57.214273 
L 396.390944 57.214273 
L 396.856795 57.214273 
L 396.856795 56.954118 
L 396.390944 57.474429 
L 395.459242 57.734584 
L 397.322646 57.734584 
L 396.856795 57.734584 
L 396.390944 57.996788 
L 396.390944 58.517099 
L 396.856795 58.517099 
L 397.322646 57.996788 
L 397.788496 57.996788 
L 398.021422 57.734584 
L 397.788496 57.474429 
L 396.856795 57.474429 
L 396.158019 57.214273 
L 395.692168 56.693963 
L 395.459242 56.693963 
L 396.390944 56.433807 
L 397.08972 56.433807 
L 397.322646 56.173652 
L 397.08972 56.433807 
L 397.08972 57.474429 
L 397.322646 57.214273 
L 396.856795 57.734584 
L 396.158019 57.734584 
L 396.158019 57.734584 
L 396.158019 57.474429 
L 396.390944 56.693963 
L 396.158019 56.693963 
L 396.856795 56.693963 
L 396.158019 56.693963 
L 396.158019 56.954118 
L 396.158019 56.433807 
L 395.692168 56.433807 
L 395.692168 56.433807 
L 395.925093 56.173652 
L 396.390944 55.391137 
L 396.390944 55.651292 
L 395.925093 55.651292 
L 395.459242 55.913496 
L 395.459242 55.913496 
L 397.322646 55.130981 
L 397.08972 55.130981 
L 396.158019 55.391137 
L 395.692168 55.391137 
L 396.158019 55.391137 
L 396.623869 55.651292 
L 396.623869 55.391137 
L 396.856795 55.130981 
L 396.623869 54.870826 
L 396.158019 55.130981 
L 395.459242 55.651292 
L 395.226317 56.173652 
L 395.692168 56.433807 
L 396.390944 56.433807 
L 396.856795 56.173652 
L 396.856795 55.913496 
L 396.390944 55.913496 
L 395.692168 55.651292 
L 395.459242 54.870826 
L 395.226317 54.870826 
L 395.925093 54.870826 
L 395.925093 54.61067 
L 395.459242 54.61067 
L 394.527541 53.830204 
L 394.993392 53.830204 
L 395.925093 54.350515 
L 396.390944 54.090359 
L 396.158019 53.568 
L 395.925093 53.568 
L 395.925093 54.090359 
L 396.390944 54.350515 
L 396.623869 54.61067 
L 396.390944 54.870826 
L 394.993392 54.870826 
L 394.760466 54.61067 
L 394.760466 54.090359 
L 395.226317 53.830204 
L 395.692168 54.090359 
L 395.925093 54.090359 
L 395.459242 54.350515 
L 394.294615 54.350515 
L 393.359808 54.61067 
L 392.428106 55.130981 
L 389.865927 55.913496 
L 384.272611 56.954118 
L 380.775624 57.474429 
L 373.318906 60.340236 
L 369.123142 62.163373 
L 364.927379 63.203995 
L 360.498691 64.766976 
L 355.837077 66.850268 
L 350.942538 68.673405 
L 346.516955 69.714027 
L 338.125429 73.100144 
L 332.997964 74.923281 
L 327.637574 77.006573 
L 322.97596 79.350021 
L 318.08142 82.21378 
L 306.428938 88.203501 
L 296.406934 93.670862 
L 291.978246 96.536669 
L 287.549557 99.660583 
L 283.589825 102.786546 
L 279.859913 106.170615 
L 274.965374 109.296578 
L 269.372058 112.680647 
L 257.253725 121.27602 
L 251.194559 126.223071 
L 244.899361 130.909966 
L 238.374344 134.55624 
L 231.849327 137.419998 
L 225.790161 140.285805 
L 209.941916 150.700218 
L 204.814451 153.566025 
L 195.724148 157.732609 
L 191.761311 159.555746 
L 188.26743 160.856523 
L 181.506381 163.72233 
L 179.410053 164.242641 
L 178.245425 165.023107 
L 177.313724 166.065778 
L 176.844767 166.846244 
L 176.844767 167.366555 
L 177.077693 167.366555 
L 177.779575 168.669381 
L 178.245425 170.752673 
L 178.245425 172.055499 
L 178.0125 173.096121 
L 178.711276 174.919257 
L 178.711276 175.699724 
L 178.478351 176.742394 
L 178.478351 177.783016 
L 178.0125 178.565531 
L 176.844767 179.606153 
L 176.378916 180.386619 
L 176.378916 181.689445 
L 174.981364 184.815407 
L 174.282588 185.335718 
L 173.583812 186.116185 
L 172.419184 186.8987 
L 171.717303 187.679166 
L 171.251452 188.981992 
L 171.251452 190.80308 
L 171.018526 191.84575 
L 170.552676 192.366061 
L 169.853899 192.105906 
L 169.388048 192.105906 
L 169.155123 192.626217 
L 169.155123 193.929043 
L 168.922198 194.189198 
L 168.456347 194.189198 
L 167.990496 194.449353 
L 167.29172 195.231868 
L 167.29172 195.492024 
L 167.757571 195.492024 
L 166.825869 196.532646 
L 166.825869 196.532646 
L 166.589838 196.27249 
L 165.425211 197.575316 
L 165.192285 198.355782 
L 165.658136 198.615938 
L 165.891062 199.136249 
L 165.658136 199.396404 
L 165.658136 199.658608 
L 165.891062 199.918764 
L 164.95936 199.918764 
L 164.726435 200.439075 
L 164.493509 201.479696 
L 164.027658 202.002056 
L 163.561807 202.002056 
L 163.561807 202.522367 
L 163.794733 203.042678 
L 164.260584 203.302833 
L 164.027658 203.825193 
L 163.095957 204.085348 
L 163.095957 204.865814 
L 162.863031 205.646281 
L 162.863031 206.428796 
L 160.530671 207.729573 
L 160.763597 207.991777 
L 161.465479 208.512088 
L 161.465479 209.55271 
L 160.996522 210.59538 
L 160.530671 210.855535 
L 160.297746 210.855535 
L 160.530671 211.375846 
L 160.530671 211.896157 
L 160.297746 212.158361 
L 160.064821 212.158361 
L 159.831895 212.418517 
L 159.366044 214.241653 
L 159.59897 214.501809 
L 159.366044 214.241653 
L 159.133119 214.241653 
L 159.59897 215.542431 
L 159.366044 216.062742 
L 159.366044 217.365567 
L 158.434343 217.885878 
L 158.434343 217.885878 
L 157.968492 219.188704 
L 157.735566 219.188704 
L 157.968492 218.928549 
L 158.201417 219.709015 
L 157.502641 221.271996 
L 157.502641 221.271996 
L 157.502641 222.572774 
L 157.502641 222.572774 
L 157.735566 222.572774 
L 157.735566 224.656066 
L 157.968492 225.438581 
L 157.968492 225.438581 
L 157.735566 225.438581 
L 157.502641 225.698736 
L 157.269716 226.219047 
L 156.803865 225.698736 
L 156.803865 225.958892 
L 156.570939 226.219047 
L 156.570939 226.739358 
L 157.03679 227.521873 
L 157.03679 230.905942 
L 156.338014 231.428302 
L 155.403207 231.688457 
L 155.403207 231.948613 
L 155.636132 232.468924 
L 155.636132 234.552216 
L 156.101983 234.552216 
L 156.101983 234.29206 
L 156.101983 234.29206 
L 155.636132 234.552216 
L 155.170281 235.072527 
L 155.170281 235.594886 
L 156.338014 236.115197 
L 156.338014 236.635508 
L 155.170281 237.155819 
L 155.636132 238.458645 
L 155.636132 238.198489 
L 155.403207 238.198489 
L 155.403207 239.761471 
L 155.170281 240.021626 
L 155.170281 240.281781 
L 154.70443 238.978956 
L 154.70443 239.499267 
L 154.937356 240.281781 
L 154.70443 240.541937 
L 154.471505 240.281781 
L 154.471505 242.104918 
L 154.471505 242.104918 
L 154.937356 241.844763 
L 155.170281 241.844763 
L 155.403207 242.104918 
L 156.101983 242.625229 
L 157.269716 242.885385 
L 159.133119 242.885385 
L 159.831895 242.365074 
L 161.229448 242.365074 
L 164.027658 242.625229 
L 166.825869 243.665851 
L 169.620974 244.448366 
L 175.913066 244.968677 
L 179.177127 244.968677 
L 182.674114 245.228832 
L 186.167995 245.749143 
L 189.664982 246.531658 
L 192.925938 247.57228 
L 196.189999 248.094639 
L 204.581525 249.135261 
L 208.075407 249.915727 
L 215.06938 252.261224 
L 219.498069 252.521379 
L 223.457801 252.521379 
L 227.653564 253.04169 
L 231.616402 253.301845 
L 237.908493 253.301845 
L 241.40548 253.822156 
L 244.433511 254.082312 
L 248.862199 255.124982 
L 250.492677 255.385138 
L 251.427484 255.905449 
L 251.893335 256.687963 
L 252.592111 257.46843 
L 252.825037 257.46843 
L 252.592111 257.46843 
L 251.66041 258.509052 
L 249.560975 261.374859 
L 248.629274 261.635014 
L 247.464647 262.155325 
L 246.067094 263.197995 
L 245.132287 263.197995 
L 245.132287 263.458151 
L 245.598138 263.718306 
L 246.067094 264.238617 
L 246.067094 264.758928 
L 244.899361 266.061754 
L 244.666436 267.104424 
L 245.132287 267.624735 
L 245.598138 267.884891 
L 245.365212 267.624735 
L 245.132287 267.884891 
L 245.365212 268.405202 
L 246.067094 268.665357 
L 246.30002 269.187717 
L 245.365212 271.008805 
L 244.899361 270.488494 
L 244.433511 271.008805 
L 244.433511 271.008805 
L 244.433511 272.051475 
L 244.666436 272.311631 
L 244.666436 272.311631 
L 244.200585 272.051475 
L 243.501809 272.051475 
L 243.035958 272.311631 
L 243.035958 272.051475 
L 243.268884 271.79132 
L 243.268884 270.228338 
L 243.268884 271.008805 
L 243.734734 271.008805 
L 243.96766 270.748649 
L 243.268884 270.228338 
L 242.570107 270.228338 
L 242.337182 271.008805 
L 242.337182 271.531164 
L 243.035958 271.531164 
L 243.501809 271.79132 
L 243.734734 272.831941 
L 244.200585 271.531164 
L 243.96766 272.051475 
L 243.734734 272.051475 
L 243.734734 271.79132 
L 243.96766 271.79132 
L 243.734734 272.311631 
L 243.501809 272.311631 
L 243.501809 272.311631 
L 243.734734 272.051475 
L 243.734734 272.051475 
L 242.803033 272.311631 
L 243.501809 271.531164 
L 243.96766 271.271009 
L 243.734734 271.531164 
L 243.268884 271.531164 
L 243.268884 271.531164 
L 243.734734 271.271009 
L 243.96766 271.271009 
L 243.501809 270.488494 
L 243.501809 269.708027 
L 243.734734 269.708027 
L 243.734734 269.968183 
L 243.501809 270.228338 
L 243.501809 269.708027 
L 243.501809 269.968183 
L 243.035958 270.748649 
L 243.96766 269.187717 
L 243.734734 268.925513 
L 243.268884 269.968183 
L 243.501809 270.488494 
L 243.734734 270.488494 
L 243.96766 269.708027 
L 243.96766 269.447872 
L 243.734734 269.187717 
L 243.734734 268.925513 
L 244.200585 268.925513 
L 244.200585 268.925513 
L 243.734734 268.405202 
L 243.96766 268.925513 
L 244.200585 268.925513 
L 244.200585 268.665357 
L 243.96766 268.665357 
L 243.96766 268.665357 
L 243.96766 268.405202 
L 243.501809 267.624735 
L 243.268884 267.884891 
L 243.268884 268.145046 
L 243.501809 268.145046 
L 243.96766 267.624735 
L 244.200585 267.624735 
L 244.433511 268.405202 
L 244.200585 268.405202 
L 243.734734 267.624735 
L 243.734734 266.84222 
L 243.96766 266.321909 
L 244.200585 266.321909 
L 244.200585 266.582065 
L 243.96766 266.84222 
L 243.734734 266.84222 
L 243.501809 266.582065 
L 243.96766 266.321909 
L 244.200585 266.061754 
L 244.200585 265.541443 
L 243.96766 265.541443 
L 244.433511 266.84222 
L 244.433511 266.84222 
L 244.666436 266.582065 
L 244.433511 266.061754 
L 244.666436 265.801599 
L 244.666436 265.801599 
L 244.666436 265.281288 
L 244.200585 265.021132 
L 243.734734 265.021132 
L 243.734734 265.281288 
L 243.96766 265.281288 
L 244.200585 265.021132 
L 243.96766 265.021132 
L 243.96766 265.021132 
L 244.433511 264.238617 
L 244.899361 263.718306 
L 244.666436 263.718306 
L 244.666436 263.718306 
L 244.666436 264.758928 
L 244.433511 264.758928 
L 244.433511 264.238617 
L 244.666436 263.978462 
L 244.899361 263.978462 
L 244.899361 264.238617 
L 244.666436 264.498773 
L 244.666436 264.238617 
L 245.132287 263.718306 
L 245.132287 263.718306 
L 244.666436 263.197995 
L 244.899361 263.197995 
L 245.132287 263.458151 
L 245.365212 263.458151 
L 245.132287 263.197995 
L 245.132287 263.458151 
L 244.899361 263.458151 
L 245.132287 263.458151 
L 245.365212 262.93784 
L 245.132287 262.415481 
L 244.666436 263.458151 
L 244.899361 262.675636 
L 244.899361 262.155325 
L 244.666436 262.155325 
L 244.200585 262.93784 
L 243.96766 262.93784 
L 244.433511 262.93784 
L 244.666436 262.675636 
L 244.666436 262.415481 
L 244.433511 262.155325 
L 244.899361 262.675636 
L 244.899361 262.675636 
L 244.899361 261.89517 
L 245.132287 261.374859 
L 245.834169 261.114703 
L 245.365212 261.374859 
L 244.899361 261.114703 
L 244.899361 262.155325 
L 244.666436 262.415481 
L 245.132287 261.374859 
L 245.598138 261.374859 
L 245.598138 261.635014 
L 245.132287 262.155325 
L 245.132287 262.155325 
L 245.132287 261.635014 
L 245.132287 261.89517 
L 245.598138 261.89517 
L 245.598138 261.374859 
L 245.132287 261.635014 
L 245.132287 261.635014 
L 245.132287 261.374859 
L 245.365212 260.854548 
L 245.132287 260.072033 
L 245.132287 260.072033 
L 244.899361 260.592344 
L 244.200585 260.854548 
L 243.734734 260.592344 
L 243.734734 260.332188 
L 244.200585 260.592344 
L 244.433511 261.114703 
L 243.96766 261.374859 
L 242.803033 261.374859 
L 239.306046 260.854548 
L 236.976792 260.592344 
L 230.451775 261.114703 
L 226.488937 261.374859 
L 217.398634 261.374859 
L 212.737021 261.89517 
L 207.842481 262.155325 
L 202.947942 261.89517 
L 197.587552 261.89517 
L 186.167995 263.458151 
L 181.04053 264.238617 
L 175.68014 264.238617 
L 169.853899 264.498773 
L 163.561807 265.021132 
L 141.654396 268.145046 
L 131.166541 269.187717 
L 120.678686 270.748649 
L 110.889608 272.831941 
L 105.995068 273.614456 
L 101.100529 274.134767 
L 89.913898 276.218059 
L 86.649836 276.218059 
L 83.621806 276.478215 
L 79.426043 276.478215 
L 77.56264 276.218059 
L 73.832727 276.218059 
L 74.298578 275.697749 
L 74.997354 275.697749 
L 75.929056 276.218059 
L 76.860758 276.998526 
L 78.02849 277.518837 
L 78.727267 278.041196 
L 79.426043 277.781041 
L 79.891894 277.781041 
L 80.124819 278.041196 
L 80.124819 280.384644 
L 79.891894 280.124488 
L 79.426043 280.384644 
L 79.193117 280.644799 
L 78.960192 280.644799 
L 78.02849 281.16511 
L 78.261416 281.947625 
L 78.494341 282.207781 
L 78.727267 282.207781 
L 78.494341 282.467936 
L 78.02849 283.248402 
L 77.795565 284.030917 
L 78.02849 284.551228 
L 78.960192 282.988247 
L 78.960192 283.508558 
L 77.795565 284.811384 
L 77.56264 285.331695 
L 78.02849 285.59185 
L 78.494341 286.114209 
L 78.494341 285.852005 
L 77.795565 285.071539 
L 77.329714 284.811384 
L 77.329714 285.331695 
L 77.56264 285.59185 
L 77.56264 284.811384 
L 77.096789 285.331695 
L 76.860758 286.114209 
L 77.096789 286.374365 
L 78.02849 286.374365 
L 78.261416 286.114209 
L 77.56264 286.114209 
L 76.860758 286.374365 
L 76.860758 286.63452 
L 77.329714 286.63452 
L 77.56264 286.894676 
L 77.096789 287.154831 
L 76.627832 286.894676 
L 76.627832 286.894676 
L 76.627832 288.197502 
L 76.394907 288.457657 
L 76.627832 288.977968 
L 76.860758 288.977968 
L 77.096789 288.717813 
L 77.096789 288.717813 
L 76.627832 289.498279 
L 76.161981 289.498279 
L 76.161981 289.498279 
L 76.161981 290.280794 
L 75.696131 291.06126 
L 76.627832 291.06126 
L 76.627832 290.540949 
L 76.627832 292.884397 
L 76.394907 292.884397 
L 76.394907 292.101882 
L 76.161981 291.841727 
L 76.161981 291.841727 
L 76.394907 291.841727 
L 76.394907 292.101882 
L 76.161981 292.101882 
L 75.696131 291.841727 
L 75.696131 291.581571 
L 75.929056 291.841727 
L 75.929056 292.884397 
L 75.929056 292.884397 
L 76.161981 292.624241 
L 75.929056 292.364086 
L 75.929056 294.185174 
L 75.696131 293.925019 
L 75.23028 292.884397 
L 75.463205 292.624241 
L 75.696131 292.884397 
L 75.929056 293.404708 
L 75.929056 293.925019 
L 75.929056 293.664863 
L 75.696131 294.185174 
L 76.161981 295.488 
L 76.394907 295.227845 
L 76.161981 294.967689 
L 75.929056 294.44533 
L 75.929056 293.925019 
L 76.394907 293.925019 
L 76.627832 294.707534 
L 76.627832 294.185174 
L 76.394907 293.144552 
L 76.161981 293.404708 
L 76.161981 293.404708 
L 75.696131 292.884397 
L 75.23028 292.884397 
L 74.997354 293.404708 
L 75.463205 293.925019 
L 75.696131 293.925019 
L 75.929056 294.185174 
L 76.161981 295.227845 
L 76.394907 295.488 
L 76.394907 293.925019 
L 76.161981 293.925019 
L 76.161981 293.664863 
L 75.929056 293.404708 
L 75.696131 293.404708 
L 75.696131 293.664863 
L 75.929056 294.185174 
L 76.161981 294.185174 
L 75.929056 293.925019 
L 75.929056 293.925019 
L 75.929056 293.664863 
L 75.929056 293.664863 
L 75.696131 293.144552 
L 75.696131 292.624241 
L 76.161981 293.144552 
L 75.696131 293.144552 
L 75.463205 293.404708 
L 75.929056 292.884397 
L 76.394907 292.624241 
L 76.627832 292.364086 
L 75.696131 292.364086 
L 75.696131 293.144552 
L 76.161981 293.144552 
L 76.627832 292.884397 
L 76.860758 292.884397 
L 76.627832 293.144552 
L 76.627832 293.144552 
L 76.627832 292.624241 
L 76.860758 292.364086 
L 76.860758 292.624241 
L 76.627832 292.364086 
L 76.627832 292.364086 
L 77.795565 292.364086 
L 77.56264 292.101882 
L 77.329714 292.101882 
L 77.56264 291.841727 
L 77.56264 292.624241 
L 78.02849 292.884397 
L 78.261416 292.624241 
L 77.329714 292.101882 
L 76.161981 292.101882 
L 76.394907 292.364086 
L 76.627832 292.364086 
L 76.860758 291.581571 
L 76.627832 291.581571 
L 76.627832 291.581571 
L 77.096789 291.06126 
L 77.56264 290.801105 
L 77.795565 290.801105 
L 78.02849 290.540949 
L 78.494341 290.540949 
L 78.494341 290.540949 
L 78.261416 290.280794 
L 78.261416 290.01859 
L 78.494341 289.498279 
L 78.261416 289.498279 
L 77.795565 290.01859 
L 78.02849 290.280794 
L 78.494341 290.540949 
L 78.494341 289.758434 
L 78.727267 289.498279 
L 78.960192 289.498279 
L 78.727267 289.498279 
L 78.261416 289.758434 
L 78.02849 290.01859 
L 78.261416 290.01859 
L 78.494341 289.758434 
L 78.261416 289.498279 
L 78.261416 289.238123 
L 78.02849 288.717813 
L 77.329714 287.935298 
L 77.329714 287.935298 
L 77.329714 288.977968 
L 77.795565 288.977968 
L 78.02849 288.457657 
L 77.795565 287.935298 
L 77.329714 287.675142 
L 77.096789 287.935298 
L 77.329714 288.197502 
L 77.56264 287.935298 
L 77.795565 287.414987 
L 77.56264 286.374365 
L 77.329714 285.852005 
L 76.394907 287.935298 
L 76.394907 288.717813 
L 76.860758 288.717813 
L 77.329714 288.457657 
L 77.329714 288.197502 
L 77.329714 288.197502 
L 77.096789 288.197502 
L 76.627832 287.414987 
L 76.627832 286.894676 
L 76.860758 287.154831 
L 77.329714 287.414987 
L 77.56264 287.675142 
L 76.161981 287.675142 
L 76.161981 286.63452 
L 75.929056 286.374365 
L 75.696131 286.894676 
L 75.696131 287.935298 
L 75.463205 287.935298 
L 75.23028 287.414987 
L 75.463205 287.154831 
L 75.929056 287.414987 
L 76.394907 287.414987 
L 77.329714 286.374365 
L 78.494341 285.852005 
L 82.221148 285.852005 
L 84.786433 285.331695 
L 87.817569 284.291073 
L 94.808437 283.248402 
L 99.702976 282.988247 
L 105.063367 282.207781 
L 115.318296 280.124488 
L 120.911612 279.341973 
L 126.970778 278.301352 
L 132.797019 277.518837 
L 138.157409 276.478215 
L 150.741593 273.614456 
L 157.968492 272.571786 
L 171.018526 269.968183 
L 176.611842 268.665357 
L 189.432057 267.624735 
L 195.491223 266.321909 
L 201.317464 264.758928 
L 207.143705 263.458151 
L 213.202871 262.415481 
L 219.029112 261.89517 
L 224.389502 261.89517 
L 229.749893 261.374859 
L 243.96766 259.291567 
L 247.930498 259.291567 
L 251.893335 259.551722 
L 255.620142 259.551722 
L 259.117129 259.031411 
L 265.642146 256.948119 
L 268.440356 256.687963 
L 271.002536 257.208274 
L 273.567821 257.208274 
L 276.362926 256.425759 
L 281.02454 254.604671 
L 283.589825 254.604671 
L 284.288602 254.864827 
L 284.521527 255.124982 
L 284.055676 254.864827 
L 282.891049 254.604671 
L 281.723316 254.864827 
L 281.02454 255.385138 
L 280.325764 256.165604 
L 279.161137 256.687963 
L 277.763584 257.46843 
L 276.362926 259.031411 
L 275.66415 258.509052 
L 274.965374 257.728585 
L 274.499523 257.728585 
L 274.033672 258.509052 
L 273.567821 258.509052 
L 273.334896 258.771256 
L 273.567821 259.291567 
L 274.266597 260.072033 
L 274.499523 260.592344 
L 274.499523 261.374859 
L 274.266597 261.635014 
L 274.033672 262.155325 
L 273.800747 262.155325 
L 273.334896 261.89517 
L 273.567821 261.89517 
L 273.567821 263.197995 
L 273.334896 263.458151 
L 273.10197 263.197995 
L 272.869045 262.415481 
L 272.63612 262.155325 
L 272.167163 262.675636 
L 271.934238 263.718306 
L 271.701312 263.978462 
L 271.934238 263.718306 
L 271.468387 263.458151 
L 271.002536 262.93784 
L 270.769611 263.197995 
L 271.235461 263.978462 
L 271.235461 262.675636 
L 271.002536 262.93784 
L 271.002536 264.238617 
L 270.769611 264.238617 
L 270.536685 263.978462 
L 271.235461 263.978462 
L 271.235461 264.238617 
L 271.002536 264.238617 
L 270.769611 263.978462 
L 270.769611 262.93784 
L 270.769611 263.197995 
L 270.536685 263.458151 
L 270.30376 263.197995 
L 270.30376 263.197995 
L 270.536685 262.93784 
L 271.235461 262.675636 
L 271.701312 262.93784 
L 271.468387 263.458151 
L 270.769611 263.978462 
L 270.536685 263.718306 
L 271.002536 263.718306 
L 271.002536 263.978462 
L 270.30376 263.718306 
L 269.604984 263.197995 
L 269.837909 263.197995 
L 270.070834 263.458151 
L 269.837909 263.197995 
L 269.837909 262.93784 
L 269.837909 263.197995 
L 270.30376 263.718306 
L 270.30376 264.758928 
L 270.070834 264.498773 
L 269.604984 264.238617 
L 269.837909 264.238617 
L 270.070834 264.498773 
L 270.070834 264.238617 
L 269.604984 264.238617 
L 269.139133 265.021132 
L 269.139133 265.281288 
L 269.139133 265.021132 
L 269.604984 263.458151 
L 269.372058 263.197995 
L 269.604984 263.458151 
L 269.837909 263.978462 
L 269.604984 263.718306 
L 269.139133 263.197995 
L 269.139133 263.978462 
L 268.906207 264.238617 
L 268.440356 264.498773 
L 268.207431 264.498773 
L 268.673282 264.758928 
L 269.139133 264.498773 
L 269.372058 263.978462 
L 269.372058 263.458151 
L 269.604984 263.718306 
L 269.837909 264.238617 
L 269.372058 265.021132 
L 268.906207 264.758928 
L 268.440356 263.978462 
L 268.440356 263.458151 
L 268.673282 263.458151 
L 268.440356 263.458151 
L 268.440356 263.197995 
L 268.673282 262.93784 
L 268.440356 262.93784 
L 268.440356 263.718306 
L 268.207431 264.238617 
L 267.74158 264.238617 
L 267.275729 264.758928 
L 267.042804 265.281288 
L 267.275729 265.541443 
L 267.74158 265.281288 
L 268.207431 265.541443 
L 267.74158 265.801599 
L 267.74158 265.541443 
L 267.974506 265.021132 
L 268.673282 264.758928 
L 268.906207 264.238617 
L 269.372058 263.718306 
L 269.139133 263.978462 
L 269.139133 264.498773 
L 269.139133 263.978462 
L 268.906207 264.498773 
L 268.906207 265.541443 
L 268.673282 265.541443 
L 267.974506 265.281288 
L 267.275729 265.281288 
L 267.275729 265.281288 
L 267.275729 265.801599 
L 267.508655 265.801599 
L 267.508655 265.541443 
L 267.275729 265.281288 
L 266.806773 265.801599 
L 267.042804 266.582065 
L 267.74158 267.104424 
L 268.207431 266.84222 
L 268.440356 266.321909 
L 268.207431 266.061754 
L 267.74158 266.061754 
L 268.207431 266.84222 
L 268.440356 266.582065 
L 268.440356 266.321909 
L 268.440356 266.84222 
L 268.906207 267.36458 
L 268.440356 267.624735 
L 267.74158 268.145046 
L 267.74158 268.405202 
L 267.74158 266.582065 
L 267.974506 266.321909 
L 268.906207 266.84222 
L 269.372058 266.84222 
L 268.673282 266.84222 
L 269.139133 266.84222 
L 268.440356 267.104424 
L 267.974506 266.582065 
L 267.974506 266.321909 
L 268.207431 266.321909 
L 268.673282 266.84222 
L 268.673282 266.582065 
L 268.207431 266.321909 
L 267.275729 266.321909 
L 267.275729 266.321909 
L 267.974506 267.884891 
L 268.673282 267.884891 
L 268.673282 267.104424 
L 268.207431 266.582065 
L 267.974506 267.36458 
L 268.207431 267.36458 
L 268.440356 266.84222 
L 268.207431 266.582065 
L 267.508655 266.582065 
L 267.74158 266.582065 
L 267.974506 266.321909 
L 267.74158 266.582065 
L 267.275729 266.582065 
L 267.275729 266.321909 
L 267.974506 265.541443 
L 267.508655 265.541443 
L 267.042804 265.801599 
L 266.806773 266.321909 
L 267.508655 266.321909 
L 267.974506 266.061754 
L 267.974506 266.321909 
L 267.974506 266.061754 
L 268.440356 265.541443 
L 268.440356 265.281288 
L 267.974506 265.541443 
L 267.74158 266.061754 
L 267.275729 265.801599 
L 266.573848 265.021132 
L 266.340922 264.238617 
L 266.573848 263.718306 
L 267.042804 263.978462 
L 267.042804 264.758928 
L 266.107997 265.021132 
L 266.573848 265.021132 
L 266.806773 264.498773 
L 266.573848 264.238617 
L 265.642146 264.238617 
L 265.40922 263.978462 
L 265.875071 263.458151 
L 266.573848 263.197995 
L 266.806773 263.458151 
L 267.042804 263.978462 
L 266.806773 264.758928 
L 266.573848 264.498773 
L 266.107997 264.238617 
L 265.642146 263.718306 
L 265.642146 263.978462 
L 265.875071 264.498773 
L 265.875071 265.281288 
L 265.40922 264.758928 
L 265.176295 264.238617 
L 265.176295 264.238617 
L 265.642146 264.498773 
L 266.340922 264.758928 
L 267.275729 264.758928 
L 266.340922 263.718306 
L 265.875071 263.978462 
L 265.875071 263.978462 
L 266.107997 263.978462 
L 266.107997 263.978462 
L 266.107997 264.238617 
L 266.340922 263.978462 
L 266.340922 263.458151 
L 266.107997 263.458151 
L 265.642146 263.978462 
L 265.642146 265.281288 
L 265.875071 265.281288 
L 265.875071 265.021132 
L 265.875071 265.021132 
L 265.40922 263.978462 
L 265.40922 263.978462 
L 265.176295 264.238617 
L 265.176295 264.758928 
L 265.40922 264.758928 
L 265.40922 264.758928 
L 265.40922 264.238617 
L 264.94337 263.718306 
L 264.477519 263.458151 
L 265.176295 264.238617 
L 265.176295 264.498773 
L 265.40922 264.238617 
L 264.94337 262.93784 
L 264.94337 262.93784 
" style="fill:none;stroke:#1f77b4;stroke-linecap:square;stroke-width:1.5;"/>
   </g>
   <g id="matplotlib.axis_1">
    <g id="xtick_1">
     <g id="line2d_2">
      <defs>
       <path d="M 0 0 
L 0 3.5 
" id="m26767ee096" style="stroke:#000000;stroke-width:0.8;"/>
      </defs>
      <g>
       <use style="stroke:#000000;stroke-width:0.8;" x="69.599696" xlink:href="#m26767ee096" y="307.584"/>
      </g>
     </g>
     <g id="text_1">
      <!-- −400 -->
      <defs>
       <path d="M 10.59375 35.5 
L 73.1875 35.5 
L 73.1875 27.203125 
L 10.59375 27.203125 
z
" id="DejaVuSans-8722"/>
       <path d="M 37.796875 64.3125 
L 12.890625 25.390625 
L 37.796875 25.390625 
z
M 35.203125 72.90625 
L 47.609375 72.90625 
L 47.609375 25.390625 
L 58.015625 25.390625 
L 58.015625 17.1875 
L 47.609375 17.1875 
L 47.609375 0 
L 37.796875 0 
L 37.796875 17.1875 
L 4.890625 17.1875 
L 4.890625 26.703125 
z
" id="DejaVuSans-52"/>
       <path d="M 31.78125 66.40625 
Q 24.171875 66.40625 20.328125 58.90625 
Q 16.5 51.421875 16.5 36.375 
Q 16.5 21.390625 20.328125 13.890625 
Q 24.171875 6.390625 31.78125 6.390625 
Q 39.453125 6.390625 43.28125 13.890625 
Q 47.125 21.390625 47.125 36.375 
Q 47.125 51.421875 43.28125 58.90625 
Q 39.453125 66.40625 31.78125 66.40625 
z
M 31.78125 74.21875 
Q 44.046875 74.21875 50.515625 64.515625 
Q 56.984375 54.828125 56.984375 36.375 
Q 56.984375 17.96875 50.515625 8.265625 
Q 44.046875 -1.421875 31.78125 -1.421875 
Q 19.53125 -1.421875 13.0625 8.265625 
Q 6.59375 17.96875 6.59375 36.375 
Q 6.59375 54.828125 13.0625 64.515625 
Q 19.53125 74.21875 31.78125 74.21875 
z
" id="DejaVuSans-48"/>
      </defs>
      <g transform="translate(55.866102 322.182437)scale(0.1 -0.1)">
       <use xlink:href="#DejaVuSans-8722"/>
       <use x="83.789062" xlink:href="#DejaVuSans-52"/>
       <use x="147.412109" xlink:href="#DejaVuSans-48"/>
       <use x="211.035156" xlink:href="#DejaVuSans-48"/>
      </g>
     </g>
    </g>
    <g id="xtick_2">
     <g id="line2d_3">
      <g>
       <use style="stroke:#000000;stroke-width:0.8;" x="131.713139" xlink:href="#m26767ee096" y="307.584"/>
      </g>
     </g>
     <g id="text_2">
      <!-- −200 -->
      <defs>
       <path d="M 19.1875 8.296875 
L 53.609375 8.296875 
L 53.609375 0 
L 7.328125 0 
L 7.328125 8.296875 
Q 12.9375 14.109375 22.625 23.890625 
Q 32.328125 33.6875 34.8125 36.53125 
Q 39.546875 41.84375 41.421875 45.53125 
Q 43.3125 49.21875 43.3125 52.78125 
Q 43.3125 58.59375 39.234375 62.25 
Q 35.15625 65.921875 28.609375 65.921875 
Q 23.96875 65.921875 18.8125 64.3125 
Q 13.671875 62.703125 7.8125 59.421875 
L 7.8125 69.390625 
Q 13.765625 71.78125 18.9375 73 
Q 24.125 74.21875 28.421875 74.21875 
Q 39.75 74.21875 46.484375 68.546875 
Q 53.21875 62.890625 53.21875 53.421875 
Q 53.21875 48.921875 51.53125 44.890625 
Q 49.859375 40.875 45.40625 35.40625 
Q 44.1875 33.984375 37.640625 27.21875 
Q 31.109375 20.453125 19.1875 8.296875 
z
" id="DejaVuSans-50"/>
      </defs>
      <g transform="translate(117.979546 322.182437)scale(0.1 -0.1)">
       <use xlink:href="#DejaVuSans-8722"/>
       <use x="83.789062" xlink:href="#DejaVuSans-50"/>
       <use x="147.412109" xlink:href="#DejaVuSans-48"/>
       <use x="211.035156" xlink:href="#DejaVuSans-48"/>
      </g>
     </g>
    </g>
    <g id="xtick_3">
     <g id="line2d_4">
      <g>
       <use style="stroke:#000000;stroke-width:0.8;" x="193.826583" xlink:href="#m26767ee096" y="307.584"/>
      </g>
     </g>
     <g id="text_3">
      <!-- 0 -->
      <g transform="translate(190.645333 322.182437)scale(0.1 -0.1)">
       <use xlink:href="#DejaVuSans-48"/>
      </g>
     </g>
    </g>
    <g id="xtick_4">
     <g id="line2d_5">
      <g>
       <use style="stroke:#000000;stroke-width:0.8;" x="255.940026" xlink:href="#m26767ee096" y="307.584"/>
      </g>
     </g>
     <g id="text_4">
      <!-- 200 -->
      <g transform="translate(246.396276 322.182437)scale(0.1 -0.1)">
       <use xlink:href="#DejaVuSans-50"/>
       <use x="63.623047" xlink:href="#DejaVuSans-48"/>
       <use x="127.246094" xlink:href="#DejaVuSans-48"/>
      </g>
     </g>
    </g>
    <g id="xtick_5">
     <g id="line2d_6">
      <g>
       <use style="stroke:#000000;stroke-width:0.8;" x="318.053469" xlink:href="#m26767ee096" y="307.584"/>
      </g>
     </g>
     <g id="text_5">
      <!-- 400 -->
      <g transform="translate(308.509719 322.182437)scale(0.1 -0.1)">
       <use xlink:href="#DejaVuSans-52"/>
       <use x="63.623047" xlink:href="#DejaVuSans-48"/>
       <use x="127.246094" xlink:href="#DejaVuSans-48"/>
      </g>
     </g>
    </g>
    <g id="xtick_6">
     <g id="line2d_7">
      <g>
       <use style="stroke:#000000;stroke-width:0.8;" x="380.166913" xlink:href="#m26767ee096" y="307.584"/>
      </g>
     </g>
     <g id="text_6">
      <!-- 600 -->
      <defs>
       <path d="M 33.015625 40.375 
Q 26.375 40.375 22.484375 35.828125 
Q 18.609375 31.296875 18.609375 23.390625 
Q 18.609375 15.53125 22.484375 10.953125 
Q 26.375 6.390625 33.015625 6.390625 
Q 39.65625 6.390625 43.53125 10.953125 
Q 47.40625 15.53125 47.40625 23.390625 
Q 47.40625 31.296875 43.53125 35.828125 
Q 39.65625 40.375 33.015625 40.375 
z
M 52.59375 71.296875 
L 52.59375 62.3125 
Q 48.875 64.0625 45.09375 64.984375 
Q 41.3125 65.921875 37.59375 65.921875 
Q 27.828125 65.921875 22.671875 59.328125 
Q 17.53125 52.734375 16.796875 39.40625 
Q 19.671875 43.65625 24.015625 45.921875 
Q 28.375 48.1875 33.59375 48.1875 
Q 44.578125 48.1875 50.953125 41.515625 
Q 57.328125 34.859375 57.328125 23.390625 
Q 57.328125 12.15625 50.6875 5.359375 
Q 44.046875 -1.421875 33.015625 -1.421875 
Q 20.359375 -1.421875 13.671875 8.265625 
Q 6.984375 17.96875 6.984375 36.375 
Q 6.984375 53.65625 15.1875 63.9375 
Q 23.390625 74.21875 37.203125 74.21875 
Q 40.921875 74.21875 44.703125 73.484375 
Q 48.484375 72.75 52.59375 71.296875 
z
" id="DejaVuSans-54"/>
      </defs>
      <g transform="translate(370.623163 322.182437)scale(0.1 -0.1)">
       <use xlink:href="#DejaVuSans-54"/>
       <use x="63.623047" xlink:href="#DejaVuSans-48"/>
       <use x="127.246094" xlink:href="#DejaVuSans-48"/>
      </g>
     </g>
    </g>
   </g>
   <g id="matplotlib.axis_2">
    <g id="ytick_1">
     <g id="line2d_8">
      <defs>
       <path d="M 0 0 
L -3.5 0 
" id="md60c155d1a" style="stroke:#000000;stroke-width:0.8;"/>
      </defs>
      <g>
       <use style="stroke:#000000;stroke-width:0.8;" x="57.6" xlink:href="#md60c155d1a" y="267.839824"/>
      </g>
     </g>
     <g id="text_7">
      <!-- −200 -->
      <g transform="translate(23.132812 271.639043)scale(0.1 -0.1)">
       <use xlink:href="#DejaVuSans-8722"/>
       <use x="83.789062" xlink:href="#DejaVuSans-50"/>
       <use x="147.412109" xlink:href="#DejaVuSans-48"/>
       <use x="211.035156" xlink:href="#DejaVuSans-48"/>
      </g>
     </g>
    </g>
    <g id="ytick_2">
     <g id="line2d_9">
      <g>
       <use style="stroke:#000000;stroke-width:0.8;" x="57.6" xlink:href="#md60c155d1a" y="226.87046"/>
      </g>
     </g>
     <g id="text_8">
      <!-- 0 -->
      <g transform="translate(44.2375 230.669679)scale(0.1 -0.1)">
       <use xlink:href="#DejaVuSans-48"/>
      </g>
     </g>
    </g>
    <g id="ytick_3">
     <g id="line2d_10">
      <g>
       <use style="stroke:#000000;stroke-width:0.8;" x="57.6" xlink:href="#md60c155d1a" y="185.901096"/>
      </g>
     </g>
     <g id="text_9">
      <!-- 200 -->
      <g transform="translate(31.5125 189.700314)scale(0.1 -0.1)">
       <use xlink:href="#DejaVuSans-50"/>
       <use x="63.623047" xlink:href="#DejaVuSans-48"/>
       <use x="127.246094" xlink:href="#DejaVuSans-48"/>
      </g>
     </g>
    </g>
    <g id="ytick_4">
     <g id="line2d_11">
      <g>
       <use style="stroke:#000000;stroke-width:0.8;" x="57.6" xlink:href="#md60c155d1a" y="144.931731"/>
      </g>
     </g>
     <g id="text_10">
      <!-- 400 -->
      <g transform="translate(31.5125 148.73095)scale(0.1 -0.1)">
       <use xlink:href="#DejaVuSans-52"/>
       <use x="63.623047" xlink:href="#DejaVuSans-48"/>
       <use x="127.246094" xlink:href="#DejaVuSans-48"/>
      </g>
     </g>
    </g>
    <g id="ytick_5">
     <g id="line2d_12">
      <g>
       <use style="stroke:#000000;stroke-width:0.8;" x="57.6" xlink:href="#md60c155d1a" y="103.962367"/>
      </g>
     </g>
     <g id="text_11">
      <!-- 600 -->
      <g transform="translate(31.5125 107.761585)scale(0.1 -0.1)">
       <use xlink:href="#DejaVuSans-54"/>
       <use x="63.623047" xlink:href="#DejaVuSans-48"/>
       <use x="127.246094" xlink:href="#DejaVuSans-48"/>
      </g>
     </g>
    </g>
    <g id="ytick_6">
     <g id="line2d_13">
      <g>
       <use style="stroke:#000000;stroke-width:0.8;" x="57.6" xlink:href="#md60c155d1a" y="62.993002"/>
      </g>
     </g>
     <g id="text_12">
      <!-- 800 -->
      <defs>
       <path d="M 31.78125 34.625 
Q 24.75 34.625 20.71875 30.859375 
Q 16.703125 27.09375 16.703125 20.515625 
Q 16.703125 13.921875 20.71875 10.15625 
Q 24.75 6.390625 31.78125 6.390625 
Q 38.8125 6.390625 42.859375 10.171875 
Q 46.921875 13.96875 46.921875 20.515625 
Q 46.921875 27.09375 42.890625 30.859375 
Q 38.875 34.625 31.78125 34.625 
z
M 21.921875 38.8125 
Q 15.578125 40.375 12.03125 44.71875 
Q 8.5 49.078125 8.5 55.328125 
Q 8.5 64.0625 14.71875 69.140625 
Q 20.953125 74.21875 31.78125 74.21875 
Q 42.671875 74.21875 48.875 69.140625 
Q 55.078125 64.0625 55.078125 55.328125 
Q 55.078125 49.078125 51.53125 44.71875 
Q 48 40.375 41.703125 38.8125 
Q 48.828125 37.15625 52.796875 32.3125 
Q 56.78125 27.484375 56.78125 20.515625 
Q 56.78125 9.90625 50.3125 4.234375 
Q 43.84375 -1.421875 31.78125 -1.421875 
Q 19.734375 -1.421875 13.25 4.234375 
Q 6.78125 9.90625 6.78125 20.515625 
Q 6.78125 27.484375 10.78125 32.3125 
Q 14.796875 37.15625 21.921875 38.8125 
z
M 18.3125 54.390625 
Q 18.3125 48.734375 21.84375 45.5625 
Q 25.390625 42.390625 31.78125 42.390625 
Q 38.140625 42.390625 41.71875 45.5625 
Q 45.3125 48.734375 45.3125 54.390625 
Q 45.3125 60.0625 41.71875 63.234375 
Q 38.140625 66.40625 31.78125 66.40625 
Q 25.390625 66.40625 21.84375 63.234375 
Q 18.3125 60.0625 18.3125 54.390625 
z
" id="DejaVuSans-56"/>
      </defs>
      <g transform="translate(31.5125 66.792221)scale(0.1 -0.1)">
       <use xlink:href="#DejaVuSans-56"/>
       <use x="63.623047" xlink:href="#DejaVuSans-48"/>
       <use x="127.246094" xlink:href="#DejaVuSans-48"/>
      </g>
     </g>
    </g>
   </g>
   <g id="line2d_14">
    <path clip-path="url(#p96cfdad9cc)" d="M 394.392953 57.70734 
L 167.409279 196.236903 
L 242.213853 265.054668 
L 79.94223 284.669728 
L 79.727907 290.211157 
L 268.77812 262.504491 
L 267.036614 265.45107 
" style="fill:none;stroke:#ff0000;stroke-linecap:square;stroke-width:0.5;"/>
   </g>
   <g id="patch_3">
    <path d="M 57.6 307.584 
L 57.6 41.472 
" style="fill:none;stroke:#000000;stroke-linecap:square;stroke-linejoin:miter;stroke-width:0.8;"/>
   </g>
   <g id="patch_4">
    <path d="M 414.72 307.584 
L 414.72 41.472 
" style="fill:none;stroke:#000000;stroke-linecap:square;stroke-linejoin:miter;stroke-width:0.8;"/>
   </g>
   <g id="patch_5">
    <path d="M 57.6 307.584 
L 414.72 307.584 
" style="fill:none;stroke:#000000;stroke-linecap:square;stroke-linejoin:miter;stroke-width:0.8;"/>
   </g>
   <g id="patch_6">
    <path d="M 57.6 41.472 
L 414.72 41.472 
" style="fill:none;stroke:#000000;stroke-linecap:square;stroke-linejoin:miter;stroke-width:0.8;"/>
   </g>
   <g id="PathCollection_1">
    <defs>
     <path d="M 0 2.738613 
C 0.726289 2.738613 1.422928 2.450055 1.936492 1.936492 
C 2.450055 1.422928 2.738613 0.726289 2.738613 0 
C 2.738613 -0.726289 2.450055 -1.422928 1.936492 -1.936492 
C 1.422928 -2.450055 0.726289 -2.738613 0 -2.738613 
C -0.726289 -2.738613 -1.422928 -2.450055 -1.936492 -1.936492 
C -2.450055 -1.422928 -2.738613 -0.726289 -2.738613 0 
C -2.738613 0.726289 -2.450055 1.422928 -1.936492 1.936492 
C -1.422928 2.450055 -0.726289 2.738613 0 2.738613 
z
" id="m4d61d32884" style="stroke:#ff0000;"/>
    </defs>
    <g clip-path="url(#p96cfdad9cc)">
     <use style="fill:#ff0000;stroke:#ff0000;" x="394.392953" xlink:href="#m4d61d32884" y="57.70734"/>
     <use style="fill:#ff0000;stroke:#ff0000;" x="167.409279" xlink:href="#m4d61d32884" y="196.236903"/>
     <use style="fill:#ff0000;stroke:#ff0000;" x="242.213853" xlink:href="#m4d61d32884" y="265.054668"/>
     <use style="fill:#ff0000;stroke:#ff0000;" x="79.94223" xlink:href="#m4d61d32884" y="284.669728"/>
     <use style="fill:#ff0000;stroke:#ff0000;" x="79.727907" xlink:href="#m4d61d32884" y="290.211157"/>
     <use style="fill:#ff0000;stroke:#ff0000;" x="268.77812" xlink:href="#m4d61d32884" y="262.504491"/>
     <use style="fill:#ff0000;stroke:#ff0000;" x="267.036614" xlink:href="#m4d61d32884" y="265.45107"/>
    </g>
   </g>
   <g id="text_13">
    <!-- (2) Subject: s3, Known = True, Degree = 2, Duration = 0.1 -->
    <defs>
     <path d="M 31 75.875 
Q 24.46875 64.65625 21.28125 53.65625 
Q 18.109375 42.671875 18.109375 31.390625 
Q 18.109375 20.125 21.3125 9.0625 
Q 24.515625 -2 31 -13.1875 
L 23.1875 -13.1875 
Q 15.875 -1.703125 12.234375 9.375 
Q 8.59375 20.453125 8.59375 31.390625 
Q 8.59375 42.28125 12.203125 53.3125 
Q 15.828125 64.359375 23.1875 75.875 
z
" id="DejaVuSans-40"/>
     <path d="M 8.015625 75.875 
L 15.828125 75.875 
Q 23.140625 64.359375 26.78125 53.3125 
Q 30.421875 42.28125 30.421875 31.390625 
Q 30.421875 20.453125 26.78125 9.375 
Q 23.140625 -1.703125 15.828125 -13.1875 
L 8.015625 -13.1875 
Q 14.5 -2 17.703125 9.0625 
Q 20.90625 20.125 20.90625 31.390625 
Q 20.90625 42.671875 17.703125 53.65625 
Q 14.5 64.65625 8.015625 75.875 
z
" id="DejaVuSans-41"/>
     <path id="DejaVuSans-32"/>
     <path d="M 53.515625 70.515625 
L 53.515625 60.890625 
Q 47.90625 63.578125 42.921875 64.890625 
Q 37.9375 66.21875 33.296875 66.21875 
Q 25.25 66.21875 20.875 63.09375 
Q 16.5 59.96875 16.5 54.203125 
Q 16.5 49.359375 19.40625 46.890625 
Q 22.3125 44.4375 30.421875 42.921875 
L 36.375 41.703125 
Q 47.40625 39.59375 52.65625 34.296875 
Q 57.90625 29 57.90625 20.125 
Q 57.90625 9.515625 50.796875 4.046875 
Q 43.703125 -1.421875 29.984375 -1.421875 
Q 24.8125 -1.421875 18.96875 -0.25 
Q 13.140625 0.921875 6.890625 3.21875 
L 6.890625 13.375 
Q 12.890625 10.015625 18.65625 8.296875 
Q 24.421875 6.59375 29.984375 6.59375 
Q 38.421875 6.59375 43.015625 9.90625 
Q 47.609375 13.234375 47.609375 19.390625 
Q 47.609375 24.75 44.3125 27.78125 
Q 41.015625 30.8125 33.5 32.328125 
L 27.484375 33.5 
Q 16.453125 35.6875 11.515625 40.375 
Q 6.59375 45.0625 6.59375 53.421875 
Q 6.59375 63.09375 13.40625 68.65625 
Q 20.21875 74.21875 32.171875 74.21875 
Q 37.3125 74.21875 42.625 73.28125 
Q 47.953125 72.359375 53.515625 70.515625 
z
" id="DejaVuSans-83"/>
     <path d="M 8.5 21.578125 
L 8.5 54.6875 
L 17.484375 54.6875 
L 17.484375 21.921875 
Q 17.484375 14.15625 20.5 10.265625 
Q 23.53125 6.390625 29.59375 6.390625 
Q 36.859375 6.390625 41.078125 11.03125 
Q 45.3125 15.671875 45.3125 23.6875 
L 45.3125 54.6875 
L 54.296875 54.6875 
L 54.296875 0 
L 45.3125 0 
L 45.3125 8.40625 
Q 42.046875 3.421875 37.71875 1 
Q 33.40625 -1.421875 27.6875 -1.421875 
Q 18.265625 -1.421875 13.375 4.4375 
Q 8.5 10.296875 8.5 21.578125 
z
M 31.109375 56 
z
" id="DejaVuSans-117"/>
     <path d="M 48.6875 27.296875 
Q 48.6875 37.203125 44.609375 42.84375 
Q 40.53125 48.484375 33.40625 48.484375 
Q 26.265625 48.484375 22.1875 42.84375 
Q 18.109375 37.203125 18.109375 27.296875 
Q 18.109375 17.390625 22.1875 11.75 
Q 26.265625 6.109375 33.40625 6.109375 
Q 40.53125 6.109375 44.609375 11.75 
Q 48.6875 17.390625 48.6875 27.296875 
z
M 18.109375 46.390625 
Q 20.953125 51.265625 25.265625 53.625 
Q 29.59375 56 35.59375 56 
Q 45.5625 56 51.78125 48.09375 
Q 58.015625 40.1875 58.015625 27.296875 
Q 58.015625 14.40625 51.78125 6.484375 
Q 45.5625 -1.421875 35.59375 -1.421875 
Q 29.59375 -1.421875 25.265625 0.953125 
Q 20.953125 3.328125 18.109375 8.203125 
L 18.109375 0 
L 9.078125 0 
L 9.078125 75.984375 
L 18.109375 75.984375 
z
" id="DejaVuSans-98"/>
     <path d="M 9.421875 54.6875 
L 18.40625 54.6875 
L 18.40625 -0.984375 
Q 18.40625 -11.421875 14.421875 -16.109375 
Q 10.453125 -20.796875 1.609375 -20.796875 
L -1.8125 -20.796875 
L -1.8125 -13.1875 
L 0.59375 -13.1875 
Q 5.71875 -13.1875 7.5625 -10.8125 
Q 9.421875 -8.453125 9.421875 -0.984375 
z
M 9.421875 75.984375 
L 18.40625 75.984375 
L 18.40625 64.59375 
L 9.421875 64.59375 
z
" id="DejaVuSans-106"/>
     <path d="M 56.203125 29.59375 
L 56.203125 25.203125 
L 14.890625 25.203125 
Q 15.484375 15.921875 20.484375 11.0625 
Q 25.484375 6.203125 34.421875 6.203125 
Q 39.59375 6.203125 44.453125 7.46875 
Q 49.3125 8.734375 54.109375 11.28125 
L 54.109375 2.78125 
Q 49.265625 0.734375 44.1875 -0.34375 
Q 39.109375 -1.421875 33.890625 -1.421875 
Q 20.796875 -1.421875 13.15625 6.1875 
Q 5.515625 13.8125 5.515625 26.8125 
Q 5.515625 40.234375 12.765625 48.109375 
Q 20.015625 56 32.328125 56 
Q 43.359375 56 49.78125 48.890625 
Q 56.203125 41.796875 56.203125 29.59375 
z
M 47.21875 32.234375 
Q 47.125 39.59375 43.09375 43.984375 
Q 39.0625 48.390625 32.421875 48.390625 
Q 24.90625 48.390625 20.390625 44.140625 
Q 15.875 39.890625 15.1875 32.171875 
z
" id="DejaVuSans-101"/>
     <path d="M 48.78125 52.59375 
L 48.78125 44.1875 
Q 44.96875 46.296875 41.140625 47.34375 
Q 37.3125 48.390625 33.40625 48.390625 
Q 24.65625 48.390625 19.8125 42.84375 
Q 14.984375 37.3125 14.984375 27.296875 
Q 14.984375 17.28125 19.8125 11.734375 
Q 24.65625 6.203125 33.40625 6.203125 
Q 37.3125 6.203125 41.140625 7.25 
Q 44.96875 8.296875 48.78125 10.40625 
L 48.78125 2.09375 
Q 45.015625 0.34375 40.984375 -0.53125 
Q 36.96875 -1.421875 32.421875 -1.421875 
Q 20.0625 -1.421875 12.78125 6.34375 
Q 5.515625 14.109375 5.515625 27.296875 
Q 5.515625 40.671875 12.859375 48.328125 
Q 20.21875 56 33.015625 56 
Q 37.15625 56 41.109375 55.140625 
Q 45.0625 54.296875 48.78125 52.59375 
z
" id="DejaVuSans-99"/>
     <path d="M 18.3125 70.21875 
L 18.3125 54.6875 
L 36.8125 54.6875 
L 36.8125 47.703125 
L 18.3125 47.703125 
L 18.3125 18.015625 
Q 18.3125 11.328125 20.140625 9.421875 
Q 21.96875 7.515625 27.59375 7.515625 
L 36.8125 7.515625 
L 36.8125 0 
L 27.59375 0 
Q 17.1875 0 13.234375 3.875 
Q 9.28125 7.765625 9.28125 18.015625 
L 9.28125 47.703125 
L 2.6875 47.703125 
L 2.6875 54.6875 
L 9.28125 54.6875 
L 9.28125 70.21875 
z
" id="DejaVuSans-116"/>
     <path d="M 11.71875 12.40625 
L 22.015625 12.40625 
L 22.015625 0 
L 11.71875 0 
z
M 11.71875 51.703125 
L 22.015625 51.703125 
L 22.015625 39.3125 
L 11.71875 39.3125 
z
" id="DejaVuSans-58"/>
     <path d="M 44.28125 53.078125 
L 44.28125 44.578125 
Q 40.484375 46.53125 36.375 47.5 
Q 32.28125 48.484375 27.875 48.484375 
Q 21.1875 48.484375 17.84375 46.4375 
Q 14.5 44.390625 14.5 40.28125 
Q 14.5 37.15625 16.890625 35.375 
Q 19.28125 33.59375 26.515625 31.984375 
L 29.59375 31.296875 
Q 39.15625 29.25 43.1875 25.515625 
Q 47.21875 21.78125 47.21875 15.09375 
Q 47.21875 7.46875 41.1875 3.015625 
Q 35.15625 -1.421875 24.609375 -1.421875 
Q 20.21875 -1.421875 15.453125 -0.5625 
Q 10.6875 0.296875 5.421875 2 
L 5.421875 11.28125 
Q 10.40625 8.6875 15.234375 7.390625 
Q 20.0625 6.109375 24.8125 6.109375 
Q 31.15625 6.109375 34.5625 8.28125 
Q 37.984375 10.453125 37.984375 14.40625 
Q 37.984375 18.0625 35.515625 20.015625 
Q 33.0625 21.96875 24.703125 23.78125 
L 21.578125 24.515625 
Q 13.234375 26.265625 9.515625 29.90625 
Q 5.8125 33.546875 5.8125 39.890625 
Q 5.8125 47.609375 11.28125 51.796875 
Q 16.75 56 26.8125 56 
Q 31.78125 56 36.171875 55.265625 
Q 40.578125 54.546875 44.28125 53.078125 
z
" id="DejaVuSans-115"/>
     <path d="M 40.578125 39.3125 
Q 47.65625 37.796875 51.625 33 
Q 55.609375 28.21875 55.609375 21.1875 
Q 55.609375 10.40625 48.1875 4.484375 
Q 40.765625 -1.421875 27.09375 -1.421875 
Q 22.515625 -1.421875 17.65625 -0.515625 
Q 12.796875 0.390625 7.625 2.203125 
L 7.625 11.71875 
Q 11.71875 9.328125 16.59375 8.109375 
Q 21.484375 6.890625 26.8125 6.890625 
Q 36.078125 6.890625 40.9375 10.546875 
Q 45.796875 14.203125 45.796875 21.1875 
Q 45.796875 27.640625 41.28125 31.265625 
Q 36.765625 34.90625 28.71875 34.90625 
L 20.21875 34.90625 
L 20.21875 43.015625 
L 29.109375 43.015625 
Q 36.375 43.015625 40.234375 45.921875 
Q 44.09375 48.828125 44.09375 54.296875 
Q 44.09375 59.90625 40.109375 62.90625 
Q 36.140625 65.921875 28.71875 65.921875 
Q 24.65625 65.921875 20.015625 65.03125 
Q 15.375 64.15625 9.8125 62.3125 
L 9.8125 71.09375 
Q 15.4375 72.65625 20.34375 73.4375 
Q 25.25 74.21875 29.59375 74.21875 
Q 40.828125 74.21875 47.359375 69.109375 
Q 53.90625 64.015625 53.90625 55.328125 
Q 53.90625 49.265625 50.4375 45.09375 
Q 46.96875 40.921875 40.578125 39.3125 
z
" id="DejaVuSans-51"/>
     <path d="M 11.71875 12.40625 
L 22.015625 12.40625 
L 22.015625 4 
L 14.015625 -11.625 
L 7.71875 -11.625 
L 11.71875 4 
z
" id="DejaVuSans-44"/>
     <path d="M 9.8125 72.90625 
L 19.671875 72.90625 
L 19.671875 42.09375 
L 52.390625 72.90625 
L 65.09375 72.90625 
L 28.90625 38.921875 
L 67.671875 0 
L 54.6875 0 
L 19.671875 35.109375 
L 19.671875 0 
L 9.8125 0 
z
" id="DejaVuSans-75"/>
     <path d="M 54.890625 33.015625 
L 54.890625 0 
L 45.90625 0 
L 45.90625 32.71875 
Q 45.90625 40.484375 42.875 44.328125 
Q 39.84375 48.1875 33.796875 48.1875 
Q 26.515625 48.1875 22.3125 43.546875 
Q 18.109375 38.921875 18.109375 30.90625 
L 18.109375 0 
L 9.078125 0 
L 9.078125 54.6875 
L 18.109375 54.6875 
L 18.109375 46.1875 
Q 21.34375 51.125 25.703125 53.5625 
Q 30.078125 56 35.796875 56 
Q 45.21875 56 50.046875 50.171875 
Q 54.890625 44.34375 54.890625 33.015625 
z
" id="DejaVuSans-110"/>
     <path d="M 30.609375 48.390625 
Q 23.390625 48.390625 19.1875 42.75 
Q 14.984375 37.109375 14.984375 27.296875 
Q 14.984375 17.484375 19.15625 11.84375 
Q 23.34375 6.203125 30.609375 6.203125 
Q 37.796875 6.203125 41.984375 11.859375 
Q 46.1875 17.53125 46.1875 27.296875 
Q 46.1875 37.015625 41.984375 42.703125 
Q 37.796875 48.390625 30.609375 48.390625 
z
M 30.609375 56 
Q 42.328125 56 49.015625 48.375 
Q 55.71875 40.765625 55.71875 27.296875 
Q 55.71875 13.875 49.015625 6.21875 
Q 42.328125 -1.421875 30.609375 -1.421875 
Q 18.84375 -1.421875 12.171875 6.21875 
Q 5.515625 13.875 5.515625 27.296875 
Q 5.515625 40.765625 12.171875 48.375 
Q 18.84375 56 30.609375 56 
z
" id="DejaVuSans-111"/>
     <path d="M 4.203125 54.6875 
L 13.1875 54.6875 
L 24.421875 12.015625 
L 35.59375 54.6875 
L 46.1875 54.6875 
L 57.421875 12.015625 
L 68.609375 54.6875 
L 77.59375 54.6875 
L 63.28125 0 
L 52.6875 0 
L 40.921875 44.828125 
L 29.109375 0 
L 18.5 0 
z
" id="DejaVuSans-119"/>
     <path d="M 10.59375 45.40625 
L 73.1875 45.40625 
L 73.1875 37.203125 
L 10.59375 37.203125 
z
M 10.59375 25.484375 
L 73.1875 25.484375 
L 73.1875 17.1875 
L 10.59375 17.1875 
z
" id="DejaVuSans-61"/>
     <path d="M -0.296875 72.90625 
L 61.375 72.90625 
L 61.375 64.59375 
L 35.5 64.59375 
L 35.5 0 
L 25.59375 0 
L 25.59375 64.59375 
L -0.296875 64.59375 
z
" id="DejaVuSans-84"/>
     <path d="M 41.109375 46.296875 
Q 39.59375 47.171875 37.8125 47.578125 
Q 36.03125 48 33.890625 48 
Q 26.265625 48 22.1875 43.046875 
Q 18.109375 38.09375 18.109375 28.8125 
L 18.109375 0 
L 9.078125 0 
L 9.078125 54.6875 
L 18.109375 54.6875 
L 18.109375 46.1875 
Q 20.953125 51.171875 25.484375 53.578125 
Q 30.03125 56 36.53125 56 
Q 37.453125 56 38.578125 55.875 
Q 39.703125 55.765625 41.0625 55.515625 
z
" id="DejaVuSans-114"/>
     <path d="M 19.671875 64.796875 
L 19.671875 8.109375 
L 31.59375 8.109375 
Q 46.6875 8.109375 53.6875 14.9375 
Q 60.6875 21.78125 60.6875 36.53125 
Q 60.6875 51.171875 53.6875 57.984375 
Q 46.6875 64.796875 31.59375 64.796875 
z
M 9.8125 72.90625 
L 30.078125 72.90625 
Q 51.265625 72.90625 61.171875 64.09375 
Q 71.09375 55.28125 71.09375 36.53125 
Q 71.09375 17.671875 61.125 8.828125 
Q 51.171875 0 30.078125 0 
L 9.8125 0 
z
" id="DejaVuSans-68"/>
     <path d="M 45.40625 27.984375 
Q 45.40625 37.75 41.375 43.109375 
Q 37.359375 48.484375 30.078125 48.484375 
Q 22.859375 48.484375 18.828125 43.109375 
Q 14.796875 37.75 14.796875 27.984375 
Q 14.796875 18.265625 18.828125 12.890625 
Q 22.859375 7.515625 30.078125 7.515625 
Q 37.359375 7.515625 41.375 12.890625 
Q 45.40625 18.265625 45.40625 27.984375 
z
M 54.390625 6.78125 
Q 54.390625 -7.171875 48.1875 -13.984375 
Q 42 -20.796875 29.203125 -20.796875 
Q 24.46875 -20.796875 20.265625 -20.09375 
Q 16.0625 -19.390625 12.109375 -17.921875 
L 12.109375 -9.1875 
Q 16.0625 -11.328125 19.921875 -12.34375 
Q 23.78125 -13.375 27.78125 -13.375 
Q 36.625 -13.375 41.015625 -8.765625 
Q 45.40625 -4.15625 45.40625 5.171875 
L 45.40625 9.625 
Q 42.625 4.78125 38.28125 2.390625 
Q 33.9375 0 27.875 0 
Q 17.828125 0 11.671875 7.65625 
Q 5.515625 15.328125 5.515625 27.984375 
Q 5.515625 40.671875 11.671875 48.328125 
Q 17.828125 56 27.875 56 
Q 33.9375 56 38.28125 53.609375 
Q 42.625 51.21875 45.40625 46.390625 
L 45.40625 54.6875 
L 54.390625 54.6875 
z
" id="DejaVuSans-103"/>
     <path d="M 34.28125 27.484375 
Q 23.390625 27.484375 19.1875 25 
Q 14.984375 22.515625 14.984375 16.5 
Q 14.984375 11.71875 18.140625 8.90625 
Q 21.296875 6.109375 26.703125 6.109375 
Q 34.1875 6.109375 38.703125 11.40625 
Q 43.21875 16.703125 43.21875 25.484375 
L 43.21875 27.484375 
z
M 52.203125 31.203125 
L 52.203125 0 
L 43.21875 0 
L 43.21875 8.296875 
Q 40.140625 3.328125 35.546875 0.953125 
Q 30.953125 -1.421875 24.3125 -1.421875 
Q 15.921875 -1.421875 10.953125 3.296875 
Q 6 8.015625 6 15.921875 
Q 6 25.140625 12.171875 29.828125 
Q 18.359375 34.515625 30.609375 34.515625 
L 43.21875 34.515625 
L 43.21875 35.40625 
Q 43.21875 41.609375 39.140625 45 
Q 35.0625 48.390625 27.6875 48.390625 
Q 23 48.390625 18.546875 47.265625 
Q 14.109375 46.140625 10.015625 43.890625 
L 10.015625 52.203125 
Q 14.9375 54.109375 19.578125 55.046875 
Q 24.21875 56 28.609375 56 
Q 40.484375 56 46.34375 49.84375 
Q 52.203125 43.703125 52.203125 31.203125 
z
" id="DejaVuSans-97"/>
     <path d="M 9.421875 54.6875 
L 18.40625 54.6875 
L 18.40625 0 
L 9.421875 0 
z
M 9.421875 75.984375 
L 18.40625 75.984375 
L 18.40625 64.59375 
L 9.421875 64.59375 
z
" id="DejaVuSans-105"/>
     <path d="M 10.6875 12.40625 
L 21 12.40625 
L 21 0 
L 10.6875 0 
z
" id="DejaVuSans-46"/>
     <path d="M 12.40625 8.296875 
L 28.515625 8.296875 
L 28.515625 63.921875 
L 10.984375 60.40625 
L 10.984375 69.390625 
L 28.421875 72.90625 
L 38.28125 72.90625 
L 38.28125 8.296875 
L 54.390625 8.296875 
L 54.390625 0 
L 12.40625 0 
z
" id="DejaVuSans-49"/>
    </defs>
    <g transform="translate(59.368125 35.472)scale(0.12 -0.12)">
     <use xlink:href="#DejaVuSans-40"/>
     <use x="39.013672" xlink:href="#DejaVuSans-50"/>
     <use x="102.636719" xlink:href="#DejaVuSans-41"/>
     <use x="141.650391" xlink:href="#DejaVuSans-32"/>
     <use x="173.4375" xlink:href="#DejaVuSans-83"/>
     <use x="236.914062" xlink:href="#DejaVuSans-117"/>
     <use x="300.292969" xlink:href="#DejaVuSans-98"/>
     <use x="363.769531" xlink:href="#DejaVuSans-106"/>
     <use x="391.552734" xlink:href="#DejaVuSans-101"/>
     <use x="453.076172" xlink:href="#DejaVuSans-99"/>
     <use x="508.056641" xlink:href="#DejaVuSans-116"/>
     <use x="547.265625" xlink:href="#DejaVuSans-58"/>
     <use x="580.957031" xlink:href="#DejaVuSans-32"/>
     <use x="612.744141" xlink:href="#DejaVuSans-115"/>
     <use x="664.84375" xlink:href="#DejaVuSans-51"/>
     <use x="728.466797" xlink:href="#DejaVuSans-44"/>
     <use x="760.253906" xlink:href="#DejaVuSans-32"/>
     <use x="792.041016" xlink:href="#DejaVuSans-75"/>
     <use x="857.617188" xlink:href="#DejaVuSans-110"/>
     <use x="920.996094" xlink:href="#DejaVuSans-111"/>
     <use x="982.177734" xlink:href="#DejaVuSans-119"/>
     <use x="1063.964844" xlink:href="#DejaVuSans-110"/>
     <use x="1127.34375" xlink:href="#DejaVuSans-32"/>
     <use x="1159.130859" xlink:href="#DejaVuSans-61"/>
     <use x="1242.919922" xlink:href="#DejaVuSans-32"/>
     <use x="1274.707031" xlink:href="#DejaVuSans-84"/>
     <use x="1335.572266" xlink:href="#DejaVuSans-114"/>
     <use x="1376.685547" xlink:href="#DejaVuSans-117"/>
     <use x="1440.064453" xlink:href="#DejaVuSans-101"/>
     <use x="1501.587891" xlink:href="#DejaVuSans-44"/>
     <use x="1533.375" xlink:href="#DejaVuSans-32"/>
     <use x="1565.162109" xlink:href="#DejaVuSans-68"/>
     <use x="1642.164062" xlink:href="#DejaVuSans-101"/>
     <use x="1703.6875" xlink:href="#DejaVuSans-103"/>
     <use x="1767.164062" xlink:href="#DejaVuSans-114"/>
     <use x="1808.246094" xlink:href="#DejaVuSans-101"/>
     <use x="1869.769531" xlink:href="#DejaVuSans-101"/>
     <use x="1931.292969" xlink:href="#DejaVuSans-32"/>
     <use x="1963.080078" xlink:href="#DejaVuSans-61"/>
     <use x="2046.869141" xlink:href="#DejaVuSans-32"/>
     <use x="2078.65625" xlink:href="#DejaVuSans-50"/>
     <use x="2142.279297" xlink:href="#DejaVuSans-44"/>
     <use x="2174.066406" xlink:href="#DejaVuSans-32"/>
     <use x="2205.853516" xlink:href="#DejaVuSans-68"/>
     <use x="2282.855469" xlink:href="#DejaVuSans-117"/>
     <use x="2346.234375" xlink:href="#DejaVuSans-114"/>
     <use x="2387.347656" xlink:href="#DejaVuSans-97"/>
     <use x="2448.626953" xlink:href="#DejaVuSans-116"/>
     <use x="2487.835938" xlink:href="#DejaVuSans-105"/>
     <use x="2515.619141" xlink:href="#DejaVuSans-111"/>
     <use x="2576.800781" xlink:href="#DejaVuSans-110"/>
     <use x="2640.179688" xlink:href="#DejaVuSans-32"/>
     <use x="2671.966797" xlink:href="#DejaVuSans-61"/>
     <use x="2755.755859" xlink:href="#DejaVuSans-32"/>
     <use x="2787.542969" xlink:href="#DejaVuSans-48"/>
     <use x="2851.166016" xlink:href="#DejaVuSans-46"/>
     <use x="2882.953125" xlink:href="#DejaVuSans-49"/>
    </g>
   </g>
  </g>
 </g>
 <defs>
  <clipPath id="p96cfdad9cc">
   <rect height="266.112" width="357.12" x="57.6" y="41.472"/>
  </clipPath>
 </defs>
</svg>
