<?xml version="1.0" encoding="utf-8" standalone="no"?>
<!DOCTYPE svg PUBLIC "-//W3C//DTD SVG 1.1//EN"
  "http://www.w3.org/Graphics/SVG/1.1/DTD/svg11.dtd">
<!-- Created with matplotlib (https://matplotlib.org/) -->
<svg height="345.6pt" version="1.1" viewBox="0 0 460.8 345.6" width="460.8pt" xmlns="http://www.w3.org/2000/svg" xmlns:xlink="http://www.w3.org/1999/xlink">
 <defs>
  <style type="text/css">
*{stroke-linecap:butt;stroke-linejoin:round;}
  </style>
 </defs>
 <g id="figure_1">
  <g id="patch_1">
   <path d="M 0 345.6 
L 460.8 345.6 
L 460.8 0 
L 0 0 
z
" style="fill:#ffffff;"/>
  </g>
  <g id="axes_1">
   <g id="patch_2">
    <path d="M 57.6 307.584 
L 414.72 307.584 
L 414.72 41.472 
L 57.6 41.472 
z
" style="fill:#ffffff;"/>
   </g>
   <g id="line2d_1">
    <path clip-path="url(#pe525a15168)" d="M 74.941546 280.004787 
L 75.608537 279.035227 
L 76.050365 280.004787 
L 76.050365 281.456152 
L 76.271279 281.456152 
L 76.271279 280.004787 
L 75.829451 279.035227 
L 75.608537 280.004787 
L 75.829451 281.456152 
L 76.717356 281.456152 
L 76.717356 281.937958 
L 78.493166 281.937958 
L 78.268003 281.456152 
L 76.93827 281.456152 
L 77.159184 280.968398 
L 77.605261 280.968398 
L 77.605261 281.937958 
L 77.380098 283.389323 
L 76.717356 282.419764 
L 76.050365 280.968398 
L 75.608537 279.517033 
L 75.829451 279.517033 
L 75.829451 280.968398 
L 75.608537 281.937958 
L 75.608537 280.968398 
L 76.050365 280.004787 
L 77.159184 279.517033 
L 77.159184 279.517033 
L 76.93827 279.035227 
L 76.93827 279.035227 
L 76.717356 280.004787 
L 76.271279 280.968398 
L 76.050365 280.004787 
L 76.050365 278.065668 
L 76.050365 280.968398 
L 75.829451 281.937958 
L 75.383374 280.486593 
L 75.829451 277.583862 
L 75.608537 277.102056 
L 74.941546 277.583862 
L 74.720632 278.065668 
L 75.383374 279.517033 
L 76.496442 282.419764 
L 76.496442 280.968398 
L 76.050365 278.553422 
L 76.271279 278.065668 
L 76.717356 278.553422 
L 76.93827 278.065668 
L 76.717356 277.102056 
L 76.496442 277.583862 
L 76.271279 279.035227 
L 75.829451 280.004787 
L 75.829451 279.517033 
L 76.050365 279.035227 
L 76.050365 279.035227 
L 75.829451 280.486593 
L 75.383374 281.456152 
L 74.720632 280.968398 
L 74.720632 280.004787 
L 75.829451 278.553422 
L 75.829451 280.004787 
L 75.383374 280.968398 
L 74.941546 280.486593 
L 74.49547 279.517033 
L 74.49547 278.553422 
L 75.16246 279.035227 
L 75.608537 280.004787 
L 75.608537 280.968398 
L 76.050365 280.968398 
L 76.050365 281.456152 
L 76.050365 281.456152 
L 76.271279 280.486593 
L 76.271279 279.517033 
L 76.050365 280.004787 
L 76.050365 281.456152 
L 76.050365 281.456152 
L 75.383374 281.456152 
L 75.829451 280.968398 
L 76.050365 280.486593 
L 75.829451 279.517033 
L 75.829451 278.553422 
L 76.050365 278.553422 
L 76.050365 278.553422 
L 75.829451 279.517033 
L 75.383374 280.486593 
L 75.608537 280.968398 
L 75.608537 280.004787 
L 75.383374 278.553422 
L 74.941546 279.517033 
L 74.720632 279.517033 
L 74.720632 279.035227 
L 74.941546 279.035227 
L 74.720632 280.004787 
L 74.720632 281.456152 
L 74.720632 279.517033 
L 74.941546 279.035227 
L 74.720632 279.035227 
L 74.053641 278.553422 
L 74.274556 278.065668 
L 74.941546 278.553422 
L 75.383374 279.035227 
L 75.608537 279.035227 
L 75.383374 278.553422 
L 74.941546 278.065668 
L 74.49547 277.102056 
L 74.49547 276.614302 
L 74.49547 277.102056 
L 74.941546 277.102056 
L 75.608537 276.614302 
L 75.829451 276.614302 
L 75.829451 277.102056 
L 76.271279 279.517033 
L 76.496442 279.035227 
L 76.271279 277.583862 
L 75.608537 276.132497 
L 75.16246 274.681131 
L 75.383374 275.162937 
L 75.829451 276.132497 
L 75.829451 277.102056 
L 76.050365 276.614302 
L 76.050365 276.614302 
L 75.829451 276.614302 
L 76.050365 276.614302 
L 76.050365 277.102056 
L 74.720632 277.102056 
L 74.720632 277.583862 
L 75.383374 279.035227 
L 74.941546 277.102056 
L 75.829451 276.132497 
L 75.16246 276.132497 
L 74.941546 275.650691 
L 75.16246 275.650691 
L 75.383374 276.614302 
L 75.383374 277.583862 
L 75.608537 278.065668 
L 75.829451 277.583862 
L 76.050365 278.065668 
L 76.050365 279.035227 
L 75.608537 278.553422 
L 74.941546 277.102056 
L 74.720632 276.132497 
L 74.49547 276.132497 
L 74.49547 276.614302 
L 75.608537 279.035227 
L 75.608537 279.035227 
L 76.050365 279.035227 
L 76.271279 278.553422 
L 76.271279 277.102056 
L 76.271279 278.065668 
L 75.829451 278.553422 
L 75.608537 279.035227 
L 75.383374 279.035227 
L 75.383374 278.065668 
L 75.829451 275.162937 
L 75.383374 275.650691 
L 74.720632 276.132497 
L 74.49547 275.650691 
L 74.49547 276.132497 
L 74.720632 277.583862 
L 75.608537 277.583862 
L 75.829451 276.614302 
L 75.829451 276.614302 
L 75.383374 276.614302 
L 74.941546 276.132497 
L 74.49547 276.132497 
L 74.274556 276.614302 
L 74.274556 277.102056 
L 74.720632 277.102056 
L 74.49547 277.102056 
L 74.274556 276.614302 
L 74.274556 275.650691 
L 74.49547 275.650691 
L 74.053641 274.199326 
L 74.720632 273.711572 
L 75.608537 274.681131 
L 75.829451 276.132497 
L 75.383374 277.102056 
L 74.720632 277.583862 
L 74.720632 276.132497 
L 73.832727 276.132497 
L 74.274556 276.132497 
L 74.941546 277.583862 
L 75.16246 277.102056 
L 75.16246 274.681131 
L 75.383374 274.199326 
L 75.383374 274.681131 
L 74.941546 275.162937 
L 74.720632 275.650691 
L 74.941546 275.162937 
L 76.271279 274.681131 
L 80.264727 274.681131 
L 82.707527 275.650691 
L 86.038233 277.102056 
L 90.473508 276.614302 
L 95.800937 275.162937 
L 101.570195 274.199326 
L 108.227357 274.681131 
L 115.330596 274.681131 
L 122.871414 274.199326 
L 131.529549 274.681131 
L 140.183434 276.614302 
L 148.83732 278.065668 
L 167.253911 278.065668 
L 185.228674 277.102056 
L 194.54955 277.583862 
L 212.082485 279.517033 
L 221.178199 280.004787 
L 238.711133 278.065668 
L 260.012353 278.065668 
L 266.227687 279.517033 
L 271.996944 281.937958 
L 277.099211 283.871129 
L 281.759649 285.322494 
L 285.532182 286.77386 
L 288.416811 288.712979 
L 291.526602 291.133904 
L 292.189344 292.585269 
L 291.96843 293.067075 
L 291.080525 292.585269 
L 289.304716 293.067075 
L 285.090354 295.000246 
L 283.09363 295.488 
L 278.433192 293.548881 
L 274.660658 293.548881 
L 273.326677 293.067075 
L 272.217858 292.097515 
L 270.888125 290.64615 
L 269.779306 290.164344 
L 269.333229 290.64615 
L 270.00022 291.133904 
L 271.109039 291.61571 
L 271.996944 291.61571 
L 272.663935 291.133904 
L 273.326677 289.682539 
L 274.439744 289.194785 
L 275.327649 289.682539 
L 276.436468 290.164344 
L 277.766201 289.682539 
L 278.87502 289.682539 
L 279.983839 290.64615 
L 281.096906 291.133904 
L 282.205725 290.64615 
L 283.756373 289.682539 
L 284.644277 288.712979 
L 284.423363 288.225225 
L 283.981535 288.712979 
L 283.756373 289.194785 
L 283.535459 289.194785 
L 283.09363 289.682539 
L 282.647554 290.64615 
L 282.647554 290.64615 
L 282.647554 289.194785 
L 281.984811 288.712979 
L 281.096906 290.164344 
L 279.983839 290.64615 
L 278.87502 290.64615 
L 278.212278 288.712979 
L 278.212278 287.261614 
L 278.433192 285.810248 
L 278.433192 286.292054 
L 278.654106 286.292054 
L 278.433192 286.77386 
L 276.657382 288.712979 
L 276.436468 288.225225 
L 276.211306 286.77386 
L 276.211306 285.322494 
L 276.657382 285.322494 
L 278.433192 287.743419 
L 279.100183 287.743419 
L 279.542011 286.77386 
L 279.542011 285.322494 
L 279.762925 283.871129 
L 279.100183 283.871129 
L 279.321097 284.358883 
L 279.321097 284.358883 
L 278.87502 284.358883 
L 279.100183 284.358883 
L 278.654106 283.871129 
L 278.212278 282.419764 
L 278.212278 282.907518 
L 278.87502 282.907518 
L 279.542011 281.456152 
L 279.321097 280.968398 
L 278.654106 281.456152 
L 278.433192 281.456152 
L 278.654106 281.937958 
L 279.100183 283.389323 
L 278.654106 281.937958 
L 277.987115 280.486593 
L 277.545287 280.486593 
L 277.324373 281.456152 
L 277.766201 282.419764 
L 278.212278 282.907518 
L 278.654106 282.907518 
L 278.87502 282.419764 
L 278.654106 281.937958 
L 277.987115 281.937958 
L 277.545287 281.456152 
L 277.545287 280.968398 
L 277.545287 281.456152 
L 277.987115 282.907518 
L 278.212278 282.419764 
L 277.766201 279.035227 
L 277.766201 279.035227 
L 277.324373 280.004787 
L 276.878296 280.004787 
L 277.324373 280.486593 
L 278.433192 280.486593 
L 278.87502 278.065668 
L 278.87502 276.614302 
L 279.100183 274.681131 
L 279.762925 272.74796 
L 280.871744 270.808841 
L 282.647554 269.357476 
L 285.090354 266.942499 
L 288.195897 263.070208 
L 291.96843 258.716112 
L 295.961878 253.392457 
L 299.959574 247.10519 
L 304.173936 240.811974 
L 308.388297 232.103782 
L 320.151974 205.009646 
L 323.924508 196.78326 
L 327.476127 188.075068 
L 330.802584 179.366876 
L 337.238832 161.462738 
L 343.449918 146.949084 
L 346.113632 139.210452 
L 349.444337 124.69085 
L 350.774071 117.921777 
L 351.882889 111.146756 
L 352.54988 102.92037 
L 353.437785 88.406717 
L 353.879613 82.601255 
L 354.104776 76.30804 
L 354.104776 63.245752 
L 353.658699 59.37941 
L 353.879613 57.44029 
L 354.32569 55.507119 
L 354.32569 54.055754 
L 354.104776 53.568 
L 353.879613 54.53756 
L 354.32569 56.470731 
L 354.767518 58.891656 
L 355.655423 66.636236 
L 356.322414 69.051213 
L 356.76849 71.472138 
L 356.989404 74.374869 
L 356.543328 77.277599 
L 356.1015 79.210771 
L 356.1015 80.662136 
L 356.322414 81.14989 
L 356.543328 81.14989 
L 356.543328 80.662136 
L 356.76849 81.14989 
L 357.210319 81.631696 
L 357.210319 82.601255 
L 356.76849 83.083061 
L 356.543328 83.083061 
L 356.543328 83.083061 
L 355.880585 82.601255 
L 355.213595 82.601255 
L 355.213595 81.14989 
L 355.880585 79.698524 
L 356.543328 79.210771 
L 356.543328 79.698524 
L 356.1015 80.18033 
L 355.880585 81.14989 
L 355.880585 80.662136 
L 355.655423 79.210771 
L 355.213595 78.728965 
L 354.992681 78.247159 
L 354.992681 77.277599 
L 354.546604 76.30804 
L 354.546604 76.795794 
L 355.434509 80.18033 
L 355.880585 80.662136 
L 356.1015 81.14989 
L 355.655423 81.14989 
L 354.992681 80.662136 
L 353.216871 81.631696 
L 352.770794 81.14989 
L 352.995957 80.662136 
L 353.658699 80.662136 
L 354.32569 81.631696 
L 354.104776 83.083061 
L 353.658699 84.05262 
L 353.216871 84.534426 
L 352.770794 83.570815 
L 352.54988 82.113501 
L 352.770794 81.631696 
L 352.995957 83.083061 
L 352.328966 84.534426 
L 352.54988 85.02218 
L 353.658699 85.02218 
L 353.879613 84.534426 
L 353.658699 83.570815 
L 352.995957 82.601255 
L 352.328966 82.601255 
L 352.108052 84.05262 
L 352.770794 84.05262 
L 353.216871 84.534426 
L 353.437785 84.534426 
L 352.995957 85.02218 
L 352.108052 85.02218 
L 351.661975 84.534426 
L 351.441061 84.05262 
L 351.441061 84.534426 
L 351.661975 85.985792 
L 351.441061 84.05262 
L 351.882889 83.083061 
L 351.882889 85.503986 
L 351.882889 85.503986 
L 351.220147 85.503986 
L 351.220147 85.985792 
L 351.661975 87.437157 
L 351.661975 86.473545 
L 351.882889 86.473545 
L 351.882889 86.955351 
L 350.553156 85.02218 
L 350.774071 84.534426 
L 350.774071 84.05262 
L 350.332242 84.534426 
L 350.553156 85.503986 
L 350.994985 85.503986 
L 350.994985 85.02218 
L 350.111328 85.503986 
L 349.223423 86.473545 
L 349.444337 86.473545 
L 350.332242 85.503986 
L 350.332242 85.503986 
L 349.665252 89.376276 
L 349.223423 87.437157 
L 348.777347 86.955351 
L 348.335518 87.924911 
L 348.556433 89.376276 
L 348.998261 89.376276 
L 349.444337 87.924911 
L 349.444337 86.473545 
L 349.665252 85.985792 
L 350.111328 86.473545 
L 350.332242 86.473545 
L 349.886166 85.985792 
L 349.223423 86.473545 
L 349.223423 87.437157 
L 349.444337 87.437157 
L 349.444337 86.955351 
L 349.223423 86.473545 
L 349.223423 85.503986 
L 349.444337 84.534426 
L 349.886166 84.05262 
L 350.332242 85.503986 
L 350.332242 85.02218 
L 350.774071 83.570815 
L 350.553156 84.534426 
L 350.553156 87.437157 
L 350.111328 89.376276 
L 350.111328 89.376276 
L 349.886166 88.406717 
L 349.444337 87.437157 
L 349.444337 86.955351 
L 349.223423 86.473545 
L 348.777347 87.437157 
L 348.110356 88.406717 
L 347.889442 87.924911 
L 348.110356 87.924911 
L 348.335518 87.437157 
L 347.889442 86.473545 
L 347.889442 87.437157 
L 348.110356 89.376276 
L 348.556433 90.827642 
L 348.335518 91.309447 
L 348.110356 90.339888 
L 347.668528 86.955351 
L 348.556433 85.985792 
L 348.998261 85.985792 
L 348.998261 86.473545 
L 349.223423 86.473545 
L 349.444337 86.955351 
L 349.223423 88.406717 
L 348.556433 88.888522 
L 348.110356 88.406717 
L 348.110356 86.473545 
L 348.556433 85.503986 
L 348.998261 85.985792 
L 349.665252 87.437157 
L 349.665252 89.858082 
L 349.665252 89.376276 
L 349.444337 87.924911 
L 350.332242 87.924911 
L 349.444337 87.924911 
L 348.998261 86.955351 
L 349.223423 87.437157 
L 349.223423 88.406717 
L 348.998261 88.406717 
L 349.223423 87.437157 
L 349.886166 86.955351 
L 350.553156 87.437157 
L 350.111328 88.888522 
L 349.223423 89.376276 
L 348.556433 88.888522 
L 348.777347 87.924911 
L 349.223423 87.924911 
L 349.223423 88.406717 
L 348.998261 89.858082 
L 348.777347 90.339888 
L 348.110356 87.924911 
L 347.889442 87.437157 
L 347.889442 89.376276 
L 347.447614 89.858082 
L 347.001537 88.888522 
L 346.780623 87.437157 
L 347.447614 87.437157 
L 347.668528 89.376276 
L 347.447614 87.924911 
L 348.110356 88.406717 
L 348.556433 88.406717 
L 348.335518 87.924911 
L 347.889442 87.437157 
L 347.668528 86.955351 
L 347.447614 86.955351 
L 347.447614 85.503986 
L 347.222451 85.02218 
L 347.001537 85.02218 
L 347.001537 84.534426 
L 347.668528 84.534426 
L 348.777347 85.985792 
L 349.444337 86.473545 
L 349.223423 85.985792 
L 348.998261 84.05262 
L 348.998261 83.083061 
L 348.777347 83.083061 
L 348.998261 83.570815 
L 349.444337 83.570815 
L 349.665252 84.534426 
L 349.665252 85.985792 
L 349.886166 86.473545 
L 350.553156 85.02218 
L 350.774071 83.570815 
L 350.332242 82.113501 
L 349.444337 81.631696 
L 347.447614 81.631696 
L 347.889442 81.631696 
L 348.556433 81.14989 
L 348.998261 80.662136 
L 348.998261 82.601255 
L 348.998261 80.662136 
L 348.556433 79.698524 
L 348.110356 79.210771 
L 348.110356 79.210771 
L 348.110356 80.18033 
L 348.556433 81.631696 
L 349.223423 81.631696 
L 348.998261 80.662136 
L 349.223423 79.698524 
L 349.665252 79.210771 
L 349.665252 78.728965 
L 349.223423 78.247159 
L 348.998261 78.728965 
L 348.998261 79.210771 
L 348.998261 78.247159 
L 349.223423 78.728965 
L 349.223423 78.728965 
L 348.777347 76.795794 
L 348.777347 74.856674 
L 349.223423 75.826234 
L 349.444337 77.277599 
L 348.998261 77.759405 
L 348.777347 76.30804 
L 349.223423 75.826234 
L 350.553156 75.826234 
L 349.886166 74.374869 
L 349.886166 74.374869 
L 350.332242 74.856674 
L 350.553156 75.344428 
L 350.553156 75.826234 
L 350.994985 76.30804 
L 351.220147 76.30804 
L 350.774071 73.893063 
L 350.994985 73.893063 
L 349.665252 76.795794 
L 350.553156 74.856674 
L 350.774071 74.856674 
L 350.553156 74.856674 
L 350.332242 74.374869 
L 350.332242 73.405309 
L 351.220147 71.472138 
L 351.220147 71.953944 
L 351.441061 73.893063 
L 350.994985 73.405309 
L 351.441061 73.893063 
L 351.882889 74.856674 
L 351.882889 75.344428 
L 351.220147 74.374869 
L 350.774071 72.923503 
L 350.553156 72.923503 
L 350.553156 75.826234 
L 350.332242 76.795794 
L 350.111328 76.795794 
L 350.553156 76.795794 
L 350.774071 75.826234 
L 350.553156 75.344428 
L 349.886166 75.344428 
L 349.444337 75.826234 
L 349.886166 75.344428 
L 350.994985 73.893063 
L 351.661975 73.893063 
L 352.328966 74.374869 
L 352.995957 74.374869 
L 353.437785 74.856674 
L 354.104776 75.344428 
L 355.434509 77.277599 
L 357.652147 79.210771 
L 360.315861 80.18033 
L 362.979576 82.113501 
L 369.19491 88.888522 
L 372.521367 92.279007 
L 375.626909 96.145349 
L 379.178529 101.469005 
L 382.730148 106.310855 
L 385.172948 110.664951 
L 388.499405 119.854948 
L 390.496129 124.209044 
L 392.051025 128.563141 
L 393.159844 132.917237 
L 393.380758 136.789527 
L 393.380758 143.076794 
L 393.601672 146.467279 
L 392.718015 148.882255 
L 391.16312 150.333621 
L 390.496129 152.27274 
L 390.942206 157.108642 
L 392.718015 162.432297 
L 393.159844 164.365468 
L 393.380758 166.304588 
L 393.159844 167.755953 
L 393.601672 169.689124 
L 394.489577 172.110049 
L 395.156567 174.530974 
L 396.265386 175.982339 
L 397.599368 177.433705 
L 398.487273 177.915511 
L 398.487273 182.269607 
L 398.26211 184.690532 
L 398.041196 185.654143 
L 397.820282 185.172337 
L 397.820282 185.654143 
L 397.374205 187.105508 
L 396.932377 189.044628 
L 396.486301 190.495993 
L 396.044472 190.495993 
L 395.377482 190.977799 
L 394.489577 191.947358 
L 394.047749 193.398724 
L 393.380758 194.850089 
L 392.93893 196.78326 
L 392.93893 197.75282 
L 393.380758 197.271014 
L 393.601672 196.78326 
L 393.159844 197.75282 
L 392.492853 198.722379 
L 392.492853 198.722379 
L 392.718015 198.722379 
L 393.380758 202.588721 
L 393.826834 202.588721 
L 393.826834 201.62511 
L 393.601672 202.106916 
L 393.380758 203.558281 
L 393.159844 204.040087 
L 393.159844 202.588721 
L 391.16312 202.588721 
L 390.942206 203.076475 
L 392.492853 206.461012 
L 393.159844 205.009646 
L 392.93893 203.558281 
L 392.051025 203.076475 
L 391.384034 203.076475 
L 391.384034 203.076475 
L 390.717043 204.040087 
L 390.275215 205.491452 
L 390.275215 205.979206 
L 390.717043 205.979206 
L 390.942206 206.461012 
L 391.16312 207.912377 
L 390.942206 208.394183 
L 390.275215 208.394183 
L 390.054301 207.430571 
L 390.496129 207.430571 
L 390.717043 207.912377 
L 390.942206 207.912377 
L 390.942206 207.912377 
L 390.942206 208.394183 
L 391.384034 208.881937 
L 391.604948 209.845548 
L 390.942206 209.845548 
L 391.16312 209.845548 
L 391.604948 210.333302 
L 392.051025 211.296913 
L 392.051025 212.266473 
L 392.051025 210.815108 
L 391.830111 210.333302 
L 390.717043 210.333302 
L 390.942206 210.333302 
L 390.942206 209.363742 
L 390.717043 210.333302 
L 390.275215 213.717838 
L 390.496129 211.296913 
L 390.496129 210.815108 
L 390.717043 211.296913 
L 390.496129 212.748279 
L 390.054301 213.236033 
L 390.054301 213.236033 
L 390.717043 213.717838 
L 390.942206 214.687398 
L 390.275215 215.65101 
L 389.608224 217.102375 
L 389.166396 216.620569 
L 388.945482 214.687398 
L 388.720319 213.717838 
L 388.499405 214.199644 
L 388.499405 215.169204 
L 388.720319 217.102375 
L 388.945482 217.590129 
L 388.945482 217.590129 
L 388.945482 216.620569 
L 388.278491 214.199644 
L 388.278491 214.687398 
L 389.166396 215.65101 
L 389.166396 215.169204 
L 388.720319 215.65101 
L 388.720319 216.138763 
L 388.945482 216.620569 
L 389.608224 217.102375 
L 390.054301 216.620569 
L 390.054301 216.620569 
L 389.829138 216.620569 
L 389.829138 215.169204 
L 390.054301 214.687398 
L 389.829138 215.65101 
L 389.38731 216.620569 
L 389.38731 217.590129 
L 389.166396 217.590129 
L 388.278491 215.65101 
L 388.278491 215.169204 
L 388.499405 215.65101 
L 388.720319 217.102375 
L 388.945482 217.590129 
L 389.38731 217.102375 
L 389.608224 216.620569 
L 389.38731 216.138763 
L 388.945482 215.65101 
L 389.829138 215.65101 
L 389.608224 215.65101 
L 388.720319 216.620569 
L 388.278491 217.590129 
L 388.499405 218.071934 
L 389.166396 218.55374 
L 389.608224 218.55374 
L 389.608224 218.071934 
L 388.945482 218.071934 
L 388.499405 217.590129 
L 388.278491 217.102375 
L 388.499405 216.620569 
L 389.166396 218.071934 
L 388.720319 219.041494 
L 388.499405 219.041494 
L 388.499405 218.071934 
L 388.945482 217.590129 
L 389.608224 216.620569 
L 389.38731 217.102375 
L 388.499405 217.102375 
L 387.832415 217.590129 
L 388.720319 217.590129 
L 389.608224 219.041494 
L 389.166396 219.5233 
L 388.720319 219.5233 
L 388.057577 219.041494 
L 387.832415 217.590129 
L 387.832415 216.620569 
L 388.057577 217.102375 
L 388.499405 218.55374 
L 388.499405 219.5233 
L 389.166396 219.5233 
L 389.38731 219.041494 
L 388.945482 218.55374 
L 388.057577 218.55374 
L 388.278491 219.041494 
L 388.720319 219.5233 
L 388.720319 219.5233 
L 388.499405 219.041494 
L 388.945482 218.55374 
L 389.166396 218.55374 
L 389.38731 218.071934 
L 389.38731 217.590129 
L 389.38731 218.55374 
L 388.945482 219.5233 
L 387.832415 220.974665 
L 387.832415 220.492859 
L 388.278491 220.492859 
L 388.720319 220.974665 
L 389.166396 220.974665 
L 389.38731 220.492859 
L 388.945482 220.005106 
L 388.499405 220.492859 
L 388.278491 220.974665 
L 388.720319 220.974665 
L 389.166396 220.005106 
L 389.38731 218.55374 
L 389.608224 218.071934 
L 390.054301 218.071934 
L 390.275215 218.55374 
L 390.054301 219.5233 
L 389.829138 221.462419 
L 389.829138 222.426031 
L 389.608224 221.944225 
L 389.829138 220.974665 
L 390.496129 220.492859 
L 391.16312 220.492859 
L 391.384034 220.974665 
L 390.942206 221.462419 
L 389.166396 221.462419 
L 389.38731 220.974665 
L 389.166396 220.492859 
L 388.720319 220.974665 
L 388.499405 221.944225 
L 388.945482 222.913784 
L 389.829138 223.39559 
L 390.275215 223.39559 
L 390.054301 223.877396 
L 389.608224 223.39559 
L 389.166396 220.974665 
L 389.166396 220.974665 
L 389.608224 222.426031 
L 389.829138 224.846956 
L 389.608224 226.298321 
L 389.38731 225.816515 
L 389.608224 224.36515 
L 389.608224 222.913784 
L 389.166396 222.426031 
L 388.720319 222.426031 
L 388.720319 223.877396 
L 388.945482 224.36515 
L 390.054301 225.816515 
L 390.054301 226.298321 
L 390.054301 225.328761 
L 390.496129 224.36515 
L 390.717043 222.913784 
L 390.054301 221.944225 
L 389.38731 221.462419 
L 388.945482 221.462419 
L 388.945482 224.846956 
L 389.166396 226.298321 
L 389.38731 226.780127 
L 389.38731 222.426031 
L 388.945482 221.462419 
L 388.720319 222.426031 
L 389.38731 223.877396 
L 390.275215 225.328761 
L 390.275215 225.328761 
L 389.829138 225.328761 
L 389.38731 225.816515 
L 389.608224 226.298321 
L 389.608224 224.846956 
L 389.166396 223.39559 
L 388.278491 222.913784 
L 388.499405 222.426031 
L 388.945482 222.426031 
L 389.166396 223.39559 
L 390.275215 224.846956 
L 390.054301 223.877396 
L 389.608224 222.913784 
L 389.166396 222.913784 
L 388.720319 224.36515 
L 388.720319 225.328761 
L 388.945482 225.328761 
L 388.945482 224.846956 
L 388.720319 223.877396 
L 388.278491 224.36515 
L 388.278491 226.298321 
L 388.278491 225.816515 
L 388.057577 223.877396 
L 388.057577 224.36515 
L 387.832415 225.328761 
L 387.832415 226.780127 
L 388.278491 225.816515 
L 387.169672 225.816515 
L 386.94451 226.780127 
L 387.169672 226.780127 
L 387.611501 225.816515 
L 387.611501 224.846956 
L 387.390586 224.846956 
L 387.390586 225.328761 
L 387.611501 225.816515 
L 388.057577 225.328761 
L 388.057577 225.328761 
L 387.611501 226.780127 
L 387.611501 227.749686 
L 387.390586 227.267881 
L 386.723596 226.780127 
L 386.281767 227.749686 
L 386.723596 228.231492 
L 387.169672 228.231492 
L 387.169672 227.749686 
L 387.390586 227.749686 
L 387.611501 227.267881 
L 387.169672 227.267881 
L 386.502682 227.749686 
L 386.281767 229.201052 
L 386.723596 227.267881 
L 386.281767 229.201052 
L 386.723596 230.170611 
L 387.169672 229.682857 
L 386.94451 229.201052 
L 386.502682 228.719246 
L 386.502682 230.170611 
L 386.94451 230.652417 
L 386.723596 230.170611 
L 386.281767 230.170611 
L 386.281767 230.652417 
L 386.723596 231.134223 
L 386.94451 230.652417 
L 386.723596 230.170611 
L 386.723596 228.231492 
L 386.502682 228.231492 
L 386.056605 227.749686 
L 385.393863 228.719246 
L 385.172948 230.652417 
L 384.947786 231.621977 
L 385.172948 231.621977 
L 385.835691 231.134223 
L 386.281767 231.134223 
L 386.056605 230.652417 
L 385.835691 230.652417 
L 385.393863 231.134223 
L 385.393863 232.103782 
L 386.281767 233.555148 
L 386.281767 233.073342 
L 386.056605 232.103782 
L 385.614777 232.103782 
L 385.172948 231.621977 
L 385.172948 231.134223 
L 385.172948 231.134223 
L 385.614777 233.555148 
L 385.614777 234.524707 
L 385.614777 233.555148 
L 385.393863 234.036953 
L 385.393863 234.524707 
L 385.835691 229.682857 
L 385.614777 230.652417 
L 384.947786 232.103782 
L 384.726872 233.555148 
L 384.947786 234.524707 
L 384.726872 233.555148 
L 384.285044 233.073342 
L 384.059881 232.585588 
L 384.059881 232.585588 
L 384.059881 233.073342 
L 383.838967 233.073342 
L 383.838967 232.585588 
L 383.618053 232.585588 
L 383.838967 233.555148 
L 384.285044 233.555148 
L 384.505958 232.585588 
L 384.059881 232.585588 
L 383.838967 233.073342 
L 383.838967 233.073342 
L 384.505958 232.103782 
L 384.947786 232.103782 
L 383.838967 234.524707 
L 383.397139 235.006513 
L 383.397139 235.976073 
L 383.397139 235.976073 
L 382.951062 233.073342 
L 383.397139 232.585588 
L 384.059881 232.585588 
L 384.505958 234.036953 
L 384.285044 235.976073 
L 383.838967 236.939684 
L 383.397139 236.939684 
L 382.730148 235.488319 
L 381.842243 234.524707 
L 381.842243 234.524707 
L 382.951062 234.524707 
L 383.171976 234.036953 
L 383.171976 234.036953 
L 383.171976 235.006513 
L 383.171976 234.524707 
L 382.509234 232.103782 
L 382.509234 235.006513 
L 382.509234 234.524707 
L 382.284071 234.524707 
L 382.284071 235.488319 
L 381.842243 236.457878 
L 381.621329 235.976073 
L 381.842243 235.006513 
L 382.284071 234.036953 
L 382.509234 234.036953 
L 382.509234 234.036953 
L 382.509234 233.555148 
L 382.509234 234.036953 
L 383.618053 235.488319 
L 383.397139 235.488319 
L 382.509234 235.488319 
L 382.063157 235.006513 
L 382.063157 234.524707 
L 382.063157 235.006513 
L 382.284071 235.488319 
L 382.730148 235.488319 
L 382.284071 235.006513 
L 381.842243 235.006513 
L 381.621329 235.488319 
L 381.621329 235.976073 
L 381.621329 235.976073 
L 381.175253 235.976073 
L 381.175253 235.976073 
L 381.842243 237.427438 
L 382.509234 237.427438 
L 382.509234 236.457878 
L 381.842243 235.976073 
L 381.400415 236.457878 
L 381.842243 235.976073 
L 382.063157 234.524707 
L 382.063157 234.524707 
" style="fill:none;stroke:#1f77b4;stroke-linecap:square;stroke-width:1.5;"/>
   </g>
   <g id="matplotlib.axis_1">
    <g id="xtick_1">
     <g id="line2d_2">
      <defs>
       <path d="M 0 0 
L 0 3.5 
" id="m363781b047" style="stroke:#000000;stroke-width:0.8;"/>
      </defs>
      <g>
       <use style="stroke:#000000;stroke-width:0.8;" x="85.333007" xlink:href="#m363781b047" y="307.584"/>
      </g>
     </g>
     <g id="text_1">
      <!-- −700 -->
      <defs>
       <path d="M 10.59375 35.5 
L 73.1875 35.5 
L 73.1875 27.203125 
L 10.59375 27.203125 
z
" id="DejaVuSans-8722"/>
       <path d="M 8.203125 72.90625 
L 55.078125 72.90625 
L 55.078125 68.703125 
L 28.609375 0 
L 18.3125 0 
L 43.21875 64.59375 
L 8.203125 64.59375 
z
" id="DejaVuSans-55"/>
       <path d="M 31.78125 66.40625 
Q 24.171875 66.40625 20.328125 58.90625 
Q 16.5 51.421875 16.5 36.375 
Q 16.5 21.390625 20.328125 13.890625 
Q 24.171875 6.390625 31.78125 6.390625 
Q 39.453125 6.390625 43.28125 13.890625 
Q 47.125 21.390625 47.125 36.375 
Q 47.125 51.421875 43.28125 58.90625 
Q 39.453125 66.40625 31.78125 66.40625 
z
M 31.78125 74.21875 
Q 44.046875 74.21875 50.515625 64.515625 
Q 56.984375 54.828125 56.984375 36.375 
Q 56.984375 17.96875 50.515625 8.265625 
Q 44.046875 -1.421875 31.78125 -1.421875 
Q 19.53125 -1.421875 13.0625 8.265625 
Q 6.59375 17.96875 6.59375 36.375 
Q 6.59375 54.828125 13.0625 64.515625 
Q 19.53125 74.21875 31.78125 74.21875 
z
" id="DejaVuSans-48"/>
      </defs>
      <g transform="translate(71.599413 322.182437)scale(0.1 -0.1)">
       <use xlink:href="#DejaVuSans-8722"/>
       <use x="83.789062" xlink:href="#DejaVuSans-55"/>
       <use x="147.412109" xlink:href="#DejaVuSans-48"/>
       <use x="211.035156" xlink:href="#DejaVuSans-48"/>
      </g>
     </g>
    </g>
    <g id="xtick_2">
     <g id="line2d_3">
      <g>
       <use style="stroke:#000000;stroke-width:0.8;" x="127.816492" xlink:href="#m363781b047" y="307.584"/>
      </g>
     </g>
     <g id="text_2">
      <!-- −600 -->
      <defs>
       <path d="M 33.015625 40.375 
Q 26.375 40.375 22.484375 35.828125 
Q 18.609375 31.296875 18.609375 23.390625 
Q 18.609375 15.53125 22.484375 10.953125 
Q 26.375 6.390625 33.015625 6.390625 
Q 39.65625 6.390625 43.53125 10.953125 
Q 47.40625 15.53125 47.40625 23.390625 
Q 47.40625 31.296875 43.53125 35.828125 
Q 39.65625 40.375 33.015625 40.375 
z
M 52.59375 71.296875 
L 52.59375 62.3125 
Q 48.875 64.0625 45.09375 64.984375 
Q 41.3125 65.921875 37.59375 65.921875 
Q 27.828125 65.921875 22.671875 59.328125 
Q 17.53125 52.734375 16.796875 39.40625 
Q 19.671875 43.65625 24.015625 45.921875 
Q 28.375 48.1875 33.59375 48.1875 
Q 44.578125 48.1875 50.953125 41.515625 
Q 57.328125 34.859375 57.328125 23.390625 
Q 57.328125 12.15625 50.6875 5.359375 
Q 44.046875 -1.421875 33.015625 -1.421875 
Q 20.359375 -1.421875 13.671875 8.265625 
Q 6.984375 17.96875 6.984375 36.375 
Q 6.984375 53.65625 15.1875 63.9375 
Q 23.390625 74.21875 37.203125 74.21875 
Q 40.921875 74.21875 44.703125 73.484375 
Q 48.484375 72.75 52.59375 71.296875 
z
" id="DejaVuSans-54"/>
      </defs>
      <g transform="translate(114.082898 322.182437)scale(0.1 -0.1)">
       <use xlink:href="#DejaVuSans-8722"/>
       <use x="83.789062" xlink:href="#DejaVuSans-54"/>
       <use x="147.412109" xlink:href="#DejaVuSans-48"/>
       <use x="211.035156" xlink:href="#DejaVuSans-48"/>
      </g>
     </g>
    </g>
    <g id="xtick_3">
     <g id="line2d_4">
      <g>
       <use style="stroke:#000000;stroke-width:0.8;" x="170.299977" xlink:href="#m363781b047" y="307.584"/>
      </g>
     </g>
     <g id="text_3">
      <!-- −500 -->
      <defs>
       <path d="M 10.796875 72.90625 
L 49.515625 72.90625 
L 49.515625 64.59375 
L 19.828125 64.59375 
L 19.828125 46.734375 
Q 21.96875 47.46875 24.109375 47.828125 
Q 26.265625 48.1875 28.421875 48.1875 
Q 40.625 48.1875 47.75 41.5 
Q 54.890625 34.8125 54.890625 23.390625 
Q 54.890625 11.625 47.5625 5.09375 
Q 40.234375 -1.421875 26.90625 -1.421875 
Q 22.3125 -1.421875 17.546875 -0.640625 
Q 12.796875 0.140625 7.71875 1.703125 
L 7.71875 11.625 
Q 12.109375 9.234375 16.796875 8.0625 
Q 21.484375 6.890625 26.703125 6.890625 
Q 35.15625 6.890625 40.078125 11.328125 
Q 45.015625 15.765625 45.015625 23.390625 
Q 45.015625 31 40.078125 35.4375 
Q 35.15625 39.890625 26.703125 39.890625 
Q 22.75 39.890625 18.8125 39.015625 
Q 14.890625 38.140625 10.796875 36.28125 
z
" id="DejaVuSans-53"/>
      </defs>
      <g transform="translate(156.566383 322.182437)scale(0.1 -0.1)">
       <use xlink:href="#DejaVuSans-8722"/>
       <use x="83.789062" xlink:href="#DejaVuSans-53"/>
       <use x="147.412109" xlink:href="#DejaVuSans-48"/>
       <use x="211.035156" xlink:href="#DejaVuSans-48"/>
      </g>
     </g>
    </g>
    <g id="xtick_4">
     <g id="line2d_5">
      <g>
       <use style="stroke:#000000;stroke-width:0.8;" x="212.783462" xlink:href="#m363781b047" y="307.584"/>
      </g>
     </g>
     <g id="text_4">
      <!-- −400 -->
      <defs>
       <path d="M 37.796875 64.3125 
L 12.890625 25.390625 
L 37.796875 25.390625 
z
M 35.203125 72.90625 
L 47.609375 72.90625 
L 47.609375 25.390625 
L 58.015625 25.390625 
L 58.015625 17.1875 
L 47.609375 17.1875 
L 47.609375 0 
L 37.796875 0 
L 37.796875 17.1875 
L 4.890625 17.1875 
L 4.890625 26.703125 
z
" id="DejaVuSans-52"/>
      </defs>
      <g transform="translate(199.049869 322.182437)scale(0.1 -0.1)">
       <use xlink:href="#DejaVuSans-8722"/>
       <use x="83.789062" xlink:href="#DejaVuSans-52"/>
       <use x="147.412109" xlink:href="#DejaVuSans-48"/>
       <use x="211.035156" xlink:href="#DejaVuSans-48"/>
      </g>
     </g>
    </g>
    <g id="xtick_5">
     <g id="line2d_6">
      <g>
       <use style="stroke:#000000;stroke-width:0.8;" x="255.266947" xlink:href="#m363781b047" y="307.584"/>
      </g>
     </g>
     <g id="text_5">
      <!-- −300 -->
      <defs>
       <path d="M 40.578125 39.3125 
Q 47.65625 37.796875 51.625 33 
Q 55.609375 28.21875 55.609375 21.1875 
Q 55.609375 10.40625 48.1875 4.484375 
Q 40.765625 -1.421875 27.09375 -1.421875 
Q 22.515625 -1.421875 17.65625 -0.515625 
Q 12.796875 0.390625 7.625 2.203125 
L 7.625 11.71875 
Q 11.71875 9.328125 16.59375 8.109375 
Q 21.484375 6.890625 26.8125 6.890625 
Q 36.078125 6.890625 40.9375 10.546875 
Q 45.796875 14.203125 45.796875 21.1875 
Q 45.796875 27.640625 41.28125 31.265625 
Q 36.765625 34.90625 28.71875 34.90625 
L 20.21875 34.90625 
L 20.21875 43.015625 
L 29.109375 43.015625 
Q 36.375 43.015625 40.234375 45.921875 
Q 44.09375 48.828125 44.09375 54.296875 
Q 44.09375 59.90625 40.109375 62.90625 
Q 36.140625 65.921875 28.71875 65.921875 
Q 24.65625 65.921875 20.015625 65.03125 
Q 15.375 64.15625 9.8125 62.3125 
L 9.8125 71.09375 
Q 15.4375 72.65625 20.34375 73.4375 
Q 25.25 74.21875 29.59375 74.21875 
Q 40.828125 74.21875 47.359375 69.109375 
Q 53.90625 64.015625 53.90625 55.328125 
Q 53.90625 49.265625 50.4375 45.09375 
Q 46.96875 40.921875 40.578125 39.3125 
z
" id="DejaVuSans-51"/>
      </defs>
      <g transform="translate(241.533354 322.182437)scale(0.1 -0.1)">
       <use xlink:href="#DejaVuSans-8722"/>
       <use x="83.789062" xlink:href="#DejaVuSans-51"/>
       <use x="147.412109" xlink:href="#DejaVuSans-48"/>
       <use x="211.035156" xlink:href="#DejaVuSans-48"/>
      </g>
     </g>
    </g>
    <g id="xtick_6">
     <g id="line2d_7">
      <g>
       <use style="stroke:#000000;stroke-width:0.8;" x="297.750433" xlink:href="#m363781b047" y="307.584"/>
      </g>
     </g>
     <g id="text_6">
      <!-- −200 -->
      <defs>
       <path d="M 19.1875 8.296875 
L 53.609375 8.296875 
L 53.609375 0 
L 7.328125 0 
L 7.328125 8.296875 
Q 12.9375 14.109375 22.625 23.890625 
Q 32.328125 33.6875 34.8125 36.53125 
Q 39.546875 41.84375 41.421875 45.53125 
Q 43.3125 49.21875 43.3125 52.78125 
Q 43.3125 58.59375 39.234375 62.25 
Q 35.15625 65.921875 28.609375 65.921875 
Q 23.96875 65.921875 18.8125 64.3125 
Q 13.671875 62.703125 7.8125 59.421875 
L 7.8125 69.390625 
Q 13.765625 71.78125 18.9375 73 
Q 24.125 74.21875 28.421875 74.21875 
Q 39.75 74.21875 46.484375 68.546875 
Q 53.21875 62.890625 53.21875 53.421875 
Q 53.21875 48.921875 51.53125 44.890625 
Q 49.859375 40.875 45.40625 35.40625 
Q 44.1875 33.984375 37.640625 27.21875 
Q 31.109375 20.453125 19.1875 8.296875 
z
" id="DejaVuSans-50"/>
      </defs>
      <g transform="translate(284.016839 322.182437)scale(0.1 -0.1)">
       <use xlink:href="#DejaVuSans-8722"/>
       <use x="83.789062" xlink:href="#DejaVuSans-50"/>
       <use x="147.412109" xlink:href="#DejaVuSans-48"/>
       <use x="211.035156" xlink:href="#DejaVuSans-48"/>
      </g>
     </g>
    </g>
    <g id="xtick_7">
     <g id="line2d_8">
      <g>
       <use style="stroke:#000000;stroke-width:0.8;" x="340.233918" xlink:href="#m363781b047" y="307.584"/>
      </g>
     </g>
     <g id="text_7">
      <!-- −100 -->
      <defs>
       <path d="M 12.40625 8.296875 
L 28.515625 8.296875 
L 28.515625 63.921875 
L 10.984375 60.40625 
L 10.984375 69.390625 
L 28.421875 72.90625 
L 38.28125 72.90625 
L 38.28125 8.296875 
L 54.390625 8.296875 
L 54.390625 0 
L 12.40625 0 
z
" id="DejaVuSans-49"/>
      </defs>
      <g transform="translate(326.500324 322.182437)scale(0.1 -0.1)">
       <use xlink:href="#DejaVuSans-8722"/>
       <use x="83.789062" xlink:href="#DejaVuSans-49"/>
       <use x="147.412109" xlink:href="#DejaVuSans-48"/>
       <use x="211.035156" xlink:href="#DejaVuSans-48"/>
      </g>
     </g>
    </g>
    <g id="xtick_8">
     <g id="line2d_9">
      <g>
       <use style="stroke:#000000;stroke-width:0.8;" x="382.717403" xlink:href="#m363781b047" y="307.584"/>
      </g>
     </g>
     <g id="text_8">
      <!-- 0 -->
      <g transform="translate(379.536153 322.182437)scale(0.1 -0.1)">
       <use xlink:href="#DejaVuSans-48"/>
      </g>
     </g>
    </g>
   </g>
   <g id="matplotlib.axis_2">
    <g id="ytick_1">
     <g id="line2d_10">
      <defs>
       <path d="M 0 0 
L -3.5 0 
" id="mba62a29426" style="stroke:#000000;stroke-width:0.8;"/>
      </defs>
      <g>
       <use style="stroke:#000000;stroke-width:0.8;" x="57.6" xlink:href="#mba62a29426" y="289.51004"/>
      </g>
     </g>
     <g id="text_9">
      <!-- −100 -->
      <g transform="translate(23.132812 293.309259)scale(0.1 -0.1)">
       <use xlink:href="#DejaVuSans-8722"/>
       <use x="83.789062" xlink:href="#DejaVuSans-49"/>
       <use x="147.412109" xlink:href="#DejaVuSans-48"/>
       <use x="211.035156" xlink:href="#DejaVuSans-48"/>
      </g>
     </g>
    </g>
    <g id="ytick_2">
     <g id="line2d_11">
      <g>
       <use style="stroke:#000000;stroke-width:0.8;" x="57.6" xlink:href="#mba62a29426" y="259.768947"/>
      </g>
     </g>
     <g id="text_10">
      <!-- −50 -->
      <g transform="translate(29.495313 263.568166)scale(0.1 -0.1)">
       <use xlink:href="#DejaVuSans-8722"/>
       <use x="83.789062" xlink:href="#DejaVuSans-53"/>
       <use x="147.412109" xlink:href="#DejaVuSans-48"/>
      </g>
     </g>
    </g>
    <g id="ytick_3">
     <g id="line2d_12">
      <g>
       <use style="stroke:#000000;stroke-width:0.8;" x="57.6" xlink:href="#mba62a29426" y="230.027854"/>
      </g>
     </g>
     <g id="text_11">
      <!-- 0 -->
      <g transform="translate(44.2375 233.827073)scale(0.1 -0.1)">
       <use xlink:href="#DejaVuSans-48"/>
      </g>
     </g>
    </g>
    <g id="ytick_4">
     <g id="line2d_13">
      <g>
       <use style="stroke:#000000;stroke-width:0.8;" x="57.6" xlink:href="#mba62a29426" y="200.286761"/>
      </g>
     </g>
     <g id="text_12">
      <!-- 50 -->
      <g transform="translate(37.875 204.08598)scale(0.1 -0.1)">
       <use xlink:href="#DejaVuSans-53"/>
       <use x="63.623047" xlink:href="#DejaVuSans-48"/>
      </g>
     </g>
    </g>
    <g id="ytick_5">
     <g id="line2d_14">
      <g>
       <use style="stroke:#000000;stroke-width:0.8;" x="57.6" xlink:href="#mba62a29426" y="170.545668"/>
      </g>
     </g>
     <g id="text_13">
      <!-- 100 -->
      <g transform="translate(31.5125 174.344886)scale(0.1 -0.1)">
       <use xlink:href="#DejaVuSans-49"/>
       <use x="63.623047" xlink:href="#DejaVuSans-48"/>
       <use x="127.246094" xlink:href="#DejaVuSans-48"/>
      </g>
     </g>
    </g>
    <g id="ytick_6">
     <g id="line2d_15">
      <g>
       <use style="stroke:#000000;stroke-width:0.8;" x="57.6" xlink:href="#mba62a29426" y="140.804574"/>
      </g>
     </g>
     <g id="text_14">
      <!-- 150 -->
      <g transform="translate(31.5125 144.603793)scale(0.1 -0.1)">
       <use xlink:href="#DejaVuSans-49"/>
       <use x="63.623047" xlink:href="#DejaVuSans-53"/>
       <use x="127.246094" xlink:href="#DejaVuSans-48"/>
      </g>
     </g>
    </g>
    <g id="ytick_7">
     <g id="line2d_16">
      <g>
       <use style="stroke:#000000;stroke-width:0.8;" x="57.6" xlink:href="#mba62a29426" y="111.063481"/>
      </g>
     </g>
     <g id="text_15">
      <!-- 200 -->
      <g transform="translate(31.5125 114.8627)scale(0.1 -0.1)">
       <use xlink:href="#DejaVuSans-50"/>
       <use x="63.623047" xlink:href="#DejaVuSans-48"/>
       <use x="127.246094" xlink:href="#DejaVuSans-48"/>
      </g>
     </g>
    </g>
    <g id="ytick_8">
     <g id="line2d_17">
      <g>
       <use style="stroke:#000000;stroke-width:0.8;" x="57.6" xlink:href="#mba62a29426" y="81.322388"/>
      </g>
     </g>
     <g id="text_16">
      <!-- 250 -->
      <g transform="translate(31.5125 85.121607)scale(0.1 -0.1)">
       <use xlink:href="#DejaVuSans-50"/>
       <use x="63.623047" xlink:href="#DejaVuSans-53"/>
       <use x="127.246094" xlink:href="#DejaVuSans-48"/>
      </g>
     </g>
    </g>
    <g id="ytick_9">
     <g id="line2d_18">
      <g>
       <use style="stroke:#000000;stroke-width:0.8;" x="57.6" xlink:href="#mba62a29426" y="51.581295"/>
      </g>
     </g>
     <g id="text_17">
      <!-- 300 -->
      <g transform="translate(31.5125 55.380514)scale(0.1 -0.1)">
       <use xlink:href="#DejaVuSans-51"/>
       <use x="63.623047" xlink:href="#DejaVuSans-48"/>
       <use x="127.246094" xlink:href="#DejaVuSans-48"/>
      </g>
     </g>
    </g>
   </g>
   <g id="line2d_19">
    <path clip-path="url(#pe525a15168)" d="M 80.207349 278.352663 
L 278.616808 283.105165 
L 350.681684 84.02225 
L 389.839334 209.663667 
L 383.977296 233.4123 
" style="fill:none;stroke:#ff0000;stroke-linecap:square;stroke-width:0.5;"/>
   </g>
   <g id="patch_3">
    <path d="M 57.6 307.584 
L 57.6 41.472 
" style="fill:none;stroke:#000000;stroke-linecap:square;stroke-linejoin:miter;stroke-width:0.8;"/>
   </g>
   <g id="patch_4">
    <path d="M 414.72 307.584 
L 414.72 41.472 
" style="fill:none;stroke:#000000;stroke-linecap:square;stroke-linejoin:miter;stroke-width:0.8;"/>
   </g>
   <g id="patch_5">
    <path d="M 57.6 307.584 
L 414.72 307.584 
" style="fill:none;stroke:#000000;stroke-linecap:square;stroke-linejoin:miter;stroke-width:0.8;"/>
   </g>
   <g id="patch_6">
    <path d="M 57.6 41.472 
L 414.72 41.472 
" style="fill:none;stroke:#000000;stroke-linecap:square;stroke-linejoin:miter;stroke-width:0.8;"/>
   </g>
   <g id="PathCollection_1">
    <defs>
     <path d="M 0 2.738613 
C 0.726289 2.738613 1.422928 2.450055 1.936492 1.936492 
C 2.450055 1.422928 2.738613 0.726289 2.738613 0 
C 2.738613 -0.726289 2.450055 -1.422928 1.936492 -1.936492 
C 1.422928 -2.450055 0.726289 -2.738613 0 -2.738613 
C -0.726289 -2.738613 -1.422928 -2.450055 -1.936492 -1.936492 
C -2.450055 -1.422928 -2.738613 -0.726289 -2.738613 0 
C -2.738613 0.726289 -2.450055 1.422928 -1.936492 1.936492 
C -1.422928 2.450055 -0.726289 2.738613 0 2.738613 
z
" id="mdad8e69451" style="stroke:#ff0000;"/>
    </defs>
    <g clip-path="url(#pe525a15168)">
     <use style="fill:#ff0000;stroke:#ff0000;" x="80.207349" xlink:href="#mdad8e69451" y="278.352663"/>
     <use style="fill:#ff0000;stroke:#ff0000;" x="278.616808" xlink:href="#mdad8e69451" y="283.105165"/>
     <use style="fill:#ff0000;stroke:#ff0000;" x="350.681684" xlink:href="#mdad8e69451" y="84.02225"/>
     <use style="fill:#ff0000;stroke:#ff0000;" x="389.839334" xlink:href="#mdad8e69451" y="209.663667"/>
     <use style="fill:#ff0000;stroke:#ff0000;" x="383.977296" xlink:href="#mdad8e69451" y="233.4123"/>
    </g>
   </g>
   <g id="text_18">
    <!-- (24) Subject: s23, Known = True, Degree = 2, Duration = 0.1 -->
    <defs>
     <path d="M 31 75.875 
Q 24.46875 64.65625 21.28125 53.65625 
Q 18.109375 42.671875 18.109375 31.390625 
Q 18.109375 20.125 21.3125 9.0625 
Q 24.515625 -2 31 -13.1875 
L 23.1875 -13.1875 
Q 15.875 -1.703125 12.234375 9.375 
Q 8.59375 20.453125 8.59375 31.390625 
Q 8.59375 42.28125 12.203125 53.3125 
Q 15.828125 64.359375 23.1875 75.875 
z
" id="DejaVuSans-40"/>
     <path d="M 8.015625 75.875 
L 15.828125 75.875 
Q 23.140625 64.359375 26.78125 53.3125 
Q 30.421875 42.28125 30.421875 31.390625 
Q 30.421875 20.453125 26.78125 9.375 
Q 23.140625 -1.703125 15.828125 -13.1875 
L 8.015625 -13.1875 
Q 14.5 -2 17.703125 9.0625 
Q 20.90625 20.125 20.90625 31.390625 
Q 20.90625 42.671875 17.703125 53.65625 
Q 14.5 64.65625 8.015625 75.875 
z
" id="DejaVuSans-41"/>
     <path id="DejaVuSans-32"/>
     <path d="M 53.515625 70.515625 
L 53.515625 60.890625 
Q 47.90625 63.578125 42.921875 64.890625 
Q 37.9375 66.21875 33.296875 66.21875 
Q 25.25 66.21875 20.875 63.09375 
Q 16.5 59.96875 16.5 54.203125 
Q 16.5 49.359375 19.40625 46.890625 
Q 22.3125 44.4375 30.421875 42.921875 
L 36.375 41.703125 
Q 47.40625 39.59375 52.65625 34.296875 
Q 57.90625 29 57.90625 20.125 
Q 57.90625 9.515625 50.796875 4.046875 
Q 43.703125 -1.421875 29.984375 -1.421875 
Q 24.8125 -1.421875 18.96875 -0.25 
Q 13.140625 0.921875 6.890625 3.21875 
L 6.890625 13.375 
Q 12.890625 10.015625 18.65625 8.296875 
Q 24.421875 6.59375 29.984375 6.59375 
Q 38.421875 6.59375 43.015625 9.90625 
Q 47.609375 13.234375 47.609375 19.390625 
Q 47.609375 24.75 44.3125 27.78125 
Q 41.015625 30.8125 33.5 32.328125 
L 27.484375 33.5 
Q 16.453125 35.6875 11.515625 40.375 
Q 6.59375 45.0625 6.59375 53.421875 
Q 6.59375 63.09375 13.40625 68.65625 
Q 20.21875 74.21875 32.171875 74.21875 
Q 37.3125 74.21875 42.625 73.28125 
Q 47.953125 72.359375 53.515625 70.515625 
z
" id="DejaVuSans-83"/>
     <path d="M 8.5 21.578125 
L 8.5 54.6875 
L 17.484375 54.6875 
L 17.484375 21.921875 
Q 17.484375 14.15625 20.5 10.265625 
Q 23.53125 6.390625 29.59375 6.390625 
Q 36.859375 6.390625 41.078125 11.03125 
Q 45.3125 15.671875 45.3125 23.6875 
L 45.3125 54.6875 
L 54.296875 54.6875 
L 54.296875 0 
L 45.3125 0 
L 45.3125 8.40625 
Q 42.046875 3.421875 37.71875 1 
Q 33.40625 -1.421875 27.6875 -1.421875 
Q 18.265625 -1.421875 13.375 4.4375 
Q 8.5 10.296875 8.5 21.578125 
z
M 31.109375 56 
z
" id="DejaVuSans-117"/>
     <path d="M 48.6875 27.296875 
Q 48.6875 37.203125 44.609375 42.84375 
Q 40.53125 48.484375 33.40625 48.484375 
Q 26.265625 48.484375 22.1875 42.84375 
Q 18.109375 37.203125 18.109375 27.296875 
Q 18.109375 17.390625 22.1875 11.75 
Q 26.265625 6.109375 33.40625 6.109375 
Q 40.53125 6.109375 44.609375 11.75 
Q 48.6875 17.390625 48.6875 27.296875 
z
M 18.109375 46.390625 
Q 20.953125 51.265625 25.265625 53.625 
Q 29.59375 56 35.59375 56 
Q 45.5625 56 51.78125 48.09375 
Q 58.015625 40.1875 58.015625 27.296875 
Q 58.015625 14.40625 51.78125 6.484375 
Q 45.5625 -1.421875 35.59375 -1.421875 
Q 29.59375 -1.421875 25.265625 0.953125 
Q 20.953125 3.328125 18.109375 8.203125 
L 18.109375 0 
L 9.078125 0 
L 9.078125 75.984375 
L 18.109375 75.984375 
z
" id="DejaVuSans-98"/>
     <path d="M 9.421875 54.6875 
L 18.40625 54.6875 
L 18.40625 -0.984375 
Q 18.40625 -11.421875 14.421875 -16.109375 
Q 10.453125 -20.796875 1.609375 -20.796875 
L -1.8125 -20.796875 
L -1.8125 -13.1875 
L 0.59375 -13.1875 
Q 5.71875 -13.1875 7.5625 -10.8125 
Q 9.421875 -8.453125 9.421875 -0.984375 
z
M 9.421875 75.984375 
L 18.40625 75.984375 
L 18.40625 64.59375 
L 9.421875 64.59375 
z
" id="DejaVuSans-106"/>
     <path d="M 56.203125 29.59375 
L 56.203125 25.203125 
L 14.890625 25.203125 
Q 15.484375 15.921875 20.484375 11.0625 
Q 25.484375 6.203125 34.421875 6.203125 
Q 39.59375 6.203125 44.453125 7.46875 
Q 49.3125 8.734375 54.109375 11.28125 
L 54.109375 2.78125 
Q 49.265625 0.734375 44.1875 -0.34375 
Q 39.109375 -1.421875 33.890625 -1.421875 
Q 20.796875 -1.421875 13.15625 6.1875 
Q 5.515625 13.8125 5.515625 26.8125 
Q 5.515625 40.234375 12.765625 48.109375 
Q 20.015625 56 32.328125 56 
Q 43.359375 56 49.78125 48.890625 
Q 56.203125 41.796875 56.203125 29.59375 
z
M 47.21875 32.234375 
Q 47.125 39.59375 43.09375 43.984375 
Q 39.0625 48.390625 32.421875 48.390625 
Q 24.90625 48.390625 20.390625 44.140625 
Q 15.875 39.890625 15.1875 32.171875 
z
" id="DejaVuSans-101"/>
     <path d="M 48.78125 52.59375 
L 48.78125 44.1875 
Q 44.96875 46.296875 41.140625 47.34375 
Q 37.3125 48.390625 33.40625 48.390625 
Q 24.65625 48.390625 19.8125 42.84375 
Q 14.984375 37.3125 14.984375 27.296875 
Q 14.984375 17.28125 19.8125 11.734375 
Q 24.65625 6.203125 33.40625 6.203125 
Q 37.3125 6.203125 41.140625 7.25 
Q 44.96875 8.296875 48.78125 10.40625 
L 48.78125 2.09375 
Q 45.015625 0.34375 40.984375 -0.53125 
Q 36.96875 -1.421875 32.421875 -1.421875 
Q 20.0625 -1.421875 12.78125 6.34375 
Q 5.515625 14.109375 5.515625 27.296875 
Q 5.515625 40.671875 12.859375 48.328125 
Q 20.21875 56 33.015625 56 
Q 37.15625 56 41.109375 55.140625 
Q 45.0625 54.296875 48.78125 52.59375 
z
" id="DejaVuSans-99"/>
     <path d="M 18.3125 70.21875 
L 18.3125 54.6875 
L 36.8125 54.6875 
L 36.8125 47.703125 
L 18.3125 47.703125 
L 18.3125 18.015625 
Q 18.3125 11.328125 20.140625 9.421875 
Q 21.96875 7.515625 27.59375 7.515625 
L 36.8125 7.515625 
L 36.8125 0 
L 27.59375 0 
Q 17.1875 0 13.234375 3.875 
Q 9.28125 7.765625 9.28125 18.015625 
L 9.28125 47.703125 
L 2.6875 47.703125 
L 2.6875 54.6875 
L 9.28125 54.6875 
L 9.28125 70.21875 
z
" id="DejaVuSans-116"/>
     <path d="M 11.71875 12.40625 
L 22.015625 12.40625 
L 22.015625 0 
L 11.71875 0 
z
M 11.71875 51.703125 
L 22.015625 51.703125 
L 22.015625 39.3125 
L 11.71875 39.3125 
z
" id="DejaVuSans-58"/>
     <path d="M 44.28125 53.078125 
L 44.28125 44.578125 
Q 40.484375 46.53125 36.375 47.5 
Q 32.28125 48.484375 27.875 48.484375 
Q 21.1875 48.484375 17.84375 46.4375 
Q 14.5 44.390625 14.5 40.28125 
Q 14.5 37.15625 16.890625 35.375 
Q 19.28125 33.59375 26.515625 31.984375 
L 29.59375 31.296875 
Q 39.15625 29.25 43.1875 25.515625 
Q 47.21875 21.78125 47.21875 15.09375 
Q 47.21875 7.46875 41.1875 3.015625 
Q 35.15625 -1.421875 24.609375 -1.421875 
Q 20.21875 -1.421875 15.453125 -0.5625 
Q 10.6875 0.296875 5.421875 2 
L 5.421875 11.28125 
Q 10.40625 8.6875 15.234375 7.390625 
Q 20.0625 6.109375 24.8125 6.109375 
Q 31.15625 6.109375 34.5625 8.28125 
Q 37.984375 10.453125 37.984375 14.40625 
Q 37.984375 18.0625 35.515625 20.015625 
Q 33.0625 21.96875 24.703125 23.78125 
L 21.578125 24.515625 
Q 13.234375 26.265625 9.515625 29.90625 
Q 5.8125 33.546875 5.8125 39.890625 
Q 5.8125 47.609375 11.28125 51.796875 
Q 16.75 56 26.8125 56 
Q 31.78125 56 36.171875 55.265625 
Q 40.578125 54.546875 44.28125 53.078125 
z
" id="DejaVuSans-115"/>
     <path d="M 11.71875 12.40625 
L 22.015625 12.40625 
L 22.015625 4 
L 14.015625 -11.625 
L 7.71875 -11.625 
L 11.71875 4 
z
" id="DejaVuSans-44"/>
     <path d="M 9.8125 72.90625 
L 19.671875 72.90625 
L 19.671875 42.09375 
L 52.390625 72.90625 
L 65.09375 72.90625 
L 28.90625 38.921875 
L 67.671875 0 
L 54.6875 0 
L 19.671875 35.109375 
L 19.671875 0 
L 9.8125 0 
z
" id="DejaVuSans-75"/>
     <path d="M 54.890625 33.015625 
L 54.890625 0 
L 45.90625 0 
L 45.90625 32.71875 
Q 45.90625 40.484375 42.875 44.328125 
Q 39.84375 48.1875 33.796875 48.1875 
Q 26.515625 48.1875 22.3125 43.546875 
Q 18.109375 38.921875 18.109375 30.90625 
L 18.109375 0 
L 9.078125 0 
L 9.078125 54.6875 
L 18.109375 54.6875 
L 18.109375 46.1875 
Q 21.34375 51.125 25.703125 53.5625 
Q 30.078125 56 35.796875 56 
Q 45.21875 56 50.046875 50.171875 
Q 54.890625 44.34375 54.890625 33.015625 
z
" id="DejaVuSans-110"/>
     <path d="M 30.609375 48.390625 
Q 23.390625 48.390625 19.1875 42.75 
Q 14.984375 37.109375 14.984375 27.296875 
Q 14.984375 17.484375 19.15625 11.84375 
Q 23.34375 6.203125 30.609375 6.203125 
Q 37.796875 6.203125 41.984375 11.859375 
Q 46.1875 17.53125 46.1875 27.296875 
Q 46.1875 37.015625 41.984375 42.703125 
Q 37.796875 48.390625 30.609375 48.390625 
z
M 30.609375 56 
Q 42.328125 56 49.015625 48.375 
Q 55.71875 40.765625 55.71875 27.296875 
Q 55.71875 13.875 49.015625 6.21875 
Q 42.328125 -1.421875 30.609375 -1.421875 
Q 18.84375 -1.421875 12.171875 6.21875 
Q 5.515625 13.875 5.515625 27.296875 
Q 5.515625 40.765625 12.171875 48.375 
Q 18.84375 56 30.609375 56 
z
" id="DejaVuSans-111"/>
     <path d="M 4.203125 54.6875 
L 13.1875 54.6875 
L 24.421875 12.015625 
L 35.59375 54.6875 
L 46.1875 54.6875 
L 57.421875 12.015625 
L 68.609375 54.6875 
L 77.59375 54.6875 
L 63.28125 0 
L 52.6875 0 
L 40.921875 44.828125 
L 29.109375 0 
L 18.5 0 
z
" id="DejaVuSans-119"/>
     <path d="M 10.59375 45.40625 
L 73.1875 45.40625 
L 73.1875 37.203125 
L 10.59375 37.203125 
z
M 10.59375 25.484375 
L 73.1875 25.484375 
L 73.1875 17.1875 
L 10.59375 17.1875 
z
" id="DejaVuSans-61"/>
     <path d="M -0.296875 72.90625 
L 61.375 72.90625 
L 61.375 64.59375 
L 35.5 64.59375 
L 35.5 0 
L 25.59375 0 
L 25.59375 64.59375 
L -0.296875 64.59375 
z
" id="DejaVuSans-84"/>
     <path d="M 41.109375 46.296875 
Q 39.59375 47.171875 37.8125 47.578125 
Q 36.03125 48 33.890625 48 
Q 26.265625 48 22.1875 43.046875 
Q 18.109375 38.09375 18.109375 28.8125 
L 18.109375 0 
L 9.078125 0 
L 9.078125 54.6875 
L 18.109375 54.6875 
L 18.109375 46.1875 
Q 20.953125 51.171875 25.484375 53.578125 
Q 30.03125 56 36.53125 56 
Q 37.453125 56 38.578125 55.875 
Q 39.703125 55.765625 41.0625 55.515625 
z
" id="DejaVuSans-114"/>
     <path d="M 19.671875 64.796875 
L 19.671875 8.109375 
L 31.59375 8.109375 
Q 46.6875 8.109375 53.6875 14.9375 
Q 60.6875 21.78125 60.6875 36.53125 
Q 60.6875 51.171875 53.6875 57.984375 
Q 46.6875 64.796875 31.59375 64.796875 
z
M 9.8125 72.90625 
L 30.078125 72.90625 
Q 51.265625 72.90625 61.171875 64.09375 
Q 71.09375 55.28125 71.09375 36.53125 
Q 71.09375 17.671875 61.125 8.828125 
Q 51.171875 0 30.078125 0 
L 9.8125 0 
z
" id="DejaVuSans-68"/>
     <path d="M 45.40625 27.984375 
Q 45.40625 37.75 41.375 43.109375 
Q 37.359375 48.484375 30.078125 48.484375 
Q 22.859375 48.484375 18.828125 43.109375 
Q 14.796875 37.75 14.796875 27.984375 
Q 14.796875 18.265625 18.828125 12.890625 
Q 22.859375 7.515625 30.078125 7.515625 
Q 37.359375 7.515625 41.375 12.890625 
Q 45.40625 18.265625 45.40625 27.984375 
z
M 54.390625 6.78125 
Q 54.390625 -7.171875 48.1875 -13.984375 
Q 42 -20.796875 29.203125 -20.796875 
Q 24.46875 -20.796875 20.265625 -20.09375 
Q 16.0625 -19.390625 12.109375 -17.921875 
L 12.109375 -9.1875 
Q 16.0625 -11.328125 19.921875 -12.34375 
Q 23.78125 -13.375 27.78125 -13.375 
Q 36.625 -13.375 41.015625 -8.765625 
Q 45.40625 -4.15625 45.40625 5.171875 
L 45.40625 9.625 
Q 42.625 4.78125 38.28125 2.390625 
Q 33.9375 0 27.875 0 
Q 17.828125 0 11.671875 7.65625 
Q 5.515625 15.328125 5.515625 27.984375 
Q 5.515625 40.671875 11.671875 48.328125 
Q 17.828125 56 27.875 56 
Q 33.9375 56 38.28125 53.609375 
Q 42.625 51.21875 45.40625 46.390625 
L 45.40625 54.6875 
L 54.390625 54.6875 
z
" id="DejaVuSans-103"/>
     <path d="M 34.28125 27.484375 
Q 23.390625 27.484375 19.1875 25 
Q 14.984375 22.515625 14.984375 16.5 
Q 14.984375 11.71875 18.140625 8.90625 
Q 21.296875 6.109375 26.703125 6.109375 
Q 34.1875 6.109375 38.703125 11.40625 
Q 43.21875 16.703125 43.21875 25.484375 
L 43.21875 27.484375 
z
M 52.203125 31.203125 
L 52.203125 0 
L 43.21875 0 
L 43.21875 8.296875 
Q 40.140625 3.328125 35.546875 0.953125 
Q 30.953125 -1.421875 24.3125 -1.421875 
Q 15.921875 -1.421875 10.953125 3.296875 
Q 6 8.015625 6 15.921875 
Q 6 25.140625 12.171875 29.828125 
Q 18.359375 34.515625 30.609375 34.515625 
L 43.21875 34.515625 
L 43.21875 35.40625 
Q 43.21875 41.609375 39.140625 45 
Q 35.0625 48.390625 27.6875 48.390625 
Q 23 48.390625 18.546875 47.265625 
Q 14.109375 46.140625 10.015625 43.890625 
L 10.015625 52.203125 
Q 14.9375 54.109375 19.578125 55.046875 
Q 24.21875 56 28.609375 56 
Q 40.484375 56 46.34375 49.84375 
Q 52.203125 43.703125 52.203125 31.203125 
z
" id="DejaVuSans-97"/>
     <path d="M 9.421875 54.6875 
L 18.40625 54.6875 
L 18.40625 0 
L 9.421875 0 
z
M 9.421875 75.984375 
L 18.40625 75.984375 
L 18.40625 64.59375 
L 9.421875 64.59375 
z
" id="DejaVuSans-105"/>
     <path d="M 10.6875 12.40625 
L 21 12.40625 
L 21 0 
L 10.6875 0 
z
" id="DejaVuSans-46"/>
    </defs>
    <g transform="translate(51.733125 35.472)scale(0.12 -0.12)">
     <use xlink:href="#DejaVuSans-40"/>
     <use x="39.013672" xlink:href="#DejaVuSans-50"/>
     <use x="102.636719" xlink:href="#DejaVuSans-52"/>
     <use x="166.259766" xlink:href="#DejaVuSans-41"/>
     <use x="205.273438" xlink:href="#DejaVuSans-32"/>
     <use x="237.060547" xlink:href="#DejaVuSans-83"/>
     <use x="300.537109" xlink:href="#DejaVuSans-117"/>
     <use x="363.916016" xlink:href="#DejaVuSans-98"/>
     <use x="427.392578" xlink:href="#DejaVuSans-106"/>
     <use x="455.175781" xlink:href="#DejaVuSans-101"/>
     <use x="516.699219" xlink:href="#DejaVuSans-99"/>
     <use x="571.679688" xlink:href="#DejaVuSans-116"/>
     <use x="610.888672" xlink:href="#DejaVuSans-58"/>
     <use x="644.580078" xlink:href="#DejaVuSans-32"/>
     <use x="676.367188" xlink:href="#DejaVuSans-115"/>
     <use x="728.466797" xlink:href="#DejaVuSans-50"/>
     <use x="792.089844" xlink:href="#DejaVuSans-51"/>
     <use x="855.712891" xlink:href="#DejaVuSans-44"/>
     <use x="887.5" xlink:href="#DejaVuSans-32"/>
     <use x="919.287109" xlink:href="#DejaVuSans-75"/>
     <use x="984.863281" xlink:href="#DejaVuSans-110"/>
     <use x="1048.242188" xlink:href="#DejaVuSans-111"/>
     <use x="1109.423828" xlink:href="#DejaVuSans-119"/>
     <use x="1191.210938" xlink:href="#DejaVuSans-110"/>
     <use x="1254.589844" xlink:href="#DejaVuSans-32"/>
     <use x="1286.376953" xlink:href="#DejaVuSans-61"/>
     <use x="1370.166016" xlink:href="#DejaVuSans-32"/>
     <use x="1401.953125" xlink:href="#DejaVuSans-84"/>
     <use x="1462.818359" xlink:href="#DejaVuSans-114"/>
     <use x="1503.931641" xlink:href="#DejaVuSans-117"/>
     <use x="1567.310547" xlink:href="#DejaVuSans-101"/>
     <use x="1628.833984" xlink:href="#DejaVuSans-44"/>
     <use x="1660.621094" xlink:href="#DejaVuSans-32"/>
     <use x="1692.408203" xlink:href="#DejaVuSans-68"/>
     <use x="1769.410156" xlink:href="#DejaVuSans-101"/>
     <use x="1830.933594" xlink:href="#DejaVuSans-103"/>
     <use x="1894.410156" xlink:href="#DejaVuSans-114"/>
     <use x="1935.492188" xlink:href="#DejaVuSans-101"/>
     <use x="1997.015625" xlink:href="#DejaVuSans-101"/>
     <use x="2058.539062" xlink:href="#DejaVuSans-32"/>
     <use x="2090.326172" xlink:href="#DejaVuSans-61"/>
     <use x="2174.115234" xlink:href="#DejaVuSans-32"/>
     <use x="2205.902344" xlink:href="#DejaVuSans-50"/>
     <use x="2269.525391" xlink:href="#DejaVuSans-44"/>
     <use x="2301.3125" xlink:href="#DejaVuSans-32"/>
     <use x="2333.099609" xlink:href="#DejaVuSans-68"/>
     <use x="2410.101562" xlink:href="#DejaVuSans-117"/>
     <use x="2473.480469" xlink:href="#DejaVuSans-114"/>
     <use x="2514.59375" xlink:href="#DejaVuSans-97"/>
     <use x="2575.873047" xlink:href="#DejaVuSans-116"/>
     <use x="2615.082031" xlink:href="#DejaVuSans-105"/>
     <use x="2642.865234" xlink:href="#DejaVuSans-111"/>
     <use x="2704.046875" xlink:href="#DejaVuSans-110"/>
     <use x="2767.425781" xlink:href="#DejaVuSans-32"/>
     <use x="2799.212891" xlink:href="#DejaVuSans-61"/>
     <use x="2883.001953" xlink:href="#DejaVuSans-32"/>
     <use x="2914.789062" xlink:href="#DejaVuSans-48"/>
     <use x="2978.412109" xlink:href="#DejaVuSans-46"/>
     <use x="3010.199219" xlink:href="#DejaVuSans-49"/>
    </g>
   </g>
  </g>
 </g>
 <defs>
  <clipPath id="pe525a15168">
   <rect height="266.112" width="357.12" x="57.6" y="41.472"/>
  </clipPath>
 </defs>
</svg>
