<?xml version="1.0" encoding="utf-8" standalone="no"?>
<!DOCTYPE svg PUBLIC "-//W3C//DTD SVG 1.1//EN"
  "http://www.w3.org/Graphics/SVG/1.1/DTD/svg11.dtd">
<!-- Created with matplotlib (https://matplotlib.org/) -->
<svg height="345.6pt" version="1.1" viewBox="0 0 460.8 345.6" width="460.8pt" xmlns="http://www.w3.org/2000/svg" xmlns:xlink="http://www.w3.org/1999/xlink">
 <defs>
  <style type="text/css">
*{stroke-linecap:butt;stroke-linejoin:round;}
  </style>
 </defs>
 <g id="figure_1">
  <g id="patch_1">
   <path d="M 0 345.6 
L 460.8 345.6 
L 460.8 0 
L 0 0 
z
" style="fill:#ffffff;"/>
  </g>
  <g id="axes_1">
   <g id="patch_2">
    <path d="M 57.6 307.584 
L 414.72 307.584 
L 414.72 41.472 
L 57.6 41.472 
z
" style="fill:#ffffff;"/>
   </g>
   <g id="line2d_1">
    <path clip-path="url(#p3364f5f415)" d="M 397.285979 68.867911 
L 397.526238 69.595702 
L 397.526238 70.328925 
L 397.285979 71.056716 
L 396.324944 69.595702 
L 396.084686 69.595702 
L 396.565203 68.867911 
L 396.565203 68.867911 
L 396.084686 68.867911 
L 395.844427 69.595702 
L 396.084686 70.328925 
L 396.324944 70.328925 
L 395.844427 70.328925 
L 395.844427 69.595702 
L 396.565203 68.867911 
L 396.805462 68.14012 
L 396.565203 68.867911 
L 396.084686 69.595702 
L 396.324944 70.328925 
L 396.805462 68.867911 
L 397.04572 67.412328 
L 397.04572 67.412328 
L 396.565203 68.14012 
L 396.084686 67.412328 
L 396.324944 66.684537 
L 396.565203 66.684537 
L 396.565203 69.595702 
L 397.04572 69.595702 
L 396.805462 69.595702 
L 396.565203 67.412328 
L 396.805462 64.495732 
L 397.04572 65.223523 
L 397.285979 66.684537 
L 397.526238 68.867911 
L 397.766497 69.595702 
L 397.766497 69.595702 
L 397.285979 68.867911 
L 397.04572 68.867911 
L 396.084686 71.784508 
L 396.084686 71.784508 
L 396.084686 70.328925 
L 395.844427 69.595702 
L 395.844427 69.595702 
L 395.604168 71.056716 
L 395.604168 71.056716 
L 395.604168 70.328925 
L 395.844427 70.328925 
L 397.285979 68.867911 
L 397.526238 69.595702 
L 397.285979 71.784508 
L 396.805462 73.24009 
L 396.565203 73.24009 
L 396.565203 73.24009 
L 396.805462 71.784508 
L 396.805462 70.328925 
L 396.805462 70.328925 
L 396.565203 70.328925 
L 396.565203 70.328925 
L 397.04572 71.056716 
L 397.04572 71.056716 
L 397.04572 72.512299 
L 396.805462 73.24009 
L 396.565203 73.24009 
L 396.565203 73.967881 
L 397.285979 73.967881 
L 397.526238 74.701104 
L 397.766497 74.701104 
L 397.526238 73.24009 
L 397.526238 71.056716 
L 397.766497 70.328925 
L 398.006755 72.512299 
L 397.766497 73.967881 
L 397.04572 71.784508 
L 396.565203 71.056716 
L 396.084686 71.056716 
L 396.324944 72.512299 
L 396.805462 74.701104 
L 397.526238 76.884478 
L 398.006755 76.884478 
L 397.766497 75.428895 
L 397.04572 73.24009 
L 397.526238 72.512299 
L 398.006755 73.24009 
L 398.247014 73.24009 
L 397.766497 72.512299 
L 397.285979 72.512299 
L 397.04572 73.967881 
L 397.04572 76.156687 
L 397.04572 76.156687 
L 397.526238 75.428895 
L 397.766497 75.428895 
L 398.006755 74.701104 
L 398.006755 74.701104 
L 398.006755 73.24009 
L 397.526238 72.512299 
L 397.526238 72.512299 
L 397.526238 71.784508 
L 397.04572 71.784508 
L 397.04572 73.24009 
L 397.526238 73.967881 
L 397.766497 75.428895 
L 397.526238 76.156687 
L 397.285979 76.156687 
L 397.285979 75.428895 
L 397.526238 74.701104 
L 398.006755 73.967881 
L 398.006755 72.512299 
L 396.805462 72.512299 
L 396.565203 73.24009 
L 396.565203 73.24009 
L 396.805462 73.967881 
L 397.526238 74.701104 
L 397.766497 74.701104 
L 397.285979 74.701104 
L 397.526238 74.701104 
L 397.766497 73.967881 
L 397.766497 72.512299 
L 397.766497 72.512299 
L 398.006755 74.701104 
L 398.487273 76.156687 
L 398.487273 74.701104 
L 397.526238 71.784508 
L 397.526238 71.784508 
L 397.526238 73.967881 
L 397.766497 74.701104 
L 397.766497 73.24009 
L 398.006755 70.328925 
L 397.766497 71.784508 
L 398.006755 72.512299 
L 398.487273 72.512299 
L 398.487273 72.512299 
L 398.006755 71.784508 
L 397.766497 71.056716 
L 397.526238 71.784508 
L 397.526238 71.784508 
L 397.285979 71.056716 
L 397.766497 68.14012 
L 397.766497 68.14012 
L 397.526238 68.867911 
L 397.285979 71.784508 
L 397.526238 69.595702 
L 396.565203 69.595702 
L 396.324944 68.867911 
L 396.805462 68.14012 
L 397.04572 67.412328 
L 397.04572 66.684537 
L 396.805462 65.223523 
L 396.324944 63.767941 
L 396.324944 64.495732 
L 396.565203 65.223523 
L 396.565203 65.223523 
L 396.324944 63.040149 
L 396.565203 61.584567 
L 397.04572 61.584567 
L 396.565203 61.584567 
L 396.324944 60.851344 
L 395.844427 60.123553 
L 395.363909 60.123553 
L 395.604168 61.584567 
L 396.084686 61.584567 
L 396.084686 61.584567 
L 396.084686 60.123553 
L 395.123651 57.212388 
L 395.123651 55.751374 
L 395.604168 54.295791 
L 395.844427 55.023583 
L 394.402874 56.479165 
L 394.402874 53.568 
L 393.682098 55.751374 
L 390.798994 55.751374 
L 387.192286 57.212388 
L 384.54944 57.940179 
L 377.581937 60.851344 
L 369.890832 66.684537 
L 366.046692 68.867911 
L 361.722035 69.595702 
L 351.628342 73.967881 
L 336.969733 78.340061 
L 331.684042 79.801074 
L 325.915006 81.256657 
L 315.100537 85.628836 
L 310.055103 86.356627 
L 300.682187 86.356627 
L 295.636753 87.817641 
L 285.543061 92.184389 
L 280.737886 93.645403 
L 275.692453 96.556568 
L 271.124711 100.200956 
L 267.040312 101.66197 
L 262.235138 102.389761 
L 257.186878 102.389761 
L 251.901186 103.117552 
L 247.096012 104.573135 
L 242.768528 106.76194 
L 237.963354 108.945314 
L 232.917921 111.86191 
L 228.10992 114.778507 
L 223.785262 116.961881 
L 219.700864 119.878477 
L 215.133122 124.250656 
L 209.84743 127.889613 
L 204.561738 129.350627 
L 196.630374 129.350627 
L 193.266752 131.534001 
L 189.662871 133.722806 
L 186.776939 135.90618 
L 184.134094 137.367194 
L 181.731506 140.278359 
L 179.809437 141.00615 
L 178.608143 141.739373 
L 177.887367 142.467164 
L 177.406849 142.467164 
L 177.406849 143.922747 
L 177.647108 146.111552 
L 177.647108 146.111552 
L 177.647108 144.650538 
L 177.887367 143.922747 
L 178.367884 144.650538 
L 178.848402 144.650538 
L 179.809437 143.922747 
L 181.01073 142.467164 
L 182.212024 141.739373 
L 182.692541 141.739373 
L 182.692541 142.467164 
L 183.413317 142.467164 
L 183.653576 143.194955 
L 183.653576 143.194955 
L 183.893835 142.467164 
L 183.413317 142.467164 
L 183.173059 141.739373 
L 182.692541 141.739373 
L 182.9328 141.00615 
L 182.692541 140.278359 
L 182.452282 140.278359 
L 181.971765 141.00615 
L 181.01073 141.00615 
L 180.770471 141.739373 
L 180.770471 141.00615 
L 181.01073 140.278359 
L 181.731506 140.278359 
L 182.452282 143.194955 
L 182.692541 144.650538 
L 182.9328 143.194955 
L 183.413317 141.739373 
L 183.413317 141.00615 
L 183.173059 141.00615 
L 182.9328 139.550567 
L 182.452282 138.822776 
L 181.971765 139.550567 
L 181.731506 141.739373 
L 182.212024 143.194955 
L 182.212024 143.922747 
L 181.971765 145.378329 
L 181.731506 146.111552 
L 181.731506 145.378329 
L 181.250989 142.467164 
L 181.491248 142.467164 
L 181.491248 141.739373 
L 181.731506 141.739373 
L 182.212024 143.194955 
L 182.212024 145.378329 
L 181.01073 143.194955 
L 181.01073 143.194955 
L 181.250989 144.650538 
L 181.01073 145.378329 
L 181.250989 144.650538 
L 181.491248 144.650538 
L 181.491248 144.650538 
L 181.971765 143.922747 
L 182.212024 143.922747 
L 181.731506 145.378329 
L 181.731506 146.111552 
L 181.971765 146.839343 
L 181.971765 148.294926 
L 181.971765 147.567134 
L 181.731506 146.111552 
L 181.491248 146.111552 
L 181.491248 147.567134 
L 181.01073 149.022717 
L 181.01073 149.022717 
L 181.731506 149.022717 
L 182.212024 149.750508 
L 181.250989 146.839343 
L 181.250989 146.111552 
L 181.731506 147.567134 
L 182.212024 149.750508 
L 182.212024 151.939313 
L 181.250989 152.667105 
L 180.530213 151.939313 
L 181.01073 150.483731 
L 181.731506 147.567134 
L 182.452282 146.839343 
L 182.452282 148.294926 
L 181.971765 149.750508 
L 181.491248 150.483731 
L 181.491248 151.939313 
L 181.731506 151.939313 
L 181.971765 151.211522 
L 182.212024 149.750508 
L 182.212024 151.211522 
L 181.971765 153.394896 
L 181.971765 154.85591 
L 181.971765 153.394896 
L 181.731506 152.667105 
L 181.01073 152.667105 
L 180.530213 153.394896 
L 180.770471 153.394896 
L 181.250989 154.122687 
L 181.971765 154.122687 
L 183.173059 151.939313 
L 183.173059 153.394896 
L 182.9328 155.583701 
L 182.452282 154.85591 
L 181.731506 153.394896 
L 181.491248 153.394896 
L 181.971765 153.394896 
L 182.212024 152.667105 
L 181.971765 153.394896 
L 181.971765 156.311492 
L 181.731506 157.767075 
L 181.250989 157.767075 
L 181.250989 156.311492 
L 181.731506 154.85591 
L 182.212024 154.85591 
L 182.452282 155.583701 
L 180.530213 155.583701 
L 179.08866 157.767075 
L 177.647108 161.411463 
L 175.725038 164.328059 
L 173.800142 166.511433 
L 171.397555 167.967016 
L 168.274191 169.42803 
L 165.391087 172.339195 
L 162.507982 175.983583 
L 159.141533 178.172388 
L 152.17403 181.083553 
L 148.570149 184.000149 
L 144.482925 186.916746 
L 140.398526 189.10012 
L 136.554387 192.016716 
L 132.950506 194.20009 
L 129.343798 197.844478 
L 125.739918 200.761074 
L 121.895778 204.405462 
L 114.204672 210.233224 
L 111.081309 214.605403 
L 107.957946 219.705373 
L 104.594323 224.077552 
L 101.227875 227.72194 
L 94.981148 235.005284 
L 92.338302 238.649672 
L 89.932888 240.838477 
L 87.77056 242.29406 
L 85.84849 245.210656 
L 84.166679 248.121822 
L 82.244609 250.310627 
L 78.880987 256.86618 
L 77.919952 257.593971 
L 76.958917 256.86618 
L 75.514538 258.327194 
L 74.553503 260.510567 
L 73.832727 261.238359 
L 74.553503 261.96615 
L 75.514538 263.427164 
L 76.4784 263.427164 
L 77.919952 260.510567 
L 78.160211 260.510567 
L 78.640728 261.96615 
L 78.880987 261.96615 
L 78.880987 260.510567 
L 79.121246 261.238359 
L 79.121246 262.699373 
L 79.601763 263.427164 
L 79.601763 264.882747 
L 79.601763 264.882747 
L 79.361504 264.882747 
L 78.880987 266.338329 
L 78.160211 269.982717 
L 78.160211 269.254926 
L 78.40047 269.254926 
L 78.880987 270.710508 
L 78.880987 271.443731 
L 78.40047 271.443731 
L 77.919952 270.710508 
L 77.679693 271.443731 
L 77.679693 276.543701 
L 77.919952 276.543701 
L 78.40047 275.81591 
L 78.40047 275.81591 
L 77.679693 275.082687 
L 77.199176 274.354896 
L 77.199176 272.899313 
L 76.958917 272.899313 
L 76.718659 274.354896 
L 77.199176 277.999284 
L 77.199176 277.271492 
L 76.958917 275.81591 
L 76.718659 275.81591 
L 76.958917 275.81591 
L 76.958917 278.727075 
L 77.199176 278.727075 
L 77.199176 278.727075 
L 77.439435 279.454866 
L 77.919952 279.454866 
L 77.919952 278.727075 
L 77.679693 277.999284 
L 77.199176 277.999284 
L 77.199176 281.643672 
L 77.199176 281.643672 
L 76.718659 283.099254 
L 76.718659 284.560268 
L 77.679693 283.099254 
L 78.160211 281.643672 
L 78.160211 280.188089 
L 77.919952 279.454866 
L 77.439435 280.91588 
L 76.718659 283.827045 
L 77.199176 281.643672 
L 77.679693 281.643672 
L 77.439435 282.371463 
L 77.199176 283.827045 
L 77.199176 285.288059 
L 77.439435 286.743642 
L 77.919952 285.288059 
L 78.160211 283.827045 
L 78.160211 285.288059 
L 78.40047 286.015851 
L 78.160211 286.015851 
L 77.679693 284.560268 
L 77.919952 284.560268 
L 78.40047 283.827045 
L 78.40047 283.099254 
L 78.160211 282.371463 
L 77.919952 283.099254 
L 77.919952 284.560268 
L 78.40047 285.288059 
L 78.40047 284.560268 
L 78.160211 283.827045 
L 78.160211 283.827045 
L 78.160211 285.288059 
L 78.40047 285.288059 
L 78.40047 284.560268 
L 78.40047 284.560268 
L 78.880987 284.560268 
L 79.361504 286.015851 
L 79.842022 286.743642 
L 78.880987 286.743642 
L 78.640728 286.015851 
L 78.160211 286.015851 
L 78.160211 286.743642 
L 78.640728 286.743642 
L 78.640728 286.743642 
L 78.40047 287.471433 
L 77.919952 287.471433 
L 77.679693 288.199224 
L 77.439435 287.471433 
L 77.679693 286.015851 
L 78.40047 286.015851 
L 78.640728 286.743642 
L 78.160211 286.743642 
L 78.880987 286.743642 
L 78.640728 287.471433 
L 78.40047 288.932447 
L 78.640728 290.38803 
L 78.640728 285.288059 
L 78.640728 288.199224 
L 78.40047 288.932447 
L 78.40047 290.38803 
L 78.880987 290.38803 
L 79.601763 289.660238 
L 79.601763 289.660238 
L 78.880987 287.471433 
L 78.880987 286.743642 
L 78.880987 288.932447 
L 79.361504 290.38803 
L 79.361504 290.38803 
L 79.121246 290.38803 
L 79.121246 291.115821 
L 79.121246 290.38803 
L 79.601763 289.660238 
L 79.842022 288.932447 
L 80.322539 288.199224 
L 80.082281 287.471433 
L 80.082281 288.932447 
L 79.842022 290.38803 
L 79.601763 291.115821 
L 79.121246 291.115821 
L 79.121246 291.115821 
L 79.601763 290.38803 
L 80.082281 288.932447 
L 79.601763 290.38803 
L 79.842022 291.115821 
L 80.562798 291.115821 
L 80.322539 291.843612 
L 80.082281 290.38803 
L 80.082281 290.38803 
L 80.322539 291.115821 
L 79.842022 291.843612 
L 78.880987 292.571404 
L 78.640728 293.299195 
L 79.361504 292.571404 
L 80.082281 293.299195 
L 80.562798 294.032417 
L 80.562798 294.032417 
L 80.322539 292.571404 
L 80.322539 291.843612 
L 80.082281 291.115821 
L 79.842022 291.115821 
L 78.640728 293.299195 
L 79.121246 292.571404 
L 80.082281 292.571404 
L 80.082281 291.115821 
L 79.601763 289.660238 
L 79.121246 290.38803 
L 79.121246 291.843612 
L 79.361504 293.299195 
L 79.842022 292.571404 
L 79.842022 291.115821 
L 79.361504 292.571404 
L 79.361504 293.299195 
L 79.842022 292.571404 
L 80.322539 290.38803 
L 80.322539 288.199224 
L 80.322539 288.932447 
L 80.562798 291.115821 
L 81.043316 292.571404 
L 80.562798 294.032417 
L 79.842022 295.488 
L 79.842022 294.760209 
L 80.082281 294.032417 
L 80.082281 294.032417 
L 80.322539 294.760209 
L 80.803057 295.488 
L 81.043316 294.760209 
L 81.283574 293.299195 
L 81.523833 292.571404 
L 82.244609 292.571404 
L 83.445903 291.843612 
L 84.647196 290.38803 
L 85.608231 288.199224 
L 87.290042 286.743642 
L 90.175974 284.560268 
L 93.539596 280.91588 
L 100.26684 275.082687 
L 104.354065 272.899313 
L 108.91898 270.710508 
L 112.76312 267.799343 
L 116.847518 265.610538 
L 121.175002 264.882747 
L 125.739918 263.427164 
L 130.064575 259.782776 
L 133.671282 255.410597 
L 141.840079 248.121822 
L 146.164736 244.482865 
L 150.011702 240.838477 
L 153.615583 237.921881 
L 156.738946 235.738507 
L 162.267723 234.277493 
L 164.910569 232.094119 
L 167.793674 229.177523 
L 170.676779 225.533135 
L 173.800142 223.349761 
L 176.445814 221.894178 
L 181.731506 217.521999 
L 184.614611 215.333194 
L 187.497716 213.877612 
L 191.344682 211.688806 
L 194.948563 208.777641 
L 198.312185 206.588836 
L 204.801997 203.67224 
L 207.685102 202.944448 
L 210.808465 200.761074 
L 213.69157 197.844478 
L 216.334416 195.661104 
L 218.499571 194.20009 
L 220.42164 192.744508 
L 222.103451 189.10012 
L 223.304745 185.455732 
L 224.506039 184.000149 
L 225.467074 184.000149 
L 226.18785 184.727941 
L 226.18785 184.727941 
L 226.18785 185.455732 
L 225.947591 185.455732 
L 225.226815 187.644537 
L 224.26578 189.10012 
L 223.064486 190.555702 
L 220.42164 190.555702 
L 220.181382 191.288925 
L 220.181382 192.744508 
L 219.941123 193.472299 
L 219.220347 194.927881 
L 218.980088 196.388895 
L 219.220347 197.116687 
L 219.220347 197.116687 
L 218.980088 197.116687 
L 219.460605 197.116687 
L 219.460605 197.116687 
L 219.220347 198.572269 
L 219.220347 200.033283 
L 219.220347 200.033283 
L 219.460605 200.761074 
L 219.220347 201.488866 
L 218.980088 201.488866 
L 218.980088 201.488866 
L 217.535709 200.033283 
L 217.055192 200.761074 
L 217.055192 201.488866 
L 217.29545 202.944448 
L 217.535709 203.67224 
L 217.535709 204.405462 
L 217.29545 204.405462 
L 217.29545 203.67224 
L 216.574674 206.588836 
L 217.055192 205.133253 
L 217.29545 202.944448 
L 217.535709 202.216657 
L 217.535709 201.488866 
L 217.535709 201.488866 
L 217.29545 201.488866 
L 216.814933 202.216657 
L 216.574674 202.944448 
L 216.574674 204.405462 
L 216.814933 203.67224 
L 216.574674 201.488866 
L 216.334416 200.761074 
L 216.334416 202.216657 
L 215.373381 202.944448 
L 214.652604 205.133253 
L 214.652604 206.588836 
L 215.613639 205.861045 
L 216.814933 205.861045 
L 217.055192 206.588836 
L 216.814933 207.316627 
L 216.814933 205.133253 
L 216.334416 208.044419 
L 216.094157 206.588836 
L 216.334416 203.67224 
L 216.334416 203.67224 
L 216.814933 206.588836 
L 216.574674 207.316627 
L 216.334416 206.588836 
L 215.613639 205.861045 
L 215.133122 206.588836 
L 214.892863 205.861045 
L 215.373381 205.133253 
L 215.853898 205.133253 
L 215.853898 206.588836 
L 215.613639 207.316627 
L 215.613639 208.044419 
L 215.613639 207.316627 
L 215.853898 206.588836 
L 216.094157 206.588836 
L 215.133122 206.588836 
L 214.892863 207.316627 
L 215.133122 207.316627 
L 215.373381 208.044419 
L 215.613639 208.044419 
L 215.613639 208.044419 
L 215.373381 206.588836 
L 214.892863 205.133253 
L 214.892863 204.405462 
L 214.652604 205.861045 
L 214.412346 208.044419 
L 214.652604 209.505433 
L 215.133122 209.505433 
L 215.853898 208.777641 
L 216.094157 208.777641 
L 214.652604 208.777641 
L 214.412346 207.316627 
L 214.652604 206.588836 
L 216.334416 206.588836 
L 216.334416 208.044419 
L 215.853898 210.233224 
L 215.373381 211.688806 
L 215.373381 210.233224 
L 215.613639 209.505433 
L 215.613639 209.505433 
L 215.133122 209.505433 
L 214.892863 210.233224 
L 214.892863 211.688806 
L 215.373381 212.416598 
L 215.853898 212.416598 
L 215.853898 210.961015 
L 215.853898 210.961015 
L 214.892863 208.044419 
L 214.652604 208.044419 
L 215.133122 208.044419 
L 215.853898 210.233224 
L 215.853898 212.416598 
L 215.373381 211.688806 
L 215.133122 210.961015 
L 216.094157 212.416598 
L 216.334416 212.416598 
L 216.094157 212.416598 
L 215.613639 211.688806 
L 215.373381 210.961015 
L 215.373381 210.233224 
L 215.373381 210.961015 
L 215.613639 212.416598 
L 215.613639 213.877612 
L 215.373381 213.877612 
L 215.613639 213.14982 
L 215.853898 213.14982 
L 215.133122 215.333194 
L 214.892863 215.333194 
L 215.133122 215.333194 
L 215.373381 214.605403 
L 215.613639 213.14982 
L 215.373381 212.416598 
L 215.373381 210.961015 
L 215.613639 210.961015 
L 216.094157 211.688806 
L 216.574674 211.688806 
L 216.334416 210.961015 
L 215.853898 210.233224 
L 215.613639 210.961015 
L 215.613639 210.961015 
L 215.613639 210.233224 
L 215.613639 210.961015 
L 215.853898 212.416598 
L 216.094157 212.416598 
L 216.094157 208.044419 
L 216.334416 206.588836 
L 215.853898 206.588836 
L 215.373381 209.505433 
L 215.133122 209.505433 
L 215.373381 209.505433 
L 215.373381 210.233224 
L 215.613639 210.961015 
L 215.373381 210.961015 
L 215.133122 210.233224 
L 215.133122 208.777641 
L 215.373381 207.316627 
L 215.853898 206.588836 
L 215.853898 206.588836 
L 216.094157 207.316627 
L 216.334416 206.588836 
L 216.334416 204.405462 
L 216.574674 204.405462 
L 216.574674 202.944448 
L 216.094157 202.216657 
L 214.892863 202.216657 
L 214.892863 200.761074 
L 215.133122 200.033283 
L 215.373381 200.761074 
L 215.613639 202.216657 
L 215.373381 201.488866 
L 215.373381 200.761074 
L 215.613639 200.761074 
L 214.652604 200.761074 
L 214.412346 201.488866 
L 214.412346 202.216657 
L 214.172087 202.944448 
L 213.931828 202.216657 
L 213.931828 200.761074 
L 213.931828 200.761074 
L 213.69157 200.033283 
L 213.69157 198.572269 
L 213.931828 197.116687 
L 214.412346 195.661104 
L 213.931828 194.927881 
L 213.211052 195.661104 
L 212.970793 195.661104 
L 213.451311 195.661104 
L 213.69157 196.388895 
L 213.69157 196.388895 
L 213.931828 195.661104 
L 213.931828 194.927881 
L 213.451311 192.016716 
L 213.69157 191.288925 
L 214.172087 189.10012 
L 216.094157 186.188955 
L 217.29545 184.727941 
L 218.980088 181.816776 
L 221.142417 180.355762 
L 223.785262 178.900179 
L 226.428108 178.172388 
L 229.070954 175.983583 
L 231.473542 173.072417 
L 237.242578 165.055851 
L 240.125682 162.139254 
L 242.768528 159.95588 
L 244.690598 157.767075 
L 246.855753 156.311492 
L 248.537564 154.122687 
L 249.979116 152.667105 
L 251.18041 151.939313 
L 252.381704 151.939313 
L 253.582997 151.211522 
L 254.303773 151.211522 
L 255.264808 150.483731 
L 256.466102 149.022717 
L 257.667396 148.294926 
L 259.108948 146.839343 
L 259.829724 145.378329 
L 260.553327 144.650538 
L 260.553327 143.922747 
L 260.313068 143.194955 
L 260.069983 143.194955 
L 260.313068 144.650538 
L 260.553327 145.378329 
L 260.793586 144.650538 
L 260.553327 144.650538 
L 260.313068 145.378329 
L 259.829724 146.111552 
L 259.829724 146.839343 
L 259.829724 146.839343 
L 259.589465 146.839343 
L 258.868689 144.650538 
L 258.868689 144.650538 
L 258.62843 145.378329 
L 258.147913 144.650538 
L 257.667396 144.650538 
L 257.186878 145.378329 
L 257.186878 145.378329 
L 257.186878 148.294926 
L 256.946619 148.294926 
L 257.186878 147.567134 
L 257.667396 147.567134 
L 258.147913 146.839343 
L 258.388172 145.378329 
L 258.147913 145.378329 
L 257.907654 146.111552 
L 256.706361 146.111552 
L 256.706361 144.650538 
L 256.466102 144.650538 
L 256.946619 144.650538 
L 257.427137 145.378329 
L 257.427137 146.839343 
L 256.706361 149.022717 
L 256.225843 149.022717 
L 256.706361 146.111552 
L 256.946619 145.378329 
L 256.706361 145.378329 
L 256.706361 145.378329 
L 256.706361 144.650538 
L 256.706361 145.378329 
L 256.225843 146.111552 
L 255.985584 146.111552 
L 255.985584 146.111552 
L 256.706361 146.839343 
L 257.427137 146.839343 
L 257.667396 144.650538 
L 257.427137 142.467164 
L 257.186878 141.739373 
L 256.706361 143.194955 
L 256.466102 143.194955 
L 256.225843 141.739373 
L 256.466102 141.739373 
L 256.946619 142.467164 
L 257.186878 143.194955 
L 257.186878 146.111552 
L 256.466102 146.111552 
L 256.225843 144.650538 
L 256.225843 143.922747 
L 256.225843 143.922747 
L 255.985584 143.922747 
L 256.225843 142.467164 
L 256.706361 141.00615 
L 256.706361 141.739373 
L 256.225843 143.194955 
L 256.225843 143.194955 
L 255.985584 142.467164 
L 255.985584 142.467164 
L 256.466102 142.467164 
L 257.427137 143.194955 
L 257.427137 143.194955 
L 257.186878 143.922747 
L 256.706361 143.922747 
L 255.745326 142.467164 
L 255.264808 142.467164 
L 255.264808 142.467164 
L 255.505067 141.739373 
L 255.745326 141.739373 
L 255.505067 141.739373 
L 255.02455 142.467164 
L 255.02455 142.467164 
L 255.264808 143.194955 
L 255.505067 144.650538 
L 255.745326 143.922747 
L 255.745326 140.278359 
L 255.985584 140.278359 
L 256.225843 141.00615 
L 255.745326 140.278359 
L 255.505067 139.550567 
L 256.225843 139.550567 
L 256.706361 140.278359 
L 256.706361 141.00615 
L 256.466102 141.00615 
L 256.466102 140.278359 
L 256.225843 140.278359 
L 256.466102 139.550567 
L 256.946619 139.550567 
L 255.745326 139.550567 
L 255.985584 138.822776 
L 256.225843 138.822776 
L 256.466102 139.550567 
L 255.745326 139.550567 
L 255.505067 138.822776 
L 255.505067 137.367194 
L 255.264808 136.633971 
L 255.264808 138.094985 
L 255.745326 138.094985 
L 255.985584 138.822776 
L 255.985584 138.822776 
L 255.985584 138.094985 
L 255.985584 138.822776 
L 256.225843 140.278359 
L 256.225843 140.278359 
L 256.225843 138.094985 
L 256.225843 138.822776 
L 255.745326 139.550567 
L 255.264808 138.822776 
L 255.02455 135.90618 
L 254.784291 136.633971 
L 254.544032 136.633971 
L 254.544032 135.90618 
L 254.784291 135.90618 
L 255.264808 135.178388 
L 255.985584 135.178388 
L 255.985584 135.178388 
L 255.745326 136.633971 
L 255.264808 137.367194 
L 255.02455 138.822776 
L 255.264808 139.550567 
L 255.505067 138.822776 
L 255.505067 138.094985 
L 255.02455 137.367194 
L 254.784291 137.367194 
L 255.505067 133.722806 
L 255.985584 133.722806 
L 256.225843 134.450597 
L 255.985584 135.90618 
L 255.264808 135.90618 
L 255.745326 135.178388 
L 255.985584 135.178388 
L 255.985584 135.178388 
L 255.985584 135.90618 
L 256.225843 136.633971 
L 255.985584 135.178388 
L 255.985584 133.722806 
L 255.505067 133.722806 
L 255.264808 134.450597 
L 255.264808 135.178388 
L 255.985584 135.178388 
L 256.225843 132.995015 
L 256.466102 132.261792 
L 256.225843 132.261792 
L 255.745326 132.995015 
L 255.505067 132.995015 
L 255.745326 132.995015 
L 255.745326 130.806209 
L 255.505067 130.078418 
L 255.745326 131.534001 
L 256.225843 135.178388 
L 256.466102 134.450597 
L 256.225843 132.261792 
L 255.985584 131.534001 
L 255.985584 131.534001 
L 256.225843 131.534001 
L 256.225843 131.534001 
L 256.466102 130.806209 
L 256.706361 129.350627 
L 256.706361 128.622835 
L 256.706361 130.078418 
L 256.706361 129.350627 
L 256.225843 127.889613 
L 256.225843 127.889613 
L 256.225843 127.161822 
L 256.466102 127.161822 
L 256.225843 127.889613 
L 255.745326 128.622835 
L 255.264808 128.622835 
L 255.02455 129.350627 
L 255.505067 129.350627 
L 255.745326 128.622835 
L 255.985584 127.161822 
L 255.505067 125.706239 
L 255.505067 125.706239 
L 255.264808 126.43403 
L 254.784291 126.43403 
L 254.544032 125.706239 
L 254.784291 124.250656 
L 255.02455 123.517434 
L 255.02455 123.517434 
L 255.02455 124.250656 
L 254.784291 124.978448 
L 254.784291 125.706239 
L 255.505067 124.978448 
L 255.745326 124.250656 
L 254.784291 121.33406 
L 254.544032 119.150686 
L 254.544032 119.150686 
L 254.544032 120.606269 
L 255.02455 122.061851 
L 255.02455 123.517434 
L 255.264808 122.789642 
L 255.505067 119.878477 
L 255.02455 117.689672 
L 254.544032 116.961881 
L 254.303773 117.689672 
L 253.823256 120.606269 
L 253.582997 121.33406 
L 254.063515 120.606269 
L 254.544032 119.150686 
L 254.784291 119.150686 
L 254.544032 117.689672 
L 254.303773 116.961881 
L 254.544032 116.23409 
L 254.544032 115.506298 
L 254.063515 114.045284 
L 254.063515 114.045284 
L 254.303773 114.045284 
L 254.784291 115.506298 
L 255.02455 115.506298 
L 255.505067 116.23409 
L 255.264808 115.506298 
L 254.063515 113.317493 
L 254.063515 112.589702 
L 254.544032 112.589702 
L 255.02455 113.317493 
L 254.544032 114.778507 
L 254.063515 115.506298 
L 254.063515 115.506298 
L 254.303773 114.045284 
L 254.544032 111.86191 
L 254.784291 111.134119 
L 255.02455 111.86191 
L 255.02455 111.86191 
L 255.264808 111.134119 
L 255.02455 110.406328 
L 254.784291 110.406328 
L 254.784291 111.86191 
L 254.544032 112.589702 
L 254.063515 112.589702 
L 253.823256 111.134119 
L 253.582997 110.406328 
L 254.303773 112.589702 
L 254.063515 111.134119 
L 254.063515 108.945314 
L 254.784291 108.945314 
L 255.264808 110.406328 
L 255.264808 111.134119 
L 255.505067 111.134119 
L 255.745326 111.86191 
L 255.505067 113.317493 
L 255.02455 111.86191 
L 254.784291 110.406328 
L 254.544032 109.673105 
L 254.544032 110.406328 
L 254.544032 109.673105 
L 254.063515 108.945314 
L 254.063515 109.673105 
L 254.303773 110.406328 
L 254.544032 108.945314 
L 254.303773 107.489731 
L 254.303773 107.489731 
L 254.303773 108.945314 
L 254.303773 108.945314 
" style="fill:none;stroke:#1f77b4;stroke-linecap:square;stroke-width:1.5;"/>
   </g>
   <g id="matplotlib.axis_1">
    <g id="xtick_1">
     <g id="line2d_2">
      <defs>
       <path d="M 0 0 
L 0 3.5 
" id="mf294281685" style="stroke:#000000;stroke-width:0.8;"/>
      </defs>
      <g>
       <use style="stroke:#000000;stroke-width:0.8;" x="75.921565" xlink:href="#mf294281685" y="307.584"/>
      </g>
     </g>
     <g id="text_1">
      <!-- −400 -->
      <defs>
       <path d="M 10.59375 35.5 
L 73.1875 35.5 
L 73.1875 27.203125 
L 10.59375 27.203125 
z
" id="DejaVuSans-8722"/>
       <path d="M 37.796875 64.3125 
L 12.890625 25.390625 
L 37.796875 25.390625 
z
M 35.203125 72.90625 
L 47.609375 72.90625 
L 47.609375 25.390625 
L 58.015625 25.390625 
L 58.015625 17.1875 
L 47.609375 17.1875 
L 47.609375 0 
L 37.796875 0 
L 37.796875 17.1875 
L 4.890625 17.1875 
L 4.890625 26.703125 
z
" id="DejaVuSans-52"/>
       <path d="M 31.78125 66.40625 
Q 24.171875 66.40625 20.328125 58.90625 
Q 16.5 51.421875 16.5 36.375 
Q 16.5 21.390625 20.328125 13.890625 
Q 24.171875 6.390625 31.78125 6.390625 
Q 39.453125 6.390625 43.28125 13.890625 
Q 47.125 21.390625 47.125 36.375 
Q 47.125 51.421875 43.28125 58.90625 
Q 39.453125 66.40625 31.78125 66.40625 
z
M 31.78125 74.21875 
Q 44.046875 74.21875 50.515625 64.515625 
Q 56.984375 54.828125 56.984375 36.375 
Q 56.984375 17.96875 50.515625 8.265625 
Q 44.046875 -1.421875 31.78125 -1.421875 
Q 19.53125 -1.421875 13.0625 8.265625 
Q 6.59375 17.96875 6.59375 36.375 
Q 6.59375 54.828125 13.0625 64.515625 
Q 19.53125 74.21875 31.78125 74.21875 
z
" id="DejaVuSans-48"/>
      </defs>
      <g transform="translate(62.187971 322.182437)scale(0.1 -0.1)">
       <use xlink:href="#DejaVuSans-8722"/>
       <use x="83.789062" xlink:href="#DejaVuSans-52"/>
       <use x="147.412109" xlink:href="#DejaVuSans-48"/>
       <use x="211.035156" xlink:href="#DejaVuSans-48"/>
      </g>
     </g>
    </g>
    <g id="xtick_2">
     <g id="line2d_3">
      <g>
       <use style="stroke:#000000;stroke-width:0.8;" x="132.453029" xlink:href="#mf294281685" y="307.584"/>
      </g>
     </g>
     <g id="text_2">
      <!-- −200 -->
      <defs>
       <path d="M 19.1875 8.296875 
L 53.609375 8.296875 
L 53.609375 0 
L 7.328125 0 
L 7.328125 8.296875 
Q 12.9375 14.109375 22.625 23.890625 
Q 32.328125 33.6875 34.8125 36.53125 
Q 39.546875 41.84375 41.421875 45.53125 
Q 43.3125 49.21875 43.3125 52.78125 
Q 43.3125 58.59375 39.234375 62.25 
Q 35.15625 65.921875 28.609375 65.921875 
Q 23.96875 65.921875 18.8125 64.3125 
Q 13.671875 62.703125 7.8125 59.421875 
L 7.8125 69.390625 
Q 13.765625 71.78125 18.9375 73 
Q 24.125 74.21875 28.421875 74.21875 
Q 39.75 74.21875 46.484375 68.546875 
Q 53.21875 62.890625 53.21875 53.421875 
Q 53.21875 48.921875 51.53125 44.890625 
Q 49.859375 40.875 45.40625 35.40625 
Q 44.1875 33.984375 37.640625 27.21875 
Q 31.109375 20.453125 19.1875 8.296875 
z
" id="DejaVuSans-50"/>
      </defs>
      <g transform="translate(118.719435 322.182437)scale(0.1 -0.1)">
       <use xlink:href="#DejaVuSans-8722"/>
       <use x="83.789062" xlink:href="#DejaVuSans-50"/>
       <use x="147.412109" xlink:href="#DejaVuSans-48"/>
       <use x="211.035156" xlink:href="#DejaVuSans-48"/>
      </g>
     </g>
    </g>
    <g id="xtick_3">
     <g id="line2d_4">
      <g>
       <use style="stroke:#000000;stroke-width:0.8;" x="188.984493" xlink:href="#mf294281685" y="307.584"/>
      </g>
     </g>
     <g id="text_3">
      <!-- 0 -->
      <g transform="translate(185.803243 322.182437)scale(0.1 -0.1)">
       <use xlink:href="#DejaVuSans-48"/>
      </g>
     </g>
    </g>
    <g id="xtick_4">
     <g id="line2d_5">
      <g>
       <use style="stroke:#000000;stroke-width:0.8;" x="245.515957" xlink:href="#mf294281685" y="307.584"/>
      </g>
     </g>
     <g id="text_4">
      <!-- 200 -->
      <g transform="translate(235.972207 322.182437)scale(0.1 -0.1)">
       <use xlink:href="#DejaVuSans-50"/>
       <use x="63.623047" xlink:href="#DejaVuSans-48"/>
       <use x="127.246094" xlink:href="#DejaVuSans-48"/>
      </g>
     </g>
    </g>
    <g id="xtick_5">
     <g id="line2d_6">
      <g>
       <use style="stroke:#000000;stroke-width:0.8;" x="302.047421" xlink:href="#mf294281685" y="307.584"/>
      </g>
     </g>
     <g id="text_5">
      <!-- 400 -->
      <g transform="translate(292.503671 322.182437)scale(0.1 -0.1)">
       <use xlink:href="#DejaVuSans-52"/>
       <use x="63.623047" xlink:href="#DejaVuSans-48"/>
       <use x="127.246094" xlink:href="#DejaVuSans-48"/>
      </g>
     </g>
    </g>
    <g id="xtick_6">
     <g id="line2d_7">
      <g>
       <use style="stroke:#000000;stroke-width:0.8;" x="358.578886" xlink:href="#mf294281685" y="307.584"/>
      </g>
     </g>
     <g id="text_6">
      <!-- 600 -->
      <defs>
       <path d="M 33.015625 40.375 
Q 26.375 40.375 22.484375 35.828125 
Q 18.609375 31.296875 18.609375 23.390625 
Q 18.609375 15.53125 22.484375 10.953125 
Q 26.375 6.390625 33.015625 6.390625 
Q 39.65625 6.390625 43.53125 10.953125 
Q 47.40625 15.53125 47.40625 23.390625 
Q 47.40625 31.296875 43.53125 35.828125 
Q 39.65625 40.375 33.015625 40.375 
z
M 52.59375 71.296875 
L 52.59375 62.3125 
Q 48.875 64.0625 45.09375 64.984375 
Q 41.3125 65.921875 37.59375 65.921875 
Q 27.828125 65.921875 22.671875 59.328125 
Q 17.53125 52.734375 16.796875 39.40625 
Q 19.671875 43.65625 24.015625 45.921875 
Q 28.375 48.1875 33.59375 48.1875 
Q 44.578125 48.1875 50.953125 41.515625 
Q 57.328125 34.859375 57.328125 23.390625 
Q 57.328125 12.15625 50.6875 5.359375 
Q 44.046875 -1.421875 33.015625 -1.421875 
Q 20.359375 -1.421875 13.671875 8.265625 
Q 6.984375 17.96875 6.984375 36.375 
Q 6.984375 53.65625 15.1875 63.9375 
Q 23.390625 74.21875 37.203125 74.21875 
Q 40.921875 74.21875 44.703125 73.484375 
Q 48.484375 72.75 52.59375 71.296875 
z
" id="DejaVuSans-54"/>
      </defs>
      <g transform="translate(349.035136 322.182437)scale(0.1 -0.1)">
       <use xlink:href="#DejaVuSans-54"/>
       <use x="63.623047" xlink:href="#DejaVuSans-48"/>
       <use x="127.246094" xlink:href="#DejaVuSans-48"/>
      </g>
     </g>
    </g>
    <g id="xtick_7">
     <g id="line2d_8">
      <g>
       <use style="stroke:#000000;stroke-width:0.8;" x="415.11035" xlink:href="#mf294281685" y="307.584"/>
      </g>
     </g>
     <g id="text_7">
      <!-- 800 -->
      <defs>
       <path d="M 31.78125 34.625 
Q 24.75 34.625 20.71875 30.859375 
Q 16.703125 27.09375 16.703125 20.515625 
Q 16.703125 13.921875 20.71875 10.15625 
Q 24.75 6.390625 31.78125 6.390625 
Q 38.8125 6.390625 42.859375 10.171875 
Q 46.921875 13.96875 46.921875 20.515625 
Q 46.921875 27.09375 42.890625 30.859375 
Q 38.875 34.625 31.78125 34.625 
z
M 21.921875 38.8125 
Q 15.578125 40.375 12.03125 44.71875 
Q 8.5 49.078125 8.5 55.328125 
Q 8.5 64.0625 14.71875 69.140625 
Q 20.953125 74.21875 31.78125 74.21875 
Q 42.671875 74.21875 48.875 69.140625 
Q 55.078125 64.0625 55.078125 55.328125 
Q 55.078125 49.078125 51.53125 44.71875 
Q 48 40.375 41.703125 38.8125 
Q 48.828125 37.15625 52.796875 32.3125 
Q 56.78125 27.484375 56.78125 20.515625 
Q 56.78125 9.90625 50.3125 4.234375 
Q 43.84375 -1.421875 31.78125 -1.421875 
Q 19.734375 -1.421875 13.25 4.234375 
Q 6.78125 9.90625 6.78125 20.515625 
Q 6.78125 27.484375 10.78125 32.3125 
Q 14.796875 37.15625 21.921875 38.8125 
z
M 18.3125 54.390625 
Q 18.3125 48.734375 21.84375 45.5625 
Q 25.390625 42.390625 31.78125 42.390625 
Q 38.140625 42.390625 41.71875 45.5625 
Q 45.3125 48.734375 45.3125 54.390625 
Q 45.3125 60.0625 41.71875 63.234375 
Q 38.140625 66.40625 31.78125 66.40625 
Q 25.390625 66.40625 21.84375 63.234375 
Q 18.3125 60.0625 18.3125 54.390625 
z
" id="DejaVuSans-56"/>
      </defs>
      <g transform="translate(405.5666 322.182437)scale(0.1 -0.1)">
       <use xlink:href="#DejaVuSans-56"/>
       <use x="63.623047" xlink:href="#DejaVuSans-48"/>
       <use x="127.246094" xlink:href="#DejaVuSans-48"/>
      </g>
     </g>
    </g>
   </g>
   <g id="matplotlib.axis_2">
    <g id="ytick_1">
     <g id="line2d_9">
      <defs>
       <path d="M 0 0 
L -3.5 0 
" id="m1f53ba9306" style="stroke:#000000;stroke-width:0.8;"/>
      </defs>
      <g>
       <use style="stroke:#000000;stroke-width:0.8;" x="57.6" xlink:href="#m1f53ba9306" y="277.532194"/>
      </g>
     </g>
     <g id="text_8">
      <!-- −300 -->
      <defs>
       <path d="M 40.578125 39.3125 
Q 47.65625 37.796875 51.625 33 
Q 55.609375 28.21875 55.609375 21.1875 
Q 55.609375 10.40625 48.1875 4.484375 
Q 40.765625 -1.421875 27.09375 -1.421875 
Q 22.515625 -1.421875 17.65625 -0.515625 
Q 12.796875 0.390625 7.625 2.203125 
L 7.625 11.71875 
Q 11.71875 9.328125 16.59375 8.109375 
Q 21.484375 6.890625 26.8125 6.890625 
Q 36.078125 6.890625 40.9375 10.546875 
Q 45.796875 14.203125 45.796875 21.1875 
Q 45.796875 27.640625 41.28125 31.265625 
Q 36.765625 34.90625 28.71875 34.90625 
L 20.21875 34.90625 
L 20.21875 43.015625 
L 29.109375 43.015625 
Q 36.375 43.015625 40.234375 45.921875 
Q 44.09375 48.828125 44.09375 54.296875 
Q 44.09375 59.90625 40.109375 62.90625 
Q 36.140625 65.921875 28.71875 65.921875 
Q 24.65625 65.921875 20.015625 65.03125 
Q 15.375 64.15625 9.8125 62.3125 
L 9.8125 71.09375 
Q 15.4375 72.65625 20.34375 73.4375 
Q 25.25 74.21875 29.59375 74.21875 
Q 40.828125 74.21875 47.359375 69.109375 
Q 53.90625 64.015625 53.90625 55.328125 
Q 53.90625 49.265625 50.4375 45.09375 
Q 46.96875 40.921875 40.578125 39.3125 
z
" id="DejaVuSans-51"/>
      </defs>
      <g transform="translate(23.132812 281.331413)scale(0.1 -0.1)">
       <use xlink:href="#DejaVuSans-8722"/>
       <use x="83.789062" xlink:href="#DejaVuSans-51"/>
       <use x="147.412109" xlink:href="#DejaVuSans-48"/>
       <use x="211.035156" xlink:href="#DejaVuSans-48"/>
      </g>
     </g>
    </g>
    <g id="ytick_2">
     <g id="line2d_10">
      <g>
       <use style="stroke:#000000;stroke-width:0.8;" x="57.6" xlink:href="#m1f53ba9306" y="223.21941"/>
      </g>
     </g>
     <g id="text_9">
      <!-- −200 -->
      <g transform="translate(23.132812 227.018629)scale(0.1 -0.1)">
       <use xlink:href="#DejaVuSans-8722"/>
       <use x="83.789062" xlink:href="#DejaVuSans-50"/>
       <use x="147.412109" xlink:href="#DejaVuSans-48"/>
       <use x="211.035156" xlink:href="#DejaVuSans-48"/>
      </g>
     </g>
    </g>
    <g id="ytick_3">
     <g id="line2d_11">
      <g>
       <use style="stroke:#000000;stroke-width:0.8;" x="57.6" xlink:href="#m1f53ba9306" y="168.906627"/>
      </g>
     </g>
     <g id="text_10">
      <!-- −100 -->
      <defs>
       <path d="M 12.40625 8.296875 
L 28.515625 8.296875 
L 28.515625 63.921875 
L 10.984375 60.40625 
L 10.984375 69.390625 
L 28.421875 72.90625 
L 38.28125 72.90625 
L 38.28125 8.296875 
L 54.390625 8.296875 
L 54.390625 0 
L 12.40625 0 
z
" id="DejaVuSans-49"/>
      </defs>
      <g transform="translate(23.132812 172.705846)scale(0.1 -0.1)">
       <use xlink:href="#DejaVuSans-8722"/>
       <use x="83.789062" xlink:href="#DejaVuSans-49"/>
       <use x="147.412109" xlink:href="#DejaVuSans-48"/>
       <use x="211.035156" xlink:href="#DejaVuSans-48"/>
      </g>
     </g>
    </g>
    <g id="ytick_4">
     <g id="line2d_12">
      <g>
       <use style="stroke:#000000;stroke-width:0.8;" x="57.6" xlink:href="#m1f53ba9306" y="114.593843"/>
      </g>
     </g>
     <g id="text_11">
      <!-- 0 -->
      <g transform="translate(44.2375 118.393062)scale(0.1 -0.1)">
       <use xlink:href="#DejaVuSans-48"/>
      </g>
     </g>
    </g>
    <g id="ytick_5">
     <g id="line2d_13">
      <g>
       <use style="stroke:#000000;stroke-width:0.8;" x="57.6" xlink:href="#m1f53ba9306" y="60.28106"/>
      </g>
     </g>
     <g id="text_12">
      <!-- 100 -->
      <g transform="translate(31.5125 64.080279)scale(0.1 -0.1)">
       <use xlink:href="#DejaVuSans-49"/>
       <use x="63.623047" xlink:href="#DejaVuSans-48"/>
       <use x="127.246094" xlink:href="#DejaVuSans-48"/>
      </g>
     </g>
    </g>
   </g>
   <g id="line2d_14">
    <path clip-path="url(#p3364f5f415)" d="M 394.049403 69.78164 
L 183.968828 145.500533 
L 79.738768 273.289826 
L 85.14203 287.398262 
L 214.698233 204.569176 
L 255.295074 134.279988 
" style="fill:none;stroke:#ff0000;stroke-linecap:square;stroke-width:0.5;"/>
   </g>
   <g id="patch_3">
    <path d="M 57.6 307.584 
L 57.6 41.472 
" style="fill:none;stroke:#000000;stroke-linecap:square;stroke-linejoin:miter;stroke-width:0.8;"/>
   </g>
   <g id="patch_4">
    <path d="M 414.72 307.584 
L 414.72 41.472 
" style="fill:none;stroke:#000000;stroke-linecap:square;stroke-linejoin:miter;stroke-width:0.8;"/>
   </g>
   <g id="patch_5">
    <path d="M 57.6 307.584 
L 414.72 307.584 
" style="fill:none;stroke:#000000;stroke-linecap:square;stroke-linejoin:miter;stroke-width:0.8;"/>
   </g>
   <g id="patch_6">
    <path d="M 57.6 41.472 
L 414.72 41.472 
" style="fill:none;stroke:#000000;stroke-linecap:square;stroke-linejoin:miter;stroke-width:0.8;"/>
   </g>
   <g id="PathCollection_1">
    <defs>
     <path d="M 0 2.738613 
C 0.726289 2.738613 1.422928 2.450055 1.936492 1.936492 
C 2.450055 1.422928 2.738613 0.726289 2.738613 0 
C 2.738613 -0.726289 2.450055 -1.422928 1.936492 -1.936492 
C 1.422928 -2.450055 0.726289 -2.738613 0 -2.738613 
C -0.726289 -2.738613 -1.422928 -2.450055 -1.936492 -1.936492 
C -2.450055 -1.422928 -2.738613 -0.726289 -2.738613 0 
C -2.738613 0.726289 -2.450055 1.422928 -1.936492 1.936492 
C -1.422928 2.450055 -0.726289 2.738613 0 2.738613 
z
" id="m84523978de" style="stroke:#ff0000;"/>
    </defs>
    <g clip-path="url(#p3364f5f415)">
     <use style="fill:#ff0000;stroke:#ff0000;" x="394.049403" xlink:href="#m84523978de" y="69.78164"/>
     <use style="fill:#ff0000;stroke:#ff0000;" x="183.968828" xlink:href="#m84523978de" y="145.500533"/>
     <use style="fill:#ff0000;stroke:#ff0000;" x="79.738768" xlink:href="#m84523978de" y="273.289826"/>
     <use style="fill:#ff0000;stroke:#ff0000;" x="85.14203" xlink:href="#m84523978de" y="287.398262"/>
     <use style="fill:#ff0000;stroke:#ff0000;" x="214.698233" xlink:href="#m84523978de" y="204.569176"/>
     <use style="fill:#ff0000;stroke:#ff0000;" x="255.295074" xlink:href="#m84523978de" y="134.279988"/>
    </g>
   </g>
   <g id="text_13">
    <!-- (30) Subject: s3, Known = True, Degree = 2, Duration = 0.1 -->
    <defs>
     <path d="M 31 75.875 
Q 24.46875 64.65625 21.28125 53.65625 
Q 18.109375 42.671875 18.109375 31.390625 
Q 18.109375 20.125 21.3125 9.0625 
Q 24.515625 -2 31 -13.1875 
L 23.1875 -13.1875 
Q 15.875 -1.703125 12.234375 9.375 
Q 8.59375 20.453125 8.59375 31.390625 
Q 8.59375 42.28125 12.203125 53.3125 
Q 15.828125 64.359375 23.1875 75.875 
z
" id="DejaVuSans-40"/>
     <path d="M 8.015625 75.875 
L 15.828125 75.875 
Q 23.140625 64.359375 26.78125 53.3125 
Q 30.421875 42.28125 30.421875 31.390625 
Q 30.421875 20.453125 26.78125 9.375 
Q 23.140625 -1.703125 15.828125 -13.1875 
L 8.015625 -13.1875 
Q 14.5 -2 17.703125 9.0625 
Q 20.90625 20.125 20.90625 31.390625 
Q 20.90625 42.671875 17.703125 53.65625 
Q 14.5 64.65625 8.015625 75.875 
z
" id="DejaVuSans-41"/>
     <path id="DejaVuSans-32"/>
     <path d="M 53.515625 70.515625 
L 53.515625 60.890625 
Q 47.90625 63.578125 42.921875 64.890625 
Q 37.9375 66.21875 33.296875 66.21875 
Q 25.25 66.21875 20.875 63.09375 
Q 16.5 59.96875 16.5 54.203125 
Q 16.5 49.359375 19.40625 46.890625 
Q 22.3125 44.4375 30.421875 42.921875 
L 36.375 41.703125 
Q 47.40625 39.59375 52.65625 34.296875 
Q 57.90625 29 57.90625 20.125 
Q 57.90625 9.515625 50.796875 4.046875 
Q 43.703125 -1.421875 29.984375 -1.421875 
Q 24.8125 -1.421875 18.96875 -0.25 
Q 13.140625 0.921875 6.890625 3.21875 
L 6.890625 13.375 
Q 12.890625 10.015625 18.65625 8.296875 
Q 24.421875 6.59375 29.984375 6.59375 
Q 38.421875 6.59375 43.015625 9.90625 
Q 47.609375 13.234375 47.609375 19.390625 
Q 47.609375 24.75 44.3125 27.78125 
Q 41.015625 30.8125 33.5 32.328125 
L 27.484375 33.5 
Q 16.453125 35.6875 11.515625 40.375 
Q 6.59375 45.0625 6.59375 53.421875 
Q 6.59375 63.09375 13.40625 68.65625 
Q 20.21875 74.21875 32.171875 74.21875 
Q 37.3125 74.21875 42.625 73.28125 
Q 47.953125 72.359375 53.515625 70.515625 
z
" id="DejaVuSans-83"/>
     <path d="M 8.5 21.578125 
L 8.5 54.6875 
L 17.484375 54.6875 
L 17.484375 21.921875 
Q 17.484375 14.15625 20.5 10.265625 
Q 23.53125 6.390625 29.59375 6.390625 
Q 36.859375 6.390625 41.078125 11.03125 
Q 45.3125 15.671875 45.3125 23.6875 
L 45.3125 54.6875 
L 54.296875 54.6875 
L 54.296875 0 
L 45.3125 0 
L 45.3125 8.40625 
Q 42.046875 3.421875 37.71875 1 
Q 33.40625 -1.421875 27.6875 -1.421875 
Q 18.265625 -1.421875 13.375 4.4375 
Q 8.5 10.296875 8.5 21.578125 
z
M 31.109375 56 
z
" id="DejaVuSans-117"/>
     <path d="M 48.6875 27.296875 
Q 48.6875 37.203125 44.609375 42.84375 
Q 40.53125 48.484375 33.40625 48.484375 
Q 26.265625 48.484375 22.1875 42.84375 
Q 18.109375 37.203125 18.109375 27.296875 
Q 18.109375 17.390625 22.1875 11.75 
Q 26.265625 6.109375 33.40625 6.109375 
Q 40.53125 6.109375 44.609375 11.75 
Q 48.6875 17.390625 48.6875 27.296875 
z
M 18.109375 46.390625 
Q 20.953125 51.265625 25.265625 53.625 
Q 29.59375 56 35.59375 56 
Q 45.5625 56 51.78125 48.09375 
Q 58.015625 40.1875 58.015625 27.296875 
Q 58.015625 14.40625 51.78125 6.484375 
Q 45.5625 -1.421875 35.59375 -1.421875 
Q 29.59375 -1.421875 25.265625 0.953125 
Q 20.953125 3.328125 18.109375 8.203125 
L 18.109375 0 
L 9.078125 0 
L 9.078125 75.984375 
L 18.109375 75.984375 
z
" id="DejaVuSans-98"/>
     <path d="M 9.421875 54.6875 
L 18.40625 54.6875 
L 18.40625 -0.984375 
Q 18.40625 -11.421875 14.421875 -16.109375 
Q 10.453125 -20.796875 1.609375 -20.796875 
L -1.8125 -20.796875 
L -1.8125 -13.1875 
L 0.59375 -13.1875 
Q 5.71875 -13.1875 7.5625 -10.8125 
Q 9.421875 -8.453125 9.421875 -0.984375 
z
M 9.421875 75.984375 
L 18.40625 75.984375 
L 18.40625 64.59375 
L 9.421875 64.59375 
z
" id="DejaVuSans-106"/>
     <path d="M 56.203125 29.59375 
L 56.203125 25.203125 
L 14.890625 25.203125 
Q 15.484375 15.921875 20.484375 11.0625 
Q 25.484375 6.203125 34.421875 6.203125 
Q 39.59375 6.203125 44.453125 7.46875 
Q 49.3125 8.734375 54.109375 11.28125 
L 54.109375 2.78125 
Q 49.265625 0.734375 44.1875 -0.34375 
Q 39.109375 -1.421875 33.890625 -1.421875 
Q 20.796875 -1.421875 13.15625 6.1875 
Q 5.515625 13.8125 5.515625 26.8125 
Q 5.515625 40.234375 12.765625 48.109375 
Q 20.015625 56 32.328125 56 
Q 43.359375 56 49.78125 48.890625 
Q 56.203125 41.796875 56.203125 29.59375 
z
M 47.21875 32.234375 
Q 47.125 39.59375 43.09375 43.984375 
Q 39.0625 48.390625 32.421875 48.390625 
Q 24.90625 48.390625 20.390625 44.140625 
Q 15.875 39.890625 15.1875 32.171875 
z
" id="DejaVuSans-101"/>
     <path d="M 48.78125 52.59375 
L 48.78125 44.1875 
Q 44.96875 46.296875 41.140625 47.34375 
Q 37.3125 48.390625 33.40625 48.390625 
Q 24.65625 48.390625 19.8125 42.84375 
Q 14.984375 37.3125 14.984375 27.296875 
Q 14.984375 17.28125 19.8125 11.734375 
Q 24.65625 6.203125 33.40625 6.203125 
Q 37.3125 6.203125 41.140625 7.25 
Q 44.96875 8.296875 48.78125 10.40625 
L 48.78125 2.09375 
Q 45.015625 0.34375 40.984375 -0.53125 
Q 36.96875 -1.421875 32.421875 -1.421875 
Q 20.0625 -1.421875 12.78125 6.34375 
Q 5.515625 14.109375 5.515625 27.296875 
Q 5.515625 40.671875 12.859375 48.328125 
Q 20.21875 56 33.015625 56 
Q 37.15625 56 41.109375 55.140625 
Q 45.0625 54.296875 48.78125 52.59375 
z
" id="DejaVuSans-99"/>
     <path d="M 18.3125 70.21875 
L 18.3125 54.6875 
L 36.8125 54.6875 
L 36.8125 47.703125 
L 18.3125 47.703125 
L 18.3125 18.015625 
Q 18.3125 11.328125 20.140625 9.421875 
Q 21.96875 7.515625 27.59375 7.515625 
L 36.8125 7.515625 
L 36.8125 0 
L 27.59375 0 
Q 17.1875 0 13.234375 3.875 
Q 9.28125 7.765625 9.28125 18.015625 
L 9.28125 47.703125 
L 2.6875 47.703125 
L 2.6875 54.6875 
L 9.28125 54.6875 
L 9.28125 70.21875 
z
" id="DejaVuSans-116"/>
     <path d="M 11.71875 12.40625 
L 22.015625 12.40625 
L 22.015625 0 
L 11.71875 0 
z
M 11.71875 51.703125 
L 22.015625 51.703125 
L 22.015625 39.3125 
L 11.71875 39.3125 
z
" id="DejaVuSans-58"/>
     <path d="M 44.28125 53.078125 
L 44.28125 44.578125 
Q 40.484375 46.53125 36.375 47.5 
Q 32.28125 48.484375 27.875 48.484375 
Q 21.1875 48.484375 17.84375 46.4375 
Q 14.5 44.390625 14.5 40.28125 
Q 14.5 37.15625 16.890625 35.375 
Q 19.28125 33.59375 26.515625 31.984375 
L 29.59375 31.296875 
Q 39.15625 29.25 43.1875 25.515625 
Q 47.21875 21.78125 47.21875 15.09375 
Q 47.21875 7.46875 41.1875 3.015625 
Q 35.15625 -1.421875 24.609375 -1.421875 
Q 20.21875 -1.421875 15.453125 -0.5625 
Q 10.6875 0.296875 5.421875 2 
L 5.421875 11.28125 
Q 10.40625 8.6875 15.234375 7.390625 
Q 20.0625 6.109375 24.8125 6.109375 
Q 31.15625 6.109375 34.5625 8.28125 
Q 37.984375 10.453125 37.984375 14.40625 
Q 37.984375 18.0625 35.515625 20.015625 
Q 33.0625 21.96875 24.703125 23.78125 
L 21.578125 24.515625 
Q 13.234375 26.265625 9.515625 29.90625 
Q 5.8125 33.546875 5.8125 39.890625 
Q 5.8125 47.609375 11.28125 51.796875 
Q 16.75 56 26.8125 56 
Q 31.78125 56 36.171875 55.265625 
Q 40.578125 54.546875 44.28125 53.078125 
z
" id="DejaVuSans-115"/>
     <path d="M 11.71875 12.40625 
L 22.015625 12.40625 
L 22.015625 4 
L 14.015625 -11.625 
L 7.71875 -11.625 
L 11.71875 4 
z
" id="DejaVuSans-44"/>
     <path d="M 9.8125 72.90625 
L 19.671875 72.90625 
L 19.671875 42.09375 
L 52.390625 72.90625 
L 65.09375 72.90625 
L 28.90625 38.921875 
L 67.671875 0 
L 54.6875 0 
L 19.671875 35.109375 
L 19.671875 0 
L 9.8125 0 
z
" id="DejaVuSans-75"/>
     <path d="M 54.890625 33.015625 
L 54.890625 0 
L 45.90625 0 
L 45.90625 32.71875 
Q 45.90625 40.484375 42.875 44.328125 
Q 39.84375 48.1875 33.796875 48.1875 
Q 26.515625 48.1875 22.3125 43.546875 
Q 18.109375 38.921875 18.109375 30.90625 
L 18.109375 0 
L 9.078125 0 
L 9.078125 54.6875 
L 18.109375 54.6875 
L 18.109375 46.1875 
Q 21.34375 51.125 25.703125 53.5625 
Q 30.078125 56 35.796875 56 
Q 45.21875 56 50.046875 50.171875 
Q 54.890625 44.34375 54.890625 33.015625 
z
" id="DejaVuSans-110"/>
     <path d="M 30.609375 48.390625 
Q 23.390625 48.390625 19.1875 42.75 
Q 14.984375 37.109375 14.984375 27.296875 
Q 14.984375 17.484375 19.15625 11.84375 
Q 23.34375 6.203125 30.609375 6.203125 
Q 37.796875 6.203125 41.984375 11.859375 
Q 46.1875 17.53125 46.1875 27.296875 
Q 46.1875 37.015625 41.984375 42.703125 
Q 37.796875 48.390625 30.609375 48.390625 
z
M 30.609375 56 
Q 42.328125 56 49.015625 48.375 
Q 55.71875 40.765625 55.71875 27.296875 
Q 55.71875 13.875 49.015625 6.21875 
Q 42.328125 -1.421875 30.609375 -1.421875 
Q 18.84375 -1.421875 12.171875 6.21875 
Q 5.515625 13.875 5.515625 27.296875 
Q 5.515625 40.765625 12.171875 48.375 
Q 18.84375 56 30.609375 56 
z
" id="DejaVuSans-111"/>
     <path d="M 4.203125 54.6875 
L 13.1875 54.6875 
L 24.421875 12.015625 
L 35.59375 54.6875 
L 46.1875 54.6875 
L 57.421875 12.015625 
L 68.609375 54.6875 
L 77.59375 54.6875 
L 63.28125 0 
L 52.6875 0 
L 40.921875 44.828125 
L 29.109375 0 
L 18.5 0 
z
" id="DejaVuSans-119"/>
     <path d="M 10.59375 45.40625 
L 73.1875 45.40625 
L 73.1875 37.203125 
L 10.59375 37.203125 
z
M 10.59375 25.484375 
L 73.1875 25.484375 
L 73.1875 17.1875 
L 10.59375 17.1875 
z
" id="DejaVuSans-61"/>
     <path d="M -0.296875 72.90625 
L 61.375 72.90625 
L 61.375 64.59375 
L 35.5 64.59375 
L 35.5 0 
L 25.59375 0 
L 25.59375 64.59375 
L -0.296875 64.59375 
z
" id="DejaVuSans-84"/>
     <path d="M 41.109375 46.296875 
Q 39.59375 47.171875 37.8125 47.578125 
Q 36.03125 48 33.890625 48 
Q 26.265625 48 22.1875 43.046875 
Q 18.109375 38.09375 18.109375 28.8125 
L 18.109375 0 
L 9.078125 0 
L 9.078125 54.6875 
L 18.109375 54.6875 
L 18.109375 46.1875 
Q 20.953125 51.171875 25.484375 53.578125 
Q 30.03125 56 36.53125 56 
Q 37.453125 56 38.578125 55.875 
Q 39.703125 55.765625 41.0625 55.515625 
z
" id="DejaVuSans-114"/>
     <path d="M 19.671875 64.796875 
L 19.671875 8.109375 
L 31.59375 8.109375 
Q 46.6875 8.109375 53.6875 14.9375 
Q 60.6875 21.78125 60.6875 36.53125 
Q 60.6875 51.171875 53.6875 57.984375 
Q 46.6875 64.796875 31.59375 64.796875 
z
M 9.8125 72.90625 
L 30.078125 72.90625 
Q 51.265625 72.90625 61.171875 64.09375 
Q 71.09375 55.28125 71.09375 36.53125 
Q 71.09375 17.671875 61.125 8.828125 
Q 51.171875 0 30.078125 0 
L 9.8125 0 
z
" id="DejaVuSans-68"/>
     <path d="M 45.40625 27.984375 
Q 45.40625 37.75 41.375 43.109375 
Q 37.359375 48.484375 30.078125 48.484375 
Q 22.859375 48.484375 18.828125 43.109375 
Q 14.796875 37.75 14.796875 27.984375 
Q 14.796875 18.265625 18.828125 12.890625 
Q 22.859375 7.515625 30.078125 7.515625 
Q 37.359375 7.515625 41.375 12.890625 
Q 45.40625 18.265625 45.40625 27.984375 
z
M 54.390625 6.78125 
Q 54.390625 -7.171875 48.1875 -13.984375 
Q 42 -20.796875 29.203125 -20.796875 
Q 24.46875 -20.796875 20.265625 -20.09375 
Q 16.0625 -19.390625 12.109375 -17.921875 
L 12.109375 -9.1875 
Q 16.0625 -11.328125 19.921875 -12.34375 
Q 23.78125 -13.375 27.78125 -13.375 
Q 36.625 -13.375 41.015625 -8.765625 
Q 45.40625 -4.15625 45.40625 5.171875 
L 45.40625 9.625 
Q 42.625 4.78125 38.28125 2.390625 
Q 33.9375 0 27.875 0 
Q 17.828125 0 11.671875 7.65625 
Q 5.515625 15.328125 5.515625 27.984375 
Q 5.515625 40.671875 11.671875 48.328125 
Q 17.828125 56 27.875 56 
Q 33.9375 56 38.28125 53.609375 
Q 42.625 51.21875 45.40625 46.390625 
L 45.40625 54.6875 
L 54.390625 54.6875 
z
" id="DejaVuSans-103"/>
     <path d="M 34.28125 27.484375 
Q 23.390625 27.484375 19.1875 25 
Q 14.984375 22.515625 14.984375 16.5 
Q 14.984375 11.71875 18.140625 8.90625 
Q 21.296875 6.109375 26.703125 6.109375 
Q 34.1875 6.109375 38.703125 11.40625 
Q 43.21875 16.703125 43.21875 25.484375 
L 43.21875 27.484375 
z
M 52.203125 31.203125 
L 52.203125 0 
L 43.21875 0 
L 43.21875 8.296875 
Q 40.140625 3.328125 35.546875 0.953125 
Q 30.953125 -1.421875 24.3125 -1.421875 
Q 15.921875 -1.421875 10.953125 3.296875 
Q 6 8.015625 6 15.921875 
Q 6 25.140625 12.171875 29.828125 
Q 18.359375 34.515625 30.609375 34.515625 
L 43.21875 34.515625 
L 43.21875 35.40625 
Q 43.21875 41.609375 39.140625 45 
Q 35.0625 48.390625 27.6875 48.390625 
Q 23 48.390625 18.546875 47.265625 
Q 14.109375 46.140625 10.015625 43.890625 
L 10.015625 52.203125 
Q 14.9375 54.109375 19.578125 55.046875 
Q 24.21875 56 28.609375 56 
Q 40.484375 56 46.34375 49.84375 
Q 52.203125 43.703125 52.203125 31.203125 
z
" id="DejaVuSans-97"/>
     <path d="M 9.421875 54.6875 
L 18.40625 54.6875 
L 18.40625 0 
L 9.421875 0 
z
M 9.421875 75.984375 
L 18.40625 75.984375 
L 18.40625 64.59375 
L 9.421875 64.59375 
z
" id="DejaVuSans-105"/>
     <path d="M 10.6875 12.40625 
L 21 12.40625 
L 21 0 
L 10.6875 0 
z
" id="DejaVuSans-46"/>
    </defs>
    <g transform="translate(55.550625 35.472)scale(0.12 -0.12)">
     <use xlink:href="#DejaVuSans-40"/>
     <use x="39.013672" xlink:href="#DejaVuSans-51"/>
     <use x="102.636719" xlink:href="#DejaVuSans-48"/>
     <use x="166.259766" xlink:href="#DejaVuSans-41"/>
     <use x="205.273438" xlink:href="#DejaVuSans-32"/>
     <use x="237.060547" xlink:href="#DejaVuSans-83"/>
     <use x="300.537109" xlink:href="#DejaVuSans-117"/>
     <use x="363.916016" xlink:href="#DejaVuSans-98"/>
     <use x="427.392578" xlink:href="#DejaVuSans-106"/>
     <use x="455.175781" xlink:href="#DejaVuSans-101"/>
     <use x="516.699219" xlink:href="#DejaVuSans-99"/>
     <use x="571.679688" xlink:href="#DejaVuSans-116"/>
     <use x="610.888672" xlink:href="#DejaVuSans-58"/>
     <use x="644.580078" xlink:href="#DejaVuSans-32"/>
     <use x="676.367188" xlink:href="#DejaVuSans-115"/>
     <use x="728.466797" xlink:href="#DejaVuSans-51"/>
     <use x="792.089844" xlink:href="#DejaVuSans-44"/>
     <use x="823.876953" xlink:href="#DejaVuSans-32"/>
     <use x="855.664062" xlink:href="#DejaVuSans-75"/>
     <use x="921.240234" xlink:href="#DejaVuSans-110"/>
     <use x="984.619141" xlink:href="#DejaVuSans-111"/>
     <use x="1045.800781" xlink:href="#DejaVuSans-119"/>
     <use x="1127.587891" xlink:href="#DejaVuSans-110"/>
     <use x="1190.966797" xlink:href="#DejaVuSans-32"/>
     <use x="1222.753906" xlink:href="#DejaVuSans-61"/>
     <use x="1306.542969" xlink:href="#DejaVuSans-32"/>
     <use x="1338.330078" xlink:href="#DejaVuSans-84"/>
     <use x="1399.195312" xlink:href="#DejaVuSans-114"/>
     <use x="1440.308594" xlink:href="#DejaVuSans-117"/>
     <use x="1503.6875" xlink:href="#DejaVuSans-101"/>
     <use x="1565.210938" xlink:href="#DejaVuSans-44"/>
     <use x="1596.998047" xlink:href="#DejaVuSans-32"/>
     <use x="1628.785156" xlink:href="#DejaVuSans-68"/>
     <use x="1705.787109" xlink:href="#DejaVuSans-101"/>
     <use x="1767.310547" xlink:href="#DejaVuSans-103"/>
     <use x="1830.787109" xlink:href="#DejaVuSans-114"/>
     <use x="1871.869141" xlink:href="#DejaVuSans-101"/>
     <use x="1933.392578" xlink:href="#DejaVuSans-101"/>
     <use x="1994.916016" xlink:href="#DejaVuSans-32"/>
     <use x="2026.703125" xlink:href="#DejaVuSans-61"/>
     <use x="2110.492188" xlink:href="#DejaVuSans-32"/>
     <use x="2142.279297" xlink:href="#DejaVuSans-50"/>
     <use x="2205.902344" xlink:href="#DejaVuSans-44"/>
     <use x="2237.689453" xlink:href="#DejaVuSans-32"/>
     <use x="2269.476562" xlink:href="#DejaVuSans-68"/>
     <use x="2346.478516" xlink:href="#DejaVuSans-117"/>
     <use x="2409.857422" xlink:href="#DejaVuSans-114"/>
     <use x="2450.970703" xlink:href="#DejaVuSans-97"/>
     <use x="2512.25" xlink:href="#DejaVuSans-116"/>
     <use x="2551.458984" xlink:href="#DejaVuSans-105"/>
     <use x="2579.242188" xlink:href="#DejaVuSans-111"/>
     <use x="2640.423828" xlink:href="#DejaVuSans-110"/>
     <use x="2703.802734" xlink:href="#DejaVuSans-32"/>
     <use x="2735.589844" xlink:href="#DejaVuSans-61"/>
     <use x="2819.378906" xlink:href="#DejaVuSans-32"/>
     <use x="2851.166016" xlink:href="#DejaVuSans-48"/>
     <use x="2914.789062" xlink:href="#DejaVuSans-46"/>
     <use x="2946.576172" xlink:href="#DejaVuSans-49"/>
    </g>
   </g>
  </g>
 </g>
 <defs>
  <clipPath id="p3364f5f415">
   <rect height="266.112" width="357.12" x="57.6" y="41.472"/>
  </clipPath>
 </defs>
</svg>
