<?xml version="1.0" encoding="utf-8" standalone="no"?>
<!DOCTYPE svg PUBLIC "-//W3C//DTD SVG 1.1//EN"
  "http://www.w3.org/Graphics/SVG/1.1/DTD/svg11.dtd">
<!-- Created with matplotlib (https://matplotlib.org/) -->
<svg height="345.6pt" version="1.1" viewBox="0 0 460.8 345.6" width="460.8pt" xmlns="http://www.w3.org/2000/svg" xmlns:xlink="http://www.w3.org/1999/xlink">
 <defs>
  <style type="text/css">
*{stroke-linecap:butt;stroke-linejoin:round;}
  </style>
 </defs>
 <g id="figure_1">
  <g id="patch_1">
   <path d="M 0 345.6 
L 460.8 345.6 
L 460.8 0 
L 0 0 
z
" style="fill:#ffffff;"/>
  </g>
  <g id="axes_1">
   <g id="patch_2">
    <path d="M 57.6 307.584 
L 414.72 307.584 
L 414.72 41.472 
L 57.6 41.472 
z
" style="fill:#ffffff;"/>
   </g>
   <g id="line2d_1">
    <path clip-path="url(#p1115c8fb46)" d="M 78.104111 53.835223 
L 78.456996 53.835223 
L 78.813557 53.701611 
L 79.346561 53.701611 
L 79.52668 53.835223 
L 78.637115 53.568 
L 78.456996 53.701611 
L 78.637115 54.100059 
L 78.104111 54.364896 
L 77.390988 54.364896 
L 77.390988 54.364896 
L 77.390988 54.632119 
L 77.390988 54.498507 
L 77.923992 53.966448 
L 77.923992 54.233671 
L 77.214545 54.364896 
L 77.571107 54.100059 
L 77.034427 53.568 
L 77.034427 53.835223 
L 77.571107 54.364896 
L 78.104111 54.632119 
L 77.923992 54.632119 
L 76.681542 54.763344 
L 77.034427 54.763344 
L 77.214545 54.896955 
L 76.681542 55.295404 
L 76.501423 55.030567 
L 76.501423 55.825077 
L 76.681542 56.0923 
L 77.034427 55.825077 
L 77.034427 55.295404 
L 76.681542 55.295404 
L 76.681542 55.693852 
L 76.857984 55.825077 
L 76.681542 55.825077 
L 75.611858 56.223525 
L 77.034427 56.223525 
L 77.214545 56.357136 
L 76.857984 56.223525 
L 76.501423 56.0923 
L 76.501423 55.958688 
L 76.144862 55.958688 
L 75.968419 56.0923 
L 75.611858 56.621973 
L 75.611858 56.889196 
L 75.611858 56.889196 
L 75.968419 56.755584 
L 76.32498 56.755584 
L 76.32498 56.755584 
L 76.144862 56.621973 
L 75.255296 57.154032 
L 75.968419 56.889196 
L 75.791976 57.020421 
L 75.255296 57.55248 
L 75.255296 57.418869 
L 75.435415 57.287644 
L 74.902411 57.55248 
L 74.902411 57.418869 
L 75.255296 57.287644 
L 75.255296 57.287644 
L 75.255296 58.215765 
L 74.902411 58.082154 
L 74.365731 57.686092 
L 74.54585 57.418869 
L 75.078854 57.418869 
L 75.611858 57.686092 
L 75.791976 57.950929 
L 76.144862 57.817317 
L 76.144862 57.686092 
L 75.968419 57.418869 
L 75.611858 57.418869 
L 75.078854 58.215765 
L 75.078854 58.480602 
L 75.255296 58.614213 
L 75.968419 58.215765 
L 75.968419 57.817317 
L 75.255296 57.686092 
L 75.791976 57.418869 
L 75.968419 57.55248 
L 75.968419 57.950929 
L 75.791976 58.082154 
L 75.791976 58.082154 
L 75.611858 57.817317 
L 75.611858 57.686092 
L 75.968419 58.082154 
L 75.791976 58.349377 
L 75.968419 58.215765 
L 76.32498 57.817317 
L 76.32498 57.418869 
L 76.144862 57.418869 
L 75.791976 57.287644 
L 75.435415 57.020421 
L 75.611858 56.889196 
L 75.791976 57.154032 
L 75.791976 57.55248 
L 75.435415 58.082154 
L 75.791976 57.950929 
L 75.791976 57.55248 
L 75.435415 57.020421 
L 75.078854 57.020421 
L 75.255296 57.55248 
L 75.611858 58.082154 
L 75.791976 57.817317 
L 75.791976 57.55248 
L 74.902411 57.020421 
L 74.722292 57.418869 
L 75.078854 57.55248 
L 75.791976 57.287644 
L 76.144862 57.55248 
L 75.791976 57.950929 
L 75.435415 58.082154 
L 75.255296 57.817317 
L 75.255296 57.287644 
L 74.54585 57.287644 
L 75.255296 57.020421 
L 75.611858 57.154032 
L 75.611858 57.418869 
L 75.791976 57.55248 
L 75.791976 57.287644 
L 75.968419 56.889196 
L 75.791976 57.154032 
L 75.435415 57.287644 
L 75.611858 57.418869 
L 75.968419 57.418869 
L 76.681542 57.686092 
L 76.501423 57.950929 
L 75.968419 58.082154 
L 75.611858 57.686092 
L 75.611858 57.950929 
L 75.611858 58.082154 
L 75.968419 57.817317 
L 76.144862 57.950929 
L 75.968419 57.817317 
L 76.32498 57.020421 
L 76.501423 57.287644 
L 76.501423 57.817317 
L 76.144862 58.082154 
L 75.968419 57.817317 
L 76.144862 57.686092 
L 76.501423 57.817317 
L 76.681542 57.817317 
L 76.501423 57.950929 
L 75.255296 57.950929 
L 76.144862 58.349377 
L 76.32498 58.614213 
L 75.791976 58.614213 
L 75.078854 58.349377 
L 74.54585 58.349377 
L 74.54585 58.480602 
L 74.722292 58.480602 
L 75.255296 58.349377 
L 75.611858 58.480602 
L 75.611858 58.614213 
L 75.255296 58.87905 
L 75.435415 59.012661 
L 75.255296 59.277498 
L 74.54585 59.544721 
L 74.902411 59.675946 
L 74.902411 59.277498 
L 75.078854 59.012661 
L 74.902411 58.87905 
L 74.902411 59.012661 
L 75.078854 59.277498 
L 75.968419 59.411109 
L 75.968419 59.411109 
L 75.611858 59.146273 
L 74.902411 59.146273 
L 74.365731 59.277498 
L 74.365731 59.544721 
L 74.54585 59.943169 
L 74.722292 59.943169 
L 74.902411 59.675946 
L 74.902411 59.675946 
L 74.722292 59.675946 
L 74.189289 59.277498 
L 74.189289 59.277498 
L 74.012846 59.411109 
L 73.832727 59.809557 
L 74.365731 60.074394 
L 75.255296 60.208006 
L 76.32498 59.943169 
L 77.747549 59.809557 
L 79.346561 59.943169 
L 81.30581 60.472842 
L 96.071858 63.128367 
L 100.516008 63.925263 
L 104.43083 64.855771 
L 119.729881 69.236313 
L 127.202964 72.02545 
L 135.561937 75.742708 
L 139.653202 77.202889 
L 143.568024 78.398233 
L 150.860988 81.452206 
L 154.419249 83.177223 
L 158.330395 84.63979 
L 162.601779 85.832748 
L 166.869486 86.763256 
L 170.427747 88.223437 
L 174.166126 89.95084 
L 178.433834 91.675858 
L 186.259802 94.066546 
L 190.174625 95.791564 
L 204.227549 103.359691 
L 207.962253 105.485542 
L 211.167628 107.609008 
L 214.012767 109.732474 
L 216.501344 111.989551 
L 218.993597 114.51385 
L 221.129289 117.035764 
L 224.863992 122.480425 
L 232.156957 132.704077 
L 236.248221 137.881516 
L 238.027352 140.537041 
L 239.273478 143.326177 
L 240.163043 145.848091 
L 241.40917 147.973943 
L 242.831739 149.832572 
L 243.541186 152.220874 
L 243.541186 154.745174 
L 243.721304 157.002251 
L 244.07419 159.259328 
L 243.897747 160.984345 
L 243.1883 163.907093 
L 242.298735 165.498499 
L 240.87249 167.092291 
L 239.982925 168.686084 
L 239.449921 170.279876 
L 238.740474 171.606445 
L 237.850909 172.670564 
L 236.248221 174.130745 
L 235.538775 175.192478 
L 231.623953 179.706632 
L 229.844822 181.698872 
L 227.70913 183.691112 
L 227.176126 184.88407 
L 226.999684 186.213026 
L 226.643123 187.274759 
L 225.396996 188.470103 
L 224.687549 189.665447 
L 223.797984 192.585809 
L 222.371739 194.444438 
L 221.482174 195.374945 
L 220.772727 195.904619 
L 220.592609 196.436678 
L 220.059605 197.099963 
L 219.17004 197.632022 
L 218.280474 198.03047 
L 217.74747 198.560144 
L 216.148458 201.34928 
L 215.791897 201.34928 
L 215.258893 201.614117 
L 214.545771 202.544624 
L 214.189209 202.943072 
L 213.832648 203.207909 
L 213.299644 204.138416 
L 213.123202 204.536864 
L 212.410079 205.33376 
L 212.057194 205.464986 
L 211.520514 205.464986 
L 211.344071 205.863434 
L 211.344071 207.058778 
L 210.98751 207.323615 
L 210.630949 207.192389 
L 209.741383 207.590837 
L 209.564941 207.457226 
L 208.851818 207.855674 
L 209.031937 207.989285 
L 208.851818 208.518959 
L 208.851818 208.783796 
L 208.675375 208.783796 
L 208.142372 208.65257 
L 208.142372 208.254122 
L 208.142372 208.385348 
L 207.78581 208.917407 
L 207.962253 208.917407 
L 208.142372 208.917407 
L 208.142372 208.917407 
L 207.429249 208.254122 
L 207.609368 208.254122 
L 207.252806 208.385348 
L 207.609368 208.120511 
L 207.252806 207.323615 
L 207.252806 207.323615 
L 207.252806 207.590837 
L 207.252806 207.323615 
L 207.072688 207.058778 
L 206.539684 207.058778 
L 206.00668 207.192389 
L 206.00668 207.058778 
L 206.363241 206.793941 
L 207.072688 206.66033 
L 207.252806 206.793941 
L 207.072688 206.526719 
L 206.896245 206.128271 
L 206.539684 205.863434 
L 206.719802 205.863434 
L 207.429249 205.598597 
L 207.252806 205.33376 
L 207.962253 205.33376 
L 207.962253 205.598597 
L 207.609368 206.395493 
L 208.498933 208.254122 
L 208.498933 210.511199 
L 209.208379 211.706543 
L 210.278063 212.768276 
L 210.98751 213.696398 
L 211.167628 214.891742 
L 211.877075 216.220697 
L 213.123202 217.547267 
L 214.722213 218.611386 
L 216.501344 219.539507 
L 218.637036 220.336403 
L 224.330988 222.991928 
L 228.955257 225.115394 
L 238.740474 229.629548 
L 241.229051 230.693667 
L 249.768142 235.074209 
L 252.260395 237.066449 
L 254.039526 238.791467 
L 254.57253 239.855586 
L 254.748972 241.446992 
L 254.57253 242.775948 
L 254.039526 243.572844 
L 253.14996 244.102517 
L 252.260395 244.500965 
L 251.014269 245.696309 
L 249.768142 246.493205 
L 247.279565 248.220609 
L 246.39 248.750282 
L 245.85332 249.413567 
L 245.500435 250.079238 
L 244.963755 250.477686 
L 244.430751 250.477686 
L 244.07419 250.742523 
L 243.897747 251.405807 
L 243.541186 251.937867 
L 243.1883 252.9996 
L 243.1883 253.398048 
L 242.831739 253.927721 
L 241.762055 254.99184 
L 241.762055 255.390288 
L 241.40917 255.788736 
L 240.519605 256.318409 
L 240.519605 256.583246 
L 240.339486 257.115305 
L 239.806482 257.647365 
L 239.449921 257.77859 
L 239.449921 257.647365 
L 239.273478 257.513754 
L 238.916917 257.77859 
L 238.740474 258.177038 
L 238.740474 258.575486 
L 238.560356 258.842709 
L 237.850909 258.973934 
L 237.317905 259.238771 
L 237.137787 259.770831 
L 236.961344 259.505994 
L 236.604783 259.372382 
L 236.42834 259.637219 
L 236.781225 260.035667 
L 236.961344 259.904442 
L 236.961344 260.035667 
L 236.604783 260.701338 
L 236.42834 260.701338 
L 236.071779 260.966175 
L 235.182213 260.966175 
L 234.825652 260.832563 
L 234.825652 260.701338 
L 235.182213 260.701338 
L 235.538775 261.099786 
L 235.715217 261.498234 
L 235.89166 261.498234 
L 235.538775 261.498234 
L 235.002095 261.629459 
L 234.469091 261.894296 
L 233.936087 262.027907 
L 233.222964 262.426356 
L 233.403083 262.559967 
L 233.579526 262.691192 
L 234.11253 262.426356 
L 234.11253 262.292744 
L 234.11253 262.426356 
L 233.403083 262.691192 
L 233.403083 262.559967 
L 233.759644 262.161519 
L 234.292648 262.292744 
L 234.649209 262.691192 
L 234.292648 262.958415 
L 233.403083 263.08964 
L 233.403083 263.08964 
L 232.870079 264.020148 
L 232.68996 264.284984 
L 232.870079 264.153759 
L 233.046522 264.153759 
L 232.68996 264.418596 
L 232.333399 264.418596 
L 232.333399 264.418596 
L 232.513518 264.153759 
L 232.870079 264.020148 
L 232.870079 263.6217 
L 231.980514 264.284984 
L 232.156957 263.886536 
L 231.980514 263.223252 
L 232.156957 263.6217 
L 232.513518 263.886536 
L 232.513518 263.755311 
L 232.333399 263.488088 
L 231.980514 263.356863 
L 231.623953 263.488088 
L 231.443834 263.755311 
L 230.91083 264.020148 
L 231.623953 263.488088 
L 231.443834 263.755311 
L 231.267391 263.6217 
L 231.980514 263.356863 
L 231.623953 263.356863 
L 231.090949 263.08964 
L 229.668379 262.824804 
L 228.422253 262.824804 
L 226.643123 262.559967 
L 223.441423 261.763071 
L 221.482174 261.231011 
L 211.167628 259.904442 
L 208.142372 259.770831 
L 205.117115 259.770831 
L 202.271976 259.637219 
L 199.603281 259.372382 
L 191.777312 258.842709 
L 186.259802 257.77859 
L 183.238221 257.513754 
L 180.389407 257.380142 
L 177.367826 257.115305 
L 174.519012 256.716857 
L 169.005178 255.655125 
L 165.270474 255.521513 
L 156.374822 254.593392 
L 149.971423 254.593392 
L 146.769723 254.326169 
L 145.167036 254.061332 
L 144.457589 254.061332 
L 144.27747 254.194944 
L 144.27747 254.194944 
L 144.81415 254.194944 
L 145.70004 254.061332 
L 146.589605 253.796496 
L 148.548854 253.531659 
L 149.081858 253.662884 
L 149.2583 253.927721 
L 149.614862 254.194944 
L 151.217549 254.194944 
L 151.217549 254.061332 
L 151.393992 254.061332 
L 151.574111 254.326169 
L 151.574111 254.326169 
L 151.574111 253.796496 
L 151.217549 253.531659 
L 150.860988 253.531659 
L 151.037431 253.531659 
L 151.393992 253.927721 
L 151.926996 253.927721 
L 151.926996 253.927721 
L 151.037431 254.326169 
L 151.217549 254.194944 
L 151.217549 254.061332 
L 151.217549 254.061332 
L 150.860988 253.796496 
L 150.860988 253.398048 
L 151.037431 253.398048 
L 151.217549 254.061332 
L 151.217549 254.194944 
L 151.393992 254.326169 
L 151.750553 254.194944 
L 151.574111 254.326169 
L 151.574111 254.061332 
L 151.926996 253.398048 
L 152.107115 253.264436 
L 151.926996 253.531659 
L 151.750553 253.796496 
L 151.393992 253.796496 
L 151.393992 253.531659 
L 151.393992 253.796496 
L 151.217549 253.662884 
L 151.574111 253.398048 
L 151.750553 253.531659 
L 151.750553 253.927721 
L 151.574111 254.061332 
L 151.393992 253.796496 
L 152.107115 253.264436 
L 151.750553 253.133211 
L 151.574111 253.264436 
L 151.750553 253.398048 
L 152.640119 253.662884 
L 152.107115 253.927721 
L 152.107115 253.927721 
L 152.640119 253.264436 
L 152.46 253.264436 
L 152.283557 253.133211 
L 152.283557 253.264436 
L 152.99668 254.061332 
L 153.173123 254.061332 
L 152.816561 253.927721 
L 152.107115 253.398048 
L 152.107115 253.133211 
L 152.283557 252.9996 
L 152.283557 253.133211 
L 152.283557 253.264436 
L 152.640119 253.662884 
L 152.816561 254.061332 
L 152.99668 254.061332 
L 152.640119 253.398048 
L 152.46 253.398048 
L 152.816561 253.398048 
L 152.99668 253.264436 
L 152.816561 252.9996 
L 153.349565 252.601152 
L 153.886245 252.734763 
L 154.062688 253.398048 
L 153.886245 254.061332 
L 153.706126 254.061332 
L 153.529684 253.662884 
L 153.529684 253.264436 
L 153.349565 253.133211 
L 152.99668 253.531659 
L 153.173123 253.531659 
L 153.349565 253.264436 
L 153.706126 252.9996 
L 154.062688 252.9996 
L 154.062688 252.9996 
L 153.706126 253.264436 
L 153.706126 253.264436 
L 153.886245 253.662884 
L 154.23913 254.061332 
L 154.595692 254.061332 
L 154.595692 253.927721 
L 154.23913 253.927721 
L 154.062688 254.194944 
L 153.706126 254.326169 
L 153.349565 254.194944 
L 153.349565 254.061332 
L 153.706126 253.796496 
L 154.062688 253.796496 
L 154.952253 254.061332 
L 154.952253 253.927721 
L 154.595692 253.531659 
L 154.062688 253.398048 
L 153.706126 253.796496 
L 154.595692 253.531659 
L 154.77581 253.662884 
L 154.77581 253.927721 
L 154.595692 254.194944 
L 154.595692 254.194944 
L 154.595692 253.796496 
L 154.419249 253.662884 
L 154.77581 253.133211 
L 155.128696 253.133211 
L 154.595692 253.398048 
L 154.419249 253.398048 
L 154.419249 253.264436 
L 154.77581 253.133211 
L 155.308814 253.133211 
L 156.198379 252.9996 
L 156.198379 253.264436 
L 155.841818 253.531659 
L 155.485257 253.531659 
L 155.665375 253.531659 
L 156.018261 253.927721 
L 155.485257 253.398048 
L 155.665375 253.133211 
L 155.665375 253.133211 
L 155.308814 253.398048 
L 155.308814 253.662884 
L 155.485257 253.796496 
L 155.841818 253.662884 
L 156.018261 253.796496 
L 155.665375 254.194944 
L 155.128696 253.398048 
L 155.485257 253.133211 
L 156.018261 253.531659 
L 156.018261 253.927721 
L 155.665375 254.194944 
L 155.841818 254.194944 
L 156.374822 254.194944 
L 156.374822 254.061332 
L 155.485257 253.531659 
L 155.485257 253.662884 
L 155.665375 254.326169 
L 154.77581 254.593392 
L 154.77581 254.45978 
L 154.77581 254.45978 
L 154.952253 254.194944 
L 154.419249 254.45978 
L 154.419249 254.45978 
L 155.308814 254.45978 
L 154.77581 254.99184 
L 154.952253 255.256677 
L 155.308814 254.99184 
L 155.308814 254.724617 
L 155.128696 254.724617 
L 156.198379 255.390288 
L 156.374822 255.390288 
L 156.018261 255.390288 
L 155.841818 255.256677 
L 155.841818 255.256677 
L 156.554941 255.256677 
L 155.841818 254.724617 
L 156.198379 254.45978 
L 156.731383 254.45978 
L 157.797391 255.256677 
L 158.510514 255.521513 
L 160.822648 255.256677 
L 162.245217 254.858229 
L 163.667787 254.858229 
L 165.090356 254.99184 
L 166.869486 254.858229 
L 168.472174 254.99184 
L 169.894743 255.521513 
L 171.673874 256.053573 
L 173.809565 256.452021 
L 176.1217 256.716857 
L 178.433834 256.850469 
L 182.348656 256.583246 
L 184.304229 256.716857 
L 194.622451 258.045813 
L 202.80498 259.238771 
L 207.78581 260.30289 
L 219.526601 261.498234 
L 221.305731 262.027907 
L 223.084862 262.958415 
L 224.330988 263.755311 
L 225.220553 264.153759 
L 225.93 264.153759 
L 226.463004 264.284984 
L 227.352569 264.817044 
L 226.999684 264.948269 
L 226.463004 265.480329 
L 225.573439 266.143613 
L 225.040435 266.277225 
L 224.863992 266.012388 
L 222.908419 266.012388 
L 222.371739 266.277225 
L 221.482174 266.277225 
L 220.94917 266.809284 
L 220.94917 266.542061 
L 220.416166 266.410836 
L 220.94917 266.940509 
L 220.94917 267.074121 
L 220.592609 267.338958 
L 220.239723 268.135854 
L 219.883162 268.269465 
L 219.526601 268.135854 
L 219.526601 268.002242 
L 219.703043 268.002242 
L 219.883162 268.135854 
L 219.703043 268.269465 
L 218.637036 268.269465 
L 218.460593 267.871017 
L 217.74747 267.871017 
L 217.74747 267.871017 
L 217.927589 268.269465 
L 218.280474 268.667913 
L 218.104032 268.667913 
L 218.104032 268.269465 
L 217.571028 267.737406 
L 217.390909 267.871017 
L 217.571028 268.269465 
L 217.390909 268.002242 
L 216.501344 268.40069 
L 216.324901 268.667913 
L 216.148458 269.066361 
L 216.681462 269.464809 
L 216.324901 269.464809 
L 215.611779 269.197586 
L 215.96834 268.799138 
L 216.148458 268.799138 
L 216.324901 269.066361 
L 215.791897 269.331198 
L 215.078775 269.464809 
L 215.435336 269.464809 
L 215.435336 268.93275 
L 215.611779 269.066361 
L 215.435336 269.729646 
L 215.258893 269.596035 
L 214.902332 269.596035 
L 214.722213 269.729646 
L 214.722213 270.128094 
L 214.722213 270.128094 
L 214.369328 269.331198 
L 214.369328 270.392931 
L 214.369328 270.259319 
L 214.189209 270.526542 
L 214.012767 270.392931 
L 213.832648 269.860871 
L 214.545771 269.860871 
L 214.545771 269.860871 
L 214.722213 270.128094 
L 214.722213 270.128094 
L 214.545771 270.128094 
L 213.299644 271.189827 
L 213.479763 270.92499 
L 213.479763 270.657767 
L 213.123202 270.259319 
L 212.76664 270.259319 
L 212.76664 270.392931 
L 213.656206 270.657767 
L 214.722213 270.657767 
L 219.350158 271.454663 
L 221.662292 271.454663 
L 228.598696 271.986723 
L 233.222964 272.120334 
L 238.916917 272.120334 
L 244.963755 272.25156 
L 251.903834 272.650008 
L 267.022767 274.110188 
L 289.971344 275.305533 
L 297.444427 275.837592 
L 304.560949 276.500877 
L 311.497352 277.032936 
L 318.613874 277.297773 
L 326.083281 277.696221 
L 332.843241 278.225894 
L 345.473597 279.55485 
L 360.772648 280.351746 
L 365.753478 281.015031 
L 376.0717 281.678315 
L 380.162964 281.811927 
L 384.077787 281.811927 
L 387.988933 281.945538 
L 393.682885 282.742434 
L 395.462016 283.140882 
L 397.77415 283.272108 
L 398.307154 283.536944 
L 398.487273 283.935392 
L 398.307154 284.333841 
L 397.061028 285.264348 
L 395.99502 285.927633 
L 393.682885 286.85814 
L 392.969763 286.989366 
L 392.080198 286.724529 
L 390.837747 286.724529 
L 389.768063 286.989366 
L 387.988933 288.318321 
L 387.636047 288.451932 
L 386.922925 288.451932 
L 384.787233 288.981606 
L 384.787233 288.981606 
L 384.967352 289.246443 
L 384.967352 289.778502 
L 384.434348 290.17695 
L 383.897668 290.17695 
L 383.188221 290.043339 
L 382.655217 289.778502 
L 382.298656 290.310561 
L 382.475099 290.17695 
L 382.298656 290.17695 
L 381.765652 290.840235 
L 380.876087 291.107457 
L 380.519526 291.107457 
L 379.62996 291.50352 
L 379.096957 291.770742 
L 378.560277 291.770742 
L 378.207391 291.50352 
L 378.207391 291.637131 
L 377.674387 291.901968 
L 377.317826 292.035579 
L 377.317826 292.16919 
L 377.494269 292.16919 
L 377.317826 292.035579 
L 376.961265 292.300416 
L 376.248142 293.230923 
L 375.005692 293.49576 
L 374.64913 293.364534 
L 374.825573 292.966086 
L 375.538696 292.698864 
L 376.0717 292.832475 
L 375.538696 293.230923 
L 374.292569 293.894208 
L 374.64913 293.894208 
L 374.64913 293.49576 
L 374.116126 293.230923 
L 373.403004 293.230923 
L 373.226561 293.49576 
L 373.579447 293.49576 
L 373.759565 293.629371 
L 373.226561 293.762982 
L 373.226561 293.49576 
L 372.513439 293.230923 
L 371.623874 293.230923 
L 371.623874 293.364534 
L 371.980435 293.49576 
L 372.336996 293.762982 
L 372.156877 293.894208 
L 371.623874 293.894208 
L 371.447431 294.027819 
L 371.623874 293.894208 
L 371.267312 293.49576 
L 371.09087 293.629371 
L 371.267312 293.762982 
L 371.09087 294.027819 
L 370.377747 294.292656 
L 370.024862 294.027819 
L 370.024862 293.629371 
L 370.201304 293.49576 
L 369.844743 293.894208 
L 370.024862 294.292656 
L 370.557866 294.159045 
L 370.557866 294.027819 
L 369.311739 293.894208 
L 369.488182 293.894208 
L 369.488182 294.027819 
L 369.488182 293.762982 
L 368.955178 293.762982 
L 368.778735 293.894208 
L 368.422174 293.762982 
L 368.245731 293.49576 
L 368.065613 293.49576 
L 368.065613 293.762982 
L 368.065613 293.762982 
L 367.532609 294.426267 
L 367.532609 294.426267 
L 366.643043 294.691104 
L 366.11004 294.824715 
L 366.643043 294.691104 
L 366.819486 294.824715 
L 366.999605 294.691104 
L 366.819486 294.426267 
L 365.753478 294.691104 
L 364.68747 294.426267 
L 364.68747 294.557493 
L 365.753478 294.955941 
L 365.753478 295.089552 
L 365.044032 295.089552 
L 365.044032 294.955941 
L 364.863913 294.824715 
L 364.330909 294.824715 
L 363.797905 294.955941 
L 363.974348 295.089552 
L 364.330909 294.955941 
L 364.330909 294.824715 
L 364.154466 294.557493 
L 362.90834 294.557493 
L 362.728221 294.426267 
L 362.551779 294.691104 
L 362.90834 295.089552 
L 363.797905 294.824715 
L 363.441344 294.955941 
L 362.728221 295.354389 
L 362.018775 295.488 
L 362.018775 295.354389 
L 362.551779 294.955941 
L 362.551779 294.691104 
L 362.195217 294.557493 
L 361.838656 294.691104 
L 361.662213 294.955941 
L 361.662213 294.955941 
L 361.838656 294.955941 
L 362.195217 294.824715 
L 362.551779 294.824715 
L 361.838656 295.354389 
L 361.838656 295.089552 
L 361.838656 295.089552 
L 361.662213 295.223163 
L 361.305652 294.824715 
L 361.129209 294.824715 
L 361.129209 294.955941 
L 361.129209 294.557493 
L 359.883083 294.955941 
L 360.416087 294.824715 
L 361.485771 295.089552 
L 361.305652 295.089552 
L 361.129209 294.824715 
L 360.596206 294.557493 
L 360.596206 294.557493 
L 360.239644 294.691104 
L 359.526522 294.557493 
L 359.526522 294.426267 
L 360.059526 294.426267 
L 360.239644 294.557493 
L 360.059526 294.691104 
L 360.059526 294.691104 
L 360.239644 294.824715 
L 359.883083 295.223163 
L 359.70664 295.223163 
L 359.350079 294.426267 
L 359.70664 295.223163 
L 360.059526 294.955941 
L 359.70664 294.824715 
L 359.350079 294.824715 
L 359.70664 294.691104 
L 359.883083 294.824715 
L 359.526522 294.824715 
L 358.817075 294.557493 
L 359.173636 294.824715 
L 359.526522 295.089552 
L 359.70664 294.824715 
L 359.70664 294.824715 
L 359.70664 295.089552 
L 359.350079 295.354389 
L 358.993518 295.354389 
L 358.817075 295.223163 
L 358.993518 295.223163 
L 359.350079 295.089552 
L 359.350079 294.824715 
L 359.70664 294.824715 
L 359.70664 294.824715 
L 359.350079 294.557493 
L 359.526522 294.824715 
L 359.350079 294.955941 
L 358.636957 294.955941 
L 358.460514 294.824715 
L 358.817075 294.955941 
L 359.350079 295.223163 
L 359.350079 295.223163 
L 358.636957 294.557493 
L 358.284071 294.557493 
L 358.460514 294.557493 
L 358.993518 294.691104 
L 358.993518 294.557493 
L 358.636957 294.292656 
L 358.460514 294.426267 
L 359.173636 293.894208 
L 359.526522 293.894208 
L 359.350079 294.027819 
L 359.350079 294.292656 
L 359.350079 294.159045 
L 358.636957 293.894208 
L 358.636957 293.762982 
L 358.993518 293.629371 
L 359.350079 293.364534 
L 359.883083 293.230923 
L 360.596206 293.230923 
L 360.772648 293.097312 
L 360.416087 292.966086 
L 359.883083 293.230923 
L 359.883083 293.097312 
L 359.883083 292.698864 
L 360.059526 292.434027 
L 360.416087 292.434027 
L 360.772648 292.16919 
L 360.772648 291.372294 
L 360.416087 291.372294 
L 360.239644 291.770742 
L 360.596206 292.16919 
L 360.772648 292.16919 
L 360.772648 291.637131 
L 360.416087 291.238683 
L 360.416087 290.973846 
L 361.129209 290.973846 
L 360.772648 290.575398 
L 360.772648 289.513665 
L 360.772648 289.513665 
L 360.596206 289.778502 
L 360.596206 289.644891 
L 360.596206 289.246443 
L 360.949091 289.246443 
L 361.129209 289.380054 
L 361.485771 289.380054 
L 361.485771 289.246443 
L 360.949091 288.583158 
L 360.596206 288.18471 
L 360.949091 287.919873 
L 362.018775 287.919873 
L 362.551779 288.053484 
L 362.375336 288.18471 
L 362.018775 287.919873 
L 361.662213 286.989366 
L 361.485771 286.989366 
L 361.129209 287.387814 
L 361.129209 287.256588 
L 361.838656 287.256588 
L 362.018775 286.989366 
L 361.662213 286.590918 
L 361.129209 286.326081 
L 361.485771 286.590918 
L 360.949091 286.459692 
L 360.949091 286.192469 
L 361.305652 286.061244 
L 361.662213 286.061244 
L 362.195217 285.927633 
L 362.195217 285.529185 
L 361.838656 284.8659 
L 361.662213 284.467452 
L 361.305652 284.467452 
L 361.305652 284.333841 
L 360.949091 284.333841 
L 360.239644 284.601063 
L 358.993518 284.467452 
L 354.72581 283.140882 
L 351.876996 282.742434 
L 344.584032 282.343986 
L 335.155375 281.279867 
L 329.817984 280.881419 
L 317.900751 280.218135 
L 304.204387 278.891565 
L 291.21747 277.032936 
L 277.697549 275.171921 
L 271.827154 274.377411 
L 265.956759 273.446904 
L 260.262806 272.25156 
L 254.392411 271.189827 
L 248.522016 270.259319 
L 243.008182 269.596035 
L 237.494348 268.534302 
L 226.643123 266.012388 
L 215.078775 263.223252 
L 209.564941 262.161519 
L 189.285059 256.850469 
L 184.127787 255.521513 
L 170.784308 252.865988 
L 167.406166 252.069092 
L 158.867075 249.413567 
L 154.595692 248.485446 
L 153.173123 247.822161 
L 152.99668 247.554938 
L 153.349565 247.15649 
L 160.646206 246.228369 
L 161.888656 246.359594 
L 165.270474 246.758042 
L 165.090356 246.891653 
L 164.73747 247.025265 
L 164.557352 247.290101 
L 163.491344 247.290101 
L 163.134783 247.554938 
L 164.024348 248.220609 
L 163.847905 248.750282 
L 163.314901 249.015119 
L 163.314901 248.883894 
L 163.134783 248.485446 
L 163.491344 248.485446 
L 163.667787 248.750282 
L 163.134783 249.413567 
L 163.134783 249.945627 
L 163.491344 250.079238 
L 163.491344 249.68079 
L 163.314901 249.68079 
L 163.667787 249.945627 
L 164.73747 250.079238 
L 164.557352 250.344075 
L 164.024348 250.608911 
L 164.024348 250.608911 
L 164.200791 250.742523 
L 164.024348 250.876134 
L 163.491344 250.608911 
L 163.667787 250.742523 
L 164.024348 251.272196 
L 164.024348 251.670644 
L 164.557352 251.937867 
L 164.913913 251.804255 
L 164.913913 251.539419 
L 164.913913 251.539419 
L 165.090356 251.539419 
L 164.73747 251.405807 
L 164.200791 251.670644 
L 164.200791 251.937867 
L 164.380909 252.069092 
L 164.557352 252.336315 
L 164.380909 252.601152 
L 164.73747 251.937867 
L 164.557352 251.937867 
L 164.380909 252.202703 
L 164.380909 252.46754 
L 164.913913 252.46754 
L 164.557352 252.9996 
L 164.200791 253.398048 
L 164.557352 253.264436 
L 164.913913 252.9996 
L 164.73747 252.734763 
L 164.913913 252.865988 
L 165.270474 252.9996 
L 165.803478 253.531659 
L 165.803478 253.264436 
L 165.979921 252.601152 
L 165.803478 252.9996 
L 165.803478 253.133211 
L 165.627036 253.398048 
L 165.803478 253.398048 
L 165.803478 253.133211 
L 165.446917 253.133211 
L 165.270474 253.398048 
L 165.446917 253.662884 
L 165.627036 253.662884 
L 165.627036 253.796496 
L 165.446917 253.927721 
L 165.270474 254.326169 
L 165.270474 254.858229 
L 165.446917 254.99184 
L 165.803478 254.99184 
L 165.803478 254.858229 
L 165.803478 254.858229 
L 165.627036 254.45978 
L 165.270474 254.061332 
L 164.913913 254.326169 
L 164.913913 254.858229 
L 165.803478 254.858229 
L 166.16004 255.123065 
L 165.627036 255.788736 
L 165.090356 255.919961 
L 164.557352 255.788736 
L 164.73747 255.390288 
L 165.446917 255.256677 
L 165.979921 255.521513 
L 166.16004 255.788736 
L 165.803478 256.318409 
L 165.803478 256.187184 
L 166.693043 255.919961 
L 166.693043 255.919961 
" style="fill:none;stroke:#1f77b4;stroke-linecap:square;stroke-width:1.5;"/>
   </g>
   <g id="matplotlib.axis_1">
    <g id="xtick_1">
     <g id="line2d_2">
      <defs>
       <path d="M 0 0 
L 0 3.5 
" id="meb8d1185c2" style="stroke:#000000;stroke-width:0.8;"/>
      </defs>
      <g>
       <use style="stroke:#000000;stroke-width:0.8;" x="87.426166" xlink:href="#meb8d1185c2" y="307.584"/>
      </g>
     </g>
     <g id="text_1">
      <!-- −600 -->
      <defs>
       <path d="M 10.59375 35.5 
L 73.1875 35.5 
L 73.1875 27.203125 
L 10.59375 27.203125 
z
" id="DejaVuSans-8722"/>
       <path d="M 33.015625 40.375 
Q 26.375 40.375 22.484375 35.828125 
Q 18.609375 31.296875 18.609375 23.390625 
Q 18.609375 15.53125 22.484375 10.953125 
Q 26.375 6.390625 33.015625 6.390625 
Q 39.65625 6.390625 43.53125 10.953125 
Q 47.40625 15.53125 47.40625 23.390625 
Q 47.40625 31.296875 43.53125 35.828125 
Q 39.65625 40.375 33.015625 40.375 
z
M 52.59375 71.296875 
L 52.59375 62.3125 
Q 48.875 64.0625 45.09375 64.984375 
Q 41.3125 65.921875 37.59375 65.921875 
Q 27.828125 65.921875 22.671875 59.328125 
Q 17.53125 52.734375 16.796875 39.40625 
Q 19.671875 43.65625 24.015625 45.921875 
Q 28.375 48.1875 33.59375 48.1875 
Q 44.578125 48.1875 50.953125 41.515625 
Q 57.328125 34.859375 57.328125 23.390625 
Q 57.328125 12.15625 50.6875 5.359375 
Q 44.046875 -1.421875 33.015625 -1.421875 
Q 20.359375 -1.421875 13.671875 8.265625 
Q 6.984375 17.96875 6.984375 36.375 
Q 6.984375 53.65625 15.1875 63.9375 
Q 23.390625 74.21875 37.203125 74.21875 
Q 40.921875 74.21875 44.703125 73.484375 
Q 48.484375 72.75 52.59375 71.296875 
z
" id="DejaVuSans-54"/>
       <path d="M 31.78125 66.40625 
Q 24.171875 66.40625 20.328125 58.90625 
Q 16.5 51.421875 16.5 36.375 
Q 16.5 21.390625 20.328125 13.890625 
Q 24.171875 6.390625 31.78125 6.390625 
Q 39.453125 6.390625 43.28125 13.890625 
Q 47.125 21.390625 47.125 36.375 
Q 47.125 51.421875 43.28125 58.90625 
Q 39.453125 66.40625 31.78125 66.40625 
z
M 31.78125 74.21875 
Q 44.046875 74.21875 50.515625 64.515625 
Q 56.984375 54.828125 56.984375 36.375 
Q 56.984375 17.96875 50.515625 8.265625 
Q 44.046875 -1.421875 31.78125 -1.421875 
Q 19.53125 -1.421875 13.0625 8.265625 
Q 6.59375 17.96875 6.59375 36.375 
Q 6.59375 54.828125 13.0625 64.515625 
Q 19.53125 74.21875 31.78125 74.21875 
z
" id="DejaVuSans-48"/>
      </defs>
      <g transform="translate(73.692572 322.182437)scale(0.1 -0.1)">
       <use xlink:href="#DejaVuSans-8722"/>
       <use x="83.789062" xlink:href="#DejaVuSans-54"/>
       <use x="147.412109" xlink:href="#DejaVuSans-48"/>
       <use x="211.035156" xlink:href="#DejaVuSans-48"/>
      </g>
     </g>
    </g>
    <g id="xtick_2">
     <g id="line2d_3">
      <g>
       <use style="stroke:#000000;stroke-width:0.8;" x="160.943953" xlink:href="#meb8d1185c2" y="307.584"/>
      </g>
     </g>
     <g id="text_2">
      <!-- −400 -->
      <defs>
       <path d="M 37.796875 64.3125 
L 12.890625 25.390625 
L 37.796875 25.390625 
z
M 35.203125 72.90625 
L 47.609375 72.90625 
L 47.609375 25.390625 
L 58.015625 25.390625 
L 58.015625 17.1875 
L 47.609375 17.1875 
L 47.609375 0 
L 37.796875 0 
L 37.796875 17.1875 
L 4.890625 17.1875 
L 4.890625 26.703125 
z
" id="DejaVuSans-52"/>
      </defs>
      <g transform="translate(147.210359 322.182437)scale(0.1 -0.1)">
       <use xlink:href="#DejaVuSans-8722"/>
       <use x="83.789062" xlink:href="#DejaVuSans-52"/>
       <use x="147.412109" xlink:href="#DejaVuSans-48"/>
       <use x="211.035156" xlink:href="#DejaVuSans-48"/>
      </g>
     </g>
    </g>
    <g id="xtick_3">
     <g id="line2d_4">
      <g>
       <use style="stroke:#000000;stroke-width:0.8;" x="234.461739" xlink:href="#meb8d1185c2" y="307.584"/>
      </g>
     </g>
     <g id="text_3">
      <!-- −200 -->
      <defs>
       <path d="M 19.1875 8.296875 
L 53.609375 8.296875 
L 53.609375 0 
L 7.328125 0 
L 7.328125 8.296875 
Q 12.9375 14.109375 22.625 23.890625 
Q 32.328125 33.6875 34.8125 36.53125 
Q 39.546875 41.84375 41.421875 45.53125 
Q 43.3125 49.21875 43.3125 52.78125 
Q 43.3125 58.59375 39.234375 62.25 
Q 35.15625 65.921875 28.609375 65.921875 
Q 23.96875 65.921875 18.8125 64.3125 
Q 13.671875 62.703125 7.8125 59.421875 
L 7.8125 69.390625 
Q 13.765625 71.78125 18.9375 73 
Q 24.125 74.21875 28.421875 74.21875 
Q 39.75 74.21875 46.484375 68.546875 
Q 53.21875 62.890625 53.21875 53.421875 
Q 53.21875 48.921875 51.53125 44.890625 
Q 49.859375 40.875 45.40625 35.40625 
Q 44.1875 33.984375 37.640625 27.21875 
Q 31.109375 20.453125 19.1875 8.296875 
z
" id="DejaVuSans-50"/>
      </defs>
      <g transform="translate(220.728145 322.182437)scale(0.1 -0.1)">
       <use xlink:href="#DejaVuSans-8722"/>
       <use x="83.789062" xlink:href="#DejaVuSans-50"/>
       <use x="147.412109" xlink:href="#DejaVuSans-48"/>
       <use x="211.035156" xlink:href="#DejaVuSans-48"/>
      </g>
     </g>
    </g>
    <g id="xtick_4">
     <g id="line2d_5">
      <g>
       <use style="stroke:#000000;stroke-width:0.8;" x="307.979526" xlink:href="#meb8d1185c2" y="307.584"/>
      </g>
     </g>
     <g id="text_4">
      <!-- 0 -->
      <g transform="translate(304.798276 322.182437)scale(0.1 -0.1)">
       <use xlink:href="#DejaVuSans-48"/>
      </g>
     </g>
    </g>
    <g id="xtick_5">
     <g id="line2d_6">
      <g>
       <use style="stroke:#000000;stroke-width:0.8;" x="381.497312" xlink:href="#meb8d1185c2" y="307.584"/>
      </g>
     </g>
     <g id="text_5">
      <!-- 200 -->
      <g transform="translate(371.953562 322.182437)scale(0.1 -0.1)">
       <use xlink:href="#DejaVuSans-50"/>
       <use x="63.623047" xlink:href="#DejaVuSans-48"/>
       <use x="127.246094" xlink:href="#DejaVuSans-48"/>
      </g>
     </g>
    </g>
   </g>
   <g id="matplotlib.axis_2">
    <g id="ytick_1">
     <g id="line2d_7">
      <defs>
       <path d="M 0 0 
L -3.5 0 
" id="m3134fc89d5" style="stroke:#000000;stroke-width:0.8;"/>
      </defs>
      <g>
       <use style="stroke:#000000;stroke-width:0.8;" x="57.6" xlink:href="#m3134fc89d5" y="264.261125"/>
      </g>
     </g>
     <g id="text_6">
      <!-- −200 -->
      <g transform="translate(23.132812 268.060344)scale(0.1 -0.1)">
       <use xlink:href="#DejaVuSans-8722"/>
       <use x="83.789062" xlink:href="#DejaVuSans-50"/>
       <use x="147.412109" xlink:href="#DejaVuSans-48"/>
       <use x="211.035156" xlink:href="#DejaVuSans-48"/>
      </g>
     </g>
    </g>
    <g id="ytick_2">
     <g id="line2d_8">
      <g>
       <use style="stroke:#000000;stroke-width:0.8;" x="57.6" xlink:href="#m3134fc89d5" y="216.542796"/>
      </g>
     </g>
     <g id="text_7">
      <!-- 0 -->
      <g transform="translate(44.2375 220.342015)scale(0.1 -0.1)">
       <use xlink:href="#DejaVuSans-48"/>
      </g>
     </g>
    </g>
    <g id="ytick_3">
     <g id="line2d_9">
      <g>
       <use style="stroke:#000000;stroke-width:0.8;" x="57.6" xlink:href="#m3134fc89d5" y="168.824467"/>
      </g>
     </g>
     <g id="text_8">
      <!-- 200 -->
      <g transform="translate(31.5125 172.623685)scale(0.1 -0.1)">
       <use xlink:href="#DejaVuSans-50"/>
       <use x="63.623047" xlink:href="#DejaVuSans-48"/>
       <use x="127.246094" xlink:href="#DejaVuSans-48"/>
      </g>
     </g>
    </g>
    <g id="ytick_4">
     <g id="line2d_10">
      <g>
       <use style="stroke:#000000;stroke-width:0.8;" x="57.6" xlink:href="#m3134fc89d5" y="121.106137"/>
      </g>
     </g>
     <g id="text_9">
      <!-- 400 -->
      <g transform="translate(31.5125 124.905356)scale(0.1 -0.1)">
       <use xlink:href="#DejaVuSans-52"/>
       <use x="63.623047" xlink:href="#DejaVuSans-48"/>
       <use x="127.246094" xlink:href="#DejaVuSans-48"/>
      </g>
     </g>
    </g>
    <g id="ytick_5">
     <g id="line2d_11">
      <g>
       <use style="stroke:#000000;stroke-width:0.8;" x="57.6" xlink:href="#m3134fc89d5" y="73.387808"/>
      </g>
     </g>
     <g id="text_10">
      <!-- 600 -->
      <g transform="translate(31.5125 77.187027)scale(0.1 -0.1)">
       <use xlink:href="#DejaVuSans-54"/>
       <use x="63.623047" xlink:href="#DejaVuSans-48"/>
       <use x="127.246094" xlink:href="#DejaVuSans-48"/>
      </g>
     </g>
    </g>
   </g>
   <g id="line2d_12">
    <path clip-path="url(#p1115c8fb46)" d="M 78.872092 58.143344 
L 216.070353 198.837521 
L 238.57414 251.950201 
L 174.271811 256.762726 
L 222.963041 269.971565 
L 366.012542 291.470209 
L 166.939452 252.143555 
" style="fill:none;stroke:#ff0000;stroke-linecap:square;stroke-width:0.5;"/>
   </g>
   <g id="patch_3">
    <path d="M 57.6 307.584 
L 57.6 41.472 
" style="fill:none;stroke:#000000;stroke-linecap:square;stroke-linejoin:miter;stroke-width:0.8;"/>
   </g>
   <g id="patch_4">
    <path d="M 414.72 307.584 
L 414.72 41.472 
" style="fill:none;stroke:#000000;stroke-linecap:square;stroke-linejoin:miter;stroke-width:0.8;"/>
   </g>
   <g id="patch_5">
    <path d="M 57.6 307.584 
L 414.72 307.584 
" style="fill:none;stroke:#000000;stroke-linecap:square;stroke-linejoin:miter;stroke-width:0.8;"/>
   </g>
   <g id="patch_6">
    <path d="M 57.6 41.472 
L 414.72 41.472 
" style="fill:none;stroke:#000000;stroke-linecap:square;stroke-linejoin:miter;stroke-width:0.8;"/>
   </g>
   <g id="PathCollection_1">
    <defs>
     <path d="M 0 2.738613 
C 0.726289 2.738613 1.422928 2.450055 1.936492 1.936492 
C 2.450055 1.422928 2.738613 0.726289 2.738613 0 
C 2.738613 -0.726289 2.450055 -1.422928 1.936492 -1.936492 
C 1.422928 -2.450055 0.726289 -2.738613 0 -2.738613 
C -0.726289 -2.738613 -1.422928 -2.450055 -1.936492 -1.936492 
C -2.450055 -1.422928 -2.738613 -0.726289 -2.738613 0 
C -2.738613 0.726289 -2.450055 1.422928 -1.936492 1.936492 
C -1.422928 2.450055 -0.726289 2.738613 0 2.738613 
z
" id="m3681500aa1" style="stroke:#ff0000;"/>
    </defs>
    <g clip-path="url(#p1115c8fb46)">
     <use style="fill:#ff0000;stroke:#ff0000;" x="78.872092" xlink:href="#m3681500aa1" y="58.143344"/>
     <use style="fill:#ff0000;stroke:#ff0000;" x="216.070353" xlink:href="#m3681500aa1" y="198.837521"/>
     <use style="fill:#ff0000;stroke:#ff0000;" x="238.57414" xlink:href="#m3681500aa1" y="251.950201"/>
     <use style="fill:#ff0000;stroke:#ff0000;" x="174.271811" xlink:href="#m3681500aa1" y="256.762726"/>
     <use style="fill:#ff0000;stroke:#ff0000;" x="222.963041" xlink:href="#m3681500aa1" y="269.971565"/>
     <use style="fill:#ff0000;stroke:#ff0000;" x="366.012542" xlink:href="#m3681500aa1" y="291.470209"/>
     <use style="fill:#ff0000;stroke:#ff0000;" x="166.939452" xlink:href="#m3681500aa1" y="252.143555"/>
    </g>
   </g>
   <g id="text_11">
    <!-- (34) Subject: s7, Known = False, Degree = 2, Duration = 0.1 -->
    <defs>
     <path d="M 31 75.875 
Q 24.46875 64.65625 21.28125 53.65625 
Q 18.109375 42.671875 18.109375 31.390625 
Q 18.109375 20.125 21.3125 9.0625 
Q 24.515625 -2 31 -13.1875 
L 23.1875 -13.1875 
Q 15.875 -1.703125 12.234375 9.375 
Q 8.59375 20.453125 8.59375 31.390625 
Q 8.59375 42.28125 12.203125 53.3125 
Q 15.828125 64.359375 23.1875 75.875 
z
" id="DejaVuSans-40"/>
     <path d="M 40.578125 39.3125 
Q 47.65625 37.796875 51.625 33 
Q 55.609375 28.21875 55.609375 21.1875 
Q 55.609375 10.40625 48.1875 4.484375 
Q 40.765625 -1.421875 27.09375 -1.421875 
Q 22.515625 -1.421875 17.65625 -0.515625 
Q 12.796875 0.390625 7.625 2.203125 
L 7.625 11.71875 
Q 11.71875 9.328125 16.59375 8.109375 
Q 21.484375 6.890625 26.8125 6.890625 
Q 36.078125 6.890625 40.9375 10.546875 
Q 45.796875 14.203125 45.796875 21.1875 
Q 45.796875 27.640625 41.28125 31.265625 
Q 36.765625 34.90625 28.71875 34.90625 
L 20.21875 34.90625 
L 20.21875 43.015625 
L 29.109375 43.015625 
Q 36.375 43.015625 40.234375 45.921875 
Q 44.09375 48.828125 44.09375 54.296875 
Q 44.09375 59.90625 40.109375 62.90625 
Q 36.140625 65.921875 28.71875 65.921875 
Q 24.65625 65.921875 20.015625 65.03125 
Q 15.375 64.15625 9.8125 62.3125 
L 9.8125 71.09375 
Q 15.4375 72.65625 20.34375 73.4375 
Q 25.25 74.21875 29.59375 74.21875 
Q 40.828125 74.21875 47.359375 69.109375 
Q 53.90625 64.015625 53.90625 55.328125 
Q 53.90625 49.265625 50.4375 45.09375 
Q 46.96875 40.921875 40.578125 39.3125 
z
" id="DejaVuSans-51"/>
     <path d="M 8.015625 75.875 
L 15.828125 75.875 
Q 23.140625 64.359375 26.78125 53.3125 
Q 30.421875 42.28125 30.421875 31.390625 
Q 30.421875 20.453125 26.78125 9.375 
Q 23.140625 -1.703125 15.828125 -13.1875 
L 8.015625 -13.1875 
Q 14.5 -2 17.703125 9.0625 
Q 20.90625 20.125 20.90625 31.390625 
Q 20.90625 42.671875 17.703125 53.65625 
Q 14.5 64.65625 8.015625 75.875 
z
" id="DejaVuSans-41"/>
     <path id="DejaVuSans-32"/>
     <path d="M 53.515625 70.515625 
L 53.515625 60.890625 
Q 47.90625 63.578125 42.921875 64.890625 
Q 37.9375 66.21875 33.296875 66.21875 
Q 25.25 66.21875 20.875 63.09375 
Q 16.5 59.96875 16.5 54.203125 
Q 16.5 49.359375 19.40625 46.890625 
Q 22.3125 44.4375 30.421875 42.921875 
L 36.375 41.703125 
Q 47.40625 39.59375 52.65625 34.296875 
Q 57.90625 29 57.90625 20.125 
Q 57.90625 9.515625 50.796875 4.046875 
Q 43.703125 -1.421875 29.984375 -1.421875 
Q 24.8125 -1.421875 18.96875 -0.25 
Q 13.140625 0.921875 6.890625 3.21875 
L 6.890625 13.375 
Q 12.890625 10.015625 18.65625 8.296875 
Q 24.421875 6.59375 29.984375 6.59375 
Q 38.421875 6.59375 43.015625 9.90625 
Q 47.609375 13.234375 47.609375 19.390625 
Q 47.609375 24.75 44.3125 27.78125 
Q 41.015625 30.8125 33.5 32.328125 
L 27.484375 33.5 
Q 16.453125 35.6875 11.515625 40.375 
Q 6.59375 45.0625 6.59375 53.421875 
Q 6.59375 63.09375 13.40625 68.65625 
Q 20.21875 74.21875 32.171875 74.21875 
Q 37.3125 74.21875 42.625 73.28125 
Q 47.953125 72.359375 53.515625 70.515625 
z
" id="DejaVuSans-83"/>
     <path d="M 8.5 21.578125 
L 8.5 54.6875 
L 17.484375 54.6875 
L 17.484375 21.921875 
Q 17.484375 14.15625 20.5 10.265625 
Q 23.53125 6.390625 29.59375 6.390625 
Q 36.859375 6.390625 41.078125 11.03125 
Q 45.3125 15.671875 45.3125 23.6875 
L 45.3125 54.6875 
L 54.296875 54.6875 
L 54.296875 0 
L 45.3125 0 
L 45.3125 8.40625 
Q 42.046875 3.421875 37.71875 1 
Q 33.40625 -1.421875 27.6875 -1.421875 
Q 18.265625 -1.421875 13.375 4.4375 
Q 8.5 10.296875 8.5 21.578125 
z
M 31.109375 56 
z
" id="DejaVuSans-117"/>
     <path d="M 48.6875 27.296875 
Q 48.6875 37.203125 44.609375 42.84375 
Q 40.53125 48.484375 33.40625 48.484375 
Q 26.265625 48.484375 22.1875 42.84375 
Q 18.109375 37.203125 18.109375 27.296875 
Q 18.109375 17.390625 22.1875 11.75 
Q 26.265625 6.109375 33.40625 6.109375 
Q 40.53125 6.109375 44.609375 11.75 
Q 48.6875 17.390625 48.6875 27.296875 
z
M 18.109375 46.390625 
Q 20.953125 51.265625 25.265625 53.625 
Q 29.59375 56 35.59375 56 
Q 45.5625 56 51.78125 48.09375 
Q 58.015625 40.1875 58.015625 27.296875 
Q 58.015625 14.40625 51.78125 6.484375 
Q 45.5625 -1.421875 35.59375 -1.421875 
Q 29.59375 -1.421875 25.265625 0.953125 
Q 20.953125 3.328125 18.109375 8.203125 
L 18.109375 0 
L 9.078125 0 
L 9.078125 75.984375 
L 18.109375 75.984375 
z
" id="DejaVuSans-98"/>
     <path d="M 9.421875 54.6875 
L 18.40625 54.6875 
L 18.40625 -0.984375 
Q 18.40625 -11.421875 14.421875 -16.109375 
Q 10.453125 -20.796875 1.609375 -20.796875 
L -1.8125 -20.796875 
L -1.8125 -13.1875 
L 0.59375 -13.1875 
Q 5.71875 -13.1875 7.5625 -10.8125 
Q 9.421875 -8.453125 9.421875 -0.984375 
z
M 9.421875 75.984375 
L 18.40625 75.984375 
L 18.40625 64.59375 
L 9.421875 64.59375 
z
" id="DejaVuSans-106"/>
     <path d="M 56.203125 29.59375 
L 56.203125 25.203125 
L 14.890625 25.203125 
Q 15.484375 15.921875 20.484375 11.0625 
Q 25.484375 6.203125 34.421875 6.203125 
Q 39.59375 6.203125 44.453125 7.46875 
Q 49.3125 8.734375 54.109375 11.28125 
L 54.109375 2.78125 
Q 49.265625 0.734375 44.1875 -0.34375 
Q 39.109375 -1.421875 33.890625 -1.421875 
Q 20.796875 -1.421875 13.15625 6.1875 
Q 5.515625 13.8125 5.515625 26.8125 
Q 5.515625 40.234375 12.765625 48.109375 
Q 20.015625 56 32.328125 56 
Q 43.359375 56 49.78125 48.890625 
Q 56.203125 41.796875 56.203125 29.59375 
z
M 47.21875 32.234375 
Q 47.125 39.59375 43.09375 43.984375 
Q 39.0625 48.390625 32.421875 48.390625 
Q 24.90625 48.390625 20.390625 44.140625 
Q 15.875 39.890625 15.1875 32.171875 
z
" id="DejaVuSans-101"/>
     <path d="M 48.78125 52.59375 
L 48.78125 44.1875 
Q 44.96875 46.296875 41.140625 47.34375 
Q 37.3125 48.390625 33.40625 48.390625 
Q 24.65625 48.390625 19.8125 42.84375 
Q 14.984375 37.3125 14.984375 27.296875 
Q 14.984375 17.28125 19.8125 11.734375 
Q 24.65625 6.203125 33.40625 6.203125 
Q 37.3125 6.203125 41.140625 7.25 
Q 44.96875 8.296875 48.78125 10.40625 
L 48.78125 2.09375 
Q 45.015625 0.34375 40.984375 -0.53125 
Q 36.96875 -1.421875 32.421875 -1.421875 
Q 20.0625 -1.421875 12.78125 6.34375 
Q 5.515625 14.109375 5.515625 27.296875 
Q 5.515625 40.671875 12.859375 48.328125 
Q 20.21875 56 33.015625 56 
Q 37.15625 56 41.109375 55.140625 
Q 45.0625 54.296875 48.78125 52.59375 
z
" id="DejaVuSans-99"/>
     <path d="M 18.3125 70.21875 
L 18.3125 54.6875 
L 36.8125 54.6875 
L 36.8125 47.703125 
L 18.3125 47.703125 
L 18.3125 18.015625 
Q 18.3125 11.328125 20.140625 9.421875 
Q 21.96875 7.515625 27.59375 7.515625 
L 36.8125 7.515625 
L 36.8125 0 
L 27.59375 0 
Q 17.1875 0 13.234375 3.875 
Q 9.28125 7.765625 9.28125 18.015625 
L 9.28125 47.703125 
L 2.6875 47.703125 
L 2.6875 54.6875 
L 9.28125 54.6875 
L 9.28125 70.21875 
z
" id="DejaVuSans-116"/>
     <path d="M 11.71875 12.40625 
L 22.015625 12.40625 
L 22.015625 0 
L 11.71875 0 
z
M 11.71875 51.703125 
L 22.015625 51.703125 
L 22.015625 39.3125 
L 11.71875 39.3125 
z
" id="DejaVuSans-58"/>
     <path d="M 44.28125 53.078125 
L 44.28125 44.578125 
Q 40.484375 46.53125 36.375 47.5 
Q 32.28125 48.484375 27.875 48.484375 
Q 21.1875 48.484375 17.84375 46.4375 
Q 14.5 44.390625 14.5 40.28125 
Q 14.5 37.15625 16.890625 35.375 
Q 19.28125 33.59375 26.515625 31.984375 
L 29.59375 31.296875 
Q 39.15625 29.25 43.1875 25.515625 
Q 47.21875 21.78125 47.21875 15.09375 
Q 47.21875 7.46875 41.1875 3.015625 
Q 35.15625 -1.421875 24.609375 -1.421875 
Q 20.21875 -1.421875 15.453125 -0.5625 
Q 10.6875 0.296875 5.421875 2 
L 5.421875 11.28125 
Q 10.40625 8.6875 15.234375 7.390625 
Q 20.0625 6.109375 24.8125 6.109375 
Q 31.15625 6.109375 34.5625 8.28125 
Q 37.984375 10.453125 37.984375 14.40625 
Q 37.984375 18.0625 35.515625 20.015625 
Q 33.0625 21.96875 24.703125 23.78125 
L 21.578125 24.515625 
Q 13.234375 26.265625 9.515625 29.90625 
Q 5.8125 33.546875 5.8125 39.890625 
Q 5.8125 47.609375 11.28125 51.796875 
Q 16.75 56 26.8125 56 
Q 31.78125 56 36.171875 55.265625 
Q 40.578125 54.546875 44.28125 53.078125 
z
" id="DejaVuSans-115"/>
     <path d="M 8.203125 72.90625 
L 55.078125 72.90625 
L 55.078125 68.703125 
L 28.609375 0 
L 18.3125 0 
L 43.21875 64.59375 
L 8.203125 64.59375 
z
" id="DejaVuSans-55"/>
     <path d="M 11.71875 12.40625 
L 22.015625 12.40625 
L 22.015625 4 
L 14.015625 -11.625 
L 7.71875 -11.625 
L 11.71875 4 
z
" id="DejaVuSans-44"/>
     <path d="M 9.8125 72.90625 
L 19.671875 72.90625 
L 19.671875 42.09375 
L 52.390625 72.90625 
L 65.09375 72.90625 
L 28.90625 38.921875 
L 67.671875 0 
L 54.6875 0 
L 19.671875 35.109375 
L 19.671875 0 
L 9.8125 0 
z
" id="DejaVuSans-75"/>
     <path d="M 54.890625 33.015625 
L 54.890625 0 
L 45.90625 0 
L 45.90625 32.71875 
Q 45.90625 40.484375 42.875 44.328125 
Q 39.84375 48.1875 33.796875 48.1875 
Q 26.515625 48.1875 22.3125 43.546875 
Q 18.109375 38.921875 18.109375 30.90625 
L 18.109375 0 
L 9.078125 0 
L 9.078125 54.6875 
L 18.109375 54.6875 
L 18.109375 46.1875 
Q 21.34375 51.125 25.703125 53.5625 
Q 30.078125 56 35.796875 56 
Q 45.21875 56 50.046875 50.171875 
Q 54.890625 44.34375 54.890625 33.015625 
z
" id="DejaVuSans-110"/>
     <path d="M 30.609375 48.390625 
Q 23.390625 48.390625 19.1875 42.75 
Q 14.984375 37.109375 14.984375 27.296875 
Q 14.984375 17.484375 19.15625 11.84375 
Q 23.34375 6.203125 30.609375 6.203125 
Q 37.796875 6.203125 41.984375 11.859375 
Q 46.1875 17.53125 46.1875 27.296875 
Q 46.1875 37.015625 41.984375 42.703125 
Q 37.796875 48.390625 30.609375 48.390625 
z
M 30.609375 56 
Q 42.328125 56 49.015625 48.375 
Q 55.71875 40.765625 55.71875 27.296875 
Q 55.71875 13.875 49.015625 6.21875 
Q 42.328125 -1.421875 30.609375 -1.421875 
Q 18.84375 -1.421875 12.171875 6.21875 
Q 5.515625 13.875 5.515625 27.296875 
Q 5.515625 40.765625 12.171875 48.375 
Q 18.84375 56 30.609375 56 
z
" id="DejaVuSans-111"/>
     <path d="M 4.203125 54.6875 
L 13.1875 54.6875 
L 24.421875 12.015625 
L 35.59375 54.6875 
L 46.1875 54.6875 
L 57.421875 12.015625 
L 68.609375 54.6875 
L 77.59375 54.6875 
L 63.28125 0 
L 52.6875 0 
L 40.921875 44.828125 
L 29.109375 0 
L 18.5 0 
z
" id="DejaVuSans-119"/>
     <path d="M 10.59375 45.40625 
L 73.1875 45.40625 
L 73.1875 37.203125 
L 10.59375 37.203125 
z
M 10.59375 25.484375 
L 73.1875 25.484375 
L 73.1875 17.1875 
L 10.59375 17.1875 
z
" id="DejaVuSans-61"/>
     <path d="M 9.8125 72.90625 
L 51.703125 72.90625 
L 51.703125 64.59375 
L 19.671875 64.59375 
L 19.671875 43.109375 
L 48.578125 43.109375 
L 48.578125 34.8125 
L 19.671875 34.8125 
L 19.671875 0 
L 9.8125 0 
z
" id="DejaVuSans-70"/>
     <path d="M 34.28125 27.484375 
Q 23.390625 27.484375 19.1875 25 
Q 14.984375 22.515625 14.984375 16.5 
Q 14.984375 11.71875 18.140625 8.90625 
Q 21.296875 6.109375 26.703125 6.109375 
Q 34.1875 6.109375 38.703125 11.40625 
Q 43.21875 16.703125 43.21875 25.484375 
L 43.21875 27.484375 
z
M 52.203125 31.203125 
L 52.203125 0 
L 43.21875 0 
L 43.21875 8.296875 
Q 40.140625 3.328125 35.546875 0.953125 
Q 30.953125 -1.421875 24.3125 -1.421875 
Q 15.921875 -1.421875 10.953125 3.296875 
Q 6 8.015625 6 15.921875 
Q 6 25.140625 12.171875 29.828125 
Q 18.359375 34.515625 30.609375 34.515625 
L 43.21875 34.515625 
L 43.21875 35.40625 
Q 43.21875 41.609375 39.140625 45 
Q 35.0625 48.390625 27.6875 48.390625 
Q 23 48.390625 18.546875 47.265625 
Q 14.109375 46.140625 10.015625 43.890625 
L 10.015625 52.203125 
Q 14.9375 54.109375 19.578125 55.046875 
Q 24.21875 56 28.609375 56 
Q 40.484375 56 46.34375 49.84375 
Q 52.203125 43.703125 52.203125 31.203125 
z
" id="DejaVuSans-97"/>
     <path d="M 9.421875 75.984375 
L 18.40625 75.984375 
L 18.40625 0 
L 9.421875 0 
z
" id="DejaVuSans-108"/>
     <path d="M 19.671875 64.796875 
L 19.671875 8.109375 
L 31.59375 8.109375 
Q 46.6875 8.109375 53.6875 14.9375 
Q 60.6875 21.78125 60.6875 36.53125 
Q 60.6875 51.171875 53.6875 57.984375 
Q 46.6875 64.796875 31.59375 64.796875 
z
M 9.8125 72.90625 
L 30.078125 72.90625 
Q 51.265625 72.90625 61.171875 64.09375 
Q 71.09375 55.28125 71.09375 36.53125 
Q 71.09375 17.671875 61.125 8.828125 
Q 51.171875 0 30.078125 0 
L 9.8125 0 
z
" id="DejaVuSans-68"/>
     <path d="M 45.40625 27.984375 
Q 45.40625 37.75 41.375 43.109375 
Q 37.359375 48.484375 30.078125 48.484375 
Q 22.859375 48.484375 18.828125 43.109375 
Q 14.796875 37.75 14.796875 27.984375 
Q 14.796875 18.265625 18.828125 12.890625 
Q 22.859375 7.515625 30.078125 7.515625 
Q 37.359375 7.515625 41.375 12.890625 
Q 45.40625 18.265625 45.40625 27.984375 
z
M 54.390625 6.78125 
Q 54.390625 -7.171875 48.1875 -13.984375 
Q 42 -20.796875 29.203125 -20.796875 
Q 24.46875 -20.796875 20.265625 -20.09375 
Q 16.0625 -19.390625 12.109375 -17.921875 
L 12.109375 -9.1875 
Q 16.0625 -11.328125 19.921875 -12.34375 
Q 23.78125 -13.375 27.78125 -13.375 
Q 36.625 -13.375 41.015625 -8.765625 
Q 45.40625 -4.15625 45.40625 5.171875 
L 45.40625 9.625 
Q 42.625 4.78125 38.28125 2.390625 
Q 33.9375 0 27.875 0 
Q 17.828125 0 11.671875 7.65625 
Q 5.515625 15.328125 5.515625 27.984375 
Q 5.515625 40.671875 11.671875 48.328125 
Q 17.828125 56 27.875 56 
Q 33.9375 56 38.28125 53.609375 
Q 42.625 51.21875 45.40625 46.390625 
L 45.40625 54.6875 
L 54.390625 54.6875 
z
" id="DejaVuSans-103"/>
     <path d="M 41.109375 46.296875 
Q 39.59375 47.171875 37.8125 47.578125 
Q 36.03125 48 33.890625 48 
Q 26.265625 48 22.1875 43.046875 
Q 18.109375 38.09375 18.109375 28.8125 
L 18.109375 0 
L 9.078125 0 
L 9.078125 54.6875 
L 18.109375 54.6875 
L 18.109375 46.1875 
Q 20.953125 51.171875 25.484375 53.578125 
Q 30.03125 56 36.53125 56 
Q 37.453125 56 38.578125 55.875 
Q 39.703125 55.765625 41.0625 55.515625 
z
" id="DejaVuSans-114"/>
     <path d="M 9.421875 54.6875 
L 18.40625 54.6875 
L 18.40625 0 
L 9.421875 0 
z
M 9.421875 75.984375 
L 18.40625 75.984375 
L 18.40625 64.59375 
L 9.421875 64.59375 
z
" id="DejaVuSans-105"/>
     <path d="M 10.6875 12.40625 
L 21 12.40625 
L 21 0 
L 10.6875 0 
z
" id="DejaVuSans-46"/>
     <path d="M 12.40625 8.296875 
L 28.515625 8.296875 
L 28.515625 63.921875 
L 10.984375 60.40625 
L 10.984375 69.390625 
L 28.421875 72.90625 
L 38.28125 72.90625 
L 38.28125 8.296875 
L 54.390625 8.296875 
L 54.390625 0 
L 12.40625 0 
z
" id="DejaVuSans-49"/>
    </defs>
    <g transform="translate(53.559375 35.472)scale(0.12 -0.12)">
     <use xlink:href="#DejaVuSans-40"/>
     <use x="39.013672" xlink:href="#DejaVuSans-51"/>
     <use x="102.636719" xlink:href="#DejaVuSans-52"/>
     <use x="166.259766" xlink:href="#DejaVuSans-41"/>
     <use x="205.273438" xlink:href="#DejaVuSans-32"/>
     <use x="237.060547" xlink:href="#DejaVuSans-83"/>
     <use x="300.537109" xlink:href="#DejaVuSans-117"/>
     <use x="363.916016" xlink:href="#DejaVuSans-98"/>
     <use x="427.392578" xlink:href="#DejaVuSans-106"/>
     <use x="455.175781" xlink:href="#DejaVuSans-101"/>
     <use x="516.699219" xlink:href="#DejaVuSans-99"/>
     <use x="571.679688" xlink:href="#DejaVuSans-116"/>
     <use x="610.888672" xlink:href="#DejaVuSans-58"/>
     <use x="644.580078" xlink:href="#DejaVuSans-32"/>
     <use x="676.367188" xlink:href="#DejaVuSans-115"/>
     <use x="728.466797" xlink:href="#DejaVuSans-55"/>
     <use x="792.089844" xlink:href="#DejaVuSans-44"/>
     <use x="823.876953" xlink:href="#DejaVuSans-32"/>
     <use x="855.664062" xlink:href="#DejaVuSans-75"/>
     <use x="921.240234" xlink:href="#DejaVuSans-110"/>
     <use x="984.619141" xlink:href="#DejaVuSans-111"/>
     <use x="1045.800781" xlink:href="#DejaVuSans-119"/>
     <use x="1127.587891" xlink:href="#DejaVuSans-110"/>
     <use x="1190.966797" xlink:href="#DejaVuSans-32"/>
     <use x="1222.753906" xlink:href="#DejaVuSans-61"/>
     <use x="1306.542969" xlink:href="#DejaVuSans-32"/>
     <use x="1338.330078" xlink:href="#DejaVuSans-70"/>
     <use x="1395.708984" xlink:href="#DejaVuSans-97"/>
     <use x="1456.988281" xlink:href="#DejaVuSans-108"/>
     <use x="1484.771484" xlink:href="#DejaVuSans-115"/>
     <use x="1536.871094" xlink:href="#DejaVuSans-101"/>
     <use x="1598.394531" xlink:href="#DejaVuSans-44"/>
     <use x="1630.181641" xlink:href="#DejaVuSans-32"/>
     <use x="1661.96875" xlink:href="#DejaVuSans-68"/>
     <use x="1738.970703" xlink:href="#DejaVuSans-101"/>
     <use x="1800.494141" xlink:href="#DejaVuSans-103"/>
     <use x="1863.970703" xlink:href="#DejaVuSans-114"/>
     <use x="1905.052734" xlink:href="#DejaVuSans-101"/>
     <use x="1966.576172" xlink:href="#DejaVuSans-101"/>
     <use x="2028.099609" xlink:href="#DejaVuSans-32"/>
     <use x="2059.886719" xlink:href="#DejaVuSans-61"/>
     <use x="2143.675781" xlink:href="#DejaVuSans-32"/>
     <use x="2175.462891" xlink:href="#DejaVuSans-50"/>
     <use x="2239.085938" xlink:href="#DejaVuSans-44"/>
     <use x="2270.873047" xlink:href="#DejaVuSans-32"/>
     <use x="2302.660156" xlink:href="#DejaVuSans-68"/>
     <use x="2379.662109" xlink:href="#DejaVuSans-117"/>
     <use x="2443.041016" xlink:href="#DejaVuSans-114"/>
     <use x="2484.154297" xlink:href="#DejaVuSans-97"/>
     <use x="2545.433594" xlink:href="#DejaVuSans-116"/>
     <use x="2584.642578" xlink:href="#DejaVuSans-105"/>
     <use x="2612.425781" xlink:href="#DejaVuSans-111"/>
     <use x="2673.607422" xlink:href="#DejaVuSans-110"/>
     <use x="2736.986328" xlink:href="#DejaVuSans-32"/>
     <use x="2768.773438" xlink:href="#DejaVuSans-61"/>
     <use x="2852.5625" xlink:href="#DejaVuSans-32"/>
     <use x="2884.349609" xlink:href="#DejaVuSans-48"/>
     <use x="2947.972656" xlink:href="#DejaVuSans-46"/>
     <use x="2979.759766" xlink:href="#DejaVuSans-49"/>
    </g>
   </g>
  </g>
 </g>
 <defs>
  <clipPath id="p1115c8fb46">
   <rect height="266.112" width="357.12" x="57.6" y="41.472"/>
  </clipPath>
 </defs>
</svg>
