<?xml version="1.0" encoding="utf-8" standalone="no"?>
<!DOCTYPE svg PUBLIC "-//W3C//DTD SVG 1.1//EN"
  "http://www.w3.org/Graphics/SVG/1.1/DTD/svg11.dtd">
<!-- Created with matplotlib (https://matplotlib.org/) -->
<svg height="345.6pt" version="1.1" viewBox="0 0 460.8 345.6" width="460.8pt" xmlns="http://www.w3.org/2000/svg" xmlns:xlink="http://www.w3.org/1999/xlink">
 <defs>
  <style type="text/css">
*{stroke-linecap:butt;stroke-linejoin:round;}
  </style>
 </defs>
 <g id="figure_1">
  <g id="patch_1">
   <path d="M 0 345.6 
L 460.8 345.6 
L 460.8 0 
L 0 0 
z
" style="fill:#ffffff;"/>
  </g>
  <g id="axes_1">
   <g id="patch_2">
    <path d="M 57.6 307.584 
L 414.72 307.584 
L 414.72 41.472 
L 57.6 41.472 
z
" style="fill:#ffffff;"/>
   </g>
   <g id="line2d_1">
    <path clip-path="url(#p926a29240e)" d="M 79.373806 286.100678 
L 79.133013 286.461315 
L 78.410633 286.461315 
L 78.410633 286.461315 
L 78.651426 285.740042 
L 78.410633 285.379405 
L 77.926214 285.379405 
L 78.651426 286.461315 
L 78.89222 287.18528 
L 78.651426 287.18528 
L 78.16984 286.461315 
L 77.926214 286.461315 
L 77.68542 286.100678 
L 78.16984 286.100678 
L 78.16984 286.100678 
L 77.926214 286.461315 
L 77.926214 286.461315 
L 77.926214 286.821952 
L 78.16984 287.18528 
L 78.410633 287.18528 
L 77.68542 287.18528 
L 77.444627 287.545917 
L 77.444627 287.906554 
L 77.68542 288.26719 
L 77.68542 288.627827 
L 77.68542 288.26719 
L 76.24066 288.26719 
L 75.51828 287.18528 
L 75.759074 287.18528 
L 75.759074 287.906554 
L 76.24066 288.26719 
L 76.96304 288.26719 
L 76.481454 288.26719 
L 76.481454 289.351792 
L 76.24066 290.433702 
L 75.759074 290.794339 
L 75.036694 290.433702 
L 75.51828 288.988464 
L 75.277487 288.988464 
L 75.036694 290.073066 
L 75.277487 290.433702 
L 75.51828 290.433702 
L 75.999867 291.154976 
L 75.999867 291.518304 
L 75.999867 291.518304 
L 75.51828 290.433702 
L 75.036694 289.712429 
L 75.036694 289.351792 
L 75.036694 290.073066 
L 74.555107 290.794339 
L 75.036694 292.600214 
L 75.277487 293.321488 
L 75.036694 293.684816 
L 74.314314 292.960851 
L 74.073521 292.960851 
L 74.073521 293.321488 
L 74.795901 294.045453 
L 75.036694 294.045453 
L 74.795901 292.960851 
L 74.314314 292.239578 
L 74.314314 292.960851 
L 74.314314 292.960851 
L 74.795901 292.600214 
L 75.277487 291.878941 
L 75.277487 291.518304 
L 75.036694 291.878941 
L 74.314314 292.239578 
L 74.073521 292.960851 
L 74.073521 292.960851 
L 74.555107 293.321488 
L 73.832727 293.321488 
L 74.073521 293.321488 
L 74.555107 293.684816 
L 74.555107 292.960851 
L 74.555107 294.045453 
L 74.555107 294.045453 
L 74.314314 293.684816 
L 74.555107 292.960851 
L 75.036694 292.239578 
L 75.51828 292.239578 
L 75.036694 293.321488 
L 74.314314 294.40609 
L 74.073521 294.40609 
L 74.555107 293.321488 
L 75.036694 293.321488 
L 75.277487 294.045453 
L 75.036694 294.766726 
L 75.036694 294.40609 
L 74.795901 293.684816 
L 74.555107 293.684816 
L 74.555107 294.045453 
L 74.795901 294.766726 
L 74.795901 295.127363 
L 74.555107 295.127363 
L 74.314314 294.40609 
L 74.555107 293.684816 
L 74.795901 294.045453 
L 74.795901 294.766726 
L 74.555107 295.127363 
L 74.795901 295.127363 
L 75.277487 295.488 
L 75.51828 295.488 
L 75.277487 294.40609 
L 75.277487 293.684816 
L 75.51828 293.321488 
L 75.51828 294.045453 
L 75.759074 293.321488 
L 76.481454 292.239578 
L 76.722247 292.239578 
L 76.481454 292.960851 
L 76.481454 294.40609 
L 76.24066 294.40609 
L 76.722247 293.684816 
L 77.926214 292.960851 
L 77.926214 292.600214 
L 77.68542 292.600214 
L 77.444627 292.239578 
L 77.203834 292.600214 
L 76.722247 292.960851 
L 76.96304 292.600214 
L 77.68542 292.239578 
L 78.651426 292.239578 
L 78.651426 292.600214 
L 78.410633 292.600214 
L 78.410633 291.154976 
L 78.410633 291.154976 
L 78.16984 291.518304 
L 78.651426 292.239578 
L 79.6146 292.239578 
L 79.133013 292.239578 
L 78.89222 291.878941 
L 78.89222 290.794339 
L 79.6146 290.433702 
L 80.577773 289.712429 
L 80.818566 289.351792 
L 80.096186 290.433702 
L 80.096186 290.433702 
L 79.855393 290.433702 
L 79.6146 290.794339 
L 79.373806 290.433702 
L 78.89222 290.073066 
L 80.096186 290.073066 
L 80.577773 289.712429 
L 80.818566 289.351792 
L 80.577773 288.988464 
L 80.577773 288.627827 
L 80.33698 287.906554 
L 80.33698 287.545917 
L 80.818566 288.26719 
L 81.05936 288.26719 
L 80.577773 287.906554 
L 80.577773 287.545917 
L 81.05936 286.821952 
L 81.540946 285.018768 
L 81.540946 285.018768 
L 81.05936 285.018768 
L 81.05936 284.294803 
L 80.818566 284.294803 
L 81.78174 284.294803 
L 82.022533 283.934166 
L 82.022533 283.573529 
L 81.78174 283.573529 
L 81.78174 284.294803 
L 82.50412 285.018768 
L 82.744913 285.740042 
L 83.467293 285.740042 
L 83.467293 285.379405 
L 83.226499 285.018768 
L 82.985706 285.379405 
L 83.226499 286.100678 
L 83.226499 286.461315 
L 82.50412 285.379405 
L 83.226499 285.379405 
L 83.948879 284.294803 
L 83.948879 284.65544 
L 83.708086 285.018768 
L 83.467293 285.018768 
L 83.708086 284.65544 
L 83.467293 284.294803 
L 82.744913 283.934166 
L 82.50412 283.573529 
L 82.985706 283.934166 
L 83.467293 283.934166 
L 83.467293 283.934166 
L 83.226499 284.294803 
L 83.467293 284.65544 
L 83.708086 284.65544 
L 83.708086 284.65544 
L 83.708086 285.018768 
L 83.708086 285.018768 
L 84.189673 285.018768 
L 84.430466 284.65544 
L 84.430466 284.294803 
L 84.430466 284.294803 
L 84.912053 284.294803 
L 86.116019 283.573529 
L 86.838399 282.852256 
L 89.727919 281.767654 
L 91.172679 281.407017 
L 95.509791 278.879869 
L 98.399311 277.795267 
L 101.529624 276.35272 
L 109.960223 273.101606 
L 114.77609 270.574457 
L 124.892242 262.993011 
L 130.671281 259.38126 
L 136.21236 255.408873 
L 141.26902 251.436486 
L 146.084886 247.46679 
L 151.385172 243.855039 
L 161.257698 235.188991 
L 165.113224 232.661842 
L 168.725124 230.855967 
L 172.09623 228.328818 
L 175.70813 225.441033 
L 178.841276 223.274521 
L 181.730796 221.468645 
L 183.897935 219.66277 
L 185.824282 218.217532 
L 187.991422 217.135621 
L 193.532501 214.969109 
L 195.940434 213.523871 
L 197.866781 212.081324 
L 200.03392 210.996722 
L 203.886614 209.554175 
L 206.056586 208.108936 
L 210.150073 206.303061 
L 210.872453 205.581788 
L 211.354039 204.136549 
L 213.039592 201.6094 
L 212.798799 200.888127 
L 212.798799 200.524799 
L 212.798799 200.524799 
L 211.835626 199.803525 
L 209.909279 201.6094 
L 209.427693 200.888127 
L 207.260553 200.888127 
L 207.501346 201.248764 
L 207.501346 201.6094 
L 207.501346 200.164162 
L 207.982933 199.442888 
L 208.223726 199.803525 
L 207.260553 200.164162 
L 206.29738 200.164162 
L 206.056586 200.524799 
L 206.778966 200.164162 
L 207.260553 199.442888 
L 207.501346 198.721615 
L 207.260553 198.358287 
L 206.538173 198.721615 
L 205.81296 198.721615 
L 205.81296 197.99765 
L 206.056586 197.99765 
L 206.538173 197.637013 
L 206.538173 197.276376 
L 206.056586 197.276376 
L 205.572167 197.99765 
L 205.09058 199.082252 
L 204.849787 198.721615 
L 204.849787 196.91574 
L 205.572167 195.470501 
L 205.331373 195.831138 
L 204.849787 196.191775 
L 204.3682 196.191775 
L 204.127407 195.831138 
L 204.608993 195.831138 
L 204.3682 195.470501 
L 203.886614 195.109864 
L 203.886614 195.831138 
L 204.127407 196.555103 
L 204.127407 196.91574 
L 203.64582 194.749228 
L 203.64582 194.749228 
L 203.405027 195.470501 
L 203.405027 195.470501 
L 203.405027 195.831138 
L 203.64582 195.831138 
L 203.405027 195.470501 
L 202.92344 195.831138 
L 202.92344 195.831138 
L 203.164234 195.831138 
L 204.127407 195.470501 
L 203.886614 195.470501 
L 203.405027 194.749228 
L 203.164234 194.027954 
L 203.405027 194.027954 
L 204.127407 194.388591 
L 204.127407 194.388591 
L 202.92344 194.388591 
L 202.92344 194.749228 
L 203.164234 194.388591 
L 203.64582 194.027954 
L 203.886614 194.388591 
L 203.405027 194.388591 
L 203.164234 194.749228 
L 203.164234 195.109864 
L 202.92344 195.109864 
L 202.441854 194.749228 
L 202.92344 194.749228 
L 201.719474 194.749228 
L 201.960267 194.388591 
L 202.92344 193.664626 
L 202.682647 193.303989 
L 201.960267 193.664626 
L 201.719474 194.388591 
L 202.20106 194.388591 
L 201.719474 194.388591 
L 201.719474 194.749228 
L 201.960267 194.388591 
L 202.20106 193.664626 
L 201.960267 192.582715 
L 201.960267 191.861442 
L 201.719474 191.861442 
L 201.719474 193.664626 
L 201.47868 193.664626 
L 201.47868 193.664626 
L 201.237887 194.027954 
L 201.237887 194.388591 
L 202.441854 194.388591 
L 202.92344 193.664626 
L 202.682647 192.943352 
L 202.441854 192.582715 
L 202.20106 192.943352 
L 201.960267 192.222079 
L 201.960267 191.861442 
L 201.719474 191.861442 
L 201.960267 192.582715 
L 202.441854 192.582715 
L 203.64582 192.222079 
L 205.331373 191.861442 
L 206.778966 191.137477 
L 208.223726 190.055567 
L 214.484352 188.249691 
L 218.818632 185.722543 
L 229.175577 181.389519 
L 234.475863 178.501733 
L 240.254903 174.889982 
L 246.515529 171.278232 
L 252.778988 168.390446 
L 258.798821 165.863298 
L 271.082113 162.251547 
L 278.067952 159.363761 
L 284.810165 156.112648 
L 297.575043 151.779624 
L 303.594876 149.613112 
L 309.858335 147.085963 
L 316.118962 144.198177 
L 321.900834 141.671028 
L 327.679874 139.865153 
L 333.943333 137.698641 
L 340.444752 135.171492 
L 346.705378 133.00498 
L 352.487251 131.199105 
L 362.844196 126.144807 
L 378.739388 119.284635 
L 382.592081 116.757486 
L 389.093501 112.785098 
L 391.263473 111.33986 
L 392.708233 110.618586 
L 393.9122 110.618586 
L 394.393786 110.979223 
L 394.393786 110.618586 
L 393.430613 109.173348 
L 392.949026 108.812711 
L 391.02268 109.533985 
L 389.81588 109.173348 
L 388.852707 109.173348 
L 388.130327 109.533985 
L 387.167154 110.979223 
L 385.240807 113.145735 
L 384.759221 113.867009 
L 384.759221 114.590974 
L 384.518428 114.95161 
L 383.796048 114.95161 
L 383.555254 114.590974 
L 383.796048 114.227646 
L 384.036841 114.590974 
L 383.314461 113.506372 
L 383.314461 112.785098 
L 383.314461 113.506372 
L 383.555254 114.227646 
L 383.314461 114.590974 
L 382.592081 114.227646 
L 382.110494 113.506372 
L 382.110494 113.145735 
L 381.869701 113.145735 
L 381.869701 113.867009 
L 381.628908 113.867009 
L 380.906528 114.227646 
L 380.906528 114.590974 
L 380.906528 114.227646 
L 380.424941 113.506372 
L 379.702561 113.506372 
L 379.461768 113.867009 
L 379.943355 114.590974 
L 380.424941 114.227646 
L 381.869701 113.506372 
L 381.869701 113.506372 
L 381.628908 113.145735 
L 381.388114 113.145735 
L 381.147321 113.506372 
L 381.147321 113.506372 
L 380.906528 114.227646 
L 380.424941 114.95161 
L 379.702561 115.312247 
L 379.702561 115.312247 
L 379.943355 114.95161 
L 379.943355 114.590974 
L 379.702561 114.590974 
L 379.702561 114.95161 
L 379.943355 114.590974 
L 379.220975 115.672884 
L 379.220975 117.478759 
L 378.980181 117.839396 
L 378.980181 117.478759 
L 379.220975 117.118122 
L 379.220975 116.757486 
L 379.461768 117.118122 
L 379.461768 116.033521 
L 379.220975 115.672884 
L 378.739388 115.672884 
L 378.257801 116.394158 
L 377.776215 116.757486 
L 376.813041 117.118122 
L 377.294628 117.478759 
L 377.535421 118.200033 
L 377.776215 118.200033 
L 378.017008 117.839396 
L 378.257801 117.118122 
L 378.257801 117.118122 
L 378.498595 117.118122 
L 378.257801 117.478759 
L 377.535421 118.200033 
L 376.813041 118.200033 
L 377.053835 117.839396 
L 377.535421 117.839396 
L 377.776215 118.200033 
L 377.776215 118.200033 
L 377.776215 117.839396 
L 377.776215 117.839396 
L 378.257801 117.839396 
L 378.257801 118.200033 
L 377.053835 118.923998 
L 377.053835 118.56067 
L 377.294628 118.56067 
L 377.294628 118.923998 
L 377.053835 118.923998 
L 377.294628 118.200033 
L 378.017008 117.118122 
L 378.017008 116.757486 
L 377.535421 117.118122 
L 376.813041 117.118122 
L 376.331455 116.394158 
L 376.331455 116.033521 
L 376.572248 116.394158 
L 376.813041 117.118122 
L 376.572248 117.118122 
L 376.813041 117.118122 
L 376.572248 116.757486 
L 376.087829 116.757486 
L 375.847035 116.394158 
L 376.331455 116.033521 
L 376.572248 116.394158 
L 376.331455 117.118122 
L 376.331455 118.200033 
L 376.572248 118.56067 
L 376.813041 118.200033 
L 377.053835 117.478759 
L 377.053835 116.757486 
L 376.813041 117.118122 
L 376.572248 117.839396 
L 376.331455 117.839396 
L 376.087829 117.478759 
L 375.847035 116.757486 
L 376.331455 116.033521 
L 376.572248 116.394158 
L 376.331455 116.033521 
L 376.087829 116.394158 
L 375.606242 116.757486 
L 375.365449 116.757486 
L 375.365449 116.757486 
L 375.365449 116.033521 
L 375.365449 117.118122 
L 375.124655 117.478759 
L 374.883862 117.118122 
L 374.883862 117.118122 
L 375.365449 116.394158 
L 375.847035 116.033521 
L 376.087829 116.757486 
L 375.606242 117.839396 
L 375.365449 117.839396 
L 375.124655 116.757486 
L 375.124655 116.033521 
L 375.124655 116.394158 
L 375.365449 117.839396 
L 375.365449 118.923998 
L 375.606242 118.56067 
L 375.847035 117.118122 
L 376.331455 116.757486 
L 376.572248 117.478759 
L 376.331455 118.56067 
L 375.606242 118.923998 
L 375.124655 118.56067 
L 374.883862 118.923998 
L 375.124655 118.56067 
L 374.643069 116.757486 
L 374.161482 116.394158 
L 374.161482 117.839396 
L 374.402275 118.200033 
L 374.402275 118.200033 
L 374.402275 117.478759 
L 374.161482 117.478759 
L 373.679895 118.200033 
L 373.679895 119.284635 
L 374.161482 119.284635 
L 374.402275 118.56067 
L 374.161482 118.200033 
L 373.679895 118.200033 
L 372.957516 118.56067 
L 372.235136 118.56067 
L 372.235136 118.56067 
L 372.957516 118.923998 
L 374.161482 119.284635 
L 374.883862 119.645271 
L 374.643069 119.284635 
L 373.198309 119.284635 
L 372.957516 118.923998 
L 372.716722 118.923998 
L 372.475929 118.56067 
L 372.475929 118.56067 
L 373.198309 120.366545 
L 373.679895 120.727182 
L 374.161482 120.727182 
L 374.161482 121.09051 
L 373.679895 120.727182 
L 372.716722 120.727182 
L 373.198309 120.727182 
L 373.198309 121.09051 
L 372.716722 121.09051 
L 372.716722 121.451147 
L 372.957516 121.451147 
L 373.198309 121.09051 
L 372.716722 121.811783 
L 372.235136 122.17242 
L 371.271962 122.17242 
L 371.271962 122.17242 
L 371.512756 122.533057 
L 371.753549 121.811783 
L 372.235136 121.451147 
L 372.957516 121.811783 
L 373.198309 122.533057 
L 371.512756 122.533057 
L 371.753549 122.17242 
L 371.753549 121.811783 
L 371.512756 121.451147 
L 371.512756 121.811783 
L 371.753549 122.17242 
L 371.512756 121.811783 
L 371.271962 121.811783 
L 371.512756 122.17242 
L 371.753549 122.17242 
L 371.994342 122.533057 
L 371.271962 123.617659 
L 370.790376 123.617659 
L 370.549582 122.893694 
L 370.549582 121.811783 
L 371.031169 121.811783 
L 371.512756 122.17242 
L 371.512756 122.533057 
L 371.271962 122.17242 
L 370.790376 122.17242 
L 370.549582 122.533057 
L 370.067996 122.533057 
L 369.586409 121.811783 
L 369.104822 121.811783 
L 367.660063 122.17242 
L 363.325783 122.893694 
L 360.915017 123.617659 
L 358.26629 125.060206 
L 355.376771 125.784171 
L 352.246458 126.144807 
L 340.685545 126.144807 
L 336.351266 126.505444 
L 312.266269 131.920379 
L 307.450402 132.644343 
L 302.872496 133.726254 
L 292.759177 137.338004 
L 288.181271 138.783243 
L 283.606198 140.586427 
L 278.790332 142.752939 
L 273.971633 145.282779 
L 269.39656 147.4466 
L 261.447547 151.05835 
L 257.594854 152.503589 
L 253.501368 153.224862 
L 249.407882 154.309464 
L 245.793149 156.112648 
L 242.181249 158.27916 
L 238.328556 160.445672 
L 234.475863 161.530273 
L 228.212404 162.972821 
L 225.563678 164.057422 
L 219.059425 165.502661 
L 216.410699 167.305845 
L 214.002766 169.11172 
L 211.835626 169.472357 
L 210.390866 169.472357 
L 209.186899 170.196322 
L 207.742139 171.278232 
L 206.29738 172.72347 
L 205.09058 173.444744 
L 204.608993 174.168709 
L 203.886614 174.168709 
L 203.405027 173.805381 
L 203.164234 174.168709 
L 203.405027 174.168709 
L 203.64582 173.805381 
L 204.849787 173.805381 
L 204.849787 174.168709 
L 205.572167 174.889982 
L 206.538173 174.889982 
L 206.778966 174.529346 
L 206.778966 173.805381 
L 207.260553 173.444744 
L 207.982933 173.444744 
L 207.260553 176.695858 
L 207.01976 175.971893 
L 206.778966 175.611256 
L 206.778966 175.971893 
L 207.260553 176.335221 
L 207.260553 176.335221 
L 207.01976 175.611256 
L 206.538173 175.971893 
L 206.538173 176.335221 
L 206.29738 176.695858 
L 205.81296 176.335221 
L 205.331373 176.335221 
L 205.331373 177.056494 
L 205.81296 177.777768 
L 206.056586 177.777768 
L 206.056586 177.777768 
L 205.572167 177.417131 
L 205.331373 177.417131 
L 205.331373 177.417131 
L 205.81296 178.86237 
L 205.81296 178.86237 
L 205.81296 178.501733 
L 204.849787 177.777768 
L 204.608993 178.138405 
L 204.849787 178.501733 
L 205.331373 178.501733 
L 205.331373 178.86237 
L 204.127407 179.583643 
L 204.127407 179.94428 
L 204.3682 180.304917 
L 204.608993 179.94428 
L 204.608993 179.223007 
L 204.849787 179.94428 
L 204.849787 180.665554 
L 204.608993 181.389519 
L 203.64582 180.665554 
L 203.405027 180.665554 
L 203.405027 181.028882 
L 203.886614 181.389519 
L 204.127407 181.750155 
L 204.3682 181.750155 
L 204.3682 180.304917 
L 204.3682 182.471429 
L 204.127407 182.832066 
L 202.92344 182.832066 
L 203.164234 182.832066 
L 203.64582 183.195394 
L 203.886614 183.556031 
L 203.64582 183.195394 
L 203.886614 182.832066 
L 203.886614 182.471429 
L 203.405027 182.832066 
L 203.164234 183.916667 
L 203.405027 183.916667 
L 203.64582 183.195394 
L 203.405027 182.471429 
L 202.92344 183.916667 
L 202.92344 184.637941 
L 202.682647 184.277304 
L 202.92344 183.916667 
L 202.92344 183.916667 
L 202.92344 184.637941 
L 202.441854 184.998578 
L 202.20106 184.277304 
L 202.682647 184.277304 
L 203.164234 184.998578 
L 203.164234 184.998578 
L 203.164234 184.277304 
L 202.441854 183.195394 
L 202.682647 182.832066 
L 202.92344 182.832066 
L 202.92344 184.277304 
L 203.405027 184.998578 
L 203.64582 184.637941 
L 203.64582 184.277304 
L 203.164234 184.637941 
L 201.719474 184.637941 
L 201.960267 184.637941 
L 202.441854 184.277304 
L 202.682647 182.832066 
L 202.92344 182.832066 
L 202.92344 183.556031 
L 202.92344 183.556031 
L 202.682647 183.916667 
L 202.682647 183.916667 
L 202.682647 183.195394 
L 202.92344 183.916667 
L 203.164234 184.277304 
L 202.92344 184.637941 
L 202.92344 184.637941 
L 202.682647 184.277304 
L 202.682647 183.916667 
L 202.92344 183.556031 
L 202.682647 183.556031 
L 201.960267 183.195394 
L 201.719474 182.832066 
L 201.719474 183.195394 
L 201.960267 183.556031 
L 201.719474 183.916667 
L 201.719474 183.916667 
L 202.20106 183.556031 
L 202.20106 183.916667 
L 201.960267 183.916667 
L 202.20106 183.195394 
L 202.682647 182.832066 
L 202.682647 183.916667 
L 202.441854 184.637941 
L 202.20106 184.998578 
L 202.20106 184.637941 
L 202.441854 184.998578 
L 202.441854 185.361906 
L 202.20106 185.361906 
L 202.441854 184.637941 
L 202.20106 183.916667 
L 202.20106 184.637941 
L 201.960267 185.361906 
L 201.719474 185.722543 
L 201.719474 185.361906 
L 201.47868 185.361906 
L 201.719474 185.361906 
L 201.960267 184.998578 
L 201.719474 185.361906 
L 201.719474 185.722543 
L 201.960267 185.722543 
L 201.960267 185.361906 
L 201.47868 184.998578 
L 201.47868 184.637941 
L 201.47868 185.722543 
L 201.237887 185.722543 
L 200.997094 185.361906 
L 200.997094 185.361906 
L 201.47868 185.361906 
L 201.719474 184.998578 
L 201.47868 184.637941 
L 201.237887 184.998578 
L 200.7563 184.998578 
L 201.719474 184.998578 
L 201.47868 184.998578 
L 201.237887 185.361906 
L 200.515507 185.361906 
L 200.515507 184.998578 
L 200.7563 184.637941 
L 200.7563 184.637941 
L 200.7563 184.998578 
L 201.237887 184.998578 
L 201.237887 186.083179 
L 201.237887 184.998578 
L 200.7563 184.637941 
L 199.552334 183.916667 
L 199.793127 184.998578 
L 200.274714 185.722543 
L 200.997094 186.083179 
L 201.47868 185.722543 
L 201.47868 185.361906 
L 201.237887 185.361906 
L 201.237887 186.083179 
L 201.237887 185.722543 
L 200.997094 185.361906 
L 200.997094 184.998578 
L 201.237887 184.998578 
L 201.47868 185.361906 
L 201.47868 186.083179 
L 201.237887 185.722543 
L 201.237887 183.916667 
L 201.719474 182.471429 
L 202.682647 180.665554 
L 203.886614 179.94428 
L 205.81296 179.583643 
L 208.946106 178.501733 
L 213.761972 174.529346 
L 215.929112 172.002197 
L 218.577839 169.11172 
L 227.249231 161.169637 
L 229.897957 157.918523 
L 232.305891 154.670101 
L 234.716657 151.779624 
L 236.40221 149.252475 
L 238.328556 146.725326 
L 240.736489 143.83754 
L 242.903629 140.949755 
L 245.070769 138.419915 
L 252.056608 131.199105 
L 254.946128 128.311319 
L 257.835648 125.784171 
L 260.484374 122.893694 
L 263.376727 120.005908 
L 266.50704 117.118122 
L 269.637353 113.867009 
L 272.28608 110.618586 
L 274.453219 107.367473 
L 276.861153 104.11905 
L 279.271919 100.5073 
L 281.439058 96.534913 
L 283.606198 91.480615 
L 283.846992 89.67474 
L 283.846992 87.508228 
L 284.328578 82.814567 
L 284.087785 81.37202 
L 283.846992 81.008692 
L 283.846992 80.287418 
L 283.606198 79.205508 
L 283.124612 75.593757 
L 282.643025 73.787882 
L 281.920645 72.705971 
L 282.161438 73.066608 
L 282.161438 73.787882 
L 281.439058 75.23312 
L 281.679852 75.593757 
L 281.920645 75.23312 
L 280.235092 74.511847 
L 279.753505 75.23312 
L 279.512712 75.954394 
L 278.790332 76.678359 
L 278.308745 77.399632 
L 278.549539 77.760269 
L 279.031125 77.760269 
L 279.271919 78.120906 
L 278.790332 78.844871 
L 278.308745 78.481543 
L 277.827159 77.760269 
L 277.345572 77.760269 
L 277.345572 78.120906 
L 277.104779 78.120906 
L 277.104779 77.038996 
L 276.620359 75.23312 
L 276.861153 75.593757 
L 277.104779 75.593757 
L 276.379566 74.511847 
L 276.379566 74.511847 
L 276.138773 74.872484 
L 275.657186 75.23312 
L 275.657186 74.511847 
L 275.416393 73.427245 
L 274.934806 73.066608 
L 274.694013 73.787882 
L 274.934806 74.511847 
L 275.175599 74.511847 
L 275.416393 73.427245 
L 275.175599 72.705971 
L 275.175599 72.705971 
L 275.416393 73.066608 
L 275.175599 73.066608 
L 274.453219 71.982007 
L 274.453219 71.982007 
L 274.212426 71.982007 
L 273.971633 72.345335 
L 273.490046 72.705971 
L 273.249253 72.345335 
L 273.490046 71.62137 
L 273.249253 71.62137 
L 273.008459 71.982007 
L 273.249253 71.982007 
L 273.490046 71.62137 
L 273.490046 71.260733 
L 273.249253 70.900096 
L 272.28608 70.900096 
L 272.045286 70.539459 
L 272.045286 70.539459 
L 271.5637 71.260733 
L 271.082113 70.539459 
L 271.082113 70.178823 
L 270.84132 70.178823 
L 270.84132 70.178823 
L 271.322906 70.539459 
L 271.5637 71.260733 
L 270.84132 70.539459 
L 270.359733 69.815495 
L 270.359733 69.815495 
L 270.359733 70.539459 
L 270.11894 71.260733 
L 269.637353 70.900096 
L 269.637353 70.539459 
L 269.878146 70.539459 
L 269.878146 70.900096 
L 269.39656 70.178823 
L 269.39656 70.178823 
L 269.637353 70.178823 
L 270.11894 69.815495 
L 269.155766 69.815495 
L 269.155766 69.815495 
L 269.155766 70.178823 
L 268.914973 70.178823 
L 268.433386 69.815495 
L 268.433386 69.815495 
L 268.433386 70.539459 
L 268.67418 70.539459 
L 268.914973 70.178823 
L 268.914973 69.815495 
L 268.67418 69.454858 
L 268.67418 68.733584 
L 268.192593 68.012311 
L 268.192593 67.648983 
L 268.433386 67.288346 
L 268.433386 68.012311 
L 269.155766 69.094221 
L 268.914973 68.733584 
L 268.433386 68.372947 
L 268.192593 68.372947 
L 268.192593 69.094221 
L 268.192593 67.648983 
L 267.9518 66.927709 
L 267.22942 66.927709 
L 266.50704 66.206435 
L 267.711007 67.288346 
L 268.192593 67.288346 
L 268.433386 66.927709 
L 268.192593 66.927709 
L 267.711007 67.648983 
L 267.470213 67.648983 
L 267.470213 67.648983 
L 267.711007 67.288346 
L 267.711007 65.845799 
L 267.9518 65.845799 
L 267.9518 65.845799 
L 267.470213 66.206435 
L 267.470213 66.567072 
L 267.711007 67.288346 
L 267.711007 67.648983 
L 267.22942 66.927709 
L 266.025453 66.206435 
L 266.50704 65.482471 
L 267.22942 65.482471 
L 267.22942 66.206435 
L 266.988627 67.288346 
L 266.988627 67.288346 
L 266.988627 66.206435 
L 266.747833 65.845799 
L 266.747833 65.845799 
L 266.747833 68.012311 
L 266.988627 68.372947 
L 267.470213 67.648983 
L 267.22942 67.288346 
L 266.747833 66.927709 
L 266.50704 66.567072 
L 266.50704 65.845799 
L 266.50704 65.845799 
L 266.266247 66.206435 
L 266.266247 65.845799 
L 266.025453 65.482471 
L 265.303073 65.845799 
L 265.303073 65.845799 
L 266.266247 65.845799 
L 266.266247 65.482471 
L 266.025453 65.121834 
L 266.266247 64.761197 
L 266.025453 64.40056 
L 265.78466 64.40056 
L 265.78466 64.761197 
L 266.025453 65.121834 
L 266.025453 64.761197 
L 265.78466 64.40056 
L 266.50704 64.40056 
L 266.025453 64.40056 
L 265.78466 65.121834 
L 266.025453 65.482471 
L 265.78466 64.761197 
L 265.303073 63.679287 
L 265.303073 62.955322 
L 265.543867 63.315958 
L 265.78466 64.039923 
L 266.266247 64.039923 
L 267.470213 63.315958 
L 268.192593 63.315958 
L 269.637353 62.594685 
L 271.804493 61.873411 
L 274.212426 60.428173 
L 276.861153 59.346263 
L 283.365405 58.622298 
L 286.736511 58.985626 
L 289.866824 58.622298 
L 292.759177 57.540387 
L 296.371077 56.455786 
L 300.705356 55.734512 
L 304.798843 56.455786 
L 308.413575 56.455786 
L 311.543889 55.734512 
L 315.155788 54.289274 
L 319.249275 53.568 
L 323.104801 53.568 
L 327.43908 53.928637 
L 332.254947 53.568 
L 336.592059 53.568 
L 340.685545 53.928637 
L 352.005664 56.819114 
L 355.135977 56.819114 
L 358.26629 57.17975 
L 361.15581 58.261661 
L 363.80737 59.706899 
L 366.696889 61.152138 
L 369.586409 62.234048 
L 375.606242 62.234048 
L 378.498595 62.594685 
L 380.665735 63.315958 
L 382.592081 64.40056 
L 384.277634 65.482471 
L 385.963187 65.845799 
L 392.226647 65.845799 
L 395.116166 65.121834 
L 397.042513 64.40056 
L 397.764893 64.761197 
L 398.005686 65.845799 
L 398.487273 66.567072 
L 398.487273 66.927709 
L 398.005686 67.648983 
L 397.042513 68.372947 
L 396.07934 68.733584 
L 393.671406 70.178823 
L 392.708233 70.539459 
L 392.46744 71.260733 
L 391.74506 72.345335 
L 390.541093 73.427245 
L 389.334294 74.148519 
L 388.371121 74.511847 
L 387.889534 74.872484 
L 387.648741 75.23312 
L 387.889534 75.23312 
L 387.889534 75.593757 
L 387.648741 75.954394 
L 387.407947 76.678359 
L 387.167154 77.038996 
L 387.167154 77.760269 
L 386.926361 78.844871 
L 386.203981 79.926781 
L 385.240807 80.648055 
L 385.000014 80.287418 
L 385.481601 79.566144 
L 385.000014 81.008692 
L 385.240807 81.37202 
L 385.481601 81.37202 
L 385.722394 82.45393 
L 385.481601 82.814567 
L 385.000014 83.175204 
L 384.036841 84.620442 
L 384.036841 84.620442 
L 384.277634 84.620442 
L 384.277634 84.259805 
L 383.555254 84.259805 
L 382.592081 84.620442 
L 382.592081 84.259805 
L 382.110494 84.259805 
L 381.869701 83.899168 
L 381.628908 84.259805 
L 381.869701 84.981079 
L 382.110494 85.341716 
L 382.110494 85.705044 
L 381.147321 86.426317 
L 380.665735 85.705044 
L 380.906528 85.705044 
L 381.147321 86.06568 
L 381.147321 86.426317 
L 380.184148 86.426317 
L 379.943355 87.508228 
L 379.461768 87.871556 
L 378.739388 87.147591 
L 378.739388 86.06568 
L 379.220975 86.06568 
L 379.702561 86.786954 
L 379.943355 87.508228 
L 380.184148 87.871556 
L 380.184148 88.592829 
L 379.702561 89.314103 
L 378.739388 89.67474 
L 378.980181 89.314103 
L 378.980181 88.592829 
L 378.739388 88.232193 
L 377.776215 88.953466 
L 377.535421 88.953466 
L 377.535421 88.953466 
L 378.017008 90.398705 
L 378.257801 90.398705 
L 378.257801 90.398705 
L 378.257801 90.038068 
L 378.257801 90.038068 
L 378.017008 90.038068 
L 377.776215 89.67474 
L 377.294628 89.314103 
L 377.294628 88.592829 
L 377.535421 88.953466 
L 377.053835 90.398705 
L 376.813041 90.398705 
L 376.813041 90.398705 
L 376.813041 90.759341 
L 376.813041 90.038068 
L 376.572248 89.67474 
L 376.572248 90.038068 
L 376.813041 90.398705 
L 376.813041 91.119978 
L 376.813041 91.119978 
L 377.053835 91.480615 
L 376.813041 91.119978 
L 376.813041 91.480615 
L 377.053835 91.480615 
L 377.053835 91.841252 
L 376.572248 91.841252 
L 376.087829 92.20458 
L 375.847035 92.20458 
L 375.847035 91.119978 
L 376.087829 91.119978 
L 375.124655 94.007764 
L 375.606242 94.007764 
L 376.087829 93.647127 
L 376.331455 93.28649 
L 376.572248 93.28649 
L 376.572248 93.647127 
L 375.606242 93.647127 
L 374.643069 94.007764 
L 374.161482 94.371092 
L 374.643069 94.371092 
L 374.643069 94.731729 
L 374.161482 94.731729 
L 373.920689 94.371092 
L 373.920689 93.647127 
L 374.402275 93.28649 
L 374.883862 93.28649 
L 375.124655 94.007764 
L 375.124655 95.092365 
L 374.883862 95.453002 
L 375.124655 95.092365 
L 374.883862 95.092365 
L 374.643069 95.453002 
L 374.643069 95.453002 
L 374.643069 94.731729 
L 374.402275 94.731729 
L 373.439102 95.453002 
L 373.439102 95.813639 
L 373.679895 96.174276 
L 374.161482 96.534913 
L 374.402275 96.534913 
L 374.402275 96.174276 
L 373.920689 95.453002 
L 374.402275 95.453002 
L 374.883862 96.534913 
L 375.365449 96.898241 
L 375.124655 96.534913 
L 375.124655 95.813639 
L 374.883862 96.174276 
L 373.920689 96.534913 
L 374.402275 96.534913 
L 374.883862 96.534913 
L 375.124655 96.898241 
L 374.883862 97.619514 
L 374.643069 97.980151 
L 374.643069 97.980151 
L 374.402275 97.619514 
L 374.402275 96.898241 
L 374.402275 96.898241 
L 374.161482 97.258877 
L 373.920689 97.980151 
L 374.161482 98.340788 
L 374.643069 98.340788 
L 373.920689 98.340788 
L 372.957516 98.701425 
L 372.475929 98.701425 
L 373.920689 99.425389 
L 374.161482 99.786026 
L 374.161482 99.786026 
L 373.679895 100.5073 
L 373.679895 100.146663 
L 373.439102 99.425389 
L 373.439102 99.064753 
L 373.679895 99.425389 
L 373.920689 99.425389 
L 373.920689 100.867937 
L 373.920689 100.146663 
L 373.439102 99.064753 
L 372.957516 98.701425 
L 372.957516 99.064753 
L 373.198309 99.064753 
L 372.716722 99.064753 
L 372.716722 98.701425 
L 372.957516 98.701425 
L 373.439102 99.786026 
L 373.679895 100.867937 
L 374.161482 100.867937 
L 374.402275 100.146663 
L 374.643069 99.064753 
L 373.198309 99.786026 
L 373.198309 100.146663 
L 373.439102 100.146663 
L 373.439102 100.5073 
L 373.198309 100.867937 
L 371.753549 101.952538 
L 370.549582 102.673812 
L 368.141649 103.397777 
L 365.252129 104.11905 
L 362.603403 105.200961 
L 359.71105 105.924926 
L 356.339944 105.924926 
L 352.487251 107.006836 
L 339.722372 110.25795 
L 328.88384 115.672884 
L 323.345594 117.478759 
L 317.563721 118.56067 
L 311.543889 121.09051 
L 305.524056 124.338932 
L 299.742183 127.226718 
L 294.203937 129.39323 
L 288.903651 132.283707 
L 271.804493 140.586427 
L 266.988627 142.392302 
L 256.872474 146.725326 
L 252.297401 149.252475 
L 244.107596 153.946136 
L 236.643003 156.836613 
L 233.269064 158.642488 
L 229.897957 160.085035 
L 224.600504 162.612184 
L 222.192571 163.336149 
L 219.781805 164.418059 
L 214.965939 167.669173 
L 214.002766 168.02981 
L 213.761972 168.390446 
L 213.280386 168.751083 
L 213.039592 168.390446 
L 213.039592 168.02981 
L 213.521179 167.669173 
L 214.725146 167.669173 
L 215.206732 167.305845 
L 216.169905 167.305845 
L 216.892285 168.02981 
L 216.892285 168.390446 
L 216.892285 168.02981 
L 217.133079 167.305845 
L 217.373872 167.669173 
L 217.373872 168.751083 
L 216.892285 169.11172 
L 215.929112 169.472357 
L 216.410699 170.556958 
L 216.892285 170.917595 
L 216.892285 170.556958 
L 216.169905 170.556958 
L 215.929112 171.278232 
L 215.929112 171.278232 
L 215.447526 171.638869 
L 215.206732 171.638869 
L 215.206732 172.002197 
L 214.965939 172.362834 
L 214.484352 172.72347 
L 214.002766 173.444744 
L 214.484352 174.168709 
L 214.725146 174.168709 
L 214.725146 174.168709 
L 214.965939 173.805381 
L 215.206732 173.805381 
L 214.965939 173.805381 
L 214.725146 173.444744 
L 214.484352 173.805381 
L 214.002766 174.168709 
L 213.521179 174.168709 
L 213.521179 175.250619 
L 213.761972 175.250619 
L 213.761972 174.529346 
L 213.761972 174.889982 
L 214.002766 175.250619 
L 214.002766 175.250619 
L 214.002766 174.889982 
L 213.761972 174.529346 
L 213.521179 175.250619 
L 213.280386 175.611256 
L 213.521179 175.971893 
L 214.002766 175.971893 
L 213.280386 175.971893 
L 213.280386 175.971893 
L 213.039592 176.695858 
L 212.798799 176.695858 
L 212.798799 176.695858 
L 213.039592 176.335221 
L 213.521179 175.971893 
L 213.761972 175.611256 
L 213.521179 175.611256 
L 213.521179 176.335221 
L 213.280386 177.056494 
L 212.558006 177.056494 
L 212.798799 177.056494 
L 213.039592 177.417131 
L 213.039592 177.417131 
L 213.039592 177.056494 
L 213.280386 177.417131 
L 213.280386 177.777768 
L 213.039592 177.056494 
L 212.558006 176.695858 
L 213.280386 177.777768 
L 213.039592 177.777768 
L 212.558006 177.417131 
L 212.317212 177.056494 
L 212.558006 176.695858 
L 212.558006 177.056494 
L 212.317212 177.417131 
L 212.076419 178.138405 
L 212.558006 177.417131 
L 212.558006 179.223007 
L 212.798799 179.94428 
L 212.798799 179.94428 
L 212.798799 179.223007 
L 212.317212 178.501733 
L 211.594833 178.501733 
L 211.594833 179.223007 
L 212.076419 179.94428 
L 212.317212 180.665554 
L 212.317212 180.304917 
L 212.076419 179.223007 
L 212.076419 178.138405 
L 212.076419 178.501733 
L 211.594833 179.223007 
L 211.594833 180.304917 
L 211.594833 180.304917 
L 211.835626 179.583643 
L 212.076419 179.583643 
L 212.076419 179.94428 
L 212.076419 179.94428 
L 211.835626 180.304917 
L 211.594833 180.304917 
L 211.354039 180.665554 
L 211.354039 180.665554 
L 211.354039 181.028882 
L 211.594833 180.304917 
L 211.594833 179.223007 
L 211.354039 179.223007 
L 211.354039 179.94428 
L 211.594833 180.304917 
L 211.594833 179.94428 
L 211.354039 180.304917 
L 211.113246 181.028882 
L 211.113246 180.665554 
L 211.354039 180.304917 
L 211.594833 180.665554 
L 211.594833 181.028882 
L 211.113246 181.389519 
L 210.390866 181.750155 
L 209.909279 181.028882 
L 210.390866 180.304917 
L 211.113246 180.304917 
L 211.354039 180.665554 
L 211.594833 180.665554 
L 211.594833 180.304917 
L 211.594833 180.665554 
L 211.354039 181.028882 
L 210.872453 180.304917 
L 210.631659 179.583643 
L 211.594833 179.583643 
L 211.835626 179.94428 
L 211.594833 180.304917 
L 210.872453 180.665554 
L 210.390866 180.665554 
L 210.631659 180.304917 
L 211.113246 179.94428 
L 211.354039 180.304917 
L 211.594833 180.304917 
L 211.594833 179.94428 
L 211.835626 179.94428 
L 211.835626 179.94428 
L 211.594833 179.583643 
L 211.354039 179.583643 
L 211.354039 180.304917 
L 211.594833 180.665554 
L 211.354039 180.304917 
L 211.113246 180.665554 
L 211.113246 182.471429 
L 210.872453 182.832066 
L 211.113246 182.471429 
L 211.594833 182.110792 
L 212.076419 181.389519 
L 212.076419 181.028882 
L 212.076419 181.389519 
L 211.835626 181.750155 
L 211.354039 182.110792 
L 210.872453 182.110792 
L 211.594833 182.110792 
L 212.076419 181.750155 
L 212.076419 181.389519 
L 211.835626 182.110792 
L 211.354039 182.832066 
L 211.594833 183.195394 
L 211.835626 182.832066 
L 211.835626 182.471429 
L 211.354039 181.750155 
L 211.354039 181.028882 
L 211.354039 181.389519 
L 211.594833 181.750155 
L 211.594833 182.471429 
L 211.594833 182.471429 
L 210.872453 182.471429 
L 210.872453 182.471429 
L 210.872453 183.556031 
L 211.113246 183.195394 
L 211.354039 182.110792 
L 211.594833 181.750155 
L 212.317212 181.750155 
L 212.076419 181.750155 
L 211.594833 182.110792 
L 210.631659 183.195394 
L 210.631659 183.195394 
L 211.354039 181.389519 
L 211.835626 181.750155 
L 212.317212 182.471429 
L 212.076419 182.832066 
L 211.113246 183.556031 
L 211.354039 184.277304 
L 211.835626 184.277304 
L 210.872453 182.832066 
L 210.390866 182.832066 
L 211.354039 182.832066 
L 211.113246 182.832066 
L 210.631659 183.556031 
L 209.909279 184.998578 
L 209.427693 185.361906 
L 208.464519 184.998578 
L 207.501346 184.998578 
L 206.778966 184.637941 
L 205.331373 184.277304 
L 203.164234 184.277304 
L 200.997094 185.361906 
L 199.070747 186.083179 
L 193.532501 188.610328 
L 190.640148 190.055567 
L 186.546662 191.498114 
L 184.379522 192.582715 
L 182.212382 192.943352 
L 180.526829 192.943352 
L 179.563656 193.303989 
L 177.15289 195.470501 
L 175.948923 196.191775 
L 174.98575 196.191775 
L 174.504163 196.555103 
L 174.744957 196.191775 
L 175.467337 195.470501 
L 176.189716 195.109864 
L 176.671303 195.831138 
L 176.912096 195.470501 
L 177.15289 194.749228 
L 177.393683 194.388591 
L 177.637309 194.388591 
L 177.878103 194.749228 
L 178.359689 194.749228 
L 179.082069 194.388591 
L 179.804449 194.749228 
L 180.045242 194.388591 
L 180.045242 193.664626 
L 179.804449 193.303989 
L 179.322862 194.027954 
L 179.082069 193.664626 
L 179.082069 194.388591 
L 179.082069 192.582715 
L 178.841276 192.582715 
L 179.082069 192.582715 
L 179.082069 193.664626 
L 179.563656 193.303989 
L 179.804449 192.943352 
L 179.563656 193.664626 
L 179.322862 194.027954 
L 179.322862 193.664626 
L 179.563656 193.664626 
L 179.563656 194.027954 
L 179.322862 194.388591 
L 179.322862 192.943352 
L 179.082069 191.498114 
L 179.082069 190.77684 
L 179.322862 190.416203 
L 179.563656 190.77684 
L 179.563656 191.137477 
L 179.082069 191.498114 
L 179.082069 191.137477 
L 179.082069 191.137477 
L 179.322862 191.498114 
L 179.082069 192.222079 
L 178.600483 192.582715 
L 178.118896 192.222079 
L 177.878103 191.498114 
L 177.878103 190.416203 
L 178.118896 190.055567 
L 178.118896 190.055567 
L 177.637309 190.416203 
L 178.118896 190.055567 
L 178.118896 190.77684 
L 178.118896 190.77684 
L 177.878103 190.77684 
L 177.637309 190.416203 
L 177.15289 190.055567 
L 176.912096 190.055567 
L 177.15289 189.69493 
L 177.393683 189.69493 
L 177.393683 189.69493 
L 177.393683 188.970965 
L 177.15289 188.970965 
L 176.912096 189.331602 
L 176.912096 189.331602 
L 176.912096 189.69493 
L 176.912096 189.69493 
L 177.15289 189.331602 
L 177.15289 188.970965 
L 177.637309 188.970965 
L 177.393683 189.331602 
L 176.43051 190.055567 
L 175.948923 190.055567 
L 175.226543 189.69493 
L 174.98575 188.970965 
L 175.467337 188.970965 
L 175.70813 189.331602 
L 175.467337 188.970965 
L 175.226543 187.889055 
L 175.467337 187.16509 
L 175.70813 187.16509 
L 175.467337 187.528418 
L 175.948923 187.528418 
L 176.43051 187.16509 
L 176.43051 187.16509 
L 176.189716 186.804453 
L 175.948923 186.083179 
L 175.70813 185.722543 
L 174.98575 186.443816 
L 174.504163 187.16509 
L 175.226543 187.16509 
L 175.70813 186.804453 
L 175.948923 186.443816 
L 175.70813 185.722543 
L 173.54099 185.722543 
L 174.022577 185.722543 
L 174.504163 185.361906 
L 174.98575 185.361906 
L 174.504163 186.083179 
L 174.504163 185.361906 
L 175.226543 183.916667 
L 175.226543 184.637941 
L 175.226543 184.277304 
L 174.98575 184.637941 
L 174.98575 186.083179 
L 174.98575 186.083179 
L 174.504163 185.722543 
L 174.26337 185.722543 
L 174.504163 185.722543 
L 174.504163 184.998578 
L 174.26337 184.277304 
L 173.781783 184.637941 
L 174.26337 183.916667 
L 174.26337 183.556031 
L 173.781783 183.916667 
L 173.54099 184.277304 
L 173.781783 183.916667 
L 174.26337 183.556031 
L 174.26337 183.195394 
L 174.26337 183.195394 
L 172.81861 185.361906 
L 173.059403 185.361906 
L 173.059403 182.832066 
L 172.577817 182.471429 
L 172.81861 182.832066 
L 173.059403 182.471429 
L 172.81861 182.110792 
L 172.81861 182.110792 
L 173.059403 182.110792 
L 173.300197 182.471429 
L 173.059403 182.471429 
L 173.059403 182.471429 
L 173.54099 181.389519 
L 173.54099 180.665554 
L 172.81861 181.750155 
L 172.577817 181.389519 
L 172.577817 180.665554 
L 172.577817 181.389519 
L 172.337023 181.750155 
L 172.577817 181.750155 
L 172.81861 181.389519 
L 172.81861 180.304917 
L 173.300197 179.583643 
L 174.022577 179.223007 
L 174.98575 179.223007 
L 176.671303 178.86237 
L 179.082069 177.417131 
L 182.453176 175.971893 
L 185.824282 174.168709 
L 189.195388 172.002197 
L 193.291708 170.196322 
L 197.625987 169.11172 
L 202.682647 167.305845 
L 213.280386 160.445672 
L 219.059425 157.557886 
L 224.841298 154.309464 
L 231.101924 151.05835 
L 237.365383 148.531201 
L 243.144423 146.004052 
L 248.926295 143.116267 
L 268.433386 133.00498 
L 274.453219 130.838468 
L 286.736511 127.226718 
L 292.759177 124.699569 
L 298.538217 121.811783 
L 304.076463 119.284635 
L 314.433408 116.394158 
L 319.490068 114.590974 
L 324.54956 112.063825 
L 335.388093 108.452074 
L 340.203959 106.646199 
L 349.597731 102.313175 
L 353.932011 100.867937 
L 358.025497 99.786026 
L 365.974509 96.174276 
L 369.586409 94.371092 
L 372.957516 91.841252 
L 375.365449 88.953466 
L 377.053835 87.871556 
L 378.257801 87.871556 
L 379.461768 86.786954 
L 380.184148 85.341716 
L 380.665735 84.981079 
L 380.906528 85.705044 
L 380.906528 86.426317 
L 380.184148 87.147591 
L 378.980181 86.786954 
L 377.053835 86.426317 
L 374.883862 86.426317 
L 373.679895 87.147591 
L 372.957516 87.871556 
L 372.235136 88.953466 
L 371.031169 89.67474 
L 370.067996 90.038068 
L 368.623236 90.759341 
L 367.419269 92.20458 
L 366.937683 92.565217 
L 366.696889 92.565217 
L 366.696889 92.925853 
L 366.215303 95.813639 
L 366.456096 96.174276 
L 366.696889 96.174276 
L 366.215303 95.813639 
L 365.974509 95.813639 
L 366.696889 95.813639 
L 367.178476 95.453002 
L 367.178476 95.092365 
L 367.178476 95.453002 
L 366.937683 96.174276 
L 366.456096 96.534913 
L 366.456096 96.534913 
L 366.215303 96.534913 
L 365.492923 96.898241 
L 364.529749 96.898241 
L 364.048163 96.534913 
L 364.048163 96.898241 
L 364.529749 97.619514 
L 364.529749 97.258877 
L 363.80737 96.174276 
L 363.325783 96.534913 
L 363.08499 97.258877 
L 362.844196 97.258877 
L 363.08499 96.898241 
L 363.566576 97.619514 
L 364.048163 97.980151 
L 363.566576 96.534913 
L 363.566576 97.619514 
L 363.325783 98.340788 
L 362.844196 97.980151 
L 362.36261 97.258877 
L 362.603403 97.619514 
L 362.118983 98.340788 
L 362.118983 98.340788 
L 362.36261 98.340788 
L 361.87819 99.064753 
L 361.637397 99.786026 
L 361.87819 99.786026 
L 361.87819 99.064753 
L 362.36261 98.340788 
L 362.603403 98.701425 
L 362.36261 99.064753 
L 361.87819 99.064753 
L 361.15581 100.146663 
L 361.15581 100.5073 
L 361.396604 100.867937 
L 361.637397 100.867937 
L 361.87819 100.5073 
L 361.87819 100.146663 
L 361.637397 100.146663 
L 361.15581 99.425389 
L 360.915017 99.425389 
L 360.915017 99.786026 
L 360.915017 99.064753 
L 360.674224 99.064753 
L 360.43343 98.340788 
L 360.192637 98.340788 
L 360.674224 99.064753 
L 360.43343 98.701425 
L 360.192637 97.980151 
L 359.71105 97.619514 
L 359.71105 97.980151 
L 359.951844 98.701425 
L 360.192637 99.064753 
L 360.43343 98.701425 
L 360.674224 97.980151 
L 360.192637 97.258877 
L 360.192637 98.701425 
L 359.951844 98.340788 
L 359.470257 98.701425 
L 359.229464 99.425389 
L 359.229464 98.340788 
L 359.470257 99.064753 
L 359.951844 99.786026 
L 359.951844 99.786026 
L 359.470257 99.786026 
L 358.98867 99.064753 
L 358.747877 99.064753 
L 358.98867 99.425389 
L 358.98867 99.786026 
L 358.507084 99.786026 
L 358.747877 99.425389 
L 358.747877 98.701425 
L 357.54391 98.701425 
L 357.784704 98.340788 
L 358.26629 97.980151 
L 358.26629 97.980151 
L 358.025497 97.980151 
L 358.26629 97.980151 
L 358.747877 97.258877 
L 358.747877 97.980151 
L 358.507084 99.064753 
L 358.025497 99.786026 
L 357.54391 99.425389 
L 357.303117 98.701425 
L 357.062324 98.701425 
L 356.580737 98.340788 
L 356.580737 98.340788 
L 357.062324 98.340788 
L 357.303117 97.980151 
L 357.303117 97.619514 
L 357.303117 98.340788 
L 357.784704 99.064753 
L 358.025497 99.064753 
L 358.26629 98.701425 
L 358.26629 98.701425 
L 358.26629 98.340788 
L 357.062324 98.340788 
L 357.303117 98.340788 
L 357.303117 98.701425 
L 357.54391 99.425389 
L 357.784704 99.786026 
L 357.784704 99.064753 
L 357.784704 99.064753 
L 357.303117 99.064753 
L 357.062324 99.425389 
L 357.062324 99.425389 
L 357.062324 99.064753 
L 357.062324 99.425389 
L 356.821531 99.786026 
L 356.580737 99.786026 
L 356.339944 99.425389 
L 357.062324 99.425389 
L 357.784704 98.340788 
L 357.784704 99.064753 
L 357.54391 99.425389 
L 356.339944 99.425389 
L 356.099151 99.064753 
L 355.858357 98.340788 
L 355.376771 97.980151 
L 355.376771 98.701425 
L 355.858357 98.701425 
L 355.858357 98.701425 
L 355.376771 98.340788 
L 355.376771 98.701425 
L 355.858357 99.425389 
L 356.339944 99.786026 
L 356.339944 99.425389 
L 356.099151 99.064753 
L 356.339944 99.064753 
L 356.339944 99.425389 
L 356.099151 100.146663 
L 356.099151 99.786026 
L 355.858357 99.064753 
L 355.858357 97.980151 
L 355.858357 97.980151 
L 356.099151 98.340788 
L 356.821531 98.340788 
L 356.339944 98.701425 
L 356.099151 98.701425 
L 355.858357 99.064753 
L 356.099151 100.146663 
L 355.617564 98.340788 
L 355.135977 98.701425 
L 354.895184 99.786026 
L 355.135977 100.146663 
L 355.376771 100.146663 
L 355.617564 99.425389 
L 355.135977 97.980151 
L 355.376771 98.340788 
L 355.858357 98.701425 
L 355.858357 98.701425 
L 355.617564 98.340788 
L 355.376771 98.340788 
L 354.895184 97.980151 
L 354.895184 97.619514 
L 355.135977 97.980151 
L 355.376771 97.980151 
L 355.135977 97.980151 
L 354.413597 98.701425 
L 354.654391 99.425389 
L 355.858357 99.425389 
L 355.617564 99.786026 
L 355.376771 99.425389 
L 354.413597 99.064753 
L 354.895184 99.064753 
L 355.617564 99.064753 
L 355.617564 98.701425 
L 355.135977 99.064753 
L 354.895184 99.425389 
L 355.135977 99.786026 
L 355.135977 99.064753 
L 355.135977 99.064753 
L 354.895184 99.425389 
L 354.895184 97.619514 
L 355.376771 97.258877 
L 355.617564 97.980151 
L 355.617564 98.701425 
L 355.135977 99.786026 
L 354.895184 99.786026 
L 354.895184 99.064753 
L 355.376771 98.701425 
L 355.376771 98.701425 
L 355.135977 98.701425 
L 355.376771 98.701425 
L 354.895184 98.340788 
L 354.172804 97.980151 
L 353.932011 97.619514 
L 354.413597 98.340788 
L 354.895184 98.701425 
L 354.413597 98.701425 
L 354.413597 99.064753 
L 354.654391 98.340788 
L 354.895184 97.980151 
L 354.895184 99.064753 
L 354.654391 99.064753 
L 354.654391 98.340788 
L 354.654391 98.340788 
L 355.135977 99.786026 
L 354.654391 99.425389 
L 354.172804 98.701425 
L 353.932011 98.701425 
L 353.932011 99.064753 
L 354.895184 98.340788 
L 354.895184 97.980151 
L 354.654391 97.980151 
L 354.654391 99.425389 
L 354.413597 100.146663 
L 353.932011 99.425389 
L 354.172804 99.064753 
L 354.413597 99.064753 
L 354.413597 99.786026 
L 354.172804 99.425389 
L 354.172804 99.064753 
L 354.413597 98.701425 
L 354.413597 97.258877 
L 354.172804 97.619514 
L 353.932011 98.340788 
L 353.932011 98.701425 
L 354.172804 99.425389 
L 354.654391 99.786026 
L 354.654391 100.5073 
L 354.413597 100.867937 
L 353.691217 100.867937 
L 353.209631 100.146663 
L 353.209631 98.340788 
L 353.450424 98.340788 
L 353.932011 99.786026 
L 354.172804 100.146663 
L 354.172804 99.786026 
L 353.932011 99.064753 
L 353.691217 98.701425 
L 353.932011 98.701425 
L 353.932011 100.146663 
L 353.450424 100.5073 
L 352.968837 100.146663 
L 352.728044 100.146663 
L 352.968837 100.867937 
L 352.968837 100.867937 
L 352.968837 100.146663 
L 353.209631 100.146663 
L 353.209631 100.146663 
L 352.487251 101.231265 
L 352.246458 101.952538 
L 352.246458 101.591901 
L 352.487251 101.231265 
L 352.246458 101.231265 
L 352.246458 101.231265 
L 352.728044 101.591901 
L 352.487251 101.952538 
L 350.560904 102.673812 
L 350.560904 102.673812 
L 350.801698 103.034449 
L 351.042491 103.034449 
L 350.320111 103.034449 
L 350.320111 103.034449 
L 350.079318 103.397777 
L 349.597731 103.758414 
L 349.116144 103.758414 
L 349.116144 103.758414 
L 348.875351 103.397777 
L 349.116144 103.397777 
L 349.116144 104.479687 
L 348.875351 105.200961 
L 348.634558 104.840324 
L 348.634558 104.479687 
L 348.634558 105.200961 
L 348.393764 105.564289 
L 348.634558 104.479687 
L 348.634558 103.758414 
L 348.393764 103.758414 
L 347.909345 104.11905 
L 347.668552 104.840324 
L 347.186965 105.564289 
L 346.946172 105.564289 
L 346.946172 105.200961 
L 346.705378 104.840324 
L 346.705378 104.840324 
L 348.152971 105.564289 
L 348.152971 106.285562 
L 347.668552 106.646199 
L 346.946172 106.285562 
L 346.705378 105.564289 
L 346.464585 105.200961 
L 346.464585 105.200961 
L 346.464585 105.564289 
L 346.223792 106.285562 
L 346.223792 106.646199 
L 346.464585 107.006836 
L 346.946172 106.646199 
L 347.427758 105.924926 
L 347.186965 105.200961 
L 346.946172 104.840324 
L 347.186965 104.479687 
L 347.668552 104.11905 
L 347.427758 104.840324 
L 346.705378 105.564289 
L 345.982998 105.924926 
L 345.742205 105.564289 
L 345.982998 105.200961 
L 346.223792 105.564289 
L 346.223792 105.924926 
L 346.223792 105.564289 
L 345.742205 105.200961 
L 345.019825 104.479687 
L 345.019825 104.479687 
L 345.019825 104.840324 
L 344.779032 104.840324 
L 344.538239 104.479687 
L 344.779032 104.11905 
L 345.742205 103.758414 
L 344.779032 104.479687 
L 344.297445 104.479687 
L 344.538239 104.479687 
L 344.779032 104.11905 
L 345.260618 103.758414 
L 345.260618 104.11905 
L 344.779032 104.479687 
L 344.056652 104.479687 
L 343.815859 104.840324 
L 343.815859 105.564289 
L 343.575065 105.564289 
L 343.575065 104.840324 
L 344.056652 104.479687 
L 344.297445 104.11905 
L 344.056652 103.758414 
L 343.575065 103.758414 
L 343.575065 103.758414 
L 344.538239 104.479687 
L 344.538239 104.840324 
L 344.297445 104.479687 
L 344.538239 104.479687 
L 345.019825 104.11905 
L 345.501412 103.397777 
L 345.260618 103.034449 
L 345.019825 103.034449 
L 344.297445 103.397777 
L 344.056652 104.11905 
L 344.297445 104.11905 
L 344.779032 103.758414 
L 345.260618 103.758414 
L 345.260618 104.11905 
L 345.260618 103.758414 
L 345.019825 103.034449 
L 345.019825 102.673812 
L 344.297445 104.11905 
L 343.815859 103.397777 
L 343.815859 102.673812 
L 344.056652 102.313175 
L 344.538239 101.952538 
L 344.538239 101.952538 
" style="fill:none;stroke:#1f77b4;stroke-linecap:square;stroke-width:1.5;"/>
   </g>
   <g id="matplotlib.axis_1">
    <g id="xtick_1">
     <g id="line2d_2">
      <defs>
       <path d="M 0 0 
L 0 3.5 
" id="ma3567d374a" style="stroke:#000000;stroke-width:0.8;"/>
      </defs>
      <g>
       <use style="stroke:#000000;stroke-width:0.8;" x="106.693933" xlink:href="#ma3567d374a" y="307.584"/>
      </g>
     </g>
     <g id="text_1">
      <!-- 600 -->
      <defs>
       <path d="M 10.59375 35.5 
L 73.1875 35.5 
L 73.1875 27.203125 
L 10.59375 27.203125 
z
" id="DejaVuSans-8722"/>
       <path d="M 33.015625 40.375 
Q 26.375 40.375 22.484375 35.828125 
Q 18.609375 31.296875 18.609375 23.390625 
Q 18.609375 15.53125 22.484375 10.953125 
Q 26.375 6.390625 33.015625 6.390625 
Q 39.65625 6.390625 43.53125 10.953125 
Q 47.40625 15.53125 47.40625 23.390625 
Q 47.40625 31.296875 43.53125 35.828125 
Q 39.65625 40.375 33.015625 40.375 
z
M 52.59375 71.296875 
L 52.59375 62.3125 
Q 48.875 64.0625 45.09375 64.984375 
Q 41.3125 65.921875 37.59375 65.921875 
Q 27.828125 65.921875 22.671875 59.328125 
Q 17.53125 52.734375 16.796875 39.40625 
Q 19.671875 43.65625 24.015625 45.921875 
Q 28.375 48.1875 33.59375 48.1875 
Q 44.578125 48.1875 50.953125 41.515625 
Q 57.328125 34.859375 57.328125 23.390625 
Q 57.328125 12.15625 50.6875 5.359375 
Q 44.046875 -1.421875 33.015625 -1.421875 
Q 20.359375 -1.421875 13.671875 8.265625 
Q 6.984375 17.96875 6.984375 36.375 
Q 6.984375 53.65625 15.1875 63.9375 
Q 23.390625 74.21875 37.203125 74.21875 
Q 40.921875 74.21875 44.703125 73.484375 
Q 48.484375 72.75 52.59375 71.296875 
z
" id="DejaVuSans-54"/>
       <path d="M 31.78125 66.40625 
Q 24.171875 66.40625 20.328125 58.90625 
Q 16.5 51.421875 16.5 36.375 
Q 16.5 21.390625 20.328125 13.890625 
Q 24.171875 6.390625 31.78125 6.390625 
Q 39.453125 6.390625 43.28125 13.890625 
Q 47.125 21.390625 47.125 36.375 
Q 47.125 51.421875 43.28125 58.90625 
Q 39.453125 66.40625 31.78125 66.40625 
z
M 31.78125 74.21875 
Q 44.046875 74.21875 50.515625 64.515625 
Q 56.984375 54.828125 56.984375 36.375 
Q 56.984375 17.96875 50.515625 8.265625 
Q 44.046875 -1.421875 31.78125 -1.421875 
Q 19.53125 -1.421875 13.0625 8.265625 
Q 6.59375 17.96875 6.59375 36.375 
Q 6.59375 54.828125 13.0625 64.515625 
Q 19.53125 74.21875 31.78125 74.21875 
z
" id="DejaVuSans-48"/>
      </defs>
      <g transform="translate(92.960339 322.182437)scale(0.1 -0.1)">
       <use xlink:href="#DejaVuSans-8722"/>
       <use x="83.789062" xlink:href="#DejaVuSans-54"/>
       <use x="147.412109" xlink:href="#DejaVuSans-48"/>
       <use x="211.035156" xlink:href="#DejaVuSans-48"/>
      </g>
     </g>
    </g>
    <g id="xtick_2">
     <g id="line2d_3">
      <g>
       <use style="stroke:#000000;stroke-width:0.8;" x="163.351183" xlink:href="#ma3567d374a" y="307.584"/>
      </g>
     </g>
     <g id="text_2">
      <!-- 400 -->
      <defs>
       <path d="M 37.796875 64.3125 
L 12.890625 25.390625 
L 37.796875 25.390625 
z
M 35.203125 72.90625 
L 47.609375 72.90625 
L 47.609375 25.390625 
L 58.015625 25.390625 
L 58.015625 17.1875 
L 47.609375 17.1875 
L 47.609375 0 
L 37.796875 0 
L 37.796875 17.1875 
L 4.890625 17.1875 
L 4.890625 26.703125 
z
" id="DejaVuSans-52"/>
      </defs>
      <g transform="translate(149.61759 322.182437)scale(0.1 -0.1)">
       <use xlink:href="#DejaVuSans-8722"/>
       <use x="83.789062" xlink:href="#DejaVuSans-52"/>
       <use x="147.412109" xlink:href="#DejaVuSans-48"/>
       <use x="211.035156" xlink:href="#DejaVuSans-48"/>
      </g>
     </g>
    </g>
    <g id="xtick_3">
     <g id="line2d_4">
      <g>
       <use style="stroke:#000000;stroke-width:0.8;" x="220.008434" xlink:href="#ma3567d374a" y="307.584"/>
      </g>
     </g>
     <g id="text_3">
      <!-- 200 -->
      <defs>
       <path d="M 19.1875 8.296875 
L 53.609375 8.296875 
L 53.609375 0 
L 7.328125 0 
L 7.328125 8.296875 
Q 12.9375 14.109375 22.625 23.890625 
Q 32.328125 33.6875 34.8125 36.53125 
Q 39.546875 41.84375 41.421875 45.53125 
Q 43.3125 49.21875 43.3125 52.78125 
Q 43.3125 58.59375 39.234375 62.25 
Q 35.15625 65.921875 28.609375 65.921875 
Q 23.96875 65.921875 18.8125 64.3125 
Q 13.671875 62.703125 7.8125 59.421875 
L 7.8125 69.390625 
Q 13.765625 71.78125 18.9375 73 
Q 24.125 74.21875 28.421875 74.21875 
Q 39.75 74.21875 46.484375 68.546875 
Q 53.21875 62.890625 53.21875 53.421875 
Q 53.21875 48.921875 51.53125 44.890625 
Q 49.859375 40.875 45.40625 35.40625 
Q 44.1875 33.984375 37.640625 27.21875 
Q 31.109375 20.453125 19.1875 8.296875 
z
" id="DejaVuSans-50"/>
      </defs>
      <g transform="translate(206.27484 322.182437)scale(0.1 -0.1)">
       <use xlink:href="#DejaVuSans-8722"/>
       <use x="83.789062" xlink:href="#DejaVuSans-50"/>
       <use x="147.412109" xlink:href="#DejaVuSans-48"/>
       <use x="211.035156" xlink:href="#DejaVuSans-48"/>
      </g>
     </g>
    </g>
    <g id="xtick_4">
     <g id="line2d_5">
      <g>
       <use style="stroke:#000000;stroke-width:0.8;" x="276.665685" xlink:href="#ma3567d374a" y="307.584"/>
      </g>
     </g>
     <g id="text_4">
      <!-- 0 -->
      <g transform="translate(273.484435 322.182437)scale(0.1 -0.1)">
       <use xlink:href="#DejaVuSans-48"/>
      </g>
     </g>
    </g>
    <g id="xtick_5">
     <g id="line2d_6">
      <g>
       <use style="stroke:#000000;stroke-width:0.8;" x="333.322936" xlink:href="#ma3567d374a" y="307.584"/>
      </g>
     </g>
     <g id="text_5">
      <!-- 200 -->
      <g transform="translate(323.779186 322.182437)scale(0.1 -0.1)">
       <use xlink:href="#DejaVuSans-50"/>
       <use x="63.623047" xlink:href="#DejaVuSans-48"/>
       <use x="127.246094" xlink:href="#DejaVuSans-48"/>
      </g>
     </g>
    </g>
    <g id="xtick_6">
     <g id="line2d_7">
      <g>
       <use style="stroke:#000000;stroke-width:0.8;" x="389.980187" xlink:href="#ma3567d374a" y="307.584"/>
      </g>
     </g>
     <g id="text_6">
      <!-- 400 -->
      <g transform="translate(380.436437 322.182437)scale(0.1 -0.1)">
       <use xlink:href="#DejaVuSans-52"/>
       <use x="63.623047" xlink:href="#DejaVuSans-48"/>
       <use x="127.246094" xlink:href="#DejaVuSans-48"/>
      </g>
     </g>
    </g>
   </g>
   <g id="matplotlib.axis_2">
    <g id="ytick_1">
     <g id="line2d_8">
      <defs>
       <path d="M 0 0 
L -3.5 0 
" id="m9744e81022" style="stroke:#000000;stroke-width:0.8;"/>
      </defs>
      <g>
       <use style="stroke:#000000;stroke-width:0.8;" x="57.6" xlink:href="#m9744e81022" y="270.813985"/>
      </g>
     </g>
     <g id="text_7">
      <!-- 800 -->
      <defs>
       <path d="M 31.78125 34.625 
Q 24.75 34.625 20.71875 30.859375 
Q 16.703125 27.09375 16.703125 20.515625 
Q 16.703125 13.921875 20.71875 10.15625 
Q 24.75 6.390625 31.78125 6.390625 
Q 38.8125 6.390625 42.859375 10.171875 
Q 46.921875 13.96875 46.921875 20.515625 
Q 46.921875 27.09375 42.890625 30.859375 
Q 38.875 34.625 31.78125 34.625 
z
M 21.921875 38.8125 
Q 15.578125 40.375 12.03125 44.71875 
Q 8.5 49.078125 8.5 55.328125 
Q 8.5 64.0625 14.71875 69.140625 
Q 20.953125 74.21875 31.78125 74.21875 
Q 42.671875 74.21875 48.875 69.140625 
Q 55.078125 64.0625 55.078125 55.328125 
Q 55.078125 49.078125 51.53125 44.71875 
Q 48 40.375 41.703125 38.8125 
Q 48.828125 37.15625 52.796875 32.3125 
Q 56.78125 27.484375 56.78125 20.515625 
Q 56.78125 9.90625 50.3125 4.234375 
Q 43.84375 -1.421875 31.78125 -1.421875 
Q 19.734375 -1.421875 13.25 4.234375 
Q 6.78125 9.90625 6.78125 20.515625 
Q 6.78125 27.484375 10.78125 32.3125 
Q 14.796875 37.15625 21.921875 38.8125 
z
M 18.3125 54.390625 
Q 18.3125 48.734375 21.84375 45.5625 
Q 25.390625 42.390625 31.78125 42.390625 
Q 38.140625 42.390625 41.71875 45.5625 
Q 45.3125 48.734375 45.3125 54.390625 
Q 45.3125 60.0625 41.71875 63.234375 
Q 38.140625 66.40625 31.78125 66.40625 
Q 25.390625 66.40625 21.84375 63.234375 
Q 18.3125 60.0625 18.3125 54.390625 
z
" id="DejaVuSans-56"/>
      </defs>
      <g transform="translate(23.132812 274.613203)scale(0.1 -0.1)">
       <use xlink:href="#DejaVuSans-8722"/>
       <use x="83.789062" xlink:href="#DejaVuSans-56"/>
       <use x="147.412109" xlink:href="#DejaVuSans-48"/>
       <use x="211.035156" xlink:href="#DejaVuSans-48"/>
      </g>
     </g>
    </g>
    <g id="ytick_2">
     <g id="line2d_9">
      <g>
       <use style="stroke:#000000;stroke-width:0.8;" x="57.6" xlink:href="#m9744e81022" y="216.987599"/>
      </g>
     </g>
     <g id="text_8">
      <!-- 600 -->
      <g transform="translate(23.132812 220.786818)scale(0.1 -0.1)">
       <use xlink:href="#DejaVuSans-8722"/>
       <use x="83.789062" xlink:href="#DejaVuSans-54"/>
       <use x="147.412109" xlink:href="#DejaVuSans-48"/>
       <use x="211.035156" xlink:href="#DejaVuSans-48"/>
      </g>
     </g>
    </g>
    <g id="ytick_3">
     <g id="line2d_10">
      <g>
       <use style="stroke:#000000;stroke-width:0.8;" x="57.6" xlink:href="#m9744e81022" y="163.161213"/>
      </g>
     </g>
     <g id="text_9">
      <!-- 400 -->
      <g transform="translate(23.132812 166.960432)scale(0.1 -0.1)">
       <use xlink:href="#DejaVuSans-8722"/>
       <use x="83.789062" xlink:href="#DejaVuSans-52"/>
       <use x="147.412109" xlink:href="#DejaVuSans-48"/>
       <use x="211.035156" xlink:href="#DejaVuSans-48"/>
      </g>
     </g>
    </g>
    <g id="ytick_4">
     <g id="line2d_11">
      <g>
       <use style="stroke:#000000;stroke-width:0.8;" x="57.6" xlink:href="#m9744e81022" y="109.334827"/>
      </g>
     </g>
     <g id="text_10">
      <!-- 200 -->
      <g transform="translate(23.132812 113.134046)scale(0.1 -0.1)">
       <use xlink:href="#DejaVuSans-8722"/>
       <use x="83.789062" xlink:href="#DejaVuSans-50"/>
       <use x="147.412109" xlink:href="#DejaVuSans-48"/>
       <use x="211.035156" xlink:href="#DejaVuSans-48"/>
      </g>
     </g>
    </g>
    <g id="ytick_5">
     <g id="line2d_12">
      <g>
       <use style="stroke:#000000;stroke-width:0.8;" x="57.6" xlink:href="#m9744e81022" y="55.508441"/>
      </g>
     </g>
     <g id="text_11">
      <!-- 0 -->
      <g transform="translate(44.2375 59.30766)scale(0.1 -0.1)">
       <use xlink:href="#DejaVuSans-48"/>
      </g>
     </g>
    </g>
   </g>
   <g id="line2d_13">
    <path clip-path="url(#p926a29240e)" d="M 79.934517 288.521334 
L 203.299847 198.674335 
L 375.619281 117.99689 
L 205.878897 179.610877 
L 274.696737 76.771603 
L 273.465843 64.568272 
L 381.966123 80.004451 
L 371.034577 98.220204 
L 216.842575 171.77182 
L 191.749087 184.771747 
L 355.574639 99.705498 
" style="fill:none;stroke:#ff0000;stroke-linecap:square;stroke-width:0.5;"/>
   </g>
   <g id="patch_3">
    <path d="M 57.6 307.584 
L 57.6 41.472 
" style="fill:none;stroke:#000000;stroke-linecap:square;stroke-linejoin:miter;stroke-width:0.8;"/>
   </g>
   <g id="patch_4">
    <path d="M 414.72 307.584 
L 414.72 41.472 
" style="fill:none;stroke:#000000;stroke-linecap:square;stroke-linejoin:miter;stroke-width:0.8;"/>
   </g>
   <g id="patch_5">
    <path d="M 57.6 307.584 
L 414.72 307.584 
" style="fill:none;stroke:#000000;stroke-linecap:square;stroke-linejoin:miter;stroke-width:0.8;"/>
   </g>
   <g id="patch_6">
    <path d="M 57.6 41.472 
L 414.72 41.472 
" style="fill:none;stroke:#000000;stroke-linecap:square;stroke-linejoin:miter;stroke-width:0.8;"/>
   </g>
   <g id="PathCollection_1">
    <defs>
     <path d="M 0 2.738613 
C 0.726289 2.738613 1.422928 2.450055 1.936492 1.936492 
C 2.450055 1.422928 2.738613 0.726289 2.738613 0 
C 2.738613 -0.726289 2.450055 -1.422928 1.936492 -1.936492 
C 1.422928 -2.450055 0.726289 -2.738613 0 -2.738613 
C -0.726289 -2.738613 -1.422928 -2.450055 -1.936492 -1.936492 
C -2.450055 -1.422928 -2.738613 -0.726289 -2.738613 0 
C -2.738613 0.726289 -2.450055 1.422928 -1.936492 1.936492 
C -1.422928 2.450055 -0.726289 2.738613 0 2.738613 
z
" id="mfc118990eb" style="stroke:#ff0000;"/>
    </defs>
    <g clip-path="url(#p926a29240e)">
     <use style="fill:#ff0000;stroke:#ff0000;" x="79.934517" xlink:href="#mfc118990eb" y="288.521334"/>
     <use style="fill:#ff0000;stroke:#ff0000;" x="203.299847" xlink:href="#mfc118990eb" y="198.674335"/>
     <use style="fill:#ff0000;stroke:#ff0000;" x="375.619281" xlink:href="#mfc118990eb" y="117.99689"/>
     <use style="fill:#ff0000;stroke:#ff0000;" x="205.878897" xlink:href="#mfc118990eb" y="179.610877"/>
     <use style="fill:#ff0000;stroke:#ff0000;" x="274.696737" xlink:href="#mfc118990eb" y="76.771603"/>
     <use style="fill:#ff0000;stroke:#ff0000;" x="273.465843" xlink:href="#mfc118990eb" y="64.568272"/>
     <use style="fill:#ff0000;stroke:#ff0000;" x="381.966123" xlink:href="#mfc118990eb" y="80.004451"/>
     <use style="fill:#ff0000;stroke:#ff0000;" x="371.034577" xlink:href="#mfc118990eb" y="98.220204"/>
     <use style="fill:#ff0000;stroke:#ff0000;" x="216.842575" xlink:href="#mfc118990eb" y="171.77182"/>
     <use style="fill:#ff0000;stroke:#ff0000;" x="191.749087" xlink:href="#mfc118990eb" y="184.771747"/>
     <use style="fill:#ff0000;stroke:#ff0000;" x="355.574639" xlink:href="#mfc118990eb" y="99.705498"/>
    </g>
   </g>
   <g id="text_12">
    <!-- (39) Subject: s3, Known = False, Degree = 2, Duration = 0.1 -->
    <defs>
     <path d="M 31 75.875 
Q 24.46875 64.65625 21.28125 53.65625 
Q 18.109375 42.671875 18.109375 31.390625 
Q 18.109375 20.125 21.3125 9.0625 
Q 24.515625 -2 31 -13.1875 
L 23.1875 -13.1875 
Q 15.875 -1.703125 12.234375 9.375 
Q 8.59375 20.453125 8.59375 31.390625 
Q 8.59375 42.28125 12.203125 53.3125 
Q 15.828125 64.359375 23.1875 75.875 
z
" id="DejaVuSans-40"/>
     <path d="M 40.578125 39.3125 
Q 47.65625 37.796875 51.625 33 
Q 55.609375 28.21875 55.609375 21.1875 
Q 55.609375 10.40625 48.1875 4.484375 
Q 40.765625 -1.421875 27.09375 -1.421875 
Q 22.515625 -1.421875 17.65625 -0.515625 
Q 12.796875 0.390625 7.625 2.203125 
L 7.625 11.71875 
Q 11.71875 9.328125 16.59375 8.109375 
Q 21.484375 6.890625 26.8125 6.890625 
Q 36.078125 6.890625 40.9375 10.546875 
Q 45.796875 14.203125 45.796875 21.1875 
Q 45.796875 27.640625 41.28125 31.265625 
Q 36.765625 34.90625 28.71875 34.90625 
L 20.21875 34.90625 
L 20.21875 43.015625 
L 29.109375 43.015625 
Q 36.375 43.015625 40.234375 45.921875 
Q 44.09375 48.828125 44.09375 54.296875 
Q 44.09375 59.90625 40.109375 62.90625 
Q 36.140625 65.921875 28.71875 65.921875 
Q 24.65625 65.921875 20.015625 65.03125 
Q 15.375 64.15625 9.8125 62.3125 
L 9.8125 71.09375 
Q 15.4375 72.65625 20.34375 73.4375 
Q 25.25 74.21875 29.59375 74.21875 
Q 40.828125 74.21875 47.359375 69.109375 
Q 53.90625 64.015625 53.90625 55.328125 
Q 53.90625 49.265625 50.4375 45.09375 
Q 46.96875 40.921875 40.578125 39.3125 
z
" id="DejaVuSans-51"/>
     <path d="M 10.984375 1.515625 
L 10.984375 10.5 
Q 14.703125 8.734375 18.5 7.8125 
Q 22.3125 6.890625 25.984375 6.890625 
Q 35.75 6.890625 40.890625 13.453125 
Q 46.046875 20.015625 46.78125 33.40625 
Q 43.953125 29.203125 39.59375 26.953125 
Q 35.25 24.703125 29.984375 24.703125 
Q 19.046875 24.703125 12.671875 31.3125 
Q 6.296875 37.9375 6.296875 49.421875 
Q 6.296875 60.640625 12.9375 67.421875 
Q 19.578125 74.21875 30.609375 74.21875 
Q 43.265625 74.21875 49.921875 64.515625 
Q 56.59375 54.828125 56.59375 36.375 
Q 56.59375 19.140625 48.40625 8.859375 
Q 40.234375 -1.421875 26.421875 -1.421875 
Q 22.703125 -1.421875 18.890625 -0.6875 
Q 15.09375 0.046875 10.984375 1.515625 
z
M 30.609375 32.421875 
Q 37.25 32.421875 41.125 36.953125 
Q 45.015625 41.5 45.015625 49.421875 
Q 45.015625 57.28125 41.125 61.84375 
Q 37.25 66.40625 30.609375 66.40625 
Q 23.96875 66.40625 20.09375 61.84375 
Q 16.21875 57.28125 16.21875 49.421875 
Q 16.21875 41.5 20.09375 36.953125 
Q 23.96875 32.421875 30.609375 32.421875 
z
" id="DejaVuSans-57"/>
     <path d="M 8.015625 75.875 
L 15.828125 75.875 
Q 23.140625 64.359375 26.78125 53.3125 
Q 30.421875 42.28125 30.421875 31.390625 
Q 30.421875 20.453125 26.78125 9.375 
Q 23.140625 -1.703125 15.828125 -13.1875 
L 8.015625 -13.1875 
Q 14.5 -2 17.703125 9.0625 
Q 20.90625 20.125 20.90625 31.390625 
Q 20.90625 42.671875 17.703125 53.65625 
Q 14.5 64.65625 8.015625 75.875 
z
" id="DejaVuSans-41"/>
     <path id="DejaVuSans-32"/>
     <path d="M 53.515625 70.515625 
L 53.515625 60.890625 
Q 47.90625 63.578125 42.921875 64.890625 
Q 37.9375 66.21875 33.296875 66.21875 
Q 25.25 66.21875 20.875 63.09375 
Q 16.5 59.96875 16.5 54.203125 
Q 16.5 49.359375 19.40625 46.890625 
Q 22.3125 44.4375 30.421875 42.921875 
L 36.375 41.703125 
Q 47.40625 39.59375 52.65625 34.296875 
Q 57.90625 29 57.90625 20.125 
Q 57.90625 9.515625 50.796875 4.046875 
Q 43.703125 -1.421875 29.984375 -1.421875 
Q 24.8125 -1.421875 18.96875 -0.25 
Q 13.140625 0.921875 6.890625 3.21875 
L 6.890625 13.375 
Q 12.890625 10.015625 18.65625 8.296875 
Q 24.421875 6.59375 29.984375 6.59375 
Q 38.421875 6.59375 43.015625 9.90625 
Q 47.609375 13.234375 47.609375 19.390625 
Q 47.609375 24.75 44.3125 27.78125 
Q 41.015625 30.8125 33.5 32.328125 
L 27.484375 33.5 
Q 16.453125 35.6875 11.515625 40.375 
Q 6.59375 45.0625 6.59375 53.421875 
Q 6.59375 63.09375 13.40625 68.65625 
Q 20.21875 74.21875 32.171875 74.21875 
Q 37.3125 74.21875 42.625 73.28125 
Q 47.953125 72.359375 53.515625 70.515625 
z
" id="DejaVuSans-83"/>
     <path d="M 8.5 21.578125 
L 8.5 54.6875 
L 17.484375 54.6875 
L 17.484375 21.921875 
Q 17.484375 14.15625 20.5 10.265625 
Q 23.53125 6.390625 29.59375 6.390625 
Q 36.859375 6.390625 41.078125 11.03125 
Q 45.3125 15.671875 45.3125 23.6875 
L 45.3125 54.6875 
L 54.296875 54.6875 
L 54.296875 0 
L 45.3125 0 
L 45.3125 8.40625 
Q 42.046875 3.421875 37.71875 1 
Q 33.40625 -1.421875 27.6875 -1.421875 
Q 18.265625 -1.421875 13.375 4.4375 
Q 8.5 10.296875 8.5 21.578125 
z
M 31.109375 56 
z
" id="DejaVuSans-117"/>
     <path d="M 48.6875 27.296875 
Q 48.6875 37.203125 44.609375 42.84375 
Q 40.53125 48.484375 33.40625 48.484375 
Q 26.265625 48.484375 22.1875 42.84375 
Q 18.109375 37.203125 18.109375 27.296875 
Q 18.109375 17.390625 22.1875 11.75 
Q 26.265625 6.109375 33.40625 6.109375 
Q 40.53125 6.109375 44.609375 11.75 
Q 48.6875 17.390625 48.6875 27.296875 
z
M 18.109375 46.390625 
Q 20.953125 51.265625 25.265625 53.625 
Q 29.59375 56 35.59375 56 
Q 45.5625 56 51.78125 48.09375 
Q 58.015625 40.1875 58.015625 27.296875 
Q 58.015625 14.40625 51.78125 6.484375 
Q 45.5625 -1.421875 35.59375 -1.421875 
Q 29.59375 -1.421875 25.265625 0.953125 
Q 20.953125 3.328125 18.109375 8.203125 
L 18.109375 0 
L 9.078125 0 
L 9.078125 75.984375 
L 18.109375 75.984375 
z
" id="DejaVuSans-98"/>
     <path d="M 9.421875 54.6875 
L 18.40625 54.6875 
L 18.40625 -0.984375 
Q 18.40625 -11.421875 14.421875 -16.109375 
Q 10.453125 -20.796875 1.609375 -20.796875 
L -1.8125 -20.796875 
L -1.8125 -13.1875 
L 0.59375 -13.1875 
Q 5.71875 -13.1875 7.5625 -10.8125 
Q 9.421875 -8.453125 9.421875 -0.984375 
z
M 9.421875 75.984375 
L 18.40625 75.984375 
L 18.40625 64.59375 
L 9.421875 64.59375 
z
" id="DejaVuSans-106"/>
     <path d="M 56.203125 29.59375 
L 56.203125 25.203125 
L 14.890625 25.203125 
Q 15.484375 15.921875 20.484375 11.0625 
Q 25.484375 6.203125 34.421875 6.203125 
Q 39.59375 6.203125 44.453125 7.46875 
Q 49.3125 8.734375 54.109375 11.28125 
L 54.109375 2.78125 
Q 49.265625 0.734375 44.1875 -0.34375 
Q 39.109375 -1.421875 33.890625 -1.421875 
Q 20.796875 -1.421875 13.15625 6.1875 
Q 5.515625 13.8125 5.515625 26.8125 
Q 5.515625 40.234375 12.765625 48.109375 
Q 20.015625 56 32.328125 56 
Q 43.359375 56 49.78125 48.890625 
Q 56.203125 41.796875 56.203125 29.59375 
z
M 47.21875 32.234375 
Q 47.125 39.59375 43.09375 43.984375 
Q 39.0625 48.390625 32.421875 48.390625 
Q 24.90625 48.390625 20.390625 44.140625 
Q 15.875 39.890625 15.1875 32.171875 
z
" id="DejaVuSans-101"/>
     <path d="M 48.78125 52.59375 
L 48.78125 44.1875 
Q 44.96875 46.296875 41.140625 47.34375 
Q 37.3125 48.390625 33.40625 48.390625 
Q 24.65625 48.390625 19.8125 42.84375 
Q 14.984375 37.3125 14.984375 27.296875 
Q 14.984375 17.28125 19.8125 11.734375 
Q 24.65625 6.203125 33.40625 6.203125 
Q 37.3125 6.203125 41.140625 7.25 
Q 44.96875 8.296875 48.78125 10.40625 
L 48.78125 2.09375 
Q 45.015625 0.34375 40.984375 -0.53125 
Q 36.96875 -1.421875 32.421875 -1.421875 
Q 20.0625 -1.421875 12.78125 6.34375 
Q 5.515625 14.109375 5.515625 27.296875 
Q 5.515625 40.671875 12.859375 48.328125 
Q 20.21875 56 33.015625 56 
Q 37.15625 56 41.109375 55.140625 
Q 45.0625 54.296875 48.78125 52.59375 
z
" id="DejaVuSans-99"/>
     <path d="M 18.3125 70.21875 
L 18.3125 54.6875 
L 36.8125 54.6875 
L 36.8125 47.703125 
L 18.3125 47.703125 
L 18.3125 18.015625 
Q 18.3125 11.328125 20.140625 9.421875 
Q 21.96875 7.515625 27.59375 7.515625 
L 36.8125 7.515625 
L 36.8125 0 
L 27.59375 0 
Q 17.1875 0 13.234375 3.875 
Q 9.28125 7.765625 9.28125 18.015625 
L 9.28125 47.703125 
L 2.6875 47.703125 
L 2.6875 54.6875 
L 9.28125 54.6875 
L 9.28125 70.21875 
z
" id="DejaVuSans-116"/>
     <path d="M 11.71875 12.40625 
L 22.015625 12.40625 
L 22.015625 0 
L 11.71875 0 
z
M 11.71875 51.703125 
L 22.015625 51.703125 
L 22.015625 39.3125 
L 11.71875 39.3125 
z
" id="DejaVuSans-58"/>
     <path d="M 44.28125 53.078125 
L 44.28125 44.578125 
Q 40.484375 46.53125 36.375 47.5 
Q 32.28125 48.484375 27.875 48.484375 
Q 21.1875 48.484375 17.84375 46.4375 
Q 14.5 44.390625 14.5 40.28125 
Q 14.5 37.15625 16.890625 35.375 
Q 19.28125 33.59375 26.515625 31.984375 
L 29.59375 31.296875 
Q 39.15625 29.25 43.1875 25.515625 
Q 47.21875 21.78125 47.21875 15.09375 
Q 47.21875 7.46875 41.1875 3.015625 
Q 35.15625 -1.421875 24.609375 -1.421875 
Q 20.21875 -1.421875 15.453125 -0.5625 
Q 10.6875 0.296875 5.421875 2 
L 5.421875 11.28125 
Q 10.40625 8.6875 15.234375 7.390625 
Q 20.0625 6.109375 24.8125 6.109375 
Q 31.15625 6.109375 34.5625 8.28125 
Q 37.984375 10.453125 37.984375 14.40625 
Q 37.984375 18.0625 35.515625 20.015625 
Q 33.0625 21.96875 24.703125 23.78125 
L 21.578125 24.515625 
Q 13.234375 26.265625 9.515625 29.90625 
Q 5.8125 33.546875 5.8125 39.890625 
Q 5.8125 47.609375 11.28125 51.796875 
Q 16.75 56 26.8125 56 
Q 31.78125 56 36.171875 55.265625 
Q 40.578125 54.546875 44.28125 53.078125 
z
" id="DejaVuSans-115"/>
     <path d="M 11.71875 12.40625 
L 22.015625 12.40625 
L 22.015625 4 
L 14.015625 -11.625 
L 7.71875 -11.625 
L 11.71875 4 
z
" id="DejaVuSans-44"/>
     <path d="M 9.8125 72.90625 
L 19.671875 72.90625 
L 19.671875 42.09375 
L 52.390625 72.90625 
L 65.09375 72.90625 
L 28.90625 38.921875 
L 67.671875 0 
L 54.6875 0 
L 19.671875 35.109375 
L 19.671875 0 
L 9.8125 0 
z
" id="DejaVuSans-75"/>
     <path d="M 54.890625 33.015625 
L 54.890625 0 
L 45.90625 0 
L 45.90625 32.71875 
Q 45.90625 40.484375 42.875 44.328125 
Q 39.84375 48.1875 33.796875 48.1875 
Q 26.515625 48.1875 22.3125 43.546875 
Q 18.109375 38.921875 18.109375 30.90625 
L 18.109375 0 
L 9.078125 0 
L 9.078125 54.6875 
L 18.109375 54.6875 
L 18.109375 46.1875 
Q 21.34375 51.125 25.703125 53.5625 
Q 30.078125 56 35.796875 56 
Q 45.21875 56 50.046875 50.171875 
Q 54.890625 44.34375 54.890625 33.015625 
z
" id="DejaVuSans-110"/>
     <path d="M 30.609375 48.390625 
Q 23.390625 48.390625 19.1875 42.75 
Q 14.984375 37.109375 14.984375 27.296875 
Q 14.984375 17.484375 19.15625 11.84375 
Q 23.34375 6.203125 30.609375 6.203125 
Q 37.796875 6.203125 41.984375 11.859375 
Q 46.1875 17.53125 46.1875 27.296875 
Q 46.1875 37.015625 41.984375 42.703125 
Q 37.796875 48.390625 30.609375 48.390625 
z
M 30.609375 56 
Q 42.328125 56 49.015625 48.375 
Q 55.71875 40.765625 55.71875 27.296875 
Q 55.71875 13.875 49.015625 6.21875 
Q 42.328125 -1.421875 30.609375 -1.421875 
Q 18.84375 -1.421875 12.171875 6.21875 
Q 5.515625 13.875 5.515625 27.296875 
Q 5.515625 40.765625 12.171875 48.375 
Q 18.84375 56 30.609375 56 
z
" id="DejaVuSans-111"/>
     <path d="M 4.203125 54.6875 
L 13.1875 54.6875 
L 24.421875 12.015625 
L 35.59375 54.6875 
L 46.1875 54.6875 
L 57.421875 12.015625 
L 68.609375 54.6875 
L 77.59375 54.6875 
L 63.28125 0 
L 52.6875 0 
L 40.921875 44.828125 
L 29.109375 0 
L 18.5 0 
z
" id="DejaVuSans-119"/>
     <path d="M 10.59375 45.40625 
L 73.1875 45.40625 
L 73.1875 37.203125 
L 10.59375 37.203125 
z
M 10.59375 25.484375 
L 73.1875 25.484375 
L 73.1875 17.1875 
L 10.59375 17.1875 
z
" id="DejaVuSans-61"/>
     <path d="M 9.8125 72.90625 
L 51.703125 72.90625 
L 51.703125 64.59375 
L 19.671875 64.59375 
L 19.671875 43.109375 
L 48.578125 43.109375 
L 48.578125 34.8125 
L 19.671875 34.8125 
L 19.671875 0 
L 9.8125 0 
z
" id="DejaVuSans-70"/>
     <path d="M 34.28125 27.484375 
Q 23.390625 27.484375 19.1875 25 
Q 14.984375 22.515625 14.984375 16.5 
Q 14.984375 11.71875 18.140625 8.90625 
Q 21.296875 6.109375 26.703125 6.109375 
Q 34.1875 6.109375 38.703125 11.40625 
Q 43.21875 16.703125 43.21875 25.484375 
L 43.21875 27.484375 
z
M 52.203125 31.203125 
L 52.203125 0 
L 43.21875 0 
L 43.21875 8.296875 
Q 40.140625 3.328125 35.546875 0.953125 
Q 30.953125 -1.421875 24.3125 -1.421875 
Q 15.921875 -1.421875 10.953125 3.296875 
Q 6 8.015625 6 15.921875 
Q 6 25.140625 12.171875 29.828125 
Q 18.359375 34.515625 30.609375 34.515625 
L 43.21875 34.515625 
L 43.21875 35.40625 
Q 43.21875 41.609375 39.140625 45 
Q 35.0625 48.390625 27.6875 48.390625 
Q 23 48.390625 18.546875 47.265625 
Q 14.109375 46.140625 10.015625 43.890625 
L 10.015625 52.203125 
Q 14.9375 54.109375 19.578125 55.046875 
Q 24.21875 56 28.609375 56 
Q 40.484375 56 46.34375 49.84375 
Q 52.203125 43.703125 52.203125 31.203125 
z
" id="DejaVuSans-97"/>
     <path d="M 9.421875 75.984375 
L 18.40625 75.984375 
L 18.40625 0 
L 9.421875 0 
z
" id="DejaVuSans-108"/>
     <path d="M 19.671875 64.796875 
L 19.671875 8.109375 
L 31.59375 8.109375 
Q 46.6875 8.109375 53.6875 14.9375 
Q 60.6875 21.78125 60.6875 36.53125 
Q 60.6875 51.171875 53.6875 57.984375 
Q 46.6875 64.796875 31.59375 64.796875 
z
M 9.8125 72.90625 
L 30.078125 72.90625 
Q 51.265625 72.90625 61.171875 64.09375 
Q 71.09375 55.28125 71.09375 36.53125 
Q 71.09375 17.671875 61.125 8.828125 
Q 51.171875 0 30.078125 0 
L 9.8125 0 
z
" id="DejaVuSans-68"/>
     <path d="M 45.40625 27.984375 
Q 45.40625 37.75 41.375 43.109375 
Q 37.359375 48.484375 30.078125 48.484375 
Q 22.859375 48.484375 18.828125 43.109375 
Q 14.796875 37.75 14.796875 27.984375 
Q 14.796875 18.265625 18.828125 12.890625 
Q 22.859375 7.515625 30.078125 7.515625 
Q 37.359375 7.515625 41.375 12.890625 
Q 45.40625 18.265625 45.40625 27.984375 
z
M 54.390625 6.78125 
Q 54.390625 -7.171875 48.1875 -13.984375 
Q 42 -20.796875 29.203125 -20.796875 
Q 24.46875 -20.796875 20.265625 -20.09375 
Q 16.0625 -19.390625 12.109375 -17.921875 
L 12.109375 -9.1875 
Q 16.0625 -11.328125 19.921875 -12.34375 
Q 23.78125 -13.375 27.78125 -13.375 
Q 36.625 -13.375 41.015625 -8.765625 
Q 45.40625 -4.15625 45.40625 5.171875 
L 45.40625 9.625 
Q 42.625 4.78125 38.28125 2.390625 
Q 33.9375 0 27.875 0 
Q 17.828125 0 11.671875 7.65625 
Q 5.515625 15.328125 5.515625 27.984375 
Q 5.515625 40.671875 11.671875 48.328125 
Q 17.828125 56 27.875 56 
Q 33.9375 56 38.28125 53.609375 
Q 42.625 51.21875 45.40625 46.390625 
L 45.40625 54.6875 
L 54.390625 54.6875 
z
" id="DejaVuSans-103"/>
     <path d="M 41.109375 46.296875 
Q 39.59375 47.171875 37.8125 47.578125 
Q 36.03125 48 33.890625 48 
Q 26.265625 48 22.1875 43.046875 
Q 18.109375 38.09375 18.109375 28.8125 
L 18.109375 0 
L 9.078125 0 
L 9.078125 54.6875 
L 18.109375 54.6875 
L 18.109375 46.1875 
Q 20.953125 51.171875 25.484375 53.578125 
Q 30.03125 56 36.53125 56 
Q 37.453125 56 38.578125 55.875 
Q 39.703125 55.765625 41.0625 55.515625 
z
" id="DejaVuSans-114"/>
     <path d="M 9.421875 54.6875 
L 18.40625 54.6875 
L 18.40625 0 
L 9.421875 0 
z
M 9.421875 75.984375 
L 18.40625 75.984375 
L 18.40625 64.59375 
L 9.421875 64.59375 
z
" id="DejaVuSans-105"/>
     <path d="M 10.6875 12.40625 
L 21 12.40625 
L 21 0 
L 10.6875 0 
z
" id="DejaVuSans-46"/>
     <path d="M 12.40625 8.296875 
L 28.515625 8.296875 
L 28.515625 63.921875 
L 10.984375 60.40625 
L 10.984375 69.390625 
L 28.421875 72.90625 
L 38.28125 72.90625 
L 38.28125 8.296875 
L 54.390625 8.296875 
L 54.390625 0 
L 12.40625 0 
z
" id="DejaVuSans-49"/>
    </defs>
    <g transform="translate(53.559375 35.472)scale(0.12 -0.12)">
     <use xlink:href="#DejaVuSans-40"/>
     <use x="39.013672" xlink:href="#DejaVuSans-51"/>
     <use x="102.636719" xlink:href="#DejaVuSans-57"/>
     <use x="166.259766" xlink:href="#DejaVuSans-41"/>
     <use x="205.273438" xlink:href="#DejaVuSans-32"/>
     <use x="237.060547" xlink:href="#DejaVuSans-83"/>
     <use x="300.537109" xlink:href="#DejaVuSans-117"/>
     <use x="363.916016" xlink:href="#DejaVuSans-98"/>
     <use x="427.392578" xlink:href="#DejaVuSans-106"/>
     <use x="455.175781" xlink:href="#DejaVuSans-101"/>
     <use x="516.699219" xlink:href="#DejaVuSans-99"/>
     <use x="571.679688" xlink:href="#DejaVuSans-116"/>
     <use x="610.888672" xlink:href="#DejaVuSans-58"/>
     <use x="644.580078" xlink:href="#DejaVuSans-32"/>
     <use x="676.367188" xlink:href="#DejaVuSans-115"/>
     <use x="728.466797" xlink:href="#DejaVuSans-51"/>
     <use x="792.089844" xlink:href="#DejaVuSans-44"/>
     <use x="823.876953" xlink:href="#DejaVuSans-32"/>
     <use x="855.664062" xlink:href="#DejaVuSans-75"/>
     <use x="921.240234" xlink:href="#DejaVuSans-110"/>
     <use x="984.619141" xlink:href="#DejaVuSans-111"/>
     <use x="1045.800781" xlink:href="#DejaVuSans-119"/>
     <use x="1127.587891" xlink:href="#DejaVuSans-110"/>
     <use x="1190.966797" xlink:href="#DejaVuSans-32"/>
     <use x="1222.753906" xlink:href="#DejaVuSans-61"/>
     <use x="1306.542969" xlink:href="#DejaVuSans-32"/>
     <use x="1338.330078" xlink:href="#DejaVuSans-70"/>
     <use x="1395.708984" xlink:href="#DejaVuSans-97"/>
     <use x="1456.988281" xlink:href="#DejaVuSans-108"/>
     <use x="1484.771484" xlink:href="#DejaVuSans-115"/>
     <use x="1536.871094" xlink:href="#DejaVuSans-101"/>
     <use x="1598.394531" xlink:href="#DejaVuSans-44"/>
     <use x="1630.181641" xlink:href="#DejaVuSans-32"/>
     <use x="1661.96875" xlink:href="#DejaVuSans-68"/>
     <use x="1738.970703" xlink:href="#DejaVuSans-101"/>
     <use x="1800.494141" xlink:href="#DejaVuSans-103"/>
     <use x="1863.970703" xlink:href="#DejaVuSans-114"/>
     <use x="1905.052734" xlink:href="#DejaVuSans-101"/>
     <use x="1966.576172" xlink:href="#DejaVuSans-101"/>
     <use x="2028.099609" xlink:href="#DejaVuSans-32"/>
     <use x="2059.886719" xlink:href="#DejaVuSans-61"/>
     <use x="2143.675781" xlink:href="#DejaVuSans-32"/>
     <use x="2175.462891" xlink:href="#DejaVuSans-50"/>
     <use x="2239.085938" xlink:href="#DejaVuSans-44"/>
     <use x="2270.873047" xlink:href="#DejaVuSans-32"/>
     <use x="2302.660156" xlink:href="#DejaVuSans-68"/>
     <use x="2379.662109" xlink:href="#DejaVuSans-117"/>
     <use x="2443.041016" xlink:href="#DejaVuSans-114"/>
     <use x="2484.154297" xlink:href="#DejaVuSans-97"/>
     <use x="2545.433594" xlink:href="#DejaVuSans-116"/>
     <use x="2584.642578" xlink:href="#DejaVuSans-105"/>
     <use x="2612.425781" xlink:href="#DejaVuSans-111"/>
     <use x="2673.607422" xlink:href="#DejaVuSans-110"/>
     <use x="2736.986328" xlink:href="#DejaVuSans-32"/>
     <use x="2768.773438" xlink:href="#DejaVuSans-61"/>
     <use x="2852.5625" xlink:href="#DejaVuSans-32"/>
     <use x="2884.349609" xlink:href="#DejaVuSans-48"/>
     <use x="2947.972656" xlink:href="#DejaVuSans-46"/>
     <use x="2979.759766" xlink:href="#DejaVuSans-49"/>
    </g>
   </g>
  </g>
 </g>
 <defs>
  <clipPath id="p926a29240e">
   <rect height="266.112" width="357.12" x="57.6" y="41.472"/>
  </clipPath>
 </defs>
</svg>
