<?xml version="1.0" encoding="utf-8" standalone="no"?>
<!DOCTYPE svg PUBLIC "-//W3C//DTD SVG 1.1//EN"
  "http://www.w3.org/Graphics/SVG/1.1/DTD/svg11.dtd">
<!-- Created with matplotlib (https://matplotlib.org/) -->
<svg height="345.6pt" version="1.1" viewBox="0 0 460.8 345.6" width="460.8pt" xmlns="http://www.w3.org/2000/svg" xmlns:xlink="http://www.w3.org/1999/xlink">
 <defs>
  <style type="text/css">
*{stroke-linecap:butt;stroke-linejoin:round;}
  </style>
 </defs>
 <g id="figure_1">
  <g id="patch_1">
   <path d="M 0 345.6 
L 460.8 345.6 
L 460.8 0 
L 0 0 
z
" style="fill:#ffffff;"/>
  </g>
  <g id="axes_1">
   <g id="patch_2">
    <path d="M 57.6 307.584 
L 414.72 307.584 
L 414.72 41.472 
L 57.6 41.472 
z
" style="fill:#ffffff;"/>
   </g>
   <g id="line2d_1">
    <path clip-path="url(#p7d60dc1f91)" d="M 398.032751 294.942429 
L 397.91912 294.942429 
L 397.80549 295.215214 
L 397.80549 295.215214 
L 398.032751 295.488 
L 398.146381 295.215214 
L 398.260012 294.400267 
L 398.373642 294.400267 
L 398.487273 294.669643 
L 398.260012 293.854696 
L 398.260012 293.854696 
L 398.260012 293.58191 
L 398.373642 293.309124 
L 398.373642 292.766963 
L 398.146381 292.766963 
L 398.260012 293.309124 
L 398.146381 293.58191 
L 398.146381 293.309124 
L 397.80549 292.221391 
L 397.350968 291.948606 
L 397.350968 292.494177 
L 397.691859 294.127481 
L 397.578229 293.309124 
L 397.578229 292.766963 
L 397.80549 292.766963 
L 397.91912 293.309124 
L 397.80549 293.58191 
L 397.464598 293.309124 
L 397.237338 292.221391 
L 396.896446 292.766963 
L 397.010077 293.039748 
L 397.350968 291.948606 
L 397.350968 291.133658 
L 397.237338 290.588087 
L 396.896446 290.860873 
L 396.896446 290.860873 
L 396.782816 290.860873 
L 396.669185 290.588087 
L 396.669185 290.588087 
L 396.669185 291.133658 
L 396.782816 291.67923 
L 396.669185 291.948606 
L 397.010077 290.860873 
L 397.123707 289.77314 
L 396.896446 289.77314 
L 396.782816 290.860873 
L 396.896446 291.67923 
L 396.782816 291.67923 
L 396.444995 290.860873 
L 396.331365 290.045925 
L 396.444995 290.045925 
L 396.444995 290.588087 
L 396.558626 290.318711 
L 396.444995 290.318711 
L 396.217734 289.77314 
L 396.217734 289.227568 
L 396.444995 289.500354 
L 396.558626 290.318711 
L 396.444995 290.318711 
L 396.444995 289.500354 
L 396.331365 288.958192 
L 395.876843 288.412621 
L 395.535952 288.412621 
L 395.535952 288.139835 
L 395.990473 289.227568 
L 395.990473 289.77314 
L 395.649582 290.045925 
L 395.422321 289.500354 
L 395.422321 288.958192 
L 395.649582 288.412621 
L 395.763212 288.685407 
L 395.649582 288.685407 
L 395.535952 288.685407 
L 395.535952 288.412621 
L 395.422321 288.412621 
L 395.308691 289.227568 
L 395.422321 288.685407 
L 395.649582 287.867049 
L 395.649582 287.052102 
L 395.308691 289.227568 
L 395.08143 289.500354 
L 394.854169 289.227568 
L 394.854169 289.227568 
L 394.854169 288.958192 
L 394.967799 288.685407 
L 394.967799 288.139835 
L 394.967799 288.412621 
L 395.422321 290.318711 
L 395.08143 289.500354 
L 394.740538 289.500354 
L 394.399647 289.227568 
L 394.626908 289.500354 
L 395.422321 290.318711 
L 395.19506 290.860873 
L 395.08143 290.318711 
L 395.19506 289.500354 
L 395.422321 289.77314 
L 395.19506 289.227568 
L 394.967799 288.139835 
L 394.626908 288.685407 
L 394.967799 289.500354 
L 394.854169 289.227568 
L 395.19506 287.324888 
L 395.308691 287.597674 
L 395.308691 288.412621 
L 395.19506 288.685407 
L 394.967799 288.412621 
L 395.308691 287.867049 
L 395.535952 288.139835 
L 395.308691 289.77314 
L 394.854169 288.958192 
L 394.854169 289.500354 
L 394.967799 290.045925 
L 394.967799 290.318711 
L 394.740538 288.685407 
L 394.854169 288.958192 
L 394.854169 288.958192 
L 394.399647 288.958192 
L 394.740538 289.227568 
L 394.967799 289.227568 
L 394.626908 288.958192 
L 394.513277 288.412621 
L 394.626908 288.139835 
L 394.740538 288.685407 
L 394.967799 289.227568 
L 394.854169 289.500354 
L 394.513277 288.958192 
L 394.740538 288.958192 
L 394.740538 288.139835 
L 394.854169 288.139835 
L 394.854169 288.139835 
L 394.286016 286.779316 
L 393.945125 286.779316 
L 393.380044 286.237155 
L 392.471 284.873226 
L 391.107434 283.512708 
L 383.503406 278.070633 
L 379.756671 274.807434 
L 375.896306 270.995254 
L 371.58449 267.186483 
L 361.253331 257.390067 
L 355.237058 251.947992 
L 348.993524 245.960346 
L 336.620087 232.627945 
L 330.376553 225.552566 
L 316.869882 210.58345 
L 296.889346 187.454632 
L 284.178088 173.57666 
L 271.463759 159.971473 
L 264.992965 153.438255 
L 253.30131 143.369053 
L 247.85319 138.199764 
L 236.840247 127.042829 
L 231.846649 122.688487 
L 222.197272 113.437642 
L 217.999086 108.810515 
L 206.080171 94.659756 
L 202.787959 89.217681 
L 201.424393 86.76943 
L 200.060827 83.230035 
L 199.723007 82.142302 
L 199.609376 81.327355 
L 199.836637 80.781784 
L 200.969871 79.694051 
L 201.765284 80.236212 
L 202.901589 81.596731 
L 203.35304 81.869517 
L 203.807562 82.415088 
L 203.580301 82.142302 
L 203.46667 82.687874 
L 203.46667 83.502821 
L 203.239409 83.775607 
L 202.787959 83.775607 
L 202.219806 83.502821 
L 201.878915 82.960659 
L 201.424393 83.502821 
L 200.62898 81.327355 
L 199.723007 80.781784 
L 199.495746 80.781784 
L 199.382115 81.327355 
L 199.609376 81.054569 
L 200.174458 79.148479 
L 200.174458 79.148479 
L 200.060827 78.875694 
L 199.836637 77.515175 
L 199.950268 78.060746 
L 199.723007 78.606318 
L 199.495746 78.333532 
L 199.723007 78.606318 
L 199.836637 78.333532 
L 199.836637 76.973013 
L 199.836637 76.973013 
L 199.609376 76.973013 
L 199.041224 78.060746 
L 198.927594 77.515175 
L 199.041224 76.700228 
L 199.382115 75.88528 
L 199.041224 76.427442 
L 199.041224 75.88528 
L 198.927594 75.066923 
L 198.927594 75.066923 
L 199.041224 75.066923 
L 199.268485 75.339709 
L 199.268485 75.612495 
L 199.041224 75.88528 
L 198.473072 75.612495 
L 198.13218 75.066923 
L 198.359441 74.524762 
L 198.359441 74.524762 
L 198.13218 73.433619 
L 197.791289 73.433619 
L 198.13218 73.97919 
L 198.245811 73.97919 
L 197.904919 73.97919 
L 197.791289 73.433619 
L 197.564028 72.891457 
L 197.223136 73.706404 
L 197.564028 73.164243 
L 197.791289 72.891457 
L 197.791289 72.891457 
L 197.564028 72.618671 
L 197.109506 72.618671 
L 197.109506 72.618671 
L 196.771686 73.164243 
L 196.771686 72.891457 
L 197.223136 72.891457 
L 197.564028 72.618671 
L 197.564028 72.345886 
L 197.223136 72.345886 
L 196.771686 73.164243 
L 196.771686 73.164243 
L 197.109506 73.164243 
L 197.109506 72.891457 
L 197.109506 73.164243 
L 197.223136 72.891457 
L 196.885316 73.433619 
L 197.109506 72.345886 
L 197.109506 72.345886 
L 197.109506 73.706404 
L 197.109506 72.0731 
L 196.998947 72.345886 
L 196.771686 73.706404 
L 196.885316 73.433619 
L 197.223136 72.891457 
L 197.223136 72.618671 
L 197.223136 72.618671 
L 197.109506 72.618671 
L 196.771686 71.800314 
L 196.771686 71.258153 
L 197.109506 72.0731 
L 197.450397 72.0731 
L 197.450397 71.800314 
L 196.885316 71.800314 
L 197.336767 71.800314 
L 197.450397 72.345886 
L 197.336767 72.618671 
L 196.998947 72.0731 
L 196.885316 72.0731 
L 196.771686 71.800314 
L 196.885316 72.0731 
L 197.223136 72.345886 
L 197.564028 72.0731 
L 197.791289 71.258153 
L 197.564028 72.0731 
L 197.223136 72.618671 
L 197.109506 72.345886 
L 197.109506 71.800314 
L 197.223136 71.800314 
L 197.336767 72.0731 
L 197.336767 71.800314 
L 196.998947 70.439796 
L 196.998947 70.17042 
L 197.109506 70.439796 
L 197.223136 70.985367 
L 197.336767 70.985367 
L 197.336767 70.712581 
L 197.336767 71.258153 
L 197.223136 71.258153 
L 196.885316 70.985367 
L 196.544425 70.439796 
L 196.658055 70.712581 
L 196.998947 70.712581 
L 197.336767 70.985367 
L 197.336767 70.985367 
L 197.336767 71.530938 
L 197.109506 71.530938 
L 197.109506 70.712581 
L 197.223136 70.985367 
L 197.109506 71.258153 
L 196.544425 71.258153 
L 195.976272 70.985367 
L 194.839968 70.17042 
L 193.479473 69.624848 
L 191.547755 69.352063 
L 189.278217 69.352063 
L 186.554156 68.537115 
L 183.375574 67.991544 
L 179.74247 67.718758 
L 175.882105 67.991544 
L 171.456659 67.991544 
L 166.800881 68.26433 
L 162.148173 69.079277 
L 157.381836 70.17042 
L 147.618828 71.258153 
L 142.96305 72.345886 
L 138.423973 73.97919 
L 134.222717 75.339709 
L 130.365423 76.427442 
L 115.833007 79.694051 
L 112.540794 80.508998 
L 105.95944 81.596731 
L 102.667228 82.415088 
L 99.602276 83.502821 
L 96.878216 84.321178 
L 91.654285 86.496644 
L 86.206164 87.584377 
L 79.508109 90.5782 
L 77.920353 91.393147 
L 76.443157 91.938719 
L 75.309923 92.211505 
L 74.059988 92.211505 
L 73.832727 92.48429 
L 73.832727 92.757076 
L 73.946358 92.757076 
L 74.628141 93.299238 
L 75.309923 93.572023 
L 76.329527 94.386971 
L 77.12494 94.386971 
L 77.579462 94.659756 
L 78.488506 95.747489 
L 79.056658 96.020275 
L 78.488506 97.108008 
L 78.374875 96.565846 
L 78.261245 97.380794 
L 76.556788 101.192974 
L 76.329527 100.920188 
L 76.443157 100.374617 
L 76.670418 100.374617 
L 76.670418 100.920188 
L 76.443157 101.192974 
L 76.443157 101.46235 
L 77.23857 103.095654 
L 77.352201 103.095654 
L 77.352201 103.095654 
L 77.465831 102.822868 
L 77.011309 104.183387 
L 77.011309 105.001744 
L 77.12494 105.27453 
L 77.011309 105.543906 
L 77.12494 106.089477 
L 77.465831 106.089477 
L 77.806723 105.816691 
L 77.806723 105.543906 
L 77.693092 105.543906 
L 77.352201 105.27453 
L 77.011309 104.728958 
L 77.011309 104.728958 
L 77.011309 106.089477 
L 76.784048 105.816691 
L 77.011309 107.722782 
L 77.011309 107.722782 
L 76.897679 107.722782 
L 77.011309 107.722782 
L 77.12494 106.904424 
L 77.352201 106.089477 
L 77.579462 106.362263 
L 77.579462 107.449996 
L 77.352201 107.722782 
L 76.784048 107.17721 
L 76.784048 107.17721 
L 77.12494 106.635049 
L 77.011309 106.635049 
L 77.011309 106.904424 
L 77.352201 107.17721 
L 77.465831 107.17721 
L 77.693092 107.995567 
L 77.693092 107.722782 
L 77.579462 107.722782 
L 77.352201 107.995567 
L 77.12494 107.995567 
L 76.897679 108.264943 
L 77.12494 109.0833 
L 77.352201 107.995567 
L 77.693092 107.995567 
L 77.693092 108.264943 
L 77.465831 108.264943 
L 77.352201 108.537729 
L 77.465831 108.264943 
L 77.693092 108.264943 
L 77.693092 108.537729 
L 77.465831 109.625462 
L 77.352201 109.625462 
L 77.352201 109.356086 
L 77.352201 110.171033 
L 77.23857 110.171033 
L 77.806723 109.0833 
L 77.693092 109.0833 
L 77.352201 109.0833 
L 77.465831 108.810515 
L 77.806723 109.0833 
L 77.579462 109.625462 
L 77.693092 109.625462 
L 77.920353 109.898248 
L 77.920353 109.898248 
L 77.693092 109.356086 
L 77.920353 110.171033 
L 77.920353 110.443819 
L 77.579462 110.716605 
L 77.579462 110.171033 
L 77.920353 109.356086 
L 77.920353 109.625462 
L 77.920353 109.898248 
L 77.693092 110.171033 
L 77.806723 110.171033 
L 78.147614 110.443819 
L 78.147614 110.171033 
L 78.261245 109.898248 
L 78.261245 110.171033 
L 78.147614 110.716605 
L 77.920353 110.716605 
L 78.033984 110.716605 
L 77.920353 110.98939 
L 77.920353 111.531552 
L 77.920353 111.531552 
L 78.147614 111.258766 
L 78.261245 111.258766 
L 78.261245 110.716605 
L 78.147614 110.443819 
L 78.033984 110.98939 
L 78.147614 111.258766 
L 78.374875 109.898248 
L 78.261245 109.898248 
L 78.261245 110.171033 
L 78.261245 109.0833 
L 78.147614 109.356086 
L 78.033984 110.443819 
L 77.693092 110.98939 
L 77.806723 111.258766 
L 78.033984 111.258766 
L 78.147614 110.98939 
L 78.147614 110.443819 
L 77.920353 109.625462 
L 77.920353 110.171033 
L 77.920353 110.443819 
L 78.829397 107.995567 
L 79.056658 108.264943 
L 78.943027 108.810515 
L 78.829397 108.537729 
L 79.508109 108.537729 
L 79.508109 108.264943 
L 79.962631 107.722782 
L 79.962631 106.904424 
L 80.076261 106.904424 
L 80.076261 107.722782 
L 79.962631 108.264943 
L 80.189892 107.995567 
L 80.644413 107.722782 
L 81.098935 107.722782 
L 82.232169 108.810515 
L 82.686691 108.537729 
L 82.913952 107.449996 
L 83.254843 107.449996 
L 84.050257 108.264943 
L 84.163887 108.264943 
L 84.163887 107.995567 
L 85.072931 107.17721 
L 85.865273 107.17721 
L 86.092534 106.904424 
L 86.319795 106.904424 
L 86.660686 107.449996 
L 87.001578 107.449996 
L 88.137882 106.904424 
L 88.589333 107.17721 
L 89.043855 107.17721 
L 89.725638 106.904424 
L 90.29379 106.089477 
L 90.861943 105.543906 
L 91.540654 105.816691 
L 92.222437 106.635049 
L 93.472373 107.17721 
L 94.264715 107.722782 
L 95.060128 107.995567 
L 95.969172 107.722782 
L 96.650955 107.722782 
L 97.105477 108.264943 
L 97.784188 108.810515 
L 98.693232 108.810515 
L 100.056798 109.0833 
L 101.190031 109.898248 
L 102.099075 110.716605 
L 103.800461 111.804338 
L 104.595874 112.892071 
L 105.391288 114.252589 
L 106.073071 115.885894 
L 106.751782 116.700841 
L 107.660826 117.246412 
L 109.589473 118.06136 
L 110.271256 118.06136 
L 110.953039 118.606931 
L 111.634822 119.694664 
L 112.768055 120.785807 
L 113.336208 121.87354 
L 114.245251 122.415701 
L 116.287529 122.961273 
L 117.991986 123.506844 
L 119.807002 124.594577 
L 121.508388 125.136739 
L 122.758324 127.857776 
L 125.027862 130.582223 
L 125.709645 130.582223 
L 127.865553 131.397171 
L 128.320075 131.669956 
L 129.001857 131.942742 
L 129.797271 131.942742 
L 130.589613 132.484904 
L 131.839548 134.118208 
L 133.316744 133.303261 
L 135.586283 133.845422 
L 137.855821 133.845422 
L 139.784468 133.303261 
L 144.894768 133.303261 
L 145.800741 133.030475 
L 146.368893 132.212118 
L 147.391567 129.763866 
L 148.414242 125.409524 
L 148.979323 124.321792 
L 149.661106 123.77622 
L 151.024671 122.961273 
L 153.066949 122.146326 
L 155.450118 121.600754 
L 158.401439 121.327968 
L 161.920913 121.327968 
L 166.34943 120.513021 
L 177.586562 116.973627 
L 183.943727 115.613108 
L 190.528152 114.525375 
L 197.450397 114.252589 
L 211.641922 113.164856 
L 218.791429 112.349909 
L 225.716745 111.258766 
L 232.07391 110.443819 
L 238.090182 109.898248 
L 244.106455 108.810515 
L 249.895467 107.995567 
L 255.116327 107.995567 
L 259.999366 107.722782 
L 264.197551 107.995567 
L 267.944286 108.537729 
L 271.463759 109.625462 
L 274.755972 110.171033 
L 280.885875 110.171033 
L 283.837197 109.898248 
L 286.447626 109.356086 
L 290.194361 108.264943 
L 291.441225 107.17721 
L 292.236638 105.001744 
L 292.463899 103.095654 
L 292.463899 101.46235 
L 291.668486 96.565846 
L 290.986703 94.117595 
L 288.944426 89.217681 
L 287.808121 86.76943 
L 286.447626 84.590554 
L 284.8568 82.415088 
L 283.382675 79.694051 
L 281.113136 73.97919 
L 279.749571 71.530938 
L 276.91188 68.537115 
L 275.889206 67.176597 
L 273.960559 63.909988 
L 273.165145 62.549469 
L 272.710624 60.916165 
L 271.57739 55.47409 
L 271.236499 54.386357 
L 270.668346 53.840786 
L 269.535113 54.386357 
L 269.194221 54.659143 
L 268.96696 54.659143 
L 268.171547 53.568 
L 268.057916 53.840786 
L 267.944286 54.931929 
L 267.603395 56.019661 
L 267.035242 56.561823 
L 266.470161 56.292447 
L 265.902009 57.107394 
L 264.992965 60.643379 
L 264.765704 63.364417 
L 264.538443 66.631025 
L 264.538443 68.26433 
L 264.879334 69.897634 
L 265.561117 72.345886 
L 265.561117 73.706404 
L 265.674748 75.066923 
L 265.674748 76.427442 
L 266.470161 82.960659 
L 266.129269 85.136125 
L 266.129269 89.217681 
L 266.470161 91.938719 
L 266.470161 93.299238 
L 266.35653 94.386971 
L 266.470161 95.205328 
L 266.35653 97.653579 
L 266.694351 99.286884 
L 267.262503 100.647402 
L 268.057916 105.001744 
L 268.512438 108.537729 
L 268.512438 109.898248 
L 269.872933 116.431465 
L 269.872933 117.246412 
L 269.645672 118.879717 
L 269.645672 120.785807 
L 269.872933 122.146326 
L 270.327455 123.506844 
L 270.213824 123.506844 
L 270.100194 123.77622 
L 270.100194 127.857776 
L 269.986563 129.763866 
L 270.213824 130.036652 
L 270.213824 130.851599 
L 269.986563 132.484904 
L 269.307852 134.663779 
L 269.307852 134.663779 
L 269.307852 136.56646 
L 269.421482 136.56646 
L 269.535113 136.839245 
L 269.535113 138.745336 
L 269.759302 139.287497 
L 269.986563 140.920801 
L 269.535113 143.369053 
L 269.535113 146.635662 
L 269.307852 148.541752 
L 269.307852 149.629485 
L 269.986563 153.711041 
L 269.759302 155.886507 
L 269.535113 156.704864 
L 269.645672 157.792597 
L 269.759302 157.519811 
L 269.872933 157.792597 
L 269.872933 159.153116 
L 269.535113 160.513635 
L 269.194221 160.78642 
L 269.194221 160.240849 
L 269.307852 160.513635 
L 269.194221 161.601368 
L 268.96696 163.234672 
L 269.080591 163.234672 
L 268.96696 163.234672 
L 268.739699 163.780243 
L 268.739699 165.955709 
L 268.626069 166.501281 
L 268.398808 166.501281 
L 268.398808 166.774066 
L 268.171547 168.407371 
L 267.603395 168.407371 
L 267.376134 168.676747 
L 267.035242 169.222318 
L 266.921612 168.949532 
L 266.694351 169.222318 
L 266.2429 170.582837 
L 266.2429 170.582837 
L 265.674748 171.128408 
L 266.015639 171.67057 
L 266.2429 171.943355 
L 266.015639 171.67057 
L 265.788378 171.67057 
L 265.674748 172.216141 
L 265.220226 173.849446 
L 265.674748 173.849446 
L 265.561117 173.849446 
L 265.447487 174.391607 
L 265.447487 174.391607 
L 265.106595 174.391607 
L 264.538443 175.752126 
L 264.652073 175.752126 
L 264.879334 175.752126 
L 264.879334 175.48275 
L 264.538443 175.48275 
L 264.424812 175.209964 
L 263.85666 175.209964 
L 263.51884 175.48275 
L 263.405209 176.297697 
L 263.405209 176.297697 
L 263.177948 176.297697 
L 262.496165 177.931002 
L 262.496165 176.843269 
L 262.609796 176.570483 
L 262.155274 177.658216 
L 261.24623 177.658216 
L 261.24623 177.658216 
L 261.1326 177.931002 
L 261.1326 178.745949 
L 260.905339 179.018735 
L 260.791708 178.203787 
L 260.226627 176.570483 
L 260.112997 176.297697 
L 259.772105 176.570483 
L 259.431214 176.297697 
L 259.090322 175.752126 
L 258.6358 175.209964 
L 258.863061 176.570483 
L 258.6358 176.570483 
L 258.294909 176.024912 
L 258.067648 176.024912 
L 257.840387 176.297697 
L 257.613126 177.112645 
L 257.161675 177.658216 
L 256.934414 177.658216 
L 256.934414 177.931002 
L 256.025371 177.112645 
L 255.91174 176.570483 
L 255.91174 177.658216 
L 255.79811 177.931002 
L 255.457218 177.931002 
L 255.116327 178.203787 
L 254.889066 178.203787 
L 254.889066 177.931002 
L 255.002696 177.658216 
L 254.548174 177.658216 
L 253.642202 176.843269 
L 253.642202 177.38543 
L 253.755832 178.203787 
L 253.869463 178.203787 
L 253.869463 177.931002 
L 253.18768 176.297697 
L 253.18768 176.843269 
L 252.846789 176.843269 
L 252.392267 177.112645 
L 252.278636 177.112645 
L 252.051375 176.297697 
L 252.051375 176.024912 
L 251.372663 176.024912 
L 250.690881 175.48275 
L 250.57725 175.209964 
L 250.57725 175.209964 
L 250.236359 176.024912 
L 249.440945 176.024912 
L 249.554576 176.024912 
L 249.440945 176.297697 
L 248.872793 175.752126 
L 248.531902 176.297697 
L 248.531902 176.570483 
L 248.080451 175.209964 
L 248.080451 174.664393 
L 247.625929 176.024912 
L 247.625929 176.297697 
L 247.85319 175.752126 
L 247.85319 174.937179 
L 247.512298 175.209964 
L 247.057777 175.752126 
L 246.830516 175.48275 
L 246.830516 175.209964 
L 246.716885 175.209964 
L 246.489624 175.752126 
L 246.148733 175.209964 
L 246.035102 175.48275 
L 246.035102 175.48275 
L 245.46695 174.937179 
L 245.12913 174.391607 
L 245.12913 173.849446 
L 245.12913 173.849446 
L 244.788238 173.849446 
L 244.901869 173.57666 
L 244.560977 174.118821 
L 244.333716 173.849446 
L 244.220086 173.303874 
L 244.106455 173.57666 
L 244.333716 174.391607 
L 244.106455 174.118821 
L 243.651933 174.118821 
L 243.651933 174.391607 
L 243.765564 174.937179 
L 243.651933 175.209964 
L 243.424673 175.209964 
L 243.424673 174.664393 
L 243.311042 174.118821 
L 242.970151 174.118821 
L 242.970151 173.031088 
L 242.970151 173.031088 
L 242.74289 174.664393 
L 242.177808 173.031088 
L 242.401998 172.758303 
L 241.950547 173.303874 
L 241.382395 173.303874 
L 240.927873 173.57666 
L 240.700612 173.57666 
L 241.041504 173.57666 
L 240.927873 173.57666 
L 240.473351 173.849446 
L 240.359721 174.391607 
L 240.359721 174.937179 
L 240.13246 175.752126 
L 239.905199 175.752126 
L 239.340118 174.664393 
L 238.771965 174.664393 
L 238.658335 174.118821 
L 238.885596 173.303874 
L 238.090182 174.118821 
L 237.976552 173.849446 
L 238.090182 173.849446 
L 238.090182 173.303874 
L 237.976552 172.758303 
L 237.976552 173.303874 
L 237.749291 173.849446 
L 237.181139 174.391607 
L 237.067508 174.664393 
L 237.067508 174.664393 
L 237.067508 174.118821 
L 236.953878 173.57666 
L 236.612986 173.303874 
L 236.499356 173.849446 
L 236.612986 173.849446 
L 236.612986 173.849446 
L 236.275166 174.664393 
L 236.161536 174.391607 
L 235.934275 173.303874 
L 235.820644 173.303874 
L 235.593383 173.031088 
L 235.479753 173.303874 
L 235.479753 174.118821 
L 235.479753 173.849446 
L 235.366122 173.57666 
L 235.138861 173.849446 
L 235.138861 174.118821 
L 235.138861 173.849446 
L 234.79797 173.303874 
L 234.457078 173.303874 
L 234.343448 173.57666 
L 234.457078 173.57666 
L 234.79797 173.849446 
L 234.79797 173.849446 
L 234.457078 174.937179 
L 234.457078 174.391607 
L 234.116187 173.303874 
L 233.775296 173.303874 
L 233.434404 173.57666 
L 233.210214 174.118821 
L 232.982953 174.118821 
L 232.869323 174.664393 
L 232.755692 174.391607 
L 232.301171 173.57666 
L 232.07391 173.303874 
L 231.960279 172.758303 
L 231.960279 172.758303 
L 231.733018 172.758303 
L 231.505757 171.397784 
L 231.505757 171.397784 
L 231.733018 171.943355 
L 232.18754 172.216141 
L 231.960279 171.67057 
L 231.505757 171.67057 
L 231.505757 172.216141 
L 232.301171 172.216141 
L 232.07391 172.216141 
L 231.846649 171.943355 
L 231.733018 172.488927 
L 231.846649 172.758303 
L 231.846649 172.488927 
L 232.07391 171.128408 
L 232.301171 170.582837 
L 231.960279 170.310051 
L 231.164866 170.855622 
L 230.823974 170.310051 
L 230.710344 170.310051 
L 230.369453 170.855622 
L 230.483083 170.582837 
L 230.596713 170.037265 
L 230.031632 168.949532 
L 230.031632 168.949532 
L 230.258893 168.676747 
L 230.145263 169.222318 
L 229.804371 169.222318 
L 229.804371 168.949532 
L 229.804371 169.495104 
L 229.57711 169.767889 
L 229.349849 168.949532 
L 229.349849 168.407371 
L 229.122588 167.589014 
L 229.236219 166.774066 
L 229.57711 166.774066 
L 229.918002 167.589014 
L 230.031632 168.407371 
L 229.804371 168.949532 
L 229.57711 168.949532 
L 229.349849 168.407371 
L 229.349849 167.589014 
L 229.57711 167.316228 
L 229.690741 167.861799 
L 229.918002 168.134585 
L 230.258893 167.861799 
L 230.710344 167.861799 
L 230.710344 167.589014 
L 230.596713 167.861799 
L 230.823974 167.046852 
L 230.937605 167.316228 
L 231.505757 167.316228 
L 231.505757 167.046852 
L 231.278496 166.774066 
L 231.278496 166.228495 
L 231.278496 166.501281 
L 231.164866 166.774066 
L 231.278496 166.501281 
L 231.278496 165.955709 
L 231.392127 165.955709 
L 231.619388 165.686333 
L 231.733018 165.955709 
L 231.164866 164.867976 
L 230.596713 165.955709 
L 230.483083 165.686333 
L 230.369453 164.867976 
L 230.369453 165.140762 
L 230.823974 164.322405 
L 230.258893 165.140762 
L 229.918002 165.413548 
L 229.918002 165.955709 
L 230.031632 166.228495 
L 230.031632 165.140762 
L 229.690741 163.234672 
L 229.804371 163.507458 
L 229.918002 163.507458 
L 229.918002 163.234672 
L 229.918002 163.234672 
L 229.236219 164.053029 
L 229.008958 163.780243 
L 229.008958 163.780243 
L 229.008958 164.053029 
L 229.349849 164.053029 
L 229.46348 164.322405 
L 229.46348 163.780243 
L 229.122588 163.507458 
L 228.781697 163.780243 
L 228.781697 164.053029 
L 229.122588 164.595191 
L 229.122588 164.053029 
L 229.236219 164.322405 
L 228.895327 164.867976 
L 228.554436 165.140762 
L 228.554436 165.413548 
L 229.008958 165.140762 
L 229.349849 165.140762 
L 228.895327 165.140762 
L 229.122588 164.867976 
L 229.122588 165.140762 
L 229.008958 165.140762 
L 229.008958 165.413548 
L 228.895327 165.413548 
L 229.008958 164.867976 
L 229.122588 164.867976 
L 229.008958 165.686333 
L 228.668067 166.501281 
L 228.213545 166.501281 
L 228.099914 165.686333 
L 228.213545 164.867976 
L 228.327175 164.867976 
L 228.327175 165.686333 
L 227.986284 166.774066 
L 228.213545 167.316228 
L 228.781697 166.774066 
L 229.008958 166.228495 
L 228.781697 166.501281 
L 228.668067 166.501281 
L 228.895327 167.046852 
L 228.781697 167.046852 
L 229.349849 166.228495 
L 229.46348 166.228495 
L 229.349849 167.046852 
L 229.349849 168.134585 
L 229.349849 167.046852 
L 229.236219 167.046852 
L 229.236219 167.316228 
L 229.349849 167.046852 
L 229.57711 167.046852 
L 229.57711 167.046852 
L 229.349849 167.316228 
L 229.349849 166.774066 
L 229.122588 165.955709 
L 229.008958 165.955709 
L 229.008958 166.774066 
L 229.122588 167.316228 
L 229.236219 167.046852 
L 229.122588 166.228495 
L 229.236219 165.955709 
L 229.349849 166.228495 
L 229.236219 166.774066 
L 229.008958 167.046852 
L 228.668067 167.046852 
L 228.440806 167.316228 
L 228.554436 167.046852 
L 228.668067 166.774066 
L 228.554436 166.228495 
L 228.440806 166.501281 
L 228.440806 166.501281 
L 228.895327 167.316228 
L 228.895327 167.046852 
L 228.781697 166.774066 
L 228.440806 166.501281 
L 228.099914 166.774066 
L 228.327175 166.501281 
L 227.872653 166.501281 
L 227.645392 166.228495 
L 227.759023 166.228495 
L 227.872653 167.046852 
L 228.099914 167.046852 
L 228.327175 166.774066 
L 228.327175 166.774066 
L 228.099914 166.501281 
L 228.213545 166.501281 
L 228.554436 165.955709 
L 228.781697 165.955709 
L 228.895327 166.228495 
L 228.781697 166.501281 
L 228.440806 166.774066 
L 228.327175 166.501281 
L 228.554436 166.774066 
L 228.895327 167.316228 
L 228.668067 166.774066 
L 228.668067 166.501281 
L 229.008958 167.861799 
L 229.122588 167.861799 
L 229.122588 167.861799 
L 229.122588 168.407371 
L 229.236219 168.407371 
L 229.46348 167.046852 
L 229.349849 166.774066 
L 229.349849 167.046852 
L 229.57711 167.861799 
L 229.46348 168.134585 
L 229.236219 168.134585 
L 229.236219 168.676747 
L 229.349849 168.949532 
L 229.349849 168.407371 
L 229.349849 168.407371 
L 229.46348 168.676747 
L 229.690741 168.676747 
L 229.46348 168.407371 
L 229.46348 168.407371 
L 229.804371 167.316228 
L 229.804371 167.861799 
L 229.804371 169.222318 
L 229.690741 169.767889 
L 229.349849 169.767889 
L 229.122588 169.222318 
L 229.122588 169.222318 
L 229.349849 168.676747 
L 229.57711 168.676747 
L 229.57711 168.949532 
L 229.349849 169.767889 
L 229.349849 169.495104 
L 229.349849 170.310051 
L 229.236219 170.582837 
L 229.236219 169.495104 
L 229.122588 169.495104 
L 229.122588 169.767889 
L 229.236219 169.495104 
L 229.46348 169.495104 
L 229.57711 169.767889 
L 229.804371 169.222318 
L 229.690741 168.676747 
L 229.57711 168.676747 
L 229.918002 168.676747 
L 229.804371 168.676747 
L 229.57711 168.134585 
L 229.122588 168.134585 
L 229.008958 168.407371 
L 229.122588 168.407371 
L 229.236219 168.407371 
L 229.46348 169.222318 
L 229.349849 169.495104 
L 229.236219 169.222318 
L 229.122588 168.407371 
L 229.236219 168.676747 
L 229.236219 168.407371 
L 228.781697 167.316228 
L 229.122588 168.407371 
L 229.122588 168.949532 
L 229.236219 168.407371 
L 229.122588 167.861799 
L 229.122588 168.134585 
L 229.122588 168.676747 
L 229.236219 168.676747 
L 229.349849 167.861799 
L 229.236219 167.589014 
L 229.122588 167.861799 
L 229.236219 167.316228 
L 229.008958 167.316228 
L 229.122588 167.046852 
L 229.349849 167.316228 
L 229.46348 168.134585 
L 229.122588 168.134585 
L 229.122588 168.676747 
L 229.349849 168.949532 
L 229.349849 168.407371 
L 229.008958 167.589014 
L 229.008958 166.228495 
L 229.008958 168.134585 
L 229.236219 168.134585 
L 229.122588 168.134585 
L 228.895327 168.407371 
L 228.781697 168.134585 
L 229.008958 167.316228 
L 229.236219 167.046852 
L 229.236219 167.589014 
L 229.008958 167.861799 
L 229.236219 167.589014 
L 228.440806 168.134585 
L 228.440806 168.676747 
L 228.781697 168.676747 
L 229.008958 168.407371 
L 229.122588 167.589014 
L 228.895327 166.228495 
L 228.554436 167.046852 
L 228.554436 167.589014 
L 228.668067 167.589014 
L 228.668067 167.316228 
L 228.554436 166.774066 
L 228.668067 166.501281 
L 228.895327 166.774066 
L 228.895327 166.774066 
L 228.895327 165.955709 
L 228.895327 167.046852 
L 229.122588 167.316228 
L 229.349849 167.316228 
L 229.349849 167.861799 
L 229.008958 167.861799 
L 229.008958 167.589014 
L 229.008958 167.589014 
L 228.781697 167.861799 
L 228.781697 167.316228 
L 228.895327 167.046852 
L 229.008958 167.316228 
L 228.895327 167.589014 
L 229.008958 167.589014 
L 229.008958 167.861799 
L 229.236219 168.134585 
L 229.46348 168.134585 
L 229.46348 167.861799 
L 229.122588 167.046852 
L 229.236219 167.316228 
L 229.46348 166.501281 
L 229.349849 166.501281 
L 229.122588 166.501281 
L 229.008958 166.228495 
L 229.008958 166.501281 
L 228.895327 166.774066 
L 229.008958 166.228495 
L 229.122588 166.774066 
L 229.349849 167.046852 
L 228.895327 167.589014 
L 228.781697 167.316228 
L 229.008958 166.774066 
L 229.236219 166.774066 
L 229.008958 166.774066 
L 229.008958 166.501281 
L 229.46348 166.501281 
L 229.46348 166.501281 
L 229.349849 166.228495 
L 229.236219 165.413548 
L 229.46348 165.413548 
L 229.46348 165.955709 
L 229.349849 166.228495 
L 229.122588 165.955709 
L 229.122588 165.686333 
L 229.236219 165.686333 
L 229.236219 165.686333 
L 229.236219 165.955709 
L 229.57711 165.140762 
L 229.57711 165.140762 
" style="fill:none;stroke:#1f77b4;stroke-linecap:square;stroke-width:1.5;"/>
   </g>
   <g id="matplotlib.axis_1">
    <g id="xtick_1">
     <g id="line2d_2">
      <defs>
       <path d="M 0 0 
L 0 3.5 
" id="m82a04a29d8" style="stroke:#000000;stroke-width:0.8;"/>
      </defs>
      <g>
       <use style="stroke:#000000;stroke-width:0.8;" x="76.45237" xlink:href="#m82a04a29d8" y="307.584"/>
      </g>
     </g>
     <g id="text_1">
      <!-- −400 -->
      <defs>
       <path d="M 10.59375 35.5 
L 73.1875 35.5 
L 73.1875 27.203125 
L 10.59375 27.203125 
z
" id="DejaVuSans-8722"/>
       <path d="M 37.796875 64.3125 
L 12.890625 25.390625 
L 37.796875 25.390625 
z
M 35.203125 72.90625 
L 47.609375 72.90625 
L 47.609375 25.390625 
L 58.015625 25.390625 
L 58.015625 17.1875 
L 47.609375 17.1875 
L 47.609375 0 
L 37.796875 0 
L 37.796875 17.1875 
L 4.890625 17.1875 
L 4.890625 26.703125 
z
" id="DejaVuSans-52"/>
       <path d="M 31.78125 66.40625 
Q 24.171875 66.40625 20.328125 58.90625 
Q 16.5 51.421875 16.5 36.375 
Q 16.5 21.390625 20.328125 13.890625 
Q 24.171875 6.390625 31.78125 6.390625 
Q 39.453125 6.390625 43.28125 13.890625 
Q 47.125 21.390625 47.125 36.375 
Q 47.125 51.421875 43.28125 58.90625 
Q 39.453125 66.40625 31.78125 66.40625 
z
M 31.78125 74.21875 
Q 44.046875 74.21875 50.515625 64.515625 
Q 56.984375 54.828125 56.984375 36.375 
Q 56.984375 17.96875 50.515625 8.265625 
Q 44.046875 -1.421875 31.78125 -1.421875 
Q 19.53125 -1.421875 13.0625 8.265625 
Q 6.59375 17.96875 6.59375 36.375 
Q 6.59375 54.828125 13.0625 64.515625 
Q 19.53125 74.21875 31.78125 74.21875 
z
" id="DejaVuSans-48"/>
      </defs>
      <g transform="translate(62.718777 322.182437)scale(0.1 -0.1)">
       <use xlink:href="#DejaVuSans-8722"/>
       <use x="83.789062" xlink:href="#DejaVuSans-52"/>
       <use x="147.412109" xlink:href="#DejaVuSans-48"/>
       <use x="211.035156" xlink:href="#DejaVuSans-48"/>
      </g>
     </g>
    </g>
    <g id="xtick_2">
     <g id="line2d_3">
      <g>
       <use style="stroke:#000000;stroke-width:0.8;" x="137.874248" xlink:href="#m82a04a29d8" y="307.584"/>
      </g>
     </g>
     <g id="text_2">
      <!-- −200 -->
      <defs>
       <path d="M 19.1875 8.296875 
L 53.609375 8.296875 
L 53.609375 0 
L 7.328125 0 
L 7.328125 8.296875 
Q 12.9375 14.109375 22.625 23.890625 
Q 32.328125 33.6875 34.8125 36.53125 
Q 39.546875 41.84375 41.421875 45.53125 
Q 43.3125 49.21875 43.3125 52.78125 
Q 43.3125 58.59375 39.234375 62.25 
Q 35.15625 65.921875 28.609375 65.921875 
Q 23.96875 65.921875 18.8125 64.3125 
Q 13.671875 62.703125 7.8125 59.421875 
L 7.8125 69.390625 
Q 13.765625 71.78125 18.9375 73 
Q 24.125 74.21875 28.421875 74.21875 
Q 39.75 74.21875 46.484375 68.546875 
Q 53.21875 62.890625 53.21875 53.421875 
Q 53.21875 48.921875 51.53125 44.890625 
Q 49.859375 40.875 45.40625 35.40625 
Q 44.1875 33.984375 37.640625 27.21875 
Q 31.109375 20.453125 19.1875 8.296875 
z
" id="DejaVuSans-50"/>
      </defs>
      <g transform="translate(124.140654 322.182437)scale(0.1 -0.1)">
       <use xlink:href="#DejaVuSans-8722"/>
       <use x="83.789062" xlink:href="#DejaVuSans-50"/>
       <use x="147.412109" xlink:href="#DejaVuSans-48"/>
       <use x="211.035156" xlink:href="#DejaVuSans-48"/>
      </g>
     </g>
    </g>
    <g id="xtick_3">
     <g id="line2d_4">
      <g>
       <use style="stroke:#000000;stroke-width:0.8;" x="199.296125" xlink:href="#m82a04a29d8" y="307.584"/>
      </g>
     </g>
     <g id="text_3">
      <!-- 0 -->
      <g transform="translate(196.114875 322.182437)scale(0.1 -0.1)">
       <use xlink:href="#DejaVuSans-48"/>
      </g>
     </g>
    </g>
    <g id="xtick_4">
     <g id="line2d_5">
      <g>
       <use style="stroke:#000000;stroke-width:0.8;" x="260.718002" xlink:href="#m82a04a29d8" y="307.584"/>
      </g>
     </g>
     <g id="text_4">
      <!-- 200 -->
      <g transform="translate(251.174252 322.182437)scale(0.1 -0.1)">
       <use xlink:href="#DejaVuSans-50"/>
       <use x="63.623047" xlink:href="#DejaVuSans-48"/>
       <use x="127.246094" xlink:href="#DejaVuSans-48"/>
      </g>
     </g>
    </g>
    <g id="xtick_5">
     <g id="line2d_6">
      <g>
       <use style="stroke:#000000;stroke-width:0.8;" x="322.139879" xlink:href="#m82a04a29d8" y="307.584"/>
      </g>
     </g>
     <g id="text_5">
      <!-- 400 -->
      <g transform="translate(312.596129 322.182437)scale(0.1 -0.1)">
       <use xlink:href="#DejaVuSans-52"/>
       <use x="63.623047" xlink:href="#DejaVuSans-48"/>
       <use x="127.246094" xlink:href="#DejaVuSans-48"/>
      </g>
     </g>
    </g>
    <g id="xtick_6">
     <g id="line2d_7">
      <g>
       <use style="stroke:#000000;stroke-width:0.8;" x="383.561757" xlink:href="#m82a04a29d8" y="307.584"/>
      </g>
     </g>
     <g id="text_6">
      <!-- 600 -->
      <defs>
       <path d="M 33.015625 40.375 
Q 26.375 40.375 22.484375 35.828125 
Q 18.609375 31.296875 18.609375 23.390625 
Q 18.609375 15.53125 22.484375 10.953125 
Q 26.375 6.390625 33.015625 6.390625 
Q 39.65625 6.390625 43.53125 10.953125 
Q 47.40625 15.53125 47.40625 23.390625 
Q 47.40625 31.296875 43.53125 35.828125 
Q 39.65625 40.375 33.015625 40.375 
z
M 52.59375 71.296875 
L 52.59375 62.3125 
Q 48.875 64.0625 45.09375 64.984375 
Q 41.3125 65.921875 37.59375 65.921875 
Q 27.828125 65.921875 22.671875 59.328125 
Q 17.53125 52.734375 16.796875 39.40625 
Q 19.671875 43.65625 24.015625 45.921875 
Q 28.375 48.1875 33.59375 48.1875 
Q 44.578125 48.1875 50.953125 41.515625 
Q 57.328125 34.859375 57.328125 23.390625 
Q 57.328125 12.15625 50.6875 5.359375 
Q 44.046875 -1.421875 33.015625 -1.421875 
Q 20.359375 -1.421875 13.671875 8.265625 
Q 6.984375 17.96875 6.984375 36.375 
Q 6.984375 53.65625 15.1875 63.9375 
Q 23.390625 74.21875 37.203125 74.21875 
Q 40.921875 74.21875 44.703125 73.484375 
Q 48.484375 72.75 52.59375 71.296875 
z
" id="DejaVuSans-54"/>
      </defs>
      <g transform="translate(374.018007 322.182437)scale(0.1 -0.1)">
       <use xlink:href="#DejaVuSans-54"/>
       <use x="63.623047" xlink:href="#DejaVuSans-48"/>
       <use x="127.246094" xlink:href="#DejaVuSans-48"/>
      </g>
     </g>
    </g>
   </g>
   <g id="matplotlib.axis_2">
    <g id="ytick_1">
     <g id="line2d_8">
      <defs>
       <path d="M 0 0 
L -3.5 0 
" id="ma1907dfb89" style="stroke:#000000;stroke-width:0.8;"/>
      </defs>
      <g>
       <use style="stroke:#000000;stroke-width:0.8;" x="57.6" xlink:href="#ma1907dfb89" y="286.867972"/>
      </g>
     </g>
     <g id="text_7">
      <!-- −600 -->
      <g transform="translate(23.132812 290.667191)scale(0.1 -0.1)">
       <use xlink:href="#DejaVuSans-8722"/>
       <use x="83.789062" xlink:href="#DejaVuSans-54"/>
       <use x="147.412109" xlink:href="#DejaVuSans-48"/>
       <use x="211.035156" xlink:href="#DejaVuSans-48"/>
      </g>
     </g>
    </g>
    <g id="ytick_2">
     <g id="line2d_9">
      <g>
       <use style="stroke:#000000;stroke-width:0.8;" x="57.6" xlink:href="#ma1907dfb89" y="252.769759"/>
      </g>
     </g>
     <g id="text_8">
      <!-- −500 -->
      <defs>
       <path d="M 10.796875 72.90625 
L 49.515625 72.90625 
L 49.515625 64.59375 
L 19.828125 64.59375 
L 19.828125 46.734375 
Q 21.96875 47.46875 24.109375 47.828125 
Q 26.265625 48.1875 28.421875 48.1875 
Q 40.625 48.1875 47.75 41.5 
Q 54.890625 34.8125 54.890625 23.390625 
Q 54.890625 11.625 47.5625 5.09375 
Q 40.234375 -1.421875 26.90625 -1.421875 
Q 22.3125 -1.421875 17.546875 -0.640625 
Q 12.796875 0.140625 7.71875 1.703125 
L 7.71875 11.625 
Q 12.109375 9.234375 16.796875 8.0625 
Q 21.484375 6.890625 26.703125 6.890625 
Q 35.15625 6.890625 40.078125 11.328125 
Q 45.015625 15.765625 45.015625 23.390625 
Q 45.015625 31 40.078125 35.4375 
Q 35.15625 39.890625 26.703125 39.890625 
Q 22.75 39.890625 18.8125 39.015625 
Q 14.890625 38.140625 10.796875 36.28125 
z
" id="DejaVuSans-53"/>
      </defs>
      <g transform="translate(23.132812 256.568978)scale(0.1 -0.1)">
       <use xlink:href="#DejaVuSans-8722"/>
       <use x="83.789062" xlink:href="#DejaVuSans-53"/>
       <use x="147.412109" xlink:href="#DejaVuSans-48"/>
       <use x="211.035156" xlink:href="#DejaVuSans-48"/>
      </g>
     </g>
    </g>
    <g id="ytick_3">
     <g id="line2d_10">
      <g>
       <use style="stroke:#000000;stroke-width:0.8;" x="57.6" xlink:href="#ma1907dfb89" y="218.671546"/>
      </g>
     </g>
     <g id="text_9">
      <!-- −400 -->
      <g transform="translate(23.132812 222.470765)scale(0.1 -0.1)">
       <use xlink:href="#DejaVuSans-8722"/>
       <use x="83.789062" xlink:href="#DejaVuSans-52"/>
       <use x="147.412109" xlink:href="#DejaVuSans-48"/>
       <use x="211.035156" xlink:href="#DejaVuSans-48"/>
      </g>
     </g>
    </g>
    <g id="ytick_4">
     <g id="line2d_11">
      <g>
       <use style="stroke:#000000;stroke-width:0.8;" x="57.6" xlink:href="#ma1907dfb89" y="184.573333"/>
      </g>
     </g>
     <g id="text_10">
      <!-- −300 -->
      <defs>
       <path d="M 40.578125 39.3125 
Q 47.65625 37.796875 51.625 33 
Q 55.609375 28.21875 55.609375 21.1875 
Q 55.609375 10.40625 48.1875 4.484375 
Q 40.765625 -1.421875 27.09375 -1.421875 
Q 22.515625 -1.421875 17.65625 -0.515625 
Q 12.796875 0.390625 7.625 2.203125 
L 7.625 11.71875 
Q 11.71875 9.328125 16.59375 8.109375 
Q 21.484375 6.890625 26.8125 6.890625 
Q 36.078125 6.890625 40.9375 10.546875 
Q 45.796875 14.203125 45.796875 21.1875 
Q 45.796875 27.640625 41.28125 31.265625 
Q 36.765625 34.90625 28.71875 34.90625 
L 20.21875 34.90625 
L 20.21875 43.015625 
L 29.109375 43.015625 
Q 36.375 43.015625 40.234375 45.921875 
Q 44.09375 48.828125 44.09375 54.296875 
Q 44.09375 59.90625 40.109375 62.90625 
Q 36.140625 65.921875 28.71875 65.921875 
Q 24.65625 65.921875 20.015625 65.03125 
Q 15.375 64.15625 9.8125 62.3125 
L 9.8125 71.09375 
Q 15.4375 72.65625 20.34375 73.4375 
Q 25.25 74.21875 29.59375 74.21875 
Q 40.828125 74.21875 47.359375 69.109375 
Q 53.90625 64.015625 53.90625 55.328125 
Q 53.90625 49.265625 50.4375 45.09375 
Q 46.96875 40.921875 40.578125 39.3125 
z
" id="DejaVuSans-51"/>
      </defs>
      <g transform="translate(23.132812 188.372552)scale(0.1 -0.1)">
       <use xlink:href="#DejaVuSans-8722"/>
       <use x="83.789062" xlink:href="#DejaVuSans-51"/>
       <use x="147.412109" xlink:href="#DejaVuSans-48"/>
       <use x="211.035156" xlink:href="#DejaVuSans-48"/>
      </g>
     </g>
    </g>
    <g id="ytick_5">
     <g id="line2d_12">
      <g>
       <use style="stroke:#000000;stroke-width:0.8;" x="57.6" xlink:href="#ma1907dfb89" y="150.475121"/>
      </g>
     </g>
     <g id="text_11">
      <!-- −200 -->
      <g transform="translate(23.132812 154.274339)scale(0.1 -0.1)">
       <use xlink:href="#DejaVuSans-8722"/>
       <use x="83.789062" xlink:href="#DejaVuSans-50"/>
       <use x="147.412109" xlink:href="#DejaVuSans-48"/>
       <use x="211.035156" xlink:href="#DejaVuSans-48"/>
      </g>
     </g>
    </g>
    <g id="ytick_6">
     <g id="line2d_13">
      <g>
       <use style="stroke:#000000;stroke-width:0.8;" x="57.6" xlink:href="#ma1907dfb89" y="116.376908"/>
      </g>
     </g>
     <g id="text_12">
      <!-- −100 -->
      <defs>
       <path d="M 12.40625 8.296875 
L 28.515625 8.296875 
L 28.515625 63.921875 
L 10.984375 60.40625 
L 10.984375 69.390625 
L 28.421875 72.90625 
L 38.28125 72.90625 
L 38.28125 8.296875 
L 54.390625 8.296875 
L 54.390625 0 
L 12.40625 0 
z
" id="DejaVuSans-49"/>
      </defs>
      <g transform="translate(23.132812 120.176127)scale(0.1 -0.1)">
       <use xlink:href="#DejaVuSans-8722"/>
       <use x="83.789062" xlink:href="#DejaVuSans-49"/>
       <use x="147.412109" xlink:href="#DejaVuSans-48"/>
       <use x="211.035156" xlink:href="#DejaVuSans-48"/>
      </g>
     </g>
    </g>
    <g id="ytick_7">
     <g id="line2d_14">
      <g>
       <use style="stroke:#000000;stroke-width:0.8;" x="57.6" xlink:href="#ma1907dfb89" y="82.278695"/>
      </g>
     </g>
     <g id="text_13">
      <!-- 0 -->
      <g transform="translate(44.2375 86.077914)scale(0.1 -0.1)">
       <use xlink:href="#DejaVuSans-48"/>
      </g>
     </g>
    </g>
    <g id="ytick_8">
     <g id="line2d_15">
      <g>
       <use style="stroke:#000000;stroke-width:0.8;" x="57.6" xlink:href="#ma1907dfb89" y="48.180482"/>
      </g>
     </g>
     <g id="text_14">
      <!-- 100 -->
      <g transform="translate(31.5125 51.979701)scale(0.1 -0.1)">
       <use xlink:href="#DejaVuSans-49"/>
       <use x="63.623047" xlink:href="#DejaVuSans-48"/>
       <use x="127.246094" xlink:href="#DejaVuSans-48"/>
      </g>
     </g>
    </g>
   </g>
   <g id="line2d_16">
    <path clip-path="url(#p7d60dc1f91)" d="M 394.557263 288.796513 
L 199.199715 76.353531 
L 81.518095 104.718816 
L 272.06455 84.765224 
L 251.865664 169.199993 
L 229.307847 167.072277 
" style="fill:none;stroke:#ff0000;stroke-linecap:square;stroke-width:0.5;"/>
   </g>
   <g id="patch_3">
    <path d="M 57.6 307.584 
L 57.6 41.472 
" style="fill:none;stroke:#000000;stroke-linecap:square;stroke-linejoin:miter;stroke-width:0.8;"/>
   </g>
   <g id="patch_4">
    <path d="M 414.72 307.584 
L 414.72 41.472 
" style="fill:none;stroke:#000000;stroke-linecap:square;stroke-linejoin:miter;stroke-width:0.8;"/>
   </g>
   <g id="patch_5">
    <path d="M 57.6 307.584 
L 414.72 307.584 
" style="fill:none;stroke:#000000;stroke-linecap:square;stroke-linejoin:miter;stroke-width:0.8;"/>
   </g>
   <g id="patch_6">
    <path d="M 57.6 41.472 
L 414.72 41.472 
" style="fill:none;stroke:#000000;stroke-linecap:square;stroke-linejoin:miter;stroke-width:0.8;"/>
   </g>
   <g id="PathCollection_1">
    <defs>
     <path d="M 0 2.738613 
C 0.726289 2.738613 1.422928 2.450055 1.936492 1.936492 
C 2.450055 1.422928 2.738613 0.726289 2.738613 0 
C 2.738613 -0.726289 2.450055 -1.422928 1.936492 -1.936492 
C 1.422928 -2.450055 0.726289 -2.738613 0 -2.738613 
C -0.726289 -2.738613 -1.422928 -2.450055 -1.936492 -1.936492 
C -2.450055 -1.422928 -2.738613 -0.726289 -2.738613 0 
C -2.738613 0.726289 -2.450055 1.422928 -1.936492 1.936492 
C -1.422928 2.450055 -0.726289 2.738613 0 2.738613 
z
" id="m2dc8f79012" style="stroke:#ff0000;"/>
    </defs>
    <g clip-path="url(#p7d60dc1f91)">
     <use style="fill:#ff0000;stroke:#ff0000;" x="394.557263" xlink:href="#m2dc8f79012" y="288.796513"/>
     <use style="fill:#ff0000;stroke:#ff0000;" x="199.199715" xlink:href="#m2dc8f79012" y="76.353531"/>
     <use style="fill:#ff0000;stroke:#ff0000;" x="81.518095" xlink:href="#m2dc8f79012" y="104.718816"/>
     <use style="fill:#ff0000;stroke:#ff0000;" x="272.06455" xlink:href="#m2dc8f79012" y="84.765224"/>
     <use style="fill:#ff0000;stroke:#ff0000;" x="251.865664" xlink:href="#m2dc8f79012" y="169.199993"/>
     <use style="fill:#ff0000;stroke:#ff0000;" x="229.307847" xlink:href="#m2dc8f79012" y="167.072277"/>
    </g>
   </g>
   <g id="text_15">
    <!-- (4) Subject: s17, Known = False, Degree = 2, Duration = 0.1 -->
    <defs>
     <path d="M 31 75.875 
Q 24.46875 64.65625 21.28125 53.65625 
Q 18.109375 42.671875 18.109375 31.390625 
Q 18.109375 20.125 21.3125 9.0625 
Q 24.515625 -2 31 -13.1875 
L 23.1875 -13.1875 
Q 15.875 -1.703125 12.234375 9.375 
Q 8.59375 20.453125 8.59375 31.390625 
Q 8.59375 42.28125 12.203125 53.3125 
Q 15.828125 64.359375 23.1875 75.875 
z
" id="DejaVuSans-40"/>
     <path d="M 8.015625 75.875 
L 15.828125 75.875 
Q 23.140625 64.359375 26.78125 53.3125 
Q 30.421875 42.28125 30.421875 31.390625 
Q 30.421875 20.453125 26.78125 9.375 
Q 23.140625 -1.703125 15.828125 -13.1875 
L 8.015625 -13.1875 
Q 14.5 -2 17.703125 9.0625 
Q 20.90625 20.125 20.90625 31.390625 
Q 20.90625 42.671875 17.703125 53.65625 
Q 14.5 64.65625 8.015625 75.875 
z
" id="DejaVuSans-41"/>
     <path id="DejaVuSans-32"/>
     <path d="M 53.515625 70.515625 
L 53.515625 60.890625 
Q 47.90625 63.578125 42.921875 64.890625 
Q 37.9375 66.21875 33.296875 66.21875 
Q 25.25 66.21875 20.875 63.09375 
Q 16.5 59.96875 16.5 54.203125 
Q 16.5 49.359375 19.40625 46.890625 
Q 22.3125 44.4375 30.421875 42.921875 
L 36.375 41.703125 
Q 47.40625 39.59375 52.65625 34.296875 
Q 57.90625 29 57.90625 20.125 
Q 57.90625 9.515625 50.796875 4.046875 
Q 43.703125 -1.421875 29.984375 -1.421875 
Q 24.8125 -1.421875 18.96875 -0.25 
Q 13.140625 0.921875 6.890625 3.21875 
L 6.890625 13.375 
Q 12.890625 10.015625 18.65625 8.296875 
Q 24.421875 6.59375 29.984375 6.59375 
Q 38.421875 6.59375 43.015625 9.90625 
Q 47.609375 13.234375 47.609375 19.390625 
Q 47.609375 24.75 44.3125 27.78125 
Q 41.015625 30.8125 33.5 32.328125 
L 27.484375 33.5 
Q 16.453125 35.6875 11.515625 40.375 
Q 6.59375 45.0625 6.59375 53.421875 
Q 6.59375 63.09375 13.40625 68.65625 
Q 20.21875 74.21875 32.171875 74.21875 
Q 37.3125 74.21875 42.625 73.28125 
Q 47.953125 72.359375 53.515625 70.515625 
z
" id="DejaVuSans-83"/>
     <path d="M 8.5 21.578125 
L 8.5 54.6875 
L 17.484375 54.6875 
L 17.484375 21.921875 
Q 17.484375 14.15625 20.5 10.265625 
Q 23.53125 6.390625 29.59375 6.390625 
Q 36.859375 6.390625 41.078125 11.03125 
Q 45.3125 15.671875 45.3125 23.6875 
L 45.3125 54.6875 
L 54.296875 54.6875 
L 54.296875 0 
L 45.3125 0 
L 45.3125 8.40625 
Q 42.046875 3.421875 37.71875 1 
Q 33.40625 -1.421875 27.6875 -1.421875 
Q 18.265625 -1.421875 13.375 4.4375 
Q 8.5 10.296875 8.5 21.578125 
z
M 31.109375 56 
z
" id="DejaVuSans-117"/>
     <path d="M 48.6875 27.296875 
Q 48.6875 37.203125 44.609375 42.84375 
Q 40.53125 48.484375 33.40625 48.484375 
Q 26.265625 48.484375 22.1875 42.84375 
Q 18.109375 37.203125 18.109375 27.296875 
Q 18.109375 17.390625 22.1875 11.75 
Q 26.265625 6.109375 33.40625 6.109375 
Q 40.53125 6.109375 44.609375 11.75 
Q 48.6875 17.390625 48.6875 27.296875 
z
M 18.109375 46.390625 
Q 20.953125 51.265625 25.265625 53.625 
Q 29.59375 56 35.59375 56 
Q 45.5625 56 51.78125 48.09375 
Q 58.015625 40.1875 58.015625 27.296875 
Q 58.015625 14.40625 51.78125 6.484375 
Q 45.5625 -1.421875 35.59375 -1.421875 
Q 29.59375 -1.421875 25.265625 0.953125 
Q 20.953125 3.328125 18.109375 8.203125 
L 18.109375 0 
L 9.078125 0 
L 9.078125 75.984375 
L 18.109375 75.984375 
z
" id="DejaVuSans-98"/>
     <path d="M 9.421875 54.6875 
L 18.40625 54.6875 
L 18.40625 -0.984375 
Q 18.40625 -11.421875 14.421875 -16.109375 
Q 10.453125 -20.796875 1.609375 -20.796875 
L -1.8125 -20.796875 
L -1.8125 -13.1875 
L 0.59375 -13.1875 
Q 5.71875 -13.1875 7.5625 -10.8125 
Q 9.421875 -8.453125 9.421875 -0.984375 
z
M 9.421875 75.984375 
L 18.40625 75.984375 
L 18.40625 64.59375 
L 9.421875 64.59375 
z
" id="DejaVuSans-106"/>
     <path d="M 56.203125 29.59375 
L 56.203125 25.203125 
L 14.890625 25.203125 
Q 15.484375 15.921875 20.484375 11.0625 
Q 25.484375 6.203125 34.421875 6.203125 
Q 39.59375 6.203125 44.453125 7.46875 
Q 49.3125 8.734375 54.109375 11.28125 
L 54.109375 2.78125 
Q 49.265625 0.734375 44.1875 -0.34375 
Q 39.109375 -1.421875 33.890625 -1.421875 
Q 20.796875 -1.421875 13.15625 6.1875 
Q 5.515625 13.8125 5.515625 26.8125 
Q 5.515625 40.234375 12.765625 48.109375 
Q 20.015625 56 32.328125 56 
Q 43.359375 56 49.78125 48.890625 
Q 56.203125 41.796875 56.203125 29.59375 
z
M 47.21875 32.234375 
Q 47.125 39.59375 43.09375 43.984375 
Q 39.0625 48.390625 32.421875 48.390625 
Q 24.90625 48.390625 20.390625 44.140625 
Q 15.875 39.890625 15.1875 32.171875 
z
" id="DejaVuSans-101"/>
     <path d="M 48.78125 52.59375 
L 48.78125 44.1875 
Q 44.96875 46.296875 41.140625 47.34375 
Q 37.3125 48.390625 33.40625 48.390625 
Q 24.65625 48.390625 19.8125 42.84375 
Q 14.984375 37.3125 14.984375 27.296875 
Q 14.984375 17.28125 19.8125 11.734375 
Q 24.65625 6.203125 33.40625 6.203125 
Q 37.3125 6.203125 41.140625 7.25 
Q 44.96875 8.296875 48.78125 10.40625 
L 48.78125 2.09375 
Q 45.015625 0.34375 40.984375 -0.53125 
Q 36.96875 -1.421875 32.421875 -1.421875 
Q 20.0625 -1.421875 12.78125 6.34375 
Q 5.515625 14.109375 5.515625 27.296875 
Q 5.515625 40.671875 12.859375 48.328125 
Q 20.21875 56 33.015625 56 
Q 37.15625 56 41.109375 55.140625 
Q 45.0625 54.296875 48.78125 52.59375 
z
" id="DejaVuSans-99"/>
     <path d="M 18.3125 70.21875 
L 18.3125 54.6875 
L 36.8125 54.6875 
L 36.8125 47.703125 
L 18.3125 47.703125 
L 18.3125 18.015625 
Q 18.3125 11.328125 20.140625 9.421875 
Q 21.96875 7.515625 27.59375 7.515625 
L 36.8125 7.515625 
L 36.8125 0 
L 27.59375 0 
Q 17.1875 0 13.234375 3.875 
Q 9.28125 7.765625 9.28125 18.015625 
L 9.28125 47.703125 
L 2.6875 47.703125 
L 2.6875 54.6875 
L 9.28125 54.6875 
L 9.28125 70.21875 
z
" id="DejaVuSans-116"/>
     <path d="M 11.71875 12.40625 
L 22.015625 12.40625 
L 22.015625 0 
L 11.71875 0 
z
M 11.71875 51.703125 
L 22.015625 51.703125 
L 22.015625 39.3125 
L 11.71875 39.3125 
z
" id="DejaVuSans-58"/>
     <path d="M 44.28125 53.078125 
L 44.28125 44.578125 
Q 40.484375 46.53125 36.375 47.5 
Q 32.28125 48.484375 27.875 48.484375 
Q 21.1875 48.484375 17.84375 46.4375 
Q 14.5 44.390625 14.5 40.28125 
Q 14.5 37.15625 16.890625 35.375 
Q 19.28125 33.59375 26.515625 31.984375 
L 29.59375 31.296875 
Q 39.15625 29.25 43.1875 25.515625 
Q 47.21875 21.78125 47.21875 15.09375 
Q 47.21875 7.46875 41.1875 3.015625 
Q 35.15625 -1.421875 24.609375 -1.421875 
Q 20.21875 -1.421875 15.453125 -0.5625 
Q 10.6875 0.296875 5.421875 2 
L 5.421875 11.28125 
Q 10.40625 8.6875 15.234375 7.390625 
Q 20.0625 6.109375 24.8125 6.109375 
Q 31.15625 6.109375 34.5625 8.28125 
Q 37.984375 10.453125 37.984375 14.40625 
Q 37.984375 18.0625 35.515625 20.015625 
Q 33.0625 21.96875 24.703125 23.78125 
L 21.578125 24.515625 
Q 13.234375 26.265625 9.515625 29.90625 
Q 5.8125 33.546875 5.8125 39.890625 
Q 5.8125 47.609375 11.28125 51.796875 
Q 16.75 56 26.8125 56 
Q 31.78125 56 36.171875 55.265625 
Q 40.578125 54.546875 44.28125 53.078125 
z
" id="DejaVuSans-115"/>
     <path d="M 8.203125 72.90625 
L 55.078125 72.90625 
L 55.078125 68.703125 
L 28.609375 0 
L 18.3125 0 
L 43.21875 64.59375 
L 8.203125 64.59375 
z
" id="DejaVuSans-55"/>
     <path d="M 11.71875 12.40625 
L 22.015625 12.40625 
L 22.015625 4 
L 14.015625 -11.625 
L 7.71875 -11.625 
L 11.71875 4 
z
" id="DejaVuSans-44"/>
     <path d="M 9.8125 72.90625 
L 19.671875 72.90625 
L 19.671875 42.09375 
L 52.390625 72.90625 
L 65.09375 72.90625 
L 28.90625 38.921875 
L 67.671875 0 
L 54.6875 0 
L 19.671875 35.109375 
L 19.671875 0 
L 9.8125 0 
z
" id="DejaVuSans-75"/>
     <path d="M 54.890625 33.015625 
L 54.890625 0 
L 45.90625 0 
L 45.90625 32.71875 
Q 45.90625 40.484375 42.875 44.328125 
Q 39.84375 48.1875 33.796875 48.1875 
Q 26.515625 48.1875 22.3125 43.546875 
Q 18.109375 38.921875 18.109375 30.90625 
L 18.109375 0 
L 9.078125 0 
L 9.078125 54.6875 
L 18.109375 54.6875 
L 18.109375 46.1875 
Q 21.34375 51.125 25.703125 53.5625 
Q 30.078125 56 35.796875 56 
Q 45.21875 56 50.046875 50.171875 
Q 54.890625 44.34375 54.890625 33.015625 
z
" id="DejaVuSans-110"/>
     <path d="M 30.609375 48.390625 
Q 23.390625 48.390625 19.1875 42.75 
Q 14.984375 37.109375 14.984375 27.296875 
Q 14.984375 17.484375 19.15625 11.84375 
Q 23.34375 6.203125 30.609375 6.203125 
Q 37.796875 6.203125 41.984375 11.859375 
Q 46.1875 17.53125 46.1875 27.296875 
Q 46.1875 37.015625 41.984375 42.703125 
Q 37.796875 48.390625 30.609375 48.390625 
z
M 30.609375 56 
Q 42.328125 56 49.015625 48.375 
Q 55.71875 40.765625 55.71875 27.296875 
Q 55.71875 13.875 49.015625 6.21875 
Q 42.328125 -1.421875 30.609375 -1.421875 
Q 18.84375 -1.421875 12.171875 6.21875 
Q 5.515625 13.875 5.515625 27.296875 
Q 5.515625 40.765625 12.171875 48.375 
Q 18.84375 56 30.609375 56 
z
" id="DejaVuSans-111"/>
     <path d="M 4.203125 54.6875 
L 13.1875 54.6875 
L 24.421875 12.015625 
L 35.59375 54.6875 
L 46.1875 54.6875 
L 57.421875 12.015625 
L 68.609375 54.6875 
L 77.59375 54.6875 
L 63.28125 0 
L 52.6875 0 
L 40.921875 44.828125 
L 29.109375 0 
L 18.5 0 
z
" id="DejaVuSans-119"/>
     <path d="M 10.59375 45.40625 
L 73.1875 45.40625 
L 73.1875 37.203125 
L 10.59375 37.203125 
z
M 10.59375 25.484375 
L 73.1875 25.484375 
L 73.1875 17.1875 
L 10.59375 17.1875 
z
" id="DejaVuSans-61"/>
     <path d="M 9.8125 72.90625 
L 51.703125 72.90625 
L 51.703125 64.59375 
L 19.671875 64.59375 
L 19.671875 43.109375 
L 48.578125 43.109375 
L 48.578125 34.8125 
L 19.671875 34.8125 
L 19.671875 0 
L 9.8125 0 
z
" id="DejaVuSans-70"/>
     <path d="M 34.28125 27.484375 
Q 23.390625 27.484375 19.1875 25 
Q 14.984375 22.515625 14.984375 16.5 
Q 14.984375 11.71875 18.140625 8.90625 
Q 21.296875 6.109375 26.703125 6.109375 
Q 34.1875 6.109375 38.703125 11.40625 
Q 43.21875 16.703125 43.21875 25.484375 
L 43.21875 27.484375 
z
M 52.203125 31.203125 
L 52.203125 0 
L 43.21875 0 
L 43.21875 8.296875 
Q 40.140625 3.328125 35.546875 0.953125 
Q 30.953125 -1.421875 24.3125 -1.421875 
Q 15.921875 -1.421875 10.953125 3.296875 
Q 6 8.015625 6 15.921875 
Q 6 25.140625 12.171875 29.828125 
Q 18.359375 34.515625 30.609375 34.515625 
L 43.21875 34.515625 
L 43.21875 35.40625 
Q 43.21875 41.609375 39.140625 45 
Q 35.0625 48.390625 27.6875 48.390625 
Q 23 48.390625 18.546875 47.265625 
Q 14.109375 46.140625 10.015625 43.890625 
L 10.015625 52.203125 
Q 14.9375 54.109375 19.578125 55.046875 
Q 24.21875 56 28.609375 56 
Q 40.484375 56 46.34375 49.84375 
Q 52.203125 43.703125 52.203125 31.203125 
z
" id="DejaVuSans-97"/>
     <path d="M 9.421875 75.984375 
L 18.40625 75.984375 
L 18.40625 0 
L 9.421875 0 
z
" id="DejaVuSans-108"/>
     <path d="M 19.671875 64.796875 
L 19.671875 8.109375 
L 31.59375 8.109375 
Q 46.6875 8.109375 53.6875 14.9375 
Q 60.6875 21.78125 60.6875 36.53125 
Q 60.6875 51.171875 53.6875 57.984375 
Q 46.6875 64.796875 31.59375 64.796875 
z
M 9.8125 72.90625 
L 30.078125 72.90625 
Q 51.265625 72.90625 61.171875 64.09375 
Q 71.09375 55.28125 71.09375 36.53125 
Q 71.09375 17.671875 61.125 8.828125 
Q 51.171875 0 30.078125 0 
L 9.8125 0 
z
" id="DejaVuSans-68"/>
     <path d="M 45.40625 27.984375 
Q 45.40625 37.75 41.375 43.109375 
Q 37.359375 48.484375 30.078125 48.484375 
Q 22.859375 48.484375 18.828125 43.109375 
Q 14.796875 37.75 14.796875 27.984375 
Q 14.796875 18.265625 18.828125 12.890625 
Q 22.859375 7.515625 30.078125 7.515625 
Q 37.359375 7.515625 41.375 12.890625 
Q 45.40625 18.265625 45.40625 27.984375 
z
M 54.390625 6.78125 
Q 54.390625 -7.171875 48.1875 -13.984375 
Q 42 -20.796875 29.203125 -20.796875 
Q 24.46875 -20.796875 20.265625 -20.09375 
Q 16.0625 -19.390625 12.109375 -17.921875 
L 12.109375 -9.1875 
Q 16.0625 -11.328125 19.921875 -12.34375 
Q 23.78125 -13.375 27.78125 -13.375 
Q 36.625 -13.375 41.015625 -8.765625 
Q 45.40625 -4.15625 45.40625 5.171875 
L 45.40625 9.625 
Q 42.625 4.78125 38.28125 2.390625 
Q 33.9375 0 27.875 0 
Q 17.828125 0 11.671875 7.65625 
Q 5.515625 15.328125 5.515625 27.984375 
Q 5.515625 40.671875 11.671875 48.328125 
Q 17.828125 56 27.875 56 
Q 33.9375 56 38.28125 53.609375 
Q 42.625 51.21875 45.40625 46.390625 
L 45.40625 54.6875 
L 54.390625 54.6875 
z
" id="DejaVuSans-103"/>
     <path d="M 41.109375 46.296875 
Q 39.59375 47.171875 37.8125 47.578125 
Q 36.03125 48 33.890625 48 
Q 26.265625 48 22.1875 43.046875 
Q 18.109375 38.09375 18.109375 28.8125 
L 18.109375 0 
L 9.078125 0 
L 9.078125 54.6875 
L 18.109375 54.6875 
L 18.109375 46.1875 
Q 20.953125 51.171875 25.484375 53.578125 
Q 30.03125 56 36.53125 56 
Q 37.453125 56 38.578125 55.875 
Q 39.703125 55.765625 41.0625 55.515625 
z
" id="DejaVuSans-114"/>
     <path d="M 9.421875 54.6875 
L 18.40625 54.6875 
L 18.40625 0 
L 9.421875 0 
z
M 9.421875 75.984375 
L 18.40625 75.984375 
L 18.40625 64.59375 
L 9.421875 64.59375 
z
" id="DejaVuSans-105"/>
     <path d="M 10.6875 12.40625 
L 21 12.40625 
L 21 0 
L 10.6875 0 
z
" id="DejaVuSans-46"/>
    </defs>
    <g transform="translate(53.559375 35.472)scale(0.12 -0.12)">
     <use xlink:href="#DejaVuSans-40"/>
     <use x="39.013672" xlink:href="#DejaVuSans-52"/>
     <use x="102.636719" xlink:href="#DejaVuSans-41"/>
     <use x="141.650391" xlink:href="#DejaVuSans-32"/>
     <use x="173.4375" xlink:href="#DejaVuSans-83"/>
     <use x="236.914062" xlink:href="#DejaVuSans-117"/>
     <use x="300.292969" xlink:href="#DejaVuSans-98"/>
     <use x="363.769531" xlink:href="#DejaVuSans-106"/>
     <use x="391.552734" xlink:href="#DejaVuSans-101"/>
     <use x="453.076172" xlink:href="#DejaVuSans-99"/>
     <use x="508.056641" xlink:href="#DejaVuSans-116"/>
     <use x="547.265625" xlink:href="#DejaVuSans-58"/>
     <use x="580.957031" xlink:href="#DejaVuSans-32"/>
     <use x="612.744141" xlink:href="#DejaVuSans-115"/>
     <use x="664.84375" xlink:href="#DejaVuSans-49"/>
     <use x="728.466797" xlink:href="#DejaVuSans-55"/>
     <use x="792.089844" xlink:href="#DejaVuSans-44"/>
     <use x="823.876953" xlink:href="#DejaVuSans-32"/>
     <use x="855.664062" xlink:href="#DejaVuSans-75"/>
     <use x="921.240234" xlink:href="#DejaVuSans-110"/>
     <use x="984.619141" xlink:href="#DejaVuSans-111"/>
     <use x="1045.800781" xlink:href="#DejaVuSans-119"/>
     <use x="1127.587891" xlink:href="#DejaVuSans-110"/>
     <use x="1190.966797" xlink:href="#DejaVuSans-32"/>
     <use x="1222.753906" xlink:href="#DejaVuSans-61"/>
     <use x="1306.542969" xlink:href="#DejaVuSans-32"/>
     <use x="1338.330078" xlink:href="#DejaVuSans-70"/>
     <use x="1395.708984" xlink:href="#DejaVuSans-97"/>
     <use x="1456.988281" xlink:href="#DejaVuSans-108"/>
     <use x="1484.771484" xlink:href="#DejaVuSans-115"/>
     <use x="1536.871094" xlink:href="#DejaVuSans-101"/>
     <use x="1598.394531" xlink:href="#DejaVuSans-44"/>
     <use x="1630.181641" xlink:href="#DejaVuSans-32"/>
     <use x="1661.96875" xlink:href="#DejaVuSans-68"/>
     <use x="1738.970703" xlink:href="#DejaVuSans-101"/>
     <use x="1800.494141" xlink:href="#DejaVuSans-103"/>
     <use x="1863.970703" xlink:href="#DejaVuSans-114"/>
     <use x="1905.052734" xlink:href="#DejaVuSans-101"/>
     <use x="1966.576172" xlink:href="#DejaVuSans-101"/>
     <use x="2028.099609" xlink:href="#DejaVuSans-32"/>
     <use x="2059.886719" xlink:href="#DejaVuSans-61"/>
     <use x="2143.675781" xlink:href="#DejaVuSans-32"/>
     <use x="2175.462891" xlink:href="#DejaVuSans-50"/>
     <use x="2239.085938" xlink:href="#DejaVuSans-44"/>
     <use x="2270.873047" xlink:href="#DejaVuSans-32"/>
     <use x="2302.660156" xlink:href="#DejaVuSans-68"/>
     <use x="2379.662109" xlink:href="#DejaVuSans-117"/>
     <use x="2443.041016" xlink:href="#DejaVuSans-114"/>
     <use x="2484.154297" xlink:href="#DejaVuSans-97"/>
     <use x="2545.433594" xlink:href="#DejaVuSans-116"/>
     <use x="2584.642578" xlink:href="#DejaVuSans-105"/>
     <use x="2612.425781" xlink:href="#DejaVuSans-111"/>
     <use x="2673.607422" xlink:href="#DejaVuSans-110"/>
     <use x="2736.986328" xlink:href="#DejaVuSans-32"/>
     <use x="2768.773438" xlink:href="#DejaVuSans-61"/>
     <use x="2852.5625" xlink:href="#DejaVuSans-32"/>
     <use x="2884.349609" xlink:href="#DejaVuSans-48"/>
     <use x="2947.972656" xlink:href="#DejaVuSans-46"/>
     <use x="2979.759766" xlink:href="#DejaVuSans-49"/>
    </g>
   </g>
  </g>
 </g>
 <defs>
  <clipPath id="p7d60dc1f91">
   <rect height="266.112" width="357.12" x="57.6" y="41.472"/>
  </clipPath>
 </defs>
</svg>
