<?xml version="1.0" encoding="utf-8" standalone="no"?>
<!DOCTYPE svg PUBLIC "-//W3C//DTD SVG 1.1//EN"
  "http://www.w3.org/Graphics/SVG/1.1/DTD/svg11.dtd">
<!-- Created with matplotlib (https://matplotlib.org/) -->
<svg height="345.6pt" version="1.1" viewBox="0 0 460.8 345.6" width="460.8pt" xmlns="http://www.w3.org/2000/svg" xmlns:xlink="http://www.w3.org/1999/xlink">
 <defs>
  <style type="text/css">
*{stroke-linecap:butt;stroke-linejoin:round;}
  </style>
 </defs>
 <g id="figure_1">
  <g id="patch_1">
   <path d="M 0 345.6 
L 460.8 345.6 
L 460.8 0 
L 0 0 
z
" style="fill:#ffffff;"/>
  </g>
  <g id="axes_1">
   <g id="patch_2">
    <path d="M 57.6 307.584 
L 414.72 307.584 
L 414.72 41.472 
L 57.6 41.472 
z
" style="fill:#ffffff;"/>
   </g>
   <g id="line2d_1">
    <path clip-path="url(#pe29cd4a6fc)" d="M 398.487273 291.435165 
L 398.270675 291.435165 
L 397.62088 292.446383 
L 397.404282 291.435165 
L 397.404282 289.412729 
L 397.837478 289.412729 
L 398.054077 291.435165 
L 397.837478 292.446383 
L 397.62088 292.446383 
L 397.62088 290.423947 
L 397.62088 291.435165 
L 397.404282 292.446383 
L 397.187684 291.435165 
L 396.971086 289.412729 
L 396.971086 286.379075 
L 397.187684 286.379075 
L 397.62088 289.412729 
L 397.62088 293.465564 
L 397.187684 295.488 
L 397.187684 294.476782 
L 397.62088 292.446383 
L 397.404282 293.465564 
L 396.754488 293.465564 
L 396.321292 291.435165 
L 396.321292 290.423947 
L 396.971086 285.367856 
L 396.754488 286.379075 
L 396.53789 289.412729 
L 396.754488 291.435165 
L 396.754488 290.423947 
L 396.754488 289.412729 
L 396.754488 290.423947 
L 396.53789 292.446383 
L 396.53789 292.446383 
L 396.754488 293.465564 
L 397.187684 293.465564 
L 397.404282 292.446383 
L 397.187684 293.465564 
L 396.971086 293.465564 
L 396.53789 291.435165 
L 396.104694 287.390293 
L 396.53789 287.390293 
L 397.187684 290.423947 
L 397.404282 290.423947 
L 397.187684 289.412729 
L 397.187684 289.412729 
L 396.971086 289.412729 
L 397.187684 287.390293 
L 396.971086 285.367856 
L 396.321292 285.367856 
L 395.888096 286.379075 
L 396.754488 286.379075 
L 396.754488 287.390293 
L 396.53789 289.412729 
L 395.671498 289.412729 
L 395.021703 288.401511 
L 395.021703 287.390293 
L 395.454899 285.367856 
L 396.321292 282.32624 
L 396.321292 284.348676 
L 396.104694 287.390293 
L 396.104694 289.412729 
L 396.104694 285.367856 
L 396.53789 286.379075 
L 396.53789 290.423947 
L 396.53789 288.401511 
L 396.754488 289.412729 
L 396.53789 291.435165 
L 396.321292 291.435165 
L 396.321292 287.390293 
L 396.104694 286.379075 
L 396.53789 286.379075 
L 396.53789 287.390293 
L 396.104694 289.412729 
L 395.888096 289.412729 
L 396.104694 286.379075 
L 395.888096 287.390293 
L 395.454899 290.423947 
L 395.888096 291.435165 
L 396.754488 291.435165 
L 397.404282 290.423947 
L 397.187684 289.412729 
L 396.754488 289.412729 
L 396.53789 288.401511 
L 396.104694 288.401511 
L 395.454899 291.435165 
L 395.454899 289.412729 
L 396.104694 289.412729 
L 396.53789 290.423947 
L 396.104694 291.435165 
L 395.671498 291.435165 
L 395.671498 287.390293 
L 395.238301 287.390293 
L 394.805105 289.412729 
L 395.021703 289.412729 
L 395.238301 288.401511 
L 395.454899 288.401511 
L 395.454899 287.390293 
L 395.454899 287.390293 
L 395.888096 287.390293 
L 395.888096 289.412729 
L 395.888096 287.390293 
L 396.104694 286.379075 
L 396.104694 287.390293 
L 396.321292 288.401511 
L 396.321292 288.401511 
L 395.888096 288.401511 
L 395.888096 287.390293 
L 395.671498 286.379075 
L 395.888096 287.390293 
L 396.104694 286.379075 
L 396.321292 284.348676 
L 395.671498 284.348676 
L 395.888096 284.348676 
L 396.104694 282.32624 
L 395.671498 281.315022 
L 395.671498 281.315022 
L 396.104694 280.303804 
L 396.754488 281.315022 
L 396.321292 283.337458 
L 395.671498 284.348676 
L 395.454899 284.348676 
L 395.888096 284.348676 
L 395.888096 284.348676 
L 395.888096 283.337458 
L 395.671498 283.337458 
L 395.671498 286.379075 
L 395.671498 285.367856 
L 396.321292 278.281367 
L 396.104694 276.250969 
L 396.104694 276.250969 
L 396.971086 276.250969 
L 396.53789 274.228533 
L 396.53789 273.217314 
L 396.754488 272.206096 
L 396.754488 273.217314 
L 396.321292 273.217314 
L 396.104694 272.206096 
L 396.53789 271.194878 
L 397.187684 271.194878 
L 397.404282 270.18366 
L 397.187684 269.172442 
L 396.53789 269.172442 
L 396.104694 272.206096 
L 396.321292 276.250969 
L 396.321292 276.250969 
L 396.321292 272.206096 
L 396.754488 269.172442 
L 396.971086 270.18366 
L 396.53789 272.206096 
L 397.187684 269.172442 
L 397.187684 268.153261 
L 396.971086 266.130825 
L 396.53789 266.130825 
L 396.321292 268.153261 
L 396.321292 267.142043 
L 396.104694 267.142043 
L 395.888096 269.172442 
L 395.454899 269.172442 
L 395.671498 268.153261 
L 395.888096 268.153261 
L 396.321292 266.130825 
L 396.754488 263.097171 
L 396.754488 264.108389 
L 396.53789 265.119607 
L 396.53789 266.130825 
L 396.321292 267.142043 
L 396.104694 265.119607 
L 396.53789 264.108389 
L 396.754488 263.097171 
L 396.321292 263.097171 
L 396.754488 266.130825 
L 396.754488 263.097171 
L 396.53789 260.055554 
L 396.754488 260.055554 
L 396.971086 263.097171 
L 396.754488 264.108389 
L 395.888096 264.108389 
L 395.454899 265.119607 
L 395.888096 267.142043 
L 396.321292 266.130825 
L 396.53789 262.085953 
L 396.321292 263.097171 
L 396.321292 265.119607 
L 396.321292 265.119607 
L 396.104694 264.108389 
L 395.671498 264.108389 
L 395.454899 265.119607 
L 395.671498 264.108389 
L 395.888096 264.108389 
L 395.888096 266.130825 
L 395.454899 269.172442 
L 395.021703 268.153261 
L 395.021703 266.130825 
L 395.454899 265.119607 
L 395.888096 266.130825 
L 396.104694 267.142043 
L 396.104694 267.142043 
L 395.021703 267.142043 
L 395.238301 265.119607 
L 395.454899 266.130825 
L 395.454899 266.130825 
L 395.021703 266.130825 
L 394.155311 267.142043 
L 393.286031 269.172442 
L 392.20304 269.172442 
L 390.686854 270.18366 
L 387.86819 273.217314 
L 384.835817 275.239751 
L 381.800556 273.217314 
L 378.548697 269.172442 
L 374.649931 266.130825 
L 359.912597 266.130825 
L 354.275271 264.108389 
L 348.424234 259.044336 
L 343.006394 253.988246 
L 337.588554 249.935411 
L 319.815958 240.826485 
L 307.680689 236.781613 
L 301.179859 235.762432 
L 288.825104 235.762432 
L 282.757469 236.781613 
L 276.906433 235.762432 
L 271.271994 231.71756 
L 266.067864 226.653507 
L 261.735902 226.653507 
L 257.401053 228.683906 
L 252.633007 230.706342 
L 247.648363 228.683906 
L 242.447121 225.642289 
L 237.245878 221.597416 
L 232.261234 220.586198 
L 223.158339 220.586198 
L 218.606891 219.57498 
L 214.055443 217.544582 
L 209.503995 217.544582 
L 205.169145 215.522145 
L 201.267492 210.458092 
L 188.482428 207.424438 
L 184.797373 210.458092 
L 181.762112 214.510927 
L 178.296542 217.544582 
L 174.611487 219.57498 
L 170.926431 220.586198 
L 167.89117 222.608635 
L 165.725189 224.631071 
L 163.992404 227.672687 
L 162.689928 229.695124 
L 161.606937 230.706342 
L 161.173741 231.71756 
L 160.740545 234.751214 
L 160.740545 235.762432 
L 161.390339 238.804049 
L 161.823535 239.815267 
L 163.34261 239.815267 
L 163.775806 238.804049 
L 163.992404 238.804049 
L 164.4256 240.826485 
L 164.642199 240.826485 
L 164.858797 239.815267 
L 165.075395 239.815267 
L 165.291993 240.826485 
L 165.291993 241.837703 
L 165.291993 240.826485 
L 165.075395 240.826485 
L 164.858797 239.815267 
L 164.642199 239.815267 
L 164.209002 240.826485 
L 163.992404 242.848922 
L 164.209002 240.826485 
L 163.992404 240.826485 
L 163.559208 239.815267 
L 163.34261 237.792831 
L 163.34261 237.792831 
L 163.559208 237.792831 
L 163.992404 235.762432 
L 164.4256 234.751214 
L 164.858797 235.762432 
L 164.642199 236.781613 
L 164.209002 236.781613 
L 164.209002 237.792831 
L 164.4256 238.804049 
L 164.209002 239.815267 
L 163.992404 239.815267 
L 164.4256 235.762432 
L 163.992404 233.739996 
L 163.775806 230.706342 
L 164.209002 229.695124 
L 164.858797 231.71756 
L 165.075395 233.739996 
L 164.642199 233.739996 
L 164.4256 230.706342 
L 164.4256 227.672687 
L 164.209002 229.695124 
L 164.4256 230.706342 
L 164.642199 229.695124 
L 164.858797 227.672687 
L 164.642199 228.683906 
L 164.4256 228.683906 
L 164.4256 227.672687 
L 163.559208 227.672687 
L 163.559208 225.642289 
L 164.4256 222.608635 
L 163.992404 223.619853 
L 163.775806 224.631071 
L 164.209002 226.653507 
L 164.209002 225.642289 
L 164.642199 221.597416 
L 164.4256 222.608635 
L 163.775806 223.619853 
L 163.34261 223.619853 
L 163.992404 221.597416 
L 164.858797 219.57498 
L 164.642199 220.586198 
L 163.992404 222.608635 
L 163.992404 221.597416 
L 164.642199 219.57498 
L 165.291993 218.5558 
L 165.508591 218.5558 
L 165.075395 217.544582 
L 164.858797 216.533364 
L 164.858797 215.522145 
L 164.858797 215.522145 
L 165.075395 215.522145 
L 165.075395 211.477273 
L 164.858797 208.435656 
L 165.075395 207.424438 
L 165.508591 206.41322 
L 165.508591 205.402002 
L 164.858797 208.435656 
L 165.291993 206.41322 
L 165.725189 201.349167 
L 165.941787 201.349167 
L 165.941787 205.402002 
L 165.941787 204.390784 
L 165.291993 202.360385 
L 164.4256 198.315513 
L 164.209002 199.326731 
L 164.4256 199.326731 
L 164.858797 198.315513 
L 165.508591 197.304295 
L 165.941787 196.293077 
L 165.725189 195.281858 
L 165.508591 193.25146 
L 165.291993 193.25146 
L 165.075395 192.240242 
L 165.075395 191.229024 
L 164.858797 191.229024 
L 164.4256 192.240242 
L 164.209002 195.281858 
L 163.559208 194.262678 
L 162.47333 192.240242 
L 160.957143 191.229024 
L 159.224358 190.217805 
L 156.622293 190.217805 
L 150.771257 192.240242 
L 147.519398 190.217805 
L 144.270426 189.206587 
L 140.801969 190.217805 
L 136.683717 190.217805 
L 127.580821 188.195369 
L 119.563804 188.195369 
L 115.66215 189.206587 
L 111.977095 189.206587 
L 108.292039 190.217805 
L 100.708218 194.262678 
L 94.2045 194.262678 
L 91.388724 195.281858 
L 88.570061 198.315513 
L 86.187482 201.349167 
L 81.852633 205.402002 
L 79.683764 208.435656 
L 77.734381 213.499709 
L 76.218194 216.533364 
L 75.135204 217.544582 
L 74.69912 219.57498 
L 74.69912 222.608635 
L 74.265923 222.608635 
L 73.832727 223.619853 
L 73.832727 223.619853 
L 74.049325 221.597416 
L 74.69912 221.597416 
L 74.69912 222.608635 
L 74.918606 221.597416 
L 75.135204 221.597416 
L 75.135204 222.608635 
L 74.918606 222.608635 
L 74.918606 221.597416 
L 74.69912 220.586198 
L 74.69912 221.597416 
L 74.918606 222.608635 
L 76.001596 225.642289 
L 76.218194 224.631071 
L 76.434792 224.631071 
L 76.434792 224.631071 
L 76.434792 231.71756 
L 76.218194 230.706342 
L 76.001596 230.706342 
L 76.434792 229.695124 
L 76.434792 229.695124 
L 76.218194 228.683906 
L 76.001596 229.695124 
L 76.001596 231.71756 
L 76.218194 231.71756 
L 76.218194 232.728778 
L 76.218194 232.728778 
L 76.434792 233.739996 
L 76.434792 233.739996 
L 76.218194 236.781613 
L 76.434792 234.751214 
L 76.434792 238.804049 
L 76.434792 236.781613 
L 76.218194 235.762432 
L 76.218194 235.762432 
L 76.218194 236.781613 
L 75.784998 236.781613 
L 75.135204 235.762432 
L 75.351802 234.751214 
L 76.218194 234.751214 
L 76.867989 235.762432 
L 76.867989 235.762432 
L 76.218194 236.781613 
L 75.784998 237.792831 
L 76.001596 237.792831 
L 76.218194 235.762432 
L 76.434792 235.762432 
L 76.434792 235.762432 
L 76.434792 236.781613 
L 76.001596 238.804049 
L 76.218194 239.815267 
L 76.867989 239.815267 
L 76.218194 236.781613 
L 75.5684 231.71756 
L 75.135204 229.695124 
L 75.351802 230.706342 
L 76.218194 232.728778 
L 76.65139 231.71756 
L 77.084587 231.71756 
L 76.218194 238.804049 
L 76.001596 237.792831 
L 75.784998 238.804049 
L 75.5684 241.837703 
L 75.784998 237.792831 
L 76.218194 236.781613 
L 76.434792 240.826485 
L 76.218194 237.792831 
L 76.65139 239.815267 
L 76.867989 239.815267 
L 77.084587 237.792831 
L 77.084587 238.804049 
L 77.084587 240.826485 
L 77.084587 240.826485 
L 76.65139 239.815267 
L 76.434792 240.826485 
L 76.434792 243.86014 
L 76.434792 243.86014 
L 76.867989 238.804049 
L 76.867989 237.792831 
L 76.65139 237.792831 
L 76.65139 236.781613 
L 76.867989 234.751214 
L 77.301185 233.739996 
L 77.301185 232.728778 
L 77.084587 232.728778 
L 76.867989 233.739996 
L 76.867989 236.781613 
L 76.65139 236.781613 
L 76.434792 235.762432 
L 75.784998 236.781613 
L 75.351802 238.804049 
L 75.784998 238.804049 
L 76.434792 237.792831 
L 76.867989 235.762432 
L 77.084587 236.781613 
L 76.65139 237.792831 
L 76.434792 238.804049 
L 76.434792 237.792831 
L 76.434792 238.804049 
L 76.65139 238.804049 
L 76.867989 237.792831 
L 77.301185 234.751214 
L 77.301185 231.71756 
L 77.301185 232.728778 
L 76.867989 234.751214 
L 76.434792 235.762432 
L 76.218194 233.739996 
L 76.434792 232.728778 
L 76.434792 234.751214 
L 76.434792 234.751214 
L 76.867989 232.728778 
L 77.301185 231.71756 
L 77.301185 231.71756 
L 77.517783 230.706342 
L 77.950979 230.706342 
L 77.734381 230.706342 
L 77.084587 235.762432 
L 76.65139 234.751214 
L 76.65139 230.706342 
L 77.084587 227.672687 
L 77.517783 229.695124 
L 77.084587 230.706342 
L 76.65139 230.706342 
L 76.65139 231.71756 
L 77.084587 231.71756 
L 77.734381 230.706342 
L 77.734381 230.706342 
L 76.867989 233.739996 
L 76.867989 232.728778 
L 76.867989 232.728778 
L 77.301185 234.751214 
L 77.301185 230.706342 
L 77.517783 231.71756 
L 77.517783 231.71756 
L 77.950979 230.706342 
L 77.950979 227.672687 
L 77.734381 226.653507 
L 77.301185 227.672687 
L 77.084587 229.695124 
L 77.301185 228.683906 
L 77.734381 226.653507 
L 78.167577 225.642289 
L 77.950979 225.642289 
L 77.517783 226.653507 
L 77.517783 226.653507 
L 77.950979 226.653507 
L 78.817371 224.631071 
L 79.467166 222.608635 
L 81.202838 219.57498 
L 83.368819 217.544582 
L 85.32109 216.533364 
L 87.703669 214.510927 
L 90.955528 211.477273 
L 94.640584 209.446874 
L 98.106153 205.402002 
L 101.791209 200.337949 
L 105.90946 194.262678 
L 110.460908 187.184151 
L 115.445552 179.086444 
L 121.296589 170.988737 
L 126.931027 164.913466 
L 132.132269 161.871849 
L 136.900315 157.826976 
L 142.318155 151.751705 
L 152.72064 137.586689 
L 158.357966 133.533855 
L 175.044683 123.413711 
L 179.596131 116.327222 
L 184.147579 111.263169 
L 188.482428 108.229515 
L 192.381194 104.17668 
L 199.751305 98.109371 
L 206.685332 90.011664 
L 212.322658 81.913957 
L 220.772872 70.774633 
L 222.941741 68.752196 
L 224.891123 66.72976 
L 227.059992 65.718542 
L 230.092365 65.718542 
L 231.82515 61.665707 
L 232.044636 59.643271 
L 232.044636 57.620835 
L 231.82515 57.620835 
L 231.391954 60.654489 
L 230.308964 60.654489 
L 229.659169 58.632053 
L 229.009375 58.632053 
L 228.142983 60.654489 
L 227.709787 63.696106 
L 226.840506 66.72976 
L 226.40731 69.763415 
L 226.190712 69.763415 
L 225.974114 66.72976 
L 225.757516 66.72976 
L 225.107721 70.774633 
L 224.674525 70.774633 
L 224.457927 71.793813 
L 224.457927 74.827467 
L 224.241329 80.902739 
L 224.024731 77.861122 
L 224.241329 77.861122 
L 224.457927 78.87234 
L 224.891123 77.861122 
L 224.674525 77.861122 
L 224.024731 82.925175 
L 224.024731 81.913957 
L 224.241329 81.913957 
L 224.241329 82.925175 
L 223.374937 80.902739 
L 223.808133 78.87234 
L 223.808133 78.87234 
L 223.374937 79.89152 
L 222.941741 81.913957 
L 223.158339 80.902739 
L 223.158339 79.89152 
L 223.158339 80.902739 
L 222.941741 80.902739 
L 222.725142 79.89152 
L 222.508544 79.89152 
L 222.725142 78.87234 
L 222.725142 77.861122 
L 222.725142 78.87234 
L 221.639264 83.936393 
L 221.639264 81.913957 
L 221.855862 79.89152 
L 222.508544 78.87234 
L 222.941741 79.89152 
L 222.941741 80.902739 
L 222.291946 81.913957 
L 221.855862 80.902739 
L 221.855862 80.902739 
L 221.855862 79.89152 
L 222.075348 78.87234 
L 222.508544 77.861122 
L 222.508544 79.89152 
L 222.941741 82.925175 
L 223.374937 82.925175 
L 223.591535 81.913957 
L 223.158339 79.89152 
L 223.158339 77.861122 
L 222.941741 78.87234 
L 222.941741 80.902739 
L 222.941741 80.902739 
L 223.374937 80.902739 
L 223.374937 80.902739 
L 223.158339 78.87234 
L 222.725142 79.89152 
L 222.508544 82.925175 
L 222.725142 82.925175 
L 222.291946 75.838686 
L 221.855862 74.827467 
L 221.855862 72.805031 
L 221.639264 72.805031 
L 221.855862 73.816249 
L 221.855862 76.849904 
L 222.075348 76.849904 
L 222.508544 77.861122 
L 222.725142 78.87234 
L 222.725142 81.913957 
L 222.508544 82.925175 
L 222.725142 81.913957 
L 222.725142 80.902739 
L 222.291946 79.89152 
L 221.639264 79.89152 
L 221.855862 79.89152 
L 221.855862 71.793813 
L 222.075348 70.774633 
L 222.725142 72.805031 
L 223.374937 76.849904 
L 223.374937 78.87234 
L 222.941741 78.87234 
L 223.158339 77.861122 
L 222.725142 77.861122 
L 222.725142 76.849904 
L 222.941741 75.838686 
L 222.725142 74.827467 
L 222.725142 74.827467 
L 222.725142 72.805031 
L 222.508544 71.793813 
L 222.508544 72.805031 
L 222.725142 73.816249 
L 223.158339 72.805031 
L 223.374937 70.774633 
L 223.374937 71.793813 
L 222.725142 73.816249 
L 222.508544 75.838686 
L 223.158339 74.827467 
L 223.591535 73.816249 
L 223.591535 73.816249 
L 222.941741 73.816249 
L 222.725142 74.827467 
L 222.508544 74.827467 
L 222.508544 72.805031 
L 223.374937 66.72976 
L 223.591535 66.72976 
L 223.158339 66.72976 
L 222.725142 68.752196 
L 222.508544 72.805031 
L 222.291946 72.805031 
L 222.075348 71.793813 
L 222.075348 69.763415 
L 222.291946 65.718542 
L 222.508544 65.718542 
L 222.508544 65.718542 
L 222.508544 64.707324 
L 222.075348 68.752196 
L 222.291946 70.774633 
L 222.291946 66.72976 
L 222.725142 63.696106 
L 222.941741 63.696106 
L 222.725142 66.72976 
L 222.725142 68.752196 
L 222.725142 68.752196 
L 222.508544 66.72976 
L 222.508544 63.696106 
L 222.725142 64.707324 
L 222.508544 65.718542 
L 221.855862 66.72976 
L 221.422666 65.718542 
L 221.855862 64.707324 
L 222.291946 65.718542 
L 222.291946 66.72976 
L 222.508544 65.718542 
L 222.508544 65.718542 
L 221.639264 65.718542 
L 221.855862 64.707324 
L 222.291946 63.696106 
L 222.508544 63.696106 
L 221.855862 66.72976 
L 220.772872 66.72976 
L 220.772872 64.707324 
L 221.206068 64.707324 
L 221.422666 66.72976 
L 221.206068 66.72976 
L 221.422666 64.707324 
L 221.855862 62.676925 
L 222.291946 62.676925 
L 222.291946 64.707324 
L 221.855862 65.718542 
L 221.639264 61.665707 
L 221.639264 61.665707 
L 220.556274 61.665707 
L 220.556274 61.665707 
L 221.206068 64.707324 
L 221.422666 63.696106 
L 221.855862 58.632053 
L 221.855862 59.643271 
L 222.075348 62.676925 
L 222.075348 64.707324 
L 221.855862 63.696106 
L 221.422666 63.696106 
L 221.206068 62.676925 
L 221.422666 62.676925 
L 221.639264 63.696106 
L 221.639264 64.707324 
L 220.98947 64.707324 
L 220.98947 62.676925 
L 221.206068 62.676925 
L 221.639264 61.665707 
L 221.639264 61.665707 
L 221.639264 60.654489 
L 222.075348 60.654489 
L 222.508544 62.676925 
L 222.291946 63.696106 
L 221.422666 64.707324 
L 220.98947 64.707324 
L 220.98947 64.707324 
L 220.556274 62.676925 
L 220.98947 59.643271 
L 220.98947 60.654489 
L 220.556274 62.676925 
L 220.123077 66.72976 
L 220.339675 66.72976 
L 220.339675 65.718542 
L 220.339675 66.72976 
L 220.123077 65.718542 
L 220.123077 63.696106 
L 220.339675 63.696106 
L 220.772872 62.676925 
L 220.772872 62.676925 
L 220.556274 61.665707 
L 220.556274 62.676925 
L 219.906479 68.752196 
L 219.906479 64.707324 
L 220.556274 62.676925 
L 221.422666 62.676925 
L 221.855862 63.696106 
L 221.422666 62.676925 
L 220.772872 61.665707 
L 220.339675 61.665707 
L 220.123077 60.654489 
L 220.123077 59.643271 
L 220.123077 60.654489 
L 220.556274 61.665707 
L 220.772872 62.676925 
L 220.98947 62.676925 
L 220.772872 62.676925 
L 220.556274 63.696106 
L 220.556274 64.707324 
L 220.772872 64.707324 
L 220.772872 63.696106 
L 220.339675 63.696106 
L 220.556274 62.676925 
L 221.422666 62.676925 
L 220.98947 61.665707 
L 220.556274 61.665707 
L 220.123077 60.654489 
L 219.906479 59.643271 
L 219.906479 57.620835 
L 220.123077 57.620835 
L 219.906479 59.643271 
L 219.689881 59.643271 
L 219.689881 58.632053 
L 220.339675 57.620835 
L 220.556274 56.609617 
L 220.339675 58.632053 
L 220.339675 60.654489 
L 220.339675 57.620835 
L 220.339675 57.620835 
L 220.772872 58.632053 
L 220.98947 58.632053 
L 220.556274 58.632053 
L 220.123077 59.643271 
L 219.906479 59.643271 
L 219.906479 59.643271 
L 220.123077 58.632053 
L 219.906479 57.620835 
L 220.123077 56.609617 
L 220.556274 56.609617 
L 220.556274 58.632053 
L 220.123077 60.654489 
L 219.689881 59.643271 
L 219.689881 57.620835 
L 220.339675 56.609617 
L 220.556274 55.598399 
L 220.339675 54.579218 
L 219.906479 54.579218 
L 219.473283 60.654489 
L 219.473283 62.676925 
L 220.123077 56.609617 
L 220.556274 56.609617 
L 220.556274 58.632053 
L 220.556274 57.620835 
L 220.123077 58.632053 
L 219.473283 60.654489 
L 219.256685 60.654489 
L 219.689881 59.643271 
L 219.906479 58.632053 
L 219.906479 59.643271 
L 220.123077 59.643271 
L 220.339675 57.620835 
L 220.339675 54.579218 
L 220.123077 55.598399 
L 220.123077 57.620835 
L 219.906479 59.643271 
L 219.473283 58.632053 
L 219.256685 58.632053 
L 219.040087 59.643271 
L 219.256685 58.632053 
L 219.906479 57.620835 
L 220.123077 56.609617 
L 220.123077 54.579218 
L 219.906479 53.568 
L 219.689881 53.568 
L 219.906479 54.579218 
L 219.906479 56.609617 
L 219.689881 56.609617 
L 219.473283 54.579218 
L 219.689881 53.568 
L 220.123077 54.579218 
L 219.689881 57.620835 
L 219.473283 57.620835 
L 219.473283 55.598399 
L 219.473283 58.632053 
L 219.256685 60.654489 
L 219.689881 57.620835 
L 219.906479 57.620835 
L 219.906479 58.632053 
L 219.906479 55.598399 
L 219.473283 54.579218 
L 219.256685 55.598399 
L 219.040087 58.632053 
L 218.823489 59.643271 
L 219.689881 59.643271 
L 219.689881 60.654489 
L 219.473283 59.643271 
L 219.473283 57.620835 
L 219.906479 55.598399 
L 220.123077 56.609617 
L 219.906479 57.620835 
L 219.689881 57.620835 
L 219.473283 58.632053 
L 219.473283 59.643271 
L 219.473283 57.620835 
L 219.906479 55.598399 
L 220.556274 58.632053 
L 220.772872 60.654489 
L 220.772872 60.654489 
L 220.556274 60.654489 
L 220.123077 58.632053 
L 219.906479 58.632053 
L 219.906479 60.654489 
L 219.689881 61.665707 
L 219.906479 61.665707 
L 220.123077 60.654489 
L 219.906479 58.632053 
L 219.256685 57.620835 
L 219.040087 58.632053 
L 219.256685 59.643271 
L 219.473283 59.643271 
L 219.256685 62.676925 
L 218.606891 64.707324 
L 218.606891 63.696106 
L 219.256685 62.676925 
L 219.689881 60.654489 
L 219.689881 61.665707 
L 219.473283 62.676925 
L 219.906479 62.676925 
L 220.339675 61.665707 
L 219.906479 62.676925 
L 219.256685 65.718542 
L 219.256685 65.718542 
L 219.473283 62.676925 
L 218.606891 61.665707 
L 218.173695 63.696106 
L 218.606891 64.707324 
L 219.040087 63.696106 
L 219.040087 62.676925 
L 218.823489 60.654489 
L 219.040087 60.654489 
L 219.040087 62.676925 
L 218.823489 64.707324 
L 219.040087 64.707324 
L 219.473283 63.696106 
L 219.689881 61.665707 
L 219.473283 61.665707 
L 219.040087 64.707324 
L 219.256685 66.72976 
L 219.473283 66.72976 
L 219.689881 65.718542 
L 219.473283 64.707324 
L 219.256685 61.665707 
L 219.256685 62.676925 
L 219.040087 64.707324 
L 218.390293 66.72976 
L 218.173695 66.72976 
L 218.823489 66.72976 
L 218.606891 66.72976 
L 218.390293 67.740978 
L 217.957096 67.740978 
L 217.957096 70.774633 
L 218.390293 71.793813 
L 218.390293 72.805031 
L 218.390293 71.793813 
L 217.957096 68.752196 
L 217.740498 69.763415 
L 217.740498 73.816249 
L 217.740498 72.805031 
L 218.173695 72.805031 
L 218.606891 73.816249 
L 218.606891 73.816249 
L 218.390293 72.805031 
L 218.173695 70.774633 
L 217.740498 70.774633 
L 217.5239 71.793813 
L 217.5239 73.816249 
L 217.740498 75.838686 
L 217.5239 76.849904 
L 217.740498 75.838686 
L 217.5239 75.838686 
L 217.307302 76.849904 
L 217.307302 75.838686 
L 217.307302 75.838686 
L 217.5239 76.849904 
L 217.740498 76.849904 
L 217.740498 76.849904 
L 217.740498 79.89152 
L 217.5239 79.89152 
L 217.5239 79.89152 
" style="fill:none;stroke:#1f77b4;stroke-linecap:square;stroke-width:1.5;"/>
   </g>
   <g id="matplotlib.axis_1">
    <g id="xtick_1">
     <g id="line2d_2">
      <defs>
       <path d="M 0 0 
L 0 3.5 
" id="m03ab7dfb68" style="stroke:#000000;stroke-width:0.8;"/>
      </defs>
      <g>
       <use style="stroke:#000000;stroke-width:0.8;" x="64.316851" xlink:href="#m03ab7dfb68" y="307.584"/>
      </g>
     </g>
     <g id="text_1">
      <!-- −400 -->
      <defs>
       <path d="M 10.59375 35.5 
L 73.1875 35.5 
L 73.1875 27.203125 
L 10.59375 27.203125 
z
" id="DejaVuSans-8722"/>
       <path d="M 37.796875 64.3125 
L 12.890625 25.390625 
L 37.796875 25.390625 
z
M 35.203125 72.90625 
L 47.609375 72.90625 
L 47.609375 25.390625 
L 58.015625 25.390625 
L 58.015625 17.1875 
L 47.609375 17.1875 
L 47.609375 0 
L 37.796875 0 
L 37.796875 17.1875 
L 4.890625 17.1875 
L 4.890625 26.703125 
z
" id="DejaVuSans-52"/>
       <path d="M 31.78125 66.40625 
Q 24.171875 66.40625 20.328125 58.90625 
Q 16.5 51.421875 16.5 36.375 
Q 16.5 21.390625 20.328125 13.890625 
Q 24.171875 6.390625 31.78125 6.390625 
Q 39.453125 6.390625 43.28125 13.890625 
Q 47.125 21.390625 47.125 36.375 
Q 47.125 51.421875 43.28125 58.90625 
Q 39.453125 66.40625 31.78125 66.40625 
z
M 31.78125 74.21875 
Q 44.046875 74.21875 50.515625 64.515625 
Q 56.984375 54.828125 56.984375 36.375 
Q 56.984375 17.96875 50.515625 8.265625 
Q 44.046875 -1.421875 31.78125 -1.421875 
Q 19.53125 -1.421875 13.0625 8.265625 
Q 6.59375 17.96875 6.59375 36.375 
Q 6.59375 54.828125 13.0625 64.515625 
Q 19.53125 74.21875 31.78125 74.21875 
z
" id="DejaVuSans-48"/>
      </defs>
      <g transform="translate(50.583257 322.182437)scale(0.1 -0.1)">
       <use xlink:href="#DejaVuSans-8722"/>
       <use x="83.789062" xlink:href="#DejaVuSans-52"/>
       <use x="147.412109" xlink:href="#DejaVuSans-48"/>
       <use x="211.035156" xlink:href="#DejaVuSans-48"/>
      </g>
     </g>
    </g>
    <g id="xtick_2">
     <g id="line2d_3">
      <g>
       <use style="stroke:#000000;stroke-width:0.8;" x="122.076342" xlink:href="#m03ab7dfb68" y="307.584"/>
      </g>
     </g>
     <g id="text_2">
      <!-- −200 -->
      <defs>
       <path d="M 19.1875 8.296875 
L 53.609375 8.296875 
L 53.609375 0 
L 7.328125 0 
L 7.328125 8.296875 
Q 12.9375 14.109375 22.625 23.890625 
Q 32.328125 33.6875 34.8125 36.53125 
Q 39.546875 41.84375 41.421875 45.53125 
Q 43.3125 49.21875 43.3125 52.78125 
Q 43.3125 58.59375 39.234375 62.25 
Q 35.15625 65.921875 28.609375 65.921875 
Q 23.96875 65.921875 18.8125 64.3125 
Q 13.671875 62.703125 7.8125 59.421875 
L 7.8125 69.390625 
Q 13.765625 71.78125 18.9375 73 
Q 24.125 74.21875 28.421875 74.21875 
Q 39.75 74.21875 46.484375 68.546875 
Q 53.21875 62.890625 53.21875 53.421875 
Q 53.21875 48.921875 51.53125 44.890625 
Q 49.859375 40.875 45.40625 35.40625 
Q 44.1875 33.984375 37.640625 27.21875 
Q 31.109375 20.453125 19.1875 8.296875 
z
" id="DejaVuSans-50"/>
      </defs>
      <g transform="translate(108.342748 322.182437)scale(0.1 -0.1)">
       <use xlink:href="#DejaVuSans-8722"/>
       <use x="83.789062" xlink:href="#DejaVuSans-50"/>
       <use x="147.412109" xlink:href="#DejaVuSans-48"/>
       <use x="211.035156" xlink:href="#DejaVuSans-48"/>
      </g>
     </g>
    </g>
    <g id="xtick_3">
     <g id="line2d_4">
      <g>
       <use style="stroke:#000000;stroke-width:0.8;" x="179.835833" xlink:href="#m03ab7dfb68" y="307.584"/>
      </g>
     </g>
     <g id="text_3">
      <!-- 0 -->
      <g transform="translate(176.654583 322.182437)scale(0.1 -0.1)">
       <use xlink:href="#DejaVuSans-48"/>
      </g>
     </g>
    </g>
    <g id="xtick_4">
     <g id="line2d_5">
      <g>
       <use style="stroke:#000000;stroke-width:0.8;" x="237.595323" xlink:href="#m03ab7dfb68" y="307.584"/>
      </g>
     </g>
     <g id="text_4">
      <!-- 200 -->
      <g transform="translate(228.051573 322.182437)scale(0.1 -0.1)">
       <use xlink:href="#DejaVuSans-50"/>
       <use x="63.623047" xlink:href="#DejaVuSans-48"/>
       <use x="127.246094" xlink:href="#DejaVuSans-48"/>
      </g>
     </g>
    </g>
    <g id="xtick_5">
     <g id="line2d_6">
      <g>
       <use style="stroke:#000000;stroke-width:0.8;" x="295.354814" xlink:href="#m03ab7dfb68" y="307.584"/>
      </g>
     </g>
     <g id="text_5">
      <!-- 400 -->
      <g transform="translate(285.811064 322.182437)scale(0.1 -0.1)">
       <use xlink:href="#DejaVuSans-52"/>
       <use x="63.623047" xlink:href="#DejaVuSans-48"/>
       <use x="127.246094" xlink:href="#DejaVuSans-48"/>
      </g>
     </g>
    </g>
    <g id="xtick_6">
     <g id="line2d_7">
      <g>
       <use style="stroke:#000000;stroke-width:0.8;" x="353.114305" xlink:href="#m03ab7dfb68" y="307.584"/>
      </g>
     </g>
     <g id="text_6">
      <!-- 600 -->
      <defs>
       <path d="M 33.015625 40.375 
Q 26.375 40.375 22.484375 35.828125 
Q 18.609375 31.296875 18.609375 23.390625 
Q 18.609375 15.53125 22.484375 10.953125 
Q 26.375 6.390625 33.015625 6.390625 
Q 39.65625 6.390625 43.53125 10.953125 
Q 47.40625 15.53125 47.40625 23.390625 
Q 47.40625 31.296875 43.53125 35.828125 
Q 39.65625 40.375 33.015625 40.375 
z
M 52.59375 71.296875 
L 52.59375 62.3125 
Q 48.875 64.0625 45.09375 64.984375 
Q 41.3125 65.921875 37.59375 65.921875 
Q 27.828125 65.921875 22.671875 59.328125 
Q 17.53125 52.734375 16.796875 39.40625 
Q 19.671875 43.65625 24.015625 45.921875 
Q 28.375 48.1875 33.59375 48.1875 
Q 44.578125 48.1875 50.953125 41.515625 
Q 57.328125 34.859375 57.328125 23.390625 
Q 57.328125 12.15625 50.6875 5.359375 
Q 44.046875 -1.421875 33.015625 -1.421875 
Q 20.359375 -1.421875 13.671875 8.265625 
Q 6.984375 17.96875 6.984375 36.375 
Q 6.984375 53.65625 15.1875 63.9375 
Q 23.390625 74.21875 37.203125 74.21875 
Q 40.921875 74.21875 44.703125 73.484375 
Q 48.484375 72.75 52.59375 71.296875 
z
" id="DejaVuSans-54"/>
      </defs>
      <g transform="translate(343.570555 322.182437)scale(0.1 -0.1)">
       <use xlink:href="#DejaVuSans-54"/>
       <use x="63.623047" xlink:href="#DejaVuSans-48"/>
       <use x="127.246094" xlink:href="#DejaVuSans-48"/>
      </g>
     </g>
    </g>
    <g id="xtick_7">
     <g id="line2d_8">
      <g>
       <use style="stroke:#000000;stroke-width:0.8;" x="410.873796" xlink:href="#m03ab7dfb68" y="307.584"/>
      </g>
     </g>
     <g id="text_7">
      <!-- 800 -->
      <defs>
       <path d="M 31.78125 34.625 
Q 24.75 34.625 20.71875 30.859375 
Q 16.703125 27.09375 16.703125 20.515625 
Q 16.703125 13.921875 20.71875 10.15625 
Q 24.75 6.390625 31.78125 6.390625 
Q 38.8125 6.390625 42.859375 10.171875 
Q 46.921875 13.96875 46.921875 20.515625 
Q 46.921875 27.09375 42.890625 30.859375 
Q 38.875 34.625 31.78125 34.625 
z
M 21.921875 38.8125 
Q 15.578125 40.375 12.03125 44.71875 
Q 8.5 49.078125 8.5 55.328125 
Q 8.5 64.0625 14.71875 69.140625 
Q 20.953125 74.21875 31.78125 74.21875 
Q 42.671875 74.21875 48.875 69.140625 
Q 55.078125 64.0625 55.078125 55.328125 
Q 55.078125 49.078125 51.53125 44.71875 
Q 48 40.375 41.703125 38.8125 
Q 48.828125 37.15625 52.796875 32.3125 
Q 56.78125 27.484375 56.78125 20.515625 
Q 56.78125 9.90625 50.3125 4.234375 
Q 43.84375 -1.421875 31.78125 -1.421875 
Q 19.734375 -1.421875 13.25 4.234375 
Q 6.78125 9.90625 6.78125 20.515625 
Q 6.78125 27.484375 10.78125 32.3125 
Q 14.796875 37.15625 21.921875 38.8125 
z
M 18.3125 54.390625 
Q 18.3125 48.734375 21.84375 45.5625 
Q 25.390625 42.390625 31.78125 42.390625 
Q 38.140625 42.390625 41.71875 45.5625 
Q 45.3125 48.734375 45.3125 54.390625 
Q 45.3125 60.0625 41.71875 63.234375 
Q 38.140625 66.40625 31.78125 66.40625 
Q 25.390625 66.40625 21.84375 63.234375 
Q 18.3125 60.0625 18.3125 54.390625 
z
" id="DejaVuSans-56"/>
      </defs>
      <g transform="translate(401.330046 322.182437)scale(0.1 -0.1)">
       <use xlink:href="#DejaVuSans-56"/>
       <use x="63.623047" xlink:href="#DejaVuSans-48"/>
       <use x="127.246094" xlink:href="#DejaVuSans-48"/>
      </g>
     </g>
    </g>
   </g>
   <g id="matplotlib.axis_2">
    <g id="ytick_1">
     <g id="line2d_9">
      <defs>
       <path d="M 0 0 
L -3.5 0 
" id="m39d54fcba7" style="stroke:#000000;stroke-width:0.8;"/>
      </defs>
      <g>
       <use style="stroke:#000000;stroke-width:0.8;" x="57.6" xlink:href="#m39d54fcba7" y="287.453992"/>
      </g>
     </g>
     <g id="text_8">
      <!-- −650 -->
      <defs>
       <path d="M 10.796875 72.90625 
L 49.515625 72.90625 
L 49.515625 64.59375 
L 19.828125 64.59375 
L 19.828125 46.734375 
Q 21.96875 47.46875 24.109375 47.828125 
Q 26.265625 48.1875 28.421875 48.1875 
Q 40.625 48.1875 47.75 41.5 
Q 54.890625 34.8125 54.890625 23.390625 
Q 54.890625 11.625 47.5625 5.09375 
Q 40.234375 -1.421875 26.90625 -1.421875 
Q 22.3125 -1.421875 17.546875 -0.640625 
Q 12.796875 0.140625 7.71875 1.703125 
L 7.71875 11.625 
Q 12.109375 9.234375 16.796875 8.0625 
Q 21.484375 6.890625 26.703125 6.890625 
Q 35.15625 6.890625 40.078125 11.328125 
Q 45.015625 15.765625 45.015625 23.390625 
Q 45.015625 31 40.078125 35.4375 
Q 35.15625 39.890625 26.703125 39.890625 
Q 22.75 39.890625 18.8125 39.015625 
Q 14.890625 38.140625 10.796875 36.28125 
z
" id="DejaVuSans-53"/>
      </defs>
      <g transform="translate(23.132812 291.25321)scale(0.1 -0.1)">
       <use xlink:href="#DejaVuSans-8722"/>
       <use x="83.789062" xlink:href="#DejaVuSans-54"/>
       <use x="147.412109" xlink:href="#DejaVuSans-53"/>
       <use x="211.035156" xlink:href="#DejaVuSans-48"/>
      </g>
     </g>
    </g>
    <g id="ytick_2">
     <g id="line2d_10">
      <g>
       <use style="stroke:#000000;stroke-width:0.8;" x="57.6" xlink:href="#m39d54fcba7" y="247.642255"/>
      </g>
     </g>
     <g id="text_9">
      <!-- −600 -->
      <g transform="translate(23.132812 251.441473)scale(0.1 -0.1)">
       <use xlink:href="#DejaVuSans-8722"/>
       <use x="83.789062" xlink:href="#DejaVuSans-54"/>
       <use x="147.412109" xlink:href="#DejaVuSans-48"/>
       <use x="211.035156" xlink:href="#DejaVuSans-48"/>
      </g>
     </g>
    </g>
    <g id="ytick_3">
     <g id="line2d_11">
      <g>
       <use style="stroke:#000000;stroke-width:0.8;" x="57.6" xlink:href="#m39d54fcba7" y="207.830518"/>
      </g>
     </g>
     <g id="text_10">
      <!-- −550 -->
      <g transform="translate(23.132812 211.629737)scale(0.1 -0.1)">
       <use xlink:href="#DejaVuSans-8722"/>
       <use x="83.789062" xlink:href="#DejaVuSans-53"/>
       <use x="147.412109" xlink:href="#DejaVuSans-53"/>
       <use x="211.035156" xlink:href="#DejaVuSans-48"/>
      </g>
     </g>
    </g>
    <g id="ytick_4">
     <g id="line2d_12">
      <g>
       <use style="stroke:#000000;stroke-width:0.8;" x="57.6" xlink:href="#m39d54fcba7" y="168.018781"/>
      </g>
     </g>
     <g id="text_11">
      <!-- −500 -->
      <g transform="translate(23.132812 171.818)scale(0.1 -0.1)">
       <use xlink:href="#DejaVuSans-8722"/>
       <use x="83.789062" xlink:href="#DejaVuSans-53"/>
       <use x="147.412109" xlink:href="#DejaVuSans-48"/>
       <use x="211.035156" xlink:href="#DejaVuSans-48"/>
      </g>
     </g>
    </g>
    <g id="ytick_5">
     <g id="line2d_13">
      <g>
       <use style="stroke:#000000;stroke-width:0.8;" x="57.6" xlink:href="#m39d54fcba7" y="128.207044"/>
      </g>
     </g>
     <g id="text_12">
      <!-- −450 -->
      <g transform="translate(23.132812 132.006263)scale(0.1 -0.1)">
       <use xlink:href="#DejaVuSans-8722"/>
       <use x="83.789062" xlink:href="#DejaVuSans-52"/>
       <use x="147.412109" xlink:href="#DejaVuSans-53"/>
       <use x="211.035156" xlink:href="#DejaVuSans-48"/>
      </g>
     </g>
    </g>
    <g id="ytick_6">
     <g id="line2d_14">
      <g>
       <use style="stroke:#000000;stroke-width:0.8;" x="57.6" xlink:href="#m39d54fcba7" y="88.395307"/>
      </g>
     </g>
     <g id="text_13">
      <!-- −400 -->
      <g transform="translate(23.132812 92.194526)scale(0.1 -0.1)">
       <use xlink:href="#DejaVuSans-8722"/>
       <use x="83.789062" xlink:href="#DejaVuSans-52"/>
       <use x="147.412109" xlink:href="#DejaVuSans-48"/>
       <use x="211.035156" xlink:href="#DejaVuSans-48"/>
      </g>
     </g>
    </g>
    <g id="ytick_7">
     <g id="line2d_15">
      <g>
       <use style="stroke:#000000;stroke-width:0.8;" x="57.6" xlink:href="#m39d54fcba7" y="48.583571"/>
      </g>
     </g>
     <g id="text_14">
      <!-- −350 -->
      <defs>
       <path d="M 40.578125 39.3125 
Q 47.65625 37.796875 51.625 33 
Q 55.609375 28.21875 55.609375 21.1875 
Q 55.609375 10.40625 48.1875 4.484375 
Q 40.765625 -1.421875 27.09375 -1.421875 
Q 22.515625 -1.421875 17.65625 -0.515625 
Q 12.796875 0.390625 7.625 2.203125 
L 7.625 11.71875 
Q 11.71875 9.328125 16.59375 8.109375 
Q 21.484375 6.890625 26.8125 6.890625 
Q 36.078125 6.890625 40.9375 10.546875 
Q 45.796875 14.203125 45.796875 21.1875 
Q 45.796875 27.640625 41.28125 31.265625 
Q 36.765625 34.90625 28.71875 34.90625 
L 20.21875 34.90625 
L 20.21875 43.015625 
L 29.109375 43.015625 
Q 36.375 43.015625 40.234375 45.921875 
Q 44.09375 48.828125 44.09375 54.296875 
Q 44.09375 59.90625 40.109375 62.90625 
Q 36.140625 65.921875 28.71875 65.921875 
Q 24.65625 65.921875 20.015625 65.03125 
Q 15.375 64.15625 9.8125 62.3125 
L 9.8125 71.09375 
Q 15.4375 72.65625 20.34375 73.4375 
Q 25.25 74.21875 29.59375 74.21875 
Q 40.828125 74.21875 47.359375 69.109375 
Q 53.90625 64.015625 53.90625 55.328125 
Q 53.90625 49.265625 50.4375 45.09375 
Q 46.96875 40.921875 40.578125 39.3125 
z
" id="DejaVuSans-51"/>
      </defs>
      <g transform="translate(23.132812 52.382789)scale(0.1 -0.1)">
       <use xlink:href="#DejaVuSans-8722"/>
       <use x="83.789062" xlink:href="#DejaVuSans-51"/>
       <use x="147.412109" xlink:href="#DejaVuSans-53"/>
       <use x="211.035156" xlink:href="#DejaVuSans-48"/>
      </g>
     </g>
    </g>
   </g>
   <g id="line2d_16">
    <path clip-path="url(#pe29cd4a6fc)" d="M 394.154813 279.977019 
L 168.120967 224.437674 
L 80.270299 227.738131 
L 220.679039 67.694774 
" style="fill:none;stroke:#ff0000;stroke-linecap:square;stroke-width:0.5;"/>
   </g>
   <g id="patch_3">
    <path d="M 57.6 307.584 
L 57.6 41.472 
" style="fill:none;stroke:#000000;stroke-linecap:square;stroke-linejoin:miter;stroke-width:0.8;"/>
   </g>
   <g id="patch_4">
    <path d="M 414.72 307.584 
L 414.72 41.472 
" style="fill:none;stroke:#000000;stroke-linecap:square;stroke-linejoin:miter;stroke-width:0.8;"/>
   </g>
   <g id="patch_5">
    <path d="M 57.6 307.584 
L 414.72 307.584 
" style="fill:none;stroke:#000000;stroke-linecap:square;stroke-linejoin:miter;stroke-width:0.8;"/>
   </g>
   <g id="patch_6">
    <path d="M 57.6 41.472 
L 414.72 41.472 
" style="fill:none;stroke:#000000;stroke-linecap:square;stroke-linejoin:miter;stroke-width:0.8;"/>
   </g>
   <g id="PathCollection_1">
    <defs>
     <path d="M 0 2.738613 
C 0.726289 2.738613 1.422928 2.450055 1.936492 1.936492 
C 2.450055 1.422928 2.738613 0.726289 2.738613 0 
C 2.738613 -0.726289 2.450055 -1.422928 1.936492 -1.936492 
C 1.422928 -2.450055 0.726289 -2.738613 0 -2.738613 
C -0.726289 -2.738613 -1.422928 -2.450055 -1.936492 -1.936492 
C -2.450055 -1.422928 -2.738613 -0.726289 -2.738613 0 
C -2.738613 0.726289 -2.450055 1.422928 -1.936492 1.936492 
C -1.422928 2.450055 -0.726289 2.738613 0 2.738613 
z
" id="m35e0c79e57" style="stroke:#ff0000;"/>
    </defs>
    <g clip-path="url(#pe29cd4a6fc)">
     <use style="fill:#ff0000;stroke:#ff0000;" x="394.154813" xlink:href="#m35e0c79e57" y="279.977019"/>
     <use style="fill:#ff0000;stroke:#ff0000;" x="168.120967" xlink:href="#m35e0c79e57" y="224.437674"/>
     <use style="fill:#ff0000;stroke:#ff0000;" x="80.270299" xlink:href="#m35e0c79e57" y="227.738131"/>
     <use style="fill:#ff0000;stroke:#ff0000;" x="220.679039" xlink:href="#m35e0c79e57" y="67.694774"/>
    </g>
   </g>
   <g id="text_15">
    <!-- (40) Subject: s3, Known = False, Degree = 2, Duration = 0.1 -->
    <defs>
     <path d="M 31 75.875 
Q 24.46875 64.65625 21.28125 53.65625 
Q 18.109375 42.671875 18.109375 31.390625 
Q 18.109375 20.125 21.3125 9.0625 
Q 24.515625 -2 31 -13.1875 
L 23.1875 -13.1875 
Q 15.875 -1.703125 12.234375 9.375 
Q 8.59375 20.453125 8.59375 31.390625 
Q 8.59375 42.28125 12.203125 53.3125 
Q 15.828125 64.359375 23.1875 75.875 
z
" id="DejaVuSans-40"/>
     <path d="M 8.015625 75.875 
L 15.828125 75.875 
Q 23.140625 64.359375 26.78125 53.3125 
Q 30.421875 42.28125 30.421875 31.390625 
Q 30.421875 20.453125 26.78125 9.375 
Q 23.140625 -1.703125 15.828125 -13.1875 
L 8.015625 -13.1875 
Q 14.5 -2 17.703125 9.0625 
Q 20.90625 20.125 20.90625 31.390625 
Q 20.90625 42.671875 17.703125 53.65625 
Q 14.5 64.65625 8.015625 75.875 
z
" id="DejaVuSans-41"/>
     <path id="DejaVuSans-32"/>
     <path d="M 53.515625 70.515625 
L 53.515625 60.890625 
Q 47.90625 63.578125 42.921875 64.890625 
Q 37.9375 66.21875 33.296875 66.21875 
Q 25.25 66.21875 20.875 63.09375 
Q 16.5 59.96875 16.5 54.203125 
Q 16.5 49.359375 19.40625 46.890625 
Q 22.3125 44.4375 30.421875 42.921875 
L 36.375 41.703125 
Q 47.40625 39.59375 52.65625 34.296875 
Q 57.90625 29 57.90625 20.125 
Q 57.90625 9.515625 50.796875 4.046875 
Q 43.703125 -1.421875 29.984375 -1.421875 
Q 24.8125 -1.421875 18.96875 -0.25 
Q 13.140625 0.921875 6.890625 3.21875 
L 6.890625 13.375 
Q 12.890625 10.015625 18.65625 8.296875 
Q 24.421875 6.59375 29.984375 6.59375 
Q 38.421875 6.59375 43.015625 9.90625 
Q 47.609375 13.234375 47.609375 19.390625 
Q 47.609375 24.75 44.3125 27.78125 
Q 41.015625 30.8125 33.5 32.328125 
L 27.484375 33.5 
Q 16.453125 35.6875 11.515625 40.375 
Q 6.59375 45.0625 6.59375 53.421875 
Q 6.59375 63.09375 13.40625 68.65625 
Q 20.21875 74.21875 32.171875 74.21875 
Q 37.3125 74.21875 42.625 73.28125 
Q 47.953125 72.359375 53.515625 70.515625 
z
" id="DejaVuSans-83"/>
     <path d="M 8.5 21.578125 
L 8.5 54.6875 
L 17.484375 54.6875 
L 17.484375 21.921875 
Q 17.484375 14.15625 20.5 10.265625 
Q 23.53125 6.390625 29.59375 6.390625 
Q 36.859375 6.390625 41.078125 11.03125 
Q 45.3125 15.671875 45.3125 23.6875 
L 45.3125 54.6875 
L 54.296875 54.6875 
L 54.296875 0 
L 45.3125 0 
L 45.3125 8.40625 
Q 42.046875 3.421875 37.71875 1 
Q 33.40625 -1.421875 27.6875 -1.421875 
Q 18.265625 -1.421875 13.375 4.4375 
Q 8.5 10.296875 8.5 21.578125 
z
M 31.109375 56 
z
" id="DejaVuSans-117"/>
     <path d="M 48.6875 27.296875 
Q 48.6875 37.203125 44.609375 42.84375 
Q 40.53125 48.484375 33.40625 48.484375 
Q 26.265625 48.484375 22.1875 42.84375 
Q 18.109375 37.203125 18.109375 27.296875 
Q 18.109375 17.390625 22.1875 11.75 
Q 26.265625 6.109375 33.40625 6.109375 
Q 40.53125 6.109375 44.609375 11.75 
Q 48.6875 17.390625 48.6875 27.296875 
z
M 18.109375 46.390625 
Q 20.953125 51.265625 25.265625 53.625 
Q 29.59375 56 35.59375 56 
Q 45.5625 56 51.78125 48.09375 
Q 58.015625 40.1875 58.015625 27.296875 
Q 58.015625 14.40625 51.78125 6.484375 
Q 45.5625 -1.421875 35.59375 -1.421875 
Q 29.59375 -1.421875 25.265625 0.953125 
Q 20.953125 3.328125 18.109375 8.203125 
L 18.109375 0 
L 9.078125 0 
L 9.078125 75.984375 
L 18.109375 75.984375 
z
" id="DejaVuSans-98"/>
     <path d="M 9.421875 54.6875 
L 18.40625 54.6875 
L 18.40625 -0.984375 
Q 18.40625 -11.421875 14.421875 -16.109375 
Q 10.453125 -20.796875 1.609375 -20.796875 
L -1.8125 -20.796875 
L -1.8125 -13.1875 
L 0.59375 -13.1875 
Q 5.71875 -13.1875 7.5625 -10.8125 
Q 9.421875 -8.453125 9.421875 -0.984375 
z
M 9.421875 75.984375 
L 18.40625 75.984375 
L 18.40625 64.59375 
L 9.421875 64.59375 
z
" id="DejaVuSans-106"/>
     <path d="M 56.203125 29.59375 
L 56.203125 25.203125 
L 14.890625 25.203125 
Q 15.484375 15.921875 20.484375 11.0625 
Q 25.484375 6.203125 34.421875 6.203125 
Q 39.59375 6.203125 44.453125 7.46875 
Q 49.3125 8.734375 54.109375 11.28125 
L 54.109375 2.78125 
Q 49.265625 0.734375 44.1875 -0.34375 
Q 39.109375 -1.421875 33.890625 -1.421875 
Q 20.796875 -1.421875 13.15625 6.1875 
Q 5.515625 13.8125 5.515625 26.8125 
Q 5.515625 40.234375 12.765625 48.109375 
Q 20.015625 56 32.328125 56 
Q 43.359375 56 49.78125 48.890625 
Q 56.203125 41.796875 56.203125 29.59375 
z
M 47.21875 32.234375 
Q 47.125 39.59375 43.09375 43.984375 
Q 39.0625 48.390625 32.421875 48.390625 
Q 24.90625 48.390625 20.390625 44.140625 
Q 15.875 39.890625 15.1875 32.171875 
z
" id="DejaVuSans-101"/>
     <path d="M 48.78125 52.59375 
L 48.78125 44.1875 
Q 44.96875 46.296875 41.140625 47.34375 
Q 37.3125 48.390625 33.40625 48.390625 
Q 24.65625 48.390625 19.8125 42.84375 
Q 14.984375 37.3125 14.984375 27.296875 
Q 14.984375 17.28125 19.8125 11.734375 
Q 24.65625 6.203125 33.40625 6.203125 
Q 37.3125 6.203125 41.140625 7.25 
Q 44.96875 8.296875 48.78125 10.40625 
L 48.78125 2.09375 
Q 45.015625 0.34375 40.984375 -0.53125 
Q 36.96875 -1.421875 32.421875 -1.421875 
Q 20.0625 -1.421875 12.78125 6.34375 
Q 5.515625 14.109375 5.515625 27.296875 
Q 5.515625 40.671875 12.859375 48.328125 
Q 20.21875 56 33.015625 56 
Q 37.15625 56 41.109375 55.140625 
Q 45.0625 54.296875 48.78125 52.59375 
z
" id="DejaVuSans-99"/>
     <path d="M 18.3125 70.21875 
L 18.3125 54.6875 
L 36.8125 54.6875 
L 36.8125 47.703125 
L 18.3125 47.703125 
L 18.3125 18.015625 
Q 18.3125 11.328125 20.140625 9.421875 
Q 21.96875 7.515625 27.59375 7.515625 
L 36.8125 7.515625 
L 36.8125 0 
L 27.59375 0 
Q 17.1875 0 13.234375 3.875 
Q 9.28125 7.765625 9.28125 18.015625 
L 9.28125 47.703125 
L 2.6875 47.703125 
L 2.6875 54.6875 
L 9.28125 54.6875 
L 9.28125 70.21875 
z
" id="DejaVuSans-116"/>
     <path d="M 11.71875 12.40625 
L 22.015625 12.40625 
L 22.015625 0 
L 11.71875 0 
z
M 11.71875 51.703125 
L 22.015625 51.703125 
L 22.015625 39.3125 
L 11.71875 39.3125 
z
" id="DejaVuSans-58"/>
     <path d="M 44.28125 53.078125 
L 44.28125 44.578125 
Q 40.484375 46.53125 36.375 47.5 
Q 32.28125 48.484375 27.875 48.484375 
Q 21.1875 48.484375 17.84375 46.4375 
Q 14.5 44.390625 14.5 40.28125 
Q 14.5 37.15625 16.890625 35.375 
Q 19.28125 33.59375 26.515625 31.984375 
L 29.59375 31.296875 
Q 39.15625 29.25 43.1875 25.515625 
Q 47.21875 21.78125 47.21875 15.09375 
Q 47.21875 7.46875 41.1875 3.015625 
Q 35.15625 -1.421875 24.609375 -1.421875 
Q 20.21875 -1.421875 15.453125 -0.5625 
Q 10.6875 0.296875 5.421875 2 
L 5.421875 11.28125 
Q 10.40625 8.6875 15.234375 7.390625 
Q 20.0625 6.109375 24.8125 6.109375 
Q 31.15625 6.109375 34.5625 8.28125 
Q 37.984375 10.453125 37.984375 14.40625 
Q 37.984375 18.0625 35.515625 20.015625 
Q 33.0625 21.96875 24.703125 23.78125 
L 21.578125 24.515625 
Q 13.234375 26.265625 9.515625 29.90625 
Q 5.8125 33.546875 5.8125 39.890625 
Q 5.8125 47.609375 11.28125 51.796875 
Q 16.75 56 26.8125 56 
Q 31.78125 56 36.171875 55.265625 
Q 40.578125 54.546875 44.28125 53.078125 
z
" id="DejaVuSans-115"/>
     <path d="M 11.71875 12.40625 
L 22.015625 12.40625 
L 22.015625 4 
L 14.015625 -11.625 
L 7.71875 -11.625 
L 11.71875 4 
z
" id="DejaVuSans-44"/>
     <path d="M 9.8125 72.90625 
L 19.671875 72.90625 
L 19.671875 42.09375 
L 52.390625 72.90625 
L 65.09375 72.90625 
L 28.90625 38.921875 
L 67.671875 0 
L 54.6875 0 
L 19.671875 35.109375 
L 19.671875 0 
L 9.8125 0 
z
" id="DejaVuSans-75"/>
     <path d="M 54.890625 33.015625 
L 54.890625 0 
L 45.90625 0 
L 45.90625 32.71875 
Q 45.90625 40.484375 42.875 44.328125 
Q 39.84375 48.1875 33.796875 48.1875 
Q 26.515625 48.1875 22.3125 43.546875 
Q 18.109375 38.921875 18.109375 30.90625 
L 18.109375 0 
L 9.078125 0 
L 9.078125 54.6875 
L 18.109375 54.6875 
L 18.109375 46.1875 
Q 21.34375 51.125 25.703125 53.5625 
Q 30.078125 56 35.796875 56 
Q 45.21875 56 50.046875 50.171875 
Q 54.890625 44.34375 54.890625 33.015625 
z
" id="DejaVuSans-110"/>
     <path d="M 30.609375 48.390625 
Q 23.390625 48.390625 19.1875 42.75 
Q 14.984375 37.109375 14.984375 27.296875 
Q 14.984375 17.484375 19.15625 11.84375 
Q 23.34375 6.203125 30.609375 6.203125 
Q 37.796875 6.203125 41.984375 11.859375 
Q 46.1875 17.53125 46.1875 27.296875 
Q 46.1875 37.015625 41.984375 42.703125 
Q 37.796875 48.390625 30.609375 48.390625 
z
M 30.609375 56 
Q 42.328125 56 49.015625 48.375 
Q 55.71875 40.765625 55.71875 27.296875 
Q 55.71875 13.875 49.015625 6.21875 
Q 42.328125 -1.421875 30.609375 -1.421875 
Q 18.84375 -1.421875 12.171875 6.21875 
Q 5.515625 13.875 5.515625 27.296875 
Q 5.515625 40.765625 12.171875 48.375 
Q 18.84375 56 30.609375 56 
z
" id="DejaVuSans-111"/>
     <path d="M 4.203125 54.6875 
L 13.1875 54.6875 
L 24.421875 12.015625 
L 35.59375 54.6875 
L 46.1875 54.6875 
L 57.421875 12.015625 
L 68.609375 54.6875 
L 77.59375 54.6875 
L 63.28125 0 
L 52.6875 0 
L 40.921875 44.828125 
L 29.109375 0 
L 18.5 0 
z
" id="DejaVuSans-119"/>
     <path d="M 10.59375 45.40625 
L 73.1875 45.40625 
L 73.1875 37.203125 
L 10.59375 37.203125 
z
M 10.59375 25.484375 
L 73.1875 25.484375 
L 73.1875 17.1875 
L 10.59375 17.1875 
z
" id="DejaVuSans-61"/>
     <path d="M 9.8125 72.90625 
L 51.703125 72.90625 
L 51.703125 64.59375 
L 19.671875 64.59375 
L 19.671875 43.109375 
L 48.578125 43.109375 
L 48.578125 34.8125 
L 19.671875 34.8125 
L 19.671875 0 
L 9.8125 0 
z
" id="DejaVuSans-70"/>
     <path d="M 34.28125 27.484375 
Q 23.390625 27.484375 19.1875 25 
Q 14.984375 22.515625 14.984375 16.5 
Q 14.984375 11.71875 18.140625 8.90625 
Q 21.296875 6.109375 26.703125 6.109375 
Q 34.1875 6.109375 38.703125 11.40625 
Q 43.21875 16.703125 43.21875 25.484375 
L 43.21875 27.484375 
z
M 52.203125 31.203125 
L 52.203125 0 
L 43.21875 0 
L 43.21875 8.296875 
Q 40.140625 3.328125 35.546875 0.953125 
Q 30.953125 -1.421875 24.3125 -1.421875 
Q 15.921875 -1.421875 10.953125 3.296875 
Q 6 8.015625 6 15.921875 
Q 6 25.140625 12.171875 29.828125 
Q 18.359375 34.515625 30.609375 34.515625 
L 43.21875 34.515625 
L 43.21875 35.40625 
Q 43.21875 41.609375 39.140625 45 
Q 35.0625 48.390625 27.6875 48.390625 
Q 23 48.390625 18.546875 47.265625 
Q 14.109375 46.140625 10.015625 43.890625 
L 10.015625 52.203125 
Q 14.9375 54.109375 19.578125 55.046875 
Q 24.21875 56 28.609375 56 
Q 40.484375 56 46.34375 49.84375 
Q 52.203125 43.703125 52.203125 31.203125 
z
" id="DejaVuSans-97"/>
     <path d="M 9.421875 75.984375 
L 18.40625 75.984375 
L 18.40625 0 
L 9.421875 0 
z
" id="DejaVuSans-108"/>
     <path d="M 19.671875 64.796875 
L 19.671875 8.109375 
L 31.59375 8.109375 
Q 46.6875 8.109375 53.6875 14.9375 
Q 60.6875 21.78125 60.6875 36.53125 
Q 60.6875 51.171875 53.6875 57.984375 
Q 46.6875 64.796875 31.59375 64.796875 
z
M 9.8125 72.90625 
L 30.078125 72.90625 
Q 51.265625 72.90625 61.171875 64.09375 
Q 71.09375 55.28125 71.09375 36.53125 
Q 71.09375 17.671875 61.125 8.828125 
Q 51.171875 0 30.078125 0 
L 9.8125 0 
z
" id="DejaVuSans-68"/>
     <path d="M 45.40625 27.984375 
Q 45.40625 37.75 41.375 43.109375 
Q 37.359375 48.484375 30.078125 48.484375 
Q 22.859375 48.484375 18.828125 43.109375 
Q 14.796875 37.75 14.796875 27.984375 
Q 14.796875 18.265625 18.828125 12.890625 
Q 22.859375 7.515625 30.078125 7.515625 
Q 37.359375 7.515625 41.375 12.890625 
Q 45.40625 18.265625 45.40625 27.984375 
z
M 54.390625 6.78125 
Q 54.390625 -7.171875 48.1875 -13.984375 
Q 42 -20.796875 29.203125 -20.796875 
Q 24.46875 -20.796875 20.265625 -20.09375 
Q 16.0625 -19.390625 12.109375 -17.921875 
L 12.109375 -9.1875 
Q 16.0625 -11.328125 19.921875 -12.34375 
Q 23.78125 -13.375 27.78125 -13.375 
Q 36.625 -13.375 41.015625 -8.765625 
Q 45.40625 -4.15625 45.40625 5.171875 
L 45.40625 9.625 
Q 42.625 4.78125 38.28125 2.390625 
Q 33.9375 0 27.875 0 
Q 17.828125 0 11.671875 7.65625 
Q 5.515625 15.328125 5.515625 27.984375 
Q 5.515625 40.671875 11.671875 48.328125 
Q 17.828125 56 27.875 56 
Q 33.9375 56 38.28125 53.609375 
Q 42.625 51.21875 45.40625 46.390625 
L 45.40625 54.6875 
L 54.390625 54.6875 
z
" id="DejaVuSans-103"/>
     <path d="M 41.109375 46.296875 
Q 39.59375 47.171875 37.8125 47.578125 
Q 36.03125 48 33.890625 48 
Q 26.265625 48 22.1875 43.046875 
Q 18.109375 38.09375 18.109375 28.8125 
L 18.109375 0 
L 9.078125 0 
L 9.078125 54.6875 
L 18.109375 54.6875 
L 18.109375 46.1875 
Q 20.953125 51.171875 25.484375 53.578125 
Q 30.03125 56 36.53125 56 
Q 37.453125 56 38.578125 55.875 
Q 39.703125 55.765625 41.0625 55.515625 
z
" id="DejaVuSans-114"/>
     <path d="M 9.421875 54.6875 
L 18.40625 54.6875 
L 18.40625 0 
L 9.421875 0 
z
M 9.421875 75.984375 
L 18.40625 75.984375 
L 18.40625 64.59375 
L 9.421875 64.59375 
z
" id="DejaVuSans-105"/>
     <path d="M 10.6875 12.40625 
L 21 12.40625 
L 21 0 
L 10.6875 0 
z
" id="DejaVuSans-46"/>
     <path d="M 12.40625 8.296875 
L 28.515625 8.296875 
L 28.515625 63.921875 
L 10.984375 60.40625 
L 10.984375 69.390625 
L 28.421875 72.90625 
L 38.28125 72.90625 
L 38.28125 8.296875 
L 54.390625 8.296875 
L 54.390625 0 
L 12.40625 0 
z
" id="DejaVuSans-49"/>
    </defs>
    <g transform="translate(53.559375 35.472)scale(0.12 -0.12)">
     <use xlink:href="#DejaVuSans-40"/>
     <use x="39.013672" xlink:href="#DejaVuSans-52"/>
     <use x="102.636719" xlink:href="#DejaVuSans-48"/>
     <use x="166.259766" xlink:href="#DejaVuSans-41"/>
     <use x="205.273438" xlink:href="#DejaVuSans-32"/>
     <use x="237.060547" xlink:href="#DejaVuSans-83"/>
     <use x="300.537109" xlink:href="#DejaVuSans-117"/>
     <use x="363.916016" xlink:href="#DejaVuSans-98"/>
     <use x="427.392578" xlink:href="#DejaVuSans-106"/>
     <use x="455.175781" xlink:href="#DejaVuSans-101"/>
     <use x="516.699219" xlink:href="#DejaVuSans-99"/>
     <use x="571.679688" xlink:href="#DejaVuSans-116"/>
     <use x="610.888672" xlink:href="#DejaVuSans-58"/>
     <use x="644.580078" xlink:href="#DejaVuSans-32"/>
     <use x="676.367188" xlink:href="#DejaVuSans-115"/>
     <use x="728.466797" xlink:href="#DejaVuSans-51"/>
     <use x="792.089844" xlink:href="#DejaVuSans-44"/>
     <use x="823.876953" xlink:href="#DejaVuSans-32"/>
     <use x="855.664062" xlink:href="#DejaVuSans-75"/>
     <use x="921.240234" xlink:href="#DejaVuSans-110"/>
     <use x="984.619141" xlink:href="#DejaVuSans-111"/>
     <use x="1045.800781" xlink:href="#DejaVuSans-119"/>
     <use x="1127.587891" xlink:href="#DejaVuSans-110"/>
     <use x="1190.966797" xlink:href="#DejaVuSans-32"/>
     <use x="1222.753906" xlink:href="#DejaVuSans-61"/>
     <use x="1306.542969" xlink:href="#DejaVuSans-32"/>
     <use x="1338.330078" xlink:href="#DejaVuSans-70"/>
     <use x="1395.708984" xlink:href="#DejaVuSans-97"/>
     <use x="1456.988281" xlink:href="#DejaVuSans-108"/>
     <use x="1484.771484" xlink:href="#DejaVuSans-115"/>
     <use x="1536.871094" xlink:href="#DejaVuSans-101"/>
     <use x="1598.394531" xlink:href="#DejaVuSans-44"/>
     <use x="1630.181641" xlink:href="#DejaVuSans-32"/>
     <use x="1661.96875" xlink:href="#DejaVuSans-68"/>
     <use x="1738.970703" xlink:href="#DejaVuSans-101"/>
     <use x="1800.494141" xlink:href="#DejaVuSans-103"/>
     <use x="1863.970703" xlink:href="#DejaVuSans-114"/>
     <use x="1905.052734" xlink:href="#DejaVuSans-101"/>
     <use x="1966.576172" xlink:href="#DejaVuSans-101"/>
     <use x="2028.099609" xlink:href="#DejaVuSans-32"/>
     <use x="2059.886719" xlink:href="#DejaVuSans-61"/>
     <use x="2143.675781" xlink:href="#DejaVuSans-32"/>
     <use x="2175.462891" xlink:href="#DejaVuSans-50"/>
     <use x="2239.085938" xlink:href="#DejaVuSans-44"/>
     <use x="2270.873047" xlink:href="#DejaVuSans-32"/>
     <use x="2302.660156" xlink:href="#DejaVuSans-68"/>
     <use x="2379.662109" xlink:href="#DejaVuSans-117"/>
     <use x="2443.041016" xlink:href="#DejaVuSans-114"/>
     <use x="2484.154297" xlink:href="#DejaVuSans-97"/>
     <use x="2545.433594" xlink:href="#DejaVuSans-116"/>
     <use x="2584.642578" xlink:href="#DejaVuSans-105"/>
     <use x="2612.425781" xlink:href="#DejaVuSans-111"/>
     <use x="2673.607422" xlink:href="#DejaVuSans-110"/>
     <use x="2736.986328" xlink:href="#DejaVuSans-32"/>
     <use x="2768.773438" xlink:href="#DejaVuSans-61"/>
     <use x="2852.5625" xlink:href="#DejaVuSans-32"/>
     <use x="2884.349609" xlink:href="#DejaVuSans-48"/>
     <use x="2947.972656" xlink:href="#DejaVuSans-46"/>
     <use x="2979.759766" xlink:href="#DejaVuSans-49"/>
    </g>
   </g>
  </g>
 </g>
 <defs>
  <clipPath id="pe29cd4a6fc">
   <rect height="266.112" width="357.12" x="57.6" y="41.472"/>
  </clipPath>
 </defs>
</svg>
