<?xml version="1.0" encoding="utf-8" standalone="no"?>
<!DOCTYPE svg PUBLIC "-//W3C//DTD SVG 1.1//EN"
  "http://www.w3.org/Graphics/SVG/1.1/DTD/svg11.dtd">
<!-- Created with matplotlib (https://matplotlib.org/) -->
<svg height="345.6pt" version="1.1" viewBox="0 0 460.8 345.6" width="460.8pt" xmlns="http://www.w3.org/2000/svg" xmlns:xlink="http://www.w3.org/1999/xlink">
 <defs>
  <style type="text/css">
*{stroke-linecap:butt;stroke-linejoin:round;}
  </style>
 </defs>
 <g id="figure_1">
  <g id="patch_1">
   <path d="M 0 345.6 
L 460.8 345.6 
L 460.8 0 
L 0 0 
z
" style="fill:#ffffff;"/>
  </g>
  <g id="axes_1">
   <g id="patch_2">
    <path d="M 57.6 307.584 
L 414.72 307.584 
L 414.72 41.472 
L 57.6 41.472 
z
" style="fill:#ffffff;"/>
   </g>
   <g id="line2d_1">
    <path clip-path="url(#pb2f16fd465)" d="M 395.795484 293.021806 
L 396.002545 291.78871 
L 396.002545 290.555613 
L 396.209605 289.312807 
L 396.002545 288.07971 
L 396.002545 290.555613 
L 396.416666 291.78871 
L 396.623727 291.78871 
L 397.244909 284.380419 
L 397.866091 284.380419 
L 396.002545 284.380419 
L 396.209605 285.613516 
L 396.830787 286.846613 
L 397.451969 286.846613 
L 397.866091 285.613516 
L 397.866091 284.380419 
L 397.451969 285.613516 
L 397.244909 285.613516 
L 397.451969 285.613516 
L 397.451969 284.380419 
L 397.244909 283.147323 
L 396.623727 286.846613 
L 396.623727 285.613516 
L 397.037848 281.914226 
L 397.037848 281.914226 
L 397.037848 283.147323 
L 397.244909 284.380419 
L 397.65903 283.147323 
L 397.451969 283.147323 
L 397.451969 283.147323 
L 398.073151 275.739032 
L 398.280212 275.739032 
L 397.866091 276.972129 
L 397.451969 275.739032 
L 397.65903 275.739032 
L 398.073151 276.972129 
L 398.073151 280.681129 
L 397.451969 279.438323 
L 396.830787 275.739032 
L 396.830787 270.806645 
L 397.037848 270.806645 
L 397.037848 272.039742 
L 397.037848 272.039742 
L 397.244909 273.272839 
L 397.451969 273.272839 
L 397.244909 273.272839 
L 397.037848 275.739032 
L 397.244909 274.505935 
L 398.073151 269.563839 
L 397.866091 269.563839 
L 397.451969 270.806645 
L 396.416666 274.505935 
L 397.244909 272.039742 
L 397.65903 270.806645 
L 397.866091 269.563839 
L 397.866091 270.806645 
L 397.65903 272.039742 
L 397.244909 269.563839 
L 398.280212 269.563839 
L 398.487273 268.330742 
L 398.487273 267.097645 
L 398.073151 270.806645 
L 397.451969 268.330742 
L 397.244909 265.864548 
L 397.451969 264.631452 
L 397.866091 267.097645 
L 397.866091 272.039742 
L 397.451969 270.806645 
L 397.244909 269.563839 
L 397.037848 267.097645 
L 397.037848 263.398355 
L 397.451969 260.932161 
L 397.451969 262.165258 
L 397.451969 262.165258 
L 397.65903 263.398355 
L 397.451969 264.631452 
L 397.451969 264.631452 
L 397.451969 263.398355 
L 397.037848 263.398355 
L 397.037848 263.398355 
L 397.451969 262.165258 
L 397.65903 262.165258 
L 397.65903 263.398355 
L 398.280212 259.689355 
L 398.280212 258.456258 
L 398.073151 257.223161 
L 397.866091 257.223161 
L 397.866091 257.223161 
L 398.280212 254.756968 
L 398.280212 253.523871 
L 398.280212 253.523871 
L 397.244909 253.523871 
L 397.037848 252.290774 
L 397.244909 252.290774 
L 397.65903 251.057677 
L 398.073151 251.057677 
L 398.280212 252.290774 
L 398.073151 254.756968 
L 397.451969 254.756968 
L 397.451969 253.523871 
L 397.866091 251.057677 
L 398.487273 248.581774 
L 397.866091 248.581774 
L 398.073151 248.581774 
L 398.073151 247.348677 
L 398.073151 247.348677 
L 398.280212 248.581774 
L 398.280212 248.581774 
L 398.487273 246.115581 
L 398.073151 237.474194 
L 398.280212 237.474194 
L 397.451969 242.41629 
L 397.65903 241.183193 
L 397.65903 242.41629 
L 397.65903 241.183193 
L 397.451969 238.70729 
L 397.244909 238.70729 
L 398.487273 241.183193 
L 398.073151 242.41629 
L 397.65903 242.41629 
L 397.866091 238.70729 
L 397.65903 235.008 
L 397.65903 236.241097 
L 397.65903 232.541806 
L 397.451969 228.832807 
L 396.830787 228.832807 
L 396.416666 230.065903 
L 396.623727 232.541806 
L 397.244909 231.30871 
L 397.65903 228.832807 
L 397.866091 226.366613 
L 397.65903 227.59971 
L 397.244909 226.366613 
L 397.244909 226.366613 
L 397.451969 226.366613 
L 397.866091 225.133516 
L 397.866091 225.133516 
L 397.451969 223.900419 
L 397.244909 225.133516 
L 397.451969 226.366613 
L 397.65903 226.366613 
L 397.451969 225.133516 
L 397.451969 222.667323 
L 397.65903 221.434226 
L 398.073151 222.667323 
L 397.866091 223.900419 
L 397.244909 223.900419 
L 397.65903 223.900419 
L 398.073151 221.434226 
L 398.073151 220.191419 
L 397.65903 222.667323 
L 397.244909 223.900419 
L 397.244909 223.900419 
L 397.037848 222.667323 
L 396.830787 222.667323 
L 397.037848 223.900419 
L 397.866091 223.900419 
L 397.866091 223.900419 
L 397.451969 222.667323 
L 397.244909 221.434226 
L 397.244909 217.725226 
L 397.65903 218.958323 
L 397.866091 218.958323 
L 397.244909 212.792839 
L 396.623727 211.559742 
L 396.623727 211.559742 
L 397.037848 211.559742 
L 396.830787 211.559742 
L 396.209605 212.792839 
L 395.795484 214.025935 
L 396.416666 214.025935 
L 396.623727 211.559742 
L 396.209605 209.083839 
L 396.209605 207.850742 
L 397.244909 207.850742 
L 397.244909 207.850742 
L 397.037848 209.083839 
L 397.037848 211.559742 
L 397.451969 211.559742 
L 397.451969 205.384548 
L 397.037848 205.384548 
L 396.623727 206.617645 
L 396.416666 209.083839 
L 396.623727 209.083839 
L 396.623727 207.850742 
L 396.416666 206.617645 
L 396.416666 206.617645 
L 396.416666 202.918355 
L 397.037848 204.151452 
L 397.451969 205.384548 
L 397.65903 206.617645 
L 397.65903 207.850742 
L 397.65903 206.617645 
L 397.244909 205.384548 
L 396.830787 205.384548 
L 397.451969 205.384548 
L 398.073151 204.151452 
L 398.073151 204.151452 
L 397.244909 204.151452 
L 396.623727 202.918355 
L 396.416666 202.918355 
L 397.037848 201.685258 
L 397.866091 202.918355 
L 397.866091 207.850742 
L 397.866091 205.384548 
L 397.451969 199.209355 
L 397.451969 197.976258 
L 397.244909 197.976258 
L 396.830787 199.209355 
L 396.209605 193.043871 
L 395.174302 191.810774 
L 393.100935 196.743161 
L 390.616207 201.685258 
L 387.714597 204.151452 
L 383.984744 206.617645 
L 379.426649 210.316936 
L 374.868554 211.559742 
L 370.310459 211.559742 
L 364.924121 215.259032 
L 358.916601 216.492129 
L 353.116142 214.025935 
L 347.522743 209.083839 
L 342.133644 206.617645 
L 336.333185 205.384548 
L 330.532726 202.918355 
L 324.525206 197.976258 
L 318.307865 194.276968 
L 311.679163 193.043871 
L 304.8434 194.276968 
L 298.004877 194.276968 
L 290.962054 193.043871 
L 283.91647 190.577677 
L 276.873647 186.868677 
L 270.656305 185.635581 
L 254.08317 178.22729 
L 248.903893 176.994194 
L 243.307734 176.994194 
L 237.300214 175.761097 
L 231.706815 173.294903 
L 221.762382 168.352807 
L 216.168984 165.886613 
L 204.565305 163.420419 
L 199.593088 162.187323 
L 195.034993 159.711419 
L 190.476897 158.478323 
L 185.918802 158.478323 
L 181.360707 159.711419 
L 174.317884 159.711419 
L 170.795092 158.478323 
L 167.47936 158.478323 
L 165.408754 159.711419 
L 164.16639 160.954226 
L 162.714205 160.954226 
L 161.678901 163.420419 
L 160.022416 163.420419 
L 160.850659 165.886613 
L 161.057719 165.886613 
L 161.26478 164.653516 
L 161.885962 163.420419 
L 162.507144 163.420419 
L 162.921265 162.187323 
L 163.749508 162.187323 
L 164.787572 164.653516 
L 165.408754 168.352807 
L 165.408754 170.82871 
L 165.615815 170.82871 
L 165.615815 170.82871 
L 165.201693 173.294903 
L 164.373451 175.761097 
L 164.373451 179.460387 
L 164.787572 180.703193 
L 164.994633 179.460387 
L 164.373451 178.22729 
L 163.956568 176.994194 
L 163.749508 176.994194 
L 163.749508 178.22729 
L 163.335386 179.460387 
L 162.714205 179.460387 
L 162.300083 178.22729 
L 162.921265 181.93629 
L 163.335386 181.93629 
L 163.335386 180.703193 
L 163.335386 180.703193 
L 163.128326 181.93629 
L 162.921265 181.93629 
L 162.714205 183.169387 
L 162.921265 184.402484 
L 162.714205 185.635581 
L 162.507144 181.93629 
L 162.507144 178.22729 
L 162.921265 176.994194 
L 163.335386 181.93629 
L 163.128326 183.169387 
L 162.714205 183.169387 
L 162.507144 181.93629 
L 162.300083 179.460387 
L 162.300083 179.460387 
L 162.093023 183.169387 
L 162.093023 183.169387 
L 162.300083 181.93629 
L 162.300083 179.460387 
L 162.714205 176.994194 
L 162.507144 176.994194 
L 162.300083 174.528 
L 162.507144 174.528 
L 162.507144 176.994194 
L 162.093023 179.460387 
L 161.885962 181.93629 
L 161.678901 181.93629 
L 161.26478 180.703193 
L 161.471841 180.703193 
L 161.885962 181.93629 
L 162.300083 181.93629 
L 162.300083 179.460387 
L 162.093023 176.994194 
L 162.507144 184.402484 
L 161.471841 184.402484 
L 161.471841 184.402484 
L 161.678901 185.635581 
L 161.678901 185.635581 
L 161.678901 188.101774 
L 161.885962 188.101774 
L 161.885962 186.868677 
L 161.471841 188.101774 
L 161.26478 188.101774 
L 161.057719 186.868677 
L 161.057719 185.635581 
L 161.057719 185.635581 
L 161.471841 185.635581 
L 161.678901 188.101774 
L 161.471841 190.577677 
L 161.26478 190.577677 
L 161.26478 189.334871 
L 161.678901 189.334871 
L 161.885962 188.101774 
L 161.885962 189.334871 
L 161.678901 190.577677 
L 161.471841 193.043871 
L 161.057719 194.276968 
L 160.850659 193.043871 
L 160.643598 193.043871 
L 160.643598 193.043871 
L 160.850659 194.276968 
L 161.471841 196.743161 
L 161.678901 196.743161 
L 161.057719 196.743161 
L 160.850659 195.510065 
L 160.850659 195.510065 
L 161.057719 194.276968 
L 161.057719 190.577677 
L 161.057719 194.276968 
L 160.643598 200.452161 
L 161.057719 200.452161 
L 161.057719 197.976258 
L 160.850659 196.743161 
L 160.436537 197.976258 
L 160.229477 199.209355 
L 160.436537 197.976258 
L 160.850659 196.743161 
L 161.057719 197.976258 
L 161.057719 197.976258 
L 161.057719 199.209355 
L 161.26478 201.685258 
L 160.850659 205.384548 
L 160.643598 204.151452 
L 161.057719 201.685258 
L 161.057719 199.209355 
L 160.436537 196.743161 
L 159.815355 197.976258 
L 158.984352 199.209355 
L 158.36317 197.976258 
L 157.534927 196.743161 
L 156.292563 195.510065 
L 154.219196 196.743161 
L 151.941529 195.510065 
L 149.039919 194.276968 
L 145.519888 194.276968 
L 138.267243 196.743161 
L 134.744451 195.510065 
L 131.221659 193.043871 
L 123.971775 193.043871 
L 120.448983 190.577677 
L 116.51207 190.577677 
L 112.784978 193.043871 
L 109.055125 197.976258 
L 105.325273 201.685258 
L 101.38836 207.850742 
L 97.865568 212.792839 
L 94.759658 216.492129 
L 91.650987 221.434226 
L 88.956438 227.59971 
L 86.47171 232.541806 
L 84.191282 235.008 
L 82.327736 237.474194 
L 80.878311 241.183193 
L 79.633186 241.183193 
L 77.976701 242.41629 
L 76.527277 246.115581 
L 75.491973 251.057677 
L 74.868031 254.756968 
L 74.453909 255.990065 
L 74.039788 255.990065 
L 73.832727 257.223161 
L 74.246849 259.689355 
L 74.66097 259.689355 
L 75.077852 260.932161 
L 75.491973 265.864548 
L 76.320216 267.097645 
L 76.527277 267.097645 
L 76.320216 265.864548 
L 76.527277 264.631452 
L 77.148459 265.864548 
L 77.56258 265.864548 
L 77.56258 264.631452 
L 77.355519 264.631452 
L 77.355519 268.330742 
L 77.56258 267.097645 
L 77.355519 268.330742 
L 77.148459 272.039742 
L 76.941398 273.272839 
L 76.941398 274.505935 
L 77.148459 276.972129 
L 76.113155 276.972129 
L 76.527277 278.205226 
L 76.941398 280.681129 
L 77.355519 281.914226 
L 77.355519 280.681129 
L 77.148459 279.438323 
L 76.734337 280.681129 
L 76.734337 285.613516 
L 77.148459 288.07971 
L 77.148459 286.846613 
L 76.734337 286.846613 
L 76.527277 289.312807 
L 76.734337 289.312807 
L 76.734337 289.312807 
L 76.734337 288.07971 
L 76.941398 286.846613 
L 77.148459 284.380419 
L 77.56258 283.147323 
L 77.769641 284.380419 
L 77.56258 285.613516 
L 77.148459 290.555613 
L 77.355519 291.78871 
L 77.56258 290.555613 
L 77.976701 289.312807 
L 78.183762 289.312807 
L 78.183762 289.312807 
L 77.976701 288.07971 
L 77.769641 288.07971 
L 77.148459 291.78871 
L 77.148459 293.021806 
L 77.355519 290.555613 
L 77.976701 286.846613 
L 78.183762 289.312807 
L 78.183762 289.312807 
L 78.390823 289.312807 
L 78.597883 286.846613 
L 78.597883 286.846613 
L 78.183762 288.07971 
L 77.769641 291.78871 
L 77.56258 291.78871 
L 77.769641 293.021806 
L 77.976701 291.78871 
L 77.769641 293.021806 
L 77.769641 291.78871 
L 77.976701 289.312807 
L 77.976701 289.312807 
L 78.390823 289.312807 
L 77.976701 289.312807 
L 77.976701 290.555613 
L 78.390823 290.555613 
L 78.804944 289.312807 
L 79.012005 288.07971 
L 78.804944 288.07971 
L 78.597883 285.613516 
L 78.597883 283.147323 
L 79.012005 283.147323 
L 79.219065 285.613516 
L 78.804944 285.613516 
L 78.804944 285.613516 
L 79.219065 291.78871 
L 78.804944 293.021806 
L 78.804944 290.555613 
L 79.012005 291.78871 
L 79.426126 295.488 
L 79.426126 293.021806 
L 79.219065 290.555613 
L 78.804944 289.312807 
L 78.597883 288.07971 
L 79.012005 285.613516 
L 79.426126 285.613516 
L 78.804944 289.312807 
L 79.219065 290.555613 
L 79.219065 291.78871 
L 78.597883 294.254903 
L 78.183762 291.78871 
L 78.390823 286.846613 
L 79.219065 284.380419 
L 79.633186 285.613516 
L 79.219065 289.312807 
L 79.219065 288.07971 
L 79.633186 285.613516 
L 79.843008 285.613516 
L 80.050069 286.846613 
L 80.257129 286.846613 
L 80.257129 286.846613 
L 80.46419 285.613516 
L 80.257129 285.613516 
L 79.426126 288.07971 
L 79.219065 291.78871 
L 79.843008 291.78871 
L 80.46419 290.555613 
L 80.257129 289.312807 
L 80.050069 290.555613 
L 79.843008 294.254903 
L 79.843008 294.254903 
L 80.257129 290.555613 
L 80.050069 288.07971 
L 79.426126 288.07971 
L 78.804944 289.312807 
L 79.219065 290.555613 
L 79.843008 293.021806 
L 79.633186 295.488 
L 79.219065 295.488 
L 79.426126 294.254903 
L 79.633186 291.78871 
L 79.633186 288.07971 
L 79.426126 289.312807 
L 79.633186 289.312807 
L 80.050069 288.07971 
L 80.671251 286.846613 
L 81.706554 285.613516 
L 82.948918 285.613516 
L 84.608164 286.846613 
L 86.67877 284.380419 
L 89.166259 278.205226 
L 92.065108 273.272839 
L 95.38084 268.330742 
L 99.110692 263.398355 
L 103.461727 259.689355 
L 107.60294 254.756968 
L 112.368096 249.814871 
L 117.343073 246.115581 
L 122.31529 241.183193 
L 126.873385 233.774903 
L 131.43148 223.900419 
L 136.196636 215.259032 
L 145.726948 200.452161 
L 150.492104 194.276968 
L 155.25726 189.334871 
L 159.815355 183.169387 
L 163.749508 175.761097 
L 167.47936 169.585903 
L 171.416274 164.653516 
L 175.560248 158.478323 
L 179.2901 153.545935 
L 186.747045 141.205258 
L 190.062776 135.030065 
L 193.378507 130.087968 
L 196.277357 123.922484 
L 198.350724 117.74729 
L 200.21427 111.581806 
L 202.494698 106.63971 
L 205.186487 100.474226 
L 207.466915 95.532129 
L 211.196767 90.599742 
L 212.23207 86.890742 
L 213.060313 84.424548 
L 213.681495 83.191452 
L 213.888556 84.424548 
L 213.888556 85.657645 
L 213.888556 85.657645 
L 213.681495 86.890742 
L 212.646192 94.299032 
L 212.23207 93.065935 
L 211.196767 89.356936 
L 209.33046 96.765226 
L 207.673975 100.474226 
L 207.673975 100.474226 
L 207.673975 101.707323 
L 207.466915 104.173516 
L 206.431611 107.872807 
L 206.638672 106.63971 
L 207.052793 106.63971 
L 207.466915 107.872807 
L 207.673975 107.872807 
L 208.088097 105.406613 
L 207.881036 106.63971 
L 207.259854 111.581806 
L 207.052793 111.581806 
L 207.466915 106.63971 
L 207.259854 106.63971 
L 206.638672 107.872807 
L 206.014729 107.872807 
L 205.807668 106.63971 
L 206.014729 106.63971 
L 206.22179 109.105903 
L 206.014729 109.105903 
L 206.014729 104.173516 
L 206.22179 104.173516 
L 206.014729 105.406613 
L 205.600608 105.406613 
L 205.393547 107.872807 
L 205.807668 107.872807 
L 205.186487 109.105903 
L 204.979426 114.048 
L 205.186487 115.281097 
L 205.393547 112.814903 
L 205.186487 105.406613 
L 205.393547 102.940419 
L 205.600608 102.940419 
L 205.600608 101.707323 
L 205.807668 101.707323 
L 205.600608 102.940419 
L 205.600608 105.406613 
L 206.014729 105.406613 
L 206.014729 102.940419 
L 204.772365 102.940419 
L 204.565305 105.406613 
L 204.772365 105.406613 
L 205.186487 106.63971 
L 204.772365 105.406613 
L 204.358244 102.940419 
L 204.358244 101.707323 
L 204.565305 97.998323 
L 204.565305 100.474226 
L 205.186487 99.231419 
L 205.600608 99.231419 
L 205.393547 99.231419 
L 204.979426 100.474226 
L 204.772365 101.707323 
L 204.772365 97.998323 
L 204.565305 97.998323 
L 204.565305 96.765226 
L 204.772365 94.299032 
L 204.772365 91.832839 
L 204.565305 91.832839 
L 204.358244 93.065935 
L 204.358244 95.532129 
L 204.358244 91.832839 
L 204.565305 91.832839 
L 204.565305 94.299032 
L 204.565305 93.065935 
L 204.772365 91.832839 
L 205.600608 94.299032 
L 204.979426 94.299032 
L 204.772365 95.532129 
L 204.772365 95.532129 
L 204.772365 93.065935 
L 204.358244 91.832839 
L 203.944123 91.832839 
L 203.944123 93.065935 
L 204.151183 93.065935 
L 204.151183 91.832839 
L 203.944123 90.599742 
L 203.322941 90.599742 
L 203.322941 88.123839 
L 203.737062 86.890742 
L 203.944123 88.123839 
L 203.737062 90.599742 
L 203.737062 90.599742 
L 203.944123 90.599742 
L 203.737062 91.832839 
L 203.530001 91.832839 
L 203.530001 89.356936 
L 203.944123 86.890742 
L 204.358244 86.890742 
L 204.565305 88.123839 
L 204.358244 84.424548 
L 203.944123 84.424548 
L 203.530001 85.657645 
L 204.151183 89.356936 
L 204.565305 88.123839 
L 204.772365 86.890742 
L 204.565305 85.657645 
L 204.772365 84.424548 
L 204.772365 84.424548 
L 204.358244 85.657645 
L 203.944123 85.657645 
L 204.151183 85.657645 
L 203.944123 84.424548 
L 203.530001 85.657645 
L 203.530001 83.191452 
L 203.944123 80.725258 
L 204.565305 79.482452 
L 205.186487 80.725258 
L 205.393547 83.191452 
L 204.979426 84.424548 
L 204.358244 84.424548 
L 203.944123 83.191452 
L 204.151183 81.958355 
L 204.358244 83.191452 
L 204.358244 81.958355 
L 204.151183 80.725258 
L 204.151183 79.482452 
L 204.979426 77.016258 
L 204.979426 78.249355 
L 204.979426 78.249355 
L 204.772365 79.482452 
L 204.358244 84.424548 
L 204.565305 84.424548 
L 204.772365 81.958355 
L 204.772365 78.249355 
L 204.565305 78.249355 
L 204.565305 79.482452 
L 204.565305 78.249355 
L 203.944123 79.482452 
L 203.530001 81.958355 
L 203.944123 81.958355 
L 205.186487 74.550065 
L 204.565305 75.783161 
L 203.737062 77.016258 
L 203.322941 77.016258 
L 203.322941 74.550065 
L 203.737062 75.783161 
L 203.944123 74.550065 
L 204.151183 70.850774 
L 204.151183 68.374871 
L 203.737062 70.850774 
L 203.944123 70.850774 
L 204.358244 65.908677 
L 204.358244 63.442484 
L 204.151183 63.442484 
L 203.530001 67.141774 
L 203.11588 70.850774 
L 202.701759 73.316968 
L 202.701759 72.083871 
L 203.322941 67.141774 
L 203.322941 67.141774 
L 203.11588 69.607968 
L 203.322941 72.083871 
L 202.908819 67.141774 
L 203.11588 63.442484 
L 203.322941 63.442484 
L 203.530001 65.908677 
L 203.944123 67.141774 
L 203.737062 67.141774 
L 203.322941 68.374871 
L 203.11588 69.607968 
L 203.11588 70.850774 
L 202.908819 72.083871 
L 202.908819 73.316968 
L 203.322941 73.316968 
L 203.944123 70.850774 
L 204.358244 67.141774 
L 204.358244 67.141774 
L 204.358244 68.374871 
L 203.322941 68.374871 
L 202.701759 72.083871 
L 202.701759 70.850774 
L 203.322941 67.141774 
L 203.530001 67.141774 
L 202.701759 67.141774 
L 202.701759 73.316968 
L 202.908819 72.083871 
L 203.322941 65.908677 
L 203.322941 64.675581 
L 202.908819 63.442484 
L 202.287637 64.675581 
L 202.494698 68.374871 
L 202.908819 70.850774 
L 203.11588 68.374871 
L 203.322941 63.442484 
L 203.11588 62.209387 
L 203.737062 62.209387 
L 202.908819 67.141774 
L 202.908819 65.908677 
L 202.701759 65.908677 
L 202.701759 63.442484 
L 202.908819 60.97629 
L 203.322941 62.209387 
L 203.11588 63.442484 
L 202.701759 60.97629 
L 202.287637 57.26729 
L 202.287637 58.500387 
L 202.080577 57.26729 
L 202.080577 57.26729 
L 202.908819 59.733484 
L 202.908819 58.500387 
L 202.701759 56.034194 
L 202.701759 53.568 
L 202.494698 53.568 
L 202.494698 56.034194 
L 203.11588 59.733484 
L 202.908819 59.733484 
L 202.494698 58.500387 
L 202.287637 58.500387 
L 202.080577 59.733484 
L 202.494698 62.209387 
L 202.908819 63.442484 
L 203.11588 62.209387 
L 202.287637 54.801097 
L 202.494698 56.034194 
L 202.908819 57.26729 
L 202.701759 59.733484 
L 202.080577 62.209387 
L 201.873516 65.908677 
L 202.080577 64.675581 
L 202.701759 59.733484 
L 202.287637 60.97629 
L 202.080577 62.209387 
L 202.080577 60.97629 
L 202.494698 54.801097 
L 202.494698 54.801097 
L 202.080577 57.26729 
L 201.873516 59.733484 
L 202.287637 60.97629 
L 202.908819 60.97629 
L 203.11588 62.209387 
L 202.908819 63.442484 
L 202.494698 64.675581 
L 202.494698 63.442484 
L 202.701759 60.97629 
L 202.701759 58.500387 
L 201.456634 58.500387 
L 201.456634 58.500387 
L 201.666455 54.801097 
L 201.666455 57.26729 
L 201.666455 58.500387 
L 201.873516 59.733484 
L 202.287637 59.733484 
L 202.494698 58.500387 
L 202.494698 58.500387 
L 201.873516 58.500387 
L 201.042513 53.568 
L 201.456634 54.801097 
L 201.456634 58.500387 
L 201.249573 58.500387 
L 201.042513 54.801097 
L 200.835452 53.568 
L 200.835452 56.034194 
L 200.628391 56.034194 
L 200.628391 57.26729 
L 201.456634 54.801097 
L 201.456634 53.568 
L 201.873516 56.034194 
L 201.873516 57.26729 
L 200.835452 60.97629 
L 201.042513 60.97629 
L 201.666455 59.733484 
L 201.666455 59.733484 
" style="fill:none;stroke:#1f77b4;stroke-linecap:square;stroke-width:1.5;"/>
   </g>
   <g id="matplotlib.axis_1">
    <g id="xtick_1">
     <g id="line2d_2">
      <defs>
       <path d="M 0 0 
L 0 3.5 
" id="m1d63caf93b" style="stroke:#000000;stroke-width:0.8;"/>
      </defs>
      <g>
       <use style="stroke:#000000;stroke-width:0.8;" x="68.41326" xlink:href="#m1d63caf93b" y="307.584"/>
      </g>
     </g>
     <g id="text_1">
      <!-- −400 -->
      <defs>
       <path d="M 10.59375 35.5 
L 73.1875 35.5 
L 73.1875 27.203125 
L 10.59375 27.203125 
z
" id="DejaVuSans-8722"/>
       <path d="M 37.796875 64.3125 
L 12.890625 25.390625 
L 37.796875 25.390625 
z
M 35.203125 72.90625 
L 47.609375 72.90625 
L 47.609375 25.390625 
L 58.015625 25.390625 
L 58.015625 17.1875 
L 47.609375 17.1875 
L 47.609375 0 
L 37.796875 0 
L 37.796875 17.1875 
L 4.890625 17.1875 
L 4.890625 26.703125 
z
" id="DejaVuSans-52"/>
       <path d="M 31.78125 66.40625 
Q 24.171875 66.40625 20.328125 58.90625 
Q 16.5 51.421875 16.5 36.375 
Q 16.5 21.390625 20.328125 13.890625 
Q 24.171875 6.390625 31.78125 6.390625 
Q 39.453125 6.390625 43.28125 13.890625 
Q 47.125 21.390625 47.125 36.375 
Q 47.125 51.421875 43.28125 58.90625 
Q 39.453125 66.40625 31.78125 66.40625 
z
M 31.78125 74.21875 
Q 44.046875 74.21875 50.515625 64.515625 
Q 56.984375 54.828125 56.984375 36.375 
Q 56.984375 17.96875 50.515625 8.265625 
Q 44.046875 -1.421875 31.78125 -1.421875 
Q 19.53125 -1.421875 13.0625 8.265625 
Q 6.59375 17.96875 6.59375 36.375 
Q 6.59375 54.828125 13.0625 64.515625 
Q 19.53125 74.21875 31.78125 74.21875 
z
" id="DejaVuSans-48"/>
      </defs>
      <g transform="translate(54.679666 322.182437)scale(0.1 -0.1)">
       <use xlink:href="#DejaVuSans-8722"/>
       <use x="83.789062" xlink:href="#DejaVuSans-52"/>
       <use x="147.412109" xlink:href="#DejaVuSans-48"/>
       <use x="211.035156" xlink:href="#DejaVuSans-48"/>
      </g>
     </g>
    </g>
    <g id="xtick_2">
     <g id="line2d_3">
      <g>
       <use style="stroke:#000000;stroke-width:0.8;" x="123.629435" xlink:href="#m1d63caf93b" y="307.584"/>
      </g>
     </g>
     <g id="text_2">
      <!-- −200 -->
      <defs>
       <path d="M 19.1875 8.296875 
L 53.609375 8.296875 
L 53.609375 0 
L 7.328125 0 
L 7.328125 8.296875 
Q 12.9375 14.109375 22.625 23.890625 
Q 32.328125 33.6875 34.8125 36.53125 
Q 39.546875 41.84375 41.421875 45.53125 
Q 43.3125 49.21875 43.3125 52.78125 
Q 43.3125 58.59375 39.234375 62.25 
Q 35.15625 65.921875 28.609375 65.921875 
Q 23.96875 65.921875 18.8125 64.3125 
Q 13.671875 62.703125 7.8125 59.421875 
L 7.8125 69.390625 
Q 13.765625 71.78125 18.9375 73 
Q 24.125 74.21875 28.421875 74.21875 
Q 39.75 74.21875 46.484375 68.546875 
Q 53.21875 62.890625 53.21875 53.421875 
Q 53.21875 48.921875 51.53125 44.890625 
Q 49.859375 40.875 45.40625 35.40625 
Q 44.1875 33.984375 37.640625 27.21875 
Q 31.109375 20.453125 19.1875 8.296875 
z
" id="DejaVuSans-50"/>
      </defs>
      <g transform="translate(109.895841 322.182437)scale(0.1 -0.1)">
       <use xlink:href="#DejaVuSans-8722"/>
       <use x="83.789062" xlink:href="#DejaVuSans-50"/>
       <use x="147.412109" xlink:href="#DejaVuSans-48"/>
       <use x="211.035156" xlink:href="#DejaVuSans-48"/>
      </g>
     </g>
    </g>
    <g id="xtick_3">
     <g id="line2d_4">
      <g>
       <use style="stroke:#000000;stroke-width:0.8;" x="178.84561" xlink:href="#m1d63caf93b" y="307.584"/>
      </g>
     </g>
     <g id="text_3">
      <!-- 0 -->
      <g transform="translate(175.66436 322.182437)scale(0.1 -0.1)">
       <use xlink:href="#DejaVuSans-48"/>
      </g>
     </g>
    </g>
    <g id="xtick_4">
     <g id="line2d_5">
      <g>
       <use style="stroke:#000000;stroke-width:0.8;" x="234.061785" xlink:href="#m1d63caf93b" y="307.584"/>
      </g>
     </g>
     <g id="text_4">
      <!-- 200 -->
      <g transform="translate(224.518035 322.182437)scale(0.1 -0.1)">
       <use xlink:href="#DejaVuSans-50"/>
       <use x="63.623047" xlink:href="#DejaVuSans-48"/>
       <use x="127.246094" xlink:href="#DejaVuSans-48"/>
      </g>
     </g>
    </g>
    <g id="xtick_5">
     <g id="line2d_6">
      <g>
       <use style="stroke:#000000;stroke-width:0.8;" x="289.277961" xlink:href="#m1d63caf93b" y="307.584"/>
      </g>
     </g>
     <g id="text_5">
      <!-- 400 -->
      <g transform="translate(279.734211 322.182437)scale(0.1 -0.1)">
       <use xlink:href="#DejaVuSans-52"/>
       <use x="63.623047" xlink:href="#DejaVuSans-48"/>
       <use x="127.246094" xlink:href="#DejaVuSans-48"/>
      </g>
     </g>
    </g>
    <g id="xtick_6">
     <g id="line2d_7">
      <g>
       <use style="stroke:#000000;stroke-width:0.8;" x="344.494136" xlink:href="#m1d63caf93b" y="307.584"/>
      </g>
     </g>
     <g id="text_6">
      <!-- 600 -->
      <defs>
       <path d="M 33.015625 40.375 
Q 26.375 40.375 22.484375 35.828125 
Q 18.609375 31.296875 18.609375 23.390625 
Q 18.609375 15.53125 22.484375 10.953125 
Q 26.375 6.390625 33.015625 6.390625 
Q 39.65625 6.390625 43.53125 10.953125 
Q 47.40625 15.53125 47.40625 23.390625 
Q 47.40625 31.296875 43.53125 35.828125 
Q 39.65625 40.375 33.015625 40.375 
z
M 52.59375 71.296875 
L 52.59375 62.3125 
Q 48.875 64.0625 45.09375 64.984375 
Q 41.3125 65.921875 37.59375 65.921875 
Q 27.828125 65.921875 22.671875 59.328125 
Q 17.53125 52.734375 16.796875 39.40625 
Q 19.671875 43.65625 24.015625 45.921875 
Q 28.375 48.1875 33.59375 48.1875 
Q 44.578125 48.1875 50.953125 41.515625 
Q 57.328125 34.859375 57.328125 23.390625 
Q 57.328125 12.15625 50.6875 5.359375 
Q 44.046875 -1.421875 33.015625 -1.421875 
Q 20.359375 -1.421875 13.671875 8.265625 
Q 6.984375 17.96875 6.984375 36.375 
Q 6.984375 53.65625 15.1875 63.9375 
Q 23.390625 74.21875 37.203125 74.21875 
Q 40.921875 74.21875 44.703125 73.484375 
Q 48.484375 72.75 52.59375 71.296875 
z
" id="DejaVuSans-54"/>
      </defs>
      <g transform="translate(334.950386 322.182437)scale(0.1 -0.1)">
       <use xlink:href="#DejaVuSans-54"/>
       <use x="63.623047" xlink:href="#DejaVuSans-48"/>
       <use x="127.246094" xlink:href="#DejaVuSans-48"/>
      </g>
     </g>
    </g>
    <g id="xtick_7">
     <g id="line2d_8">
      <g>
       <use style="stroke:#000000;stroke-width:0.8;" x="399.710311" xlink:href="#m1d63caf93b" y="307.584"/>
      </g>
     </g>
     <g id="text_7">
      <!-- 800 -->
      <defs>
       <path d="M 31.78125 34.625 
Q 24.75 34.625 20.71875 30.859375 
Q 16.703125 27.09375 16.703125 20.515625 
Q 16.703125 13.921875 20.71875 10.15625 
Q 24.75 6.390625 31.78125 6.390625 
Q 38.8125 6.390625 42.859375 10.171875 
Q 46.921875 13.96875 46.921875 20.515625 
Q 46.921875 27.09375 42.890625 30.859375 
Q 38.875 34.625 31.78125 34.625 
z
M 21.921875 38.8125 
Q 15.578125 40.375 12.03125 44.71875 
Q 8.5 49.078125 8.5 55.328125 
Q 8.5 64.0625 14.71875 69.140625 
Q 20.953125 74.21875 31.78125 74.21875 
Q 42.671875 74.21875 48.875 69.140625 
Q 55.078125 64.0625 55.078125 55.328125 
Q 55.078125 49.078125 51.53125 44.71875 
Q 48 40.375 41.703125 38.8125 
Q 48.828125 37.15625 52.796875 32.3125 
Q 56.78125 27.484375 56.78125 20.515625 
Q 56.78125 9.90625 50.3125 4.234375 
Q 43.84375 -1.421875 31.78125 -1.421875 
Q 19.734375 -1.421875 13.25 4.234375 
Q 6.78125 9.90625 6.78125 20.515625 
Q 6.78125 27.484375 10.78125 32.3125 
Q 14.796875 37.15625 21.921875 38.8125 
z
M 18.3125 54.390625 
Q 18.3125 48.734375 21.84375 45.5625 
Q 25.390625 42.390625 31.78125 42.390625 
Q 38.140625 42.390625 41.71875 45.5625 
Q 45.3125 48.734375 45.3125 54.390625 
Q 45.3125 60.0625 41.71875 63.234375 
Q 38.140625 66.40625 31.78125 66.40625 
Q 25.390625 66.40625 21.84375 63.234375 
Q 18.3125 60.0625 18.3125 54.390625 
z
" id="DejaVuSans-56"/>
      </defs>
      <g transform="translate(390.166561 322.182437)scale(0.1 -0.1)">
       <use xlink:href="#DejaVuSans-56"/>
       <use x="63.623047" xlink:href="#DejaVuSans-48"/>
       <use x="127.246094" xlink:href="#DejaVuSans-48"/>
      </g>
     </g>
    </g>
   </g>
   <g id="matplotlib.axis_2">
    <g id="ytick_1">
     <g id="line2d_9">
      <defs>
       <path d="M 0 0 
L -3.5 0 
" id="ma36eedd0d3" style="stroke:#000000;stroke-width:0.8;"/>
      </defs>
      <g>
       <use style="stroke:#000000;stroke-width:0.8;" x="57.6" xlink:href="#ma36eedd0d3" y="262.864336"/>
      </g>
     </g>
     <g id="text_8">
      <!-- −500 -->
      <defs>
       <path d="M 10.796875 72.90625 
L 49.515625 72.90625 
L 49.515625 64.59375 
L 19.828125 64.59375 
L 19.828125 46.734375 
Q 21.96875 47.46875 24.109375 47.828125 
Q 26.265625 48.1875 28.421875 48.1875 
Q 40.625 48.1875 47.75 41.5 
Q 54.890625 34.8125 54.890625 23.390625 
Q 54.890625 11.625 47.5625 5.09375 
Q 40.234375 -1.421875 26.90625 -1.421875 
Q 22.3125 -1.421875 17.546875 -0.640625 
Q 12.796875 0.140625 7.71875 1.703125 
L 7.71875 11.625 
Q 12.109375 9.234375 16.796875 8.0625 
Q 21.484375 6.890625 26.703125 6.890625 
Q 35.15625 6.890625 40.078125 11.328125 
Q 45.015625 15.765625 45.015625 23.390625 
Q 45.015625 31 40.078125 35.4375 
Q 35.15625 39.890625 26.703125 39.890625 
Q 22.75 39.890625 18.8125 39.015625 
Q 14.890625 38.140625 10.796875 36.28125 
z
" id="DejaVuSans-53"/>
      </defs>
      <g transform="translate(23.132812 266.663555)scale(0.1 -0.1)">
       <use xlink:href="#DejaVuSans-8722"/>
       <use x="83.789062" xlink:href="#DejaVuSans-53"/>
       <use x="147.412109" xlink:href="#DejaVuSans-48"/>
       <use x="211.035156" xlink:href="#DejaVuSans-48"/>
      </g>
     </g>
    </g>
    <g id="ytick_2">
     <g id="line2d_10">
      <g>
       <use style="stroke:#000000;stroke-width:0.8;" x="57.6" xlink:href="#ma36eedd0d3" y="214.317218"/>
      </g>
     </g>
     <g id="text_9">
      <!-- −450 -->
      <g transform="translate(23.132812 218.116437)scale(0.1 -0.1)">
       <use xlink:href="#DejaVuSans-8722"/>
       <use x="83.789062" xlink:href="#DejaVuSans-52"/>
       <use x="147.412109" xlink:href="#DejaVuSans-53"/>
       <use x="211.035156" xlink:href="#DejaVuSans-48"/>
      </g>
     </g>
    </g>
    <g id="ytick_3">
     <g id="line2d_11">
      <g>
       <use style="stroke:#000000;stroke-width:0.8;" x="57.6" xlink:href="#ma36eedd0d3" y="165.7701"/>
      </g>
     </g>
     <g id="text_10">
      <!-- −400 -->
      <g transform="translate(23.132812 169.569319)scale(0.1 -0.1)">
       <use xlink:href="#DejaVuSans-8722"/>
       <use x="83.789062" xlink:href="#DejaVuSans-52"/>
       <use x="147.412109" xlink:href="#DejaVuSans-48"/>
       <use x="211.035156" xlink:href="#DejaVuSans-48"/>
      </g>
     </g>
    </g>
    <g id="ytick_4">
     <g id="line2d_12">
      <g>
       <use style="stroke:#000000;stroke-width:0.8;" x="57.6" xlink:href="#ma36eedd0d3" y="117.222982"/>
      </g>
     </g>
     <g id="text_11">
      <!-- −350 -->
      <defs>
       <path d="M 40.578125 39.3125 
Q 47.65625 37.796875 51.625 33 
Q 55.609375 28.21875 55.609375 21.1875 
Q 55.609375 10.40625 48.1875 4.484375 
Q 40.765625 -1.421875 27.09375 -1.421875 
Q 22.515625 -1.421875 17.65625 -0.515625 
Q 12.796875 0.390625 7.625 2.203125 
L 7.625 11.71875 
Q 11.71875 9.328125 16.59375 8.109375 
Q 21.484375 6.890625 26.8125 6.890625 
Q 36.078125 6.890625 40.9375 10.546875 
Q 45.796875 14.203125 45.796875 21.1875 
Q 45.796875 27.640625 41.28125 31.265625 
Q 36.765625 34.90625 28.71875 34.90625 
L 20.21875 34.90625 
L 20.21875 43.015625 
L 29.109375 43.015625 
Q 36.375 43.015625 40.234375 45.921875 
Q 44.09375 48.828125 44.09375 54.296875 
Q 44.09375 59.90625 40.109375 62.90625 
Q 36.140625 65.921875 28.71875 65.921875 
Q 24.65625 65.921875 20.015625 65.03125 
Q 15.375 64.15625 9.8125 62.3125 
L 9.8125 71.09375 
Q 15.4375 72.65625 20.34375 73.4375 
Q 25.25 74.21875 29.59375 74.21875 
Q 40.828125 74.21875 47.359375 69.109375 
Q 53.90625 64.015625 53.90625 55.328125 
Q 53.90625 49.265625 50.4375 45.09375 
Q 46.96875 40.921875 40.578125 39.3125 
z
" id="DejaVuSans-51"/>
      </defs>
      <g transform="translate(23.132812 121.0222)scale(0.1 -0.1)">
       <use xlink:href="#DejaVuSans-8722"/>
       <use x="83.789062" xlink:href="#DejaVuSans-51"/>
       <use x="147.412109" xlink:href="#DejaVuSans-53"/>
       <use x="211.035156" xlink:href="#DejaVuSans-48"/>
      </g>
     </g>
    </g>
    <g id="ytick_5">
     <g id="line2d_13">
      <g>
       <use style="stroke:#000000;stroke-width:0.8;" x="57.6" xlink:href="#ma36eedd0d3" y="68.675863"/>
      </g>
     </g>
     <g id="text_12">
      <!-- −300 -->
      <g transform="translate(23.132812 72.475082)scale(0.1 -0.1)">
       <use xlink:href="#DejaVuSans-8722"/>
       <use x="83.789062" xlink:href="#DejaVuSans-51"/>
       <use x="147.412109" xlink:href="#DejaVuSans-48"/>
       <use x="211.035156" xlink:href="#DejaVuSans-48"/>
      </g>
     </g>
    </g>
   </g>
   <g id="line2d_14">
    <path clip-path="url(#pb2f16fd465)" d="M 395.997309 243.357168 
L 165.77857 180.622725 
L 82.19031 275.39397 
L 204.115138 97.843864 
L 202.686935 63.180948 
" style="fill:none;stroke:#ff0000;stroke-linecap:square;stroke-width:0.5;"/>
   </g>
   <g id="patch_3">
    <path d="M 57.6 307.584 
L 57.6 41.472 
" style="fill:none;stroke:#000000;stroke-linecap:square;stroke-linejoin:miter;stroke-width:0.8;"/>
   </g>
   <g id="patch_4">
    <path d="M 414.72 307.584 
L 414.72 41.472 
" style="fill:none;stroke:#000000;stroke-linecap:square;stroke-linejoin:miter;stroke-width:0.8;"/>
   </g>
   <g id="patch_5">
    <path d="M 57.6 307.584 
L 414.72 307.584 
" style="fill:none;stroke:#000000;stroke-linecap:square;stroke-linejoin:miter;stroke-width:0.8;"/>
   </g>
   <g id="patch_6">
    <path d="M 57.6 41.472 
L 414.72 41.472 
" style="fill:none;stroke:#000000;stroke-linecap:square;stroke-linejoin:miter;stroke-width:0.8;"/>
   </g>
   <g id="PathCollection_1">
    <defs>
     <path d="M 0 2.738613 
C 0.726289 2.738613 1.422928 2.450055 1.936492 1.936492 
C 2.450055 1.422928 2.738613 0.726289 2.738613 0 
C 2.738613 -0.726289 2.450055 -1.422928 1.936492 -1.936492 
C 1.422928 -2.450055 0.726289 -2.738613 0 -2.738613 
C -0.726289 -2.738613 -1.422928 -2.450055 -1.936492 -1.936492 
C -2.450055 -1.422928 -2.738613 -0.726289 -2.738613 0 
C -2.738613 0.726289 -2.450055 1.422928 -1.936492 1.936492 
C -1.422928 2.450055 -0.726289 2.738613 0 2.738613 
z
" id="me11c3a6e75" style="stroke:#ff0000;"/>
    </defs>
    <g clip-path="url(#pb2f16fd465)">
     <use style="fill:#ff0000;stroke:#ff0000;" x="395.997309" xlink:href="#me11c3a6e75" y="243.357168"/>
     <use style="fill:#ff0000;stroke:#ff0000;" x="165.77857" xlink:href="#me11c3a6e75" y="180.622725"/>
     <use style="fill:#ff0000;stroke:#ff0000;" x="82.19031" xlink:href="#me11c3a6e75" y="275.39397"/>
     <use style="fill:#ff0000;stroke:#ff0000;" x="204.115138" xlink:href="#me11c3a6e75" y="97.843864"/>
     <use style="fill:#ff0000;stroke:#ff0000;" x="202.686935" xlink:href="#me11c3a6e75" y="63.180948"/>
    </g>
   </g>
   <g id="text_13">
    <!-- (42) Subject: s3, Known = True, Degree = 2, Duration = 0.1 -->
    <defs>
     <path d="M 31 75.875 
Q 24.46875 64.65625 21.28125 53.65625 
Q 18.109375 42.671875 18.109375 31.390625 
Q 18.109375 20.125 21.3125 9.0625 
Q 24.515625 -2 31 -13.1875 
L 23.1875 -13.1875 
Q 15.875 -1.703125 12.234375 9.375 
Q 8.59375 20.453125 8.59375 31.390625 
Q 8.59375 42.28125 12.203125 53.3125 
Q 15.828125 64.359375 23.1875 75.875 
z
" id="DejaVuSans-40"/>
     <path d="M 8.015625 75.875 
L 15.828125 75.875 
Q 23.140625 64.359375 26.78125 53.3125 
Q 30.421875 42.28125 30.421875 31.390625 
Q 30.421875 20.453125 26.78125 9.375 
Q 23.140625 -1.703125 15.828125 -13.1875 
L 8.015625 -13.1875 
Q 14.5 -2 17.703125 9.0625 
Q 20.90625 20.125 20.90625 31.390625 
Q 20.90625 42.671875 17.703125 53.65625 
Q 14.5 64.65625 8.015625 75.875 
z
" id="DejaVuSans-41"/>
     <path id="DejaVuSans-32"/>
     <path d="M 53.515625 70.515625 
L 53.515625 60.890625 
Q 47.90625 63.578125 42.921875 64.890625 
Q 37.9375 66.21875 33.296875 66.21875 
Q 25.25 66.21875 20.875 63.09375 
Q 16.5 59.96875 16.5 54.203125 
Q 16.5 49.359375 19.40625 46.890625 
Q 22.3125 44.4375 30.421875 42.921875 
L 36.375 41.703125 
Q 47.40625 39.59375 52.65625 34.296875 
Q 57.90625 29 57.90625 20.125 
Q 57.90625 9.515625 50.796875 4.046875 
Q 43.703125 -1.421875 29.984375 -1.421875 
Q 24.8125 -1.421875 18.96875 -0.25 
Q 13.140625 0.921875 6.890625 3.21875 
L 6.890625 13.375 
Q 12.890625 10.015625 18.65625 8.296875 
Q 24.421875 6.59375 29.984375 6.59375 
Q 38.421875 6.59375 43.015625 9.90625 
Q 47.609375 13.234375 47.609375 19.390625 
Q 47.609375 24.75 44.3125 27.78125 
Q 41.015625 30.8125 33.5 32.328125 
L 27.484375 33.5 
Q 16.453125 35.6875 11.515625 40.375 
Q 6.59375 45.0625 6.59375 53.421875 
Q 6.59375 63.09375 13.40625 68.65625 
Q 20.21875 74.21875 32.171875 74.21875 
Q 37.3125 74.21875 42.625 73.28125 
Q 47.953125 72.359375 53.515625 70.515625 
z
" id="DejaVuSans-83"/>
     <path d="M 8.5 21.578125 
L 8.5 54.6875 
L 17.484375 54.6875 
L 17.484375 21.921875 
Q 17.484375 14.15625 20.5 10.265625 
Q 23.53125 6.390625 29.59375 6.390625 
Q 36.859375 6.390625 41.078125 11.03125 
Q 45.3125 15.671875 45.3125 23.6875 
L 45.3125 54.6875 
L 54.296875 54.6875 
L 54.296875 0 
L 45.3125 0 
L 45.3125 8.40625 
Q 42.046875 3.421875 37.71875 1 
Q 33.40625 -1.421875 27.6875 -1.421875 
Q 18.265625 -1.421875 13.375 4.4375 
Q 8.5 10.296875 8.5 21.578125 
z
M 31.109375 56 
z
" id="DejaVuSans-117"/>
     <path d="M 48.6875 27.296875 
Q 48.6875 37.203125 44.609375 42.84375 
Q 40.53125 48.484375 33.40625 48.484375 
Q 26.265625 48.484375 22.1875 42.84375 
Q 18.109375 37.203125 18.109375 27.296875 
Q 18.109375 17.390625 22.1875 11.75 
Q 26.265625 6.109375 33.40625 6.109375 
Q 40.53125 6.109375 44.609375 11.75 
Q 48.6875 17.390625 48.6875 27.296875 
z
M 18.109375 46.390625 
Q 20.953125 51.265625 25.265625 53.625 
Q 29.59375 56 35.59375 56 
Q 45.5625 56 51.78125 48.09375 
Q 58.015625 40.1875 58.015625 27.296875 
Q 58.015625 14.40625 51.78125 6.484375 
Q 45.5625 -1.421875 35.59375 -1.421875 
Q 29.59375 -1.421875 25.265625 0.953125 
Q 20.953125 3.328125 18.109375 8.203125 
L 18.109375 0 
L 9.078125 0 
L 9.078125 75.984375 
L 18.109375 75.984375 
z
" id="DejaVuSans-98"/>
     <path d="M 9.421875 54.6875 
L 18.40625 54.6875 
L 18.40625 -0.984375 
Q 18.40625 -11.421875 14.421875 -16.109375 
Q 10.453125 -20.796875 1.609375 -20.796875 
L -1.8125 -20.796875 
L -1.8125 -13.1875 
L 0.59375 -13.1875 
Q 5.71875 -13.1875 7.5625 -10.8125 
Q 9.421875 -8.453125 9.421875 -0.984375 
z
M 9.421875 75.984375 
L 18.40625 75.984375 
L 18.40625 64.59375 
L 9.421875 64.59375 
z
" id="DejaVuSans-106"/>
     <path d="M 56.203125 29.59375 
L 56.203125 25.203125 
L 14.890625 25.203125 
Q 15.484375 15.921875 20.484375 11.0625 
Q 25.484375 6.203125 34.421875 6.203125 
Q 39.59375 6.203125 44.453125 7.46875 
Q 49.3125 8.734375 54.109375 11.28125 
L 54.109375 2.78125 
Q 49.265625 0.734375 44.1875 -0.34375 
Q 39.109375 -1.421875 33.890625 -1.421875 
Q 20.796875 -1.421875 13.15625 6.1875 
Q 5.515625 13.8125 5.515625 26.8125 
Q 5.515625 40.234375 12.765625 48.109375 
Q 20.015625 56 32.328125 56 
Q 43.359375 56 49.78125 48.890625 
Q 56.203125 41.796875 56.203125 29.59375 
z
M 47.21875 32.234375 
Q 47.125 39.59375 43.09375 43.984375 
Q 39.0625 48.390625 32.421875 48.390625 
Q 24.90625 48.390625 20.390625 44.140625 
Q 15.875 39.890625 15.1875 32.171875 
z
" id="DejaVuSans-101"/>
     <path d="M 48.78125 52.59375 
L 48.78125 44.1875 
Q 44.96875 46.296875 41.140625 47.34375 
Q 37.3125 48.390625 33.40625 48.390625 
Q 24.65625 48.390625 19.8125 42.84375 
Q 14.984375 37.3125 14.984375 27.296875 
Q 14.984375 17.28125 19.8125 11.734375 
Q 24.65625 6.203125 33.40625 6.203125 
Q 37.3125 6.203125 41.140625 7.25 
Q 44.96875 8.296875 48.78125 10.40625 
L 48.78125 2.09375 
Q 45.015625 0.34375 40.984375 -0.53125 
Q 36.96875 -1.421875 32.421875 -1.421875 
Q 20.0625 -1.421875 12.78125 6.34375 
Q 5.515625 14.109375 5.515625 27.296875 
Q 5.515625 40.671875 12.859375 48.328125 
Q 20.21875 56 33.015625 56 
Q 37.15625 56 41.109375 55.140625 
Q 45.0625 54.296875 48.78125 52.59375 
z
" id="DejaVuSans-99"/>
     <path d="M 18.3125 70.21875 
L 18.3125 54.6875 
L 36.8125 54.6875 
L 36.8125 47.703125 
L 18.3125 47.703125 
L 18.3125 18.015625 
Q 18.3125 11.328125 20.140625 9.421875 
Q 21.96875 7.515625 27.59375 7.515625 
L 36.8125 7.515625 
L 36.8125 0 
L 27.59375 0 
Q 17.1875 0 13.234375 3.875 
Q 9.28125 7.765625 9.28125 18.015625 
L 9.28125 47.703125 
L 2.6875 47.703125 
L 2.6875 54.6875 
L 9.28125 54.6875 
L 9.28125 70.21875 
z
" id="DejaVuSans-116"/>
     <path d="M 11.71875 12.40625 
L 22.015625 12.40625 
L 22.015625 0 
L 11.71875 0 
z
M 11.71875 51.703125 
L 22.015625 51.703125 
L 22.015625 39.3125 
L 11.71875 39.3125 
z
" id="DejaVuSans-58"/>
     <path d="M 44.28125 53.078125 
L 44.28125 44.578125 
Q 40.484375 46.53125 36.375 47.5 
Q 32.28125 48.484375 27.875 48.484375 
Q 21.1875 48.484375 17.84375 46.4375 
Q 14.5 44.390625 14.5 40.28125 
Q 14.5 37.15625 16.890625 35.375 
Q 19.28125 33.59375 26.515625 31.984375 
L 29.59375 31.296875 
Q 39.15625 29.25 43.1875 25.515625 
Q 47.21875 21.78125 47.21875 15.09375 
Q 47.21875 7.46875 41.1875 3.015625 
Q 35.15625 -1.421875 24.609375 -1.421875 
Q 20.21875 -1.421875 15.453125 -0.5625 
Q 10.6875 0.296875 5.421875 2 
L 5.421875 11.28125 
Q 10.40625 8.6875 15.234375 7.390625 
Q 20.0625 6.109375 24.8125 6.109375 
Q 31.15625 6.109375 34.5625 8.28125 
Q 37.984375 10.453125 37.984375 14.40625 
Q 37.984375 18.0625 35.515625 20.015625 
Q 33.0625 21.96875 24.703125 23.78125 
L 21.578125 24.515625 
Q 13.234375 26.265625 9.515625 29.90625 
Q 5.8125 33.546875 5.8125 39.890625 
Q 5.8125 47.609375 11.28125 51.796875 
Q 16.75 56 26.8125 56 
Q 31.78125 56 36.171875 55.265625 
Q 40.578125 54.546875 44.28125 53.078125 
z
" id="DejaVuSans-115"/>
     <path d="M 11.71875 12.40625 
L 22.015625 12.40625 
L 22.015625 4 
L 14.015625 -11.625 
L 7.71875 -11.625 
L 11.71875 4 
z
" id="DejaVuSans-44"/>
     <path d="M 9.8125 72.90625 
L 19.671875 72.90625 
L 19.671875 42.09375 
L 52.390625 72.90625 
L 65.09375 72.90625 
L 28.90625 38.921875 
L 67.671875 0 
L 54.6875 0 
L 19.671875 35.109375 
L 19.671875 0 
L 9.8125 0 
z
" id="DejaVuSans-75"/>
     <path d="M 54.890625 33.015625 
L 54.890625 0 
L 45.90625 0 
L 45.90625 32.71875 
Q 45.90625 40.484375 42.875 44.328125 
Q 39.84375 48.1875 33.796875 48.1875 
Q 26.515625 48.1875 22.3125 43.546875 
Q 18.109375 38.921875 18.109375 30.90625 
L 18.109375 0 
L 9.078125 0 
L 9.078125 54.6875 
L 18.109375 54.6875 
L 18.109375 46.1875 
Q 21.34375 51.125 25.703125 53.5625 
Q 30.078125 56 35.796875 56 
Q 45.21875 56 50.046875 50.171875 
Q 54.890625 44.34375 54.890625 33.015625 
z
" id="DejaVuSans-110"/>
     <path d="M 30.609375 48.390625 
Q 23.390625 48.390625 19.1875 42.75 
Q 14.984375 37.109375 14.984375 27.296875 
Q 14.984375 17.484375 19.15625 11.84375 
Q 23.34375 6.203125 30.609375 6.203125 
Q 37.796875 6.203125 41.984375 11.859375 
Q 46.1875 17.53125 46.1875 27.296875 
Q 46.1875 37.015625 41.984375 42.703125 
Q 37.796875 48.390625 30.609375 48.390625 
z
M 30.609375 56 
Q 42.328125 56 49.015625 48.375 
Q 55.71875 40.765625 55.71875 27.296875 
Q 55.71875 13.875 49.015625 6.21875 
Q 42.328125 -1.421875 30.609375 -1.421875 
Q 18.84375 -1.421875 12.171875 6.21875 
Q 5.515625 13.875 5.515625 27.296875 
Q 5.515625 40.765625 12.171875 48.375 
Q 18.84375 56 30.609375 56 
z
" id="DejaVuSans-111"/>
     <path d="M 4.203125 54.6875 
L 13.1875 54.6875 
L 24.421875 12.015625 
L 35.59375 54.6875 
L 46.1875 54.6875 
L 57.421875 12.015625 
L 68.609375 54.6875 
L 77.59375 54.6875 
L 63.28125 0 
L 52.6875 0 
L 40.921875 44.828125 
L 29.109375 0 
L 18.5 0 
z
" id="DejaVuSans-119"/>
     <path d="M 10.59375 45.40625 
L 73.1875 45.40625 
L 73.1875 37.203125 
L 10.59375 37.203125 
z
M 10.59375 25.484375 
L 73.1875 25.484375 
L 73.1875 17.1875 
L 10.59375 17.1875 
z
" id="DejaVuSans-61"/>
     <path d="M -0.296875 72.90625 
L 61.375 72.90625 
L 61.375 64.59375 
L 35.5 64.59375 
L 35.5 0 
L 25.59375 0 
L 25.59375 64.59375 
L -0.296875 64.59375 
z
" id="DejaVuSans-84"/>
     <path d="M 41.109375 46.296875 
Q 39.59375 47.171875 37.8125 47.578125 
Q 36.03125 48 33.890625 48 
Q 26.265625 48 22.1875 43.046875 
Q 18.109375 38.09375 18.109375 28.8125 
L 18.109375 0 
L 9.078125 0 
L 9.078125 54.6875 
L 18.109375 54.6875 
L 18.109375 46.1875 
Q 20.953125 51.171875 25.484375 53.578125 
Q 30.03125 56 36.53125 56 
Q 37.453125 56 38.578125 55.875 
Q 39.703125 55.765625 41.0625 55.515625 
z
" id="DejaVuSans-114"/>
     <path d="M 19.671875 64.796875 
L 19.671875 8.109375 
L 31.59375 8.109375 
Q 46.6875 8.109375 53.6875 14.9375 
Q 60.6875 21.78125 60.6875 36.53125 
Q 60.6875 51.171875 53.6875 57.984375 
Q 46.6875 64.796875 31.59375 64.796875 
z
M 9.8125 72.90625 
L 30.078125 72.90625 
Q 51.265625 72.90625 61.171875 64.09375 
Q 71.09375 55.28125 71.09375 36.53125 
Q 71.09375 17.671875 61.125 8.828125 
Q 51.171875 0 30.078125 0 
L 9.8125 0 
z
" id="DejaVuSans-68"/>
     <path d="M 45.40625 27.984375 
Q 45.40625 37.75 41.375 43.109375 
Q 37.359375 48.484375 30.078125 48.484375 
Q 22.859375 48.484375 18.828125 43.109375 
Q 14.796875 37.75 14.796875 27.984375 
Q 14.796875 18.265625 18.828125 12.890625 
Q 22.859375 7.515625 30.078125 7.515625 
Q 37.359375 7.515625 41.375 12.890625 
Q 45.40625 18.265625 45.40625 27.984375 
z
M 54.390625 6.78125 
Q 54.390625 -7.171875 48.1875 -13.984375 
Q 42 -20.796875 29.203125 -20.796875 
Q 24.46875 -20.796875 20.265625 -20.09375 
Q 16.0625 -19.390625 12.109375 -17.921875 
L 12.109375 -9.1875 
Q 16.0625 -11.328125 19.921875 -12.34375 
Q 23.78125 -13.375 27.78125 -13.375 
Q 36.625 -13.375 41.015625 -8.765625 
Q 45.40625 -4.15625 45.40625 5.171875 
L 45.40625 9.625 
Q 42.625 4.78125 38.28125 2.390625 
Q 33.9375 0 27.875 0 
Q 17.828125 0 11.671875 7.65625 
Q 5.515625 15.328125 5.515625 27.984375 
Q 5.515625 40.671875 11.671875 48.328125 
Q 17.828125 56 27.875 56 
Q 33.9375 56 38.28125 53.609375 
Q 42.625 51.21875 45.40625 46.390625 
L 45.40625 54.6875 
L 54.390625 54.6875 
z
" id="DejaVuSans-103"/>
     <path d="M 34.28125 27.484375 
Q 23.390625 27.484375 19.1875 25 
Q 14.984375 22.515625 14.984375 16.5 
Q 14.984375 11.71875 18.140625 8.90625 
Q 21.296875 6.109375 26.703125 6.109375 
Q 34.1875 6.109375 38.703125 11.40625 
Q 43.21875 16.703125 43.21875 25.484375 
L 43.21875 27.484375 
z
M 52.203125 31.203125 
L 52.203125 0 
L 43.21875 0 
L 43.21875 8.296875 
Q 40.140625 3.328125 35.546875 0.953125 
Q 30.953125 -1.421875 24.3125 -1.421875 
Q 15.921875 -1.421875 10.953125 3.296875 
Q 6 8.015625 6 15.921875 
Q 6 25.140625 12.171875 29.828125 
Q 18.359375 34.515625 30.609375 34.515625 
L 43.21875 34.515625 
L 43.21875 35.40625 
Q 43.21875 41.609375 39.140625 45 
Q 35.0625 48.390625 27.6875 48.390625 
Q 23 48.390625 18.546875 47.265625 
Q 14.109375 46.140625 10.015625 43.890625 
L 10.015625 52.203125 
Q 14.9375 54.109375 19.578125 55.046875 
Q 24.21875 56 28.609375 56 
Q 40.484375 56 46.34375 49.84375 
Q 52.203125 43.703125 52.203125 31.203125 
z
" id="DejaVuSans-97"/>
     <path d="M 9.421875 54.6875 
L 18.40625 54.6875 
L 18.40625 0 
L 9.421875 0 
z
M 9.421875 75.984375 
L 18.40625 75.984375 
L 18.40625 64.59375 
L 9.421875 64.59375 
z
" id="DejaVuSans-105"/>
     <path d="M 10.6875 12.40625 
L 21 12.40625 
L 21 0 
L 10.6875 0 
z
" id="DejaVuSans-46"/>
     <path d="M 12.40625 8.296875 
L 28.515625 8.296875 
L 28.515625 63.921875 
L 10.984375 60.40625 
L 10.984375 69.390625 
L 28.421875 72.90625 
L 38.28125 72.90625 
L 38.28125 8.296875 
L 54.390625 8.296875 
L 54.390625 0 
L 12.40625 0 
z
" id="DejaVuSans-49"/>
    </defs>
    <g transform="translate(55.550625 35.472)scale(0.12 -0.12)">
     <use xlink:href="#DejaVuSans-40"/>
     <use x="39.013672" xlink:href="#DejaVuSans-52"/>
     <use x="102.636719" xlink:href="#DejaVuSans-50"/>
     <use x="166.259766" xlink:href="#DejaVuSans-41"/>
     <use x="205.273438" xlink:href="#DejaVuSans-32"/>
     <use x="237.060547" xlink:href="#DejaVuSans-83"/>
     <use x="300.537109" xlink:href="#DejaVuSans-117"/>
     <use x="363.916016" xlink:href="#DejaVuSans-98"/>
     <use x="427.392578" xlink:href="#DejaVuSans-106"/>
     <use x="455.175781" xlink:href="#DejaVuSans-101"/>
     <use x="516.699219" xlink:href="#DejaVuSans-99"/>
     <use x="571.679688" xlink:href="#DejaVuSans-116"/>
     <use x="610.888672" xlink:href="#DejaVuSans-58"/>
     <use x="644.580078" xlink:href="#DejaVuSans-32"/>
     <use x="676.367188" xlink:href="#DejaVuSans-115"/>
     <use x="728.466797" xlink:href="#DejaVuSans-51"/>
     <use x="792.089844" xlink:href="#DejaVuSans-44"/>
     <use x="823.876953" xlink:href="#DejaVuSans-32"/>
     <use x="855.664062" xlink:href="#DejaVuSans-75"/>
     <use x="921.240234" xlink:href="#DejaVuSans-110"/>
     <use x="984.619141" xlink:href="#DejaVuSans-111"/>
     <use x="1045.800781" xlink:href="#DejaVuSans-119"/>
     <use x="1127.587891" xlink:href="#DejaVuSans-110"/>
     <use x="1190.966797" xlink:href="#DejaVuSans-32"/>
     <use x="1222.753906" xlink:href="#DejaVuSans-61"/>
     <use x="1306.542969" xlink:href="#DejaVuSans-32"/>
     <use x="1338.330078" xlink:href="#DejaVuSans-84"/>
     <use x="1399.195312" xlink:href="#DejaVuSans-114"/>
     <use x="1440.308594" xlink:href="#DejaVuSans-117"/>
     <use x="1503.6875" xlink:href="#DejaVuSans-101"/>
     <use x="1565.210938" xlink:href="#DejaVuSans-44"/>
     <use x="1596.998047" xlink:href="#DejaVuSans-32"/>
     <use x="1628.785156" xlink:href="#DejaVuSans-68"/>
     <use x="1705.787109" xlink:href="#DejaVuSans-101"/>
     <use x="1767.310547" xlink:href="#DejaVuSans-103"/>
     <use x="1830.787109" xlink:href="#DejaVuSans-114"/>
     <use x="1871.869141" xlink:href="#DejaVuSans-101"/>
     <use x="1933.392578" xlink:href="#DejaVuSans-101"/>
     <use x="1994.916016" xlink:href="#DejaVuSans-32"/>
     <use x="2026.703125" xlink:href="#DejaVuSans-61"/>
     <use x="2110.492188" xlink:href="#DejaVuSans-32"/>
     <use x="2142.279297" xlink:href="#DejaVuSans-50"/>
     <use x="2205.902344" xlink:href="#DejaVuSans-44"/>
     <use x="2237.689453" xlink:href="#DejaVuSans-32"/>
     <use x="2269.476562" xlink:href="#DejaVuSans-68"/>
     <use x="2346.478516" xlink:href="#DejaVuSans-117"/>
     <use x="2409.857422" xlink:href="#DejaVuSans-114"/>
     <use x="2450.970703" xlink:href="#DejaVuSans-97"/>
     <use x="2512.25" xlink:href="#DejaVuSans-116"/>
     <use x="2551.458984" xlink:href="#DejaVuSans-105"/>
     <use x="2579.242188" xlink:href="#DejaVuSans-111"/>
     <use x="2640.423828" xlink:href="#DejaVuSans-110"/>
     <use x="2703.802734" xlink:href="#DejaVuSans-32"/>
     <use x="2735.589844" xlink:href="#DejaVuSans-61"/>
     <use x="2819.378906" xlink:href="#DejaVuSans-32"/>
     <use x="2851.166016" xlink:href="#DejaVuSans-48"/>
     <use x="2914.789062" xlink:href="#DejaVuSans-46"/>
     <use x="2946.576172" xlink:href="#DejaVuSans-49"/>
    </g>
   </g>
  </g>
 </g>
 <defs>
  <clipPath id="pb2f16fd465">
   <rect height="266.112" width="357.12" x="57.6" y="41.472"/>
  </clipPath>
 </defs>
</svg>
