<?xml version="1.0" encoding="utf-8" standalone="no"?>
<!DOCTYPE svg PUBLIC "-//W3C//DTD SVG 1.1//EN"
  "http://www.w3.org/Graphics/SVG/1.1/DTD/svg11.dtd">
<!-- Created with matplotlib (https://matplotlib.org/) -->
<svg height="345.6pt" version="1.1" viewBox="0 0 460.8 345.6" width="460.8pt" xmlns="http://www.w3.org/2000/svg" xmlns:xlink="http://www.w3.org/1999/xlink">
 <defs>
  <style type="text/css">
*{stroke-linecap:butt;stroke-linejoin:round;}
  </style>
 </defs>
 <g id="figure_1">
  <g id="patch_1">
   <path d="M 0 345.6 
L 460.8 345.6 
L 460.8 0 
L 0 0 
z
" style="fill:#ffffff;"/>
  </g>
  <g id="axes_1">
   <g id="patch_2">
    <path d="M 57.6 307.584 
L 414.72 307.584 
L 414.72 41.472 
L 57.6 41.472 
z
" style="fill:#ffffff;"/>
   </g>
   <g id="line2d_1">
    <path clip-path="url(#p2dc1710ef5)" d="M 396.007865 59.814049 
L 396.330003 60.119068 
L 396.654782 60.119068 
L 396.763041 59.205723 
L 396.546522 59.358233 
L 396.113484 60.119068 
L 396.113484 60.271578 
L 396.330003 60.119068 
L 396.438263 59.814049 
L 396.330003 59.663252 
L 396.221744 59.966558 
L 396.330003 59.663252 
L 396.007865 59.358233 
L 395.791346 59.358233 
L 395.899605 60.271578 
L 395.899605 59.510743 
L 396.007865 59.510743 
L 395.574827 60.119068 
L 395.791346 60.424088 
L 396.007865 60.271578 
L 395.899605 59.814049 
L 396.007865 59.814049 
L 396.221744 59.966558 
L 396.221744 60.119068 
L 396.113484 59.814049 
L 395.899605 59.663252 
L 395.899605 59.663252 
L 395.791346 59.966558 
L 396.007865 60.119068 
L 395.899605 60.119068 
L 395.791346 60.271578 
L 396.007865 60.424088 
L 396.330003 60.119068 
L 396.546522 60.119068 
L 396.546522 60.424088 
L 396.330003 60.881617 
L 396.113484 61.034127 
L 396.113484 60.576598 
L 396.113484 61.186637 
L 396.007865 61.186637 
L 395.791346 61.034127 
L 395.683086 60.729108 
L 395.791346 60.729108 
L 396.007865 60.729108 
L 396.113484 60.576598 
L 395.358308 60.576598 
L 395.574827 60.424088 
L 395.791346 60.729108 
L 396.113484 60.881617 
L 396.113484 61.034127 
L 395.899605 60.881617 
L 395.574827 61.794963 
L 395.899605 61.186637 
L 396.438263 60.881617 
L 396.113484 61.034127 
L 396.007865 61.337433 
L 396.221744 61.337433 
L 396.330003 61.186637 
L 396.330003 61.186637 
L 396.221744 60.881617 
L 396.330003 61.034127 
L 396.438263 61.034127 
L 396.330003 61.186637 
L 396.330003 61.642453 
L 396.546522 61.642453 
L 396.871301 61.034127 
L 396.97692 60.576598 
L 396.763041 60.424088 
L 396.763041 60.271578 
L 396.97692 60.424088 
L 397.409958 61.186637 
L 397.840356 61.186637 
L 397.301699 61.034127 
L 397.409958 61.034127 
L 398.273394 60.424088 
L 398.381654 60.271578 
L 398.165135 60.271578 
L 398.056875 59.358233 
L 397.840356 59.205723 
L 397.840356 59.205723 
L 398.165135 59.205723 
L 398.487273 59.053213 
L 398.165135 58.748193 
L 397.948615 58.748193 
L 398.056875 58.290664 
L 398.381654 57.377319 
L 398.487273 57.529828 
L 398.487273 57.529828 
L 398.165135 57.834848 
L 398.165135 57.682338 
L 398.381654 57.377319 
L 398.381654 57.377319 
L 397.732096 57.529828 
L 398.056875 56.767279 
L 397.840356 57.072299 
L 397.948615 56.614769 
L 398.165135 56.006444 
L 398.056875 56.006444 
L 397.948615 55.853934 
L 397.409958 55.548914 
L 397.301699 55.853934 
L 397.518218 56.158953 
L 397.518218 56.006444 
L 397.409958 56.006444 
L 397.08518 56.006444 
L 397.193439 55.396404 
L 397.08518 55.396404 
L 396.871301 55.243895 
L 396.97692 55.091385 
L 397.193439 55.091385 
L 397.08518 55.243895 
L 397.301699 55.396404 
L 397.193439 55.091385 
L 396.871301 55.091385 
L 396.654782 55.243895 
L 396.871301 55.091385 
L 396.871301 54.330549 
L 396.654782 54.635569 
L 396.654782 54.940588 
L 396.546522 54.940588 
L 396.330003 54.788079 
L 396.438263 53.568 
L 396.438263 54.025529 
L 396.546522 53.87302 
L 396.221744 54.483059 
L 396.546522 54.635569 
L 396.654782 54.483059 
L 396.546522 54.635569 
L 396.330003 54.635569 
L 396.330003 54.330549 
L 396.546522 54.178039 
L 396.654782 55.243895 
L 396.763041 55.243895 
L 396.871301 54.788079 
L 396.97692 54.940588 
L 396.871301 54.635569 
L 396.654782 53.87302 
L 396.546522 53.87302 
L 396.546522 55.243895 
L 396.221744 55.396404 
L 396.330003 54.940588 
L 396.438263 54.635569 
L 396.330003 54.635569 
L 395.899605 54.788079 
L 394.172734 54.330549 
L 392.8789 54.483059 
L 391.368547 54.483059 
L 387.698284 53.87302 
L 385.541015 53.87302 
L 377.447953 54.940588 
L 374.10511 55.091385 
L 370.220968 55.396404 
L 366.120308 56.311463 
L 354.143105 59.510743 
L 342.490681 63.165838 
L 334.505879 65.907587 
L 330.621738 66.975156 
L 318.647175 69.259376 
L 301.597617 72.458656 
L 297.283077 73.373715 
L 281.529993 78.096378 
L 277.754111 79.162234 
L 273.86997 80.075579 
L 266.748604 82.514023 
L 263.619639 83.732388 
L 260.598933 85.103263 
L 255.526577 86.779157 
L 253.585827 87.845012 
L 251.967214 89.368397 
L 250.456862 90.588476 
L 247.758294 91.349311 
L 247.111378 91.806841 
L 246.356201 92.720186 
L 246.356201 93.177715 
L 247.111378 94.091061 
L 248.72999 94.85361 
L 249.268647 94.85361 
L 249.701685 95.00612 
L 249.915564 95.311139 
L 249.701685 95.15863 
L 249.593426 96.376995 
L 249.701685 96.834524 
L 249.376907 97.900379 
L 248.838249 98.357909 
L 249.160388 98.661215 
L 249.160388 98.661215 
L 248.946509 98.813725 
L 248.838249 99.423764 
L 248.838249 99.271254 
L 249.054769 99.423764 
L 249.593426 100.033803 
L 249.701685 100.033803 
L 249.160388 100.337109 
L 249.268647 101.252168 
L 249.376907 101.252168 
L 249.485166 101.709698 
L 249.701685 102.165514 
L 249.809945 101.860494 
L 249.593426 101.860494 
L 249.485166 102.013004 
L 249.701685 102.165514 
L 249.701685 102.013004 
L 249.809945 102.165514 
L 250.132083 102.470533 
L 250.456862 102.165514 
L 250.456862 102.013004 
L 250.132083 102.165514 
L 249.915564 102.623043 
L 250.456862 103.080573 
L 251.103779 103.080573 
L 250.995519 103.080573 
L 250.67074 103.688898 
L 250.565121 104.298938 
L 250.67074 104.603957 
L 250.67074 104.451448 
L 250.67074 104.146428 
L 251.103779 104.146428 
L 251.212038 104.451448 
L 250.565121 106.127342 
L 250.779 106.127342 
L 250.887259 106.279852 
L 250.565121 106.583158 
L 250.348602 107.193197 
L 250.456862 107.040687 
L 250.779 106.735668 
L 250.779 106.583158 
L 250.887259 107.345707 
L 251.103779 107.803237 
L 251.212038 107.650727 
L 250.995519 107.955746 
L 250.779 107.955746 
L 250.565121 108.411562 
L 250.456862 109.021602 
L 250.565121 109.174111 
L 250.565121 109.021602 
L 250.348602 109.174111 
L 249.915564 109.326621 
L 249.376907 108.869092 
L 248.946509 108.716582 
L 245.925803 109.326621 
L 244.954108 109.479131 
L 244.198932 109.934947 
L 241.825143 110.850006 
L 238.371399 113.744266 
L 236.21413 115.57267 
L 234.05686 117.85689 
L 229.84794 123.645409 
L 225.100363 130.196477 
L 223.159612 133.090737 
L 219.814128 138.88097 
L 217.870737 141.622719 
L 215.821727 144.211959 
L 210.102455 152.286412 
L 204.92448 157.922421 
L 199.746505 163.865164 
L 194.565889 170.263722 
L 191.869962 173.766308 
L 186.475468 179.859846 
L 178.704545 189.610194 
L 169.103771 203.168146 
L 167.915557 205.45408 
L 166.188685 210.786783 
L 164.786592 218.403707 
L 164.678332 221.906292 
L 163.923156 231.35162 
L 163.05972 236.226793 
L 162.090665 242.625352 
L 160.363793 248.8714 
L 159.069959 252.833229 
L 158.636921 253.899084 
L 157.559607 258.621748 
L 157.343087 259.992623 
L 156.80179 262.276843 
L 156.154873 265.020306 
L 155.724475 265.933652 
L 154.214122 270.961335 
L 154.105863 272.33221 
L 154.105863 272.78974 
L 153.350686 274.313124 
L 153.458946 274.76894 
L 153.458946 275.531489 
L 153.134167 276.597344 
L 153.025908 278.578259 
L 152.917648 278.883278 
L 152.59551 279.188298 
L 152.70377 279.340808 
L 152.70377 279.796624 
L 152.378991 281.014989 
L 152.59551 281.320008 
L 152.378991 281.777538 
L 152.59551 282.235067 
L 152.917648 282.235067 
L 152.917648 281.930048 
L 152.487251 281.930048 
L 152.162472 282.387577 
L 152.487251 283.453432 
L 152.487251 283.453432 
L 152.487251 282.995903 
L 152.378991 283.148413 
L 152.270731 283.148413 
L 152.378991 282.995903 
L 152.378991 282.995903 
L 152.487251 283.148413 
L 152.378991 283.605942 
L 152.270731 283.758452 
L 152.70377 283.148413 
L 153.567206 282.843393 
L 153.567206 282.995903 
L 153.242427 283.300923 
L 153.134167 283.758452 
L 153.350686 283.300923 
L 153.889344 283.148413 
L 153.781084 282.995903 
L 153.567206 282.995903 
L 153.350686 283.300923 
L 153.672825 282.995903 
L 153.672825 282.995903 
L 153.997603 282.843393 
L 154.105863 282.843393 
L 153.781084 282.235067 
L 153.567206 282.235067 
L 152.378991 282.538373 
L 150.113462 283.148413 
L 148.819628 283.453432 
L 144.827227 283.758452 
L 142.23692 283.758452 
L 139.540993 283.910962 
L 136.517647 284.214268 
L 133.496941 284.824307 
L 130.692755 285.585143 
L 127.994188 286.195182 
L 125.298261 286.500202 
L 122.383174 286.652712 
L 116.883061 287.261037 
L 114.184494 287.261037 
L 106.738349 288.784422 
L 104.47282 288.784422 
L 101.993412 289.089442 
L 99.511364 289.546971 
L 97.137576 289.851991 
L 92.606517 289.851991 
L 90.446607 290.004501 
L 88.181078 289.851991 
L 82.786584 289.851991 
L 77.716869 290.307807 
L 76.961692 290.15701 
L 76.420395 289.699481 
L 76.098256 289.699481 
L 75.556959 290.15701 
L 74.693523 290.460316 
L 74.046606 290.307807 
L 73.832727 290.004501 
L 74.479644 290.004501 
L 75.773478 288.784422 
L 76.528654 288.784422 
L 76.853433 289.241951 
L 77.39209 289.394461 
L 77.716869 289.241951 
L 77.716869 289.089442 
L 77.716869 289.699481 
L 77.608609 289.699481 
L 77.50035 289.546971 
L 77.39209 289.699481 
L 76.961692 291.375375 
L 77.28383 291.527885 
L 77.608609 291.527885 
L 77.930747 291.375375 
L 78.039007 291.527885 
L 77.716869 292.288721 
L 77.822488 292.441231 
L 77.822488 292.288721 
L 77.930747 292.136211 
L 78.472045 292.136211 
L 78.363785 292.74625 
L 78.472045 292.74625 
L 78.794183 292.441231 
L 78.902443 293.507086 
L 78.794183 293.20378 
L 79.4411 293.659596 
L 79.54936 293.507086 
L 79.335481 293.964615 
L 79.657619 293.964615 
L 79.657619 293.507086 
L 79.765879 293.659596 
L 80.196276 293.964615 
L 80.196276 293.812105 
L 80.304536 294.269635 
L 80.629315 294.117125 
L 80.629315 293.507086 
L 80.629315 293.812105 
L 80.951453 294.422145 
L 81.059712 294.727164 
L 81.167972 294.574655 
L 80.951453 294.422145 
L 80.845834 294.422145 
L 81.059712 294.422145 
L 81.384491 294.574655 
L 81.492751 294.422145 
L 81.492751 293.812105 
L 81.492751 293.812105 
L 81.814889 293.812105 
L 81.923148 293.659596 
L 82.247927 293.659596 
L 82.570065 293.812105 
L 82.894844 293.812105 
L 83.003103 293.35629 
L 82.894844 292.89876 
L 82.678325 292.89876 
L 82.570065 293.05127 
L 82.894844 292.59374 
L 83.541761 292.59374 
L 83.75828 292.74625 
L 83.75828 293.20378 
L 83.974799 293.35629 
L 84.405196 291.831191 
L 84.943854 291.527885 
L 84.943854 290.917846 
L 85.052113 291.070356 
L 85.160373 291.070356 
L 85.268632 290.612826 
L 85.485151 290.765336 
L 85.593411 290.612826 
L 85.485151 290.612826 
L 85.268632 290.612826 
L 85.268632 290.15701 
L 85.376892 290.15701 
L 85.593411 289.699481 
L 85.80729 289.546971 
L 86.023809 289.241951 
L 85.915549 289.394461 
L 85.69903 289.241951 
L 85.376892 289.546971 
L 85.376892 289.241951 
L 85.915549 288.784422 
L 85.915549 287.718567 
L 86.454206 286.957731 
L 86.454206 287.110241 
L 86.348587 287.566057 
L 86.348587 287.871077 
L 86.240328 287.718567 
L 85.915549 286.805221 
L 85.80729 286.500202 
L 85.593411 286.500202 
L 85.376892 286.347692 
L 85.485151 286.195182 
L 85.69903 286.347692 
L 86.132068 286.957731 
L 85.915549 286.500202 
L 85.80729 286.042672 
L 85.915549 286.805221 
L 85.69903 286.805221 
L 86.023809 285.737653 
L 85.593411 285.737653 
L 85.593411 286.042672 
L 85.80729 286.195182 
L 86.132068 286.195182 
L 86.348587 285.737653 
L 86.132068 285.281837 
L 85.80729 285.281837 
L 85.69903 285.585143 
L 85.915549 285.890162 
L 85.69903 285.281837 
L 85.69903 285.129327 
L 85.915549 285.434347 
L 86.023809 286.042672 
L 86.348587 286.652712 
L 86.670726 285.890162 
L 86.454206 285.434347 
L 86.454206 285.585143 
L 86.132068 285.129327 
L 86.348587 285.890162 
L 86.562466 285.737653 
L 86.670726 285.281837 
L 86.454206 284.824307 
L 86.670726 284.824307 
L 86.778985 285.585143 
L 86.670726 285.737653 
L 86.240328 285.737653 
L 86.240328 285.585143 
L 87.103764 285.585143 
L 86.454206 285.585143 
L 86.995504 284.976817 
L 87.209383 284.671797 
L 86.670726 285.281837 
L 86.562466 285.281837 
L 86.887245 285.129327 
L 87.209383 285.281837 
L 86.995504 285.129327 
L 87.103764 284.976817 
L 87.534161 284.824307 
L 87.317642 285.129327 
L 86.887245 285.129327 
L 87.209383 285.281837 
L 87.209383 284.976817 
L 87.534161 284.671797 
L 87.534161 285.585143 
L 87.534161 285.585143 
L 87.85894 284.976817 
L 87.85894 284.671797 
L 87.642421 284.671797 
L 87.425902 284.824307 
L 87.209383 285.281837 
L 87.317642 285.434347 
L 87.9672 284.061758 
L 87.642421 284.366778 
L 87.425902 284.824307 
L 87.534161 285.281837 
L 87.750681 285.281837 
L 87.85894 284.976817 
L 87.750681 284.976817 
L 87.642421 284.976817 
L 87.534161 284.824307 
L 87.425902 284.214268 
L 87.317642 284.214268 
L 87.317642 284.214268 
L 87.9672 285.281837 
L 87.85894 285.129327 
L 87.534161 284.824307 
L 87.750681 284.671797 
L 87.9672 284.214268 
L 87.750681 284.214268 
L 87.425902 284.976817 
L 87.103764 284.976817 
L 86.995504 285.129327 
L 87.103764 284.976817 
L 87.317642 284.366778 
L 88.072819 284.976817 
L 87.642421 284.671797 
L 87.534161 284.061758 
L 87.425902 284.061758 
L 87.425902 284.214268 
L 87.642421 284.214268 
L 87.750681 284.519288 
L 87.642421 285.281837 
L 88.289338 284.519288 
L 88.722376 284.366778 
L 89.152774 284.366778 
L 92.712136 283.453432 
L 97.245835 282.843393 
L 100.050022 281.930048 
L 103.287246 281.014989 
L 111.055529 279.796624 
L 115.803106 279.035788 
L 125.836918 277.207384 
L 130.692755 276.141529 
L 135.440332 275.22647 
L 140.18791 274.618144 
L 144.610708 274.313124 
L 148.711369 274.313124 
L 152.70377 274.465634 
L 156.80179 274.76894 
L 161.01071 275.22647 
L 165.003111 275.22647 
L 168.887252 275.07396 
L 172.771393 275.378979 
L 176.763794 275.531489 
L 180.756195 275.531489 
L 184.640337 275.378979 
L 193.163796 275.378979 
L 197.372716 275.22647 
L 201.470736 275.22647 
L 209.347278 274.92145 
L 213.447939 275.07396 
L 217.548599 274.92145 
L 221.754879 274.465634 
L 225.63902 274.160614 
L 229.201023 274.465634 
L 232.654767 274.618144 
L 241.178226 274.313124 
L 243.443755 274.618144 
L 245.492765 275.22647 
L 248.191333 275.531489 
L 248.946509 275.836509 
L 249.485166 276.292325 
L 249.809945 276.749854 
L 249.915564 277.359894 
L 249.485166 278.730768 
L 249.054769 279.188298 
L 248.62173 279.188298 
L 246.68098 280.559173 
L 246.464461 280.559173 
L 245.601025 281.777538 
L 244.845848 282.235067 
L 244.629329 282.690883 
L 244.52107 283.453432 
L 244.198932 284.519288 
L 244.090672 285.129327 
L 243.765893 285.737653 
L 243.443755 285.737653 
L 243.227236 286.042672 
L 242.902458 286.805221 
L 242.580319 287.110241 
L 242.580319 286.957731 
L 242.580319 286.805221 
L 241.933403 287.871077 
L 241.825143 288.481116 
L 241.392105 288.936932 
L 241.069967 289.089442 
L 239.990012 289.089442 
L 239.990012 289.241951 
L 239.990012 289.241951 
L 239.559614 289.394461 
L 238.912697 289.851991 
L 238.696178 290.460316 
L 238.804438 289.851991 
L 238.26314 290.612826 
L 237.724483 290.765336 
L 237.724483 290.765336 
L 237.724483 291.527885 
L 237.724483 291.222866 
L 237.507963 290.765336 
L 237.294085 290.765336 
L 237.077566 290.917846 
L 236.644527 291.527885 
L 236.430649 291.375375 
L 236.21413 291.375375 
L 236.322389 291.983701 
L 236.538908 291.983701 
L 236.430649 291.680395 
L 236.10587 291.527885 
L 235.783732 291.527885 
L 235.458953 292.136211 
L 235.458953 292.136211 
L 235.675473 292.288721 
L 235.675473 292.74625 
L 235.675473 292.59374 
L 235.458953 292.441231 
L 234.812037 292.74625 
L 234.812037 292.89876 
L 234.920296 292.441231 
L 234.703777 292.59374 
L 234.270739 293.05127 
L 233.948601 293.20378 
L 234.05686 292.74625 
L 234.05686 293.05127 
L 234.16512 293.35629 
L 233.840341 292.74625 
L 233.515562 293.35629 
L 233.948601 292.59374 
L 233.515562 292.288721 
L 232.976905 292.136211 
L 232.976905 292.59374 
L 233.301684 293.05127 
L 233.515562 293.05127 
L 233.623822 292.74625 
L 233.193424 292.288721 
L 233.409943 292.441231 
L 232.976905 293.35629 
L 232.976905 293.20378 
L 232.976905 293.20378 
L 232.546507 292.89876 
L 232.221729 293.35629 
L 232.546507 292.89876 
L 232.654767 292.441231 
L 232.546507 292.59374 
L 232.329988 293.05127 
L 232.438248 293.05127 
L 232.438248 292.74625 
L 232.113469 292.441231 
L 231.89695 292.59374 
L 231.89695 293.35629 
L 231.791331 293.35629 
L 231.358293 293.35629 
L 231.358293 293.659596 
L 231.358293 293.507086 
L 231.141774 293.20378 
L 231.141774 293.35629 
L 231.036155 293.507086 
L 231.358293 292.89876 
L 231.141774 292.59374 
L 230.711376 293.35629 
L 230.927895 293.812105 
L 230.711376 293.964615 
L 230.711376 293.659596 
L 230.927895 293.35629 
L 231.036155 293.507086 
L 230.927895 293.964615 
L 230.711376 293.964615 
L 230.927895 293.35629 
L 230.819636 293.20378 
L 230.819636 293.35629 
L 230.927895 293.812105 
L 230.711376 293.507086 
L 230.494857 293.05127 
L 230.386597 293.20378 
L 230.386597 293.659596 
L 230.494857 293.507086 
L 230.603117 293.507086 
L 230.386597 293.659596 
L 230.064459 293.507086 
L 229.631421 293.20378 
L 229.739681 293.20378 
L 229.739681 294.117125 
L 229.631421 294.117125 
L 229.525802 293.659596 
L 229.631421 293.35629 
L 229.84794 293.20378 
L 229.739681 294.117125 
L 229.417542 294.117125 
L 229.84794 294.422145 
L 229.309283 293.964615 
L 229.309283 294.117125 
L 229.309283 294.574655 
L 229.525802 294.574655 
L 229.631421 294.269635 
L 229.092764 293.507086 
L 229.092764 293.659596 
L 229.092764 294.422145 
L 229.309283 294.574655 
L 229.631421 294.422145 
L 229.309283 294.574655 
L 228.984504 294.574655 
L 228.767985 294.117125 
L 228.662366 294.269635 
L 228.229328 294.879674 
L 228.445847 294.422145 
L 228.337587 294.422145 
L 228.337587 294.574655 
L 228.445847 294.269635 
L 228.554107 294.269635 
L 228.662366 294.879674 
L 228.337587 295.030471 
L 228.554107 294.269635 
L 228.445847 294.269635 
L 228.445847 295.18298 
L 228.554107 294.574655 
L 228.767985 294.422145 
L 228.662366 294.574655 
L 228.554107 295.030471 
L 228.662366 295.33549 
L 228.662366 295.33549 
L 227.90719 294.879674 
L 228.229328 295.030471 
L 228.554107 295.030471 
L 228.662366 294.879674 
L 228.662366 295.030471 
L 228.445847 294.727164 
L 228.662366 295.18298 
L 228.554107 294.879674 
L 228.229328 294.269635 
L 228.229328 294.269635 
L 228.012809 294.574655 
L 227.690671 295.488 
L 227.474152 294.574655 
L 227.365892 294.727164 
L 227.365892 295.030471 
L 227.582411 295.18298 
L 228.121068 294.727164 
L 228.012809 294.879674 
L 227.90719 295.488 
L 227.90719 294.879674 
L 228.012809 294.117125 
L 227.90719 294.117125 
L 227.79893 293.812105 
L 228.012809 294.422145 
L 228.012809 294.422145 
" style="fill:none;stroke:#1f77b4;stroke-linecap:square;stroke-width:1.5;"/>
   </g>
   <g id="matplotlib.axis_1">
    <g id="xtick_1">
     <g id="line2d_2">
      <defs>
       <path d="M 0 0 
L 0 3.5 
" id="mdc0fafcfea" style="stroke:#000000;stroke-width:0.8;"/>
      </defs>
      <g>
       <use style="stroke:#000000;stroke-width:0.8;" x="101.81386" xlink:href="#mdc0fafcfea" y="307.584"/>
      </g>
     </g>
     <g id="text_1">
      <!-- −400 -->
      <defs>
       <path d="M 10.59375 35.5 
L 73.1875 35.5 
L 73.1875 27.203125 
L 10.59375 27.203125 
z
" id="DejaVuSans-8722"/>
       <path d="M 37.796875 64.3125 
L 12.890625 25.390625 
L 37.796875 25.390625 
z
M 35.203125 72.90625 
L 47.609375 72.90625 
L 47.609375 25.390625 
L 58.015625 25.390625 
L 58.015625 17.1875 
L 47.609375 17.1875 
L 47.609375 0 
L 37.796875 0 
L 37.796875 17.1875 
L 4.890625 17.1875 
L 4.890625 26.703125 
z
" id="DejaVuSans-52"/>
       <path d="M 31.78125 66.40625 
Q 24.171875 66.40625 20.328125 58.90625 
Q 16.5 51.421875 16.5 36.375 
Q 16.5 21.390625 20.328125 13.890625 
Q 24.171875 6.390625 31.78125 6.390625 
Q 39.453125 6.390625 43.28125 13.890625 
Q 47.125 21.390625 47.125 36.375 
Q 47.125 51.421875 43.28125 58.90625 
Q 39.453125 66.40625 31.78125 66.40625 
z
M 31.78125 74.21875 
Q 44.046875 74.21875 50.515625 64.515625 
Q 56.984375 54.828125 56.984375 36.375 
Q 56.984375 17.96875 50.515625 8.265625 
Q 44.046875 -1.421875 31.78125 -1.421875 
Q 19.53125 -1.421875 13.0625 8.265625 
Q 6.59375 17.96875 6.59375 36.375 
Q 6.59375 54.828125 13.0625 64.515625 
Q 19.53125 74.21875 31.78125 74.21875 
z
" id="DejaVuSans-48"/>
      </defs>
      <g transform="translate(88.080266 322.182437)scale(0.1 -0.1)">
       <use xlink:href="#DejaVuSans-8722"/>
       <use x="83.789062" xlink:href="#DejaVuSans-52"/>
       <use x="147.412109" xlink:href="#DejaVuSans-48"/>
       <use x="211.035156" xlink:href="#DejaVuSans-48"/>
      </g>
     </g>
    </g>
    <g id="xtick_2">
     <g id="line2d_3">
      <g>
       <use style="stroke:#000000;stroke-width:0.8;" x="154.623396" xlink:href="#mdc0fafcfea" y="307.584"/>
      </g>
     </g>
     <g id="text_2">
      <!-- −200 -->
      <defs>
       <path d="M 19.1875 8.296875 
L 53.609375 8.296875 
L 53.609375 0 
L 7.328125 0 
L 7.328125 8.296875 
Q 12.9375 14.109375 22.625 23.890625 
Q 32.328125 33.6875 34.8125 36.53125 
Q 39.546875 41.84375 41.421875 45.53125 
Q 43.3125 49.21875 43.3125 52.78125 
Q 43.3125 58.59375 39.234375 62.25 
Q 35.15625 65.921875 28.609375 65.921875 
Q 23.96875 65.921875 18.8125 64.3125 
Q 13.671875 62.703125 7.8125 59.421875 
L 7.8125 69.390625 
Q 13.765625 71.78125 18.9375 73 
Q 24.125 74.21875 28.421875 74.21875 
Q 39.75 74.21875 46.484375 68.546875 
Q 53.21875 62.890625 53.21875 53.421875 
Q 53.21875 48.921875 51.53125 44.890625 
Q 49.859375 40.875 45.40625 35.40625 
Q 44.1875 33.984375 37.640625 27.21875 
Q 31.109375 20.453125 19.1875 8.296875 
z
" id="DejaVuSans-50"/>
      </defs>
      <g transform="translate(140.889803 322.182437)scale(0.1 -0.1)">
       <use xlink:href="#DejaVuSans-8722"/>
       <use x="83.789062" xlink:href="#DejaVuSans-50"/>
       <use x="147.412109" xlink:href="#DejaVuSans-48"/>
       <use x="211.035156" xlink:href="#DejaVuSans-48"/>
      </g>
     </g>
    </g>
    <g id="xtick_3">
     <g id="line2d_4">
      <g>
       <use style="stroke:#000000;stroke-width:0.8;" x="207.432933" xlink:href="#mdc0fafcfea" y="307.584"/>
      </g>
     </g>
     <g id="text_3">
      <!-- 0 -->
      <g transform="translate(204.251683 322.182437)scale(0.1 -0.1)">
       <use xlink:href="#DejaVuSans-48"/>
      </g>
     </g>
    </g>
    <g id="xtick_4">
     <g id="line2d_5">
      <g>
       <use style="stroke:#000000;stroke-width:0.8;" x="260.242469" xlink:href="#mdc0fafcfea" y="307.584"/>
      </g>
     </g>
     <g id="text_4">
      <!-- 200 -->
      <g transform="translate(250.698719 322.182437)scale(0.1 -0.1)">
       <use xlink:href="#DejaVuSans-50"/>
       <use x="63.623047" xlink:href="#DejaVuSans-48"/>
       <use x="127.246094" xlink:href="#DejaVuSans-48"/>
      </g>
     </g>
    </g>
    <g id="xtick_5">
     <g id="line2d_6">
      <g>
       <use style="stroke:#000000;stroke-width:0.8;" x="313.052005" xlink:href="#mdc0fafcfea" y="307.584"/>
      </g>
     </g>
     <g id="text_5">
      <!-- 400 -->
      <g transform="translate(303.508255 322.182437)scale(0.1 -0.1)">
       <use xlink:href="#DejaVuSans-52"/>
       <use x="63.623047" xlink:href="#DejaVuSans-48"/>
       <use x="127.246094" xlink:href="#DejaVuSans-48"/>
      </g>
     </g>
    </g>
    <g id="xtick_6">
     <g id="line2d_7">
      <g>
       <use style="stroke:#000000;stroke-width:0.8;" x="365.861541" xlink:href="#mdc0fafcfea" y="307.584"/>
      </g>
     </g>
     <g id="text_6">
      <!-- 600 -->
      <defs>
       <path d="M 33.015625 40.375 
Q 26.375 40.375 22.484375 35.828125 
Q 18.609375 31.296875 18.609375 23.390625 
Q 18.609375 15.53125 22.484375 10.953125 
Q 26.375 6.390625 33.015625 6.390625 
Q 39.65625 6.390625 43.53125 10.953125 
Q 47.40625 15.53125 47.40625 23.390625 
Q 47.40625 31.296875 43.53125 35.828125 
Q 39.65625 40.375 33.015625 40.375 
z
M 52.59375 71.296875 
L 52.59375 62.3125 
Q 48.875 64.0625 45.09375 64.984375 
Q 41.3125 65.921875 37.59375 65.921875 
Q 27.828125 65.921875 22.671875 59.328125 
Q 17.53125 52.734375 16.796875 39.40625 
Q 19.671875 43.65625 24.015625 45.921875 
Q 28.375 48.1875 33.59375 48.1875 
Q 44.578125 48.1875 50.953125 41.515625 
Q 57.328125 34.859375 57.328125 23.390625 
Q 57.328125 12.15625 50.6875 5.359375 
Q 44.046875 -1.421875 33.015625 -1.421875 
Q 20.359375 -1.421875 13.671875 8.265625 
Q 6.984375 17.96875 6.984375 36.375 
Q 6.984375 53.65625 15.1875 63.9375 
Q 23.390625 74.21875 37.203125 74.21875 
Q 40.921875 74.21875 44.703125 73.484375 
Q 48.484375 72.75 52.59375 71.296875 
z
" id="DejaVuSans-54"/>
      </defs>
      <g transform="translate(356.317791 322.182437)scale(0.1 -0.1)">
       <use xlink:href="#DejaVuSans-54"/>
       <use x="63.623047" xlink:href="#DejaVuSans-48"/>
       <use x="127.246094" xlink:href="#DejaVuSans-48"/>
      </g>
     </g>
    </g>
   </g>
   <g id="matplotlib.axis_2">
    <g id="ytick_1">
     <g id="line2d_8">
      <defs>
       <path d="M 0 0 
L -3.5 0 
" id="m20f2d0d4c3" style="stroke:#000000;stroke-width:0.8;"/>
      </defs>
      <g>
       <use style="stroke:#000000;stroke-width:0.8;" x="57.6" xlink:href="#m20f2d0d4c3" y="292.578318"/>
      </g>
     </g>
     <g id="text_7">
      <!-- −600 -->
      <g transform="translate(23.132812 296.377537)scale(0.1 -0.1)">
       <use xlink:href="#DejaVuSans-8722"/>
       <use x="83.789062" xlink:href="#DejaVuSans-54"/>
       <use x="147.412109" xlink:href="#DejaVuSans-48"/>
       <use x="211.035156" xlink:href="#DejaVuSans-48"/>
      </g>
     </g>
    </g>
    <g id="ytick_2">
     <g id="line2d_9">
      <g>
       <use style="stroke:#000000;stroke-width:0.8;" x="57.6" xlink:href="#m20f2d0d4c3" y="258.306447"/>
      </g>
     </g>
     <g id="text_8">
      <!-- −400 -->
      <g transform="translate(23.132812 262.105665)scale(0.1 -0.1)">
       <use xlink:href="#DejaVuSans-8722"/>
       <use x="83.789062" xlink:href="#DejaVuSans-52"/>
       <use x="147.412109" xlink:href="#DejaVuSans-48"/>
       <use x="211.035156" xlink:href="#DejaVuSans-48"/>
      </g>
     </g>
    </g>
    <g id="ytick_3">
     <g id="line2d_10">
      <g>
       <use style="stroke:#000000;stroke-width:0.8;" x="57.6" xlink:href="#m20f2d0d4c3" y="224.034575"/>
      </g>
     </g>
     <g id="text_9">
      <!-- −200 -->
      <g transform="translate(23.132812 227.833794)scale(0.1 -0.1)">
       <use xlink:href="#DejaVuSans-8722"/>
       <use x="83.789062" xlink:href="#DejaVuSans-50"/>
       <use x="147.412109" xlink:href="#DejaVuSans-48"/>
       <use x="211.035156" xlink:href="#DejaVuSans-48"/>
      </g>
     </g>
    </g>
    <g id="ytick_4">
     <g id="line2d_11">
      <g>
       <use style="stroke:#000000;stroke-width:0.8;" x="57.6" xlink:href="#m20f2d0d4c3" y="189.762704"/>
      </g>
     </g>
     <g id="text_10">
      <!-- 0 -->
      <g transform="translate(44.2375 193.561922)scale(0.1 -0.1)">
       <use xlink:href="#DejaVuSans-48"/>
      </g>
     </g>
    </g>
    <g id="ytick_5">
     <g id="line2d_12">
      <g>
       <use style="stroke:#000000;stroke-width:0.8;" x="57.6" xlink:href="#m20f2d0d4c3" y="155.490832"/>
      </g>
     </g>
     <g id="text_11">
      <!-- 200 -->
      <g transform="translate(31.5125 159.290051)scale(0.1 -0.1)">
       <use xlink:href="#DejaVuSans-50"/>
       <use x="63.623047" xlink:href="#DejaVuSans-48"/>
       <use x="127.246094" xlink:href="#DejaVuSans-48"/>
      </g>
     </g>
    </g>
    <g id="ytick_6">
     <g id="line2d_13">
      <g>
       <use style="stroke:#000000;stroke-width:0.8;" x="57.6" xlink:href="#m20f2d0d4c3" y="121.218961"/>
      </g>
     </g>
     <g id="text_12">
      <!-- 400 -->
      <g transform="translate(31.5125 125.018179)scale(0.1 -0.1)">
       <use xlink:href="#DejaVuSans-52"/>
       <use x="63.623047" xlink:href="#DejaVuSans-48"/>
       <use x="127.246094" xlink:href="#DejaVuSans-48"/>
      </g>
     </g>
    </g>
    <g id="ytick_7">
     <g id="line2d_14">
      <g>
       <use style="stroke:#000000;stroke-width:0.8;" x="57.6" xlink:href="#m20f2d0d4c3" y="86.947089"/>
      </g>
     </g>
     <g id="text_13">
      <!-- 600 -->
      <g transform="translate(31.5125 90.746308)scale(0.1 -0.1)">
       <use xlink:href="#DejaVuSans-54"/>
       <use x="63.623047" xlink:href="#DejaVuSans-48"/>
       <use x="127.246094" xlink:href="#DejaVuSans-48"/>
      </g>
     </g>
    </g>
    <g id="ytick_8">
     <g id="line2d_15">
      <g>
       <use style="stroke:#000000;stroke-width:0.8;" x="57.6" xlink:href="#m20f2d0d4c3" y="52.675218"/>
      </g>
     </g>
     <g id="text_14">
      <!-- 800 -->
      <defs>
       <path d="M 31.78125 34.625 
Q 24.75 34.625 20.71875 30.859375 
Q 16.703125 27.09375 16.703125 20.515625 
Q 16.703125 13.921875 20.71875 10.15625 
Q 24.75 6.390625 31.78125 6.390625 
Q 38.8125 6.390625 42.859375 10.171875 
Q 46.921875 13.96875 46.921875 20.515625 
Q 46.921875 27.09375 42.890625 30.859375 
Q 38.875 34.625 31.78125 34.625 
z
M 21.921875 38.8125 
Q 15.578125 40.375 12.03125 44.71875 
Q 8.5 49.078125 8.5 55.328125 
Q 8.5 64.0625 14.71875 69.140625 
Q 20.953125 74.21875 31.78125 74.21875 
Q 42.671875 74.21875 48.875 69.140625 
Q 55.078125 64.0625 55.078125 55.328125 
Q 55.078125 49.078125 51.53125 44.71875 
Q 48 40.375 41.703125 38.8125 
Q 48.828125 37.15625 52.796875 32.3125 
Q 56.78125 27.484375 56.78125 20.515625 
Q 56.78125 9.90625 50.3125 4.234375 
Q 43.84375 -1.421875 31.78125 -1.421875 
Q 19.734375 -1.421875 13.25 4.234375 
Q 6.78125 9.90625 6.78125 20.515625 
Q 6.78125 27.484375 10.78125 32.3125 
Q 14.796875 37.15625 21.921875 38.8125 
z
M 18.3125 54.390625 
Q 18.3125 48.734375 21.84375 45.5625 
Q 25.390625 42.390625 31.78125 42.390625 
Q 38.140625 42.390625 41.71875 45.5625 
Q 45.3125 48.734375 45.3125 54.390625 
Q 45.3125 60.0625 41.71875 63.234375 
Q 38.140625 66.40625 31.78125 66.40625 
Q 25.390625 66.40625 21.84375 63.234375 
Q 18.3125 60.0625 18.3125 54.390625 
z
" id="DejaVuSans-56"/>
      </defs>
      <g transform="translate(31.5125 56.474436)scale(0.1 -0.1)">
       <use xlink:href="#DejaVuSans-56"/>
       <use x="63.623047" xlink:href="#DejaVuSans-48"/>
       <use x="127.246094" xlink:href="#DejaVuSans-48"/>
      </g>
     </g>
    </g>
   </g>
   <g id="line2d_16">
    <path clip-path="url(#p2dc1710ef5)" d="M 394.239619 58.103419 
L 251.231355 99.35289 
L 154.299387 274.646926 
L 85.685374 288.310653 
L 233.832017 290.633924 
" style="fill:none;stroke:#ff0000;stroke-linecap:square;stroke-width:0.5;"/>
   </g>
   <g id="patch_3">
    <path d="M 57.6 307.584 
L 57.6 41.472 
" style="fill:none;stroke:#000000;stroke-linecap:square;stroke-linejoin:miter;stroke-width:0.8;"/>
   </g>
   <g id="patch_4">
    <path d="M 414.72 307.584 
L 414.72 41.472 
" style="fill:none;stroke:#000000;stroke-linecap:square;stroke-linejoin:miter;stroke-width:0.8;"/>
   </g>
   <g id="patch_5">
    <path d="M 57.6 307.584 
L 414.72 307.584 
" style="fill:none;stroke:#000000;stroke-linecap:square;stroke-linejoin:miter;stroke-width:0.8;"/>
   </g>
   <g id="patch_6">
    <path d="M 57.6 41.472 
L 414.72 41.472 
" style="fill:none;stroke:#000000;stroke-linecap:square;stroke-linejoin:miter;stroke-width:0.8;"/>
   </g>
   <g id="PathCollection_1">
    <defs>
     <path d="M 0 2.738613 
C 0.726289 2.738613 1.422928 2.450055 1.936492 1.936492 
C 2.450055 1.422928 2.738613 0.726289 2.738613 0 
C 2.738613 -0.726289 2.450055 -1.422928 1.936492 -1.936492 
C 1.422928 -2.450055 0.726289 -2.738613 0 -2.738613 
C -0.726289 -2.738613 -1.422928 -2.450055 -1.936492 -1.936492 
C -2.450055 -1.422928 -2.738613 -0.726289 -2.738613 0 
C -2.738613 0.726289 -2.450055 1.422928 -1.936492 1.936492 
C -1.422928 2.450055 -0.726289 2.738613 0 2.738613 
z
" id="m19960d1a3c" style="stroke:#ff0000;"/>
    </defs>
    <g clip-path="url(#p2dc1710ef5)">
     <use style="fill:#ff0000;stroke:#ff0000;" x="394.239619" xlink:href="#m19960d1a3c" y="58.103419"/>
     <use style="fill:#ff0000;stroke:#ff0000;" x="251.231355" xlink:href="#m19960d1a3c" y="99.35289"/>
     <use style="fill:#ff0000;stroke:#ff0000;" x="154.299387" xlink:href="#m19960d1a3c" y="274.646926"/>
     <use style="fill:#ff0000;stroke:#ff0000;" x="85.685374" xlink:href="#m19960d1a3c" y="288.310653"/>
     <use style="fill:#ff0000;stroke:#ff0000;" x="233.832017" xlink:href="#m19960d1a3c" y="290.633924"/>
    </g>
   </g>
   <g id="text_15">
    <!-- (44) Subject: s7, Known = False, Degree = 2, Duration = 0.1 -->
    <defs>
     <path d="M 31 75.875 
Q 24.46875 64.65625 21.28125 53.65625 
Q 18.109375 42.671875 18.109375 31.390625 
Q 18.109375 20.125 21.3125 9.0625 
Q 24.515625 -2 31 -13.1875 
L 23.1875 -13.1875 
Q 15.875 -1.703125 12.234375 9.375 
Q 8.59375 20.453125 8.59375 31.390625 
Q 8.59375 42.28125 12.203125 53.3125 
Q 15.828125 64.359375 23.1875 75.875 
z
" id="DejaVuSans-40"/>
     <path d="M 8.015625 75.875 
L 15.828125 75.875 
Q 23.140625 64.359375 26.78125 53.3125 
Q 30.421875 42.28125 30.421875 31.390625 
Q 30.421875 20.453125 26.78125 9.375 
Q 23.140625 -1.703125 15.828125 -13.1875 
L 8.015625 -13.1875 
Q 14.5 -2 17.703125 9.0625 
Q 20.90625 20.125 20.90625 31.390625 
Q 20.90625 42.671875 17.703125 53.65625 
Q 14.5 64.65625 8.015625 75.875 
z
" id="DejaVuSans-41"/>
     <path id="DejaVuSans-32"/>
     <path d="M 53.515625 70.515625 
L 53.515625 60.890625 
Q 47.90625 63.578125 42.921875 64.890625 
Q 37.9375 66.21875 33.296875 66.21875 
Q 25.25 66.21875 20.875 63.09375 
Q 16.5 59.96875 16.5 54.203125 
Q 16.5 49.359375 19.40625 46.890625 
Q 22.3125 44.4375 30.421875 42.921875 
L 36.375 41.703125 
Q 47.40625 39.59375 52.65625 34.296875 
Q 57.90625 29 57.90625 20.125 
Q 57.90625 9.515625 50.796875 4.046875 
Q 43.703125 -1.421875 29.984375 -1.421875 
Q 24.8125 -1.421875 18.96875 -0.25 
Q 13.140625 0.921875 6.890625 3.21875 
L 6.890625 13.375 
Q 12.890625 10.015625 18.65625 8.296875 
Q 24.421875 6.59375 29.984375 6.59375 
Q 38.421875 6.59375 43.015625 9.90625 
Q 47.609375 13.234375 47.609375 19.390625 
Q 47.609375 24.75 44.3125 27.78125 
Q 41.015625 30.8125 33.5 32.328125 
L 27.484375 33.5 
Q 16.453125 35.6875 11.515625 40.375 
Q 6.59375 45.0625 6.59375 53.421875 
Q 6.59375 63.09375 13.40625 68.65625 
Q 20.21875 74.21875 32.171875 74.21875 
Q 37.3125 74.21875 42.625 73.28125 
Q 47.953125 72.359375 53.515625 70.515625 
z
" id="DejaVuSans-83"/>
     <path d="M 8.5 21.578125 
L 8.5 54.6875 
L 17.484375 54.6875 
L 17.484375 21.921875 
Q 17.484375 14.15625 20.5 10.265625 
Q 23.53125 6.390625 29.59375 6.390625 
Q 36.859375 6.390625 41.078125 11.03125 
Q 45.3125 15.671875 45.3125 23.6875 
L 45.3125 54.6875 
L 54.296875 54.6875 
L 54.296875 0 
L 45.3125 0 
L 45.3125 8.40625 
Q 42.046875 3.421875 37.71875 1 
Q 33.40625 -1.421875 27.6875 -1.421875 
Q 18.265625 -1.421875 13.375 4.4375 
Q 8.5 10.296875 8.5 21.578125 
z
M 31.109375 56 
z
" id="DejaVuSans-117"/>
     <path d="M 48.6875 27.296875 
Q 48.6875 37.203125 44.609375 42.84375 
Q 40.53125 48.484375 33.40625 48.484375 
Q 26.265625 48.484375 22.1875 42.84375 
Q 18.109375 37.203125 18.109375 27.296875 
Q 18.109375 17.390625 22.1875 11.75 
Q 26.265625 6.109375 33.40625 6.109375 
Q 40.53125 6.109375 44.609375 11.75 
Q 48.6875 17.390625 48.6875 27.296875 
z
M 18.109375 46.390625 
Q 20.953125 51.265625 25.265625 53.625 
Q 29.59375 56 35.59375 56 
Q 45.5625 56 51.78125 48.09375 
Q 58.015625 40.1875 58.015625 27.296875 
Q 58.015625 14.40625 51.78125 6.484375 
Q 45.5625 -1.421875 35.59375 -1.421875 
Q 29.59375 -1.421875 25.265625 0.953125 
Q 20.953125 3.328125 18.109375 8.203125 
L 18.109375 0 
L 9.078125 0 
L 9.078125 75.984375 
L 18.109375 75.984375 
z
" id="DejaVuSans-98"/>
     <path d="M 9.421875 54.6875 
L 18.40625 54.6875 
L 18.40625 -0.984375 
Q 18.40625 -11.421875 14.421875 -16.109375 
Q 10.453125 -20.796875 1.609375 -20.796875 
L -1.8125 -20.796875 
L -1.8125 -13.1875 
L 0.59375 -13.1875 
Q 5.71875 -13.1875 7.5625 -10.8125 
Q 9.421875 -8.453125 9.421875 -0.984375 
z
M 9.421875 75.984375 
L 18.40625 75.984375 
L 18.40625 64.59375 
L 9.421875 64.59375 
z
" id="DejaVuSans-106"/>
     <path d="M 56.203125 29.59375 
L 56.203125 25.203125 
L 14.890625 25.203125 
Q 15.484375 15.921875 20.484375 11.0625 
Q 25.484375 6.203125 34.421875 6.203125 
Q 39.59375 6.203125 44.453125 7.46875 
Q 49.3125 8.734375 54.109375 11.28125 
L 54.109375 2.78125 
Q 49.265625 0.734375 44.1875 -0.34375 
Q 39.109375 -1.421875 33.890625 -1.421875 
Q 20.796875 -1.421875 13.15625 6.1875 
Q 5.515625 13.8125 5.515625 26.8125 
Q 5.515625 40.234375 12.765625 48.109375 
Q 20.015625 56 32.328125 56 
Q 43.359375 56 49.78125 48.890625 
Q 56.203125 41.796875 56.203125 29.59375 
z
M 47.21875 32.234375 
Q 47.125 39.59375 43.09375 43.984375 
Q 39.0625 48.390625 32.421875 48.390625 
Q 24.90625 48.390625 20.390625 44.140625 
Q 15.875 39.890625 15.1875 32.171875 
z
" id="DejaVuSans-101"/>
     <path d="M 48.78125 52.59375 
L 48.78125 44.1875 
Q 44.96875 46.296875 41.140625 47.34375 
Q 37.3125 48.390625 33.40625 48.390625 
Q 24.65625 48.390625 19.8125 42.84375 
Q 14.984375 37.3125 14.984375 27.296875 
Q 14.984375 17.28125 19.8125 11.734375 
Q 24.65625 6.203125 33.40625 6.203125 
Q 37.3125 6.203125 41.140625 7.25 
Q 44.96875 8.296875 48.78125 10.40625 
L 48.78125 2.09375 
Q 45.015625 0.34375 40.984375 -0.53125 
Q 36.96875 -1.421875 32.421875 -1.421875 
Q 20.0625 -1.421875 12.78125 6.34375 
Q 5.515625 14.109375 5.515625 27.296875 
Q 5.515625 40.671875 12.859375 48.328125 
Q 20.21875 56 33.015625 56 
Q 37.15625 56 41.109375 55.140625 
Q 45.0625 54.296875 48.78125 52.59375 
z
" id="DejaVuSans-99"/>
     <path d="M 18.3125 70.21875 
L 18.3125 54.6875 
L 36.8125 54.6875 
L 36.8125 47.703125 
L 18.3125 47.703125 
L 18.3125 18.015625 
Q 18.3125 11.328125 20.140625 9.421875 
Q 21.96875 7.515625 27.59375 7.515625 
L 36.8125 7.515625 
L 36.8125 0 
L 27.59375 0 
Q 17.1875 0 13.234375 3.875 
Q 9.28125 7.765625 9.28125 18.015625 
L 9.28125 47.703125 
L 2.6875 47.703125 
L 2.6875 54.6875 
L 9.28125 54.6875 
L 9.28125 70.21875 
z
" id="DejaVuSans-116"/>
     <path d="M 11.71875 12.40625 
L 22.015625 12.40625 
L 22.015625 0 
L 11.71875 0 
z
M 11.71875 51.703125 
L 22.015625 51.703125 
L 22.015625 39.3125 
L 11.71875 39.3125 
z
" id="DejaVuSans-58"/>
     <path d="M 44.28125 53.078125 
L 44.28125 44.578125 
Q 40.484375 46.53125 36.375 47.5 
Q 32.28125 48.484375 27.875 48.484375 
Q 21.1875 48.484375 17.84375 46.4375 
Q 14.5 44.390625 14.5 40.28125 
Q 14.5 37.15625 16.890625 35.375 
Q 19.28125 33.59375 26.515625 31.984375 
L 29.59375 31.296875 
Q 39.15625 29.25 43.1875 25.515625 
Q 47.21875 21.78125 47.21875 15.09375 
Q 47.21875 7.46875 41.1875 3.015625 
Q 35.15625 -1.421875 24.609375 -1.421875 
Q 20.21875 -1.421875 15.453125 -0.5625 
Q 10.6875 0.296875 5.421875 2 
L 5.421875 11.28125 
Q 10.40625 8.6875 15.234375 7.390625 
Q 20.0625 6.109375 24.8125 6.109375 
Q 31.15625 6.109375 34.5625 8.28125 
Q 37.984375 10.453125 37.984375 14.40625 
Q 37.984375 18.0625 35.515625 20.015625 
Q 33.0625 21.96875 24.703125 23.78125 
L 21.578125 24.515625 
Q 13.234375 26.265625 9.515625 29.90625 
Q 5.8125 33.546875 5.8125 39.890625 
Q 5.8125 47.609375 11.28125 51.796875 
Q 16.75 56 26.8125 56 
Q 31.78125 56 36.171875 55.265625 
Q 40.578125 54.546875 44.28125 53.078125 
z
" id="DejaVuSans-115"/>
     <path d="M 8.203125 72.90625 
L 55.078125 72.90625 
L 55.078125 68.703125 
L 28.609375 0 
L 18.3125 0 
L 43.21875 64.59375 
L 8.203125 64.59375 
z
" id="DejaVuSans-55"/>
     <path d="M 11.71875 12.40625 
L 22.015625 12.40625 
L 22.015625 4 
L 14.015625 -11.625 
L 7.71875 -11.625 
L 11.71875 4 
z
" id="DejaVuSans-44"/>
     <path d="M 9.8125 72.90625 
L 19.671875 72.90625 
L 19.671875 42.09375 
L 52.390625 72.90625 
L 65.09375 72.90625 
L 28.90625 38.921875 
L 67.671875 0 
L 54.6875 0 
L 19.671875 35.109375 
L 19.671875 0 
L 9.8125 0 
z
" id="DejaVuSans-75"/>
     <path d="M 54.890625 33.015625 
L 54.890625 0 
L 45.90625 0 
L 45.90625 32.71875 
Q 45.90625 40.484375 42.875 44.328125 
Q 39.84375 48.1875 33.796875 48.1875 
Q 26.515625 48.1875 22.3125 43.546875 
Q 18.109375 38.921875 18.109375 30.90625 
L 18.109375 0 
L 9.078125 0 
L 9.078125 54.6875 
L 18.109375 54.6875 
L 18.109375 46.1875 
Q 21.34375 51.125 25.703125 53.5625 
Q 30.078125 56 35.796875 56 
Q 45.21875 56 50.046875 50.171875 
Q 54.890625 44.34375 54.890625 33.015625 
z
" id="DejaVuSans-110"/>
     <path d="M 30.609375 48.390625 
Q 23.390625 48.390625 19.1875 42.75 
Q 14.984375 37.109375 14.984375 27.296875 
Q 14.984375 17.484375 19.15625 11.84375 
Q 23.34375 6.203125 30.609375 6.203125 
Q 37.796875 6.203125 41.984375 11.859375 
Q 46.1875 17.53125 46.1875 27.296875 
Q 46.1875 37.015625 41.984375 42.703125 
Q 37.796875 48.390625 30.609375 48.390625 
z
M 30.609375 56 
Q 42.328125 56 49.015625 48.375 
Q 55.71875 40.765625 55.71875 27.296875 
Q 55.71875 13.875 49.015625 6.21875 
Q 42.328125 -1.421875 30.609375 -1.421875 
Q 18.84375 -1.421875 12.171875 6.21875 
Q 5.515625 13.875 5.515625 27.296875 
Q 5.515625 40.765625 12.171875 48.375 
Q 18.84375 56 30.609375 56 
z
" id="DejaVuSans-111"/>
     <path d="M 4.203125 54.6875 
L 13.1875 54.6875 
L 24.421875 12.015625 
L 35.59375 54.6875 
L 46.1875 54.6875 
L 57.421875 12.015625 
L 68.609375 54.6875 
L 77.59375 54.6875 
L 63.28125 0 
L 52.6875 0 
L 40.921875 44.828125 
L 29.109375 0 
L 18.5 0 
z
" id="DejaVuSans-119"/>
     <path d="M 10.59375 45.40625 
L 73.1875 45.40625 
L 73.1875 37.203125 
L 10.59375 37.203125 
z
M 10.59375 25.484375 
L 73.1875 25.484375 
L 73.1875 17.1875 
L 10.59375 17.1875 
z
" id="DejaVuSans-61"/>
     <path d="M 9.8125 72.90625 
L 51.703125 72.90625 
L 51.703125 64.59375 
L 19.671875 64.59375 
L 19.671875 43.109375 
L 48.578125 43.109375 
L 48.578125 34.8125 
L 19.671875 34.8125 
L 19.671875 0 
L 9.8125 0 
z
" id="DejaVuSans-70"/>
     <path d="M 34.28125 27.484375 
Q 23.390625 27.484375 19.1875 25 
Q 14.984375 22.515625 14.984375 16.5 
Q 14.984375 11.71875 18.140625 8.90625 
Q 21.296875 6.109375 26.703125 6.109375 
Q 34.1875 6.109375 38.703125 11.40625 
Q 43.21875 16.703125 43.21875 25.484375 
L 43.21875 27.484375 
z
M 52.203125 31.203125 
L 52.203125 0 
L 43.21875 0 
L 43.21875 8.296875 
Q 40.140625 3.328125 35.546875 0.953125 
Q 30.953125 -1.421875 24.3125 -1.421875 
Q 15.921875 -1.421875 10.953125 3.296875 
Q 6 8.015625 6 15.921875 
Q 6 25.140625 12.171875 29.828125 
Q 18.359375 34.515625 30.609375 34.515625 
L 43.21875 34.515625 
L 43.21875 35.40625 
Q 43.21875 41.609375 39.140625 45 
Q 35.0625 48.390625 27.6875 48.390625 
Q 23 48.390625 18.546875 47.265625 
Q 14.109375 46.140625 10.015625 43.890625 
L 10.015625 52.203125 
Q 14.9375 54.109375 19.578125 55.046875 
Q 24.21875 56 28.609375 56 
Q 40.484375 56 46.34375 49.84375 
Q 52.203125 43.703125 52.203125 31.203125 
z
" id="DejaVuSans-97"/>
     <path d="M 9.421875 75.984375 
L 18.40625 75.984375 
L 18.40625 0 
L 9.421875 0 
z
" id="DejaVuSans-108"/>
     <path d="M 19.671875 64.796875 
L 19.671875 8.109375 
L 31.59375 8.109375 
Q 46.6875 8.109375 53.6875 14.9375 
Q 60.6875 21.78125 60.6875 36.53125 
Q 60.6875 51.171875 53.6875 57.984375 
Q 46.6875 64.796875 31.59375 64.796875 
z
M 9.8125 72.90625 
L 30.078125 72.90625 
Q 51.265625 72.90625 61.171875 64.09375 
Q 71.09375 55.28125 71.09375 36.53125 
Q 71.09375 17.671875 61.125 8.828125 
Q 51.171875 0 30.078125 0 
L 9.8125 0 
z
" id="DejaVuSans-68"/>
     <path d="M 45.40625 27.984375 
Q 45.40625 37.75 41.375 43.109375 
Q 37.359375 48.484375 30.078125 48.484375 
Q 22.859375 48.484375 18.828125 43.109375 
Q 14.796875 37.75 14.796875 27.984375 
Q 14.796875 18.265625 18.828125 12.890625 
Q 22.859375 7.515625 30.078125 7.515625 
Q 37.359375 7.515625 41.375 12.890625 
Q 45.40625 18.265625 45.40625 27.984375 
z
M 54.390625 6.78125 
Q 54.390625 -7.171875 48.1875 -13.984375 
Q 42 -20.796875 29.203125 -20.796875 
Q 24.46875 -20.796875 20.265625 -20.09375 
Q 16.0625 -19.390625 12.109375 -17.921875 
L 12.109375 -9.1875 
Q 16.0625 -11.328125 19.921875 -12.34375 
Q 23.78125 -13.375 27.78125 -13.375 
Q 36.625 -13.375 41.015625 -8.765625 
Q 45.40625 -4.15625 45.40625 5.171875 
L 45.40625 9.625 
Q 42.625 4.78125 38.28125 2.390625 
Q 33.9375 0 27.875 0 
Q 17.828125 0 11.671875 7.65625 
Q 5.515625 15.328125 5.515625 27.984375 
Q 5.515625 40.671875 11.671875 48.328125 
Q 17.828125 56 27.875 56 
Q 33.9375 56 38.28125 53.609375 
Q 42.625 51.21875 45.40625 46.390625 
L 45.40625 54.6875 
L 54.390625 54.6875 
z
" id="DejaVuSans-103"/>
     <path d="M 41.109375 46.296875 
Q 39.59375 47.171875 37.8125 47.578125 
Q 36.03125 48 33.890625 48 
Q 26.265625 48 22.1875 43.046875 
Q 18.109375 38.09375 18.109375 28.8125 
L 18.109375 0 
L 9.078125 0 
L 9.078125 54.6875 
L 18.109375 54.6875 
L 18.109375 46.1875 
Q 20.953125 51.171875 25.484375 53.578125 
Q 30.03125 56 36.53125 56 
Q 37.453125 56 38.578125 55.875 
Q 39.703125 55.765625 41.0625 55.515625 
z
" id="DejaVuSans-114"/>
     <path d="M 9.421875 54.6875 
L 18.40625 54.6875 
L 18.40625 0 
L 9.421875 0 
z
M 9.421875 75.984375 
L 18.40625 75.984375 
L 18.40625 64.59375 
L 9.421875 64.59375 
z
" id="DejaVuSans-105"/>
     <path d="M 10.6875 12.40625 
L 21 12.40625 
L 21 0 
L 10.6875 0 
z
" id="DejaVuSans-46"/>
     <path d="M 12.40625 8.296875 
L 28.515625 8.296875 
L 28.515625 63.921875 
L 10.984375 60.40625 
L 10.984375 69.390625 
L 28.421875 72.90625 
L 38.28125 72.90625 
L 38.28125 8.296875 
L 54.390625 8.296875 
L 54.390625 0 
L 12.40625 0 
z
" id="DejaVuSans-49"/>
    </defs>
    <g transform="translate(53.559375 35.472)scale(0.12 -0.12)">
     <use xlink:href="#DejaVuSans-40"/>
     <use x="39.013672" xlink:href="#DejaVuSans-52"/>
     <use x="102.636719" xlink:href="#DejaVuSans-52"/>
     <use x="166.259766" xlink:href="#DejaVuSans-41"/>
     <use x="205.273438" xlink:href="#DejaVuSans-32"/>
     <use x="237.060547" xlink:href="#DejaVuSans-83"/>
     <use x="300.537109" xlink:href="#DejaVuSans-117"/>
     <use x="363.916016" xlink:href="#DejaVuSans-98"/>
     <use x="427.392578" xlink:href="#DejaVuSans-106"/>
     <use x="455.175781" xlink:href="#DejaVuSans-101"/>
     <use x="516.699219" xlink:href="#DejaVuSans-99"/>
     <use x="571.679688" xlink:href="#DejaVuSans-116"/>
     <use x="610.888672" xlink:href="#DejaVuSans-58"/>
     <use x="644.580078" xlink:href="#DejaVuSans-32"/>
     <use x="676.367188" xlink:href="#DejaVuSans-115"/>
     <use x="728.466797" xlink:href="#DejaVuSans-55"/>
     <use x="792.089844" xlink:href="#DejaVuSans-44"/>
     <use x="823.876953" xlink:href="#DejaVuSans-32"/>
     <use x="855.664062" xlink:href="#DejaVuSans-75"/>
     <use x="921.240234" xlink:href="#DejaVuSans-110"/>
     <use x="984.619141" xlink:href="#DejaVuSans-111"/>
     <use x="1045.800781" xlink:href="#DejaVuSans-119"/>
     <use x="1127.587891" xlink:href="#DejaVuSans-110"/>
     <use x="1190.966797" xlink:href="#DejaVuSans-32"/>
     <use x="1222.753906" xlink:href="#DejaVuSans-61"/>
     <use x="1306.542969" xlink:href="#DejaVuSans-32"/>
     <use x="1338.330078" xlink:href="#DejaVuSans-70"/>
     <use x="1395.708984" xlink:href="#DejaVuSans-97"/>
     <use x="1456.988281" xlink:href="#DejaVuSans-108"/>
     <use x="1484.771484" xlink:href="#DejaVuSans-115"/>
     <use x="1536.871094" xlink:href="#DejaVuSans-101"/>
     <use x="1598.394531" xlink:href="#DejaVuSans-44"/>
     <use x="1630.181641" xlink:href="#DejaVuSans-32"/>
     <use x="1661.96875" xlink:href="#DejaVuSans-68"/>
     <use x="1738.970703" xlink:href="#DejaVuSans-101"/>
     <use x="1800.494141" xlink:href="#DejaVuSans-103"/>
     <use x="1863.970703" xlink:href="#DejaVuSans-114"/>
     <use x="1905.052734" xlink:href="#DejaVuSans-101"/>
     <use x="1966.576172" xlink:href="#DejaVuSans-101"/>
     <use x="2028.099609" xlink:href="#DejaVuSans-32"/>
     <use x="2059.886719" xlink:href="#DejaVuSans-61"/>
     <use x="2143.675781" xlink:href="#DejaVuSans-32"/>
     <use x="2175.462891" xlink:href="#DejaVuSans-50"/>
     <use x="2239.085938" xlink:href="#DejaVuSans-44"/>
     <use x="2270.873047" xlink:href="#DejaVuSans-32"/>
     <use x="2302.660156" xlink:href="#DejaVuSans-68"/>
     <use x="2379.662109" xlink:href="#DejaVuSans-117"/>
     <use x="2443.041016" xlink:href="#DejaVuSans-114"/>
     <use x="2484.154297" xlink:href="#DejaVuSans-97"/>
     <use x="2545.433594" xlink:href="#DejaVuSans-116"/>
     <use x="2584.642578" xlink:href="#DejaVuSans-105"/>
     <use x="2612.425781" xlink:href="#DejaVuSans-111"/>
     <use x="2673.607422" xlink:href="#DejaVuSans-110"/>
     <use x="2736.986328" xlink:href="#DejaVuSans-32"/>
     <use x="2768.773438" xlink:href="#DejaVuSans-61"/>
     <use x="2852.5625" xlink:href="#DejaVuSans-32"/>
     <use x="2884.349609" xlink:href="#DejaVuSans-48"/>
     <use x="2947.972656" xlink:href="#DejaVuSans-46"/>
     <use x="2979.759766" xlink:href="#DejaVuSans-49"/>
    </g>
   </g>
  </g>
 </g>
 <defs>
  <clipPath id="p2dc1710ef5">
   <rect height="266.112" width="357.12" x="57.6" y="41.472"/>
  </clipPath>
 </defs>
</svg>
