<?xml version="1.0" encoding="utf-8" standalone="no"?>
<!DOCTYPE svg PUBLIC "-//W3C//DTD SVG 1.1//EN"
  "http://www.w3.org/Graphics/SVG/1.1/DTD/svg11.dtd">
<!-- Created with matplotlib (https://matplotlib.org/) -->
<svg height="345.6pt" version="1.1" viewBox="0 0 460.8 345.6" width="460.8pt" xmlns="http://www.w3.org/2000/svg" xmlns:xlink="http://www.w3.org/1999/xlink">
 <defs>
  <style type="text/css">
*{stroke-linecap:butt;stroke-linejoin:round;}
  </style>
 </defs>
 <g id="figure_1">
  <g id="patch_1">
   <path d="M 0 345.6 
L 460.8 345.6 
L 460.8 0 
L 0 0 
z
" style="fill:#ffffff;"/>
  </g>
  <g id="axes_1">
   <g id="patch_2">
    <path d="M 57.6 307.584 
L 414.72 307.584 
L 414.72 41.472 
L 57.6 41.472 
z
" style="fill:#ffffff;"/>
   </g>
   <g id="line2d_1">
    <path clip-path="url(#pf589d98faf)" d="M 242.350208 158.399051 
L 242.097607 158.399051 
L 242.097607 157.975146 
L 242.350208 157.551241 
L 242.855409 158.399051 
L 242.602808 159.246861 
L 241.339804 159.246861 
L 241.087203 158.822956 
L 241.339804 158.399051 
L 241.592405 158.399051 
L 241.087203 157.975146 
L 240.834602 157.551241 
L 241.087203 157.551241 
L 241.339804 158.399051 
L 241.339804 158.822956 
L 240.834602 158.822956 
L 240.329401 157.551241 
L 240.329401 157.551241 
L 239.824199 157.551241 
L 239.824199 156.700268 
L 240.0768 156.276363 
L 240.582001 156.700268 
L 240.834602 157.551241 
L 240.582001 157.124173 
L 240.582001 157.124173 
L 240.582001 155.852458 
L 240.582001 156.700268 
L 240.329401 156.276363 
L 240.582001 156.700268 
L 240.0768 155.004648 
L 240.0768 154.153675 
L 240.582001 154.153675 
L 240.582001 154.57758 
L 240.834602 155.428553 
L 240.582001 156.276363 
L 240.0768 156.276363 
L 240.0768 156.276363 
L 240.329401 156.700268 
L 241.339804 156.700268 
L 241.339804 157.124173 
L 240.834602 157.551241 
L 240.329401 158.399051 
L 239.824199 157.975146 
L 239.824199 157.551241 
L 240.834602 155.852458 
L 240.834602 155.004648 
L 240.329401 154.57758 
L 239.824199 155.428553 
L 239.571598 156.700268 
L 239.318997 157.124173 
L 239.318997 155.852458 
L 239.318997 156.276363 
L 238.561194 156.276363 
L 238.308593 155.428553 
L 238.813795 154.57758 
L 239.066396 155.428553 
L 239.318997 155.852458 
L 239.066396 155.852458 
L 239.066396 155.004648 
L 239.318997 154.153675 
L 239.318997 153.72977 
L 238.813795 154.57758 
L 239.066396 155.004648 
L 239.066396 155.852458 
L 238.308593 155.852458 
L 237.803392 155.428553 
L 237.803392 155.004648 
L 238.308593 154.57758 
L 238.561194 154.153675 
L 238.308593 155.004648 
L 238.561194 155.428553 
L 239.318997 155.428553 
L 239.066396 155.004648 
L 238.561194 155.004648 
L 238.813795 155.428553 
L 240.0768 155.428553 
L 239.824199 155.428553 
L 239.318997 155.852458 
L 238.813795 156.700268 
L 238.813795 157.124173 
L 238.813795 155.004648 
L 238.813795 155.428553 
L 239.066396 155.852458 
L 239.318997 155.852458 
L 239.318997 155.852458 
L 240.0768 154.57758 
L 240.0768 154.153675 
L 239.318997 154.153675 
L 239.318997 153.72977 
L 239.571598 152.88196 
L 239.571598 152.88196 
L 239.066396 154.153675 
L 238.561194 155.004648 
L 238.055993 155.428553 
L 238.055993 155.004648 
L 238.561194 153.305865 
L 238.055993 153.305865 
L 237.550791 153.72977 
L 237.550791 154.153675 
L 238.055993 154.153675 
L 238.055993 154.153675 
L 238.055993 152.88196 
L 238.308593 153.305865 
L 238.055993 154.153675 
L 238.308593 154.57758 
L 238.308593 154.57758 
L 237.550791 154.57758 
L 237.550791 154.153675 
L 238.561194 152.88196 
L 238.308593 153.72977 
L 237.29819 153.72977 
L 237.550791 154.153675 
L 238.055993 154.57758 
L 238.308593 154.57758 
L 238.055993 154.153675 
L 237.550791 154.153675 
L 237.29819 154.57758 
L 237.550791 155.004648 
L 237.803392 154.57758 
L 237.550791 154.153675 
L 237.550791 155.004648 
L 237.803392 155.852458 
L 238.308593 155.428553 
L 238.813795 154.57758 
L 238.561194 153.305865 
L 238.055993 152.458055 
L 237.550791 152.030987 
L 237.29819 152.458055 
L 237.29819 152.88196 
L 237.550791 152.88196 
L 237.803392 152.458055 
L 238.308593 152.030987 
L 238.055993 151.607082 
L 237.803392 151.607082 
L 237.803392 152.030987 
L 238.055993 153.305865 
L 238.055993 154.57758 
L 237.550791 155.004648 
L 237.045589 155.004648 
L 237.045589 154.153675 
L 237.29819 153.305865 
L 237.550791 153.305865 
L 238.308593 154.57758 
L 238.055993 153.305865 
L 237.803392 152.88196 
L 237.29819 153.72977 
L 237.045589 153.72977 
L 237.29819 152.88196 
L 237.803392 152.88196 
L 237.803392 154.153675 
L 237.550791 155.004648 
L 237.045589 155.004648 
L 236.540387 153.72977 
L 236.540387 152.88196 
L 236.287786 152.030987 
L 236.287786 151.607082 
L 236.287786 151.607082 
L 236.540387 152.030987 
L 236.792988 152.030987 
L 237.29819 152.88196 
L 237.550791 152.88196 
L 237.550791 152.88196 
L 237.550791 153.305865 
L 237.550791 152.88196 
L 237.29819 152.458055 
L 237.29819 152.458055 
L 237.29819 152.88196 
L 237.550791 152.458055 
L 237.550791 151.607082 
L 237.803392 152.030987 
L 237.29819 152.458055 
L 237.045589 152.030987 
L 237.045589 152.030987 
L 237.550791 152.458055 
L 237.550791 152.88196 
L 237.29819 152.458055 
L 237.550791 151.607082 
L 237.29819 151.183177 
L 236.792988 151.607082 
L 237.045589 152.88196 
L 237.550791 153.72977 
L 237.29819 154.153675 
L 236.792988 153.72977 
L 236.540387 152.88196 
L 236.540387 153.72977 
L 236.035185 154.153675 
L 235.529984 153.72977 
L 235.782585 152.88196 
L 236.540387 152.458055 
L 236.792988 152.88196 
L 236.792988 153.305865 
L 236.540387 153.305865 
L 236.792988 154.153675 
L 237.045589 155.428553 
L 237.29819 155.004648 
L 237.045589 154.153675 
L 236.792988 153.72977 
L 237.045589 154.153675 
L 237.29819 153.72977 
L 237.550791 153.72977 
L 237.803392 154.57758 
L 237.803392 155.004648 
L 237.550791 154.57758 
L 237.29819 153.305865 
L 237.29819 153.72977 
L 236.792988 154.153675 
L 236.792988 154.153675 
L 237.550791 152.88196 
L 238.055993 153.305865 
L 238.055993 155.428553 
L 238.055993 155.428553 
L 238.308593 155.004648 
L 238.308593 154.57758 
L 238.055993 153.72977 
L 237.550791 153.72977 
L 237.045589 154.153675 
L 236.792988 155.004648 
L 236.287786 155.004648 
L 236.287786 155.004648 
L 236.287786 155.428553 
L 236.287786 155.004648 
L 237.045589 155.428553 
L 237.29819 155.428553 
L 237.29819 154.153675 
L 237.550791 153.305865 
L 237.550791 153.72977 
L 237.045589 155.004648 
L 237.045589 157.124173 
L 237.29819 156.276363 
L 237.550791 154.57758 
L 237.550791 155.004648 
L 237.550791 155.852458 
L 237.803392 156.276363 
L 237.803392 156.276363 
L 237.550791 155.428553 
L 237.803392 155.004648 
L 238.055993 155.004648 
L 237.550791 155.428553 
L 236.792988 155.852458 
L 237.045589 156.276363 
L 237.803392 156.276363 
L 237.803392 156.700268 
L 238.055993 156.700268 
L 238.055993 156.700268 
L 237.29819 156.276363 
L 237.045589 156.276363 
L 238.055993 154.57758 
L 238.308593 155.004648 
L 238.055993 155.852458 
L 237.550791 157.124173 
L 236.540387 157.975146 
L 236.540387 157.551241 
L 236.792988 157.124173 
L 237.803392 157.124173 
L 238.055993 156.700268 
L 237.550791 155.852458 
L 237.045589 154.57758 
L 237.803392 156.276363 
L 237.803392 157.124173 
L 237.550791 156.700268 
L 237.29819 155.852458 
L 236.792988 155.852458 
L 236.287786 157.124173 
L 236.540387 157.124173 
L 236.792988 156.700268 
L 237.045589 156.700268 
L 237.045589 156.700268 
L 237.045589 155.852458 
L 237.550791 155.852458 
L 238.308593 156.276363 
L 238.308593 155.852458 
L 238.055993 155.004648 
L 237.550791 155.428553 
L 237.29819 156.276363 
L 237.045589 156.700268 
L 237.045589 157.124173 
L 237.045589 157.124173 
L 238.055993 158.822956 
L 238.055993 158.822956 
L 237.550791 159.246861 
L 236.792988 159.246861 
L 236.792988 158.822956 
L 237.29819 158.399051 
L 237.29819 157.975146 
L 236.792988 158.822956 
L 237.29819 157.975146 
L 237.29819 157.124173 
L 237.045589 156.700268 
L 236.540387 156.700268 
L 236.792988 156.700268 
L 237.045589 157.124173 
L 237.045589 157.975146 
L 236.540387 159.670766 
L 236.540387 158.399051 
L 236.792988 157.551241 
L 237.29819 157.975146 
L 238.813795 157.975146 
L 239.318997 158.399051 
L 239.824199 159.246861 
L 240.329401 159.246861 
L 241.339804 158.399051 
L 242.602808 157.551241 
L 244.623616 157.975146 
L 247.907427 157.975146 
L 249.675633 157.551241 
L 252.204614 158.399051 
L 256.75143 159.246861 
L 258.772237 160.097834 
L 261.045645 161.369549 
L 264.076856 161.793454 
L 267.61624 161.793454 
L 274.436464 162.644427 
L 277.972876 162.644427 
L 281.764861 161.793454 
L 285.048673 161.369549 
L 288.332484 161.793454 
L 291.868897 161.793454 
L 294.900107 162.217359 
L 297.93429 161.793454 
L 300.9655 160.945644 
L 304.501913 160.097834 
L 308.038325 160.097834 
L 311.577709 160.945644 
L 315.114122 161.369549 
L 318.650534 161.369549 
L 321.429144 160.945644 
L 323.955153 159.670766 
L 326.989335 158.822956 
L 330.273146 158.822956 
L 333.304357 158.399051 
L 335.830366 157.551241 
L 340.632755 155.004648 
L 345.179571 154.153675 
L 348.715983 154.153675 
L 350.231588 154.57758 
L 351.241992 154.57758 
L 351.999794 154.153675 
L 352.504996 153.72977 
L 352.504996 153.72977 
L 351.747194 154.153675 
L 351.241992 154.57758 
L 350.73679 155.428553 
L 348.715983 157.551241 
L 347.705579 158.399051 
L 347.200378 159.670766 
L 347.200378 160.521739 
L 346.695176 161.369549 
L 345.432171 162.644427 
L 344.674369 162.644427 
L 344.421768 163.068332 
L 344.674369 163.492237 
L 344.674369 163.492237 
L 344.92697 164.340047 
L 345.179571 164.763952 
L 345.432171 163.916142 
L 345.179571 163.068332 
L 344.92697 163.068332 
L 344.674369 163.492237 
L 344.92697 163.916142 
L 344.421768 164.763952 
L 343.411364 168.161518 
L 343.411364 168.161518 
L 343.411364 166.88664 
L 343.411364 169.009328 
L 343.158763 169.009328 
L 342.653562 169.433232 
L 342.400961 170.281042 
L 342.653562 170.708111 
L 342.906163 171.55592 
L 342.653562 171.979825 
L 342.14836 171.979825 
L 341.895759 172.40373 
L 342.400961 172.40373 
L 342.400961 171.55592 
L 341.895759 171.979825 
L 341.643158 172.827635 
L 341.390557 172.827635 
L 341.390557 172.40373 
L 341.137956 172.40373 
L 341.137956 172.827635 
L 341.390557 173.678608 
L 341.390557 174.102513 
L 340.885355 174.102513 
L 340.885355 174.526418 
L 340.632755 174.950323 
L 340.632755 174.950323 
L 340.127553 175.374228 
L 339.874952 175.801296 
L 340.380154 175.801296 
L 341.137956 175.374228 
L 341.390557 174.950323 
L 340.885355 174.526418 
L 340.127553 175.374228 
L 339.874952 176.225201 
L 340.127553 175.801296 
L 340.632755 175.374228 
L 340.885355 175.374228 
L 340.885355 174.950323 
L 340.380154 174.950323 
L 340.380154 175.801296 
L 340.632755 176.649106 
L 340.380154 177.073011 
L 340.127553 177.073011 
L 339.874952 177.920821 
L 339.874952 178.347889 
L 340.127553 178.771794 
L 340.127553 178.771794 
L 340.127553 179.195699 
L 339.874952 179.619604 
L 340.127553 179.619604 
L 340.127553 178.771794 
L 339.874952 178.347889 
L 340.380154 178.771794 
L 340.632755 179.195699 
L 340.632755 180.043509 
L 340.885355 180.467414 
L 341.137956 180.043509 
L 341.390557 179.195699 
L 341.390557 179.619604 
L 340.885355 180.043509 
L 340.380154 180.043509 
L 340.380154 180.043509 
L 340.885355 179.195699 
L 340.632755 179.195699 
L 340.127553 180.467414 
L 340.127553 181.318387 
L 340.127553 181.318387 
L 339.874952 180.894482 
L 339.619379 180.043509 
L 339.619379 180.467414 
L 339.366778 180.894482 
L 339.366778 181.742292 
L 339.619379 181.742292 
L 340.127553 182.166197 
L 340.380154 182.166197 
L 340.127553 181.742292 
L 339.874952 181.742292 
L 339.366778 182.166197 
L 339.619379 182.590102 
L 339.874952 182.166197 
L 339.874952 181.742292 
L 339.366778 182.166197 
L 339.114177 182.590102 
L 339.366778 183.441075 
L 339.874952 184.288885 
L 340.127553 184.288885 
L 339.874952 183.86498 
L 339.874952 183.86498 
L 340.127553 183.86498 
L 340.127553 183.86498 
L 339.619379 184.288885 
L 339.114177 184.288885 
L 339.619379 184.288885 
L 340.127553 184.71279 
L 340.380154 185.136695 
L 340.380154 183.86498 
L 340.380154 184.288885 
L 340.127553 185.987668 
L 340.380154 186.835478 
L 340.380154 186.835478 
L 340.380154 186.411573 
L 340.127553 186.411573 
L 339.874952 186.835478 
L 340.127553 187.683288 
L 340.127553 188.531098 
L 340.632755 185.5606 
L 340.885355 185.136695 
L 340.885355 185.5606 
L 340.632755 185.987668 
L 340.632755 186.411573 
L 340.885355 186.835478 
L 341.643158 186.835478 
L 342.14836 187.259383 
L 342.653562 188.107193 
L 342.653562 186.835478 
L 341.895759 188.107193 
L 341.643158 188.958166 
L 341.137956 188.958166 
L 340.380154 188.531098 
L 339.874952 188.531098 
L 339.114177 189.382071 
L 338.103774 190.229881 
L 336.84077 191.07769 
L 335.325164 191.504759 
L 333.809559 191.504759 
L 332.041353 192.776474 
L 325.47373 199.992347 
L 323.19735 200.840157 
L 320.671341 202.115035 
L 311.577709 207.632126 
L 307.027921 210.178719 
L 302.481105 212.301407 
L 298.18689 213.997027 
L 294.142304 216.119715 
L 289.848089 219.090213 
L 285.553874 221.636805 
L 281.764861 222.911684 
L 277.215073 224.183398 
L 272.163056 225.458277 
L 266.858437 227.577801 
L 247.654826 237.340268 
L 237.045589 241.585644 
L 223.402169 247.950544 
L 219.357583 249.649328 
L 215.56857 252.19592 
L 211.779557 255.166418 
L 207.990544 257.713011 
L 204.451159 259.411794 
L 197.630935 261.958387 
L 195.104927 264.081075 
L 193.08412 265.35279 
L 190.810712 266.2006 
L 186.260924 266.2006 
L 185.503121 266.624505 
L 184.492718 269.171098 
L 184.492718 270.022071 
L 184.745319 270.445976 
L 185.755722 270.445976 
L 187.271327 268.747193 
L 188.02913 268.323288 
L 188.786933 268.747193 
L 189.039534 269.598166 
L 189.039534 269.598166 
L 189.039534 269.171098 
L 189.544735 269.171098 
L 189.797336 269.598166 
L 190.302538 270.022071 
L 190.302538 270.445976 
L 190.049937 270.022071 
L 190.049937 270.869881 
L 189.797336 271.293786 
L 189.292134 270.869881 
L 189.039534 271.293786 
L 189.292134 271.71769 
L 189.544735 271.293786 
L 189.544735 270.869881 
L 189.292134 271.293786 
L 189.039534 272.144759 
L 189.039534 272.568664 
L 188.786933 271.71769 
L 188.281731 270.869881 
L 188.02913 272.144759 
L 188.281731 273.840378 
L 188.281731 273.416474 
L 188.281731 272.568664 
L 189.039534 272.992569 
L 189.797336 274.264283 
L 189.797336 275.115257 
L 189.292134 275.115257 
L 188.534332 274.691352 
L 188.281731 274.691352 
L 188.02913 275.115257 
L 188.02913 275.539162 
L 188.02913 275.115257 
L 188.281731 274.264283 
L 188.02913 275.115257 
L 187.271327 275.115257 
L 187.018727 274.264283 
L 187.776529 273.840378 
L 188.281731 274.691352 
L 188.534332 275.539162 
L 188.534332 275.963066 
L 188.534332 275.963066 
L 188.281731 276.386971 
L 188.534332 275.963066 
L 188.786933 275.963066 
L 188.281731 276.810876 
L 188.02913 276.810876 
L 188.02913 276.386971 
L 188.281731 275.115257 
L 188.786933 274.691352 
L 189.039534 275.539162 
L 188.786933 277.237945 
L 188.786933 278.509659 
L 189.292134 277.66185 
L 189.292134 276.386971 
L 188.786933 275.963066 
L 188.281731 276.386971 
L 188.02913 276.810876 
L 188.281731 277.237945 
L 189.039534 276.810876 
L 189.039534 276.386971 
L 188.534332 276.386971 
L 188.534332 275.539162 
L 188.281731 274.691352 
L 187.776529 275.115257 
L 188.02913 275.963066 
L 188.534332 276.386971 
L 189.544735 277.66185 
L 189.039534 278.085755 
L 188.534332 277.237945 
L 188.281731 276.386971 
L 187.776529 276.386971 
L 188.281731 276.810876 
L 188.786933 276.810876 
L 189.039534 277.66185 
L 189.292134 277.237945 
L 189.544735 276.386971 
L 189.544735 275.539162 
L 189.039534 275.539162 
L 188.786933 276.386971 
L 188.786933 276.810876 
L 188.534332 276.810876 
L 188.534332 276.386971 
L 188.786933 276.386971 
L 188.281731 276.386971 
L 188.281731 275.963066 
L 188.786933 275.539162 
L 189.039534 275.115257 
L 188.534332 275.115257 
L 188.02913 275.539162 
L 188.02913 276.386971 
L 188.786933 277.237945 
L 190.049937 277.237945 
L 189.544735 277.66185 
L 188.786933 278.933564 
L 188.786933 278.933564 
L 188.786933 278.509659 
L 188.534332 278.085755 
L 188.534332 276.810876 
L 189.039534 276.386971 
L 189.039534 276.386971 
L 189.292134 276.810876 
L 189.292134 276.810876 
L 189.544735 276.810876 
L 189.039534 277.66185 
L 189.039534 277.66185 
L 189.039534 276.386971 
L 189.292134 275.539162 
L 189.797336 276.386971 
L 189.797336 275.539162 
L 189.544735 275.115257 
L 189.292134 275.115257 
L 189.544735 275.539162 
L 190.049937 275.115257 
L 190.049937 274.691352 
L 189.797336 274.691352 
L 189.544735 275.115257 
L 189.797336 275.115257 
L 190.049937 274.691352 
L 190.049937 272.992569 
L 190.302538 273.416474 
L 190.302538 274.691352 
L 189.797336 275.963066 
L 188.786933 276.386971 
L 187.018727 276.386971 
L 185.503121 276.810876 
L 184.492718 276.810876 
L 183.229713 277.66185 
L 181.714108 278.509659 
L 179.693301 278.933564 
L 171.859702 282.331131 
L 170.091495 283.602845 
L 168.57589 284.02675 
L 168.57589 283.602845 
L 168.070688 282.755035 
L 167.565487 283.17894 
L 167.565487 284.02675 
L 167.312886 284.02675 
L 167.565487 282.755035 
L 167.818087 280.632347 
L 168.323289 279.357469 
L 168.828491 279.357469 
L 169.838895 278.509659 
L 170.344096 278.509659 
L 170.344096 279.784538 
L 170.344096 279.784538 
L 170.091495 278.933564 
L 169.333693 278.085755 
L 169.333693 278.085755 
L 169.081092 278.085755 
L 169.333693 278.085755 
L 170.091495 278.509659 
L 170.091495 278.509659 
L 169.586294 278.509659 
L 169.081092 278.085755 
L 169.333693 277.237945 
L 169.838895 277.237945 
L 169.838895 279.357469 
L 169.586294 279.357469 
L 169.333693 278.933564 
L 169.838895 277.237945 
L 170.344096 277.237945 
L 170.596697 277.66185 
L 170.091495 278.509659 
L 169.838895 278.509659 
L 169.838895 277.66185 
L 170.091495 277.237945 
L 169.081092 278.085755 
L 169.586294 277.66185 
L 169.838895 277.237945 
L 169.586294 276.810876 
L 168.828491 276.386971 
L 168.57589 276.386971 
L 168.57589 277.237945 
L 168.070688 277.237945 
L 168.57589 277.66185 
L 169.333693 278.085755 
L 169.586294 277.66185 
L 169.081092 277.237945 
L 168.070688 276.810876 
L 167.818087 276.386971 
L 168.57589 275.963066 
L 168.828491 276.386971 
L 169.081092 277.237945 
L 169.081092 277.66185 
L 168.828491 276.810876 
L 168.323289 275.963066 
L 168.070688 275.963066 
L 168.323289 276.810876 
L 168.57589 276.810876 
L 168.828491 277.237945 
L 168.828491 277.237945 
L 168.57589 277.237945 
L 168.57589 276.386971 
L 168.323289 275.963066 
L 168.323289 275.539162 
L 168.828491 275.115257 
L 169.081092 275.539162 
L 169.333693 275.539162 
L 169.333693 275.115257 
L 169.081092 275.115257 
L 168.57589 275.539162 
L 167.818087 275.539162 
L 167.818087 275.963066 
L 168.57589 275.963066 
L 169.081092 275.539162 
L 169.586294 274.691352 
L 169.586294 274.264283 
L 169.333693 275.115257 
L 168.828491 275.115257 
L 168.828491 275.115257 
L 169.081092 274.691352 
L 169.333693 274.691352 
L 169.333693 274.691352 
L 169.081092 275.115257 
L 168.828491 275.115257 
L 169.081092 275.539162 
L 169.586294 275.115257 
L 169.586294 273.416474 
L 169.081092 273.840378 
L 168.828491 274.691352 
L 169.081092 275.115257 
L 169.586294 275.115257 
L 169.838895 275.539162 
L 169.333693 276.386971 
L 169.586294 275.963066 
L 169.586294 275.115257 
L 169.838895 274.264283 
L 169.838895 274.691352 
L 169.333693 275.539162 
L 169.333693 275.963066 
L 169.333693 275.539162 
L 169.081092 275.115257 
L 169.081092 274.264283 
L 169.586294 273.840378 
L 170.091495 272.992569 
L 170.091495 272.992569 
L 169.586294 272.992569 
L 169.838895 272.992569 
L 170.344096 273.840378 
L 170.344096 274.691352 
L 169.333693 275.539162 
L 169.333693 275.539162 
L 169.333693 275.963066 
L 169.586294 275.963066 
L 169.333693 276.386971 
L 168.828491 276.386971 
L 168.57589 275.963066 
L 169.081092 274.691352 
L 169.586294 274.264283 
L 169.838895 274.691352 
L 170.091495 275.539162 
L 170.344096 275.539162 
L 170.091495 274.691352 
L 169.586294 274.264283 
L 170.344096 276.810876 
L 170.596697 276.386971 
L 170.849298 275.115257 
L 170.596697 275.115257 
L 170.091495 275.539162 
L 170.091495 275.963066 
L 169.838895 275.115257 
L 169.838895 273.840378 
L 170.344096 274.691352 
L 170.344096 273.416474 
L 170.091495 273.416474 
L 169.838895 274.264283 
L 170.091495 274.691352 
L 170.091495 274.264283 
L 169.586294 273.416474 
L 169.838895 272.992569 
L 170.091495 273.416474 
L 170.091495 272.992569 
L 169.838895 272.992569 
L 170.091495 273.416474 
L 170.091495 274.691352 
L 169.838895 274.691352 
L 169.586294 275.539162 
L 169.838895 276.386971 
L 170.091495 275.963066 
L 169.838895 275.539162 
L 169.838895 275.539162 
L 170.091495 275.539162 
L 170.091495 274.691352 
L 169.586294 274.264283 
L 169.333693 273.416474 
L 169.838895 272.992569 
L 170.091495 272.568664 
L 170.344096 272.568664 
L 170.344096 272.568664 
L 170.344096 271.293786 
L 170.091495 271.293786 
L 169.333693 272.568664 
L 169.333693 273.416474 
L 169.586294 273.840378 
L 170.091495 273.840378 
L 169.838895 273.840378 
L 169.586294 273.416474 
L 169.838895 273.840378 
L 170.091495 274.691352 
L 170.091495 274.691352 
L 169.838895 274.264283 
L 169.838895 273.840378 
L 169.586294 272.992569 
L 169.586294 271.71769 
L 169.838895 271.71769 
L 170.091495 272.568664 
L 170.091495 272.992569 
L 169.586294 272.568664 
L 169.586294 272.568664 
L 169.586294 272.144759 
L 169.838895 271.71769 
L 169.838895 273.416474 
L 169.586294 273.840378 
L 169.333693 273.416474 
L 169.838895 273.416474 
L 169.838895 273.840378 
L 169.838895 273.416474 
L 170.091495 273.416474 
L 170.596697 273.840378 
L 170.849298 273.416474 
L 171.101899 272.144759 
L 171.859702 271.71769 
L 177.419893 269.598166 
L 179.693301 268.323288 
L 181.966709 266.624505 
L 188.786933 263.654007 
L 197.378335 258.560821 
L 210.769153 250.073232 
L 219.610184 245.83102 
L 223.65477 243.284427 
L 227.696384 241.585644 
L 236.792988 237.340268 
L 245.88662 233.945865 
L 250.436408 232.670987 
L 264.076856 227.577801 
L 268.626643 224.607303 
L 273.678661 222.06071 
L 279.488481 219.941186 
L 284.796072 217.818498 
L 290.10069 216.54362 
L 295.408281 214.420932 
L 300.9655 211.450434 
L 306.775321 208.056031 
L 311.83031 205.509438 
L 316.629727 202.962845 
L 321.429144 200.840157 
L 326.484133 199.568443 
L 331.28355 197.869659 
L 335.577765 195.323066 
L 339.874952 191.928664 
L 344.674369 190.229881 
L 352.757597 188.531098 
L 360.085995 185.987668 
L 363.622407 185.136695 
L 370.698204 181.742292 
L 380.549638 177.920821 
L 385.857228 175.374228 
L 387.878036 174.950323 
L 389.646242 175.374228 
L 390.404044 174.526418 
L 390.656645 173.254704 
L 390.909246 172.827635 
L 390.909246 173.254704 
L 390.656645 174.102513 
L 389.646242 174.526418 
L 387.625435 176.225201 
L 385.857228 176.225201 
L 384.338651 175.801296 
L 383.328248 176.225201 
L 382.823046 177.073011 
L 382.065243 177.920821 
L 380.549638 178.771794 
L 380.044436 180.043509 
L 380.044436 180.894482 
L 380.802239 180.894482 
L 379.539235 183.014007 
L 379.286634 183.86498 
L 379.034033 183.86498 
L 378.781432 183.014007 
L 378.781432 182.590102 
L 379.539235 182.590102 
L 379.791835 183.014007 
L 379.539235 183.86498 
L 379.034033 183.014007 
L 378.781432 184.288885 
L 378.023629 186.835478 
L 377.771028 186.835478 
L 377.771028 185.987668 
L 377.265827 185.136695 
L 376.760625 184.71279 
L 376.508024 184.288885 
L 376.508024 184.71279 
L 375.49762 186.411573 
L 375.49762 187.259383 
L 374.992419 187.683288 
L 374.992419 187.683288 
L 376.002822 187.683288 
L 376.255423 187.259383 
L 376.002822 187.259383 
L 376.002822 187.683288 
L 375.750221 187.259383 
L 375.49762 187.259383 
L 375.49762 187.683288 
L 375.245019 188.107193 
L 375.49762 187.683288 
L 375.49762 186.835478 
L 374.739818 188.107193 
L 374.739818 188.531098 
L 374.234616 188.531098 
L 373.729414 188.958166 
L 373.476813 189.382071 
L 373.982015 188.531098 
L 373.982015 188.958166 
L 373.729414 189.805976 
L 373.476813 190.229881 
L 373.729414 190.229881 
L 374.234616 189.382071 
L 373.982015 188.958166 
L 373.476813 188.958166 
L 373.476813 191.07769 
L 373.476813 191.07769 
L 373.224212 190.653786 
L 372.719011 190.229881 
L 372.719011 190.653786 
L 372.971611 191.504759 
L 373.476813 191.928664 
L 373.729414 191.504759 
L 373.729414 191.928664 
L 373.224212 191.928664 
L 372.971611 191.504759 
L 372.971611 191.504759 
L 372.719011 191.928664 
L 372.719011 192.776474 
L 373.224212 193.200378 
L 373.476813 191.928664 
L 373.476813 190.653786 
L 373.476813 191.07769 
L 373.224212 191.928664 
L 373.224212 192.776474 
L 372.971611 193.200378 
L 372.46641 193.200378 
L 372.213809 193.624283 
L 372.719011 193.624283 
L 372.971611 193.200378 
L 372.971611 192.352569 
L 372.719011 191.928664 
L 372.719011 191.928664 
L 372.46641 191.928664 
L 372.213809 192.352569 
L 372.213809 193.200378 
L 372.46641 193.200378 
L 372.719011 192.776474 
L 371.961208 192.776474 
L 371.961208 192.352569 
L 371.708607 192.352569 
L 371.961208 192.776474 
L 372.46641 192.776474 
L 372.719011 192.352569 
L 371.961208 193.624283 
L 371.708607 193.200378 
L 371.708607 192.776474 
L 370.445603 192.776474 
L 370.445603 192.776474 
L 371.456006 193.624283 
L 371.456006 193.624283 
L 370.950804 193.624283 
L 371.203405 193.624283 
L 372.213809 192.776474 
L 371.708607 192.776474 
L 371.203405 193.200378 
L 370.445603 193.624283 
L 370.193002 193.624283 
L 370.698204 193.624283 
L 371.203405 194.051352 
L 371.456006 193.624283 
L 371.708607 194.051352 
L 371.961208 194.899162 
L 371.456006 194.899162 
L 370.445603 194.051352 
L 370.193002 193.200378 
L 370.445603 193.624283 
L 370.698204 194.475257 
L 370.698204 194.899162 
L 370.950804 194.899162 
L 371.203405 194.051352 
L 371.456006 193.624283 
L 371.203405 194.051352 
L 370.950804 194.899162 
L 370.950804 196.597945 
L 370.445603 196.170876 
L 369.940401 196.170876 
L 370.950804 196.170876 
L 370.445603 195.323066 
L 370.445603 194.051352 
L 369.940401 193.624283 
L 369.6878 193.624283 
L 369.6878 193.200378 
L 370.445603 192.352569 
L 370.698204 192.776474 
L 370.698204 193.624283 
L 370.193002 194.051352 
L 369.6878 194.051352 
L 369.179626 194.475257 
L 370.445603 194.475257 
L 370.445603 195.746971 
L 370.445603 194.899162 
L 370.193002 194.051352 
L 369.6878 194.051352 
L 369.6878 194.475257 
L 369.432227 194.475257 
L 369.432227 194.051352 
L 368.927026 191.928664 
L 369.6878 194.899162 
L 369.940401 194.899162 
L 369.6878 194.899162 
L 369.432227 194.475257 
L 368.927026 194.475257 
L 368.927026 194.899162 
L 368.927026 194.475257 
L 368.674425 193.624283 
L 368.421824 193.200378 
L 368.674425 193.200378 
L 369.179626 193.624283 
L 369.6878 194.475257 
L 369.6878 196.170876 
L 369.179626 197.445755 
L 368.674425 197.445755 
L 368.674425 196.170876 
L 368.169223 195.323066 
L 368.169223 194.051352 
L 367.916622 192.776474 
L 367.664021 192.352569 
L 367.664021 193.200378 
L 367.41142 194.051352 
L 367.664021 194.051352 
L 368.169223 194.475257 
L 368.169223 195.323066 
L 367.664021 195.746971 
L 367.158819 195.746971 
L 367.158819 195.323066 
L 367.664021 193.624283 
L 367.664021 193.200378 
L 368.169223 193.200378 
L 368.169223 192.776474 
L 368.421824 192.776474 
L 368.421824 193.200378 
L 367.916622 193.624283 
L 367.664021 194.475257 
L 367.41142 194.899162 
L 367.158819 194.899162 
L 367.41142 194.475257 
L 367.916622 194.899162 
L 367.916622 194.899162 
L 368.169223 194.051352 
L 368.169223 193.624283 
L 368.169223 194.051352 
L 367.916622 195.323066 
L 367.41142 196.170876 
L 366.906218 195.746971 
L 366.906218 194.899162 
L 367.41142 194.051352 
L 367.664021 194.051352 
L 367.41142 194.051352 
L 366.906218 193.624283 
L 366.653618 192.776474 
L 366.653618 193.200378 
L 367.158819 193.624283 
L 367.41142 193.200378 
L 367.41142 192.776474 
L 366.906218 192.776474 
L 366.401017 193.200378 
L 366.401017 193.624283 
L 366.906218 194.051352 
L 367.664021 194.051352 
L 367.41142 193.200378 
L 366.906218 193.624283 
L 366.906218 193.624283 
L 366.906218 191.928664 
L 366.653618 191.504759 
L 366.906218 191.07769 
L 367.41142 191.504759 
L 367.664021 191.928664 
L 367.41142 192.352569 
L 366.906218 192.352569 
L 366.148416 191.928664 
L 365.895815 191.504759 
L 365.643214 191.928664 
L 365.138012 191.07769 
L 365.643214 191.07769 
L 366.401017 192.352569 
L 366.401017 190.229881 
L 365.895815 189.805976 
L 365.390613 190.229881 
L 365.390613 191.07769 
L 365.138012 191.07769 
L 365.138012 190.229881 
L 364.885411 189.382071 
L 364.38021 189.382071 
L 364.127609 188.958166 
L 364.127609 188.958166 
L 364.127609 188.107193 
L 363.622407 186.411573 
L 361.096398 184.71279 
L 359.580793 183.014007 
L 358.570389 180.467414 
L 358.065187 177.920821 
L 355.539179 170.708111 
L 354.525803 166.88664 
L 352.504996 160.945644 
L 349.473786 153.305865 
L 347.95818 149.060489 
L 346.695176 144.818277 
L 345.684772 140.996805 
L 343.916566 136.754593 
L 341.643158 132.933122 
L 339.114177 129.962624 
L 337.345971 126.568221 
L 335.830366 122.74675 
L 334.06216 118.928443 
L 331.788752 115.530876 
L 329.515344 112.984283 
L 326.989335 110.43769 
L 324.207753 107.894261 
L 321.429144 104.9206 
L 318.903135 101.950102 
L 316.629727 96.433011 
L 315.114122 93.886418 
L 313.598516 90.91592 
L 312.082911 87.521518 
L 311.325108 84.974925 
L 310.819906 82.004427 
L 310.819906 78.606861 
L 311.325108 72.24196 
L 311.072507 69.695367 
L 310.567306 67.148774 
L 309.806531 65.026086 
L 309.301329 59.932901 
L 309.301329 58.234117 
L 308.796128 56.538498 
L 307.533123 55.687525 
L 306.52272 55.26362 
L 305.512316 53.568 
L 304.501913 53.568 
L 303.491509 53.991905 
L 302.733706 55.26362 
L 301.723303 55.687525 
L 300.9655 55.26362 
L 300.207698 55.26362 
L 299.449895 56.114593 
L 297.429088 58.661186 
L 296.923886 59.085091 
L 296.923886 58.661186 
L 296.671285 59.085091 
L 295.913482 60.78071 
L 295.660882 61.207779 
L 295.408281 62.055589 
L 295.15568 62.479493 
L 294.647506 62.479493 
L 294.900107 62.479493 
L 295.408281 62.903398 
L 295.913482 62.903398 
L 296.418684 62.479493 
L 296.166083 62.055589 
L 295.408281 62.055589 
L 293.384502 64.178277 
L 293.637103 64.178277 
L 293.637103 63.754372 
L 293.384502 64.178277 
L 292.626699 63.754372 
L 292.374098 63.327303 
L 292.374098 63.327303 
L 291.868897 64.178277 
L 291.616296 65.026086 
L 291.363695 65.449991 
L 291.616296 65.026086 
L 292.121497 65.026086 
L 292.626699 65.449991 
L 292.626699 65.026086 
L 292.374098 64.602181 
L 291.363695 64.602181 
L 290.605892 65.026086 
L 290.605892 66.724869 
L 291.363695 65.449991 
L 291.616296 65.449991 
L 291.363695 65.873896 
L 290.605892 66.300965 
L 290.353291 65.873896 
L 290.353291 65.449991 
L 290.353291 65.449991 
L 290.10069 65.873896 
L 289.848089 65.449991 
L 289.595489 66.300965 
L 289.848089 67.148774 
L 289.848089 67.572679 
L 289.595489 67.572679 
L 289.595489 67.572679 
L 289.342888 67.148774 
L 288.585085 67.148774 
L 288.585085 68.847557 
L 288.585085 66.300965 
L 288.332484 66.300965 
L 288.079883 66.724869 
L 288.585085 67.148774 
L 288.585085 67.148774 
L 288.079883 67.572679 
L 287.574681 67.572679 
L 287.574681 67.572679 
L 288.332484 67.996584 
L 288.332484 68.420489 
L 288.079883 68.847557 
L 287.574681 69.271462 
L 287.322081 69.695367 
L 287.322081 70.119272 
L 287.827282 70.543177 
L 288.079883 70.967082 
L 288.079883 70.543177 
L 287.827282 69.695367 
L 287.322081 69.695367 
L 286.311677 70.543177 
L 286.059076 70.543177 
L 286.564278 70.119272 
L 286.816879 68.847557 
L 287.574681 67.996584 
L 288.837686 67.996584 
L 288.585085 68.420489 
L 288.079883 68.847557 
L 287.322081 69.271462 
L 286.816879 69.271462 
L 286.816879 69.271462 
L 287.06948 68.847557 
L 286.816879 68.847557 
L 286.564278 69.695367 
L 286.816879 69.695367 
L 286.816879 69.271462 
L 286.564278 69.695367 
L 286.059076 71.390987 
L 285.806475 70.967082 
L 286.311677 70.119272 
L 287.06948 69.271462 
L 287.574681 69.271462 
L 287.06948 69.695367 
L 286.311677 69.695367 
L 286.059076 69.271462 
L 286.059076 69.695367 
L 287.06948 69.695367 
L 286.564278 69.271462 
L 286.059076 69.271462 
L 285.806475 68.847557 
L 285.553874 69.271462 
L 285.806475 69.695367 
L 286.311677 70.119272 
L 286.564278 69.695367 
L 286.311677 70.119272 
L 285.806475 70.543177 
L 285.806475 70.119272 
L 286.059076 69.271462 
L 285.806475 69.271462 
L 286.311677 69.271462 
L 286.311677 69.271462 
L 286.059076 69.695367 
L 285.048673 69.695367 
L 285.048673 70.119272 
L 285.301273 70.119272 
L 285.553874 69.271462 
L 285.806475 68.847557 
L 285.806475 70.119272 
L 285.553874 70.119272 
L 285.048673 69.695367 
L 284.796072 68.847557 
L 285.048673 68.420489 
L 285.048673 68.420489 
L 285.048673 69.271462 
L 284.543471 69.271462 
L 284.543471 69.695367 
L 285.553874 68.847557 
L 285.806475 68.847557 
L 285.553874 68.420489 
L 284.543471 68.420489 
L 284.796072 68.847557 
L 284.796072 70.119272 
L 284.543471 69.695367 
L 284.29087 68.847557 
L 284.796072 67.996584 
L 285.048673 67.996584 
L 284.543471 67.572679 
L 284.29087 67.148774 
L 284.29087 67.148774 
L 284.796072 67.572679 
L 285.048673 67.572679 
L 285.048673 66.724869 
L 284.543471 66.300965 
L 283.785668 66.724869 
L 282.522664 67.996584 
L 276.709872 67.996584 
L 274.436464 68.420489 
L 272.163056 67.572679 
L 269.637047 65.873896 
L 267.111038 65.026086 
L 264.329456 65.026086 
L 252.709816 63.327303 
L 250.436408 62.479493 
L 248.412629 62.903398 
L 247.149624 63.327303 
L 244.118414 62.479493 
L 242.602808 63.754372 
L 241.087203 64.602181 
L 239.571598 64.602181 
L 237.803392 64.178277 
L 234.011407 65.026086 
L 232.748402 65.026086 
L 231.232797 65.873896 
L 229.969792 67.148774 
L 228.959389 67.996584 
L 227.443784 67.996584 
L 228.706788 67.996584 
L 229.21199 67.148774 
L 230.222393 66.724869 
L 231.232797 65.449991 
L 231.737999 64.602181 
L 232.2432 64.178277 
L 232.495801 64.178277 
L 232.495801 63.754372 
L 231.990599 63.327303 
L 230.727595 65.449991 
L 230.474994 65.026086 
L 230.474994 63.754372 
L 229.969792 63.754372 
L 229.464591 64.602181 
L 229.464591 65.026086 
L 228.706788 65.026086 
L 228.959389 65.026086 
L 228.959389 65.449991 
L 228.454187 65.449991 
L 228.201586 65.026086 
L 227.948985 64.178277 
L 228.201586 63.327303 
L 228.201586 63.327303 
L 227.696384 63.327303 
L 227.948985 63.754372 
L 227.948985 64.178277 
L 227.191183 64.178277 
L 227.191183 64.178277 
L 227.948985 63.754372 
L 227.948985 62.903398 
L 227.191183 62.479493 
L 226.685981 62.903398 
L 226.685981 63.327303 
L 226.938582 63.327303 
L 226.938582 62.903398 
L 227.696384 63.327303 
L 227.948985 63.754372 
L 227.191183 63.327303 
L 225.928178 62.055589 
L 225.675577 62.055589 
L 225.928178 62.903398 
L 226.180779 63.327303 
L 226.43338 62.903398 
L 226.685981 62.055589 
L 226.43338 61.631684 
L 226.685981 62.055589 
L 226.685981 62.903398 
L 225.928178 63.754372 
L 225.422976 63.327303 
L 225.675577 62.055589 
L 226.180779 62.055589 
L 226.180779 62.055589 
L 225.928178 61.207779 
L 225.675577 60.78071 
L 225.422976 60.78071 
L 225.170376 61.207779 
L 225.422976 62.055589 
L 226.180779 62.479493 
L 226.685981 62.479493 
L 225.928178 62.479493 
L 225.170376 61.207779 
L 225.170376 62.055589 
L 224.917775 62.903398 
L 224.665174 62.479493 
L 224.412573 61.207779 
L 224.412573 61.207779 
L 224.665174 61.631684 
L 224.917775 62.479493 
L 224.917775 61.631684 
L 224.665174 61.207779 
L 224.412573 61.207779 
L 224.665174 61.207779 
L 224.917775 61.631684 
L 224.917775 62.055589 
L 225.170376 61.631684 
L 225.422976 60.78071 
L 225.928178 61.207779 
L 225.928178 61.207779 
L 225.422976 61.207779 
L 225.170376 60.78071 
L 224.665174 60.356805 
L 224.412573 60.356805 
L 224.665174 60.78071 
L 225.170376 62.903398 
L 225.170376 62.055589 
L 224.665174 60.356805 
L 224.412573 59.085091 
L 225.675577 59.085091 
L 225.170376 59.085091 
L 224.665174 58.661186 
L 224.665174 58.234117 
L 224.665174 58.661186 
L 224.917775 58.661186 
L 225.422976 59.085091 
L 225.675577 59.085091 
L 225.675577 58.234117 
L 225.928178 58.234117 
L 226.180779 58.661186 
L 225.422976 58.661186 
L 224.917775 58.234117 
L 224.917775 58.234117 
L 225.675577 59.508996 
L 225.675577 58.661186 
L 223.149568 58.661186 
L 221.381362 59.085091 
L 219.610184 60.356805 
L 217.336776 61.631684 
L 212.284759 64.178277 
L 207.232741 67.572679 
L 204.451159 69.695367 
L 201.167348 73.513675 
L 197.883536 77.759051 
L 195.357528 81.577359 
L 192.831519 84.55102 
L 190.049937 86.670544 
L 187.018727 89.644206 
L 184.240117 92.187635 
L 181.966709 95.161296 
L 179.945902 98.555699 
L 177.419893 101.102292 
L 174.638311 103.648885 
L 172.112302 107.467193 
L 170.091495 111.288664 
L 168.828491 114.683066 
L 167.060285 118.504538 
L 161.755666 128.690909 
L 160.48969 132.085312 
L 158.216282 145.666086 
L 157.458479 149.060489 
L 156.953278 152.030987 
L 156.953278 154.153675 
L 157.205878 156.700268 
L 157.963681 160.097834 
L 158.721484 161.793454 
L 160.237089 164.340047 
L 160.742291 165.614925 
L 161.250464 167.310544 
L 162.008267 170.281042 
L 162.008267 169.857137 
L 162.008267 170.281042 
L 161.250464 175.801296 
L 160.742291 176.649106 
L 160.48969 177.920821 
L 159.984488 178.347889 
L 159.731887 178.347889 
L 159.479286 179.195699 
L 158.974085 182.590102 
L 159.226686 183.86498 
L 158.974085 184.71279 
L 158.468883 185.5606 
L 157.963681 185.987668 
L 157.71108 186.835478 
L 157.458479 187.259383 
L 157.458479 188.107193 
L 157.963681 191.07769 
L 157.458479 191.928664 
L 156.700677 192.352569 
L 156.195475 193.200378 
L 155.942874 194.051352 
L 155.437672 197.445755 
L 155.690273 198.293564 
L 155.437672 199.144538 
L 154.93247 200.416252 
L 154.93247 201.264062 
L 154.67987 201.264062 
L 154.427269 202.115035 
L 154.427269 203.38675 
L 154.174668 205.085533 
L 153.669466 206.357248 
L 153.164264 206.784316 
L 152.911663 206.784316 
L 152.911663 206.784316 
L 152.659062 208.056031 
L 152.153861 209.754814 
L 152.153861 210.602624 
L 152.406462 210.178719 
L 152.406462 210.178719 
L 152.406462 212.725312 
L 151.648659 212.301407 
L 151.143457 212.725312 
L 150.890856 213.573122 
L 151.143457 213.997027 
L 151.143457 213.573122 
L 151.143457 213.997027 
L 150.890856 214.420932 
L 150.385655 216.119715 
L 149.880453 217.394593 
L 149.375251 217.818498 
L 149.375251 217.394593 
L 150.133054 216.54362 
L 150.385655 216.54362 
L 149.880453 217.818498 
L 149.12265 218.666308 
L 148.364847 218.242403 
L 148.112247 218.242403 
L 148.112247 219.090213 
L 149.627852 219.090213 
L 149.375251 220.365091 
L 148.617448 221.636805 
L 148.870049 221.212901 
L 148.617448 222.911684 
L 148.617448 224.183398 
L 148.617448 224.183398 
L 148.870049 225.034372 
L 148.870049 225.458277 
L 149.12265 225.034372 
L 149.375251 225.882181 
L 149.12265 226.729991 
L 148.617448 227.153896 
L 148.112247 227.153896 
L 147.859646 227.577801 
L 147.859646 227.577801 
L 147.859646 227.153896 
L 147.859646 228.852679 
L 147.607045 228.428774 
L 147.354444 226.729991 
L 147.354444 227.577801 
L 147.354444 228.004869 
L 146.849242 228.852679 
L 147.354444 229.700489 
L 147.354444 229.700489 
L 146.849242 229.700489 
L 146.34404 230.551462 
L 146.34404 231.399272 
L 146.596641 231.823177 
L 146.849242 231.823177 
L 146.849242 232.247082 
L 146.34404 231.823177 
L 146.091439 230.551462 
L 146.34404 230.551462 
L 146.091439 231.399272 
L 146.091439 232.247082 
L 145.835867 232.247082 
L 145.835867 232.247082 
L 145.583266 231.823177 
L 145.583266 231.399272 
L 145.835867 230.975367 
L 145.835867 231.399272 
L 145.583266 232.247082 
L 144.572862 232.247082 
L 144.320261 232.670987 
L 144.572862 233.098055 
L 144.320261 233.52196 
L 144.320261 234.36977 
L 144.572862 233.945865 
L 144.572862 233.098055 
L 144.825463 232.670987 
L 144.825463 232.670987 
L 144.825463 234.36977 
L 144.320261 234.36977 
L 144.067661 234.793675 
L 144.320261 235.644648 
L 144.825463 235.21758 
L 145.078064 234.36977 
L 144.825463 233.945865 
L 144.320261 233.945865 
L 144.067661 234.36977 
L 144.067661 236.068553 
L 143.81506 236.068553 
L 143.309858 233.945865 
L 143.309858 234.36977 
L 144.572862 234.36977 
L 144.572862 234.793675 
L 144.067661 235.21758 
L 143.81506 236.068553 
L 144.067661 236.492458 
L 144.320261 236.492458 
L 144.320261 237.340268 
L 144.067661 238.191241 
L 144.067661 238.615146 
L 144.067661 237.340268 
L 144.572862 236.068553 
L 144.825463 236.492458 
L 144.825463 237.764173 
L 144.320261 237.764173 
L 144.572862 237.764173 
L 144.572862 237.340268 
L 144.320261 237.340268 
L 144.572862 237.340268 
L 144.067661 237.764173 
L 143.562459 238.615146 
L 144.067661 239.462956 
L 144.572862 239.462956 
L 144.572862 239.462956 
L 144.067661 239.039051 
L 144.067661 239.462956 
L 144.572862 239.886861 
L 145.078064 239.886861 
L 145.078064 239.462956 
L 143.562459 239.462956 
L 143.562459 239.039051 
L 144.067661 238.615146 
L 144.320261 238.615146 
L 144.825463 239.039051 
L 145.078064 239.462956 
L 144.825463 239.462956 
L 145.078064 239.462956 
L 145.078064 239.886861 
L 144.572862 240.310766 
L 144.067661 239.462956 
L 143.81506 238.191241 
L 144.067661 237.764173 
L 143.81506 238.615146 
L 143.309858 239.886861 
L 143.309858 240.310766 
L 143.81506 239.886861 
L 144.067661 239.886861 
L 143.562459 239.886861 
L 143.81506 239.462956 
L 144.067661 239.462956 
L 144.320261 239.886861 
L 144.067661 240.310766 
L 143.309858 239.462956 
L 142.804656 239.462956 
L 143.057257 240.310766 
L 143.562459 240.737834 
L 143.309858 240.737834 
L 142.552055 239.886861 
L 141.03645 239.039051 
L 136.994836 240.737834 
L 135.22663 241.161739 
L 133.458423 242.009549 
L 128.403434 246.67883 
L 125.877425 247.950544 
L 123.098815 249.649328 
L 120.067605 251.348111 
L 117.541596 253.467635 
L 111.981405 257.713011 
L 109.455396 259.411794 
L 107.434589 261.958387 
L 105.161181 263.654007 
L 102.635172 264.928885 
L 100.106191 266.624505 
L 97.832783 268.323288 
L 95.811976 269.598166 
L 94.04377 270.445976 
L 92.528165 272.144759 
L 90.507358 273.416474 
L 88.48655 273.416474 
L 86.970945 273.840378 
L 85.704969 275.115257 
L 83.684162 277.66185 
L 82.673758 278.085755 
L 78.632144 278.085755 
L 78.126942 278.509659 
L 77.621741 279.357469 
L 76.611337 280.208443 
L 75.600933 281.480157 
L 75.095732 281.056252 
L 74.337929 280.632347 
L 73.832727 279.784538 
L 73.832727 279.784538 
L 74.085328 280.632347 
L 74.59053 281.480157 
L 74.59053 282.331131 
L 74.843131 282.331131 
L 75.348333 280.208443 
L 75.600933 279.784538 
L 75.853534 280.208443 
L 76.611337 280.208443 
L 76.863938 280.632347 
L 76.611337 281.480157 
L 76.611337 283.17894 
L 76.358736 283.602845 
L 76.611337 283.17894 
L 76.358736 283.17894 
L 76.358736 283.17894 
L 76.611337 283.602845 
L 76.358736 283.17894 
L 76.106135 283.17894 
L 75.853534 284.02675 
L 75.348333 285.301628 
L 74.843131 285.301628 
L 74.843131 285.725533 
L 75.095732 286.573343 
L 75.095732 287.421153 
L 75.095732 286.997248 
L 75.348333 286.149438 
L 75.348333 285.301628 
L 75.600933 284.877723 
L 75.853534 285.301628 
L 75.853534 285.725533 
L 75.348333 285.725533 
L 75.348333 285.725533 
L 75.348333 285.301628 
L 75.600933 285.301628 
L 76.106135 285.725533 
L 76.358736 287.421153 
L 75.600933 286.149438 
L 74.59053 284.877723 
L 74.59053 284.877723 
L 75.095732 285.725533 
L 75.348333 285.301628 
L 75.095732 285.725533 
L 75.348333 286.573343 
L 75.853534 287.421153 
L 75.853534 287.421153 
L 76.106135 286.573343 
L 76.106135 287.421153 
L 75.853534 287.848221 
L 75.348333 288.272126 
L 75.095732 288.272126 
L 75.348333 287.848221 
L 75.348333 286.997248 
L 74.337929 286.997248 
L 74.337929 287.421153 
L 74.59053 288.696031 
L 74.843131 289.119936 
L 75.348333 289.119936 
L 76.106135 289.543841 
L 76.358736 289.967746 
L 75.853534 290.818719 
L 75.600933 290.818719 
L 75.600933 289.543841 
L 76.106135 289.119936 
L 76.106135 289.119936 
L 75.853534 289.543841 
L 75.095732 289.119936 
L 74.843131 289.119936 
L 75.095732 289.543841 
L 75.853534 290.394814 
L 76.106135 291.242624 
L 76.106135 292.090434 
L 75.853534 291.666529 
L 75.853534 290.818719 
L 75.853534 291.666529 
L 75.600933 291.242624 
L 75.600933 290.818719 
L 75.600933 291.242624 
L 75.348333 291.666529 
L 75.348333 292.941407 
L 75.600933 292.941407 
L 75.600933 292.514339 
L 75.348333 291.666529 
L 75.348333 290.394814 
L 75.853534 290.394814 
L 76.106135 291.666529 
L 75.853534 293.365312 
L 75.853534 294.213122 
L 76.106135 294.213122 
L 76.106135 292.514339 
L 75.853534 292.090434 
L 76.358736 291.666529 
L 77.116539 291.242624 
L 77.116539 291.666529 
L 76.358736 292.090434 
L 75.853534 292.514339 
L 76.358736 292.090434 
L 76.611337 291.242624 
L 76.863938 291.666529 
L 76.863938 293.365312 
L 76.611337 294.213122 
L 76.611337 293.789217 
L 76.611337 293.789217 
L 76.358736 293.789217 
L 76.358736 293.789217 
L 76.611337 294.213122 
L 76.863938 294.213122 
L 76.358736 293.789217 
L 76.106135 293.789217 
L 76.358736 294.213122 
L 77.116539 294.213122 
L 77.874341 293.789217 
L 77.874341 293.365312 
L 77.874341 293.365312 
L 77.116539 292.090434 
L 77.116539 292.514339 
L 77.621741 292.941407 
L 77.621741 294.213122 
L 77.621741 294.213122 
L 77.874341 294.213122 
L 77.36914 294.213122 
L 76.611337 294.637027 
L 76.358736 294.637027 
L 76.863938 295.060932 
L 77.116539 295.060932 
L 76.611337 294.637027 
L 76.611337 294.637027 
L 77.116539 294.637027 
L 76.863938 294.213122 
L 76.106135 292.090434 
L 76.611337 292.514339 
L 76.611337 293.365312 
L 76.106135 293.789217 
L 76.106135 294.213122 
L 76.358736 294.213122 
L 76.358736 293.789217 
L 76.106135 293.365312 
L 76.611337 294.213122 
L 76.863938 293.789217 
L 76.611337 293.365312 
L 76.863938 293.365312 
L 77.36914 293.789217 
L 77.621741 293.789217 
L 77.621741 294.213122 
L 77.36914 294.213122 
L 77.116539 294.637027 
L 76.611337 294.213122 
L 76.358736 294.213122 
L 76.358736 293.365312 
L 76.358736 293.789217 
L 77.116539 295.488 
L 77.36914 295.060932 
L 77.116539 294.213122 
L 76.106135 295.060932 
L 76.106135 295.060932 
L 77.36914 295.060932 
L 78.126942 294.213122 
L 79.389947 293.365312 
L 80.905552 293.365312 
L 82.673758 294.213122 
L 84.441964 294.213122 
L 86.970945 292.941407 
L 90.002156 291.666529 
L 93.285967 291.242624 
L 96.82238 290.394814 
L 100.611393 288.696031 
L 114.760014 284.450655 
L 121.078008 281.056252 
L 127.39303 276.810876 
L 133.711024 272.144759 
L 140.026046 268.323288 
L 146.596641 264.928885 
L 158.721484 256.441296 
L 165.039478 253.467635 
L 171.607101 250.921042 
L 183.482314 244.556142 
L 188.534332 241.585644 
L 193.33672 239.039051 
L 209.506149 231.399272 
L 214.810767 230.124394 
L 219.610184 228.428774 
L 224.159972 225.882181 
L 228.959389 223.759493 
L 234.011407 222.06071 
L 239.066396 220.788996 
L 243.613212 218.666308 
L 248.66523 216.119715 
L 253.720219 213.997027 
L 259.024838 212.301407 
L 263.824255 211.450434 
L 269.131845 209.754814 
L 278.478078 204.237723 
L 282.270063 201.264062 
L 293.637103 194.899162 
L 296.923886 192.776474 
L 303.491509 190.229881 
L 307.027921 189.805976 
L 310.314705 190.229881 
L 312.335512 190.229881 
L 313.851117 189.805976 
L 316.629727 189.805976 
L 317.64013 189.382071 
L 318.145332 188.531098 
L 317.892731 188.531098 
L 317.892731 189.382071 
L 317.64013 190.229881 
L 315.366722 190.229881 
L 314.356319 191.07769 
L 311.072507 192.352569 
L 310.314705 193.200378 
L 308.796128 193.200378 
L 307.280522 195.746971 
L 306.775321 197.02185 
L 306.775321 197.445755 
L 306.775321 196.170876 
L 307.027921 196.597945 
L 307.027921 197.445755 
L 308.038325 197.445755 
L 308.290926 198.293564 
L 308.038325 199.144538 
L 307.533123 199.568443 
L 307.027921 198.717469 
L 306.775321 198.717469 
L 306.270119 200.416252 
L 305.764917 201.264062 
L 305.007114 200.840157 
L 304.754513 199.992347 
L 304.754513 199.568443 
L 305.259715 201.264062 
L 305.259715 200.840157 
L 305.007114 199.992347 
L 304.501913 199.568443 
L 303.74411 199.992347 
L 303.238908 199.992347 
L 303.996711 199.992347 
L 303.996711 200.416252 
L 303.74411 200.840157 
L 303.74411 200.840157 
L 303.491509 200.416252 
L 303.491509 199.568443 
L 303.74411 199.144538 
L 303.996711 199.568443 
L 303.996711 199.992347 
L 303.74411 200.416252 
L 303.238908 202.115035 
L 303.491509 202.53894 
L 303.996711 202.115035 
L 303.74411 201.264062 
L 302.986307 200.840157 
L 301.975904 201.691131 
L 301.975904 202.53894 
L 302.481105 202.53894 
L 303.238908 201.691131 
L 303.238908 200.840157 
L 302.986307 200.840157 
L 302.733706 200.416252 
L 302.733706 199.568443 
L 302.481105 199.568443 
L 301.975904 201.264062 
L 301.470702 202.115035 
L 301.218101 203.38675 
L 301.723303 202.115035 
L 301.975904 202.115035 
L 301.723303 202.962845 
L 301.723303 201.264062 
L 301.218101 201.264062 
L 301.218101 201.691131 
L 300.9655 202.53894 
L 300.712899 202.962845 
L 300.460298 202.53894 
L 300.712899 202.53894 
L 300.9655 202.115035 
L 300.9655 201.691131 
L 300.460298 201.691131 
L 300.460298 202.53894 
L 300.9655 202.115035 
L 301.470702 200.840157 
L 301.470702 199.992347 
L 300.460298 200.840157 
L 300.207698 200.840157 
L 300.460298 200.840157 
L 300.712899 200.416252 
L 300.460298 200.416252 
L 299.955097 201.264062 
L 299.702496 201.264062 
L 299.702496 199.992347 
L 299.449895 198.717469 
L 299.449895 198.717469 
L 299.449895 199.568443 
L 299.702496 199.992347 
L 299.955097 199.568443 
L 299.955097 199.144538 
L 300.207698 197.869659 
L 299.955097 196.170876 
L 299.955097 197.02185 
L 299.955097 197.869659 
L 299.449895 198.293564 
L 298.692092 198.293564 
L 298.944693 198.293564 
L 299.449895 197.869659 
L 299.702496 197.445755 
L 299.702496 197.02185 
L 299.955097 196.597945 
L 300.207698 195.746971 
L 299.955097 196.170876 
L 299.449895 196.597945 
L 299.449895 197.02185 
L 301.218101 196.170876 
L 301.975904 195.323066 
L 303.74411 194.475257 
L 306.775321 193.624283 
L 310.314705 192.352569 
L 317.38753 188.107193 
L 321.176543 187.259383 
L 325.47373 185.5606 
L 330.273146 182.590102 
L 335.577765 180.043509 
L 340.885355 178.347889 
L 346.189974 175.801296 
L 351.494593 172.827635 
L 356.04438 170.708111 
L 360.338595 169.009328 
L 365.138012 167.737613 
L 369.179626 165.614925 
L 372.971611 163.492237 
L 376.508024 161.369549 
L 380.297037 160.521739 
L 383.83345 160.097834 
L 386.36243 158.822956 
L 388.635838 157.124173 
L 394.445659 150.335367 
L 395.456062 149.484394 
L 396.971667 148.636584 
L 398.487273 146.940965 
L 398.487273 146.513896 
L 397.982071 146.089991 
L 397.72947 146.940965 
L 395.708663 146.940965 
L 394.698259 146.513896 
L 392.172251 147.364869 
L 391.414448 148.212679 
L 390.909246 149.060489 
L 390.656645 149.060489 
L 389.898843 148.636584 
L 389.898843 148.636584 
L 390.151443 148.212679 
L 389.646242 147.364869 
L 388.635838 146.940965 
L 387.878036 148.212679 
L 387.625435 149.911462 
L 387.625435 151.183177 
L 387.625435 150.335367 
L 388.635838 147.788774 
L 388.383237 148.636584 
L 388.130636 148.212679 
L 388.130636 148.636584 
L 388.383237 149.484394 
L 388.130636 149.911462 
L 387.372834 149.911462 
L 387.625435 149.484394 
L 387.625435 149.060489 
L 387.372834 149.911462 
L 387.120233 149.484394 
L 386.867632 148.636584 
L 386.615031 148.636584 
L 386.36243 149.484394 
L 386.36243 150.335367 
L 386.109829 150.759272 
L 385.604628 150.335367 
L 385.099426 148.636584 
L 385.099426 147.788774 
L 385.099426 147.788774 
L 385.352027 147.364869 
L 385.604628 147.364869 
L 385.352027 147.364869 
L 385.099426 148.212679 
L 385.099426 149.060489 
L 385.099426 148.212679 
L 385.352027 148.636584 
L 384.846825 149.060489 
L 384.338651 149.060489 
L 384.338651 148.212679 
L 384.846825 147.788774 
L 384.846825 148.212679 
L 384.338651 148.636584 
L 383.328248 148.636584 
L 383.83345 148.636584 
L 383.83345 147.788774 
L 383.580849 146.940965 
L 383.075647 148.636584 
L 382.823046 149.060489 
L 382.823046 149.484394 
L 383.075647 149.911462 
L 383.580849 149.060489 
L 383.580849 148.212679 
L 383.83345 147.364869 
L 384.08605 146.940965 
L 383.83345 146.089991 
L 383.580849 146.089991 
L 383.328248 146.940965 
L 382.570445 148.212679 
L 382.065243 148.212679 
L 382.317844 147.788774 
L 382.823046 147.788774 
L 382.823046 148.212679 
L 383.075647 148.636584 
L 383.328248 148.212679 
L 383.580849 148.636584 
L 383.328248 149.060489 
L 382.570445 149.060489 
L 382.570445 148.636584 
L 382.570445 148.636584 
L 382.823046 148.636584 
L 382.823046 148.212679 
L 382.570445 147.364869 
L 382.317844 147.364869 
L 382.317844 148.212679 
L 382.570445 148.636584 
L 382.065243 147.788774 
L 382.317844 147.788774 
L 382.317844 148.212679 
L 382.065243 148.636584 
L 382.065243 149.484394 
L 382.570445 148.636584 
L 382.570445 146.940965 
L 381.812642 149.060489 
L 381.560042 148.636584 
L 381.560042 146.513896 
L 381.812642 146.089991 
L 381.307441 147.788774 
L 381.05484 146.940965 
L 381.05484 146.089991 
L 381.05484 146.513896 
L 380.802239 147.364869 
L 380.802239 147.364869 
L 380.549638 146.940965 
L 380.044436 146.940965 
L 380.044436 146.940965 
L 380.044436 147.364869 
L 380.297037 147.788774 
L 380.802239 146.940965 
L 380.549638 146.513896 
L 380.297037 146.513896 
L 380.297037 146.513896 
L 380.297037 146.089991 
L 380.297037 146.513896 
L 379.791835 146.940965 
L 379.286634 146.513896 
L 379.539235 145.666086 
L 380.044436 144.818277 
L 380.044436 144.394372 
L 379.286634 145.242181 
L 379.034033 146.513896 
L 379.286634 146.940965 
L 379.286634 145.666086 
L 379.791835 146.089991 
L 379.791835 146.089991 
L 379.286634 146.089991 
L 378.781432 146.513896 
L 379.539235 146.513896 
L 379.539235 145.666086 
L 379.791835 145.242181 
L 379.791835 146.940965 
L 379.539235 147.364869 
L 379.539235 146.513896 
L 379.791835 144.818277 
L 379.286634 144.818277 
L 379.286634 145.666086 
L 379.286634 145.666086 
L 378.781432 146.089991 
L 378.528831 146.513896 
L 378.528831 146.940965 
L 379.539235 147.788774 
L 379.286634 147.364869 
L 377.771028 145.666086 
L 377.013226 146.940965 
L 377.265827 147.788774 
L 377.771028 147.364869 
L 378.023629 146.940965 
L 377.771028 146.940965 
L 377.518427 147.364869 
L 377.265827 146.940965 
L 378.023629 145.666086 
L 378.023629 145.666086 
L 377.771028 146.940965 
L 377.518427 147.364869 
L 377.518427 146.940965 
L 378.023629 144.818277 
L 377.771028 144.394372 
L 377.518427 144.818277 
L 377.265827 145.666086 
L 377.265827 146.513896 
L 377.518427 147.364869 
L 378.023629 146.940965 
L 378.023629 145.666086 
L 378.023629 145.666086 
L 376.760625 145.666086 
L 377.013226 145.242181 
L 376.760625 145.242181 
L 377.013226 144.818277 
L 377.518427 144.818277 
L 377.518427 145.242181 
L 377.013226 146.089991 
L 377.518427 145.242181 
L 377.013226 145.242181 
L 376.760625 144.818277 
L 376.760625 143.967303 
L 377.013226 143.967303 
L 377.013226 145.666086 
L 376.760625 145.666086 
L 375.750221 144.818277 
L 376.255423 143.967303 
L 377.013226 143.967303 
L 377.013226 143.967303 
L 377.013226 144.394372 
L 376.002822 146.089991 
L 376.255423 146.089991 
L 376.002822 145.242181 
L 375.49762 141.847779 
L 376.255423 141.847779 
L 376.508024 142.271684 
L 376.255423 143.119493 
L 376.002822 143.119493 
L 376.002822 142.271684 
L 376.255423 141.847779 
L 376.255423 141.847779 
L 375.750221 141.42071 
L 375.245019 141.847779 
L 374.992419 142.271684 
L 375.245019 142.271684 
L 375.750221 141.847779 
L 376.002822 141.42071 
L 375.245019 141.42071 
L 374.739818 142.271684 
L 374.739818 141.847779 
L 374.992419 141.42071 
L 374.487217 140.996805 
L 373.476813 142.271684 
L 372.213809 142.271684 
L 371.203405 142.695589 
L 369.940401 142.695589 
L 366.653618 141.847779 
L 363.875008 142.271684 
L 360.085995 142.695589 
L 355.791779 143.967303 
L 350.989391 145.666086 
L 346.442575 147.788774 
L 341.390557 149.911462 
L 330.525747 153.305865 
L 325.221129 155.428553 
L 308.038325 163.068332 
L 297.176487 168.161518 
L 291.363695 170.708111 
L 285.806475 173.678608 
L 280.249256 175.801296 
L 270.142249 179.195699 
L 265.342832 182.166197 
L 259.53004 185.136695 
L 253.97282 188.107193 
L 249.170432 191.07769 
L 244.623616 194.051352 
L 239.571598 197.02185 
L 234.264007 199.144538 
L 229.21199 201.691131 
L 219.610184 207.632126 
L 210.263952 210.178719 
L 205.969736 211.874339 
L 197.630935 214.420932 
L 193.33672 216.119715 
L 189.544735 217.818498 
L 186.008323 219.090213 
L 183.229713 219.514117 
L 180.956305 220.365091 
L 179.188099 221.212901 
L 177.419893 221.636805 
L 175.396114 223.335589 
L 174.638311 224.183398 
L 174.38571 224.183398 
L 174.38571 224.183398 
L 174.38571 223.759493 
L 175.396114 222.911684 
L 176.66209 223.335589 
L 177.419893 224.183398 
L 177.672494 225.458277 
L 177.672494 225.458277 
L 178.430296 224.607303 
L 179.4407 224.607303 
L 179.945902 225.034372 
L 179.945902 225.882181 
L 179.693301 226.729991 
L 178.682897 227.577801 
L 178.682897 226.306086 
L 178.430296 225.882181 
L 178.177696 226.729991 
L 177.925095 226.729991 
L 177.672494 226.306086 
L 177.925095 225.458277 
L 177.925095 225.034372 
L 177.925095 225.458277 
L 178.177696 226.729991 
L 177.672494 227.577801 
L 176.914691 227.153896 
L 176.66209 226.729991 
L 176.914691 226.729991 
L 177.167292 227.153896 
L 177.419893 227.153896 
L 177.419893 227.153896 
L 177.419893 227.577801 
L 176.914691 227.153896 
L 176.66209 226.729991 
L 177.167292 225.882181 
L 177.419893 226.306086 
L 177.167292 226.729991 
L 176.914691 226.729991 
L 176.66209 226.306086 
L 176.156888 226.306086 
L 175.904288 226.729991 
L 175.904288 227.153896 
L 175.648715 226.729991 
L 175.648715 225.882181 
L 175.648715 226.729991 
L 175.904288 226.729991 
L 176.66209 225.882181 
L 176.914691 225.882181 
L 176.66209 227.153896 
L 176.156888 228.004869 
L 176.156888 227.153896 
L 175.904288 225.882181 
L 175.904288 224.607303 
L 175.904288 224.607303 
L 175.648715 225.034372 
L 175.648715 225.458277 
L 175.904288 225.458277 
L 176.156888 225.034372 
L 175.904288 225.458277 
L 176.409489 227.577801 
L 176.66209 227.153896 
L 176.156888 225.458277 
L 175.648715 224.607303 
L 175.648715 224.607303 
L 175.648715 225.034372 
L 176.156888 225.034372 
L 176.409489 224.607303 
L 176.156888 224.607303 
L 175.396114 225.882181 
L 174.890912 225.458277 
L 174.638311 224.607303 
L 175.904288 223.335589 
L 175.904288 223.759493 
L 176.156888 223.759493 
L 176.66209 223.335589 
L 176.66209 223.759493 
L 176.409489 224.607303 
L 176.409489 225.034372 
L 176.66209 225.034372 
L 176.66209 225.458277 
L 176.156888 226.729991 
L 176.156888 227.577801 
L 176.409489 227.153896 
L 176.409489 225.882181 
L 176.66209 224.183398 
L 177.167292 223.759493 
L 177.167292 223.759493 
L 176.66209 223.335589 
L 176.914691 223.759493 
L 176.66209 225.034372 
L 176.914691 225.458277 
L 176.914691 224.183398 
L 176.66209 222.06071 
L 176.66209 220.788996 
L 176.409489 220.365091 
L 176.156888 221.212901 
L 176.409489 221.636805 
L 176.914691 220.788996 
L 177.167292 219.941186 
L 176.66209 219.941186 
L 176.156888 220.788996 
L 176.409489 222.06071 
L 177.167292 223.335589 
L 177.419893 222.487779 
L 177.419893 221.212901 
L 177.167292 219.941186 
L 177.672494 220.365091 
L 177.925095 221.212901 
L 177.925095 221.636805 
L 178.177696 221.212901 
L 178.177696 220.365091 
L 177.672494 219.514117 
L 177.672494 219.090213 
L 177.925095 219.090213 
L 177.925095 219.090213 
L 177.419893 218.666308 
L 177.167292 218.666308 
L 177.167292 216.967525 
L 177.167292 217.394593 
L 177.419893 218.242403 
L 177.672494 218.666308 
L 177.672494 217.818498 
L 177.419893 216.967525 
L 177.419893 216.967525 
L 177.167292 216.54362 
L 177.419893 216.119715 
L 177.419893 215.69581 
L 177.419893 215.69581 
L 177.672494 215.271905 
L 177.672494 214.420932 
L 177.672494 214.420932 
" style="fill:none;stroke:#1f77b4;stroke-linecap:square;stroke-width:1.5;"/>
   </g>
   <g id="matplotlib.axis_1">
    <g id="xtick_1">
     <g id="line2d_2">
      <defs>
       <path d="M 0 0 
L 0 3.5 
" id="m7adc696cdf" style="stroke:#000000;stroke-width:0.8;"/>
      </defs>
      <g>
       <use style="stroke:#000000;stroke-width:0.8;" x="57.285883" xlink:href="#m7adc696cdf" y="307.584"/>
      </g>
     </g>
     <g id="text_1">
      <!-- 800 -->
      <defs>
       <path d="M 10.59375 35.5 
L 73.1875 35.5 
L 73.1875 27.203125 
L 10.59375 27.203125 
z
" id="DejaVuSans-8722"/>
       <path d="M 31.78125 34.625 
Q 24.75 34.625 20.71875 30.859375 
Q 16.703125 27.09375 16.703125 20.515625 
Q 16.703125 13.921875 20.71875 10.15625 
Q 24.75 6.390625 31.78125 6.390625 
Q 38.8125 6.390625 42.859375 10.171875 
Q 46.921875 13.96875 46.921875 20.515625 
Q 46.921875 27.09375 42.890625 30.859375 
Q 38.875 34.625 31.78125 34.625 
z
M 21.921875 38.8125 
Q 15.578125 40.375 12.03125 44.71875 
Q 8.5 49.078125 8.5 55.328125 
Q 8.5 64.0625 14.71875 69.140625 
Q 20.953125 74.21875 31.78125 74.21875 
Q 42.671875 74.21875 48.875 69.140625 
Q 55.078125 64.0625 55.078125 55.328125 
Q 55.078125 49.078125 51.53125 44.71875 
Q 48 40.375 41.703125 38.8125 
Q 48.828125 37.15625 52.796875 32.3125 
Q 56.78125 27.484375 56.78125 20.515625 
Q 56.78125 9.90625 50.3125 4.234375 
Q 43.84375 -1.421875 31.78125 -1.421875 
Q 19.734375 -1.421875 13.25 4.234375 
Q 6.78125 9.90625 6.78125 20.515625 
Q 6.78125 27.484375 10.78125 32.3125 
Q 14.796875 37.15625 21.921875 38.8125 
z
M 18.3125 54.390625 
Q 18.3125 48.734375 21.84375 45.5625 
Q 25.390625 42.390625 31.78125 42.390625 
Q 38.140625 42.390625 41.71875 45.5625 
Q 45.3125 48.734375 45.3125 54.390625 
Q 45.3125 60.0625 41.71875 63.234375 
Q 38.140625 66.40625 31.78125 66.40625 
Q 25.390625 66.40625 21.84375 63.234375 
Q 18.3125 60.0625 18.3125 54.390625 
z
" id="DejaVuSans-56"/>
       <path d="M 31.78125 66.40625 
Q 24.171875 66.40625 20.328125 58.90625 
Q 16.5 51.421875 16.5 36.375 
Q 16.5 21.390625 20.328125 13.890625 
Q 24.171875 6.390625 31.78125 6.390625 
Q 39.453125 6.390625 43.28125 13.890625 
Q 47.125 21.390625 47.125 36.375 
Q 47.125 51.421875 43.28125 58.90625 
Q 39.453125 66.40625 31.78125 66.40625 
z
M 31.78125 74.21875 
Q 44.046875 74.21875 50.515625 64.515625 
Q 56.984375 54.828125 56.984375 36.375 
Q 56.984375 17.96875 50.515625 8.265625 
Q 44.046875 -1.421875 31.78125 -1.421875 
Q 19.53125 -1.421875 13.0625 8.265625 
Q 6.59375 17.96875 6.59375 36.375 
Q 6.59375 54.828125 13.0625 64.515625 
Q 19.53125 74.21875 31.78125 74.21875 
z
" id="DejaVuSans-48"/>
      </defs>
      <g transform="translate(43.55229 322.182437)scale(0.1 -0.1)">
       <use xlink:href="#DejaVuSans-8722"/>
       <use x="83.789062" xlink:href="#DejaVuSans-56"/>
       <use x="147.412109" xlink:href="#DejaVuSans-48"/>
       <use x="211.035156" xlink:href="#DejaVuSans-48"/>
      </g>
     </g>
    </g>
    <g id="xtick_2">
     <g id="line2d_3">
      <g>
       <use style="stroke:#000000;stroke-width:0.8;" x="116.721386" xlink:href="#m7adc696cdf" y="307.584"/>
      </g>
     </g>
     <g id="text_2">
      <!-- 600 -->
      <defs>
       <path d="M 33.015625 40.375 
Q 26.375 40.375 22.484375 35.828125 
Q 18.609375 31.296875 18.609375 23.390625 
Q 18.609375 15.53125 22.484375 10.953125 
Q 26.375 6.390625 33.015625 6.390625 
Q 39.65625 6.390625 43.53125 10.953125 
Q 47.40625 15.53125 47.40625 23.390625 
Q 47.40625 31.296875 43.53125 35.828125 
Q 39.65625 40.375 33.015625 40.375 
z
M 52.59375 71.296875 
L 52.59375 62.3125 
Q 48.875 64.0625 45.09375 64.984375 
Q 41.3125 65.921875 37.59375 65.921875 
Q 27.828125 65.921875 22.671875 59.328125 
Q 17.53125 52.734375 16.796875 39.40625 
Q 19.671875 43.65625 24.015625 45.921875 
Q 28.375 48.1875 33.59375 48.1875 
Q 44.578125 48.1875 50.953125 41.515625 
Q 57.328125 34.859375 57.328125 23.390625 
Q 57.328125 12.15625 50.6875 5.359375 
Q 44.046875 -1.421875 33.015625 -1.421875 
Q 20.359375 -1.421875 13.671875 8.265625 
Q 6.984375 17.96875 6.984375 36.375 
Q 6.984375 53.65625 15.1875 63.9375 
Q 23.390625 74.21875 37.203125 74.21875 
Q 40.921875 74.21875 44.703125 73.484375 
Q 48.484375 72.75 52.59375 71.296875 
z
" id="DejaVuSans-54"/>
      </defs>
      <g transform="translate(102.987792 322.182437)scale(0.1 -0.1)">
       <use xlink:href="#DejaVuSans-8722"/>
       <use x="83.789062" xlink:href="#DejaVuSans-54"/>
       <use x="147.412109" xlink:href="#DejaVuSans-48"/>
       <use x="211.035156" xlink:href="#DejaVuSans-48"/>
      </g>
     </g>
    </g>
    <g id="xtick_3">
     <g id="line2d_4">
      <g>
       <use style="stroke:#000000;stroke-width:0.8;" x="176.156888" xlink:href="#m7adc696cdf" y="307.584"/>
      </g>
     </g>
     <g id="text_3">
      <!-- 400 -->
      <defs>
       <path d="M 37.796875 64.3125 
L 12.890625 25.390625 
L 37.796875 25.390625 
z
M 35.203125 72.90625 
L 47.609375 72.90625 
L 47.609375 25.390625 
L 58.015625 25.390625 
L 58.015625 17.1875 
L 47.609375 17.1875 
L 47.609375 0 
L 37.796875 0 
L 37.796875 17.1875 
L 4.890625 17.1875 
L 4.890625 26.703125 
z
" id="DejaVuSans-52"/>
      </defs>
      <g transform="translate(162.423295 322.182437)scale(0.1 -0.1)">
       <use xlink:href="#DejaVuSans-8722"/>
       <use x="83.789062" xlink:href="#DejaVuSans-52"/>
       <use x="147.412109" xlink:href="#DejaVuSans-48"/>
       <use x="211.035156" xlink:href="#DejaVuSans-48"/>
      </g>
     </g>
    </g>
    <g id="xtick_4">
     <g id="line2d_5">
      <g>
       <use style="stroke:#000000;stroke-width:0.8;" x="235.592391" xlink:href="#m7adc696cdf" y="307.584"/>
      </g>
     </g>
     <g id="text_4">
      <!-- 200 -->
      <defs>
       <path d="M 19.1875 8.296875 
L 53.609375 8.296875 
L 53.609375 0 
L 7.328125 0 
L 7.328125 8.296875 
Q 12.9375 14.109375 22.625 23.890625 
Q 32.328125 33.6875 34.8125 36.53125 
Q 39.546875 41.84375 41.421875 45.53125 
Q 43.3125 49.21875 43.3125 52.78125 
Q 43.3125 58.59375 39.234375 62.25 
Q 35.15625 65.921875 28.609375 65.921875 
Q 23.96875 65.921875 18.8125 64.3125 
Q 13.671875 62.703125 7.8125 59.421875 
L 7.8125 69.390625 
Q 13.765625 71.78125 18.9375 73 
Q 24.125 74.21875 28.421875 74.21875 
Q 39.75 74.21875 46.484375 68.546875 
Q 53.21875 62.890625 53.21875 53.421875 
Q 53.21875 48.921875 51.53125 44.890625 
Q 49.859375 40.875 45.40625 35.40625 
Q 44.1875 33.984375 37.640625 27.21875 
Q 31.109375 20.453125 19.1875 8.296875 
z
" id="DejaVuSans-50"/>
      </defs>
      <g transform="translate(221.858797 322.182437)scale(0.1 -0.1)">
       <use xlink:href="#DejaVuSans-8722"/>
       <use x="83.789062" xlink:href="#DejaVuSans-50"/>
       <use x="147.412109" xlink:href="#DejaVuSans-48"/>
       <use x="211.035156" xlink:href="#DejaVuSans-48"/>
      </g>
     </g>
    </g>
    <g id="xtick_5">
     <g id="line2d_6">
      <g>
       <use style="stroke:#000000;stroke-width:0.8;" x="295.027893" xlink:href="#m7adc696cdf" y="307.584"/>
      </g>
     </g>
     <g id="text_5">
      <!-- 0 -->
      <g transform="translate(291.846643 322.182437)scale(0.1 -0.1)">
       <use xlink:href="#DejaVuSans-48"/>
      </g>
     </g>
    </g>
    <g id="xtick_6">
     <g id="line2d_7">
      <g>
       <use style="stroke:#000000;stroke-width:0.8;" x="354.463396" xlink:href="#m7adc696cdf" y="307.584"/>
      </g>
     </g>
     <g id="text_6">
      <!-- 200 -->
      <g transform="translate(344.919646 322.182437)scale(0.1 -0.1)">
       <use xlink:href="#DejaVuSans-50"/>
       <use x="63.623047" xlink:href="#DejaVuSans-48"/>
       <use x="127.246094" xlink:href="#DejaVuSans-48"/>
      </g>
     </g>
    </g>
    <g id="xtick_7">
     <g id="line2d_8">
      <g>
       <use style="stroke:#000000;stroke-width:0.8;" x="413.898899" xlink:href="#m7adc696cdf" y="307.584"/>
      </g>
     </g>
     <g id="text_7">
      <!-- 400 -->
      <g transform="translate(404.355149 322.182437)scale(0.1 -0.1)">
       <use xlink:href="#DejaVuSans-52"/>
       <use x="63.623047" xlink:href="#DejaVuSans-48"/>
       <use x="127.246094" xlink:href="#DejaVuSans-48"/>
      </g>
     </g>
    </g>
   </g>
   <g id="matplotlib.axis_2">
    <g id="ytick_1">
     <g id="line2d_9">
      <defs>
       <path d="M 0 0 
L -3.5 0 
" id="mc79ea6472e" style="stroke:#000000;stroke-width:0.8;"/>
      </defs>
      <g>
       <use style="stroke:#000000;stroke-width:0.8;" x="57.6" xlink:href="#mc79ea6472e" y="300.967129"/>
      </g>
     </g>
     <g id="text_8">
      <!-- 800 -->
      <g transform="translate(23.132812 304.766348)scale(0.1 -0.1)">
       <use xlink:href="#DejaVuSans-8722"/>
       <use x="83.789062" xlink:href="#DejaVuSans-56"/>
       <use x="147.412109" xlink:href="#DejaVuSans-48"/>
       <use x="211.035156" xlink:href="#DejaVuSans-48"/>
      </g>
     </g>
    </g>
    <g id="ytick_2">
     <g id="line2d_10">
      <g>
       <use style="stroke:#000000;stroke-width:0.8;" x="57.6" xlink:href="#mc79ea6472e" y="269.332435"/>
      </g>
     </g>
     <g id="text_9">
      <!-- 700 -->
      <defs>
       <path d="M 8.203125 72.90625 
L 55.078125 72.90625 
L 55.078125 68.703125 
L 28.609375 0 
L 18.3125 0 
L 43.21875 64.59375 
L 8.203125 64.59375 
z
" id="DejaVuSans-55"/>
      </defs>
      <g transform="translate(23.132812 273.131653)scale(0.1 -0.1)">
       <use xlink:href="#DejaVuSans-8722"/>
       <use x="83.789062" xlink:href="#DejaVuSans-55"/>
       <use x="147.412109" xlink:href="#DejaVuSans-48"/>
       <use x="211.035156" xlink:href="#DejaVuSans-48"/>
      </g>
     </g>
    </g>
    <g id="ytick_3">
     <g id="line2d_11">
      <g>
       <use style="stroke:#000000;stroke-width:0.8;" x="57.6" xlink:href="#mc79ea6472e" y="237.69774"/>
      </g>
     </g>
     <g id="text_10">
      <!-- 600 -->
      <g transform="translate(23.132812 241.496959)scale(0.1 -0.1)">
       <use xlink:href="#DejaVuSans-8722"/>
       <use x="83.789062" xlink:href="#DejaVuSans-54"/>
       <use x="147.412109" xlink:href="#DejaVuSans-48"/>
       <use x="211.035156" xlink:href="#DejaVuSans-48"/>
      </g>
     </g>
    </g>
    <g id="ytick_4">
     <g id="line2d_12">
      <g>
       <use style="stroke:#000000;stroke-width:0.8;" x="57.6" xlink:href="#mc79ea6472e" y="206.063045"/>
      </g>
     </g>
     <g id="text_11">
      <!-- 500 -->
      <defs>
       <path d="M 10.796875 72.90625 
L 49.515625 72.90625 
L 49.515625 64.59375 
L 19.828125 64.59375 
L 19.828125 46.734375 
Q 21.96875 47.46875 24.109375 47.828125 
Q 26.265625 48.1875 28.421875 48.1875 
Q 40.625 48.1875 47.75 41.5 
Q 54.890625 34.8125 54.890625 23.390625 
Q 54.890625 11.625 47.5625 5.09375 
Q 40.234375 -1.421875 26.90625 -1.421875 
Q 22.3125 -1.421875 17.546875 -0.640625 
Q 12.796875 0.140625 7.71875 1.703125 
L 7.71875 11.625 
Q 12.109375 9.234375 16.796875 8.0625 
Q 21.484375 6.890625 26.703125 6.890625 
Q 35.15625 6.890625 40.078125 11.328125 
Q 45.015625 15.765625 45.015625 23.390625 
Q 45.015625 31 40.078125 35.4375 
Q 35.15625 39.890625 26.703125 39.890625 
Q 22.75 39.890625 18.8125 39.015625 
Q 14.890625 38.140625 10.796875 36.28125 
z
" id="DejaVuSans-53"/>
      </defs>
      <g transform="translate(23.132812 209.862264)scale(0.1 -0.1)">
       <use xlink:href="#DejaVuSans-8722"/>
       <use x="83.789062" xlink:href="#DejaVuSans-53"/>
       <use x="147.412109" xlink:href="#DejaVuSans-48"/>
       <use x="211.035156" xlink:href="#DejaVuSans-48"/>
      </g>
     </g>
    </g>
    <g id="ytick_5">
     <g id="line2d_13">
      <g>
       <use style="stroke:#000000;stroke-width:0.8;" x="57.6" xlink:href="#mc79ea6472e" y="174.428351"/>
      </g>
     </g>
     <g id="text_12">
      <!-- 400 -->
      <g transform="translate(23.132812 178.227569)scale(0.1 -0.1)">
       <use xlink:href="#DejaVuSans-8722"/>
       <use x="83.789062" xlink:href="#DejaVuSans-52"/>
       <use x="147.412109" xlink:href="#DejaVuSans-48"/>
       <use x="211.035156" xlink:href="#DejaVuSans-48"/>
      </g>
     </g>
    </g>
    <g id="ytick_6">
     <g id="line2d_14">
      <g>
       <use style="stroke:#000000;stroke-width:0.8;" x="57.6" xlink:href="#mc79ea6472e" y="142.793656"/>
      </g>
     </g>
     <g id="text_13">
      <!-- 300 -->
      <defs>
       <path d="M 40.578125 39.3125 
Q 47.65625 37.796875 51.625 33 
Q 55.609375 28.21875 55.609375 21.1875 
Q 55.609375 10.40625 48.1875 4.484375 
Q 40.765625 -1.421875 27.09375 -1.421875 
Q 22.515625 -1.421875 17.65625 -0.515625 
Q 12.796875 0.390625 7.625 2.203125 
L 7.625 11.71875 
Q 11.71875 9.328125 16.59375 8.109375 
Q 21.484375 6.890625 26.8125 6.890625 
Q 36.078125 6.890625 40.9375 10.546875 
Q 45.796875 14.203125 45.796875 21.1875 
Q 45.796875 27.640625 41.28125 31.265625 
Q 36.765625 34.90625 28.71875 34.90625 
L 20.21875 34.90625 
L 20.21875 43.015625 
L 29.109375 43.015625 
Q 36.375 43.015625 40.234375 45.921875 
Q 44.09375 48.828125 44.09375 54.296875 
Q 44.09375 59.90625 40.109375 62.90625 
Q 36.140625 65.921875 28.71875 65.921875 
Q 24.65625 65.921875 20.015625 65.03125 
Q 15.375 64.15625 9.8125 62.3125 
L 9.8125 71.09375 
Q 15.4375 72.65625 20.34375 73.4375 
Q 25.25 74.21875 29.59375 74.21875 
Q 40.828125 74.21875 47.359375 69.109375 
Q 53.90625 64.015625 53.90625 55.328125 
Q 53.90625 49.265625 50.4375 45.09375 
Q 46.96875 40.921875 40.578125 39.3125 
z
" id="DejaVuSans-51"/>
      </defs>
      <g transform="translate(23.132812 146.592875)scale(0.1 -0.1)">
       <use xlink:href="#DejaVuSans-8722"/>
       <use x="83.789062" xlink:href="#DejaVuSans-51"/>
       <use x="147.412109" xlink:href="#DejaVuSans-48"/>
       <use x="211.035156" xlink:href="#DejaVuSans-48"/>
      </g>
     </g>
    </g>
    <g id="ytick_7">
     <g id="line2d_15">
      <g>
       <use style="stroke:#000000;stroke-width:0.8;" x="57.6" xlink:href="#mc79ea6472e" y="111.158962"/>
      </g>
     </g>
     <g id="text_14">
      <!-- 200 -->
      <g transform="translate(23.132812 114.95818)scale(0.1 -0.1)">
       <use xlink:href="#DejaVuSans-8722"/>
       <use x="83.789062" xlink:href="#DejaVuSans-50"/>
       <use x="147.412109" xlink:href="#DejaVuSans-48"/>
       <use x="211.035156" xlink:href="#DejaVuSans-48"/>
      </g>
     </g>
    </g>
    <g id="ytick_8">
     <g id="line2d_16">
      <g>
       <use style="stroke:#000000;stroke-width:0.8;" x="57.6" xlink:href="#mc79ea6472e" y="79.524267"/>
      </g>
     </g>
     <g id="text_15">
      <!-- 100 -->
      <defs>
       <path d="M 12.40625 8.296875 
L 28.515625 8.296875 
L 28.515625 63.921875 
L 10.984375 60.40625 
L 10.984375 69.390625 
L 28.421875 72.90625 
L 38.28125 72.90625 
L 38.28125 8.296875 
L 54.390625 8.296875 
L 54.390625 0 
L 12.40625 0 
z
" id="DejaVuSans-49"/>
      </defs>
      <g transform="translate(23.132812 83.323486)scale(0.1 -0.1)">
       <use xlink:href="#DejaVuSans-8722"/>
       <use x="83.789062" xlink:href="#DejaVuSans-49"/>
       <use x="147.412109" xlink:href="#DejaVuSans-48"/>
       <use x="211.035156" xlink:href="#DejaVuSans-48"/>
      </g>
     </g>
    </g>
    <g id="ytick_9">
     <g id="line2d_17">
      <g>
       <use style="stroke:#000000;stroke-width:0.8;" x="57.6" xlink:href="#mc79ea6472e" y="47.889572"/>
      </g>
     </g>
     <g id="text_16">
      <!-- 0 -->
      <g transform="translate(44.2375 51.688791)scale(0.1 -0.1)">
       <use xlink:href="#DejaVuSans-48"/>
      </g>
     </g>
    </g>
   </g>
   <g id="line2d_18">
    <path clip-path="url(#pf589d98faf)" d="M 241.12796 155.688519 
L 340.449943 176.557232 
L 190.280975 273.167534 
L 171.37708 274.659902 
L 371.022546 190.22631 
L 292.229235 67.862223 
L 232.96173 63.230145 
L 153.105165 203.741609 
L 139.561117 239.790631 
L 78.621388 288.677148 
L 302.650123 198.392721 
L 381.667429 148.146982 
L 179.315166 222.657643 
" style="fill:none;stroke:#ff0000;stroke-linecap:square;stroke-width:0.5;"/>
   </g>
   <g id="patch_3">
    <path d="M 57.6 307.584 
L 57.6 41.472 
" style="fill:none;stroke:#000000;stroke-linecap:square;stroke-linejoin:miter;stroke-width:0.8;"/>
   </g>
   <g id="patch_4">
    <path d="M 414.72 307.584 
L 414.72 41.472 
" style="fill:none;stroke:#000000;stroke-linecap:square;stroke-linejoin:miter;stroke-width:0.8;"/>
   </g>
   <g id="patch_5">
    <path d="M 57.6 307.584 
L 414.72 307.584 
" style="fill:none;stroke:#000000;stroke-linecap:square;stroke-linejoin:miter;stroke-width:0.8;"/>
   </g>
   <g id="patch_6">
    <path d="M 57.6 41.472 
L 414.72 41.472 
" style="fill:none;stroke:#000000;stroke-linecap:square;stroke-linejoin:miter;stroke-width:0.8;"/>
   </g>
   <g id="PathCollection_1">
    <defs>
     <path d="M 0 2.738613 
C 0.726289 2.738613 1.422928 2.450055 1.936492 1.936492 
C 2.450055 1.422928 2.738613 0.726289 2.738613 0 
C 2.738613 -0.726289 2.450055 -1.422928 1.936492 -1.936492 
C 1.422928 -2.450055 0.726289 -2.738613 0 -2.738613 
C -0.726289 -2.738613 -1.422928 -2.450055 -1.936492 -1.936492 
C -2.450055 -1.422928 -2.738613 -0.726289 -2.738613 0 
C -2.738613 0.726289 -2.450055 1.422928 -1.936492 1.936492 
C -1.422928 2.450055 -0.726289 2.738613 0 2.738613 
z
" id="mb124ffbc54" style="stroke:#ff0000;"/>
    </defs>
    <g clip-path="url(#pf589d98faf)">
     <use style="fill:#ff0000;stroke:#ff0000;" x="241.12796" xlink:href="#mb124ffbc54" y="155.688519"/>
     <use style="fill:#ff0000;stroke:#ff0000;" x="340.449943" xlink:href="#mb124ffbc54" y="176.557232"/>
     <use style="fill:#ff0000;stroke:#ff0000;" x="190.280975" xlink:href="#mb124ffbc54" y="273.167534"/>
     <use style="fill:#ff0000;stroke:#ff0000;" x="171.37708" xlink:href="#mb124ffbc54" y="274.659902"/>
     <use style="fill:#ff0000;stroke:#ff0000;" x="371.022546" xlink:href="#mb124ffbc54" y="190.22631"/>
     <use style="fill:#ff0000;stroke:#ff0000;" x="292.229235" xlink:href="#mb124ffbc54" y="67.862223"/>
     <use style="fill:#ff0000;stroke:#ff0000;" x="232.96173" xlink:href="#mb124ffbc54" y="63.230145"/>
     <use style="fill:#ff0000;stroke:#ff0000;" x="153.105165" xlink:href="#mb124ffbc54" y="203.741609"/>
     <use style="fill:#ff0000;stroke:#ff0000;" x="139.561117" xlink:href="#mb124ffbc54" y="239.790631"/>
     <use style="fill:#ff0000;stroke:#ff0000;" x="78.621388" xlink:href="#mb124ffbc54" y="288.677148"/>
     <use style="fill:#ff0000;stroke:#ff0000;" x="302.650123" xlink:href="#mb124ffbc54" y="198.392721"/>
     <use style="fill:#ff0000;stroke:#ff0000;" x="381.667429" xlink:href="#mb124ffbc54" y="148.146982"/>
     <use style="fill:#ff0000;stroke:#ff0000;" x="179.315166" xlink:href="#mb124ffbc54" y="222.657643"/>
    </g>
   </g>
   <g id="text_17">
    <!-- (47) Subject: s3, Known = False, Degree = 2, Duration = 0.1 -->
    <defs>
     <path d="M 31 75.875 
Q 24.46875 64.65625 21.28125 53.65625 
Q 18.109375 42.671875 18.109375 31.390625 
Q 18.109375 20.125 21.3125 9.0625 
Q 24.515625 -2 31 -13.1875 
L 23.1875 -13.1875 
Q 15.875 -1.703125 12.234375 9.375 
Q 8.59375 20.453125 8.59375 31.390625 
Q 8.59375 42.28125 12.203125 53.3125 
Q 15.828125 64.359375 23.1875 75.875 
z
" id="DejaVuSans-40"/>
     <path d="M 8.015625 75.875 
L 15.828125 75.875 
Q 23.140625 64.359375 26.78125 53.3125 
Q 30.421875 42.28125 30.421875 31.390625 
Q 30.421875 20.453125 26.78125 9.375 
Q 23.140625 -1.703125 15.828125 -13.1875 
L 8.015625 -13.1875 
Q 14.5 -2 17.703125 9.0625 
Q 20.90625 20.125 20.90625 31.390625 
Q 20.90625 42.671875 17.703125 53.65625 
Q 14.5 64.65625 8.015625 75.875 
z
" id="DejaVuSans-41"/>
     <path id="DejaVuSans-32"/>
     <path d="M 53.515625 70.515625 
L 53.515625 60.890625 
Q 47.90625 63.578125 42.921875 64.890625 
Q 37.9375 66.21875 33.296875 66.21875 
Q 25.25 66.21875 20.875 63.09375 
Q 16.5 59.96875 16.5 54.203125 
Q 16.5 49.359375 19.40625 46.890625 
Q 22.3125 44.4375 30.421875 42.921875 
L 36.375 41.703125 
Q 47.40625 39.59375 52.65625 34.296875 
Q 57.90625 29 57.90625 20.125 
Q 57.90625 9.515625 50.796875 4.046875 
Q 43.703125 -1.421875 29.984375 -1.421875 
Q 24.8125 -1.421875 18.96875 -0.25 
Q 13.140625 0.921875 6.890625 3.21875 
L 6.890625 13.375 
Q 12.890625 10.015625 18.65625 8.296875 
Q 24.421875 6.59375 29.984375 6.59375 
Q 38.421875 6.59375 43.015625 9.90625 
Q 47.609375 13.234375 47.609375 19.390625 
Q 47.609375 24.75 44.3125 27.78125 
Q 41.015625 30.8125 33.5 32.328125 
L 27.484375 33.5 
Q 16.453125 35.6875 11.515625 40.375 
Q 6.59375 45.0625 6.59375 53.421875 
Q 6.59375 63.09375 13.40625 68.65625 
Q 20.21875 74.21875 32.171875 74.21875 
Q 37.3125 74.21875 42.625 73.28125 
Q 47.953125 72.359375 53.515625 70.515625 
z
" id="DejaVuSans-83"/>
     <path d="M 8.5 21.578125 
L 8.5 54.6875 
L 17.484375 54.6875 
L 17.484375 21.921875 
Q 17.484375 14.15625 20.5 10.265625 
Q 23.53125 6.390625 29.59375 6.390625 
Q 36.859375 6.390625 41.078125 11.03125 
Q 45.3125 15.671875 45.3125 23.6875 
L 45.3125 54.6875 
L 54.296875 54.6875 
L 54.296875 0 
L 45.3125 0 
L 45.3125 8.40625 
Q 42.046875 3.421875 37.71875 1 
Q 33.40625 -1.421875 27.6875 -1.421875 
Q 18.265625 -1.421875 13.375 4.4375 
Q 8.5 10.296875 8.5 21.578125 
z
M 31.109375 56 
z
" id="DejaVuSans-117"/>
     <path d="M 48.6875 27.296875 
Q 48.6875 37.203125 44.609375 42.84375 
Q 40.53125 48.484375 33.40625 48.484375 
Q 26.265625 48.484375 22.1875 42.84375 
Q 18.109375 37.203125 18.109375 27.296875 
Q 18.109375 17.390625 22.1875 11.75 
Q 26.265625 6.109375 33.40625 6.109375 
Q 40.53125 6.109375 44.609375 11.75 
Q 48.6875 17.390625 48.6875 27.296875 
z
M 18.109375 46.390625 
Q 20.953125 51.265625 25.265625 53.625 
Q 29.59375 56 35.59375 56 
Q 45.5625 56 51.78125 48.09375 
Q 58.015625 40.1875 58.015625 27.296875 
Q 58.015625 14.40625 51.78125 6.484375 
Q 45.5625 -1.421875 35.59375 -1.421875 
Q 29.59375 -1.421875 25.265625 0.953125 
Q 20.953125 3.328125 18.109375 8.203125 
L 18.109375 0 
L 9.078125 0 
L 9.078125 75.984375 
L 18.109375 75.984375 
z
" id="DejaVuSans-98"/>
     <path d="M 9.421875 54.6875 
L 18.40625 54.6875 
L 18.40625 -0.984375 
Q 18.40625 -11.421875 14.421875 -16.109375 
Q 10.453125 -20.796875 1.609375 -20.796875 
L -1.8125 -20.796875 
L -1.8125 -13.1875 
L 0.59375 -13.1875 
Q 5.71875 -13.1875 7.5625 -10.8125 
Q 9.421875 -8.453125 9.421875 -0.984375 
z
M 9.421875 75.984375 
L 18.40625 75.984375 
L 18.40625 64.59375 
L 9.421875 64.59375 
z
" id="DejaVuSans-106"/>
     <path d="M 56.203125 29.59375 
L 56.203125 25.203125 
L 14.890625 25.203125 
Q 15.484375 15.921875 20.484375 11.0625 
Q 25.484375 6.203125 34.421875 6.203125 
Q 39.59375 6.203125 44.453125 7.46875 
Q 49.3125 8.734375 54.109375 11.28125 
L 54.109375 2.78125 
Q 49.265625 0.734375 44.1875 -0.34375 
Q 39.109375 -1.421875 33.890625 -1.421875 
Q 20.796875 -1.421875 13.15625 6.1875 
Q 5.515625 13.8125 5.515625 26.8125 
Q 5.515625 40.234375 12.765625 48.109375 
Q 20.015625 56 32.328125 56 
Q 43.359375 56 49.78125 48.890625 
Q 56.203125 41.796875 56.203125 29.59375 
z
M 47.21875 32.234375 
Q 47.125 39.59375 43.09375 43.984375 
Q 39.0625 48.390625 32.421875 48.390625 
Q 24.90625 48.390625 20.390625 44.140625 
Q 15.875 39.890625 15.1875 32.171875 
z
" id="DejaVuSans-101"/>
     <path d="M 48.78125 52.59375 
L 48.78125 44.1875 
Q 44.96875 46.296875 41.140625 47.34375 
Q 37.3125 48.390625 33.40625 48.390625 
Q 24.65625 48.390625 19.8125 42.84375 
Q 14.984375 37.3125 14.984375 27.296875 
Q 14.984375 17.28125 19.8125 11.734375 
Q 24.65625 6.203125 33.40625 6.203125 
Q 37.3125 6.203125 41.140625 7.25 
Q 44.96875 8.296875 48.78125 10.40625 
L 48.78125 2.09375 
Q 45.015625 0.34375 40.984375 -0.53125 
Q 36.96875 -1.421875 32.421875 -1.421875 
Q 20.0625 -1.421875 12.78125 6.34375 
Q 5.515625 14.109375 5.515625 27.296875 
Q 5.515625 40.671875 12.859375 48.328125 
Q 20.21875 56 33.015625 56 
Q 37.15625 56 41.109375 55.140625 
Q 45.0625 54.296875 48.78125 52.59375 
z
" id="DejaVuSans-99"/>
     <path d="M 18.3125 70.21875 
L 18.3125 54.6875 
L 36.8125 54.6875 
L 36.8125 47.703125 
L 18.3125 47.703125 
L 18.3125 18.015625 
Q 18.3125 11.328125 20.140625 9.421875 
Q 21.96875 7.515625 27.59375 7.515625 
L 36.8125 7.515625 
L 36.8125 0 
L 27.59375 0 
Q 17.1875 0 13.234375 3.875 
Q 9.28125 7.765625 9.28125 18.015625 
L 9.28125 47.703125 
L 2.6875 47.703125 
L 2.6875 54.6875 
L 9.28125 54.6875 
L 9.28125 70.21875 
z
" id="DejaVuSans-116"/>
     <path d="M 11.71875 12.40625 
L 22.015625 12.40625 
L 22.015625 0 
L 11.71875 0 
z
M 11.71875 51.703125 
L 22.015625 51.703125 
L 22.015625 39.3125 
L 11.71875 39.3125 
z
" id="DejaVuSans-58"/>
     <path d="M 44.28125 53.078125 
L 44.28125 44.578125 
Q 40.484375 46.53125 36.375 47.5 
Q 32.28125 48.484375 27.875 48.484375 
Q 21.1875 48.484375 17.84375 46.4375 
Q 14.5 44.390625 14.5 40.28125 
Q 14.5 37.15625 16.890625 35.375 
Q 19.28125 33.59375 26.515625 31.984375 
L 29.59375 31.296875 
Q 39.15625 29.25 43.1875 25.515625 
Q 47.21875 21.78125 47.21875 15.09375 
Q 47.21875 7.46875 41.1875 3.015625 
Q 35.15625 -1.421875 24.609375 -1.421875 
Q 20.21875 -1.421875 15.453125 -0.5625 
Q 10.6875 0.296875 5.421875 2 
L 5.421875 11.28125 
Q 10.40625 8.6875 15.234375 7.390625 
Q 20.0625 6.109375 24.8125 6.109375 
Q 31.15625 6.109375 34.5625 8.28125 
Q 37.984375 10.453125 37.984375 14.40625 
Q 37.984375 18.0625 35.515625 20.015625 
Q 33.0625 21.96875 24.703125 23.78125 
L 21.578125 24.515625 
Q 13.234375 26.265625 9.515625 29.90625 
Q 5.8125 33.546875 5.8125 39.890625 
Q 5.8125 47.609375 11.28125 51.796875 
Q 16.75 56 26.8125 56 
Q 31.78125 56 36.171875 55.265625 
Q 40.578125 54.546875 44.28125 53.078125 
z
" id="DejaVuSans-115"/>
     <path d="M 11.71875 12.40625 
L 22.015625 12.40625 
L 22.015625 4 
L 14.015625 -11.625 
L 7.71875 -11.625 
L 11.71875 4 
z
" id="DejaVuSans-44"/>
     <path d="M 9.8125 72.90625 
L 19.671875 72.90625 
L 19.671875 42.09375 
L 52.390625 72.90625 
L 65.09375 72.90625 
L 28.90625 38.921875 
L 67.671875 0 
L 54.6875 0 
L 19.671875 35.109375 
L 19.671875 0 
L 9.8125 0 
z
" id="DejaVuSans-75"/>
     <path d="M 54.890625 33.015625 
L 54.890625 0 
L 45.90625 0 
L 45.90625 32.71875 
Q 45.90625 40.484375 42.875 44.328125 
Q 39.84375 48.1875 33.796875 48.1875 
Q 26.515625 48.1875 22.3125 43.546875 
Q 18.109375 38.921875 18.109375 30.90625 
L 18.109375 0 
L 9.078125 0 
L 9.078125 54.6875 
L 18.109375 54.6875 
L 18.109375 46.1875 
Q 21.34375 51.125 25.703125 53.5625 
Q 30.078125 56 35.796875 56 
Q 45.21875 56 50.046875 50.171875 
Q 54.890625 44.34375 54.890625 33.015625 
z
" id="DejaVuSans-110"/>
     <path d="M 30.609375 48.390625 
Q 23.390625 48.390625 19.1875 42.75 
Q 14.984375 37.109375 14.984375 27.296875 
Q 14.984375 17.484375 19.15625 11.84375 
Q 23.34375 6.203125 30.609375 6.203125 
Q 37.796875 6.203125 41.984375 11.859375 
Q 46.1875 17.53125 46.1875 27.296875 
Q 46.1875 37.015625 41.984375 42.703125 
Q 37.796875 48.390625 30.609375 48.390625 
z
M 30.609375 56 
Q 42.328125 56 49.015625 48.375 
Q 55.71875 40.765625 55.71875 27.296875 
Q 55.71875 13.875 49.015625 6.21875 
Q 42.328125 -1.421875 30.609375 -1.421875 
Q 18.84375 -1.421875 12.171875 6.21875 
Q 5.515625 13.875 5.515625 27.296875 
Q 5.515625 40.765625 12.171875 48.375 
Q 18.84375 56 30.609375 56 
z
" id="DejaVuSans-111"/>
     <path d="M 4.203125 54.6875 
L 13.1875 54.6875 
L 24.421875 12.015625 
L 35.59375 54.6875 
L 46.1875 54.6875 
L 57.421875 12.015625 
L 68.609375 54.6875 
L 77.59375 54.6875 
L 63.28125 0 
L 52.6875 0 
L 40.921875 44.828125 
L 29.109375 0 
L 18.5 0 
z
" id="DejaVuSans-119"/>
     <path d="M 10.59375 45.40625 
L 73.1875 45.40625 
L 73.1875 37.203125 
L 10.59375 37.203125 
z
M 10.59375 25.484375 
L 73.1875 25.484375 
L 73.1875 17.1875 
L 10.59375 17.1875 
z
" id="DejaVuSans-61"/>
     <path d="M 9.8125 72.90625 
L 51.703125 72.90625 
L 51.703125 64.59375 
L 19.671875 64.59375 
L 19.671875 43.109375 
L 48.578125 43.109375 
L 48.578125 34.8125 
L 19.671875 34.8125 
L 19.671875 0 
L 9.8125 0 
z
" id="DejaVuSans-70"/>
     <path d="M 34.28125 27.484375 
Q 23.390625 27.484375 19.1875 25 
Q 14.984375 22.515625 14.984375 16.5 
Q 14.984375 11.71875 18.140625 8.90625 
Q 21.296875 6.109375 26.703125 6.109375 
Q 34.1875 6.109375 38.703125 11.40625 
Q 43.21875 16.703125 43.21875 25.484375 
L 43.21875 27.484375 
z
M 52.203125 31.203125 
L 52.203125 0 
L 43.21875 0 
L 43.21875 8.296875 
Q 40.140625 3.328125 35.546875 0.953125 
Q 30.953125 -1.421875 24.3125 -1.421875 
Q 15.921875 -1.421875 10.953125 3.296875 
Q 6 8.015625 6 15.921875 
Q 6 25.140625 12.171875 29.828125 
Q 18.359375 34.515625 30.609375 34.515625 
L 43.21875 34.515625 
L 43.21875 35.40625 
Q 43.21875 41.609375 39.140625 45 
Q 35.0625 48.390625 27.6875 48.390625 
Q 23 48.390625 18.546875 47.265625 
Q 14.109375 46.140625 10.015625 43.890625 
L 10.015625 52.203125 
Q 14.9375 54.109375 19.578125 55.046875 
Q 24.21875 56 28.609375 56 
Q 40.484375 56 46.34375 49.84375 
Q 52.203125 43.703125 52.203125 31.203125 
z
" id="DejaVuSans-97"/>
     <path d="M 9.421875 75.984375 
L 18.40625 75.984375 
L 18.40625 0 
L 9.421875 0 
z
" id="DejaVuSans-108"/>
     <path d="M 19.671875 64.796875 
L 19.671875 8.109375 
L 31.59375 8.109375 
Q 46.6875 8.109375 53.6875 14.9375 
Q 60.6875 21.78125 60.6875 36.53125 
Q 60.6875 51.171875 53.6875 57.984375 
Q 46.6875 64.796875 31.59375 64.796875 
z
M 9.8125 72.90625 
L 30.078125 72.90625 
Q 51.265625 72.90625 61.171875 64.09375 
Q 71.09375 55.28125 71.09375 36.53125 
Q 71.09375 17.671875 61.125 8.828125 
Q 51.171875 0 30.078125 0 
L 9.8125 0 
z
" id="DejaVuSans-68"/>
     <path d="M 45.40625 27.984375 
Q 45.40625 37.75 41.375 43.109375 
Q 37.359375 48.484375 30.078125 48.484375 
Q 22.859375 48.484375 18.828125 43.109375 
Q 14.796875 37.75 14.796875 27.984375 
Q 14.796875 18.265625 18.828125 12.890625 
Q 22.859375 7.515625 30.078125 7.515625 
Q 37.359375 7.515625 41.375 12.890625 
Q 45.40625 18.265625 45.40625 27.984375 
z
M 54.390625 6.78125 
Q 54.390625 -7.171875 48.1875 -13.984375 
Q 42 -20.796875 29.203125 -20.796875 
Q 24.46875 -20.796875 20.265625 -20.09375 
Q 16.0625 -19.390625 12.109375 -17.921875 
L 12.109375 -9.1875 
Q 16.0625 -11.328125 19.921875 -12.34375 
Q 23.78125 -13.375 27.78125 -13.375 
Q 36.625 -13.375 41.015625 -8.765625 
Q 45.40625 -4.15625 45.40625 5.171875 
L 45.40625 9.625 
Q 42.625 4.78125 38.28125 2.390625 
Q 33.9375 0 27.875 0 
Q 17.828125 0 11.671875 7.65625 
Q 5.515625 15.328125 5.515625 27.984375 
Q 5.515625 40.671875 11.671875 48.328125 
Q 17.828125 56 27.875 56 
Q 33.9375 56 38.28125 53.609375 
Q 42.625 51.21875 45.40625 46.390625 
L 45.40625 54.6875 
L 54.390625 54.6875 
z
" id="DejaVuSans-103"/>
     <path d="M 41.109375 46.296875 
Q 39.59375 47.171875 37.8125 47.578125 
Q 36.03125 48 33.890625 48 
Q 26.265625 48 22.1875 43.046875 
Q 18.109375 38.09375 18.109375 28.8125 
L 18.109375 0 
L 9.078125 0 
L 9.078125 54.6875 
L 18.109375 54.6875 
L 18.109375 46.1875 
Q 20.953125 51.171875 25.484375 53.578125 
Q 30.03125 56 36.53125 56 
Q 37.453125 56 38.578125 55.875 
Q 39.703125 55.765625 41.0625 55.515625 
z
" id="DejaVuSans-114"/>
     <path d="M 9.421875 54.6875 
L 18.40625 54.6875 
L 18.40625 0 
L 9.421875 0 
z
M 9.421875 75.984375 
L 18.40625 75.984375 
L 18.40625 64.59375 
L 9.421875 64.59375 
z
" id="DejaVuSans-105"/>
     <path d="M 10.6875 12.40625 
L 21 12.40625 
L 21 0 
L 10.6875 0 
z
" id="DejaVuSans-46"/>
    </defs>
    <g transform="translate(53.559375 35.472)scale(0.12 -0.12)">
     <use xlink:href="#DejaVuSans-40"/>
     <use x="39.013672" xlink:href="#DejaVuSans-52"/>
     <use x="102.636719" xlink:href="#DejaVuSans-55"/>
     <use x="166.259766" xlink:href="#DejaVuSans-41"/>
     <use x="205.273438" xlink:href="#DejaVuSans-32"/>
     <use x="237.060547" xlink:href="#DejaVuSans-83"/>
     <use x="300.537109" xlink:href="#DejaVuSans-117"/>
     <use x="363.916016" xlink:href="#DejaVuSans-98"/>
     <use x="427.392578" xlink:href="#DejaVuSans-106"/>
     <use x="455.175781" xlink:href="#DejaVuSans-101"/>
     <use x="516.699219" xlink:href="#DejaVuSans-99"/>
     <use x="571.679688" xlink:href="#DejaVuSans-116"/>
     <use x="610.888672" xlink:href="#DejaVuSans-58"/>
     <use x="644.580078" xlink:href="#DejaVuSans-32"/>
     <use x="676.367188" xlink:href="#DejaVuSans-115"/>
     <use x="728.466797" xlink:href="#DejaVuSans-51"/>
     <use x="792.089844" xlink:href="#DejaVuSans-44"/>
     <use x="823.876953" xlink:href="#DejaVuSans-32"/>
     <use x="855.664062" xlink:href="#DejaVuSans-75"/>
     <use x="921.240234" xlink:href="#DejaVuSans-110"/>
     <use x="984.619141" xlink:href="#DejaVuSans-111"/>
     <use x="1045.800781" xlink:href="#DejaVuSans-119"/>
     <use x="1127.587891" xlink:href="#DejaVuSans-110"/>
     <use x="1190.966797" xlink:href="#DejaVuSans-32"/>
     <use x="1222.753906" xlink:href="#DejaVuSans-61"/>
     <use x="1306.542969" xlink:href="#DejaVuSans-32"/>
     <use x="1338.330078" xlink:href="#DejaVuSans-70"/>
     <use x="1395.708984" xlink:href="#DejaVuSans-97"/>
     <use x="1456.988281" xlink:href="#DejaVuSans-108"/>
     <use x="1484.771484" xlink:href="#DejaVuSans-115"/>
     <use x="1536.871094" xlink:href="#DejaVuSans-101"/>
     <use x="1598.394531" xlink:href="#DejaVuSans-44"/>
     <use x="1630.181641" xlink:href="#DejaVuSans-32"/>
     <use x="1661.96875" xlink:href="#DejaVuSans-68"/>
     <use x="1738.970703" xlink:href="#DejaVuSans-101"/>
     <use x="1800.494141" xlink:href="#DejaVuSans-103"/>
     <use x="1863.970703" xlink:href="#DejaVuSans-114"/>
     <use x="1905.052734" xlink:href="#DejaVuSans-101"/>
     <use x="1966.576172" xlink:href="#DejaVuSans-101"/>
     <use x="2028.099609" xlink:href="#DejaVuSans-32"/>
     <use x="2059.886719" xlink:href="#DejaVuSans-61"/>
     <use x="2143.675781" xlink:href="#DejaVuSans-32"/>
     <use x="2175.462891" xlink:href="#DejaVuSans-50"/>
     <use x="2239.085938" xlink:href="#DejaVuSans-44"/>
     <use x="2270.873047" xlink:href="#DejaVuSans-32"/>
     <use x="2302.660156" xlink:href="#DejaVuSans-68"/>
     <use x="2379.662109" xlink:href="#DejaVuSans-117"/>
     <use x="2443.041016" xlink:href="#DejaVuSans-114"/>
     <use x="2484.154297" xlink:href="#DejaVuSans-97"/>
     <use x="2545.433594" xlink:href="#DejaVuSans-116"/>
     <use x="2584.642578" xlink:href="#DejaVuSans-105"/>
     <use x="2612.425781" xlink:href="#DejaVuSans-111"/>
     <use x="2673.607422" xlink:href="#DejaVuSans-110"/>
     <use x="2736.986328" xlink:href="#DejaVuSans-32"/>
     <use x="2768.773438" xlink:href="#DejaVuSans-61"/>
     <use x="2852.5625" xlink:href="#DejaVuSans-32"/>
     <use x="2884.349609" xlink:href="#DejaVuSans-48"/>
     <use x="2947.972656" xlink:href="#DejaVuSans-46"/>
     <use x="2979.759766" xlink:href="#DejaVuSans-49"/>
    </g>
   </g>
  </g>
 </g>
 <defs>
  <clipPath id="pf589d98faf">
   <rect height="266.112" width="357.12" x="57.6" y="41.472"/>
  </clipPath>
 </defs>
</svg>
