<?xml version="1.0" encoding="utf-8" standalone="no"?>
<!DOCTYPE svg PUBLIC "-//W3C//DTD SVG 1.1//EN"
  "http://www.w3.org/Graphics/SVG/1.1/DTD/svg11.dtd">
<!-- Created with matplotlib (https://matplotlib.org/) -->
<svg height="345.6pt" version="1.1" viewBox="0 0 460.8 345.6" width="460.8pt" xmlns="http://www.w3.org/2000/svg" xmlns:xlink="http://www.w3.org/1999/xlink">
 <defs>
  <style type="text/css">
*{stroke-linecap:butt;stroke-linejoin:round;}
  </style>
 </defs>
 <g id="figure_1">
  <g id="patch_1">
   <path d="M 0 345.6 
L 460.8 345.6 
L 460.8 0 
L 0 0 
z
" style="fill:#ffffff;"/>
  </g>
  <g id="axes_1">
   <g id="patch_2">
    <path d="M 57.6 307.584 
L 414.72 307.584 
L 414.72 41.472 
L 57.6 41.472 
z
" style="fill:#ffffff;"/>
   </g>
   <g id="line2d_1">
    <path clip-path="url(#pf18dc62bc6)" d="M 83.179393 56.588596 
L 82.90573 56.334816 
L 82.079476 55.328982 
L 82.079476 54.824518 
L 81.805812 54.323149 
L 81.532149 54.069369 
L 81.258485 54.069369 
L 81.532149 54.069369 
L 81.805812 55.078298 
L 81.805812 56.084131 
L 82.079476 56.334816 
L 82.358402 56.084131 
L 82.358402 55.579667 
L 82.90573 55.328982 
L 82.90573 55.328982 
L 82.079476 55.579667 
L 81.532149 56.084131 
L 82.632066 56.084131 
L 82.90573 55.579667 
L 84.005647 55.579667 
L 84.279311 56.084131 
L 84.005647 56.334816 
L 83.179393 55.579667 
L 81.805812 54.824518 
L 81.258485 54.824518 
L 81.532149 55.078298 
L 82.358402 55.328982 
L 82.358402 55.833447 
L 82.079476 56.084131 
L 81.805812 55.833447 
L 81.805812 55.328982 
L 82.079476 55.078298 
L 82.079476 55.328982 
L 81.258485 55.328982 
L 80.979559 55.078298 
L 82.079476 55.078298 
L 82.90573 55.328982 
L 83.731983 55.328982 
L 84.005647 55.078298 
L 83.45832 54.824518 
L 83.179393 54.824518 
L 83.45832 55.328982 
L 83.731983 55.328982 
L 81.805812 54.069369 
L 81.805812 54.069369 
L 82.079476 54.573834 
L 82.079476 55.579667 
L 81.805812 55.328982 
L 81.805812 55.328982 
L 81.805812 56.334816 
L 80.705895 55.833447 
L 80.158568 55.078298 
L 80.705895 54.824518 
L 81.805812 55.328982 
L 82.358402 55.833447 
L 82.358402 55.579667 
L 82.079476 54.824518 
L 81.532149 54.824518 
L 80.979559 55.078298 
L 80.979559 55.328982 
L 81.258485 54.824518 
L 81.805812 55.078298 
L 81.805812 55.579667 
L 81.258485 56.084131 
L 81.258485 56.334816 
L 81.258485 56.334816 
L 81.532149 56.084131 
L 81.805812 55.328982 
L 82.079476 55.078298 
L 81.258485 54.323149 
L 81.532149 54.323149 
L 81.532149 55.078298 
L 82.079476 56.084131 
L 82.079476 54.824518 
L 81.532149 54.069369 
L 80.705895 53.568 
L 80.432231 54.069369 
L 80.705895 54.824518 
L 80.979559 55.078298 
L 81.532149 55.078298 
L 82.079476 56.334816 
L 81.805812 56.588596 
L 81.258485 56.084131 
L 80.432231 55.833447 
L 79.605978 55.833447 
L 79.879641 56.084131 
L 80.705895 56.334816 
L 80.979559 56.084131 
L 80.979559 55.833447 
L 80.705895 55.833447 
L 80.432231 56.334816 
L 80.705895 56.334816 
L 81.258485 56.084131 
L 81.532149 55.579667 
L 81.258485 54.824518 
L 80.705895 54.323149 
L 80.705895 54.573834 
L 80.979559 55.078298 
L 80.979559 55.078298 
L 80.705895 55.078298 
L 80.432231 55.833447 
L 80.705895 56.334816 
L 81.805812 55.833447 
L 82.079476 55.328982 
L 81.532149 55.078298 
L 80.432231 55.078298 
L 80.432231 55.328982 
L 80.979559 55.328982 
L 80.705895 56.334816 
L 80.158568 57.09306 
L 79.879641 56.83928 
L 80.158568 55.833447 
L 80.705895 55.579667 
L 80.705895 56.334816 
L 80.705895 55.579667 
L 80.979559 55.833447 
L 81.258485 56.588596 
L 80.979559 56.83928 
L 80.432231 56.588596 
L 80.158568 56.084131 
L 79.879641 56.334816 
L 79.879641 56.83928 
L 80.432231 57.343745 
L 80.432231 56.588596 
L 79.879641 56.334816 
L 79.332314 56.588596 
L 79.332314 56.334816 
L 79.605978 56.588596 
L 79.879641 57.09306 
L 79.879641 57.343745 
L 80.158568 57.09306 
L 79.879641 56.588596 
L 79.605978 56.588596 
L 79.332314 56.084131 
L 79.332314 55.833447 
L 79.879641 55.579667 
L 80.979559 55.833447 
L 81.258485 56.83928 
L 80.979559 57.848209 
L 80.432231 58.349578 
L 79.879641 58.098893 
L 79.605978 57.848209 
L 79.05865 57.848209 
L 78.784987 57.594429 
L 78.784987 57.09306 
L 79.332314 56.83928 
L 80.158568 56.83928 
L 80.432231 57.09306 
L 80.432231 57.848209 
L 80.432231 57.848209 
L 80.158568 57.594429 
L 79.879641 56.588596 
L 79.605978 56.588596 
L 79.879641 57.09306 
L 79.605978 57.848209 
L 79.605978 58.349578 
L 79.605978 58.349578 
L 80.979559 57.594429 
L 80.432231 57.594429 
L 79.05865 57.848209 
L 79.05865 57.848209 
L 79.05865 57.343745 
L 79.605978 57.343745 
L 79.605978 57.594429 
L 79.332314 58.098893 
L 79.332314 58.349578 
L 79.879641 58.603358 
L 80.158568 58.603358 
L 80.158568 58.098893 
L 79.605978 58.098893 
L 79.332314 58.349578 
L 78.50606 58.349578 
L 77.958733 58.098893 
L 78.50606 58.349578 
L 79.332314 58.603358 
L 79.605978 59.104727 
L 79.332314 58.854042 
L 79.05865 58.349578 
L 78.50606 57.594429 
L 77.685069 57.09306 
L 77.685069 57.594429 
L 78.50606 58.098893 
L 79.605978 57.594429 
L 79.879641 57.343745 
L 79.605978 57.09306 
L 79.332314 57.343745 
L 79.332314 57.343745 
L 79.332314 59.358507 
L 78.50606 59.859876 
L 78.232397 59.609191 
L 78.232397 59.104727 
L 77.958733 58.854042 
L 77.958733 59.104727 
L 78.232397 59.609191 
L 78.784987 59.609191 
L 79.332314 59.104727 
L 79.05865 58.854042 
L 78.232397 58.349578 
L 78.232397 58.349578 
L 79.332314 58.349578 
L 80.158568 58.603358 
L 80.158568 58.854042 
L 79.605978 59.104727 
L 78.232397 59.104727 
L 77.685069 58.854042 
L 77.685069 58.603358 
L 77.958733 58.603358 
L 78.232397 58.349578 
L 78.784987 58.349578 
L 78.784987 58.854042 
L 79.05865 60.113656 
L 78.784987 59.358507 
L 78.784987 58.349578 
L 79.05865 57.848209 
L 79.05865 59.104727 
L 79.332314 59.609191 
L 79.332314 59.609191 
L 79.05865 59.609191 
L 78.784987 59.104727 
L 78.232397 58.854042 
L 77.685069 59.104727 
L 77.132479 59.104727 
L 77.406143 59.104727 
L 77.958733 59.609191 
L 78.232397 60.113656 
L 78.232397 60.36434 
L 77.132479 59.859876 
L 76.858816 59.358507 
L 77.406143 59.104727 
L 77.958733 59.104727 
L 77.406143 59.104727 
L 77.958733 59.609191 
L 78.232397 60.36434 
L 78.784987 60.868804 
L 79.332314 60.615025 
L 78.784987 59.859876 
L 77.685069 59.358507 
L 77.132479 59.609191 
L 77.132479 60.36434 
L 77.406143 60.868804 
L 77.132479 61.119489 
L 76.585152 60.615025 
L 76.585152 60.615025 
L 76.858816 61.119489 
L 77.685069 61.370174 
L 78.50606 60.615025 
L 77.685069 60.615025 
L 77.685069 60.615025 
L 77.132479 60.868804 
L 77.406143 61.874638 
L 77.685069 62.379102 
L 77.685069 62.125323 
L 77.132479 61.623953 
L 77.958733 61.623953 
L 77.958733 61.623953 
L 77.685069 61.370174 
L 77.685069 61.119489 
L 78.232397 61.119489 
L 78.232397 60.615025 
L 78.50606 60.36434 
L 78.50606 60.36434 
L 78.50606 60.615025 
L 78.232397 60.36434 
L 78.232397 59.859876 
L 78.232397 59.859876 
L 77.132479 59.859876 
L 77.132479 60.113656 
L 77.685069 60.36434 
L 77.685069 60.36434 
L 76.585152 60.36434 
L 76.585152 60.36434 
L 76.858816 59.859876 
L 77.132479 59.609191 
L 77.132479 59.609191 
L 78.232397 60.615025 
L 78.232397 60.868804 
L 78.50606 61.370174 
L 78.50606 61.623953 
L 77.958733 61.874638 
L 77.132479 61.874638 
L 76.858816 61.623953 
L 76.858816 61.119489 
L 76.858816 61.370174 
L 77.132479 61.623953 
L 77.685069 61.874638 
L 77.685069 62.379102 
L 77.132479 62.629787 
L 76.585152 62.379102 
L 76.585152 60.36434 
L 76.585152 60.36434 
L 77.685069 61.874638 
L 77.406143 61.623953 
L 77.132479 61.874638 
L 76.858816 61.623953 
L 77.406143 59.859876 
L 77.132479 60.113656 
L 76.585152 59.859876 
L 75.758898 59.859876 
L 75.758898 60.615025 
L 76.306226 61.623953 
L 76.585152 61.874638 
L 76.032562 61.874638 
L 75.485235 61.119489 
L 75.758898 60.868804 
L 75.758898 60.868804 
L 75.758898 61.119489 
L 76.032562 61.623953 
L 76.306226 61.874638 
L 76.032562 61.623953 
L 76.032562 61.119489 
L 76.858816 61.119489 
L 76.858816 61.370174 
L 75.485235 61.370174 
L 75.206308 61.119489 
L 75.206308 60.36434 
L 75.485235 60.36434 
L 75.758898 60.868804 
L 75.758898 61.623953 
L 75.485235 61.874638 
L 75.485235 61.370174 
L 75.758898 61.119489 
L 76.306226 61.119489 
L 74.658981 61.119489 
L 74.932645 60.868804 
L 76.306226 60.868804 
L 77.132479 61.119489 
L 77.132479 61.370174 
L 76.585152 61.623953 
L 76.032562 61.370174 
L 75.485235 60.868804 
L 74.658981 60.615025 
L 73.832727 61.119489 
L 73.832727 62.125323 
L 74.385317 62.125323 
L 75.206308 61.370174 
L 76.306226 60.868804 
L 76.306226 61.119489 
L 75.758898 61.623953 
L 75.485235 61.623953 
L 76.032562 61.119489 
L 75.758898 60.868804 
L 75.206308 60.615025 
L 74.658981 60.868804 
L 74.385317 61.874638 
L 74.932645 62.629787 
L 75.485235 63.134251 
L 76.585152 63.134251 
L 77.685069 62.379102 
L 79.332314 61.874638 
L 81.258485 61.874638 
L 84.279311 62.629787 
L 88.67898 63.384936 
L 94.45223 64.140085 
L 116.718978 69.426127 
L 126.891897 71.440889 
L 137.612144 73.201872 
L 160.426219 76.222467 
L 172.246383 78.487914 
L 184.066547 81.511605 
L 195.613048 85.287349 
L 219.532302 93.343302 
L 231.62613 97.369732 
L 242.893704 100.894792 
L 264.613125 106.935983 
L 276.159625 109.956578 
L 298.426373 117.006698 
L 309.420283 120.027294 
L 320.14053 122.543425 
L 330.039786 126.068485 
L 356.153613 138.655332 
L 363.02678 141.926612 
L 369.626284 145.200987 
L 375.394272 148.976732 
L 384.740938 156.023757 
L 389.140607 158.542983 
L 395.466447 162.569412 
L 397.387355 164.33349 
L 398.487273 166.094472 
L 398.213609 167.60477 
L 397.113692 167.855455 
L 395.466447 167.60477 
L 394.087603 168.109234 
L 392.440359 168.864383 
L 388.59328 168.864383 
L 384.740938 170.374681 
L 382.820029 170.374681 
L 380.893858 169.619532 
L 379.246614 169.115068 
L 377.873033 169.115068 
L 377.320443 169.619532 
L 377.046779 170.374681 
L 377.320443 170.625366 
L 378.42036 170.625366 
L 378.694024 171.380515 
L 379.246614 172.135663 
L 380.346531 172.386348 
L 381.720112 172.386348 
L 382.820029 171.884979 
L 383.367357 172.135663 
L 384.19361 173.395277 
L 385.293528 174.40111 
L 386.119781 174.651795 
L 386.119781 175.911408 
L 386.393445 176.920337 
L 386.119781 177.421706 
L 385.840855 177.675485 
L 385.840855 178.176855 
L 385.567191 177.92617 
L 384.740938 177.421706 
L 384.19361 177.421706 
L 383.919947 177.92617 
L 383.919947 178.681319 
L 383.367357 178.932004 
L 382.546366 178.932004 
L 381.167522 178.681319 
L 380.620195 178.176855 
L 380.893858 177.92617 
L 381.720112 177.92617 
L 381.720112 178.430634 
L 381.446448 178.932004 
L 380.620195 178.932004 
L 379.520277 178.681319 
L 379.246614 178.430634 
L 380.067605 178.430634 
L 380.620195 178.681319 
L 380.067605 179.185783 
L 379.793941 179.687153 
L 379.520277 180.442302 
L 380.067605 180.946766 
L 380.893858 180.946766 
L 380.620195 180.946766 
L 379.793941 181.45123 
L 379.520277 181.45123 
L 380.620195 180.442302 
L 380.620195 180.191617 
L 380.346531 180.191617 
L 380.067605 180.442302 
L 379.793941 181.19745 
L 380.067605 181.952599 
L 380.346531 181.952599 
L 380.620195 181.45123 
L 380.346531 181.45123 
L 379.520277 182.707748 
L 378.146696 183.716677 
L 376.773115 184.218046 
L 377.046779 183.462897 
L 378.146696 182.961528 
L 378.694024 182.961528 
L 378.42036 183.462897 
L 377.873033 184.218046 
L 378.42036 185.226975 
L 378.146696 185.477659 
L 376.773115 185.477659 
L 376.220525 185.982123 
L 375.673198 186.232808 
L 376.220525 185.982123 
L 377.046779 185.477659 
L 377.594106 185.728344 
L 377.320443 185.982123 
L 377.046779 185.728344 
L 375.673198 185.728344 
L 374.573281 185.982123 
L 375.120608 185.982123 
L 375.946862 185.477659 
L 375.946862 184.973195 
L 375.120608 185.226975 
L 374.846944 185.477659 
L 375.394272 185.226975 
L 376.220525 185.226975 
L 376.220525 185.477659 
L 375.673198 186.483493 
L 375.946862 186.987957 
L 376.220525 186.737272 
L 376.220525 185.477659 
L 375.673198 185.226975 
L 374.846944 185.477659 
L 374.020691 185.982123 
L 373.473363 185.982123 
L 374.020691 185.982123 
L 374.573281 185.728344 
L 374.846944 185.728344 
L 374.573281 185.982123 
L 374.020691 187.492421 
L 373.747027 187.238642 
L 373.1997 186.987957 
L 372.64711 186.483493 
L 372.64711 186.232808 
L 373.1997 186.737272 
L 373.1997 187.492421 
L 373.1997 186.987957 
L 372.099782 186.987957 
L 371.820856 187.743106 
L 372.64711 188.752034 
L 373.747027 189.002719 
L 374.020691 188.752034 
L 372.64711 188.752034 
L 372.099782 189.002719 
L 371.820856 189.507183 
L 372.64711 189.507183 
L 372.920773 189.757868 
L 372.64711 190.262332 
L 372.64711 190.262332 
L 373.473363 190.262332 
L 375.120608 190.763702 
L 376.220525 191.77263 
L 377.594106 192.778464 
L 378.967687 193.533613 
L 380.067605 194.288761 
L 382.546366 195.548375 
L 383.367357 196.303523 
L 383.64102 197.058672 
L 383.093693 198.064506 
L 382.820029 199.574804 
L 382.820029 201.338881 
L 382.267439 203.855013 
L 380.346531 206.624924 
L 378.967687 209.896204 
L 377.873033 212.9168 
L 375.946862 215.937395 
L 373.747027 218.202842 
L 372.099782 220.468289 
L 370.999865 223.2382 
L 370.720939 226.512575 
L 370.720939 229.279391 
L 370.173611 232.049302 
L 369.899948 234.565433 
L 370.720939 236.580195 
L 372.920773 239.600791 
L 373.747027 241.866238 
L 375.946862 246.650911 
L 377.046779 248.665673 
L 377.873033 250.67734 
L 378.42036 254.453084 
L 378.42036 256.718531 
L 378.146696 257.978144 
L 377.594106 259.237757 
L 377.320443 260.748055 
L 377.320443 262.509038 
L 376.773115 264.019336 
L 376.494189 265.278949 
L 376.494189 266.789247 
L 376.773115 268.550229 
L 374.846944 270.314306 
L 374.299617 270.564991 
L 373.473363 270.815676 
L 372.920773 271.824604 
L 372.920773 272.830438 
L 373.473363 273.084217 
L 373.473363 273.585587 
L 371.820856 277.361331 
L 370.720939 278.11648 
L 370.173611 280.381927 
L 370.447275 280.886391 
L 370.999865 281.390855 
L 371.273529 281.892225 
L 372.099782 282.396689 
L 372.373446 282.396689 
L 372.373446 282.647374 
L 372.099782 284.160766 
L 372.64711 285.417285 
L 372.64711 285.921749 
L 372.099782 285.921749 
L 372.64711 286.426213 
L 373.747027 287.181362 
L 374.299617 288.69166 
L 374.299617 289.697493 
L 373.747027 289.697493 
L 373.473363 289.446809 
L 372.64711 288.187196 
L 372.373446 288.187196 
L 372.373446 289.446809 
L 372.64711 291.207791 
L 372.64711 290.452642 
L 371.820856 290.452642 
L 371.547192 290.703327 
L 371.820856 290.957107 
L 371.820856 291.458476 
L 371.547192 292.213625 
L 371.547192 292.968774 
L 371.273529 292.968774 
L 371.273529 292.968774 
L 371.273529 293.222553 
L 371.547192 294.479072 
L 371.273529 293.977702 
L 370.720939 293.222553 
L 370.999865 293.222553 
L 370.999865 293.977702 
L 370.720939 295.23422 
L 370.447275 295.488 
L 370.173611 294.983536 
L 370.173611 293.977702 
L 369.626284 293.473238 
L 369.899948 293.222553 
L 370.447275 292.968774 
L 370.999865 293.473238 
L 371.273529 293.977702 
L 371.273529 294.732851 
L 370.173611 294.732851 
L 369.073694 294.479072 
L 368.80003 294.228387 
L 369.899948 293.977702 
L 371.273529 293.977702 
L 371.273529 293.977702 
L 370.999865 294.479072 
L 370.720939 294.732851 
L 370.999865 294.983536 
L 371.820856 293.723923 
L 371.273529 293.723923 
L 370.999865 293.473238 
L 370.447275 293.473238 
L 369.899948 293.723923 
L 369.626284 294.228387 
L 369.626284 294.479072 
L 370.173611 294.228387 
L 370.447275 294.228387 
L 370.173611 294.228387 
L 369.347358 293.723923 
L 369.073694 293.222553 
L 369.347358 292.968774 
L 369.347358 292.718089 
L 368.80003 292.718089 
L 368.24744 292.213625 
L 368.24744 291.96294 
L 367.973777 291.712255 
L 367.426449 291.458476 
L 367.147523 290.957107 
L 367.147523 290.452642 
L 366.873859 290.703327 
L 366.873859 290.703327 
L 367.426449 290.452642 
L 368.24744 290.452642 
L 368.24744 290.452642 
L 367.973777 290.957107 
L 367.700113 291.207791 
L 367.973777 290.957107 
L 367.426449 290.452642 
L 366.873859 290.201958 
L 366.600196 289.948178 
L 366.600196 289.697493 
L 366.873859 289.446809 
L 367.700113 289.697493 
L 368.24744 290.201958 
L 369.073694 290.452642 
L 369.626284 290.957107 
L 369.626284 291.207791 
L 368.80003 291.207791 
L 368.24744 290.957107 
L 367.973777 290.957107 
L 367.426449 291.207791 
L 367.147523 291.207791 
L 367.973777 290.703327 
L 368.80003 290.703327 
L 369.073694 291.207791 
L 368.526367 291.96294 
L 367.973777 291.712255 
L 368.24744 290.703327 
L 367.973777 289.948178 
L 367.426449 289.697493 
L 367.147523 289.948178 
L 367.426449 290.703327 
L 368.24744 291.207791 
L 368.24744 291.458476 
L 368.24744 291.207791 
L 369.073694 290.452642 
L 369.073694 289.697493 
L 370.173611 289.697493 
L 370.720939 289.948178 
L 370.999865 289.948178 
L 370.999865 290.452642 
L 370.720939 290.957107 
L 370.447275 291.207791 
L 369.899948 291.207791 
L 369.347358 291.458476 
L 369.347358 291.458476 
L 369.347358 290.957107 
L 369.347358 291.207791 
L 369.626284 291.458476 
L 369.899948 291.458476 
L 370.173611 290.957107 
L 370.720939 290.703327 
L 370.999865 290.201958 
L 370.173611 289.948178 
L 369.347358 290.201958 
L 369.073694 289.948178 
L 369.626284 289.948178 
L 369.899948 290.452642 
L 370.447275 290.703327 
L 371.273529 290.452642 
L 371.820856 290.452642 
L 371.820856 290.201958 
L 370.999865 290.201958 
L 369.347358 289.697493 
L 369.899948 289.948178 
L 370.447275 290.703327 
L 370.999865 291.712255 
L 371.547192 291.96294 
L 371.820856 291.712255 
L 371.820856 290.957107 
L 372.920773 290.957107 
L 372.920773 291.207791 
L 372.64711 291.712255 
L 372.099782 292.213625 
L 371.547192 292.213625 
L 371.547192 292.718089 
L 371.820856 293.473238 
L 372.099782 293.222553 
L 371.820856 292.718089 
L 371.273529 291.458476 
L 370.999865 291.207791 
L 371.273529 290.957107 
L 371.273529 291.207791 
L 371.820856 291.96294 
L 372.373446 292.467404 
L 372.373446 292.213625 
L 372.099782 291.458476 
L 369.899948 290.703327 
L 369.626284 290.957107 
L 370.447275 291.207791 
L 370.999865 291.207791 
L 371.547192 290.957107 
L 372.099782 291.207791 
L 371.820856 291.207791 
L 371.547192 291.458476 
L 371.547192 291.207791 
L 372.099782 290.957107 
L 373.473363 291.458476 
L 373.747027 290.703327 
L 373.473363 290.201958 
L 373.747027 290.452642 
L 374.020691 291.207791 
L 373.1997 291.207791 
L 372.373446 290.703327 
L 372.373446 290.452642 
L 372.099782 289.948178 
L 371.547192 289.446809 
L 371.273529 289.697493 
L 371.273529 290.452642 
L 371.547192 290.957107 
L 371.547192 291.207791 
L 371.273529 291.207791 
L 371.547192 290.703327 
L 371.547192 290.201958 
L 370.999865 289.948178 
L 370.720939 290.201958 
L 370.999865 290.452642 
L 371.273529 290.201958 
L 371.273529 289.948178 
L 371.273529 289.948178 
L 371.547192 290.201958 
L 372.64711 290.201958 
L 371.820856 289.446809 
L 371.273529 289.193029 
L 370.999865 289.446809 
L 371.273529 289.193029 
L 371.820856 288.942344 
L 371.547192 288.942344 
L 370.720939 289.446809 
L 370.447275 289.446809 
L 370.447275 289.193029 
L 370.173611 289.697493 
L 369.347358 290.452642 
L 368.80003 290.703327 
L 369.347358 290.452642 
L 370.173611 290.452642 
L 370.447275 290.201958 
L 370.999865 289.948178 
L 371.273529 289.697493 
L 370.999865 289.948178 
L 370.447275 289.948178 
L 370.173611 290.201958 
L 370.447275 290.201958 
L 371.273529 290.452642 
L 371.820856 290.201958 
L 371.820856 289.948178 
L 371.273529 290.201958 
L 370.720939 290.201958 
L 370.173611 289.697493 
L 370.173611 288.69166 
L 369.626284 288.69166 
L 369.347358 289.193029 
L 369.899948 290.957107 
L 370.999865 290.957107 
L 371.547192 291.207791 
L 371.547192 290.957107 
L 370.999865 289.948178 
L 370.173611 288.942344 
L 369.626284 288.69166 
L 369.626284 288.69166 
L 369.899948 288.942344 
L 370.447275 288.69166 
L 370.447275 288.942344 
L 370.173611 289.697493 
L 370.173611 290.452642 
L 370.447275 290.703327 
L 370.173611 290.703327 
L 369.899948 290.201958 
L 370.173611 289.193029 
L 370.447275 288.942344 
L 370.447275 289.697493 
L 370.173611 290.452642 
L 369.899948 290.703327 
L 369.899948 290.201958 
L 370.173611 290.201958 
L 370.720939 289.697493 
L 371.547192 289.697493 
L 370.720939 288.942344 
L 370.173611 288.187196 
L 369.626284 288.69166 
L 369.899948 289.697493 
L 370.447275 290.201958 
L 371.273529 289.948178 
L 371.547192 289.697493 
L 370.999865 289.193029 
L 370.999865 289.193029 
L 370.999865 289.446809 
L 371.547192 288.942344 
L 371.820856 288.942344 
L 372.920773 289.948178 
L 372.64711 290.452642 
L 370.999865 290.452642 
L 370.999865 290.703327 
L 371.273529 290.452642 
L 371.820856 290.452642 
L 371.820856 290.703327 
L 370.173611 290.703327 
L 370.447275 290.703327 
L 370.999865 290.201958 
L 372.099782 289.948178 
L 371.547192 290.452642 
L 371.547192 291.207791 
L 370.720939 291.207791 
L 370.447275 290.703327 
L 369.899948 290.452642 
L 369.899948 290.703327 
L 370.173611 291.207791 
L 370.999865 291.712255 
L 371.820856 291.712255 
L 371.820856 291.458476 
L 369.347358 289.948178 
L 369.347358 289.193029 
L 369.899948 287.432047 
L 370.173611 286.426213 
L 369.899948 285.921749 
L 369.899948 285.1666 
L 369.626284 283.656302 
L 369.073694 282.146004 
L 368.526367 281.137076 
L 368.24744 280.131242 
L 367.973777 278.620944 
L 367.426449 276.606182 
L 367.700113 275.349664 
L 368.526367 274.594515 
L 369.899948 274.090051 
L 369.899948 273.585587 
L 369.347358 272.579753 
L 368.80003 271.069455 
L 369.073694 270.564991 
L 369.626284 270.564991 
L 369.626284 270.314306 
L 369.626284 270.564991 
L 369.899948 271.069455 
L 370.447275 271.824604 
L 370.447275 272.579753 
L 370.173611 273.084217 
L 369.626284 273.334902 
L 368.80003 273.839366 
L 367.700113 274.8452 
L 367.426449 275.600349 
L 367.700113 275.851033 
L 368.24744 275.851033 
L 368.80003 276.104813 
L 368.80003 276.606182 
L 368.24744 276.606182 
L 367.973777 276.104813 
L 367.973777 275.851033 
L 368.24744 275.600349 
L 368.24744 275.095885 
L 367.973777 275.349664 
L 367.426449 276.104813 
L 367.426449 276.859962 
L 367.700113 276.859962 
L 368.526367 276.104813 
L 368.80003 275.095885 
L 368.526367 274.594515 
L 368.526367 274.340736 
L 368.80003 275.095885 
L 368.80003 276.355498 
L 369.347358 276.104813 
L 370.173611 276.104813 
L 370.447275 276.355498 
L 369.347358 276.606182 
L 367.973777 276.606182 
L 367.700113 276.355498 
L 367.700113 276.104813 
L 367.973777 276.104813 
L 368.526367 276.355498 
L 369.899948 275.851033 
L 369.347358 275.851033 
L 368.24744 276.355498 
L 367.700113 276.859962 
L 367.973777 276.606182 
L 368.24744 276.104813 
L 368.24744 275.851033 
L 367.700113 276.355498 
L 367.700113 276.859962 
L 368.24744 277.615111 
L 368.24744 277.615111 
L 368.24744 277.361331 
L 367.700113 276.859962 
L 367.700113 276.355498 
L 368.24744 275.851033 
L 369.347358 275.851033 
L 370.173611 276.606182 
L 370.173611 276.859962 
L 369.626284 276.355498 
L 369.626284 276.104813 
L 369.899948 276.606182 
L 369.899948 277.110647 
L 369.626284 277.361331 
L 369.073694 277.361331 
L 368.526367 277.110647 
L 368.24744 276.859962 
L 368.80003 276.606182 
L 369.347358 276.606182 
L 370.173611 276.859962 
L 370.447275 277.110647 
L 370.173611 276.859962 
L 370.173611 277.110647 
L 370.447275 277.361331 
L 369.899948 277.110647 
L 369.073694 276.859962 
L 368.24744 276.859962 
L 368.24744 277.361331 
L 370.173611 277.865796 
L 370.173611 277.110647 
L 369.626284 276.606182 
L 369.347358 277.110647 
L 369.899948 277.110647 
L 370.720939 276.859962 
L 371.273529 277.110647 
L 370.999865 277.615111 
L 370.447275 278.11648 
L 370.447275 278.37026 
L 370.447275 277.865796 
L 370.173611 277.110647 
L 369.626284 276.355498 
L 369.347358 276.606182 
L 369.073694 277.110647 
L 369.626284 277.615111 
L 369.899948 277.361331 
L 370.447275 277.361331 
L 371.547192 277.615111 
L 372.099782 278.11648 
L 371.820856 278.37026 
L 370.999865 278.620944 
L 370.720939 278.11648 
L 370.999865 277.865796 
L 372.099782 277.865796 
L 372.099782 278.620944 
L 371.820856 278.871629 
L 371.820856 278.11648 
L 372.099782 277.361331 
L 372.099782 276.859962 
L 371.547192 277.110647 
L 371.273529 277.110647 
L 371.547192 277.361331 
L 372.099782 278.11648 
L 371.820856 279.125409 
L 371.547192 279.626778 
L 371.547192 279.125409 
L 371.820856 278.37026 
L 372.373446 277.865796 
L 372.373446 277.615111 
L 372.099782 278.11648 
L 372.64711 279.376093 
L 373.1997 279.125409 
L 373.1997 279.125409 
L 372.64711 278.871629 
L 372.373446 278.871629 
L 372.64711 278.871629 
L 372.373446 278.620944 
L 372.099782 278.620944 
L 372.099782 278.871629 
L 372.373446 279.125409 
L 373.473363 279.125409 
L 373.747027 279.626778 
L 374.020691 280.381927 
L 374.299617 280.635706 
L 374.299617 280.886391 
L 372.920773 279.626778 
L 373.1997 279.125409 
L 374.020691 279.125409 
L 374.846944 278.871629 
L 375.120608 279.125409 
L 374.299617 279.880558 
L 374.299617 279.125409 
L 373.1997 278.620944 
L 373.747027 278.871629 
L 374.299617 279.626778 
L 374.020691 280.131242 
L 373.747027 280.381927 
L 373.473363 280.381927 
L 374.020691 280.131242 
L 374.299617 279.880558 
L 374.020691 279.880558 
L 373.747027 280.131242 
L 373.747027 281.390855 
L 374.020691 281.390855 
L 374.573281 280.886391 
L 375.673198 280.635706 
L 375.946862 280.886391 
L 375.946862 280.886391 
L 375.946862 279.626778 
L 375.673198 279.626778 
L 375.673198 279.880558 
L 375.394272 280.131242 
L 375.673198 280.635706 
L 376.220525 281.137076 
L 376.773115 281.137076 
L 377.320443 280.886391 
L 377.594106 280.886391 
L 377.046779 280.635706 
L 376.494189 280.635706 
L 376.494189 280.886391 
L 377.320443 281.390855 
L 378.694024 281.64154 
L 378.694024 281.390855 
L 377.873033 281.390855 
L 377.046779 281.892225 
L 376.773115 281.892225 
L 377.594106 281.137076 
L 377.320443 281.137076 
L 378.42036 281.137076 
L 378.694024 280.886391 
L 378.694024 281.137076 
L 378.967687 281.390855 
L 378.967687 281.137076 
L 378.694024 281.137076 
L 377.873033 281.390855 
L 377.594106 281.64154 
L 377.594106 281.892225 
L 377.594106 281.64154 
L 377.873033 282.146004 
L 378.42036 282.647374 
L 378.42036 282.647374 
L 377.320443 282.647374 
L 377.046779 281.892225 
L 377.320443 281.390855 
L 377.594106 281.64154 
L 377.873033 282.396689 
L 377.873033 282.901153 
L 378.42036 282.396689 
L 379.246614 282.146004 
L 379.520277 282.647374 
L 379.520277 282.647374 
L 379.246614 281.892225 
L 378.146696 281.390855 
L 377.594106 281.390855 
L 377.873033 281.64154 
L 378.42036 282.396689 
L 378.42036 282.901153 
L 378.694024 282.901153 
L 378.967687 283.151838 
L 379.246614 283.656302 
L 378.967687 283.656302 
L 378.694024 283.151838 
L 378.967687 282.901153 
L 379.520277 283.906987 
L 379.246614 283.906987 
L 378.694024 283.405617 
L 378.42036 283.405617 
L 378.42036 283.656302 
L 378.146696 283.656302 
L 377.594106 283.405617 
L 377.320443 283.656302 
L 376.773115 283.656302 
L 375.394272 283.151838 
L 375.673198 283.405617 
L 375.946862 283.906987 
L 376.494189 284.160766 
L 377.046779 283.906987 
L 377.320443 283.405617 
L 377.594106 283.151838 
L 377.594106 282.901153 
L 376.494189 283.405617 
L 376.220525 283.405617 
L 376.494189 283.151838 
L 376.773115 283.405617 
L 376.773115 283.656302 
L 376.773115 283.656302 
L 376.494189 283.405617 
L 375.946862 283.151838 
L 375.946862 283.151838 
L 376.220525 283.656302 
L 376.494189 283.906987 
L 376.773115 283.656302 
L 377.320443 284.160766 
L 377.320443 284.915915 
L 377.046779 285.671064 
L 376.494189 285.671064 
L 375.120608 284.411451 
L 375.394272 284.160766 
L 375.673198 284.160766 
L 374.846944 283.405617 
L 375.120608 283.656302 
L 375.394272 284.160766 
L 375.394272 284.915915 
L 375.673198 284.915915 
L 375.946862 284.662136 
L 375.673198 284.160766 
L 374.846944 283.906987 
L 374.020691 283.906987 
L 374.020691 283.656302 
L 374.299617 283.656302 
L 374.020691 283.656302 
L 373.747027 283.405617 
L 373.473363 282.901153 
L 374.020691 282.647374 
L 374.573281 282.901153 
L 375.120608 283.405617 
L 375.673198 283.656302 
L 374.299617 283.151838 
L 374.020691 283.656302 
L 374.020691 283.656302 
" style="fill:none;stroke:#1f77b4;stroke-linecap:square;stroke-width:1.5;"/>
   </g>
   <g id="matplotlib.axis_1">
    <g id="xtick_1">
     <g id="line2d_2">
      <defs>
       <path d="M 0 0 
L 0 3.5 
" id="m36bcfe80f9" style="stroke:#000000;stroke-width:0.8;"/>
      </defs>
      <g>
       <use style="stroke:#000000;stroke-width:0.8;" x="63.891369" xlink:href="#m36bcfe80f9" y="307.584"/>
      </g>
     </g>
     <g id="text_1">
      <!-- −700 -->
      <defs>
       <path d="M 10.59375 35.5 
L 73.1875 35.5 
L 73.1875 27.203125 
L 10.59375 27.203125 
z
" id="DejaVuSans-8722"/>
       <path d="M 8.203125 72.90625 
L 55.078125 72.90625 
L 55.078125 68.703125 
L 28.609375 0 
L 18.3125 0 
L 43.21875 64.59375 
L 8.203125 64.59375 
z
" id="DejaVuSans-55"/>
       <path d="M 31.78125 66.40625 
Q 24.171875 66.40625 20.328125 58.90625 
Q 16.5 51.421875 16.5 36.375 
Q 16.5 21.390625 20.328125 13.890625 
Q 24.171875 6.390625 31.78125 6.390625 
Q 39.453125 6.390625 43.28125 13.890625 
Q 47.125 21.390625 47.125 36.375 
Q 47.125 51.421875 43.28125 58.90625 
Q 39.453125 66.40625 31.78125 66.40625 
z
M 31.78125 74.21875 
Q 44.046875 74.21875 50.515625 64.515625 
Q 56.984375 54.828125 56.984375 36.375 
Q 56.984375 17.96875 50.515625 8.265625 
Q 44.046875 -1.421875 31.78125 -1.421875 
Q 19.53125 -1.421875 13.0625 8.265625 
Q 6.59375 17.96875 6.59375 36.375 
Q 6.59375 54.828125 13.0625 64.515625 
Q 19.53125 74.21875 31.78125 74.21875 
z
" id="DejaVuSans-48"/>
      </defs>
      <g transform="translate(50.157775 322.182437)scale(0.1 -0.1)">
       <use xlink:href="#DejaVuSans-8722"/>
       <use x="83.789062" xlink:href="#DejaVuSans-55"/>
       <use x="147.412109" xlink:href="#DejaVuSans-48"/>
       <use x="211.035156" xlink:href="#DejaVuSans-48"/>
      </g>
     </g>
    </g>
    <g id="xtick_2">
     <g id="line2d_3">
      <g>
       <use style="stroke:#000000;stroke-width:0.8;" x="116.518993" xlink:href="#m36bcfe80f9" y="307.584"/>
      </g>
     </g>
     <g id="text_2">
      <!-- −600 -->
      <defs>
       <path d="M 33.015625 40.375 
Q 26.375 40.375 22.484375 35.828125 
Q 18.609375 31.296875 18.609375 23.390625 
Q 18.609375 15.53125 22.484375 10.953125 
Q 26.375 6.390625 33.015625 6.390625 
Q 39.65625 6.390625 43.53125 10.953125 
Q 47.40625 15.53125 47.40625 23.390625 
Q 47.40625 31.296875 43.53125 35.828125 
Q 39.65625 40.375 33.015625 40.375 
z
M 52.59375 71.296875 
L 52.59375 62.3125 
Q 48.875 64.0625 45.09375 64.984375 
Q 41.3125 65.921875 37.59375 65.921875 
Q 27.828125 65.921875 22.671875 59.328125 
Q 17.53125 52.734375 16.796875 39.40625 
Q 19.671875 43.65625 24.015625 45.921875 
Q 28.375 48.1875 33.59375 48.1875 
Q 44.578125 48.1875 50.953125 41.515625 
Q 57.328125 34.859375 57.328125 23.390625 
Q 57.328125 12.15625 50.6875 5.359375 
Q 44.046875 -1.421875 33.015625 -1.421875 
Q 20.359375 -1.421875 13.671875 8.265625 
Q 6.984375 17.96875 6.984375 36.375 
Q 6.984375 53.65625 15.1875 63.9375 
Q 23.390625 74.21875 37.203125 74.21875 
Q 40.921875 74.21875 44.703125 73.484375 
Q 48.484375 72.75 52.59375 71.296875 
z
" id="DejaVuSans-54"/>
      </defs>
      <g transform="translate(102.785399 322.182437)scale(0.1 -0.1)">
       <use xlink:href="#DejaVuSans-8722"/>
       <use x="83.789062" xlink:href="#DejaVuSans-54"/>
       <use x="147.412109" xlink:href="#DejaVuSans-48"/>
       <use x="211.035156" xlink:href="#DejaVuSans-48"/>
      </g>
     </g>
    </g>
    <g id="xtick_3">
     <g id="line2d_4">
      <g>
       <use style="stroke:#000000;stroke-width:0.8;" x="169.146616" xlink:href="#m36bcfe80f9" y="307.584"/>
      </g>
     </g>
     <g id="text_3">
      <!-- −500 -->
      <defs>
       <path d="M 10.796875 72.90625 
L 49.515625 72.90625 
L 49.515625 64.59375 
L 19.828125 64.59375 
L 19.828125 46.734375 
Q 21.96875 47.46875 24.109375 47.828125 
Q 26.265625 48.1875 28.421875 48.1875 
Q 40.625 48.1875 47.75 41.5 
Q 54.890625 34.8125 54.890625 23.390625 
Q 54.890625 11.625 47.5625 5.09375 
Q 40.234375 -1.421875 26.90625 -1.421875 
Q 22.3125 -1.421875 17.546875 -0.640625 
Q 12.796875 0.140625 7.71875 1.703125 
L 7.71875 11.625 
Q 12.109375 9.234375 16.796875 8.0625 
Q 21.484375 6.890625 26.703125 6.890625 
Q 35.15625 6.890625 40.078125 11.328125 
Q 45.015625 15.765625 45.015625 23.390625 
Q 45.015625 31 40.078125 35.4375 
Q 35.15625 39.890625 26.703125 39.890625 
Q 22.75 39.890625 18.8125 39.015625 
Q 14.890625 38.140625 10.796875 36.28125 
z
" id="DejaVuSans-53"/>
      </defs>
      <g transform="translate(155.413022 322.182437)scale(0.1 -0.1)">
       <use xlink:href="#DejaVuSans-8722"/>
       <use x="83.789062" xlink:href="#DejaVuSans-53"/>
       <use x="147.412109" xlink:href="#DejaVuSans-48"/>
       <use x="211.035156" xlink:href="#DejaVuSans-48"/>
      </g>
     </g>
    </g>
    <g id="xtick_4">
     <g id="line2d_5">
      <g>
       <use style="stroke:#000000;stroke-width:0.8;" x="221.774239" xlink:href="#m36bcfe80f9" y="307.584"/>
      </g>
     </g>
     <g id="text_4">
      <!-- −400 -->
      <defs>
       <path d="M 37.796875 64.3125 
L 12.890625 25.390625 
L 37.796875 25.390625 
z
M 35.203125 72.90625 
L 47.609375 72.90625 
L 47.609375 25.390625 
L 58.015625 25.390625 
L 58.015625 17.1875 
L 47.609375 17.1875 
L 47.609375 0 
L 37.796875 0 
L 37.796875 17.1875 
L 4.890625 17.1875 
L 4.890625 26.703125 
z
" id="DejaVuSans-52"/>
      </defs>
      <g transform="translate(208.040645 322.182437)scale(0.1 -0.1)">
       <use xlink:href="#DejaVuSans-8722"/>
       <use x="83.789062" xlink:href="#DejaVuSans-52"/>
       <use x="147.412109" xlink:href="#DejaVuSans-48"/>
       <use x="211.035156" xlink:href="#DejaVuSans-48"/>
      </g>
     </g>
    </g>
    <g id="xtick_5">
     <g id="line2d_6">
      <g>
       <use style="stroke:#000000;stroke-width:0.8;" x="274.401862" xlink:href="#m36bcfe80f9" y="307.584"/>
      </g>
     </g>
     <g id="text_5">
      <!-- −300 -->
      <defs>
       <path d="M 40.578125 39.3125 
Q 47.65625 37.796875 51.625 33 
Q 55.609375 28.21875 55.609375 21.1875 
Q 55.609375 10.40625 48.1875 4.484375 
Q 40.765625 -1.421875 27.09375 -1.421875 
Q 22.515625 -1.421875 17.65625 -0.515625 
Q 12.796875 0.390625 7.625 2.203125 
L 7.625 11.71875 
Q 11.71875 9.328125 16.59375 8.109375 
Q 21.484375 6.890625 26.8125 6.890625 
Q 36.078125 6.890625 40.9375 10.546875 
Q 45.796875 14.203125 45.796875 21.1875 
Q 45.796875 27.640625 41.28125 31.265625 
Q 36.765625 34.90625 28.71875 34.90625 
L 20.21875 34.90625 
L 20.21875 43.015625 
L 29.109375 43.015625 
Q 36.375 43.015625 40.234375 45.921875 
Q 44.09375 48.828125 44.09375 54.296875 
Q 44.09375 59.90625 40.109375 62.90625 
Q 36.140625 65.921875 28.71875 65.921875 
Q 24.65625 65.921875 20.015625 65.03125 
Q 15.375 64.15625 9.8125 62.3125 
L 9.8125 71.09375 
Q 15.4375 72.65625 20.34375 73.4375 
Q 25.25 74.21875 29.59375 74.21875 
Q 40.828125 74.21875 47.359375 69.109375 
Q 53.90625 64.015625 53.90625 55.328125 
Q 53.90625 49.265625 50.4375 45.09375 
Q 46.96875 40.921875 40.578125 39.3125 
z
" id="DejaVuSans-51"/>
      </defs>
      <g transform="translate(260.668269 322.182437)scale(0.1 -0.1)">
       <use xlink:href="#DejaVuSans-8722"/>
       <use x="83.789062" xlink:href="#DejaVuSans-51"/>
       <use x="147.412109" xlink:href="#DejaVuSans-48"/>
       <use x="211.035156" xlink:href="#DejaVuSans-48"/>
      </g>
     </g>
    </g>
    <g id="xtick_6">
     <g id="line2d_7">
      <g>
       <use style="stroke:#000000;stroke-width:0.8;" x="327.029486" xlink:href="#m36bcfe80f9" y="307.584"/>
      </g>
     </g>
     <g id="text_6">
      <!-- −200 -->
      <defs>
       <path d="M 19.1875 8.296875 
L 53.609375 8.296875 
L 53.609375 0 
L 7.328125 0 
L 7.328125 8.296875 
Q 12.9375 14.109375 22.625 23.890625 
Q 32.328125 33.6875 34.8125 36.53125 
Q 39.546875 41.84375 41.421875 45.53125 
Q 43.3125 49.21875 43.3125 52.78125 
Q 43.3125 58.59375 39.234375 62.25 
Q 35.15625 65.921875 28.609375 65.921875 
Q 23.96875 65.921875 18.8125 64.3125 
Q 13.671875 62.703125 7.8125 59.421875 
L 7.8125 69.390625 
Q 13.765625 71.78125 18.9375 73 
Q 24.125 74.21875 28.421875 74.21875 
Q 39.75 74.21875 46.484375 68.546875 
Q 53.21875 62.890625 53.21875 53.421875 
Q 53.21875 48.921875 51.53125 44.890625 
Q 49.859375 40.875 45.40625 35.40625 
Q 44.1875 33.984375 37.640625 27.21875 
Q 31.109375 20.453125 19.1875 8.296875 
z
" id="DejaVuSans-50"/>
      </defs>
      <g transform="translate(313.295892 322.182437)scale(0.1 -0.1)">
       <use xlink:href="#DejaVuSans-8722"/>
       <use x="83.789062" xlink:href="#DejaVuSans-50"/>
       <use x="147.412109" xlink:href="#DejaVuSans-48"/>
       <use x="211.035156" xlink:href="#DejaVuSans-48"/>
      </g>
     </g>
    </g>
    <g id="xtick_7">
     <g id="line2d_8">
      <g>
       <use style="stroke:#000000;stroke-width:0.8;" x="379.657109" xlink:href="#m36bcfe80f9" y="307.584"/>
      </g>
     </g>
     <g id="text_7">
      <!-- −100 -->
      <defs>
       <path d="M 12.40625 8.296875 
L 28.515625 8.296875 
L 28.515625 63.921875 
L 10.984375 60.40625 
L 10.984375 69.390625 
L 28.421875 72.90625 
L 38.28125 72.90625 
L 38.28125 8.296875 
L 54.390625 8.296875 
L 54.390625 0 
L 12.40625 0 
z
" id="DejaVuSans-49"/>
      </defs>
      <g transform="translate(365.923515 322.182437)scale(0.1 -0.1)">
       <use xlink:href="#DejaVuSans-8722"/>
       <use x="83.789062" xlink:href="#DejaVuSans-49"/>
       <use x="147.412109" xlink:href="#DejaVuSans-48"/>
       <use x="211.035156" xlink:href="#DejaVuSans-48"/>
      </g>
     </g>
    </g>
   </g>
   <g id="matplotlib.axis_2">
    <g id="ytick_1">
     <g id="line2d_9">
      <defs>
       <path d="M 0 0 
L -3.5 0 
" id="m0dc2a5658d" style="stroke:#000000;stroke-width:0.8;"/>
      </defs>
      <g>
       <use style="stroke:#000000;stroke-width:0.8;" x="57.6" xlink:href="#m0dc2a5658d" y="299.167804"/>
      </g>
     </g>
     <g id="text_8">
      <!-- 200 -->
      <g transform="translate(31.5125 302.967022)scale(0.1 -0.1)">
       <use xlink:href="#DejaVuSans-50"/>
       <use x="63.623047" xlink:href="#DejaVuSans-48"/>
       <use x="127.246094" xlink:href="#DejaVuSans-48"/>
      </g>
     </g>
    </g>
    <g id="ytick_2">
     <g id="line2d_10">
      <g>
       <use style="stroke:#000000;stroke-width:0.8;" x="57.6" xlink:href="#m0dc2a5658d" y="268.219078"/>
      </g>
     </g>
     <g id="text_9">
      <!-- 300 -->
      <g transform="translate(31.5125 272.018296)scale(0.1 -0.1)">
       <use xlink:href="#DejaVuSans-51"/>
       <use x="63.623047" xlink:href="#DejaVuSans-48"/>
       <use x="127.246094" xlink:href="#DejaVuSans-48"/>
      </g>
     </g>
    </g>
    <g id="ytick_3">
     <g id="line2d_11">
      <g>
       <use style="stroke:#000000;stroke-width:0.8;" x="57.6" xlink:href="#m0dc2a5658d" y="237.270352"/>
      </g>
     </g>
     <g id="text_10">
      <!-- 400 -->
      <g transform="translate(31.5125 241.069571)scale(0.1 -0.1)">
       <use xlink:href="#DejaVuSans-52"/>
       <use x="63.623047" xlink:href="#DejaVuSans-48"/>
       <use x="127.246094" xlink:href="#DejaVuSans-48"/>
      </g>
     </g>
    </g>
    <g id="ytick_4">
     <g id="line2d_12">
      <g>
       <use style="stroke:#000000;stroke-width:0.8;" x="57.6" xlink:href="#m0dc2a5658d" y="206.321626"/>
      </g>
     </g>
     <g id="text_11">
      <!-- 500 -->
      <g transform="translate(31.5125 210.120845)scale(0.1 -0.1)">
       <use xlink:href="#DejaVuSans-53"/>
       <use x="63.623047" xlink:href="#DejaVuSans-48"/>
       <use x="127.246094" xlink:href="#DejaVuSans-48"/>
      </g>
     </g>
    </g>
    <g id="ytick_5">
     <g id="line2d_13">
      <g>
       <use style="stroke:#000000;stroke-width:0.8;" x="57.6" xlink:href="#m0dc2a5658d" y="175.3729"/>
      </g>
     </g>
     <g id="text_12">
      <!-- 600 -->
      <g transform="translate(31.5125 179.172119)scale(0.1 -0.1)">
       <use xlink:href="#DejaVuSans-54"/>
       <use x="63.623047" xlink:href="#DejaVuSans-48"/>
       <use x="127.246094" xlink:href="#DejaVuSans-48"/>
      </g>
     </g>
    </g>
    <g id="ytick_6">
     <g id="line2d_14">
      <g>
       <use style="stroke:#000000;stroke-width:0.8;" x="57.6" xlink:href="#m0dc2a5658d" y="144.424174"/>
      </g>
     </g>
     <g id="text_13">
      <!-- 700 -->
      <g transform="translate(31.5125 148.223393)scale(0.1 -0.1)">
       <use xlink:href="#DejaVuSans-55"/>
       <use x="63.623047" xlink:href="#DejaVuSans-48"/>
       <use x="127.246094" xlink:href="#DejaVuSans-48"/>
      </g>
     </g>
    </g>
    <g id="ytick_7">
     <g id="line2d_15">
      <g>
       <use style="stroke:#000000;stroke-width:0.8;" x="57.6" xlink:href="#m0dc2a5658d" y="113.475449"/>
      </g>
     </g>
     <g id="text_14">
      <!-- 800 -->
      <defs>
       <path d="M 31.78125 34.625 
Q 24.75 34.625 20.71875 30.859375 
Q 16.703125 27.09375 16.703125 20.515625 
Q 16.703125 13.921875 20.71875 10.15625 
Q 24.75 6.390625 31.78125 6.390625 
Q 38.8125 6.390625 42.859375 10.171875 
Q 46.921875 13.96875 46.921875 20.515625 
Q 46.921875 27.09375 42.890625 30.859375 
Q 38.875 34.625 31.78125 34.625 
z
M 21.921875 38.8125 
Q 15.578125 40.375 12.03125 44.71875 
Q 8.5 49.078125 8.5 55.328125 
Q 8.5 64.0625 14.71875 69.140625 
Q 20.953125 74.21875 31.78125 74.21875 
Q 42.671875 74.21875 48.875 69.140625 
Q 55.078125 64.0625 55.078125 55.328125 
Q 55.078125 49.078125 51.53125 44.71875 
Q 48 40.375 41.703125 38.8125 
Q 48.828125 37.15625 52.796875 32.3125 
Q 56.78125 27.484375 56.78125 20.515625 
Q 56.78125 9.90625 50.3125 4.234375 
Q 43.84375 -1.421875 31.78125 -1.421875 
Q 19.734375 -1.421875 13.25 4.234375 
Q 6.78125 9.90625 6.78125 20.515625 
Q 6.78125 27.484375 10.78125 32.3125 
Q 14.796875 37.15625 21.921875 38.8125 
z
M 18.3125 54.390625 
Q 18.3125 48.734375 21.84375 45.5625 
Q 25.390625 42.390625 31.78125 42.390625 
Q 38.140625 42.390625 41.71875 45.5625 
Q 45.3125 48.734375 45.3125 54.390625 
Q 45.3125 60.0625 41.71875 63.234375 
Q 38.140625 66.40625 31.78125 66.40625 
Q 25.390625 66.40625 21.84375 63.234375 
Q 18.3125 60.0625 18.3125 54.390625 
z
" id="DejaVuSans-56"/>
      </defs>
      <g transform="translate(31.5125 117.274667)scale(0.1 -0.1)">
       <use xlink:href="#DejaVuSans-56"/>
       <use x="63.623047" xlink:href="#DejaVuSans-48"/>
       <use x="127.246094" xlink:href="#DejaVuSans-48"/>
      </g>
     </g>
    </g>
    <g id="ytick_8">
     <g id="line2d_16">
      <g>
       <use style="stroke:#000000;stroke-width:0.8;" x="57.6" xlink:href="#m0dc2a5658d" y="82.526723"/>
      </g>
     </g>
     <g id="text_15">
      <!-- 900 -->
      <defs>
       <path d="M 10.984375 1.515625 
L 10.984375 10.5 
Q 14.703125 8.734375 18.5 7.8125 
Q 22.3125 6.890625 25.984375 6.890625 
Q 35.75 6.890625 40.890625 13.453125 
Q 46.046875 20.015625 46.78125 33.40625 
Q 43.953125 29.203125 39.59375 26.953125 
Q 35.25 24.703125 29.984375 24.703125 
Q 19.046875 24.703125 12.671875 31.3125 
Q 6.296875 37.9375 6.296875 49.421875 
Q 6.296875 60.640625 12.9375 67.421875 
Q 19.578125 74.21875 30.609375 74.21875 
Q 43.265625 74.21875 49.921875 64.515625 
Q 56.59375 54.828125 56.59375 36.375 
Q 56.59375 19.140625 48.40625 8.859375 
Q 40.234375 -1.421875 26.421875 -1.421875 
Q 22.703125 -1.421875 18.890625 -0.6875 
Q 15.09375 0.046875 10.984375 1.515625 
z
M 30.609375 32.421875 
Q 37.25 32.421875 41.125 36.953125 
Q 45.015625 41.5 45.015625 49.421875 
Q 45.015625 57.28125 41.125 61.84375 
Q 37.25 66.40625 30.609375 66.40625 
Q 23.96875 66.40625 20.09375 61.84375 
Q 16.21875 57.28125 16.21875 49.421875 
Q 16.21875 41.5 20.09375 36.953125 
Q 23.96875 32.421875 30.609375 32.421875 
z
" id="DejaVuSans-57"/>
      </defs>
      <g transform="translate(31.5125 86.325942)scale(0.1 -0.1)">
       <use xlink:href="#DejaVuSans-57"/>
       <use x="63.623047" xlink:href="#DejaVuSans-48"/>
       <use x="127.246094" xlink:href="#DejaVuSans-48"/>
      </g>
     </g>
    </g>
    <g id="ytick_9">
     <g id="line2d_17">
      <g>
       <use style="stroke:#000000;stroke-width:0.8;" x="57.6" xlink:href="#m0dc2a5658d" y="51.577997"/>
      </g>
     </g>
     <g id="text_16">
      <!-- 1000 -->
      <g transform="translate(25.15 55.377216)scale(0.1 -0.1)">
       <use xlink:href="#DejaVuSans-49"/>
       <use x="63.623047" xlink:href="#DejaVuSans-48"/>
       <use x="127.246094" xlink:href="#DejaVuSans-48"/>
       <use x="190.869141" xlink:href="#DejaVuSans-48"/>
      </g>
     </g>
    </g>
   </g>
   <g id="line2d_18">
    <path clip-path="url(#pf18dc62bc6)" d="M 81.161829 58.724206 
L 378.624648 178.790399 
L 371.998715 283.233133 
" style="fill:none;stroke:#ff0000;stroke-linecap:square;stroke-width:0.5;"/>
   </g>
   <g id="patch_3">
    <path d="M 57.6 307.584 
L 57.6 41.472 
" style="fill:none;stroke:#000000;stroke-linecap:square;stroke-linejoin:miter;stroke-width:0.8;"/>
   </g>
   <g id="patch_4">
    <path d="M 414.72 307.584 
L 414.72 41.472 
" style="fill:none;stroke:#000000;stroke-linecap:square;stroke-linejoin:miter;stroke-width:0.8;"/>
   </g>
   <g id="patch_5">
    <path d="M 57.6 307.584 
L 414.72 307.584 
" style="fill:none;stroke:#000000;stroke-linecap:square;stroke-linejoin:miter;stroke-width:0.8;"/>
   </g>
   <g id="patch_6">
    <path d="M 57.6 41.472 
L 414.72 41.472 
" style="fill:none;stroke:#000000;stroke-linecap:square;stroke-linejoin:miter;stroke-width:0.8;"/>
   </g>
   <g id="PathCollection_1">
    <defs>
     <path d="M 0 2.738613 
C 0.726289 2.738613 1.422928 2.450055 1.936492 1.936492 
C 2.450055 1.422928 2.738613 0.726289 2.738613 0 
C 2.738613 -0.726289 2.450055 -1.422928 1.936492 -1.936492 
C 1.422928 -2.450055 0.726289 -2.738613 0 -2.738613 
C -0.726289 -2.738613 -1.422928 -2.450055 -1.936492 -1.936492 
C -2.450055 -1.422928 -2.738613 -0.726289 -2.738613 0 
C -2.738613 0.726289 -2.450055 1.422928 -1.936492 1.936492 
C -1.422928 2.450055 -0.726289 2.738613 0 2.738613 
z
" id="m00bed2eb0a" style="stroke:#ff0000;"/>
    </defs>
    <g clip-path="url(#pf18dc62bc6)">
     <use style="fill:#ff0000;stroke:#ff0000;" x="81.161829" xlink:href="#m00bed2eb0a" y="58.724206"/>
     <use style="fill:#ff0000;stroke:#ff0000;" x="378.624648" xlink:href="#m00bed2eb0a" y="178.790399"/>
     <use style="fill:#ff0000;stroke:#ff0000;" x="371.998715" xlink:href="#m00bed2eb0a" y="283.233133"/>
    </g>
   </g>
   <g id="text_17">
    <!-- (48) Subject: s23, Known = False, Degree = 2, Duration = 0.1 -->
    <defs>
     <path d="M 31 75.875 
Q 24.46875 64.65625 21.28125 53.65625 
Q 18.109375 42.671875 18.109375 31.390625 
Q 18.109375 20.125 21.3125 9.0625 
Q 24.515625 -2 31 -13.1875 
L 23.1875 -13.1875 
Q 15.875 -1.703125 12.234375 9.375 
Q 8.59375 20.453125 8.59375 31.390625 
Q 8.59375 42.28125 12.203125 53.3125 
Q 15.828125 64.359375 23.1875 75.875 
z
" id="DejaVuSans-40"/>
     <path d="M 8.015625 75.875 
L 15.828125 75.875 
Q 23.140625 64.359375 26.78125 53.3125 
Q 30.421875 42.28125 30.421875 31.390625 
Q 30.421875 20.453125 26.78125 9.375 
Q 23.140625 -1.703125 15.828125 -13.1875 
L 8.015625 -13.1875 
Q 14.5 -2 17.703125 9.0625 
Q 20.90625 20.125 20.90625 31.390625 
Q 20.90625 42.671875 17.703125 53.65625 
Q 14.5 64.65625 8.015625 75.875 
z
" id="DejaVuSans-41"/>
     <path id="DejaVuSans-32"/>
     <path d="M 53.515625 70.515625 
L 53.515625 60.890625 
Q 47.90625 63.578125 42.921875 64.890625 
Q 37.9375 66.21875 33.296875 66.21875 
Q 25.25 66.21875 20.875 63.09375 
Q 16.5 59.96875 16.5 54.203125 
Q 16.5 49.359375 19.40625 46.890625 
Q 22.3125 44.4375 30.421875 42.921875 
L 36.375 41.703125 
Q 47.40625 39.59375 52.65625 34.296875 
Q 57.90625 29 57.90625 20.125 
Q 57.90625 9.515625 50.796875 4.046875 
Q 43.703125 -1.421875 29.984375 -1.421875 
Q 24.8125 -1.421875 18.96875 -0.25 
Q 13.140625 0.921875 6.890625 3.21875 
L 6.890625 13.375 
Q 12.890625 10.015625 18.65625 8.296875 
Q 24.421875 6.59375 29.984375 6.59375 
Q 38.421875 6.59375 43.015625 9.90625 
Q 47.609375 13.234375 47.609375 19.390625 
Q 47.609375 24.75 44.3125 27.78125 
Q 41.015625 30.8125 33.5 32.328125 
L 27.484375 33.5 
Q 16.453125 35.6875 11.515625 40.375 
Q 6.59375 45.0625 6.59375 53.421875 
Q 6.59375 63.09375 13.40625 68.65625 
Q 20.21875 74.21875 32.171875 74.21875 
Q 37.3125 74.21875 42.625 73.28125 
Q 47.953125 72.359375 53.515625 70.515625 
z
" id="DejaVuSans-83"/>
     <path d="M 8.5 21.578125 
L 8.5 54.6875 
L 17.484375 54.6875 
L 17.484375 21.921875 
Q 17.484375 14.15625 20.5 10.265625 
Q 23.53125 6.390625 29.59375 6.390625 
Q 36.859375 6.390625 41.078125 11.03125 
Q 45.3125 15.671875 45.3125 23.6875 
L 45.3125 54.6875 
L 54.296875 54.6875 
L 54.296875 0 
L 45.3125 0 
L 45.3125 8.40625 
Q 42.046875 3.421875 37.71875 1 
Q 33.40625 -1.421875 27.6875 -1.421875 
Q 18.265625 -1.421875 13.375 4.4375 
Q 8.5 10.296875 8.5 21.578125 
z
M 31.109375 56 
z
" id="DejaVuSans-117"/>
     <path d="M 48.6875 27.296875 
Q 48.6875 37.203125 44.609375 42.84375 
Q 40.53125 48.484375 33.40625 48.484375 
Q 26.265625 48.484375 22.1875 42.84375 
Q 18.109375 37.203125 18.109375 27.296875 
Q 18.109375 17.390625 22.1875 11.75 
Q 26.265625 6.109375 33.40625 6.109375 
Q 40.53125 6.109375 44.609375 11.75 
Q 48.6875 17.390625 48.6875 27.296875 
z
M 18.109375 46.390625 
Q 20.953125 51.265625 25.265625 53.625 
Q 29.59375 56 35.59375 56 
Q 45.5625 56 51.78125 48.09375 
Q 58.015625 40.1875 58.015625 27.296875 
Q 58.015625 14.40625 51.78125 6.484375 
Q 45.5625 -1.421875 35.59375 -1.421875 
Q 29.59375 -1.421875 25.265625 0.953125 
Q 20.953125 3.328125 18.109375 8.203125 
L 18.109375 0 
L 9.078125 0 
L 9.078125 75.984375 
L 18.109375 75.984375 
z
" id="DejaVuSans-98"/>
     <path d="M 9.421875 54.6875 
L 18.40625 54.6875 
L 18.40625 -0.984375 
Q 18.40625 -11.421875 14.421875 -16.109375 
Q 10.453125 -20.796875 1.609375 -20.796875 
L -1.8125 -20.796875 
L -1.8125 -13.1875 
L 0.59375 -13.1875 
Q 5.71875 -13.1875 7.5625 -10.8125 
Q 9.421875 -8.453125 9.421875 -0.984375 
z
M 9.421875 75.984375 
L 18.40625 75.984375 
L 18.40625 64.59375 
L 9.421875 64.59375 
z
" id="DejaVuSans-106"/>
     <path d="M 56.203125 29.59375 
L 56.203125 25.203125 
L 14.890625 25.203125 
Q 15.484375 15.921875 20.484375 11.0625 
Q 25.484375 6.203125 34.421875 6.203125 
Q 39.59375 6.203125 44.453125 7.46875 
Q 49.3125 8.734375 54.109375 11.28125 
L 54.109375 2.78125 
Q 49.265625 0.734375 44.1875 -0.34375 
Q 39.109375 -1.421875 33.890625 -1.421875 
Q 20.796875 -1.421875 13.15625 6.1875 
Q 5.515625 13.8125 5.515625 26.8125 
Q 5.515625 40.234375 12.765625 48.109375 
Q 20.015625 56 32.328125 56 
Q 43.359375 56 49.78125 48.890625 
Q 56.203125 41.796875 56.203125 29.59375 
z
M 47.21875 32.234375 
Q 47.125 39.59375 43.09375 43.984375 
Q 39.0625 48.390625 32.421875 48.390625 
Q 24.90625 48.390625 20.390625 44.140625 
Q 15.875 39.890625 15.1875 32.171875 
z
" id="DejaVuSans-101"/>
     <path d="M 48.78125 52.59375 
L 48.78125 44.1875 
Q 44.96875 46.296875 41.140625 47.34375 
Q 37.3125 48.390625 33.40625 48.390625 
Q 24.65625 48.390625 19.8125 42.84375 
Q 14.984375 37.3125 14.984375 27.296875 
Q 14.984375 17.28125 19.8125 11.734375 
Q 24.65625 6.203125 33.40625 6.203125 
Q 37.3125 6.203125 41.140625 7.25 
Q 44.96875 8.296875 48.78125 10.40625 
L 48.78125 2.09375 
Q 45.015625 0.34375 40.984375 -0.53125 
Q 36.96875 -1.421875 32.421875 -1.421875 
Q 20.0625 -1.421875 12.78125 6.34375 
Q 5.515625 14.109375 5.515625 27.296875 
Q 5.515625 40.671875 12.859375 48.328125 
Q 20.21875 56 33.015625 56 
Q 37.15625 56 41.109375 55.140625 
Q 45.0625 54.296875 48.78125 52.59375 
z
" id="DejaVuSans-99"/>
     <path d="M 18.3125 70.21875 
L 18.3125 54.6875 
L 36.8125 54.6875 
L 36.8125 47.703125 
L 18.3125 47.703125 
L 18.3125 18.015625 
Q 18.3125 11.328125 20.140625 9.421875 
Q 21.96875 7.515625 27.59375 7.515625 
L 36.8125 7.515625 
L 36.8125 0 
L 27.59375 0 
Q 17.1875 0 13.234375 3.875 
Q 9.28125 7.765625 9.28125 18.015625 
L 9.28125 47.703125 
L 2.6875 47.703125 
L 2.6875 54.6875 
L 9.28125 54.6875 
L 9.28125 70.21875 
z
" id="DejaVuSans-116"/>
     <path d="M 11.71875 12.40625 
L 22.015625 12.40625 
L 22.015625 0 
L 11.71875 0 
z
M 11.71875 51.703125 
L 22.015625 51.703125 
L 22.015625 39.3125 
L 11.71875 39.3125 
z
" id="DejaVuSans-58"/>
     <path d="M 44.28125 53.078125 
L 44.28125 44.578125 
Q 40.484375 46.53125 36.375 47.5 
Q 32.28125 48.484375 27.875 48.484375 
Q 21.1875 48.484375 17.84375 46.4375 
Q 14.5 44.390625 14.5 40.28125 
Q 14.5 37.15625 16.890625 35.375 
Q 19.28125 33.59375 26.515625 31.984375 
L 29.59375 31.296875 
Q 39.15625 29.25 43.1875 25.515625 
Q 47.21875 21.78125 47.21875 15.09375 
Q 47.21875 7.46875 41.1875 3.015625 
Q 35.15625 -1.421875 24.609375 -1.421875 
Q 20.21875 -1.421875 15.453125 -0.5625 
Q 10.6875 0.296875 5.421875 2 
L 5.421875 11.28125 
Q 10.40625 8.6875 15.234375 7.390625 
Q 20.0625 6.109375 24.8125 6.109375 
Q 31.15625 6.109375 34.5625 8.28125 
Q 37.984375 10.453125 37.984375 14.40625 
Q 37.984375 18.0625 35.515625 20.015625 
Q 33.0625 21.96875 24.703125 23.78125 
L 21.578125 24.515625 
Q 13.234375 26.265625 9.515625 29.90625 
Q 5.8125 33.546875 5.8125 39.890625 
Q 5.8125 47.609375 11.28125 51.796875 
Q 16.75 56 26.8125 56 
Q 31.78125 56 36.171875 55.265625 
Q 40.578125 54.546875 44.28125 53.078125 
z
" id="DejaVuSans-115"/>
     <path d="M 11.71875 12.40625 
L 22.015625 12.40625 
L 22.015625 4 
L 14.015625 -11.625 
L 7.71875 -11.625 
L 11.71875 4 
z
" id="DejaVuSans-44"/>
     <path d="M 9.8125 72.90625 
L 19.671875 72.90625 
L 19.671875 42.09375 
L 52.390625 72.90625 
L 65.09375 72.90625 
L 28.90625 38.921875 
L 67.671875 0 
L 54.6875 0 
L 19.671875 35.109375 
L 19.671875 0 
L 9.8125 0 
z
" id="DejaVuSans-75"/>
     <path d="M 54.890625 33.015625 
L 54.890625 0 
L 45.90625 0 
L 45.90625 32.71875 
Q 45.90625 40.484375 42.875 44.328125 
Q 39.84375 48.1875 33.796875 48.1875 
Q 26.515625 48.1875 22.3125 43.546875 
Q 18.109375 38.921875 18.109375 30.90625 
L 18.109375 0 
L 9.078125 0 
L 9.078125 54.6875 
L 18.109375 54.6875 
L 18.109375 46.1875 
Q 21.34375 51.125 25.703125 53.5625 
Q 30.078125 56 35.796875 56 
Q 45.21875 56 50.046875 50.171875 
Q 54.890625 44.34375 54.890625 33.015625 
z
" id="DejaVuSans-110"/>
     <path d="M 30.609375 48.390625 
Q 23.390625 48.390625 19.1875 42.75 
Q 14.984375 37.109375 14.984375 27.296875 
Q 14.984375 17.484375 19.15625 11.84375 
Q 23.34375 6.203125 30.609375 6.203125 
Q 37.796875 6.203125 41.984375 11.859375 
Q 46.1875 17.53125 46.1875 27.296875 
Q 46.1875 37.015625 41.984375 42.703125 
Q 37.796875 48.390625 30.609375 48.390625 
z
M 30.609375 56 
Q 42.328125 56 49.015625 48.375 
Q 55.71875 40.765625 55.71875 27.296875 
Q 55.71875 13.875 49.015625 6.21875 
Q 42.328125 -1.421875 30.609375 -1.421875 
Q 18.84375 -1.421875 12.171875 6.21875 
Q 5.515625 13.875 5.515625 27.296875 
Q 5.515625 40.765625 12.171875 48.375 
Q 18.84375 56 30.609375 56 
z
" id="DejaVuSans-111"/>
     <path d="M 4.203125 54.6875 
L 13.1875 54.6875 
L 24.421875 12.015625 
L 35.59375 54.6875 
L 46.1875 54.6875 
L 57.421875 12.015625 
L 68.609375 54.6875 
L 77.59375 54.6875 
L 63.28125 0 
L 52.6875 0 
L 40.921875 44.828125 
L 29.109375 0 
L 18.5 0 
z
" id="DejaVuSans-119"/>
     <path d="M 10.59375 45.40625 
L 73.1875 45.40625 
L 73.1875 37.203125 
L 10.59375 37.203125 
z
M 10.59375 25.484375 
L 73.1875 25.484375 
L 73.1875 17.1875 
L 10.59375 17.1875 
z
" id="DejaVuSans-61"/>
     <path d="M 9.8125 72.90625 
L 51.703125 72.90625 
L 51.703125 64.59375 
L 19.671875 64.59375 
L 19.671875 43.109375 
L 48.578125 43.109375 
L 48.578125 34.8125 
L 19.671875 34.8125 
L 19.671875 0 
L 9.8125 0 
z
" id="DejaVuSans-70"/>
     <path d="M 34.28125 27.484375 
Q 23.390625 27.484375 19.1875 25 
Q 14.984375 22.515625 14.984375 16.5 
Q 14.984375 11.71875 18.140625 8.90625 
Q 21.296875 6.109375 26.703125 6.109375 
Q 34.1875 6.109375 38.703125 11.40625 
Q 43.21875 16.703125 43.21875 25.484375 
L 43.21875 27.484375 
z
M 52.203125 31.203125 
L 52.203125 0 
L 43.21875 0 
L 43.21875 8.296875 
Q 40.140625 3.328125 35.546875 0.953125 
Q 30.953125 -1.421875 24.3125 -1.421875 
Q 15.921875 -1.421875 10.953125 3.296875 
Q 6 8.015625 6 15.921875 
Q 6 25.140625 12.171875 29.828125 
Q 18.359375 34.515625 30.609375 34.515625 
L 43.21875 34.515625 
L 43.21875 35.40625 
Q 43.21875 41.609375 39.140625 45 
Q 35.0625 48.390625 27.6875 48.390625 
Q 23 48.390625 18.546875 47.265625 
Q 14.109375 46.140625 10.015625 43.890625 
L 10.015625 52.203125 
Q 14.9375 54.109375 19.578125 55.046875 
Q 24.21875 56 28.609375 56 
Q 40.484375 56 46.34375 49.84375 
Q 52.203125 43.703125 52.203125 31.203125 
z
" id="DejaVuSans-97"/>
     <path d="M 9.421875 75.984375 
L 18.40625 75.984375 
L 18.40625 0 
L 9.421875 0 
z
" id="DejaVuSans-108"/>
     <path d="M 19.671875 64.796875 
L 19.671875 8.109375 
L 31.59375 8.109375 
Q 46.6875 8.109375 53.6875 14.9375 
Q 60.6875 21.78125 60.6875 36.53125 
Q 60.6875 51.171875 53.6875 57.984375 
Q 46.6875 64.796875 31.59375 64.796875 
z
M 9.8125 72.90625 
L 30.078125 72.90625 
Q 51.265625 72.90625 61.171875 64.09375 
Q 71.09375 55.28125 71.09375 36.53125 
Q 71.09375 17.671875 61.125 8.828125 
Q 51.171875 0 30.078125 0 
L 9.8125 0 
z
" id="DejaVuSans-68"/>
     <path d="M 45.40625 27.984375 
Q 45.40625 37.75 41.375 43.109375 
Q 37.359375 48.484375 30.078125 48.484375 
Q 22.859375 48.484375 18.828125 43.109375 
Q 14.796875 37.75 14.796875 27.984375 
Q 14.796875 18.265625 18.828125 12.890625 
Q 22.859375 7.515625 30.078125 7.515625 
Q 37.359375 7.515625 41.375 12.890625 
Q 45.40625 18.265625 45.40625 27.984375 
z
M 54.390625 6.78125 
Q 54.390625 -7.171875 48.1875 -13.984375 
Q 42 -20.796875 29.203125 -20.796875 
Q 24.46875 -20.796875 20.265625 -20.09375 
Q 16.0625 -19.390625 12.109375 -17.921875 
L 12.109375 -9.1875 
Q 16.0625 -11.328125 19.921875 -12.34375 
Q 23.78125 -13.375 27.78125 -13.375 
Q 36.625 -13.375 41.015625 -8.765625 
Q 45.40625 -4.15625 45.40625 5.171875 
L 45.40625 9.625 
Q 42.625 4.78125 38.28125 2.390625 
Q 33.9375 0 27.875 0 
Q 17.828125 0 11.671875 7.65625 
Q 5.515625 15.328125 5.515625 27.984375 
Q 5.515625 40.671875 11.671875 48.328125 
Q 17.828125 56 27.875 56 
Q 33.9375 56 38.28125 53.609375 
Q 42.625 51.21875 45.40625 46.390625 
L 45.40625 54.6875 
L 54.390625 54.6875 
z
" id="DejaVuSans-103"/>
     <path d="M 41.109375 46.296875 
Q 39.59375 47.171875 37.8125 47.578125 
Q 36.03125 48 33.890625 48 
Q 26.265625 48 22.1875 43.046875 
Q 18.109375 38.09375 18.109375 28.8125 
L 18.109375 0 
L 9.078125 0 
L 9.078125 54.6875 
L 18.109375 54.6875 
L 18.109375 46.1875 
Q 20.953125 51.171875 25.484375 53.578125 
Q 30.03125 56 36.53125 56 
Q 37.453125 56 38.578125 55.875 
Q 39.703125 55.765625 41.0625 55.515625 
z
" id="DejaVuSans-114"/>
     <path d="M 9.421875 54.6875 
L 18.40625 54.6875 
L 18.40625 0 
L 9.421875 0 
z
M 9.421875 75.984375 
L 18.40625 75.984375 
L 18.40625 64.59375 
L 9.421875 64.59375 
z
" id="DejaVuSans-105"/>
     <path d="M 10.6875 12.40625 
L 21 12.40625 
L 21 0 
L 10.6875 0 
z
" id="DejaVuSans-46"/>
    </defs>
    <g transform="translate(49.741875 35.472)scale(0.12 -0.12)">
     <use xlink:href="#DejaVuSans-40"/>
     <use x="39.013672" xlink:href="#DejaVuSans-52"/>
     <use x="102.636719" xlink:href="#DejaVuSans-56"/>
     <use x="166.259766" xlink:href="#DejaVuSans-41"/>
     <use x="205.273438" xlink:href="#DejaVuSans-32"/>
     <use x="237.060547" xlink:href="#DejaVuSans-83"/>
     <use x="300.537109" xlink:href="#DejaVuSans-117"/>
     <use x="363.916016" xlink:href="#DejaVuSans-98"/>
     <use x="427.392578" xlink:href="#DejaVuSans-106"/>
     <use x="455.175781" xlink:href="#DejaVuSans-101"/>
     <use x="516.699219" xlink:href="#DejaVuSans-99"/>
     <use x="571.679688" xlink:href="#DejaVuSans-116"/>
     <use x="610.888672" xlink:href="#DejaVuSans-58"/>
     <use x="644.580078" xlink:href="#DejaVuSans-32"/>
     <use x="676.367188" xlink:href="#DejaVuSans-115"/>
     <use x="728.466797" xlink:href="#DejaVuSans-50"/>
     <use x="792.089844" xlink:href="#DejaVuSans-51"/>
     <use x="855.712891" xlink:href="#DejaVuSans-44"/>
     <use x="887.5" xlink:href="#DejaVuSans-32"/>
     <use x="919.287109" xlink:href="#DejaVuSans-75"/>
     <use x="984.863281" xlink:href="#DejaVuSans-110"/>
     <use x="1048.242188" xlink:href="#DejaVuSans-111"/>
     <use x="1109.423828" xlink:href="#DejaVuSans-119"/>
     <use x="1191.210938" xlink:href="#DejaVuSans-110"/>
     <use x="1254.589844" xlink:href="#DejaVuSans-32"/>
     <use x="1286.376953" xlink:href="#DejaVuSans-61"/>
     <use x="1370.166016" xlink:href="#DejaVuSans-32"/>
     <use x="1401.953125" xlink:href="#DejaVuSans-70"/>
     <use x="1459.332031" xlink:href="#DejaVuSans-97"/>
     <use x="1520.611328" xlink:href="#DejaVuSans-108"/>
     <use x="1548.394531" xlink:href="#DejaVuSans-115"/>
     <use x="1600.494141" xlink:href="#DejaVuSans-101"/>
     <use x="1662.017578" xlink:href="#DejaVuSans-44"/>
     <use x="1693.804688" xlink:href="#DejaVuSans-32"/>
     <use x="1725.591797" xlink:href="#DejaVuSans-68"/>
     <use x="1802.59375" xlink:href="#DejaVuSans-101"/>
     <use x="1864.117188" xlink:href="#DejaVuSans-103"/>
     <use x="1927.59375" xlink:href="#DejaVuSans-114"/>
     <use x="1968.675781" xlink:href="#DejaVuSans-101"/>
     <use x="2030.199219" xlink:href="#DejaVuSans-101"/>
     <use x="2091.722656" xlink:href="#DejaVuSans-32"/>
     <use x="2123.509766" xlink:href="#DejaVuSans-61"/>
     <use x="2207.298828" xlink:href="#DejaVuSans-32"/>
     <use x="2239.085938" xlink:href="#DejaVuSans-50"/>
     <use x="2302.708984" xlink:href="#DejaVuSans-44"/>
     <use x="2334.496094" xlink:href="#DejaVuSans-32"/>
     <use x="2366.283203" xlink:href="#DejaVuSans-68"/>
     <use x="2443.285156" xlink:href="#DejaVuSans-117"/>
     <use x="2506.664062" xlink:href="#DejaVuSans-114"/>
     <use x="2547.777344" xlink:href="#DejaVuSans-97"/>
     <use x="2609.056641" xlink:href="#DejaVuSans-116"/>
     <use x="2648.265625" xlink:href="#DejaVuSans-105"/>
     <use x="2676.048828" xlink:href="#DejaVuSans-111"/>
     <use x="2737.230469" xlink:href="#DejaVuSans-110"/>
     <use x="2800.609375" xlink:href="#DejaVuSans-32"/>
     <use x="2832.396484" xlink:href="#DejaVuSans-61"/>
     <use x="2916.185547" xlink:href="#DejaVuSans-32"/>
     <use x="2947.972656" xlink:href="#DejaVuSans-48"/>
     <use x="3011.595703" xlink:href="#DejaVuSans-46"/>
     <use x="3043.382812" xlink:href="#DejaVuSans-49"/>
    </g>
   </g>
  </g>
 </g>
 <defs>
  <clipPath id="pf18dc62bc6">
   <rect height="266.112" width="357.12" x="57.6" y="41.472"/>
  </clipPath>
 </defs>
</svg>
