<?xml version="1.0" encoding="utf-8" standalone="no"?>
<!DOCTYPE svg PUBLIC "-//W3C//DTD SVG 1.1//EN"
  "http://www.w3.org/Graphics/SVG/1.1/DTD/svg11.dtd">
<!-- Created with matplotlib (https://matplotlib.org/) -->
<svg height="345.6pt" version="1.1" viewBox="0 0 460.8 345.6" width="460.8pt" xmlns="http://www.w3.org/2000/svg" xmlns:xlink="http://www.w3.org/1999/xlink">
 <defs>
  <style type="text/css">
*{stroke-linecap:butt;stroke-linejoin:round;}
  </style>
 </defs>
 <g id="figure_1">
  <g id="patch_1">
   <path d="M 0 345.6 
L 460.8 345.6 
L 460.8 0 
L 0 0 
z
" style="fill:#ffffff;"/>
  </g>
  <g id="axes_1">
   <g id="patch_2">
    <path d="M 57.6 307.584 
L 414.72 307.584 
L 414.72 41.472 
L 57.6 41.472 
z
" style="fill:#ffffff;"/>
   </g>
   <g id="line2d_1">
    <path clip-path="url(#pbb2e4c6ab1)" d="M 74.446734 68.14304 
L 74.324695 68.14304 
L 74.446734 68.14304 
L 74.446734 68.478541 
L 74.202657 68.645375 
L 73.832727 68.478541 
L 74.324695 67.976206 
L 74.572586 67.976206 
L 74.324695 68.478541 
L 74.076804 68.14304 
L 73.954766 68.309874 
L 74.076804 68.814042 
L 74.076804 68.814042 
L 74.572586 68.478541 
L 74.572586 68.309874 
L 74.324695 68.14304 
L 74.076804 68.14304 
L 74.076804 67.976206 
L 74.202657 67.976206 
L 74.324695 67.807539 
L 74.202657 67.976206 
L 74.202657 68.309874 
L 74.324695 68.645375 
L 74.572586 68.645375 
L 75.064554 68.478541 
L 75.312445 68.14304 
L 75.434483 67.473872 
L 74.816663 68.309874 
L 74.572586 67.976206 
L 74.694624 67.640705 
L 74.942515 67.640705 
L 74.942515 67.976206 
L 74.572586 67.640705 
L 74.572586 68.14304 
L 74.816663 68.14304 
L 75.064554 67.976206 
L 75.064554 68.14304 
L 74.694624 68.478541 
L 74.942515 68.14304 
L 74.942515 67.807539 
L 74.816663 67.473872 
L 74.816663 67.640705 
L 74.694624 67.976206 
L 74.816663 67.473872 
L 74.694624 67.640705 
L 74.202657 66.969704 
L 74.446734 67.138371 
L 74.446734 66.969704 
L 74.076804 66.969704 
L 74.076804 66.969704 
L 74.816663 67.807539 
L 75.064554 67.473872 
L 74.942515 66.80287 
L 74.694624 66.636036 
L 74.572586 66.300535 
L 75.064554 65.7982 
L 74.942515 65.965034 
L 74.572586 65.965034 
L 74.324695 65.7982 
L 74.202657 65.462699 
L 74.694624 64.624864 
L 74.816663 63.953862 
L 74.816663 64.289363 
L 74.942515 64.45803 
L 75.186592 64.289363 
L 75.434483 63.787028 
L 74.942515 63.787028 
L 74.816663 63.451527 
L 74.816663 63.11786 
L 74.694624 62.782359 
L 74.446734 62.782359 
L 74.572586 63.11786 
L 74.816663 63.11786 
L 74.816663 62.782359 
L 74.572586 61.944523 
L 74.572586 61.777689 
L 74.816663 61.777689 
L 74.816663 61.777689 
L 74.324695 61.106687 
L 74.324695 61.106687 
L 74.324695 61.442188 
L 74.572586 61.442188 
L 74.942515 60.939854 
L 74.942515 60.268852 
L 74.572586 59.766517 
L 74.202657 59.766517 
L 74.202657 59.933351 
L 74.446734 60.102018 
L 74.694624 60.102018 
L 74.446734 60.268852 
L 74.202657 59.766517 
L 74.324695 59.766517 
L 74.202657 59.766517 
L 74.324695 59.264182 
L 74.694624 59.095515 
L 74.694624 58.761848 
L 74.446734 58.25768 
L 73.954766 57.924012 
L 73.954766 57.924012 
L 74.446734 58.761848 
L 74.324695 58.593181 
L 74.324695 58.090846 
L 74.572586 57.588511 
L 74.446734 57.086176 
L 74.324695 57.086176 
L 74.324695 57.421677 
L 74.202657 57.755345 
L 74.202657 57.755345 
L 74.202657 56.583842 
L 73.954766 56.415175 
L 73.954766 56.750675 
L 74.202657 56.917509 
L 74.446734 56.917509 
L 74.694624 56.750675 
L 74.694624 56.248341 
L 74.816663 55.746006 
L 74.446734 55.746006 
L 74.446734 55.91284 
L 74.324695 55.91284 
L 74.202657 56.081507 
L 75.064554 55.075004 
L 75.186592 55.075004 
L 75.064554 55.243671 
L 74.816663 55.243671 
L 74.446734 54.90817 
L 74.572586 54.572669 
L 75.434483 54.070335 
L 75.312445 54.070335 
L 74.942515 54.739503 
L 75.064554 54.90817 
L 75.064554 54.739503 
L 75.186592 54.405836 
L 75.682374 54.405836 
L 75.804412 54.237169 
L 75.682374 54.070335 
L 75.312445 54.405836 
L 74.694624 54.572669 
L 74.572586 54.237169 
L 74.942515 54.070335 
L 75.434483 53.568 
L 75.186592 53.568 
L 75.064554 53.734834 
L 75.186592 54.070335 
L 75.434483 54.405836 
L 75.434483 54.405836 
L 75.186592 54.739503 
L 74.694624 54.90817 
L 75.312445 54.070335 
L 75.186592 54.405836 
L 75.064554 54.739503 
L 75.312445 55.243671 
L 75.556522 55.075004 
L 75.804412 55.075004 
L 75.926451 55.243671 
L 75.682374 55.075004 
L 75.312445 54.739503 
L 75.312445 54.405836 
L 75.186592 54.572669 
L 74.816663 54.572669 
L 74.694624 54.237169 
L 74.816663 53.903501 
L 75.186592 54.237169 
L 75.682374 55.243671 
L 75.682374 55.410505 
L 76.174342 55.410505 
L 78.023988 54.90817 
L 79.50752 54.405836 
L 81.357166 53.903501 
L 85.67428 53.568 
L 88.389637 53.734834 
L 91.596963 54.405836 
L 98.999363 56.583842 
L 103.194438 57.924012 
L 107.511551 59.095515 
L 116.271631 61.106687 
L 120.710783 62.613692 
L 125.401639 64.45803 
L 129.96283 65.965034 
L 145.13756 68.478541 
L 149.950455 69.483211 
L 154.76335 70.656547 
L 159.572431 72.163551 
L 169.32026 75.514894 
L 174.255194 76.855064 
L 179.068089 78.362068 
L 203.986834 87.074092 
L 208.799729 88.916597 
L 213.734662 90.92777 
L 219.039525 92.938942 
L 230.01918 96.288451 
L 235.324043 98.130956 
L 240.506868 100.142128 
L 250.376735 103.827139 
L 255.063778 105.671477 
L 259.872859 107.347148 
L 264.315825 109.020986 
L 268.75879 110.361157 
L 272.705975 111.367659 
L 276.53112 112.70783 
L 280.478304 114.383501 
L 284.425488 116.226006 
L 291.335921 120.582018 
L 294.295356 122.257689 
L 297.010713 123.59786 
L 299.722257 125.271698 
L 302.437615 127.28287 
L 304.783043 129.460876 
L 308.978118 133.816888 
L 310.949803 135.659393 
L 312.059591 137.335064 
L 312.677411 139.010735 
L 313.04734 140.853241 
L 313.909238 142.695746 
L 314.527058 144.538251 
L 314.65291 146.382589 
L 314.65291 148.727429 
L 314.774949 152.245605 
L 314.774949 153.585776 
L 314.157129 157.270786 
L 313.665161 160.119794 
L 313.787199 161.124463 
L 313.665161 162.464633 
L 312.925302 165.144974 
L 312.925302 166.151477 
L 313.04734 167.156146 
L 313.665161 169.334152 
L 313.787199 170.005154 
L 312.555373 172.685495 
L 312.42952 173.690164 
L 312.555373 175.197169 
L 312.059591 175.86817 
L 311.937552 176.370505 
L 311.937552 176.87284 
L 312.059591 177.375175 
L 312.307482 177.877509 
L 311.319732 178.548511 
L 311.319732 178.884012 
L 311.937552 179.553181 
L 312.185443 179.721848 
L 312.059591 179.721848 
L 312.059591 179.888681 
L 311.567623 180.726517 
L 311.815514 180.893351 
L 311.815514 181.397519 
L 311.567623 182.066687 
L 311.815514 182.233521 
L 311.937552 182.066687 
L 311.689662 181.564353 
L 311.689662 181.731187 
L 312.059591 182.066687 
L 312.185443 182.569022 
L 312.059591 182.904523 
L 311.567623 183.071357 
L 311.567623 182.904523 
L 311.689662 182.904523 
L 311.689662 182.904523 
L 311.689662 183.240024 
L 311.815514 183.240024 
L 311.937552 183.071357 
L 312.307482 183.573692 
L 312.42952 183.240024 
L 312.307482 182.904523 
L 312.059591 182.904523 
L 311.567623 183.573692 
L 311.689662 183.909193 
L 311.937552 184.244693 
L 312.059591 184.07786 
L 312.059591 183.573692 
L 312.42952 182.402188 
L 311.937552 183.240024 
L 311.815514 183.406858 
L 311.815514 183.909193 
L 312.059591 183.573692 
L 312.555373 184.07786 
L 312.185443 183.742359 
L 312.42952 183.240024 
L 312.42952 183.406858 
L 312.925302 183.909193 
L 313.04734 183.742359 
L 312.42952 183.742359 
L 312.307482 183.909193 
L 312.677411 183.406858 
L 312.307482 184.747028 
L 312.42952 184.411527 
L 312.79945 184.07786 
L 312.925302 183.909193 
L 313.169379 183.909193 
L 313.539308 184.07786 
L 316.254666 183.406858 
L 317.734383 183.071357 
L 319.339953 182.233521 
L 320.941709 181.564353 
L 324.766854 181.228852 
L 326.864392 181.397519 
L 334.018901 182.904523 
L 336.486368 183.071357 
L 339.449617 183.573692 
L 342.409051 184.580194 
L 347.961805 187.427369 
L 356.226103 190.778711 
L 358.94146 192.118882 
L 361.530965 193.794553 
L 366.835828 196.810395 
L 369.429147 198.317399 
L 374.238229 201.835575 
L 381.518591 207.029423 
L 385.465775 211.049934 
L 387.193383 212.725605 
L 389.04303 214.232609 
L 390.770638 215.908281 
L 392.006278 217.417118 
L 396.44543 224.11797 
L 396.941212 225.793641 
L 397.185289 227.469313 
L 397.06325 229.980986 
L 397.433179 230.987489 
L 397.68107 231.992158 
L 397.68107 232.829994 
L 397.185289 233.499163 
L 396.815359 234.505665 
L 396.323391 238.190675 
L 396.201353 239.028511 
L 396.201353 239.866347 
L 396.571282 241.542018 
L 396.815359 242.379854 
L 397.311141 246.231698 
L 397.555218 246.902699 
L 397.555218 247.740535 
L 397.311141 248.409704 
L 396.941212 248.745205 
L 397.06325 248.913872 
L 397.185289 249.416206 
L 397.185289 249.918541 
L 397.433179 250.085375 
L 397.555218 250.420876 
L 397.185289 251.92788 
L 397.185289 252.598882 
L 397.433179 253.269884 
L 397.185289 253.269884 
L 396.815359 253.939052 
L 396.693321 254.610054 
L 396.815359 255.112389 
L 397.185289 255.44789 
L 397.185289 255.781557 
L 397.311141 256.452559 
L 397.68107 257.457229 
L 397.311141 257.792729 
L 396.941212 257.792729 
L 397.06325 258.12823 
L 397.433179 258.797399 
L 397.311141 258.966066 
L 397.185289 259.802068 
L 397.555218 259.802068 
L 398.173038 260.137569 
L 398.051 259.970735 
L 397.803109 260.137569 
L 397.555218 260.639904 
L 397.68107 260.975405 
L 397.68107 260.808571 
L 397.803109 260.47307 
L 397.803109 260.808571 
L 397.555218 262.484242 
L 397.555218 262.315575 
L 397.311141 262.315575 
L 397.311141 262.484242 
L 397.555218 262.484242 
L 398.173038 263.153411 
L 398.29889 263.488912 
L 398.051 262.986577 
L 397.803109 262.484242 
L 398.051 263.153411 
L 398.051 263.320245 
L 397.925147 263.824413 
L 398.420929 264.15808 
L 398.420929 264.493581 
L 398.29889 264.662248 
L 397.68107 264.995916 
L 397.68107 265.164583 
L 397.68107 265.164583 
L 397.803109 264.829082 
L 398.051 264.493581 
L 398.29889 264.662248 
L 397.68107 265.331417 
L 397.311141 265.331417 
L 397.433179 265.498251 
L 398.051 265.833752 
L 398.051 266.169253 
L 397.925147 266.336086 
L 397.555218 266.336086 
L 397.555218 266.504753 
L 398.051 266.504753 
L 397.68107 266.504753 
L 397.433179 266.336086 
L 397.68107 266.169253 
L 398.051 266.504753 
L 398.173038 266.671587 
L 398.051 266.671587 
L 397.433179 266.840254 
L 397.555218 266.504753 
L 397.803109 266.504753 
L 397.803109 266.671587 
L 397.68107 267.509423 
L 397.925147 267.007088 
L 397.925147 266.671587 
L 397.803109 266.336086 
L 397.803109 266.840254 
L 398.051 268.011758 
L 398.051 267.676257 
L 398.051 267.007088 
L 398.173038 266.840254 
L 398.173038 267.509423 
L 398.173038 267.342589 
L 398.051 267.173922 
L 398.051 267.342589 
L 398.051 268.180425 
L 397.803109 268.514092 
L 397.925147 268.514092 
L 398.051 268.514092 
L 397.925147 268.849593 
L 397.925147 269.351928 
L 397.925147 269.351928 
L 398.420929 268.849593 
L 398.29889 269.016427 
L 397.925147 269.016427 
L 397.803109 269.185094 
L 397.803109 269.520595 
L 397.925147 270.358431 
L 397.803109 270.02293 
L 397.68107 269.185094 
L 397.803109 269.351928 
L 397.925147 269.854263 
L 397.555218 270.189764 
L 397.555218 270.189764 
L 397.803109 270.358431 
L 397.803109 270.525265 
L 397.68107 270.692098 
L 398.051 270.358431 
L 398.173038 270.692098 
L 398.051 270.860765 
L 397.68107 270.692098 
L 397.555218 270.358431 
L 397.68107 270.525265 
L 398.051 270.860765 
L 398.29889 270.860765 
L 398.420929 271.027599 
L 397.68107 272.200936 
L 397.68107 272.200936 
L 397.555218 271.865435 
L 397.555218 271.529934 
L 397.803109 271.529934 
L 398.051 271.3631 
L 397.925147 271.3631 
L 397.433179 271.027599 
L 398.051 271.529934 
L 398.173038 271.865435 
L 398.051 272.032269 
L 398.051 271.529934 
L 397.803109 271.027599 
L 397.803109 271.3631 
L 397.925147 271.529934 
L 398.051 271.3631 
L 397.925147 271.027599 
L 397.803109 271.194433 
L 397.803109 271.865435 
L 397.925147 272.032269 
L 398.051 271.698601 
L 397.803109 271.194433 
L 397.555218 271.194433 
L 397.06325 271.529934 
L 397.433179 271.194433 
L 398.29889 271.027599 
L 398.051 270.860765 
L 397.803109 271.027599 
L 397.06325 271.194433 
L 396.075501 271.027599 
L 394.965713 270.692098 
L 393.733886 270.02293 
L 392.250355 269.351928 
L 388.05528 267.844924 
L 385.835704 266.504753 
L 383.49409 264.829082 
L 380.408803 262.81791 
L 373.624222 258.797399 
L 369.799077 256.954894 
L 365.72604 255.44789 
L 357.461743 251.92788 
L 343.644692 246.231698 
L 339.201726 244.055525 
L 321.311638 236.181337 
L 316.750448 234.336998 
L 312.185443 232.996828 
L 307.494587 232.158992 
L 302.685505 231.489824 
L 289.730351 229.143151 
L 277.515056 228.138481 
L 269.868578 226.798311 
L 258.393142 226.798311 
L 252.844202 226.295976 
L 251.486523 226.46281 
L 249.758915 226.966978 
L 249.141095 227.469313 
L 249.263133 227.469313 
L 249.633062 227.300645 
L 250.128844 227.300645 
L 251.238632 227.80298 
L 251.238632 227.80298 
L 251.116594 227.971647 
L 251.486523 228.307148 
L 251.116594 227.971647 
L 250.868703 228.307148 
L 250.868703 228.640816 
L 250.620812 228.809483 
L 249.880953 229.143151 
L 249.880953 229.311818 
L 250.002992 229.143151 
L 250.002992 229.311818 
L 249.880953 229.647319 
L 249.633062 229.647319 
L 249.633062 229.478651 
L 249.758915 229.311818 
L 250.376735 229.311818 
L 250.498773 229.647319 
L 250.498773 230.149653 
L 250.376735 230.149653 
L 250.250883 229.980986 
L 250.498773 229.478651 
L 250.498773 229.647319 
L 250.498773 229.647319 
L 250.250883 230.987489 
L 250.250883 230.987489 
L 250.128844 230.485154 
L 250.498773 230.149653 
L 250.376735 230.149653 
L 250.128844 229.647319 
L 250.620812 230.485154 
L 250.620812 230.485154 
L 250.746664 230.485154 
L 250.868703 230.316487 
L 250.498773 230.987489 
L 250.498773 230.987489 
L 250.746664 230.987489 
L 251.116594 231.154323 
L 251.238632 231.489824 
L 251.116594 231.825325 
L 250.990741 231.656657 
L 251.116594 231.321157 
L 251.238632 231.321157 
L 250.990741 230.818822 
L 250.990741 230.651988 
L 250.868703 230.651988 
L 250.868703 231.321157 
L 251.116594 231.992158 
L 251.360671 232.158992 
L 251.608561 231.992158 
L 251.360671 231.825325 
L 250.990741 231.825325 
L 250.990741 231.992158 
L 251.116594 231.992158 
L 251.116594 231.656657 
L 251.360671 231.321157 
L 251.360671 231.489824 
L 250.746664 232.494493 
L 250.746664 231.825325 
L 250.990741 231.489824 
L 250.990741 231.656657 
L 250.990741 232.158992 
L 250.746664 232.66316 
L 250.868703 232.66316 
L 250.868703 231.825325 
L 250.746664 231.825325 
L 250.620812 231.992158 
L 251.116594 231.489824 
L 251.116594 231.489824 
L 251.116594 231.656657 
L 250.990741 231.992158 
L 250.990741 232.494493 
L 251.360671 232.66316 
L 251.856452 232.66316 
L 251.7306 232.494493 
L 251.486523 232.494493 
L 251.360671 232.327659 
L 251.608561 232.494493 
L 251.7306 232.494493 
L 251.486523 232.158992 
L 251.486523 231.825325 
L 251.7306 231.992158 
L 251.856452 232.327659 
L 251.7306 232.66316 
L 251.238632 232.66316 
L 251.116594 232.494493 
L 251.360671 232.327659 
L 251.360671 232.327659 
L 251.608561 232.996828 
L 251.856452 232.494493 
L 251.856452 231.656657 
L 251.7306 231.489824 
L 251.7306 231.489824 
L 251.856452 232.327659 
L 252.100529 231.489824 
L 251.978491 231.489824 
L 251.978491 231.489824 
L 252.470459 230.316487 
L 252.470459 229.478651 
L 252.34842 228.809483 
L 252.596311 227.971647 
L 252.596311 227.971647 
L 256.173566 196.474894 
L 257.161315 188.600705 
L 257.161315 188.600705 
L 258.641032 161.124463 
L 259.380891 154.925946 
L 259.628782 152.078771 
L 260.12075 149.396597 
L 260.12075 149.396597 
L 263.698005 130.801046 
L 264.437863 128.958541 
L 265.177722 127.449704 
L 265.673504 126.109533 
L 266.165471 125.440365 
L 266.783292 125.104864 
L 267.031182 124.769363 
L 267.401112 123.262359 
L 267.771041 122.257689 
L 267.89308 121.084353 
L 268.14097 121.251187 
L 268.388861 121.251187 
L 268.388861 121.251187 
L 267.771041 121.586687 
L 267.645189 121.419854 
L 267.89308 121.251187 
L 268.880829 120.915686 
L 268.388861 121.084353 
L 268.14097 120.246517 
L 268.14097 120.079683 
L 268.018932 120.079683 
L 267.89308 119.911016 
L 268.018932 119.575515 
L 268.5109 118.739513 
L 268.75879 118.068511 
L 268.632938 118.068511 
L 268.632938 118.235345 
L 268.5109 118.068511 
L 268.14097 116.39284 
L 268.388861 116.561507 
L 268.5109 116.39284 
L 268.5109 115.723671 
L 268.5109 115.890505 
L 268.388861 115.890505 
L 268.632938 114.885836 
L 268.632938 114.383501 
L 268.632938 114.383501 
L 268.880829 114.550335 
L 268.632938 114.048 
L 268.388861 113.879333 
L 268.14097 113.879333 
L 268.14097 113.712499 
L 268.5109 113.545665 
L 268.5109 113.879333 
L 267.89308 114.048 
L 267.771041 113.376998 
L 267.89308 113.376998 
L 267.89308 112.874663 
L 267.89308 113.043331 
L 267.401112 112.539163 
L 267.645189 112.70783 
L 267.771041 112.539163 
L 268.018932 112.539163 
L 268.14097 112.70783 
L 267.89308 113.043331 
L 267.645189 112.874663 
L 267.401112 112.539163 
L 267.52315 112.539163 
L 267.771041 112.539163 
L 267.771041 112.70783 
L 267.89308 112.539163 
L 267.275259 113.210164 
L 267.153221 113.210164 
L 267.52315 112.70783 
L 267.645189 112.874663 
L 267.52315 112.70783 
L 267.153221 112.70783 
L 267.153221 112.874663 
L 267.645189 112.70783 
L 268.263009 112.372329 
L 268.14097 112.036828 
L 267.645189 112.205495 
L 267.52315 112.372329 
L 267.645189 112.372329 
L 267.771041 112.372329 
L 267.771041 112.205495 
L 267.89308 112.205495 
L 268.388861 112.539163 
L 268.388861 112.70783 
L 268.263009 112.70783 
L 268.14097 112.205495 
L 268.14097 112.372329 
L 267.771041 112.70783 
L 267.89308 112.70783 
L 267.52315 112.539163 
L 267.52315 112.70783 
L 267.771041 112.874663 
L 268.14097 112.539163 
L 268.388861 112.372329 
L 268.14097 112.874663 
L 268.14097 112.70783 
L 268.14097 112.70783 
L 268.263009 112.70783 
L 268.263009 113.043331 
L 268.018932 113.210164 
L 267.771041 113.210164 
L 268.14097 113.879333 
L 267.89308 113.210164 
L 267.771041 112.874663 
L 267.771041 113.043331 
L 267.771041 113.376998 
L 267.89308 113.376998 
L 268.018932 113.043331 
L 267.89308 113.043331 
L 267.89308 112.874663 
L 268.14097 113.376998 
L 268.018932 113.712499 
L 268.018932 113.712499 
L 267.771041 113.712499 
L 267.645189 113.545665 
L 267.771041 113.545665 
L 267.645189 113.879333 
L 267.645189 113.879333 
L 267.153221 113.210164 
L 266.661253 112.874663 
L 264.067934 112.205495 
L 262.466178 111.869994 
L 260.490679 111.869994 
L 256.543495 112.539163 
L 254.445958 113.043331 
L 247.783416 114.048 
L 245.19391 114.885836 
L 242.478553 115.890505 
L 239.889048 117.230675 
L 232.116718 121.586687 
L 226.316073 124.100194 
L 223.604529 125.104864 
L 220.641281 126.780535 
L 214.474521 130.634212 
L 209.291697 133.481387 
L 206.950082 134.654723 
L 204.234724 136.497229 
L 201.519367 139.010735 
L 198.804009 141.188741 
L 196.336542 142.695746 
L 194.116966 144.204583 
L 192.26732 145.878421 
L 190.291821 148.225094 
L 188.690065 150.905435 
L 187.454425 153.418942 
L 186.714566 156.099283 
L 186.096746 158.779623 
L 185.11281 161.459964 
L 182.767382 165.144974 
L 181.905485 167.32298 
L 179.438018 174.359333 
L 176.970551 180.559683 
L 176.352731 182.737689 
L 175.982802 184.915695 
L 175.364982 187.260535 
L 173.885264 191.616547 
L 173.637373 193.625886 
L 173.637373 200.159904 
L 173.515335 202.506577 
L 173.515335 207.029423 
L 173.389483 209.54293 
L 173.389483 212.054603 
L 172.649624 218.086287 
L 172.649624 219.928792 
L 172.775476 221.604463 
L 172.649624 223.113301 
L 172.157656 226.295976 
L 172.157656 227.971647 
L 171.909765 229.478651 
L 171.787727 230.987489 
L 171.787727 232.66316 
L 172.035618 235.677169 
L 171.909765 236.683671 
L 171.909765 237.688341 
L 171.665688 240.368681 
L 170.92583 243.217689 
L 170.799977 244.891527 
L 170.799977 245.562529 
L 171.047868 246.231698 
L 171.539836 249.416206 
L 171.295759 249.58304 
L 171.169907 250.085375 
L 171.665688 254.776888 
L 171.665688 255.44789 
L 171.787727 255.781557 
L 171.787727 256.283892 
L 172.035618 258.12823 
L 172.035618 259.468401 
L 171.539836 259.970735 
L 172.157656 261.646407 
L 172.157656 262.484242 
L 172.035618 262.484242 
L 171.909765 262.651076 
L 171.909765 263.153411 
L 172.279695 263.991247 
L 172.157656 264.493581 
L 171.665688 265.331417 
L 171.417797 265.331417 
L 171.417797 265.498251 
L 171.909765 266.002419 
L 171.909765 266.336086 
L 171.787727 266.671587 
L 172.035618 267.173922 
L 171.787727 267.509423 
L 171.295759 267.844924 
L 171.539836 268.011758 
L 171.909765 268.682759 
L 171.787727 268.849593 
L 171.787727 268.849593 
L 171.909765 269.185094 
L 171.417797 270.189764 
L 171.295759 270.189764 
L 171.539836 270.189764 
L 171.787727 271.027599 
L 171.787727 271.3631 
L 171.665688 271.865435 
L 172.405547 271.865435 
L 172.405547 271.865435 
L 172.157656 272.200936 
L 172.157656 272.032269 
L 172.035618 272.032269 
L 171.909765 272.536437 
L 171.909765 272.536437 
L 173.389483 277.728451 
L 172.775476 279.404122 
L 172.897515 279.404122 
L 173.145406 279.404122 
L 173.145406 279.404122 
L 173.763226 280.241958 
L 173.763226 280.241958 
L 173.389483 280.241958 
L 173.389483 280.408792 
L 173.637373 279.906457 
L 173.885264 280.075124 
L 174.007303 280.408792 
L 173.637373 280.744293 
L 173.637373 281.079794 
L 173.763226 281.415295 
L 173.885264 281.079794 
L 173.763226 280.91296 
L 173.885264 281.079794 
L 174.007303 281.582128 
L 173.515335 282.084463 
L 173.515335 282.586798 
L 173.885264 285.268972 
L 173.885264 285.268972 
L 174.625123 284.59797 
L 174.133155 285.100305 
L 173.763226 285.771307 
L 174.007303 285.602639 
L 173.885264 286.104974 
L 174.255194 286.104974 
L 174.377232 286.273641 
L 174.007303 286.440475 
L 174.255194 286.94281 
L 173.763226 287.278311 
L 174.255194 286.94281 
L 174.625123 287.111477 
L 174.625123 287.111477 
L 174.377232 286.94281 
L 174.255194 287.278311 
L 174.007303 287.780645 
L 174.133155 287.613812 
L 174.377232 287.446978 
L 174.377232 287.613812 
L 174.133155 287.278311 
L 174.007303 287.613812 
L 174.007303 288.116146 
L 174.133155 288.618481 
L 173.885264 288.116146 
L 174.007303 287.949313 
L 174.377232 288.116146 
L 174.625123 288.451647 
L 174.503084 288.618481 
L 174.255194 288.451647 
L 174.377232 287.949313 
L 174.625123 288.787148 
L 174.625123 288.953982 
L 174.503084 289.120816 
L 174.255194 289.120816 
L 174.255194 289.120816 
L 174.625123 288.953982 
L 174.377232 288.787148 
L 173.885264 289.289483 
L 174.133155 289.958651 
L 174.133155 289.791818 
L 174.255194 289.623151 
L 174.503084 289.623151 
L 174.625123 289.958651 
L 174.625123 290.294152 
L 174.625123 290.294152 
L 174.747161 289.958651 
L 174.747161 289.623151 
L 174.625123 289.289483 
L 174.747161 289.623151 
L 174.747161 289.958651 
L 174.625123 290.294152 
L 174.377232 290.294152 
L 173.885264 289.958651 
L 174.007303 290.127319 
L 174.255194 290.629653 
L 174.503084 290.294152 
L 174.503084 290.460986 
L 174.747161 290.629653 
L 174.747161 290.796487 
L 174.625123 291.131988 
L 174.625123 291.634323 
L 174.625123 291.467489 
L 174.377232 290.965154 
L 174.747161 290.965154 
L 175.117091 291.298822 
L 174.873014 291.131988 
L 174.625123 291.131988 
L 174.625123 291.801157 
L 174.625123 291.634323 
L 174.377232 291.131988 
L 174.747161 291.969824 
L 174.747161 292.305325 
L 174.873014 291.969824 
L 174.625123 292.136657 
L 174.503084 292.638992 
L 174.747161 292.974493 
L 174.995052 292.638992 
L 174.995052 292.305325 
L 174.625123 292.136657 
L 174.377232 292.638992 
L 174.133155 292.807659 
L 174.133155 293.14316 
L 174.377232 293.14316 
L 174.747161 292.974493 
L 174.747161 292.974493 
L 174.747161 293.309994 
L 174.747161 293.309994 
L 174.625123 293.309994 
L 174.255194 293.476828 
L 174.255194 293.645495 
L 174.503084 294.14783 
L 174.995052 294.650164 
L 175.242943 294.650164 
L 175.242943 294.314663 
L 175.117091 293.979163 
L 174.873014 293.645495 
L 174.503084 293.645495 
L 174.377232 293.979163 
L 174.747161 294.483331 
L 174.503084 294.650164 
L 174.255194 294.650164 
L 174.255194 294.483331 
L 174.377232 294.483331 
L 174.625123 294.816998 
L 174.625123 294.816998 
L 174.625123 293.812329 
L 174.503084 293.979163 
L 174.747161 293.812329 
L 174.503084 294.650164 
L 174.377232 295.319333 
L 174.625123 295.488 
L 174.995052 295.152499 
L 175.117091 294.816998 
L 175.364982 294.483331 
L 176.970551 294.14783 
L 177.954487 293.645495 
L 179.190127 292.638992 
L 180.917735 291.634323 
L 183.137311 290.796487 
L 185.726817 290.127319 
L 191.89739 287.949313 
L 199.299791 286.273641 
L 203.246975 284.764804 
L 207.564088 283.424633 
L 212.254945 282.25313 
L 217.064026 281.246627 
L 226.441926 279.572789 
L 231.128968 278.566287 
L 241.490803 277.561617 
L 246.921519 277.226116 
L 251.978491 276.723782 
L 256.913424 276.388281 
L 262.096249 276.221447 
L 267.275259 276.221447 
L 272.210193 276.388281 
L 277.145127 276.723782 
L 282.08006 277.226116 
L 287.140846 277.897118 
L 300.832045 280.408792 
L 309.962054 281.079794 
L 314.527058 282.084463 
L 314.527058 282.084463 
" style="fill:none;stroke:#1f77b4;stroke-linecap:square;stroke-width:1.5;"/>
   </g>
   <g id="matplotlib.axis_1">
    <g id="xtick_1">
     <g id="line2d_2">
      <defs>
       <path d="M 0 0 
L 0 3.5 
" id="m420d39f209" style="stroke:#000000;stroke-width:0.8;"/>
      </defs>
      <g>
       <use style="stroke:#000000;stroke-width:0.8;" x="100.471453" xlink:href="#m420d39f209" y="307.584"/>
      </g>
     </g>
     <g id="text_1">
      <!-- −600 -->
      <defs>
       <path d="M 10.59375 35.5 
L 73.1875 35.5 
L 73.1875 27.203125 
L 10.59375 27.203125 
z
" id="DejaVuSans-8722"/>
       <path d="M 33.015625 40.375 
Q 26.375 40.375 22.484375 35.828125 
Q 18.609375 31.296875 18.609375 23.390625 
Q 18.609375 15.53125 22.484375 10.953125 
Q 26.375 6.390625 33.015625 6.390625 
Q 39.65625 6.390625 43.53125 10.953125 
Q 47.40625 15.53125 47.40625 23.390625 
Q 47.40625 31.296875 43.53125 35.828125 
Q 39.65625 40.375 33.015625 40.375 
z
M 52.59375 71.296875 
L 52.59375 62.3125 
Q 48.875 64.0625 45.09375 64.984375 
Q 41.3125 65.921875 37.59375 65.921875 
Q 27.828125 65.921875 22.671875 59.328125 
Q 17.53125 52.734375 16.796875 39.40625 
Q 19.671875 43.65625 24.015625 45.921875 
Q 28.375 48.1875 33.59375 48.1875 
Q 44.578125 48.1875 50.953125 41.515625 
Q 57.328125 34.859375 57.328125 23.390625 
Q 57.328125 12.15625 50.6875 5.359375 
Q 44.046875 -1.421875 33.015625 -1.421875 
Q 20.359375 -1.421875 13.671875 8.265625 
Q 6.984375 17.96875 6.984375 36.375 
Q 6.984375 53.65625 15.1875 63.9375 
Q 23.390625 74.21875 37.203125 74.21875 
Q 40.921875 74.21875 44.703125 73.484375 
Q 48.484375 72.75 52.59375 71.296875 
z
" id="DejaVuSans-54"/>
       <path d="M 31.78125 66.40625 
Q 24.171875 66.40625 20.328125 58.90625 
Q 16.5 51.421875 16.5 36.375 
Q 16.5 21.390625 20.328125 13.890625 
Q 24.171875 6.390625 31.78125 6.390625 
Q 39.453125 6.390625 43.28125 13.890625 
Q 47.125 21.390625 47.125 36.375 
Q 47.125 51.421875 43.28125 58.90625 
Q 39.453125 66.40625 31.78125 66.40625 
z
M 31.78125 74.21875 
Q 44.046875 74.21875 50.515625 64.515625 
Q 56.984375 54.828125 56.984375 36.375 
Q 56.984375 17.96875 50.515625 8.265625 
Q 44.046875 -1.421875 31.78125 -1.421875 
Q 19.53125 -1.421875 13.0625 8.265625 
Q 6.59375 17.96875 6.59375 36.375 
Q 6.59375 54.828125 13.0625 64.515625 
Q 19.53125 74.21875 31.78125 74.21875 
z
" id="DejaVuSans-48"/>
      </defs>
      <g transform="translate(86.737859 322.182437)scale(0.1 -0.1)">
       <use xlink:href="#DejaVuSans-8722"/>
       <use x="83.789062" xlink:href="#DejaVuSans-54"/>
       <use x="147.412109" xlink:href="#DejaVuSans-48"/>
       <use x="211.035156" xlink:href="#DejaVuSans-48"/>
      </g>
     </g>
    </g>
    <g id="xtick_2">
     <g id="line2d_3">
      <g>
       <use style="stroke:#000000;stroke-width:0.8;" x="176.745543" xlink:href="#m420d39f209" y="307.584"/>
      </g>
     </g>
     <g id="text_2">
      <!-- −400 -->
      <defs>
       <path d="M 37.796875 64.3125 
L 12.890625 25.390625 
L 37.796875 25.390625 
z
M 35.203125 72.90625 
L 47.609375 72.90625 
L 47.609375 25.390625 
L 58.015625 25.390625 
L 58.015625 17.1875 
L 47.609375 17.1875 
L 47.609375 0 
L 37.796875 0 
L 37.796875 17.1875 
L 4.890625 17.1875 
L 4.890625 26.703125 
z
" id="DejaVuSans-52"/>
      </defs>
      <g transform="translate(163.011949 322.182437)scale(0.1 -0.1)">
       <use xlink:href="#DejaVuSans-8722"/>
       <use x="83.789062" xlink:href="#DejaVuSans-52"/>
       <use x="147.412109" xlink:href="#DejaVuSans-48"/>
       <use x="211.035156" xlink:href="#DejaVuSans-48"/>
      </g>
     </g>
    </g>
    <g id="xtick_3">
     <g id="line2d_4">
      <g>
       <use style="stroke:#000000;stroke-width:0.8;" x="253.019632" xlink:href="#m420d39f209" y="307.584"/>
      </g>
     </g>
     <g id="text_3">
      <!-- −200 -->
      <defs>
       <path d="M 19.1875 8.296875 
L 53.609375 8.296875 
L 53.609375 0 
L 7.328125 0 
L 7.328125 8.296875 
Q 12.9375 14.109375 22.625 23.890625 
Q 32.328125 33.6875 34.8125 36.53125 
Q 39.546875 41.84375 41.421875 45.53125 
Q 43.3125 49.21875 43.3125 52.78125 
Q 43.3125 58.59375 39.234375 62.25 
Q 35.15625 65.921875 28.609375 65.921875 
Q 23.96875 65.921875 18.8125 64.3125 
Q 13.671875 62.703125 7.8125 59.421875 
L 7.8125 69.390625 
Q 13.765625 71.78125 18.9375 73 
Q 24.125 74.21875 28.421875 74.21875 
Q 39.75 74.21875 46.484375 68.546875 
Q 53.21875 62.890625 53.21875 53.421875 
Q 53.21875 48.921875 51.53125 44.890625 
Q 49.859375 40.875 45.40625 35.40625 
Q 44.1875 33.984375 37.640625 27.21875 
Q 31.109375 20.453125 19.1875 8.296875 
z
" id="DejaVuSans-50"/>
      </defs>
      <g transform="translate(239.286038 322.182437)scale(0.1 -0.1)">
       <use xlink:href="#DejaVuSans-8722"/>
       <use x="83.789062" xlink:href="#DejaVuSans-50"/>
       <use x="147.412109" xlink:href="#DejaVuSans-48"/>
       <use x="211.035156" xlink:href="#DejaVuSans-48"/>
      </g>
     </g>
    </g>
    <g id="xtick_4">
     <g id="line2d_5">
      <g>
       <use style="stroke:#000000;stroke-width:0.8;" x="329.293722" xlink:href="#m420d39f209" y="307.584"/>
      </g>
     </g>
     <g id="text_4">
      <!-- 0 -->
      <g transform="translate(326.112472 322.182437)scale(0.1 -0.1)">
       <use xlink:href="#DejaVuSans-48"/>
      </g>
     </g>
    </g>
    <g id="xtick_5">
     <g id="line2d_6">
      <g>
       <use style="stroke:#000000;stroke-width:0.8;" x="405.567811" xlink:href="#m420d39f209" y="307.584"/>
      </g>
     </g>
     <g id="text_5">
      <!-- 200 -->
      <g transform="translate(396.024061 322.182437)scale(0.1 -0.1)">
       <use xlink:href="#DejaVuSans-50"/>
       <use x="63.623047" xlink:href="#DejaVuSans-48"/>
       <use x="127.246094" xlink:href="#DejaVuSans-48"/>
      </g>
     </g>
    </g>
   </g>
   <g id="matplotlib.axis_2">
    <g id="ytick_1">
     <g id="line2d_7">
      <defs>
       <path d="M 0 0 
L -3.5 0 
" id="ma431cccf4e" style="stroke:#000000;stroke-width:0.8;"/>
      </defs>
      <g>
       <use style="stroke:#000000;stroke-width:0.8;" x="57.6" xlink:href="#ma431cccf4e" y="295.942668"/>
      </g>
     </g>
     <g id="text_6">
      <!-- −400 -->
      <g transform="translate(23.132812 299.741887)scale(0.1 -0.1)">
       <use xlink:href="#DejaVuSans-8722"/>
       <use x="83.789062" xlink:href="#DejaVuSans-52"/>
       <use x="147.412109" xlink:href="#DejaVuSans-48"/>
       <use x="211.035156" xlink:href="#DejaVuSans-48"/>
      </g>
     </g>
    </g>
    <g id="ytick_2">
     <g id="line2d_8">
      <g>
       <use style="stroke:#000000;stroke-width:0.8;" x="57.6" xlink:href="#ma431cccf4e" y="259.2759"/>
      </g>
     </g>
     <g id="text_7">
      <!-- −200 -->
      <g transform="translate(23.132812 263.075119)scale(0.1 -0.1)">
       <use xlink:href="#DejaVuSans-8722"/>
       <use x="83.789062" xlink:href="#DejaVuSans-50"/>
       <use x="147.412109" xlink:href="#DejaVuSans-48"/>
       <use x="211.035156" xlink:href="#DejaVuSans-48"/>
      </g>
     </g>
    </g>
    <g id="ytick_3">
     <g id="line2d_9">
      <g>
       <use style="stroke:#000000;stroke-width:0.8;" x="57.6" xlink:href="#ma431cccf4e" y="222.609132"/>
      </g>
     </g>
     <g id="text_8">
      <!-- 0 -->
      <g transform="translate(44.2375 226.408351)scale(0.1 -0.1)">
       <use xlink:href="#DejaVuSans-48"/>
      </g>
     </g>
    </g>
    <g id="ytick_4">
     <g id="line2d_10">
      <g>
       <use style="stroke:#000000;stroke-width:0.8;" x="57.6" xlink:href="#ma431cccf4e" y="185.942365"/>
      </g>
     </g>
     <g id="text_9">
      <!-- 200 -->
      <g transform="translate(31.5125 189.741584)scale(0.1 -0.1)">
       <use xlink:href="#DejaVuSans-50"/>
       <use x="63.623047" xlink:href="#DejaVuSans-48"/>
       <use x="127.246094" xlink:href="#DejaVuSans-48"/>
      </g>
     </g>
    </g>
    <g id="ytick_5">
     <g id="line2d_11">
      <g>
       <use style="stroke:#000000;stroke-width:0.8;" x="57.6" xlink:href="#ma431cccf4e" y="149.275597"/>
      </g>
     </g>
     <g id="text_10">
      <!-- 400 -->
      <g transform="translate(31.5125 153.074816)scale(0.1 -0.1)">
       <use xlink:href="#DejaVuSans-52"/>
       <use x="63.623047" xlink:href="#DejaVuSans-48"/>
       <use x="127.246094" xlink:href="#DejaVuSans-48"/>
      </g>
     </g>
    </g>
    <g id="ytick_6">
     <g id="line2d_12">
      <g>
       <use style="stroke:#000000;stroke-width:0.8;" x="57.6" xlink:href="#ma431cccf4e" y="112.608829"/>
      </g>
     </g>
     <g id="text_11">
      <!-- 600 -->
      <g transform="translate(31.5125 116.408048)scale(0.1 -0.1)">
       <use xlink:href="#DejaVuSans-54"/>
       <use x="63.623047" xlink:href="#DejaVuSans-48"/>
       <use x="127.246094" xlink:href="#DejaVuSans-48"/>
      </g>
     </g>
    </g>
    <g id="ytick_7">
     <g id="line2d_13">
      <g>
       <use style="stroke:#000000;stroke-width:0.8;" x="57.6" xlink:href="#ma431cccf4e" y="75.942062"/>
      </g>
     </g>
     <g id="text_12">
      <!-- 800 -->
      <defs>
       <path d="M 31.78125 34.625 
Q 24.75 34.625 20.71875 30.859375 
Q 16.703125 27.09375 16.703125 20.515625 
Q 16.703125 13.921875 20.71875 10.15625 
Q 24.75 6.390625 31.78125 6.390625 
Q 38.8125 6.390625 42.859375 10.171875 
Q 46.921875 13.96875 46.921875 20.515625 
Q 46.921875 27.09375 42.890625 30.859375 
Q 38.875 34.625 31.78125 34.625 
z
M 21.921875 38.8125 
Q 15.578125 40.375 12.03125 44.71875 
Q 8.5 49.078125 8.5 55.328125 
Q 8.5 64.0625 14.71875 69.140625 
Q 20.953125 74.21875 31.78125 74.21875 
Q 42.671875 74.21875 48.875 69.140625 
Q 55.078125 64.0625 55.078125 55.328125 
Q 55.078125 49.078125 51.53125 44.71875 
Q 48 40.375 41.703125 38.8125 
Q 48.828125 37.15625 52.796875 32.3125 
Q 56.78125 27.484375 56.78125 20.515625 
Q 56.78125 9.90625 50.3125 4.234375 
Q 43.84375 -1.421875 31.78125 -1.421875 
Q 19.734375 -1.421875 13.25 4.234375 
Q 6.78125 9.90625 6.78125 20.515625 
Q 6.78125 27.484375 10.78125 32.3125 
Q 14.796875 37.15625 21.921875 38.8125 
z
M 18.3125 54.390625 
Q 18.3125 48.734375 21.84375 45.5625 
Q 25.390625 42.390625 31.78125 42.390625 
Q 38.140625 42.390625 41.71875 45.5625 
Q 45.3125 48.734375 45.3125 54.390625 
Q 45.3125 60.0625 41.71875 63.234375 
Q 38.140625 66.40625 31.78125 66.40625 
Q 25.390625 66.40625 21.84375 63.234375 
Q 18.3125 60.0625 18.3125 54.390625 
z
" id="DejaVuSans-56"/>
      </defs>
      <g transform="translate(31.5125 79.74128)scale(0.1 -0.1)">
       <use xlink:href="#DejaVuSans-56"/>
       <use x="63.623047" xlink:href="#DejaVuSans-48"/>
       <use x="127.246094" xlink:href="#DejaVuSans-48"/>
      </g>
     </g>
    </g>
   </g>
   <g id="line2d_14">
    <path clip-path="url(#pbb2e4c6ab1)" d="M 78.310016 61.346041 
L 312.738196 176.328028 
L 397.173007 252.400151 
L 394.037822 267.788662 
L 255.35578 230.377364 
L 267.120764 116.914493 
L 171.847647 259.197694 
L 177.597734 287.944355 
" style="fill:none;stroke:#ff0000;stroke-linecap:square;stroke-width:0.5;"/>
   </g>
   <g id="patch_3">
    <path d="M 57.6 307.584 
L 57.6 41.472 
" style="fill:none;stroke:#000000;stroke-linecap:square;stroke-linejoin:miter;stroke-width:0.8;"/>
   </g>
   <g id="patch_4">
    <path d="M 414.72 307.584 
L 414.72 41.472 
" style="fill:none;stroke:#000000;stroke-linecap:square;stroke-linejoin:miter;stroke-width:0.8;"/>
   </g>
   <g id="patch_5">
    <path d="M 57.6 307.584 
L 414.72 307.584 
" style="fill:none;stroke:#000000;stroke-linecap:square;stroke-linejoin:miter;stroke-width:0.8;"/>
   </g>
   <g id="patch_6">
    <path d="M 57.6 41.472 
L 414.72 41.472 
" style="fill:none;stroke:#000000;stroke-linecap:square;stroke-linejoin:miter;stroke-width:0.8;"/>
   </g>
   <g id="PathCollection_1">
    <defs>
     <path d="M 0 2.738613 
C 0.726289 2.738613 1.422928 2.450055 1.936492 1.936492 
C 2.450055 1.422928 2.738613 0.726289 2.738613 0 
C 2.738613 -0.726289 2.450055 -1.422928 1.936492 -1.936492 
C 1.422928 -2.450055 0.726289 -2.738613 0 -2.738613 
C -0.726289 -2.738613 -1.422928 -2.450055 -1.936492 -1.936492 
C -2.450055 -1.422928 -2.738613 -0.726289 -2.738613 0 
C -2.738613 0.726289 -2.450055 1.422928 -1.936492 1.936492 
C -1.422928 2.450055 -0.726289 2.738613 0 2.738613 
z
" id="me0f809a9fc" style="stroke:#ff0000;"/>
    </defs>
    <g clip-path="url(#pbb2e4c6ab1)">
     <use style="fill:#ff0000;stroke:#ff0000;" x="78.310016" xlink:href="#me0f809a9fc" y="61.346041"/>
     <use style="fill:#ff0000;stroke:#ff0000;" x="312.738196" xlink:href="#me0f809a9fc" y="176.328028"/>
     <use style="fill:#ff0000;stroke:#ff0000;" x="397.173007" xlink:href="#me0f809a9fc" y="252.400151"/>
     <use style="fill:#ff0000;stroke:#ff0000;" x="394.037822" xlink:href="#me0f809a9fc" y="267.788662"/>
     <use style="fill:#ff0000;stroke:#ff0000;" x="255.35578" xlink:href="#me0f809a9fc" y="230.377364"/>
     <use style="fill:#ff0000;stroke:#ff0000;" x="267.120764" xlink:href="#me0f809a9fc" y="116.914493"/>
     <use style="fill:#ff0000;stroke:#ff0000;" x="171.847647" xlink:href="#me0f809a9fc" y="259.197694"/>
     <use style="fill:#ff0000;stroke:#ff0000;" x="177.597734" xlink:href="#me0f809a9fc" y="287.944355"/>
    </g>
   </g>
   <g id="text_13">
    <!-- (59) Subject: s27, Known = False, Degree = 2, Duration = 0.1 -->
    <defs>
     <path d="M 31 75.875 
Q 24.46875 64.65625 21.28125 53.65625 
Q 18.109375 42.671875 18.109375 31.390625 
Q 18.109375 20.125 21.3125 9.0625 
Q 24.515625 -2 31 -13.1875 
L 23.1875 -13.1875 
Q 15.875 -1.703125 12.234375 9.375 
Q 8.59375 20.453125 8.59375 31.390625 
Q 8.59375 42.28125 12.203125 53.3125 
Q 15.828125 64.359375 23.1875 75.875 
z
" id="DejaVuSans-40"/>
     <path d="M 10.796875 72.90625 
L 49.515625 72.90625 
L 49.515625 64.59375 
L 19.828125 64.59375 
L 19.828125 46.734375 
Q 21.96875 47.46875 24.109375 47.828125 
Q 26.265625 48.1875 28.421875 48.1875 
Q 40.625 48.1875 47.75 41.5 
Q 54.890625 34.8125 54.890625 23.390625 
Q 54.890625 11.625 47.5625 5.09375 
Q 40.234375 -1.421875 26.90625 -1.421875 
Q 22.3125 -1.421875 17.546875 -0.640625 
Q 12.796875 0.140625 7.71875 1.703125 
L 7.71875 11.625 
Q 12.109375 9.234375 16.796875 8.0625 
Q 21.484375 6.890625 26.703125 6.890625 
Q 35.15625 6.890625 40.078125 11.328125 
Q 45.015625 15.765625 45.015625 23.390625 
Q 45.015625 31 40.078125 35.4375 
Q 35.15625 39.890625 26.703125 39.890625 
Q 22.75 39.890625 18.8125 39.015625 
Q 14.890625 38.140625 10.796875 36.28125 
z
" id="DejaVuSans-53"/>
     <path d="M 10.984375 1.515625 
L 10.984375 10.5 
Q 14.703125 8.734375 18.5 7.8125 
Q 22.3125 6.890625 25.984375 6.890625 
Q 35.75 6.890625 40.890625 13.453125 
Q 46.046875 20.015625 46.78125 33.40625 
Q 43.953125 29.203125 39.59375 26.953125 
Q 35.25 24.703125 29.984375 24.703125 
Q 19.046875 24.703125 12.671875 31.3125 
Q 6.296875 37.9375 6.296875 49.421875 
Q 6.296875 60.640625 12.9375 67.421875 
Q 19.578125 74.21875 30.609375 74.21875 
Q 43.265625 74.21875 49.921875 64.515625 
Q 56.59375 54.828125 56.59375 36.375 
Q 56.59375 19.140625 48.40625 8.859375 
Q 40.234375 -1.421875 26.421875 -1.421875 
Q 22.703125 -1.421875 18.890625 -0.6875 
Q 15.09375 0.046875 10.984375 1.515625 
z
M 30.609375 32.421875 
Q 37.25 32.421875 41.125 36.953125 
Q 45.015625 41.5 45.015625 49.421875 
Q 45.015625 57.28125 41.125 61.84375 
Q 37.25 66.40625 30.609375 66.40625 
Q 23.96875 66.40625 20.09375 61.84375 
Q 16.21875 57.28125 16.21875 49.421875 
Q 16.21875 41.5 20.09375 36.953125 
Q 23.96875 32.421875 30.609375 32.421875 
z
" id="DejaVuSans-57"/>
     <path d="M 8.015625 75.875 
L 15.828125 75.875 
Q 23.140625 64.359375 26.78125 53.3125 
Q 30.421875 42.28125 30.421875 31.390625 
Q 30.421875 20.453125 26.78125 9.375 
Q 23.140625 -1.703125 15.828125 -13.1875 
L 8.015625 -13.1875 
Q 14.5 -2 17.703125 9.0625 
Q 20.90625 20.125 20.90625 31.390625 
Q 20.90625 42.671875 17.703125 53.65625 
Q 14.5 64.65625 8.015625 75.875 
z
" id="DejaVuSans-41"/>
     <path id="DejaVuSans-32"/>
     <path d="M 53.515625 70.515625 
L 53.515625 60.890625 
Q 47.90625 63.578125 42.921875 64.890625 
Q 37.9375 66.21875 33.296875 66.21875 
Q 25.25 66.21875 20.875 63.09375 
Q 16.5 59.96875 16.5 54.203125 
Q 16.5 49.359375 19.40625 46.890625 
Q 22.3125 44.4375 30.421875 42.921875 
L 36.375 41.703125 
Q 47.40625 39.59375 52.65625 34.296875 
Q 57.90625 29 57.90625 20.125 
Q 57.90625 9.515625 50.796875 4.046875 
Q 43.703125 -1.421875 29.984375 -1.421875 
Q 24.8125 -1.421875 18.96875 -0.25 
Q 13.140625 0.921875 6.890625 3.21875 
L 6.890625 13.375 
Q 12.890625 10.015625 18.65625 8.296875 
Q 24.421875 6.59375 29.984375 6.59375 
Q 38.421875 6.59375 43.015625 9.90625 
Q 47.609375 13.234375 47.609375 19.390625 
Q 47.609375 24.75 44.3125 27.78125 
Q 41.015625 30.8125 33.5 32.328125 
L 27.484375 33.5 
Q 16.453125 35.6875 11.515625 40.375 
Q 6.59375 45.0625 6.59375 53.421875 
Q 6.59375 63.09375 13.40625 68.65625 
Q 20.21875 74.21875 32.171875 74.21875 
Q 37.3125 74.21875 42.625 73.28125 
Q 47.953125 72.359375 53.515625 70.515625 
z
" id="DejaVuSans-83"/>
     <path d="M 8.5 21.578125 
L 8.5 54.6875 
L 17.484375 54.6875 
L 17.484375 21.921875 
Q 17.484375 14.15625 20.5 10.265625 
Q 23.53125 6.390625 29.59375 6.390625 
Q 36.859375 6.390625 41.078125 11.03125 
Q 45.3125 15.671875 45.3125 23.6875 
L 45.3125 54.6875 
L 54.296875 54.6875 
L 54.296875 0 
L 45.3125 0 
L 45.3125 8.40625 
Q 42.046875 3.421875 37.71875 1 
Q 33.40625 -1.421875 27.6875 -1.421875 
Q 18.265625 -1.421875 13.375 4.4375 
Q 8.5 10.296875 8.5 21.578125 
z
M 31.109375 56 
z
" id="DejaVuSans-117"/>
     <path d="M 48.6875 27.296875 
Q 48.6875 37.203125 44.609375 42.84375 
Q 40.53125 48.484375 33.40625 48.484375 
Q 26.265625 48.484375 22.1875 42.84375 
Q 18.109375 37.203125 18.109375 27.296875 
Q 18.109375 17.390625 22.1875 11.75 
Q 26.265625 6.109375 33.40625 6.109375 
Q 40.53125 6.109375 44.609375 11.75 
Q 48.6875 17.390625 48.6875 27.296875 
z
M 18.109375 46.390625 
Q 20.953125 51.265625 25.265625 53.625 
Q 29.59375 56 35.59375 56 
Q 45.5625 56 51.78125 48.09375 
Q 58.015625 40.1875 58.015625 27.296875 
Q 58.015625 14.40625 51.78125 6.484375 
Q 45.5625 -1.421875 35.59375 -1.421875 
Q 29.59375 -1.421875 25.265625 0.953125 
Q 20.953125 3.328125 18.109375 8.203125 
L 18.109375 0 
L 9.078125 0 
L 9.078125 75.984375 
L 18.109375 75.984375 
z
" id="DejaVuSans-98"/>
     <path d="M 9.421875 54.6875 
L 18.40625 54.6875 
L 18.40625 -0.984375 
Q 18.40625 -11.421875 14.421875 -16.109375 
Q 10.453125 -20.796875 1.609375 -20.796875 
L -1.8125 -20.796875 
L -1.8125 -13.1875 
L 0.59375 -13.1875 
Q 5.71875 -13.1875 7.5625 -10.8125 
Q 9.421875 -8.453125 9.421875 -0.984375 
z
M 9.421875 75.984375 
L 18.40625 75.984375 
L 18.40625 64.59375 
L 9.421875 64.59375 
z
" id="DejaVuSans-106"/>
     <path d="M 56.203125 29.59375 
L 56.203125 25.203125 
L 14.890625 25.203125 
Q 15.484375 15.921875 20.484375 11.0625 
Q 25.484375 6.203125 34.421875 6.203125 
Q 39.59375 6.203125 44.453125 7.46875 
Q 49.3125 8.734375 54.109375 11.28125 
L 54.109375 2.78125 
Q 49.265625 0.734375 44.1875 -0.34375 
Q 39.109375 -1.421875 33.890625 -1.421875 
Q 20.796875 -1.421875 13.15625 6.1875 
Q 5.515625 13.8125 5.515625 26.8125 
Q 5.515625 40.234375 12.765625 48.109375 
Q 20.015625 56 32.328125 56 
Q 43.359375 56 49.78125 48.890625 
Q 56.203125 41.796875 56.203125 29.59375 
z
M 47.21875 32.234375 
Q 47.125 39.59375 43.09375 43.984375 
Q 39.0625 48.390625 32.421875 48.390625 
Q 24.90625 48.390625 20.390625 44.140625 
Q 15.875 39.890625 15.1875 32.171875 
z
" id="DejaVuSans-101"/>
     <path d="M 48.78125 52.59375 
L 48.78125 44.1875 
Q 44.96875 46.296875 41.140625 47.34375 
Q 37.3125 48.390625 33.40625 48.390625 
Q 24.65625 48.390625 19.8125 42.84375 
Q 14.984375 37.3125 14.984375 27.296875 
Q 14.984375 17.28125 19.8125 11.734375 
Q 24.65625 6.203125 33.40625 6.203125 
Q 37.3125 6.203125 41.140625 7.25 
Q 44.96875 8.296875 48.78125 10.40625 
L 48.78125 2.09375 
Q 45.015625 0.34375 40.984375 -0.53125 
Q 36.96875 -1.421875 32.421875 -1.421875 
Q 20.0625 -1.421875 12.78125 6.34375 
Q 5.515625 14.109375 5.515625 27.296875 
Q 5.515625 40.671875 12.859375 48.328125 
Q 20.21875 56 33.015625 56 
Q 37.15625 56 41.109375 55.140625 
Q 45.0625 54.296875 48.78125 52.59375 
z
" id="DejaVuSans-99"/>
     <path d="M 18.3125 70.21875 
L 18.3125 54.6875 
L 36.8125 54.6875 
L 36.8125 47.703125 
L 18.3125 47.703125 
L 18.3125 18.015625 
Q 18.3125 11.328125 20.140625 9.421875 
Q 21.96875 7.515625 27.59375 7.515625 
L 36.8125 7.515625 
L 36.8125 0 
L 27.59375 0 
Q 17.1875 0 13.234375 3.875 
Q 9.28125 7.765625 9.28125 18.015625 
L 9.28125 47.703125 
L 2.6875 47.703125 
L 2.6875 54.6875 
L 9.28125 54.6875 
L 9.28125 70.21875 
z
" id="DejaVuSans-116"/>
     <path d="M 11.71875 12.40625 
L 22.015625 12.40625 
L 22.015625 0 
L 11.71875 0 
z
M 11.71875 51.703125 
L 22.015625 51.703125 
L 22.015625 39.3125 
L 11.71875 39.3125 
z
" id="DejaVuSans-58"/>
     <path d="M 44.28125 53.078125 
L 44.28125 44.578125 
Q 40.484375 46.53125 36.375 47.5 
Q 32.28125 48.484375 27.875 48.484375 
Q 21.1875 48.484375 17.84375 46.4375 
Q 14.5 44.390625 14.5 40.28125 
Q 14.5 37.15625 16.890625 35.375 
Q 19.28125 33.59375 26.515625 31.984375 
L 29.59375 31.296875 
Q 39.15625 29.25 43.1875 25.515625 
Q 47.21875 21.78125 47.21875 15.09375 
Q 47.21875 7.46875 41.1875 3.015625 
Q 35.15625 -1.421875 24.609375 -1.421875 
Q 20.21875 -1.421875 15.453125 -0.5625 
Q 10.6875 0.296875 5.421875 2 
L 5.421875 11.28125 
Q 10.40625 8.6875 15.234375 7.390625 
Q 20.0625 6.109375 24.8125 6.109375 
Q 31.15625 6.109375 34.5625 8.28125 
Q 37.984375 10.453125 37.984375 14.40625 
Q 37.984375 18.0625 35.515625 20.015625 
Q 33.0625 21.96875 24.703125 23.78125 
L 21.578125 24.515625 
Q 13.234375 26.265625 9.515625 29.90625 
Q 5.8125 33.546875 5.8125 39.890625 
Q 5.8125 47.609375 11.28125 51.796875 
Q 16.75 56 26.8125 56 
Q 31.78125 56 36.171875 55.265625 
Q 40.578125 54.546875 44.28125 53.078125 
z
" id="DejaVuSans-115"/>
     <path d="M 8.203125 72.90625 
L 55.078125 72.90625 
L 55.078125 68.703125 
L 28.609375 0 
L 18.3125 0 
L 43.21875 64.59375 
L 8.203125 64.59375 
z
" id="DejaVuSans-55"/>
     <path d="M 11.71875 12.40625 
L 22.015625 12.40625 
L 22.015625 4 
L 14.015625 -11.625 
L 7.71875 -11.625 
L 11.71875 4 
z
" id="DejaVuSans-44"/>
     <path d="M 9.8125 72.90625 
L 19.671875 72.90625 
L 19.671875 42.09375 
L 52.390625 72.90625 
L 65.09375 72.90625 
L 28.90625 38.921875 
L 67.671875 0 
L 54.6875 0 
L 19.671875 35.109375 
L 19.671875 0 
L 9.8125 0 
z
" id="DejaVuSans-75"/>
     <path d="M 54.890625 33.015625 
L 54.890625 0 
L 45.90625 0 
L 45.90625 32.71875 
Q 45.90625 40.484375 42.875 44.328125 
Q 39.84375 48.1875 33.796875 48.1875 
Q 26.515625 48.1875 22.3125 43.546875 
Q 18.109375 38.921875 18.109375 30.90625 
L 18.109375 0 
L 9.078125 0 
L 9.078125 54.6875 
L 18.109375 54.6875 
L 18.109375 46.1875 
Q 21.34375 51.125 25.703125 53.5625 
Q 30.078125 56 35.796875 56 
Q 45.21875 56 50.046875 50.171875 
Q 54.890625 44.34375 54.890625 33.015625 
z
" id="DejaVuSans-110"/>
     <path d="M 30.609375 48.390625 
Q 23.390625 48.390625 19.1875 42.75 
Q 14.984375 37.109375 14.984375 27.296875 
Q 14.984375 17.484375 19.15625 11.84375 
Q 23.34375 6.203125 30.609375 6.203125 
Q 37.796875 6.203125 41.984375 11.859375 
Q 46.1875 17.53125 46.1875 27.296875 
Q 46.1875 37.015625 41.984375 42.703125 
Q 37.796875 48.390625 30.609375 48.390625 
z
M 30.609375 56 
Q 42.328125 56 49.015625 48.375 
Q 55.71875 40.765625 55.71875 27.296875 
Q 55.71875 13.875 49.015625 6.21875 
Q 42.328125 -1.421875 30.609375 -1.421875 
Q 18.84375 -1.421875 12.171875 6.21875 
Q 5.515625 13.875 5.515625 27.296875 
Q 5.515625 40.765625 12.171875 48.375 
Q 18.84375 56 30.609375 56 
z
" id="DejaVuSans-111"/>
     <path d="M 4.203125 54.6875 
L 13.1875 54.6875 
L 24.421875 12.015625 
L 35.59375 54.6875 
L 46.1875 54.6875 
L 57.421875 12.015625 
L 68.609375 54.6875 
L 77.59375 54.6875 
L 63.28125 0 
L 52.6875 0 
L 40.921875 44.828125 
L 29.109375 0 
L 18.5 0 
z
" id="DejaVuSans-119"/>
     <path d="M 10.59375 45.40625 
L 73.1875 45.40625 
L 73.1875 37.203125 
L 10.59375 37.203125 
z
M 10.59375 25.484375 
L 73.1875 25.484375 
L 73.1875 17.1875 
L 10.59375 17.1875 
z
" id="DejaVuSans-61"/>
     <path d="M 9.8125 72.90625 
L 51.703125 72.90625 
L 51.703125 64.59375 
L 19.671875 64.59375 
L 19.671875 43.109375 
L 48.578125 43.109375 
L 48.578125 34.8125 
L 19.671875 34.8125 
L 19.671875 0 
L 9.8125 0 
z
" id="DejaVuSans-70"/>
     <path d="M 34.28125 27.484375 
Q 23.390625 27.484375 19.1875 25 
Q 14.984375 22.515625 14.984375 16.5 
Q 14.984375 11.71875 18.140625 8.90625 
Q 21.296875 6.109375 26.703125 6.109375 
Q 34.1875 6.109375 38.703125 11.40625 
Q 43.21875 16.703125 43.21875 25.484375 
L 43.21875 27.484375 
z
M 52.203125 31.203125 
L 52.203125 0 
L 43.21875 0 
L 43.21875 8.296875 
Q 40.140625 3.328125 35.546875 0.953125 
Q 30.953125 -1.421875 24.3125 -1.421875 
Q 15.921875 -1.421875 10.953125 3.296875 
Q 6 8.015625 6 15.921875 
Q 6 25.140625 12.171875 29.828125 
Q 18.359375 34.515625 30.609375 34.515625 
L 43.21875 34.515625 
L 43.21875 35.40625 
Q 43.21875 41.609375 39.140625 45 
Q 35.0625 48.390625 27.6875 48.390625 
Q 23 48.390625 18.546875 47.265625 
Q 14.109375 46.140625 10.015625 43.890625 
L 10.015625 52.203125 
Q 14.9375 54.109375 19.578125 55.046875 
Q 24.21875 56 28.609375 56 
Q 40.484375 56 46.34375 49.84375 
Q 52.203125 43.703125 52.203125 31.203125 
z
" id="DejaVuSans-97"/>
     <path d="M 9.421875 75.984375 
L 18.40625 75.984375 
L 18.40625 0 
L 9.421875 0 
z
" id="DejaVuSans-108"/>
     <path d="M 19.671875 64.796875 
L 19.671875 8.109375 
L 31.59375 8.109375 
Q 46.6875 8.109375 53.6875 14.9375 
Q 60.6875 21.78125 60.6875 36.53125 
Q 60.6875 51.171875 53.6875 57.984375 
Q 46.6875 64.796875 31.59375 64.796875 
z
M 9.8125 72.90625 
L 30.078125 72.90625 
Q 51.265625 72.90625 61.171875 64.09375 
Q 71.09375 55.28125 71.09375 36.53125 
Q 71.09375 17.671875 61.125 8.828125 
Q 51.171875 0 30.078125 0 
L 9.8125 0 
z
" id="DejaVuSans-68"/>
     <path d="M 45.40625 27.984375 
Q 45.40625 37.75 41.375 43.109375 
Q 37.359375 48.484375 30.078125 48.484375 
Q 22.859375 48.484375 18.828125 43.109375 
Q 14.796875 37.75 14.796875 27.984375 
Q 14.796875 18.265625 18.828125 12.890625 
Q 22.859375 7.515625 30.078125 7.515625 
Q 37.359375 7.515625 41.375 12.890625 
Q 45.40625 18.265625 45.40625 27.984375 
z
M 54.390625 6.78125 
Q 54.390625 -7.171875 48.1875 -13.984375 
Q 42 -20.796875 29.203125 -20.796875 
Q 24.46875 -20.796875 20.265625 -20.09375 
Q 16.0625 -19.390625 12.109375 -17.921875 
L 12.109375 -9.1875 
Q 16.0625 -11.328125 19.921875 -12.34375 
Q 23.78125 -13.375 27.78125 -13.375 
Q 36.625 -13.375 41.015625 -8.765625 
Q 45.40625 -4.15625 45.40625 5.171875 
L 45.40625 9.625 
Q 42.625 4.78125 38.28125 2.390625 
Q 33.9375 0 27.875 0 
Q 17.828125 0 11.671875 7.65625 
Q 5.515625 15.328125 5.515625 27.984375 
Q 5.515625 40.671875 11.671875 48.328125 
Q 17.828125 56 27.875 56 
Q 33.9375 56 38.28125 53.609375 
Q 42.625 51.21875 45.40625 46.390625 
L 45.40625 54.6875 
L 54.390625 54.6875 
z
" id="DejaVuSans-103"/>
     <path d="M 41.109375 46.296875 
Q 39.59375 47.171875 37.8125 47.578125 
Q 36.03125 48 33.890625 48 
Q 26.265625 48 22.1875 43.046875 
Q 18.109375 38.09375 18.109375 28.8125 
L 18.109375 0 
L 9.078125 0 
L 9.078125 54.6875 
L 18.109375 54.6875 
L 18.109375 46.1875 
Q 20.953125 51.171875 25.484375 53.578125 
Q 30.03125 56 36.53125 56 
Q 37.453125 56 38.578125 55.875 
Q 39.703125 55.765625 41.0625 55.515625 
z
" id="DejaVuSans-114"/>
     <path d="M 9.421875 54.6875 
L 18.40625 54.6875 
L 18.40625 0 
L 9.421875 0 
z
M 9.421875 75.984375 
L 18.40625 75.984375 
L 18.40625 64.59375 
L 9.421875 64.59375 
z
" id="DejaVuSans-105"/>
     <path d="M 10.6875 12.40625 
L 21 12.40625 
L 21 0 
L 10.6875 0 
z
" id="DejaVuSans-46"/>
     <path d="M 12.40625 8.296875 
L 28.515625 8.296875 
L 28.515625 63.921875 
L 10.984375 60.40625 
L 10.984375 69.390625 
L 28.421875 72.90625 
L 38.28125 72.90625 
L 38.28125 8.296875 
L 54.390625 8.296875 
L 54.390625 0 
L 12.40625 0 
z
" id="DejaVuSans-49"/>
    </defs>
    <g transform="translate(49.741875 35.472)scale(0.12 -0.12)">
     <use xlink:href="#DejaVuSans-40"/>
     <use x="39.013672" xlink:href="#DejaVuSans-53"/>
     <use x="102.636719" xlink:href="#DejaVuSans-57"/>
     <use x="166.259766" xlink:href="#DejaVuSans-41"/>
     <use x="205.273438" xlink:href="#DejaVuSans-32"/>
     <use x="237.060547" xlink:href="#DejaVuSans-83"/>
     <use x="300.537109" xlink:href="#DejaVuSans-117"/>
     <use x="363.916016" xlink:href="#DejaVuSans-98"/>
     <use x="427.392578" xlink:href="#DejaVuSans-106"/>
     <use x="455.175781" xlink:href="#DejaVuSans-101"/>
     <use x="516.699219" xlink:href="#DejaVuSans-99"/>
     <use x="571.679688" xlink:href="#DejaVuSans-116"/>
     <use x="610.888672" xlink:href="#DejaVuSans-58"/>
     <use x="644.580078" xlink:href="#DejaVuSans-32"/>
     <use x="676.367188" xlink:href="#DejaVuSans-115"/>
     <use x="728.466797" xlink:href="#DejaVuSans-50"/>
     <use x="792.089844" xlink:href="#DejaVuSans-55"/>
     <use x="855.712891" xlink:href="#DejaVuSans-44"/>
     <use x="887.5" xlink:href="#DejaVuSans-32"/>
     <use x="919.287109" xlink:href="#DejaVuSans-75"/>
     <use x="984.863281" xlink:href="#DejaVuSans-110"/>
     <use x="1048.242188" xlink:href="#DejaVuSans-111"/>
     <use x="1109.423828" xlink:href="#DejaVuSans-119"/>
     <use x="1191.210938" xlink:href="#DejaVuSans-110"/>
     <use x="1254.589844" xlink:href="#DejaVuSans-32"/>
     <use x="1286.376953" xlink:href="#DejaVuSans-61"/>
     <use x="1370.166016" xlink:href="#DejaVuSans-32"/>
     <use x="1401.953125" xlink:href="#DejaVuSans-70"/>
     <use x="1459.332031" xlink:href="#DejaVuSans-97"/>
     <use x="1520.611328" xlink:href="#DejaVuSans-108"/>
     <use x="1548.394531" xlink:href="#DejaVuSans-115"/>
     <use x="1600.494141" xlink:href="#DejaVuSans-101"/>
     <use x="1662.017578" xlink:href="#DejaVuSans-44"/>
     <use x="1693.804688" xlink:href="#DejaVuSans-32"/>
     <use x="1725.591797" xlink:href="#DejaVuSans-68"/>
     <use x="1802.59375" xlink:href="#DejaVuSans-101"/>
     <use x="1864.117188" xlink:href="#DejaVuSans-103"/>
     <use x="1927.59375" xlink:href="#DejaVuSans-114"/>
     <use x="1968.675781" xlink:href="#DejaVuSans-101"/>
     <use x="2030.199219" xlink:href="#DejaVuSans-101"/>
     <use x="2091.722656" xlink:href="#DejaVuSans-32"/>
     <use x="2123.509766" xlink:href="#DejaVuSans-61"/>
     <use x="2207.298828" xlink:href="#DejaVuSans-32"/>
     <use x="2239.085938" xlink:href="#DejaVuSans-50"/>
     <use x="2302.708984" xlink:href="#DejaVuSans-44"/>
     <use x="2334.496094" xlink:href="#DejaVuSans-32"/>
     <use x="2366.283203" xlink:href="#DejaVuSans-68"/>
     <use x="2443.285156" xlink:href="#DejaVuSans-117"/>
     <use x="2506.664062" xlink:href="#DejaVuSans-114"/>
     <use x="2547.777344" xlink:href="#DejaVuSans-97"/>
     <use x="2609.056641" xlink:href="#DejaVuSans-116"/>
     <use x="2648.265625" xlink:href="#DejaVuSans-105"/>
     <use x="2676.048828" xlink:href="#DejaVuSans-111"/>
     <use x="2737.230469" xlink:href="#DejaVuSans-110"/>
     <use x="2800.609375" xlink:href="#DejaVuSans-32"/>
     <use x="2832.396484" xlink:href="#DejaVuSans-61"/>
     <use x="2916.185547" xlink:href="#DejaVuSans-32"/>
     <use x="2947.972656" xlink:href="#DejaVuSans-48"/>
     <use x="3011.595703" xlink:href="#DejaVuSans-46"/>
     <use x="3043.382812" xlink:href="#DejaVuSans-49"/>
    </g>
   </g>
  </g>
 </g>
 <defs>
  <clipPath id="pbb2e4c6ab1">
   <rect height="266.112" width="357.12" x="57.6" y="41.472"/>
  </clipPath>
 </defs>
</svg>
