<?xml version="1.0" encoding="utf-8" standalone="no"?>
<!DOCTYPE svg PUBLIC "-//W3C//DTD SVG 1.1//EN"
  "http://www.w3.org/Graphics/SVG/1.1/DTD/svg11.dtd">
<!-- Created with matplotlib (https://matplotlib.org/) -->
<svg height="345.6pt" version="1.1" viewBox="0 0 460.8 345.6" width="460.8pt" xmlns="http://www.w3.org/2000/svg" xmlns:xlink="http://www.w3.org/1999/xlink">
 <defs>
  <style type="text/css">
*{stroke-linecap:butt;stroke-linejoin:round;}
  </style>
 </defs>
 <g id="figure_1">
  <g id="patch_1">
   <path d="M 0 345.6 
L 460.8 345.6 
L 460.8 0 
L 0 0 
z
" style="fill:#ffffff;"/>
  </g>
  <g id="axes_1">
   <g id="patch_2">
    <path d="M 57.6 307.584 
L 414.72 307.584 
L 414.72 41.472 
L 57.6 41.472 
z
" style="fill:#ffffff;"/>
   </g>
   <g id="line2d_1">
    <path clip-path="url(#p6694a55334)" d="M 264.306735 92.064147 
L 264.45895 91.766409 
L 264.763381 91.46867 
L 265.062563 91.766409 
L 265.062563 91.766409 
L 274.573404 88.510807 
L 274.72562 88.803665 
L 274.573404 88.803665 
L 274.573404 88.510807 
L 274.72562 88.803665 
L 274.872586 89.399142 
L 274.72562 89.692 
L 274.872586 89.399142 
L 275.024802 89.399142 
L 274.268973 89.989738 
L 273.66536 89.989738 
L 273.66536 89.692 
L 273.817576 89.399142 
L 274.122007 89.399142 
L 274.268973 88.803665 
L 274.573404 88.213068 
L 274.573404 88.803665 
L 274.268973 89.989738 
L 274.268973 90.580335 
L 274.268973 90.580335 
L 273.817576 89.692 
L 273.817576 90.580335 
L 273.969791 90.878073 
L 273.969791 91.175812 
L 273.66536 91.766409 
L 273.366178 91.175812 
L 273.366178 91.175812 
L 273.66536 91.46867 
L 274.122007 91.175812 
L 274.421189 90.580335 
L 274.268973 90.287477 
L 273.518394 89.399142 
L 273.366178 89.692 
L 273.366178 90.287477 
L 273.518394 90.287477 
L 273.518394 89.989738 
L 273.66536 89.989738 
L 273.817576 90.878073 
L 274.122007 91.175812 
L 274.122007 90.580335 
L 273.969791 89.692 
L 273.66536 89.692 
L 273.366178 89.101403 
L 273.213963 87.622472 
L 272.914781 86.734137 
L 271.854521 85.548063 
L 271.702306 84.957467 
L 271.702306 84.361989 
L 271.403124 81.994723 
L 271.555339 81.696984 
L 271.854521 80.808649 
L 272.006737 79.920314 
L 271.555339 79.627456 
L 271.702306 79.329717 
L 271.555339 79.031979 
L 271.555339 78.739121 
L 273.061747 77.255309 
L 272.914781 78.143644 
L 272.61035 78.739121 
L 272.762565 79.031979 
L 272.914781 79.031979 
L 273.213963 79.627456 
L 273.213963 79.627456 
L 273.061747 79.920314 
L 272.458134 80.515791 
L 272.458134 81.106388 
L 272.61035 80.515791 
L 272.61035 79.329717 
L 272.458134 79.031979 
L 272.61035 79.627456 
L 272.914781 79.627456 
L 273.213963 79.031979 
L 273.061747 79.329717 
L 272.458134 80.218052 
L 272.61035 79.920314 
L 272.61035 79.329717 
L 272.61035 79.329717 
L 272.158952 79.627456 
L 272.458134 79.627456 
L 272.914781 79.627456 
L 273.366178 79.329717 
L 273.518394 79.920314 
L 273.366178 80.515791 
L 272.458134 79.329717 
L 272.458134 80.515791 
L 272.762565 79.920314 
L 272.158952 81.106388 
L 272.006737 80.808649 
L 272.158952 79.920314 
L 272.458134 79.920314 
L 272.61035 80.515791 
L 272.762565 80.515791 
L 272.914781 79.920314 
L 272.914781 79.920314 
L 272.006737 79.920314 
L 272.006737 79.329717 
L 272.158952 79.031979 
L 272.158952 79.329717 
L 271.854521 80.515791 
L 271.702306 79.920314 
L 272.006737 78.441382 
L 272.458134 77.553047 
L 272.762565 78.143644 
L 272.762565 79.627456 
L 272.61035 79.627456 
L 272.311168 80.218052 
L 272.311168 80.515791 
L 272.458134 80.808649 
L 272.311168 80.808649 
L 272.006737 81.106388 
L 272.006737 81.106388 
L 272.311168 81.106388 
L 272.311168 80.515791 
L 272.158952 80.218052 
L 272.458134 80.808649 
L 272.458134 81.106388 
L 272.158952 80.808649 
L 271.854521 80.218052 
L 271.403124 81.106388 
L 271.403124 81.404126 
L 271.555339 81.404126 
L 271.555339 81.404126 
L 271.702306 81.696984 
L 271.854521 81.404126 
L 271.702306 81.106388 
L 271.555339 81.106388 
L 271.555339 82.292461 
L 271.555339 81.696984 
L 271.098693 80.515791 
L 271.098693 80.515791 
L 271.098693 81.404126 
L 270.799511 82.292461 
L 270.799511 81.696984 
L 271.250909 81.106388 
L 271.854521 81.106388 
L 272.311168 81.696984 
L 272.311168 82.585319 
L 272.61035 83.180796 
L 272.458134 82.883058 
L 272.762565 84.069131 
L 273.213963 84.361989 
L 274.122007 84.361989 
L 274.421189 84.957467 
L 274.421189 86.138659 
L 274.573404 86.734137 
L 274.72562 86.734137 
L 274.872586 85.845802 
L 274.72562 85.845802 
L 274.421189 86.138659 
L 274.122007 87.026994 
L 273.969791 87.91533 
L 274.268973 88.213068 
L 274.72562 87.91533 
L 274.872586 88.510807 
L 274.872586 89.101403 
L 274.573404 90.287477 
L 274.421189 90.287477 
L 274.122007 89.989738 
L 273.817576 89.989738 
L 273.66536 90.878073 
L 273.66536 92.654744 
L 273.969791 93.543079 
L 274.421189 93.24534 
L 274.573404 92.654744 
L 274.268973 92.357005 
L 273.969791 92.357005 
L 273.817576 93.24534 
L 273.817576 93.543079 
L 273.66536 94.431414 
L 273.366178 94.724271 
L 272.61035 94.133675 
L 272.458134 92.952482 
L 272.762565 93.543079 
L 272.914781 94.133675 
L 272.762565 94.431414 
L 272.458134 94.431414 
L 272.458134 93.835936 
L 272.61035 93.543079 
L 272.61035 93.543079 
L 272.311168 93.543079 
L 272.158952 93.24534 
L 272.158952 92.654744 
L 271.854521 92.654744 
L 271.854521 92.952482 
L 272.006737 92.952482 
L 272.158952 92.357005 
L 272.458134 89.692 
L 272.311168 89.101403 
L 272.158952 89.399142 
L 272.311168 89.399142 
L 272.311168 89.101403 
L 272.158952 89.101403 
L 272.006737 88.803665 
L 272.006737 88.803665 
L 271.702306 89.692 
L 271.250909 90.580335 
L 271.250909 90.287477 
L 271.403124 89.101403 
L 271.098693 87.91533 
L 271.098693 87.91533 
L 270.951726 87.622472 
L 270.951726 87.324733 
L 270.951726 87.622472 
L 270.647296 87.622472 
L 270.647296 87.622472 
L 270.799511 87.91533 
L 270.799511 88.213068 
L 270.49508 88.510807 
L 269.891467 87.91533 
L 269.891467 86.138659 
L 270.195898 85.250324 
L 270.49508 85.250324 
L 270.647296 84.957467 
L 270.49508 84.659728 
L 270.195898 84.361989 
L 269.891467 84.659728 
L 269.891467 84.361989 
L 269.592285 83.473654 
L 269.592285 83.473654 
L 269.891467 83.473654 
L 269.891467 84.069131 
L 270.043683 84.069131 
L 269.7445 83.473654 
L 268.988672 82.883058 
L 268.537275 82.883058 
L 268.537275 83.180796 
L 268.836457 83.180796 
L 268.988672 82.883058 
L 268.684241 82.292461 
L 268.385059 82.585319 
L 269.592285 81.404126 
L 269.287854 81.404126 
L 268.836457 81.696984 
L 268.385059 81.404126 
L 268.080628 80.808649 
L 268.385059 79.920314 
L 268.385059 79.920314 
L 268.537275 80.218052 
L 268.385059 80.515791 
L 268.385059 80.808649 
L 268.537275 80.808649 
L 268.836457 79.329717 
L 268.988672 79.329717 
L 268.836457 79.920314 
L 268.385059 80.808649 
L 268.232844 80.515791 
L 268.232844 80.218052 
L 268.385059 80.515791 
L 268.537275 81.106388 
L 268.537275 81.106388 
L 267.781446 80.515791 
L 267.781446 80.515791 
L 267.781446 81.106388 
L 267.629231 81.404126 
L 267.933662 81.404126 
L 267.781446 81.404126 
L 267.629231 81.696984 
L 268.080628 79.920314 
L 268.080628 82.585319 
L 268.232844 82.585319 
L 268.232844 81.994723 
L 267.933662 81.404126 
L 267.629231 81.106388 
L 267.477015 81.696984 
L 267.477015 82.292461 
L 267.025618 83.473654 
L 267.025618 83.473654 
L 266.873402 82.883058 
L 266.269789 81.994723 
L 265.51921 81.106388 
L 264.45895 81.404126 
L 263.251725 82.292461 
L 262.044499 83.771393 
L 260.385875 84.957467 
L 258.11839 85.845802 
L 255.404756 87.622472 
L 252.538907 90.580335 
L 249.216411 93.835936 
L 237.595549 107.160963 
L 229.291934 115.751456 
L 225.371074 120.485989 
L 221.444966 126.411477 
L 217.37189 132.332084 
L 212.994384 137.662094 
L 208.464663 141.806031 
L 203.934941 145.65711 
L 195.332144 152.466052 
L 191.558251 155.131057 
L 184.918508 160.16821 
L 181.748228 162.237738 
L 174.504872 166.386555 
L 173.449862 167.567748 
L 172.389602 169.051561 
L 171.938205 170.530492 
L 171.486807 171.121089 
L 171.03541 171.418827 
L 170.730979 171.418827 
L 171.03541 171.716566 
L 171.334592 172.604901 
L 172.09042 174.083832 
L 172.389602 175.562764 
L 172.846249 176.158241 
L 173.901259 175.562764 
L 173.901259 175.860503 
L 172.694033 179.116104 
L 172.09042 180.004439 
L 171.486807 180.302178 
L 171.182377 181.190513 
L 171.03541 182.078848 
L 171.182377 182.967183 
L 171.03541 183.260041 
L 170.578764 183.260041 
L 170.127366 183.855518 
L 169.675969 184.743853 
L 169.523753 185.632189 
L 169.523753 186.520524 
L 169.371538 186.813381 
L 169.371538 186.222785 
L 169.523753 185.632189 
L 169.224571 185.632189 
L 169.072356 186.520524 
L 169.224571 186.520524 
L 169.828184 187.408859 
L 169.828184 188.297194 
L 169.675969 188.297194 
L 169.828184 187.999455 
L 169.828184 187.999455 
L 169.675969 187.701716 
L 169.523753 187.701716 
L 169.523753 188.88779 
L 169.828184 189.478387 
L 169.828184 189.776125 
L 169.371538 189.776125 
L 168.92014 190.073864 
L 168.92014 190.073864 
L 168.468743 191.552795 
L 168.012096 191.850534 
L 168.767925 190.962199 
L 168.620958 191.850534 
L 168.164312 192.738869 
L 168.012096 192.44113 
L 168.012096 191.552795 
L 167.86513 191.552795 
L 168.164312 191.552795 
L 168.620958 191.850534 
L 168.767925 192.143392 
L 168.767925 192.44113 
L 168.767925 192.44113 
L 169.072356 193.031727 
L 169.072356 193.329466 
L 169.072356 192.738869 
L 168.92014 192.44113 
L 169.072356 193.329466 
L 168.92014 193.920062 
L 168.620958 193.627204 
L 168.164312 193.627204 
L 168.164312 193.329466 
L 168.316527 193.329466 
L 168.620958 193.920062 
L 168.468743 194.808397 
L 168.164312 194.808397 
L 167.86513 194.217801 
L 167.560699 194.217801 
L 167.560699 194.515539 
L 167.86513 195.106136 
L 168.164312 196.29221 
L 168.012096 197.771141 
L 168.164312 198.06888 
L 168.164312 198.06888 
L 168.012096 198.06888 
L 168.012096 197.771141 
L 167.86513 197.771141 
L 167.86513 198.06888 
L 167.86513 198.06888 
L 168.012096 197.771141 
L 168.164312 197.771141 
L 168.012096 198.361737 
L 167.86513 198.361737 
L 168.012096 198.361737 
L 168.316527 198.957215 
L 168.316527 199.250072 
L 168.316527 198.957215 
L 168.164312 198.659476 
L 167.712914 198.06888 
L 168.316527 198.957215 
L 168.164312 199.84555 
L 167.712914 200.733885 
L 167.408483 200.138408 
L 167.408483 199.84555 
L 167.712914 199.84555 
L 167.86513 200.436146 
L 167.712914 200.733885 
L 167.560699 200.733885 
L 167.560699 200.733885 
L 167.560699 201.026743 
L 167.408483 201.026743 
L 167.408483 200.733885 
L 167.712914 200.733885 
L 168.012096 200.436146 
L 168.316527 199.84555 
L 168.316527 199.547811 
L 168.012096 199.547811 
L 167.712914 200.138408 
L 167.712914 200.733885 
L 167.712914 200.436146 
L 167.109301 199.84555 
L 167.261517 199.547811 
L 167.560699 199.547811 
L 167.86513 199.84555 
L 168.012096 199.547811 
L 168.012096 199.547811 
L 168.012096 198.957215 
L 168.316527 198.957215 
L 168.92014 199.250072 
L 168.620958 198.361737 
L 168.316527 198.659476 
L 168.012096 198.659476 
L 167.86513 198.06888 
L 168.012096 197.180545 
L 168.316527 196.585067 
L 168.316527 196.585067 
L 168.012096 197.771141 
L 167.560699 198.957215 
L 167.408483 198.957215 
L 167.712914 198.361737 
L 168.012096 198.361737 
L 168.164312 198.659476 
L 168.164312 198.06888 
L 168.620958 197.473402 
L 169.975151 197.180545 
L 171.938205 196.882806 
L 175.108485 197.473402 
L 178.730163 198.361737 
L 182.656272 198.957215 
L 187.637391 199.547811 
L 193.825736 200.733885 
L 200.916876 202.212816 
L 223.859418 208.431162 
L 232.010817 210.505571 
L 240.765829 213.761172 
L 249.972239 217.612251 
L 258.727252 221.756188 
L 267.177833 226.78846 
L 275.329233 231.230135 
L 283.023986 235.081214 
L 290.419557 238.932293 
L 297.662912 243.07623 
L 304.45487 247.220167 
L 316.380163 255.81066 
L 322.117111 259.364 
L 328.15324 262.029006 
L 334.493801 264.098533 
L 340.829113 265.875204 
L 346.56606 268.247351 
L 351.394964 270.912356 
L 355.321073 273.279623 
L 358.94275 275.056293 
L 362.113031 275.944628 
L 364.831913 276.535225 
L 366.789719 277.721298 
L 368.752773 279.790826 
L 369.057204 279.790826 
L 367.697763 279.790826 
L 365.582493 281.274639 
L 364.2283 281.865235 
L 363.472472 281.865235 
L 362.564428 281.274639 
L 361.204987 281.274639 
L 359.850794 281.567496 
L 359.094966 281.567496 
L 358.94275 281.274639 
L 359.247181 281.567496 
L 359.546363 282.162974 
L 361.204987 282.162974 
L 361.509418 281.865235 
L 362.113031 282.162974 
L 363.021074 283.641905 
L 363.021074 283.939644 
L 363.472472 284.232502 
L 363.923869 283.939644 
L 363.923869 284.232502 
L 363.472472 284.827979 
L 363.168041 285.418575 
L 362.868859 285.418575 
L 362.868859 284.827979 
L 362.868859 284.827979 
L 362.564428 284.827979 
L 362.412213 284.53024 
L 362.412213 284.53024 
L 362.412213 286.30691 
L 361.960815 286.30691 
L 361.509418 286.009172 
L 361.509418 286.009172 
L 361.661633 286.30691 
L 361.8086 286.30691 
L 361.8086 286.009172 
L 361.960815 286.009172 
L 362.412213 287.492984 
L 362.716644 288.083581 
L 362.716644 287.195246 
L 362.564428 287.785842 
L 362.564428 288.381319 
L 362.412213 288.381319 
L 362.265246 288.083581 
L 362.113031 288.083581 
L 362.113031 288.083581 
L 362.564428 288.971916 
L 362.716644 288.674177 
L 363.021074 288.381319 
L 363.021074 289.269654 
L 362.716644 289.860251 
L 362.265246 289.269654 
L 362.265246 288.674177 
L 362.564428 288.381319 
L 362.564428 288.083581 
L 362.412213 288.083581 
L 362.412213 288.381319 
L 362.868859 288.381319 
L 362.412213 289.269654 
L 361.8086 290.15799 
L 361.661633 289.860251 
L 361.960815 289.269654 
L 362.265246 289.269654 
L 362.412213 289.562512 
L 362.868859 289.860251 
L 363.320257 289.860251 
L 363.168041 289.562512 
L 362.564428 289.269654 
L 362.564428 289.860251 
L 362.716644 290.748586 
L 362.564428 290.450847 
L 362.265246 290.15799 
L 362.265246 290.748586 
L 362.564428 291.046325 
L 362.265246 290.748586 
L 362.412213 290.450847 
L 362.412213 290.15799 
L 362.412213 290.15799 
L 362.564428 289.860251 
L 362.716644 289.269654 
L 362.716644 288.674177 
L 362.412213 289.269654 
L 362.113031 288.674177 
L 362.113031 288.083581 
L 362.412213 288.381319 
L 362.716644 289.269654 
L 362.716644 289.860251 
L 362.412213 289.860251 
L 362.265246 289.562512 
L 362.113031 289.562512 
L 362.113031 291.046325 
L 361.8086 292.227517 
L 361.960815 291.93466 
L 361.960815 289.562512 
L 361.960815 289.562512 
L 362.265246 290.450847 
L 362.564428 290.450847 
L 363.021074 289.860251 
L 363.168041 288.971916 
L 363.021074 288.381319 
L 362.564428 288.381319 
L 362.113031 288.971916 
L 361.960815 289.860251 
L 361.8086 289.860251 
L 361.509418 288.971916 
L 361.509418 288.083581 
L 361.661633 288.083581 
L 361.509418 288.381319 
L 361.509418 288.971916 
L 361.8086 289.860251 
L 361.960815 289.860251 
L 361.960815 289.269654 
L 361.661633 288.674177 
L 361.357202 288.381319 
L 361.204987 288.674177 
L 361.204987 289.269654 
L 361.509418 290.748586 
L 361.509418 290.15799 
L 361.204987 289.860251 
L 360.753589 290.450847 
L 360.454407 291.046325 
L 360.454407 291.339182 
L 360.753589 290.748586 
L 361.05802 289.860251 
L 361.509418 288.971916 
L 361.661633 288.971916 
L 361.357202 288.971916 
L 360.753589 289.269654 
L 360.753589 289.269654 
L 360.302192 288.674177 
L 360.454407 288.083581 
L 360.905805 288.083581 
L 360.753589 288.381319 
L 360.302192 288.674177 
L 360.302192 288.381319 
L 360.601374 288.083581 
L 361.960815 288.971916 
L 363.021074 289.269654 
L 364.375267 288.971916 
L 365.886924 289.269654 
L 367.697763 289.860251 
L 370.26443 289.860251 
L 373.130279 289.562512 
L 376.30056 289.562512 
L 379.623055 288.971916 
L 382.940302 288.083581 
L 386.110583 288.083581 
L 390.939486 289.269654 
L 393.054756 289.562512 
L 395.164777 289.562512 
L 397.280047 288.674177 
L 397.432262 290.15799 
L 398.487273 294.301926 
L 398.188091 294.301926 
L 397.731444 293.71133 
L 397.432262 294.599665 
L 396.828649 295.190261 
L 395.920605 295.488 
L 395.01781 295.488 
L 393.506154 294.599665 
L 393.353938 294.892523 
L 393.658369 294.599665 
L 393.810584 293.71133 
L 393.506154 293.115852 
L 393.206971 293.71133 
L 393.054756 294.301926 
L 393.054756 294.004188 
L 393.054756 293.115852 
L 393.957551 291.046325 
L 394.261982 291.339182 
L 394.261982 291.93466 
L 393.957551 293.413591 
L 393.957551 293.71133 
L 394.561164 294.004188 
L 394.109767 293.71133 
L 394.414197 293.413591 
L 394.561164 293.71133 
L 394.414197 294.004188 
L 393.957551 294.599665 
L 393.658369 294.301926 
L 393.810584 293.413591 
L 394.109767 293.115852 
L 394.109767 292.822995 
L 393.810584 292.822995 
L 393.810584 292.822995 
L 393.658369 293.413591 
L 393.353938 293.413591 
L 393.206971 293.115852 
L 393.353938 293.115852 
L 393.506154 293.71133 
L 393.810584 294.004188 
L 393.810584 293.413591 
L 393.506154 292.822995 
L 393.658369 292.525256 
L 393.957551 292.227517 
L 394.109767 291.339182 
L 393.957551 291.339182 
L 393.957551 292.227517 
L 393.957551 292.227517 
L 393.658369 291.636921 
L 393.658369 291.636921 
L 393.810584 291.636921 
L 394.261982 291.339182 
L 394.865595 291.339182 
L 395.01781 291.046325 
L 394.865595 291.339182 
L 394.109767 291.339182 
L 394.261982 291.339182 
L 394.414197 291.636921 
L 394.414197 291.93466 
L 394.109767 290.450847 
L 394.261982 290.15799 
L 394.561164 290.15799 
L 394.865595 289.860251 
L 394.713379 290.15799 
L 394.414197 291.046325 
L 394.414197 291.636921 
L 394.561164 292.227517 
L 394.865595 291.636921 
L 394.561164 290.15799 
L 394.261982 290.15799 
L 394.261982 290.15799 
L 395.164777 291.339182 
L 395.164777 291.339182 
L 394.713379 291.339182 
L 394.561164 291.046325 
L 394.414197 291.636921 
L 394.561164 292.227517 
L 394.865595 291.636921 
L 394.713379 291.636921 
L 394.414197 291.93466 
L 394.109767 291.93466 
L 394.414197 291.339182 
L 394.414197 291.93466 
L 394.261982 292.227517 
L 394.261982 291.636921 
L 394.865595 290.450847 
L 395.01781 290.450847 
L 395.01781 291.046325 
L 394.713379 291.636921 
L 394.713379 291.636921 
L 395.01781 291.339182 
L 394.865595 291.636921 
L 394.713379 291.93466 
L 394.713379 288.674177 
L 394.713379 288.971916 
L 394.865595 290.15799 
L 394.713379 290.15799 
L 394.713379 290.15799 
L 394.713379 290.748586 
L 394.561164 291.046325 
L 394.713379 290.748586 
L 394.713379 290.450847 
L 394.713379 290.450847 
L 393.810584 290.450847 
L 393.810584 290.450847 
L 394.261982 289.562512 
L 394.414197 288.971916 
L 394.414197 289.562512 
L 394.261982 290.15799 
L 393.957551 290.450847 
L 393.957551 288.971916 
L 394.109767 289.269654 
L 394.713379 289.860251 
L 394.713379 290.15799 
L 394.414197 290.15799 
L 394.561164 290.15799 
L 394.414197 289.860251 
L 393.957551 289.269654 
L 393.957551 288.971916 
L 394.261982 288.971916 
L 394.561164 289.269654 
L 394.414197 289.562512 
L 394.261982 289.269654 
L 393.506154 288.381319 
L 393.054756 288.381319 
L 392.298928 287.492984 
L 390.79252 286.009172 
L 388.225852 285.418575 
L 385.055572 285.418575 
L 381.281679 285.120837 
L 376.904173 283.939644 
L 371.31944 281.567496 
L 364.831913 279.497969 
L 357.583309 277.721298 
L 349.437158 276.535225 
L 340.981328 275.056293 
L 332.079349 273.870219 
L 312.154872 271.502953 
L 291.931214 268.540209 
L 270.647296 264.396272 
L 260.081444 263.210198 
L 249.972239 262.321863 
L 240.461398 261.14067 
L 221.597181 257.58733 
L 211.934125 255.215183 
L 202.428533 252.550177 
L 193.36909 249.885172 
L 184.918508 248.406241 
L 168.164312 247.815644 
L 159.865946 246.62957 
L 143.715362 241.29956 
L 136.01536 239.820629 
L 128.472823 238.932293 
L 121.376434 236.560146 
L 114.736691 233.895141 
L 108.396131 232.118471 
L 97.678064 228.862869 
L 89.227482 225.607267 
L 82.283309 222.346785 
L 81.380514 221.165592 
L 81.380514 219.388922 
L 81.984127 218.500587 
L 83.039137 219.091183 
L 83.947181 219.979518 
L 84.849976 219.681779 
L 85.75802 218.202848 
L 86.81303 217.016774 
L 87.868041 216.426178 
L 88.776085 216.128439 
L 90.282493 215.240104 
L 90.282493 216.128439 
L 90.135526 216.128439 
L 90.135526 216.426178 
L 89.379698 217.314513 
L 88.324687 218.793444 
L 86.81303 221.165592 
L 85.910235 221.165592 
L 85.002192 221.756188 
L 84.398579 222.942262 
L 83.794966 223.532858 
L 83.191353 223.23512 
L 82.886922 222.644523 
L 82.886922 222.346785 
L 82.136342 222.346785 
L 82.136342 222.346785 
L 82.58774 222.053927 
L 83.191353 222.053927 
L 83.191353 221.756188 
L 83.039137 220.867853 
L 83.191353 220.570114 
L 83.191353 219.681779 
L 83.039137 219.979518 
L 83.039137 220.570114 
L 83.039137 220.570114 
L 82.58774 220.570114 
L 82.136342 219.979518 
L 81.831911 219.091183 
L 81.532729 219.091183 
L 81.532729 220.570114 
L 81.228298 221.756188 
L 81.228298 221.45845 
L 81.076083 220.867853 
L 80.776901 220.867853 
L 80.929116 221.165592 
L 81.228298 221.45845 
L 80.929116 222.053927 
L 80.624685 221.756188 
L 80.47247 221.165592 
L 80.624685 220.570114 
L 80.776901 220.570114 
L 80.776901 220.867853 
L 80.776901 220.867853 
L 80.929116 220.570114 
L 80.929116 220.570114 
L 80.929116 220.867853 
L 80.776901 221.45845 
L 80.929116 221.45845 
L 81.076083 220.867853 
L 80.929116 220.570114 
L 80.624685 220.867853 
L 80.021072 222.346785 
L 79.72189 222.346785 
L 79.417459 221.45845 
L 79.417459 219.979518 
L 79.72189 219.091183 
L 80.021072 219.388922 
L 80.021072 219.979518 
L 79.868857 220.277257 
L 79.569675 220.570114 
L 79.569675 220.867853 
L 80.173288 221.45845 
L 80.47247 221.165592 
L 80.325503 220.570114 
L 79.569675 219.979518 
L 79.569675 219.979518 
L 79.569675 220.570114 
L 79.72189 221.45845 
L 79.72189 222.644523 
L 79.417459 222.942262 
L 79.265244 222.644523 
L 79.417459 220.867853 
L 79.118277 219.979518 
L 78.966062 219.681779 
L 78.813846 219.681779 
L 78.966062 219.681779 
L 78.813846 219.979518 
L 78.661631 221.45845 
L 78.661631 222.053927 
L 78.362449 222.346785 
L 78.058018 222.053927 
L 78.966062 220.277257 
L 78.966062 220.277257 
L 78.813846 221.165592 
L 78.966062 221.756188 
L 78.966062 222.346785 
L 78.966062 222.053927 
L 79.118277 221.756188 
L 79.265244 221.756188 
L 78.966062 222.346785 
L 78.362449 222.346785 
L 78.514664 222.346785 
L 78.514664 222.053927 
L 78.661631 221.45845 
L 78.661631 221.45845 
L 78.813846 221.45845 
L 78.813846 221.45845 
L 78.661631 221.165592 
L 78.362449 220.867853 
L 78.362449 221.165592 
L 78.813846 221.165592 
L 78.661631 221.45845 
L 78.514664 222.644523 
L 78.661631 222.053927 
L 78.813846 221.165592 
L 78.661631 221.165592 
L 78.813846 220.570114 
L 78.661631 219.979518 
L 78.210233 220.277257 
L 77.758836 220.277257 
L 77.758836 219.681779 
L 78.058018 219.388922 
L 78.362449 219.681779 
L 78.661631 220.277257 
L 78.661631 220.277257 
L 78.058018 220.277257 
L 78.362449 220.570114 
L 78.661631 221.165592 
L 78.514664 221.165592 
L 78.362449 220.277257 
L 78.058018 219.681779 
L 78.058018 219.388922 
L 78.514664 219.979518 
L 78.362449 220.277257 
L 77.911051 220.277257 
L 77.758836 219.681779 
L 77.758836 219.091183 
L 77.758836 219.388922 
L 77.30219 218.793444 
L 77.30219 218.793444 
L 77.606621 218.500587 
L 77.606621 218.202848 
L 77.30219 218.500587 
L 77.003008 219.979518 
L 76.850792 219.681779 
L 77.155223 219.091183 
L 77.911051 218.202848 
L 77.911051 217.905109 
L 76.399395 217.612251 
L 76.247179 217.016774 
L 76.399395 216.426178 
L 77.454405 217.016774 
L 77.758836 217.016774 
L 77.454405 217.016774 
L 77.003008 217.314513 
L 76.698577 217.016774 
L 76.399395 216.426178 
L 76.094964 216.128439 
L 76.094964 216.723916 
L 76.247179 217.314513 
L 76.399395 217.016774 
L 76.399395 216.723916 
L 76.247179 216.426178 
L 75.947997 217.016774 
L 75.947997 217.016774 
L 75.947997 216.723916 
L 75.795782 216.426178 
L 75.795782 217.612251 
L 75.491351 218.500587 
L 75.344384 218.500587 
L 75.039953 217.905109 
L 74.284125 217.905109 
L 74.137158 218.202848 
L 75.192169 217.612251 
L 75.491351 216.723916 
L 75.947997 216.723916 
L 76.094964 217.016774 
L 74.588556 217.016774 
L 74.284125 217.905109 
L 74.284125 219.091183 
L 74.284125 218.202848 
L 74.43634 217.016774 
L 74.588556 217.016774 
L 74.43634 218.202848 
L 74.137158 219.091183 
L 73.832727 219.091183 
L 73.984943 218.202848 
L 74.43634 217.016774 
L 74.887738 216.426178 
L 75.344384 216.723916 
L 75.344384 217.314513 
L 74.887738 217.314513 
L 74.588556 217.612251 
L 74.588556 217.612251 
L 75.344384 217.612251 
L 74.887738 217.905109 
L 74.284125 217.905109 
L 74.284125 217.612251 
L 74.588556 217.612251 
L 74.887738 218.202848 
L 75.192169 217.905109 
L 75.039953 218.202848 
L 74.887738 218.500587 
L 74.588556 219.681779 
L 75.039953 218.202848 
L 75.192169 217.905109 
L 74.588556 218.202848 
L 74.740771 218.500587 
L 74.740771 218.793444 
L 74.740771 218.793444 
L 74.887738 218.793444 
L 75.039953 219.091183 
L 74.588556 218.202848 
L 74.284125 218.202848 
L 74.588556 219.681779 
L 75.039953 220.277257 
L 75.039953 220.867853 
L 74.588556 219.979518 
L 74.588556 219.091183 
L 74.887738 218.793444 
L 75.192169 219.091183 
L 75.344384 219.681779 
L 75.344384 219.681779 
L 74.887738 219.681779 
L 74.740771 219.091183 
L 74.887738 218.202848 
L 75.039953 218.202848 
L 75.039953 218.793444 
L 74.887738 218.793444 
L 74.740771 218.500587 
L 74.43634 218.202848 
L 74.43634 218.500587 
L 74.740771 219.979518 
L 74.284125 219.979518 
L 73.984943 219.681779 
L 74.137158 218.793444 
L 74.43634 217.612251 
L 74.43634 217.016774 
L 75.947997 212.872837 
L 78.966062 209.319497 
L 81.380514 206.654492 
L 84.246363 203.101151 
L 87.721074 198.361737 
L 91.641934 192.143392 
L 96.01944 184.743853 
L 105.682497 170.530492 
L 110.5114 163.126073 
L 120.473639 149.801047 
L 125.601724 142.401508 
L 130.582844 134.406492 
L 139.789254 120.193131 
L 151.263149 99.463686 
L 154.732611 93.835936 
L 158.354289 89.399142 
L 162.280397 84.957467 
L 166.054291 81.106388 
L 169.975151 77.553047 
L 174.352657 74.590303 
L 186.881562 69.558031 
L 189.899627 67.483623 
L 192.014897 65.706952 
L 194.124918 63.339686 
L 197.746596 58.600272 
L 198.350209 57.12134 
L 198.502424 55.642409 
L 198.051027 55.34467 
L 197.142983 55.34467 
L 195.783541 54.754074 
L 194.277133 53.865739 
L 192.61851 53.865739 
L 190.954638 54.754074 
L 188.844617 56.823602 
L 186.881562 57.419079 
L 186.430165 57.419079 
L 186.430165 56.233005 
L 186.430165 56.530744 
L 186.729347 56.823602 
L 187.33296 56.823602 
L 187.936573 57.12134 
L 189.44823 57.12134 
L 190.051843 57.419079 
L 190.351025 57.419079 
L 190.807671 56.530744 
L 190.807671 55.046931 
L 190.50324 53.865739 
L 190.351025 53.865739 
L 190.204058 54.158596 
L 190.204058 54.456335 
L 189.899627 55.046931 
L 189.44823 55.642409 
L 188.996832 55.642409 
L 188.540186 53.568 
L 188.38797 53.568 
L 188.540186 53.865739 
L 188.540186 54.456335 
L 188.844617 55.935267 
L 188.996832 56.233005 
L 189.143799 55.935267 
L 189.143799 55.642409 
L 189.143799 55.642409 
L 189.296014 56.530744 
L 189.143799 57.12134 
L 189.296014 57.12134 
L 189.44823 56.823602 
L 189.44823 56.233005 
L 188.692401 55.642409 
L 188.540186 55.34467 
L 188.38797 55.34467 
L 188.38797 56.823602 
L 188.692401 57.12134 
L 188.692401 57.419079 
L 188.38797 56.823602 
L 188.088788 55.935267 
L 188.088788 55.046931 
L 188.241004 54.456335 
L 188.241004 54.754074 
L 188.241004 55.046931 
L 188.241004 55.046931 
L 188.088788 55.34467 
L 187.784357 56.233005 
L 187.784357 55.935267 
L 187.936573 55.935267 
L 188.241004 56.233005 
L 188.38797 55.935267 
L 188.088788 55.642409 
L 187.485175 55.935267 
L 187.033778 56.530744 
L 187.33296 56.823602 
L 187.784357 56.233005 
L 187.936573 55.642409 
L 187.784357 55.34467 
L 187.485175 55.642409 
L 187.485175 55.642409 
L 188.088788 58.009675 
L 187.936573 58.009675 
L 187.637391 57.711937 
L 187.485175 56.823602 
L 187.485175 55.935267 
L 187.637391 55.046931 
L 187.485175 54.754074 
L 187.485175 55.046931 
L 187.784357 55.34467 
L 187.784357 56.823602 
L 187.485175 57.12134 
L 187.180744 56.823602 
L 187.180744 56.530744 
L 187.033778 56.530744 
L 187.033778 56.530744 
L 187.033778 57.12134 
L 186.729347 58.307414 
L 186.430165 57.711937 
L 186.277949 57.12134 
L 186.430165 57.419079 
L 186.430165 56.530744 
L 186.729347 55.34467 
L 186.881562 55.34467 
L 186.729347 55.935267 
L 186.430165 56.233005 
L 186.881562 55.935267 
L 187.033778 55.935267 
L 186.881562 56.530744 
L 186.277949 57.711937 
L 185.973519 57.711937 
L 186.125734 57.711937 
L 186.277949 58.009675 
L 186.125734 58.307414 
L 186.125734 56.233005 
L 185.973519 56.233005 
L 185.973519 56.233005 
" style="fill:none;stroke:#1f77b4;stroke-linecap:square;stroke-width:1.5;"/>
   </g>
   <g id="matplotlib.axis_1">
    <g id="xtick_1">
     <g id="line2d_2">
      <defs>
       <path d="M 0 0 
L 0 3.5 
" id="m58426c175c" style="stroke:#000000;stroke-width:0.8;"/>
      </defs>
      <g>
       <use style="stroke:#000000;stroke-width:0.8;" x="72.342066" xlink:href="#m58426c175c" y="307.584"/>
      </g>
     </g>
     <g id="text_1">
      <!-- −400 -->
      <defs>
       <path d="M 10.59375 35.5 
L 73.1875 35.5 
L 73.1875 27.203125 
L 10.59375 27.203125 
z
" id="DejaVuSans-8722"/>
       <path d="M 37.796875 64.3125 
L 12.890625 25.390625 
L 37.796875 25.390625 
z
M 35.203125 72.90625 
L 47.609375 72.90625 
L 47.609375 25.390625 
L 58.015625 25.390625 
L 58.015625 17.1875 
L 47.609375 17.1875 
L 47.609375 0 
L 37.796875 0 
L 37.796875 17.1875 
L 4.890625 17.1875 
L 4.890625 26.703125 
z
" id="DejaVuSans-52"/>
       <path d="M 31.78125 66.40625 
Q 24.171875 66.40625 20.328125 58.90625 
Q 16.5 51.421875 16.5 36.375 
Q 16.5 21.390625 20.328125 13.890625 
Q 24.171875 6.390625 31.78125 6.390625 
Q 39.453125 6.390625 43.28125 13.890625 
Q 47.125 21.390625 47.125 36.375 
Q 47.125 51.421875 43.28125 58.90625 
Q 39.453125 66.40625 31.78125 66.40625 
z
M 31.78125 74.21875 
Q 44.046875 74.21875 50.515625 64.515625 
Q 56.984375 54.828125 56.984375 36.375 
Q 56.984375 17.96875 50.515625 8.265625 
Q 44.046875 -1.421875 31.78125 -1.421875 
Q 19.53125 -1.421875 13.0625 8.265625 
Q 6.59375 17.96875 6.59375 36.375 
Q 6.59375 54.828125 13.0625 64.515625 
Q 19.53125 74.21875 31.78125 74.21875 
z
" id="DejaVuSans-48"/>
      </defs>
      <g transform="translate(58.608472 322.182437)scale(0.1 -0.1)">
       <use xlink:href="#DejaVuSans-8722"/>
       <use x="83.789062" xlink:href="#DejaVuSans-52"/>
       <use x="147.412109" xlink:href="#DejaVuSans-48"/>
       <use x="211.035156" xlink:href="#DejaVuSans-48"/>
      </g>
     </g>
    </g>
    <g id="xtick_2">
     <g id="line2d_3">
      <g>
       <use style="stroke:#000000;stroke-width:0.8;" x="124.83015" xlink:href="#m58426c175c" y="307.584"/>
      </g>
     </g>
     <g id="text_2">
      <!-- −300 -->
      <defs>
       <path d="M 40.578125 39.3125 
Q 47.65625 37.796875 51.625 33 
Q 55.609375 28.21875 55.609375 21.1875 
Q 55.609375 10.40625 48.1875 4.484375 
Q 40.765625 -1.421875 27.09375 -1.421875 
Q 22.515625 -1.421875 17.65625 -0.515625 
Q 12.796875 0.390625 7.625 2.203125 
L 7.625 11.71875 
Q 11.71875 9.328125 16.59375 8.109375 
Q 21.484375 6.890625 26.8125 6.890625 
Q 36.078125 6.890625 40.9375 10.546875 
Q 45.796875 14.203125 45.796875 21.1875 
Q 45.796875 27.640625 41.28125 31.265625 
Q 36.765625 34.90625 28.71875 34.90625 
L 20.21875 34.90625 
L 20.21875 43.015625 
L 29.109375 43.015625 
Q 36.375 43.015625 40.234375 45.921875 
Q 44.09375 48.828125 44.09375 54.296875 
Q 44.09375 59.90625 40.109375 62.90625 
Q 36.140625 65.921875 28.71875 65.921875 
Q 24.65625 65.921875 20.015625 65.03125 
Q 15.375 64.15625 9.8125 62.3125 
L 9.8125 71.09375 
Q 15.4375 72.65625 20.34375 73.4375 
Q 25.25 74.21875 29.59375 74.21875 
Q 40.828125 74.21875 47.359375 69.109375 
Q 53.90625 64.015625 53.90625 55.328125 
Q 53.90625 49.265625 50.4375 45.09375 
Q 46.96875 40.921875 40.578125 39.3125 
z
" id="DejaVuSans-51"/>
      </defs>
      <g transform="translate(111.096556 322.182437)scale(0.1 -0.1)">
       <use xlink:href="#DejaVuSans-8722"/>
       <use x="83.789062" xlink:href="#DejaVuSans-51"/>
       <use x="147.412109" xlink:href="#DejaVuSans-48"/>
       <use x="211.035156" xlink:href="#DejaVuSans-48"/>
      </g>
     </g>
    </g>
    <g id="xtick_3">
     <g id="line2d_4">
      <g>
       <use style="stroke:#000000;stroke-width:0.8;" x="177.318234" xlink:href="#m58426c175c" y="307.584"/>
      </g>
     </g>
     <g id="text_3">
      <!-- −200 -->
      <defs>
       <path d="M 19.1875 8.296875 
L 53.609375 8.296875 
L 53.609375 0 
L 7.328125 0 
L 7.328125 8.296875 
Q 12.9375 14.109375 22.625 23.890625 
Q 32.328125 33.6875 34.8125 36.53125 
Q 39.546875 41.84375 41.421875 45.53125 
Q 43.3125 49.21875 43.3125 52.78125 
Q 43.3125 58.59375 39.234375 62.25 
Q 35.15625 65.921875 28.609375 65.921875 
Q 23.96875 65.921875 18.8125 64.3125 
Q 13.671875 62.703125 7.8125 59.421875 
L 7.8125 69.390625 
Q 13.765625 71.78125 18.9375 73 
Q 24.125 74.21875 28.421875 74.21875 
Q 39.75 74.21875 46.484375 68.546875 
Q 53.21875 62.890625 53.21875 53.421875 
Q 53.21875 48.921875 51.53125 44.890625 
Q 49.859375 40.875 45.40625 35.40625 
Q 44.1875 33.984375 37.640625 27.21875 
Q 31.109375 20.453125 19.1875 8.296875 
z
" id="DejaVuSans-50"/>
      </defs>
      <g transform="translate(163.58464 322.182437)scale(0.1 -0.1)">
       <use xlink:href="#DejaVuSans-8722"/>
       <use x="83.789062" xlink:href="#DejaVuSans-50"/>
       <use x="147.412109" xlink:href="#DejaVuSans-48"/>
       <use x="211.035156" xlink:href="#DejaVuSans-48"/>
      </g>
     </g>
    </g>
    <g id="xtick_4">
     <g id="line2d_5">
      <g>
       <use style="stroke:#000000;stroke-width:0.8;" x="229.806317" xlink:href="#m58426c175c" y="307.584"/>
      </g>
     </g>
     <g id="text_4">
      <!-- −100 -->
      <defs>
       <path d="M 12.40625 8.296875 
L 28.515625 8.296875 
L 28.515625 63.921875 
L 10.984375 60.40625 
L 10.984375 69.390625 
L 28.421875 72.90625 
L 38.28125 72.90625 
L 38.28125 8.296875 
L 54.390625 8.296875 
L 54.390625 0 
L 12.40625 0 
z
" id="DejaVuSans-49"/>
      </defs>
      <g transform="translate(216.072724 322.182437)scale(0.1 -0.1)">
       <use xlink:href="#DejaVuSans-8722"/>
       <use x="83.789062" xlink:href="#DejaVuSans-49"/>
       <use x="147.412109" xlink:href="#DejaVuSans-48"/>
       <use x="211.035156" xlink:href="#DejaVuSans-48"/>
      </g>
     </g>
    </g>
    <g id="xtick_5">
     <g id="line2d_6">
      <g>
       <use style="stroke:#000000;stroke-width:0.8;" x="282.294401" xlink:href="#m58426c175c" y="307.584"/>
      </g>
     </g>
     <g id="text_5">
      <!-- 0 -->
      <g transform="translate(279.113151 322.182437)scale(0.1 -0.1)">
       <use xlink:href="#DejaVuSans-48"/>
      </g>
     </g>
    </g>
    <g id="xtick_6">
     <g id="line2d_7">
      <g>
       <use style="stroke:#000000;stroke-width:0.8;" x="334.782485" xlink:href="#m58426c175c" y="307.584"/>
      </g>
     </g>
     <g id="text_6">
      <!-- 100 -->
      <g transform="translate(325.238735 322.182437)scale(0.1 -0.1)">
       <use xlink:href="#DejaVuSans-49"/>
       <use x="63.623047" xlink:href="#DejaVuSans-48"/>
       <use x="127.246094" xlink:href="#DejaVuSans-48"/>
      </g>
     </g>
    </g>
    <g id="xtick_7">
     <g id="line2d_8">
      <g>
       <use style="stroke:#000000;stroke-width:0.8;" x="387.270569" xlink:href="#m58426c175c" y="307.584"/>
      </g>
     </g>
     <g id="text_7">
      <!-- 200 -->
      <g transform="translate(377.726819 322.182437)scale(0.1 -0.1)">
       <use xlink:href="#DejaVuSans-50"/>
       <use x="63.623047" xlink:href="#DejaVuSans-48"/>
       <use x="127.246094" xlink:href="#DejaVuSans-48"/>
      </g>
     </g>
    </g>
   </g>
   <g id="matplotlib.axis_2">
    <g id="ytick_1">
     <g id="line2d_9">
      <defs>
       <path d="M 0 0 
L -3.5 0 
" id="m93eb271c65" style="stroke:#000000;stroke-width:0.8;"/>
      </defs>
      <g>
       <use style="stroke:#000000;stroke-width:0.8;" x="57.6" xlink:href="#m93eb271c65" y="288.410605"/>
      </g>
     </g>
     <g id="text_8">
      <!-- −400 -->
      <g transform="translate(23.132812 292.209824)scale(0.1 -0.1)">
       <use xlink:href="#DejaVuSans-8722"/>
       <use x="83.789062" xlink:href="#DejaVuSans-52"/>
       <use x="147.412109" xlink:href="#DejaVuSans-48"/>
       <use x="211.035156" xlink:href="#DejaVuSans-48"/>
      </g>
     </g>
    </g>
    <g id="ytick_2">
     <g id="line2d_10">
      <g>
       <use style="stroke:#000000;stroke-width:0.8;" x="57.6" xlink:href="#m93eb271c65" y="239.600985"/>
      </g>
     </g>
     <g id="text_9">
      <!-- −300 -->
      <g transform="translate(23.132812 243.400204)scale(0.1 -0.1)">
       <use xlink:href="#DejaVuSans-8722"/>
       <use x="83.789062" xlink:href="#DejaVuSans-51"/>
       <use x="147.412109" xlink:href="#DejaVuSans-48"/>
       <use x="211.035156" xlink:href="#DejaVuSans-48"/>
      </g>
     </g>
    </g>
    <g id="ytick_3">
     <g id="line2d_11">
      <g>
       <use style="stroke:#000000;stroke-width:0.8;" x="57.6" xlink:href="#m93eb271c65" y="190.791365"/>
      </g>
     </g>
     <g id="text_10">
      <!-- −200 -->
      <g transform="translate(23.132812 194.590584)scale(0.1 -0.1)">
       <use xlink:href="#DejaVuSans-8722"/>
       <use x="83.789062" xlink:href="#DejaVuSans-50"/>
       <use x="147.412109" xlink:href="#DejaVuSans-48"/>
       <use x="211.035156" xlink:href="#DejaVuSans-48"/>
      </g>
     </g>
    </g>
    <g id="ytick_4">
     <g id="line2d_12">
      <g>
       <use style="stroke:#000000;stroke-width:0.8;" x="57.6" xlink:href="#m93eb271c65" y="141.981745"/>
      </g>
     </g>
     <g id="text_11">
      <!-- −100 -->
      <g transform="translate(23.132812 145.780964)scale(0.1 -0.1)">
       <use xlink:href="#DejaVuSans-8722"/>
       <use x="83.789062" xlink:href="#DejaVuSans-49"/>
       <use x="147.412109" xlink:href="#DejaVuSans-48"/>
       <use x="211.035156" xlink:href="#DejaVuSans-48"/>
      </g>
     </g>
    </g>
    <g id="ytick_5">
     <g id="line2d_13">
      <g>
       <use style="stroke:#000000;stroke-width:0.8;" x="57.6" xlink:href="#m93eb271c65" y="93.172126"/>
      </g>
     </g>
     <g id="text_12">
      <!-- 0 -->
      <g transform="translate(44.2375 96.971344)scale(0.1 -0.1)">
       <use xlink:href="#DejaVuSans-48"/>
      </g>
     </g>
    </g>
    <g id="ytick_6">
     <g id="line2d_14">
      <g>
       <use style="stroke:#000000;stroke-width:0.8;" x="57.6" xlink:href="#m93eb271c65" y="44.362506"/>
      </g>
     </g>
     <g id="text_13">
      <!-- 100 -->
      <g transform="translate(31.5125 48.161724)scale(0.1 -0.1)">
       <use xlink:href="#DejaVuSans-49"/>
       <use x="63.623047" xlink:href="#DejaVuSans-48"/>
       <use x="127.246094" xlink:href="#DejaVuSans-48"/>
      </g>
     </g>
    </g>
   </g>
   <g id="line2d_15">
    <path clip-path="url(#p6694a55334)" d="M 269.134141 86.746008 
L 173.327708 192.783607 
L 360.151255 285.391842 
L 388.994761 290.029535 
L 81.29708 220.44806 
L 185.77043 60.04438 
" style="fill:none;stroke:#ff0000;stroke-linecap:square;stroke-width:0.5;"/>
   </g>
   <g id="patch_3">
    <path d="M 57.6 307.584 
L 57.6 41.472 
" style="fill:none;stroke:#000000;stroke-linecap:square;stroke-linejoin:miter;stroke-width:0.8;"/>
   </g>
   <g id="patch_4">
    <path d="M 414.72 307.584 
L 414.72 41.472 
" style="fill:none;stroke:#000000;stroke-linecap:square;stroke-linejoin:miter;stroke-width:0.8;"/>
   </g>
   <g id="patch_5">
    <path d="M 57.6 307.584 
L 414.72 307.584 
" style="fill:none;stroke:#000000;stroke-linecap:square;stroke-linejoin:miter;stroke-width:0.8;"/>
   </g>
   <g id="patch_6">
    <path d="M 57.6 41.472 
L 414.72 41.472 
" style="fill:none;stroke:#000000;stroke-linecap:square;stroke-linejoin:miter;stroke-width:0.8;"/>
   </g>
   <g id="PathCollection_1">
    <defs>
     <path d="M 0 2.738613 
C 0.726289 2.738613 1.422928 2.450055 1.936492 1.936492 
C 2.450055 1.422928 2.738613 0.726289 2.738613 0 
C 2.738613 -0.726289 2.450055 -1.422928 1.936492 -1.936492 
C 1.422928 -2.450055 0.726289 -2.738613 0 -2.738613 
C -0.726289 -2.738613 -1.422928 -2.450055 -1.936492 -1.936492 
C -2.450055 -1.422928 -2.738613 -0.726289 -2.738613 0 
C -2.738613 0.726289 -2.450055 1.422928 -1.936492 1.936492 
C -1.422928 2.450055 -0.726289 2.738613 0 2.738613 
z
" id="m5c03d2f8d6" style="stroke:#ff0000;"/>
    </defs>
    <g clip-path="url(#p6694a55334)">
     <use style="fill:#ff0000;stroke:#ff0000;" x="269.134141" xlink:href="#m5c03d2f8d6" y="86.746008"/>
     <use style="fill:#ff0000;stroke:#ff0000;" x="173.327708" xlink:href="#m5c03d2f8d6" y="192.783607"/>
     <use style="fill:#ff0000;stroke:#ff0000;" x="360.151255" xlink:href="#m5c03d2f8d6" y="285.391842"/>
     <use style="fill:#ff0000;stroke:#ff0000;" x="388.994761" xlink:href="#m5c03d2f8d6" y="290.029535"/>
     <use style="fill:#ff0000;stroke:#ff0000;" x="81.29708" xlink:href="#m5c03d2f8d6" y="220.44806"/>
     <use style="fill:#ff0000;stroke:#ff0000;" x="185.77043" xlink:href="#m5c03d2f8d6" y="60.04438"/>
    </g>
   </g>
   <g id="text_14">
    <!-- (62) Subject: s17, Known = False, Degree = 2, Duration = 0.1 -->
    <defs>
     <path d="M 31 75.875 
Q 24.46875 64.65625 21.28125 53.65625 
Q 18.109375 42.671875 18.109375 31.390625 
Q 18.109375 20.125 21.3125 9.0625 
Q 24.515625 -2 31 -13.1875 
L 23.1875 -13.1875 
Q 15.875 -1.703125 12.234375 9.375 
Q 8.59375 20.453125 8.59375 31.390625 
Q 8.59375 42.28125 12.203125 53.3125 
Q 15.828125 64.359375 23.1875 75.875 
z
" id="DejaVuSans-40"/>
     <path d="M 33.015625 40.375 
Q 26.375 40.375 22.484375 35.828125 
Q 18.609375 31.296875 18.609375 23.390625 
Q 18.609375 15.53125 22.484375 10.953125 
Q 26.375 6.390625 33.015625 6.390625 
Q 39.65625 6.390625 43.53125 10.953125 
Q 47.40625 15.53125 47.40625 23.390625 
Q 47.40625 31.296875 43.53125 35.828125 
Q 39.65625 40.375 33.015625 40.375 
z
M 52.59375 71.296875 
L 52.59375 62.3125 
Q 48.875 64.0625 45.09375 64.984375 
Q 41.3125 65.921875 37.59375 65.921875 
Q 27.828125 65.921875 22.671875 59.328125 
Q 17.53125 52.734375 16.796875 39.40625 
Q 19.671875 43.65625 24.015625 45.921875 
Q 28.375 48.1875 33.59375 48.1875 
Q 44.578125 48.1875 50.953125 41.515625 
Q 57.328125 34.859375 57.328125 23.390625 
Q 57.328125 12.15625 50.6875 5.359375 
Q 44.046875 -1.421875 33.015625 -1.421875 
Q 20.359375 -1.421875 13.671875 8.265625 
Q 6.984375 17.96875 6.984375 36.375 
Q 6.984375 53.65625 15.1875 63.9375 
Q 23.390625 74.21875 37.203125 74.21875 
Q 40.921875 74.21875 44.703125 73.484375 
Q 48.484375 72.75 52.59375 71.296875 
z
" id="DejaVuSans-54"/>
     <path d="M 8.015625 75.875 
L 15.828125 75.875 
Q 23.140625 64.359375 26.78125 53.3125 
Q 30.421875 42.28125 30.421875 31.390625 
Q 30.421875 20.453125 26.78125 9.375 
Q 23.140625 -1.703125 15.828125 -13.1875 
L 8.015625 -13.1875 
Q 14.5 -2 17.703125 9.0625 
Q 20.90625 20.125 20.90625 31.390625 
Q 20.90625 42.671875 17.703125 53.65625 
Q 14.5 64.65625 8.015625 75.875 
z
" id="DejaVuSans-41"/>
     <path id="DejaVuSans-32"/>
     <path d="M 53.515625 70.515625 
L 53.515625 60.890625 
Q 47.90625 63.578125 42.921875 64.890625 
Q 37.9375 66.21875 33.296875 66.21875 
Q 25.25 66.21875 20.875 63.09375 
Q 16.5 59.96875 16.5 54.203125 
Q 16.5 49.359375 19.40625 46.890625 
Q 22.3125 44.4375 30.421875 42.921875 
L 36.375 41.703125 
Q 47.40625 39.59375 52.65625 34.296875 
Q 57.90625 29 57.90625 20.125 
Q 57.90625 9.515625 50.796875 4.046875 
Q 43.703125 -1.421875 29.984375 -1.421875 
Q 24.8125 -1.421875 18.96875 -0.25 
Q 13.140625 0.921875 6.890625 3.21875 
L 6.890625 13.375 
Q 12.890625 10.015625 18.65625 8.296875 
Q 24.421875 6.59375 29.984375 6.59375 
Q 38.421875 6.59375 43.015625 9.90625 
Q 47.609375 13.234375 47.609375 19.390625 
Q 47.609375 24.75 44.3125 27.78125 
Q 41.015625 30.8125 33.5 32.328125 
L 27.484375 33.5 
Q 16.453125 35.6875 11.515625 40.375 
Q 6.59375 45.0625 6.59375 53.421875 
Q 6.59375 63.09375 13.40625 68.65625 
Q 20.21875 74.21875 32.171875 74.21875 
Q 37.3125 74.21875 42.625 73.28125 
Q 47.953125 72.359375 53.515625 70.515625 
z
" id="DejaVuSans-83"/>
     <path d="M 8.5 21.578125 
L 8.5 54.6875 
L 17.484375 54.6875 
L 17.484375 21.921875 
Q 17.484375 14.15625 20.5 10.265625 
Q 23.53125 6.390625 29.59375 6.390625 
Q 36.859375 6.390625 41.078125 11.03125 
Q 45.3125 15.671875 45.3125 23.6875 
L 45.3125 54.6875 
L 54.296875 54.6875 
L 54.296875 0 
L 45.3125 0 
L 45.3125 8.40625 
Q 42.046875 3.421875 37.71875 1 
Q 33.40625 -1.421875 27.6875 -1.421875 
Q 18.265625 -1.421875 13.375 4.4375 
Q 8.5 10.296875 8.5 21.578125 
z
M 31.109375 56 
z
" id="DejaVuSans-117"/>
     <path d="M 48.6875 27.296875 
Q 48.6875 37.203125 44.609375 42.84375 
Q 40.53125 48.484375 33.40625 48.484375 
Q 26.265625 48.484375 22.1875 42.84375 
Q 18.109375 37.203125 18.109375 27.296875 
Q 18.109375 17.390625 22.1875 11.75 
Q 26.265625 6.109375 33.40625 6.109375 
Q 40.53125 6.109375 44.609375 11.75 
Q 48.6875 17.390625 48.6875 27.296875 
z
M 18.109375 46.390625 
Q 20.953125 51.265625 25.265625 53.625 
Q 29.59375 56 35.59375 56 
Q 45.5625 56 51.78125 48.09375 
Q 58.015625 40.1875 58.015625 27.296875 
Q 58.015625 14.40625 51.78125 6.484375 
Q 45.5625 -1.421875 35.59375 -1.421875 
Q 29.59375 -1.421875 25.265625 0.953125 
Q 20.953125 3.328125 18.109375 8.203125 
L 18.109375 0 
L 9.078125 0 
L 9.078125 75.984375 
L 18.109375 75.984375 
z
" id="DejaVuSans-98"/>
     <path d="M 9.421875 54.6875 
L 18.40625 54.6875 
L 18.40625 -0.984375 
Q 18.40625 -11.421875 14.421875 -16.109375 
Q 10.453125 -20.796875 1.609375 -20.796875 
L -1.8125 -20.796875 
L -1.8125 -13.1875 
L 0.59375 -13.1875 
Q 5.71875 -13.1875 7.5625 -10.8125 
Q 9.421875 -8.453125 9.421875 -0.984375 
z
M 9.421875 75.984375 
L 18.40625 75.984375 
L 18.40625 64.59375 
L 9.421875 64.59375 
z
" id="DejaVuSans-106"/>
     <path d="M 56.203125 29.59375 
L 56.203125 25.203125 
L 14.890625 25.203125 
Q 15.484375 15.921875 20.484375 11.0625 
Q 25.484375 6.203125 34.421875 6.203125 
Q 39.59375 6.203125 44.453125 7.46875 
Q 49.3125 8.734375 54.109375 11.28125 
L 54.109375 2.78125 
Q 49.265625 0.734375 44.1875 -0.34375 
Q 39.109375 -1.421875 33.890625 -1.421875 
Q 20.796875 -1.421875 13.15625 6.1875 
Q 5.515625 13.8125 5.515625 26.8125 
Q 5.515625 40.234375 12.765625 48.109375 
Q 20.015625 56 32.328125 56 
Q 43.359375 56 49.78125 48.890625 
Q 56.203125 41.796875 56.203125 29.59375 
z
M 47.21875 32.234375 
Q 47.125 39.59375 43.09375 43.984375 
Q 39.0625 48.390625 32.421875 48.390625 
Q 24.90625 48.390625 20.390625 44.140625 
Q 15.875 39.890625 15.1875 32.171875 
z
" id="DejaVuSans-101"/>
     <path d="M 48.78125 52.59375 
L 48.78125 44.1875 
Q 44.96875 46.296875 41.140625 47.34375 
Q 37.3125 48.390625 33.40625 48.390625 
Q 24.65625 48.390625 19.8125 42.84375 
Q 14.984375 37.3125 14.984375 27.296875 
Q 14.984375 17.28125 19.8125 11.734375 
Q 24.65625 6.203125 33.40625 6.203125 
Q 37.3125 6.203125 41.140625 7.25 
Q 44.96875 8.296875 48.78125 10.40625 
L 48.78125 2.09375 
Q 45.015625 0.34375 40.984375 -0.53125 
Q 36.96875 -1.421875 32.421875 -1.421875 
Q 20.0625 -1.421875 12.78125 6.34375 
Q 5.515625 14.109375 5.515625 27.296875 
Q 5.515625 40.671875 12.859375 48.328125 
Q 20.21875 56 33.015625 56 
Q 37.15625 56 41.109375 55.140625 
Q 45.0625 54.296875 48.78125 52.59375 
z
" id="DejaVuSans-99"/>
     <path d="M 18.3125 70.21875 
L 18.3125 54.6875 
L 36.8125 54.6875 
L 36.8125 47.703125 
L 18.3125 47.703125 
L 18.3125 18.015625 
Q 18.3125 11.328125 20.140625 9.421875 
Q 21.96875 7.515625 27.59375 7.515625 
L 36.8125 7.515625 
L 36.8125 0 
L 27.59375 0 
Q 17.1875 0 13.234375 3.875 
Q 9.28125 7.765625 9.28125 18.015625 
L 9.28125 47.703125 
L 2.6875 47.703125 
L 2.6875 54.6875 
L 9.28125 54.6875 
L 9.28125 70.21875 
z
" id="DejaVuSans-116"/>
     <path d="M 11.71875 12.40625 
L 22.015625 12.40625 
L 22.015625 0 
L 11.71875 0 
z
M 11.71875 51.703125 
L 22.015625 51.703125 
L 22.015625 39.3125 
L 11.71875 39.3125 
z
" id="DejaVuSans-58"/>
     <path d="M 44.28125 53.078125 
L 44.28125 44.578125 
Q 40.484375 46.53125 36.375 47.5 
Q 32.28125 48.484375 27.875 48.484375 
Q 21.1875 48.484375 17.84375 46.4375 
Q 14.5 44.390625 14.5 40.28125 
Q 14.5 37.15625 16.890625 35.375 
Q 19.28125 33.59375 26.515625 31.984375 
L 29.59375 31.296875 
Q 39.15625 29.25 43.1875 25.515625 
Q 47.21875 21.78125 47.21875 15.09375 
Q 47.21875 7.46875 41.1875 3.015625 
Q 35.15625 -1.421875 24.609375 -1.421875 
Q 20.21875 -1.421875 15.453125 -0.5625 
Q 10.6875 0.296875 5.421875 2 
L 5.421875 11.28125 
Q 10.40625 8.6875 15.234375 7.390625 
Q 20.0625 6.109375 24.8125 6.109375 
Q 31.15625 6.109375 34.5625 8.28125 
Q 37.984375 10.453125 37.984375 14.40625 
Q 37.984375 18.0625 35.515625 20.015625 
Q 33.0625 21.96875 24.703125 23.78125 
L 21.578125 24.515625 
Q 13.234375 26.265625 9.515625 29.90625 
Q 5.8125 33.546875 5.8125 39.890625 
Q 5.8125 47.609375 11.28125 51.796875 
Q 16.75 56 26.8125 56 
Q 31.78125 56 36.171875 55.265625 
Q 40.578125 54.546875 44.28125 53.078125 
z
" id="DejaVuSans-115"/>
     <path d="M 8.203125 72.90625 
L 55.078125 72.90625 
L 55.078125 68.703125 
L 28.609375 0 
L 18.3125 0 
L 43.21875 64.59375 
L 8.203125 64.59375 
z
" id="DejaVuSans-55"/>
     <path d="M 11.71875 12.40625 
L 22.015625 12.40625 
L 22.015625 4 
L 14.015625 -11.625 
L 7.71875 -11.625 
L 11.71875 4 
z
" id="DejaVuSans-44"/>
     <path d="M 9.8125 72.90625 
L 19.671875 72.90625 
L 19.671875 42.09375 
L 52.390625 72.90625 
L 65.09375 72.90625 
L 28.90625 38.921875 
L 67.671875 0 
L 54.6875 0 
L 19.671875 35.109375 
L 19.671875 0 
L 9.8125 0 
z
" id="DejaVuSans-75"/>
     <path d="M 54.890625 33.015625 
L 54.890625 0 
L 45.90625 0 
L 45.90625 32.71875 
Q 45.90625 40.484375 42.875 44.328125 
Q 39.84375 48.1875 33.796875 48.1875 
Q 26.515625 48.1875 22.3125 43.546875 
Q 18.109375 38.921875 18.109375 30.90625 
L 18.109375 0 
L 9.078125 0 
L 9.078125 54.6875 
L 18.109375 54.6875 
L 18.109375 46.1875 
Q 21.34375 51.125 25.703125 53.5625 
Q 30.078125 56 35.796875 56 
Q 45.21875 56 50.046875 50.171875 
Q 54.890625 44.34375 54.890625 33.015625 
z
" id="DejaVuSans-110"/>
     <path d="M 30.609375 48.390625 
Q 23.390625 48.390625 19.1875 42.75 
Q 14.984375 37.109375 14.984375 27.296875 
Q 14.984375 17.484375 19.15625 11.84375 
Q 23.34375 6.203125 30.609375 6.203125 
Q 37.796875 6.203125 41.984375 11.859375 
Q 46.1875 17.53125 46.1875 27.296875 
Q 46.1875 37.015625 41.984375 42.703125 
Q 37.796875 48.390625 30.609375 48.390625 
z
M 30.609375 56 
Q 42.328125 56 49.015625 48.375 
Q 55.71875 40.765625 55.71875 27.296875 
Q 55.71875 13.875 49.015625 6.21875 
Q 42.328125 -1.421875 30.609375 -1.421875 
Q 18.84375 -1.421875 12.171875 6.21875 
Q 5.515625 13.875 5.515625 27.296875 
Q 5.515625 40.765625 12.171875 48.375 
Q 18.84375 56 30.609375 56 
z
" id="DejaVuSans-111"/>
     <path d="M 4.203125 54.6875 
L 13.1875 54.6875 
L 24.421875 12.015625 
L 35.59375 54.6875 
L 46.1875 54.6875 
L 57.421875 12.015625 
L 68.609375 54.6875 
L 77.59375 54.6875 
L 63.28125 0 
L 52.6875 0 
L 40.921875 44.828125 
L 29.109375 0 
L 18.5 0 
z
" id="DejaVuSans-119"/>
     <path d="M 10.59375 45.40625 
L 73.1875 45.40625 
L 73.1875 37.203125 
L 10.59375 37.203125 
z
M 10.59375 25.484375 
L 73.1875 25.484375 
L 73.1875 17.1875 
L 10.59375 17.1875 
z
" id="DejaVuSans-61"/>
     <path d="M 9.8125 72.90625 
L 51.703125 72.90625 
L 51.703125 64.59375 
L 19.671875 64.59375 
L 19.671875 43.109375 
L 48.578125 43.109375 
L 48.578125 34.8125 
L 19.671875 34.8125 
L 19.671875 0 
L 9.8125 0 
z
" id="DejaVuSans-70"/>
     <path d="M 34.28125 27.484375 
Q 23.390625 27.484375 19.1875 25 
Q 14.984375 22.515625 14.984375 16.5 
Q 14.984375 11.71875 18.140625 8.90625 
Q 21.296875 6.109375 26.703125 6.109375 
Q 34.1875 6.109375 38.703125 11.40625 
Q 43.21875 16.703125 43.21875 25.484375 
L 43.21875 27.484375 
z
M 52.203125 31.203125 
L 52.203125 0 
L 43.21875 0 
L 43.21875 8.296875 
Q 40.140625 3.328125 35.546875 0.953125 
Q 30.953125 -1.421875 24.3125 -1.421875 
Q 15.921875 -1.421875 10.953125 3.296875 
Q 6 8.015625 6 15.921875 
Q 6 25.140625 12.171875 29.828125 
Q 18.359375 34.515625 30.609375 34.515625 
L 43.21875 34.515625 
L 43.21875 35.40625 
Q 43.21875 41.609375 39.140625 45 
Q 35.0625 48.390625 27.6875 48.390625 
Q 23 48.390625 18.546875 47.265625 
Q 14.109375 46.140625 10.015625 43.890625 
L 10.015625 52.203125 
Q 14.9375 54.109375 19.578125 55.046875 
Q 24.21875 56 28.609375 56 
Q 40.484375 56 46.34375 49.84375 
Q 52.203125 43.703125 52.203125 31.203125 
z
" id="DejaVuSans-97"/>
     <path d="M 9.421875 75.984375 
L 18.40625 75.984375 
L 18.40625 0 
L 9.421875 0 
z
" id="DejaVuSans-108"/>
     <path d="M 19.671875 64.796875 
L 19.671875 8.109375 
L 31.59375 8.109375 
Q 46.6875 8.109375 53.6875 14.9375 
Q 60.6875 21.78125 60.6875 36.53125 
Q 60.6875 51.171875 53.6875 57.984375 
Q 46.6875 64.796875 31.59375 64.796875 
z
M 9.8125 72.90625 
L 30.078125 72.90625 
Q 51.265625 72.90625 61.171875 64.09375 
Q 71.09375 55.28125 71.09375 36.53125 
Q 71.09375 17.671875 61.125 8.828125 
Q 51.171875 0 30.078125 0 
L 9.8125 0 
z
" id="DejaVuSans-68"/>
     <path d="M 45.40625 27.984375 
Q 45.40625 37.75 41.375 43.109375 
Q 37.359375 48.484375 30.078125 48.484375 
Q 22.859375 48.484375 18.828125 43.109375 
Q 14.796875 37.75 14.796875 27.984375 
Q 14.796875 18.265625 18.828125 12.890625 
Q 22.859375 7.515625 30.078125 7.515625 
Q 37.359375 7.515625 41.375 12.890625 
Q 45.40625 18.265625 45.40625 27.984375 
z
M 54.390625 6.78125 
Q 54.390625 -7.171875 48.1875 -13.984375 
Q 42 -20.796875 29.203125 -20.796875 
Q 24.46875 -20.796875 20.265625 -20.09375 
Q 16.0625 -19.390625 12.109375 -17.921875 
L 12.109375 -9.1875 
Q 16.0625 -11.328125 19.921875 -12.34375 
Q 23.78125 -13.375 27.78125 -13.375 
Q 36.625 -13.375 41.015625 -8.765625 
Q 45.40625 -4.15625 45.40625 5.171875 
L 45.40625 9.625 
Q 42.625 4.78125 38.28125 2.390625 
Q 33.9375 0 27.875 0 
Q 17.828125 0 11.671875 7.65625 
Q 5.515625 15.328125 5.515625 27.984375 
Q 5.515625 40.671875 11.671875 48.328125 
Q 17.828125 56 27.875 56 
Q 33.9375 56 38.28125 53.609375 
Q 42.625 51.21875 45.40625 46.390625 
L 45.40625 54.6875 
L 54.390625 54.6875 
z
" id="DejaVuSans-103"/>
     <path d="M 41.109375 46.296875 
Q 39.59375 47.171875 37.8125 47.578125 
Q 36.03125 48 33.890625 48 
Q 26.265625 48 22.1875 43.046875 
Q 18.109375 38.09375 18.109375 28.8125 
L 18.109375 0 
L 9.078125 0 
L 9.078125 54.6875 
L 18.109375 54.6875 
L 18.109375 46.1875 
Q 20.953125 51.171875 25.484375 53.578125 
Q 30.03125 56 36.53125 56 
Q 37.453125 56 38.578125 55.875 
Q 39.703125 55.765625 41.0625 55.515625 
z
" id="DejaVuSans-114"/>
     <path d="M 9.421875 54.6875 
L 18.40625 54.6875 
L 18.40625 0 
L 9.421875 0 
z
M 9.421875 75.984375 
L 18.40625 75.984375 
L 18.40625 64.59375 
L 9.421875 64.59375 
z
" id="DejaVuSans-105"/>
     <path d="M 10.6875 12.40625 
L 21 12.40625 
L 21 0 
L 10.6875 0 
z
" id="DejaVuSans-46"/>
    </defs>
    <g transform="translate(49.741875 35.472)scale(0.12 -0.12)">
     <use xlink:href="#DejaVuSans-40"/>
     <use x="39.013672" xlink:href="#DejaVuSans-54"/>
     <use x="102.636719" xlink:href="#DejaVuSans-50"/>
     <use x="166.259766" xlink:href="#DejaVuSans-41"/>
     <use x="205.273438" xlink:href="#DejaVuSans-32"/>
     <use x="237.060547" xlink:href="#DejaVuSans-83"/>
     <use x="300.537109" xlink:href="#DejaVuSans-117"/>
     <use x="363.916016" xlink:href="#DejaVuSans-98"/>
     <use x="427.392578" xlink:href="#DejaVuSans-106"/>
     <use x="455.175781" xlink:href="#DejaVuSans-101"/>
     <use x="516.699219" xlink:href="#DejaVuSans-99"/>
     <use x="571.679688" xlink:href="#DejaVuSans-116"/>
     <use x="610.888672" xlink:href="#DejaVuSans-58"/>
     <use x="644.580078" xlink:href="#DejaVuSans-32"/>
     <use x="676.367188" xlink:href="#DejaVuSans-115"/>
     <use x="728.466797" xlink:href="#DejaVuSans-49"/>
     <use x="792.089844" xlink:href="#DejaVuSans-55"/>
     <use x="855.712891" xlink:href="#DejaVuSans-44"/>
     <use x="887.5" xlink:href="#DejaVuSans-32"/>
     <use x="919.287109" xlink:href="#DejaVuSans-75"/>
     <use x="984.863281" xlink:href="#DejaVuSans-110"/>
     <use x="1048.242188" xlink:href="#DejaVuSans-111"/>
     <use x="1109.423828" xlink:href="#DejaVuSans-119"/>
     <use x="1191.210938" xlink:href="#DejaVuSans-110"/>
     <use x="1254.589844" xlink:href="#DejaVuSans-32"/>
     <use x="1286.376953" xlink:href="#DejaVuSans-61"/>
     <use x="1370.166016" xlink:href="#DejaVuSans-32"/>
     <use x="1401.953125" xlink:href="#DejaVuSans-70"/>
     <use x="1459.332031" xlink:href="#DejaVuSans-97"/>
     <use x="1520.611328" xlink:href="#DejaVuSans-108"/>
     <use x="1548.394531" xlink:href="#DejaVuSans-115"/>
     <use x="1600.494141" xlink:href="#DejaVuSans-101"/>
     <use x="1662.017578" xlink:href="#DejaVuSans-44"/>
     <use x="1693.804688" xlink:href="#DejaVuSans-32"/>
     <use x="1725.591797" xlink:href="#DejaVuSans-68"/>
     <use x="1802.59375" xlink:href="#DejaVuSans-101"/>
     <use x="1864.117188" xlink:href="#DejaVuSans-103"/>
     <use x="1927.59375" xlink:href="#DejaVuSans-114"/>
     <use x="1968.675781" xlink:href="#DejaVuSans-101"/>
     <use x="2030.199219" xlink:href="#DejaVuSans-101"/>
     <use x="2091.722656" xlink:href="#DejaVuSans-32"/>
     <use x="2123.509766" xlink:href="#DejaVuSans-61"/>
     <use x="2207.298828" xlink:href="#DejaVuSans-32"/>
     <use x="2239.085938" xlink:href="#DejaVuSans-50"/>
     <use x="2302.708984" xlink:href="#DejaVuSans-44"/>
     <use x="2334.496094" xlink:href="#DejaVuSans-32"/>
     <use x="2366.283203" xlink:href="#DejaVuSans-68"/>
     <use x="2443.285156" xlink:href="#DejaVuSans-117"/>
     <use x="2506.664062" xlink:href="#DejaVuSans-114"/>
     <use x="2547.777344" xlink:href="#DejaVuSans-97"/>
     <use x="2609.056641" xlink:href="#DejaVuSans-116"/>
     <use x="2648.265625" xlink:href="#DejaVuSans-105"/>
     <use x="2676.048828" xlink:href="#DejaVuSans-111"/>
     <use x="2737.230469" xlink:href="#DejaVuSans-110"/>
     <use x="2800.609375" xlink:href="#DejaVuSans-32"/>
     <use x="2832.396484" xlink:href="#DejaVuSans-61"/>
     <use x="2916.185547" xlink:href="#DejaVuSans-32"/>
     <use x="2947.972656" xlink:href="#DejaVuSans-48"/>
     <use x="3011.595703" xlink:href="#DejaVuSans-46"/>
     <use x="3043.382812" xlink:href="#DejaVuSans-49"/>
    </g>
   </g>
  </g>
 </g>
 <defs>
  <clipPath id="p6694a55334">
   <rect height="266.112" width="357.12" x="57.6" y="41.472"/>
  </clipPath>
 </defs>
</svg>
