<?xml version="1.0" encoding="utf-8" standalone="no"?>
<!DOCTYPE svg PUBLIC "-//W3C//DTD SVG 1.1//EN"
  "http://www.w3.org/Graphics/SVG/1.1/DTD/svg11.dtd">
<!-- Created with matplotlib (https://matplotlib.org/) -->
<svg height="345.6pt" version="1.1" viewBox="0 0 460.8 345.6" width="460.8pt" xmlns="http://www.w3.org/2000/svg" xmlns:xlink="http://www.w3.org/1999/xlink">
 <defs>
  <style type="text/css">
*{stroke-linecap:butt;stroke-linejoin:round;}
  </style>
 </defs>
 <g id="figure_1">
  <g id="patch_1">
   <path d="M 0 345.6 
L 460.8 345.6 
L 460.8 0 
L 0 0 
z
" style="fill:#ffffff;"/>
  </g>
  <g id="axes_1">
   <g id="patch_2">
    <path d="M 57.6 307.584 
L 414.72 307.584 
L 414.72 41.472 
L 57.6 41.472 
z
" style="fill:#ffffff;"/>
   </g>
   <g id="line2d_1">
    <path clip-path="url(#pd6878f3e41)" d="M 398.315942 293.653695 
L 398.230276 294.466702 
L 398.147565 294.876565 
L 398.061899 294.26513 
L 397.976234 292.632397 
L 397.807857 293.243832 
L 397.976234 293.653695 
L 398.061899 293.448763 
L 398.061899 293.04226 
L 398.147565 293.04226 
L 398.315942 293.653695 
L 398.230276 293.448763 
L 397.976234 293.04226 
L 398.061899 293.04226 
L 398.230276 292.837328 
L 397.976234 293.243832 
L 398.230276 293.243832 
L 398.315942 293.04226 
L 398.061899 292.632397 
L 398.061899 293.855267 
L 398.230276 294.26513 
L 398.401607 294.26513 
L 398.315942 293.653695 
L 398.401607 293.653695 
L 398.487273 293.855267 
L 398.401607 294.466702 
L 398.230276 294.671633 
L 398.147565 293.855267 
L 398.315942 293.448763 
L 398.230276 293.448763 
L 398.147565 293.448763 
L 398.061899 293.855267 
L 398.230276 293.855267 
L 398.487273 293.448763 
L 398.230276 293.04226 
L 398.061899 292.837328 
L 398.147565 292.837328 
L 398.147565 293.855267 
L 398.401607 293.855267 
L 398.487273 293.653695 
L 398.401607 293.243832 
L 398.061899 293.04226 
L 398.315942 294.671633 
L 398.230276 295.078137 
L 397.976234 294.26513 
L 397.807857 294.26513 
L 397.722191 294.466702 
L 397.807857 294.671633 
L 397.807857 293.855267 
L 397.55086 293.653695 
L 397.55086 294.876565 
L 397.382483 295.078137 
L 397.55086 294.876565 
L 397.722191 294.060198 
L 397.807857 294.26513 
L 397.55086 294.466702 
L 397.296818 294.466702 
L 397.296818 294.060198 
L 397.296818 294.26513 
L 397.468149 294.671633 
L 397.468149 294.466702 
L 397.382483 294.060198 
L 397.468149 293.653695 
L 397.468149 293.448763 
L 397.55086 293.448763 
L 397.636526 293.653695 
L 397.55086 293.653695 
L 397.296818 294.060198 
L 397.382483 294.671633 
L 397.468149 294.671633 
L 397.468149 293.855267 
L 397.55086 294.060198 
L 397.722191 293.653695 
L 397.636526 294.060198 
L 397.636526 294.466702 
L 397.636526 294.466702 
L 397.211152 294.466702 
L 397.211152 294.466702 
L 397.636526 293.653695 
L 397.807857 294.671633 
L 398.061899 294.671633 
L 398.147565 294.876565 
L 397.976234 294.876565 
L 397.55086 295.283068 
L 397.55086 295.488 
L 397.636526 294.466702 
L 397.722191 294.466702 
L 397.722191 294.466702 
L 397.55086 293.448763 
L 397.636526 293.653695 
L 397.636526 294.060198 
L 397.468149 294.26513 
L 397.636526 294.466702 
L 397.722191 293.448763 
L 397.722191 294.26513 
L 397.807857 294.26513 
L 397.807857 293.855267 
L 397.55086 294.060198 
L 397.722191 293.855267 
L 397.636526 292.430825 
L 397.468149 292.020962 
L 397.296818 292.225893 
L 397.296818 292.430825 
L 397.636526 293.04226 
L 397.636526 292.837328 
L 397.468149 293.04226 
L 397.468149 293.04226 
L 397.55086 293.243832 
L 397.55086 292.020962 
L 397.55086 292.430825 
L 397.211152 292.837328 
L 397.55086 292.837328 
L 397.55086 293.855267 
L 397.722191 293.855267 
L 397.807857 293.653695 
L 397.807857 292.837328 
L 397.890568 293.448763 
L 397.976234 293.653695 
L 397.890568 293.855267 
L 397.636526 292.837328 
L 397.382483 292.837328 
L 397.042775 292.632397 
L 396.44607 292.632397 
L 395.512612 292.430825 
L 394.239445 292.020962 
L 390.162949 290.186656 
L 384.556289 286.316474 
L 377.333801 280.813558 
L 372.663554 277.551451 
L 367.056894 274.087772 
L 360.942149 269.602795 
L 354.656073 263.693376 
L 341.064798 249.018934 
L 334.099306 241.476782 
L 327.559187 233.733057 
L 321.358777 226.190905 
L 315.072701 218.853684 
L 308.872291 212.332829 
L 302.925923 206.42341 
L 296.979556 200.309059 
L 290.947522 194.601212 
L 285.001155 189.303228 
L 279.054787 183.595381 
L 273.111373 177.48103 
L 267.419048 171.978114 
L 261.983719 166.475198 
L 251.535481 155.267795 
L 246.26853 149.764879 
L 236.245666 139.776987 
L 231.232756 135.090437 
L 216.793688 123.066667 
L 209.656865 116.340882 
L 206.685158 112.873843 
L 200.73879 104.313752 
L 199.634 101.868012 
L 198.614876 98.199401 
L 198.529211 97.386394 
L 198.700542 96.163524 
L 199.04025 94.735722 
L 199.634 93.512852 
L 200.313417 92.696485 
L 201.164164 91.883478 
L 201.929245 91.473615 
L 202.43733 91.678547 
L 202.862704 92.494913 
L 203.202412 93.717784 
L 203.288077 94.735722 
L 202.608661 96.365096 
L 202.351665 96.570027 
L 202.011957 96.570027 
L 201.757914 96.365096 
L 201.332541 96.570027 
L 200.313417 97.792898 
L 199.888043 97.997829 
L 199.719666 97.997829 
L 199.548335 97.181463 
L 199.294292 97.181463 
L 199.379958 96.365096 
L 199.465623 95.347157 
L 199.548335 94.530791 
L 199.634 94.530791 
L 199.805331 95.347157 
L 200.14504 93.717784 
L 199.973708 93.307921 
L 199.719666 93.717784 
L 199.805331 93.919356 
L 200.059374 93.717784 
L 200.059374 93.512852 
L 199.973708 93.717784 
L 199.719666 94.329219 
L 199.805331 94.530791 
L 199.973708 94.329219 
L 199.719666 93.106349 
L 199.294292 93.307921 
L 199.294292 93.307921 
L 198.868919 93.106349 
L 198.954584 93.717784 
L 199.294292 93.919356 
L 199.805331 93.919356 
L 199.294292 93.512852 
L 199.294292 93.512852 
L 198.954584 94.124287 
L 199.208627 93.512852 
L 199.125915 93.106349 
L 199.125915 93.106349 
L 199.04025 93.307921 
L 199.125915 94.329219 
L 199.379958 93.717784 
L 199.379958 93.106349 
L 199.208627 93.106349 
L 198.954584 93.307921 
L 198.868919 92.901417 
L 199.04025 93.106349 
L 199.04025 93.106349 
L 199.04025 92.494913 
L 199.125915 92.696485 
L 199.294292 93.307921 
L 199.125915 93.919356 
L 198.786207 93.919356 
L 198.614876 93.512852 
L 198.868919 93.307921 
L 199.294292 93.307921 
L 199.294292 93.512852 
L 198.954584 94.124287 
L 198.954584 93.919356 
L 198.868919 92.494913 
L 198.700542 92.696485 
L 198.529211 93.307921 
L 198.446499 93.307921 
L 198.954584 93.307921 
L 199.294292 93.919356 
L 199.208627 93.512852 
L 199.208627 93.512852 
L 199.04025 93.512852 
L 199.294292 92.289982 
L 199.379958 92.08505 
L 199.125915 91.678547 
L 199.125915 91.473615 
L 199.294292 91.473615 
L 199.379958 91.883478 
L 199.208627 92.494913 
L 198.954584 92.696485 
L 198.529211 92.289982 
L 197.849795 92.08505 
L 197.002002 92.08505 
L 195.811546 91.883478 
L 194.284337 91.473615 
L 189.950844 89.232807 
L 186.979137 88.009936 
L 183.496391 86.991998 
L 179.756649 85.769128 
L 175.934195 84.747829 
L 171.857698 84.341326 
L 167.441494 83.729891 
L 163.108001 83.524959 
L 158.863127 83.729891 
L 154.443969 83.524959 
L 150.196141 83.118456 
L 146.033979 83.323387 
L 141.957483 84.136394 
L 138.049363 84.747829 
L 134.144198 85.157693 
L 126.582001 85.564196 
L 119.022759 85.157693 
L 108.914229 85.769128 
L 102.374111 84.952761 
L 99.062696 84.341326 
L 96.088035 83.934822 
L 93.370371 83.323387 
L 90.821083 82.913524 
L 88.27475 82.913524 
L 83.347506 82.507021 
L 81.137927 82.507021 
L 79.353721 82.100517 
L 75.191559 79.856349 
L 73.832727 79.244914 
L 73.832727 78.83841 
L 74.089724 78.431907 
L 74.512143 78.226975 
L 75.191559 78.022044 
L 75.788264 77.61554 
L 76.382015 77.61554 
L 76.807388 77.820472 
L 77.147096 78.431907 
L 77.401139 78.633479 
L 77.655181 78.431907 
L 77.912178 78.431907 
L 77.994889 78.226975 
L 78.080555 78.431907 
L 77.826512 79.043342 
L 77.740847 79.856349 
L 77.061431 82.100517 
L 76.807388 82.302089 
L 76.550392 81.895586 
L 76.210684 82.302089 
L 76.210684 82.507021 
L 76.296349 82.302089 
L 76.46768 81.690654 
L 76.636057 81.690654 
L 76.636057 81.690654 
L 76.46768 81.489082 
L 76.382015 81.079219 
L 76.636057 81.284151 
L 76.893054 81.895586 
L 77.147096 82.100517 
L 76.975765 81.284151 
L 76.975765 81.690654 
L 77.061431 82.711952 
L 76.893054 81.489082 
L 76.807388 81.284151 
L 76.975765 81.895586 
L 77.232762 82.913524 
L 77.147096 82.100517 
L 76.975765 81.489082 
L 77.061431 81.690654 
L 76.975765 82.711952 
L 76.636057 82.711952 
L 76.636057 83.934822 
L 76.721723 83.729891 
L 76.807388 83.729891 
L 76.721723 83.323387 
L 76.807388 83.524959 
L 76.893054 83.524959 
L 76.636057 83.323387 
L 76.807388 83.524959 
L 76.807388 83.729891 
L 76.636057 83.934822 
L 76.636057 83.934822 
L 76.721723 83.524959 
L 76.721723 82.302089 
L 76.721723 83.934822 
L 76.721723 83.524959 
L 76.893054 83.934822 
L 77.315473 84.136394 
L 77.147096 83.934822 
L 76.721723 83.729891 
L 77.232762 83.934822 
L 77.401139 83.729891 
L 77.401139 83.524959 
L 77.147096 83.524959 
L 76.807388 83.934822 
L 76.893054 83.934822 
L 77.147096 83.118456 
L 77.061431 83.729891 
L 77.061431 84.136394 
L 76.807388 84.546257 
L 76.807388 84.341326 
L 76.721723 83.524959 
L 76.893054 83.524959 
L 77.232762 83.524959 
L 76.893054 82.711952 
L 77.147096 82.711952 
L 76.975765 83.118456 
L 77.061431 83.118456 
L 77.147096 83.118456 
L 77.147096 82.913524 
L 77.061431 82.913524 
L 76.975765 83.323387 
L 77.147096 83.323387 
L 77.315473 83.934822 
L 77.232762 83.934822 
L 77.315473 83.524959 
L 77.147096 83.118456 
L 77.232762 84.136394 
L 77.401139 84.341326 
L 77.401139 84.341326 
L 77.655181 83.729891 
L 77.486804 83.323387 
L 77.57247 83.323387 
L 77.655181 83.118456 
L 77.57247 83.524959 
L 77.655181 83.524959 
L 77.740847 83.323387 
L 77.655181 83.323387 
L 77.57247 83.118456 
L 77.57247 83.118456 
L 77.486804 83.323387 
L 77.57247 83.323387 
L 77.740847 83.323387 
L 77.826512 82.913524 
L 77.740847 82.711952 
L 77.826512 82.711952 
L 77.912178 82.711952 
L 77.994889 82.913524 
L 77.826512 83.323387 
L 77.655181 83.118456 
L 77.655181 83.323387 
L 77.912178 83.729891 
L 77.912178 83.934822 
L 77.740847 83.934822 
L 77.740847 82.507021 
L 78.334597 81.690654 
L 78.420263 81.489082 
L 78.251886 81.690654 
L 77.655181 81.690654 
L 77.655181 81.079219 
L 77.826512 81.079219 
L 78.080555 81.284151 
L 78.591594 81.284151 
L 79.439387 81.079219 
L 80.715508 80.266212 
L 82.242717 79.449845 
L 84.366631 78.83841 
L 87.338337 78.633479 
L 90.738372 78.633479 
L 94.643537 78.022044 
L 98.891365 77.209037 
L 103.647277 76.597601 
L 108.914229 76.187738 
L 126.073916 75.576303 
L 132.274327 75.781235 
L 138.474737 76.597601 
L 150.621515 79.449845 
L 156.567883 80.266212 
L 162.51425 80.877647 
L 173.981612 81.690654 
L 179.502606 82.913524 
L 194.963753 88.214868 
L 199.888043 89.437738 
L 204.389913 90.250745 
L 208.637741 91.473615 
L 217.301773 95.142226 
L 225.372054 97.181463 
L 228.8548 98.404333 
L 232.083503 99.220699 
L 234.801168 100.033706 
L 237.093459 101.461508 
L 239.048995 102.88931 
L 242.020702 104.313752 
L 242.785784 105.130119 
L 243.039826 105.946485 
L 242.785784 106.352989 
L 240.830247 105.536622 
L 239.896788 104.925187 
L 237.85854 104.11218 
L 237.010747 103.907248 
L 235.820292 103.295813 
L 234.969545 103.295813 
L 234.801168 102.88931 
L 235.05521 102.479447 
L 236.074334 104.723615 
L 236.414043 105.33505 
L 236.585374 105.33505 
L 236.668085 104.925187 
L 236.925082 104.723615 
L 237.093459 105.536622 
L 236.925082 106.148057 
L 237.010747 106.964424 
L 236.753751 106.759492 
L 236.753751 106.148057 
L 237.010747 105.946485 
L 236.839416 106.148057 
L 236.585374 106.55792 
L 236.414043 107.169355 
L 236.074334 107.78079 
L 235.820292 107.78079 
L 235.734626 107.575859 
L 235.820292 107.370927 
L 235.648961 107.169355 
L 235.905957 107.78079 
L 235.905957 108.392226 
L 235.988669 108.392226 
L 236.16 107.982362 
L 236.414043 107.78079 
L 236.585374 107.982362 
L 236.499708 109.003661 
L 236.328377 109.205233 
L 236.245666 109.615096 
L 236.414043 109.816668 
L 236.668085 109.615096 
L 236.668085 109.615096 
L 236.499708 109.205233 
L 236.499708 110.226531 
L 236.585374 109.816668 
L 236.668085 109.816668 
L 236.668085 110.633034 
L 236.753751 110.633034 
L 236.839416 110.837966 
L 236.839416 111.244469 
L 236.925082 111.244469 
L 237.010747 110.837966 
L 237.010747 111.244469 
L 237.010747 112.060836 
L 237.26479 113.078775 
L 237.179124 112.672271 
L 237.350455 112.262408 
L 237.010747 113.283706 
L 236.839416 113.283706 
L 236.925082 113.078775 
L 237.26479 111.039538 
L 237.518832 111.244469 
L 237.690163 111.650973 
L 237.179124 112.672271 
L 237.093459 112.672271 
L 237.093459 112.262408 
L 237.433167 111.855904 
L 237.179124 111.855904 
L 237.26479 112.060836 
L 237.85854 112.060836 
L 237.772875 112.262408 
L 237.604498 112.262408 
L 237.518832 112.060836 
L 237.518832 111.650973 
L 237.350455 111.449401 
L 237.26479 111.650973 
L 237.433167 111.650973 
L 237.604498 111.449401 
L 237.518832 111.650973 
L 237.604498 113.283706 
L 237.433167 113.078775 
L 237.350455 112.262408 
L 237.433167 111.855904 
L 237.26479 112.672271 
L 237.350455 112.672271 
L 237.433167 112.46734 
L 237.690163 112.262408 
L 237.690163 112.46734 
L 237.26479 112.672271 
L 237.26479 112.46734 
L 237.26479 113.283706 
L 237.350455 112.672271 
L 237.518832 112.262408 
L 237.690163 112.46734 
L 237.85854 112.262408 
L 237.772875 111.855904 
L 237.604498 111.855904 
L 237.518832 112.262408 
L 237.690163 112.262408 
L 237.944206 111.855904 
L 237.85854 111.855904 
L 237.85854 112.262408 
L 237.944206 112.262408 
L 238.198248 111.855904 
L 238.112583 111.650973 
L 237.944206 111.855904 
L 237.944206 111.855904 
L 237.85854 111.855904 
L 237.944206 112.873843 
L 238.029871 113.485278 
L 237.944206 112.672271 
L 237.772875 112.46734 
L 237.690163 112.672271 
L 237.772875 112.873843 
L 238.283914 112.46734 
L 238.369579 112.060836 
L 238.283914 111.650973 
L 238.112583 111.650973 
L 238.112583 111.650973 
L 238.369579 110.837966 
L 238.369579 110.633034 
L 238.452291 112.060836 
L 238.369579 111.650973 
L 238.537956 111.449401 
L 238.283914 111.855904 
L 238.369579 111.650973 
L 238.369579 111.449401 
L 238.283914 112.262408 
L 238.198248 112.262408 
L 238.112583 111.244469 
L 238.198248 111.244469 
L 238.198248 111.650973 
L 238.283914 111.650973 
L 238.369579 111.449401 
L 238.623622 111.244469 
L 238.877664 111.449401 
L 238.283914 110.837966 
L 238.452291 110.837966 
L 238.537956 111.244469 
L 238.452291 111.039538 
L 238.112583 111.039538 
L 238.029871 111.650973 
L 238.283914 112.060836 
L 239.388703 111.650973 
L 240.322162 111.855904 
L 241.595329 112.262408 
L 243.039826 112.46734 
L 246.182864 112.46734 
L 247.627362 112.873843 
L 248.986194 113.485278 
L 252.383275 116.13595 
L 254.081815 117.153889 
L 255.697643 117.563752 
L 256.97081 118.175187 
L 258.755016 120.009492 
L 259.434432 120.415996 
L 259.859805 121.433934 
L 260.624887 124.897613 
L 260.624887 124.696041 
L 260.624887 123.473171 
L 260.539222 124.289538 
L 260.282225 124.084606 
L 259.859805 124.084606 
L 259.348766 123.473171 
L 259.094724 123.473171 
L 259.094724 123.879674 
L 259.009058 123.268239 
L 258.840681 123.066667 
L 258.923393 122.656804 
L 258.840681 123.678102 
L 259.009058 123.879674 
L 258.923393 123.879674 
L 258.840681 123.879674 
L 258.755016 123.268239 
L 258.66935 123.268239 
L 258.840681 123.678102 
L 258.840681 124.084606 
L 258.66935 124.289538 
L 258.500973 124.289538 
L 258.923393 123.879674 
L 259.009058 124.084606 
L 259.009058 124.49111 
L 258.923393 124.084606 
L 258.840681 123.879674 
L 258.923393 124.084606 
L 259.009058 123.879674 
L 258.923393 123.678102 
L 258.66935 124.289538 
L 258.583685 124.897613 
L 258.755016 125.307476 
L 258.755016 125.307476 
L 258.66935 124.084606 
L 258.755016 124.289538 
L 258.840681 125.102545 
L 258.755016 125.509048 
L 258.415308 125.71398 
L 258.243977 125.509048 
L 258.243977 125.509048 
L 258.329642 125.102545 
L 258.755016 124.696041 
L 258.755016 124.696041 
L 258.66935 125.102545 
L 258.755016 125.307476 
L 258.923393 124.289538 
L 258.583685 125.307476 
L 258.755016 125.509048 
L 259.009058 125.509048 
L 259.180389 125.307476 
L 259.094724 125.509048 
L 258.755016 125.918911 
L 259.094724 125.307476 
L 259.009058 125.307476 
L 258.66935 125.71398 
L 258.500973 126.530346 
L 258.66935 126.530346 
L 258.840681 125.918911 
L 258.840681 126.325415 
L 258.755016 127.141781 
L 258.755016 126.93685 
L 258.923393 127.343353 
L 259.009058 127.141781 
L 258.840681 125.918911 
L 259.009058 126.325415 
L 259.094724 127.954789 
L 258.923393 127.548285 
L 258.66935 126.120483 
L 258.840681 125.918911 
L 259.094724 126.325415 
L 259.263101 127.141781 
L 259.180389 127.548285 
L 259.094724 126.93685 
L 259.263101 126.120483 
L 259.180389 126.120483 
L 259.434432 126.530346 
L 259.263101 126.120483 
L 259.094724 125.71398 
L 259.180389 125.918911 
L 259.263101 126.530346 
L 259.094724 127.141781 
L 259.094724 126.325415 
L 259.180389 126.530346 
L 259.263101 126.93685 
L 259.348766 126.731918 
L 259.348766 126.325415 
L 259.263101 126.731918 
L 259.009058 125.918911 
L 258.923393 125.918911 
L 259.009058 125.918911 
L 258.840681 125.71398 
L 259.009058 125.918911 
L 259.180389 127.141781 
L 259.434432 126.731918 
L 259.263101 126.731918 
L 259.094724 126.93685 
L 258.840681 126.93685 
L 258.583685 126.731918 
L 259.009058 126.93685 
L 259.348766 127.141781 
L 259.263101 127.141781 
L 259.094724 126.731918 
L 258.923393 126.120483 
L 258.840681 127.548285 
L 258.755016 127.753216 
L 258.755016 127.548285 
L 258.66935 126.731918 
L 258.840681 126.731918 
L 258.923393 126.530346 
L 258.66935 125.71398 
L 258.500973 125.918911 
L 258.0756 125.918911 
L 257.224853 125.509048 
L 255.951686 125.102545 
L 254.253146 124.696041 
L 252.043566 123.473171 
L 246.608238 119.193125 
L 243.293869 117.153889 
L 239.55708 115.118011 
L 235.309253 113.283706 
L 230.639006 111.449401 
L 220.784519 108.187294 
L 215.517567 105.946485 
L 210.167904 103.907248 
L 204.815287 102.277875 
L 199.548335 100.850073 
L 172.02903 92.901417 
L 166.847743 91.678547 
L 161.495126 90.049173 
L 156.142509 88.214868 
L 150.875557 85.9707 
L 145.694271 84.136394 
L 140.512985 82.507021 
L 135.417364 80.672715 
L 130.661452 78.226975 
L 126.242293 75.781235 
L 121.740423 73.94693 
L 95.240242 64.163968 
L 90.312998 62.534595 
L 88.443127 61.516656 
L 86.998629 60.293786 
L 85.557086 58.459481 
L 85.385755 57.643114 
L 85.557086 56.625175 
L 85.979505 55.808809 
L 86.57621 55.197374 
L 87.16996 54.79087 
L 90.141667 53.974504 
L 90.567041 53.568 
L 90.821083 53.769572 
L 90.992414 54.381007 
L 90.821083 56.215312 
L 90.567041 56.625175 
L 90.141667 56.826747 
L 88.700124 58.459481 
L 88.017754 58.459481 
L 87.509668 58.865984 
L 86.998629 60.700289 
L 86.744587 60.905221 
L 86.404879 60.495358 
L 86.319213 60.700289 
L 86.404879 60.905221 
L 86.404879 60.700289 
L 86.404879 60.293786 
L 86.57621 59.883923 
L 86.998629 58.254549 
L 87.338337 58.254549 
L 87.424003 58.459481 
L 87.424003 58.254549 
L 87.424003 58.049618 
L 87.338337 59.272488 
L 87.084295 60.088854 
L 86.744587 59.477419 
L 86.57621 59.477419 
L 86.658921 59.477419 
L 86.998629 59.883923 
L 86.915918 60.088854 
L 86.915918 60.088854 
L 86.915918 59.272488 
L 86.744587 58.865984 
L 86.57621 59.272488 
L 86.404879 60.088854 
L 86.236502 60.293786 
L 86.236502 59.272488 
L 86.319213 59.682351 
L 86.490544 60.088854 
L 86.915918 59.477419 
L 86.830252 59.070916 
L 86.490544 60.495358 
L 86.404879 60.495358 
L 86.236502 59.682351 
L 86.658921 60.293786 
L 86.658921 60.495358 
L 86.404879 60.495358 
L 86.150836 60.293786 
L 86.065171 60.700289 
L 86.150836 61.106793 
L 86.065171 60.905221 
L 85.979505 61.311724 
L 85.979505 60.905221 
L 85.811128 60.700289 
L 85.639797 60.700289 
L 85.639797 61.718228 
L 85.811128 61.106793 
L 85.725463 60.088854 
L 85.557086 60.088854 
L 85.385755 60.495358 
L 85.557086 60.293786 
L 85.725463 60.293786 
L 85.811128 60.905221 
L 85.725463 61.516656 
L 85.725463 61.516656 
L 86.404879 61.106793 
L 86.490544 60.700289 
L 86.404879 60.495358 
L 86.490544 60.905221 
L 86.57621 61.311724 
L 86.490544 60.905221 
L 86.236502 60.700289 
L 85.979505 61.311724 
L 86.065171 61.718228 
L 86.065171 61.718228 
L 86.150836 61.106793 
L 85.979505 60.700289 
L 85.811128 60.700289 
L 85.639797 60.905221 
L 85.639797 60.700289 
L 85.896794 60.700289 
L 85.896794 60.700289 
L 86.065171 60.293786 
L 85.979505 60.495358 
L 86.236502 61.311724 
L 85.896794 60.905221 
L 85.896794 60.495358 
L 85.725463 60.495358 
L 85.385755 60.905221 
L 85.47142 61.311724 
L 85.639797 61.311724 
L 85.725463 61.106793 
L 85.639797 61.311724 
L 85.557086 61.106793 
L 85.300089 60.905221 
L 85.131712 61.106793 
L 85.300089 61.106793 
L 85.557086 61.311724 
L 85.639797 61.718228 
L 85.557086 61.92316 
L 85.639797 61.106793 
L 85.47142 61.311724 
L 85.300089 60.905221 
L 84.960381 61.106793 
L 84.792004 62.128091 
L 85.300089 60.088854 
L 85.046047 60.495358 
L 84.366631 61.106793 
L 83.77288 61.92316 
L 83.687214 62.329663 
L 83.687214 62.128091 
L 83.433172 61.106793 
L 83.601549 61.516656 
L 83.77288 61.516656 
L 83.77288 61.311724 
L 83.687214 62.534595 
L 83.601549 62.534595 
L 83.433172 62.128091 
L 83.347506 61.516656 
L 83.433172 61.516656 
L 83.687214 61.92316 
L 83.601549 61.718228 
L 83.433172 61.92316 
L 83.347506 62.739526 
L 83.433172 63.350961 
L 83.515883 63.14603 
L 83.515883 61.718228 
L 83.601549 61.92316 
L 83.855592 63.350961 
L 83.687214 63.552533 
L 83.601549 63.14603 
L 83.601549 62.128091 
L 83.601549 62.128091 
L 83.347506 63.14603 
L 83.433172 63.350961 
L 83.77288 63.14603 
L 83.855592 62.128091 
L 83.77288 62.329663 
L 83.687214 62.739526 
L 83.601549 62.329663 
L 83.687214 61.92316 
L 83.515883 62.941098 
L 83.176175 62.534595 
L 83.433172 62.941098 
L 83.687214 62.329663 
L 83.687214 61.92316 
L 83.687214 62.128091 
L 83.261841 63.350961 
L 83.261841 63.14603 
L 83.433172 62.739526 
L 83.515883 62.941098 
L 83.433172 63.14603 
L 83.347506 62.941098 
L 83.347506 62.534595 
L 83.941257 62.534595 
L 83.941257 62.534595 
L 83.687214 62.739526 
L 83.77288 62.941098 
L 83.941257 62.739526 
L 83.77288 62.941098 
L 83.941257 63.959037 
L 83.77288 63.757465 
L 83.515883 63.757465 
L 83.433172 63.552533 
L 83.347506 62.739526 
L 83.347506 63.757465 
L 83.261841 63.757465 
L 83.176175 62.739526 
L 83.347506 62.739526 
L 83.433172 63.14603 
L 83.347506 62.534595 
L 83.347506 63.14603 
L 83.347506 63.757465 
L 83.176175 63.552533 
L 83.007798 62.941098 
L 83.093464 62.534595 
L 83.77288 63.552533 
L 83.77288 63.959037 
L 83.687214 63.959037 
L 83.601549 63.959037 
L 83.515883 64.163968 
L 83.347506 64.163968 
L 83.261841 63.757465 
L 83.093464 63.959037 
L 82.922133 64.570472 
L 82.922133 64.163968 
L 83.093464 64.163968 
L 83.176175 64.3689 
L 83.093464 64.775403 
L 83.176175 63.959037 
L 83.007798 63.757465 
L 83.007798 63.757465 
L 83.093464 63.350961 
L 83.176175 63.552533 
L 83.176175 65.181907 
L 83.176175 65.181907 
L 83.347506 65.181907 
L 83.601549 63.959037 
L 83.433172 63.959037 
L 83.261841 64.775403 
L 83.347506 65.181907 
L 83.347506 65.793342 
L 82.836467 66.203205 
L 83.007798 65.998274 
" style="fill:none;stroke:#1f77b4;stroke-linecap:square;stroke-width:1.5;"/>
   </g>
   <g id="matplotlib.axis_1">
    <g id="xtick_1">
     <g id="line2d_2">
      <defs>
       <path d="M 0 0 
L 0 3.5 
" id="mc4faa813ec" style="stroke:#000000;stroke-width:0.8;"/>
      </defs>
      <g>
       <use style="stroke:#000000;stroke-width:0.8;" x="115.525243" xlink:href="#mc4faa813ec" y="307.584"/>
      </g>
     </g>
     <g id="text_1">
      <!-- −200 -->
      <defs>
       <path d="M 10.59375 35.5 
L 73.1875 35.5 
L 73.1875 27.203125 
L 10.59375 27.203125 
z
" id="DejaVuSans-8722"/>
       <path d="M 19.1875 8.296875 
L 53.609375 8.296875 
L 53.609375 0 
L 7.328125 0 
L 7.328125 8.296875 
Q 12.9375 14.109375 22.625 23.890625 
Q 32.328125 33.6875 34.8125 36.53125 
Q 39.546875 41.84375 41.421875 45.53125 
Q 43.3125 49.21875 43.3125 52.78125 
Q 43.3125 58.59375 39.234375 62.25 
Q 35.15625 65.921875 28.609375 65.921875 
Q 23.96875 65.921875 18.8125 64.3125 
Q 13.671875 62.703125 7.8125 59.421875 
L 7.8125 69.390625 
Q 13.765625 71.78125 18.9375 73 
Q 24.125 74.21875 28.421875 74.21875 
Q 39.75 74.21875 46.484375 68.546875 
Q 53.21875 62.890625 53.21875 53.421875 
Q 53.21875 48.921875 51.53125 44.890625 
Q 49.859375 40.875 45.40625 35.40625 
Q 44.1875 33.984375 37.640625 27.21875 
Q 31.109375 20.453125 19.1875 8.296875 
z
" id="DejaVuSans-50"/>
       <path d="M 31.78125 66.40625 
Q 24.171875 66.40625 20.328125 58.90625 
Q 16.5 51.421875 16.5 36.375 
Q 16.5 21.390625 20.328125 13.890625 
Q 24.171875 6.390625 31.78125 6.390625 
Q 39.453125 6.390625 43.28125 13.890625 
Q 47.125 21.390625 47.125 36.375 
Q 47.125 51.421875 43.28125 58.90625 
Q 39.453125 66.40625 31.78125 66.40625 
z
M 31.78125 74.21875 
Q 44.046875 74.21875 50.515625 64.515625 
Q 56.984375 54.828125 56.984375 36.375 
Q 56.984375 17.96875 50.515625 8.265625 
Q 44.046875 -1.421875 31.78125 -1.421875 
Q 19.53125 -1.421875 13.0625 8.265625 
Q 6.59375 17.96875 6.59375 36.375 
Q 6.59375 54.828125 13.0625 64.515625 
Q 19.53125 74.21875 31.78125 74.21875 
z
" id="DejaVuSans-48"/>
      </defs>
      <g transform="translate(101.791649 322.182437)scale(0.1 -0.1)">
       <use xlink:href="#DejaVuSans-8722"/>
       <use x="83.789062" xlink:href="#DejaVuSans-50"/>
       <use x="147.412109" xlink:href="#DejaVuSans-48"/>
       <use x="211.035156" xlink:href="#DejaVuSans-48"/>
      </g>
     </g>
    </g>
    <g id="xtick_2">
     <g id="line2d_3">
      <g>
       <use style="stroke:#000000;stroke-width:0.8;" x="174.604903" xlink:href="#mc4faa813ec" y="307.584"/>
      </g>
     </g>
     <g id="text_2">
      <!-- 0 -->
      <g transform="translate(171.423653 322.182437)scale(0.1 -0.1)">
       <use xlink:href="#DejaVuSans-48"/>
      </g>
     </g>
    </g>
    <g id="xtick_3">
     <g id="line2d_4">
      <g>
       <use style="stroke:#000000;stroke-width:0.8;" x="233.684562" xlink:href="#mc4faa813ec" y="307.584"/>
      </g>
     </g>
     <g id="text_3">
      <!-- 200 -->
      <g transform="translate(224.140812 322.182437)scale(0.1 -0.1)">
       <use xlink:href="#DejaVuSans-50"/>
       <use x="63.623047" xlink:href="#DejaVuSans-48"/>
       <use x="127.246094" xlink:href="#DejaVuSans-48"/>
      </g>
     </g>
    </g>
    <g id="xtick_4">
     <g id="line2d_5">
      <g>
       <use style="stroke:#000000;stroke-width:0.8;" x="292.764222" xlink:href="#mc4faa813ec" y="307.584"/>
      </g>
     </g>
     <g id="text_4">
      <!-- 400 -->
      <defs>
       <path d="M 37.796875 64.3125 
L 12.890625 25.390625 
L 37.796875 25.390625 
z
M 35.203125 72.90625 
L 47.609375 72.90625 
L 47.609375 25.390625 
L 58.015625 25.390625 
L 58.015625 17.1875 
L 47.609375 17.1875 
L 47.609375 0 
L 37.796875 0 
L 37.796875 17.1875 
L 4.890625 17.1875 
L 4.890625 26.703125 
z
" id="DejaVuSans-52"/>
      </defs>
      <g transform="translate(283.220472 322.182437)scale(0.1 -0.1)">
       <use xlink:href="#DejaVuSans-52"/>
       <use x="63.623047" xlink:href="#DejaVuSans-48"/>
       <use x="127.246094" xlink:href="#DejaVuSans-48"/>
      </g>
     </g>
    </g>
    <g id="xtick_5">
     <g id="line2d_6">
      <g>
       <use style="stroke:#000000;stroke-width:0.8;" x="351.843881" xlink:href="#mc4faa813ec" y="307.584"/>
      </g>
     </g>
     <g id="text_5">
      <!-- 600 -->
      <defs>
       <path d="M 33.015625 40.375 
Q 26.375 40.375 22.484375 35.828125 
Q 18.609375 31.296875 18.609375 23.390625 
Q 18.609375 15.53125 22.484375 10.953125 
Q 26.375 6.390625 33.015625 6.390625 
Q 39.65625 6.390625 43.53125 10.953125 
Q 47.40625 15.53125 47.40625 23.390625 
Q 47.40625 31.296875 43.53125 35.828125 
Q 39.65625 40.375 33.015625 40.375 
z
M 52.59375 71.296875 
L 52.59375 62.3125 
Q 48.875 64.0625 45.09375 64.984375 
Q 41.3125 65.921875 37.59375 65.921875 
Q 27.828125 65.921875 22.671875 59.328125 
Q 17.53125 52.734375 16.796875 39.40625 
Q 19.671875 43.65625 24.015625 45.921875 
Q 28.375 48.1875 33.59375 48.1875 
Q 44.578125 48.1875 50.953125 41.515625 
Q 57.328125 34.859375 57.328125 23.390625 
Q 57.328125 12.15625 50.6875 5.359375 
Q 44.046875 -1.421875 33.015625 -1.421875 
Q 20.359375 -1.421875 13.671875 8.265625 
Q 6.984375 17.96875 6.984375 36.375 
Q 6.984375 53.65625 15.1875 63.9375 
Q 23.390625 74.21875 37.203125 74.21875 
Q 40.921875 74.21875 44.703125 73.484375 
Q 48.484375 72.75 52.59375 71.296875 
z
" id="DejaVuSans-54"/>
      </defs>
      <g transform="translate(342.300131 322.182437)scale(0.1 -0.1)">
       <use xlink:href="#DejaVuSans-54"/>
       <use x="63.623047" xlink:href="#DejaVuSans-48"/>
       <use x="127.246094" xlink:href="#DejaVuSans-48"/>
      </g>
     </g>
    </g>
    <g id="xtick_6">
     <g id="line2d_7">
      <g>
       <use style="stroke:#000000;stroke-width:0.8;" x="410.923541" xlink:href="#mc4faa813ec" y="307.584"/>
      </g>
     </g>
     <g id="text_6">
      <!-- 800 -->
      <defs>
       <path d="M 31.78125 34.625 
Q 24.75 34.625 20.71875 30.859375 
Q 16.703125 27.09375 16.703125 20.515625 
Q 16.703125 13.921875 20.71875 10.15625 
Q 24.75 6.390625 31.78125 6.390625 
Q 38.8125 6.390625 42.859375 10.171875 
Q 46.921875 13.96875 46.921875 20.515625 
Q 46.921875 27.09375 42.890625 30.859375 
Q 38.875 34.625 31.78125 34.625 
z
M 21.921875 38.8125 
Q 15.578125 40.375 12.03125 44.71875 
Q 8.5 49.078125 8.5 55.328125 
Q 8.5 64.0625 14.71875 69.140625 
Q 20.953125 74.21875 31.78125 74.21875 
Q 42.671875 74.21875 48.875 69.140625 
Q 55.078125 64.0625 55.078125 55.328125 
Q 55.078125 49.078125 51.53125 44.71875 
Q 48 40.375 41.703125 38.8125 
Q 48.828125 37.15625 52.796875 32.3125 
Q 56.78125 27.484375 56.78125 20.515625 
Q 56.78125 9.90625 50.3125 4.234375 
Q 43.84375 -1.421875 31.78125 -1.421875 
Q 19.734375 -1.421875 13.25 4.234375 
Q 6.78125 9.90625 6.78125 20.515625 
Q 6.78125 27.484375 10.78125 32.3125 
Q 14.796875 37.15625 21.921875 38.8125 
z
M 18.3125 54.390625 
Q 18.3125 48.734375 21.84375 45.5625 
Q 25.390625 42.390625 31.78125 42.390625 
Q 38.140625 42.390625 41.71875 45.5625 
Q 45.3125 48.734375 45.3125 54.390625 
Q 45.3125 60.0625 41.71875 63.234375 
Q 38.140625 66.40625 31.78125 66.40625 
Q 25.390625 66.40625 21.84375 63.234375 
Q 18.3125 60.0625 18.3125 54.390625 
z
" id="DejaVuSans-56"/>
      </defs>
      <g transform="translate(401.379791 322.182437)scale(0.1 -0.1)">
       <use xlink:href="#DejaVuSans-56"/>
       <use x="63.623047" xlink:href="#DejaVuSans-48"/>
       <use x="127.246094" xlink:href="#DejaVuSans-48"/>
      </g>
     </g>
    </g>
   </g>
   <g id="matplotlib.axis_2">
    <g id="ytick_1">
     <g id="line2d_8">
      <defs>
       <path d="M 0 0 
L -3.5 0 
" id="m7d9eea4533" style="stroke:#000000;stroke-width:0.8;"/>
      </defs>
      <g>
       <use style="stroke:#000000;stroke-width:0.8;" x="57.6" xlink:href="#m7d9eea4533" y="298.669478"/>
      </g>
     </g>
     <g id="text_7">
      <!-- −700 -->
      <defs>
       <path d="M 8.203125 72.90625 
L 55.078125 72.90625 
L 55.078125 68.703125 
L 28.609375 0 
L 18.3125 0 
L 43.21875 64.59375 
L 8.203125 64.59375 
z
" id="DejaVuSans-55"/>
      </defs>
      <g transform="translate(23.132812 302.468697)scale(0.1 -0.1)">
       <use xlink:href="#DejaVuSans-8722"/>
       <use x="83.789062" xlink:href="#DejaVuSans-55"/>
       <use x="147.412109" xlink:href="#DejaVuSans-48"/>
       <use x="211.035156" xlink:href="#DejaVuSans-48"/>
      </g>
     </g>
    </g>
    <g id="ytick_2">
     <g id="line2d_9">
      <g>
       <use style="stroke:#000000;stroke-width:0.8;" x="57.6" xlink:href="#m7d9eea4533" y="265.074144"/>
      </g>
     </g>
     <g id="text_8">
      <!-- −600 -->
      <g transform="translate(23.132812 268.873363)scale(0.1 -0.1)">
       <use xlink:href="#DejaVuSans-8722"/>
       <use x="83.789062" xlink:href="#DejaVuSans-54"/>
       <use x="147.412109" xlink:href="#DejaVuSans-48"/>
       <use x="211.035156" xlink:href="#DejaVuSans-48"/>
      </g>
     </g>
    </g>
    <g id="ytick_3">
     <g id="line2d_10">
      <g>
       <use style="stroke:#000000;stroke-width:0.8;" x="57.6" xlink:href="#m7d9eea4533" y="231.47881"/>
      </g>
     </g>
     <g id="text_9">
      <!-- −500 -->
      <defs>
       <path d="M 10.796875 72.90625 
L 49.515625 72.90625 
L 49.515625 64.59375 
L 19.828125 64.59375 
L 19.828125 46.734375 
Q 21.96875 47.46875 24.109375 47.828125 
Q 26.265625 48.1875 28.421875 48.1875 
Q 40.625 48.1875 47.75 41.5 
Q 54.890625 34.8125 54.890625 23.390625 
Q 54.890625 11.625 47.5625 5.09375 
Q 40.234375 -1.421875 26.90625 -1.421875 
Q 22.3125 -1.421875 17.546875 -0.640625 
Q 12.796875 0.140625 7.71875 1.703125 
L 7.71875 11.625 
Q 12.109375 9.234375 16.796875 8.0625 
Q 21.484375 6.890625 26.703125 6.890625 
Q 35.15625 6.890625 40.078125 11.328125 
Q 45.015625 15.765625 45.015625 23.390625 
Q 45.015625 31 40.078125 35.4375 
Q 35.15625 39.890625 26.703125 39.890625 
Q 22.75 39.890625 18.8125 39.015625 
Q 14.890625 38.140625 10.796875 36.28125 
z
" id="DejaVuSans-53"/>
      </defs>
      <g transform="translate(23.132812 235.278029)scale(0.1 -0.1)">
       <use xlink:href="#DejaVuSans-8722"/>
       <use x="83.789062" xlink:href="#DejaVuSans-53"/>
       <use x="147.412109" xlink:href="#DejaVuSans-48"/>
       <use x="211.035156" xlink:href="#DejaVuSans-48"/>
      </g>
     </g>
    </g>
    <g id="ytick_4">
     <g id="line2d_11">
      <g>
       <use style="stroke:#000000;stroke-width:0.8;" x="57.6" xlink:href="#m7d9eea4533" y="197.883476"/>
      </g>
     </g>
     <g id="text_10">
      <!-- −400 -->
      <g transform="translate(23.132812 201.682695)scale(0.1 -0.1)">
       <use xlink:href="#DejaVuSans-8722"/>
       <use x="83.789062" xlink:href="#DejaVuSans-52"/>
       <use x="147.412109" xlink:href="#DejaVuSans-48"/>
       <use x="211.035156" xlink:href="#DejaVuSans-48"/>
      </g>
     </g>
    </g>
    <g id="ytick_5">
     <g id="line2d_12">
      <g>
       <use style="stroke:#000000;stroke-width:0.8;" x="57.6" xlink:href="#m7d9eea4533" y="164.288142"/>
      </g>
     </g>
     <g id="text_11">
      <!-- −300 -->
      <defs>
       <path d="M 40.578125 39.3125 
Q 47.65625 37.796875 51.625 33 
Q 55.609375 28.21875 55.609375 21.1875 
Q 55.609375 10.40625 48.1875 4.484375 
Q 40.765625 -1.421875 27.09375 -1.421875 
Q 22.515625 -1.421875 17.65625 -0.515625 
Q 12.796875 0.390625 7.625 2.203125 
L 7.625 11.71875 
Q 11.71875 9.328125 16.59375 8.109375 
Q 21.484375 6.890625 26.8125 6.890625 
Q 36.078125 6.890625 40.9375 10.546875 
Q 45.796875 14.203125 45.796875 21.1875 
Q 45.796875 27.640625 41.28125 31.265625 
Q 36.765625 34.90625 28.71875 34.90625 
L 20.21875 34.90625 
L 20.21875 43.015625 
L 29.109375 43.015625 
Q 36.375 43.015625 40.234375 45.921875 
Q 44.09375 48.828125 44.09375 54.296875 
Q 44.09375 59.90625 40.109375 62.90625 
Q 36.140625 65.921875 28.71875 65.921875 
Q 24.65625 65.921875 20.015625 65.03125 
Q 15.375 64.15625 9.8125 62.3125 
L 9.8125 71.09375 
Q 15.4375 72.65625 20.34375 73.4375 
Q 25.25 74.21875 29.59375 74.21875 
Q 40.828125 74.21875 47.359375 69.109375 
Q 53.90625 64.015625 53.90625 55.328125 
Q 53.90625 49.265625 50.4375 45.09375 
Q 46.96875 40.921875 40.578125 39.3125 
z
" id="DejaVuSans-51"/>
      </defs>
      <g transform="translate(23.132812 168.087361)scale(0.1 -0.1)">
       <use xlink:href="#DejaVuSans-8722"/>
       <use x="83.789062" xlink:href="#DejaVuSans-51"/>
       <use x="147.412109" xlink:href="#DejaVuSans-48"/>
       <use x="211.035156" xlink:href="#DejaVuSans-48"/>
      </g>
     </g>
    </g>
    <g id="ytick_6">
     <g id="line2d_13">
      <g>
       <use style="stroke:#000000;stroke-width:0.8;" x="57.6" xlink:href="#m7d9eea4533" y="130.692808"/>
      </g>
     </g>
     <g id="text_12">
      <!-- −200 -->
      <g transform="translate(23.132812 134.492027)scale(0.1 -0.1)">
       <use xlink:href="#DejaVuSans-8722"/>
       <use x="83.789062" xlink:href="#DejaVuSans-50"/>
       <use x="147.412109" xlink:href="#DejaVuSans-48"/>
       <use x="211.035156" xlink:href="#DejaVuSans-48"/>
      </g>
     </g>
    </g>
    <g id="ytick_7">
     <g id="line2d_14">
      <g>
       <use style="stroke:#000000;stroke-width:0.8;" x="57.6" xlink:href="#m7d9eea4533" y="97.097474"/>
      </g>
     </g>
     <g id="text_13">
      <!-- −100 -->
      <defs>
       <path d="M 12.40625 8.296875 
L 28.515625 8.296875 
L 28.515625 63.921875 
L 10.984375 60.40625 
L 10.984375 69.390625 
L 28.421875 72.90625 
L 38.28125 72.90625 
L 38.28125 8.296875 
L 54.390625 8.296875 
L 54.390625 0 
L 12.40625 0 
z
" id="DejaVuSans-49"/>
      </defs>
      <g transform="translate(23.132812 100.896693)scale(0.1 -0.1)">
       <use xlink:href="#DejaVuSans-8722"/>
       <use x="83.789062" xlink:href="#DejaVuSans-49"/>
       <use x="147.412109" xlink:href="#DejaVuSans-48"/>
       <use x="211.035156" xlink:href="#DejaVuSans-48"/>
      </g>
     </g>
    </g>
    <g id="ytick_8">
     <g id="line2d_15">
      <g>
       <use style="stroke:#000000;stroke-width:0.8;" x="57.6" xlink:href="#m7d9eea4533" y="63.50214"/>
      </g>
     </g>
     <g id="text_14">
      <!-- 0 -->
      <g transform="translate(44.2375 67.301359)scale(0.1 -0.1)">
       <use xlink:href="#DejaVuSans-48"/>
      </g>
     </g>
    </g>
   </g>
   <g id="line2d_16">
    <path clip-path="url(#pd6878f3e41)" d="M 395.958255 292.455941 
L 200.963915 96.262851 
L 83.113415 82.368479 
L 235.120475 108.277389 
L 251.883262 121.011259 
L 86.450599 61.844784 
" style="fill:none;stroke:#ff0000;stroke-linecap:square;stroke-width:0.5;"/>
   </g>
   <g id="patch_3">
    <path d="M 57.6 307.584 
L 57.6 41.472 
" style="fill:none;stroke:#000000;stroke-linecap:square;stroke-linejoin:miter;stroke-width:0.8;"/>
   </g>
   <g id="patch_4">
    <path d="M 414.72 307.584 
L 414.72 41.472 
" style="fill:none;stroke:#000000;stroke-linecap:square;stroke-linejoin:miter;stroke-width:0.8;"/>
   </g>
   <g id="patch_5">
    <path d="M 57.6 307.584 
L 414.72 307.584 
" style="fill:none;stroke:#000000;stroke-linecap:square;stroke-linejoin:miter;stroke-width:0.8;"/>
   </g>
   <g id="patch_6">
    <path d="M 57.6 41.472 
L 414.72 41.472 
" style="fill:none;stroke:#000000;stroke-linecap:square;stroke-linejoin:miter;stroke-width:0.8;"/>
   </g>
   <g id="PathCollection_1">
    <defs>
     <path d="M 0 2.738613 
C 0.726289 2.738613 1.422928 2.450055 1.936492 1.936492 
C 2.450055 1.422928 2.738613 0.726289 2.738613 0 
C 2.738613 -0.726289 2.450055 -1.422928 1.936492 -1.936492 
C 1.422928 -2.450055 0.726289 -2.738613 0 -2.738613 
C -0.726289 -2.738613 -1.422928 -2.450055 -1.936492 -1.936492 
C -2.450055 -1.422928 -2.738613 -0.726289 -2.738613 0 
C -2.738613 0.726289 -2.450055 1.422928 -1.936492 1.936492 
C -1.422928 2.450055 -0.726289 2.738613 0 2.738613 
z
" id="m4c3da13d16" style="stroke:#ff0000;"/>
    </defs>
    <g clip-path="url(#pd6878f3e41)">
     <use style="fill:#ff0000;stroke:#ff0000;" x="395.958255" xlink:href="#m4c3da13d16" y="292.455941"/>
     <use style="fill:#ff0000;stroke:#ff0000;" x="200.963915" xlink:href="#m4c3da13d16" y="96.262851"/>
     <use style="fill:#ff0000;stroke:#ff0000;" x="83.113415" xlink:href="#m4c3da13d16" y="82.368479"/>
     <use style="fill:#ff0000;stroke:#ff0000;" x="235.120475" xlink:href="#m4c3da13d16" y="108.277389"/>
     <use style="fill:#ff0000;stroke:#ff0000;" x="251.883262" xlink:href="#m4c3da13d16" y="121.011259"/>
     <use style="fill:#ff0000;stroke:#ff0000;" x="86.450599" xlink:href="#m4c3da13d16" y="61.844784"/>
    </g>
   </g>
   <g id="text_15">
    <!-- (7) Subject: s17, Known = True, Degree = 2, Duration = 0.1 -->
    <defs>
     <path d="M 31 75.875 
Q 24.46875 64.65625 21.28125 53.65625 
Q 18.109375 42.671875 18.109375 31.390625 
Q 18.109375 20.125 21.3125 9.0625 
Q 24.515625 -2 31 -13.1875 
L 23.1875 -13.1875 
Q 15.875 -1.703125 12.234375 9.375 
Q 8.59375 20.453125 8.59375 31.390625 
Q 8.59375 42.28125 12.203125 53.3125 
Q 15.828125 64.359375 23.1875 75.875 
z
" id="DejaVuSans-40"/>
     <path d="M 8.015625 75.875 
L 15.828125 75.875 
Q 23.140625 64.359375 26.78125 53.3125 
Q 30.421875 42.28125 30.421875 31.390625 
Q 30.421875 20.453125 26.78125 9.375 
Q 23.140625 -1.703125 15.828125 -13.1875 
L 8.015625 -13.1875 
Q 14.5 -2 17.703125 9.0625 
Q 20.90625 20.125 20.90625 31.390625 
Q 20.90625 42.671875 17.703125 53.65625 
Q 14.5 64.65625 8.015625 75.875 
z
" id="DejaVuSans-41"/>
     <path id="DejaVuSans-32"/>
     <path d="M 53.515625 70.515625 
L 53.515625 60.890625 
Q 47.90625 63.578125 42.921875 64.890625 
Q 37.9375 66.21875 33.296875 66.21875 
Q 25.25 66.21875 20.875 63.09375 
Q 16.5 59.96875 16.5 54.203125 
Q 16.5 49.359375 19.40625 46.890625 
Q 22.3125 44.4375 30.421875 42.921875 
L 36.375 41.703125 
Q 47.40625 39.59375 52.65625 34.296875 
Q 57.90625 29 57.90625 20.125 
Q 57.90625 9.515625 50.796875 4.046875 
Q 43.703125 -1.421875 29.984375 -1.421875 
Q 24.8125 -1.421875 18.96875 -0.25 
Q 13.140625 0.921875 6.890625 3.21875 
L 6.890625 13.375 
Q 12.890625 10.015625 18.65625 8.296875 
Q 24.421875 6.59375 29.984375 6.59375 
Q 38.421875 6.59375 43.015625 9.90625 
Q 47.609375 13.234375 47.609375 19.390625 
Q 47.609375 24.75 44.3125 27.78125 
Q 41.015625 30.8125 33.5 32.328125 
L 27.484375 33.5 
Q 16.453125 35.6875 11.515625 40.375 
Q 6.59375 45.0625 6.59375 53.421875 
Q 6.59375 63.09375 13.40625 68.65625 
Q 20.21875 74.21875 32.171875 74.21875 
Q 37.3125 74.21875 42.625 73.28125 
Q 47.953125 72.359375 53.515625 70.515625 
z
" id="DejaVuSans-83"/>
     <path d="M 8.5 21.578125 
L 8.5 54.6875 
L 17.484375 54.6875 
L 17.484375 21.921875 
Q 17.484375 14.15625 20.5 10.265625 
Q 23.53125 6.390625 29.59375 6.390625 
Q 36.859375 6.390625 41.078125 11.03125 
Q 45.3125 15.671875 45.3125 23.6875 
L 45.3125 54.6875 
L 54.296875 54.6875 
L 54.296875 0 
L 45.3125 0 
L 45.3125 8.40625 
Q 42.046875 3.421875 37.71875 1 
Q 33.40625 -1.421875 27.6875 -1.421875 
Q 18.265625 -1.421875 13.375 4.4375 
Q 8.5 10.296875 8.5 21.578125 
z
M 31.109375 56 
z
" id="DejaVuSans-117"/>
     <path d="M 48.6875 27.296875 
Q 48.6875 37.203125 44.609375 42.84375 
Q 40.53125 48.484375 33.40625 48.484375 
Q 26.265625 48.484375 22.1875 42.84375 
Q 18.109375 37.203125 18.109375 27.296875 
Q 18.109375 17.390625 22.1875 11.75 
Q 26.265625 6.109375 33.40625 6.109375 
Q 40.53125 6.109375 44.609375 11.75 
Q 48.6875 17.390625 48.6875 27.296875 
z
M 18.109375 46.390625 
Q 20.953125 51.265625 25.265625 53.625 
Q 29.59375 56 35.59375 56 
Q 45.5625 56 51.78125 48.09375 
Q 58.015625 40.1875 58.015625 27.296875 
Q 58.015625 14.40625 51.78125 6.484375 
Q 45.5625 -1.421875 35.59375 -1.421875 
Q 29.59375 -1.421875 25.265625 0.953125 
Q 20.953125 3.328125 18.109375 8.203125 
L 18.109375 0 
L 9.078125 0 
L 9.078125 75.984375 
L 18.109375 75.984375 
z
" id="DejaVuSans-98"/>
     <path d="M 9.421875 54.6875 
L 18.40625 54.6875 
L 18.40625 -0.984375 
Q 18.40625 -11.421875 14.421875 -16.109375 
Q 10.453125 -20.796875 1.609375 -20.796875 
L -1.8125 -20.796875 
L -1.8125 -13.1875 
L 0.59375 -13.1875 
Q 5.71875 -13.1875 7.5625 -10.8125 
Q 9.421875 -8.453125 9.421875 -0.984375 
z
M 9.421875 75.984375 
L 18.40625 75.984375 
L 18.40625 64.59375 
L 9.421875 64.59375 
z
" id="DejaVuSans-106"/>
     <path d="M 56.203125 29.59375 
L 56.203125 25.203125 
L 14.890625 25.203125 
Q 15.484375 15.921875 20.484375 11.0625 
Q 25.484375 6.203125 34.421875 6.203125 
Q 39.59375 6.203125 44.453125 7.46875 
Q 49.3125 8.734375 54.109375 11.28125 
L 54.109375 2.78125 
Q 49.265625 0.734375 44.1875 -0.34375 
Q 39.109375 -1.421875 33.890625 -1.421875 
Q 20.796875 -1.421875 13.15625 6.1875 
Q 5.515625 13.8125 5.515625 26.8125 
Q 5.515625 40.234375 12.765625 48.109375 
Q 20.015625 56 32.328125 56 
Q 43.359375 56 49.78125 48.890625 
Q 56.203125 41.796875 56.203125 29.59375 
z
M 47.21875 32.234375 
Q 47.125 39.59375 43.09375 43.984375 
Q 39.0625 48.390625 32.421875 48.390625 
Q 24.90625 48.390625 20.390625 44.140625 
Q 15.875 39.890625 15.1875 32.171875 
z
" id="DejaVuSans-101"/>
     <path d="M 48.78125 52.59375 
L 48.78125 44.1875 
Q 44.96875 46.296875 41.140625 47.34375 
Q 37.3125 48.390625 33.40625 48.390625 
Q 24.65625 48.390625 19.8125 42.84375 
Q 14.984375 37.3125 14.984375 27.296875 
Q 14.984375 17.28125 19.8125 11.734375 
Q 24.65625 6.203125 33.40625 6.203125 
Q 37.3125 6.203125 41.140625 7.25 
Q 44.96875 8.296875 48.78125 10.40625 
L 48.78125 2.09375 
Q 45.015625 0.34375 40.984375 -0.53125 
Q 36.96875 -1.421875 32.421875 -1.421875 
Q 20.0625 -1.421875 12.78125 6.34375 
Q 5.515625 14.109375 5.515625 27.296875 
Q 5.515625 40.671875 12.859375 48.328125 
Q 20.21875 56 33.015625 56 
Q 37.15625 56 41.109375 55.140625 
Q 45.0625 54.296875 48.78125 52.59375 
z
" id="DejaVuSans-99"/>
     <path d="M 18.3125 70.21875 
L 18.3125 54.6875 
L 36.8125 54.6875 
L 36.8125 47.703125 
L 18.3125 47.703125 
L 18.3125 18.015625 
Q 18.3125 11.328125 20.140625 9.421875 
Q 21.96875 7.515625 27.59375 7.515625 
L 36.8125 7.515625 
L 36.8125 0 
L 27.59375 0 
Q 17.1875 0 13.234375 3.875 
Q 9.28125 7.765625 9.28125 18.015625 
L 9.28125 47.703125 
L 2.6875 47.703125 
L 2.6875 54.6875 
L 9.28125 54.6875 
L 9.28125 70.21875 
z
" id="DejaVuSans-116"/>
     <path d="M 11.71875 12.40625 
L 22.015625 12.40625 
L 22.015625 0 
L 11.71875 0 
z
M 11.71875 51.703125 
L 22.015625 51.703125 
L 22.015625 39.3125 
L 11.71875 39.3125 
z
" id="DejaVuSans-58"/>
     <path d="M 44.28125 53.078125 
L 44.28125 44.578125 
Q 40.484375 46.53125 36.375 47.5 
Q 32.28125 48.484375 27.875 48.484375 
Q 21.1875 48.484375 17.84375 46.4375 
Q 14.5 44.390625 14.5 40.28125 
Q 14.5 37.15625 16.890625 35.375 
Q 19.28125 33.59375 26.515625 31.984375 
L 29.59375 31.296875 
Q 39.15625 29.25 43.1875 25.515625 
Q 47.21875 21.78125 47.21875 15.09375 
Q 47.21875 7.46875 41.1875 3.015625 
Q 35.15625 -1.421875 24.609375 -1.421875 
Q 20.21875 -1.421875 15.453125 -0.5625 
Q 10.6875 0.296875 5.421875 2 
L 5.421875 11.28125 
Q 10.40625 8.6875 15.234375 7.390625 
Q 20.0625 6.109375 24.8125 6.109375 
Q 31.15625 6.109375 34.5625 8.28125 
Q 37.984375 10.453125 37.984375 14.40625 
Q 37.984375 18.0625 35.515625 20.015625 
Q 33.0625 21.96875 24.703125 23.78125 
L 21.578125 24.515625 
Q 13.234375 26.265625 9.515625 29.90625 
Q 5.8125 33.546875 5.8125 39.890625 
Q 5.8125 47.609375 11.28125 51.796875 
Q 16.75 56 26.8125 56 
Q 31.78125 56 36.171875 55.265625 
Q 40.578125 54.546875 44.28125 53.078125 
z
" id="DejaVuSans-115"/>
     <path d="M 11.71875 12.40625 
L 22.015625 12.40625 
L 22.015625 4 
L 14.015625 -11.625 
L 7.71875 -11.625 
L 11.71875 4 
z
" id="DejaVuSans-44"/>
     <path d="M 9.8125 72.90625 
L 19.671875 72.90625 
L 19.671875 42.09375 
L 52.390625 72.90625 
L 65.09375 72.90625 
L 28.90625 38.921875 
L 67.671875 0 
L 54.6875 0 
L 19.671875 35.109375 
L 19.671875 0 
L 9.8125 0 
z
" id="DejaVuSans-75"/>
     <path d="M 54.890625 33.015625 
L 54.890625 0 
L 45.90625 0 
L 45.90625 32.71875 
Q 45.90625 40.484375 42.875 44.328125 
Q 39.84375 48.1875 33.796875 48.1875 
Q 26.515625 48.1875 22.3125 43.546875 
Q 18.109375 38.921875 18.109375 30.90625 
L 18.109375 0 
L 9.078125 0 
L 9.078125 54.6875 
L 18.109375 54.6875 
L 18.109375 46.1875 
Q 21.34375 51.125 25.703125 53.5625 
Q 30.078125 56 35.796875 56 
Q 45.21875 56 50.046875 50.171875 
Q 54.890625 44.34375 54.890625 33.015625 
z
" id="DejaVuSans-110"/>
     <path d="M 30.609375 48.390625 
Q 23.390625 48.390625 19.1875 42.75 
Q 14.984375 37.109375 14.984375 27.296875 
Q 14.984375 17.484375 19.15625 11.84375 
Q 23.34375 6.203125 30.609375 6.203125 
Q 37.796875 6.203125 41.984375 11.859375 
Q 46.1875 17.53125 46.1875 27.296875 
Q 46.1875 37.015625 41.984375 42.703125 
Q 37.796875 48.390625 30.609375 48.390625 
z
M 30.609375 56 
Q 42.328125 56 49.015625 48.375 
Q 55.71875 40.765625 55.71875 27.296875 
Q 55.71875 13.875 49.015625 6.21875 
Q 42.328125 -1.421875 30.609375 -1.421875 
Q 18.84375 -1.421875 12.171875 6.21875 
Q 5.515625 13.875 5.515625 27.296875 
Q 5.515625 40.765625 12.171875 48.375 
Q 18.84375 56 30.609375 56 
z
" id="DejaVuSans-111"/>
     <path d="M 4.203125 54.6875 
L 13.1875 54.6875 
L 24.421875 12.015625 
L 35.59375 54.6875 
L 46.1875 54.6875 
L 57.421875 12.015625 
L 68.609375 54.6875 
L 77.59375 54.6875 
L 63.28125 0 
L 52.6875 0 
L 40.921875 44.828125 
L 29.109375 0 
L 18.5 0 
z
" id="DejaVuSans-119"/>
     <path d="M 10.59375 45.40625 
L 73.1875 45.40625 
L 73.1875 37.203125 
L 10.59375 37.203125 
z
M 10.59375 25.484375 
L 73.1875 25.484375 
L 73.1875 17.1875 
L 10.59375 17.1875 
z
" id="DejaVuSans-61"/>
     <path d="M -0.296875 72.90625 
L 61.375 72.90625 
L 61.375 64.59375 
L 35.5 64.59375 
L 35.5 0 
L 25.59375 0 
L 25.59375 64.59375 
L -0.296875 64.59375 
z
" id="DejaVuSans-84"/>
     <path d="M 41.109375 46.296875 
Q 39.59375 47.171875 37.8125 47.578125 
Q 36.03125 48 33.890625 48 
Q 26.265625 48 22.1875 43.046875 
Q 18.109375 38.09375 18.109375 28.8125 
L 18.109375 0 
L 9.078125 0 
L 9.078125 54.6875 
L 18.109375 54.6875 
L 18.109375 46.1875 
Q 20.953125 51.171875 25.484375 53.578125 
Q 30.03125 56 36.53125 56 
Q 37.453125 56 38.578125 55.875 
Q 39.703125 55.765625 41.0625 55.515625 
z
" id="DejaVuSans-114"/>
     <path d="M 19.671875 64.796875 
L 19.671875 8.109375 
L 31.59375 8.109375 
Q 46.6875 8.109375 53.6875 14.9375 
Q 60.6875 21.78125 60.6875 36.53125 
Q 60.6875 51.171875 53.6875 57.984375 
Q 46.6875 64.796875 31.59375 64.796875 
z
M 9.8125 72.90625 
L 30.078125 72.90625 
Q 51.265625 72.90625 61.171875 64.09375 
Q 71.09375 55.28125 71.09375 36.53125 
Q 71.09375 17.671875 61.125 8.828125 
Q 51.171875 0 30.078125 0 
L 9.8125 0 
z
" id="DejaVuSans-68"/>
     <path d="M 45.40625 27.984375 
Q 45.40625 37.75 41.375 43.109375 
Q 37.359375 48.484375 30.078125 48.484375 
Q 22.859375 48.484375 18.828125 43.109375 
Q 14.796875 37.75 14.796875 27.984375 
Q 14.796875 18.265625 18.828125 12.890625 
Q 22.859375 7.515625 30.078125 7.515625 
Q 37.359375 7.515625 41.375 12.890625 
Q 45.40625 18.265625 45.40625 27.984375 
z
M 54.390625 6.78125 
Q 54.390625 -7.171875 48.1875 -13.984375 
Q 42 -20.796875 29.203125 -20.796875 
Q 24.46875 -20.796875 20.265625 -20.09375 
Q 16.0625 -19.390625 12.109375 -17.921875 
L 12.109375 -9.1875 
Q 16.0625 -11.328125 19.921875 -12.34375 
Q 23.78125 -13.375 27.78125 -13.375 
Q 36.625 -13.375 41.015625 -8.765625 
Q 45.40625 -4.15625 45.40625 5.171875 
L 45.40625 9.625 
Q 42.625 4.78125 38.28125 2.390625 
Q 33.9375 0 27.875 0 
Q 17.828125 0 11.671875 7.65625 
Q 5.515625 15.328125 5.515625 27.984375 
Q 5.515625 40.671875 11.671875 48.328125 
Q 17.828125 56 27.875 56 
Q 33.9375 56 38.28125 53.609375 
Q 42.625 51.21875 45.40625 46.390625 
L 45.40625 54.6875 
L 54.390625 54.6875 
z
" id="DejaVuSans-103"/>
     <path d="M 34.28125 27.484375 
Q 23.390625 27.484375 19.1875 25 
Q 14.984375 22.515625 14.984375 16.5 
Q 14.984375 11.71875 18.140625 8.90625 
Q 21.296875 6.109375 26.703125 6.109375 
Q 34.1875 6.109375 38.703125 11.40625 
Q 43.21875 16.703125 43.21875 25.484375 
L 43.21875 27.484375 
z
M 52.203125 31.203125 
L 52.203125 0 
L 43.21875 0 
L 43.21875 8.296875 
Q 40.140625 3.328125 35.546875 0.953125 
Q 30.953125 -1.421875 24.3125 -1.421875 
Q 15.921875 -1.421875 10.953125 3.296875 
Q 6 8.015625 6 15.921875 
Q 6 25.140625 12.171875 29.828125 
Q 18.359375 34.515625 30.609375 34.515625 
L 43.21875 34.515625 
L 43.21875 35.40625 
Q 43.21875 41.609375 39.140625 45 
Q 35.0625 48.390625 27.6875 48.390625 
Q 23 48.390625 18.546875 47.265625 
Q 14.109375 46.140625 10.015625 43.890625 
L 10.015625 52.203125 
Q 14.9375 54.109375 19.578125 55.046875 
Q 24.21875 56 28.609375 56 
Q 40.484375 56 46.34375 49.84375 
Q 52.203125 43.703125 52.203125 31.203125 
z
" id="DejaVuSans-97"/>
     <path d="M 9.421875 54.6875 
L 18.40625 54.6875 
L 18.40625 0 
L 9.421875 0 
z
M 9.421875 75.984375 
L 18.40625 75.984375 
L 18.40625 64.59375 
L 9.421875 64.59375 
z
" id="DejaVuSans-105"/>
     <path d="M 10.6875 12.40625 
L 21 12.40625 
L 21 0 
L 10.6875 0 
z
" id="DejaVuSans-46"/>
    </defs>
    <g transform="translate(55.550625 35.472)scale(0.12 -0.12)">
     <use xlink:href="#DejaVuSans-40"/>
     <use x="39.013672" xlink:href="#DejaVuSans-55"/>
     <use x="102.636719" xlink:href="#DejaVuSans-41"/>
     <use x="141.650391" xlink:href="#DejaVuSans-32"/>
     <use x="173.4375" xlink:href="#DejaVuSans-83"/>
     <use x="236.914062" xlink:href="#DejaVuSans-117"/>
     <use x="300.292969" xlink:href="#DejaVuSans-98"/>
     <use x="363.769531" xlink:href="#DejaVuSans-106"/>
     <use x="391.552734" xlink:href="#DejaVuSans-101"/>
     <use x="453.076172" xlink:href="#DejaVuSans-99"/>
     <use x="508.056641" xlink:href="#DejaVuSans-116"/>
     <use x="547.265625" xlink:href="#DejaVuSans-58"/>
     <use x="580.957031" xlink:href="#DejaVuSans-32"/>
     <use x="612.744141" xlink:href="#DejaVuSans-115"/>
     <use x="664.84375" xlink:href="#DejaVuSans-49"/>
     <use x="728.466797" xlink:href="#DejaVuSans-55"/>
     <use x="792.089844" xlink:href="#DejaVuSans-44"/>
     <use x="823.876953" xlink:href="#DejaVuSans-32"/>
     <use x="855.664062" xlink:href="#DejaVuSans-75"/>
     <use x="921.240234" xlink:href="#DejaVuSans-110"/>
     <use x="984.619141" xlink:href="#DejaVuSans-111"/>
     <use x="1045.800781" xlink:href="#DejaVuSans-119"/>
     <use x="1127.587891" xlink:href="#DejaVuSans-110"/>
     <use x="1190.966797" xlink:href="#DejaVuSans-32"/>
     <use x="1222.753906" xlink:href="#DejaVuSans-61"/>
     <use x="1306.542969" xlink:href="#DejaVuSans-32"/>
     <use x="1338.330078" xlink:href="#DejaVuSans-84"/>
     <use x="1399.195312" xlink:href="#DejaVuSans-114"/>
     <use x="1440.308594" xlink:href="#DejaVuSans-117"/>
     <use x="1503.6875" xlink:href="#DejaVuSans-101"/>
     <use x="1565.210938" xlink:href="#DejaVuSans-44"/>
     <use x="1596.998047" xlink:href="#DejaVuSans-32"/>
     <use x="1628.785156" xlink:href="#DejaVuSans-68"/>
     <use x="1705.787109" xlink:href="#DejaVuSans-101"/>
     <use x="1767.310547" xlink:href="#DejaVuSans-103"/>
     <use x="1830.787109" xlink:href="#DejaVuSans-114"/>
     <use x="1871.869141" xlink:href="#DejaVuSans-101"/>
     <use x="1933.392578" xlink:href="#DejaVuSans-101"/>
     <use x="1994.916016" xlink:href="#DejaVuSans-32"/>
     <use x="2026.703125" xlink:href="#DejaVuSans-61"/>
     <use x="2110.492188" xlink:href="#DejaVuSans-32"/>
     <use x="2142.279297" xlink:href="#DejaVuSans-50"/>
     <use x="2205.902344" xlink:href="#DejaVuSans-44"/>
     <use x="2237.689453" xlink:href="#DejaVuSans-32"/>
     <use x="2269.476562" xlink:href="#DejaVuSans-68"/>
     <use x="2346.478516" xlink:href="#DejaVuSans-117"/>
     <use x="2409.857422" xlink:href="#DejaVuSans-114"/>
     <use x="2450.970703" xlink:href="#DejaVuSans-97"/>
     <use x="2512.25" xlink:href="#DejaVuSans-116"/>
     <use x="2551.458984" xlink:href="#DejaVuSans-105"/>
     <use x="2579.242188" xlink:href="#DejaVuSans-111"/>
     <use x="2640.423828" xlink:href="#DejaVuSans-110"/>
     <use x="2703.802734" xlink:href="#DejaVuSans-32"/>
     <use x="2735.589844" xlink:href="#DejaVuSans-61"/>
     <use x="2819.378906" xlink:href="#DejaVuSans-32"/>
     <use x="2851.166016" xlink:href="#DejaVuSans-48"/>
     <use x="2914.789062" xlink:href="#DejaVuSans-46"/>
     <use x="2946.576172" xlink:href="#DejaVuSans-49"/>
    </g>
   </g>
  </g>
 </g>
 <defs>
  <clipPath id="pd6878f3e41">
   <rect height="266.112" width="357.12" x="57.6" y="41.472"/>
  </clipPath>
 </defs>
</svg>
