<?xml version="1.0" encoding="utf-8" standalone="no"?>
<!DOCTYPE svg PUBLIC "-//W3C//DTD SVG 1.1//EN"
  "http://www.w3.org/Graphics/SVG/1.1/DTD/svg11.dtd">
<!-- Created with matplotlib (https://matplotlib.org/) -->
<svg height="345.6pt" version="1.1" viewBox="0 0 460.8 345.6" width="460.8pt" xmlns="http://www.w3.org/2000/svg" xmlns:xlink="http://www.w3.org/1999/xlink">
 <defs>
  <style type="text/css">
*{stroke-linecap:butt;stroke-linejoin:round;}
  </style>
 </defs>
 <g id="figure_1">
  <g id="patch_1">
   <path d="M 0 345.6 
L 460.8 345.6 
L 460.8 0 
L 0 0 
z
" style="fill:#ffffff;"/>
  </g>
  <g id="axes_1">
   <g id="patch_2">
    <path d="M 57.6 307.584 
L 414.72 307.584 
L 414.72 41.472 
L 57.6 41.472 
z
" style="fill:#ffffff;"/>
   </g>
   <g id="line2d_1">
    <path clip-path="url(#p09a401278b)" d="M 268.969104 250.739628 
L 269.402196 250.848086 
L 269.402196 250.793857 
L 268.969104 251.118656 
L 269.115037 251.064427 
L 269.402196 250.955968 
L 269.830581 251.118656 
L 269.830581 251.118656 
L 284.04731 251.335574 
L 284.908788 251.010198 
L 284.33447 251.335574 
L 284.621629 251.335574 
L 284.475695 251.281344 
L 284.908788 251.227115 
L 284.908788 251.335574 
L 284.908788 251.281344 
L 285.050014 251.118656 
L 285.050014 251.172886 
L 285.483106 251.497685 
L 285.770265 251.551914 
L 286.19865 251.335574 
L 285.624332 251.606144 
L 285.483106 251.823061 
L 285.624332 251.823061 
L 286.057424 251.497685 
L 285.195947 251.281344 
L 285.337173 251.335574 
L 285.337173 251.389803 
L 285.483106 251.497685 
L 286.485809 251.660373 
L 286.772968 251.443456 
L 286.344583 251.551914 
L 286.485809 251.714602 
L 286.772968 251.823061 
L 286.631742 251.87729 
L 286.344583 251.985172 
L 286.344583 252.093631 
L 287.780379 252.039402 
L 287.49322 251.985172 
L 286.485809 251.930943 
L 287.347286 251.930943 
L 287.347286 251.823061 
L 287.206061 251.714602 
L 287.206061 251.768832 
L 287.206061 252.364778 
L 287.206061 252.364778 
L 287.49322 252.14786 
L 287.347286 252.14786 
L 288.208764 252.093631 
L 287.921605 252.20209 
L 287.780379 252.419007 
L 288.783082 252.419007 
L 288.354697 252.526889 
L 287.49322 252.743807 
L 287.780379 252.798036 
L 288.929015 252.689577 
L 288.929015 252.581118 
L 288.783082 252.47266 
L 288.783082 252.526889 
L 288.783082 252.743807 
L 288.354697 252.906495 
L 288.354697 252.743807 
L 288.495923 252.689577 
L 287.921605 252.635348 
L 288.208764 252.581118 
L 287.921605 252.581118 
L 287.634445 252.526889 
L 287.780379 252.47266 
L 288.067538 252.419007 
L 287.206061 252.526889 
L 287.347286 252.581118 
L 287.347286 252.689577 
L 287.206061 252.743807 
L 287.780379 252.635348 
L 288.067538 252.581118 
L 287.780379 253.177065 
L 287.921605 253.068606 
L 287.780379 252.960147 
L 287.060127 252.906495 
L 287.060127 252.960147 
L 287.634445 253.231294 
L 287.780379 253.177065 
L 287.49322 253.177065 
L 287.206061 253.014376 
L 287.347286 252.906495 
L 287.921605 252.960147 
L 287.49322 252.798036 
L 287.634445 252.689577 
L 287.921605 252.798036 
L 287.780379 253.068606 
L 287.206061 253.339753 
L 287.206061 253.231294 
L 286.918901 252.960147 
L 286.918901 253.068606 
L 286.631742 253.068606 
L 286.772968 252.906495 
L 286.19865 253.014376 
L 286.344583 253.068606 
L 286.344583 253.177065 
L 286.057424 253.447634 
L 286.19865 253.339753 
L 286.485809 253.231294 
L 286.344583 253.177065 
L 286.057424 253.122835 
L 286.485809 253.122835 
L 286.344583 253.231294 
L 286.485809 253.447634 
L 286.772968 253.556093 
L 286.918901 253.393982 
L 286.772968 253.231294 
L 285.770265 252.960147 
L 286.057424 253.068606 
L 286.057424 253.285523 
L 285.911491 253.285523 
L 285.911491 253.231294 
L 286.19865 253.014376 
L 285.911491 253.068606 
L 285.483106 253.177065 
L 285.624332 253.231294 
L 285.483106 253.393982 
L 285.483106 253.339753 
L 285.337173 253.231294 
L 285.624332 253.068606 
L 285.483106 252.960147 
L 286.057424 253.339753 
L 285.770265 253.501864 
L 285.911491 253.447634 
L 285.911491 253.285523 
L 285.770265 253.177065 
L 285.624332 253.339753 
L 286.344583 253.501864 
L 287.206061 253.664552 
L 287.206061 253.501864 
L 287.060127 253.285523 
L 286.631742 253.231294 
L 286.057424 253.447634 
L 286.057424 253.556093 
L 286.19865 253.664552 
L 286.772968 253.447634 
L 286.631742 253.447634 
L 286.344583 253.447634 
L 285.624332 253.501864 
L 285.911491 253.610323 
L 286.19865 253.82724 
L 286.631742 253.773011 
L 285.770265 253.881469 
L 286.631742 253.935699 
L 286.631742 254.09781 
L 286.485809 254.043581 
L 287.780379 254.043581 
L 288.208764 253.773011 
L 287.634445 253.989351 
L 287.347286 254.043581 
L 287.347286 253.881469 
L 287.780379 253.773011 
L 287.780379 253.881469 
L 287.921605 253.718781 
L 287.49322 253.881469 
L 286.772968 253.881469 
L 287.921605 253.773011 
L 287.921605 253.664552 
L 287.634445 253.447634 
L 286.918901 253.339753 
L 287.060127 253.339753 
L 287.49322 253.231294 
L 287.634445 253.014376 
L 287.634445 253.177065 
L 287.921605 253.122835 
L 288.208764 252.743807 
L 287.780379 252.526889 
L 287.921605 252.47266 
L 288.208764 252.526889 
L 288.208764 252.526889 
L 289.644559 252.310548 
L 290.793195 251.985172 
L 293.664786 251.660373 
L 297.115403 251.551914 
L 299.125517 251.660373 
L 307.020038 251.714602 
L 311.040266 252.14786 
L 320.949608 252.743807 
L 328.990063 253.501864 
L 331.287336 253.664552 
L 335.307563 254.476839 
L 339.186565 255.289702 
L 343.635177 255.99353 
L 348.088497 256.210448 
L 349.0912 256.427365 
L 351.101314 256.535247 
L 352.24995 256.806394 
L 357.418814 258.756343 
L 357.851906 259.081142 
L 359.428928 259.839777 
L 359.574861 260.110347 
L 359.428928 260.327264 
L 359.428928 260.652063 
L 359.86202 261.139551 
L 360.003246 261.302239 
L 360.003246 261.519156 
L 360.149179 261.735497 
L 360.436338 261.952414 
L 360.436338 262.277214 
L 360.290405 262.60259 
L 359.716087 262.87316 
L 360.577564 262.927389 
L 360.003246 263.360647 
L 359.287702 263.469106 
L 360.149179 263.577565 
L 360.436338 263.739676 
L 360.436338 264.010823 
L 360.290405 264.119281 
L 360.290405 264.281393 
L 359.574861 264.76888 
L 360.436338 265.148485 
L 360.577564 265.527514 
L 360.577564 265.689625 
L 360.577564 265.581743 
L 360.149179 265.743855 
L 360.290405 265.798084 
L 360.003246 265.798084 
L 360.149179 265.906543 
L 360.149179 265.906543 
L 360.290405 265.798084 
L 361.010657 265.743855 
L 360.864723 265.798084 
L 360.577564 265.960772 
L 360.864723 265.906543 
L 361.15659 265.906543 
L 360.864723 266.015001 
L 360.436338 266.069231 
L 361.730908 265.852313 
L 361.010657 266.015001 
L 361.297816 266.12346 
L 361.872134 266.069231 
L 361.730908 266.015001 
L 360.864723 266.015001 
L 360.864723 266.069231 
L 361.297816 265.798084 
L 361.584975 266.069231 
L 361.443749 266.17769 
L 361.297816 266.069231 
L 361.872134 265.743855 
L 362.305226 265.743855 
L 360.723497 265.743855 
L 361.010657 265.689625 
L 360.723497 265.527514 
L 360.436338 265.527514 
L 360.577564 265.635973 
L 360.577564 265.689625 
L 360.577564 265.689625 
L 360.723497 265.743855 
L 360.290405 265.635973 
L 360.864723 265.473285 
L 361.010657 265.581743 
L 360.436338 265.852313 
L 360.290405 265.581743 
L 360.577564 265.635973 
L 360.577564 265.852313 
L 360.290405 266.069231 
L 359.716087 266.12346 
L 360.149179 266.12346 
L 360.149179 266.339801 
L 359.86202 266.44826 
L 359.287702 266.17769 
L 359.716087 266.339801 
L 360.149179 266.44826 
L 360.003246 266.502489 
L 359.428928 266.827288 
L 360.149179 266.989976 
L 359.86202 267.044206 
L 359.86202 267.206317 
L 360.003246 267.206317 
L 359.86202 267.206317 
L 360.436338 267.640152 
L 360.149179 267.531693 
L 359.86202 267.694381 
L 359.428928 267.748034 
L 359.287702 267.531693 
L 359.86202 267.477464 
L 360.003246 267.531693 
L 359.86202 267.585922 
L 359.716087 267.640152 
L 359.86202 267.694381 
L 360.290405 267.694381 
L 360.290405 267.748034 
L 359.86202 267.910722 
L 359.86202 267.910722 
L 360.003246 267.694381 
L 360.149179 267.748034 
L 360.577564 268.235521 
L 360.436338 268.235521 
L 360.577564 268.127639 
L 360.577564 268.01918 
L 359.716087 268.127639 
L 360.290405 268.01918 
L 360.003246 268.181868 
L 359.86202 267.910722 
L 359.574861 268.01918 
L 359.574861 268.181868 
L 359.86202 268.235521 
L 360.149179 268.07341 
L 360.003246 267.856492 
L 361.730908 267.802263 
L 362.305226 267.694381 
L 364.31534 267.640152 
L 366.612613 267.802263 
L 368.476793 268.07341 
L 370.486907 268.127639 
L 371.781477 268.452438 
L 374.078749 269.481643 
L 376.95034 269.69856 
L 377.811818 269.914901 
L 378.527362 270.293929 
L 380.824634 270.944105 
L 383.121907 271.215252 
L 384.844862 271.269481 
L 386.280657 271.540051 
L 389.011022 272.298108 
L 391.73668 272.894054 
L 396.19 274.898233 
L 397.051477 275.332068 
L 398.058888 275.711097 
L 398.487273 276.035896 
L 397.771729 276.84876 
L 397.625795 277.173559 
L 397.197411 277.715276 
L 397.051477 278.040075 
L 396.477159 278.581792 
L 395.474456 278.96082 
L 395.761615 278.96082 
L 396.048774 279.01505 
L 396.048774 279.177738 
L 395.041364 279.773684 
L 394.467045 280.261171 
L 394.608271 280.36963 
L 394.900138 280.315401 
L 394.900138 280.36963 
L 394.754204 280.531741 
L 394.754204 280.964999 
L 394.179886 281.236146 
L 393.746794 281.615175 
L 393.172476 282.048433 
L 393.746794 282.211121 
L 393.892727 282.373809 
L 394.321112 282.53592 
L 394.033953 282.53592 
L 393.746794 282.53592 
L 393.892727 282.644379 
L 394.033953 282.698608 
L 393.892727 282.915526 
L 394.179886 283.186096 
L 393.746794 283.186096 
L 393.746794 283.131866 
L 393.892727 283.240325 
L 393.892727 283.403013 
L 393.172476 283.836271 
L 393.172476 283.836271 
L 393.172476 283.782042 
L 393.318409 283.94473 
L 393.172476 284.106841 
L 393.459635 284.106841 
L 393.746794 284.052612 
L 392.456932 284.269529 
L 392.598157 284.323758 
L 392.310998 284.486446 
L 392.456932 284.486446 
L 392.885317 284.432217 
L 392.310998 284.486446 
L 392.456932 284.377988 
L 392.310998 284.269529 
L 391.73668 284.269529 
L 391.308295 284.377988 
L 391.595454 284.377988 
L 391.882613 284.486446 
L 391.73668 284.594328 
L 391.162362 284.648558 
L 391.162362 284.594328 
L 390.733977 284.540099 
L 391.595454 284.648558 
L 391.595454 284.702787 
L 391.021136 284.919705 
L 391.021136 284.919705 
L 391.308295 284.919705 
L 391.021136 285.028163 
L 390.588044 285.081816 
L 391.308295 284.919705 
L 390.588044 285.081816 
L 390.446818 285.028163 
L 390.588044 285.028163 
L 391.308295 284.919705 
L 391.308295 284.973934 
L 390.733977 285.136045 
L 390.159659 285.028163 
L 390.300885 284.919705 
L 390.300885 284.973934 
L 390.300885 285.081816 
L 390.013726 285.136045 
L 390.733977 284.919705 
L 390.300885 284.865475 
L 389.585341 284.973934 
L 389.585341 284.919705 
L 389.298182 284.702787 
L 388.149545 284.702787 
L 389.298182 284.594328 
L 389.439407 284.540099 
L 388.003612 284.16107 
L 382.547589 282.319579 
L 380.250316 281.506716 
L 374.653067 279.936372 
L 371.207158 279.123508 
L 357.131655 275.223609 
L 343.781111 271.161022 
L 341.050745 270.077589 
L 335.166338 268.181868 
L 326.118472 265.689625 
L 320.229357 263.631794 
L 317.070607 262.656242 
L 310.611881 260.92321 
L 305.009925 259.02749 
L 300.12822 257.239652 
L 293.523561 254.152039 
L 292.51615 253.501864 
L 290.077652 252.526889 
L 289.503333 251.768832 
L 289.216174 251.714602 
L 289.790492 251.823061 
L 290.364811 252.039402 
L 290.364811 252.419007 
L 290.077652 252.526889 
L 289.644559 252.743807 
L 289.3574 252.743807 
L 289.644559 252.689577 
L 290.218877 252.581118 
L 290.793195 252.581118 
L 290.65197 252.526889 
L 290.65197 252.364778 
L 290.218877 252.364778 
L 290.077652 252.419007 
L 290.65197 252.310548 
L 290.793195 252.419007 
L 290.364811 252.47266 
L 290.939129 252.419007 
L 290.793195 252.526889 
L 290.793195 252.743807 
L 290.506036 252.906495 
L 290.65197 252.852265 
L 291.080355 252.906495 
L 290.939129 252.798036 
L 290.65197 252.689577 
L 290.218877 252.798036 
L 290.506036 252.798036 
L 291.367514 252.852265 
L 291.513447 252.960147 
L 290.793195 253.122835 
L 290.939129 253.122835 
L 291.226288 253.177065 
L 290.65197 253.122835 
L 291.226288 253.068606 
L 292.228991 253.177065 
L 292.087765 253.285523 
L 291.654673 253.556093 
L 291.800606 253.556093 
L 292.374924 253.501864 
L 292.228991 253.393982 
L 292.374924 253.393982 
L 291.800606 253.447634 
L 291.800606 253.393982 
L 291.941832 253.339753 
L 292.374924 253.393982 
L 291.941832 253.285523 
L 291.941832 253.122835 
L 292.228991 253.177065 
L 292.228991 253.231294 
L 292.087765 253.285523 
L 292.228991 253.285523 
L 292.803309 253.285523 
L 292.087765 253.068606 
L 292.374924 253.339753 
L 292.374924 253.231294 
L 292.51615 253.122835 
L 292.374924 253.122835 
L 292.087765 253.122835 
L 292.228991 253.068606 
L 292.662083 252.743807 
L 292.228991 252.852265 
L 292.374924 252.743807 
L 291.941832 252.526889 
L 291.367514 252.635348 
L 292.51615 252.364778 
L 292.51615 252.256319 
L 292.803309 251.930943 
L 292.803309 251.930943 
L 292.374924 251.87729 
L 292.087765 251.714602 
L 292.228991 251.551914 
L 292.662083 251.389803 
L 292.662083 251.227115 
L 293.377627 250.955968 
L 293.090468 250.955968 
L 292.662083 250.955968 
L 292.51615 250.793857 
L 292.662083 250.685398 
L 292.51615 250.57694 
L 292.374924 250.631169 
L 292.662083 250.631169 
L 292.51615 250.52271 
L 291.367514 250.414251 
L 291.226288 250.25214 
L 291.367514 250.25214 
L 291.226288 250.143681 
L 291.367514 249.980993 
L 291.800606 249.764653 
L 291.513447 249.601965 
L 290.939129 248.843907 
L 290.793195 248.410073 
L 290.218877 247.706245 
L 289.216174 246.73127 
L 288.208764 245.593607 
L 284.188536 242.289077 
L 280.314242 238.280719 
L 278.158195 234.759849 
L 277.442651 233.622186 
L 277.009559 232.592982 
L 276.7224 230.968409 
L 277.009559 229.2348 
L 277.009559 228.530395 
L 276.868333 227.880796 
L 276.581174 227.339079 
L 275.860922 226.471986 
L 276.006856 226.092958 
L 276.006856 225.713929 
L 275.719697 225.551241 
L 275.860922 225.551241 
L 276.581174 225.822388 
L 276.868333 226.418334 
L 276.868333 226.526216 
L 276.435241 226.688904 
L 276.581174 226.797363 
L 276.435241 226.688904 
L 277.72981 226.526216 
L 277.009559 226.526216 
L 277.009559 226.471986 
L 277.296718 226.255646 
L 277.72981 226.255646 
L 277.72981 226.147187 
L 277.442651 226.038728 
L 278.016969 226.038728 
L 277.155492 225.93027 
L 277.583877 226.147187 
L 277.296718 225.984499 
L 277.871036 225.984499 
L 277.155492 225.984499 
L 277.72981 225.876617 
L 278.304128 225.768159 
L 278.304128 225.876617 
L 278.304128 226.092958 
L 278.304128 226.038728 
L 278.445354 225.822388 
L 277.871036 225.822388 
L 278.016969 225.984499 
L 279.306832 226.147187 
L 279.165606 226.147187 
L 279.452765 225.984499 
L 279.306832 225.93027 
L 278.878447 226.147187 
L 279.165606 225.876617 
L 279.019672 225.822388 
L 278.445354 225.876617 
L 278.732513 225.984499 
L 278.732513 226.038728 
L 279.019672 225.876617 
L 279.165606 225.442782 
L 279.019672 225.442782 
L 279.165606 225.38913 
L 279.452765 225.172212 
L 278.878447 225.442782 
L 279.165606 225.172212 
L 278.445354 225.063754 
L 278.878447 225.063754 
L 279.165606 224.738954 
L 279.165606 224.630496 
L 279.88115 224.630496 
L 280.027083 224.467808 
L 279.593991 224.305696 
L 280.88856 224.143008 
L 280.88856 223.926091 
L 280.601401 223.547062 
L 280.601401 223.113804 
L 280.88856 221.542883 
L 281.462879 220.40522 
L 281.891263 219.051217 
L 282.178423 217.426067 
L 282.178423 213.580397 
L 281.891263 211.576218 
L 280.601401 204.750818 
L 280.314242 202.36761 
L 279.739924 200.092285 
L 279.452765 197.871765 
L 279.452765 195.596439 
L 279.306832 193.267461 
L 279.019672 190.937906 
L 278.878447 188.663157 
L 279.019672 186.442061 
L 279.019672 184.113083 
L 279.165606 181.783528 
L 279.165606 179.45455 
L 279.306832 177.124994 
L 279.593991 174.958704 
L 279.593991 172.791837 
L 279.165606 165.966437 
L 279.165606 163.637459 
L 279.306832 161.200022 
L 279.306832 158.762008 
L 279.019672 156.487259 
L 278.158195 152.370443 
L 278.016969 150.366264 
L 277.583877 148.416314 
L 276.7224 146.628476 
L 275.573763 144.894867 
L 273.56365 141.211885 
L 272.848106 139.369818 
L 272.273787 135.740489 
L 271.553536 133.844768 
L 270.692059 132.057507 
L 270.11774 130.215439 
L 269.830581 128.482407 
L 269.976515 126.911486 
L 269.976515 125.449024 
L 269.402196 122.307182 
L 269.402196 120.682032 
L 269.689355 117.865567 
L 270.263674 115.048524 
L 270.550833 112.1236 
L 271.986628 109.198676 
L 272.127854 107.789866 
L 271.986628 106.490092 
L 271.986628 105.2982 
L 272.127854 104.106884 
L 272.127854 102.752304 
L 272.273787 101.235612 
L 272.273787 98.256459 
L 272.415013 96.902455 
L 272.415013 95.656334 
L 272.127854 94.518671 
L 272.127854 91.106259 
L 271.840695 89.968596 
L 271.840695 88.885163 
L 276.006856 80.922677 
L 276.006856 79.297526 
L 276.581174 77.835064 
L 276.581174 74.422653 
L 276.868333 73.935165 
L 277.871036 72.634814 
L 277.72981 72.526932 
L 278.158195 72.905961 
L 278.158195 73.01442 
L 278.016969 73.339219 
L 277.583877 73.989395 
L 276.868333 74.368423 
L 278.158195 74.422653 
L 278.878447 74.205735 
L 279.739924 74.097276 
L 279.739924 74.151506 
L 279.88115 74.151506 
L 280.027083 73.989395 
L 281.029786 74.151506 
L 281.462879 74.151506 
L 281.316945 74.097276 
L 281.175719 73.935165 
L 282.037197 73.609789 
L 282.324356 73.664018 
L 282.324356 73.664018 
L 282.611515 73.55556 
L 283.472992 73.664018 
L 283.472992 73.609789 
L 283.472992 73.55556 
L 283.472992 73.55556 
L 284.475695 73.664018 
L 284.475695 73.55556 
L 284.188536 73.393448 
L 284.621629 73.55556 
L 283.472992 73.55556 
L 284.188536 73.609789 
L 285.195947 73.55556 
L 285.195947 73.447678 
L 284.621629 73.122302 
L 285.337173 73.122302 
L 285.337173 73.23076 
L 285.050014 73.55556 
L 285.050014 73.609789 
L 284.475695 73.28499 
L 284.621629 73.176531 
L 284.475695 73.23076 
L 285.195947 73.176531 
L 284.908788 73.01442 
L 284.621629 73.068072 
L 284.475695 73.23076 
L 285.337173 73.447678 
L 285.770265 73.393448 
L 285.483106 73.339219 
L 285.195947 73.176531 
L 285.337173 73.23076 
L 285.770265 73.068072 
L 285.770265 73.176531 
L 285.770265 73.23076 
L 286.344583 73.176531 
L 286.344583 73.068072 
L 286.057424 72.905961 
L 286.19865 72.797502 
L 286.344583 72.851732 
L 286.057424 72.689044 
L 286.19865 72.689044 
L 286.344583 72.526932 
L 286.19865 72.580585 
L 285.911491 72.472703 
L 286.772968 72.689044 
L 287.206061 72.418474 
L 286.772968 72.201556 
L 286.918901 72.201556 
L 287.060127 72.147327 
L 286.631742 72.310015 
L 286.918901 72.147327 
L 286.772968 71.985216 
L 287.49322 71.551381 
L 287.780379 71.172352 
L 287.921605 70.630635 
L 287.780379 70.088919 
L 287.780379 69.385091 
L 289.070241 67.380912 
L 289.503333 66.243249 
L 289.644559 65.159815 
L 289.644559 64.076382 
L 290.218877 60.068024 
L 291.080355 57.467899 
L 292.374924 56.113896 
L 293.951946 54.976233 
L 293.951946 54.651433 
L 293.523561 54.217599 
L 293.377627 54.055487 
L 290.506036 53.622229 
L 290.077652 53.568 
L 290.077652 53.675882 
L 289.931718 53.892799 
L 289.503333 54.055487 
L 289.503333 54.001258 
L 288.641856 54.109717 
L 288.641856 54.271828 
L 288.208764 54.705086 
L 288.641856 54.867774 
L 288.641856 54.813545 
L 288.929015 54.705086 
L 288.929015 54.922003 
L 288.641856 55.084692 
L 288.208764 55.084692 
L 288.208764 54.976233 
L 288.495923 54.867774 
L 289.216174 54.922003 
L 288.929015 55.084692 
L 288.067538 55.19315 
L 289.216174 54.976233 
L 289.216174 54.922003 
L 288.067538 55.138921 
L 288.067538 55.138921 
L 288.354697 55.246803 
L 288.929015 54.976233 
L 288.354697 55.138921 
L 288.354697 55.084692 
L 288.641856 55.084692 
L 288.495923 55.19315 
L 288.067538 55.301032 
L 288.495923 55.084692 
L 288.067538 55.138921 
L 288.783082 55.138921 
L 288.641856 55.19315 
L 288.354697 55.246803 
L 288.783082 55.19315 
L 288.783082 55.355261 
L 288.641856 55.409491 
L 288.783082 55.246803 
L 288.783082 55.19315 
L 289.216174 55.301032 
L 287.780379 55.409491 
L 288.067538 55.301032 
L 288.929015 55.301032 
L 288.354697 55.19315 
L 287.921605 55.138921 
L 288.208764 55.246803 
L 287.780379 55.246803 
L 288.067538 54.867774 
L 287.634445 54.922003 
L 287.921605 54.813545 
L 288.208764 54.488745 
L 287.206061 54.651433 
L 287.347286 54.542975 
L 287.347286 54.380287 
L 287.921605 54.326057 
L 287.49322 54.434516 
L 287.49322 54.488745 
L 287.921605 54.055487 
L 287.780379 53.947029 
L 287.780379 53.83857 
L 287.634445 53.83857 
L 287.347286 54.271828 
L 287.060127 54.488745 
L 287.060127 54.867774 
L 286.918901 55.409491 
L 286.485809 56.168125 
L 283.901377 59.472078 
L 283.0399 60.988769 
L 281.891263 62.55969 
L 280.314242 64.130611 
L 278.304128 65.86422 
L 276.581174 67.651482 
L 274.283901 71.118123 
L 272.848106 72.905961 
L 269.115037 78.268322 
L 268.107627 80.001931 
L 266.817764 81.843422 
L 265.09481 83.739719 
L 262.938763 85.743898 
L 260.64149 87.693848 
L 258.918535 89.643797 
L 257.769899 91.593747 
L 255.613852 97.389943 
L 254.465216 101.45253 
L 253.749672 103.456709 
L 251.593625 107.681984 
L 250.444988 109.902503 
L 247.573397 114.452578 
L 245.276125 118.840541 
L 244.127488 120.89895 
L 243.266011 123.06524 
L 242.978852 125.340565 
L 243.124785 127.507432 
L 243.124785 129.565841 
L 242.978852 131.51579 
L 242.978852 133.41151 
L 243.124785 135.36146 
L 242.837626 137.25718 
L 242.404534 139.099248 
L 242.117374 142.837036 
L 242.117374 144.678527 
L 241.830215 146.628476 
L 241.543056 150.745293 
L 241.543056 152.749471 
L 241.830215 154.862109 
L 242.404534 157.028976 
L 243.124785 159.249496 
L 243.55317 161.470592 
L 243.840329 163.637459 
L 244.414647 165.750097 
L 246.137602 169.920566 
L 246.857853 173.875271 
L 246.999079 175.87945 
L 247.573397 179.779349 
L 249.87067 188.879498 
L 251.16524 196.571414 
L 252.742261 200.309202 
L 254.178057 204.209101 
L 254.611149 206.104821 
L 254.898308 207.946889 
L 255.326693 209.73415 
L 256.046944 211.359301 
L 256.621263 212.930222 
L 257.049648 214.501142 
L 257.049648 216.017834 
L 256.762488 218.888529 
L 256.762488 222.030371 
L 257.911125 227.772337 
L 259.205695 231.889154 
L 259.492854 233.297387 
L 259.492854 234.65139 
L 260.067172 240.068558 
L 260.787423 243.318281 
L 260.787423 244.293256 
L 260.64149 245.32246 
L 260.208398 246.351664 
L 259.492854 247.435098 
L 258.631376 249.439277 
L 257.769899 251.010198 
L 257.049648 251.768832 
L 256.621263 252.419007 
L 256.046944 253.664552 
L 255.472626 254.260498 
L 253.603738 257.185422 
L 253.462513 258.160397 
L 253.603738 258.593655 
L 253.462513 259.02749 
L 253.175354 259.514977 
L 252.742261 260.002465 
L 251.593625 260.597834 
L 252.026717 261.19378 
L 251.306466 262.656242 
L 250.878081 263.197959 
L 250.732147 263.523335 
L 249.583511 264.606769 
L 249.583511 264.877339 
L 249.87067 265.148485 
L 248.580808 266.665177 
L 248.580808 266.881518 
L 249.583511 267.206317 
L 249.155126 267.206317 
L 248.867967 267.748034 
L 249.583511 268.398209 
L 249.583511 268.398209 
L 249.296352 268.669356 
L 249.155126 268.939926 
L 248.722034 269.102614 
L 248.434875 269.102614 
L 248.147716 269.264725 
L 248.293649 269.427413 
L 248.580808 269.481643 
L 248.293649 269.69856 
L 248.293649 269.860671 
L 248.00649 270.077589 
L 248.147716 270.077589 
L 248.293649 270.077589 
L 248.580808 270.510847 
L 248.434875 270.619305 
L 248.00649 270.727764 
L 248.00649 270.835646 
L 248.434875 271.161022 
L 248.434875 271.485821 
L 248.580808 271.540051 
L 248.293649 271.540051 
L 248.293649 271.59428 
L 248.434875 271.919079 
L 247.719331 271.86485 
L 247.719331 271.973309 
L 248.147716 272.135997 
L 248.580808 272.135997 
L 248.580808 272.244456 
L 248.580808 272.406567 
L 248.147716 272.244456 
L 248.580808 272.515026 
L 248.722034 272.786172 
L 248.580808 272.894054 
L 249.155126 272.515026 
L 249.155126 272.569255 
L 249.155126 272.786172 
L 249.009193 272.894054 
L 249.155126 272.839825 
L 249.442285 272.731943 
L 249.296352 272.623484 
L 249.155126 272.677714 
L 249.729444 272.786172 
L 249.442285 272.839825 
L 249.155126 273.002513 
L 248.580808 273.110972 
L 248.580808 273.002513 
L 248.434875 272.948284 
L 248.580808 273.056742 
L 248.293649 273.327312 
L 248.722034 273.435771 
L 248.580808 273.54423 
L 248.580808 273.869029 
L 248.434875 273.869029 
L 248.722034 273.761147 
L 249.155126 273.598459 
L 249.155126 273.761147 
L 249.729444 273.815377 
L 249.87067 273.923258 
L 250.732147 274.031717 
L 250.303763 274.031717 
L 250.157829 274.194405 
L 250.590922 274.140176 
L 250.444988 274.194405 
L 250.878081 274.464975 
L 251.452399 274.573434 
L 251.16524 274.519204 
L 251.452399 274.410746 
L 252.167943 274.573434 
L 252.455102 274.844581 
L 252.026717 274.844581 
L 251.019306 274.519204 
L 250.732147 274.356516 
L 244.414647 273.869029 
L 238.671465 272.786172 
L 234.651238 272.352337 
L 230.202626 272.081768 
L 220.434509 271.810621 
L 214.978486 271.702739 
L 209.094078 271.702739 
L 203.204963 271.86485 
L 165.299962 273.652688 
L 131.843573 275.060921 
L 114.609319 276.523383 
L 95.082501 277.985846 
L 88.044749 278.636021 
L 77.99418 279.990024 
L 77.707021 280.206942 
L 77.565796 280.477512 
L 77.852955 280.748659 
L 79.142817 281.181917 
L 79.863068 281.560945 
L 80.291453 281.615175 
L 80.578612 281.832092 
L 80.437387 282.156891 
L 80.150227 282.373809 
L 79.429976 282.698608 
L 79.429976 282.861296 
L 79.28875 283.077637 
L 79.28875 283.294554 
L 79.429976 283.457242 
L 78.140114 284.2153 
L 78.427273 284.432217 
L 78.140114 284.811246 
L 77.707021 284.757016 
L 77.707021 284.865475 
L 77.852955 285.028163 
L 78.568499 285.298733 
L 77.852955 285.569303 
L 77.99418 285.677762 
L 78.714432 285.731991 
L 78.855658 285.894679 
L 78.714432 286.05679 
L 78.427273 286.273708 
L 78.714432 286.544855 
L 78.714432 286.706966 
L 78.140114 287.032342 
L 78.28134 287.085995 
L 79.001591 287.248683 
L 78.855658 287.411371 
L 78.568499 287.51983 
L 77.99418 287.574059 
L 78.28134 287.844629 
L 78.28134 287.790399 
L 78.568499 287.73617 
L 78.427273 287.898858 
L 78.714432 288.007317 
L 78.714432 287.898858 
L 78.714432 287.898858 
L 77.99418 288.277887 
L 77.707021 288.440575 
L 77.565796 288.440575 
L 77.565796 288.494804 
L 77.419862 288.603263 
L 77.707021 288.711145 
L 77.565796 288.765374 
L 77.419862 288.819604 
L 77.565796 288.819604 
L 78.140114 288.982292 
L 77.278636 289.198632 
L 76.558385 289.252862 
L 76.417159 289.469779 
L 77.419862 289.41555 
L 77.278636 289.524008 
L 76.704318 289.848808 
L 76.271226 290.011496 
L 76.417159 290.065725 
L 76.417159 290.173607 
L 76.704318 290.173607 
L 75.842841 290.065725 
L 75.842841 290.282066 
L 75.842841 290.119955 
L 75.984067 290.065725 
L 75.555682 290.282066 
L 75.555682 290.390524 
L 75.696908 290.444754 
L 75.409749 290.444754 
L 75.122589 290.823782 
L 75.268523 290.823782 
L 75.696908 290.715324 
L 75.696908 290.498983 
L 75.409749 290.390524 
L 74.981364 290.715324 
L 75.268523 290.607442 
L 75.555682 290.661094 
L 75.409749 290.878012 
L 75.409749 290.932241 
L 75.555682 290.932241 
L 75.409749 291.0407 
L 75.409749 291.094929 
L 74.407045 291.0407 
L 74.261112 290.932241 
L 74.981364 290.715324 
L 74.981364 290.823782 
L 74.83543 290.986471 
L 73.832727 291.365499 
L 74.261112 291.473958 
L 74.407045 291.636646 
L 74.119886 291.744528 
L 73.832727 291.582417 
L 73.973953 291.528187 
L 74.694205 291.582417 
L 74.407045 291.636646 
L 74.119886 291.636646 
L 73.973953 291.636646 
L 74.83543 291.744528 
L 74.694205 291.852987 
L 73.973953 291.961445 
L 74.548271 291.744528 
L 74.548271 291.690299 
L 74.407045 291.636646 
L 74.261112 291.744528 
L 74.548271 292.015675 
L 74.407045 292.069904 
L 74.407045 292.124133 
L 74.407045 292.124133 
L 74.694205 291.961445 
L 74.83543 291.961445 
L 74.694205 292.069904 
L 73.973953 292.232015 
L 73.832727 292.232015 
L 73.973953 292.286245 
L 74.119886 292.448933 
L 75.268523 292.286245 
L 74.548271 292.286245 
L 74.694205 292.177786 
L 74.981364 292.340474 
L 74.407045 292.124133 
L 74.548271 292.177786 
L 74.83543 292.448933 
L 74.694205 292.66585 
L 74.83543 292.286245 
L 74.261112 292.177786 
L 73.973953 292.177786 
L 75.268523 292.177786 
L 75.268523 292.124133 
L 75.268523 291.907216 
L 75.555682 291.798757 
L 75.409749 291.798757 
L 74.981364 291.852987 
L 74.83543 292.069904 
L 74.981364 291.961445 
L 75.555682 291.690299 
L 75.409749 291.690299 
L 75.409749 291.582417 
L 75.555682 291.582417 
L 75.555682 291.473958 
L 74.981364 291.31127 
L 75.268523 291.149159 
L 75.122589 291.0407 
L 74.83543 291.0407 
L 74.83543 291.202811 
L 74.981364 291.202811 
L 74.981364 291.0407 
L 74.83543 290.878012 
L 74.981364 290.823782 
L 75.984067 290.769553 
L 75.842841 290.715324 
L 76.704318 290.444754 
L 76.417159 290.553213 
L 76.845544 290.336295 
L 76.417159 290.444754 
L 76.704318 290.282066 
L 76.704318 290.119955 
L 76.558385 290.173607 
L 76.704318 290.390524 
L 76.991477 290.444754 
L 76.417159 290.282066 
L 76.845544 290.173607 
L 76.704318 290.119955 
L 76.271226 290.065725 
L 75.984067 289.957266 
L 76.417159 290.065725 
L 76.845544 289.848808 
L 76.704318 289.848808 
L 76.558385 289.848808 
L 76.704318 289.848808 
L 77.419862 290.065725 
L 78.28134 289.794578 
L 78.140114 289.740349 
L 77.132703 289.794578 
L 76.991477 289.903037 
L 77.132703 290.011496 
L 77.132703 290.173607 
L 77.278636 290.227836 
L 77.278636 290.173607 
L 77.707021 290.119955 
L 77.852955 290.227836 
L 77.99418 290.173607 
L 77.707021 289.794578 
L 78.140114 289.740349 
L 78.140114 290.011496 
L 78.427273 290.065725 
L 79.575909 289.740349 
L 79.717135 289.740349 
L 79.28875 289.68612 
L 79.575909 289.63189 
L 79.575909 289.578238 
L 79.28875 289.469779 
L 79.429976 289.41555 
L 79.863068 289.41555 
L 79.429976 289.740349 
L 80.004294 289.794578 
L 79.717135 289.68612 
L 79.142817 289.36132 
L 79.142817 289.41555 
L 79.28875 289.578238 
L 79.717135 289.740349 
L 79.575909 289.63189 
L 81.011705 289.68612 
L 80.724546 289.740349 
L 80.437387 289.848808 
L 81.298864 289.578238 
L 81.298864 289.63189 
L 81.44009 289.68612 
L 81.44009 289.63189 
L 81.44009 289.524008 
L 81.727249 289.307091 
L 81.44009 289.252862 
L 82.588726 289.198632 
L 83.883296 289.252862 
L 86.034635 289.09075 
L 91.062273 288.494804 
L 103.697274 287.790399 
L 114.035001 286.923883 
L 126.095683 286.219479 
L 148.211641 285.298733 
L 171.904621 284.648558 
L 188.27269 284.269529 
L 204.353599 283.565124 
L 212.106895 283.131866 
L 242.978852 282.156891 
L 259.059761 282.211121 
L 275.286604 282.482268 
L 297.115403 283.023407 
L 317.070607 284.106841 
L 329.423156 284.973934 
L 339.760883 285.786221 
L 348.229723 286.219479 
L 351.388473 286.544855 
L 356.270178 287.302912 
L 357.851906 287.4656 
L 358.85461 287.790399 
L 359.287702 288.277887 
L 359.287702 288.711145 
L 359.141769 288.982292 
L 358.280291 289.36132 
L 357.418814 289.794578 
L 357.131655 290.119955 
L 356.844496 290.282066 
L 356.844496 290.715324 
L 356.990429 290.932241 
L 357.277588 291.149159 
L 357.564747 291.202811 
L 357.705973 291.0407 
L 357.705973 291.0407 
L 358.280291 291.582417 
L 358.56745 291.798757 
L 357.993132 291.961445 
L 358.139066 291.961445 
L 358.280291 292.069904 
L 357.277588 292.394703 
L 357.705973 292.394703 
L 357.851906 292.448933 
L 357.705973 292.503162 
L 356.990429 292.448933 
L 357.277588 292.611621 
L 357.564747 292.93642 
L 357.705973 292.93642 
L 357.705973 292.827961 
L 357.277588 292.719503 
L 357.277588 292.827961 
L 357.277588 292.990649 
L 357.131655 293.044879 
L 357.418814 293.044879 
L 358.85461 293.044879 
L 358.426225 292.93642 
L 358.426225 292.827961 
L 358.713384 292.773732 
L 358.713384 292.827961 
L 358.713384 292.882191 
L 358.85461 292.882191 
L 358.85461 292.882191 
L 359.000543 293.153338 
L 359.428928 293.044879 
L 359.428928 292.93642 
L 358.85461 293.044879 
L 359.141769 293.153338 
L 359.141769 293.099108 
L 358.426225 292.93642 
L 359.000543 293.153338 
L 359.428928 293.261219 
L 359.141769 293.261219 
L 359.000543 293.369678 
L 359.141769 293.369678 
L 359.86202 293.20699 
L 359.428928 293.423907 
L 359.287702 293.478137 
L 359.287702 293.369678 
L 359.287702 293.20699 
L 360.149179 293.099108 
L 360.149179 293.153338 
L 360.290405 293.153338 
L 359.428928 293.20699 
L 359.428928 293.261219 
L 359.86202 293.315449 
L 360.149179 293.153338 
L 360.149179 292.990649 
L 360.003246 292.93642 
L 359.86202 293.044879 
L 360.149179 293.153338 
L 360.723497 293.153338 
L 360.436338 293.153338 
L 361.443749 292.990649 
L 361.584975 293.044879 
L 361.443749 293.153338 
L 361.584975 293.153338 
L 361.872134 293.099108 
L 361.297816 293.153338 
L 360.723497 293.044879 
L 361.15659 293.153338 
L 361.010657 293.261219 
L 360.723497 293.261219 
L 360.436338 293.423907 
L 360.577564 293.478137 
L 360.864723 293.315449 
L 361.872134 293.261219 
L 362.159293 293.586596 
L 362.018067 293.478137 
L 362.159293 293.261219 
L 362.305226 293.261219 
L 362.159293 293.369678 
L 362.159293 293.478137 
L 362.159293 293.478137 
L 362.018067 293.423907 
L 361.297816 293.423907 
L 362.305226 293.315449 
L 362.592385 293.261219 
L 362.592385 293.369678 
L 362.446452 293.478137 
L 362.446452 293.478137 
L 362.446452 293.315449 
L 362.305226 293.478137 
L 362.592385 293.153338 
L 362.305226 293.261219 
L 362.018067 293.478137 
L 362.446452 293.20699 
L 362.159293 293.315449 
L 361.730908 293.423907 
L 362.159293 293.369678 
L 362.592385 293.261219 
L 362.305226 293.315449 
L 362.305226 293.20699 
L 362.018067 293.261219 
L 362.018067 293.261219 
L 362.018067 293.369678 
L 361.872134 293.423907 
L 361.584975 293.261219 
L 361.730908 293.153338 
L 362.733611 293.261219 
L 362.592385 293.153338 
L 362.305226 293.099108 
L 362.159293 293.20699 
L 362.446452 293.423907 
L 362.446452 293.315449 
L 362.305226 293.044879 
L 362.305226 292.93642 
L 362.018067 292.93642 
L 362.159293 293.044879 
L 362.159293 293.315449 
L 362.159293 293.261219 
L 361.872134 293.369678 
L 362.733611 293.261219 
L 362.733611 293.315449 
L 362.305226 293.423907 
L 362.446452 293.369678 
L 362.159293 293.261219 
L 361.872134 293.423907 
L 362.305226 293.261219 
L 362.305226 293.315449 
L 362.018067 293.153338 
L 362.018067 293.20699 
L 361.584975 293.478137 
L 361.730908 293.532366 
L 361.872134 293.532366 
L 361.872134 293.586596 
L 362.159293 293.748707 
L 362.733611 293.532366 
L 362.159293 293.695054 
L 362.018067 293.532366 
L 362.305226 293.640825 
L 362.446452 293.640825 
L 362.159293 293.695054 
L 362.305226 293.586596 
L 362.305226 293.315449 
L 362.879544 293.423907 
L 362.879544 293.532366 
L 362.018067 293.423907 
L 362.592385 293.586596 
L 362.592385 293.695054 
L 362.879544 293.695054 
L 362.879544 293.586596 
L 362.446452 293.478137 
L 362.592385 293.586596 
L 362.018067 293.586596 
L 362.305226 293.478137 
L 362.446452 293.423907 
L 362.159293 293.586596 
L 362.592385 293.748707 
L 363.307929 293.695054 
L 363.166704 293.640825 
L 362.592385 293.532366 
L 362.879544 293.695054 
L 362.879544 293.640825 
L 363.453863 293.315449 
L 363.307929 293.315449 
L 362.446452 293.586596 
L 362.733611 293.478137 
L 363.166704 293.640825 
L 362.733611 293.640825 
L 363.166704 293.532366 
L 362.733611 293.261219 
L 362.879544 293.20699 
L 363.02077 293.315449 
L 362.592385 293.640825 
L 362.159293 293.695054 
L 362.018067 293.586596 
L 362.446452 293.20699 
L 362.159293 293.315449 
L 362.159293 293.369678 
L 363.307929 293.261219 
L 363.453863 293.20699 
L 362.733611 292.990649 
L 363.166704 293.044879 
L 363.595088 292.882191 
L 363.02077 292.827961 
L 363.166704 292.882191 
L 363.166704 292.66585 
L 363.307929 292.448933 
L 363.882248 292.394703 
L 364.169407 292.503162 
L 363.741022 292.611621 
L 363.166704 292.611621 
L 363.166704 292.394703 
L 363.453863 292.124133 
L 363.307929 291.961445 
L 363.453863 292.177786 
L 363.882248 292.124133 
L 364.028181 291.961445 
L 363.882248 291.852987 
L 363.595088 291.852987 
L 363.882248 291.744528 
L 363.882248 291.690299 
L 363.453863 291.907216 
L 363.307929 291.798757 
L 363.595088 291.636646 
L 363.741022 291.31127 
L 363.741022 291.25704 
L 364.169407 291.202811 
L 363.882248 291.149159 
L 363.882248 290.932241 
L 364.169407 290.878012 
L 363.882248 290.986471 
L 363.882248 290.878012 
L 364.028181 290.715324 
L 364.743725 290.498983 
L 364.169407 290.607442 
L 363.595088 290.661094 
L 364.31534 290.661094 
L 363.882248 290.878012 
L 363.741022 290.878012 
L 363.741022 290.607442 
L 364.028181 290.390524 
L 363.882248 290.498983 
L 364.028181 290.715324 
L 363.453863 290.607442 
L 363.166704 290.553213 
L 363.453863 290.498983 
L 364.31534 290.661094 
L 363.882248 290.498983 
L 364.31534 290.444754 
L 363.741022 290.661094 
L 363.453863 290.607442 
L 363.307929 290.715324 
L 363.307929 290.715324 
L 363.307929 290.553213 
L 362.879544 290.336295 
L 363.02077 290.444754 
L 363.02077 290.553213 
L 363.453863 290.607442 
L 363.741022 290.607442 
L 363.741022 290.553213 
L 363.453863 290.336295 
L 363.741022 290.173607 
L 364.028181 290.119955 
L 363.741022 290.173607 
L 363.595088 290.336295 
L 363.741022 290.390524 
L 364.028181 290.282066 
L 363.882248 290.227836 
L 363.02077 290.173607 
L 363.307929 290.065725 
L 363.741022 290.065725 
L 363.453863 289.957266 
L 363.166704 289.794578 
L 363.741022 290.011496 
L 363.741022 289.957266 
L 362.733611 289.740349 
L 362.733611 289.903037 
L 363.02077 290.065725 
L 363.02077 289.903037 
L 363.453863 289.740349 
L 363.453863 289.848808 
L 363.453863 289.903037 
L 363.595088 289.903037 
L 363.595088 289.794578 
L 363.453863 289.68612 
L 363.453863 289.794578 
L 362.733611 289.578238 
L 363.595088 289.41555 
L 363.595088 289.307091 
L 362.446452 289.144403 
L 361.443749 288.873833 
L 360.003246 288.603263 
L 355.554634 288.115199 
L 349.665518 287.194453 
L 345.504065 286.815425 
L 316.929381 284.973934 
L 296.107993 284.377988 
L 289.644559 284.269529 
L 275.719697 284.377988 
L 268.25356 284.432217 
L 260.787423 284.648558 
L 239.391717 285.515651 
L 209.235304 286.652737 
L 188.847008 287.51983 
L 171.043144 288.115199 
L 159.410846 288.223657 
L 145.052891 288.332116 
L 138.01514 288.656915 
L 133.707753 289.09075 
L 131.269255 289.252862 
L 130.120618 289.578238 
L 130.694936 290.065725 
L 130.694936 290.282066 
L 130.982096 290.444754 
L 132.417891 290.769553 
L 132.70505 291.0407 
L 132.559117 291.094929 
L 132.271958 291.25704 
L 132.417891 291.419729 
L 131.984799 291.690299 
L 131.123321 291.907216 
L 130.694936 291.907216 
L 130.407777 292.069904 
L 130.261844 292.286245 
L 130.836162 292.340474 
L 131.69764 292.232015 
L 131.69764 292.286245 
L 131.69764 292.340474 
L 131.984799 292.340474 
L 131.984799 292.394703 
L 131.41048 292.611621 
L 131.69764 292.611621 
L 131.843573 292.611621 
L 131.41048 292.719503 
L 131.41048 292.827961 
L 131.69764 292.990649 
L 131.41048 293.099108 
L 130.982096 293.099108 
L 130.261844 293.315449 
L 130.549003 293.315449 
L 130.836162 293.315449 
L 129.974685 293.423907 
L 130.120618 293.478137 
L 131.269255 293.369678 
L 131.41048 293.261219 
L 130.694936 293.802936 
L 131.123321 293.695054 
L 130.694936 293.478137 
L 130.694936 293.532366 
L 131.41048 293.586596 
L 130.549003 293.478137 
L 131.269255 293.423907 
L 131.123321 293.261219 
L 131.123321 293.315449 
L 129.687526 293.748707 
L 129.974685 293.586596 
L 130.549003 293.478137 
L 130.407777 293.586596 
L 130.549003 293.695054 
L 130.407777 293.640825 
L 130.120618 293.695054 
L 129.833459 293.695054 
L 129.5463 293.857165 
L 129.5463 293.857165 
L 128.971982 293.748707 
L 128.971982 293.857165 
L 129.400367 293.857165 
L 129.687526 293.695054 
L 129.687526 293.695054 
L 128.971982 293.748707 
L 128.826049 293.640825 
L 129.113208 293.748707 
L 129.400367 293.857165 
L 129.259141 293.857165 
L 128.684823 293.857165 
L 129.113208 293.965624 
L 129.113208 294.019854 
L 129.113208 293.965624 
L 128.971982 293.802936 
L 128.538889 293.802936 
L 128.826049 293.911395 
L 128.971982 294.019854 
L 128.25173 294.074083 
L 128.397664 294.019854 
L 128.538889 293.911395 
L 127.823345 294.182542 
L 128.25173 294.182542 
L 128.397664 294.236194 
L 128.25173 294.182542 
L 128.25173 293.802936 
L 128.25173 293.802936 
L 127.823345 294.074083 
L 127.964571 294.182542 
L 127.964571 294.182542 
L 127.249027 294.236194 
L 127.964571 294.074083 
L 127.964571 294.019854 
L 127.964571 294.074083 
L 128.110505 294.236194 
L 127.677412 294.290424 
L 127.823345 294.182542 
L 128.25173 294.074083 
L 128.110505 294.182542 
L 128.110505 294.236194 
L 128.538889 294.128312 
L 128.397664 294.019854 
L 128.397664 294.074083 
L 128.397664 294.236194 
L 128.110505 294.453112 
L 128.397664 294.290424 
L 128.684823 294.398882 
L 128.397664 294.453112 
L 128.538889 294.344653 
L 128.538889 294.290424 
L 128.684823 294.398882 
L 128.538889 294.453112 
L 128.538889 294.344653 
L 128.538889 294.236194 
L 127.964571 294.290424 
L 127.964571 294.56157 
L 127.677412 294.6158 
L 127.390253 294.507341 
L 127.390253 294.507341 
L 127.823345 294.453112 
L 127.823345 294.56157 
L 127.390253 294.56157 
L 127.390253 294.670029 
L 127.677412 294.777911 
L 127.823345 294.670029 
L 127.536186 294.777911 
L 127.536186 294.507341 
L 127.536186 294.507341 
L 127.390253 294.398882 
L 127.677412 294.56157 
L 127.677412 294.56157 
L 127.103094 294.56157 
L 127.964571 294.453112 
L 127.536186 294.6158 
L 127.536186 294.723682 
L 127.536186 294.6158 
L 127.390253 294.507341 
L 127.677412 294.83214 
L 127.390253 294.940599 
L 127.249027 294.777911 
L 127.536186 294.670029 
L 127.677412 294.83214 
L 127.677412 295.049058 
L 127.249027 295.049058 
L 127.249027 294.940599 
L 127.390253 294.83214 
L 127.249027 294.777911 
L 126.382842 294.83214 
L 127.677412 294.88637 
L 127.536186 294.83214 
L 127.536186 295.319628 
L 127.536186 295.211746 
L 127.677412 295.049058 
L 127.964571 294.994828 
L 127.964571 295.049058 
L 128.110505 295.103287 
L 130.836162 294.670029 
L 132.559117 294.398882 
L 136.725278 294.019854 
L 143.471163 293.153338 
L 156.96764 292.124133 
L 167.597234 291.149159 
L 179.799142 290.227836 
L 229.482374 287.357141 
L 252.167943 286.436396 
L 260.067172 286.05679 
L 275.432537 285.731991 
L 291.080355 285.677762 
L 313.911857 285.786221 
L 335.453497 286.706966 
L 348.229723 287.194453 
L 354.693156 287.51983 
L 360.577564 288.007317 
L 376.517248 288.873833 
L 382.119204 290.119955 
L 382.406363 290.282066 
L 382.26043 290.498983 
L 380.824634 291.202811 
L 379.821931 291.528187 
L 379.963157 291.582417 
L 379.821931 291.636646 
L 379.821931 291.744528 
L 380.396249 291.907216 
L 380.396249 292.124133 
L 380.250316 292.286245 
L 380.250316 292.286245 
L 379.963157 292.232015 
L 380.683409 292.394703 
L 380.10909 292.286245 
L 379.675998 292.394703 
L 379.388839 292.66585 
L 378.814521 292.66585 
L 379.10168 292.882191 
L 379.247613 292.773732 
L 378.960454 292.93642 
L 378.240202 292.827961 
L 379.10168 292.611621 
L 379.388839 292.66585 
L 379.10168 292.990649 
L 378.960454 293.099108 
L 378.960454 292.93642 
L 378.960454 292.719503 
L 379.388839 292.448933 
L 379.821931 292.66585 
L 378.527362 292.611621 
L 378.960454 292.557391 
L 379.675998 292.394703 
L 379.675998 292.448933 
L 379.534772 292.448933 
L 379.675998 292.394703 
L 379.675998 292.232015 
L 379.534772 292.232015 
L 379.675998 292.124133 
L 379.675998 291.907216 
L 379.534772 291.798757 
L 379.821931 292.069904 
L 379.675998 292.124133 
L 379.675998 291.961445 
L 379.821931 291.798757 
L 379.675998 292.069904 
L 379.675998 292.015675 
L 380.250316 291.744528 
L 380.396249 291.744528 
L 380.10909 291.852987 
L 379.675998 291.961445 
L 380.10909 291.961445 
L 380.824634 292.069904 
L 379.963157 291.961445 
L 380.10909 291.907216 
L 380.537475 291.690299 
L 380.10909 291.636646 
L 380.250316 291.636646 
L 379.388839 291.582417 
L 379.388839 291.473958 
L 380.10909 291.473958 
L 379.963157 291.528187 
L 380.396249 291.31127 
L 380.396249 291.202811 
L 379.821931 291.202811 
L 380.10909 291.419729 
L 380.396249 291.202811 
L 380.537475 291.094929 
L 379.534772 291.149159 
L 379.963157 291.202811 
L 380.537475 291.31127 
L 380.396249 291.31127 
L 379.963157 291.365499 
L 380.250316 291.25704 
L 380.250316 291.094929 
L 380.10909 291.0407 
L 379.963157 291.202811 
L 380.250316 291.202811 
L 379.963157 291.25704 
L 379.821931 291.419729 
L 379.963157 291.419729 
L 380.10909 291.31127 
L 380.10909 291.149159 
L 380.250316 291.094929 
L 380.250316 291.202811 
L 379.963157 291.365499 
L 379.821931 291.25704 
L 380.824634 290.986471 
L 380.396249 290.986471 
L 380.10909 290.932241 
L 379.388839 290.986471 
L 380.824634 290.823782 
L 380.824634 290.878012 
L 380.824634 290.932241 
L 380.10909 290.823782 
L 380.10909 290.715324 
L 380.250316 290.769553 
L 380.10909 290.932241 
L 380.250316 290.823782 
L 380.537475 290.715324 
L 380.396249 290.715324 
L 379.247613 290.661094 
L 379.963157 290.661094 
L 379.963157 290.553213 
L 380.10909 290.336295 
L 378.960454 290.661094 
L 379.247613 290.661094 
L 379.821931 290.553213 
L 379.821931 290.390524 
L 379.534772 290.336295 
L 379.388839 290.444754 
L 379.821931 290.444754 
L 379.534772 290.444754 
L 379.963157 290.282066 
L 379.963157 290.173607 
L 378.960454 290.119955 
L 379.10168 290.065725 
L 379.388839 290.011496 
L 379.247613 290.119955 
L 379.247613 290.173607 
L 379.247613 290.119955 
L 379.675998 290.065725 
L 379.821931 290.065725 
L 379.675998 290.119955 
L 380.250316 290.390524 
L 380.250316 290.282066 
L 379.388839 290.227836 
L 379.388839 290.336295 
L 379.534772 290.227836 
L 379.388839 290.065725 
L 379.388839 290.173607 
L 379.10168 290.227836 
L 379.388839 290.065725 
L 379.247613 289.848808 
L 379.10168 290.065725 
L 379.388839 289.848808 
L 379.534772 289.848808 
L 379.821931 290.011496 
L 379.821931 290.173607 
L 378.960454 290.173607 
L 379.534772 289.957266 
L 379.388839 289.957266 
L 378.527362 289.848808 
L 378.386136 289.957266 
L 378.814521 290.011496 
L 379.247613 289.957266 
L 379.247613 290.011496 
L 379.247613 289.957266 
L 378.386136 289.848808 
L 378.527362 289.68612 
L 379.963157 289.198632 
L 379.821931 289.198632 
L 379.388839 288.982292 
L 377.953043 287.898858 
L 375.227386 286.598507 
L 373.358498 286.003138 
L 367.761249 284.594328 
L 360.290405 282.861296 
L 356.270178 281.832092 
L 352.537109 280.748659 
L 339.186565 276.252813 
L 336.314974 275.223609 
L 333.730542 274.140176 
L 330.858951 273.110972 
L 320.516516 269.914901 
L 295.533674 260.814751 
L 287.780379 258.323085 
L 278.016969 254.314727 
L 275.432537 253.068606 
L 271.125151 250.57694 
L 269.115037 249.547735 
L 266.243446 247.760474 
L 263.371855 246.298012 
L 262.364445 245.539378 
L 261.074582 244.131145 
L 260.928649 243.643657 
L 261.074582 243.318281 
L 261.074582 242.776564 
L 262.223219 242.614453 
L 262.651604 242.451765 
L 263.225922 242.993482 
L 263.225922 242.668683 
L 263.225922 242.885023 
L 263.513081 242.885023 
L 263.80024 242.668683 
L 263.80024 242.505995 
L 264.661717 241.910048 
L 264.661717 241.910048 
L 264.087399 241.693708 
L 264.374558 241.585249 
L 264.807651 241.693708 
L 264.948877 241.964278 
L 264.807651 242.018507 
L 264.948877 241.964278 
L 265.669128 242.126966 
L 265.810354 242.072737 
L 265.236036 242.181195 
L 264.807651 242.234848 
L 265.669128 242.560224 
L 265.669128 242.451765 
L 265.669128 242.289077 
L 265.669128 242.397536 
L 265.810354 242.560224 
L 266.384672 242.614453 
L 266.243446 242.505995 
L 265.810354 242.397536 
L 266.097513 242.668683 
L 266.243446 242.668683 
L 265.236036 242.776564 
L 265.236036 242.776564 
L 265.669128 242.830794 
L 266.530605 242.722912 
L 266.530605 242.776564 
L 266.097513 242.885023 
L 266.243446 242.939253 
L 266.530605 243.15617 
L 266.243446 243.264052 
L 266.671831 243.210399 
L 266.95899 243.42674 
L 266.95899 243.535199 
L 266.817764 243.535199 
L 266.817764 243.589428 
L 266.817764 243.697887 
L 266.817764 243.643657 
L 266.95899 243.535199 
L 267.392083 243.42674 
L 267.966401 243.480969 
L 266.95899 243.42674 
L 266.95899 243.697887 
L 266.817764 243.805769 
L 266.95899 243.859998 
L 267.533308 243.697887 
L 266.95899 243.589428 
L 266.384672 243.968457 
L 266.530605 244.076915 
L 267.104924 244.022686 
L 268.107627 243.805769 
L 267.104924 243.914227 
L 266.95899 243.914227 
L 266.671831 244.347485 
L 266.95899 244.455944 
L 267.246149 244.239604 
L 266.95899 244.347485 
L 266.671831 244.293256 
L 266.817764 244.293256 
L 267.246149 244.239604 
L 267.392083 244.455944 
L 266.671831 244.347485 
L 266.817764 244.293256 
L 267.820468 244.293256 
L 266.671831 244.185374 
L 266.243446 244.131145 
L 266.384672 244.239604 
L 266.817764 244.293256 
L 266.817764 244.239604 
L 266.817764 244.076915 
L 266.530605 244.022686 
L 266.384672 244.185374 
L 266.671831 244.510173 
L 266.817764 244.401715 
L 267.246149 244.239604 
L 267.966401 244.293256 
L 267.966401 244.401715 
L 267.679242 244.564403 
L 267.104924 244.455944 
L 267.104924 244.401715 
L 267.104924 244.455944 
L 267.246149 244.564403 
L 266.097513 244.401715 
L 266.671831 244.564403 
L 266.243446 244.564403 
L 266.384672 244.564403 
L 266.530605 244.455944 
L 267.104924 244.510173 
L 267.104924 244.510173 
L 266.384672 244.834973 
L 266.530605 244.943431 
L 266.097513 244.889202 
L 266.097513 244.834973 
L 266.384672 244.780743 
L 266.384672 244.943431 
L 265.956287 244.780743 
L 265.669128 244.834973 
L 265.956287 244.889202 
L 266.671831 244.943431 
L 266.097513 244.997661 
L 266.384672 245.160349 
L 266.384672 245.05189 
L 266.671831 244.889202 
L 266.384672 245.10612 
L 266.671831 244.943431 
L 266.671831 244.943431 
L 266.384672 244.943431 
L 266.384672 244.997661 
L 266.384672 245.10612 
L 266.530605 244.997661 
L 266.530605 244.727091 
L 266.530605 244.727091 
L 266.95899 244.401715 
L 266.817764 244.076915 
L 265.956287 243.15617 
L 263.80024 240.014328 
L 261.790126 237.089404 
L 261.648901 236.439228 
L 261.648901 235.789053 
L 261.074582 233.243157 
L 261.502967 232.809899 
L 261.074582 232.539329 
L 260.928649 232.322412 
L 260.928649 232.4851 
L 260.787423 232.592982 
L 261.361742 232.376641 
L 262.364445 232.647211 
L 262.364445 232.592982 
L 262.223219 232.4851 
L 261.93606 232.430871 
L 262.364445 232.4851 
L 263.371855 232.322412 
L 262.797537 232.051265 
L 262.938763 232.051265 
L 262.938763 231.997613 
L 262.510378 232.213953 
L 262.364445 232.213953 
L 262.938763 232.105495 
L 262.938763 231.889154 
L 262.797537 231.834925 
L 262.510378 231.997613 
L 262.938763 231.889154 
L 262.938763 231.889154 
L 262.938763 231.834925 
L 263.225922 231.618007 
L 263.084696 231.672236 
L 262.364445 231.834925 
L 261.93606 231.726466 
L 262.077286 231.726466 
L 262.651604 231.401667 
L 262.651604 231.293208 
L 262.223219 231.563778 
L 262.651604 231.510125 
L 262.651604 231.347437 
L 262.797537 231.293208 
L 262.510378 231.07629 
L 262.797537 231.022061 
L 263.225922 231.022061 
L 262.364445 230.968409 
L 262.797537 230.914179 
L 262.938763 230.85995 
L 262.797537 230.643032 
L 263.084696 230.534574 
L 263.225922 230.534574 
L 262.651604 230.643032 
L 263.084696 230.643032 
L 263.513081 230.697262 
L 263.513081 230.588803 
L 264.087399 230.264004 
L 263.225922 230.318233 
L 262.938763 230.318233 
L 263.225922 230.209774 
L 263.225922 230.155545 
L 263.225922 230.264004 
L 263.946173 230.155545 
L 263.80024 230.264004 
L 264.520492 230.318233 
L 263.371855 230.264004 
L 263.80024 230.155545 
L 263.946173 230.047086 
L 264.374558 230.047086 
L 263.946173 230.155545 
L 263.513081 230.264004 
L 264.087399 230.372462 
L 264.233333 230.264004 
L 264.087399 230.155545 
L 264.233333 230.155545 
L 264.374558 229.993434 
L 263.946173 229.939204 
L 264.948877 230.155545 
L 265.523195 230.264004 
L 265.956287 230.101316 
L 265.523195 230.155545 
L 265.09481 229.993434 
L 264.948877 229.939204 
L 260.787423 230.209774 
L 259.205695 230.914179 
L 257.195581 231.889154 
L 256.18817 232.592982 
L 255.185467 233.567957 
L 253.890897 234.65139 
L 252.167943 236.655569 
L 251.306466 237.414203 
L 250.016603 238.22649 
L 244.701806 244.185374 
L 244.127488 245.268808 
L 243.699103 246.351664 
L 242.263308 248.410073 
L 241.68899 249.439277 
L 241.40183 250.414251 
L 240.968738 251.172886 
L 240.681579 251.985172 
L 240.681579 252.960147 
L 240.827512 254.09781 
L 240.681579 255.235473 
L 240.39442 256.210448 
L 240.540353 257.239652 
L 241.40183 259.514977 
L 241.543056 260.597834 
L 241.40183 261.681267 
L 240.827512 262.60259 
L 238.958624 264.931568 
L 238.097147 266.339801 
L 237.955921 267.044206 
L 237.955921 267.694381 
L 237.522829 269.752212 
L 236.948511 270.781417 
L 237.522829 271.756968 
L 237.522829 273.706918 
L 236.807285 274.681893 
L 236.807285 275.006692 
L 236.661352 275.602638 
L 236.948511 275.873208 
L 237.094444 276.198584 
L 236.807285 276.577613 
L 236.661352 276.686071 
L 236.948511 277.0651 
L 237.23567 277.282018 
L 237.23567 277.823734 
L 237.23567 277.823734 
L 236.948511 277.931616 
L 236.807285 278.202763 
L 237.094444 278.365451 
L 237.381603 278.473333 
L 237.381603 278.473333 
L 237.094444 278.527562 
L 237.23567 278.69025 
L 238.530239 279.069279 
L 238.384306 278.96082 
L 238.24308 279.01505 
L 238.530239 279.340426 
L 238.384306 279.340426 
L 238.24308 279.340426 
L 238.530239 279.448308 
L 238.530239 279.882143 
L 238.530239 279.827913 
L 238.958624 279.773684 
L 238.817399 279.827913 
L 239.391717 279.773684 
L 239.678876 279.990024 
L 239.532943 279.990024 
L 239.532943 280.044254 
L 239.820102 280.206942 
L 239.245783 280.044254 
L 239.391717 280.098483 
L 239.391717 279.827913 
L 239.391717 279.827913 
L 239.245783 279.936372 
L 239.245783 280.315401 
L 239.391717 280.36963 
L 240.39442 280.261171 
L 239.966035 280.36963 
L 240.107261 280.585971 
L 240.253194 280.585971 
L 239.966035 280.423859 
L 239.966035 280.477512 
L 239.966035 280.423859 
L 239.820102 280.315401 
L 239.966035 280.261171 
L 239.966035 280.36963 
L 239.820102 280.477512 
L 240.107261 280.36963 
L 240.827512 280.261171 
L 239.966035 280.315401 
L 240.681579 280.206942 
L 240.827512 280.098483 
L 241.40183 280.044254 
L 241.68899 280.261171 
L 241.255897 280.423859 
L 241.255897 280.261171 
L 240.968738 280.261171 
L 241.255897 280.261171 
L 241.68899 280.152713 
L 241.40183 280.152713 
L 241.40183 280.044254 
L 241.543056 279.990024 
L 241.543056 280.044254 
L 240.540353 279.827913 
L 239.104558 279.827913 
L 235.945808 279.286196 
L 233.648535 279.123508 
L 218.424395 278.96082 
L 213.829849 278.907168 
L 204.06644 279.231967 
L 199.04351 279.502537 
L 193.728712 279.665225 
L 177.073485 279.936372 
L 153.667664 280.748659 
L 141.606982 280.911347 
L 135.8638 281.181917 
L 130.407777 281.560945 
L 115.470797 282.102662 
L 95.515593 282.644379 
L 88.190682 283.131866 
L 86.608953 283.348784 
L 84.457614 283.782042 
L 83.883296 283.8905 
L 83.883296 284.16107 
L 84.170455 284.377988 
L 86.754887 284.973934 
L 86.180569 284.865475 
L 86.180569 285.407192 
L 85.893409 285.515651 
L 86.034635 285.569303 
L 86.034635 285.731991 
L 85.893409 285.948909 
L 85.893409 286.273708 
L 85.460317 286.706966 
L 85.747476 286.706966 
L 85.893409 286.652737 
L 86.321794 286.923883 
L 86.608953 286.978113 
L 86.608953 287.140224 
L 86.321794 287.302912 
L 85.60625 287.302912 
L 86.034635 287.357141 
L 87.042046 287.790399 
L 87.183272 287.953088 
L 86.896113 288.115199 
L 86.896113 288.061546 
L 86.608953 288.115199 
L 86.034635 288.332116 
L 85.747476 288.277887 
L 85.747476 288.061546 
L 86.034635 288.115199 
L 85.893409 288.169428 
L 85.60625 288.277887 
L 85.893409 288.277887 
L 86.034635 288.277887 
L 85.60625 288.386346 
L 86.034635 288.277887 
L 85.60625 288.549034 
L 85.893409 288.440575 
L 86.034635 288.765374 
L 85.747476 288.928062 
L 85.893409 288.982292 
L 86.034635 289.036521 
L 86.321794 288.982292 
L 85.60625 289.144403 
L 86.180569 289.09075 
L 86.467728 289.307091 
L 86.180569 289.307091 
L 86.321794 289.252862 
L 86.608953 289.09075 
L 86.608953 289.144403 
L 86.608953 289.252862 
L 86.467728 289.36132 
L 86.467728 289.36132 
L 86.754887 289.41555 
L 86.180569 289.41555 
L 85.60625 289.41555 
L 86.321794 289.469779 
L 86.321794 289.578238 
L 86.467728 289.740349 
L 86.180569 289.848808 
L 85.893409 289.794578 
L 85.893409 289.794578 
L 85.893409 290.065725 
L 85.893409 290.065725 
L 86.034635 289.957266 
L 85.747476 289.740349 
L 85.747476 289.848808 
L 86.034635 289.740349 
L 85.60625 289.903037 
L 85.747476 289.957266 
L 86.608953 290.011496 
L 86.754887 290.119955 
L 86.608953 290.336295 
L 86.180569 290.444754 
L 86.034635 290.336295 
L 86.180569 290.173607 
L 86.467728 290.065725 
L 86.034635 290.173607 
L 86.180569 290.173607 
L 87.042046 290.282066 
L 87.183272 290.282066 
L 86.754887 290.390524 
L 86.180569 290.498983 
L 87.183272 290.390524 
L 87.042046 290.498983 
L 86.034635 290.715324 
L 86.180569 290.769553 
L 86.321794 290.932241 
L 87.042046 291.0407 
L 87.329205 291.149159 
L 87.183272 291.094929 
L 86.467728 291.0407 
L 86.608953 291.202811 
L 87.042046 291.31127 
L 87.329205 291.202811 
L 86.754887 291.25704 
L 86.754887 291.25704 
L 86.321794 291.149159 
L 86.896113 291.365499 
L 87.042046 291.636646 
L 86.608953 291.690299 
L 86.608953 291.690299 
L 86.608953 291.798757 
L 86.467728 291.852987 
L 87.183272 291.528187 
L 87.042046 291.744528 
L 87.183272 291.961445 
L 87.329205 291.907216 
L 87.470431 291.690299 
L 87.329205 291.473958 
L 87.183272 291.528187 
L 87.903523 291.582417 
L 87.75759 291.636646 
L 87.042046 291.744528 
L 86.754887 291.907216 
L 87.75759 291.907216 
L 87.616364 292.015675 
L 87.042046 292.124133 
L 86.896113 292.124133 
L 87.042046 291.907216 
L 86.896113 292.015675 
L 85.893409 292.177786 
L 86.180569 292.177786 
L 86.321794 292.286245 
L 86.321794 292.232015 
L 87.042046 292.124133 
L 87.042046 292.394703 
L 86.896113 292.394703 
L 86.896113 292.177786 
L 86.896113 292.286245 
L 86.754887 292.394703 
L 86.467728 292.503162 
L 87.042046 292.557391 
L 86.896113 292.66585 
L 86.896113 292.66585 
L 87.75759 292.340474 
L 87.75759 292.286245 
L 87.903523 292.340474 
L 87.042046 292.448933 
L 87.183272 292.340474 
L 88.044749 292.394703 
L 87.616364 292.286245 
L 87.616364 292.177786 
L 87.183272 292.286245 
L 86.608953 292.232015 
L 86.608953 292.177786 
L 86.896113 292.015675 
L 87.470431 291.961445 
L 87.616364 292.069904 
L 87.329205 292.124133 
L 87.329205 292.069904 
L 86.467728 292.177786 
L 86.180569 292.069904 
L 86.180569 291.907216 
L 86.321794 291.852987 
L 86.034635 291.852987 
L 86.034635 291.798757 
L 86.608953 291.690299 
L 87.329205 291.528187 
L 87.042046 291.473958 
L 86.321794 291.582417 
L 86.321794 291.473958 
L 87.042046 291.094929 
L 86.754887 290.878012 
L 87.183272 291.149159 
L 87.470431 291.149159 
L 87.470431 290.986471 
L 87.183272 290.823782 
L 87.329205 290.823782 
L 87.329205 290.769553 
L 86.467728 290.661094 
L 85.893409 290.769553 
L 86.321794 290.769553 
L 86.608953 290.769553 
L 87.042046 290.661094 
L 86.467728 290.498983 
L 87.042046 290.390524 
L 87.329205 290.336295 
L 87.183272 290.336295 
L 87.616364 290.227836 
L 87.183272 290.227836 
L 87.042046 290.173607 
L 87.329205 289.903037 
L 87.183272 289.957266 
L 87.042046 289.957266 
L 87.042046 290.065725 
L 87.042046 290.227836 
L 86.896113 290.444754 
L 87.042046 290.336295 
L 87.470431 290.282066 
L 87.042046 290.336295 
L 86.896113 290.173607 
L 87.470431 290.065725 
L 87.903523 290.173607 
L 88.331908 290.227836 
L 88.477841 290.498983 
L 88.190682 290.553213 
L 88.190682 290.444754 
L 88.477841 290.173607 
L 88.477841 289.903037 
L 88.331908 289.903037 
L 88.331908 289.957266 
L 88.906226 290.227836 
L 88.190682 289.957266 
L 88.765 290.119955 
L 89.05216 290.119955 
L 89.05216 290.011496 
L 88.477841 290.011496 
L 88.477841 290.119955 
L 89.05216 290.173607 
L 89.339319 290.119955 
L 88.906226 290.119955 
L 88.619067 290.119955 
L 88.906226 290.011496 
L 88.906226 289.903037 
L 88.765 289.848808 
L 89.193385 289.903037 
L 89.626478 289.903037 
L 89.05216 289.957266 
L 89.480544 289.957266 
L 89.767704 290.065725 
L 89.913637 289.903037 
L 89.193385 289.903037 
L 89.626478 290.011496 
L 89.913637 290.065725 
L 89.480544 289.957266 
L 89.480544 289.848808 
L 89.913637 290.011496 
L 89.913637 289.957266 
L 89.913637 289.794578 
L 90.200796 289.794578 
L 89.913637 289.794578 
L 89.193385 289.578238 
L 89.767704 289.578238 
L 90.054863 289.740349 
L 89.480544 289.524008 
L 89.767704 289.63189 
L 89.913637 289.794578 
L 89.767704 289.578238 
L 89.480544 289.524008 
L 90.054863 289.469779 
L 90.487955 289.41555 
L 90.342022 289.307091 
L 90.054863 289.252862 
L 90.342022 289.41555 
L 89.767704 289.307091 
L 89.626478 289.198632 
L 90.487955 289.198632 
L 90.487955 289.252862 
L 89.913637 289.252862 
L 89.913637 289.307091 
L 90.342022 289.524008 
L 91.062273 289.63189 
L 91.203499 289.578238 
L 91.062273 289.469779 
L 91.062273 289.469779 
L 90.487955 289.524008 
L 90.629181 289.524008 
L 91.203499 289.68612 
L 92.21091 289.524008 
L 91.923751 289.469779 
L 91.490658 289.469779 
L 91.349432 289.794578 
L 91.349432 289.957266 
L 91.349432 289.903037 
L 91.062273 289.957266 
L 91.923751 289.957266 
L 92.21091 290.065725 
L 92.064976 289.903037 
L 92.926454 289.848808 
L 92.639295 289.794578 
L 92.785228 289.957266 
L 92.639295 289.957266 
L 93.072387 289.957266 
L 92.785228 289.903037 
L 92.352135 289.794578 
L 93.072387 289.903037 
L 93.072387 289.848808 
L 93.072387 289.848808 
L 92.498069 289.957266 
L 93.072387 289.794578 
L 92.926454 289.68612 
L 93.072387 289.740349 
L 93.646705 289.848808 
L 93.359546 289.903037 
L 93.072387 289.903037 
L 94.079798 289.848808 
L 93.933864 289.848808 
L 93.505479 289.578238 
L 93.933864 289.63189 
L 93.933864 289.63189 
L 94.079798 289.957266 
L 93.933864 289.957266 
L 93.933864 289.903037 
L 93.933864 289.740349 
L 93.359546 289.68612 
L 94.221023 289.740349 
L 93.792638 289.740349 
L 93.359546 289.903037 
L 94.221023 289.794578 
L 94.366957 289.848808 
L 93.792638 289.903037 
L 94.654116 289.740349 
L 94.079798 289.794578 
L 93.792638 289.794578 
L 94.795342 289.848808 
L 94.079798 289.903037 
L 94.221023 289.957266 
L 94.221023 289.903037 
L 94.221023 289.794578 
L 94.654116 289.63189 
L 95.082501 289.63189 
L 95.082501 289.740349 
L 94.941275 289.903037 
L 94.654116 289.957266 
L 94.221023 289.794578 
L 93.792638 289.794578 
L 93.792638 289.848808 
L 94.221023 290.119955 
L 93.933864 290.227836 
L 93.646705 290.173607 
L 94.221023 290.173607 
L 94.795342 290.227836 
L 94.079798 290.227836 
L 93.646705 290.498983 
L 93.646705 290.444754 
L 93.359546 290.390524 
L 93.792638 290.282066 
L 93.505479 290.390524 
L 93.792638 290.715324 
L 93.933864 290.607442 
L 93.646705 290.553213 
L 93.213613 290.823782 
L 93.646705 290.878012 
L 93.792638 290.823782 
L 93.505479 290.823782 
L 93.646705 290.823782 
L 93.505479 290.769553 
L 93.213613 290.986471 
L 93.213613 290.986471 
L 93.505479 290.986471 
L 93.072387 290.932241 
L 92.785228 290.769553 
L 93.213613 291.0407 
L 93.213613 291.0407 
L 93.505479 291.149159 
L 93.359546 291.149159 
L 92.352135 290.986471 
L 92.352135 290.932241 
L 92.21091 291.0407 
L 92.21091 291.202811 
L 92.352135 291.365499 
L 92.498069 291.31127 
L 92.639295 291.094929 
L 92.639295 290.715324 
L 92.639295 290.769553 
L 92.21091 291.094929 
L 92.064976 291.202811 
L 92.498069 291.31127 
L 92.498069 291.31127 
L 92.21091 291.473958 
L 92.352135 291.582417 
L 92.498069 291.473958 
L 92.498069 291.31127 
L 91.923751 291.528187 
L 91.636591 291.636646 
L 91.636591 291.636646 
L 91.349432 291.528187 
L 91.777817 291.582417 
L 92.352135 291.473958 
L 92.639295 291.582417 
L 92.498069 291.636646 
L 92.064976 291.636646 
L 91.636591 291.31127 
L 91.777817 291.25704 
L 91.636591 291.419729 
L 91.349432 291.744528 
L 91.349432 291.636646 
L 91.203499 291.528187 
L 91.349432 291.419729 
L 91.923751 291.473958 
L 91.777817 291.636646 
L 91.777817 291.528187 
L 91.636591 291.419729 
L 92.064976 291.473958 
L 91.349432 291.365499 
L 91.923751 291.365499 
L 91.636591 291.202811 
L 90.91634 291.202811 
L 91.062273 291.25704 
L 91.636591 291.419729 
L 91.490658 291.473958 
L 91.490658 291.690299 
L 92.064976 291.31127 
L 91.777817 291.582417 
L 91.923751 291.582417 
L 91.777817 291.636646 
L 91.636591 291.744528 
L 91.062273 291.473958 
L 91.203499 291.528187 
L 92.064976 291.744528 
L 91.777817 291.744528 
L 91.777817 291.798757 
L 92.21091 291.852987 
L 90.91634 291.690299 
L 90.91634 291.690299 
" style="fill:none;stroke:#1f77b4;stroke-linecap:square;stroke-width:1.5;"/>
   </g>
   <g id="matplotlib.axis_1">
    <g id="xtick_1">
     <g id="line2d_2">
      <defs>
       <path d="M 0 0 
L 0 3.5 
" id="mbd495bee28" style="stroke:#000000;stroke-width:0.8;"/>
      </defs>
      <g>
       <use style="stroke:#000000;stroke-width:0.8;" x="100.166629" xlink:href="#mbd495bee28" y="307.584"/>
      </g>
     </g>
     <g id="text_1">
      <!-- 400 -->
      <defs>
       <path d="M 10.59375 35.5 
L 73.1875 35.5 
L 73.1875 27.203125 
L 10.59375 27.203125 
z
" id="DejaVuSans-8722"/>
       <path d="M 37.796875 64.3125 
L 12.890625 25.390625 
L 37.796875 25.390625 
z
M 35.203125 72.90625 
L 47.609375 72.90625 
L 47.609375 25.390625 
L 58.015625 25.390625 
L 58.015625 17.1875 
L 47.609375 17.1875 
L 47.609375 0 
L 37.796875 0 
L 37.796875 17.1875 
L 4.890625 17.1875 
L 4.890625 26.703125 
z
" id="DejaVuSans-52"/>
       <path d="M 31.78125 66.40625 
Q 24.171875 66.40625 20.328125 58.90625 
Q 16.5 51.421875 16.5 36.375 
Q 16.5 21.390625 20.328125 13.890625 
Q 24.171875 6.390625 31.78125 6.390625 
Q 39.453125 6.390625 43.28125 13.890625 
Q 47.125 21.390625 47.125 36.375 
Q 47.125 51.421875 43.28125 58.90625 
Q 39.453125 66.40625 31.78125 66.40625 
z
M 31.78125 74.21875 
Q 44.046875 74.21875 50.515625 64.515625 
Q 56.984375 54.828125 56.984375 36.375 
Q 56.984375 17.96875 50.515625 8.265625 
Q 44.046875 -1.421875 31.78125 -1.421875 
Q 19.53125 -1.421875 13.0625 8.265625 
Q 6.59375 17.96875 6.59375 36.375 
Q 6.59375 54.828125 13.0625 64.515625 
Q 19.53125 74.21875 31.78125 74.21875 
z
" id="DejaVuSans-48"/>
      </defs>
      <g transform="translate(86.433035 322.182437)scale(0.1 -0.1)">
       <use xlink:href="#DejaVuSans-8722"/>
       <use x="83.789062" xlink:href="#DejaVuSans-52"/>
       <use x="147.412109" xlink:href="#DejaVuSans-48"/>
       <use x="211.035156" xlink:href="#DejaVuSans-48"/>
      </g>
     </g>
    </g>
    <g id="xtick_2">
     <g id="line2d_3">
      <g>
       <use style="stroke:#000000;stroke-width:0.8;" x="147.241891" xlink:href="#mbd495bee28" y="307.584"/>
      </g>
     </g>
     <g id="text_2">
      <!-- 300 -->
      <defs>
       <path d="M 40.578125 39.3125 
Q 47.65625 37.796875 51.625 33 
Q 55.609375 28.21875 55.609375 21.1875 
Q 55.609375 10.40625 48.1875 4.484375 
Q 40.765625 -1.421875 27.09375 -1.421875 
Q 22.515625 -1.421875 17.65625 -0.515625 
Q 12.796875 0.390625 7.625 2.203125 
L 7.625 11.71875 
Q 11.71875 9.328125 16.59375 8.109375 
Q 21.484375 6.890625 26.8125 6.890625 
Q 36.078125 6.890625 40.9375 10.546875 
Q 45.796875 14.203125 45.796875 21.1875 
Q 45.796875 27.640625 41.28125 31.265625 
Q 36.765625 34.90625 28.71875 34.90625 
L 20.21875 34.90625 
L 20.21875 43.015625 
L 29.109375 43.015625 
Q 36.375 43.015625 40.234375 45.921875 
Q 44.09375 48.828125 44.09375 54.296875 
Q 44.09375 59.90625 40.109375 62.90625 
Q 36.140625 65.921875 28.71875 65.921875 
Q 24.65625 65.921875 20.015625 65.03125 
Q 15.375 64.15625 9.8125 62.3125 
L 9.8125 71.09375 
Q 15.4375 72.65625 20.34375 73.4375 
Q 25.25 74.21875 29.59375 74.21875 
Q 40.828125 74.21875 47.359375 69.109375 
Q 53.90625 64.015625 53.90625 55.328125 
Q 53.90625 49.265625 50.4375 45.09375 
Q 46.96875 40.921875 40.578125 39.3125 
z
" id="DejaVuSans-51"/>
      </defs>
      <g transform="translate(133.508297 322.182437)scale(0.1 -0.1)">
       <use xlink:href="#DejaVuSans-8722"/>
       <use x="83.789062" xlink:href="#DejaVuSans-51"/>
       <use x="147.412109" xlink:href="#DejaVuSans-48"/>
       <use x="211.035156" xlink:href="#DejaVuSans-48"/>
      </g>
     </g>
    </g>
    <g id="xtick_3">
     <g id="line2d_4">
      <g>
       <use style="stroke:#000000;stroke-width:0.8;" x="194.317153" xlink:href="#mbd495bee28" y="307.584"/>
      </g>
     </g>
     <g id="text_3">
      <!-- 200 -->
      <defs>
       <path d="M 19.1875 8.296875 
L 53.609375 8.296875 
L 53.609375 0 
L 7.328125 0 
L 7.328125 8.296875 
Q 12.9375 14.109375 22.625 23.890625 
Q 32.328125 33.6875 34.8125 36.53125 
Q 39.546875 41.84375 41.421875 45.53125 
Q 43.3125 49.21875 43.3125 52.78125 
Q 43.3125 58.59375 39.234375 62.25 
Q 35.15625 65.921875 28.609375 65.921875 
Q 23.96875 65.921875 18.8125 64.3125 
Q 13.671875 62.703125 7.8125 59.421875 
L 7.8125 69.390625 
Q 13.765625 71.78125 18.9375 73 
Q 24.125 74.21875 28.421875 74.21875 
Q 39.75 74.21875 46.484375 68.546875 
Q 53.21875 62.890625 53.21875 53.421875 
Q 53.21875 48.921875 51.53125 44.890625 
Q 49.859375 40.875 45.40625 35.40625 
Q 44.1875 33.984375 37.640625 27.21875 
Q 31.109375 20.453125 19.1875 8.296875 
z
" id="DejaVuSans-50"/>
      </defs>
      <g transform="translate(180.583559 322.182437)scale(0.1 -0.1)">
       <use xlink:href="#DejaVuSans-8722"/>
       <use x="83.789062" xlink:href="#DejaVuSans-50"/>
       <use x="147.412109" xlink:href="#DejaVuSans-48"/>
       <use x="211.035156" xlink:href="#DejaVuSans-48"/>
      </g>
     </g>
    </g>
    <g id="xtick_4">
     <g id="line2d_5">
      <g>
       <use style="stroke:#000000;stroke-width:0.8;" x="241.392415" xlink:href="#mbd495bee28" y="307.584"/>
      </g>
     </g>
     <g id="text_4">
      <!-- 100 -->
      <defs>
       <path d="M 12.40625 8.296875 
L 28.515625 8.296875 
L 28.515625 63.921875 
L 10.984375 60.40625 
L 10.984375 69.390625 
L 28.421875 72.90625 
L 38.28125 72.90625 
L 38.28125 8.296875 
L 54.390625 8.296875 
L 54.390625 0 
L 12.40625 0 
z
" id="DejaVuSans-49"/>
      </defs>
      <g transform="translate(227.658822 322.182437)scale(0.1 -0.1)">
       <use xlink:href="#DejaVuSans-8722"/>
       <use x="83.789062" xlink:href="#DejaVuSans-49"/>
       <use x="147.412109" xlink:href="#DejaVuSans-48"/>
       <use x="211.035156" xlink:href="#DejaVuSans-48"/>
      </g>
     </g>
    </g>
    <g id="xtick_5">
     <g id="line2d_6">
      <g>
       <use style="stroke:#000000;stroke-width:0.8;" x="288.467678" xlink:href="#mbd495bee28" y="307.584"/>
      </g>
     </g>
     <g id="text_5">
      <!-- 0 -->
      <g transform="translate(285.286428 322.182437)scale(0.1 -0.1)">
       <use xlink:href="#DejaVuSans-48"/>
      </g>
     </g>
    </g>
    <g id="xtick_6">
     <g id="line2d_7">
      <g>
       <use style="stroke:#000000;stroke-width:0.8;" x="335.54294" xlink:href="#mbd495bee28" y="307.584"/>
      </g>
     </g>
     <g id="text_6">
      <!-- 100 -->
      <g transform="translate(325.99919 322.182437)scale(0.1 -0.1)">
       <use xlink:href="#DejaVuSans-49"/>
       <use x="63.623047" xlink:href="#DejaVuSans-48"/>
       <use x="127.246094" xlink:href="#DejaVuSans-48"/>
      </g>
     </g>
    </g>
    <g id="xtick_7">
     <g id="line2d_8">
      <g>
       <use style="stroke:#000000;stroke-width:0.8;" x="382.618202" xlink:href="#mbd495bee28" y="307.584"/>
      </g>
     </g>
     <g id="text_7">
      <!-- 200 -->
      <g transform="translate(373.074452 322.182437)scale(0.1 -0.1)">
       <use xlink:href="#DejaVuSans-50"/>
       <use x="63.623047" xlink:href="#DejaVuSans-48"/>
       <use x="127.246094" xlink:href="#DejaVuSans-48"/>
      </g>
     </g>
    </g>
   </g>
   <g id="matplotlib.axis_2">
    <g id="ytick_1">
     <g id="line2d_9">
      <defs>
       <path d="M 0 0 
L -3.5 0 
" id="m093aa34e46" style="stroke:#000000;stroke-width:0.8;"/>
      </defs>
      <g>
       <use style="stroke:#000000;stroke-width:0.8;" x="57.6" xlink:href="#m093aa34e46" y="251.403072"/>
      </g>
     </g>
     <g id="text_8">
      <!-- 0 -->
      <g transform="translate(44.2375 255.202291)scale(0.1 -0.1)">
       <use xlink:href="#DejaVuSans-48"/>
      </g>
     </g>
    </g>
    <g id="ytick_2">
     <g id="line2d_10">
      <g>
       <use style="stroke:#000000;stroke-width:0.8;" x="57.6" xlink:href="#m093aa34e46" y="193.712257"/>
      </g>
     </g>
     <g id="text_9">
      <!-- 1000 -->
      <g transform="translate(25.15 197.511476)scale(0.1 -0.1)">
       <use xlink:href="#DejaVuSans-49"/>
       <use x="63.623047" xlink:href="#DejaVuSans-48"/>
       <use x="127.246094" xlink:href="#DejaVuSans-48"/>
       <use x="190.869141" xlink:href="#DejaVuSans-48"/>
      </g>
     </g>
    </g>
    <g id="ytick_3">
     <g id="line2d_11">
      <g>
       <use style="stroke:#000000;stroke-width:0.8;" x="57.6" xlink:href="#m093aa34e46" y="136.021443"/>
      </g>
     </g>
     <g id="text_10">
      <!-- 2000 -->
      <g transform="translate(25.15 139.820662)scale(0.1 -0.1)">
       <use xlink:href="#DejaVuSans-50"/>
       <use x="63.623047" xlink:href="#DejaVuSans-48"/>
       <use x="127.246094" xlink:href="#DejaVuSans-48"/>
       <use x="190.869141" xlink:href="#DejaVuSans-48"/>
      </g>
     </g>
    </g>
    <g id="ytick_4">
     <g id="line2d_12">
      <g>
       <use style="stroke:#000000;stroke-width:0.8;" x="57.6" xlink:href="#m093aa34e46" y="78.330628"/>
      </g>
     </g>
     <g id="text_11">
      <!-- 3000 -->
      <g transform="translate(25.15 82.129847)scale(0.1 -0.1)">
       <use xlink:href="#DejaVuSans-51"/>
       <use x="63.623047" xlink:href="#DejaVuSans-48"/>
       <use x="127.246094" xlink:href="#DejaVuSans-48"/>
       <use x="190.869141" xlink:href="#DejaVuSans-48"/>
      </g>
     </g>
    </g>
   </g>
   <g id="line2d_13">
    <path clip-path="url(#p09a401278b)" d="M 290.174468 252.851494 
L 361.93886 266.145917 
L 391.115127 282.455362 
L 292.528675 253.221253 
L 278.080154 226.591429 
L 283.070999 73.881931 
L 288.684665 55.704785 
L 249.406614 268.223655 
L 79.652021 285.443028 
L 78.479352 290.534373 
L 359.92805 292.735038 
L 361.440636 291.002545 
L 132.871337 292.803938 
L 133.234286 294.174381 
L 378.026557 290.875188 
L 266.167199 243.890111 
L 261.859097 231.973439 
L 238.668076 277.68055 
L 90.546546 286.324338 
L 89.762339 290.604728 
" style="fill:none;stroke:#ff0000;stroke-linecap:square;stroke-width:0.5;"/>
   </g>
   <g id="patch_3">
    <path d="M 57.6 307.584 
L 57.6 41.472 
" style="fill:none;stroke:#000000;stroke-linecap:square;stroke-linejoin:miter;stroke-width:0.8;"/>
   </g>
   <g id="patch_4">
    <path d="M 414.72 307.584 
L 414.72 41.472 
" style="fill:none;stroke:#000000;stroke-linecap:square;stroke-linejoin:miter;stroke-width:0.8;"/>
   </g>
   <g id="patch_5">
    <path d="M 57.6 307.584 
L 414.72 307.584 
" style="fill:none;stroke:#000000;stroke-linecap:square;stroke-linejoin:miter;stroke-width:0.8;"/>
   </g>
   <g id="patch_6">
    <path d="M 57.6 41.472 
L 414.72 41.472 
" style="fill:none;stroke:#000000;stroke-linecap:square;stroke-linejoin:miter;stroke-width:0.8;"/>
   </g>
   <g id="PathCollection_1">
    <defs>
     <path d="M 0 2.738613 
C 0.726289 2.738613 1.422928 2.450055 1.936492 1.936492 
C 2.450055 1.422928 2.738613 0.726289 2.738613 0 
C 2.738613 -0.726289 2.450055 -1.422928 1.936492 -1.936492 
C 1.422928 -2.450055 0.726289 -2.738613 0 -2.738613 
C -0.726289 -2.738613 -1.422928 -2.450055 -1.936492 -1.936492 
C -2.450055 -1.422928 -2.738613 -0.726289 -2.738613 0 
C -2.738613 0.726289 -2.450055 1.422928 -1.936492 1.936492 
C -1.422928 2.450055 -0.726289 2.738613 0 2.738613 
z
" id="m1be7b1311a" style="stroke:#ff0000;"/>
    </defs>
    <g clip-path="url(#p09a401278b)">
     <use style="fill:#ff0000;stroke:#ff0000;" x="290.174468" xlink:href="#m1be7b1311a" y="252.851494"/>
     <use style="fill:#ff0000;stroke:#ff0000;" x="361.93886" xlink:href="#m1be7b1311a" y="266.145917"/>
     <use style="fill:#ff0000;stroke:#ff0000;" x="391.115127" xlink:href="#m1be7b1311a" y="282.455362"/>
     <use style="fill:#ff0000;stroke:#ff0000;" x="292.528675" xlink:href="#m1be7b1311a" y="253.221253"/>
     <use style="fill:#ff0000;stroke:#ff0000;" x="278.080154" xlink:href="#m1be7b1311a" y="226.591429"/>
     <use style="fill:#ff0000;stroke:#ff0000;" x="283.070999" xlink:href="#m1be7b1311a" y="73.881931"/>
     <use style="fill:#ff0000;stroke:#ff0000;" x="288.684665" xlink:href="#m1be7b1311a" y="55.704785"/>
     <use style="fill:#ff0000;stroke:#ff0000;" x="249.406614" xlink:href="#m1be7b1311a" y="268.223655"/>
     <use style="fill:#ff0000;stroke:#ff0000;" x="79.652021" xlink:href="#m1be7b1311a" y="285.443028"/>
     <use style="fill:#ff0000;stroke:#ff0000;" x="78.479352" xlink:href="#m1be7b1311a" y="290.534373"/>
     <use style="fill:#ff0000;stroke:#ff0000;" x="359.92805" xlink:href="#m1be7b1311a" y="292.735038"/>
     <use style="fill:#ff0000;stroke:#ff0000;" x="361.440636" xlink:href="#m1be7b1311a" y="291.002545"/>
     <use style="fill:#ff0000;stroke:#ff0000;" x="132.871337" xlink:href="#m1be7b1311a" y="292.803938"/>
     <use style="fill:#ff0000;stroke:#ff0000;" x="133.234286" xlink:href="#m1be7b1311a" y="294.174381"/>
     <use style="fill:#ff0000;stroke:#ff0000;" x="378.026557" xlink:href="#m1be7b1311a" y="290.875188"/>
     <use style="fill:#ff0000;stroke:#ff0000;" x="266.167199" xlink:href="#m1be7b1311a" y="243.890111"/>
     <use style="fill:#ff0000;stroke:#ff0000;" x="261.859097" xlink:href="#m1be7b1311a" y="231.973439"/>
     <use style="fill:#ff0000;stroke:#ff0000;" x="238.668076" xlink:href="#m1be7b1311a" y="277.68055"/>
     <use style="fill:#ff0000;stroke:#ff0000;" x="90.546546" xlink:href="#m1be7b1311a" y="286.324338"/>
     <use style="fill:#ff0000;stroke:#ff0000;" x="89.762339" xlink:href="#m1be7b1311a" y="290.604728"/>
    </g>
   </g>
   <g id="text_12">
    <!-- (80) Subject: s27, Known = False, Degree = 2, Duration = 0.1 -->
    <defs>
     <path d="M 31 75.875 
Q 24.46875 64.65625 21.28125 53.65625 
Q 18.109375 42.671875 18.109375 31.390625 
Q 18.109375 20.125 21.3125 9.0625 
Q 24.515625 -2 31 -13.1875 
L 23.1875 -13.1875 
Q 15.875 -1.703125 12.234375 9.375 
Q 8.59375 20.453125 8.59375 31.390625 
Q 8.59375 42.28125 12.203125 53.3125 
Q 15.828125 64.359375 23.1875 75.875 
z
" id="DejaVuSans-40"/>
     <path d="M 31.78125 34.625 
Q 24.75 34.625 20.71875 30.859375 
Q 16.703125 27.09375 16.703125 20.515625 
Q 16.703125 13.921875 20.71875 10.15625 
Q 24.75 6.390625 31.78125 6.390625 
Q 38.8125 6.390625 42.859375 10.171875 
Q 46.921875 13.96875 46.921875 20.515625 
Q 46.921875 27.09375 42.890625 30.859375 
Q 38.875 34.625 31.78125 34.625 
z
M 21.921875 38.8125 
Q 15.578125 40.375 12.03125 44.71875 
Q 8.5 49.078125 8.5 55.328125 
Q 8.5 64.0625 14.71875 69.140625 
Q 20.953125 74.21875 31.78125 74.21875 
Q 42.671875 74.21875 48.875 69.140625 
Q 55.078125 64.0625 55.078125 55.328125 
Q 55.078125 49.078125 51.53125 44.71875 
Q 48 40.375 41.703125 38.8125 
Q 48.828125 37.15625 52.796875 32.3125 
Q 56.78125 27.484375 56.78125 20.515625 
Q 56.78125 9.90625 50.3125 4.234375 
Q 43.84375 -1.421875 31.78125 -1.421875 
Q 19.734375 -1.421875 13.25 4.234375 
Q 6.78125 9.90625 6.78125 20.515625 
Q 6.78125 27.484375 10.78125 32.3125 
Q 14.796875 37.15625 21.921875 38.8125 
z
M 18.3125 54.390625 
Q 18.3125 48.734375 21.84375 45.5625 
Q 25.390625 42.390625 31.78125 42.390625 
Q 38.140625 42.390625 41.71875 45.5625 
Q 45.3125 48.734375 45.3125 54.390625 
Q 45.3125 60.0625 41.71875 63.234375 
Q 38.140625 66.40625 31.78125 66.40625 
Q 25.390625 66.40625 21.84375 63.234375 
Q 18.3125 60.0625 18.3125 54.390625 
z
" id="DejaVuSans-56"/>
     <path d="M 8.015625 75.875 
L 15.828125 75.875 
Q 23.140625 64.359375 26.78125 53.3125 
Q 30.421875 42.28125 30.421875 31.390625 
Q 30.421875 20.453125 26.78125 9.375 
Q 23.140625 -1.703125 15.828125 -13.1875 
L 8.015625 -13.1875 
Q 14.5 -2 17.703125 9.0625 
Q 20.90625 20.125 20.90625 31.390625 
Q 20.90625 42.671875 17.703125 53.65625 
Q 14.5 64.65625 8.015625 75.875 
z
" id="DejaVuSans-41"/>
     <path id="DejaVuSans-32"/>
     <path d="M 53.515625 70.515625 
L 53.515625 60.890625 
Q 47.90625 63.578125 42.921875 64.890625 
Q 37.9375 66.21875 33.296875 66.21875 
Q 25.25 66.21875 20.875 63.09375 
Q 16.5 59.96875 16.5 54.203125 
Q 16.5 49.359375 19.40625 46.890625 
Q 22.3125 44.4375 30.421875 42.921875 
L 36.375 41.703125 
Q 47.40625 39.59375 52.65625 34.296875 
Q 57.90625 29 57.90625 20.125 
Q 57.90625 9.515625 50.796875 4.046875 
Q 43.703125 -1.421875 29.984375 -1.421875 
Q 24.8125 -1.421875 18.96875 -0.25 
Q 13.140625 0.921875 6.890625 3.21875 
L 6.890625 13.375 
Q 12.890625 10.015625 18.65625 8.296875 
Q 24.421875 6.59375 29.984375 6.59375 
Q 38.421875 6.59375 43.015625 9.90625 
Q 47.609375 13.234375 47.609375 19.390625 
Q 47.609375 24.75 44.3125 27.78125 
Q 41.015625 30.8125 33.5 32.328125 
L 27.484375 33.5 
Q 16.453125 35.6875 11.515625 40.375 
Q 6.59375 45.0625 6.59375 53.421875 
Q 6.59375 63.09375 13.40625 68.65625 
Q 20.21875 74.21875 32.171875 74.21875 
Q 37.3125 74.21875 42.625 73.28125 
Q 47.953125 72.359375 53.515625 70.515625 
z
" id="DejaVuSans-83"/>
     <path d="M 8.5 21.578125 
L 8.5 54.6875 
L 17.484375 54.6875 
L 17.484375 21.921875 
Q 17.484375 14.15625 20.5 10.265625 
Q 23.53125 6.390625 29.59375 6.390625 
Q 36.859375 6.390625 41.078125 11.03125 
Q 45.3125 15.671875 45.3125 23.6875 
L 45.3125 54.6875 
L 54.296875 54.6875 
L 54.296875 0 
L 45.3125 0 
L 45.3125 8.40625 
Q 42.046875 3.421875 37.71875 1 
Q 33.40625 -1.421875 27.6875 -1.421875 
Q 18.265625 -1.421875 13.375 4.4375 
Q 8.5 10.296875 8.5 21.578125 
z
M 31.109375 56 
z
" id="DejaVuSans-117"/>
     <path d="M 48.6875 27.296875 
Q 48.6875 37.203125 44.609375 42.84375 
Q 40.53125 48.484375 33.40625 48.484375 
Q 26.265625 48.484375 22.1875 42.84375 
Q 18.109375 37.203125 18.109375 27.296875 
Q 18.109375 17.390625 22.1875 11.75 
Q 26.265625 6.109375 33.40625 6.109375 
Q 40.53125 6.109375 44.609375 11.75 
Q 48.6875 17.390625 48.6875 27.296875 
z
M 18.109375 46.390625 
Q 20.953125 51.265625 25.265625 53.625 
Q 29.59375 56 35.59375 56 
Q 45.5625 56 51.78125 48.09375 
Q 58.015625 40.1875 58.015625 27.296875 
Q 58.015625 14.40625 51.78125 6.484375 
Q 45.5625 -1.421875 35.59375 -1.421875 
Q 29.59375 -1.421875 25.265625 0.953125 
Q 20.953125 3.328125 18.109375 8.203125 
L 18.109375 0 
L 9.078125 0 
L 9.078125 75.984375 
L 18.109375 75.984375 
z
" id="DejaVuSans-98"/>
     <path d="M 9.421875 54.6875 
L 18.40625 54.6875 
L 18.40625 -0.984375 
Q 18.40625 -11.421875 14.421875 -16.109375 
Q 10.453125 -20.796875 1.609375 -20.796875 
L -1.8125 -20.796875 
L -1.8125 -13.1875 
L 0.59375 -13.1875 
Q 5.71875 -13.1875 7.5625 -10.8125 
Q 9.421875 -8.453125 9.421875 -0.984375 
z
M 9.421875 75.984375 
L 18.40625 75.984375 
L 18.40625 64.59375 
L 9.421875 64.59375 
z
" id="DejaVuSans-106"/>
     <path d="M 56.203125 29.59375 
L 56.203125 25.203125 
L 14.890625 25.203125 
Q 15.484375 15.921875 20.484375 11.0625 
Q 25.484375 6.203125 34.421875 6.203125 
Q 39.59375 6.203125 44.453125 7.46875 
Q 49.3125 8.734375 54.109375 11.28125 
L 54.109375 2.78125 
Q 49.265625 0.734375 44.1875 -0.34375 
Q 39.109375 -1.421875 33.890625 -1.421875 
Q 20.796875 -1.421875 13.15625 6.1875 
Q 5.515625 13.8125 5.515625 26.8125 
Q 5.515625 40.234375 12.765625 48.109375 
Q 20.015625 56 32.328125 56 
Q 43.359375 56 49.78125 48.890625 
Q 56.203125 41.796875 56.203125 29.59375 
z
M 47.21875 32.234375 
Q 47.125 39.59375 43.09375 43.984375 
Q 39.0625 48.390625 32.421875 48.390625 
Q 24.90625 48.390625 20.390625 44.140625 
Q 15.875 39.890625 15.1875 32.171875 
z
" id="DejaVuSans-101"/>
     <path d="M 48.78125 52.59375 
L 48.78125 44.1875 
Q 44.96875 46.296875 41.140625 47.34375 
Q 37.3125 48.390625 33.40625 48.390625 
Q 24.65625 48.390625 19.8125 42.84375 
Q 14.984375 37.3125 14.984375 27.296875 
Q 14.984375 17.28125 19.8125 11.734375 
Q 24.65625 6.203125 33.40625 6.203125 
Q 37.3125 6.203125 41.140625 7.25 
Q 44.96875 8.296875 48.78125 10.40625 
L 48.78125 2.09375 
Q 45.015625 0.34375 40.984375 -0.53125 
Q 36.96875 -1.421875 32.421875 -1.421875 
Q 20.0625 -1.421875 12.78125 6.34375 
Q 5.515625 14.109375 5.515625 27.296875 
Q 5.515625 40.671875 12.859375 48.328125 
Q 20.21875 56 33.015625 56 
Q 37.15625 56 41.109375 55.140625 
Q 45.0625 54.296875 48.78125 52.59375 
z
" id="DejaVuSans-99"/>
     <path d="M 18.3125 70.21875 
L 18.3125 54.6875 
L 36.8125 54.6875 
L 36.8125 47.703125 
L 18.3125 47.703125 
L 18.3125 18.015625 
Q 18.3125 11.328125 20.140625 9.421875 
Q 21.96875 7.515625 27.59375 7.515625 
L 36.8125 7.515625 
L 36.8125 0 
L 27.59375 0 
Q 17.1875 0 13.234375 3.875 
Q 9.28125 7.765625 9.28125 18.015625 
L 9.28125 47.703125 
L 2.6875 47.703125 
L 2.6875 54.6875 
L 9.28125 54.6875 
L 9.28125 70.21875 
z
" id="DejaVuSans-116"/>
     <path d="M 11.71875 12.40625 
L 22.015625 12.40625 
L 22.015625 0 
L 11.71875 0 
z
M 11.71875 51.703125 
L 22.015625 51.703125 
L 22.015625 39.3125 
L 11.71875 39.3125 
z
" id="DejaVuSans-58"/>
     <path d="M 44.28125 53.078125 
L 44.28125 44.578125 
Q 40.484375 46.53125 36.375 47.5 
Q 32.28125 48.484375 27.875 48.484375 
Q 21.1875 48.484375 17.84375 46.4375 
Q 14.5 44.390625 14.5 40.28125 
Q 14.5 37.15625 16.890625 35.375 
Q 19.28125 33.59375 26.515625 31.984375 
L 29.59375 31.296875 
Q 39.15625 29.25 43.1875 25.515625 
Q 47.21875 21.78125 47.21875 15.09375 
Q 47.21875 7.46875 41.1875 3.015625 
Q 35.15625 -1.421875 24.609375 -1.421875 
Q 20.21875 -1.421875 15.453125 -0.5625 
Q 10.6875 0.296875 5.421875 2 
L 5.421875 11.28125 
Q 10.40625 8.6875 15.234375 7.390625 
Q 20.0625 6.109375 24.8125 6.109375 
Q 31.15625 6.109375 34.5625 8.28125 
Q 37.984375 10.453125 37.984375 14.40625 
Q 37.984375 18.0625 35.515625 20.015625 
Q 33.0625 21.96875 24.703125 23.78125 
L 21.578125 24.515625 
Q 13.234375 26.265625 9.515625 29.90625 
Q 5.8125 33.546875 5.8125 39.890625 
Q 5.8125 47.609375 11.28125 51.796875 
Q 16.75 56 26.8125 56 
Q 31.78125 56 36.171875 55.265625 
Q 40.578125 54.546875 44.28125 53.078125 
z
" id="DejaVuSans-115"/>
     <path d="M 8.203125 72.90625 
L 55.078125 72.90625 
L 55.078125 68.703125 
L 28.609375 0 
L 18.3125 0 
L 43.21875 64.59375 
L 8.203125 64.59375 
z
" id="DejaVuSans-55"/>
     <path d="M 11.71875 12.40625 
L 22.015625 12.40625 
L 22.015625 4 
L 14.015625 -11.625 
L 7.71875 -11.625 
L 11.71875 4 
z
" id="DejaVuSans-44"/>
     <path d="M 9.8125 72.90625 
L 19.671875 72.90625 
L 19.671875 42.09375 
L 52.390625 72.90625 
L 65.09375 72.90625 
L 28.90625 38.921875 
L 67.671875 0 
L 54.6875 0 
L 19.671875 35.109375 
L 19.671875 0 
L 9.8125 0 
z
" id="DejaVuSans-75"/>
     <path d="M 54.890625 33.015625 
L 54.890625 0 
L 45.90625 0 
L 45.90625 32.71875 
Q 45.90625 40.484375 42.875 44.328125 
Q 39.84375 48.1875 33.796875 48.1875 
Q 26.515625 48.1875 22.3125 43.546875 
Q 18.109375 38.921875 18.109375 30.90625 
L 18.109375 0 
L 9.078125 0 
L 9.078125 54.6875 
L 18.109375 54.6875 
L 18.109375 46.1875 
Q 21.34375 51.125 25.703125 53.5625 
Q 30.078125 56 35.796875 56 
Q 45.21875 56 50.046875 50.171875 
Q 54.890625 44.34375 54.890625 33.015625 
z
" id="DejaVuSans-110"/>
     <path d="M 30.609375 48.390625 
Q 23.390625 48.390625 19.1875 42.75 
Q 14.984375 37.109375 14.984375 27.296875 
Q 14.984375 17.484375 19.15625 11.84375 
Q 23.34375 6.203125 30.609375 6.203125 
Q 37.796875 6.203125 41.984375 11.859375 
Q 46.1875 17.53125 46.1875 27.296875 
Q 46.1875 37.015625 41.984375 42.703125 
Q 37.796875 48.390625 30.609375 48.390625 
z
M 30.609375 56 
Q 42.328125 56 49.015625 48.375 
Q 55.71875 40.765625 55.71875 27.296875 
Q 55.71875 13.875 49.015625 6.21875 
Q 42.328125 -1.421875 30.609375 -1.421875 
Q 18.84375 -1.421875 12.171875 6.21875 
Q 5.515625 13.875 5.515625 27.296875 
Q 5.515625 40.765625 12.171875 48.375 
Q 18.84375 56 30.609375 56 
z
" id="DejaVuSans-111"/>
     <path d="M 4.203125 54.6875 
L 13.1875 54.6875 
L 24.421875 12.015625 
L 35.59375 54.6875 
L 46.1875 54.6875 
L 57.421875 12.015625 
L 68.609375 54.6875 
L 77.59375 54.6875 
L 63.28125 0 
L 52.6875 0 
L 40.921875 44.828125 
L 29.109375 0 
L 18.5 0 
z
" id="DejaVuSans-119"/>
     <path d="M 10.59375 45.40625 
L 73.1875 45.40625 
L 73.1875 37.203125 
L 10.59375 37.203125 
z
M 10.59375 25.484375 
L 73.1875 25.484375 
L 73.1875 17.1875 
L 10.59375 17.1875 
z
" id="DejaVuSans-61"/>
     <path d="M 9.8125 72.90625 
L 51.703125 72.90625 
L 51.703125 64.59375 
L 19.671875 64.59375 
L 19.671875 43.109375 
L 48.578125 43.109375 
L 48.578125 34.8125 
L 19.671875 34.8125 
L 19.671875 0 
L 9.8125 0 
z
" id="DejaVuSans-70"/>
     <path d="M 34.28125 27.484375 
Q 23.390625 27.484375 19.1875 25 
Q 14.984375 22.515625 14.984375 16.5 
Q 14.984375 11.71875 18.140625 8.90625 
Q 21.296875 6.109375 26.703125 6.109375 
Q 34.1875 6.109375 38.703125 11.40625 
Q 43.21875 16.703125 43.21875 25.484375 
L 43.21875 27.484375 
z
M 52.203125 31.203125 
L 52.203125 0 
L 43.21875 0 
L 43.21875 8.296875 
Q 40.140625 3.328125 35.546875 0.953125 
Q 30.953125 -1.421875 24.3125 -1.421875 
Q 15.921875 -1.421875 10.953125 3.296875 
Q 6 8.015625 6 15.921875 
Q 6 25.140625 12.171875 29.828125 
Q 18.359375 34.515625 30.609375 34.515625 
L 43.21875 34.515625 
L 43.21875 35.40625 
Q 43.21875 41.609375 39.140625 45 
Q 35.0625 48.390625 27.6875 48.390625 
Q 23 48.390625 18.546875 47.265625 
Q 14.109375 46.140625 10.015625 43.890625 
L 10.015625 52.203125 
Q 14.9375 54.109375 19.578125 55.046875 
Q 24.21875 56 28.609375 56 
Q 40.484375 56 46.34375 49.84375 
Q 52.203125 43.703125 52.203125 31.203125 
z
" id="DejaVuSans-97"/>
     <path d="M 9.421875 75.984375 
L 18.40625 75.984375 
L 18.40625 0 
L 9.421875 0 
z
" id="DejaVuSans-108"/>
     <path d="M 19.671875 64.796875 
L 19.671875 8.109375 
L 31.59375 8.109375 
Q 46.6875 8.109375 53.6875 14.9375 
Q 60.6875 21.78125 60.6875 36.53125 
Q 60.6875 51.171875 53.6875 57.984375 
Q 46.6875 64.796875 31.59375 64.796875 
z
M 9.8125 72.90625 
L 30.078125 72.90625 
Q 51.265625 72.90625 61.171875 64.09375 
Q 71.09375 55.28125 71.09375 36.53125 
Q 71.09375 17.671875 61.125 8.828125 
Q 51.171875 0 30.078125 0 
L 9.8125 0 
z
" id="DejaVuSans-68"/>
     <path d="M 45.40625 27.984375 
Q 45.40625 37.75 41.375 43.109375 
Q 37.359375 48.484375 30.078125 48.484375 
Q 22.859375 48.484375 18.828125 43.109375 
Q 14.796875 37.75 14.796875 27.984375 
Q 14.796875 18.265625 18.828125 12.890625 
Q 22.859375 7.515625 30.078125 7.515625 
Q 37.359375 7.515625 41.375 12.890625 
Q 45.40625 18.265625 45.40625 27.984375 
z
M 54.390625 6.78125 
Q 54.390625 -7.171875 48.1875 -13.984375 
Q 42 -20.796875 29.203125 -20.796875 
Q 24.46875 -20.796875 20.265625 -20.09375 
Q 16.0625 -19.390625 12.109375 -17.921875 
L 12.109375 -9.1875 
Q 16.0625 -11.328125 19.921875 -12.34375 
Q 23.78125 -13.375 27.78125 -13.375 
Q 36.625 -13.375 41.015625 -8.765625 
Q 45.40625 -4.15625 45.40625 5.171875 
L 45.40625 9.625 
Q 42.625 4.78125 38.28125 2.390625 
Q 33.9375 0 27.875 0 
Q 17.828125 0 11.671875 7.65625 
Q 5.515625 15.328125 5.515625 27.984375 
Q 5.515625 40.671875 11.671875 48.328125 
Q 17.828125 56 27.875 56 
Q 33.9375 56 38.28125 53.609375 
Q 42.625 51.21875 45.40625 46.390625 
L 45.40625 54.6875 
L 54.390625 54.6875 
z
" id="DejaVuSans-103"/>
     <path d="M 41.109375 46.296875 
Q 39.59375 47.171875 37.8125 47.578125 
Q 36.03125 48 33.890625 48 
Q 26.265625 48 22.1875 43.046875 
Q 18.109375 38.09375 18.109375 28.8125 
L 18.109375 0 
L 9.078125 0 
L 9.078125 54.6875 
L 18.109375 54.6875 
L 18.109375 46.1875 
Q 20.953125 51.171875 25.484375 53.578125 
Q 30.03125 56 36.53125 56 
Q 37.453125 56 38.578125 55.875 
Q 39.703125 55.765625 41.0625 55.515625 
z
" id="DejaVuSans-114"/>
     <path d="M 9.421875 54.6875 
L 18.40625 54.6875 
L 18.40625 0 
L 9.421875 0 
z
M 9.421875 75.984375 
L 18.40625 75.984375 
L 18.40625 64.59375 
L 9.421875 64.59375 
z
" id="DejaVuSans-105"/>
     <path d="M 10.6875 12.40625 
L 21 12.40625 
L 21 0 
L 10.6875 0 
z
" id="DejaVuSans-46"/>
    </defs>
    <g transform="translate(49.741875 35.472)scale(0.12 -0.12)">
     <use xlink:href="#DejaVuSans-40"/>
     <use x="39.013672" xlink:href="#DejaVuSans-56"/>
     <use x="102.636719" xlink:href="#DejaVuSans-48"/>
     <use x="166.259766" xlink:href="#DejaVuSans-41"/>
     <use x="205.273438" xlink:href="#DejaVuSans-32"/>
     <use x="237.060547" xlink:href="#DejaVuSans-83"/>
     <use x="300.537109" xlink:href="#DejaVuSans-117"/>
     <use x="363.916016" xlink:href="#DejaVuSans-98"/>
     <use x="427.392578" xlink:href="#DejaVuSans-106"/>
     <use x="455.175781" xlink:href="#DejaVuSans-101"/>
     <use x="516.699219" xlink:href="#DejaVuSans-99"/>
     <use x="571.679688" xlink:href="#DejaVuSans-116"/>
     <use x="610.888672" xlink:href="#DejaVuSans-58"/>
     <use x="644.580078" xlink:href="#DejaVuSans-32"/>
     <use x="676.367188" xlink:href="#DejaVuSans-115"/>
     <use x="728.466797" xlink:href="#DejaVuSans-50"/>
     <use x="792.089844" xlink:href="#DejaVuSans-55"/>
     <use x="855.712891" xlink:href="#DejaVuSans-44"/>
     <use x="887.5" xlink:href="#DejaVuSans-32"/>
     <use x="919.287109" xlink:href="#DejaVuSans-75"/>
     <use x="984.863281" xlink:href="#DejaVuSans-110"/>
     <use x="1048.242188" xlink:href="#DejaVuSans-111"/>
     <use x="1109.423828" xlink:href="#DejaVuSans-119"/>
     <use x="1191.210938" xlink:href="#DejaVuSans-110"/>
     <use x="1254.589844" xlink:href="#DejaVuSans-32"/>
     <use x="1286.376953" xlink:href="#DejaVuSans-61"/>
     <use x="1370.166016" xlink:href="#DejaVuSans-32"/>
     <use x="1401.953125" xlink:href="#DejaVuSans-70"/>
     <use x="1459.332031" xlink:href="#DejaVuSans-97"/>
     <use x="1520.611328" xlink:href="#DejaVuSans-108"/>
     <use x="1548.394531" xlink:href="#DejaVuSans-115"/>
     <use x="1600.494141" xlink:href="#DejaVuSans-101"/>
     <use x="1662.017578" xlink:href="#DejaVuSans-44"/>
     <use x="1693.804688" xlink:href="#DejaVuSans-32"/>
     <use x="1725.591797" xlink:href="#DejaVuSans-68"/>
     <use x="1802.59375" xlink:href="#DejaVuSans-101"/>
     <use x="1864.117188" xlink:href="#DejaVuSans-103"/>
     <use x="1927.59375" xlink:href="#DejaVuSans-114"/>
     <use x="1968.675781" xlink:href="#DejaVuSans-101"/>
     <use x="2030.199219" xlink:href="#DejaVuSans-101"/>
     <use x="2091.722656" xlink:href="#DejaVuSans-32"/>
     <use x="2123.509766" xlink:href="#DejaVuSans-61"/>
     <use x="2207.298828" xlink:href="#DejaVuSans-32"/>
     <use x="2239.085938" xlink:href="#DejaVuSans-50"/>
     <use x="2302.708984" xlink:href="#DejaVuSans-44"/>
     <use x="2334.496094" xlink:href="#DejaVuSans-32"/>
     <use x="2366.283203" xlink:href="#DejaVuSans-68"/>
     <use x="2443.285156" xlink:href="#DejaVuSans-117"/>
     <use x="2506.664062" xlink:href="#DejaVuSans-114"/>
     <use x="2547.777344" xlink:href="#DejaVuSans-97"/>
     <use x="2609.056641" xlink:href="#DejaVuSans-116"/>
     <use x="2648.265625" xlink:href="#DejaVuSans-105"/>
     <use x="2676.048828" xlink:href="#DejaVuSans-111"/>
     <use x="2737.230469" xlink:href="#DejaVuSans-110"/>
     <use x="2800.609375" xlink:href="#DejaVuSans-32"/>
     <use x="2832.396484" xlink:href="#DejaVuSans-61"/>
     <use x="2916.185547" xlink:href="#DejaVuSans-32"/>
     <use x="2947.972656" xlink:href="#DejaVuSans-48"/>
     <use x="3011.595703" xlink:href="#DejaVuSans-46"/>
     <use x="3043.382812" xlink:href="#DejaVuSans-49"/>
    </g>
   </g>
  </g>
 </g>
 <defs>
  <clipPath id="p09a401278b">
   <rect height="266.112" width="357.12" x="57.6" y="41.472"/>
  </clipPath>
 </defs>
</svg>
