<?xml version="1.0" encoding="utf-8" standalone="no"?>
<!DOCTYPE svg PUBLIC "-//W3C//DTD SVG 1.1//EN"
  "http://www.w3.org/Graphics/SVG/1.1/DTD/svg11.dtd">
<!-- Created with matplotlib (https://matplotlib.org/) -->
<svg height="345.6pt" version="1.1" viewBox="0 0 460.8 345.6" width="460.8pt" xmlns="http://www.w3.org/2000/svg" xmlns:xlink="http://www.w3.org/1999/xlink">
 <defs>
  <style type="text/css">
*{stroke-linecap:butt;stroke-linejoin:round;}
  </style>
 </defs>
 <g id="figure_1">
  <g id="patch_1">
   <path d="M 0 345.6 
L 460.8 345.6 
L 460.8 0 
L 0 0 
z
" style="fill:#ffffff;"/>
  </g>
  <g id="axes_1">
   <g id="patch_2">
    <path d="M 57.6 307.584 
L 414.72 307.584 
L 414.72 41.472 
L 57.6 41.472 
z
" style="fill:#ffffff;"/>
   </g>
   <g id="line2d_1">
    <path clip-path="url(#p31d735db5b)" d="M 74.751302 53.876586 
L 75.303854 54.029932 
L 75.673396 53.721346 
L 75.486866 53.721346 
L 75.303854 54.183279 
L 74.937832 54.645211 
L 74.568291 54.645211 
L 74.568291 53.721346 
L 74.751302 53.568 
L 75.303854 53.721346 
L 75.673396 54.338518 
L 75.673396 54.645211 
L 75.303854 54.800451 
L 75.303854 54.029932 
L 75.486866 53.876586 
L 75.486866 54.183279 
L 75.303854 54.800451 
L 75.120843 54.800451 
L 75.673396 54.491865 
L 75.673396 54.183279 
L 75.486866 54.183279 
L 75.486866 54.645211 
L 75.856407 54.645211 
L 76.039418 54.491865 
L 75.856407 54.338518 
L 75.486866 54.645211 
L 75.673396 55.107143 
L 76.039418 55.415729 
L 76.222429 55.415729 
L 75.486866 54.800451 
L 74.751302 54.491865 
L 74.751302 54.338518 
L 74.937832 54.338518 
L 75.303854 54.953797 
L 74.751302 55.107143 
L 75.120843 54.953797 
L 75.673396 54.491865 
L 75.856407 54.491865 
L 75.856407 55.107143 
L 75.673396 55.262383 
L 75.673396 54.800451 
L 75.486866 54.491865 
L 74.937832 54.491865 
L 74.568291 54.645211 
L 74.751302 54.800451 
L 75.673396 54.800451 
L 75.303854 54.491865 
L 75.303854 54.491865 
L 75.486866 54.800451 
L 75.673396 55.415729 
L 75.303854 55.877661 
L 74.937832 56.031008 
L 75.120843 55.724315 
L 75.673396 55.262383 
L 75.486866 55.107143 
L 74.38528 54.800451 
L 74.568291 55.107143 
L 75.120843 55.415729 
L 75.673396 55.415729 
L 75.856407 55.107143 
L 75.673396 54.953797 
L 74.751302 55.569076 
L 75.120843 55.569076 
L 75.303854 55.415729 
L 75.856407 55.415729 
L 76.039418 55.569076 
L 75.856407 55.724315 
L 74.937832 55.724315 
L 74.937832 55.877661 
L 74.937832 55.877661 
L 75.120843 55.724315 
L 74.202269 56.186247 
L 74.015738 56.031008 
L 74.015738 55.877661 
L 74.38528 55.877661 
L 74.568291 56.031008 
L 74.015738 56.186247 
L 74.015738 55.877661 
L 74.568291 55.415729 
L 74.937832 55.262383 
L 74.937832 55.415729 
L 75.303854 55.569076 
L 75.673396 55.569076 
L 75.673396 55.877661 
L 75.303854 55.877661 
L 74.937832 56.031008 
L 75.120843 56.186247 
L 75.120843 56.186247 
L 74.751302 55.724315 
L 74.568291 55.724315 
L 74.751302 56.031008 
L 75.120843 56.186247 
L 75.303854 56.64818 
L 75.303854 56.64818 
L 75.673396 56.186247 
L 75.673396 55.877661 
L 74.751302 55.877661 
L 75.303854 55.877661 
L 75.856407 56.031008 
L 75.856407 56.339594 
L 75.673396 56.64818 
L 75.486866 56.49294 
L 75.486866 56.186247 
L 75.673396 56.031008 
L 75.856407 56.186247 
L 76.039418 56.49294 
L 75.303854 56.339594 
L 74.38528 56.031008 
L 74.202269 56.186247 
L 74.38528 56.339594 
L 74.38528 56.49294 
L 74.015738 56.49294 
L 73.832727 56.339594 
L 74.202269 56.339594 
L 74.751302 56.49294 
L 74.751302 56.64818 
L 74.015738 56.954872 
L 74.937832 56.49294 
L 75.120843 56.64818 
L 74.751302 56.954872 
L 74.568291 56.801526 
L 74.568291 56.339594 
L 74.202269 56.339594 
L 74.015738 56.186247 
L 74.015738 56.031008 
L 74.015738 56.186247 
L 74.937832 57.416805 
L 74.937832 57.263458 
L 74.937832 57.110112 
L 75.120843 56.954872 
L 75.120843 56.64818 
L 75.120843 56.954872 
L 75.303854 57.110112 
L 76.222429 57.110112 
L 76.591971 57.572044 
L 76.222429 57.263458 
L 75.856407 56.801526 
L 75.303854 56.954872 
L 75.120843 57.263458 
L 75.303854 57.725391 
L 75.856407 57.878737 
L 76.222429 57.725391 
L 76.222429 57.572044 
L 76.039418 57.416805 
L 76.039418 57.416805 
L 76.039418 57.572044 
L 76.039418 57.416805 
L 75.486866 57.416805 
L 75.303854 57.572044 
L 75.486866 57.878737 
L 75.120843 58.187323 
L 75.120843 57.725391 
L 75.486866 57.416805 
L 75.303854 57.416805 
L 75.303854 57.416805 
L 75.303854 57.878737 
L 75.303854 57.878737 
L 75.673396 56.954872 
L 75.486866 56.954872 
L 75.303854 57.263458 
L 75.303854 57.572044 
L 75.303854 57.110112 
L 75.120843 57.110112 
L 75.120843 57.263458 
L 75.486866 58.033977 
L 76.039418 58.033977 
L 76.222429 58.187323 
L 76.222429 58.649255 
L 76.039418 58.802602 
L 75.486866 58.802602 
L 75.303854 58.340669 
L 75.673396 58.340669 
L 75.856407 59.111188 
L 75.303854 59.264534 
L 74.568291 59.264534 
L 74.568291 58.802602 
L 74.937832 58.649255 
L 75.486866 58.957841 
L 75.120843 59.57312 
L 75.303854 60.188398 
L 75.303854 59.881706 
L 75.486866 59.57312 
L 75.673396 59.726466 
L 74.937832 60.343638 
L 74.937832 60.496984 
L 75.486866 60.650331 
L 75.673396 61.114156 
L 75.486866 61.420849 
L 75.486866 61.420849 
L 75.856407 61.267503 
L 76.591971 61.114156 
L 77.693556 61.114156 
L 80.4528 62.191367 
L 82.655971 62.961885 
L 85.598225 63.577164 
L 92.767331 64.809615 
L 102.326138 66.81069 
L 108.027636 68.196487 
L 121.077731 71.12332 
L 128.063826 72.81581 
L 135.04992 74.972125 
L 142.588567 77.590372 
L 165.200989 86.829018 
L 173.105658 89.755852 
L 180.827316 93.142724 
L 194.795986 100.535534 
L 201.968611 103.76906 
L 209.137716 106.694 
L 222.923375 113.007706 
L 230.09248 115.934539 
L 237.265105 118.550893 
L 243.881658 121.477727 
L 256.935272 128.253365 
L 263.551825 131.178305 
L 269.619345 134.258484 
L 275.500335 137.953943 
L 281.015302 141.651294 
L 286.347258 145.038167 
L 296.092596 150.88994 
L 310.061266 158.742789 
L 315.393222 161.361036 
L 320.908189 164.441216 
L 326.792698 168.136675 
L 332.673687 171.987372 
L 339.29376 175.836177 
L 353.997993 183.53568 
L 361.170618 187.69307 
L 367.60416 192.005701 
L 372.936116 196.009745 
L 385.067636 205.710323 
L 388.192902 208.481917 
L 390.216582 210.791578 
L 391.684189 212.639307 
L 391.87072 214.180344 
L 391.318167 215.412794 
L 390.216582 216.643352 
L 388.745454 217.722456 
L 386.904786 218.337734 
L 383.230487 218.953013 
L 381.206807 219.723531 
L 378.451083 221.109328 
L 377.528989 221.7265 
L 376.427404 222.188432 
L 374.956276 223.41899 
L 374.956276 224.342854 
L 375.139287 225.113372 
L 375.508829 225.728651 
L 378.817105 229.426003 
L 379.552669 230.041281 
L 379.918691 230.65656 
L 380.471244 231.118492 
L 381.942371 232.812875 
L 382.308393 233.73674 
L 382.125382 234.507258 
L 382.125382 235.122536 
L 382.494923 236.970266 
L 382.125382 237.432198 
L 381.206807 238.202716 
L 379.918691 238.973234 
L 379.552669 239.126581 
L 379.183127 239.897099 
L 377.898531 240.665724 
L 377.528989 240.665724 
L 377.528989 240.665724 
L 377.345978 240.97431 
L 377.345978 242.20676 
L 378.081542 243.592557 
L 377.345978 244.363076 
L 376.979956 244.669768 
L 376.244393 244.978354 
L 375.508829 244.825008 
L 375.69184 244.825008 
L 376.793426 244.825008 
L 377.345978 245.131701 
L 377.71552 245.593633 
L 377.898531 246.210805 
L 378.264553 246.364151 
L 378.451083 246.210805 
L 378.264553 246.364151 
L 377.71552 246.517497 
L 376.979956 246.364151 
L 376.979956 246.210805 
L 377.162967 246.364151 
L 377.345978 247.134669 
L 377.162967 248.058534 
L 377.345978 248.520466 
L 377.528989 248.520466 
L 377.528989 248.520466 
L 377.162967 248.365227 
L 376.793426 247.596602 
L 376.610415 247.903294 
L 376.610415 248.21188 
L 377.162967 248.365227 
L 376.793426 248.365227 
L 376.427404 248.520466 
L 376.427404 248.673813 
L 375.874851 248.673813 
L 375.508829 248.827159 
L 375.69184 249.135745 
L 376.610415 249.135745 
L 376.979956 249.289091 
L 376.793426 249.444331 
L 375.874851 249.444331 
L 376.244393 249.135745 
L 376.244393 249.289091 
L 376.057862 249.597677 
L 375.508829 249.751023 
L 375.874851 250.059609 
L 376.244393 250.059609 
L 376.793426 249.906263 
L 376.427404 250.059609 
L 376.057862 250.368195 
L 375.139287 250.521542 
L 375.325818 250.521542 
L 374.956276 250.983474 
L 374.590254 251.138714 
L 374.220713 251.600646 
L 374.220713 252.215924 
L 375.139287 252.677857 
L 374.956276 252.677857 
L 374.773265 252.986443 
L 374.403724 253.293135 
L 374.220713 252.986443 
L 374.220713 252.677857 
L 374.590254 252.677857 
L 375.139287 252.986443 
L 375.139287 253.139789 
L 375.139287 253.139789 
L 374.956276 252.986443 
L 374.590254 253.139789 
L 374.403724 253.448375 
L 374.590254 253.293135 
L 374.590254 252.831203 
L 374.403724 252.677857 
L 373.66816 252.986443 
L 374.037702 253.755068 
L 374.037702 254.217 
L 373.66816 254.37224 
L 372.936116 254.063654 
L 372.749586 254.217 
L 372.566575 254.063654 
L 372.383563 254.063654 
L 373.854691 254.525586 
L 373.66816 254.678932 
L 373.485149 254.525586 
L 373.302138 254.063654 
L 373.119127 253.910307 
L 372.566575 254.217 
L 372.749586 254.217 
L 373.66816 254.678932 
L 373.854691 254.987518 
L 373.485149 255.140865 
L 372.749586 255.296104 
L 372.200552 255.296104 
L 372.014022 255.449451 
L 372.014022 255.449451 
L 372.014022 255.758036 
L 372.749586 256.526662 
L 373.119127 256.219969 
L 373.119127 256.219969 
L 372.936116 256.219969 
L 372.383563 256.064729 
L 371.648 256.373315 
L 371.464989 256.681901 
L 371.648 257.143833 
L 371.464989 257.29718 
L 371.278458 257.605766 
L 371.648 257.912458 
L 372.014022 257.605766 
L 372.014022 256.988594 
L 371.464989 256.526662 
L 370.729425 256.681901 
L 370.359884 257.143833 
L 370.912436 257.143833 
L 371.095447 257.29718 
L 371.095447 257.605766 
L 371.278458 257.759112 
L 370.912436 257.143833 
L 370.912436 256.835247 
L 371.278458 256.988594 
L 371.464989 257.29718 
L 370.542895 257.759112 
L 370.542895 257.912458 
L 371.095447 257.912458 
L 371.464989 257.605766 
L 371.464989 257.143833 
L 371.278458 256.681901 
L 369.810851 256.681901 
L 369.810851 256.835247 
L 370.359884 257.29718 
L 371.464989 257.759112 
L 371.095447 257.605766 
L 370.542895 257.605766 
L 370.359884 257.912458 
L 370.729425 258.221044 
L 370.912436 258.221044 
L 370.542895 258.221044 
L 370.176873 258.067698 
L 370.176873 257.912458 
L 369.993862 257.759112 
L 370.176873 257.759112 
L 370.176873 258.067698 
L 370.359884 258.221044 
L 370.729425 258.682977 
L 370.542895 258.682977 
L 370.542895 258.221044 
L 370.729425 257.912458 
L 370.542895 258.376284 
L 370.912436 258.376284 
L 370.729425 258.52963 
L 370.542895 258.52963 
L 370.912436 258.52963 
L 370.729425 258.838216 
L 370.359884 258.838216 
L 369.993862 258.682977 
L 369.993862 259.144909 
L 370.176873 259.300148 
L 370.359884 259.300148 
L 369.993862 258.682977 
L 369.810851 258.682977 
L 369.993862 258.682977 
L 369.993862 258.52963 
L 369.993862 258.838216 
L 369.810851 259.453495 
L 369.993862 259.915427 
L 369.810851 260.224013 
L 369.62432 260.224013 
L 369.62432 260.224013 
L 369.441309 260.068773 
L 369.62432 259.453495 
L 369.810851 259.606841 
L 369.62432 260.068773 
L 369.258298 260.530706 
L 368.888757 260.685945 
L 368.888757 260.224013 
L 369.258298 259.762081 
L 369.441309 259.762081 
L 369.441309 260.224013 
L 369.258298 260.377359 
L 369.075287 260.377359 
L 369.075287 260.839292 
L 369.441309 260.992638 
L 369.810851 260.839292 
L 369.810851 260.685945 
L 369.62432 260.685945 
L 369.62432 260.377359 
L 369.810851 260.068773 
L 369.62432 260.224013 
L 369.258298 260.530706 
L 369.258298 260.685945 
L 369.258298 260.530706 
L 368.888757 260.685945 
L 368.522734 260.992638 
L 368.153193 260.992638 
L 367.970182 260.839292 
L 367.970182 260.992638 
L 368.522734 261.147878 
L 368.705745 260.992638 
L 368.888757 260.530706 
L 368.705745 260.685945 
L 368.705745 261.60981 
L 368.522734 261.45457 
L 368.339723 260.839292 
L 368.522734 260.530706 
L 368.522734 260.685945 
L 368.339723 261.147878 
L 368.153193 261.301224 
L 368.522734 260.530706 
L 368.339723 260.224013 
L 368.339723 260.224013 
L 368.339723 260.530706 
L 368.153193 260.685945 
L 368.153193 260.839292 
L 368.339723 260.839292 
L 368.522734 260.992638 
L 368.522734 260.992638 
L 369.075287 261.301224 
L 368.888757 261.60981 
L 368.153193 261.763156 
L 367.60416 261.301224 
L 366.868596 259.915427 
L 367.051607 259.762081 
L 367.60416 259.762081 
L 367.60416 259.915427 
L 367.787171 260.377359 
L 367.417629 260.839292 
L 366.685585 260.992638 
L 365.950022 260.839292 
L 366.133033 260.685945 
L 366.868596 260.685945 
L 366.868596 260.839292 
L 367.051607 260.992638 
L 367.051607 261.147878 
L 367.417629 260.530706 
L 367.234618 260.377359 
L 367.234618 261.45457 
L 366.868596 261.45457 
L 366.499055 261.301224 
L 366.499055 260.839292 
L 366.685585 260.685945 
L 366.316044 260.839292 
L 365.950022 261.301224 
L 365.58048 261.45457 
L 365.58048 261.301224 
L 365.397469 261.147878 
L 365.214458 261.301224 
L 365.214458 262.071742 
L 365.214458 261.763156 
L 365.397469 261.60981 
L 365.214458 261.763156 
L 365.027927 261.60981 
L 364.661905 261.147878 
L 364.844916 261.147878 
L 365.027927 261.301224 
L 365.214458 262.071742 
L 365.027927 261.763156 
L 365.027927 261.301224 
L 364.844916 261.45457 
L 364.478894 261.45457 
L 364.292364 261.301224 
L 364.292364 261.147878 
L 364.109353 261.301224 
L 364.292364 261.60981 
L 364.661905 261.763156 
L 364.844916 261.60981 
L 364.661905 261.301224 
L 364.292364 261.147878 
L 363.926342 261.147878 
L 363.743331 261.301224 
L 363.743331 261.45457 
L 363.56032 261.45457 
L 363.56032 261.301224 
L 363.926342 261.301224 
L 364.109353 261.60981 
L 363.743331 262.071742 
L 363.56032 262.225089 
L 363.743331 262.071742 
L 363.743331 261.763156 
L 363.373789 261.60981 
L 363.56032 261.45457 
L 364.478894 261.301224 
L 364.109353 261.45457 
L 363.373789 261.60981 
L 362.638226 261.45457 
L 361.902662 261.147878 
L 359.699491 259.762081 
L 358.411374 259.300148 
L 352.896407 258.221044 
L 350.506705 257.759112 
L 348.300015 257.143833 
L 346.093324 256.219969 
L 343.3376 255.296104 
L 340.761367 254.678932 
L 337.453091 254.063654 
L 335.798953 253.293135 
L 333.592262 252.677857 
L 329.365411 251.907339 
L 326.057134 251.445406 
L 325.13856 251.29206 
L 324.033455 251.29206 
L 323.297891 251.445406 
L 323.11488 251.907339 
L 323.11488 252.831203 
L 323.297891 252.986443 
L 324.033455 253.293135 
L 324.586007 253.755068 
L 324.586007 254.987518 
L 325.13856 257.143833 
L 325.504582 258.682977 
L 325.321571 259.300148 
L 325.321571 259.762081 
L 325.504582 260.224013 
L 324.952029 260.992638 
L 324.952029 262.378435 
L 325.321571 263.148953 
L 325.13856 264.072818 
L 325.13856 264.072818 
L 324.952029 263.764232 
L 324.402996 263.3023 
L 324.216466 263.457539 
L 324.216466 264.226164 
L 324.586007 264.996682 
L 325.13856 265.613854 
L 325.504582 266.229133 
L 325.13856 266.537719 
L 324.952029 266.075786 
L 324.952029 265.767201 
L 325.321571 265.920547 
L 325.504582 266.691065 
L 325.321571 267.306344 
L 324.586007 267.306344 
L 324.586007 267.461583 
L 324.769018 267.768276 
L 325.321571 268.230208 
L 325.504582 268.230208 
L 325.504582 268.076862 
L 325.321571 267.923516 
L 324.952029 268.076862 
L 324.952029 268.538794 
L 325.504582 268.538794 
L 325.504582 268.692141 
L 324.586007 268.692141 
L 324.216466 268.385448 
L 324.216466 268.385448 
L 324.402996 268.692141 
L 324.952029 268.84738 
L 325.13856 268.692141 
L 325.13856 268.538794 
L 324.952029 268.538794 
L 324.586007 269.309313 
L 324.769018 269.154073 
L 325.13856 269.000727 
L 325.321571 269.154073 
L 325.874123 269.154073 
L 326.057134 269.309313 
L 325.874123 269.462659 
L 325.504582 269.154073 
L 325.504582 268.84738 
L 325.321571 268.692141 
L 324.952029 268.538794 
L 324.769018 268.692141 
L 324.769018 269.154073 
L 325.13856 270.233177 
L 325.13856 270.077938 
L 325.13856 269.309313 
L 324.769018 268.692141 
L 324.402996 268.692141 
L 324.216466 268.84738 
L 324.402996 269.000727 
L 324.769018 269.154073 
L 325.13856 269.462659 
L 325.321571 269.771245 
L 325.321571 269.309313 
L 325.13856 268.84738 
L 324.216466 268.84738 
L 324.402996 269.154073 
L 325.13856 269.462659 
L 325.504582 269.771245 
L 325.13856 270.848456 
L 325.687593 270.386523 
L 325.874123 270.077938 
L 325.687593 269.771245 
L 325.13856 269.462659 
L 324.586007 269.462659 
L 324.402996 269.924591 
L 324.586007 270.386523 
L 324.952029 270.53987 
L 324.952029 270.53987 
L 325.13856 270.077938 
L 324.952029 270.077938 
L 324.586007 269.771245 
L 324.769018 269.462659 
L 325.504582 269.462659 
L 325.504582 269.771245 
L 325.321571 270.077938 
L 325.13856 270.077938 
L 325.13856 270.233177 
L 324.952029 270.386523 
L 325.13856 270.386523 
L 325.321571 269.924591 
L 325.687593 269.616005 
L 325.504582 269.771245 
L 324.952029 269.771245 
L 324.033455 269.924591 
L 324.216466 269.924591 
L 324.586007 269.616005 
L 325.13856 269.616005 
L 325.13856 269.616005 
L 324.952029 269.462659 
L 324.952029 269.462659 
L 324.769018 269.462659 
L 325.321571 269.000727 
L 325.687593 269.000727 
L 325.504582 269.154073 
L 324.586007 269.154073 
L 323.850444 269.000727 
L 324.216466 269.000727 
L 324.769018 269.462659 
L 324.586007 269.462659 
L 324.402996 269.616005 
L 324.402996 270.077938 
L 324.216466 270.233177 
L 324.586007 269.924591 
L 324.769018 269.616005 
L 324.586007 269.309313 
L 324.402996 269.309313 
L 324.402996 269.154073 
L 324.952029 269.616005 
L 324.952029 269.924591 
L 324.586007 269.924591 
L 324.769018 269.771245 
L 325.13856 270.077938 
L 324.769018 270.233177 
L 324.033455 269.616005 
L 324.033455 269.154073 
L 324.586007 269.462659 
L 324.402996 269.462659 
L 324.402996 269.309313 
L 324.586007 269.462659 
L 324.586007 269.616005 
L 324.216466 269.462659 
L 323.667432 269.000727 
L 323.667432 269.000727 
L 323.480902 269.309313 
L 323.667432 269.462659 
L 324.769018 269.154073 
L 324.216466 268.692141 
L 325.504582 268.538794 
L 325.13856 268.692141 
L 325.504582 269.000727 
L 325.504582 269.000727 
L 325.504582 268.84738 
L 325.321571 268.692141 
L 324.402996 268.692141 
L 324.216466 268.538794 
L 324.586007 268.385448 
L 325.13856 268.538794 
L 325.13856 268.84738 
L 326.057134 268.84738 
L 325.874123 269.000727 
L 324.769018 269.462659 
L 324.216466 269.462659 
L 324.216466 269.771245 
L 324.402996 269.771245 
L 324.402996 269.771245 
L 324.216466 269.616005 
L 324.033455 269.154073 
L 324.033455 269.154073 
L 324.033455 269.616005 
L 324.033455 269.616005 
L 324.216466 269.616005 
L 325.321571 269.309313 
L 325.874123 269.309313 
L 326.057134 269.462659 
L 325.874123 269.462659 
L 324.769018 269.309313 
L 324.586007 269.616005 
L 324.769018 269.616005 
L 324.769018 269.154073 
L 324.952029 269.309313 
L 326.057134 269.924591 
L 326.423156 269.771245 
L 326.423156 269.616005 
L 326.240145 269.771245 
L 325.874123 269.924591 
L 325.504582 269.924591 
L 325.321571 269.771245 
L 325.321571 269.924591 
L 325.321571 269.462659 
L 325.504582 269.616005 
L 325.504582 269.771245 
L 325.504582 269.462659 
L 325.504582 269.462659 
L 325.321571 269.924591 
L 325.13856 270.077938 
L 325.504582 269.771245 
L 325.874123 269.771245 
L 325.687593 269.771245 
L 325.321571 269.924591 
L 325.321571 270.53987 
L 324.769018 270.53987 
L 324.402996 270.386523 
L 324.402996 269.924591 
L 323.667432 269.462659 
L 323.850444 269.771245 
L 324.033455 269.771245 
L 324.216466 269.616005 
L 324.402996 269.309313 
L 323.850444 268.84738 
L 323.850444 268.84738 
L 323.667432 269.154073 
L 323.667432 269.154073 
L 324.402996 268.538794 
L 324.586007 268.538794 
L 325.13856 268.692141 
L 325.13856 268.385448 
L 324.586007 266.999651 
L 323.850444 267.61493 
L 323.667432 267.923516 
L 324.769018 267.923516 
L 325.13856 267.768276 
L 324.952029 267.768276 
L 324.216466 267.768276 
L 324.216466 267.461583 
L 324.586007 266.844412 
L 325.13856 266.229133 
L 325.13856 266.382479 
L 325.321571 266.382479 
L 325.504582 265.920547 
L 325.321571 266.075786 
L 325.321571 266.382479 
L 324.952029 266.382479 
L 324.586007 266.537719 
L 324.402996 266.999651 
L 324.402996 266.999651 
L 324.033455 266.844412 
L 324.033455 266.844412 
L 323.850444 266.999651 
L 323.850444 266.691065 
L 324.216466 265.613854 
L 324.216466 265.613854 
L 324.402996 265.767201 
L 324.216466 265.767201 
L 324.033455 265.613854 
L 324.033455 265.305268 
L 323.850444 265.150029 
L 325.13856 265.767201 
L 325.13856 265.613854 
L 324.952029 265.150029 
L 324.952029 264.843336 
L 324.586007 264.843336 
L 324.216466 265.150029 
L 325.13856 265.613854 
L 325.13856 265.458615 
L 324.769018 264.996682 
L 324.952029 264.843336 
L 324.952029 264.996682 
L 324.402996 265.305268 
L 324.033455 265.150029 
L 324.216466 264.53475 
L 324.586007 264.381404 
L 324.586007 264.843336 
L 324.586007 264.53475 
L 324.769018 264.226164 
L 324.769018 264.381404 
L 324.402996 264.381404 
L 323.850444 264.072818 
L 324.402996 263.610885 
L 324.769018 263.457539 
L 324.769018 263.457539 
L 324.769018 264.226164 
L 324.586007 264.53475 
L 324.586007 264.381404 
L 324.586007 264.072818 
L 324.586007 264.226164 
L 324.033455 264.53475 
L 324.033455 264.688096 
L 323.850444 264.688096 
L 324.586007 264.688096 
L 324.952029 264.53475 
L 324.952029 263.919471 
L 324.586007 264.072818 
L 324.033455 263.919471 
L 323.297891 263.919471 
L 324.033455 263.919471 
L 324.769018 263.764232 
L 324.586007 264.072818 
L 324.402996 264.688096 
L 324.769018 264.996682 
L 324.769018 265.150029 
L 323.850444 264.688096 
L 323.850444 264.688096 
L 324.033455 264.996682 
L 324.402996 265.305268 
L 324.769018 265.305268 
L 324.769018 264.996682 
L 324.216466 264.843336 
L 324.033455 264.996682 
L 323.667432 264.843336 
L 323.297891 264.53475 
L 323.480902 264.226164 
L 323.850444 264.53475 
L 324.216466 265.305268 
L 324.769018 265.767201 
L 326.057134 265.920547 
L 328.263825 265.920547 
L 330.653527 266.075786 
L 332.856698 266.382479 
L 352.713396 271.925667 
L 356.940247 273.313357 
L 361.170618 274.390568 
L 369.075287 275.776365 
L 378.634094 277.162161 
L 381.75936 277.77744 
L 383.966051 278.547958 
L 387.091316 280.087102 
L 388.375913 281.166206 
L 389.294487 282.09007 
L 389.664029 283.013935 
L 391.318167 283.013935 
L 392.972305 282.552003 
L 393.524858 283.322521 
L 393.707869 284.399732 
L 394.073891 284.861664 
L 394.626444 285.01501 
L 395.545018 285.01501 
L 396.280582 285.323596 
L 396.833134 285.785529 
L 398.304262 286.709393 
L 398.487273 287.171326 
L 398.304262 287.324672 
L 397.93472 288.09519 
L 397.385687 288.403776 
L 396.280582 288.403776 
L 395.545018 288.25043 
L 395.362007 288.09519 
L 395.178996 288.09519 
L 394.809455 288.403776 
L 394.626444 289.019055 
L 394.809455 289.327641 
L 395.178996 289.327641 
L 395.362007 289.019055 
L 395.545018 289.174294 
L 394.995985 289.942919 
L 395.545018 290.404852 
L 395.362007 290.713438 
L 394.995985 290.866784 
L 395.362007 290.713438 
L 395.91456 290.713438 
L 396.467112 291.022023 
L 396.280582 291.022023 
L 396.097571 291.17537 
L 395.731549 291.790648 
L 395.91456 291.328716 
L 396.280582 291.17537 
L 395.91456 290.866784 
L 395.362007 291.022023 
L 394.995985 291.945888 
L 394.809455 291.945888 
L 394.995985 291.790648 
L 394.995985 291.945888 
L 395.362007 292.252581 
L 395.545018 292.714513 
L 395.178996 292.714513 
L 394.260422 292.099234 
L 394.073891 291.945888 
L 394.073891 291.945888 
L 394.443433 291.945888 
L 394.809455 292.099234 
L 395.178996 292.40782 
L 395.731549 292.561167 
L 395.731549 292.40782 
L 394.995985 292.252581 
L 394.626444 292.40782 
L 394.809455 292.561167 
L 395.362007 292.252581 
L 395.178996 292.252581 
L 394.443433 292.714513 
L 394.626444 292.714513 
L 394.995985 292.561167 
L 395.178996 292.714513 
L 394.809455 293.331685 
L 395.731549 292.40782 
L 395.731549 292.561167 
L 395.545018 292.714513 
L 395.545018 292.714513 
L 396.097571 293.176445 
L 395.545018 293.176445 
L 394.260422 292.869753 
L 394.260422 292.869753 
L 394.443433 292.714513 
L 395.362007 293.331685 
L 395.362007 293.793617 
L 395.178996 293.946964 
L 395.178996 293.793617 
L 395.545018 293.793617 
L 395.545018 293.793617 
L 394.626444 293.176445 
L 395.91456 293.793617 
L 396.097571 293.638378 
L 395.91456 293.793617 
L 395.731549 293.793617 
L 395.362007 292.561167 
L 394.995985 292.40782 
L 394.626444 293.946964 
L 394.626444 293.946964 
L 393.341847 294.408896 
L 393.155316 294.255549 
L 393.341847 294.10031 
L 393.707869 294.10031 
L 393.707869 294.408896 
L 393.89088 294.562242 
L 393.707869 294.408896 
L 393.524858 294.10031 
L 393.155316 293.793617 
L 392.606283 293.485031 
L 392.972305 293.176445 
L 393.155316 293.176445 
L 392.972305 293.331685 
L 392.789294 293.176445 
L 392.789294 293.023099 
L 392.972305 293.331685 
L 393.341847 293.638378 
L 393.341847 293.946964 
L 393.341847 293.946964 
L 392.972305 293.946964 
L 392.419753 294.10031 
L 392.236742 294.10031 
L 392.419753 294.408896 
L 393.155316 294.717482 
L 393.341847 295.179414 
L 393.155316 295.488 
L 392.789294 295.33276 
L 392.789294 294.717482 
L 393.155316 294.408896 
L 393.341847 294.10031 
L 392.789294 293.638378 
L 392.789294 293.638378 
L 392.972305 294.10031 
L 392.606283 294.10031 
L 391.87072 293.485031 
L 391.318167 293.176445 
L 391.684189 293.176445 
L 392.053731 293.485031 
L 392.236742 293.793617 
L 392.419753 293.793617 
L 392.419753 293.946964 
L 392.236742 294.10031 
L 392.236742 293.946964 
L 391.87072 293.793617 
L 390.948626 293.793617 
L 391.135156 294.255549 
L 390.948626 294.10031 
L 390.948626 294.255549 
L 391.501178 294.408896 
L 391.135156 294.255549 
L 390.582604 294.562242 
L 390.030051 294.717482 
L 390.030051 294.255549 
L 390.216582 293.793617 
L 390.765615 293.638378 
L 391.135156 293.946964 
L 390.948626 294.10031 
L 390.399593 294.255549 
L 390.399593 294.255549 
" style="fill:none;stroke:#1f77b4;stroke-linecap:square;stroke-width:1.5;"/>
   </g>
   <g id="matplotlib.axis_1">
    <g id="xtick_1">
     <g id="line2d_2">
      <defs>
       <path d="M 0 0 
L 0 3.5 
" id="md5b5b76b22" style="stroke:#000000;stroke-width:0.8;"/>
      </defs>
      <g>
       <use style="stroke:#000000;stroke-width:0.8;" x="70.549087" xlink:href="#md5b5b76b22" y="307.584"/>
      </g>
     </g>
     <g id="text_1">
      <!-- −800 -->
      <defs>
       <path d="M 10.59375 35.5 
L 73.1875 35.5 
L 73.1875 27.203125 
L 10.59375 27.203125 
z
" id="DejaVuSans-8722"/>
       <path d="M 31.78125 34.625 
Q 24.75 34.625 20.71875 30.859375 
Q 16.703125 27.09375 16.703125 20.515625 
Q 16.703125 13.921875 20.71875 10.15625 
Q 24.75 6.390625 31.78125 6.390625 
Q 38.8125 6.390625 42.859375 10.171875 
Q 46.921875 13.96875 46.921875 20.515625 
Q 46.921875 27.09375 42.890625 30.859375 
Q 38.875 34.625 31.78125 34.625 
z
M 21.921875 38.8125 
Q 15.578125 40.375 12.03125 44.71875 
Q 8.5 49.078125 8.5 55.328125 
Q 8.5 64.0625 14.71875 69.140625 
Q 20.953125 74.21875 31.78125 74.21875 
Q 42.671875 74.21875 48.875 69.140625 
Q 55.078125 64.0625 55.078125 55.328125 
Q 55.078125 49.078125 51.53125 44.71875 
Q 48 40.375 41.703125 38.8125 
Q 48.828125 37.15625 52.796875 32.3125 
Q 56.78125 27.484375 56.78125 20.515625 
Q 56.78125 9.90625 50.3125 4.234375 
Q 43.84375 -1.421875 31.78125 -1.421875 
Q 19.734375 -1.421875 13.25 4.234375 
Q 6.78125 9.90625 6.78125 20.515625 
Q 6.78125 27.484375 10.78125 32.3125 
Q 14.796875 37.15625 21.921875 38.8125 
z
M 18.3125 54.390625 
Q 18.3125 48.734375 21.84375 45.5625 
Q 25.390625 42.390625 31.78125 42.390625 
Q 38.140625 42.390625 41.71875 45.5625 
Q 45.3125 48.734375 45.3125 54.390625 
Q 45.3125 60.0625 41.71875 63.234375 
Q 38.140625 66.40625 31.78125 66.40625 
Q 25.390625 66.40625 21.84375 63.234375 
Q 18.3125 60.0625 18.3125 54.390625 
z
" id="DejaVuSans-56"/>
       <path d="M 31.78125 66.40625 
Q 24.171875 66.40625 20.328125 58.90625 
Q 16.5 51.421875 16.5 36.375 
Q 16.5 21.390625 20.328125 13.890625 
Q 24.171875 6.390625 31.78125 6.390625 
Q 39.453125 6.390625 43.28125 13.890625 
Q 47.125 21.390625 47.125 36.375 
Q 47.125 51.421875 43.28125 58.90625 
Q 39.453125 66.40625 31.78125 66.40625 
z
M 31.78125 74.21875 
Q 44.046875 74.21875 50.515625 64.515625 
Q 56.984375 54.828125 56.984375 36.375 
Q 56.984375 17.96875 50.515625 8.265625 
Q 44.046875 -1.421875 31.78125 -1.421875 
Q 19.53125 -1.421875 13.0625 8.265625 
Q 6.59375 17.96875 6.59375 36.375 
Q 6.59375 54.828125 13.0625 64.515625 
Q 19.53125 74.21875 31.78125 74.21875 
z
" id="DejaVuSans-48"/>
      </defs>
      <g transform="translate(56.815493 322.182437)scale(0.1 -0.1)">
       <use xlink:href="#DejaVuSans-8722"/>
       <use x="83.789062" xlink:href="#DejaVuSans-56"/>
       <use x="147.412109" xlink:href="#DejaVuSans-48"/>
       <use x="211.035156" xlink:href="#DejaVuSans-48"/>
      </g>
     </g>
    </g>
    <g id="xtick_2">
     <g id="line2d_3">
      <g>
       <use style="stroke:#000000;stroke-width:0.8;" x="140.937948" xlink:href="#md5b5b76b22" y="307.584"/>
      </g>
     </g>
     <g id="text_2">
      <!-- −600 -->
      <defs>
       <path d="M 33.015625 40.375 
Q 26.375 40.375 22.484375 35.828125 
Q 18.609375 31.296875 18.609375 23.390625 
Q 18.609375 15.53125 22.484375 10.953125 
Q 26.375 6.390625 33.015625 6.390625 
Q 39.65625 6.390625 43.53125 10.953125 
Q 47.40625 15.53125 47.40625 23.390625 
Q 47.40625 31.296875 43.53125 35.828125 
Q 39.65625 40.375 33.015625 40.375 
z
M 52.59375 71.296875 
L 52.59375 62.3125 
Q 48.875 64.0625 45.09375 64.984375 
Q 41.3125 65.921875 37.59375 65.921875 
Q 27.828125 65.921875 22.671875 59.328125 
Q 17.53125 52.734375 16.796875 39.40625 
Q 19.671875 43.65625 24.015625 45.921875 
Q 28.375 48.1875 33.59375 48.1875 
Q 44.578125 48.1875 50.953125 41.515625 
Q 57.328125 34.859375 57.328125 23.390625 
Q 57.328125 12.15625 50.6875 5.359375 
Q 44.046875 -1.421875 33.015625 -1.421875 
Q 20.359375 -1.421875 13.671875 8.265625 
Q 6.984375 17.96875 6.984375 36.375 
Q 6.984375 53.65625 15.1875 63.9375 
Q 23.390625 74.21875 37.203125 74.21875 
Q 40.921875 74.21875 44.703125 73.484375 
Q 48.484375 72.75 52.59375 71.296875 
z
" id="DejaVuSans-54"/>
      </defs>
      <g transform="translate(127.204355 322.182437)scale(0.1 -0.1)">
       <use xlink:href="#DejaVuSans-8722"/>
       <use x="83.789062" xlink:href="#DejaVuSans-54"/>
       <use x="147.412109" xlink:href="#DejaVuSans-48"/>
       <use x="211.035156" xlink:href="#DejaVuSans-48"/>
      </g>
     </g>
    </g>
    <g id="xtick_3">
     <g id="line2d_4">
      <g>
       <use style="stroke:#000000;stroke-width:0.8;" x="211.32681" xlink:href="#md5b5b76b22" y="307.584"/>
      </g>
     </g>
     <g id="text_3">
      <!-- −400 -->
      <defs>
       <path d="M 37.796875 64.3125 
L 12.890625 25.390625 
L 37.796875 25.390625 
z
M 35.203125 72.90625 
L 47.609375 72.90625 
L 47.609375 25.390625 
L 58.015625 25.390625 
L 58.015625 17.1875 
L 47.609375 17.1875 
L 47.609375 0 
L 37.796875 0 
L 37.796875 17.1875 
L 4.890625 17.1875 
L 4.890625 26.703125 
z
" id="DejaVuSans-52"/>
      </defs>
      <g transform="translate(197.593216 322.182437)scale(0.1 -0.1)">
       <use xlink:href="#DejaVuSans-8722"/>
       <use x="83.789062" xlink:href="#DejaVuSans-52"/>
       <use x="147.412109" xlink:href="#DejaVuSans-48"/>
       <use x="211.035156" xlink:href="#DejaVuSans-48"/>
      </g>
     </g>
    </g>
    <g id="xtick_4">
     <g id="line2d_5">
      <g>
       <use style="stroke:#000000;stroke-width:0.8;" x="281.715671" xlink:href="#md5b5b76b22" y="307.584"/>
      </g>
     </g>
     <g id="text_4">
      <!-- −200 -->
      <defs>
       <path d="M 19.1875 8.296875 
L 53.609375 8.296875 
L 53.609375 0 
L 7.328125 0 
L 7.328125 8.296875 
Q 12.9375 14.109375 22.625 23.890625 
Q 32.328125 33.6875 34.8125 36.53125 
Q 39.546875 41.84375 41.421875 45.53125 
Q 43.3125 49.21875 43.3125 52.78125 
Q 43.3125 58.59375 39.234375 62.25 
Q 35.15625 65.921875 28.609375 65.921875 
Q 23.96875 65.921875 18.8125 64.3125 
Q 13.671875 62.703125 7.8125 59.421875 
L 7.8125 69.390625 
Q 13.765625 71.78125 18.9375 73 
Q 24.125 74.21875 28.421875 74.21875 
Q 39.75 74.21875 46.484375 68.546875 
Q 53.21875 62.890625 53.21875 53.421875 
Q 53.21875 48.921875 51.53125 44.890625 
Q 49.859375 40.875 45.40625 35.40625 
Q 44.1875 33.984375 37.640625 27.21875 
Q 31.109375 20.453125 19.1875 8.296875 
z
" id="DejaVuSans-50"/>
      </defs>
      <g transform="translate(267.982077 322.182437)scale(0.1 -0.1)">
       <use xlink:href="#DejaVuSans-8722"/>
       <use x="83.789062" xlink:href="#DejaVuSans-50"/>
       <use x="147.412109" xlink:href="#DejaVuSans-48"/>
       <use x="211.035156" xlink:href="#DejaVuSans-48"/>
      </g>
     </g>
    </g>
    <g id="xtick_5">
     <g id="line2d_6">
      <g>
       <use style="stroke:#000000;stroke-width:0.8;" x="352.104533" xlink:href="#md5b5b76b22" y="307.584"/>
      </g>
     </g>
     <g id="text_5">
      <!-- 0 -->
      <g transform="translate(348.923283 322.182437)scale(0.1 -0.1)">
       <use xlink:href="#DejaVuSans-48"/>
      </g>
     </g>
    </g>
   </g>
   <g id="matplotlib.axis_2">
    <g id="ytick_1">
     <g id="line2d_7">
      <defs>
       <path d="M 0 0 
L -3.5 0 
" id="m2cdedf8c09" style="stroke:#000000;stroke-width:0.8;"/>
      </defs>
      <g>
       <use style="stroke:#000000;stroke-width:0.8;" x="57.6" xlink:href="#m2cdedf8c09" y="283.822316"/>
      </g>
     </g>
     <g id="text_6">
      <!-- 0 -->
      <g transform="translate(44.2375 287.621535)scale(0.1 -0.1)">
       <use xlink:href="#DejaVuSans-48"/>
      </g>
     </g>
    </g>
    <g id="ytick_2">
     <g id="line2d_8">
      <g>
       <use style="stroke:#000000;stroke-width:0.8;" x="57.6" xlink:href="#m2cdedf8c09" y="245.959014"/>
      </g>
     </g>
     <g id="text_7">
      <!-- 200 -->
      <g transform="translate(31.5125 249.758232)scale(0.1 -0.1)">
       <use xlink:href="#DejaVuSans-50"/>
       <use x="63.623047" xlink:href="#DejaVuSans-48"/>
       <use x="127.246094" xlink:href="#DejaVuSans-48"/>
      </g>
     </g>
    </g>
    <g id="ytick_3">
     <g id="line2d_9">
      <g>
       <use style="stroke:#000000;stroke-width:0.8;" x="57.6" xlink:href="#m2cdedf8c09" y="208.095711"/>
      </g>
     </g>
     <g id="text_8">
      <!-- 400 -->
      <g transform="translate(31.5125 211.89493)scale(0.1 -0.1)">
       <use xlink:href="#DejaVuSans-52"/>
       <use x="63.623047" xlink:href="#DejaVuSans-48"/>
       <use x="127.246094" xlink:href="#DejaVuSans-48"/>
      </g>
     </g>
    </g>
    <g id="ytick_4">
     <g id="line2d_10">
      <g>
       <use style="stroke:#000000;stroke-width:0.8;" x="57.6" xlink:href="#m2cdedf8c09" y="170.232408"/>
      </g>
     </g>
     <g id="text_9">
      <!-- 600 -->
      <g transform="translate(31.5125 174.031627)scale(0.1 -0.1)">
       <use xlink:href="#DejaVuSans-54"/>
       <use x="63.623047" xlink:href="#DejaVuSans-48"/>
       <use x="127.246094" xlink:href="#DejaVuSans-48"/>
      </g>
     </g>
    </g>
    <g id="ytick_5">
     <g id="line2d_11">
      <g>
       <use style="stroke:#000000;stroke-width:0.8;" x="57.6" xlink:href="#m2cdedf8c09" y="132.369106"/>
      </g>
     </g>
     <g id="text_10">
      <!-- 800 -->
      <g transform="translate(31.5125 136.168324)scale(0.1 -0.1)">
       <use xlink:href="#DejaVuSans-56"/>
       <use x="63.623047" xlink:href="#DejaVuSans-48"/>
       <use x="127.246094" xlink:href="#DejaVuSans-48"/>
      </g>
     </g>
    </g>
    <g id="ytick_6">
     <g id="line2d_12">
      <g>
       <use style="stroke:#000000;stroke-width:0.8;" x="57.6" xlink:href="#m2cdedf8c09" y="94.505803"/>
      </g>
     </g>
     <g id="text_11">
      <!-- 1000 -->
      <defs>
       <path d="M 12.40625 8.296875 
L 28.515625 8.296875 
L 28.515625 63.921875 
L 10.984375 60.40625 
L 10.984375 69.390625 
L 28.421875 72.90625 
L 38.28125 72.90625 
L 38.28125 8.296875 
L 54.390625 8.296875 
L 54.390625 0 
L 12.40625 0 
z
" id="DejaVuSans-49"/>
      </defs>
      <g transform="translate(25.15 98.305022)scale(0.1 -0.1)">
       <use xlink:href="#DejaVuSans-49"/>
       <use x="63.623047" xlink:href="#DejaVuSans-48"/>
       <use x="127.246094" xlink:href="#DejaVuSans-48"/>
       <use x="190.869141" xlink:href="#DejaVuSans-48"/>
      </g>
     </g>
    </g>
    <g id="ytick_7">
     <g id="line2d_13">
      <g>
       <use style="stroke:#000000;stroke-width:0.8;" x="57.6" xlink:href="#m2cdedf8c09" y="56.6425"/>
      </g>
     </g>
     <g id="text_12">
      <!-- 1200 -->
      <g transform="translate(25.15 60.441719)scale(0.1 -0.1)">
       <use xlink:href="#DejaVuSans-49"/>
       <use x="63.623047" xlink:href="#DejaVuSans-50"/>
       <use x="127.246094" xlink:href="#DejaVuSans-48"/>
       <use x="190.869141" xlink:href="#DejaVuSans-48"/>
      </g>
     </g>
    </g>
   </g>
   <g id="line2d_14">
    <path clip-path="url(#p31d735db5b)" d="M 77.171172 57.143401 
L 378.385072 239.644831 
L 343.448597 263.681083 
L 393.896468 291.872952 
" style="fill:none;stroke:#ff0000;stroke-linecap:square;stroke-width:0.5;"/>
   </g>
   <g id="patch_3">
    <path d="M 57.6 307.584 
L 57.6 41.472 
" style="fill:none;stroke:#000000;stroke-linecap:square;stroke-linejoin:miter;stroke-width:0.8;"/>
   </g>
   <g id="patch_4">
    <path d="M 414.72 307.584 
L 414.72 41.472 
" style="fill:none;stroke:#000000;stroke-linecap:square;stroke-linejoin:miter;stroke-width:0.8;"/>
   </g>
   <g id="patch_5">
    <path d="M 57.6 307.584 
L 414.72 307.584 
" style="fill:none;stroke:#000000;stroke-linecap:square;stroke-linejoin:miter;stroke-width:0.8;"/>
   </g>
   <g id="patch_6">
    <path d="M 57.6 41.472 
L 414.72 41.472 
" style="fill:none;stroke:#000000;stroke-linecap:square;stroke-linejoin:miter;stroke-width:0.8;"/>
   </g>
   <g id="PathCollection_1">
    <defs>
     <path d="M 0 2.738613 
C 0.726289 2.738613 1.422928 2.450055 1.936492 1.936492 
C 2.450055 1.422928 2.738613 0.726289 2.738613 0 
C 2.738613 -0.726289 2.450055 -1.422928 1.936492 -1.936492 
C 1.422928 -2.450055 0.726289 -2.738613 0 -2.738613 
C -0.726289 -2.738613 -1.422928 -2.450055 -1.936492 -1.936492 
C -2.450055 -1.422928 -2.738613 -0.726289 -2.738613 0 
C -2.738613 0.726289 -2.450055 1.422928 -1.936492 1.936492 
C -1.422928 2.450055 -0.726289 2.738613 0 2.738613 
z
" id="m765cd292c2" style="stroke:#ff0000;"/>
    </defs>
    <g clip-path="url(#p31d735db5b)">
     <use style="fill:#ff0000;stroke:#ff0000;" x="77.171172" xlink:href="#m765cd292c2" y="57.143401"/>
     <use style="fill:#ff0000;stroke:#ff0000;" x="378.385072" xlink:href="#m765cd292c2" y="239.644831"/>
     <use style="fill:#ff0000;stroke:#ff0000;" x="343.448597" xlink:href="#m765cd292c2" y="263.681083"/>
     <use style="fill:#ff0000;stroke:#ff0000;" x="393.896468" xlink:href="#m765cd292c2" y="291.872952"/>
    </g>
   </g>
   <g id="text_13">
    <!-- (89) Subject: s23, Known = False, Degree = 2, Duration = 0.1 -->
    <defs>
     <path d="M 31 75.875 
Q 24.46875 64.65625 21.28125 53.65625 
Q 18.109375 42.671875 18.109375 31.390625 
Q 18.109375 20.125 21.3125 9.0625 
Q 24.515625 -2 31 -13.1875 
L 23.1875 -13.1875 
Q 15.875 -1.703125 12.234375 9.375 
Q 8.59375 20.453125 8.59375 31.390625 
Q 8.59375 42.28125 12.203125 53.3125 
Q 15.828125 64.359375 23.1875 75.875 
z
" id="DejaVuSans-40"/>
     <path d="M 10.984375 1.515625 
L 10.984375 10.5 
Q 14.703125 8.734375 18.5 7.8125 
Q 22.3125 6.890625 25.984375 6.890625 
Q 35.75 6.890625 40.890625 13.453125 
Q 46.046875 20.015625 46.78125 33.40625 
Q 43.953125 29.203125 39.59375 26.953125 
Q 35.25 24.703125 29.984375 24.703125 
Q 19.046875 24.703125 12.671875 31.3125 
Q 6.296875 37.9375 6.296875 49.421875 
Q 6.296875 60.640625 12.9375 67.421875 
Q 19.578125 74.21875 30.609375 74.21875 
Q 43.265625 74.21875 49.921875 64.515625 
Q 56.59375 54.828125 56.59375 36.375 
Q 56.59375 19.140625 48.40625 8.859375 
Q 40.234375 -1.421875 26.421875 -1.421875 
Q 22.703125 -1.421875 18.890625 -0.6875 
Q 15.09375 0.046875 10.984375 1.515625 
z
M 30.609375 32.421875 
Q 37.25 32.421875 41.125 36.953125 
Q 45.015625 41.5 45.015625 49.421875 
Q 45.015625 57.28125 41.125 61.84375 
Q 37.25 66.40625 30.609375 66.40625 
Q 23.96875 66.40625 20.09375 61.84375 
Q 16.21875 57.28125 16.21875 49.421875 
Q 16.21875 41.5 20.09375 36.953125 
Q 23.96875 32.421875 30.609375 32.421875 
z
" id="DejaVuSans-57"/>
     <path d="M 8.015625 75.875 
L 15.828125 75.875 
Q 23.140625 64.359375 26.78125 53.3125 
Q 30.421875 42.28125 30.421875 31.390625 
Q 30.421875 20.453125 26.78125 9.375 
Q 23.140625 -1.703125 15.828125 -13.1875 
L 8.015625 -13.1875 
Q 14.5 -2 17.703125 9.0625 
Q 20.90625 20.125 20.90625 31.390625 
Q 20.90625 42.671875 17.703125 53.65625 
Q 14.5 64.65625 8.015625 75.875 
z
" id="DejaVuSans-41"/>
     <path id="DejaVuSans-32"/>
     <path d="M 53.515625 70.515625 
L 53.515625 60.890625 
Q 47.90625 63.578125 42.921875 64.890625 
Q 37.9375 66.21875 33.296875 66.21875 
Q 25.25 66.21875 20.875 63.09375 
Q 16.5 59.96875 16.5 54.203125 
Q 16.5 49.359375 19.40625 46.890625 
Q 22.3125 44.4375 30.421875 42.921875 
L 36.375 41.703125 
Q 47.40625 39.59375 52.65625 34.296875 
Q 57.90625 29 57.90625 20.125 
Q 57.90625 9.515625 50.796875 4.046875 
Q 43.703125 -1.421875 29.984375 -1.421875 
Q 24.8125 -1.421875 18.96875 -0.25 
Q 13.140625 0.921875 6.890625 3.21875 
L 6.890625 13.375 
Q 12.890625 10.015625 18.65625 8.296875 
Q 24.421875 6.59375 29.984375 6.59375 
Q 38.421875 6.59375 43.015625 9.90625 
Q 47.609375 13.234375 47.609375 19.390625 
Q 47.609375 24.75 44.3125 27.78125 
Q 41.015625 30.8125 33.5 32.328125 
L 27.484375 33.5 
Q 16.453125 35.6875 11.515625 40.375 
Q 6.59375 45.0625 6.59375 53.421875 
Q 6.59375 63.09375 13.40625 68.65625 
Q 20.21875 74.21875 32.171875 74.21875 
Q 37.3125 74.21875 42.625 73.28125 
Q 47.953125 72.359375 53.515625 70.515625 
z
" id="DejaVuSans-83"/>
     <path d="M 8.5 21.578125 
L 8.5 54.6875 
L 17.484375 54.6875 
L 17.484375 21.921875 
Q 17.484375 14.15625 20.5 10.265625 
Q 23.53125 6.390625 29.59375 6.390625 
Q 36.859375 6.390625 41.078125 11.03125 
Q 45.3125 15.671875 45.3125 23.6875 
L 45.3125 54.6875 
L 54.296875 54.6875 
L 54.296875 0 
L 45.3125 0 
L 45.3125 8.40625 
Q 42.046875 3.421875 37.71875 1 
Q 33.40625 -1.421875 27.6875 -1.421875 
Q 18.265625 -1.421875 13.375 4.4375 
Q 8.5 10.296875 8.5 21.578125 
z
M 31.109375 56 
z
" id="DejaVuSans-117"/>
     <path d="M 48.6875 27.296875 
Q 48.6875 37.203125 44.609375 42.84375 
Q 40.53125 48.484375 33.40625 48.484375 
Q 26.265625 48.484375 22.1875 42.84375 
Q 18.109375 37.203125 18.109375 27.296875 
Q 18.109375 17.390625 22.1875 11.75 
Q 26.265625 6.109375 33.40625 6.109375 
Q 40.53125 6.109375 44.609375 11.75 
Q 48.6875 17.390625 48.6875 27.296875 
z
M 18.109375 46.390625 
Q 20.953125 51.265625 25.265625 53.625 
Q 29.59375 56 35.59375 56 
Q 45.5625 56 51.78125 48.09375 
Q 58.015625 40.1875 58.015625 27.296875 
Q 58.015625 14.40625 51.78125 6.484375 
Q 45.5625 -1.421875 35.59375 -1.421875 
Q 29.59375 -1.421875 25.265625 0.953125 
Q 20.953125 3.328125 18.109375 8.203125 
L 18.109375 0 
L 9.078125 0 
L 9.078125 75.984375 
L 18.109375 75.984375 
z
" id="DejaVuSans-98"/>
     <path d="M 9.421875 54.6875 
L 18.40625 54.6875 
L 18.40625 -0.984375 
Q 18.40625 -11.421875 14.421875 -16.109375 
Q 10.453125 -20.796875 1.609375 -20.796875 
L -1.8125 -20.796875 
L -1.8125 -13.1875 
L 0.59375 -13.1875 
Q 5.71875 -13.1875 7.5625 -10.8125 
Q 9.421875 -8.453125 9.421875 -0.984375 
z
M 9.421875 75.984375 
L 18.40625 75.984375 
L 18.40625 64.59375 
L 9.421875 64.59375 
z
" id="DejaVuSans-106"/>
     <path d="M 56.203125 29.59375 
L 56.203125 25.203125 
L 14.890625 25.203125 
Q 15.484375 15.921875 20.484375 11.0625 
Q 25.484375 6.203125 34.421875 6.203125 
Q 39.59375 6.203125 44.453125 7.46875 
Q 49.3125 8.734375 54.109375 11.28125 
L 54.109375 2.78125 
Q 49.265625 0.734375 44.1875 -0.34375 
Q 39.109375 -1.421875 33.890625 -1.421875 
Q 20.796875 -1.421875 13.15625 6.1875 
Q 5.515625 13.8125 5.515625 26.8125 
Q 5.515625 40.234375 12.765625 48.109375 
Q 20.015625 56 32.328125 56 
Q 43.359375 56 49.78125 48.890625 
Q 56.203125 41.796875 56.203125 29.59375 
z
M 47.21875 32.234375 
Q 47.125 39.59375 43.09375 43.984375 
Q 39.0625 48.390625 32.421875 48.390625 
Q 24.90625 48.390625 20.390625 44.140625 
Q 15.875 39.890625 15.1875 32.171875 
z
" id="DejaVuSans-101"/>
     <path d="M 48.78125 52.59375 
L 48.78125 44.1875 
Q 44.96875 46.296875 41.140625 47.34375 
Q 37.3125 48.390625 33.40625 48.390625 
Q 24.65625 48.390625 19.8125 42.84375 
Q 14.984375 37.3125 14.984375 27.296875 
Q 14.984375 17.28125 19.8125 11.734375 
Q 24.65625 6.203125 33.40625 6.203125 
Q 37.3125 6.203125 41.140625 7.25 
Q 44.96875 8.296875 48.78125 10.40625 
L 48.78125 2.09375 
Q 45.015625 0.34375 40.984375 -0.53125 
Q 36.96875 -1.421875 32.421875 -1.421875 
Q 20.0625 -1.421875 12.78125 6.34375 
Q 5.515625 14.109375 5.515625 27.296875 
Q 5.515625 40.671875 12.859375 48.328125 
Q 20.21875 56 33.015625 56 
Q 37.15625 56 41.109375 55.140625 
Q 45.0625 54.296875 48.78125 52.59375 
z
" id="DejaVuSans-99"/>
     <path d="M 18.3125 70.21875 
L 18.3125 54.6875 
L 36.8125 54.6875 
L 36.8125 47.703125 
L 18.3125 47.703125 
L 18.3125 18.015625 
Q 18.3125 11.328125 20.140625 9.421875 
Q 21.96875 7.515625 27.59375 7.515625 
L 36.8125 7.515625 
L 36.8125 0 
L 27.59375 0 
Q 17.1875 0 13.234375 3.875 
Q 9.28125 7.765625 9.28125 18.015625 
L 9.28125 47.703125 
L 2.6875 47.703125 
L 2.6875 54.6875 
L 9.28125 54.6875 
L 9.28125 70.21875 
z
" id="DejaVuSans-116"/>
     <path d="M 11.71875 12.40625 
L 22.015625 12.40625 
L 22.015625 0 
L 11.71875 0 
z
M 11.71875 51.703125 
L 22.015625 51.703125 
L 22.015625 39.3125 
L 11.71875 39.3125 
z
" id="DejaVuSans-58"/>
     <path d="M 44.28125 53.078125 
L 44.28125 44.578125 
Q 40.484375 46.53125 36.375 47.5 
Q 32.28125 48.484375 27.875 48.484375 
Q 21.1875 48.484375 17.84375 46.4375 
Q 14.5 44.390625 14.5 40.28125 
Q 14.5 37.15625 16.890625 35.375 
Q 19.28125 33.59375 26.515625 31.984375 
L 29.59375 31.296875 
Q 39.15625 29.25 43.1875 25.515625 
Q 47.21875 21.78125 47.21875 15.09375 
Q 47.21875 7.46875 41.1875 3.015625 
Q 35.15625 -1.421875 24.609375 -1.421875 
Q 20.21875 -1.421875 15.453125 -0.5625 
Q 10.6875 0.296875 5.421875 2 
L 5.421875 11.28125 
Q 10.40625 8.6875 15.234375 7.390625 
Q 20.0625 6.109375 24.8125 6.109375 
Q 31.15625 6.109375 34.5625 8.28125 
Q 37.984375 10.453125 37.984375 14.40625 
Q 37.984375 18.0625 35.515625 20.015625 
Q 33.0625 21.96875 24.703125 23.78125 
L 21.578125 24.515625 
Q 13.234375 26.265625 9.515625 29.90625 
Q 5.8125 33.546875 5.8125 39.890625 
Q 5.8125 47.609375 11.28125 51.796875 
Q 16.75 56 26.8125 56 
Q 31.78125 56 36.171875 55.265625 
Q 40.578125 54.546875 44.28125 53.078125 
z
" id="DejaVuSans-115"/>
     <path d="M 40.578125 39.3125 
Q 47.65625 37.796875 51.625 33 
Q 55.609375 28.21875 55.609375 21.1875 
Q 55.609375 10.40625 48.1875 4.484375 
Q 40.765625 -1.421875 27.09375 -1.421875 
Q 22.515625 -1.421875 17.65625 -0.515625 
Q 12.796875 0.390625 7.625 2.203125 
L 7.625 11.71875 
Q 11.71875 9.328125 16.59375 8.109375 
Q 21.484375 6.890625 26.8125 6.890625 
Q 36.078125 6.890625 40.9375 10.546875 
Q 45.796875 14.203125 45.796875 21.1875 
Q 45.796875 27.640625 41.28125 31.265625 
Q 36.765625 34.90625 28.71875 34.90625 
L 20.21875 34.90625 
L 20.21875 43.015625 
L 29.109375 43.015625 
Q 36.375 43.015625 40.234375 45.921875 
Q 44.09375 48.828125 44.09375 54.296875 
Q 44.09375 59.90625 40.109375 62.90625 
Q 36.140625 65.921875 28.71875 65.921875 
Q 24.65625 65.921875 20.015625 65.03125 
Q 15.375 64.15625 9.8125 62.3125 
L 9.8125 71.09375 
Q 15.4375 72.65625 20.34375 73.4375 
Q 25.25 74.21875 29.59375 74.21875 
Q 40.828125 74.21875 47.359375 69.109375 
Q 53.90625 64.015625 53.90625 55.328125 
Q 53.90625 49.265625 50.4375 45.09375 
Q 46.96875 40.921875 40.578125 39.3125 
z
" id="DejaVuSans-51"/>
     <path d="M 11.71875 12.40625 
L 22.015625 12.40625 
L 22.015625 4 
L 14.015625 -11.625 
L 7.71875 -11.625 
L 11.71875 4 
z
" id="DejaVuSans-44"/>
     <path d="M 9.8125 72.90625 
L 19.671875 72.90625 
L 19.671875 42.09375 
L 52.390625 72.90625 
L 65.09375 72.90625 
L 28.90625 38.921875 
L 67.671875 0 
L 54.6875 0 
L 19.671875 35.109375 
L 19.671875 0 
L 9.8125 0 
z
" id="DejaVuSans-75"/>
     <path d="M 54.890625 33.015625 
L 54.890625 0 
L 45.90625 0 
L 45.90625 32.71875 
Q 45.90625 40.484375 42.875 44.328125 
Q 39.84375 48.1875 33.796875 48.1875 
Q 26.515625 48.1875 22.3125 43.546875 
Q 18.109375 38.921875 18.109375 30.90625 
L 18.109375 0 
L 9.078125 0 
L 9.078125 54.6875 
L 18.109375 54.6875 
L 18.109375 46.1875 
Q 21.34375 51.125 25.703125 53.5625 
Q 30.078125 56 35.796875 56 
Q 45.21875 56 50.046875 50.171875 
Q 54.890625 44.34375 54.890625 33.015625 
z
" id="DejaVuSans-110"/>
     <path d="M 30.609375 48.390625 
Q 23.390625 48.390625 19.1875 42.75 
Q 14.984375 37.109375 14.984375 27.296875 
Q 14.984375 17.484375 19.15625 11.84375 
Q 23.34375 6.203125 30.609375 6.203125 
Q 37.796875 6.203125 41.984375 11.859375 
Q 46.1875 17.53125 46.1875 27.296875 
Q 46.1875 37.015625 41.984375 42.703125 
Q 37.796875 48.390625 30.609375 48.390625 
z
M 30.609375 56 
Q 42.328125 56 49.015625 48.375 
Q 55.71875 40.765625 55.71875 27.296875 
Q 55.71875 13.875 49.015625 6.21875 
Q 42.328125 -1.421875 30.609375 -1.421875 
Q 18.84375 -1.421875 12.171875 6.21875 
Q 5.515625 13.875 5.515625 27.296875 
Q 5.515625 40.765625 12.171875 48.375 
Q 18.84375 56 30.609375 56 
z
" id="DejaVuSans-111"/>
     <path d="M 4.203125 54.6875 
L 13.1875 54.6875 
L 24.421875 12.015625 
L 35.59375 54.6875 
L 46.1875 54.6875 
L 57.421875 12.015625 
L 68.609375 54.6875 
L 77.59375 54.6875 
L 63.28125 0 
L 52.6875 0 
L 40.921875 44.828125 
L 29.109375 0 
L 18.5 0 
z
" id="DejaVuSans-119"/>
     <path d="M 10.59375 45.40625 
L 73.1875 45.40625 
L 73.1875 37.203125 
L 10.59375 37.203125 
z
M 10.59375 25.484375 
L 73.1875 25.484375 
L 73.1875 17.1875 
L 10.59375 17.1875 
z
" id="DejaVuSans-61"/>
     <path d="M 9.8125 72.90625 
L 51.703125 72.90625 
L 51.703125 64.59375 
L 19.671875 64.59375 
L 19.671875 43.109375 
L 48.578125 43.109375 
L 48.578125 34.8125 
L 19.671875 34.8125 
L 19.671875 0 
L 9.8125 0 
z
" id="DejaVuSans-70"/>
     <path d="M 34.28125 27.484375 
Q 23.390625 27.484375 19.1875 25 
Q 14.984375 22.515625 14.984375 16.5 
Q 14.984375 11.71875 18.140625 8.90625 
Q 21.296875 6.109375 26.703125 6.109375 
Q 34.1875 6.109375 38.703125 11.40625 
Q 43.21875 16.703125 43.21875 25.484375 
L 43.21875 27.484375 
z
M 52.203125 31.203125 
L 52.203125 0 
L 43.21875 0 
L 43.21875 8.296875 
Q 40.140625 3.328125 35.546875 0.953125 
Q 30.953125 -1.421875 24.3125 -1.421875 
Q 15.921875 -1.421875 10.953125 3.296875 
Q 6 8.015625 6 15.921875 
Q 6 25.140625 12.171875 29.828125 
Q 18.359375 34.515625 30.609375 34.515625 
L 43.21875 34.515625 
L 43.21875 35.40625 
Q 43.21875 41.609375 39.140625 45 
Q 35.0625 48.390625 27.6875 48.390625 
Q 23 48.390625 18.546875 47.265625 
Q 14.109375 46.140625 10.015625 43.890625 
L 10.015625 52.203125 
Q 14.9375 54.109375 19.578125 55.046875 
Q 24.21875 56 28.609375 56 
Q 40.484375 56 46.34375 49.84375 
Q 52.203125 43.703125 52.203125 31.203125 
z
" id="DejaVuSans-97"/>
     <path d="M 9.421875 75.984375 
L 18.40625 75.984375 
L 18.40625 0 
L 9.421875 0 
z
" id="DejaVuSans-108"/>
     <path d="M 19.671875 64.796875 
L 19.671875 8.109375 
L 31.59375 8.109375 
Q 46.6875 8.109375 53.6875 14.9375 
Q 60.6875 21.78125 60.6875 36.53125 
Q 60.6875 51.171875 53.6875 57.984375 
Q 46.6875 64.796875 31.59375 64.796875 
z
M 9.8125 72.90625 
L 30.078125 72.90625 
Q 51.265625 72.90625 61.171875 64.09375 
Q 71.09375 55.28125 71.09375 36.53125 
Q 71.09375 17.671875 61.125 8.828125 
Q 51.171875 0 30.078125 0 
L 9.8125 0 
z
" id="DejaVuSans-68"/>
     <path d="M 45.40625 27.984375 
Q 45.40625 37.75 41.375 43.109375 
Q 37.359375 48.484375 30.078125 48.484375 
Q 22.859375 48.484375 18.828125 43.109375 
Q 14.796875 37.75 14.796875 27.984375 
Q 14.796875 18.265625 18.828125 12.890625 
Q 22.859375 7.515625 30.078125 7.515625 
Q 37.359375 7.515625 41.375 12.890625 
Q 45.40625 18.265625 45.40625 27.984375 
z
M 54.390625 6.78125 
Q 54.390625 -7.171875 48.1875 -13.984375 
Q 42 -20.796875 29.203125 -20.796875 
Q 24.46875 -20.796875 20.265625 -20.09375 
Q 16.0625 -19.390625 12.109375 -17.921875 
L 12.109375 -9.1875 
Q 16.0625 -11.328125 19.921875 -12.34375 
Q 23.78125 -13.375 27.78125 -13.375 
Q 36.625 -13.375 41.015625 -8.765625 
Q 45.40625 -4.15625 45.40625 5.171875 
L 45.40625 9.625 
Q 42.625 4.78125 38.28125 2.390625 
Q 33.9375 0 27.875 0 
Q 17.828125 0 11.671875 7.65625 
Q 5.515625 15.328125 5.515625 27.984375 
Q 5.515625 40.671875 11.671875 48.328125 
Q 17.828125 56 27.875 56 
Q 33.9375 56 38.28125 53.609375 
Q 42.625 51.21875 45.40625 46.390625 
L 45.40625 54.6875 
L 54.390625 54.6875 
z
" id="DejaVuSans-103"/>
     <path d="M 41.109375 46.296875 
Q 39.59375 47.171875 37.8125 47.578125 
Q 36.03125 48 33.890625 48 
Q 26.265625 48 22.1875 43.046875 
Q 18.109375 38.09375 18.109375 28.8125 
L 18.109375 0 
L 9.078125 0 
L 9.078125 54.6875 
L 18.109375 54.6875 
L 18.109375 46.1875 
Q 20.953125 51.171875 25.484375 53.578125 
Q 30.03125 56 36.53125 56 
Q 37.453125 56 38.578125 55.875 
Q 39.703125 55.765625 41.0625 55.515625 
z
" id="DejaVuSans-114"/>
     <path d="M 9.421875 54.6875 
L 18.40625 54.6875 
L 18.40625 0 
L 9.421875 0 
z
M 9.421875 75.984375 
L 18.40625 75.984375 
L 18.40625 64.59375 
L 9.421875 64.59375 
z
" id="DejaVuSans-105"/>
     <path d="M 10.6875 12.40625 
L 21 12.40625 
L 21 0 
L 10.6875 0 
z
" id="DejaVuSans-46"/>
    </defs>
    <g transform="translate(49.741875 35.472)scale(0.12 -0.12)">
     <use xlink:href="#DejaVuSans-40"/>
     <use x="39.013672" xlink:href="#DejaVuSans-56"/>
     <use x="102.636719" xlink:href="#DejaVuSans-57"/>
     <use x="166.259766" xlink:href="#DejaVuSans-41"/>
     <use x="205.273438" xlink:href="#DejaVuSans-32"/>
     <use x="237.060547" xlink:href="#DejaVuSans-83"/>
     <use x="300.537109" xlink:href="#DejaVuSans-117"/>
     <use x="363.916016" xlink:href="#DejaVuSans-98"/>
     <use x="427.392578" xlink:href="#DejaVuSans-106"/>
     <use x="455.175781" xlink:href="#DejaVuSans-101"/>
     <use x="516.699219" xlink:href="#DejaVuSans-99"/>
     <use x="571.679688" xlink:href="#DejaVuSans-116"/>
     <use x="610.888672" xlink:href="#DejaVuSans-58"/>
     <use x="644.580078" xlink:href="#DejaVuSans-32"/>
     <use x="676.367188" xlink:href="#DejaVuSans-115"/>
     <use x="728.466797" xlink:href="#DejaVuSans-50"/>
     <use x="792.089844" xlink:href="#DejaVuSans-51"/>
     <use x="855.712891" xlink:href="#DejaVuSans-44"/>
     <use x="887.5" xlink:href="#DejaVuSans-32"/>
     <use x="919.287109" xlink:href="#DejaVuSans-75"/>
     <use x="984.863281" xlink:href="#DejaVuSans-110"/>
     <use x="1048.242188" xlink:href="#DejaVuSans-111"/>
     <use x="1109.423828" xlink:href="#DejaVuSans-119"/>
     <use x="1191.210938" xlink:href="#DejaVuSans-110"/>
     <use x="1254.589844" xlink:href="#DejaVuSans-32"/>
     <use x="1286.376953" xlink:href="#DejaVuSans-61"/>
     <use x="1370.166016" xlink:href="#DejaVuSans-32"/>
     <use x="1401.953125" xlink:href="#DejaVuSans-70"/>
     <use x="1459.332031" xlink:href="#DejaVuSans-97"/>
     <use x="1520.611328" xlink:href="#DejaVuSans-108"/>
     <use x="1548.394531" xlink:href="#DejaVuSans-115"/>
     <use x="1600.494141" xlink:href="#DejaVuSans-101"/>
     <use x="1662.017578" xlink:href="#DejaVuSans-44"/>
     <use x="1693.804688" xlink:href="#DejaVuSans-32"/>
     <use x="1725.591797" xlink:href="#DejaVuSans-68"/>
     <use x="1802.59375" xlink:href="#DejaVuSans-101"/>
     <use x="1864.117188" xlink:href="#DejaVuSans-103"/>
     <use x="1927.59375" xlink:href="#DejaVuSans-114"/>
     <use x="1968.675781" xlink:href="#DejaVuSans-101"/>
     <use x="2030.199219" xlink:href="#DejaVuSans-101"/>
     <use x="2091.722656" xlink:href="#DejaVuSans-32"/>
     <use x="2123.509766" xlink:href="#DejaVuSans-61"/>
     <use x="2207.298828" xlink:href="#DejaVuSans-32"/>
     <use x="2239.085938" xlink:href="#DejaVuSans-50"/>
     <use x="2302.708984" xlink:href="#DejaVuSans-44"/>
     <use x="2334.496094" xlink:href="#DejaVuSans-32"/>
     <use x="2366.283203" xlink:href="#DejaVuSans-68"/>
     <use x="2443.285156" xlink:href="#DejaVuSans-117"/>
     <use x="2506.664062" xlink:href="#DejaVuSans-114"/>
     <use x="2547.777344" xlink:href="#DejaVuSans-97"/>
     <use x="2609.056641" xlink:href="#DejaVuSans-116"/>
     <use x="2648.265625" xlink:href="#DejaVuSans-105"/>
     <use x="2676.048828" xlink:href="#DejaVuSans-111"/>
     <use x="2737.230469" xlink:href="#DejaVuSans-110"/>
     <use x="2800.609375" xlink:href="#DejaVuSans-32"/>
     <use x="2832.396484" xlink:href="#DejaVuSans-61"/>
     <use x="2916.185547" xlink:href="#DejaVuSans-32"/>
     <use x="2947.972656" xlink:href="#DejaVuSans-48"/>
     <use x="3011.595703" xlink:href="#DejaVuSans-46"/>
     <use x="3043.382812" xlink:href="#DejaVuSans-49"/>
    </g>
   </g>
  </g>
 </g>
 <defs>
  <clipPath id="p31d735db5b">
   <rect height="266.112" width="357.12" x="57.6" y="41.472"/>
  </clipPath>
 </defs>
</svg>
